<svg xmlns="http://www.w3.org/2000/svg" viewBox="0 0 704.681 357.957"><defs><style>.cls-1,.cls-3,.cls-4,.cls-8{fill:none;stroke-linecap:round;}.cls-1{stroke:#d1d3d4;stroke-dasharray:3.029 9.088;}.cls-1,.cls-8{stroke-linejoin:round;}.cls-2{fill:#f1f2f2;}.cls-3{stroke:#4297dd;}.cls-3,.cls-4{stroke-miterlimit:10;stroke-width:3px;}.cls-4{stroke:#2e3d99;}.cls-5{fill:#4297dd;}.cls-6{fill:#58595b;}.cls-7{fill:#2e3d99;}.cls-8{stroke:#58595b;}</style></defs><g id="Guides"><line class="cls-1" x1="663.827" y1="324.747" x2="663.827" y2="30.979"/><line class="cls-1" x1="630.378" y1="324.747" x2="630.378" y2="30.979"/><line class="cls-1" x1="596.929" y1="324.747" x2="596.929" y2="30.979"/><line class="cls-1" x1="563.481" y1="324.747" x2="563.481" y2="30.979"/><line class="cls-1" x1="530.032" y1="324.747" x2="530.032" y2="30.979"/><line class="cls-1" x1="496.583" y1="324.747" x2="496.583" y2="30.979"/><line class="cls-1" x1="463.134" y1="324.747" x2="463.134" y2="30.979"/><line class="cls-1" x1="429.685" y1="324.747" x2="429.685" y2="30.979"/><line class="cls-1" x1="396.236" y1="324.747" x2="396.236" y2="30.979"/><line class="cls-1" x1="362.788" y1="324.747" x2="362.788" y2="30.979"/><line class="cls-1" x1="329.339" y1="324.747" x2="329.339" y2="30.979"/><line class="cls-1" x1="295.89" y1="324.747" x2="295.89" y2="30.979"/><line class="cls-1" x1="262.441" y1="324.747" x2="262.441" y2="30.979"/><line class="cls-1" x1="228.992" y1="324.747" x2="228.992" y2="30.979"/><line class="cls-1" x1="195.544" y1="324.747" x2="195.544" y2="30.979"/><line class="cls-1" x1="162.095" y1="324.747" x2="162.095" y2="30.979"/><line class="cls-1" x1="128.646" y1="324.747" x2="128.646" y2="30.979"/><line class="cls-1" x1="95.197" y1="324.747" x2="95.197" y2="30.979"/><line class="cls-1" x1="61.748" y1="324.747" x2="61.748" y2="30.979"/><line class="cls-1" x1="28.299" y1="324.747" x2="28.299" y2="30.979"/><rect class="cls-2" x="28.299" y="30.979" width="669.278" height="293.768"/><line class="cls-3" x1="29.748" y1="322.969" x2="399.622" y2="33.617"/><path class="cls-4" d="M29.748,322.969l7.408-5.911,7.408-5.724,7.409-5.547,7.408-5.382,7.408-5.226L74.2,290.1l7.408-4.939,7.408-4.808,7.408-4.683,7.408-4.564,7.408-4.452,7.408-4.344,7.408-4.242,7.408-4.144,7.408-4.052,7.408-3.962,7.408-3.877,7.408-3.8,7.408-3.717,7.408-3.642,7.408-3.57,7.409-3.5,7.408-3.434,7.408-3.37,7.408-3.308,7.408-3.248,7.408-3.191,7.408-3.135,7.408-3.082,7.408-3.03,7.408-2.98,7.408-2.931,7.408-2.885,7.408-2.839,7.408-2.795,7.408-2.752,7.408-2.711,7.408-2.671,7.408-2.632,7.408-2.594,7.409-2.557,7.408-2.522,7.408-2.486L355.7,160.2l7.408-2.42,7.408-2.388,7.408-2.357,7.408-2.326,7.408-2.3,7.408-2.268,7.408-2.24,7.408-2.212,7.408-2.185,7.408-2.159,7.408-2.133,7.408-2.109,7.408-2.084,7.408-2.061,7.408-2.037,7.409-2.014,7.408-1.992,7.408-1.97L496.456,119l7.408-1.928,7.408-1.908,7.408-1.888,7.408-1.868,7.408-1.849,7.408-1.83,7.408-1.812,7.408-1.794,7.408-1.776,7.408-1.759,7.408-1.742,7.408-1.725,7.408-1.709,7.408-1.693,7.408-1.677,7.409-1.661,7.408-1.647L629.8,87.1l7.408-1.617,7.408-1.6,7.408-1.588,7.408-1.574,7.408-1.561,7.408-1.548,7.408-1.534,7.408-1.521,7.408-1.509"/><path class="cls-5" d="M187.289,75.064V63.81h2.2v9.327h5.077v1.927Z"/><path class="cls-5" d="M197.315,65.251a1.279,1.279,0,1,1,0-2.557,1.279,1.279,0,1,1,0,2.557Zm-1.061,9.813V66.817l2.124-.306v8.553Z"/><path class="cls-5" d="M206.047,75.064V70c0-1.224-.487-1.639-1.441-1.639a2.784,2.784,0,0,0-1.837.775v5.924h-2.124V66.8l2.124-.288v1.314a3.807,3.807,0,0,1,2.738-1.332,2.546,2.546,0,0,1,2.664,2.863v5.708Z"/><path class="cls-5" d="M211.984,71.373a2.316,2.316,0,0,0,2.486,2.268,5.109,5.109,0,0,0,2.592-.756l.27,1.765a6.5,6.5,0,0,1-3.007.684,4.117,4.117,0,0,1-4.429-4.34,4.2,4.2,0,0,1,4.285-4.5A3.127,3.127,0,0,1,217.6,69.86a5.547,5.547,0,0,1-.179,1.386l-5.439.073Zm3.619-1.315v-.144c0-1.116-.485-1.819-1.584-1.819a2.047,2.047,0,0,0-1.98,1.981Z"/><path class="cls-5" d="M223.721,74.11a2.927,2.927,0,0,1-2.339,1.224,2.41,2.41,0,0,1-2.576-2.341c0-1.53,1.117-2.827,4.915-2.953v-.2c0-1.116-.467-1.584-1.656-1.584a6.029,6.029,0,0,0-2.755.882l-.431-1.674a6.884,6.884,0,0,1,3.474-.973c2.557,0,3.547,1.135,3.493,3.421v2.971c0,.63.109.72.739.756l-.162,1.6c-1.584.18-2.323-.306-2.629-1.134Zm0-2.954c-2.07.252-2.826.666-2.826,1.549a1.109,1.109,0,0,0,1.243,1.08,2.121,2.121,0,0,0,1.583-.72Zm-.99-5.509h-1.4l1.837-3.3h2.394Z"/><path class="cls-5" d="M230.146,75.064h-2.124V66.817l2.124-.306v1.351a2.4,2.4,0,0,1,2.161-1.369,2.869,2.869,0,0,1,1.477.378l-.469,1.909a2.459,2.459,0,0,0-1.188-.324,2.356,2.356,0,0,0-1.981,1.476Z"/><path class="cls-5" d="M240.462,75.064V70c0-1.224-.487-1.639-1.441-1.639a2.784,2.784,0,0,0-1.837.775v5.924H235.06V66.8l2.124-.288v1.314a3.807,3.807,0,0,1,2.738-1.332,2.545,2.545,0,0,1,2.664,2.863v5.708Z"/><path class="cls-5" d="M244.852,75.064V66.853l2.124-.234v8.445Zm1.567-9.417h-1.405l1.836-3.3h2.4Z"/><path class="cls-5" d="M252.519,75.064V73.605l4.339-5.041h-4.177v-1.8h6.9v1.423l-4.357,5.059h4.357v1.819Z"/><path class="cls-5" d="M265.463,74.11a2.931,2.931,0,0,1-2.34,1.224,2.409,2.409,0,0,1-2.575-2.341c0-1.53,1.116-2.827,4.915-2.953v-.2c0-1.116-.468-1.584-1.657-1.584a6.021,6.021,0,0,0-2.754.882l-.432-1.674a6.888,6.888,0,0,1,3.475-.973c2.556,0,3.546,1.135,3.493,3.421v2.971c0,.63.108.72.738.756l-.162,1.6c-1.584.18-2.322-.306-2.629-1.134Zm0-2.954c-2.071.252-2.826.666-2.826,1.549a1.108,1.108,0,0,0,1.242,1.08,2.124,2.124,0,0,0,1.584-.72Zm-.991-5.509h-1.4l1.837-3.3h2.4Z"/><path class="cls-5" d="M273.869,75.082H271.6l-3.169-8.319H270.7l2.088,6.068,2-6.068h2.287Z"/><path class="cls-5" d="M279.249,65.251a1.279,1.279,0,1,1,0-2.557,1.279,1.279,0,1,1,0,2.557Zm-1.062,9.813V66.817l2.124-.306v8.553Z"/><path class="cls-5" d="M285.154,75.352a7.207,7.207,0,0,1-3.223-.775l.468-1.656a6.045,6.045,0,0,0,2.809.774c.829,0,1.369-.342,1.369-.918,0-.648-.7-.882-1.675-1.116-1.566-.361-2.808-1.008-2.808-2.575s1.314-2.593,3.312-2.593a7.325,7.325,0,0,1,3.025.666l-.468,1.657a6.406,6.406,0,0,0-2.611-.684c-.774,0-1.242.288-1.242.828,0,.63.7.846,1.674,1.08,1.585.378,2.827.99,2.827,2.611C288.611,74.2,287.279,75.352,285.154,75.352Z"/><path class="cls-5" d="M290.338,75.064V63.036l2.124-.288V75.064Z"/><path class="cls-5" d="M298.438,75.334a4.058,4.058,0,0,1-4.195-4.411,4.17,4.17,0,0,1,4.3-4.448,4.073,4.073,0,0,1,4.195,4.429A4.174,4.174,0,0,1,298.438,75.334Zm.036-7.148c-1.386,0-2.142,1.116-2.142,2.718,0,1.585.792,2.7,2.178,2.7,1.369,0,2.125-1.08,2.125-2.682S299.843,68.186,298.474,68.186Z"/><path class="cls-5" d="M307.1,75.352a7.2,7.2,0,0,1-3.223-.775l.468-1.656a6.041,6.041,0,0,0,2.808.774c.829,0,1.369-.342,1.369-.918,0-.648-.7-.882-1.674-1.116-1.567-.361-2.809-1.008-2.809-2.575s1.314-2.593,3.312-2.593a7.33,7.33,0,0,1,3.026.666l-.469,1.657a6.4,6.4,0,0,0-2.61-.684c-.775,0-1.242.288-1.242.828,0,.63.7.846,1.673,1.08,1.585.378,2.828.99,2.828,2.611C310.553,74.2,309.221,75.352,307.1,75.352Z"/><path class="cls-5" d="M315.214,75.334c-1.855,0-2.827-.81-2.755-2.809l.126-3.907-1.3-.144.054-1.351,1.295-.414.037-1.836h2.052l-.036,1.944h2.341l-.054,1.747h-2.413l-.108,3.835a.978.978,0,0,0,1.1,1.134,4.137,4.137,0,0,0,1.3-.252l.288,1.728A5.6,5.6,0,0,1,315.214,75.334Z"/><path class="cls-6" d="M309.6,343.859l4.626-4.8h1.313l-4.947,4.962,5.027,5.042h-1.329l-4.69-4.786h-.016v4.786h-1.025v-10h1.025v4.8Z"/><path class="cls-6" d="M319.685,349.269a3.53,3.53,0,0,1-3.538-3.857,3.619,3.619,0,0,1,3.618-3.89c2.049,0,3.522,1.5,3.522,3.858A3.615,3.615,0,0,1,319.685,349.269Zm.033-6.85c-1.553,0-2.578,1.232-2.578,2.961,0,1.793,1.04,2.993,2.593,2.993s2.577-1.233,2.577-2.961C322.31,343.619,321.269,342.419,319.718,342.419Z"/><path class="cls-6" d="M329.957,349.061v-4.738c0-1.28-.512-1.857-1.616-1.857a3.3,3.3,0,0,0-2.226,1.041v5.554h-.992V341.73l.992-.208v1.2a3.8,3.8,0,0,1,2.5-1.2,2.215,2.215,0,0,1,2.337,2.513v5.026Z"/><path class="cls-6" d="M336.308,349.269c-2.209,0-3.586-1.584-3.586-3.857a3.615,3.615,0,0,1,3.6-3.89,4.175,4.175,0,0,1,2.289.624l-.256.9a3.7,3.7,0,0,0-2.033-.593c-1.584,0-2.577,1.185-2.577,2.93,0,1.793,1.041,2.961,2.594,2.961a3.8,3.8,0,0,0,2.032-.608l.208.912A4.383,4.383,0,0,1,336.308,349.269Z"/><path class="cls-6" d="M340.867,345.508a2.6,2.6,0,0,0,2.562,2.833,3.957,3.957,0,0,0,2.127-.608l.193.912a4.509,4.509,0,0,1-2.353.624,3.514,3.514,0,0,1-3.538-3.809c0-2.305,1.473-3.938,3.458-3.938a2.521,2.521,0,0,1,2.673,2.7,4.486,4.486,0,0,1-.16,1.169l-4.962.032Zm4.13-.88a2.158,2.158,0,0,0,.016-.321,1.684,1.684,0,0,0-1.761-1.888,2.37,2.37,0,0,0-2.321,2.224Z"/><path class="cls-6" d="M352.692,349.061v-4.738c0-1.28-.512-1.857-1.616-1.857a3.3,3.3,0,0,0-2.226,1.041v5.554h-.992V341.73l.992-.208v1.2a3.8,3.8,0,0,1,2.5-1.2,2.215,2.215,0,0,1,2.337,2.513v5.026Z"/><path class="cls-6" d="M357.955,349.3c-1.393,0-2.017-.768-1.969-2.305l.112-4.337-1.12-.065.048-.624,1.1-.256.048-1.664h.944l-.048,1.712h2.449l-.049.881h-2.432l-.113,4.386c-.031.928.305,1.376,1.074,1.376a3.659,3.659,0,0,0,1.408-.352l.176.864A4,4,0,0,1,357.955,349.3Z"/><path class="cls-6" d="M362.194,349.061H361.2V341.73l.992-.208v1.569a2.464,2.464,0,0,1,2.161-1.569,2.662,2.662,0,0,1,1.281.336l-.256.929a2.176,2.176,0,0,0-1.12-.321c-.769,0-1.49.577-2.066,1.889Z"/><path class="cls-6" d="M370.66,348.181a2.851,2.851,0,0,1-2.145,1.088,2.125,2.125,0,0,1-2.321-2.032c0-1.329,1.04-2.417,4.449-2.609V344.2c0-1.152-.511-1.745-1.728-1.745a4.487,4.487,0,0,0-2.4.881l-.224-.928a5.181,5.181,0,0,1,2.722-.881c1.7,0,2.64.769,2.625,2.625v3.522c0,.528.1.752.736.736l-.065.816c-.96.064-1.488-.32-1.6-1.04Zm-.017-2.881c-2.512.288-3.409.848-3.409,1.824a1.339,1.339,0,0,0,1.5,1.281,2.6,2.6,0,0,0,1.9-.96Z"/><path class="cls-6" d="M376.948,349.269c-2.209,0-3.586-1.584-3.586-3.857a3.615,3.615,0,0,1,3.6-3.89,4.178,4.178,0,0,1,2.289.624l-.256.9a3.708,3.708,0,0,0-2.033-.593c-1.584,0-2.577,1.185-2.577,2.93,0,1.793,1.041,2.961,2.593,2.961a3.8,3.8,0,0,0,2.033-.608l.208.912A4.386,4.386,0,0,1,376.948,349.269Z"/><path class="cls-6" d="M381.507,345.508a2.6,2.6,0,0,0,2.561,2.833,3.958,3.958,0,0,0,2.128-.608l.192.912a4.506,4.506,0,0,1-2.352.624,3.514,3.514,0,0,1-3.538-3.809c0-2.305,1.473-3.938,3.458-3.938a2.521,2.521,0,0,1,2.673,2.7,4.529,4.529,0,0,1-.16,1.169l-4.962.032Zm4.13-.88a2.3,2.3,0,0,0,.015-.321,1.684,1.684,0,0,0-1.761-1.888,2.369,2.369,0,0,0-2.32,2.224Z"/><path class="cls-6" d="M399.349,340.578a5.073,5.073,0,0,0-2.785-.8c-2.176,0-3.777,1.552-3.777,4.273,0,2.641,1.52,4.29,3.809,4.29a4.829,4.829,0,0,0,2.8-.9l.193,1.008a5.707,5.707,0,0,1-3.01.816c-2.9,0-4.834-2.016-4.834-5.186,0-3.185,2.033-5.234,4.834-5.234a6.191,6.191,0,0,1,3.09.816Z"/><path class="cls-6" d="M405.876,349.269a5.218,5.218,0,1,1,4.93-5.25A4.877,4.877,0,0,1,405.876,349.269Zm-.016-9.508c-2.241,0-3.857,1.729-3.857,4.258,0,2.577,1.648,4.338,3.921,4.338,2.225,0,3.841-1.745,3.841-4.274C409.765,341.506,408.133,339.761,405.86,339.761Z"/><path class="cls-6" d="M412.036,351.055v-.745c1.471-1.092,2.8-1.911,2.8-2.729,0-.484-.369-.83-1-.83a2.5,2.5,0,0,0-1.492.6l-.3-.734a2.984,2.984,0,0,1,1.889-.672,1.6,1.6,0,0,1,1.817,1.532c0,1.145-1.039,1.775-2.4,2.762h2.635v.818Z"/><path class="cls-6" d="M11.085,17.235a4.878,4.878,0,0,1-4.914-5.186,4.93,4.93,0,1,1,9.844-.064A4.917,4.917,0,0,1,11.085,17.235Zm-.016-9.508c-2.241,0-3.857,1.729-3.857,4.258,0,2.577,1.648,4.338,3.921,4.338,2.225,0,3.841-1.745,3.841-4.274C14.974,9.472,13.342,7.727,11.069,7.727Z"/><path class="cls-6" d="M19.931,17.267c-1.392,0-2.016-.768-1.968-2.3l.112-4.337-1.12-.065L17,9.936l1.1-.256.048-1.665H19.1l-.047,1.713H21.5l-.049.881H19.019l-.112,4.385c-.031.929.3,1.377,1.073,1.377a3.655,3.655,0,0,0,1.408-.352l.176.864A3.989,3.989,0,0,1,19.931,17.267Z"/><path class="cls-6" d="M23.628,13.474a2.6,2.6,0,0,0,2.561,2.833,3.95,3.95,0,0,0,2.128-.609l.193.913a4.509,4.509,0,0,1-2.353.624,3.515,3.515,0,0,1-3.538-3.81c0-2.3,1.473-3.937,3.458-3.937a2.521,2.521,0,0,1,2.673,2.705,4.535,4.535,0,0,1-.16,1.169l-4.962.032Zm4.13-.881a2.286,2.286,0,0,0,.015-.32,1.684,1.684,0,0,0-1.76-1.889,2.37,2.37,0,0,0-2.321,2.225Z"/><path class="cls-6" d="M33.74,9.536c1.985,0,3.281,1.569,3.281,3.794a3.63,3.63,0,0,1-3.617,3.9,4.734,4.734,0,0,1-1.793-.384v3.906h-.992V9.664l.992-.208v.976A3.15,3.15,0,0,1,33.74,9.536Zm-2.129,6.226a3.077,3.077,0,0,0,1.841.577c1.569,0,2.545-1.265,2.545-2.994,0-1.7-.928-2.9-2.417-2.9a2.957,2.957,0,0,0-1.969.817Z"/><path class="cls-6" d="M38.859,17.027V6.238l.992-.208v11Z"/><path class="cls-6" d="M42.683,13.474a2.6,2.6,0,0,0,2.562,2.833,3.953,3.953,0,0,0,2.128-.609l.192.913a4.506,4.506,0,0,1-2.352.624,3.514,3.514,0,0,1-3.538-3.81c0-2.3,1.472-3.937,3.458-3.937a2.521,2.521,0,0,1,2.672,2.705,4.492,4.492,0,0,1-.16,1.169l-4.962.032Zm4.13-.881a2.144,2.144,0,0,0,.016-.32,1.685,1.685,0,0,0-1.761-1.889,2.37,2.37,0,0,0-2.32,2.225Z"/><path class="cls-6" d="M54.509,17.027V12.289c0-1.281-.512-1.857-1.617-1.857a3.294,3.294,0,0,0-2.225,1.041v5.554h-.992V9.7l.992-.208v1.2a3.8,3.8,0,0,1,2.5-1.2A2.215,2.215,0,0,1,55.5,12v5.026Z"/><path class="cls-6" d="M57.8,17.027V9.776l.993-.208v7.459Zm.768-8.291h-.736L59.723,5.87H61Z"/><path class="cls-7" d="M475.44,159.523V148.27h2.2V157.6h5.077v1.927Z"/><path class="cls-7" d="M487.934,159.793a4.058,4.058,0,0,1-4.2-4.411,4.169,4.169,0,0,1,4.3-4.447,4.072,4.072,0,0,1,4.2,4.429A4.173,4.173,0,0,1,487.934,159.793Zm.037-7.148c-1.387,0-2.144,1.116-2.144,2.719,0,1.584.793,2.7,2.179,2.7,1.369,0,2.125-1.08,2.125-2.683S489.339,152.645,487.971,152.645Z"/><path class="cls-7" d="M493.548,158.425a2,2,0,0,1,1.53-1.747,2.794,2.794,0,0,1-1.512-2.556c0-1.711,1.35-3.169,3.655-3.169a5.919,5.919,0,0,1,2.34.522l2.234-.2.09,1.854-1.585-.27a2.349,2.349,0,0,1,.378,1.3,3.178,3.178,0,0,1-3.475,3.025,4.354,4.354,0,0,1-1.135-.144c-.288.108-.647.379-.647.72,0,.451.378.649,1.71.649H498c2.377,0,3.727.666,3.727,2.287,0,1.962-2.214,3.313-4.843,3.313-2.2,0-3.944-.811-3.944-2.305a1.94,1.94,0,0,1,1.873-1.837A1.646,1.646,0,0,1,493.548,158.425Zm1.314,2.845c0,.774.954,1.314,2.359,1.314,1.459,0,2.575-.54,2.575-1.405,0-.774-.756-.954-2.305-.954-.522,0-1.242-.036-1.584-.071C495.312,160.369,494.862,160.765,494.862,161.27Zm2.377-5.474c.954,0,1.494-.684,1.494-1.728a1.492,1.492,0,0,0-1.584-1.675,1.55,1.55,0,0,0-1.531,1.746A1.523,1.523,0,0,0,497.239,155.8Z"/><path class="cls-7" d="M507.409,158.569a2.93,2.93,0,0,1-2.34,1.224,2.408,2.408,0,0,1-2.575-2.341c0-1.53,1.116-2.826,4.915-2.952v-.2c0-1.116-.468-1.584-1.656-1.584A6.025,6.025,0,0,0,503,153.6l-.432-1.674a6.9,6.9,0,0,1,3.475-.972c2.556,0,3.547,1.134,3.493,3.421v2.97c0,.631.108.721.738.757l-.162,1.6c-1.584.18-2.322-.306-2.629-1.134Zm0-2.953c-2.07.252-2.826.666-2.826,1.548a1.109,1.109,0,0,0,1.242,1.081,2.124,2.124,0,0,0,1.584-.72Z"/><path class="cls-7" d="M513.835,159.523h-2.124v-8.246l2.124-.307v1.351A2.394,2.394,0,0,1,516,150.953a2.866,2.866,0,0,1,1.476.378L517,153.239a2.462,2.462,0,0,0-1.189-.324,2.355,2.355,0,0,0-1.98,1.477Z"/><path class="cls-7" d="M519.81,149.71a1.278,1.278,0,1,1,0-2.556,1.279,1.279,0,1,1,0,2.556Zm-1.061,9.813v-8.246l2.124-.307v8.553Z"/><path class="cls-7" d="M526.075,159.793c-1.854,0-2.827-.81-2.755-2.808l.126-3.908-1.3-.144.055-1.35,1.3-.414.036-1.837h2.053l-.036,1.945h2.34l-.053,1.746h-2.413l-.108,3.835a.978.978,0,0,0,1.1,1.135,4.149,4.149,0,0,0,1.3-.253l.288,1.729A5.629,5.629,0,0,1,526.075,159.793Z"/><path class="cls-7" d="M540.009,159.523v-5.041c0-1.224-.487-1.657-1.369-1.657a2.644,2.644,0,0,0-1.728.738v5.96h-2.125v-5.041c0-1.224-.468-1.657-1.351-1.657a2.456,2.456,0,0,0-1.728.684v6.014h-2.124v-8.265l2.124-.288v1.171a3.617,3.617,0,0,1,2.646-1.188,2.364,2.364,0,0,1,2.27,1.422,3.967,3.967,0,0,1,2.952-1.422c1.566,0,2.558,1.08,2.558,2.881v5.689Z"/><path class="cls-7" d="M545.388,149.71a1.278,1.278,0,1,1,0-2.556,1.278,1.278,0,1,1,0,2.556Zm-1.062,9.813v-8.246l2.124-.307v8.553Z"/><path class="cls-7" d="M552.534,159.793c-2.7,0-4.3-1.674-4.3-4.393a4.159,4.159,0,0,1,4.375-4.447,5.575,5.575,0,0,1,2.864.7l-.451,1.71a4.256,4.256,0,0,0-2.251-.666c-1.53,0-2.358,1.044-2.358,2.647,0,1.692.954,2.683,2.358,2.683a4.261,4.261,0,0,0,2.3-.648l.342,1.728A5.778,5.778,0,0,1,552.534,159.793Z"/><path class="cls-7" d="M559.3,155.526v4h-2.124V147.5l2.124-.288v7.706h.036l2.97-3.691h2.539l-3.439,3.943,3.457,4.357h-2.538l-2.989-4Z"/><path class="cls-7" d="M570.479,158.569a2.928,2.928,0,0,1-2.34,1.224,2.408,2.408,0,0,1-2.575-2.341c0-1.53,1.116-2.826,4.915-2.952v-.2c0-1.116-.467-1.584-1.656-1.584a6.025,6.025,0,0,0-2.755.882l-.431-1.674a6.894,6.894,0,0,1,3.474-.972c2.557,0,3.547,1.134,3.493,3.421v2.97c0,.631.109.721.739.757l-.163,1.6c-1.584.18-2.322-.306-2.628-1.134Zm0-2.953c-2.07.252-2.826.666-2.826,1.548a1.109,1.109,0,0,0,1.242,1.081,2.124,2.124,0,0,0,1.584-.72Zm-.99-5.51h-1.4l1.837-3.295h2.394Z"/><path class="cls-7" d="M578.11,159.523v-1.458l4.339-5.042h-4.177v-1.8h6.9v1.422l-4.358,5.06h4.358v1.818Z"/><path class="cls-7" d="M591.053,158.569a2.93,2.93,0,0,1-2.34,1.224,2.408,2.408,0,0,1-2.575-2.341c0-1.53,1.116-2.826,4.915-2.952v-.2c0-1.116-.468-1.584-1.657-1.584a6.029,6.029,0,0,0-2.755.882l-.431-1.674a6.894,6.894,0,0,1,3.474-.972c2.557,0,3.547,1.134,3.494,3.421v2.97c0,.631.108.721.738.757l-.162,1.6c-1.584.18-2.323-.306-2.629-1.134Zm0-2.953c-2.071.252-2.827.666-2.827,1.548a1.109,1.109,0,0,0,1.243,1.081,2.124,2.124,0,0,0,1.584-.72Zm-.991-5.51h-1.4l1.837-3.295h2.394Z"/><path class="cls-7" d="M599.46,159.541h-2.269l-3.169-8.318h2.269l2.088,6.068,2-6.068h2.287Z"/><path class="cls-7" d="M604.84,149.71a1.278,1.278,0,1,1,0-2.556,1.278,1.278,0,1,1,0,2.556Zm-1.062,9.813v-8.246l2.124-.307v8.553Z"/><path class="cls-7" d="M610.744,159.811a7.216,7.216,0,0,1-3.223-.774l.468-1.656a6.045,6.045,0,0,0,2.809.774c.829,0,1.369-.342,1.369-.918,0-.649-.7-.883-1.675-1.117-1.566-.36-2.809-1.008-2.809-2.574S609,150.953,611,150.953a7.325,7.325,0,0,1,3.025.666l-.468,1.656a6.41,6.41,0,0,0-2.611-.684c-.774,0-1.242.288-1.242.828,0,.631.7.846,1.674,1.081,1.585.378,2.827.99,2.827,2.611C614.2,158.659,612.869,159.811,610.744,159.811Z"/><path class="cls-7" d="M615.928,159.523V147.5l2.124-.288v12.315Z"/><path class="cls-7" d="M624.029,159.793a4.057,4.057,0,0,1-4.2-4.411,4.169,4.169,0,0,1,4.3-4.447,4.072,4.072,0,0,1,4.2,4.429A4.173,4.173,0,0,1,624.029,159.793Zm.036-7.148c-1.386,0-2.142,1.116-2.142,2.719,0,1.584.792,2.7,2.177,2.7s2.125-1.08,2.125-2.683S625.433,152.645,624.065,152.645Z"/><path class="cls-7" d="M632.686,159.811a7.212,7.212,0,0,1-3.222-.774l.467-1.656a6.048,6.048,0,0,0,2.809.774c.829,0,1.369-.342,1.369-.918,0-.649-.7-.883-1.675-1.117-1.566-.36-2.808-1.008-2.808-2.574s1.314-2.593,3.312-2.593a7.33,7.33,0,0,1,3.026.666l-.469,1.656a6.406,6.406,0,0,0-2.61-.684c-.775,0-1.243.288-1.243.828,0,.631.7.846,1.674,1.081,1.585.378,2.827.99,2.827,2.611C636.143,158.659,634.811,159.811,632.686,159.811Z"/><path class="cls-7" d="M640.8,159.793c-1.855,0-2.828-.81-2.755-2.808l.126-3.908-1.3-.144.053-1.35,1.3-.414.036-1.837h2.053l-.036,1.945h2.341l-.054,1.746h-2.413l-.108,3.835a.978.978,0,0,0,1.1,1.135,4.138,4.138,0,0,0,1.3-.253l.288,1.729A5.627,5.627,0,0,1,640.8,159.793Z"/><line class="cls-8" x1="663.827" y1="329.489" x2="663.827" y2="324.747"/><line class="cls-8" x1="630.378" y1="329.489" x2="630.378" y2="324.747"/><line class="cls-8" x1="596.929" y1="329.489" x2="596.929" y2="324.747"/><line class="cls-8" x1="563.481" y1="329.489" x2="563.481" y2="324.747"/><line class="cls-8" x1="530.032" y1="329.489" x2="530.032" y2="324.747"/><line class="cls-8" x1="496.583" y1="329.489" x2="496.583" y2="324.747"/><line class="cls-8" x1="463.134" y1="329.489" x2="463.134" y2="324.747"/><line class="cls-8" x1="429.685" y1="329.489" x2="429.685" y2="324.747"/><line class="cls-8" x1="396.236" y1="329.489" x2="396.236" y2="324.747"/><line class="cls-8" x1="362.788" y1="329.489" x2="362.788" y2="324.747"/><line class="cls-8" x1="329.339" y1="329.489" x2="329.339" y2="324.747"/><line class="cls-8" x1="295.89" y1="329.489" x2="295.89" y2="324.747"/><line class="cls-8" x1="262.441" y1="329.489" x2="262.441" y2="324.747"/><line class="cls-8" x1="228.992" y1="329.489" x2="228.992" y2="324.747"/><line class="cls-8" x1="195.544" y1="329.489" x2="195.544" y2="324.747"/><line class="cls-8" x1="162.095" y1="329.489" x2="162.095" y2="324.747"/><line class="cls-8" x1="128.646" y1="329.489" x2="128.646" y2="324.747"/><line class="cls-8" x1="95.197" y1="329.489" x2="95.197" y2="324.747"/><line class="cls-8" x1="61.748" y1="329.489" x2="61.748" y2="324.747"/><line class="cls-8" x1="28.299" y1="329.489" x2="28.299" y2="324.747"/><line class="cls-8" x1="23.526" y1="63.959" x2="28.268" y2="63.959"/><line class="cls-8" x1="23.526" y1="96.558" x2="28.268" y2="96.558"/><line class="cls-8" x1="23.526" y1="129.156" x2="28.268" y2="129.156"/><line class="cls-8" x1="23.526" y1="161.754" x2="28.268" y2="161.754"/><line class="cls-8" x1="23.526" y1="194.353" x2="28.268" y2="194.353"/><line class="cls-8" x1="23.526" y1="226.951" x2="28.268" y2="226.951"/><line class="cls-8" x1="23.526" y1="259.55" x2="28.268" y2="259.55"/><line class="cls-8" x1="23.526" y1="292.148" x2="28.268" y2="292.148"/><line class="cls-8" x1="23.526" y1="324.747" x2="28.268" y2="324.747"/><line class="cls-8" x1="28.299" y1="324.747" x2="696.493" y2="324.747"/><polygon class="cls-6" points="693.18 328.836 692.497 328.104 696.109 324.748 692.497 321.39 693.18 320.658 697.577 324.748 693.18 328.836"/><line class="cls-8" x1="28.299" y1="324.747" x2="28.299" y2="32.063"/><polygon class="cls-6" points="32.389 35.377 31.657 36.059 28.3 32.447 24.943 36.059 24.211 35.377 28.3 30.979 32.389 35.377"/></g></svg>