<?xml version="1.0" encoding="UTF-8"?>
<svg id="stroke" xmlns="http://www.w3.org/2000/svg" width="150" height="150" viewBox="0 0 150 150">
  <g>
    <path d="m88.26,21.89c17.39,7.14,31.38,22,36.66,41.54,5.15,19.03.93,38.39-9.83,53.18" fill="none" stroke="#333" stroke-miterlimit="10" stroke-width="3"/>
    <polygon points="111.47 111.39 109.56 123.21 120.75 118.96 111.47 111.39" fill="#333"/>
  </g>
  <g>
    <path d="m2.28,85.52C-.5,55.78,18.41,27.47,48.23,19.4c8.14-2.2,16.34-2.69,24.22-1.69" fill="none" stroke="#333" stroke-miterlimit="10" stroke-width="3"/>
    <polygon points="69.61 23.4 80.89 19.39 71.78 11.63 69.61 23.4" fill="#333"/>
  </g>
  <g>
    <path d="m102,129.88c-6.15,4.59-13.25,8.13-21.1,10.25-30.52,8.26-61.88-7.57-73.89-35.89" fill="none" stroke="#333" stroke-miterlimit="10" stroke-width="3"/>
    <polygon points="13.32 103.84 4.2 96.1 2.05 107.87 13.32 103.84" fill="#333"/>
  </g>
  <g>
    <polygon points="42.82 109.82 64.85 106.68 107.33 64.19 90.02 46.88 67.99 50.03 25.51 92.51 42.82 109.82" fill="#81ebb3" stroke="#333" stroke-miterlimit="10" stroke-width="3"/>
    <polyline points="89.04 47.36 47.84 89.06 64.6 105.82 65.15 106.37" fill="none" stroke="#333" stroke-miterlimit="10" stroke-width="3"/>
    <line x1="27.08" y1="94.09" x2="47.84" y2="89.06" fill="none" stroke="#333" stroke-miterlimit="10" stroke-width="3"/>
  </g>
  <line x1="59.58" y1="90.41" x2="91.3" y2="57.55" fill="none" stroke="#333" stroke-miterlimit="10" stroke-width="3"/>
  <line x1="64.68" y1="95.51" x2="96.4" y2="62.65" fill="none" stroke="#333" stroke-miterlimit="10" stroke-width="3"/>
</svg>