<?xml version="1.0" encoding="UTF-8"?>
<svg id="stroke" xmlns="http://www.w3.org/2000/svg" width="610" height="150" viewBox="0 0 610 150">
  <g>
    <path d="m45.58,54.98v-.18c0-6.22,5.04-11.26,11.26-11.26h0c6.22,0,11.26,5.04,11.26,11.26v.18" fill="#e6e6e6" stroke="#333" stroke-miterlimit="10" stroke-width="3"/>
    <circle cx="56.84" cy="97.05" r="42.7" fill="#c4c4c4" stroke="#333" stroke-miterlimit="10" stroke-width="3"/>
    <circle cx="56.84" cy="96.93" r="42.7" fill="none" stroke="#333" stroke-miterlimit="10" stroke-width="3"/>
    <g id="white-lines">
      <path d="m68.56,64.85c9.19,3.35,16.86,10.66,20.34,20.62s2.03,20.34-3.02,28.67" fill="none" stroke="#fff" stroke-miterlimit="10" stroke-width="3"/>
      <path d="m45.95,128.53c-9.42-3.27-17.31-10.65-20.85-20.8s-2.02-20.45,3.09-28.79" fill="none" stroke="#fff" stroke-miterlimit="10" stroke-width="3"/>
    </g>
    <g>
      <path d="m62.69,108.13h-5.13v-10.67h-10v10.67h-5.13v-24.9h5.13v10.09h10v-10.09h5.13v24.9Z" fill="#333"/>
      <path d="m76.8,108.13h-10.6v-2.36l4.91-4.39c.64-.56,1.1-1.08,1.38-1.56.28-.48.42-.85.42-1.12,0-.96-.54-1.44-1.62-1.44-.57,0-1.02.18-1.36.54-.34.36-.5.81-.5,1.35h-3.52c0-1.32.49-2.43,1.46-3.33.97-.9,2.23-1.35,3.77-1.35,1.69,0,2.99.37,3.91,1.1.92.73,1.38,1.78,1.38,3.14,0,.8-.21,1.53-.62,2.19s-1.23,1.49-2.46,2.48l-2.53,1.97h6v2.8Z" fill="#333"/>
    </g>
    <line x1="105" y1="146.65" x2="4" y2="146.65" fill="none" stroke="#333" stroke-miterlimit="10" stroke-width="3"/>
    <line x1="16.98" y1="69.13" x2="98" y2="69.13" fill="none" stroke="#333" stroke-miterlimit="10" stroke-width="3"/>
    <line x1="16.98" y1="122.13" x2="98" y2="122.13" fill="none" stroke="#333" stroke-miterlimit="10" stroke-width="3"/>
    <polyline points="10.61 146.75 23.69 121.75 40.25 146.52 57.67 121.75 72.08 145.85 90.61 121.75 100 146.35" fill="none" stroke="#333" stroke-linejoin="bevel" stroke-width="3"/>
  </g>
  <path d="m56.91,44.06v-6.77c0-5.68,4.61-10.29,10.29-10.29h53.64c6.09,0,11.04,4.94,11.04,11.04v74.52c0,7.49,6.07,13.56,13.56,13.56h111.59c7.49,0,13.56-6.07,13.56-13.56v-39.53c0-7.49,6.07-13.56,13.56-13.56h17.81c7.49,0,13.56,6.07,13.56,13.56v4.73" fill="none" stroke="#333" stroke-miterlimit="10" stroke-width="3"/>
  <path d="m302.5,77.75h13c8.28,0,15,6.72,15,15v54h-43v-54c0-8.28,6.72-15,15-15Z" fill="#fff" stroke="#333" stroke-miterlimit="10" stroke-width="3"/>
  <g>
    <rect x="315.97" y="100.48" width="67.65" height="46" fill="#fff" stroke="#333" stroke-miterlimit="10" stroke-width="3"/>
    <line x1="325.41" y1="109.92" x2="325.41" y2="146.48" fill="#fff" stroke="#333" stroke-miterlimit="10" stroke-width="3"/>
  </g>
  <path d="m356.51,48.48v-.14c0-5.02,4.07-9.08,9.08-9.08h0c5.02,0,9.08,4.07,9.08,9.08v.14" fill="none" stroke="#333" stroke-miterlimit="10" stroke-width="3"/>
  <path d="m372.5,48.25h0c8.28,0,15,6.72,15,15v83h-30V63.25c0-8.28,6.72-15,15-15Z" fill="#fff" stroke="#333" stroke-miterlimit="10" stroke-width="3"/>
  <line x1="353.11" y1="73.75" x2="391.89" y2="73.75" fill="#fff" stroke="#333" stroke-miterlimit="10" stroke-width="3"/>
  <line x1="353.11" y1="79.75" x2="391.89" y2="79.75" fill="#fff" stroke="#333" stroke-miterlimit="10" stroke-width="3"/>
  <path d="m359.5,48.25h0c8.28,0,15,6.72,15,15v83h-30V63.25c0-8.28,6.72-15,15-15Z" fill="#fff" stroke="#333" stroke-miterlimit="10" stroke-width="3"/>
  <line x1="340.11" y1="73.75" x2="378.89" y2="73.75" fill="#fff" stroke="#333" stroke-miterlimit="10" stroke-width="3"/>
  <line x1="340.11" y1="79.75" x2="378.89" y2="79.75" fill="#fff" stroke="#333" stroke-miterlimit="10" stroke-width="3"/>
  <path d="m485.71,77.75h5.58c3.98,0,7.21,3.23,7.21,7.21v29.79h-20v-29.79c0-3.98,3.23-7.21,7.21-7.21Z" fill="none" stroke="#333" stroke-miterlimit="10" stroke-width="3"/>
  <rect x="336" y="105.75" width="64.46" height="40.5" rx="10.74" ry="10.74" fill="#ddd4ff" stroke="#333" stroke-miterlimit="10" stroke-width="3"/>
  <g>
    <path d="m362.16,129.06c-.14,1.91-.84,3.42-2.12,4.52-1.27,1.1-2.95,1.65-5.04,1.65-2.28,0-4.07-.77-5.38-2.3-1.31-1.53-1.96-3.64-1.96-6.32v-1.09c0-1.71.3-3.21.9-4.52.6-1.3,1.46-2.3,2.58-3,1.12-.7,2.42-1.04,3.9-1.04,2.05,0,3.7.55,4.96,1.65,1.25,1.1,1.98,2.64,2.17,4.63h-3.66c-.09-1.15-.41-1.98-.96-2.5-.55-.52-1.39-.78-2.51-.78-1.22,0-2.13.44-2.74,1.31-.61.88-.92,2.23-.93,4.07v1.34c0,1.92.29,3.33.87,4.21.58.89,1.5,1.33,2.75,1.33,1.13,0,1.98-.26,2.53-.78.56-.52.88-1.32.96-2.4h3.66Z" fill="#333"/>
    <path d="m379.03,134.98h-3.66v-7.62h-7.14v7.62h-3.66v-17.77h3.66v7.2h7.14v-7.2h3.66v17.77Z" fill="#333"/>
    <path d="m388.16,131h1.07v2.04h-1.07v1.94h-2.5v-1.94h-4.22l-.15-1.65,4.36-6.04h2.51v5.65Zm-4.48,0h1.98v-2.59l-.17.27-1.81,2.32Z" fill="#333"/>
  </g>
  <path d="m532.86,16.64c-.09.26-.15.5-.24.75-.88,3.08-1.66,6.03,0,9.16" fill="none" stroke="#333" stroke-miterlimit="10" stroke-width="3"/>
  <path d="m524.78,7.25c4.17,8-3.57,13.95,0,20.72" fill="none" stroke="#333" stroke-miterlimit="10" stroke-width="3"/>
  <path d="m517.46,8.62c2.64,7.29-3.57,11.67,0,18.44" fill="none" stroke="#333" stroke-miterlimit="10" stroke-width="3"/>
  <g>
    <path d="m240.05,61.2s0-.03,0-.05c0-8.4-6.81-15.21-15.21-15.21-.73,0-1.44.07-2.15.17-3.61-5.34-9.73-8.86-16.66-8.86-10.86,0-19.69,8.62-20.06,19.39-8.93,2.7-15.44,10.98-15.44,20.8,0,12,9.73,21.72,21.72,21.72,3.84,0,7.44-1,10.57-2.75,2.68,2.38,6.2,3.83,10.07,3.83s7.6-1.55,10.31-4.06c3,1.87,6.53,2.97,10.32,2.97,10.8,0,19.55-8.75,19.55-19.55,0-8.51-5.45-15.73-13.04-18.42Z" fill="#e6e6e6"/>
    <path d="m240.05,61.2s0-.03,0-.05c0-8.4-6.81-15.21-15.21-15.21-.73,0-1.44.07-2.15.17-3.61-5.34-9.73-8.86-16.66-8.86-10.86,0-19.69,8.62-20.06,19.39-8.93,2.7-15.44,10.98-15.44,20.8,0,12,9.73,21.72,21.72,21.72,3.84,0,7.44-1,10.57-2.75,2.68,2.38,6.2,3.83,10.07,3.83s7.6-1.55,10.31-4.06c3,1.87,6.53,2.97,10.32,2.97,10.8,0,19.55-8.75,19.55-19.55,0-8.51-5.45-15.73-13.04-18.42Z" fill="none" stroke="#333" stroke-miterlimit="10" stroke-width="3"/>
  </g>
  <g>
    <path d="m205.47,75.02c-.13,1.78-.79,3.19-1.97,4.21s-2.75,1.54-4.69,1.54c-2.12,0-3.79-.72-5.01-2.14s-1.83-3.39-1.83-5.89v-1.01c0-1.59.28-3,.84-4.21.56-1.21,1.36-2.14,2.41-2.79,1.04-.65,2.25-.97,3.63-.97,1.91,0,3.45.51,4.62,1.54s1.84,2.46,2.03,4.31h-3.41c-.08-1.07-.38-1.84-.89-2.33s-1.29-.72-2.34-.72c-1.14,0-1.99.41-2.55,1.22s-.86,2.08-.87,3.79v1.25c0,1.79.27,3.1.81,3.93.54.83,1.4,1.24,2.57,1.24,1.05,0,1.84-.24,2.36-.72.52-.48.82-1.23.89-2.24h3.41Z" fill="#333"/>
    <path d="m221.31,72.64c0,1.63-.29,3.06-.86,4.29-.58,1.23-1.4,2.18-2.47,2.84-1.07.67-2.3,1-3.69,1s-2.6-.33-3.67-.99c-1.08-.66-1.91-1.6-2.5-2.83s-.89-2.63-.9-4.23v-.82c0-1.63.29-3.07.88-4.31.59-1.24,1.42-2.19,2.49-2.86,1.07-.66,2.3-1,3.68-1s2.61.33,3.68,1c1.07.66,1.9,1.62,2.49,2.86.59,1.24.88,2.67.88,4.29v.74Zm-3.46-.75c0-1.74-.31-3.06-.93-3.96-.62-.9-1.51-1.35-2.66-1.35s-2.03.45-2.65,1.34c-.62.89-.94,2.2-.94,3.92v.81c0,1.69.31,3,.93,3.94.62.93,1.52,1.4,2.68,1.4s2.03-.45,2.64-1.35c.61-.9.93-2.21.93-3.93v-.81Z" fill="#333"/>
    <path d="m230.2,80.54h-7.05v-1.57l3.27-2.92c.42-.37.73-.72.92-1.04.19-.32.28-.57.28-.74,0-.64-.36-.96-1.08-.96-.38,0-.68.12-.9.36-.22.24-.34.54-.34.9h-2.34c0-.88.32-1.62.97-2.22.65-.6,1.48-.9,2.51-.9,1.12,0,1.99.24,2.6.73.61.49.92,1.19.92,2.09,0,.53-.14,1.02-.41,1.46-.27.44-.82.99-1.64,1.65l-1.68,1.31h3.99v1.87Z" fill="#333"/>
  </g>
  <polyline points="505.52 146.48 518.46 42.16 530.92 42.16 543.85 146.48" fill="none" stroke="#333" stroke-miterlimit="10" stroke-width="3"/>
  <polyline points="518.35 44.08 532.29 54.29 516.44 62.66 535.72 74.84 514.16 87.15 537.86 99.24 510.93 115.17 541.22 126.35 506.22 146.48" fill="none" stroke="#333" stroke-linejoin="bevel" stroke-width="3"/>
  <line x1="493.8" y1="146.48" x2="555.39" y2="146.48" fill="none" stroke="#333" stroke-linejoin="bevel" stroke-width="3"/>
  <line x1="514.16" y1="34.51" x2="535.02" y2="34.51" fill="#fff" stroke="#333" stroke-miterlimit="10" stroke-width="3"/>
  <path d="m454.75,104.58v-9.45c0-1.32-1.07-2.38-2.38-2.38h-18.5c-1.32,0-2.38,1.07-2.38,2.38v25.71c0,7.11-5.76,12.87-12.87,12.87h-17.74" fill="none" stroke="#333" stroke-miterlimit="10" stroke-width="3"/>
  <path d="m400.88,120.72h11.98c3.11,0,5.64-2.52,5.64-5.64v-24.67c0-5.89,4.77-10.66,10.66-10.66h27.94c5.89,0,10.66,4.77,10.66,10.66v14.17" fill="none" stroke="#333" stroke-miterlimit="10" stroke-width="3"/>
  <g>
    <rect x="444.97" y="100.48" width="67.65" height="46" fill="#fff" stroke="#333" stroke-miterlimit="10" stroke-width="3"/>
    <line x1="454.41" y1="109.92" x2="454.41" y2="146.48" fill="#fff" stroke="#333" stroke-miterlimit="10" stroke-width="3"/>
    <line x1="463.96" y1="109.92" x2="463.96" y2="146.48" fill="#fff" stroke="#333" stroke-miterlimit="10" stroke-width="3"/>
    <line x1="473.5" y1="109.92" x2="473.5" y2="146.48" fill="#fff" stroke="#333" stroke-miterlimit="10" stroke-width="3"/>
    <line x1="483.05" y1="109.92" x2="483.05" y2="146.48" fill="#fff" stroke="#333" stroke-miterlimit="10" stroke-width="3"/>
    <line x1="492.6" y1="109.92" x2="492.6" y2="146.48" fill="#fff" stroke="#333" stroke-miterlimit="10" stroke-width="3"/>
    <line x1="502.15" y1="109.92" x2="502.15" y2="146.48" fill="#fff" stroke="#333" stroke-miterlimit="10" stroke-width="3"/>
  </g>
  <g>
    <line x1="246.51" y1="40.76" x2="263.39" y2="23.88" fill="#fff"/>
    <g>
      <line x1="246.51" y1="40.76" x2="257.3" y2="29.97" fill="none" stroke="#333" stroke-miterlimit="10" stroke-width="3"/>
      <polygon points="260.29 35.44 263.39 23.88 251.83 26.97 260.29 35.44" fill="#333"/>
    </g>
  </g>
  <g>
    <line x1="170.99" y1="40.26" x2="154.61" y2="23.88" fill="#fff"/>
    <g>
      <line x1="170.99" y1="40.26" x2="160.7" y2="29.97" fill="none" stroke="#333" stroke-miterlimit="10" stroke-width="3"/>
      <polygon points="166.17 26.97 154.61 23.88 157.71 35.44 166.17 26.97" fill="#333"/>
    </g>
  </g>
  <g>
    <line x1="193.27" y1="23.87" x2="187.73" y2="4.16" fill="#fff"/>
    <g>
      <line x1="193.27" y1="23.87" x2="190.06" y2="12.45" fill="none" stroke="#333" stroke-miterlimit="10" stroke-width="3"/>
      <polygon points="196.3 12.52 187.73 4.16 184.77 15.76 196.3 12.52" fill="#333"/>
    </g>
  </g>
  <g>
    <line x1="223.73" y1="23.87" x2="229.27" y2="4.16" fill="#fff"/>
    <g>
      <line x1="223.73" y1="23.87" x2="226.94" y2="12.45" fill="none" stroke="#333" stroke-miterlimit="10" stroke-width="3"/>
      <polygon points="232.23 15.76 229.27 4.16 220.7 12.52 232.23 15.76" fill="#333"/>
    </g>
  </g>
  <line x1="406.5" y1="117.75" x2="406.5" y2="136.75" fill="none" stroke="#333" stroke-miterlimit="10" stroke-width="3"/>
  <g>
    <path d="m302.5,77.75v-17.67c0-7.92-6.42-14.33-14.33-14.33h-12.66" fill="none" stroke="#333" stroke-miterlimit="10" stroke-width="3"/>
    <polygon points="277.25 39.77 266.89 45.75 277.25 51.73 277.25 39.77" fill="#333"/>
  </g>
</svg>