<?xml version="1.0" encoding="UTF-8"?>
<svg id="stroke" xmlns="http://www.w3.org/2000/svg" width="300" height="300" viewBox="0 0 300 300">

  <style>
    
    #arrows > line{
      stroke-dasharray: 40 10;
      stroke-dashoffset: 0;
      animation: arrow 5s infinite linear;
    }

    @keyframes arrow{
      0%{
        stroke-dashoffset: 0;
      }
      100%{
        stroke-dashoffset: -100;
      }
    }

  </style>

  <rect x="184.25" y="175.91" width="108.85" height="20.44" fill="#81ebb3"/>
  <rect x="6.9" y="175.91" width="105.58" height="20.44" fill="#81ebb3"/>
  <g>
    <path d="m212.51,62.86s0-.04,0-.06c0-17.68-14.33-32.01-32.01-32.01-1.54,0-3.06.12-4.54.33-7.6-11.23-20.47-18.62-35.05-18.62-22.87,0-41.49,18.15-42.26,40.83-18.78,5.69-32.46,23.13-32.46,43.77,0,25.25,20.47,45.73,45.73,45.73,8.07,0,15.64-2.1,22.22-5.76,5.65,5.01,13.08,8.05,21.22,8.05s16-3.22,21.71-8.49c6.31,3.93,13.75,6.21,21.73,6.21,22.73,0,41.15-18.43,41.15-41.16,0-17.92-11.45-33.15-27.44-38.8Z" fill="#e6e6e6"/>
    <path d="m212.51,62.86s0-.04,0-.06c0-17.68-14.33-32.01-32.01-32.01-1.54,0-3.06.12-4.54.33-7.6-11.23-20.47-18.62-35.05-18.62-22.87,0-41.49,18.15-42.26,40.83-18.78,5.69-32.46,23.13-32.46,43.77,0,25.25,20.47,45.73,45.73,45.73,8.07,0,15.64-2.1,22.22-5.76,5.65,5.01,13.08,8.05,21.22,8.05s16-3.22,21.71-8.49c6.31,3.93,13.75,6.21,21.73,6.21,22.73,0,41.15-18.43,41.15-41.16,0-17.92-11.45-33.15-27.44-38.8Z" fill="none" stroke="#333" stroke-miterlimit="10" stroke-width="4"/>
  </g>
   <g>
    <path d="m138.85,95.61c-.29,3.94-1.74,7.05-4.37,9.31s-6.09,3.4-10.38,3.4c-4.7,0-8.4-1.58-11.09-4.75s-4.04-7.51-4.04-13.03v-2.24c0-3.52.62-6.63,1.86-9.31,1.24-2.68,3.02-4.75,5.32-6.18,2.31-1.43,4.99-2.15,8.04-2.15,4.23,0,7.64,1.13,10.22,3.4s4.08,5.45,4.48,9.54h-7.55c-.19-2.37-.84-4.08-1.98-5.15s-2.86-1.6-5.17-1.6c-2.52,0-4.4.9-5.65,2.71s-1.89,4.6-1.93,8.39v2.77c0,3.96.6,6.86,1.8,8.68,1.2,1.83,3.09,2.74,5.68,2.74,2.33,0,4.07-.53,5.22-1.6,1.15-1.07,1.81-2.71,1.98-4.95h7.55Z" fill="#333"/>
    <path d="m173.92,90.32c0,3.61-.64,6.77-1.91,9.49-1.28,2.72-3.1,4.82-5.48,6.29-2.38,1.48-5.1,2.22-8.17,2.22s-5.75-.73-8.13-2.19c-2.38-1.46-4.23-3.54-5.54-6.25s-1.97-5.83-1.99-9.35v-1.81c0-3.61.65-6.78,1.95-9.53,1.3-2.74,3.14-4.85,5.51-6.32,2.37-1.47,5.09-2.2,8.14-2.2s5.77.73,8.14,2.2c2.37,1.47,4.21,3.57,5.51,6.32,1.3,2.74,1.95,5.91,1.95,9.5v1.64Zm-7.65-1.66c0-3.84-.69-6.76-2.06-8.76-1.38-2-3.34-3-5.89-3s-4.49.99-5.87,2.96c-1.38,1.97-2.07,4.86-2.09,8.67v1.79c0,3.74.69,6.65,2.06,8.71,1.38,2.06,3.36,3.1,5.94,3.1s4.48-1,5.84-2.98c1.36-1.99,2.05-4.89,2.06-8.7v-1.79Z" fill="#333"/>
    <path d="m193.58,107.82h-15.61v-3.47l7.22-6.47c.94-.83,1.61-1.59,2.03-2.3.41-.71.62-1.26.62-1.64,0-1.42-.8-2.12-2.39-2.12-.84,0-1.51.26-2,.79-.5.52-.74,1.18-.74,1.98h-5.19c0-1.95.72-3.58,2.15-4.91,1.44-1.33,3.29-1.99,5.55-1.99,2.48,0,4.4.54,5.75,1.62,1.35,1.08,2.03,2.62,2.03,4.62,0,1.17-.3,2.25-.91,3.22-.6.97-1.81,2.19-3.62,3.65l-3.73,2.9h8.84v4.13Z" fill="#333"/>
  </g>
  <path d="m39.91,277.1v-45.43c0-5.39,4.37-9.77,9.77-9.77h54.06c5.39,0,9.77-4.37,9.77-9.77v-37.25H6.9" fill="none" stroke="#333" stroke-miterlimit="10" stroke-width="4"/>
  <path d="m293.1,174.89h-108.85v37.25c0,5.39,4.37,9.77,9.77,9.77h54.06c5.39,0,9.77,4.37,9.77,9.77v45.43" fill="none" stroke="#333" stroke-miterlimit="10" stroke-width="4"/>
  <line x1="197.08" y1="197.89" x2="219.86" y2="175.11" fill="#fff" stroke="#333" stroke-miterlimit="10" stroke-width="4"/>
  <line x1="185.27" y1="197.37" x2="293.1" y2="197.37" fill="#fff" stroke="#333" stroke-miterlimit="10" stroke-width="4"/>
  <line x1="6.9" y1="197.37" x2="112.48" y2="197.37" fill="#fff" stroke="#333" stroke-miterlimit="10" stroke-width="4"/>
  <line x1="224.68" y1="197.89" x2="247.46" y2="175.11" fill="#fff" stroke="#333" stroke-miterlimit="10" stroke-width="4"/>
  <line x1="252.28" y1="197.89" x2="275.06" y2="175.11" fill="#fff" stroke="#333" stroke-miterlimit="10" stroke-width="4"/>
  <line x1="21.06" y1="197.89" x2="43.83" y2="175.11" fill="#fff" stroke="#333" stroke-miterlimit="10" stroke-width="4"/>
  <line x1="48.66" y1="197.89" x2="71.43" y2="175.11" fill="#fff" stroke="#333" stroke-miterlimit="10" stroke-width="4"/>
  <line x1="76.26" y1="197.89" x2="99.03" y2="175.11" fill="#fff" stroke="#333" stroke-miterlimit="10" stroke-width="4"/>
  <g id="air-lines">
    <line x1="6.9" y1="31.79" x2="78.45" y2="31.79" fill="#fff" stroke="#333" stroke-miterlimit="10" stroke-width="4"/>
    <line x1="248.13" y1="31.79" x2="293.1" y2="31.79" fill="#fff" stroke="#333" stroke-miterlimit="10" stroke-width="4"/>
    <line x1="6.9" y1="55.09" x2="41.65" y2="55.09" fill="#fff" stroke="#333" stroke-miterlimit="10" stroke-width="4"/>
    <line x1="237.9" y1="55.09" x2="293.1" y2="55.09" fill="none" stroke="#e6e6e6" stroke-miterlimit="10" stroke-width="4"/>
    <line x1="6.9" y1="78.4" x2="41.65" y2="78.4" fill="none" stroke="#e6e6e6" stroke-miterlimit="10" stroke-width="4"/>
    <line x1="256.3" y1="78.4" x2="293.1" y2="78.4" fill="#fff" stroke="#333" stroke-miterlimit="10" stroke-width="4"/>
    <line x1="6.9" y1="101.7" x2="27.34" y2="101.7" fill="#fff" stroke="#333" stroke-miterlimit="10" stroke-width="4"/>
    <line x1="264.48" y1="101.7" x2="293.1" y2="101.7" fill="none" stroke="#e6e6e6" stroke-miterlimit="10" stroke-width="4"/>
    <line x1="6.9" y1="148.31" x2="62.1" y2="148.31" fill="#fff" stroke="#333" stroke-miterlimit="10" stroke-width="4"/>
    <line x1="254.26" y1="148.31" x2="293.1" y2="148.31" fill="#fff" stroke="#333" stroke-miterlimit="10" stroke-width="4"/>
    <line x1="6.9" y1="125.01" x2="45.74" y2="125.01" fill="none" stroke="#e6e6e6" stroke-miterlimit="10" stroke-width="4"/>
    <line x1="266.52" y1="125.01" x2="293.1" y2="125.01" fill="#fff" stroke="#333" stroke-miterlimit="10" stroke-width="4"/>
  </g>
  <g id="arrows">
    <line x1="150" y1="158.53" x2="150" y2="286.89" fill="none" stroke="#333" stroke-miterlimit="10" stroke-width="4" pathLength="100"/>
    <polygon points="144.02 285.14 150 295.5 155.98 285.14 144.02 285.14" fill="#333"/>
    <line x1="167.03" y1="158.53" x2="167.03" y2="263.25" fill="none" stroke="#333" stroke-miterlimit="10" stroke-width="4" pathLength="100"/>
    <polygon points="161.05 261.5 167.03 271.86 173.01 261.5 161.05 261.5" fill="#333"/>
    <line x1="132.16" y1="158.53" x2="132.16" y2="246.38" fill="none" stroke="#333" stroke-miterlimit="10" stroke-width="4" pathLength="100"/>
    <polygon points="126.18 244.62 132.16 254.99 138.15 244.62 126.18 244.62" fill="#333"/>
  </g>
</svg>