<svg id="Layer_1" data-name="Layer 1" xmlns="http://www.w3.org/2000/svg" viewBox="0 0 740 403.76"><defs><style>.cls-1{fill:gray;}.cls-10,.cls-2,.cls-4,.cls-5,.cls-8{fill:none;}.cls-2{stroke:gray;}.cls-10,.cls-15,.cls-17,.cls-2,.cls-4,.cls-5,.cls-8{stroke-miterlimit:10;}.cls-3{fill:#333;}.cls-10,.cls-15,.cls-17,.cls-4,.cls-8{stroke:#000;}.cls-5{stroke:#999;}.cls-6{fill:#999;}.cls-7{fill:#ff6b4d;}.cls-8{stroke-dasharray:3.87 3.87;}.cls-15,.cls-9{fill:#ffd166;}.cls-9{opacity:0.7;}.cls-10{stroke-dasharray:3.88 3.88;}.cls-11,.cls-16{fill:#ffb860;}.cls-11{opacity:0.78;}.cls-12,.cls-17{fill:#ff9e5a;}.cls-12{opacity:0.85;}.cls-13,.cls-14{fill:#ff8453;}.cls-13{opacity:0.93;}.cls-14{fill-opacity:0.93;}.cls-15{fill-opacity:0.7;}.cls-15,.cls-17{stroke-dasharray:4;}.cls-16{fill-opacity:0.78;}.cls-17{fill-opacity:0.85;}</style></defs><path d="M7.11,28.23V9.32h7.46a7.68,7.68,0,0,1,3.67.82,5.59,5.59,0,0,1,2.31,2.26,6.78,6.78,0,0,1,.8,3.33,6.64,6.64,0,0,1-.81,3.32,5.73,5.73,0,0,1-2.35,2.25,8,8,0,0,1-3.72.8H9.71V18.9h4.11a4.13,4.13,0,0,0,1.91-.4,2.66,2.66,0,0,0,1.13-1.12,3.52,3.52,0,0,0,.37-1.65,3.46,3.46,0,0,0-.37-1.65A2.67,2.67,0,0,0,15.73,13a4.21,4.21,0,0,0-1.92-.39h-2.7V28.23Z"/><path d="M42.11,18.78A11,11,0,0,1,40.94,24a8.13,8.13,0,0,1-3.18,3.31,9.51,9.51,0,0,1-9,0A8.19,8.19,0,0,1,25.56,24a11.06,11.06,0,0,1-1.16-5.25,11.12,11.12,0,0,1,1.16-5.27,8.17,8.17,0,0,1,3.17-3.31,9.51,9.51,0,0,1,9,0,8.19,8.19,0,0,1,3.18,3.31A11,11,0,0,1,42.11,18.78Zm-4,0a8.45,8.45,0,0,0-.6-3.38,4.66,4.66,0,0,0-1.68-2.09,4.52,4.52,0,0,0-2.53-.71,4.57,4.57,0,0,0-2.53.71,4.64,4.64,0,0,0-1.67,2.09,8.45,8.45,0,0,0-.6,3.38,8.48,8.48,0,0,0,.6,3.38,4.61,4.61,0,0,0,1.67,2.08,4.49,4.49,0,0,0,2.53.71,4.44,4.44,0,0,0,2.53-.71,4.63,4.63,0,0,0,1.68-2.08A8.48,8.48,0,0,0,38.06,18.78Z"/><path d="M52.55,28.23H45.84V9.32H52.6a10.09,10.09,0,0,1,4.91,1.13,7.79,7.79,0,0,1,3.18,3.25,10.77,10.77,0,0,1,1.11,5.06,10.85,10.85,0,0,1-1.11,5.08A7.83,7.83,0,0,1,57.5,27.1,10.23,10.23,0,0,1,52.55,28.23Zm-2.71-3.42h2.54a6.33,6.33,0,0,0,3-.64,4,4,0,0,0,1.83-2,8.46,8.46,0,0,0,.61-3.45,8.39,8.39,0,0,0-.61-3.43,4,4,0,0,0-1.83-1.95,6.41,6.41,0,0,0-3-.63H49.84Z"/><path d="M69.53,9.32V28.23h-4V9.32Zm-3.4-1.83,2-4.2h3.64l-2.82,4.2Z"/><path d="M73.61,28.23V9.32h4V24.94h8.11v3.29Z"/><path d="M102.65,28.23H96V9.32h6.76a10.09,10.09,0,0,1,4.91,1.13,7.76,7.76,0,0,1,3.17,3.25,10.77,10.77,0,0,1,1.11,5.06,10.85,10.85,0,0,1-1.11,5.08,7.75,7.75,0,0,1-3.18,3.26A10.29,10.29,0,0,1,102.65,28.23ZM100,24.81h2.54a6.28,6.28,0,0,0,3-.64,4,4,0,0,0,1.83-2,8.29,8.29,0,0,0,.62-3.45,8.22,8.22,0,0,0-.62-3.43,4,4,0,0,0-1.82-1.95,6.41,6.41,0,0,0-3-.63H100Z"/><path d="M115.64,28.23V9.32h7.46a8.18,8.18,0,0,1,3.66.76,5.45,5.45,0,0,1,2.32,2.16,6.43,6.43,0,0,1,.8,3.26,6.21,6.21,0,0,1-.82,3.24,5.23,5.23,0,0,1-2.35,2.07,8.67,8.67,0,0,1-3.71.72h-5V18.32h4.35a5,5,0,0,0,1.9-.32,2.26,2.26,0,0,0,1.13-.94,3,3,0,0,0,.38-1.56,3.12,3.12,0,0,0-.38-1.59,2.33,2.33,0,0,0-1.13-1,4.68,4.68,0,0,0-1.92-.34h-2.7V28.23Zm10.21-8.6,4.7,8.6h-4.42l-4.59-8.6Z"/><path d="M145.16,9.32h4V21.6a6.47,6.47,0,0,1-3.73,6,10.27,10.27,0,0,1-8.23,0,6.44,6.44,0,0,1-3.72-6V9.32h4V21.26a3.9,3.9,0,0,0,.47,1.92,3.43,3.43,0,0,0,1.35,1.32,4.51,4.51,0,0,0,4,0,3.38,3.38,0,0,0,1.33-1.32,3.8,3.8,0,0,0,.48-1.92Z"/><path d="M153.22,28.23V9.32h4v7.8h8.12V9.32h4V28.23h-4V20.42h-8.12v7.81Z"/><path d="M185.08,9.32h4V21.6a6.43,6.43,0,0,1-3.73,6,10.27,10.27,0,0,1-8.23,0,6.44,6.44,0,0,1-3.72-6V9.32h4V21.26a3.8,3.8,0,0,0,.48,1.92,3.34,3.34,0,0,0,1.34,1.32,4.51,4.51,0,0,0,4.05,0,3.47,3.47,0,0,0,1.34-1.32,3.9,3.9,0,0,0,.47-1.92Zm-3.84-1a3.07,3.07,0,0,1-2.59-1.42,2.73,2.73,0,0,1,0-2.88,3,3,0,0,1,1.09-1,3.1,3.1,0,0,1,3,0,3,3,0,0,1,1.09,1,2.64,2.64,0,0,1,.4,1.43,2.65,2.65,0,0,1-.4,1.44,3,3,0,0,1-1.09,1A3,3,0,0,1,181.24,8.31Zm0-1.6a1.38,1.38,0,0,0,.93-.37,1.21,1.21,0,0,0,.38-.89,1.16,1.16,0,0,0-.38-.89,1.23,1.23,0,0,0-.93-.36,1.32,1.32,0,0,0-.93.36,1.21,1.21,0,0,0,0,1.78A1.29,1.29,0,0,0,181.24,6.71Z"/><path d="M217.33,18.78A11.08,11.08,0,0,1,216.17,24,8.13,8.13,0,0,1,213,27.35a9.53,9.53,0,0,1-9,0A8.17,8.17,0,0,1,200.79,24a11,11,0,0,1-1.17-5.25,11,11,0,0,1,1.17-5.27A8.14,8.14,0,0,1,204,10.2a9.53,9.53,0,0,1,9,0,8.19,8.19,0,0,1,3.18,3.31A11.12,11.12,0,0,1,217.33,18.78Zm-4.05,0a8.45,8.45,0,0,0-.6-3.38A4.57,4.57,0,0,0,211,13.31a4.86,4.86,0,0,0-5.06,0,4.66,4.66,0,0,0-1.68,2.09,8.64,8.64,0,0,0-.59,3.38,8.67,8.67,0,0,0,.59,3.38A4.63,4.63,0,0,0,206,24.24a4.86,4.86,0,0,0,5.06,0,4.55,4.55,0,0,0,1.67-2.08A8.48,8.48,0,0,0,213.28,18.78Z"/><path d="M221.07,28.23V9.32h4v7.8h8.12V9.32h4V28.23h-4V20.42h-8.12v7.81Z"/><path d="M241.25,28.23V9.32h7.46a8.24,8.24,0,0,1,3.66.76,5.37,5.37,0,0,1,2.31,2.16,6.33,6.33,0,0,1,.8,3.26,6.21,6.21,0,0,1-.81,3.24,5.23,5.23,0,0,1-2.35,2.07,8.69,8.69,0,0,1-3.72.72h-5V18.32H248a5,5,0,0,0,1.9-.32,2.26,2.26,0,0,0,1.13-.94,3,3,0,0,0,.38-1.56,3.12,3.12,0,0,0-.38-1.59,2.37,2.37,0,0,0-1.13-1,4.68,4.68,0,0,0-1.92-.34h-2.7V28.23Zm10.21-8.6,4.7,8.6h-4.42l-4.59-8.6Z"/><path d="M276.46,18.78A11,11,0,0,1,275.3,24a8.13,8.13,0,0,1-3.18,3.31,9.51,9.51,0,0,1-9,0A8.19,8.19,0,0,1,259.92,24a11,11,0,0,1-1.16-5.25,11,11,0,0,1,1.16-5.27,8.17,8.17,0,0,1,3.17-3.31,9.51,9.51,0,0,1,9,0,8.19,8.19,0,0,1,3.18,3.31A11,11,0,0,1,276.46,18.78Zm-4,0a8.64,8.64,0,0,0-.59-3.38,4.66,4.66,0,0,0-1.68-2.09,4.86,4.86,0,0,0-5.06,0,4.66,4.66,0,0,0-1.68,2.09,8.64,8.64,0,0,0-.59,3.38,8.67,8.67,0,0,0,.59,3.38,4.63,4.63,0,0,0,1.68,2.08,4.86,4.86,0,0,0,5.06,0,4.63,4.63,0,0,0,1.68-2.08A8.67,8.67,0,0,0,272.41,18.78Z"/><path d="M280,28.23V25.86l9.43-13.24H280V9.32h14.48V11.7L285,24.94h9.46v3.29Zm5.41-24.8,1.85,2.26,1.86-2.26h3.35v.13l-3.75,4.06H285.8l-3.75-4.06V3.43Z"/><path d="M298.32,28.23V9.32h12.74v3.3h-8.74v4.5h8.08v3.3h-8.08v4.52h8.78v3.29Z"/><path d="M330.84,9.32V28.23h-3.45l-8.23-11.9H319v11.9h-4V9.32h3.5l8.17,11.89h.16V9.32Z"/><path d="M333.81,9.32h4.48l4.31,8.15h.18l4.32-8.15h4.47l-6.89,12.23v6.68h-4V21.55Zm7.47-1.83,2-4.2h3.64l-2.82,4.2Z"/><path d="M370.06,15.94h-4a4.11,4.11,0,0,0-.45-1.4,3.53,3.53,0,0,0-.88-1,4.07,4.07,0,0,0-1.23-.67A4.92,4.92,0,0,0,362,12.6a4.55,4.55,0,0,0-2.56.72,4.72,4.72,0,0,0-1.69,2.11,8.4,8.4,0,0,0-.6,3.35,8.52,8.52,0,0,0,.6,3.4,4.63,4.63,0,0,0,1.7,2.07,4.53,4.53,0,0,0,2.52.7,5.06,5.06,0,0,0,1.49-.21,3.8,3.8,0,0,0,1.22-.62,3.54,3.54,0,0,0,.89-1,4,4,0,0,0,.5-1.35l4,0a7.13,7.13,0,0,1-.78,2.5,7.51,7.51,0,0,1-1.67,2.16,7.93,7.93,0,0,1-2.49,1.49,9.08,9.08,0,0,1-3.27.55,9,9,0,0,1-4.52-1.14A8.1,8.1,0,0,1,354.2,24a11.06,11.06,0,0,1-1.15-5.25,11,11,0,0,1,1.16-5.27,8.14,8.14,0,0,1,3.16-3.31,8.86,8.86,0,0,1,4.48-1.14,9.72,9.72,0,0,1,3.06.47,7.58,7.58,0,0,1,2.49,1.34A7.06,7.06,0,0,1,369.18,13,8,8,0,0,1,370.06,15.94Z"/><path d="M373.71,28.23V9.32h4v7.8h8.12V9.32h4V28.23h-4V20.42h-8.12v7.81Z"/><path d="M404.12,9.32l4.57,14.37h.17l4.58-14.37h4.43l-6.51,18.91H406.2L399.68,9.32Z"/><path d="M419.82,9.32h4.48l4.31,8.15h.18l4.31-8.15h4.48l-6.9,12.23v6.68h-4V21.55Z"/><path d="M440.54,28.23V9.32h4v7.8h8.11V9.32h4V28.23h-4V20.42h-8.11v7.81Z"/><path d="M472.4,9.32h4V21.6a6.47,6.47,0,0,1-3.73,6,10.27,10.27,0,0,1-8.23,0,6.53,6.53,0,0,1-2.74-2.42,6.65,6.65,0,0,1-1-3.62V9.32h4V21.26a3.9,3.9,0,0,0,.47,1.92,3.43,3.43,0,0,0,1.35,1.32,4.49,4.49,0,0,0,4,0,3.34,3.34,0,0,0,1.34-1.32,3.8,3.8,0,0,0,.48-1.92Z"/><path d="M480.46,28.23V9.32H488a8.64,8.64,0,0,1,3.48.62,4.6,4.6,0,0,1,2.09,1.71,4.55,4.55,0,0,1,.7,2.52,4.11,4.11,0,0,1-.44,1.94,3.81,3.81,0,0,1-1.21,1.37,5.24,5.24,0,0,1-1.76.75v.19a4.18,4.18,0,0,1,2,.61,4.3,4.3,0,0,1,1.54,1.57,4.76,4.76,0,0,1,.59,2.41,5,5,0,0,1-.74,2.68,5.18,5.18,0,0,1-2.19,1.86,8.47,8.47,0,0,1-3.58.68Zm4-11h3a3.59,3.59,0,0,0,1.46-.29,2.44,2.44,0,0,0,1-.83,2.21,2.21,0,0,0,.38-1.29,2.06,2.06,0,0,0-.73-1.65,3,3,0,0,0-2.05-.63h-3Zm0,7.72h3.26a3.77,3.77,0,0,0,2.44-.64,2.12,2.12,0,0,0,.76-1.71,2.58,2.58,0,0,0-.37-1.39,2.62,2.62,0,0,0-1.08-.94,3.7,3.7,0,0,0-1.66-.34h-3.35Z"/><path d="M498.43,28.23V9.32h12.74v3.3h-8.75v4.5h8.09v3.3h-8.09v4.52h8.78v3.29Z"/><path d="M531,9.32V28.23H527.5l-8.23-11.9h-.14v11.9h-4V9.32h3.51l8.16,11.89H527V9.32Z"/><path d="M539,9.32V28.23h-4V9.32Zm-3.4-1.83,2-4.2h3.64l-2.82,4.2Z"/><path d="M543.1,9.32H548L553.24,22h.22l5.2-12.71h4.94V28.23h-3.88V15.92h-.16l-4.89,12.22H552l-4.9-12.26H547V28.23H543.1Z"/><path class="cls-1" d="M8,197.8a6.33,6.33,0,0,1-2.61-.51,4.27,4.27,0,0,1-1.81-1.4,3.68,3.68,0,0,1-.72-2.08H5.05a2,2,0,0,0,.44,1.12,2.59,2.59,0,0,0,1,.72,3.82,3.82,0,0,0,1.42.26,3.7,3.7,0,0,0,1.53-.3,2.55,2.55,0,0,0,1-.83,2.11,2.11,0,0,0,.37-1.24,2.25,2.25,0,0,0-.37-1.29,2.48,2.48,0,0,0-1.09-.88,4.19,4.19,0,0,0-1.72-.32H6.47v-1.79H7.7A3.38,3.38,0,0,0,9.13,189a2.32,2.32,0,0,0,1-.81,2.19,2.19,0,0,0,.35-1.23,2.13,2.13,0,0,0-.31-1.17,2,2,0,0,0-.85-.79A2.76,2.76,0,0,0,8,184.69a3.25,3.25,0,0,0-1.33.26,2.5,2.5,0,0,0-1,.74,1.93,1.93,0,0,0-.41,1.14H3.13a3.58,3.58,0,0,1,.7-2.07,4.46,4.46,0,0,1,1.76-1.4,5.67,5.67,0,0,1,2.42-.5,5.09,5.09,0,0,1,2.42.54A4,4,0,0,1,12,184.84a3.63,3.63,0,0,1,.55,2,3.13,3.13,0,0,1-.68,2.07A3.35,3.35,0,0,1,10.06,190v.11a3.55,3.55,0,0,1,2.25,1.15,3.43,3.43,0,0,1,.79,2.31,3.67,3.67,0,0,1-.66,2.15,4.59,4.59,0,0,1-1.83,1.49A6.07,6.07,0,0,1,8,197.8Z"/><path class="cls-1" d="M20.84,197.84A4.72,4.72,0,0,1,18,197a5.45,5.45,0,0,1-1.82-2.56,13.33,13.33,0,0,1,0-8.1A5.5,5.5,0,0,1,18,183.74a4.65,4.65,0,0,1,2.86-.88,4.65,4.65,0,0,1,2.86.88,5.45,5.45,0,0,1,1.83,2.56,11.21,11.21,0,0,1,.64,4,11.58,11.58,0,0,1-.63,4.06A5.55,5.55,0,0,1,23.71,197,4.66,4.66,0,0,1,20.84,197.84Zm0-1.9a2.55,2.55,0,0,0,2.31-1.44,8.39,8.39,0,0,0,.84-4.17,10.82,10.82,0,0,0-.38-3.06,4.18,4.18,0,0,0-1.09-1.9,2.36,2.36,0,0,0-1.68-.65,2.57,2.57,0,0,0-2.31,1.44,8.44,8.44,0,0,0-.84,4.17,10.41,10.41,0,0,0,.38,3.07,4.09,4.09,0,0,0,1.08,1.9A2.41,2.41,0,0,0,20.84,195.94Z"/><path class="cls-1" d="M34.27,186.55v-.77a3.32,3.32,0,0,1,.35-1.51,2.61,2.61,0,0,1,1-1.1,3.37,3.37,0,0,1,3.22,0,2.57,2.57,0,0,1,1,1.1,3.44,3.44,0,0,1,.33,1.51v.77a3.44,3.44,0,0,1-.33,1.51,2.78,2.78,0,0,1-1,1.1,2.92,2.92,0,0,1-1.61.41,3,3,0,0,1-1.62-.41,2.78,2.78,0,0,1-1-1.1A3.45,3.45,0,0,1,34.27,186.55Zm.59,11,10-14.55h1.7l-10,14.55Zm1.07-11.82v.77a2.21,2.21,0,0,0,.29,1.11,1.07,1.07,0,0,0,1,.49,1,1,0,0,0,1-.49,2.21,2.21,0,0,0,.29-1.11v-.77a2.18,2.18,0,0,0-.28-1.11,1,1,0,0,0-1-.49,1.06,1.06,0,0,0-1,.49A2.1,2.1,0,0,0,35.93,185.78Zm5.66,9.09v-.76a3.29,3.29,0,0,1,.35-1.51,2.74,2.74,0,0,1,1-1.11,3.39,3.39,0,0,1,3.23,0,2.76,2.76,0,0,1,1,1.1,3.49,3.49,0,0,1,.34,1.52v.76a3.45,3.45,0,0,1-.34,1.51,2.72,2.72,0,0,1-1,1.1,3.32,3.32,0,0,1-3.23,0,2.72,2.72,0,0,1-1-1.1A3.45,3.45,0,0,1,41.59,194.87Zm1.65-.76v.76a2.19,2.19,0,0,0,.3,1.11,1.07,1.07,0,0,0,1,.5,1.06,1.06,0,0,0,1-.5,2.18,2.18,0,0,0,.28-1.11v-.76a2.28,2.28,0,0,0-.27-1.11,1.05,1.05,0,0,0-1-.5,1.09,1.09,0,0,0-1,.5A2.3,2.3,0,0,0,43.24,194.11Z"/><path class="cls-1" d="M2.89,252v-1.59l4.93-5.1c.52-.55,1-1,1.3-1.46a5.79,5.79,0,0,0,.77-1.19,3,3,0,0,0,.26-1.21,2.27,2.27,0,0,0-.35-1.26,2.17,2.17,0,0,0-.93-.81,3,3,0,0,0-1.32-.29,2.86,2.86,0,0,0-1.37.32,2.15,2.15,0,0,0-.89.9A2.81,2.81,0,0,0,5,241.71H2.88a4.34,4.34,0,0,1,.61-2.32,4.16,4.16,0,0,1,1.68-1.54,5.14,5.14,0,0,1,2.42-.55,5.23,5.23,0,0,1,2.42.54,4.1,4.1,0,0,1,1.63,1.48,3.78,3.78,0,0,1,.59,2.1,4.4,4.4,0,0,1-.3,1.59,7,7,0,0,1-1,1.72A27,27,0,0,1,8.81,247l-2.89,3v.11h6.55V252Z"/><path class="cls-1" d="M20.22,252.28a4.73,4.73,0,0,1-2.87-.88,5.48,5.48,0,0,1-1.83-2.57,11.56,11.56,0,0,1-.63-4.05,11.23,11.23,0,0,1,.64-4,5.45,5.45,0,0,1,1.83-2.56,4.67,4.67,0,0,1,2.86-.88,4.68,4.68,0,0,1,2.87.88,5.59,5.59,0,0,1,1.83,2.56,13.3,13.3,0,0,1,0,8.09,5.48,5.48,0,0,1-1.83,2.57A4.66,4.66,0,0,1,20.22,252.28Zm0-1.89A2.58,2.58,0,0,0,22.54,249a8.57,8.57,0,0,0,.83-4.17,10.85,10.85,0,0,0-.38-3.07,4.06,4.06,0,0,0-1.09-1.9,2.36,2.36,0,0,0-1.68-.65,2.54,2.54,0,0,0-2.3,1.45,8.49,8.49,0,0,0-.85,4.17,10.85,10.85,0,0,0,.38,3.07,4.05,4.05,0,0,0,1.08,1.89A2.43,2.43,0,0,0,20.22,250.39Z"/><path class="cls-1" d="M33.65,241v-.77a3.32,3.32,0,0,1,.35-1.51,2.61,2.61,0,0,1,1-1.1,3,3,0,0,1,1.61-.41,3,3,0,0,1,1.61.41,2.57,2.57,0,0,1,1,1.1,3.45,3.45,0,0,1,.34,1.51V241a3.45,3.45,0,0,1-.34,1.51,2.72,2.72,0,0,1-1,1.1,2.89,2.89,0,0,1-1.6.42A3,3,0,0,1,35,243.6a2.72,2.72,0,0,1-1-1.1A3.45,3.45,0,0,1,33.65,241Zm.59,11,10-14.54h1.7L35.94,252Zm1.08-11.82V241a2.18,2.18,0,0,0,.28,1.11,1.09,1.09,0,0,0,1,.5,1,1,0,0,0,1-.5A2.19,2.19,0,0,0,37.9,241v-.77a2.17,2.17,0,0,0-.28-1.1,1,1,0,0,0-1-.5,1.06,1.06,0,0,0-1,.5A2.08,2.08,0,0,0,35.32,240.22ZM41,249.31v-.76a3.29,3.29,0,0,1,.35-1.51,2.61,2.61,0,0,1,1-1.1,2.91,2.91,0,0,1,1.6-.42,3,3,0,0,1,1.62.41,2.62,2.62,0,0,1,1,1.1,3.36,3.36,0,0,1,.34,1.52v.76a3.42,3.42,0,0,1-.34,1.51,2.65,2.65,0,0,1-1,1.1,2.92,2.92,0,0,1-1.61.42,3,3,0,0,1-1.62-.42,2.65,2.65,0,0,1-1-1.1A3.42,3.42,0,0,1,41,249.31Zm1.65-.76v.76a2.3,2.3,0,0,0,.3,1.11,1.07,1.07,0,0,0,1,.5,1.06,1.06,0,0,0,1-.5,2.19,2.19,0,0,0,.29-1.11v-.76a2.18,2.18,0,0,0-.28-1.11,1.05,1.05,0,0,0-1-.5,1.07,1.07,0,0,0-1,.5A2.2,2.2,0,0,0,42.62,248.55Z"/><path class="cls-1" d="M8.41,291.94v14.54H6.21V294.14H6.13l-3.48,2.27v-2.1l3.63-2.37Z"/><path class="cls-1" d="M17.41,306.72a4.73,4.73,0,0,1-2.87-.88,5.43,5.43,0,0,1-1.83-2.57,13.3,13.3,0,0,1,0-8.09,5.53,5.53,0,0,1,1.84-2.56,4.65,4.65,0,0,1,2.86-.88,4.65,4.65,0,0,1,2.86.88,5.5,5.5,0,0,1,1.83,2.56,11.23,11.23,0,0,1,.64,4,11.62,11.62,0,0,1-.63,4.06,5.52,5.52,0,0,1-1.83,2.56A4.66,4.66,0,0,1,17.41,306.72Zm0-1.89a2.55,2.55,0,0,0,2.31-1.44,8.39,8.39,0,0,0,.84-4.17,10.85,10.85,0,0,0-.38-3.07,4.24,4.24,0,0,0-1.09-1.9,2.41,2.41,0,0,0-1.68-.65,2.57,2.57,0,0,0-2.31,1.45,8.39,8.39,0,0,0-.84,4.17,10.5,10.5,0,0,0,.38,3.07,4.14,4.14,0,0,0,1.08,1.9A2.45,2.45,0,0,0,17.41,304.83Z"/><path class="cls-1" d="M30.84,295.43v-.77a3.35,3.35,0,0,1,.35-1.51,2.72,2.72,0,0,1,1-1.1,3.06,3.06,0,0,1,1.61-.41,3,3,0,0,1,1.62.41,2.62,2.62,0,0,1,1,1.1,3.48,3.48,0,0,1,.33,1.51v.77a3.44,3.44,0,0,1-.33,1.51,2.65,2.65,0,0,1-1,1.1,2.92,2.92,0,0,1-1.61.42,3,3,0,0,1-1.62-.42,2.65,2.65,0,0,1-1-1.1A3.45,3.45,0,0,1,30.84,295.43Zm.59,11.05,10-14.54h1.7l-10,14.54Zm1.07-11.82v.77a2.19,2.19,0,0,0,.29,1.11,1.07,1.07,0,0,0,1,.5,1.06,1.06,0,0,0,1-.5,2.19,2.19,0,0,0,.29-1.11v-.77a2.17,2.17,0,0,0-.28-1.1,1.05,1.05,0,0,0-1-.5,1.07,1.07,0,0,0-1,.5A2.09,2.09,0,0,0,32.5,294.66Zm5.66,9.1V303a3.32,3.32,0,0,1,.35-1.51,2.72,2.72,0,0,1,1-1.1,3,3,0,0,1,1.61-.42,3,3,0,0,1,1.62.41,2.79,2.79,0,0,1,1,1.11,3.45,3.45,0,0,1,.34,1.51v.77a3.32,3.32,0,0,1-.35,1.51,2.68,2.68,0,0,1-1,1.1,3.39,3.39,0,0,1-3.23,0,2.78,2.78,0,0,1-1-1.1A3.45,3.45,0,0,1,38.16,303.76Zm1.65-.77v.77a2.19,2.19,0,0,0,.3,1.1,1.26,1.26,0,0,0,2,0,2.17,2.17,0,0,0,.28-1.1V303a2.28,2.28,0,0,0-.27-1.11,1.05,1.05,0,0,0-1-.5,1.08,1.08,0,0,0-1,.5A2.3,2.3,0,0,0,39.81,303Z"/><path class="cls-1" d="M15.47,361.17a4.73,4.73,0,0,1-2.87-.89,5.45,5.45,0,0,1-1.83-2.56,11.66,11.66,0,0,1-.63-4.06,11.27,11.27,0,0,1,.64-4,5.45,5.45,0,0,1,1.83-2.56,4.67,4.67,0,0,1,2.86-.88,4.69,4.69,0,0,1,2.87.89,5.56,5.56,0,0,1,1.83,2.55,13.33,13.33,0,0,1,0,8.1,5.45,5.45,0,0,1-1.83,2.56A4.67,4.67,0,0,1,15.47,361.17Zm0-1.9a2.58,2.58,0,0,0,2.32-1.44,8.51,8.51,0,0,0,.83-4.17,10.73,10.73,0,0,0-.38-3.06,4,4,0,0,0-1.09-1.91,2.41,2.41,0,0,0-1.68-.65,2.56,2.56,0,0,0-2.3,1.45,8.54,8.54,0,0,0-.85,4.17,10.8,10.8,0,0,0,.38,3.07,4.09,4.09,0,0,0,1.08,1.9A2.42,2.42,0,0,0,15.47,359.27Z"/><path class="cls-1" d="M28.9,349.87v-.76a3.36,3.36,0,0,1,.35-1.52,2.73,2.73,0,0,1,1-1.1,3,3,0,0,1,1.61-.41,3,3,0,0,1,1.61.41,2.68,2.68,0,0,1,1,1.1,3.49,3.49,0,0,1,.34,1.52v.76a3.42,3.42,0,0,1-.34,1.51,2.65,2.65,0,0,1-1,1.1,2.89,2.89,0,0,1-1.6.42,3,3,0,0,1-1.63-.42,2.65,2.65,0,0,1-1-1.1A3.42,3.42,0,0,1,28.9,349.87Zm.59,11.06,10-14.55h1.7l-10,14.55Zm1.08-11.82v.76a2.18,2.18,0,0,0,.28,1.11,1.09,1.09,0,0,0,1,.5,1,1,0,0,0,1-.5,2.19,2.19,0,0,0,.29-1.11v-.76a2.18,2.18,0,0,0-.28-1.11,1,1,0,0,0-1-.5,1.08,1.08,0,0,0-1,.5A2.09,2.09,0,0,0,30.57,349.11Zm5.65,9.09v-.77a3.32,3.32,0,0,1,.35-1.51,2.73,2.73,0,0,1,1-1.1,2.91,2.91,0,0,1,1.6-.41,3,3,0,0,1,1.62.41,2.57,2.57,0,0,1,1,1.1,3.32,3.32,0,0,1,.34,1.51v.77a3.45,3.45,0,0,1-.34,1.51,2.78,2.78,0,0,1-1,1.1,2.92,2.92,0,0,1-1.61.41,3,3,0,0,1-1.62-.41,2.78,2.78,0,0,1-1-1.1A3.45,3.45,0,0,1,36.22,358.2Zm1.65-.77v.77a2.33,2.33,0,0,0,.3,1.11,1.07,1.07,0,0,0,1,.49,1,1,0,0,0,1-.49,2.21,2.21,0,0,0,.29-1.11v-.77a2.18,2.18,0,0,0-.28-1.11,1,1,0,0,0-1-.49,1.06,1.06,0,0,0-1,.49A2.2,2.2,0,0,0,37.87,357.43Z"/><path class="cls-1" d="M2.59,140.32v-1.78l6.28-9.93h1.4v2.62H9.39l-4.5,7.11v.11H13.5v1.87Zm6.9,2.84V128.61h2.08v14.55Z"/><path class="cls-1" d="M21,143.4a4.79,4.79,0,0,1-2.88-.89A5.5,5.5,0,0,1,16.34,140a11.66,11.66,0,0,1-.63-4.06,11.5,11.5,0,0,1,.63-4,5.59,5.59,0,0,1,1.83-2.56,4.77,4.77,0,0,1,2.87-.88,4.66,4.66,0,0,1,2.86.89,5.47,5.47,0,0,1,1.83,2.55,13.13,13.13,0,0,1,0,8.1,5.43,5.43,0,0,1-1.82,2.56A4.69,4.69,0,0,1,21,143.4Zm0-1.9a2.55,2.55,0,0,0,2.31-1.44,8.39,8.39,0,0,0,.84-4.17,10.73,10.73,0,0,0-.38-3.06,4.28,4.28,0,0,0-1.09-1.91,2.41,2.41,0,0,0-1.68-.65,2.58,2.58,0,0,0-2.31,1.45,8.44,8.44,0,0,0-.84,4.17,10.45,10.45,0,0,0,.38,3.07,4.09,4.09,0,0,0,1.08,1.9A2.41,2.41,0,0,0,21,141.5Z"/><path class="cls-1" d="M34.47,132.11v-.77a3.29,3.29,0,0,1,.35-1.51,2.65,2.65,0,0,1,1-1.1,3,3,0,0,1,1.61-.42,2.91,2.91,0,0,1,1.62.42,2.57,2.57,0,0,1,1,1.1,3.41,3.41,0,0,1,.33,1.51v.77a3.4,3.4,0,0,1-.33,1.5,2.74,2.74,0,0,1-1,1.11,3,3,0,0,1-1.61.41,3,3,0,0,1-1.62-.41,2.74,2.74,0,0,1-1-1.11A3.41,3.41,0,0,1,34.47,132.11Zm.59,11,10-14.55h1.7l-10,14.55Zm1.07-11.82v.77a2.18,2.18,0,0,0,.29,1.1,1.05,1.05,0,0,0,1,.5,1,1,0,0,0,1-.5,2.18,2.18,0,0,0,.29-1.1v-.77a2.18,2.18,0,0,0-.28-1.11,1.05,1.05,0,0,0-1-.5,1.07,1.07,0,0,0-1,.5A2.1,2.1,0,0,0,36.13,131.34Zm5.66,9.09v-.77a3.32,3.32,0,0,1,.35-1.51,2.78,2.78,0,0,1,1-1.1,3,3,0,0,1,1.61-.41,3,3,0,0,1,1.62.41,2.7,2.7,0,0,1,1,1.1,3.45,3.45,0,0,1,.34,1.51v.77a3.32,3.32,0,0,1-.35,1.51,2.62,2.62,0,0,1-1,1.1,3.39,3.39,0,0,1-3.23,0,2.72,2.72,0,0,1-1-1.1A3.45,3.45,0,0,1,41.79,140.43Zm1.65-.77v.77a2.19,2.19,0,0,0,.3,1.11,1.28,1.28,0,0,0,2,0,2.18,2.18,0,0,0,.28-1.11v-.77a2.34,2.34,0,0,0-.27-1.11,1,1,0,0,0-1-.49,1.08,1.08,0,0,0-1,.49A2.36,2.36,0,0,0,43.44,139.66Z"/><line class="cls-2" x1="53.5" y1="355.13" x2="58.09" y2="355.13"/><line class="cls-2" x1="53.5" y1="300.63" x2="58.09" y2="300.63"/><line class="cls-2" x1="53.5" y1="246.13" x2="58.09" y2="246.13"/><line class="cls-2" x1="53.5" y1="191.63" x2="58.09" y2="191.63"/><line class="cls-2" x1="53.5" y1="137.13" x2="58.09" y2="137.13"/><path class="cls-3" d="M80.63,384.39V371.3H85.3a5.18,5.18,0,0,1,2.53.56,3.58,3.58,0,0,1,1.5,1.51,4.59,4.59,0,0,1,.5,2.17,4.69,4.69,0,0,1-.5,2.17,3.63,3.63,0,0,1-1.51,1.52,5.18,5.18,0,0,1-2.53.56h-3.2v-1.68h3a3.24,3.24,0,0,0,1.57-.33,2,2,0,0,0,.88-.92,3,3,0,0,0,.28-1.32,2.94,2.94,0,0,0-.28-1.32,2,2,0,0,0-.88-.9,3.32,3.32,0,0,0-1.59-.33H82.61v11.4Z"/><path class="cls-3" d="M96.57,374.57v1.54H91.21v-1.54Zm-3.93-2.35h1.92v9.29a1.65,1.65,0,0,0,.16.83.87.87,0,0,0,.43.38,1.57,1.57,0,0,0,.58.1,2.33,2.33,0,0,0,.4,0l.27-.05.35,1.57a3.07,3.07,0,0,1-.47.14,4.13,4.13,0,0,1-.77.07,3.32,3.32,0,0,1-1.41-.27,2.47,2.47,0,0,1-1-.87,2.54,2.54,0,0,1-.41-1.48Z"/><path class="cls-3" d="M101.54,384.61a4,4,0,0,1-1.69-.35,2.8,2.8,0,0,1-1.19-1,2.86,2.86,0,0,1-.44-1.63,2.57,2.57,0,0,1,.32-1.37,2.34,2.34,0,0,1,.86-.85,4.24,4.24,0,0,1,1.22-.47,12.08,12.08,0,0,1,1.36-.25l1.44-.17a1.83,1.83,0,0,0,.79-.22.52.52,0,0,0,.25-.5v0a1.72,1.72,0,0,0-.47-1.3,1.94,1.94,0,0,0-1.39-.46,2.33,2.33,0,0,0-2.29,1.37L98.52,377a3.36,3.36,0,0,1,.94-1.45,3.76,3.76,0,0,1,1.42-.8,5.53,5.53,0,0,1,1.69-.25,6.25,6.25,0,0,1,1.25.13,3.81,3.81,0,0,1,1.24.5,2.82,2.82,0,0,1,1,1,3.61,3.61,0,0,1,.37,1.75v6.52h-1.87v-1.34h-.07a2.8,2.8,0,0,1-.56.73,3,3,0,0,1-.95.59A3.64,3.64,0,0,1,101.54,384.61Zm.41-1.54a2.76,2.76,0,0,0,1.36-.31,2.2,2.2,0,0,0,.86-.82,2.11,2.11,0,0,0,.3-1.09v-1.27a.88.88,0,0,1-.39.19,5.38,5.38,0,0,1-.66.15l-.73.11-.59.08a4.39,4.39,0,0,0-1,.24,1.71,1.71,0,0,0-.73.47,1.36,1.36,0,0,0,.26,1.89A2.27,2.27,0,0,0,102,383.07Zm-.07-9.81,1.5-2.94h2l-2,2.94Z"/><path class="cls-3" d="M113.06,384.59a4.5,4.5,0,0,1-2.45-.65,4.23,4.23,0,0,1-1.58-1.79,6.11,6.11,0,0,1-.55-2.62,5.9,5.9,0,0,1,.57-2.65,4.3,4.3,0,0,1,1.58-1.79,4.43,4.43,0,0,1,2.41-.64,4.59,4.59,0,0,1,2,.41,3.62,3.62,0,0,1,1.41,1.15,3.43,3.43,0,0,1,.64,1.73h-1.86a2.22,2.22,0,0,0-.7-1.19,2.08,2.08,0,0,0-1.46-.49,2.4,2.4,0,0,0-1.39.41,2.73,2.73,0,0,0-.93,1.19,4.45,4.45,0,0,0-.34,1.82,4.76,4.76,0,0,0,.33,1.86,2.69,2.69,0,0,0,.92,1.2,2.33,2.33,0,0,0,1.41.43,2.47,2.47,0,0,0,1-.2,2,2,0,0,0,.75-.58,2.19,2.19,0,0,0,.42-.91h1.86a3.53,3.53,0,0,1-2,2.88A4.46,4.46,0,0,1,113.06,384.59Z"/><path class="cls-3" d="M120.11,373.06a1.16,1.16,0,0,1-.85-.34,1.05,1.05,0,0,1-.36-.8,1.09,1.09,0,0,1,.36-.81,1.26,1.26,0,0,1,1.7,0,1.09,1.09,0,0,1,.36.81,1.05,1.05,0,0,1-.36.8A1.16,1.16,0,0,1,120.11,373.06Zm-1,11.33v-9.82h1.91v9.82Z"/><path class="cls-3" d="M389.66,384.39V371.3h4.67a5.18,5.18,0,0,1,2.53.56,3.58,3.58,0,0,1,1.5,1.51,4.59,4.59,0,0,1,.5,2.17,4.69,4.69,0,0,1-.5,2.17,3.63,3.63,0,0,1-1.51,1.52,5.18,5.18,0,0,1-2.53.56h-3.2v-1.68h3a3.24,3.24,0,0,0,1.57-.33,2,2,0,0,0,.88-.92,3,3,0,0,0,.28-1.32,2.94,2.94,0,0,0-.28-1.32,2,2,0,0,0-.88-.9,3.32,3.32,0,0,0-1.59-.33h-2.48v11.4Z"/><path class="cls-3" d="M403.87,384.61a4,4,0,0,1-1.68-.35,2.83,2.83,0,0,1-1.2-1,2.94,2.94,0,0,1-.43-1.63,2.57,2.57,0,0,1,.32-1.37,2.34,2.34,0,0,1,.86-.85,4.29,4.29,0,0,1,1.21-.47,12.69,12.69,0,0,1,1.37-.25l1.43-.17a1.84,1.84,0,0,0,.8-.22.52.52,0,0,0,.25-.5v0a1.75,1.75,0,0,0-.47-1.3,2,2,0,0,0-1.4-.46,2.38,2.38,0,0,0-1.51.43,2.31,2.31,0,0,0-.77.94l-1.79-.41a3.43,3.43,0,0,1,.93-1.45,3.84,3.84,0,0,1,1.42-.8,5.64,5.64,0,0,1,1.7-.25,6.25,6.25,0,0,1,1.25.13,3.81,3.81,0,0,1,1.24.5,2.91,2.91,0,0,1,1,1,3.72,3.72,0,0,1,.37,1.75v6.52h-1.87v-1.34h-.07a2.8,2.8,0,0,1-.56.73,3.07,3.07,0,0,1-1,.59A3.66,3.66,0,0,1,403.87,384.61Zm.42-1.54a2.76,2.76,0,0,0,1.36-.31,2.27,2.27,0,0,0,.86-.82,2.11,2.11,0,0,0,.3-1.09v-1.27a.87.87,0,0,1-.4.19,4.64,4.64,0,0,1-.66.15L405,380l-.59.08a4.27,4.27,0,0,0-1,.24,1.71,1.71,0,0,0-.73.47,1.37,1.37,0,0,0,.25,1.89A2.33,2.33,0,0,0,404.29,383.07Z"/><path class="cls-3" d="M411.26,384.39v-9.82h1.85v1.56h.1a2.43,2.43,0,0,1,1-1.25,2.76,2.76,0,0,1,1.55-.45h.42l.39,0v1.83a3,3,0,0,0-.41-.07,3.92,3.92,0,0,0-.59-.05,2.55,2.55,0,0,0-1.21.29,2.15,2.15,0,0,0-.83.78,2.22,2.22,0,0,0-.31,1.15v6Z"/><path class="cls-3" d="M419.39,388.05a3.71,3.71,0,0,1-.78-.07,2.43,2.43,0,0,1-.53-.14l.46-1.57a2.22,2.22,0,0,0,1.32,0,1.75,1.75,0,0,0,.9-1.14l.24-.65-3.59-9.95h2l2.49,7.62h.1l2.49-7.62,2.06,0-4.06,11.11a4.41,4.41,0,0,1-.71,1.29,2.85,2.85,0,0,1-1,.79A3.35,3.35,0,0,1,419.39,388.05Z"/><path class="cls-3" d="M428.54,384.39V371.3h1.91v4.86h.12a5.56,5.56,0,0,1,.48-.71,2.62,2.62,0,0,1,.87-.7,3.08,3.08,0,0,1,1.46-.3,3.87,3.87,0,0,1,2.13.6,4,4,0,0,1,1.46,1.73,6.25,6.25,0,0,1,.54,2.72,6.48,6.48,0,0,1-.53,2.73,4.13,4.13,0,0,1-1.46,1.74,3.74,3.74,0,0,1-2.12.61,3.13,3.13,0,0,1-1.46-.3,2.75,2.75,0,0,1-.88-.7,4.39,4.39,0,0,1-.49-.72h-.16v1.53Zm1.87-4.91a5.07,5.07,0,0,0,.3,1.82,2.78,2.78,0,0,0,.87,1.22,2.5,2.5,0,0,0,2.83,0,2.87,2.87,0,0,0,.87-1.25,4.9,4.9,0,0,0,.3-1.77,5,5,0,0,0-.29-1.74,2.72,2.72,0,0,0-.87-1.22,2.29,2.29,0,0,0-1.44-.45,2.25,2.25,0,0,0-1.41.43,2.54,2.54,0,0,0-.86,1.19A4.9,4.9,0,0,0,430.41,379.48Z"/><path class="cls-3" d="M440.86,388.05a3.71,3.71,0,0,1-.78-.07,2.43,2.43,0,0,1-.53-.14l.46-1.57a2.22,2.22,0,0,0,1.32,0,1.75,1.75,0,0,0,.9-1.14l.24-.65-3.59-9.95h2l2.49,7.62h.1l2.49-7.62,2.06,0L444,385.7a4.41,4.41,0,0,1-.71,1.29,2.85,2.85,0,0,1-1,.79A3.35,3.35,0,0,1,440.86,388.05Z"/><path class="cls-3" d="M86.88,256.82v14.55H83.8V259.74h-.09l-3.33,2.09v-2.72l3.6-2.29Z"/><path class="cls-3" d="M95.71,271.57a6.87,6.87,0,0,1-2.83-.55,4.69,4.69,0,0,1-1.95-1.52,3.81,3.81,0,0,1-.74-2.24h3.1a1.54,1.54,0,0,0,.35.93,2,2,0,0,0,.86.62,3.16,3.16,0,0,0,1.22.22,3,3,0,0,0,1.24-.24,2.16,2.16,0,0,0,.85-.69,1.8,1.8,0,0,0,.3-1,1.75,1.75,0,0,0-.32-1,2.21,2.21,0,0,0-.92-.71,3.69,3.69,0,0,0-1.43-.25H94.08v-2.26h1.36a3,3,0,0,0,1.23-.24,2,2,0,0,0,.84-.68,1.69,1.69,0,0,0,.3-1,1.73,1.73,0,0,0-1-1.61,2.32,2.32,0,0,0-1.08-.24,2.8,2.8,0,0,0-1.14.23,2.07,2.07,0,0,0-.84.63,1.79,1.79,0,0,0-.33,1h-3a3.87,3.87,0,0,1,.72-2.22,4.68,4.68,0,0,1,1.88-1.5,6.37,6.37,0,0,1,2.67-.54,6,6,0,0,1,2.64.54,4.44,4.44,0,0,1,1.76,1.48,3.6,3.6,0,0,1,.62,2.07,2.85,2.85,0,0,1-.76,2,3.47,3.47,0,0,1-2,1v.11a3.86,3.86,0,0,1,2.44,1.12,3.18,3.18,0,0,1,.84,2.26,3.61,3.61,0,0,1-.72,2.21,4.87,4.87,0,0,1-2,1.52A7.14,7.14,0,0,1,95.71,271.57Z"/><path class="cls-3" d="M108.66,260.32v-.77a3.5,3.5,0,0,1,.38-1.61,3,3,0,0,1,1.08-1.18,3.29,3.29,0,0,1,1.73-.44,3.37,3.37,0,0,1,1.77.44,3,3,0,0,1,1.08,1.18,3.62,3.62,0,0,1,.36,1.61v.77a3.47,3.47,0,0,1-.37,1.61,2.77,2.77,0,0,1-1.08,1.17,3.33,3.33,0,0,1-1.76.44,3.17,3.17,0,0,1-1.74-.45,2.77,2.77,0,0,1-1.08-1.17A3.55,3.55,0,0,1,108.66,260.32Zm.69,11.05,10-14.55h1.86l-10,14.55Zm1.39-11.82v.77a2,2,0,0,0,.25,1,.9.9,0,0,0,.86.44.94.94,0,0,0,.9-.44,1.84,1.84,0,0,0,.23-1v-.77a2,2,0,0,0-.22-1,.92.92,0,0,0-.91-.45.9.9,0,0,0-.87.45A2.2,2.2,0,0,0,110.74,259.55Zm5.38,9.09v-.76a3.6,3.6,0,0,1,.38-1.61,2.88,2.88,0,0,1,1.09-1.18,3.17,3.17,0,0,1,1.74-.44,3.2,3.2,0,0,1,1.75.44,2.77,2.77,0,0,1,1.08,1.17,3.51,3.51,0,0,1,.37,1.62v.76a3.47,3.47,0,0,1-.37,1.61,2.88,2.88,0,0,1-1.09,1.18,3.7,3.7,0,0,1-3.5,0,2.83,2.83,0,0,1-1.07-1.18A3.6,3.6,0,0,1,116.12,268.64Zm2.07-.76v.76a2,2,0,0,0,.25,1,.92.92,0,0,0,.89.44.9.9,0,0,0,.88-.44,2,2,0,0,0,.24-1v-.76a2,2,0,0,0-.23-1,.9.9,0,0,0-.89-.45.92.92,0,0,0-.89.45A2,2,0,0,0,118.19,267.88Z"/><path class="cls-3" d="M485.8,377.85a7.9,7.9,0,0,1-.76,3.6,5.87,5.87,0,0,1-8.16,2.31,5.61,5.61,0,0,1-2.1-2.31,8.82,8.82,0,0,1,0-7.21,5.61,5.61,0,0,1,2.1-2.31,5.73,5.73,0,0,1,8.16,2.31A7.91,7.91,0,0,1,485.8,377.85Zm-1.95,0a6.37,6.37,0,0,0-.52-2.7,3.84,3.84,0,0,0-1.4-1.66,3.86,3.86,0,0,0-4,0,3.84,3.84,0,0,0-1.4,1.66,7.24,7.24,0,0,0,0,5.39,3.84,3.84,0,0,0,1.4,1.66,3.86,3.86,0,0,0,4,0,3.84,3.84,0,0,0,1.4-1.66A6.35,6.35,0,0,0,483.85,377.85Z"/><path class="cls-3" d="M488.26,384.39V371.3h1.91v4.86h.11a5.56,5.56,0,0,1,.48-.71,2.84,2.84,0,0,1,.87-.7,3.09,3.09,0,0,1,1.47-.3,3.81,3.81,0,0,1,2.12.6,3.93,3.93,0,0,1,1.47,1.73,6.25,6.25,0,0,1,.54,2.72,6.48,6.48,0,0,1-.53,2.73,4.13,4.13,0,0,1-1.46,1.74,3.76,3.76,0,0,1-2.12.61,3.13,3.13,0,0,1-1.46-.3,2.65,2.65,0,0,1-.88-.7,5.31,5.31,0,0,1-.5-.72h-.16v1.53Zm1.87-4.91a5.07,5.07,0,0,0,.3,1.82,2.78,2.78,0,0,0,.87,1.22,2.21,2.21,0,0,0,1.39.43,2.29,2.29,0,0,0,1.44-.45,2.87,2.87,0,0,0,.87-1.25,4.9,4.9,0,0,0,.3-1.77,4.74,4.74,0,0,0-.3-1.74,2.58,2.58,0,0,0-.87-1.22,2.51,2.51,0,0,0-2.84,0,2.63,2.63,0,0,0-.87,1.19A5.13,5.13,0,0,0,490.13,379.48Z"/><path class="cls-3" d="M503.5,384.59a4.53,4.53,0,0,1-2.41-.63,4.36,4.36,0,0,1-1.6-1.77,6.52,6.52,0,0,1,0-5.33,4.26,4.26,0,0,1,1.6-1.78,4.92,4.92,0,0,1,4.82,0,4.2,4.2,0,0,1,1.6,1.78,6.52,6.52,0,0,1,0,5.33,4.29,4.29,0,0,1-1.6,1.77A4.51,4.51,0,0,1,503.5,384.59Zm0-1.6a2.27,2.27,0,0,0,1.48-.48,2.75,2.75,0,0,0,.87-1.26,5.31,5.31,0,0,0,0-3.46,2.89,2.89,0,0,0-.87-1.27,2.54,2.54,0,0,0-3,0,2.83,2.83,0,0,0-.88,1.27,5.48,5.48,0,0,0,0,3.46,2.69,2.69,0,0,0,.88,1.26A2.28,2.28,0,0,0,503.51,383Z"/><path class="cls-3" d="M510.21,374.57h1.91V385a3.58,3.58,0,0,1-.36,1.67,2.38,2.38,0,0,1-1.05,1,3.6,3.6,0,0,1-1.72.34h-.37v-1.65h.3a1.18,1.18,0,0,0,1-.37,1.55,1.55,0,0,0,.31-1.05Zm.94-1.51a1.18,1.18,0,0,1-.85-.34,1.05,1.05,0,0,1-.36-.8,1.09,1.09,0,0,1,.36-.81,1.27,1.27,0,0,1,1.71,0,1.11,1.11,0,0,1,.35.81,1.08,1.08,0,0,1-.35.8A1.18,1.18,0,0,1,511.15,373.06Z"/><path class="cls-3" d="M514.48,384.39v-1.31l5.32-6.76v-.08h-5.14v-1.67h7.53V376l-5.12,6.67v.09h5.3v1.66Zm2.56-13.8,1.32,1.71,1.31-1.71h1.73v.1l-2.25,2.71h-1.59l-2.25-2.71v-.1Z"/><path class="cls-3" d="M525.58,373.06a1.16,1.16,0,0,1-.85-.34,1.05,1.05,0,0,1-.36-.8,1.09,1.09,0,0,1,.36-.81,1.26,1.26,0,0,1,1.7,0,1.09,1.09,0,0,1,.36.81,1.05,1.05,0,0,1-.36.8A1.16,1.16,0,0,1,525.58,373.06Zm-1,11.33v-9.82h1.91v9.82Z"/><path class="cls-3" d="M537.49,374.57l-3.56,9.82h-2l-3.57-9.82h2l2.49,7.56h.1l2.48-7.56Z"/><path class="cls-3" d="M543.52,384.59A4.79,4.79,0,0,1,541,384a4.16,4.16,0,0,1-1.61-1.76,6.49,6.49,0,0,1,0-5.32,4.27,4.27,0,0,1,1.58-1.8,4.38,4.38,0,0,1,2.39-.64,4.9,4.9,0,0,1,1.61.27,3.85,3.85,0,0,1,1.4.86,4.16,4.16,0,0,1,1,1.53,6.33,6.33,0,0,1,.35,2.27v.68h-7.8v-1.43h5.93a2.76,2.76,0,0,0-.31-1.34,2.38,2.38,0,0,0-.85-.93,2.49,2.49,0,0,0-1.3-.34,2.42,2.42,0,0,0-1.4.4,2.58,2.58,0,0,0-.92,1,2.91,2.91,0,0,0-.33,1.36v1.12a3.73,3.73,0,0,0,.35,1.68,2.49,2.49,0,0,0,1,1,3.14,3.14,0,0,0,2.45.2,2.07,2.07,0,0,0,.78-.47,2,2,0,0,0,.49-.77l1.81.33a3.18,3.18,0,0,1-.77,1.39,3.82,3.82,0,0,1-1.4.93A5.22,5.22,0,0,1,543.52,384.59Z"/><path class="cls-3" d="M551.77,371.3v13.09h-1.91V371.3Z"/><path class="cls-3" d="M556.25,378.56v5.83h-1.91v-9.82h1.84v1.6h.12a2.8,2.8,0,0,1,1.06-1.25,3.29,3.29,0,0,1,1.84-.47,3.54,3.54,0,0,1,1.75.41,2.78,2.78,0,0,1,1.17,1.25,4.47,4.47,0,0,1,.42,2v6.24h-1.91v-6a2.4,2.4,0,0,0-.56-1.68,2,2,0,0,0-1.53-.6,2.43,2.43,0,0,0-1.18.29,2.05,2.05,0,0,0-.81.84A2.75,2.75,0,0,0,556.25,378.56Z"/><path class="cls-3" d="M565.1,384.39v-9.82H567v9.82Zm.17-11.13,1.5-2.94h2l-2,2.94Z"/><path class="cls-3" d="M573.71,384.59a4.5,4.5,0,0,1-2.45-.65,4.3,4.3,0,0,1-1.58-1.79,6.11,6.11,0,0,1-.55-2.62,5.9,5.9,0,0,1,.57-2.65,4.3,4.3,0,0,1,1.58-1.79,4.43,4.43,0,0,1,2.41-.64,4.59,4.59,0,0,1,2,.41A3.62,3.62,0,0,1,577.1,376a3.53,3.53,0,0,1,.65,1.73h-1.87a2.22,2.22,0,0,0-.7-1.19,2.08,2.08,0,0,0-1.46-.49,2.42,2.42,0,0,0-1.39.41,2.73,2.73,0,0,0-.93,1.19,4.62,4.62,0,0,0-.33,1.82,4.76,4.76,0,0,0,.32,1.86,2.76,2.76,0,0,0,.92,1.2,2.33,2.33,0,0,0,1.41.43,2.4,2.4,0,0,0,1-.2,2,2,0,0,0,.75-.58,2.19,2.19,0,0,0,.42-.91h1.87a3.71,3.71,0,0,1-.62,1.71,3.62,3.62,0,0,1-1.39,1.17A4.46,4.46,0,0,1,573.71,384.59Z"/><path class="cls-3" d="M580.76,373.06a1.16,1.16,0,0,1-.85-.34,1.05,1.05,0,0,1-.36-.8,1.09,1.09,0,0,1,.36-.81,1.19,1.19,0,0,1,.85-.33,1.23,1.23,0,0,1,.86.33,1.11,1.11,0,0,1,.35.81,1.08,1.08,0,0,1-.35.8A1.2,1.2,0,0,1,580.76,373.06Zm-1,11.33v-9.82h1.91v9.82Z"/><path class="cls-3" d="M403.55,177.71a6.87,6.87,0,0,1-2.83-.55,4.82,4.82,0,0,1-2-1.52,3.78,3.78,0,0,1-.74-2.24h3.1a1.58,1.58,0,0,0,.35.93,2.21,2.21,0,0,0,.86.63,3.4,3.4,0,0,0,1.22.22,3,3,0,0,0,1.24-.25,2.16,2.16,0,0,0,.85-.69,1.75,1.75,0,0,0,.3-1,1.7,1.7,0,0,0-.32-1,2.15,2.15,0,0,0-.92-.71,3.66,3.66,0,0,0-1.43-.25h-1.35V169h1.35a2.93,2.93,0,0,0,1.23-.24,2,2,0,0,0,.84-.67,1.72,1.72,0,0,0,.3-1,1.82,1.82,0,0,0-.26-1,1.78,1.78,0,0,0-.73-.65,2.32,2.32,0,0,0-1.08-.24,2.8,2.8,0,0,0-1.14.23,2,2,0,0,0-.83.63,1.72,1.72,0,0,0-.34,1h-2.94a3.79,3.79,0,0,1,.71-2.22,4.77,4.77,0,0,1,1.88-1.5,6.37,6.37,0,0,1,2.67-.54,5.9,5.9,0,0,1,2.64.55,4.34,4.34,0,0,1,1.76,1.47,3.61,3.61,0,0,1,.62,2.08,2.84,2.84,0,0,1-.76,2,3.41,3.41,0,0,1-2,1v.12a3.8,3.8,0,0,1,2.44,1.11,3.15,3.15,0,0,1,.84,2.26,3.6,3.6,0,0,1-.71,2.21,4.9,4.9,0,0,1-2,1.52A7.14,7.14,0,0,1,403.55,177.71Z"/><path class="cls-3" d="M417.69,163v14.54h-3.07V165.89h-.09L411.2,168v-2.73l3.6-2.28Z"/><path class="cls-3" d="M426.29,166.46v-.76a3.52,3.52,0,0,1,.38-1.62,3,3,0,0,1,1.08-1.18,3.29,3.29,0,0,1,1.73-.44,3.37,3.37,0,0,1,1.77.44,3,3,0,0,1,1.08,1.18,3.63,3.63,0,0,1,.36,1.62v.76a3.44,3.44,0,0,1-.37,1.61,2.83,2.83,0,0,1-1.08,1.17,3.35,3.35,0,0,1-1.76.44,3.26,3.26,0,0,1-1.74-.44,2.85,2.85,0,0,1-1.08-1.18A3.55,3.55,0,0,1,426.29,166.46Zm.69,11L437,163h1.86l-10,14.54Zm1.39-11.81v.76a2,2,0,0,0,.25,1,.9.9,0,0,0,.86.44.94.94,0,0,0,.9-.44,1.84,1.84,0,0,0,.23-1v-.76a2,2,0,0,0-.22-1,.93.93,0,0,0-.91-.45.89.89,0,0,0-.87.46A2,2,0,0,0,428.37,165.7Zm5.38,9.09V174a3.63,3.63,0,0,1,.38-1.61,3,3,0,0,1,1.08-1.18,3.31,3.31,0,0,1,1.74-.44,3.22,3.22,0,0,1,1.76.44,2.77,2.77,0,0,1,1.08,1.17,3.51,3.51,0,0,1,.37,1.62v.77a3.66,3.66,0,0,1-.37,1.61,2.92,2.92,0,0,1-1.09,1.17,3.63,3.63,0,0,1-3.5,0,3,3,0,0,1-1.08-1.17A3.8,3.8,0,0,1,433.75,174.79Zm2.07-.77v.77a2,2,0,0,0,.25,1,.9.9,0,0,0,.88.45.92.92,0,0,0,.89-.45,1.94,1.94,0,0,0,.24-1V174a2,2,0,0,0-.23-1,1.12,1.12,0,0,0-1.78,0A2,2,0,0,0,435.82,174Z"/><path class="cls-3" d="M502.24,120v-2.42l6.07-9.57h2.09v3.35h-1.23l-3.83,6.06v.12H514V120Zm7,2.56v-3.3l.06-1.07V108h2.88v14.55Z"/><path class="cls-3" d="M516,122.59v-2.22l5.18-4.79c.44-.43.81-.81,1.11-1.15a4.17,4.17,0,0,0,.68-1,2.4,2.4,0,0,0,.24-1.07,2.07,2.07,0,0,0-.29-1.1,2,2,0,0,0-.8-.72,2.48,2.48,0,0,0-1.14-.25,2.43,2.43,0,0,0-1.17.27,1.88,1.88,0,0,0-.76.77,2.53,2.53,0,0,0-.27,1.2h-2.92a4.67,4.67,0,0,1,.64-2.48,4.34,4.34,0,0,1,1.82-1.62,5.87,5.87,0,0,1,2.68-.58,6.38,6.38,0,0,1,2.72.55,4.34,4.34,0,0,1,1.81,1.53,4,4,0,0,1,.65,2.23,4.19,4.19,0,0,1-.33,1.62,6.54,6.54,0,0,1-1.14,1.78,26.52,26.52,0,0,1-2.33,2.34L520.28,120v.1h6.11v2.52Z"/><path class="cls-3" d="M533.75,111.54v-.77a3.78,3.78,0,0,1,.38-1.62,2.92,2.92,0,0,1,1.09-1.17,3.18,3.18,0,0,1,1.73-.44,3.22,3.22,0,0,1,1.76.44,2.86,2.86,0,0,1,1.09,1.17,3.63,3.63,0,0,1,.36,1.62v.77a3.5,3.5,0,0,1-.37,1.61,2.79,2.79,0,0,1-1.09,1.17,3.29,3.29,0,0,1-1.75.43,3.23,3.23,0,0,1-1.75-.44,2.93,2.93,0,0,1-1.07-1.17A3.59,3.59,0,0,1,533.75,111.54Zm.7,11,10-14.55h1.85l-10,14.55Zm1.39-11.82v.77a1.94,1.94,0,0,0,.24.95,1.09,1.09,0,0,0,1.76,0,1.84,1.84,0,0,0,.24-.95v-.77a2.13,2.13,0,0,0-.22-1,.94.94,0,0,0-.91-.44.9.9,0,0,0-.87.45A2,2,0,0,0,535.84,110.77Zm5.38,9.09v-.77a3.43,3.43,0,0,1,.38-1.6,2.86,2.86,0,0,1,1.08-1.18,3.22,3.22,0,0,1,1.74-.45,3.33,3.33,0,0,1,1.76.44,2.85,2.85,0,0,1,1.08,1.18,3.63,3.63,0,0,1,.37,1.61v.77a3.63,3.63,0,0,1-.37,1.61,2.94,2.94,0,0,1-1.09,1.18,3.7,3.7,0,0,1-3.5,0,2.92,2.92,0,0,1-1.08-1.18A3.63,3.63,0,0,1,541.22,119.86Zm2.07-.77v.77a2,2,0,0,0,.24,1,1.11,1.11,0,0,0,1.78,0,1.84,1.84,0,0,0,.23-1v-.77a2,2,0,0,0-.22-1,1.11,1.11,0,0,0-1.78,0A1.91,1.91,0,0,0,543.29,119.09Z"/><line class="cls-4" x1="63.45" y1="355.13" x2="561.6" y2="355.13"/><path class="cls-3" d="M191.86,374.74a1.88,1.88,0,0,0-.84-1.41,3.32,3.32,0,0,0-1.87-.5,3.45,3.45,0,0,0-1.39.25,2.1,2.1,0,0,0-.91.69,1.6,1.6,0,0,0-.33,1,1.5,1.5,0,0,0,.22.8,1.79,1.79,0,0,0,.59.57,4.2,4.2,0,0,0,.77.37,8,8,0,0,0,.8.25l1.28.33a8.31,8.31,0,0,1,1.28.42,4.74,4.74,0,0,1,1.22.69,3.36,3.36,0,0,1,.92,1.06,3.12,3.12,0,0,1,.34,1.51,3.51,3.51,0,0,1-.57,2,3.87,3.87,0,0,1-1.65,1.36,6.31,6.31,0,0,1-2.62.5,6.41,6.41,0,0,1-2.55-.47,3.7,3.7,0,0,1-2.35-3.37h2a2,2,0,0,0,.47,1.18,2.37,2.37,0,0,0,1,.7,4.15,4.15,0,0,0,1.4.23,3.92,3.92,0,0,0,1.49-.27,2.43,2.43,0,0,0,1-.74,1.76,1.76,0,0,0,.38-1.12,1.39,1.39,0,0,0-.33-.95,2.46,2.46,0,0,0-.89-.61,8.42,8.42,0,0,0-1.26-.43l-1.55-.42a6.08,6.08,0,0,1-2.49-1.26,2.83,2.83,0,0,1-.92-2.2,3.31,3.31,0,0,1,.62-2,4,4,0,0,1,1.66-1.31,5.79,5.79,0,0,1,2.37-.47,5.59,5.59,0,0,1,2.34.47,4,4,0,0,1,1.61,1.28,3.3,3.3,0,0,1,.62,1.87Z"/><path class="cls-3" d="M199,384.61a4,4,0,0,1-1.69-.35,2.8,2.8,0,0,1-1.19-1,2.94,2.94,0,0,1-.44-1.63,2.67,2.67,0,0,1,.32-1.37,2.34,2.34,0,0,1,.86-.85,4.24,4.24,0,0,1,1.22-.47,12.08,12.08,0,0,1,1.36-.25l1.44-.17a1.83,1.83,0,0,0,.79-.22.52.52,0,0,0,.25-.5v0a1.72,1.72,0,0,0-.47-1.3,1.92,1.92,0,0,0-1.39-.46,2.39,2.39,0,0,0-1.52.43,2.28,2.28,0,0,0-.76.94L196,377a3.36,3.36,0,0,1,.94-1.45,3.76,3.76,0,0,1,1.42-.8,5.53,5.53,0,0,1,1.69-.25,6.25,6.25,0,0,1,1.25.13,3.72,3.72,0,0,1,1.24.5,2.82,2.82,0,0,1,.95,1,3.61,3.61,0,0,1,.37,1.75v6.52H202v-1.34h-.08a2.8,2.8,0,0,1-.56.73,2.85,2.85,0,0,1-.95.59A3.64,3.64,0,0,1,199,384.61Zm.41-1.54a2.76,2.76,0,0,0,1.36-.31,2.13,2.13,0,0,0,.86-.82,2.11,2.11,0,0,0,.3-1.09v-1.27a.88.88,0,0,1-.39.19,5.38,5.38,0,0,1-.66.15l-.73.11-.58.08a4.36,4.36,0,0,0-1,.24,1.71,1.71,0,0,0-.73.47,1.36,1.36,0,0,0,.26,1.89A2.29,2.29,0,0,0,199.42,383.07Z"/><path class="cls-3" d="M214.8,374.57l-3.56,9.82h-2.05l-3.57-9.82h2l2.49,7.56h.1l2.48-7.56Z"/><path class="cls-3" d="M220.73,384.59a4.5,4.5,0,0,1-2.45-.65,4.23,4.23,0,0,1-1.58-1.79,6,6,0,0,1-.55-2.62,6,6,0,0,1,.56-2.65,4.24,4.24,0,0,1,4-2.43,4.54,4.54,0,0,1,2,.41,3.58,3.58,0,0,1,1.42,1.15,3.52,3.52,0,0,1,.64,1.73H222.9a2.28,2.28,0,0,0-.7-1.19,2.08,2.08,0,0,0-1.46-.49,2.45,2.45,0,0,0-1.4.41,2.73,2.73,0,0,0-.93,1.19,4.62,4.62,0,0,0-.33,1.82,4.76,4.76,0,0,0,.33,1.86,2.62,2.62,0,0,0,.92,1.2,2.33,2.33,0,0,0,1.41.43,2.47,2.47,0,0,0,1-.2,2.11,2.11,0,0,0,.75-.58,2.19,2.19,0,0,0,.42-.91h1.86a3.53,3.53,0,0,1-2,2.88A4.49,4.49,0,0,1,220.73,384.59Z"/><path class="cls-3" d="M227.78,373.06a1.2,1.2,0,0,1-.86-.34,1.08,1.08,0,0,1-.35-.8,1.11,1.11,0,0,1,.35-.81,1.23,1.23,0,0,1,.86-.33,1.21,1.21,0,0,1,.85.33,1.09,1.09,0,0,1,.36.81,1.05,1.05,0,0,1-.36.8A1.18,1.18,0,0,1,227.78,373.06Zm-1,11.33v-9.82h1.91v9.82Z"/><path class="cls-3" d="M185.17,207.36v-2.21l5.17-4.79c.44-.43.81-.81,1.12-1.16a4.43,4.43,0,0,0,.68-1,2.43,2.43,0,0,0,.24-1.07,2,2,0,0,0-.3-1.1,1.9,1.9,0,0,0-.79-.72,2.52,2.52,0,0,0-1.15-.25,2.39,2.39,0,0,0-1.16.27,1.84,1.84,0,0,0-.77.77,2.53,2.53,0,0,0-.27,1.2H185a4.65,4.65,0,0,1,.65-2.48,4.31,4.31,0,0,1,1.81-1.62,5.92,5.92,0,0,1,2.69-.58,6.23,6.23,0,0,1,2.72.55,4.45,4.45,0,0,1,1.81,1.52,4,4,0,0,1,.64,2.23,4.23,4.23,0,0,1-.32,1.63,6.61,6.61,0,0,1-1.15,1.78,26.2,26.2,0,0,1-2.32,2.34l-2.12,2.08v.1h6.11v2.51Z"/><path class="cls-3" d="M203.08,207.56a6.17,6.17,0,0,1-2.68-.55,4.65,4.65,0,0,1-1.87-1.53,3.92,3.92,0,0,1-.71-2.23h3a1.79,1.79,0,0,0,.71,1.37,2.44,2.44,0,0,0,1.57.53,2.56,2.56,0,0,0,1.28-.32,2.31,2.31,0,0,0,.87-.91,2.73,2.73,0,0,0,.32-1.33,2.81,2.81,0,0,0-.32-1.35,2.43,2.43,0,0,0-.89-.91A2.67,2.67,0,0,0,203,200a3.13,3.13,0,0,0-1.24.26,2.39,2.39,0,0,0-.94.72l-2.73-.49.69-7.67h8.89v2.51h-6.36L201,199h.08a2.86,2.86,0,0,1,1.16-.9,4.21,4.21,0,0,1,1.73-.35,4.41,4.41,0,0,1,2.35.62,4.46,4.46,0,0,1,1.62,1.69,5.4,5.4,0,0,1-.09,5.08,4.72,4.72,0,0,1-1.91,1.79A5.87,5.87,0,0,1,203.08,207.56Z"/><path class="cls-3" d="M215.79,196.31v-.76a3.65,3.65,0,0,1,.38-1.62,2.86,2.86,0,0,1,1.09-1.17,3.16,3.16,0,0,1,1.73-.44,3.22,3.22,0,0,1,1.76.44,2.77,2.77,0,0,1,1.08,1.17,3.51,3.51,0,0,1,.37,1.62v.76a3.64,3.64,0,0,1-.37,1.62,2.89,2.89,0,0,1-1.09,1.16,3.23,3.23,0,0,1-1.75.44,3.29,3.29,0,0,1-1.75-.44,3,3,0,0,1-1.08-1.17A3.73,3.73,0,0,1,215.79,196.31Zm.7,11.05,10-14.54h1.85l-10,14.54Zm1.38-11.81v.76a2.08,2.08,0,0,0,.25,1,.89.89,0,0,0,.87.44.91.91,0,0,0,.89-.44,2,2,0,0,0,.24-1v-.76a2,2,0,0,0-.23-1,.91.91,0,0,0-.9-.45.89.89,0,0,0-.87.46A2.14,2.14,0,0,0,217.87,195.55Zm5.39,9.09v-.77a3.5,3.5,0,0,1,.38-1.61,2.92,2.92,0,0,1,1.08-1.18,3.26,3.26,0,0,1,1.74-.44,3.33,3.33,0,0,1,1.76.44,2.9,2.9,0,0,1,1.08,1.17,3.63,3.63,0,0,1,.36,1.62v.77a3.5,3.5,0,0,1-.37,1.61,2.92,2.92,0,0,1-1.08,1.18,3.32,3.32,0,0,1-1.75.44,3.27,3.27,0,0,1-1.75-.44,2.85,2.85,0,0,1-1.08-1.18A3.5,3.5,0,0,1,223.26,204.64Zm2.06-.77v.77a2.14,2.14,0,0,0,.25,1,.92.92,0,0,0,.89.45.93.93,0,0,0,.89-.44,1.89,1.89,0,0,0,.23-1v-.77a2,2,0,0,0-.22-1,.94.94,0,0,0-.9-.44.91.91,0,0,0-.88.44A2.07,2.07,0,0,0,225.32,203.87Z"/><path class="cls-3" d="M293.64,384.39V371.3h4.67a5.18,5.18,0,0,1,2.53.56,3.58,3.58,0,0,1,1.5,1.51,5,5,0,0,1,0,4.34,3.68,3.68,0,0,1-1.51,1.52,5.2,5.2,0,0,1-2.53.56h-3.21v-1.68h3a3.27,3.27,0,0,0,1.57-.33,2.06,2.06,0,0,0,.88-.92,3,3,0,0,0,.28-1.32,2.94,2.94,0,0,0-.28-1.32,2,2,0,0,0-.89-.9,3.28,3.28,0,0,0-1.58-.33h-2.48v11.4Z"/><path class="cls-3" d="M306.9,371.3v13.09H305V371.3Z"/><path class="cls-3" d="M312.33,384.61a4.05,4.05,0,0,1-1.69-.35,2.8,2.8,0,0,1-1.19-1,2.94,2.94,0,0,1-.44-1.63,2.67,2.67,0,0,1,.32-1.37,2.36,2.36,0,0,1,.87-.85,4.18,4.18,0,0,1,1.21-.47,12.26,12.26,0,0,1,1.37-.25l1.43-.17a1.88,1.88,0,0,0,.8-.22.54.54,0,0,0,.25-.5v0a1.75,1.75,0,0,0-.47-1.3,2,2,0,0,0-1.4-.46,2.41,2.41,0,0,0-1.52.43,2.28,2.28,0,0,0-.76.94l-1.8-.41a3.55,3.55,0,0,1,.94-1.45,3.76,3.76,0,0,1,1.42-.8,5.59,5.59,0,0,1,1.7-.25,6.32,6.32,0,0,1,1.25.13,3.81,3.81,0,0,1,1.24.5,2.8,2.8,0,0,1,.94,1,3.6,3.6,0,0,1,.38,1.75v6.52h-1.87v-1.34h-.08a2.75,2.75,0,0,1-.55.73,3,3,0,0,1-1,.59A3.6,3.6,0,0,1,312.33,384.61Zm.42-1.54a2.72,2.72,0,0,0,1.35-.31,2.22,2.22,0,0,0,.87-.82,2.1,2.1,0,0,0,.29-1.09v-1.27a.77.77,0,0,1-.39.19,4.64,4.64,0,0,1-.66.15l-.72.11-.59.08a4.27,4.27,0,0,0-1,.24,1.65,1.65,0,0,0-.73.47,1.37,1.37,0,0,0,.25,1.89A2.33,2.33,0,0,0,312.75,383.07Z"/><path class="cls-3" d="M319.51,384.39v-1.31l5.32-6.76v-.08h-5.14v-1.67h7.53V376l-5.12,6.67v.09h5.3v1.66Z"/><path class="cls-3" d="M330.61,373.06a1.16,1.16,0,0,1-.85-.34,1.05,1.05,0,0,1-.36-.8,1.09,1.09,0,0,1,.36-.81,1.26,1.26,0,0,1,1.7,0,1.09,1.09,0,0,1,.36.81,1.05,1.05,0,0,1-.36.8A1.16,1.16,0,0,1,330.61,373.06Zm-1,11.33v-9.82h1.91v9.82Z"/><path class="cls-3" d="M298.62,227.5V242h-3.07V230.42h-.09l-3.33,2.09v-2.73l3.6-2.28Z"/><path class="cls-3" d="M307.34,227.26a6.39,6.39,0,0,1,2.17.37,5,5,0,0,1,1.86,1.2,6,6,0,0,1,1.3,2.2,10.27,10.27,0,0,1,.48,3.37,11.91,11.91,0,0,1-.42,3.3,7.38,7.38,0,0,1-1.19,2.47,5.16,5.16,0,0,1-1.86,1.54,5.43,5.43,0,0,1-2.44.53,5.56,5.56,0,0,1-2.57-.56,4.75,4.75,0,0,1-1.8-1.54,4.86,4.86,0,0,1-.82-2.2h3a2,2,0,0,0,.74,1.23,2.26,2.26,0,0,0,1.41.44,2.38,2.38,0,0,0,2.16-1.24,6.67,6.67,0,0,0,.74-3.4H310a3.48,3.48,0,0,1-.88,1.1,4.25,4.25,0,0,1-1.27.71,4.68,4.68,0,0,1-1.51.24,4.41,4.41,0,0,1-2.3-.6,4.26,4.26,0,0,1-1.59-1.67,4.9,4.9,0,0,1-.58-2.42,5,5,0,0,1,.68-2.63,4.78,4.78,0,0,1,1.9-1.8A5.93,5.93,0,0,1,307.34,227.26Zm0,2.41a2.38,2.38,0,0,0-2.15,1.27,2.56,2.56,0,0,0-.32,1.3,2.63,2.63,0,0,0,.31,1.3,2.34,2.34,0,0,0,2.14,1.25,2.29,2.29,0,0,0,1-.2,2.4,2.4,0,0,0,.79-.55,2.64,2.64,0,0,0,.53-.81,3,3,0,0,0,.2-1,2.81,2.81,0,0,0-.33-1.29,2.5,2.5,0,0,0-.88-.92A2.4,2.4,0,0,0,307.36,229.67Z"/><path class="cls-3" d="M320.42,231v-.76a3.52,3.52,0,0,1,.38-1.62,2.9,2.9,0,0,1,1.08-1.17,3.21,3.21,0,0,1,1.73-.45,3.25,3.25,0,0,1,1.77.45,2.83,2.83,0,0,1,1.08,1.17,3.63,3.63,0,0,1,.36,1.62V231a3.63,3.63,0,0,1-.36,1.62,2.89,2.89,0,0,1-1.09,1.16,3.7,3.7,0,0,1-3.5,0,3,3,0,0,1-1.08-1.17A3.6,3.6,0,0,1,320.42,231Zm.69,11,10-14.54H333L323,242Zm1.39-11.81V231a2,2,0,0,0,.25,1,.88.88,0,0,0,.86.44.92.92,0,0,0,.9-.44,1.84,1.84,0,0,0,.23-1v-.76a2,2,0,0,0-.22-1,.92.92,0,0,0-.91-.45.89.89,0,0,0-.87.46A2.13,2.13,0,0,0,322.5,230.23Zm5.38,9.09v-.77a3.63,3.63,0,0,1,.38-1.61,2.94,2.94,0,0,1,1.09-1.18,3.26,3.26,0,0,1,1.74-.44,3.29,3.29,0,0,1,1.75.44,2.77,2.77,0,0,1,1.08,1.17,3.51,3.51,0,0,1,.37,1.62v.77a3.5,3.5,0,0,1-.37,1.61,2.94,2.94,0,0,1-1.09,1.18,3.7,3.7,0,0,1-3.5,0,2.89,2.89,0,0,1-1.07-1.18A3.63,3.63,0,0,1,327.88,239.32Zm2.07-.77v.77a2,2,0,0,0,.25,1,1.1,1.1,0,0,0,1.77,0,2,2,0,0,0,.24-1v-.77a2,2,0,0,0-.23-1,.91.91,0,0,0-.89-.44.94.94,0,0,0-.89.44A2,2,0,0,0,330,238.55Z"/><path d="M120.16,100.91V99.45l7.65-11.2h-7.72V86.36h10.4v1.47L122.84,99h7.72v1.89Z"/><path d="M137.84,101.13a5.32,5.32,0,0,1-2.77-.69,4.63,4.63,0,0,1-1.79-2,6.55,6.55,0,0,1-.63-3,6.64,6.64,0,0,1,.63-3,4.71,4.71,0,0,1,4.41-2.71,5.38,5.38,0,0,1,1.79.3,4.52,4.52,0,0,1,1.56,1,4.58,4.58,0,0,1,1.09,1.7,7.17,7.17,0,0,1,.39,2.52v.76h-8.67V94.5h6.59A3.11,3.11,0,0,0,140.1,93a2.63,2.63,0,0,0-.95-1,2.71,2.71,0,0,0-1.44-.38,2.77,2.77,0,0,0-1.56.44,2.87,2.87,0,0,0-1,1.14,3.23,3.23,0,0,0-.36,1.51V96a4.19,4.19,0,0,0,.38,1.86A2.75,2.75,0,0,0,136.24,99a3.24,3.24,0,0,0,1.62.4,3.17,3.17,0,0,0,1.1-.18,2.28,2.28,0,0,0,1.42-1.38l2,.36a3.6,3.6,0,0,1-.87,1.56,4.25,4.25,0,0,1-1.55,1A5.87,5.87,0,0,1,137.84,101.13Z"/><path d="M159.52,90l-4,10.91h-2.27l-4-10.91h2.28l2.76,8.4h.11l2.76-8.4Z"/><path d="M169.69,92.66l-1.93.35a2.23,2.23,0,0,0-.38-.71,1.85,1.85,0,0,0-.7-.54,2.4,2.4,0,0,0-1.1-.22,2.7,2.7,0,0,0-1.5.4,1.23,1.23,0,0,0-.61,1,1.09,1.09,0,0,0,.41.88,3.32,3.32,0,0,0,1.31.54l1.73.4a4.56,4.56,0,0,1,2.24,1.08,2.49,2.49,0,0,1,.74,1.88,2.89,2.89,0,0,1-.56,1.74,3.77,3.77,0,0,1-1.57,1.2,5.84,5.84,0,0,1-2.33.43,5.25,5.25,0,0,1-3-.78A3.33,3.33,0,0,1,161,98.11l2.05-.31a2,2,0,0,0,.79,1.21,2.74,2.74,0,0,0,1.56.41A2.89,2.89,0,0,0,167.1,99a1.29,1.29,0,0,0,.62-1.07,1.15,1.15,0,0,0-.38-.86,2.56,2.56,0,0,0-1.16-.52l-1.85-.41a4.44,4.44,0,0,1-2.25-1.1,2.66,2.66,0,0,1-.73-1.93,2.75,2.75,0,0,1,.54-1.69,3.58,3.58,0,0,1,1.49-1.13,5.54,5.54,0,0,1,2.18-.41,4.55,4.55,0,0,1,2.79.76A3.63,3.63,0,0,1,169.69,92.66Zm-5.56-7.08,1.46,1.9,1.46-1.9H169v.1l-2.5,3H164.7l-2.49-3v-.1Z"/><path d="M176.93,101.13a5.32,5.32,0,0,1-2.77-.69,4.63,4.63,0,0,1-1.79-2,6.55,6.55,0,0,1-.63-3,6.64,6.64,0,0,1,.63-3,4.71,4.71,0,0,1,4.41-2.71,5.38,5.38,0,0,1,1.79.3,4.52,4.52,0,0,1,1.56,1,4.58,4.58,0,0,1,1.09,1.7,7.17,7.17,0,0,1,.39,2.52v.76h-8.67V94.5h6.59a3.11,3.11,0,0,0-.34-1.48,2.56,2.56,0,0,0-.95-1,2.71,2.71,0,0,0-1.44-.38,2.77,2.77,0,0,0-1.56.44,3,3,0,0,0-1,1.14,3.23,3.23,0,0,0-.36,1.51V96a4.06,4.06,0,0,0,.39,1.86A2.67,2.67,0,0,0,175.33,99a3.24,3.24,0,0,0,1.62.4,3.17,3.17,0,0,0,1.1-.18,2.28,2.28,0,0,0,1.42-1.38l2,.36a3.68,3.68,0,0,1-.86,1.56,4.38,4.38,0,0,1-1.56,1A5.87,5.87,0,0,1,176.93,101.13Z"/><path d="M188.57,101.13a5,5,0,0,1-2.72-.72,4.71,4.71,0,0,1-1.75-2,6.62,6.62,0,0,1-.61-2.91,6.69,6.69,0,0,1,.62-2.94,4.74,4.74,0,0,1,4.44-2.71,5.09,5.09,0,0,1,2.22.46,4,4,0,0,1,1.57,1.28,3.82,3.82,0,0,1,.71,1.92H191a2.44,2.44,0,0,0-.78-1.32,2.31,2.31,0,0,0-1.62-.55,2.63,2.63,0,0,0-1.55.46,3,3,0,0,0-1,1.33,5.81,5.81,0,0,0,0,4.08,3.1,3.1,0,0,0,1,1.34,2.6,2.6,0,0,0,1.57.47,2.56,2.56,0,0,0,1.09-.22,2.3,2.3,0,0,0,.84-.64,2.55,2.55,0,0,0,.47-1h2.06a3.88,3.88,0,0,1-2.22,3.19A5,5,0,0,1,188.57,101.13Z"/><path d="M197.46,94.43v6.48h-2.12V86.36h2.09v5.42h.13a3.11,3.11,0,0,1,1.18-1.4,3.64,3.64,0,0,1,2.06-.52,4,4,0,0,1,2,.46,3.18,3.18,0,0,1,1.31,1.38,4.93,4.93,0,0,1,.46,2.27v6.94h-2.12V94.23a2.67,2.67,0,0,0-.62-1.87,2.23,2.23,0,0,0-1.72-.66,2.79,2.79,0,0,0-1.34.32,2.2,2.2,0,0,0-.93.93A3,3,0,0,0,197.46,94.43Z"/><path d="M220.85,92.66l-1.93.35a2.45,2.45,0,0,0-.38-.71,1.85,1.85,0,0,0-.7-.54,2.4,2.4,0,0,0-1.1-.22,2.7,2.7,0,0,0-1.5.4,1.21,1.21,0,0,0-.61,1,1.09,1.09,0,0,0,.41.88,3.26,3.26,0,0,0,1.3.54l1.74.4a4.56,4.56,0,0,1,2.24,1.08,2.52,2.52,0,0,1,.74,1.88,2.89,2.89,0,0,1-.56,1.74,3.8,3.8,0,0,1-1.58,1.2,5.79,5.79,0,0,1-2.32.43,5.25,5.25,0,0,1-3-.78,3.3,3.3,0,0,1-1.42-2.24l2.05-.31A2,2,0,0,0,215,99a2.74,2.74,0,0,0,1.56.41,2.84,2.84,0,0,0,1.66-.44,1.28,1.28,0,0,0,.63-1.07,1.15,1.15,0,0,0-.38-.86,2.56,2.56,0,0,0-1.16-.52l-1.85-.41a4.4,4.4,0,0,1-2.25-1.1,2.66,2.66,0,0,1-.73-1.93,2.75,2.75,0,0,1,.54-1.69,3.58,3.58,0,0,1,1.49-1.13,5.5,5.5,0,0,1,2.18-.41,4.5,4.5,0,0,1,2.78.76A3.6,3.6,0,0,1,220.85,92.66Z"/><path d="M226.56,101.15a4.53,4.53,0,0,1-1.87-.38,3.19,3.19,0,0,1-1.33-1.13,3.26,3.26,0,0,1-.48-1.81,3,3,0,0,1,.35-1.52,2.73,2.73,0,0,1,1-1,5.06,5.06,0,0,1,1.35-.52,12.71,12.71,0,0,1,1.52-.27l1.59-.19a2.42,2.42,0,0,0,.89-.24.62.62,0,0,0,.28-.56v0a1.92,1.92,0,0,0-.53-1.44,2.11,2.11,0,0,0-1.55-.51,2.71,2.71,0,0,0-1.68.47,2.51,2.51,0,0,0-.85,1l-2-.46a4,4,0,0,1,1-1.61,4.49,4.49,0,0,1,1.58-.89,6.2,6.2,0,0,1,1.88-.28,6.94,6.94,0,0,1,1.39.15,4.14,4.14,0,0,1,1.38.56,3.11,3.11,0,0,1,1.06,1.15,4.09,4.09,0,0,1,.41,2v7.24h-2.08V99.42h-.08a3.37,3.37,0,0,1-.62.81,3.43,3.43,0,0,1-1.06.66A4,4,0,0,1,226.56,101.15Zm.46-1.7a3.06,3.06,0,0,0,1.51-.35,2.48,2.48,0,0,0,1-.91,2.37,2.37,0,0,0,.33-1.21V95.57a.94.94,0,0,1-.43.21,5.92,5.92,0,0,1-.74.16l-.8.12-.65.09a5.21,5.21,0,0,0-1.13.26,2,2,0,0,0-.81.53,1.53,1.53,0,0,0,.28,2.11A2.61,2.61,0,0,0,227,99.45Z"/><path d="M244.11,90l-4,10.91h-2.27l-4-10.91h2.28L239,98.4h.11l2.76-8.4Z"/><path d="M250.7,101.13a5,5,0,0,1-2.73-.72,4.71,4.71,0,0,1-1.75-2,7.21,7.21,0,0,1,0-5.85,4.73,4.73,0,0,1,1.76-2,4.87,4.87,0,0,1,2.67-.72,5.09,5.09,0,0,1,2.22.46,3.91,3.91,0,0,1,2.29,3.2h-2.07a2.44,2.44,0,0,0-.78-1.32,2.29,2.29,0,0,0-1.62-.55,2.63,2.63,0,0,0-1.55.46,3,3,0,0,0-1,1.33,5,5,0,0,0-.37,2,5.38,5.38,0,0,0,.36,2.06,3.1,3.1,0,0,0,1,1.34,2.86,2.86,0,0,0,2.67.25,2.26,2.26,0,0,0,.83-.64,2.55,2.55,0,0,0,.47-1h2.07a4.15,4.15,0,0,1-.69,1.89,3.92,3.92,0,0,1-1.54,1.3A5,5,0,0,1,250.7,101.13Z"/><path d="M264.37,96.39V90h2.13v10.91h-2.09V99h-.11a3.31,3.31,0,0,1-1.21,1.45,3.45,3.45,0,0,1-2,.58,3.67,3.67,0,0,1-1.86-.46,3.14,3.14,0,0,1-1.26-1.38,5,5,0,0,1-.46-2.27V90h2.12v6.69a2.5,2.5,0,0,0,.62,1.77,2.1,2.1,0,0,0,1.6.66,2.59,2.59,0,0,0,1.19-.3,2.51,2.51,0,0,0,1-.9A2.76,2.76,0,0,0,264.37,96.39ZM262,88.79a2.62,2.62,0,0,1-1.29-.31,2.43,2.43,0,0,1-.91-.86,2.19,2.19,0,0,1-.34-1.21,2.28,2.28,0,0,1,.34-1.23,2.6,2.6,0,0,1,3.47-.89,2.48,2.48,0,0,1,.9.89,2.36,2.36,0,0,1,.33,1.23,2.27,2.27,0,0,1-.33,1.21,2.4,2.4,0,0,1-.9.86A2.6,2.6,0,0,1,262,88.79Zm0-1.13a1.25,1.25,0,0,0,.91-.39,1.21,1.21,0,0,0,.36-.86,1.28,1.28,0,0,0-.36-.89,1.25,1.25,0,0,0-1.83,0,1.28,1.28,0,0,0-.36.89,1.21,1.21,0,0,0,.36.86A1.19,1.19,0,0,0,262,87.66Z"/><path d="M276.77,94.43v6.48h-2.12V90h2v1.78h.14A3.06,3.06,0,0,1,278,90.39a3.6,3.6,0,0,1,2-.53,4,4,0,0,1,1.95.46,3.24,3.24,0,0,1,1.3,1.39,5,5,0,0,1,.46,2.26v6.94h-2.12V94.23a2.66,2.66,0,0,0-.62-1.86,2.19,2.19,0,0,0-1.7-.67A2.67,2.67,0,0,0,278,92a2.24,2.24,0,0,0-.9.93A3.11,3.11,0,0,0,276.77,94.43Z"/><path d="M289.77,101.15a4.57,4.57,0,0,1-1.88-.38,3.1,3.1,0,0,1-1.32-1.13,3.18,3.18,0,0,1-.49-1.81,2.9,2.9,0,0,1,.36-1.52,2.62,2.62,0,0,1,.95-1,5.33,5.33,0,0,1,1.35-.52,13.07,13.07,0,0,1,1.52-.27l1.59-.19a2.36,2.36,0,0,0,.89-.24.6.6,0,0,0,.28-.56v0a2,2,0,0,0-.52-1.44,2.15,2.15,0,0,0-1.55-.51,2.74,2.74,0,0,0-1.69.47,2.59,2.59,0,0,0-.85,1l-2-.46a4,4,0,0,1,1-1.61,4.45,4.45,0,0,1,1.59-.89,6.11,6.11,0,0,1,1.88-.28,7,7,0,0,1,1.39.15,4.09,4.09,0,0,1,1.37.56,3.11,3.11,0,0,1,1.06,1.15,4.09,4.09,0,0,1,.41,2v7.24h-2.07V99.42H293a3.13,3.13,0,0,1-.62.81,3.31,3.31,0,0,1-1.06.66A4,4,0,0,1,289.77,101.15Zm.46-1.7a3.09,3.09,0,0,0,1.51-.35,2.48,2.48,0,0,0,1-.91A2.37,2.37,0,0,0,293,97V95.57a1.05,1.05,0,0,1-.44.21,5.92,5.92,0,0,1-.74.16l-.8.12-.65.09a5.35,5.35,0,0,0-1.13.26,2,2,0,0,0-.81.53,1.36,1.36,0,0,0-.3.92,1.38,1.38,0,0,0,.58,1.19A2.64,2.64,0,0,0,290.23,99.45Z"/><path d="M303.07,100.91V99.45l7.65-11.2H303V86.36h10.4v1.47L305.75,99h7.72v1.89Z"/><path d="M320.75,101.13a5.32,5.32,0,0,1-2.77-.69,4.63,4.63,0,0,1-1.79-2,6.55,6.55,0,0,1-.63-3,6.64,6.64,0,0,1,.63-3,4.71,4.71,0,0,1,4.41-2.71,5.38,5.38,0,0,1,1.79.3,4.52,4.52,0,0,1,1.56,1,4.58,4.58,0,0,1,1.09,1.7,7.17,7.17,0,0,1,.39,2.52v.76h-8.67V94.5h6.59A3.11,3.11,0,0,0,323,93a2.63,2.63,0,0,0-.95-1,2.71,2.71,0,0,0-1.44-.38,2.77,2.77,0,0,0-1.56.44,2.87,2.87,0,0,0-1,1.14,3.23,3.23,0,0,0-.36,1.51V96a4.19,4.19,0,0,0,.38,1.86A2.75,2.75,0,0,0,319.15,99a3.24,3.24,0,0,0,1.62.4,3.17,3.17,0,0,0,1.1-.18,2.28,2.28,0,0,0,1.42-1.38l2,.36a3.6,3.6,0,0,1-.87,1.56,4.25,4.25,0,0,1-1.55,1A5.87,5.87,0,0,1,320.75,101.13Z"/><path d="M327.8,100.91V90h2v1.78H330a2.85,2.85,0,0,1,1.12-1.41,3.27,3.27,0,0,1,1.85-.51,3.19,3.19,0,0,1,1.84.51,3,3,0,0,1,1.09,1.41H336a3.1,3.1,0,0,1,1.24-1.4,3.79,3.79,0,0,1,2-.52,3.32,3.32,0,0,1,2.43.93,3.83,3.83,0,0,1,.94,2.81v7.31H340.5V93.79a2,2,0,0,0-.6-1.6,2.19,2.19,0,0,0-1.44-.5,2,2,0,0,0-1.61.64,2.29,2.29,0,0,0-.58,1.63v7h-2.12V93.66a1.91,1.91,0,0,0-.55-1.43,2,2,0,0,0-1.44-.54,2.08,2.08,0,0,0-1.11.32,2.32,2.32,0,0,0-.82.88,2.58,2.58,0,0,0-.31,1.3v6.72Z"/><path d="M346.54,88.32a1.38,1.38,0,0,1-1-.37,1.2,1.2,0,0,1-.39-.9,1.17,1.17,0,0,1,.39-.89,1.35,1.35,0,0,1,1-.38,1.33,1.33,0,0,1,.95.38,1.17,1.17,0,0,1,.39.89,1.2,1.2,0,0,1-.39.9A1.36,1.36,0,0,1,346.54,88.32Zm-1.07,12.59V90h2.12v10.91Z"/><path d="M355.75,90h2.12v11.61a3.89,3.89,0,0,1-.4,1.85,2.56,2.56,0,0,1-1.17,1.15,4.07,4.07,0,0,1-1.91.38H354v-1.84h.34a1.35,1.35,0,0,0,1.09-.4,1.81,1.81,0,0,0,.34-1.17Zm1.05-1.68a1.36,1.36,0,0,1-.95-.37,1.21,1.21,0,0,1-.4-.9,1.18,1.18,0,0,1,.4-.89,1.33,1.33,0,0,1,.95-.38,1.31,1.31,0,0,1,.94.38,1.14,1.14,0,0,1,.4.89,1.18,1.18,0,0,1-.4.9A1.34,1.34,0,0,1,356.8,88.32Z"/><path d="M365.42,101.13a5.35,5.35,0,0,1-2.77-.69,4.63,4.63,0,0,1-1.79-2,6.55,6.55,0,0,1-.63-3,6.64,6.64,0,0,1,.63-3,4.71,4.71,0,0,1,4.42-2.71,5.47,5.47,0,0,1,1.79.3,4.34,4.34,0,0,1,2.64,2.66,7.16,7.16,0,0,1,.4,2.52v.76h-8.68V94.5H368a3.11,3.11,0,0,0-.34-1.48,2.49,2.49,0,0,0-.95-1,2.71,2.71,0,0,0-1.44-.38,2.77,2.77,0,0,0-1.56.44,3,3,0,0,0-1,1.14,3.23,3.23,0,0,0-.36,1.51V96a4.06,4.06,0,0,0,.39,1.86A2.79,2.79,0,0,0,363.82,99a3.28,3.28,0,0,0,1.63.4,3.21,3.21,0,0,0,1.1-.18,2.28,2.28,0,0,0,.86-.52,2.31,2.31,0,0,0,.55-.86l2,.36a3.68,3.68,0,0,1-.86,1.56,4.38,4.38,0,0,1-1.56,1A5.87,5.87,0,0,1,365.42,101.13Z"/><path d="M124.45,125.12a4.23,4.23,0,0,1-2.36-.67,4.65,4.65,0,0,1-1.62-1.94,8.14,8.14,0,0,1,0-6.06,4.49,4.49,0,0,1,1.63-1.92,4.22,4.22,0,0,1,2.35-.67,3.39,3.39,0,0,1,1.64.34,3,3,0,0,1,1,.78,6.8,6.8,0,0,1,.53.79h.13v-5.41h2.12v14.55h-2.07v-1.7h-.18a5.51,5.51,0,0,1-.55.8,3.13,3.13,0,0,1-1,.78A3.48,3.48,0,0,1,124.45,125.12Zm.47-1.81a2.49,2.49,0,0,0,1.55-.48,3.06,3.06,0,0,0,1-1.36,5.61,5.61,0,0,0,.33-2,5.5,5.5,0,0,0-.32-2,3,3,0,0,0-1-1.33,2.5,2.5,0,0,0-1.56-.48,2.55,2.55,0,0,0-1.6.5,2.91,2.91,0,0,0-1,1.36,5.37,5.37,0,0,0-.33,1.94,5.48,5.48,0,0,0,.33,2,3.09,3.09,0,0,0,1,1.39A2.54,2.54,0,0,0,124.92,123.31Z"/><path d="M135,118.43v6.48h-2.12V114h2v1.78h.13a3.13,3.13,0,0,1,1.18-1.39,3.6,3.6,0,0,1,2-.53,4,4,0,0,1,1.95.46,3.24,3.24,0,0,1,1.3,1.39A5,5,0,0,1,142,118v6.94h-2.12v-6.68a2.66,2.66,0,0,0-.62-1.86,2.19,2.19,0,0,0-1.7-.67,2.67,2.67,0,0,0-1.31.32,2.24,2.24,0,0,0-.9.93A3.11,3.11,0,0,0,135,118.43Z"/><path d="M149.53,125.13a5.36,5.36,0,0,1-2.78-.69,4.63,4.63,0,0,1-1.79-2,6.55,6.55,0,0,1-.63-3,6.64,6.64,0,0,1,.63-3,4.71,4.71,0,0,1,4.42-2.71,5.47,5.47,0,0,1,1.79.3,4.34,4.34,0,0,1,2.64,2.66,7.16,7.16,0,0,1,.4,2.52v.76h-8.68v-1.6h6.6a3.11,3.11,0,0,0-.35-1.48,2.49,2.49,0,0,0-.95-1,2.71,2.71,0,0,0-1.44-.38,2.77,2.77,0,0,0-1.56.44,3,3,0,0,0-1,1.14,3.23,3.23,0,0,0-.36,1.51V120a4.06,4.06,0,0,0,.39,1.86,2.79,2.79,0,0,0,1.08,1.17,3.28,3.28,0,0,0,1.63.4,3.21,3.21,0,0,0,1.1-.18,2.28,2.28,0,0,0,.86-.52,2.31,2.31,0,0,0,.55-.86l2,.36a3.68,3.68,0,0,1-.86,1.56,4.3,4.3,0,0,1-1.56,1A5.85,5.85,0,0,1,149.53,125.13Z"/><path d="M164.75,116.66l-1.93.35a2.45,2.45,0,0,0-.38-.71,1.85,1.85,0,0,0-.7-.54,2.4,2.4,0,0,0-1.1-.22,2.76,2.76,0,0,0-1.51.4,1.22,1.22,0,0,0-.6,1,1.09,1.09,0,0,0,.41.88,3.26,3.26,0,0,0,1.3.54l1.74.4a4.56,4.56,0,0,1,2.24,1.08,2.52,2.52,0,0,1,.74,1.88,2.84,2.84,0,0,1-.57,1.74,3.71,3.71,0,0,1-1.57,1.2,5.79,5.79,0,0,1-2.32.43,5.25,5.25,0,0,1-3-.78,3.3,3.3,0,0,1-1.42-2.24l2-.31a2,2,0,0,0,.79,1.21,2.73,2.73,0,0,0,1.55.41,2.85,2.85,0,0,0,1.67-.44,1.28,1.28,0,0,0,.63-1.07,1.15,1.15,0,0,0-.38-.86,2.56,2.56,0,0,0-1.16-.52l-1.85-.41a4.4,4.4,0,0,1-2.25-1.1,2.66,2.66,0,0,1-.73-1.93,2.75,2.75,0,0,1,.54-1.69,3.52,3.52,0,0,1,1.49-1.13,5.5,5.5,0,0,1,2.18-.41,4.5,4.5,0,0,1,2.78.76A3.6,3.6,0,0,1,164.75,116.66Z"/><path d="M181.92,114l-4,10.91h-2.27l-4-10.91H174l2.76,8.4h.11l2.76-8.4Z"/><path d="M185.26,129a4.65,4.65,0,0,1-.87-.07,2.67,2.67,0,0,1-.58-.16l.51-1.74a2.56,2.56,0,0,0,1.47,0,2,2,0,0,0,1-1.26l.27-.73-4-11h2.27l2.76,8.47h.12L191,114l2.29,0-4.51,12.35a4.82,4.82,0,0,1-.79,1.42,3.28,3.28,0,0,1-1.15.89A4,4,0,0,1,185.26,129Z"/><path d="M197.38,118.43v6.48h-2.12V110.36h2.09v5.42h.14a3,3,0,0,1,1.17-1.4,3.64,3.64,0,0,1,2.06-.52,4,4,0,0,1,2,.46A3.18,3.18,0,0,1,204,115.7a4.93,4.93,0,0,1,.46,2.27v6.94h-2.12v-6.68a2.62,2.62,0,0,0-.62-1.87,2.23,2.23,0,0,0-1.72-.66,2.79,2.79,0,0,0-1.34.32,2.2,2.2,0,0,0-.93.93A3,3,0,0,0,197.38,118.43Z"/><path d="M214.21,120.39V114h2.13v10.91h-2.09V123h-.12a3.36,3.36,0,0,1-1.2,1.45,3.48,3.48,0,0,1-2.06.58,3.6,3.6,0,0,1-1.85-.46,3.22,3.22,0,0,1-1.27-1.38,5.13,5.13,0,0,1-.45-2.27V114h2.12v6.69a2.45,2.45,0,0,0,.62,1.77,2.08,2.08,0,0,0,1.6.66,2.59,2.59,0,0,0,1.19-.3,2.51,2.51,0,0,0,1-.9A2.76,2.76,0,0,0,214.21,120.39Z"/><path d="M219.35,124.91V110.36h2.13v5.41h.13a5.72,5.72,0,0,1,.53-.79,2.93,2.93,0,0,1,1-.78,3.39,3.39,0,0,1,1.64-.34,4.23,4.23,0,0,1,2.36.67,4.49,4.49,0,0,1,1.63,1.92,8.08,8.08,0,0,1,0,6.06,4.58,4.58,0,0,1-1.62,1.94,4.19,4.19,0,0,1-2.35.67,3.48,3.48,0,0,1-1.62-.33,3.06,3.06,0,0,1-1-.78,5.36,5.36,0,0,1-.54-.8h-.18v1.7Zm2.09-5.45a5.61,5.61,0,0,0,.33,2,3,3,0,0,0,1,1.36,2.46,2.46,0,0,0,1.54.48,2.55,2.55,0,0,0,1.6-.5,3.15,3.15,0,0,0,1-1.39,5.48,5.48,0,0,0,.33-2,5.37,5.37,0,0,0-.32-1.94,3,3,0,0,0-1-1.36,2.58,2.58,0,0,0-1.61-.5,2.54,2.54,0,0,0-1.56.48,3,3,0,0,0-1,1.33A5.73,5.73,0,0,0,221.44,119.46Z"/><path d="M236.4,125.13a5.32,5.32,0,0,1-2.77-.69,4.57,4.57,0,0,1-1.79-2,6.55,6.55,0,0,1-.63-3,6.64,6.64,0,0,1,.63-3,4.71,4.71,0,0,1,4.41-2.71,5.42,5.42,0,0,1,1.79.3,4.28,4.28,0,0,1,2.64,2.66,6.94,6.94,0,0,1,.4,2.52v.76h-8.67v-1.6H239a3.11,3.11,0,0,0-.34-1.48,2.58,2.58,0,0,0-1-1,2.71,2.71,0,0,0-1.44-.38,2.76,2.76,0,0,0-1.55.44,2.9,2.9,0,0,0-1,1.14,3.23,3.23,0,0,0-.36,1.51V120a4.06,4.06,0,0,0,.39,1.86A2.75,2.75,0,0,0,234.8,123a3.47,3.47,0,0,0,2.72.22,2.28,2.28,0,0,0,.86-.52,2.33,2.33,0,0,0,.56-.86l2,.36a3.7,3.7,0,0,1-.87,1.56,4.25,4.25,0,0,1-1.55,1A5.91,5.91,0,0,1,236.4,125.13Z"/><path d="M245.57,118.43v6.48h-2.12V114h2v1.78h.14a3.06,3.06,0,0,1,1.18-1.39,3.6,3.6,0,0,1,2-.53,4,4,0,0,1,1.95.46,3.24,3.24,0,0,1,1.3,1.39,5,5,0,0,1,.46,2.26v6.94h-2.12v-6.68a2.66,2.66,0,0,0-.62-1.86,2.19,2.19,0,0,0-1.7-.67,2.67,2.67,0,0,0-1.31.32,2.24,2.24,0,0,0-.9.93A3.11,3.11,0,0,0,245.57,118.43Z"/><path d="M255.39,124.91V114h2.12v10.91Zm.2-12.36,1.66-3.28h2.24l-2.2,3.28Z"/><path d="M260.37,124.91V114h2v1.78h.13a2.85,2.85,0,0,1,1.12-1.41,3.27,3.27,0,0,1,1.85-.51,3.19,3.19,0,0,1,1.84.51,3.05,3.05,0,0,1,1.1,1.41h.11a3.1,3.1,0,0,1,1.24-1.4,3.81,3.81,0,0,1,2-.52,3.32,3.32,0,0,1,2.43.93,3.79,3.79,0,0,1,.94,2.81v7.31h-2.12v-7.12a1.94,1.94,0,0,0-.61-1.6,2.19,2.19,0,0,0-1.44-.5,2,2,0,0,0-1.61.64,2.34,2.34,0,0,0-.58,1.63v7h-2.11v-7.25a1.91,1.91,0,0,0-.56-1.43,2,2,0,0,0-1.44-.54,2.08,2.08,0,0,0-1.11.32,2.32,2.32,0,0,0-.82.88,2.69,2.69,0,0,0-.31,1.3v6.72Z"/><path d="M287.93,125.13a5,5,0,0,1-2.68-.7,4.77,4.77,0,0,1-1.77-2,7.27,7.27,0,0,1,0-5.92,4.73,4.73,0,0,1,1.77-2,5.48,5.48,0,0,1,5.36,0,4.82,4.82,0,0,1,1.78,2,7.27,7.27,0,0,1,0,5.92,4.86,4.86,0,0,1-1.78,2A5,5,0,0,1,287.93,125.13Zm0-1.78a2.57,2.57,0,0,0,1.65-.53,3.1,3.1,0,0,0,1-1.4,6.1,6.1,0,0,0,0-3.84,3.13,3.13,0,0,0-1-1.41,2.85,2.85,0,0,0-3.31,0,3.06,3.06,0,0,0-1,1.41,5.92,5.92,0,0,0,0,3.84,3,3,0,0,0,1,1.4A2.58,2.58,0,0,0,287.94,123.35Z"/><path d="M297.51,118.43v6.48h-2.13V110.36h2.1v5.42h.13a3.11,3.11,0,0,1,1.18-1.4,3.64,3.64,0,0,1,2.06-.52,4,4,0,0,1,2,.46,3.18,3.18,0,0,1,1.31,1.38,4.93,4.93,0,0,1,.46,2.27v6.94h-2.12v-6.68a2.67,2.67,0,0,0-.62-1.87,2.25,2.25,0,0,0-1.72-.66,2.79,2.79,0,0,0-1.34.32,2.28,2.28,0,0,0-.94.93A3.11,3.11,0,0,0,297.51,118.43Z"/><path d="M307.42,124.91V114h2.05v1.74h.12a2.67,2.67,0,0,1,1.05-1.39,3,3,0,0,1,1.72-.51h.47a3.52,3.52,0,0,1,.43,0v2l-.45-.08a4.89,4.89,0,0,0-.66,0,2.79,2.79,0,0,0-1.34.32,2.34,2.34,0,0,0-.92.87,2.37,2.37,0,0,0-.34,1.27v6.66Z"/><path d="M319.7,125.13a5,5,0,0,1-2.68-.7,4.77,4.77,0,0,1-1.77-2,7.27,7.27,0,0,1,0-5.92,4.73,4.73,0,0,1,1.77-2,5.48,5.48,0,0,1,5.36,0,4.73,4.73,0,0,1,1.77,2,7.16,7.16,0,0,1,0,5.92,4.77,4.77,0,0,1-1.77,2A5,5,0,0,1,319.7,125.13Zm0-1.78a2.57,2.57,0,0,0,1.65-.53,3.1,3.1,0,0,0,1-1.4,6.1,6.1,0,0,0,0-3.84,3.13,3.13,0,0,0-1-1.41,2.85,2.85,0,0,0-3.31,0,3.06,3.06,0,0,0-1,1.41,5.92,5.92,0,0,0,0,3.84,3,3,0,0,0,1,1.4A2.58,2.58,0,0,0,319.71,123.35Z"/><path d="M326.92,124.91v-1.46l5.91-7.5v-.1h-5.71V114h8.36v1.55L329.8,123v.1h5.88v1.85Zm2.84-15.33,1.47,1.9,1.45-1.9h1.93v.1l-2.5,3h-1.77l-2.49-3v-.1Z"/><path d="M342.88,125.13a5.32,5.32,0,0,1-2.77-.69,4.63,4.63,0,0,1-1.79-2,6.55,6.55,0,0,1-.63-3,6.64,6.64,0,0,1,.63-3,4.71,4.71,0,0,1,4.41-2.71,5.38,5.38,0,0,1,1.79.3,4.52,4.52,0,0,1,1.56,1,4.58,4.58,0,0,1,1.09,1.7,7.17,7.17,0,0,1,.39,2.52v.76h-8.67v-1.6h6.59a3.11,3.11,0,0,0-.34-1.48,2.56,2.56,0,0,0-.95-1,2.71,2.71,0,0,0-1.44-.38,2.77,2.77,0,0,0-1.56.44,3,3,0,0,0-1,1.14,3.23,3.23,0,0,0-.36,1.51V120a4.06,4.06,0,0,0,.39,1.86,2.67,2.67,0,0,0,1.08,1.17,3.24,3.24,0,0,0,1.62.4,3.17,3.17,0,0,0,1.1-.18,2.28,2.28,0,0,0,1.42-1.38l2,.36a3.68,3.68,0,0,1-.86,1.56,4.38,4.38,0,0,1-1.56,1A5.87,5.87,0,0,1,342.88,125.13Z"/><path d="M352.05,118.43v6.48h-2.12V114h2v1.78h.13a3.13,3.13,0,0,1,1.18-1.39,3.6,3.6,0,0,1,2-.53,4,4,0,0,1,1.95.46,3.24,3.24,0,0,1,1.3,1.39A5,5,0,0,1,359,118v6.94h-2.12v-6.68a2.66,2.66,0,0,0-.62-1.86,2.19,2.19,0,0,0-1.7-.67,2.7,2.7,0,0,0-1.31.32,2.24,2.24,0,0,0-.9.93A3.11,3.11,0,0,0,352.05,118.43Z"/><path d="M120.36,148.91V134.36h2.13v14.55Zm2-3.7,0-2.59h.37L127,138h2.54l-5,5.26h-.33Zm4.93,3.7-3.9-5.18,1.46-1.49,5.05,6.67Z"/><path d="M134.67,149.15a4.57,4.57,0,0,1-1.88-.38,3.1,3.1,0,0,1-1.32-1.13,3.18,3.18,0,0,1-.49-1.81,2.9,2.9,0,0,1,.36-1.52,2.57,2.57,0,0,1,1-.95,5.12,5.12,0,0,1,1.34-.52,12.87,12.87,0,0,1,1.53-.27l1.59-.19a2.36,2.36,0,0,0,.88-.24.6.6,0,0,0,.28-.56v-.05a1.91,1.91,0,0,0-.52-1.44,2.15,2.15,0,0,0-1.55-.51,2.74,2.74,0,0,0-1.69.47,2.59,2.59,0,0,0-.85,1l-2-.46a3.84,3.84,0,0,1,1-1.61,4.32,4.32,0,0,1,1.58-.89,6.11,6.11,0,0,1,1.88-.28,7,7,0,0,1,1.39.15,4.14,4.14,0,0,1,1.38.56,3.17,3.17,0,0,1,1,1.15,4.09,4.09,0,0,1,.41,1.95v7.24H138v-1.49h-.09a3.13,3.13,0,0,1-.62.81,3.37,3.37,0,0,1-1.05.66A4,4,0,0,1,134.67,149.15Zm.46-1.7a3.09,3.09,0,0,0,1.51-.35,2.48,2.48,0,0,0,1-.91,2.37,2.37,0,0,0,.33-1.21v-1.41a1,1,0,0,1-.44.21,5.74,5.74,0,0,1-.73.16l-.81.12-.65.09a5.35,5.35,0,0,0-1.13.26,2.12,2.12,0,0,0-.81.53,1.36,1.36,0,0,0-.3.92,1.38,1.38,0,0,0,.58,1.19A2.64,2.64,0,0,0,135.13,147.45Z"/><path d="M142.65,148.91v-1.46l5.91-7.5v-.1h-5.72V138h8.37v1.55L145.53,147v.1h5.88v1.85Zm2.84-15.33,1.46,1.9,1.46-1.9h1.93v.1l-2.5,3h-1.77l-2.5-3v-.1Z"/><path d="M158,149.12a4.19,4.19,0,0,1-2.35-.67,4.58,4.58,0,0,1-1.62-1.94,7.15,7.15,0,0,1-.59-3,7,7,0,0,1,.6-3,4.36,4.36,0,0,1,1.63-1.92,4.19,4.19,0,0,1,2.35-.67,3.35,3.35,0,0,1,1.63.34,2.87,2.87,0,0,1,1,.78,7,7,0,0,1,.54.79h.12v-5.41h2.13v14.55h-2.08v-1.7h-.17a5.67,5.67,0,0,1-.56.8,2.91,2.91,0,0,1-1,.78A3.48,3.48,0,0,1,158,149.12Zm.47-1.81a2.49,2.49,0,0,0,1.55-.48,3,3,0,0,0,1-1.36,5.61,5.61,0,0,0,.33-2,5.5,5.5,0,0,0-.33-2,3,3,0,0,0-1-1.33,2.5,2.5,0,0,0-1.56-.48,2.55,2.55,0,0,0-1.6.5,3.06,3.06,0,0,0-1,1.36,5.37,5.37,0,0,0-.32,1.94,5.71,5.71,0,0,0,.32,2,3.09,3.09,0,0,0,1,1.39A2.54,2.54,0,0,0,158.46,147.31Z"/><path d="M167.76,153a4.61,4.61,0,0,1-.86-.07,2.51,2.51,0,0,1-.58-.16l.51-1.74a2.53,2.53,0,0,0,1.46,0,2,2,0,0,0,1-1.26l.26-.73-4-11.05h2.28l2.76,8.47h.11l2.76-8.47,2.3,0-4.51,12.35a4.62,4.62,0,0,1-.8,1.42,3.11,3.11,0,0,1-1.15.89A3.9,3.9,0,0,1,167.76,153Zm2-16.42,1.67-3.28h2.23l-2.2,3.28Z"/><path d="M187.66,149.13a5,5,0,0,1-2.73-.72,4.71,4.71,0,0,1-1.75-2,6.76,6.76,0,0,1-.61-2.91,6.55,6.55,0,0,1,.63-2.94,4.73,4.73,0,0,1,1.76-2,4.9,4.9,0,0,1,2.68-.72,5.08,5.08,0,0,1,2.21.46,3.89,3.89,0,0,1,1.57,1.28,3.83,3.83,0,0,1,.72,1.92h-2.07a2.48,2.48,0,0,0-.77-1.32,2.33,2.33,0,0,0-1.63-.55,2.63,2.63,0,0,0-1.55.46,3,3,0,0,0-1,1.33,5,5,0,0,0-.37,2,5.38,5.38,0,0,0,.36,2.06,3,3,0,0,0,1,1.34,2.57,2.57,0,0,0,1.56.47,2.64,2.64,0,0,0,1.1-.22,2.18,2.18,0,0,0,.83-.64,2.42,2.42,0,0,0,.47-1h2.07a4.15,4.15,0,0,1-.69,1.89,3.92,3.92,0,0,1-1.54,1.3A5,5,0,0,1,187.66,149.13Zm-1.5-15.55,1.46,1.9,1.46-1.9H191v.1l-2.5,3h-1.77l-2.49-3v-.1Z"/><path d="M199.51,138v1.71h-6V138Zm-4.36-2.61h2.12v10.32a1.83,1.83,0,0,0,.19.92.89.89,0,0,0,.48.42,1.66,1.66,0,0,0,.64.11,3,3,0,0,0,.45,0l.3-.06.38,1.76a5.32,5.32,0,0,1-.53.14,4,4,0,0,1-.85.08,3.68,3.68,0,0,1-1.56-.3,2.67,2.67,0,0,1-1.17-1,2.83,2.83,0,0,1-.45-1.64Z"/><path d="M211.19,138l-4,10.91H205L201,138h2.27l2.77,8.4h.11l2.76-8.4Z"/><path d="M213.18,148.91V138h2.06v1.74h.11a2.67,2.67,0,0,1,1.05-1.39,3,3,0,0,1,1.72-.51h.47a3.52,3.52,0,0,1,.43,0v2l-.45-.08a4.89,4.89,0,0,0-.66-.05,2.79,2.79,0,0,0-1.34.32,2.34,2.34,0,0,0-.92.87,2.37,2.37,0,0,0-.34,1.27v6.66Z"/><path d="M226,138v1.71h-6V138Zm-4.36-2.61h2.12v10.32a1.73,1.73,0,0,0,.19.92.89.89,0,0,0,.48.42,1.66,1.66,0,0,0,.64.11,3,3,0,0,0,.45,0l.29-.06.39,1.76a5.32,5.32,0,0,1-.53.14,4,4,0,0,1-.85.08,3.68,3.68,0,0,1-1.56-.3,2.62,2.62,0,0,1-1.17-1,2.83,2.83,0,0,1-.45-1.64Z"/><path d="M229.65,153a4.65,4.65,0,0,1-.87-.07,2.67,2.67,0,0,1-.58-.16l.51-1.74a2.53,2.53,0,0,0,1.46,0,2,2,0,0,0,1-1.26l.27-.73-4-11.05h2.28l2.76,8.47h.11l2.77-8.47,2.29,0-4.51,12.35a4.62,4.62,0,0,1-.8,1.42,3.11,3.11,0,0,1-1.15.89A3.88,3.88,0,0,1,229.65,153Zm2-16.42,1.66-3.28h2.23l-2.2,3.28Z"/><path d="M249,149.12a4.23,4.23,0,0,1-2.36-.67,4.58,4.58,0,0,1-1.62-1.94,8.14,8.14,0,0,1,0-6.06,4.49,4.49,0,0,1,1.63-1.92,4.22,4.22,0,0,1,2.35-.67,3.39,3.39,0,0,1,1.64.34,2.93,2.93,0,0,1,1,.78,7,7,0,0,1,.54.79h.13v-5.41h2.12v14.55h-2.07v-1.7h-.18a5.51,5.51,0,0,1-.55.8,3.13,3.13,0,0,1-1,.78A3.48,3.48,0,0,1,249,149.12Zm.47-1.81a2.51,2.51,0,0,0,1.55-.48,3.06,3.06,0,0,0,1-1.36,5.61,5.61,0,0,0,.33-2,5.73,5.73,0,0,0-.32-2,3,3,0,0,0-1-1.33,2.5,2.5,0,0,0-1.56-.48,2.53,2.53,0,0,0-1.6.5,2.91,2.91,0,0,0-1,1.36,5.37,5.37,0,0,0-.33,1.94,5.48,5.48,0,0,0,.33,2,3.09,3.09,0,0,0,1,1.39A2.54,2.54,0,0,0,249.5,147.31Z"/><path d="M257.46,148.91V138h2.05v1.74h.11a2.63,2.63,0,0,1,1.06-1.39,3,3,0,0,1,1.71-.51h.48l.43,0v2l-.46-.08a4.74,4.74,0,0,0-.65-.05,2.79,2.79,0,0,0-1.34.32,2.43,2.43,0,0,0-.93.87,2.46,2.46,0,0,0-.34,1.27v6.66Z"/><path d="M272.05,144.39V138h2.13v10.91H272.1V147H272a3.36,3.36,0,0,1-1.2,1.45,3.48,3.48,0,0,1-2.06.58,3.67,3.67,0,0,1-1.86-.46,3.26,3.26,0,0,1-1.26-1.38,5.13,5.13,0,0,1-.46-2.27V138h2.13v6.69a2.49,2.49,0,0,0,.61,1.77,2.12,2.12,0,0,0,1.61.66,2.62,2.62,0,0,0,1.19-.3,2.51,2.51,0,0,0,1.37-2.43Z"/><path d="M279.15,142.43v6.48H277V134.36h2.1v5.42h.13a3.15,3.15,0,0,1,1.17-1.4,3.68,3.68,0,0,1,2.06-.52,4,4,0,0,1,2,.46,3.16,3.16,0,0,1,1.3,1.38,4.93,4.93,0,0,1,.47,2.27v6.94H284.1v-6.68a2.67,2.67,0,0,0-.61-1.87,2.25,2.25,0,0,0-1.72-.66,2.86,2.86,0,0,0-1.35.32,2.31,2.31,0,0,0-.93.93A3.11,3.11,0,0,0,279.15,142.43Z"/><path d="M573.75,199.52H576v9.57a5.13,5.13,0,0,1-.71,2.7,5,5,0,0,1-2,1.85,7.25,7.25,0,0,1-6.09,0,4.95,4.95,0,0,1-2.73-4.55v-9.57h2.19v9.39a3.47,3.47,0,0,0,.44,1.75,3,3,0,0,0,1.24,1.21,3.92,3.92,0,0,0,1.9.43,4,4,0,0,0,1.92-.43,3,3,0,0,0,1.23-1.21,3.47,3.47,0,0,0,.43-1.75Z"/><path d="M588.87,214.29a5,5,0,0,1-2.67-.71,4.7,4.7,0,0,1-1.78-2,7.29,7.29,0,0,1,0-5.93,4.72,4.72,0,0,1,1.78-2,5.46,5.46,0,0,1,5.35,0,4.79,4.79,0,0,1,1.78,2,7.29,7.29,0,0,1,0,5.93,4.76,4.76,0,0,1-1.78,2A5,5,0,0,1,588.87,214.29Zm0-1.79a2.56,2.56,0,0,0,1.65-.52,3.16,3.16,0,0,0,1-1.4,5.62,5.62,0,0,0,.31-1.93,5.69,5.69,0,0,0-.31-1.92,3.25,3.25,0,0,0-1-1.41,2.85,2.85,0,0,0-3.31,0,3.16,3.16,0,0,0-1,1.41,5.69,5.69,0,0,0-.32,1.92,5.62,5.62,0,0,0,.32,1.93,3.08,3.08,0,0,0,1,1.4A2.57,2.57,0,0,0,588.88,212.5Z"/><path d="M596.49,214.07V199.52h2.13v5.41h.13a5.72,5.72,0,0,1,.53-.79,3.08,3.08,0,0,1,1-.79,3.51,3.51,0,0,1,1.64-.33,4.33,4.33,0,0,1,2.36.66,4.58,4.58,0,0,1,1.63,1.93,8,8,0,0,1,0,6,4.52,4.52,0,0,1-1.62,1.94,4.2,4.2,0,0,1-2.35.68,3.45,3.45,0,0,1-1.62-.33,3.22,3.22,0,0,1-1-.79,4.65,4.65,0,0,1-.54-.79h-.18v1.7Zm2.08-5.46a5.66,5.66,0,0,0,.34,2,3,3,0,0,0,1,1.35,2.72,2.72,0,0,0,3.14,0,3.12,3.12,0,0,0,1-1.38,5.54,5.54,0,0,0,.33-2,5.41,5.41,0,0,0-.32-1.94,3,3,0,0,0-1-1.35,2.53,2.53,0,0,0-1.6-.5,2.6,2.6,0,0,0-1.56.47,3,3,0,0,0-1,1.33A5.5,5.5,0,0,0,598.57,208.61Z"/><path d="M613.43,214.29a5,5,0,0,1-2.68-.71,4.74,4.74,0,0,1-1.77-2,7.29,7.29,0,0,1,0-5.93,4.77,4.77,0,0,1,1.77-2,5.48,5.48,0,0,1,5.36,0,4.77,4.77,0,0,1,1.77,2,7.19,7.19,0,0,1,0,5.93,4.74,4.74,0,0,1-1.77,2A5,5,0,0,1,613.43,214.29Zm0-1.79a2.56,2.56,0,0,0,1.65-.52,3.16,3.16,0,0,0,1-1.4,5.62,5.62,0,0,0,.31-1.93,5.69,5.69,0,0,0-.31-1.92,3.25,3.25,0,0,0-1-1.41,2.85,2.85,0,0,0-3.31,0,3.16,3.16,0,0,0-1,1.41,5.69,5.69,0,0,0-.32,1.92,5.62,5.62,0,0,0,.32,1.93,3.08,3.08,0,0,0,1,1.4A2.57,2.57,0,0,0,613.44,212.5Z"/><path d="M620.88,203.16H623v11.6a4.06,4.06,0,0,1-.4,1.86,2.71,2.71,0,0,1-1.17,1.15,4.07,4.07,0,0,1-1.91.37h-.42v-1.83h.35a1.35,1.35,0,0,0,1.09-.41,1.8,1.8,0,0,0,.33-1.16Zm1-1.69a1.3,1.3,0,0,1-.94-.37,1.16,1.16,0,0,1-.4-.89,1.18,1.18,0,0,1,.4-.9,1.3,1.3,0,0,1,.94-.37,1.32,1.32,0,0,1,1,.37,1.21,1.21,0,0,1,.4.9,1.19,1.19,0,0,1-.4.89A1.32,1.32,0,0,1,621.93,201.47Z"/><path d="M625.63,214.07v-1.46l5.91-7.51V205h-5.71v-1.84h8.36v1.55l-5.68,7.41v.1h5.88v1.85Zm2.84-15.34,1.47,1.91,1.45-1.91h1.93v.11l-2.5,3h-1.77l-2.49-3v-.11Z"/><path d="M638,201.47a1.34,1.34,0,0,1-1-.37,1.18,1.18,0,0,1-.39-.89,1.2,1.2,0,0,1,.39-.9,1.34,1.34,0,0,1,1-.37,1.32,1.32,0,0,1,.95.37,1.21,1.21,0,0,1,.4.9,1.19,1.19,0,0,1-.4.89A1.32,1.32,0,0,1,638,201.47Zm-1.07,12.6V203.16H639v10.91Z"/><path d="M651.2,203.16l-4,10.91H645l-4-10.91h2.28l2.76,8.39h.12l2.75-8.39Z"/><path d="M657.9,214.29a5.21,5.21,0,0,1-2.77-.7,4.51,4.51,0,0,1-1.79-2,7.25,7.25,0,0,1,0-5.91,4.76,4.76,0,0,1,1.76-2,4.82,4.82,0,0,1,2.65-.71,5.42,5.42,0,0,1,1.79.3,4.12,4.12,0,0,1,1.55,1,4.41,4.41,0,0,1,1.09,1.69,7,7,0,0,1,.4,2.53v.75h-8.67v-1.59h6.59a3.27,3.27,0,0,0-.34-1.49,2.62,2.62,0,0,0-1-1,2.71,2.71,0,0,0-1.44-.38,2.69,2.69,0,0,0-1.55.44,2.94,2.94,0,0,0-1,1.13,3.27,3.27,0,0,0-.36,1.52v1.24a4.06,4.06,0,0,0,.39,1.86,2.79,2.79,0,0,0,1.08,1.17,3.2,3.2,0,0,0,1.63.4,3.48,3.48,0,0,0,1.1-.17,2.42,2.42,0,0,0,.86-.52,2.27,2.27,0,0,0,.55-.86l2,.36a3.55,3.55,0,0,1-.86,1.55,4.13,4.13,0,0,1-1.55,1A5.94,5.94,0,0,1,657.9,214.29Z"/><path d="M667.07,199.52v14.55h-2.13V199.52Z"/><path d="M672.05,207.59v6.48h-2.13V203.16h2v1.77h.14a3.12,3.12,0,0,1,1.18-1.39,3.67,3.67,0,0,1,2-.52,4,4,0,0,1,2,.46,3.16,3.16,0,0,1,1.3,1.38,5,5,0,0,1,.46,2.27v6.94h-2.12v-6.69a2.62,2.62,0,0,0-.62-1.85,2.19,2.19,0,0,0-1.7-.68,2.67,2.67,0,0,0-1.31.32,2.33,2.33,0,0,0-.9.94A3.08,3.08,0,0,0,672.05,207.59Z"/><path d="M681.87,214.07V203.16H684v10.91Zm.2-12.37,1.66-3.27H686l-2.2,3.27Z"/><path d="M686.85,214.07V199.52H689v14.55Zm1.95-3.7v-2.6h.37l4.34-4.61h2.55l-5,5.25h-.34Zm4.94,3.7-3.91-5.19,1.46-1.48,5.05,6.67Z"/><path d="M704.89,209.54v-6.38H707v10.91h-2.09v-1.89h-.11a3.52,3.52,0,0,1-1.21,1.45,3.45,3.45,0,0,1-2.05.58,3.67,3.67,0,0,1-1.86-.47,3.22,3.22,0,0,1-1.27-1.38,5.08,5.08,0,0,1-.45-2.26v-6.94h2.12v6.68a2.52,2.52,0,0,0,.62,1.78,2.1,2.1,0,0,0,1.6.66,2.59,2.59,0,0,0,1.19-.3,2.51,2.51,0,0,0,1-.9A2.82,2.82,0,0,0,704.89,209.54ZM702.51,202a2.61,2.61,0,0,1-1.28-.32,2.4,2.4,0,0,1-.91-.85,2.22,2.22,0,0,1-.34-1.22,2.27,2.27,0,0,1,.34-1.22,2.51,2.51,0,0,1,.91-.89,2.58,2.58,0,0,1,2.56,0,2.48,2.48,0,0,1,.9.89,2.35,2.35,0,0,1,.33,1.22,2.3,2.3,0,0,1-.33,1.22,2.37,2.37,0,0,1-.9.85A2.61,2.61,0,0,1,702.51,202Zm0-1.14a1.26,1.26,0,0,0,1.28-1.25,1.28,1.28,0,0,0-.36-.89,1.28,1.28,0,0,0-1.84,0,1.32,1.32,0,0,0-.35.89,1.27,1.27,0,0,0,.35.87A1.19,1.19,0,0,0,702.51,200.81Z"/><path d="M723.34,205.82l-1.93.34a2.09,2.09,0,0,0-.38-.7,1.87,1.87,0,0,0-.7-.55,2.54,2.54,0,0,0-1.1-.21,2.62,2.62,0,0,0-1.5.4,1.21,1.21,0,0,0-.61,1,1.08,1.08,0,0,0,.41.88,3.11,3.11,0,0,0,1.31.55l1.73.4a4.64,4.64,0,0,1,2.24,1.07,2.49,2.49,0,0,1,.74,1.88,2.9,2.9,0,0,1-.56,1.75,3.75,3.75,0,0,1-1.57,1.19,5.83,5.83,0,0,1-2.33.44,5.17,5.17,0,0,1-3-.79,3.31,3.31,0,0,1-1.42-2.23l2.05-.31a2,2,0,0,0,.79,1.21,2.74,2.74,0,0,0,1.56.4,2.89,2.89,0,0,0,1.67-.43,1.29,1.29,0,0,0,.62-1.07,1.13,1.13,0,0,0-.38-.86,2.56,2.56,0,0,0-1.16-.53l-1.85-.4a4.37,4.37,0,0,1-2.25-1.11,2.66,2.66,0,0,1-.73-1.92,2.73,2.73,0,0,1,.54-1.69,3.6,3.6,0,0,1,1.49-1.14,5.54,5.54,0,0,1,2.18-.4,4.55,4.55,0,0,1,2.79.76A3.63,3.63,0,0,1,723.34,205.82Z"/><path d="M730.58,214.29a5.23,5.23,0,0,1-2.77-.7,4.63,4.63,0,0,1-1.79-2,7.25,7.25,0,0,1,0-5.91,4.9,4.9,0,0,1,1.76-2,4.84,4.84,0,0,1,2.65-.71,5.38,5.38,0,0,1,1.79.3,4.23,4.23,0,0,1,1.56,1,4.53,4.53,0,0,1,1.09,1.69,7.27,7.27,0,0,1,.39,2.53v.75h-8.67v-1.59h6.59a3.15,3.15,0,0,0-.34-1.49,2.59,2.59,0,0,0-1-1,3,3,0,0,0-3,.06,3,3,0,0,0-1,1.13,3.27,3.27,0,0,0-.36,1.52v1.24a4.06,4.06,0,0,0,.39,1.86,2.67,2.67,0,0,0,1.08,1.17,3.14,3.14,0,0,0,1.62.4,3.54,3.54,0,0,0,1.11-.17,2.38,2.38,0,0,0,.85-.52,2.29,2.29,0,0,0,.56-.86l2,.36a3.65,3.65,0,0,1-.86,1.55,4.25,4.25,0,0,1-1.56,1A5.87,5.87,0,0,1,730.58,214.29Z"/><path d="M564.23,242.16v-15h2.07v1.77h.18a5.72,5.72,0,0,1,.53-.79,3.13,3.13,0,0,1,1-.79,3.44,3.44,0,0,1,1.63-.33,4.3,4.3,0,0,1,2.36.66,4.58,4.58,0,0,1,1.63,1.93,8,8,0,0,1,0,6A4.52,4.52,0,0,1,572,237.6a4.18,4.18,0,0,1-2.35.68A3.48,3.48,0,0,1,568,238a3.06,3.06,0,0,1-1-.79,5.48,5.48,0,0,1-.55-.79h-.13v5.79Zm2.08-9.55a5.67,5.67,0,0,0,.33,2,3.06,3.06,0,0,0,1,1.35,2.43,2.43,0,0,0,1.55.49,2.48,2.48,0,0,0,1.59-.51,3.2,3.2,0,0,0,1-1.38,5.54,5.54,0,0,0,.33-2,5.41,5.41,0,0,0-.33-1.94,2.93,2.93,0,0,0-1-1.35,2.82,2.82,0,0,0-3.16,0,2.82,2.82,0,0,0-1,1.33A5.5,5.5,0,0,0,566.31,232.61Z"/><path d="M581.17,238.29a5,5,0,0,1-2.68-.71,4.83,4.83,0,0,1-1.78-2,7.29,7.29,0,0,1,0-5.93,4.86,4.86,0,0,1,1.78-2,5.46,5.46,0,0,1,5.35,0,4.72,4.72,0,0,1,1.78,2,7.29,7.29,0,0,1,0,5.93,4.7,4.7,0,0,1-1.78,2A5,5,0,0,1,581.17,238.29Zm0-1.79a2.53,2.53,0,0,0,1.65-.52,3.08,3.08,0,0,0,1-1.4,5.62,5.62,0,0,0,.32-1.93,5.69,5.69,0,0,0-.32-1.92,3.16,3.16,0,0,0-1-1.41,2.83,2.83,0,0,0-3.3,0,3.18,3.18,0,0,0-1,1.41,5.69,5.69,0,0,0-.31,1.92,5.62,5.62,0,0,0,.31,1.93,3.1,3.1,0,0,0,1,1.4A2.55,2.55,0,0,0,581.17,236.5Z"/><path d="M592.7,238.28a4.2,4.2,0,0,1-2.35-.68,4.52,4.52,0,0,1-1.62-1.94,8,8,0,0,1,0-6,4.58,4.58,0,0,1,1.63-1.93,4.32,4.32,0,0,1,2.35-.66,3.49,3.49,0,0,1,1.64.33,3,3,0,0,1,1,.79,5.72,5.72,0,0,1,.53.79H596v-5.41h2.13v14.55H596v-1.7h-.18a4.78,4.78,0,0,1-.55.79,3.18,3.18,0,0,1-1,.79A3.48,3.48,0,0,1,592.7,238.28Zm.47-1.81a2.43,2.43,0,0,0,1.55-.49,2.91,2.91,0,0,0,1-1.35,5.67,5.67,0,0,0,.33-2,5.5,5.5,0,0,0-.33-2,3,3,0,0,0-1-1.33,2.82,2.82,0,0,0-3.16,0,3,3,0,0,0-1,1.35,5.41,5.41,0,0,0-.32,1.94,5.54,5.54,0,0,0,.32,2,3.12,3.12,0,0,0,1,1.38A2.48,2.48,0,0,0,593.17,236.47Z"/><path d="M601.13,238.07V227.16h2.12v10.91Zm.2-12.37,1.66-3.27h2.24L603,225.7Z"/><path d="M608.23,223.52v14.55h-2.12V223.52Z"/><path d="M620.47,238.28a4.18,4.18,0,0,1-2.35-.68,4.52,4.52,0,0,1-1.62-1.94,8,8,0,0,1,0-6,4.58,4.58,0,0,1,1.63-1.93,4.32,4.32,0,0,1,2.35-.66,3.49,3.49,0,0,1,1.64.33,3,3,0,0,1,1,.79,5.72,5.72,0,0,1,.53.79h.13v-5.41h2.13v14.55H623.8v-1.7h-.18a4.78,4.78,0,0,1-.55.79,3.18,3.18,0,0,1-1,.79A3.48,3.48,0,0,1,620.47,238.28Zm.47-1.81a2.43,2.43,0,0,0,1.55-.49,2.91,2.91,0,0,0,1-1.35,5.67,5.67,0,0,0,.33-2,5.5,5.5,0,0,0-.33-2,3,3,0,0,0-1-1.33,2.82,2.82,0,0,0-3.16,0,3,3,0,0,0-1,1.35,5.41,5.41,0,0,0-.32,1.94,5.54,5.54,0,0,0,.32,2,3.12,3.12,0,0,0,1,1.38A2.48,2.48,0,0,0,620.94,236.47Z"/><path d="M628.9,238.07V227.16H631v1.73h.12a2.67,2.67,0,0,1,1-1.39,3,3,0,0,1,1.72-.51l.47,0,.43,0v2l-.45-.08a4.87,4.87,0,0,0-.66,0,2.79,2.79,0,0,0-1.34.31,2.29,2.29,0,0,0-.92.88,2.34,2.34,0,0,0-.35,1.26v6.67Z"/><path d="M643.5,233.54v-6.38h2.13v10.91h-2.09v-1.89h-.12a3.42,3.42,0,0,1-1.2,1.45,3.47,3.47,0,0,1-2.05.58,3.65,3.65,0,0,1-1.86-.47,3.22,3.22,0,0,1-1.27-1.38,5.08,5.08,0,0,1-.45-2.26v-6.94h2.12v6.68a2.52,2.52,0,0,0,.62,1.78,2.08,2.08,0,0,0,1.6.66,2.59,2.59,0,0,0,1.19-.3,2.51,2.51,0,0,0,1-.9A2.82,2.82,0,0,0,643.5,233.54Z"/><path d="M650.6,231.59v6.48h-2.13V223.52h2.1v5.41h.13a3.22,3.22,0,0,1,1.18-1.4,3.72,3.72,0,0,1,2.06-.51,4,4,0,0,1,2,.46,3.11,3.11,0,0,1,1.31,1.37,5,5,0,0,1,.46,2.28v6.94h-2.12v-6.69a2.63,2.63,0,0,0-.62-1.86,2.24,2.24,0,0,0-1.72-.67,2.79,2.79,0,0,0-1.34.32,2.28,2.28,0,0,0-.93.94A3,3,0,0,0,650.6,231.59Z"/><path d="M667.42,233.54v-6.38h2.13v10.91h-2.08v-1.89h-.12a3.42,3.42,0,0,1-1.2,1.45,3.48,3.48,0,0,1-2.06.58,3.67,3.67,0,0,1-1.86-.47,3.26,3.26,0,0,1-1.26-1.38,5.08,5.08,0,0,1-.46-2.26v-6.94h2.13v6.68a2.52,2.52,0,0,0,.61,1.78,2.12,2.12,0,0,0,1.61.66,2.62,2.62,0,0,0,1.19-.3,2.65,2.65,0,0,0,1-.9A2.73,2.73,0,0,0,667.42,233.54ZM665.05,226a2.61,2.61,0,0,1-1.28-.32,2.43,2.43,0,0,1-.92-.85,2.3,2.3,0,0,1-.33-1.22,2.35,2.35,0,0,1,.33-1.22,2.53,2.53,0,0,1,.92-.89,2.43,2.43,0,0,1,1.28-.34,2.39,2.39,0,0,1,1.27.34,2.48,2.48,0,0,1,.9.89,2.27,2.27,0,0,1,.34,1.22,2.22,2.22,0,0,1-.34,1.22,2.37,2.37,0,0,1-.9.85A2.58,2.58,0,0,1,665.05,226Zm0-1.14a1.26,1.26,0,0,0,1.28-1.25,1.28,1.28,0,0,0-.36-.89,1.28,1.28,0,0,0-1.84,0,1.28,1.28,0,0,0-.36.89,1.24,1.24,0,0,0,.36.87A1.19,1.19,0,0,0,665.05,224.81Z"/><path d="M675.17,236.08l-.11.77a12.48,12.48,0,0,1-.36,1.78c-.17.62-.34,1.19-.52,1.72s-.32,1-.44,1.27h-1.5c.06-.3.15-.69.25-1.19s.22-1.06.32-1.68a18.92,18.92,0,0,0,.24-1.88l.07-.79Z"/><path d="M683.45,227.16h2.13v11.6a4.06,4.06,0,0,1-.4,1.86,2.71,2.71,0,0,1-1.17,1.15,4.07,4.07,0,0,1-1.91.37h-.42v-1.83H682a1.35,1.35,0,0,0,1.09-.41,1.8,1.8,0,0,0,.33-1.16Zm1-1.69a1.3,1.3,0,0,1-.94-.37,1.16,1.16,0,0,1-.4-.89,1.18,1.18,0,0,1,.4-.9,1.3,1.3,0,0,1,.94-.37,1.32,1.32,0,0,1,1,.37,1.21,1.21,0,0,1,.4.9,1.19,1.19,0,0,1-.4.89A1.32,1.32,0,0,1,684.5,225.47Z"/><path d="M689.5,225.47a1.3,1.3,0,0,1-.94-.37,1.16,1.16,0,0,1-.4-.89,1.18,1.18,0,0,1,.4-.9,1.3,1.3,0,0,1,.94-.37,1.32,1.32,0,0,1,1,.37,1.21,1.21,0,0,1,.4.9,1.19,1.19,0,0,1-.4.89A1.32,1.32,0,0,1,689.5,225.47Zm-1.07,12.6V227.16h2.12v10.91Z"/><path d="M693.41,238.07V227.16h2v1.77h.13a2.85,2.85,0,0,1,1.12-1.41,3.26,3.26,0,0,1,1.85-.5,3.19,3.19,0,0,1,1.84.51,3.08,3.08,0,0,1,1.1,1.4h.11a3.08,3.08,0,0,1,1.24-1.39,3.81,3.81,0,0,1,2-.52,3.28,3.28,0,0,1,2.43.93,3.76,3.76,0,0,1,.94,2.8v7.32h-2.12V231a2,2,0,0,0-.61-1.61,2.19,2.19,0,0,0-1.44-.49,2.06,2.06,0,0,0-1.61.63,2.37,2.37,0,0,0-.58,1.63v7h-2.11v-7.25a1.9,1.9,0,0,0-.56-1.43,2,2,0,0,0-1.44-.54,2.07,2.07,0,0,0-1.11.31,2.4,2.4,0,0,0-.82.88,2.71,2.71,0,0,0-.31,1.3v6.73Z"/><path d="M710.85,238.07v-1.46l5.91-7.51V229H711v-1.84h8.37v1.55l-5.68,7.41v.1h5.88v1.85Zm2.84-15.34,1.47,1.91,1.45-1.91h1.93v.11l-2.5,3h-1.77l-2.49-3v-.11Z"/><path d="M566.35,255.59v6.48h-2.12V247.52h2.09v5.41h.14a3.13,3.13,0,0,1,1.17-1.4,3.74,3.74,0,0,1,2.06-.51,4,4,0,0,1,2,.46,3.11,3.11,0,0,1,1.31,1.37,5,5,0,0,1,.47,2.28v6.94H571.3v-6.69a2.58,2.58,0,0,0-.62-1.86,2.23,2.23,0,0,0-1.71-.67,2.81,2.81,0,0,0-1.35.32,2.28,2.28,0,0,0-.93.94A3,3,0,0,0,566.35,255.59Z"/><path d="M576.27,262.07V251.16h2.05v1.73h.11a2.63,2.63,0,0,1,1.06-1.39,3,3,0,0,1,1.71-.51l.47,0,.43,0v2l-.45-.08a4.82,4.82,0,0,0-.65,0,2.76,2.76,0,0,0-1.34.31,2.38,2.38,0,0,0-.93.88,2.33,2.33,0,0,0-.34,1.26v6.67Z"/><path d="M588.55,262.29a5,5,0,0,1-2.68-.71,4.76,4.76,0,0,1-1.78-2,7.29,7.29,0,0,1,0-5.93,4.79,4.79,0,0,1,1.78-2,5.46,5.46,0,0,1,5.35,0,4.72,4.72,0,0,1,1.78,2,7.29,7.29,0,0,1,0,5.93,4.7,4.7,0,0,1-1.78,2A5,5,0,0,1,588.55,262.29Zm0-1.79a2.53,2.53,0,0,0,1.65-.52,3.08,3.08,0,0,0,1-1.4,5.62,5.62,0,0,0,.32-1.93,5.69,5.69,0,0,0-.32-1.92,3.16,3.16,0,0,0-1-1.41,2.53,2.53,0,0,0-1.65-.53,2.6,2.6,0,0,0-1.66.53,3.25,3.25,0,0,0-1,1.41,5.69,5.69,0,0,0-.31,1.92,5.62,5.62,0,0,0,.31,1.93,3.16,3.16,0,0,0,1,1.4A2.59,2.59,0,0,0,588.55,260.5Z"/><path d="M595.77,262.07v-1.46l5.91-7.51V253H596v-1.84h8.37v1.55l-5.68,7.41v.1h5.88v1.85Z"/><path d="M607,262.07V251.16h2.12v10.91Zm.19-12.37,1.67-3.27h2.23l-2.2,3.27Z"/><path d="M626.63,251.16l-4,10.91h-2.27l-4-10.91h2.28l2.77,8.39h.11l2.76-8.39Z"/><path d="M630,266.13a4.57,4.57,0,0,1-.86-.08,2.8,2.8,0,0,1-.59-.16l.52-1.74a2.37,2.37,0,0,0,1.46,0c.4-.13.73-.55,1-1.26l.26-.72-4-11H630l2.77,8.46h.11l2.76-8.46,2.3,0-4.51,12.34a4.89,4.89,0,0,1-.8,1.43,3.08,3.08,0,0,1-1.15.88A3.73,3.73,0,0,1,630,266.13Z"/><path d="M640,262.07V251.16h2v1.77h.14a2.83,2.83,0,0,1,1.11-1.41,3.32,3.32,0,0,1,1.86-.5,3.16,3.16,0,0,1,1.83.51,3,3,0,0,1,1.1,1.4h.11a3.1,3.1,0,0,1,1.25-1.39,3.76,3.76,0,0,1,2-.52,3.26,3.26,0,0,1,2.42.93,3.76,3.76,0,0,1,.94,2.8v7.32h-2.12V255a2,2,0,0,0-.6-1.61,2.23,2.23,0,0,0-1.45-.49,2.08,2.08,0,0,0-1.61.63,2.37,2.37,0,0,0-.57,1.63v7h-2.12v-7.25a1.89,1.89,0,0,0-.55-1.43,2,2,0,0,0-1.45-.54,2.07,2.07,0,0,0-1.11.31,2.3,2.3,0,0,0-.81.88,2.6,2.6,0,0,0-.31,1.3v6.73Z"/><path d="M659,246.73l1.47,1.91,1.45-1.91h1.93v.11l-2.5,3h-1.77l-2.49-3v-.11Zm-1.35,15.34V251.16h2.06v1.73h.11a2.67,2.67,0,0,1,1.05-1.39,3,3,0,0,1,1.72-.51l.47,0,.43,0v2L663,253a4.87,4.87,0,0,0-.66,0,2.75,2.75,0,0,0-1.33.31,2.38,2.38,0,0,0-1.27,2.14v6.67Z"/><path d="M670,262.29a5.23,5.23,0,0,1-2.77-.7,4.57,4.57,0,0,1-1.79-1.95,7.25,7.25,0,0,1,0-5.91,4.67,4.67,0,0,1,4.41-2.71,5.42,5.42,0,0,1,1.79.3,4.23,4.23,0,0,1,1.56,1,4.52,4.52,0,0,1,1.08,1.69,7,7,0,0,1,.4,2.53v.75H666v-1.59h6.59a3.15,3.15,0,0,0-.34-1.49,2.62,2.62,0,0,0-1-1,2.71,2.71,0,0,0-1.44-.38,2.69,2.69,0,0,0-1.55.44,2.94,2.94,0,0,0-1,1.13,3.27,3.27,0,0,0-.36,1.52v1.24a4.06,4.06,0,0,0,.39,1.86,2.79,2.79,0,0,0,1.08,1.17,3.2,3.2,0,0,0,1.63.4,3.48,3.48,0,0,0,1.1-.17,2.28,2.28,0,0,0,1.42-1.38l2,.36a3.67,3.67,0,0,1-.87,1.55,4.13,4.13,0,0,1-1.55,1A5.91,5.91,0,0,1,670,262.29Z"/><path d="M679.2,255.59v6.48h-2.12V251.16h2v1.77h.14a3.12,3.12,0,0,1,1.18-1.39,3.68,3.68,0,0,1,2-.52,4,4,0,0,1,1.95.46,3.16,3.16,0,0,1,1.3,1.38,5,5,0,0,1,.46,2.27v6.94h-2.12v-6.69a2.62,2.62,0,0,0-.62-1.85,2.19,2.19,0,0,0-1.7-.68,2.67,2.67,0,0,0-1.31.32,2.33,2.33,0,0,0-.9.94A3.08,3.08,0,0,0,679.2,255.59Z"/><path d="M689,262.07V251.16h2.12v10.91Zm.2-12.37,1.66-3.27h2.24l-2.2,3.27Z"/><path d="M696.76,260.08l-.1.77a12.48,12.48,0,0,1-.36,1.78c-.17.62-.34,1.19-.52,1.72s-.32.95-.44,1.27h-1.5c.06-.3.14-.69.25-1.19s.22-1.06.32-1.68.18-1.24.24-1.88l.07-.79Z"/><path d="M564.4,286.07V271.52h2.12v5.41h.13a5.72,5.72,0,0,1,.53-.79,3.25,3.25,0,0,1,1-.79,3.47,3.47,0,0,1,1.63-.33,4.3,4.3,0,0,1,2.36.66,4.51,4.51,0,0,1,1.63,1.93,8,8,0,0,1,0,6.05,4.52,4.52,0,0,1-1.62,1.94,4.18,4.18,0,0,1-2.35.68,3.48,3.48,0,0,1-1.62-.33,3.06,3.06,0,0,1-1-.79,5.48,5.48,0,0,1-.55-.79h-.18v1.7Zm2.08-5.46a5.67,5.67,0,0,0,.33,2,3.06,3.06,0,0,0,1,1.35,2.43,2.43,0,0,0,1.55.49,2.48,2.48,0,0,0,1.59-.51,3.2,3.2,0,0,0,1-1.38,5.54,5.54,0,0,0,.33-2,5.64,5.64,0,0,0-.32-1.94,3,3,0,0,0-1-1.35,2.82,2.82,0,0,0-3.16,0,2.82,2.82,0,0,0-1,1.33A5.5,5.5,0,0,0,566.48,280.61Z"/><path d="M578.87,271.52v14.55h-2.13V271.52Z"/><path d="M581.72,286.07V275.16h2.12v10.91Zm.2-12.37,1.66-3.27h2.24l-2.2,3.27Z"/><path d="M586.47,286.07v-1.46l5.91-7.51V277h-5.72v-1.84H595v1.55l-5.68,7.41v.1h5.88v1.85Zm2.84-15.34,1.47,1.91,1.45-1.91h1.93v.11l-2.5,3h-1.77l-2.49-3v-.11Z"/><path d="M597.73,286.07V275.16h2.12v10.91Zm.2-12.37,1.66-3.27h2.24l-2.2,3.27Z"/><path d="M608,290.16v-15h2.07v1.77h.18a5.72,5.72,0,0,1,.53-.79,3,3,0,0,1,1-.79,3.44,3.44,0,0,1,1.63-.33,4.3,4.3,0,0,1,2.36.66,4.58,4.58,0,0,1,1.63,1.93,8,8,0,0,1,0,6.05,4.52,4.52,0,0,1-1.62,1.94,4.18,4.18,0,0,1-2.35.68,3.48,3.48,0,0,1-1.62-.33,3.22,3.22,0,0,1-1-.79,5.33,5.33,0,0,1-.54-.79h-.13v5.79Zm2.08-9.55a5.67,5.67,0,0,0,.33,2,2.91,2.91,0,0,0,1,1.35,2.41,2.41,0,0,0,1.54.49,2.49,2.49,0,0,0,1.6-.51,3.28,3.28,0,0,0,1-1.38,5.77,5.77,0,0,0,.33-2,5.41,5.41,0,0,0-.33-1.94,3,3,0,0,0-1-1.35,2.58,2.58,0,0,0-1.61-.5,2.55,2.55,0,0,0-1.55.47,2.91,2.91,0,0,0-1,1.33A5.73,5.73,0,0,0,610.09,280.61Z"/><path d="M624.94,286.29a5,5,0,0,1-2.67-.71,4.7,4.7,0,0,1-1.78-2,7.29,7.29,0,0,1,0-5.93,4.72,4.72,0,0,1,1.78-2,5.46,5.46,0,0,1,5.35,0,4.79,4.79,0,0,1,1.78,2,7.29,7.29,0,0,1,0,5.93,4.76,4.76,0,0,1-1.78,2A5,5,0,0,1,624.94,286.29Zm0-1.79a2.56,2.56,0,0,0,1.65-.52,3.08,3.08,0,0,0,1-1.4,5.62,5.62,0,0,0,.31-1.93,5.69,5.69,0,0,0-.31-1.92,3.16,3.16,0,0,0-1-1.41,2.85,2.85,0,0,0-3.31,0,3.25,3.25,0,0,0-1,1.41,5.69,5.69,0,0,0-.32,1.92,5.62,5.62,0,0,0,.32,1.93,3.16,3.16,0,0,0,1,1.4A2.57,2.57,0,0,0,625,284.5Z"/><path d="M634.52,271.52v14.55H632.4V271.52Z"/><path d="M642,286.29a5,5,0,0,1-2.68-.71,4.74,4.74,0,0,1-1.77-2,7.19,7.19,0,0,1,0-5.93,4.77,4.77,0,0,1,1.77-2,5.48,5.48,0,0,1,5.36,0,4.77,4.77,0,0,1,1.77,2,7.29,7.29,0,0,1,0,5.93,4.74,4.74,0,0,1-1.77,2A5,5,0,0,1,642,286.29Zm0-1.79a2.52,2.52,0,0,0,1.64-.52,3.08,3.08,0,0,0,1-1.4,5.62,5.62,0,0,0,.32-1.93,5.69,5.69,0,0,0-.32-1.92,3.16,3.16,0,0,0-1-1.41,2.52,2.52,0,0,0-1.64-.53,2.58,2.58,0,0,0-1.66.53,3.27,3.27,0,0,0-1,1.41,5.69,5.69,0,0,0-.31,1.92,5.62,5.62,0,0,0,.31,1.93,3.18,3.18,0,0,0,1,1.4A2.57,2.57,0,0,0,642,284.5Z"/><path d="M658.75,275.16l-4,10.91h-2.28l-4-10.91h2.28l2.76,8.39h.12l2.75-8.39Z"/><path d="M661.82,273.47a1.32,1.32,0,0,1-1-.37,1.18,1.18,0,0,1-.39-.89,1.2,1.2,0,0,1,.39-.9,1.32,1.32,0,0,1,1-.37,1.34,1.34,0,0,1,.95.37,1.2,1.2,0,0,1,.39.9,1.18,1.18,0,0,1-.39.89A1.34,1.34,0,0,1,661.82,273.47Zm-1.07,12.6V275.16h2.12v10.91Z"/><path d="M667.85,279.59v6.48h-2.12V275.16h2v1.77h.14a3.12,3.12,0,0,1,1.18-1.39,3.68,3.68,0,0,1,2-.52,4,4,0,0,1,2,.46,3.16,3.16,0,0,1,1.3,1.38,5,5,0,0,1,.46,2.27v6.94h-2.12v-6.69a2.62,2.62,0,0,0-.62-1.85,2.19,2.19,0,0,0-1.7-.68,2.67,2.67,0,0,0-1.31.32,2.33,2.33,0,0,0-.9.94A3.08,3.08,0,0,0,667.85,279.59Z"/><path d="M682.37,286.29a5.23,5.23,0,0,1-2.77-.7,4.63,4.63,0,0,1-1.79-1.95,7.25,7.25,0,0,1,0-5.91,4.9,4.9,0,0,1,1.76-2,4.84,4.84,0,0,1,2.65-.71,5.38,5.38,0,0,1,1.79.3,4.23,4.23,0,0,1,1.56,1,4.53,4.53,0,0,1,1.09,1.69,7.27,7.27,0,0,1,.39,2.53v.75h-8.67v-1.59H685a3.15,3.15,0,0,0-.34-1.49,2.59,2.59,0,0,0-1-1,3,3,0,0,0-3,.06,3,3,0,0,0-1,1.13,3.27,3.27,0,0,0-.36,1.52v1.24a4.06,4.06,0,0,0,.39,1.86,2.67,2.67,0,0,0,1.08,1.17,3.14,3.14,0,0,0,1.62.4,3.54,3.54,0,0,0,1.11-.17,2.38,2.38,0,0,0,.85-.52,2.29,2.29,0,0,0,.56-.86l2,.36a3.65,3.65,0,0,1-.86,1.55,4.25,4.25,0,0,1-1.56,1A5.87,5.87,0,0,1,682.37,286.29Zm-1.69-15.56,1.47,1.91,1.45-1.91h1.93v.11l-2.5,3h-1.77l-2.49-3v-.11Z"/><path d="M690.82,286.2a1.42,1.42,0,0,1-1.42-1.42,1.36,1.36,0,0,1,.42-1,1.42,1.42,0,0,1,2,0,1.36,1.36,0,0,1,.42,1,1.33,1.33,0,0,1-.2.71,1.49,1.49,0,0,1-.51.52A1.33,1.33,0,0,1,690.82,286.2Z"/><line class="cls-5" x1="206.65" y1="161.13" x2="206.65" y2="176.04"/><polygon class="cls-6" points="202.56 172.73 203.29 172.05 206.64 175.66 210 172.05 210.73 172.73 206.64 177.13 202.56 172.73"/><rect class="cls-7" x="497.11" y="129.57" width="54.34" height="7.57"/><polyline class="cls-4" points="551.44 135.13 551.44 137.13 549.44 137.13"/><line class="cls-8" x1="545.57" y1="137.14" x2="501.04" y2="137.14"/><polyline class="cls-4" points="499.11 137.13 497.11 137.13 497.11 135.13"/><polyline class="cls-4" points="497.11 131.57 497.11 129.57 499.11 129.57"/><line class="cls-8" x1="502.98" y1="129.57" x2="547.51" y2="129.57"/><polyline class="cls-4" points="549.44 129.57 551.44 129.57 551.44 131.57"/><rect class="cls-9" x="497.11" y="300.63" width="54.34" height="54.5"/><polyline class="cls-4" points="551.44 353.13 551.44 355.13 549.44 355.13"/><line class="cls-8" x1="545.57" y1="355.13" x2="501.04" y2="355.13"/><polyline class="cls-4" points="499.11 355.13 497.11 355.13 497.11 353.13"/><line class="cls-10" x1="497.11" y1="349.25" x2="497.11" y2="304.58"/><polyline class="cls-4" points="497.11 302.63 497.11 300.63 499.11 300.63"/><line class="cls-8" x1="502.98" y1="300.63" x2="547.51" y2="300.63"/><polyline class="cls-4" points="549.44 300.63 551.44 300.63 551.44 302.63"/><line class="cls-10" x1="551.44" y1="306.52" x2="551.44" y2="351.19"/><rect class="cls-11" x="497.11" y="246.04" width="54.34" height="54.5"/><polyline class="cls-4" points="551.44 298.54 551.44 300.54 549.44 300.54"/><line class="cls-8" x1="545.57" y1="300.54" x2="501.04" y2="300.54"/><polyline class="cls-4" points="499.11 300.54 497.11 300.54 497.11 298.54"/><line class="cls-10" x1="497.11" y1="294.65" x2="497.11" y2="249.98"/><polyline class="cls-4" points="497.11 248.04 497.11 246.04 499.11 246.04"/><line class="cls-8" x1="502.98" y1="246.04" x2="547.51" y2="246.04"/><polyline class="cls-4" points="549.44 246.04 551.44 246.04 551.44 248.04"/><line class="cls-10" x1="551.44" y1="251.92" x2="551.44" y2="296.6"/><rect class="cls-12" x="497.11" y="191.57" width="54.34" height="54.5"/><polyline class="cls-4" points="551.44 244.07 551.44 246.07 549.44 246.07"/><line class="cls-8" x1="545.57" y1="246.07" x2="501.04" y2="246.07"/><polyline class="cls-4" points="499.11 246.07 497.11 246.07 497.11 244.07"/><line class="cls-10" x1="497.11" y1="240.18" x2="497.11" y2="195.51"/><polyline class="cls-4" points="497.11 193.57 497.11 191.57 499.11 191.57"/><line class="cls-8" x1="502.98" y1="191.57" x2="547.51" y2="191.57"/><polyline class="cls-4" points="549.44 191.57 551.44 191.57 551.44 193.57"/><line class="cls-10" x1="551.44" y1="197.45" x2="551.44" y2="242.12"/><rect class="cls-13" x="497.11" y="137.14" width="54.34" height="54.5"/><polyline class="cls-4" points="551.44 189.63 551.44 191.63 549.44 191.63"/><line class="cls-8" x1="545.57" y1="191.63" x2="501.04" y2="191.63"/><polyline class="cls-4" points="499.11 191.63 497.11 191.63 497.11 189.63"/><line class="cls-10" x1="497.11" y1="185.75" x2="497.11" y2="141.08"/><polyline class="cls-4" points="497.11 139.13 497.11 137.13 499.11 137.13"/><line class="cls-8" x1="502.98" y1="137.14" x2="547.51" y2="137.14"/><polyline class="cls-4" points="549.44 137.13 551.44 137.13 551.44 139.13"/><line class="cls-10" x1="551.44" y1="143.02" x2="551.44" y2="187.69"/><rect class="cls-4" x="497.11" y="129.57" width="54.34" height="225.56"/><rect class="cls-14" x="391.23" y="185.97" width="54.34" height="5.67"/><rect class="cls-15" x="391.23" y="300.63" width="54.34" height="54.5"/><rect class="cls-16" x="391.23" y="246.04" width="54.34" height="54.5"/><rect class="cls-12" x="391.23" y="191.57" width="54.34" height="54.5"/><polyline class="cls-4" points="445.57 244.07 445.57 246.07 443.57 246.07"/><line class="cls-8" x1="439.69" y1="246.07" x2="395.17" y2="246.07"/><polyline class="cls-4" points="393.23 246.07 391.23 246.07 391.23 244.07"/><line class="cls-10" x1="391.23" y1="240.18" x2="391.23" y2="195.51"/><polyline class="cls-4" points="391.23 193.57 391.23 191.57 393.23 191.57"/><line class="cls-8" x1="397.1" y1="191.57" x2="441.63" y2="191.57"/><polyline class="cls-4" points="443.57 191.57 445.57 191.57 445.57 193.57"/><line class="cls-10" x1="445.57" y1="197.45" x2="445.57" y2="242.12"/><rect class="cls-4" x="391.23" y="185.97" width="54.34" height="169.17"/><rect class="cls-16" x="285.35" y="251.92" width="54.34" height="48.61"/><rect class="cls-15" x="285.35" y="300.63" width="54.34" height="54.5"/><rect class="cls-4" x="285.35" y="251.92" width="54.34" height="103.21"/><rect class="cls-16" x="73.6" y="282.51" width="54.34" height="18.03"/><rect class="cls-15" x="73.6" y="300.63" width="54.34" height="54.5"/><rect class="cls-4" x="73.6" y="282.51" width="54.34" height="72.62"/><rect class="cls-16" x="179.48" y="246.04" width="54.34" height="54.5"/><rect class="cls-17" x="179.48" y="218.47" width="54.34" height="27.6"/><rect class="cls-15" x="179.48" y="300.63" width="54.34" height="54.5"/><rect class="cls-4" x="179.48" y="218.47" width="54.34" height="136.67"/></svg>