<svg id="Layer_1" data-name="Layer 1" xmlns="http://www.w3.org/2000/svg" viewBox="0 0 740 378.32"><defs><style>.cls-1{fill:#ff6b4d;}.cls-1,.cls-2,.cls-3,.cls-4,.cls-8,.cls-9{stroke:#000;}.cls-1,.cls-10,.cls-2,.cls-3,.cls-4,.cls-6,.cls-8,.cls-9{stroke-miterlimit:10;}.cls-2{fill:#ff8453;fill-opacity:0.93;}.cls-3{fill:#ff9e5a;fill-opacity:0.85;}.cls-4{fill:#ffb860;fill-opacity:0.78;}.cls-5{fill:gray;}.cls-10,.cls-6,.cls-8{fill:none;}.cls-6{stroke:gray;}.cls-7{fill:#333;}.cls-9{fill:#ffd166;fill-opacity:0.7;}.cls-10{stroke:#999;}.cls-11{fill:#999;}</style></defs><rect class="cls-1" x="497.11" y="99.57" width="54.34" height="7.57"/><rect class="cls-2" x="391.23" y="155.97" width="54.34" height="5.67"/><rect class="cls-3" x="179.48" y="188.47" width="54.34" height="27.6"/><rect class="cls-4" x="285.35" y="221.92" width="54.34" height="48.61"/><rect class="cls-4" x="73.6" y="252.51" width="54.34" height="18.03"/><path d="M142.78,22.39c0,3.88-2.24,6.16-6,6.16h-1.59V34.4h-3.69V16.2h5.28C140.54,16.2,142.78,18.49,142.78,22.39Zm-3.8,0c0-1.77-.78-2.68-2.26-2.68h-1.54V25h1.54C138.2,25,139,24.13,139,22.39Z"/><path d="M147.19,28.5V22.11c0-3.9,2.22-6.22,5.91-6.22s5.9,2.32,5.9,6.22V28.5c0,3.9-2.21,6.22-5.9,6.22S147.19,32.4,147.19,28.5Zm8,0V22.11c0-1.72-.71-2.63-2.08-2.63s-2.08.91-2.08,2.63V28.5c0,1.72.7,2.63,2.08,2.63S155.18,30.22,155.18,28.5Z"/><path d="M164.3,16.2h5c3.67,0,5.83,2.24,5.83,6v6c0,3.88-2.13,6.16-5.77,6.16h-5Zm5,14.69c1.32,0,2-.91,2-2.65v-6c0-1.67-.7-2.53-2-2.53H168V30.89Z"/><path d="M180.42,16.2h3.69V34.4h-3.69Zm2.52-5.3h2.94l-2.94,3.56H180.5Z"/><path d="M199,30.89V34.4h-9.1V16.2h3.69V30.89Z"/><path d="M211.21,16.2h5c3.66,0,5.82,2.24,5.82,6v6c0,3.88-2.13,6.16-5.77,6.16h-5Zm5,14.69c1.33,0,2-.91,2-2.65v-6c0-1.67-.7-2.53-2-2.53H214.9V30.89Z"/><path d="M232.32,28.29H231V34.4h-3.7V16.2h5.28c3.62,0,5.75,2.24,5.75,6.06,0,2.47-.91,4.29-2.52,5.25l3.43,6.89h-4ZM231,24.78h1.53c1.3,0,2-.88,2-2.52s-.7-2.55-2-2.55H231Z"/><path d="M243.29,28.61V16.2h3.77V28.61c0,1.63.65,2.52,1.95,2.52s2-.89,2-2.52V16.2h3.77V28.61c0,3.82-2.13,6.11-5.72,6.11S243.29,32.43,243.29,28.61Z"/><path d="M271.42,16.2V34.4H267.7V27H264V34.4h-3.72V16.2H264v7.28h3.74V16.2Z"/><path d="M276.93,28.61V16.2h3.77V28.61c0,1.63.65,2.52,1.95,2.52s2-.89,2-2.52V16.2h3.77V28.61c0,3.82-2.13,6.11-5.72,6.11S276.93,32.43,276.93,28.61Zm3.43-16.38a2.4,2.4,0,0,1,4.79,0,2.4,2.4,0,0,1-4.79,0Zm3.25,0a.86.86,0,1,0-.85.86A.8.8,0,0,0,283.61,12.25Z"/><path d="M301.16,28.5V22.11c0-3.9,2.21-6.22,5.91-6.22s5.9,2.32,5.9,6.22V28.5c0,3.9-2.21,6.22-5.9,6.22S301.16,32.4,301.16,28.5Zm8,0V22.11c0-1.72-.71-2.63-2.08-2.63s-2.08.91-2.08,2.63V28.5c0,1.72.7,2.63,2.08,2.63S309.15,30.22,309.15,28.5Z"/><path d="M329.45,16.2V34.4h-3.72V27H322V34.4h-3.72V16.2H322v7.28h3.74V16.2Z"/><path d="M340.27,28.29H339V34.4h-3.69V16.2h5.27c3.62,0,5.75,2.24,5.75,6.06,0,2.47-.91,4.29-2.52,5.25l3.43,6.89h-4ZM339,24.78h1.53c1.3,0,2-.88,2-2.52s-.7-2.55-2-2.55H339Z"/><path d="M351,28.5V22.11c0-3.9,2.21-6.22,5.9-6.22s5.91,2.32,5.91,6.22V28.5c0,3.9-2.21,6.22-5.91,6.22S351,32.4,351,28.5Zm8,0V22.11c0-1.72-.7-2.63-2.08-2.63s-2.08.91-2.08,2.63V28.5c0,1.72.71,2.63,2.08,2.63S359,30.22,359,28.5Z"/><path d="M377.29,30.89V34.4H366.86V31.93l5.78-12.22h-5.33V16.2h9.85v2.55l-5.72,12.14ZM371,14.46l-2.11-3.56h2.32l1.14,1.74,1.12-1.74h2.31l-2.1,3.56Z"/><path d="M391.64,30.89V34.4H382V16.2h9.38v3.51h-5.69v3.77h5.17v3.38h-5.17v4Z"/><path d="M396.76,16.2h3.65l3.45,7.91c.45,1.14.86,2.34,1.3,3.48l.08-.08a63.12,63.12,0,0,1-.52-7.09V16.2h3.64V34.4h-3.64l-3.07-7L400,22.91l-.07.08a75.62,75.62,0,0,1,.47,7.72V34.4h-3.65Z"/><path d="M416.86,29l-4.29-12.8h3.82l1.49,5.05c.18.6.59,2,.78,2.91h.1c.21-.88.62-2.31.83-3l1.43-5h3.83L420.55,29v5.4h-3.69Zm2.5-18.1h2.94l-2.94,3.56h-2.45Z"/><path d="M428.54,28.84V21.77c0-3.85,2.08-5.93,5.64-5.93s5.67,2.08,5.8,5.93h-3.7c-.1-1.67-.72-2.34-2.13-2.34-1.12,0-1.77.73-1.77,2.34v7.07c0,1.56.63,2.29,1.77,2.29,1.43,0,2.08-.68,2.19-2.29H440c-.08,3.82-2.19,5.88-5.88,5.88C430.62,34.72,428.54,32.66,428.54,28.84Z"/><path d="M455.94,16.2V34.4h-3.72V27h-3.74V34.4h-3.72V16.2h3.72v7.28h3.74V16.2Z"/><path d="M468,16.2h3.82l1.64,8.61c.26,1.33.57,3.56.75,5.07h.11c.18-1.51.49-3.74.75-5.07l1.64-8.61h3.82l-4.31,18.2h-3.9Z"/><path d="M487.53,29l-4.29-12.8h3.82l1.48,5.05c.19.6.6,2,.78,2.91h.11c.21-.88.62-2.31.83-3l1.43-5h3.82L491.22,29v5.4h-3.69Z"/><path d="M510.9,16.2V34.4h-3.71V27h-3.75V34.4h-3.72V16.2h3.72v7.28h3.75V16.2Z"/><path d="M516.41,28.61V16.2h3.78V28.61c0,1.63.65,2.52,1.95,2.52s2-.89,2-2.52V16.2h3.77V28.61c0,3.82-2.14,6.11-5.72,6.11S516.41,32.43,516.41,28.61Z"/><path d="M544.47,29a5.15,5.15,0,0,1-5.36,5.43h-5.74V16.2H539c2.81,0,4.82,2.08,4.82,5.18a5.23,5.23,0,0,1-1.54,3.72A4.4,4.4,0,0,1,544.47,29Zm-7.41-9.28v3.79h1.46c1,0,1.58-.67,1.58-1.95s-.52-1.84-1.72-1.84Zm3.61,9.25c0-1.32-.75-2-2.13-2h-1.48v4h1.4C539.92,30.92,540.67,30.24,540.67,28.94Z"/><path d="M558.9,30.89V34.4h-9.65V16.2h9.39v3.51H553v3.77h5.17v3.38H553v4Z"/><path d="M564,16.2h3.64l3.46,7.91c.44,1.14.86,2.34,1.3,3.48l.08-.08a60.84,60.84,0,0,1-.52-7.09V16.2h3.64V34.4H572l-3.07-7-1.64-4.45-.08.08a72.86,72.86,0,0,1,.47,7.72V34.4H564Z"/><path d="M581.44,16.2h3.69V34.4h-3.69ZM584,10.9h2.94L584,14.46h-2.44Z"/><path d="M606.61,16.2V34.4H603V29.93c.11-2.21.19-4.42.29-6.63l-.13-.05L601.51,28l-.91,2.47H597L596.05,28l-1.64-4.78-.13.05c.08,2.21.19,4.42.26,6.63V34.4H591V16.2h3.71l2.86,6.89c.37.91,1,2.5,1.2,3.18h.1c.21-.68.84-2.27,1.2-3.18l2.86-6.89Z"/><path class="cls-5" d="M15.54,161H16.7a2.06,2.06,0,0,0,1.39-.45,1.63,1.63,0,0,0,.51-1.29,1.74,1.74,0,0,0-.43-1.26,1.71,1.71,0,0,0-1.3-.45,1.84,1.84,0,0,0-1.26.44,1.48,1.48,0,0,0-.49,1.16h-1.9a2.88,2.88,0,0,1,.47-1.6A3.14,3.14,0,0,1,15,156.47a4.24,4.24,0,0,1,1.87-.4,3.91,3.91,0,0,1,2.67.85,3,3,0,0,1,1,2.38,2.45,2.45,0,0,1-.49,1.44,3.14,3.14,0,0,1-1.26,1,2.8,2.8,0,0,1,1.42,1,2.74,2.74,0,0,1,.49,1.64,3.07,3.07,0,0,1-1.05,2.44,4.1,4.1,0,0,1-2.76.91,4.07,4.07,0,0,1-2.69-.88,2.88,2.88,0,0,1-1.05-2.33H15a1.58,1.58,0,0,0,.51,1.22,1.9,1.9,0,0,0,1.35.47,2,2,0,0,0,1.39-.47,1.74,1.74,0,0,0,.51-1.36,1.78,1.78,0,0,0-.53-1.38,2.3,2.3,0,0,0-1.58-.49H15.54Z"/><path class="cls-5" d="M29.86,162.81a6.21,6.21,0,0,1-.92,3.7,3.27,3.27,0,0,1-2.8,1.25,3.27,3.27,0,0,1-2.77-1.22,5.92,5.92,0,0,1-1-3.6v-2a6.14,6.14,0,0,1,.92-3.68,3.28,3.28,0,0,1,2.8-1.22,3.3,3.3,0,0,1,2.78,1.19,5.91,5.91,0,0,1,.95,3.58ZM28,160.69a4.81,4.81,0,0,0-.44-2.35,1.67,1.67,0,0,0-2.76,0,4.53,4.53,0,0,0-.46,2.21v2.57a4.89,4.89,0,0,0,.45,2.38,1.64,1.64,0,0,0,2.75.06,4.72,4.72,0,0,0,.46-2.26Z"/><path class="cls-5" d="M35.44,158.41a2.25,2.25,0,0,1,.67-1.69,2.41,2.41,0,0,1,4.15,1.73V159a2.24,2.24,0,0,1-.66,1.68,2.35,2.35,0,0,1-1.74.66,2.45,2.45,0,0,1-1.74-.65,2.26,2.26,0,0,1-.68-1.73Zm1.33.6a1.24,1.24,0,0,0,.3.87,1,1,0,0,0,.79.34,1,1,0,0,0,.78-.34,1.29,1.29,0,0,0,.3-.9v-.57a1.27,1.27,0,0,0-.3-.88,1.09,1.09,0,0,0-1.58,0,1.37,1.37,0,0,0-.29.9Zm1.48,7.74-1-.56,5.55-8.9,1,.57Zm2.66-1.94a2.27,2.27,0,0,1,.68-1.7,2.67,2.67,0,0,1,3.47,0,2.33,2.33,0,0,1,.68,1.75v.56a2.32,2.32,0,0,1-.65,1.68,2.66,2.66,0,0,1-3.51,0,2.27,2.27,0,0,1-.67-1.72Zm1.33.6a1.2,1.2,0,0,0,.31.87,1.1,1.1,0,0,0,1.57,0,1.29,1.29,0,0,0,.29-.91v-.59a1.24,1.24,0,0,0-.3-.87,1,1,0,0,0-.79-.33,1,1,0,0,0-.78.33,1.29,1.29,0,0,0-.3.9Z"/><path class="cls-5" d="M21,222H13.35v-1.3l3.79-4.14a9.59,9.59,0,0,0,1.16-1.52,2.4,2.4,0,0,0,.35-1.23,1.9,1.9,0,0,0-.45-1.32A1.62,1.62,0,0,0,17,212a1.82,1.82,0,0,0-1.43.57,2.23,2.23,0,0,0-.5,1.54h-1.9a3.8,3.8,0,0,1,.47-1.88A3.36,3.36,0,0,1,15,211a4.28,4.28,0,0,1,2-.46,3.86,3.86,0,0,1,2.61.83,2.89,2.89,0,0,1,1,2.3,3.91,3.91,0,0,1-.48,1.79,10.09,10.09,0,0,1-1.57,2.12l-2.79,3H21Z"/><path class="cls-5" d="M29.86,217.25a6.21,6.21,0,0,1-.92,3.7,3.27,3.27,0,0,1-2.8,1.25A3.27,3.27,0,0,1,23.37,221a5.91,5.91,0,0,1-1-3.59v-2a6.1,6.1,0,0,1,.92-3.68,3.26,3.26,0,0,1,2.8-1.23,3.28,3.28,0,0,1,2.78,1.2,5.85,5.85,0,0,1,.95,3.57ZM28,215.13a4.84,4.84,0,0,0-.44-2.35,1.67,1.67,0,0,0-2.76,0A4.53,4.53,0,0,0,24.3,215v2.58a4.88,4.88,0,0,0,.45,2.37,1.64,1.64,0,0,0,2.75.06A4.72,4.72,0,0,0,28,217.7Z"/><path class="cls-5" d="M35.44,212.85a2.27,2.27,0,0,1,.67-1.69,2.41,2.41,0,0,1,4.15,1.73v.57a2.28,2.28,0,0,1-.66,1.68,2.39,2.39,0,0,1-1.74.65,2.44,2.44,0,0,1-1.74-.64,2.3,2.3,0,0,1-.68-1.74Zm1.33.6a1.29,1.29,0,0,0,.3.88,1,1,0,0,0,.79.33,1,1,0,0,0,.78-.33,1.33,1.33,0,0,0,.3-.91v-.57a1.29,1.29,0,0,0-.3-.88,1,1,0,0,0-.79-.33,1,1,0,0,0-.79.34,1.32,1.32,0,0,0-.29.89Zm1.48,7.74-1-.56,5.55-8.89,1,.56Zm2.66-1.94a2.23,2.23,0,0,1,.68-1.69,2.64,2.64,0,0,1,3.47,0,2.3,2.3,0,0,1,.68,1.75v.55a2.31,2.31,0,0,1-.65,1.68,2.36,2.36,0,0,1-1.75.66,2.42,2.42,0,0,1-1.76-.65,2.3,2.3,0,0,1-.67-1.73Zm1.33.6a1.25,1.25,0,0,0,.31.88,1,1,0,0,0,.79.34,1,1,0,0,0,.78-.33,1.28,1.28,0,0,0,.29-.91v-.59a1.24,1.24,0,0,0-.3-.87,1,1,0,0,0-.79-.33,1,1,0,0,0-.78.33,1.3,1.3,0,0,0-.3.91Z"/><path class="cls-5" d="M18.49,276.48H16.6v-9.14l-2.79,1v-1.6l4.44-1.63h.24Z"/><path class="cls-5" d="M29.86,271.69a6.21,6.21,0,0,1-.92,3.7,3.27,3.27,0,0,1-2.8,1.25,3.27,3.27,0,0,1-2.77-1.22,5.89,5.89,0,0,1-1-3.59v-2a6.12,6.12,0,0,1,.92-3.68,3.26,3.26,0,0,1,2.8-1.23,3.28,3.28,0,0,1,2.78,1.2,5.88,5.88,0,0,1,.95,3.58ZM28,269.57a4.84,4.84,0,0,0-.44-2.35,1.68,1.68,0,0,0-2.76,0,4.53,4.53,0,0,0-.46,2.21V272a4.88,4.88,0,0,0,.45,2.37,1.64,1.64,0,0,0,2.75.06,4.69,4.69,0,0,0,.46-2.26Z"/><path class="cls-5" d="M35.44,267.3a2.28,2.28,0,0,1,.67-1.7,2.41,2.41,0,0,1,4.15,1.73v.57a2.28,2.28,0,0,1-.66,1.68,2.39,2.39,0,0,1-1.74.65,2.44,2.44,0,0,1-1.74-.64,2.3,2.3,0,0,1-.68-1.74Zm1.33.59a1.27,1.27,0,0,0,.3.88,1,1,0,0,0,.79.33,1,1,0,0,0,.78-.33,1.31,1.31,0,0,0,.3-.91v-.57a1.29,1.29,0,0,0-.3-.88,1,1,0,0,0-.79-.33,1,1,0,0,0-.79.34,1.34,1.34,0,0,0-.29.89Zm1.48,7.74-1-.56,5.55-8.89,1,.56Zm2.66-1.94a2.24,2.24,0,0,1,.68-1.69,2.64,2.64,0,0,1,3.47,0,2.3,2.3,0,0,1,.68,1.75v.55a2.31,2.31,0,0,1-.65,1.68,2.36,2.36,0,0,1-1.75.66,2.42,2.42,0,0,1-1.76-.65,2.3,2.3,0,0,1-.67-1.73Zm1.33.61a1.24,1.24,0,0,0,.31.87,1,1,0,0,0,.79.34,1,1,0,0,0,.78-.33,1.28,1.28,0,0,0,.29-.91v-.58a1.25,1.25,0,0,0-.3-.88,1,1,0,0,0-.79-.33,1,1,0,0,0-.78.33,1.3,1.3,0,0,0-.3.91Z"/><path class="cls-5" d="M28.28,326.14a6.25,6.25,0,0,1-.92,3.7,3.23,3.23,0,0,1-2.79,1.24,3.28,3.28,0,0,1-2.78-1.21,6,6,0,0,1-1-3.6v-2a6.12,6.12,0,0,1,.92-3.68,3.27,3.27,0,0,1,2.8-1.23,3.3,3.3,0,0,1,2.79,1.2,6,6,0,0,1,.94,3.58ZM26.38,324a4.84,4.84,0,0,0-.44-2.35,1.68,1.68,0,0,0-2.76,0,4.56,4.56,0,0,0-.46,2.21v2.58a4.88,4.88,0,0,0,.45,2.37,1.62,1.62,0,0,0,2.75.06,4.69,4.69,0,0,0,.46-2.26Z"/><path class="cls-5" d="M33.86,321.74a2.25,2.25,0,0,1,.67-1.69,2.64,2.64,0,0,1,3.49,0,2.33,2.33,0,0,1,.66,1.73v.56A2.28,2.28,0,0,1,38,324a2.35,2.35,0,0,1-1.74.66,2.41,2.41,0,0,1-1.73-.65,2.27,2.27,0,0,1-.69-1.74Zm1.33.6a1.24,1.24,0,0,0,.3.87,1,1,0,0,0,.79.33,1,1,0,0,0,.79-.33,1.33,1.33,0,0,0,.29-.9v-.58a1.24,1.24,0,0,0-.3-.87,1.09,1.09,0,0,0-1.58,0,1.37,1.37,0,0,0-.29.9Zm1.49,7.73-1-.56,5.55-8.89,1,.56Zm2.65-1.93a2.25,2.25,0,0,1,.68-1.7,2.64,2.64,0,0,1,3.47,0,2.32,2.32,0,0,1,.68,1.75v.56a2.3,2.3,0,0,1-.65,1.67,2.36,2.36,0,0,1-1.75.66,2.43,2.43,0,0,1-1.76-.65,2.29,2.29,0,0,1-.67-1.72Zm1.33.6a1.24,1.24,0,0,0,.31.87,1.1,1.1,0,0,0,1.58,0,1.31,1.31,0,0,0,.28-.91v-.58a1.25,1.25,0,0,0-.3-.88,1,1,0,0,0-.78-.32,1,1,0,0,0-.79.32,1.3,1.3,0,0,0-.3.91Z"/><path class="cls-5" d="M19.77,109.1h1.41v1.53H19.77v2.53h-1.9v-2.53H13l-.06-1.16,4.91-7.69h2Zm-4.88,0h3v-4.75l-.14.25Z"/><path class="cls-5" d="M29.86,108.37a6.23,6.23,0,0,1-.92,3.7,3.26,3.26,0,0,1-2.8,1.24,3.26,3.26,0,0,1-2.77-1.21,5.92,5.92,0,0,1-1-3.6v-2a6.14,6.14,0,0,1,.92-3.68,3.25,3.25,0,0,1,2.8-1.22,3.27,3.27,0,0,1,2.78,1.19,5.91,5.91,0,0,1,.95,3.58ZM28,106.24a4.79,4.79,0,0,0-.44-2.34,1.67,1.67,0,0,0-2.76,0,4.48,4.48,0,0,0-.46,2.2v2.58a4.92,4.92,0,0,0,.45,2.38,1.63,1.63,0,0,0,2.75,0,4.69,4.69,0,0,0,.46-2.26Z"/><path class="cls-5" d="M35.44,104a2.25,2.25,0,0,1,.67-1.69,2.64,2.64,0,0,1,3.49,0,2.33,2.33,0,0,1,.66,1.73v.56a2.28,2.28,0,0,1-.66,1.68,2.35,2.35,0,0,1-1.74.66,2.45,2.45,0,0,1-1.74-.65,2.3,2.3,0,0,1-.68-1.74Zm1.33.6a1.24,1.24,0,0,0,.3.87,1,1,0,0,0,.79.33,1,1,0,0,0,.78-.33,1.29,1.29,0,0,0,.3-.9V104a1.24,1.24,0,0,0-.3-.87,1.09,1.09,0,0,0-1.58,0,1.37,1.37,0,0,0-.29.9Zm1.48,7.74-1-.57,5.55-8.89,1,.56Zm2.66-1.94a2.27,2.27,0,0,1,.68-1.7,2.64,2.64,0,0,1,3.47,0,2.33,2.33,0,0,1,.68,1.75V111a2.3,2.3,0,0,1-.65,1.67,2.68,2.68,0,0,1-3.51,0,2.27,2.27,0,0,1-.67-1.72Zm1.33.6a1.24,1.24,0,0,0,.31.87,1.1,1.1,0,0,0,1.57,0,1.29,1.29,0,0,0,.29-.91v-.59a1.23,1.23,0,0,0-.3-.87,1,1,0,0,0-.79-.33,1,1,0,0,0-.78.33,1.27,1.27,0,0,0-.3.9Z"/><line class="cls-6" x1="51.5" y1="325.13" x2="56.09" y2="325.13"/><line class="cls-6" x1="51.5" y1="270.63" x2="56.09" y2="270.63"/><line class="cls-6" x1="51.5" y1="216.13" x2="56.09" y2="216.13"/><line class="cls-6" x1="51.5" y1="161.63" x2="56.09" y2="161.63"/><line class="cls-6" x1="51.5" y1="107.13" x2="56.09" y2="107.13"/><path class="cls-7" d="M83.53,355.38v5H81.85v-12.8h4.72a4.73,4.73,0,0,1,3.29,1.08,3.64,3.64,0,0,1,1.19,2.84,3.6,3.6,0,0,1-1.17,2.87,4.94,4.94,0,0,1-3.33,1Zm0-1.38h3a3,3,0,0,0,2.07-.64,2.32,2.32,0,0,0,.72-1.84,2.42,2.42,0,0,0-.72-1.83,2.85,2.85,0,0,0-2-.72H83.53Z"/><path class="cls-7" d="M95.15,348.58v2.3h1.78v1.26H95.15V358a1.32,1.32,0,0,0,.24.86,1,1,0,0,0,.81.29,4,4,0,0,0,.77-.11v1.31a4.61,4.61,0,0,1-1.25.18,2,2,0,0,1-1.64-.66,2.84,2.84,0,0,1-.55-1.87v-5.9H91.79v-1.26h1.74v-2.3Z"/><path class="cls-7" d="M104.7,360.39a3.26,3.26,0,0,1-.23-1,3.66,3.66,0,0,1-2.71,1.18,3.36,3.36,0,0,1-2.31-.8,2.57,2.57,0,0,1-.9-2,2.69,2.69,0,0,1,1.13-2.3,5.32,5.32,0,0,1,3.18-.82h1.58v-.75a1.83,1.83,0,0,0-.51-1.36,2,2,0,0,0-1.5-.5,2.38,2.38,0,0,0-1.46.43,1.32,1.32,0,0,0-.59,1.07H98.75a2.23,2.23,0,0,1,.5-1.38,3.56,3.56,0,0,1,1.37-1.05,4.59,4.59,0,0,1,1.91-.38,3.74,3.74,0,0,1,2.57.82,3,3,0,0,1,1,2.26v4.38a5.38,5.38,0,0,0,.33,2.08v.14Zm-2.7-1.24a2.9,2.9,0,0,0,1.45-.39,2.39,2.39,0,0,0,1-1v-2h-1.27c-2,0-3,.58-3,1.75a1.47,1.47,0,0,0,.51,1.19A2,2,0,0,0,102,359.15Zm1.5-12.26h2l-2.36,2.59h-1.3Z"/><path class="cls-7" d="M112.43,359.24a2.34,2.34,0,0,0,1.52-.53,1.8,1.8,0,0,0,.72-1.32h1.54a3,3,0,0,1-.56,1.56,3.83,3.83,0,0,1-1.39,1.18,4,4,0,0,1-1.83.44,3.92,3.92,0,0,1-3.09-1.3,5.19,5.19,0,0,1-1.14-3.55v-.27a5.74,5.74,0,0,1,.5-2.47,3.89,3.89,0,0,1,1.47-1.68,4.13,4.13,0,0,1,2.25-.59,3.85,3.85,0,0,1,2.66,1,3.43,3.43,0,0,1,1.13,2.49h-1.54a2.19,2.19,0,0,0-.7-1.51,2.15,2.15,0,0,0-1.55-.6,2.3,2.3,0,0,0-1.92.89,4.24,4.24,0,0,0-.68,2.58v.31a4.1,4.1,0,0,0,.68,2.53A2.28,2.28,0,0,0,112.43,359.24Z"/><path class="cls-7" d="M118.05,348.36a1,1,0,0,1,.24-.67.91.91,0,0,1,.72-.27.94.94,0,0,1,.72.27,1,1,0,0,1,.24.67,1,1,0,0,1-.24.66,1,1,0,0,1-.72.26,1,1,0,0,1-.72-.26A1,1,0,0,1,118.05,348.36Zm1.76,12h-1.63v-9.51h1.63Z"/><path class="cls-7" d="M394.39,355.38v5H392.7v-12.8h4.72a4.71,4.71,0,0,1,3.29,1.08,4.06,4.06,0,0,1,0,5.71,5,5,0,0,1-3.34,1Zm0-1.38h3a3,3,0,0,0,2.07-.64,2.32,2.32,0,0,0,.72-1.84,2.42,2.42,0,0,0-.72-1.83,2.84,2.84,0,0,0-2-.72h-3.13Z"/><path class="cls-7" d="M409.67,360.39a3.59,3.59,0,0,1-.23-1,3.64,3.64,0,0,1-2.7,1.18,3.36,3.36,0,0,1-2.31-.8,2.57,2.57,0,0,1-.9-2,2.66,2.66,0,0,1,1.13-2.3,5.29,5.29,0,0,1,3.17-.82h1.59v-.75a1.83,1.83,0,0,0-.51-1.36,2,2,0,0,0-1.51-.5,2.4,2.4,0,0,0-1.46.43,1.31,1.31,0,0,0-.58,1.07h-1.64a2.25,2.25,0,0,1,.51-1.38,3.42,3.42,0,0,1,1.37-1.05,4.54,4.54,0,0,1,1.9-.38,3.72,3.72,0,0,1,2.57.82,2.92,2.92,0,0,1,1,2.26v4.38a5.18,5.18,0,0,0,.34,2.08v.14Zm-2.7-1.24a2.87,2.87,0,0,0,1.45-.39,2.47,2.47,0,0,0,1-1v-2h-1.28c-2,0-3,.58-3,1.75a1.47,1.47,0,0,0,.51,1.19A2,2,0,0,0,407,359.15Z"/><path class="cls-7" d="M418.19,352.34a5.1,5.1,0,0,0-.8-.06,2.13,2.13,0,0,0-2.17,1.36v6.75h-1.63v-9.51h1.58l0,1.1a2.53,2.53,0,0,1,2.27-1.27,1.73,1.73,0,0,1,.72.12Z"/><path class="cls-7" d="M422.79,358l2.22-7.13h1.74l-3.83,11q-.89,2.37-2.82,2.37l-.3,0-.61-.12v-1.32l.44,0a2.13,2.13,0,0,0,1.29-.34,2.46,2.46,0,0,0,.76-1.22l.36-1-3.4-9.41h1.78Z"/><path class="cls-7" d="M436.25,355.74a5.7,5.7,0,0,1-1,3.5,3.2,3.2,0,0,1-2.69,1.33,3.33,3.33,0,0,1-2.79-1.28l-.08,1.1H428.2v-13.5h1.62v5a3.3,3.3,0,0,1,2.72-1.22,3.21,3.21,0,0,1,2.72,1.31,5.79,5.79,0,0,1,1,3.58Zm-1.63-.18A4.38,4.38,0,0,0,434,353a2.12,2.12,0,0,0-1.84-.9,2.38,2.38,0,0,0-2.32,1.49v4.11a2.46,2.46,0,0,0,2.33,1.5,2.1,2.1,0,0,0,1.82-.91A4.61,4.61,0,0,0,434.62,355.56Z"/><path class="cls-7" d="M441.41,358l2.21-7.13h1.74l-3.82,11q-.89,2.37-2.82,2.37l-.31,0-.61-.12v-1.32l.44,0a2.13,2.13,0,0,0,1.29-.34,2.4,2.4,0,0,0,.76-1.22l.36-1-3.39-9.41H439Z"/><path class="cls-7" d="M88.43,238.37H86.3V228.09l-3.14,1.07v-1.79l5-1.84h.27Z"/><path class="cls-7" d="M95.35,231h1.3a2.39,2.39,0,0,0,1.56-.51,1.84,1.84,0,0,0,.57-1.45,2,2,0,0,0-.48-1.42,1.9,1.9,0,0,0-1.46-.51,2.07,2.07,0,0,0-1.42.5,1.68,1.68,0,0,0-.55,1.29H92.74a3.23,3.23,0,0,1,.52-1.79,3.47,3.47,0,0,1,1.46-1.26,4.75,4.75,0,0,1,2.09-.45,4.4,4.4,0,0,1,3,1,3.37,3.37,0,0,1,1.1,2.68,2.77,2.77,0,0,1-.55,1.62A3.47,3.47,0,0,1,99,231.81a3,3,0,0,1,2.15,3,3.44,3.44,0,0,1-1.18,2.75,4.59,4.59,0,0,1-3.11,1,4.52,4.52,0,0,1-3-1,3.22,3.22,0,0,1-1.18-2.62h2.14a1.79,1.79,0,0,0,.56,1.37,2.13,2.13,0,0,0,1.53.53,2.17,2.17,0,0,0,1.56-.53,2.31,2.31,0,0,0,0-3.08,2.58,2.58,0,0,0-1.78-.55H95.35Z"/><path class="cls-7" d="M107.5,228a2.57,2.57,0,0,1,.75-1.9,3,3,0,0,1,3.93,0,2.63,2.63,0,0,1,.74,2v.63a2.52,2.52,0,0,1-.74,1.89,2.65,2.65,0,0,1-2,.74,2.7,2.7,0,0,1-2-.73,2.55,2.55,0,0,1-.77-2Zm1.49.68a1.44,1.44,0,0,0,.34,1,1.17,1.17,0,0,0,.9.38,1.11,1.11,0,0,0,.87-.38,1.45,1.45,0,0,0,.34-1V228a1.47,1.47,0,0,0-.34-1,1.15,1.15,0,0,0-.89-.38,1.11,1.11,0,0,0-.89.39,1.53,1.53,0,0,0-.33,1Zm1.67,8.7-1.09-.63,6.25-10,1.09.63Zm3-2.18a2.5,2.5,0,0,1,.77-1.9,2.7,2.7,0,0,1,2-.73,2.66,2.66,0,0,1,1.95.73,2.57,2.57,0,0,1,.76,2v.63a2.55,2.55,0,0,1-.73,1.88,2.61,2.61,0,0,1-2,.75,2.75,2.75,0,0,1-2-.74,2.58,2.58,0,0,1-.75-1.94Zm1.5.68a1.41,1.41,0,0,0,.34,1,1.18,1.18,0,0,0,.9.38,1.12,1.12,0,0,0,.88-.36,1.55,1.55,0,0,0,.32-1v-.66a1.38,1.38,0,0,0-.34-1,1.13,1.13,0,0,0-.88-.37,1.12,1.12,0,0,0-.88.37,1.45,1.45,0,0,0-.34,1Z"/><path class="cls-7" d="M488.76,354.41a8,8,0,0,1-.63,3.28,4.81,4.81,0,0,1-1.79,2.14,5,5,0,0,1-2.71.74,4.79,4.79,0,0,1-4.49-2.86,7.45,7.45,0,0,1-.67-3.19v-.92a7.93,7.93,0,0,1,.64-3.26,4.75,4.75,0,0,1,4.5-2.92,5,5,0,0,1,2.72.74,4.77,4.77,0,0,1,1.8,2.16,7.93,7.93,0,0,1,.63,3.28Zm-1.67-.83a5.71,5.71,0,0,0-.92-3.49,3,3,0,0,0-2.56-1.22,3,3,0,0,0-2.51,1.22,5.56,5.56,0,0,0-1,3.38v.94a5.71,5.71,0,0,0,.93,3.46,3,3,0,0,0,2.55,1.26,3,3,0,0,0,2.53-1.19,5.69,5.69,0,0,0,.93-3.41Z"/><path class="cls-7" d="M499.09,355.74a5.64,5.64,0,0,1-1,3.5,3.18,3.18,0,0,1-2.69,1.33,3.33,3.33,0,0,1-2.79-1.28l-.08,1.1H491v-13.5h1.63v5a3.27,3.27,0,0,1,2.71-1.22A3.2,3.2,0,0,1,498.1,352a5.79,5.79,0,0,1,1,3.58Zm-1.62-.18a4.37,4.37,0,0,0-.65-2.57,2.11,2.11,0,0,0-1.84-.9,2.38,2.38,0,0,0-2.31,1.49v4.11a2.44,2.44,0,0,0,2.33,1.5,2.11,2.11,0,0,0,1.82-.91A4.68,4.68,0,0,0,497.47,355.56Z"/><path class="cls-7" d="M500.71,355.55a5.62,5.62,0,0,1,.55-2.52,4.07,4.07,0,0,1,1.53-1.72,4.18,4.18,0,0,1,2.23-.6,4,4,0,0,1,3.15,1.34,5.18,5.18,0,0,1,1.2,3.58v.11a5.56,5.56,0,0,1-.54,2.49,4,4,0,0,1-1.52,1.72,4.17,4.17,0,0,1-2.27.62,4,4,0,0,1-3.13-1.35,5.13,5.13,0,0,1-1.2-3.56Zm1.63.19a4.06,4.06,0,0,0,.74,2.54,2.48,2.48,0,0,0,3.93,0,4.44,4.44,0,0,0,.73-2.72A4.12,4.12,0,0,0,507,353a2.4,2.4,0,0,0-2-1,2.33,2.33,0,0,0-1.94,1A4.42,4.42,0,0,0,502.34,355.74Z"/><path class="cls-7" d="M513.08,350.88v10.61c0,1.83-.83,2.74-2.48,2.74a3,3,0,0,1-1-.16v-1.29a3,3,0,0,0,.74.07,1.13,1.13,0,0,0,.83-.29,1.47,1.47,0,0,0,.29-1V350.88Zm-1.79-2.52a1,1,0,0,1,.24-.66.88.88,0,0,1,.71-.28.91.91,0,0,1,.72.27,1,1,0,0,1,.25.67,1,1,0,0,1-.25.66,1,1,0,0,1-.72.26.92.92,0,0,1-.71-.26A1,1,0,0,1,511.29,348.36Z"/><path class="cls-7" d="M517.23,359.06h5.57v1.33h-7.55V359.2l5.24-7h-5.17v-1.35h7.21V352ZM519,348.39l1.32-1.5h1.41V347l-2.24,2.41h-1L516.27,347v-.09h1.38Z"/><path class="cls-7" d="M524.63,348.36a1,1,0,0,1,.24-.67,1.1,1.1,0,0,1,1.44,0,1,1,0,0,1,.25.67.92.92,0,0,1-.25.66,1.13,1.13,0,0,1-1.44,0A1,1,0,0,1,524.63,348.36Zm1.76,12h-1.63v-9.51h1.63Z"/><path class="cls-7" d="M532.13,358.19l2.36-7.31h1.66l-3.41,9.51H531.5l-3.45-9.51h1.66Z"/><path class="cls-7" d="M541.66,360.57a4.19,4.19,0,0,1-3.15-1.27,4.72,4.72,0,0,1-1.21-3.4v-.3a5.76,5.76,0,0,1,.54-2.53,4.21,4.21,0,0,1,1.51-1.74,3.87,3.87,0,0,1,2.1-.62,3.56,3.56,0,0,1,2.89,1.22,5.31,5.31,0,0,1,1,3.5v.67h-6.45a3.37,3.37,0,0,0,.83,2.27,2.56,2.56,0,0,0,2,.87,2.84,2.84,0,0,0,1.46-.35,3.86,3.86,0,0,0,1-.93l1,.77A4,4,0,0,1,541.66,360.57Zm-.21-8.53a2.18,2.18,0,0,0-1.65.72,3.46,3.46,0,0,0-.82,2h4.76v-.13a3.13,3.13,0,0,0-.67-1.92A2.06,2.06,0,0,0,541.45,352Z"/><path class="cls-7" d="M549,360.39h-1.62v-13.5H549Z"/><path class="cls-7" d="M553.15,350.88l.06,1.2a3.43,3.43,0,0,1,2.84-1.37c2,0,3,1.13,3,3.4v6.28h-1.62V354.1a2.19,2.19,0,0,0-.47-1.52,1.89,1.89,0,0,0-1.44-.49,2.36,2.36,0,0,0-1.39.42,2.84,2.84,0,0,0-.93,1.1v6.78h-1.63v-9.51Z"/><path class="cls-7" d="M563.33,346.9h2l-2.36,2.58h-1.31Zm0,13.49h-1.63v-9.51h1.63Z"/><path class="cls-7" d="M569.81,359.24a2.34,2.34,0,0,0,1.52-.53,1.87,1.87,0,0,0,.72-1.32h1.54A3,3,0,0,1,573,359a3.83,3.83,0,0,1-1.39,1.18,4,4,0,0,1-1.83.44,3.89,3.89,0,0,1-3.09-1.3,5.14,5.14,0,0,1-1.15-3.55v-.27a5.74,5.74,0,0,1,.51-2.47,3.93,3.93,0,0,1,1.46-1.68,4.16,4.16,0,0,1,2.26-.59,3.85,3.85,0,0,1,2.66,1,3.47,3.47,0,0,1,1.13,2.49h-1.54a2.24,2.24,0,0,0-.7-1.51,2.17,2.17,0,0,0-1.55-.6,2.28,2.28,0,0,0-1.92.89,4.17,4.17,0,0,0-.68,2.58v.31a4.1,4.1,0,0,0,.67,2.53A2.31,2.31,0,0,0,569.81,359.24Z"/><path class="cls-7" d="M575.42,348.36a1,1,0,0,1,.25-.67,1.08,1.08,0,0,1,1.43,0,1,1,0,0,1,.25.67.92.92,0,0,1-.25.66,1.11,1.11,0,0,1-1.43,0A.92.92,0,0,1,575.42,348.36Zm1.76,12h-1.62v-9.51h1.62Z"/><path class="cls-7" d="M402.74,137.14h1.31a2.39,2.39,0,0,0,1.56-.51,1.83,1.83,0,0,0,.57-1.45,2,2,0,0,0-.48-1.42,1.9,1.9,0,0,0-1.46-.51,2.05,2.05,0,0,0-1.42.5,1.65,1.65,0,0,0-.55,1.3h-2.14a3.24,3.24,0,0,1,.53-1.8,3.61,3.61,0,0,1,1.46-1.26,4.75,4.75,0,0,1,2.09-.45,4.4,4.4,0,0,1,3,1,3.39,3.39,0,0,1,1.1,2.68,2.77,2.77,0,0,1-.55,1.62,3.47,3.47,0,0,1-1.42,1.15,3.14,3.14,0,0,1,1.6,1.13,3.09,3.09,0,0,1,.55,1.85,3.42,3.42,0,0,1-1.18,2.74,4.59,4.59,0,0,1-3.11,1,4.52,4.52,0,0,1-3-1,3.2,3.2,0,0,1-1.18-2.61h2.14a1.81,1.81,0,0,0,.56,1.37,2.17,2.17,0,0,0,1.53.52,2.21,2.21,0,0,0,1.56-.52,2,2,0,0,0,.57-1.53,2,2,0,0,0-.59-1.56,2.58,2.58,0,0,0-1.78-.54h-1.26Z"/><path class="cls-7" d="M416.29,144.51h-2.13V134.23L411,135.3v-1.79l5-1.84h.27Z"/><path class="cls-7" d="M425.13,134.18a2.54,2.54,0,0,1,.75-1.9,2.95,2.95,0,0,1,3.93,0,2.59,2.59,0,0,1,.74,1.94v.63a2.52,2.52,0,0,1-.74,1.89,2.62,2.62,0,0,1-1.95.74,2.74,2.74,0,0,1-2-.72,2.59,2.59,0,0,1-.77-2Zm1.49.67a1.42,1.42,0,0,0,.34,1,1.17,1.17,0,0,0,.9.38,1.11,1.11,0,0,0,.87-.38,1.44,1.44,0,0,0,.34-1v-.65a1.44,1.44,0,0,0-.34-1,1.12,1.12,0,0,0-.89-.38,1.1,1.1,0,0,0-.89.38,1.53,1.53,0,0,0-.33,1Zm1.67,8.71-1.09-.64,6.25-10,1.09.63Zm3-2.18a2.51,2.51,0,0,1,.77-1.91,2.7,2.7,0,0,1,1.95-.73,2.66,2.66,0,0,1,1.95.73,2.58,2.58,0,0,1,.76,2v.62A2.59,2.59,0,0,1,436,144a2.65,2.65,0,0,1-2,.74,2.75,2.75,0,0,1-2-.74,2.56,2.56,0,0,1-.75-1.93Zm1.5.67a1.39,1.39,0,0,0,.34,1,1.15,1.15,0,0,0,.9.38,1.12,1.12,0,0,0,.88-.36,1.5,1.5,0,0,0,.32-1v-.66a1.4,1.4,0,0,0-.34-1A1.17,1.17,0,0,0,434,140a1.15,1.15,0,0,0-.88.37,1.45,1.45,0,0,0-.34,1Z"/><path class="cls-7" d="M513.38,85H515v1.71h-1.59v2.85h-2.14V86.74h-5.53l-.06-1.3,5.52-8.65h2.21Zm-5.49,0h3.35V79.68l-.16.28Z"/><path class="cls-7" d="M525,89.59h-8.61V88.12l4.27-4.65A11,11,0,0,0,522,81.75a2.78,2.78,0,0,0,.39-1.38,2.13,2.13,0,0,0-.51-1.48,1.82,1.82,0,0,0-1.39-.56,2.06,2.06,0,0,0-1.61.63,2.49,2.49,0,0,0-.57,1.73h-2.13a4.1,4.1,0,0,1,.53-2.1,3.63,3.63,0,0,1,1.52-1.46,4.91,4.91,0,0,1,2.28-.52,4.36,4.36,0,0,1,2.94.94,3.26,3.26,0,0,1,1.08,2.59,4.4,4.4,0,0,1-.54,2,11.85,11.85,0,0,1-1.78,2.38l-3.12,3.35H525Z"/><path class="cls-7" d="M531,79.25a2.59,2.59,0,0,1,.74-1.9,2.71,2.71,0,0,1,4.68,2v.63a2.56,2.56,0,0,1-.74,1.89,2.68,2.68,0,0,1-2,.74,2.74,2.74,0,0,1-2-.73,2.52,2.52,0,0,1-.77-2Zm1.49.67a1.4,1.4,0,0,0,.34,1,1.14,1.14,0,0,0,.89.37,1.12,1.12,0,0,0,.88-.37,1.49,1.49,0,0,0,.33-1v-.64a1.44,1.44,0,0,0-.33-1,1.17,1.17,0,0,0-.9-.38,1.11,1.11,0,0,0-.88.38,1.52,1.52,0,0,0-.33,1Zm1.67,8.71-1.1-.63,6.25-10,1.1.64Zm3-2.18a2.52,2.52,0,0,1,.76-1.91,3,3,0,0,1,3.91,0,2.61,2.61,0,0,1,.76,2v.63a2.55,2.55,0,0,1-.73,1.88,2.63,2.63,0,0,1-2,.74,2.7,2.7,0,0,1-2-.73,2.6,2.6,0,0,1-.75-1.94Zm1.49.68a1.42,1.42,0,0,0,.35,1,1.16,1.16,0,0,0,.89.38,1.11,1.11,0,0,0,.89-.37,1.5,1.5,0,0,0,.32-1v-.66a1.37,1.37,0,0,0-.35-1,1.11,1.11,0,0,0-.87-.37,1.14,1.14,0,0,0-.89.37,1.46,1.46,0,0,0-.34,1Z"/><line class="cls-8" x1="63.45" y1="325.13" x2="561.6" y2="325.13"/><line class="cls-8" x1="391.23" y1="161.63" x2="445.57" y2="161.63"/><line class="cls-8" x1="391.23" y1="216.13" x2="445.57" y2="216.13"/><line class="cls-8" x1="391.23" y1="270.63" x2="445.57" y2="270.63"/><path class="cls-7" d="M190.41,354.69a7.93,7.93,0,0,1-3.16-1.54,2.91,2.91,0,0,1-1-2.24,3.11,3.11,0,0,1,1.21-2.5,4.8,4.8,0,0,1,3.14-1,5.21,5.21,0,0,1,2.35.51,3.85,3.85,0,0,1,1.6,1.4,3.61,3.61,0,0,1,.57,2h-1.69a2.37,2.37,0,0,0-.74-1.83,3.67,3.67,0,0,0-4-.11,1.84,1.84,0,0,0-.7,1.53,1.65,1.65,0,0,0,.66,1.32,6.56,6.56,0,0,0,2.26,1,10.61,10.61,0,0,1,2.5,1,3.77,3.77,0,0,1,1.33,1.26,3.23,3.23,0,0,1,.44,1.7,3,3,0,0,1-1.21,2.49,5.21,5.21,0,0,1-3.25.94,6,6,0,0,1-2.46-.51,4.11,4.11,0,0,1-1.76-1.38,3.41,3.41,0,0,1-.62-2h1.7a2.18,2.18,0,0,0,.85,1.83,3.61,3.61,0,0,0,2.29.68,3.27,3.27,0,0,0,2.05-.55,1.78,1.78,0,0,0,.71-1.48,1.75,1.75,0,0,0-.66-1.46A7.53,7.53,0,0,0,190.41,354.69Z"/><path class="cls-7" d="M202.94,360.39a3.26,3.26,0,0,1-.23-1,3.66,3.66,0,0,1-2.71,1.18,3.36,3.36,0,0,1-2.31-.8,2.57,2.57,0,0,1-.9-2,2.69,2.69,0,0,1,1.13-2.3,5.3,5.3,0,0,1,3.18-.82h1.58v-.75a1.83,1.83,0,0,0-.51-1.36,2,2,0,0,0-1.5-.5,2.38,2.38,0,0,0-1.46.43,1.32,1.32,0,0,0-.59,1.07H197a2.23,2.23,0,0,1,.5-1.38,3.49,3.49,0,0,1,1.37-1.05,4.59,4.59,0,0,1,1.91-.38,3.74,3.74,0,0,1,2.57.82,3,3,0,0,1,1,2.26v4.38a5.38,5.38,0,0,0,.33,2.08v.14Zm-2.7-1.24a2.9,2.9,0,0,0,1.45-.39,2.39,2.39,0,0,0,1-1v-2h-1.27c-2,0-3,.58-3,1.75a1.47,1.47,0,0,0,.51,1.19A1.93,1.93,0,0,0,200.24,359.15Z"/><path class="cls-7" d="M210,358.19l2.36-7.31H214l-3.41,9.51h-1.24l-3.44-9.51h1.66Z"/><path class="cls-7" d="M219.39,359.24a2.34,2.34,0,0,0,1.52-.53,1.87,1.87,0,0,0,.72-1.32h1.54a3,3,0,0,1-.56,1.56,3.83,3.83,0,0,1-1.39,1.18,4,4,0,0,1-1.83.44,3.9,3.9,0,0,1-3.09-1.3,5.19,5.19,0,0,1-1.15-3.55v-.27a5.74,5.74,0,0,1,.51-2.47,3.89,3.89,0,0,1,1.47-1.68,4.1,4.1,0,0,1,2.25-.59,3.85,3.85,0,0,1,2.66,1,3.47,3.47,0,0,1,1.13,2.49h-1.54a2.24,2.24,0,0,0-.7-1.51,2.15,2.15,0,0,0-1.55-.6,2.28,2.28,0,0,0-1.92.89,4.24,4.24,0,0,0-.68,2.58v.31a4,4,0,0,0,.68,2.53A2.28,2.28,0,0,0,219.39,359.24Z"/><path class="cls-7" d="M225,348.36a1,1,0,0,1,.24-.67,1.08,1.08,0,0,1,1.43,0,1,1,0,0,1,.25.67.92.92,0,0,1-.25.66,1.11,1.11,0,0,1-1.43,0A1,1,0,0,1,225,348.36Zm1.75,12h-1.62v-9.51h1.62Z"/><path class="cls-7" d="M197.13,174.36h-8.61V172.9l4.26-4.65a10.59,10.59,0,0,0,1.32-1.72,2.78,2.78,0,0,0,.39-1.38,2.11,2.11,0,0,0-.51-1.48,1.79,1.79,0,0,0-1.39-.56,2.06,2.06,0,0,0-1.61.63,2.49,2.49,0,0,0-.57,1.73h-2.13a4.16,4.16,0,0,1,.53-2.11,3.67,3.67,0,0,1,1.52-1.45,4.91,4.91,0,0,1,2.28-.52,4.31,4.31,0,0,1,2.94.94,3.24,3.24,0,0,1,1.08,2.59,4.42,4.42,0,0,1-.55,2,11.38,11.38,0,0,1-1.77,2.38l-3.13,3.35h5.95Z"/><path class="cls-7" d="M199.32,168l.7-6.45h6.87v1.84h-5.1l-.35,3.06a4,4,0,0,1,2-.51,3.57,3.57,0,0,1,2.84,1.17,4.62,4.62,0,0,1,1,3.15,4.24,4.24,0,0,1-1.12,3.1,4.08,4.08,0,0,1-3.09,1.16,4.27,4.27,0,0,1-2.91-1,3.58,3.58,0,0,1-1.25-2.63H201a2.27,2.27,0,0,0,.67,1.43,2,2,0,0,0,1.42.5,1.85,1.85,0,0,0,1.54-.71,3,3,0,0,0,.55-1.91,2.65,2.65,0,0,0-.61-1.85,2.09,2.09,0,0,0-1.67-.68,2.81,2.81,0,0,0-1,.15,2.65,2.65,0,0,0-.88.6Z"/><path class="cls-7" d="M213.38,164a2.59,2.59,0,0,1,.74-1.9,3,3,0,0,1,3.94,0,2.63,2.63,0,0,1,.74,1.94v.64a2.59,2.59,0,0,1-.74,1.89,2.67,2.67,0,0,1-2,.73,2.73,2.73,0,0,1-1.95-.72,2.55,2.55,0,0,1-.77-2Zm1.49.67a1.4,1.4,0,0,0,.34,1,1.16,1.16,0,0,0,.89.37,1.14,1.14,0,0,0,.88-.37,1.49,1.49,0,0,0,.34-1V164a1.44,1.44,0,0,0-.34-1,1.23,1.23,0,0,0-1.78,0,1.5,1.5,0,0,0-.33,1Zm1.67,8.71-1.1-.64,6.25-10,1.1.63Zm3-2.18a2.52,2.52,0,0,1,.76-1.91,3,3,0,0,1,3.91,0,2.59,2.59,0,0,1,.76,2v.62a2.59,2.59,0,0,1-.73,1.89,2.67,2.67,0,0,1-2,.74,2.7,2.7,0,0,1-2-.73,2.6,2.6,0,0,1-.75-1.94Zm1.49.67a1.4,1.4,0,0,0,.35,1,1.14,1.14,0,0,0,.89.39,1.11,1.11,0,0,0,.89-.37,1.5,1.5,0,0,0,.32-1v-.66a1.41,1.41,0,0,0-.35-1,1.15,1.15,0,0,0-.88-.37,1.17,1.17,0,0,0-.88.37,1.49,1.49,0,0,0-.34,1Z"/><path class="cls-7" d="M296.29,355.38v5h-1.68v-12.8h4.71a4.74,4.74,0,0,1,3.3,1.08,3.64,3.64,0,0,1,1.19,2.84,3.6,3.6,0,0,1-1.17,2.87,4.94,4.94,0,0,1-3.33,1Zm0-1.38h3a3,3,0,0,0,2.08-.64,2.32,2.32,0,0,0,.72-1.84,2.42,2.42,0,0,0-.72-1.83,2.85,2.85,0,0,0-2-.72h-3.13Z"/><path class="cls-7" d="M307.47,360.39h-1.62v-13.5h1.62Z"/><path class="cls-7" d="M316,360.39a3.26,3.26,0,0,1-.23-1,3.66,3.66,0,0,1-2.71,1.18,3.36,3.36,0,0,1-2.31-.8,2.57,2.57,0,0,1-.9-2,2.69,2.69,0,0,1,1.13-2.3,5.3,5.3,0,0,1,3.18-.82h1.58v-.75a1.83,1.83,0,0,0-.51-1.36,2,2,0,0,0-1.5-.5,2.38,2.38,0,0,0-1.46.43,1.32,1.32,0,0,0-.59,1.07H310a2.25,2.25,0,0,1,.51-1.38,3.49,3.49,0,0,1,1.37-1.05,4.58,4.58,0,0,1,1.9-.38,3.75,3.75,0,0,1,2.58.82,3,3,0,0,1,1,2.26v4.38a5.38,5.38,0,0,0,.33,2.08v.14Zm-2.7-1.24a2.9,2.9,0,0,0,1.45-.39,2.44,2.44,0,0,0,1-1v-2h-1.27c-2,0-3,.58-3,1.75a1.47,1.47,0,0,0,.51,1.19A1.93,1.93,0,0,0,313.25,359.15Z"/><path class="cls-7" d="M321.39,359.06H327v1.33h-7.55V359.2l5.25-7h-5.17v-1.35h7.2V352Z"/><path class="cls-7" d="M328.79,348.36a1,1,0,0,1,.25-.67,1.08,1.08,0,0,1,1.43,0,1,1,0,0,1,.25.67.92.92,0,0,1-.25.66,1.11,1.11,0,0,1-1.43,0A.92.92,0,0,1,328.79,348.36Zm1.76,12h-1.62v-9.51h1.62Z"/><path class="cls-7" d="M300.18,209h-2.13V198.76l-3.13,1.07V198l5-1.84h.27Z"/><path class="cls-7" d="M310.68,203.69a3.47,3.47,0,0,1-5.19-.05,4.6,4.6,0,0,1-1-3.1,5.11,5.11,0,0,1,.51-2.3,3.81,3.81,0,0,1,1.45-1.6,4.1,4.1,0,0,1,2.18-.57,3.71,3.71,0,0,1,3.07,1.44,6.11,6.11,0,0,1,1.13,3.86v.6a7.83,7.83,0,0,1-1.57,5.28,5.89,5.89,0,0,1-4.66,1.85h-.26v-1.77h.31a4.37,4.37,0,0,0,2.9-.91A3.8,3.8,0,0,0,310.68,203.69Zm-2.05-.53a2.17,2.17,0,0,0,1.2-.37,2.41,2.41,0,0,0,.87-1v-.84a4,4,0,0,0-.58-2.27,1.76,1.76,0,0,0-3-.11,3.19,3.19,0,0,0-.55,1.93,3.14,3.14,0,0,0,.55,1.94A1.76,1.76,0,0,0,308.63,203.16Z"/><path class="cls-7" d="M319.25,198.71a2.55,2.55,0,0,1,.75-1.9,2.95,2.95,0,0,1,3.93,0,2.6,2.6,0,0,1,.75,1.94v.64a2.56,2.56,0,0,1-.75,1.89A2.63,2.63,0,0,1,322,202a2.76,2.76,0,0,1-2-.72,2.59,2.59,0,0,1-.77-2Zm1.5.67a1.38,1.38,0,0,0,.34,1,1.22,1.22,0,0,0,1.77,0,1.46,1.46,0,0,0,.33-1v-.65a1.39,1.39,0,0,0-.34-1,1.22,1.22,0,0,0-1.77,0,1.5,1.5,0,0,0-.33,1Zm1.67,8.71-1.1-.64,6.25-10,1.1.63Zm3-2.18a2.52,2.52,0,0,1,.76-1.91,3,3,0,0,1,3.91,0,2.63,2.63,0,0,1,.76,2v.62a2.59,2.59,0,0,1-.74,1.89,2.65,2.65,0,0,1-2,.74,2.7,2.7,0,0,1-2-.73,2.6,2.6,0,0,1-.75-1.94Zm1.49.67a1.4,1.4,0,0,0,.35,1,1.14,1.14,0,0,0,.89.39,1.12,1.12,0,0,0,.88-.37,1.45,1.45,0,0,0,.32-1v-.66a1.4,1.4,0,0,0-.34-1,1.17,1.17,0,0,0-.88-.37,1.15,1.15,0,0,0-.88.37,1.45,1.45,0,0,0-.34,1Z"/><rect class="cls-9" x="497.11" y="270.63" width="54.34" height="54.5"/><rect class="cls-9" x="391.23" y="270.63" width="54.34" height="54.5"/><rect class="cls-9" x="285.35" y="270.63" width="54.34" height="54.5"/><rect class="cls-9" x="179.48" y="270.63" width="54.34" height="54.5"/><rect class="cls-9" x="73.6" y="270.63" width="54.34" height="54.5"/><rect class="cls-4" x="497.11" y="216.04" width="54.34" height="54.5"/><rect class="cls-4" x="391.23" y="216.04" width="54.34" height="54.5"/><rect class="cls-4" x="179.48" y="216.04" width="54.34" height="54.5"/><rect class="cls-3" x="497.11" y="161.57" width="54.34" height="54.5"/><rect class="cls-3" x="391.23" y="161.57" width="54.34" height="54.5"/><rect class="cls-2" x="497.11" y="107.13" width="54.34" height="54.5"/><path d="M163.3,74.94h-3.65V85.08h-1.5V74.94H154.5V73.71h8.8Z"/><path d="M164.38,80.78a5,5,0,0,1,.49-2.24A3.62,3.62,0,0,1,166.23,77a3.69,3.69,0,0,1,2-.54,3.55,3.55,0,0,1,2.79,1.2,4.61,4.61,0,0,1,1.06,3.18V81a5,5,0,0,1-.47,2.22,3.5,3.5,0,0,1-1.35,1.52,3.71,3.71,0,0,1-2,.55,3.55,3.55,0,0,1-2.78-1.2,4.56,4.56,0,0,1-1.07-3.16Zm1.45.17a3.59,3.59,0,0,0,.66,2.26,2.21,2.21,0,0,0,3.49,0,4,4,0,0,0,.65-2.42,3.58,3.58,0,0,0-.66-2.25,2.19,2.19,0,0,0-3.48,0A3.92,3.92,0,0,0,165.83,81Z"/><path d="M175.85,74.58v2h1.58v1.12h-1.58V83a1.17,1.17,0,0,0,.21.76.89.89,0,0,0,.72.25,3.71,3.71,0,0,0,.69-.09v1.16a4,4,0,0,1-1.11.16,1.79,1.79,0,0,1-1.46-.59,2.49,2.49,0,0,1-.5-1.66V77.75h-1.54V76.63h1.54v-2Z"/><path d="M178.73,80.78a5,5,0,0,1,.49-2.24A3.62,3.62,0,0,1,180.58,77a3.69,3.69,0,0,1,2-.54,3.55,3.55,0,0,1,2.79,1.2,4.62,4.62,0,0,1,1.07,3.18V81a5,5,0,0,1-.48,2.22,3.5,3.5,0,0,1-1.35,1.52,3.69,3.69,0,0,1-2,.55A3.55,3.55,0,0,1,179.8,84a4.56,4.56,0,0,1-1.07-3.16Zm1.45.17a3.59,3.59,0,0,0,.66,2.26,2.21,2.21,0,0,0,3.49,0,3.93,3.93,0,0,0,.65-2.42,3.58,3.58,0,0,0-.66-2.25,2.19,2.19,0,0,0-3.48,0A3.92,3.92,0,0,0,180.18,81Z"/><path d="M193.56,76.63l0,.94a3.12,3.12,0,0,1,2.51-1.1,2.43,2.43,0,0,1,2.41,1.36,3.18,3.18,0,0,1,2.7-1.36c1.85,0,2.79,1,2.82,3v5.66H202.6V79.51a1.93,1.93,0,0,0-.42-1.36,1.8,1.8,0,0,0-1.39-.45,1.91,1.91,0,0,0-1.33.48,1.93,1.93,0,0,0-.62,1.29v5.61h-1.45V79.54a1.61,1.61,0,0,0-1.81-1.84,1.92,1.92,0,0,0-1.94,1.21v6.17h-1.45V76.63Z"/><path d="M211.44,84.25a3.07,3.07,0,0,1-2.47,1,2.6,2.6,0,0,1-2.06-.79,3.41,3.41,0,0,1-.72-2.32v-5.5h1.45v5.46q0,1.92,1.56,1.92a2.16,2.16,0,0,0,2.2-1.23V76.63h1.45v8.45h-1.38ZM211.24,74a1.46,1.46,0,0,1-.49,1.13,1.78,1.78,0,0,1-2.39,0,1.52,1.52,0,0,1-.48-1.13,1.56,1.56,0,0,1,.48-1.15,1.74,1.74,0,0,1,2.4,0A1.56,1.56,0,0,1,211.24,74Zm-2.59,0a.89.89,0,0,0,.26.63.88.88,0,0,0,.65.27.9.9,0,0,0,.64-.26.85.85,0,0,0,.27-.64.88.88,0,0,0-.27-.65.91.91,0,0,0-1.29,0A.92.92,0,0,0,208.65,74Z"/><path d="M216.4,83.9h4.95v1.18h-6.71V84l4.66-6.19h-4.59v-1.2h6.4v1ZM218,74.41l1.17-1.33h1.25v.08l-2,2.14h-.89l-2-2.14v-.08h1.23Z"/><path d="M226.48,85.24a3.72,3.72,0,0,1-2.8-1.13,4.22,4.22,0,0,1-1.07-3v-.26a5.09,5.09,0,0,1,.48-2.25A3.76,3.76,0,0,1,224.43,77a3.41,3.41,0,0,1,1.87-.56,3.17,3.17,0,0,1,2.56,1.09,4.69,4.69,0,0,1,.92,3.11v.6h-5.73a3,3,0,0,0,.73,2,2.32,2.32,0,0,0,1.78.77,2.63,2.63,0,0,0,1.3-.31,3.47,3.47,0,0,0,.93-.83l.88.69A3.57,3.57,0,0,1,226.48,85.24Zm-.18-7.58a1.93,1.93,0,0,0-1.47.64,3.09,3.09,0,0,0-.73,1.78h4.23V80a2.75,2.75,0,0,0-.59-1.7A1.8,1.8,0,0,0,226.3,77.66Z"/><path d="M242.57,81a5,5,0,0,1-.89,3.11,2.84,2.84,0,0,1-2.39,1.18,3,3,0,0,1-2.48-1.13l-.07,1h-1.33v-12h1.45v4.48a2.93,2.93,0,0,1,2.41-1.09,2.86,2.86,0,0,1,2.42,1.17,5.21,5.21,0,0,1,.88,3.19Zm-1.45-.16a3.88,3.88,0,0,0-.57-2.28,1.89,1.89,0,0,0-1.64-.81,2.11,2.11,0,0,0-2,1.33v3.66A2.18,2.18,0,0,0,238.93,84a1.87,1.87,0,0,0,1.61-.8A4.14,4.14,0,0,0,241.12,80.79Z"/><path d="M247.15,83l2-6.34h1.55l-3.4,9.76c-.53,1.4-1.36,2.11-2.51,2.11l-.27,0-.54-.1V87.2l.39,0a2,2,0,0,0,1.15-.29,2.24,2.24,0,0,0,.67-1.09l.32-.86-3-8.36H245Zm.82-9.89h1.75l-2.09,2.3h-1.16Z"/><path d="M253.92,74.58v2h1.58v1.12h-1.58V83a1.17,1.17,0,0,0,.21.76.89.89,0,0,0,.72.25,3.71,3.71,0,0,0,.69-.09v1.16a4,4,0,0,1-1.11.16,1.79,1.79,0,0,1-1.46-.59,2.49,2.49,0,0,1-.5-1.66V77.75h-1.54V76.63h1.54v-2Z"/><path d="M262.51,76.63l.05,1.06a3.08,3.08,0,0,1,2.53-1.22q2.69,0,2.7,3v5.58h-1.44V79.49a2,2,0,0,0-.42-1.35,1.68,1.68,0,0,0-1.28-.44,2.06,2.06,0,0,0-1.23.38,2.48,2.48,0,0,0-.83,1v6h-1.44V76.63Z"/><path d="M273.48,85.24a3.72,3.72,0,0,1-2.8-1.13,4.22,4.22,0,0,1-1.07-3v-.26a5.09,5.09,0,0,1,.48-2.25A3.76,3.76,0,0,1,271.43,77a3.41,3.41,0,0,1,1.87-.56,3.17,3.17,0,0,1,2.56,1.09,4.69,4.69,0,0,1,.92,3.11v.6h-5.73a3,3,0,0,0,.73,2,2.32,2.32,0,0,0,1.78.77,2.63,2.63,0,0,0,1.3-.31,3.47,3.47,0,0,0,.93-.83l.88.69A3.57,3.57,0,0,1,273.48,85.24Zm-.19-10.83,1.17-1.33h1.25v.08l-2,2.14h-.88l-2-2.14v-.08h1.23Zm0,3.25a1.93,1.93,0,0,0-1.47.64,3.09,3.09,0,0,0-.73,1.78h4.23V80a2.75,2.75,0,0,0-.59-1.7A1.8,1.8,0,0,0,273.3,77.66Z"/><path d="M279.94,76.63v9.43c0,1.63-.74,2.44-2.21,2.44a2.75,2.75,0,0,1-.88-.14V87.21a2.87,2.87,0,0,0,.65.06,1,1,0,0,0,.74-.26,1.3,1.3,0,0,0,.26-.91V76.63Zm-1.59-2.24a.87.87,0,0,1,.21-.59.79.79,0,0,1,.63-.25.82.82,0,0,1,.64.24.84.84,0,0,1,.22.6.79.79,0,0,1-.22.58.82.82,0,0,1-.64.24.79.79,0,0,1-.63-.24A.83.83,0,0,1,278.35,74.39Z"/><path d="M287.49,85.08a3,3,0,0,1-.2-.89,3.24,3.24,0,0,1-2.41,1,3,3,0,0,1-2.05-.71,2.27,2.27,0,0,1-.8-1.79,2.39,2.39,0,0,1,1-2,4.72,4.72,0,0,1,2.83-.73h1.4v-.67a1.62,1.62,0,0,0-.45-1.2,1.82,1.82,0,0,0-1.34-.45,2.1,2.1,0,0,0-1.29.39,1.15,1.15,0,0,0-.53.94H282.2a2,2,0,0,1,.45-1.22,3.13,3.13,0,0,1,1.22-.93,4.09,4.09,0,0,1,1.69-.35,3.38,3.38,0,0,1,2.29.73,2.65,2.65,0,0,1,.86,2v3.89A4.94,4.94,0,0,0,289,85v.12Zm-2.4-1.1a2.61,2.61,0,0,0,1.29-.35,2.08,2.08,0,0,0,.88-.91V81h-1.13c-1.77,0-2.66.52-2.66,1.56a1.3,1.3,0,0,0,.46,1.06A1.76,1.76,0,0,0,285.09,84Z"/><path d="M293.33,81.17l-.9.94v3H291v-12h1.45v7.26l.77-.93,2.63-2.78h1.76l-3.29,3.53L298,85.08h-1.69Z"/><path d="M301.85,83l2-6.34h1.54L302,86.39c-.53,1.4-1.37,2.11-2.51,2.11l-.28,0-.53-.1V87.2l.39,0a2,2,0,0,0,1.14-.29,2.25,2.25,0,0,0,.68-1.09l.32-.86-3-8.36h1.58Zm.82-9.89h1.75l-2.1,2.3h-1.16Z"/><path d="M315.54,82.84a1.06,1.06,0,0,0-.45-.91,4.16,4.16,0,0,0-1.53-.56,6.93,6.93,0,0,1-1.75-.56,2.53,2.53,0,0,1-.95-.78,1.83,1.83,0,0,1-.31-1.08,2.19,2.19,0,0,1,.88-1.76,3.45,3.45,0,0,1,2.25-.72,3.52,3.52,0,0,1,2.33.75,2.32,2.32,0,0,1,.89,1.89h-1.45a1.33,1.33,0,0,0-.5-1,1.88,1.88,0,0,0-1.27-.43,2,2,0,0,0-1.24.35,1.07,1.07,0,0,0-.44.89.86.86,0,0,0,.41.79,5,5,0,0,0,1.5.51,7.44,7.44,0,0,1,1.75.58,2.51,2.51,0,0,1,1,.81,2,2,0,0,1,.32,1.15,2.17,2.17,0,0,1-.91,1.82,3.81,3.81,0,0,1-2.35.68,4.24,4.24,0,0,1-1.79-.36,3,3,0,0,1-1.23-1,2.47,2.47,0,0,1-.44-1.4h1.45a1.46,1.46,0,0,0,.58,1.15,2.22,2.22,0,0,0,1.43.43,2.35,2.35,0,0,0,1.32-.33A1,1,0,0,0,315.54,82.84Z"/><path d="M326,81a5.05,5.05,0,0,1-.88,3.11,2.82,2.82,0,0,1-2.39,1.18,3.1,3.1,0,0,1-2.42-1v4.07h-1.45V76.63h1.32l.07.94a3,3,0,0,1,2.46-1.1,2.9,2.9,0,0,1,2.41,1.15,5.14,5.14,0,0,1,.88,3.2Zm-1.44-.16a3.7,3.7,0,0,0-.61-2.26,2,2,0,0,0-1.67-.83,2.13,2.13,0,0,0-2,1.16v4a2.13,2.13,0,0,0,2,1.16,2,2,0,0,0,1.66-.82A4.08,4.08,0,0,0,324.56,80.79Z"/><path d="M331.35,85.24a3.71,3.71,0,0,1-2.8-1.13,4.18,4.18,0,0,1-1.08-3v-.26a5.09,5.09,0,0,1,.48-2.25A3.71,3.71,0,0,1,329.3,77a3.39,3.39,0,0,1,1.87-.56,3.17,3.17,0,0,1,2.56,1.09,4.69,4.69,0,0,1,.92,3.11v.6h-5.73a3,3,0,0,0,.73,2,2.3,2.3,0,0,0,1.78.77,2.56,2.56,0,0,0,1.29-.31,3.2,3.2,0,0,0,.93-.83l.89.69A3.57,3.57,0,0,1,331.35,85.24Zm-.18-7.58a1.93,1.93,0,0,0-1.47.64,3,3,0,0,0-.73,1.78h4.23V80a2.75,2.75,0,0,0-.59-1.7A1.82,1.82,0,0,0,331.17,77.66Z"/><path d="M341.24,82.84a1.08,1.08,0,0,0-.44-.91,4.31,4.31,0,0,0-1.54-.56,7,7,0,0,1-1.74-.56,2.56,2.56,0,0,1-1-.78,1.91,1.91,0,0,1-.31-1.08,2.22,2.22,0,0,1,.88-1.76,3.45,3.45,0,0,1,2.25-.72,3.51,3.51,0,0,1,2.33.75,2.33,2.33,0,0,1,.9,1.89h-1.46a1.3,1.3,0,0,0-.5-1,1.88,1.88,0,0,0-1.27-.43,1.94,1.94,0,0,0-1.23.35,1.05,1.05,0,0,0-.45.89.88.88,0,0,0,.41.79,5,5,0,0,0,1.5.51,7.29,7.29,0,0,1,1.75.58,2.51,2.51,0,0,1,1,.81,2,2,0,0,1,.32,1.15,2.19,2.19,0,0,1-.9,1.82,3.85,3.85,0,0,1-2.35.68,4.25,4.25,0,0,1-1.8-.36,2.89,2.89,0,0,1-1.22-1,2.39,2.39,0,0,1-.44-1.4h1.44a1.49,1.49,0,0,0,.58,1.15,2.25,2.25,0,0,0,1.44.43,2.33,2.33,0,0,0,1.31-.33A1,1,0,0,0,341.24,82.84Zm-1.63-8.43,1.17-1.33H342v.08l-2,2.14h-.88l-2-2.14v-.08h1.23Z"/><path d="M346.14,85.08h-1.45v-12h1.45Z"/><path d="M157.57,100.37l-.9.94v3h-1.45v-12h1.45v7.26l.77-.93,2.63-2.78h1.76l-3.29,3.53,3.68,4.92h-1.7Z"/><path d="M162.94,100a5.11,5.11,0,0,1,.49-2.24,3.6,3.6,0,0,1,3.35-2.07,3.55,3.55,0,0,1,2.79,1.2,4.62,4.62,0,0,1,1.07,3.18v.1a5,5,0,0,1-.48,2.21,3.47,3.47,0,0,1-1.35,1.53,3.69,3.69,0,0,1-2,.55,3.55,3.55,0,0,1-2.78-1.2,4.56,4.56,0,0,1-1.07-3.16Zm1.46.17a3.59,3.59,0,0,0,.65,2.26,2.21,2.21,0,0,0,3.49,0,3.91,3.91,0,0,0,.65-2.42,3.63,3.63,0,0,0-.66-2.26,2.2,2.2,0,0,0-3.48,0A3.92,3.92,0,0,0,164.4,100.15Z"/><path d="M173.81,95.83l0,.94a3.12,3.12,0,0,1,2.51-1.1A2.43,2.43,0,0,1,178.77,97a3.18,3.18,0,0,1,2.7-1.36c1.85,0,2.79,1,2.82,3v5.66h-1.44V98.7a1.92,1.92,0,0,0-.42-1.35A1.8,1.8,0,0,0,181,96.9a1.91,1.91,0,0,0-1.33.48,1.93,1.93,0,0,0-.62,1.29v5.61h-1.45V98.74a1.61,1.61,0,0,0-1.81-1.84,1.92,1.92,0,0,0-1.94,1.21v6.17h-1.45V95.83Z"/><path d="M190,104.44a3.72,3.72,0,0,1-2.8-1.13,4.22,4.22,0,0,1-1.07-3V100a5.09,5.09,0,0,1,.48-2.25,3.83,3.83,0,0,1,1.34-1.55,3.41,3.41,0,0,1,1.87-.56,3.17,3.17,0,0,1,2.56,1.09,4.69,4.69,0,0,1,.92,3.11v.6h-5.73a3,3,0,0,0,.73,2,2.32,2.32,0,0,0,1.78.77,2.53,2.53,0,0,0,1.3-.31,3.47,3.47,0,0,0,.93-.83l.88.69A3.55,3.55,0,0,1,190,104.44Zm-.18-7.58a1.93,1.93,0,0,0-1.47.64,3.09,3.09,0,0,0-.73,1.78h4.23v-.11a2.75,2.75,0,0,0-.59-1.7A1.8,1.8,0,0,0,189.8,96.86Z"/><path d="M196.32,95.83l0,1.06a3.1,3.1,0,0,1,2.54-1.22q2.67,0,2.7,3v5.58h-1.45V98.69a1.93,1.93,0,0,0-.41-1.35,1.7,1.7,0,0,0-1.28-.44,2.12,2.12,0,0,0-1.24.38,2.46,2.46,0,0,0-.82,1v6H195V95.83Z"/><path d="M205.74,93.78v2h1.58V97h-1.58v5.25a1.19,1.19,0,0,0,.21.76.89.89,0,0,0,.72.25,3.71,3.71,0,0,0,.69-.09v1.16a4,4,0,0,1-1.11.16,1.79,1.79,0,0,1-1.46-.59,2.49,2.49,0,0,1-.5-1.66V97h-1.54V95.83h1.54v-2Z"/><path d="M214.22,104.28a3,3,0,0,1-.2-.89,3.21,3.21,0,0,1-2.41,1,3,3,0,0,1-2.05-.71,2.3,2.3,0,0,1-.8-1.79,2.4,2.4,0,0,1,1-2,4.71,4.71,0,0,1,2.82-.73H214v-.67a1.59,1.59,0,0,0-.46-1.2,1.8,1.8,0,0,0-1.33-.45,2.11,2.11,0,0,0-1.3.39,1.13,1.13,0,0,0-.52.94h-1.46a2,2,0,0,1,.45-1.22A3.13,3.13,0,0,1,210.6,96a4.09,4.09,0,0,1,1.69-.35,3.36,3.36,0,0,1,2.29.73,2.65,2.65,0,0,1,.86,2v3.89a4.73,4.73,0,0,0,.3,1.85v.12Zm-2.4-1.1a2.55,2.55,0,0,0,1.29-.35,2.16,2.16,0,0,0,.89-.91v-1.74h-1.14c-1.77,0-2.65.52-2.65,1.56a1.33,1.33,0,0,0,.45,1.06A1.76,1.76,0,0,0,211.82,103.18Zm1.34-10.9h1.75l-2.09,2.3h-1.17Z"/><path d="M219.79,93.61,221,92.28h1.25v.08l-2,2.14h-.88l-2-2.14v-.08h1.22Zm2,3.52a3.92,3.92,0,0,0-.71-.06,1.91,1.91,0,0,0-1.93,1.21v6h-1.44V95.83h1.4l0,1a2.23,2.23,0,0,1,2-1.14,1.5,1.5,0,0,1,.64.11Z"/><path d="M228.45,95.83l.05,1.06A3.08,3.08,0,0,1,231,95.67c1.78,0,2.69,1,2.7,3v5.58h-1.44V98.69a2,2,0,0,0-.42-1.35,1.7,1.7,0,0,0-1.28-.44,2.06,2.06,0,0,0-1.23.38,2.48,2.48,0,0,0-.83,1v6h-1.45V95.83Z"/><path d="M241.13,104.28a3,3,0,0,1-.2-.89,3.24,3.24,0,0,1-2.41,1,3,3,0,0,1-2.05-.71,2.3,2.3,0,0,1-.8-1.79,2.39,2.39,0,0,1,1-2,4.72,4.72,0,0,1,2.83-.73h1.4v-.67a1.62,1.62,0,0,0-.45-1.2,1.82,1.82,0,0,0-1.34-.45,2.1,2.1,0,0,0-1.29.39,1.15,1.15,0,0,0-.53.94h-1.45a2,2,0,0,1,.45-1.22,3.13,3.13,0,0,1,1.22-.93,4.09,4.09,0,0,1,1.69-.35,3.38,3.38,0,0,1,2.29.73,2.65,2.65,0,0,1,.86,2v3.89a4.73,4.73,0,0,0,.3,1.85v.12Zm-2.4-1.1a2.61,2.61,0,0,0,1.29-.35,2.08,2.08,0,0,0,.88-.91v-1.74h-1.13c-1.77,0-2.66.52-2.66,1.56a1.33,1.33,0,0,0,.46,1.06A1.76,1.76,0,0,0,238.73,103.18Z"/><path d="M247.4,102.32l2.1-6.49H251l-3,8.45h-1.1l-3.06-8.45h1.47Z"/><path d="M254,92.29h1.75l-2.09,2.3h-1.17Zm0,12h-1.45V95.83h1.45Z"/><path d="M259.71,103.26a2.11,2.11,0,0,0,1.35-.47,1.62,1.62,0,0,0,.64-1.17h1.37a2.73,2.73,0,0,1-.5,1.38,3.32,3.32,0,0,1-1.23,1,3.59,3.59,0,0,1-1.63.39,3.48,3.48,0,0,1-2.75-1.15,4.6,4.6,0,0,1-1-3.16v-.24a5,5,0,0,1,.46-2.19,3.46,3.46,0,0,1,1.3-1.5,3.71,3.71,0,0,1,2-.53,3.36,3.36,0,0,1,2.36.86,3,3,0,0,1,1,2.21H261.7a2,2,0,0,0-.62-1.35,1.93,1.93,0,0,0-1.38-.53,2.06,2.06,0,0,0-1.71.79,3.78,3.78,0,0,0-.6,2.3v.27a3.67,3.67,0,0,0,.6,2.25A2,2,0,0,0,259.71,103.26Z"/><path d="M264.65,106.55l-.83-.56a3.8,3.8,0,0,0,.77-2.11v-1.31H266v1.13a3.5,3.5,0,0,1-.38,1.58A3.73,3.73,0,0,1,264.65,106.55Z"/><path d="M273.75,93.78v2h1.58V97h-1.58v5.25a1.13,1.13,0,0,0,.22.76.88.88,0,0,0,.71.25,3.61,3.61,0,0,0,.69-.09v1.16a4,4,0,0,1-1.11.16,1.81,1.81,0,0,1-1.46-.59,2.49,2.49,0,0,1-.49-1.66V97h-1.54V95.83h1.54v-2Z"/><path d="M279.11,93.61l1.17-1.33h1.25v.08l-2,2.14h-.88l-2-2.14v-.08h1.23Zm2,3.52a4,4,0,0,0-.71-.06,1.9,1.9,0,0,0-1.93,1.21v6H277V95.83h1.41l0,1a2.25,2.25,0,0,1,2-1.14,1.53,1.53,0,0,1,.64.11Z"/><path d="M285.94,104.44a3.68,3.68,0,0,1-2.79-1.13,4.18,4.18,0,0,1-1.08-3V100a5.09,5.09,0,0,1,.48-2.25,3.83,3.83,0,0,1,1.34-1.55,3.41,3.41,0,0,1,1.87-.56,3.16,3.16,0,0,1,2.56,1.09,4.69,4.69,0,0,1,.92,3.11v.6h-5.73a3,3,0,0,0,.73,2,2.32,2.32,0,0,0,1.78.77,2.53,2.53,0,0,0,1.3-.31,3.47,3.47,0,0,0,.93-.83l.88.69A3.55,3.55,0,0,1,285.94,104.44Zm-.18-7.58a1.93,1.93,0,0,0-1.47.64,3.09,3.09,0,0,0-.73,1.78h4.23v-.11a2.75,2.75,0,0,0-.59-1.7A1.79,1.79,0,0,0,285.76,96.86Z"/><path d="M298.07,100.15a5,5,0,0,1-.89,3.11,2.84,2.84,0,0,1-2.39,1.18,3,3,0,0,1-2.48-1.13l-.07,1h-1.33v-12h1.45v4.48a2.93,2.93,0,0,1,2.41-1.09,2.86,2.86,0,0,1,2.42,1.17,5.21,5.21,0,0,1,.88,3.19Zm-1.45-.16a3.93,3.93,0,0,0-.57-2.29,1.9,1.9,0,0,0-1.64-.8,2.11,2.11,0,0,0-2.05,1.33v3.65a2.17,2.17,0,0,0,2.07,1.33,1.87,1.87,0,0,0,1.61-.8A4.14,4.14,0,0,0,296.62,100Z"/><path d="M305.11,104.28a2.66,2.66,0,0,1-.21-.89,3.21,3.21,0,0,1-2.4,1,3,3,0,0,1-2.05-.71,2.27,2.27,0,0,1-.8-1.79,2.39,2.39,0,0,1,1-2,4.71,4.71,0,0,1,2.82-.73h1.41v-.67a1.62,1.62,0,0,0-.45-1.2,1.84,1.84,0,0,0-1.34-.45,2.11,2.11,0,0,0-1.3.39,1.16,1.16,0,0,0-.52.94h-1.45a2,2,0,0,1,.45-1.22,3.05,3.05,0,0,1,1.22-.93,4.05,4.05,0,0,1,1.69-.35,3.4,3.4,0,0,1,2.29.73,2.65,2.65,0,0,1,.85,2v3.89a4.73,4.73,0,0,0,.3,1.85v.12Zm-2.4-1.1a2.61,2.61,0,0,0,1.29-.35,2.14,2.14,0,0,0,.88-.91v-1.74h-1.13c-1.77,0-2.66.52-2.66,1.56a1.33,1.33,0,0,0,.45,1.06A1.79,1.79,0,0,0,302.71,103.18Z"/><path d="M157.57,119.57l-.9,1v3h-1.45v-12h1.45v7.26l.77-.93,2.63-2.78h1.76l-3.29,3.53,3.68,4.92h-1.7Z"/><path d="M172.21,121.24a1.08,1.08,0,0,0-.44-.91,4.31,4.31,0,0,0-1.54-.56,6.84,6.84,0,0,1-1.74-.56,2.56,2.56,0,0,1-1-.78,1.91,1.91,0,0,1-.31-1.08,2.22,2.22,0,0,1,.88-1.76,3.45,3.45,0,0,1,2.25-.72,3.51,3.51,0,0,1,2.33.75,2.33,2.33,0,0,1,.89,1.9h-1.45a1.33,1.33,0,0,0-.5-1,1.88,1.88,0,0,0-1.27-.43,2,2,0,0,0-1.24.35,1.07,1.07,0,0,0-.44.89.88.88,0,0,0,.41.79,5,5,0,0,0,1.5.51,7.44,7.44,0,0,1,1.75.58,2.51,2.51,0,0,1,1,.81,2,2,0,0,1,.32,1.15,2.19,2.19,0,0,1-.9,1.82,3.85,3.85,0,0,1-2.35.68,4.25,4.25,0,0,1-1.8-.36,2.89,2.89,0,0,1-1.22-1,2.4,2.4,0,0,1-.45-1.4h1.45A1.49,1.49,0,0,0,169,122a2.23,2.23,0,0,0,1.44.43,2.33,2.33,0,0,0,1.31-.33A1,1,0,0,0,172.21,121.24Z"/><path d="M180.75,123.48a3,3,0,0,1-.2-.89,3.21,3.21,0,0,1-2.4,1,3,3,0,0,1-2.06-.71,2.3,2.3,0,0,1-.8-1.79,2.4,2.4,0,0,1,1-2,4.71,4.71,0,0,1,2.82-.73h1.41v-.67a1.59,1.59,0,0,0-.46-1.2,1.8,1.8,0,0,0-1.33-.45,2.11,2.11,0,0,0-1.3.39,1.13,1.13,0,0,0-.52.94h-1.45a2,2,0,0,1,.44-1.22,3.13,3.13,0,0,1,1.22-.93,4.12,4.12,0,0,1,1.69-.35,3.32,3.32,0,0,1,2.29.74,2.58,2.58,0,0,1,.86,2v3.89a4.73,4.73,0,0,0,.3,1.85v.12Zm-2.39-1.1a2.5,2.5,0,0,0,1.29-.35,2.14,2.14,0,0,0,.88-.91v-1.74H179.4c-1.78,0-2.66.52-2.66,1.56a1.33,1.33,0,0,0,.45,1.06A1.77,1.77,0,0,0,178.36,122.38Z"/><path d="M187,121.52l2.09-6.49h1.48l-3,8.45h-1.1L183.4,115h1.48Z"/><path d="M195.38,122.46a2.07,2.07,0,0,0,1.35-.47,1.62,1.62,0,0,0,.64-1.17h1.37a2.61,2.61,0,0,1-.5,1.38,3.32,3.32,0,0,1-1.23,1,3.56,3.56,0,0,1-1.63.39,3.48,3.48,0,0,1-2.75-1.15,4.59,4.59,0,0,1-1-3.15v-.25a5.1,5.1,0,0,1,.46-2.19,3.38,3.38,0,0,1,1.3-1.49,3.63,3.63,0,0,1,2-.54,3.4,3.4,0,0,1,2.37.86,3,3,0,0,1,1,2.21h-1.37a2,2,0,0,0-.62-1.35,1.93,1.93,0,0,0-1.38-.53,2,2,0,0,0-1.71.8,3.72,3.72,0,0,0-.6,2.29v.27a3.67,3.67,0,0,0,.6,2.25A2,2,0,0,0,195.38,122.46Z"/><path d="M205.58,122.65a3.05,3.05,0,0,1-2.47,1,2.63,2.63,0,0,1-2.06-.78,3.45,3.45,0,0,1-.72-2.33V115h1.45v5.46q0,1.92,1.56,1.92a2.15,2.15,0,0,0,2.2-1.23V115H207v8.45h-1.38Zm-.2-10.25a1.49,1.49,0,0,1-.48,1.13,1.68,1.68,0,0,1-1.2.46,1.65,1.65,0,0,1-1.2-.46,1.5,1.5,0,0,1-.48-1.13,1.56,1.56,0,0,1,.48-1.15,1.74,1.74,0,0,1,2.4,0A1.56,1.56,0,0,1,205.38,112.4Zm-2.59,0a.86.86,0,0,0,.27.63.85.85,0,0,0,.64.27.9.9,0,0,0,.64-.26.85.85,0,0,0,.27-.64.88.88,0,0,0-.27-.65.91.91,0,0,0-1.29,0A.92.92,0,0,0,202.79,112.4Z"/><path d="M210.54,115l0,.94a3.13,3.13,0,0,1,2.51-1.1,2.42,2.42,0,0,1,2.41,1.36,3.35,3.35,0,0,1,1.1-1,3.26,3.26,0,0,1,1.6-.38c1.85,0,2.8,1,2.83,2.95v5.66h-1.45v-5.57a1.93,1.93,0,0,0-.41-1.36,1.83,1.83,0,0,0-1.39-.45,1.93,1.93,0,0,0-1.34.48,2,2,0,0,0-.62,1.29v5.61h-1.45v-5.54a1.61,1.61,0,0,0-1.8-1.84,1.93,1.93,0,0,0-1.95,1.21v6.17h-1.44V115Z"/><path d="M223.24,122.73a.91.91,0,0,1,.22-.63.84.84,0,0,1,.67-.25.88.88,0,0,1,.68.25.92.92,0,0,1,.23.63.86.86,0,0,1-.23.6.91.91,0,0,1-.68.24.87.87,0,0,1-.67-.24A.86.86,0,0,1,223.24,122.73Z"/><path d="M237.89,120.51h-4.77l-1.07,3H230.5l4.35-11.37h1.31l4.35,11.37H239Zm-4.32-1.23h3.87L235.5,114Z"/><path d="M243.39,123.48h-1.45v-12h1.45Z"/><path d="M249.21,123.64a3.71,3.71,0,0,1-2.8-1.13,4.18,4.18,0,0,1-1.08-3v-.26a5.09,5.09,0,0,1,.48-2.25,3.71,3.71,0,0,1,1.35-1.55,3.39,3.39,0,0,1,1.87-.56,3.17,3.17,0,0,1,2.56,1.09,4.69,4.69,0,0,1,.91,3.11v.6h-5.72a3,3,0,0,0,.73,2,2.3,2.3,0,0,0,1.78.77,2.47,2.47,0,0,0,1.29-.31,3.2,3.2,0,0,0,.93-.83l.89.69A3.56,3.56,0,0,1,249.21,123.64Zm-.18-7.58a1.91,1.91,0,0,0-1.47.64,3.1,3.1,0,0,0-.74,1.78h4.24v-.11a2.75,2.75,0,0,0-.59-1.7A1.82,1.82,0,0,0,249,116.06Z"/><path d="M259.5,115l.05,1.06a3.09,3.09,0,0,1,2.53-1.22c1.79,0,2.69,1,2.71,3v5.58h-1.45v-5.59a1.88,1.88,0,0,0-.42-1.35,1.67,1.67,0,0,0-1.27-.44,2.12,2.12,0,0,0-1.24.38,2.56,2.56,0,0,0-.83,1v6h-1.44V115Z"/><path d="M270.47,123.64a3.7,3.7,0,0,1-2.79-1.13,4.18,4.18,0,0,1-1.08-3v-.26a5.09,5.09,0,0,1,.48-2.25,3.76,3.76,0,0,1,1.34-1.55,3.41,3.41,0,0,1,1.87-.56,3.2,3.2,0,0,1,2.57,1.09,4.69,4.69,0,0,1,.91,3.11v.6H268a3,3,0,0,0,.73,2,2.32,2.32,0,0,0,1.78.77,2.53,2.53,0,0,0,1.3-.31,3.47,3.47,0,0,0,.93-.83l.88.69A3.55,3.55,0,0,1,270.47,123.64Zm-.18-7.58a1.93,1.93,0,0,0-1.47.64,3.09,3.09,0,0,0-.73,1.78h4.23v-.11a2.69,2.69,0,0,0-.59-1.7A1.79,1.79,0,0,0,270.29,116.06Z"/><path d="M276.8,115l0,.94a3.13,3.13,0,0,1,2.51-1.1,2.42,2.42,0,0,1,2.41,1.36,3.18,3.18,0,0,1,2.7-1.36c1.85,0,2.79,1,2.83,2.95v5.66h-1.45v-5.57a2,2,0,0,0-.41-1.36,1.83,1.83,0,0,0-1.39-.45,1.91,1.91,0,0,0-1.34.48,2,2,0,0,0-.62,1.29v5.61h-1.45v-5.54a1.61,1.61,0,0,0-1.81-1.84,1.93,1.93,0,0,0-1.94,1.21v6.17h-1.45V115Z"/><path d="M294.68,122.65a3.05,3.05,0,0,1-2.47,1,2.64,2.64,0,0,1-2.06-.78,3.45,3.45,0,0,1-.72-2.33V115h1.45v5.46q0,1.92,1.56,1.92a2.17,2.17,0,0,0,2.21-1.23V115h1.44v8.45h-1.37Z"/><path d="M303.21,121.24a1.08,1.08,0,0,0-.44-.91,4.31,4.31,0,0,0-1.54-.56,6.84,6.84,0,0,1-1.74-.56,2.56,2.56,0,0,1-1-.78,1.91,1.91,0,0,1-.31-1.08,2.22,2.22,0,0,1,.88-1.76,3.45,3.45,0,0,1,2.25-.72,3.51,3.51,0,0,1,2.33.75,2.33,2.33,0,0,1,.89,1.9h-1.45a1.33,1.33,0,0,0-.5-1,1.88,1.88,0,0,0-1.27-.43,2,2,0,0,0-1.24.35,1.07,1.07,0,0,0-.44.89.88.88,0,0,0,.41.79,5,5,0,0,0,1.5.51,7.44,7.44,0,0,1,1.75.58,2.51,2.51,0,0,1,1,.81,2,2,0,0,1,.32,1.15,2.19,2.19,0,0,1-.9,1.82,3.85,3.85,0,0,1-2.35.68,4.25,4.25,0,0,1-1.8-.36,2.89,2.89,0,0,1-1.22-1,2.4,2.4,0,0,1-.45-1.4h1.45A1.49,1.49,0,0,0,300,122a2.23,2.23,0,0,0,1.44.43,2.33,2.33,0,0,0,1.31-.33A1,1,0,0,0,303.21,121.24Z"/><path d="M308.12,111.49h1.75l-2.09,2.3h-1.17Zm0,12h-1.46V115h1.46Z"/><path d="M310.52,122.73a.91.91,0,0,1,.22-.63.84.84,0,0,1,.67-.25.88.88,0,0,1,.68.25.92.92,0,0,1,.23.63.86.86,0,0,1-.23.6.91.91,0,0,1-.68.24.87.87,0,0,1-.67-.24A.86.86,0,0,1,310.52,122.73Z"/><path d="M594.58,176.41h-4.76l-1.07,3H587.2L591.54,168h1.32l4.35,11.38h-1.54Zm-4.31-1.22h3.87l-1.94-5.32Z"/><path d="M604.83,175.48l-.9.94v3h-1.45v-12h1.45v7.26l.77-.93,2.63-2.78h1.76l-3.29,3.53,3.67,4.92h-1.69Z"/><path d="M612.15,179.39h-1.44v-12h1.44Z"/><path d="M614.47,168.69a.88.88,0,0,1,.22-.59.8.8,0,0,1,.64-.24.83.83,0,0,1,.64.24.88.88,0,0,1,.22.59.86.86,0,0,1-.22.59.82.82,0,0,1-.64.23.8.8,0,0,1-.64-.23A.86.86,0,0,1,614.47,168.69Zm1.57,10.7h-1.45v-8.45H616Z"/><path d="M618,175.09a5,5,0,0,1,.92-3.13,2.9,2.9,0,0,1,2.41-1.18,3,3,0,0,1,2.36,1v-4.41h1.44v12H623.8l-.07-.91a3.11,3.11,0,0,1-4.81-.14,5,5,0,0,1-.92-3.14Zm1.44.17a3.75,3.75,0,0,0,.6,2.25,1.91,1.91,0,0,0,1.64.81,2.12,2.12,0,0,0,2-1.24V173.2a2.13,2.13,0,0,0-2-1.19,1.91,1.91,0,0,0-1.65.82A4.07,4.07,0,0,0,619.44,175.26Z"/><path d="M628.74,170.94l0,1.06a3.08,3.08,0,0,1,2.53-1.22c1.78,0,2.69,1,2.7,3v5.59h-1.44V173.8a2,2,0,0,0-.42-1.36,1.69,1.69,0,0,0-1.28-.43,2.06,2.06,0,0,0-1.23.37,2.51,2.51,0,0,0-.83,1v6h-1.45v-8.45Z"/><path d="M639.71,179.55a3.71,3.71,0,0,1-2.8-1.13,4.2,4.2,0,0,1-1.08-3v-.27a5,5,0,0,1,.48-2.24,3.71,3.71,0,0,1,1.35-1.55,3.39,3.39,0,0,1,1.87-.56,3.14,3.14,0,0,1,2.56,1.09A4.69,4.69,0,0,1,643,175v.6h-5.73a3,3,0,0,0,.73,2,2.32,2.32,0,0,0,1.78.77,2.47,2.47,0,0,0,1.29-.32,3,3,0,0,0,.93-.82l.89.68A3.55,3.55,0,0,1,639.71,179.55Zm-.2-10.83,1.18-1.33h1.25v.08l-2,2.14h-.88l-2-2.14v-.08h1.22Zm0,3.25a2,2,0,0,0-1.47.63,3.06,3.06,0,0,0-.73,1.79h4.23v-.11a2.8,2.8,0,0,0-.59-1.71A1.84,1.84,0,0,0,639.53,172Z"/><path d="M648.29,175.09a4.94,4.94,0,0,1,.92-3.13,3.13,3.13,0,0,1,4.76-.16v-4.41h1.45v12h-1.33l-.07-.91a3.11,3.11,0,0,1-4.81-.14,5,5,0,0,1-.92-3.14Zm1.44.17a3.75,3.75,0,0,0,.6,2.25,1.91,1.91,0,0,0,1.64.81,2.1,2.1,0,0,0,2-1.24V173.2a2.11,2.11,0,0,0-2-1.19,1.9,1.9,0,0,0-1.65.82A4.07,4.07,0,0,0,649.73,175.26Z"/><path d="M661.75,172.23a5.27,5.27,0,0,0-.71,0,1.9,1.9,0,0,0-1.93,1.21v6h-1.45v-8.45h1.41l0,1a2.27,2.27,0,0,1,2-1.13,1.53,1.53,0,0,1,.64.11Z"/><path d="M668.29,178.55a3.06,3.06,0,0,1-2.47,1,2.64,2.64,0,0,1-2.06-.79,3.42,3.42,0,0,1-.72-2.32v-5.5h1.45v5.46q0,1.92,1.56,1.92a2.17,2.17,0,0,0,2.21-1.24v-6.14h1.44v8.45h-1.37Z"/><path d="M673.34,172a3.07,3.07,0,0,1,2.5-1.18c1.79,0,2.69,1,2.7,3v5.59H677.1V173.8a2,2,0,0,0-.42-1.36,1.68,1.68,0,0,0-1.28-.43,2.08,2.08,0,0,0-1.23.37,2.6,2.6,0,0,0-.83,1v6H671.9v-12h1.44Z"/><path d="M684.22,179.55a3.71,3.71,0,0,1-2.8-1.13,4.2,4.2,0,0,1-1.08-3v-.27a5,5,0,0,1,.48-2.24,3.71,3.71,0,0,1,1.35-1.55,3.36,3.36,0,0,1,1.87-.56,3.14,3.14,0,0,1,2.56,1.09,4.69,4.69,0,0,1,.91,3.11v.6h-5.72a3,3,0,0,0,.73,2,2.3,2.3,0,0,0,1.77.77,2.48,2.48,0,0,0,1.3-.32,3,3,0,0,0,.93-.82l.88.68A3.54,3.54,0,0,1,684.22,179.55ZM684,172a1.92,1.92,0,0,0-1.47.63,3.13,3.13,0,0,0-.74,1.79h4.24v-.11a2.74,2.74,0,0,0-.6-1.71A1.81,1.81,0,0,0,684,172Z"/><path d="M690.68,170.94v9.43c0,1.62-.74,2.43-2.21,2.43a2.56,2.56,0,0,1-.89-.14v-1.15a2.42,2.42,0,0,0,.66.07,1,1,0,0,0,.74-.26,1.32,1.32,0,0,0,.25-.92v-9.46Zm-1.6-2.25a.9.9,0,0,1,.22-.59.79.79,0,0,1,.63-.24.83.83,0,0,1,.64.24.88.88,0,0,1,.22.59.86.86,0,0,1-.22.59,1,1,0,0,1-1.28,0A.85.85,0,0,1,689.08,168.69Z"/><path d="M590.44,194.68l-.91.94v3h-1.45v-12h1.45v7.26l.77-.93,2.64-2.78h1.75l-3.29,3.53,3.68,4.92h-1.7Z"/><path d="M595.8,194.28a5.07,5.07,0,0,1,.49-2.23,3.6,3.6,0,0,1,3.35-2.07,3.55,3.55,0,0,1,2.79,1.2,4.58,4.58,0,0,1,1.07,3.18v.1a5.08,5.08,0,0,1-.47,2.21,3.67,3.67,0,0,1-1.36,1.53,3.77,3.77,0,0,1-2,.55,3.55,3.55,0,0,1-2.78-1.2,4.58,4.58,0,0,1-1.07-3.16Zm1.46.18a3.56,3.56,0,0,0,.65,2.25,2.19,2.19,0,0,0,3.49,0,3.89,3.89,0,0,0,.65-2.42,3.62,3.62,0,0,0-.66-2.25,2.1,2.1,0,0,0-1.75-.86,2.07,2.07,0,0,0-1.73.85A3.92,3.92,0,0,0,597.26,194.46Z"/><path d="M606.67,190.14l0,.93a3.11,3.11,0,0,1,2.51-1.09,2.41,2.41,0,0,1,2.41,1.36,3.15,3.15,0,0,1,1.1-1,3.24,3.24,0,0,1,1.6-.38c1.85,0,2.79,1,2.82,3v5.66h-1.44V193a1.92,1.92,0,0,0-.42-1.35,1.8,1.8,0,0,0-1.39-.45,1.91,1.91,0,0,0-1.33.48A1.93,1.93,0,0,0,612,193v5.61H610.5v-5.54a1.61,1.61,0,0,0-1.81-1.84,1.92,1.92,0,0,0-1.94,1.21v6.17H605.3v-8.45Z"/><path d="M622.84,198.75a3.72,3.72,0,0,1-2.8-1.13,4.24,4.24,0,0,1-1.07-3v-.27a5,5,0,0,1,.48-2.24,3.76,3.76,0,0,1,1.34-1.55,3.41,3.41,0,0,1,1.87-.56,3.14,3.14,0,0,1,2.56,1.09,4.69,4.69,0,0,1,.92,3.11v.6h-5.73a3.05,3.05,0,0,0,.73,2,2.32,2.32,0,0,0,1.78.77,2.53,2.53,0,0,0,1.3-.32,3.27,3.27,0,0,0,.93-.82l.88.68A3.55,3.55,0,0,1,622.84,198.75Zm-.18-7.58a2,2,0,0,0-1.47.63,3.13,3.13,0,0,0-.73,1.79h4.23v-.11a2.8,2.8,0,0,0-.59-1.71A1.83,1.83,0,0,0,622.66,191.17Z"/><path d="M629.18,190.14l0,1.06a3.1,3.1,0,0,1,2.54-1.22c1.78,0,2.68,1,2.7,3v5.59H633V193a2,2,0,0,0-.41-1.36,1.69,1.69,0,0,0-1.28-.43,2.11,2.11,0,0,0-1.24.37,2.49,2.49,0,0,0-.82,1v6h-1.45v-8.45Z"/><path d="M638.6,188.09v2h1.58v1.11H638.6v5.25a1.2,1.2,0,0,0,.21.77.92.92,0,0,0,.72.25,3.71,3.71,0,0,0,.69-.09v1.16a4.38,4.38,0,0,1-1.11.16,1.79,1.79,0,0,1-1.46-.59,2.51,2.51,0,0,1-.5-1.66v-5.25h-1.54v-1.11h1.54v-2Z"/><path d="M647.08,198.59a3.1,3.1,0,0,1-.2-.89,3.21,3.21,0,0,1-2.41,1.05,3,3,0,0,1-2.05-.71,2.3,2.3,0,0,1-.8-1.79,2.41,2.41,0,0,1,1-2.06,4.78,4.78,0,0,1,2.82-.73h1.41v-.66a1.61,1.61,0,0,0-.46-1.21,1.8,1.8,0,0,0-1.33-.45,2.11,2.11,0,0,0-1.3.39,1.16,1.16,0,0,0-.52.95h-1.46a2,2,0,0,1,.45-1.22,3.05,3.05,0,0,1,1.22-.94,4.12,4.12,0,0,1,1.69-.34,3.32,3.32,0,0,1,2.29.73,2.65,2.65,0,0,1,.86,2v3.89a4.66,4.66,0,0,0,.3,1.85v.13Zm-2.39-1.1a2.54,2.54,0,0,0,1.28-.35,2.18,2.18,0,0,0,.89-.92v-1.73h-1.14c-1.77,0-2.65.52-2.65,1.55a1.33,1.33,0,0,0,.45,1.07A1.77,1.77,0,0,0,644.69,197.49Zm1.33-10.9h1.75l-2.09,2.3h-1.17Z"/><path d="M652.65,187.92l1.18-1.33h1.25v.08l-2,2.14h-.88l-2-2.14v-.08h1.22Zm2,3.51a5,5,0,0,0-.71-.05,1.9,1.9,0,0,0-1.93,1.21v6h-1.44v-8.45H652l0,1a2.24,2.24,0,0,1,2-1.13,1.5,1.5,0,0,1,.64.11Z"/><path d="M656,197.83a.88.88,0,0,1,.23-.62.82.82,0,0,1,.66-.25.86.86,0,0,1,.68.25.88.88,0,0,1,.23.62.85.85,0,0,1-.23.6.9.9,0,0,1-.68.25.82.82,0,0,1-.89-.85Z"/><path d="M670.66,195.61H665.9l-1.07,3h-1.55l4.34-11.38h1.32l4.35,11.38h-1.54Zm-4.31-1.22h3.87l-1.94-5.32Z"/><path d="M676.16,198.59h-1.44v-12h1.44Z"/><path d="M682,198.75a3.68,3.68,0,0,1-2.79-1.13,4.2,4.2,0,0,1-1.08-3v-.27a5,5,0,0,1,.48-2.24,3.76,3.76,0,0,1,1.34-1.55,3.41,3.41,0,0,1,1.87-.56,3.13,3.13,0,0,1,2.56,1.09,4.69,4.69,0,0,1,.92,3.11v.6h-5.73a3.05,3.05,0,0,0,.73,2,2.32,2.32,0,0,0,1.78.77,2.53,2.53,0,0,0,1.3-.32,3.27,3.27,0,0,0,.93-.82l.88.68A3.55,3.55,0,0,1,682,198.75Zm-.18-7.58a2,2,0,0,0-1.47.63,3.13,3.13,0,0,0-.73,1.79h4.23v-.11a2.8,2.8,0,0,0-.59-1.71A1.81,1.81,0,0,0,681.8,191.17Z"/><path d="M590,207.29v2.05h1.57v1.11H590v5.25a1.2,1.2,0,0,0,.21.77.92.92,0,0,0,.72.25,3.62,3.62,0,0,0,.68-.09v1.16a4.38,4.38,0,0,1-1.11.16,1.81,1.81,0,0,1-1.46-.59,2.57,2.57,0,0,1-.49-1.66v-5.25h-1.54v-1.11h1.54v-2.05Z"/><path d="M598.52,217.79a3.1,3.1,0,0,1-.2-.89,3.23,3.23,0,0,1-2.41,1,3,3,0,0,1-2-.71,2.3,2.3,0,0,1-.8-1.79,2.4,2.4,0,0,1,1-2,4.72,4.72,0,0,1,2.83-.74h1.4V212a1.65,1.65,0,0,0-.45-1.21,1.81,1.81,0,0,0-1.33-.45,2.06,2.06,0,0,0-1.3.4,1.13,1.13,0,0,0-.52.94h-1.46a2,2,0,0,1,.45-1.22,3.05,3.05,0,0,1,1.22-.94,4.08,4.08,0,0,1,1.69-.34,3.32,3.32,0,0,1,2.29.73,2.65,2.65,0,0,1,.86,2v3.89a4.66,4.66,0,0,0,.3,1.85v.13Zm-2.4-1.1a2.55,2.55,0,0,0,1.29-.35,2.1,2.1,0,0,0,.88-.92v-1.73h-1.13c-1.77,0-2.65.52-2.65,1.55a1.33,1.33,0,0,0,.45,1.07A1.76,1.76,0,0,0,596.12,216.69Z"/><path d="M604.36,213.88l-.9.94v3H602v-12h1.45v7.26l.77-.93,2.63-2.78h1.76l-3.29,3.53,3.68,4.92h-1.7Z"/><path d="M612.88,215.67l2-6.33h1.55l-3.4,9.75c-.53,1.41-1.36,2.11-2.51,2.11l-.27,0-.54-.1v-1.17l.39,0a1.89,1.89,0,0,0,1.14-.3,2.14,2.14,0,0,0,.68-1.08l.32-.86-3-8.36h1.58Z"/><path d="M623,209.34l0,1.06a3.09,3.09,0,0,1,2.53-1.22c1.79,0,2.69,1,2.7,3v5.59h-1.44V212.2a2,2,0,0,0-.42-1.36,1.68,1.68,0,0,0-1.28-.43,2.08,2.08,0,0,0-1.23.37,2.6,2.6,0,0,0-.83,1v6h-1.44v-8.45Z"/><path d="M634,218a3.68,3.68,0,0,1-2.79-1.13,4.2,4.2,0,0,1-1.08-3v-.27a5,5,0,0,1,.48-2.24,3.76,3.76,0,0,1,1.34-1.55,3.41,3.41,0,0,1,1.87-.56,3.13,3.13,0,0,1,2.56,1.09,4.69,4.69,0,0,1,.92,3.11v.6h-5.73a3.05,3.05,0,0,0,.73,2,2.32,2.32,0,0,0,1.78.77,2.53,2.53,0,0,0,1.3-.32,3.27,3.27,0,0,0,.93-.82l.88.68A3.55,3.55,0,0,1,634,218Zm-.18-7.58a2,2,0,0,0-1.47.63,3.13,3.13,0,0,0-.73,1.79h4.23v-.11a2.8,2.8,0,0,0-.59-1.71A1.81,1.81,0,0,0,633.8,210.37Z"/><path d="M640.31,209.34l0,.93a3.12,3.12,0,0,1,2.51-1.09,2.41,2.41,0,0,1,2.41,1.36,3.15,3.15,0,0,1,1.1-1,3.24,3.24,0,0,1,1.6-.38c1.85,0,2.79,1,2.82,2.95v5.66h-1.44v-5.58a2,2,0,0,0-.41-1.35,1.84,1.84,0,0,0-1.4-.45,1.91,1.91,0,0,0-1.33.48,1.93,1.93,0,0,0-.62,1.29v5.61h-1.45v-5.54a1.61,1.61,0,0,0-1.81-1.84,1.93,1.93,0,0,0-1.94,1.21v6.17h-1.45v-8.45Z"/><path d="M658.19,217a3.06,3.06,0,0,1-2.47,1,2.64,2.64,0,0,1-2.06-.79,3.42,3.42,0,0,1-.72-2.32v-5.5h1.45v5.46q0,1.92,1.56,1.92a2.15,2.15,0,0,0,2.2-1.23v-6.15h1.45v8.45h-1.38Z"/><path d="M666.72,215.55a1.07,1.07,0,0,0-.44-.91,4.31,4.31,0,0,0-1.54-.56,7.36,7.36,0,0,1-1.75-.56,2.53,2.53,0,0,1-1-.78,1.88,1.88,0,0,1-.31-1.08,2.21,2.21,0,0,1,.88-1.76,3.45,3.45,0,0,1,2.25-.72,3.56,3.56,0,0,1,2.33.74,2.35,2.35,0,0,1,.89,1.9h-1.45a1.31,1.31,0,0,0-.5-1,1.88,1.88,0,0,0-1.27-.43,2,2,0,0,0-1.24.34,1.1,1.1,0,0,0-.44.9.89.89,0,0,0,.41.79,5,5,0,0,0,1.5.51,7.44,7.44,0,0,1,1.75.58,2.58,2.58,0,0,1,1,.8,2.05,2.05,0,0,1,.32,1.16,2.16,2.16,0,0,1-.9,1.81,3.8,3.8,0,0,1-2.36.69,4.24,4.24,0,0,1-1.79-.36,3,3,0,0,1-1.23-1,2.44,2.44,0,0,1-.44-1.39h1.45a1.48,1.48,0,0,0,.58,1.15,2.66,2.66,0,0,0,2.75.09A1,1,0,0,0,666.72,215.55Z"/><path d="M671.63,205.8h1.75l-2.09,2.29h-1.17Zm0,12h-1.45v-8.45h1.45Z"/><path d="M685.11,213.66a5,5,0,0,1-.89,3.11,2.85,2.85,0,0,1-2.39,1.18,2.93,2.93,0,0,1-2.47-1.14l-.07,1H678v-12h1.44v4.48a2.93,2.93,0,0,1,2.42-1.09,2.89,2.89,0,0,1,2.42,1.16,5.23,5.23,0,0,1,.87,3.19Zm-1.44-.17a3.92,3.92,0,0,0-.57-2.28,1.9,1.9,0,0,0-1.64-.8,2.13,2.13,0,0,0-2.06,1.33v3.65a2.19,2.19,0,0,0,2.07,1.33,1.86,1.86,0,0,0,1.62-.81A4.09,4.09,0,0,0,683.67,213.49Z"/><path d="M689.7,215.67l2-6.33h1.55l-3.4,9.75c-.53,1.41-1.36,2.11-2.51,2.11l-.27,0-.54-.1v-1.17l.39,0a1.89,1.89,0,0,0,1.14-.3,2.14,2.14,0,0,0,.68-1.08l.32-.86-3-8.36h1.58Zm.82-9.88h1.75l-2.09,2.3H689Z"/><path d="M696.47,207.29v2.05H698v1.11h-1.57v5.25a1.2,1.2,0,0,0,.21.77.92.92,0,0,0,.72.25,3.62,3.62,0,0,0,.68-.09v1.16A4.38,4.38,0,0,1,697,218a1.81,1.81,0,0,1-1.46-.59,2.57,2.57,0,0,1-.49-1.66v-5.25h-1.54v-1.11H695v-2.05Z"/><path d="M699.76,217a.88.88,0,0,1,.23-.62.82.82,0,0,1,.66-.25.86.86,0,0,1,.68.25.88.88,0,0,1,.23.62.85.85,0,0,1-.23.6.9.9,0,0,1-.68.25.82.82,0,0,1-.89-.85Z"/><path d="M707.86,217a.87.87,0,0,1,.22-.62.84.84,0,0,1,.67-.25.85.85,0,0,1,.67.25.84.84,0,0,1,.23.62.81.81,0,0,1-.23.6.89.89,0,0,1-.67.25.87.87,0,0,1-.67-.25A.84.84,0,0,1,707.86,217Zm0-6.9a.9.9,0,0,1,.23-.62.84.84,0,0,1,.67-.25.85.85,0,0,1,.67.25.94.94,0,0,1,0,1.23.89.89,0,0,1-.67.24.87.87,0,0,1-.67-.24A.89.89,0,0,1,707.86,210.13Z"/><path d="M715.11,213.25a12.24,12.24,0,0,1-.45,3.34,9.89,9.89,0,0,1-1.4,2.95,6.22,6.22,0,0,1-2,1.92l-.31-.88a6.37,6.37,0,0,0,1.94-2.86,12.57,12.57,0,0,0,.74-4.31v-.25a12.78,12.78,0,0,0-.34-3,10.24,10.24,0,0,0-1-2.53,5.7,5.7,0,0,0-1.38-1.74l.31-.89a6.16,6.16,0,0,1,2,1.91,9.9,9.9,0,0,1,1.4,2.95A12.33,12.33,0,0,1,715.11,213.25Z"/><line class="cls-10" x1="206.65" y1="131.13" x2="206.65" y2="146.04"/><polygon class="cls-11" points="202.56 142.73 203.29 142.05 206.64 145.66 210 142.05 210.73 142.73 206.64 147.13 202.56 142.73"/></svg>