<svg id="Layer_1" data-name="Layer 1" xmlns="http://www.w3.org/2000/svg" viewBox="0 0 740 209.87"><defs><style>.cls-1{fill:#ffd166;fill-opacity:0.6;opacity:0.8;}</style></defs><circle class="cls-1" cx="161.54" cy="113.61" r="45"/><path d="M152.92,86.41l3.64,10.67h.15l3.64-10.67h2.14L157.78,99.5h-2.29l-4.71-13.09Z"/><path d="M165.43,103.16a3.71,3.71,0,0,1-.78-.07,2.43,2.43,0,0,1-.53-.14l.46-1.57a2.22,2.22,0,0,0,1.32,0q.54-.18.9-1.14l.24-.65-3.59-9.94h2L168,97.31h.1l2.49-7.62,2.06,0-4.06,11.1a4.19,4.19,0,0,1-.71,1.29,2.85,2.85,0,0,1-1,.79A3.35,3.35,0,0,1,165.43,103.16Z"/><path d="M174.43,99.5V89.69h1.83v1.59h.12a2.53,2.53,0,0,1,1-1.26,2.92,2.92,0,0,1,1.67-.46,2.66,2.66,0,0,1,2.64,1.72h.1A2.7,2.7,0,0,1,182.92,90a3.45,3.45,0,0,1,1.82-.47,3,3,0,0,1,2.19.84,3.41,3.41,0,0,1,.84,2.52V99.5h-1.91V93.1a1.78,1.78,0,0,0-.54-1.45,2,2,0,0,0-1.3-.44,1.87,1.87,0,0,0-1.45.57,2.13,2.13,0,0,0-.52,1.47V99.5h-1.9V93a1.75,1.75,0,0,0-.5-1.29,1.78,1.78,0,0,0-1.3-.48,1.87,1.87,0,0,0-1,.28,2.07,2.07,0,0,0-.73.79,2.36,2.36,0,0,0-.28,1.17v6Z"/><path d="M190.33,99.5V89.69h1.91V99.5Zm.18-11.12,1.5-2.95h2l-2,2.95Z"/><path d="M194.81,99.5V89.69h1.85v1.56h.1a2.39,2.39,0,0,1,1-1.25,2.66,2.66,0,0,1,1.54-.46h.43l.39,0v1.83l-.41-.07a4,4,0,0,0-.59,0,2.54,2.54,0,0,0-1.21.28,2.1,2.1,0,0,0-.83.79,2.07,2.07,0,0,0-.31,1.14v6Z"/><path d="M204.59,99.72a3.84,3.84,0,0,1-1.69-.35,2.74,2.74,0,0,1-1.19-1,2.84,2.84,0,0,1-.44-1.63,2.6,2.6,0,0,1,.32-1.37,2.34,2.34,0,0,1,.86-.85,4.62,4.62,0,0,1,1.21-.47A10.61,10.61,0,0,1,205,93.8l1.44-.17a2.16,2.16,0,0,0,.79-.22.54.54,0,0,0,.25-.5v0a1.69,1.69,0,0,0-.47-1.29,1.9,1.9,0,0,0-1.39-.47,2.45,2.45,0,0,0-1.52.43,2.4,2.4,0,0,0-.77.94l-1.79-.41a3.4,3.4,0,0,1,.93-1.44,3.91,3.91,0,0,1,1.43-.81,5.53,5.53,0,0,1,1.69-.25,5.63,5.63,0,0,1,1.25.14,3.6,3.6,0,0,1,1.24.5,2.74,2.74,0,0,1,.95,1,3.56,3.56,0,0,1,.37,1.74V99.5h-1.87V98.16h-.07A2.84,2.84,0,0,1,206,99.48,3.64,3.64,0,0,1,204.59,99.72Zm.41-1.53a2.76,2.76,0,0,0,1.36-.32,2.13,2.13,0,0,0,.86-.82,2.11,2.11,0,0,0,.3-1.09V94.7a1,1,0,0,1-.39.19c-.2,0-.42.1-.66.14l-.73.11-.59.08a5,5,0,0,0-1,.24,1.81,1.81,0,0,0-.73.47,1.38,1.38,0,0,0,.25,1.9A2.33,2.33,0,0,0,205,98.19Z"/><path d="M212,89.69h1.92v10.44a3.55,3.55,0,0,1-.36,1.67,2.33,2.33,0,0,1-1.05,1,3.64,3.64,0,0,1-1.73.34h-.37v-1.65h.31a1.21,1.21,0,0,0,1-.36,1.64,1.64,0,0,0,.3-1Zm.95-1.52a1.19,1.19,0,0,1-.85-.33,1.09,1.09,0,0,1,0-1.62,1.26,1.26,0,0,1,1.7,0,1.09,1.09,0,0,1,0,1.62A1.19,1.19,0,0,1,212.92,88.17Z"/><path d="M216.46,99.5V89.69h1.91V99.5Zm.17-11.12,1.5-2.95h2l-2,2.95Z"/><path d="M151.62,109.69h1.91v10.44a3.55,3.55,0,0,1-.36,1.67,2.23,2.23,0,0,1-1,1,3.57,3.57,0,0,1-1.72.34H150v-1.65h.31a1.21,1.21,0,0,0,1-.36,1.64,1.64,0,0,0,.3-1Zm.95-1.52a1.22,1.22,0,0,1-.86-.33,1.11,1.11,0,0,1,0-1.62,1.27,1.27,0,0,1,1.71,0,1.09,1.09,0,0,1,0,1.62A1.21,1.21,0,0,1,152.57,108.17Z"/><path d="M160.33,119.7a4.82,4.82,0,0,1-2.49-.62,4.1,4.1,0,0,1-1.61-1.76,5.86,5.86,0,0,1-.57-2.66,5.92,5.92,0,0,1,.57-2.66,4.27,4.27,0,0,1,1.58-1.8,4.38,4.38,0,0,1,2.39-.64,4.9,4.9,0,0,1,1.61.27,3.87,3.87,0,0,1,1.4.87,4.12,4.12,0,0,1,1,1.52,6.36,6.36,0,0,1,.36,2.27v.68h-7.81v-1.43h5.93a2.91,2.91,0,0,0-.3-1.34,2.31,2.31,0,0,0-.86-.92,2.4,2.4,0,0,0-1.3-.34,2.52,2.52,0,0,0-1.4.39,2.58,2.58,0,0,0-.92,1,2.91,2.91,0,0,0-.32,1.37V115a3.71,3.71,0,0,0,.34,1.67,2.49,2.49,0,0,0,1,1.05,2.87,2.87,0,0,0,1.46.36,3,3,0,0,0,1-.15,2.2,2.2,0,0,0,.78-.47,2.23,2.23,0,0,0,.5-.78l1.8.33a3.27,3.27,0,0,1-.77,1.4,3.8,3.8,0,0,1-1.4.92A5.22,5.22,0,0,1,160.33,119.7Z"/><path d="M170.35,119.7a3.84,3.84,0,0,1-2.12-.61,4.16,4.16,0,0,1-1.46-1.75,6.46,6.46,0,0,1-.52-2.73,6.29,6.29,0,0,1,.53-2.72,4.05,4.05,0,0,1,1.47-1.73,3.8,3.8,0,0,1,2.11-.6,3.16,3.16,0,0,1,1.48.3,2.73,2.73,0,0,1,.87.71,7.45,7.45,0,0,1,.48.71h.11v-4.87h1.91V119.5h-1.86V118h-.16a6,6,0,0,1-.5.71,2.77,2.77,0,0,1-.88.71A3.1,3.1,0,0,1,170.35,119.7Zm.42-1.63a2.25,2.25,0,0,0,1.4-.44,2.72,2.72,0,0,0,.87-1.22,5,5,0,0,0,.29-1.81,4.87,4.87,0,0,0-.29-1.79,2.64,2.64,0,0,0-.86-1.2,2.25,2.25,0,0,0-1.41-.43,2.29,2.29,0,0,0-1.44.45,2.68,2.68,0,0,0-.86,1.22,4.83,4.83,0,0,0-.29,1.75,5,5,0,0,0,.29,1.77,2.9,2.9,0,0,0,.87,1.24A2.29,2.29,0,0,0,170.77,118.07Z"/><path d="M179.85,113.68v5.82h-1.91v-9.81h1.83v1.59h.12A2.82,2.82,0,0,1,181,110a3.31,3.31,0,0,1,1.83-.47,3.58,3.58,0,0,1,1.76.42,2.87,2.87,0,0,1,1.17,1.24,4.6,4.6,0,0,1,.41,2v6.24h-1.91v-6a2.33,2.33,0,0,0-.56-1.67,2,2,0,0,0-1.52-.61,2.37,2.37,0,0,0-1.18.29,2,2,0,0,0-.82.84A2.88,2.88,0,0,0,179.85,113.68Z"/><path d="M192.82,119.7a4.53,4.53,0,0,1-2.41-.63,4.27,4.27,0,0,1-1.59-1.77,6.52,6.52,0,0,1,0-5.33,4.3,4.3,0,0,1,1.59-1.78,4.92,4.92,0,0,1,4.82,0,4.26,4.26,0,0,1,1.6,1.78,6.52,6.52,0,0,1,0,5.33,4.23,4.23,0,0,1-1.6,1.77A4.51,4.51,0,0,1,192.82,119.7Zm0-1.6a2.3,2.3,0,0,0,1.48-.47,2.8,2.8,0,0,0,.88-1.26,5.52,5.52,0,0,0,0-3.47,2.8,2.8,0,0,0-.88-1.26,2.25,2.25,0,0,0-1.48-.48,2.28,2.28,0,0,0-1.49.48,2.8,2.8,0,0,0-.88,1.26,5.52,5.52,0,0,0,0,3.47,2.8,2.8,0,0,0,.88,1.26A2.33,2.33,0,0,0,192.83,118.1Z"/><path d="M204.11,109.69v1.53h-5.36v-1.53Zm-3.92-2.36h1.91v9.29a1.71,1.71,0,0,0,.16.84.87.87,0,0,0,.44.37,1.52,1.52,0,0,0,.57.1,2.46,2.46,0,0,0,.41,0l.27-.05.34,1.58-.47.13a4,4,0,0,1-.77.07,3.35,3.35,0,0,1-1.41-.27,2.33,2.33,0,0,1-1-.87,2.52,2.52,0,0,1-.4-1.47Z"/><path d="M208.13,106.41V119.5h-1.91V106.41Z"/><path d="M211.67,108.17a1.22,1.22,0,0,1-.86-.33,1.11,1.11,0,0,1,0-1.62,1.27,1.27,0,0,1,1.71,0,1.09,1.09,0,0,1,0,1.62A1.21,1.21,0,0,1,211.67,108.17Zm-1,11.33v-9.81h1.91v9.81Z"/><path d="M223.58,109.69,220,119.5h-2l-3.57-9.81h2.05l2.49,7.55h.1l2.48-7.55Z"/><path d="M229.61,119.7a4.85,4.85,0,0,1-2.5-.62,4.22,4.22,0,0,1-1.61-1.76,6,6,0,0,1-.56-2.66,6.05,6.05,0,0,1,.56-2.66,4.22,4.22,0,0,1,4-2.44,4.92,4.92,0,0,1,1.62.27,4,4,0,0,1,1.4.87,4.1,4.1,0,0,1,1,1.52,6.36,6.36,0,0,1,.36,2.27v.68H226v-1.43H232a2.79,2.79,0,0,0-.31-1.34,2.25,2.25,0,0,0-.86-.92,2.39,2.39,0,0,0-1.29-.34,2.53,2.53,0,0,0-1.41.39,2.74,2.74,0,0,0-.92,1,3,3,0,0,0-.32,1.37V115a3.71,3.71,0,0,0,.35,1.67,2.47,2.47,0,0,0,1,1.05,2.91,2.91,0,0,0,1.47.36,3.12,3.12,0,0,0,1-.15,2.08,2.08,0,0,0,.77-.47,2,2,0,0,0,.5-.78l1.81.33a3.19,3.19,0,0,1-.78,1.4,3.72,3.72,0,0,1-1.4.92A5.17,5.17,0,0,1,229.61,119.7Zm-1-11.32,1.5-2.95h2l-2,2.95Z"/><path d="M155.3,139.7a3.82,3.82,0,0,1-2.12-.61,4.09,4.09,0,0,1-1.46-1.75,6.45,6.45,0,0,1-.53-2.73,6.28,6.28,0,0,1,.54-2.72,4,4,0,0,1,1.46-1.73,3.86,3.86,0,0,1,2.12-.6,3.09,3.09,0,0,1,1.47.3,2.52,2.52,0,0,1,.87.71,6.16,6.16,0,0,1,.49.71h.11v-4.87h1.91V139.5h-1.87V138h-.15a7.49,7.49,0,0,1-.5.71,2.82,2.82,0,0,1-.89.71A3.06,3.06,0,0,1,155.3,139.7Zm.42-1.63a2.27,2.27,0,0,0,1.4-.44,2.63,2.63,0,0,0,.86-1.22,5,5,0,0,0,.3-1.81,5.09,5.09,0,0,0-.29-1.79,2.72,2.72,0,0,0-.86-1.2,2.53,2.53,0,0,0-2.85,0,2.78,2.78,0,0,0-.87,1.22,5.06,5.06,0,0,0-.29,1.75,5,5,0,0,0,.3,1.77,2.74,2.74,0,0,0,.87,1.24A2.27,2.27,0,0,0,155.72,138.07Z"/><path d="M162.88,139.5v-9.81h1.85v1.56h.1a2.39,2.39,0,0,1,.95-1.25,2.69,2.69,0,0,1,1.55-.46h.42l.39,0v1.83l-.41-.07a3.9,3.9,0,0,0-.59,0,2.47,2.47,0,0,0-1.2.28,2.13,2.13,0,0,0-.84.79,2.16,2.16,0,0,0-.3,1.14v6Z"/><path d="M176,135.43v-5.74h1.92v9.81h-1.88v-1.7H176a3.06,3.06,0,0,1-1.09,1.31,3.11,3.11,0,0,1-1.85.52,3.26,3.26,0,0,1-1.67-.42,2.93,2.93,0,0,1-1.14-1.24,4.6,4.6,0,0,1-.41-2v-6.24h1.91v6a2.26,2.26,0,0,0,.56,1.6,1.86,1.86,0,0,0,1.44.59,2.44,2.44,0,0,0,1.07-.26,2.25,2.25,0,0,0,.89-.82A2.44,2.44,0,0,0,176,135.43Z"/><path d="M182.41,133.68v5.82H180.5V126.41h1.89v4.87h.12a2.93,2.93,0,0,1,1.05-1.26,3.35,3.35,0,0,1,1.86-.46,3.66,3.66,0,0,1,1.76.41,2.83,2.83,0,0,1,1.18,1.24,4.48,4.48,0,0,1,.42,2v6.24h-1.91v-6a2.38,2.38,0,0,0-.56-1.68,2,2,0,0,0-1.55-.6,2.55,2.55,0,0,0-1.21.29,2,2,0,0,0-.83.84A2.66,2.66,0,0,0,182.41,133.68Z"/><path d="M192.54,143.16a3.84,3.84,0,0,1-.78-.07,2.32,2.32,0,0,1-.52-.14l.46-1.57a2.22,2.22,0,0,0,1.32,0q.53-.18.9-1.14l.23-.65-3.59-9.94h2.05l2.48,7.62h.11l2.48-7.62,2.07,0-4.06,11.1a4.42,4.42,0,0,1-.72,1.29,2.82,2.82,0,0,1-1,.79A3.4,3.4,0,0,1,192.54,143.16Z"/><circle class="cls-1" cx="360.03" cy="113.61" r="45"/><path d="M357,89.85a1.88,1.88,0,0,0-.84-1.41,3.3,3.3,0,0,0-1.87-.5,3.49,3.49,0,0,0-1.39.25,2.16,2.16,0,0,0-.91.69,1.63,1.63,0,0,0-.32,1,1.39,1.39,0,0,0,.22.8,1.76,1.76,0,0,0,.58.57,4,4,0,0,0,.78.38,7,7,0,0,0,.79.24l1.28.33a12.07,12.07,0,0,1,1.29.42,5.25,5.25,0,0,1,1.22.69,3.44,3.44,0,0,1,.91,1.06,3.13,3.13,0,0,1,.35,1.52,3.48,3.48,0,0,1-.57,2,3.88,3.88,0,0,1-1.66,1.36,6.09,6.09,0,0,1-2.62.5,6.33,6.33,0,0,1-2.54-.46,4,4,0,0,1-1.68-1.33,3.73,3.73,0,0,1-.67-2h2a2,2,0,0,0,.46,1.18,2.44,2.44,0,0,0,1,.69,4.19,4.19,0,0,0,1.4.23,3.85,3.85,0,0,0,1.49-.27,2.34,2.34,0,0,0,1-.74,1.68,1.68,0,0,0,.38-1.11,1.4,1.4,0,0,0-.33-1,2.5,2.5,0,0,0-.89-.61,9.72,9.72,0,0,0-1.26-.43l-1.54-.42a6,6,0,0,1-2.5-1.26,2.82,2.82,0,0,1-.91-2.2,3.25,3.25,0,0,1,.61-2A4.21,4.21,0,0,1,352,86.7a5.79,5.79,0,0,1,2.37-.47,5.63,5.63,0,0,1,2.35.47,3.94,3.94,0,0,1,1.6,1.28,3.25,3.25,0,0,1,.62,1.87Z"/><path d="M363.23,93.68V99.5h-1.91V89.69h1.84v1.59h.12A2.86,2.86,0,0,1,364.34,90a3.36,3.36,0,0,1,1.83-.47,3.55,3.55,0,0,1,1.76.42,2.76,2.76,0,0,1,1.17,1.24,4.47,4.47,0,0,1,.42,2V99.5h-1.91v-6a2.37,2.37,0,0,0-.56-1.67,2,2,0,0,0-1.53-.61,2.43,2.43,0,0,0-1.18.29,2.05,2.05,0,0,0-.81.84A2.76,2.76,0,0,0,363.23,93.68Z"/><path d="M373,88.17a1.19,1.19,0,0,1-.85-.33,1.09,1.09,0,0,1,0-1.62,1.26,1.26,0,0,1,1.7,0,1.09,1.09,0,0,1,0,1.62A1.19,1.19,0,0,1,373,88.17Zm-1,11.33V89.69H374V99.5Z"/><path d="M376.35,99.5V98.19l5.32-6.75v-.09h-5.15V89.69h7.53v1.39l-5.11,6.67v.09h5.29V99.5Zm2.56-13.8,1.31,1.72,1.31-1.72h1.74v.1L381,88.51h-1.59l-2.25-2.71v-.1Z"/><path d="M392.7,95.43V89.69h1.92V99.5h-1.88V97.8h-.1a3.06,3.06,0,0,1-1.09,1.31,3.11,3.11,0,0,1-1.85.52,3.29,3.29,0,0,1-1.67-.42A2.93,2.93,0,0,1,386.89,98a4.6,4.6,0,0,1-.41-2V89.69h1.91v6a2.26,2.26,0,0,0,.56,1.6,1.86,1.86,0,0,0,1.44.59,2.52,2.52,0,0,0,1.08-.26,2.22,2.22,0,0,0,.88-.82A2.36,2.36,0,0,0,392.7,95.43Z"/><path d="M397.18,89.69h1.91v10.44a3.55,3.55,0,0,1-.36,1.67,2.23,2.23,0,0,1-1.05,1,3.57,3.57,0,0,1-1.72.34h-.37v-1.65h.31a1.21,1.21,0,0,0,1-.36,1.64,1.64,0,0,0,.3-1Zm.95-1.52a1.23,1.23,0,0,1-.86-.33,1.11,1.11,0,0,1,0-1.62,1.23,1.23,0,0,1,.86-.33,1.21,1.21,0,0,1,.85.33,1.09,1.09,0,0,1,0,1.62A1.21,1.21,0,0,1,398.13,88.17Z"/><path d="M405.89,99.7a4.82,4.82,0,0,1-2.49-.62,4.1,4.1,0,0,1-1.61-1.76,5.86,5.86,0,0,1-.57-2.66,5.92,5.92,0,0,1,.57-2.66,4.27,4.27,0,0,1,1.58-1.8,4.38,4.38,0,0,1,2.39-.64,4.9,4.9,0,0,1,1.61.27,3.87,3.87,0,0,1,1.4.87,4.12,4.12,0,0,1,1,1.52,6.36,6.36,0,0,1,.36,2.27v.68H402.3V93.74h5.93a2.91,2.91,0,0,0-.3-1.34,2.31,2.31,0,0,0-.86-.92,2.4,2.4,0,0,0-1.3-.34,2.52,2.52,0,0,0-1.4.39,2.58,2.58,0,0,0-.92,1,2.91,2.91,0,0,0-.32,1.37V95a3.71,3.71,0,0,0,.34,1.67,2.49,2.49,0,0,0,1,1.05,2.87,2.87,0,0,0,1.46.36,3,3,0,0,0,1-.15,2.2,2.2,0,0,0,.78-.47,2.23,2.23,0,0,0,.5-.78l1.8.33a3.27,3.27,0,0,1-.77,1.4,3.72,3.72,0,0,1-1.4.92A5.22,5.22,0,0,1,405.89,99.7Z"/><path d="M424.36,92.08l-1.73.31a2.15,2.15,0,0,0-.34-.63,1.73,1.73,0,0,0-.63-.49,2.27,2.27,0,0,0-1-.2,2.42,2.42,0,0,0-1.36.36,1.09,1.09,0,0,0-.54.93,1,1,0,0,0,.36.8,3.07,3.07,0,0,0,1.18.49l1.56.36a4.28,4.28,0,0,1,2,1,2.29,2.29,0,0,1,.66,1.7,2.59,2.59,0,0,1-.51,1.57,3.37,3.37,0,0,1-1.41,1.07,5.23,5.23,0,0,1-2.09.39,4.69,4.69,0,0,1-2.69-.7,3,3,0,0,1-1.28-2l1.85-.29a1.69,1.69,0,0,0,.71,1.09,2.37,2.37,0,0,0,1.4.37,2.61,2.61,0,0,0,1.5-.39,1.15,1.15,0,0,0,.56-1,1,1,0,0,0-.34-.78,2.34,2.34,0,0,0-1.05-.47l-1.66-.36a4.07,4.07,0,0,1-2-1,2.39,2.39,0,0,1-.65-1.73,2.48,2.48,0,0,1,.48-1.52,3.16,3.16,0,0,1,1.34-1,4.91,4.91,0,0,1,2-.37,4.06,4.06,0,0,1,2.5.69A3.22,3.22,0,0,1,424.36,92.08Z"/><path d="M430.88,99.7a4.85,4.85,0,0,1-2.5-.62,4.22,4.22,0,0,1-1.61-1.76,6,6,0,0,1-.56-2.66,6.05,6.05,0,0,1,.56-2.66,4.22,4.22,0,0,1,4-2.44,4.9,4.9,0,0,1,1.61.27,3.9,3.9,0,0,1,2.37,2.39,6.36,6.36,0,0,1,.36,2.27v.68h-7.8V93.74h5.93a2.79,2.79,0,0,0-.31-1.34,2.25,2.25,0,0,0-.86-.92,2.39,2.39,0,0,0-1.29-.34,2.47,2.47,0,0,0-1.4.39,2.58,2.58,0,0,0-.92,1,2.92,2.92,0,0,0-.33,1.37V95a3.71,3.71,0,0,0,.35,1.67,2.43,2.43,0,0,0,1,1.05,2.85,2.85,0,0,0,1.46.36,3.12,3.12,0,0,0,1-.15,2.08,2.08,0,0,0,.77-.47,2,2,0,0,0,.5-.78l1.81.33a3.19,3.19,0,0,1-.78,1.4,3.68,3.68,0,0,1-1.39.92A5.26,5.26,0,0,1,430.88,99.7Z"/><path d="M353.88,119.7a4.42,4.42,0,0,1-2.45-.65,4.23,4.23,0,0,1-1.58-1.79,6.51,6.51,0,0,1,0-5.26,4.36,4.36,0,0,1,1.59-1.8,4.4,4.4,0,0,1,2.41-.64,4.69,4.69,0,0,1,2,.41,3.67,3.67,0,0,1,1.42,1.15,3.56,3.56,0,0,1,.64,1.74h-1.86a2.24,2.24,0,0,0-.7-1.19,2.1,2.1,0,0,0-1.46-.5,2.39,2.39,0,0,0-1.4.42,2.68,2.68,0,0,0-.93,1.19,4.59,4.59,0,0,0-.33,1.82,4.74,4.74,0,0,0,.33,1.85,2.7,2.7,0,0,0,.92,1.21,2.4,2.4,0,0,0,1.41.43,2.31,2.31,0,0,0,1-.21,2,2,0,0,0,.74-.57,2.19,2.19,0,0,0,.43-.91h1.86a3.53,3.53,0,0,1-2,2.87A4.49,4.49,0,0,1,353.88,119.7Z"/><path d="M364.19,119.7a4.79,4.79,0,0,1-2.49-.62,4.1,4.1,0,0,1-1.61-1.76,5.86,5.86,0,0,1-.57-2.66,5.92,5.92,0,0,1,.57-2.66,4.27,4.27,0,0,1,1.58-1.8,4.38,4.38,0,0,1,2.39-.64,4.9,4.9,0,0,1,1.61.27,3.87,3.87,0,0,1,1.4.87,4.12,4.12,0,0,1,1,1.52,6.37,6.37,0,0,1,.35,2.27v.68h-7.8v-1.43h5.93a2.79,2.79,0,0,0-.31-1.34,2.29,2.29,0,0,0-.85-.92,2.4,2.4,0,0,0-1.3-.34,2.5,2.5,0,0,0-1.4.39,2.58,2.58,0,0,0-.92,1,2.91,2.91,0,0,0-.32,1.37V115a3.71,3.71,0,0,0,.34,1.67,2.49,2.49,0,0,0,1,1.05,2.87,2.87,0,0,0,1.46.36,3.12,3.12,0,0,0,1-.15,2.2,2.2,0,0,0,.78-.47,2.08,2.08,0,0,0,.49-.78l1.81.33a3.27,3.27,0,0,1-.77,1.4,3.8,3.8,0,0,1-1.4.92A5.22,5.22,0,0,1,364.19,119.7Z"/><path d="M372.45,106.41V119.5h-1.92V106.41Z"/><path d="M375,119.5V106.41h1.92V119.5Zm1.76-3.33v-2.33h.33l3.91-4.15h2.29l-4.46,4.73h-.3Zm4.45,3.33-3.52-4.66L379,113.5l4.54,6Z"/><path d="M389.17,119.7a4.51,4.51,0,0,1-2.41-.63,4.23,4.23,0,0,1-1.6-1.77,6.52,6.52,0,0,1,0-5.33,4.26,4.26,0,0,1,1.6-1.78,4.92,4.92,0,0,1,4.82,0,4.23,4.23,0,0,1,1.59,1.78,6.52,6.52,0,0,1,0,5.33,4.21,4.21,0,0,1-1.59,1.77A4.53,4.53,0,0,1,389.17,119.7Zm0-1.6a2.35,2.35,0,0,0,1.49-.47,2.86,2.86,0,0,0,.87-1.26,5.52,5.52,0,0,0,0-3.47,2.86,2.86,0,0,0-.87-1.26,2.55,2.55,0,0,0-3,0,2.78,2.78,0,0,0-.87,1.26,5.34,5.34,0,0,0,0,3.47,2.78,2.78,0,0,0,.87,1.26A2.33,2.33,0,0,0,389.17,118.1Z"/><path d="M404.27,109.69l-3.56,9.81h-2l-3.56-9.81h2l2.49,7.55h.1l2.48-7.55Z"/><path d="M408.92,119.72a3.83,3.83,0,0,1-1.68-.35,2.83,2.83,0,0,1-1.2-1,2.91,2.91,0,0,1-.43-1.63,2.6,2.6,0,0,1,.32-1.37,2.34,2.34,0,0,1,.86-.85A4.62,4.62,0,0,1,408,114a10.61,10.61,0,0,1,1.37-.24l1.43-.17a2.16,2.16,0,0,0,.8-.22.54.54,0,0,0,.25-.5v0a1.69,1.69,0,0,0-.47-1.29,1.91,1.91,0,0,0-1.4-.47,2.44,2.44,0,0,0-1.51.43,2.31,2.31,0,0,0-.77.94l-1.79-.41a3.4,3.4,0,0,1,.93-1.44,3.83,3.83,0,0,1,1.43-.81,5.53,5.53,0,0,1,1.69-.25,5.63,5.63,0,0,1,1.25.14,3.6,3.6,0,0,1,1.24.5,2.82,2.82,0,0,1,.95,1,3.56,3.56,0,0,1,.37,1.74v6.52H411.9v-1.34h-.07a2.84,2.84,0,0,1-1.51,1.32A3.66,3.66,0,0,1,408.92,119.72Zm.42-1.53a2.76,2.76,0,0,0,1.36-.32,2.19,2.19,0,0,0,.86-.82,2.11,2.11,0,0,0,.3-1.09V114.7a1,1,0,0,1-.39.19c-.2,0-.42.1-.67.14l-.72.11-.59.08a4.82,4.82,0,0,0-1,.24,1.81,1.81,0,0,0-.73.47,1.38,1.38,0,0,0,.25,1.9A2.33,2.33,0,0,0,409.34,118.19Zm-.07-9.81,1.5-2.95h2l-2,2.95Z"/><path d="M424.76,119.7a3.84,3.84,0,0,1-2.12-.61,4.09,4.09,0,0,1-1.46-1.75,6.45,6.45,0,0,1-.53-2.73,6.28,6.28,0,0,1,.54-2.72,4,4,0,0,1,1.46-1.73,3.86,3.86,0,0,1,2.12-.6,3.09,3.09,0,0,1,1.47.3,2.52,2.52,0,0,1,.87.71,6.16,6.16,0,0,1,.49.71h.11v-4.87h1.91V119.5h-1.86V118h-.16a7.49,7.49,0,0,1-.5.71,2.77,2.77,0,0,1-.88.71A3.13,3.13,0,0,1,424.76,119.7Zm.42-1.63a2.27,2.27,0,0,0,1.4-.44,2.72,2.72,0,0,0,.87-1.22,5.25,5.25,0,0,0,.29-1.81,5.09,5.09,0,0,0-.29-1.79,2.64,2.64,0,0,0-.86-1.2,2.53,2.53,0,0,0-2.85,0,2.68,2.68,0,0,0-.86,1.22,4.83,4.83,0,0,0-.3,1.75,5,5,0,0,0,.3,1.77,2.82,2.82,0,0,0,.87,1.24A2.27,2.27,0,0,0,425.18,118.07Z"/><path d="M432.34,119.5v-9.81h1.85v1.56h.1a2.39,2.39,0,0,1,.95-1.25,2.69,2.69,0,0,1,1.55-.46h.42l.39,0v1.83l-.41-.07a3.9,3.9,0,0,0-.59,0,2.47,2.47,0,0,0-1.2.28,2.2,2.2,0,0,0-.84.79,2.16,2.16,0,0,0-.3,1.14v6Z"/><path d="M445.48,115.43v-5.74h1.92v9.81h-1.88v-1.7h-.1a3.06,3.06,0,0,1-1.09,1.31,3.11,3.11,0,0,1-1.85.52,3.26,3.26,0,0,1-1.67-.42,2.93,2.93,0,0,1-1.14-1.24,4.6,4.6,0,0,1-.41-2v-6.24h1.91v6a2.26,2.26,0,0,0,.56,1.6,1.86,1.86,0,0,0,1.44.59,2.44,2.44,0,0,0,1.07-.26,2.25,2.25,0,0,0,.89-.82A2.44,2.44,0,0,0,445.48,115.43Z"/><path d="M451.87,113.68v5.82H450V106.41h1.89v4.87H452a2.93,2.93,0,0,1,1-1.26,3.35,3.35,0,0,1,1.86-.46,3.66,3.66,0,0,1,1.76.41,2.83,2.83,0,0,1,1.18,1.24,4.48,4.48,0,0,1,.42,2.05v6.24h-1.91v-6a2.38,2.38,0,0,0-.56-1.68,2,2,0,0,0-1.55-.6,2.55,2.55,0,0,0-1.21.29,2,2,0,0,0-.83.84A2.66,2.66,0,0,0,451.87,113.68Z"/><path d="M464.93,119.7a4.53,4.53,0,0,1-2.41-.63,4.3,4.3,0,0,1-1.6-1.77,6.52,6.52,0,0,1,0-5.33,4.32,4.32,0,0,1,1.6-1.78,4.92,4.92,0,0,1,4.82,0,4.26,4.26,0,0,1,1.6,1.78,6.52,6.52,0,0,1,0,5.33,4.23,4.23,0,0,1-1.6,1.77A4.53,4.53,0,0,1,464.93,119.7Zm0-1.6a2.32,2.32,0,0,0,1.48-.47,2.86,2.86,0,0,0,.87-1.26,5.34,5.34,0,0,0,0-3.47,2.86,2.86,0,0,0-.87-1.26,2.27,2.27,0,0,0-1.48-.48,2.33,2.33,0,0,0-1.5.48,2.86,2.86,0,0,0-.87,1.26,5.34,5.34,0,0,0,0,3.47,2.86,2.86,0,0,0,.87,1.26A2.38,2.38,0,0,0,464.94,118.1Z"/><path d="M480,109.69l-3.57,9.81h-2l-3.57-9.81h2.05l2.49,7.55h.1l2.48-7.55Z"/><path d="M484.69,119.72a3.87,3.87,0,0,1-1.69-.35,2.8,2.8,0,0,1-1.19-1,2.92,2.92,0,0,1-.44-1.63,2.7,2.7,0,0,1,.32-1.37,2.34,2.34,0,0,1,.86-.85,4.69,4.69,0,0,1,1.22-.47,10.32,10.32,0,0,1,1.37-.24l1.43-.17a2.29,2.29,0,0,0,.8-.22.57.57,0,0,0,.25-.5v0a1.73,1.73,0,0,0-.47-1.29,1.92,1.92,0,0,0-1.4-.47,2.47,2.47,0,0,0-1.52.43,2.28,2.28,0,0,0-.76.94l-1.8-.41a3.41,3.41,0,0,1,.94-1.44,3.79,3.79,0,0,1,1.42-.81,5.76,5.76,0,0,1,2.94-.11,3.52,3.52,0,0,1,1.24.5,2.67,2.67,0,0,1,1,1,3.56,3.56,0,0,1,.37,1.74v6.52h-1.86v-1.34h-.08a2.6,2.6,0,0,1-.56.73,2.7,2.7,0,0,1-.95.59A3.64,3.64,0,0,1,484.69,119.72Zm.41-1.53a2.76,2.76,0,0,0,1.36-.32,2.07,2.07,0,0,0,.86-.82,2.11,2.11,0,0,0,.3-1.09V114.7a1,1,0,0,1-.39.19c-.19,0-.42.1-.66.14l-.72.11-.59.08a5.08,5.08,0,0,0-1,.24,1.77,1.77,0,0,0-.72.47,1.18,1.18,0,0,0-.28.83,1.22,1.22,0,0,0,.53,1.07A2.29,2.29,0,0,0,485.1,118.19Zm-.07-9.81,1.5-2.95h2l-2,2.95Z"/><path d="M349.74,143.19v-13.5h1.87v1.59h.16a4.94,4.94,0,0,1,.48-.71,2.62,2.62,0,0,1,.87-.71,3.09,3.09,0,0,1,1.47-.3,3.83,3.83,0,0,1,2.12.6,4.12,4.12,0,0,1,1.47,1.73,7.27,7.27,0,0,1,0,5.45,4.16,4.16,0,0,1-1.46,1.75,3.82,3.82,0,0,1-2.12.61,3.13,3.13,0,0,1-1.46-.3,2.77,2.77,0,0,1-.88-.71,5.78,5.78,0,0,1-.49-.71h-.12v5.21Zm1.87-8.59a5,5,0,0,0,.3,1.81,2.72,2.72,0,0,0,.87,1.22,2.45,2.45,0,0,0,2.83,0,2.9,2.9,0,0,0,.87-1.24,5,5,0,0,0,.3-1.77,5.06,5.06,0,0,0-.29-1.75,2.78,2.78,0,0,0-.87-1.22,2.29,2.29,0,0,0-1.44-.45,2.25,2.25,0,0,0-1.41.43,2.57,2.57,0,0,0-.86,1.2A4.86,4.86,0,0,0,351.61,134.6Z"/><path d="M365.08,139.7a4.79,4.79,0,0,1-2.49-.62,4.18,4.18,0,0,1-1.62-1.76,6,6,0,0,1-.56-2.66A6.05,6.05,0,0,1,361,132a4.22,4.22,0,0,1,4-2.44,4.9,4.9,0,0,1,1.61.27,3.87,3.87,0,0,1,1.4.87,4.12,4.12,0,0,1,1,1.52,6.6,6.6,0,0,1,.35,2.27v.68h-7.8v-1.43h5.93a2.79,2.79,0,0,0-.31-1.34,2.25,2.25,0,0,0-.86-.92,2.37,2.37,0,0,0-1.29-.34,2.5,2.5,0,0,0-1.4.39,2.58,2.58,0,0,0-.92,1,2.92,2.92,0,0,0-.33,1.37V135a3.71,3.71,0,0,0,.35,1.67,2.43,2.43,0,0,0,1,1,2.87,2.87,0,0,0,1.46.36,3.12,3.12,0,0,0,1-.15,2.2,2.2,0,0,0,.78-.47,2.08,2.08,0,0,0,.49-.78l1.81.33a3.27,3.27,0,0,1-.77,1.4,3.8,3.8,0,0,1-1.4.92A5.22,5.22,0,0,1,365.08,139.7Z"/><path d="M378.78,132.08l-1.73.31a2.42,2.42,0,0,0-.34-.63,1.73,1.73,0,0,0-.63-.49,2.28,2.28,0,0,0-1-.2,2.38,2.38,0,0,0-1.35.36,1.09,1.09,0,0,0-.54.93,1,1,0,0,0,.36.8,3,3,0,0,0,1.18.49l1.56.36a4.28,4.28,0,0,1,2,1,2.29,2.29,0,0,1,.66,1.7,2.59,2.59,0,0,1-.51,1.57,3.44,3.44,0,0,1-1.41,1.07,5.23,5.23,0,0,1-2.09.39,4.69,4.69,0,0,1-2.69-.7,2.94,2.94,0,0,1-1.28-2l1.84-.29a1.77,1.77,0,0,0,.71,1.09,2.41,2.41,0,0,0,1.4.37,2.62,2.62,0,0,0,1.51-.39,1.15,1.15,0,0,0,.56-1,1,1,0,0,0-.34-.78,2.34,2.34,0,0,0-1.05-.47L374,135.2a4,4,0,0,1-2-1,2.39,2.39,0,0,1-.65-1.73,2.48,2.48,0,0,1,.48-1.52,3.1,3.1,0,0,1,1.34-1,4.88,4.88,0,0,1,2-.37,4.06,4.06,0,0,1,2.5.69A3.22,3.22,0,0,1,378.78,132.08Z"/><path d="M385.65,129.69v1.53h-5.36v-1.53Zm-3.92-2.36h1.91v9.29a1.71,1.71,0,0,0,.16.84.85.85,0,0,0,.43.37,1.57,1.57,0,0,0,.58.1,2.46,2.46,0,0,0,.41,0l.26-.05.35,1.58-.47.13a4,4,0,0,1-.77.07,3.35,3.35,0,0,1-1.41-.27,2.33,2.33,0,0,1-1.05-.87,2.52,2.52,0,0,1-.4-1.47Z"/><path d="M387.76,139.5v-9.81h1.85v1.56h.1a2.39,2.39,0,0,1,1-1.25,2.66,2.66,0,0,1,1.54-.46h.43l.38,0v1.83l-.4-.07a4,4,0,0,0-.59,0,2.51,2.51,0,0,0-1.21.28,2.1,2.1,0,0,0-.83.79,2.07,2.07,0,0,0-.31,1.14v6Z"/><path d="M398.81,139.7a4.53,4.53,0,0,1-2.41-.63,4.3,4.3,0,0,1-1.6-1.77,6.52,6.52,0,0,1,0-5.33,4.32,4.32,0,0,1,1.6-1.78,4.92,4.92,0,0,1,4.82,0,4.26,4.26,0,0,1,1.6,1.78,6.52,6.52,0,0,1,0,5.33,4.23,4.23,0,0,1-1.6,1.77A4.51,4.51,0,0,1,398.81,139.7Zm0-1.6a2.32,2.32,0,0,0,1.48-.47,2.86,2.86,0,0,0,.87-1.26,5.34,5.34,0,0,0,0-3.47,2.86,2.86,0,0,0-.87-1.26,2.54,2.54,0,0,0-3,0,2.8,2.8,0,0,0-.88,1.26,5.52,5.52,0,0,0,0,3.47,2.8,2.8,0,0,0,.88,1.26A2.33,2.33,0,0,0,398.82,138.1Z"/><path d="M412.87,132.08l-1.73.31a1.94,1.94,0,0,0-.34-.63,1.73,1.73,0,0,0-.63-.49,2.21,2.21,0,0,0-1-.2,2.44,2.44,0,0,0-1.36.36,1.09,1.09,0,0,0-.54.93,1,1,0,0,0,.37.8,2.94,2.94,0,0,0,1.17.49l1.56.36a4.19,4.19,0,0,1,2,1,2.3,2.3,0,0,1,.67,1.7,2.59,2.59,0,0,1-.51,1.57,3.41,3.41,0,0,1-1.42,1.07,5.23,5.23,0,0,1-2.09.39,4.72,4.72,0,0,1-2.69-.7,3,3,0,0,1-1.28-2l1.85-.29a1.73,1.73,0,0,0,.71,1.09,2.39,2.39,0,0,0,1.4.37,2.57,2.57,0,0,0,1.5-.39,1.13,1.13,0,0,0,.56-1,1,1,0,0,0-.34-.78,2.29,2.29,0,0,0-1-.47l-1.66-.36a4,4,0,0,1-2-1,2.39,2.39,0,0,1-.66-1.73,2.43,2.43,0,0,1,.49-1.52,3.1,3.1,0,0,1,1.34-1,4.83,4.83,0,0,1,2-.37,4.09,4.09,0,0,1,2.51.69A3.16,3.16,0,0,1,412.87,132.08Z"/><path d="M419.75,129.69v1.53h-5.37v-1.53Zm-3.93-2.36h1.91v9.29a1.7,1.7,0,0,0,.17.84.81.81,0,0,0,.43.37,1.57,1.57,0,0,0,.58.1,2.33,2.33,0,0,0,.4,0l.27-.05.34,1.58-.47.13a4,4,0,0,1-.77.07,3.27,3.27,0,0,1-1.4-.27,2.31,2.31,0,0,1-1.06-.87,2.6,2.6,0,0,1-.4-1.47Z"/><circle class="cls-1" cx="558.53" cy="113.61" r="45"/><path d="M555.53,89.85a1.89,1.89,0,0,0-.85-1.41,3.26,3.26,0,0,0-1.86-.5,3.5,3.5,0,0,0-1.4.25,2.23,2.23,0,0,0-.91.69,1.7,1.7,0,0,0-.32,1,1.39,1.39,0,0,0,.22.8,1.86,1.86,0,0,0,.58.57,4,4,0,0,0,.78.38,7.14,7.14,0,0,0,.8.24l1.28.33a12.69,12.69,0,0,1,1.28.42,5.05,5.05,0,0,1,1.22.69,3.31,3.31,0,0,1,.91,1.06,3.13,3.13,0,0,1,.35,1.52,3.48,3.48,0,0,1-.57,2,3.77,3.77,0,0,1-1.66,1.36,6.08,6.08,0,0,1-2.61.5,6.42,6.42,0,0,1-2.55-.46,4.07,4.07,0,0,1-1.68-1.33,3.82,3.82,0,0,1-.67-2h2a2,2,0,0,0,.46,1.18,2.41,2.41,0,0,0,1.05.69,4.14,4.14,0,0,0,1.39.23,3.85,3.85,0,0,0,1.49-.27,2.38,2.38,0,0,0,1-.74,1.73,1.73,0,0,0,.37-1.11,1.39,1.39,0,0,0-.32-1,2.59,2.59,0,0,0-.89-.61,10.45,10.45,0,0,0-1.27-.43l-1.54-.42a5.84,5.84,0,0,1-2.49-1.26,2.83,2.83,0,0,1-.92-2.2,3.32,3.32,0,0,1,.61-2,4.17,4.17,0,0,1,1.67-1.32,5.75,5.75,0,0,1,2.36-.47,5.6,5.6,0,0,1,2.35.47A4,4,0,0,1,556.82,88a3.31,3.31,0,0,1,.61,1.87Z"/><path d="M564.4,89.69v1.53H559V89.69Zm-3.93-2.36h1.92v9.29a1.71,1.71,0,0,0,.16.84.85.85,0,0,0,.43.37,1.57,1.57,0,0,0,.58.1,2.25,2.25,0,0,0,.4,0l.27-.05.35,1.58a4.89,4.89,0,0,1-.48.13,3.94,3.94,0,0,1-.76.07,3.32,3.32,0,0,1-1.41-.27,2.28,2.28,0,0,1-1-.87,2.52,2.52,0,0,1-.41-1.47Z"/><path d="M566.51,99.5V89.69h1.91V99.5Zm.18-11.12,1.49-2.95h2l-2,2.95Z"/><path d="M571,99.5V89.69h1.85v1.56h.1a2.34,2.34,0,0,1,.95-1.25,2.66,2.66,0,0,1,1.54-.46h.43l.38,0v1.83l-.41-.07a3.77,3.77,0,0,0-.58,0,2.49,2.49,0,0,0-1.21.28,2.1,2.1,0,0,0-.83.79,2.07,2.07,0,0,0-.31,1.14v6Z"/><path d="M580.76,99.72a3.9,3.9,0,0,1-1.69-.35,2.8,2.8,0,0,1-1.19-1,2.92,2.92,0,0,1-.44-1.63,2.7,2.7,0,0,1,.32-1.37,2.44,2.44,0,0,1,.87-.85,4.48,4.48,0,0,1,1.21-.47,10.32,10.32,0,0,1,1.37-.24l1.43-.17a2.23,2.23,0,0,0,.8-.22.54.54,0,0,0,.25-.5v0a1.73,1.73,0,0,0-.47-1.29,1.91,1.91,0,0,0-1.4-.47,2.42,2.42,0,0,0-1.51.43,2.31,2.31,0,0,0-.77.94l-1.8-.41a3.51,3.51,0,0,1,.94-1.44,3.86,3.86,0,0,1,1.42-.81,5.79,5.79,0,0,1,2.95-.11,3.6,3.6,0,0,1,1.24.5,2.82,2.82,0,0,1,1,1,3.68,3.68,0,0,1,.37,1.74V99.5h-1.87V98.16h-.08a2.75,2.75,0,0,1-.55.73,2.9,2.9,0,0,1-1,.59A3.69,3.69,0,0,1,580.76,99.72Zm.42-1.53a2.76,2.76,0,0,0,1.36-.32,2.19,2.19,0,0,0,.86-.82,2.11,2.11,0,0,0,.3-1.09V94.7a1,1,0,0,1-.4.19c-.19,0-.41.1-.66.14l-.72.11-.59.08a4.82,4.82,0,0,0-1,.24,1.74,1.74,0,0,0-.73.47,1.38,1.38,0,0,0,.25,1.9A2.33,2.33,0,0,0,581.18,98.19Z"/><path d="M588.15,89.69h1.91v10.44a3.55,3.55,0,0,1-.36,1.67,2.23,2.23,0,0,1-1.05,1,3.57,3.57,0,0,1-1.72.34h-.37v-1.65h.31a1.23,1.23,0,0,0,1-.36,1.64,1.64,0,0,0,.3-1Zm1-1.52a1.23,1.23,0,0,1-.86-.33,1.11,1.11,0,0,1,0-1.62,1.23,1.23,0,0,1,.86-.33,1.21,1.21,0,0,1,.85.33,1.09,1.09,0,0,1,0,1.62A1.21,1.21,0,0,1,589.1,88.17Z"/><path d="M592.63,99.5V89.69h1.91V99.5Zm.18-11.12,1.5-2.95h2l-2,2.95Z"/><path d="M609.24,92.08l-1.73.31a2.19,2.19,0,0,0-.35-.63,1.57,1.57,0,0,0-.63-.49,2.21,2.21,0,0,0-1-.2,2.38,2.38,0,0,0-1.35.36,1.1,1.1,0,0,0-.55.93,1,1,0,0,0,.37.8,2.93,2.93,0,0,0,1.18.49l1.56.36a4.28,4.28,0,0,1,2,1,2.29,2.29,0,0,1,.66,1.7,2.59,2.59,0,0,1-.51,1.57,3.44,3.44,0,0,1-1.41,1.07,5.23,5.23,0,0,1-2.09.39,4.75,4.75,0,0,1-2.7-.7,3,3,0,0,1-1.27-2l1.84-.29a1.73,1.73,0,0,0,.71,1.09,2.41,2.41,0,0,0,1.4.37,2.62,2.62,0,0,0,1.51-.39,1.15,1.15,0,0,0,.56-1,1,1,0,0,0-.34-.78,2.34,2.34,0,0,0-1-.47l-1.66-.36a4,4,0,0,1-2-1,2.39,2.39,0,0,1-.66-1.73,2.49,2.49,0,0,1,.49-1.52,3.1,3.1,0,0,1,1.34-1,4.86,4.86,0,0,1,2-.37,4.07,4.07,0,0,1,2.51.69A3.22,3.22,0,0,1,609.24,92.08Z"/><path d="M615.76,99.7a4.85,4.85,0,0,1-2.5-.62,4.22,4.22,0,0,1-1.61-1.76,6.6,6.6,0,0,1,0-5.32,4.22,4.22,0,0,1,4-2.44,4.82,4.82,0,0,1,1.61.27,4,4,0,0,1,1.41.87,4.1,4.1,0,0,1,1,1.52,6.36,6.36,0,0,1,.36,2.27v.68h-7.8V93.74h5.93a2.79,2.79,0,0,0-.31-1.34,2.25,2.25,0,0,0-.86-.92,2.39,2.39,0,0,0-1.29-.34,2.53,2.53,0,0,0-1.41.39,2.74,2.74,0,0,0-.92,1,3,3,0,0,0-.32,1.37V95a3.71,3.71,0,0,0,.35,1.67,2.47,2.47,0,0,0,1,1.05,2.91,2.91,0,0,0,1.47.36,3.12,3.12,0,0,0,1-.15,2.16,2.16,0,0,0,.77-.47,2,2,0,0,0,.5-.78l1.81.33a3.29,3.29,0,0,1-.78,1.4,3.72,3.72,0,0,1-1.4.92A5.2,5.2,0,0,1,615.76,99.7Z"/><path d="M548.23,119.5v-9.81h1.85v1.56h.1a2.39,2.39,0,0,1,1-1.25,2.69,2.69,0,0,1,1.55-.46h.42l.39,0v1.83l-.41-.07a3.9,3.9,0,0,0-.59,0,2.47,2.47,0,0,0-1.2.28,2.13,2.13,0,0,0-.84.79,2.16,2.16,0,0,0-.31,1.14v6Z"/><path d="M559.29,119.7a4.49,4.49,0,0,1-2.41-.63,4.23,4.23,0,0,1-1.6-1.77,6.52,6.52,0,0,1,0-5.33,4.26,4.26,0,0,1,1.6-1.78,4.91,4.91,0,0,1,4.81,0,4.26,4.26,0,0,1,1.6,1.78,6.52,6.52,0,0,1,0,5.33,4.23,4.23,0,0,1-1.6,1.77A4.47,4.47,0,0,1,559.29,119.7Zm0-1.6a2.3,2.3,0,0,0,1.48-.47,2.8,2.8,0,0,0,.88-1.26,5.52,5.52,0,0,0,0-3.47,2.8,2.8,0,0,0-.88-1.26,2.25,2.25,0,0,0-1.48-.48,2.28,2.28,0,0,0-1.49.48,2.8,2.8,0,0,0-.88,1.26,5.52,5.52,0,0,0,0,3.47,2.8,2.8,0,0,0,.88,1.26A2.33,2.33,0,0,0,559.29,118.1Z"/><path d="M565.79,119.5v-1.31l5.31-6.75v-.09H566v-1.66h7.53v1.39l-5.12,6.67v.09h5.3v1.66Z"/><path d="M579.59,119.7a3.84,3.84,0,0,1-2.12-.61,4.07,4.07,0,0,1-1.45-1.75,6.3,6.3,0,0,1-.53-2.73,6.44,6.44,0,0,1,.53-2.72,4.12,4.12,0,0,1,1.47-1.73,3.83,3.83,0,0,1,2.12-.6,3.09,3.09,0,0,1,1.47.3,2.73,2.73,0,0,1,.87.71,7.45,7.45,0,0,1,.48.71h.12v-4.87h1.91V119.5h-1.87V118h-.16a6,6,0,0,1-.5.71,2.77,2.77,0,0,1-.88.71A3.1,3.1,0,0,1,579.59,119.7Zm.42-1.63a2.25,2.25,0,0,0,1.4-.44,2.72,2.72,0,0,0,.87-1.22,5,5,0,0,0,.3-1.81,4.86,4.86,0,0,0-.3-1.79,2.57,2.57,0,0,0-.86-1.2,2.51,2.51,0,0,0-2.84,0,2.63,2.63,0,0,0-.87,1.22,5.06,5.06,0,0,0-.29,1.75,5.21,5.21,0,0,0,.29,1.77,2.84,2.84,0,0,0,.88,1.24A2.24,2.24,0,0,0,580,118.07Z"/><path d="M587.18,119.5v-9.81h1.91v9.81Zm.18-11.12,1.49-2.95h2l-2,2.95Z"/><path d="M593.57,106.41V119.5h-1.91V106.41Z"/><path d="M597.35,123.16a3.71,3.71,0,0,1-.78-.07,2.17,2.17,0,0,1-.52-.14l.46-1.57a2.22,2.22,0,0,0,1.32,0c.35-.12.65-.5.89-1.14l.24-.65-3.59-9.94h2l2.49,7.62h.1l2.49-7.62,2.06,0-4.06,11.1a4.19,4.19,0,0,1-.71,1.29,2.85,2.85,0,0,1-1,.79A3.35,3.35,0,0,1,597.35,123.16Z"/><path d="M611.12,119.5v-9.81H613v1.59h.12a2.53,2.53,0,0,1,1-1.26,2.92,2.92,0,0,1,1.67-.46,2.66,2.66,0,0,1,2.64,1.72h.1a2.76,2.76,0,0,1,1.12-1.25,3.45,3.45,0,0,1,1.82-.47,3,3,0,0,1,2.19.84,3.41,3.41,0,0,1,.84,2.52v6.58h-1.91v-6.4a1.78,1.78,0,0,0-.54-1.45,2,2,0,0,0-1.3-.44,1.87,1.87,0,0,0-1.45.57,2.13,2.13,0,0,0-.52,1.47v6.25h-1.9V113a1.75,1.75,0,0,0-.5-1.29,1.8,1.8,0,0,0-1.3-.48,1.87,1.87,0,0,0-1,.28,2.07,2.07,0,0,0-.73.79,2.36,2.36,0,0,0-.28,1.17v6Z"/><path d="M631.25,119.7a4.82,4.82,0,0,1-2.49-.62,4.1,4.1,0,0,1-1.61-1.76,5.86,5.86,0,0,1-.57-2.66,5.92,5.92,0,0,1,.57-2.66,4.27,4.27,0,0,1,1.58-1.8,4.38,4.38,0,0,1,2.39-.64,4.9,4.9,0,0,1,1.61.27,3.87,3.87,0,0,1,1.4.87,4.12,4.12,0,0,1,1,1.52,6.36,6.36,0,0,1,.36,2.27v.68h-7.81v-1.43h5.93a2.91,2.91,0,0,0-.3-1.34,2.34,2.34,0,0,0-2.16-1.26,2.5,2.5,0,0,0-1.4.39,2.58,2.58,0,0,0-.92,1,2.92,2.92,0,0,0-.33,1.37V115a3.71,3.71,0,0,0,.35,1.67,2.43,2.43,0,0,0,1,1.05,2.85,2.85,0,0,0,1.46.36,3.12,3.12,0,0,0,1-.15,2.2,2.2,0,0,0,.78-.47,2.08,2.08,0,0,0,.49-.78l1.81.33a3.27,3.27,0,0,1-.77,1.4,3.8,3.8,0,0,1-1.4.92A5.22,5.22,0,0,1,631.25,119.7Z"/><path d="M637.39,119.5v-1.31l5.32-6.75v-.09h-5.15v-1.66h7.53v1.39L640,117.75v.09h5.29v1.66Z"/><path d="M648.48,108.17a1.21,1.21,0,0,1-.85-.33,1.11,1.11,0,0,1,0-1.62,1.27,1.27,0,0,1,1.71,0,1.11,1.11,0,0,1,0,1.62A1.22,1.22,0,0,1,648.48,108.17Zm-1,11.33v-9.81h1.91v9.81Z"/><path d="M548.23,139.5v-9.81h1.85v1.56h.1a2.39,2.39,0,0,1,1-1.25,2.69,2.69,0,0,1,1.55-.46h.42l.39,0v1.83l-.41-.07a3.9,3.9,0,0,0-.59,0,2.47,2.47,0,0,0-1.2.28,2.13,2.13,0,0,0-.84.79,2.16,2.16,0,0,0-.31,1.14v6Z"/><path d="M561.37,135.43v-5.74h1.92v9.81h-1.88v-1.7h-.1a3.06,3.06,0,0,1-1.09,1.31,3.13,3.13,0,0,1-1.85.52,3.26,3.26,0,0,1-1.67-.42,2.93,2.93,0,0,1-1.14-1.24,4.6,4.6,0,0,1-.41-2v-6.24h1.91v6a2.26,2.26,0,0,0,.56,1.6,1.86,1.86,0,0,0,1.44.59,2.44,2.44,0,0,0,1.07-.26,2.25,2.25,0,0,0,.89-.82A2.44,2.44,0,0,0,561.37,135.43Zm-2.14-6.83a2.34,2.34,0,0,1-1.15-.29,2,2,0,0,1-.82-.77,1.93,1.93,0,0,1-.31-1.09,2,2,0,0,1,.31-1.1,2.28,2.28,0,0,1,2-1.1,2.22,2.22,0,0,1,1.15.3,2.3,2.3,0,0,1,.81.8,2.09,2.09,0,0,1,.3,1.1,2,2,0,0,1-.3,1.09,2.07,2.07,0,0,1-.81.77A2.31,2.31,0,0,1,559.23,128.6Zm0-1a1.13,1.13,0,0,0,.83-.35,1.1,1.1,0,0,0,.33-.78,1.15,1.15,0,0,0-.33-.8,1.07,1.07,0,0,0-.83-.36,1,1,0,0,0-.82.36,1.15,1.15,0,0,0-.33.8,1.1,1.1,0,0,0,.33.78A1.07,1.07,0,0,0,559.23,127.58Z"/><path d="M565.64,139.5v-1.31l5.32-6.75v-.09h-5.14v-1.66h7.53v1.39l-5.12,6.67v.09h5.3v1.66Z"/><path d="M577.69,133.68v5.82h-1.91v-9.81h1.83v1.59h.12A2.82,2.82,0,0,1,578.8,130a3.31,3.31,0,0,1,1.83-.47,3.58,3.58,0,0,1,1.76.42,2.87,2.87,0,0,1,1.17,1.24,4.6,4.6,0,0,1,.41,2v6.24h-1.91v-6a2.37,2.37,0,0,0-.56-1.67,2,2,0,0,0-1.52-.61,2.37,2.37,0,0,0-1.18.29,2,2,0,0,0-.82.84A2.88,2.88,0,0,0,577.69,133.68Z"/><path d="M587.74,143.16a3.71,3.71,0,0,1-.78-.07,2.43,2.43,0,0,1-.53-.14l.46-1.57a2.22,2.22,0,0,0,1.32,0q.54-.18.9-1.14l.24-.65-3.6-9.94h2l2.49,7.62h.1l2.49-7.62,2.06,0-4.06,11.1a4.42,4.42,0,0,1-.72,1.29,2.74,2.74,0,0,1-1,.79A3.38,3.38,0,0,1,587.74,143.16Zm1.81-14.78,1.49-2.95h2l-2,2.95Z"/><path d="M596.73,139.5v-9.81h1.84v1.59h.12a2.56,2.56,0,0,1,1-1.26,3,3,0,0,1,1.67-.46A2.85,2.85,0,0,1,603,130a2.74,2.74,0,0,1,1,1.26h.11a2.74,2.74,0,0,1,1.11-1.25,3.46,3.46,0,0,1,1.83-.47,3,3,0,0,1,2.18.84,3.37,3.37,0,0,1,.85,2.52v6.58h-1.91v-6.4a1.78,1.78,0,0,0-.54-1.45,2,2,0,0,0-1.3-.44,1.85,1.85,0,0,0-1.45.57,2.08,2.08,0,0,0-.52,1.47v6.25h-1.9V133a1.75,1.75,0,0,0-.5-1.29,1.8,1.8,0,0,0-1.3-.48,1.84,1.84,0,0,0-1,.28,2.09,2.09,0,0,0-.74.79,2.46,2.46,0,0,0-.27,1.17v6.05Z"/><path d="M613.6,128.17a1.21,1.21,0,0,1-.85-.33,1.11,1.11,0,0,1,0-1.62,1.27,1.27,0,0,1,1.71,0,1.11,1.11,0,0,1,0,1.62A1.22,1.22,0,0,1,613.6,128.17Zm-1,11.33v-9.81h1.91v9.81Z"/><path d="M621.89,139.5v-9.81h1.83v1.59h.12a2.53,2.53,0,0,1,1-1.26,2.92,2.92,0,0,1,1.67-.46,2.66,2.66,0,0,1,2.64,1.72h.1a2.76,2.76,0,0,1,1.12-1.25,3.46,3.46,0,0,1,1.83-.47,3,3,0,0,1,2.18.84,3.41,3.41,0,0,1,.84,2.52v6.58h-1.91v-6.4a1.78,1.78,0,0,0-.54-1.45,2,2,0,0,0-1.3-.44,1.87,1.87,0,0,0-1.45.57,2.13,2.13,0,0,0-.52,1.47v6.25h-1.9V133a1.75,1.75,0,0,0-.5-1.29,1.78,1.78,0,0,0-1.3-.48,1.87,1.87,0,0,0-1,.28,2.07,2.07,0,0,0-.73.79,2.36,2.36,0,0,0-.28,1.17v6.05Z"/><path d="M637.79,139.5v-9.81h1.91v9.81Zm.18-11.12,1.5-2.95h2l-2,2.95Z"/><path d="M649.63,132.08l-1.73.31a2.42,2.42,0,0,0-.34-.63,1.73,1.73,0,0,0-.63-.49,2.28,2.28,0,0,0-1-.2,2.38,2.38,0,0,0-1.35.36,1.09,1.09,0,0,0-.54.93,1,1,0,0,0,.36.8,3,3,0,0,0,1.18.49l1.56.36a4.28,4.28,0,0,1,2,1,2.29,2.29,0,0,1,.66,1.7,2.59,2.59,0,0,1-.51,1.57,3.44,3.44,0,0,1-1.41,1.07,5.23,5.23,0,0,1-2.09.39,4.69,4.69,0,0,1-2.69-.7,2.94,2.94,0,0,1-1.28-2l1.84-.29a1.77,1.77,0,0,0,.71,1.09,2.41,2.41,0,0,0,1.4.37,2.62,2.62,0,0,0,1.51-.39,1.15,1.15,0,0,0,.56-1,1,1,0,0,0-.34-.78,2.34,2.34,0,0,0-1-.47l-1.66-.36a4,4,0,0,1-2-1,2.39,2.39,0,0,1-.65-1.73,2.48,2.48,0,0,1,.48-1.52,3.1,3.1,0,0,1,1.34-1,4.88,4.88,0,0,1,2-.37,4.06,4.06,0,0,1,2.5.69A3.22,3.22,0,0,1,649.63,132.08Z"/><path d="M656.5,129.69v1.53h-5.36v-1.53Zm-3.92-2.36h1.91v9.29a1.71,1.71,0,0,0,.16.84.85.85,0,0,0,.43.37,1.57,1.57,0,0,0,.58.1,2.46,2.46,0,0,0,.41,0l.26-.05.35,1.58-.47.13a4,4,0,0,1-.77.07,3.35,3.35,0,0,1-1.41-.27,2.33,2.33,0,0,1-1-.87,2.52,2.52,0,0,1-.4-1.47Z"/><path d="M659.82,143.16a3.71,3.71,0,0,1-.78-.07,2.43,2.43,0,0,1-.53-.14l.46-1.57a2.22,2.22,0,0,0,1.32,0q.54-.18.9-1.14l.24-.65-3.59-9.94h2l2.49,7.62h.1l2.49-7.62,2.06,0L663,140.81a4.19,4.19,0,0,1-.71,1.29,2.85,2.85,0,0,1-1,.79A3.35,3.35,0,0,1,659.82,143.16Z"/><path d="M227.06,14.81h3.35V26a5.1,5.1,0,0,1-.69,2.69,4.73,4.73,0,0,1-1.92,1.76A6.29,6.29,0,0,1,225,31a6.56,6.56,0,0,1-2.63-.51A4.17,4.17,0,0,1,220.46,29a4.71,4.71,0,0,1-.68-2.64h3.37a2.39,2.39,0,0,0,.26,1.08,1.59,1.59,0,0,0,.68.68,2.09,2.09,0,0,0,1,.24,2,2,0,0,0,1.06-.27,1.73,1.73,0,0,0,.66-.79,3.28,3.28,0,0,0,.22-1.29Z"/><path d="M236.61,30.81H233l5.52-16h4.36l5.52,16h-3.63l-4-12.35h-.12Zm-.22-6.29H245v2.64h-8.56Z"/><path d="M251,30.81v-16h3.38v7h.21l5.76-7h4.05L258.44,22l6,8.84h-4L256,24.23l-1.67,2v4.55Z"/><path d="M282.44,14.81h3.39V25.2a5.42,5.42,0,0,1-3.16,5.1,8.66,8.66,0,0,1-7,0,5.43,5.43,0,0,1-3.15-5.1V14.81h3.38v10.1a3.2,3.2,0,0,0,.41,1.62,2.83,2.83,0,0,0,1.13,1.12,3.79,3.79,0,0,0,3.43,0A2.83,2.83,0,0,0,282,26.53a3.19,3.19,0,0,0,.4-1.62Z"/><path d="M289.27,30.81v-16h6.41a7.27,7.27,0,0,1,2.94.52,3.85,3.85,0,0,1,1.77,1.45,3.8,3.8,0,0,1,.6,2.13,3.45,3.45,0,0,1-.38,1.64,3.26,3.26,0,0,1-1,1.16,4.22,4.22,0,0,1-1.49.63v.16a3.6,3.6,0,0,1,1.71.52,3.54,3.54,0,0,1,1.3,1.33,3.89,3.89,0,0,1,.5,2,4.14,4.14,0,0,1-.63,2.27,4.26,4.26,0,0,1-1.85,1.58,7.18,7.18,0,0,1-3,.58Zm3.38-9.31h2.51a2.89,2.89,0,0,0,1.24-.25,2,2,0,0,0,.86-.69,1.89,1.89,0,0,0,.31-1.09,1.76,1.76,0,0,0-.61-1.4,2.6,2.6,0,0,0-1.74-.53h-2.57Zm0,6.54h2.76a3.2,3.2,0,0,0,2.06-.54,1.82,1.82,0,0,0,.65-1.45,2.11,2.11,0,0,0-1.23-2,3.18,3.18,0,0,0-1.4-.29h-2.84Z"/><path d="M303.53,14.81h3.79L311,21.7h.15l3.65-6.89h3.79l-5.84,10.34v5.66h-3.35V25.15Zm6.32-1.55,1.66-3.56h3.07l-2.38,3.56Z"/><path d="M324,14.81,327.82,27H328l3.88-12.15h3.75l-5.52,16h-4.36l-5.52-16Z"/><path d="M338.81,30.81h-3.62l5.52-16h4.36l5.51,16H347l-4-12.35h-.12Zm-.23-6.29h8.57v2.64h-8.57Zm3.11-11.26,1.66-3.56h3.08l-2.38,3.56Z"/><path d="M358.93,30.81v-16h6.4a7.28,7.28,0,0,1,2.95.52,3.91,3.91,0,0,1,1.77,1.45,3.8,3.8,0,0,1,.6,2.13,3.45,3.45,0,0,1-.38,1.64,3.19,3.19,0,0,1-1,1.16,4.09,4.09,0,0,1-1.48.63v.16a3.67,3.67,0,0,1,3,1.85,4,4,0,0,1,.5,2,4.14,4.14,0,0,1-.63,2.27,4.31,4.31,0,0,1-1.85,1.58,7.18,7.18,0,0,1-3,.58Zm3.38-9.31h2.51a2.92,2.92,0,0,0,1.24-.25,2.1,2.1,0,0,0,.86-.69,1.89,1.89,0,0,0,.31-1.09,1.76,1.76,0,0,0-.61-1.4,2.6,2.6,0,0,0-1.74-.53h-2.57Zm0,6.54h2.76a3.2,3.2,0,0,0,2.06-.54,1.82,1.82,0,0,0,.65-1.45,2.14,2.14,0,0,0-.32-1.17,2.22,2.22,0,0,0-.91-.8,3.21,3.21,0,0,0-1.4-.29h-2.84Z"/><path d="M377.51,14.81v16h-3.38v-16Z"/><path d="M395.66,22.81a9.29,9.29,0,0,1-1,4.45,6.9,6.9,0,0,1-2.68,2.8,8.1,8.1,0,0,1-7.65,0,7,7,0,0,1-2.68-2.81,9.36,9.36,0,0,1-1-4.44,9.42,9.42,0,0,1,1-4.46,6.9,6.9,0,0,1,2.68-2.8,8.1,8.1,0,0,1,7.65,0,6.9,6.9,0,0,1,2.68,2.8A9.3,9.3,0,0,1,395.66,22.81Zm-3.43,0a7.29,7.29,0,0,0-.5-2.86,3.91,3.91,0,0,0-1.42-1.77,4.12,4.12,0,0,0-4.28,0A3.91,3.91,0,0,0,384.61,20a7.11,7.11,0,0,0-.5,2.86,7.1,7.1,0,0,0,.5,2.85A3.91,3.91,0,0,0,386,27.43a4.12,4.12,0,0,0,4.28,0,3.91,3.91,0,0,0,1.42-1.77A7.27,7.27,0,0,0,392.23,22.81Z"/><path d="M404.49,30.81h-5.67v-16h5.72a8.52,8.52,0,0,1,4.16.95,6.58,6.58,0,0,1,2.68,2.75,9,9,0,0,1,.94,4.28,9.13,9.13,0,0,1-.94,4.3,6.57,6.57,0,0,1-2.7,2.75A8.56,8.56,0,0,1,404.49,30.81Zm-2.29-2.9h2.15a5.41,5.41,0,0,0,2.53-.54,3.44,3.44,0,0,0,1.55-1.66,7.17,7.17,0,0,0,.52-2.92,7.07,7.07,0,0,0-.52-2.9,3.44,3.44,0,0,0-1.55-1.66,5.46,5.46,0,0,0-2.52-.53H402.2Z"/><path d="M418.86,14.81v16h-3.38v-16Z"/><path d="M425.2,14.81,429.07,27h.15l3.87-12.15h3.75l-5.51,16H427l-5.53-16Z"/><path d="M439.43,30.81v-16h10.78v2.78h-7.4v3.82h6.84V24.2h-6.84V28h7.43v2.79Z"/><path d="M453.56,30.81v-16h6.31a6.83,6.83,0,0,1,3.1.64,4.55,4.55,0,0,1,2,1.82,5.43,5.43,0,0,1,.68,2.76,5.21,5.21,0,0,1-.69,2.74,4.43,4.43,0,0,1-2,1.75,7.27,7.27,0,0,1-3.14.61h-4.23V22.41h3.68a4.18,4.18,0,0,0,1.61-.26,1.92,1.92,0,0,0,1-.8,2.53,2.53,0,0,0,.31-1.32,2.63,2.63,0,0,0-.31-1.34,2,2,0,0,0-1-.83,4,4,0,0,0-1.62-.29h-2.29V30.81Zm8.64-7.29,4,7.29h-3.74l-3.89-7.29Z"/><path d="M468.49,30.81v-2l8-11.21h-8V14.81h12.25v2l-8,11.21h8v2.79Z"/><path d="M487.37,14.81v16H484v-16Z"/><path d="M490.21,17.59V14.81h13.14v2.78h-4.89V30.81h-3.35V17.59Z"/><path d="M505.25,14.81H509l3.65,6.89h.15l3.65-6.89h3.79l-5.84,10.34v5.66h-3.36V25.15Z"/></svg>