<svg id="Layer_1" data-name="Layer 1" xmlns="http://www.w3.org/2000/svg" viewBox="0 0 740 312.15"><defs><style>.cls-1{fill:#e8cbae;}.cls-2{fill:#f8efe7;}.cls-11,.cls-15,.cls-16,.cls-17,.cls-20,.cls-21,.cls-22,.cls-23,.cls-25,.cls-26,.cls-27,.cls-28,.cls-29,.cls-3,.cls-30,.cls-31,.cls-4,.cls-8,.cls-9{stroke:#000;}.cls-11,.cls-16,.cls-20,.cls-21,.cls-22,.cls-28,.cls-29,.cls-3,.cls-30,.cls-4{stroke-linecap:round;}.cls-15,.cls-17,.cls-29,.cls-3,.cls-30,.cls-8,.cls-9{stroke-linejoin:round;}.cls-3{stroke-width:1.1px;}.cls-11,.cls-20,.cls-21,.cls-22,.cls-23,.cls-28,.cls-30,.cls-4,.cls-9{fill:none;}.cls-11,.cls-16,.cls-20,.cls-21,.cls-22,.cls-23,.cls-25,.cls-26,.cls-27,.cls-28,.cls-31,.cls-4{stroke-miterlimit:10;}.cls-20,.cls-21,.cls-22,.cls-23,.cls-4{stroke-width:1.8px;}.cls-14,.cls-5{fill:#fff;}.cls-6{fill:#cfd3ab;}.cls-7{fill:#9fc2b2;}.cls-10,.cls-8{fill:#e2ede8;}.cls-11,.cls-16,.cls-8,.cls-9{stroke-width:2px;}.cls-12{fill:#f4d7a9;}.cls-13,.cls-14{opacity:0.7;}.cls-15{stroke-width:0.5px;}.cls-16{fill:#fcf3e5;}.cls-18{fill:#ffd166;}.cls-18,.cls-19{opacity:0.6;}.cls-20{stroke-dasharray:1.07 4.27;}.cls-21{stroke-dasharray:0.98 3.94;}.cls-22{stroke-dasharray:1.01 4.05;}.cls-24{fill:lime;}.cls-26{stroke-width:0.8px;}.cls-27{stroke-width:0.7px;}.cls-28{stroke-width:1.4px;}.cls-29{fill:#f0efde;}.cls-29,.cls-30{stroke-width:1.8px;}.cls-31{stroke-width:0.6px;}</style></defs><circle class="cls-1" cx="72.13" cy="126.3" r="70.07"/><path class="cls-2" d="M62.84,141.53a8.59,8.59,0,0,0,2.44-1.22,5,5,0,0,0,.79-1.39A27.06,27.06,0,0,0,68,135a6.44,6.44,0,0,1,.62-1.84A3.65,3.65,0,0,1,71,131.86a13.35,13.35,0,0,1,4.88-.18,1.45,1.45,0,0,1,.59.18,1.42,1.42,0,0,1,.45.55,7.56,7.56,0,0,1,.78,2.13c.54,2.72-.45,5.59.19,8.29a.34.34,0,0,1,0,.2.26.26,0,0,1-.15.12,6.9,6.9,0,0,1-3.27.58,26.77,26.77,0,0,1-3.33-.4,24.5,24.5,0,0,0-4.91-.3,3.76,3.76,0,0,1-.75,0,3.44,3.44,0,0,1-.55-.15l-1.54-.55"/><rect class="cls-2" x="33.75" y="141.56" width="67.99" height="24.68" rx="10"/><path class="cls-3" d="M40.85,149.55c-1.72,0-3.06,1.94-3.06,4.42a6.13,6.13,0,0,0,.32,2l.62-.38a5.52,5.52,0,0,1-.23-1.6c0-2.05,1.06-3.71,2.35-3.71,1.08,0,2,1.15,2.27,2.71h.72C43.54,151,42.33,149.55,40.85,149.55Z"/><rect class="cls-3" x="62.82" y="158.47" width="8.84" height="0.71"/><rect class="cls-3" x="71.66" y="146.84" width="19.68" height="0.71"/><path class="cls-3" d="M40.85,166.52H93.69c4.76,0,8.49-5.51,8.49-12.55s-3.73-12.55-8.49-12.55H80.14a2.36,2.36,0,0,1-2.35-2.35v-5.42c0-1.72-2.24-3.07-5.1-3.07s-5.09,1.35-5.09,3.07a7.68,7.68,0,0,1-2,5.12l-.82.94-.73-1a13.08,13.08,0,0,1-2.54-7.76v-5.07h40.65v-.71H97.82l-.37-.12A10.9,10.9,0,0,1,90,114.68v-.36H73v.36A10.91,10.91,0,0,1,65.55,125l-.37.12H61.53v-3.71c0-2-4-3.69-9.93-4.24l-.91-.08v-9l1.51.88a4.3,4.3,0,0,0,2.2.61,4.42,4.42,0,0,0,4.42-4.42,4.29,4.29,0,0,0-.12-1l-.17-.66.56-.4a5.73,5.73,0,0,0,.13-9.29l-.4-.3V93a5.75,5.75,0,0,0-6.91-5.68l-.54.12-.39-.4a8.38,8.38,0,0,0-6.06-2.55A8.49,8.49,0,0,0,36.43,93v.5l-.39.33a5.72,5.72,0,0,0,.13,9.29l.56.4-.17.66a4.3,4.3,0,0,0-.13,1,4.43,4.43,0,0,0,4.42,4.42,4.34,4.34,0,0,0,2.21-.61l1.5-.88v9l-.9.08c-5.94.55-9.94,2.25-9.94,4.24v3.71H20.18v.71H33.72v5.07a13.2,13.2,0,0,1-13.19,13.19h-.35v.71h.35a13.92,13.92,0,0,0,13.9-13.9v-7.82l1.45.73c2.53,1.27,6.92,2,11.75,2s9.22-.75,11.74-2l1.45-.73v7.82a13.81,13.81,0,0,0,2.7,8.21l.72,1-1.1.52a7.68,7.68,0,0,1-3.32.77H50.69v-2.71H50v2.71H40.85a4.46,4.46,0,0,0-.63.05l-1.55.17.49-1.48a14.42,14.42,0,0,0,.39-1.51l.13-.62,1.38-.34a5.55,5.55,0,0,0,4.12-4.4h-.72a4.82,4.82,0,0,1-3.31,3.62l-1.3.4v-6.73h-.71V136a12.68,12.68,0,0,1-1.74,6.39l-.11.19-.17.12c-2.93,2.1-4.75,6.42-4.75,11.29C32.37,161,36.1,166.52,40.85,166.52ZM79.15,115H89.24l.1.9a11.6,11.6,0,0,0,3.91,7.48l2,1.75h-6.8l-.3-.32a13.53,13.53,0,0,1-3-5.21l-.69.16a14.25,14.25,0,0,0,1.83,3.82l1,1.55H75.71l1-1.55a14.13,14.13,0,0,0,2.38-7.6Zm-9.4,8.38a11.6,11.6,0,0,0,3.91-7.48l.09-.9h4.69l0,1a13.51,13.51,0,0,1-3.56,8.78l-.29.32H67.75ZM40.85,108.9a3.67,3.67,0,0,1-3.28-5.4l.17-.33L37.4,103a5.09,5.09,0,0,1-3-4.6A5,5,0,0,1,37,94l.2-.11,0-.23c0-.23,0-.46,0-.7A7.77,7.77,0,0,1,51,88.13l.16.2.24-.08a5,5,0,0,1,1.68-.31A5.07,5.07,0,0,1,58.11,93a3.89,3.89,0,0,1,0,.49l-.06.42.21.11a5,5,0,0,1-.37,9l-.34.15.17.33a3.6,3.6,0,0,1,.43,1.69,3.71,3.71,0,1,1-7.42,0V99.92l1.9-1.9-.5-.5L50,99.63v17.45l-1,0c-.88,0-1.76,0-2.65,0l-1,0V95.86l1.9-1.9-.5-.5-1.75,1.75-1.75-1.75-.51.5,1.9,1.9v9.33A3.71,3.71,0,0,1,40.85,108.9Zm19.91,12.89c-.58,1.62-5.77,3.37-13.13,3.37S35,123.4,34.48,121.77l0-.43,0-.15c.48-1.66,5.65-3.45,13.16-3.45,7.36,0,12.55,1.75,13.13,3.38l.12.33Zm11.93,9.5c2.38,0,4.39,1.08,4.39,2.36s-2,2.35-4.39,2.35-4.39-1.08-4.39-2.35S70.31,131.29,72.69,131.29ZM59.82,142.13a8.5,8.5,0,0,0,8-5.68l.39-1.12,1,.57a7.08,7.08,0,0,0,3.44.81,7.66,7.66,0,0,0,3-.57l1.4-.6v3.53a3.06,3.06,0,0,0,3.06,3.06H93.69c4.29,0,7.78,5.31,7.78,11.84S98,165.81,93.69,165.81H44.29l1.57-1.68a16.57,16.57,0,0,0,0-20.32l-1.57-1.68Zm-19,0c4.29,0,7.78,5.31,7.78,11.84s-3.49,11.84-7.78,11.84S33.08,160.5,33.08,154,36.57,142.13,40.85,142.13Z"/><rect class="cls-3" x="55.4" y="130.58" width="0.71" height="6.13"/><circle cx="71.82" cy="158.83" r="0.9"/><circle cx="71.56" cy="147.19" r="0.9"/><circle cx="43.49" cy="153" r="0.9"/><circle cx="50.34" cy="138.66" r="0.9"/><circle cx="55.76" cy="136.71" r="0.9"/><circle cx="55.76" cy="130.58" r="0.9"/><circle cx="44.86" cy="133.13" r="0.9"/><circle cx="20.11" cy="144.48" r="0.9"/><circle cx="20.11" cy="125.52" r="0.9"/><circle cx="46.98" cy="93.66" r="0.9"/><circle cx="84.78" cy="119.58" r="0.9"/><circle cx="102.18" cy="125.52" r="0.9"/><circle cx="42.87" cy="93.66" r="0.9"/><circle cx="52.39" cy="97.72" r="0.9"/><circle cx="39.51" cy="130.61" r="0.9"/><circle cx="38.46" cy="155.89" r="0.9"/><circle cx="91.34" cy="147.19" r="0.9"/><circle cx="62.82" cy="158.83" r="0.9"/><line class="cls-4" x1="111.38" y1="125.52" x2="127.15" y2="125.52"/><rect class="cls-5" x="11.85" y="180.26" width="120.55" height="24.22"/><path d="M35.61,200.71v-7.28h2.11v7.44c0,1.91.78,2.73,2,2.73s2.07-.82,2.07-2.73v-7.44h2v7.28c0,3.21-1.51,4.71-4.09,4.71S35.61,203.92,35.61,200.71Z"/><path d="M48.49,204.23h-.06l-.18,1H46.61V192.49h2.08v3.28l-.08,1.55h.06a3.94,3.94,0,0,1,2.68-1.18c2.3,0,3.62,1.77,3.62,4.49,0,3-1.87,4.79-3.9,4.79A3.84,3.84,0,0,1,48.49,204.23Zm4.35-3.57c0-1.76-.62-2.79-2.05-2.79a2.93,2.93,0,0,0-2.1,1.06v4a3,3,0,0,0,2,.8C51.87,203.7,52.84,202.66,52.84,200.66Z"/><path d="M57.13,208.65l.4-1.61a2.6,2.6,0,0,0,.74.12,2.18,2.18,0,0,0,2.13-1.51l.21-.55-4-8.74h2.08l1.8,4.32c.33.81.66,1.72,1,2.61h.07c.27-.86.59-1.77.87-2.61l1.6-4.32h2l-3.69,9.25c-.76,2-1.83,3.22-4,3.22A4.35,4.35,0,0,1,57.13,208.65Zm3-14.63,2.66-3.16,1.43,1.39-3,2.79Z"/><path d="M67.46,196.36h2.1l1.71,4.58c.31.88.6,1.77.88,2.67h.08c.28-.9.54-1.79.87-2.67l1.71-4.58h2l-3.45,8.84H71Z"/><path d="M78.8,202.83c0-2,1.74-3,6.11-3.28-.08-1-.66-1.73-2.11-1.73a6.06,6.06,0,0,0-2.88.94l-.78-1.38a8.13,8.13,0,0,1,4-1.24c2.45,0,3.8,1.37,3.8,3.83v5.23H85.28l-.16-1.09h-.06a5.73,5.73,0,0,1-3.3,1.31A2.68,2.68,0,0,1,78.8,202.83Zm6.11-.12v-1.86c-3.18.21-4.09.86-4.09,1.82,0,.78.68,1.11,1.56,1.11A4.07,4.07,0,0,0,84.91,202.71ZM82,194l2.66-3.16,1.43,1.39-3,2.79Z"/><path d="M89.81,196.36h1.7l.16,1.33h.07a4.45,4.45,0,0,1,3.19-1.55c2,0,3,1.31,3,3.59v5.47H95.81V200c0-1.42-.45-2.07-1.64-2.07a3.1,3.1,0,0,0-2.28,1.24v6H89.81Z"/><path d="M104.46,198h-3.82v-1.65h5.91v8.84h-2.09Zm-.38-4,2.67-3.16,1.42,1.39-3,2.79Z"/><path d="M37.69,223.23h-.06l-.18,1H35.81V211.49h2.08v3.28l-.08,1.55h.06a3.94,3.94,0,0,1,2.68-1.18c2.3,0,3.62,1.77,3.62,4.49,0,3-1.87,4.79-3.9,4.79A3.86,3.86,0,0,1,37.69,223.23ZM42,219.66c0-1.76-.62-2.79-2-2.79a2.93,2.93,0,0,0-2.1,1.06v4a3,3,0,0,0,2,.8C41.07,222.7,42,221.66,42,219.66Z"/><path d="M50.46,217H46.64v-1.65h5.91v8.84H50.46Zm-.57-4.65a1.48,1.48,0,1,1,1.48,1.39A1.38,1.38,0,0,1,49.89,212.36Z"/><path d="M56.89,219.79a4.44,4.44,0,1,1,4.44,4.63A4.39,4.39,0,0,1,56.89,219.79Zm6.75,0c0-1.78-.87-2.95-2.31-2.95S59,218,59,219.79s.87,2.93,2.31,2.93S63.64,221.56,63.64,219.79Z"/><path d="M70.15,220.65V217H67.78v-1.55l2.45-.1.28-2.77h1.72v2.77h4V217h-4v3.63c0,1.46.55,2.12,2,2.12a5.48,5.48,0,0,0,1.93-.36l.4,1.52a8.69,8.69,0,0,1-2.83.5C71.07,224.42,70.15,222.9,70.15,220.65Z"/><path d="M78.49,219.79a4.44,4.44,0,1,1,4.44,4.63A4.39,4.39,0,0,1,78.49,219.79Zm6.75,0c0-1.78-.87-2.95-2.31-2.95s-2.31,1.17-2.31,2.95.87,2.93,2.31,2.93S85.24,221.56,85.24,219.79Z"/><path d="M89.81,215.36h1.7l.16,1h.06a4.41,4.41,0,0,1,2.84-1.23c2.29,0,3.6,1.77,3.6,4.51,0,3-1.87,4.77-3.93,4.77a3.67,3.67,0,0,1-2.4-1h0l.09,1.55v2.78H89.81Zm6.23,4.3c0-1.76-.62-2.79-2.05-2.79a2.93,2.93,0,0,0-2.1,1.06v4a3,3,0,0,0,1.92.8C95.07,222.7,96,221.66,96,219.66Z"/><path d="M100.38,220.84v-5.48h2.08v5.21c0,1.4.44,2.06,1.65,2.06a2.72,2.72,0,0,0,2.22-1.3v-6h2.08v8.84H106.7l-.16-1.4h-.07a4,4,0,0,1-3.14,1.62C101.28,224.42,100.38,223.12,100.38,220.84Zm1.89-8.67c0-1,.77-1.79,2.18-1.79s2.18.79,2.18,1.79-.78,1.8-2.18,1.8S102.27,213.17,102.27,212.17Zm3.08,0a.9.9,0,1,0-.9,1A.91.91,0,0,0,105.35,212.17Z"/><circle class="cls-6" cx="519.25" cy="186.34" r="70.07"/><rect class="cls-5" x="458.97" y="240.99" width="120.55" height="24.22"/><path d="M487.9,261.91l1.22-1.44a5,5,0,0,0,3.28,1.34c1.37,0,2.1-.6,2.1-1.42,0-1.05-.81-1.33-2-1.82l-1.61-.7a3.4,3.4,0,0,1-2.52-3.12c0-1.88,1.69-3.32,4.09-3.32a5.4,5.4,0,0,1,3.77,1.5l-1.07,1.33a4.15,4.15,0,0,0-2.8-1c-1.11,0-1.87.5-1.87,1.37s.94,1.25,2,1.66l1.54.68c1.5.57,2.56,1.47,2.56,3.17,0,1.91-1.61,3.5-4.36,3.5A6.39,6.39,0,0,1,487.9,261.91Zm1.8-13.18.9-.59,1.93,1.58h.07l1.93-1.58.9.59-1.74,2h-2.25Z"/><path d="M503,256.22h-3.82v-1.65h5.9v8.85H503Zm-.38-4,2.66-3.15,1.43,1.39-3,2.78Z"/><path d="M510.79,254.57h1.72l.17,2h.05a4.37,4.37,0,0,1,3.76-2.22,3.71,3.71,0,0,1,1.73.36l-.45,1.76a4.37,4.37,0,0,0-1.6-.28,3.71,3.71,0,0,0-3.3,2.34v4.88h-2.08Zm.87-4,.82-.76,2.19,1.85h.07l2.19-1.85.82.76-2,2.45h-2.12Z"/><path d="M520.35,259a4.48,4.48,0,0,1,4.56-4.62,3.86,3.86,0,0,1,4.1,4.2,6.47,6.47,0,0,1-.09,1h-7.08v-1.47h5.74l-.4.46c0-1.75-.82-2.63-2.21-2.63s-2.59,1-2.59,3a2.78,2.78,0,0,0,3.08,3,4.81,4.81,0,0,0,2.48-.72l.71,1.29a6.45,6.45,0,0,1-3.46,1A4.5,4.5,0,0,1,520.35,259Z"/><path d="M531.53,254.57h1.7l.16,1.33h.07a4.44,4.44,0,0,1,3.19-1.54c2,0,3,1.3,3,3.58v5.48h-2.09v-5.21c0-1.42-.45-2.07-1.65-2.07a3.11,3.11,0,0,0-2.27,1.25v6h-2.08Z"/><path d="M546.18,256.22h-3.82v-1.65h5.9v8.85h-2.08Zm-.38-4,2.66-3.15,1.43,1.39-3,2.78Z"/><path d="M461.33,273.57H463l.16,1.33h.07a4.44,4.44,0,0,1,3.19-1.54c2.05,0,3,1.3,3,3.58v5.48h-2.09v-5.21c0-1.42-.45-2.07-1.64-2.07a3.11,3.11,0,0,0-2.28,1.25v6h-2.08Z"/><path d="M471.75,278a4.48,4.48,0,0,1,4.56-4.62,3.86,3.86,0,0,1,4.1,4.2,6.47,6.47,0,0,1-.09,1h-7.08v-1.47H479l-.4.46c0-1.75-.82-2.63-2.21-2.63s-2.59,1.05-2.59,3a2.78,2.78,0,0,0,3.08,3,4.81,4.81,0,0,0,2.48-.72l.71,1.29a6.45,6.45,0,0,1-3.46,1A4.5,4.5,0,0,1,471.75,278Z"/><path d="M482.93,273.57h1.7l.16,1h.06a4.38,4.38,0,0,1,2.84-1.22c2.29,0,3.6,1.76,3.6,4.5,0,3-1.87,4.77-3.93,4.77a3.67,3.67,0,0,1-2.4-1.05h0l.1,1.55v2.79h-2.08Zm6.23,4.31c0-1.77-.62-2.8-2.05-2.8a3,3,0,0,0-2.1,1.06v4a3,3,0,0,0,1.92.8C488.19,280.91,489.16,279.88,489.16,277.88Z"/><path d="M493.5,279.05v-5.48h2.08v5.21c0,1.41.44,2.07,1.65,2.07a2.73,2.73,0,0,0,2.22-1.31v-6h2.08v8.85h-1.71l-.16-1.41h-.07a4,4,0,0,1-3.14,1.62C494.4,282.63,493.5,281.33,493.5,279.05Zm1.89-8.67c0-1,.77-1.79,2.18-1.79s2.17.79,2.17,1.79-.77,1.8-2.17,1.8S495.39,271.38,495.39,270.38Zm3.08,0a.91.91,0,1,0-1.81,0,.91.91,0,1,0,1.81,0Z"/><path d="M503.78,273.57h2.1l1.71,4.58c.31.89.6,1.78.88,2.67h.08c.28-.89.54-1.78.87-2.67l1.71-4.58h2l-3.45,8.85H507.3Z"/><path d="M514.81,278a4.44,4.44,0,1,1,4.44,4.62A4.38,4.38,0,0,1,514.81,278Zm6.75,0c0-1.78-.87-2.95-2.31-2.95s-2.31,1.17-2.31,2.95.86,2.92,2.31,2.92S521.56,279.77,521.56,278Z"/><path d="M525.61,278c0-2.89,1.88-4.65,3.89-4.65a3.33,3.33,0,0,1,2.43,1H532l-.1-1.49v-3.2H534v12.72h-1.7l-.16-1h-.06a3.93,3.93,0,0,1-2.67,1.25C527.11,282.63,525.61,280.92,525.61,278Zm6.27,1.84v-4a2.63,2.63,0,0,0-1.88-.8c-1.23,0-2.26,1.06-2.26,2.9s.81,2.93,2.14,2.93A2.54,2.54,0,0,0,531.88,279.85Z"/><path d="M536.93,273.57h1.7l.16,1.33h.07a4.44,4.44,0,0,1,3.19-1.54c2,0,3,1.3,3,3.58v5.48h-2.08v-5.21c0-1.42-.45-2.07-1.65-2.07a3.11,3.11,0,0,0-2.27,1.25v6h-2.08Z"/><path d="M551.58,275.22h-3.82v-1.65h5.9v8.85h-2.08Zm-.38-4,2.66-3.15,1.43,1.39-3,2.78Z"/><path d="M558.37,278c0-3,2.32-4.65,5-4.65a4.65,4.65,0,0,1,3.27,1.24l-1,1.31a3.4,3.4,0,0,0-2.19-.85,2.81,2.81,0,0,0-3,2.95,2.77,2.77,0,0,0,2.93,2.92,4.07,4.07,0,0,0,2.52-1l.87,1.33a5.51,5.51,0,0,1-3.57,1.34C560.47,282.63,558.37,280.94,558.37,278Z"/><path d="M569.33,269.7h2.08V273l-.12,1.9h.06a4.18,4.18,0,0,1,3.11-1.52c2,0,2.95,1.3,2.95,3.58v5.48h-2.08v-5.21c0-1.42-.45-2.07-1.65-2.07a3.11,3.11,0,0,0-2.27,1.25v6h-2.08Z"/><path d="M493.21,297c0-2.89,1.88-4.65,3.89-4.65a3.33,3.33,0,0,1,2.43,1h.05l-.1-1.49v-3.2h2.09v12.72h-1.7l-.16-1h-.06a3.93,3.93,0,0,1-2.67,1.25C494.71,301.63,493.21,299.92,493.21,297Zm6.27,1.84v-4a2.63,2.63,0,0,0-1.88-.8c-1.23,0-2.26,1.06-2.26,2.9s.81,2.93,2.15,2.93A2.54,2.54,0,0,0,499.48,298.85Z"/><path d="M505.39,292.57h1.71l.18,2h.05a4.37,4.37,0,0,1,3.76-2.22,3.64,3.64,0,0,1,1.72.36l-.44,1.76a4.37,4.37,0,0,0-1.6-.28,3.7,3.7,0,0,0-3.3,2.34v4.88h-2.08Z"/><path d="M515.09,298.05v-5.48h2.09v5.21c0,1.41.44,2.07,1.65,2.07a2.73,2.73,0,0,0,2.22-1.31v-6h2.08v8.85h-1.71l-.16-1.41h-.07a4,4,0,0,1-3.14,1.62C516,301.63,515.09,300.33,515.09,298.05Z"/><path d="M526.13,288.7h2.08V292l-.12,1.9h.06a4.18,4.18,0,0,1,3.11-1.52c2,0,3,1.3,3,3.58v5.48h-2.09v-5.21c0-1.42-.45-2.07-1.65-2.07a3.11,3.11,0,0,0-2.27,1.25v6h-2.08Z"/><path d="M536.69,298.05v-5.48h2.09v5.21c0,1.41.44,2.07,1.65,2.07a2.73,2.73,0,0,0,2.22-1.31v-6h2.08v8.85H543l-.16-1.41h-.07a4,4,0,0,1-3.14,1.62C537.6,301.63,536.69,300.33,536.69,298.05Zm1.9-8.67c0-1,.77-1.79,2.17-1.79s2.18.79,2.18,1.79-.77,1.8-2.18,1.8S538.59,290.38,538.59,289.38Zm3.08,0a.91.91,0,1,0-1.81,0,.91.91,0,1,0,1.81,0Z"/><circle class="cls-7" cx="668.29" cy="126.3" r="70.07"/><path d="M654.85,159.12a50.82,50.82,0,0,1-4.73-5.91c-1.57-2.29-3.1-4.65-4.46-7.08s-2.61-5-2.44-7.66a5.2,5.2,0,0,1,4.52-4.58,16,16,0,0,1,4.21-.06c1.25.09,2.49.12,3.74.16a2.73,2.73,0,0,1,3.31,3.15c.06,2.62-1,4.91-1.87,7.33a13.29,13.29,0,0,0-.79,4,8.51,8.51,0,0,0,1,4,28.43,28.43,0,0,1,1.62,4.16c.16.5.35,1,.51,1.49a3,3,0,0,1,.25,1.38c0,.09,0,.15,0,.11s-.44.1-.56.1c-.55,0-1.1,0-1.65,0-.82,0-2.06.09-2.68-.57-.88-.94-2.29.48-1.41,1.42a4.76,4.76,0,0,0,3.23,1.15c.47,0,1,0,1.42,0a8,8,0,0,0,1.9-.07c2.81-.6,1.46-3.81.91-5.58a28.25,28.25,0,0,0-1.7-4.37,6.76,6.76,0,0,1-.75-4.36c.5-3,2.2-5.65,2.5-8.71.22-2.32-.12-5-2.48-6.13a8.86,8.86,0,0,0-3.62-.5c-1.52,0-3-.2-4.56-.24-3-.08-6.19.72-8,3.31s-1.13,5.89-.06,8.58a52.59,52.59,0,0,0,5.08,9,56.2,56.2,0,0,0,6.1,7.9C654.32,161.48,655.73,160.06,654.85,159.12Z"/><path d="M635.34,109.34a8.17,8.17,0,0,1,5.58,0,2.13,2.13,0,0,1,1.32,1.2c.47.89,1,1.73,1.47,2.64.77,1.6,1.52,3.77.57,5.45a4.9,4.9,0,0,1-1.84,1.66,25.82,25.82,0,0,1-2.49,1.33c-1.86.87-3.88,1.39-5.74,2.29s-3.06,2.28-2.58,4.33a14.21,14.21,0,0,0,1,2.48c.28.64.58,1.27.87,1.9.54,1.17,1.54,2.72,1.32,4.07a6.08,6.08,0,0,1-1.18,2.25c-.66,1-1.2,2-1.81,3-1.14,1.86-2.53,3.54-3.7,5.38-.7,1.08,1,2.09,1.73,1,1.1-1.73,2.39-3.32,3.49-5.05.59-.94,1.08-1.95,1.7-2.88a14,14,0,0,0,1.45-2.41c.7-1.72.1-3.35-.61-4.94-.35-.77-.7-1.54-1.06-2.3-.14-.3-.28-.6-.41-.91,0,0-.16-.35-.08-.16l-.36-.84c-.31-.72-.72-1.58-.15-2.26a5.22,5.22,0,0,1,2.11-1.26,66.64,66.64,0,0,0,6.24-2.59c1.75-.91,3.52-2,4.22-3.94.76-2.1.09-4.41-.81-6.34-.48-1.06-1.13-2-1.66-3a4,4,0,0,0-2-1.83,10.07,10.07,0,0,0-7.07-.2c-1.21.4-.69,2.33.54,1.93Z"/><path d="M694.47,121.15c-4.81.57-9.61-.09-14.4-.55-3.88-.37-8.72-.2-10.85,3.71-.92,1.69-1,4,.59,5.34s4,1.67,6,1.94a17.29,17.29,0,0,1,5.55,1.29,5.26,5.26,0,0,1,2,1.69,17.37,17.37,0,0,1,1.39,2.84,14.16,14.16,0,0,0,4,5.48,8,8,0,0,0,6.43,1.7c1.26-.25.73-2.18-.53-1.93-3.78.74-6.51-2.81-7.93-5.8-.81-1.71-1.4-3.53-2.93-4.77a10.49,10.49,0,0,0-4.64-2c-1.86-.38-3.78-.45-5.62-.93a6.58,6.58,0,0,1-2.45-1,2,2,0,0,1-.4-2.17,5,5,0,0,1,3.11-3,13.61,13.61,0,0,1,5.82-.4c4.95.44,9.9,1.18,14.86.59a1,1,0,0,0,1-1,1,1,0,0,0-1-1Z"/><path class="cls-8" d="M677,142.68c2.87,0,4.87,2.07,4.61,4.12a3.2,3.2,0,0,1,3,2.9c0,1.63-1.64,3-3.67,3H669.64c-2.33,0-3.63-1-3.63-2.49,0-1.28,1.21-2.27,2.84-2.49,0-2.22,2.57-3.13,4.4-2.39A4.09,4.09,0,0,1,677,142.68Z"/><circle class="cls-9" cx="661.1" cy="132.77" r="35.67"/><path class="cls-10" d="M708.88,114.78V85.06a5.74,5.74,0,0,0-4.3-5.62,5.5,5.5,0,0,0-4.77,1.09,5.63,5.63,0,0,0-2.12,4.36v29.84a11.13,11.13,0,1,0,16.7,9.64,10.93,10.93,0,0,0-5.51-9.59Z"/><path d="M704.17,118V95.2a.92.92,0,1,0-1.83,0V118a6.49,6.49,0,1,0,1.83,0Zm-.91,11a4.65,4.65,0,1,1,4.65-4.64A4.66,4.66,0,0,1,703.26,129Z"/><path d="M708.88,114.78V85.06a5.74,5.74,0,0,0-4.3-5.62,5.5,5.5,0,0,0-4.77,1.09,5.63,5.63,0,0,0-2.12,4.36v29.84a11.13,11.13,0,1,0,16.7,9.64,10.93,10.93,0,0,0-5.51-9.59Zm-5.62,18.94A9.29,9.29,0,0,1,699,116.16a1,1,0,0,0,.52-.8V85A3.72,3.72,0,0,1,701,82a4,4,0,0,1,2.36-.8,5.19,5.19,0,0,1,.86.11,3.85,3.85,0,0,1,2.87,3.79v30.24a.8.8,0,0,0,.51.8,9.29,9.29,0,0,1-4.3,17.56Z"/><line class="cls-11" x1="711.42" y1="84.87" x2="717.99" y2="84.87"/><line class="cls-11" x1="711.42" y1="97.78" x2="717.99" y2="97.78"/><line class="cls-11" x1="711.42" y1="91.32" x2="715.21" y2="91.32"/><line class="cls-11" x1="711.42" y1="104.24" x2="715.21" y2="104.24"/><line class="cls-11" x1="711.42" y1="110.69" x2="717.99" y2="110.69"/><path class="cls-8" d="M680.92,95.75A3.76,3.76,0,0,1,685,99.54c0,2.08-1.52,2.87-4.06,2.87H659.48c-3-.12-5.38-1.26-5.38-3.74,0-2,2.17-3.7,4.67-3.77.4-3.19,2.56-6.21,6.55-6.21a7.85,7.85,0,0,1,7.15,4,5.49,5.49,0,0,1,2.39-.55,3.85,3.85,0,0,1,3.89,4.13,13.94,13.94,0,0,1,2.17-.47Z"/><path class="cls-8" d="M659.4,109.73c-2.87,0-4.87,2.07-4.61,4.11a3.21,3.21,0,0,0-3,2.9c0,1.64,1.64,3,3.67,3h11.23c2.34,0,3.63-1,3.63-2.49,0-1.29-1.21-2.28-2.84-2.5,0-2.21-2.57-3.13-4.4-2.39A4.08,4.08,0,0,0,659.4,109.73Z"/><rect class="cls-5" x="608.01" y="180.26" width="120.55" height="24.22"/><path d="M615.76,193.43h2.12v5.34h.06l4.19-5.34h2.35l-6.6,8.29v3.48h-2.12Zm3.59,5.77,1.24-1.64,4.27,7.64h-2.34Z"/><path d="M629.15,202v-7.84h-3v-1.65h5v9.6a1.45,1.45,0,0,0,1.59,1.63,3.82,3.82,0,0,0,1.51-.34l.49,1.54a6.39,6.39,0,0,1-2.51.5C630.25,205.42,629.15,204.15,629.15,202Z"/><path d="M641.22,198H637.4v-1.65h5.9v8.84h-2.08Zm-.57-4.65a1.48,1.48,0,1,1,1.48,1.39A1.38,1.38,0,0,1,640.65,193.36Z"/><path d="M647.52,196.36h1.6l.16,1.13h.05a2.09,2.09,0,0,1,2-1.35c.82,0,1.37.51,1.61,1.49a2.16,2.16,0,0,1,2-1.49c1.25,0,2,1,2,2.8v6.26h-2v-6.12c0-.77-.2-1.16-.7-1.16s-.75.36-1.11,1.1v6.18h-1.72v-6.12c0-.77-.21-1.16-.7-1.16s-.78.36-1.12,1.1v6.18h-2Z"/><path d="M658.76,202.83c0-2,1.74-3,6.11-3.28-.08-1-.67-1.73-2.11-1.73a6.13,6.13,0,0,0-2.89.94l-.77-1.38a8.13,8.13,0,0,1,4-1.24c2.45,0,3.8,1.37,3.8,3.83v5.23h-1.71l-.16-1.09H665a5.73,5.73,0,0,1-3.3,1.31A2.68,2.68,0,0,1,658.76,202.83Zm6.11-.12v-1.86c-3.18.21-4.1.86-4.1,1.82,0,.78.69,1.11,1.57,1.11A4.07,4.07,0,0,0,664.87,202.71Z"/><path d="M671.7,201.65V198h-2.36v-1.55l2.45-.1.27-2.77h1.73v2.77h4V198h-4v3.63c0,1.46.55,2.12,2,2.12a5.38,5.38,0,0,0,1.92-.36l.41,1.52a8.74,8.74,0,0,1-2.83.5C672.63,205.42,671.7,203.9,671.7,201.65Z"/><path d="M684.42,198H680.6v-1.65h5.9v8.84h-2.08Zm-.57-4.65a1.48,1.48,0,1,1,1.48,1.39A1.38,1.38,0,0,1,683.85,193.36Z"/><path d="M691.21,200.79c0-2.95,2.32-4.65,5-4.65a4.65,4.65,0,0,1,3.27,1.25l-1,1.3a3.45,3.45,0,0,0-2.19-.85,2.81,2.81,0,0,0-3,2.95,2.78,2.78,0,0,0,2.93,2.93,4.13,4.13,0,0,0,2.52-1l.87,1.33a5.51,5.51,0,0,1-3.57,1.34C693.31,205.42,691.21,203.73,691.21,200.79Z"/><path d="M702.31,192.49h2.08v7.95h.07l4-4.08h2.31l-6.36,6.53v2.31h-2.08Zm3.54,8.37,1.22-1.31,4.06,5.65h-2.28Z"/><path d="M712.76,202.83c0-2,1.74-3,6.11-3.28-.08-1-.67-1.73-2.11-1.73a6.13,6.13,0,0,0-2.89.94l-.77-1.38a8.13,8.13,0,0,1,4-1.24c2.45,0,3.8,1.37,3.8,3.83v5.23h-1.71l-.16-1.09H719a5.73,5.73,0,0,1-3.3,1.31A2.68,2.68,0,0,1,712.76,202.83Zm6.11-.12v-1.86c-3.18.21-4.1.86-4.1,1.82,0,.78.69,1.11,1.57,1.11A4.07,4.07,0,0,0,718.87,202.71ZM716,194l2.67-3.16,1.42,1.39L717,195Z"/><path d="M642.56,223.09l5.3-6.08h-4.69v-1.65h7.62v1.11l-5.32,6.07h5.46v1.66h-8.37Z"/><path d="M652.92,215.36h1.6l.16,1.13h.05a2.09,2.09,0,0,1,2-1.35c.82,0,1.37.51,1.6,1.49a2.19,2.19,0,0,1,2-1.49c1.25,0,2,1,2,2.8v6.26h-2v-6.12c0-.77-.2-1.16-.7-1.16s-.75.36-1.11,1.1v6.18h-1.72v-6.12c0-.77-.21-1.16-.71-1.16s-.77.36-1.11,1.1v6.18h-2Z"/><path d="M664,219.77a4.49,4.49,0,0,1,4.56-4.63,3.87,3.87,0,0,1,4.1,4.2,6.5,6.5,0,0,1-.09,1h-7.08v-1.47h5.74l-.4.46c0-1.75-.82-2.64-2.21-2.64s-2.59,1.06-2.59,3a2.78,2.78,0,0,0,3.08,3,4.81,4.81,0,0,0,2.48-.72l.71,1.29a6.45,6.45,0,0,1-3.46,1A4.51,4.51,0,0,1,664,219.77Zm1.5-8.37.82-.76,2.19,1.84h.07l2.19-1.84.83.76-2,2.44h-2.12Z"/><path d="M675.17,215.36h1.7l.16,1.33h.07a4.45,4.45,0,0,1,3.19-1.55c2,0,3,1.31,3,3.59v5.47h-2.09V219c0-1.42-.45-2.07-1.65-2.07a3.09,3.09,0,0,0-2.27,1.24v6h-2.08Z"/><path d="M685.76,221.83c0-2,1.74-3,6.11-3.28-.08-1-.67-1.73-2.11-1.73a6.13,6.13,0,0,0-2.89.94l-.77-1.38a8.13,8.13,0,0,1,4-1.24c2.45,0,3.8,1.37,3.8,3.83v5.23h-1.71l-.16-1.09H692a5.73,5.73,0,0,1-3.3,1.31A2.68,2.68,0,0,1,685.76,221.83Zm6.11-.12v-1.86c-3.18.21-4.1.86-4.1,1.82,0,.78.69,1.11,1.57,1.11A4.07,4.07,0,0,0,691.87,221.71Z"/><circle class="cls-12" cx="221.17" cy="186.34" r="70.07"/><rect class="cls-5" x="162.29" y="240.3" width="120.55" height="24.22"/><line class="cls-4" x1="282.84" y1="182.69" x2="240.4" y2="182.69"/><line class="cls-4" x1="174.86" y1="182.69" x2="162.29" y2="182.69"/><line class="cls-4" x1="254.01" y1="194.52" x2="281.41" y2="194.52"/><line class="cls-4" x1="164.95" y1="194.52" x2="174.69" y2="194.52"/><line class="cls-4" x1="276.49" y1="206.35" x2="226.84" y2="206.35"/><line class="cls-4" x1="212.37" y1="206.35" x2="195.89" y2="206.35"/><g class="cls-13"><path class="cls-5" d="M186.16,189.55a7,7,0,0,1,1.37-3.18c1.08-1.17,2.79-1.47,4.22-2.16a2.77,2.77,0,0,0,.81-.53,7.36,7.36,0,0,0,.66-.92,5.23,5.23,0,0,1,1.18-1.07,9.47,9.47,0,0,1,6.09-2.22,2.48,2.48,0,0,1,2.28,1.43A7.82,7.82,0,0,0,203,182a1.93,1.93,0,0,0,1.27.92,4.56,4.56,0,0,1,1.49.57,1.11,1.11,0,0,1,.42,1.41,1.41,1.41,0,0,1-.65.47,22.33,22.33,0,0,1-6,1.47q-7.12,1.06-14.2,2.41"/></g><path class="cls-14" d="M200,168.16a5.72,5.72,0,0,0-5,.4,4.48,4.48,0,0,0-2.41-2.83.36.36,0,0,0-.39.05.42.42,0,0,0-.13.38,3,3,0,0,1-.14,1.71,3.53,3.53,0,0,1-1.2,1.31.38.38,0,0,0,.05.67,4.48,4.48,0,0,0,3.71-.14,5.64,5.64,0,0,0,3,3.93,5.81,5.81,0,0,0,5-.44,1,1,0,0,0,.46-1,5.71,5.71,0,0,0-3.06-4Z"/><path class="cls-14" d="M196,172.81a5.74,5.74,0,0,0-4.66,1.8,4.47,4.47,0,0,0-3.11-2,.35.35,0,0,0-.36.16.43.43,0,0,0,0,.4,3,3,0,0,1,.35,1.68,3.51,3.51,0,0,1-.79,1.59.42.42,0,0,0-.07.39.41.41,0,0,0,.31.25,4.49,4.49,0,0,0,3.52-1.19,5.71,5.71,0,0,0,4,2.91,5.8,5.8,0,0,0,4.7-1.85,1,1,0,0,0,.15-1.13,5.76,5.76,0,0,0-4.07-3Z"/><path class="cls-14" d="M188.34,178.61a5.74,5.74,0,0,0-2.79,4.14,4.49,4.49,0,0,0-3.71.12.35.35,0,0,0-.21.34.43.43,0,0,0,.22.33,3,3,0,0,1,1.25,1.18,3.47,3.47,0,0,1,.27,1.75.4.4,0,0,0,.16.36.41.41,0,0,0,.4,0,4.47,4.47,0,0,0,2.2-3,5.23,5.23,0,0,0,7.77-4.14,1,1,0,0,0-.52-1,5.77,5.77,0,0,0-5-.11Z"/><path class="cls-14" d="M208.72,183.15a5.76,5.76,0,0,0,3.82-3.22,4.44,4.44,0,0,0,3.6.91.35.35,0,0,0,.29-.27.41.41,0,0,0-.12-.38,3,3,0,0,1-.88-1.47,3.48,3.48,0,0,1,.23-1.77.4.4,0,0,0-.07-.39.39.39,0,0,0-.37-.13,4.51,4.51,0,0,0-2.94,2.27,5.72,5.72,0,0,0-4.77-1.43,5.84,5.84,0,0,0-3.84,3.29,1,1,0,0,0,.24,1.11,5.72,5.72,0,0,0,4.81,1.48Z"/><path class="cls-15" d="M251.05,159.29c-2.81.62-11,7.44-13.61,9.63l-.06-.07a1.83,1.83,0,0,0-1.35-.56,3,3,0,0,0-2,1.05c-.06.06-.26.31-.26.31a42.15,42.15,0,0,1-3.64,2.43,10.1,10.1,0,0,1-1-1.67c-.2-.39-.62-1.1-.65-1.14a3,3,0,0,0-2.55-1.66,4.82,4.82,0,0,0-4,1.57c-3.1,3-5,9.43-5,12.41l1.26-.28c.14-2.81,1.88-8.6,4.61-11.22a4.71,4.71,0,0,1,1.64-1.07,3.2,3.2,0,0,0-.55.91c-.45,1.17.11,3.64,2,5.61a17,17,0,0,0-1,4.29l1.31-.29a15.89,15.89,0,0,1,.73-3.07c.95.76,2.35,1.65,3.53,1.39,1.66-.37,5.63-4,6.4-4.75l.46-.44-.54-.57a2.69,2.69,0,0,0,1.05-1.71,1.15,1.15,0,0,0,0-.32c3-2.59,9.9-8.25,12.75-9.48m-20.4,16c-.95.21-2.71-1.29-3.4-2-2.17-2.24-1.92-3.74-1.73-4.27a1.42,1.42,0,0,1,1.16-1,1.26,1.26,0,0,1,1.18.6s.37.62.56,1h0c.74,1.45,1.38,2.7,2.35,2.36a26.75,26.75,0,0,0,3.68-2.36l1.54,1.62C233.88,174.21,231.22,176.42,230.29,176.63Zm6.37-6.34a1.63,1.63,0,0,1-.63.87,0,0,0,0,0,0,0l-1-1h0a1.83,1.83,0,0,1,1-.59.55.55,0,0,1,.44.19A.67.67,0,0,1,236.66,170.29Z"/><path class="cls-15" d="M220.19,166.3a.68.68,0,0,0,.57.17.74.74,0,0,0,.28-.14c.24-.19,1-.68,2-1.32a4.26,4.26,0,0,0,4.55,2,4.37,4.37,0,0,0,3.2-5.27,4.74,4.74,0,0,0-.46-1.21,8.15,8.15,0,0,1,2.38-1,.64.64,0,1,0,0-1.27,8.16,8.16,0,0,0-2.55,1l-.13-.08-4.5-2.71a1.86,1.86,0,0,0-2.08.31l-2.55,2.39a1.9,1.9,0,0,0-.53,1.8l1,3.66c-.71.47-1.15.78-1.17.8a.63.63,0,0,0,0,.89ZM229.5,162a3.11,3.11,0,0,1-2.23,3.77,3,3,0,0,1-3.22-1.49c1.57-1,3.49-2.2,5.13-3.15A3.12,3.12,0,0,1,229.5,162Zm-7.8-1.95,2.55-2.39a.58.58,0,0,1,.61-.13l3.94,2.38c-2.12,1.19-4.6,2.78-6.36,3.93l-.91-3.23A.58.58,0,0,1,221.7,160.08Z"/><path class="cls-16" d="M185.42,189.43c3.73,9.2,15.09,13.08,27.2,10.4,11.08-2.45,20.89-11.07,20.29-20.9"/><line class="cls-16" x1="232.91" y1="178.93" x2="185.42" y2="189.43"/><path class="cls-4" d="M194.39,186.82c-.16-2-6-3.88-7.5,1"/><path class="cls-4" d="M202.6,181.18c-.16-2-6-3.88-7.49,1"/><path class="cls-4" d="M199.49,185.33c.28-2-5-5.08-7.53-.69"/><path class="cls-4" d="M206.68,184.75c.28-2-5-5.08-7.53-.69"/><path class="cls-17" d="M188.92,178.61a5.72,5.72,0,0,0-2.86,4.09,4.45,4.45,0,0,0-3.72.05.34.34,0,0,0-.2.33.42.42,0,0,0,.2.34,3,3,0,0,1,1.23,1.2,3.46,3.46,0,0,1,.24,1.76.41.41,0,0,0,.16.36.39.39,0,0,0,.39,0,4.47,4.47,0,0,0,2.26-3,5.71,5.71,0,0,0,5,.16,5.84,5.84,0,0,0,2.87-4.15,1,1,0,0,0-.51-1,5.77,5.77,0,0,0-5-.2Zm-4.32,7.14a3.09,3.09,0,0,0-1.26-2.56,3.92,3.92,0,0,1,2.61.3,4.12,4.12,0,0,1-1.35,2.26Zm6.82-2.54a.46.46,0,0,1-.18.11h0a5.05,5.05,0,0,1-4.48-.26,5.13,5.13,0,0,1,2.51-3.76l.41-.19a5.22,5.22,0,0,1,3.93.39.17.17,0,0,1,.1.2h0A5.29,5.29,0,0,1,191.42,183.21Z"/><path class="cls-17" d="M196.1,173.13a5.72,5.72,0,0,0-4.72,1.6,4.52,4.52,0,0,0-3-2.16.35.35,0,0,0-.36.15.39.39,0,0,0,0,.39,3.07,3.07,0,0,1,.28,1.7,3.47,3.47,0,0,1-.85,1.56.41.41,0,0,0-.09.38.38.38,0,0,0,.3.26,4.53,4.53,0,0,0,3.57-1,5.69,5.69,0,0,0,3.92,3.07,5.8,5.8,0,0,0,4.77-1.66,1,1,0,0,0,.19-1.12,5.72,5.72,0,0,0-4-3.13Zm-7.7,3.2A3.43,3.43,0,0,0,189,175a3.33,3.33,0,0,0-.1-1.44,4,4,0,0,1,1.94,1.78,4.18,4.18,0,0,1-2.43,1Zm7,2a.77.77,0,0,1-.21,0h0a5.05,5.05,0,0,1-3.46-2.86,5.16,5.16,0,0,1,4.25-1.56l.44.1a5.16,5.16,0,0,1,2.94,2.64.16.16,0,0,1,0,.22h0A5.3,5.3,0,0,1,195.4,178.31Z"/><path class="cls-17" d="M208.72,183.15a5.76,5.76,0,0,0,3.82-3.22,4.44,4.44,0,0,0,3.6.91.35.35,0,0,0,.29-.27.41.41,0,0,0-.12-.38,3,3,0,0,1-.88-1.47,3.48,3.48,0,0,1,.23-1.77.4.4,0,0,0-.07-.39.39.39,0,0,0-.37-.13,4.51,4.51,0,0,0-2.94,2.27,5.72,5.72,0,0,0-4.77-1.43,5.84,5.84,0,0,0-3.84,3.29,1,1,0,0,0,.24,1.11,5.72,5.72,0,0,0,4.81,1.48Zm6-5.8a3.4,3.4,0,0,0,0,1.5,3.46,3.46,0,0,0,.61,1.31,4,4,0,0,1-2.45-1,4.2,4.2,0,0,1,1.89-1.85Zm-7.24.71a.8.8,0,0,1,.2-.06h0a5.06,5.06,0,0,1,4.26,1.4,5.16,5.16,0,0,1-3.39,3l-.44.07a5.19,5.19,0,0,1-3.7-1.38.17.17,0,0,1,0-.22h0A5.31,5.31,0,0,1,207.49,178.06Z"/><path class="cls-17" d="M199.67,168.08a5.72,5.72,0,0,0-4.95.6A4.5,4.5,0,0,0,192.2,166a.37.37,0,0,0-.39.07.42.42,0,0,0-.11.38,3,3,0,0,1-.07,1.72,3.51,3.51,0,0,1-1.15,1.35.41.41,0,0,0-.16.36.37.37,0,0,0,.23.31,4.47,4.47,0,0,0,3.71-.29,5.68,5.68,0,0,0,3.21,3.81,5.84,5.84,0,0,0,5-.65,1,1,0,0,0,.41-1.06,5.71,5.71,0,0,0-3.22-3.87Zm-8.2,1.56a3.48,3.48,0,0,0,.87-1.23,3.58,3.58,0,0,0,.2-1.43,4,4,0,0,1,1.52,2.15,4.19,4.19,0,0,1-2.59.51Zm6.45,3.37a.56.56,0,0,1-.2-.06h0a5,5,0,0,1-2.8-3.5,5.13,5.13,0,0,1,4.47-.66l.41.18a5.21,5.21,0,0,1,2.35,3.19.17.17,0,0,1-.08.21h0A5.32,5.32,0,0,1,197.92,173Z"/><path class="cls-14" d="M206,177.79a5.74,5.74,0,0,0,2.23-4.47,4.45,4.45,0,0,0,3.67-.59.34.34,0,0,0,.15-.36.42.42,0,0,0-.25-.3,3.06,3.06,0,0,1-1.4-1,3.51,3.51,0,0,1-.49-1.71.42.42,0,0,0-.21-.33.41.41,0,0,0-.39,0,4.49,4.49,0,0,0-1.8,3.26,5.68,5.68,0,0,0-4.95.57,5.79,5.79,0,0,0-2.22,4.53,1,1,0,0,0,.65.94,5.77,5.77,0,0,0,5-.55Z"/><path class="cls-17" d="M206.15,177.82a5.69,5.69,0,0,0,2-4.58,4.51,4.51,0,0,0,3.63-.8.34.34,0,0,0,.14-.37.44.44,0,0,0-.27-.29,2.9,2.9,0,0,1-1.45-.92,3.51,3.51,0,0,1-.59-1.68.4.4,0,0,0-.23-.32.39.39,0,0,0-.39,0,4.52,4.52,0,0,0-1.61,3.35,5.72,5.72,0,0,0-4.91.85,5.84,5.84,0,0,0-2,4.65,1,1,0,0,0,.71.9,5.76,5.76,0,0,0,5-.83Zm2.78-7.87a3.15,3.15,0,0,0,1.76,2.26,4,4,0,0,1-2.62.24,4.21,4.21,0,0,1,.86-2.5Zm-6.16,3.87a.51.51,0,0,1,.15-.14h0a5,5,0,0,1,4.44-.65,5.11,5.11,0,0,1-1.69,4.19c-.11.09-.24.17-.36.26a5.2,5.2,0,0,1-3.93.42.17.17,0,0,1-.14-.18h0A5.27,5.27,0,0,1,202.77,173.82Z"/><path class="cls-17" d="M180.69,203.65a5.75,5.75,0,0,0-4.5,2.15,4.49,4.49,0,0,0-3.26-1.79.38.38,0,0,0-.35.19.43.43,0,0,0,0,.4,3,3,0,0,1,.48,1.65,3.46,3.46,0,0,1-.66,1.65.41.41,0,0,0,0,.39.4.4,0,0,0,.33.22,4.48,4.48,0,0,0,3.42-1.45,5.67,5.67,0,0,0,4.25,2.58,5.8,5.8,0,0,0,4.54-2.2,1,1,0,0,0,.06-1.14,5.74,5.74,0,0,0-4.29-2.65Zm-7.27,4.09a3.59,3.59,0,0,0,.43-1.44,3.51,3.51,0,0,0-.27-1.41,4,4,0,0,1,2.13,1.54,4.14,4.14,0,0,1-2.29,1.31Zm7.18,1.15h-.2a5.05,5.05,0,0,1-3.77-2.44,5.09,5.09,0,0,1,4-2l.44,0a5.16,5.16,0,0,1,3.24,2.28.17.17,0,0,1,0,.22h0A5.37,5.37,0,0,1,180.6,208.89Z"/><path class="cls-17" d="M242.49,222a5.69,5.69,0,0,0,4.51-2.15,4.43,4.43,0,0,0,3.25,1.79.35.35,0,0,0,.35-.19.42.42,0,0,0,0-.39,3,3,0,0,1-.48-1.65,3.54,3.54,0,0,1,.67-1.65.41.41,0,0,0,0-.39.41.41,0,0,0-.33-.23,4.52,4.52,0,0,0-3.42,1.46,5.7,5.7,0,0,0-4.25-2.59,5.86,5.86,0,0,0-4.55,2.21,1,1,0,0,0,0,1.14,5.71,5.71,0,0,0,4.28,2.64Zm7.28-4.09a3.53,3.53,0,0,0-.43,1.44,3.39,3.39,0,0,0,.27,1.42,3.92,3.92,0,0,1-2.13-1.55,4.16,4.16,0,0,1,2.29-1.31Zm-7.18-1.14a.64.64,0,0,1,.2,0h0a5,5,0,0,1,3.77,2.43,5.14,5.14,0,0,1-4,2c-.15,0-.3,0-.45,0a5.23,5.23,0,0,1-3.23-2.28.16.16,0,0,1,0-.22h0A5.27,5.27,0,0,1,242.59,216.79Z"/><line class="cls-4" x1="176.63" y1="218.17" x2="228.51" y2="218.17"/><line class="cls-4" x1="261.62" y1="218.17" x2="269.03" y2="218.17"/><line class="cls-4" x1="189.3" y1="230" x2="248.62" y2="230"/><circle class="cls-4" cx="187.41" cy="142.17" r="5.41"/><polyline class="cls-12" points="227.47 195.33 185.96 195.33 185.96 202.95 227.47 202.95 227.47 195.33"/><line class="cls-4" x1="251.15" y1="159.89" x2="251.15" y2="186.96"/><line class="cls-4" x1="183.29" y1="194.52" x2="232.19" y2="194.52"/><path d="M179.3,250.15h2.2l3.11,6.61,1.07,2.52h0c-.09-1.2-.29-2.7-.29-4v-5.12h2v11.77h-2.2l-3.11-6.61-1.07-2.51H181c.09,1.25.28,2.67.28,4v5.15h-2Z"/><path d="M190,259.55c0-2,1.74-3,6.11-3.28-.08-1-.66-1.73-2.11-1.73a6.06,6.06,0,0,0-2.88.94l-.78-1.38a8.13,8.13,0,0,1,4.05-1.23c2.45,0,3.8,1.36,3.8,3.82v5.23h-1.71l-.16-1.09h-.06a5.73,5.73,0,0,1-3.3,1.31A2.68,2.68,0,0,1,190,259.55Zm6.11-.12v-1.86c-3.18.21-4.09.86-4.09,1.82,0,.78.68,1.11,1.56,1.11A4.07,4.07,0,0,0,196.15,259.43Z"/><path d="M200.53,257.51c0-2.88,1.88-4.64,3.89-4.64a3.33,3.33,0,0,1,2.43,1h.05l-.09-1.49v-3.2h2.08v12.71h-1.7l-.16-1H207a4,4,0,0,1-2.67,1.25C202,262.14,200.53,260.43,200.53,257.51Zm6.28,1.85v-4a2.7,2.7,0,0,0-1.89-.79c-1.23,0-2.26,1-2.26,2.9s.81,2.93,2.15,2.93A2.57,2.57,0,0,0,206.81,259.36Z"/><path d="M211.2,253.08h1.6l.16,1.13h0a2.08,2.08,0,0,1,2-1.34c.82,0,1.37.5,1.61,1.48a2.15,2.15,0,0,1,2-1.48c1.25,0,2,1,2,2.79v6.26h-2v-6.11c0-.78-.21-1.17-.71-1.17s-.75.36-1.11,1.11v6.17H215v-6.11c0-.78-.21-1.17-.7-1.17s-.78.36-1.11,1.11v6.17h-2Z"/><path d="M222.27,257.49a4.48,4.48,0,0,1,4.56-4.62,3.86,3.86,0,0,1,4.1,4.19,6.5,6.5,0,0,1-.09,1.05h-7.08v-1.47h5.74l-.4.46c0-1.75-.82-2.64-2.21-2.64s-2.59,1.06-2.59,3a2.78,2.78,0,0,0,3.08,3,4.81,4.81,0,0,0,2.48-.72l.71,1.29a6.45,6.45,0,0,1-3.46,1A4.51,4.51,0,0,1,222.27,257.49Zm1.5-8.37.82-.76,2.19,1.84h.07l2.19-1.84.83.76-2,2.44h-2.12Z"/><path d="M234.31,253.08H236l.18,2h.05a4.37,4.37,0,0,1,3.76-2.22,3.71,3.71,0,0,1,1.73.35l-.45,1.77a4.37,4.37,0,0,0-1.6-.28,3.71,3.71,0,0,0-3.3,2.34v4.87h-2.08Z"/><path d="M244.25,253.08H246l.16,1.33h.07a4.44,4.44,0,0,1,3.19-1.54c2,0,3,1.3,3,3.58v5.47h-2.09v-5.2c0-1.42-.45-2.07-1.65-2.07a3.09,3.09,0,0,0-2.27,1.24v6h-2.08Z"/><path d="M254.84,259.55c0-2,1.74-3,6.11-3.28-.08-1-.67-1.73-2.11-1.73a6.13,6.13,0,0,0-2.89.94l-.77-1.38a8.13,8.13,0,0,1,4.05-1.23c2.45,0,3.8,1.36,3.8,3.82v5.23h-1.71l-.16-1.09h-.06a5.73,5.73,0,0,1-3.3,1.31A2.68,2.68,0,0,1,254.84,259.55Zm6.11-.12v-1.86c-3.18.21-4.1.86-4.1,1.82,0,.78.69,1.11,1.57,1.11A4.07,4.07,0,0,0,261,259.43ZM258,250.74l2.67-3.16,1.42,1.4-3,2.78Z"/><path d="M168.27,276.49a4.48,4.48,0,0,1,4.56-4.62,3.86,3.86,0,0,1,4.1,4.19,6.5,6.5,0,0,1-.09,1.05h-7.08v-1.47h5.74l-.4.46c0-1.75-.82-2.64-2.21-2.64s-2.58,1.06-2.58,3a2.77,2.77,0,0,0,3.07,3,4.81,4.81,0,0,0,2.48-.72l.72,1.29a6.51,6.51,0,0,1-3.47,1A4.51,4.51,0,0,1,168.27,276.49Z"/><path d="M182.08,276.33l-3-4.25h2.25l1.15,1.67c.29.49.65,1,1,1.5h.07c.28-.48.6-1,.86-1.51l1-1.66h2.19l-3,4.47,3.23,4.37h-2.27l-1.26-1.74c-.35-.49-.73-1.06-1.08-1.57h-.08c-.31.52-.64,1-.95,1.59l-1.16,1.72h-2.18Z"/><path d="M190.25,272.08H192l.16,1h.06a4.38,4.38,0,0,1,2.84-1.22c2.29,0,3.6,1.76,3.6,4.5,0,3-1.87,4.77-3.93,4.77a3.67,3.67,0,0,1-2.4-1.05h0l.09,1.55v2.78h-2.08Zm6.23,4.3c0-1.76-.62-2.79-2-2.79a2.93,2.93,0,0,0-2.1,1.06v4a3,3,0,0,0,1.92.8C195.51,279.42,196.48,278.38,196.48,276.38Z"/><path d="M203.63,277.71v-7.85h-3v-1.65h5v9.6a1.45,1.45,0,0,0,1.59,1.63,3.78,3.78,0,0,0,1.51-.34l.49,1.54a6.39,6.39,0,0,1-2.51.5C204.73,281.14,203.63,279.87,203.63,277.71Z"/><path d="M211.33,276.51a4.44,4.44,0,1,1,4.44,4.63A4.38,4.38,0,0,1,211.33,276.51Zm6.75,0c0-1.77-.87-2.95-2.31-2.95s-2.31,1.18-2.31,2.95.87,2.93,2.31,2.93S218.08,278.28,218.08,276.51Z"/><path d="M222.44,278.55c0-2,1.74-3,6.11-3.28-.08-1-.67-1.73-2.11-1.73a6.13,6.13,0,0,0-2.89.94l-.77-1.38a8.13,8.13,0,0,1,4.05-1.23c2.45,0,3.8,1.36,3.8,3.82v5.23h-1.71l-.16-1.09h-.06a5.73,5.73,0,0,1-3.3,1.31A2.68,2.68,0,0,1,222.44,278.55Zm6.11-.12v-1.86c-3.18.21-4.1.86-4.1,1.82,0,.78.69,1.11,1.57,1.11A4.07,4.07,0,0,0,228.55,278.43Z"/><path d="M235.39,277.37v-3.64H233v-1.55l2.45-.1.27-2.77h1.73v2.77h4v1.65h-4v3.63c0,1.46.55,2.12,2,2.12a5.38,5.38,0,0,0,1.92-.36l.41,1.52a8.69,8.69,0,0,1-2.83.5C236.31,281.14,235.39,279.62,235.39,277.37Z"/><path d="M244,278.55c0-2,1.74-3,6.11-3.28-.08-1-.67-1.73-2.11-1.73a6.13,6.13,0,0,0-2.89.94l-.77-1.38a8.13,8.13,0,0,1,4.05-1.23c2.45,0,3.8,1.36,3.8,3.82v5.23h-1.71l-.16-1.09h-.06a5.73,5.73,0,0,1-3.3,1.31A2.68,2.68,0,0,1,244,278.55Zm6.11-.12v-1.86c-3.18.21-4.1.86-4.1,1.82,0,.78.69,1.11,1.57,1.11A4.07,4.07,0,0,0,250.15,278.43Z"/><path d="M254.89,276.51c0-2.95,2.32-4.64,5-4.64a4.63,4.63,0,0,1,3.27,1.24l-1,1.3a3.45,3.45,0,0,0-2.19-.85,2.82,2.82,0,0,0-3,2.95,2.78,2.78,0,0,0,2.93,2.93,4.07,4.07,0,0,0,2.52-1l.87,1.33a5.51,5.51,0,0,1-3.57,1.34C257,281.14,254.89,279.45,254.89,276.51Z"/><path d="M265.47,276.49a4.48,4.48,0,0,1,4.56-4.62,3.86,3.86,0,0,1,4.1,4.19,6.5,6.5,0,0,1-.09,1.05H267v-1.47h5.74l-.4.46c0-1.75-.82-2.64-2.21-2.64s-2.59,1.06-2.59,3a2.78,2.78,0,0,0,3.08,3,4.81,4.81,0,0,0,2.48-.72l.71,1.29a6.45,6.45,0,0,1-3.46,1A4.51,4.51,0,0,1,265.47,276.49Z"/><path d="M147.29,9.27v18.2h-3.72V20.06h-3.74v7.41h-3.72V9.27h3.72v7.28h3.74V9.27Z"/><path d="M162.21,24v3.51h-9.1V9.27h3.69V24Z"/><path d="M173.31,24.45h-3.84l-.6,3h-3.82l4.36-18.2h4l4.36,18.2h-3.82Zm-.72-3.51-.42-2.08c-.24-1.3-.55-3.51-.73-5h-.1c-.18,1.48-.47,3.69-.73,5l-.42,2.08Z"/><path d="M179.6,9.27h3.83l1.63,8.61c.26,1.32.58,3.56.76,5.07h.1c.18-1.51.5-3.75.76-5.07l1.63-8.61h3.83l-4.32,18.2h-3.9Z"/><path d="M196.43,9.27h3.64l3.45,7.9c.45,1.15.86,2.34,1.3,3.49l.08-.08a63.44,63.44,0,0,1-.52-7.1V9.27H208v18.2h-3.64l-3.07-7L199.68,16l-.08.08a75.45,75.45,0,0,1,.47,7.72v3.69h-3.64Z"/><path d="M213.85,9.27h3.69v18.2h-3.69ZM216.37,4h2.94l-2.94,3.56h-2.45Z"/><path d="M234.85,12.78v3.77h4.79v3.38h-4.79v7.54h-3.69V9.27h9v3.51Z"/><path d="M250.9,24.45h-3.85l-.6,3h-3.82L247,9.27H251l4.37,18.2h-3.83Zm-.73-3.51-.42-2.08c-.23-1.3-.54-3.51-.73-5h-.1c-.18,1.48-.47,3.69-.73,5l-.41,2.08Z"/><path d="M264.26,20.58l-1,1.64v5.25h-3.64V9.27h3.64v7l.93-2,2.55-4.94h4.21l-4.63,8,5.41,10.24h-4.16Z"/><path d="M285.63,12.78h-3.56V27.47h-3.8V12.78h-3.56V9.27h10.92Z"/><path d="M289.71,21.57v-6.4c0-3.9,2.21-6.21,5.91-6.21s5.9,2.31,5.9,6.21v6.4c0,3.9-2.21,6.21-5.9,6.21S289.71,25.47,289.71,21.57Zm8,0v-6.4c0-1.71-.71-2.62-2.08-2.62s-2.08.91-2.08,2.62v6.4c0,1.71.7,2.62,2.08,2.62S297.7,23.28,297.7,21.57Z"/><path d="M311.81,21.36h-1.3v6.11h-3.69V9.27h5.28c3.61,0,5.75,2.24,5.75,6.06,0,2.47-.91,4.29-2.53,5.25l3.44,6.89h-4Zm-1.3-3.51h1.54c1.3,0,2-.88,2-2.52s-.7-2.55-2-2.55h-1.54Z"/><path d="M325.77,22.06,321.48,9.27h3.83l1.48,5c.18.6.6,2,.78,2.92h.1c.21-.89.63-2.32.84-3l1.42-5h3.83l-4.29,12.79v5.41h-3.7Z"/><path d="M344.49,25l5.78-12.22h-5.33V9.27h9.85v2.55L349.07,24h5.85v3.51H344.49Z"/><path d="M369.33,12.78h-3.57V27.47H362V12.78H358.4V9.27h10.93Z"/><path d="M378.66,21.36h-1.3v6.11h-3.69V9.27h5.27c3.62,0,5.75,2.24,5.75,6.06,0,2.47-.91,4.29-2.52,5.25l3.43,6.89h-4Zm-1.3-3.51h1.53c1.3,0,2-.88,2-2.52s-.7-2.55-2-2.55h-1.53Z"/><path d="M396.68,24.45h-3.85l-.6,3h-3.82l4.37-18.2h4l4.37,18.2h-3.83ZM395.4,7.53H393L395.4,4h2.94ZM396,20.94l-.42-2.08c-.23-1.3-.54-3.51-.73-5h-.1c-.18,1.48-.47,3.69-.73,5l-.41,2.08Z"/><path d="M414.05,12.78h-3.57V27.47h-3.79V12.78h-3.57V9.27h10.93Z"/><path d="M421.32,22.06,417,9.27h3.83l1.48,5c.18.6.6,2,.78,2.92h.1c.21-.89.63-2.32.83-3l1.43-5h3.83L425,22.06v5.41h-3.7Z"/><path d="M452.42,22a5.15,5.15,0,0,1-5.36,5.43h-5.74V9.27H447c2.8,0,4.81,2.08,4.81,5.17a5.21,5.21,0,0,1-1.54,3.72A4.41,4.41,0,0,1,452.42,22ZM445,12.75v3.8h1.46c1,0,1.58-.68,1.58-2s-.52-1.85-1.71-1.85ZM448.62,22c0-1.33-.75-2-2.13-2H445v4h1.4C447.87,24,448.62,23.31,448.62,22Z"/><path d="M457.2,9.27h3.7v18.2h-3.7Z"/><path d="M466.2,21.57v-6.4c0-3.9,2.21-6.21,5.9-6.21s5.9,2.31,5.9,6.21v6.4c0,3.9-2.21,6.21-5.9,6.21S466.2,25.47,466.2,21.57Zm8,0v-6.4c0-1.71-.7-2.62-2.08-2.62s-2.08.91-2.08,2.62v6.4c0,1.71.7,2.62,2.08,2.62S474.18,23.28,474.18,21.57Z"/><path d="M483.31,9.27h5c3.67,0,5.82,2.24,5.82,6v6c0,3.87-2.13,6.16-5.77,6.16h-5Zm5,14.69c1.33,0,2-.91,2-2.65v-6c0-1.66-.7-2.52-2-2.52H487V24Z"/><path d="M499.43,9.27h3.69v18.2h-3.69Z"/><path d="M507.41,9.27h3.82l1.64,8.61c.26,1.32.57,3.56.75,5.07h.11c.18-1.51.49-3.75.75-5.07l1.64-8.61h3.82l-4.31,18.2h-3.9Z"/><path d="M533.88,24v3.51h-9.65V9.27h9.39v3.51h-5.7v3.77h5.18v3.38h-5.18v4Z"/><path d="M544,21.36h-1.3v6.11H539V9.27h5.28c3.61,0,5.74,2.24,5.74,6.06,0,2.47-.91,4.29-2.52,5.25l3.43,6.89h-4Zm-1.3-3.51h1.53c1.3,0,2-.88,2-2.52s-.71-2.55-2-2.55h-1.53Z"/><path d="M554,25l5.77-12.22h-5.33V9.27h9.86v2.55L558.58,24h5.85v3.51H554Z"/><path d="M569.13,9.27h3.69v18.2h-3.69Z"/><path d="M588.35,12.78h-3.57V27.47H581V12.78h-3.57V9.27h10.93Z"/><path d="M595.63,22.06,591.34,9.27h3.82l1.48,5c.18.6.6,2,.78,2.92h.1c.21-.89.63-2.32.84-3l1.43-5h3.82l-4.29,12.79v5.41h-3.69Z"/><circle class="cls-18" cx="370.21" cy="126.3" r="70.07"/><g class="cls-19"><path class="cls-5" d="M407.19,172.33c4.43-.25,10.54-11.48,13.24-17.77,3.14-7.34,4.49-15.55,9.08-22.08A20.88,20.88,0,0,1,435,127l-12.17-2.27c-4.91,3.17-8.83,7.61-13.37,11.29-12.23,9.93-28.17,13.78-43.6,17-15.25,3.19-31,6.23-44,14.82-.13.09-1.58.72-.41.94C352.39,174.6,380.83,173.86,407.19,172.33Z"/></g><rect class="cls-5" x="311.33" y="180.26" width="120.55" height="24.22"/><line class="cls-11" x1="309.42" y1="122.83" x2="410.23" y2="122.83"/><line class="cls-4" x1="406.13" y1="127.25" x2="410.53" y2="122.85"/><line class="cls-4" x1="387.67" y1="134.01" x2="398.82" y2="122.85"/><line class="cls-4" x1="371.01" y1="138.96" x2="387.12" y2="122.85"/><line class="cls-4" x1="353.29" y1="144.97" x2="375.42" y2="122.85"/><line class="cls-4" x1="336.92" y1="149.64" x2="363.71" y2="122.85"/><line class="cls-4" x1="309" y1="149.59" x2="327.34" y2="149.59"/><line class="cls-4" x1="309" y1="140.67" x2="336.53" y2="140.67"/><line class="cls-4" x1="309" y1="131.75" x2="345.72" y2="131.75"/><line class="cls-11" x1="363.66" y1="121.83" x2="363.66" y2="113.89"/><line class="cls-11" x1="352.51" y1="121.83" x2="352.51" y2="115.72"/><line class="cls-11" x1="341.87" y1="121.83" x2="341.87" y2="117.93"/><path d="M422.38,124c-6.22,4-11,9.92-17.12,14.09a74.9,74.9,0,0,1-19.21,9,204,204,0,0,1-20.94,5.23c-7.26,1.52-14.53,3-21.65,5.07a84.43,84.43,0,0,0-20.14,8.5c-.8.49-1.58,1-2.36,1.51-.95.64,0,2.2.91,1.55a76.31,76.31,0,0,1,19.9-9.16c7.07-2.22,14.34-3.76,21.59-5.27,7.07-1.47,14.14-2.95,21.06-5A82.79,82.79,0,0,0,404,141a61.07,61.07,0,0,0,8.62-6.48c2.77-2.47,5.41-5.12,8.36-7.38.75-.58,1.53-1.12,2.32-1.64,1-.63.07-2.19-.91-1.55Z"/><path d="M434.56,126.24c-5.85,3.88-8.83,10.41-11,16.83-1.1,3.23-2.08,6.5-3.32,9.68A47.16,47.16,0,0,1,408,170.52c-.86.78.42,2,1.27,1.27A48.77,48.77,0,0,0,421,155.4c2.73-6.22,4.06-13,7.2-19a22.27,22.27,0,0,1,7.24-8.57c1-.64.06-2.2-.91-1.55Z"/><path class="cls-4" d="M333,98.55l.49-.07"/><path class="cls-20" d="M337.77,98.71c6.25,1,15.57,5,19.63,13.28"/><path class="cls-4" d="M358.24,114c.06.15.11.31.17.47"/><path class="cls-4" d="M334.79,97.15l.47-.15"/><path class="cls-21" d="M339.15,96.48c7.42-.14,18.12,3.68,23.41,12.31"/><path class="cls-4" d="M363.51,110.51l.21.45"/><path class="cls-4" d="M336.49,95.25l.46-.19"/><path class="cls-22" d="M340.87,94.11c8.18-1,19.22,2.77,25.26,10.26"/><path class="cls-4" d="M367.33,106c.09.14.19.28.27.42"/><line class="cls-23" x1="388.95" y1="121.83" x2="388.95" y2="115.35"/><path d="M390,110.34c.05-1-.09-2.12-.13-3.17,0-.24,0-.48,0-.72s0-.24,0-.36a.71.71,0,0,0,0-.14c0,.14,0-.06,0-.11a2.17,2.17,0,0,1,.21-.64,1.29,1.29,0,0,1,.52-.39,2,2,0,0,1,1.44-.11.73.73,0,0,1,.25.11.63.63,0,0,1,.21.14s.24.25.17.17l.11.16s.13.25.07.12a1.73,1.73,0,0,1,.11.37c0-.14,0,0,0,0V106c0-.13,0,0,0,0a1.39,1.39,0,0,1-.06.19c0-.09,0,.06,0,.07a2.26,2.26,0,0,1-.16.26,3.42,3.42,0,0,1-.43.4,5.36,5.36,0,0,1-.84.48,9.53,9.53,0,0,0-1,.45,3.57,3.57,0,0,0-.81.69l-.95,1a.92.92,0,0,0,0,1.27.9.9,0,0,0,1.27,0l1-1a2.08,2.08,0,0,1,.74-.55c.28-.13.66-.28,1-.45,1.39-.73,2.58-2.25,2-3.89a3.35,3.35,0,0,0-3.84-2.08,3.39,3.39,0,0,0-2,1.08,3.74,3.74,0,0,0-.75,2.28c-.06,1.37.2,2.73.13,4.09a.9.9,0,0,0,1.8,0Z"/><path d="M389.71,110.34c0-1.22.14-2.45.14-3.67a4.76,4.76,0,0,0-.39-2.15,3,3,0,0,0-1.85-1.5,3.42,3.42,0,0,0-4.09,1.39,2.8,2.8,0,0,0-.26,2.26,3.75,3.75,0,0,0,1.54,1.92,7.62,7.62,0,0,0,1.06.55,2.9,2.9,0,0,1,.92.49c.4.39.78.81,1.16,1.22a.9.9,0,1,0,1.28-1.27c-.28-.3-.57-.58-.85-.88a4.27,4.27,0,0,0-1.51-1.08,5.49,5.49,0,0,1-1.43-.81,1.5,1.5,0,0,1-.43-.59s-.07-.23-.07-.27c0,.14,0-.35,0-.18a1.5,1.5,0,0,1,2-1.09,1.77,1.77,0,0,1,.63.27,1,1,0,0,1,.36.41,2.11,2.11,0,0,1,.12.43l0,.21c0-.13,0,0,0,0,0,.24,0,.49,0,.74,0,1.19-.19,2.39-.14,3.58a.92.92,0,0,0,.9.9.9.9,0,0,0,.9-.9Z"/><path d="M390,117c.05-1.06-.09-2.12-.13-3.17,0-.24,0-.48,0-.72s0-.24,0-.36a.76.76,0,0,0,0-.15c0,.15,0,0,0-.1a2.17,2.17,0,0,1,.21-.64,1.29,1.29,0,0,1,.52-.39,2,2,0,0,1,1.44-.11.73.73,0,0,1,.25.11.63.63,0,0,1,.21.14s.24.25.17.17a.91.91,0,0,1,.11.16s.13.24.07.12a1.58,1.58,0,0,1,.11.37c0-.14,0,0,0,0v.18c0-.12,0,.05,0,.06a1.39,1.39,0,0,1-.06.19c0-.09,0,.06,0,.07l-.16.26a3.42,3.42,0,0,1-.43.4,5.36,5.36,0,0,1-.84.48,9.53,9.53,0,0,0-1,.45,3.57,3.57,0,0,0-.81.69c-.31.33-.64.65-.95,1a.92.92,0,0,0,0,1.27.9.9,0,0,0,1.27,0l1-1a2.11,2.11,0,0,1,.74-.56c.28-.12.66-.27,1-.44,1.39-.73,2.58-2.25,2-3.89a3.35,3.35,0,0,0-3.84-2.08,3.39,3.39,0,0,0-2,1.08,3.71,3.71,0,0,0-.75,2.28c-.06,1.36.2,2.73.13,4.09a.9.9,0,0,0,1.8,0Z"/><path d="M389.71,117c0-1.22.14-2.45.14-3.67a4.76,4.76,0,0,0-.39-2.15,3,3,0,0,0-1.85-1.5,3.42,3.42,0,0,0-4.09,1.39,2.8,2.8,0,0,0-.26,2.26,3.72,3.72,0,0,0,1.54,1.91,6.74,6.74,0,0,0,1.06.56,2.9,2.9,0,0,1,.92.49c.4.39.78.81,1.16,1.22a.9.9,0,1,0,1.28-1.27c-.28-.3-.57-.59-.85-.88a4.27,4.27,0,0,0-1.51-1.08,5.49,5.49,0,0,1-1.43-.81,1.66,1.66,0,0,1-.43-.59s-.07-.23-.07-.27c0,.14,0-.35,0-.18a1.49,1.49,0,0,1,2-1.09,1.77,1.77,0,0,1,.63.27,1,1,0,0,1,.36.41,1.94,1.94,0,0,1,.12.43l0,.21c0-.14,0,0,0,0,0,.24,0,.49,0,.73,0,1.2-.19,2.4-.14,3.59a.92.92,0,0,0,.9.9.9.9,0,0,0,.9-.9Z"/><line class="cls-23" x1="374.74" y1="121.83" x2="374.74" y2="115.35"/><path d="M375.78,115.83c.05-1.06-.09-2.12-.13-3.17,0-.24,0-.48,0-.72s0-.24,0-.36,0-.1,0-.15c0,.15,0-.05,0-.1a1.91,1.91,0,0,1,.21-.64,1.29,1.29,0,0,1,.52-.39,2,2,0,0,1,1.44-.11.73.73,0,0,1,.25.11c.13.07.14.07.2.14s.24.25.18.17l.11.16s.12.24.07.12a1.61,1.61,0,0,1,.1.36c0-.13,0,0,0,0a1.09,1.09,0,0,1,0,.18c0-.12,0,0,0,.06l-.06.19c0-.09,0,.06,0,.06s-.1.18-.16.27a3.28,3.28,0,0,1-.42.4,5,5,0,0,1-.85.48c-.32.15-.64.25-1,.44a3.61,3.61,0,0,0-.81.7c-.32.33-.64.65-.95,1a.92.92,0,0,0,0,1.27.9.9,0,0,0,1.27,0l.95-1a2,2,0,0,1,.74-.56c.28-.13.66-.27,1-.44,1.4-.73,2.59-2.25,2-3.89a3.32,3.32,0,0,0-3.84-2.08,3.45,3.45,0,0,0-2,1.08,3.77,3.77,0,0,0-.74,2.28c-.07,1.36.2,2.73.13,4.09a.9.9,0,1,0,1.8,0Z"/><path d="M375.5,115.83c-.06-1.22.14-2.45.14-3.68a5,5,0,0,0-.39-2.15,3.06,3.06,0,0,0-1.85-1.49,3.42,3.42,0,0,0-4.09,1.39,2.81,2.81,0,0,0-.27,2.26,3.74,3.74,0,0,0,1.55,1.91,5.92,5.92,0,0,0,1.06.55,3,3,0,0,1,.92.5c.4.39.78.81,1.16,1.22a.9.9,0,0,0,1.27-1.27c-.27-.3-.56-.59-.84-.88a4.27,4.27,0,0,0-1.51-1.08,5.49,5.49,0,0,1-1.43-.81,1.64,1.64,0,0,1-.44-.6,1.75,1.75,0,0,0-.07-.26c0,.14,0-.35,0-.19a1.49,1.49,0,0,1,2-1.08,1.74,1.74,0,0,1,.64.27,1,1,0,0,1,.36.41,2.88,2.88,0,0,1,.11.42,2.07,2.07,0,0,1,0,.22c0-.14,0,0,0,0,0,.24,0,.49,0,.73,0,1.2-.2,2.4-.14,3.59a.9.9,0,0,0,1.8,0Z"/><line class="cls-23" x1="403.98" y1="121.83" x2="403.98" y2="115.35"/><path d="M405,110.34c.05-1-.09-2.12-.13-3.17,0-.24,0-.48,0-.72s0-.24,0-.36a.61.61,0,0,1,0-.14c0,.14,0-.06,0-.11a1.91,1.91,0,0,1,.21-.64,1.29,1.29,0,0,1,.52-.39,2,2,0,0,1,1.43-.11.77.77,0,0,1,.26.11.57.57,0,0,1,.2.14s.24.25.18.17a1.4,1.4,0,0,1,.1.16s.13.25.08.12a1.7,1.7,0,0,1,.1.37c0-.14,0,0,0,0a1.28,1.28,0,0,1,0,.19c0-.13,0,0,0,0l-.06.19c0-.09,0,.06,0,.07a2.26,2.26,0,0,1-.16.26,3.28,3.28,0,0,1-.42.4,5.46,5.46,0,0,1-.85.48,8.54,8.54,0,0,0-1,.45,3.85,3.85,0,0,0-.82.69l-.94,1a.91.91,0,0,0,0,1.27.9.9,0,0,0,1.27,0l.95-1a2,2,0,0,1,.73-.55c.28-.13.67-.28,1-.45,1.39-.73,2.59-2.25,2-3.89a3.33,3.33,0,0,0-3.84-2.08,3.42,3.42,0,0,0-2,1.08,3.79,3.79,0,0,0-.74,2.28c-.07,1.37.19,2.73.13,4.09a.9.9,0,1,0,1.8,0Z"/><path d="M404.74,110.34c-.06-1.22.14-2.45.14-3.67a4.9,4.9,0,0,0-.39-2.15,3.07,3.07,0,0,0-1.85-1.5,3.42,3.42,0,0,0-4.09,1.39,2.81,2.81,0,0,0-.27,2.26,3.72,3.72,0,0,0,1.55,1.92,6.65,6.65,0,0,0,1.06.55,2.85,2.85,0,0,1,.91.49c.41.39.79.81,1.17,1.22a.9.9,0,0,0,1.27,0,.91.91,0,0,0,0-1.27c-.27-.3-.56-.58-.84-.88a4.27,4.27,0,0,0-1.51-1.08,5.18,5.18,0,0,1-1.43-.81,1.53,1.53,0,0,1-.44-.59S400,106,400,106c0,.14,0-.35,0-.18a1.49,1.49,0,0,1,2-1.09,1.7,1.7,0,0,1,.63.27,1,1,0,0,1,.37.41,3,3,0,0,1,.11.43c0,.07,0,.14,0,.21,0-.13,0,0,0,0,0,.24,0,.49,0,.74,0,1.19-.2,2.39-.14,3.58a.9.9,0,0,0,1.8,0Z"/><path d="M405,117c.05-1.06-.09-2.12-.13-3.17,0-.24,0-.48,0-.72s0-.24,0-.36a.76.76,0,0,1,0-.15c0,.15,0,0,0-.1a1.91,1.91,0,0,1,.21-.64,1.29,1.29,0,0,1,.52-.39,2,2,0,0,1,1.43-.11.77.77,0,0,1,.26.11.57.57,0,0,1,.2.14s.24.25.18.17a.86.86,0,0,1,.1.16s.13.24.08.12a1.56,1.56,0,0,1,.1.37c0-.14,0,0,0,0a1.09,1.09,0,0,1,0,.18v.06l-.06.19c0-.09,0,.06,0,.07l-.16.26a3.28,3.28,0,0,1-.42.4,5.46,5.46,0,0,1-.85.48,8.54,8.54,0,0,0-1,.45,3.85,3.85,0,0,0-.82.69c-.31.33-.63.65-.94,1a.91.91,0,0,0,0,1.27.9.9,0,0,0,1.27,0l.95-1a2,2,0,0,1,.73-.56c.28-.12.67-.27,1-.44,1.39-.73,2.59-2.25,2-3.89a3.33,3.33,0,0,0-3.84-2.08,3.42,3.42,0,0,0-2,1.08,3.77,3.77,0,0,0-.74,2.28c-.07,1.36.19,2.73.13,4.09a.9.9,0,1,0,1.8,0Z"/><path d="M404.74,117c-.06-1.22.14-2.45.14-3.67a4.9,4.9,0,0,0-.39-2.15,3.07,3.07,0,0,0-1.85-1.5,3.42,3.42,0,0,0-4.09,1.39,2.81,2.81,0,0,0-.27,2.26,3.69,3.69,0,0,0,1.55,1.91,6,6,0,0,0,1.06.56,2.85,2.85,0,0,1,.91.49c.41.39.79.81,1.17,1.22a.9.9,0,0,0,1.27,0,.91.91,0,0,0,0-1.27c-.27-.3-.56-.59-.84-.88a4.27,4.27,0,0,0-1.51-1.08,5.18,5.18,0,0,1-1.43-.81,1.69,1.69,0,0,1-.44-.59s-.06-.23-.07-.27c0,.14,0-.35,0-.18a1.48,1.48,0,0,1,2-1.09,1.7,1.7,0,0,1,.63.27,1,1,0,0,1,.37.41,2.7,2.7,0,0,1,.11.43c0,.07,0,.14,0,.21,0-.14,0,0,0,0,0,.24,0,.49,0,.73,0,1.2-.2,2.4-.14,3.59a.9.9,0,0,0,1.8,0Z"/><circle class="cls-24" cx="431.49" cy="173.31" r="0.62"/><rect class="cls-14" x="324.75" y="94.56" width="3.7" height="4.22" transform="translate(36.21 -81.34) rotate(15.02)"/><rect class="cls-14" x="317.81" y="98.65" width="12.18" height="17.99" transform="translate(38.96 -80.26) rotate(15.02)"/><path class="cls-25" d="M332.53,101.82a1.77,1.77,0,0,0-1.27-2.15l-2.12-.54.18-1.17.53.14a1.18,1.18,0,0,0,1.43-.85l.1-.38a1.18,1.18,0,0,0-.85-1.43l-5-1.29a1.18,1.18,0,0,0-1.4.73l-1,2.7L321,97a1.76,1.76,0,0,0-1.42,3.16l-3,11.54a1.56,1.56,0,0,0-1.51,1.17l-.29,1.14a1.56,1.56,0,0,0,1.12,1.91l10.63,2.74a1.58,1.58,0,0,0,1.91-1.13l.29-1.14a1.59,1.59,0,0,0-.76-1.76l3-11.54a1.76,1.76,0,0,0,1.55-1.31Zm-1.91-5.14-.1.38a.39.39,0,0,1-.48.28l-.6-.16a9.27,9.27,0,0,0,.14-1.18l.76.2A.39.39,0,0,1,330.62,96.68Zm-5.75-1.53a.39.39,0,0,1,.46-.24l3.18.82a.39.39,0,0,1,.29.44l-.42,2.76-4.48-1.15Zm-5.24,3.35a1,1,0,0,1,1.19-.7l10.25,2.63a1,1,0,0,1,.7,1.2,1,1,0,0,1-1.19.7l-10.25-2.64A1,1,0,0,1,319.63,98.5Zm7.63,15.92-9.86-2.54,2.93-11.38,9.86,2.54Zm.75,1.81-.29,1.14a.8.8,0,0,1-1,.57l-10.62-2.74a.79.79,0,0,1-.57-1l.3-1.14a.79.79,0,0,1,.95-.57l10.63,2.74A.79.79,0,0,1,328,116.23Z"/><path class="cls-17" d="M320.57,111l1.38-1.38a2.66,2.66,0,0,0,3.83-.44,4.47,4.47,0,0,0,.88-2.66v-2.13h-2.13a4.41,4.41,0,0,0-2.66.89,2.66,2.66,0,0,0-.44,3.83l-1.38,1.37Zm1-3.6h0a1.93,1.93,0,0,1,.77-1.54,3.7,3.7,0,0,1,2.22-.74h1.4v1.4a3.7,3.7,0,0,1-.74,2.22,1.86,1.86,0,0,1-1.28.75,1.91,1.91,0,0,1-1.44-.39l2-2-.52-.51-2,2a1.94,1.94,0,0,1-.41-1.18Z"/><path class="cls-14" d="M372,151l-4-7.24a2.15,2.15,0,0,0-1.89-1.12,2.13,2.13,0,0,0-1.88,1.13L360.32,151a2.18,2.18,0,0,0,0,2.13,2.14,2.14,0,0,0,1.85,1h7.88A2.16,2.16,0,0,0,372,151Z"/><path class="cls-26" d="M372,151l-4-7.24a2.15,2.15,0,0,0-1.89-1.12,2.13,2.13,0,0,0-1.88,1.13L360.32,151a2.18,2.18,0,0,0,0,2.13,2.14,2.14,0,0,0,1.85,1h7.88A2.16,2.16,0,0,0,372,151Zm-.89,1.63a1.11,1.11,0,0,1-1,.57h-7.87a1.13,1.13,0,0,1-1-.57,1.16,1.16,0,0,1,0-1.14l3.92-7.26a1.14,1.14,0,0,1,1-.6,1.15,1.15,0,0,1,1,.6l3.95,7.25a1.15,1.15,0,0,1,0,1.15Z"/><circle cx="366.15" cy="151.15" r="0.9"/><line class="cls-4" x1="366.15" y1="148.75" x2="366.15" y2="146.67"/><path class="cls-27" d="M405.85,154.58a.57.57,0,0,0-.18-.5c-.17-.14-4.2-3.57-8.89-1.91,0,0-2.86,1.12-1.73,5.21l0,.16-1.36.48-.07-.15a6.21,6.21,0,0,0-3.24-3.33.58.58,0,0,0-.41,0,.54.54,0,0,0-.28.31.55.55,0,0,0,.34.68,5.11,5.11,0,0,1,2.55,2.64l.09.18-2.16.76-.07-.14a5.58,5.58,0,0,0-2.88-2.93.53.53,0,0,0-.41,0,.49.49,0,0,0-.27.31.53.53,0,0,0,.32.68,4.47,4.47,0,0,1,2.21,2.23l.09.18-2.16.77-.07-.15a4.9,4.9,0,0,0-2.53-2.52.49.49,0,0,0-.41,0,.53.53,0,0,0,.05,1,3.77,3.77,0,0,1,1.85,1.82l.09.19-1.48.52-.08-.07a7.08,7.08,0,0,0-4.47-1.77,5.85,5.85,0,0,0-2,.36.52.52,0,0,0-.35.38.54.54,0,0,0,.14.5l2.57,2.67-.31,3.63a.48.48,0,0,0,0,.29.54.54,0,0,0,.69.33,6.59,6.59,0,0,0,4.17-5.2l0-.1,1.48-.52,0,.2a3.84,3.84,0,0,1-.29,2.58.55.55,0,0,0,.18.74.59.59,0,0,0,.47.05.62.62,0,0,0,.28-.23,4.93,4.93,0,0,0,.37-3.55l0-.15,2.15-.77.05.2a4.57,4.57,0,0,1-.31,3.12.54.54,0,0,0,.18.74.57.57,0,0,0,.46,0,.49.49,0,0,0,.28-.23,5.56,5.56,0,0,0,.4-4.08l0-.16,2.16-.76.05.19a5.1,5.1,0,0,1-.33,3.66.54.54,0,0,0,.18.74.5.5,0,0,0,.46,0,.53.53,0,0,0,.27-.22,6.16,6.16,0,0,0,.43-4.62l0-.16,1.36-.48.07.15c1.69,3.88,4.6,3,4.62,3C404.8,160,405.81,154.8,405.85,154.58Zm-21.69,7.5a5.82,5.82,0,0,1-2.36,3.82l-.31.21.26-3a.5.5,0,0,0-.15-.42l-2.11-2.2.37,0a5.84,5.84,0,0,1,4.24,1.48l0,0,0,.09Zm15.63-1.44a1.54,1.54,0,0,1-.48.07c-.74,0-2.1-.39-3-3-1.26-3.54.65-4.42.87-4.51,3.42-1.21,6.58.8,7.47,1.45l.09.07,0,.12c-.28,1.06-1.48,4.61-4.88,5.82Z"/><line class="cls-28" x1="399.66" y1="154.93" x2="398.49" y2="157.12"/><line class="cls-28" x1="397.97" y1="155.39" x2="400.16" y2="156.56"/><path d="M311.31,193.43h2.23l1.65,5.91c.38,1.34.64,2.5,1,3.83h.08c.39-1.33.67-2.49,1-3.83l1.63-5.91h2.15l-3.64,11.77H315Z"/><path d="M322.81,208.65l.4-1.61a2.6,2.6,0,0,0,.74.12,2.18,2.18,0,0,0,2.13-1.51l.21-.55-4-8.74h2.08l1.8,4.32c.33.81.66,1.72,1,2.61h.08c.27-.86.59-1.77.87-2.61l1.6-4.32h2L328,205.61c-.77,2-1.83,3.22-4,3.22A4.3,4.3,0,0,1,322.81,208.65Z"/><path d="M333.52,204.05l.91-1.33a6.51,6.51,0,0,0,3.7,1.13c1.22,0,1.8-.47,1.8-1.06s-.39-.9-2.45-1.33c-2.36-.49-3.4-1.32-3.4-2.67,0-1.54,1.4-2.65,3.87-2.65a7,7,0,0,1,3.7,1.17l-1,1.28a5.45,5.45,0,0,0-2.93-.88c-1.14,0-1.62.44-1.62,1s.65.84,2.31,1.2c2.83.62,3.56,1.38,3.56,2.78s-1.46,2.75-4.15,2.75A8,8,0,0,1,333.52,204.05Z"/><path d="M344.17,200.79a4.44,4.44,0,1,1,4.44,4.63A4.39,4.39,0,0,1,344.17,200.79Zm6.75,0c0-1.78-.87-2.95-2.31-2.95s-2.31,1.17-2.31,2.95.87,2.93,2.31,2.93S350.92,202.56,350.92,200.79Z"/><path d="M355.63,192.49h2.08v7.95h.07l4-4.08h2.31l-6.36,6.53v2.31h-2.08Zm3.54,8.37,1.22-1.31,4.06,5.65h-2.28Z"/><path d="M366.08,202.83c0-2,1.74-3,6.11-3.28-.08-1-.67-1.73-2.11-1.73a6.13,6.13,0,0,0-2.89.94l-.77-1.38a8.13,8.13,0,0,1,4.05-1.24c2.45,0,3.8,1.37,3.8,3.83v5.23h-1.71l-.16-1.09h-.06a5.73,5.73,0,0,1-3.3,1.31A2.68,2.68,0,0,1,366.08,202.83Zm6.11-.12v-1.86c-3.18.21-4.1.86-4.1,1.82,0,.78.69,1.11,1.57,1.11A4.07,4.07,0,0,0,372.19,202.71ZM369.28,194l2.67-3.16,1.42,1.39-3,2.79Z"/><path d="M387.24,196.36h1.6l.16,1.13h.05a2.09,2.09,0,0,1,2-1.35c.82,0,1.37.51,1.6,1.49a2.19,2.19,0,0,1,2-1.49c1.25,0,2,1,2,2.8v6.26h-2v-6.11c0-.78-.2-1.17-.7-1.17s-.75.36-1.11,1.1v6.18h-1.72v-6.11c0-.78-.21-1.17-.71-1.17s-.77.36-1.1,1.1v6.18h-2Z"/><path d="M402.54,198h-3.82v-1.65h5.9v8.84h-2.08Zm-.38-4,2.66-3.16,1.43,1.39-3,2.79Z"/><path d="M410.35,196.36h1.71l.18,2h.05a4.38,4.38,0,0,1,3.76-2.23,3.64,3.64,0,0,1,1.72.36l-.44,1.77a4.37,4.37,0,0,0-1.6-.28,3.7,3.7,0,0,0-3.3,2.34v4.87h-2.08Z"/><path d="M420.08,202.83c0-2,1.74-3,6.11-3.28-.08-1-.67-1.73-2.11-1.73a6.13,6.13,0,0,0-2.89.94l-.77-1.38a8.13,8.13,0,0,1,4.05-1.24c2.45,0,3.8,1.37,3.8,3.83v5.23h-1.71l-.16-1.09h-.06a5.73,5.73,0,0,1-3.3,1.31A2.68,2.68,0,0,1,420.08,202.83Zm6.11-.12v-1.86c-3.18.21-4.1.86-4.1,1.82,0,.78.69,1.11,1.57,1.11A4.07,4.07,0,0,0,426.19,202.71Z"/><path d="M317.48,223.09l5.3-6.08h-4.69v-1.65h7.62v1.11l-5.31,6.07h5.45v1.66h-8.37Z"/><path d="M328.49,215.36h1.7l.16,1.33h.07a4.45,4.45,0,0,1,3.19-1.55c2.05,0,3,1.31,3,3.59v5.47H334.5V219c0-1.42-.46-2.07-1.65-2.07a3.1,3.1,0,0,0-2.28,1.24v6h-2.08Z"/><path d="M338.91,219.77a4.49,4.49,0,0,1,4.56-4.63,3.88,3.88,0,0,1,4.11,4.2,6.31,6.31,0,0,1-.1,1H340.4v-1.47h5.74l-.4.46c0-1.75-.82-2.64-2.21-2.64s-2.59,1.06-2.59,3a2.78,2.78,0,0,0,3.08,3,4.81,4.81,0,0,0,2.48-.72l.71,1.29a6.45,6.45,0,0,1-3.46,1A4.51,4.51,0,0,1,338.91,219.77Z"/><path d="M349.93,219.79c0-2.95,2.33-4.65,5-4.65a4.63,4.63,0,0,1,3.27,1.25l-1,1.3a3.45,3.45,0,0,0-2.19-.85,2.81,2.81,0,0,0-3,2.95,2.78,2.78,0,0,0,2.93,2.93,4.07,4.07,0,0,0,2.52-1l.88,1.33a5.55,5.55,0,0,1-3.58,1.34C352,224.42,349.93,222.73,349.93,219.79Zm1.82-8.39.82-.76,2.19,1.84h.08l2.18-1.84.83.76-2,2.44h-2.12Z"/><path d="M364.74,217h-3.82v-1.65h5.91v8.84h-2.09Zm-.57-4.65a1.48,1.48,0,1,1,1.48,1.39A1.38,1.38,0,0,1,364.17,212.36Z"/><path d="M371.32,223.05l.91-1.33a6.51,6.51,0,0,0,3.7,1.13c1.23,0,1.8-.47,1.8-1.06s-.39-.9-2.45-1.33c-2.36-.49-3.41-1.32-3.41-2.67,0-1.54,1.4-2.65,3.88-2.65a7,7,0,0,1,3.7,1.17l-1,1.28a5.45,5.45,0,0,0-2.93-.88c-1.14,0-1.62.44-1.62,1s.65.84,2.31,1.2c2.83.62,3.56,1.38,3.56,2.78s-1.47,2.75-4.15,2.75A8,8,0,0,1,371.32,223.05Zm1.38-11.65.82-.76,2.19,1.84h.07l2.2-1.84.82.76-2,2.44h-2.12Z"/><path d="M384.42,220.65V217h-2.36v-1.55l2.45-.1.27-2.77h1.73v2.77h4V217h-4v3.63c0,1.46.55,2.12,2,2.12a5.38,5.38,0,0,0,1.92-.36l.41,1.52a8.69,8.69,0,0,1-2.83.5C385.35,224.42,384.42,222.9,384.42,220.65Z"/><path d="M392.91,219.77a4.49,4.49,0,0,1,4.56-4.63,3.87,3.87,0,0,1,4.1,4.2,6.5,6.5,0,0,1-.09,1H394.4v-1.47h5.74l-.4.46c0-1.75-.82-2.64-2.21-2.64s-2.59,1.06-2.59,3a2.78,2.78,0,0,0,3.08,3,4.81,4.81,0,0,0,2.48-.72l.71,1.29a6.45,6.45,0,0,1-3.46,1A4.51,4.51,0,0,1,392.91,219.77Zm1.5-8.37.82-.76,2.19,1.84h.07l2.19-1.84.83.76-2,2.44H396.4Z"/><path d="M404.09,215.36h1.7l.16,1.33H406a4.45,4.45,0,0,1,3.19-1.55c2.05,0,3,1.31,3,3.59v5.47h-2.08V219c0-1.42-.45-2.07-1.65-2.07a3.09,3.09,0,0,0-2.27,1.24v6h-2.08Z"/><path d="M418.74,217h-3.82v-1.65h5.9v8.84h-2.08Zm-.38-4,2.66-3.16,1.43,1.39-3,2.79Z"/><line class="cls-4" x1="488.91" y1="182.39" x2="457.68" y2="182.39"/><line class="cls-4" x1="580.81" y1="182.39" x2="552.12" y2="182.39"/><line class="cls-4" x1="544.65" y1="186.78" x2="544.65" y2="157.58"/><path class="cls-26" d="M547.27,167.45l11.26-3.95a2.14,2.14,0,0,0,0-3.77l-11.26-3.94a2.18,2.18,0,0,0-2.13,0,2.12,2.12,0,0,0-1,1.85v7.88a2.15,2.15,0,0,0,3.19,1.89Zm-1.63-.89a1.11,1.11,0,0,1-.56-1v-7.87a1.12,1.12,0,0,1,.56-1,1.18,1.18,0,0,1,1.14,0l11.28,3.92a1.14,1.14,0,0,1,.6,1,1.15,1.15,0,0,1-.6,1l-11.27,4a1.15,1.15,0,0,1-1.15,0Z"/><path class="cls-29" d="M514.62,183.6c0,1.81-.31,3.37-1.38,3.52s.49,2.95.49,2.95,6.13.93,2.24,1.59c-6.08,1-2.77-5.44-8.94-5.44"/><path class="cls-29" d="M520.44,185.38c1,1.49-3,3.83.63,6.07,1.59,1,1.54-2,.8-2.9l1.38-1.65"/><path class="cls-30" d="M501.78,180.67c-3.49-.71-11.64-2.67-13-10.75"/><path class="cls-29" d="M527,172.78c-1.2-2.21,1.64-.9,1.91,0,.37-.73,11.06,4.75,6.58,6.38-7.23,2.65-8.51,5.18-5.78,8,0,0,4.3.2,3.71,2.51s-3-1-4.38-1.4-4.82-.26-8.59-2.88-10.18-2.09-12,0-9-.26-10.13,3.26c-2.35,7.06-6.06,1.7.58-2.75,2.63-1.77,4.17-15.83,16.33-13.15,8.58,1.89,5.94,1.72,7.85,1.53"/><path class="cls-30" d="M525.3,177c-4.45-1.09-.4-7.31,1.9-1.27"/><path class="cls-30" d="M529.9,176c.13-.18.72,0,.83,0"/><path class="cls-29" d="M490.9,211.77c0,1.81-.32,3.37-1.38,3.53s.49,2.94.49,2.94,6.13.94,2.23,1.6c-6.08,1-2.76-5.44-8.93-5.44"/><path class="cls-29" d="M496.72,213.56c1,1.49-3,3.82.63,6.06,1.58,1,1.53-2,.79-2.89l1.39-1.65"/><path class="cls-29" d="M503.22,201c-1.19-2.21,1.64-.9,1.92,0,.37-.74,11.05,4.74,6.57,6.38-7.23,2.65-8.51,5.18-5.77,8,0,0,4.29.2,3.71,2.5s-3-1-4.39-1.4-4.81-.25-8.58-2.87-10.18-2.09-12,0c-1.93,2.28-9-.25-10.13,3.27-2.34,7.06-6.05,1.7.59-2.76,2.63-1.76,4.17-15.83,16.33-13.14,8.58,1.89,5.93,1.72,7.85,1.53"/><path class="cls-29" d="M501.58,205.13c-4.45-1.09-.4-7.31,1.9-1.27"/><path class="cls-30" d="M478.06,208.84c-3.5-.7-9.49-2-10.59-5.8"/><path class="cls-30" d="M506.17,204.17c.14-.18.73,0,.83,0"/><path class="cls-31" d="M576.37,191.44a.62.62,0,0,0-.8.38,49,49,0,0,0-2.06,7.69,18.47,18.47,0,0,0-.37,6H572a23.49,23.49,0,0,1,0-6.7c0-.49.09-1,.12-1.44a.63.63,0,0,0-.57-.68.64.64,0,0,0-.68.58c0,.47-.08.94-.12,1.42-.08.85-.16,1.71-.2,2.58a19.19,19.19,0,0,0-2.13-6.68.64.64,0,0,0-.86-.23.62.62,0,0,0-.22.86c1.35,2.31,1.76,4.87,2.19,7.59.14.89.29,1.79.47,2.69h-.91a45.64,45.64,0,0,0-1.33-7.46c-.81-3-2.07-6.72-4.75-9.13a.63.63,0,0,0-.89.05.62.62,0,0,0,0,.88c2.43,2.19,3.62,5.71,4.37,8.52a43,43,0,0,1,1.28,7.14h-2.14a47.79,47.79,0,0,1-.79-8.07.6.6,0,0,0-.63-.62.63.63,0,0,0-.62.63,48.85,48.85,0,0,0,.77,8.06h-1.83c0-4.1-.46-9.69-4.67-12.61a.63.63,0,0,0-.71,1c3.69,2.57,4.17,7.48,4.12,11.59H560a.63.63,0,0,0,0,1.25h15.22a.63.63,0,1,0,0-1.25h-.84a16.29,16.29,0,0,1,.32-5.75,48.64,48.64,0,0,1,2-7.49.62.62,0,0,0-.38-.8Z"/><path class="cls-31" d="M524.13,218.73a.71.71,0,0,1,.8.29,30.24,30.24,0,0,1,2.06,5.79,10.45,10.45,0,0,1,.37,4.5h1.16a13.61,13.61,0,0,0,0-5.05c0-.36-.09-.72-.12-1.08s.23-.49.57-.51a.61.61,0,0,1,.68.43c0,.36.08.71.12,1.08.08.64.16,1.28.2,1.94a12.2,12.2,0,0,1,2.13-5,.75.75,0,0,1,.86-.16.41.41,0,0,1,.22.64,13.07,13.07,0,0,0-2.19,5.72c-.14.66-.29,1.35-.47,2h.92a26.82,26.82,0,0,1,1.32-5.63,13.43,13.43,0,0,1,4.75-6.87.78.78,0,0,1,.89,0,.39.39,0,0,1,0,.66c-2.43,1.65-3.61,4.3-4.37,6.42a25.11,25.11,0,0,0-1.28,5.38h2.14a27.52,27.52,0,0,0,.79-6.09.54.54,0,0,1,.63-.46c.35,0,.63.22.62.48a27.49,27.49,0,0,1-.77,6.07H538c0-3.1.46-7.3,4.67-9.5a.75.75,0,0,1,.87.12.41.41,0,0,1-.15.66c-3.7,1.93-4.18,5.63-4.13,8.72h1.25a.49.49,0,1,1,0,.94H525.24c-.35,0-.63-.21-.63-.47s.28-.47.63-.47h.85a9.46,9.46,0,0,0-.33-4.33,30.06,30.06,0,0,0-2-5.64c-.12-.25,0-.52.38-.6Z"/><line class="cls-4" x1="482.73" y1="229.97" x2="499.16" y2="229.97"/><path class="cls-4" d="M481.45,228.16c1.62-1.46,3.8.72,4.31,1.81"/><path class="cls-4" d="M487.33,230s.77,2.74,2.94,2.91"/><path class="cls-4" d="M494.81,233a3.45,3.45,0,0,1-2.08,2.07"/><path class="cls-4" d="M496.12,230a3.19,3.19,0,0,1,2.19,2.07"/><path class="cls-4" d="M491,230a5,5,0,0,1,4.06-2.4"/><path class="cls-4" d="M488.8,230a4,4,0,0,0-1.3-3.25"/><line class="cls-4" x1="466.37" y1="194.24" x2="458.03" y2="194.24"/><path class="cls-4" d="M463.42,196.58a3.42,3.42,0,0,1-2.08,2.08"/><path class="cls-4" d="M461.07,194.24a3.2,3.2,0,0,0-2.19,2.08"/><path class="cls-4" d="M466.18,194.24a5.05,5.05,0,0,0-4.06-2.4"/><line class="cls-4" x1="463.27" y1="194.22" x2="458.94" y2="194.22"/><line class="cls-4" x1="539.84" y1="206.04" x2="535.51" y2="206.04"/><line class="cls-4" x1="565.95" y1="217.88" x2="553.35" y2="217.88"/><circle cx="478.19" cy="190.15" r="0.9"/><circle cx="480.33" cy="192.8" r="0.9"/><circle cx="470.98" cy="188.51" r="0.9"/></svg>