<svg id="Layer_1" data-name="Layer 1" xmlns="http://www.w3.org/2000/svg" viewBox="0 0 740 209.87"><defs><style>.cls-1{fill:#ffd166;fill-opacity:0.6;}</style></defs><circle class="cls-1" cx="110.74" cy="112.6" r="50.8"/><path d="M93.48,92.17l2.23-7.56h2.45L94.5,95.17H92.44L88.75,84.61h2.46Z"/><path d="M103.34,91.77l2.15-7.16H108l-4.2,12.16c-.65,1.78-1.74,2.67-3.28,2.67a4.2,4.2,0,0,1-1.15-.18V97.42l.45,0a2.28,2.28,0,0,0,1.35-.33,2.08,2.08,0,0,0,.72-1.1l.34-.9L98.54,84.61h2.56Z"/><path d="M111.61,84.61l.07,1.1a3.79,3.79,0,0,1,3-1.3,2.93,2.93,0,0,1,2.9,1.62,3.73,3.73,0,0,1,3.24-1.62,3.28,3.28,0,0,1,2.6,1,4.22,4.22,0,0,1,.87,2.85v6.94H122V88.3a2.15,2.15,0,0,0-.44-1.48,1.93,1.93,0,0,0-1.45-.47,2,2,0,0,0-1.33.44,2.25,2.25,0,0,0-.71,1.14v7.24h-2.38v-7a1.7,1.7,0,0,0-1.9-1.87,2.08,2.08,0,0,0-2,1.17v7.65h-2.38V84.61Z"/><path d="M129.33,95.17H127V84.61h2.37Zm-.44-14.93h2.7l-2.7,3H127Z"/><path d="M137.57,86.77a6.24,6.24,0,0,0-1-.07A2.17,2.17,0,0,0,134.4,88v7.22H132V84.61h2.27l0,1.18a2.69,2.69,0,0,1,2.39-1.38,2.23,2.23,0,0,1,.84.14Z"/><path d="M145.38,95.17a3.53,3.53,0,0,1-.27-1,4,4,0,0,1-5.38.27,2.91,2.91,0,0,1-1-2.25A3,3,0,0,1,140,89.62a6.12,6.12,0,0,1,3.59-.9H145V88a1.88,1.88,0,0,0-.46-1.31,1.82,1.82,0,0,0-1.4-.49,2.1,2.1,0,0,0-1.33.4,1.27,1.27,0,0,0-.51,1H139a2.64,2.64,0,0,1,.58-1.62,3.82,3.82,0,0,1,1.57-1.19,5.45,5.45,0,0,1,2.21-.43,4.45,4.45,0,0,1,3,.93A3.37,3.37,0,0,1,147.4,88v4.76a5.39,5.39,0,0,0,.4,2.28v.16Zm-2.61-1.71a2.71,2.71,0,0,0,1.33-.34,2.29,2.29,0,0,0,.93-.92v-2h-1.28a3.53,3.53,0,0,0-2,.46,1.48,1.48,0,0,0-.67,1.3,1.36,1.36,0,0,0,.46,1.09A1.73,1.73,0,0,0,142.77,93.46Zm1.32-13.29h2.71l-2.71,3h-1.9Z"/><path d="M152.09,84.61l.07,1.22a3.77,3.77,0,0,1,3.07-1.42q3.3,0,3.36,3.78v7h-2.37V88.33a2.17,2.17,0,0,0-.44-1.49,1.82,1.82,0,0,0-1.42-.49,2.28,2.28,0,0,0-2.13,1.3v7.52h-2.38V84.61Z"/><path d="M163.56,95.17h-2.37V84.61h2.37Zm-.45-14.93h2.71l-2.71,3h-1.9Z"/><path d="M92.23,108.61v11.5a3.48,3.48,0,0,1-.81,2.48,3.09,3.09,0,0,1-2.36.85,4.41,4.41,0,0,1-1.26-.17V121.4a3.61,3.61,0,0,0,.84.09c.79,0,1.19-.43,1.21-1.29V108.61Zm-2.58-2.75A1.29,1.29,0,0,1,90,105a1.56,1.56,0,0,1,2,0,1.25,1.25,0,0,1,.35.91,1.21,1.21,0,0,1-.35.9,1.59,1.59,0,0,1-2,0A1.25,1.25,0,0,1,89.65,105.86Z"/><path d="M99.41,119.37A4.92,4.92,0,0,1,95.76,118a5.15,5.15,0,0,1-1.41-3.79v-.29A6.46,6.46,0,0,1,95,111a4.7,4.7,0,0,1,1.72-1.94,4.52,4.52,0,0,1,2.46-.69,4.12,4.12,0,0,1,3.33,1.38,5.8,5.8,0,0,1,1.18,3.89v1h-6.9a3.18,3.18,0,0,0,.87,2.07,2.61,2.61,0,0,0,1.93.76,3.24,3.24,0,0,0,2.66-1.31l1.27,1.22a4.24,4.24,0,0,1-1.69,1.47A5.43,5.43,0,0,1,99.41,119.37Zm-.28-9.05a2,2,0,0,0-1.58.68,3.55,3.55,0,0,0-.76,1.9h4.52v-.17a2.9,2.9,0,0,0-.64-1.8A2,2,0,0,0,99.13,110.32Z"/><path d="M105.05,113.81a6.25,6.25,0,0,1,1.13-3.92,3.63,3.63,0,0,1,3-1.48,3.44,3.44,0,0,1,2.71,1.17v-5.41h2.38v15h-2.15l-.12-1.09a3.5,3.5,0,0,1-2.84,1.29,3.62,3.62,0,0,1-3-1.5A6.53,6.53,0,0,1,105.05,113.81Zm2.37.21a4.41,4.41,0,0,0,.62,2.51,2,2,0,0,0,1.76.9,2.25,2.25,0,0,0,2.13-1.29v-4.52a2.21,2.21,0,0,0-2.11-1.27,2,2,0,0,0-1.77.92A4.86,4.86,0,0,0,107.42,114Z"/><path d="M119,108.61l.07,1.22a3.79,3.79,0,0,1,3.08-1.42q3.3,0,3.36,3.78v7h-2.38v-6.84a2.17,2.17,0,0,0-.43-1.49,1.83,1.83,0,0,0-1.42-.49,2.3,2.3,0,0,0-2.14,1.3v7.52h-2.37V108.61Z"/><path d="M127.46,113.79a6.25,6.25,0,0,1,.61-2.8,4.52,4.52,0,0,1,1.73-1.91,4.87,4.87,0,0,1,2.56-.67,4.6,4.6,0,0,1,3.47,1.38,5.39,5.39,0,0,1,1.44,3.65V114a6.28,6.28,0,0,1-.6,2.79,4.35,4.35,0,0,1-1.72,1.9,4.87,4.87,0,0,1-2.58.68,4.6,4.6,0,0,1-3.58-1.49,5.73,5.73,0,0,1-1.34-4Zm2.37.21a4.24,4.24,0,0,0,.68,2.55,2.35,2.35,0,0,0,3.74,0,4.69,4.69,0,0,0,.67-2.75,4.2,4.2,0,0,0-.69-2.54,2.2,2.2,0,0,0-1.87-.93,2.15,2.15,0,0,0-1.84.92A4.56,4.56,0,0,0,129.83,114Z"/><path d="M142.26,106v2.57h1.87v1.75h-1.87v5.9a1.3,1.3,0,0,0,.24.88,1.12,1.12,0,0,0,.86.27,4,4,0,0,0,.83-.1v1.83a5.84,5.84,0,0,1-1.56.23c-1.83,0-2.74-1-2.74-3v-6h-1.74v-1.75h1.74V106Z"/><path d="M148.47,119.17h-2.38v-15h2.38Z"/><path d="M151.05,105.86a1.29,1.29,0,0,1,.35-.91,1.31,1.31,0,0,1,1-.36,1.35,1.35,0,0,1,1,.36,1.29,1.29,0,0,1,.35.91,1.25,1.25,0,0,1-.35.9,1.38,1.38,0,0,1-1,.35,1.34,1.34,0,0,1-1-.35A1.25,1.25,0,0,1,151.05,105.86Zm2.52,13.31H151.2V108.61h2.37Z"/><path d="M159.88,116.17l2.24-7.56h2.45l-3.66,10.56h-2.06l-3.7-10.56h2.47Z"/><path d="M169.74,115.77l2.15-7.16h2.53l-4.2,12.16c-.64,1.78-1.74,2.67-3.28,2.67a4.19,4.19,0,0,1-1.14-.18v-1.84l.45,0a2.28,2.28,0,0,0,1.35-.33,2.2,2.2,0,0,0,.72-1.1l.34-.9L165,108.61h2.56Zm.81-11.6h2.7l-2.7,3h-1.91Z"/><path d="M180.13,117.47a2.16,2.16,0,0,0,1.47-.51,1.82,1.82,0,0,0,.63-1.28h2.23a3.48,3.48,0,0,1-.61,1.84,4.06,4.06,0,0,1-1.57,1.35,4.64,4.64,0,0,1-2.13.5,4.49,4.49,0,0,1-3.51-1.44,5.66,5.66,0,0,1-1.3-4v-.25a5.61,5.61,0,0,1,1.29-3.86,4.45,4.45,0,0,1,3.51-1.45,4.37,4.37,0,0,1,3.08,1.1,3.93,3.93,0,0,1,1.24,2.89h-2.23a2.19,2.19,0,0,0-.63-1.5,2,2,0,0,0-1.47-.58,2.07,2.07,0,0,0-1.78.83,4.26,4.26,0,0,0-.64,2.53v.39a4.35,4.35,0,0,0,.62,2.56A2.1,2.1,0,0,0,180.13,117.47Z"/><path d="M188.59,109.76a3.73,3.73,0,0,1,2.94-1.35c2.25,0,3.4,1.29,3.43,3.86v6.9h-2.37v-6.81a2.07,2.07,0,0,0-.48-1.55,1.94,1.94,0,0,0-1.39-.46,2.3,2.3,0,0,0-2.13,1.27v7.55h-2.37v-15h2.37Z"/><path d="M89.31,137.81a6.25,6.25,0,0,1,1.13-3.92,3.62,3.62,0,0,1,3-1.48,3.46,3.46,0,0,1,2.71,1.17v-5.41h2.37v15H96.41l-.11-1.09a3.5,3.5,0,0,1-2.84,1.29,3.62,3.62,0,0,1-3-1.5A6.53,6.53,0,0,1,89.31,137.81Zm2.37.21a4.34,4.34,0,0,0,.62,2.51,2,2,0,0,0,1.76.9,2.25,2.25,0,0,0,2.13-1.29v-4.52a2.22,2.22,0,0,0-2.11-1.27,2,2,0,0,0-1.78.92A5,5,0,0,0,91.68,138Z"/><path d="M106.57,134.77a6.07,6.07,0,0,0-1-.07,2.16,2.16,0,0,0-2.19,1.25v7.22H101V132.61h2.27l.06,1.18a2.67,2.67,0,0,1,2.38-1.38,2.23,2.23,0,0,1,.84.14Z"/><path d="M114.47,142.14a3.68,3.68,0,0,1-3,1.23,3.29,3.29,0,0,1-2.6-1,4.27,4.27,0,0,1-.88-2.91v-6.84h2.37v6.81c0,1.34.56,2,1.67,2a2.33,2.33,0,0,0,2.33-1.24v-7.58h2.38v10.56h-2.24Z"/><path d="M121.52,133.76a3.73,3.73,0,0,1,2.94-1.35c2.25,0,3.4,1.29,3.43,3.86v6.9h-2.37v-6.81a2.07,2.07,0,0,0-.48-1.55,1.94,1.94,0,0,0-1.39-.46,2.3,2.3,0,0,0-2.13,1.27v7.55h-2.37v-15h2.37Z"/><path d="M136.69,142.14a3.69,3.69,0,0,1-3,1.23,3.27,3.27,0,0,1-2.6-1,4.27,4.27,0,0,1-.89-2.91v-6.84h2.38v6.81c0,1.34.55,2,1.67,2a2.33,2.33,0,0,0,2.33-1.24v-7.58H139v10.56h-2.23Zm-2.05-14.88a2.14,2.14,0,0,1,1.53.6,1.94,1.94,0,0,1,0,2.84,2.34,2.34,0,0,1-3.11,0,1.87,1.87,0,0,1-.61-1.41,1.92,1.92,0,0,1,.62-1.43A2.13,2.13,0,0,1,134.64,127.26Zm-1.1,2a1,1,0,0,0,.33.77,1.09,1.09,0,0,0,1.86-.77,1.09,1.09,0,0,0-.31-.78,1,1,0,0,0-.78-.33,1,1,0,0,0-.79.33A1.13,1.13,0,0,0,133.54,129.29Z"/><circle class="cls-1" cx="339.46" cy="112.6" r="50.8"/><path d="M324,103.82a1.07,1.07,0,0,0-.52-1,5.66,5.66,0,0,0-1.73-.59,8.53,8.53,0,0,1-2-.64A2.69,2.69,0,0,1,318,99.13a2.83,2.83,0,0,1,1.15-2.29,4.56,4.56,0,0,1,2.93-.91,4.77,4.77,0,0,1,3.06.93,3,3,0,0,1,1.17,2.44H323.9a1.48,1.48,0,0,0-.5-1.14,2,2,0,0,0-1.35-.46,2.07,2.07,0,0,0-1.28.37,1.15,1.15,0,0,0-.49,1,1,1,0,0,0,.46.85,6.2,6.2,0,0,0,1.86.61,9.12,9.12,0,0,1,2.19.73,3.18,3.18,0,0,1,1.18,1,2.54,2.54,0,0,1,.39,1.44,2.76,2.76,0,0,1-1.19,2.31,5,5,0,0,1-3.09.88,5.52,5.52,0,0,1-2.32-.46,4,4,0,0,1-1.58-1.29,3,3,0,0,1-.56-1.77h2.3a1.65,1.65,0,0,0,.63,1.29,2.45,2.45,0,0,0,1.56.46,2.36,2.36,0,0,0,1.42-.36A1.1,1.1,0,0,0,324,103.82Z"/><path d="M330.62,96.12l.07,1.22a3.81,3.81,0,0,1,3.08-1.41q3.3,0,3.36,3.78v7h-2.38V99.84a2.19,2.19,0,0,0-.43-1.49,1.83,1.83,0,0,0-1.42-.48,2.28,2.28,0,0,0-2.14,1.3v7.52h-2.37V96.12Z"/><path d="M339.55,93.38a1.22,1.22,0,0,1,.35-.91,1.54,1.54,0,0,1,2,0,1.22,1.22,0,0,1,.35.91,1.19,1.19,0,0,1-.35.89,1.54,1.54,0,0,1-2,0A1.19,1.19,0,0,1,339.55,93.38Zm2.52,13.31H339.7V96.12h2.37Z"/><path d="M347.19,104.79h5.62v1.9h-8.57v-1.55L349.6,98h-5.27V96.12h8.28v1.51Zm1.29-11.6,1.43-1.51h2v.1l-2.72,2.72h-1.47l-2.7-2.73v-.09h2Z"/><path d="M354.27,101.31a6.22,6.22,0,0,1,.61-2.8,4.46,4.46,0,0,1,1.73-1.91,4.82,4.82,0,0,1,2.56-.67,4.65,4.65,0,0,1,3.47,1.37,5.42,5.42,0,0,1,1.44,3.66v.55a6.33,6.33,0,0,1-.6,2.8,4.41,4.41,0,0,1-1.72,1.9,4.91,4.91,0,0,1-2.58.67,4.56,4.56,0,0,1-3.58-1.49,5.66,5.66,0,0,1-1.34-4Zm2.37.2a4.28,4.28,0,0,0,.67,2.56,2.21,2.21,0,0,0,1.88.92,2.16,2.16,0,0,0,1.87-.94,4.73,4.73,0,0,0,.67-2.74,4.18,4.18,0,0,0-.69-2.54,2.33,2.33,0,0,0-3.72,0A4.68,4.68,0,0,0,356.64,101.51Z"/><path d="M369.82,103.68l2.24-7.56h2.45l-3.66,10.57h-2.06L365.1,96.12h2.46Z"/><path d="M382.3,106.69a3.89,3.89,0,0,1-.27-1,3.69,3.69,0,0,1-2.77,1.18,3.74,3.74,0,0,1-2.6-.9,2.93,2.93,0,0,1-1-2.25,3,3,0,0,1,1.26-2.59,6,6,0,0,1,3.59-.91H382v-.69a1.82,1.82,0,0,0-.46-1.31,1.8,1.8,0,0,0-1.39-.5,2.09,2.09,0,0,0-1.33.41,1.24,1.24,0,0,0-.52,1h-2.37a2.67,2.67,0,0,1,.57-1.63A3.86,3.86,0,0,1,378,96.36a5.45,5.45,0,0,1,2.21-.43,4.43,4.43,0,0,1,3,.93,3.31,3.31,0,0,1,1.13,2.62v4.77a5.47,5.47,0,0,0,.4,2.27v.17ZM379.7,105a2.7,2.7,0,0,0,1.32-.34,2.35,2.35,0,0,0,.93-.92v-2h-1.28a3.45,3.45,0,0,0-2,.46,1.48,1.48,0,0,0-.66,1.3,1.38,1.38,0,0,0,.45,1.08A1.76,1.76,0,0,0,379.7,105ZM381,91.69h2.71l-2.71,3h-1.9Z"/><path d="M389,96.12l.07,1.22a3.81,3.81,0,0,1,3.08-1.41q3.3,0,3.36,3.78v7h-2.38V99.84a2.19,2.19,0,0,0-.43-1.49,1.84,1.84,0,0,0-1.42-.48,2.28,2.28,0,0,0-2.14,1.3v7.52h-2.37V96.12Z"/><path d="M400.49,106.69h-2.38V96.12h2.38ZM400,91.76h2.7l-2.7,3h-1.91Z"/><path d="M412.51,105a2.12,2.12,0,0,0,1.47-.52,1.78,1.78,0,0,0,.63-1.28h2.23a3.45,3.45,0,0,1-.61,1.84,4.21,4.21,0,0,1-1.56,1.36,4.69,4.69,0,0,1-2.13.49,4.5,4.5,0,0,1-3.52-1.43,5.73,5.73,0,0,1-1.3-4v-.24A5.58,5.58,0,0,1,409,97.38a4.46,4.46,0,0,1,3.52-1.45A4.31,4.31,0,0,1,415.6,97a3.92,3.92,0,0,1,1.24,2.88h-2.23a2.22,2.22,0,0,0-.62-1.49,2,2,0,0,0-1.48-.59,2.09,2.09,0,0,0-1.78.84,4.17,4.17,0,0,0-.63,2.53v.38a4.26,4.26,0,0,0,.62,2.56A2.07,2.07,0,0,0,412.51,105Z"/><path d="M423.29,106.88a4.92,4.92,0,0,1-3.66-1.42,5.16,5.16,0,0,1-1.4-3.78v-.29a6.29,6.29,0,0,1,.61-2.83,4.69,4.69,0,0,1,1.71-1.94,4.58,4.58,0,0,1,2.47-.69,4.16,4.16,0,0,1,3.33,1.37,5.81,5.81,0,0,1,1.18,3.9v1h-6.91a3.18,3.18,0,0,0,.88,2.07,2.61,2.61,0,0,0,1.93.76,3.21,3.21,0,0,0,2.65-1.32l1.28,1.22a4.31,4.31,0,0,1-1.69,1.47A5.3,5.3,0,0,1,423.29,106.88Zm-.28-9a2,2,0,0,0-1.58.68,3.59,3.59,0,0,0-.77,1.91h4.52v-.18a2.89,2.89,0,0,0-.63-1.8A2,2,0,0,0,423,97.83Z"/><path d="M431.89,106.69h-2.37v-15h2.37Z"/><path d="M437.91,102.16l-1.06,1.08v3.45h-2.37v-15h2.37v8.65l.75-.93,2.92-3.29h2.85l-3.93,4.41,4.35,6.16H441Z"/><path d="M444.47,101.31a6.23,6.23,0,0,1,.62-2.8,4.44,4.44,0,0,1,1.72-1.91,4.87,4.87,0,0,1,2.56-.67,4.62,4.62,0,0,1,3.47,1.37,5.47,5.47,0,0,1,1.45,3.66v.55a6.33,6.33,0,0,1-.6,2.8,4.45,4.45,0,0,1-1.71,1.9,4.92,4.92,0,0,1-2.59.67,4.57,4.57,0,0,1-3.58-1.49,5.7,5.7,0,0,1-1.34-4Zm2.37.2a4.28,4.28,0,0,0,.68,2.56,2.19,2.19,0,0,0,1.87.92,2.15,2.15,0,0,0,1.87-.94,4.66,4.66,0,0,0,.67-2.74,4.18,4.18,0,0,0-.69-2.54,2.32,2.32,0,0,0-3.71,0A4.6,4.6,0,0,0,446.84,101.51Z"/><path d="M460,103.68l2.23-7.56h2.45l-3.66,10.57H459L455.3,96.12h2.46Z"/><path d="M470.85,106.88a4.89,4.89,0,0,1-3.66-1.42,5.16,5.16,0,0,1-1.4-3.78v-.29a6.29,6.29,0,0,1,.61-2.83,4.69,4.69,0,0,1,1.71-1.94,4.57,4.57,0,0,1,2.46-.69,4.18,4.18,0,0,1,3.34,1.37,5.86,5.86,0,0,1,1.18,3.9v1h-6.91a3.14,3.14,0,0,0,.88,2.07A2.6,2.6,0,0,0,471,105a3.21,3.21,0,0,0,2.66-1.32l1.28,1.22a4.31,4.31,0,0,1-1.69,1.47A5.3,5.3,0,0,1,470.85,106.88Zm-.29-9a2,2,0,0,0-1.57.68,3.59,3.59,0,0,0-.77,1.91h4.52v-.18a2.89,2.89,0,0,0-.63-1.8A2,2,0,0,0,470.56,97.83Zm.54-6.14h2.71l-2.71,3h-1.9Z"/><path d="M317.65,125.33a6.23,6.23,0,0,1,1.14-3.92,3.6,3.6,0,0,1,3-1.48,3.46,3.46,0,0,1,2.72,1.17v-5.41h2.37v15h-2.15l-.11-1.1a3.51,3.51,0,0,1-2.85,1.29,3.61,3.61,0,0,1-3-1.49A6.55,6.55,0,0,1,317.65,125.33Zm2.38.2a4.37,4.37,0,0,0,.62,2.52,2,2,0,0,0,1.76.9,2.24,2.24,0,0,0,2.13-1.3v-4.51a2.21,2.21,0,0,0-2.11-1.27,2.05,2.05,0,0,0-1.78.91A5,5,0,0,0,320,125.53Z"/><path d="M334.92,122.29a6,6,0,0,0-1-.08,2.17,2.17,0,0,0-2.19,1.25v7.23h-2.38V120.12h2.27l.06,1.18a2.67,2.67,0,0,1,2.38-1.37,2.25,2.25,0,0,1,.84.13Z"/><path d="M342.82,129.65a3.69,3.69,0,0,1-3,1.23,3.28,3.28,0,0,1-2.6-1,4.27,4.27,0,0,1-.88-2.91v-6.85h2.37v6.82c0,1.34.55,2,1.67,2a2.33,2.33,0,0,0,2.33-1.24v-7.59h2.38v10.57h-2.24Z"/><path d="M349.87,121.27a3.75,3.75,0,0,1,2.94-1.34c2.25,0,3.4,1.28,3.43,3.85v6.91h-2.37v-6.82a2.08,2.08,0,0,0-.48-1.55,1.94,1.94,0,0,0-1.39-.45,2.28,2.28,0,0,0-2.13,1.27v7.55H347.5v-15h2.37Z"/><path d="M358.19,125.31a6.23,6.23,0,0,1,.62-2.8,4.4,4.4,0,0,1,1.73-1.91,4.81,4.81,0,0,1,2.55-.67,4.65,4.65,0,0,1,3.48,1.37A5.52,5.52,0,0,1,368,125v.55a6.2,6.2,0,0,1-.61,2.8,4.45,4.45,0,0,1-1.71,1.9,4.92,4.92,0,0,1-2.59.67,4.57,4.57,0,0,1-3.58-1.49,5.7,5.7,0,0,1-1.34-4Zm2.37.2a4.28,4.28,0,0,0,.68,2.56,2.19,2.19,0,0,0,1.87.92,2.15,2.15,0,0,0,1.87-.94,4.66,4.66,0,0,0,.67-2.74,4.18,4.18,0,0,0-.69-2.54,2.32,2.32,0,0,0-3.71,0A4.6,4.6,0,0,0,360.56,125.51Z"/><path d="M373.75,127.68l2.23-7.56h2.46l-3.67,10.57h-2.06L369,120.12h2.46Z"/><path d="M384.57,130.88a4.9,4.9,0,0,1-3.66-1.42,5.16,5.16,0,0,1-1.4-3.78v-.29a6.29,6.29,0,0,1,.61-2.83,4.69,4.69,0,0,1,1.71-1.94,4.57,4.57,0,0,1,2.46-.69,4.17,4.17,0,0,1,3.34,1.37,5.86,5.86,0,0,1,1.18,3.9v1H381.9a3.18,3.18,0,0,0,.88,2.07,2.61,2.61,0,0,0,1.93.76,3.21,3.21,0,0,0,2.65-1.32l1.28,1.22a4.31,4.31,0,0,1-1.69,1.47A5.3,5.3,0,0,1,384.57,130.88Zm-.28-9a2,2,0,0,0-1.58.68,3.59,3.59,0,0,0-.77,1.91h4.52v-.18a2.89,2.89,0,0,0-.63-1.8A2,2,0,0,0,384.29,121.83Zm.53-6.14h2.71l-2.71,3h-1.9Z"/><path d="M404.88,125.51a6.28,6.28,0,0,1-1.11,3.91,3.87,3.87,0,0,1-5.77.32v5h-2.38V120.12h2.19l.1,1.08a3.46,3.46,0,0,1,2.84-1.27,3.59,3.59,0,0,1,3,1.44,6.47,6.47,0,0,1,1.1,4Zm-2.36-.2a4.4,4.4,0,0,0-.63-2.51,2,2,0,0,0-1.8-.93,2.18,2.18,0,0,0-2.09,1.2v4.69a2.2,2.2,0,0,0,2.11,1.23,2.07,2.07,0,0,0,1.77-.91A4.9,4.9,0,0,0,402.52,125.31Z"/><path d="M411.54,130.88a4.92,4.92,0,0,1-3.66-1.42,5.16,5.16,0,0,1-1.4-3.78v-.29a6.43,6.43,0,0,1,.61-2.83,4.64,4.64,0,0,1,1.72-1.94,4.52,4.52,0,0,1,2.46-.69,4.15,4.15,0,0,1,3.33,1.37,5.81,5.81,0,0,1,1.18,3.9v1h-6.91a3.23,3.23,0,0,0,.88,2.07,2.61,2.61,0,0,0,1.93.76,3.19,3.19,0,0,0,2.65-1.32l1.28,1.22a4.24,4.24,0,0,1-1.69,1.47A5.3,5.3,0,0,1,411.54,130.88Zm-.28-9a2,2,0,0,0-1.58.68,3.59,3.59,0,0,0-.77,1.91h4.53v-.18a3,3,0,0,0-.64-1.8A2,2,0,0,0,411.26,121.83Z"/><path d="M423.54,127.82a1.07,1.07,0,0,0-.52-1,5.66,5.66,0,0,0-1.73-.59,8.44,8.44,0,0,1-2-.64,2.69,2.69,0,0,1-1.78-2.49,2.83,2.83,0,0,1,1.15-2.29,4.58,4.58,0,0,1,2.93-.91,4.77,4.77,0,0,1,3.06.93,3,3,0,0,1,1.17,2.44h-2.37a1.45,1.45,0,0,0-.51-1.14,2,2,0,0,0-1.35-.46,2,2,0,0,0-1.27.37,1.13,1.13,0,0,0-.5,1,1,1,0,0,0,.46.85,6.31,6.31,0,0,0,1.86.61,9.12,9.12,0,0,1,2.19.73,3.18,3.18,0,0,1,1.18,1,2.54,2.54,0,0,1,.39,1.44A2.77,2.77,0,0,1,424.7,130a5,5,0,0,1-3.1.88,5.44,5.44,0,0,1-2.31-.46,4,4,0,0,1-1.59-1.29,3.12,3.12,0,0,1-.56-1.77h2.3a1.66,1.66,0,0,0,.64,1.29,2.4,2.4,0,0,0,1.55.46,2.36,2.36,0,0,0,1.42-.36A1.1,1.1,0,0,0,423.54,127.82Z"/><path d="M430.92,117.55v2.57h1.86v1.76h-1.86v5.9a1.29,1.29,0,0,0,.24.87,1.08,1.08,0,0,0,.85.27,3.42,3.42,0,0,0,.83-.1v1.84a5.81,5.81,0,0,1-1.56.22c-1.83,0-2.74-1-2.74-3v-6H426.8v-1.76h1.74v-2.57Z"/><path d="M440.12,122.29a6,6,0,0,0-1-.08,2.19,2.19,0,0,0-2.2,1.25v7.23h-2.37V120.12h2.26l.06,1.18a2.68,2.68,0,0,1,2.38-1.37,2.25,2.25,0,0,1,.84.13Z"/><path d="M441.18,125.31a6.22,6.22,0,0,1,.61-2.8,4.53,4.53,0,0,1,1.73-1.91,4.87,4.87,0,0,1,2.56-.67,4.63,4.63,0,0,1,3.47,1.37A5.42,5.42,0,0,1,451,125v.55a6.33,6.33,0,0,1-.6,2.8,4.41,4.41,0,0,1-1.72,1.9,4.86,4.86,0,0,1-2.58.67,4.57,4.57,0,0,1-3.58-1.49,5.7,5.7,0,0,1-1.34-4Zm2.37.2a4.28,4.28,0,0,0,.68,2.56,2.19,2.19,0,0,0,1.87.92,2.15,2.15,0,0,0,1.87-.94,4.66,4.66,0,0,0,.67-2.74,4.18,4.18,0,0,0-.69-2.54,2.32,2.32,0,0,0-3.71,0A4.6,4.6,0,0,0,443.55,125.51Z"/><path d="M458.93,127.82a1.07,1.07,0,0,0-.52-1,5.66,5.66,0,0,0-1.73-.59,8.44,8.44,0,0,1-2-.64,2.69,2.69,0,0,1-1.78-2.49,2.83,2.83,0,0,1,1.15-2.29,4.58,4.58,0,0,1,2.93-.91,4.77,4.77,0,0,1,3.06.93,3,3,0,0,1,1.17,2.44h-2.37a1.45,1.45,0,0,0-.51-1.14,2,2,0,0,0-1.35-.46,2,2,0,0,0-1.27.37,1.13,1.13,0,0,0-.5,1,1,1,0,0,0,.46.85,6.31,6.31,0,0,0,1.86.61,9.12,9.12,0,0,1,2.19.73,3.18,3.18,0,0,1,1.18,1,2.54,2.54,0,0,1,.39,1.44,2.77,2.77,0,0,1-1.18,2.31,5,5,0,0,1-3.1.88,5.44,5.44,0,0,1-2.31-.46,4,4,0,0,1-1.59-1.29,3.12,3.12,0,0,1-.56-1.77h2.3a1.66,1.66,0,0,0,.64,1.29,2.92,2.92,0,0,0,3,.1A1.11,1.11,0,0,0,458.93,127.82Z"/><path d="M466.31,117.55v2.57h1.86v1.76h-1.86v5.9a1.29,1.29,0,0,0,.24.87,1.1,1.1,0,0,0,.85.27,3.42,3.42,0,0,0,.83-.1v1.84a5.81,5.81,0,0,1-1.56.22c-1.82,0-2.74-1-2.74-3v-6H462.2v-1.76h1.73v-2.57Z"/><path d="M470,117.38a1.25,1.25,0,0,1,.34-.91,1.35,1.35,0,0,1,1-.36,1.31,1.31,0,0,1,1,.36,1.22,1.22,0,0,1,.35.91,1.19,1.19,0,0,1-.35.89,1.31,1.31,0,0,1-1,.36,1.35,1.35,0,0,1-1-.36A1.22,1.22,0,0,1,470,117.38Zm2.52,13.31h-2.38V120.12h2.38Z"/><circle class="cls-1" cx="568.18" cy="112.6" r="50.8"/><path d="M552.74,103.82a1.07,1.07,0,0,0-.52-1,5.56,5.56,0,0,0-1.73-.59,8.44,8.44,0,0,1-2-.64,2.69,2.69,0,0,1-1.78-2.49,2.83,2.83,0,0,1,1.15-2.29,4.58,4.58,0,0,1,2.93-.91,4.75,4.75,0,0,1,3.06.93A3,3,0,0,1,555,99.3h-2.37a1.45,1.45,0,0,0-.51-1.14,2,2,0,0,0-1.35-.46,2,2,0,0,0-1.27.37,1.13,1.13,0,0,0-.5,1,1,1,0,0,0,.46.85,6.31,6.31,0,0,0,1.86.61,9.12,9.12,0,0,1,2.19.73,3.1,3.1,0,0,1,1.18,1,2.54,2.54,0,0,1,.39,1.44A2.77,2.77,0,0,1,553.9,106a5,5,0,0,1-3.1.88,5.48,5.48,0,0,1-2.31-.46,4,4,0,0,1-1.59-1.29,3.12,3.12,0,0,1-.56-1.77h2.3a1.69,1.69,0,0,0,.64,1.29,2.42,2.42,0,0,0,1.55.46,2.39,2.39,0,0,0,1.43-.36A1.11,1.11,0,0,0,552.74,103.82Z"/><path d="M560.12,93.55v2.57H562v1.76h-1.86v5.9a1.29,1.29,0,0,0,.24.87,1.1,1.1,0,0,0,.85.27,3.42,3.42,0,0,0,.83-.1v1.84a5.81,5.81,0,0,1-1.56.22c-1.82,0-2.74-1-2.74-3v-6H556V96.12h1.73V93.55Z"/><path d="M566.35,106.69H564V96.12h2.38Zm-.45-14.93h2.7l-2.7,3H564Z"/><path d="M574.58,98.29a6,6,0,0,0-1-.08,2.17,2.17,0,0,0-2.19,1.25v7.23H569V96.12h2.27l.06,1.18a2.67,2.67,0,0,1,2.38-1.37,2.25,2.25,0,0,1,.84.13Z"/><path d="M582.39,106.69a3.89,3.89,0,0,1-.27-1,3.69,3.69,0,0,1-2.77,1.18,3.74,3.74,0,0,1-2.6-.9,2.93,2.93,0,0,1-1-2.25,3,3,0,0,1,1.26-2.59,6,6,0,0,1,3.59-.91H582v-.69a1.82,1.82,0,0,0-.46-1.31,1.8,1.8,0,0,0-1.39-.5,2.07,2.07,0,0,0-1.33.41,1.24,1.24,0,0,0-.52,1H576a2.67,2.67,0,0,1,.57-1.63,3.86,3.86,0,0,1,1.57-1.18,5.45,5.45,0,0,1,2.21-.43,4.43,4.43,0,0,1,3,.93,3.31,3.31,0,0,1,1.13,2.62v4.77a5.47,5.47,0,0,0,.4,2.27v.17Zm-2.6-1.71a2.7,2.7,0,0,0,1.32-.34,2.35,2.35,0,0,0,.93-.92v-2h-1.28a3.45,3.45,0,0,0-2,.46,1.48,1.48,0,0,0-.66,1.3,1.38,1.38,0,0,0,.45,1.08A1.76,1.76,0,0,0,579.79,105Zm1.31-13.29h2.71l-2.71,3h-1.9Z"/><path d="M589.1,96.12l.07,1.22a3.81,3.81,0,0,1,3.08-1.41q3.3,0,3.36,3.78v7h-2.38V99.84a2.19,2.19,0,0,0-.43-1.49,1.84,1.84,0,0,0-1.42-.48,2.28,2.28,0,0,0-2.14,1.3v7.52h-2.37V96.12Z"/><path d="M600.58,106.69H598.2V96.12h2.38Zm-.45-14.93h2.7l-2.7,3h-1.91Z"/><path d="M613.79,98.29a6.14,6.14,0,0,0-1-.08,2.19,2.19,0,0,0-2.2,1.25v7.23h-2.37V96.12h2.27l.06,1.18A2.67,2.67,0,0,1,613,95.93a2.25,2.25,0,0,1,.84.13Z"/><path d="M614.84,101.31a6.23,6.23,0,0,1,.62-2.8,4.46,4.46,0,0,1,1.73-1.91,4.82,4.82,0,0,1,2.56-.67,4.65,4.65,0,0,1,3.47,1.37,5.42,5.42,0,0,1,1.44,3.66v.55a6.33,6.33,0,0,1-.6,2.8,4.47,4.47,0,0,1-1.72,1.9,4.91,4.91,0,0,1-2.58.67,4.54,4.54,0,0,1-3.58-1.49,5.66,5.66,0,0,1-1.35-4Zm2.38.2a4.28,4.28,0,0,0,.67,2.56,2.2,2.2,0,0,0,1.88.92,2.16,2.16,0,0,0,1.87-.94,4.74,4.74,0,0,0,.66-2.74,4.18,4.18,0,0,0-.68-2.54,2.33,2.33,0,0,0-3.72,0A4.61,4.61,0,0,0,617.22,101.51Z"/><path d="M629.21,104.79h5.62v1.9h-8.57v-1.55l5.36-7.1h-5.26V96.12h8.27v1.51Z"/><path d="M636.29,101.33a6.29,6.29,0,0,1,1.13-3.92,3.63,3.63,0,0,1,3-1.48,3.44,3.44,0,0,1,2.71,1.17V91.69h2.38v15H643.4l-.12-1.1a3.5,3.5,0,0,1-2.84,1.29,3.58,3.58,0,0,1-3-1.49A6.49,6.49,0,0,1,636.29,101.33Zm2.37.2a4.45,4.45,0,0,0,.62,2.52,2,2,0,0,0,1.76.9,2.23,2.23,0,0,0,2.13-1.3V99.14a2.2,2.2,0,0,0-2.11-1.27,2,2,0,0,0-1.77.91A4.88,4.88,0,0,0,638.66,101.53Z"/><path d="M650.58,106.69H648.2V96.12h2.38Zm-.45-14.93h2.7l-2.7,3h-1.91Z"/><path d="M655.8,106.69h-2.37v-15h2.37Z"/><path d="M664.79,105.65a3.69,3.69,0,0,1-3,1.23,3.29,3.29,0,0,1-2.61-1,4.27,4.27,0,0,1-.88-2.91V96.12h2.37v6.82c0,1.34.56,2,1.67,2a2.35,2.35,0,0,0,2.34-1.24V96.12h2.37v10.57h-2.24Zm-2.06-14.88a2.14,2.14,0,0,1,1.54.6,1.94,1.94,0,0,1,.62,1.43,1.88,1.88,0,0,1-.61,1.42,2.36,2.36,0,0,1-3.1,0,1.88,1.88,0,0,1-.61-1.42,1.9,1.9,0,0,1,.62-1.43A2.13,2.13,0,0,1,662.73,90.77Zm-1.09,2a1.06,1.06,0,0,0,.32.78,1.09,1.09,0,0,0,.77.32,1.06,1.06,0,0,0,.78-.32,1.11,1.11,0,0,0,0-1.55A1.1,1.1,0,0,0,662,92,1,1,0,0,0,661.64,92.8Z"/><path d="M549.05,120.12l.07,1.11a3.79,3.79,0,0,1,3-1.3,2.92,2.92,0,0,1,2.9,1.62,3.75,3.75,0,0,1,3.24-1.62,3.3,3.3,0,0,1,2.6,1,4.32,4.32,0,0,1,.88,2.86v6.94h-2.38v-6.88a2.05,2.05,0,0,0-.44-1.47,1.91,1.91,0,0,0-1.45-.47,2,2,0,0,0-1.32.43,2.26,2.26,0,0,0-.72,1.14v7.25h-2.37v-7a1.7,1.7,0,0,0-1.91-1.87,2.1,2.1,0,0,0-2,1.16v7.66h-2.37V120.12Z"/><path d="M568.88,130.88a4.89,4.89,0,0,1-3.66-1.42,5.16,5.16,0,0,1-1.4-3.78v-.29a6.29,6.29,0,0,1,.61-2.83,4.69,4.69,0,0,1,1.71-1.94,4.57,4.57,0,0,1,2.46-.69,4.18,4.18,0,0,1,3.34,1.37,5.86,5.86,0,0,1,1.18,3.9v1h-6.91a3.18,3.18,0,0,0,.87,2.07A2.64,2.64,0,0,0,569,129a3.21,3.21,0,0,0,2.66-1.32l1.28,1.22a4.27,4.27,0,0,1-1.7,1.47A5.22,5.22,0,0,1,568.88,130.88Zm-.29-9a2,2,0,0,0-1.57.68,3.59,3.59,0,0,0-.77,1.91h4.52v-.18a2.89,2.89,0,0,0-.63-1.8A2,2,0,0,0,568.59,121.83Z"/><path d="M577.49,128.79h5.63v1.9h-8.58v-1.55l5.36-7.1h-5.26v-1.92h8.27v1.51Z"/><path d="M585,117.38a1.26,1.26,0,0,1,.35-.91,1.54,1.54,0,0,1,2,0,1.23,1.23,0,0,1,.36.91,1.2,1.2,0,0,1-.36.89,1.54,1.54,0,0,1-2,0A1.23,1.23,0,0,1,585,117.38Zm2.52,13.31h-2.37V120.12h2.37Z"/><path d="M600.63,122.29a6,6,0,0,0-1-.08,2.19,2.19,0,0,0-2.2,1.25v7.23H595.1V120.12h2.26l.06,1.18a2.68,2.68,0,0,1,2.38-1.37,2.25,2.25,0,0,1,.84.13Z"/><path d="M608.54,129.65a3.69,3.69,0,0,1-3,1.23,3.29,3.29,0,0,1-2.61-1,4.27,4.27,0,0,1-.88-2.91v-6.85h2.37v6.82c0,1.34.56,2,1.67,2a2.35,2.35,0,0,0,2.34-1.24v-7.59h2.37v10.57h-2.24Zm-2.06-14.88a2.14,2.14,0,0,1,1.54.6,1.94,1.94,0,0,1,.62,1.43,1.88,1.88,0,0,1-.61,1.42,2.36,2.36,0,0,1-3.1,0,1.88,1.88,0,0,1-.61-1.42,1.9,1.9,0,0,1,.62-1.43A2.13,2.13,0,0,1,606.48,114.77Zm-1.09,2a1.06,1.06,0,0,0,.32.78,1.09,1.09,0,0,0,.77.32,1.06,1.06,0,0,0,.78-.32,1.11,1.11,0,0,0,0-1.55,1.1,1.1,0,0,0-1.57,0A1,1,0,0,0,605.39,116.8Z"/><path d="M615.78,128.79h5.63v1.9h-8.58v-1.55l5.36-7.1h-5.26v-1.92h8.27v1.51Z"/><path d="M625.51,120.12l.07,1.22a3.79,3.79,0,0,1,3.07-1.41q3.3,0,3.36,3.78v7h-2.37v-6.85a2.19,2.19,0,0,0-.44-1.49,1.83,1.83,0,0,0-1.42-.48,2.29,2.29,0,0,0-2.14,1.3v7.52h-2.37V120.12Z"/><path d="M638.12,127.29l2.15-7.17h2.53l-4.2,12.17c-.64,1.78-1.73,2.67-3.28,2.67a4.19,4.19,0,0,1-1.14-.18v-1.85l.45,0a2.36,2.36,0,0,0,1.35-.32,2.25,2.25,0,0,0,.72-1.1l.34-.91-3.71-10.51h2.56Zm.81-11.6h2.7l-2.7,3H637Z"/><path d="M646.4,120.12l.06,1.11a3.81,3.81,0,0,1,3-1.3,2.92,2.92,0,0,1,2.9,1.62,3.75,3.75,0,0,1,3.24-1.62,3.32,3.32,0,0,1,2.61,1,4.27,4.27,0,0,1,.87,2.86v6.94h-2.37v-6.88a2.1,2.1,0,0,0-.44-1.47,1.94,1.94,0,0,0-1.46-.47,2,2,0,0,0-1.32.43,2.33,2.33,0,0,0-.72,1.14v7.25h-2.37v-7a1.7,1.7,0,0,0-1.91-1.87,2.1,2.1,0,0,0-2,1.16v7.66h-2.37V120.12Z"/><path d="M661.57,117.38a1.26,1.26,0,0,1,.35-.91,1.31,1.31,0,0,1,1-.36,1.35,1.35,0,0,1,1,.36,1.26,1.26,0,0,1,.35.91,1.23,1.23,0,0,1-.35.89,1.35,1.35,0,0,1-1,.36,1.31,1.31,0,0,1-1-.36A1.23,1.23,0,0,1,661.57,117.38Zm2.52,13.31h-2.37V120.12h2.37Z"/><path d="M673.89,120.12l.07,1.11a3.77,3.77,0,0,1,3-1.3,2.92,2.92,0,0,1,2.9,1.62,3.75,3.75,0,0,1,3.24-1.62,3.32,3.32,0,0,1,2.61,1,4.27,4.27,0,0,1,.87,2.86v6.94h-2.37v-6.88a2.1,2.1,0,0,0-.44-1.47,1.94,1.94,0,0,0-1.46-.47,2,2,0,0,0-1.32.43,2.33,2.33,0,0,0-.72,1.14v7.25H678v-7a1.7,1.7,0,0,0-1.91-1.87,2.1,2.1,0,0,0-2,1.16v7.66h-2.37V120.12Z"/><path d="M691.61,130.69h-2.37V120.12h2.37Zm-.45-14.93h2.71l-2.71,3h-1.9Z"/><path d="M700.23,127.82a1.07,1.07,0,0,0-.52-1,5.56,5.56,0,0,0-1.73-.59,8.44,8.44,0,0,1-2-.64,2.69,2.69,0,0,1-1.78-2.49,2.83,2.83,0,0,1,1.15-2.29,4.58,4.58,0,0,1,2.93-.91,4.75,4.75,0,0,1,3.06.93,3,3,0,0,1,1.17,2.44h-2.37a1.45,1.45,0,0,0-.51-1.14,2,2,0,0,0-1.35-.46,2,2,0,0,0-1.27.37,1.13,1.13,0,0,0-.5,1,1,1,0,0,0,.46.85,6.31,6.31,0,0,0,1.86.61,9.12,9.12,0,0,1,2.19.73,3.1,3.1,0,0,1,1.18,1,2.54,2.54,0,0,1,.39,1.44,2.77,2.77,0,0,1-1.18,2.31,5,5,0,0,1-3.1.88,5.48,5.48,0,0,1-2.31-.46,4,4,0,0,1-1.59-1.29,3.12,3.12,0,0,1-.56-1.77h2.3a1.69,1.69,0,0,0,.64,1.29,2.42,2.42,0,0,0,1.55.46,2.39,2.39,0,0,0,1.43-.36A1.11,1.11,0,0,0,700.23,127.82Z"/><path d="M707.61,117.55v2.57h1.86v1.76h-1.86v5.9a1.29,1.29,0,0,0,.24.87,1.1,1.1,0,0,0,.85.27,3.42,3.42,0,0,0,.83-.1v1.84a5.81,5.81,0,0,1-1.56.22c-1.82,0-2.74-1-2.74-3v-6H703.5v-1.76h1.73v-2.57Z"/><path d="M715,127.29l2.15-7.17h2.53l-4.2,12.17c-.65,1.78-1.74,2.67-3.28,2.67a4.08,4.08,0,0,1-1.14-.18v-1.85l.44,0a2.42,2.42,0,0,0,1.36-.32,2.17,2.17,0,0,0,.71-1.1l.35-.91-3.71-10.51h2.55Z"/><path d="M162.14,27.19h-3.85l-.6,3h-3.82L158.24,12h3.95l4.37,18.2h-3.82Zm-.73-3.51L161,21.6c-.24-1.3-.55-3.51-.73-5h-.11c-.18,1.48-.46,3.69-.72,5L159,23.68Z"/><path d="M169.73,24.91h3.8c0,1.45.73,2.08,1.9,2.08a1.6,1.6,0,0,0,1.82-1.62c0-3-7.13-3.38-7.13-8.91,0-2.79,1.95-4.81,5.31-4.81s5.38,2,5.38,5.35H177c0-1.19-.54-1.79-1.61-1.79s-1.53.52-1.53,1.35c0,2.86,7.22,3,7.22,8.84,0,3-2.1,5.17-5.72,5.17C171.92,30.57,169.73,28.57,169.73,24.91Z"/><path d="M196.93,18.2c0,3.87-2.24,6.16-6,6.16h-1.58v5.85h-3.7V12h5.28C194.69,12,196.93,14.3,196.93,18.2Zm-3.8,0c0-1.77-.78-2.68-2.26-2.68h-1.53v5.33h1.53C192.35,20.85,193.13,19.94,193.13,18.2Z"/><path d="M211.2,26.7v3.51h-9.64V12h9.38v3.51h-5.69v3.77h5.17v3.38h-5.17v4Z"/><path d="M221,23.32,220,25v5.25h-3.64V12H220v7l.94-2L223.45,12h4.21L223,20l5.41,10.24h-4.16Z"/><path d="M242.35,15.52h-3.56V30.21H235V15.52h-3.56V12h10.92Z"/><path d="M249.63,24.8,245.34,12h3.82l1.48,5c.19.6.6,2,.78,2.92h.11c.21-.89.62-2.32.83-3l1.43-5h3.82L253.32,24.8v5.41h-3.69Z"/><path d="M269.31,24.41V12h3.77v12.4c0,1.64.65,2.52,1.95,2.52s2-.88,2-2.52V12h3.77v12.4c0,3.82-2.13,6.11-5.72,6.11S269.31,28.23,269.31,24.41Z"/><path d="M297.37,24.78A5.15,5.15,0,0,1,292,30.21h-5.75V12h5.67c2.81,0,4.81,2.08,4.81,5.17a5.2,5.2,0,0,1-1.53,3.72A4.41,4.41,0,0,1,297.37,24.78ZM290,15.49v3.8h1.46c1,0,1.59-.68,1.59-1.95s-.52-1.85-1.72-1.85Zm3.62,9.26c0-1.33-.76-2-2.13-2H290v4h1.41C292.81,26.73,293.57,26.05,293.57,24.75Z"/><path d="M304.33,24.8,300,12h3.82l1.49,5c.18.6.59,2,.78,2.92h.1c.21-.89.62-2.32.83-3l1.43-5h3.82L308,24.8v5.41h-3.69Zm2.5-18.09h2.94l-2.94,3.56h-2.45Z"/><path d="M315,12h3.82l1.64,8.61c.26,1.32.57,3.56.76,5.07h.1c.18-1.51.5-3.75.75-5.07L323.7,12h3.82l-4.31,18.2h-3.9Z"/><path d="M337.66,27.19h-3.84l-.6,3H329.4L333.76,12h4l4.36,18.2h-3.82Zm-1.27-16.92H334l2.44-3.56h2.94Zm.55,13.41-.42-2.08c-.23-1.3-.55-3.51-.73-5h-.1c-.18,1.48-.47,3.69-.73,5l-.42,2.08Z"/><path d="M346.37,12H350l3.46,7.9c.44,1.15.86,2.34,1.3,3.49l.08-.08a63.44,63.44,0,0,1-.52-7.1V12H358v18.2h-3.64l-3.07-7-1.64-4.44-.07.08a75.34,75.34,0,0,1,.46,7.72v3.69h-3.64Z"/><path d="M363.79,12h3.7v18.2h-3.7Zm2.53-5.3h2.93l-2.93,3.56h-2.45Z"/><path d="M392.21,24.78a5.14,5.14,0,0,1-5.35,5.43h-5.75V12h5.67c2.81,0,4.81,2.08,4.81,5.17a5.17,5.17,0,0,1-1.54,3.72A4.39,4.39,0,0,1,392.21,24.78Zm-7.41-9.29v3.8h1.46c1,0,1.58-.68,1.58-1.95s-.52-1.85-1.71-1.85Zm3.62,9.26c0-1.33-.76-2-2.14-2H384.8v4h1.41C387.66,26.73,388.42,26.05,388.42,24.75Z"/><path d="M397,12h3.69v18.2H397Z"/><path d="M406,24.31v-6.4c0-3.9,2.21-6.21,5.9-6.21s5.91,2.31,5.91,6.21v6.4c0,3.9-2.21,6.21-5.91,6.21S406,28.21,406,24.31Zm8,0v-6.4c0-1.71-.7-2.62-2.08-2.62s-2.08.91-2.08,2.62v6.4c0,1.71.71,2.62,2.08,2.62S414,26,414,24.31Z"/><path d="M423.1,12h5c3.67,0,5.83,2.24,5.83,6v6c0,3.87-2.14,6.16-5.78,6.16h-5Zm5,14.69c1.33,0,2-.91,2-2.65V18c0-1.66-.7-2.52-2-2.52h-1.35V26.7Z"/><path d="M439.22,12h3.69v18.2h-3.69Z"/><path d="M447.2,12H451l1.64,8.61c.26,1.32.57,3.56.75,5.07h.11c.18-1.51.49-3.75.75-5.07L455.91,12h3.82l-4.31,18.2h-3.9Z"/><path d="M473.67,26.7v3.51H464V12h9.39v3.51h-5.7v3.77h5.18v3.38h-5.18v4Z"/><path d="M483.78,24.1h-1.3v6.11h-3.69V12h5.28c3.61,0,5.74,2.24,5.74,6.06,0,2.47-.91,4.29-2.52,5.25l3.44,6.89h-4Zm-1.3-3.51H484c1.3,0,2-.88,2-2.52s-.7-2.55-2-2.55h-1.54Z"/><path d="M493.79,27.74l5.77-12.22h-5.33V12h9.86v2.55L498.37,26.7h5.85v3.51H493.79Z"/><path d="M508.92,12h3.7v18.2h-3.7Z"/><path d="M528.14,15.52h-3.56V30.21h-3.8V15.52h-3.56V12h10.92Z"/><path d="M535.42,24.8,531.13,12H535l1.48,5c.18.6.6,2,.78,2.92h.11c.2-.89.62-2.32.83-3l1.43-5h3.82L539.11,24.8v5.41h-3.69Z"/></svg>