<svg id="Layer_1" data-name="Layer 1" xmlns="http://www.w3.org/2000/svg" viewBox="0 0 740 209.87"><defs><style>.cls-1{fill:#ffd166;fill-opacity:0.6;opacity:0.8;}</style></defs><path d="M172.44,11.3h3.95V24.49a6,6,0,0,1-.82,3.17,5.47,5.47,0,0,1-2.26,2.08,7.37,7.37,0,0,1-3.37.73,7.59,7.59,0,0,1-3.1-.61,4.9,4.9,0,0,1-2.2-1.84,5.62,5.62,0,0,1-.81-3.13h4a2.78,2.78,0,0,0,.31,1.28,2,2,0,0,0,.81.81,2.43,2.43,0,0,0,1.21.28,2.34,2.34,0,0,0,1.25-.31,2.08,2.08,0,0,0,.78-.94,3.79,3.79,0,0,0,.27-1.52Z"/><path d="M183.72,30.21h-4.28L186,11.3h5.15l6.52,18.91h-4.28l-4.74-14.59h-.15Zm-.26-7.43h10.12V25.9H183.46Z"/><path d="M200.69,30.21V11.3h4v8.34h.25l6.8-8.34h4.8l-7,8.47,7.1,10.44h-4.78l-5.18-7.77-2,2.4v5.37Z"/><path d="M237.89,11.3h4V23.58a6.45,6.45,0,0,1-3.73,6,10.17,10.17,0,0,1-8.23,0,6.57,6.57,0,0,1-2.74-2.41,6.65,6.65,0,0,1-1-3.62V11.3h4V23.24a3.9,3.9,0,0,0,.47,1.92A3.43,3.43,0,0,0,232,26.48a4.51,4.51,0,0,0,4.05,0,3.38,3.38,0,0,0,1.33-1.32,3.8,3.8,0,0,0,.48-1.92Z"/><path d="M246,30.21V11.3h7.57a8.64,8.64,0,0,1,3.48.62,4.42,4.42,0,0,1,2.8,4.23,4,4,0,0,1-.45,1.94,3.9,3.9,0,0,1-1.21,1.37,5.15,5.15,0,0,1-1.76.75v.19A4.28,4.28,0,0,1,260,22.58a4.59,4.59,0,0,1,.59,2.4,4.9,4.9,0,0,1-.74,2.69,5.12,5.12,0,0,1-2.19,1.86,8.47,8.47,0,0,1-3.58.68Zm4-11h3a3.4,3.4,0,0,0,1.46-.29,2.36,2.36,0,0,0,1-.82,2.21,2.21,0,0,0,.38-1.29,2.09,2.09,0,0,0-.72-1.65,3.06,3.06,0,0,0-2.06-.63h-3Zm0,7.73h3.26a3.75,3.75,0,0,0,2.44-.64,2.13,2.13,0,0,0,.77-1.71A2.48,2.48,0,0,0,255,22.26a3.68,3.68,0,0,0-1.65-.34H250Z"/><path d="M262.81,11.3h4.48l4.31,8.14h.18l4.31-8.14h4.48l-6.89,12.23v6.68h-4V23.53Zm7.47-1.83,2-4.2h3.64l-2.81,4.2Z"/><path d="M287,11.3l4.57,14.37h.17l4.58-14.37h4.44l-6.52,18.91H289L282.51,11.3Z"/><path d="M304.5,30.21h-4.28l6.53-18.91h5.15l6.52,18.91h-4.29L309.4,15.62h-.15Zm-.26-7.43h10.12V25.9H304.24Zm3.67-13.31,2-4.2h3.64l-2.82,4.2Z"/><path d="M328.28,30.21V11.3h7.57a8.64,8.64,0,0,1,3.48.62,4.39,4.39,0,0,1,2.8,4.23,4.14,4.14,0,0,1-.44,1.94,3.92,3.92,0,0,1-1.22,1.37,5.07,5.07,0,0,1-1.76.75v.19a4.31,4.31,0,0,1,2,.6,4.41,4.41,0,0,1,1.54,1.58,4.69,4.69,0,0,1,.59,2.4,4.91,4.91,0,0,1-.75,2.69,5.06,5.06,0,0,1-2.19,1.86,8.42,8.42,0,0,1-3.57.68Zm4-11h3a3.37,3.37,0,0,0,1.46-.29,2.45,2.45,0,0,0,1-.82,2.2,2.2,0,0,0,.37-1.29,2.09,2.09,0,0,0-.72-1.65,3,3,0,0,0-2.06-.63h-3Zm0,7.73h3.26A3.74,3.74,0,0,0,338,26.3a2.13,2.13,0,0,0,.77-1.71,2.49,2.49,0,0,0-1.45-2.33,3.73,3.73,0,0,0-1.66-.34h-3.35Z"/><path d="M350.24,11.3V30.21h-4V11.3Z"/><path d="M371.69,20.76A11,11,0,0,1,370.52,26a8.17,8.17,0,0,1-3.17,3.31,9.49,9.49,0,0,1-9,0A8.14,8.14,0,0,1,355.15,26,11,11,0,0,1,354,20.76a11,11,0,0,1,1.17-5.27,8.14,8.14,0,0,1,3.16-3.31,9.53,9.53,0,0,1,9,0,8.17,8.17,0,0,1,3.17,3.31A11,11,0,0,1,371.69,20.76Zm-4.05,0a8.41,8.41,0,0,0-.6-3.38,4.33,4.33,0,0,0-4.2-2.8,4.52,4.52,0,0,0-2.53.71,4.6,4.6,0,0,0-1.68,2.09,8.42,8.42,0,0,0-.59,3.38,8.41,8.41,0,0,0,.59,3.37,4.6,4.6,0,0,0,1.68,2.09,4.86,4.86,0,0,0,5.06,0A4.59,4.59,0,0,0,367,24.13,8.4,8.4,0,0,0,367.64,20.76Z"/><path d="M382.13,30.21h-6.7V11.3h6.75a10.13,10.13,0,0,1,4.92,1.13,7.76,7.76,0,0,1,3.17,3.25,10.74,10.74,0,0,1,1.11,5.06,10.85,10.85,0,0,1-1.11,5.08,7.69,7.69,0,0,1-3.19,3.25A10.11,10.11,0,0,1,382.13,30.21Zm-2.71-3.43H382a6.45,6.45,0,0,0,3-.63,4.07,4.07,0,0,0,1.83-2,8.3,8.3,0,0,0,.61-3.45,8.23,8.23,0,0,0-.61-3.43,4,4,0,0,0-1.83-2,6.51,6.51,0,0,0-3-.62h-2.55Z"/><path d="M399.11,11.3V30.21h-4V11.3Z"/><path d="M406.6,11.3l4.57,14.37h.18l4.58-14.37h4.43l-6.52,18.91h-5.15L402.16,11.3Z"/><path d="M423.41,30.21V11.3h12.74v3.3h-8.74v4.5h8.09v3.3h-8.09v4.51h8.78v3.3Z"/><path d="M440.12,30.21V11.3h7.46a8,8,0,0,1,3.66.76,5.44,5.44,0,0,1,2.32,2.15,6.49,6.49,0,0,1,.8,3.27,6.17,6.17,0,0,1-.81,3.23,5.36,5.36,0,0,1-2.35,2.08,8.75,8.75,0,0,1-3.72.72h-5V20.29h4.35a4.93,4.93,0,0,0,1.9-.31,2.28,2.28,0,0,0,1.14-.94,3.1,3.1,0,0,0,.37-1.56,3.22,3.22,0,0,0-.37-1.59,2.35,2.35,0,0,0-1.14-1,4.68,4.68,0,0,0-1.92-.34h-2.69V30.21Zm10.21-8.61,4.7,8.61h-4.41L446,21.6Z"/><path d="M457.76,30.21V27.84l9.43-13.24h-9.45V11.3h14.48v2.37l-9.45,13.24h9.47v3.3Z"/><path d="M480.08,11.3V30.21h-4V11.3Z"/><path d="M483.43,14.6V11.3H499v3.3h-5.79V30.21h-4V14.6Z"/><path d="M501.2,11.3h4.48L510,19.44h.19l4.31-8.14H519l-6.9,12.23v6.68h-4V23.53Z"/><circle class="cls-1" cx="116.54" cy="121.82" r="55"/><path d="M106,88.58l4.46,13h.18l4.45-13h2.61l-5.76,16h-2.79l-5.76-16Z"/><path d="M121.29,109.05a5.44,5.44,0,0,1-1-.08,2.87,2.87,0,0,1-.64-.18l.56-1.91a2.7,2.7,0,0,0,1.61,0c.44-.15.8-.61,1.1-1.39l.29-.79-4.39-12.16h2.5l3,9.31h.12l3-9.31,2.53,0-5,13.57a5.36,5.36,0,0,1-.88,1.57,3.43,3.43,0,0,1-1.27,1A4.09,4.09,0,0,1,121.29,109.05Z"/><path d="M132.29,104.58v-12h2.24v2h.15A3.15,3.15,0,0,1,135.91,93a3.66,3.66,0,0,1,2-.55,3.46,3.46,0,0,1,2,.56,3.31,3.31,0,0,1,1.2,1.54h.13A3.37,3.37,0,0,1,142.67,93a4.2,4.2,0,0,1,2.23-.57,3.64,3.64,0,0,1,2.67,1,4.15,4.15,0,0,1,1,3.08v8h-2.33V96.75A2.13,2.13,0,0,0,145.6,95a2.38,2.38,0,0,0-1.58-.55,2.28,2.28,0,0,0-1.78.7,2.57,2.57,0,0,0-.63,1.79v7.65h-2.33v-8a2.09,2.09,0,0,0-.61-1.58,2.18,2.18,0,0,0-1.58-.59,2.25,2.25,0,0,0-1.22.35,2.45,2.45,0,0,0-.9,1,2.91,2.91,0,0,0-.34,1.43v7.4Z"/><path d="M151.73,104.58v-12h2.33v12ZM152,91l1.82-3.6h2.47L153.81,91Z"/><path d="M157.2,104.58v-12h2.26v1.91h.13A2.87,2.87,0,0,1,160.75,93a3.3,3.3,0,0,1,1.88-.56l.52,0,.48,0v2.23l-.5-.09a5.81,5.81,0,0,0-.72,0,3.08,3.08,0,0,0-1.48.35,2.66,2.66,0,0,0-1,1,2.61,2.61,0,0,0-.38,1.39v7.33Z"/><path d="M169.15,104.85a4.75,4.75,0,0,1-2.06-.43,3.34,3.34,0,0,1-1.46-1.24,3.5,3.5,0,0,1-.54-2,3.23,3.23,0,0,1,.39-1.67,3,3,0,0,1,1.06-1A5.71,5.71,0,0,1,168,97.9a13.4,13.4,0,0,1,1.68-.29l1.75-.21a2.72,2.72,0,0,0,1-.27.66.66,0,0,0,.31-.61v-.06a2.08,2.08,0,0,0-.58-1.58,2.31,2.31,0,0,0-1.7-.56,3,3,0,0,0-1.86.52,2.76,2.76,0,0,0-.93,1.15l-2.2-.5a4.16,4.16,0,0,1,1.15-1.77,4.74,4.74,0,0,1,1.73-1,7.1,7.1,0,0,1,2.07-.3,7.66,7.66,0,0,1,1.53.16,4.69,4.69,0,0,1,1.52.62,3.41,3.41,0,0,1,1.16,1.27,4.43,4.43,0,0,1,.45,2.13v8h-2.28v-1.64h-.09a3.58,3.58,0,0,1-.68.89,3.65,3.65,0,0,1-1.17.73A4.54,4.54,0,0,1,169.15,104.85Zm.51-1.88a3.45,3.45,0,0,0,1.66-.38,2.74,2.74,0,0,0,1.05-1,2.64,2.64,0,0,0,.36-1.34V98.71a1.18,1.18,0,0,1-.48.23,6.41,6.41,0,0,1-.8.18l-.89.13-.72.1a5,5,0,0,0-1.23.29,2,2,0,0,0-.89.58,1.43,1.43,0,0,0-.34,1,1.5,1.5,0,0,0,.64,1.31A2.86,2.86,0,0,0,169.66,103Z"/><path d="M178.18,92.58h2.34v12.77a4.39,4.39,0,0,1-.44,2,2.91,2.91,0,0,1-1.29,1.26,4.42,4.42,0,0,1-2.1.42h-.46v-2h.38a1.48,1.48,0,0,0,1.2-.45,1.92,1.92,0,0,0,.37-1.28Zm1.16-1.85a1.49,1.49,0,0,1-1.05-.41,1.29,1.29,0,0,1-.43-1,1.31,1.31,0,0,1,.43-1,1.54,1.54,0,0,1,2.09,0,1.31,1.31,0,0,1,.43,1,1.29,1.29,0,0,1-.43,1A1.48,1.48,0,0,1,179.34,90.73Z"/><path d="M183.66,104.58v-12H186v12Zm.22-13.6,1.82-3.6h2.46L185.74,91Z"/><path d="M104.42,117h2.33v12.76a4.39,4.39,0,0,1-.43,2A2.93,2.93,0,0,1,105,133.1a4.58,4.58,0,0,1-2.1.41h-.46v-2h.38a1.51,1.51,0,0,0,1.2-.44,2,2,0,0,0,.37-1.28Zm1.15-1.86a1.44,1.44,0,0,1-1-.41,1.33,1.33,0,0,1,0-2,1.54,1.54,0,0,1,2.09,0,1.33,1.33,0,0,1,0,2A1.45,1.45,0,0,1,105.57,115.17Z"/><path d="M115.07,129.27a5.9,5.9,0,0,1-3-.76,5.06,5.06,0,0,1-2-2.15,7.92,7.92,0,0,1,0-6.51,5.16,5.16,0,0,1,4.85-3,6,6,0,0,1,2,.33,4.77,4.77,0,0,1,1.71,1.06,5,5,0,0,1,1.2,1.86,7.88,7.88,0,0,1,.43,2.78v.83h-9.53V122h7.25a3.48,3.48,0,0,0-.38-1.64,2.86,2.86,0,0,0-1-1.13,3,3,0,0,0-1.58-.41,3.07,3.07,0,0,0-1.72.48,3.29,3.29,0,0,0-1.12,1.25,3.52,3.52,0,0,0-.4,1.67v1.36a4.41,4.41,0,0,0,.43,2,3,3,0,0,0,1.19,1.29,3.57,3.57,0,0,0,1.79.44,3.88,3.88,0,0,0,1.21-.19,2.65,2.65,0,0,0,1-.58,2.53,2.53,0,0,0,.6-.94l2.22.4a4.09,4.09,0,0,1-.95,1.7,4.53,4.53,0,0,1-1.71,1.13A6.38,6.38,0,0,1,115.07,129.27Z"/><path d="M127.31,129.26a4.58,4.58,0,0,1-2.59-.75,4.89,4.89,0,0,1-1.78-2.13,8.85,8.85,0,0,1,0-6.66,5,5,0,0,1,1.8-2.12,4.65,4.65,0,0,1,2.58-.73,3.71,3.71,0,0,1,1.8.37,3.51,3.51,0,0,1,1.07.86,7.93,7.93,0,0,1,.59.87h.14V113h2.33v16H131v-1.87h-.19a7.14,7.14,0,0,1-.61.87,3.29,3.29,0,0,1-1.08.86A3.7,3.7,0,0,1,127.31,129.26Zm.51-2a2.73,2.73,0,0,0,1.71-.54,3.2,3.2,0,0,0,1.06-1.49A6.2,6.2,0,0,0,131,123a6.05,6.05,0,0,0-.36-2.19,3.23,3.23,0,0,0-1.06-1.46,2.77,2.77,0,0,0-1.72-.53,2.82,2.82,0,0,0-1.76.55,3.34,3.34,0,0,0-1,1.49,6,6,0,0,0-.36,2.14,6.12,6.12,0,0,0,.36,2.16,3.34,3.34,0,0,0,1.07,1.52A2.73,2.73,0,0,0,127.82,127.27Z"/><path d="M138.92,121.9V129h-2.34V117h2.24v2H139a3.4,3.4,0,0,1,1.3-1.53,4,4,0,0,1,2.24-.58,4.38,4.38,0,0,1,2.15.51,3.51,3.51,0,0,1,1.43,1.52,5.47,5.47,0,0,1,.51,2.49V129h-2.34v-7.36a2.9,2.9,0,0,0-.68-2,2.42,2.42,0,0,0-1.87-.74,3,3,0,0,0-1.44.35,2.52,2.52,0,0,0-1,1A3.44,3.44,0,0,0,138.92,121.9Z"/><path d="M154.77,129.27a5.47,5.47,0,0,1-2.94-.78,5.11,5.11,0,0,1-2-2.16,7.1,7.1,0,0,1-.7-3.25,7.22,7.22,0,0,1,.7-3.27,5.2,5.2,0,0,1,2-2.17,6,6,0,0,1,5.89,0,5.2,5.2,0,0,1,1.95,2.17,7.22,7.22,0,0,1,.7,3.27,7.1,7.1,0,0,1-.7,3.25,5.11,5.11,0,0,1-1.95,2.16A5.48,5.48,0,0,1,154.77,129.27Zm0-2a2.85,2.85,0,0,0,1.82-.58,3.49,3.49,0,0,0,1.06-1.54,6.57,6.57,0,0,0,0-4.23,3.53,3.53,0,0,0-1.06-1.55,3.1,3.1,0,0,0-3.64,0,3.46,3.46,0,0,0-1.07,1.55,6.57,6.57,0,0,0,0,4.23,3.43,3.43,0,0,0,1.07,1.54A2.85,2.85,0,0,0,154.78,127.31Z"/><path d="M168.57,117v1.87H162V117Zm-4.8-2.88h2.34V125.5a2.11,2.11,0,0,0,.2,1,1,1,0,0,0,.53.46,2,2,0,0,0,.71.12,2.43,2.43,0,0,0,.49,0l.33-.06.42,1.93a4.66,4.66,0,0,1-3.23-.08,2.85,2.85,0,0,1-1.29-1.06,3.11,3.11,0,0,1-.5-1.8Z"/><path d="M173.48,113v16h-2.33V113Z"/><path d="M177.81,115.17a1.45,1.45,0,0,1-1.05-.41,1.33,1.33,0,0,1,0-2,1.54,1.54,0,0,1,2.09,0,1.33,1.33,0,0,1,0,2A1.44,1.44,0,0,1,177.81,115.17ZM176.63,129V117H179v12Z"/><path d="M192.37,117,188,129h-2.5l-4.36-12h2.5l3,9.23h.13l3-9.23Z"/><path d="M199.73,129.27a5.92,5.92,0,0,1-3-.76,5.19,5.19,0,0,1-2-2.15,8,8,0,0,1,0-6.51,5.37,5.37,0,0,1,1.94-2.19,5.3,5.3,0,0,1,2.92-.79,6,6,0,0,1,2,.33,4.94,4.94,0,0,1,1.71,1.06,5,5,0,0,1,1.19,1.86,7.65,7.65,0,0,1,.44,2.78v.83h-9.54V122h7.25a3.48,3.48,0,0,0-.37-1.64,2.86,2.86,0,0,0-1.05-1.13,3,3,0,0,0-1.58-.41,3.07,3.07,0,0,0-1.72.48,3.21,3.21,0,0,0-1.12,1.25,3.52,3.52,0,0,0-.4,1.67v1.36a4.41,4.41,0,0,0,.43,2A3,3,0,0,0,198,126.9a3.54,3.54,0,0,0,1.79.44,3.88,3.88,0,0,0,1.21-.19,2.52,2.52,0,0,0,.94-.58,2.43,2.43,0,0,0,.61-.94l2.21.4a3.88,3.88,0,0,1-.95,1.7,4.38,4.38,0,0,1-1.71,1.13A6.3,6.3,0,0,1,199.73,129.27Zm-1.21-13.85,1.82-3.6h2.46l-2.42,3.6Z"/><path d="M108.91,153.7a4.67,4.67,0,0,1-2.59-.74,5,5,0,0,1-1.78-2.14,7.82,7.82,0,0,1-.65-3.33,7.73,7.73,0,0,1,.66-3.33,4.91,4.91,0,0,1,1.79-2.11,4.67,4.67,0,0,1,2.59-.74,3.88,3.88,0,0,1,1.8.37,3.35,3.35,0,0,1,1.06.87,7.92,7.92,0,0,1,.59.86h.14v-5.94h2.33v16h-2.28V151.6h-.19a5.67,5.67,0,0,1-.61.88,3.42,3.42,0,0,1-1.08.86A3.83,3.83,0,0,1,108.91,153.7Zm.52-2a2.74,2.74,0,0,0,1.7-.53,3.3,3.3,0,0,0,1.06-1.49,6.84,6.84,0,0,0,0-4.41,3.21,3.21,0,0,0-1.06-1.46,2.74,2.74,0,0,0-1.71-.52,2.8,2.8,0,0,0-1.76.54,3.39,3.39,0,0,0-1.06,1.5,6,6,0,0,0-.36,2.13,6.12,6.12,0,0,0,.36,2.16,3.41,3.41,0,0,0,1.07,1.52A2.68,2.68,0,0,0,109.43,151.71Z"/><path d="M118.18,153.47v-12h2.26v1.91h.12a2.92,2.92,0,0,1,1.16-1.53,3.36,3.36,0,0,1,1.89-.56l.52,0,.47,0v2.24a3.09,3.09,0,0,0-.5-.09,5.78,5.78,0,0,0-.71-.05,3,3,0,0,0-1.48.35,2.59,2.59,0,0,0-1.39,2.35v7.33Z"/><path d="M134.24,148.49v-7h2.34v12h-2.3v-2.08h-.12a3.79,3.79,0,0,1-1.33,1.6,3.87,3.87,0,0,1-2.26.64,4,4,0,0,1-2-.52,3.43,3.43,0,0,1-1.39-1.52,5.47,5.47,0,0,1-.5-2.49v-7.63H129v7.35a2.74,2.74,0,0,0,.68,2,2.29,2.29,0,0,0,1.77.73,2.85,2.85,0,0,0,1.3-.33,2.79,2.79,0,0,0,1.09-1A3,3,0,0,0,134.24,148.49Z"/><path d="M142.05,146.34v7.13h-2.34v-16H142v5.95h.15a3.51,3.51,0,0,1,1.28-1.54,4.08,4.08,0,0,1,2.27-.57,4.42,4.42,0,0,1,2.16.51,3.45,3.45,0,0,1,1.44,1.51,5.53,5.53,0,0,1,.51,2.51v7.63h-2.34v-7.35a2.85,2.85,0,0,0-.68-2.05,2.43,2.43,0,0,0-1.89-.73,3,3,0,0,0-1.48.35,2.53,2.53,0,0,0-1,1A3.29,3.29,0,0,0,142.05,146.34Z"/><path d="M154.43,157.94a5.44,5.44,0,0,1-1-.08,3.54,3.54,0,0,1-.64-.18l.56-1.91a2.78,2.78,0,0,0,1.61,0c.44-.15.8-.61,1.1-1.39l.29-.79L152,141.47h2.5l3,9.31h.12l3-9.31,2.53,0-5,13.58a5.25,5.25,0,0,1-.87,1.57,3.43,3.43,0,0,1-1.27,1A4.09,4.09,0,0,1,154.43,157.94Z"/><circle class="cls-1" cx="351.49" cy="121.82" r="55"/><path d="M347.82,92.78a2.26,2.26,0,0,0-1-1.72,4,4,0,0,0-2.28-.61,4.23,4.23,0,0,0-1.7.31,2.53,2.53,0,0,0-1.11.84,2,2,0,0,0-.4,1.22,1.76,1.76,0,0,0,.27,1,2.23,2.23,0,0,0,.71.69,4.63,4.63,0,0,0,1,.46c.34.12.66.22,1,.3l1.56.41a10.59,10.59,0,0,1,1.57.51,6.08,6.08,0,0,1,1.49.84,4.14,4.14,0,0,1,1.12,1.3,3.8,3.8,0,0,1,.42,1.85,4.21,4.21,0,0,1-.7,2.41,4.68,4.68,0,0,1-2,1.67,8.73,8.73,0,0,1-6.31,0,4.71,4.71,0,0,1-2-1.63,4.59,4.59,0,0,1-.82-2.49h2.42a2.38,2.38,0,0,0,.56,1.44,3,3,0,0,0,1.28.85,4.85,4.85,0,0,0,1.7.28,4.78,4.78,0,0,0,1.83-.33,3,3,0,0,0,1.26-.9,2.11,2.11,0,0,0,.46-1.36,1.68,1.68,0,0,0-.4-1.17,3.1,3.1,0,0,0-1.09-.75A10.26,10.26,0,0,0,345,97.7l-1.89-.52a7.25,7.25,0,0,1-3-1.54A3.43,3.43,0,0,1,338.89,93a4,4,0,0,1,.75-2.42,4.89,4.89,0,0,1,2-1.6,7.5,7.5,0,0,1,5.76,0,4.8,4.8,0,0,1,2,1.57,3.94,3.94,0,0,1,.75,2.28Z"/><path d="M355.4,97.46v7.12h-2.33v-12h2.24v2h.15a3.44,3.44,0,0,1,1.3-1.53,4,4,0,0,1,2.24-.58,4.35,4.35,0,0,1,2.14.52,3.4,3.4,0,0,1,1.43,1.52,5.47,5.47,0,0,1,.51,2.49v7.63h-2.33V97.23a2.9,2.9,0,0,0-.68-2,2.4,2.4,0,0,0-1.87-.74,3,3,0,0,0-1.44.35,2.46,2.46,0,0,0-1,1A3.3,3.3,0,0,0,355.4,97.46Z"/><path d="M367.39,90.73a1.49,1.49,0,0,1-1.05-.41,1.34,1.34,0,0,1,0-2,1.54,1.54,0,0,1,2.09,0,1.34,1.34,0,0,1,0,2A1.48,1.48,0,0,1,367.39,90.73Zm-1.18,13.85v-12h2.33v12Z"/><path d="M371.43,104.58V103l6.5-8.26v-.11h-6.29v-2h9.21v1.7l-6.25,8.16v.11h6.47v2Zm3.13-16.87,1.61,2.1,1.6-2.1h2.12v.12l-2.75,3.31h-1.95l-2.74-3.31v-.12Z"/><path d="M391.42,99.6v-7h2.34v12h-2.3V102.5h-.12a3.73,3.73,0,0,1-1.33,1.6,3.79,3.79,0,0,1-2.26.64,4,4,0,0,1-2-.51,3.54,3.54,0,0,1-1.39-1.52,5.54,5.54,0,0,1-.51-2.5V92.58h2.34v7.35a2.78,2.78,0,0,0,.68,2,2.31,2.31,0,0,0,1.77.72,2.85,2.85,0,0,0,1.3-.33,2.72,2.72,0,0,0,1.09-1A3,3,0,0,0,391.42,99.6Z"/><path d="M396.89,92.58h2.34v12.77a4.39,4.39,0,0,1-.44,2,2.94,2.94,0,0,1-1.28,1.26,4.62,4.62,0,0,1-2.11.42H395v-2h.37a1.48,1.48,0,0,0,1.2-.45,1.92,1.92,0,0,0,.37-1.28Zm1.16-1.85a1.45,1.45,0,0,1-1-.41,1.32,1.32,0,0,1,0-2,1.45,1.45,0,0,1,1-.41,1.48,1.48,0,0,1,1,.41,1.34,1.34,0,0,1,0,2A1.48,1.48,0,0,1,398.05,90.73Z"/><path d="M407.54,104.82a5.83,5.83,0,0,1-3.05-.76,5.07,5.07,0,0,1-2-2.15,7.21,7.21,0,0,1-.69-3.25,7.29,7.29,0,0,1,.69-3.25,5.18,5.18,0,0,1,4.86-3,6,6,0,0,1,2,.34,4.76,4.76,0,0,1,2.9,2.92,7.83,7.83,0,0,1,.44,2.78v.82h-9.54V97.53h7.25A3.44,3.44,0,0,0,410,95.9a2.79,2.79,0,0,0-1-1.13,2.91,2.91,0,0,0-1.58-.42,3,3,0,0,0-1.71.48,3.23,3.23,0,0,0-1.13,1.25,3.66,3.66,0,0,0-.39,1.67v1.37a4.6,4.6,0,0,0,.42,2,3,3,0,0,0,1.19,1.28,3.47,3.47,0,0,0,1.79.44,3.53,3.53,0,0,0,1.21-.19,2.68,2.68,0,0,0,1-.57,2.47,2.47,0,0,0,.61-.95l2.21.4a4,4,0,0,1-1,1.71,4.57,4.57,0,0,1-1.71,1.13A6.34,6.34,0,0,1,407.54,104.82Z"/><path d="M430.11,95.51l-2.12.38a2.58,2.58,0,0,0-.42-.78,2.2,2.2,0,0,0-.76-.6,2.77,2.77,0,0,0-1.22-.23,2.86,2.86,0,0,0-1.65.44,1.3,1.3,0,0,0-.67,1.13,1.17,1.17,0,0,0,.45,1,3.43,3.43,0,0,0,1.44.6l1.9.44A5.14,5.14,0,0,1,429.53,99a2.77,2.77,0,0,1,.81,2.07,3.11,3.11,0,0,1-.62,1.92,4.13,4.13,0,0,1-1.72,1.32,6.57,6.57,0,0,1-2.56.47,5.78,5.78,0,0,1-3.29-.86,3.6,3.6,0,0,1-1.56-2.46l2.25-.34a2.13,2.13,0,0,0,.87,1.33,3,3,0,0,0,1.71.45,3.16,3.16,0,0,0,1.84-.48,1.4,1.4,0,0,0,.69-1.18,1.22,1.22,0,0,0-.42-.94,2.78,2.78,0,0,0-1.28-.58l-2-.44a4.93,4.93,0,0,1-2.48-1.22,2.93,2.93,0,0,1-.8-2.12,3.06,3.06,0,0,1,.59-1.86,4,4,0,0,1,1.64-1.25,6,6,0,0,1,2.4-.45,5,5,0,0,1,3.06.84A3.93,3.93,0,0,1,430.11,95.51Z"/><path d="M438.08,104.82a5.83,5.83,0,0,1-3.05-.76,5.07,5.07,0,0,1-2-2.15,7.21,7.21,0,0,1-.69-3.25,7.29,7.29,0,0,1,.69-3.25,5.17,5.17,0,0,1,4.85-3,6,6,0,0,1,2,.34,4.77,4.77,0,0,1,1.71,1.06,4.83,4.83,0,0,1,1.2,1.86,7.83,7.83,0,0,1,.44,2.78v.82h-9.54V97.53h7.25a3.44,3.44,0,0,0-.38-1.63,2.79,2.79,0,0,0-1.05-1.13,2.94,2.94,0,0,0-1.58-.42,3,3,0,0,0-1.71.48,3.23,3.23,0,0,0-1.13,1.25,3.66,3.66,0,0,0-.39,1.67v1.37a4.6,4.6,0,0,0,.42,2,3,3,0,0,0,1.19,1.28,3.47,3.47,0,0,0,1.79.44,3.57,3.57,0,0,0,1.21-.19,2.68,2.68,0,0,0,.95-.57,2.59,2.59,0,0,0,.61-.95l2.21.4a4.12,4.12,0,0,1-.95,1.71,4.65,4.65,0,0,1-1.71,1.13A6.38,6.38,0,0,1,438.08,104.82Z"/><path d="M344,129.27a5.48,5.48,0,0,1-3-.8,5.14,5.14,0,0,1-1.93-2.19,7.41,7.41,0,0,1-.67-3.2,7.21,7.21,0,0,1,.69-3.23,5.17,5.17,0,0,1,1.94-2.19,5.34,5.34,0,0,1,2.94-.79,5.75,5.75,0,0,1,2.44.5,4.53,4.53,0,0,1,1.73,1.41,4.25,4.25,0,0,1,.78,2.12h-2.27a2.7,2.7,0,0,0-.85-1.45,2.56,2.56,0,0,0-1.79-.61,2.92,2.92,0,0,0-1.71.51,3.33,3.33,0,0,0-1.13,1.45,5.6,5.6,0,0,0-.41,2.22,5.79,5.79,0,0,0,.4,2.27,3.28,3.28,0,0,0,1.13,1.48,2.92,2.92,0,0,0,1.72.52,2.82,2.82,0,0,0,1.21-.25,2.5,2.5,0,0,0,.91-.7,2.72,2.72,0,0,0,.52-1.11h2.27a4.28,4.28,0,0,1-2.44,3.51A5.55,5.55,0,0,1,344,129.27Z"/><path d="M356.57,129.27a5.85,5.85,0,0,1-3.05-.77,5,5,0,0,1-2-2.14,7.92,7.92,0,0,1,0-6.51,5.22,5.22,0,0,1,1.93-2.19,5.32,5.32,0,0,1,2.92-.79,6,6,0,0,1,2,.33,4.94,4.94,0,0,1,1.71,1.06,5,5,0,0,1,1.2,1.86,7.88,7.88,0,0,1,.43,2.78v.83h-9.54V122h7.25a3.48,3.48,0,0,0-.37-1.64,2.86,2.86,0,0,0-1.05-1.13,3,3,0,0,0-1.58-.41,3.07,3.07,0,0,0-1.72.48,3.21,3.21,0,0,0-1.12,1.25,3.52,3.52,0,0,0-.4,1.67v1.36a4.41,4.41,0,0,0,.43,2,3,3,0,0,0,1.19,1.29,3.57,3.57,0,0,0,1.79.44,3.88,3.88,0,0,0,1.21-.19,2.52,2.52,0,0,0,.94-.58,2.43,2.43,0,0,0,.61-.94l2.21.39a3.94,3.94,0,0,1-.94,1.71,4.49,4.49,0,0,1-1.72,1.13A6.3,6.3,0,0,1,356.57,129.27Z"/><path d="M366.66,113v16h-2.34V113Z"/><path d="M369.8,129V113h2.34v16ZM372,125l0-2.85h.41l4.78-5.08h2.8l-5.46,5.79h-.36Zm5.43,4.07-4.3-5.7,1.61-1.63,5.56,7.33Z"/><path d="M387.1,129.27a5.48,5.48,0,0,1-3-.78,5.11,5.11,0,0,1-1.95-2.16,7.1,7.1,0,0,1-.7-3.25,7.19,7.19,0,0,1,.7-3.27,5.2,5.2,0,0,1,1.95-2.17,6,6,0,0,1,5.89,0,5.2,5.2,0,0,1,1.95,2.17,7.19,7.19,0,0,1,.7,3.27,7.1,7.1,0,0,1-.7,3.25,5.11,5.11,0,0,1-1.95,2.16A5.47,5.47,0,0,1,387.1,129.27Zm0-2a2.85,2.85,0,0,0,1.82-.58,3.49,3.49,0,0,0,1.06-1.54,6.57,6.57,0,0,0,0-4.23,3.53,3.53,0,0,0-1.06-1.55,3.1,3.1,0,0,0-3.64,0,3.46,3.46,0,0,0-1.07,1.55,6.57,6.57,0,0,0,0,4.23,3.43,3.43,0,0,0,1.07,1.54A2.85,2.85,0,0,0,387.1,127.31Z"/><path d="M405.56,117l-4.35,12h-2.5l-4.36-12h2.5l3,9.24H400l3-9.24Z"/><path d="M411.24,129.29a4.78,4.78,0,0,1-2.06-.43,3.44,3.44,0,0,1-1.46-1.23,3.64,3.64,0,0,1-.53-2,3.25,3.25,0,0,1,.39-1.67,2.91,2.91,0,0,1,1.05-1,6.16,6.16,0,0,1,1.49-.58,15.33,15.33,0,0,1,1.67-.29l1.75-.21a2.41,2.41,0,0,0,1-.27.66.66,0,0,0,.3-.61v0a2.15,2.15,0,0,0-.57-1.59,2.38,2.38,0,0,0-1.71-.56,3,3,0,0,0-1.86.52,2.76,2.76,0,0,0-.93,1.15l-2.19-.5a4.24,4.24,0,0,1,1.14-1.77,4.54,4.54,0,0,1,1.74-1,6.74,6.74,0,0,1,2.07-.31A7,7,0,0,1,414,117a4.41,4.41,0,0,1,1.51.61,3.41,3.41,0,0,1,1.16,1.27,4.44,4.44,0,0,1,.46,2.14v8h-2.29v-1.64h-.09a3.2,3.2,0,0,1-.68.89A3.44,3.44,0,0,1,413,129,4.63,4.63,0,0,1,411.24,129.29Zm.51-1.88a3.31,3.31,0,0,0,1.66-.38,2.77,2.77,0,0,0,1.06-1,2.63,2.63,0,0,0,.36-1.33v-1.55a1.18,1.18,0,0,1-.48.23,7,7,0,0,1-.81.18l-.88.13-.72.1a5.64,5.64,0,0,0-1.24.29,2.09,2.09,0,0,0-.89.58,1.67,1.67,0,0,0,.31,2.31A2.77,2.77,0,0,0,411.75,127.41Zm-.08-12,1.82-3.6H416l-2.42,3.6Z"/><path d="M430.59,129.26a4.62,4.62,0,0,1-2.59-.75,5,5,0,0,1-1.78-2.13,8.92,8.92,0,0,1,0-6.66A5,5,0,0,1,428,117.6a4.69,4.69,0,0,1,2.59-.73,3.76,3.76,0,0,1,1.8.37,3.22,3.22,0,0,1,1.06.86,7.93,7.93,0,0,1,.59.87h.14V113h2.34v16h-2.28v-1.86h-.2a6.92,6.92,0,0,1-.6.87,3.51,3.51,0,0,1-1.08.86A3.75,3.75,0,0,1,430.59,129.26Zm.52-2a2.73,2.73,0,0,0,1.71-.54,3.32,3.32,0,0,0,1.06-1.49,6.23,6.23,0,0,0,.36-2.22,6,6,0,0,0-.36-2.18,3.21,3.21,0,0,0-1.05-1.46,2.79,2.79,0,0,0-1.72-.53,2.76,2.76,0,0,0-1.76.55,3.3,3.3,0,0,0-1.06,1.49,6.69,6.69,0,0,0,0,4.3,3.4,3.4,0,0,0,1.06,1.52A2.76,2.76,0,0,0,431.11,127.27Z"/><path d="M439.87,129V117h2.26v1.91h.12a3,3,0,0,1,1.16-1.53,3.33,3.33,0,0,1,1.89-.56l.52,0,.47,0v2.23l-.5-.09a5.81,5.81,0,0,0-.72-.05,3.07,3.07,0,0,0-1.47.35,2.62,2.62,0,0,0-1,1,2.65,2.65,0,0,0-.38,1.4V129Z"/><path d="M455.92,124.05v-7h2.35v12H456V127h-.13a3.61,3.61,0,0,1-1.32,1.59,3.82,3.82,0,0,1-2.26.64,4.08,4.08,0,0,1-2.05-.51,3.55,3.55,0,0,1-1.39-1.52,5.61,5.61,0,0,1-.5-2.49V117h2.34v7.36a2.73,2.73,0,0,0,.68,2,2.31,2.31,0,0,0,1.76.73,2.89,2.89,0,0,0,1.31-.33,2.86,2.86,0,0,0,1.09-1A3.05,3.05,0,0,0,455.92,124.05Z"/><path d="M463.73,121.9V129H461.4V113h2.3v6h.15a3.41,3.41,0,0,1,1.29-1.54,4.06,4.06,0,0,1,2.27-.57,4.42,4.42,0,0,1,2.16.51,3.43,3.43,0,0,1,1.43,1.51,5.48,5.48,0,0,1,.52,2.5V129h-2.34v-7.35a2.91,2.91,0,0,0-.68-2,2.47,2.47,0,0,0-1.89-.73,3.11,3.11,0,0,0-1.48.35,2.55,2.55,0,0,0-1,1A3.41,3.41,0,0,0,463.73,121.9Z"/><path d="M479.69,129.27a5.47,5.47,0,0,1-2.94-.78,5.11,5.11,0,0,1-1.95-2.16,7.1,7.1,0,0,1-.7-3.25,7.19,7.19,0,0,1,.7-3.27,5.2,5.2,0,0,1,1.95-2.17,6,6,0,0,1,5.89,0,5.2,5.2,0,0,1,1.95,2.17,7.19,7.19,0,0,1,.7,3.27,7.1,7.1,0,0,1-.7,3.25,5.11,5.11,0,0,1-1.95,2.16A5.48,5.48,0,0,1,479.69,129.27Zm0-2a2.82,2.82,0,0,0,1.81-.58,3.43,3.43,0,0,0,1.07-1.54,6.57,6.57,0,0,0,0-4.23,3.46,3.46,0,0,0-1.07-1.55,2.77,2.77,0,0,0-1.81-.59,2.8,2.8,0,0,0-1.82.59,3.39,3.39,0,0,0-1.07,1.55,6.57,6.57,0,0,0,0,4.23,3.36,3.36,0,0,0,1.07,1.54A2.85,2.85,0,0,0,479.7,127.31Z"/><path d="M498.15,117l-4.35,12h-2.5l-4.36-12h2.51l3,9.24h.13l3-9.24Z"/><path d="M503.84,129.29a4.75,4.75,0,0,1-2.06-.43,3.38,3.38,0,0,1-1.46-1.23,3.64,3.64,0,0,1-.53-2,3.25,3.25,0,0,1,.39-1.67,2.91,2.91,0,0,1,1.05-1,6,6,0,0,1,1.49-.58,14.92,14.92,0,0,1,1.67-.29l1.75-.21a2.31,2.31,0,0,0,1-.27.65.65,0,0,0,.31-.61v0a2.15,2.15,0,0,0-.57-1.59,2.4,2.4,0,0,0-1.71-.56,3,3,0,0,0-1.86.52,2.76,2.76,0,0,0-.93,1.15l-2.2-.5a4.26,4.26,0,0,1,1.15-1.77,4.54,4.54,0,0,1,1.74-1,6.69,6.69,0,0,1,2.07-.31,6.87,6.87,0,0,1,1.52.17,4.46,4.46,0,0,1,1.52.61,3.41,3.41,0,0,1,1.16,1.27,4.44,4.44,0,0,1,.45,2.14v8h-2.28v-1.64h-.09a3.2,3.2,0,0,1-.68.89,3.39,3.39,0,0,1-1.17.73A4.54,4.54,0,0,1,503.84,129.29Zm.51-1.88A3.34,3.34,0,0,0,506,127a2.67,2.67,0,0,0,1.05-1,2.55,2.55,0,0,0,.37-1.33v-1.55a1.33,1.33,0,0,1-.48.23,7,7,0,0,1-.81.18l-.88.13-.72.1a5.5,5.5,0,0,0-1.24.29,2.09,2.09,0,0,0-.89.58,1.67,1.67,0,0,0,.31,2.31A2.75,2.75,0,0,0,504.35,127.41Zm-.09-12,1.83-3.6h2.46l-2.42,3.6Z"/><path d="M338.91,158v-16.5h2.28v1.94h.2a5.91,5.91,0,0,1,.58-.86,3.39,3.39,0,0,1,1.07-.87,3.81,3.81,0,0,1,1.79-.37,4.7,4.7,0,0,1,2.6.74,5,5,0,0,1,1.79,2.11,8.85,8.85,0,0,1,0,6.66,5,5,0,0,1-1.78,2.14,4.64,4.64,0,0,1-2.58.74,3.88,3.88,0,0,1-1.79-.36,3.56,3.56,0,0,1-1.08-.86,6.29,6.29,0,0,1-.6-.88h-.14V158Zm2.29-10.5a6.08,6.08,0,0,0,.37,2.22,3.38,3.38,0,0,0,1.06,1.49,3,3,0,0,0,3.45,0,3.41,3.41,0,0,0,1.07-1.52,6.12,6.12,0,0,0,.36-2.16,6.18,6.18,0,0,0-.35-2.13,3.41,3.41,0,0,0-1.07-1.5,2.8,2.8,0,0,0-1.76-.54,2.74,2.74,0,0,0-1.71.52,3.21,3.21,0,0,0-1.06,1.46A6.13,6.13,0,0,0,341.2,147.47Z"/><path d="M357.66,153.71a5.83,5.83,0,0,1-3.05-.76,5.07,5.07,0,0,1-2-2.15,8,8,0,0,1,0-6.5,5.18,5.18,0,0,1,4.86-3,5.79,5.79,0,0,1,2,.34,4.77,4.77,0,0,1,1.71,1,5,5,0,0,1,1.19,1.87,7.81,7.81,0,0,1,.44,2.77v.83h-9.54v-1.75h7.25a3.51,3.51,0,0,0-.38-1.64,2.83,2.83,0,0,0-1.05-1.12,2.91,2.91,0,0,0-1.58-.42,3,3,0,0,0-1.71.48,3.23,3.23,0,0,0-1.13,1.25,3.66,3.66,0,0,0-.39,1.67V148a4.52,4.52,0,0,0,.42,2,3,3,0,0,0,1.19,1.29,3.57,3.57,0,0,0,1.79.44,3.53,3.53,0,0,0,1.21-.19,2.68,2.68,0,0,0,.95-.57,2.47,2.47,0,0,0,.61-1l2.21.4a4,4,0,0,1-1,1.71,4.69,4.69,0,0,1-1.71,1.13A6.34,6.34,0,0,1,357.66,153.71Z"/><path d="M374.4,144.4l-2.12.37a2.3,2.3,0,0,0-.41-.77,2.13,2.13,0,0,0-.77-.6,2.75,2.75,0,0,0-1.21-.24,2.87,2.87,0,0,0-1.66.45,1.31,1.31,0,0,0-.66,1.13,1.18,1.18,0,0,0,.44,1,3.49,3.49,0,0,0,1.44.6l1.9.44a5.14,5.14,0,0,1,2.47,1.18,2.78,2.78,0,0,1,.82,2.07,3.17,3.17,0,0,1-.62,1.92,4.13,4.13,0,0,1-1.73,1.31,6.39,6.39,0,0,1-2.56.48,5.8,5.8,0,0,1-3.29-.86,3.62,3.62,0,0,1-1.56-2.46l2.26-.34a2.16,2.16,0,0,0,.86,1.33,3,3,0,0,0,1.71.45,3.16,3.16,0,0,0,1.84-.48,1.4,1.4,0,0,0,.69-1.18,1.22,1.22,0,0,0-.42-.94,2.78,2.78,0,0,0-1.28-.58l-2-.45A4.78,4.78,0,0,1,366,147a2.93,2.93,0,0,1-.8-2.11,3.06,3.06,0,0,1,.59-1.86,4,4,0,0,1,1.64-1.25,6,6,0,0,1,2.4-.45,5,5,0,0,1,3.07.84A4,4,0,0,1,374.4,144.4Z"/><path d="M382.8,141.47v1.87h-6.56v-1.87Zm-4.8-2.88h2.34V150a2,2,0,0,0,.2,1,1.09,1.09,0,0,0,.53.47,2,2,0,0,0,.71.12,3.47,3.47,0,0,0,.49,0l.33-.06.42,1.92a3.06,3.06,0,0,1-.58.16,4.1,4.1,0,0,1-.94.09,4,4,0,0,1-1.72-.32,3,3,0,0,1-1.29-1.07,3.18,3.18,0,0,1-.49-1.8Z"/><path d="M385.38,153.47v-12h2.26v1.9h.12a2.94,2.94,0,0,1,1.16-1.52,3.31,3.31,0,0,1,1.89-.56h.52l.47,0v2.24a3.09,3.09,0,0,0-.5-.09,4.36,4.36,0,0,0-.72-.05,3.07,3.07,0,0,0-1.47.34,2.72,2.72,0,0,0-1,1,2.59,2.59,0,0,0-.38,1.39v7.33Z"/><path d="M398.89,153.71a5.57,5.57,0,0,1-2.95-.77,5.2,5.2,0,0,1-1.95-2.17,7.08,7.08,0,0,1-.7-3.25,7.15,7.15,0,0,1,.7-3.26,5.14,5.14,0,0,1,1.95-2.17,5.95,5.95,0,0,1,5.89,0,5.14,5.14,0,0,1,1.95,2.17,7.15,7.15,0,0,1,.7,3.26,7.08,7.08,0,0,1-.7,3.25,5.2,5.2,0,0,1-1.95,2.17A5.56,5.56,0,0,1,398.89,153.71Zm0-2a2.8,2.8,0,0,0,1.82-.58,3.44,3.44,0,0,0,1.06-1.54,6.18,6.18,0,0,0,.35-2.11,6.29,6.29,0,0,0-.35-2.12,3.53,3.53,0,0,0-1.06-1.55,3.15,3.15,0,0,0-3.64,0A3.46,3.46,0,0,0,396,145.4a6.29,6.29,0,0,0-.35,2.12,6.18,6.18,0,0,0,.35,2.11,3.38,3.38,0,0,0,1.07,1.54A2.8,2.8,0,0,0,398.89,151.75Z"/><path d="M416.07,144.4l-2.12.37a2.3,2.3,0,0,0-.41-.77,2.13,2.13,0,0,0-.77-.6,2.75,2.75,0,0,0-1.21-.24,2.87,2.87,0,0,0-1.66.45,1.31,1.31,0,0,0-.66,1.13,1.18,1.18,0,0,0,.44,1,3.49,3.49,0,0,0,1.44.6l1.9.44a5.14,5.14,0,0,1,2.47,1.18,2.78,2.78,0,0,1,.82,2.07,3.12,3.12,0,0,1-.63,1.92,4,4,0,0,1-1.72,1.31,6.39,6.39,0,0,1-2.56.48,5.8,5.8,0,0,1-3.29-.86,3.62,3.62,0,0,1-1.56-2.46l2.26-.34a2.16,2.16,0,0,0,.86,1.33,3,3,0,0,0,1.71.45,3.16,3.16,0,0,0,1.84-.48,1.4,1.4,0,0,0,.69-1.18,1.22,1.22,0,0,0-.42-.94,2.78,2.78,0,0,0-1.28-.58l-2-.45A4.78,4.78,0,0,1,407.7,147a2.93,2.93,0,0,1-.8-2.11,3.06,3.06,0,0,1,.59-1.86,4,4,0,0,1,1.64-1.25,6,6,0,0,1,2.4-.45,5,5,0,0,1,3.07.84A4,4,0,0,1,416.07,144.4Z"/><path d="M424.47,141.47v1.87h-6.56v-1.87Zm-4.8-2.88H422V150a2,2,0,0,0,.2,1,1.09,1.09,0,0,0,.53.47,2,2,0,0,0,.71.12,3.47,3.47,0,0,0,.49,0l.33-.06.42,1.92a3.06,3.06,0,0,1-.58.16,4.1,4.1,0,0,1-.94.09,4,4,0,0,1-1.72-.32,3,3,0,0,1-1.29-1.07,3.18,3.18,0,0,1-.49-1.8Z"/><circle class="cls-1" cx="592.44" cy="121.82" r="55"/><path d="M588.77,92.78a2.26,2.26,0,0,0-1-1.72,4,4,0,0,0-2.28-.61,4.2,4.2,0,0,0-1.7.31,2.62,2.62,0,0,0-1.12.84,2,2,0,0,0-.39,1.22,1.76,1.76,0,0,0,.27,1,2.13,2.13,0,0,0,.71.69,4.4,4.4,0,0,0,.95.46c.34.12.66.22,1,.3l1.56.41a10.59,10.59,0,0,1,1.57.51,6.27,6.27,0,0,1,1.49.84,4,4,0,0,1,1.11,1.3,3.69,3.69,0,0,1,.43,1.85,4.21,4.21,0,0,1-.7,2.41,4.74,4.74,0,0,1-2,1.67,8.73,8.73,0,0,1-6.31,0,4.56,4.56,0,0,1-2.88-4.12h2.43a2.38,2.38,0,0,0,.56,1.44,3,3,0,0,0,1.28.85,5.27,5.27,0,0,0,3.53,0,3,3,0,0,0,1.26-.9,2.17,2.17,0,0,0,.46-1.36,1.73,1.73,0,0,0-.4-1.17,3.1,3.1,0,0,0-1.09-.75,10.66,10.66,0,0,0-1.54-.52L584,97.18a7.36,7.36,0,0,1-3-1.54A3.46,3.46,0,0,1,579.84,93a4,4,0,0,1,.75-2.42,4.92,4.92,0,0,1,2-1.6,6.92,6.92,0,0,1,2.9-.58,6.84,6.84,0,0,1,2.87.57,4.8,4.8,0,0,1,2,1.57,3.94,3.94,0,0,1,.75,2.28Z"/><path d="M599.62,92.58v1.88h-6.56V92.58Zm-4.8-2.87h2.33v11.35a2,2,0,0,0,.21,1,1,1,0,0,0,.53.46,2,2,0,0,0,.7.12,2.37,2.37,0,0,0,.49,0l.33-.06.42,1.93a5,5,0,0,1-.57.16,5.76,5.76,0,0,1-.94.09,4.09,4.09,0,0,1-1.72-.33,3,3,0,0,1-1.29-1.06,3.11,3.11,0,0,1-.49-1.81Z"/><path d="M602.19,104.58v-12h2.34v12Zm.22-13.6,1.83-3.6h2.46L604.28,91Z"/><path d="M607.67,104.58v-12h2.26v1.91h.12A2.92,2.92,0,0,1,611.21,93a3.36,3.36,0,0,1,1.89-.56l.52,0a4.13,4.13,0,0,1,.47,0v2.23a3.09,3.09,0,0,0-.5-.09,5.81,5.81,0,0,0-.72,0,3.07,3.07,0,0,0-1.47.35A2.59,2.59,0,0,0,610,97.25v7.33Z"/><path d="M619.61,104.85a4.93,4.93,0,0,1-2.06-.43,3.38,3.38,0,0,1-1.45-1.24,3.5,3.5,0,0,1-.54-2,3.23,3.23,0,0,1,.39-1.67,2.86,2.86,0,0,1,1.06-1,5.25,5.25,0,0,1,1.48-.58,15.34,15.34,0,0,1,1.67-.3l1.75-.2a2.79,2.79,0,0,0,1-.27.67.67,0,0,0,.3-.61v-.06a2.11,2.11,0,0,0-.57-1.58,2.32,2.32,0,0,0-1.71-.56,3,3,0,0,0-1.85.51,2.8,2.8,0,0,0-.94,1.16l-2.19-.5a4.24,4.24,0,0,1,1.14-1.77,4.7,4.7,0,0,1,1.74-1,7.1,7.1,0,0,1,2.07-.31,7.7,7.7,0,0,1,1.53.17,4.43,4.43,0,0,1,1.51.62,3.33,3.33,0,0,1,1.16,1.27,4.31,4.31,0,0,1,.46,2.13v8h-2.28v-1.64h-.1a3.35,3.35,0,0,1-.68.89,3.78,3.78,0,0,1-1.16.73A4.6,4.6,0,0,1,619.61,104.85Zm.51-1.88a3.42,3.42,0,0,0,1.66-.38,2.72,2.72,0,0,0,1.06-1,2.58,2.58,0,0,0,.36-1.33V98.71a1.18,1.18,0,0,1-.48.23,7,7,0,0,1-.81.18l-.88.13-.72.1a5.12,5.12,0,0,0-1.24.29,2.09,2.09,0,0,0-.89.58,1.67,1.67,0,0,0,.31,2.31A2.85,2.85,0,0,0,620.12,103Z"/><path d="M628.65,92.58H631v12.77a4.27,4.27,0,0,1-.44,2,2.94,2.94,0,0,1-1.28,1.26,4.62,4.62,0,0,1-2.11.42h-.45v-2h.38a1.44,1.44,0,0,0,1.19-.45,1.92,1.92,0,0,0,.38-1.28Zm1.15-1.85a1.48,1.48,0,0,1-1-.41,1.34,1.34,0,0,1,0-2,1.54,1.54,0,0,1,2.09,0,1.34,1.34,0,0,1,0,2A1.49,1.49,0,0,1,629.8,90.73Z"/><path d="M634.12,104.58v-12h2.34v12Zm.22-13.6,1.83-3.6h2.46L636.21,91Z"/><path d="M654.42,95.51l-2.12.38a2.58,2.58,0,0,0-.42-.78,2.15,2.15,0,0,0-.77-.6,2.69,2.69,0,0,0-1.21-.23,2.86,2.86,0,0,0-1.65.44,1.3,1.3,0,0,0-.67,1.13,1.17,1.17,0,0,0,.45,1,3.37,3.37,0,0,0,1.44.6l1.9.44A5.18,5.18,0,0,1,653.84,99a2.77,2.77,0,0,1,.81,2.07A3.11,3.11,0,0,1,654,103a4.13,4.13,0,0,1-1.72,1.32,6.57,6.57,0,0,1-2.56.47,5.78,5.78,0,0,1-3.29-.86,3.65,3.65,0,0,1-1.57-2.46l2.26-.34a2.13,2.13,0,0,0,.87,1.33,3,3,0,0,0,1.71.45,3.16,3.16,0,0,0,1.84-.48,1.41,1.41,0,0,0,.68-1.18,1.24,1.24,0,0,0-.41-.94,2.78,2.78,0,0,0-1.28-.58l-2-.44a4.93,4.93,0,0,1-2.48-1.22,2.93,2.93,0,0,1-.8-2.12,3,3,0,0,1,.59-1.86,4,4,0,0,1,1.64-1.25,6,6,0,0,1,2.4-.45,5,5,0,0,1,3.06.84A3.93,3.93,0,0,1,654.42,95.51Z"/><path d="M662.39,104.82a5.8,5.8,0,0,1-3-.76,5,5,0,0,1-2-2.15,7.21,7.21,0,0,1-.69-3.25,7.29,7.29,0,0,1,.69-3.25,5.31,5.31,0,0,1,1.93-2.2,5.41,5.41,0,0,1,2.92-.79,6,6,0,0,1,2,.34,4.77,4.77,0,0,1,1.71,1.06,4.83,4.83,0,0,1,1.2,1.86,7.85,7.85,0,0,1,.43,2.78v.82H658V97.53h7.25a3.44,3.44,0,0,0-.38-1.63,2.79,2.79,0,0,0-1-1.13,2.94,2.94,0,0,0-1.58-.42,3.07,3.07,0,0,0-1.72.48,3.29,3.29,0,0,0-1.12,1.25,3.67,3.67,0,0,0-.4,1.67v1.37a4.46,4.46,0,0,0,.43,2,3,3,0,0,0,1.19,1.28,3.47,3.47,0,0,0,1.79.44,3.57,3.57,0,0,0,1.21-.19,2.77,2.77,0,0,0,1-.57,2.73,2.73,0,0,0,.61-.95l2.21.4a4.12,4.12,0,0,1-.95,1.71,4.65,4.65,0,0,1-1.71,1.13A6.38,6.38,0,0,1,662.39,104.82Z"/><path d="M579.86,129V117h2.26v1.91h.12a3,3,0,0,1,1.16-1.53,3.36,3.36,0,0,1,1.89-.56l.52,0a4.13,4.13,0,0,1,.47,0v2.23l-.5-.09a5.81,5.81,0,0,0-.72-.05,3.07,3.07,0,0,0-1.47.35,2.62,2.62,0,0,0-1,1,2.65,2.65,0,0,0-.38,1.4V129Z"/><path d="M593.37,129.27a5.48,5.48,0,0,1-3-.78,5.11,5.11,0,0,1-1.95-2.16,7.1,7.1,0,0,1-.7-3.25,7.19,7.19,0,0,1,.7-3.27,5.2,5.2,0,0,1,1.95-2.17,6,6,0,0,1,5.89,0,5.29,5.29,0,0,1,2,2.17,7.32,7.32,0,0,1,.69,3.27,7.23,7.23,0,0,1-.69,3.25,5.2,5.2,0,0,1-2,2.16A5.47,5.47,0,0,1,593.37,129.27Zm0-2a2.85,2.85,0,0,0,1.82-.58,3.41,3.41,0,0,0,1.06-1.54,6.57,6.57,0,0,0,0-4.23,3.45,3.45,0,0,0-1.06-1.55,3.1,3.1,0,0,0-3.64,0,3.46,3.46,0,0,0-1.07,1.55,6.57,6.57,0,0,0,0,4.23,3.43,3.43,0,0,0,1.07,1.54A2.85,2.85,0,0,0,593.37,127.31Z"/><path d="M601.31,129v-1.6l6.5-8.26v-.1h-6.29v-2h9.2v1.71l-6.25,8.15V127h6.47v2Z"/><path d="M618.18,129.26a4.57,4.57,0,0,1-2.58-.75,5,5,0,0,1-1.79-2.13,8.92,8.92,0,0,1,0-6.66,5,5,0,0,1,1.79-2.12,4.69,4.69,0,0,1,2.59-.73,3.74,3.74,0,0,1,1.8.37,3.22,3.22,0,0,1,1.06.86,6.72,6.72,0,0,1,.59.87h.14V113h2.34v16h-2.28v-1.86h-.2a6.92,6.92,0,0,1-.6.87,3.51,3.51,0,0,1-1.08.86A3.75,3.75,0,0,1,618.18,129.26Zm.52-2a2.73,2.73,0,0,0,1.71-.54,3.32,3.32,0,0,0,1.06-1.49,6.23,6.23,0,0,0,.36-2.22,6,6,0,0,0-.36-2.18,3.21,3.21,0,0,0-1.05-1.46,3.07,3.07,0,0,0-3.48,0,3.3,3.3,0,0,0-1.06,1.49,6.69,6.69,0,0,0,0,4.3,3.4,3.4,0,0,0,1.06,1.52A2.78,2.78,0,0,0,618.7,127.27Z"/><path d="M627.46,129V117h2.33v12Zm.22-13.6,1.83-3.6H632l-2.43,3.6Z"/><path d="M635.27,113v16h-2.34V113Z"/><path d="M639.89,133.49a4.78,4.78,0,0,1-1-.08,3.14,3.14,0,0,1-.64-.17l.57-1.92a2.7,2.7,0,0,0,1.61,0c.43-.14.8-.61,1.1-1.38l.29-.8L637.47,117H640l3,9.32h.13l3-9.32,2.52,0-5,13.58a5.48,5.48,0,0,1-.87,1.57,3.48,3.48,0,0,1-1.27,1A4.13,4.13,0,0,1,639.89,133.49Z"/><path d="M656.71,129V117H659v2h.14a3.11,3.11,0,0,1,1.23-1.55,3.59,3.59,0,0,1,2-.56,3.51,3.51,0,0,1,2,.56A3.35,3.35,0,0,1,665.6,119h.12a3.4,3.4,0,0,1,1.37-1.54,4.2,4.2,0,0,1,2.23-.57,3.64,3.64,0,0,1,2.67,1,4.16,4.16,0,0,1,1,3.09v8h-2.34V121.2a2.17,2.17,0,0,0-.66-1.77,2.46,2.46,0,0,0-1.59-.55,2.28,2.28,0,0,0-1.77.7,2.61,2.61,0,0,0-.64,1.8V129h-2.32v-8a2.11,2.11,0,0,0-.61-1.57,2.18,2.18,0,0,0-1.59-.6,2.28,2.28,0,0,0-1.22.35,2.56,2.56,0,0,0-.9,1,2.85,2.85,0,0,0-.34,1.43V129Z"/><path d="M681.32,129.27a5.83,5.83,0,0,1-3.05-.77,5,5,0,0,1-2-2.14,8,8,0,0,1,0-6.51,5.24,5.24,0,0,1,1.94-2.19,5.3,5.3,0,0,1,2.92-.79,6,6,0,0,1,2,.33,4.94,4.94,0,0,1,1.71,1.06,5,5,0,0,1,1.19,1.86,7.87,7.87,0,0,1,.44,2.78v.83h-9.54V122h7.25a3.48,3.48,0,0,0-.37-1.64,2.86,2.86,0,0,0-1-1.13,3.29,3.29,0,0,0-3.3.07,3.31,3.31,0,0,0-1.13,1.25,3.63,3.63,0,0,0-.39,1.67v1.36a4.41,4.41,0,0,0,.43,2,3,3,0,0,0,1.19,1.29,3.54,3.54,0,0,0,1.79.44,3.88,3.88,0,0,0,1.21-.19,2.52,2.52,0,0,0,.94-.58,2.43,2.43,0,0,0,.61-.94l2.21.39a4,4,0,0,1-1,1.71,4.38,4.38,0,0,1-1.71,1.13A6.3,6.3,0,0,1,681.32,129.27Z"/><path d="M688.82,129v-1.6l6.5-8.26v-.1H689v-2h9.21v1.71L692,126.88V127h6.47v2Z"/><path d="M702.38,115.17a1.44,1.44,0,0,1-1-.41,1.29,1.29,0,0,1-.43-1,1.33,1.33,0,0,1,.43-1,1.54,1.54,0,0,1,2.09,0,1.33,1.33,0,0,1,.43,1,1.29,1.29,0,0,1-.43,1A1.45,1.45,0,0,1,702.38,115.17ZM701.2,129V117h2.34v12Z"/><path d="M579.86,153.47v-12h2.26v1.9h.12a2.94,2.94,0,0,1,1.16-1.52,3.36,3.36,0,0,1,1.89-.56h.52l.47,0v2.24a3.09,3.09,0,0,0-.5-.09,4.36,4.36,0,0,0-.72-.05,3.07,3.07,0,0,0-1.47.34,2.72,2.72,0,0,0-1,1,2.59,2.59,0,0,0-.38,1.39v7.33Z"/><path d="M595.91,148.49v-7h2.35v12H596v-2.08h-.12a3.79,3.79,0,0,1-1.33,1.6,3.88,3.88,0,0,1-2.26.63,4,4,0,0,1-2-.51,3.43,3.43,0,0,1-1.39-1.52,5.47,5.47,0,0,1-.51-2.49v-7.63h2.34v7.35a2.7,2.7,0,0,0,.68,2,2.28,2.28,0,0,0,1.76.73,2.86,2.86,0,0,0,1.31-.33,2.79,2.79,0,0,0,1.09-1A3,3,0,0,0,595.91,148.49Zm-2.61-8.35a2.78,2.78,0,0,1-1.41-.35,2.59,2.59,0,0,1-1-.94,2.42,2.42,0,0,1-.37-1.33,2.54,2.54,0,0,1,.37-1.35,2.79,2.79,0,0,1,2.41-1.35,2.75,2.75,0,0,1,2.39,1.35,2.54,2.54,0,0,1,.37,1.35,2.42,2.42,0,0,1-.37,1.33,2.56,2.56,0,0,1-1,.94A2.72,2.72,0,0,1,593.3,140.14Zm0-1.25a1.36,1.36,0,0,0,1-.42,1.33,1.33,0,0,0,.4-.95,1.37,1.37,0,0,0-.4-1,1.3,1.3,0,0,0-1-.44,1.32,1.32,0,0,0-1,.44,1.4,1.4,0,0,0-.39,1,1.37,1.37,0,0,0,.39.95A1.34,1.34,0,0,0,593.3,138.89Z"/><path d="M601.14,153.47v-1.6l6.5-8.26v-.11h-6.29v-2h9.2v1.7l-6.25,8.16v.11h6.47v2Z"/><path d="M615.86,146.34v7.13h-2.34v-12h2.24v1.95h.15a3.5,3.5,0,0,1,1.3-1.53,4.07,4.07,0,0,1,2.24-.58,4.38,4.38,0,0,1,2.15.51,3.57,3.57,0,0,1,1.43,1.52,5.54,5.54,0,0,1,.51,2.5v7.63H621.2v-7.35a3,3,0,0,0-.68-2.05,2.42,2.42,0,0,0-1.87-.73,2.85,2.85,0,0,0-1.44.35,2.44,2.44,0,0,0-1,1A3.47,3.47,0,0,0,615.86,146.34Z"/><path d="M628.14,157.94a5.64,5.64,0,0,1-1-.08,3.8,3.8,0,0,1-.64-.18l.57-1.91a2.78,2.78,0,0,0,1.61,0,2.16,2.16,0,0,0,1.1-1.39l.29-.8-4.39-12.15h2.5l3,9.31h.12l3-9.31,2.52,0-5,13.58a5.48,5.48,0,0,1-.87,1.57,3.51,3.51,0,0,1-1.27,1A4.13,4.13,0,0,1,628.14,157.94Zm2.21-18.07,1.83-3.6h2.46l-2.42,3.6Z"/><path d="M639.14,153.47v-12h2.24v1.95h.15a3.15,3.15,0,0,1,1.22-1.55,3.67,3.67,0,0,1,2-.56,3.49,3.49,0,0,1,2,.56,3.34,3.34,0,0,1,1.21,1.55h.12a3.43,3.43,0,0,1,1.37-1.53,4.15,4.15,0,0,1,2.24-.58,3.6,3.6,0,0,1,2.66,1,4.16,4.16,0,0,1,1,3.08v8.05h-2.34v-7.83a2.19,2.19,0,0,0-.66-1.77,2.43,2.43,0,0,0-1.59-.54,2.25,2.25,0,0,0-1.77.7,2.56,2.56,0,0,0-.63,1.79v7.65h-2.33v-8a2.09,2.09,0,0,0-.61-1.57,2.38,2.38,0,0,0-2.81-.24,2.6,2.6,0,0,0-.9,1,3,3,0,0,0-.34,1.43v7.4Z"/><path d="M659.75,139.62a1.48,1.48,0,0,1-1-.41,1.34,1.34,0,0,1,0-2,1.54,1.54,0,0,1,2.09,0,1.34,1.34,0,0,1,0,2A1.49,1.49,0,0,1,659.75,139.62Zm-1.18,13.85v-12h2.34v12Z"/><path d="M669.88,153.47v-12h2.24v1.95h.15a3.11,3.11,0,0,1,1.23-1.55,3.61,3.61,0,0,1,2-.56,3.49,3.49,0,0,1,2,.56,3.34,3.34,0,0,1,1.21,1.55h.13a3.35,3.35,0,0,1,1.36-1.53,4.15,4.15,0,0,1,2.24-.58,3.57,3.57,0,0,1,2.66,1,4.11,4.11,0,0,1,1,3.08v8.05h-2.34v-7.83a2.19,2.19,0,0,0-.66-1.77,2.43,2.43,0,0,0-1.59-.54,2.25,2.25,0,0,0-1.77.7,2.56,2.56,0,0,0-.63,1.79v7.65h-2.33v-8a2.09,2.09,0,0,0-.61-1.57,2.38,2.38,0,0,0-2.81-.24,2.6,2.6,0,0,0-.9,1,3,3,0,0,0-.34,1.43v7.4Z"/><path d="M689.31,153.47v-12h2.34v12Zm.22-13.6,1.83-3.6h2.46l-2.42,3.6Z"/><path d="M703.78,144.4l-2.11.37a2.53,2.53,0,0,0-.42-.77,2.13,2.13,0,0,0-.77-.6,2.72,2.72,0,0,0-1.21-.24,2.9,2.9,0,0,0-1.66.45,1.31,1.31,0,0,0-.66,1.13,1.21,1.21,0,0,0,.44,1,3.49,3.49,0,0,0,1.44.6l1.91.44a5.23,5.23,0,0,1,2.47,1.18A2.77,2.77,0,0,1,704,150a3.17,3.17,0,0,1-.62,1.92,4.07,4.07,0,0,1-1.73,1.31,6.39,6.39,0,0,1-2.56.48,5.8,5.8,0,0,1-3.29-.86,3.62,3.62,0,0,1-1.56-2.46l2.26-.34a2.13,2.13,0,0,0,.87,1.33,2.93,2.93,0,0,0,1.71.45,3.15,3.15,0,0,0,1.83-.48,1.4,1.4,0,0,0,.69-1.18,1.22,1.22,0,0,0-.42-.94,2.73,2.73,0,0,0-1.28-.58l-2-.45a4.82,4.82,0,0,1-2.48-1.22,2.93,2.93,0,0,1-.8-2.11,3,3,0,0,1,.6-1.86,3.89,3.89,0,0,1,1.64-1.25,6,6,0,0,1,2.39-.45,5,5,0,0,1,3.07.84A4,4,0,0,1,703.78,144.4Z"/><path d="M712.18,141.47v1.87h-6.55v-1.87Zm-4.8-2.88h2.34V150a2,2,0,0,0,.2,1,1.09,1.09,0,0,0,.53.47,2,2,0,0,0,.71.12,3.34,3.34,0,0,0,.49,0l.33-.06.42,1.92a3.06,3.06,0,0,1-.58.16,4.1,4.1,0,0,1-.94.09,3.92,3.92,0,0,1-1.71-.32,2.88,2.88,0,0,1-1.29-1.07,3.11,3.11,0,0,1-.5-1.8Z"/><path d="M716.24,157.94a5.64,5.64,0,0,1-1-.08,3.8,3.8,0,0,1-.64-.18l.56-1.91a2.81,2.81,0,0,0,1.62,0,2.16,2.16,0,0,0,1.1-1.39l.28-.8-4.39-12.15h2.5l3,9.31h.13l3-9.31,2.52,0-5,13.58a5.26,5.26,0,0,1-.88,1.57,3.39,3.39,0,0,1-1.26,1A4.13,4.13,0,0,1,716.24,157.94Z"/></svg>