<svg id="Layer_1" data-name="Layer 1" xmlns="http://www.w3.org/2000/svg" viewBox="0 0 740 347.14"><defs><style>.cls-1{fill:#e8cbae;}.cls-2{fill:#f8efe7;}.cls-11,.cls-15,.cls-16,.cls-17,.cls-20,.cls-21,.cls-22,.cls-23,.cls-25,.cls-26,.cls-27,.cls-28,.cls-29,.cls-3,.cls-30,.cls-31,.cls-4,.cls-8,.cls-9{stroke:#000;}.cls-11,.cls-16,.cls-20,.cls-21,.cls-22,.cls-28,.cls-29,.cls-3,.cls-30,.cls-4{stroke-linecap:round;}.cls-15,.cls-17,.cls-29,.cls-3,.cls-30,.cls-8,.cls-9{stroke-linejoin:round;}.cls-3{stroke-width:1.1px;}.cls-11,.cls-20,.cls-21,.cls-22,.cls-23,.cls-28,.cls-30,.cls-4,.cls-9{fill:none;}.cls-11,.cls-16,.cls-20,.cls-21,.cls-22,.cls-23,.cls-25,.cls-26,.cls-27,.cls-28,.cls-31,.cls-4{stroke-miterlimit:10;}.cls-20,.cls-21,.cls-22,.cls-23,.cls-4{stroke-width:1.8px;}.cls-14,.cls-5{fill:#fff;}.cls-6{fill:#cfd3ab;}.cls-7{fill:#9fc2b2;}.cls-10,.cls-8{fill:#e2ede8;}.cls-11,.cls-16,.cls-8,.cls-9{stroke-width:2px;}.cls-12{fill:#f4d7a9;}.cls-13,.cls-14{opacity:0.7;}.cls-15{stroke-width:0.5px;}.cls-16{fill:#fcf3e5;}.cls-18{fill:#ffd166;}.cls-18,.cls-19{opacity:0.6;}.cls-20{stroke-dasharray:1.07 4.27;}.cls-21{stroke-dasharray:0.98 3.94;}.cls-22{stroke-dasharray:1.01 4.05;}.cls-24{fill:lime;}.cls-26{stroke-width:0.8px;}.cls-27{stroke-width:0.7px;}.cls-28{stroke-width:1.4px;}.cls-29{fill:#f0efde;}.cls-29,.cls-30{stroke-width:1.8px;}.cls-31{stroke-width:0.6px;}</style></defs><circle class="cls-1" cx="72.13" cy="145.99" r="70.07"/><path class="cls-2" d="M62.84,161.22A8.59,8.59,0,0,0,65.28,160a5,5,0,0,0,.79-1.39A27.06,27.06,0,0,0,68,154.72a6.55,6.55,0,0,1,.62-1.84A3.6,3.6,0,0,1,71,151.56a13.14,13.14,0,0,1,4.88-.19,1.45,1.45,0,0,1,.59.18,1.42,1.42,0,0,1,.45.55,7.79,7.79,0,0,1,.78,2.13c.54,2.72-.45,5.59.19,8.3a.34.34,0,0,1,0,.2.36.36,0,0,1-.15.12,7.15,7.15,0,0,1-3.27.58A28.83,28.83,0,0,1,71.1,163a25.27,25.27,0,0,0-4.91-.3,3.14,3.14,0,0,1-.75,0,3.47,3.47,0,0,1-.55-.16L63.35,162"/><rect class="cls-2" x="33.75" y="161.26" width="67.99" height="24.68" rx="10"/><path class="cls-3" d="M40.85,169.24c-1.72,0-3.06,1.94-3.06,4.42a6.13,6.13,0,0,0,.32,2l.62-.37a5.64,5.64,0,0,1-.23-1.61c0-2,1.06-3.71,2.35-3.71,1.08,0,2,1.15,2.27,2.71h.72C43.54,170.68,42.33,169.24,40.85,169.24Z"/><rect class="cls-3" x="62.82" y="178.16" width="8.84" height="0.71"/><rect class="cls-3" x="71.66" y="166.53" width="19.68" height="0.71"/><path class="cls-3" d="M40.85,186.21H93.69c4.76,0,8.49-5.51,8.49-12.55s-3.73-12.55-8.49-12.55H80.14a2.35,2.35,0,0,1-2.35-2.35v-5.42c0-1.72-2.24-3.07-5.1-3.07s-5.09,1.35-5.09,3.07a7.72,7.72,0,0,1-2,5.13l-.82.93-.73-1a13.08,13.08,0,0,1-2.54-7.76v-5.07h40.65v-.71H97.82l-.37-.12A10.9,10.9,0,0,1,90,134.37V134H73v.36a10.91,10.91,0,0,1-7.46,10.36l-.37.12H61.53v-3.71c0-2-4-3.69-9.93-4.24l-.91-.08v-9l1.51.88a4.31,4.31,0,0,0,2.2.62,4.43,4.43,0,0,0,4.42-4.42,4.38,4.38,0,0,0-.12-1l-.17-.66.56-.4a5.73,5.73,0,0,0,.13-9.29l-.4-.3v-.5A5.75,5.75,0,0,0,51.91,107l-.54.12-.39-.4a8.49,8.49,0,0,0-14.55,5.93v.5l-.39.33a5.72,5.72,0,0,0,.13,9.29l.56.4-.17.66a4.32,4.32,0,0,0-.13,1,4.43,4.43,0,0,0,4.42,4.42,4.35,4.35,0,0,0,2.21-.62l1.5-.88v9l-.9.08c-5.94.55-9.94,2.25-9.94,4.24v3.71H20.18v.71H33.72v5.07a13.2,13.2,0,0,1-13.19,13.19h-.35v.71h.35a13.92,13.92,0,0,0,13.9-13.9v-7.82l1.45.73c2.53,1.27,6.92,2,11.75,2s9.22-.75,11.74-2l1.45-.73v7.82a13.86,13.86,0,0,0,2.7,8.22l.72,1-1.1.52a7.68,7.68,0,0,1-3.32.77H50.69V158.4H50v2.71H40.85c-.21,0-.42,0-.63,0l-1.55.17.49-1.48a14.42,14.42,0,0,0,.39-1.51l.13-.61,1.38-.35a5.55,5.55,0,0,0,4.12-4.4h-.72a4.81,4.81,0,0,1-3.31,3.62l-1.3.41v-6.74h-.71v5.4a12.74,12.74,0,0,1-1.74,6.4l-.11.18-.17.12c-2.93,2.1-4.75,6.43-4.75,11.29C32.37,180.7,36.1,186.21,40.85,186.21Zm38.3-51.49H89.24l.1.9a11.6,11.6,0,0,0,3.91,7.48l2,1.75h-6.8l-.3-.32a13.53,13.53,0,0,1-3-5.21l-.69.16a14.25,14.25,0,0,0,1.83,3.82l1,1.55H75.71l1-1.55a14.13,14.13,0,0,0,2.38-7.6Zm-9.4,8.38a11.6,11.6,0,0,0,3.91-7.48l.09-.9h4.69l0,1a13.51,13.51,0,0,1-3.56,8.78l-.29.32H67.75Zm-28.9-14.5a3.68,3.68,0,0,1-3.28-5.41l.17-.32-.34-.16a5.08,5.08,0,0,1-3-4.6A5,5,0,0,1,37,113.73l.2-.11,0-.23c0-.23,0-.46,0-.7A7.77,7.77,0,0,1,51,107.82l.16.2.24-.08a5,5,0,0,1,1.68-.31,5.07,5.07,0,0,1,5.06,5.06,3.89,3.89,0,0,1,0,.49l-.06.42.21.12a5,5,0,0,1-.37,9l-.34.16.17.33a3.54,3.54,0,0,1,.43,1.69,3.71,3.71,0,0,1-7.42,0v-5.28l1.9-1.9-.5-.5L50,119.32v17.45l-1,0c-.88,0-1.76,0-2.65,0l-1,0V115.55l1.9-1.9-.5-.5-1.75,1.75-1.75-1.75-.51.5,1.9,1.9v9.34A3.72,3.72,0,0,1,40.85,128.6Zm19.91,12.88c-.58,1.62-5.77,3.37-13.13,3.37S35,143.09,34.48,141.46l0-.43,0-.15c.48-1.66,5.65-3.45,13.16-3.45,7.36,0,12.55,1.76,13.13,3.38l.12.33ZM72.69,151c2.38,0,4.39,1.08,4.39,2.36s-2,2.35-4.39,2.35-4.39-1.08-4.39-2.35S70.31,151,72.69,151ZM59.82,161.82a8.5,8.5,0,0,0,8-5.68l.39-1.12,1,.57a7.08,7.08,0,0,0,3.44.81,7.49,7.49,0,0,0,3-.57l1.4-.6v3.53a3.06,3.06,0,0,0,3.06,3.06H93.69c4.29,0,7.78,5.31,7.78,11.84S98,185.5,93.69,185.5H44.29l1.57-1.68a16.57,16.57,0,0,0,0-20.32l-1.57-1.68Zm-19,0c4.29,0,7.78,5.31,7.78,11.84s-3.49,11.84-7.78,11.84-7.77-5.31-7.77-11.84S36.57,161.82,40.85,161.82Z"/><rect class="cls-3" x="55.4" y="150.27" width="0.71" height="6.13"/><circle cx="71.82" cy="178.52" r="0.9"/><circle cx="71.56" cy="166.89" r="0.9"/><circle cx="43.49" cy="172.7" r="0.9"/><circle cx="50.34" cy="158.35" r="0.9"/><circle cx="55.76" cy="156.4" r="0.9"/><circle cx="55.76" cy="150.27" r="0.9"/><circle cx="44.86" cy="152.83" r="0.9"/><circle cx="20.11" cy="164.18" r="0.9"/><circle cx="20.11" cy="145.21" r="0.9"/><circle cx="46.98" cy="113.35" r="0.9"/><circle cx="84.78" cy="139.27" r="0.9"/><circle cx="102.18" cy="145.21" r="0.9"/><circle cx="42.87" cy="113.35" r="0.9"/><circle cx="52.39" cy="117.41" r="0.9"/><circle cx="39.51" cy="150.3" r="0.9"/><circle cx="38.46" cy="175.58" r="0.9"/><circle cx="91.34" cy="166.89" r="0.9"/><circle cx="62.82" cy="178.52" r="0.9"/><line class="cls-4" x1="111.38" y1="145.21" x2="127.15" y2="145.21"/><rect class="cls-5" x="11.85" y="199.95" width="120.55" height="24.22"/><circle class="cls-6" cx="519.25" cy="206.03" r="70.07"/><rect class="cls-5" x="458.97" y="260.69" width="120.55" height="24.22"/><circle class="cls-7" cx="668.29" cy="145.99" r="70.07"/><path d="M654.85,178.81a50.82,50.82,0,0,1-4.73-5.91c-1.57-2.29-3.1-4.65-4.46-7.08-1.27-2.28-2.61-5-2.44-7.65a5.21,5.21,0,0,1,4.52-4.59,16,16,0,0,1,4.21-.06c1.25.09,2.49.12,3.74.16a2.73,2.73,0,0,1,3.31,3.15c.06,2.62-1,4.91-1.87,7.34a13.17,13.17,0,0,0-.79,4,8.51,8.51,0,0,0,1,4,28.88,28.88,0,0,1,1.62,4.16c.16.5.35,1,.51,1.5a3,3,0,0,1,.25,1.37c0,.09,0,.15,0,.12s-.44.09-.56.09c-.55,0-1.1,0-1.65,0-.82,0-2.06.09-2.68-.57-.88-.94-2.29.48-1.41,1.42a4.76,4.76,0,0,0,3.23,1.15c.47,0,1,0,1.42,0a7.09,7.09,0,0,0,1.9-.07c2.81-.6,1.46-3.81.91-5.58a28.64,28.64,0,0,0-1.7-4.37,6.76,6.76,0,0,1-.75-4.36c.5-3,2.2-5.65,2.5-8.71.22-2.32-.12-5-2.48-6.13a8.86,8.86,0,0,0-3.62-.5c-1.52,0-3-.2-4.56-.24-3-.08-6.19.73-8,3.31s-1.13,5.9-.06,8.59a52.5,52.5,0,0,0,5.08,9,56.2,56.2,0,0,0,6.1,7.9C654.32,181.17,655.73,179.75,654.85,178.81Z"/><path d="M635.34,129a8.17,8.17,0,0,1,5.58,0,2.13,2.13,0,0,1,1.32,1.2c.47.9,1,1.73,1.47,2.64.77,1.6,1.52,3.77.57,5.46a5,5,0,0,1-1.84,1.66,28.15,28.15,0,0,1-2.49,1.32c-1.86.87-3.88,1.39-5.74,2.29s-3.06,2.28-2.58,4.33a14.21,14.21,0,0,0,1,2.48c.28.64.58,1.27.87,1.9.54,1.18,1.54,2.72,1.32,4.07a6.08,6.08,0,0,1-1.18,2.25c-.66,1-1.2,2-1.81,3-1.14,1.86-2.53,3.54-3.7,5.38-.7,1.09,1,2.09,1.73,1,1.1-1.73,2.39-3.32,3.49-5.05.59-.94,1.08-1.94,1.7-2.87a14.49,14.49,0,0,0,1.45-2.42c.7-1.72.1-3.35-.61-4.94-.35-.77-.7-1.53-1.06-2.3-.14-.3-.28-.6-.41-.9l-.08-.17-.36-.84c-.31-.72-.72-1.58-.15-2.26a5.22,5.22,0,0,1,2.11-1.26,66.64,66.64,0,0,0,6.24-2.59c1.75-.91,3.52-2,4.22-3.94.76-2.09.09-4.4-.81-6.34-.48-1.06-1.13-2-1.66-3.05a4,4,0,0,0-2-1.83,10.07,10.07,0,0,0-7.07-.2c-1.21.4-.69,2.33.54,1.93Z"/><path d="M694.47,140.84c-4.81.57-9.61-.09-14.4-.54-3.88-.37-8.72-.21-10.85,3.7-.92,1.69-1,4,.59,5.34s4,1.67,6,1.94a17.55,17.55,0,0,1,5.55,1.29,5.26,5.26,0,0,1,2,1.69,17.37,17.37,0,0,1,1.39,2.84,14.16,14.16,0,0,0,4,5.48,7.93,7.93,0,0,0,6.43,1.7c1.26-.25.73-2.18-.53-1.93-3.78.74-6.51-2.81-7.93-5.8-.81-1.71-1.4-3.53-2.93-4.77a10.49,10.49,0,0,0-4.64-2c-1.86-.38-3.78-.45-5.62-.93a6.42,6.42,0,0,1-2.45-1,2,2,0,0,1-.4-2.16,5,5,0,0,1,3.11-3,13.61,13.61,0,0,1,5.82-.4c4.95.45,9.9,1.18,14.86.59a1,1,0,0,0,1-1,1,1,0,0,0-1-1Z"/><path class="cls-8" d="M677,162.37c2.87,0,4.87,2.07,4.61,4.12a3.2,3.2,0,0,1,3,2.9c0,1.63-1.64,3-3.67,3H669.64c-2.33,0-3.63-1-3.63-2.49,0-1.28,1.21-2.27,2.84-2.49,0-2.22,2.57-3.13,4.4-2.39A4.09,4.09,0,0,1,677,162.37Z"/><circle class="cls-9" cx="661.1" cy="152.46" r="35.67"/><path class="cls-10" d="M708.88,134.48V104.75a5.74,5.74,0,0,0-4.3-5.62,5.5,5.5,0,0,0-4.77,1.09,5.63,5.63,0,0,0-2.12,4.36v29.84a11.13,11.13,0,1,0,16.7,9.64,10.9,10.9,0,0,0-5.51-9.58Z"/><path d="M704.17,137.69v-22.8a.92.92,0,1,0-1.83,0v22.8a6.49,6.49,0,1,0,1.83,0Zm-.91,11a4.65,4.65,0,1,1,4.65-4.65A4.67,4.67,0,0,1,703.26,148.71Z"/><path d="M708.88,134.48V104.75a5.74,5.74,0,0,0-4.3-5.62,5.5,5.5,0,0,0-4.77,1.09,5.63,5.63,0,0,0-2.12,4.36v29.84a11.13,11.13,0,1,0,16.7,9.64,10.9,10.9,0,0,0-5.51-9.58Zm-5.62,18.93A9.29,9.29,0,0,1,699,135.85a1,1,0,0,0,.52-.8V104.64a3.72,3.72,0,0,1,1.43-2.93,4,4,0,0,1,2.36-.8,4.34,4.34,0,0,1,.86.12,3.84,3.84,0,0,1,2.87,3.78v30.24a.8.8,0,0,0,.51.8,9.29,9.29,0,0,1-4.3,17.56Z"/><line class="cls-11" x1="711.42" y1="104.56" x2="717.99" y2="104.56"/><line class="cls-11" x1="711.42" y1="117.47" x2="717.99" y2="117.47"/><line class="cls-11" x1="711.42" y1="111.01" x2="715.21" y2="111.01"/><line class="cls-11" x1="711.42" y1="123.93" x2="715.21" y2="123.93"/><line class="cls-11" x1="711.42" y1="130.38" x2="717.99" y2="130.38"/><path class="cls-8" d="M680.92,115.44a3.76,3.76,0,0,1,4.06,3.79c0,2.08-1.52,2.87-4.06,2.87H659.48c-3-.12-5.38-1.26-5.38-3.74,0-2,2.17-3.7,4.67-3.77.4-3.19,2.56-6.21,6.55-6.21a7.85,7.85,0,0,1,7.15,4,5.49,5.49,0,0,1,2.39-.54,3.85,3.85,0,0,1,3.89,4.12,13.94,13.94,0,0,1,2.17-.47Z"/><path class="cls-8" d="M659.4,129.42c-2.87,0-4.87,2.07-4.61,4.11a3.21,3.21,0,0,0-3,2.91c0,1.63,1.64,2.95,3.67,2.95h11.23c2.34,0,3.63-.95,3.63-2.49,0-1.29-1.21-2.28-2.84-2.5,0-2.21-2.57-3.12-4.4-2.39A4.09,4.09,0,0,0,659.4,129.42Z"/><rect class="cls-5" x="608.01" y="199.95" width="120.55" height="24.22"/><circle class="cls-12" cx="221.17" cy="206.03" r="70.07"/><rect class="cls-5" x="162.29" y="259.99" width="120.55" height="24.22"/><line class="cls-4" x1="282.84" y1="202.38" x2="240.4" y2="202.38"/><line class="cls-4" x1="174.86" y1="202.38" x2="162.29" y2="202.38"/><line class="cls-4" x1="254.01" y1="214.21" x2="281.41" y2="214.21"/><line class="cls-4" x1="164.95" y1="214.21" x2="174.69" y2="214.21"/><line class="cls-4" x1="276.49" y1="226.04" x2="226.84" y2="226.04"/><line class="cls-4" x1="212.37" y1="226.04" x2="195.89" y2="226.04"/><g class="cls-13"><path class="cls-5" d="M186.16,209.24a7,7,0,0,1,1.37-3.18c1.08-1.17,2.79-1.46,4.22-2.16a2.77,2.77,0,0,0,.81-.53,6.69,6.69,0,0,0,.66-.92,5.47,5.47,0,0,1,1.18-1.07c1.78-1.3,3.89-2.39,6.09-2.21a2.45,2.45,0,0,1,2.28,1.42,7.82,7.82,0,0,0,.24,1.09,1.93,1.93,0,0,0,1.27.92,5.06,5.06,0,0,1,1.49.57,1.12,1.12,0,0,1,.42,1.41,1.41,1.41,0,0,1-.65.47,22.33,22.33,0,0,1-6,1.47q-7.12,1.06-14.2,2.41"/></g><path class="cls-14" d="M200,187.85a5.68,5.68,0,0,0-5,.41,4.49,4.49,0,0,0-2.41-2.84.36.36,0,0,0-.39.05.43.43,0,0,0-.13.38,3,3,0,0,1-.14,1.71,3.53,3.53,0,0,1-1.2,1.31.38.38,0,0,0,.05.67,4.48,4.48,0,0,0,3.71-.14,5.64,5.64,0,0,0,3,3.93,5.81,5.81,0,0,0,5-.44,1,1,0,0,0,.46-1,5.71,5.71,0,0,0-3.06-4Z"/><path class="cls-14" d="M196,192.5a5.74,5.74,0,0,0-4.66,1.8,4.47,4.47,0,0,0-3.11-2,.35.35,0,0,0-.36.16.44.44,0,0,0,0,.4,3,3,0,0,1,.35,1.68,3.51,3.51,0,0,1-.79,1.6.4.4,0,0,0-.07.38.41.41,0,0,0,.31.25,4.49,4.49,0,0,0,3.52-1.19,5.69,5.69,0,0,0,4,2.91,5.77,5.77,0,0,0,4.7-1.85,1,1,0,0,0,.15-1.13,5.76,5.76,0,0,0-4.07-3Z"/><path class="cls-14" d="M188.34,198.31a5.7,5.7,0,0,0-2.79,4.14,4.44,4.44,0,0,0-3.71.11.35.35,0,0,0-.21.34.43.43,0,0,0,.22.33,3,3,0,0,1,1.25,1.18,3.5,3.5,0,0,1,.27,1.76.39.39,0,0,0,.16.35.41.41,0,0,0,.4,0,4.47,4.47,0,0,0,2.2-3,5.71,5.71,0,0,0,5,.07,5.78,5.78,0,0,0,2.79-4.21,1,1,0,0,0-.52-1,5.74,5.74,0,0,0-5-.1Z"/><path class="cls-14" d="M208.72,202.84a5.73,5.73,0,0,0,3.82-3.22,4.44,4.44,0,0,0,3.6.91.35.35,0,0,0,.29-.27.41.41,0,0,0-.12-.38,3,3,0,0,1-.88-1.47,3.48,3.48,0,0,1,.23-1.77.4.4,0,0,0-.07-.39.39.39,0,0,0-.37-.13,4.49,4.49,0,0,0-2.94,2.28,5.65,5.65,0,0,0-4.77-1.43,5.81,5.81,0,0,0-3.84,3.28,1,1,0,0,0,.24,1.11,5.69,5.69,0,0,0,4.81,1.48Z"/><path class="cls-15" d="M251.05,179c-2.81.62-11,7.45-13.61,9.63l-.06-.07A1.78,1.78,0,0,0,236,188a3,3,0,0,0-2,1c-.06.06-.26.31-.26.31a42.15,42.15,0,0,1-3.64,2.43,10.4,10.4,0,0,1-1-1.66c-.2-.4-.62-1.11-.65-1.15A3,3,0,0,0,226,187.3a4.82,4.82,0,0,0-4,1.57c-3.1,3-5,9.43-5,12.41l1.26-.28c.14-2.81,1.88-8.6,4.61-11.22a4.53,4.53,0,0,1,1.64-1.06,3,3,0,0,0-.55.9c-.45,1.18.11,3.64,2,5.62a16.87,16.87,0,0,0-1,4.28l1.31-.29a15.89,15.89,0,0,1,.73-3.07c.95.77,2.35,1.65,3.53,1.39,1.66-.36,5.63-4,6.4-4.75l.46-.44-.54-.57a2.69,2.69,0,0,0,1.05-1.7,1.22,1.22,0,0,0,0-.33c3-2.59,9.9-8.25,12.75-9.48m-20.4,16c-.95.21-2.71-1.28-3.4-2-2.17-2.24-1.92-3.74-1.73-4.27a1.42,1.42,0,0,1,1.16-1,1.26,1.26,0,0,1,1.18.6s.37.63.56,1h0c.74,1.45,1.38,2.7,2.35,2.36a26.75,26.75,0,0,0,3.68-2.36l1.54,1.63C233.88,193.9,231.22,196.11,230.29,196.32Zm6.37-6.34a1.63,1.63,0,0,1-.63.87l0,0-1-1h0a1.83,1.83,0,0,1,1-.59.57.57,0,0,1,.44.2A.66.66,0,0,1,236.66,190Z"/><path class="cls-15" d="M220.19,186a.65.65,0,0,0,.57.17A.62.62,0,0,0,221,186c.24-.18,1-.68,2-1.32a4.26,4.26,0,0,0,4.55,2,4.37,4.37,0,0,0,3.2-5.27,4.89,4.89,0,0,0-.46-1.21,8.15,8.15,0,0,1,2.38-1,.64.64,0,0,0,.63-.64.64.64,0,0,0-.65-.62,7.81,7.81,0,0,0-2.55,1l-.13-.08-4.5-2.71a1.84,1.84,0,0,0-2.08.32l-2.55,2.38a1.9,1.9,0,0,0-.53,1.8l1,3.66-1.17.8a.63.63,0,0,0,0,.89Zm9.31-4.27a3.11,3.11,0,0,1-2.23,3.77,3,3,0,0,1-3.22-1.49c1.57-1,3.49-2.2,5.13-3.15A3.24,3.24,0,0,1,229.5,181.72Zm-7.8-1.95,2.55-2.39a.58.58,0,0,1,.61-.13l3.94,2.38c-2.12,1.19-4.6,2.78-6.36,3.94l-.91-3.24A.59.59,0,0,1,221.7,179.77Z"/><path class="cls-16" d="M185.42,209.12c3.73,9.21,15.09,13.08,27.2,10.4,11.08-2.45,20.89-11.06,20.29-20.9"/><line class="cls-16" x1="232.91" y1="198.62" x2="185.42" y2="209.12"/><path class="cls-4" d="M194.39,206.51c-.16-2-6-3.88-7.5,1"/><path class="cls-4" d="M202.6,200.87c-.16-2-6-3.88-7.49,1"/><path class="cls-4" d="M199.49,205c.28-2-5-5.08-7.53-.69"/><path class="cls-4" d="M206.68,204.45c.28-2-5-5.09-7.53-.7"/><path class="cls-17" d="M188.92,198.3a5.72,5.72,0,0,0-2.86,4.09,4.49,4.49,0,0,0-3.72.05.35.35,0,0,0-.2.33.41.41,0,0,0,.2.34,3,3,0,0,1,1.23,1.2,3.46,3.46,0,0,1,.24,1.76.4.4,0,0,0,.16.36.39.39,0,0,0,.39,0,4.51,4.51,0,0,0,2.26-3,5.64,5.64,0,0,0,5,.16,5.84,5.84,0,0,0,2.87-4.15,1,1,0,0,0-.51-1,5.77,5.77,0,0,0-5-.2Zm-4.32,7.14a3.09,3.09,0,0,0-1.26-2.56,3.92,3.92,0,0,1,2.61.3,4.08,4.08,0,0,1-1.35,2.26Zm6.82-2.53a.61.61,0,0,1-.18.1h0a5,5,0,0,1-4.48-.26,5.13,5.13,0,0,1,2.51-3.76l.41-.19a5.22,5.22,0,0,1,3.93.39.17.17,0,0,1,.1.2h0A5.32,5.32,0,0,1,191.42,202.91Z"/><path class="cls-17" d="M196.1,192.82a5.72,5.72,0,0,0-4.72,1.6,4.52,4.52,0,0,0-3-2.16.35.35,0,0,0-.36.15.39.39,0,0,0,0,.39,3.07,3.07,0,0,1,.28,1.7,3.47,3.47,0,0,1-.85,1.56.42.42,0,0,0-.09.39.41.41,0,0,0,.3.26,4.53,4.53,0,0,0,3.57-1.05,5.69,5.69,0,0,0,3.92,3.07,5.8,5.8,0,0,0,4.77-1.66,1,1,0,0,0,.19-1.12,5.72,5.72,0,0,0-4-3.13Zm-7.7,3.2a3.43,3.43,0,0,0,.59-1.37,3.35,3.35,0,0,0-.1-1.44,3.93,3.93,0,0,1,1.94,1.79,4.18,4.18,0,0,1-2.43,1Zm7,2-.21,0h0a5.05,5.05,0,0,1-3.46-2.86,5.16,5.16,0,0,1,4.25-1.56l.44.1a5.16,5.16,0,0,1,2.94,2.64.16.16,0,0,1,0,.22h0A5.33,5.33,0,0,1,195.4,198Z"/><path class="cls-17" d="M208.72,202.84a5.73,5.73,0,0,0,3.82-3.22,4.44,4.44,0,0,0,3.6.91.35.35,0,0,0,.29-.27.41.41,0,0,0-.12-.38,3,3,0,0,1-.88-1.47,3.48,3.48,0,0,1,.23-1.77.4.4,0,0,0-.07-.39.39.39,0,0,0-.37-.13,4.49,4.49,0,0,0-2.94,2.28,5.65,5.65,0,0,0-4.77-1.43,5.81,5.81,0,0,0-3.84,3.28,1,1,0,0,0,.24,1.11,5.69,5.69,0,0,0,4.81,1.48Zm6-5.79a3.14,3.14,0,0,0,.56,2.8,4,4,0,0,1-2.45-1,4.14,4.14,0,0,1,1.89-1.84Zm-7.24.7a.8.8,0,0,1,.2-.06h0A5,5,0,0,1,212,199.1a5.15,5.15,0,0,1-3.39,3l-.44.07a5.19,5.19,0,0,1-3.7-1.38.17.17,0,0,1,0-.22h0A5.34,5.34,0,0,1,207.49,197.75Z"/><path class="cls-17" d="M199.67,187.77a5.68,5.68,0,0,0-4.95.61,4.49,4.49,0,0,0-2.52-2.74.37.37,0,0,0-.39.07.42.42,0,0,0-.11.38,3,3,0,0,1-.07,1.72,3.51,3.51,0,0,1-1.15,1.35.41.41,0,0,0-.16.36.37.37,0,0,0,.23.31,4.47,4.47,0,0,0,3.71-.29,5.66,5.66,0,0,0,3.21,3.81,5.8,5.8,0,0,0,5-.65,1,1,0,0,0,.41-1.06,5.73,5.73,0,0,0-3.22-3.87Zm-8.2,1.56a3.48,3.48,0,0,0,.87-1.23,3.53,3.53,0,0,0,.2-1.42,3.91,3.91,0,0,1,1.52,2.14,4.19,4.19,0,0,1-2.59.51Zm6.45,3.37a.56.56,0,0,1-.2-.06h0a5,5,0,0,1-2.8-3.5,5.13,5.13,0,0,1,4.47-.66l.41.18a5.24,5.24,0,0,1,2.35,3.19.17.17,0,0,1-.08.21h0A5.32,5.32,0,0,1,197.92,192.7Z"/><path class="cls-14" d="M206,197.48a5.74,5.74,0,0,0,2.23-4.47,4.45,4.45,0,0,0,3.67-.59.34.34,0,0,0,.15-.36.42.42,0,0,0-.25-.3,3.06,3.06,0,0,1-1.4-1,3.51,3.51,0,0,1-.49-1.71.42.42,0,0,0-.21-.33.39.39,0,0,0-.39,0,4.46,4.46,0,0,0-1.8,3.25,5.68,5.68,0,0,0-4.95.57,5.81,5.81,0,0,0-2.22,4.53,1,1,0,0,0,.65.94,5.77,5.77,0,0,0,5-.55Z"/><path class="cls-17" d="M206.15,197.51a5.69,5.69,0,0,0,2-4.58,4.51,4.51,0,0,0,3.63-.8.34.34,0,0,0,.14-.37.44.44,0,0,0-.27-.29,2.9,2.9,0,0,1-1.45-.92,3.51,3.51,0,0,1-.59-1.68.4.4,0,0,0-.23-.32.37.37,0,0,0-.39,0,4.48,4.48,0,0,0-1.61,3.34,5.72,5.72,0,0,0-4.91.85,5.85,5.85,0,0,0-2,4.66,1,1,0,0,0,.71.89,5.72,5.72,0,0,0,5-.83Zm2.78-7.87a3.15,3.15,0,0,0,1.76,2.26,4,4,0,0,1-2.62.24,4.23,4.23,0,0,1,.86-2.5Zm-6.16,3.87a.69.69,0,0,1,.15-.14h0a5,5,0,0,1,4.44-.65,5.11,5.11,0,0,1-1.69,4.19c-.11.09-.24.17-.36.26a5.2,5.2,0,0,1-3.93.42.17.17,0,0,1-.14-.18h0A5.28,5.28,0,0,1,202.77,193.51Z"/><path class="cls-17" d="M180.69,223.34a5.75,5.75,0,0,0-4.5,2.15,4.49,4.49,0,0,0-3.26-1.79.38.38,0,0,0-.35.19.43.43,0,0,0,0,.4,3,3,0,0,1,.48,1.65,3.46,3.46,0,0,1-.66,1.65.41.41,0,0,0,0,.39.38.38,0,0,0,.33.22,4.48,4.48,0,0,0,3.42-1.45,5.67,5.67,0,0,0,4.25,2.58,5.8,5.8,0,0,0,4.54-2.2A1,1,0,0,0,185,226a5.77,5.77,0,0,0-4.29-2.65Zm-7.27,4.09a3.59,3.59,0,0,0,.43-1.43,3.52,3.52,0,0,0-.27-1.42,3.92,3.92,0,0,1,2.13,1.55,4.2,4.2,0,0,1-2.29,1.3Zm7.18,1.15h-.2a5.05,5.05,0,0,1-3.77-2.44,5.09,5.09,0,0,1,4-2l.44,0a5.19,5.19,0,0,1,3.24,2.28.17.17,0,0,1,0,.22h0A5.33,5.33,0,0,1,180.6,228.58Z"/><path class="cls-17" d="M242.49,241.71a5.69,5.69,0,0,0,4.51-2.15,4.43,4.43,0,0,0,3.25,1.79.36.36,0,0,0,.35-.18.43.43,0,0,0,0-.4,3,3,0,0,1-.48-1.65,3.54,3.54,0,0,1,.67-1.65.41.41,0,0,0,0-.39.38.38,0,0,0-.33-.22,4.48,4.48,0,0,0-3.42,1.45,5.7,5.7,0,0,0-4.25-2.59,5.86,5.86,0,0,0-4.55,2.21,1,1,0,0,0,0,1.14,5.71,5.71,0,0,0,4.28,2.64Zm7.28-4.08a3.43,3.43,0,0,0-.43,1.43,3.39,3.39,0,0,0,.27,1.42,3.92,3.92,0,0,1-2.13-1.55,4.1,4.1,0,0,1,2.29-1.3Zm-7.18-1.15a.64.64,0,0,1,.2,0h0a5.05,5.05,0,0,1,3.77,2.44,5.17,5.17,0,0,1-4,2l-.45,0a5.23,5.23,0,0,1-3.23-2.28.16.16,0,0,1,0-.22h0A5.31,5.31,0,0,1,242.59,236.48Z"/><line class="cls-4" x1="176.63" y1="237.86" x2="228.51" y2="237.86"/><line class="cls-4" x1="261.62" y1="237.86" x2="269.03" y2="237.86"/><line class="cls-4" x1="189.3" y1="249.69" x2="248.62" y2="249.69"/><circle class="cls-4" cx="187.41" cy="161.86" r="5.41"/><polyline class="cls-12" points="227.47 215.03 185.96 215.03 185.96 222.65 227.47 222.65 227.47 215.03"/><line class="cls-4" x1="251.15" y1="179.59" x2="251.15" y2="206.65"/><line class="cls-4" x1="183.29" y1="214.21" x2="232.19" y2="214.21"/><path d="M93.81,28.08V9.17h4V17h8.12V9.17h4V28.08h-4V20.27H97.8v7.81Z"/><path d="M114,28.08V9.17h4V24.78h8.11v3.3Z"/><path d="M133.25,28.08H129l6.53-18.91h5.15l6.52,18.91h-4.28l-4.74-14.59H138ZM133,20.65H143.1v3.12H133Z"/><path d="M151.28,9.17l4.57,14.37H156l4.58-14.37H165l-6.52,18.91h-5.15L146.84,9.17Z"/><path d="M183.91,9.17V28.08h-3.46l-8.22-11.9h-.14v11.9h-4V9.17h3.51l8.16,11.89h.17V9.17Z"/><path d="M192,9.17V28.08h-4V9.17Zm-3.4-1.83,2-4.2h3.64l-2.82,4.2Z"/><path d="M202.87,28.08V9.17h12.52v3.3h-8.53V17h7.7v3.3h-7.7v7.81Z"/><path d="M219.75,28.08h-4.28L222,9.17h5.16l6.51,18.91h-4.28l-4.74-14.59h-.15Zm-.27-7.43H229.6v3.12H219.48Z"/><path d="M236.71,28.08V9.17h4v8.34H241l6.81-8.34h4.79l-7,8.47,7.1,10.44h-4.78l-5.18-7.77-2,2.4v5.37Z"/><path d="M254.7,12.47V9.17h15.53v3.3h-5.79V28.08h-3.95V12.47Z"/><path d="M290.12,18.63A11,11,0,0,1,289,23.89a8.13,8.13,0,0,1-3.18,3.31,9.51,9.51,0,0,1-9,0,8.19,8.19,0,0,1-3.17-3.32,11.06,11.06,0,0,1-1.16-5.25,11.12,11.12,0,0,1,1.16-5.27,8.17,8.17,0,0,1,3.17-3.31,9.51,9.51,0,0,1,9,0A8.19,8.19,0,0,1,289,13.36,11,11,0,0,1,290.12,18.63Zm-4.06,0a8.42,8.42,0,0,0-.59-3.38,4.66,4.66,0,0,0-1.68-2.09,4.86,4.86,0,0,0-5.06,0,4.57,4.57,0,0,0-1.67,2.09,8.41,8.41,0,0,0-.6,3.38,8.48,8.48,0,0,0,.6,3.38,4.55,4.55,0,0,0,1.67,2.08,4.86,4.86,0,0,0,5.06,0A4.63,4.63,0,0,0,285.47,22,8.49,8.49,0,0,0,286.06,18.63Z"/><path d="M293.85,28.08V9.17h7.46a8.18,8.18,0,0,1,3.66.76,5.4,5.4,0,0,1,2.32,2.16,6.43,6.43,0,0,1,.8,3.26,6.21,6.21,0,0,1-.81,3.24,5.34,5.34,0,0,1-2.35,2.07,8.75,8.75,0,0,1-3.72.72h-5V18.17h4.34a5,5,0,0,0,1.91-.32,2.3,2.3,0,0,0,1.13-.94,3,3,0,0,0,.37-1.56,3.12,3.12,0,0,0-.37-1.59,2.35,2.35,0,0,0-1.14-1,4.66,4.66,0,0,0-1.91-.34h-2.7V28.08Zm10.21-8.6,4.7,8.6h-4.41l-4.6-8.6Z"/><path d="M310.59,9.17h4.47l4.32,8.15h.18l4.31-8.15h4.48l-6.9,12.23v6.68h-4V21.4Z"/><path d="M337.92,28.08V25.71l9.43-13.24H337.9V9.17h14.47v2.38l-9.44,13.23h9.46v3.3Z"/><path d="M355.52,12.47V9.17h15.53v3.3h-5.79V28.08h-3.95V12.47Z"/><path d="M374.39,28.08V9.17h7.46a8.25,8.25,0,0,1,3.67.76,5.37,5.37,0,0,1,2.31,2.16,6.43,6.43,0,0,1,.8,3.26,6.21,6.21,0,0,1-.81,3.24,5.29,5.29,0,0,1-2.35,2.07,8.72,8.72,0,0,1-3.72.72h-5V18.17h4.35a5,5,0,0,0,1.9-.32,2.3,2.3,0,0,0,1.13-.94,3,3,0,0,0,.37-1.56,3.12,3.12,0,0,0-.37-1.59,2.35,2.35,0,0,0-1.14-1,4.6,4.6,0,0,0-1.91-.34h-2.7V28.08Zm10.22-8.6,4.7,8.6h-4.42l-4.6-8.6Z"/><path d="M395.5,28.08h-4.29l6.53-18.91h5.15l6.52,18.91h-4.28l-4.74-14.59h-.15Zm-.27-7.43h10.12v3.12H395.23ZM398.9,7.34l2-4.2h3.64l-2.82,4.2Z"/><path d="M409.41,12.47V9.17h15.53v3.3h-5.78V28.08h-4V12.47Z"/><path d="M427.18,9.17h4.48L436,17.32h.19l4.31-8.15H445l-6.9,12.23v6.68h-4V21.4Z"/><path d="M454.72,28.08V9.17h7.57a8.64,8.64,0,0,1,3.48.62A4.4,4.4,0,0,1,468.56,14a4,4,0,0,1-.44,1.94,3.72,3.72,0,0,1-1.21,1.37,5.15,5.15,0,0,1-1.76.75v.19a4.3,4.3,0,0,1,3.56,2.18,4.63,4.63,0,0,1,.59,2.41,4.89,4.89,0,0,1-.74,2.68,5.18,5.18,0,0,1-2.19,1.86,8.47,8.47,0,0,1-3.58.68Zm4-11h3a3.4,3.4,0,0,0,1.46-.29,2.45,2.45,0,0,0,1-.82,2.28,2.28,0,0,0,.37-1.29,2.09,2.09,0,0,0-.72-1.65,3.06,3.06,0,0,0-2.06-.63h-3Zm0,7.73H462a3.75,3.75,0,0,0,2.44-.64,2.13,2.13,0,0,0,.77-1.71,2.59,2.59,0,0,0-.38-1.39,2.56,2.56,0,0,0-1.08-.94,3.7,3.7,0,0,0-1.66-.34h-3.35Z"/><path d="M476.68,9.17V28.08h-4V9.17Z"/><path d="M498.13,18.63A11,11,0,0,1,497,23.89a8.13,8.13,0,0,1-3.18,3.31,9.51,9.51,0,0,1-9,0,8.19,8.19,0,0,1-3.17-3.32,11.06,11.06,0,0,1-1.16-5.25,11.12,11.12,0,0,1,1.16-5.27,8.17,8.17,0,0,1,3.17-3.31,9.51,9.51,0,0,1,9,0A8.19,8.19,0,0,1,497,13.36,11,11,0,0,1,498.13,18.63Zm-4.06,0a8.42,8.42,0,0,0-.59-3.38,4.66,4.66,0,0,0-1.68-2.09,4.86,4.86,0,0,0-5.06,0,4.57,4.57,0,0,0-1.67,2.09,8.41,8.41,0,0,0-.6,3.38,8.48,8.48,0,0,0,.6,3.38,4.55,4.55,0,0,0,1.67,2.08,4.86,4.86,0,0,0,5.06,0A4.63,4.63,0,0,0,493.48,22,8.49,8.49,0,0,0,494.07,18.63Z"/><path d="M508.56,28.08h-6.7V9.17h6.76a10.09,10.09,0,0,1,4.91,1.13,7.76,7.76,0,0,1,3.17,3.25,10.65,10.65,0,0,1,1.12,5.06,10.73,10.73,0,0,1-1.12,5.08A7.75,7.75,0,0,1,513.52,27,10.27,10.27,0,0,1,508.56,28.08Zm-2.7-3.42h2.54a6.33,6.33,0,0,0,3-.64,4,4,0,0,0,1.82-2,8.29,8.29,0,0,0,.62-3.45,8.22,8.22,0,0,0-.62-3.43,4,4,0,0,0-1.82-1.95,6.41,6.41,0,0,0-3-.63h-2.55Z"/><path d="M525.55,9.17V28.08h-4V9.17Z"/><path d="M533,9.17l4.57,14.37h.18l4.58-14.37h4.43l-6.52,18.91h-5.15L528.6,9.17Z"/><path d="M549.85,28.08V9.17h12.74v3.3h-8.74V17h8.09v3.3h-8.09v4.51h8.78v3.3Z"/><path d="M566.56,28.08V9.17H574a8.24,8.24,0,0,1,3.66.76A5.37,5.37,0,0,1,580,12.09a6.33,6.33,0,0,1,.8,3.26,6.21,6.21,0,0,1-.81,3.24,5.23,5.23,0,0,1-2.35,2.07,8.69,8.69,0,0,1-3.72.72h-5V18.17h4.35a5,5,0,0,0,1.9-.32,2.26,2.26,0,0,0,1.13-.94,3,3,0,0,0,.38-1.56,3.12,3.12,0,0,0-.38-1.59,2.37,2.37,0,0,0-1.13-1,4.68,4.68,0,0,0-1.92-.34h-2.7V28.08Zm10.21-8.6,4.7,8.6h-4.42l-4.59-8.6Z"/><path d="M584.2,28.08V25.71l9.43-13.24h-9.45V9.17h14.47v2.38l-9.44,13.23h9.46v3.3Z"/><path d="M606.52,9.17V28.08h-4V9.17Z"/><path d="M609.87,12.47V9.17H625.4v3.3h-5.79V28.08h-4V12.47Z"/><path d="M627.64,9.17h4.48l4.31,8.15h.18l4.32-8.15h4.47L638.51,21.4v6.68h-4V21.4Z"/><circle class="cls-18" cx="370.21" cy="145.99" r="70.07"/><g class="cls-19"><path class="cls-5" d="M407.19,192c4.43-.26,10.54-11.49,13.24-17.78,3.14-7.34,4.49-15.55,9.08-22.08a20.88,20.88,0,0,1,5.5-5.47l-12.17-2.27c-4.91,3.17-8.83,7.61-13.37,11.29-12.23,9.93-28.17,13.78-43.6,17-15.25,3.19-31,6.23-44,14.82-.13.09-1.58.73-.41.94C352.39,194.29,380.83,193.55,407.19,192Z"/></g><rect class="cls-5" x="311.33" y="199.95" width="120.55" height="24.22"/><line class="cls-11" x1="309.42" y1="142.52" x2="410.23" y2="142.52"/><line class="cls-4" x1="406.13" y1="146.94" x2="410.53" y2="142.54"/><line class="cls-4" x1="387.67" y1="153.7" x2="398.82" y2="142.54"/><line class="cls-4" x1="371.01" y1="158.65" x2="387.12" y2="142.54"/><line class="cls-4" x1="353.29" y1="164.66" x2="375.42" y2="142.54"/><line class="cls-4" x1="336.92" y1="169.33" x2="363.71" y2="142.54"/><line class="cls-4" x1="309" y1="169.28" x2="327.34" y2="169.28"/><line class="cls-4" x1="309" y1="160.36" x2="336.53" y2="160.36"/><line class="cls-4" x1="309" y1="151.44" x2="345.72" y2="151.44"/><line class="cls-11" x1="363.66" y1="141.52" x2="363.66" y2="133.58"/><line class="cls-11" x1="352.51" y1="141.52" x2="352.51" y2="135.42"/><line class="cls-11" x1="341.87" y1="141.52" x2="341.87" y2="137.62"/><path d="M422.38,143.65c-6.22,4-11,9.92-17.12,14.09a74.9,74.9,0,0,1-19.21,9A204,204,0,0,1,365.11,172c-7.26,1.52-14.53,3-21.65,5.08a84,84,0,0,0-20.14,8.49c-.8.49-1.58,1-2.36,1.51-.95.64,0,2.2.91,1.56a76,76,0,0,1,19.9-9.17c7.07-2.22,14.34-3.75,21.59-5.27,7.07-1.47,14.14-2.95,21.06-5A82.38,82.38,0,0,0,404,160.7a61.07,61.07,0,0,0,8.62-6.48c2.77-2.47,5.41-5.12,8.36-7.38.75-.57,1.53-1.12,2.32-1.64,1-.63.07-2.18-.91-1.55Z"/><path d="M434.56,145.93c-5.85,3.88-8.83,10.41-11,16.84-1.1,3.22-2.08,6.49-3.32,9.67A47.16,47.16,0,0,1,408,190.21c-.86.79.42,2.06,1.27,1.28A48.81,48.81,0,0,0,421,175.09c2.73-6.22,4.06-13,7.2-19a22.35,22.35,0,0,1,7.24-8.57c1-.64.06-2.2-.91-1.55Z"/><path class="cls-4" d="M333,118.24l.49-.07"/><path class="cls-20" d="M337.77,118.4c6.25,1,15.57,5,19.63,13.28"/><path class="cls-4" d="M358.24,133.66c.06.15.11.31.17.47"/><path class="cls-4" d="M334.79,116.84l.47-.14"/><path class="cls-21" d="M339.15,116.17c7.42-.14,18.12,3.69,23.41,12.31"/><path class="cls-4" d="M363.51,130.21l.21.45"/><path class="cls-4" d="M336.49,114.94l.46-.19"/><path class="cls-22" d="M340.87,113.8c8.18-1,19.22,2.77,25.26,10.27"/><path class="cls-4" d="M367.33,125.7c.09.14.19.28.27.42"/><line class="cls-23" x1="388.95" y1="141.52" x2="388.95" y2="135.04"/><path d="M390,130c.05-1.06-.09-2.12-.13-3.18,0-.24,0-.48,0-.72s0-.24,0-.36a.66.66,0,0,0,0-.14c0,.14,0-.06,0-.11a2.09,2.09,0,0,1,.21-.63,1.43,1.43,0,0,1,.52-.4,2,2,0,0,1,1.44-.11.73.73,0,0,1,.25.11,1.24,1.24,0,0,1,.21.14s.24.25.17.17l.11.16.07.13a1.5,1.5,0,0,1,.11.36c0-.14,0,0,0,0v.19c0-.12,0,0,0,0a1.52,1.52,0,0,1-.06.2l0,.06a2.26,2.26,0,0,1-.16.26,3.42,3.42,0,0,1-.43.4,5.36,5.36,0,0,1-.84.48,9.53,9.53,0,0,0-1,.45,3.57,3.57,0,0,0-.81.69l-.95,1a.93.93,0,0,0,0,1.28.92.92,0,0,0,1.27,0c.32-.34.64-.66,1-1a2.08,2.08,0,0,1,.74-.55c.28-.13.66-.28,1-.45,1.39-.73,2.58-2.24,2-3.89a3.35,3.35,0,0,0-3.84-2.08,3.39,3.39,0,0,0-2,1.08,3.74,3.74,0,0,0-.75,2.28c-.06,1.37.2,2.73.13,4.1a.9.9,0,0,0,1.8,0Z"/><path d="M389.71,130c0-1.23.14-2.46.14-3.68a4.81,4.81,0,0,0-.39-2.15,3,3,0,0,0-1.85-1.5,3.44,3.44,0,0,0-4.09,1.39,2.82,2.82,0,0,0-.26,2.27,3.76,3.76,0,0,0,1.54,1.91,7.62,7.62,0,0,0,1.06.55,2.9,2.9,0,0,1,.92.49c.4.39.78.82,1.16,1.23a.91.91,0,1,0,1.28-1.28c-.28-.29-.57-.58-.85-.88a4.27,4.27,0,0,0-1.51-1.08,5.49,5.49,0,0,1-1.43-.81,1.5,1.5,0,0,1-.43-.59s-.07-.22-.07-.27c0,.14,0-.35,0-.18a1.5,1.5,0,0,1,2-1.09,1.77,1.77,0,0,1,.63.27,1,1,0,0,1,.36.41,2.3,2.3,0,0,1,.12.43l0,.22c0-.14,0,0,0,0,0,.25,0,.49,0,.74,0,1.19-.19,2.39-.14,3.59a.93.93,0,0,0,.9.9.91.91,0,0,0,.9-.9Z"/><path d="M390,136.64c.05-1-.09-2.12-.13-3.17,0-.24,0-.48,0-.72s0-.24,0-.36a.71.71,0,0,0,0-.14c0,.14,0-.06,0-.11a2.17,2.17,0,0,1,.21-.64,1.51,1.51,0,0,1,.52-.39,2,2,0,0,1,1.44-.11.73.73,0,0,1,.25.11.63.63,0,0,1,.21.14s.24.25.17.17l.11.16s.13.25.07.12a1.73,1.73,0,0,1,.11.37c0-.14,0,0,0,0v.19c0-.13,0,0,0,0a1.39,1.39,0,0,1-.06.19c0-.08,0,.06,0,.07a2.26,2.26,0,0,1-.16.26,3.42,3.42,0,0,1-.43.4,5.36,5.36,0,0,1-.84.48,9.53,9.53,0,0,0-1,.45,3.57,3.57,0,0,0-.81.69l-.95,1a.92.92,0,0,0,0,1.27.9.9,0,0,0,1.27,0l1-1a2.08,2.08,0,0,1,.74-.55c.28-.13.66-.28,1-.45,1.39-.73,2.58-2.25,2-3.89a3.35,3.35,0,0,0-3.84-2.08,3.39,3.39,0,0,0-2,1.08,3.74,3.74,0,0,0-.75,2.28c-.06,1.37.2,2.73.13,4.09a.9.9,0,0,0,1.8,0Z"/><path d="M389.71,136.64c0-1.22.14-2.45.14-3.67a4.78,4.78,0,0,0-.39-2.15,3,3,0,0,0-1.85-1.5,3.44,3.44,0,0,0-4.09,1.39,2.8,2.8,0,0,0-.26,2.26,3.75,3.75,0,0,0,1.54,1.92,7.62,7.62,0,0,0,1.06.55,2.9,2.9,0,0,1,.92.49c.4.39.78.81,1.16,1.22a.9.9,0,1,0,1.28-1.27c-.28-.3-.57-.58-.85-.88a4.27,4.27,0,0,0-1.51-1.08,5.49,5.49,0,0,1-1.43-.81,1.5,1.5,0,0,1-.43-.59s-.07-.23-.07-.27c0,.14,0-.35,0-.18a1.5,1.5,0,0,1,2-1.09,1.77,1.77,0,0,1,.63.27,1,1,0,0,1,.36.41,2.3,2.3,0,0,1,.12.43l0,.22c0-.14,0,0,0,0,0,.24,0,.49,0,.74,0,1.19-.19,2.39-.14,3.58a.92.92,0,0,0,.9.9.9.9,0,0,0,.9-.9Z"/><line class="cls-23" x1="374.74" y1="141.52" x2="374.74" y2="135.04"/><path d="M375.78,135.52c.05-1.05-.09-2.12-.13-3.17,0-.24,0-.48,0-.72s0-.24,0-.36,0-.1,0-.15c0,.15,0-.05,0-.1a1.91,1.91,0,0,1,.21-.64,1.29,1.29,0,0,1,.52-.39,2,2,0,0,1,1.44-.11.73.73,0,0,1,.25.11c.13.07.14.07.2.14s.24.25.18.17l.11.16s.12.25.07.12a1.56,1.56,0,0,1,.1.37c0-.14,0,0,0,0a1.28,1.28,0,0,1,0,.19c0-.13,0,0,0,0l-.06.19c0-.09,0,.06,0,.07a2.26,2.26,0,0,1-.16.26,3.28,3.28,0,0,1-.42.4,5,5,0,0,1-.85.48,10.45,10.45,0,0,0-1,.45,3.57,3.57,0,0,0-.81.69l-.95,1a.92.92,0,0,0,0,1.27.9.9,0,0,0,1.27,0l.95-1a2,2,0,0,1,.74-.55c.28-.13.66-.28,1-.45,1.4-.73,2.59-2.25,2-3.89a3.33,3.33,0,0,0-3.84-2.08,3.45,3.45,0,0,0-2,1.08,3.77,3.77,0,0,0-.74,2.28c-.07,1.36.2,2.73.13,4.09a.9.9,0,0,0,1.8,0Z"/><path d="M375.5,135.52c-.06-1.22.14-2.45.14-3.67a4.9,4.9,0,0,0-.39-2.15,3,3,0,0,0-1.85-1.5,3.42,3.42,0,0,0-4.09,1.39,2.81,2.81,0,0,0-.27,2.26,3.74,3.74,0,0,0,1.55,1.91,6,6,0,0,0,1.06.56,3,3,0,0,1,.92.49c.4.39.78.81,1.16,1.22a.9.9,0,0,0,1.27-1.27c-.27-.3-.56-.59-.84-.88a4.27,4.27,0,0,0-1.51-1.08,5.49,5.49,0,0,1-1.43-.81,1.69,1.69,0,0,1-.44-.59s-.06-.23-.07-.27c0,.14,0-.35,0-.18a1.49,1.49,0,0,1,2-1.09,1.74,1.74,0,0,1,.64.27,1,1,0,0,1,.36.41,2.7,2.7,0,0,1,.11.43,1.55,1.55,0,0,1,0,.21c0-.14,0,0,0,0,0,.24,0,.49,0,.73,0,1.2-.2,2.4-.14,3.59a.9.9,0,1,0,1.8,0Z"/><line class="cls-23" x1="403.98" y1="141.52" x2="403.98" y2="135.04"/><path d="M405,130c.05-1.06-.09-2.12-.13-3.18,0-.24,0-.48,0-.72s0-.24,0-.36a.66.66,0,0,1,0-.14c0,.14,0-.06,0-.11a1.85,1.85,0,0,1,.21-.63,1.43,1.43,0,0,1,.52-.4,2,2,0,0,1,1.43-.11.77.77,0,0,1,.26.11,1.07,1.07,0,0,1,.2.14s.24.25.18.17a1.4,1.4,0,0,1,.1.16s.13.25.08.13a1.48,1.48,0,0,1,.1.36c0-.14,0,0,0,0a1.28,1.28,0,0,1,0,.19c0-.12,0,0,0,0l-.06.2c0-.09,0,.06,0,.06a2.26,2.26,0,0,1-.16.26,3.28,3.28,0,0,1-.42.4,5.46,5.46,0,0,1-.85.48,8.54,8.54,0,0,0-1,.45,3.85,3.85,0,0,0-.82.69l-.94,1a.9.9,0,1,0,1.27,1.28c.31-.34.63-.66.95-1a2,2,0,0,1,.73-.55c.28-.13.67-.28,1-.45,1.39-.73,2.59-2.24,2-3.89a3.33,3.33,0,0,0-3.84-2.08,3.42,3.42,0,0,0-2,1.08,3.79,3.79,0,0,0-.74,2.28c-.07,1.37.19,2.73.13,4.1a.9.9,0,0,0,1.8,0Z"/><path d="M404.74,130c-.06-1.23.14-2.46.14-3.68a5,5,0,0,0-.39-2.15,3.07,3.07,0,0,0-1.85-1.5,3.43,3.43,0,0,0-4.09,1.39,2.83,2.83,0,0,0-.27,2.27,3.73,3.73,0,0,0,1.55,1.91,6.65,6.65,0,0,0,1.06.55,2.85,2.85,0,0,1,.91.49c.41.39.79.82,1.17,1.23a.9.9,0,1,0,1.27-1.28l-.84-.88a4.27,4.27,0,0,0-1.51-1.08,5.18,5.18,0,0,1-1.43-.81,1.53,1.53,0,0,1-.44-.59s-.06-.22-.07-.27c0,.14,0-.35,0-.18a1.49,1.49,0,0,1,2-1.09,1.7,1.7,0,0,1,.63.27,1,1,0,0,1,.37.41,3.39,3.39,0,0,1,.11.43c0,.07,0,.14,0,.22,0-.14,0,0,0,0,0,.25,0,.49,0,.74,0,1.19-.2,2.39-.14,3.59a.9.9,0,0,0,1.8,0Z"/><path d="M405,136.64c.05-1-.09-2.12-.13-3.17,0-.24,0-.48,0-.72s0-.24,0-.36a.61.61,0,0,1,0-.14c0,.14,0-.06,0-.11a1.91,1.91,0,0,1,.21-.64,1.51,1.51,0,0,1,.52-.39,2,2,0,0,1,1.43-.11.77.77,0,0,1,.26.11.57.57,0,0,1,.2.14s.24.25.18.17a1.4,1.4,0,0,1,.1.16s.13.25.08.12a1.7,1.7,0,0,1,.1.37c0-.14,0,0,0,0a1.28,1.28,0,0,1,0,.19c0-.13,0,0,0,0l-.06.19c0-.08,0,.06,0,.07a2.26,2.26,0,0,1-.16.26,3.28,3.28,0,0,1-.42.4,5.46,5.46,0,0,1-.85.48,8.54,8.54,0,0,0-1,.45,3.85,3.85,0,0,0-.82.69l-.94,1a.91.91,0,0,0,0,1.27.9.9,0,0,0,1.27,0l.95-1a2,2,0,0,1,.73-.55c.28-.13.67-.28,1-.45,1.39-.73,2.59-2.25,2-3.89a3.33,3.33,0,0,0-3.84-2.08,3.42,3.42,0,0,0-2,1.08,3.79,3.79,0,0,0-.74,2.28c-.07,1.37.19,2.73.13,4.09a.9.9,0,0,0,1.8,0Z"/><path d="M404.74,136.64c-.06-1.22.14-2.45.14-3.67a4.92,4.92,0,0,0-.39-2.15,3.07,3.07,0,0,0-1.85-1.5,3.43,3.43,0,0,0-4.09,1.39,2.81,2.81,0,0,0-.27,2.26,3.72,3.72,0,0,0,1.55,1.92,6.65,6.65,0,0,0,1.06.55,2.85,2.85,0,0,1,.91.49c.41.39.79.81,1.17,1.22a.9.9,0,0,0,1.27,0,.91.91,0,0,0,0-1.27c-.27-.3-.56-.58-.84-.88a4.27,4.27,0,0,0-1.51-1.08,5.18,5.18,0,0,1-1.43-.81,1.53,1.53,0,0,1-.44-.59s-.06-.23-.07-.27c0,.14,0-.35,0-.18a1.49,1.49,0,0,1,2-1.09,1.7,1.7,0,0,1,.63.27,1,1,0,0,1,.37.41,3.39,3.39,0,0,1,.11.43c0,.07,0,.14,0,.22,0-.14,0,0,0,0,0,.24,0,.49,0,.74,0,1.19-.2,2.39-.14,3.58a.9.9,0,0,0,1.8,0Z"/><circle class="cls-24" cx="431.49" cy="193" r="0.62"/><rect class="cls-14" x="324.75" y="114.25" width="3.7" height="4.22" transform="translate(41.31 -80.67) rotate(15.02)"/><rect class="cls-14" x="317.81" y="118.34" width="12.18" height="17.99" transform="translate(44.07 -79.59) rotate(15.02)"/><path class="cls-25" d="M332.53,121.51a1.75,1.75,0,0,0-1.27-2.14l-2.12-.55.18-1.17.53.14a1.18,1.18,0,0,0,1.43-.85l.1-.38a1.18,1.18,0,0,0-.85-1.43l-5-1.29a1.18,1.18,0,0,0-1.4.74l-1,2.69-2.12-.54a1.76,1.76,0,0,0-1.42,3.16l-3,11.54a1.56,1.56,0,0,0-1.51,1.17l-.29,1.14a1.56,1.56,0,0,0,1.12,1.91l10.63,2.74a1.58,1.58,0,0,0,1.91-1.13l.29-1.14a1.57,1.57,0,0,0-.76-1.75l3-11.55a1.76,1.76,0,0,0,1.55-1.31Zm-1.91-5.14-.1.38a.39.39,0,0,1-.48.28l-.6-.16a9.11,9.11,0,0,0,.14-1.17l.76.19A.39.39,0,0,1,330.62,116.37Zm-5.75-1.52a.39.39,0,0,1,.46-.25l3.18.82a.39.39,0,0,1,.29.44l-.42,2.76-4.48-1.15Zm-5.24,3.34a1,1,0,0,1,1.19-.7l10.25,2.64a1,1,0,1,1-.49,1.89l-10.25-2.64A1,1,0,0,1,319.63,118.19Zm7.63,15.93-9.86-2.55,2.93-11.38,9.86,2.54Zm.75,1.81-.29,1.13a.79.79,0,0,1-1,.57l-10.62-2.74a.79.79,0,0,1-.57-.95l.3-1.14a.78.78,0,0,1,.95-.56L327.45,135A.79.79,0,0,1,328,135.93Z"/><path class="cls-17" d="M320.57,130.64l1.38-1.38a2.66,2.66,0,0,0,3.83-.44,4.47,4.47,0,0,0,.88-2.66V124h-2.13a4.48,4.48,0,0,0-2.66.89,2.66,2.66,0,0,0-.44,3.83l-1.38,1.38Zm1-3.6h0a1.94,1.94,0,0,1,.77-1.54,3.7,3.7,0,0,1,2.22-.74h1.4v1.4a3.7,3.7,0,0,1-.74,2.22,1.86,1.86,0,0,1-1.28.75,1.91,1.91,0,0,1-1.44-.39l2-2-.52-.51-2,2a1.92,1.92,0,0,1-.41-1.18Z"/><path class="cls-14" d="M372,170.7l-4-7.25a2.15,2.15,0,0,0-1.89-1.12,2.13,2.13,0,0,0-1.88,1.13l-3.94,7.25a2.18,2.18,0,0,0,0,2.13,2.14,2.14,0,0,0,1.85,1h7.88A2.15,2.15,0,0,0,372,170.7Z"/><path class="cls-26" d="M372,170.7l-4-7.25a2.15,2.15,0,0,0-1.89-1.12,2.13,2.13,0,0,0-1.88,1.13l-3.94,7.25a2.18,2.18,0,0,0,0,2.13,2.14,2.14,0,0,0,1.85,1h7.88A2.15,2.15,0,0,0,372,170.7Zm-.89,1.62a1.11,1.11,0,0,1-1,.57h-7.87a1.13,1.13,0,0,1-1-.57,1.16,1.16,0,0,1,0-1.14l3.92-7.26a1.14,1.14,0,0,1,1-.6,1.15,1.15,0,0,1,1,.6l3.95,7.25a1.15,1.15,0,0,1,0,1.15Z"/><circle cx="366.15" cy="170.84" r="0.9"/><line class="cls-4" x1="366.15" y1="168.44" x2="366.15" y2="166.37"/><path class="cls-27" d="M405.85,174.28a.57.57,0,0,0-.18-.51c-.17-.14-4.2-3.57-8.89-1.91,0,0-2.86,1.12-1.73,5.21l0,.16-1.36.48-.07-.15a6.17,6.17,0,0,0-3.24-3.32.54.54,0,0,0-.69.33.54.54,0,0,0,.34.68,5.16,5.16,0,0,1,2.55,2.64l.09.18-2.16.76-.07-.14a5.58,5.58,0,0,0-2.88-2.93.53.53,0,0,0-.41,0,.49.49,0,0,0-.27.31.53.53,0,0,0,.32.68,4.47,4.47,0,0,1,2.21,2.23l.09.18-2.16.77-.07-.15a5,5,0,0,0-2.53-2.52.56.56,0,0,0-.69.34.54.54,0,0,0,.33.68,3.82,3.82,0,0,1,1.85,1.83l.09.18-1.48.52-.08-.06a7.08,7.08,0,0,0-4.47-1.78,6.09,6.09,0,0,0-2,.36.52.52,0,0,0-.35.38.54.54,0,0,0,.14.5l2.57,2.67-.31,3.63a.51.51,0,0,0,0,.3.55.55,0,0,0,.28.3.53.53,0,0,0,.41,0,6.6,6.6,0,0,0,4.17-5.19l0-.11,1.48-.52,0,.2a3.84,3.84,0,0,1-.29,2.58.55.55,0,0,0,.18.74.59.59,0,0,0,.47,0,.57.57,0,0,0,.28-.23,4.92,4.92,0,0,0,.37-3.55l0-.15,2.15-.77.05.2a4.57,4.57,0,0,1-.31,3.12.54.54,0,0,0,.64.79.52.52,0,0,0,.28-.22A5.61,5.61,0,0,0,391,180l0-.16,2.16-.76.05.19a5.09,5.09,0,0,1-.33,3.66.54.54,0,0,0,.18.74.5.5,0,0,0,.46,0,.53.53,0,0,0,.27-.22,6.16,6.16,0,0,0,.43-4.62l0-.16,1.36-.48.07.15c1.69,3.88,4.6,3,4.62,3C404.8,179.71,405.81,174.5,405.85,174.28Zm-21.69,7.49a5.82,5.82,0,0,1-2.36,3.82l-.31.21.26-3a.5.5,0,0,0-.15-.42l-2.11-2.2.37,0a5.84,5.84,0,0,1,4.24,1.48l0,0,0,.09Zm15.63-1.44a1.54,1.54,0,0,1-.48.07c-.74,0-2.1-.39-3-3-1.26-3.54.65-4.42.87-4.51,3.42-1.21,6.58.8,7.47,1.45l.09.07,0,.12c-.28,1.06-1.48,4.61-4.88,5.82Z"/><line class="cls-28" x1="399.66" y1="174.62" x2="398.49" y2="176.81"/><line class="cls-28" x1="397.97" y1="175.08" x2="400.16" y2="176.25"/><path d="M42.51,210.35h2.2v9.57a5.09,5.09,0,0,1-.71,2.7,5,5,0,0,1-2,1.85,7.25,7.25,0,0,1-6.09,0,5,5,0,0,1-2-1.85,5.1,5.1,0,0,1-.72-2.7v-9.57h2.19v9.39a3.47,3.47,0,0,0,.44,1.75A3.08,3.08,0,0,0,37,222.7a3.92,3.92,0,0,0,1.9.43,4,4,0,0,0,1.92-.43,3,3,0,0,0,1.23-1.21,3.47,3.47,0,0,0,.43-1.75Z"/><path d="M48.51,224.9V210.35h2.12v5.4h.13a6.79,6.79,0,0,1,.53-.78,3.25,3.25,0,0,1,1-.79,3.46,3.46,0,0,1,1.63-.34,4.31,4.31,0,0,1,2.36.67,4.51,4.51,0,0,1,1.63,1.93,6.92,6.92,0,0,1,.6,3,7.15,7.15,0,0,1-.59,3,4.66,4.66,0,0,1-1.62,1.94,4.2,4.2,0,0,1-2.35.68,3.37,3.37,0,0,1-1.63-.34,3,3,0,0,1-1-.78,5.48,5.48,0,0,1-.55-.79h-.18v1.7Zm2.08-5.46a5.45,5.45,0,0,0,.34,2,3,3,0,0,0,1,1.35,2.43,2.43,0,0,0,1.55.49,2.48,2.48,0,0,0,1.59-.51,3.12,3.12,0,0,0,1-1.38,6,6,0,0,0,0-3.91,3,3,0,0,0-1-1.35,2.49,2.49,0,0,0-1.6-.5,2.56,2.56,0,0,0-1.56.47,3,3,0,0,0-1,1.33A5.5,5.5,0,0,0,50.59,219.44Z"/><path d="M62.41,229a4.57,4.57,0,0,1-.86-.08,2.8,2.8,0,0,1-.59-.16l.52-1.74a2.44,2.44,0,0,0,1.46,0c.4-.13.73-.55,1-1.26l.26-.72-4-11h2.27l2.77,8.46h.11L68.12,214l2.3,0-4.51,12.34a5,5,0,0,1-.8,1.43,3.08,3.08,0,0,1-1.15.88A3.73,3.73,0,0,1,62.41,229Zm2-16.43,1.66-3.27h2.24l-2.2,3.27Z"/><path d="M82.35,214l-4,10.91H76.12l-4-10.91h2.28l2.77,8.39h.11L80.07,214Z"/><path d="M87.79,225.14a4.42,4.42,0,0,1-1.88-.39,3.09,3.09,0,0,1-1.32-1.13,3.24,3.24,0,0,1-.49-1.81,2.92,2.92,0,0,1,.36-1.52,2.55,2.55,0,0,1,1-.94,5.07,5.07,0,0,1,1.35-.53,12.36,12.36,0,0,1,1.52-.27l1.59-.19a2.29,2.29,0,0,0,.89-.24.6.6,0,0,0,.27-.55v0a1.94,1.94,0,0,0-.52-1.45,2.15,2.15,0,0,0-1.55-.51,2.67,2.67,0,0,0-1.69.48,2.56,2.56,0,0,0-.85,1l-2-.45a3.78,3.78,0,0,1,1-1.61,4.2,4.2,0,0,1,1.58-.9,6.43,6.43,0,0,1,1.88-.28,7,7,0,0,1,1.39.16,4.12,4.12,0,0,1,1.38.55,3.12,3.12,0,0,1,1.05,1.16,4,4,0,0,1,.41,1.94v7.25H91.1v-1.5H91a2.78,2.78,0,0,1-.61.81,3.19,3.19,0,0,1-1.06.66A4,4,0,0,1,87.79,225.14Zm.46-1.71a3,3,0,0,0,1.51-.35,2.41,2.41,0,0,0,1-.91,2.34,2.34,0,0,0,.33-1.21v-1.41a1,1,0,0,1-.44.21,5.65,5.65,0,0,1-.73.17l-.81.12-.65.09a5.12,5.12,0,0,0-1.12.26,1.88,1.88,0,0,0-.81.53,1.29,1.29,0,0,0-.31.91,1.35,1.35,0,0,0,.59,1.19A2.51,2.51,0,0,0,88.25,223.43Zm-.08-10.9,1.66-3.27h2.24l-2.2,3.27Z"/><path d="M98.72,218.42v6.48H96.6V214h2v1.77h.13a3.13,3.13,0,0,1,1.18-1.39,3.68,3.68,0,0,1,2-.53,4,4,0,0,1,2,.47,3.11,3.11,0,0,1,1.3,1.38,5,5,0,0,1,.46,2.27v6.94h-2.12v-6.69a2.66,2.66,0,0,0-.62-1.86,2.21,2.21,0,0,0-1.69-.67A2.71,2.71,0,0,0,100,216a2.33,2.33,0,0,0-.9.94A3.08,3.08,0,0,0,98.72,218.42Z"/><path d="M109.15,224.9V214h2.12V224.9Zm.19-12.37,1.67-3.27h2.23l-2.2,3.27Z"/><path d="M35.36,246.9V232.35h2.12v5.4h.13a5.7,5.7,0,0,1,.53-.78,3.13,3.13,0,0,1,1-.79,3.43,3.43,0,0,1,1.63-.34,4.31,4.31,0,0,1,2.36.67,4.58,4.58,0,0,1,1.63,1.93,8,8,0,0,1,0,6.05,4.52,4.52,0,0,1-1.62,1.94,4.18,4.18,0,0,1-2.35.68,3.36,3.36,0,0,1-1.62-.34,2.91,2.91,0,0,1-1-.78,5.48,5.48,0,0,1-.55-.79h-.18v1.7Zm2.08-5.46a5.67,5.67,0,0,0,.33,2,3,3,0,0,0,1,1.35,2.43,2.43,0,0,0,1.55.49,2.48,2.48,0,0,0,1.59-.51,3.2,3.2,0,0,0,1-1.38,5.58,5.58,0,0,0,.33-2,5.37,5.37,0,0,0-.33-1.94,2.93,2.93,0,0,0-1-1.35,2.49,2.49,0,0,0-1.6-.5,2.56,2.56,0,0,0-1.56.47,2.82,2.82,0,0,0-1,1.33A5.5,5.5,0,0,0,37.44,241.44Z"/><path d="M49.37,234.3a1.3,1.3,0,0,1-.94-.37,1.2,1.2,0,0,1,0-1.79,1.3,1.3,0,0,1,.94-.37,1.32,1.32,0,0,1,1,.37,1.2,1.2,0,0,1,0,1.79A1.32,1.32,0,0,1,49.37,234.3ZM48.3,246.9V236h2.12V246.9Z"/><path d="M58.47,247.12a5,5,0,0,1-2.67-.71,4.7,4.7,0,0,1-1.78-2,7.29,7.29,0,0,1,0-5.93,4.66,4.66,0,0,1,1.78-2,5.39,5.39,0,0,1,5.35,0,4.73,4.73,0,0,1,1.78,2,7.29,7.29,0,0,1,0,5.93,4.76,4.76,0,0,1-1.78,2A5,5,0,0,1,58.47,247.12Zm0-1.79a2.56,2.56,0,0,0,1.65-.52,3.16,3.16,0,0,0,1-1.4,6.13,6.13,0,0,0,0-3.85,3.25,3.25,0,0,0-1-1.41,2.85,2.85,0,0,0-3.31,0,3.25,3.25,0,0,0-1,1.41,6,6,0,0,0,0,3.85,3.16,3.16,0,0,0,1,1.4A2.57,2.57,0,0,0,58.48,245.33Z"/><path d="M71.62,236v1.7h-6V236Zm-4.36-2.62h2.12v10.32a1.91,1.91,0,0,0,.18.93A1.07,1.07,0,0,0,70,245a1.93,1.93,0,0,0,.65.11,1.89,1.89,0,0,0,.44,0l.3-.05.39,1.75a3.66,3.66,0,0,1-.53.15,6,6,0,0,1-.85.08,3.68,3.68,0,0,1-1.56-.3,2.66,2.66,0,0,1-1.18-1,2.88,2.88,0,0,1-.44-1.64Z"/><path d="M79,247.12a5,5,0,0,1-2.68-.71,4.74,4.74,0,0,1-1.77-2,7.29,7.29,0,0,1,0-5.93,4.71,4.71,0,0,1,1.77-2,5.41,5.41,0,0,1,5.36,0,4.8,4.8,0,0,1,1.78,2,7.29,7.29,0,0,1,0,5.93,4.83,4.83,0,0,1-1.78,2A5,5,0,0,1,79,247.12Zm0-1.79a2.56,2.56,0,0,0,1.65-.52,3.16,3.16,0,0,0,1-1.4,6.13,6.13,0,0,0,0-3.85,3.25,3.25,0,0,0-1-1.41,2.85,2.85,0,0,0-3.31,0,3.16,3.16,0,0,0-1,1.41,6,6,0,0,0,0,3.85,3.08,3.08,0,0,0,1,1.4A2.57,2.57,0,0,0,79.05,245.33Z"/><path d="M87.09,251V236h2.08v1.76h.17a5.89,5.89,0,0,1,.54-.78,3.08,3.08,0,0,1,1-.79,3.48,3.48,0,0,1,1.64-.34,4.28,4.28,0,0,1,2.35.67,4.51,4.51,0,0,1,1.63,1.93,6.92,6.92,0,0,1,.6,3,7.15,7.15,0,0,1-.59,3,4.66,4.66,0,0,1-1.62,1.94,4.2,4.2,0,0,1-2.35.68,3.37,3.37,0,0,1-1.63-.34,3,3,0,0,1-1-.78,5.48,5.48,0,0,1-.55-.79h-.12V251Zm2.08-9.55a5.45,5.45,0,0,0,.34,2,3,3,0,0,0,1,1.35,2.72,2.72,0,0,0,3.14,0,3.12,3.12,0,0,0,1-1.38,6,6,0,0,0,0-3.91,3,3,0,0,0-1-1.35,2.49,2.49,0,0,0-1.6-.5,2.6,2.6,0,0,0-1.56.47,3,3,0,0,0-1,1.33A5.5,5.5,0,0,0,89.17,241.44Z"/><path d="M107,242.37V236h2.13V246.9H107V245h-.11a3.4,3.4,0,0,1-3.26,2,3.67,3.67,0,0,1-1.86-.47,3.22,3.22,0,0,1-1.27-1.38,5.13,5.13,0,0,1-.45-2.27V236h2.12v6.68a2.54,2.54,0,0,0,.62,1.78,2.1,2.1,0,0,0,1.6.66,2.59,2.59,0,0,0,1.19-.3,2.46,2.46,0,0,0,1-.91A2.76,2.76,0,0,0,107,242.37Zm-2.38-7.59a2.61,2.61,0,0,1-1.28-.32,2.4,2.4,0,0,1-.91-.85,2.22,2.22,0,0,1-.34-1.22,2.27,2.27,0,0,1,.34-1.22,2.51,2.51,0,0,1,.91-.89,2.58,2.58,0,0,1,2.56,0,2.48,2.48,0,0,1,.9.89,2.35,2.35,0,0,1,.33,1.22,2.3,2.3,0,0,1-.33,1.22,2.37,2.37,0,0,1-.9.85A2.61,2.61,0,0,1,104.57,234.78Zm0-1.14a1.28,1.28,0,0,0,1.28-1.25,1.28,1.28,0,0,0-.36-.89,1.28,1.28,0,0,0-1.84,0,1.32,1.32,0,0,0-.35.89,1.29,1.29,0,0,0,.35.87A1.23,1.23,0,0,0,104.57,233.64Z"/><path d="M500.37,272.38a2,2,0,0,0-.93-1.56,3.64,3.64,0,0,0-2.08-.56,3.9,3.9,0,0,0-1.55.28,2.41,2.41,0,0,0-1,.77,1.79,1.79,0,0,0-.36,1.1,1.64,1.64,0,0,0,.25.9,2.06,2.06,0,0,0,.65.63,4.55,4.55,0,0,0,.86.41,7,7,0,0,0,.89.28l1.42.37a9.36,9.36,0,0,1,1.42.46,5.54,5.54,0,0,1,1.36.77,3.68,3.68,0,0,1,1,1.17,3.43,3.43,0,0,1,.39,1.69,3.83,3.83,0,0,1-.64,2.19,4.24,4.24,0,0,1-1.84,1.52,7.94,7.94,0,0,1-5.73,0,4.32,4.32,0,0,1-1.87-1.47,4.2,4.2,0,0,1-.74-2.27h2.2a2.22,2.22,0,0,0,.51,1.31,2.69,2.69,0,0,0,1.16.77,4.54,4.54,0,0,0,1.55.25,4.31,4.31,0,0,0,1.66-.29,2.77,2.77,0,0,0,1.15-.82,2,2,0,0,0,.42-1.24,1.51,1.51,0,0,0-.37-1.06,2.63,2.63,0,0,0-1-.68,9.92,9.92,0,0,0-1.4-.48l-1.72-.47a6.53,6.53,0,0,1-2.76-1.4,3.13,3.13,0,0,1-1-2.44,3.57,3.57,0,0,1,.68-2.19,4.39,4.39,0,0,1,1.84-1.46,6.37,6.37,0,0,1,2.63-.53,6.26,6.26,0,0,1,2.61.52,4.42,4.42,0,0,1,1.79,1.43,3.63,3.63,0,0,1,.68,2.07Zm-4.56-8.24,1.46,1.9,1.46-1.9h1.92v.1l-2.5,3h-1.77l-2.49-3v-.1Z"/><path d="M505.74,283.11V272.2h2.12v10.91Zm.2-12.37,1.66-3.27h2.24l-2.2,3.27Z"/><path d="M512.67,267.77l1.46,1.91,1.46-1.91h1.92v.11l-2.5,3h-1.77l-2.49-3v-.11Zm-1.35,15.34V272.2h2.05v1.73h.11a2.68,2.68,0,0,1,1.06-1.39,3,3,0,0,1,1.71-.5h.48l.43,0v2a4.63,4.63,0,0,0-.46-.09,4.73,4.73,0,0,0-.65,0,2.79,2.79,0,0,0-1.34.31,2.54,2.54,0,0,0-.93.88,2.43,2.43,0,0,0-.34,1.27v6.66Z"/><path d="M523.91,283.33a5.36,5.36,0,0,1-2.78-.69,4.72,4.72,0,0,1-1.79-2,6.66,6.66,0,0,1-.62-3,6.73,6.73,0,0,1,.62-3,4.67,4.67,0,0,1,4.42-2.71,5.47,5.47,0,0,1,1.79.3,4.48,4.48,0,0,1,1.55,1,4.62,4.62,0,0,1,1.09,1.69,7.26,7.26,0,0,1,.4,2.53v.75h-8.67V276.7h6.59a3.27,3.27,0,0,0-.34-1.49,2.62,2.62,0,0,0-1-1,2.71,2.71,0,0,0-1.44-.38,2.82,2.82,0,0,0-1.56.44,3,3,0,0,0-1,1.13,3.3,3.3,0,0,0-.36,1.52v1.24a4.06,4.06,0,0,0,.39,1.86,2.73,2.73,0,0,0,1.08,1.17,3.57,3.57,0,0,0,2.73.23,2.42,2.42,0,0,0,.86-.52,2.31,2.31,0,0,0,.55-.86l2,.36a3.65,3.65,0,0,1-.86,1.55,4,4,0,0,1-1.56,1A5.64,5.64,0,0,1,523.91,283.33Z"/><path d="M533.68,276.63v6.48h-2.13V272.2h2V274h.14a3.12,3.12,0,0,1,1.18-1.39,3.64,3.64,0,0,1,2-.52,4,4,0,0,1,2,.46,3.16,3.16,0,0,1,1.3,1.38,5.13,5.13,0,0,1,.46,2.27v6.94h-2.13v-6.69a2.61,2.61,0,0,0-.61-1.85,2.2,2.2,0,0,0-1.7-.67,2.57,2.57,0,0,0-1.31.32,2.24,2.24,0,0,0-.9.93A3.08,3.08,0,0,0,533.68,276.63Z"/><path d="M544.1,283.11V272.2h2.12v10.91Zm.2-12.37,1.66-3.27h2.24l-2.2,3.27Z"/><path d="M457.92,298.63v6.48H455.8V294.2h2V296H458a3.18,3.18,0,0,1,1.18-1.39,3.68,3.68,0,0,1,2-.52,4,4,0,0,1,1.95.46,3.11,3.11,0,0,1,1.3,1.38,5,5,0,0,1,.46,2.27v6.94h-2.12v-6.69a2.62,2.62,0,0,0-.62-1.85,2.16,2.16,0,0,0-1.69-.67,2.61,2.61,0,0,0-1.32.32,2.24,2.24,0,0,0-.9.93A3.08,3.08,0,0,0,457.92,298.63Z"/><path d="M473.05,305.33a5.36,5.36,0,0,1-2.78-.69,4.72,4.72,0,0,1-1.79-2,6.52,6.52,0,0,1-.63-3,6.6,6.6,0,0,1,.63-3,4.67,4.67,0,0,1,4.42-2.71,5.47,5.47,0,0,1,1.79.3,4.48,4.48,0,0,1,1.55,1,4.62,4.62,0,0,1,1.09,1.69,7.26,7.26,0,0,1,.4,2.53v.75h-8.67V298.7h6.59a3.27,3.27,0,0,0-.34-1.49,2.62,2.62,0,0,0-1-1,2.71,2.71,0,0,0-1.44-.38,2.8,2.8,0,0,0-1.56.44,3,3,0,0,0-1,1.13,3.3,3.3,0,0,0-.36,1.52v1.24a4.06,4.06,0,0,0,.39,1.86,2.73,2.73,0,0,0,1.08,1.17,3.57,3.57,0,0,0,2.73.23,2.42,2.42,0,0,0,.86-.52,2.31,2.31,0,0,0,.55-.86l2,.36a3.65,3.65,0,0,1-.86,1.55,4.06,4.06,0,0,1-1.56,1A5.64,5.64,0,0,1,473.05,305.33Z"/><path d="M480.69,309.2v-15h2.08V296h.17a5.91,5.91,0,0,1,.54-.79,3.08,3.08,0,0,1,1-.79,3.49,3.49,0,0,1,1.64-.33,4.27,4.27,0,0,1,2.35.66,4.51,4.51,0,0,1,1.63,1.93,7,7,0,0,1,.6,3,7.15,7.15,0,0,1-.59,3,4.66,4.66,0,0,1-1.62,1.94,4.2,4.2,0,0,1-2.35.68,3.5,3.5,0,0,1-1.63-.33,3.31,3.31,0,0,1-1-.78,6.12,6.12,0,0,1-.55-.8h-.13v5.79Zm2.08-9.55a5.45,5.45,0,0,0,.34,2,3,3,0,0,0,1,1.35,2.72,2.72,0,0,0,3.14,0,3.12,3.12,0,0,0,1-1.38,5.54,5.54,0,0,0,.33-2,5.64,5.64,0,0,0-.32-1.94,3,3,0,0,0-1-1.35,2.79,2.79,0,0,0-3.16,0,2.93,2.93,0,0,0-1,1.32A5.53,5.53,0,0,0,482.77,299.65Z"/><path d="M500.55,300.58V294.2h2.13v10.91h-2.09v-1.89h-.11a3.52,3.52,0,0,1-1.21,1.45,3.47,3.47,0,0,1-2,.58,3.67,3.67,0,0,1-1.86-.47,3.22,3.22,0,0,1-1.27-1.38,5.08,5.08,0,0,1-.45-2.26V294.2h2.12v6.68a2.5,2.5,0,0,0,.62,1.78,2.08,2.08,0,0,0,1.6.66,2.59,2.59,0,0,0,1.19-.3,2.51,2.51,0,0,0,1-.9A2.79,2.79,0,0,0,500.55,300.58ZM498.17,293a2.61,2.61,0,0,1-1.28-.31,2.51,2.51,0,0,1-.91-.86,2.19,2.19,0,0,1-.34-1.21,2.28,2.28,0,0,1,.34-1.23,2.57,2.57,0,0,1,3.47-.89,2.56,2.56,0,0,1,.9.89,2.36,2.36,0,0,1,.33,1.23,2.27,2.27,0,0,1-.33,1.21,2.56,2.56,0,0,1-.9.86A2.61,2.61,0,0,1,498.17,293Zm0-1.13a1.28,1.28,0,0,0,.92-.39,1.23,1.23,0,0,0,.36-.86,1.3,1.3,0,0,0-.36-.9,1.28,1.28,0,0,0-1.84,0,1.34,1.34,0,0,0-.35.9,1.24,1.24,0,0,0,.35.86A1.2,1.2,0,0,0,498.17,291.86Z"/><path d="M515.46,294.2l-4,10.91h-2.27l-4-10.91h2.28l2.76,8.39h.11l2.76-8.39Z"/><path d="M522.26,305.33a5,5,0,0,1-2.67-.71,4.64,4.64,0,0,1-1.78-2,6.55,6.55,0,0,1-.63-3,6.63,6.63,0,0,1,.63-3,4.72,4.72,0,0,1,1.78-2,5.46,5.46,0,0,1,5.35,0,4.79,4.79,0,0,1,1.78,2,6.63,6.63,0,0,1,.63,3,6.55,6.55,0,0,1-.63,3,4.7,4.7,0,0,1-1.78,2A5,5,0,0,1,522.26,305.33Zm0-1.78a2.57,2.57,0,0,0,1.65-.53,3.16,3.16,0,0,0,1-1.4,6.1,6.1,0,0,0,0-3.84,3.22,3.22,0,0,0-1-1.42,2.85,2.85,0,0,0-3.31,0,3.22,3.22,0,0,0-1,1.42,5.92,5.92,0,0,0,0,3.84,3.16,3.16,0,0,0,1,1.4A2.58,2.58,0,0,0,522.27,303.55Z"/><path d="M534.4,305.32a4.24,4.24,0,0,1-2.36-.68,4.5,4.5,0,0,1-1.61-1.94,7,7,0,0,1-.59-3,7.13,7.13,0,0,1,.59-3,4.58,4.58,0,0,1,1.63-1.93,4.29,4.29,0,0,1,2.35-.66,3.49,3.49,0,0,1,1.64.33,3.13,3.13,0,0,1,1,.79,6.8,6.8,0,0,1,.53.79h.13v-5.41h2.12v14.55h-2.07v-1.7h-.18a6.12,6.12,0,0,1-.55.8,3.44,3.44,0,0,1-1,.78A3.48,3.48,0,0,1,534.4,305.32Zm.47-1.81a2.43,2.43,0,0,0,1.55-.49,3.06,3.06,0,0,0,1-1.35,5.9,5.9,0,0,0,.33-2,5.53,5.53,0,0,0-.33-2,2.93,2.93,0,0,0-1-1.32,2.5,2.5,0,0,0-1.56-.48,2.55,2.55,0,0,0-1.6.5,2.93,2.93,0,0,0-1,1.35,5.41,5.41,0,0,0-.33,1.94,5.54,5.54,0,0,0,.33,2,3.12,3.12,0,0,0,1,1.38A2.48,2.48,0,0,0,534.87,303.51Z"/><path d="M545.55,298.63v6.48h-2.12V294.2h2V296h.13a3.18,3.18,0,0,1,1.18-1.39,3.68,3.68,0,0,1,2-.52,4,4,0,0,1,1.95.46,3.11,3.11,0,0,1,1.3,1.38,5,5,0,0,1,.46,2.27v6.94h-2.12v-6.69a2.62,2.62,0,0,0-.62-1.85,2.18,2.18,0,0,0-1.69-.67,2.61,2.61,0,0,0-1.32.32,2.24,2.24,0,0,0-.9.93A3.08,3.08,0,0,0,545.55,298.63Z"/><path d="M556,305.11V294.2h2.12v10.91Zm.19-12.37,1.67-3.27h2.23l-2.2,3.27Z"/><path d="M566.15,305.33a5,5,0,0,1-2.73-.72,4.74,4.74,0,0,1-1.75-2,6.7,6.7,0,0,1-.61-2.91,6.54,6.54,0,0,1,.63-2.93,4.76,4.76,0,0,1,1.76-2,5,5,0,0,1,2.68-.71,5.19,5.19,0,0,1,2.21.45,4.09,4.09,0,0,1,1.58,1.29,3.92,3.92,0,0,1,.71,1.92h-2.07a2.48,2.48,0,0,0-.77-1.32,2.33,2.33,0,0,0-1.63-.55,2.63,2.63,0,0,0-1.55.46,3,3,0,0,0-1,1.32,5,5,0,0,0-.37,2,5.31,5.31,0,0,0,.36,2.06,3,3,0,0,0,1,1.35,2.84,2.84,0,0,0,2.66.25,2.21,2.21,0,0,0,.83-.65,2.32,2.32,0,0,0,.47-1h2.07a4.15,4.15,0,0,1-.69,1.89,4,4,0,0,1-1.54,1.3A5,5,0,0,1,566.15,305.33Z"/><path d="M575.63,298.63v6.48h-2.12V290.56h2.09V296h.14a3.26,3.26,0,0,1,1.17-1.4,3.74,3.74,0,0,1,2.06-.51,4,4,0,0,1,2,.46,3.14,3.14,0,0,1,1.3,1.37,5,5,0,0,1,.47,2.28v6.94h-2.13v-6.69a2.62,2.62,0,0,0-.61-1.86,2.26,2.26,0,0,0-1.72-.66,2.75,2.75,0,0,0-1.35.32,2.31,2.31,0,0,0-.93.93A3.08,3.08,0,0,0,575.63,298.63Z"/><path d="M495.55,327.32a4.2,4.2,0,0,1-2.35-.68,4.52,4.52,0,0,1-1.62-1.94,8,8,0,0,1,0-6.05,4.58,4.58,0,0,1,1.63-1.93,4.32,4.32,0,0,1,2.35-.66,3.49,3.49,0,0,1,1.64.33,3,3,0,0,1,1,.79,5.72,5.72,0,0,1,.53.79h.13v-5.41H501v14.55h-2.08v-1.7h-.18a5.27,5.27,0,0,1-.55.8,3.31,3.31,0,0,1-1,.78A3.48,3.48,0,0,1,495.55,327.32Zm.47-1.81a2.43,2.43,0,0,0,1.55-.49,2.91,2.91,0,0,0,1-1.35,5.67,5.67,0,0,0,.33-2,5.53,5.53,0,0,0-.33-2,2.93,2.93,0,0,0-1-1.32,2.5,2.5,0,0,0-1.56-.48,2.55,2.55,0,0,0-1.6.5,3,3,0,0,0-1,1.35,5.41,5.41,0,0,0-.32,1.94,5.54,5.54,0,0,0,.32,2,3.12,3.12,0,0,0,1,1.38A2.48,2.48,0,0,0,496,325.51Z"/><path d="M504.58,327.11V316.2h2.05v1.73h.12a2.67,2.67,0,0,1,1.05-1.39,3,3,0,0,1,1.72-.5H510l.43,0v2c-.09,0-.24-.05-.45-.09a4.87,4.87,0,0,0-.66,0,2.79,2.79,0,0,0-1.34.31,2.43,2.43,0,0,0-.92.88,2.35,2.35,0,0,0-.35,1.27v6.66Z"/><path d="M519.78,322.58V316.2h2.13v10.91h-2.09v-1.89h-.12a3.42,3.42,0,0,1-1.2,1.45,3.48,3.48,0,0,1-2.06.58,3.63,3.63,0,0,1-1.85-.47,3.22,3.22,0,0,1-1.27-1.38,5.08,5.08,0,0,1-.45-2.26V316.2H515v6.68a2.46,2.46,0,0,0,.62,1.78,2.08,2.08,0,0,0,1.6.66,2.59,2.59,0,0,0,1.19-.3,2.51,2.51,0,0,0,1-.9A2.79,2.79,0,0,0,519.78,322.58Z"/><path d="M527.48,320.63v6.48h-2.13V312.56h2.1V318h.13a3.22,3.22,0,0,1,1.18-1.4,3.72,3.72,0,0,1,2.06-.51,4,4,0,0,1,2,.46,3.16,3.16,0,0,1,1.31,1.37,5,5,0,0,1,.46,2.28v6.94h-2.12v-6.69a2.63,2.63,0,0,0-.62-1.86,2.23,2.23,0,0,0-1.72-.66,2.68,2.68,0,0,0-1.34.32,2.2,2.2,0,0,0-.93.93A3,3,0,0,0,527.48,320.63Z"/><path d="M544.9,322.58V316.2H547v10.91H545v-1.89h-.12a3.42,3.42,0,0,1-1.2,1.45,3.48,3.48,0,0,1-2.06.58,3.61,3.61,0,0,1-1.85-.47,3.22,3.22,0,0,1-1.27-1.38,5.08,5.08,0,0,1-.46-2.26V316.2h2.13v6.68a2.5,2.5,0,0,0,.61,1.78,2.12,2.12,0,0,0,1.61.66,2.62,2.62,0,0,0,1.19-.3,2.58,2.58,0,0,0,1-.9A2.71,2.71,0,0,0,544.9,322.58ZM542.53,315a2.61,2.61,0,0,1-1.28-.31,2.54,2.54,0,0,1-.92-.86,2.27,2.27,0,0,1-.33-1.21,2.36,2.36,0,0,1,.33-1.23,2.59,2.59,0,0,1,2.2-1.23,2.49,2.49,0,0,1,1.27.34,2.59,2.59,0,0,1,.91.89,2.36,2.36,0,0,1,.33,1.23,2.27,2.27,0,0,1-.33,1.21,2.5,2.5,0,0,1-2.18,1.17Zm0-1.13a1.28,1.28,0,0,0,.92-.39,1.23,1.23,0,0,0,.36-.86,1.3,1.3,0,0,0-.36-.9,1.28,1.28,0,0,0-1.84,0,1.3,1.3,0,0,0-.36.9,1.28,1.28,0,0,0,1.28,1.25Z"/><path d="M617.89,224.9V210.35h2.2v7h.17l6.1-7h2.77l-5.87,6.55,5.89,8h-2.64l-4.7-6.5-1.72,2v4.53Z"/><path d="M633.73,210.35V224.9h-2.12V210.35Z"/><path d="M638.26,212.3a1.32,1.32,0,0,1-1-.37,1.22,1.22,0,0,1,0-1.79,1.4,1.4,0,0,1,1.9,0,1.22,1.22,0,0,1,0,1.79A1.32,1.32,0,0,1,638.26,212.3Zm-1.07,12.6V214h2.12V224.9Z"/><path d="M642.77,224.9V214h2v1.77h.13a2.85,2.85,0,0,1,1.12-1.41,3.27,3.27,0,0,1,1.85-.51,3.07,3.07,0,0,1,1.83.52,3,3,0,0,1,1.1,1.4H651a3,3,0,0,1,1.24-1.39,3.79,3.79,0,0,1,2-.53,3.32,3.32,0,0,1,2.43.93,3.83,3.83,0,0,1,.94,2.81v7.32h-2.13v-7.12a2,2,0,0,0-.6-1.61,2.19,2.19,0,0,0-1.44-.49,2.1,2.1,0,0,0-1.62.63,2.37,2.37,0,0,0-.57,1.63v7h-2.12v-7.26a1.88,1.88,0,0,0-.55-1.42,2,2,0,0,0-1.44-.54A2,2,0,0,0,646,216a2.4,2.4,0,0,0-.82.88,2.6,2.6,0,0,0-.31,1.3v6.73Z"/><path d="M664.21,225.14a4.38,4.38,0,0,1-1.87-.39,3.12,3.12,0,0,1-1.33-1.13,3.24,3.24,0,0,1-.49-1.81,2.92,2.92,0,0,1,.36-1.52,2.7,2.7,0,0,1,1-.94,5.07,5.07,0,0,1,1.35-.53,12.71,12.71,0,0,1,1.52-.27l1.59-.19a2.24,2.24,0,0,0,.89-.24.6.6,0,0,0,.27-.55v0a1.94,1.94,0,0,0-.52-1.45,2.13,2.13,0,0,0-1.55-.51,2.76,2.76,0,0,0-1.69.47,2.66,2.66,0,0,0-.85,1.05l-2-.45a3.88,3.88,0,0,1,1-1.61,4.28,4.28,0,0,1,1.58-.9,6.48,6.48,0,0,1,1.88-.28,7,7,0,0,1,1.39.16,4.12,4.12,0,0,1,1.38.55,3,3,0,0,1,1,1.16,4,4,0,0,1,.41,1.94v7.25h-2.07v-1.5h-.08a3,3,0,0,1-.62.81,3.19,3.19,0,0,1-1.06.66A4,4,0,0,1,664.21,225.14Zm.46-1.71a3,3,0,0,0,1.51-.35,2.41,2.41,0,0,0,1-.91,2.37,2.37,0,0,0,.33-1.21v-1.41a.94.94,0,0,1-.44.21,5.65,5.65,0,0,1-.73.17l-.8.12-.66.09a5.25,5.25,0,0,0-1.12.26,1.88,1.88,0,0,0-.81.53,1.52,1.52,0,0,0,.28,2.1A2.53,2.53,0,0,0,664.67,223.43Z"/><path d="M678.11,214v1.7h-6V214Zm-4.36-2.62h2.13v10.32a1.91,1.91,0,0,0,.18.93,1,1,0,0,0,.48.42,1.91,1.91,0,0,0,.64.11,2,2,0,0,0,.45,0l.3-.05.38,1.75a3.14,3.14,0,0,1-.52.15,6,6,0,0,1-.85.08,3.76,3.76,0,0,1-1.57-.3,2.69,2.69,0,0,1-1.17-1,2.81,2.81,0,0,1-.45-1.64Z"/><path d="M682.13,212.3a1.32,1.32,0,0,1-1-.37,1.22,1.22,0,0,1,0-1.79,1.4,1.4,0,0,1,1.9,0,1.22,1.22,0,0,1,0,1.79A1.32,1.32,0,0,1,682.13,212.3Zm-1.07,12.6V214h2.12V224.9Z"/><path d="M691.23,225.11a5,5,0,0,1-2.72-.72,4.64,4.64,0,0,1-1.75-2,7.26,7.26,0,0,1,0-5.85,4.8,4.8,0,0,1,1.76-2,4.9,4.9,0,0,1,2.68-.72,5.24,5.24,0,0,1,2.22.46,4.11,4.11,0,0,1,1.57,1.28,3.86,3.86,0,0,1,.71,1.93h-2.06a2.57,2.57,0,0,0-.78-1.32,2.33,2.33,0,0,0-1.62-.56,2.66,2.66,0,0,0-1.56.47,3.07,3.07,0,0,0-1,1.32,5,5,0,0,0-.37,2,5.35,5.35,0,0,0,.36,2.06,3.07,3.07,0,0,0,1,1.34,2.76,2.76,0,0,0,2.66.25,2.09,2.09,0,0,0,.83-.64,2.37,2.37,0,0,0,.48-1h2.06a3.86,3.86,0,0,1-.69,1.89,3.91,3.91,0,0,1-1.53,1.31A5,5,0,0,1,691.23,225.11Z"/><path d="M698.59,224.9V210.35h2.13V224.9Zm2-3.7,0-2.6h.37l4.35-4.61h2.54l-5,5.25h-.33Zm4.93,3.7-3.9-5.19,1.46-1.48,5.05,6.67Z"/><path d="M713.5,225.14a4.42,4.42,0,0,1-1.88-.39,3,3,0,0,1-1.32-1.13,3.16,3.16,0,0,1-.49-1.81,2.92,2.92,0,0,1,.36-1.52,2.6,2.6,0,0,1,1-.94,5.35,5.35,0,0,1,1.35-.53,13.07,13.07,0,0,1,1.52-.27l1.59-.19a2.19,2.19,0,0,0,.89-.24.59.59,0,0,0,.28-.55v0a2,2,0,0,0-.52-1.45,2.15,2.15,0,0,0-1.55-.51A2.74,2.74,0,0,0,713,216a2.66,2.66,0,0,0-.85,1.05l-2-.45a4,4,0,0,1,1-1.61,4.32,4.32,0,0,1,1.59-.9,6.43,6.43,0,0,1,1.88-.28A7.06,7.06,0,0,1,716,214a4.07,4.07,0,0,1,1.37.55,3.14,3.14,0,0,1,1.06,1.16,4.07,4.07,0,0,1,.41,1.94v7.25h-2.07v-1.5h-.09a2.83,2.83,0,0,1-.62.81,3,3,0,0,1-1.06.66A4,4,0,0,1,713.5,225.14Zm.46-1.71a3,3,0,0,0,1.51-.35,2.41,2.41,0,0,0,1-.91,2.37,2.37,0,0,0,.33-1.21v-1.41a1.05,1.05,0,0,1-.44.21,5.83,5.83,0,0,1-.74.17l-.8.12-.65.09a5.35,5.35,0,0,0-1.13.26,1.88,1.88,0,0,0-.81.53,1.33,1.33,0,0,0-.3.91,1.37,1.37,0,0,0,.58,1.19A2.57,2.57,0,0,0,714,223.43Zm-.08-10.9,1.66-3.27h2.24l-2.2,3.27Z"/><path d="M636.4,246.9v-1.46l5.91-7.51v-.1h-5.72V236H645v1.54L639.27,245v.1h5.88v1.85Z"/><path d="M648.26,246.9V236h2v1.77h.14a2.89,2.89,0,0,1,1.11-1.41,3.32,3.32,0,0,1,1.86-.51,3.07,3.07,0,0,1,1.83.52,3,3,0,0,1,1.1,1.4h.11a3.05,3.05,0,0,1,1.25-1.39,3.79,3.79,0,0,1,2-.53,3.28,3.28,0,0,1,2.42.93,3.79,3.79,0,0,1,.94,2.81v7.32H661v-7.12a2,2,0,0,0-.6-1.61,2.22,2.22,0,0,0-1.44-.49,2.09,2.09,0,0,0-1.62.63,2.37,2.37,0,0,0-.57,1.63v7h-2.12v-7.26a1.88,1.88,0,0,0-.55-1.42,2,2,0,0,0-1.44-.54,2.08,2.08,0,0,0-1.12.31,2.37,2.37,0,0,0-.81.88,2.6,2.6,0,0,0-.31,1.3v6.73Z"/><path d="M671.23,247.11a5.36,5.36,0,0,1-2.78-.69,4.63,4.63,0,0,1-1.79-1.95,7.35,7.35,0,0,1,0-5.91,4.73,4.73,0,0,1,4.42-2.72,5.48,5.48,0,0,1,1.79.31,4.2,4.2,0,0,1,1.55,1,4.53,4.53,0,0,1,1.09,1.69,7.26,7.26,0,0,1,.4,2.53v.75h-8.67v-1.59h6.59a3.24,3.24,0,0,0-.34-1.49,2.58,2.58,0,0,0-2.4-1.4,2.81,2.81,0,0,0-1.56.43,3,3,0,0,0-1,1.14,3.27,3.27,0,0,0-.36,1.52v1.24a4.06,4.06,0,0,0,.39,1.86,2.79,2.79,0,0,0,1.08,1.17,3.2,3.2,0,0,0,1.63.4,3.48,3.48,0,0,0,1.1-.17,2.31,2.31,0,0,0,.86-.53,2.16,2.16,0,0,0,.55-.85l2,.36a3.65,3.65,0,0,1-.86,1.55,4.09,4.09,0,0,1-1.56,1A5.85,5.85,0,0,1,671.23,247.11Zm-1.69-15.55,1.46,1.9,1.46-1.9h1.92v.11l-2.5,3h-1.77l-2.49-3v-.11Z"/><path d="M681,240.42v6.48h-2.13V236h2v1.77h.14a3.06,3.06,0,0,1,1.18-1.39,3.65,3.65,0,0,1,2-.53,4,4,0,0,1,2,.47,3.22,3.22,0,0,1,1.3,1.38A5.13,5.13,0,0,1,688,240v6.94h-2.13v-6.69a2.66,2.66,0,0,0-.61-1.86,2.24,2.24,0,0,0-1.7-.67,2.67,2.67,0,0,0-1.31.32,2.33,2.33,0,0,0-.9.94A3.08,3.08,0,0,0,681,240.42Z"/><path d="M694.59,247.14a4.38,4.38,0,0,1-1.87-.39,3.12,3.12,0,0,1-1.33-1.13,3.23,3.23,0,0,1-.48-1.81,2.92,2.92,0,0,1,.35-1.52,2.7,2.7,0,0,1,1-.94,5.07,5.07,0,0,1,1.35-.53,12.71,12.71,0,0,1,1.52-.27l1.59-.19a2.24,2.24,0,0,0,.89-.24.61.61,0,0,0,.28-.55v0a1.94,1.94,0,0,0-.53-1.45,2.11,2.11,0,0,0-1.55-.51,2.71,2.71,0,0,0-1.68.47,2.57,2.57,0,0,0-.85,1.05l-2-.45a3.88,3.88,0,0,1,1-1.61,4.36,4.36,0,0,1,1.58-.9,6.53,6.53,0,0,1,1.88-.28,7,7,0,0,1,1.39.16,4.12,4.12,0,0,1,1.38.55,3,3,0,0,1,1,1.16,4,4,0,0,1,.42,1.94v7.25H697.9v-1.5h-.08a3,3,0,0,1-.62.81,3.09,3.09,0,0,1-1.06.66A4,4,0,0,1,694.59,247.14Zm.46-1.71a3,3,0,0,0,1.51-.35,2.41,2.41,0,0,0,1-.91,2.37,2.37,0,0,0,.33-1.21v-1.41a.94.94,0,0,1-.43.21,5.83,5.83,0,0,1-.74.17l-.8.12-.65.09a5.21,5.21,0,0,0-1.13.26,1.88,1.88,0,0,0-.81.53,1.52,1.52,0,0,0,.28,2.1A2.53,2.53,0,0,0,695.05,245.43Z"/><path d="M182.77,267.07v14.55h-2L173.36,271h-.13v10.67H171V267.07h2l7.4,10.68h.14V267.07Z"/><path d="M189.57,281.86a4.38,4.38,0,0,1-1.87-.39,3.12,3.12,0,0,1-1.33-1.13,3.23,3.23,0,0,1-.48-1.81,2.92,2.92,0,0,1,.35-1.52,2.7,2.7,0,0,1,1-.94,5.07,5.07,0,0,1,1.35-.53,12.71,12.71,0,0,1,1.52-.27l1.59-.19a2.24,2.24,0,0,0,.89-.24.61.61,0,0,0,.28-.55v-.05a2,2,0,0,0-.53-1.45,2.11,2.11,0,0,0-1.55-.51,2.69,2.69,0,0,0-1.69.48,2.46,2.46,0,0,0-.84,1l-2-.45a3.88,3.88,0,0,1,1-1.61,4.28,4.28,0,0,1,1.58-.9,6.48,6.48,0,0,1,1.88-.28,7,7,0,0,1,1.39.16,4.12,4.12,0,0,1,1.38.55,3,3,0,0,1,1,1.16,4,4,0,0,1,.42,1.94v7.25h-2.08v-1.5h-.08a3,3,0,0,1-.62.81,3.19,3.19,0,0,1-1.06.66A4,4,0,0,1,189.57,281.86Zm.46-1.71a3,3,0,0,0,1.51-.35,2.41,2.41,0,0,0,1-.91,2.34,2.34,0,0,0,.33-1.21v-1.41a.94.94,0,0,1-.43.21,5.83,5.83,0,0,1-.74.17l-.8.12-.66.09a5.25,5.25,0,0,0-1.12.26,1.88,1.88,0,0,0-.81.53,1.52,1.52,0,0,0,.28,2.1A2.53,2.53,0,0,0,190,280.15Z"/><path d="M202.47,281.83a4.24,4.24,0,0,1-2.36-.68,4.52,4.52,0,0,1-1.62-1.94,7.15,7.15,0,0,1-.58-3,6.92,6.92,0,0,1,.59-3,4.58,4.58,0,0,1,1.63-1.93,4.28,4.28,0,0,1,2.35-.67,3.51,3.51,0,0,1,1.64.34,3.08,3.08,0,0,1,1,.79,7,7,0,0,1,.54.79h.13v-5.41h2.12v14.55H205.8v-1.7h-.18a6.1,6.1,0,0,1-.55.79,3.13,3.13,0,0,1-1,.78A3.36,3.36,0,0,1,202.47,281.83Zm.47-1.81a2.45,2.45,0,0,0,1.55-.49,3,3,0,0,0,1-1.35,5.67,5.67,0,0,0,.33-2,5.73,5.73,0,0,0-.32-2,3,3,0,0,0-1-1.33,2.56,2.56,0,0,0-1.56-.47,2.47,2.47,0,0,0-1.6.5,3,3,0,0,0-1,1.35,5.64,5.64,0,0,0-.32,1.94,5.54,5.54,0,0,0,.33,2,3.12,3.12,0,0,0,1,1.38A2.48,2.48,0,0,0,202.94,280Z"/><path d="M211.5,281.62V270.71h2v1.77h.14a2.89,2.89,0,0,1,1.11-1.41,3.32,3.32,0,0,1,1.86-.51,3.14,3.14,0,0,1,1.83.52,3,3,0,0,1,1.1,1.4h.12a3,3,0,0,1,1.24-1.39,3.79,3.79,0,0,1,2-.53,3.32,3.32,0,0,1,2.43.93,3.83,3.83,0,0,1,.94,2.81v7.32H224.2V274.5a2,2,0,0,0-.6-1.61,2.19,2.19,0,0,0-1.44-.49,2.1,2.1,0,0,0-1.62.63,2.37,2.37,0,0,0-.57,1.63v7h-2.12v-7.26a1.88,1.88,0,0,0-.55-1.42,2,2,0,0,0-1.44-.54,2,2,0,0,0-1.11.31,2.4,2.4,0,0,0-.82.88,2.6,2.6,0,0,0-.31,1.3v6.73Z"/><path d="M234.47,281.84a5.36,5.36,0,0,1-2.78-.7,4.55,4.55,0,0,1-1.78-1.95,7.25,7.25,0,0,1,0-5.91,4.7,4.7,0,0,1,1.76-2,4.82,4.82,0,0,1,2.65-.72,5.43,5.43,0,0,1,1.79.31,4.12,4.12,0,0,1,1.55,1,4.41,4.41,0,0,1,1.09,1.69,7,7,0,0,1,.4,2.53v.75h-8.67v-1.59h6.59a3.24,3.24,0,0,0-.34-1.49,2.63,2.63,0,0,0-2.4-1.4,2.74,2.74,0,0,0-1.56.44,3,3,0,0,0-1,1.13,3.27,3.27,0,0,0-.36,1.52v1.24a4.06,4.06,0,0,0,.39,1.86,2.79,2.79,0,0,0,1.08,1.17,3.2,3.2,0,0,0,1.63.4,3.48,3.48,0,0,0,1.1-.17,2.42,2.42,0,0,0,.86-.52,2.27,2.27,0,0,0,.55-.86l2,.36a3.65,3.65,0,0,1-.86,1.55,4.13,4.13,0,0,1-1.55,1A5.94,5.94,0,0,1,234.47,281.84Zm-1.69-15.56,1.46,1.91,1.46-1.91h1.92v.11l-2.5,3h-1.77l-2.49-3v-.11Z"/><path d="M242.11,281.62V270.71h2.06v1.73h.11a2.67,2.67,0,0,1,1.05-1.39,3,3,0,0,1,1.72-.51l.47,0,.43,0v2l-.45-.08a4.87,4.87,0,0,0-.66,0,2.75,2.75,0,0,0-1.33.31,2.38,2.38,0,0,0-1.27,2.14v6.67Z"/><path d="M252.52,275.14v6.48H250.4V270.71h2v1.77h.13a3.13,3.13,0,0,1,1.18-1.39,3.68,3.68,0,0,1,2-.53,4,4,0,0,1,2,.47,3.16,3.16,0,0,1,1.3,1.38,5,5,0,0,1,.46,2.27v6.94h-2.12v-6.69a2.66,2.66,0,0,0-.62-1.86,2.22,2.22,0,0,0-1.7-.67,2.7,2.7,0,0,0-1.31.32,2.33,2.33,0,0,0-.9.94A3.08,3.08,0,0,0,252.52,275.14Z"/><path d="M266.12,281.86a4.42,4.42,0,0,1-1.88-.39,3.09,3.09,0,0,1-1.32-1.13,3.24,3.24,0,0,1-.49-1.81,2.92,2.92,0,0,1,.36-1.52,2.55,2.55,0,0,1,1-.94,5.07,5.07,0,0,1,1.35-.53,12.36,12.36,0,0,1,1.52-.27l1.59-.19a2.29,2.29,0,0,0,.89-.24.6.6,0,0,0,.27-.55v-.05a2,2,0,0,0-.52-1.45,2.15,2.15,0,0,0-1.55-.51,2.67,2.67,0,0,0-1.69.48,2.56,2.56,0,0,0-.85,1l-2-.45a3.78,3.78,0,0,1,1-1.61,4.2,4.2,0,0,1,1.58-.9,6.43,6.43,0,0,1,1.88-.28,7,7,0,0,1,1.39.16,4.12,4.12,0,0,1,1.38.55,3.12,3.12,0,0,1,1,1.16,4,4,0,0,1,.41,1.94v7.25h-2.07v-1.5h-.09a2.78,2.78,0,0,1-.61.81,3.19,3.19,0,0,1-1.06.66A4,4,0,0,1,266.12,281.86Zm.46-1.71a3,3,0,0,0,1.51-.35,2.41,2.41,0,0,0,1-.91,2.34,2.34,0,0,0,.33-1.21v-1.41a1,1,0,0,1-.44.21,5.65,5.65,0,0,1-.73.17l-.81.12-.65.09a5.12,5.12,0,0,0-1.12.26,1.88,1.88,0,0,0-.81.53,1.29,1.29,0,0,0-.31.91,1.35,1.35,0,0,0,.59,1.19A2.51,2.51,0,0,0,266.58,280.15Zm-.08-10.9,1.66-3.27h2.24l-2.2,3.27Z"/><path d="M172,303.84a5.36,5.36,0,0,1-2.78-.7,4.55,4.55,0,0,1-1.78-1.95,7.25,7.25,0,0,1,0-5.91,4.7,4.7,0,0,1,1.76-2,4.82,4.82,0,0,1,2.65-.72,5.48,5.48,0,0,1,1.79.31,4.2,4.2,0,0,1,1.55,1,4.41,4.41,0,0,1,1.09,1.69,7,7,0,0,1,.4,2.53v.75H168v-1.59h6.59a3.24,3.24,0,0,0-.34-1.49,2.63,2.63,0,0,0-2.4-1.4,2.74,2.74,0,0,0-1.56.44,3,3,0,0,0-1,1.13,3.27,3.27,0,0,0-.36,1.52v1.24a4.06,4.06,0,0,0,.39,1.86,2.79,2.79,0,0,0,1.08,1.17,3.2,3.2,0,0,0,1.63.4,3.48,3.48,0,0,0,1.1-.17,2.42,2.42,0,0,0,.86-.52,2.27,2.27,0,0,0,.55-.86l2,.36a3.65,3.65,0,0,1-.86,1.55,4.13,4.13,0,0,1-1.55,1A5.94,5.94,0,0,1,172,303.84Z"/><path d="M181.07,292.71l2.41,4.24,2.43-4.24h2.32l-3.4,5.45,3.43,5.46h-2.32l-2.46-4.08L181,303.62H178.7l3.39-5.46-3.35-5.45Z"/><path d="M191,307.71v-15h2.07v1.77h.18a5.72,5.72,0,0,1,.53-.79,3.13,3.13,0,0,1,1-.79,3.43,3.43,0,0,1,1.63-.34,4.31,4.31,0,0,1,2.36.67,4.58,4.58,0,0,1,1.63,1.93,8,8,0,0,1,0,6,4.52,4.52,0,0,1-1.62,1.94,4.18,4.18,0,0,1-2.35.68,3.36,3.36,0,0,1-1.62-.34,2.91,2.91,0,0,1-1-.78,6.1,6.1,0,0,1-.55-.79h-.13v5.79Zm2.08-9.55a5.67,5.67,0,0,0,.33,2,3,3,0,0,0,1,1.35A2.43,2.43,0,0,0,196,302a2.48,2.48,0,0,0,1.59-.51,3.2,3.2,0,0,0,1-1.38,5.54,5.54,0,0,0,.33-2,5.41,5.41,0,0,0-.33-1.94,2.93,2.93,0,0,0-1-1.35,2.49,2.49,0,0,0-1.6-.5,2.56,2.56,0,0,0-1.56.47,2.82,2.82,0,0,0-1,1.33A5.5,5.5,0,0,0,193.1,298.16Z"/><path d="M206.08,289.07v14.55H204V289.07Z"/><path d="M214.14,303.84a5,5,0,0,1-2.68-.71,4.73,4.73,0,0,1-1.78-2,6.51,6.51,0,0,1-.63-3,6.63,6.63,0,0,1,.63-3,4.73,4.73,0,0,1,1.78-2,5.39,5.39,0,0,1,5.35,0,4.66,4.66,0,0,1,1.78,2,6.63,6.63,0,0,1,.63,3,6.51,6.51,0,0,1-.63,3,4.66,4.66,0,0,1-1.78,2A5,5,0,0,1,214.14,303.84Zm0-1.79a2.55,2.55,0,0,0,1.65-.52,3.08,3.08,0,0,0,1-1.4,6,6,0,0,0,0-3.85,3.16,3.16,0,0,0-1-1.41,2.55,2.55,0,0,0-1.65-.53,2.6,2.6,0,0,0-1.66.53,3.25,3.25,0,0,0-1,1.41,6,6,0,0,0,0,3.85,3.16,3.16,0,0,0,1,1.4A2.59,2.59,0,0,0,214.14,302.05Z"/><path d="M225.36,303.86a4.42,4.42,0,0,1-1.88-.39,3.09,3.09,0,0,1-1.32-1.13,3.24,3.24,0,0,1-.49-1.81A2.92,2.92,0,0,1,222,299a2.62,2.62,0,0,1,1-.94,5.07,5.07,0,0,1,1.35-.53,12.36,12.36,0,0,1,1.52-.27l1.59-.19a2.29,2.29,0,0,0,.89-.24.6.6,0,0,0,.27-.55v-.05a2,2,0,0,0-.52-1.45,2.13,2.13,0,0,0-1.55-.51,2.67,2.67,0,0,0-1.69.48,2.56,2.56,0,0,0-.85,1l-2-.45a3.78,3.78,0,0,1,1-1.61,4.2,4.2,0,0,1,1.58-.9,6.48,6.48,0,0,1,1.88-.28,7,7,0,0,1,1.39.16,4.12,4.12,0,0,1,1.38.55,3.12,3.12,0,0,1,1.05,1.16,4,4,0,0,1,.41,1.94v7.25h-2.07v-1.5h-.09a2.78,2.78,0,0,1-.61.81,3.19,3.19,0,0,1-1.06.66A4,4,0,0,1,225.36,303.86Zm.46-1.71a3,3,0,0,0,1.51-.35,2.41,2.41,0,0,0,1-.91,2.34,2.34,0,0,0,.33-1.21v-1.41a1,1,0,0,1-.44.21,5.65,5.65,0,0,1-.73.17l-.8.12-.66.09a5.12,5.12,0,0,0-1.12.26,1.88,1.88,0,0,0-.81.53,1.29,1.29,0,0,0-.31.91,1.35,1.35,0,0,0,.59,1.19A2.53,2.53,0,0,0,225.82,302.15Z"/><path d="M239.26,292.71v1.7h-6v-1.7Zm-4.36-2.62H237v10.32a1.9,1.9,0,0,0,.19.93.93.93,0,0,0,.48.42,1.91,1.91,0,0,0,.64.11,2,2,0,0,0,.45,0l.3-.05.38,1.75a3.47,3.47,0,0,1-.52.15,4.94,4.94,0,0,1-.86.08,3.68,3.68,0,0,1-1.56-.3,2.69,2.69,0,0,1-1.17-1,2.81,2.81,0,0,1-.45-1.64Z"/><path d="M245.38,303.86a4.34,4.34,0,0,1-1.87-.39,3.12,3.12,0,0,1-1.33-1.13,3.24,3.24,0,0,1-.49-1.81,2.92,2.92,0,0,1,.36-1.52,2.7,2.7,0,0,1,1-.94,5.07,5.07,0,0,1,1.35-.53,12.71,12.71,0,0,1,1.52-.27l1.59-.19a2.24,2.24,0,0,0,.89-.24.6.6,0,0,0,.27-.55v-.05a2,2,0,0,0-.52-1.45,2.13,2.13,0,0,0-1.55-.51,2.69,2.69,0,0,0-1.69.48,2.56,2.56,0,0,0-.85,1l-2-.45a3.88,3.88,0,0,1,1-1.61,4.28,4.28,0,0,1,1.58-.9,6.48,6.48,0,0,1,1.88-.28,7,7,0,0,1,1.39.16,4.12,4.12,0,0,1,1.38.55,3,3,0,0,1,1,1.16,4,4,0,0,1,.41,1.94v7.25h-2.07v-1.5h-.08a3,3,0,0,1-.62.81,3.19,3.19,0,0,1-1.06.66A4,4,0,0,1,245.38,303.86Zm.46-1.71a3,3,0,0,0,1.51-.35,2.41,2.41,0,0,0,1-.91,2.34,2.34,0,0,0,.33-1.21v-1.41a1,1,0,0,1-.44.21,5.65,5.65,0,0,1-.73.17l-.8.12-.66.09a5.25,5.25,0,0,0-1.12.26,1.88,1.88,0,0,0-.81.53,1.52,1.52,0,0,0,.28,2.1A2.53,2.53,0,0,0,245.84,302.15Z"/><path d="M258.79,303.84a4.93,4.93,0,0,1-2.73-.73,4.71,4.71,0,0,1-1.75-2,7.21,7.21,0,0,1,0-5.85,4.73,4.73,0,0,1,1.76-2,4.87,4.87,0,0,1,2.67-.72A5.24,5.24,0,0,1,261,293a4,4,0,0,1,1.57,1.28,3.93,3.93,0,0,1,.72,1.93H261.2a2.44,2.44,0,0,0-.78-1.32,2.29,2.29,0,0,0-1.62-.56,2.63,2.63,0,0,0-1.55.47,3,3,0,0,0-1,1.32,5,5,0,0,0-.37,2,5.35,5.35,0,0,0,.36,2.06,3,3,0,0,0,1,1.34,2.63,2.63,0,0,0,1.57.48,2.8,2.8,0,0,0,1.1-.22,2.29,2.29,0,0,0,.83-.65,2.48,2.48,0,0,0,.47-1h2.07a4.07,4.07,0,0,1-.69,1.89,4,4,0,0,1-1.54,1.31A5,5,0,0,1,258.79,303.84Z"/><path d="M270.85,303.84a5.3,5.3,0,0,1-2.77-.7,4.57,4.57,0,0,1-1.79-1.95,7.25,7.25,0,0,1,0-5.91,4.77,4.77,0,0,1,1.76-2,4.82,4.82,0,0,1,2.65-.72,5.43,5.43,0,0,1,1.79.31,4.23,4.23,0,0,1,1.56,1,4.52,4.52,0,0,1,1.08,1.69,7,7,0,0,1,.4,2.53v.75h-8.67v-1.59h6.59a3.12,3.12,0,0,0-.34-1.49,2.63,2.63,0,0,0-2.4-1.4,2.69,2.69,0,0,0-1.55.44,2.94,2.94,0,0,0-1,1.13,3.27,3.27,0,0,0-.36,1.52v1.24a4.06,4.06,0,0,0,.39,1.86,2.79,2.79,0,0,0,1.08,1.17,3.2,3.2,0,0,0,1.63.4,3.48,3.48,0,0,0,1.1-.17,2.28,2.28,0,0,0,1.42-1.38l2,.36a3.67,3.67,0,0,1-.87,1.55,4.13,4.13,0,0,1-1.55,1A5.91,5.91,0,0,1,270.85,303.84Z"/><path d="M311.31,210.35l4.05,11.85h.16l4.05-11.85h2.37l-5.23,14.55h-2.54l-5.23-14.55Z"/><path d="M325.81,229a4.6,4.6,0,0,1-.87-.08,2.67,2.67,0,0,1-.58-.16l.51-1.74a2.48,2.48,0,0,0,1.47,0,1.93,1.93,0,0,0,1-1.26l.26-.72-4-11h2.27l2.76,8.46h.12l2.76-8.46,2.29,0-4.51,12.34a5,5,0,0,1-.79,1.43,3.16,3.16,0,0,1-1.15.88A3.76,3.76,0,0,1,325.81,229Z"/><path d="M344.58,216.65l-1.92.34a2.28,2.28,0,0,0-.38-.7,2,2,0,0,0-.7-.55,2.54,2.54,0,0,0-1.1-.21,2.65,2.65,0,0,0-1.51.4,1.2,1.2,0,0,0-.6,1,1.07,1.07,0,0,0,.4.88,3.17,3.17,0,0,0,1.31.55l1.73.4a4.68,4.68,0,0,1,2.25,1.07,2.52,2.52,0,0,1,.74,1.88,2.85,2.85,0,0,1-.57,1.75,3.84,3.84,0,0,1-1.57,1.19,5.78,5.78,0,0,1-2.32.44,5.23,5.23,0,0,1-3-.79,3.24,3.24,0,0,1-1.42-2.23l2.05-.32a1.93,1.93,0,0,0,.79,1.21,2.61,2.61,0,0,0,1.55.41A2.87,2.87,0,0,0,342,223a1.28,1.28,0,0,0,.63-1.07,1.13,1.13,0,0,0-.38-.86,2.6,2.6,0,0,0-1.17-.53l-1.84-.4A4.4,4.4,0,0,1,337,219a2.7,2.7,0,0,1-.72-1.93,2.78,2.78,0,0,1,.53-1.68,3.56,3.56,0,0,1,1.5-1.14,5.5,5.5,0,0,1,2.18-.41,4.52,4.52,0,0,1,2.78.77A3.54,3.54,0,0,1,344.58,216.65Z"/><path d="M352.32,225.12a5,5,0,0,1-2.68-.71,4.74,4.74,0,0,1-1.77-2,7.19,7.19,0,0,1,0-5.93,4.71,4.71,0,0,1,1.77-2,5.41,5.41,0,0,1,5.36,0,4.71,4.71,0,0,1,1.77,2,7.19,7.19,0,0,1,0,5.93,4.74,4.74,0,0,1-1.77,2A5,5,0,0,1,352.32,225.12Zm0-1.79a2.56,2.56,0,0,0,1.65-.52,3.14,3.14,0,0,0,1-1.4,6,6,0,0,0,0-3.85,3.23,3.23,0,0,0-1-1.41,2.85,2.85,0,0,0-3.31,0,3.16,3.16,0,0,0-1,1.41,6,6,0,0,0,0,3.85,3.08,3.08,0,0,0,1,1.4A2.57,2.57,0,0,0,352.33,223.33Z"/><path d="M360.37,224.9V210.35h2.12V224.9Zm1.95-3.7v-2.6h.37L367,214h2.55l-5,5.25h-.33Zm4.94,3.7-3.91-5.19,1.47-1.48,5.05,6.67Z"/><path d="M375.27,225.14a4.38,4.38,0,0,1-1.87-.39,3.12,3.12,0,0,1-1.33-1.13,3.23,3.23,0,0,1-.48-1.81,3,3,0,0,1,.35-1.52,2.7,2.7,0,0,1,1-.94,5.21,5.21,0,0,1,1.35-.53,13.07,13.07,0,0,1,1.52-.27l1.59-.19a2.19,2.19,0,0,0,.89-.24.59.59,0,0,0,.28-.55v0a2,2,0,0,0-.52-1.45,2.16,2.16,0,0,0-1.56-.51,2.66,2.66,0,0,0-1.68.48,2.49,2.49,0,0,0-.85,1l-2-.45a4,4,0,0,1,1-1.61,4.36,4.36,0,0,1,1.58-.9,6.55,6.55,0,0,1,1.89-.28,7,7,0,0,1,1.38.16,4.12,4.12,0,0,1,1.38.55,3.14,3.14,0,0,1,1.06,1.16,4.07,4.07,0,0,1,.41,1.94v7.25h-2.08v-1.5h-.08a2.83,2.83,0,0,1-.62.81,3.09,3.09,0,0,1-1.06.66A4,4,0,0,1,375.27,225.14Zm.47-1.71a3,3,0,0,0,1.51-.35,2.45,2.45,0,0,0,.95-.91,2.34,2.34,0,0,0,.33-1.21v-1.41a.94.94,0,0,1-.43.21,5.83,5.83,0,0,1-.74.17l-.8.12-.65.09a5.21,5.21,0,0,0-1.13.26,1.88,1.88,0,0,0-.81.53,1.52,1.52,0,0,0,.28,2.1A2.57,2.57,0,0,0,375.74,223.43Zm-.08-10.9,1.66-3.27h2.24l-2.2,3.27Z"/><path d="M390,224.9V214h2v1.77h.14a2.83,2.83,0,0,1,1.11-1.41,3.29,3.29,0,0,1,1.85-.51,3.1,3.1,0,0,1,1.84.52,3,3,0,0,1,1.1,1.4h.11a3.09,3.09,0,0,1,1.24-1.39,3.82,3.82,0,0,1,2-.53,3.29,3.29,0,0,1,2.42.93,3.8,3.8,0,0,1,.94,2.81v7.32h-2.12v-7.12a2,2,0,0,0-.6-1.61,2.23,2.23,0,0,0-1.45-.49,2.06,2.06,0,0,0-1.61.63,2.37,2.37,0,0,0-.57,1.63v7h-2.12v-7.26a1.92,1.92,0,0,0-.55-1.42,2,2,0,0,0-1.45-.54,2.07,2.07,0,0,0-1.11.31,2.3,2.3,0,0,0-.81.88,2.6,2.6,0,0,0-.31,1.3v6.73Z"/><path d="M408.25,224.9V214h2.13V224.9Zm.2-12.37,1.66-3.27h2.24l-2.2,3.27Z"/><path d="M413.83,224.9V214h2.05v1.73H416a2.67,2.67,0,0,1,1.05-1.39,3,3,0,0,1,1.72-.51l.47,0,.43,0v2l-.45-.08a4.87,4.87,0,0,0-.66,0,2.79,2.79,0,0,0-1.34.31,2.29,2.29,0,0,0-.92.88,2.34,2.34,0,0,0-.35,1.26v6.67Z"/><path d="M425.19,225.14a4.38,4.38,0,0,1-1.87-.39,3.12,3.12,0,0,1-1.33-1.13,3.23,3.23,0,0,1-.48-1.81,2.92,2.92,0,0,1,.35-1.52,2.7,2.7,0,0,1,1-.94,5.07,5.07,0,0,1,1.35-.53,12.71,12.71,0,0,1,1.52-.27l1.59-.19a2.24,2.24,0,0,0,.89-.24.6.6,0,0,0,.27-.55v0a1.94,1.94,0,0,0-.52-1.45,2.13,2.13,0,0,0-1.55-.51,2.69,2.69,0,0,0-1.69.48,2.46,2.46,0,0,0-.84,1l-2-.45a3.88,3.88,0,0,1,1-1.61,4.28,4.28,0,0,1,1.58-.9,6.48,6.48,0,0,1,1.88-.28,7,7,0,0,1,1.39.16,4.12,4.12,0,0,1,1.38.55,3,3,0,0,1,1.05,1.16,4,4,0,0,1,.41,1.94v7.25H428.5v-1.5h-.08a3,3,0,0,1-.62.81,3.19,3.19,0,0,1-1.06.66A4,4,0,0,1,425.19,225.14Zm.46-1.71a3,3,0,0,0,1.51-.35,2.41,2.41,0,0,0,1-.91,2.34,2.34,0,0,0,.33-1.21v-1.41a.94.94,0,0,1-.43.21,6.26,6.26,0,0,1-.74.17l-.8.12-.66.09a5.25,5.25,0,0,0-1.12.26,1.88,1.88,0,0,0-.81.53,1.52,1.52,0,0,0,.28,2.1A2.53,2.53,0,0,0,425.65,223.43Z"/><path d="M319.82,246.9v-1.46l5.91-7.51v-.1H320V236h8.36v1.54L322.7,245v.1h5.88v1.85Z"/><path d="M333.8,240.42v6.48h-2.12V236h2v1.77h.13a3.09,3.09,0,0,1,1.19-1.39,3.62,3.62,0,0,1,2-.53,3.94,3.94,0,0,1,1.95.47,3.11,3.11,0,0,1,1.3,1.38,5,5,0,0,1,.47,2.27v6.94h-2.13v-6.69a2.61,2.61,0,0,0-.62-1.86,2.2,2.2,0,0,0-1.69-.67A2.65,2.65,0,0,0,335,238a2.27,2.27,0,0,0-.9.94A3,3,0,0,0,333.8,240.42Z"/><path d="M348.93,247.12a5.36,5.36,0,0,1-2.78-.7,4.55,4.55,0,0,1-1.78-1.95,7.25,7.25,0,0,1,0-5.91,4.7,4.7,0,0,1,1.76-2,4.82,4.82,0,0,1,2.65-.72,5.43,5.43,0,0,1,1.79.31,4.12,4.12,0,0,1,1.55,1,4.41,4.41,0,0,1,1.09,1.69,7,7,0,0,1,.4,2.53v.75h-8.67v-1.59h6.59a3.24,3.24,0,0,0-.34-1.49,2.63,2.63,0,0,0-2.4-1.4,2.74,2.74,0,0,0-1.56.44,3,3,0,0,0-1,1.13,3.27,3.27,0,0,0-.36,1.52v1.24a4.06,4.06,0,0,0,.39,1.86,2.79,2.79,0,0,0,1.08,1.17,3.2,3.2,0,0,0,1.63.4,3.48,3.48,0,0,0,1.1-.17,2.31,2.31,0,0,0,.86-.53,2.16,2.16,0,0,0,.55-.85l2,.36a3.65,3.65,0,0,1-.86,1.55,4.13,4.13,0,0,1-1.55,1A5.94,5.94,0,0,1,348.93,247.12Z"/><path d="M361.17,247.12a5,5,0,0,1-2.73-.72,4.87,4.87,0,0,1-1.75-2,6.73,6.73,0,0,1-.61-2.91,6.55,6.55,0,0,1,.63-2.94,4.8,4.8,0,0,1,1.76-2,4.9,4.9,0,0,1,2.68-.72,5.2,5.2,0,0,1,2.21.46,4.07,4.07,0,0,1,1.58,1.28,4,4,0,0,1,.71,1.93h-2.07a2.48,2.48,0,0,0-.77-1.32,2.34,2.34,0,0,0-1.63-.56,2.63,2.63,0,0,0-1.55.47,3,3,0,0,0-1,1.32,5,5,0,0,0-.37,2,5.35,5.35,0,0,0,.36,2.06,2.93,2.93,0,0,0,1,1.34,2.58,2.58,0,0,0,1.56.48,2.61,2.61,0,0,0,1.1-.23,2.09,2.09,0,0,0,.83-.64,2.36,2.36,0,0,0,.47-1h2.07a4,4,0,0,1-2.23,3.2A5,5,0,0,1,361.17,247.12Zm-1.5-15.56,1.46,1.91,1.46-1.91h1.92v.11l-2.5,3h-1.76l-2.5-3v-.11Z"/><path d="M369.6,234.3a1.34,1.34,0,0,1-1-.37,1.22,1.22,0,0,1,0-1.79,1.34,1.34,0,0,1,1-.37,1.32,1.32,0,0,1,.95.37,1.2,1.2,0,0,1,0,1.79A1.32,1.32,0,0,1,369.6,234.3Zm-1.07,12.6V236h2.12V246.9Z"/><path d="M382.28,238.65l-1.92.34a2.28,2.28,0,0,0-.38-.7,2,2,0,0,0-.7-.55,2.54,2.54,0,0,0-1.1-.21,2.65,2.65,0,0,0-1.51.4,1.2,1.2,0,0,0-.6,1,1.07,1.07,0,0,0,.4.88,3.17,3.17,0,0,0,1.31.55l1.73.4a4.64,4.64,0,0,1,2.25,1.07,2.52,2.52,0,0,1,.74,1.88,2.85,2.85,0,0,1-.57,1.75,3.77,3.77,0,0,1-1.57,1.19,5.78,5.78,0,0,1-2.32.44,5.23,5.23,0,0,1-3-.79,3.24,3.24,0,0,1-1.42-2.23l2.05-.32a1.93,1.93,0,0,0,.79,1.21,2.61,2.61,0,0,0,1.55.41,2.87,2.87,0,0,0,1.67-.43,1.28,1.28,0,0,0,.63-1.07,1.13,1.13,0,0,0-.38-.86,2.6,2.6,0,0,0-1.17-.53l-1.84-.4a4.4,4.4,0,0,1-2.26-1.11,2.7,2.7,0,0,1-.72-1.93,2.78,2.78,0,0,1,.53-1.68,3.56,3.56,0,0,1,1.5-1.14,5.5,5.5,0,0,1,2.18-.41,4.52,4.52,0,0,1,2.78.77A3.54,3.54,0,0,1,382.28,238.65Zm-5.56-7.09,1.47,1.91,1.45-1.91h1.93v.11l-2.5,3H377.3l-2.49-3v-.11Z"/><path d="M390.52,236v1.7h-6V236Zm-4.36-2.62h2.12v10.32a1.79,1.79,0,0,0,.19.93,1,1,0,0,0,.47.42,2,2,0,0,0,.65.11,2,2,0,0,0,.45,0l.29-.05.39,1.75a3.66,3.66,0,0,1-.53.15,6,6,0,0,1-.85.08,3.68,3.68,0,0,1-1.56-.3,2.66,2.66,0,0,1-1.18-1,2.88,2.88,0,0,1-.44-1.64Z"/><path d="M398.05,247.12a5.32,5.32,0,0,1-2.77-.7,4.57,4.57,0,0,1-1.79-1.95,7.25,7.25,0,0,1,0-5.91,4.77,4.77,0,0,1,1.76-2,4.82,4.82,0,0,1,2.65-.72,5.43,5.43,0,0,1,1.79.31,4.23,4.23,0,0,1,1.56,1,4.52,4.52,0,0,1,1.08,1.69,7,7,0,0,1,.4,2.53v.75h-8.67v-1.59h6.59a3.12,3.12,0,0,0-.34-1.49,2.63,2.63,0,0,0-2.4-1.4,2.69,2.69,0,0,0-1.55.44,2.94,2.94,0,0,0-1,1.13,3.27,3.27,0,0,0-.36,1.52v1.24a4.06,4.06,0,0,0,.39,1.86,2.79,2.79,0,0,0,1.08,1.17,3.2,3.2,0,0,0,1.63.4,3.48,3.48,0,0,0,1.1-.17,2.34,2.34,0,0,0,1.42-1.38l2,.36a3.67,3.67,0,0,1-.87,1.55,4.13,4.13,0,0,1-1.55,1A5.91,5.91,0,0,1,398.05,247.12Zm-1.69-15.56,1.46,1.91,1.46-1.91h1.92v.11l-2.5,3h-1.76l-2.5-3v-.11Z"/><path d="M407.82,240.42v6.48H405.7V236h2v1.77h.14a3.06,3.06,0,0,1,1.18-1.39,3.68,3.68,0,0,1,2-.53,4,4,0,0,1,2,.47,3.16,3.16,0,0,1,1.3,1.38,5,5,0,0,1,.46,2.27v6.94h-2.12v-6.69a2.66,2.66,0,0,0-.62-1.86,2.22,2.22,0,0,0-1.7-.67,2.67,2.67,0,0,0-1.31.32,2.33,2.33,0,0,0-.9.94A3.08,3.08,0,0,0,407.82,240.42Z"/><path d="M418.24,246.9V236h2.12V246.9Zm.2-12.37,1.66-3.27h2.24l-2.2,3.27Z"/><line class="cls-4" x1="488.91" y1="202.09" x2="457.68" y2="202.09"/><line class="cls-4" x1="580.81" y1="202.09" x2="552.12" y2="202.09"/><line class="cls-4" x1="544.65" y1="206.47" x2="544.65" y2="177.27"/><path class="cls-26" d="M547.27,187.14l11.26-3.95a2.14,2.14,0,0,0,0-3.77l-11.26-3.94a2.21,2.21,0,0,0-2.13,0,2.12,2.12,0,0,0-1,1.85v7.89a2.1,2.1,0,0,0,1,1.84,2.13,2.13,0,0,0,2.14,0Zm-1.63-.88a1.13,1.13,0,0,1-.56-1v-7.88a1.1,1.1,0,0,1,.56-1,1.16,1.16,0,0,1,1.14,0l11.28,3.92a1.16,1.16,0,0,1,0,2l-11.27,4a1.18,1.18,0,0,1-1.15,0Z"/><path class="cls-29" d="M514.62,203.29c0,1.81-.31,3.37-1.38,3.53s.49,2.94.49,2.94,6.13.93,2.24,1.59c-6.08,1-2.77-5.44-8.94-5.44"/><path class="cls-29" d="M520.44,205.07c1,1.49-3,3.83.63,6.07,1.59,1,1.54-2,.8-2.9l1.38-1.64"/><path class="cls-30" d="M501.78,200.36c-3.49-.71-11.64-2.67-13-10.75"/><path class="cls-29" d="M527,192.47c-1.2-2.2,1.64-.9,1.91,0,.37-.73,11.06,4.75,6.58,6.39-7.23,2.64-8.51,5.17-5.78,8,0,0,4.3.19,3.71,2.5s-3-1-4.38-1.4-4.82-.26-8.59-2.87-10.18-2.1-12,0-9-.26-10.13,3.26c-2.35,7.06-6.06,1.71.58-2.75,2.63-1.77,4.17-15.83,16.33-13.15,8.58,1.89,5.94,1.72,7.85,1.53"/><path class="cls-30" d="M525.3,196.64c-4.45-1.08-.4-7.31,1.9-1.26"/><path class="cls-30" d="M529.9,195.68c.13-.18.72,0,.83,0"/><path class="cls-29" d="M490.9,231.47c0,1.81-.32,3.37-1.38,3.52s.49,2.95.49,2.95,6.13.93,2.23,1.59c-6.08,1-2.76-5.44-8.93-5.44"/><path class="cls-29" d="M496.72,233.25c1,1.49-3,3.83.63,6.07,1.58,1,1.53-2,.79-2.9l1.39-1.65"/><path class="cls-29" d="M503.22,220.65c-1.19-2.21,1.64-.9,1.92,0,.37-.73,11.05,4.74,6.57,6.38-7.23,2.65-8.51,5.18-5.77,8,0,0,4.29.2,3.71,2.5s-3-1-4.39-1.39-4.81-.26-8.58-2.88-10.18-2.09-12,0-9-.26-10.13,3.26c-2.34,7.06-6.05,1.7.59-2.75,2.63-1.77,4.17-15.83,16.33-13.15,8.58,1.89,5.93,1.72,7.85,1.53"/><path class="cls-29" d="M501.58,224.82c-4.45-1.09-.4-7.31,1.9-1.27"/><path class="cls-30" d="M478.06,228.54c-3.5-.71-9.49-2-10.59-5.81"/><path class="cls-30" d="M506.17,223.86c.14-.18.73,0,.83,0"/><path class="cls-31" d="M576.37,211.13a.62.62,0,0,0-.8.38,49.26,49.26,0,0,0-2.06,7.69,18.47,18.47,0,0,0-.37,6H572a23.49,23.49,0,0,1,0-6.7c0-.49.09-1,.12-1.44a.63.63,0,0,0-.57-.68.64.64,0,0,0-.68.58c0,.47-.08.94-.12,1.42-.08.85-.16,1.71-.2,2.58a19.32,19.32,0,0,0-2.13-6.68.64.64,0,0,0-.86-.23.62.62,0,0,0-.22.86c1.35,2.31,1.76,4.88,2.19,7.59.14.89.29,1.8.47,2.7h-.91a45.57,45.57,0,0,0-1.33-7.47c-.81-3-2.07-6.72-4.75-9.13a.63.63,0,0,0-.84.94c2.43,2.19,3.62,5.7,4.37,8.51a42.93,42.93,0,0,1,1.28,7.15h-2.14a48,48,0,0,1-.79-8.08.6.6,0,0,0-.63-.62.63.63,0,0,0-.62.63,49,49,0,0,0,.77,8.07h-1.83c0-4.11-.46-9.69-4.67-12.62a.64.64,0,0,0-.87.16.62.62,0,0,0,.16.87c3.69,2.57,4.17,7.48,4.12,11.59H560a.63.63,0,0,0,0,1.25h15.22a.63.63,0,1,0,0-1.25h-.84a16.29,16.29,0,0,1,.32-5.75,49.26,49.26,0,0,1,2-7.49.62.62,0,0,0-.38-.8Z"/><path class="cls-31" d="M524.13,238.43a.69.69,0,0,1,.8.28,30.08,30.08,0,0,1,2.06,5.8,10.39,10.39,0,0,1,.37,4.49h1.16a13.61,13.61,0,0,0,0-5.05c0-.36-.09-.72-.12-1.08s.23-.49.57-.51a.61.61,0,0,1,.68.44l.12,1.07c.08.64.16,1.29.2,1.94a12.16,12.16,0,0,1,2.13-5,.75.75,0,0,1,.86-.17.41.41,0,0,1,.22.64A13.07,13.07,0,0,0,531,247c-.14.67-.29,1.35-.47,2h.92a26.82,26.82,0,0,1,1.32-5.63,13.43,13.43,0,0,1,4.75-6.87.78.78,0,0,1,.89,0,.39.39,0,0,1,0,.66c-2.43,1.65-3.61,4.3-4.37,6.42a25.25,25.25,0,0,0-1.28,5.38h2.14a27.5,27.5,0,0,0,.79-6.08.54.54,0,0,1,.63-.47c.35,0,.63.22.62.48a27.49,27.49,0,0,1-.77,6.07H538c0-3.1.46-7.3,4.67-9.5a.75.75,0,0,1,.87.12.41.41,0,0,1-.15.66c-3.7,1.93-4.18,5.63-4.13,8.72h1.25a.49.49,0,1,1,0,.94H525.24c-.35,0-.63-.21-.63-.47s.28-.47.63-.47h.85a9.47,9.47,0,0,0-.33-4.33,30.06,30.06,0,0,0-2-5.64c-.12-.25,0-.52.38-.6Z"/><line class="cls-4" x1="482.73" y1="249.66" x2="499.16" y2="249.66"/><path class="cls-4" d="M481.45,247.85c1.62-1.46,3.8.72,4.31,1.81"/><path class="cls-4" d="M487.33,249.66s.77,2.74,2.94,2.91"/><path class="cls-4" d="M494.81,252.7a3.42,3.42,0,0,1-2.08,2.07"/><path class="cls-4" d="M496.12,249.66a3.19,3.19,0,0,1,2.19,2.07"/><path class="cls-4" d="M491,249.66a5,5,0,0,1,4.06-2.4"/><path class="cls-4" d="M488.8,249.66a4,4,0,0,0-1.3-3.25"/><line class="cls-4" x1="466.37" y1="213.93" x2="458.03" y2="213.93"/><path class="cls-4" d="M463.42,216.27a3.42,3.42,0,0,1-2.08,2.08"/><path class="cls-4" d="M461.07,213.93a3.2,3.2,0,0,0-2.19,2.08"/><path class="cls-4" d="M466.18,213.93a5.05,5.05,0,0,0-4.06-2.4"/><line class="cls-4" x1="463.27" y1="213.91" x2="458.94" y2="213.91"/><line class="cls-4" x1="539.84" y1="225.73" x2="535.51" y2="225.73"/><line class="cls-4" x1="565.95" y1="237.57" x2="553.35" y2="237.57"/><circle cx="478.19" cy="209.84" r="0.9"/><circle cx="480.33" cy="212.49" r="0.9"/><circle cx="470.98" cy="208.2" r="0.9"/></svg>