<svg id="Layer_1" data-name="Layer 1" xmlns="http://www.w3.org/2000/svg" viewBox="0 0 740 378.32"><defs><style>.cls-1{fill:gray;}.cls-10,.cls-2,.cls-4,.cls-5,.cls-8{fill:none;}.cls-2{stroke:gray;}.cls-10,.cls-15,.cls-17,.cls-2,.cls-4,.cls-5,.cls-8{stroke-miterlimit:10;}.cls-3{fill:#333;}.cls-10,.cls-15,.cls-17,.cls-4,.cls-8{stroke:#000;}.cls-5{stroke:#999;}.cls-6{fill:#999;}.cls-7{fill:#ff6b4d;}.cls-8{stroke-dasharray:3.87 3.87;}.cls-15,.cls-9{fill:#ffd166;}.cls-9{opacity:0.7;}.cls-10{stroke-dasharray:3.88 3.88;}.cls-11,.cls-16{fill:#ffb860;}.cls-11{opacity:0.78;}.cls-12,.cls-17{fill:#ff9e5a;}.cls-12{opacity:0.85;}.cls-13,.cls-14{fill:#ff8453;}.cls-13{opacity:0.93;}.cls-14{fill-opacity:0.93;}.cls-15{fill-opacity:0.7;}.cls-15,.cls-17{stroke-dasharray:4;}.cls-16{fill-opacity:0.78;}.cls-17{fill-opacity:0.85;}</style></defs><path d="M78.09,31.08v-16H84.4a6.34,6.34,0,0,1,3.1.7,4.81,4.81,0,0,1,2,1.91,5.74,5.74,0,0,1,.67,2.82,5.7,5.7,0,0,1-.68,2.81,4.87,4.87,0,0,1-2,1.9,6.78,6.78,0,0,1-3.15.68h-4V23.19h3.48a3.46,3.46,0,0,0,1.61-.34,2.23,2.23,0,0,0,1-1,3.2,3.2,0,0,0,0-2.79,2.19,2.19,0,0,0-1-.93,3.55,3.55,0,0,0-1.63-.33H81.47V31.08Z"/><path d="M107.7,23.08a9.3,9.3,0,0,1-1,4.46,6.86,6.86,0,0,1-2.69,2.8,8,8,0,0,1-7.64,0,6.9,6.9,0,0,1-2.68-2.8,9.26,9.26,0,0,1-1-4.45,9.29,9.29,0,0,1,1-4.45,6.9,6.9,0,0,1,2.68-2.8,8.08,8.08,0,0,1,7.64,0,6.86,6.86,0,0,1,2.69,2.8A9.29,9.29,0,0,1,107.7,23.08Zm-3.43,0a7.32,7.32,0,0,0-.5-2.86,3.93,3.93,0,0,0-1.42-1.76,3.83,3.83,0,0,0-5.7,1.76,7.14,7.14,0,0,0-.51,2.86,7.07,7.07,0,0,0,.51,2.86,3.94,3.94,0,0,0,5.7,1.77,3.91,3.91,0,0,0,1.42-1.77A7.26,7.26,0,0,0,104.27,23.08Z"/><path d="M116.53,31.08h-5.67v-16h5.72a8.46,8.46,0,0,1,4.15,1,6.55,6.55,0,0,1,2.69,2.75,9,9,0,0,1,.94,4.28,9.13,9.13,0,0,1-.94,4.3,6.57,6.57,0,0,1-2.7,2.75A8.59,8.59,0,0,1,116.53,31.08Zm-2.29-2.89h2.15a5.41,5.41,0,0,0,2.53-.54A3.42,3.42,0,0,0,120.46,26a7,7,0,0,0,.52-2.92,6.9,6.9,0,0,0-.52-2.9,3.42,3.42,0,0,0-1.54-1.66A5.46,5.46,0,0,0,116.4,18h-2.16Z"/><path d="M130.9,15.08v16h-3.38v-16ZM128,13.54,129.68,10h3.08l-2.38,3.56Z"/><path d="M134.35,31.08v-16h3.38V28.3h6.86v2.78Z"/><path d="M158.93,31.08h-5.67v-16H159a8.5,8.5,0,0,1,4.16,1,6.52,6.52,0,0,1,2.68,2.75,9,9,0,0,1,.95,4.28,9.13,9.13,0,0,1-.95,4.3,6.49,6.49,0,0,1-2.69,2.75A8.62,8.62,0,0,1,158.93,31.08Zm-2.29-2.89h2.15a5.34,5.34,0,0,0,2.52-.54A3.39,3.39,0,0,0,162.86,26a7,7,0,0,0,.52-2.92,6.9,6.9,0,0,0-.52-2.9,3.42,3.42,0,0,0-1.54-1.66A5.46,5.46,0,0,0,158.8,18h-2.16Z"/><path d="M169.92,31.08v-16h6.31a6.86,6.86,0,0,1,3.1.65,4.61,4.61,0,0,1,2,1.82,5.43,5.43,0,0,1,.67,2.76,5.3,5.3,0,0,1-.68,2.74,4.48,4.48,0,0,1-2,1.75,7.34,7.34,0,0,1-3.15.61h-4.22V22.69h3.68a4.21,4.21,0,0,0,1.61-.26,1.93,1.93,0,0,0,.95-.8,2.53,2.53,0,0,0,.32-1.32,2.63,2.63,0,0,0-.32-1.34,2,2,0,0,0-1-.83,4,4,0,0,0-1.62-.29H173.3V31.08Zm8.64-7.28,4,7.28H178.8l-3.89-7.28Z"/><path d="M194.9,15.08h3.38V25.47a5.42,5.42,0,0,1-3.16,5.11,7.74,7.74,0,0,1-3.47.73,7.83,7.83,0,0,1-3.49-.73A5.43,5.43,0,0,1,185,25.47V15.08h3.39V25.19a3.19,3.19,0,0,0,.4,1.62,2.86,2.86,0,0,0,1.14,1.12,3.86,3.86,0,0,0,3.42,0,2.77,2.77,0,0,0,1.13-1.12,3.2,3.2,0,0,0,.41-1.62Z"/><path d="M201.72,31.08v-16h3.38v6.61H212V15.08h3.38v16H212V24.47H205.1v6.61Z"/><path d="M228.68,15.08h3.38V25.47a5.42,5.42,0,0,1-3.16,5.11,7.74,7.74,0,0,1-3.47.73,7.83,7.83,0,0,1-3.49-.73,5.4,5.4,0,0,1-3.14-5.11V15.08h3.38V25.19a3.19,3.19,0,0,0,.4,1.62,2.86,2.86,0,0,0,1.14,1.12,3.86,3.86,0,0,0,3.42,0,2.86,2.86,0,0,0,1.14-1.12,3.3,3.3,0,0,0,.4-1.62Zm-3.25-.86a2.54,2.54,0,0,1-1.28-.32,2.65,2.65,0,0,1-.92-.87,2.27,2.27,0,0,1-.34-1.22,2.25,2.25,0,0,1,.34-1.22,2.65,2.65,0,0,1,.92-.87,2.57,2.57,0,0,1,3.47.88,2.22,2.22,0,0,1,.35,1.21,2.28,2.28,0,0,1-.35,1.22,2.62,2.62,0,0,1-.91.87A2.54,2.54,0,0,1,225.43,14.22Zm0-1.35a1.13,1.13,0,0,0,.78-.31,1,1,0,0,0,0-1.51,1.06,1.06,0,0,0-.78-.3,1.09,1.09,0,0,0-.79.31,1,1,0,0,0-.33.75,1,1,0,0,0,.33.75A1.09,1.09,0,0,0,225.43,12.87Z"/><path d="M256,23.08a9.3,9.3,0,0,1-1,4.46,6.92,6.92,0,0,1-2.69,2.8,7.63,7.63,0,0,1-3.82,1,7.51,7.51,0,0,1-3.82-1,6.83,6.83,0,0,1-2.68-2.8,9.26,9.26,0,0,1-1-4.45,9.29,9.29,0,0,1,1-4.45,6.83,6.83,0,0,1,2.68-2.8,8.08,8.08,0,0,1,7.64,0,6.92,6.92,0,0,1,2.69,2.8A9.29,9.29,0,0,1,256,23.08Zm-3.43,0a7.14,7.14,0,0,0-.51-2.86,3.87,3.87,0,0,0-1.42-1.76,4.12,4.12,0,0,0-4.28,0,3.85,3.85,0,0,0-1.41,1.76,7.14,7.14,0,0,0-.51,2.86,7.07,7.07,0,0,0,.51,2.86,3.82,3.82,0,0,0,7.11,0A7.07,7.07,0,0,0,252.54,23.08Z"/><path d="M259.13,31.08v-16h3.38v6.61h6.87V15.08h3.37v16h-3.37V24.47h-6.87v6.61Z"/><path d="M276.2,31.08v-16h6.31a6.86,6.86,0,0,1,3.1.65,4.55,4.55,0,0,1,2,1.82,5.43,5.43,0,0,1,.68,2.76,5.21,5.21,0,0,1-.69,2.74,4.43,4.43,0,0,1-2,1.75,7.3,7.3,0,0,1-3.14.61H278.2V22.69h3.68a4.18,4.18,0,0,0,1.61-.26,2,2,0,0,0,1-.8,2.53,2.53,0,0,0,.31-1.32,2.63,2.63,0,0,0-.31-1.34,2,2,0,0,0-1-.83,4,4,0,0,0-1.62-.29h-2.28V31.08Zm8.64-7.28,4,7.28h-3.74l-3.89-7.28Z"/><path d="M306,23.08a9.3,9.3,0,0,1-1,4.46,6.86,6.86,0,0,1-2.69,2.8,8,8,0,0,1-7.64,0,6.9,6.9,0,0,1-2.68-2.8,9.26,9.26,0,0,1-1-4.45,9.29,9.29,0,0,1,1-4.45,6.9,6.9,0,0,1,2.68-2.8,8.08,8.08,0,0,1,7.64,0,6.86,6.86,0,0,1,2.69,2.8A9.29,9.29,0,0,1,306,23.08Zm-3.43,0a7.32,7.32,0,0,0-.5-2.86,3.93,3.93,0,0,0-1.42-1.76,4.12,4.12,0,0,0-4.28,0A3.93,3.93,0,0,0,295,20.22a7.15,7.15,0,0,0-.5,2.86,7.08,7.08,0,0,0,.5,2.86,3.91,3.91,0,0,0,1.42,1.77,4.12,4.12,0,0,0,4.28,0,3.91,3.91,0,0,0,1.42-1.77A7.26,7.26,0,0,0,302.57,23.08Z"/><path d="M309,31.08v-2l8-11.21h-8V15.08h12.25v2l-8,11.21h8v2.78Zm4.58-21L315.14,12l1.57-1.91h2.83v.11l-3.17,3.44h-2.48l-3.16-3.44V10.1Z"/><path d="M324.49,31.08v-16h10.78v2.79h-7.39v3.82h6.84v2.78h-6.84V28.3h7.42v2.78Z"/><path d="M352,15.08v16h-2.92l-7-10.07H342V31.08h-3.38v-16h3l6.9,10.07h.14V15.08Z"/><path d="M354.52,15.08h3.79L362,22h.16l3.65-6.89h3.78l-5.83,10.35v5.65h-3.36V25.43Zm6.32-1.54L362.5,10h3.08l-2.38,3.56Z"/><path d="M385.2,20.69h-3.42a3.4,3.4,0,0,0-.39-1.19,3,3,0,0,0-.74-.88,3.18,3.18,0,0,0-1-.57,4.09,4.09,0,0,0-1.28-.19,3.78,3.78,0,0,0-2.16.61,3.94,3.94,0,0,0-1.43,1.78,7.05,7.05,0,0,0-.51,2.83,7.21,7.21,0,0,0,.51,2.88,3.7,3.7,0,0,0,3.57,2.35,4.26,4.26,0,0,0,1.26-.18,3.2,3.2,0,0,0,1-.53,3,3,0,0,0,.75-.84,3.53,3.53,0,0,0,.42-1.14h3.42a6.23,6.23,0,0,1-.66,2.12,6.51,6.51,0,0,1-1.41,1.82A6.68,6.68,0,0,1,381,30.84a7.78,7.78,0,0,1-2.77.46,7.48,7.48,0,0,1-3.82-1,6.85,6.85,0,0,1-2.66-2.8,9.5,9.5,0,0,1-1-4.45,9.29,9.29,0,0,1,1-4.45,6.81,6.81,0,0,1,2.67-2.8,7.52,7.52,0,0,1,3.79-1,8.32,8.32,0,0,1,2.59.39A6.8,6.8,0,0,1,383,16.39a6.09,6.09,0,0,1,1.5,1.83A6.81,6.81,0,0,1,385.2,20.69Z"/><path d="M388.29,31.08v-16h3.38v6.61h6.87V15.08h3.37v16h-3.37V24.47h-6.87v6.61Z"/><path d="M414,15.08l3.87,12.16H418l3.87-12.16h3.75l-5.51,16h-4.36l-5.52-16Z"/><path d="M427.3,15.08h3.79L434.74,22h.15l3.65-6.89h3.79l-5.84,10.35v5.65h-3.36V25.43Z"/><path d="M444.83,31.08v-16h3.39v6.61h6.86V15.08h3.38v16h-3.38V24.47h-6.86v6.61Z"/><path d="M471.79,15.08h3.38V25.47A5.43,5.43,0,0,1,472,30.58a8.66,8.66,0,0,1-7,0,5.43,5.43,0,0,1-3.15-5.11V15.08h3.38V25.19a3.19,3.19,0,0,0,.4,1.62,2.86,2.86,0,0,0,1.14,1.12,3.88,3.88,0,0,0,3.43,0,2.9,2.9,0,0,0,1.13-1.12,3.19,3.19,0,0,0,.4-1.62Z"/><path d="M478.62,31.08v-16H485a7.27,7.27,0,0,1,3,.53,4,4,0,0,1,1.77,1.45,3.87,3.87,0,0,1,.59,2.13,3.45,3.45,0,0,1-.37,1.64,3.19,3.19,0,0,1-1,1.16,4.07,4.07,0,0,1-1.49.63v.16a3.67,3.67,0,0,1,1.72.52,3.61,3.61,0,0,1,1.3,1.33,4,4,0,0,1,.5,2,4.14,4.14,0,0,1-.63,2.27,4.29,4.29,0,0,1-1.86,1.58,7.11,7.11,0,0,1-3,.57Zm3.38-9.3h2.51a2.85,2.85,0,0,0,1.23-.25,1.93,1.93,0,0,0,.86-.7,1.84,1.84,0,0,0,.32-1.08,1.78,1.78,0,0,0-.61-1.4,2.6,2.6,0,0,0-1.74-.53H482Zm0,6.54h2.76a3.21,3.21,0,0,0,2.06-.54,1.82,1.82,0,0,0,.65-1.45,2.19,2.19,0,0,0-.32-1.18,2.27,2.27,0,0,0-.91-.79,3.22,3.22,0,0,0-1.41-.29H482Z"/><path d="M493.81,31.08v-16H504.6v2.79h-7.4v3.82H504v2.78H497.2V28.3h7.43v2.78Z"/><path d="M521.33,15.08v16h-2.92l-7-10.07h-.12V31.08H508v-16h3l6.9,10.07H518V15.08Z"/><path d="M528.16,15.08v16h-3.38v-16Zm-2.87-1.54L527,10H530l-2.38,3.56Z"/><path d="M531.61,15.08h4.18l4.4,10.75h.19l4.41-10.75H549v16h-3.28V20.67h-.14L541.4,31h-2.23L535,20.63h-.14V31.08h-3.28Z"/><path class="cls-1" d="M17.67,167.76a5.26,5.26,0,0,1-2.09-.4,3.52,3.52,0,0,1-1.45-1.13,2.84,2.84,0,0,1-.57-1.66h1.78a1.49,1.49,0,0,0,.35.89,2,2,0,0,0,.83.58,3,3,0,0,0,1.13.21,2.92,2.92,0,0,0,1.22-.24,2,2,0,0,0,.84-.67,1.68,1.68,0,0,0,.3-1,1.81,1.81,0,0,0-.3-1,2,2,0,0,0-.87-.7,3.36,3.36,0,0,0-1.38-.26h-1v-1.43h1a2.73,2.73,0,0,0,1.14-.23,2,2,0,0,0,.77-.65,1.71,1.71,0,0,0,.28-1,1.78,1.78,0,0,0-.24-.94,1.66,1.66,0,0,0-.68-.63,2.28,2.28,0,0,0-1-.23,2.67,2.67,0,0,0-1.06.21,2,2,0,0,0-.8.59,1.58,1.58,0,0,0-.33.92H13.8a2.88,2.88,0,0,1,.56-1.66,3.57,3.57,0,0,1,1.41-1.12,4.55,4.55,0,0,1,1.94-.41,4.08,4.08,0,0,1,1.94.44,3.21,3.21,0,0,1,1.26,1.16,3,3,0,0,1,.44,1.57,2.52,2.52,0,0,1-.55,1.66,2.64,2.64,0,0,1-1.45.92v.09a2.85,2.85,0,0,1,1.8.92,2.77,2.77,0,0,1,.63,1.85,2.9,2.9,0,0,1-.53,1.72,3.66,3.66,0,0,1-1.46,1.19A5,5,0,0,1,17.67,167.76Z"/><path class="cls-1" d="M28,167.79a3.77,3.77,0,0,1-2.3-.71A4.43,4.43,0,0,1,24.21,165a9.19,9.19,0,0,1-.5-3.24,9.43,9.43,0,0,1,.5-3.24,4.39,4.39,0,0,1,1.47-2,4,4,0,0,1,4.58,0,4.34,4.34,0,0,1,1.46,2.05,10.61,10.61,0,0,1,0,6.47,4.51,4.51,0,0,1-1.46,2.06A3.76,3.76,0,0,1,28,167.79Zm0-1.51a2.05,2.05,0,0,0,1.85-1.16,6.69,6.69,0,0,0,.67-3.33,8.58,8.58,0,0,0-.3-2.45,3.51,3.51,0,0,0-.87-1.53,2,2,0,0,0-1.35-.52,2,2,0,0,0-1.84,1.16,6.72,6.72,0,0,0-.68,3.34,8.58,8.58,0,0,0,.3,2.45,3.41,3.41,0,0,0,.87,1.52A2,2,0,0,0,28,166.28Z"/><path class="cls-1" d="M38.72,158.76v-.61a2.76,2.76,0,0,1,.27-1.22,2.28,2.28,0,0,1,.81-.88,2.69,2.69,0,0,1,2.58,0,2.16,2.16,0,0,1,.79.88,2.76,2.76,0,0,1,.27,1.22v.61a2.72,2.72,0,0,1-.27,1.21,2.18,2.18,0,0,1-.8.88,2.69,2.69,0,0,1-2.58,0A2.18,2.18,0,0,1,39,160,2.72,2.72,0,0,1,38.72,158.76Zm.47,8.84,8-11.64h1.36l-8,11.64Zm.86-9.45v.61a1.69,1.69,0,0,0,.23.89.85.85,0,0,0,.81.39.84.84,0,0,0,.79-.39,1.69,1.69,0,0,0,.23-.89v-.61a1.75,1.75,0,0,0-.22-.89.82.82,0,0,0-.8-.4.86.86,0,0,0-.81.4A1.76,1.76,0,0,0,40.05,158.15Zm4.52,7.27v-.62a2.68,2.68,0,0,1,.28-1.2,2.12,2.12,0,0,1,.8-.88,2.32,2.32,0,0,1,1.29-.34,2.35,2.35,0,0,1,1.29.33,2.18,2.18,0,0,1,.8.88,2.75,2.75,0,0,1,.27,1.21v.62a2.6,2.6,0,0,1-.28,1.21,2.22,2.22,0,0,1-.79.88,2.38,2.38,0,0,1-1.29.33,2.44,2.44,0,0,1-1.3-.33,2.25,2.25,0,0,1-.8-.88A2.86,2.86,0,0,1,44.57,165.42Zm1.32-.62v.62a1.87,1.87,0,0,0,.24.88,1,1,0,0,0,1.61,0,1.75,1.75,0,0,0,.23-.88v-.62a1.85,1.85,0,0,0-.22-.88.84.84,0,0,0-.81-.4.86.86,0,0,0-.81.4A1.87,1.87,0,0,0,45.89,164.8Z"/><path class="cls-1" d="M13.61,222v-1.27l3.94-4.08c.42-.44.77-.83,1-1.17a4.08,4.08,0,0,0,.62-1,2.24,2.24,0,0,0,.21-1,1.81,1.81,0,0,0-1-1.66,2.46,2.46,0,0,0-1.06-.23,2.22,2.22,0,0,0-1.09.26,1.72,1.72,0,0,0-.72.72,2.22,2.22,0,0,0-.25,1.09H13.6a3.53,3.53,0,0,1,.49-1.86,3.32,3.32,0,0,1,1.34-1.23,4.11,4.11,0,0,1,1.94-.44,4.1,4.1,0,0,1,1.93.43,3.26,3.26,0,0,1,1.31,1.18,3.06,3.06,0,0,1,.48,1.69,3.26,3.26,0,0,1-.25,1.26,5.53,5.53,0,0,1-.83,1.38A22.61,22.61,0,0,1,18.35,218L16,220.45v.09h5.23V222Z"/><path class="cls-1" d="M27.48,222.23a3.75,3.75,0,0,1-2.3-.71,4.24,4.24,0,0,1-1.46-2.05,10.52,10.52,0,0,1,0-6.47A4.37,4.37,0,0,1,25.19,211a4.1,4.1,0,0,1,4.58,0A4.53,4.53,0,0,1,31.23,213a9.09,9.09,0,0,1,.51,3.23,9.2,9.2,0,0,1-.51,3.25,4.34,4.34,0,0,1-1.46,2.05A3.73,3.73,0,0,1,27.48,222.23Zm0-1.51a2.06,2.06,0,0,0,1.85-1.16,6.77,6.77,0,0,0,.67-3.33,8.6,8.6,0,0,0-.31-2.45,3.32,3.32,0,0,0-.87-1.53,1.92,1.92,0,0,0-1.34-.52,2.06,2.06,0,0,0-1.85,1.16,6.76,6.76,0,0,0-.67,3.34,8.7,8.7,0,0,0,.3,2.46,3.25,3.25,0,0,0,.87,1.51A1.89,1.89,0,0,0,27.48,220.72Z"/><path class="cls-1" d="M38.22,213.2v-.61a2.57,2.57,0,0,1,.28-1.21,2.12,2.12,0,0,1,.8-.88,2.43,2.43,0,0,1,1.29-.33,2.39,2.39,0,0,1,1.3.33,2.1,2.1,0,0,1,.79.88,2.68,2.68,0,0,1,.26,1.21v.61a2.72,2.72,0,0,1-.27,1.21,2.16,2.16,0,0,1-.79.88,2.38,2.38,0,0,1-1.29.33,2.41,2.41,0,0,1-1.3-.33,2.16,2.16,0,0,1-.79-.88A2.6,2.6,0,0,1,38.22,213.2Zm.47,8.84,8-11.64h1.36l-8,11.64Zm.86-9.45v.61a1.79,1.79,0,0,0,.23.89.88.88,0,0,0,.81.39.85.85,0,0,0,.8-.39,1.79,1.79,0,0,0,.23-.89v-.61a1.78,1.78,0,0,0-.22-.89,1,1,0,0,0-1.61,0A1.7,1.7,0,0,0,39.55,212.59Zm4.53,7.27v-.61a2.57,2.57,0,0,1,.28-1.21,2.12,2.12,0,0,1,.8-.88,2.72,2.72,0,0,1,2.58,0,2.12,2.12,0,0,1,.79.89,2.69,2.69,0,0,1,.27,1.21v.61a2.72,2.72,0,0,1-.27,1.21,2.18,2.18,0,0,1-.8.88,2.69,2.69,0,0,1-2.58,0,2.18,2.18,0,0,1-.8-.88A2.72,2.72,0,0,1,44.08,219.86Zm1.32-.61v.61a1.82,1.82,0,0,0,.23.89.88.88,0,0,0,.81.39.86.86,0,0,0,.81-.39,1.81,1.81,0,0,0,.22-.89v-.61a1.75,1.75,0,0,0-.22-.89.82.82,0,0,0-.81-.4.86.86,0,0,0-.8.4A1.67,1.67,0,0,0,45.4,219.25Z"/><path class="cls-1" d="M18,264.85v11.63H16.27v-9.87H16.2l-2.78,1.82v-1.68l2.9-1.9Z"/><path class="cls-1" d="M25.23,276.68a3.81,3.81,0,0,1-2.3-.71,4.34,4.34,0,0,1-1.46-2.05,9.2,9.2,0,0,1-.51-3.25,9.09,9.09,0,0,1,.51-3.23,4.37,4.37,0,0,1,1.47-2.05,4.07,4.07,0,0,1,4.58,0,4.45,4.45,0,0,1,1.46,2,9.09,9.09,0,0,1,.51,3.23,9.2,9.2,0,0,1-.51,3.25A4.34,4.34,0,0,1,27.52,276,3.74,3.74,0,0,1,25.23,276.68Zm0-1.52A2.05,2.05,0,0,0,27.08,274a6.82,6.82,0,0,0,.67-3.34,8.65,8.65,0,0,0-.31-2.45,3.23,3.23,0,0,0-.87-1.52,1.88,1.88,0,0,0-1.34-.52,2,2,0,0,0-1.85,1.16,6.69,6.69,0,0,0-.67,3.33,8.7,8.7,0,0,0,.3,2.46,3.28,3.28,0,0,0,.87,1.52A1.92,1.92,0,0,0,25.23,275.16Z"/><path class="cls-1" d="M36,267.64V267a2.6,2.6,0,0,1,.28-1.21,2.12,2.12,0,0,1,.8-.88,2.43,2.43,0,0,1,1.29-.33,2.39,2.39,0,0,1,1.3.33,2.1,2.1,0,0,1,.79.88,2.71,2.71,0,0,1,.26,1.21v.61a2.72,2.72,0,0,1-.27,1.21,2.1,2.1,0,0,1-.79.88,2.38,2.38,0,0,1-1.29.33,2.41,2.41,0,0,1-1.3-.33,2.1,2.1,0,0,1-.79-.88A2.6,2.6,0,0,1,36,267.64Zm.47,8.84,8-11.63H45.8l-8,11.63ZM37.3,267v.61a1.79,1.79,0,0,0,.23.89.88.88,0,0,0,.81.4.85.85,0,0,0,.8-.4,1.79,1.79,0,0,0,.23-.89V267a1.78,1.78,0,0,0-.22-.89,1,1,0,0,0-1.61,0A1.7,1.7,0,0,0,37.3,267Zm4.53,7.27v-.61a2.6,2.6,0,0,1,.28-1.21,2.18,2.18,0,0,1,.8-.88,2.69,2.69,0,0,1,2.58,0,2.1,2.1,0,0,1,.79.88,2.72,2.72,0,0,1,.27,1.21v.61a2.72,2.72,0,0,1-.27,1.21,2.12,2.12,0,0,1-.8.88,2.69,2.69,0,0,1-2.58,0,2.12,2.12,0,0,1-.8-.88A2.72,2.72,0,0,1,41.83,274.3Zm1.32-.61v.61a1.79,1.79,0,0,0,.23.89.88.88,0,0,0,.81.4.87.87,0,0,0,.81-.4,1.78,1.78,0,0,0,.22-.89v-.61a1.78,1.78,0,0,0-.22-.89.84.84,0,0,0-.81-.4.88.88,0,0,0-.8.4A1.7,1.7,0,0,0,43.15,273.69Z"/><path class="cls-1" d="M25.18,331.12a3.77,3.77,0,0,1-2.3-.71,4.36,4.36,0,0,1-1.46-2.05,9.2,9.2,0,0,1-.51-3.25,9.09,9.09,0,0,1,.51-3.23,4.39,4.39,0,0,1,1.47-2,4,4,0,0,1,4.58,0,4.38,4.38,0,0,1,1.46,2,9.12,9.12,0,0,1,.51,3.23,9.41,9.41,0,0,1-.5,3.25,4.43,4.43,0,0,1-1.46,2.05A3.77,3.77,0,0,1,25.18,331.12Zm0-1.52A2,2,0,0,0,27,328.45a6.7,6.7,0,0,0,.67-3.34,8.3,8.3,0,0,0-.31-2.45,3.36,3.36,0,0,0-.86-1.52,1.92,1.92,0,0,0-1.35-.52,2,2,0,0,0-1.84,1.16,6.68,6.68,0,0,0-.68,3.33,8.7,8.7,0,0,0,.3,2.46,3.32,3.32,0,0,0,.87,1.52A1.92,1.92,0,0,0,25.18,329.6Z"/><path class="cls-1" d="M35.93,322.09v-.62a2.72,2.72,0,0,1,.27-1.21,2.08,2.08,0,0,1,.81-.88,2.69,2.69,0,0,1,2.58,0,2.1,2.1,0,0,1,.79.88,2.72,2.72,0,0,1,.27,1.21v.62a2.68,2.68,0,0,1-.27,1.2,2.12,2.12,0,0,1-.8.88,2.62,2.62,0,0,1-2.58,0,2.12,2.12,0,0,1-.8-.88A2.68,2.68,0,0,1,35.93,322.09Zm.47,8.84,8-11.64h1.36l-8,11.64Zm.86-9.46v.62a1.65,1.65,0,0,0,.23.88.84.84,0,0,0,.81.4.83.83,0,0,0,.79-.4,1.65,1.65,0,0,0,.23-.88v-.62a1.74,1.74,0,0,0-.22-.88.83.83,0,0,0-.8-.4.86.86,0,0,0-.81.4A1.65,1.65,0,0,0,37.26,321.47Zm4.52,7.27v-.61a2.73,2.73,0,0,1,.28-1.21,2.18,2.18,0,0,1,.8-.88,2.4,2.4,0,0,1,1.29-.33,2.38,2.38,0,0,1,1.29.33,2.12,2.12,0,0,1,.8.88,2.72,2.72,0,0,1,.27,1.21v.61a2.69,2.69,0,0,1-.28,1.21,2.06,2.06,0,0,1-.8.88,2.34,2.34,0,0,1-1.28.33,2.41,2.41,0,0,1-1.3-.33,2.12,2.12,0,0,1-.8-.88A2.69,2.69,0,0,1,41.78,328.74Zm1.32-.61v.61a1.77,1.77,0,0,0,.24.89,1,1,0,0,0,1.61,0,1.76,1.76,0,0,0,.23-.89v-.61a1.92,1.92,0,0,0-.22-.89.85.85,0,0,0-.81-.39.88.88,0,0,0-.81.39A1.94,1.94,0,0,0,43.1,328.13Z"/><path class="cls-1" d="M13.37,110.88v-1.42l5-7.94h1.12v2.09h-.71l-3.6,5.69v.09H22.1v1.49Zm5.52,2.28V101.52h1.66v11.64Z"/><path class="cls-1" d="M28.13,113.35a3.77,3.77,0,0,1-2.3-.71,4.36,4.36,0,0,1-1.46-2,10.55,10.55,0,0,1,0-6.48,4.39,4.39,0,0,1,1.47-2,4,4,0,0,1,4.58,0,4.31,4.31,0,0,1,1.46,2,9.12,9.12,0,0,1,.51,3.23,9.41,9.41,0,0,1-.5,3.25,4.43,4.43,0,0,1-1.46,2A3.77,3.77,0,0,1,28.13,113.35Zm0-1.52A2,2,0,0,0,30,110.68a6.7,6.7,0,0,0,.67-3.34,8.3,8.3,0,0,0-.31-2.45,3.36,3.36,0,0,0-.86-1.52,1.92,1.92,0,0,0-1.35-.52A2,2,0,0,0,26.29,104a6.68,6.68,0,0,0-.68,3.33,8.7,8.7,0,0,0,.3,2.46,3.32,3.32,0,0,0,.87,1.52A1.92,1.92,0,0,0,28.13,111.83Z"/><path class="cls-1" d="M38.88,104.32v-.62a2.72,2.72,0,0,1,.27-1.21,2.08,2.08,0,0,1,.81-.88,2.69,2.69,0,0,1,2.58,0,2.1,2.1,0,0,1,.79.88,2.72,2.72,0,0,1,.27,1.21v.62a2.65,2.65,0,0,1-.27,1.2,2.12,2.12,0,0,1-.8.88,2.62,2.62,0,0,1-2.58,0,2.12,2.12,0,0,1-.8-.88A2.65,2.65,0,0,1,38.88,104.32Zm.47,8.84,8-11.64h1.36l-8,11.64Zm.86-9.46v.62a1.74,1.74,0,0,0,.22.88.86.86,0,0,0,.81.4.84.84,0,0,0,.8-.4,1.65,1.65,0,0,0,.23-.88v-.62a1.74,1.74,0,0,0-.22-.88.84.84,0,0,0-.81-.4.86.86,0,0,0-.8.4A1.65,1.65,0,0,0,40.21,103.7ZM44.73,111v-.61a2.73,2.73,0,0,1,.28-1.21,2.18,2.18,0,0,1,.8-.88,2.4,2.4,0,0,1,1.29-.33,2.38,2.38,0,0,1,1.29.33,2.1,2.1,0,0,1,.79.88,2.73,2.73,0,0,1,.28,1.21V111a2.69,2.69,0,0,1-.28,1.21,2.12,2.12,0,0,1-.8.88,2.37,2.37,0,0,1-1.28.33,2.41,2.41,0,0,1-1.3-.33,2.12,2.12,0,0,1-.8-.88A2.69,2.69,0,0,1,44.73,111Zm1.32-.61V111a1.67,1.67,0,0,0,.24.89,1,1,0,0,0,1.61,0,1.76,1.76,0,0,0,.23-.89v-.61a1.92,1.92,0,0,0-.22-.89.85.85,0,0,0-.81-.39.88.88,0,0,0-.81.39A1.82,1.82,0,0,0,46.05,110.36Z"/><line class="cls-2" x1="51.5" y1="325.13" x2="56.09" y2="325.13"/><line class="cls-2" x1="51.5" y1="270.63" x2="56.09" y2="270.63"/><line class="cls-2" x1="51.5" y1="216.13" x2="56.09" y2="216.13"/><line class="cls-2" x1="51.5" y1="161.63" x2="56.09" y2="161.63"/><line class="cls-2" x1="51.5" y1="107.13" x2="56.09" y2="107.13"/><path class="cls-3" d="M80.63,354.39V341.3H85.3a5.18,5.18,0,0,1,2.53.56,3.58,3.58,0,0,1,1.5,1.51,4.59,4.59,0,0,1,.5,2.17,4.69,4.69,0,0,1-.5,2.17,3.63,3.63,0,0,1-1.51,1.52,5.18,5.18,0,0,1-2.53.56h-3.2v-1.68h3a3.24,3.24,0,0,0,1.57-.33,2,2,0,0,0,.88-.92,3,3,0,0,0,.28-1.32,2.91,2.91,0,0,0-.28-1.32,2,2,0,0,0-.88-.9,3.32,3.32,0,0,0-1.59-.33H82.61v11.4Z"/><path class="cls-3" d="M96.57,344.57v1.54H91.21v-1.54Zm-3.93-2.35h1.92v9.29a1.65,1.65,0,0,0,.16.83.87.87,0,0,0,.43.38,1.57,1.57,0,0,0,.58.1,2.33,2.33,0,0,0,.4,0l.27-.05.35,1.57a3.07,3.07,0,0,1-.47.14,4.13,4.13,0,0,1-.77.07,3.32,3.32,0,0,1-1.41-.27,2.47,2.47,0,0,1-1-.87,2.54,2.54,0,0,1-.41-1.48Z"/><path class="cls-3" d="M101.54,354.61a4,4,0,0,1-1.69-.35,2.8,2.8,0,0,1-1.19-1,2.86,2.86,0,0,1-.44-1.63,2.57,2.57,0,0,1,.32-1.37,2.34,2.34,0,0,1,.86-.85,4.24,4.24,0,0,1,1.22-.47,12.08,12.08,0,0,1,1.36-.25l1.44-.17a2,2,0,0,0,.79-.22.53.53,0,0,0,.25-.5v0a1.72,1.72,0,0,0-.47-1.3,1.9,1.9,0,0,0-1.39-.46,2.33,2.33,0,0,0-2.29,1.37L98.52,347a3.36,3.36,0,0,1,.94-1.45,3.76,3.76,0,0,1,1.42-.8,5.53,5.53,0,0,1,1.69-.26,6.3,6.3,0,0,1,1.25.14,3.81,3.81,0,0,1,1.24.5,2.82,2.82,0,0,1,1,1,3.61,3.61,0,0,1,.37,1.75v6.52h-1.87v-1.34h-.07a2.8,2.8,0,0,1-.56.73,3,3,0,0,1-.95.59A3.64,3.64,0,0,1,101.54,354.61Zm.41-1.54a2.76,2.76,0,0,0,1.36-.31,2.2,2.2,0,0,0,.86-.82,2.11,2.11,0,0,0,.3-1.09v-1.27a.88.88,0,0,1-.39.19,5.38,5.38,0,0,1-.66.15l-.73.11-.59.08a4.39,4.39,0,0,0-1,.24,1.71,1.71,0,0,0-.73.47,1.36,1.36,0,0,0,.26,1.89A2.27,2.27,0,0,0,102,353.07Zm-.07-9.81,1.5-2.94h2l-2,2.94Z"/><path class="cls-3" d="M113.06,354.59a4.5,4.5,0,0,1-2.45-.65,4.23,4.23,0,0,1-1.58-1.79,6.11,6.11,0,0,1-.55-2.62,5.9,5.9,0,0,1,.57-2.65,4.3,4.3,0,0,1,1.58-1.79,4.43,4.43,0,0,1,2.41-.65,4.59,4.59,0,0,1,2,.42,3.62,3.62,0,0,1,1.41,1.15,3.43,3.43,0,0,1,.64,1.73h-1.86a2.22,2.22,0,0,0-.7-1.19,2.08,2.08,0,0,0-1.46-.49,2.4,2.4,0,0,0-1.39.41,2.73,2.73,0,0,0-.93,1.19,4.45,4.45,0,0,0-.34,1.82,4.76,4.76,0,0,0,.33,1.86,2.69,2.69,0,0,0,.92,1.2,2.33,2.33,0,0,0,1.41.43,2.47,2.47,0,0,0,1-.2,2,2,0,0,0,.75-.58,2.19,2.19,0,0,0,.42-.91h1.86a3.57,3.57,0,0,1-2,2.88A4.46,4.46,0,0,1,113.06,354.59Z"/><path class="cls-3" d="M120.11,343.06a1.16,1.16,0,0,1-.85-.34,1.05,1.05,0,0,1-.36-.8,1.07,1.07,0,0,1,.36-.81,1.26,1.26,0,0,1,1.7,0,1.07,1.07,0,0,1,.36.81,1.05,1.05,0,0,1-.36.8A1.16,1.16,0,0,1,120.11,343.06Zm-1,11.33v-9.82h1.91v9.82Z"/><path class="cls-3" d="M389.66,354.39V341.3h4.67a5.18,5.18,0,0,1,2.53.56,3.58,3.58,0,0,1,1.5,1.51,4.59,4.59,0,0,1,.5,2.17,4.69,4.69,0,0,1-.5,2.17,3.63,3.63,0,0,1-1.51,1.52,5.18,5.18,0,0,1-2.53.56h-3.2v-1.68h3a3.24,3.24,0,0,0,1.57-.33,2,2,0,0,0,.88-.92,3,3,0,0,0,.28-1.32,2.91,2.91,0,0,0-.28-1.32,2,2,0,0,0-.88-.9,3.32,3.32,0,0,0-1.59-.33h-2.48v11.4Z"/><path class="cls-3" d="M403.87,354.61a4,4,0,0,1-1.68-.35,2.83,2.83,0,0,1-1.2-1,2.94,2.94,0,0,1-.43-1.63,2.57,2.57,0,0,1,.32-1.37,2.34,2.34,0,0,1,.86-.85,4.29,4.29,0,0,1,1.21-.47,12.69,12.69,0,0,1,1.37-.25l1.43-.17a2,2,0,0,0,.8-.22.53.53,0,0,0,.25-.5v0a1.75,1.75,0,0,0-.47-1.3,1.91,1.91,0,0,0-1.4-.46,2.38,2.38,0,0,0-1.51.43,2.31,2.31,0,0,0-.77.94l-1.79-.41a3.43,3.43,0,0,1,.93-1.45,3.84,3.84,0,0,1,1.42-.8,5.65,5.65,0,0,1,1.7-.26,6.3,6.3,0,0,1,1.25.14,3.81,3.81,0,0,1,1.24.5,2.91,2.91,0,0,1,1,1,3.72,3.72,0,0,1,.37,1.75v6.52h-1.87v-1.34h-.07a2.8,2.8,0,0,1-.56.73,3.07,3.07,0,0,1-1,.59A3.66,3.66,0,0,1,403.87,354.61Zm.42-1.54a2.76,2.76,0,0,0,1.36-.31,2.27,2.27,0,0,0,.86-.82,2.11,2.11,0,0,0,.3-1.09v-1.27a.87.87,0,0,1-.4.19,4.64,4.64,0,0,1-.66.15L405,350l-.59.08a4.27,4.27,0,0,0-1,.24,1.71,1.71,0,0,0-.73.47,1.37,1.37,0,0,0,.25,1.89A2.33,2.33,0,0,0,404.29,353.07Z"/><path class="cls-3" d="M411.26,354.39v-9.82h1.85v1.56h.1a2.43,2.43,0,0,1,1-1.25,2.76,2.76,0,0,1,1.55-.45h.42l.39,0v1.83l-.41-.08a5.85,5.85,0,0,0-.59,0,2.55,2.55,0,0,0-1.21.29,2.15,2.15,0,0,0-.83.78,2.21,2.21,0,0,0-.31,1.14v6Z"/><path class="cls-3" d="M419.39,358.05a4.52,4.52,0,0,1-.78-.07,3.19,3.19,0,0,1-.53-.14l.46-1.57a2.22,2.22,0,0,0,1.32,0,1.75,1.75,0,0,0,.9-1.14l.24-.65-3.59-9.95h2l2.49,7.62h.1l2.49-7.62,2.06,0-4.06,11.11a4.41,4.41,0,0,1-.71,1.29,2.85,2.85,0,0,1-1,.79A3.35,3.35,0,0,1,419.39,358.05Z"/><path class="cls-3" d="M428.54,354.39V341.3h1.91v4.86h.12a5.56,5.56,0,0,1,.48-.71,2.62,2.62,0,0,1,.87-.7,3.07,3.07,0,0,1,1.46-.31,3.79,3.79,0,0,1,2.13.61,4,4,0,0,1,1.46,1.73,6.25,6.25,0,0,1,.54,2.72,6.48,6.48,0,0,1-.53,2.73,4.13,4.13,0,0,1-1.46,1.74,3.74,3.74,0,0,1-2.12.61,3.13,3.13,0,0,1-1.46-.3,2.75,2.75,0,0,1-.88-.7,4.39,4.39,0,0,1-.49-.72h-.16v1.53Zm1.87-4.91a5.07,5.07,0,0,0,.3,1.82,2.78,2.78,0,0,0,.87,1.22,2.5,2.5,0,0,0,2.83,0,2.87,2.87,0,0,0,.87-1.25,4.9,4.9,0,0,0,.3-1.77,5,5,0,0,0-.29-1.74,2.72,2.72,0,0,0-.87-1.22,2.29,2.29,0,0,0-1.44-.45,2.25,2.25,0,0,0-1.41.43,2.54,2.54,0,0,0-.86,1.19A4.9,4.9,0,0,0,430.41,349.48Z"/><path class="cls-3" d="M440.86,358.05a4.52,4.52,0,0,1-.78-.07,3.19,3.19,0,0,1-.53-.14l.46-1.57a2.22,2.22,0,0,0,1.32,0,1.75,1.75,0,0,0,.9-1.14l.24-.65-3.59-9.95h2l2.49,7.62h.1l2.49-7.62,2.06,0L444,355.7a4.41,4.41,0,0,1-.71,1.29,2.85,2.85,0,0,1-1,.79A3.35,3.35,0,0,1,440.86,358.05Z"/><path class="cls-3" d="M88.36,228.28v13.09H85.6V230.91h-.08l-3,1.88v-2.46l3.24-2.05Z"/><path class="cls-3" d="M96.31,241.55a6.19,6.19,0,0,1-2.54-.5A4.26,4.26,0,0,1,92,239.69a3.41,3.41,0,0,1-.66-2h2.78a1.47,1.47,0,0,0,.32.84,1.89,1.89,0,0,0,.78.56,2.9,2.9,0,0,0,1.09.2,2.63,2.63,0,0,0,1.12-.23,1.8,1.8,0,0,0,.76-.62,1.58,1.58,0,0,0,.28-.91,1.52,1.52,0,0,0-.3-.93,2,2,0,0,0-.83-.64,3.29,3.29,0,0,0-1.28-.23H94.85v-2h1.22a2.59,2.59,0,0,0,1.11-.22,1.73,1.73,0,0,0,.75-.6,1.54,1.54,0,0,0,.27-.9,1.66,1.66,0,0,0-.23-.87,1.68,1.68,0,0,0-.65-.59,2.17,2.17,0,0,0-1-.21,2.66,2.66,0,0,0-1,.2,1.9,1.9,0,0,0-.75.58,1.57,1.57,0,0,0-.3.87H91.61a3.39,3.39,0,0,1,.65-2A4.23,4.23,0,0,1,94,228.59a5.63,5.63,0,0,1,2.4-.49,5.45,5.45,0,0,1,2.37.49,4,4,0,0,1,1.59,1.33,3.29,3.29,0,0,1,.56,1.87,2.61,2.61,0,0,1-.68,1.83,3.21,3.21,0,0,1-1.79.94v.1a3.49,3.49,0,0,1,2.2,1,2.79,2.79,0,0,1,.75,2,3.18,3.18,0,0,1-.64,2,4.31,4.31,0,0,1-1.79,1.37A6.46,6.46,0,0,1,96.31,241.55Z"/><path class="cls-3" d="M108,231.42v-.69a3.22,3.22,0,0,1,.34-1.45,2.63,2.63,0,0,1,1-1.06,2.92,2.92,0,0,1,1.55-.39,3,3,0,0,1,1.59.39,2.6,2.6,0,0,1,1,1.06,3.22,3.22,0,0,1,.33,1.45v.69a3.23,3.23,0,0,1-.33,1.46,2.67,2.67,0,0,1-1,1.05,3,3,0,0,1-1.58.39,2.89,2.89,0,0,1-1.57-.4,2.71,2.71,0,0,1-1-1A3.19,3.19,0,0,1,108,231.42Zm.62,10,9-13.09h1.67l-9,13.09Zm1.25-10.64v.69a1.84,1.84,0,0,0,.22.87.82.82,0,0,0,.78.39.84.84,0,0,0,.81-.39,1.83,1.83,0,0,0,.21-.87v-.69a1.85,1.85,0,0,0-.2-.87.85.85,0,0,0-.82-.4.8.8,0,0,0-.78.41A1.86,1.86,0,0,0,109.84,230.73Zm4.85,8.19v-.69a3.07,3.07,0,0,1,.34-1.45,2.61,2.61,0,0,1,1-1.06,2.89,2.89,0,0,1,1.57-.4,3,3,0,0,1,1.58.39,2.6,2.6,0,0,1,1,1.06,3.23,3.23,0,0,1,.33,1.46v.69a3.17,3.17,0,0,1-.33,1.44,2.59,2.59,0,0,1-1,1.07,3.38,3.38,0,0,1-3.15,0,2.57,2.57,0,0,1-1-1.07A3.17,3.17,0,0,1,114.69,238.92Zm1.86-.69v.69a1.71,1.71,0,0,0,.22.85.82.82,0,0,0,.8.41.84.84,0,0,0,.8-.4,1.79,1.79,0,0,0,.21-.86v-.69a1.8,1.8,0,0,0-.2-.87,1,1,0,0,0-1.61,0A1.81,1.81,0,0,0,116.55,238.23Z"/><path class="cls-3" d="M485.8,347.85a7.9,7.9,0,0,1-.76,3.6,5.87,5.87,0,0,1-8.16,2.31,5.61,5.61,0,0,1-2.1-2.31,8.82,8.82,0,0,1,0-7.21,5.61,5.61,0,0,1,2.1-2.31,5.73,5.73,0,0,1,8.16,2.31A7.91,7.91,0,0,1,485.8,347.85Zm-1.95,0a6.37,6.37,0,0,0-.52-2.7,3.84,3.84,0,0,0-1.4-1.66,3.86,3.86,0,0,0-4,0,3.84,3.84,0,0,0-1.4,1.66,7.24,7.24,0,0,0,0,5.39,3.84,3.84,0,0,0,1.4,1.66,3.86,3.86,0,0,0,4,0,3.84,3.84,0,0,0,1.4-1.66A6.35,6.35,0,0,0,483.85,347.85Z"/><path class="cls-3" d="M488.26,354.39V341.3h1.91v4.86h.11a4.91,4.91,0,0,1,.48-.7,2.73,2.73,0,0,1,.87-.71,3.09,3.09,0,0,1,1.47-.3,3.73,3.73,0,0,1,2.12.6,3.93,3.93,0,0,1,1.47,1.73,6.25,6.25,0,0,1,.54,2.72,6.48,6.48,0,0,1-.53,2.73,4.13,4.13,0,0,1-1.46,1.74,3.76,3.76,0,0,1-2.12.61,3.13,3.13,0,0,1-1.46-.3,2.65,2.65,0,0,1-.88-.7,5.31,5.31,0,0,1-.5-.72h-.16v1.53Zm1.87-4.91a5.07,5.07,0,0,0,.3,1.82,2.78,2.78,0,0,0,.87,1.22,2.21,2.21,0,0,0,1.39.43,2.29,2.29,0,0,0,1.44-.45,2.87,2.87,0,0,0,.87-1.25,4.9,4.9,0,0,0,.3-1.77,4.74,4.74,0,0,0-.3-1.74,2.58,2.58,0,0,0-.87-1.22,2.51,2.51,0,0,0-2.84,0,2.63,2.63,0,0,0-.87,1.19A5.13,5.13,0,0,0,490.13,349.48Z"/><path class="cls-3" d="M503.5,354.59a4.53,4.53,0,0,1-2.41-.63,4.3,4.3,0,0,1-1.6-1.77,6.52,6.52,0,0,1,0-5.33,4.26,4.26,0,0,1,1.6-1.78,4.92,4.92,0,0,1,4.82,0,4.2,4.2,0,0,1,1.6,1.78,6.52,6.52,0,0,1,0,5.33,4.23,4.23,0,0,1-1.6,1.77A4.51,4.51,0,0,1,503.5,354.59Zm0-1.61a2.26,2.26,0,0,0,1.48-.47,2.75,2.75,0,0,0,.87-1.26,5.31,5.31,0,0,0,0-3.46,2.89,2.89,0,0,0-.87-1.27,2.54,2.54,0,0,0-3,0,2.83,2.83,0,0,0-.88,1.27,5.48,5.48,0,0,0,0,3.46,2.69,2.69,0,0,0,.88,1.26A2.27,2.27,0,0,0,503.51,353Z"/><path class="cls-3" d="M510.21,344.57h1.91V355a3.58,3.58,0,0,1-.36,1.67,2.38,2.38,0,0,1-1.05,1,3.6,3.6,0,0,1-1.72.34h-.37v-1.65h.3a1.18,1.18,0,0,0,1-.37,1.55,1.55,0,0,0,.31-1.05Zm.94-1.51a1.18,1.18,0,0,1-.85-.34,1.05,1.05,0,0,1-.36-.8,1.09,1.09,0,0,1,.36-.81,1.27,1.27,0,0,1,1.71,0,1.11,1.11,0,0,1,.35.81,1.08,1.08,0,0,1-.35.8A1.18,1.18,0,0,1,511.15,343.06Z"/><path class="cls-3" d="M514.48,354.39v-1.31l5.32-6.76v-.09h-5.14v-1.66h7.53V346l-5.12,6.67v.09h5.3v1.66Zm2.56-13.8,1.32,1.72,1.31-1.72h1.73v.1l-2.25,2.71h-1.59l-2.25-2.71v-.1Z"/><path class="cls-3" d="M525.58,343.06a1.16,1.16,0,0,1-.85-.34,1.05,1.05,0,0,1-.36-.8,1.09,1.09,0,0,1,.36-.81,1.26,1.26,0,0,1,1.7,0,1.09,1.09,0,0,1,.36.81,1.05,1.05,0,0,1-.36.8A1.16,1.16,0,0,1,525.58,343.06Zm-1,11.33v-9.82h1.91v9.82Z"/><path class="cls-3" d="M537.49,344.57l-3.56,9.82h-2l-3.57-9.82h2l2.49,7.56h.1l2.48-7.56Z"/><path class="cls-3" d="M543.52,354.59A4.79,4.79,0,0,1,541,354a4.1,4.1,0,0,1-1.61-1.76,6.49,6.49,0,0,1,0-5.32,4.27,4.27,0,0,1,1.58-1.8,4.38,4.38,0,0,1,2.39-.64,4.9,4.9,0,0,1,1.61.27,3.85,3.85,0,0,1,1.4.86,4.08,4.08,0,0,1,1,1.53,6.33,6.33,0,0,1,.35,2.27v.68h-7.8v-1.43h5.93a2.76,2.76,0,0,0-.31-1.34,2.38,2.38,0,0,0-.85-.93,2.49,2.49,0,0,0-1.3-.34,2.42,2.42,0,0,0-1.4.4,2.58,2.58,0,0,0-.92,1,2.89,2.89,0,0,0-.33,1.37v1.11a3.73,3.73,0,0,0,.35,1.68,2.49,2.49,0,0,0,1,1,3.14,3.14,0,0,0,2.45.2,2.18,2.18,0,0,0,.78-.46,2.08,2.08,0,0,0,.49-.78l1.81.33a3.18,3.18,0,0,1-.77,1.39,3.82,3.82,0,0,1-1.4.93A5.22,5.22,0,0,1,543.52,354.59Z"/><path class="cls-3" d="M551.77,341.3v13.09h-1.91V341.3Z"/><path class="cls-3" d="M556.25,348.56v5.83h-1.91v-9.82h1.84v1.6h.12a2.8,2.8,0,0,1,1.06-1.25,3.29,3.29,0,0,1,1.84-.47,3.54,3.54,0,0,1,1.75.41,2.78,2.78,0,0,1,1.17,1.25,4.47,4.47,0,0,1,.42,2v6.24h-1.91v-6a2.36,2.36,0,0,0-.56-1.67,2,2,0,0,0-1.53-.61,2.43,2.43,0,0,0-1.18.29,2.05,2.05,0,0,0-.81.84A2.75,2.75,0,0,0,556.25,348.56Z"/><path class="cls-3" d="M565.1,354.39v-9.82H567v9.82Zm.17-11.13,1.5-2.94h2l-2,2.94Z"/><path class="cls-3" d="M573.71,354.59a4.5,4.5,0,0,1-2.45-.65,4.3,4.3,0,0,1-1.58-1.79,6.08,6.08,0,0,1-.55-2.62,5.9,5.9,0,0,1,.57-2.65,4.3,4.3,0,0,1,1.58-1.79,4.43,4.43,0,0,1,2.41-.64,4.59,4.59,0,0,1,2,.41A3.62,3.62,0,0,1,577.1,346a3.53,3.53,0,0,1,.65,1.73h-1.87a2.16,2.16,0,0,0-.7-1.18,2,2,0,0,0-1.46-.5,2.42,2.42,0,0,0-1.39.41,2.73,2.73,0,0,0-.93,1.19,4.62,4.62,0,0,0-.33,1.82,4.76,4.76,0,0,0,.32,1.86,2.76,2.76,0,0,0,.92,1.2,2.33,2.33,0,0,0,1.41.43,2.4,2.4,0,0,0,1-.2,2,2,0,0,0,.75-.58,2.2,2.2,0,0,0,.42-.9h1.87a3.64,3.64,0,0,1-.62,1.69,3.56,3.56,0,0,1-1.39,1.18A4.46,4.46,0,0,1,573.71,354.59Z"/><path class="cls-3" d="M580.76,343.06a1.16,1.16,0,0,1-.85-.34,1.05,1.05,0,0,1-.36-.8,1.09,1.09,0,0,1,.36-.81,1.19,1.19,0,0,1,.85-.33,1.23,1.23,0,0,1,.86.33,1.11,1.11,0,0,1,.35.81,1.08,1.08,0,0,1-.35.8A1.2,1.2,0,0,1,580.76,343.06Zm-1,11.33v-9.82h1.91v9.82Z"/><path class="cls-3" d="M405.14,147.69a6.2,6.2,0,0,1-2.55-.49,4.35,4.35,0,0,1-1.76-1.37,3.39,3.39,0,0,1-.66-2H403a1.4,1.4,0,0,0,.31.84,2,2,0,0,0,.78.56,2.9,2.9,0,0,0,1.09.2,2.6,2.6,0,0,0,1.12-.22,1.81,1.81,0,0,0,.76-.62,1.54,1.54,0,0,0,.28-.92,1.58,1.58,0,0,0-.29-.93,1.92,1.92,0,0,0-.83-.63,3.17,3.17,0,0,0-1.29-.23h-1.22v-2h1.22a2.75,2.75,0,0,0,1.11-.21,1.7,1.7,0,0,0,.75-.61,1.54,1.54,0,0,0,.27-.9,1.57,1.57,0,0,0-.23-.87,1.59,1.59,0,0,0-.65-.58,2.17,2.17,0,0,0-1-.21,2.49,2.49,0,0,0-1,.2,1.7,1.7,0,0,0-.74.57,1.48,1.48,0,0,0-.3.87h-2.66a3.46,3.46,0,0,1,.65-2,4.3,4.3,0,0,1,1.69-1.35,5.79,5.79,0,0,1,2.41-.49,5.37,5.37,0,0,1,2.37.5,4,4,0,0,1,1.58,1.32,3.24,3.24,0,0,1,.56,1.87,2.59,2.59,0,0,1-.68,1.84,3.14,3.14,0,0,1-1.79.93v.1a3.54,3.54,0,0,1,2.2,1,2.82,2.82,0,0,1,.75,2,3.2,3.2,0,0,1-.64,2,4.41,4.41,0,0,1-1.78,1.36A6.33,6.33,0,0,1,405.14,147.69Z"/><path class="cls-3" d="M417.86,134.42v13.09H415.1V137.05H415l-3,1.88v-2.46l3.24-2.05Z"/><path class="cls-3" d="M425.6,137.57v-.69a3.23,3.23,0,0,1,.34-1.46,2.63,2.63,0,0,1,1-1.06,2.92,2.92,0,0,1,1.55-.39,3,3,0,0,1,1.59.39,2.6,2.6,0,0,1,1,1.06,3.23,3.23,0,0,1,.33,1.46v.69A3.19,3.19,0,0,1,431,139a2.54,2.54,0,0,1-1,1,3,3,0,0,1-1.58.39,2.89,2.89,0,0,1-1.57-.4,2.58,2.58,0,0,1-1-1.05A3.17,3.17,0,0,1,425.6,137.57Zm.62,9.94,9-13.09h1.67l-9,13.09Zm1.25-10.63v.69a1.8,1.8,0,0,0,.22.86.83.83,0,0,0,.78.4.85.85,0,0,0,.81-.4,1.79,1.79,0,0,0,.21-.86v-.69a1.85,1.85,0,0,0-.2-.87.84.84,0,0,0-.82-.41.8.8,0,0,0-.78.41A1.9,1.9,0,0,0,427.47,136.88Zm4.85,8.18v-.69a3.07,3.07,0,0,1,.34-1.45,2.67,2.67,0,0,1,1-1.06,2.89,2.89,0,0,1,1.57-.4,2.92,2.92,0,0,1,1.58.4,2.52,2.52,0,0,1,1,1,3.23,3.23,0,0,1,.33,1.46v.69a3.25,3.25,0,0,1-.33,1.45,2.63,2.63,0,0,1-1,1.06,3.3,3.3,0,0,1-3.15,0,2.6,2.6,0,0,1-1-1.06A3.25,3.25,0,0,1,432.32,145.06Zm1.86-.69v.69a1.75,1.75,0,0,0,.22.86,1,1,0,0,0,1.6,0,1.79,1.79,0,0,0,.21-.86v-.69a1.85,1.85,0,0,0-.2-.87,1,1,0,0,0-1.61,0A1.87,1.87,0,0,0,434.18,144.37Z"/><path class="cls-3" d="M504.55,90.29V88.11L510,79.5h1.88v3h-1.11L507.33,88v.1h7.77v2.22Zm6.28,2.3v-3l.05-1V79.5h2.6V92.59Z"/><path class="cls-3" d="M517,92.59v-2l4.66-4.31c.39-.39.73-.73,1-1a3.87,3.87,0,0,0,.61-.9,2.24,2.24,0,0,0,.21-1,1.8,1.8,0,0,0-.26-1,1.69,1.69,0,0,0-.71-.64,2.33,2.33,0,0,0-1-.23,2.2,2.2,0,0,0-1,.24,1.66,1.66,0,0,0-.69.7,2.27,2.27,0,0,0-.24,1.08h-2.63a4.14,4.14,0,0,1,.58-2.23A3.85,3.85,0,0,1,519,79.84a5.32,5.32,0,0,1,2.42-.52,5.7,5.7,0,0,1,2.45.49,3.91,3.91,0,0,1,1.62,1.37,3.57,3.57,0,0,1,.59,2,3.78,3.78,0,0,1-.3,1.46,5.86,5.86,0,0,1-1,1.61,23.82,23.82,0,0,1-2.09,2.1l-1.91,1.87v.09h5.5v2.27Z"/><path class="cls-3" d="M532.91,82.64V82a3.19,3.19,0,0,1,.34-1.45,2.57,2.57,0,0,1,1-1.06,2.84,2.84,0,0,1,1.55-.4,2.93,2.93,0,0,1,1.59.4,2.54,2.54,0,0,1,1,1.06,3.19,3.19,0,0,1,.33,1.45v.69a3.19,3.19,0,0,1-.33,1.45,2.54,2.54,0,0,1-1,1,2.9,2.9,0,0,1-1.58.4,3,3,0,0,1-1.57-.4,2.67,2.67,0,0,1-1-1.06A3.12,3.12,0,0,1,532.91,82.64Zm.62,10,9-13.09h1.67l-9,13.09ZM534.78,82v.69a1.8,1.8,0,0,0,.22.86.81.81,0,0,0,.78.4.83.83,0,0,0,.81-.4,1.79,1.79,0,0,0,.21-.86V82a1.85,1.85,0,0,0-.2-.87.83.83,0,0,0-.82-.4.8.8,0,0,0-.78.41A1.86,1.86,0,0,0,534.78,82Zm4.85,8.18v-.69A3.13,3.13,0,0,1,540,88a2.67,2.67,0,0,1,1-1.06,3,3,0,0,1,1.57-.4,3,3,0,0,1,1.58.4,2.54,2.54,0,0,1,1,1.06,3.19,3.19,0,0,1,.33,1.45v.69a3.19,3.19,0,0,1-.33,1.45,2.57,2.57,0,0,1-1,1.06,3.3,3.3,0,0,1-3.15,0,2.54,2.54,0,0,1-1-1.06A3.19,3.19,0,0,1,539.63,90.13Zm1.86-.69v.69a1.75,1.75,0,0,0,.22.86.82.82,0,0,0,.8.4.84.84,0,0,0,.8-.39,1.86,1.86,0,0,0,.21-.87v-.69a1.85,1.85,0,0,0-.2-.87,1,1,0,0,0-1.61,0A1.87,1.87,0,0,0,541.49,89.44Z"/><line class="cls-4" x1="63.45" y1="325.13" x2="561.6" y2="325.13"/><path class="cls-3" d="M191.86,344.74a1.88,1.88,0,0,0-.84-1.41,3.32,3.32,0,0,0-1.87-.5,3.45,3.45,0,0,0-1.39.25,2.1,2.1,0,0,0-.91.69,1.6,1.6,0,0,0-.33,1,1.5,1.5,0,0,0,.22.8,1.89,1.89,0,0,0,.59.57,4.2,4.2,0,0,0,.77.37c.28.1.55.18.8.25l1.28.33a8.31,8.31,0,0,1,1.28.42,4.74,4.74,0,0,1,1.22.69,3.36,3.36,0,0,1,.92,1.06,3.09,3.09,0,0,1,.34,1.51,3.51,3.51,0,0,1-.57,2,3.87,3.87,0,0,1-1.65,1.36,6.31,6.31,0,0,1-2.62.5,6.41,6.41,0,0,1-2.55-.47,3.7,3.7,0,0,1-2.35-3.37h2a2,2,0,0,0,.47,1.18,2.37,2.37,0,0,0,1,.7,4.15,4.15,0,0,0,1.4.23,3.92,3.92,0,0,0,1.49-.27,2.43,2.43,0,0,0,1-.74,1.76,1.76,0,0,0,.38-1.12,1.39,1.39,0,0,0-.33-.95,2.46,2.46,0,0,0-.89-.61,8.42,8.42,0,0,0-1.26-.43l-1.55-.42a6.08,6.08,0,0,1-2.49-1.26,2.85,2.85,0,0,1-.92-2.2,3.31,3.31,0,0,1,.62-2,4,4,0,0,1,1.66-1.31,5.79,5.79,0,0,1,2.37-.47,5.59,5.59,0,0,1,2.34.47,4,4,0,0,1,1.61,1.28,3.3,3.3,0,0,1,.62,1.87Z"/><path class="cls-3" d="M199,354.61a4,4,0,0,1-1.69-.35,2.8,2.8,0,0,1-1.19-1,2.94,2.94,0,0,1-.44-1.63,2.67,2.67,0,0,1,.32-1.37,2.34,2.34,0,0,1,.86-.85,4.24,4.24,0,0,1,1.22-.47,12.08,12.08,0,0,1,1.36-.25l1.44-.17a2,2,0,0,0,.79-.22.53.53,0,0,0,.25-.5v0a1.72,1.72,0,0,0-.47-1.3,1.88,1.88,0,0,0-1.39-.46,2.39,2.39,0,0,0-1.52.43,2.28,2.28,0,0,0-.76.94L196,347a3.36,3.36,0,0,1,.94-1.45,3.76,3.76,0,0,1,1.42-.8,5.53,5.53,0,0,1,1.69-.26,6.3,6.3,0,0,1,1.25.14,3.72,3.72,0,0,1,1.24.5,2.82,2.82,0,0,1,.95,1,3.61,3.61,0,0,1,.37,1.75v6.52H202v-1.34h-.08a2.8,2.8,0,0,1-.56.73,2.85,2.85,0,0,1-.95.59A3.64,3.64,0,0,1,199,354.61Zm.41-1.54a2.76,2.76,0,0,0,1.36-.31,2.13,2.13,0,0,0,.86-.82,2.11,2.11,0,0,0,.3-1.09v-1.27a.88.88,0,0,1-.39.19,5.38,5.38,0,0,1-.66.15l-.73.11-.58.08a4.36,4.36,0,0,0-1,.24,1.71,1.71,0,0,0-.73.47,1.36,1.36,0,0,0,.26,1.89A2.29,2.29,0,0,0,199.42,353.07Z"/><path class="cls-3" d="M214.8,344.57l-3.56,9.82h-2.05l-3.57-9.82h2l2.49,7.56h.1l2.48-7.56Z"/><path class="cls-3" d="M220.73,354.59a4.5,4.5,0,0,1-2.45-.65,4.23,4.23,0,0,1-1.58-1.79,6,6,0,0,1-.55-2.62,6,6,0,0,1,.56-2.65,4.27,4.27,0,0,1,4-2.44,4.54,4.54,0,0,1,2,.42,3.58,3.58,0,0,1,1.42,1.15,3.52,3.52,0,0,1,.64,1.73H222.9a2.28,2.28,0,0,0-.7-1.19,2.08,2.08,0,0,0-1.46-.49,2.45,2.45,0,0,0-1.4.41,2.73,2.73,0,0,0-.93,1.19,4.62,4.62,0,0,0-.33,1.82,4.76,4.76,0,0,0,.33,1.86,2.62,2.62,0,0,0,.92,1.2,2.33,2.33,0,0,0,1.41.43,2.47,2.47,0,0,0,1-.2,2.11,2.11,0,0,0,.75-.58,2.19,2.19,0,0,0,.42-.91h1.86a3.57,3.57,0,0,1-2,2.88A4.49,4.49,0,0,1,220.73,354.59Z"/><path class="cls-3" d="M227.78,343.06a1.2,1.2,0,0,1-.86-.34,1.08,1.08,0,0,1-.35-.8,1.1,1.1,0,0,1,.35-.81,1.23,1.23,0,0,1,.86-.33,1.21,1.21,0,0,1,.85.33,1.07,1.07,0,0,1,.36.81,1.05,1.05,0,0,1-.36.8A1.18,1.18,0,0,1,227.78,343.06Zm-1,11.33v-9.82h1.91v9.82Z"/><path class="cls-3" d="M187.41,177.36v-2l4.66-4.31c.4-.39.73-.73,1-1a4.16,4.16,0,0,0,.62-.9,2.25,2.25,0,0,0,.21-1,1.87,1.87,0,0,0-.26-1,1.81,1.81,0,0,0-.72-.65,2.26,2.26,0,0,0-1-.22,2.13,2.13,0,0,0-1,.24,1.61,1.61,0,0,0-.69.7,2.16,2.16,0,0,0-.25,1.08h-2.62a4.14,4.14,0,0,1,.58-2.23,3.88,3.88,0,0,1,1.63-1.47,5.44,5.44,0,0,1,2.41-.51,5.72,5.72,0,0,1,2.46.49A4,4,0,0,1,196,166a3.54,3.54,0,0,1,.58,2,3.76,3.76,0,0,1-.29,1.46,6.07,6.07,0,0,1-1,1.6,22.44,22.44,0,0,1-2.09,2.11L191.25,175v.09h5.5v2.26Z"/><path class="cls-3" d="M203.53,177.54a5.64,5.64,0,0,1-2.41-.49,4.4,4.4,0,0,1-1.68-1.38,3.48,3.48,0,0,1-.64-2h2.68a1.64,1.64,0,0,0,.64,1.24,2.24,2.24,0,0,0,1.41.47,2.32,2.32,0,0,0,1.16-.29,2.1,2.1,0,0,0,.78-.81,2.48,2.48,0,0,0,.29-1.2,2.53,2.53,0,0,0-.29-1.22,2.15,2.15,0,0,0-.8-.81,2.32,2.32,0,0,0-1.17-.3,2.71,2.71,0,0,0-1.12.23,2.06,2.06,0,0,0-.84.65l-2.46-.44.62-6.91h8v2.27H202l-.34,3.28h.08a2.49,2.49,0,0,1,1-.81,3.75,3.75,0,0,1,1.56-.32,4,4,0,0,1,2.11.56,4,4,0,0,1,1.46,1.52,4.89,4.89,0,0,1-.08,4.58,4.31,4.31,0,0,1-1.72,1.61A5.37,5.37,0,0,1,203.53,177.54Z"/><path class="cls-3" d="M215,167.42v-.69a3.14,3.14,0,0,1,.34-1.46,2.54,2.54,0,0,1,1-1.05,2.82,2.82,0,0,1,1.55-.4,2.93,2.93,0,0,1,1.59.4,2.52,2.52,0,0,1,1,1.05,3.26,3.26,0,0,1,.33,1.46v.69a3.19,3.19,0,0,1-.33,1.45,2.54,2.54,0,0,1-1,1,3,3,0,0,1-1.58.39,2.89,2.89,0,0,1-1.57-.4,2.52,2.52,0,0,1-1-1A3.17,3.17,0,0,1,215,167.42Zm.62,9.94,9-13.09h1.67l-9,13.09Zm1.25-10.63v.69a1.8,1.8,0,0,0,.22.86.81.81,0,0,0,.78.4.83.83,0,0,0,.81-.4,1.79,1.79,0,0,0,.21-.86v-.69a1.85,1.85,0,0,0-.2-.87.83.83,0,0,0-.82-.4.78.78,0,0,0-.78.41A1.86,1.86,0,0,0,216.85,166.73Zm4.84,8.18v-.69a3.23,3.23,0,0,1,.35-1.45,2.67,2.67,0,0,1,1-1.06,2.89,2.89,0,0,1,1.57-.4,2.92,2.92,0,0,1,1.58.4,2.48,2.48,0,0,1,1,1.06,3.19,3.19,0,0,1,.33,1.45v.69a3.22,3.22,0,0,1-.33,1.45,2.63,2.63,0,0,1-1,1.06,3.3,3.3,0,0,1-3.15,0,2.6,2.6,0,0,1-1-1.06A3.36,3.36,0,0,1,221.69,174.91Zm1.86-.69v.69a1.87,1.87,0,0,0,.23.86.82.82,0,0,0,.8.4.84.84,0,0,0,.8-.4,1.79,1.79,0,0,0,.21-.86v-.69a2,2,0,0,0-.2-.87,1,1,0,0,0-1.61,0A1.88,1.88,0,0,0,223.55,174.22Z"/><path class="cls-3" d="M293.64,354.39V341.3h4.67a5.18,5.18,0,0,1,2.53.56,3.58,3.58,0,0,1,1.5,1.51,5,5,0,0,1,0,4.34,3.68,3.68,0,0,1-1.51,1.52,5.2,5.2,0,0,1-2.53.56h-3.21v-1.68h3a3.27,3.27,0,0,0,1.57-.33,2.06,2.06,0,0,0,.88-.92,3,3,0,0,0,.28-1.32,2.91,2.91,0,0,0-.28-1.32,2,2,0,0,0-.89-.9,3.28,3.28,0,0,0-1.58-.33h-2.48v11.4Z"/><path class="cls-3" d="M306.9,341.3v13.09H305V341.3Z"/><path class="cls-3" d="M312.33,354.61a4.05,4.05,0,0,1-1.69-.35,2.8,2.8,0,0,1-1.19-1,2.94,2.94,0,0,1-.44-1.63,2.67,2.67,0,0,1,.32-1.37,2.36,2.36,0,0,1,.87-.85,4.18,4.18,0,0,1,1.21-.47,12.26,12.26,0,0,1,1.37-.25l1.43-.17a2,2,0,0,0,.8-.22.55.55,0,0,0,.25-.5v0a1.75,1.75,0,0,0-.47-1.3,1.92,1.92,0,0,0-1.4-.46,2.41,2.41,0,0,0-1.52.43,2.28,2.28,0,0,0-.76.94l-1.8-.41a3.55,3.55,0,0,1,.94-1.45,3.76,3.76,0,0,1,1.42-.8,5.6,5.6,0,0,1,1.7-.26,6.38,6.38,0,0,1,1.25.14,3.81,3.81,0,0,1,1.24.5,2.8,2.8,0,0,1,.94,1,3.6,3.6,0,0,1,.38,1.75v6.52h-1.87v-1.34h-.08a2.75,2.75,0,0,1-.55.73,3,3,0,0,1-1,.59A3.6,3.6,0,0,1,312.33,354.61Zm.42-1.54a2.72,2.72,0,0,0,1.35-.31,2.22,2.22,0,0,0,.87-.82,2.1,2.1,0,0,0,.29-1.09v-1.27a.77.77,0,0,1-.39.19,4.64,4.64,0,0,1-.66.15l-.72.11-.59.08a4.27,4.27,0,0,0-1,.24,1.65,1.65,0,0,0-.73.47,1.37,1.37,0,0,0,.25,1.89A2.33,2.33,0,0,0,312.75,353.07Z"/><path class="cls-3" d="M319.51,354.39v-1.31l5.32-6.76v-.09h-5.14v-1.66h7.53V346l-5.12,6.67v.09h5.3v1.66Z"/><path class="cls-3" d="M330.61,343.06a1.16,1.16,0,0,1-.85-.34,1.05,1.05,0,0,1-.36-.8,1.07,1.07,0,0,1,.36-.81,1.26,1.26,0,0,1,1.7,0,1.07,1.07,0,0,1,.36.81,1.05,1.05,0,0,1-.36.8A1.16,1.16,0,0,1,330.61,343.06Zm-1,11.33v-9.82h1.91v9.82Z"/><path class="cls-3" d="M300.11,199V212h-2.77V201.58h-.07l-3,1.88V201l3.24-2.06Z"/><path class="cls-3" d="M308,198.74a5.87,5.87,0,0,1,2,.33,4.62,4.62,0,0,1,1.67,1.08,5.31,5.31,0,0,1,1.17,2,9.42,9.42,0,0,1,.44,3,11.28,11.28,0,0,1-.38,3,6.75,6.75,0,0,1-1.07,2.22,4.75,4.75,0,0,1-1.68,1.39,5.07,5.07,0,0,1-2.2.47,5.16,5.16,0,0,1-2.31-.5,4.28,4.28,0,0,1-1.61-1.39,4.23,4.23,0,0,1-.74-2h2.73a1.81,1.81,0,0,0,.67,1.11,2,2,0,0,0,1.26.39,2.14,2.14,0,0,0,1.95-1.11,6.14,6.14,0,0,0,.67-3.06h-.09a3.29,3.29,0,0,1-.79,1,4,4,0,0,1-1.14.63,4.14,4.14,0,0,1-1.37.22A4,4,0,0,1,305,207a3.9,3.9,0,0,1-1.43-1.5,4.42,4.42,0,0,1-.52-2.18,4.51,4.51,0,0,1,.61-2.36,4.31,4.31,0,0,1,1.71-1.62A5.3,5.3,0,0,1,308,198.74Zm0,2.17a2.13,2.13,0,0,0-1.15.31,2.18,2.18,0,0,0-.79.83,2.31,2.31,0,0,0-.29,1.17,2.36,2.36,0,0,0,.28,1.17,2.18,2.18,0,0,0,1.92,1.13,2.18,2.18,0,0,0,.89-.18,2.08,2.08,0,0,0,.71-.5,2.23,2.23,0,0,0,.47-.73,2.26,2.26,0,0,0,.18-.9,2.4,2.4,0,0,0-.29-1.16,2.25,2.25,0,0,0-.79-.83A2.12,2.12,0,0,0,308,200.91Z"/><path class="cls-3" d="M319.73,202.1v-.69a3.23,3.23,0,0,1,.34-1.46,2.54,2.54,0,0,1,1-1,2.86,2.86,0,0,1,1.55-.4,2.91,2.91,0,0,1,1.59.4,2.54,2.54,0,0,1,1,1,3.36,3.36,0,0,1,.32,1.46v.69a3.19,3.19,0,0,1-.33,1.45,2.54,2.54,0,0,1-1,1,3,3,0,0,1-1.58.39,2.89,2.89,0,0,1-1.57-.4,2.58,2.58,0,0,1-1-1.05A3.17,3.17,0,0,1,319.73,202.1Zm.62,9.94,9-13.09H331L322,212Zm1.25-10.63v.69a1.81,1.81,0,0,0,.23.86.79.79,0,0,0,.77.4.82.82,0,0,0,.81-.4,1.69,1.69,0,0,0,.21-.86v-.69a1.74,1.74,0,0,0-.2-.87.83.83,0,0,0-.82-.4.79.79,0,0,0-.78.41A2,2,0,0,0,321.6,201.41Zm4.85,8.18v-.69a3.1,3.1,0,0,1,.34-1.45,2.67,2.67,0,0,1,1-1.06,3.3,3.3,0,0,1,3.15,0,2.48,2.48,0,0,1,1,1.06,3.19,3.19,0,0,1,.33,1.45v.69a3.22,3.22,0,0,1-.33,1.45,2.63,2.63,0,0,1-1,1.06,3.3,3.3,0,0,1-3.15,0,2.6,2.6,0,0,1-1-1.06A3.22,3.22,0,0,1,326.45,209.59Zm1.86-.69v.69a1.75,1.75,0,0,0,.22.86.82.82,0,0,0,.8.4.83.83,0,0,0,.8-.4,1.79,1.79,0,0,0,.21-.86v-.69a1.85,1.85,0,0,0-.2-.87.82.82,0,0,0-.81-.4.84.84,0,0,0-.8.4A1.87,1.87,0,0,0,328.31,208.9Z"/><path d="M135,84.35v-1.1l5.74-8.39h-5.79V73.44h7.8v1.1L137,82.93h5.78v1.42Z"/><path d="M148.23,84.52a4,4,0,0,1-2.08-.52,3.56,3.56,0,0,1-1.35-1.47,5.45,5.45,0,0,1,0-4.43,3.71,3.71,0,0,1,1.32-1.5,3.64,3.64,0,0,1,2-.54,4.12,4.12,0,0,1,1.35.23,3.14,3.14,0,0,1,1.16.72,3.36,3.36,0,0,1,.82,1.27,5.28,5.28,0,0,1,.3,1.89v.57h-6.51V79.55h5a2.37,2.37,0,0,0-.26-1.12,1.91,1.91,0,0,0-.72-.77,2,2,0,0,0-1.07-.28,2.14,2.14,0,0,0-1.17.32,2.2,2.2,0,0,0-.77.86,2.44,2.44,0,0,0-.27,1.13v.94a3.1,3.1,0,0,0,.29,1.39,2,2,0,0,0,.81.88,2.42,2.42,0,0,0,1.22.3,2.45,2.45,0,0,0,.83-.13,1.71,1.71,0,0,0,1.06-1l1.5.27a2.69,2.69,0,0,1-.64,1.17,3.1,3.1,0,0,1-1.17.77A4.42,4.42,0,0,1,148.23,84.52Z"/><path d="M164.48,76.17l-3,8.18h-1.71l-3-8.18h1.71l2.07,6.29h.09l2.06-6.29Z"/><path d="M172.11,78.17l-1.44.25a1.85,1.85,0,0,0-.29-.53,1.55,1.55,0,0,0-.52-.41,2,2,0,0,0-.83-.16,1.93,1.93,0,0,0-1.13.31.89.89,0,0,0-.45.77.83.83,0,0,0,.3.66,2.52,2.52,0,0,0,1,.41l1.3.3a3.47,3.47,0,0,1,1.69.8,1.91,1.91,0,0,1,.55,1.41,2.16,2.16,0,0,1-.42,1.31,2.93,2.93,0,0,1-1.18.9,4.29,4.29,0,0,1-1.74.33,4,4,0,0,1-2.25-.59,2.47,2.47,0,0,1-1.06-1.68l1.54-.23a1.45,1.45,0,0,0,.59.91,2.07,2.07,0,0,0,1.17.3,2.15,2.15,0,0,0,1.25-.33,1,1,0,0,0,.47-.8.84.84,0,0,0-.29-.64,1.86,1.86,0,0,0-.87-.4l-1.39-.3a3.31,3.31,0,0,1-1.69-.83,2,2,0,0,1-.54-1.44,2,2,0,0,1,.4-1.27,2.62,2.62,0,0,1,1.12-.85,4,4,0,0,1,1.64-.31,3.38,3.38,0,0,1,2.08.57A2.71,2.71,0,0,1,172.11,78.17Zm-4.17-5.32,1.1,1.43,1.09-1.43h1.44v.08l-1.87,2.26h-1.33l-1.87-2.26v-.08Z"/><path d="M177.54,84.52a4.09,4.09,0,0,1-2.08-.52,3.53,3.53,0,0,1-1.34-1.47,5.45,5.45,0,0,1,0-4.43,3.71,3.71,0,0,1,1.32-1.5,3.64,3.64,0,0,1,2-.54,4.06,4.06,0,0,1,1.34.23,3.1,3.1,0,0,1,1.17.72,3.36,3.36,0,0,1,.82,1.27,5.29,5.29,0,0,1,.29,1.89v.57h-6.5V79.55h4.94a2.37,2.37,0,0,0-.25-1.12,1.91,1.91,0,0,0-.72-.77,2,2,0,0,0-1.08-.28,2.18,2.18,0,0,0-1.17.32,2.25,2.25,0,0,0-.76.86,2.44,2.44,0,0,0-.27,1.13v.94a3,3,0,0,0,.29,1.39,2,2,0,0,0,.81.88,2.4,2.4,0,0,0,1.22.3,2.45,2.45,0,0,0,.83-.13,1.9,1.9,0,0,0,.64-.39,1.82,1.82,0,0,0,.42-.65l1.5.27a2.69,2.69,0,0,1-.64,1.17,3.1,3.1,0,0,1-1.17.77A4.43,4.43,0,0,1,177.54,84.52Z"/><path d="M186.27,84.52a3.66,3.66,0,0,1-2-.55,3.46,3.46,0,0,1-1.31-1.49,4.89,4.89,0,0,1-.46-2.18,5,5,0,0,1,.47-2.21,3.6,3.6,0,0,1,1.32-1.49,3.68,3.68,0,0,1,2-.54,3.85,3.85,0,0,1,1.66.35,2.86,2.86,0,0,1,1.18,1,2.93,2.93,0,0,1,.54,1.44h-1.55a1.89,1.89,0,0,0-.59-1,1.71,1.71,0,0,0-1.21-.42,2,2,0,0,0-1.17.35,2.33,2.33,0,0,0-.77,1,3.75,3.75,0,0,0-.28,1.52,4,4,0,0,0,.27,1.54,2.28,2.28,0,0,0,.77,1,2,2,0,0,0,1.18.36,2,2,0,0,0,.82-.17,1.62,1.62,0,0,0,.62-.48,1.85,1.85,0,0,0,.36-.76h1.55a3,3,0,0,1-1.67,2.4A3.8,3.8,0,0,1,186.27,84.52Z"/><path d="M192.94,79.49v4.86h-1.59V73.44h1.57V77.5h.1a2.31,2.31,0,0,1,.88-1,2.75,2.75,0,0,1,1.54-.39,3.08,3.08,0,0,1,1.48.35,2.38,2.38,0,0,1,1,1,3.75,3.75,0,0,1,.34,1.71v5.2h-1.59v-5a2,2,0,0,0-.46-1.4,1.69,1.69,0,0,0-1.29-.5,2.09,2.09,0,0,0-1,.24,1.69,1.69,0,0,0-.7.7A2.28,2.28,0,0,0,192.94,79.49Z"/><path d="M210.48,78.17l-1.44.25a2.13,2.13,0,0,0-.29-.53,1.55,1.55,0,0,0-.52-.41,2,2,0,0,0-.83-.16,1.93,1.93,0,0,0-1.13.31.89.89,0,0,0-.45.77.83.83,0,0,0,.3.66,2.45,2.45,0,0,0,1,.41l1.3.3a3.51,3.51,0,0,1,1.69.8,2,2,0,0,1,.55,1.41,2.16,2.16,0,0,1-.42,1.31,2.93,2.93,0,0,1-1.18.9,4.34,4.34,0,0,1-1.75.33,4,4,0,0,1-2.24-.59A2.47,2.47,0,0,1,204,82.25l1.54-.23a1.45,1.45,0,0,0,.59.91,2,2,0,0,0,1.16.3,2.18,2.18,0,0,0,1.26-.33,1,1,0,0,0,.46-.8.83.83,0,0,0-.28-.64,1.86,1.86,0,0,0-.87-.4l-1.39-.3a3.31,3.31,0,0,1-1.69-.83,2,2,0,0,1-.54-1.44,2,2,0,0,1,.4-1.27,2.56,2.56,0,0,1,1.12-.85,4,4,0,0,1,1.63-.31,3.41,3.41,0,0,1,2.09.57A2.71,2.71,0,0,1,210.48,78.17Z"/><path d="M214.77,84.53a3.38,3.38,0,0,1-1.41-.29,2.26,2.26,0,0,1-1-.84A2.39,2.39,0,0,1,212,82a2.19,2.19,0,0,1,.27-1.14,2,2,0,0,1,.72-.71,3.6,3.6,0,0,1,1-.39,10.43,10.43,0,0,1,1.14-.21l1.19-.14a1.9,1.9,0,0,0,.67-.18.46.46,0,0,0,.21-.42v0a1.47,1.47,0,0,0-.39-1.09,1.65,1.65,0,0,0-1.17-.38,2.05,2.05,0,0,0-1.26.35,2,2,0,0,0-.64.79l-1.5-.34a3,3,0,0,1,.78-1.21,3.33,3.33,0,0,1,1.19-.67,4.72,4.72,0,0,1,1.41-.21,4.89,4.89,0,0,1,1,.12,3.1,3.1,0,0,1,1,.41,2.47,2.47,0,0,1,.79.87,3.08,3.08,0,0,1,.3,1.46v5.43h-1.55V83.23h-.06a2.33,2.33,0,0,1-.47.61,2.36,2.36,0,0,1-.79.49A2.9,2.9,0,0,1,214.77,84.53Zm.34-1.28a2.29,2.29,0,0,0,1.14-.26,1.79,1.79,0,0,0,.71-.68,1.76,1.76,0,0,0,.25-.91V80.34a.71.71,0,0,1-.33.16,3.49,3.49,0,0,1-.55.12q-.3.06-.6.09l-.49.07a4,4,0,0,0-.84.2,1.33,1.33,0,0,0-.61.4,1,1,0,0,0-.23.68A1,1,0,0,0,214,83,1.91,1.91,0,0,0,215.11,83.25Z"/><path d="M227.92,76.17l-3,8.18h-1.71l-3-8.18H222l2.07,6.29h.09l2.06-6.29Z"/><path d="M232.87,84.52a3.64,3.64,0,0,1-2-.55,3.48,3.48,0,0,1-1.32-1.49,5.41,5.41,0,0,1,0-4.39,3.75,3.75,0,0,1,1.32-1.49,3.68,3.68,0,0,1,2-.54,3.82,3.82,0,0,1,1.66.35,2.86,2.86,0,0,1,1.18,1,2.93,2.93,0,0,1,.54,1.44h-1.55a1.94,1.94,0,0,0-.58-1,1.74,1.74,0,0,0-1.22-.42,2,2,0,0,0-1.17.35,2.33,2.33,0,0,0-.77,1,3.75,3.75,0,0,0-.28,1.52,4,4,0,0,0,.27,1.54,2.35,2.35,0,0,0,.77,1,2.09,2.09,0,0,0,2,.19,1.55,1.55,0,0,0,.62-.48,1.85,1.85,0,0,0,.36-.76h1.55a3,3,0,0,1-1.67,2.4A3.76,3.76,0,0,1,232.87,84.52Z"/><path d="M243.12,81V76.17h1.6v8.18h-1.57V82.93h-.08a2.56,2.56,0,0,1-.9,1.09,2.65,2.65,0,0,1-1.55.44,2.76,2.76,0,0,1-1.39-.35,2.41,2.41,0,0,1-.95-1,3.76,3.76,0,0,1-.34-1.7v-5.2h1.59v5a1.86,1.86,0,0,0,.47,1.33,1.56,1.56,0,0,0,1.2.5,1.93,1.93,0,0,0,.89-.23,1.82,1.82,0,0,0,.74-.67A2,2,0,0,0,243.12,81Zm-1.78-5.7a2.06,2.06,0,0,1-1-.23,1.88,1.88,0,0,1-.69-.65,1.75,1.75,0,0,1-.25-.91,1.78,1.78,0,0,1,.94-1.58,2,2,0,0,1,1.92,0,1.77,1.77,0,0,1,.67.66,1.74,1.74,0,0,1,.25.92,1.66,1.66,0,0,1-.25.91,1.82,1.82,0,0,1-.67.65A2.06,2.06,0,0,1,241.34,75.26Zm0-.85a.91.91,0,0,0,.69-.29.92.92,0,0,0,.27-.65,1,1,0,0,0-.27-.67,1,1,0,0,0-1.38,0,1,1,0,0,0-.27.67.92.92,0,0,0,.27.65A.91.91,0,0,0,241.34,74.41Z"/><path d="M252.42,79.49v4.86h-1.59V76.17h1.53V77.5h.1a2.3,2.3,0,0,1,.89-1,2.67,2.67,0,0,1,1.52-.4,3,3,0,0,1,1.47.35,2.33,2.33,0,0,1,1,1,3.73,3.73,0,0,1,.35,1.7v5.2h-1.59v-5a2,2,0,0,0-.47-1.4,1.66,1.66,0,0,0-1.27-.5,2,2,0,0,0-1,.24,1.7,1.7,0,0,0-.68.7A2.28,2.28,0,0,0,252.42,79.49Z"/><path d="M262.17,84.53a3.38,3.38,0,0,1-1.41-.29,2.26,2.26,0,0,1-1-.84,2.46,2.46,0,0,1-.36-1.36,2.19,2.19,0,0,1,.26-1.14,2,2,0,0,1,.72-.71,3.6,3.6,0,0,1,1-.39,11.39,11.39,0,0,1,1.14-.21l1.2-.14a1.9,1.9,0,0,0,.66-.18.46.46,0,0,0,.21-.42v0a1.47,1.47,0,0,0-.39-1.09,1.63,1.63,0,0,0-1.17-.38,2.07,2.07,0,0,0-1.26.35,2,2,0,0,0-.64.79l-1.49-.34a2.76,2.76,0,0,1,.78-1.21,3.21,3.21,0,0,1,1.18-.67,4.72,4.72,0,0,1,1.41-.21,4.82,4.82,0,0,1,1,.12,3,3,0,0,1,1,.41,2.47,2.47,0,0,1,.79.87,3.07,3.07,0,0,1,.31,1.46v5.43h-1.56V83.23h-.06a2.33,2.33,0,0,1-.47.61,2.36,2.36,0,0,1-.79.49A2.9,2.9,0,0,1,262.17,84.53Zm.35-1.28a2.25,2.25,0,0,0,1.13-.26,1.89,1.89,0,0,0,.72-.68,1.85,1.85,0,0,0,.24-.91V80.34a.72.72,0,0,1-.32.16,3.76,3.76,0,0,1-.55.12l-.61.09-.49.07a4.13,4.13,0,0,0-.84.2,1.39,1.39,0,0,0-.61.4,1,1,0,0,0-.22.68,1,1,0,0,0,.43.89A1.92,1.92,0,0,0,262.52,83.25Z"/><path d="M272.15,84.35v-1.1l5.73-8.39H272.1V73.44h7.8v1.1l-5.74,8.39H280v1.42Z"/><path d="M285.41,84.52a4,4,0,0,1-2.08-.52A3.47,3.47,0,0,1,282,82.53a5.45,5.45,0,0,1,0-4.43,3.57,3.57,0,0,1,1.32-1.5,3.64,3.64,0,0,1,2-.54,4.06,4.06,0,0,1,1.34.23,3.26,3.26,0,0,1,1.17.72,3.47,3.47,0,0,1,.81,1.27,5.28,5.28,0,0,1,.3,1.89v.57h-6.5V79.55h4.94a2.37,2.37,0,0,0-.26-1.12,1.89,1.89,0,0,0-.71-.77,2,2,0,0,0-1.08-.28,2.14,2.14,0,0,0-1.17.32,2.28,2.28,0,0,0-.77.86,2.44,2.44,0,0,0-.27,1.13v.94a3.1,3.1,0,0,0,.29,1.39,2.06,2.06,0,0,0,.82.88,2.64,2.64,0,0,0,2,.17,1.85,1.85,0,0,0,.65-.39,1.68,1.68,0,0,0,.41-.65l1.51.27a2.7,2.7,0,0,1-.65,1.17,3.15,3.15,0,0,1-1.16.77A4.43,4.43,0,0,1,285.41,84.52Z"/><path d="M290.69,84.35V76.17h1.53V77.5h.1a2.21,2.21,0,0,1,.84-1.06,2.51,2.51,0,0,1,1.39-.38,2.41,2.41,0,0,1,1.38.38,2.3,2.3,0,0,1,.82,1.06h.09a2.25,2.25,0,0,1,.93-1,2.84,2.84,0,0,1,1.52-.39,2.46,2.46,0,0,1,1.82.7,2.84,2.84,0,0,1,.71,2.1v5.49h-1.6V79a1.48,1.48,0,0,0-.45-1.2,1.63,1.63,0,0,0-1.08-.37,1.57,1.57,0,0,0-1.21.47,1.76,1.76,0,0,0-.43,1.23v5.21h-1.59V78.91a1.46,1.46,0,0,0-.41-1.07,1.5,1.5,0,0,0-1.09-.4,1.62,1.62,0,0,0-.83.23,1.77,1.77,0,0,0-.61.66,2,2,0,0,0-.23,1v5Z"/><path d="M304.75,74.91a1,1,0,0,1-.71-.28.93.93,0,0,1,0-1.35,1,1,0,0,1,.71-.28,1,1,0,0,1,.71.28.91.91,0,0,1,0,1.35A1,1,0,0,1,304.75,74.91Zm-.8,9.44V76.17h1.59v8.18Z"/><path d="M311.66,76.17h1.59v8.7a2.94,2.94,0,0,1-.3,1.39,2,2,0,0,1-.88.87,3.2,3.2,0,0,1-1.43.28h-.31V86h.26a1,1,0,0,0,.81-.31,1.31,1.31,0,0,0,.26-.87Zm.78-1.26a1,1,0,0,1-.71-.28.93.93,0,0,1,0-1.35,1.05,1.05,0,0,1,1.43,0,.93.93,0,0,1,0,1.35A1,1,0,0,1,312.44,74.91Z"/><path d="M318.92,84.52a4,4,0,0,1-2.08-.52,3.56,3.56,0,0,1-1.35-1.47,5.45,5.45,0,0,1,0-4.43,3.71,3.71,0,0,1,1.32-1.5,3.66,3.66,0,0,1,2-.54,4.12,4.12,0,0,1,1.35.23,3.14,3.14,0,0,1,1.16.72,3.36,3.36,0,0,1,.82,1.27,5.28,5.28,0,0,1,.3,1.89v.57h-6.51V79.55h4.95a2.37,2.37,0,0,0-.26-1.12,1.91,1.91,0,0,0-.72-.77,2,2,0,0,0-1.07-.28,2.14,2.14,0,0,0-1.17.32,2.2,2.2,0,0,0-.77.86,2.44,2.44,0,0,0-.27,1.13v.94A3.1,3.1,0,0,0,316.9,82a2,2,0,0,0,.81.88,2.42,2.42,0,0,0,1.22.3,2.45,2.45,0,0,0,.83-.13,1.71,1.71,0,0,0,1.06-1l1.51.27a2.7,2.7,0,0,1-.65,1.17,3.1,3.1,0,0,1-1.17.77A4.38,4.38,0,0,1,318.92,84.52Z"/><path d="M138.18,102.51a3.16,3.16,0,0,1-1.77-.51,3.41,3.41,0,0,1-1.21-1.45,5.42,5.42,0,0,1-.44-2.28A5.33,5.33,0,0,1,135.2,96a3.45,3.45,0,0,1,1.23-1.45,3.2,3.2,0,0,1,1.76-.5,2.68,2.68,0,0,1,1.23.25,2.28,2.28,0,0,1,.72.59c.17.23.31.42.41.59h.09v-4h1.59v10.91h-1.55v-1.27h-.13a4.8,4.8,0,0,1-.42.59,2.24,2.24,0,0,1-.74.59A2.5,2.5,0,0,1,138.18,102.51Zm.35-1.36a1.89,1.89,0,0,0,1.17-.36,2.36,2.36,0,0,0,.72-1,4.34,4.34,0,0,0,.25-1.51,4,4,0,0,0-.25-1.49,2.14,2.14,0,0,0-.72-1,1.85,1.85,0,0,0-1.17-.36,1.89,1.89,0,0,0-1.2.38,2.26,2.26,0,0,0-.72,1,4.08,4.08,0,0,0-.24,1.45,4.2,4.2,0,0,0,.24,1.47,2.36,2.36,0,0,0,.73,1A1.88,1.88,0,0,0,138.53,101.15Z"/><path d="M146.09,97.49v4.86H144.5V94.17H146V95.5h.1a2.36,2.36,0,0,1,.89-1,2.68,2.68,0,0,1,1.53-.4,3,3,0,0,1,1.46.35,2.41,2.41,0,0,1,1,1,3.73,3.73,0,0,1,.34,1.7v5.2h-1.59v-5a2,2,0,0,0-.46-1.4,1.68,1.68,0,0,0-1.28-.5,2,2,0,0,0-1,.24,1.7,1.7,0,0,0-.68.7A2.39,2.39,0,0,0,146.09,97.49Z"/><path d="M157,102.52a4,4,0,0,1-2.08-.52,3.47,3.47,0,0,1-1.34-1.47,5.35,5.35,0,0,1,0-4.43,3.57,3.57,0,0,1,1.32-1.5,3.62,3.62,0,0,1,2-.54,4.06,4.06,0,0,1,1.34.23,3.14,3.14,0,0,1,1.16.72,3.36,3.36,0,0,1,.82,1.27,5.28,5.28,0,0,1,.3,1.89v.57H154V97.55h4.95a2.37,2.37,0,0,0-.26-1.12,1.91,1.91,0,0,0-.72-.77,2,2,0,0,0-1.07-.28,2.14,2.14,0,0,0-1.17.32,2.2,2.2,0,0,0-.77.86,2.44,2.44,0,0,0-.27,1.13v.94A3.1,3.1,0,0,0,155,100a2.1,2.1,0,0,0,.81.88,2.66,2.66,0,0,0,2.05.17,1.81,1.81,0,0,0,.64-.39,1.7,1.7,0,0,0,.42-.65l1.51.27a2.7,2.7,0,0,1-.65,1.17,3.1,3.1,0,0,1-1.17.77A4.38,4.38,0,0,1,157,102.52Z"/><path d="M168.4,96.17l-1.44.25a1.85,1.85,0,0,0-.29-.53,1.46,1.46,0,0,0-.52-.41,2,2,0,0,0-.83-.16,2,2,0,0,0-1.13.31.89.89,0,0,0-.45.77.81.81,0,0,0,.31.66,2.45,2.45,0,0,0,1,.41l1.3.3a3.47,3.47,0,0,1,1.68.8,1.91,1.91,0,0,1,.55,1.41,2.16,2.16,0,0,1-.42,1.31,2.86,2.86,0,0,1-1.18.9,4.29,4.29,0,0,1-1.74.33,4,4,0,0,1-2.25-.59,2.5,2.5,0,0,1-1.06-1.68l1.54-.23a1.49,1.49,0,0,0,.59.91,2.07,2.07,0,0,0,1.17.3,2.13,2.13,0,0,0,1.25-.33,1,1,0,0,0,.47-.8.84.84,0,0,0-.29-.64,1.86,1.86,0,0,0-.87-.4l-1.38-.3a3.23,3.23,0,0,1-1.69-.83,2,2,0,0,1-.55-1.44,2,2,0,0,1,.4-1.27,2.62,2.62,0,0,1,1.12-.85,4,4,0,0,1,1.64-.31,3.43,3.43,0,0,1,2.09.57A2.75,2.75,0,0,1,168.4,96.17Z"/><path d="M181.28,94.17l-3,8.18h-1.71l-3-8.18h1.71l2.07,6.29h.09l2.06-6.29Z"/><path d="M183.79,105.4a3.2,3.2,0,0,1-.65-.06,2.57,2.57,0,0,1-.44-.12l.38-1.3a1.89,1.89,0,0,0,1.1,0,1.47,1.47,0,0,0,.75-1l.2-.54-3-8.29h1.71l2.07,6.35H186l2.07-6.35h1.72l-3.38,9.26a3.78,3.78,0,0,1-.6,1.07,2.39,2.39,0,0,1-.86.66A2.82,2.82,0,0,1,183.79,105.4Z"/><path d="M192.88,97.49v4.86h-1.59V91.44h1.57V95.5h.1a2.31,2.31,0,0,1,.88-1,2.75,2.75,0,0,1,1.54-.39,3.08,3.08,0,0,1,1.48.35,2.38,2.38,0,0,1,1,1,3.75,3.75,0,0,1,.34,1.71v5.2h-1.59v-5a2,2,0,0,0-.46-1.4,1.69,1.69,0,0,0-1.29-.5,2.09,2.09,0,0,0-1,.24,1.69,1.69,0,0,0-.7.7A2.28,2.28,0,0,0,192.88,97.49Z"/><path d="M205.5,99V94.17h1.6v8.18h-1.57v-1.42h-.09a2.43,2.43,0,0,1-.9,1.09,2.62,2.62,0,0,1-1.54.44,2.73,2.73,0,0,1-1.39-.35,2.35,2.35,0,0,1-1-1,3.76,3.76,0,0,1-.35-1.7v-5.2h1.6v5a1.86,1.86,0,0,0,.46,1.33,1.58,1.58,0,0,0,1.21.5,2,2,0,0,0,.89-.23,1.89,1.89,0,0,0,.74-.67A2.13,2.13,0,0,0,205.5,99Z"/><path d="M209.36,102.35V91.44H211v4h.1a4.11,4.11,0,0,1,.4-.59,2.28,2.28,0,0,1,.72-.59,2.68,2.68,0,0,1,1.23-.25,3.24,3.24,0,0,1,1.77.5A3.51,3.51,0,0,1,216.39,96a5.33,5.33,0,0,1,.44,2.26,5.27,5.27,0,0,1-.44,2.28,3.41,3.41,0,0,1-1.21,1.45,3.16,3.16,0,0,1-1.77.51,2.53,2.53,0,0,1-1.21-.25,2.24,2.24,0,0,1-.74-.59,3.77,3.77,0,0,1-.41-.59h-.13v1.27Zm1.56-4.09a4.12,4.12,0,0,0,.25,1.51,2.3,2.3,0,0,0,.73,1,1.84,1.84,0,0,0,1.16.36,1.88,1.88,0,0,0,1.19-.38,2.36,2.36,0,0,0,.73-1,4.2,4.2,0,0,0,.24-1.47,4.08,4.08,0,0,0-.24-1.45,2.26,2.26,0,0,0-.72-1,2.08,2.08,0,0,0-2.37,0,2.14,2.14,0,0,0-.72,1A4,4,0,0,0,210.92,98.26Z"/><path d="M222.14,102.52a4.06,4.06,0,0,1-2.08-.52,3.53,3.53,0,0,1-1.34-1.47,5.45,5.45,0,0,1,0-4.43A3.71,3.71,0,0,1,220,94.6a3.64,3.64,0,0,1,2-.54,4.06,4.06,0,0,1,1.34.23,3.1,3.1,0,0,1,1.17.72,3.49,3.49,0,0,1,.82,1.27,5.52,5.52,0,0,1,.29,1.89v.57h-6.5V97.55h4.94a2.37,2.37,0,0,0-.25-1.12,1.91,1.91,0,0,0-.72-.77,2,2,0,0,0-1.08-.28,2.16,2.16,0,0,0-1.17.32,2.25,2.25,0,0,0-.76.86,2.44,2.44,0,0,0-.27,1.13v.94a3,3,0,0,0,.29,1.39,2,2,0,0,0,.81.88,2.4,2.4,0,0,0,1.22.3,2.45,2.45,0,0,0,.83-.13,1.9,1.9,0,0,0,.64-.39,1.82,1.82,0,0,0,.42-.65l1.5.27a2.69,2.69,0,0,1-.64,1.17,3.18,3.18,0,0,1-1.17.77A4.43,4.43,0,0,1,222.14,102.52Z"/><path d="M229,97.49v4.86h-1.59V94.17H229V95.5h.1a2.3,2.3,0,0,1,.89-1,2.67,2.67,0,0,1,1.52-.4,3,3,0,0,1,1.47.35,2.39,2.39,0,0,1,1,1,3.73,3.73,0,0,1,.35,1.7v5.2h-1.6v-5a2,2,0,0,0-.46-1.4,1.66,1.66,0,0,0-1.27-.5,2,2,0,0,0-1,.24,1.64,1.64,0,0,0-.68.7A2.28,2.28,0,0,0,229,97.49Z"/><path d="M236.39,102.35V94.17H238v8.18Zm.15-9.27,1.24-2.46h1.68l-1.65,2.46Z"/><path d="M240.12,102.35V94.17h1.53V95.5h.1a2.15,2.15,0,0,1,.84-1.06,2.49,2.49,0,0,1,1.39-.38,2.4,2.4,0,0,1,1.37.38,2.25,2.25,0,0,1,.83,1.06h.08a2.33,2.33,0,0,1,.94-1,2.84,2.84,0,0,1,1.52-.39,2.46,2.46,0,0,1,1.82.7,2.83,2.83,0,0,1,.7,2.1v5.49h-1.59V97a1.48,1.48,0,0,0-.45-1.2,1.63,1.63,0,0,0-1.08-.37,1.57,1.57,0,0,0-1.21.47,1.76,1.76,0,0,0-.43,1.23v5.21h-1.59V96.91a1.42,1.42,0,0,0-.42-1.07,1.46,1.46,0,0,0-1.08-.4,1.6,1.6,0,0,0-.83.23,1.69,1.69,0,0,0-.61.66,2,2,0,0,0-.24,1v5Z"/><path d="M260.79,102.52a3.76,3.76,0,0,1-2-.53,3.56,3.56,0,0,1-1.34-1.48A5,5,0,0,1,257,98.3a5,5,0,0,1,.47-2.23,3.5,3.5,0,0,1,1.34-1.48,4.06,4.06,0,0,1,4,0,3.48,3.48,0,0,1,1.33,1.48,4.92,4.92,0,0,1,.48,2.23,4.83,4.83,0,0,1-.48,2.21A3.54,3.54,0,0,1,262.8,102,3.77,3.77,0,0,1,260.79,102.52Zm0-1.34a1.88,1.88,0,0,0,1.24-.4,2.35,2.35,0,0,0,.72-1,4.1,4.1,0,0,0,.24-1.44,4.18,4.18,0,0,0-.24-1.44,2.44,2.44,0,0,0-.72-1.06,1.94,1.94,0,0,0-1.24-.4,1.92,1.92,0,0,0-1.24.4,2.3,2.3,0,0,0-.73,1.06,4.18,4.18,0,0,0-.24,1.44,4.1,4.1,0,0,0,.24,1.44,2.22,2.22,0,0,0,.73,1A1.87,1.87,0,0,0,260.8,101.18Z"/><path d="M268,97.49v4.86h-1.59V91.44H268V95.5h.1a2.44,2.44,0,0,1,.88-1,2.78,2.78,0,0,1,1.55-.39,3,3,0,0,1,1.47.35,2.33,2.33,0,0,1,1,1,3.74,3.74,0,0,1,.35,1.71v5.2h-1.59v-5a2,2,0,0,0-.47-1.4,1.65,1.65,0,0,0-1.28-.5,2.07,2.07,0,0,0-1,.24,1.69,1.69,0,0,0-.7.7A2.28,2.28,0,0,0,268,97.49Z"/><path d="M275.41,102.35V94.17H277v1.3H277a1.92,1.92,0,0,1,.79-1,2.17,2.17,0,0,1,1.28-.38h.36l.32,0v1.53l-.34-.06a2.7,2.7,0,0,0-.49,0,2.09,2.09,0,0,0-1,.24,1.79,1.79,0,0,0-.95,1.6v5Z"/><path d="M284.62,102.52a3.77,3.77,0,0,1-2-.53,3.61,3.61,0,0,1-1.33-1.48,4.83,4.83,0,0,1-.47-2.21,4.91,4.91,0,0,1,.47-2.23,3.55,3.55,0,0,1,1.33-1.48,4.08,4.08,0,0,1,4,0A3.55,3.55,0,0,1,288,96.07a4.91,4.91,0,0,1,.47,2.23,4.83,4.83,0,0,1-.47,2.21,3.61,3.61,0,0,1-1.33,1.48A3.77,3.77,0,0,1,284.62,102.52Zm0-1.34a1.86,1.86,0,0,0,1.23-.4,2.29,2.29,0,0,0,.73-1,4.1,4.1,0,0,0,.24-1.44,4.18,4.18,0,0,0-.24-1.44,2.38,2.38,0,0,0-.73-1.06,1.91,1.91,0,0,0-1.23-.4,2,2,0,0,0-1.25.4,2.38,2.38,0,0,0-.73,1.06,4.18,4.18,0,0,0-.23,1.44,4.11,4.11,0,0,0,.23,1.44,2.29,2.29,0,0,0,.73,1A1.91,1.91,0,0,0,284.63,101.18Z"/><path d="M290,102.35v-1.09l4.43-5.63v-.08h-4.29V94.17h6.28v1.16l-4.26,5.56V101h4.41v1.38Zm2.13-11.5,1.1,1.43,1.09-1.43h1.44v.08l-1.87,2.26H292.6l-1.87-2.26v-.08Z"/><path d="M302,102.52a4,4,0,0,1-2.08-.52,3.47,3.47,0,0,1-1.34-1.47,5.35,5.35,0,0,1,0-4.43,3.57,3.57,0,0,1,1.32-1.5,3.62,3.62,0,0,1,2-.54,4.1,4.1,0,0,1,1.34.23,3.14,3.14,0,0,1,1.16.72,3.36,3.36,0,0,1,.82,1.27,5.28,5.28,0,0,1,.3,1.89v.57H299V97.55H304a2.37,2.37,0,0,0-.26-1.12,1.91,1.91,0,0,0-.72-.77,2,2,0,0,0-1.07-.28,2.14,2.14,0,0,0-1.17.32,2.2,2.2,0,0,0-.77.86,2.44,2.44,0,0,0-.27,1.13v.94A3.1,3.1,0,0,0,300,100a2,2,0,0,0,.81.88,2.66,2.66,0,0,0,2.05.17,1.71,1.71,0,0,0,1.06-1l1.51.27a2.7,2.7,0,0,1-.65,1.17,3.1,3.1,0,0,1-1.17.77A4.38,4.38,0,0,1,302,102.52Z"/><path d="M308.88,97.49v4.86h-1.59V94.17h1.53V95.5h.1a2.36,2.36,0,0,1,.89-1,2.67,2.67,0,0,1,1.52-.4,3,3,0,0,1,1.47.35,2.33,2.33,0,0,1,1,1,3.73,3.73,0,0,1,.35,1.7v5.2h-1.59v-5a2,2,0,0,0-.47-1.4,1.66,1.66,0,0,0-1.27-.5,2,2,0,0,0-1,.24,1.7,1.7,0,0,0-.68.7A2.39,2.39,0,0,0,308.88,97.49Z"/><path d="M135.12,120.35V109.44h1.59v10.91Zm1.46-2.78v-1.94h.28l3.26-3.46H142l-3.71,3.94h-.25Zm3.7,2.78-2.93-3.89,1.1-1.11,3.79,5Z"/><path d="M145.84,120.53a3.37,3.37,0,0,1-1.4-.29,2.35,2.35,0,0,1-1-.84,2.46,2.46,0,0,1-.36-1.36,2.19,2.19,0,0,1,.27-1.14,1.82,1.82,0,0,1,.72-.71,3.48,3.48,0,0,1,1-.39,10.43,10.43,0,0,1,1.14-.21l1.19-.14a1.9,1.9,0,0,0,.67-.18.48.48,0,0,0,.2-.42v0a1.47,1.47,0,0,0-.39-1.09,1.62,1.62,0,0,0-1.16-.38,2.08,2.08,0,0,0-1.27.35,1.92,1.92,0,0,0-.63.79l-1.5-.34a3,3,0,0,1,.78-1.21,3.25,3.25,0,0,1,1.19-.67,4.62,4.62,0,0,1,1.41-.21,5,5,0,0,1,1,.12,3,3,0,0,1,1,.41,2.38,2.38,0,0,1,.79.87,3,3,0,0,1,.31,1.46v5.43h-1.55v-1.12h-.07a2.28,2.28,0,0,1-.46.61,2.47,2.47,0,0,1-.79.49A3,3,0,0,1,145.84,120.53Zm.35-1.28a2.22,2.22,0,0,0,1.13-.26,1.79,1.79,0,0,0,1-1.59v-1.06a.84.84,0,0,1-.33.16,3.49,3.49,0,0,1-.55.12l-.6.09-.49.07a4.23,4.23,0,0,0-.85.2,1.35,1.35,0,0,0-.6.4,1,1,0,0,0-.23.68,1,1,0,0,0,.44.89A1.91,1.91,0,0,0,146.19,119.25Z"/><path d="M151.83,120.35v-1.09l4.43-5.63v-.08H152v-1.38h6.27v1.16L154,118.89V119h4.41v1.38Zm2.13-11.5,1.1,1.43,1.09-1.43h1.45v.08l-1.88,2.26h-1.33l-1.87-2.26v-.08Z"/><path d="M163.34,120.51a3.16,3.16,0,0,1-1.77-.51,3.35,3.35,0,0,1-1.21-1.45,5.27,5.27,0,0,1-.44-2.28,5.33,5.33,0,0,1,.44-2.26,3.45,3.45,0,0,1,1.23-1.45,3.18,3.18,0,0,1,1.76-.5,2.68,2.68,0,0,1,1.23.25,2.28,2.28,0,0,1,.72.59,5.16,5.16,0,0,1,.4.59h.1v-4h1.59v10.91h-1.55v-1.27h-.14a3.77,3.77,0,0,1-.41.59,2.35,2.35,0,0,1-.74.59A2.5,2.5,0,0,1,163.34,120.51Zm.35-1.36a1.84,1.84,0,0,0,1.16-.36,2.3,2.3,0,0,0,.73-1,4.34,4.34,0,0,0,.25-1.51,4.19,4.19,0,0,0-.25-1.49,2.14,2.14,0,0,0-.72-1,2.08,2.08,0,0,0-2.37,0,2.26,2.26,0,0,0-.72,1,4.08,4.08,0,0,0-.24,1.45,4.2,4.2,0,0,0,.24,1.47,2.28,2.28,0,0,0,.73,1A1.88,1.88,0,0,0,163.69,119.15Z"/><path d="M170.67,123.4a3.2,3.2,0,0,1-.65-.06,2.57,2.57,0,0,1-.44-.12l.38-1.3a1.89,1.89,0,0,0,1.1,0,1.47,1.47,0,0,0,.75-1l.2-.54-3-8.29h1.7l2.07,6.35h.09l2.07-6.35h1.72l-3.38,9.26a3.78,3.78,0,0,1-.6,1.07,2.39,2.39,0,0,1-.86.66A2.79,2.79,0,0,1,170.67,123.4Zm1.5-12.32,1.25-2.46h1.68l-1.65,2.46Z"/><path d="M185.59,120.52a3.64,3.64,0,0,1-2-.55,3.48,3.48,0,0,1-1.32-1.49,5.41,5.41,0,0,1,0-4.39,3.54,3.54,0,0,1,3.33-2,3.82,3.82,0,0,1,1.66.35,2.86,2.86,0,0,1,1.18,1,2.93,2.93,0,0,1,.54,1.44H187.4a1.94,1.94,0,0,0-.58-1,1.74,1.74,0,0,0-1.22-.42,2,2,0,0,0-1.17.35,2.33,2.33,0,0,0-.77,1,3.75,3.75,0,0,0-.28,1.52,4,4,0,0,0,.27,1.54,2.35,2.35,0,0,0,.77,1,2.09,2.09,0,0,0,2,.19,1.55,1.55,0,0,0,.62-.48,1.85,1.85,0,0,0,.36-.76H189a3,3,0,0,1-1.67,2.4A3.76,3.76,0,0,1,185.59,120.52Zm-1.13-11.67,1.1,1.43,1.09-1.43h1.45v.08l-1.88,2.26h-1.33L183,108.93v-.08Z"/><path d="M194.48,112.17v1.28H190v-1.28Zm-3.27-2h1.59V118a1.37,1.37,0,0,0,.14.69.7.7,0,0,0,.36.32,1.51,1.51,0,0,0,.48.08,1.72,1.72,0,0,0,.34,0l.22,0,.29,1.32a3.29,3.29,0,0,1-.4.1,3.46,3.46,0,0,1-.64.07,2.84,2.84,0,0,1-1.17-.23,2,2,0,0,1-.88-.72,2.17,2.17,0,0,1-.33-1.23Z"/><path d="M203.24,112.17l-3,8.18h-1.71l-3-8.18h1.71l2.07,6.29h.09l2.07-6.29Z"/><path d="M204.73,120.35v-8.18h1.54v1.3h.09a2,2,0,0,1,.79-1,2.19,2.19,0,0,1,1.28-.38h.36l.32,0v1.53l-.34-.06a2.7,2.7,0,0,0-.49,0,2,2,0,0,0-1,.24,1.76,1.76,0,0,0-.7.65,1.81,1.81,0,0,0-.26.95v5Z"/><path d="M214.31,112.17v1.28h-4.46v-1.28Zm-3.27-2h1.6V118a1.27,1.27,0,0,0,.14.69.72.72,0,0,0,.35.32,1.53,1.53,0,0,0,.49.08,1.55,1.55,0,0,0,.33,0l.23,0,.28,1.32a2.67,2.67,0,0,1-.39.1,3.46,3.46,0,0,1-.64.07,2.84,2.84,0,0,1-1.17-.23,1.93,1.93,0,0,1-.88-.72,2.17,2.17,0,0,1-.34-1.23Z"/><path d="M217.08,123.4a3.27,3.27,0,0,1-.65-.06,2.57,2.57,0,0,1-.44-.12l.39-1.3a1.89,1.89,0,0,0,1.1,0,1.49,1.49,0,0,0,.74-1l.2-.54-3-8.29h1.7l2.08,6.35h.08l2.07-6.35h1.72l-3.38,9.26a3.78,3.78,0,0,1-.6,1.07,2.39,2.39,0,0,1-.86.66A2.79,2.79,0,0,1,217.08,123.4Zm1.51-12.32,1.24-2.46h1.68l-1.65,2.46Z"/><path d="M231.62,120.51a3.16,3.16,0,0,1-1.77-.51,3.35,3.35,0,0,1-1.21-1.45,5.27,5.27,0,0,1-.44-2.28,5.18,5.18,0,0,1,.44-2.26,3.43,3.43,0,0,1,1.22-1.45,3.24,3.24,0,0,1,1.77-.5,2.67,2.67,0,0,1,1.22.25,2.22,2.22,0,0,1,.73.59,6.92,6.92,0,0,1,.4.59h.1v-4h1.59v10.91h-1.56v-1.27H234a4.6,4.6,0,0,1-.41.59,2.35,2.35,0,0,1-.74.59A2.53,2.53,0,0,1,231.62,120.51Zm.35-1.36a1.86,1.86,0,0,0,1.16-.36,2.3,2.3,0,0,0,.73-1,4.35,4.35,0,0,0,.24-1.51,4.19,4.19,0,0,0-.24-1.49,2.14,2.14,0,0,0-.72-1,2.08,2.08,0,0,0-2.37,0,2.26,2.26,0,0,0-.72,1,4.08,4.08,0,0,0-.25,1.45,4.19,4.19,0,0,0,.25,1.47,2.28,2.28,0,0,0,.73,1A1.88,1.88,0,0,0,232,119.15Z"/><path d="M237.94,120.35v-8.18h1.54v1.3h.08a2,2,0,0,1,.79-1,2.22,2.22,0,0,1,1.29-.38H242l.32,0v1.53l-.34-.06a2.77,2.77,0,0,0-.49,0,2.09,2.09,0,0,0-1,.24,1.79,1.79,0,0,0-.95,1.6v5Z"/><path d="M248.89,117v-4.79h1.59v8.18h-1.56v-1.42h-.09a2.56,2.56,0,0,1-.9,1.09,2.62,2.62,0,0,1-1.54.44,2.8,2.8,0,0,1-1.4-.35,2.39,2.39,0,0,1-.94-1,3.76,3.76,0,0,1-.35-1.7v-5.2h1.6v5a1.86,1.86,0,0,0,.46,1.33,1.58,1.58,0,0,0,1.2.5,1.93,1.93,0,0,0,.89-.23,1.76,1.76,0,0,0,.74-.67A2,2,0,0,0,248.89,117Z"/><path d="M254.21,115.49v4.86h-1.59V109.44h1.57v4.06h.1a2.38,2.38,0,0,1,.88-1,2.78,2.78,0,0,1,1.55-.39,3,3,0,0,1,1.47.35,2.33,2.33,0,0,1,1,1,3.74,3.74,0,0,1,.35,1.71v5.2h-1.6v-5a2,2,0,0,0-.46-1.4,1.69,1.69,0,0,0-1.29-.5,2.12,2.12,0,0,0-1,.24,1.75,1.75,0,0,0-.7.7A2.39,2.39,0,0,0,254.21,115.49Z"/><path d="M595.2,167.75h1.65v7.17a3.83,3.83,0,0,1-.54,2,3.67,3.67,0,0,1-1.51,1.38,5.37,5.37,0,0,1-4.57,0,3.67,3.67,0,0,1-1.51-1.38,3.83,3.83,0,0,1-.54-2v-7.17h1.65v7a2.67,2.67,0,0,0,.32,1.31,2.33,2.33,0,0,0,.93.91,3,3,0,0,0,1.43.32A3.12,3.12,0,0,0,594,177a2.24,2.24,0,0,0,.92-.91,2.58,2.58,0,0,0,.33-1.31Z"/><path d="M606.54,178.82a3.77,3.77,0,0,1-2-.53,3.51,3.51,0,0,1-1.33-1.47,5.37,5.37,0,0,1,0-4.44,3.57,3.57,0,0,1,1.33-1.49,4.13,4.13,0,0,1,4,0,3.59,3.59,0,0,1,1.34,1.49,5.48,5.48,0,0,1,0,4.44,3.53,3.53,0,0,1-1.34,1.47A3.76,3.76,0,0,1,606.54,178.82Zm0-1.34a1.94,1.94,0,0,0,1.24-.39,2.28,2.28,0,0,0,.72-1.05,4.18,4.18,0,0,0,.24-1.44,4.1,4.1,0,0,0-.24-1.44,2.31,2.31,0,0,0-.72-1.06,2.12,2.12,0,0,0-2.48,0,2.32,2.32,0,0,0-.73,1.06,4.1,4.1,0,0,0-.24,1.44,4.18,4.18,0,0,0,.24,1.44,2.29,2.29,0,0,0,.73,1.05A1.94,1.94,0,0,0,606.54,177.48Z"/><path d="M612.25,178.66V167.75h1.59v4.05h.1a4.41,4.41,0,0,1,.4-.59,2.16,2.16,0,0,1,.72-.59,2.56,2.56,0,0,1,1.23-.25,3.15,3.15,0,0,1,1.77.5,3.35,3.35,0,0,1,1.22,1.44,6.08,6.08,0,0,1,0,4.54,3.44,3.44,0,0,1-1.21,1.46,3.14,3.14,0,0,1-1.77.51,2.52,2.52,0,0,1-1.21-.26,2.22,2.22,0,0,1-.74-.58,4,4,0,0,1-.41-.6h-.13v1.28Zm1.56-4.1a4.4,4.4,0,0,0,.25,1.52,2.26,2.26,0,0,0,.73,1,1.79,1.79,0,0,0,1.16.37,1.88,1.88,0,0,0,1.19-.38,2.42,2.42,0,0,0,.73-1,4.29,4.29,0,0,0,.25-1.48,3.9,3.9,0,0,0-.25-1.45,2.26,2.26,0,0,0-.72-1,2,2,0,0,0-1.2-.37,1.89,1.89,0,0,0-1.17.36,2.11,2.11,0,0,0-.72,1A4,4,0,0,0,613.81,174.56Z"/><path d="M625,178.82a3.77,3.77,0,0,1-2-.53,3.51,3.51,0,0,1-1.33-1.47,5.37,5.37,0,0,1,0-4.44,3.57,3.57,0,0,1,1.33-1.49,4.13,4.13,0,0,1,4,0,3.59,3.59,0,0,1,1.34,1.49,5.48,5.48,0,0,1,0,4.44,3.53,3.53,0,0,1-1.34,1.47A3.76,3.76,0,0,1,625,178.82Zm0-1.34a1.94,1.94,0,0,0,1.24-.39,2.28,2.28,0,0,0,.72-1.05,4.18,4.18,0,0,0,.24-1.44,4.1,4.1,0,0,0-.24-1.44,2.31,2.31,0,0,0-.72-1.06,2.12,2.12,0,0,0-2.48,0,2.32,2.32,0,0,0-.73,1.06,4.1,4.1,0,0,0-.24,1.44A4.18,4.18,0,0,0,623,176a2.29,2.29,0,0,0,.73,1.05A1.94,1.94,0,0,0,625,177.48Z"/><path d="M630.54,170.47h1.6v8.71a3,3,0,0,1-.3,1.39,1.93,1.93,0,0,1-.88.86,3,3,0,0,1-1.43.28h-.31v-1.37h.25a1,1,0,0,0,.82-.3,1.31,1.31,0,0,0,.25-.87Zm.79-1.26a1,1,0,0,1-.71-.28.87.87,0,0,1-.29-.67.88.88,0,0,1,.29-.67,1,1,0,0,1,.71-.28,1,1,0,0,1,.71.28.89.89,0,0,1,.3.67.87.87,0,0,1-.3.67A1,1,0,0,1,631.33,169.21Z"/><path d="M634.11,178.66v-1.1l4.43-5.63v-.07h-4.29v-1.39h6.28v1.17l-4.27,5.56v.07h4.41v1.39Zm2.13-11.5,1.1,1.42,1.09-1.42h1.44v.07L638,169.49h-1.33l-1.87-2.26v-.07Z"/><path d="M643.35,169.21a1,1,0,0,1-.71-.28.9.9,0,0,1-.29-.67.92.92,0,0,1,.29-.67,1.05,1.05,0,0,1,1.43,0,.92.92,0,0,1,.29.67.9.9,0,0,1-.29.67A1,1,0,0,1,643.35,169.21Zm-.8,9.45v-8.19h1.59v8.19Z"/><path d="M653.28,170.47l-3,8.19h-1.71l-3-8.19h1.71l2.07,6.3h.09l2.06-6.3Z"/><path d="M658.31,178.82a3.94,3.94,0,0,1-2.08-.52,3.47,3.47,0,0,1-1.35-1.46,5,5,0,0,1-.47-2.22,5,5,0,0,1,.47-2.22,3.57,3.57,0,0,1,1.33-1.49,3.62,3.62,0,0,1,2-.54,3.86,3.86,0,0,1,1.34.23,3.14,3.14,0,0,1,1.16.72,3.29,3.29,0,0,1,.82,1.27,5.28,5.28,0,0,1,.3,1.89V175h-6.51v-1.19h5a2.4,2.4,0,0,0-.26-1.12,1.88,1.88,0,0,0-.72-.76,2,2,0,0,0-1.07-.29A2.06,2.06,0,0,0,657,172a2.17,2.17,0,0,0-.77.85A2.46,2.46,0,0,0,656,174v.93a3.15,3.15,0,0,0,.29,1.4,2,2,0,0,0,.81.87,2.55,2.55,0,0,0,2,.17,1.56,1.56,0,0,0,.64-.39,1.78,1.78,0,0,0,.42-.64l1.51.27a2.73,2.73,0,0,1-.65,1.16,3.12,3.12,0,0,1-1.17.78A4.38,4.38,0,0,1,658.31,178.82Z"/><path d="M665.18,167.75v10.91h-1.59V167.75Z"/><path d="M668.92,173.8v4.86h-1.59v-8.19h1.52v1.34H669a2.25,2.25,0,0,1,.88-1.05,2.78,2.78,0,0,1,1.53-.39,2.87,2.87,0,0,1,1.46.35,2.33,2.33,0,0,1,1,1,3.79,3.79,0,0,1,.34,1.7v5.21h-1.59v-5a2,2,0,0,0-.46-1.39,1.62,1.62,0,0,0-1.27-.5,2,2,0,0,0-1,.24,1.68,1.68,0,0,0-.67.7A2.22,2.22,0,0,0,668.92,173.8Z"/><path d="M676.28,178.66v-8.19h1.6v8.19Zm.15-9.28,1.25-2.45h1.68l-1.65,2.45Z"/><path d="M680,178.66V167.75h1.59v10.91Zm1.46-2.78v-1.94h.28l3.26-3.47h1.91l-3.72,3.95H683Zm3.71,2.78-2.93-3.89,1.09-1.12,3.79,5Z"/><path d="M693.55,175.26v-4.79h1.6v8.19h-1.57v-1.42h-.08a2.52,2.52,0,0,1-.91,1.09,2.59,2.59,0,0,1-1.54.43,2.64,2.64,0,0,1-1.39-.35,2.32,2.32,0,0,1-.95-1,3.79,3.79,0,0,1-.34-1.7v-5.21H690v5a1.87,1.87,0,0,0,.46,1.33,1.58,1.58,0,0,0,1.21.49,2,2,0,0,0,.89-.22,1.92,1.92,0,0,0,.74-.68A2,2,0,0,0,693.55,175.26Zm-1.78-5.69a1.9,1.9,0,0,1-1-.24,1.85,1.85,0,0,1-.69-.64,1.66,1.66,0,0,1-.25-.91,1.72,1.72,0,0,1,.25-.92,1.93,1.93,0,0,1,.69-.67,1.95,1.95,0,0,1,1.91,0,1.9,1.9,0,0,1,.68.67,1.72,1.72,0,0,1,.25.92,1.66,1.66,0,0,1-.25.91,1.82,1.82,0,0,1-.68.64A1.89,1.89,0,0,1,691.77,169.57Zm0-.85a1,1,0,0,0,.69-.29.92.92,0,0,0,.27-.65,1,1,0,0,0-.27-.67.94.94,0,0,0-1.38,0,1,1,0,0,0-.27.67.92.92,0,0,0,.27.65A.91.91,0,0,0,691.77,168.72Z"/><path d="M707.39,172.47l-1.45.26a1.69,1.69,0,0,0-.28-.53,1.48,1.48,0,0,0-.53-.41,1.82,1.82,0,0,0-.82-.16,2,2,0,0,0-1.13.3.9.9,0,0,0-.45.78.83.83,0,0,0,.3.66,2.61,2.61,0,0,0,1,.41l1.3.29a3.57,3.57,0,0,1,1.68.81,1.88,1.88,0,0,1,.56,1.41,2.1,2.1,0,0,1-.43,1.31,2.83,2.83,0,0,1-1.17.9,4.55,4.55,0,0,1-1.75.32,4,4,0,0,1-2.24-.59,2.49,2.49,0,0,1-1.07-1.67l1.54-.24a1.51,1.51,0,0,0,.59.91,2.07,2.07,0,0,0,1.17.31,2.13,2.13,0,0,0,1.25-.33,1,1,0,0,0,.47-.8.85.85,0,0,0-.28-.65,2,2,0,0,0-.87-.39l-1.39-.3a3.35,3.35,0,0,1-1.69-.84,2,2,0,0,1-.55-1.44,2.1,2.1,0,0,1,.41-1.27,2.72,2.72,0,0,1,1.12-.85,4.16,4.16,0,0,1,1.63-.3,3.41,3.41,0,0,1,2.09.57A2.7,2.7,0,0,1,707.39,172.47Z"/><path d="M712.82,178.82a3.94,3.94,0,0,1-2.08-.52,3.39,3.39,0,0,1-1.34-1.46,4.84,4.84,0,0,1-.47-2.22,4.9,4.9,0,0,1,.47-2.22,3.49,3.49,0,0,1,1.32-1.49,3.64,3.64,0,0,1,2-.54,3.82,3.82,0,0,1,1.34.23,3.26,3.26,0,0,1,1.17.72,3.39,3.39,0,0,1,.81,1.27,5.28,5.28,0,0,1,.3,1.89V175h-6.5v-1.19h4.94a2.4,2.4,0,0,0-.26-1.12,1.86,1.86,0,0,0-.71-.76,2,2,0,0,0-1.08-.29,2.06,2.06,0,0,0-1.17.33,2.25,2.25,0,0,0-.77.85,2.46,2.46,0,0,0-.27,1.14v.93a3.15,3.15,0,0,0,.29,1.4,2.09,2.09,0,0,0,.82.87,2.52,2.52,0,0,0,2,.17,1.6,1.6,0,0,0,.65-.39,1.64,1.64,0,0,0,.41-.64l1.51.27a2.73,2.73,0,0,1-.65,1.16,3.17,3.17,0,0,1-1.16.78A4.44,4.44,0,0,1,712.82,178.82Z"/><path d="M588.05,199.72V188.47h1.56v1.33h.13a4.41,4.41,0,0,1,.4-.59,2.26,2.26,0,0,1,.72-.59,2.56,2.56,0,0,1,1.23-.25,3.15,3.15,0,0,1,1.77.5,3.35,3.35,0,0,1,1.22,1.44,6,6,0,0,1,0,4.54,3.44,3.44,0,0,1-1.21,1.46,3.13,3.13,0,0,1-1.76.51,2.54,2.54,0,0,1-1.22-.26,2.22,2.22,0,0,1-.74-.58,4,4,0,0,1-.41-.6h-.1v4.34Zm1.56-7.16a4.4,4.4,0,0,0,.25,1.52,2.26,2.26,0,0,0,.73,1,1.79,1.79,0,0,0,1.16.37,1.88,1.88,0,0,0,1.19-.38,2.42,2.42,0,0,0,.73-1,4.29,4.29,0,0,0,.25-1.48,3.9,3.9,0,0,0-.25-1.45,2.26,2.26,0,0,0-.72-1,2,2,0,0,0-1.2-.37,1.89,1.89,0,0,0-1.17.36,2.11,2.11,0,0,0-.72,1A4,4,0,0,0,589.61,192.56Z"/><path d="M600.76,196.82a3.77,3.77,0,0,1-2-.53,3.51,3.51,0,0,1-1.33-1.47,5.37,5.37,0,0,1,0-4.44,3.57,3.57,0,0,1,1.33-1.49,4.13,4.13,0,0,1,4,0,3.59,3.59,0,0,1,1.34,1.49,5.48,5.48,0,0,1,0,4.44,3.53,3.53,0,0,1-1.34,1.47A3.76,3.76,0,0,1,600.76,196.82Zm0-1.34a1.94,1.94,0,0,0,1.24-.39,2.28,2.28,0,0,0,.72-1.05,4.18,4.18,0,0,0,.24-1.44,4.1,4.1,0,0,0-.24-1.44,2.31,2.31,0,0,0-.72-1.06,2.12,2.12,0,0,0-2.48,0,2.32,2.32,0,0,0-.73,1.06,4.1,4.1,0,0,0-.24,1.44,4.18,4.18,0,0,0,.24,1.44,2.29,2.29,0,0,0,.73,1.05A1.94,1.94,0,0,0,600.76,195.48Z"/><path d="M609.41,196.82a3.16,3.16,0,0,1-1.77-.51,3.37,3.37,0,0,1-1.21-1.46,5.22,5.22,0,0,1-.44-2.27,5.41,5.41,0,0,1,.44-2.27,3.41,3.41,0,0,1,1.22-1.44,3.15,3.15,0,0,1,1.77-.5,2.56,2.56,0,0,1,1.23.25,2.16,2.16,0,0,1,.72.59,4.41,4.41,0,0,1,.4.59h.1v-4.05h1.59v10.91h-1.55v-1.28h-.14a3.39,3.39,0,0,1-.41.6,2.33,2.33,0,0,1-.74.58A2.52,2.52,0,0,1,609.41,196.82Zm.35-1.36a1.81,1.81,0,0,0,1.16-.37,2.26,2.26,0,0,0,.73-1,4.41,4.41,0,0,0,.24-1.52,4.27,4.27,0,0,0-.24-1.49,2.11,2.11,0,0,0-.72-1,1.89,1.89,0,0,0-1.17-.36,2,2,0,0,0-1.2.37,2.26,2.26,0,0,0-.72,1,4.12,4.12,0,0,0-.24,1.45,4.29,4.29,0,0,0,.24,1.48,2.34,2.34,0,0,0,.73,1A1.88,1.88,0,0,0,609.76,195.46Z"/><path d="M615.73,196.66v-8.19h1.59v8.19Zm.15-9.28,1.25-2.45h1.67l-1.65,2.45Z"/><path d="M621.06,185.75v10.91h-1.6V185.75Z"/><path d="M630.24,196.82a3.14,3.14,0,0,1-1.77-.51,3.46,3.46,0,0,1-1.22-1.46,5.38,5.38,0,0,1-.43-2.27,5.25,5.25,0,0,1,.44-2.27,3.35,3.35,0,0,1,1.22-1.44,3.15,3.15,0,0,1,1.77-.5,2.54,2.54,0,0,1,1.22.25,2.2,2.2,0,0,1,.73.59,5.63,5.63,0,0,1,.4.59h.1v-4.05h1.59v10.91h-1.56v-1.28h-.13a4,4,0,0,1-.41.6,2.33,2.33,0,0,1-.74.58A2.52,2.52,0,0,1,630.24,196.82Zm.35-1.36a1.81,1.81,0,0,0,1.16-.37,2.17,2.17,0,0,0,.72-1,4.18,4.18,0,0,0,.25-1.52,4.27,4.27,0,0,0-.24-1.49,2.26,2.26,0,0,0-.72-1,1.89,1.89,0,0,0-1.17-.36,2,2,0,0,0-1.2.37,2.26,2.26,0,0,0-.72,1,3.9,3.9,0,0,0-.25,1.45,4.29,4.29,0,0,0,.25,1.48,2.26,2.26,0,0,0,.73,1A1.86,1.86,0,0,0,630.59,195.46Z"/><path d="M636.56,196.66v-8.19h1.54v1.3h.08a2.05,2.05,0,0,1,.79-1,2.3,2.3,0,0,1,1.29-.38h.35l.33,0v1.52l-.34-.06-.49,0a2.06,2.06,0,0,0-1,.23,1.82,1.82,0,0,0-.69.66,1.78,1.78,0,0,0-.26.95v5Z"/><path d="M647.5,193.26v-4.79h1.6v8.19h-1.56v-1.42h-.09a2.56,2.56,0,0,1-.9,1.09,2.64,2.64,0,0,1-1.54.43,2.7,2.7,0,0,1-1.4-.35,2.3,2.3,0,0,1-.94-1,3.79,3.79,0,0,1-.35-1.7v-5.21h1.59v5a1.88,1.88,0,0,0,.47,1.33,1.57,1.57,0,0,0,1.2.49,1.92,1.92,0,0,0,.89-.22,1.79,1.79,0,0,0,.74-.68A2,2,0,0,0,647.5,193.26Z"/><path d="M652.83,191.8v4.86h-1.59V185.75h1.57v4.06h.1a2.38,2.38,0,0,1,.88-1.05,2.76,2.76,0,0,1,1.55-.39,3,3,0,0,1,1.47.34,2.38,2.38,0,0,1,1,1,3.8,3.8,0,0,1,.35,1.71v5.21h-1.6v-5a2,2,0,0,0-.46-1.4,1.68,1.68,0,0,0-1.29-.49,2.12,2.12,0,0,0-1,.24,1.75,1.75,0,0,0-.7.7A2.33,2.33,0,0,0,652.83,191.8Z"/><path d="M665.45,193.26v-4.79h1.6v8.19h-1.57v-1.42h-.08a2.52,2.52,0,0,1-.91,1.09,2.59,2.59,0,0,1-1.54.43,2.66,2.66,0,0,1-1.39-.35,2.38,2.38,0,0,1-.95-1,3.79,3.79,0,0,1-.34-1.7v-5.21h1.59v5a1.87,1.87,0,0,0,.46,1.33,1.58,1.58,0,0,0,1.21.49,2,2,0,0,0,.89-.22,1.85,1.85,0,0,0,.74-.68A2,2,0,0,0,665.45,193.26Zm-1.78-5.69a1.93,1.93,0,0,1-1-.24,1.85,1.85,0,0,1-.69-.64,1.66,1.66,0,0,1-.25-.91,1.72,1.72,0,0,1,.25-.92,1.93,1.93,0,0,1,.69-.67,1.83,1.83,0,0,1,1-.25,1.8,1.8,0,0,1,1,.25,1.9,1.9,0,0,1,.68.67,1.72,1.72,0,0,1,.25.92,1.66,1.66,0,0,1-.25.91,1.82,1.82,0,0,1-.68.64A1.89,1.89,0,0,1,663.67,187.57Zm0-.85a1,1,0,0,0,.69-.29.92.92,0,0,0,.27-.65,1,1,0,0,0-.27-.67.94.94,0,0,0-1.38,0,1,1,0,0,0-.27.67.92.92,0,0,0,.27.65A.91.91,0,0,0,663.67,186.72Z"/><path d="M671.26,195.16l-.08.58a11.78,11.78,0,0,1-.27,1.34q-.2.69-.39,1.29c-.14.4-.24.71-.33.95h-1.13c.05-.22.11-.52.19-.89s.17-.8.24-1.26.14-.93.18-1.41l.05-.6Z"/><path d="M677.47,188.47h1.59v8.71a3.1,3.1,0,0,1-.29,1.39,1.93,1.93,0,0,1-.88.86,3,3,0,0,1-1.43.28h-.31v-1.37h.25a1,1,0,0,0,.82-.3,1.31,1.31,0,0,0,.25-.87Zm.79-1.26a1,1,0,0,1-.71-.28.87.87,0,0,1-.3-.67.89.89,0,0,1,.3-.67,1,1,0,0,1,1.42,0,.89.89,0,0,1,.3.67.87.87,0,0,1-.3.67A1,1,0,0,1,678.26,187.21Z"/><path d="M682,187.21a1,1,0,0,1-.71-.28.87.87,0,0,1-.3-.67.89.89,0,0,1,.3-.67,1,1,0,0,1,1.42,0,.89.89,0,0,1,.3.67.87.87,0,0,1-.3.67A1,1,0,0,1,682,187.21Zm-.8,9.45v-8.19h1.59v8.19Z"/><path d="M684.94,196.66v-8.19h1.53v1.34h.1a2.07,2.07,0,0,1,.84-1.06,2.7,2.7,0,0,1,2.76,0,2.25,2.25,0,0,1,.83,1.06h.08a2.36,2.36,0,0,1,.93-1.05,2.9,2.9,0,0,1,1.53-.39,2.5,2.5,0,0,1,1.82.69,2.86,2.86,0,0,1,.7,2.11v5.49h-1.59v-5.34a1.49,1.49,0,0,0-.45-1.21,1.68,1.68,0,0,0-1.08-.37,1.53,1.53,0,0,0-1.21.48,1.73,1.73,0,0,0-.43,1.22v5.22h-1.59v-5.44a1.41,1.41,0,0,0-.42-1.07,1.46,1.46,0,0,0-1.08-.41,1.52,1.52,0,0,0-.83.24,1.69,1.69,0,0,0-.61.66,1.91,1.91,0,0,0-.24,1v5Z"/><path d="M698,196.66v-1.1l4.44-5.63v-.07h-4.29v-1.39h6.27v1.17l-4.26,5.56v.07h4.41v1.39Zm2.13-11.5,1.1,1.42,1.09-1.42h1.45v.07l-1.88,2.26h-1.32l-1.87-2.26v-.07Z"/><path d="M589.64,209.8v4.86h-1.59V203.75h1.57v4.06h.1a2.44,2.44,0,0,1,.88-1.05,2.78,2.78,0,0,1,1.55-.39,3,3,0,0,1,1.47.34,2.38,2.38,0,0,1,1,1,3.8,3.8,0,0,1,.35,1.71v5.21h-1.59v-5a2,2,0,0,0-.47-1.4,1.64,1.64,0,0,0-1.28-.49,2.07,2.07,0,0,0-1,.24,1.69,1.69,0,0,0-.7.7A2.22,2.22,0,0,0,589.64,209.8Z"/><path d="M597.08,214.66v-8.19h1.54v1.3h.09a2,2,0,0,1,.79-1,2.24,2.24,0,0,1,1.28-.38h.36l.32,0v1.52l-.34-.06a4,4,0,0,0-.49,0,2.09,2.09,0,0,0-1,.23,1.82,1.82,0,0,0-.69.66,1.78,1.78,0,0,0-.26.95v5Z"/><path d="M606.29,214.82a3.77,3.77,0,0,1-2-.53,3.58,3.58,0,0,1-1.33-1.47,5.48,5.48,0,0,1,0-4.44,3.63,3.63,0,0,1,1.33-1.49,4.14,4.14,0,0,1,4,0,3.63,3.63,0,0,1,1.33,1.49,5.48,5.48,0,0,1,0,4.44,3.58,3.58,0,0,1-1.33,1.47A3.77,3.77,0,0,1,606.29,214.82Zm0-1.34a1.91,1.91,0,0,0,1.23-.39,2.29,2.29,0,0,0,.73-1.05,4.18,4.18,0,0,0,.24-1.44,4.1,4.1,0,0,0-.24-1.44,2.32,2.32,0,0,0-.73-1.06,1.86,1.86,0,0,0-1.23-.4,1.91,1.91,0,0,0-1.25.4,2.32,2.32,0,0,0-.73,1.06,4.11,4.11,0,0,0-.23,1.44,4.18,4.18,0,0,0,.23,1.44,2.29,2.29,0,0,0,.73,1.05A2,2,0,0,0,606.3,213.48Z"/><path d="M611.71,214.66v-1.1l4.43-5.63v-.07h-4.29v-1.39h6.28v1.17l-4.26,5.56v.07h4.41v1.39Z"/><path d="M620.15,214.66v-8.19h1.59v8.19Zm.15-9.28,1.25-2.45h1.67l-1.65,2.45Z"/><path d="M634.86,206.47l-3,8.19h-1.7l-3-8.19h1.71l2.08,6.3h.08l2.07-6.3Z"/><path d="M637.36,217.7a4.29,4.29,0,0,1-.65,0,2.41,2.41,0,0,1-.43-.12l.38-1.31a1.89,1.89,0,0,0,1.1,0,1.51,1.51,0,0,0,.75-.94l.19-.55-3-8.29h1.71l2.07,6.35h.08l2.07-6.35,1.73,0L640,215.75a3.54,3.54,0,0,1-.59,1.07,2.43,2.43,0,0,1-.87.66A2.79,2.79,0,0,1,637.36,217.7Z"/><path d="M644.86,214.66v-8.19h1.53v1.34h.1a2.07,2.07,0,0,1,.84-1.06,2.7,2.7,0,0,1,2.76,0,2.25,2.25,0,0,1,.83,1.06H651a2.33,2.33,0,0,1,.94-1.05,2.84,2.84,0,0,1,1.52-.39,2.5,2.5,0,0,1,1.82.69,2.86,2.86,0,0,1,.7,2.11v5.49h-1.59v-5.34a1.49,1.49,0,0,0-.45-1.21,1.68,1.68,0,0,0-1.08-.37,1.55,1.55,0,0,0-1.21.48,1.73,1.73,0,0,0-.43,1.22v5.22h-1.59v-5.44a1.41,1.41,0,0,0-.42-1.07,1.46,1.46,0,0,0-1.08-.41,1.52,1.52,0,0,0-.83.24,1.77,1.77,0,0,0-.61.66,1.91,1.91,0,0,0-.24,1v5Z"/><path d="M659.13,203.16l1.09,1.42,1.1-1.42h1.44v.07l-1.88,2.26h-1.32l-1.87-2.26v-.07Zm-1,11.5v-8.19h1.54v1.3h.09a2,2,0,0,1,.79-1,2.3,2.3,0,0,1,1.29-.38h.35l.32,0v1.52l-.34-.06a3.91,3.91,0,0,0-.49,0,2,2,0,0,0-1,.23,1.85,1.85,0,0,0-.7.66,1.77,1.77,0,0,0-.25.95v5Z"/><path d="M667.4,214.82a4,4,0,0,1-2.08-.52,3.45,3.45,0,0,1-1.34-1.46,5,5,0,0,1-.47-2.22,5,5,0,0,1,.47-2.22,3.54,3.54,0,0,1,3.31-2,3.82,3.82,0,0,1,1.34.23,3.1,3.1,0,0,1,1.17.72,3.29,3.29,0,0,1,.82,1.27,5.28,5.28,0,0,1,.3,1.89V211h-6.51v-1.19h4.94a2.4,2.4,0,0,0-.25-1.12,1.88,1.88,0,0,0-.72-.76,2,2,0,0,0-1.08-.29,2.11,2.11,0,0,0-1.17.33,2.22,2.22,0,0,0-.76.85,2.46,2.46,0,0,0-.27,1.14v.93a3,3,0,0,0,.29,1.4,2,2,0,0,0,.81.87,2.55,2.55,0,0,0,2,.17,1.56,1.56,0,0,0,.64-.39,1.78,1.78,0,0,0,.42-.64l1.5.27a2.71,2.71,0,0,1-.64,1.16,3.12,3.12,0,0,1-1.17.78A4.44,4.44,0,0,1,667.4,214.82Z"/><path d="M674.28,209.8v4.86h-1.59v-8.19h1.53v1.34h.1a2.28,2.28,0,0,1,.89-1.05,2.75,2.75,0,0,1,1.52-.39,2.91,2.91,0,0,1,1.47.35,2.31,2.31,0,0,1,1,1,3.79,3.79,0,0,1,.35,1.7v5.21h-1.6v-5a2,2,0,0,0-.46-1.39,1.62,1.62,0,0,0-1.27-.5,2,2,0,0,0-1,.24,1.64,1.64,0,0,0-.68.7A2.22,2.22,0,0,0,674.28,209.8Z"/><path d="M681.65,214.66v-8.19h1.59v8.19Zm.15-9.28,1.24-2.45h1.68l-1.65,2.45Z"/><path d="M687.45,213.16l-.08.58a9.86,9.86,0,0,1-.26,1.34q-.2.69-.39,1.29l-.33.95h-1.13c0-.22.11-.52.19-.89s.16-.8.24-1.26.14-.93.18-1.41l0-.6Z"/><path d="M588.18,232.66V221.75h1.59v4.05h.1a3.62,3.62,0,0,1,.4-.59,2.16,2.16,0,0,1,.72-.59,2.56,2.56,0,0,1,1.23-.25,3.15,3.15,0,0,1,1.77.5,3.41,3.41,0,0,1,1.22,1.44,5.41,5.41,0,0,1,.44,2.27,5.22,5.22,0,0,1-.44,2.27,3.44,3.44,0,0,1-1.21,1.46,3.16,3.16,0,0,1-1.77.51,2.52,2.52,0,0,1-1.21-.26,2.22,2.22,0,0,1-.74-.58,3.39,3.39,0,0,1-.41-.6h-.13v1.28Zm1.56-4.1a4.18,4.18,0,0,0,.25,1.52,2.26,2.26,0,0,0,.73,1,1.79,1.79,0,0,0,1.16.37,1.88,1.88,0,0,0,1.19-.38,2.42,2.42,0,0,0,.73-1,4.29,4.29,0,0,0,.25-1.48,4.12,4.12,0,0,0-.25-1.45,2.26,2.26,0,0,0-.72-1,2,2,0,0,0-1.2-.37,1.89,1.89,0,0,0-1.17.36,2.11,2.11,0,0,0-.72,1A4,4,0,0,0,589.74,228.56Z"/><path d="M599,221.75v10.91h-1.59V221.75Z"/><path d="M601.17,232.66v-8.19h1.59v8.19Zm.15-9.28,1.25-2.45h1.68l-1.66,2.45Z"/><path d="M604.74,232.66v-1.1l4.43-5.63v-.07h-4.29v-1.39h6.28v1.17l-4.27,5.56v.07h4.41v1.39Zm2.13-11.5,1.09,1.42,1.1-1.42h1.44v.07l-1.87,2.26H607.3l-1.87-2.26v-.07Z"/><path d="M613.18,232.66v-8.19h1.59v8.19Zm.15-9.28,1.24-2.45h1.68l-1.65,2.45Z"/><path d="M620.89,235.72V224.47h1.55v1.33h.14a3.62,3.62,0,0,1,.4-.59,2.16,2.16,0,0,1,.72-.59,2.54,2.54,0,0,1,1.22-.25,3.13,3.13,0,0,1,1.77.5,3.37,3.37,0,0,1,1.23,1.44,6.08,6.08,0,0,1,0,4.54,3.46,3.46,0,0,1-1.22,1.46,3.11,3.11,0,0,1-1.76.51,2.57,2.57,0,0,1-1.22-.26A2.18,2.18,0,0,1,623,232a3.39,3.39,0,0,1-.41-.6h-.1v4.34Zm1.56-7.16a4.18,4.18,0,0,0,.25,1.52,2.32,2.32,0,0,0,.72,1,1.83,1.83,0,0,0,1.16.37,1.89,1.89,0,0,0,1.2-.38,2.32,2.32,0,0,0,.72-1,4.07,4.07,0,0,0,.25-1.48,4.12,4.12,0,0,0-.24-1.45,2.26,2.26,0,0,0-.72-1,2,2,0,0,0-1.21-.37,1.84,1.84,0,0,0-1.16.36,2.2,2.2,0,0,0-.73,1A4.27,4.27,0,0,0,622.45,228.56Z"/><path d="M633.59,232.82a3.79,3.79,0,0,1-2-.53,3.58,3.58,0,0,1-1.33-1.47,5.48,5.48,0,0,1,0-4.44,3.63,3.63,0,0,1,1.33-1.49,4.14,4.14,0,0,1,4,0,3.57,3.57,0,0,1,1.33,1.49,5.37,5.37,0,0,1,0,4.44,3.51,3.51,0,0,1-1.33,1.47A3.77,3.77,0,0,1,633.59,232.82Zm0-1.34a1.91,1.91,0,0,0,1.23-.39,2.29,2.29,0,0,0,.73-1.05,4.18,4.18,0,0,0,.24-1.44,4.1,4.1,0,0,0-.24-1.44,2.32,2.32,0,0,0-.73-1.06,1.86,1.86,0,0,0-1.23-.4,1.91,1.91,0,0,0-1.25.4,2.32,2.32,0,0,0-.73,1.06,4.11,4.11,0,0,0-.23,1.44,4.18,4.18,0,0,0,.23,1.44,2.29,2.29,0,0,0,.73,1.05A2,2,0,0,0,633.6,231.48Z"/><path d="M640.77,221.75v10.91h-1.59V221.75Z"/><path d="M646.36,232.82a3.77,3.77,0,0,1-2-.53,3.58,3.58,0,0,1-1.33-1.47,5.48,5.48,0,0,1,0-4.44,3.63,3.63,0,0,1,1.33-1.49,4.14,4.14,0,0,1,4,0,3.63,3.63,0,0,1,1.33,1.49,5.48,5.48,0,0,1,0,4.44,3.58,3.58,0,0,1-1.33,1.47A3.77,3.77,0,0,1,646.36,232.82Zm0-1.34a1.93,1.93,0,0,0,1.23-.39,2.29,2.29,0,0,0,.73-1.05,4.18,4.18,0,0,0,.24-1.44,4.1,4.1,0,0,0-.24-1.44,2.32,2.32,0,0,0-.73-1.06,2.12,2.12,0,0,0-2.48,0,2.32,2.32,0,0,0-.73,1.06,4.1,4.1,0,0,0-.24,1.44,4.18,4.18,0,0,0,.24,1.44,2.29,2.29,0,0,0,.73,1.05A2,2,0,0,0,646.37,231.48Z"/><path d="M659,224.47l-3,8.19h-1.7l-3-8.19H653l2.08,6.3h.08l2.07-6.3Z"/><path d="M661.25,223.21a1,1,0,0,1-.71-.28.87.87,0,0,1-.3-.67.89.89,0,0,1,.3-.67,1,1,0,0,1,.71-.28,1,1,0,0,1,.71.28.88.88,0,0,1,.29.67.87.87,0,0,1-.29.67A1,1,0,0,1,661.25,223.21Zm-.81,9.45v-8.19H662v8.19Z"/><path d="M665.77,227.8v4.86h-1.59v-8.19h1.53v1.34h.1a2.28,2.28,0,0,1,.89-1.05,2.75,2.75,0,0,1,1.52-.39,2.91,2.91,0,0,1,1.47.35,2.36,2.36,0,0,1,1,1,3.79,3.79,0,0,1,.35,1.7v5.21h-1.6v-5a2,2,0,0,0-.46-1.39,1.62,1.62,0,0,0-1.27-.5,2,2,0,0,0-1,.24,1.64,1.64,0,0,0-.68.7A2.22,2.22,0,0,0,665.77,227.8Z"/><path d="M676.66,232.82a4,4,0,0,1-2.08-.52,3.45,3.45,0,0,1-1.34-1.46,5,5,0,0,1-.47-2.22,5,5,0,0,1,.47-2.22,3.54,3.54,0,0,1,3.31-2,3.82,3.82,0,0,1,1.34.23,3.1,3.1,0,0,1,1.17.72,3.4,3.4,0,0,1,.82,1.27,5.52,5.52,0,0,1,.29,1.89V229h-6.5v-1.19h4.94a2.4,2.4,0,0,0-.25-1.12,1.88,1.88,0,0,0-.72-.76,2,2,0,0,0-1.08-.29,2.06,2.06,0,0,0-1.17.33,2.14,2.14,0,0,0-.76.85,2.46,2.46,0,0,0-.27,1.14v.93a3,3,0,0,0,.29,1.4,2,2,0,0,0,.81.87,2.4,2.4,0,0,0,1.22.31,2.35,2.35,0,0,0,.82-.14,1.6,1.6,0,0,0,.65-.39,1.78,1.78,0,0,0,.42-.64l1.5.27a2.62,2.62,0,0,1-.65,1.16,3.09,3.09,0,0,1-1.16.78A4.44,4.44,0,0,1,676.66,232.82Zm-1.26-11.66,1.09,1.42,1.1-1.42H679v.07l-1.88,2.26h-1.32L674,221.23v-.07Z"/><path d="M683,232.76a1.06,1.06,0,0,1-.75-.31,1.05,1.05,0,0,1,0-1.51,1.06,1.06,0,0,1,1.5,0,1,1,0,0,1,.31.75,1.11,1.11,0,0,1-.14.54,1.09,1.09,0,0,1-.39.38A1,1,0,0,1,683,232.76Z"/><line class="cls-5" x1="206.65" y1="131.13" x2="206.65" y2="146.04"/><polygon class="cls-6" points="202.56 142.73 203.29 142.05 206.64 145.66 210 142.05 210.73 142.73 206.64 147.13 202.56 142.73"/><rect class="cls-7" x="497.11" y="99.57" width="54.34" height="7.57"/><polyline class="cls-4" points="551.44 105.13 551.44 107.13 549.44 107.13"/><line class="cls-8" x1="545.57" y1="107.13" x2="501.04" y2="107.13"/><polyline class="cls-4" points="499.11 107.13 497.11 107.13 497.11 105.13"/><polyline class="cls-4" points="497.11 101.57 497.11 99.57 499.11 99.57"/><line class="cls-8" x1="502.98" y1="99.57" x2="547.51" y2="99.57"/><polyline class="cls-4" points="549.44 99.57 551.44 99.57 551.44 101.57"/><rect class="cls-9" x="497.11" y="270.63" width="54.34" height="54.5"/><polyline class="cls-4" points="551.44 323.13 551.44 325.13 549.44 325.13"/><line class="cls-8" x1="545.57" y1="325.13" x2="501.04" y2="325.13"/><polyline class="cls-4" points="499.11 325.13 497.11 325.13 497.11 323.13"/><line class="cls-10" x1="497.11" y1="319.25" x2="497.11" y2="274.58"/><polyline class="cls-4" points="497.11 272.63 497.11 270.63 499.11 270.63"/><line class="cls-8" x1="502.98" y1="270.63" x2="547.51" y2="270.63"/><polyline class="cls-4" points="549.44 270.63 551.44 270.63 551.44 272.63"/><line class="cls-10" x1="551.44" y1="276.52" x2="551.44" y2="321.19"/><rect class="cls-11" x="497.11" y="216.04" width="54.34" height="54.5"/><polyline class="cls-4" points="551.44 268.54 551.44 270.54 549.44 270.54"/><line class="cls-8" x1="545.57" y1="270.54" x2="501.04" y2="270.54"/><polyline class="cls-4" points="499.11 270.54 497.11 270.54 497.11 268.54"/><line class="cls-10" x1="497.11" y1="264.65" x2="497.11" y2="219.98"/><polyline class="cls-4" points="497.11 218.04 497.11 216.04 499.11 216.04"/><line class="cls-8" x1="502.98" y1="216.04" x2="547.51" y2="216.04"/><polyline class="cls-4" points="549.44 216.04 551.44 216.04 551.44 218.04"/><line class="cls-10" x1="551.44" y1="221.92" x2="551.44" y2="266.59"/><rect class="cls-12" x="497.11" y="161.57" width="54.34" height="54.5"/><polyline class="cls-4" points="551.44 214.07 551.44 216.07 549.44 216.07"/><line class="cls-8" x1="545.57" y1="216.07" x2="501.04" y2="216.07"/><polyline class="cls-4" points="499.11 216.07 497.11 216.07 497.11 214.07"/><line class="cls-10" x1="497.11" y1="210.18" x2="497.11" y2="165.51"/><polyline class="cls-4" points="497.11 163.57 497.11 161.57 499.11 161.57"/><line class="cls-8" x1="502.98" y1="161.57" x2="547.51" y2="161.57"/><polyline class="cls-4" points="549.44 161.57 551.44 161.57 551.44 163.57"/><line class="cls-10" x1="551.44" y1="167.45" x2="551.44" y2="212.12"/><rect class="cls-13" x="497.11" y="107.13" width="54.34" height="54.5"/><polyline class="cls-4" points="551.44 159.63 551.44 161.63 549.44 161.63"/><line class="cls-8" x1="545.57" y1="161.63" x2="501.04" y2="161.63"/><polyline class="cls-4" points="499.11 161.63 497.11 161.63 497.11 159.63"/><line class="cls-10" x1="497.11" y1="155.75" x2="497.11" y2="111.08"/><polyline class="cls-4" points="497.11 109.13 497.11 107.13 499.11 107.13"/><line class="cls-8" x1="502.98" y1="107.13" x2="547.51" y2="107.13"/><polyline class="cls-4" points="549.44 107.13 551.44 107.13 551.44 109.13"/><line class="cls-10" x1="551.44" y1="113.02" x2="551.44" y2="157.69"/><rect class="cls-4" x="497.11" y="99.57" width="54.34" height="225.56"/><rect class="cls-14" x="391.23" y="155.97" width="54.34" height="5.67"/><rect class="cls-15" x="391.23" y="270.63" width="54.34" height="54.5"/><rect class="cls-16" x="391.23" y="216.04" width="54.34" height="54.5"/><rect class="cls-12" x="391.23" y="161.57" width="54.34" height="54.5"/><polyline class="cls-4" points="445.57 214.07 445.57 216.07 443.57 216.07"/><line class="cls-8" x1="439.69" y1="216.07" x2="395.17" y2="216.07"/><polyline class="cls-4" points="393.23 216.07 391.23 216.07 391.23 214.07"/><line class="cls-10" x1="391.23" y1="210.18" x2="391.23" y2="165.51"/><polyline class="cls-4" points="391.23 163.57 391.23 161.57 393.23 161.57"/><line class="cls-8" x1="397.1" y1="161.57" x2="441.63" y2="161.57"/><polyline class="cls-4" points="443.57 161.57 445.57 161.57 445.57 163.57"/><line class="cls-10" x1="445.57" y1="167.45" x2="445.57" y2="212.12"/><rect class="cls-4" x="391.23" y="155.97" width="54.34" height="169.17"/><rect class="cls-16" x="285.35" y="221.92" width="54.34" height="48.61"/><rect class="cls-15" x="285.35" y="270.63" width="54.34" height="54.5"/><rect class="cls-4" x="285.35" y="221.92" width="54.34" height="103.21"/><rect class="cls-16" x="73.6" y="252.51" width="54.34" height="18.03"/><rect class="cls-15" x="73.6" y="270.63" width="54.34" height="54.5"/><rect class="cls-4" x="73.6" y="252.51" width="54.34" height="72.62"/><rect class="cls-16" x="179.48" y="216.04" width="54.34" height="54.5"/><rect class="cls-17" x="179.48" y="188.47" width="54.34" height="27.6"/><rect class="cls-15" x="179.48" y="270.63" width="54.34" height="54.5"/><rect class="cls-4" x="179.48" y="188.47" width="54.34" height="136.67"/></svg>