<svg id="Layer_1" data-name="Layer 1" xmlns="http://www.w3.org/2000/svg" viewBox="0 0 740 321.84"><defs><style>.cls-1{fill:#e8cbae;}.cls-2{fill:#f8efe7;}.cls-11,.cls-15,.cls-16,.cls-17,.cls-20,.cls-21,.cls-22,.cls-23,.cls-25,.cls-26,.cls-27,.cls-28,.cls-29,.cls-3,.cls-30,.cls-31,.cls-4,.cls-8,.cls-9{stroke:#000;}.cls-11,.cls-16,.cls-20,.cls-21,.cls-22,.cls-28,.cls-29,.cls-3,.cls-30,.cls-4{stroke-linecap:round;}.cls-15,.cls-17,.cls-29,.cls-3,.cls-30,.cls-8,.cls-9{stroke-linejoin:round;}.cls-3{stroke-width:1.1px;}.cls-11,.cls-20,.cls-21,.cls-22,.cls-23,.cls-28,.cls-30,.cls-4,.cls-9{fill:none;}.cls-11,.cls-16,.cls-20,.cls-21,.cls-22,.cls-23,.cls-25,.cls-26,.cls-27,.cls-28,.cls-31,.cls-4{stroke-miterlimit:10;}.cls-20,.cls-21,.cls-22,.cls-23,.cls-4{stroke-width:1.8px;}.cls-14,.cls-5{fill:#fff;}.cls-6{fill:#cfd3ab;}.cls-7{fill:#9fc2b2;}.cls-10,.cls-8{fill:#e2ede8;}.cls-11,.cls-16,.cls-8,.cls-9{stroke-width:2px;}.cls-12{fill:#f4d7a9;}.cls-13,.cls-14{opacity:0.7;}.cls-15{stroke-width:0.5px;}.cls-16{fill:#fcf3e5;}.cls-18{fill:#ffd166;}.cls-18,.cls-19{opacity:0.6;}.cls-20{stroke-dasharray:1.07 4.27;}.cls-21{stroke-dasharray:0.98 3.94;}.cls-22{stroke-dasharray:1.01 4.05;}.cls-24{fill:lime;}.cls-26{stroke-width:0.8px;}.cls-27{stroke-width:0.7px;}.cls-28{stroke-width:1.4px;}.cls-29{fill:#f0efde;}.cls-29,.cls-30{stroke-width:1.8px;}.cls-31{stroke-width:0.6px;}</style></defs><circle class="cls-1" cx="72.13" cy="140.99" r="70.07"/><path class="cls-2" d="M62.84,156.22A8.59,8.59,0,0,0,65.28,155a5,5,0,0,0,.79-1.39A27.06,27.06,0,0,0,68,149.72a6.55,6.55,0,0,1,.62-1.84A3.6,3.6,0,0,1,71,146.56a13.14,13.14,0,0,1,4.88-.19,1.45,1.45,0,0,1,.59.18,1.42,1.42,0,0,1,.45.55,7.79,7.79,0,0,1,.78,2.13c.54,2.72-.45,5.59.19,8.3a.34.34,0,0,1,0,.2.36.36,0,0,1-.15.12,7.15,7.15,0,0,1-3.27.58A28.83,28.83,0,0,1,71.1,158a25.27,25.27,0,0,0-4.91-.3,3.14,3.14,0,0,1-.75,0,3.47,3.47,0,0,1-.55-.16L63.35,157"/><rect class="cls-2" x="33.75" y="156.26" width="67.99" height="24.68" rx="10"/><path class="cls-3" d="M40.85,164.24c-1.72,0-3.06,1.94-3.06,4.42a6.13,6.13,0,0,0,.32,2l.62-.37a5.64,5.64,0,0,1-.23-1.61c0-2,1.06-3.71,2.35-3.71,1.08,0,2,1.15,2.27,2.71h.72C43.54,165.68,42.33,164.24,40.85,164.24Z"/><rect class="cls-3" x="62.82" y="173.16" width="8.84" height="0.71"/><rect class="cls-3" x="71.66" y="161.53" width="19.68" height="0.71"/><path class="cls-3" d="M40.85,181.21H93.69c4.76,0,8.49-5.51,8.49-12.55s-3.73-12.55-8.49-12.55H80.14a2.35,2.35,0,0,1-2.35-2.35v-5.42c0-1.72-2.24-3.07-5.1-3.07s-5.09,1.35-5.09,3.07a7.72,7.72,0,0,1-2,5.13l-.82.93-.73-1a13.08,13.08,0,0,1-2.54-7.76v-5.07h40.65v-.71H97.82l-.37-.12A10.9,10.9,0,0,1,90,129.37V129H73v.36a10.91,10.91,0,0,1-7.46,10.36l-.37.12H61.53v-3.71c0-2-4-3.69-9.93-4.24l-.91-.08v-9l1.51.88a4.31,4.31,0,0,0,2.2.62,4.43,4.43,0,0,0,4.42-4.42,4.38,4.38,0,0,0-.12-1l-.17-.66.56-.4a5.73,5.73,0,0,0,.13-9.29l-.4-.3v-.5A5.75,5.75,0,0,0,51.91,102l-.54.12-.39-.4a8.49,8.49,0,0,0-14.55,5.93v.5l-.39.33a5.72,5.72,0,0,0,.13,9.29l.56.4-.17.66a4.32,4.32,0,0,0-.13,1,4.43,4.43,0,0,0,4.42,4.42,4.35,4.35,0,0,0,2.21-.62l1.5-.88v9l-.9.08c-5.94.55-9.94,2.25-9.94,4.24v3.71H20.18v.71H33.72v5.07a13.2,13.2,0,0,1-13.19,13.19h-.35v.71h.35a13.92,13.92,0,0,0,13.9-13.9v-7.82l1.45.73c2.53,1.27,6.92,2,11.75,2s9.22-.75,11.74-2l1.45-.73v7.82a13.86,13.86,0,0,0,2.7,8.22l.72,1-1.1.52a7.68,7.68,0,0,1-3.32.77H50.69V153.4H50v2.71H40.85c-.21,0-.42,0-.63,0l-1.55.17.49-1.48a14.42,14.42,0,0,0,.39-1.51l.13-.61,1.38-.35a5.55,5.55,0,0,0,4.12-4.4h-.72a4.81,4.81,0,0,1-3.31,3.62l-1.3.41v-6.74h-.71v5.4a12.74,12.74,0,0,1-1.74,6.4l-.11.18-.17.12c-2.93,2.1-4.75,6.43-4.75,11.29C32.37,175.7,36.1,181.21,40.85,181.21Zm38.3-51.49H89.24l.1.9a11.6,11.6,0,0,0,3.91,7.48l2,1.75h-6.8l-.3-.32a13.53,13.53,0,0,1-3-5.21l-.69.16a14.25,14.25,0,0,0,1.83,3.82l1,1.55H75.71l1-1.55a14.13,14.13,0,0,0,2.38-7.6Zm-9.4,8.38a11.6,11.6,0,0,0,3.91-7.48l.09-.9h4.69l0,1a13.51,13.51,0,0,1-3.56,8.78l-.29.32H67.75Zm-28.9-14.5a3.68,3.68,0,0,1-3.28-5.41l.17-.32-.34-.16a5.08,5.08,0,0,1-3-4.6A5,5,0,0,1,37,108.73l.2-.11,0-.23c0-.23,0-.46,0-.7A7.77,7.77,0,0,1,51,102.82l.16.2.24-.08a5,5,0,0,1,1.68-.31,5.07,5.07,0,0,1,5.06,5.06,3.89,3.89,0,0,1,0,.49l-.06.42.21.12a5,5,0,0,1-.37,9l-.34.16.17.33a3.54,3.54,0,0,1,.43,1.69,3.71,3.71,0,0,1-7.42,0v-5.28l1.9-1.9-.5-.5L50,114.32v17.45l-1,0c-.88,0-1.76,0-2.65,0l-1,0V110.55l1.9-1.9-.5-.5-1.75,1.75-1.75-1.75-.51.5,1.9,1.9v9.34A3.72,3.72,0,0,1,40.85,123.6Zm19.91,12.88c-.58,1.62-5.77,3.37-13.13,3.37S35,138.09,34.48,136.46l0-.43,0-.15c.48-1.66,5.65-3.45,13.16-3.45,7.36,0,12.55,1.76,13.13,3.38l.12.33ZM72.69,146c2.38,0,4.39,1.08,4.39,2.36s-2,2.35-4.39,2.35-4.39-1.08-4.39-2.35S70.31,146,72.69,146ZM59.82,156.82a8.5,8.5,0,0,0,8-5.68l.39-1.12,1,.57a7.08,7.08,0,0,0,3.44.81,7.49,7.49,0,0,0,3-.57l1.4-.6v3.53a3.06,3.06,0,0,0,3.06,3.06H93.69c4.29,0,7.78,5.31,7.78,11.84S98,180.5,93.69,180.5H44.29l1.57-1.68a16.57,16.57,0,0,0,0-20.32l-1.57-1.68Zm-19,0c4.29,0,7.78,5.31,7.78,11.84s-3.49,11.84-7.78,11.84-7.77-5.31-7.77-11.84S36.57,156.82,40.85,156.82Z"/><rect class="cls-3" x="55.4" y="145.27" width="0.71" height="6.13"/><circle cx="71.82" cy="173.52" r="0.9"/><circle cx="71.56" cy="161.89" r="0.9"/><circle cx="43.49" cy="167.7" r="0.9"/><circle cx="50.34" cy="153.35" r="0.9"/><circle cx="55.76" cy="151.4" r="0.9"/><circle cx="55.76" cy="145.27" r="0.9"/><circle cx="44.86" cy="147.83" r="0.9"/><circle cx="20.11" cy="159.18" r="0.9"/><circle cx="20.11" cy="140.21" r="0.9"/><circle cx="46.98" cy="108.35" r="0.9"/><circle cx="84.78" cy="134.27" r="0.9"/><circle cx="102.18" cy="140.21" r="0.9"/><circle cx="42.87" cy="108.35" r="0.9"/><circle cx="52.39" cy="112.41" r="0.9"/><circle cx="39.51" cy="145.3" r="0.9"/><circle cx="38.46" cy="170.58" r="0.9"/><circle cx="91.34" cy="161.89" r="0.9"/><circle cx="62.82" cy="173.52" r="0.9"/><line class="cls-4" x1="111.38" y1="140.21" x2="127.15" y2="140.21"/><rect class="cls-5" x="11.85" y="194.95" width="120.55" height="24.22"/><circle class="cls-6" cx="519.25" cy="201.03" r="70.07"/><rect class="cls-5" x="458.97" y="255.69" width="120.55" height="24.22"/><circle class="cls-7" cx="668.29" cy="140.99" r="70.07"/><path d="M654.85,173.81a50.82,50.82,0,0,1-4.73-5.91c-1.57-2.29-3.1-4.65-4.46-7.08-1.27-2.28-2.61-5-2.44-7.65a5.21,5.21,0,0,1,4.52-4.59,16,16,0,0,1,4.21-.06c1.25.09,2.49.12,3.74.16a2.73,2.73,0,0,1,3.31,3.15c.06,2.62-1,4.91-1.87,7.34a13.17,13.17,0,0,0-.79,4,8.51,8.51,0,0,0,1,4,28.88,28.88,0,0,1,1.62,4.16c.16.5.35,1,.51,1.5a3,3,0,0,1,.25,1.37c0,.09,0,.15,0,.12s-.44.09-.56.09c-.55,0-1.1,0-1.65,0-.82,0-2.06.09-2.68-.57-.88-.94-2.29.48-1.41,1.42a4.76,4.76,0,0,0,3.23,1.15c.47,0,1,0,1.42,0a7.09,7.09,0,0,0,1.9-.07c2.81-.6,1.46-3.81.91-5.58a28.64,28.64,0,0,0-1.7-4.37,6.76,6.76,0,0,1-.75-4.36c.5-3,2.2-5.65,2.5-8.71.22-2.32-.12-5-2.48-6.13a8.86,8.86,0,0,0-3.62-.5c-1.52,0-3-.2-4.56-.24-3-.08-6.19.73-8,3.31s-1.13,5.9-.06,8.59a52.5,52.5,0,0,0,5.08,9,56.2,56.2,0,0,0,6.1,7.9C654.32,176.17,655.73,174.75,654.85,173.81Z"/><path d="M635.34,124a8.17,8.17,0,0,1,5.58,0,2.13,2.13,0,0,1,1.32,1.2c.47.9,1,1.73,1.47,2.64.77,1.6,1.52,3.77.57,5.46a5,5,0,0,1-1.84,1.66,28.15,28.15,0,0,1-2.49,1.32c-1.86.87-3.88,1.39-5.74,2.29s-3.06,2.28-2.58,4.33a14.21,14.21,0,0,0,1,2.48c.28.64.58,1.27.87,1.9.54,1.18,1.54,2.72,1.32,4.07a6.08,6.08,0,0,1-1.18,2.25c-.66,1-1.2,2-1.81,3-1.14,1.86-2.53,3.54-3.7,5.38-.7,1.09,1,2.09,1.73,1,1.1-1.73,2.39-3.32,3.49-5.05.59-.94,1.08-1.94,1.7-2.87a14.49,14.49,0,0,0,1.45-2.42c.7-1.72.1-3.35-.61-4.94-.35-.77-.7-1.53-1.06-2.3-.14-.3-.28-.6-.41-.9l-.08-.17-.36-.84c-.31-.72-.72-1.58-.15-2.26a5.22,5.22,0,0,1,2.11-1.26,66.64,66.64,0,0,0,6.24-2.59c1.75-.91,3.52-2,4.22-3.94.76-2.09.09-4.4-.81-6.34-.48-1.06-1.13-2-1.66-3.05a4,4,0,0,0-2-1.83,10.07,10.07,0,0,0-7.07-.2c-1.21.4-.69,2.33.54,1.93Z"/><path d="M694.47,135.84c-4.81.57-9.61-.09-14.4-.54-3.88-.37-8.72-.21-10.85,3.7-.92,1.69-1,4,.59,5.34s4,1.67,6,1.94a17.55,17.55,0,0,1,5.55,1.29,5.26,5.26,0,0,1,2,1.69,17.37,17.37,0,0,1,1.39,2.84,14.16,14.16,0,0,0,4,5.48,7.93,7.93,0,0,0,6.43,1.7c1.26-.25.73-2.18-.53-1.93-3.78.74-6.51-2.81-7.93-5.8-.81-1.71-1.4-3.53-2.93-4.77a10.49,10.49,0,0,0-4.64-2c-1.86-.38-3.78-.45-5.62-.93a6.42,6.42,0,0,1-2.45-1,2,2,0,0,1-.4-2.16,5,5,0,0,1,3.11-3,13.61,13.61,0,0,1,5.82-.4c4.95.45,9.9,1.18,14.86.59a1,1,0,0,0,1-1,1,1,0,0,0-1-1Z"/><path class="cls-8" d="M677,157.37c2.87,0,4.87,2.07,4.61,4.12a3.2,3.2,0,0,1,3,2.9c0,1.63-1.64,3-3.67,3H669.64c-2.33,0-3.63-1-3.63-2.49,0-1.28,1.21-2.27,2.84-2.49,0-2.22,2.57-3.13,4.4-2.39A4.09,4.09,0,0,1,677,157.37Z"/><circle class="cls-9" cx="661.1" cy="147.46" r="35.67"/><path class="cls-10" d="M708.88,129.48V99.75a5.74,5.74,0,0,0-4.3-5.62,5.5,5.5,0,0,0-4.77,1.09,5.63,5.63,0,0,0-2.12,4.36v29.84a11.13,11.13,0,1,0,16.7,9.64,10.9,10.9,0,0,0-5.51-9.58Z"/><path d="M704.17,132.69v-22.8a.92.92,0,1,0-1.83,0v22.8a6.49,6.49,0,1,0,1.83,0Zm-.91,11a4.65,4.65,0,1,1,4.65-4.65A4.67,4.67,0,0,1,703.26,143.71Z"/><path d="M708.88,129.48V99.75a5.74,5.74,0,0,0-4.3-5.62,5.5,5.5,0,0,0-4.77,1.09,5.63,5.63,0,0,0-2.12,4.36v29.84a11.13,11.13,0,1,0,16.7,9.64,10.9,10.9,0,0,0-5.51-9.58Zm-5.62,18.93A9.29,9.29,0,0,1,699,130.85a1,1,0,0,0,.52-.8V99.64A3.72,3.72,0,0,1,701,96.71a4,4,0,0,1,2.36-.8,4.34,4.34,0,0,1,.86.12,3.84,3.84,0,0,1,2.87,3.78v30.24a.8.8,0,0,0,.51.8,9.29,9.29,0,0,1-4.3,17.56Z"/><line class="cls-11" x1="711.42" y1="99.56" x2="717.99" y2="99.56"/><line class="cls-11" x1="711.42" y1="112.47" x2="717.99" y2="112.47"/><line class="cls-11" x1="711.42" y1="106.01" x2="715.21" y2="106.01"/><line class="cls-11" x1="711.42" y1="118.93" x2="715.21" y2="118.93"/><line class="cls-11" x1="711.42" y1="125.38" x2="717.99" y2="125.38"/><path class="cls-8" d="M680.92,110.44a3.76,3.76,0,0,1,4.06,3.79c0,2.08-1.52,2.87-4.06,2.87H659.48c-3-.12-5.38-1.26-5.38-3.74,0-2,2.17-3.7,4.67-3.77.4-3.19,2.56-6.21,6.55-6.21a7.85,7.85,0,0,1,7.15,4,5.49,5.49,0,0,1,2.39-.54,3.85,3.85,0,0,1,3.89,4.12,13.94,13.94,0,0,1,2.17-.47Z"/><path class="cls-8" d="M659.4,124.42c-2.87,0-4.87,2.07-4.61,4.11a3.21,3.21,0,0,0-3,2.91c0,1.63,1.64,2.95,3.67,2.95h11.23c2.34,0,3.63-.95,3.63-2.49,0-1.29-1.21-2.28-2.84-2.5,0-2.21-2.57-3.12-4.4-2.39A4.09,4.09,0,0,0,659.4,124.42Z"/><rect class="cls-5" x="608.01" y="194.95" width="120.55" height="24.22"/><circle class="cls-12" cx="221.17" cy="201.03" r="70.07"/><rect class="cls-5" x="162.29" y="254.99" width="120.55" height="24.22"/><line class="cls-4" x1="282.84" y1="197.38" x2="240.4" y2="197.38"/><line class="cls-4" x1="174.86" y1="197.38" x2="162.29" y2="197.38"/><line class="cls-4" x1="254.01" y1="209.21" x2="281.41" y2="209.21"/><line class="cls-4" x1="164.95" y1="209.21" x2="174.69" y2="209.21"/><line class="cls-4" x1="276.49" y1="221.04" x2="226.84" y2="221.04"/><line class="cls-4" x1="212.37" y1="221.04" x2="195.89" y2="221.04"/><g class="cls-13"><path class="cls-5" d="M186.16,204.24a7,7,0,0,1,1.37-3.18c1.08-1.17,2.79-1.46,4.22-2.16a2.77,2.77,0,0,0,.81-.53,6.69,6.69,0,0,0,.66-.92,5.47,5.47,0,0,1,1.18-1.07c1.78-1.3,3.89-2.39,6.09-2.21a2.45,2.45,0,0,1,2.28,1.42,7.82,7.82,0,0,0,.24,1.09,1.93,1.93,0,0,0,1.27.92,5.06,5.06,0,0,1,1.49.57,1.12,1.12,0,0,1,.42,1.41,1.41,1.41,0,0,1-.65.47,22.33,22.33,0,0,1-6,1.47q-7.12,1.06-14.2,2.41"/></g><path class="cls-14" d="M200,182.85a5.68,5.68,0,0,0-5,.41,4.49,4.49,0,0,0-2.41-2.84.36.36,0,0,0-.39.05.43.43,0,0,0-.13.38,3,3,0,0,1-.14,1.71,3.53,3.53,0,0,1-1.2,1.31.38.38,0,0,0,.05.67,4.48,4.48,0,0,0,3.71-.14,5.64,5.64,0,0,0,3,3.93,5.81,5.81,0,0,0,5-.44,1,1,0,0,0,.46-1,5.71,5.71,0,0,0-3.06-4Z"/><path class="cls-14" d="M196,187.5a5.74,5.74,0,0,0-4.66,1.8,4.47,4.47,0,0,0-3.11-2,.35.35,0,0,0-.36.16.44.44,0,0,0,0,.4,3,3,0,0,1,.35,1.68,3.51,3.51,0,0,1-.79,1.6.4.4,0,0,0-.07.38.41.41,0,0,0,.31.25,4.49,4.49,0,0,0,3.52-1.19,5.69,5.69,0,0,0,4,2.91,5.77,5.77,0,0,0,4.7-1.85,1,1,0,0,0,.15-1.13,5.76,5.76,0,0,0-4.07-3Z"/><path class="cls-14" d="M188.34,193.31a5.7,5.7,0,0,0-2.79,4.14,4.44,4.44,0,0,0-3.71.11.35.35,0,0,0-.21.34.43.43,0,0,0,.22.33,3,3,0,0,1,1.25,1.18,3.5,3.5,0,0,1,.27,1.76.39.39,0,0,0,.16.35.41.41,0,0,0,.4,0,4.47,4.47,0,0,0,2.2-3,5.71,5.71,0,0,0,5,.07,5.78,5.78,0,0,0,2.79-4.21,1,1,0,0,0-.52-1,5.74,5.74,0,0,0-5-.1Z"/><path class="cls-14" d="M208.72,197.84a5.73,5.73,0,0,0,3.82-3.22,4.44,4.44,0,0,0,3.6.91.35.35,0,0,0,.29-.27.41.41,0,0,0-.12-.38,3,3,0,0,1-.88-1.47,3.48,3.48,0,0,1,.23-1.77.4.4,0,0,0-.07-.39.39.39,0,0,0-.37-.13,4.49,4.49,0,0,0-2.94,2.28,5.65,5.65,0,0,0-4.77-1.43,5.81,5.81,0,0,0-3.84,3.28,1,1,0,0,0,.24,1.11,5.69,5.69,0,0,0,4.81,1.48Z"/><path class="cls-15" d="M251.05,174c-2.81.62-11,7.45-13.61,9.63l-.06-.07A1.78,1.78,0,0,0,236,183a3,3,0,0,0-2,1c-.06.06-.26.31-.26.31a42.15,42.15,0,0,1-3.64,2.43,10.4,10.4,0,0,1-1-1.66c-.2-.4-.62-1.11-.65-1.15A3,3,0,0,0,226,182.3a4.82,4.82,0,0,0-4,1.57c-3.1,3-5,9.43-5,12.41l1.26-.28c.14-2.81,1.88-8.6,4.61-11.22a4.53,4.53,0,0,1,1.64-1.06,3,3,0,0,0-.55.9c-.45,1.18.11,3.64,2,5.62a16.87,16.87,0,0,0-1,4.28l1.31-.29a15.89,15.89,0,0,1,.73-3.07c.95.77,2.35,1.65,3.53,1.39,1.66-.36,5.63-4,6.4-4.75l.46-.44-.54-.57a2.69,2.69,0,0,0,1.05-1.7,1.22,1.22,0,0,0,0-.33c3-2.59,9.9-8.25,12.75-9.48m-20.4,16c-.95.21-2.71-1.28-3.4-2-2.17-2.24-1.92-3.74-1.73-4.27a1.42,1.42,0,0,1,1.16-1,1.26,1.26,0,0,1,1.18.6s.37.63.56,1h0c.74,1.45,1.38,2.7,2.35,2.36a26.75,26.75,0,0,0,3.68-2.36l1.54,1.63C233.88,188.9,231.22,191.11,230.29,191.32Zm6.37-6.34a1.63,1.63,0,0,1-.63.87l0,0-1-1h0a1.83,1.83,0,0,1,1-.59.57.57,0,0,1,.44.2A.66.66,0,0,1,236.66,185Z"/><path class="cls-15" d="M220.19,181a.65.65,0,0,0,.57.17A.62.62,0,0,0,221,181c.24-.18,1-.68,2-1.32a4.26,4.26,0,0,0,4.55,2,4.37,4.37,0,0,0,3.2-5.27,4.89,4.89,0,0,0-.46-1.21,8.15,8.15,0,0,1,2.38-1,.64.64,0,0,0,.63-.64.64.64,0,0,0-.65-.62,7.81,7.81,0,0,0-2.55,1l-.13-.08-4.5-2.71a1.84,1.84,0,0,0-2.08.32l-2.55,2.38a1.9,1.9,0,0,0-.53,1.8l1,3.66-1.17.8a.63.63,0,0,0,0,.89Zm9.31-4.27a3.11,3.11,0,0,1-2.23,3.77,3,3,0,0,1-3.22-1.49c1.57-1,3.49-2.2,5.13-3.15A3.24,3.24,0,0,1,229.5,176.72Zm-7.8-1.95,2.55-2.39a.58.58,0,0,1,.61-.13l3.94,2.38c-2.12,1.19-4.6,2.78-6.36,3.94l-.91-3.24A.59.59,0,0,1,221.7,174.77Z"/><path class="cls-16" d="M185.42,204.12c3.73,9.21,15.09,13.08,27.2,10.4,11.08-2.45,20.89-11.06,20.29-20.9"/><line class="cls-16" x1="232.91" y1="193.62" x2="185.42" y2="204.12"/><path class="cls-4" d="M194.39,201.51c-.16-2-6-3.88-7.5,1"/><path class="cls-4" d="M202.6,195.87c-.16-2-6-3.88-7.49,1"/><path class="cls-4" d="M199.49,200c.28-2-5-5.08-7.53-.69"/><path class="cls-4" d="M206.68,199.45c.28-2-5-5.09-7.53-.7"/><path class="cls-17" d="M188.92,193.3a5.72,5.72,0,0,0-2.86,4.09,4.49,4.49,0,0,0-3.72.05.35.35,0,0,0-.2.33.41.41,0,0,0,.2.34,3,3,0,0,1,1.23,1.2,3.46,3.46,0,0,1,.24,1.76.4.4,0,0,0,.16.36.39.39,0,0,0,.39,0,4.51,4.51,0,0,0,2.26-3,5.64,5.64,0,0,0,5,.16,5.84,5.84,0,0,0,2.87-4.15,1,1,0,0,0-.51-1,5.77,5.77,0,0,0-5-.2Zm-4.32,7.14a3.09,3.09,0,0,0-1.26-2.56,3.92,3.92,0,0,1,2.61.3,4.08,4.08,0,0,1-1.35,2.26Zm6.82-2.53a.61.61,0,0,1-.18.1h0a5,5,0,0,1-4.48-.26,5.13,5.13,0,0,1,2.51-3.76l.41-.19a5.22,5.22,0,0,1,3.93.39.17.17,0,0,1,.1.2h0A5.32,5.32,0,0,1,191.42,197.91Z"/><path class="cls-17" d="M196.1,187.82a5.72,5.72,0,0,0-4.72,1.6,4.52,4.52,0,0,0-3-2.16.35.35,0,0,0-.36.15.39.39,0,0,0,0,.39,3.07,3.07,0,0,1,.28,1.7,3.47,3.47,0,0,1-.85,1.56.42.42,0,0,0-.09.39.41.41,0,0,0,.3.26,4.53,4.53,0,0,0,3.57-1.05,5.69,5.69,0,0,0,3.92,3.07,5.8,5.8,0,0,0,4.77-1.66,1,1,0,0,0,.19-1.12,5.72,5.72,0,0,0-4-3.13Zm-7.7,3.2a3.43,3.43,0,0,0,.59-1.37,3.35,3.35,0,0,0-.1-1.44,3.93,3.93,0,0,1,1.94,1.79,4.18,4.18,0,0,1-2.43,1Zm7,2-.21,0h0a5.05,5.05,0,0,1-3.46-2.86,5.16,5.16,0,0,1,4.25-1.56l.44.1a5.16,5.16,0,0,1,2.94,2.64.16.16,0,0,1,0,.22h0A5.33,5.33,0,0,1,195.4,193Z"/><path class="cls-17" d="M208.72,197.84a5.73,5.73,0,0,0,3.82-3.22,4.44,4.44,0,0,0,3.6.91.35.35,0,0,0,.29-.27.41.41,0,0,0-.12-.38,3,3,0,0,1-.88-1.47,3.48,3.48,0,0,1,.23-1.77.4.4,0,0,0-.07-.39.39.39,0,0,0-.37-.13,4.49,4.49,0,0,0-2.94,2.28,5.65,5.65,0,0,0-4.77-1.43,5.81,5.81,0,0,0-3.84,3.28,1,1,0,0,0,.24,1.11,5.69,5.69,0,0,0,4.81,1.48Zm6-5.79a3.14,3.14,0,0,0,.56,2.8,4,4,0,0,1-2.45-1,4.14,4.14,0,0,1,1.89-1.84Zm-7.24.7a.8.8,0,0,1,.2-.06h0A5,5,0,0,1,212,194.1a5.15,5.15,0,0,1-3.39,3l-.44.07a5.19,5.19,0,0,1-3.7-1.38.17.17,0,0,1,0-.22h0A5.34,5.34,0,0,1,207.49,192.75Z"/><path class="cls-17" d="M199.67,182.77a5.68,5.68,0,0,0-4.95.61,4.49,4.49,0,0,0-2.52-2.74.37.37,0,0,0-.39.07.42.42,0,0,0-.11.38,3,3,0,0,1-.07,1.72,3.51,3.51,0,0,1-1.15,1.35.41.41,0,0,0-.16.36.37.37,0,0,0,.23.31,4.47,4.47,0,0,0,3.71-.29,5.66,5.66,0,0,0,3.21,3.81,5.8,5.8,0,0,0,5-.65,1,1,0,0,0,.41-1.06,5.73,5.73,0,0,0-3.22-3.87Zm-8.2,1.56a3.48,3.48,0,0,0,.87-1.23,3.53,3.53,0,0,0,.2-1.42,3.91,3.91,0,0,1,1.52,2.14,4.19,4.19,0,0,1-2.59.51Zm6.45,3.37a.56.56,0,0,1-.2-.06h0a5,5,0,0,1-2.8-3.5,5.13,5.13,0,0,1,4.47-.66l.41.18a5.24,5.24,0,0,1,2.35,3.19.17.17,0,0,1-.08.21h0A5.32,5.32,0,0,1,197.92,187.7Z"/><path class="cls-14" d="M206,192.48a5.74,5.74,0,0,0,2.23-4.47,4.45,4.45,0,0,0,3.67-.59.34.34,0,0,0,.15-.36.42.42,0,0,0-.25-.3,3.06,3.06,0,0,1-1.4-1,3.51,3.51,0,0,1-.49-1.71.42.42,0,0,0-.21-.33.39.39,0,0,0-.39,0,4.46,4.46,0,0,0-1.8,3.25,5.68,5.68,0,0,0-4.95.57,5.81,5.81,0,0,0-2.22,4.53,1,1,0,0,0,.65.94,5.77,5.77,0,0,0,5-.55Z"/><path class="cls-17" d="M206.15,192.51a5.69,5.69,0,0,0,2-4.58,4.51,4.51,0,0,0,3.63-.8.34.34,0,0,0,.14-.37.44.44,0,0,0-.27-.29,2.9,2.9,0,0,1-1.45-.92,3.51,3.51,0,0,1-.59-1.68.4.4,0,0,0-.23-.32.37.37,0,0,0-.39,0,4.48,4.48,0,0,0-1.61,3.34,5.72,5.72,0,0,0-4.91.85,5.85,5.85,0,0,0-2,4.66,1,1,0,0,0,.71.89,5.72,5.72,0,0,0,5-.83Zm2.78-7.87a3.15,3.15,0,0,0,1.76,2.26,4,4,0,0,1-2.62.24,4.23,4.23,0,0,1,.86-2.5Zm-6.16,3.87a.69.69,0,0,1,.15-.14h0a5,5,0,0,1,4.44-.65,5.11,5.11,0,0,1-1.69,4.19c-.11.09-.24.17-.36.26a5.2,5.2,0,0,1-3.93.42.17.17,0,0,1-.14-.18h0A5.28,5.28,0,0,1,202.77,188.51Z"/><path class="cls-17" d="M180.69,218.34a5.75,5.75,0,0,0-4.5,2.15,4.49,4.49,0,0,0-3.26-1.79.38.38,0,0,0-.35.19.43.43,0,0,0,0,.4,3,3,0,0,1,.48,1.65,3.46,3.46,0,0,1-.66,1.65.41.41,0,0,0,0,.39.38.38,0,0,0,.33.22,4.48,4.48,0,0,0,3.42-1.45,5.67,5.67,0,0,0,4.25,2.58,5.8,5.8,0,0,0,4.54-2.2A1,1,0,0,0,185,221a5.77,5.77,0,0,0-4.29-2.65Zm-7.27,4.09a3.59,3.59,0,0,0,.43-1.43,3.52,3.52,0,0,0-.27-1.42,3.92,3.92,0,0,1,2.13,1.55,4.2,4.2,0,0,1-2.29,1.3Zm7.18,1.15h-.2a5.05,5.05,0,0,1-3.77-2.44,5.09,5.09,0,0,1,4-2l.44,0a5.19,5.19,0,0,1,3.24,2.28.17.17,0,0,1,0,.22h0A5.33,5.33,0,0,1,180.6,223.58Z"/><path class="cls-17" d="M242.49,236.71a5.69,5.69,0,0,0,4.51-2.15,4.43,4.43,0,0,0,3.25,1.79.36.36,0,0,0,.35-.18.43.43,0,0,0,0-.4,3,3,0,0,1-.48-1.65,3.54,3.54,0,0,1,.67-1.65.41.41,0,0,0,0-.39.38.38,0,0,0-.33-.22,4.48,4.48,0,0,0-3.42,1.45,5.7,5.7,0,0,0-4.25-2.59,5.86,5.86,0,0,0-4.55,2.21,1,1,0,0,0,0,1.14,5.71,5.71,0,0,0,4.28,2.64Zm7.28-4.08a3.43,3.43,0,0,0-.43,1.43,3.39,3.39,0,0,0,.27,1.42,3.92,3.92,0,0,1-2.13-1.55,4.1,4.1,0,0,1,2.29-1.3Zm-7.18-1.15a.64.64,0,0,1,.2,0h0a5.05,5.05,0,0,1,3.77,2.44,5.17,5.17,0,0,1-4,2l-.45,0a5.23,5.23,0,0,1-3.23-2.28.16.16,0,0,1,0-.22h0A5.31,5.31,0,0,1,242.59,231.48Z"/><line class="cls-4" x1="176.63" y1="232.86" x2="228.51" y2="232.86"/><line class="cls-4" x1="261.62" y1="232.86" x2="269.03" y2="232.86"/><line class="cls-4" x1="189.3" y1="244.69" x2="248.62" y2="244.69"/><circle class="cls-4" cx="187.41" cy="156.86" r="5.41"/><polyline class="cls-12" points="227.47 210.03 185.96 210.03 185.96 217.65 227.47 217.65 227.47 210.03"/><line class="cls-4" x1="251.15" y1="174.59" x2="251.15" y2="201.65"/><line class="cls-4" x1="183.29" y1="209.21" x2="232.19" y2="209.21"/><path d="M136.15,30.81v-16h3.38v6.6h6.87v-6.6h3.38v16H146.4V24.2h-6.87v6.61Z"/><path d="M153.23,30.81v-16h3.38V28h6.86v2.79Z"/><path d="M169.52,30.81H165.9l5.52-16h4.36l5.52,16h-3.63l-4-12.35h-.13Zm-.22-6.29h8.56v2.64H169.3Z"/><path d="M184.79,14.81,188.65,27h.15l3.88-12.15h3.75l-5.52,16h-4.36l-5.52-16Z"/><path d="M212.39,14.81v16h-2.92l-7-10.08h-.12V30.81H199v-16h3l6.9,10.06H209V14.81Z"/><path d="M219.22,14.81v16h-3.38v-16Zm-2.87-1.55L218,9.7h3.08l-2.38,3.56Z"/><path d="M228.43,30.81v-16H239v2.78h-7.21v3.82h6.5V24.2h-6.5v6.61Z"/><path d="M242.72,30.81h-3.63l5.53-16H249l5.51,16h-3.62l-4-12.35h-.13Zm-.23-6.29h8.57v2.64h-8.57Z"/><path d="M257.07,30.81v-16h3.39v7h.21l5.76-7h4.05L264.54,22l6,8.84H266.5l-4.38-6.58-1.66,2v4.55Z"/><path d="M272.3,17.59V14.81h13.14v2.78h-4.9V30.81h-3.35V17.59Z"/><path d="M302.26,22.81a9.29,9.29,0,0,1-1,4.45,6.9,6.9,0,0,1-2.68,2.8,8.1,8.1,0,0,1-7.65,0,7,7,0,0,1-2.68-2.81,9.22,9.22,0,0,1-1-4.44,9.3,9.3,0,0,1,1-4.46,6.9,6.9,0,0,1,2.68-2.8,8.1,8.1,0,0,1,7.65,0,6.9,6.9,0,0,1,2.68,2.8A9.3,9.3,0,0,1,302.26,22.81Zm-3.43,0a7.29,7.29,0,0,0-.5-2.86,3.91,3.91,0,0,0-1.42-1.77,4.12,4.12,0,0,0-4.28,0A3.91,3.91,0,0,0,291.21,20a7.11,7.11,0,0,0-.5,2.86,7.06,7.06,0,0,0,.5,2.85,3.91,3.91,0,0,0,1.42,1.77,4.12,4.12,0,0,0,4.28,0,3.91,3.91,0,0,0,1.42-1.77A7.24,7.24,0,0,0,298.83,22.81Z"/><path d="M305.42,30.81v-16h6.31a6.86,6.86,0,0,1,3.1.64,4.55,4.55,0,0,1,2,1.82,5.43,5.43,0,0,1,.68,2.76,5.21,5.21,0,0,1-.69,2.74,4.43,4.43,0,0,1-2,1.75,7.27,7.27,0,0,1-3.14.61h-4.23V22.41h3.68a4.18,4.18,0,0,0,1.61-.26,1.92,1.92,0,0,0,1-.8A2.53,2.53,0,0,0,314,20a2.63,2.63,0,0,0-.31-1.34,2,2,0,0,0-1-.83,4,4,0,0,0-1.62-.29H308.8V30.81Zm8.64-7.29,4,7.29H314.3l-3.89-7.29Z"/><path d="M319.58,14.81h3.79L327,21.7h.15l3.65-6.89h3.79l-5.83,10.34v5.66h-3.36V25.15Z"/><path d="M342.71,30.81v-2l8-11.21h-8V14.81h12.25v2L347,28h8v2.79Z"/><path d="M357.6,17.59V14.81h13.14v2.78h-4.9V30.81H362.5V17.59Z"/><path d="M373.57,30.81v-16h6.31a6.83,6.83,0,0,1,3.1.64,4.55,4.55,0,0,1,2,1.82,5.43,5.43,0,0,1,.68,2.76,5.21,5.21,0,0,1-.69,2.74,4.43,4.43,0,0,1-2,1.75,7.27,7.27,0,0,1-3.14.61h-4.23V22.41h3.68a4.18,4.18,0,0,0,1.61-.26,1.92,1.92,0,0,0,1-.8,2.53,2.53,0,0,0,.31-1.32,2.63,2.63,0,0,0-.31-1.34,2,2,0,0,0-1-.83,4,4,0,0,0-1.62-.29H377V30.81Zm8.64-7.29,4,7.29h-3.74l-3.89-7.29Z"/><path d="M391.43,30.81H387.8l5.53-16h4.36l5.51,16h-3.62l-4-12.35h-.13Zm-.23-6.29h8.56v2.64H391.2Zm3.11-11.26L396,9.7H399l-2.38,3.56Z"/><path d="M403.2,17.59V14.81h13.15v2.78h-4.9V30.81H408.1V17.59Z"/><path d="M418.24,14.81H422l3.65,6.89h.15l3.65-6.89h3.79l-5.83,10.34v5.66h-3.36V25.15Z"/><path d="M441.54,30.81v-16h6.4a7.28,7.28,0,0,1,2.95.52,3.91,3.91,0,0,1,1.77,1.45,3.8,3.8,0,0,1,.6,2.13,3.45,3.45,0,0,1-.38,1.64,3.19,3.19,0,0,1-1,1.16,4.07,4.07,0,0,1-1.49.63v.16a3.67,3.67,0,0,1,3,1.85,4,4,0,0,1,.5,2,4.14,4.14,0,0,1-.63,2.27,4.31,4.31,0,0,1-1.85,1.58,7.18,7.18,0,0,1-3,.58Zm3.38-9.31h2.51a2.92,2.92,0,0,0,1.24-.25,2,2,0,0,0,.85-.69,1.82,1.82,0,0,0,.32-1.09,1.76,1.76,0,0,0-.61-1.4,2.6,2.6,0,0,0-1.74-.53h-2.57Zm0,6.54h2.76a3.2,3.2,0,0,0,2.06-.54,1.81,1.81,0,0,0,.65-1.45,2.14,2.14,0,0,0-.32-1.17,2.22,2.22,0,0,0-.91-.8,3.21,3.21,0,0,0-1.4-.29h-2.84Z"/><path d="M460.12,14.81v16h-3.39v-16Z"/><path d="M478.27,22.81a9.29,9.29,0,0,1-1,4.45,6.86,6.86,0,0,1-2.69,2.8,8.08,8.08,0,0,1-7.64,0,7,7,0,0,1-2.68-2.81,9.22,9.22,0,0,1-1-4.44,9.3,9.3,0,0,1,1-4.46,6.9,6.9,0,0,1,2.68-2.8,8.08,8.08,0,0,1,7.64,0,6.86,6.86,0,0,1,2.69,2.8A9.3,9.3,0,0,1,478.27,22.81Zm-3.43,0a7.29,7.29,0,0,0-.5-2.86,3.91,3.91,0,0,0-1.42-1.77,4.12,4.12,0,0,0-4.28,0A3.91,3.91,0,0,0,467.22,20a7.11,7.11,0,0,0-.5,2.86,7.06,7.06,0,0,0,.5,2.85,3.91,3.91,0,0,0,1.42,1.77,4.12,4.12,0,0,0,4.28,0,3.91,3.91,0,0,0,1.42-1.77A7.24,7.24,0,0,0,474.84,22.81Z"/><path d="M487.1,30.81h-5.67v-16h5.72a8.52,8.52,0,0,1,4.16.95A6.58,6.58,0,0,1,494,18.51a9,9,0,0,1,.94,4.28,9.13,9.13,0,0,1-.94,4.3,6.57,6.57,0,0,1-2.7,2.75A8.59,8.59,0,0,1,487.1,30.81Zm-2.29-2.9H487a5.41,5.41,0,0,0,2.53-.54A3.44,3.44,0,0,0,491,25.71a7.13,7.13,0,0,0,.52-2.92,7.07,7.07,0,0,0-.52-2.9,3.44,3.44,0,0,0-1.55-1.66A5.46,5.46,0,0,0,487,17.7h-2.16Z"/><path d="M501.47,14.81v16h-3.38v-16Z"/><path d="M507.81,14.81,511.68,27h.15l3.87-12.15h3.75l-5.51,16h-4.36l-5.53-16Z"/><path d="M522,30.81v-16h10.79v2.78h-7.4v3.82h6.84V24.2h-6.84V28h7.43v2.79Z"/><path d="M536.17,30.81v-16h6.31a6.83,6.83,0,0,1,3.1.64,4.55,4.55,0,0,1,2,1.82,5.43,5.43,0,0,1,.68,2.76,5.21,5.21,0,0,1-.69,2.74,4.43,4.43,0,0,1-2,1.75,7.27,7.27,0,0,1-3.14.61h-4.23V22.41h3.68a4.18,4.18,0,0,0,1.61-.26,1.92,1.92,0,0,0,1-.8,2.53,2.53,0,0,0,.31-1.32,2.63,2.63,0,0,0-.31-1.34,2,2,0,0,0-1-.83,4,4,0,0,0-1.62-.29h-2.29V30.81Zm8.64-7.29,4,7.29h-3.74l-3.89-7.29Z"/><path d="M551.1,30.81v-2l8-11.21h-8V14.81h12.25v2l-8,11.21h8v2.79Z"/><path d="M570,14.81v16H566.6v-16Z"/><path d="M572.82,17.59V14.81H586v2.78h-4.9V30.81h-3.34V17.59Z"/><path d="M587.86,14.81h3.79l3.65,6.89h.15l3.65-6.89h3.79l-5.84,10.34v5.66h-3.36V25.15Z"/><circle class="cls-18" cx="370.21" cy="140.99" r="70.07"/><g class="cls-19"><path class="cls-5" d="M407.19,187c4.43-.26,10.54-11.49,13.24-17.78,3.14-7.34,4.49-15.55,9.08-22.08a20.88,20.88,0,0,1,5.5-5.47l-12.17-2.27c-4.91,3.17-8.83,7.61-13.37,11.29-12.23,9.93-28.17,13.78-43.6,17-15.25,3.19-31,6.23-44,14.82-.13.09-1.58.73-.41.94C352.39,189.29,380.83,188.55,407.19,187Z"/></g><rect class="cls-5" x="311.33" y="194.95" width="120.55" height="24.22"/><line class="cls-11" x1="309.42" y1="137.52" x2="410.23" y2="137.52"/><line class="cls-4" x1="406.13" y1="141.94" x2="410.53" y2="137.54"/><line class="cls-4" x1="387.67" y1="148.7" x2="398.82" y2="137.54"/><line class="cls-4" x1="371.01" y1="153.65" x2="387.12" y2="137.54"/><line class="cls-4" x1="353.29" y1="159.66" x2="375.42" y2="137.54"/><line class="cls-4" x1="336.92" y1="164.33" x2="363.71" y2="137.54"/><line class="cls-4" x1="309" y1="164.28" x2="327.34" y2="164.28"/><line class="cls-4" x1="309" y1="155.36" x2="336.53" y2="155.36"/><line class="cls-4" x1="309" y1="146.44" x2="345.72" y2="146.44"/><line class="cls-11" x1="363.66" y1="136.52" x2="363.66" y2="128.58"/><line class="cls-11" x1="352.51" y1="136.52" x2="352.51" y2="130.42"/><line class="cls-11" x1="341.87" y1="136.52" x2="341.87" y2="132.62"/><path d="M422.38,138.65c-6.22,4-11,9.92-17.12,14.09a74.9,74.9,0,0,1-19.21,9A204,204,0,0,1,365.11,167c-7.26,1.52-14.53,3-21.65,5.08a84,84,0,0,0-20.14,8.49c-.8.49-1.58,1-2.36,1.51-.95.64,0,2.2.91,1.56a76,76,0,0,1,19.9-9.17c7.07-2.22,14.34-3.75,21.59-5.27,7.07-1.47,14.14-2.95,21.06-5A82.38,82.38,0,0,0,404,155.7a61.07,61.07,0,0,0,8.62-6.48c2.77-2.47,5.41-5.12,8.36-7.38.75-.57,1.53-1.12,2.32-1.64,1-.63.07-2.18-.91-1.55Z"/><path d="M434.56,140.93c-5.85,3.88-8.83,10.41-11,16.84-1.1,3.22-2.08,6.49-3.32,9.67A47.16,47.16,0,0,1,408,185.21c-.86.79.42,2.06,1.27,1.28A48.81,48.81,0,0,0,421,170.09c2.73-6.22,4.06-13,7.2-19a22.35,22.35,0,0,1,7.24-8.57c1-.64.06-2.2-.91-1.55Z"/><path class="cls-4" d="M333,113.24l.49-.07"/><path class="cls-20" d="M337.77,113.4c6.25,1,15.57,5,19.63,13.28"/><path class="cls-4" d="M358.24,128.66c.06.15.11.31.17.47"/><path class="cls-4" d="M334.79,111.84l.47-.14"/><path class="cls-21" d="M339.15,111.17c7.42-.14,18.12,3.69,23.41,12.31"/><path class="cls-4" d="M363.51,125.21l.21.45"/><path class="cls-4" d="M336.49,109.94l.46-.19"/><path class="cls-22" d="M340.87,108.8c8.18-1,19.22,2.77,25.26,10.27"/><path class="cls-4" d="M367.33,120.7c.09.14.19.28.27.42"/><line class="cls-23" x1="388.95" y1="136.52" x2="388.95" y2="130.04"/><path d="M390,125c.05-1.06-.09-2.12-.13-3.18,0-.24,0-.48,0-.72s0-.24,0-.36a.66.66,0,0,0,0-.14c0,.14,0-.06,0-.11a2.09,2.09,0,0,1,.21-.63,1.43,1.43,0,0,1,.52-.4,2,2,0,0,1,1.44-.11.73.73,0,0,1,.25.11,1.24,1.24,0,0,1,.21.14s.24.25.17.17l.11.16.07.13a1.5,1.5,0,0,1,.11.36c0-.14,0,0,0,0v.19c0-.12,0,0,0,0a1.52,1.52,0,0,1-.06.2l0,.06a2.26,2.26,0,0,1-.16.26,3.42,3.42,0,0,1-.43.4,5.36,5.36,0,0,1-.84.48,9.53,9.53,0,0,0-1,.45,3.57,3.57,0,0,0-.81.69l-.95,1a.93.93,0,0,0,0,1.28.92.92,0,0,0,1.27,0c.32-.34.64-.66,1-1a2.08,2.08,0,0,1,.74-.55c.28-.13.66-.28,1-.45,1.39-.73,2.58-2.24,2-3.89a3.35,3.35,0,0,0-3.84-2.08,3.39,3.39,0,0,0-2,1.08,3.74,3.74,0,0,0-.75,2.28c-.06,1.37.2,2.73.13,4.1a.9.9,0,0,0,1.8,0Z"/><path d="M389.71,125c0-1.23.14-2.46.14-3.68a4.81,4.81,0,0,0-.39-2.15,3,3,0,0,0-1.85-1.5,3.44,3.44,0,0,0-4.09,1.39,2.82,2.82,0,0,0-.26,2.27,3.76,3.76,0,0,0,1.54,1.91,7.62,7.62,0,0,0,1.06.55,2.9,2.9,0,0,1,.92.49c.4.39.78.82,1.16,1.23a.91.91,0,1,0,1.28-1.28c-.28-.29-.57-.58-.85-.88a4.27,4.27,0,0,0-1.51-1.08,5.49,5.49,0,0,1-1.43-.81,1.5,1.5,0,0,1-.43-.59s-.07-.22-.07-.27c0,.14,0-.35,0-.18a1.5,1.5,0,0,1,2-1.09,1.77,1.77,0,0,1,.63.27,1,1,0,0,1,.36.41,2.3,2.3,0,0,1,.12.43l0,.22c0-.14,0,0,0,0,0,.25,0,.49,0,.74,0,1.19-.19,2.39-.14,3.59a.93.93,0,0,0,.9.9.91.91,0,0,0,.9-.9Z"/><path d="M390,131.64c.05-1-.09-2.12-.13-3.17,0-.24,0-.48,0-.72s0-.24,0-.36a.71.71,0,0,0,0-.14c0,.14,0-.06,0-.11a2.17,2.17,0,0,1,.21-.64,1.51,1.51,0,0,1,.52-.39,2,2,0,0,1,1.44-.11.73.73,0,0,1,.25.11.63.63,0,0,1,.21.14s.24.25.17.17l.11.16s.13.25.07.12a1.73,1.73,0,0,1,.11.37c0-.14,0,0,0,0v.19c0-.13,0,0,0,0a1.39,1.39,0,0,1-.06.19c0-.08,0,.06,0,.07a2.26,2.26,0,0,1-.16.26,3.42,3.42,0,0,1-.43.4,5.36,5.36,0,0,1-.84.48,9.53,9.53,0,0,0-1,.45,3.57,3.57,0,0,0-.81.69l-.95,1a.92.92,0,0,0,0,1.27.9.9,0,0,0,1.27,0l1-1a2.08,2.08,0,0,1,.74-.55c.28-.13.66-.28,1-.45,1.39-.73,2.58-2.25,2-3.89a3.35,3.35,0,0,0-3.84-2.08,3.39,3.39,0,0,0-2,1.08,3.74,3.74,0,0,0-.75,2.28c-.06,1.37.2,2.73.13,4.09a.9.9,0,0,0,1.8,0Z"/><path d="M389.71,131.64c0-1.22.14-2.45.14-3.67a4.78,4.78,0,0,0-.39-2.15,3,3,0,0,0-1.85-1.5,3.44,3.44,0,0,0-4.09,1.39,2.8,2.8,0,0,0-.26,2.26,3.75,3.75,0,0,0,1.54,1.92,7.62,7.62,0,0,0,1.06.55,2.9,2.9,0,0,1,.92.49c.4.39.78.81,1.16,1.22a.9.9,0,1,0,1.28-1.27c-.28-.3-.57-.58-.85-.88a4.27,4.27,0,0,0-1.51-1.08,5.49,5.49,0,0,1-1.43-.81,1.5,1.5,0,0,1-.43-.59s-.07-.23-.07-.27c0,.14,0-.35,0-.18a1.5,1.5,0,0,1,2-1.09,1.77,1.77,0,0,1,.63.27,1,1,0,0,1,.36.41,2.3,2.3,0,0,1,.12.43l0,.22c0-.14,0,0,0,0,0,.24,0,.49,0,.74,0,1.19-.19,2.39-.14,3.58a.92.92,0,0,0,.9.9.9.9,0,0,0,.9-.9Z"/><line class="cls-23" x1="374.74" y1="136.52" x2="374.74" y2="130.04"/><path d="M375.78,130.52c.05-1.05-.09-2.12-.13-3.17,0-.24,0-.48,0-.72s0-.24,0-.36,0-.1,0-.15c0,.15,0-.05,0-.1a1.91,1.91,0,0,1,.21-.64,1.29,1.29,0,0,1,.52-.39,2,2,0,0,1,1.44-.11.73.73,0,0,1,.25.11c.13.07.14.07.2.14s.24.25.18.17l.11.16s.12.25.07.12a1.56,1.56,0,0,1,.1.37c0-.14,0,0,0,0a1.28,1.28,0,0,1,0,.19c0-.13,0,0,0,0l-.06.19c0-.09,0,.06,0,.07a2.26,2.26,0,0,1-.16.26,3.28,3.28,0,0,1-.42.4,5,5,0,0,1-.85.48,10.45,10.45,0,0,0-1,.45,3.57,3.57,0,0,0-.81.69l-.95,1a.92.92,0,0,0,0,1.27.9.9,0,0,0,1.27,0l.95-1a2,2,0,0,1,.74-.55c.28-.13.66-.28,1-.45,1.4-.73,2.59-2.25,2-3.89a3.33,3.33,0,0,0-3.84-2.08,3.45,3.45,0,0,0-2,1.08,3.77,3.77,0,0,0-.74,2.28c-.07,1.36.2,2.73.13,4.09a.9.9,0,0,0,1.8,0Z"/><path d="M375.5,130.52c-.06-1.22.14-2.45.14-3.67a4.9,4.9,0,0,0-.39-2.15,3,3,0,0,0-1.85-1.5,3.42,3.42,0,0,0-4.09,1.39,2.81,2.81,0,0,0-.27,2.26,3.74,3.74,0,0,0,1.55,1.91,6,6,0,0,0,1.06.56,3,3,0,0,1,.92.49c.4.39.78.81,1.16,1.22a.9.9,0,0,0,1.27-1.27c-.27-.3-.56-.59-.84-.88a4.27,4.27,0,0,0-1.51-1.08,5.49,5.49,0,0,1-1.43-.81,1.69,1.69,0,0,1-.44-.59s-.06-.23-.07-.27c0,.14,0-.35,0-.18a1.49,1.49,0,0,1,2-1.09,1.74,1.74,0,0,1,.64.27,1,1,0,0,1,.36.41,2.7,2.7,0,0,1,.11.43,1.55,1.55,0,0,1,0,.21c0-.14,0,0,0,0,0,.24,0,.49,0,.73,0,1.2-.2,2.4-.14,3.59a.9.9,0,1,0,1.8,0Z"/><line class="cls-23" x1="403.98" y1="136.52" x2="403.98" y2="130.04"/><path d="M405,125c.05-1.06-.09-2.12-.13-3.18,0-.24,0-.48,0-.72s0-.24,0-.36a.66.66,0,0,1,0-.14c0,.14,0-.06,0-.11a1.85,1.85,0,0,1,.21-.63,1.43,1.43,0,0,1,.52-.4,2,2,0,0,1,1.43-.11.77.77,0,0,1,.26.11,1.07,1.07,0,0,1,.2.14s.24.25.18.17a1.4,1.4,0,0,1,.1.16s.13.25.08.13a1.48,1.48,0,0,1,.1.36c0-.14,0,0,0,0a1.28,1.28,0,0,1,0,.19c0-.12,0,0,0,0l-.06.2c0-.09,0,.06,0,.06a2.26,2.26,0,0,1-.16.26,3.28,3.28,0,0,1-.42.4,5.46,5.46,0,0,1-.85.48,8.54,8.54,0,0,0-1,.45,3.85,3.85,0,0,0-.82.69l-.94,1a.9.9,0,0,0,1.27,1.28c.31-.34.63-.66.95-1a2,2,0,0,1,.73-.55c.28-.13.67-.28,1-.45,1.39-.73,2.59-2.24,2-3.89a3.33,3.33,0,0,0-3.84-2.08,3.42,3.42,0,0,0-2,1.08,3.79,3.79,0,0,0-.74,2.28c-.07,1.37.19,2.73.13,4.1a.9.9,0,1,0,1.8,0Z"/><path d="M404.74,125c-.06-1.23.14-2.46.14-3.68a5,5,0,0,0-.39-2.15,3.07,3.07,0,0,0-1.85-1.5,3.43,3.43,0,0,0-4.09,1.39,2.83,2.83,0,0,0-.27,2.27,3.73,3.73,0,0,0,1.55,1.91,6.65,6.65,0,0,0,1.06.55,2.85,2.85,0,0,1,.91.49c.41.39.79.82,1.17,1.23a.9.9,0,0,0,1.27-1.28l-.84-.88a4.27,4.27,0,0,0-1.51-1.08,5.18,5.18,0,0,1-1.43-.81,1.53,1.53,0,0,1-.44-.59s-.06-.22-.07-.27c0,.14,0-.35,0-.18a1.49,1.49,0,0,1,2-1.09,1.7,1.7,0,0,1,.63.27,1,1,0,0,1,.37.41,3.39,3.39,0,0,1,.11.43c0,.07,0,.14,0,.22,0-.14,0,0,0,0,0,.25,0,.49,0,.74,0,1.19-.2,2.39-.14,3.59a.9.9,0,0,0,1.8,0Z"/><path d="M405,131.64c.05-1-.09-2.12-.13-3.17,0-.24,0-.48,0-.72s0-.24,0-.36a.61.61,0,0,1,0-.14c0,.14,0-.06,0-.11a1.91,1.91,0,0,1,.21-.64,1.51,1.51,0,0,1,.52-.39,2,2,0,0,1,1.43-.11.77.77,0,0,1,.26.11.57.57,0,0,1,.2.14s.24.25.18.17a1.4,1.4,0,0,1,.1.16s.13.25.08.12a1.7,1.7,0,0,1,.1.37c0-.14,0,0,0,0a1.28,1.28,0,0,1,0,.19c0-.13,0,0,0,0l-.06.19c0-.08,0,.06,0,.07a2.26,2.26,0,0,1-.16.26,3.28,3.28,0,0,1-.42.4,5.46,5.46,0,0,1-.85.48,8.54,8.54,0,0,0-1,.45,3.85,3.85,0,0,0-.82.69l-.94,1a.91.91,0,0,0,0,1.27.9.9,0,0,0,1.27,0l.95-1a2,2,0,0,1,.73-.55c.28-.13.67-.28,1-.45,1.39-.73,2.59-2.25,2-3.89a3.33,3.33,0,0,0-3.84-2.08,3.42,3.42,0,0,0-2,1.08,3.79,3.79,0,0,0-.74,2.28c-.07,1.37.19,2.73.13,4.09a.9.9,0,0,0,1.8,0Z"/><path d="M404.74,131.64c-.06-1.22.14-2.45.14-3.67a4.92,4.92,0,0,0-.39-2.15,3.07,3.07,0,0,0-1.85-1.5,3.43,3.43,0,0,0-4.09,1.39,2.81,2.81,0,0,0-.27,2.26,3.72,3.72,0,0,0,1.55,1.92,6.65,6.65,0,0,0,1.06.55,2.85,2.85,0,0,1,.91.49c.41.39.79.81,1.17,1.22a.9.9,0,0,0,1.27,0,.91.91,0,0,0,0-1.27c-.27-.3-.56-.58-.84-.88a4.27,4.27,0,0,0-1.51-1.08,5.18,5.18,0,0,1-1.43-.81,1.53,1.53,0,0,1-.44-.59s-.06-.23-.07-.27c0,.14,0-.35,0-.18a1.49,1.49,0,0,1,2-1.09,1.7,1.7,0,0,1,.63.27,1,1,0,0,1,.37.41,3.39,3.39,0,0,1,.11.43c0,.07,0,.14,0,.22,0-.14,0,0,0,0,0,.24,0,.49,0,.74,0,1.19-.2,2.39-.14,3.58a.9.9,0,0,0,1.8,0Z"/><circle class="cls-24" cx="431.49" cy="188" r="0.62"/><rect class="cls-14" x="324.75" y="109.25" width="3.7" height="4.22" transform="translate(40.02 -80.84) rotate(15.02)"/><rect class="cls-14" x="317.81" y="113.34" width="12.18" height="17.99" transform="translate(42.77 -79.76) rotate(15.02)"/><path class="cls-25" d="M332.53,116.51a1.75,1.75,0,0,0-1.27-2.14l-2.12-.55.18-1.17.53.14a1.18,1.18,0,0,0,1.43-.85l.1-.38a1.18,1.18,0,0,0-.85-1.43l-5-1.29a1.18,1.18,0,0,0-1.4.74l-1,2.69-2.12-.54a1.76,1.76,0,0,0-1.42,3.16l-3,11.54a1.56,1.56,0,0,0-1.51,1.17l-.29,1.14a1.56,1.56,0,0,0,1.12,1.91l10.63,2.74a1.58,1.58,0,0,0,1.91-1.13l.29-1.14a1.57,1.57,0,0,0-.76-1.75l3-11.55a1.76,1.76,0,0,0,1.55-1.31Zm-1.91-5.14-.1.38a.39.39,0,0,1-.48.28l-.6-.16a9.11,9.11,0,0,0,.14-1.17l.76.19A.39.39,0,0,1,330.62,111.37Zm-5.75-1.52a.39.39,0,0,1,.46-.25l3.18.82a.39.39,0,0,1,.29.44l-.42,2.76-4.48-1.15Zm-5.24,3.34a1,1,0,0,1,1.19-.7l10.25,2.64a1,1,0,1,1-.49,1.89l-10.25-2.64A1,1,0,0,1,319.63,113.19Zm7.63,15.93-9.86-2.55,2.93-11.38,9.86,2.54Zm.75,1.81-.29,1.13a.79.79,0,0,1-1,.57l-10.62-2.74a.79.79,0,0,1-.57-.95l.3-1.14a.78.78,0,0,1,.95-.56L327.45,130A.79.79,0,0,1,328,130.93Z"/><path class="cls-17" d="M320.57,125.64l1.38-1.38a2.66,2.66,0,0,0,3.83-.44,4.47,4.47,0,0,0,.88-2.66V119h-2.13a4.48,4.48,0,0,0-2.66.89,2.66,2.66,0,0,0-.44,3.83l-1.38,1.38Zm1-3.6h0a1.94,1.94,0,0,1,.77-1.54,3.7,3.7,0,0,1,2.22-.74h1.4v1.4a3.7,3.7,0,0,1-.74,2.22,1.86,1.86,0,0,1-1.28.75,1.91,1.91,0,0,1-1.44-.39l2-2-.52-.51-2,2a1.92,1.92,0,0,1-.41-1.18Z"/><path class="cls-14" d="M372,165.7l-4-7.25a2.15,2.15,0,0,0-1.89-1.12,2.13,2.13,0,0,0-1.88,1.13l-3.94,7.25a2.18,2.18,0,0,0,0,2.13,2.14,2.14,0,0,0,1.85,1h7.88A2.15,2.15,0,0,0,372,165.7Z"/><path class="cls-26" d="M372,165.7l-4-7.25a2.15,2.15,0,0,0-1.89-1.12,2.13,2.13,0,0,0-1.88,1.13l-3.94,7.25a2.18,2.18,0,0,0,0,2.13,2.14,2.14,0,0,0,1.85,1h7.88A2.15,2.15,0,0,0,372,165.7Zm-.89,1.62a1.11,1.11,0,0,1-1,.57h-7.87a1.13,1.13,0,0,1-1-.57,1.16,1.16,0,0,1,0-1.14l3.92-7.26a1.14,1.14,0,0,1,1-.6,1.15,1.15,0,0,1,1,.6l3.95,7.25a1.15,1.15,0,0,1,0,1.15Z"/><circle cx="366.15" cy="165.84" r="0.9"/><line class="cls-4" x1="366.15" y1="163.44" x2="366.15" y2="161.37"/><path class="cls-27" d="M405.85,169.28a.57.57,0,0,0-.18-.51c-.17-.14-4.2-3.57-8.89-1.91,0,0-2.86,1.12-1.73,5.21l0,.16-1.36.48-.07-.15a6.17,6.17,0,0,0-3.24-3.32.54.54,0,0,0-.69.33.54.54,0,0,0,.34.68,5.16,5.16,0,0,1,2.55,2.64l.09.18-2.16.76-.07-.14a5.58,5.58,0,0,0-2.88-2.93.53.53,0,0,0-.41,0,.49.49,0,0,0-.27.31.53.53,0,0,0,.32.68,4.47,4.47,0,0,1,2.21,2.23l.09.18-2.16.77-.07-.15a5,5,0,0,0-2.53-2.52.56.56,0,0,0-.69.34.54.54,0,0,0,.33.68,3.82,3.82,0,0,1,1.85,1.83l.09.18-1.48.52-.08-.06a7.08,7.08,0,0,0-4.47-1.78,6.09,6.09,0,0,0-2,.36.52.52,0,0,0-.35.38.54.54,0,0,0,.14.5l2.57,2.67-.31,3.63a.51.51,0,0,0,0,.3.55.55,0,0,0,.28.3.53.53,0,0,0,.41,0,6.6,6.6,0,0,0,4.17-5.19l0-.11,1.48-.52,0,.2a3.84,3.84,0,0,1-.29,2.58.55.55,0,0,0,.18.74.59.59,0,0,0,.47,0,.57.57,0,0,0,.28-.23,4.92,4.92,0,0,0,.37-3.55l0-.15,2.15-.77.05.2a4.57,4.57,0,0,1-.31,3.12.54.54,0,0,0,.64.79.52.52,0,0,0,.28-.22A5.61,5.61,0,0,0,391,175l0-.16,2.16-.76.05.19a5.09,5.09,0,0,1-.33,3.66.54.54,0,0,0,.18.74.5.5,0,0,0,.46,0,.53.53,0,0,0,.27-.22,6.16,6.16,0,0,0,.43-4.62l0-.16,1.36-.48.07.15c1.69,3.88,4.6,3,4.62,3C404.8,174.71,405.81,169.5,405.85,169.28Zm-21.69,7.49a5.82,5.82,0,0,1-2.36,3.82l-.31.21.26-3a.5.5,0,0,0-.15-.42l-2.11-2.2.37,0a5.84,5.84,0,0,1,4.24,1.48l0,0,0,.09Zm15.63-1.44a1.54,1.54,0,0,1-.48.07c-.74,0-2.1-.39-3-3-1.26-3.54.65-4.42.87-4.51,3.42-1.21,6.58.8,7.47,1.45l.09.07,0,.12c-.28,1.06-1.48,4.61-4.88,5.82Z"/><line class="cls-28" x1="399.66" y1="169.62" x2="398.49" y2="171.81"/><line class="cls-28" x1="397.97" y1="170.08" x2="400.16" y2="171.25"/><path d="M48.44,208.26H50.2v7.65A4,4,0,0,1,48,219.55a5.76,5.76,0,0,1-4.87,0A4,4,0,0,1,41,215.91v-7.65h1.76v7.51a2.7,2.7,0,0,0,.35,1.4,2.5,2.5,0,0,0,1,1,3.16,3.16,0,0,0,1.52.35,3.2,3.2,0,0,0,1.53-.35,2.5,2.5,0,0,0,1-1,2.8,2.8,0,0,0,.35-1.4Z"/><path d="M53.23,219.89V208.26h1.7v4.32H55a6,6,0,0,1,.43-.63,2.46,2.46,0,0,1,.77-.63,2.74,2.74,0,0,1,1.31-.27,3.4,3.4,0,0,1,1.89.54,3.61,3.61,0,0,1,1.3,1.54,6.34,6.34,0,0,1,0,4.84,3.61,3.61,0,0,1-1.29,1.55,3.29,3.29,0,0,1-1.88.55,2.76,2.76,0,0,1-1.3-.27,2.44,2.44,0,0,1-.79-.63,6.25,6.25,0,0,1-.44-.63h-.14v1.35Zm1.67-4.36a4.42,4.42,0,0,0,.27,1.61,2.33,2.33,0,0,0,.77,1.09,2.17,2.17,0,0,0,2.51,0,2.56,2.56,0,0,0,.78-1.1,4.63,4.63,0,0,0,.26-1.58,4.46,4.46,0,0,0-.26-1.55,2.43,2.43,0,0,0-.77-1.09,2.05,2.05,0,0,0-1.28-.39,2,2,0,0,0-1.25.38,2.29,2.29,0,0,0-.77,1.06A4.53,4.53,0,0,0,54.9,215.53Z"/><path d="M64.36,223.14a3.78,3.78,0,0,1-.7,0,2.48,2.48,0,0,1-.46-.13l.41-1.39a2.13,2.13,0,0,0,1.17,0c.32-.11.58-.45.8-1l.21-.58-3.2-8.84h1.82l2.21,6.77h.09l2.21-6.77h1.84l-3.61,9.88a4.12,4.12,0,0,1-.63,1.14,2.57,2.57,0,0,1-.93.71A2.94,2.94,0,0,1,64.36,223.14ZM66,210l1.33-2.62h1.79L67.32,210Z"/><path d="M80.3,211.17l-3.16,8.72H75.32l-3.17-8.72H74l2.21,6.71h.09l2.21-6.71Z"/><path d="M84.66,220.09a3.59,3.59,0,0,1-1.5-.31,2.53,2.53,0,0,1-1.06-.9,2.6,2.6,0,0,1-.39-1.45,2.37,2.37,0,0,1,.28-1.22,2.05,2.05,0,0,1,.77-.75,3.68,3.68,0,0,1,1.08-.42,9.9,9.9,0,0,1,1.21-.22l1.28-.15a1.73,1.73,0,0,0,.71-.2.46.46,0,0,0,.22-.44v0a1.53,1.53,0,0,0-.42-1.15,1.72,1.72,0,0,0-1.24-.41,2.19,2.19,0,0,0-1.35.38,2.09,2.09,0,0,0-.68.83L82,213.28a3,3,0,0,1,.83-1.29,3.41,3.41,0,0,1,1.26-.71,5,5,0,0,1,1.51-.23,5.57,5.57,0,0,1,1.11.13,3.39,3.39,0,0,1,1.1.44,2.53,2.53,0,0,1,.84.93A3.18,3.18,0,0,1,89,214.1v5.79H87.3V218.7h-.06a2.41,2.41,0,0,1-.5.65,2.69,2.69,0,0,1-.84.53A3.32,3.32,0,0,1,84.66,220.09Zm.37-1.37a2.47,2.47,0,0,0,1.2-.27,2,2,0,0,0,.77-.73,1.87,1.87,0,0,0,.27-1v-1.13a.94.94,0,0,1-.35.17,4.32,4.32,0,0,1-.59.13l-.64.1-.53.07a4,4,0,0,0-.9.21,1.59,1.59,0,0,0-.65.42,1.21,1.21,0,0,0,.23,1.68A2,2,0,0,0,85,218.72ZM85,210l1.33-2.62h1.79L86.32,210Z"/><path d="M93.4,214.71v5.18H91.7v-8.72h1.64v1.42h.1a2.57,2.57,0,0,1,1-1.12,2.92,2.92,0,0,1,1.63-.42,3.16,3.16,0,0,1,1.56.38,2.47,2.47,0,0,1,1,1.1,3.94,3.94,0,0,1,.37,1.81v5.55h-1.7v-5.34a2.13,2.13,0,0,0-.49-1.49,1.76,1.76,0,0,0-1.36-.53,2.09,2.09,0,0,0-1,.25,1.74,1.74,0,0,0-.72.75A2.42,2.42,0,0,0,93.4,214.71Z"/><path d="M101.74,219.89v-8.72h1.7v8.72Zm.16-9.89,1.33-2.62H105L103.26,210Z"/><path d="M42.71,238.89V227.26h1.7v4.32h.1a4.75,4.75,0,0,1,.43-.63,2.35,2.35,0,0,1,.77-.63,2.74,2.74,0,0,1,1.31-.27,3.36,3.36,0,0,1,1.88.54,3.56,3.56,0,0,1,1.31,1.54,5.74,5.74,0,0,1,.47,2.42,5.59,5.59,0,0,1-.47,2.42,3.61,3.61,0,0,1-1.29,1.55,3.29,3.29,0,0,1-1.88.55,2.73,2.73,0,0,1-1.3-.27,2.44,2.44,0,0,1-.79-.63,5,5,0,0,1-.44-.63h-.14v1.35Zm1.67-4.36a4.65,4.65,0,0,0,.26,1.61,2.42,2.42,0,0,0,.78,1.09,2,2,0,0,0,1.23.39,2,2,0,0,0,1.28-.41,2.47,2.47,0,0,0,.77-1.1,4.4,4.4,0,0,0,.27-1.58,4.46,4.46,0,0,0-.26-1.55,2.43,2.43,0,0,0-.77-1.09,2.08,2.08,0,0,0-1.29-.39,2,2,0,0,0-1.24.38,2.29,2.29,0,0,0-.77,1.06A4.31,4.31,0,0,0,44.38,234.53Z"/><path d="M53.92,228.82a1.05,1.05,0,0,1-.75-.3.94.94,0,0,1-.32-.71,1,1,0,0,1,.32-.72,1.1,1.1,0,0,1,1.51,0,1,1,0,0,1,.32.72.94.94,0,0,1-.32.71A1.06,1.06,0,0,1,53.92,228.82Zm-.85,10.07v-8.72h1.7v8.72Z"/><path d="M61.21,239.07a4.08,4.08,0,0,1-2.15-.56,3.82,3.82,0,0,1-1.42-1.58,5.84,5.84,0,0,1,0-4.73,3.76,3.76,0,0,1,1.42-1.58,4.32,4.32,0,0,1,4.29,0,3.76,3.76,0,0,1,1.42,1.58,5.84,5.84,0,0,1,0,4.73,3.82,3.82,0,0,1-1.42,1.58A4.06,4.06,0,0,1,61.21,239.07Zm0-1.43a2,2,0,0,0,1.32-.42,2.49,2.49,0,0,0,.78-1.11,4.87,4.87,0,0,0,0-3.08,2.5,2.5,0,0,0-.78-1.13,2.05,2.05,0,0,0-1.32-.43,2.08,2.08,0,0,0-1.33.43,2.41,2.41,0,0,0-.77,1.13,4.69,4.69,0,0,0,0,3.08,2.4,2.4,0,0,0,.77,1.11A2,2,0,0,0,61.21,237.64Z"/><path d="M71.72,230.17v1.36H67v-1.36Zm-3.49-2.09h1.7v8.25a1.44,1.44,0,0,0,.15.74.73.73,0,0,0,.38.34,1.46,1.46,0,0,0,.52.09,1.83,1.83,0,0,0,.35,0l.24-.05.31,1.41-.42.11a3.16,3.16,0,0,1-.68.07,2.88,2.88,0,0,1-1.25-.24,2.14,2.14,0,0,1-.94-.77,2.28,2.28,0,0,1-.36-1.32Z"/><path d="M77.66,239.07a4,4,0,0,1-2.14-.56,3.76,3.76,0,0,1-1.42-1.58,5.74,5.74,0,0,1,0-4.73,3.7,3.7,0,0,1,1.42-1.58,4.3,4.3,0,0,1,4.28,0,3.7,3.7,0,0,1,1.42,1.58,5.74,5.74,0,0,1,0,4.73,3.76,3.76,0,0,1-1.42,1.58A4,4,0,0,1,77.66,239.07Zm0-1.43a2,2,0,0,0,1.31-.42,2.49,2.49,0,0,0,.78-1.11,4.87,4.87,0,0,0,0-3.08A2.5,2.5,0,0,0,79,231.9a2,2,0,0,0-1.31-.43,2.06,2.06,0,0,0-1.33.43,2.5,2.5,0,0,0-.78,1.13,4.87,4.87,0,0,0,0,3.08,2.49,2.49,0,0,0,.78,1.11A2,2,0,0,0,77.67,237.64Z"/><path d="M84.1,242.17v-12h1.66v1.41h.14a4.75,4.75,0,0,1,.43-.63,2.35,2.35,0,0,1,.77-.63,2.72,2.72,0,0,1,1.31-.27,3.36,3.36,0,0,1,1.88.54,3.56,3.56,0,0,1,1.31,1.54,6.47,6.47,0,0,1,0,4.84,3.7,3.7,0,0,1-1.3,1.55,3.27,3.27,0,0,1-1.88.55,2.69,2.69,0,0,1-1.29-.27,2.44,2.44,0,0,1-.79-.63,5,5,0,0,1-.44-.63h-.1v4.63Zm1.66-7.64a4.42,4.42,0,0,0,.27,1.61,2.48,2.48,0,0,0,.77,1.09,2,2,0,0,0,1.24.39,2,2,0,0,0,1.28-.41,2.55,2.55,0,0,0,.77-1.1,4.4,4.4,0,0,0,.26-1.58A4.46,4.46,0,0,0,90.1,233a2.45,2.45,0,0,0-.78-1.09A2.05,2.05,0,0,0,88,231.5a2,2,0,0,0-1.24.38,2.29,2.29,0,0,0-.77,1.06A4.31,4.31,0,0,0,85.76,234.53Z"/><path d="M100,235.28v-5.11h1.71v8.72H100v-1.51h-.09a2.74,2.74,0,0,1-1,1.17,2.86,2.86,0,0,1-1.64.46,2.92,2.92,0,0,1-1.49-.37,2.6,2.6,0,0,1-1-1.11,4.08,4.08,0,0,1-.37-1.81v-5.55h1.7v5.34a2,2,0,0,0,.5,1.42,1.65,1.65,0,0,0,1.28.53,2.06,2.06,0,0,0,.95-.24,1.88,1.88,0,0,0,.79-.72A2.11,2.11,0,0,0,100,235.28Zm-1.89-6.08a2.07,2.07,0,0,1-1-.25,1.94,1.94,0,0,1-.73-.69,1.77,1.77,0,0,1-.27-1,1.88,1.88,0,0,1,.27-1,2.07,2.07,0,0,1,.73-.71,2,2,0,0,1,1-.27,1.93,1.93,0,0,1,1,.27,2,2,0,0,1,.72.71,1.88,1.88,0,0,1,.27,1,1.77,1.77,0,0,1-.27,1,1.84,1.84,0,0,1-.72.69A2,2,0,0,1,98.09,229.2Zm0-.91a1,1,0,0,0,.73-.31,1,1,0,0,0,.29-.69,1,1,0,0,0-.29-.71,1,1,0,0,0-1.47,0,1,1,0,0,0-.29.71,1,1,0,0,0,.29.7A1,1,0,0,0,98.09,228.29Z"/><path d="M504.15,269.53a1.64,1.64,0,0,0-.75-1.25,2.87,2.87,0,0,0-1.66-.45,3.12,3.12,0,0,0-1.24.22,1.91,1.91,0,0,0-.81.62,1.45,1.45,0,0,0-.29.88,1.29,1.29,0,0,0,.2.72,1.56,1.56,0,0,0,.52.5,3.14,3.14,0,0,0,.69.33,5.23,5.23,0,0,0,.71.22l1.13.3a7.66,7.66,0,0,1,1.15.37,4.42,4.42,0,0,1,1.08.61,3,3,0,0,1,.81.95,2.68,2.68,0,0,1,.31,1.34,3.11,3.11,0,0,1-.51,1.76,3.49,3.49,0,0,1-1.47,1.21,5.63,5.63,0,0,1-2.33.44,5.77,5.77,0,0,1-2.26-.41,3.52,3.52,0,0,1-1.49-1.18,3.43,3.43,0,0,1-.6-1.82h1.76a1.77,1.77,0,0,0,.42,1.05,2.06,2.06,0,0,0,.92.62,3.79,3.79,0,0,0,1.24.2,3.67,3.67,0,0,0,1.33-.23,2.27,2.27,0,0,0,.92-.66,1.6,1.6,0,0,0,.33-1A1.25,1.25,0,0,0,504,274a2.36,2.36,0,0,0-.79-.55,8.13,8.13,0,0,0-1.12-.38l-1.38-.37a5.41,5.41,0,0,1-2.21-1.12,2.53,2.53,0,0,1-.82-2,2.92,2.92,0,0,1,.55-1.75,3.61,3.61,0,0,1,1.48-1.17,5,5,0,0,1,2.1-.42,4.94,4.94,0,0,1,2.09.42,3.46,3.46,0,0,1,1.43,1.14,2.82,2.82,0,0,1,.54,1.66Zm-3.65-6.6,1.17,1.52,1.16-1.52h1.54V263l-2,2.41H501L499,263v-.09Z"/><path d="M508.44,278.11v-8.73h1.7v8.73Zm.16-9.89,1.33-2.62h1.79L510,268.22Z"/><path d="M514,265.84l1.17,1.52,1.17-1.52h1.54v.09l-2,2.4h-1.42l-2-2.4v-.09Zm-1.08,12.27v-8.73h1.65v1.39h.09a2.13,2.13,0,0,1,.84-1.11,2.4,2.4,0,0,1,1.37-.41h.38l.34,0v1.62l-.36-.06a3,3,0,0,0-.52,0,2.31,2.31,0,0,0-1.07.25,2,2,0,0,0-.74.7,1.86,1.86,0,0,0-.28,1v5.33Z"/><path d="M523,278.28a4.25,4.25,0,0,1-2.22-.55,3.75,3.75,0,0,1-1.44-1.56,5.84,5.84,0,0,1,0-4.73,3.75,3.75,0,0,1,3.54-2.17,4.34,4.34,0,0,1,1.43.24,3.44,3.44,0,0,1,1.24.77,3.58,3.58,0,0,1,.87,1.35,5.75,5.75,0,0,1,.32,2v.61h-6.94V273h5.28a2.58,2.58,0,0,0-.28-1.19A2.07,2.07,0,0,0,524,271a2.17,2.17,0,0,0-1.15-.3,2.23,2.23,0,0,0-1.25.35,2.39,2.39,0,0,0-.82.91,2.63,2.63,0,0,0-.28,1.21v1a3.38,3.38,0,0,0,.3,1.49,2.24,2.24,0,0,0,.87.93,2.61,2.61,0,0,0,1.3.32,2.71,2.71,0,0,0,.88-.14,1.74,1.74,0,0,0,.69-.42,1.78,1.78,0,0,0,.44-.68l1.61.29a3,3,0,0,1-.69,1.24,3.28,3.28,0,0,1-1.24.82A4.56,4.56,0,0,1,523,278.28Z"/><path d="M530.79,272.93v5.18h-1.7v-8.73h1.63v1.42h.11a2.49,2.49,0,0,1,.95-1.11,2.91,2.91,0,0,1,1.62-.42,3.17,3.17,0,0,1,1.57.37,2.63,2.63,0,0,1,1,1.1,4.12,4.12,0,0,1,.37,1.82v5.55h-1.7v-5.35a2.09,2.09,0,0,0-.5-1.48,1.75,1.75,0,0,0-1.36-.54,2.08,2.08,0,0,0-1,.25,1.74,1.74,0,0,0-.72.75A2.43,2.43,0,0,0,530.79,272.93Z"/><path d="M539.13,278.11v-8.73h1.7v8.73Zm.16-9.89,1.33-2.62h1.79l-1.76,2.62Z"/><path d="M470.19,291.93v5.18h-1.7v-8.73h1.63v1.42h.11a2.47,2.47,0,0,1,.94-1.11,3,3,0,0,1,1.63-.42,3.1,3.1,0,0,1,1.56.37,2.52,2.52,0,0,1,1,1.1,4,4,0,0,1,.37,1.82v5.55h-1.7v-5.35a2.08,2.08,0,0,0-.49-1.48,1.75,1.75,0,0,0-1.36-.54,2.14,2.14,0,0,0-1.05.25,1.86,1.86,0,0,0-.72.75A2.55,2.55,0,0,0,470.19,291.93Z"/><path d="M482.29,297.28a4.25,4.25,0,0,1-2.22-.55,3.66,3.66,0,0,1-1.43-1.56,5.74,5.74,0,0,1,0-4.73,3.79,3.79,0,0,1,1.41-1.6,3.89,3.89,0,0,1,2.12-.57,4.34,4.34,0,0,1,1.43.24,3.36,3.36,0,0,1,1.24.77,3.58,3.58,0,0,1,.87,1.35,5.53,5.53,0,0,1,.32,2v.61h-6.94V292h5.28a2.46,2.46,0,0,0-.28-1.19,2.07,2.07,0,0,0-.76-.82,2.17,2.17,0,0,0-1.15-.3,2.26,2.26,0,0,0-1.25.35,2.48,2.48,0,0,0-.82.91,2.63,2.63,0,0,0-.28,1.21v1a3.25,3.25,0,0,0,.31,1.49,2.15,2.15,0,0,0,.86.93,2.62,2.62,0,0,0,1.31.32,2.75,2.75,0,0,0,.88-.14,1.77,1.77,0,0,0,.68-.42,1.8,1.8,0,0,0,.45-.68l1.6.29a2.88,2.88,0,0,1-.69,1.24A3.28,3.28,0,0,1,484,297,4.56,4.56,0,0,1,482.29,297.28Z"/><path d="M488.4,300.38v-12h1.66v1.42h.14a4.21,4.21,0,0,1,.43-.64,2.59,2.59,0,0,1,.77-.62,2.74,2.74,0,0,1,1.31-.27,3.5,3.5,0,0,1,1.89.53,3.67,3.67,0,0,1,1.3,1.54,6.47,6.47,0,0,1,0,4.84,3.64,3.64,0,0,1-1.29,1.56,3.36,3.36,0,0,1-1.88.54,2.73,2.73,0,0,1-1.3-.27,2.42,2.42,0,0,1-.79-.62,5.32,5.32,0,0,1-.44-.64h-.1v4.63Zm1.67-7.64a4.43,4.43,0,0,0,.27,1.62,2.35,2.35,0,0,0,.77,1.08,2,2,0,0,0,1.24.39,2,2,0,0,0,1.27-.41,2.56,2.56,0,0,0,.78-1.1,4.59,4.59,0,0,0,.26-1.58,4.46,4.46,0,0,0-.26-1.55,2.35,2.35,0,0,0-.77-1.08,2,2,0,0,0-1.28-.4,2,2,0,0,0-1.25.38,2.29,2.29,0,0,0-.77,1.06A4.35,4.35,0,0,0,490.07,292.74Z"/><path d="M504.29,293.49v-5.11H506v8.73h-1.67V295.6h-.09a2.75,2.75,0,0,1-1,1.16,2.79,2.79,0,0,1-1.65.46,2.88,2.88,0,0,1-1.48-.37,2.54,2.54,0,0,1-1-1.11,3.92,3.92,0,0,1-.37-1.81v-5.55h1.7v5.35a2,2,0,0,0,.49,1.42,1.7,1.7,0,0,0,1.29.53,2.12,2.12,0,0,0,.95-.24,2.09,2.09,0,0,0,.79-.72A2.25,2.25,0,0,0,504.29,293.49Zm-1.9-6.08a2.09,2.09,0,0,1-1-.25,1.91,1.91,0,0,1-.73-.68,1.79,1.79,0,0,1-.27-1,1.83,1.83,0,0,1,.27-1,2,2,0,0,1,1.76-1,2,2,0,0,1,1,.26,2.07,2.07,0,0,1,.72.72,1.83,1.83,0,0,1,.27,1,1.79,1.79,0,0,1-.27,1,2,2,0,0,1-.72.68A2.08,2.08,0,0,1,502.39,287.41Zm0-.9a1,1,0,0,0,.73-.31,1,1,0,0,0,.29-.69,1,1,0,0,0-.29-.72.93.93,0,0,0-.73-.31,1,1,0,0,0-.74.31,1,1,0,0,0-.28.72,1,1,0,0,0,1,1Z"/><path d="M516.22,288.38l-3.17,8.73h-1.82l-3.17-8.73h1.83l2.21,6.72h.09l2.2-6.72Z"/><path d="M521.66,297.28a4,4,0,0,1-2.14-.56,3.8,3.8,0,0,1-1.42-1.57,5.76,5.76,0,0,1,0-4.74,3.76,3.76,0,0,1,1.42-1.58,4.37,4.37,0,0,1,4.28,0,3.7,3.7,0,0,1,1.42,1.58,5.76,5.76,0,0,1,0,4.74,3.73,3.73,0,0,1-1.42,1.57A4,4,0,0,1,521.66,297.28Zm0-1.42a2,2,0,0,0,1.31-.42,2.52,2.52,0,0,0,.78-1.12,4.87,4.87,0,0,0,0-3.08,2.56,2.56,0,0,0-.78-1.13,2,2,0,0,0-1.31-.42,2.06,2.06,0,0,0-1.33.42,2.56,2.56,0,0,0-.78,1.13,4.87,4.87,0,0,0,0,3.08,2.52,2.52,0,0,0,.78,1.12A2.06,2.06,0,0,0,521.67,295.86Z"/><path d="M531.37,297.28a3.4,3.4,0,0,1-1.89-.54,3.64,3.64,0,0,1-1.29-1.56,6.47,6.47,0,0,1,0-4.84,3.69,3.69,0,0,1,1.31-1.54,3.44,3.44,0,0,1,1.88-.53,2.74,2.74,0,0,1,1.31.27,2.46,2.46,0,0,1,.77.62,4.21,4.21,0,0,1,.43.64h.1v-4.33h1.7v11.64H534v-1.36h-.14a4.36,4.36,0,0,1-.44.64,2.42,2.42,0,0,1-.79.62A2.69,2.69,0,0,1,531.37,297.28Zm.37-1.45a2,2,0,0,0,1.24-.39,2.44,2.44,0,0,0,.78-1.08,4.66,4.66,0,0,0,.26-1.62,4.35,4.35,0,0,0-.26-1.59,2.29,2.29,0,0,0-.77-1.06,2,2,0,0,0-1.25-.38,2,2,0,0,0-1.27.4,2.37,2.37,0,0,0-.78,1.08,4.46,4.46,0,0,0-.25,1.55,4.37,4.37,0,0,0,.26,1.58,2.47,2.47,0,0,0,.77,1.1A2,2,0,0,0,531.74,295.83Z"/><path d="M540.29,291.93v5.18h-1.7v-8.73h1.63v1.42h.11a2.49,2.49,0,0,1,.95-1.11,2.91,2.91,0,0,1,1.62-.42,3.17,3.17,0,0,1,1.57.37,2.63,2.63,0,0,1,1,1.1,4.12,4.12,0,0,1,.37,1.82v5.55h-1.7v-5.35a2.09,2.09,0,0,0-.5-1.48,1.74,1.74,0,0,0-1.35-.54,2.09,2.09,0,0,0-1.05.25,1.74,1.74,0,0,0-.72.75A2.43,2.43,0,0,0,540.29,291.93Z"/><path d="M548.63,297.11v-8.73h1.7v8.73Zm.16-9.89,1.33-2.62h1.79l-1.76,2.62Z"/><path d="M556.77,297.28a4,4,0,0,1-2.18-.57,3.83,3.83,0,0,1-1.4-1.6,5.22,5.22,0,0,1-.49-2.33,5.34,5.34,0,0,1,.5-2.35,3.76,3.76,0,0,1,1.41-1.59,4,4,0,0,1,2.14-.57,4.15,4.15,0,0,1,1.77.36,3.28,3.28,0,0,1,1.26,1,3.09,3.09,0,0,1,.57,1.54H558.7a2,2,0,0,0-.62-1.06,1.89,1.89,0,0,0-1.3-.44,2.09,2.09,0,0,0-1.24.37,2.41,2.41,0,0,0-.83,1.06,4.73,4.73,0,0,0,0,3.26,2.44,2.44,0,0,0,.82,1.08,2.24,2.24,0,0,0,2.13.2,1.76,1.76,0,0,0,.66-.52,1.92,1.92,0,0,0,.38-.8h1.65a3.21,3.21,0,0,1-.55,1.51,3.06,3.06,0,0,1-1.23,1A3.91,3.91,0,0,1,556.77,297.28Z"/><path d="M564.36,291.93v5.18h-1.7V285.47h1.67v4.33h.11a2.57,2.57,0,0,1,.94-1.12,2.93,2.93,0,0,1,1.65-.41,3.17,3.17,0,0,1,1.57.37,2.42,2.42,0,0,1,1,1.1,3.93,3.93,0,0,1,.38,1.82v5.55h-1.7v-5.35a2.1,2.1,0,0,0-.5-1.49,1.8,1.8,0,0,0-1.37-.53,2.26,2.26,0,0,0-1.08.25,1.84,1.84,0,0,0-.74.75A2.43,2.43,0,0,0,564.36,291.93Z"/><path d="M500.29,316.28a3.34,3.34,0,0,1-1.88-.54,3.59,3.59,0,0,1-1.3-1.56,5.74,5.74,0,0,1-.47-2.42,5.59,5.59,0,0,1,.48-2.42,3.6,3.6,0,0,1,1.3-1.54,3.44,3.44,0,0,1,1.88-.53,2.74,2.74,0,0,1,1.31.27,2.46,2.46,0,0,1,.77.62,4.21,4.21,0,0,1,.43.64h.1v-4.33h1.7v11.64H503v-1.36h-.14a4.36,4.36,0,0,1-.44.64,2.42,2.42,0,0,1-.79.62A2.69,2.69,0,0,1,500.29,316.28Zm.37-1.45a2,2,0,0,0,1.25-.39,2.5,2.5,0,0,0,.77-1.08,4.66,4.66,0,0,0,.26-1.62,4.35,4.35,0,0,0-.26-1.59,2.29,2.29,0,0,0-.77-1.06,2,2,0,0,0-1.25-.38,2,2,0,0,0-1.27.4,2.35,2.35,0,0,0-.77,1.08,4.24,4.24,0,0,0-.26,1.55,4.37,4.37,0,0,0,.26,1.58,2.41,2.41,0,0,0,.78,1.1A2,2,0,0,0,500.66,314.83Z"/><path d="M507.51,316.11v-8.73h1.65v1.39h.09a2.13,2.13,0,0,1,.84-1.11,2.4,2.4,0,0,1,1.37-.41h.38l.34,0v1.62l-.36-.06a3,3,0,0,0-.52,0,2.31,2.31,0,0,0-1.07.25,2,2,0,0,0-.75.7,1.94,1.94,0,0,0-.27,1v5.33Z"/><path d="M519.67,312.49v-5.11h1.7v8.73H519.7V314.6h-.09a2.75,2.75,0,0,1-1,1.16,2.78,2.78,0,0,1-1.64.46,2.89,2.89,0,0,1-1.49-.37,2.54,2.54,0,0,1-1-1.11,3.92,3.92,0,0,1-.37-1.81v-5.55h1.7v5.35a2,2,0,0,0,.49,1.42,1.7,1.7,0,0,0,1.29.53,2.09,2.09,0,0,0,1-.24,2,2,0,0,0,.79-.72A2.25,2.25,0,0,0,519.67,312.49Z"/><path d="M525.83,310.93v5.18h-1.7V304.47h1.68v4.33h.11a2.49,2.49,0,0,1,.93-1.12,2.93,2.93,0,0,1,1.65-.41,3.17,3.17,0,0,1,1.57.37,2.49,2.49,0,0,1,1,1.1,3.93,3.93,0,0,1,.37,1.82v5.55h-1.7v-5.35a2.09,2.09,0,0,0-.49-1.49,1.81,1.81,0,0,0-1.38-.53,2.2,2.2,0,0,0-1.07.25,1.81,1.81,0,0,0-.75.75A2.43,2.43,0,0,0,525.83,310.93Z"/><path d="M539.77,312.49v-5.11h1.71v8.73h-1.67V314.6h-.1a2.75,2.75,0,0,1-1,1.16,2.78,2.78,0,0,1-1.64.46,2.92,2.92,0,0,1-1.49-.37,2.54,2.54,0,0,1-1-1.11,4,4,0,0,1-.37-1.81v-5.55h1.7v5.35a2,2,0,0,0,.5,1.42,1.67,1.67,0,0,0,1.28.53,2.06,2.06,0,0,0,.95-.24,2,2,0,0,0,.79-.72A2.25,2.25,0,0,0,539.77,312.49Zm-1.9-6.08a2,2,0,0,1-1-.25,1.91,1.91,0,0,1-.73-.68,1.79,1.79,0,0,1-.27-1,1.83,1.83,0,0,1,.27-1,2,2,0,0,1,.73-.72,2.13,2.13,0,0,1,2,0,2.07,2.07,0,0,1,.72.72,1.83,1.83,0,0,1,.27,1,1.79,1.79,0,0,1-.27,1,2,2,0,0,1-.72.68A2,2,0,0,1,537.87,306.41Zm0-.9a1,1,0,0,0,.74-.31,1,1,0,0,0,.29-.69,1,1,0,0,0-.29-.72,1,1,0,0,0-.74-.31.93.93,0,0,0-.73.31,1,1,0,0,0-.29.72,1,1,0,0,0,.29.69A1,1,0,0,0,537.87,305.51Z"/><path d="M628,219.89V208.26h1.76v5.55h.14l4.88-5.55H637l-4.69,5.24,4.71,6.39h-2.12l-3.76-5.19-1.37,1.58v3.61Z"/><path d="M640.64,208.26v11.63h-1.7V208.26Z"/><path d="M644.27,209.82a1.06,1.06,0,0,1-.76-.3.94.94,0,0,1-.32-.71,1,1,0,0,1,.32-.72,1.1,1.1,0,0,1,1.51,0,1,1,0,0,1,.32.72.94.94,0,0,1-.32.71A1.05,1.05,0,0,1,644.27,209.82Zm-.86,10.07v-8.72h1.7v8.72Z"/><path d="M647.87,219.89v-8.72h1.63v1.42h.11a2.28,2.28,0,0,1,.89-1.13,2.65,2.65,0,0,1,1.48-.41,2.52,2.52,0,0,1,1.47.41,2.42,2.42,0,0,1,.88,1.13h.09a2.46,2.46,0,0,1,1-1.12,3,3,0,0,1,1.62-.42,2.63,2.63,0,0,1,1.94.75,3,3,0,0,1,.75,2.24v5.85H658V214.2a1.56,1.56,0,0,0-.48-1.28,1.71,1.71,0,0,0-1.15-.4,1.66,1.66,0,0,0-1.29.51,1.85,1.85,0,0,0-.46,1.3v5.56H653v-5.8a1.51,1.51,0,0,0-.45-1.14,1.56,1.56,0,0,0-1.15-.43,1.64,1.64,0,0,0-.89.25,1.9,1.9,0,0,0-.65.7,2.08,2.08,0,0,0-.25,1v5.38Z"/><path d="M665,220.09a3.59,3.59,0,0,1-1.5-.31,2.53,2.53,0,0,1-1.06-.9,2.6,2.6,0,0,1-.39-1.45,2.37,2.37,0,0,1,.28-1.22,2.05,2.05,0,0,1,.77-.75,3.68,3.68,0,0,1,1.08-.42,9.9,9.9,0,0,1,1.21-.22l1.28-.15a1.9,1.9,0,0,0,.71-.2.48.48,0,0,0,.22-.44v0a1.53,1.53,0,0,0-.42-1.15,1.67,1.67,0,0,0-1.24-.41,2.19,2.19,0,0,0-1.35.38,2.09,2.09,0,0,0-.68.83l-1.6-.36a3.08,3.08,0,0,1,.84-1.29,3.41,3.41,0,0,1,1.26-.71,5,5,0,0,1,1.51-.23,4.92,4.92,0,0,1,1.11.13,3.39,3.39,0,0,1,1.1.44,2.53,2.53,0,0,1,.84.93,3.18,3.18,0,0,1,.33,1.55v5.79h-1.66V218.7h-.06a2.41,2.41,0,0,1-.5.65,2.69,2.69,0,0,1-.84.53A3.32,3.32,0,0,1,665,220.09Zm.37-1.37a2.5,2.5,0,0,0,1.2-.27,2,2,0,0,0,.77-.73,1.88,1.88,0,0,0,.26-1v-1.13a.8.8,0,0,1-.35.17,3.86,3.86,0,0,1-.58.13l-.65.1-.52.07a4,4,0,0,0-.9.21,1.59,1.59,0,0,0-.65.42,1.21,1.21,0,0,0,.23,1.68A2,2,0,0,0,665.4,218.72Z"/><path d="M676.15,211.17v1.36h-4.77v-1.36Zm-3.49-2.09h1.7v8.25a1.44,1.44,0,0,0,.15.74.7.7,0,0,0,.38.34,1.44,1.44,0,0,0,.51.09,1.86,1.86,0,0,0,.36,0l.24-.05.31,1.41-.42.11a4.09,4.09,0,0,1-.69.07,2.93,2.93,0,0,1-1.25-.24A2.17,2.17,0,0,1,673,219a2.28,2.28,0,0,1-.36-1.32Z"/><path d="M679.36,209.82a1.06,1.06,0,0,1-.76-.3.93.93,0,0,1-.31-.71,1,1,0,0,1,.31-.72,1.11,1.11,0,0,1,1.52,0,1,1,0,0,1,.32.72.94.94,0,0,1-.32.71A1.06,1.06,0,0,1,679.36,209.82Zm-.86,10.07v-8.72h1.7v8.72Z"/><path d="M686.64,220.07a4,4,0,0,1-2.18-.58,3.74,3.74,0,0,1-1.4-1.59,5.39,5.39,0,0,1-.49-2.33,5.31,5.31,0,0,1,.5-2.35,3.9,3.9,0,0,1,1.41-1.59,4,4,0,0,1,2.14-.58,4.19,4.19,0,0,1,1.78.37,3.19,3.19,0,0,1,1.26,1,3.09,3.09,0,0,1,.57,1.54h-1.66a1.93,1.93,0,0,0-.62-1.06,1.83,1.83,0,0,0-1.3-.44,2.11,2.11,0,0,0-1.24.37,2.42,2.42,0,0,0-.82,1,4,4,0,0,0-.3,1.62,4.31,4.31,0,0,0,.29,1.65,2.42,2.42,0,0,0,.82,1.07,2,2,0,0,0,1.25.38,2.07,2.07,0,0,0,.88-.18,1.76,1.76,0,0,0,.67-.51,1.89,1.89,0,0,0,.37-.81h1.66a3.24,3.24,0,0,1-.55,1.51,3.14,3.14,0,0,1-1.23,1.05A4.12,4.12,0,0,1,686.64,220.07Z"/><path d="M692.53,219.89V208.26h1.7v11.63Zm1.56-3v-2.07h.3l3.47-3.69h2l-4,4.2h-.26Zm3.95,3-3.12-4.14,1.17-1.19,4,5.33Z"/><path d="M704.45,220.09a3.66,3.66,0,0,1-1.5-.31,2.5,2.5,0,0,1-1.05-.9,2.6,2.6,0,0,1-.39-1.45,2.37,2.37,0,0,1,.28-1.22,2,2,0,0,1,.77-.75,3.68,3.68,0,0,1,1.08-.42,9.56,9.56,0,0,1,1.21-.22l1.28-.15a1.9,1.9,0,0,0,.71-.2.48.48,0,0,0,.22-.44v0a1.53,1.53,0,0,0-.42-1.15,1.67,1.67,0,0,0-1.24-.41,2.19,2.19,0,0,0-1.35.38,2,2,0,0,0-.68.83l-1.6-.36a3.17,3.17,0,0,1,.83-1.29,3.53,3.53,0,0,1,1.27-.71,5,5,0,0,1,2.62-.1,3.39,3.39,0,0,1,1.1.44,2.53,2.53,0,0,1,.84.93,3.18,3.18,0,0,1,.33,1.55v5.79H707.1V218.7H707a2.36,2.36,0,0,1-.49.65,2.63,2.63,0,0,1-.85.53A3.25,3.25,0,0,1,704.45,220.09Zm.37-1.37a2.52,2.52,0,0,0,1.21-.27,2,2,0,0,0,.77-.73,1.88,1.88,0,0,0,.26-1v-1.13a.8.8,0,0,1-.35.17,3.86,3.86,0,0,1-.58.13l-.65.1-.52.07a4,4,0,0,0-.9.21,1.59,1.59,0,0,0-.65.42,1.21,1.21,0,0,0,.23,1.68A2,2,0,0,0,704.82,218.72Zm-.06-8.72,1.33-2.62h1.79L706.12,210Z"/><path d="M642.78,238.89v-1.16l4.72-6v-.08h-4.57v-1.47h6.69v1.24l-4.54,5.93v.08h4.7v1.47Z"/><path d="M652.26,238.89v-8.72h1.63v1.42H654a2.28,2.28,0,0,1,.89-1.13,2.68,2.68,0,0,1,1.49-.41,2.51,2.51,0,0,1,1.46.41,2.42,2.42,0,0,1,.88,1.13h.09a2.46,2.46,0,0,1,1-1.12,3,3,0,0,1,1.62-.42,2.63,2.63,0,0,1,1.94.75,3,3,0,0,1,.76,2.24v5.85h-1.7V233.2a1.53,1.53,0,0,0-.49-1.28,1.71,1.71,0,0,0-1.15-.4,1.66,1.66,0,0,0-1.29.51,1.85,1.85,0,0,0-.46,1.3v5.56h-1.69v-5.8a1.51,1.51,0,0,0-.45-1.14,1.56,1.56,0,0,0-1.15-.43,1.64,1.64,0,0,0-.89.25,1.9,1.9,0,0,0-.65.7,2.08,2.08,0,0,0-.25,1v5.38Z"/><path d="M670.64,239.07a4.25,4.25,0,0,1-2.22-.55A3.63,3.63,0,0,1,667,237a5.16,5.16,0,0,1-.5-2.36,5.26,5.26,0,0,1,.5-2.37,3.76,3.76,0,0,1,1.41-1.59,3.89,3.89,0,0,1,2.12-.58,4.35,4.35,0,0,1,1.43.25,3.59,3.59,0,0,1,1.25.76,3.73,3.73,0,0,1,.86,1.36,5.49,5.49,0,0,1,.32,2v.6h-6.93v-1.27h5.27a2.54,2.54,0,0,0-.27-1.19,2.1,2.1,0,0,0-.77-.82,2.38,2.38,0,0,0-2.4.05,2.3,2.3,0,0,0-.81.91,2.49,2.49,0,0,0-.29,1.21v1a3.22,3.22,0,0,0,.31,1.49,2.18,2.18,0,0,0,.86.94,2.65,2.65,0,0,0,1.31.32,2.75,2.75,0,0,0,.88-.14,1.86,1.86,0,0,0,1.13-1.11l1.61.29a2.87,2.87,0,0,1-.69,1.24,3.42,3.42,0,0,1-1.25.83A4.73,4.73,0,0,1,670.64,239.07Zm-1.35-12.44,1.17,1.52,1.16-1.52h1.54v.08l-2,2.41h-1.41l-2-2.41v-.08Z"/><path d="M678.45,233.71v5.18h-1.69v-8.72h1.63v1.42h.1a2.52,2.52,0,0,1,1-1.12,2.92,2.92,0,0,1,1.63-.42,3.16,3.16,0,0,1,1.56.38,2.47,2.47,0,0,1,1,1.1,3.94,3.94,0,0,1,.37,1.81v5.55h-1.7v-5.34a2.13,2.13,0,0,0-.49-1.49,1.76,1.76,0,0,0-1.36-.53,2.14,2.14,0,0,0-1,.25,1.86,1.86,0,0,0-.72.75A2.42,2.42,0,0,0,678.45,233.71Z"/><path d="M689.33,239.09a3.66,3.66,0,0,1-1.5-.31,2.53,2.53,0,0,1-1.06-.9,2.6,2.6,0,0,1-.39-1.45,2.37,2.37,0,0,1,.29-1.22,2,2,0,0,1,.76-.75,3.91,3.91,0,0,1,1.08-.42,10.06,10.06,0,0,1,1.22-.22l1.27-.15a1.84,1.84,0,0,0,.71-.2.46.46,0,0,0,.22-.44v0a1.57,1.57,0,0,0-.41-1.15,1.7,1.7,0,0,0-1.25-.41,2.14,2.14,0,0,0-1.34.38,2,2,0,0,0-.68.83l-1.6-.36a3.17,3.17,0,0,1,.83-1.29,3.53,3.53,0,0,1,1.27-.71,4.92,4.92,0,0,1,2.61-.1,3.44,3.44,0,0,1,1.11.44,2.53,2.53,0,0,1,.84.93,3.18,3.18,0,0,1,.33,1.55v5.79H692V237.7h-.07a2.36,2.36,0,0,1-.49.65,2.74,2.74,0,0,1-.85.53A3.28,3.28,0,0,1,689.33,239.09Zm.37-1.37a2.54,2.54,0,0,0,1.21-.27,2.08,2.08,0,0,0,.77-.73,2,2,0,0,0,.26-1v-1.13a.87.87,0,0,1-.35.17,4,4,0,0,1-.59.13l-.64.1-.52.07a4,4,0,0,0-.9.21,1.59,1.59,0,0,0-.65.42,1.22,1.22,0,0,0,.22,1.68A2,2,0,0,0,689.7,237.72Z"/><path d="M190.45,265v11.64h-1.61l-5.92-8.54h-.11v8.54h-1.75V265h1.62l5.92,8.54h.11V265Z"/><path d="M195.89,276.81a3.5,3.5,0,0,1-1.5-.31,2.53,2.53,0,0,1-1.06-.9,2.6,2.6,0,0,1-.39-1.45,2.37,2.37,0,0,1,.29-1.22,2.1,2.1,0,0,1,.76-.75,3.91,3.91,0,0,1,1.08-.42,10.06,10.06,0,0,1,1.22-.22l1.27-.15a1.68,1.68,0,0,0,.71-.2.46.46,0,0,0,.22-.44v0a1.57,1.57,0,0,0-.41-1.15,1.74,1.74,0,0,0-1.25-.41,2.19,2.19,0,0,0-1.35.38,2,2,0,0,0-.67.84l-1.6-.37a3.06,3.06,0,0,1,.83-1.28,3.41,3.41,0,0,1,1.27-.72,4.92,4.92,0,0,1,2.61-.1,3.39,3.39,0,0,1,1.1.44,2.47,2.47,0,0,1,.85.93,3.18,3.18,0,0,1,.33,1.55v5.8h-1.66v-1.2h-.07a2.36,2.36,0,0,1-.49.65,2.74,2.74,0,0,1-.85.53A3.28,3.28,0,0,1,195.89,276.81Zm.37-1.37a2.54,2.54,0,0,0,1.21-.27,2,2,0,0,0,.76-.73,1.87,1.87,0,0,0,.27-1v-1.13a.87.87,0,0,1-.35.17,5.91,5.91,0,0,1-.59.13l-.64.1-.52.07a4,4,0,0,0-.9.21,1.59,1.59,0,0,0-.65.42,1.09,1.09,0,0,0-.24.73,1.07,1.07,0,0,0,.46.95A2,2,0,0,0,196.26,275.44Z"/><path d="M206.21,276.79a3.38,3.38,0,0,1-1.89-.55,3.61,3.61,0,0,1-1.29-1.55,6.47,6.47,0,0,1,0-4.84,3.56,3.56,0,0,1,1.31-1.54,3.36,3.36,0,0,1,1.88-.54,2.74,2.74,0,0,1,1.31.27,2.35,2.35,0,0,1,.77.63,6,6,0,0,1,.43.63h.1V265h1.7v11.64h-1.66v-1.36h-.14a5,5,0,0,1-.44.63,2.44,2.44,0,0,1-.79.63A2.69,2.69,0,0,1,206.21,276.79Zm.37-1.45a2,2,0,0,0,1.24-.39,2.44,2.44,0,0,0,.78-1.08,4.7,4.7,0,0,0,.26-1.62,4.57,4.57,0,0,0-.26-1.59,2.36,2.36,0,0,0-.77-1.06,2.25,2.25,0,0,0-2.53,0,2.42,2.42,0,0,0-.77,1.08,4.46,4.46,0,0,0-.26,1.55,4.36,4.36,0,0,0,.27,1.58,2.47,2.47,0,0,0,.77,1.1A2,2,0,0,0,206.58,275.34Z"/><path d="M213.43,276.62v-8.73h1.63v1.42h.11a2.28,2.28,0,0,1,.89-1.13,2.65,2.65,0,0,1,1.48-.41,2.52,2.52,0,0,1,1.47.41,2.42,2.42,0,0,1,.88,1.13H220a2.46,2.46,0,0,1,1-1.12,3,3,0,0,1,1.62-.42,2.63,2.63,0,0,1,1.94.75,3,3,0,0,1,.75,2.24v5.86H223.6v-5.7a1.57,1.57,0,0,0-.49-1.28,1.71,1.71,0,0,0-1.15-.4,1.66,1.66,0,0,0-1.29.51,1.85,1.85,0,0,0-.46,1.3v5.57h-1.69v-5.81a1.51,1.51,0,0,0-.45-1.14,1.56,1.56,0,0,0-1.15-.43,1.64,1.64,0,0,0-.89.25,1.9,1.9,0,0,0-.65.7,2.08,2.08,0,0,0-.25,1v5.39Z"/><path d="M231.81,276.79a4.25,4.25,0,0,1-2.22-.55,3.66,3.66,0,0,1-1.43-1.56,5.76,5.76,0,0,1,0-4.74,3.76,3.76,0,0,1,1.41-1.59,3.89,3.89,0,0,1,2.12-.58,4.35,4.35,0,0,1,1.43.25,3.36,3.36,0,0,1,1.24.77,3.5,3.5,0,0,1,.87,1.35,5.53,5.53,0,0,1,.32,2v.6h-6.94v-1.27h5.28a2.43,2.43,0,0,0-.28-1.19,2,2,0,0,0-.76-.82,2.38,2.38,0,0,0-2.4,0,2.3,2.3,0,0,0-.81.91,2.49,2.49,0,0,0-.29,1.21v1a3.22,3.22,0,0,0,.31,1.49,2.18,2.18,0,0,0,.86.94,2.65,2.65,0,0,0,1.31.32,2.75,2.75,0,0,0,.88-.14,1.86,1.86,0,0,0,1.13-1.11l1.6.29a2.76,2.76,0,0,1-.69,1.25,3.4,3.4,0,0,1-1.24.82A4.77,4.77,0,0,1,231.81,276.79Zm-1.35-12.44,1.17,1.52,1.16-1.52h1.54v.08l-2,2.41h-1.41l-2-2.41v-.08Z"/><path d="M237.92,276.62v-8.73h1.65v1.38h.09a2.17,2.17,0,0,1,.84-1.11,2.4,2.4,0,0,1,1.37-.4h.38l.35,0v1.62l-.37-.06a3,3,0,0,0-.52,0,2.2,2.2,0,0,0-1.07.25,1.92,1.92,0,0,0-.74.7,1.86,1.86,0,0,0-.28,1v5.33Z"/><path d="M246.25,271.43v5.19h-1.7v-8.73h1.63v1.42h.11a2.52,2.52,0,0,1,1-1.12,2.91,2.91,0,0,1,1.62-.42,3.17,3.17,0,0,1,1.57.38,2.52,2.52,0,0,1,1,1.1,4.08,4.08,0,0,1,.37,1.81v5.56h-1.7v-5.35a2.13,2.13,0,0,0-.5-1.49,1.77,1.77,0,0,0-1.35-.53,2.09,2.09,0,0,0-1,.25,1.74,1.74,0,0,0-.72.75A2.42,2.42,0,0,0,246.25,271.43Z"/><path d="M257.13,276.81a3.5,3.5,0,0,1-1.5-.31,2.53,2.53,0,0,1-1.06-.9,2.6,2.6,0,0,1-.39-1.45,2.37,2.37,0,0,1,.28-1.22,2.13,2.13,0,0,1,.77-.75,3.68,3.68,0,0,1,1.08-.42,9.72,9.72,0,0,1,1.22-.22l1.27-.15a1.73,1.73,0,0,0,.71-.2.46.46,0,0,0,.22-.44v0a1.53,1.53,0,0,0-.42-1.15,1.72,1.72,0,0,0-1.24-.41,2.19,2.19,0,0,0-1.35.38,2.13,2.13,0,0,0-.68.84l-1.59-.37a3,3,0,0,1,.83-1.28,3.45,3.45,0,0,1,1.26-.72,5,5,0,0,1,1.51-.23,4.92,4.92,0,0,1,1.11.13,3.39,3.39,0,0,1,1.1.44,2.56,2.56,0,0,1,.85.93,3.18,3.18,0,0,1,.33,1.55v5.8h-1.66v-1.2h-.07a2.41,2.41,0,0,1-.5.65,2.69,2.69,0,0,1-.84.53A3.32,3.32,0,0,1,257.13,276.81Zm.37-1.37a2.54,2.54,0,0,0,1.21-.27,2,2,0,0,0,.76-.73,1.87,1.87,0,0,0,.27-1v-1.13a.87.87,0,0,1-.35.17c-.18.05-.37.09-.59.13l-.64.1-.53.07a4.09,4.09,0,0,0-.9.21,1.56,1.56,0,0,0-.64.42,1.09,1.09,0,0,0-.25.73,1.08,1.08,0,0,0,.47.95A2,2,0,0,0,257.5,275.44Zm-.06-8.72,1.33-2.62h1.79l-1.77,2.62Z"/><path d="M181.83,295.79a4.25,4.25,0,0,1-2.22-.55,3.73,3.73,0,0,1-1.43-1.56,5.87,5.87,0,0,1,0-4.74,3.79,3.79,0,0,1,3.53-2.17,4.35,4.35,0,0,1,1.43.25,3.39,3.39,0,0,1,1.25.77,3.5,3.5,0,0,1,.87,1.35,5.75,5.75,0,0,1,.32,2v.6h-6.94v-1.27h5.27a2.54,2.54,0,0,0-.27-1.19,2,2,0,0,0-.77-.82,2.36,2.36,0,0,0-2.39,0,2.25,2.25,0,0,0-.82.91,2.6,2.6,0,0,0-.29,1.21v1a3.22,3.22,0,0,0,.31,1.49,2.26,2.26,0,0,0,.87.94,2.58,2.58,0,0,0,1.3.32,2.75,2.75,0,0,0,.88-.14,1.89,1.89,0,0,0,.69-.42,1.74,1.74,0,0,0,.44-.69l1.61.29a3,3,0,0,1-.69,1.25,3.44,3.44,0,0,1-1.25.82A4.69,4.69,0,0,1,181.83,295.79Z"/><path d="M189.09,286.89l1.93,3.4,1.94-3.4h1.86l-2.72,4.36,2.74,4.37H193l-2-3.27-2,3.27h-1.87l2.72-4.37-2.68-4.36Z"/><path d="M197.05,298.89v-12h1.66v1.41h.14a5.7,5.7,0,0,1,.42-.63,2.51,2.51,0,0,1,.78-.63,2.7,2.7,0,0,1,1.3-.27,3.37,3.37,0,0,1,1.89.54,3.63,3.63,0,0,1,1.31,1.54,6.47,6.47,0,0,1,0,4.84,3.7,3.7,0,0,1-1.3,1.55,3.35,3.35,0,0,1-1.88.55,2.76,2.76,0,0,1-1.3-.27,2.51,2.51,0,0,1-.78-.63,5,5,0,0,1-.44-.63h-.1v4.63Zm1.66-7.64a4.47,4.47,0,0,0,.27,1.62,2.5,2.5,0,0,0,.77,1.08,2.17,2.17,0,0,0,2.51,0,2.56,2.56,0,0,0,.78-1.1,4.37,4.37,0,0,0,.26-1.58,4.46,4.46,0,0,0-.25-1.55,2.44,2.44,0,0,0-.78-1.08,2.25,2.25,0,0,0-2.53,0,2.36,2.36,0,0,0-.77,1.06A4.57,4.57,0,0,0,198.71,291.25Z"/><path d="M209.1,284v11.64h-1.7V284Z"/><path d="M215.54,295.79a4,4,0,0,1-2.14-.56,3.82,3.82,0,0,1-1.42-1.58,5.74,5.74,0,0,1,0-4.73,3.76,3.76,0,0,1,1.42-1.58,4.3,4.3,0,0,1,4.28,0,3.7,3.7,0,0,1,1.42,1.58,5.74,5.74,0,0,1,0,4.73,3.76,3.76,0,0,1-1.42,1.58A4,4,0,0,1,215.54,295.79Zm0-1.42a2,2,0,0,0,1.31-.43,2.49,2.49,0,0,0,.78-1.11,4.87,4.87,0,0,0,0-3.08,2.5,2.5,0,0,0-.78-1.13,2,2,0,0,0-1.31-.43,2.06,2.06,0,0,0-1.33.43,2.5,2.5,0,0,0-.78,1.13,4.87,4.87,0,0,0,0,3.08,2.49,2.49,0,0,0,.78,1.11A2.06,2.06,0,0,0,215.55,294.37Z"/><path d="M224.52,295.81a3.5,3.5,0,0,1-1.5-.31,2.53,2.53,0,0,1-1.06-.9,2.6,2.6,0,0,1-.39-1.45,2.37,2.37,0,0,1,.29-1.22,2.1,2.1,0,0,1,.76-.75,3.91,3.91,0,0,1,1.08-.42,10.06,10.06,0,0,1,1.22-.22l1.27-.15a1.68,1.68,0,0,0,.71-.2.46.46,0,0,0,.22-.44v0a1.57,1.57,0,0,0-.41-1.15,1.74,1.74,0,0,0-1.25-.41,2.19,2.19,0,0,0-1.35.38,2,2,0,0,0-.67.84l-1.6-.37a3.06,3.06,0,0,1,.83-1.28,3.41,3.41,0,0,1,1.27-.72,4.92,4.92,0,0,1,2.61-.1,3.39,3.39,0,0,1,1.1.44,2.47,2.47,0,0,1,.85.93,3.18,3.18,0,0,1,.33,1.55v5.8h-1.66v-1.2h-.07a2.36,2.36,0,0,1-.49.65,2.74,2.74,0,0,1-.85.53A3.28,3.28,0,0,1,224.52,295.81Zm.37-1.37a2.54,2.54,0,0,0,1.21-.27,2,2,0,0,0,.76-.73,1.87,1.87,0,0,0,.27-1v-1.13a.87.87,0,0,1-.35.17,5.91,5.91,0,0,1-.59.13l-.64.1-.52.07a4,4,0,0,0-.9.21,1.53,1.53,0,0,0-.65.42,1.09,1.09,0,0,0-.24.73,1.07,1.07,0,0,0,.46.95A2,2,0,0,0,224.89,294.44Z"/><path d="M235.64,286.89v1.36h-4.76v-1.36Zm-3.49-2.09h1.7v8.25a1.44,1.44,0,0,0,.15.74.77.77,0,0,0,.38.34,1.46,1.46,0,0,0,.52.09,1.94,1.94,0,0,0,.36,0l.24-.05.3,1.41a3,3,0,0,1-.42.11,4,4,0,0,1-.68.07,2.91,2.91,0,0,1-1.25-.24,2.14,2.14,0,0,1-.94-.77,2.28,2.28,0,0,1-.36-1.32Z"/><path d="M240.54,295.81a3.44,3.44,0,0,1-1.5-.31,2.53,2.53,0,0,1-1.06-.9,2.6,2.6,0,0,1-.39-1.45,2.37,2.37,0,0,1,.28-1.22,2.13,2.13,0,0,1,.77-.75,3.68,3.68,0,0,1,1.08-.42,9.72,9.72,0,0,1,1.22-.22l1.27-.15a1.73,1.73,0,0,0,.71-.2.46.46,0,0,0,.22-.44v0a1.53,1.53,0,0,0-.42-1.15,1.72,1.72,0,0,0-1.24-.41,2.19,2.19,0,0,0-1.35.38,2,2,0,0,0-.68.84l-1.59-.37a3,3,0,0,1,.83-1.28A3.37,3.37,0,0,1,240,287a5,5,0,0,1,1.51-.23,4.92,4.92,0,0,1,1.11.13,3.39,3.39,0,0,1,1.1.44,2.56,2.56,0,0,1,.85.93,3.31,3.31,0,0,1,.32,1.55v5.8h-1.65v-1.2h-.07a2.41,2.41,0,0,1-.5.65,2.69,2.69,0,0,1-.84.53A3.32,3.32,0,0,1,240.54,295.81Zm.37-1.37a2.47,2.47,0,0,0,1.2-.27,1.94,1.94,0,0,0,.77-.73,1.87,1.87,0,0,0,.27-1v-1.13a.87.87,0,0,1-.35.17c-.18.05-.37.09-.59.13l-.64.1-.53.07a4,4,0,0,0-.9.21,1.56,1.56,0,0,0-.64.42,1,1,0,0,0-.25.73,1.08,1.08,0,0,0,.47.95A2,2,0,0,0,240.91,294.44Z"/><path d="M251.26,295.79a4,4,0,0,1-2.18-.57,3.9,3.9,0,0,1-1.4-1.6,5.39,5.39,0,0,1-.49-2.33,5.31,5.31,0,0,1,.5-2.35,3.9,3.9,0,0,1,1.41-1.59,4,4,0,0,1,2.14-.58,4.19,4.19,0,0,1,1.78.37,3.28,3.28,0,0,1,1.26,1,3.09,3.09,0,0,1,.57,1.54h-1.66a1.93,1.93,0,0,0-.62-1.06,1.83,1.83,0,0,0-1.3-.44,2.11,2.11,0,0,0-1.24.37,2.39,2.39,0,0,0-.82,1.06,4,4,0,0,0-.3,1.61,4.31,4.31,0,0,0,.29,1.65A2.42,2.42,0,0,0,250,294a2,2,0,0,0,1.25.38,2.23,2.23,0,0,0,.88-.17,1.82,1.82,0,0,0,1-1.33h1.66a3.32,3.32,0,0,1-.55,1.52,3.2,3.2,0,0,1-1.23,1A4.12,4.12,0,0,1,251.26,295.79Z"/><path d="M260.91,295.79a4.25,4.25,0,0,1-2.22-.55,3.73,3.73,0,0,1-1.43-1.56,5.87,5.87,0,0,1,0-4.74,3.79,3.79,0,0,1,3.53-2.17,4.4,4.4,0,0,1,1.44.25,3.44,3.44,0,0,1,1.24.77,3.5,3.5,0,0,1,.87,1.35,5.75,5.75,0,0,1,.32,2v.6h-6.94v-1.27H263a2.54,2.54,0,0,0-.27-1.19,2.07,2.07,0,0,0-.76-.82,2.19,2.19,0,0,0-1.15-.3,2.16,2.16,0,0,0-1.25.35,2.25,2.25,0,0,0-.82.91,2.6,2.6,0,0,0-.29,1.21v1a3.35,3.35,0,0,0,.31,1.49,2.26,2.26,0,0,0,.87.94,2.58,2.58,0,0,0,1.3.32,2.71,2.71,0,0,0,.88-.14,1.8,1.8,0,0,0,1.13-1.11l1.61.29a3,3,0,0,1-.69,1.25,3.44,3.44,0,0,1-1.25.82A4.69,4.69,0,0,1,260.91,295.79Z"/><path d="M323.09,208.26l3.24,9.48h.13l3.24-9.48h1.89l-4.18,11.63h-2l-4.19-11.63Z"/><path d="M334.69,223.14a3.78,3.78,0,0,1-.7,0,2.74,2.74,0,0,1-.46-.13l.41-1.39a2.13,2.13,0,0,0,1.17,0c.32-.11.58-.45.8-1l.21-.58-3.19-8.84h1.81l2.22,6.77h.09l2.21-6.77h1.83l-3.61,9.88a3.88,3.88,0,0,1-.63,1.14,2.62,2.62,0,0,1-.92.71A3,3,0,0,1,334.69,223.14Z"/><path d="M349.71,213.3l-1.54.27a1.94,1.94,0,0,0-.31-.56,1.39,1.39,0,0,0-.56-.44,2,2,0,0,0-.88-.17,2.14,2.14,0,0,0-1.2.32,1,1,0,0,0-.48.83.84.84,0,0,0,.32.7,2.55,2.55,0,0,0,1,.44l1.39.32a3.7,3.7,0,0,1,1.8.86,2,2,0,0,1,.59,1.5,2.32,2.32,0,0,1-.45,1.4,3,3,0,0,1-1.26.95,4.54,4.54,0,0,1-1.86.35,4.16,4.16,0,0,1-2.39-.63,2.62,2.62,0,0,1-1.14-1.78l1.64-.25a1.66,1.66,0,0,0,.63,1,2.65,2.65,0,0,0,2.58,0,1,1,0,0,0,.5-.85.9.9,0,0,0-.3-.69,1.92,1.92,0,0,0-.93-.42l-1.48-.32a3.62,3.62,0,0,1-1.8-.89,2.33,2.33,0,0,1-.15-2.89,2.83,2.83,0,0,1,1.19-.91,4.37,4.37,0,0,1,1.75-.33,3.59,3.59,0,0,1,2.22.62A2.84,2.84,0,0,1,349.71,213.3Z"/><path d="M355.9,220.07a4,4,0,0,1-2.14-.56,3.76,3.76,0,0,1-1.42-1.58,5.74,5.74,0,0,1,0-4.73,3.7,3.7,0,0,1,1.42-1.58,4.3,4.3,0,0,1,4.28,0,3.76,3.76,0,0,1,1.42,1.58,5.74,5.74,0,0,1,0,4.73,3.82,3.82,0,0,1-1.42,1.58A4,4,0,0,1,355.9,220.07Zm0-1.43a2,2,0,0,0,1.32-.42,2.49,2.49,0,0,0,.78-1.11,4.87,4.87,0,0,0,0-3.08,2.5,2.5,0,0,0-.78-1.13,2.24,2.24,0,0,0-2.64,0,2.5,2.5,0,0,0-.78,1.13,4.87,4.87,0,0,0,0,3.08,2.49,2.49,0,0,0,.78,1.11A2,2,0,0,0,355.9,218.64Z"/><path d="M362.34,219.89V208.26H364v11.63Zm1.56-3v-2.07h.29l3.48-3.69h2l-4,4.2h-.27Zm4,3-3.13-4.14,1.18-1.19,4,5.33Z"/><path d="M374.26,220.09a3.66,3.66,0,0,1-1.5-.31,2.53,2.53,0,0,1-1.06-.9,2.6,2.6,0,0,1-.39-1.45,2.37,2.37,0,0,1,.29-1.22,2,2,0,0,1,.76-.75,3.91,3.91,0,0,1,1.08-.42,10.06,10.06,0,0,1,1.22-.22l1.27-.15a1.68,1.68,0,0,0,.71-.2.46.46,0,0,0,.22-.44v0a1.57,1.57,0,0,0-.41-1.15,1.74,1.74,0,0,0-1.25-.41,2.19,2.19,0,0,0-1.35.38,2.06,2.06,0,0,0-.67.83l-1.6-.36a3.17,3.17,0,0,1,.83-1.29,3.53,3.53,0,0,1,1.27-.71,5,5,0,0,1,1.5-.23,5.57,5.57,0,0,1,1.11.13,3.44,3.44,0,0,1,1.11.44,2.53,2.53,0,0,1,.84.93,3.18,3.18,0,0,1,.33,1.55v5.79h-1.66V218.7h-.07a2.36,2.36,0,0,1-.49.65,2.74,2.74,0,0,1-.85.53A3.28,3.28,0,0,1,374.26,220.09Zm.37-1.37a2.54,2.54,0,0,0,1.21-.27,2,2,0,0,0,.76-.73,1.87,1.87,0,0,0,.27-1v-1.13a.87.87,0,0,1-.35.17,4,4,0,0,1-.59.13l-.64.1-.52.07a4,4,0,0,0-.9.21,1.59,1.59,0,0,0-.65.42,1.09,1.09,0,0,0-.24.73,1.07,1.07,0,0,0,.46,1A2,2,0,0,0,374.63,218.72Zm-.06-8.72,1.33-2.62h1.79L375.93,210Z"/><path d="M386,219.89v-8.72h1.63v1.42h.11a2.23,2.23,0,0,1,.89-1.13,2.63,2.63,0,0,1,1.48-.41,2.57,2.57,0,0,1,1.47.41,2.42,2.42,0,0,1,.88,1.13h.09a2.49,2.49,0,0,1,1-1.12,3.07,3.07,0,0,1,1.63-.42,2.63,2.63,0,0,1,1.94.75,3,3,0,0,1,.75,2.24v5.85h-1.7V214.2a1.56,1.56,0,0,0-.48-1.28,1.73,1.73,0,0,0-1.15-.4,1.63,1.63,0,0,0-1.29.51,1.85,1.85,0,0,0-.46,1.3v5.56h-1.7v-5.8a1.54,1.54,0,0,0-.44-1.14,1.58,1.58,0,0,0-1.15-.43,1.62,1.62,0,0,0-.89.25,2,2,0,0,0-.66.7,2.19,2.19,0,0,0-.24,1v5.38Z"/><path d="M400.64,219.89v-8.72h1.7v8.72Zm.16-9.89,1.33-2.62h1.79L402.16,210Z"/><path d="M405.11,219.89v-8.72h1.64v1.38h.09a2.13,2.13,0,0,1,.84-1.11,2.43,2.43,0,0,1,1.38-.4h.37l.35,0v1.62l-.37-.06a3,3,0,0,0-.52,0,2.2,2.2,0,0,0-1.07.25,1.92,1.92,0,0,0-.74.7,1.94,1.94,0,0,0-.27,1v5.32Z"/><path d="M414.19,220.09a3.66,3.66,0,0,1-1.5-.31,2.56,2.56,0,0,1-1.05-.9,2.6,2.6,0,0,1-.39-1.45,2.37,2.37,0,0,1,.28-1.22,2.05,2.05,0,0,1,.77-.75,3.68,3.68,0,0,1,1.08-.42,9.56,9.56,0,0,1,1.21-.22l1.28-.15a1.73,1.73,0,0,0,.71-.2.48.48,0,0,0,.22-.44v0a1.53,1.53,0,0,0-.42-1.15,1.72,1.72,0,0,0-1.24-.41,2.19,2.19,0,0,0-1.35.38,2,2,0,0,0-.68.83l-1.6-.36a3.08,3.08,0,0,1,.84-1.29,3.41,3.41,0,0,1,1.26-.71,5,5,0,0,1,1.51-.23,5.75,5.75,0,0,1,1.11.13,3.39,3.39,0,0,1,1.1.44,2.53,2.53,0,0,1,.84.93,3.18,3.18,0,0,1,.33,1.55v5.79h-1.66V218.7h-.07a2.36,2.36,0,0,1-.49.65,2.63,2.63,0,0,1-.85.53A3.25,3.25,0,0,1,414.19,220.09Zm.37-1.37a2.52,2.52,0,0,0,1.21-.27,2,2,0,0,0,.77-.73,1.86,1.86,0,0,0,.26-1v-1.13a.8.8,0,0,1-.35.17,3.86,3.86,0,0,1-.58.13l-.65.1-.52.07a4,4,0,0,0-.9.21,1.59,1.59,0,0,0-.65.42,1.21,1.21,0,0,0,.23,1.68A2,2,0,0,0,414.56,218.72Z"/><path d="M329.9,238.89v-1.16l4.73-6v-.08h-4.58v-1.47h6.7v1.24l-4.55,5.93v.08h4.71v1.47Z"/><path d="M341.08,233.71v5.18h-1.69v-8.72H341v1.42h.1a2.57,2.57,0,0,1,.95-1.12,2.92,2.92,0,0,1,1.63-.42,3.16,3.16,0,0,1,1.56.38,2.47,2.47,0,0,1,1,1.1,3.94,3.94,0,0,1,.37,1.81v5.55H345v-5.34a2.13,2.13,0,0,0-.49-1.49,1.76,1.76,0,0,0-1.36-.53,2.14,2.14,0,0,0-1.05.25,1.8,1.8,0,0,0-.72.75A2.42,2.42,0,0,0,341.08,233.71Z"/><path d="M353.18,239.07a4.19,4.19,0,0,1-2.21-.55,3.71,3.71,0,0,1-1.44-1.57,5.29,5.29,0,0,1-.5-2.36,5.4,5.4,0,0,1,.5-2.37,3.79,3.79,0,0,1,3.53-2.17,4.4,4.4,0,0,1,1.44.25,3.44,3.44,0,0,1,1.24.77,3.5,3.5,0,0,1,.87,1.35,5.75,5.75,0,0,1,.32,2v.6H350v-1.27h5.27a2.54,2.54,0,0,0-.27-1.19,2.07,2.07,0,0,0-.76-.82,2.38,2.38,0,0,0-2.4.05,2.32,2.32,0,0,0-.82.91,2.6,2.6,0,0,0-.29,1.21v1a3.35,3.35,0,0,0,.31,1.49,2.26,2.26,0,0,0,.87.94,2.58,2.58,0,0,0,1.3.32,2.71,2.71,0,0,0,.88-.14,1.8,1.8,0,0,0,1.13-1.11l1.61.29a2.87,2.87,0,0,1-.69,1.24,3.38,3.38,0,0,1-1.24.83A4.79,4.79,0,0,1,353.18,239.07Z"/><path d="M363,239.07a3.92,3.92,0,0,1-2.18-.58,3.67,3.67,0,0,1-1.4-1.59,5.25,5.25,0,0,1-.49-2.33,5.18,5.18,0,0,1,.5-2.35,3.76,3.76,0,0,1,1.41-1.59,3.94,3.94,0,0,1,2.14-.58,4.18,4.18,0,0,1,1.77.37,3.28,3.28,0,0,1,1.26,1,3.09,3.09,0,0,1,.57,1.54h-1.65a2,2,0,0,0-.62-1.06,1.85,1.85,0,0,0-1.3-.44,2.07,2.07,0,0,0-1.24.37,2.41,2.41,0,0,0-.83,1.06,4,4,0,0,0-.3,1.61,4.31,4.31,0,0,0,.29,1.65,2.5,2.5,0,0,0,.82,1.07,2.09,2.09,0,0,0,1.26.38,2.05,2.05,0,0,0,.87-.18,1.69,1.69,0,0,0,.67-.51,1.9,1.9,0,0,0,.38-.81h1.65a3.17,3.17,0,0,1-1.78,2.56A4,4,0,0,1,363,239.07Zm-1.2-12.44,1.17,1.52,1.16-1.52h1.54v.08l-2,2.41h-1.41l-2-2.41v-.08Z"/><path d="M369.72,228.82a1.09,1.09,0,0,1-.76-.3.93.93,0,0,1-.31-.71,1,1,0,0,1,.31-.72,1.09,1.09,0,0,1,.76-.3,1.06,1.06,0,0,1,.76.3,1,1,0,0,1,.32.72.94.94,0,0,1-.32.71A1.06,1.06,0,0,1,369.72,228.82Zm-.86,10.07v-8.72h1.7v8.72Z"/><path d="M379.87,232.3l-1.54.27A1.94,1.94,0,0,0,378,232a1.39,1.39,0,0,0-.56-.44,2,2,0,0,0-.88-.17,2.14,2.14,0,0,0-1.2.32,1,1,0,0,0-.48.83.84.84,0,0,0,.32.7,2.54,2.54,0,0,0,1,.44l1.38.32a3.7,3.7,0,0,1,1.8.86,2,2,0,0,1,.59,1.5,2.32,2.32,0,0,1-.45,1.4,3,3,0,0,1-1.26.95,4.54,4.54,0,0,1-1.86.35,4.16,4.16,0,0,1-2.39-.63,2.62,2.62,0,0,1-1.14-1.78l1.64-.25a1.66,1.66,0,0,0,.63,1,2.25,2.25,0,0,0,1.25.32,2.21,2.21,0,0,0,1.33-.35,1,1,0,0,0,.5-.85.9.9,0,0,0-.3-.69,1.92,1.92,0,0,0-.93-.42l-1.48-.32a3.62,3.62,0,0,1-1.8-.89,2.33,2.33,0,0,1-.15-2.89,2.83,2.83,0,0,1,1.19-.91,4.37,4.37,0,0,1,1.75-.33,3.59,3.59,0,0,1,2.22.62A2.84,2.84,0,0,1,379.87,232.3Zm-4.45-5.67,1.17,1.52,1.16-1.52h1.54v.08l-2,2.41h-1.41l-2-2.41v-.08Z"/><path d="M386.46,230.17v1.36h-4.77v-1.36ZM383,228.08h1.7v8.25a1.56,1.56,0,0,0,.14.74.75.75,0,0,0,.39.34,1.4,1.4,0,0,0,.51.09,1.86,1.86,0,0,0,.36,0l.24-.05.3,1.41-.42.11a3.09,3.09,0,0,1-.68.07,2.93,2.93,0,0,1-1.25-.24,2.2,2.2,0,0,1-.94-.77,2.36,2.36,0,0,1-.35-1.32Z"/><path d="M392.48,239.07a4.25,4.25,0,0,1-2.22-.55,3.69,3.69,0,0,1-1.43-1.57,5.29,5.29,0,0,1-.5-2.36,5.4,5.4,0,0,1,.5-2.37,3.79,3.79,0,0,1,3.53-2.17,4.35,4.35,0,0,1,1.43.25,3.39,3.39,0,0,1,1.25.77,3.75,3.75,0,0,1,.87,1.35,5.75,5.75,0,0,1,.32,2v.6h-6.94v-1.27h5.27a2.54,2.54,0,0,0-.27-1.19,2,2,0,0,0-.77-.82,2.36,2.36,0,0,0-2.39.05,2.25,2.25,0,0,0-.82.91,2.6,2.6,0,0,0-.29,1.21v1a3.22,3.22,0,0,0,.31,1.49,2.26,2.26,0,0,0,.87.94,2.58,2.58,0,0,0,1.3.32,2.75,2.75,0,0,0,.88-.14,1.89,1.89,0,0,0,.69-.42,1.74,1.74,0,0,0,.44-.69l1.61.29a2.87,2.87,0,0,1-.69,1.24,3.34,3.34,0,0,1-1.25.83A4.69,4.69,0,0,1,392.48,239.07Zm-1.35-12.44,1.17,1.52,1.16-1.52H395v.08l-2,2.41h-1.41l-2-2.41v-.08Z"/><path d="M400.3,233.71v5.18h-1.7v-8.72h1.63v1.42h.11a2.55,2.55,0,0,1,.94-1.12,2.92,2.92,0,0,1,1.63-.42,3.13,3.13,0,0,1,1.56.38,2.42,2.42,0,0,1,1,1.1,3.94,3.94,0,0,1,.37,1.81v5.55h-1.7v-5.34a2.13,2.13,0,0,0-.49-1.49,1.74,1.74,0,0,0-1.36-.53,2.14,2.14,0,0,0-1.05.25,1.86,1.86,0,0,0-.72.75A2.42,2.42,0,0,0,400.3,233.71Z"/><path d="M408.63,238.89v-8.72h1.7v8.72Zm.16-9.89,1.33-2.62h1.79L410.15,229Z"/><line class="cls-4" x1="488.91" y1="197.09" x2="457.68" y2="197.09"/><line class="cls-4" x1="580.81" y1="197.09" x2="552.12" y2="197.09"/><line class="cls-4" x1="544.65" y1="201.47" x2="544.65" y2="172.27"/><path class="cls-26" d="M547.27,182.14l11.26-3.95a2.14,2.14,0,0,0,0-3.77l-11.26-3.94a2.21,2.21,0,0,0-2.13,0,2.12,2.12,0,0,0-1,1.85v7.89a2.1,2.1,0,0,0,1,1.84,2.13,2.13,0,0,0,2.14,0Zm-1.63-.88a1.13,1.13,0,0,1-.56-1v-7.88a1.1,1.1,0,0,1,.56-1,1.16,1.16,0,0,1,1.14,0l11.28,3.92a1.16,1.16,0,0,1,0,2l-11.27,4a1.18,1.18,0,0,1-1.15,0Z"/><path class="cls-29" d="M514.62,198.29c0,1.81-.31,3.37-1.38,3.53s.49,2.94.49,2.94,6.13.93,2.24,1.59c-6.08,1-2.77-5.44-8.94-5.44"/><path class="cls-29" d="M520.44,200.07c1,1.49-3,3.83.63,6.07,1.59,1,1.54-2,.8-2.9l1.38-1.64"/><path class="cls-30" d="M501.78,195.36c-3.49-.71-11.64-2.67-13-10.75"/><path class="cls-29" d="M527,187.47c-1.2-2.2,1.64-.9,1.91,0,.37-.73,11.06,4.75,6.58,6.39-7.23,2.64-8.51,5.17-5.78,8,0,0,4.3.19,3.71,2.5s-3-1-4.38-1.4-4.82-.26-8.59-2.87-10.18-2.1-12,0-9-.26-10.13,3.26c-2.35,7.06-6.06,1.71.58-2.75,2.63-1.77,4.17-15.83,16.33-13.15,8.58,1.89,5.94,1.72,7.85,1.53"/><path class="cls-30" d="M525.3,191.64c-4.45-1.08-.4-7.31,1.9-1.26"/><path class="cls-30" d="M529.9,190.68c.13-.18.72,0,.83,0"/><path class="cls-29" d="M490.9,226.47c0,1.81-.32,3.37-1.38,3.52s.49,2.95.49,2.95,6.13.93,2.23,1.59c-6.08,1-2.76-5.44-8.93-5.44"/><path class="cls-29" d="M496.72,228.25c1,1.49-3,3.83.63,6.07,1.58,1,1.53-2,.79-2.9l1.39-1.65"/><path class="cls-29" d="M503.22,215.65c-1.19-2.21,1.64-.9,1.92,0,.37-.73,11.05,4.74,6.57,6.38-7.23,2.65-8.51,5.18-5.77,8,0,0,4.29.2,3.71,2.5s-3-1-4.39-1.39-4.81-.26-8.58-2.88-10.18-2.09-12,0-9-.26-10.13,3.26c-2.34,7.06-6.05,1.7.59-2.75,2.63-1.77,4.17-15.83,16.33-13.15,8.58,1.89,5.93,1.72,7.85,1.53"/><path class="cls-29" d="M501.58,219.82c-4.45-1.09-.4-7.31,1.9-1.27"/><path class="cls-30" d="M478.06,223.54c-3.5-.71-9.49-2-10.59-5.81"/><path class="cls-30" d="M506.17,218.86c.14-.18.73,0,.83,0"/><path class="cls-31" d="M576.37,206.13a.62.62,0,0,0-.8.38,49.26,49.26,0,0,0-2.06,7.69,18.47,18.47,0,0,0-.37,6H572a23.49,23.49,0,0,1,0-6.7c0-.49.09-1,.12-1.44a.63.63,0,0,0-.57-.68.64.64,0,0,0-.68.58c0,.47-.08.94-.12,1.42-.08.85-.16,1.71-.2,2.58a19.32,19.32,0,0,0-2.13-6.68.64.64,0,0,0-.86-.23.62.62,0,0,0-.22.86c1.35,2.31,1.76,4.88,2.19,7.59.14.89.29,1.8.47,2.7h-.91a45.57,45.57,0,0,0-1.33-7.47c-.81-3-2.07-6.72-4.75-9.13a.63.63,0,0,0-.84.94c2.43,2.19,3.62,5.7,4.37,8.51a42.93,42.93,0,0,1,1.28,7.15h-2.14a48,48,0,0,1-.79-8.08.6.6,0,0,0-.63-.62.63.63,0,0,0-.62.63,49,49,0,0,0,.77,8.07h-1.83c0-4.11-.46-9.69-4.67-12.62a.64.64,0,0,0-.87.16.62.62,0,0,0,.16.87c3.69,2.57,4.17,7.48,4.12,11.59H560a.63.63,0,0,0,0,1.25h15.22a.63.63,0,1,0,0-1.25h-.84a16.29,16.29,0,0,1,.32-5.75,49.26,49.26,0,0,1,2-7.49.62.62,0,0,0-.38-.8Z"/><path class="cls-31" d="M524.13,233.43a.69.69,0,0,1,.8.28,30.08,30.08,0,0,1,2.06,5.8,10.39,10.39,0,0,1,.37,4.49h1.16a13.61,13.61,0,0,0,0-5.05c0-.36-.09-.72-.12-1.08s.23-.49.57-.51a.61.61,0,0,1,.68.44l.12,1.07c.08.64.16,1.29.2,1.94a12.16,12.16,0,0,1,2.13-5,.75.75,0,0,1,.86-.17.41.41,0,0,1,.22.64A13.07,13.07,0,0,0,531,242c-.14.67-.29,1.35-.47,2h.92a26.82,26.82,0,0,1,1.32-5.63,13.43,13.43,0,0,1,4.75-6.87.78.78,0,0,1,.89,0,.39.39,0,0,1,0,.66c-2.43,1.65-3.61,4.3-4.37,6.42a25.25,25.25,0,0,0-1.28,5.38h2.14a27.5,27.5,0,0,0,.79-6.08.54.54,0,0,1,.63-.47c.35,0,.63.22.62.48a27.49,27.49,0,0,1-.77,6.07H538c0-3.1.46-7.3,4.67-9.5a.75.75,0,0,1,.87.12.41.41,0,0,1-.15.66c-3.7,1.93-4.18,5.63-4.13,8.72h1.25a.49.49,0,1,1,0,.94H525.24c-.35,0-.63-.21-.63-.47s.28-.47.63-.47h.85a9.47,9.47,0,0,0-.33-4.33,30.06,30.06,0,0,0-2-5.64c-.12-.25,0-.52.38-.6Z"/><line class="cls-4" x1="482.73" y1="244.66" x2="499.16" y2="244.66"/><path class="cls-4" d="M481.45,242.85c1.62-1.46,3.8.72,4.31,1.81"/><path class="cls-4" d="M487.33,244.66s.77,2.74,2.94,2.91"/><path class="cls-4" d="M494.81,247.7a3.42,3.42,0,0,1-2.08,2.07"/><path class="cls-4" d="M496.12,244.66a3.19,3.19,0,0,1,2.19,2.07"/><path class="cls-4" d="M491,244.66a5,5,0,0,1,4.06-2.4"/><path class="cls-4" d="M488.8,244.66a4,4,0,0,0-1.3-3.25"/><line class="cls-4" x1="466.37" y1="208.93" x2="458.03" y2="208.93"/><path class="cls-4" d="M463.42,211.27a3.42,3.42,0,0,1-2.08,2.08"/><path class="cls-4" d="M461.07,208.93a3.2,3.2,0,0,0-2.19,2.08"/><path class="cls-4" d="M466.18,208.93a5.05,5.05,0,0,0-4.06-2.4"/><line class="cls-4" x1="463.27" y1="208.91" x2="458.94" y2="208.91"/><line class="cls-4" x1="539.84" y1="220.73" x2="535.51" y2="220.73"/><line class="cls-4" x1="565.95" y1="232.57" x2="553.35" y2="232.57"/><circle cx="478.19" cy="204.84" r="0.9"/><circle cx="480.33" cy="207.49" r="0.9"/><circle cx="470.98" cy="203.2" r="0.9"/></svg>