<svg id="Layer_1" data-name="Layer 1" xmlns="http://www.w3.org/2000/svg" viewBox="0 0 150 130"><defs><style>.cls-1{fill:#f4d7a9;}.cls-2{fill:none;stroke-width:1.8px;}.cls-2,.cls-6,.cls-7,.cls-8{stroke:#000;}.cls-2,.cls-7{stroke-linecap:round;stroke-miterlimit:10;}.cls-3,.cls-5{opacity:0.7;}.cls-4,.cls-5{fill:#fff;}.cls-6,.cls-8{stroke-linejoin:round;}.cls-6{stroke-width:0.5px;}.cls-7{fill:#fcf3e5;stroke-width:2px;}</style></defs><path class="cls-1" d="M30.3,127h89.4a70.07,70.07,0,1,0-89.4,0Z"/><line class="cls-2" x1="136.67" y1="69.41" x2="94.23" y2="69.41"/><line class="cls-2" x1="28.69" y1="69.41" x2="16.12" y2="69.41"/><line class="cls-2" x1="107.84" y1="81.23" x2="135.25" y2="81.23"/><line class="cls-2" x1="18.78" y1="81.23" x2="28.53" y2="81.23"/><line class="cls-2" x1="130.32" y1="93.06" x2="80.67" y2="93.06"/><line class="cls-2" x1="66.2" y1="93.06" x2="49.72" y2="93.06"/><g class="cls-3"><path class="cls-4" d="M40,76.27a7,7,0,0,1,1.37-3.18c1.08-1.18,2.79-1.47,4.23-2.16a2.75,2.75,0,0,0,.8-.54,7.26,7.26,0,0,0,.66-.91,5.52,5.52,0,0,1,1.18-1.08,9.46,9.46,0,0,1,6.09-2.21,2.47,2.47,0,0,1,2.28,1.42,10.26,10.26,0,0,0,.24,1.1,1.92,1.92,0,0,0,1.27.91,5,5,0,0,1,1.5.58A1.11,1.11,0,0,1,60,71.6a1.5,1.5,0,0,1-.65.48,22,22,0,0,1-6,1.46Q46.25,74.6,39.17,76"/></g><path class="cls-5" d="M53.83,54.87a5.72,5.72,0,0,0-5,.41,4.45,4.45,0,0,0-2.41-2.83.33.33,0,0,0-.39,0,.4.4,0,0,0-.12.37,3.23,3.23,0,0,1-.14,1.72,3.45,3.45,0,0,1-1.21,1.3.39.39,0,0,0,0,.68,4.51,4.51,0,0,0,3.71-.14,5.72,5.72,0,0,0,3,3.93,5.81,5.81,0,0,0,5-.44,1,1,0,0,0,.46-1.05,5.73,5.73,0,0,0-3.06-4Z"/><path class="cls-5" d="M49.79,59.53a5.7,5.7,0,0,0-4.65,1.79,4.48,4.48,0,0,0-3.12-2,.35.35,0,0,0-.36.16.41.41,0,0,0,0,.39A3,3,0,0,1,42,61.52a3.51,3.51,0,0,1-.79,1.6.44.44,0,0,0-.07.39.38.38,0,0,0,.31.24A4.53,4.53,0,0,0,45,62.57a5.66,5.66,0,0,0,4,2.9,5.8,5.8,0,0,0,4.7-1.84,1,1,0,0,0,.15-1.13,5.73,5.73,0,0,0-4.07-3Z"/><path class="cls-5" d="M42.17,65.33a5.74,5.74,0,0,0-2.79,4.14,4.44,4.44,0,0,0-3.71.11.35.35,0,0,0-.2.34.4.4,0,0,0,.21.33,3.05,3.05,0,0,1,1.25,1.18,3.51,3.51,0,0,1,.27,1.76.38.38,0,0,0,.56.38,4.53,4.53,0,0,0,2.21-3,5.65,5.65,0,0,0,5,.07,5.82,5.82,0,0,0,2.8-4.2,1,1,0,0,0-.53-1,5.74,5.74,0,0,0-5-.11Z"/><path class="cls-5" d="M62.55,69.87a5.76,5.76,0,0,0,3.82-3.22,4.52,4.52,0,0,0,3.6.91.37.37,0,0,0,.29-.27.41.41,0,0,0-.12-.38,3.16,3.16,0,0,1-.88-1.48,3.46,3.46,0,0,1,.23-1.76.42.42,0,0,0-.06-.39.4.4,0,0,0-.38-.13,4.51,4.51,0,0,0-2.94,2.27A5.63,5.63,0,0,0,61.35,64a5.81,5.81,0,0,0-3.84,3.28,1,1,0,0,0,.23,1.12,5.77,5.77,0,0,0,4.81,1.48Z"/><path class="cls-6" d="M104.88,46c-2.81.62-11,7.45-13.61,9.63l-.06-.06A1.79,1.79,0,0,0,89.86,55a3,3,0,0,0-2,1l-.26.31A42.65,42.65,0,0,1,84,58.8a11.35,11.35,0,0,1-1-1.67c-.2-.39-.62-1.11-.64-1.15a3,3,0,0,0-2.55-1.65,4.78,4.78,0,0,0-4,1.56c-3.09,3-5,9.43-5,12.42L72.11,68c.13-2.81,1.87-8.61,4.6-11.23a4.62,4.62,0,0,1,1.64-1.06,2.85,2.85,0,0,0-.54.91c-.46,1.17.1,3.63,2,5.61a17.08,17.08,0,0,0-1,4.28l1.32-.29a15.58,15.58,0,0,1,.72-3.06c1,.76,2.36,1.65,3.53,1.39,1.66-.37,5.63-4,6.4-4.76l.47-.43-.55-.57a2.77,2.77,0,0,0,1.06-1.71,1.82,1.82,0,0,0,0-.33c3-2.59,9.91-8.24,12.75-9.48m-20.4,16c-1,.21-2.71-1.28-3.4-2-2.17-2.24-1.92-3.74-1.73-4.27a1.43,1.43,0,0,1,1.17-1,1.25,1.25,0,0,1,1.17.6s.37.63.56,1h0c.74,1.44,1.39,2.69,2.35,2.36a28.11,28.11,0,0,0,3.68-2.36l1.54,1.62C87.71,60.93,85.05,63.13,84.12,63.34ZM90.49,57a1.56,1.56,0,0,1-.63.86l0,0-1-1h0a1.77,1.77,0,0,1,1-.6.59.59,0,0,1,.44.2A.64.64,0,0,1,90.49,57Z"/><path class="cls-6" d="M74,53a.64.64,0,0,0,.58.17.61.61,0,0,0,.27-.13c.24-.19,1-.69,1.95-1.33a4.26,4.26,0,0,0,4.55,2,4.37,4.37,0,0,0,3.2-5.28,4.65,4.65,0,0,0-.46-1.21,8.67,8.67,0,0,1,2.39-1,.64.64,0,0,0,.62-.64.63.63,0,0,0-.64-.62,7.76,7.76,0,0,0-2.56,1l-.13-.07L79.3,43.16a1.89,1.89,0,0,0-2.09.32l-2.55,2.39a1.88,1.88,0,0,0-.53,1.79l1,3.66-1.16.8A.63.63,0,0,0,74,53Zm9.32-4.27a3.11,3.11,0,0,1-2.24,3.77A3,3,0,0,1,77.88,51c1.58-1,3.49-2.21,5.13-3.15A3.07,3.07,0,0,1,83.34,48.74Zm-7.81-2,2.55-2.39a.59.59,0,0,1,.62-.13l3.94,2.38c-2.13,1.19-4.61,2.78-6.36,3.94l-.92-3.24A.59.59,0,0,1,75.53,46.79Z"/><path class="cls-7" d="M39.25,76.14C43,85.35,54.34,89.23,66.46,86.55,77.53,84.1,87.34,75.48,86.74,65.64"/><line class="cls-7" x1="86.74" y1="65.64" x2="39.25" y2="76.14"/><path class="cls-2" d="M48.22,73.54c-.16-2-6-3.88-7.5.95"/><path class="cls-2" d="M56.43,67.9c-.15-2-6-3.88-7.49.95"/><path class="cls-2" d="M53.32,72.05c.28-2-5-5.09-7.53-.7"/><path class="cls-2" d="M60.51,71.47c.28-2-5-5.08-7.52-.69"/><path class="cls-8" d="M42.76,65.33a5.74,5.74,0,0,0-2.87,4.09,4.46,4.46,0,0,0-3.71,0,.35.35,0,0,0-.21.34.42.42,0,0,0,.21.33,3.1,3.1,0,0,1,1.23,1.2,3.56,3.56,0,0,1,.23,1.77.45.45,0,0,0,.16.36.39.39,0,0,0,.39,0,4.44,4.44,0,0,0,2.26-2.95,5.71,5.71,0,0,0,5,.16,5.84,5.84,0,0,0,2.87-4.16,1,1,0,0,0-.51-1,5.72,5.72,0,0,0-5-.19Zm-4.32,7.14A3.52,3.52,0,0,0,38.1,71a3.37,3.37,0,0,0-.93-1.11,4,4,0,0,1,2.62.3,4.2,4.2,0,0,1-1.35,2.27Zm6.81-2.54a1.26,1.26,0,0,1-.17.11h0a5.08,5.08,0,0,1-4.48-.26A5.1,5.1,0,0,1,43.1,66c.13-.06.28-.11.41-.18a5.12,5.12,0,0,1,3.93.39.17.17,0,0,1,.11.2h0A5.37,5.37,0,0,1,45.25,69.93Z"/><path class="cls-8" d="M49.94,59.84a5.7,5.7,0,0,0-4.73,1.61,4.46,4.46,0,0,0-3-2.16.34.34,0,0,0-.36.14.41.41,0,0,0,0,.4,3,3,0,0,1,.28,1.69,3.53,3.53,0,0,1-.85,1.57.42.42,0,0,0-.09.38.41.41,0,0,0,.3.26,4.48,4.48,0,0,0,3.57-1,5.66,5.66,0,0,0,3.92,3.07,5.82,5.82,0,0,0,4.77-1.65A1,1,0,0,0,53.88,63a5.73,5.73,0,0,0-3.94-3.13Zm-7.71,3.21a3.48,3.48,0,0,0,.59-1.38,3.53,3.53,0,0,0-.09-1.44A3.94,3.94,0,0,1,44.66,62a4.18,4.18,0,0,1-2.43,1Zm7,2A.53.53,0,0,1,49,65h0a5,5,0,0,1-3.45-2.86,5.11,5.11,0,0,1,4.24-1.55c.15,0,.29.07.44.09a5.2,5.2,0,0,1,2.94,2.64.17.17,0,0,1,0,.22h0A5.32,5.32,0,0,1,49.23,65Z"/><path class="cls-8" d="M62.55,69.87a5.76,5.76,0,0,0,3.82-3.22,4.52,4.52,0,0,0,3.6.91.37.37,0,0,0,.29-.27.41.41,0,0,0-.12-.38,3.16,3.16,0,0,1-.88-1.48,3.46,3.46,0,0,1,.23-1.76.42.42,0,0,0-.06-.39.4.4,0,0,0-.38-.13,4.51,4.51,0,0,0-2.94,2.27A5.63,5.63,0,0,0,61.35,64a5.81,5.81,0,0,0-3.84,3.28,1,1,0,0,0,.23,1.12,5.77,5.77,0,0,0,4.81,1.48Zm6-5.8a3.55,3.55,0,0,0,0,1.5,3.42,3.42,0,0,0,.61,1.3,3.9,3.9,0,0,1-2.45-1,4.19,4.19,0,0,1,1.89-1.84Zm-7.24.71a.52.52,0,0,1,.2-.06h0a5.06,5.06,0,0,1,4.26,1.4,5.12,5.12,0,0,1-3.38,3c-.15,0-.3,0-.45.08a5.17,5.17,0,0,1-3.7-1.39.16.16,0,0,1,0-.22h0A5.3,5.3,0,0,1,61.32,64.78Z"/><path class="cls-8" d="M53.51,54.79a5.73,5.73,0,0,0-5,.61A4.47,4.47,0,0,0,46,52.67a.35.35,0,0,0-.39.06.45.45,0,0,0-.11.38,3,3,0,0,1-.07,1.72,3.49,3.49,0,0,1-1.15,1.36.38.38,0,0,0-.16.35.39.39,0,0,0,.24.32,4.53,4.53,0,0,0,3.7-.29,5.7,5.7,0,0,0,3.21,3.8,5.84,5.84,0,0,0,5-.64,1,1,0,0,0,.41-1.06,5.72,5.72,0,0,0-3.21-3.88Zm-8.2,1.57a3.7,3.7,0,0,0,.86-1.23,3.43,3.43,0,0,0,.2-1.43,4,4,0,0,1,1.53,2.14,4.13,4.13,0,0,1-2.59.52Zm6.44,3.37-.2-.06h0a5.06,5.06,0,0,1-2.8-3.51,5.15,5.15,0,0,1,4.48-.65c.14.05.27.12.41.18A5.16,5.16,0,0,1,56,58.88a.16.16,0,0,1-.08.2h0A5.3,5.3,0,0,1,51.75,59.73Z"/><path class="cls-5" d="M59.82,64.5A5.74,5.74,0,0,0,62.05,60a4.49,4.49,0,0,0,3.67-.59.37.37,0,0,0,.16-.36.4.4,0,0,0-.26-.3,3,3,0,0,1-1.39-1,3.46,3.46,0,0,1-.5-1.71.37.37,0,0,0-.21-.33.39.39,0,0,0-.39,0A4.48,4.48,0,0,0,61.33,59a5.7,5.7,0,0,0-4.94.57,5.81,5.81,0,0,0-2.23,4.54,1,1,0,0,0,.65.93,5.7,5.7,0,0,0,5-.55Z"/><path class="cls-8" d="M60,64.54A5.71,5.71,0,0,0,62,60a4.45,4.45,0,0,0,3.64-.8.35.35,0,0,0,.13-.37.4.4,0,0,0-.27-.28A3.09,3.09,0,0,1,64,57.57a3.51,3.51,0,0,1-.59-1.68.43.43,0,0,0-.22-.32.43.43,0,0,0-.4,0A4.49,4.49,0,0,0,61.18,59a5.63,5.63,0,0,0-4.9.85,5.76,5.76,0,0,0-2,4.65,1,1,0,0,0,.7.89,5.74,5.74,0,0,0,5-.82Zm2.78-7.87a3.15,3.15,0,0,0,1.76,2.25,3.93,3.93,0,0,1-2.62.24,4.19,4.19,0,0,1,.86-2.49ZM56.6,60.53l.15-.14h0a5,5,0,0,1,4.44-.65,5.1,5.1,0,0,1-1.69,4.19c-.11.1-.24.18-.36.27a5.13,5.13,0,0,1-3.93.41.16.16,0,0,1-.14-.17h0A5.33,5.33,0,0,1,56.6,60.53Z"/><path class="cls-8" d="M34.53,90.37A5.69,5.69,0,0,0,30,92.52a4.46,4.46,0,0,0-3.26-1.79.34.34,0,0,0-.34.19.41.41,0,0,0,0,.39A3,3,0,0,1,26.91,93a3.46,3.46,0,0,1-.66,1.65.41.41,0,0,0,0,.39.41.41,0,0,0,.33.23A4.52,4.52,0,0,0,30,93.77a5.7,5.7,0,0,0,4.25,2.59,5.82,5.82,0,0,0,4.54-2.21A1,1,0,0,0,38.81,93a5.71,5.71,0,0,0-4.28-2.64Zm-7.28,4.09a3.11,3.11,0,0,0,.16-2.86,3.92,3.92,0,0,1,2.13,1.55,4.16,4.16,0,0,1-2.29,1.31Zm7.18,1.14a.64.64,0,0,1-.2,0h0a5,5,0,0,1-3.77-2.43,5.14,5.14,0,0,1,4-2.05c.15,0,.3,0,.45,0a5.23,5.23,0,0,1,3.23,2.28.18.18,0,0,1,0,.23h0A5.3,5.3,0,0,1,34.43,95.6Z"/><path class="cls-8" d="M96.32,108.74a5.75,5.75,0,0,0,4.51-2.15,4.49,4.49,0,0,0,3.26,1.79.34.34,0,0,0,.34-.19.41.41,0,0,0,0-.39,3,3,0,0,1-.48-1.66,3.46,3.46,0,0,1,.66-1.65.41.41,0,0,0,0-.39.42.42,0,0,0-.33-.22,4.52,4.52,0,0,0-3.42,1.46,5.65,5.65,0,0,0-4.25-2.59A5.78,5.78,0,0,0,92.1,105a1,1,0,0,0-.06,1.14,5.72,5.72,0,0,0,4.28,2.65Zm7.28-4.09a3.09,3.09,0,0,0-.16,2.85,4,4,0,0,1-2.13-1.54,4.16,4.16,0,0,1,2.29-1.31Zm-7.18-1.15a.67.67,0,0,1,.2,0h0a5,5,0,0,1,3.77,2.43,5.11,5.11,0,0,1-4,2c-.15,0-.3,0-.45,0a5.19,5.19,0,0,1-3.23-2.27.18.18,0,0,1,0-.23h0A5.37,5.37,0,0,1,96.42,103.5Z"/><line class="cls-2" x1="30.46" y1="104.89" x2="82.34" y2="104.89"/><line class="cls-2" x1="115.45" y1="104.89" x2="122.86" y2="104.89"/><line class="cls-2" x1="43.13" y1="116.72" x2="102.45" y2="116.72"/><circle class="cls-2" cx="41.24" cy="28.88" r="5.41"/><polyline class="cls-1" points="81.3 82.05 39.79 82.05 39.79 89.67 81.3 89.67 81.3 82.05"/><line class="cls-2" x1="104.98" y1="46.61" x2="104.98" y2="73.67"/><line class="cls-2" x1="37.13" y1="81.23" x2="86.02" y2="81.23"/></svg>