<svg id="Layer_1" data-name="Layer 1" xmlns="http://www.w3.org/2000/svg" viewBox="0 0 150 130"><defs><style>.cls-1,.cls-3{opacity:0.7;}.cls-2,.cls-3{fill:#fff;}.cls-4,.cls-5{stroke:#000;stroke-linecap:round;}.cls-4{stroke-linejoin:round;stroke-width:1.1px;}.cls-5{fill:none;stroke-miterlimit:10;stroke-width:1.8px;}.cls-6{fill:#dda15e;opacity:0.3;}</style></defs><g class="cls-1"><path class="cls-2" d="M65.7,88.3a8.46,8.46,0,0,0,2.44-1.22,4.91,4.91,0,0,0,.79-1.39,27.17,27.17,0,0,0,1.93-3.9A6.7,6.7,0,0,1,71.48,80a3.68,3.68,0,0,1,2.34-1.33,13,13,0,0,1,4.89-.18,1.44,1.44,0,0,1,.58.17,1.37,1.37,0,0,1,.45.56,7.31,7.31,0,0,1,.78,2.12c.54,2.73-.44,5.6.19,8.3a.28.28,0,0,1,0,.2.3.3,0,0,1-.15.12,7,7,0,0,1-3.27.58A31.18,31.18,0,0,1,74,90.1a23.79,23.79,0,0,0-4.91-.3,3.76,3.76,0,0,1-.75,0,2.76,2.76,0,0,1-.54-.16l-1.54-.54"/></g><rect class="cls-3" x="36.62" y="88.33" width="67.99" height="24.68" rx="10"/><path class="cls-4" d="M43.72,96.32c-1.72,0-3.07,1.94-3.07,4.41a6,6,0,0,0,.32,2l.63-.37a5.27,5.27,0,0,1-.24-1.61c0-2,1.06-3.71,2.36-3.71,1.07,0,2,1.15,2.26,2.71h.72C46.4,97.75,45.19,96.32,43.72,96.32Z"/><rect class="cls-4" x="65.68" y="105.24" width="8.84" height="0.71"/><rect class="cls-4" x="74.52" y="93.61" width="19.68" height="0.71"/><path class="cls-4" d="M43.72,113.28H96.55c4.76,0,8.49-5.51,8.49-12.55s-3.73-12.54-8.49-12.54H83a2.36,2.36,0,0,1-2.36-2.36V80.41c0-1.72-2.24-3.06-5.1-3.06s-5.09,1.34-5.09,3.06a7.76,7.76,0,0,1-2,5.13l-.83.93-.73-1a13.11,13.11,0,0,1-2.54-7.77V72.64H105v-.71h-4.36l-.36-.12a10.93,10.93,0,0,1-7.48-10.37v-.35h-17v.35a10.92,10.92,0,0,1-7.47,10.37l-.37.12H64.39V68.22c0-2-4-3.7-9.93-4.24l-.91-.08v-9l1.51.87a4.31,4.31,0,0,0,2.2.62A4.42,4.42,0,0,0,61.68,52a4.29,4.29,0,0,0-.12-1l-.17-.67.56-.39a5.74,5.74,0,0,0,.13-9.3l-.4-.3V39.8a5.74,5.74,0,0,0-6.91-5.68l-.54.11-.39-.39a8.38,8.38,0,0,0-6.06-2.56,8.49,8.49,0,0,0-8.48,8.49v.5l-.4.32a5.74,5.74,0,0,0,.13,9.3l.56.39-.17.67a4.29,4.29,0,0,0-.12,1,4.42,4.42,0,0,0,4.42,4.42,4.31,4.31,0,0,0,2.2-.62l1.51-.87v9l-.91.08c-5.94.54-9.93,2.25-9.93,4.24v3.71H23v.71H36.59V77.7a13.21,13.21,0,0,1-13.2,13.2H23v.71h.35A13.93,13.93,0,0,0,37.3,77.7V69.89l1.44.72c2.53,1.27,6.92,2,11.75,2s9.22-.76,11.74-2l1.45-.72V77.7a13.81,13.81,0,0,0,2.7,8.22l.72,1L66,87.42a7.76,7.76,0,0,1-3.33.77H53.55V85.48h-.71v2.71H43.72c-.22,0-.43,0-.64,0l-1.55.17L42,86.93a15.09,15.09,0,0,0,.39-1.51l.13-.62,1.38-.35A5.54,5.54,0,0,0,48,80.06h-.72A4.82,4.82,0,0,1,44,83.68l-1.29.4V77.35H42v5.39a12.72,12.72,0,0,1-1.75,6.4l-.11.18-.17.13c-2.93,2.1-4.75,6.42-4.75,11.28C35.23,107.77,39,113.28,43.72,113.28ZM82,61.8h10.1l.09.89a11.6,11.6,0,0,0,3.91,7.49l2,1.75h-6.8L91,71.6a13.62,13.62,0,0,1-3-5.2l-.69.15a14.56,14.56,0,0,0,1.83,3.82l1,1.56H78.57l1.05-1.56A14.18,14.18,0,0,0,82,62.78Zm-9.4,8.38a11.6,11.6,0,0,0,3.91-7.49l.09-.89h4.7l0,1a13.57,13.57,0,0,1-3.55,8.78l-.3.32H70.61ZM43.72,55.67a3.69,3.69,0,0,1-3.29-5.4l.17-.33-.34-.15a5.09,5.09,0,0,1-3-4.6,5,5,0,0,1,2.56-4.38l.2-.12,0-.22c0-.24,0-.47,0-.7A7.77,7.77,0,0,1,53.84,34.9l.15.2.24-.09a5,5,0,0,1,1.68-.31A5.07,5.07,0,0,1,61,39.77a3.88,3.88,0,0,1,0,.48l-.06.42.21.12a5,5,0,0,1-.37,9l-.33.16.17.33a3.69,3.69,0,0,1-3.29,5.4A3.72,3.72,0,0,1,53.55,52V46.69l1.9-1.9-.5-.5-2.11,2.1V63.85l-1,0c-.89,0-1.77,0-2.66,0l-1,0V42.62l1.9-1.9-.5-.5L47.78,42,46,40.22l-.5.5,1.9,1.9V52A3.72,3.72,0,0,1,43.72,55.67Zm19.9,12.89c-.58,1.62-5.76,3.37-13.13,3.37s-12.65-1.76-13.15-3.39l0-.44,0-.14c.49-1.66,5.65-3.45,13.16-3.45S63,66.26,63.62,67.88l.12.34Zm11.93,9.5c2.38,0,4.39,1.08,4.39,2.35s-2,2.36-4.39,2.36-4.38-1.08-4.38-2.36S73.18,78.06,75.55,78.06ZM62.68,88.9a8.5,8.5,0,0,0,8-5.69l.39-1.11,1,.57a7.14,7.14,0,0,0,3.44.81,7.71,7.71,0,0,0,3-.57l1.39-.6v3.52A3.08,3.08,0,0,0,83,88.9H96.55c4.29,0,7.78,5.31,7.78,11.83s-3.49,11.84-7.78,11.84H47.16l1.56-1.68a15,15,0,0,0,3.48-10.16,15,15,0,0,0-3.48-10.15L47.16,88.9Zm-19,0c4.28,0,7.77,5.31,7.77,11.83S48,112.57,43.72,112.57s-7.78-5.31-7.78-11.84S39.43,88.9,43.72,88.9Z"/><rect class="cls-4" x="58.26" y="77.35" width="0.71" height="6.13"/><circle cx="74.68" cy="105.59" r="0.9"/><circle cx="74.43" cy="93.96" r="0.9"/><circle cx="46.35" cy="99.77" r="0.9"/><circle cx="53.2" cy="85.43" r="0.9"/><circle cx="58.62" cy="83.48" r="0.9"/><circle cx="58.62" cy="77.35" r="0.9"/><circle cx="47.72" cy="79.9" r="0.9"/><circle cx="22.97" cy="91.25" r="0.9"/><circle cx="22.97" cy="72.28" r="0.9"/><circle cx="49.84" cy="40.42" r="0.9"/><circle cx="87.64" cy="66.35" r="0.9"/><circle cx="105.04" cy="72.28" r="0.9"/><circle cx="45.73" cy="40.42" r="0.9"/><circle cx="55.25" cy="44.49" r="0.9"/><circle cx="42.37" cy="77.38" r="0.9"/><circle cx="41.32" cy="102.65" r="0.9"/><circle cx="94.2" cy="93.96" r="0.9"/><circle cx="65.68" cy="105.59" r="0.9"/><line class="cls-5" x1="114.24" y1="72.28" x2="130.02" y2="72.28"/><path class="cls-6" d="M30.29,127h89.4a70.07,70.07,0,1,0-89.4,0Z"/></svg>