<svg id="Layer_1" data-name="Layer 1" xmlns="http://www.w3.org/2000/svg" viewBox="0 0 150 130"><defs><style>.cls-1{fill:#e8cbae;}.cls-2{fill:#f8efe7;}.cls-3,.cls-4{stroke:#000;stroke-linecap:round;}.cls-3{stroke-linejoin:round;stroke-width:1.1px;}.cls-4{fill:none;stroke-miterlimit:10;stroke-width:1.8px;}</style></defs><path class="cls-1" d="M30.3,127h89.4a70.07,70.07,0,1,0-89.4,0Z"/><path class="cls-2" d="M65.71,88.29a8.46,8.46,0,0,0,2.44-1.22,4.77,4.77,0,0,0,.79-1.39,27.06,27.06,0,0,0,1.93-3.89A6.77,6.77,0,0,1,71.49,80a3.65,3.65,0,0,1,2.34-1.33,13.41,13.41,0,0,1,4.89-.18,1.46,1.46,0,0,1,.58.18,1.34,1.34,0,0,1,.45.55,7.26,7.26,0,0,1,.78,2.13c.54,2.72-.44,5.59.19,8.29a.28.28,0,0,1,0,.2.26.26,0,0,1-.15.12,6.9,6.9,0,0,1-3.27.58,26.77,26.77,0,0,1-3.33-.4,24.5,24.5,0,0,0-4.91-.3,3.76,3.76,0,0,1-.75,0,3.63,3.63,0,0,1-.54-.15l-1.54-.55"/><rect class="cls-2" x="36.63" y="88.32" width="67.99" height="24.68" rx="10"/><path class="cls-3" d="M43.73,96.31c-1.72,0-3.07,1.94-3.07,4.42a6.13,6.13,0,0,0,.32,2l.63-.38a5.2,5.2,0,0,1-.24-1.6c0-2,1.06-3.71,2.36-3.71,1.07,0,2,1.15,2.26,2.71h.72C46.41,97.75,45.2,96.31,43.73,96.31Z"/><rect class="cls-3" x="65.69" y="105.23" width="8.84" height="0.71"/><rect class="cls-3" x="74.53" y="93.6" width="19.68" height="0.71"/><path class="cls-3" d="M43.73,113.28H96.56c4.76,0,8.49-5.51,8.49-12.55s-3.73-12.55-8.49-12.55H83a2.36,2.36,0,0,1-2.36-2.35V80.41c0-1.72-2.24-3.07-5.1-3.07s-5.09,1.35-5.09,3.07a7.72,7.72,0,0,1-2,5.12l-.83.94-.73-1A13.08,13.08,0,0,1,64.4,77.7V72.63h40.65v-.71h-4.36l-.37-.12a10.92,10.92,0,0,1-7.47-10.36v-.36h-17v.36A10.9,10.9,0,0,1,68.42,71.8l-.37.12H64.4V68.21c0-2-4-3.69-9.93-4.24l-.91-.08v-9l1.51.88a4.3,4.3,0,0,0,2.2.61A4.42,4.42,0,0,0,61.69,52a4.29,4.29,0,0,0-.12-1l-.17-.66.56-.4a5.73,5.73,0,0,0,.13-9.29l-.4-.3v-.5a5.74,5.74,0,0,0-6.91-5.68l-.54.12-.39-.4a8.38,8.38,0,0,0-6.06-2.55,8.48,8.48,0,0,0-8.48,8.48v.5l-.4.33A5.73,5.73,0,0,0,39,49.88l.56.4-.17.66a4.29,4.29,0,0,0-.12,1,4.42,4.42,0,0,0,4.42,4.42,4.3,4.3,0,0,0,2.2-.61l1.51-.88v9l-.91.08c-5.94.55-9.93,2.25-9.93,4.24v3.71H23.05v.71H36.6V77.7A13.21,13.21,0,0,1,23.4,90.89h-.35v.71h.35A13.92,13.92,0,0,0,37.31,77.7V69.88l1.44.73c2.53,1.27,6.92,2,11.75,2s9.22-.75,11.74-2l1.45-.73V77.7a13.81,13.81,0,0,0,2.7,8.21l.72,1L66,87.41a7.76,7.76,0,0,1-3.33.77H53.56V85.47h-.71v2.71H43.73a4.48,4.48,0,0,0-.64,0l-1.55.17L42,86.92a14.42,14.42,0,0,0,.39-1.51l.13-.62,1.38-.34a5.55,5.55,0,0,0,4.12-4.4h-.72A4.81,4.81,0,0,1,44,83.67l-1.29.4V77.34H42v5.4a12.69,12.69,0,0,1-1.75,6.39l-.11.19-.17.12c-2.93,2.1-4.75,6.42-4.75,11.29C35.24,107.77,39,113.28,43.73,113.28ZM82,61.79h10.1l.09.9a11.6,11.6,0,0,0,3.91,7.48l2,1.75h-6.8L91,71.6a13.66,13.66,0,0,1-3-5.21l-.69.16a14.56,14.56,0,0,0,1.83,3.82l1,1.55H78.58l1-1.55A14.21,14.21,0,0,0,82,62.77Zm-9.4,8.38a11.6,11.6,0,0,0,3.91-7.48l.09-.9h4.7l0,1a13.55,13.55,0,0,1-3.55,8.78l-.3.32H70.62ZM43.73,55.66a3.69,3.69,0,0,1-3.29-5.4l.17-.33-.34-.15a5.08,5.08,0,0,1-3-4.6,5,5,0,0,1,2.56-4.38l.2-.11,0-.23c0-.23,0-.46,0-.7a7.77,7.77,0,0,1,13.83-4.87l.15.2.24-.08a5,5,0,0,1,1.68-.31A5.07,5.07,0,0,1,61,39.76a3.89,3.89,0,0,1,0,.49l-.06.42.21.11a5,5,0,0,1-.37,9l-.33.15.17.33a3.71,3.71,0,1,1-7,1.69V46.68l1.9-1.9-.5-.5-2.11,2.11V63.84l-1,0c-.88,0-1.76,0-2.65,0l-1,0V42.62l1.9-1.9-.5-.5L47.79,42,46,40.22l-.5.5,1.9,1.9V52A3.72,3.72,0,0,1,43.73,55.66Zm19.9,12.89c-.58,1.62-5.77,3.37-13.13,3.37s-12.65-1.76-13.15-3.39l0-.43,0-.15C37.82,66.29,43,64.5,50.5,64.5s12.55,1.75,13.13,3.38l.12.33Zm11.93,9.5c2.38,0,4.39,1.08,4.39,2.36s-2,2.35-4.39,2.35-4.38-1.08-4.38-2.35S73.19,78.05,75.56,78.05ZM62.69,88.89a8.49,8.49,0,0,0,8-5.68l.39-1.12,1,.57a7.11,7.11,0,0,0,3.44.81,7.71,7.71,0,0,0,3-.57L80,82.3v3.53A3.07,3.07,0,0,0,83,88.89H96.56c4.29,0,7.78,5.31,7.78,11.84s-3.49,11.84-7.78,11.84H47.17l1.56-1.68a15,15,0,0,0,3.48-10.16,15,15,0,0,0-3.48-10.16l-1.56-1.68Zm-19,0c4.28,0,7.77,5.31,7.77,11.84S48,112.57,43.73,112.57,36,107.26,36,100.73,39.44,88.89,43.73,88.89Z"/><rect class="cls-3" x="58.27" y="77.34" width="0.71" height="6.13"/><circle cx="74.69" cy="105.59" r="0.9"/><circle cx="74.44" cy="93.95" r="0.9"/><circle cx="46.36" cy="99.76" r="0.9"/><circle cx="53.21" cy="85.42" r="0.9"/><circle cx="58.63" cy="83.47" r="0.9"/><circle cx="58.63" cy="77.34" r="0.9"/><circle cx="47.73" cy="79.89" r="0.9"/><circle cx="22.98" cy="91.24" r="0.9"/><circle cx="22.98" cy="72.28" r="0.9"/><circle cx="49.85" cy="40.42" r="0.9"/><circle cx="87.65" cy="66.34" r="0.9"/><circle cx="105.05" cy="72.28" r="0.9"/><circle cx="45.74" cy="40.42" r="0.9"/><circle cx="55.26" cy="44.48" r="0.9"/><circle cx="42.38" cy="77.37" r="0.9"/><circle cx="41.33" cy="102.65" r="0.9"/><circle cx="94.21" cy="93.95" r="0.9"/><circle cx="65.69" cy="105.59" r="0.9"/><line class="cls-4" x1="114.25" y1="72.28" x2="130.03" y2="72.28"/></svg>