<?xml version="1.0" encoding="UTF-8"?>
<svg xmlns="http://www.w3.org/2000/svg" viewBox="0 0 440 502.29">
  <defs>
    <style>
      .cls-1 {
        fill: #f3a900;
      }

      .cls-2 {
        fill: #f7ce5a;
      }

      .cls-3 {
        fill: #fff;
      }

      .cls-4 {
        fill: #6ba5dc;
      }

      .cls-5 {
        fill: #6c757d;
      }

      .cls-6 {
        fill: #666c80;
      }

      .cls-7 {
        fill: #4c5c68;
      }

      .cls-8 {
        fill: #4a97d1;
      }

      .cls-9, .cls-10, .cls-11 {
        mix-blend-mode: multiply;
      }

      .cls-12 {
        stroke-dasharray: 0 0 1.01 4.02;
      }

      .cls-12, .cls-13, .cls-14, .cls-10, .cls-11 {
        fill: none;
      }

      .cls-12, .cls-13, .cls-10, .cls-11 {
        stroke: #404040;
        stroke-linecap: round;
        stroke-miterlimit: 10;
      }

      .cls-14 {
        stroke: #6c757d;
        stroke-linejoin: round;
        stroke-width: .75px;
      }

      .cls-10 {
        stroke-dasharray: 0 0 1 4;
      }

      .cls-15 {
        isolation: isolate;
      }
    </style>
  </defs>
  <g class="cls-15">
    <g id="Layer_1" data-name="Layer 1">
      <rect class="cls-3" x="-3010.58" y="-371.91" width="6217.85" height="1265.86"/>
      <g>
        <path class="cls-1" d="m120.73,84.94c0-.5-.18-.89-.53-1.16-.35-.27-.99-.54-1.9-.82-.92-.28-1.65-.58-2.19-.92-1.04-.65-1.55-1.5-1.55-2.55,0-.92.37-1.67,1.12-2.27.75-.59,1.72-.89,2.91-.89.79,0,1.5.15,2.12.44.62.29,1.11.71,1.46,1.25.35.54.53,1.14.53,1.79h-1.97c0-.59-.19-1.06-.56-1.39-.37-.34-.91-.5-1.6-.5-.65,0-1.15.14-1.5.41-.36.28-.54.66-.54,1.16,0,.42.19.76.58,1.04.39.28,1.02.55,1.91.81.89.26,1.6.56,2.13.9.54.34.93.72,1.18,1.16.25.44.38.94.38,1.53,0,.95-.36,1.7-1.09,2.26-.73.56-1.71.84-2.96.84-.82,0-1.58-.15-2.27-.46-.69-.3-1.23-.73-1.61-1.26-.38-.54-.57-1.16-.57-1.88h1.98c0,.65.21,1.15.64,1.5.43.35,1.04.53,1.84.53.69,0,1.2-.14,1.55-.42.35-.28.52-.65.52-1.11Z"/>
        <path class="cls-1" d="m123.9,83.57c0-.83.16-1.57.49-2.24s.79-1.17,1.38-1.53c.59-.36,1.28-.54,2.05-.54,1.14,0,2.07.37,2.78,1.1s1.09,1.71,1.15,2.92v.45c0,.83-.15,1.58-.47,2.23s-.78,1.16-1.38,1.52c-.6.36-1.29.54-2.07.54-1.19,0-2.15-.4-2.86-1.19-.72-.79-1.07-1.85-1.07-3.18v-.09Zm1.9.16c0,.87.18,1.55.54,2.04s.86.74,1.5.74,1.14-.25,1.5-.75c.36-.5.54-1.23.54-2.2,0-.85-.18-1.53-.55-2.03s-.87-.75-1.5-.75-1.11.25-1.48.74c-.36.49-.55,1.23-.55,2.21Z"/>
        <path class="cls-1" d="m135.38,87.87h-1.9v-12h1.9v12Z"/>
        <path class="cls-1" d="m142.5,87.87c-.08-.16-.16-.42-.22-.79-.6.63-1.34.95-2.22.95s-1.54-.24-2.08-.73c-.54-.48-.8-1.08-.8-1.8,0-.9.33-1.59,1-2.07.67-.48,1.63-.72,2.87-.72h1.16v-.55c0-.44-.12-.79-.37-1.05-.25-.26-.62-.39-1.12-.39-.43,0-.79.11-1.06.32-.28.22-.41.49-.41.82h-1.9c0-.46.15-.9.46-1.3.31-.4.73-.72,1.25-.95.53-.23,1.12-.34,1.77-.34.99,0,1.78.25,2.37.75.59.5.89,1.2.91,2.1v3.81c0,.76.11,1.37.32,1.82v.13h-1.94Zm-2.09-1.37c.38,0,.73-.09,1.06-.27.33-.18.58-.43.75-.73v-1.59h-1.02c-.7,0-1.23.12-1.59.37-.35.24-.53.59-.53,1.04,0,.36.12.66.36.87.24.22.57.32.97.32Zm1.05-10.63h2.16l-2.16,2.37h-1.52s1.52-2.37,1.52-2.37Z"/>
        <path class="cls-1" d="m150.53,81.15c-.25-.04-.51-.06-.77-.06-.87,0-1.46.33-1.76,1v5.78h-1.9v-8.45h1.81l.05.95c.46-.73,1.09-1.1,1.91-1.1.27,0,.49.04.67.11v1.78Z"/>
        <path class="cls-1" d="m153.49,79.42l.05.98c.62-.76,1.45-1.13,2.46-1.13,1.76,0,2.66,1.01,2.69,3.02v5.59h-1.9v-5.48c0-.54-.12-.93-.35-1.19-.23-.26-.61-.39-1.14-.39-.77,0-1.34.35-1.71,1.04v6.02h-1.9v-8.45h1.79Z"/>
        <path class="cls-1" d="m162.67,87.87h-1.9v-8.45h1.9v8.45Zm-.36-11.95h2.16l-2.16,2.37h-1.52s1.52-2.37,1.52-2.37Z"/>
        <path class="cls-1" d="m172.54,88.03c-1.2,0-2.18-.38-2.93-1.14-.75-.76-1.12-1.77-1.12-3.03v-.23c0-.84.16-1.6.49-2.26.33-.66.78-1.18,1.37-1.55.59-.37,1.24-.55,1.97-.55,1.15,0,2.04.37,2.67,1.1.63.73.94,1.77.94,3.12v.77h-5.52c.06.7.29,1.25.7,1.66.41.41.92.61,1.54.61.87,0,1.58-.35,2.12-1.05l1.02.98c-.34.51-.79.9-1.36,1.18-.57.28-1.2.42-1.9.42Zm-.23-7.24c-.52,0-.94.18-1.26.55-.32.36-.52.87-.61,1.52h3.62v-.14c-.04-.64-.21-1.12-.51-1.44-.3-.33-.71-.49-1.23-.49Z"/>
        <path class="cls-1" d="m179.42,87.87h-1.9v-12h1.9v12Z"/>
        <path class="cls-1" d="m185.21,88.03c-1.2,0-2.18-.38-2.93-1.14-.75-.76-1.12-1.77-1.12-3.03v-.23c0-.84.16-1.6.49-2.26.33-.66.78-1.18,1.37-1.55.59-.37,1.24-.55,1.97-.55,1.15,0,2.04.37,2.67,1.1.63.73.94,1.77.94,3.12v.77h-5.52c.06.7.29,1.25.7,1.66.41.41.92.61,1.54.61.87,0,1.58-.35,2.12-1.05l1.02.98c-.34.51-.79.9-1.36,1.18-.57.28-1.2.42-1.9.42Zm-.23-7.24c-.52,0-.94.18-1.26.55-.32.36-.52.87-.61,1.52h3.62v-.14c-.04-.64-.21-1.12-.51-1.44-.3-.33-.71-.49-1.23-.49Z"/>
        <path class="cls-1" d="m192.82,84.25l-.84.87v2.76h-1.9v-12h1.9v6.92l.59-.74,2.34-2.63h2.28l-3.14,3.52,3.48,4.93h-2.2l-2.51-3.62Z"/>
        <path class="cls-1" d="m200.8,77.36v2.05h1.49v1.41h-1.49v4.72c0,.32.06.56.19.7.13.14.36.21.68.21.22,0,.44-.03.66-.08v1.47c-.43.12-.85.18-1.25.18-1.46,0-2.19-.8-2.19-2.41v-4.79h-1.39v-1.41h1.39v-2.05h1.9Z"/>
        <path class="cls-1" d="m208.17,81.15c-.25-.04-.51-.06-.77-.06-.87,0-1.46.33-1.76,1v5.78h-1.9v-8.45h1.81l.05.95c.46-.73,1.09-1.1,1.91-1.1.27,0,.49.04.67.11v1.78Z"/>
        <path class="cls-1" d="m214.42,87.87c-.08-.16-.16-.42-.22-.79-.6.63-1.34.95-2.22.95s-1.54-.24-2.08-.73c-.54-.48-.8-1.08-.8-1.8,0-.9.33-1.59,1-2.07.67-.48,1.63-.72,2.87-.72h1.16v-.55c0-.44-.12-.79-.37-1.05-.25-.26-.62-.39-1.12-.39-.43,0-.79.11-1.06.32-.28.22-.41.49-.41.82h-1.9c0-.46.15-.9.46-1.3.31-.4.73-.72,1.25-.95.53-.23,1.12-.34,1.77-.34.99,0,1.78.25,2.37.75.59.5.89,1.2.91,2.1v3.81c0,.76.11,1.37.32,1.82v.13h-1.94Zm-2.09-1.37c.38,0,.73-.09,1.06-.27.33-.18.58-.43.75-.73v-1.59h-1.02c-.7,0-1.23.12-1.59.37-.35.24-.53.59-.53,1.04,0,.36.12.66.36.87.24.22.57.32.97.32Zm1.05-10.63h2.16l-2.16,2.37h-1.52s1.52-2.37,1.52-2.37Z"/>
        <path class="cls-1" d="m222.45,81.15c-.25-.04-.51-.06-.77-.06-.87,0-1.46.33-1.76,1v5.78h-1.9v-8.45h1.81l.05.95c.46-.73,1.09-1.1,1.91-1.1.27,0,.49.04.67.11v1.78Z"/>
        <path class="cls-1" d="m225.41,79.42l.05.98c.62-.76,1.45-1.13,2.46-1.13,1.76,0,2.66,1.01,2.69,3.02v5.59h-1.9v-5.48c0-.54-.12-.93-.35-1.19-.23-.26-.61-.39-1.14-.39-.77,0-1.34.35-1.71,1.04v6.02h-1.9v-8.45h1.79Z"/>
        <path class="cls-1" d="m235.51,85.15l1.72-5.73h2.02l-3.36,9.73c-.52,1.42-1.39,2.13-2.62,2.13-.28,0-.58-.05-.91-.14v-1.48l.36.02c.48,0,.84-.09,1.08-.26.24-.17.43-.47.57-.88l.27-.73-2.97-8.41h2.05l1.79,5.73Z"/>
      </g>
      <g>
        <path d="m2.08,11.1h2.5l1.07,5.63c.17.87.37,2.33.49,3.31h.07c.12-.99.32-2.45.49-3.31l1.07-5.63h2.5l-2.82,11.9h-2.55l-2.82-11.9Z"/>
        <path d="m14.83,19.46l-2.8-8.36h2.5l.97,3.3c.12.39.39,1.33.51,1.9h.07c.14-.58.41-1.51.54-1.96l.94-3.25h2.5l-2.81,8.36v3.54h-2.41v-3.54Zm1.63-11.83h1.92l-1.92,2.33h-1.6l1.6-2.33Z"/>
        <path d="m26.07,19h-.85v3.99h-2.41v-11.9h3.45c2.36,0,3.76,1.46,3.76,3.96,0,1.61-.6,2.8-1.65,3.43l2.24,4.5h-2.63l-1.9-3.99Zm-.85-2.29h1c.85,0,1.31-.58,1.31-1.65s-.46-1.67-1.31-1.67h-1v3.31Z"/>
        <path d="m33.11,19.14v-4.18c0-2.55,1.44-4.06,3.86-4.06s3.86,1.51,3.86,4.06v4.18c0,2.55-1.44,4.06-3.86,4.06s-3.86-1.51-3.86-4.06Zm5.22,0v-4.18c0-1.12-.46-1.72-1.36-1.72s-1.36.59-1.36,1.72v4.18c0,1.12.46,1.72,1.36,1.72s1.36-.6,1.36-1.72Z"/>
        <path d="m51.55,19.45c0,2.12-1.46,3.55-3.5,3.55h-3.76v-11.9h3.71c1.84,0,3.14,1.36,3.14,3.38,0,.9-.37,1.85-1,2.43.88.51,1.41,1.46,1.41,2.53Zm-4.84-6.07v2.48h.95c.68,0,1.04-.44,1.04-1.27s-.34-1.21-1.12-1.21h-.87Zm2.36,6.05c0-.87-.49-1.31-1.39-1.31h-.97v2.6h.92c.95,0,1.44-.44,1.44-1.29Z"/>
        <path d="m58.78,21.03h-2.52l-.39,1.97h-2.5l2.86-11.9h2.58l2.86,11.9h-2.5l-.39-1.97Zm-.48-2.29l-.27-1.36c-.15-.85-.36-2.29-.48-3.26h-.07c-.12.97-.31,2.41-.48,3.26l-.27,1.36h1.56Z"/>
        <path d="m68.57,11.1h2.5l1.07,5.63c.17.87.37,2.33.49,3.31h.07c.12-.99.32-2.45.49-3.31l1.07-5.63h2.5l-2.82,11.9h-2.55l-2.82-11.9Z"/>
        <path d="m92.05,15.14c0,2.53-1.46,4.03-3.93,4.03h-1.04v3.82h-2.41v-11.9h3.45c2.46,0,3.93,1.5,3.93,4.05Zm-2.48,0c0-1.16-.51-1.75-1.48-1.75h-1v3.48h1c.97,0,1.48-.59,1.48-1.73Z"/>
        <path d="m98.34,19h-.85v3.99h-2.41v-11.9h3.45c2.36,0,3.76,1.46,3.76,3.96,0,1.61-.6,2.8-1.65,3.43l2.24,4.5h-2.63l-1.9-3.99Zm-.85-2.29h1c.85,0,1.31-.58,1.31-1.65s-.46-1.67-1.31-1.67h-1v3.31Z"/>
        <path d="m105.51,19.21v-8.11h2.46v8.11c0,1.07.43,1.65,1.27,1.65s1.27-.58,1.27-1.65v-8.11h2.46v8.11c0,2.5-1.39,3.99-3.74,3.99s-3.74-1.5-3.74-3.99Zm2.24-10.71c0-.88.63-1.5,1.56-1.5s1.56.61,1.56,1.5-.63,1.53-1.56,1.53-1.56-.61-1.56-1.53Zm2.12.02c0-.34-.22-.56-.56-.56s-.56.22-.56.56.22.56.56.56.56-.22.56-.56Z"/>
        <path d="m123.85,19.45c0,2.12-1.46,3.55-3.5,3.55h-3.76v-11.9h3.71c1.84,0,3.15,1.36,3.15,3.38,0,.9-.37,1.85-1,2.43.88.51,1.41,1.46,1.41,2.53Zm-4.84-6.07v2.48h.95c.68,0,1.04-.44,1.04-1.27s-.34-1.21-1.12-1.21h-.87Zm2.36,6.05c0-.87-.49-1.31-1.39-1.31h-.97v2.6h.92c.95,0,1.44-.44,1.44-1.29Z"/>
        <path d="m133.29,20.7v2.29h-6.31v-11.9h6.14v2.29h-3.72v2.46h3.38v2.21h-3.38v2.63h3.89Zm-4.01-10.74l-1.38-2.33h1.51l.75,1.14.73-1.14h1.51l-1.38,2.33h-1.75Z"/>
        <path d="m143.95,11.1v11.9h-2.43v-4.84h-2.45v4.84h-2.43v-11.9h2.43v4.76h2.45v-4.76h2.43Z"/>
        <path d="m147.55,19.21v-8.11h2.46v8.11c0,1.07.43,1.65,1.27,1.65s1.27-.58,1.27-1.65v-8.11h2.46v8.11c0,2.5-1.39,3.99-3.74,3.99s-3.74-1.5-3.74-3.99Z"/>
        <path d="m167,19h-.85v3.99h-2.41v-11.9h3.45c2.36,0,3.76,1.46,3.76,3.96,0,1.61-.6,2.8-1.65,3.43l2.24,4.5h-2.63l-1.9-3.99Zm-.85-2.29h1c.85,0,1.31-.58,1.31-1.65s-.46-1.67-1.31-1.67h-1v3.31Z"/>
        <path d="m174.04,19.14v-4.18c0-2.55,1.44-4.06,3.86-4.06s3.86,1.51,3.86,4.06v4.18c0,2.55-1.44,4.06-3.86,4.06s-3.86-1.51-3.86-4.06Zm5.22,0v-4.18c0-1.12-.46-1.72-1.36-1.72s-1.36.59-1.36,1.72v4.18c0,1.12.46,1.72,1.36,1.72s1.36-.6,1.36-1.72Z"/>
        <path d="m188.27,18.49l-.66,1.07v3.43h-2.38v-11.9h2.38v4.56l.61-1.33,1.67-3.23h2.75l-3.03,5.2,3.54,6.7h-2.72l-2.16-4.5Z"/>
        <path d="m195.7,19.21v-8.11h2.46v8.11c0,1.07.43,1.65,1.27,1.65s1.27-.58,1.27-1.65v-8.11h2.46v8.11c0,2.5-1.39,3.99-3.74,3.99s-3.74-1.5-3.74-3.99Z"/>
      </g>
      <g>
        <path class="cls-6" d="m4.5,41.15v3.9h-1.31v-9.95h3.67c1.09,0,1.94.28,2.56.83s.93,1.29.93,2.21c0,.97-.3,1.71-.91,2.23-.6.52-1.47.78-2.59.78h-2.34Zm0-1.07h2.36c.7,0,1.24-.17,1.61-.5s.56-.81.56-1.43-.19-1.07-.56-1.42-.89-.54-1.54-.55h-2.43v3.91Z"/>
        <path class="cls-6" d="m15.4,38.78c-.19-.03-.4-.05-.62-.05-.83,0-1.39.35-1.69,1.06v5.25h-1.26v-7.4h1.23l.02.85c.41-.66,1-.99,1.76-.99.25,0,.43.03.56.1v1.18Z"/>
        <path class="cls-6" d="m21.13,44.31c-.49.58-1.21.87-2.17.87-.79,0-1.39-.23-1.8-.69-.41-.46-.62-1.14-.63-2.03v-4.81h1.26v4.78c0,1.12.46,1.68,1.37,1.68.97,0,1.61-.36,1.93-1.08v-5.38h1.26v7.4h-1.2l-.03-.73Zm-.18-8.97c0,.4-.14.73-.42,1-.28.27-.63.4-1.05.4s-.77-.13-1.05-.4-.42-.6-.42-.99.14-.73.42-1,.63-.42,1.05-.42.77.14,1.05.42.42.61.42,1Zm-2.26,0c0,.21.08.4.23.55s.34.23.56.23.41-.08.56-.23.23-.34.23-.56-.08-.41-.23-.57c-.15-.16-.34-.24-.56-.24s-.42.08-.57.24-.23.35-.23.57Z"/>
        <path class="cls-6" d="m25.47,37.65l.03.82c.54-.64,1.27-.96,2.19-.96,1.03,0,1.74.4,2.11,1.19.25-.36.57-.64.96-.86s.86-.33,1.4-.33c1.62,0,2.45.86,2.47,2.58v4.96h-1.26v-4.88c0-.53-.12-.92-.36-1.19-.24-.26-.65-.39-1.22-.39-.47,0-.86.14-1.17.42-.31.28-.49.66-.54,1.13v4.91h-1.27v-4.85c0-1.08-.53-1.61-1.58-1.61-.83,0-1.4.35-1.7,1.06v5.4h-1.26v-7.4h1.2Z"/>
        <path class="cls-6" d="m39.62,45.18c-1,0-1.82-.33-2.45-.99-.63-.66-.94-1.54-.94-2.64v-.23c0-.73.14-1.39.42-1.97.28-.58.67-1.03,1.18-1.35.5-.33,1.05-.49,1.64-.49.96,0,1.71.32,2.24.95s.8,1.54.8,2.72v.53h-5.01c.02.73.23,1.32.64,1.77.41.45.93.67,1.56.67.45,0,.82-.09,1.13-.27s.58-.42.81-.72l.77.6c-.62.95-1.55,1.43-2.79,1.43Zm-.17-9.47l1.03-1.16h1.09v.07l-1.74,1.87h-.77l-1.72-1.87v-.07h1.07l1.03,1.16Zm.01,2.84c-.51,0-.94.19-1.29.56-.35.37-.56.89-.64,1.56h3.71v-.1c-.04-.64-.21-1.14-.52-1.49-.31-.35-.73-.53-1.26-.53Z"/>
        <path class="cls-6" d="m47.54,38.78c-.19-.03-.4-.05-.62-.05-.83,0-1.39.35-1.69,1.06v5.25h-1.26v-7.4h1.23l.02.85c.41-.66,1-.99,1.76-.99.25,0,.43.03.56.1v1.18Z"/>
        <path class="cls-6" d="m49.9,37.65l.04.93c.56-.71,1.3-1.07,2.21-1.07,1.56,0,2.35.88,2.37,2.65v4.89h-1.26v-4.89c0-.53-.13-.93-.37-1.18s-.61-.38-1.12-.38c-.41,0-.77.11-1.08.33s-.55.51-.72.86v5.27h-1.26v-7.4h1.2Z"/>
        <path class="cls-6" d="m60.99,45.04c-.07-.15-.13-.41-.18-.78-.59.61-1.29.92-2.11.92-.73,0-1.33-.21-1.79-.62-.47-.41-.7-.93-.7-1.57,0-.77.29-1.37.88-1.79.59-.43,1.41-.64,2.47-.64h1.23v-.58c0-.44-.13-.79-.4-1.06-.26-.26-.65-.39-1.17-.39-.45,0-.83.11-1.13.34s-.46.5-.46.83h-1.27c0-.37.13-.73.39-1.07.26-.34.62-.62,1.07-.82s.94-.3,1.48-.3c.85,0,1.52.21,2,.64.48.43.73,1.01.75,1.76v3.4c0,.68.09,1.22.26,1.62v.11h-1.33Zm-2.1-.96c.4,0,.77-.1,1.13-.31s.61-.47.77-.8v-1.52h-.99c-1.55,0-2.32.45-2.32,1.36,0,.4.13.71.4.93s.6.33,1.02.33Zm1.17-9.54h1.53l-1.83,2.01h-1.02s1.32-2.01,1.32-2.01Z"/>
        <path class="cls-6" d="m69.95,43.33l1.83-5.68h1.29l-2.65,7.4h-.96l-2.68-7.4h1.29l1.88,5.68Z"/>
        <path class="cls-6" d="m76.71,43.19l1.72-5.54h1.35l-2.97,8.54c-.46,1.23-1.19,1.85-2.19,1.85l-.24-.02-.47-.09v-1.03l.34.03c.43,0,.76-.09,1-.26s.44-.49.59-.95l.28-.75-2.64-7.31h1.38l1.85,5.54Zm.72-8.65h1.53l-1.83,2.01h-1.02s1.32-2.01,1.32-2.01Z"/>
        <path class="cls-6" d="m84.49,38.78c-.19-.03-.4-.05-.62-.05-.83,0-1.39.35-1.69,1.06v5.25h-1.26v-7.4h1.23l.02.85c.41-.66,1-.99,1.76-.99.25,0,.43.03.56.1v1.18Z"/>
        <path class="cls-6" d="m85.18,41.28c0-.72.14-1.38.43-1.96s.68-1.03,1.19-1.34,1.09-.47,1.74-.47c1.01,0,1.82.35,2.44,1.05s.93,1.62.93,2.78v.09c0,.72-.14,1.37-.41,1.94-.28.57-.67,1.02-1.18,1.34s-1.1.48-1.77.48c-1,0-1.81-.35-2.44-1.05s-.93-1.62-.93-2.77v-.09Zm1.27.15c0,.82.19,1.48.57,1.98s.89.75,1.53.75,1.15-.25,1.53-.75c.38-.5.57-1.21.57-2.12,0-.81-.19-1.47-.58-1.97-.39-.5-.9-.76-1.53-.76s-1.13.25-1.51.75-.57,1.21-.57,2.13Z"/>
        <path class="cls-6" d="m99.76,41.43c0,1.13-.26,2.04-.78,2.72-.52.69-1.22,1.03-2.09,1.03-.93,0-1.66-.33-2.17-.99l-.06.85h-1.16v-10.5h1.26v3.92c.51-.63,1.21-.95,2.11-.95s1.6.34,2.12,1.02.77,1.61.77,2.79v.11Zm-1.26-.14c0-.86-.17-1.53-.5-2s-.81-.7-1.44-.7c-.83,0-1.43.39-1.8,1.16v3.2c.39.77.99,1.16,1.81,1.16.61,0,1.08-.23,1.42-.7s.51-1.18.51-2.12Z"/>
        <path class="cls-6" d="m105.92,45.04c-.07-.15-.13-.41-.18-.78-.59.61-1.29.92-2.11.92-.73,0-1.33-.21-1.79-.62-.47-.41-.7-.93-.7-1.57,0-.77.29-1.37.88-1.79.59-.43,1.41-.64,2.47-.64h1.23v-.58c0-.44-.13-.79-.4-1.06-.26-.26-.65-.39-1.17-.39-.45,0-.83.11-1.13.34s-.46.5-.46.83h-1.27c0-.37.13-.73.39-1.07.26-.34.62-.62,1.07-.82s.94-.3,1.48-.3c.85,0,1.52.21,2,.64.48.43.73,1.01.75,1.76v3.4c0,.68.09,1.22.26,1.62v.11h-1.33Zm-2.1-.96c.4,0,.77-.1,1.13-.31s.61-.47.77-.8v-1.52h-.99c-1.55,0-2.32.45-2.32,1.36,0,.4.13.71.4.93s.6.33,1.02.33Z"/>
        <path class="cls-6" d="m118.68,41.43c0,1.13-.26,2.03-.77,2.72s-1.21,1.03-2.09,1.03-1.6-.29-2.12-.85v3.56h-1.26v-10.24h1.16l.06.82c.52-.64,1.23-.96,2.15-.96s1.59.33,2.11,1,.78,1.6.78,2.8v.12Zm-1.26-.14c0-.83-.18-1.49-.53-1.98s-.84-.72-1.46-.72c-.77,0-1.34.34-1.72,1.02v3.53c.38.67.96,1.01,1.74,1.01.61,0,1.09-.24,1.45-.72.36-.48.54-1.19.54-2.14Z"/>
        <path class="cls-6" d="m119.95,41.28c0-.72.14-1.38.43-1.96s.68-1.03,1.19-1.34,1.09-.47,1.74-.47c1.01,0,1.82.35,2.44,1.05s.93,1.62.93,2.78v.09c0,.72-.14,1.37-.41,1.94-.28.57-.67,1.02-1.18,1.34s-1.1.48-1.77.48c-1,0-1.81-.35-2.44-1.05s-.93-1.62-.93-2.77v-.09Zm1.27.15c0,.82.19,1.48.57,1.98s.89.75,1.53.75,1.15-.25,1.53-.75c.38-.5.57-1.21.57-2.12,0-.81-.19-1.47-.58-1.97-.39-.5-.9-.76-1.53-.76s-1.13.25-1.51.75-.57,1.21-.57,2.13Z"/>
        <path class="cls-6" d="m132.93,37.65l.03.82c.54-.64,1.27-.96,2.19-.96,1.03,0,1.74.4,2.11,1.19.25-.36.57-.64.96-.86s.86-.33,1.4-.33c1.62,0,2.45.86,2.47,2.58v4.96h-1.26v-4.88c0-.53-.12-.92-.36-1.19-.24-.26-.65-.39-1.22-.39-.47,0-.86.14-1.17.42-.31.28-.49.66-.54,1.13v4.91h-1.27v-4.85c0-1.08-.53-1.61-1.58-1.61-.83,0-1.4.35-1.7,1.06v5.4h-1.26v-7.4h1.2Z"/>
        <path class="cls-6" d="m147.08,45.18c-1,0-1.82-.33-2.45-.99-.63-.66-.94-1.54-.94-2.64v-.23c0-.73.14-1.39.42-1.97.28-.58.67-1.03,1.18-1.35.5-.33,1.05-.49,1.64-.49.96,0,1.71.32,2.24.95s.8,1.54.8,2.72v.53h-5.01c.02.73.23,1.32.64,1.77.41.45.93.67,1.56.67.45,0,.82-.09,1.13-.27s.58-.42.81-.72l.77.6c-.62.95-1.55,1.43-2.79,1.43Zm-.17-9.47l1.03-1.16h1.09v.07l-1.74,1.87h-.77l-1.72-1.87v-.07h1.07l1.03,1.16Zm.01,2.84c-.51,0-.94.19-1.29.56-.35.37-.56.89-.64,1.56h3.71v-.1c-.04-.64-.21-1.14-.52-1.49-.31-.35-.73-.53-1.26-.53Z"/>
        <path class="cls-6" d="m155.73,43.08c0-.34-.13-.61-.39-.8-.26-.19-.71-.35-1.35-.49s-1.15-.3-1.52-.49-.65-.42-.83-.68-.27-.58-.27-.94c0-.61.26-1.12.77-1.54s1.17-.63,1.97-.63c.84,0,1.52.22,2.04.65s.78.99.78,1.66h-1.27c0-.35-.15-.64-.44-.9s-.66-.38-1.11-.38-.82.1-1.08.3-.39.46-.39.79c0,.31.12.54.36.69s.68.3,1.31.44,1.14.31,1.53.51.68.43.87.71c.19.28.28.61.28,1.01,0,.66-.26,1.19-.79,1.59-.53.4-1.21.6-2.06.6-.59,0-1.12-.1-1.57-.31s-.81-.5-1.07-.88c-.26-.38-.39-.78-.39-1.22h1.26c.02.42.19.76.51,1.01.32.25.73.37,1.25.37.48,0,.86-.1,1.15-.29.29-.19.43-.45.43-.78Z"/>
        <path class="cls-6" d="m160.03,34.55h1.53l-1.83,2.01h-1.02s1.32-2.01,1.32-2.01Zm-.01,10.49h-1.27v-7.4h1.27v7.4Z"/>
        <path class="cls-6" d="m165.07,44.15c.45,0,.85-.14,1.18-.41s.52-.62.56-1.03h1.2c-.02.42-.17.83-.44,1.21s-.63.69-1.08.92-.92.34-1.43.34c-1.01,0-1.81-.34-2.4-1.01-.59-.67-.89-1.59-.89-2.76v-.21c0-.72.13-1.36.4-1.92s.64-1,1.14-1.31,1.08-.46,1.75-.46c.83,0,1.52.25,2.07.75s.84,1.14.88,1.93h-1.2c-.04-.48-.22-.87-.54-1.18-.33-.31-.73-.46-1.21-.46-.64,0-1.14.23-1.49.69-.35.46-.53,1.13-.53,2.01v.24c0,.85.18,1.51.53,1.97s.85.69,1.5.69Z"/>
        <path class="cls-6" d="m170.82,34.55h1.53l-1.83,2.01h-1.02s1.32-2.01,1.32-2.01Zm-.01,10.49h-1.27v-7.4h1.27v7.4Z"/>
        <path class="cls-6" d="m175.86,44.15c.45,0,.85-.14,1.18-.41s.52-.62.56-1.03h1.2c-.02.42-.17.83-.44,1.21s-.63.69-1.08.92-.92.34-1.43.34c-1.01,0-1.81-.34-2.4-1.01-.59-.67-.89-1.59-.89-2.76v-.21c0-.72.13-1.36.4-1.92s.64-1,1.14-1.31,1.08-.46,1.75-.46c.83,0,1.52.25,2.07.75s.84,1.14.88,1.93h-1.2c-.04-.48-.22-.87-.54-1.18-.33-.31-.73-.46-1.21-.46-.64,0-1.14.23-1.49.69-.35.46-.53,1.13-.53,2.01v.24c0,.85.18,1.51.53,1.97s.85.69,1.5.69Z"/>
        <path class="cls-6" d="m181.48,38.54c.56-.69,1.29-1.03,2.19-1.03,1.56,0,2.35.88,2.37,2.65v4.89h-1.26v-4.89c0-.53-.13-.93-.37-1.18s-.61-.38-1.12-.38c-.41,0-.77.11-1.08.33s-.55.51-.72.86v5.27h-1.26v-10.5h1.26v4Z"/>
        <path class="cls-6" d="m192.59,44.01h4.33v1.03h-5.87v-.93l4.08-5.42h-4.02v-1.05h5.61v.9l-4.12,5.47Z"/>
        <path class="cls-6" d="m202.9,45.04c-.07-.15-.13-.41-.18-.78-.59.61-1.29.92-2.11.92-.73,0-1.33-.21-1.79-.62-.47-.41-.7-.93-.7-1.57,0-.77.29-1.37.88-1.79.59-.43,1.41-.64,2.47-.64h1.23v-.58c0-.44-.13-.79-.4-1.06-.26-.26-.65-.39-1.17-.39-.45,0-.83.11-1.13.34s-.46.5-.46.83h-1.27c0-.37.13-.73.39-1.07.26-.34.62-.62,1.07-.82s.94-.3,1.48-.3c.85,0,1.52.21,2,.64.48.43.73,1.01.75,1.76v3.4c0,.68.09,1.22.26,1.62v.11h-1.33Zm-2.1-.96c.4,0,.77-.1,1.13-.31s.61-.47.77-.8v-1.52h-.99c-1.55,0-2.32.45-2.32,1.36,0,.4.13.71.4.93s.6.33,1.02.33Z"/>
        <path class="cls-6" d="m212.99,38.78c-.19-.03-.4-.05-.62-.05-.83,0-1.39.35-1.69,1.06v5.25h-1.26v-7.4h1.23l.02.85c.41-.66,1-.99,1.76-.99.25,0,.43.03.56.1v1.18Z"/>
        <path class="cls-6" d="m213.68,41.28c0-.72.14-1.38.43-1.96s.68-1.03,1.19-1.34,1.09-.47,1.74-.47c1.01,0,1.82.35,2.44,1.05s.93,1.62.93,2.78v.09c0,.72-.14,1.37-.41,1.94-.28.57-.67,1.02-1.18,1.34s-1.1.48-1.77.48c-1,0-1.81-.35-2.44-1.05s-.93-1.62-.93-2.77v-.09Zm1.27.15c0,.82.19,1.48.57,1.98s.89.75,1.53.75,1.15-.25,1.53-.75c.38-.5.57-1.21.57-2.12,0-.81-.19-1.47-.58-1.97-.39-.5-.9-.76-1.53-.76s-1.13.25-1.51.75-.57,1.21-.57,2.13Z"/>
        <path class="cls-6" d="m224.06,41.62l-.79.83v2.6h-1.26v-10.5h1.26v6.35l.68-.81,2.3-2.43h1.54l-2.88,3.09,3.21,4.31h-1.48l-2.58-3.42Z"/>
        <path class="cls-6" d="m231.52,43.19l1.72-5.54h1.35l-2.97,8.54c-.46,1.23-1.19,1.85-2.19,1.85l-.24-.02-.47-.09v-1.03l.34.03c.43,0,.76-.09,1-.26s.44-.49.59-.95l.28-.75-2.64-7.31h1.38l1.85,5.54Z"/>
        <path class="cls-6" d="m245.58,45.04h-6.52v-.91l3.45-3.83c.51-.58.86-1.05,1.06-1.41.19-.36.29-.74.29-1.12,0-.52-.16-.95-.47-1.28s-.73-.5-1.26-.5c-.63,0-1.12.18-1.47.54-.35.36-.52.86-.52,1.49h-1.26c0-.92.29-1.66.89-2.22s1.38-.85,2.37-.85c.93,0,1.66.24,2.19.73.54.48.81,1.13.81,1.94,0,.98-.62,2.15-1.87,3.5l-2.67,2.89h5v1.03Z"/>
        <path class="cls-6" d="m253.16,40.8c0,1.48-.25,2.58-.76,3.3s-1.3,1.08-2.37,1.08-1.85-.35-2.36-1.06c-.51-.7-.77-1.75-.79-3.15v-1.69c0-1.46.25-2.55.76-3.26s1.3-1.07,2.38-1.07,1.86.34,2.37,1.03c.51.69.77,1.74.78,3.17v1.64Zm-1.26-1.73c0-1.07-.15-1.85-.45-2.34-.3-.49-.78-.73-1.43-.73s-1.12.24-1.42.73-.45,1.24-.46,2.25v2.02c0,1.08.16,1.87.47,2.38.31.51.79.77,1.42.77s1.09-.24,1.39-.72.46-1.24.48-2.28v-2.07Z"/>
        <path class="cls-6" d="m258.94,45.04h-1.27v-8.43l-2.55.94v-1.15l3.62-1.36h.2v10Z"/>
        <path class="cls-6" d="m263.22,40.05l.51-4.96h5.1v1.17h-4.03l-.3,2.71c.49-.29,1.04-.43,1.66-.43.91,0,1.63.3,2.16.9.53.6.8,1.41.8,2.43s-.28,1.83-.83,2.42c-.55.59-1.33.88-2.32.88-.88,0-1.6-.24-2.15-.73s-.87-1.16-.95-2.02h1.2c.08.57.28,1,.61,1.29.33.29.76.43,1.3.43.59,0,1.05-.2,1.38-.6s.5-.96.5-1.66c0-.67-.18-1.2-.54-1.6-.36-.4-.84-.6-1.45-.6-.55,0-.98.12-1.3.36l-.33.27-1.01-.26Z"/>
        <path class="cls-6" d="m277.63,40.59h-6.85v-1.03h6.85v1.03Z"/>
        <path class="cls-6" d="m286.21,45.04h-6.52v-.91l3.45-3.83c.51-.58.86-1.05,1.06-1.41.19-.36.29-.74.29-1.12,0-.52-.16-.95-.47-1.28s-.73-.5-1.26-.5c-.63,0-1.12.18-1.47.54-.35.36-.52.86-.52,1.49h-1.26c0-.92.29-1.66.89-2.22s1.38-.85,2.37-.85c.93,0,1.66.24,2.19.73.54.48.81,1.13.81,1.94,0,.98-.62,2.15-1.87,3.5l-2.67,2.89h5v1.03Z"/>
        <path class="cls-6" d="m293.79,40.8c0,1.48-.25,2.58-.76,3.3s-1.3,1.08-2.37,1.08-1.85-.35-2.36-1.06c-.51-.7-.77-1.75-.79-3.15v-1.69c0-1.46.25-2.55.76-3.26s1.3-1.07,2.38-1.07,1.86.34,2.37,1.03c.51.69.77,1.74.78,3.17v1.64Zm-1.26-1.73c0-1.07-.15-1.85-.45-2.34-.3-.49-.78-.73-1.43-.73s-1.12.24-1.42.73-.45,1.24-.46,2.25v2.02c0,1.08.16,1.87.47,2.38.31.51.79.77,1.42.77s1.09-.24,1.39-.72.46-1.24.48-2.28v-2.07Z"/>
        <path class="cls-6" d="m301.93,45.04h-6.52v-.91l3.45-3.83c.51-.58.86-1.05,1.06-1.41.19-.36.29-.74.29-1.12,0-.52-.16-.95-.47-1.28s-.73-.5-1.26-.5c-.63,0-1.12.18-1.47.54-.35.36-.52.86-.52,1.49h-1.26c0-.92.29-1.66.89-2.22s1.38-.85,2.37-.85c.93,0,1.66.24,2.19.73.54.48.81,1.13.81,1.94,0,.98-.62,2.15-1.87,3.5l-2.67,2.89h5v1.03Z"/>
        <path class="cls-6" d="m309.51,40.8c0,1.48-.25,2.58-.76,3.3s-1.3,1.08-2.37,1.08-1.85-.35-2.36-1.06c-.51-.7-.77-1.75-.79-3.15v-1.69c0-1.46.25-2.55.76-3.26s1.3-1.07,2.38-1.07,1.86.34,2.37,1.03c.51.69.77,1.74.78,3.17v1.64Zm-1.26-1.73c0-1.07-.15-1.85-.45-2.34-.3-.49-.78-.73-1.43-.73s-1.12.24-1.42.73-.45,1.24-.46,2.25v2.02c0,1.08.16,1.87.47,2.38.31.51.79.77,1.42.77s1.09-.24,1.39-.72.46-1.24.48-2.28v-2.07Z"/>
      </g>
    </g>
    <g id="Infografika">
      <g>
        <rect class="cls-2" x="2.48" y="219.19" width="24.69" height="22.53"/>
        <rect class="cls-2" x="31.87" y="189.94" width="24.69" height="51.77"/>
        <rect class="cls-2" x="61.27" y="159.63" width="24.69" height="82.09"/>
        <rect class="cls-2" x="90.66" y="121.32" width="24.69" height="120.4"/>
        <rect class="cls-2" x="120.05" y="119.01" width="24.69" height="122.71"/>
        <rect class="cls-2" x="149.45" y="112.71" width="24.69" height="129"/>
        <rect class="cls-2" x="178.84" y="115.19" width="24.69" height="126.53"/>
        <rect class="cls-2" x="208.23" y="120.91" width="24.69" height="120.81"/>
        <rect class="cls-2" x="237.64" y="145.2" width="24.69" height="96.51"/>
        <rect class="cls-2" x="267.03" y="186.7" width="24.69" height="55.02"/>
        <rect class="cls-2" x="296.42" y="211.57" width="24.69" height="30.15"/>
        <rect class="cls-2" x="325.82" y="223.31" width="24.69" height="18.4"/>
      </g>
      <g>
        <path class="cls-5" d="m4.18,262.32h4.38v1H2.96v-9.24h1.23v8.25Z"/>
        <path class="cls-5" d="m12.62,263.44c-.93,0-1.69-.31-2.27-.92-.58-.61-.88-1.43-.88-2.45v-.22c0-.68.13-1.29.39-1.83.26-.54.62-.95,1.09-1.26.47-.3.97-.45,1.52-.45.89,0,1.59.29,2.08.88.5.59.74,1.43.74,2.53v.49h-4.65c.02.68.21,1.22.59,1.64.38.42.86.63,1.44.63.41,0,.77-.08,1.05-.25.29-.17.54-.39.76-.67l.72.56c-.58.88-1.44,1.33-2.59,1.33Zm-.15-6.16c-.47,0-.87.17-1.19.52-.32.35-.52.83-.6,1.45h3.44v-.09c-.03-.6-.19-1.06-.48-1.39-.29-.33-.68-.49-1.17-.49Z"/>
        <path class="cls-5" d="m16.37,259.82c0-1.05.25-1.9.75-2.54s1.15-.96,1.96-.96,1.44.27,1.91.83v-3.58h1.17v9.75h-1.08l-.06-.74c-.47.58-1.12.86-1.96.86s-1.44-.33-1.95-.98c-.5-.65-.75-1.5-.75-2.55v-.09Zm1.17.13c0,.78.16,1.39.48,1.83.32.44.77.66,1.33.66.74,0,1.29-.33,1.63-1v-3.15c-.35-.65-.89-.97-1.62-.97-.58,0-1.02.22-1.35.67s-.48,1.1-.48,1.97Z"/>
        <path class="cls-5" d="m26.84,263.44c-.93,0-1.69-.31-2.27-.92-.58-.61-.88-1.43-.88-2.45v-.22c0-.68.13-1.29.39-1.83.26-.54.62-.95,1.09-1.26.47-.3.97-.45,1.52-.45.89,0,1.59.29,2.08.88.5.59.74,1.43.74,2.53v.49h-4.65c.02.68.21,1.22.59,1.64.38.42.86.63,1.44.63.41,0,.77-.08,1.05-.25.29-.17.54-.39.76-.67l.72.56c-.58.88-1.44,1.33-2.59,1.33Zm-.15-6.16c-.47,0-.87.17-1.19.52-.32.35-.52.83-.6,1.45h3.44v-.09c-.03-.6-.19-1.06-.48-1.39-.29-.33-.68-.49-1.17-.49Z"/>
        <path class="cls-5" d="m31.98,256.45l.04.86c.52-.66,1.21-.99,2.06-.99,1.45,0,2.18.82,2.2,2.46v4.54h-1.17v-4.54c0-.5-.12-.86-.34-1.1-.22-.24-.57-.36-1.04-.36-.38,0-.72.1-1,.3s-.51.47-.67.8v4.89h-1.17v-6.87h1.11Z"/>
      </g>
      <g>
        <path class="cls-5" d="m114.26,260.38c-.11.98-.48,1.73-1.08,2.26-.61.53-1.41.8-2.42.8-1.09,0-1.97-.39-2.62-1.17-.66-.78-.99-1.83-.99-3.14v-.89c0-.86.15-1.61.46-2.27.31-.65.74-1.15,1.3-1.5s1.21-.52,1.96-.52c.98,0,1.77.27,2.36.82.59.55.94,1.31,1.03,2.28h-1.23c-.11-.74-.34-1.27-.69-1.6-.35-.33-.85-.5-1.48-.5-.78,0-1.39.29-1.83.86-.44.58-.66,1.4-.66,2.46v.9c0,1,.21,1.8.63,2.4.42.59,1,.89,1.76.89.68,0,1.2-.15,1.56-.46.36-.31.6-.84.72-1.6h1.23Zm-3.57-7.92l.95-1.08h1.02v.06l-1.61,1.74h-.72l-1.59-1.74v-.06h1l.96,1.08Z"/>
        <path class="cls-5" d="m118.59,263.44c-.93,0-1.69-.31-2.27-.92-.58-.61-.88-1.43-.88-2.45v-.22c0-.68.13-1.29.39-1.83.26-.54.62-.95,1.09-1.26.47-.3.97-.45,1.52-.45.89,0,1.59.29,2.08.88.5.59.74,1.43.74,2.53v.49h-4.65c.02.68.21,1.22.59,1.64.38.42.86.63,1.44.63.41,0,.77-.08,1.05-.25.29-.17.54-.39.76-.67l.72.56c-.58.88-1.44,1.33-2.59,1.33Zm-.15-6.16c-.47,0-.87.17-1.19.52-.32.35-.52.83-.6,1.45h3.44v-.09c-.03-.6-.19-1.06-.48-1.39-.29-.33-.68-.49-1.17-.49Z"/>
        <path class="cls-5" d="m125.94,257.5c-.18-.03-.37-.04-.58-.04-.77,0-1.29.33-1.57.98v4.88h-1.17v-6.87h1.14l.02.79c.39-.61.93-.92,1.64-.92.23,0,.4.03.52.09v1.09Z"/>
        <path class="cls-5" d="m129.4,261.72l1.7-5.27h1.2l-2.46,6.87h-.9l-2.49-6.87h1.2l1.75,5.27Z"/>
        <path class="cls-5" d="m136.28,263.44c-.93,0-1.69-.31-2.27-.92-.58-.61-.88-1.43-.88-2.45v-.22c0-.68.13-1.29.39-1.83.26-.54.62-.95,1.09-1.26.47-.3.97-.45,1.52-.45.89,0,1.59.29,2.08.88.5.59.74,1.43.74,2.53v.49h-4.65c.02.68.21,1.22.59,1.64.38.42.86.63,1.44.63.41,0,.77-.08,1.05-.25.29-.17.54-.39.76-.67l.72.56c-.58.88-1.44,1.33-2.59,1.33Zm-.15-6.16c-.47,0-.87.17-1.19.52-.32.35-.52.83-.6,1.45h3.44v-.09c-.03-.6-.19-1.06-.48-1.39-.29-.33-.68-.49-1.17-.49Z"/>
        <path class="cls-5" d="m141.43,256.44l.04.86c.52-.66,1.21-.99,2.06-.99,1.45,0,2.18.82,2.2,2.46v4.54h-1.17v-4.54c0-.5-.12-.86-.34-1.1-.22-.24-.57-.36-1.04-.36-.38,0-.72.1-1,.3s-.51.47-.67.8v4.89h-1.17v-6.87h1.11Z"/>
        <path class="cls-5" d="m150.34,263.44c-.93,0-1.69-.31-2.27-.92-.58-.61-.88-1.43-.88-2.45v-.22c0-.68.13-1.29.39-1.83.26-.54.62-.95,1.09-1.26.47-.3.97-.45,1.52-.45.89,0,1.59.29,2.08.88.5.59.74,1.43.74,2.53v.49h-4.65c.02.68.21,1.22.59,1.64.38.42.86.63,1.44.63.41,0,.77-.08,1.05-.25.29-.17.54-.39.76-.67l.72.56c-.58.88-1.44,1.33-2.59,1.33Zm-.15-6.16c-.47,0-.87.17-1.19.52-.32.35-.52.83-.6,1.45h3.44v-.09c-.03-.6-.19-1.06-.48-1.39-.29-.33-.68-.49-1.17-.49Z"/>
        <path class="cls-5" d="m157.14,262.48c.42,0,.79-.13,1.1-.38s.49-.57.52-.95h1.11c-.02.39-.16.77-.41,1.12s-.58.64-1,.85c-.42.21-.86.32-1.32.32-.94,0-1.68-.31-2.23-.94-.55-.62-.83-1.48-.83-2.56v-.2c0-.67.12-1.26.37-1.78s.6-.92,1.06-1.21c.46-.29,1-.43,1.63-.43.77,0,1.41.23,1.92.69.51.46.78,1.06.82,1.8h-1.11c-.03-.44-.2-.81-.5-1.1-.3-.29-.68-.43-1.12-.43-.6,0-1.06.21-1.39.64-.33.43-.49,1.05-.49,1.86v.22c0,.79.16,1.4.49,1.83.33.43.79.64,1.4.64Z"/>
      </g>
      <g>
        <path class="cls-5" d="m301.82,259.7v3.62h-1.22v-9.24h3.41c1.01,0,1.8.26,2.38.77.57.52.86,1.2.86,2.05,0,.9-.28,1.59-.84,2.07-.56.48-1.36.73-2.41.73h-2.18Zm0-1h2.19c.65,0,1.15-.15,1.5-.46.35-.31.52-.75.52-1.33,0-.55-.17-.99-.52-1.32-.35-.33-.82-.5-1.43-.52h-2.26v3.63Z"/>
        <path class="cls-5" d="m311.94,257.5c-.18-.03-.37-.04-.58-.04-.77,0-1.29.33-1.57.98v4.88h-1.17v-6.87h1.14l.02.79c.39-.61.93-.92,1.64-.92.23,0,.4.03.52.09v1.09Z"/>
        <path class="cls-5" d="m312.58,259.82c0-.67.13-1.28.4-1.82.26-.54.63-.95,1.1-1.24.47-.29,1.01-.44,1.62-.44.94,0,1.69.32,2.27.97.58.65.87,1.51.87,2.58v.08c0,.67-.13,1.27-.38,1.8-.26.53-.62.94-1.1,1.24-.48.3-1.02.44-1.64.44-.93,0-1.69-.32-2.26-.97-.58-.65-.87-1.5-.87-2.57v-.08Zm1.18.14c0,.76.18,1.37.53,1.83.35.46.83.69,1.42.69s1.07-.23,1.42-.7c.35-.47.53-1.12.53-1.96,0-.75-.18-1.36-.54-1.83-.36-.47-.83-.7-1.42-.7s-1.05.23-1.4.69c-.36.46-.53,1.12-.53,1.98Z"/>
        <path class="cls-5" d="m324.3,261.49c0-.32-.12-.56-.36-.74-.24-.18-.66-.33-1.25-.45-.59-.13-1.07-.28-1.42-.46-.35-.18-.61-.39-.77-.63-.17-.25-.25-.54-.25-.88,0-.56.24-1.04.71-1.43.48-.39,1.08-.58,1.83-.58.78,0,1.41.2,1.89.6.48.4.73.92.73,1.54h-1.18c0-.32-.14-.6-.41-.83-.27-.23-.62-.35-1.03-.35s-.76.09-1,.28c-.24.19-.36.43-.36.73,0,.28.11.5.34.64.22.14.63.28,1.22.41.59.13,1.06.29,1.42.47.36.18.63.4.81.66.18.26.26.57.26.94,0,.61-.25,1.11-.74,1.48-.49.37-1.13.56-1.91.56-.55,0-1.04-.1-1.46-.29-.42-.19-.75-.47-.99-.82-.24-.35-.36-.73-.36-1.13h1.17c.02.39.18.71.47.94.29.23.68.35,1.17.35.44,0,.8-.09,1.07-.27.27-.18.4-.42.4-.72Z"/>
        <path class="cls-5" d="m327.02,254.62c0-.19.06-.35.17-.48.12-.13.29-.2.52-.2s.4.07.52.2c.12.13.18.29.18.48s-.06.35-.18.48-.29.19-.52.19-.4-.06-.52-.19c-.12-.13-.17-.29-.17-.48Zm1.27,8.69h-1.17v-6.87h1.17v6.87Z"/>
        <path class="cls-5" d="m331.27,256.45l.04.86c.52-.66,1.21-.99,2.06-.99,1.45,0,2.18.82,2.2,2.46v4.54h-1.17v-4.54c0-.5-.12-.86-.34-1.1-.22-.24-.57-.36-1.04-.36-.38,0-.72.1-1,.3s-.51.47-.67.8v4.89h-1.17v-6.87h1.11Z"/>
        <path class="cls-5" d="m340.19,263.44c-.93,0-1.69-.31-2.27-.92-.58-.61-.88-1.43-.88-2.45v-.22c0-.68.13-1.29.39-1.83.26-.54.62-.95,1.09-1.26.47-.3.97-.45,1.52-.45.89,0,1.59.29,2.08.88.5.59.74,1.43.74,2.53v.49h-4.65c.02.68.21,1.22.59,1.64.38.42.86.63,1.44.63.41,0,.77-.08,1.05-.25.29-.17.54-.39.76-.67l.72.56c-.58.88-1.44,1.33-2.59,1.33Zm-.15-6.16c-.47,0-.87.17-1.19.52-.32.35-.52.83-.6,1.45h3.44v-.09c-.03-.6-.19-1.06-.48-1.39-.29-.33-.68-.49-1.17-.49Z"/>
        <path class="cls-5" d="m346.98,262.48c.42,0,.79-.13,1.1-.38s.49-.57.52-.95h1.11c-.02.39-.16.77-.41,1.12s-.58.64-1,.85c-.42.21-.86.32-1.32.32-.94,0-1.68-.31-2.23-.94-.55-.62-.83-1.48-.83-2.56v-.2c0-.67.12-1.26.37-1.78s.6-.92,1.06-1.21c.46-.29,1-.43,1.63-.43.77,0,1.41.23,1.92.69.51.46.78,1.06.82,1.8h-1.11c-.03-.44-.2-.81-.5-1.1-.3-.29-.68-.43-1.12-.43-.6,0-1.06.21-1.39.64-.33.43-.49,1.05-.49,1.86v.22c0,.79.16,1.4.49,1.83.33.43.79.64,1.4.64Z"/>
      </g>
      <line class="cls-14" x1="132.75" y1="249.72" x2="132.75" y2="245.73"/>
      <line class="cls-14" x1="338.83" y1="249.72" x2="338.83" y2="245.91"/>
      <line class="cls-14" x1="11.51" y1="249.54" x2="11.51" y2="245.73"/>
      <line class="cls-10" x1="4.03" y1="112.87" x2="363.82" y2="112.87"/>
      <line class="cls-10" x1="4.03" y1="223.31" x2="363.82" y2="223.31"/>
      <line class="cls-11" x1="2.48" y1="241.72" x2="350.51" y2="241.71"/>
      <g>
        <path class="cls-8" d="m121.39,302.67l2.89-8.9h2.17l-4.09,11.38h-1.91l-4.08-11.38h2.16l2.86,8.9Z"/>
        <path class="cls-8" d="m131.27,305.31c-1.2,0-2.18-.38-2.93-1.14s-1.12-1.77-1.12-3.03v-.23c0-.84.16-1.6.49-2.26s.78-1.18,1.37-1.55,1.25-.55,1.97-.55c1.15,0,2.04.37,2.67,1.1s.94,1.77.94,3.12v.77h-5.52c.06.7.29,1.25.7,1.66s.92.61,1.54.61c.87,0,1.58-.35,2.12-1.05l1.02.98c-.34.51-.79.9-1.36,1.18s-1.2.42-1.9.42Zm-.37-10.95l1.14-1.21h1.62v.08l-2.18,2.18h-1.17l-2.16-2.19v-.07h1.61l1.14,1.21Zm.14,3.71c-.52,0-.94.18-1.26.55s-.52.87-.61,1.52h3.62v-.14c-.04-.64-.21-1.12-.51-1.44s-.71-.49-1.23-.49Z"/>
        <path class="cls-8" d="m138.52,294.64v2.05h1.49v1.41h-1.49v4.72c0,.32.06.56.19.7s.36.21.68.21c.22,0,.44-.03.66-.08v1.47c-.43.12-.85.18-1.25.18-1.46,0-2.19-.8-2.19-2.41v-4.79h-1.39v-1.41h1.39v-2.05h1.9Z"/>
        <path class="cls-8" d="m145.88,298.43c-.25-.04-.51-.06-.77-.06-.87,0-1.46.33-1.76,1v5.78h-1.9v-8.45h1.81l.05.95c.46-.73,1.09-1.1,1.91-1.1.27,0,.5.04.67.11v1.78Z"/>
        <path class="cls-8" d="m148.84,296.7l.05.98c.62-.76,1.45-1.13,2.46-1.13,1.76,0,2.66,1.01,2.69,3.02v5.59h-1.9v-5.48c0-.54-.12-.93-.35-1.19s-.61-.39-1.14-.39c-.77,0-1.34.35-1.71,1.04v6.02h-1.9v-8.45h1.79Z"/>
        <path class="cls-8" d="m159.7,305.31c-1.2,0-2.18-.38-2.93-1.14s-1.12-1.77-1.12-3.03v-.23c0-.84.16-1.6.49-2.26s.78-1.18,1.37-1.55,1.25-.55,1.97-.55c1.15,0,2.04.37,2.67,1.1s.94,1.77.94,3.12v.77h-5.52c.06.7.29,1.25.7,1.66s.92.61,1.54.61c.87,0,1.58-.35,2.12-1.05l1.02.98c-.34.51-.79.9-1.36,1.18s-1.2.42-1.9.42Zm-.23-7.24c-.52,0-.94.18-1.26.55s-.52.87-.61,1.52h3.62v-.14c-.04-.64-.21-1.12-.51-1.44s-.71-.49-1.23-.49Zm.43-4.91h2.16l-2.16,2.37h-1.52s1.52-2.37,1.52-2.37Z"/>
        <path class="cls-8" d="m172.27,305.31c-1.2,0-2.18-.38-2.93-1.14s-1.12-1.77-1.12-3.03v-.23c0-.84.16-1.6.49-2.26s.78-1.18,1.37-1.55,1.25-.55,1.97-.55c1.15,0,2.04.37,2.67,1.1s.94,1.77.94,3.12v.77h-5.52c.06.7.29,1.25.7,1.66s.92.61,1.54.61c.87,0,1.58-.35,2.12-1.05l1.02.98c-.34.51-.79.9-1.36,1.18s-1.2.42-1.9.42Zm-.23-7.24c-.52,0-.94.18-1.26.55s-.52.87-.61,1.52h3.62v-.14c-.04-.64-.21-1.12-.51-1.44s-.71-.49-1.23-.49Z"/>
        <path class="cls-8" d="m179.16,305.15h-1.9v-12h1.9v12Z"/>
        <path class="cls-8" d="m184.95,305.31c-1.2,0-2.18-.38-2.93-1.14s-1.12-1.77-1.12-3.03v-.23c0-.84.16-1.6.49-2.26s.78-1.18,1.37-1.55,1.25-.55,1.97-.55c1.15,0,2.04.37,2.67,1.1s.94,1.77.94,3.12v.77h-5.52c.06.7.29,1.25.7,1.66s.92.61,1.54.61c.87,0,1.58-.35,2.12-1.05l1.02.98c-.34.51-.79.9-1.36,1.18s-1.2.42-1.9.42Zm-.23-7.24c-.52,0-.94.18-1.26.55s-.52.87-.61,1.52h3.62v-.14c-.04-.64-.21-1.12-.51-1.44s-.71-.49-1.23-.49Z"/>
        <path class="cls-8" d="m192.56,301.52l-.84.87v2.76h-1.9v-12h1.9v6.92l.59-.74,2.34-2.63h2.28l-3.14,3.52,3.48,4.93h-2.2l-2.51-3.62Z"/>
        <path class="cls-8" d="m200.54,294.64v2.05h1.49v1.41h-1.49v4.72c0,.32.06.56.19.7s.36.21.68.21c.22,0,.44-.03.66-.08v1.47c-.43.12-.85.18-1.25.18-1.46,0-2.19-.8-2.19-2.41v-4.79h-1.39v-1.41h1.39v-2.05h1.9Z"/>
        <path class="cls-8" d="m207.91,298.43c-.25-.04-.51-.06-.77-.06-.87,0-1.46.33-1.76,1v5.78h-1.9v-8.45h1.81l.05.95c.46-.73,1.09-1.1,1.91-1.1.27,0,.5.04.67.11v1.78Z"/>
        <path class="cls-8" d="m214.16,305.15c-.08-.16-.16-.42-.22-.79-.6.63-1.34.95-2.22.95s-1.54-.24-2.08-.73-.8-1.08-.8-1.8c0-.9.33-1.59,1-2.07s1.63-.72,2.87-.72h1.16v-.55c0-.44-.12-.79-.37-1.05s-.62-.39-1.12-.39c-.43,0-.79.11-1.06.32s-.41.49-.41.82h-1.9c0-.46.15-.9.46-1.3s.73-.72,1.25-.95,1.12-.34,1.77-.34c.99,0,1.78.25,2.37.75s.89,1.2.91,2.1v3.81c0,.76.11,1.37.32,1.82v.13h-1.94Zm-2.09-1.37c.38,0,.73-.09,1.06-.27s.58-.43.75-.73v-1.59h-1.02c-.7,0-1.23.12-1.59.37s-.53.59-.53,1.04c0,.36.12.65.36.87s.57.32.97.32Zm1.05-10.63h2.16l-2.16,2.37h-1.52s1.52-2.37,1.52-2.37Z"/>
        <path class="cls-8" d="m222.19,298.43c-.25-.04-.51-.06-.77-.06-.87,0-1.46.33-1.76,1v5.78h-1.9v-8.45h1.81l.05.95c.46-.73,1.09-1.1,1.91-1.1.27,0,.5.04.67.11v1.78Z"/>
        <path class="cls-8" d="m225.15,296.7l.05.98c.62-.76,1.45-1.13,2.46-1.13,1.76,0,2.66,1.01,2.69,3.02v5.59h-1.9v-5.48c0-.54-.12-.93-.35-1.19s-.61-.39-1.14-.39c-.77,0-1.34.35-1.71,1.04v6.02h-1.9v-8.45h1.79Z"/>
        <path class="cls-8" d="m235.24,302.43l1.72-5.73h2.02l-3.36,9.73c-.52,1.42-1.39,2.13-2.62,2.13-.28,0-.58-.05-.91-.14v-1.48l.36.02c.48,0,.84-.09,1.08-.26.24-.17.43-.47.57-.88l.27-.73-2.97-8.41h2.05l1.79,5.73Z"/>
      </g>
      <g>
        <path class="cls-5" d="m3.33,479.59h4.38v1H2.1v-9.24h1.23v8.25Z"/>
        <path class="cls-5" d="m11.76,480.71c-.93,0-1.69-.31-2.27-.92-.58-.61-.88-1.43-.88-2.45v-.22c0-.68.13-1.29.39-1.83.26-.54.62-.95,1.09-1.26.47-.3.97-.45,1.52-.45.89,0,1.59.29,2.08.88.5.59.74,1.43.74,2.53v.49h-4.65c.02.68.21,1.22.59,1.64.38.42.86.63,1.44.63.41,0,.77-.08,1.05-.25.29-.17.54-.39.76-.67l.72.56c-.58.88-1.44,1.33-2.59,1.33Zm-.15-6.16c-.47,0-.87.17-1.19.52-.32.35-.52.83-.6,1.45h3.44v-.09c-.03-.6-.19-1.06-.48-1.39-.29-.33-.68-.49-1.17-.49Z"/>
        <path class="cls-5" d="m15.51,477.09c0-1.05.25-1.9.75-2.54s1.15-.96,1.96-.96,1.44.27,1.91.83v-3.58h1.17v9.75h-1.08l-.06-.74c-.47.58-1.12.86-1.96.86s-1.44-.33-1.95-.98c-.5-.65-.75-1.5-.75-2.55v-.09Zm1.17.13c0,.78.16,1.39.48,1.83.32.44.77.66,1.33.66.74,0,1.29-.33,1.63-1v-3.15c-.35-.65-.89-.97-1.62-.97-.58,0-1.02.22-1.35.67s-.48,1.1-.48,1.97Z"/>
        <path class="cls-5" d="m25.98,480.71c-.93,0-1.69-.31-2.27-.92-.58-.61-.88-1.43-.88-2.45v-.22c0-.68.13-1.29.39-1.83.26-.54.62-.95,1.09-1.26.47-.3.97-.45,1.52-.45.89,0,1.59.29,2.08.88.5.59.74,1.43.74,2.53v.49h-4.65c.02.68.21,1.22.59,1.64.38.42.86.63,1.44.63.41,0,.77-.08,1.05-.25.29-.17.54-.39.76-.67l.72.56c-.58.88-1.44,1.33-2.59,1.33Zm-.15-6.16c-.47,0-.87.17-1.19.52-.32.35-.52.83-.6,1.45h3.44v-.09c-.03-.6-.19-1.06-.48-1.39-.29-.33-.68-.49-1.17-.49Z"/>
        <path class="cls-5" d="m31.13,473.72l.04.86c.52-.66,1.21-.99,2.06-.99,1.45,0,2.18.82,2.2,2.46v4.54h-1.17v-4.54c0-.5-.12-.86-.34-1.1-.22-.24-.57-.36-1.04-.36-.38,0-.72.1-1,.3s-.51.47-.67.8v4.89h-1.17v-6.87h1.11Z"/>
      </g>
      <g>
        <path class="cls-5" d="m114.4,477.65c-.11.98-.48,1.73-1.08,2.26-.61.53-1.41.8-2.42.8-1.09,0-1.97-.39-2.62-1.17-.66-.78-.99-1.83-.99-3.14v-.89c0-.86.15-1.61.46-2.27.31-.65.74-1.15,1.3-1.5s1.21-.52,1.96-.52c.98,0,1.77.27,2.36.82.59.55.94,1.31,1.03,2.28h-1.23c-.11-.74-.34-1.27-.69-1.6-.35-.33-.85-.5-1.48-.5-.78,0-1.39.29-1.83.86-.44.58-.66,1.4-.66,2.46v.9c0,1,.21,1.8.63,2.4.42.59,1,.89,1.76.89.68,0,1.2-.15,1.56-.46.36-.31.6-.84.72-1.6h1.23Zm-3.57-7.92l.95-1.08h1.02v.06l-1.61,1.74h-.72l-1.59-1.74v-.06h1l.96,1.08Z"/>
        <path class="cls-5" d="m118.72,480.71c-.93,0-1.69-.31-2.27-.92-.58-.61-.88-1.43-.88-2.45v-.22c0-.68.13-1.29.39-1.83.26-.54.62-.95,1.09-1.26.47-.3.97-.45,1.52-.45.89,0,1.59.29,2.08.88.5.59.74,1.43.74,2.53v.49h-4.65c.02.68.21,1.22.59,1.64.38.42.86.63,1.44.63.41,0,.77-.08,1.05-.25.29-.17.54-.39.76-.67l.72.56c-.58.88-1.44,1.33-2.59,1.33Zm-.15-6.16c-.47,0-.87.17-1.19.52-.32.35-.52.83-.6,1.45h3.44v-.09c-.03-.6-.19-1.06-.48-1.39-.29-.33-.68-.49-1.17-.49Z"/>
        <path class="cls-5" d="m126.08,474.77c-.18-.03-.37-.04-.58-.04-.77,0-1.29.33-1.57.98v4.88h-1.17v-6.87h1.14l.02.79c.39-.61.93-.92,1.64-.92.23,0,.4.03.52.09v1.09Z"/>
        <path class="cls-5" d="m129.54,478.99l1.7-5.27h1.2l-2.46,6.87h-.9l-2.49-6.87h1.2l1.75,5.27Z"/>
        <path class="cls-5" d="m136.42,480.71c-.93,0-1.69-.31-2.27-.92-.58-.61-.88-1.43-.88-2.45v-.22c0-.68.13-1.29.39-1.83.26-.54.62-.95,1.09-1.26.47-.3.97-.45,1.52-.45.89,0,1.59.29,2.08.88.5.59.74,1.43.74,2.53v.49h-4.65c.02.68.21,1.22.59,1.64.38.42.86.63,1.44.63.41,0,.77-.08,1.05-.25.29-.17.54-.39.76-.67l.72.56c-.58.88-1.44,1.33-2.59,1.33Zm-.15-6.16c-.47,0-.87.17-1.19.52-.32.35-.52.83-.6,1.45h3.44v-.09c-.03-.6-.19-1.06-.48-1.39-.29-.33-.68-.49-1.17-.49Z"/>
        <path class="cls-5" d="m141.57,473.71l.04.86c.52-.66,1.21-.99,2.06-.99,1.45,0,2.18.82,2.2,2.46v4.54h-1.17v-4.54c0-.5-.12-.86-.34-1.1-.22-.24-.57-.36-1.04-.36-.38,0-.72.1-1,.3s-.51.47-.67.8v4.89h-1.17v-6.87h1.11Z"/>
        <path class="cls-5" d="m150.48,480.71c-.93,0-1.69-.31-2.27-.92-.58-.61-.88-1.43-.88-2.45v-.22c0-.68.13-1.29.39-1.83.26-.54.62-.95,1.09-1.26.47-.3.97-.45,1.52-.45.89,0,1.59.29,2.08.88.5.59.74,1.43.74,2.53v.49h-4.65c.02.68.21,1.22.59,1.64.38.42.86.63,1.44.63.41,0,.77-.08,1.05-.25.29-.17.54-.39.76-.67l.72.56c-.58.88-1.44,1.33-2.59,1.33Zm-.15-6.16c-.47,0-.87.17-1.19.52-.32.35-.52.83-.6,1.45h3.44v-.09c-.03-.6-.19-1.06-.48-1.39-.29-.33-.68-.49-1.17-.49Z"/>
        <path class="cls-5" d="m157.27,479.75c.42,0,.79-.13,1.1-.38s.49-.57.52-.95h1.11c-.02.39-.16.77-.41,1.12s-.58.64-1,.85c-.42.21-.86.32-1.32.32-.94,0-1.68-.31-2.23-.94-.55-.62-.83-1.48-.83-2.56v-.2c0-.67.12-1.26.37-1.78s.6-.92,1.06-1.21c.46-.29,1-.43,1.63-.43.77,0,1.41.23,1.92.69.51.46.78,1.06.82,1.8h-1.11c-.03-.44-.2-.81-.5-1.1-.3-.29-.68-.43-1.12-.43-.6,0-1.06.21-1.39.64-.33.43-.49,1.05-.49,1.86v.22c0,.79.16,1.4.49,1.83.33.43.79.64,1.4.64Z"/>
      </g>
      <g>
        <path class="cls-5" d="m301.82,476.97v3.62h-1.22v-9.24h3.41c1.01,0,1.8.26,2.38.77.57.52.86,1.2.86,2.05,0,.9-.28,1.59-.84,2.07-.56.48-1.36.73-2.41.73h-2.18Zm0-1h2.19c.65,0,1.15-.15,1.5-.46.35-.31.52-.75.52-1.33,0-.55-.17-.99-.52-1.32-.35-.33-.82-.5-1.43-.52h-2.26v3.63Z"/>
        <path class="cls-5" d="m311.94,474.77c-.18-.03-.37-.04-.58-.04-.77,0-1.29.33-1.57.98v4.88h-1.17v-6.87h1.14l.02.79c.39-.61.93-.92,1.64-.92.23,0,.4.03.52.09v1.09Z"/>
        <path class="cls-5" d="m312.58,477.09c0-.67.13-1.28.4-1.82.26-.54.63-.95,1.1-1.24.47-.29,1.01-.44,1.62-.44.94,0,1.69.32,2.27.97.58.65.87,1.51.87,2.58v.08c0,.67-.13,1.27-.38,1.8-.26.53-.62.94-1.1,1.24-.48.3-1.02.44-1.64.44-.93,0-1.69-.32-2.26-.97-.58-.65-.87-1.5-.87-2.57v-.08Zm1.18.14c0,.76.18,1.37.53,1.83.35.46.83.69,1.42.69s1.07-.23,1.42-.7c.35-.47.53-1.12.53-1.96,0-.75-.18-1.36-.54-1.83-.36-.47-.83-.7-1.42-.7s-1.05.23-1.4.69c-.36.46-.53,1.12-.53,1.98Z"/>
        <path class="cls-5" d="m324.3,478.76c0-.32-.12-.56-.36-.74-.24-.18-.66-.33-1.25-.45-.59-.13-1.07-.28-1.42-.46-.35-.18-.61-.39-.77-.63-.17-.25-.25-.54-.25-.88,0-.56.24-1.04.71-1.43.48-.39,1.08-.58,1.83-.58.78,0,1.41.2,1.89.6.48.4.73.92.73,1.54h-1.18c0-.32-.14-.6-.41-.83-.27-.23-.62-.35-1.03-.35s-.76.09-1,.28c-.24.19-.36.43-.36.73,0,.28.11.5.34.64.22.14.63.28,1.22.41.59.13,1.06.29,1.42.47.36.18.63.4.81.66.18.26.26.57.26.94,0,.61-.25,1.11-.74,1.48-.49.37-1.13.56-1.91.56-.55,0-1.04-.1-1.46-.29-.42-.19-.75-.47-.99-.82-.24-.35-.36-.73-.36-1.13h1.17c.02.39.18.71.47.94.29.23.68.35,1.17.35.44,0,.8-.09,1.07-.27.27-.18.4-.42.4-.72Z"/>
        <path class="cls-5" d="m327.02,471.89c0-.19.06-.35.17-.48.12-.13.29-.2.52-.2s.4.07.52.2c.12.13.18.29.18.48s-.06.35-.18.48-.29.19-.52.19-.4-.06-.52-.19c-.12-.13-.17-.29-.17-.48Zm1.27,8.69h-1.17v-6.87h1.17v6.87Z"/>
        <path class="cls-5" d="m331.27,473.72l.04.86c.52-.66,1.21-.99,2.06-.99,1.45,0,2.18.82,2.2,2.46v4.54h-1.17v-4.54c0-.5-.12-.86-.34-1.1-.22-.24-.57-.36-1.04-.36-.38,0-.72.1-1,.3s-.51.47-.67.8v4.89h-1.17v-6.87h1.11Z"/>
        <path class="cls-5" d="m340.19,480.71c-.93,0-1.69-.31-2.27-.92-.58-.61-.88-1.43-.88-2.45v-.22c0-.68.13-1.29.39-1.83.26-.54.62-.95,1.09-1.26.47-.3.97-.45,1.52-.45.89,0,1.59.29,2.08.88.5.59.74,1.43.74,2.53v.49h-4.65c.02.68.21,1.22.59,1.64.38.42.86.63,1.44.63.41,0,.77-.08,1.05-.25.29-.17.54-.39.76-.67l.72.56c-.58.88-1.44,1.33-2.59,1.33Zm-.15-6.16c-.47,0-.87.17-1.19.52-.32.35-.52.83-.6,1.45h3.44v-.09c-.03-.6-.19-1.06-.48-1.39-.29-.33-.68-.49-1.17-.49Z"/>
        <path class="cls-5" d="m346.98,479.75c.42,0,.79-.13,1.1-.38s.49-.57.52-.95h1.11c-.02.39-.16.77-.41,1.12s-.58.64-1,.85c-.42.21-.86.32-1.32.32-.94,0-1.68-.31-2.23-.94-.55-.62-.83-1.48-.83-2.56v-.2c0-.67.12-1.26.37-1.78s.6-.92,1.06-1.21c.46-.29,1-.43,1.63-.43.77,0,1.41.23,1.92.69.51.46.78,1.06.82,1.8h-1.11c-.03-.44-.2-.81-.5-1.1-.3-.29-.68-.43-1.12-.43-.6,0-1.06.21-1.39.64-.33.43-.49,1.05-.49,1.86v.22c0,.79.16,1.4.49,1.83.33.43.79.64,1.4.64Z"/>
      </g>
      <line class="cls-14" x1="132.89" y1="466.99" x2="132.89" y2="463"/>
      <line class="cls-14" x1="339.33" y1="466.99" x2="339.33" y2="463.18"/>
      <line class="cls-14" x1="12.65" y1="466.81" x2="12.65" y2="463"/>
      <g class="cls-9">
        <g>
          <line class="cls-13" x1="2.62" y1="330.15" x2="3.12" y2="330.15"/>
          <line class="cls-12" x1="7.14" y1="330.15" x2="357.24" y2="330.15"/>
          <line class="cls-13" x1="359.25" y1="330.15" x2="359.75" y2="330.15"/>
        </g>
      </g>
      <g>
        <rect class="cls-4" x="3.65" y="337.9" width="24.69" height="121.09"/>
        <rect class="cls-4" x="33.04" y="340.1" width="24.69" height="118.89"/>
        <rect class="cls-4" x="62.44" y="344.16" width="24.69" height="114.83"/>
        <rect class="cls-4" x="91.83" y="363.93" width="24.69" height="95.06"/>
        <rect class="cls-4" x="121.22" y="381.38" width="24.69" height="77.62"/>
        <rect class="cls-4" x="150.62" y="398.7" width="24.69" height="60.3"/>
        <rect class="cls-4" x="180.01" y="402.66" width="24.69" height="56.33"/>
        <rect class="cls-4" x="209.4" y="411.33" width="24.69" height="47.67"/>
        <rect class="cls-4" x="238.81" y="396.13" width="24.69" height="62.87"/>
        <rect class="cls-4" x="268.2" y="364.26" width="24.69" height="94.73"/>
        <rect class="cls-4" x="297.59" y="352.6" width="24.69" height="106.4"/>
        <rect class="cls-4" x="326.99" y="330.15" width="24.69" height="128.85"/>
      </g>
      <line class="cls-10" x1="2.62" y1="411.31" x2="359.75" y2="411.31"/>
      <line class="cls-11" x1="3.65" y1="458.99" x2="351.68" y2="458.99"/>
      <g>
        <path class="cls-7" d="m372.46,99.28c-.18-.03-.37-.04-.58-.04-.77,0-1.29.33-1.57.98v4.88h-1.17v-6.87h1.14l.02.79c.39-.61.93-.92,1.64-.92.23,0,.4.03.52.09v1.09Z"/>
        <path class="cls-7" d="m373.1,101.6c0-.67.13-1.28.4-1.82.26-.54.63-.95,1.1-1.24.47-.29,1.01-.44,1.62-.44.94,0,1.69.32,2.27.97.58.65.87,1.51.87,2.58v.08c0,.67-.13,1.27-.38,1.8-.26.53-.62.94-1.1,1.24-.48.3-1.02.44-1.64.44-.93,0-1.69-.32-2.26-.97-.58-.65-.87-1.5-.87-2.57v-.08Zm1.18.14c0,.76.18,1.37.53,1.83.35.46.83.69,1.42.69s1.07-.23,1.42-.7.53-1.12.53-1.96c0-.75-.18-1.36-.54-1.83-.36-.47-.83-.7-1.42-.7s-1.05.23-1.4.69-.53,1.12-.53,1.98Z"/>
        <path class="cls-7" d="m383.58,104.27c.42,0,.79-.13,1.1-.38s.49-.57.52-.95h1.11c-.02.39-.16.77-.41,1.12s-.58.64-1,.85c-.42.21-.86.32-1.32.32-.94,0-1.68-.31-2.23-.94-.55-.62-.83-1.48-.83-2.56v-.2c0-.67.12-1.26.37-1.78s.6-.92,1.06-1.21c.46-.29,1-.43,1.63-.43.77,0,1.41.23,1.92.69.51.46.78,1.06.82,1.8h-1.11c-.03-.44-.2-.81-.5-1.09-.3-.29-.68-.43-1.12-.43-.6,0-1.06.21-1.39.64-.33.43-.49,1.05-.49,1.86v.22c0,.79.16,1.4.49,1.83s.79.64,1.4.64Zm-.27-7.84l.95-1.08h1.02v.06l-1.61,1.74h-.72l-1.59-1.74v-.06h1l.96,1.08Z"/>
        <path class="cls-7" d="m388.74,98.23l.04.86c.52-.66,1.21-.99,2.06-.99,1.45,0,2.18.82,2.2,2.46v4.54h-1.17v-4.54c0-.5-.12-.86-.34-1.1-.22-.24-.57-.36-1.04-.36-.38,0-.72.1-1,.3s-.51.47-.67.8v4.89h-1.17v-6.87h1.11Z"/>
        <path class="cls-7" d="m396.09,95.36h1.42l-1.7,1.87h-.95s1.23-1.87,1.23-1.87Zm-.01,9.74h-1.18v-6.87h1.18v6.87Z"/>
        <path class="cls-7" d="m370.24,111.23l.03.76c.5-.59,1.18-.89,2.04-.89.96,0,1.61.37,1.96,1.1.23-.33.53-.6.89-.8.37-.2.8-.3,1.3-.3,1.51,0,2.27.8,2.3,2.39v4.6h-1.17v-4.53c0-.49-.11-.86-.34-1.1s-.6-.36-1.13-.36c-.44,0-.8.13-1.09.39s-.46.61-.5,1.05v4.56h-1.18v-4.5c0-1-.49-1.5-1.47-1.5-.77,0-1.3.33-1.58.98v5.01h-1.17v-6.87h1.11Z"/>
        <path class="cls-7" d="m384.77,118.1c-.07-.14-.12-.38-.17-.72-.55.57-1.2.85-1.96.85-.68,0-1.23-.19-1.67-.57-.43-.38-.65-.87-.65-1.46,0-.72.27-1.27.82-1.67.54-.4,1.31-.59,2.29-.59h1.14v-.54c0-.41-.12-.74-.37-.98s-.61-.36-1.09-.36c-.42,0-.77.11-1.05.32s-.43.47-.43.77h-1.18c0-.34.12-.67.36-.99.24-.32.57-.57.99-.76.42-.19.88-.28,1.37-.28.79,0,1.41.2,1.86.59s.68.94.7,1.63v3.16c0,.63.08,1.13.24,1.5v.1h-1.23Zm-1.95-.9c.37,0,.72-.1,1.05-.29s.57-.44.72-.74v-1.41h-.92c-1.44,0-2.16.42-2.16,1.26,0,.37.12.66.37.86s.56.31.95.31Z"/>
        <path class="cls-7" d="m389.91,113.74l1.52-2.51h1.37l-2.25,3.4,2.32,3.47h-1.36l-1.59-2.57-1.59,2.57h-1.36l2.32-3.47-2.25-3.4h1.36l1.5,2.51Z"/>
        <path class="cls-7" d="m394.05,109.41c0-.19.06-.35.17-.48.12-.13.29-.2.52-.2s.4.07.52.2.18.29.18.48-.06.35-.18.48-.29.19-.52.19-.4-.06-.52-.19c-.12-.13-.17-.29-.17-.48Zm1.27,8.69h-1.17v-6.87h1.17v6.87Z"/>
        <path class="cls-7" d="m398.3,111.23l.03.76c.5-.59,1.18-.89,2.04-.89.96,0,1.61.37,1.96,1.1.23-.33.53-.6.89-.8.37-.2.8-.3,1.3-.3,1.51,0,2.27.8,2.3,2.39v4.6h-1.17v-4.53c0-.49-.11-.86-.34-1.1s-.6-.36-1.13-.36c-.44,0-.8.13-1.09.39s-.46.61-.5,1.05v4.56h-1.18v-4.5c0-1-.49-1.5-1.47-1.5-.77,0-1.3.33-1.58.98v5.01h-1.17v-6.87h1.11Z"/>
        <path class="cls-7" d="m412.83,117.42c-.46.54-1.13.81-2.01.81-.73,0-1.29-.21-1.67-.64-.38-.43-.58-1.05-.58-1.89v-4.47h1.17v4.44c0,1.04.42,1.56,1.27,1.56.9,0,1.49-.33,1.79-1v-5h1.17v6.87h-1.12l-.03-.68Z"/>
        <path class="cls-7" d="m416.86,111.23l.03.76c.5-.59,1.18-.89,2.04-.89.96,0,1.61.37,1.96,1.1.23-.33.53-.6.89-.8.37-.2.8-.3,1.3-.3,1.51,0,2.27.8,2.3,2.39v4.6h-1.17v-4.53c0-.49-.11-.86-.34-1.1s-.6-.36-1.13-.36c-.44,0-.8.13-1.09.39s-.46.61-.5,1.05v4.56h-1.18v-4.5c0-1-.49-1.5-1.47-1.5-.77,0-1.3.33-1.58.98v5.01h-1.17v-6.87h1.11Z"/>
      </g>
      <g>
        <path class="cls-7" d="m372.63,208.71c-.2-.03-.41-.05-.63-.05-.71,0-1.18.27-1.43.81v4.7h-1.54v-6.87h1.47l.04.77c.37-.6.89-.9,1.55-.9.22,0,.4.03.55.09v1.45Z"/>
        <path class="cls-7" d="m373.09,210.67c0-.67.13-1.28.4-1.82s.64-.95,1.12-1.24c.48-.29,1.04-.44,1.66-.44.93,0,1.68.3,2.26.9.58.6.89,1.39.94,2.37v.36c0,.68-.12,1.28-.38,1.82-.26.53-.63.95-1.12,1.24-.48.29-1.04.44-1.68.44-.97,0-1.74-.32-2.33-.97-.58-.65-.87-1.51-.87-2.58v-.08Zm1.54.13c0,.71.15,1.26.44,1.66s.7.6,1.22.6.93-.2,1.22-.61c.29-.41.44-1,.44-1.78,0-.69-.15-1.24-.45-1.65-.3-.41-.7-.61-1.22-.61s-.9.2-1.2.6-.44,1-.44,1.79Z"/>
        <path class="cls-7" d="m383.6,213.06c.39,0,.7-.11.96-.34.25-.22.39-.5.41-.83h1.45c-.02.43-.15.83-.4,1.2-.25.37-.59.66-1.02.88s-.89.32-1.38.32c-.96,0-1.72-.31-2.29-.93s-.84-1.48-.84-2.58v-.16c0-1.04.28-1.88.84-2.51s1.32-.94,2.29-.94c.82,0,1.48.24,2,.71.51.48.78,1.1.81,1.88h-1.45c-.02-.39-.15-.72-.4-.97-.25-.25-.57-.38-.96-.38-.5,0-.88.18-1.16.54s-.41.91-.41,1.65v.25c0,.75.13,1.3.4,1.67.27.37.66.55,1.16.55Zm-.24-7.67l.93-.98h1.32v.06l-1.77,1.77h-.95l-1.76-1.78v-.06h1.31l.93.98Z"/>
        <path class="cls-7" d="m389.02,207.3l.04.79c.51-.61,1.17-.92,2-.92,1.43,0,2.16.82,2.18,2.46v4.54h-1.54v-4.45c0-.44-.09-.76-.28-.97-.19-.21-.5-.31-.92-.31-.62,0-1.09.28-1.39.84v4.89h-1.54v-6.87h1.45Z"/>
        <path class="cls-7" d="m396.48,214.17h-1.54v-6.87h1.54v6.87Zm-.29-9.71h1.76l-1.76,1.92h-1.24s1.24-1.92,1.24-1.92Z"/>
        <path class="cls-7" d="m370.49,220.3l.04.72c.48-.56,1.14-.84,1.98-.84.92,0,1.55.35,1.89,1.05.5-.7,1.2-1.05,2.11-1.05.76,0,1.32.21,1.69.63.37.42.56,1.04.57,1.85v4.51h-1.54v-4.47c0-.44-.1-.76-.29-.96s-.51-.3-.95-.3c-.35,0-.64.09-.86.28-.22.19-.38.43-.47.74v4.71s-1.54,0-1.54,0v-4.52c-.02-.81-.43-1.21-1.24-1.21-.62,0-1.06.25-1.31.76v4.98h-1.54v-6.87h1.45Z"/>
        <path class="cls-7" d="m380.35,218.52c0-.24.08-.43.23-.59.15-.16.37-.23.64-.23s.5.08.65.23c.15.16.23.35.23.59s-.08.43-.23.58c-.15.15-.37.23-.65.23s-.49-.08-.64-.23c-.15-.15-.23-.35-.23-.58Zm1.64,8.65h-1.54v-6.87h1.54v6.87Z"/>
        <path class="cls-7" d="m385.1,220.3l.04.79c.51-.61,1.17-.92,2-.92,1.43,0,2.16.82,2.18,2.46v4.54h-1.54v-4.45c0-.44-.09-.76-.28-.97-.19-.21-.5-.31-.92-.31-.62,0-1.09.28-1.39.84v4.89h-1.54v-6.87h1.45Z"/>
        <path class="cls-7" d="m390.9,218.52c0-.24.08-.43.23-.59.15-.16.37-.23.64-.23s.5.08.65.23c.15.16.23.35.23.59s-.08.43-.23.58c-.15.15-.37.23-.65.23s-.49-.08-.64-.23c-.15-.15-.23-.35-.23-.58Zm1.64,8.65h-1.54v-6.87h1.54v6.87Z"/>
        <path class="cls-7" d="m395.67,220.3l.04.72c.48-.56,1.14-.84,1.98-.84.92,0,1.55.35,1.89,1.05.5-.7,1.2-1.05,2.11-1.05.76,0,1.32.21,1.69.63.37.42.56,1.04.57,1.85v4.51h-1.54v-4.47c0-.44-.1-.76-.29-.96s-.51-.3-.95-.3c-.35,0-.64.09-.86.28-.22.19-.38.43-.47.74v4.71s-1.54,0-1.54,0v-4.52c-.02-.81-.43-1.21-1.24-1.21-.62,0-1.06.25-1.31.76v4.98h-1.54v-6.87h1.45Z"/>
        <path class="cls-7" d="m409.69,226.5c-.45.53-1.1.8-1.93.8-.74,0-1.31-.22-1.69-.65-.38-.44-.57-1.07-.57-1.89v-4.45h1.54v4.43c0,.87.36,1.31,1.09,1.31s1.25-.27,1.52-.81v-4.93h1.54v6.87h-1.45l-.04-.67Z"/>
        <path class="cls-7" d="m414.2,220.3l.04.72c.48-.56,1.14-.84,1.98-.84.92,0,1.55.35,1.89,1.05.5-.7,1.2-1.05,2.11-1.05.76,0,1.32.21,1.69.63.37.42.56,1.04.57,1.85v4.51h-1.54v-4.47c0-.44-.1-.76-.29-.96s-.51-.3-.95-.3c-.35,0-.64.09-.86.28-.22.19-.38.43-.47.74v4.71s-1.54,0-1.54,0v-4.52c-.02-.81-.43-1.21-1.24-1.21-.62,0-1.06.25-1.31.76v4.98h-1.54v-6.87h1.45Z"/>
        <path class="cls-7" d="m372.16,242.17h-1v-6.62l-2,.74v-.9l2.85-1.07h.16v7.86Z"/>
        <path class="cls-7" d="m379.27,239.54h1.08v.81h-1.08v1.82h-1v-1.82h-3.56v-.59l3.5-5.42h1.06v5.19Zm-3.43,0h2.43v-3.83l-.12.21-2.31,3.62Z"/>
        <path class="cls-7" d="m383.89,235.85c0-.47.15-.86.45-1.16.3-.3.68-.46,1.15-.46s.86.15,1.16.46c.29.31.44.7.44,1.19v.38c0,.47-.15.86-.45,1.16-.3.3-.68.45-1.14.45s-.85-.15-1.15-.45-.46-.7-.46-1.2v-.38Zm.74.41c0,.28.08.51.24.69.16.18.37.27.63.27s.46-.09.61-.26c.16-.18.23-.42.23-.72v-.39c0-.28-.08-.51-.23-.69-.15-.18-.36-.27-.63-.27s-.47.09-.63.27c-.15.18-.23.42-.23.72v.39Zm1.1,5.31l-.56-.35,3.82-6.11.56.35-3.82,6.11Zm1.97-1.33c0-.47.15-.85.45-1.16.3-.3.68-.45,1.15-.45s.85.15,1.15.45.45.7.45,1.2v.38c0,.47-.15.85-.45,1.16-.3.3-.68.45-1.15.45s-.85-.15-1.15-.45-.46-.7-.46-1.2v-.39Zm.74.42c0,.28.08.52.24.7.16.18.37.27.63.27s.46-.09.62-.27c.15-.18.23-.42.23-.72v-.4c0-.28-.08-.52-.23-.69-.16-.18-.36-.27-.63-.27s-.46.09-.62.27c-.16.18-.24.42-.24.72v.4Z"/>
        <path class="cls-7" d="m395.79,236.36l.03.64c.43-.5,1-.75,1.72-.75.81,0,1.37.31,1.66.93.19-.28.44-.5.75-.68.31-.17.68-.26,1.1-.26,1.27,0,1.92.68,1.94,2.02v3.89h-.99v-3.83c0-.42-.09-.73-.28-.93s-.51-.31-.96-.31c-.37,0-.67.11-.92.33s-.38.52-.42.89v3.86h-1v-3.81c0-.84-.41-1.27-1.24-1.27-.65,0-1.1.28-1.34.83v4.24h-.99v-5.81h.94Z"/>
        <path class="cls-7" d="m408.08,242.17c-.06-.11-.1-.32-.14-.61-.46.48-1.01.72-1.65.72-.57,0-1.04-.16-1.41-.49-.37-.32-.55-.73-.55-1.23,0-.6.23-1.07.69-1.41.46-.33,1.11-.5,1.94-.5h.97v-.46c0-.35-.1-.62-.31-.83s-.51-.31-.92-.31c-.35,0-.65.09-.89.27-.24.18-.36.4-.36.65h-1c0-.29.1-.57.31-.84.21-.27.48-.48.84-.64.35-.16.74-.24,1.16-.24.67,0,1.19.17,1.57.5s.58.8.59,1.38v2.67c0,.53.07.96.2,1.27v.09h-1.04Zm-1.65-.76c.31,0,.61-.08.89-.24s.48-.37.61-.63v-1.19h-.78c-1.22,0-1.83.36-1.83,1.07,0,.31.1.56.31.73.21.18.47.26.8.26Z"/>
        <path class="cls-7" d="m412.43,238.48l1.29-2.12h1.16l-1.9,2.87,1.96,2.94h-1.15l-1.34-2.18-1.34,2.18h-1.15l1.96-2.94-1.9-2.87h1.15l1.27,2.12Z"/>
        <path class="cls-7" d="m415.94,234.82c0-.16.05-.3.15-.41.1-.11.24-.17.44-.17s.34.06.44.17c.1.11.15.25.15.41s-.05.3-.15.4-.25.16-.44.16-.34-.05-.44-.16c-.1-.11-.15-.24-.15-.4Zm1.07,7.35h-.99v-5.81h.99v5.81Z"/>
        <path class="cls-7" d="m419.54,236.36l.03.64c.43-.5,1-.75,1.72-.75.81,0,1.37.31,1.66.93.19-.28.44-.5.75-.68.31-.17.68-.26,1.1-.26,1.27,0,1.92.68,1.94,2.02v3.89h-.99v-3.83c0-.42-.09-.73-.28-.93s-.51-.31-.96-.31c-.37,0-.67.11-.92.33s-.38.52-.42.89v3.86h-1v-3.81c0-.84-.41-1.27-1.24-1.27-.65,0-1.1.28-1.34.83v4.24h-.99v-5.81h.94Z"/>
        <path class="cls-7" d="m431.83,242.17c-.06-.11-.1-.32-.14-.61-.46.48-1.01.72-1.65.72-.57,0-1.04-.16-1.41-.49-.37-.32-.55-.73-.55-1.23,0-.6.23-1.07.69-1.41.46-.33,1.11-.5,1.94-.5h.97v-.46c0-.35-.1-.62-.31-.83s-.51-.31-.92-.31c-.35,0-.65.09-.89.27-.24.18-.36.4-.36.65h-1c0-.29.1-.57.31-.84.21-.27.48-.48.84-.64.35-.16.74-.24,1.16-.24.67,0,1.19.17,1.57.5s.58.8.59,1.38v2.67c0,.53.07.96.2,1.27v.09h-1.04Zm-1.65-.76c.31,0,.61-.08.89-.24s.48-.37.61-.63v-1.19h-.78c-1.22,0-1.83.36-1.83,1.07,0,.31.1.56.31.73.21.18.47.26.8.26Z"/>
      </g>
      <g>
        <path class="cls-7" d="m372.46,314.51c-.18-.03-.37-.04-.58-.04-.77,0-1.29.33-1.57.98v4.88h-1.17v-6.87h1.14l.02.79c.39-.61.93-.92,1.64-.92.23,0,.4.03.52.09v1.09Z"/>
        <path class="cls-7" d="m373.1,316.83c0-.67.13-1.28.4-1.82.26-.54.63-.95,1.1-1.24.47-.29,1.01-.44,1.62-.44.94,0,1.69.32,2.27.97.58.65.87,1.51.87,2.58v.08c0,.67-.13,1.27-.38,1.8-.26.53-.62.94-1.1,1.24-.48.3-1.02.44-1.64.44-.93,0-1.69-.32-2.26-.97-.58-.65-.87-1.5-.87-2.57v-.08Zm1.18.14c0,.76.18,1.37.53,1.83.35.46.83.69,1.42.69s1.07-.23,1.42-.7.53-1.12.53-1.96c0-.75-.18-1.36-.54-1.83-.36-.47-.83-.7-1.42-.7s-1.05.23-1.4.69c-.36.46-.53,1.12-.53,1.98Z"/>
        <path class="cls-7" d="m383.58,319.49c.42,0,.79-.13,1.1-.38s.49-.57.52-.95h1.11c-.02.39-.16.77-.41,1.12s-.58.64-1,.85c-.42.21-.86.32-1.32.32-.94,0-1.68-.31-2.23-.94-.55-.62-.83-1.48-.83-2.56v-.2c0-.67.12-1.26.37-1.78s.6-.92,1.06-1.21c.46-.29,1-.43,1.63-.43.77,0,1.41.23,1.92.69.51.46.78,1.06.82,1.8h-1.11c-.03-.44-.2-.81-.5-1.1-.3-.29-.68-.43-1.12-.43-.6,0-1.06.21-1.39.64-.33.43-.49,1.05-.49,1.86v.22c0,.79.16,1.4.49,1.83.33.43.79.64,1.4.64Zm-.27-7.84l.95-1.08h1.02v.06l-1.61,1.74h-.72l-1.59-1.74v-.06h1l.96,1.08Z"/>
        <path class="cls-7" d="m388.74,313.46l.04.86c.52-.66,1.21-.99,2.06-.99,1.45,0,2.18.82,2.2,2.46v4.54h-1.17v-4.54c0-.5-.12-.86-.34-1.1-.22-.24-.57-.36-1.04-.36-.38,0-.72.1-1,.3s-.51.47-.67.8v4.89h-1.17v-6.87h1.11Z"/>
        <path class="cls-7" d="m396.09,310.58h1.42l-1.7,1.87h-.95s1.23-1.87,1.23-1.87Zm-.01,9.74h-1.18v-6.87h1.18v6.87Z"/>
        <path class="cls-7" d="m370.24,326.46l.03.76c.5-.59,1.18-.89,2.04-.89.96,0,1.61.37,1.96,1.1.23-.33.53-.6.89-.8.37-.2.8-.3,1.3-.3,1.51,0,2.27.8,2.3,2.39v4.6h-1.17v-4.53c0-.49-.11-.86-.34-1.1s-.6-.37-1.13-.37c-.44,0-.8.13-1.09.39s-.46.61-.5,1.05v4.56h-1.18v-4.5c0-1-.49-1.5-1.47-1.5-.77,0-1.3.33-1.58.98v5.01h-1.17v-6.87h1.11Z"/>
        <path class="cls-7" d="m384.77,333.33c-.07-.14-.12-.38-.17-.72-.55.57-1.2.85-1.96.85-.68,0-1.23-.19-1.67-.57-.43-.38-.65-.87-.65-1.46,0-.72.27-1.27.82-1.67.54-.4,1.31-.59,2.29-.59h1.14v-.54c0-.41-.12-.74-.37-.98s-.61-.37-1.09-.37c-.42,0-.77.11-1.05.32-.28.21-.43.47-.43.77h-1.18c0-.34.12-.67.36-.99.24-.32.57-.57.99-.76.42-.19.88-.28,1.37-.28.79,0,1.41.2,1.86.59s.68.94.7,1.63v3.16c0,.63.08,1.13.24,1.5v.1h-1.23Zm-1.95-.9c.37,0,.72-.09,1.05-.29s.57-.44.72-.74v-1.41h-.92c-1.44,0-2.16.42-2.16,1.26,0,.37.12.66.37.86.25.21.56.31.95.31Z"/>
        <path class="cls-7" d="m389.91,328.96l1.52-2.51h1.37l-2.25,3.4,2.32,3.47h-1.36l-1.59-2.57-1.59,2.57h-1.36l2.32-3.47-2.25-3.4h1.36l1.5,2.51Z"/>
        <path class="cls-7" d="m394.05,324.64c0-.19.06-.35.17-.48.12-.13.29-.2.52-.2s.4.07.52.2c.12.13.18.29.18.48s-.06.35-.18.48-.29.19-.52.19-.4-.06-.52-.19c-.12-.13-.17-.29-.17-.48Zm1.27,8.69h-1.17v-6.87h1.17v6.87Z"/>
        <path class="cls-7" d="m398.3,326.46l.03.76c.5-.59,1.18-.89,2.04-.89.96,0,1.61.37,1.96,1.1.23-.33.53-.6.89-.8.37-.2.8-.3,1.3-.3,1.51,0,2.27.8,2.3,2.39v4.6h-1.17v-4.53c0-.49-.11-.86-.34-1.1s-.6-.37-1.13-.37c-.44,0-.8.13-1.09.39s-.46.61-.5,1.05v4.56h-1.18v-4.5c0-1-.49-1.5-1.47-1.5-.77,0-1.3.33-1.58.98v5.01h-1.17v-6.87h1.11Z"/>
        <path class="cls-7" d="m412.83,332.65c-.46.54-1.13.81-2.01.81-.73,0-1.29-.21-1.67-.64-.38-.43-.58-1.05-.58-1.89v-4.47h1.17v4.44c0,1.04.42,1.56,1.27,1.56.9,0,1.49-.33,1.79-1v-5h1.17v6.87h-1.12l-.03-.68Z"/>
        <path class="cls-7" d="m416.86,326.46l.03.76c.5-.59,1.18-.89,2.04-.89.96,0,1.61.37,1.96,1.1.23-.33.53-.6.89-.8.37-.2.8-.3,1.3-.3,1.51,0,2.27.8,2.3,2.39v4.6h-1.17v-4.53c0-.49-.11-.86-.34-1.1s-.6-.37-1.13-.37c-.44,0-.8.13-1.09.39s-.46.61-.5,1.05v4.56h-1.18v-4.5c0-1-.49-1.5-1.47-1.5-.77,0-1.3.33-1.58.98v5.01h-1.17v-6.87h1.11Z"/>
      </g>
      <g>
        <path class="cls-7" d="m372.63,396.08c-.2-.03-.41-.05-.63-.05-.71,0-1.18.27-1.43.81v4.7h-1.54v-6.87h1.47l.04.77c.37-.6.89-.9,1.55-.9.22,0,.4.03.55.09v1.45Z"/>
        <path class="cls-7" d="m373.09,398.05c0-.67.13-1.28.4-1.82s.64-.95,1.12-1.24c.48-.29,1.04-.43,1.66-.43.93,0,1.68.3,2.26.9.58.6.89,1.39.94,2.37v.36c0,.68-.12,1.28-.38,1.82-.26.53-.63.95-1.12,1.24-.48.29-1.04.44-1.68.44-.97,0-1.74-.32-2.33-.97-.58-.65-.87-1.51-.87-2.58v-.08Zm1.54.13c0,.71.15,1.26.44,1.66s.7.6,1.22.6.93-.2,1.22-.61c.29-.41.44-1,.44-1.78,0-.69-.15-1.24-.45-1.65-.3-.41-.7-.61-1.22-.61s-.9.2-1.2.6-.44,1-.44,1.79Z"/>
        <path class="cls-7" d="m383.6,400.44c.39,0,.7-.11.96-.34.25-.22.39-.5.41-.83h1.45c-.02.43-.15.83-.4,1.2-.25.37-.59.66-1.02.88s-.89.32-1.38.32c-.96,0-1.72-.31-2.29-.93s-.84-1.48-.84-2.58v-.16c0-1.05.28-1.88.84-2.51s1.32-.94,2.29-.94c.82,0,1.48.24,2,.71.51.48.78,1.1.81,1.88h-1.45c-.02-.39-.15-.72-.4-.97-.25-.25-.57-.38-.96-.38-.5,0-.88.18-1.16.54s-.41.91-.41,1.65v.25c0,.74.13,1.3.4,1.67.27.37.66.55,1.16.55Zm-.24-7.67l.93-.98h1.32v.06l-1.77,1.77h-.95l-1.76-1.78v-.06h1.31l.93.98Z"/>
        <path class="cls-7" d="m389.02,394.67l.04.79c.51-.61,1.17-.92,2-.92,1.43,0,2.16.82,2.18,2.46v4.54h-1.54v-4.45c0-.44-.09-.76-.28-.97-.19-.21-.5-.31-.92-.31-.62,0-1.09.28-1.39.84v4.89h-1.54v-6.87h1.45Z"/>
        <path class="cls-7" d="m396.48,401.54h-1.54v-6.87h1.54v6.87Zm-.29-9.71h1.76l-1.76,1.92h-1.24s1.24-1.92,1.24-1.92Z"/>
        <path class="cls-7" d="m370.49,407.67l.04.72c.48-.56,1.14-.84,1.98-.84.92,0,1.55.35,1.89,1.05.5-.7,1.2-1.05,2.11-1.05.76,0,1.32.21,1.69.63.37.42.56,1.04.57,1.85v4.51h-1.54v-4.47c0-.44-.1-.76-.29-.96s-.51-.3-.95-.3c-.35,0-.64.09-.86.28-.22.19-.38.44-.47.74v4.71s-1.54,0-1.54,0v-4.52c-.02-.81-.43-1.21-1.24-1.21-.62,0-1.06.25-1.31.76v4.98h-1.54v-6.87h1.45Z"/>
        <path class="cls-7" d="m380.35,405.89c0-.24.08-.43.23-.59.15-.16.37-.23.64-.23s.5.08.65.23c.15.16.23.35.23.59s-.08.43-.23.58c-.15.15-.37.23-.65.23s-.49-.08-.64-.23c-.15-.15-.23-.35-.23-.58Zm1.64,8.65h-1.54v-6.87h1.54v6.87Z"/>
        <path class="cls-7" d="m385.1,407.67l.04.79c.51-.61,1.17-.92,2-.92,1.43,0,2.16.82,2.18,2.46v4.54h-1.54v-4.45c0-.44-.09-.76-.28-.97-.19-.21-.5-.31-.92-.31-.62,0-1.09.28-1.39.84v4.89h-1.54v-6.87h1.45Z"/>
        <path class="cls-7" d="m390.9,405.89c0-.24.08-.43.23-.59.15-.16.37-.23.64-.23s.5.08.65.23c.15.16.23.35.23.59s-.08.43-.23.58c-.15.15-.37.23-.65.23s-.49-.08-.64-.23c-.15-.15-.23-.35-.23-.58Zm1.64,8.65h-1.54v-6.87h1.54v6.87Z"/>
        <path class="cls-7" d="m395.67,407.67l.04.72c.48-.56,1.14-.84,1.98-.84.92,0,1.55.35,1.89,1.05.5-.7,1.2-1.05,2.11-1.05.76,0,1.32.21,1.69.63.37.42.56,1.04.57,1.85v4.51h-1.54v-4.47c0-.44-.1-.76-.29-.96s-.51-.3-.95-.3c-.35,0-.64.09-.86.28-.22.19-.38.44-.47.74v4.71s-1.54,0-1.54,0v-4.52c-.02-.81-.43-1.21-1.24-1.21-.62,0-1.06.25-1.31.76v4.98h-1.54v-6.87h1.45Z"/>
        <path class="cls-7" d="m409.69,413.87c-.45.53-1.1.8-1.93.8-.74,0-1.31-.22-1.69-.65-.38-.44-.57-1.07-.57-1.89v-4.45h1.54v4.43c0,.87.36,1.31,1.09,1.31s1.25-.27,1.52-.81v-4.93h1.54v6.87h-1.45l-.04-.67Z"/>
        <path class="cls-7" d="m414.2,407.67l.04.72c.48-.56,1.14-.84,1.98-.84.92,0,1.55.35,1.89,1.05.5-.7,1.2-1.05,2.11-1.05.76,0,1.32.21,1.69.63.37.42.56,1.04.57,1.85v4.51h-1.54v-4.47c0-.44-.1-.76-.29-.96s-.51-.3-.95-.3c-.35,0-.64.09-.86.28-.22.19-.38.44-.47.74v4.71s-1.54,0-1.54,0v-4.52c-.02-.81-.43-1.21-1.24-1.21-.62,0-1.06.25-1.31.76v4.98h-1.54v-6.87h1.45Z"/>
        <path class="cls-7" d="m370.34,425.15h.75c.47,0,.84-.13,1.11-.37s.4-.56.4-.97c0-.92-.46-1.38-1.37-1.38-.43,0-.77.12-1.03.37-.26.25-.38.57-.38.98h-.99c0-.62.23-1.13.68-1.54.45-.41,1.03-.61,1.73-.61.74,0,1.32.2,1.73.59s.63.93.63,1.63c0,.34-.11.67-.33.99-.22.32-.52.56-.9.71.43.14.76.36,1,.68.23.31.35.7.35,1.15,0,.7-.23,1.26-.69,1.67s-1.05.62-1.79.62-1.33-.2-1.79-.6c-.46-.4-.69-.92-.69-1.57h1c0,.41.13.74.4.99s.63.37,1.08.37c.48,0,.85-.13,1.1-.38s.38-.61.38-1.08-.14-.8-.42-1.05-.68-.37-1.21-.38h-.75v-.81Z"/>
        <path class="cls-7" d="m380.12,422.28l-3.24,7.26h-1.04l3.23-7h-4.23v-.82h5.29v.56Z"/>
        <path class="cls-7" d="m383.89,423.23c0-.47.15-.86.45-1.16.3-.3.68-.46,1.15-.46s.86.15,1.16.46c.29.31.44.7.44,1.19v.38c0,.47-.15.86-.45,1.16-.3.3-.68.45-1.14.45s-.85-.15-1.15-.45c-.3-.3-.46-.7-.46-1.19v-.38Zm.74.41c0,.28.08.51.24.69s.37.27.63.27.46-.09.61-.26c.16-.18.23-.42.23-.72v-.39c0-.28-.08-.51-.23-.69s-.36-.27-.63-.27-.47.09-.63.27-.23.42-.23.72v.39Zm1.1,5.31l-.56-.35,3.82-6.11.56.35-3.82,6.11Zm1.97-1.33c0-.47.15-.85.45-1.16.3-.3.68-.45,1.15-.45s.85.15,1.15.45.45.7.45,1.2v.38c0,.47-.15.85-.45,1.16-.3.3-.68.45-1.15.45s-.85-.15-1.15-.45c-.3-.3-.46-.7-.46-1.19v-.39Zm.74.42c0,.28.08.52.24.7s.37.27.63.27.46-.09.62-.27.23-.42.23-.72v-.4c0-.28-.08-.51-.23-.69-.16-.18-.36-.27-.63-.27s-.46.09-.62.27c-.16.18-.24.42-.24.72v.4Z"/>
        <path class="cls-7" d="m395.79,423.73l.03.64c.43-.5,1-.75,1.72-.75.81,0,1.37.31,1.66.93.19-.28.44-.5.75-.68.31-.17.68-.26,1.1-.26,1.27,0,1.92.67,1.94,2.02v3.89h-.99v-3.83c0-.42-.09-.73-.28-.93-.19-.21-.51-.31-.96-.31-.37,0-.67.11-.92.33s-.38.52-.42.89v3.86h-1v-3.81c0-.85-.41-1.27-1.24-1.27-.65,0-1.1.28-1.34.83v4.24h-.99v-5.81h.94Z"/>
        <path class="cls-7" d="m408.08,429.54c-.06-.11-.1-.32-.14-.61-.46.48-1.01.72-1.65.72-.57,0-1.04-.16-1.41-.49-.37-.32-.55-.73-.55-1.23,0-.6.23-1.08.69-1.41.46-.33,1.11-.5,1.94-.5h.97v-.46c0-.35-.1-.62-.31-.83-.21-.21-.51-.31-.92-.31-.35,0-.65.09-.89.27s-.36.4-.36.65h-1c0-.29.1-.57.31-.84.21-.27.48-.48.84-.64.35-.16.74-.24,1.16-.24.67,0,1.19.17,1.57.5.38.33.58.8.59,1.38v2.67c0,.53.07.96.2,1.27v.09h-1.04Zm-1.65-.76c.31,0,.61-.08.89-.24s.48-.37.61-.63v-1.19h-.78c-1.22,0-1.83.36-1.83,1.07,0,.31.1.56.31.73s.47.26.8.26Z"/>
        <path class="cls-7" d="m412.43,425.85l1.29-2.12h1.16l-1.9,2.87,1.96,2.94h-1.15l-1.34-2.18-1.34,2.18h-1.15l1.96-2.94-1.9-2.87h1.15l1.27,2.12Z"/>
        <path class="cls-7" d="m415.94,422.19c0-.16.05-.3.15-.41.1-.11.24-.17.44-.17s.34.06.44.17.15.25.15.41-.05.3-.15.4-.25.16-.44.16-.34-.05-.44-.16c-.1-.11-.15-.24-.15-.4Zm1.07,7.35h-.99v-5.81h.99v5.81Z"/>
        <path class="cls-7" d="m419.54,423.73l.03.64c.43-.5,1-.75,1.72-.75.81,0,1.37.31,1.66.93.19-.28.44-.5.75-.68.31-.17.68-.26,1.1-.26,1.27,0,1.92.67,1.94,2.02v3.89h-.99v-3.83c0-.42-.09-.73-.28-.93-.19-.21-.51-.31-.96-.31-.37,0-.67.11-.92.33s-.38.52-.42.89v3.86h-1v-3.81c0-.85-.41-1.27-1.24-1.27-.65,0-1.1.28-1.34.83v4.24h-.99v-5.81h.94Z"/>
        <path class="cls-7" d="m431.83,429.54c-.06-.11-.1-.32-.14-.61-.46.48-1.01.72-1.65.72-.57,0-1.04-.16-1.41-.49-.37-.32-.55-.73-.55-1.23,0-.6.23-1.08.69-1.41.46-.33,1.11-.5,1.94-.5h.97v-.46c0-.35-.1-.62-.31-.83-.21-.21-.51-.31-.92-.31-.35,0-.65.09-.89.27s-.36.4-.36.65h-1c0-.29.1-.57.31-.84.21-.27.48-.48.84-.64.35-.16.74-.24,1.16-.24.67,0,1.19.17,1.57.5.38.33.58.8.59,1.38v2.67c0,.53.07.96.2,1.27v.09h-1.04Zm-1.65-.76c.31,0,.61-.08.89-.24s.48-.37.61-.63v-1.19h-.78c-1.22,0-1.83.36-1.83,1.07,0,.31.1.56.31.73s.47.26.8.26Z"/>
      </g>
    </g>
  </g>
</svg>