<?xml version="1.0" encoding="UTF-8"?>
<svg id="Layer_1" data-name="Layer 1" xmlns="http://www.w3.org/2000/svg" xmlns:xlink="http://www.w3.org/1999/xlink" viewBox="0 0 440 200.6">
  <defs>
    <style>
      .cls-1, .cls-2 {
        fill: none;
      }

      .cls-3 {
        clip-path: url(#clippath);
      }

      .cls-4 {
        fill: #6a7599;
      }

      .cls-5 {
        fill: #f5b97b;
      }

      .cls-6 {
        fill: #ed4c67;
      }

      .cls-7 {
        fill: #f5c593;
      }

      .cls-8 {
        fill: #fff;
      }

      .cls-9 {
        fill: #666c80;
      }

      .cls-10 {
        fill: #35baae;
      }

      .cls-11 {
        fill: #8395a7;
      }

      .cls-12 {
        fill: #606060;
      }

      .cls-13 {
        fill: url(#New_Pattern);
        opacity: .6;
      }

      .cls-14 {
        clip-path: url(#clippath-1);
      }

      .cls-2 {
        stroke: #fff;
        stroke-miterlimit: 10;
      }

      .cls-15 {
        opacity: .7;
      }
    </style>
    <clipPath id="clippath">
      <rect class="cls-1" x="0" y="0" width="44" height="44"/>
    </clipPath>
    <clipPath id="clippath-1">
      <rect class="cls-1" x="0" y="-42" width="44" height="44"/>
    </clipPath>
    <pattern id="New_Pattern" data-name="New Pattern" x="0" y="0" width="44" height="42" patternTransform="translate(996.97 3495.38) scale(.82 1)" patternUnits="userSpaceOnUse" viewBox="0 0 44 42">
      <g>
        <rect class="cls-1" x="0" width="44" height="42"/>
        <g class="cls-3">
          <g>
            <line class="cls-2" x1="165.47" y1="-1.19" x2="144.55" y2="52.04"/>
            <line class="cls-2" x1="159.97" y1="-1.19" x2="139.05" y2="52.04"/>
            <line class="cls-2" x1="154.47" y1="-1.19" x2="133.55" y2="52.04"/>
            <line class="cls-2" x1="148.97" y1="-1.19" x2="128.05" y2="52.04"/>
            <line class="cls-2" x1="143.47" y1="-1.19" x2="122.55" y2="52.04"/>
            <line class="cls-2" x1="137.97" y1="-1.19" x2="117.05" y2="52.04"/>
            <line class="cls-2" x1="132.47" y1="-1.19" x2="111.55" y2="52.04"/>
            <line class="cls-2" x1="126.97" y1="-1.19" x2="106.05" y2="52.04"/>
            <line class="cls-2" x1="121.47" y1="-1.19" x2="100.55" y2="52.04"/>
            <line class="cls-2" x1="115.97" y1="-1.19" x2="95.05" y2="52.04"/>
            <line class="cls-2" x1="110.47" y1="-1.19" x2="89.55" y2="52.04"/>
            <line class="cls-2" x1="104.97" y1="-1.19" x2="84.05" y2="52.04"/>
            <line class="cls-2" x1="99.47" y1="-1.19" x2="78.55" y2="52.04"/>
            <line class="cls-2" x1="93.97" y1="-1.19" x2="73.05" y2="52.04"/>
            <line class="cls-2" x1="88.47" y1="-1.19" x2="67.55" y2="52.04"/>
            <line class="cls-2" x1="82.97" y1="-1.19" x2="62.05" y2="52.04"/>
            <line class="cls-2" x1="77.47" y1="-1.19" x2="56.55" y2="52.04"/>
            <line class="cls-2" x1="71.97" y1="-1.19" x2="51.05" y2="52.04"/>
            <line class="cls-2" x1="66.47" y1="-1.19" x2="45.55" y2="52.04"/>
            <line class="cls-2" x1="60.97" y1="-1.19" x2="40.05" y2="52.04"/>
            <line class="cls-2" x1="55.47" y1="-1.19" x2="34.55" y2="52.04"/>
            <line class="cls-2" x1="49.97" y1="-1.19" x2="29.05" y2="52.04"/>
            <line class="cls-2" x1="44.47" y1="-1.19" x2="23.55" y2="52.04"/>
            <line class="cls-2" x1="38.97" y1="-1.19" x2="18.05" y2="52.04"/>
            <line class="cls-2" x1="33.47" y1="-1.19" x2="12.55" y2="52.04"/>
            <line class="cls-2" x1="27.97" y1="-1.19" x2="7.05" y2="52.04"/>
            <line class="cls-2" x1="22.47" y1="-1.19" x2="1.55" y2="52.04"/>
            <line class="cls-2" x1="16.97" y1="-1.19" x2="-3.95" y2="52.04"/>
            <line class="cls-2" x1="11.47" y1="-1.19" x2="-9.45" y2="52.04"/>
            <line class="cls-2" x1="5.97" y1="-1.19" x2="-14.95" y2="52.04"/>
            <line class="cls-2" x1=".47" y1="-1.19" x2="-20.45" y2="52.04"/>
          </g>
        </g>
        <g class="cls-14">
          <g>
            <line class="cls-2" x1="60.97" y1="-43.18" x2="40.05" y2="10.04"/>
            <line class="cls-2" x1="55.47" y1="-43.18" x2="34.55" y2="10.04"/>
            <line class="cls-2" x1="49.97" y1="-43.18" x2="29.05" y2="10.04"/>
            <line class="cls-2" x1="44.47" y1="-43.18" x2="23.55" y2="10.04"/>
            <line class="cls-2" x1="38.97" y1="-43.18" x2="18.05" y2="10.04"/>
            <line class="cls-2" x1="33.47" y1="-43.18" x2="12.55" y2="10.04"/>
            <line class="cls-2" x1="27.97" y1="-43.18" x2="7.05" y2="10.04"/>
            <line class="cls-2" x1="22.47" y1="-43.18" x2="1.55" y2="10.04"/>
            <line class="cls-2" x1="16.97" y1="-43.18" x2="-3.95" y2="10.04"/>
            <line class="cls-2" x1="11.47" y1="-43.18" x2="-9.45" y2="10.04"/>
            <line class="cls-2" x1="5.97" y1="-43.18" x2="-14.95" y2="10.04"/>
            <line class="cls-2" x1=".47" y1="-43.18" x2="-20.45" y2="10.04"/>
          </g>
        </g>
      </g>
    </pattern>
  </defs>
  <rect class="cls-8" x="-536.76" y="-244.19" width="6217.85" height="1265.86"/>
  <rect class="cls-11" x="18.45" y="132.18" width="155.15" height="50"/>
  <rect class="cls-10" x="2.03" y="132.18" width="16.42" height="50"/>
  <rect class="cls-7" x="173.6" y="132.18" width="44.22" height="50"/>
  <rect class="cls-6" x="217.82" y="132.18" width="130.63" height="50"/>
  <rect class="cls-6" x="382.86" y="132.18" width="57.14" height="50"/>
  <rect class="cls-13" x="382.86" y="132.18" width="57.14" height="50"/>
  <g class="cls-15">
    <g>
      <path class="cls-11" d="m152.4,123.86h-6.21v-1.06l3.08-3.36c.44-.5.76-.91.95-1.24.19-.33.28-.67.28-1,0-.44-.12-.8-.37-1.07-.25-.27-.58-.41-1-.41-.5,0-.89.15-1.16.46s-.41.72-.41,1.25h-1.54c0-.56.13-1.07.38-1.52.26-.45.62-.8,1.1-1.05.48-.25,1.03-.37,1.65-.37.9,0,1.6.23,2.12.68.52.45.78,1.07.78,1.87,0,.46-.13.94-.39,1.45-.26.51-.69,1.08-1.28,1.72l-2.26,2.42h4.29v1.23Z"/>
      <path class="cls-11" d="m159.4,117.06c0,.45-.12.86-.35,1.21-.23.35-.55.63-.95.83.48.22.85.53,1.11.92.26.39.39.83.39,1.32,0,.81-.27,1.46-.83,1.93-.55.48-1.28.71-2.2.71s-1.65-.24-2.21-.72c-.55-.48-.83-1.12-.83-1.93,0-.5.13-.94.39-1.33s.63-.7,1.1-.91c-.4-.2-.71-.48-.94-.83-.23-.35-.35-.76-.35-1.21,0-.79.25-1.41.76-1.87s1.19-.69,2.06-.69,1.56.23,2.06.69.76,1.09.76,1.87Zm-1.34,4.21c0-.46-.14-.83-.41-1.11-.27-.28-.63-.42-1.08-.42s-.81.14-1.08.42c-.27.28-.4.65-.4,1.11s.13.81.4,1.09c.26.27.63.41,1.09.41s.83-.13,1.09-.39c.26-.26.39-.63.39-1.1Zm-.2-4.15c0-.4-.12-.73-.35-.99-.23-.26-.55-.39-.94-.39s-.7.12-.93.37c-.23.25-.34.58-.34,1.01s.12.76.35,1.01c.23.25.54.37.94.37s.71-.12.94-.37c.23-.25.35-.59.35-1.01Z"/>
      <path class="cls-11" d="m161.28,125.94l-.83-.5c.25-.39.41-.72.5-1.01.09-.29.14-.58.14-.87v-1.2h1.39v1.11c-.01.45-.12.9-.35,1.35-.22.45-.51.82-.86,1.11Z"/>
      <path class="cls-11" d="m169.04,120.57h1.15v1.24h-1.15v2.06h-1.54v-2.06h-3.99l-.04-.94,3.99-6.25h1.59v5.95Zm-3.96,0h2.42v-3.86l-.11.2-2.3,3.66Z"/>
    </g>
  </g>
  <g>
    <path class="cls-11" d="m139.43,93.91h2.05v6.89c0,.63-.14,1.19-.42,1.68s-.68.86-1.19,1.12c-.51.26-1.09.4-1.73.4-1.05,0-1.87-.27-2.46-.8s-.88-1.29-.88-2.27h2.06c0,.49.1.85.31,1.08s.53.35.97.35c.39,0,.7-.13.94-.4s.35-.65.35-1.15v-6.89Z"/>
    <path class="cls-11" d="m147.39,103.86c-.09-.18-.16-.4-.2-.66-.48.53-1.1.8-1.87.8-.72,0-1.33-.21-1.8-.63-.48-.42-.71-.95-.71-1.59,0-.78.29-1.39.87-1.8s1.42-.63,2.52-.64h.91v-.42c0-.34-.09-.62-.26-.82-.17-.21-.45-.31-.83-.31-.33,0-.59.08-.78.24-.19.16-.28.38-.28.66h-1.98c0-.43.13-.82.4-1.19.26-.36.64-.65,1.12-.86.48-.21,1.03-.31,1.63-.31.91,0,1.63.23,2.17.69.54.46.8,1.1.8,1.93v3.21c0,.7.1,1.23.29,1.59v.12h-2Zm-1.63-1.37c.29,0,.56-.06.81-.19s.43-.3.55-.52v-1.27h-.74c-.99,0-1.52.34-1.58,1.03v.12c0,.25.08.45.25.61.17.16.41.24.71.24Zm.75-9.13h2.15l-1.89,2.12h-1.61l1.35-2.12Z"/>
    <path class="cls-11" d="m150.3,100.11c0-1.15.26-2.07.78-2.75.52-.68,1.22-1.03,2.12-1.03.72,0,1.31.27,1.78.81v-3.77h1.98v10.5h-1.78l-.1-.79c-.49.62-1.13.92-1.9.92-.87,0-1.57-.34-2.1-1.03s-.79-1.64-.79-2.86Zm1.98.15c0,.69.12,1.23.36,1.6.24.37.59.55,1.05.55.61,0,1.04-.26,1.29-.77v-2.92c-.25-.52-.67-.77-1.28-.77-.95,0-1.43.77-1.43,2.32Z"/>
    <path class="cls-11" d="m162.66,98.31c-.27-.04-.51-.05-.71-.05-.75,0-1.24.25-1.47.76v4.84h-1.98v-7.4h1.87l.05.88c.4-.68.95-1.02,1.65-1.02.22,0,.42.03.62.09l-.03,1.9Z"/>
    <path class="cls-11" d="m163.05,100.09c0-.73.14-1.39.42-1.96.28-.57.69-1.02,1.22-1.33.53-.31,1.15-.47,1.85-.47,1,0,1.81.31,2.44.92.63.61.98,1.44,1.06,2.49v.51c.01,1.13-.3,2.04-.94,2.73-.63.69-1.48,1.03-2.55,1.03s-1.92-.34-2.55-1.03-.95-1.61-.95-2.79v-.09Zm1.98.14c0,.7.13,1.24.4,1.61.26.37.64.56,1.13.56s.85-.18,1.12-.55c.27-.37.4-.96.4-1.76,0-.69-.13-1.22-.4-1.6-.27-.38-.65-.57-1.13-.57s-.86.19-1.12.56c-.26.38-.4.96-.4,1.75Z"/>
  </g>
  <g>
    <path class="cls-5" d="m190.83,77.86h-2.05l-3.99-6.55v6.55h-2.05v-9.95h2.05l4,6.56v-6.56h2.04v9.95Z"/>
    <path class="cls-5" d="m194.62,77.86h-1.98v-7.4h1.98v7.4Zm-.58-10.4h2.15l-1.89,2.12h-1.61l1.35-2.12Z"/>
    <path class="cls-5" d="m198.59,76.27h3.62v1.59h-6.14v-1.2l3.48-4.6h-3.38v-1.59h5.93v1.16l-3.51,4.64Z"/>
    <path class="cls-5" d="m206.13,74.89l-.71.71v2.26h-1.98v-10.5h1.98v5.82l.38-.49,1.89-2.22h2.37l-2.67,3.08,2.91,4.31h-2.27l-1.9-2.97Z"/>
    <path class="cls-5" d="m210.62,74.09c0-.73.14-1.39.42-1.96s.69-1.02,1.22-1.33,1.15-.47,1.85-.47c1,0,1.81.31,2.44.92s.98,1.44,1.06,2.49v.51c.01,1.13-.3,2.04-.94,2.73s-1.48,1.03-2.55,1.03-1.92-.34-2.55-1.03-.95-1.61-.95-2.79v-.09Zm1.98.14c0,.7.13,1.24.4,1.61.26.37.64.56,1.13.56s.85-.18,1.12-.55c.27-.37.4-.96.4-1.76,0-.69-.13-1.22-.4-1.6s-.65-.57-1.13-.57-.86.19-1.12.56-.4.96-.4,1.75Z"/>
    <path class="cls-5" d="m222.24,78c-1.08,0-1.97-.33-2.65-1s-1.02-1.55-1.02-2.66v-.19c0-.74.14-1.41.43-1.99s.69-1.04,1.22-1.35,1.13-.48,1.8-.48c1.01,0,1.81.32,2.39.96s.87,1.54.87,2.71v.81h-4.71c.06.48.26.87.58,1.16s.73.44,1.22.44c.76,0,1.36-.28,1.78-.83l.97,1.09c-.3.42-.7.75-1.2.98s-1.07.35-1.68.35Zm-.23-6.08c-.39,0-.71.13-.95.4s-.4.65-.47,1.14h2.75v-.16c0-.44-.13-.78-.36-1.02s-.55-.36-.97-.36Z"/>
    <path class="cls-5" d="m228.26,70.46l.06.83c.52-.64,1.23-.96,2.13-.96.95,0,1.61.38,1.96,1.13.52-.75,1.26-1.13,2.22-1.13.8,0,1.4.23,1.79.7s.59,1.17.59,2.11v4.72h-1.98v-4.72c0-.42-.08-.73-.25-.92s-.45-.29-.87-.29c-.59,0-1,.28-1.23.85v5.08s-1.97,0-1.97,0v-4.71c0-.43-.08-.74-.25-.93s-.46-.29-.86-.29c-.56,0-.97.23-1.22.7v5.23h-1.98v-7.4h1.85Z"/>
    <path class="cls-5" d="m238.51,68.55c0-.3.1-.54.3-.73s.47-.29.81-.29.61.1.81.29.3.44.3.73-.1.55-.3.74-.47.29-.8.29-.6-.1-.8-.29-.3-.44-.3-.74Zm2.1,9.31h-1.98v-7.4h1.98v7.4Z"/>
    <path class="cls-5" d="m246.25,75.81c0-.24-.12-.43-.36-.57s-.62-.26-1.15-.37c-1.76-.37-2.64-1.12-2.64-2.24,0-.66.27-1.2.82-1.64s1.26-.66,2.14-.66c.94,0,1.69.22,2.25.66s.84,1.02.84,1.72h-1.98c0-.28-.09-.52-.27-.7s-.47-.28-.85-.28c-.33,0-.59.08-.77.23s-.27.34-.27.57c0,.22.1.4.31.53s.56.25,1.05.35.91.21,1.24.33c1.04.38,1.57,1.05,1.57,1.99,0,.67-.29,1.22-.87,1.64s-1.33.63-2.24.63c-.62,0-1.17-.11-1.65-.33s-.86-.52-1.13-.91-.41-.8-.41-1.25h1.87c.02.35.15.62.39.81s.56.28.97.28c.38,0,.66-.07.86-.22s.29-.33.29-.56Z"/>
    <path class="cls-5" d="m251.26,70.46l.06.85c.53-.66,1.24-.99,2.13-.99.78,0,1.37.23,1.75.69s.58,1.15.59,2.06v4.78h-1.98v-4.73c0-.42-.09-.72-.27-.91s-.49-.28-.91-.28c-.56,0-.97.24-1.25.71v5.22h-1.98v-7.4h1.86Z"/>
    <path class="cls-5" d="m259.41,77.86h-1.98v-7.4h1.98v7.4Zm-.58-10.4h2.15l-1.89,2.12h-1.61l1.35-2.12Z"/>
    <path class="cls-5" d="m183.14,90.86v-5.95h-1.1v-1.45h1.1v-.63c0-.83.24-1.47.71-1.93s1.14-.69,2-.69c.27,0,.61.05,1,.14l-.02,1.53c-.16-.04-.36-.06-.6-.06-.74,0-1.11.35-1.11,1.05v.59h1.47v1.45h-1.47v5.95h-1.98Z"/>
    <path class="cls-5" d="m189.71,90.86h-1.98v-10.5h1.98v10.5Z"/>
    <path class="cls-5" d="m194.74,91c-1.08,0-1.97-.33-2.65-1s-1.02-1.55-1.02-2.66v-.19c0-.74.14-1.41.43-1.99s.69-1.04,1.22-1.35,1.13-.48,1.8-.48c1.01,0,1.81.32,2.39.96s.87,1.54.87,2.71v.81h-4.71c.06.48.26.87.58,1.16s.73.44,1.22.44c.76,0,1.36-.28,1.78-.83l.97,1.09c-.3.42-.7.75-1.2.98s-1.07.35-1.68.35Zm-.23-6.08c-.39,0-.71.13-.95.4s-.4.65-.47,1.14h2.75v-.16c0-.44-.13-.78-.36-1.02s-.55-.36-.97-.36Z"/>
    <path class="cls-5" d="m201.72,85.67l1.24-2.21h2.11l-2.11,3.62,2.19,3.77h-2.12l-1.32-2.32-1.31,2.32h-2.13l2.19-3.77-2.1-3.62h2.12l1.22,2.21Z"/>
    <path class="cls-5" d="m206.01,81.55c0-.3.1-.54.3-.73s.47-.29.81-.29.61.1.81.29.3.44.3.73-.1.55-.3.74-.47.29-.8.29-.6-.1-.8-.29-.3-.44-.3-.74Zm2.1,9.31h-1.98v-7.4h1.98v7.4Z"/>
    <path class="cls-5" d="m216.4,87.23c0,1.19-.25,2.11-.76,2.77s-1.21.99-2.12.99c-.8,0-1.44-.31-1.92-.92l-.09.79h-1.78v-10.5h1.98v3.77c.46-.53,1.06-.8,1.8-.8.9,0,1.61.33,2.12.99s.77,1.6.77,2.8v.11Zm-1.98-.14c0-.75-.12-1.29-.36-1.64s-.59-.52-1.06-.52c-.63,0-1.06.26-1.3.77v2.92c.24.52.68.78,1.31.78s1.06-.31,1.26-.94c.1-.3.14-.76.14-1.37Z"/>
    <path class="cls-5" d="m217.6,81.55c0-.3.1-.54.3-.73s.47-.29.81-.29.61.1.81.29.3.44.3.73-.1.55-.3.74-.47.29-.8.29-.6-.1-.8-.29-.3-.44-.3-.74Zm2.1,9.31h-1.98v-7.4h1.98v7.4Z"/>
    <path class="cls-5" d="m223.41,90.86h-1.98v-10.5h1.98v10.5Z"/>
    <path class="cls-5" d="m226.86,83.46l.06.85c.53-.66,1.24-.99,2.13-.99.78,0,1.37.23,1.75.69s.58,1.15.59,2.06v4.78h-1.98v-4.73c0-.42-.09-.72-.27-.91s-.49-.28-.91-.28c-.56,0-.97.24-1.25.71v5.22h-1.98v-7.4h1.86Z"/>
    <path class="cls-5" d="m235.01,90.86h-1.98v-7.4h1.98v7.4Zm-.58-10.4h2.15l-1.89,2.12h-1.61l1.35-2.12Z"/>
    <path class="cls-5" d="m184.87,102.27h3.62v1.59h-6.14v-1.2l3.48-4.6h-3.38v-1.59h5.93v1.16l-3.51,4.64Z"/>
    <path class="cls-5" d="m189.42,100.11c0-1.15.26-2.07.78-2.75s1.22-1.03,2.12-1.03c.72,0,1.31.27,1.78.81v-3.77h1.98v10.5h-1.78l-.1-.79c-.49.62-1.13.92-1.9.92-.87,0-1.57-.34-2.1-1.03s-.79-1.64-.79-2.86Zm1.98.15c0,.69.12,1.23.36,1.6.24.37.59.55,1.05.55.61,0,1.04-.26,1.29-.77v-2.92c-.25-.52-.67-.77-1.28-.77-.95,0-1.43.77-1.43,2.32Z"/>
    <path class="cls-5" d="m201.77,98.31c-.27-.04-.51-.05-.71-.05-.75,0-1.24.25-1.47.76v4.84h-1.98v-7.4h1.87l.05.88c.4-.68.95-1.02,1.65-1.02.22,0,.42.03.62.09l-.03,1.9Z"/>
    <path class="cls-5" d="m202.17,100.09c0-.73.14-1.39.42-1.96s.69-1.02,1.22-1.33,1.15-.47,1.85-.47c1,0,1.81.31,2.44.92s.98,1.44,1.06,2.49v.51c.01,1.13-.3,2.04-.94,2.73s-1.48,1.03-2.55,1.03-1.92-.34-2.55-1.03-.95-1.61-.95-2.79v-.09Zm1.98.14c0,.7.13,1.24.4,1.61.26.37.64.56,1.13.56s.85-.18,1.12-.55c.27-.37.4-.96.4-1.76,0-.69-.13-1.22-.4-1.6s-.65-.57-1.13-.57-.86.19-1.12.56-.4.96-.4,1.75Z"/>
    <path class="cls-5" d="m212.48,96.46v7.8c0,.82-.22,1.45-.65,1.9s-1.06.68-1.87.68c-.34,0-.67-.04-.98-.12v-1.57c.24.04.44.06.62.06.6,0,.9-.32.9-.95v-7.81h1.98Zm-2.14-1.91c0-.3.1-.54.3-.73s.47-.29.81-.29.61.1.81.29.3.44.3.73-.1.55-.3.74-.47.29-.8.29-.6-.1-.8-.29-.3-.44-.3-.74Z"/>
    <path class="cls-5" d="m217.43,104c-1.08,0-1.97-.33-2.65-1s-1.02-1.55-1.02-2.66v-.19c0-.74.14-1.41.43-1.99s.69-1.04,1.22-1.35,1.13-.48,1.8-.48c1.01,0,1.81.32,2.39.96s.87,1.54.87,2.71v.81h-4.71c.06.48.26.87.58,1.16s.73.44,1.22.44c.76,0,1.36-.28,1.78-.83l.97,1.09c-.3.42-.7.75-1.2.98s-1.07.35-1.68.35Zm-.23-6.08c-.39,0-.71.13-.95.4s-.4.65-.47,1.14h2.75v-.16c0-.44-.13-.78-.36-1.02s-.55-.36-.97-.36Z"/>
  </g>
  <g>
    <path class="cls-6" d="m267.9,99.79h-3.94v4.07h-2.05v-9.95h6.48v1.66h-4.43v2.57h3.94v1.65Z"/>
    <path class="cls-6" d="m269,100.09c0-.73.14-1.39.42-1.96.28-.57.69-1.02,1.22-1.33.53-.31,1.15-.47,1.85-.47,1,0,1.81.31,2.44.92.63.61.98,1.44,1.06,2.49v.51c.01,1.13-.3,2.04-.94,2.73-.63.69-1.48,1.03-2.55,1.03s-1.92-.34-2.55-1.03-.95-1.61-.95-2.79v-.09Zm1.98.14c0,.7.13,1.24.4,1.61.26.37.64.56,1.13.56s.85-.18,1.12-.55c.27-.37.4-.96.4-1.76,0-.69-.13-1.22-.4-1.6-.27-.38-.65-.57-1.13-.57s-.86.19-1.12.56c-.26.38-.4.96-.4,1.75Z"/>
    <path class="cls-6" d="m281.23,101.81c0-.24-.12-.43-.36-.57s-.62-.26-1.15-.37c-1.76-.37-2.64-1.12-2.64-2.24,0-.66.27-1.2.82-1.64.54-.44,1.26-.66,2.14-.66.94,0,1.69.22,2.25.66.56.44.84,1.02.84,1.72h-1.98c0-.28-.09-.52-.27-.7-.18-.18-.47-.28-.85-.28-.33,0-.59.08-.77.23-.18.15-.27.34-.27.57,0,.22.1.4.31.53.21.13.56.25,1.05.35s.91.21,1.24.33c1.04.38,1.57,1.05,1.57,1.99,0,.67-.29,1.22-.87,1.64-.58.42-1.33.63-2.24.63-.62,0-1.17-.11-1.65-.33-.48-.22-.86-.52-1.13-.91s-.41-.8-.41-1.25h1.87c.02.35.15.62.39.81.24.19.56.28.97.28.38,0,.66-.07.86-.22.19-.14.29-.33.29-.56Z"/>
    <path class="cls-6" d="m284.41,94.55c0-.3.1-.54.3-.73s.47-.29.81-.29.61.1.81.29c.2.19.3.44.3.73s-.1.55-.3.74c-.2.19-.47.29-.8.29s-.6-.1-.8-.29c-.2-.19-.3-.44-.3-.74Zm2.1,9.31h-1.98v-7.4h1.98v7.4Z"/>
    <path class="cls-6" d="m290.22,103.86h-1.98v-10.5h1.98v10.5Z"/>
    <path class="cls-6" d="m293.66,96.46l.06.85c.53-.66,1.24-.99,2.13-.99.78,0,1.37.23,1.75.69s.58,1.15.59,2.06v4.78h-1.98v-4.73c0-.42-.09-.72-.27-.91-.18-.19-.49-.28-.91-.28-.56,0-.97.24-1.25.71v5.22h-1.98v-7.4h1.86Z"/>
    <path class="cls-6" d="m301.82,103.86h-1.98v-7.4h1.98v7.4Zm-.58-10.4h2.15l-1.89,2.12h-1.61l1.35-2.12Z"/>
    <path class="cls-6" d="m309.28,102.27h3.62v1.59h-6.14v-1.2l3.48-4.6h-3.38v-1.59h5.93v1.16l-3.51,4.64Z"/>
    <path class="cls-6" d="m313.82,100.11c0-1.15.26-2.07.78-2.75.52-.68,1.22-1.03,2.12-1.03.72,0,1.31.27,1.78.81v-3.77h1.98v10.5h-1.78l-.1-.79c-.49.62-1.13.92-1.9.92-.87,0-1.57-.34-2.1-1.03s-.79-1.64-.79-2.86Zm1.98.15c0,.69.12,1.23.36,1.6.24.37.59.55,1.05.55.61,0,1.04-.26,1.29-.77v-2.92c-.25-.52-.67-.77-1.28-.77-.95,0-1.43.77-1.43,2.32Z"/>
    <path class="cls-6" d="m326.17,98.31c-.27-.04-.51-.05-.71-.05-.75,0-1.24.25-1.47.76v4.84h-1.98v-7.4h1.87l.05.88c.4-.68.95-1.02,1.65-1.02.22,0,.42.03.62.09l-.03,1.9Z"/>
    <path class="cls-6" d="m326.57,100.09c0-.73.14-1.39.42-1.96.28-.57.69-1.02,1.22-1.33.53-.31,1.15-.47,1.85-.47,1,0,1.81.31,2.44.92.63.61.98,1.44,1.06,2.49v.51c.01,1.13-.3,2.04-.94,2.73-.63.69-1.48,1.03-2.55,1.03s-1.92-.34-2.55-1.03-.95-1.61-.95-2.79v-.09Zm1.98.14c0,.7.13,1.24.4,1.61.26.37.64.56,1.13.56s.85-.18,1.12-.55c.27-.37.4-.96.4-1.76,0-.69-.13-1.22-.4-1.6-.27-.38-.65-.57-1.13-.57s-.86.19-1.12.56c-.26.38-.4.96-.4,1.75Z"/>
    <path class="cls-6" d="m336.89,96.46v7.8c0,.82-.22,1.45-.65,1.9-.43.45-1.06.68-1.87.68-.34,0-.67-.04-.98-.12v-1.57c.24.04.44.06.62.06.6,0,.9-.32.9-.95v-7.81h1.98Zm-2.14-1.91c0-.3.1-.54.3-.73s.47-.29.81-.29.61.1.81.29.3.44.3.73-.1.55-.3.74c-.2.19-.47.29-.8.29s-.6-.1-.8-.29c-.2-.19-.3-.44-.3-.74Z"/>
    <path class="cls-6" d="m341.84,104c-1.08,0-1.97-.33-2.65-1-.68-.67-1.02-1.55-1.02-2.66v-.19c0-.74.14-1.41.43-1.99s.69-1.04,1.22-1.35,1.13-.48,1.8-.48c1.01,0,1.81.32,2.39.96s.87,1.54.87,2.71v.81h-4.71c.06.48.26.87.58,1.16s.73.44,1.22.44c.76,0,1.36-.28,1.78-.83l.97,1.09c-.3.42-.7.75-1.2.98s-1.07.35-1.68.35Zm-.23-6.08c-.39,0-.71.13-.95.4-.24.27-.4.65-.47,1.14h2.75v-.16c0-.44-.13-.78-.36-1.02-.23-.24-.55-.36-.97-.36Z"/>
  </g>
  <g>
    <path class="cls-12" d="m400.53,72.78h-4.22v2.86h4.95v1.77h-7.15v-10.66h7.13v1.78h-4.94v2.54h4.22v1.72Z"/>
    <path class="cls-12" d="m405.43,71.84l1.33-2.37h2.26l-2.26,3.88,2.35,4.04h-2.27l-1.41-2.49-1.41,2.49h-2.28l2.35-4.04-2.25-3.88h2.27l1.3,2.37Z"/>
    <path class="cls-12" d="m417.18,73.51c0,1.22-.28,2.2-.83,2.93-.55.74-1.3,1.1-2.24,1.1-.8,0-1.45-.28-1.94-.83v3.74h-2.12v-10.97h1.96l.07.78c.51-.62,1.18-.92,2.01-.92.98,0,1.74.36,2.28,1.08s.81,1.72.81,2.99v.11Zm-2.12-.15c0-.74-.13-1.31-.39-1.71-.26-.4-.64-.6-1.14-.6-.66,0-1.12.25-1.37.76v3.24c.26.52.72.78,1.38.78,1.01,0,1.52-.83,1.52-2.48Z"/>
    <path class="cls-12" d="m418.16,73.37c0-.79.15-1.49.45-2.1s.74-1.09,1.31-1.43c.57-.34,1.23-.51,1.98-.51,1.07,0,1.94.33,2.62.98.68.65,1.05,1.54,1.13,2.67v.54c.01,1.22-.32,2.19-1,2.93-.68.74-1.59,1.1-2.73,1.1s-2.05-.37-2.74-1.1c-.68-.73-1.02-1.73-1.02-2.99v-.1Zm2.12.15c0,.75.14,1.33.42,1.73s.69.6,1.22.6.91-.2,1.2-.59c.29-.39.43-1.02.43-1.89,0-.74-.14-1.31-.43-1.72s-.69-.61-1.22-.61-.92.2-1.2.6c-.28.4-.42,1.03-.42,1.87Z"/>
    <path class="cls-12" d="m431.42,71.46c-.29-.04-.54-.06-.76-.06-.8,0-1.33.27-1.57.81v5.19h-2.12v-7.92h2l.06.94c.42-.73,1.01-1.09,1.77-1.09.23,0,.45.03.66.1l-.03,2.04Z"/>
    <path class="cls-12" d="m435.34,67.53v1.95h1.35v1.55h-1.35v3.96c0,.29.06.5.17.63s.33.19.64.19c.23,0,.44-.02.62-.05v1.6c-.42.13-.84.19-1.28.19-1.48,0-2.24-.75-2.27-2.25v-4.27h-1.16v-1.55h1.16v-1.95h2.12Z"/>
    <path class="cls-12" d="m384.49,91.52h3.71v.88h-5.03v-.8l3.5-4.65h-3.45v-.9h4.8v.77l-3.53,4.69Z"/>
    <path class="cls-12" d="m392.92,92.4v-5.5h-1v-.84h1v-.65c0-.68.18-1.21.54-1.58s.88-.56,1.54-.56c.25,0,.5.03.74.1l-.06.87c-.18-.04-.38-.05-.59-.05-.35,0-.62.1-.81.31s-.29.5-.29.88v.67h1.35v.84h-1.35v5.5h-1.08Z"/>
    <path class="cls-12" d="m396.26,89.17c0-.62.12-1.18.37-1.68s.58-.88,1.02-1.15.93-.4,1.49-.4c.86,0,1.56.3,2.09.9s.8,1.39.8,2.38v.08c0,.62-.12,1.17-.35,1.66s-.57.87-1.01,1.15-.94.41-1.51.41c-.86,0-1.56-.3-2.09-.9s-.8-1.39-.8-2.37v-.08Zm1.09.13c0,.7.16,1.27.49,1.69s.76.64,1.31.64.99-.22,1.31-.65.49-1.04.49-1.81c0-.7-.17-1.26-.5-1.69s-.77-.65-1.32-.65-.97.21-1.29.64-.49,1.04-.49,1.83Z"/>
    <path class="cls-12" d="m407.09,90.72c0-.29-.11-.52-.33-.68s-.61-.3-1.15-.42-.98-.26-1.31-.42-.56-.36-.71-.59-.23-.5-.23-.81c0-.52.22-.96.66-1.32s1-.54,1.68-.54c.72,0,1.3.19,1.75.56s.67.85.67,1.42h-1.09c0-.3-.13-.55-.38-.77s-.57-.32-.95-.32-.7.09-.93.26-.33.4-.33.67c0,.26.1.46.31.59s.58.26,1.12.38.98.27,1.32.43.58.37.75.61.24.52.24.86c0,.57-.23,1.02-.68,1.36s-1.04.51-1.76.51c-.51,0-.96-.09-1.35-.27s-.7-.43-.92-.75-.33-.67-.33-1.05h1.08c.02.36.17.65.44.86s.63.32,1.08.32c.41,0,.74-.08.99-.25s.37-.39.37-.67Z"/>
    <path class="cls-12" d="m409.59,84.38c0-.18.05-.32.16-.45s.27-.18.48-.18.37.06.48.18.16.27.16.45-.05.32-.16.44-.27.18-.48.18-.37-.06-.48-.18-.16-.26-.16-.44Zm1.17,8.02h-1.08v-6.34h1.08v6.34Z"/>
    <path class="cls-12" d="m413.67,92.4h-1.08v-9h1.08v9Z"/>
    <path class="cls-12" d="m416.43,86.06l.04.8c.48-.61,1.12-.91,1.9-.91,1.34,0,2.02.76,2.03,2.27v4.19h-1.08v-4.2c0-.46-.11-.79-.31-1.01s-.52-.33-.96-.33c-.35,0-.66.09-.93.28s-.47.43-.62.74v4.52h-1.08v-6.34h1.03Z"/>
    <path class="cls-12" d="m423.22,83.41h1.31l-1.57,1.72h-.87s1.13-1.72,1.13-1.72Zm-.01,8.99h-1.09v-6.34h1.09v6.34Z"/>
    <path class="cls-12" d="m427.53,91.63c.39,0,.72-.12,1.01-.35s.45-.53.48-.88h1.03c-.02.36-.14.71-.38,1.04s-.54.59-.92.79-.79.29-1.22.29c-.86,0-1.55-.29-2.06-.86s-.76-1.36-.76-2.36v-.18c0-.62.11-1.17.34-1.65s.55-.85.98-1.12.92-.4,1.5-.4c.71,0,1.3.21,1.77.64s.72.98.75,1.66h-1.03c-.03-.41-.19-.75-.47-1.01s-.62-.4-1.03-.4c-.55,0-.98.2-1.28.59s-.45.97-.45,1.72v.21c0,.73.15,1.29.45,1.69s.73.59,1.29.59Z"/>
    <path class="cls-12" d="m432.36,86.83c.48-.59,1.11-.88,1.88-.88,1.34,0,2.02.76,2.03,2.27v4.19h-1.08v-4.2c0-.46-.11-.79-.31-1.01s-.52-.33-.96-.33c-.35,0-.66.09-.93.28s-.47.43-.62.74v4.52h-1.08v-9h1.08v3.43Z"/>
    <path class="cls-12" d="m405.92,103.52h3.71v.88h-5.03v-.8l3.5-4.65h-3.45v-.9h4.8v.77l-3.53,4.69Z"/>
    <path class="cls-12" d="m410.58,101.18c0-.97.23-1.75.69-2.35s1.06-.89,1.81-.89,1.33.25,1.76.76v-3.3h1.08v9h-1l-.05-.68c-.43.53-1.04.8-1.81.8s-1.33-.3-1.8-.9-.69-1.39-.69-2.36v-.08Zm1.08.12c0,.72.15,1.28.45,1.69s.71.61,1.23.61c.69,0,1.19-.31,1.51-.93v-2.91c-.32-.6-.82-.9-1.49-.9-.53,0-.95.21-1.24.62s-.45,1.02-.45,1.82Z"/>
    <path class="cls-12" d="m420.68,99.03c-.16-.03-.34-.04-.53-.04-.71,0-1.19.3-1.45.91v4.5h-1.08v-6.34h1.05l.02.73c.36-.57.86-.85,1.51-.85.21,0,.37.03.48.08v1.01Z"/>
    <path class="cls-12" d="m421.27,101.17c0-.62.12-1.18.37-1.68s.58-.88,1.02-1.15.93-.4,1.49-.4c.86,0,1.56.3,2.09.9s.8,1.39.8,2.38v.08c0,.62-.12,1.17-.35,1.66s-.57.87-1.01,1.15-.94.41-1.51.41c-.86,0-1.56-.3-2.09-.9s-.8-1.39-.8-2.37v-.08Zm1.09.13c0,.7.16,1.27.49,1.69s.76.64,1.31.64.99-.22,1.31-.65.49-1.04.49-1.81c0-.7-.17-1.26-.5-1.69s-.77-.65-1.32-.65-.97.21-1.29.64-.49,1.04-.49,1.83Z"/>
    <path class="cls-12" d="m429.52,98.06v7.07c0,1.22-.55,1.83-1.66,1.83-.24,0-.46-.04-.66-.1v-.86c.12.03.29.05.49.05.24,0,.43-.07.55-.2s.19-.36.19-.68v-7.1h1.08Zm-1.2-1.68c0-.17.05-.32.16-.44s.26-.18.47-.18.37.06.48.18.16.27.16.45-.05.32-.16.44-.27.18-.48.18-.37-.06-.47-.18-.16-.26-.16-.44Z"/>
    <path class="cls-12" d="m435.18,103.77c-.42.5-1.04.74-1.86.74-.68,0-1.19-.2-1.54-.59s-.53-.97-.54-1.74v-4.12h1.08v4.1c0,.96.39,1.44,1.17,1.44.83,0,1.38-.31,1.65-.93v-4.61h1.08v6.34h-1.03l-.02-.63Zm-.15-7.69c0,.34-.12.62-.36.85s-.54.34-.9.34-.66-.12-.9-.35-.36-.51-.36-.85.12-.62.36-.86.54-.36.9-.36.66.12.9.36.36.53.36.86Zm-1.94,0c0,.18.07.34.2.47s.29.2.48.2.35-.06.48-.19.2-.29.2-.48-.07-.35-.2-.49-.29-.2-.48-.2-.36.07-.49.21-.19.3-.19.49Z"/>
  </g>
  <g>
    <path class="cls-5" d="m188.36,117.06c0,.45-.12.86-.35,1.21-.23.35-.55.63-.95.83.48.22.85.53,1.11.92.26.39.39.83.39,1.32,0,.81-.28,1.46-.83,1.93-.55.48-1.28.71-2.2.71s-1.65-.24-2.21-.72c-.55-.48-.83-1.12-.83-1.93,0-.5.13-.94.39-1.33.26-.39.63-.7,1.1-.91-.4-.2-.71-.48-.94-.83-.23-.35-.35-.76-.35-1.21,0-.79.25-1.41.76-1.87s1.19-.69,2.06-.69,1.56.23,2.06.69.76,1.09.76,1.87Zm-1.34,4.21c0-.46-.14-.83-.41-1.11-.27-.28-.63-.42-1.08-.42s-.81.14-1.08.42-.4.65-.4,1.11.13.81.4,1.09c.26.27.63.41,1.09.41s.83-.13,1.09-.39c.26-.26.39-.63.39-1.1Zm-.2-4.15c0-.4-.12-.73-.35-.99-.23-.26-.55-.39-.94-.39s-.7.12-.93.37c-.23.25-.34.58-.34,1.01s.12.76.35,1.01.54.37.94.37.71-.12.94-.37c.23-.25.35-.59.35-1.01Z"/>
    <path class="cls-5" d="m190.24,125.94l-.83-.5c.25-.39.41-.72.5-1.01.09-.29.14-.58.14-.87v-1.2h1.39v1.11c-.01.45-.12.9-.35,1.35-.22.45-.51.82-.86,1.11Z"/>
    <path class="cls-5" d="m196.96,123.86h-1.54v-7.42l-2.27.77v-1.29l3.61-1.33h.2v9.27Z"/>
  </g>
  <g class="cls-15">
    <g>
      <path class="cls-6" d="m327.12,123.86h-6.21v-1.06l3.08-3.36c.44-.5.76-.91.95-1.24.19-.33.28-.67.28-1,0-.44-.12-.8-.37-1.07-.25-.27-.58-.41-1-.41-.5,0-.89.15-1.16.46-.27.3-.41.72-.41,1.25h-1.54c0-.56.13-1.07.38-1.52.26-.45.62-.8,1.1-1.05.48-.25,1.03-.37,1.65-.37.9,0,1.6.23,2.12.68.52.45.78,1.07.78,1.87,0,.46-.13.94-.39,1.45-.26.51-.69,1.08-1.28,1.72l-2.26,2.42h4.29v1.23Z"/>
      <path class="cls-6" d="m330.08,118.54h.94c.47,0,.85-.13,1.13-.37.28-.24.42-.59.42-1.05s-.12-.78-.35-1.03c-.23-.24-.58-.36-1.06-.36-.42,0-.76.12-1.02.36-.27.24-.4.55-.4.94h-1.54c0-.47.13-.91.38-1.29s.6-.69,1.05-.91c.45-.22.96-.33,1.51-.33.92,0,1.65.23,2.17.7.53.46.79,1.11.79,1.93,0,.41-.13.81-.4,1.17-.26.37-.61.64-1.03.83.51.17.89.45,1.16.82s.4.82.4,1.33c0,.83-.28,1.49-.85,1.98s-1.32.74-2.24.74-1.62-.24-2.18-.71c-.57-.47-.85-1.1-.85-1.89h1.54c0,.41.14.74.41.99.27.25.64.38,1.1.38s.85-.13,1.13-.38c.27-.25.41-.62.41-1.1s-.14-.86-.43-1.12c-.29-.26-.71-.39-1.28-.39h-.91v-1.22Z"/>
      <path class="cls-6" d="m336,125.94l-.83-.5c.25-.39.41-.72.5-1.01.09-.29.14-.58.14-.87v-1.2h1.39v1.11c-.01.45-.12.9-.35,1.35-.22.45-.51.82-.86,1.11Z"/>
      <path class="cls-6" d="m344.69,115.48l-3.69,8.39h-1.62l3.69-8h-4.78v-1.24h6.41v.86Z"/>
    </g>
  </g>
  <g class="cls-15">
    <g>
      <path class="cls-4" d="m387.81,123.86h-1.54v-7.42l-2.27.77v-1.29l3.61-1.33h.2v9.27Z"/>
      <path class="cls-4" d="m397.05,119.97c0,1.33-.25,2.33-.75,3.01-.5.68-1.25,1.01-2.27,1.01s-1.75-.33-2.26-.99c-.51-.66-.76-1.63-.78-2.92v-1.6c0-1.33.25-2.33.75-2.99.5-.66,1.26-1,2.28-1s1.77.32,2.26.97.75,1.62.76,2.91v1.6Zm-1.54-1.73c0-.87-.12-1.5-.36-1.91-.24-.4-.61-.61-1.13-.61s-.87.19-1.11.57c-.24.38-.36.98-.37,1.79v2.09c0,.86.12,1.51.36,1.93s.62.63,1.14.63.86-.2,1.1-.59c.24-.39.36-1,.38-1.84v-2.09Z"/>
      <path class="cls-4" d="m398.73,125.94l-.83-.5c.25-.39.41-.72.5-1.01.09-.29.14-.58.14-.87v-1.2h1.39v1.11c-.01.45-.12.9-.35,1.35-.22.45-.51.82-.86,1.11Z"/>
      <path class="cls-4" d="m407.48,123.86h-6.21v-1.06l3.08-3.36c.44-.5.76-.91.95-1.24.19-.33.28-.67.28-1,0-.44-.12-.8-.37-1.07-.25-.27-.58-.41-1-.41-.5,0-.89.15-1.16.46-.28.3-.41.72-.41,1.25h-1.54c0-.56.13-1.07.38-1.52.26-.45.62-.8,1.1-1.05.48-.25,1.03-.37,1.65-.37.9,0,1.61.23,2.12.68.52.45.78,1.07.78,1.87,0,.46-.13.94-.39,1.45-.26.51-.69,1.08-1.28,1.72l-2.26,2.42h4.29v1.23Z"/>
      <path class="cls-4" d="m418.44,115.91h-2.88v7.95h-1.59v-7.95h-2.86v-1.29h7.33v1.29Z"/>
      <path class="cls-4" d="m427,121.58l1.42-6.96h1.59l-2.13,9.24h-1.54l-1.76-6.75-1.8,6.75h-1.54l-2.13-9.24h1.59l1.43,6.94,1.76-6.94h1.35l1.75,6.96Z"/>
      <path class="cls-4" d="m432.56,117.74c.5-.58,1.14-.88,1.91-.88,1.46,0,2.21.84,2.23,2.51v4.49h-1.54v-4.43c0-.47-.1-.81-.31-1.01-.21-.2-.51-.3-.9-.3-.62,0-1.08.27-1.38.83v4.91h-1.54v-9.75h1.54v3.63Z"/>
    </g>
  </g>
  <g class="cls-15">
    <g>
      <path class="cls-10" d="m8.94,123.86H2.73v-1.06l3.08-3.36c.44-.5.76-.91.95-1.24.19-.33.28-.67.28-1,0-.44-.12-.8-.37-1.07-.25-.27-.58-.41-1-.41-.5,0-.89.15-1.16.46-.28.3-.41.72-.41,1.25h-1.54c0-.56.13-1.07.38-1.52.26-.45.62-.8,1.1-1.05.48-.25,1.03-.37,1.65-.37.9,0,1.61.23,2.12.68.52.45.78,1.07.78,1.87,0,.46-.13.94-.39,1.45-.26.51-.69,1.08-1.28,1.72l-2.26,2.42h4.29v1.23Z"/>
      <path class="cls-10" d="m10.43,125.94l-.83-.5c.25-.39.41-.72.5-1.01.09-.29.14-.58.14-.87v-1.2h1.39v1.11c-.01.45-.12.9-.35,1.35-.22.45-.51.82-.86,1.11Z"/>
      <path class="cls-10" d="m17.34,120c-.52.55-1.12.82-1.81.82-.81,0-1.46-.28-1.94-.85-.48-.57-.72-1.32-.72-2.24,0-.61.12-1.16.37-1.66.25-.5.59-.88,1.05-1.16.45-.27.98-.41,1.57-.41.93,0,1.67.35,2.22,1.04s.82,1.62.82,2.79v.43c0,1.67-.38,2.94-1.13,3.81-.75.88-1.88,1.32-3.37,1.33h-.18v-1.28h.22c.91-.01,1.61-.23,2.09-.66.49-.43.76-1.08.82-1.97Zm-1.49-.39c.31,0,.6-.09.87-.27.27-.18.48-.42.63-.74v-.6c0-.68-.14-1.23-.42-1.64s-.64-.62-1.08-.62-.8.18-1.06.55c-.26.37-.4.83-.4,1.39s.13,1.05.4,1.4.62.53,1.07.53Z"/>
      <path class="cls-10" d="m30.14,115.91h-2.88v7.95h-1.59v-7.95h-2.86v-1.29h7.33v1.29Z"/>
      <path class="cls-10" d="m38.7,121.58l1.42-6.96h1.59l-2.13,9.24h-1.54l-1.76-6.75-1.8,6.75h-1.54l-2.13-9.24h1.59l1.43,6.94,1.76-6.94h1.35l1.75,6.96Z"/>
      <path class="cls-10" d="m44.26,117.74c.5-.58,1.14-.88,1.91-.88,1.46,0,2.21.84,2.23,2.51v4.49h-1.54v-4.43c0-.47-.1-.81-.31-1.01-.21-.2-.51-.3-.9-.3-.62,0-1.08.27-1.38.83v4.91h-1.54v-9.75h1.54v3.63Z"/>
    </g>
  </g>
  <g>
    <path class="cls-10" d="m8.08,88.25c0-.39-.14-.68-.41-.89s-.77-.43-1.48-.66-1.27-.46-1.69-.68c-1.13-.61-1.7-1.43-1.7-2.47,0-.54.15-1.02.45-1.44s.74-.75,1.31-.99,1.2-.36,1.91-.36,1.34.13,1.9.39.99.62,1.3,1.09.46,1,.46,1.6h-2.05c0-.46-.14-.81-.43-1.06s-.69-.38-1.21-.38-.89.11-1.17.32-.42.49-.42.84c0,.32.16.59.49.81s.81.42,1.44.62c1.17.35,2.02.79,2.55,1.31s.8,1.17.8,1.94c0,.86-.33,1.54-.98,2.03s-1.53.73-2.63.73c-.77,0-1.46-.14-2.09-.42s-1.11-.66-1.44-1.15-.5-1.05-.5-1.7h2.06c0,1.1.66,1.65,1.97,1.65.49,0,.87-.1,1.14-.3s.41-.48.41-.83Z"/>
    <path class="cls-10" d="m13.48,90.86h-1.98v-10.5h1.98v10.5Z"/>
    <path class="cls-10" d="m19.54,90.11c-.49.59-1.16.89-2.02.89-.79,0-1.4-.23-1.81-.68s-.63-1.12-.64-2v-4.85h1.98v4.78c0,.77.35,1.16,1.05,1.16s1.13-.23,1.38-.7v-5.24h1.98v7.4h-1.86l-.05-.75Z"/>
    <path class="cls-10" d="m24.76,83.46l.06.85c.53-.66,1.24-.99,2.13-.99.78,0,1.37.23,1.75.69s.58,1.15.59,2.06v4.78h-1.98v-4.73c0-.42-.09-.72-.27-.91s-.49-.28-.91-.28c-.56,0-.97.24-1.25.71v5.22h-1.98v-7.4h1.86Z"/>
    <path class="cls-10" d="m33.86,89.4c.36,0,.66-.1.89-.3s.35-.47.36-.8h1.85c0,.5-.14.96-.41,1.38s-.64.74-1.1.97-.98.35-1.55.35c-1.06,0-1.89-.34-2.5-1.01s-.92-1.6-.92-2.79v-.13c0-1.14.3-2.05.91-2.73s1.44-1.02,2.5-1.02c.93,0,1.67.26,2.23.79s.84,1.23.85,2.1h-1.85c0-.38-.13-.7-.36-.94s-.53-.36-.9-.36c-.46,0-.81.17-1.04.5s-.35.88-.35,1.63v.21c0,.76.12,1.31.35,1.64.23.33.59.5,1.06.5Z"/>
    <path class="cls-10" d="m41.49,91c-1.08,0-1.97-.33-2.65-1s-1.02-1.55-1.02-2.66v-.19c0-.74.14-1.41.43-1.99s.69-1.04,1.22-1.35,1.13-.48,1.8-.48c1.01,0,1.81.32,2.39.96s.87,1.54.87,2.71v.81h-4.71c.06.48.26.87.58,1.16s.73.44,1.22.44c.76,0,1.36-.28,1.78-.83l.97,1.09c-.3.42-.7.75-1.2.98s-1.07.35-1.68.35Zm-.23-6.08c-.39,0-.71.13-.95.4s-.4.65-.47,1.14h2.75v-.16c0-.44-.13-.78-.36-1.02s-.55-.36-.97-.36Z"/>
    <path class="cls-10" d="m7.08,103.86c-.09-.18-.16-.4-.2-.66-.48.53-1.1.8-1.87.8-.72,0-1.33-.21-1.8-.63s-.71-.95-.71-1.59c0-.78.29-1.39.87-1.8s1.42-.63,2.52-.64h.91v-.42c0-.34-.09-.62-.26-.82s-.45-.31-.83-.31c-.33,0-.59.08-.78.24s-.28.38-.28.66h-1.98c0-.43.13-.82.4-1.19s.64-.65,1.12-.86,1.03-.31,1.63-.31c.91,0,1.63.23,2.17.69s.8,1.1.8,1.93v3.21c0,.7.1,1.23.29,1.59v.12h-2Zm-1.63-1.37c.29,0,.56-.06.81-.19s.43-.3.55-.52v-1.27h-.74c-.99,0-1.52.34-1.58,1.03v.12c0,.25.08.45.25.61s.41.24.71.24Z"/>
    <path class="cls-10" d="m16.55,101.45l1.37-4.98h2.06l-2.5,7.4h-1.89l-2.5-7.4h2.06l1.37,4.98Z"/>
    <path class="cls-10" d="m22.99,103.86h-1.98v-7.4h1.98v7.4Zm-.58-10.4h2.15l-1.89,2.12h-1.61l1.35-2.12Z"/>
    <path class="cls-10" d="m27.06,94.64v1.82h1.26v1.45h-1.26v3.69c0,.27.05.47.16.59s.31.18.6.18c.22,0,.41-.02.58-.05v1.5c-.39.12-.79.18-1.2.18-1.39,0-2.09-.7-2.12-2.1v-3.99h-1.08v-1.45h1.08v-1.82h1.98Z"/>
    <path class="cls-10" d="m33.58,98.31c-.27-.04-.51-.05-.71-.05-.75,0-1.24.25-1.47.76v4.84h-1.98v-7.4h1.87l.05.88c.4-.68.95-1.02,1.65-1.02.22,0,.42.03.62.09l-.03,1.9Z"/>
  </g>
  <g>
    <path d="m2.36,19.53h2.48c0,.95.48,1.36,1.24,1.36s1.19-.46,1.19-1.05c0-1.97-4.66-2.21-4.66-5.83,0-1.82,1.28-3.14,3.47-3.14s3.52,1.31,3.52,3.5h-2.48c0-.78-.36-1.17-1.05-1.17-.63,0-1,.34-1,.88,0,1.87,4.72,1.99,4.72,5.78,0,1.95-1.38,3.38-3.74,3.38s-3.69-1.31-3.69-3.71Z"/>
    <path d="m20.14,15.14c0,2.53-1.46,4.03-3.93,4.03h-1.04v3.82h-2.41v-11.9h3.45c2.46,0,3.93,1.5,3.93,4.05Zm-2.48,0c0-1.16-.51-1.75-1.48-1.75h-1v3.48h1c.97,0,1.48-.59,1.48-1.73Z"/>
    <path d="m23.03,19.14v-4.18c0-2.55,1.44-4.06,3.86-4.06s3.86,1.51,3.86,4.06v4.18c0,2.55-1.44,4.06-3.86,4.06s-3.86-1.51-3.86-4.06Zm5.22,0v-4.18c0-1.12-.46-1.72-1.36-1.72s-1.36.59-1.36,1.72v4.18c0,1.12.46,1.72,1.36,1.72s1.36-.6,1.36-1.72Z"/>
    <path d="m40.55,13.39h-2.33v9.6h-2.48v-9.6h-2.33v-2.29h7.14v2.29Z"/>
    <path d="m46.66,19h-.85v3.99h-2.41v-11.9h3.45c2.36,0,3.76,1.46,3.76,3.96,0,1.61-.6,2.8-1.65,3.43l2.24,4.5h-2.63l-1.9-3.99Zm-.88-9.04l-1.38-2.33h1.51l.75,1.14.73-1.14h1.51l-1.38,2.33h-1.75Zm.03,6.75h1c.85,0,1.31-.58,1.31-1.65s-.46-1.67-1.31-1.67h-1v3.31Z"/>
    <path d="m60.34,20.7v2.29h-6.31v-11.9h6.14v2.29h-3.72v2.46h3.38v2.21h-3.38v2.63h3.89Z"/>
    <path d="m70.95,19.45c0,2.12-1.46,3.55-3.5,3.55h-3.76v-11.9h3.71c1.84,0,3.15,1.36,3.15,3.38,0,.9-.37,1.85-1,2.43.88.51,1.41,1.46,1.41,2.53Zm-4.84-6.07v2.48h.95c.68,0,1.04-.44,1.04-1.27s-.34-1.21-1.12-1.21h-.87Zm2.36,6.05c0-.87-.49-1.31-1.39-1.31h-.97v2.6h.92c.95,0,1.44-.44,1.44-1.29Z"/>
    <path d="m78.18,21.03h-2.52l-.39,1.97h-2.5l2.86-11.9h2.58l2.86,11.9h-2.5l-.39-1.97Zm-.48-2.29l-.27-1.36c-.15-.85-.36-2.29-.48-3.26h-.07c-.12.97-.31,2.41-.48,3.26l-.27,1.36h1.56Z"/>
    <path d="m87.97,11.1h2.5l1.07,5.63c.17.87.37,2.33.49,3.31h.07c.12-.99.32-2.45.49-3.31l1.07-5.63h2.5l-2.82,11.9h-2.55l-2.82-11.9Z"/>
    <path d="m111.24,19.36c-.05,2.5-1.43,3.84-3.84,3.84s-3.67-1.34-3.67-3.84v-4.62c0-2.52,1.36-3.88,3.69-3.88s3.71,1.36,3.79,3.88h-2.41c-.07-1.09-.48-1.53-1.39-1.53-.73,0-1.16.48-1.16,1.53v4.62c0,1.02.41,1.5,1.16,1.5.93,0,1.36-.44,1.43-1.5h2.41Zm-4.76-9.4l-1.38-2.33h1.51l.75,1.14.73-1.14h1.51l-1.38,2.33h-1.75Z"/>
    <path d="m117.6,19h-.85v3.99h-2.41v-11.9h3.45c2.36,0,3.76,1.46,3.76,3.96,0,1.61-.6,2.8-1.65,3.43l2.24,4.5h-2.63l-1.9-3.99Zm-.85-2.29h1c.85,0,1.31-.58,1.31-1.65s-.46-1.67-1.31-1.67h-1v3.31Z"/>
    <path d="m129.07,11.1h2.5l1.07,5.63c.17.87.37,2.33.49,3.31h.07c.12-.99.32-2.45.49-3.31l1.07-5.63h2.5l-2.82,11.9h-2.55l-2.82-11.9Z"/>
    <path d="m148.44,19h-.85v3.99h-2.41v-11.9h3.45c2.36,0,3.76,1.46,3.76,3.96,0,1.61-.59,2.8-1.65,3.43l2.24,4.5h-2.63l-1.9-3.99Zm-.85-2.29h1c.85,0,1.31-.58,1.31-1.65s-.46-1.67-1.31-1.67h-1v3.31Z"/>
    <path d="m155.47,19.14v-4.18c0-2.55,1.44-4.06,3.86-4.06s3.86,1.51,3.86,4.06v4.18c0,2.55-1.44,4.06-3.86,4.06s-3.86-1.51-3.86-4.06Zm5.22,0v-4.18c0-1.12-.46-1.72-1.36-1.72s-1.36.59-1.36,1.72v4.18c0,1.12.46,1.72,1.36,1.72s1.36-.6,1.36-1.72Z"/>
    <path d="m166.32,19.36v-4.62c0-2.52,1.36-3.88,3.69-3.88s3.71,1.36,3.79,3.88h-2.41c-.07-1.09-.48-1.53-1.39-1.53-.73,0-1.16.48-1.16,1.53v4.62c0,1.02.41,1.5,1.16,1.5.93,0,1.36-.44,1.43-1.5h2.41c-.05,2.5-1.43,3.84-3.84,3.84s-3.67-1.34-3.67-3.84Z"/>
    <path d="m183.23,20.7v2.29h-6.31v-11.9h6.14v2.29h-3.72v2.46h3.38v2.21h-3.38v2.63h3.89Z"/>
    <path d="m191.02,21.57c0-3.77,4.25-5.47,4.25-7.46,0-.51-.27-1.04-.93-1.04-.61,0-.99.44-1.02,1.24h-2.18c.1-2.26,1.24-3.42,3.16-3.42,2.26,0,3.26,1.6,3.26,3.09,0,3.04-4.11,5.07-4.11,6.87h4.16v2.14h-6.59v-1.43Z"/>
    <path d="m200.51,19.58v-5.03c0-2.28,1.28-3.62,3.42-3.62s3.43,1.34,3.43,3.62v5.03c0,2.26-1.27,3.59-3.43,3.59s-3.42-1.33-3.42-3.59Zm4.61.02v-5.03c0-.97-.41-1.48-1.19-1.48s-1.17.51-1.17,1.48v5.03c0,.95.39,1.45,1.17,1.45s1.19-.49,1.19-1.45Z"/>
    <path d="m210.16,21.57c0-3.77,4.25-5.47,4.25-7.46,0-.51-.27-1.04-.94-1.04-.61,0-.99.44-1.02,1.24h-2.18c.1-2.26,1.24-3.42,3.16-3.42,2.26,0,3.26,1.6,3.26,3.09,0,3.04-4.11,5.07-4.11,6.87h4.17v2.14h-6.6v-1.43Z"/>
    <path d="m219.65,19.58v-5.03c0-2.28,1.28-3.62,3.42-3.62s3.43,1.34,3.43,3.62v5.03c0,2.26-1.27,3.59-3.43,3.59s-3.42-1.33-3.42-3.59Zm4.61.02v-5.03c0-.97-.41-1.48-1.19-1.48s-1.17.51-1.17,1.48v5.03c0,.95.39,1.45,1.17,1.45s1.19-.49,1.19-1.45Z"/>
  </g>
  <g>
    <path class="cls-9" d="m6.12,40.61c-1.12-.32-1.94-.72-2.46-1.19-.51-.47-.77-1.05-.77-1.75,0-.78.31-1.43.94-1.94.63-.51,1.44-.77,2.44-.77.68,0,1.29.13,1.83.4.54.26.95.63,1.24,1.09s.44.97.44,1.52h-1.32c0-.6-.19-1.08-.57-1.42-.38-.34-.92-.52-1.62-.52-.65,0-1.15.14-1.51.43-.36.29-.54.68-.54,1.19,0,.41.17.75.52,1.03.34.28.93.54,1.76.77.83.23,1.47.49,1.94.77.47.28.81.61,1.04.98s.34.81.34,1.32c0,.81-.31,1.45-.94,1.94-.63.49-1.47.73-2.52.73-.68,0-1.32-.13-1.91-.39-.59-.26-1.05-.62-1.37-1.08s-.48-.97-.48-1.55h1.32c0,.6.22,1.08.67,1.43.44.35,1.04.52,1.78.52.69,0,1.22-.14,1.59-.42s.55-.67.55-1.16-.17-.87-.51-1.13c-.34-.27-.96-.53-1.86-.79Z"/>
    <path class="cls-9" d="m10.96,41.28c0-.72.14-1.38.43-1.96.28-.58.68-1.03,1.19-1.34.51-.31,1.09-.47,1.74-.47,1.01,0,1.82.35,2.44,1.05s.93,1.62.93,2.78v.09c0,.72-.14,1.37-.41,1.94-.28.57-.67,1.02-1.18,1.34s-1.1.48-1.77.48c-1,0-1.81-.35-2.44-1.05s-.93-1.62-.93-2.77v-.09Zm1.27.15c0,.82.19,1.48.57,1.98.38.5.89.75,1.53.75s1.15-.25,1.53-.75c.38-.5.57-1.21.57-2.12,0-.81-.19-1.47-.58-1.97-.39-.5-.9-.76-1.54-.76s-1.13.25-1.51.75-.57,1.21-.57,2.13Z"/>
    <path class="cls-9" d="m23.85,44.31c-.49.58-1.21.87-2.17.87-.79,0-1.39-.23-1.8-.69-.41-.46-.62-1.14-.63-2.03v-4.81h1.26v4.78c0,1.12.46,1.68,1.37,1.68.97,0,1.61-.36,1.93-1.08v-5.38h1.26v7.4h-1.2l-.03-.73Z"/>
    <path class="cls-9" d="m29.97,44.15c.45,0,.85-.14,1.18-.41.34-.27.52-.62.56-1.03h1.2c-.02.42-.17.83-.44,1.21-.27.38-.63.69-1.08.92-.45.23-.92.34-1.43.34-1.01,0-1.81-.34-2.4-1.01-.59-.67-.89-1.59-.89-2.76v-.21c0-.72.13-1.36.4-1.92.26-.56.64-1,1.14-1.31.49-.31,1.08-.46,1.75-.46.83,0,1.52.25,2.07.75.55.5.84,1.14.88,1.93h-1.2c-.04-.48-.22-.87-.54-1.18-.33-.31-.73-.46-1.21-.46-.64,0-1.14.23-1.49.69-.35.46-.53,1.13-.53,2.01v.24c0,.85.18,1.51.53,1.97.35.46.85.69,1.5.69Zm-.29-8.44l1.03-1.16h1.09v.07l-1.74,1.87h-.77l-1.72-1.87v-.07h1.07l1.03,1.16Z"/>
    <path class="cls-9" d="m38.89,45.04c-.07-.15-.13-.41-.18-.78-.59.61-1.29.92-2.11.92-.73,0-1.33-.21-1.79-.62-.47-.41-.7-.93-.7-1.57,0-.77.29-1.37.88-1.79.58-.43,1.41-.64,2.47-.64h1.23v-.58c0-.44-.13-.79-.4-1.06-.26-.26-.65-.39-1.17-.39-.45,0-.83.11-1.13.34-.3.23-.46.5-.46.83h-1.27c0-.37.13-.73.39-1.07.26-.34.62-.62,1.07-.82.45-.2.94-.3,1.48-.3.85,0,1.52.21,2,.64.48.43.73,1.01.75,1.76v3.4c0,.68.09,1.22.26,1.62v.11h-1.33Zm-2.1-.96c.4,0,.77-.1,1.13-.31s.61-.47.77-.8v-1.52h-.99c-1.55,0-2.32.45-2.32,1.36,0,.4.13.71.4.93.26.22.6.33,1.02.33Z"/>
    <path class="cls-9" d="m46.25,43.08c0-.34-.13-.61-.39-.8-.26-.19-.71-.35-1.35-.49-.64-.14-1.15-.3-1.52-.49s-.65-.42-.83-.68c-.18-.26-.27-.58-.27-.94,0-.61.26-1.12.77-1.54s1.17-.63,1.96-.63c.84,0,1.52.22,2.04.65.52.43.78.99.78,1.66h-1.27c0-.35-.15-.64-.44-.9s-.66-.38-1.11-.38-.82.1-1.08.3-.39.46-.39.79c0,.31.12.54.36.69.24.16.68.3,1.31.44.63.14,1.14.31,1.53.51.39.2.68.43.87.71.19.28.28.61.28,1.01,0,.66-.26,1.19-.79,1.59-.53.4-1.21.6-2.06.6-.59,0-1.12-.1-1.57-.31-.46-.21-.81-.5-1.07-.88-.26-.38-.39-.78-.39-1.22h1.26c.02.42.19.76.51,1.01.32.25.73.37,1.25.37.48,0,.86-.1,1.15-.29.29-.19.43-.45.43-.78Z"/>
    <path class="cls-9" d="m50.36,37.65l.04.93c.57-.71,1.3-1.07,2.21-1.07,1.56,0,2.35.88,2.37,2.65v4.89h-1.26v-4.89c0-.53-.13-.93-.37-1.18s-.61-.38-1.12-.38c-.41,0-.77.11-1.08.33-.31.22-.55.51-.72.86v5.27h-1.26v-7.4h1.2Z"/>
    <path class="cls-9" d="m56.55,41.28c0-.72.14-1.38.43-1.96.28-.58.68-1.03,1.19-1.34.51-.31,1.09-.47,1.74-.47,1.01,0,1.82.35,2.44,1.05s.93,1.62.93,2.78v.09c0,.72-.14,1.37-.41,1.94-.28.57-.67,1.02-1.18,1.34s-1.1.48-1.77.48c-1,0-1.81-.35-2.44-1.05s-.93-1.62-.93-2.77v-.09Zm1.27.15c0,.82.19,1.48.57,1.98.38.5.89.75,1.53.75s1.15-.25,1.53-.75c.38-.5.57-1.21.57-2.12,0-.81-.19-1.47-.58-1.97-.39-.5-.9-.76-1.54-.76s-1.13.25-1.51.75-.57,1.21-.57,2.13Z"/>
    <path class="cls-9" d="m69.44,44.31c-.49.58-1.21.87-2.17.87-.79,0-1.39-.23-1.8-.69-.41-.46-.62-1.14-.63-2.03v-4.81h1.26v4.78c0,1.12.46,1.68,1.37,1.68.97,0,1.61-.36,1.93-1.08v-5.38h1.26v7.4h-1.2l-.03-.73Z"/>
    <path class="cls-9" d="m80.36,43.08c0-.34-.13-.61-.39-.8-.26-.19-.71-.35-1.35-.49-.64-.14-1.15-.3-1.52-.49s-.65-.42-.83-.68c-.18-.26-.27-.58-.27-.94,0-.61.26-1.12.77-1.54s1.17-.63,1.96-.63c.84,0,1.52.22,2.04.65.52.43.78.99.78,1.66h-1.27c0-.35-.15-.64-.44-.9s-.66-.38-1.11-.38-.82.1-1.08.3-.39.46-.39.79c0,.31.12.54.36.69.24.16.68.3,1.31.44.63.14,1.14.31,1.53.51.39.2.68.43.87.71.19.28.28.61.28,1.01,0,.66-.26,1.19-.79,1.59-.53.4-1.21.6-2.06.6-.59,0-1.12-.1-1.57-.31-.46-.21-.81-.5-1.07-.88-.26-.38-.39-.78-.39-1.22h1.26c.02.42.19.76.51,1.01.32.25.73.37,1.25.37.48,0,.86-.1,1.15-.29.29-.19.43-.45.43-.78Z"/>
    <path class="cls-9" d="m89.52,41.43c0,1.13-.26,2.03-.77,2.72-.51.69-1.21,1.03-2.09,1.03s-1.6-.29-2.12-.85v3.56h-1.26v-10.24h1.16l.06.82c.52-.64,1.23-.96,2.15-.96s1.59.33,2.11,1c.52.67.78,1.6.78,2.8v.12Zm-1.26-.14c0-.83-.18-1.49-.53-1.98s-.84-.72-1.46-.72c-.77,0-1.34.34-1.72,1.02v3.53c.38.67.96,1.01,1.74,1.01.61,0,1.09-.24,1.45-.72.36-.48.54-1.19.54-2.14Z"/>
    <path class="cls-9" d="m90.79,41.28c0-.72.14-1.38.43-1.96.28-.58.68-1.03,1.19-1.34.51-.31,1.09-.47,1.74-.47,1.01,0,1.82.35,2.44,1.05s.93,1.62.93,2.78v.09c0,.72-.14,1.37-.41,1.94-.28.57-.67,1.02-1.18,1.34s-1.1.48-1.77.48c-1,0-1.81-.35-2.44-1.05s-.93-1.62-.93-2.77v-.09Zm1.27.15c0,.82.19,1.48.57,1.98.38.5.89.75,1.53.75s1.15-.25,1.53-.75c.38-.5.57-1.21.57-2.12,0-.81-.19-1.47-.58-1.97-.39-.5-.9-.76-1.54-.76s-1.13.25-1.51.75-.57,1.21-.57,2.13Z"/>
    <path class="cls-9" d="m100.83,35.86v1.79h1.38v.98h-1.38v4.59c0,.3.06.52.18.67s.33.22.63.22c.15,0,.35-.03.6-.08v1.02c-.33.09-.66.14-.97.14-.56,0-.99-.17-1.28-.51s-.43-.83-.43-1.46v-4.59h-1.35v-.98h1.35v-1.79h1.26Z"/>
    <path class="cls-9" d="m105.51,35.71l1.03-1.16h1.09v.07l-1.74,1.87h-.77l-1.72-1.87v-.07h1.07l1.03,1.16Zm1.75,3.08c-.19-.03-.4-.05-.62-.05-.83,0-1.39.35-1.69,1.06v5.25h-1.26v-7.4h1.23l.02.85c.42-.66,1-.99,1.76-.99.25,0,.43.03.56.1v1.18Z"/>
    <path class="cls-9" d="m111.49,45.18c-1,0-1.82-.33-2.45-.99-.63-.66-.94-1.54-.94-2.64v-.23c0-.73.14-1.39.42-1.97.28-.58.67-1.03,1.18-1.35.5-.33,1.05-.49,1.64-.49.96,0,1.71.32,2.24.95s.8,1.54.8,2.72v.53h-5.01c.02.73.23,1.32.64,1.77.41.45.93.67,1.55.67.45,0,.83-.09,1.13-.27.31-.18.58-.42.81-.72l.77.6c-.62.95-1.55,1.43-2.79,1.43Zm-.16-6.63c-.51,0-.94.19-1.29.56-.35.37-.56.89-.64,1.56h3.71v-.1c-.04-.64-.21-1.14-.52-1.49-.31-.35-.73-.53-1.26-.53Z"/>
    <path class="cls-9" d="m122.1,41.43c0,1.13-.26,2.04-.78,2.72-.52.69-1.22,1.03-2.09,1.03-.93,0-1.66-.33-2.17-.99l-.06.85h-1.16v-10.5h1.26v3.92c.51-.63,1.21-.95,2.11-.95s1.6.34,2.12,1.02.77,1.61.77,2.79v.11Zm-1.26-.14c0-.86-.17-1.53-.5-2-.33-.47-.81-.7-1.44-.7-.83,0-1.43.39-1.8,1.16v3.2c.39.77.99,1.16,1.81,1.16.61,0,1.08-.23,1.42-.7.34-.47.51-1.18.51-2.12Z"/>
    <path class="cls-9" d="m128.26,44.31c-.49.58-1.21.87-2.17.87-.79,0-1.39-.23-1.8-.69-.41-.46-.62-1.14-.63-2.03v-4.81h1.26v4.78c0,1.12.46,1.68,1.37,1.68.97,0,1.61-.36,1.93-1.08v-5.38h1.26v7.4h-1.2l-.03-.73Z"/>
    <path class="cls-9" d="m141.12,41.43c0,1.13-.26,2.03-.77,2.72-.51.69-1.21,1.03-2.09,1.03s-1.6-.29-2.12-.85v3.56h-1.26v-10.24h1.16l.06.82c.52-.64,1.23-.96,2.15-.96s1.59.33,2.11,1c.52.67.78,1.6.78,2.8v.12Zm-1.26-.14c0-.83-.18-1.49-.53-1.98s-.84-.72-1.46-.72c-.77,0-1.34.34-1.72,1.02v3.53c.38.67.96,1.01,1.74,1.01.61,0,1.09-.24,1.45-.72.36-.48.54-1.19.54-2.14Z"/>
    <path class="cls-9" d="m142.4,41.28c0-.72.14-1.38.43-1.96.28-.58.68-1.03,1.19-1.34.51-.31,1.09-.47,1.74-.47,1.01,0,1.82.35,2.44,1.05s.93,1.62.93,2.78v.09c0,.72-.14,1.37-.41,1.94-.28.57-.67,1.02-1.18,1.34s-1.1.48-1.77.48c-1,0-1.81-.35-2.44-1.05s-.93-1.62-.93-2.77v-.09Zm1.27.15c0,.82.19,1.48.57,1.98.38.5.89.75,1.53.75s1.15-.25,1.53-.75c.38-.5.57-1.21.57-2.12,0-.81-.19-1.47-.58-1.97-.39-.5-.9-.76-1.54-.76s-1.13.25-1.51.75-.57,1.21-.57,2.13Z"/>
    <path class="cls-9" d="m152.78,41.62l-.79.83v2.6h-1.26v-10.5h1.26v6.35l.68-.81,2.3-2.43h1.54l-2.88,3.09,3.21,4.31h-1.48l-2.58-3.42Z"/>
    <path class="cls-9" d="m161.39,38.78c-.19-.03-.4-.05-.62-.05-.83,0-1.39.35-1.69,1.06v5.25h-1.26v-7.4h1.23l.02.85c.42-.66,1-.99,1.76-.99.25,0,.43.03.56.1v1.18Z"/>
    <path class="cls-9" d="m164.97,43.19l1.72-5.54h1.35l-2.97,8.54c-.46,1.23-1.19,1.85-2.19,1.85l-.24-.02-.47-.09v-1.03l.34.03c.43,0,.76-.09,1-.26s.44-.49.59-.95l.28-.75-2.64-7.31h1.38l1.85,5.54Zm.72-8.65h1.53l-1.83,2.01h-1.02s1.32-2.01,1.32-2.01Z"/>
    <path class="cls-9" d="m171.61,43.33l1.83-5.68h1.29l-2.65,7.4h-.96l-2.68-7.4h1.29l1.88,5.68Z"/>
    <path class="cls-9" d="m180.42,45.04c-.07-.15-.13-.41-.18-.78-.59.61-1.29.92-2.11.92-.73,0-1.33-.21-1.79-.62-.47-.41-.7-.93-.7-1.57,0-.77.29-1.37.88-1.79.58-.43,1.41-.64,2.47-.64h1.23v-.58c0-.44-.13-.79-.4-1.06-.26-.26-.65-.39-1.17-.39-.45,0-.83.11-1.13.34-.3.23-.46.5-.46.83h-1.27c0-.37.13-.73.39-1.07.26-.34.62-.62,1.07-.82.45-.2.94-.3,1.48-.3.85,0,1.52.21,2,.64.48.43.73,1.01.75,1.76v3.4c0,.68.09,1.22.26,1.62v.11h-1.33Zm-2.1-.96c.4,0,.77-.1,1.13-.31s.61-.47.77-.8v-1.52h-.99c-1.55,0-2.32.45-2.32,1.36,0,.4.13.71.4.93.26.22.6.33,1.02.33Z"/>
    <path class="cls-9" d="m184.77,37.65v8.25c0,1.42-.64,2.13-1.93,2.13-.28,0-.54-.04-.77-.12v-1.01c.15.04.34.05.57.05.28,0,.5-.08.65-.23.15-.15.22-.42.22-.8v-8.28h1.26Zm-1.39-1.96c0-.2.06-.37.19-.52.12-.14.31-.21.55-.21s.43.07.56.21c.13.14.19.31.19.52s-.06.38-.19.51c-.13.14-.31.21-.56.21s-.43-.07-.55-.21-.18-.31-.18-.51Z"/>
    <path class="cls-9" d="m188.2,34.55h1.53l-1.83,2.01h-1.02s1.32-2.01,1.32-2.01Zm-.01,10.49h-1.27v-7.4h1.27v7.4Z"/>
    <path class="cls-9" d="m200,41.43c0,1.13-.26,2.04-.78,2.72-.52.69-1.22,1.03-2.09,1.03-.93,0-1.66-.33-2.17-.99l-.06.85h-1.16v-10.5h1.26v3.92c.51-.63,1.21-.95,2.11-.95s1.6.34,2.12,1.02.77,1.61.77,2.79v.11Zm-1.26-.14c0-.86-.17-1.53-.5-2-.33-.47-.81-.7-1.44-.7-.83,0-1.43.39-1.8,1.16v3.2c.39.77.99,1.16,1.81,1.16.61,0,1.08-.23,1.42-.7.34-.47.51-1.18.51-2.12Z"/>
    <path class="cls-9" d="m204.66,45.18c-1,0-1.82-.33-2.45-.99-.63-.66-.94-1.54-.94-2.64v-.23c0-.73.14-1.39.42-1.97.28-.58.67-1.03,1.18-1.35.5-.33,1.05-.49,1.64-.49.96,0,1.71.32,2.24.95s.8,1.54.8,2.72v.53h-5.01c.02.73.23,1.32.64,1.77.41.45.93.67,1.55.67.45,0,.83-.09,1.13-.27.31-.18.58-.42.81-.72l.77.6c-.62.95-1.55,1.43-2.79,1.43Zm-.16-6.63c-.51,0-.94.19-1.29.56-.35.37-.56.89-.64,1.56h3.71v-.1c-.04-.64-.21-1.14-.52-1.49-.31-.35-.73-.53-1.26-.53Z"/>
    <path class="cls-9" d="m210.19,44.01h4.33v1.03h-5.87v-.93l4.08-5.42h-4.02v-1.05h5.61v.9l-4.12,5.47Z"/>
    <path class="cls-9" d="m219.01,45.18c-1,0-1.82-.33-2.45-.99-.63-.66-.94-1.54-.94-2.64v-.23c0-.73.14-1.39.42-1.97.28-.58.67-1.03,1.18-1.35.5-.33,1.05-.49,1.64-.49.96,0,1.71.32,2.24.95s.8,1.54.8,2.72v.53h-5.01c.02.73.23,1.32.64,1.77.41.45.93.67,1.55.67.45,0,.83-.09,1.13-.27.31-.18.58-.42.81-.72l.77.6c-.62.95-1.55,1.43-2.79,1.43Zm-.16-6.63c-.51,0-.94.19-1.29.56-.35.37-.56.89-.64,1.56h3.71v-.1c-.04-.64-.21-1.14-.52-1.49-.31-.35-.73-.53-1.26-.53Z"/>
    <path class="cls-9" d="m224.55,37.65l.03.82c.54-.64,1.27-.96,2.19-.96,1.04,0,1.74.4,2.11,1.19.25-.36.57-.64.96-.86.39-.22.86-.33,1.4-.33,1.62,0,2.45.86,2.47,2.58v4.96h-1.26v-4.88c0-.53-.12-.92-.36-1.19-.24-.26-.65-.39-1.22-.39-.47,0-.86.14-1.17.42-.31.28-.49.66-.54,1.13v4.91h-1.27v-4.85c0-1.08-.53-1.61-1.58-1.61-.83,0-1.4.35-1.7,1.06v5.4h-1.26v-7.4h1.2Z"/>
    <path class="cls-9" d="m235.64,35.68c0-.21.06-.38.19-.52.12-.14.31-.21.56-.21s.43.07.56.21c.13.14.19.31.19.52s-.06.38-.19.51c-.13.14-.31.21-.56.21s-.43-.07-.56-.21c-.13-.14-.19-.31-.19-.51Zm1.37,9.36h-1.26v-7.4h1.26v7.4Z"/>
    <path class="cls-9" d="m243.34,43.08c0-.34-.13-.61-.39-.8-.26-.19-.71-.35-1.35-.49-.64-.14-1.15-.3-1.52-.49s-.65-.42-.83-.68c-.18-.26-.27-.58-.27-.94,0-.61.26-1.12.77-1.54s1.17-.63,1.96-.63c.84,0,1.52.22,2.04.65.52.43.78.99.78,1.66h-1.27c0-.35-.15-.64-.44-.9s-.66-.38-1.11-.38-.82.1-1.08.3-.39.46-.39.79c0,.31.12.54.36.69.24.16.68.3,1.31.44.63.14,1.14.31,1.53.51.39.2.68.43.87.71.19.28.28.61.28,1.01,0,.66-.26,1.19-.79,1.59-.53.4-1.21.6-2.06.6-.59,0-1.12-.1-1.57-.31-.46-.21-.81-.5-1.07-.88-.26-.38-.39-.78-.39-1.22h1.26c.02.42.19.76.51,1.01.32.25.73.37,1.25.37.48,0,.86-.1,1.15-.29.29-.19.43-.45.43-.78Z"/>
    <path class="cls-9" d="m247.44,37.65l.04.93c.57-.71,1.3-1.07,2.21-1.07,1.56,0,2.35.88,2.37,2.65v4.89h-1.26v-4.89c0-.53-.13-.93-.37-1.18s-.61-.38-1.12-.38c-.41,0-.77.11-1.08.33-.31.22-.55.51-.72.86v5.27h-1.26v-7.4h1.2Z"/>
    <path class="cls-9" d="m255.36,34.55h1.53l-1.83,2.01h-1.02s1.32-2.01,1.32-2.01Zm-.01,10.49h-1.27v-7.4h1.27v7.4Z"/>
    <path class="cls-9" d="m262.09,44.01h4.33v1.03h-5.87v-.93l4.08-5.42h-4.02v-1.05h5.61v.9l-4.12,5.47Z"/>
    <path class="cls-9" d="m267.53,41.28c0-1.13.27-2.05.81-2.74.54-.69,1.24-1.04,2.11-1.04s1.55.3,2.06.89v-3.86h1.26v10.5h-1.16l-.06-.79c-.51.62-1.21.93-2.11.93s-1.55-.35-2.09-1.05-.81-1.62-.81-2.75v-.1Zm1.26.14c0,.84.17,1.5.52,1.97.35.47.83.71,1.44.71.8,0,1.39-.36,1.76-1.08v-3.4c-.38-.7-.96-1.05-1.74-1.05-.62,0-1.1.24-1.45.72-.35.48-.52,1.19-.52,2.13Z"/>
    <path class="cls-9" d="m279.31,38.78c-.19-.03-.4-.05-.62-.05-.83,0-1.39.35-1.69,1.06v5.25h-1.26v-7.4h1.23l.02.85c.42-.66,1-.99,1.76-.99.25,0,.43.03.56.1v1.18Z"/>
    <path class="cls-9" d="m280,41.28c0-.72.14-1.38.43-1.96.28-.58.68-1.03,1.19-1.34.51-.31,1.09-.47,1.74-.47,1.01,0,1.82.35,2.44,1.05s.93,1.62.93,2.78v.09c0,.72-.14,1.37-.41,1.94-.28.57-.67,1.02-1.18,1.34s-1.1.48-1.77.48c-1,0-1.81-.35-2.44-1.05s-.93-1.62-.93-2.77v-.09Zm1.27.15c0,.82.19,1.48.57,1.98.38.5.89.75,1.53.75s1.15-.25,1.53-.75c.38-.5.57-1.21.57-2.12,0-.81-.19-1.47-.58-1.97-.39-.5-.9-.76-1.54-.76s-1.13.25-1.51.75-.57,1.21-.57,2.13Z"/>
    <path class="cls-9" d="m289.62,37.65v8.25c0,1.42-.64,2.13-1.93,2.13-.28,0-.54-.04-.77-.12v-1.01c.15.04.34.05.57.05.28,0,.5-.08.65-.23.15-.15.22-.42.22-.8v-8.28h1.26Zm-1.39-1.96c0-.2.06-.37.19-.52.12-.14.31-.21.55-.21s.43.07.56.21c.13.14.19.31.19.52s-.06.38-.19.51c-.13.14-.31.21-.56.21s-.43-.07-.55-.21-.18-.31-.18-.51Z"/>
    <path class="cls-9" d="m294.73,45.18c-1,0-1.82-.33-2.45-.99-.63-.66-.94-1.54-.94-2.64v-.23c0-.73.14-1.39.42-1.97.28-.58.67-1.03,1.18-1.35.5-.33,1.05-.49,1.64-.49.96,0,1.71.32,2.24.95s.8,1.54.8,2.72v.53h-5.01c.02.73.23,1.32.64,1.77.41.45.93.67,1.55.67.45,0,.83-.09,1.13-.27.31-.18.58-.42.81-.72l.77.6c-.62.95-1.55,1.43-2.79,1.43Zm-.16-6.63c-.51,0-.94.19-1.29.56-.35.37-.56.89-.64,1.56h3.71v-.1c-.04-.64-.21-1.14-.52-1.49-.31-.35-.73-.53-1.26-.53Z"/>
    <path class="cls-9" d="m303.85,37.65v8.25c0,1.42-.64,2.13-1.93,2.13-.28,0-.54-.04-.77-.12v-1.01c.15.04.34.05.57.05.28,0,.5-.08.65-.23.15-.15.22-.42.22-.8v-8.28h1.26Zm-1.39-1.96c0-.2.06-.37.19-.52.12-.14.31-.21.55-.21s.43.07.56.21c.13.14.19.31.19.52s-.06.38-.19.51c-.13.14-.31.21-.56.21s-.43-.07-.55-.21-.18-.31-.18-.51Z"/>
    <path class="cls-9" d="m308.95,45.18c-1,0-1.82-.33-2.45-.99-.63-.66-.94-1.54-.94-2.64v-.23c0-.73.14-1.39.42-1.97.28-.58.67-1.03,1.18-1.35.5-.33,1.05-.49,1.64-.49.96,0,1.71.32,2.24.95s.8,1.54.8,2.72v.53h-5.01c.02.73.23,1.32.64,1.77.41.45.93.67,1.55.67.45,0,.83-.09,1.13-.27.31-.18.58-.42.81-.72l.77.6c-.62.95-1.55,1.43-2.79,1.43Zm-.16-6.63c-.51,0-.94.19-1.29.56-.35.37-.56.89-.64,1.56h3.71v-.1c-.04-.64-.21-1.14-.52-1.49-.31-.35-.73-.53-1.26-.53Z"/>
    <path class="cls-9" d="m314.5,37.65l.04.93c.57-.71,1.3-1.07,2.21-1.07,1.56,0,2.35.88,2.37,2.65v4.89h-1.26v-4.89c0-.53-.13-.93-.37-1.18s-.61-.38-1.12-.38c-.41,0-.77.11-1.08.33-.31.22-.55.51-.72.86v5.27h-1.26v-7.4h1.2Z"/>
    <path class="cls-9" d="m325.68,44.01h4.33v1.03h-5.87v-.93l4.08-5.42h-4.02v-1.05h5.61v.9l-4.12,5.47Z"/>
    <path class="cls-9" d="m334.4,44.15c.45,0,.85-.14,1.18-.41.34-.27.52-.62.56-1.03h1.2c-.02.42-.17.83-.44,1.21-.27.38-.63.69-1.08.92-.45.23-.92.34-1.43.34-1.01,0-1.81-.34-2.4-1.01-.59-.67-.89-1.59-.89-2.76v-.21c0-.72.13-1.36.4-1.92.26-.56.64-1,1.14-1.31.49-.31,1.08-.46,1.75-.46.83,0,1.52.25,2.07.75.55.5.84,1.14.88,1.93h-1.2c-.04-.48-.22-.87-.54-1.18-.33-.31-.73-.46-1.21-.46-.64,0-1.14.23-1.49.69-.35.46-.53,1.13-.53,2.01v.24c0,.85.18,1.51.53,1.97.35.46.85.69,1.5.69Zm-.29-8.44l1.03-1.16h1.09v.07l-1.74,1.87h-.77l-1.72-1.87v-.07h1.07l1.03,1.16Z"/>
    <path class="cls-9" d="m343.32,45.04c-.07-.15-.13-.41-.18-.78-.59.61-1.29.92-2.11.92-.73,0-1.33-.21-1.79-.62-.47-.41-.7-.93-.7-1.57,0-.77.29-1.37.88-1.79.58-.43,1.41-.64,2.47-.64h1.23v-.58c0-.44-.13-.79-.4-1.06-.26-.26-.65-.39-1.17-.39-.45,0-.83.11-1.13.34-.3.23-.46.5-.46.83h-1.27c0-.37.13-.73.39-1.07.26-.34.62-.62,1.07-.82.45-.2.94-.3,1.48-.3.85,0,1.52.21,2,.64.48.43.73,1.01.75,1.76v3.4c0,.68.09,1.22.26,1.62v.11h-1.33Zm-2.1-.96c.4,0,.77-.1,1.13-.31s.61-.47.77-.8v-1.52h-.99c-1.55,0-2.32.45-2.32,1.36,0,.4.13.71.4.93.26.22.6.33,1.02.33Zm1.17-9.54h1.53l-1.83,2.01h-1.02s1.32-2.01,1.32-2.01Z"/>
    <path class="cls-9" d="m350.68,43.08c0-.34-.13-.61-.39-.8-.26-.19-.71-.35-1.35-.49-.64-.14-1.15-.3-1.52-.49s-.65-.42-.83-.68c-.18-.26-.27-.58-.27-.94,0-.61.26-1.12.77-1.54s1.17-.63,1.96-.63c.84,0,1.52.22,2.04.65.52.43.78.99.78,1.66h-1.27c0-.35-.15-.64-.44-.9s-.66-.38-1.11-.38-.82.1-1.08.3-.39.46-.39.79c0,.31.12.54.36.69.24.16.68.3,1.31.44.63.14,1.14.31,1.53.51.39.2.68.43.87.71.19.28.28.61.28,1.01,0,.66-.26,1.19-.79,1.59-.53.4-1.21.6-2.06.6-.59,0-1.12-.1-1.57-.31-.46-.21-.81-.5-1.07-.88-.26-.38-.39-.78-.39-1.22h1.26c.02.42.19.76.51,1.01.32.25.73.37,1.25.37.48,0,.86-.1,1.15-.29.29-.19.43-.45.43-.78Z"/>
    <path class="cls-9" d="m355.31,35.86v1.79h1.38v.98h-1.38v4.59c0,.3.06.52.18.67s.33.22.63.22c.15,0,.35-.03.6-.08v1.02c-.33.09-.66.14-.97.14-.56,0-.99-.17-1.28-.51s-.43-.83-.43-1.46v-4.59h-1.35v-.98h1.35v-1.79h1.26Z"/>
    <path class="cls-9" d="m358.17,35.68c0-.21.06-.38.19-.52.12-.14.31-.21.56-.21s.43.07.56.21.19.31.19.52-.06.38-.19.51-.31.21-.56.21-.43-.07-.56-.21c-.13-.14-.19-.31-.19-.51Zm1.37,9.36h-1.26v-7.4h1.26v7.4Z"/>
  </g>
  <path class="cls-12" d="m366.43,155.13h3.17v1.37h-3.17v3.59h-1.45v-3.59h-3.17v-1.37h3.17v-3.32h1.45v3.32Z"/>
  <g>
    <path class="cls-8" d="m2.98,157.31l.5-4.66h4.96v1.33h-3.68l-.25,2.21c.43-.25.91-.37,1.45-.37.88,0,1.56.28,2.05.84.49.56.73,1.32.73,2.27s-.27,1.69-.81,2.24c-.54.56-1.28.83-2.23.83-.85,0-1.55-.24-2.1-.72-.56-.48-.86-1.11-.9-1.9h1.49c.06.45.22.79.48,1.03.26.24.61.36,1.03.36.47,0,.84-.17,1.11-.51.26-.34.4-.8.4-1.38s-.15-1.01-.44-1.34c-.29-.33-.69-.49-1.21-.49-.28,0-.52.04-.71.11-.19.07-.41.22-.63.43l-1.23-.3Z"/>
    <path class="cls-8" d="m9.89,154.43c0-.56.18-1.02.54-1.37.36-.36.83-.54,1.42-.54s1.07.18,1.42.54c.36.36.54.83.54,1.41v.46c0,.55-.18,1.01-.54,1.36s-.83.53-1.41.53-1.04-.17-1.41-.52c-.37-.35-.55-.82-.55-1.41v-.45Zm1.08.49c0,.29.08.53.24.71s.38.27.64.27.47-.09.63-.27c.16-.18.24-.43.24-.73v-.46c0-.29-.08-.53-.25-.71-.16-.18-.38-.27-.64-.27s-.48.09-.64.28c-.16.18-.24.43-.24.73v.47Zm1.21,6.29l-.79-.46,4.51-7.22.79.46-4.51,7.22Zm2.16-1.57c0-.57.18-1.03.55-1.38s.84-.53,1.41-.53,1.05.18,1.41.53c.37.35.55.83.55,1.42v.45c0,.55-.18,1-.53,1.36-.35.36-.83.54-1.42.54s-1.07-.18-1.43-.53c-.36-.35-.54-.82-.54-1.4v-.46Zm1.08.49c0,.29.08.52.25.71.17.18.38.28.64.28s.48-.09.64-.26c.16-.18.23-.42.23-.74v-.48c0-.3-.08-.53-.25-.71s-.38-.27-.63-.27-.47.09-.64.27-.24.42-.24.74v.47Z"/>
  </g>
  <g>
    <path class="cls-8" d="m149.41,158.54h1.15v1.24h-1.15v2.06h-1.54v-2.06h-3.99l-.04-.94,3.99-6.25h1.59v5.95Zm-3.96,0h2.42v-3.86l-.11.2-2.3,3.66Z"/>
    <path class="cls-8" d="m151.99,157.25l.5-4.66h4.96v1.33h-3.68l-.25,2.21c.43-.25.91-.37,1.45-.37.88,0,1.57.28,2.05.84.49.56.73,1.32.73,2.27s-.27,1.69-.81,2.24c-.54.56-1.28.83-2.23.83-.85,0-1.55-.24-2.1-.72-.56-.48-.86-1.11-.91-1.9h1.49c.06.45.22.79.48,1.03.26.24.6.36,1.03.36.47,0,.84-.17,1.11-.51s.4-.8.4-1.38-.15-1.01-.44-1.34c-.29-.33-.69-.49-1.21-.49-.28,0-.52.04-.71.11-.2.07-.41.22-.63.43l-1.23-.3Z"/>
    <path class="cls-8" d="m162.14,154.37c0-.56.18-1.02.54-1.37.36-.36.83-.54,1.42-.54s1.07.18,1.43.54c.36.36.54.83.54,1.41v.46c0,.55-.18,1.01-.54,1.36-.36.36-.83.53-1.41.53s-1.04-.17-1.41-.52c-.37-.35-.56-.82-.56-1.41v-.45Zm1.08.49c0,.29.08.53.25.71.16.18.38.27.64.27s.47-.09.63-.27c.16-.18.24-.43.24-.73v-.46c0-.29-.08-.53-.24-.71-.16-.18-.38-.27-.64-.27s-.48.09-.64.28c-.16.18-.24.43-.24.73v.47Zm1.21,6.29l-.79-.46,4.51-7.22.79.46-4.51,7.22Zm2.16-1.57c0-.57.18-1.03.55-1.38s.84-.53,1.41-.53,1.05.18,1.41.53.55.83.55,1.42v.45c0,.55-.18,1-.53,1.36-.35.36-.83.54-1.42.54s-1.07-.18-1.43-.53c-.36-.35-.54-.82-.54-1.4v-.46Zm1.08.49c0,.29.08.52.25.71.17.18.38.28.64.28s.48-.09.64-.26c.15-.18.23-.42.23-.74v-.48c0-.3-.08-.53-.25-.71s-.38-.27-.63-.27-.48.09-.64.27c-.16.18-.25.42-.25.74v.47Z"/>
  </g>
  <g>
    <path class="cls-8" d="m186.8,161.26h-1.54v-7.42l-2.27.77v-1.29l3.61-1.33h.2v9.27Z"/>
    <path class="cls-8" d="m191.79,155.93h.94c.47,0,.85-.13,1.13-.37.28-.24.42-.59.42-1.05s-.12-.78-.35-1.03c-.23-.24-.58-.36-1.06-.36-.41,0-.76.12-1.02.36-.27.24-.4.55-.4.94h-1.54c0-.47.13-.91.38-1.29.25-.39.6-.69,1.05-.91.45-.22.96-.33,1.51-.33.92,0,1.65.23,2.17.7.53.46.79,1.11.79,1.93,0,.41-.13.81-.4,1.17-.26.37-.61.64-1.03.83.51.17.89.45,1.16.82.26.37.4.82.4,1.33,0,.83-.28,1.49-.85,1.98-.57.49-1.32.74-2.24.74s-1.62-.24-2.18-.71-.85-1.1-.85-1.89h1.54c0,.41.14.74.41.99.27.25.64.38,1.1.38s.85-.13,1.13-.38.41-.62.41-1.1-.14-.86-.43-1.12-.72-.39-1.28-.39h-.91v-1.22Z"/>
    <path class="cls-8" d="m200.57,153.79c0-.56.18-1.02.54-1.37.36-.36.83-.54,1.42-.54s1.07.18,1.43.54.54.83.54,1.41v.46c0,.55-.18,1.01-.54,1.36-.36.36-.83.53-1.41.53s-1.04-.17-1.41-.52c-.37-.35-.56-.82-.56-1.41v-.45Zm1.08.49c0,.29.08.53.24.71.16.18.38.27.64.27s.47-.09.63-.27.24-.43.24-.73v-.46c0-.29-.08-.53-.24-.71-.16-.18-.38-.27-.64-.27s-.48.09-.64.28c-.16.18-.24.43-.24.73v.47Zm1.21,6.29l-.79-.46,4.51-7.22.79.46-4.51,7.22Zm2.16-1.57c0-.57.18-1.03.55-1.38s.84-.53,1.41-.53,1.05.18,1.41.53c.37.35.55.83.55,1.42v.45c0,.55-.18,1-.53,1.36-.35.36-.83.54-1.42.54s-1.07-.18-1.43-.53c-.36-.35-.54-.82-.54-1.4v-.46Zm1.08.49c0,.29.08.52.25.71.17.18.38.28.64.28s.48-.09.64-.26c.15-.18.23-.42.23-.74v-.48c0-.3-.08-.53-.25-.71s-.38-.27-.63-.27-.48.09-.64.27c-.16.18-.24.42-.24.74v.47Z"/>
  </g>
  <g>
    <path class="cls-8" d="m320.77,155.93h.94c.47,0,.85-.13,1.13-.37.28-.24.42-.59.42-1.05s-.12-.78-.35-1.03c-.23-.24-.58-.36-1.06-.36-.41,0-.76.12-1.02.36-.27.24-.4.55-.4.94h-1.54c0-.47.13-.91.38-1.29.25-.39.6-.69,1.05-.91.45-.22.96-.33,1.51-.33.92,0,1.65.23,2.17.7.53.46.79,1.11.79,1.93,0,.41-.13.81-.4,1.17-.26.37-.61.64-1.03.83.51.17.89.45,1.16.82.26.37.4.82.4,1.33,0,.83-.28,1.49-.85,1.98-.57.49-1.32.74-2.24.74s-1.62-.24-2.18-.71-.85-1.1-.85-1.89h1.54c0,.41.14.74.41.99.27.25.64.38,1.1.38s.85-.13,1.13-.38.41-.62.41-1.1-.14-.86-.43-1.12-.72-.39-1.28-.39h-.91v-1.22Z"/>
    <path class="cls-8" d="m332.19,154.45c0,.45-.12.86-.35,1.21-.23.35-.55.63-.95.83.48.22.85.53,1.11.92.26.39.39.83.39,1.32,0,.81-.27,1.46-.83,1.93-.55.48-1.28.71-2.2.71s-1.65-.24-2.21-.72c-.55-.48-.83-1.12-.83-1.93,0-.5.13-.94.39-1.33s.63-.7,1.1-.91c-.4-.2-.71-.48-.94-.83-.23-.35-.35-.76-.35-1.21,0-.79.25-1.41.76-1.87s1.19-.69,2.06-.69,1.56.23,2.06.69.76,1.09.76,1.87Zm-1.34,4.21c0-.46-.14-.83-.41-1.11-.27-.28-.63-.42-1.08-.42s-.81.14-1.08.42c-.27.28-.4.65-.4,1.11s.13.81.4,1.09c.26.27.63.41,1.09.41s.83-.13,1.09-.39c.26-.26.39-.63.39-1.1Zm-.2-4.15c0-.4-.12-.73-.35-.99-.23-.26-.55-.39-.94-.39s-.7.12-.93.37c-.23.25-.34.58-.34,1.01s.12.76.35,1.01c.23.25.54.37.94.37s.71-.12.94-.37c.23-.25.35-.59.35-1.01Z"/>
    <path class="cls-8" d="m336.93,153.79c0-.56.18-1.02.54-1.37.36-.36.83-.54,1.42-.54s1.07.18,1.43.54.54.83.54,1.41v.46c0,.55-.18,1.01-.54,1.36-.36.36-.83.53-1.41.53s-1.04-.17-1.41-.52c-.37-.35-.56-.82-.56-1.41v-.45Zm1.08.49c0,.29.08.53.24.71.16.18.38.27.64.27s.47-.09.63-.27.24-.43.24-.73v-.46c0-.29-.08-.53-.24-.71-.16-.18-.38-.27-.64-.27s-.48.09-.64.28c-.16.18-.24.43-.24.73v.47Zm1.21,6.29l-.79-.46,4.51-7.22.79.46-4.51,7.22Zm2.16-1.57c0-.57.18-1.03.55-1.38s.84-.53,1.41-.53,1.05.18,1.41.53c.37.35.55.83.55,1.42v.45c0,.55-.18,1-.53,1.36-.35.36-.83.54-1.42.54s-1.07-.18-1.43-.53c-.36-.35-.54-.82-.54-1.4v-.46Zm1.08.49c0,.29.08.52.25.71.17.18.38.28.64.28s.48-.09.64-.26c.15-.18.23-.42.23-.74v-.48c0-.3-.08-.53-.25-.71s-.38-.27-.63-.27-.48.09-.64.27c-.16.18-.24.42-.24.74v.47Z"/>
  </g>
</svg>