<?xml version="1.0" encoding="UTF-8"?>
<svg id="Layer_1" data-name="Layer 1" xmlns="http://www.w3.org/2000/svg" viewBox="0 0 440 272.5744">
  <defs>
    <style>
      .cls-1, .cls-2, .cls-3, .cls-4, .cls-5, .cls-6 {
        stroke: #fff;
      }

      .cls-1, .cls-2, .cls-3, .cls-4, .cls-5, .cls-6, .cls-7, .cls-8 {
        stroke-miterlimit: 10;
      }

      .cls-1, .cls-9 {
        fill: #8f41b4;
      }

      .cls-2, .cls-3 {
        fill: #e4e7ed;
      }

      .cls-10 {
        opacity: .9;
      }

      .cls-3, .cls-4, .cls-5, .cls-6 {
        stroke-width: .75px;
      }

      .cls-11, .cls-12, .cls-13, .cls-14, .cls-9, .cls-15 {
        stroke-width: 0px;
      }

      .cls-11, .cls-6 {
        fill: #6f298f;
      }

      .cls-12, .cls-5 {
        fill: #dab7eb;
      }

      .cls-13, .cls-4 {
        fill: #af71cc;
      }

      .cls-14 {
        fill: #9ea7b3;
      }

      .cls-15 {
        fill: #fff;
      }

      .cls-7 {
        stroke: #dab7eb;
      }

      .cls-7, .cls-8 {
        fill: none;
        stroke-width: .5px;
      }

      .cls-8 {
        stroke: #af71cc;
      }
    </style>
  </defs>
  <g>
    <path class="cls-9" d="m270.7512,20.3957v-7.1094h2.1875c.625,0,1.1836.1406,1.6768.4224s.8779.6821,1.1553,1.2012c.2764.519.415,1.1094.415,1.77v.3271c0,.6606-.1357,1.2485-.4082,1.7627-.2715.5142-.6553.9131-1.1494,1.1963-.4951.2832-1.0537.4263-1.6748.4297h-2.2021Zm1.4648-5.9229v4.7461h.708c.5723,0,1.0107-.187,1.3135-.5615s.457-.9097.4639-1.6064v-.376c0-.7227-.1504-1.2705-.4492-1.6431-.2998-.3726-.7373-.5591-1.3135-.5591h-.7227Z"/>
    <path class="cls-9" d="m276.9377,17.7053c0-.5239.1006-.9912.3027-1.4014.2012-.4102.4922-.7275.8711-.9521.3799-.2246.8193-.3369,1.3213-.3369.7129,0,1.2949.2183,1.7451.6543.4512.436.7021,1.0288.7549,1.7773l.0098.3613c0,.8105-.2266,1.4609-.6787,1.9507-.4531.4897-1.0596.7349-1.8213.7349s-1.3701-.2441-1.8242-.7324-.6807-1.1523-.6807-1.9922v-.0635Zm1.4111.1001c0,.502.0938.8862.2832,1.1519.1885.2656.459.3984.8105.3984.3418,0,.6084-.1313.8008-.3936.1914-.2627.2881-.6821.2881-1.2593,0-.4922-.0967-.874-.2881-1.1445-.1924-.2705-.4629-.4058-.8105-.4058-.3457,0-.6123.1343-.8008.4033-.1895.269-.2832.6855-.2832,1.2495Z"/>
    <path class="cls-9" d="m287.5676,17.803c0,.814-.1846,1.4658-.5547,1.9556-.3691.4897-.8682.7349-1.4961.7349-.5342,0-.9658-.1855-1.2939-.5566v2.4902h-1.4111v-7.3145h1.3086l.0488.5176c.3418-.4102.7871-.6152,1.3379-.6152.6504,0,1.1572.2407,1.5186.7227s.542,1.146.542,1.9922v.0732Zm-1.4111-.1025c0-.4917-.0869-.8706-.2617-1.1377-.1738-.2671-.4268-.4004-.7588-.4004-.4434,0-.7471.1694-.9131.5078v2.1631c.1719.3481.4795.5225.9229.5225.6738,0,1.0107-.5518,1.0107-1.6553Z"/>
    <path class="cls-9" d="m291.4104,16.4358c-.1924-.0259-.3613-.0391-.5078-.0391-.5342,0-.8838.1807-1.0498.542v3.457h-1.4111v-5.2832h1.333l.0391.6299c.2832-.4849.6748-.7275,1.1768-.7275.1562,0,.3027.021.4395.0635l-.0195,1.3574Z"/>
    <path class="cls-9" d="m295.0041,20.3957c-.0654-.127-.1123-.2847-.1416-.4736-.3418.3809-.7861.5713-1.333.5713-.5176,0-.9463-.1499-1.2871-.4492-.3398-.2993-.5098-.6772-.5098-1.1328,0-.5601.207-.9897.6221-1.2891s1.0146-.4507,1.7998-.4541h.6494v-.3027c0-.2441-.0625-.4395-.1885-.5859-.125-.1465-.3232-.2197-.5928-.2197-.2383,0-.4238.0571-.5596.1709-.1348.1138-.2021.27-.2021.4688h-1.4111c0-.3062.0938-.5894.2832-.8496.1885-.2603.4551-.4648.8008-.6128.3447-.1479.7324-.2222,1.1621-.2222.6504,0,1.168.1636,1.5498.4907.3828.3271.5742.7871.5742,1.3794v2.29c.0029.5015.0732.8804.21,1.1377v.083h-1.4258Zm-1.167-.9814c.208,0,.4004-.0464.5762-.1392s.3057-.2173.3906-.3735v-.9082h-.5273c-.707,0-1.083.2441-1.1279.7324l-.0049.083c0,.1758.0615.3208.1855.4346.123.1138.293.1709.5078.1709Z"/>
    <path class="cls-9" d="m299.2082,18.6721l.9814-3.5596h1.4746l-1.7822,5.2832h-1.3477l-1.7822-5.2832h1.4746l.9814,3.5596Z"/>
    <path class="cls-9" d="m305.2727,20.3957c-.0654-.127-.1123-.2847-.1416-.4736-.3418.3809-.7861.5713-1.333.5713-.5176,0-.9463-.1499-1.2871-.4492-.3398-.2993-.5098-.6772-.5098-1.1328,0-.5601.207-.9897.6221-1.2891s1.0146-.4507,1.7998-.4541h.6494v-.3027c0-.2441-.0625-.4395-.1885-.5859-.125-.1465-.3232-.2197-.5928-.2197-.2383,0-.4238.0571-.5596.1709-.1348.1138-.2021.27-.2021.4688h-1.4111c0-.3062.0938-.5894.2832-.8496.1885-.2603.4551-.4648.8008-.6128.3447-.1479.7324-.2222,1.1621-.2222.6504,0,1.168.1636,1.5498.4907.3828.3271.5742.7871.5742,1.3794v2.29c.0029.5015.0732.8804.21,1.1377v.083h-1.4258Zm-1.167-.9814c.208,0,.4004-.0464.5762-.1392s.3057-.2173.3906-.3735v-.9082h-.5273c-.707,0-1.083.2441-1.1279.7324l-.0049.083c0,.1758.0615.3208.1855.4346.123.1138.293.1709.5078.1709Z"/>
  </g>
  <g>
    <path class="cls-14" d="m9.8479,18.633l1.6113-5.3467h1.6309l-2.4756,7.1094h-1.5283l-2.4658-7.1094h1.626l1.6016,5.3467Z"/>
    <path class="cls-14" d="m15.6389,18.3987l.9766-3.2861h1.5137l-2.124,6.1035-.1172.2783c-.3159.6899-.8364,1.0352-1.5625,1.0352-.2051,0-.4136-.0308-.625-.0928v-1.0693l.2148.0049c.2671,0,.4663-.0405.5981-.1221s.2354-.2163.3101-.4053l.166-.4346-1.8506-5.2979h1.5186l.9814,3.2861Zm.3076-5.5029h1.5381l-1.3525,1.5137h-1.1475l.9619-1.5137Z"/>
    <path class="cls-14" d="m21.6545,16.4358c-.1919-.0259-.3613-.0391-.5078-.0391-.5337,0-.8838.1807-1.0498.542v3.457h-1.4111v-5.2832h1.333l.0391.6299c.2832-.4849.6753-.7275,1.1768-.7275.1562,0,.3027.021.4395.0635l-.0195,1.3574Z"/>
    <path class="cls-14" d="m21.9377,17.7053c0-.5239.1011-.9912.3027-1.4014s.4922-.7275.8716-.9521.8193-.3369,1.3208-.3369c.7129,0,1.2949.2183,1.7456.6543s.7021,1.0288.7544,1.7773l.0098.3613c0,.8105-.2261,1.4609-.6787,1.9507s-1.0596.7349-1.8213.7349-1.3696-.2441-1.8237-.7324-.6812-1.1523-.6812-1.9922v-.0635Zm1.4111.1001c0,.502.0942.8862.2832,1.1519s.459.3984.8105.3984c.3418,0,.6089-.1313.8008-.3936.1919-.2627.2881-.6821.2881-1.2593,0-.4922-.0962-.874-.2881-1.1445s-.4624-.4058-.8105-.4058c-.3452,0-.6118.1343-.8008.4033s-.2832.6855-.2832,1.2495Z"/>
    <path class="cls-14" d="m32.5725,17.803c0,.8462-.1807,1.5063-.542,1.98s-.8657.7104-1.5137.7104c-.5728,0-1.0303-.2197-1.3721-.6592l-.0635.5615h-1.2695v-7.5h1.4111v2.6904c.3257-.3809.7534-.5713,1.2842-.5713.6445,0,1.1499.2368,1.5161.7104s.5493,1.1401.5493,1.9995v.0781Zm-1.4111-.1025c0-.5337-.0845-.9238-.2539-1.1694s-.4214-.3687-.7568-.3687c-.4492,0-.7583.1841-.9277.5518v2.085c.1724.3711.4849.5566.9375.5566.4556,0,.7554-.2246.8984-.6738.0684-.2148.1025-.542.1025-.9814Z"/>
    <path class="cls-14" d="m36.5032,20.3957c-.0649-.127-.1123-.2847-.1416-.4736-.3418.3809-.7861.5713-1.333.5713-.5176,0-.9463-.1499-1.2866-.4492s-.5103-.6772-.5103-1.1328c0-.5601.2075-.9897.6226-1.2891s1.0146-.4507,1.7993-.4541h.6494v-.3027c0-.2441-.0625-.4395-.188-.5859s-.3232-.2197-.5933-.2197c-.2378,0-.4238.0571-.5591.1709s-.2026.27-.2026.4688h-1.4111c0-.3062.0942-.5894.2832-.8496s.4556-.4648.8008-.6128.7324-.2222,1.1621-.2222c.6509,0,1.168.1636,1.5503.4907s.5737.7871.5737,1.3794v2.29c.0034.5015.0732.8804.21,1.1377v.083h-1.4258Zm-1.167-.9814c.2085,0,.4004-.0464.5762-.1392s.3062-.2173.3906-.3735v-.9082h-.5273c-.7065,0-1.0825.2441-1.1279.7324l-.0049.083c0,.1758.062.3208.1855.4346s.293.1709.5078.1709Z"/>
    <path class="cls-14" d="m43.7248,20.4934c-.7749,0-1.4053-.2378-1.8921-.7129s-.73-1.1084-.73-1.8994v-.1367c0-.5308.1025-1.0049.3076-1.4233s.4956-.7407.8716-.9668.8047-.3394,1.2866-.3394c.7227,0,1.2915.228,1.7065.6836s.6226,1.1021.6226,1.9385v.5762h-3.3643c.0454.3452.1831.6216.4126.8301s.52.3125.8716.3125c.5435,0,.9683-.1968,1.2744-.5908l.6934.7764c-.2114.2993-.498.5332-.8594.7007s-.7617.2515-1.2012.2515Zm-.1611-4.3408c-.2798,0-.5068.0947-.6812.2847-.1743.1895-.2856.4609-.3345.814h1.9629v-.1128c-.0063-.314-.0913-.5566-.2539-.7285-.1626-.1714-.394-.2573-.6934-.2573Z"/>
    <path class="cls-14" d="m48.1877,20.3957h-1.416v-7.5h1.416v7.5Z"/>
    <path class="cls-14" d="m51.7815,20.4934c-.7749,0-1.4053-.2378-1.8921-.7129s-.73-1.1084-.73-1.8994v-.1367c0-.5308.1025-1.0049.3076-1.4233s.4956-.7407.8716-.9668.8047-.3394,1.2866-.3394c.7227,0,1.2915.228,1.7065.6836s.6226,1.1021.6226,1.9385v.5762h-3.3643c.0454.3452.1831.6216.4126.8301s.52.3125.8716.3125c.5435,0,.9683-.1968,1.2744-.5908l.6934.7764c-.2114.2993-.498.5332-.8594.7007s-.7617.2515-1.2012.2515Zm-.1611-4.3408c-.2798,0-.5068.0947-.6812.2847-.1743.1895-.2856.4609-.3345.814h1.9629v-.1128c-.0063-.314-.0913-.5566-.2539-.7285-.1626-.1714-.394-.2573-.6934-.2573Z"/>
    <path class="cls-14" d="m56.674,18.2766l-.5078.5078v1.6113h-1.4111v-7.5h1.4111v4.1553l.2734-.3516,1.3525-1.5869h1.6943l-1.9092,2.2021,2.0752,3.0811h-1.6211l-1.3574-2.1191Z"/>
    <path class="cls-14" d="m61.7864,13.8137v1.2988h.9033v1.0352h-.9033v2.6367c0,.1953.0376.3354.1123.4199s.2183.127.4297.127c.1562,0,.2944-.0112.415-.0342v1.0693c-.2769.0845-.5615.127-.8545.127-.9897,0-1.4941-.4995-1.5137-1.499v-2.8467h-.7715v-1.0352h.7715v-1.2988h1.4111Z"/>
    <path class="cls-14" d="m64.9407,13.5891l.7129-.6982h1.2061v.0537l-1.4746,1.3721h-.8936l-1.4746-1.3818v-.0439h1.2061l.7178.6982Zm1.5039,2.8467c-.1919-.0259-.3613-.0391-.5078-.0391-.5337,0-.8838.1807-1.0498.542v3.457h-1.4111v-5.2832h1.333l.0391.6299c.2832-.4849.6753-.7275,1.1768-.7275.1562,0,.3027.021.4395.0635l-.0195,1.3574Z"/>
    <path class="cls-14" d="m67.1135,13.7453c0-.2114.0708-.3857.2124-.5225s.3345-.2051.5786-.2051c.2407,0,.4331.0684.5762.2051s.2148.311.2148.5225c0,.2148-.0723.3906-.2173.5273s-.3359.2051-.5737.2051-.4287-.0684-.5737-.2051-.2173-.3125-.2173-.5273Zm1.499,6.6504h-1.416v-5.2832h1.416v5.2832Z"/>
    <path class="cls-14" d="m71.0735,15.1125l.0439.6104c.3774-.4722.8838-.708,1.5186-.708.5601,0,.9766.1646,1.25.4932s.4136.8203.4199,1.4746v3.4131h-1.4111v-3.3789c0-.2993-.0649-.5166-.1953-.6519s-.3467-.2026-.6494-.2026c-.397,0-.6948.1694-.8936.5078v3.7256h-1.4111v-5.2832h1.3281Z"/>
    <path class="cls-14" d="m77.3479,18.3987l.9766-3.2861h1.5137l-2.124,6.1035-.1172.2783c-.3159.6899-.8364,1.0352-1.5625,1.0352-.2051,0-.4136-.0308-.625-.0928v-1.0693l.2148.0049c.2671,0,.4663-.0405.5981-.1221s.2354-.2163.3101-.4053l.166-.4346-1.8506-5.2979h1.5186l.9814,3.2861Z"/>
    <path class="cls-14" d="m85.9465,20.3957c-.0649-.127-.1123-.2847-.1416-.4736-.3418.3809-.7861.5713-1.333.5713-.5176,0-.9463-.1499-1.2866-.4492s-.5103-.6772-.5103-1.1328c0-.5601.2075-.9897.6226-1.2891s1.0146-.4507,1.7993-.4541h.6494v-.3027c0-.2441-.0625-.4395-.188-.5859s-.3232-.2197-.5933-.2197c-.2378,0-.4238.0571-.5591.1709s-.2026.27-.2026.4688h-1.4111c0-.3062.0942-.5894.2832-.8496s.4556-.4648.8008-.6128.7324-.2222,1.1621-.2222c.6509,0,1.168.1636,1.5503.4907s.5737.7871.5737,1.3794v2.29c.0034.5015.0732.8804.21,1.1377v.083h-1.4258Zm-1.167-.9814c.2085,0,.4004-.0464.5762-.1392s.3062-.2173.3906-.3735v-.9082h-.5273c-.7065,0-1.0825.2441-1.1279.7324l-.0049.083c0,.1758.062.3208.1855.4346s.293.1709.5078.1709Z"/>
    <path class="cls-14" d="m92.426,13.8137v1.2988h.9033v1.0352h-.9033v2.6367c0,.1953.0376.3354.1123.4199s.2183.127.4297.127c.1562,0,.2944-.0112.415-.0342v1.0693c-.2769.0845-.5615.127-.8545.127-.9897,0-1.4941-.4995-1.5137-1.499v-2.8467h-.7715v-1.0352h.7715v-1.2988h1.4111Z"/>
    <path class="cls-14" d="m96.5471,20.4934c-.7749,0-1.4053-.2378-1.8921-.7129s-.73-1.1084-.73-1.8994v-.1367c0-.5308.1025-1.0049.3076-1.4233s.4956-.7407.8716-.9668.8047-.3394,1.2866-.3394c.7227,0,1.2915.228,1.7065.6836s.6226,1.1021.6226,1.9385v.5762h-3.3643c.0454.3452.1831.6216.4126.8301s.52.3125.8716.3125c.5435,0,.9683-.1968,1.2744-.5908l.6934.7764c-.2114.2993-.498.5332-.8594.7007s-.7617.2515-1.2012.2515Zm-.1611-4.3408c-.2798,0-.5068.0947-.6812.2847-.1743.1895-.2856.4609-.3345.814h1.9629v-.1128c-.0063-.314-.0913-.5566-.2539-.7285-.1626-.1714-.394-.2573-.6934-.2573Z"/>
    <path class="cls-14" d="m104.2766,17.803c0,.814-.1846,1.4658-.5542,1.9556s-.8682.7349-1.4966.7349c-.5337,0-.9653-.1855-1.2939-.5566v2.4902h-1.4111v-7.3145h1.3086l.0488.5176c.3418-.4102.7876-.6152,1.3379-.6152.6509,0,1.1572.2407,1.5186.7227s.542,1.146.542,1.9922v.0732Zm-1.4111-.1025c0-.4917-.0869-.8706-.2612-1.1377s-.4272-.4004-.7593-.4004c-.4429,0-.7471.1694-.9131.5078v2.1631c.1724.3481.48.5225.9229.5225.6738,0,1.0107-.5518,1.0107-1.6553Z"/>
    <path class="cls-14" d="m106.6399,20.3957h-1.416v-7.5h1.416v7.5Z"/>
    <path class="cls-14" d="m110.8635,20.3957c-.0649-.127-.1123-.2847-.1416-.4736-.3418.3809-.7861.5713-1.333.5713-.5176,0-.9463-.1499-1.2866-.4492s-.5103-.6772-.5103-1.1328c0-.5601.2075-.9897.6226-1.2891s1.0146-.4507,1.7993-.4541h.6494v-.3027c0-.2441-.0625-.4395-.188-.5859s-.3232-.2197-.5933-.2197c-.2378,0-.4238.0571-.5591.1709s-.2026.27-.2026.4688h-1.4111c0-.3062.0942-.5894.2832-.8496s.4556-.4648.8008-.6128.7324-.2222,1.1621-.2222c.6509,0,1.168.1636,1.5503.4907s.5737.7871.5737,1.3794v2.29c.0034.5015.0732.8804.21,1.1377v.083h-1.4258Zm-1.167-.9814c.2085,0,.4004-.0464.5762-.1392s.3062-.2173.3906-.3735v-.9082h-.5273c-.7065,0-1.0825.2441-1.1279.7324l-.0049.083c0,.1758.062.3208.1855.4346s.293.1709.5078.1709Z"/>
  </g>
  <g>
    <path class="cls-14" d="m147.9699,17.8909v2.5049h-1.4648v-7.1094h2.7734c.5332,0,1.0029.0977,1.4082.293s.7168.4727.9355.8325c.2178.3599.3271.769.3271,1.228,0,.6968-.2383,1.2461-.7158,1.6479-.4766.4019-1.1367.603-1.9795.603h-1.2842Zm0-1.1865h1.3086c.3867,0,.6826-.0913.8857-.2734.2041-.1821.3057-.4429.3057-.7812,0-.3481-.1025-.6299-.3076-.8447s-.4883-.3257-.8496-.332h-1.3428v2.2314Z"/>
    <path class="cls-14" d="m155.8313,16.4358c-.1924-.0259-.3613-.0391-.5078-.0391-.5342,0-.8838.1807-1.0498.542v3.457h-1.4111v-5.2832h1.333l.0391.6299c.2832-.4849.6748-.7275,1.1768-.7275.1562,0,.3027.021.4395.0635l-.0195,1.3574Z"/>
    <path class="cls-14" d="m159.674,19.8586c-.3486.4233-.8301.6348-1.4453.6348-.5664,0-.999-.1626-1.2969-.4883s-.4502-.8022-.4561-1.4307v-3.4619h1.4111v3.417c0,.5508.25.8262.752.8262.4785,0,.8066-.166.9863-.4985v-3.7446h1.416v5.2832h-1.3281l-.0391-.5371Zm-1.9971-6.3965c0-.2798.1055-.5166.3174-.7104.2109-.1938.4688-.2905.7715-.2905.2988,0,.5557.0952.7686.2856.2139.1904.3203.4287.3203.7153,0,.2769-.1045.5093-.3125.6982-.209.189-.4678.2832-.7764.2832-.3164,0-.5762-.0962-.7812-.2881s-.3076-.4233-.3076-.6934Zm.5615,0c0,.1431.0469.2661.1416.3687.0938.1025.2227.1538.3857.1538.1621,0,.291-.0513.3857-.1538.0938-.1025.1416-.2256.1416-.3687,0-.1499-.0479-.2759-.1445-.3784-.0957-.1025-.2236-.1538-.3828-.1538-.1602,0-.2871.0513-.3838.1538-.0957.1025-.1436.2285-.1436.3784Z"/>
    <path class="cls-14" d="m163.4289,15.1125l.0439.5908c.374-.459.8799-.6885,1.5186-.6885.6797,0,1.1475.2686,1.4014.8057.3711-.5371.8994-.8057,1.5869-.8057.5723,0,.999.167,1.2793.5005.2793.3335.4199.8359.4199,1.5063v3.374h-1.416v-3.3691c0-.2993-.0586-.5186-.1758-.6567s-.3242-.2075-.6201-.2075c-.4238,0-.7168.2017-.8789.6055l.0049,3.6279h-1.4111v-3.3643c0-.3062-.0605-.5273-.1807-.6641-.1211-.1367-.3262-.2051-.6152-.2051-.4004,0-.6904.166-.8691.498v3.7354h-1.4111v-5.2832h1.3232Z"/>
    <path class="cls-14" d="m172.7356,18.3987l.9766-3.2861h1.5137l-2.124,6.1035-.1172.2783c-.3164.6899-.8369,1.0352-1.5625,1.0352-.2051,0-.4141-.0308-.625-.0928v-1.0693l.2148.0049c.2666,0,.4658-.0405.5977-.1221s.2354-.2163.3105-.4053l.166-.4346-1.8506-5.2979h1.5186l.9814,3.2861Z"/>
    <path class="cls-14" d="m178.6438,18.9358c0-.1724-.0859-.3086-.2568-.4077s-.4453-.188-.8223-.2661c-1.2568-.2637-1.8848-.7974-1.8848-1.6016,0-.4688.1943-.8604.583-1.1743.3896-.314.8975-.4712,1.5264-.4712.6699,0,1.207.1577,1.6084.4736.4023.3159.6035.7261.6035,1.2305h-1.4111c0-.2017-.0654-.3687-.1953-.5005-.1309-.1318-.334-.1978-.6104-.1978-.2383,0-.4219.0537-.5518.1611-.1309.1074-.1953.2441-.1953.4102,0,.1562.0742.2822.2217.3784.1484.0962.3984.1792.75.249s.6475.1489.8887.2368c.7451.2734,1.1182.7471,1.1182,1.4209,0,.4819-.207.8716-.6201,1.1694-.4141.2979-.9473.4468-1.6016.4468-.4434,0-.8359-.0791-1.1797-.2368-.3428-.1577-.6123-.3745-.8076-.6494s-.293-.5723-.293-.8911h1.3379c.0127.2505.1055.4429.2783.5762.1719.1333.4033.2002.6934.2002.2695,0,.4746-.0513.6123-.1538.1387-.1025.208-.2368.208-.4028Z"/>
    <path class="cls-14" d="m182.4133,20.3957h-1.416v-7.5h1.416v7.5Z"/>
  </g>
  <g>
    <path class="cls-14" d="m340.0422,20.3957v-7.1094h2.4902c.8623,0,1.5166.165,1.9629.4956.4453.3306.6689.8145.6689,1.4526,0,.3481-.0898.6553-.2686.9204-.1797.2651-.4287.46-.7471.5835.3643.0913.6514.2749.8613.5518s.3154.6152.3154,1.0156c0,.6836-.2188,1.2012-.6543,1.5527-.4365.3516-1.0586.5308-1.8652.5371h-2.7637Zm1.4648-4.1309h1.084c.7383-.0132,1.1084-.3076,1.1084-.8838,0-.3223-.0938-.5542-.2812-.6958-.1865-.1416-.4824-.2124-.8857-.2124h-1.0254v1.792Zm0,1.0352v1.9189h1.2549c.3447,0,.6143-.082.8076-.2466.1943-.1646.291-.3916.291-.6812,0-.6509-.3369-.9814-1.0107-.9912h-1.3428Z"/>
    <path class="cls-14" d="m349.4953,19.8586c-.3486.4233-.8301.6348-1.4453.6348-.5664,0-.999-.1626-1.2969-.4883s-.4502-.8022-.4561-1.4307v-3.4619h1.4111v3.417c0,.5508.25.8262.752.8262.4785,0,.8066-.166.9863-.4985v-3.7446h1.416v5.2832h-1.3281l-.0391-.5371Z"/>
    <path class="cls-14" d="m351.7073,17.7151c0-.8237.1846-1.4795.5537-1.9678.3701-.4883.875-.7324,1.5166-.7324.5137,0,.9385.1919,1.2744.5762v-2.6953h1.416v7.5h-1.2744l-.0684-.5615c-.3516.4395-.8047.6592-1.3574.6592-.6221,0-1.1211-.2451-1.4971-.7349s-.5635-1.1709-.5635-2.0435Zm1.4111.105c0,.4956.0859.8755.2588,1.1396.1719.2642.4229.396.752.396.4355,0,.7432-.1841.9229-.5527v-2.0879c-.1758-.3687-.4805-.5527-.9131-.5527-.6807,0-1.0205.5527-1.0205,1.6577Z"/>
    <path class="cls-14" d="m357.342,17.7053c0-.5239.1006-.9912.3027-1.4014.2012-.4102.4922-.7275.8711-.9521.3799-.2246.8193-.3369,1.3213-.3369.7129,0,1.2949.2183,1.7451.6543.4512.436.7021,1.0288.7549,1.7773l.0098.3613c0,.8105-.2266,1.4609-.6787,1.9507-.4531.4897-1.0596.7349-1.8213.7349s-1.3701-.2441-1.8242-.7324-.6807-1.1523-.6807-1.9922v-.0635Zm1.4111.1001c0,.502.0938.8862.2832,1.1519.1885.2656.459.3984.8105.3984.3418,0,.6084-.1313.8008-.3936.1914-.2627.2881-.6821.2881-1.2593,0-.4922-.0967-.874-.2881-1.1445-.1924-.2705-.4629-.4058-.8105-.4058-.3457,0-.6123.1343-.8008.4033-.1895.269-.2832.6855-.2832,1.2495Z"/>
    <path class="cls-14" d="m365.1203,18.6721l.9814-3.5596h1.4746l-1.7822,5.2832h-1.3477l-1.7822-5.2832h1.4746l.9814,3.5596Z"/>
    <path class="cls-14" d="m370.1692,18.3987l.9766-3.2861h1.5137l-2.124,6.1035-.1172.2783c-.3164.6899-.8369,1.0352-1.5625,1.0352-.2051,0-.4141-.0308-.625-.0928v-1.0693l.2148.0049c.2666,0,.4658-.0405.5977-.1221s.2354-.2163.3105-.4053l.166-.4346-1.8506-5.2979h1.5186l.9814,3.2861Z"/>
  </g>
  <path class="cls-3" d="m1.0926,46.5586v-21.8559h142.9584v21.8559H1.0926Z"/>
  <path class="cls-2" d="m144.051,46.5586v-21.8559h123.8973v21.8559h-123.8973Z"/>
  <path class="cls-1" d="m267.9483,46.5586v-21.8559h69.8908v21.8559h-69.8908Z"/>
  <path class="cls-2" d="m337.8391,46.5586v-21.8559h44.476v21.8559h-44.476Z"/>
  <path class="cls-2" d="m382.315,46.5586v-21.8559h31.7685v21.8559h-31.7685Z"/>
  <path class="cls-2" d="m414.0836,46.5586v-21.8559h22.238v21.8559h-22.238Z"/>
  <path class="cls-2" d="m436.3215,46.5586v-21.8559h3.1769v21.8559h-3.1769Z"/>
  <path class="cls-6" d="m1.0927,135.8429l.0016-37.9715h421.9606s-.0016,37.9715-.0016,37.9715H1.0927Z"/>
  <path class="cls-5" d="m439.4958,97.8716v37.9715h-5.48v-37.9715h5.48Z"/>
  <path class="cls-4" d="m434.0158,97.8716v37.9715h-10.9601v-37.9715h10.9601Z"/>
  <g>
    <path class="cls-15" d="m277.0549,39.8381h-1.2998v-6.2827l-1.917.6538v-1.0957l3.0508-1.1226h.166v7.8472Z"/>
    <path class="cls-15" d="m283.8332,31.9802v1.0796h-.1611c-.7305.0107-1.3135.2114-1.751.6016-.4365.3901-.6963.9434-.7783,1.6597.4189-.4404.9541-.6606,1.6055-.6606.6914,0,1.2363.2437,1.6357.7305s.5986,1.1152.5986,1.8853c0,.7949-.2334,1.4385-.7002,1.9312-.4678.4922-1.0811.7383-1.8398.7383-.7812,0-1.4141-.2881-1.8984-.8647-.4854-.5767-.7285-1.332-.7285-2.2666v-.4458c0-1.3716.334-2.4458,1.002-3.2227s1.6279-1.1655,2.8818-1.1655h.1338Zm-1.4014,3.7329c-.2871,0-.5488.0806-.7871.2417s-.4131.376-.5234.6445v.3975c0,.5801.1211,1.041.3652,1.3833.2432.3418.5586.5127.9453.5127s.6924-.145.918-.4351.3389-.6714.3389-1.144-.1152-.8574-.3438-1.1548c-.2295-.2974-.5342-.4458-.9131-.4458Z"/>
    <path class="cls-15" d="m288.1711,33.5217c0-.4727.1523-.8604.457-1.1631.3037-.3022.7031-.4536,1.1973-.4536.502,0,.9033.1514,1.2061.4536.3027.3027.4541.6992.4541,1.1899v.3867c0,.4692-.1514.854-.4541,1.1548s-.7012.4512-1.1953.4512c-.4834,0-.8818-.1475-1.1943-.4434-.3135-.2949-.4707-.6934-.4707-1.1948v-.3813Zm.9131.4116c0,.2476.0693.4478.207.6001.1377.1528.3193.229.5449.229.2227,0,.4014-.0762.5371-.229.1367-.1523.2041-.3599.2041-.6216v-.3936c0-.2476-.0684-.4487-.2061-.603-.1387-.1543-.3203-.2314-.5459-.2314s-.4053.0781-.5391.2344c-.1348.1562-.2021.3613-.2021.6162v.3989Zm1.0205,5.3193l-.6709-.3867,3.8184-6.1123.6719.3867-3.8193,6.1123Zm1.8262-1.332c0-.48.1562-.8682.4678-1.1655s.709-.4458,1.1924-.4458c.4863,0,.8848.1484,1.1953.4458.3096.2974.4639.6982.4639,1.2031v.3813c0,.4653-.1494.8496-.4482,1.1519-.2988.3027-.6992.4541-1.2002.4541-.502,0-.9053-.1494-1.2109-.4482-.3066-.2993-.46-.6938-.46-1.1846v-.3921Zm.9131.4136c0,.2437.0713.4434.2129.5986.1406.1562.3223.2339.5449.2339.2285,0,.4092-.0742.54-.2231.1299-.1484.1953-.3569.1953-.6255v-.4028c0-.2505-.0693-.4512-.209-.6016s-.3193-.2256-.5371-.2256c-.2227,0-.4023.0752-.54.2256s-.207.3579-.207.623v.3975Z"/>
  </g>
  <path class="cls-6" d="m1.0927,162.1212v-9.2349h254.8219v9.2349H1.0927Z"/>
  <path class="cls-6" d="m1.0927,214.6779v-9.2349h46.5803v9.2349H1.0927Z"/>
  <path class="cls-6" d="m1.0927,188.3996v-9.2349h117.8209v9.2349H1.0927Z"/>
  <path class="cls-6" d="m1.0927,240.9818v-9.2349h2.74v9.2349H1.0927Z"/>
  <g>
    <path class="cls-15" d="m10.8401,110.0188c-.4365.4619-.9473.6929-1.5303.6929-.6875,0-1.2354-.2407-1.6436-.7227-.4082-.4814-.6123-1.1143-.6123-1.8984,0-.5156.1035-.9829.3115-1.4019.207-.4189.5029-.7446.8857-.9775.3838-.2329.8271-.3491,1.332-.3491.7881,0,1.4131.2935,1.875.8809s.6924,1.373.6924,2.3579v.3652c0,1.4106-.3184,2.4868-.9561,3.228-.6367.7412-1.5879,1.1172-2.8516,1.1279h-.1562v-1.0796h.1885c.7695-.0107,1.3604-.1958,1.7725-.5562.4111-.3594.6426-.9155.6924-1.6675Zm-1.2568-.3276c.2617,0,.5068-.0752.7363-.2256.2285-.1504.4062-.3579.5312-.623v-.5103c0-.5767-.1182-1.04-.3545-1.3911s-.542-.5264-.918-.5264-.6758.1548-.9004.4648c-.2236.3096-.335.7007-.335,1.1733,0,.4907.1123.8862.3379,1.187s.5264.4512.9023.4512Z"/>
    <path class="cls-15" d="m17.4524,105.4319v1.0796h-.1611c-.7305.0107-1.3145.2114-1.751.6016-.4375.3901-.6963.9434-.7793,1.6597.4189-.4404.9541-.6606,1.6064-.6606.6904,0,1.2363.2437,1.6348.7305.3994.4868.5996,1.1152.5996,1.8853,0,.7949-.2344,1.4385-.7012,1.9312-.4678.4922-1.0801.7383-1.8398.7383-.7803,0-1.4131-.2881-1.8984-.8647s-.7275-1.332-.7275-2.2666v-.4458c0-1.3716.334-2.4458,1.001-3.2227.668-.7769,1.6289-1.1655,2.8818-1.1655h.1348Zm-1.4023,3.7329c-.2861,0-.5488.0806-.7871.2417-.2373.1611-.4121.376-.5234.6445v.3975c0,.5801.1221,1.041.3652,1.3833.2441.3418.5586.5127.9453.5127s.6934-.145.9189-.4351.3379-.6714.3379-1.144-.1143-.8574-.3438-1.1548c-.2285-.2974-.5332-.4458-.9131-.4458Z"/>
    <path class="cls-15" d="m21.7903,106.9734c0-.4727.1523-.8604.4561-1.1631.3047-.3022.7041-.4536,1.1982-.4536.501,0,.9033.1514,1.2051.4536.3027.3027.4541.6992.4541,1.1899v.3867c0,.4692-.1514.854-.4541,1.1548-.3018.3008-.7002.4512-1.1943.4512-.4834,0-.8818-.1475-1.1953-.4434-.3135-.2949-.4697-.6934-.4697-1.1948v-.3813Zm.9131.4116c0,.2476.0684.4478.2061.6001.1387.1528.3203.229.5459.229.2217,0,.4004-.0762.5371-.229.1357-.1523.2041-.3599.2041-.6216v-.3936c0-.2476-.0693-.4487-.207-.603s-.3193-.2314-.5449-.2314-.4062.0781-.54.2344c-.1348.1562-.2012.3613-.2012.6162v.3989Zm1.0205,5.3193l-.6719-.3867,3.8193-6.1123.6709.3867-3.8184,6.1123Zm1.8262-1.332c0-.48.1553-.8682.4668-1.1655s.709-.4458,1.1924-.4458c.4873,0,.8857.1484,1.1953.4458s.4648.6982.4648,1.2031v.3813c0,.4653-.1494.8496-.4492,1.1519-.2988.3027-.6982.4541-1.2002.4541-.501,0-.9053-.1494-1.2109-.4482-.3066-.2993-.459-.6938-.459-1.1846v-.3921Zm.9131.4136c0,.2437.0703.4434.2119.5986.1416.1562.3232.2339.5449.2339.2295,0,.4092-.0742.54-.2231.1309-.1484.1963-.3569.1963-.6255v-.4028c0-.2505-.0703-.4512-.21-.6016s-.3184-.2256-.5371-.2256c-.2217,0-.4014.0752-.54.2256-.1377.1504-.2061.3579-.2061.623v.3975Z"/>
  </g>
  <g class="cls-10">
    <g>
      <path class="cls-15" d="m34.9133,113.3679c-.5732,0-1.0391-.188-1.3984-.5645s-.5391-.8794-.5391-1.5098v-.1328c0-.4194.0801-.7935.2402-1.123s.3838-.5874.6719-.7734c.2871-.186.5996-.2793.9355-.2793.5488,0,.9766.1812,1.2812.543s.457.8804.457,1.5547v.3008h-2.8633c.0098.4165.1318.7534.3652,1.0098.2324.2563.5293.3848.8887.3848.2549,0,.4707-.0522.6484-.1562.1768-.104.332-.2422.4648-.4141l.4414.3438c-.3545.5444-.8857.8164-1.5938.8164Zm-.0898-3.7891c-.292,0-.5371.106-.7344.3184-.1982.2124-.3203.5098-.3672.8926h2.1172v-.0547c-.0215-.3672-.1201-.6519-.2969-.8535-.1777-.2017-.417-.3027-.7188-.3027Z"/>
      <path class="cls-15" d="m38.0774,109.0632l.0195.4688c.3096-.3647.7275-.5469,1.2539-.5469.5908,0,.9932.2266,1.207.6797.1406-.2031.3232-.3672.5488-.4922.2246-.125.4912-.1875.7988-.1875.9268,0,1.3984.4907,1.4141,1.4727v2.832h-.7227v-2.7891c0-.3022-.0693-.5278-.207-.6777-.1387-.1499-.3701-.2246-.6953-.2246-.2686,0-.4912.0801-.668.2402-.1777.1602-.2803.3755-.3086.6465v2.8047h-.7266v-2.7695c0-.6147-.3008-.9219-.9023-.9219-.4746,0-.7988.2017-.9727.6055v3.0859h-.7227v-4.2266h.6836Z"/>
      <path class="cls-15" d="m44.4133,107.9421c0-.1172.0352-.2163.1074-.2969.0713-.0806.1777-.1211.3184-.1211s.2471.0405.3203.1211c.0723.0806.1094.1797.1094.2969s-.0371.2148-.1094.293c-.0732.0781-.1797.1172-.3203.1172s-.2471-.0391-.3184-.1172c-.0723-.0781-.1074-.1758-.1074-.293Zm.7812,5.3477h-.7227v-4.2266h.7227v4.2266Z"/>
      <path class="cls-15" d="m48.8117,112.1687c0-.1953-.0742-.3472-.2207-.4551-.1475-.1079-.4043-.2012-.7695-.2793-.3662-.0781-.6562-.1719-.8711-.2812s-.374-.2397-.4766-.3906c-.1035-.1509-.1543-.3306-.1543-.5391,0-.3462.1465-.6392.4395-.8789s.667-.3594,1.123-.3594c.4785,0,.8672.1235,1.166.3711.2979.2476.4473.564.4473.9492h-.7266c0-.1978-.084-.3687-.252-.5117s-.3799-.2148-.6348-.2148c-.2637,0-.4688.0571-.6172.1719s-.2227.2642-.2227.4492c0,.1743.0684.3062.207.3945.1377.0884.3867.1733.748.2539.3604.0806.6523.1772.877.2891.2236.1118.3896.2466.498.4043.1074.1577.1621.3496.1621.5762,0,.3774-.1514.6802-.4531.9082-.3027.228-.6943.3418-1.1758.3418-.3389,0-.6387-.0601-.8984-.1797-.2607-.1196-.4648-.2871-.6113-.502-.1475-.2148-.2207-.4473-.2207-.6973h.7227c.0127.2422.1094.4341.291.5762.1807.1421.4199.2129.7168.2129.2734,0,.4922-.0552.6582-.166.165-.1108.248-.2583.248-.4434Z"/>
      <path class="cls-15" d="m51.2688,107.2937h.875l-1.0469,1.1484-.582-.002.7539-1.1465Zm-.0078,5.9961h-.7266v-4.2266h.7266v4.2266Z"/>
      <path class="cls-15" d="m58.7297,111.4851c-.0703.6016-.293,1.0659-.666,1.3926-.374.3267-.8711.4902-1.4902.4902-.6719,0-1.2109-.2407-1.6152-.7227-.4053-.4819-.6074-1.1265-.6074-1.9336v-.5469c0-.5288.0938-.9937.2832-1.3945.1885-.4009.4561-.709.8027-.9238.3457-.2148.7471-.3223,1.2031-.3223.6035,0,1.0879.1685,1.4531.5059.3643.3374.5762.8042.6367,1.4004h-.7539c-.0654-.4546-.207-.7837-.4238-.9873-.2178-.2036-.5215-.3057-.9121-.3057-.4795,0-.8555.1772-1.127.5317-.2725.3545-.4082.8589-.4082,1.5132v.5508c0,.6182.1289,1.1094.3867,1.4741s.6182.5474,1.082.5474c.416,0,.7363-.0942.959-.2832s.3701-.5176.4434-.9863h.7539Z"/>
      <path class="cls-15" d="m64.1282,110.6296c0,.5571-.0938,1.0435-.2812,1.459s-.4531.7324-.7969.9512-.7451.3281-1.2031.3281c-.4482,0-.8457-.1099-1.1914-.3301-.3467-.2202-.6152-.5337-.8066-.9414s-.29-.8794-.2949-1.416v-.4102c0-.5469.0947-1.0298.2852-1.4492.1895-.4194.459-.7402.8066-.9629s.7451-.334,1.1934-.334c.4551,0,.8574.1099,1.2051.3301s.6152.5391.8027.957.2812.9043.2812,1.459v.3594Zm-.7461-.3672c0-.6743-.1357-1.1919-.4062-1.5527-.2715-.3608-.6504-.541-1.1367-.541-.4746,0-.8477.1802-1.1191.541-.2725.3608-.4121.8613-.4199,1.502v.418c0,.6538.1367,1.1675.4121,1.541.2744.3735.6523.5605,1.1348.5605.4844,0,.8594-.1763,1.125-.5293s.4023-.8589.4102-1.5176v-.4219Z"/>
      <path class="cls-15" d="m67.0705,113.9538h-2.2295v-.3804l1.1045-1.2046c.1592-.1777.2725-.3262.3408-.4453.0674-.1191.1006-.2388.1006-.3589,0-.1577-.0439-.2852-.1328-.3823s-.208-.146-.3584-.146c-.1797,0-.3184.0547-.417.1641s-.1484.2588-.1484.4487h-.5527c0-.2017.0459-.3838.1377-.5454s.2227-.2871.3936-.377c.1709-.0894.3682-.1343.5908-.1343.3223,0,.5762.0811.7617.2427.1865.1616.2793.3853.2793.6704,0,.1655-.0469.3389-.1396.5205-.0938.1816-.2471.3877-.459.6182l-.8105.8677h1.5391v.4419Z"/>
      <path class="cls-15" d="m69.5442,113.3679c-.5723,0-1.0391-.188-1.3984-.5645s-.5391-.8794-.5391-1.5098v-.1328c0-.4194.0801-.7935.2402-1.123s.3848-.5874.6719-.7734c.2881-.186.5996-.2793.9355-.2793.5498,0,.9766.1812,1.2812.543s.457.8804.457,1.5547v.3008h-2.8633c.0107.4165.1328.7534.3652,1.0098.2334.2563.5293.3848.8887.3848.2559,0,.4717-.0522.6484-.1562.1777-.104.332-.2422.4648-.4141l.4414.3438c-.3535.5444-.8848.8164-1.5938.8164Zm-.0898-3.7891c-.291,0-.5361.106-.7344.3184-.1973.2124-.3203.5098-.3672.8926h2.1172v-.0547c-.0205-.3672-.1191-.6519-.2969-.8535-.1768-.2017-.416-.3027-.7188-.3027Z"/>
      <path class="cls-15" d="m71.8528,111.1413c0-.6641.1523-1.1895.457-1.5762s.7139-.5801,1.2266-.5801c.5,0,.8945.168,1.1836.5039l.0312-.4258h.6641v5.8516h-.7227v-2.0156c-.291.3125-.6797.4688-1.1641.4688-.5098,0-.917-.1987-1.2207-.5957-.3027-.397-.4551-.9238-.4551-1.5801v-.0508Zm.7227.082c0,.4844.1025.8647.3066,1.1406.2051.2759.4805.4141.8262.4141.4297,0,.7578-.1899.9844-.5703v-2.0703c-.2285-.3726-.5547-.5586-.9766-.5586-.3486,0-.626.1387-.832.416-.2051.2773-.3086.687-.3086,1.2285Z"/>
      <path class="cls-15" d="m79.2356,112.6999h2.4727v.5898h-3.3555v-.5312l2.332-3.0977h-2.2969v-.5977h3.2031v.5117l-2.3555,3.125Z"/>
      <path class="cls-15" d="m84.3254,111.1413c0-.6484.1543-1.1699.4609-1.5645.3076-.3945.71-.5918,1.207-.5918.4951,0,.8867.1694,1.1758.5078v-2.2031h.7227v6h-.6641l-.0352-.4531c-.2891.354-.6914.5312-1.207.5312-.4893,0-.8887-.2007-1.1973-.6016s-.4629-.9243-.4629-1.5703v-.0547Zm.7227.082c0,.479.0996.854.2969,1.125.1982.271.4717.4062.8203.4062.459,0,.793-.2056,1.0039-.6172v-1.9414c-.2158-.3984-.5479-.5977-.9961-.5977-.3535,0-.6299.1367-.8281.4102-.1973.2734-.2969.6782-.2969,1.2148Z"/>
      <path class="cls-15" d="m88.8215,111.1374c0-.4141.082-.7866.2441-1.1172.1631-.3306.3896-.5859.6797-.7656.291-.1797.6221-.2695.9941-.2695.5762,0,1.041.1992,1.3965.5977s.5332.9282.5332,1.5898v.0508c0,.4116-.0781.7808-.2363,1.1074-.1572.3267-.3828.5815-.6758.7637s-.6289.2734-1.0098.2734c-.5723,0-1.0371-.1992-1.3926-.5977s-.5332-.9258-.5332-1.582v-.0508Zm.7266.0859c0,.4688.1094.8452.3262,1.1289.2178.2837.5088.4258.873.4258.3672,0,.6592-.144.875-.4316.2168-.2876.3242-.6909.3242-1.209,0-.4634-.1094-.8394-.3301-1.127-.2197-.2876-.5117-.4316-.877-.4316-.3564,0-.6445.1421-.8633.4258s-.3281.6899-.3281,1.2188Z"/>
      <path class="cls-15" d="m97.1457,111.2234c0,.6431-.1465,1.1616-.4414,1.5547-.2939.3931-.6924.5898-1.1953.5898-.5127,0-.916-.1626-1.2109-.4883v2.0352h-.7227v-5.8516h.6602l.0352.4688c.2949-.3647.7031-.5469,1.2266-.5469.5078,0,.9102.1914,1.2051.5742.2959.3828.4434.9155.4434,1.5977v.0664Zm-.7227-.082c0-.4766-.1016-.853-.3047-1.1289s-.4814-.4141-.8359-.4141c-.4375,0-.7656.1938-.9844.582v2.0195c.2168.3853.5469.5781.9922.5781.3467,0,.6221-.1372.8262-.4121.2051-.2749.3066-.6831.3066-1.2246Z"/>
      <path class="cls-15" d="m100.1067,109.7117c-.1094-.0181-.2275-.0273-.3555-.0273-.4736,0-.7949.2017-.9648.6055v3h-.7227v-4.2266h.7031l.0117.4883c.2373-.3774.5732-.5664,1.0078-.5664.1406,0,.248.0181.3203.0547v.6719Z"/>
      <path class="cls-15" d="m103.2239,113.2898c-.041-.0835-.0752-.2319-.1016-.4453-.3359.3491-.7363.5234-1.2031.5234-.416,0-.7578-.1177-1.0254-.3535-.2666-.2358-.4004-.5347-.4004-.8965,0-.4399.168-.7817.502-1.0254.335-.2437.8057-.3652,1.4121-.3652h.7031v-.332c0-.2524-.0752-.4536-.2266-.6035-.1504-.1499-.373-.2246-.668-.2246-.2578,0-.4736.0649-.6484.1953-.1738.1304-.2617.2876-.2617.4727h-.7266c0-.2109.0752-.4146.2246-.6113.1504-.1968.3535-.3521.6094-.4668.2568-.1147.5391-.1719.8457-.1719.4873,0,.8691.1216,1.1445.3652.2764.2437.4199.5786.4297,1.0059v1.9453c0,.3882.0498.6968.1484.9258v.0625h-.7578Zm-1.1992-.5508c.2266,0,.4414-.0586.6445-.1758s.3506-.2695.4414-.457v-.8672h-.5664c-.8848,0-1.3281.2593-1.3281.7773,0,.2266.0762.4038.2266.5312.1514.1274.3457.1914.582.1914Z"/>
      <path class="cls-15" d="m106.302,112.3093l1.0469-3.2461h.7383l-1.5156,4.2266h-.5508l-1.5312-4.2266h.7383l1.0742,3.2461Z"/>
      <path class="cls-15" d="m110.1653,112.2312l.9844-3.168h.7734l-1.6992,4.8789c-.2627.7031-.6807,1.0547-1.2539,1.0547l-.1367-.0117-.2695-.0508v-.5859l.1953.0156c.2451,0,.4355-.0493.5723-.1484s.25-.2798.3379-.543l.1602-.4297-1.5078-4.1797h.7891l1.0547,3.168Z"/>
    </g>
  </g>
  <g class="cls-10">
    <g>
      <path class="cls-15" d="m9.4441,127.0383h-.7266v-4.8164l-1.457.5352v-.6562l2.0703-.7773h.1133v5.7148Z"/>
      <path class="cls-15" d="m15.0105,122.8352c0,.2837-.0747.5366-.2246.7578s-.3521.3945-.6074.5195c.2969.1274.5317.314.7051.5586s.2598.522.2598.832c0,.4922-.166.8843-.498,1.1758s-.769.4375-1.3105.4375c-.5469,0-.9849-.1465-1.3145-.4395s-.4941-.6841-.4941-1.1738c0-.3071.084-.5845.252-.832s.4004-.4351.6973-.5625c-.2524-.125-.4517-.2983-.5977-.5195s-.2188-.4727-.2188-.7539c0-.479.1538-.8594.4609-1.1406s.7124-.4219,1.2148-.4219c.5,0,.9043.1406,1.2129.4219s.4629.6616.4629,1.1406Zm-.5898,2.6523c0-.3179-.1011-.5767-.3027-.7773s-.4653-.3008-.791-.3008-.5864.0991-.7832.2969-.2949.4585-.2949.7812.0957.5767.2871.7617.4575.2773.7988.2773c.3384,0,.604-.0933.7969-.2793s.2891-.4395.2891-.7598Zm-1.0859-3.6211c-.2837,0-.5137.0879-.6895.2637s-.2637.4146-.2637.7168c0,.2891.0864.5229.2598.7012s.4043.2676.6934.2676.52-.0894.6934-.2676.2598-.4121.2598-.7012-.0898-.5249-.2695-.707-.4077-.2734-.6836-.2734Z"/>
      <path class="cls-15" d="m16.1042,128.1711l-.4102-.2812c.2446-.3413.3726-.6929.3828-1.0547v-.6523h.707v.5664c0,.2632-.0645.5259-.1934.7891s-.291.4741-.4863.6328Z"/>
      <path class="cls-15" d="m17.9558,124.1867l.2891-2.8359h2.9141v.668h-2.3008l-.1719,1.5508c.2788-.1641.5952-.2461.9492-.2461.5181,0,.9297.1714,1.2344.5137s.457.8052.457,1.3887c0,.5859-.1582,1.0474-.4746,1.3848s-.7583.5059-1.3262.5059c-.5024,0-.9126-.1392-1.2305-.418s-.4985-.6641-.543-1.1562h.6836c.0444.3257.1602.5708.3477.7363s.4351.248.7422.248c.3359,0,.5996-.1147.791-.3438s.2871-.5454.2871-.9492c0-.3804-.1035-.6855-.3105-.916s-.4824-.3457-.8262-.3457c-.3149,0-.5625.0688-.7422.207l-.1914.1562-.5781-.1484Z"/>
      <path class="cls-15" d="m25.2527,121.3508l1.8594,4.6406,1.8594-4.6406h.9727v5.6875h-.75v-2.2148l.0703-2.3906-1.8672,4.6055h-.5742l-1.8633-4.5938.0742,2.3789v2.2148h-.75v-5.6875h.9688Z"/>
      <path class="cls-15" d="m32.1355,121.7883v1.0234h.7891v.5586h-.7891v2.6245c0,.1694.0352.2964.1055.3813.0703.0845.1899.127.3594.127.0835,0,.1978-.0156.3438-.0469v.5825c-.1899.0518-.375.0776-.5547.0776-.3228,0-.5664-.0977-.7305-.293s-.2461-.4727-.2461-.832v-2.6211h-.7695v-.5586h.7695v-1.0234h.7227Z"/>
    </g>
  </g>
  <g>
    <path class="cls-11" d="m8.5862,90.6848c0-.3042-.1074-.5381-.3223-.7012-.2148-.1626-.6016-.3345-1.1602-.5156-.5586-.1807-1.001-.3589-1.3262-.5342-.8887-.48-1.332-1.126-1.332-1.939,0-.4224.1191-.7993.3574-1.1304.2373-.3315.5801-.5903,1.0254-.7764.4463-.186.9463-.2793,1.501-.2793.5586,0,1.0566.1011,1.4932.3037.4375.2021.7764.4878,1.0186.8564.2412.3687.3623.7876.3623,1.2568h-1.6113c0-.3579-.1133-.6367-.3389-.835-.2256-.1992-.542-.2983-.9502-.2983-.3945,0-.7002.0835-.9189.2495-.2178.167-.3271.3862-.3271.6582,0,.2544.1279.4673.3838.6392s.6328.333,1.1309.4834c.916.2759,1.584.6177,2.0029,1.0259s.6289.9165.6289,1.5254c0,.6768-.2559,1.2075-.7686,1.5928-.5117.3848-1.2012.5771-2.0674.5771-.6016,0-1.1494-.1104-1.6436-.3301-.4941-.2207-.8711-.522-1.1309-.9053s-.3896-.8271-.3896-1.332h1.6172c0,.8628.5156,1.2944,1.5469,1.2944.3828,0,.6816-.0776.8965-.2339.2148-.1553.3223-.373.3223-.6523Z"/>
    <path class="cls-11" d="m11.1809,85.4211c0-.2329.0771-.4243.2334-.5747.1553-.1504.3682-.2256.6367-.2256.2646,0,.4756.0752.6338.2256.1572.1504.2363.3418.2363.5747,0,.2363-.0801.4297-.2393.5801s-.3701.2256-.6309.2256c-.2617,0-.4717-.0752-.6318-.2256-.1592-.1504-.2383-.3438-.2383-.5801Zm1.6484,7.3154h-1.5576v-5.8115h1.5576v5.8115Z"/>
    <path class="cls-11" d="m15.7463,92.7366h-1.5576v-8.25h1.5576v8.25Z"/>
    <path class="cls-11" d="m18.4533,86.925l.0479.6714c.416-.519.9727-.7788,1.6709-.7788.6152,0,1.0742.1807,1.375.5425s.4541.9023.4619,1.6221v3.7544h-1.5527v-3.7168c0-.3296-.0713-.5684-.2148-.7168-.1426-.1489-.3809-.2231-.7139-.2231-.4375,0-.7646.186-.9834.5586v4.0981h-1.5518v-5.8115h1.4609Z"/>
    <path class="cls-11" d="m23.174,85.4211c0-.2329.0781-.4243.2344-.5747.1553-.1504.3672-.2256.6357-.2256.2656,0,.4766.0752.6338.2256.1582.1504.2363.3418.2363.5747,0,.2363-.0791.4297-.2383.5801-.1602.1504-.3701.2256-.6318.2256-.2607,0-.4717-.0752-.6309-.2256s-.2393-.3438-.2393-.5801Zm1.6494,7.3154h-1.5576v-5.8115h1.5576v5.8115Z"/>
    <path class="cls-11" d="m28.5188,91.5925c.2861,0,.5186-.0786.6982-.2363.1787-.1577.2715-.3672.2793-.6284h1.4551c-.0029.394-.1104.7549-.3223,1.082-.2109.3281-.5.582-.8672.7627-.3672.1812-.7725.2715-1.2168.2715-.8301,0-1.4854-.2642-1.9658-.792-.4795-.5283-.7197-1.2578-.7197-2.189v-.1021c0-.895.2383-1.6094.7148-2.1431.4756-.5337,1.1299-.8003,1.96-.8003.7275,0,1.3096.207,1.748.6201.4395.4141.6621.9644.6689,1.6519h-1.4551c-.0078-.3022-.1006-.5479-.2793-.7368-.1797-.189-.416-.2837-.709-.2837-.3623,0-.6348.1318-.8193.3955s-.2764.6909-.2764,1.2827v.1616c0,.5986.0908,1.0293.2734,1.291s.46.3926.833.3926Zm-.1455-6.3433l.7842-.7681h1.3271v.0591l-1.6221,1.5093h-.9834l-1.6221-1.52v-.0483h1.3271l.7891.7681Z"/>
    <path class="cls-11" d="m33.2668,86.925l.0479.6714c.416-.519.9727-.7788,1.6709-.7788.6152,0,1.0742.1807,1.375.5425s.4541.9023.4619,1.6221v3.7544h-1.5527v-3.7168c0-.3296-.0713-.5684-.2148-.7168-.1426-.1489-.3809-.2231-.7139-.2231-.4375,0-.7646.186-.9834.5586v4.0981h-1.5518v-5.8115h1.4609Z"/>
    <path class="cls-11" d="m39.674,92.7366h-1.5518v-5.8115h1.5518v5.8115Zm-.4561-8.1694h1.6914l-1.4873,1.665h-1.2627l1.0586-1.665Z"/>
    <path class="cls-11" d="m43.509,89.7878c0-.9058.2031-1.6274.6094-2.1646.4072-.5371.9629-.8057,1.668-.8057.5664,0,1.0332.2114,1.4023.6338v-2.9648h1.5576v8.25h-1.4023l-.0752-.6177c-.3867.4834-.8838.7251-1.4932.7251-.6836,0-1.2324-.2695-1.6465-.8086-.4131-.5386-.6201-1.2881-.6201-2.2476Zm1.5527.1157c0,.5449.0947.9629.2842,1.2534.1904.2905.4658.4355.8271.4355.4805,0,.8184-.2026,1.0156-.6079v-2.2969c-.1934-.4053-.5283-.6079-1.0049-.6079-.748,0-1.1221.6079-1.1221,1.8237Z"/>
    <path class="cls-11" d="m49.7073,89.7771c0-.5767.1113-1.0903.333-1.5415.2227-.4512.542-.8003.959-1.0474s.9014-.3706,1.4531-.3706c.7842,0,1.4238.2397,1.9199.7197s.7725,1.1313.8301,1.9551l.0107.3975c0,.8916-.249,1.6069-.7471,2.1455-.4971.5391-1.165.8086-2.0029.8086s-1.5068-.2686-2.0068-.8057c-.499-.5371-.749-1.2676-.749-2.1914v-.0698Zm1.5527.1104c0,.5522.1035.9746.3115,1.2666.207.2925.5049.4385.8916.4385.376,0,.6689-.1445.8809-.4331.2109-.2886.3164-.7505.3164-1.3853,0-.5415-.1055-.9609-.3164-1.2588-.2119-.2974-.5088-.4463-.8916-.4463-.3799,0-.6738.1479-.8809.4438-.208.2959-.3115.7539-.3115,1.3745Z"/>
    <path class="cls-11" d="m61.4006,89.8845c0,.895-.2031,1.6123-.6104,2.1509-.4062.5391-.9551.8086-1.6455.8086-.5879,0-1.0615-.2041-1.4238-.6123v2.7393h-1.5518v-8.0459h1.4395l.0537.5693c.376-.4512.8662-.6768,1.4717-.6768.7158,0,1.2725.2651,1.6699.7949s.5967,1.2603.5967,2.1914v.0806Zm-1.5527-.1128c0-.5405-.0957-.958-.2871-1.2515s-.4697-.4404-.835-.4404c-.4873,0-.8223.186-1.0049.5586v2.3794c.1904.3833.5283.5747,1.0156.5747.7412,0,1.1113-.6069,1.1113-1.8208Z"/>
    <path class="cls-11" d="m65.6272,88.3806c-.2109-.0288-.3975-.043-.5586-.043-.5869,0-.9717.1987-1.1543.5962v3.8027h-1.5527v-5.8115h1.4668l.043.6929c.3115-.5337.7432-.8003,1.2939-.8003.1719,0,.333.0234.4834.0698l-.0215,1.4932Z"/>
    <path class="cls-11" d="m69.5803,92.7366c-.0713-.1396-.123-.3135-.1553-.521-.376.4189-.8652.6284-1.4668.6284-.5693,0-1.041-.1646-1.415-.4941s-.5615-.7446-.5615-1.2461c0-.6157.2285-1.0884.6846-1.418.457-.3296,1.1172-.4961,1.9795-.4995h.7148v-.333c0-.2686-.0693-.4834-.207-.6445s-.3555-.2417-.6523-.2417c-.2617,0-.4668.0625-.6152.188s-.2227.2974-.2227.5156h-1.5527c0-.3364.1045-.6479.3115-.9346.208-.2866.502-.5112.8809-.6743.3799-.1626.8057-.2441,1.2783-.2441.7168,0,1.2852.1797,1.7051.54.4209.3594.6318.8652.6318,1.5171v2.519c.0029.5513.0801.9688.2305,1.2515v.0913h-1.5684Zm-1.2832-1.0796c.2285,0,.4404-.0513.6338-.1528.1934-.1025.3359-.2393.4297-.4111v-.999h-.5801c-.7773,0-1.1904.2686-1.2412.8057l-.0049.0913c0,.1934.0674.3525.2041.478.1357.1255.3223.188.5586.188Z"/>
    <path class="cls-11" d="m74.2053,90.8406l1.0791-3.9155h1.6221l-1.96,5.8115h-1.4824l-1.9609-5.8115h1.6221l1.0801,3.9155Z"/>
    <path class="cls-11" d="m80.8762,92.7366c-.0723-.1396-.124-.3135-.1562-.521-.376.4189-.8643.6284-1.4658.6284-.5693,0-1.041-.1646-1.415-.4941-.375-.3296-.5615-.7446-.5615-1.2461,0-.6157.2285-1.0884.6846-1.418.457-.3296,1.1162-.4961,1.9795-.4995h.7139v-.333c0-.2686-.0684-.4834-.2061-.6445-.1387-.1611-.3555-.2417-.6533-.2417-.2607,0-.4658.0625-.6143.188-.1494.1255-.2236.2974-.2236.5156h-1.5518c0-.3364.1035-.6479.3115-.9346.207-.2866.501-.5112.8809-.6743.3789-.1626.8057-.2441,1.2783-.2441.7158,0,1.2842.1797,1.7051.54.4209.3594.6309.8652.6309,1.5171v2.519c.0039.5513.0811.9688.2314,1.2515v.0913h-1.5684Zm-1.2842-1.0796c.2295,0,.4404-.0513.6338-.1528.1934-.1025.3369-.2393.4297-.4111v-.999h-.5801c-.7764,0-1.1904.2686-1.2402.8057l-.0059.0913c0,.1934.0684.3525.2041.478.1367.1255.3223.188.5586.188Z"/>
  </g>
  <g>
    <path class="cls-13" d="m362.925,149.3235h3.4214v1.2944h-5.0327v-7.8203h1.6113v6.5259Z"/>
    <path class="cls-13" d="m369.843,150.7253c-.8521,0-1.5459-.2612-2.0815-.7842-.5352-.5229-.8027-1.2192-.8027-2.0894v-.1504c0-.5835.1128-1.1055.3384-1.5659.2256-.46.5454-.8145.9585-1.0635.4141-.2485.8857-.373,1.4155-.373.7949,0,1.4204.2505,1.8774.752.4561.5015.6846,1.2119.6846,2.1323v.6338h-3.7007c.0503.3794.2017.6841.4536.9131.2529.229.5723.3438.959.3438.5981,0,1.0654-.2168,1.4019-.6499l.7627.854c-.2329.3296-.5479.5864-.9453.771-.3975.1841-.8379.2764-1.3213.2764Zm-.1772-4.7749c-.3081,0-.5576.1045-.749.313-.1919.2085-.3145.5073-.3682.8955h2.1592v-.124c-.0073-.3452-.1001-.6123-.2793-.8013s-.4331-.2832-.7627-.2832Z"/>
    <path class="cls-13" d="m374.9724,143.3777v1.4287h.9937v1.1387h-.9937v2.9004c0,.2148.041.3687.1235.4619s.2397.1396.4727.1396c.1719,0,.3242-.0127.4565-.0376v1.1763c-.3042.0933-.6177.1396-.9399.1396-1.0884,0-1.6436-.5498-1.665-1.6489v-3.1313h-.8486v-1.1387h.8486v-1.4287h1.5522Z"/>
    <path class="cls-13" d="m380.1985,150.6179c-.0718-.1396-.1235-.3135-.1558-.521-.376.4189-.8647.6284-1.4663.6284-.5693,0-1.041-.1646-1.415-.4941-.3745-.3296-.5615-.7446-.5615-1.2461,0-.6157.2285-1.0884.6846-1.418.457-.3296,1.1167-.4961,1.9795-.4995h.7144v-.333c0-.2686-.0688-.4834-.2065-.6445-.1382-.1611-.3555-.2417-.6528-.2417-.2612,0-.4663.0625-.6147.188-.1489.1255-.2231.2974-.2231.5156h-1.5522c0-.3364.104-.6479.3115-.9346s.5015-.5112.8809-.6743c.3794-.1626.8057-.2441,1.2783-.2441.7163,0,1.2847.1797,1.7051.54.4209.3594.6313.8652.6313,1.5171v2.519c.0034.5513.0806.9688.231,1.2515v.0913h-1.5684Zm-1.2837-1.0796c.229,0,.4404-.0513.6338-.1528.1934-.1025.3364-.2393.4297-.4111v-.999h-.5801c-.7769,0-1.1904.2686-1.2407.8057l-.0054.0913c0,.1934.0679.3525.2041.478s.3223.188.5586.188Z"/>
    <path class="cls-13" d="m382.4865,147.6692c0-.9058.2031-1.6274.6094-2.1646.4067-.5371.9624-.8057,1.668-.8057.5659,0,1.0332.2114,1.4019.6338v-2.9648h1.5576v8.25h-1.4019l-.0752-.6177c-.3867.4834-.8843.7251-1.4932.7251-.6841,0-1.2324-.2695-1.6465-.8086-.4131-.5386-.6201-1.2881-.6201-2.2476Zm1.5522.1157c0,.5449.0947.9629.2847,1.2534s.4653.4355.8271.4355c.48,0,.8184-.2026,1.0151-.6079v-2.2969c-.1934-.4053-.5283-.6079-1.0044-.6079-.7485,0-1.1226.6079-1.1226,1.8237Z"/>
    <path class="cls-13" d="m390.5647,150.6179h-1.5576v-8.25h1.5576v8.25Z"/>
    <path class="cls-13" d="m395.2107,150.6179c-.0718-.1396-.1235-.3135-.1558-.521-.376.4189-.8647.6284-1.4663.6284-.5693,0-1.041-.1646-1.415-.4941-.3745-.3296-.5615-.7446-.5615-1.2461,0-.6157.2285-1.0884.6846-1.418.457-.3296,1.1167-.4961,1.9795-.4995h.7144v-.333c0-.2686-.0688-.4834-.2065-.6445-.1382-.1611-.3555-.2417-.6528-.2417-.2612,0-.4663.0625-.6147.188-.1489.1255-.2231.2974-.2231.5156h-1.5522c0-.3364.104-.6479.3115-.9346s.5015-.5112.8809-.6743c.3794-.1626.8057-.2441,1.2783-.2441.7163,0,1.2847.1797,1.7051.54.4209.3594.6313.8652.6313,1.5171v2.519c.0034.5513.0806.9688.231,1.2515v.0913h-1.5684Zm-1.2837-1.0796c.229,0,.4404-.0513.6338-.1528.1934-.1025.3364-.2393.4297-.4111v-.999h-.5801c-.7769,0-1.1904.2686-1.2407.8057l-.0054.0913c0,.1934.0679.3525.2041.478s.3223.188.5586.188Z"/>
    <path class="cls-13" d="m405.6574,150.6179h-5.124v-.7144l2.707-3.0078c.4009-.4546.6777-.8247.8296-1.1089.1523-.2852.2285-.5796.2285-.8838,0-.4082-.1235-.7432-.3706-1.0044s-.5767-.3921-.9883-.3921c-.4941,0-.8784.1406-1.1519.4219-.2744.2808-.4111.6719-.4111,1.1733h-.9937c0-.7197.2319-1.3018.6958-1.7456.4634-.4438,1.084-.666,1.8608-.666.7271,0,1.3018.1904,1.7241.5723.4224.3809.6338.8887.6338,1.5225,0,.77-.4907,1.6865-1.4717,2.75l-2.0947,2.272h3.9263v.811Z"/>
    <path class="cls-13" d="m408.8244,144.3015c0-.4692.1494-.856.4487-1.1602.2988-.3042.6826-.4565,1.1519-.4565.4761,0,.8618.1528,1.1577.4595.2949.3057.4429.7026.4429,1.1895v.3813c0,.4727-.1494.8584-.4487,1.1577-.2988.2988-.6792.4482-1.1411.4482-.4653,0-.8506-.1494-1.1548-.4482-.3042-.2993-.4565-.6978-.4565-1.1953v-.376Zm.7412.4116c0,.2798.0786.5103.2363.6914.1577.1816.3687.272.6338.272.2544,0,.4595-.0879.6147-.2637.1562-.1758.2339-.4165.2339-.7217v-.3931c0-.2798-.0771-.5112-.231-.6943-.1538-.1826-.3633-.2744-.6284-.2744s-.4746.0918-.6284.2744c-.1538.1831-.231.4219-.231.7163v.3931Zm1.0957,5.314l-.564-.3545,3.8188-6.1123.564.3545-3.8188,6.1123Zm1.9712-1.3267c0-.4692.1494-.855.4482-1.1577.2993-.3022.6831-.4536,1.1523-.4536s.854.1504,1.1548.4512.4512.7002.4512,1.1978v.3813c0,.4692-.1494.855-.4487,1.1577-.2988.3022-.6812.4536-1.1465.4536s-.8506-.1494-1.1548-.4487c-.3042-.2988-.4565-.6973-.4565-1.1948v-.3867Zm.7412.417c0,.2832.0786.5156.2363.6968.1577.1816.3687.272.6338.272.2578,0,.4639-.0889.6177-.2666.1538-.1772.231-.4189.231-.7241v-.3984c0-.2832-.0781-.5146-.2334-.6943-.1562-.1792-.3647-.269-.626-.269-.2544,0-.4609.0889-.6201.2666-.1597.1777-.2393.417-.2393.7188v.3984Z"/>
  </g>
  <g>
    <path class="cls-12" d="m363.1614,166.2864h3.9424v1.2944h-5.9561v-.9453l3.8672-5.5698h-3.8623v-1.3052h5.8652v.9238l-3.8564,5.6021Zm.9727-7.8579l.7842-.7681h1.3262v.0591l-1.6221,1.5093h-.9824l-1.6221-1.52v-.0483h1.3262l.79.7681Z"/>
    <path class="cls-12" d="m370.6916,167.6882c-.8516,0-1.5459-.2612-2.0811-.7842s-.8027-1.2192-.8027-2.0894v-.1504c0-.5835.1123-1.1055.3379-1.5659.2256-.46.5459-.8145.959-1.0635.4141-.2485.8857-.373,1.415-.373.7949,0,1.4209.2505,1.8779.752.4561.5015.6846,1.2119.6846,2.1323v.6338h-3.7012c.0508.3794.2021.6841.4541.9131.2529.229.5723.3438.959.3438.5977,0,1.0654-.2168,1.4014-.6499l.7627.854c-.2324.3296-.5479.5864-.9453.771-.3975.1841-.8379.2764-1.3213.2764Zm-.1768-4.7749c-.3086,0-.5576.1045-.749.313-.1924.2085-.3145.5073-.3682.8955h2.1592v-.124c-.0078-.3452-.1006-.6123-.2793-.8013-.1797-.189-.4336-.2832-.7627-.2832Z"/>
    <path class="cls-12" d="m375.6008,167.5808h-1.5576v-8.25h1.5576v8.25Z"/>
    <path class="cls-12" d="m379.5539,167.6882c-.8516,0-1.5459-.2612-2.0811-.7842s-.8027-1.2192-.8027-2.0894v-.1504c0-.5835.1123-1.1055.3379-1.5659.2256-.46.5459-.8145.959-1.0635.4141-.2485.8857-.373,1.415-.373.7949,0,1.4209.2505,1.8779.752.4561.5015.6846,1.2119.6846,2.1323v.6338h-3.7012c.0508.3794.2021.6841.4541.9131.2529.229.5723.3438.959.3438.5977,0,1.0654-.2168,1.4014-.6499l.7627.854c-.2324.3296-.5479.5864-.9453.771-.3975.1841-.8379.2764-1.3213.2764Zm-.1768-4.7749c-.3086,0-.5576.1045-.749.313-.1924.2085-.3145.5073-.3682.8955h2.1592v-.124c-.0078-.3452-.1006-.6123-.2793-.8013-.1797-.189-.4336-.2832-.7627-.2832Z"/>
    <path class="cls-12" d="m384.6086,166.3293h2.8408v1.2515h-4.8232v-.9453l2.7344-3.6147h-2.6533v-1.2515h4.6562v.9146l-2.7549,3.6455Z"/>
    <path class="cls-12" d="m389.8508,161.7693l.0479.6714c.416-.519.9727-.7788,1.6709-.7788.6152,0,1.0742.1807,1.375.5425s.4541.9023.4619,1.6221v3.7544h-1.5527v-3.7168c0-.3296-.0713-.5684-.2148-.7168-.1426-.1489-.3809-.2231-.7139-.2231-.4375,0-.7646.186-.9834.5586v4.0981h-1.5518v-5.8115h1.4609Z"/>
    <path class="cls-12" d="m394.5715,160.2654c0-.2329.0781-.4243.2344-.5747.1553-.1504.3672-.2256.6357-.2256.2656,0,.4766.0752.6338.2256.1582.1504.2363.3418.2363.5747,0,.2363-.0791.4297-.2383.5801-.1602.1504-.3701.2256-.6318.2256-.2607,0-.4717-.0752-.6309-.2256s-.2393-.3438-.2393-.5801Zm1.6494,7.3154h-1.5576v-5.8115h1.5576v5.8115Z"/>
    <path class="cls-12" d="m399.9162,166.4367c.2861,0,.5186-.0786.6982-.2363.1787-.1577.2715-.3672.2793-.6284h1.4551c-.0029.394-.1104.7549-.3223,1.082-.2109.3281-.5.582-.8672.7627-.3672.1812-.7725.2715-1.2168.2715-.8301,0-1.4854-.2642-1.9658-.792-.4795-.5283-.7197-1.2578-.7197-2.189v-.1021c0-.895.2383-1.6094.7148-2.1431.4756-.5337,1.1299-.8003,1.96-.8003.7275,0,1.3096.207,1.748.6201.4395.4141.6621.9644.6689,1.6519h-1.4551c-.0078-.3022-.1006-.5479-.2793-.7368-.1797-.189-.416-.2837-.709-.2837-.3623,0-.6348.1318-.8193.3955s-.2764.6909-.2764,1.2827v.1616c0,.5986.0908,1.0293.2734,1.291s.46.3926.833.3926Z"/>
    <path class="cls-12" d="m405.9104,167.6882c-.8525,0-1.5459-.2612-2.082-.7842-.5352-.5229-.8027-1.2192-.8027-2.0894v-.1504c0-.5835.1133-1.1055.3389-1.5659.2256-.46.5449-.8145.958-1.0635.4141-.2485.8857-.373,1.416-.373.7949,0,1.4199.2505,1.877.752.4561.5015.6846,1.2119.6846,2.1323v.6338h-3.7002c.0498.3794.2012.6841.4531.9131.2529.229.5723.3438.959.3438.5986,0,1.0654-.2168,1.4023-.6499l.7627.854c-.2334.3296-.5479.5864-.9453.771-.3975.1841-.8379.2764-1.3213.2764Zm-.1777-4.7749c-.3076,0-.5576.1045-.749.313s-.3145.5073-.3682.8955h2.1592v-.124c-.0068-.3452-.0996-.6123-.2793-.8013-.1787-.189-.4326-.2832-.7627-.2832Z"/>
    <path class="cls-12" d="m415.2395,167.5808h-.999v-6.6226l-2.0029.7358v-.9023l2.8467-1.0688h.1553v7.8579Z"/>
    <path class="cls-12" d="m420.2649,161.2644c0-.4692.1494-.856.4492-1.1602.2988-.3042.6826-.4565,1.1514-.4565.4766,0,.8623.1528,1.1582.4595.2949.3057.4424.7026.4424,1.1895v.3813c0,.4727-.1494.8584-.4482,1.1577-.2988.2988-.6797.4482-1.1416.4482-.4648,0-.8506-.1494-1.1543-.4482-.3047-.2993-.457-.6978-.457-1.1953v-.376Zm.7412.4116c0,.2798.0791.5103.2363.6914.1582.1816.3691.272.6338.272.2549,0,.46-.0879.6152-.2637.1562-.1758.2334-.4165.2334-.7217v-.3931c0-.2798-.0771-.5112-.2305-.6943-.1543-.1826-.3633-.2744-.6289-.2744-.2646,0-.4746.0918-.6279.2744-.1543.1831-.2314.4219-.2314.7163v.3931Zm1.0957,5.314l-.5635-.3545,3.8184-6.1123.5645.3545-3.8193,6.1123Zm1.9717-1.3267c0-.4692.1494-.855.4482-1.1577.2988-.3022.6826-.4536,1.1523-.4536.4688,0,.8535.1504,1.1543.4512s.4512.7002.4512,1.1978v.3813c0,.4692-.1494.855-.4482,1.1577-.2988.3022-.6816.4536-1.1465.4536-.4658,0-.8506-.1494-1.1553-.4487-.3037-.2988-.4561-.6973-.4561-1.1948v-.3867Zm.7412.417c0,.2832.0781.5156.2363.6968.1572.1816.3682.272.6338.272.2578,0,.4639-.0889.6172-.2666.1543-.1772.2314-.4189.2314-.7241v-.3984c0-.2832-.0781-.5146-.2334-.6943-.1562-.1792-.3652-.269-.626-.269-.2549,0-.4609.0889-.6201.2666-.1602.1777-.2393.417-.2393.7188v.3984Z"/>
  </g>
  <g>
    <path class="cls-11" d="m6.2014,147.573h-2.3115l-.4395,1.3184h-1.4023l2.3818-6.3984h1.2217l2.3955,6.3984h-1.4023l-.4434-1.3184Zm-1.9561-1.0679h1.5996l-.8037-2.395-.7959,2.395Z"/>
    <path class="cls-11" d="m11.3606,148.4079c-.3135.3809-.7471.5713-1.3008.5713-.5098,0-.8994-.1465-1.167-.4395-.2686-.293-.4053-.7222-.4111-1.2876v-3.1157h1.2705v3.0752c0,.4956.2256.7437.6768.7437.4307,0,.7266-.1494.8877-.4487v-3.3701h1.2744v4.7549h-1.1953l-.0352-.4834Z"/>
    <path class="cls-11" d="m15.0696,142.9675v1.1689h.8125v.9316h-.8125v2.373c0,.1758.0332.3018.1006.3779s.1963.1143.3867.1143c.1406,0,.2656-.0103.374-.0308v.9624c-.249.0762-.5059.1143-.7695.1143-.8906,0-1.3447-.4497-1.3623-1.3491v-2.562h-.6943v-.9316h.6943v-1.1689h1.2705Z"/>
    <path class="cls-11" d="m16.26,146.47c0-.4717.0908-.8921.2725-1.2612s.4434-.6548.7842-.8569c.3418-.2021.7383-.3032,1.1895-.3032.6416,0,1.165.1963,1.5703.5889.4062.3926.6328.9258.6797,1.5996l.0088.3252c0,.7295-.2041,1.3149-.6113,1.7559s-.9531.6611-1.6387.6611-1.2334-.2197-1.6416-.6592c-.4092-.4395-.6133-1.0371-.6133-1.793v-.0571Zm1.2705.0903c0,.4517.085.7974.2549,1.0361.1699.2393.4131.3589.7295.3589.3076,0,.5479-.1182.7207-.3545.1729-.2358.2588-.6138.2588-1.1333,0-.4429-.0859-.7861-.2588-1.0298s-.416-.3652-.7295-.3652c-.3105,0-.5508.1211-.7207.3633-.1699.2417-.2549.6167-.2549,1.1245Z"/>
    <path class="cls-11" d="m22.7375,144.1365l.04.5317c.3369-.4131.792-.6196,1.3662-.6196.6123,0,1.0332.2417,1.2617.7251.334-.4834.8096-.7251,1.4277-.7251.5156,0,.8994.1504,1.1514.4502.252.3008.3779.7524.3779,1.356v3.0366h-1.2744v-3.0322c0-.2695-.0527-.4663-.1582-.5908s-.291-.187-.5576-.187c-.3809,0-.6445.1816-.791.5449l.0039,3.2651h-1.2695v-3.0278c0-.2754-.0547-.4746-.1631-.5977s-.293-.1846-.5537-.1846c-.3604,0-.6211.1494-.7822.4482v3.3618h-1.2695v-4.7549h1.1904Z"/>
    <path class="cls-11" d="m29.1408,146.47c0-.4717.0908-.8921.2725-1.2612s.4424-.6548.7842-.8569c.3408-.2021.7373-.3032,1.1885-.3032.6416,0,1.165.1963,1.5713.5889.4053.3926.6318.9258.6787,1.5996l.0088.3252c0,.7295-.2031,1.3149-.6104,1.7559s-.9541.6611-1.6396.6611-1.2324-.2197-1.6406-.6592c-.4092-.4395-.6133-1.0371-.6133-1.793v-.0571Zm1.2695.0903c0,.4517.085.7974.2549,1.0361.1699.2393.4131.3589.7295.3589.3076,0,.5479-.1182.7207-.3545.1729-.2358.2598-.6138.2598-1.1333,0-.4429-.0869-.7861-.2598-1.0298s-.416-.3652-.7295-.3652c-.3105,0-.5508.1211-.7207.3633-.1699.2417-.2549.6167-.2549,1.1245Z"/>
    <path class="cls-11" d="m38.7121,146.5578c0,.7617-.1631,1.356-.4883,1.7817-.3252.4268-.7793.6396-1.3623.6396-.5156,0-.9268-.1978-1.2344-.5933l-.0576.5054h-1.1426v-6.75h1.2705v2.4214c.293-.3428.6777-.5142,1.1553-.5142.5801,0,1.0352.2129,1.3652.6396.3291.4258.4941,1.0259.4941,1.7993v.0703Zm-1.2705-.0923c0-.4805-.0762-.8311-.2285-1.0527-.1523-.2207-.3789-.3315-.6807-.3315-.4043,0-.6826.1655-.835.4966v1.8765c.1553.334.4365.501.8438.501.4102,0,.6797-.2021.8086-.6064.0615-.1934.0918-.4878.0918-.8833Z"/>
    <path class="cls-11" d="m39.4856,142.906c0-.1904.0635-.3472.1904-.4702.1279-.123.3018-.1846.5215-.1846.2168,0,.3896.0615.5186.1846s.1934.2798.1934.4702c0,.1934-.0654.3516-.1963.4746-.1299.123-.3018.1846-.5156.1846s-.3867-.0615-.5166-.1846c-.1309-.123-.1953-.2812-.1953-.4746Zm1.3486,5.9854h-1.2744v-4.7549h1.2744v4.7549Z"/>
    <path class="cls-11" d="m43.2209,148.8913h-1.2744v-6.75h1.2744v6.75Z"/>
    <path class="cls-11" d="m46.0422,147.094l.8789-2.9575h1.3623l-1.9121,5.4932-.1055.2505c-.2842.6211-.7529.9316-1.4062.9316-.1846,0-.3721-.0278-.5625-.0835v-.9624l.1934.0044c.2402,0,.4199-.0366.5381-.1099.1191-.0732.2119-.1948.2793-.3647l.1494-.3911-1.665-4.7681h1.3662l.8838,2.9575Z"/>
    <path class="cls-11" d="m51.4426,145.6833l.3252-3.1904h3.2783v.7515h-2.5879l-.1934,1.7446c.3135-.1846.6689-.2769,1.0674-.2769.583,0,1.0459.1929,1.3887.5776.3428.3857.5146.9062.5146,1.5625,0,.6592-.1787,1.1787-.5342,1.5576-.3564.3799-.8535.5693-1.4922.5693-.5654,0-1.0264-.1567-1.3838-.4702s-.5615-.7471-.6113-1.3008h.7695c.0498.3662.1797.6426.3906.8286s.4893.2788.835.2788c.3779,0,.6748-.1289.8896-.3867.2158-.2578.3232-.6138.3232-1.0679,0-.4277-.1162-.7715-.3496-1.0303-.2324-.2598-.542-.3892-.9287-.3892-.3545,0-.6328.0776-.835.2329l-.2158.1758-.6504-.167Z"/>
    <path class="cls-11" d="m60.0032,144.1628c0,.3193-.084.6035-.2529.8525-.168.249-.3955.4438-.6826.5845.334.1436.5977.353.793.6284.1943.2754.292.5874.292.936,0,.5537-.1865.9946-.5605,1.3228-.373.3281-.8643.4922-1.4736.4922-.6152,0-1.1084-.165-1.4795-.4941-.3701-.3301-.5557-.77-.5557-1.3208,0-.3457.0947-.6577.2832-.936.1895-.2783.4512-.4893.7852-.6328-.2842-.1406-.5088-.3354-.6729-.5845s-.2461-.5317-.2461-.8481c0-.5391.1729-.9668.5186-1.2832s.8018-.4746,1.3672-.4746c.5625,0,1.0166.1582,1.3643.4746.3467.3164.5205.7441.5205,1.2832Zm-.6631,2.9839c0-.3574-.1143-.6489-.3408-.8745-.2275-.2256-.5234-.3384-.8896-.3384s-.6602.1113-.8818.334c-.2207.2227-.3311.5156-.3311.8789s.1074.6489.3223.8569c.2158.208.5156.312.8994.312.3809,0,.6797-.1045.8965-.314s.3252-.4946.3252-.855Zm-1.2217-4.0737c-.3193,0-.5781.0986-.7764.2969-.1973.1973-.2959.4663-.2959.8062,0,.3252.0967.5884.292.7886.1943.2012.4551.3013.7803.3013s.585-.1001.7793-.3013c.1953-.2002.293-.4634.293-.7886s-.1016-.5903-.3037-.7954-.458-.3076-.7686-.3076Z"/>
    <path class="cls-11" d="m62.9065,143.7234c0-.3838.1221-.7002.3662-.9492.2451-.249.5596-.3735.9434-.3735.3896,0,.7051.1255.9463.3755.2422.251.3633.5752.3633.9736v.312c0,.3867-.123.7026-.3672.9468-.2451.2451-.5557.3672-.9336.3672-.3809,0-.6963-.1221-.9453-.3672-.249-.2441-.373-.5703-.373-.9775v-.3076Zm.6064.3364c0,.229.0645.418.1934.5664.1289.1479.3018.2222.5186.2222.208,0,.375-.0718.5029-.2158.127-.144.1914-.3403.1914-.5903v-.3213c0-.229-.0635-.4185-.1895-.5684s-.2969-.2246-.5137-.2246-.3887.0747-.5146.2246-.1885.3452-.1885.5859v.3213Zm.8965,4.3481l-.4619-.29,3.125-5.001.4609.29-3.124,5.001Zm1.6123-1.0854c0-.3838.1221-.6992.3672-.9468.2441-.2476.5586-.3716.9424-.3716s.6992.123.9453.3691.3691.5728.3691.98v.312c0,.3838-.123.6997-.3672.9468-.2451.248-.5576.3716-.9385.3716s-.6953-.1221-.9443-.3667-.374-.5708-.374-.978v-.3164Zm.6064.3408c0,.2319.0645.4224.1934.5708.1289.1479.3018.2222.5186.2222.2109,0,.3799-.0728.5059-.2178.126-.1455.1885-.3428.1885-.5928v-.3257c0-.2319-.0635-.4214-.1914-.5684-.127-.147-.2979-.2202-.5117-.2202-.208,0-.377.0728-.5078.2178-.1299.1455-.1953.3418-.1953.5884v.3257Z"/>
  </g>
  <g>
    <path class="cls-11" d="m6.9114,170.2429h-1.96v5.3306h-1.3184v-5.3306h-1.9336v-1.0679h5.2119v1.0679Z"/>
    <path class="cls-11" d="m9.7678,175.6614c-.6973,0-1.2656-.2139-1.7031-.6416-.4385-.4277-.6572-.9976-.6572-1.7095v-.123c0-.4775.0928-.9043.2773-1.2808s.4453-.6665.7842-.8701c.3379-.2036.7246-.3057,1.1582-.3057.6504,0,1.1621.2051,1.5352.6152.374.4102.5605.9917.5605,1.7446v.5186h-3.0273c.041.3105.1641.5596.3711.7471.2061.1875.4678.2812.7842.2812.4893,0,.8721-.1772,1.1475-.5317l.624.6987c-.1904.2695-.4482.48-.7734.6304-.3252.1509-.6855.2266-1.0811.2266Zm-.2861-6.2139l.6416-.6284h1.0859v.0483l-1.3271,1.2349h-.8047l-1.3271-1.2437v-.0396h1.0859l.6455.6284Zm.1406,2.3071c-.252,0-.4561.0854-.6133.2559-.1562.1709-.2568.415-.3008.7329h1.7666v-.1016c-.0059-.2827-.082-.501-.2285-.6553-.1465-.1548-.3545-.2319-.624-.2319Z"/>
    <path class="cls-11" d="m13.9026,174.5495h2.3252v1.0239h-3.9463v-.7734l2.2363-2.9575h-2.1709v-1.0239h3.8105v.748l-2.2549,2.9829Zm.3477-5.1021l.6416-.6284h1.085v.0483l-1.3271,1.2349h-.8037l-1.3271-1.2437v-.0396h1.085l.6465.6284Z"/>
    <path class="cls-11" d="m18.7502,173.6662l-.457.457v1.4502h-1.2705v-6.75h1.2705v3.7397l.2461-.3164,1.2168-1.4282h1.5254l-1.7188,1.9819,1.8682,2.7729h-1.459l-1.2217-1.9072Z"/>
    <path class="cls-11" d="m24.0188,175.6614c-.6973,0-1.2646-.2139-1.7021-.6416-.4385-.4277-.6572-.9976-.6572-1.7095v-.123c0-.4775.0918-.9043.2764-1.2808s.4463-.6665.7852-.8701c.3379-.2036.7236-.3057,1.1572-.3057.6504,0,1.1631.2051,1.5361.6152.374.4102.5605.9917.5605,1.7446v.5186h-3.0283c.041.3105.165.5596.3721.7471.2061.1875.4678.2812.7842.2812.4893,0,.8711-.1772,1.1465-.5317l.624.6987c-.1904.2695-.4482.48-.7734.6304-.3252.1509-.6855.2266-1.0811.2266Zm-.1445-3.9067c-.252,0-.457.0854-.6133.2559-.1572.1709-.2568.415-.3008.7329h1.7666v-.1016c-.0059-.2827-.082-.501-.2285-.6553-.1465-.1548-.3545-.2319-.624-.2319Zm.1143-2.9312h1.3838l-1.2168,1.3623h-1.0332l.8662-1.3623Z"/>
    <path class="cls-11" d="m30.1057,170.8186l.0391.5493c.3398-.4248.7959-.6372,1.3672-.6372.5039,0,.8789.1479,1.125.4438s.3721.7383.3779,1.3271v3.0718h-1.2705v-3.041c0-.2695-.0586-.4648-.1758-.5869-.1172-.1211-.3115-.1821-.584-.1821-.3574,0-.626.1523-.8047.457v3.353h-1.2695v-4.7549h1.1953Z"/>
    <path class="cls-11" d="m36.7326,175.5735c-.0586-.1143-.1016-.2563-.1279-.4263-.3076.3428-.707.5142-1.1992.5142-.4658,0-.8525-.1348-1.1582-.4043-.3066-.2695-.459-.6094-.459-1.0195,0-.5039.1865-.8906.5605-1.1602.373-.2695.9131-.4058,1.6191-.4087h.584v-.2725c0-.2197-.0566-.3955-.1689-.5273-.1133-.1318-.291-.1978-.5342-.1978-.2139,0-.3818.0513-.5029.1538-.1221.1025-.1826.2432-.1826.4219h-1.2695c0-.2754.085-.5303.2549-.7646s.4102-.418.7207-.5513.6592-.2002,1.0459-.2002c.5859,0,1.0508.1475,1.3955.4414.3438.2949.5156.7085.5156,1.2417v2.061c.0029.4512.0664.7925.1895,1.0239v.0747h-1.2832Zm-1.0508-.8833c.1875,0,.3604-.0415.5186-.1255.1582-.083.2754-.1953.3516-.3359v-.8174h-.4746c-.6357,0-.9736.2197-1.0146.6592l-.0049.0747c0,.1582.0557.2886.167.3911s.2637.1538.457.1538Zm.4834-5.8667h1.3848l-1.2178,1.3623h-1.0322l.8652-1.3623Z"/>
    <path class="cls-11" d="m40.5295,173.6662l-.457.457v1.4502h-1.2705v-6.75h1.2705v3.7397l.2461-.3164,1.2168-1.4282h1.5254l-1.7188,1.9819,1.8682,2.7729h-1.459l-1.2217-1.9072Z"/>
    <path class="cls-11" d="m44.9504,175.5735h-1.2744v-6.75h1.2744v6.75Z"/>
    <path class="cls-11" d="m48.7512,175.5735c-.0586-.1143-.1006-.2563-.127-.4263-.3076.3428-.708.5142-1.2002.5142-.4658,0-.8516-.1348-1.1582-.4043-.3057-.2695-.459-.6094-.459-1.0195,0-.5039.1865-.8906.5605-1.1602.373-.2695.9131-.4058,1.6191-.4087h.585v-.2725c0-.2197-.0566-.3955-.1699-.5273-.1123-.1318-.29-.1978-.5332-.1978-.2139,0-.3818.0513-.5039.1538-.1211.1025-.1816.2432-.1816.4219h-1.2705c0-.2754.085-.5303.2549-.7646s.4102-.418.7207-.5513.6592-.2002,1.0459-.2002c.5859,0,1.0508.1475,1.3955.4414.3438.2949.5166.7085.5166,1.2417v2.061c.0029.4512.0654.7925.1885,1.0239v.0747h-1.2832Zm-1.0498-.8833c.1875,0,.3604-.0415.5186-.1255.1582-.083.2754-.1953.3516-.3359v-.8174h-.4746c-.6357,0-.9746.2197-1.0156.6592l-.0039.0747c0,.1582.0557.2886.167.3911s.2637.1538.457.1538Z"/>
    <path class="cls-11" d="m50.6233,173.1609c0-.7412.166-1.3315.499-1.771.332-.4395.7871-.6592,1.3643-.6592.4629,0,.8457.1729,1.1475.5186v-2.4258h1.2744v6.75h-1.1475l-.0615-.5054c-.3164.3955-.7236.5933-1.2217.5933-.5596,0-1.0088-.2202-1.3467-.6611-.3389-.4409-.5078-1.0542-.5078-1.8394Zm1.2705.0947c0,.4458.0771.7876.2324,1.0254s.3809.3564.6768.3564c.3926,0,.6699-.1655.8311-.4976v-1.8789c-.1582-.3315-.4326-.4976-.8223-.4976-.6123,0-.918.4976-.918,1.4922Z"/>
    <path class="cls-11" d="m57.0617,170.8186l.0391.5493c.3398-.4248.7959-.6372,1.3672-.6372.5039,0,.8789.1479,1.125.4438s.3721.7383.3779,1.3271v3.0718h-1.2705v-3.041c0-.2695-.0586-.4648-.1758-.5869-.1172-.1211-.3115-.1821-.584-.1821-.3574,0-.626.1523-.8047.457v3.353h-1.2695v-4.7549h1.1953Z"/>
    <path class="cls-11" d="m63.1213,175.6614c-.6973,0-1.2646-.2139-1.7021-.6416-.4385-.4277-.6572-.9976-.6572-1.7095v-.123c0-.4775.0918-.9043.2764-1.2808s.4463-.6665.7852-.8701c.3379-.2036.7236-.3057,1.1572-.3057.6504,0,1.1631.2051,1.5361.6152.374.4102.5605.9917.5605,1.7446v.5186h-3.0283c.041.3105.165.5596.3721.7471.2061.1875.4678.2812.7842.2812.4893,0,.8711-.1772,1.1465-.5317l.624.6987c-.1904.2695-.4482.48-.7734.6304-.3252.1509-.6855.2266-1.0811.2266Zm-.1445-3.9067c-.252,0-.457.0854-.6133.2559-.1572.1709-.2568.415-.3008.7329h1.7666v-.1016c-.0059-.2827-.082-.501-.2285-.6553-.1465-.1548-.3545-.2319-.624-.2319Zm.1143-2.9312h1.3838l-1.2168,1.3623h-1.0332l.8662-1.3623Z"/>
    <path class="cls-11" d="m70.7942,175.5735c-.0586-.1143-.1006-.2563-.127-.4263-.3076.3428-.708.5142-1.2002.5142-.4658,0-.8516-.1348-1.1582-.4043-.3057-.2695-.459-.6094-.459-1.0195,0-.5039.1865-.8906.5605-1.1602.373-.2695.9131-.4058,1.6191-.4087h.585v-.2725c0-.2197-.0566-.3955-.1699-.5273-.1123-.1318-.29-.1978-.5332-.1978-.2139,0-.3818.0513-.5039.1538-.1211.1025-.1816.2432-.1816.4219h-1.2705c0-.2754.085-.5303.2549-.7646s.4102-.418.7207-.5513.6592-.2002,1.0459-.2002c.5859,0,1.0508.1475,1.3955.4414.3438.2949.5166.7085.5166,1.2417v2.061c.0029.4512.0654.7925.1885,1.0239v.0747h-1.2832Zm-1.0498-.8833c.1875,0,.3604-.0415.5186-.1255.1582-.083.2754-.1953.3516-.3359v-.8174h-.4746c-.6357,0-.9746.2197-1.0156.6592l-.0039.0747c0,.1582.0557.2886.167.3911s.2637.1538.457.1538Z"/>
    <path class="cls-11" d="m75.7121,175.0901c-.3135.3809-.7471.5713-1.3008.5713-.5098,0-.8994-.1465-1.167-.4395-.2686-.293-.4053-.7222-.4111-1.2876v-3.1157h1.2705v3.0752c0,.4956.2256.7437.6768.7437.4307,0,.7266-.1494.8877-.4487v-3.3701h1.2744v4.7549h-1.1953l-.0352-.4834Z"/>
    <path class="cls-11" d="m79.4211,169.6496v1.1689h.8125v.9316h-.8125v2.373c0,.1758.0332.3018.1006.3779s.1963.1143.3867.1143c.1406,0,.2656-.0103.374-.0308v.9624c-.249.0762-.5059.1143-.7695.1143-.8906,0-1.3447-.4497-1.3623-1.3491v-2.562h-.6943v-.9316h.6943v-1.1689h1.2705Z"/>
    <path class="cls-11" d="m83.6965,175.5735c-.0586-.1143-.1006-.2563-.127-.4263-.3076.3428-.708.5142-1.2002.5142-.4658,0-.8516-.1348-1.1582-.4043-.3057-.2695-.459-.6094-.459-1.0195,0-.5039.1865-.8906.5605-1.1602.373-.2695.9131-.4058,1.6191-.4087h.585v-.2725c0-.2197-.0566-.3955-.1699-.5273-.1123-.1318-.29-.1978-.5332-.1978-.2139,0-.3818.0513-.5039.1538-.1211.1025-.1816.2432-.1816.4219h-1.2705c0-.2754.085-.5303.2549-.7646s.4102-.418.7207-.5513.6592-.2002,1.0459-.2002c.5859,0,1.0508.1475,1.3955.4414.3438.2949.5166.7085.5166,1.2417v2.061c.0029.4512.0654.7925.1885,1.0239v.0747h-1.2832Zm-1.0498-.8833c.1875,0,.3604-.0415.5186-.1255.1582-.083.2754-.1953.3516-.3359v-.8174h-.4746c-.6357,0-.9746.2197-1.0156.6592l-.0039.0747c0,.1582.0557.2886.167.3911s.2637.1538.457.1538Z"/>
    <path class="cls-11" d="m90.7629,175.5735c-.0586-.1143-.1006-.2563-.127-.4263-.3076.3428-.708.5142-1.2002.5142-.4658,0-.8516-.1348-1.1582-.4043-.3057-.2695-.459-.6094-.459-1.0195,0-.5039.1865-.8906.5605-1.1602.373-.2695.9131-.4058,1.6191-.4087h.585v-.2725c0-.2197-.0566-.3955-.1699-.5273-.1123-.1318-.29-.1978-.5332-.1978-.2139,0-.3818.0513-.5039.1538-.1211.1025-.1816.2432-.1816.4219h-1.2705c0-.2754.085-.5303.2549-.7646s.4102-.418.7207-.5513.6592-.2002,1.0459-.2002c.5859,0,1.0508.1475,1.3955.4414.3438.2949.5166.7085.5166,1.2417v2.061c.0029.4512.0654.7925.1885,1.0239v.0747h-1.2832Zm-1.0498-.8833c.1875,0,.3604-.0415.5186-.1255.1582-.083.2754-.1953.3516-.3359v-.8174h-.4746c-.6357,0-.9746.2197-1.0156.6592l-.0039.0747c0,.1582.0557.2886.167.3911s.2637.1538.457.1538Z"/>
    <path class="cls-11" d="m97.8293,175.5735c-.0586-.1143-.1006-.2563-.127-.4263-.3076.3428-.708.5142-1.2002.5142-.4658,0-.8516-.1348-1.1582-.4043-.3057-.2695-.459-.6094-.459-1.0195,0-.5039.1865-.8906.5605-1.1602.373-.2695.9131-.4058,1.6191-.4087h.585v-.2725c0-.2197-.0566-.3955-.1699-.5273-.1123-.1318-.29-.1978-.5332-.1978-.2139,0-.3818.0513-.5039.1538-.1211.1025-.1816.2432-.1816.4219h-1.2705c0-.2754.085-.5303.2549-.7646s.4102-.418.7207-.5513.6592-.2002,1.0459-.2002c.5859,0,1.0508.1475,1.3955.4414.3438.2949.5166.7085.5166,1.2417v2.061c.0029.4512.0654.7925.1885,1.0239v.0747h-1.2832Zm-1.0498-.8833c.1875,0,.3604-.0415.5186-.1255.1582-.083.2754-.1953.3516-.3359v-.8174h-.4746c-.6357,0-.9746.2197-1.0156.6592l-.0039.0747c0,.1582.0557.2886.167.3911s.2637.1538.457.1538Z"/>
    <path class="cls-11" d="m102.7473,175.0901c-.3135.3809-.7471.5713-1.3008.5713-.5098,0-.8994-.1465-1.167-.4395-.2686-.293-.4053-.7222-.4111-1.2876v-3.1157h1.2705v3.0752c0,.4956.2256.7437.6768.7437.4307,0,.7266-.1494.8877-.4487v-3.3701h1.2744v4.7549h-1.1953l-.0352-.4834Z"/>
    <path class="cls-11" d="m106.4563,169.6496v1.1689h.8125v.9316h-.8125v2.373c0,.1758.0332.3018.1006.3779s.1963.1143.3867.1143c.1406,0,.2656-.0103.374-.0308v.9624c-.249.0762-.5059.1143-.7695.1143-.8906,0-1.3447-.4497-1.3623-1.3491v-2.562h-.6943v-.9316h.6943v-1.1689h1.2705Z"/>
    <path class="cls-11" d="m107.6467,173.1521c0-.4717.0908-.8921.2725-1.2612s.4434-.6548.7842-.8569c.3418-.2021.7383-.3032,1.1895-.3032.6416,0,1.165.1963,1.5703.5889.4062.3926.6328.9258.6797,1.5996l.0088.3252c0,.7295-.2041,1.3149-.6113,1.7559s-.9531.6611-1.6387.6611-1.2334-.2197-1.6416-.6592c-.4092-.4395-.6133-1.0371-.6133-1.793v-.0571Zm1.2705.0903c0,.4517.085.7974.2549,1.0361.1699.2393.4131.3589.7295.3589.3076,0,.5479-.1182.7207-.3545.1729-.2358.2588-.6138.2588-1.1333,0-.4429-.0859-.7861-.2588-1.0298s-.416-.3652-.7295-.3652c-.3105,0-.5508.1211-.7207.3633-.1699.2417-.2549.6167-.2549,1.1245Z"/>
    <path class="cls-11" d="m117.218,173.24c0,.7617-.1621,1.356-.4873,1.7817-.3252.4268-.7793.6396-1.3623.6396-.5156,0-.9277-.1978-1.2354-.5933l-.0566.5054h-1.1426v-6.75h1.2695v2.4214c.293-.3428.6787-.5142,1.1562-.5142.5801,0,1.0342.2129,1.3643.6396.3291.4258.4941,1.0259.4941,1.7993v.0703Zm-1.2695-.0923c0-.4805-.0762-.8311-.2285-1.0527-.1523-.2207-.3799-.3315-.6816-.3315-.4043,0-.6826.1655-.835.4966v1.8765c.1553.334.4365.501.8438.501.4102,0,.6797-.2021.8086-.6064.0615-.1934.0928-.4878.0928-.8833Z"/>
    <path class="cls-11" d="m120.8479,175.0901c-.3135.3809-.7471.5713-1.3008.5713-.5098,0-.8984-.1465-1.166-.4395-.2686-.293-.4053-.7222-.4111-1.2876v-3.1157h1.2695v3.0752c0,.4956.2256.7437.6768.7437.4307,0,.7266-.1494.8877-.4487v-3.3701h1.2744v4.7549h-1.1953l-.0352-.4834Z"/>
    <path class="cls-11" d="m125.6115,174.2595c0-.1553-.0762-.2773-.2305-.3667-.1533-.0894-.4004-.1694-.7402-.2397-1.1309-.2373-1.6963-.7178-1.6963-1.4414,0-.4219.1748-.7739.5254-1.0571.3496-.2822.8076-.4238,1.373-.4238.6035,0,1.0859.1421,1.4482.4263.3613.2842.542.6533.542,1.1074h-1.2695c0-.1816-.0586-.3315-.1758-.4507-.1172-.1182-.3008-.1777-.5498-.1777-.2139,0-.3789.0483-.4961.145s-.1758.2197-.1758.3691c0,.1406.0664.2544.2002.3403.1328.0869.3574.1616.6738.2246s.583.1338.7998.2129c.6709.2461,1.0068.6724,1.0068,1.2788,0,.4336-.1865.7847-.5586,1.0522-.3721.2686-.8525.4023-1.4414.4023-.3984,0-.752-.0713-1.0605-.2129-.3096-.1421-.5518-.3369-.7275-.585-.1758-.2471-.2637-.5146-.2637-.8018h1.2041c.0117.2256.0947.3984.25.5186s.3633.1802.624.1802c.2432,0,.4268-.0464.5518-.1382.124-.0928.1865-.2134.1865-.3628Z"/>
    <path class="cls-11" d="m129.4397,173.7761l.8789-2.9575h1.3613l-1.9111,5.4932-.1055.2505c-.2842.6211-.7529.9316-1.4062.9316-.1846,0-.3721-.0278-.5625-.0835v-.9624l.1934.0044c.2402,0,.4199-.0366.5381-.1099.1191-.0732.2119-.1948.2793-.3647l.1494-.3911-1.665-4.7681h1.3662l.8838,2.9575Z"/>
    <path class="cls-11" d="m138.6594,175.5735h-4.1934v-.5845l2.2148-2.4609c.3281-.3721.5547-.6743.6797-.9077.124-.2324.1865-.4736.1865-.7227,0-.334-.1006-.6079-.3037-.8218-.2012-.2139-.4717-.3208-.8086-.3208-.4043,0-.7178.1152-.9424.3447-.2236.2305-.3359.5503-.3359.9604h-.8135c0-.5889.1904-1.0649.5693-1.4282.3799-.3633.8867-.5449,1.5225-.5449.5947,0,1.0654.1562,1.4111.4678.3457.3125.5186.7275.5186,1.2461,0,.6299-.4014,1.3799-1.2041,2.25l-1.7139,1.8589h3.2129v.6636Z"/>
    <path class="cls-11" d="m143.6506,169.6321l-2.6494,5.9414h-.8525l2.6406-5.7305h-3.4629v-.668h4.3242v.457Z"/>
    <path class="cls-11" d="m146.303,170.4055c0-.3838.123-.7002.3672-.9492.2451-.249.5586-.3735.9434-.3735.3887,0,.7051.1255.9463.3755.2422.251.3623.5752.3623.9736v.312c0,.3867-.1221.7026-.3662.9468-.2451.2451-.5557.3672-.9346.3672-.3809,0-.6953-.1221-.9443-.3672-.249-.2441-.374-.5703-.374-.9775v-.3076Zm.6074.3364c0,.229.0635.418.1934.5664.1279.1479.3008.2222.5176.2222.208,0,.376-.0718.5039-.2158.127-.144.1914-.3403.1914-.5903v-.3213c0-.229-.0635-.4185-.1895-.5684s-.2979-.2246-.5137-.2246c-.2178,0-.3887.0747-.5146.2246s-.1885.3452-.1885.5859v.3213Zm.8965,4.3481l-.4619-.29,3.124-5.001.4619.29-3.124,5.001Zm1.6123-1.0854c0-.3838.1221-.6992.3672-.9468.2441-.2476.5586-.3716.9424-.3716s.6992.123.9453.3691.3691.5728.3691.98v.312c0,.3838-.123.6997-.3672.9468-.2451.248-.5576.3716-.9385.3716s-.6963-.1221-.9443-.3667c-.25-.2446-.374-.5708-.374-.978v-.3164Zm.6064.3408c0,.2319.0645.4224.1934.5708.1289.1479.3018.2222.5186.2222.2109,0,.3789-.0728.5049-.2178.126-.1455.1895-.3428.1895-.5928v-.3257c0-.2319-.0635-.4214-.1914-.5684-.127-.147-.2979-.2202-.5117-.2202-.208,0-.377.0728-.5078.2178-.1299.1455-.1953.3418-.1953.5884v.3257Z"/>
  </g>
  <g>
    <path class="cls-11" d="m3.4133,201.196h2.7988v1.0591H2.0949v-6.3984h1.3184v5.3394Z"/>
    <path class="cls-11" d="m9.0735,202.343c-.6973,0-1.2656-.2139-1.7031-.6416-.4385-.4277-.6572-.9976-.6572-1.7095v-.123c0-.4775.0928-.9043.2773-1.2808s.4453-.6665.7842-.8701c.3379-.2036.7246-.3057,1.1582-.3057.6504,0,1.1621.2051,1.5352.6152.374.4102.5605.9917.5605,1.7446v.5186h-3.0273c.041.3105.1641.5596.3711.7471.2061.1875.4678.2812.7842.2812.4893,0,.8721-.1772,1.1475-.5317l.624.6987c-.1904.2695-.4482.48-.7734.6304-.3252.1509-.6855.2266-1.0811.2266Zm-.1455-3.9067c-.252,0-.4561.0854-.6133.2559-.1562.1709-.2568.415-.3008.7329h1.7666v-.1016c-.0059-.2827-.082-.501-.2285-.6553-.1465-.1548-.3545-.2319-.624-.2319Z"/>
    <path class="cls-11" d="m12.9885,198.0188c.3369-.4043.7607-.6064,1.2705-.6064,1.0312,0,1.5537.5991,1.5684,1.7974v3.0454h-1.2695v-3.0103c0-.2725-.0586-.4736-.1758-.604s-.3125-.1958-.585-.1958c-.3721,0-.6416.1436-.8086.4307v3.3794h-1.2695v-6.75h1.2695v2.5137Z"/>
    <path class="cls-11" d="m18.5129,200.3479l-.457.457v1.4502h-1.2705v-6.75h1.2705v3.7397l.2461-.3164,1.2168-1.4282h1.5254l-1.7188,1.9819,1.8682,2.7729h-1.459l-1.2217-1.9072Z"/>
    <path class="cls-11" d="m23.7815,202.343c-.6973,0-1.2646-.2139-1.7021-.6416-.4385-.4277-.6572-.9976-.6572-1.7095v-.123c0-.4775.0918-.9043.2764-1.2808s.4463-.6665.7852-.8701c.3379-.2036.7236-.3057,1.1572-.3057.6504,0,1.1631.2051,1.5361.6152.374.4102.5605.9917.5605,1.7446v.5186h-3.0283c.041.3105.165.5596.3721.7471.2061.1875.4678.2812.7842.2812.4893,0,.8711-.1772,1.1465-.5317l.624.6987c-.1904.2695-.4482.48-.7734.6304-.3252.1509-.6855.2266-1.0811.2266Zm-.1445-3.9067c-.252,0-.457.0854-.6133.2559-.1572.1709-.2568.415-.3008.7329h1.7666v-.1016c-.0059-.2827-.082-.501-.2285-.6553-.1465-.1548-.3545-.2319-.624-.2319Zm.1143-2.9312h1.3838l-1.2168,1.3623h-1.0332l.8662-1.3623Z"/>
    <path class="cls-11" d="m29.8684,197.5002l.0391.5493c.3398-.4248.7959-.6372,1.3672-.6372.5039,0,.8789.1479,1.125.4438s.3721.7383.3779,1.3271v3.0718h-1.2705v-3.041c0-.2695-.0586-.4648-.1758-.5869-.1172-.1211-.3115-.1821-.584-.1821-.3574,0-.626.1523-.8047.457v3.353h-1.2695v-4.7549h1.1953Z"/>
    <path class="cls-11" d="m36.4953,202.2551c-.0586-.1143-.1016-.2563-.1279-.4263-.3076.3428-.707.5142-1.1992.5142-.4658,0-.8525-.1348-1.1582-.4043-.3066-.2695-.459-.6094-.459-1.0195,0-.5039.1865-.8906.5605-1.1602.373-.2695.9131-.4058,1.6191-.4087h.584v-.2725c0-.2197-.0566-.3955-.1689-.5273-.1133-.1318-.291-.1978-.5342-.1978-.2139,0-.3818.0513-.5029.1538-.1221.1025-.1826.2432-.1826.4219h-1.2695c0-.2754.085-.5303.2549-.7646s.4102-.418.7207-.5513.6592-.2002,1.0459-.2002c.5859,0,1.0508.1475,1.3955.4414.3438.2949.5156.7085.5156,1.2417v2.061c.0029.4512.0664.7925.1895,1.0239v.0747h-1.2832Zm-1.0508-.8833c.1875,0,.3604-.0415.5186-.1255.1582-.083.2754-.1953.3516-.3359v-.8174h-.4746c-.6357,0-.9736.2197-1.0146.6592l-.0049.0747c0,.1582.0557.2886.167.3911s.2637.1538.457.1538Zm.4834-5.8667h1.3848l-1.2178,1.3623h-1.0322l.8652-1.3623Z"/>
    <path class="cls-11" d="m40.2922,200.3479l-.457.457v1.4502h-1.2705v-6.75h1.2705v3.7397l.2461-.3164,1.2168-1.4282h1.5254l-1.7188,1.9819,1.8682,2.7729h-1.459l-1.2217-1.9072Z"/>
    <path class="cls-11" d="m44.7131,202.2551h-1.2744v-6.75h1.2744v6.75Z"/>
    <path class="cls-11" d="m48.5139,202.2551c-.0586-.1143-.1006-.2563-.127-.4263-.3076.3428-.708.5142-1.2002.5142-.4658,0-.8516-.1348-1.1582-.4043-.3057-.2695-.459-.6094-.459-1.0195,0-.5039.1865-.8906.5605-1.1602.373-.2695.9131-.4058,1.6191-.4087h.585v-.2725c0-.2197-.0566-.3955-.1699-.5273-.1123-.1318-.29-.1978-.5332-.1978-.2139,0-.3818.0513-.5039.1538-.1211.1025-.1816.2432-.1816.4219h-1.2705c0-.2754.085-.5303.2549-.7646s.4102-.418.7207-.5513.6592-.2002,1.0459-.2002c.5859,0,1.0508.1475,1.3955.4414.3438.2949.5166.7085.5166,1.2417v2.061c.0029.4512.0654.7925.1885,1.0239v.0747h-1.2832Zm-1.0498-.8833c.1875,0,.3604-.0415.5186-.1255.1582-.083.2754-.1953.3516-.3359v-.8174h-.4746c-.6357,0-.9746.2197-1.0156.6592l-.0039.0747c0,.1582.0557.2886.167.3911s.2637.1538.457.1538Z"/>
    <path class="cls-11" d="m50.386,199.8425c0-.7412.166-1.3315.499-1.771.332-.4395.7871-.6592,1.3643-.6592.4629,0,.8457.1729,1.1475.5186v-2.4258h1.2744v6.75h-1.1475l-.0615-.5054c-.3164.3955-.7236.5933-1.2217.5933-.5596,0-1.0088-.2202-1.3467-.6611-.3389-.4409-.5078-1.0542-.5078-1.8394Zm1.2705.0947c0,.4458.0771.7876.2324,1.0254s.3809.3564.6768.3564c.3926,0,.6699-.1655.8311-.4976v-1.8789c-.1582-.3315-.4326-.4976-.8223-.4976-.6123,0-.918.4976-.918,1.4922Z"/>
    <path class="cls-11" d="m56.8244,197.5002l.0391.5493c.3398-.4248.7959-.6372,1.3672-.6372.5039,0,.8789.1479,1.125.4438s.3721.7383.3779,1.3271v3.0718h-1.2705v-3.041c0-.2695-.0586-.4648-.1758-.5869-.1172-.1211-.3115-.1821-.584-.1821-.3574,0-.626.1523-.8047.457v3.353h-1.2695v-4.7549h1.1953Z"/>
    <path class="cls-11" d="m62.884,202.343c-.6973,0-1.2646-.2139-1.7021-.6416-.4385-.4277-.6572-.9976-.6572-1.7095v-.123c0-.4775.0918-.9043.2764-1.2808s.4463-.6665.7852-.8701c.3379-.2036.7236-.3057,1.1572-.3057.6504,0,1.1631.2051,1.5361.6152.374.4102.5605.9917.5605,1.7446v.5186h-3.0283c.041.3105.165.5596.3721.7471.2061.1875.4678.2812.7842.2812.4893,0,.8711-.1772,1.1465-.5317l.624.6987c-.1904.2695-.4482.48-.7734.6304-.3252.1509-.6855.2266-1.0811.2266Zm-.1445-3.9067c-.252,0-.457.0854-.6133.2559-.1572.1709-.2568.415-.3008.7329h1.7666v-.1016c-.0059-.2827-.082-.501-.2285-.6553-.1465-.1548-.3545-.2319-.624-.2319Zm.1143-2.9312h1.3838l-1.2168,1.3623h-1.0332l.8662-1.3623Z"/>
    <path class="cls-11" d="m70.5569,202.2551c-.0586-.1143-.1006-.2563-.127-.4263-.3076.3428-.708.5142-1.2002.5142-.4658,0-.8516-.1348-1.1582-.4043-.3057-.2695-.459-.6094-.459-1.0195,0-.5039.1865-.8906.5605-1.1602.373-.2695.9131-.4058,1.6191-.4087h.585v-.2725c0-.2197-.0566-.3955-.1699-.5273-.1123-.1318-.29-.1978-.5332-.1978-.2139,0-.3818.0513-.5039.1538-.1211.1025-.1816.2432-.1816.4219h-1.2705c0-.2754.085-.5303.2549-.7646s.4102-.418.7207-.5513.6592-.2002,1.0459-.2002c.5859,0,1.0508.1475,1.3955.4414.3438.2949.5166.7085.5166,1.2417v2.061c.0029.4512.0654.7925.1885,1.0239v.0747h-1.2832Zm-1.0498-.8833c.1875,0,.3604-.0415.5186-.1255.1582-.083.2754-.1953.3516-.3359v-.8174h-.4746c-.6357,0-.9746.2197-1.0156.6592l-.0039.0747c0,.1582.0557.2886.167.3911s.2637.1538.457.1538Z"/>
    <path class="cls-11" d="m75.4748,201.7717c-.3135.3809-.7471.5713-1.3008.5713-.5098,0-.8994-.1465-1.167-.4395-.2686-.293-.4053-.7222-.4111-1.2876v-3.1157h1.2705v3.0752c0,.4956.2256.7437.6768.7437.4307,0,.7266-.1494.8877-.4487v-3.3701h1.2744v4.7549h-1.1953l-.0352-.4834Z"/>
    <path class="cls-11" d="m79.1838,196.3313v1.1689h.8125v.9316h-.8125v2.373c0,.1758.0332.3018.1006.3779s.1963.1143.3867.1143c.1406,0,.2656-.0103.374-.0308v.9624c-.249.0762-.5059.1143-.7695.1143-.8906,0-1.3447-.4497-1.3623-1.3491v-2.562h-.6943v-.9316h.6943v-1.1689h1.2705Z"/>
    <path class="cls-11" d="m83.4592,202.2551c-.0586-.1143-.1006-.2563-.127-.4263-.3076.3428-.708.5142-1.2002.5142-.4658,0-.8516-.1348-1.1582-.4043-.3057-.2695-.459-.6094-.459-1.0195,0-.5039.1865-.8906.5605-1.1602.373-.2695.9131-.4058,1.6191-.4087h.585v-.2725c0-.2197-.0566-.3955-.1699-.5273-.1123-.1318-.29-.1978-.5332-.1978-.2139,0-.3818.0513-.5039.1538-.1211.1025-.1816.2432-.1816.4219h-1.2705c0-.2754.085-.5303.2549-.7646s.4102-.418.7207-.5513.6592-.2002,1.0459-.2002c.5859,0,1.0508.1475,1.3955.4414.3438.2949.5166.7085.5166,1.2417v2.061c.0029.4512.0654.7925.1885,1.0239v.0747h-1.2832Zm-1.0498-.8833c.1875,0,.3604-.0415.5186-.1255.1582-.083.2754-.1953.3516-.3359v-.8174h-.4746c-.6357,0-.9746.2197-1.0156.6592l-.0039.0747c0,.1582.0557.2886.167.3911s.2637.1538.457.1538Z"/>
    <path class="cls-11" d="m90.4865,202.2551h-.8174v-5.4185l-1.6396.6021v-.7383l2.3291-.8745h.1279v6.4292Z"/>
    <path class="cls-11" d="m95.5403,202.2551h-.8174v-5.4185l-1.6396.6021v-.7383l2.3291-.8745h.1279v6.4292Z"/>
    <path class="cls-11" d="m99.6516,197.0871c0-.3838.1221-.7002.3662-.9492.2451-.249.5596-.3735.9434-.3735.3896,0,.7051.1255.9463.3755.2422.251.3633.5752.3633.9736v.312c0,.3867-.123.7026-.3672.9468-.2451.2451-.5557.3672-.9336.3672-.3809,0-.6963-.1221-.9453-.3672-.249-.2441-.373-.5703-.373-.9775v-.3076Zm.6064.3364c0,.229.0645.418.1934.5664.1289.1479.3018.2222.5186.2222.208,0,.375-.0718.5029-.2158.127-.144.1914-.3403.1914-.5903v-.3213c0-.229-.0635-.4185-.1895-.5684s-.2969-.2246-.5137-.2246-.3887.0747-.5146.2246-.1885.3452-.1885.5859v.3213Zm.8965,4.3481l-.4619-.29,3.125-5.001.4609.29-3.124,5.001Zm1.6123-1.0854c0-.3838.1221-.6992.3672-.9468.2441-.2476.5586-.3716.9424-.3716s.6992.123.9453.3691.3691.5728.3691.98v.312c0,.3838-.123.6997-.3672.9468-.2451.248-.5576.3716-.9385.3716s-.6953-.1221-.9443-.3667-.374-.5708-.374-.978v-.3164Zm.6064.3408c0,.2319.0645.4224.1934.5708.1289.1479.3018.2222.5186.2222.2109,0,.3799-.0728.5059-.2178.126-.1455.1885-.3428.1885-.5928v-.3257c0-.2319-.0635-.4214-.1914-.5684-.127-.147-.2979-.2202-.5117-.2202-.208,0-.377.0728-.5078.2178-.1299.1455-.1953.3418-.1953.5884v.3257Z"/>
  </g>
  <g>
    <path class="cls-11" d="m3.8176,222.2087l1.6436,4.6406,1.6348-4.6406h1.7314v6.3984h-1.3232v-1.749l.1318-3.019-1.7266,4.7681h-.9053l-1.7227-4.7637.1318,3.0146v1.749h-1.3184v-6.3984h1.7227Z"/>
    <path class="cls-11" d="m9.6975,226.1858c0-.4717.0908-.8921.2725-1.2612s.4424-.6548.7842-.8569c.3408-.2021.7373-.3032,1.1885-.3032.6416,0,1.165.1963,1.5713.5889.4053.3926.6318.9258.6787,1.5996l.0088.3252c0,.7295-.2031,1.3149-.6104,1.7559s-.9541.6611-1.6396.6611-1.2324-.2197-1.6406-.6592c-.4092-.4395-.6133-1.0371-.6133-1.793v-.0571Zm1.2695.0903c0,.4517.085.7974.2549,1.0361.1699.2393.4131.3589.7295.3589.3076,0,.5479-.1182.7207-.3545.1729-.2358.2598-.6138.2598-1.1333,0-.4429-.0869-.7861-.2598-1.0298s-.416-.3652-.7295-.3652c-.3105,0-.5508.1211-.7207.3633-.1699.2417-.2549.6167-.2549,1.1245Z"/>
    <path class="cls-11" d="m16.5041,222.6833v1.1689h.8135v.9316h-.8135v2.373c0,.1758.0342.3018.1016.3779s.1963.1143.3867.1143c.1406,0,.2646-.0103.373-.0308v.9624c-.249.0762-.5049.1143-.7686.1143-.8906,0-1.3447-.4497-1.3623-1.3491v-2.562h-.6943v-.9316h.6943v-1.1689h1.2695Z"/>
    <path class="cls-11" d="m17.6955,226.1858c0-.4717.0908-.8921.2725-1.2612s.4424-.6548.7842-.8569c.3408-.2021.7373-.3032,1.1885-.3032.6416,0,1.165.1963,1.5713.5889.4053.3926.6318.9258.6787,1.5996l.0088.3252c0,.7295-.2031,1.3149-.6104,1.7559s-.9541.6611-1.6396.6611-1.2324-.2197-1.6406-.6592c-.4092-.4395-.6133-1.0371-.6133-1.793v-.0571Zm1.2695.0903c0,.4517.085.7974.2549,1.0361.1699.2393.4131.3589.7295.3589.3076,0,.5479-.1182.7207-.3545.1729-.2358.2598-.6138.2598-1.1333,0-.4429-.0869-.7861-.2598-1.0298s-.416-.3652-.7295-.3652c-.3105,0-.5508.1211-.7207.3633-.1699.2417-.2549.6167-.2549,1.1245Z"/>
    <path class="cls-11" d="m24.9592,227.6711c.2344,0,.4248-.0645.5713-.1934s.2227-.3003.2285-.5142h1.1914c-.0029.3223-.0908.6172-.2637.8857-.1729.2676-.4102.4761-.71.624-.3008.1475-.6318.2217-.9951.2217-.6797,0-1.2158-.2158-1.6084-.6484-.3926-.4316-.5889-1.0288-.5889-1.7905v-.0835c0-.7324.1943-1.3169.584-1.7534s.9248-.6548,1.6045-.6548c.5947,0,1.0713.1689,1.4307.5078.3584.3379.541.7886.5469,1.3511h-1.1914c-.0059-.2476-.082-.4482-.2285-.603s-.3398-.2319-.5801-.2319c-.2959,0-.5195.1079-.6699.3232-.1514.2158-.2266.5659-.2266,1.0498v.1323c0,.4897.0752.8418.2246,1.0562s.376.3213.6807.3213Z"/>
    <path class="cls-11" d="m29.4504,226.8098l.8789-2.9575h1.3623l-1.9111,5.4932-.1055.2505c-.2842.6211-.7529.9316-1.4062.9316-.1846,0-.3721-.0278-.5625-.0835v-.9624l.1934.0044c.2402,0,.4199-.0366.5381-.1099.1191-.0732.2119-.1948.2793-.3647l.1494-.3911-1.666-4.7681h1.3672l.8828,2.9575Z"/>
    <path class="cls-11" d="m33.9201,226.6999l-.457.457v1.4502h-1.2705v-6.75h1.2705v3.7397l.2461-.3164,1.2168-1.4282h1.5254l-1.7188,1.9819,1.8682,2.7729h-1.459l-1.2217-1.9072Z"/>
    <path class="cls-11" d="m38.341,228.6072h-1.2744v-6.75h1.2744v6.75Z"/>
    <path class="cls-11" d="m41.1623,226.8098l.8789-2.9575h1.3623l-1.9121,5.4932-.1055.2505c-.2842.6211-.7529.9316-1.4062.9316-.1846,0-.3721-.0278-.5625-.0835v-.9624l.1934.0044c.2402,0,.4199-.0366.5381-.1099.1191-.0732.2119-.1948.2793-.3647l.1494-.3911-1.665-4.7681h1.3662l.8838,2.9575Z"/>
    <path class="cls-11" d="m48.9006,228.6072c-.0586-.1143-.1006-.2563-.127-.4263-.3076.3428-.708.5142-1.2002.5142-.4658,0-.8516-.1348-1.1582-.4043-.3057-.2695-.459-.6094-.459-1.0195,0-.5039.1865-.8906.5605-1.1602.373-.2695.9131-.4058,1.6191-.4087h.585v-.2725c0-.2197-.0566-.3955-.1699-.5273-.1123-.1318-.29-.1978-.5332-.1978-.2139,0-.3818.0513-.5039.1538-.1211.1025-.1816.2432-.1816.4219h-1.2705c0-.2754.085-.5303.2549-.7646s.4102-.418.7207-.5513.6592-.2002,1.0459-.2002c.5859,0,1.0508.1475,1.3955.4414.3438.2949.5166.7085.5166,1.2417v2.061c.0029.4512.0654.7925.1885,1.0239v.0747h-1.2832Zm-1.0498-.8833c.1875,0,.3604-.0415.5186-.1255.1582-.083.2754-.1953.3516-.3359v-.8174h-.4746c-.6357,0-.9746.2197-1.0156.6592l-.0039.0747c0,.1582.0557.2886.167.3911s.2637.1538.457.1538Z"/>
    <path class="cls-11" d="m53.0139,226.1858c0-.4717.0908-.8921.2725-1.2612s.4434-.6548.7842-.8569c.3418-.2021.7383-.3032,1.1895-.3032.6416,0,1.165.1963,1.5703.5889.4062.3926.6328.9258.6797,1.5996l.0088.3252c0,.7295-.2041,1.3149-.6113,1.7559s-.9531.6611-1.6387.6611-1.2334-.2197-1.6416-.6592c-.4092-.4395-.6133-1.0371-.6133-1.793v-.0571Zm1.2705.0903c0,.4517.085.7974.2549,1.0361.1699.2393.4131.3589.7295.3589.3076,0,.5479-.1182.7207-.3545.1729-.2358.2588-.6138.2588-1.1333,0-.4429-.0859-.7861-.2588-1.0298s-.416-.3652-.7295-.3652c-.3105,0-.5508.1211-.7207.3633-.1699.2417-.2549.6167-.2549,1.1245Z"/>
    <path class="cls-11" d="m60.8762,227.2932c0-.1553-.0771-.2773-.2314-.3667-.1533-.0894-.4004-.1694-.7402-.2397-1.1309-.2373-1.6963-.7178-1.6963-1.4414,0-.4219.1748-.7739.5254-1.0571.3496-.2822.8076-.4238,1.373-.4238.6035,0,1.0859.1421,1.4482.4263.3613.2842.543.6533.543,1.1074h-1.2705c0-.1816-.0586-.3315-.1758-.4507-.1172-.1182-.2998-.1777-.5488-.1777-.2139,0-.3799.0483-.4971.145s-.1758.2197-.1758.3691c0,.1406.0664.2544.2002.3403.1328.0869.3584.1616.6748.2246s.583.1338.7998.2129c.6709.2461,1.0059.6724,1.0059,1.2788,0,.4336-.1855.7847-.5576,1.0522-.3721.2686-.8525.4023-1.4414.4023-.3984,0-.7529-.0713-1.0615-.2129-.3096-.1421-.5518-.3369-.7275-.585-.1758-.2471-.2637-.5146-.2637-.8018h1.2041c.0117.2256.0957.3984.251.5186s.3633.1802.624.1802c.2432,0,.4268-.0464.5508-.1382.125-.0928.1875-.2134.1875-.3628Z"/>
    <path class="cls-11" d="m64.4485,222.6833v1.1689h.8135v.9316h-.8135v2.373c0,.1758.0342.3018.1016.3779s.1963.1143.3867.1143c.1406,0,.2646-.0103.373-.0308v.9624c-.249.0762-.5049.1143-.7686.1143-.8906,0-1.3447-.4497-1.3623-1.3491v-2.562h-.6943v-.9316h.6943v-1.1689h1.2695Z"/>
    <path class="cls-11" d="m68.7248,228.6072c-.0586-.1143-.1016-.2563-.1279-.4263-.3076.3428-.707.5142-1.1992.5142-.4658,0-.8525-.1348-1.1582-.4043-.3066-.2695-.459-.6094-.459-1.0195,0-.5039.1865-.8906.5605-1.1602.373-.2695.9131-.4058,1.6191-.4087h.584v-.2725c0-.2197-.0566-.3955-.1689-.5273-.1133-.1318-.291-.1978-.5342-.1978-.2139,0-.3818.0513-.5029.1538-.1221.1025-.1826.2432-.1826.4219h-1.2695c0-.2754.085-.5303.2549-.7646s.4102-.418.7207-.5513.6592-.2002,1.0459-.2002c.5859,0,1.0508.1475,1.3955.4414.3438.2949.5156.7085.5156,1.2417v2.061c.0029.4512.0664.7925.1895,1.0239v.0747h-1.2832Zm-1.0508-.8833c.1875,0,.3604-.0415.5186-.1255.1582-.083.2754-.1953.3516-.3359v-.8174h-.4746c-.6357,0-.9736.2197-1.0146.6592l-.0049.0747c0,.1582.0557.2886.167.3911s.2637.1538.457.1538Z"/>
    <path class="cls-11" d="m72.3147,222.6833v1.1689h.8135v.9316h-.8135v2.373c0,.1758.0342.3018.1016.3779s.1963.1143.3867.1143c.1406,0,.2646-.0103.373-.0308v.9624c-.249.0762-.5049.1143-.7686.1143-.8906,0-1.3447-.4497-1.3623-1.3491v-2.562h-.6943v-.9316h.6943v-1.1689h1.2695Z"/>
    <path class="cls-11" d="m75.0041,223.8523l.04.5493c.3398-.4248.7949-.6372,1.3662-.6372.5039,0,.8789.1479,1.125.4438s.3721.7383.3779,1.3271v3.0718h-1.2695v-3.041c0-.2695-.0586-.4648-.1758-.5869-.1172-.1211-.3125-.1821-.585-.1821-.3574,0-.625.1523-.8037.457v3.353h-1.2705v-4.7549h1.1953Z"/>
    <path class="cls-11" d="m80.2473,228.6072h-1.2705v-4.7549h1.2705v4.7549Zm-.374-6.6841h1.3848l-1.2178,1.3623h-1.0322l.8652-1.3623Z"/>
    <path class="cls-11" d="m86.1574,227.2932c0-.1553-.0762-.2773-.2305-.3667-.1533-.0894-.4004-.1694-.7402-.2397-1.1309-.2373-1.6963-.7178-1.6963-1.4414,0-.4219.1748-.7739.5254-1.0571.3496-.2822.8076-.4238,1.373-.4238.6035,0,1.0859.1421,1.4482.4263.3613.2842.542.6533.542,1.1074h-1.2695c0-.1816-.0586-.3315-.1758-.4507-.1172-.1182-.3008-.1777-.5498-.1777-.2139,0-.3789.0483-.4961.145s-.1758.2197-.1758.3691c0,.1406.0664.2544.2002.3403.1328.0869.3574.1616.6738.2246s.583.1338.7998.2129c.6709.2461,1.0068.6724,1.0068,1.2788,0,.4336-.1865.7847-.5586,1.0522-.3721.2686-.8525.4023-1.4414.4023-.3984,0-.752-.0713-1.0605-.2129-.3096-.1421-.5518-.3369-.7275-.585-.1758-.2471-.2637-.5146-.2637-.8018h1.2041c.0117.2256.0947.3984.25.5186s.3633.1802.624.1802c.2432,0,.4268-.0464.5518-.1382.124-.0928.1865-.2134.1865-.3628Z"/>
    <path class="cls-11" d="m88.2014,222.6218c0-.1904.0635-.3472.1904-.4702.1279-.123.3018-.1846.5215-.1846.2168,0,.3896.0615.5186.1846s.1934.2798.1934.4702c0,.1934-.0654.3516-.1963.4746-.1299.123-.3018.1846-.5156.1846s-.3867-.0615-.5166-.1846c-.1309-.123-.1953-.2812-.1953-.4746Zm1.3486,5.9854h-1.2744v-4.7549h1.2744v4.7549Z"/>
    <path class="cls-11" d="m91.9367,228.6072h-1.2744v-6.75h1.2744v6.75Z"/>
    <path class="cls-11" d="m94.1516,223.8523l.0391.5493c.3398-.4248.7959-.6372,1.3672-.6372.5039,0,.8789.1479,1.125.4438s.3721.7383.3779,1.3271v3.0718h-1.2705v-3.041c0-.2695-.0586-.4648-.1758-.5869-.1172-.1211-.3115-.1821-.584-.1821-.3574,0-.626.1523-.8047.457v3.353h-1.2695v-4.7549h1.1953Z"/>
    <path class="cls-11" d="m98.0139,222.6218c0-.1904.0645-.3472.1914-.4702.1279-.123.3008-.1846.5205-.1846.2168,0,.3896.0615.5186.1846s.1934.2798.1934.4702c0,.1934-.0654.3516-.1953.4746-.1309.123-.3027.1846-.5166.1846s-.3857-.0615-.5156-.1846c-.1309-.123-.1963-.2812-.1963-.4746Zm1.3496,5.9854h-1.2744v-4.7549h1.2744v4.7549Z"/>
    <path class="cls-11" d="m102.3869,227.6711c.2344,0,.4248-.0645.5713-.1934s.2227-.3003.2285-.5142h1.1904c-.0029.3223-.0908.6172-.2637.8857-.1729.2676-.4092.4761-.71.624-.2998.1475-.6318.2217-.9951.2217-.6797,0-1.2158-.2158-1.6084-.6484-.3926-.4316-.5889-1.0288-.5889-1.7905v-.0835c0-.7324.1953-1.3169.585-1.7534s.9238-.6548,1.6035-.6548c.5947,0,1.0713.1689,1.4307.5078.3584.3379.541.7886.5469,1.3511h-1.1904c-.0059-.2476-.082-.4482-.2285-.603s-.3398-.2319-.5801-.2319c-.2959,0-.5195.1079-.6709.3232-.1504.2158-.2256.5659-.2256,1.0498v.1323c0,.4897.0742.8418.2236,1.0562s.377.3213.6816.3213Zm-.1191-5.1899l.6416-.6284h1.0859v.0483l-1.3271,1.2349h-.8047l-1.3271-1.2437v-.0396h1.0859l.6455.6284Z"/>
    <path class="cls-11" d="m106.2717,223.8523l.0391.5493c.3398-.4248.7959-.6372,1.3672-.6372.5039,0,.8789.1479,1.125.4438s.3721.7383.3779,1.3271v3.0718h-1.2705v-3.041c0-.2695-.0586-.4648-.1758-.5869-.1172-.1211-.3115-.1821-.584-.1821-.3574,0-.626.1523-.8047.457v3.353h-1.2695v-4.7549h1.1953Z"/>
    <path class="cls-11" d="m111.5139,228.6072h-1.2695v-4.7549h1.2695v4.7549Zm-.373-6.6841h1.3838l-1.2168,1.3623h-1.0332l.8662-1.3623Z"/>
    <path class="cls-11" d="m117.5657,228.6072h-.8174v-5.4185l-1.6396.6021v-.7383l2.3291-.8745h.1279v6.4292Z"/>
    <path class="cls-11" d="m122.6194,228.6072h-.8174v-5.4185l-1.6396.6021v-.7383l2.3291-.8745h.1279v6.4292Z"/>
    <path class="cls-11" d="m126.7307,223.4392c0-.3838.1221-.7002.3662-.9492.2451-.249.5596-.3735.9434-.3735.3896,0,.7051.1255.9463.3755.2422.251.3633.5752.3633.9736v.312c0,.3867-.123.7026-.3672.9468-.2451.2451-.5557.3672-.9336.3672-.3809,0-.6963-.1221-.9453-.3672-.249-.2441-.373-.5703-.373-.9775v-.3076Zm.6064.3364c0,.229.0645.418.1934.5664.1289.1479.3018.2222.5186.2222.208,0,.375-.0718.5029-.2158.127-.144.1914-.3403.1914-.5903v-.3213c0-.229-.0635-.4185-.1895-.5684s-.2969-.2246-.5137-.2246-.3887.0747-.5146.2246-.1885.3452-.1885.5859v.3213Zm.8965,4.3481l-.4619-.29,3.125-5.001.4609.29-3.124,5.001Zm1.6123-1.0854c0-.3838.1221-.6992.3672-.9468.2441-.2476.5586-.3716.9424-.3716s.6992.123.9453.3691.3691.5728.3691.98v.312c0,.3838-.123.6997-.3672.9468-.2451.248-.5576.3716-.9385.3716s-.6953-.1221-.9443-.3667-.374-.5708-.374-.978v-.3164Zm.6064.3408c0,.2319.0645.4224.1934.5708.1289.1479.3018.2222.5186.2222.2109,0,.3789-.0728.5049-.2178.126-.1455.1895-.3428.1895-.5928v-.3257c0-.2319-.0635-.4214-.1914-.5684-.127-.147-.2979-.2202-.5117-.2202-.208,0-.377.0728-.5078.2178-.1299.1455-.1953.3418-.1953.5884v.3257Z"/>
  </g>
  <polyline class="cls-8" points="428.5357 132.0362 428.5357 147.3159 419.5679 147.3159"/>
  <polyline class="cls-7" points="436.7558 132.0362 436.7558 163.6597 431.1444 163.6597"/>
</svg>