<?xml version="1.0" encoding="UTF-8"?>
<svg id="Layer_1" data-name="Layer 1" xmlns="http://www.w3.org/2000/svg" viewBox="0 0 660 61.7655">
  <defs>
    <style>
      .cls-1 {
        fill: #ffd96e;
      }

      .cls-1, .cls-2, .cls-3, .cls-4, .cls-5, .cls-6 {
        stroke-width: .25px;
      }

      .cls-1, .cls-2, .cls-3, .cls-4, .cls-5, .cls-6, .cls-7, .cls-8 {
        stroke: #fff;
        stroke-miterlimit: 10;
      }

      .cls-2 {
        fill: #cf7c8d;
      }

      .cls-3 {
        fill: #bf3d7c;
      }

      .cls-4 {
        fill: #974899;
      }

      .cls-5 {
        fill: #566ca8;
      }

      .cls-6 {
        fill: #f58d77;
      }

      .cls-7, .cls-8 {
        fill: #e4e7ed;
      }

      .cls-8 {
        stroke-width: .75px;
      }

      .cls-9 {
        fill: #515b66;
      }

      .cls-9, .cls-10 {
        stroke-width: 0px;
      }

      .cls-10 {
        fill: #9ea7b3;
      }
    </style>
  </defs>
  <g>
    <path class="cls-6" d="M450.2645,26.325v25.3176h-1.1549v-25.3176h1.1549Z"/>
    <path class="cls-5" d="M449.1097,26.325v25.3176h-2.3097v-25.3176h2.3097Z"/>
    <path class="cls-4" d="M357.8749,51.6426v-25.3175h53.7015v25.3175h-53.7015Z"/>
    <path class="cls-2" d="M436.4061,51.6426v-25.3176h9.8164v25.3176h-9.8164Z"/>
    <path class="cls-3" d="M411.5764,51.6426v-25.3176h24.8297v25.3176h-24.8297Z"/>
    <path class="cls-1" d="M446.2225,51.6426v-25.3176h.5774v25.3176h-.5774Z"/>
  </g>
  <g>
    <path class="cls-9" d="M358.697,18.6029v-8.5312h2.625c.75,0,1.4209.1689,2.0127.5068s1.0537.8184,1.3857,1.4414.498,1.3311.498,2.124v.3926c0,.793-.1631,1.498-.4893,2.1152s-.7861,1.0957-1.3799,1.4355-1.2637.5117-2.0098.5156h-2.6426ZM360.4548,11.4955v5.6953h.8496c.6875,0,1.2129-.2246,1.5762-.6738s.5488-1.0918.5566-1.9277v-.4512c0-.8672-.1797-1.5244-.5391-1.9717s-.8848-.6709-1.5762-.6709h-.8672Z"/>
    <path class="cls-9" d="M366.1208,15.3744c0-.6289.1211-1.1895.3633-1.6816s.5908-.873,1.0459-1.1426.9834-.4043,1.585-.4043c.8555,0,1.5537.2617,2.0947.7852s.8428,1.2344.9053,2.1328l.0117.4336c0,.9727-.2715,1.7529-.8145,2.3408s-1.2715.8818-2.1855.8818-1.6436-.293-2.1885-.8789-.8174-1.3828-.8174-2.3906v-.0762ZM367.8142,15.4945c0,.6025.1133,1.0635.3398,1.3818.2266.3193.5508.4785.9727.4785.4102,0,.7305-.1572.9609-.4727.2305-.3145.3457-.8184.3457-1.5107,0-.5908-.1152-1.0483-.3457-1.373s-.5547-.4873-.9727-.4873c-.4141,0-.7344.1616-.9609.4844s-.3398.8223-.3398,1.499Z"/>
    <path class="cls-9" d="M378.8767,15.4916c0,.9766-.2217,1.7588-.665,2.3467s-1.042.8818-1.7959.8818c-.6406,0-1.1582-.2227-1.5527-.668v2.9883h-1.6934v-8.7773h1.5703l.0586.6211c.4102-.4922.9453-.7383,1.6055-.7383.7812,0,1.3887.2891,1.8223.8672s.6504,1.375.6504,2.3906v.0879ZM377.1833,15.3686c0-.5898-.1045-1.0449-.3135-1.3652s-.5127-.4805-.9111-.4805c-.5312,0-.8965.2031-1.0957.6094v2.5957c.207.418.5762.627,1.1074.627.8086,0,1.2129-.6621,1.2129-1.9863Z"/>
    <path class="cls-9" d="M383.488,13.851c-.2305-.0312-.4336-.0469-.6094-.0469-.6406,0-1.0605.2168-1.2598.6504v4.1484h-1.6934v-6.3398h1.5996l.0469.7559c.3398-.582.8105-.873,1.4121-.873.1875,0,.3633.0254.5273.0762l-.0234,1.6289Z"/>
    <path class="cls-9" d="M387.8005,18.6029c-.0781-.1523-.1348-.3418-.1699-.5684-.4102.457-.9434.6855-1.5996.6855-.6211,0-1.1357-.1797-1.5439-.5391s-.6123-.8125-.6123-1.3594c0-.6719.249-1.1875.7471-1.5469s1.2178-.541,2.1592-.5449h.7793v-.3633c0-.293-.0752-.5273-.2256-.7031s-.3877-.2637-.7119-.2637c-.2852,0-.5088.0684-.6709.2051s-.2432.3242-.2432.5625h-1.6934c0-.3672.1133-.707.3398-1.0195s.5469-.5576.9609-.7354.8789-.2666,1.3945-.2666c.7812,0,1.4014.1963,1.8604.5889s.6885.9443.6885,1.6553v2.748c.0039.6016.0879,1.0566.252,1.3652v.0996h-1.7109ZM386.4001,17.4252c.25,0,.4805-.0557.6914-.167s.3672-.2607.4688-.4482v-1.0898h-.6328c-.8477,0-1.2988.293-1.3535.8789l-.0059.0996c0,.2109.0742.3848.2227.5215s.3516.2051.6094.2051Z"/>
    <path class="cls-9" d="M392.8454,16.5346l1.1777-4.2715h1.7695l-2.1387,6.3398h-1.6172l-2.1387-6.3398h1.7695l1.1777,4.2715Z"/>
    <path class="cls-9" d="M400.1228,18.6029c-.0781-.1523-.1348-.3418-.1699-.5684-.4102.457-.9434.6855-1.5996.6855-.6211,0-1.1357-.1797-1.5439-.5391s-.6123-.8125-.6123-1.3594c0-.6719.249-1.1875.7471-1.5469s1.2178-.541,2.1592-.5449h.7793v-.3633c0-.293-.0752-.5273-.2256-.7031s-.3877-.2637-.7119-.2637c-.2852,0-.5088.0684-.6709.2051s-.2432.3242-.2432.5625h-1.6934c0-.3672.1133-.707.3398-1.0195s.5469-.5576.9609-.7354.8789-.2666,1.3945-.2666c.7812,0,1.4014.1963,1.8604.5889s.6885.9443.6885,1.6553v2.748c.0039.6016.0879,1.0566.252,1.3652v.0996h-1.7109ZM398.7224,17.4252c.25,0,.4805-.0557.6914-.167s.3672-.2607.4688-.4482v-1.0898h-.6328c-.8477,0-1.2988.293-1.3535.8789l-.0059.0996c0,.2109.0742.3848.2227.5215s.3516.2051.6094.2051Z"/>
    <path class="cls-9" d="M409.9138,18.6029h-1.6934v-6.5273l-2.0215.627v-1.377l3.5332-1.2656h.1816v8.543Z"/>
    <path class="cls-9" d="M417.279,9.9838v1.3945h-.1641c-.7656.0117-1.3818.2109-1.8486.5977s-.7471.9238-.8408,1.6113c.4531-.4609,1.0254-.6914,1.7168-.6914.7422,0,1.332.2656,1.7695.7969s.6562,1.2305.6562,2.0977c0,.5547-.1201,1.0566-.3604,1.5059s-.5801.7988-1.0195,1.0488-.9365.375-1.4912.375c-.8984,0-1.624-.3125-2.1768-.9375s-.8291-1.459-.8291-2.502v-.6094c0-.9258.1748-1.7432.5244-2.4521s.8516-1.2578,1.5059-1.6465,1.4131-.585,2.2764-.5889h.2812ZM415.6267,14.2611c-.2734,0-.5215.0713-.7441.2134-.2227.1426-.3867.3306-.4922.5645v.5146c0,.5654.1113,1.0068.334,1.3247s.5352.4766.9375.4766c.3633,0,.6572-.1431.8818-.4297s.3369-.6582.3369-1.1143c0-.4639-.1133-.8384-.3398-1.123-.2266-.2842-.5312-.4268-.9141-.4268Z"/>
    <path class="cls-9" d="M422.5349,11.7123c0-.5234.1699-.9482.5098-1.2744s.7852-.4893,1.3359-.4893c.5586,0,1.0078.1611,1.3477.4834s.5098.7588.5098,1.3096v.4219c0,.5273-.1699.9512-.5098,1.2715s-.7852.4805-1.3359.4805c-.5547,0-1.0029-.1611-1.3447-.4834s-.5127-.7568-.5127-1.3037v-.416ZM423.6599,12.1635c0,.2344.0674.4229.2021.5654s.3115.2139.5303.2139.3926-.0723.5215-.2168.1934-.3379.1934-.5801v-.4336c0-.2344-.0645-.4238-.1934-.5684s-.3066-.2168-.5332-.2168c-.2148,0-.3887.0713-.5215.2139s-.1992.3408-.1992.5947v.4277ZM424.7263,17.9643l-.8262-.4453,4.166-6.668.8262.4453-4.166,6.668ZM426.613,16.5111c0-.5273.1719-.9521.5156-1.2744s.7891-.4834,1.3359-.4834c.5547,0,1.0029.1592,1.3447.4775s.5127.7568.5127,1.3154v.4219c0,.5234-.168.9463-.5039,1.2686s-.7832.4834-1.3418.4834c-.5625,0-1.0137-.1621-1.3535-.4863s-.5098-.7539-.5098-1.2891v-.4336ZM427.738,16.9682c0,.2148.0703.3984.2109.5508s.3164.2285.5273.2285c.4766,0,.7148-.2637.7148-.791v-.4453c0-.2344-.0664-.4229-.1992-.5654s-.3086-.2139-.5273-.2139-.3945.0713-.5273.2139-.1992.3369-.1992.583v.4395Z"/>
  </g>
  <g>
    <path class="cls-10" d="M10.094,16.7455l2.168-6.6738h1.6289l-3.0703,8.5312h-1.4355l-3.0586-8.5312h1.623l2.1445,6.6738Z"/>
    <path class="cls-10" d="M16.9319,16.5639l1.2891-4.3008h1.5176l-2.5195,7.3008c-.3867,1.0664-1.043,1.5996-1.9688,1.5996-.207,0-.4355-.0352-.6855-.106v-1.1069l.2695.0176c.3594,0,.6299-.0654.8115-.1963s.3252-.3501.4307-.6587l.2051-.5444-2.2266-6.3057h1.5352l1.3418,4.3008ZM17.4123,9.6029h1.623l-1.623,1.7754-1.1426-.0029,1.1426-1.7725Z"/>
    <path class="cls-10" d="M23.8752,13.5639c-.1875-.0312-.3809-.0469-.5801-.0469-.6523,0-1.0918.25-1.3184.75v4.3359h-1.4238v-6.3398h1.3594l.0352.709c.3438-.5508.8203-.8262,1.4297-.8262.2031,0,.3711.0273.5039.082l-.0059,1.3359Z"/>
    <path class="cls-10" d="M24.2971,15.3744c0-.6211.123-1.1807.3691-1.6787s.5918-.8809,1.0371-1.1484.957-.4014,1.5352-.4014c.8555,0,1.5498.2754,2.083.8262s.8213,1.2812.8643,2.1914l.0059.334c0,.625-.1201,1.1836-.3604,1.6758s-.584.873-1.0312,1.1426-.9639.4043-1.5498.4043c-.8945,0-1.6104-.2979-2.1475-.8936s-.8057-1.3896-.8057-2.3818v-.0703ZM25.7209,15.4975c0,.6523.1348,1.1631.4043,1.5322s.6445.5537,1.125.5537.8545-.1875,1.1221-.5625.4014-.9238.4014-1.6465c0-.6406-.1377-1.1484-.4131-1.5234s-.6494-.5625-1.1221-.5625c-.4648,0-.834.1846-1.1074.5537s-.4102.9209-.4102,1.6553Z"/>
    <path class="cls-10" d="M36.9592,15.4975c0,.9844-.2197,1.7676-.6592,2.3496s-1.0439.873-1.8135.873c-.7422,0-1.3203-.2676-1.7344-.8027l-.0703.6855h-1.2891v-9h1.4238v3.2695c.4102-.4844.9629-.7266,1.6582-.7266.7734,0,1.3809.2871,1.8223.8613s.6621,1.377.6621,2.4082v.082ZM35.5354,15.3744c0-.6875-.1211-1.2031-.3633-1.5469s-.5938-.5156-1.0547-.5156c-.6172,0-1.0508.2695-1.3008.8086v2.6133c.2539.5508.6914.8262,1.3125.8262.4453,0,.7891-.166,1.0312-.498s.3672-.834.375-1.5059v-.1816Z"/>
    <path class="cls-10" d="M41.9397,18.6029c-.0625-.1211-.1172-.3184-.1641-.5918-.4531.4727-1.0078.709-1.6641.709-.6367,0-1.1562-.1816-1.5586-.5449s-.6035-.8125-.6035-1.3477c0-.6758.251-1.1943.7529-1.5557s1.2197-.542,2.1533-.542h.873v-.416c0-.3281-.0918-.5908-.2754-.7881s-.4629-.2959-.8379-.2959c-.3242,0-.5898.0811-.7969.2432s-.3105.3682-.3105.6182h-1.4238c0-.3477.1152-.6729.3457-.9756s.5439-.54.9404-.7119.8389-.2578,1.3271-.2578c.7422,0,1.334.1865,1.7754.5596s.668.8975.6797,1.5732v2.8594c0,.5703.0801,1.0254.2402,1.3652v.0996h-1.4531ZM40.3752,17.5775c.2812,0,.5459-.0684.7939-.2051s.4346-.3203.5596-.5508v-1.1953h-.7676c-.5273,0-.9238.0918-1.1895.2754s-.3984.4434-.3984.7793c0,.2734.0908.4912.2725.6533s.4248.2432.7295.2432Z"/>
    <path class="cls-10" d="M50.424,18.7201c-.9023,0-1.6338-.2842-2.1943-.8525s-.8408-1.3252-.8408-2.2705v-.1758c0-.6328.1221-1.1982.3662-1.6963s.5869-.8857,1.0283-1.1631.9336-.416,1.4766-.416c.8633,0,1.5303.2754,2.001.8262s.7061,1.3301.7061,2.3379v.5742h-4.1426c.043.5234.2178.9375.5244,1.2422s.6924.457,1.1572.457c.6523,0,1.1836-.2637,1.5938-.791l.7676.7324c-.2539.3789-.5928.6729-1.0166.8818s-.8994.3135-1.4268.3135ZM50.2541,13.2885c-.3906,0-.7061.1367-.9463.4102s-.3936.6543-.46,1.1426h2.7129v-.1055c-.0312-.4766-.1582-.8369-.3809-1.0811s-.5312-.3662-.9258-.3662Z"/>
    <path class="cls-10" d="M55.5862,18.6029h-1.4238v-9h1.4238v9Z"/>
    <path class="cls-10" d="M59.928,18.7201c-.9023,0-1.6338-.2842-2.1943-.8525s-.8408-1.3252-.8408-2.2705v-.1758c0-.6328.1221-1.1982.3662-1.6963s.5869-.8857,1.0283-1.1631.9336-.416,1.4766-.416c.8633,0,1.5303.2754,2.001.8262s.7061,1.3301.7061,2.3379v.5742h-4.1426c.043.5234.2178.9375.5244,1.2422s.6924.457,1.1572.457c.6523,0,1.1836-.2637,1.5938-.791l.7676.7324c-.2539.3789-.5928.6729-1.0166.8818s-.8994.3135-1.4268.3135ZM59.758,13.2885c-.3906,0-.7061.1367-.9463.4102s-.3936.6543-.46,1.1426h2.7129v-.1055c-.0312-.4766-.1582-.8369-.3809-1.0811s-.5312-.3662-.9258-.3662Z"/>
    <path class="cls-10" d="M65.635,15.8842l-.6328.6504v2.0684h-1.4238v-9h1.4238v5.1914l.4453-.5566,1.752-1.9746h1.7109l-2.3555,2.6426,2.6074,3.6973h-1.6465l-1.8809-2.7188Z"/>
    <path class="cls-10" d="M71.6233,10.7221v1.541h1.1191v1.0547h-1.1191v3.5391c0,.2422.0479.417.1436.5244s.2666.1611.5127.1611c.1641,0,.3301-.0195.498-.0586v1.1016c-.3242.0898-.6367.1348-.9375.1348-1.0938,0-1.6406-.6035-1.6406-1.8105v-3.5918h-1.043v-1.0547h1.043v-1.541h1.4238Z"/>
    <path class="cls-10" d="M75.4905,10.5053l.8555-.9082h1.2188v.0586l-1.6348,1.6348h-.8789l-1.623-1.6406v-.0527h1.207l.8555.9082ZM77.1487,13.5639c-.1875-.0312-.3809-.0469-.5801-.0469-.6523,0-1.0918.25-1.3184.75v4.3359h-1.4238v-6.3398h1.3594l.0352.709c.3438-.5508.8203-.8262,1.4297-.8262.2031,0,.3711.0273.5039.082l-.0059,1.3359Z"/>
    <path class="cls-10" d="M78.051,10.6166c0-.2188.0693-.4004.208-.5449s.3369-.2168.5947-.2168.457.0723.5977.2168.2109.3262.2109.5449c0,.2148-.0703.3936-.2109.5361s-.3398.2139-.5977.2139-.4561-.0713-.5947-.2139-.208-.3213-.208-.5361ZM79.5627,18.6029h-1.4238v-6.3398h1.4238v6.3398Z"/>
    <path class="cls-10" d="M82.4338,12.2631l.041.7324c.4688-.5664,1.084-.8496,1.8457-.8496,1.3203,0,1.9922.7559,2.0156,2.2676v4.1895h-1.4238v-4.1074c0-.4023-.0869-.7002-.2607-.8936s-.458-.29-.8525-.29c-.5742,0-1.002.2598-1.2832.7793v4.5117h-1.4238v-6.3398h1.3418Z"/>
    <path class="cls-10" d="M90.0041,16.5639l1.2891-4.3008h1.5176l-2.5195,7.3008c-.3867,1.0664-1.043,1.5996-1.9688,1.5996-.207,0-.4355-.0352-.6855-.106v-1.1069l.2695.0176c.3594,0,.6299-.0654.8115-.1963s.3252-.3501.4307-.6587l.2051-.5444-2.2266-6.3057h1.5352l1.3418,4.3008Z"/>
    <path class="cls-10" d="M100.4045,18.6029c-.0625-.1211-.1172-.3184-.1641-.5918-.4531.4727-1.0078.709-1.6641.709-.6367,0-1.1562-.1816-1.5586-.5449s-.6035-.8125-.6035-1.3477c0-.6758.251-1.1943.7529-1.5557s1.2197-.542,2.1533-.542h.873v-.416c0-.3281-.0918-.5908-.2754-.7881s-.4629-.2959-.8379-.2959c-.3242,0-.5898.0811-.7969.2432s-.3105.3682-.3105.6182h-1.4238c0-.3477.1152-.6729.3457-.9756s.5439-.54.9404-.7119.8389-.2578,1.3271-.2578c.7422,0,1.334.1865,1.7754.5596s.668.8975.6797,1.5732v2.8594c0,.5703.0801,1.0254.2402,1.3652v.0996h-1.4531ZM98.8401,17.5775c.2812,0,.5459-.0684.7939-.2051s.4346-.3203.5596-.5508v-1.1953h-.7676c-.5273,0-.9238.0918-1.1895.2754s-.3984.4434-.3984.7793c0,.2734.0908.4912.2725.6533s.4248.2432.7295.2432Z"/>
    <path class="cls-10" d="M107.8811,10.7221v1.541h1.1191v1.0547h-1.1191v3.5391c0,.2422.0479.417.1436.5244s.2666.1611.5127.1611c.1641,0,.3301-.0195.498-.0586v1.1016c-.3242.0898-.6367.1348-.9375.1348-1.0938,0-1.6406-.6035-1.6406-1.8105v-3.5918h-1.043v-1.0547h1.043v-1.541h1.4238Z"/>
    <path class="cls-10" d="M112.8791,18.7201c-.9023,0-1.6338-.2842-2.1943-.8525s-.8408-1.3252-.8408-2.2705v-.1758c0-.6328.1221-1.1982.3662-1.6963s.5869-.8857,1.0283-1.1631.9336-.416,1.4766-.416c.8633,0,1.5303.2754,2.001.8262s.7061,1.3301.7061,2.3379v.5742h-4.1426c.043.5234.2178.9375.5244,1.2422s.6924.457,1.1572.457c.6523,0,1.1836-.2637,1.5938-.791l.7676.7324c-.2539.3789-.5928.6729-1.0166.8818s-.8994.3135-1.4268.3135ZM112.7092,13.2885c-.3906,0-.7061.1367-.9463.4102s-.3936.6543-.46,1.1426h2.7129v-.1055c-.0312-.4766-.1582-.8369-.3809-1.0811s-.5312-.3662-.9258-.3662Z"/>
    <path class="cls-10" d="M122.0783,15.4975c0,.9805-.2227,1.7627-.668,2.3467s-1.043.876-1.793.876c-.6953,0-1.252-.2285-1.6699-.6855v3.0059h-1.4238v-8.7773h1.3125l.0586.6445c.418-.5078.9863-.7617,1.7051-.7617.7734,0,1.3799.2881,1.8193.8643s.6592,1.376.6592,2.3994v.0879ZM120.6604,15.3744c0-.6328-.126-1.1348-.3779-1.5059s-.6123-.5566-1.0811-.5566c-.582,0-1,.2402-1.2539.7207v2.8125c.2578.4922.6797.7383,1.2656.7383.4531,0,.8076-.1826,1.0635-.5479s.3838-.9189.3838-1.6611Z"/>
    <path class="cls-10" d="M124.7971,18.6029h-1.4238v-9h1.4238v9Z"/>
    <path class="cls-10" d="M130.135,18.6029c-.0625-.1211-.1172-.3184-.1641-.5918-.4531.4727-1.0078.709-1.6641.709-.6367,0-1.1562-.1816-1.5586-.5449s-.6035-.8125-.6035-1.3477c0-.6758.251-1.1943.7529-1.5557s1.2197-.542,2.1533-.542h.873v-.416c0-.3281-.0918-.5908-.2754-.7881s-.4629-.2959-.8379-.2959c-.3242,0-.5898.0811-.7969.2432s-.3105.3682-.3105.6182h-1.4238c0-.3477.1152-.6729.3457-.9756s.5439-.54.9404-.7119.8389-.2578,1.3271-.2578c.7422,0,1.334.1865,1.7754.5596s.668.8975.6797,1.5732v2.8594c0,.5703.0801,1.0254.2402,1.3652v.0996h-1.4531ZM128.5705,17.5775c.2812,0,.5459-.0684.7939-.2051s.4346-.3203.5596-.5508v-1.1953h-.7676c-.5273,0-.9238.0918-1.1895.2754s-.3984.4434-.3984.7793c0,.2734.0908.4912.2725.6533s.4248.2432.7295.2432Z"/>
  </g>
  <g>
    <path class="cls-10" d="M197.1574,15.4389v3.1641h-1.4824v-8.5312h3.2637c.9531,0,1.71.2485,2.2705.7451s.8408,1.1533.8408,1.9707c0,.8369-.2744,1.4878-.8232,1.9531-.5488.4658-1.3174.6982-2.3057.6982h-1.7637ZM197.1574,14.2436h1.7812c.5273,0,.9297-.124,1.207-.3721s.416-.6064.416-1.0752c0-.4609-.1406-.8291-.4219-1.1045s-.668-.417-1.1602-.4248h-1.8223v2.9766Z"/>
    <path class="cls-10" d="M206.5266,13.5639c-.1875-.0312-.3809-.0469-.5801-.0469-.6523,0-1.0918.25-1.3184.75v4.3359h-1.4238v-6.3398h1.3594l.0352.709c.3438-.5508.8203-.8262,1.4297-.8262.2031,0,.3711.0273.5039.082l-.0059,1.3359Z"/>
    <path class="cls-10" d="M211.2668,17.9818c-.418.4922-1.0117.7383-1.7812.7383-.6875,0-1.208-.2012-1.5615-.6035s-.5303-.9844-.5303-1.7461v-4.1074h1.4238v4.0898c0,.8047.334,1.207,1.002,1.207.6914,0,1.1582-.248,1.4004-.7441v-4.5527h1.4238v6.3398h-1.3418l-.0352-.6211ZM210.0364,9.0522c.3633,0,.6699.1201.9199.3604s.375.5264.375.8584-.1221.6152-.3662.8496-.5537.3516-.9287.3516c-.3789,0-.6904-.1172-.9346-.3516s-.3662-.5176-.3662-.8496.124-.6182.3721-.8584.5576-.3604.9287-.3604ZM209.3801,10.2709c0,.1836.0645.3389.1934.4658s.2832.1904.4629.1904c.1836,0,.3389-.0625.4658-.1875s.1904-.2812.1904-.4688c0-.1797-.0615-.335-.1846-.4658s-.2803-.1963-.4717-.1963-.3486.0654-.4717.1963-.1846.2861-.1846.4658Z"/>
    <path class="cls-10" d="M215.4328,12.2631l.041.6621c.4453-.5195,1.0547-.7793,1.8281-.7793.8477,0,1.4277.3242,1.7402.9727.4609-.6484,1.1094-.9727,1.9453-.9727.6992,0,1.2197.1934,1.5615.5801s.5166.957.5244,1.7109v4.166h-1.4238v-4.125c0-.4023-.0879-.6973-.2637-.8848s-.4668-.2812-.873-.2812c-.3242,0-.5889.0869-.7939.2607s-.3486.4014-.4307.6826l.0059,4.3477h-1.4238v-4.1719c-.0195-.7461-.4004-1.1191-1.1426-1.1191-.5703,0-.9746.2324-1.2129.6973v4.5938h-1.4238v-6.3398h1.3418Z"/>
    <path class="cls-10" d="M226.7532,16.5639l1.2891-4.3008h1.5176l-2.5195,7.3008c-.3867,1.0664-1.043,1.5996-1.9688,1.5996-.207,0-.4355-.0352-.6855-.106v-1.1069l.2695.0176c.3594,0,.6299-.0654.8115-.1963s.3252-.3501.4307-.6587l.2051-.5444-2.2266-6.3057h1.5352l1.3418,4.3008Z"/>
    <path class="cls-10" d="M233.9309,16.8803c0-.2539-.1045-.4473-.3135-.5801s-.5557-.25-1.04-.3516-.8887-.2305-1.2129-.3867c-.7109-.3438-1.0664-.8418-1.0664-1.4941,0-.5469.2305-1.0039.6914-1.3711s1.0469-.5508,1.7578-.5508c.7578,0,1.3701.1875,1.8369.5625s.7002.8613.7002,1.459h-1.4238c0-.2734-.1016-.501-.3047-.6826s-.4727-.2725-.8086-.2725c-.3125,0-.5674.0723-.7646.2168s-.2959.3379-.2959.5801c0,.2188.0918.3887.2754.5098s.5547.2432,1.1133.3662.9971.2695,1.3154.4395.5547.374.709.6123.2314.5273.2314.8672c0,.5703-.2363,1.0322-.709,1.3857s-1.0918.5303-1.8574.5303c-.5195,0-.9824-.0938-1.3887-.2812s-.7227-.4453-.9492-.7734-.3398-.6816-.3398-1.0605h1.3828c.0195.3359.1465.5947.3809.7764s.5449.2725.9316.2725c.375,0,.6602-.0713.8555-.2139s.293-.3291.293-.5596Z"/>
    <path class="cls-10" d="M238.0852,18.6029h-1.4238v-9h1.4238v9Z"/>
  </g>
  <g>
    <path class="cls-10" d="M450.3532,18.6029v-8.5312h2.9238c.9648,0,1.6992.1934,2.2031.5801s.7559.9629.7559,1.7285c0,.3906-.1055.7422-.3164,1.0547s-.5195.5547-.9258.7266c.4609.125.8174.3604,1.0693.7061s.3779.7607.3779,1.2451c0,.8008-.2568,1.416-.7705,1.8457s-1.249.6445-2.2061.6445h-3.1113ZM451.8357,13.6635h1.4531c.4609,0,.8213-.1045,1.0811-.3135s.3896-.5049.3896-.8877c0-.4219-.1201-.7266-.3604-.9141s-.6143-.2812-1.1221-.2812h-1.4414v2.3965ZM451.8357,14.7533v2.666h1.6465c.4648,0,.8281-.1152,1.0898-.3457s.3926-.5508.3926-.9609c0-.8867-.4531-1.3398-1.3594-1.3594h-1.7695Z"/>
    <path class="cls-10" d="M461.6267,17.9818c-.418.4922-1.0117.7383-1.7812.7383-.6875,0-1.208-.2012-1.5615-.6035s-.5303-.9844-.5303-1.7461v-4.1074h1.4238v4.0898c0,.8047.334,1.207,1.002,1.207.6914,0,1.1582-.248,1.4004-.7441v-4.5527h1.4238v6.3398h-1.3418l-.0352-.6211Z"/>
    <path class="cls-10" d="M464.1872,15.3861c0-.9766.2266-1.7607.6797-2.3525s1.0605-.8877,1.8223-.8877c.6719,0,1.2148.2344,1.6289.7031v-3.2461h1.4238v9h-1.2891l-.0703-.6562c-.4258.5156-.9941.7734-1.7051.7734-.7422,0-1.3428-.2988-1.8018-.8965s-.6885-1.4102-.6885-2.4375ZM465.6111,15.5092c0,.6445.124,1.1475.3721,1.5088s.6006.542,1.0576.542c.582,0,1.0078-.2598,1.2773-.7793v-2.707c-.2617-.5078-.6836-.7617-1.2656-.7617-.4609,0-.8164.1826-1.0664.5479s-.375.915-.375,1.6494Z"/>
    <path class="cls-10" d="M470.9607,15.3744c0-.6211.123-1.1807.3691-1.6787s.5918-.8809,1.0371-1.1484.957-.4014,1.5352-.4014c.8555,0,1.5498.2754,2.083.8262s.8213,1.2812.8643,2.1914l.0059.334c0,.625-.1201,1.1836-.3604,1.6758s-.584.873-1.0312,1.1426-.9639.4043-1.5498.4043c-.8945,0-1.6104-.2979-2.1475-.8936s-.8057-1.3896-.8057-2.3818v-.0703ZM472.3845,15.4975c0,.6523.1348,1.1631.4043,1.5322s.6445.5537,1.125.5537.8545-.1875,1.1221-.5625.4014-.9238.4014-1.6465c0-.6406-.1377-1.1484-.4131-1.5234s-.6494-.5625-1.1221-.5625c-.4648,0-.834.1846-1.1074.5537s-.4102.9209-.4102,1.6553Z"/>
    <path class="cls-10" d="M480.2068,16.7982l1.3418-4.5352h1.4707l-2.1973,6.3398h-1.2363l-2.2148-6.3398h1.4766l1.3594,4.5352Z"/>
    <path class="cls-10" d="M486.1247,16.5639l1.2891-4.3008h1.5176l-2.5195,7.3008c-.3867,1.0664-1.043,1.5996-1.9688,1.5996-.207,0-.4355-.0352-.6855-.106v-1.1069l.2695.0176c.3594,0,.6299-.0654.8115-.1963s.3252-.3501.4307-.6587l.2051-.5444-2.2266-6.3057h1.5352l1.3418,4.3008Z"/>
  </g>
  <g>
    <path class="cls-10" d="M513.1999,10.0717h1.4766v5.9824c0,.8164-.2549,1.4648-.7646,1.9453s-1.1826.7207-2.0186.7207c-.8906,0-1.5781-.2246-2.0625-.6738s-.7266-1.0742-.7266-1.875h1.4766c0,.4531.1123.7939.3369,1.0225s.5498.3428.9756.3428c.3984,0,.7158-.1318.9521-.3955s.3545-.6279.3545-1.0928v-5.9766Z"/>
    <path class="cls-10" d="M516.2351,10.6166c0-.2188.0693-.4004.208-.5449s.3369-.2168.5947-.2168.457.0723.5977.2168.2109.3262.2109.5449c0,.2148-.0703.3936-.2109.5361s-.3398.2139-.5977.2139-.4561-.0713-.5947-.2139-.208-.3213-.208-.5361ZM517.7468,18.6029h-1.4238v-6.3398h1.4238v6.3398Z"/>
    <path class="cls-10" d="M520.6179,12.2631l.041.7324c.4688-.5664,1.084-.8496,1.8457-.8496,1.3203,0,1.9922.7559,2.0156,2.2676v4.1895h-1.4238v-4.1074c0-.4023-.0869-.7002-.2607-.8936s-.458-.29-.8525-.29c-.5742,0-1.002.2598-1.2832.7793v4.5117h-1.4238v-6.3398h1.3418Z"/>
    <path class="cls-10" d="M528.7624,18.7201c-.9023,0-1.6338-.2842-2.1943-.8525s-.8408-1.3252-.8408-2.2705v-.1758c0-.6328.1221-1.1982.3662-1.6963s.5869-.8857,1.0283-1.1631.9336-.416,1.4766-.416c.8633,0,1.5303.2754,2.001.8262s.7061,1.3301.7061,2.3379v.5742h-4.1426c.043.5234.2178.9375.5244,1.2422s.6924.457,1.1572.457c.6523,0,1.1836-.2637,1.5938-.791l.7676.7324c-.2539.3789-.5928.6729-1.0166.8818s-.8994.3135-1.4268.3135ZM528.5925,13.2885c-.3906,0-.7061.1367-.9463.4102s-.3936.6543-.46,1.1426h2.7129v-.1055c-.0312-.4766-.1582-.8369-.3809-1.0811s-.5312-.3662-.9258-.3662ZM528.9148,9.6029h1.623l-1.623,1.7754-1.1426-.0029,1.1426-1.7725Z"/>
    <path class="cls-10" d="M538.1902,18.7201c-.9023,0-1.6338-.2842-2.1943-.8525s-.8408-1.3252-.8408-2.2705v-.1758c0-.6328.1221-1.1982.3662-1.6963s.5869-.8857,1.0283-1.1631.9336-.416,1.4766-.416c.8633,0,1.5303.2754,2.001.8262s.7061,1.3301.7061,2.3379v.5742h-4.1426c.043.5234.2178.9375.5244,1.2422s.6924.457,1.1572.457c.6523,0,1.1836-.2637,1.5938-.791l.7676.7324c-.2539.3789-.5928.6729-1.0166.8818s-.8994.3135-1.4268.3135ZM538.0202,13.2885c-.3906,0-.7061.1367-.9463.4102s-.3936.6543-.46,1.1426h2.7129v-.1055c-.0312-.4766-.1582-.8369-.3809-1.0811s-.5312-.3662-.9258-.3662Z"/>
    <path class="cls-10" d="M543.1765,12.2631l.041.6621c.4453-.5195,1.0547-.7793,1.8281-.7793.8477,0,1.4277.3242,1.7402.9727.4609-.6484,1.1094-.9727,1.9453-.9727.6992,0,1.2197.1934,1.5615.5801s.5166.957.5244,1.7109v4.166h-1.4238v-4.125c0-.4023-.0879-.6973-.2637-.8848s-.4668-.2812-.873-.2812c-.3242,0-.5889.0869-.7939.2607s-.3486.4014-.4307.6826l.0059,4.3477h-1.4238v-4.1719c-.0195-.7461-.4004-1.1191-1.1426-1.1191-.5703,0-.9746.2324-1.2129.6973v4.5938h-1.4238v-6.3398h1.3418Z"/>
    <path class="cls-10" d="M552.282,10.6166c0-.2188.0693-.4004.208-.5449s.3369-.2168.5947-.2168.457.0723.5977.2168.2109.3262.2109.5449c0,.2148-.0703.3936-.2109.5361s-.3398.2139-.5977.2139-.4561-.0713-.5947-.2139-.208-.3213-.208-.5361ZM553.7937,18.6029h-1.4238v-6.3398h1.4238v6.3398Z"/>
    <path class="cls-10" d="M558.8972,16.8803c0-.2539-.1045-.4473-.3135-.5801s-.5557-.25-1.04-.3516-.8887-.2305-1.2129-.3867c-.7109-.3438-1.0664-.8418-1.0664-1.4941,0-.5469.2305-1.0039.6914-1.3711s1.0469-.5508,1.7578-.5508c.7578,0,1.3701.1875,1.8369.5625s.7002.8613.7002,1.459h-1.4238c0-.2734-.1016-.501-.3047-.6826s-.4727-.2725-.8086-.2725c-.3125,0-.5674.0723-.7646.2168s-.2959.3379-.2959.5801c0,.2188.0918.3887.2754.5098s.5547.2432,1.1133.3662.9971.2695,1.3154.4395.5547.374.709.6123.2314.5273.2314.8672c0,.5703-.2363,1.0322-.709,1.3857s-1.0918.5303-1.8574.5303c-.5195,0-.9824-.0938-1.3887-.2812s-.7227-.4453-.9492-.7734-.3398-.6816-.3398-1.0605h1.3828c.0195.3359.1465.5947.3809.7764s.5449.2725.9316.2725c.375,0,.6602-.0713.8555-.2139s.293-.3291.293-.5596Z"/>
    <path class="cls-10" d="M564.3288,18.7201c-.9023,0-1.6338-.2842-2.1943-.8525s-.8408-1.3252-.8408-2.2705v-.1758c0-.6328.1221-1.1982.3662-1.6963s.5869-.8857,1.0283-1.1631.9336-.416,1.4766-.416c.8633,0,1.5303.2754,2.001.8262s.7061,1.3301.7061,2.3379v.5742h-4.1426c.043.5234.2178.9375.5244,1.2422s.6924.457,1.1572.457c.6523,0,1.1836-.2637,1.5938-.791l.7676.7324c-.2539.3789-.5928.6729-1.0166.8818s-.8994.3135-1.4268.3135ZM564.1589,13.2885c-.3906,0-.7061.1367-.9463.4102s-.3936.6543-.46,1.1426h2.7129v-.1055c-.0312-.4766-.1582-.8369-.3809-1.0811s-.5312-.3662-.9258-.3662Z"/>
  </g>
  <path class="cls-8" d="M5.1145,52.0881v-26.3314h188.9788v26.3314H5.1145Z"/>
  <path class="cls-7" d="M194.0933,52.0881v-26.3314h163.7816v26.3314h-163.7816Z"/>
  <path class="cls-7" d="M450.2645,52.0881v-26.3314h58.7934v26.3314h-58.7934Z"/>
  <path class="cls-7" d="M509.0579,52.0881v-26.3314h75.5881v26.3314h-75.5881Z"/>
  <g>
    <path class="cls-10" d="M16.4773,38.4396h.8672c.4375-.0039.7842-.1172,1.04-.3398s.3838-.5449.3838-.9668c0-.4062-.1064-.7217-.3193-.9463s-.5381-.3369-.9756-.3369c-.3828,0-.6973.1104-.9434.3311s-.3691.5088-.3691.8643h-1.4238c0-.4375.1162-.8359.3486-1.1953s.5566-.6396.9727-.8408.8818-.3018,1.3975-.3018c.8516,0,1.5205.2139,2.0068.6416s.7295,1.0225.7295,1.7842c0,.3828-.1221.7432-.3662,1.0811s-.5596.5928-.9463.7646c.4688.1602.8252.4121,1.0693.7559s.3662.7539.3662,1.2305c0,.7656-.2627,1.375-.7881,1.8281s-1.2158.6797-2.0713.6797c-.8203,0-1.4922-.2188-2.0156-.6562s-.7852-1.0195-.7852-1.7461h1.4238c0,.375.126.6797.3779.9141s.5908.3516,1.0166.3516c.4414,0,.7891-.1172,1.043-.3516s.3809-.5742.3809-1.0195c0-.4492-.1328-.7949-.3984-1.0371s-.6602-.3633-1.1836-.3633h-.8379v-1.125Z"/>
    <path class="cls-10" d="M23.2976,38.4396h.8672c.4375-.0039.7842-.1172,1.04-.3398s.3838-.5449.3838-.9668c0-.4062-.1064-.7217-.3193-.9463s-.5381-.3369-.9756-.3369c-.3828,0-.6973.1104-.9434.3311s-.3691.5088-.3691.8643h-1.4238c0-.4375.1162-.8359.3486-1.1953s.5566-.6396.9727-.8408.8818-.3018,1.3975-.3018c.8516,0,1.5205.2139,2.0068.6416s.7295,1.0225.7295,1.7842c0,.3828-.1221.7432-.3662,1.0811s-.5596.5928-.9463.7646c.4688.1602.8252.4121,1.0693.7559s.3662.7539.3662,1.2305c0,.7656-.2627,1.375-.7881,1.8281s-1.2158.6797-2.0713.6797c-.8203,0-1.4922-.2188-2.0156-.6562s-.7852-1.0195-.7852-1.7461h1.4238c0,.375.126.6797.3779.9141s.5908.3516,1.0166.3516c.4414,0,.7891-.1172,1.043-.3516s.3809-.5742.3809-1.0195c0-.4492-.1328-.7949-.3984-1.0371s-.6602-.3633-1.1836-.3633h-.8379v-1.125Z"/>
    <path class="cls-10" d="M30.8127,36.465c0-.5156.166-.9385.498-1.2686s.7676-.4951,1.3066-.4951c.5469,0,.9854.165,1.3154.4951s.4951.7627.4951,1.2979v.4219c0,.5117-.165.9316-.4951,1.2598s-.7646.4922-1.3037.4922c-.5273,0-.9619-.1611-1.3037-.4834s-.5127-.7568-.5127-1.3037v-.416ZM31.8088,36.9137c0,.2703.0752.4888.2256.655.1504.1665.3486.2498.5947.2498.2422,0,.4375-.0833.5859-.2498.1484-.1663.2227-.3926.2227-.6785v-.4287c0-.2703-.0752-.4895-.2256-.658s-.3486-.2527-.5947-.2527-.4424.0852-.5889.2556c-.1465.1702-.2197.3945-.2197.6726v.4346ZM32.9221,42.7169l-.7324-.4219,4.166-6.668.7324.4219-4.166,6.668ZM34.9143,41.2638c0-.5234.1699-.9473.5098-1.2715s.7734-.4863,1.3008-.4863c.5312,0,.9658.1621,1.3037.4863s.5068.7617.5068,1.3125v.416c0,.5078-.1631.9268-.4893,1.2568s-.7627.4951-1.3096.4951-.9873-.1631-1.3213-.4893-.501-.7568-.501-1.292v-.4277ZM35.9104,41.715c0,.2656.0771.4834.2314.6533s.3525.2549.5947.2549c.25,0,.4463-.0811.5889-.2432s.2139-.3896.2139-.6826v-.4395c0-.2734-.0762-.4922-.2285-.6562s-.3477-.2461-.5859-.2461c-.2422,0-.4385.082-.5889.2461s-.2256.3906-.2256.6797v.4336Z"/>
  </g>
  <g>
    <path class="cls-10" d="M209.0696,43.3556h-5.7363v-.9785l2.8418-3.0996c.4102-.457.7021-.8389.876-1.1455s.2607-.6143.2607-.9229c0-.4062-.1143-.7344-.3428-.9844s-.5361-.375-.9229-.375c-.4609,0-.8184.1406-1.0723.4219s-.3809.666-.3809,1.1543h-1.4238c0-.5195.1182-.9873.3545-1.4033s.5742-.7393,1.0137-.9697.9463-.3457,1.5205-.3457c.8281,0,1.4814.208,1.96.624s.7178.9912.7178,1.7256c0,.4258-.1201.8721-.3604,1.3389s-.6338.9971-1.1807,1.5908l-2.0859,2.2324h3.9609v1.1367Z"/>
    <path class="cls-10" d="M215.5266,37.0744c0,.418-.1074.79-.3223,1.1162s-.5078.583-.8789.7705c.4453.207.7881.4902,1.0283.8496s.3604.7656.3604,1.2188c0,.75-.2539,1.3447-.7617,1.7842s-1.1836.6592-2.0273.6592c-.8477,0-1.5264-.2207-2.0361-.6621s-.7646-1.0352-.7646-1.7812c0-.457.1211-.8672.3633-1.2305s.582-.6426,1.0195-.8379c-.3672-.1875-.6572-.4443-.8701-.7705s-.3193-.6982-.3193-1.1162c0-.7266.2344-1.3027.7031-1.7285s1.1016-.6387,1.8984-.6387c.8008,0,1.4355.2129,1.9043.6387s.7031,1.002.7031,1.7285ZM214.2903,40.9591c0-.4219-.126-.7627-.3779-1.0225s-.585-.3896-.999-.3896-.7451.1289-.9932.3867-.3721.5996-.3721,1.0254c0,.418.1221.752.3662,1.002s.5811.375,1.0107.375.7646-.1211,1.0049-.3633.3604-.5801.3604-1.0137ZM214.1086,37.1271c0-.3711-.1074-.6768-.3223-.917s-.5039-.3604-.8672-.3604-.6504.1143-.8613.3428-.3164.54-.3164.9346c0,.3906.1064.7012.3193.9316s.501.3457.8643.3457.6514-.1152.8643-.3457.3193-.541.3193-.9316Z"/>
    <path class="cls-10" d="M219.3152,36.465c0-.5156.166-.9385.498-1.2686s.7676-.4951,1.3066-.4951c.5469,0,.9854.165,1.3154.4951s.4951.7627.4951,1.2979v.4219c0,.5117-.165.9316-.4951,1.2598s-.7646.4922-1.3037.4922c-.5273,0-.9619-.1611-1.3037-.4834s-.5127-.7568-.5127-1.3037v-.416ZM220.3113,36.9137c0,.2703.0752.4888.2256.655.1504.1665.3486.2498.5947.2498.2422,0,.4375-.0833.5859-.2498.1484-.1663.2227-.3926.2227-.6785v-.4287c0-.2703-.0752-.4895-.2256-.658s-.3486-.2527-.5947-.2527-.4424.0852-.5889.2556c-.1465.1702-.2197.3945-.2197.6726v.4346ZM221.4245,42.7169l-.7324-.4219,4.166-6.668.7324.4219-4.166,6.668ZM223.4167,41.2638c0-.5234.1699-.9473.5098-1.2715s.7734-.4863,1.3008-.4863c.5312,0,.9658.1621,1.3037.4863s.5068.7617.5068,1.3125v.416c0,.5078-.1631.9268-.4893,1.2568s-.7627.4951-1.3096.4951-.9873-.1631-1.3213-.4893-.501-.7568-.501-1.292v-.4277ZM224.4128,41.715c0,.2656.0771.4834.2314.6533s.3525.2549.5947.2549c.25,0,.4463-.0811.5889-.2432s.2139-.3896.2139-.6826v-.4395c0-.2734-.0762-.4922-.2285-.6562s-.3477-.2461-.5859-.2461c-.2422,0-.4385.082-.5889.2461s-.2256.3906-.2256.6797v.4336Z"/>
  </g>
  <g>
    <path class="cls-10" d="M461.32,43.3556h-1.418v-6.8538l-2.0918.7131v-1.1953l3.3281-1.2246h.1816v8.5605Z"/>
    <path class="cls-10" d="M469.8454,39.7638c0,1.2266-.2295,2.1514-.6885,2.7744s-1.1572.9346-2.0947.9346c-.9219,0-1.6162-.3037-2.083-.9111s-.7061-1.5068-.7178-2.6982v-1.4766c0-1.2266.2295-2.1465.6885-2.7598s1.1592-.9199,2.1006-.9199c.9336,0,1.6299.2988,2.0889.8965s.6943,1.4922.7061,2.6836v1.4766ZM468.4216,38.1701c0-.8008-.1094-1.3877-.3281-1.7607s-.5664-.5596-1.043-.5596c-.4648,0-.8066.1768-1.0254.5303s-.334.9053-.3457,1.6553v1.9336c0,.7969.1113,1.3906.334,1.7812s.5723.5859,1.0488.5859c.457,0,.7949-.1807,1.0137-.542s.334-.9268.3457-1.6963v-1.9277Z"/>
    <path class="cls-10" d="M473.4465,36.465c0-.5156.166-.9385.498-1.2686s.7676-.4951,1.3066-.4951c.5469,0,.9854.165,1.3154.4951s.4951.7627.4951,1.2979v.4219c0,.5117-.165.9316-.4951,1.2598s-.7646.4922-1.3037.4922c-.5273,0-.9619-.1611-1.3037-.4834s-.5127-.7568-.5127-1.3037v-.416ZM474.4426,36.9137c0,.2703.0752.4888.2256.655.1504.1665.3486.2498.5947.2498.2422,0,.4375-.0833.5859-.2498.1484-.1663.2227-.3926.2227-.6785v-.4287c0-.2703-.0752-.4895-.2256-.658s-.3486-.2527-.5947-.2527-.4424.0852-.5889.2556c-.1465.1702-.2197.3945-.2197.6726v.4346ZM475.5559,42.7169l-.7324-.4219,4.166-6.668.7324.4219-4.166,6.668ZM477.5481,41.2638c0-.5234.1699-.9473.5098-1.2715s.7734-.4863,1.3008-.4863c.5312,0,.9658.1621,1.3037.4863s.5068.7617.5068,1.3125v.416c0,.5078-.1631.9268-.4893,1.2568s-.7627.4951-1.3096.4951-.9873-.1631-1.3213-.4893-.501-.7568-.501-1.292v-.4277ZM478.5442,41.715c0,.2656.0771.4834.2314.6533s.3525.2549.5947.2549c.25,0,.4463-.0811.5889-.2432s.2139-.3896.2139-.6826v-.4395c0-.2734-.0762-.4922-.2285-.6562s-.3477-.2461-.5859-.2461c-.2422,0-.4385.082-.5889.2461s-.2256.3906-.2256.6797v.4336Z"/>
  </g>
  <g>
    <path class="cls-10" d="M520.5632,43.3556h-1.418v-6.8538l-2.0918.7131v-1.1953l3.3281-1.2246h.1816v8.5605Z"/>
    <path class="cls-10" d="M525.1745,38.4396h.8672c.4375-.0039.7842-.1172,1.04-.3398s.3838-.5449.3838-.9668c0-.4062-.1064-.7217-.3193-.9463s-.5381-.3369-.9756-.3369c-.3828,0-.6973.1104-.9434.3311s-.3691.5088-.3691.8643h-1.4238c0-.4375.1162-.8359.3486-1.1953s.5566-.6396.9727-.8408.8818-.3018,1.3975-.3018c.8516,0,1.5205.2139,2.0068.6416s.7295,1.0225.7295,1.7842c0,.3828-.1221.7432-.3662,1.0811s-.5596.5928-.9463.7646c.4688.1602.8252.4121,1.0693.7559s.3662.7539.3662,1.2305c0,.7656-.2627,1.375-.7881,1.8281s-1.2158.6797-2.0713.6797c-.8203,0-1.4922-.2188-2.0156-.6562s-.7852-1.0195-.7852-1.7461h1.4238c0,.375.126.6797.3779.9141s.5908.3516,1.0166.3516c.4414,0,.7891-.1172,1.043-.3516s.3809-.5742.3809-1.0195c0-.4492-.1328-.7949-.3984-1.0371s-.6602-.3633-1.1836-.3633h-.8379v-1.125Z"/>
    <path class="cls-10" d="M532.6897,36.465c0-.5156.166-.9385.498-1.2686s.7676-.4951,1.3066-.4951c.5469,0,.9854.165,1.3154.4951s.4951.7627.4951,1.2979v.4219c0,.5117-.165.9316-.4951,1.2598s-.7646.4922-1.3037.4922c-.5273,0-.9619-.1611-1.3037-.4834s-.5127-.7568-.5127-1.3037v-.416ZM533.6858,36.9137c0,.2703.0752.4888.2256.655.1504.1665.3486.2498.5947.2498.2422,0,.4375-.0833.5859-.2498.1484-.1663.2227-.3926.2227-.6785v-.4287c0-.2703-.0752-.4895-.2256-.658s-.3486-.2527-.5947-.2527-.4424.0852-.5889.2556c-.1465.1702-.2197.3945-.2197.6726v.4346ZM534.799,42.7169l-.7324-.4219,4.166-6.668.7324.4219-4.166,6.668ZM536.7912,41.2638c0-.5234.1699-.9473.5098-1.2715s.7734-.4863,1.3008-.4863c.5312,0,.9658.1621,1.3037.4863s.5068.7617.5068,1.3125v.416c0,.5078-.1631.9268-.4893,1.2568s-.7627.4951-1.3096.4951-.9873-.1631-1.3213-.4893-.501-.7568-.501-1.292v-.4277ZM537.7873,41.715c0,.2656.0771.4834.2314.6533s.3525.2549.5947.2549c.25,0,.4463-.0811.5889-.2432s.2139-.3896.2139-.6826v-.4395c0-.2734-.0762-.4922-.2285-.6562s-.3477-.2461-.5859-.2461c-.2422,0-.4385.082-.5889.2461s-.2256.3906-.2256.6797v.4336Z"/>
  </g>
</svg>