<?xml version="1.0" encoding="UTF-8"?>
<svg id="Layer_1" data-name="Layer 1" xmlns="http://www.w3.org/2000/svg" xmlns:xlink="http://www.w3.org/1999/xlink" viewBox="0 0 660 249.001">
  <defs>
    <style>
      .cls-1, .cls-2 {
        fill: none;
      }

      .cls-1, .cls-3, .cls-4, .cls-5, .cls-6, .cls-7 {
        stroke-width: 0px;
      }

      .cls-8 {
        clip-path: url(#clippath-1);
      }

      .cls-2 {
        stroke: #fff;
        stroke-miterlimit: 10;
      }

      .cls-3 {
        fill: #369ed6;
      }

      .cls-4 {
        fill: #1bb0a3;
      }

      .cls-5 {
        fill: #333;
      }

      .cls-6 {
        fill: #818b98;
      }

      .cls-7 {
        fill: #fff;
      }
    </style>
    <clipPath id="clippath-1">
      <rect class="cls-1" x="395.9859" y="143.6371" width="42.1547" height="58.0333"/>
    </clipPath>
  </defs>
  <rect class="cls-7" x="304.9555" y="203.9922" width="141.8452" height="36.9447"/>
  <rect class="cls-7" x="7.6835" y="205.6774" width="158.1748" height="22.3359"/>
  <rect class="cls-7" x="7.6835" y="113.9682" width="158.1748" height="20.4844"/>
  <rect class="cls-7" x="434.7885" y="162.411" width="101.2968" height="20.4844"/>
  <g>
    <rect class="cls-4" x="395.9859" y="143.6371" width="42.1547" height="58.0333"/>
    <g class="cls-8">
      <g>
        <line class="cls-2" x1="402.5733" y1="138.8857" x2="337.2693" y2="204.1896"/>
        <line class="cls-2" x1="407.1615" y1="138.8857" x2="341.8576" y2="204.1896"/>
        <line class="cls-2" x1="411.7497" y1="138.8857" x2="346.4458" y2="204.1896"/>
        <line class="cls-2" x1="416.3379" y1="138.8857" x2="351.034" y2="204.1896"/>
        <line class="cls-2" x1="420.9262" y1="138.8857" x2="355.6223" y2="204.1896"/>
        <line class="cls-2" x1="425.5144" y1="138.8857" x2="360.2105" y2="204.1896"/>
        <line class="cls-2" x1="430.1026" y1="138.8857" x2="364.7987" y2="204.1896"/>
        <line class="cls-2" x1="434.6908" y1="138.8857" x2="369.3869" y2="204.1896"/>
        <line class="cls-2" x1="439.2791" y1="138.8857" x2="373.9752" y2="204.1896"/>
        <line class="cls-2" x1="443.8673" y1="138.8857" x2="378.5634" y2="204.1896"/>
        <line class="cls-2" x1="448.4555" y1="138.8857" x2="383.1516" y2="204.1896"/>
        <line class="cls-2" x1="453.0437" y1="138.8857" x2="387.7398" y2="204.1896"/>
        <line class="cls-2" x1="457.632" y1="138.8857" x2="392.3281" y2="204.1896"/>
        <line class="cls-2" x1="462.2202" y1="138.8857" x2="396.9163" y2="204.1896"/>
        <line class="cls-2" x1="466.8084" y1="138.8857" x2="401.5045" y2="204.1896"/>
        <line class="cls-2" x1="471.3966" y1="138.8857" x2="406.0927" y2="204.1896"/>
        <line class="cls-2" x1="475.9849" y1="138.8857" x2="410.681" y2="204.1896"/>
        <line class="cls-2" x1="480.5731" y1="138.8857" x2="415.2692" y2="204.1896"/>
        <line class="cls-2" x1="485.1613" y1="138.8857" x2="419.8574" y2="204.1896"/>
        <line class="cls-2" x1="489.7495" y1="138.8857" x2="424.4456" y2="204.1896"/>
        <line class="cls-2" x1="494.3378" y1="138.8857" x2="429.0339" y2="204.1896"/>
        <line class="cls-2" x1="498.926" y1="138.8857" x2="433.6221" y2="204.1896"/>
      </g>
    </g>
  </g>
  <rect class="cls-4" x="302.4236" y="143.6366" width="93.5624" height="58.0333"/>
  <path class="cls-6" d="M5.0114,109.514v-58.0339h404.0927v58.0339H5.0114Z"/>
  <path class="cls-3" d="M5.0114,201.6704v-58.0342h297.4122v58.0342H5.0114Z"/>
  <g>
    <path class="cls-6" d="M9.6296,125.9503l2.2559-7.4854h2.2832l-3.4658,9.9531h-2.1396l-3.4521-9.9531h2.2764l2.2422,7.4854Z"/>
    <path class="cls-6" d="M17.737,125.6222l1.3672-4.6006h2.1191l-2.9736,8.5449-.1641.3896c-.4419.9663-1.1714,1.4492-2.1875,1.4492-.2871,0-.5786-.0435-.875-.1299v-1.4971l.3008.0068c.3735,0,.6528-.0571.8374-.1709s.3291-.3032.4341-.5674l.2324-.6084-2.5908-7.417h2.126l1.374,4.6006ZM18.1677,117.9181h2.1533l-1.8936,2.1191h-1.6064l1.3467-2.1191Z"/>
    <path class="cls-6" d="M26.1589,122.8741c-.269-.0361-.5059-.0547-.7109-.0547-.7476,0-1.2373.2529-1.4697.7588v4.8398h-1.9756v-7.3965h1.8662l.0547.8818c.3965-.6787.9458-1.0186,1.6475-1.0186.2188,0,.4238.0298.6152.0889l-.0273,1.9004Z"/>
    <path class="cls-6" d="M26.5554,124.6515c0-.7334.1411-1.3877.4238-1.9619s.6895-1.0186,1.2202-1.333,1.1475-.4717,1.8491-.4717c.998,0,1.8125.3057,2.4438.916.6313.6108.9834,1.4404,1.0562,2.4883l.0137.5059c0,1.1348-.3169,2.0454-.9502,2.731-.6333.686-1.4834,1.0288-2.5498,1.0288s-1.9175-.3418-2.5532-1.0254-.9536-1.6133-.9536-2.7891v-.0889ZM28.531,124.7916c0,.7031.1323,1.2407.3965,1.6123.2642.3721.6426.5581,1.1348.5581.4785,0,.8521-.1836,1.1211-.5513.269-.3672.4033-.9546.4033-1.7627,0-.689-.1343-1.2231-.4033-1.6021s-.647-.5684-1.1348-.5684c-.4829,0-.8569.1885-1.1211.5649s-.3965.9595-.3965,1.749Z"/>
    <path class="cls-6" d="M41.4441,124.7882c0,1.1851-.2529,2.1089-.7588,2.772s-1.2124.9946-2.1191.9946c-.8022,0-1.4424-.3076-1.9209-.9229l-.0889.7861h-1.7773v-10.5h1.9756v3.7666c.4556-.5332,1.0552-.7998,1.7979-.7998.9023,0,1.6099.3315,2.1226.9946s.769,1.5962.769,2.7993v.1094ZM39.4685,124.6446c0-.7471-.1187-1.293-.3555-1.6372-.2368-.3438-.5903-.5161-1.0596-.5161-.6289,0-1.062.2578-1.2988.7725v2.9189c.2417.5195.6792.7793,1.3125.7793.6382,0,1.0571-.3145,1.2578-.9434.0957-.3008.1436-.7588.1436-1.374Z"/>
    <path class="cls-6" d="M46.947,128.4181c-.0913-.1777-.1572-.3984-.1982-.6631-.4785.5332-1.1006.7998-1.8662.7998-.7246,0-1.3252-.2095-1.8013-.6289-.4761-.4189-.7144-.9478-.7144-1.5859,0-.7837.2905-1.3853.8716-1.8047.5811-.4189,1.4209-.6309,2.519-.6357h.9092v-.4238c0-.3418-.0879-.6152-.2632-.8203s-.4521-.3076-.8306-.3076c-.3325,0-.5938.0801-.7827.2393-.189.1597-.2837.3784-.2837.6562h-1.9756c0-.4282.1323-.8247.3965-1.1895.2642-.3643.6382-.6504,1.1211-.8579.4829-.207,1.0254-.311,1.627-.311.9116,0,1.6348.229,2.1704.687s.8032,1.1021.8032,1.9312v3.2061c.0044.7021.1025,1.2329.2939,1.5928v.1162h-1.9961ZM45.3132,127.044c.2915,0,.5605-.0649.8066-.1948s.4282-.3042.5469-.5229v-1.2715h-.7383c-.9888,0-1.5151.3418-1.5791,1.0254l-.0068.1162c0,.2461.0864.4492.2598.6084.1733.1597.4102.2393.7109.2393Z"/>
    <path class="cls-6" d="M57.0574,128.5548c-1.0845,0-1.9678-.3325-2.6489-.998-.6812-.665-1.022-1.5518-1.022-2.6592v-.1914c0-.7427.1436-1.4067.4307-1.9927.2871-.5854.6938-1.0366,1.2202-1.3535.5264-.3164,1.127-.4751,1.8013-.4751,1.0117,0,1.8081.3193,2.3892.957.5811.6382.8716,1.543.8716,2.7139v.8066h-4.71c.064.4834.2563.8706.5776,1.1621.3213.292.728.4375,1.2202.4375.7612,0,1.356-.2754,1.7842-.8271l.9707,1.0869c-.2964.4194-.6973.7466-1.2031.981-.5059.2349-1.0664.3521-1.6816.3521ZM56.8318,122.4776c-.3921,0-.71.1328-.9536.3984s-.3999.6455-.4683,1.1396h2.748v-.1577c-.0093-.4395-.1274-.7793-.3555-1.0195-.228-.2407-.5513-.3608-.9707-.3608Z"/>
    <path class="cls-6" d="M63.3054,128.4181h-1.9824v-10.5h1.9824v10.5Z"/>
    <path class="cls-6" d="M68.3366,128.5548c-1.0845,0-1.9678-.3325-2.6489-.998-.6812-.665-1.022-1.5518-1.022-2.6592v-.1914c0-.7427.1436-1.4067.4307-1.9927.2871-.5854.6938-1.0366,1.2202-1.3535.5264-.3164,1.127-.4751,1.8013-.4751,1.0117,0,1.8081.3193,2.3892.957.5811.6382.8716,1.543.8716,2.7139v.8066h-4.71c.064.4834.2563.8706.5776,1.1621.3213.292.728.4375,1.2202.4375.7612,0,1.356-.2754,1.7842-.8271l.9707,1.0869c-.2964.4194-.6973.7466-1.2031.981-.5059.2349-1.0664.3521-1.6816.3521ZM68.1111,122.4776c-.3921,0-.71.1328-.9536.3984s-.3999.6455-.4683,1.1396h2.748v-.1577c-.0093-.4395-.1274-.7793-.3555-1.0195-.228-.2407-.5513-.3608-.9707-.3608Z"/>
    <path class="cls-6" d="M75.1863,125.4513l-.7109.7109v2.2559h-1.9756v-10.5h1.9756v5.8174l.3828-.4922,1.8936-2.2217h2.3721l-2.6729,3.083,2.9053,4.3135h-2.2695l-1.9004-2.9668Z"/>
    <path class="cls-6" d="M82.3435,119.2032v1.8184h1.2646v1.4492h-1.2646v3.6914c0,.2734.0522.4697.1572.5879.105.1187.3052.1777.6016.1777.2188,0,.4126-.0156.5811-.0479v1.4971c-.3872.1187-.7861.1777-1.1963.1777-1.3853,0-2.0918-.6992-2.1191-2.0986v-3.9854h-1.0801v-1.4492h1.0801v-1.8184h1.9756Z"/>
    <path class="cls-6" d="M86.7595,118.8888l.998-.9775h1.6885v.0752l-2.0645,1.9209h-1.251l-2.0645-1.9346v-.0615h1.6885l1.0049.9775ZM88.865,122.8741c-.269-.0361-.5059-.0547-.7109-.0547-.7476,0-1.2373.2529-1.4697.7588v4.8398h-1.9756v-7.3965h1.8662l.0547.8818c.3965-.6787.9458-1.0186,1.6475-1.0186.2188,0,.4238.0298.6152.0889l-.0273,1.9004Z"/>
    <path class="cls-6" d="M89.8015,119.1075c0-.2959.0991-.54.2974-.7314s.4683-.2871.8101-.2871c.3374,0,.606.0957.8066.2871s.3008.4355.3008.7314c0,.3008-.1016.5469-.3042.7383s-.4707.2871-.8032.2871-.6006-.0957-.8032-.2871-.3042-.4375-.3042-.7383ZM91.9001,128.4181h-1.9824v-7.3965h1.9824v7.3965Z"/>
    <path class="cls-6" d="M95.3454,121.0216l.0615.8545c.5288-.6606,1.2373-.9912,2.126-.9912.7837,0,1.3672.2305,1.75.6904.3828.4604.5786,1.1484.5879,2.0645v4.7783h-1.9756v-4.7305c0-.4189-.0913-.7231-.2734-.9126-.1821-.189-.4854-.2837-.9092-.2837-.5562,0-.9731.2373-1.251.7109v5.2158h-1.9756v-7.3965h1.8594Z"/>
    <path class="cls-6" d="M104.1296,125.6222l1.3672-4.6006h2.1191l-2.9736,8.5449-.1641.3896c-.4419.9663-1.1714,1.4492-2.1875,1.4492-.2871,0-.5786-.0435-.875-.1299v-1.4971l.3008.0068c.3735,0,.6528-.0571.8374-.1709s.3291-.3032.4341-.5674l.2324-.6084-2.5908-7.417h2.126l1.374,4.6006Z"/>
    <path class="cls-6" d="M114.6501,126.005l1.374-4.9834h2.0645l-2.4951,7.3965h-1.8867l-2.4951-7.3965h2.0645l1.374,4.9834Z"/>
    <path class="cls-6" d="M130.3865,125.1026c-.0776,1.0713-.4727,1.9141-1.186,2.5293s-1.6533.9229-2.8198.9229c-1.2759,0-2.2798-.4292-3.0112-1.2886-.7314-.8589-1.0972-2.0381-1.0972-3.5376v-.6084c0-.957.1685-1.7998.5059-2.5293.3374-.729.8193-1.2886,1.4458-1.6782s1.3545-.5845,2.1841-.5845c1.1484,0,2.0737.3076,2.7754.9229s1.1074,1.479,1.2168,2.5908h-2.0508c-.0503-.6426-.229-1.1084-.5366-1.3979-.3076-.2891-.7759-.4341-1.4048-.4341-.6836,0-1.1953.2451-1.5347.7349-.3394.4902-.5137,1.25-.5229,2.2798v.752c0,1.0757.1631,1.8618.4888,2.3584.3257.4971.8398.7451,1.5415.7451.6333,0,1.1064-.1445,1.4185-.4341.312-.2891.4912-.7368.5366-1.3433h2.0508ZM126.3874,116.7149l.998-.9775h1.6885v.0752l-2.0645,1.9209h-1.251l-2.0645-1.9346v-.0615h1.6885l1.0049.9775Z"/>
    <path class="cls-6" d="M135.4177,124.7745h-1.6338v3.6436h-2.0508v-9.9531h3.6982c1.1758,0,2.0825.2622,2.7207.7861.6382.5244.957,1.2646.957,2.2217,0,.6792-.147,1.2456-.4409,1.6987-.2939.4536-.7393.8149-1.3364,1.0835l2.1533,4.0674v.0957h-2.2012l-1.8662-3.6436ZM133.7839,123.1134h1.6543c.5151,0,.9136-.1309,1.1963-.3931.2827-.2617.4238-.623.4238-1.0835,0-.4692-.1333-.8384-.3999-1.1074-.2666-.2686-.6758-.4033-1.2271-.4033h-1.6475v2.9873Z"/>
  </g>
  <g>
    <path class="cls-5" d="M10.2258,19.9644l2.5781-8.5544h2.6094l-3.9609,11.3748h-2.4453l-3.9453-11.3748h2.6016l2.5625,8.5544Z"/>
    <path class="cls-5" d="M19.4914,19.5897l1.5625-5.2578h2.4219l-3.3984,9.7654-.1875.4453c-.5049,1.104-1.3389,1.6562-2.5,1.6562-.3281,0-.6611-.0493-1-.1484v-1.7109l.3438.0078c.4268,0,.7461-.0649.957-.1953s.376-.3462.4961-.6484l.2656-.6953-2.9609-8.4763h2.4297l1.5703,5.2578ZM19.9836,10.785h2.4609l-2.1641,2.4219h-1.8359l1.5391-2.4219Z"/>
    <path class="cls-5" d="M29.1164,16.4491c-.3076-.0415-.5781-.0625-.8125-.0625-.8545,0-1.4141.2891-1.6797.8672v5.531h-2.2578v-8.4529h2.1328l.0625,1.0078c.4531-.7759,1.0811-1.1641,1.8828-1.1641.25,0,.4844.0339.7031.1016l-.0312,2.1719Z"/>
    <path class="cls-5" d="M29.5696,18.4803c0-.8384.1611-1.5859.4844-2.2422s.7881-1.1641,1.3945-1.5234,1.3115-.5391,2.1133-.5391c1.1406,0,2.0713.3491,2.793,1.0469.7217.698,1.124,1.646,1.207,2.8438l.0156.5781c0,1.2966-.3623,2.3372-1.0859,3.1208-.7236.7842-1.6953,1.1758-2.9141,1.1758s-2.1914-.3906-2.918-1.1719-1.0898-1.8438-1.0898-3.1873v-.1016ZM31.8274,18.6405c0,.8035.1514,1.4177.4531,1.8425.3018.4253.7344.6377,1.2969.6377.5469,0,.9736-.21,1.2812-.6299s.4609-1.0911.4609-2.0144c0-.7876-.1533-1.3979-.4609-1.8311-.3076-.4329-.7393-.6494-1.2969-.6494-.5518,0-.9795.2153-1.2812.6455-.3018.4304-.4531,1.0967-.4531,1.999Z"/>
    <path class="cls-5" d="M46.5852,18.6366c0,1.3542-.2891,2.4099-.8672,3.1677s-1.3857,1.1367-2.4219,1.1367c-.917,0-1.6484-.3516-2.1953-1.0547l-.1016.8984h-2.0312v-11.9998h2.2578v4.3047c.5205-.6094,1.2061-.9141,2.0547-.9141,1.0312,0,1.8398.3789,2.4258,1.1367s.8789,1.8242.8789,3.1992v.125ZM44.3274,18.4725c0-.854-.1357-1.4778-.4062-1.8711-.2705-.3931-.6748-.5898-1.2109-.5898-.7188,0-1.2139.2944-1.4844.8828v3.3357c.2764.5938.7764.8906,1.5.8906.7295,0,1.208-.3594,1.4375-1.0781.1094-.3438.1641-.8669.1641-1.5701Z"/>
    <path class="cls-5" d="M52.8742,22.7848c-.1045-.2031-.1797-.4556-.2266-.7578-.5469.6094-1.2578.9141-2.1328.9141-.8281,0-1.5146-.2393-2.0586-.7188-.5439-.479-.8164-1.083-.8164-1.8125,0-.8955.332-1.583.9961-2.0623.6641-.479,1.624-.7212,2.8789-.7266h1.0391v-.4844c0-.3906-.1006-.7031-.3008-.9375s-.5166-.3516-.9492-.3516c-.3799,0-.6787.0913-.8945.2734-.2158.1824-.3242.4324-.3242.75h-2.2578c0-.4895.1514-.9426.4531-1.3594.3018-.4165.7295-.7434,1.2812-.9805.5518-.2368,1.1719-.3555,1.8594-.3555,1.042,0,1.8682.2617,2.4805.7852s.918,1.2593.918,2.207v3.6638c.0049.8022.1172,1.4092.3359,1.8203v.1328h-2.2812ZM51.0071,21.2144c.333,0,.6406-.0742.9219-.2227s.4893-.3477.625-.5977v-1.4529h-.8438c-1.1299,0-1.7314.3906-1.8047,1.1716l-.0078.1328c0,.2812.0986.5132.2969.6953.1982.1826.4688.2734.8125.2734Z"/>
    <path class="cls-5" d="M65.4367,22.7848c-.1045-.2031-.1797-.4556-.2266-.7578-.5469.6094-1.2578.9141-2.1328.9141-.8281,0-1.5146-.2393-2.0586-.7188-.5439-.479-.8164-1.083-.8164-1.8125,0-.8955.332-1.583.9961-2.0623.6641-.479,1.624-.7212,2.8789-.7266h1.0391v-.4844c0-.3906-.1006-.7031-.3008-.9375s-.5166-.3516-.9492-.3516c-.3799,0-.6787.0913-.8945.2734-.2158.1824-.3242.4324-.3242.75h-2.2578c0-.4895.1514-.9426.4531-1.3594.3018-.4165.7295-.7434,1.2812-.9805.5518-.2368,1.1719-.3555,1.8594-.3555,1.042,0,1.8682.2617,2.4805.7852s.918,1.2593.918,2.207v3.6638c.0049.8022.1172,1.4092.3359,1.8203v.1328h-2.2812ZM63.5696,21.2144c.333,0,.6406-.0742.9219-.2227s.4893-.3477.625-.5977v-1.4529h-.8438c-1.1299,0-1.7314.3906-1.8047,1.1716l-.0078.1328c0,.2812.0986.5132.2969.6953.1982.1826.4688.2734.8125.2734Z"/>
    <path class="cls-5" d="M77.6789,20.4488c0-.2759-.1367-.4932-.4102-.6523-.2734-.1584-.7119-.3005-1.3164-.4255-2.0107-.4219-3.0156-1.2759-3.0156-2.5625,0-.75.3115-1.3762.9336-1.8789.6221-.5024,1.4365-.7539,2.4414-.7539,1.0732,0,1.9307.2527,2.5742.7578.6436.5054.9648,1.1616.9648,1.9688h-2.2578c0-.3228-.1045-.5898-.3125-.8008s-.5342-.3164-.9766-.3164c-.3799,0-.6748.0859-.8828.2578s-.3125.3906-.3125.6562c0,.25.1182.4519.3555.6055.2373.1538.6367.2866,1.1992.3984.5625.1121,1.0361.2383,1.4219.3789,1.1924.4375,1.7891,1.1953,1.7891,2.2732,0,.771-.3311,1.3945-.9922,1.8711s-1.5156.7148-2.5625.7148c-.708,0-1.3369-.1265-1.8867-.3789s-.9805-.5986-1.293-1.0391c-.3125-.4399-.4688-.915-.4688-1.4258h2.1406c.0205.4014.1689.7085.4453.9219.2764.2139.6455.3203,1.1094.3203.4326,0,.7588-.082.9805-.2461s.332-.3789.332-.6445Z"/>
    <path class="cls-5" d="M88.9367,18.6366c0,1.302-.2959,2.345-.8867,3.1287-.5908.7842-1.3896,1.1758-2.3945,1.1758-.8545,0-1.5439-.2969-2.0703-.8906v3.9844h-2.2578v-11.7029h2.0938l.0781.8281c.5469-.6562,1.2607-.9844,2.1406-.9844,1.042,0,1.8516.3855,2.4297,1.1562.5781.771.8672,1.8335.8672,3.1875v.1172ZM86.6789,18.4725c0-.7864-.1396-1.3931-.418-1.8203-.2783-.427-.6836-.6406-1.2148-.6406-.708,0-1.1953.271-1.4609.8125v3.4607c.2764.5576.7686.8359,1.4766.8359,1.0781,0,1.6172-.8828,1.6172-2.6482Z"/>
    <path class="cls-5" d="M89.9836,18.4803c0-.8384.1611-1.5859.4844-2.2422s.7881-1.1641,1.3945-1.5234,1.3115-.5391,2.1133-.5391c1.1406,0,2.0713.3491,2.793,1.0469.7217.698,1.124,1.646,1.207,2.8438l.0156.5781c0,1.2966-.3623,2.3372-1.0859,3.1208-.7236.7842-1.6953,1.1758-2.9141,1.1758s-2.1914-.3906-2.918-1.1719-1.0898-1.8438-1.0898-3.1873v-.1016ZM92.2414,18.6405c0,.8035.1514,1.4177.4531,1.8425.3018.4253.7344.6377,1.2969.6377.5469,0,.9736-.21,1.2812-.6299s.4609-1.0911.4609-2.0144c0-.7876-.1533-1.3979-.4609-1.8311-.3076-.4329-.7393-.6494-1.2969-.6494-.5518,0-.9795.2153-1.2812.6455-.3018.4304-.4531,1.0967-.4531,1.999Z"/>
    <path class="cls-5" d="M102.0852,12.2538v2.0781h1.4453v1.6562h-1.4453v4.2185c0,.3125.0596.5366.1797.6719.1201.1357.3486.2031.6875.2031.25,0,.4717-.0181.6641-.0547v1.7109c-.4424.1353-.8984.2031-1.3672.2031-1.583,0-2.3906-.7993-2.4219-2.3984v-4.5544h-1.2344v-1.6562h1.2344v-2.0781h2.2578Z"/>
    <path class="cls-5" d="M107.1321,11.8944l1.1406-1.1172h1.9297v.0859l-2.3594,2.1953h-1.4297l-2.3594-2.2109v-.0703h1.9297l1.1484,1.1172ZM109.5383,16.4491c-.3076-.0415-.5781-.0625-.8125-.0625-.8545,0-1.4141.2891-1.6797.8672v5.531h-2.2578v-8.4529h2.1328l.0625,1.0078c.4531-.7759,1.0811-1.1641,1.8828-1.1641.25,0,.4844.0339.7031.1016l-.0312,2.1719Z"/>
    <path class="cls-5" d="M114.5149,22.941c-1.2393,0-2.249-.3799-3.0273-1.1406-.7783-.7603-1.168-1.7734-1.168-3.0388v-.2188c0-.8489.1641-1.6079.4922-2.2773.3281-.6692.793-1.1848,1.3945-1.5469.6016-.3618,1.2881-.543,2.0586-.543,1.1562,0,2.0664.3647,2.7305,1.0938.6641.7292.9961,1.7632.9961,3.1016v.9219h-5.3828c.0732.552.293.9949.6602,1.3279.3672.3335.832.5,1.3945.5.8701,0,1.5498-.3149,2.0391-.9453l1.1094,1.2422c-.3389.4795-.7969.853-1.375,1.1211s-1.2188.4023-1.9219.4023ZM114.2571,15.9959c-.4482,0-.8115.1519-1.0898.4551-.2783.3037-.457.7378-.5352,1.3027h3.1406v-.1807c-.0107-.502-.1455-.8906-.4062-1.165-.2607-.2749-.6299-.4121-1.1094-.4121Z"/>
    <path class="cls-5" d="M126.8899,18.6366c0,1.3542-.2891,2.4099-.8672,3.1677s-1.3857,1.1367-2.4219,1.1367c-.917,0-1.6484-.3516-2.1953-1.0547l-.1016.8984h-2.0312v-11.9998h2.2578v4.3047c.5205-.6094,1.2061-.9141,2.0547-.9141,1.0312,0,1.8398.3789,2.4258,1.1367s.8789,1.8242.8789,3.1992v.125ZM124.6321,18.4725c0-.854-.1357-1.4778-.4062-1.8711-.2705-.3931-.6748-.5898-1.2109-.5898-.7188,0-1.2139.2944-1.4844.8828v3.3357c.2764.5938.7764.8906,1.5.8906.7295,0,1.208-.3594,1.4375-1.0781.1094-.3438.1641-.8669.1641-1.5701Z"/>
    <path class="cls-5" d="M133.1789,22.7848c-.1045-.2031-.1797-.4556-.2266-.7578-.5469.6094-1.2578.9141-2.1328.9141-.8281,0-1.5146-.2393-2.0586-.7188-.5439-.479-.8164-1.083-.8164-1.8125,0-.8955.332-1.583.9961-2.0623.6641-.479,1.624-.7212,2.8789-.7266h1.0391v-.4844c0-.3906-.1006-.7031-.3008-.9375s-.5166-.3516-.9492-.3516c-.3799,0-.6787.0913-.8945.2734-.2158.1824-.3242.4324-.3242.75h-2.2578c0-.4895.1514-.9426.4531-1.3594.3018-.4165.7295-.7434,1.2812-.9805.5518-.2368,1.1719-.3555,1.8594-.3555,1.042,0,1.8682.2617,2.4805.7852s.918,1.2593.918,2.207v3.6638c.0049.8022.1172,1.4092.3359,1.8203v.1328h-2.2812ZM131.3117,21.2144c.333,0,.6406-.0742.9219-.2227s.4893-.3477.625-.5977v-1.4529h-.8438c-1.1299,0-1.7314.3906-1.8047,1.1716l-.0078.1328c0,.2812.0986.5132.2969.6953.1982.1826.4688.2734.8125.2734Z"/>
    <path class="cls-5" d="M144.7336,22.941c-1.2393,0-2.249-.3799-3.0273-1.1406-.7783-.7603-1.168-1.7734-1.168-3.0388v-.2188c0-.8489.1641-1.6079.4922-2.2773.3281-.6692.793-1.1848,1.3945-1.5469.6016-.3618,1.2881-.543,2.0586-.543,1.1562,0,2.0664.3647,2.7305,1.0938.6641.7292.9961,1.7632.9961,3.1016v.9219h-5.3828c.0732.552.293.9949.6602,1.3279.3672.3335.832.5,1.3945.5.8701,0,1.5498-.3149,2.0391-.9453l1.1094,1.2422c-.3389.4795-.7969.853-1.375,1.1211s-1.2188.4023-1.9219.4023ZM144.4758,15.9959c-.4482,0-.8115.1519-1.0898.4551-.2783.3037-.457.7378-.5352,1.3027h3.1406v-.1807c-.0107-.502-.1455-.8906-.4062-1.165-.2607-.2749-.6299-.4121-1.1094-.4121Z"/>
    <path class="cls-5" d="M151.8742,22.7848h-2.2656v-11.9998h2.2656v11.9998Z"/>
    <path class="cls-5" d="M157.6242,22.941c-1.2393,0-2.249-.3799-3.0273-1.1406-.7783-.7603-1.168-1.7734-1.168-3.0388v-.2188c0-.8489.1641-1.6079.4922-2.2773.3281-.6692.793-1.1848,1.3945-1.5469.6016-.3618,1.2881-.543,2.0586-.543,1.1562,0,2.0664.3647,2.7305,1.0938.6641.7292.9961,1.7632.9961,3.1016v.9219h-5.3828c.0732.552.293.9949.6602,1.3279.3672.3335.832.5,1.3945.5.8701,0,1.5498-.3149,2.0391-.9453l1.1094,1.2422c-.3389.4795-.7969.853-1.375,1.1211s-1.2188.4023-1.9219.4023ZM157.3664,15.9959c-.4482,0-.8115.1519-1.0898.4551-.2783.3037-.457.7378-.5352,1.3027h3.1406v-.1807c-.0107-.502-.1455-.8906-.4062-1.165-.2607-.2749-.6299-.4121-1.1094-.4121Z"/>
    <path class="cls-5" d="M165.4524,19.3944l-.8125.8123v2.5781h-2.2578v-11.9998h2.2578v6.6484l.4375-.5625,2.1641-2.5391h2.7109l-3.0547,3.5234,3.3203,4.9294h-2.5938l-2.1719-3.3904Z"/>
    <path class="cls-5" d="M173.6321,12.2538v2.0781h1.4453v1.6562h-1.4453v4.2185c0,.3125.0596.5366.1797.6719.1201.1357.3486.2031.6875.2031.25,0,.4717-.0181.6641-.0547v1.7109c-.4424.1353-.8984.2031-1.3672.2031-1.583,0-2.3906-.7993-2.4219-2.3984v-4.5544h-1.2344v-1.6562h1.2344v-2.0781h2.2578Z"/>
    <path class="cls-5" d="M178.6789,11.8944l1.1406-1.1172h1.9297v.0859l-2.3594,2.1953h-1.4297l-2.3594-2.2109v-.0703h1.9297l1.1484,1.1172ZM181.0852,16.4491c-.3076-.0415-.5781-.0625-.8125-.0625-.8545,0-1.4141.2891-1.6797.8672v5.531h-2.2578v-8.4529h2.1328l.0625,1.0078c.4531-.7759,1.0811-1.1641,1.8828-1.1641.25,0,.4844.0339.7031.1016l-.0312,2.1719Z"/>
    <path class="cls-5" d="M182.1555,12.1444c0-.3384.1133-.6172.3398-.8359s.5352-.3281.9258-.3281c.3857,0,.6924.1094.9219.3281s.3438.4976.3438.8359c0,.3438-.1162.625-.3477.8438s-.5381.3281-.918.3281-.6865-.1094-.918-.3281-.3477-.5-.3477-.8438ZM184.5539,22.7848h-2.2656v-8.4529h2.2656v8.4529Z"/>
    <path class="cls-5" d="M188.4914,14.3319l.0703.9766c.6045-.7551,1.4141-1.1328,2.4297-1.1328.8955,0,1.5625.2632,2,.7891.4375.5261.6611,1.3125.6719,2.3594v5.4607h-2.2578v-5.406c0-.479-.1045-.8267-.3125-1.043-.208-.2161-.5547-.3242-1.0391-.3242-.6357,0-1.1123.271-1.4297.8125v5.9607h-2.2578v-8.4529h2.125Z"/>
    <path class="cls-5" d="M198.5305,19.5897l1.5625-5.2578h2.4219l-3.3984,9.7654-.1875.4453c-.5049,1.104-1.3389,1.6562-2.5,1.6562-.3281,0-.6611-.0493-1-.1484v-1.7109l.3438.0078c.4268,0,.7461-.0649.957-.1953s.376-.3462.4961-.6484l.2656-.6953-2.9609-8.4763h2.4297l1.5703,5.2578Z"/>
    <path class="cls-5" d="M210.5539,20.0269l1.5703-5.6951h2.3594l-2.8516,8.4529h-2.1562l-2.8516-8.4529h2.3594l1.5703,5.6951Z"/>
    <path class="cls-5" d="M228.5383,18.9959c-.0889,1.2239-.54,2.1873-1.3555,2.8904s-1.8896,1.0547-3.2227,1.0547c-1.458,0-2.6055-.4907-3.4414-1.4727-.8359-.9814-1.2539-2.3291-1.2539-4.0427v-.6953c0-1.0938.1924-2.0571.5781-2.8906.3857-.8333.9365-1.4727,1.6523-1.918s1.5479-.668,2.4961-.668c1.3125,0,2.3701.3516,3.1719,1.0547s1.2656,1.6902,1.3906,2.9609h-2.3438c-.0576-.7344-.2617-1.2668-.6133-1.5977-.3516-.3306-.8867-.4961-1.6055-.4961-.7812,0-1.3662.28-1.7539.8398-.3877.5601-.5869,1.4285-.5977,2.6055v.8594c0,1.2292.1865,2.1277.5586,2.6951.3721.5679.96.8516,1.7617.8516.7236,0,1.2646-.165,1.6211-.4961.3564-.3306.5615-.8423.6133-1.5349h2.3438ZM223.968,9.41l1.1406-1.1172h1.9297v.0859l-2.3594,2.1953h-1.4297l-2.3594-2.2109v-.0703h1.9297l1.1484,1.1172Z"/>
    <path class="cls-5" d="M234.2883,18.6209h-1.8672v4.1638h-2.3438v-11.3748h4.2266c1.3438,0,2.3799.2996,3.1094.8984.7295.5991,1.0938,1.4453,1.0938,2.5391,0,.7761-.168,1.4233-.5039,1.9414-.3359.5183-.8447.9312-1.5273,1.2383l2.4609,4.6482v.1094h-2.5156l-2.1328-4.1638ZM232.4211,16.7225h1.8906c.5889,0,1.0439-.1497,1.3672-.4492.3232-.2993.4844-.7122.4844-1.2383,0-.5364-.1523-.9583-.457-1.2656-.3047-.3071-.7725-.4609-1.4023-.4609h-1.8828v3.4141Z"/>
    <path class="cls-5" d="M244.2961,18.1678c0-1.177.1572-2.3071.4727-3.3906.3154-1.0833.7852-2.0676,1.4102-2.9531.625-.8853,1.2734-1.5103,1.9453-1.875l.2969.9531c-.7607.5835-1.3838,1.4741-1.8711,2.6719-.4873,1.198-.7539,2.5391-.8008,4.0234l-.0078.6641c0,2.0105.3672,3.7551,1.1016,5.2341.4424.8853.9688,1.5781,1.5781,2.0781l-.2969.8828c-.6924-.3853-1.3545-1.0312-1.9844-1.9375-1.2295-1.7705-1.8438-3.8877-1.8438-6.3513Z"/>
    <path class="cls-5" d="M257.1242,22.7848h-7.4531v-1.0391l3.9375-4.3748c.583-.6614.9854-1.1992,1.207-1.6133s.332-.8423.332-1.2852c0-.5938-.1797-1.0806-.5391-1.4609-.3594-.3801-.8389-.5703-1.4375-.5703-.7188,0-1.2773.2046-1.6758.6133-.3984.4089-.5977.978-.5977,1.707h-1.4453c0-1.0469.3369-1.8931,1.0117-2.5391.6748-.6458,1.5771-.9688,2.707-.9688,1.0576,0,1.8936.2773,2.5078.832s.9219,1.293.9219,2.2148c0,1.1199-.7139,2.4531-2.1406,4l-3.0469,3.3044h5.7109v1.1797Z"/>
    <path class="cls-5" d="M265.7883,17.9334c0,1.6929-.2891,2.9504-.8672,3.7732-.5781.8232-1.4814,1.2344-2.7109,1.2344-1.2139,0-2.1123-.4023-2.6953-1.207s-.8857-2.0063-.9062-3.6052v-1.9297c0-1.6719.2891-2.9141.8672-3.7266s1.4844-1.2188,2.7188-1.2188c1.2236,0,2.125.3921,2.7031,1.1758.5781.7839.875,1.9937.8906,3.6289v1.875ZM264.343,15.9569c0-1.2239-.1719-2.1157-.5156-2.6758-.3438-.5598-.8877-.8398-1.6328-.8398-.7393,0-1.2783.2788-1.6172.8359-.3389.5574-.5127,1.4141-.5234,2.5703v2.3125c0,1.2292.1787,2.1365.5352,2.7224s.8975.8789,1.6211.8789c.7139,0,1.2432-.2759,1.5898-.8281.3467-.5518.5273-1.4216.543-2.6091v-2.3672Z"/>
    <path class="cls-5" d="M275.093,22.7848h-7.4531v-1.0391l3.9375-4.3748c.583-.6614.9854-1.1992,1.207-1.6133s.332-.8423.332-1.2852c0-.5938-.1797-1.0806-.5391-1.4609-.3594-.3801-.8389-.5703-1.4375-.5703-.7188,0-1.2773.2046-1.6758.6133-.3984.4089-.5977.978-.5977,1.707h-1.4453c0-1.0469.3369-1.8931,1.0117-2.5391.6748-.6458,1.5771-.9688,2.707-.9688,1.0576,0,1.8936.2773,2.5078.832s.9219,1.293.9219,2.2148c0,1.1199-.7139,2.4531-2.1406,4l-3.0469,3.3044h5.7109v1.1797Z"/>
    <path class="cls-5" d="M284.0774,22.7848h-7.4531v-1.0391l3.9375-4.3748c.583-.6614.9854-1.1992,1.207-1.6133s.332-.8423.332-1.2852c0-.5938-.1797-1.0806-.5391-1.4609-.3594-.3801-.8389-.5703-1.4375-.5703-.7188,0-1.2773.2046-1.6758.6133-.3984.4089-.5977.978-.5977,1.707h-1.4453c0-1.0469.3369-1.8931,1.0117-2.5391.6748-.6458,1.5771-.9688,2.707-.9688,1.0576,0,1.8936.2773,2.5078.832s.9219,1.293.9219,2.2148c0,1.1199-.7139,2.4531-2.1406,4l-3.0469,3.3044h5.7109v1.1797Z"/>
    <path class="cls-5" d="M289.093,18.2459c0,1.1616-.1523,2.2747-.457,3.3396-.3047,1.0654-.7705,2.0483-1.3984,2.9492s-1.2852,1.5415-1.9727,1.9219l-.3047-.8828c.8018-.6147,1.4463-1.5688,1.9336-2.8633.4873-1.2939.7354-2.7305.7461-4.3083v-.25c0-1.0938-.1143-2.1106-.3438-3.0508-.2295-.9399-.5479-1.7825-.957-2.5273-.4092-.7446-.8682-1.3254-1.3789-1.7422l.3047-.8828c.6875.3804,1.3428,1.0156,1.9648,1.9062s1.0889,1.8726,1.3984,2.9453c.3096,1.073.4648,2.2214.4648,3.4453Z"/>
  </g>
  <g>
    <path class="cls-4" d="M314.5842,216.6388c0-.7334.1411-1.3877.4238-1.9619s.6895-1.0186,1.2202-1.333,1.1475-.4717,1.8491-.4717c.998,0,1.8125.3057,2.4438.916.6313.6108.9834,1.4404,1.0562,2.4883l.0137.5059c0,1.1348-.3169,2.0454-.9502,2.731-.6333.686-1.4834,1.0288-2.5498,1.0288s-1.9175-.3418-2.5532-1.0254-.9536-1.6133-.9536-2.7891v-.0889ZM316.5598,216.7789c0,.7031.1323,1.2407.3965,1.6123.2642.3721.6426.5581,1.1348.5581.4785,0,.8521-.1836,1.1211-.5513.269-.3672.4033-.9546.4033-1.7627,0-.689-.1343-1.2231-.4033-1.6021s-.647-.5684-1.1348-.5684c-.4829,0-.8569.1885-1.1211.5649s-.3965.9595-.3965,1.749Z"/>
    <path class="cls-4" d="M322.5002,216.6524c0-1.1528.2588-2.0713.7759-2.7549s1.2246-1.0254,2.1226-1.0254c.7202,0,1.3149.269,1.7842.8066v-3.7734h1.9824v10.5h-1.7842l-.0957-.7861c-.4922.6152-1.1255.9229-1.9004.9229-.8706,0-1.5688-.3428-2.0952-1.0288-.5264-.6855-.7896-1.6392-.7896-2.8608ZM324.4758,216.7994c0,.6938.1206,1.2256.3623,1.5952.2417.3701.5923.5547,1.0527.5547.6108,0,1.0415-.2578,1.292-.7734v-2.9233c-.2461-.5156-.6724-.7739-1.2783-.7739-.9526,0-1.4287.7739-1.4287,2.3208Z"/>
    <path class="cls-4" d="M332.6242,213.8155c.5239-.6289,1.1826-.9434,1.9756-.9434,1.604,0,2.4175.9321,2.4404,2.7959v4.7373h-1.9756v-4.6826c0-.4238-.0913-.7368-.2734-.9399-.1821-.2026-.4854-.3042-.9092-.3042-.5786,0-.998.2236-1.2578.6699v5.2568h-1.9756v-10.5h1.9756v3.9102Z"/>
    <path class="cls-4" d="M342.8166,220.4054c-.0913-.1777-.1572-.3984-.1982-.6631-.4785.5332-1.1006.7998-1.8662.7998-.7246,0-1.3252-.2095-1.8013-.6289-.4761-.4189-.7144-.9478-.7144-1.5859,0-.7837.2905-1.3853.8716-1.8047.5811-.4189,1.4209-.6309,2.519-.6357h.9092v-.4238c0-.3418-.0879-.6152-.2632-.8203s-.4521-.3076-.8306-.3076c-.3325,0-.5938.0801-.7827.2393-.189.1597-.2837.3784-.2837.6562h-1.9756c0-.4282.1323-.8247.3965-1.1895.2642-.3643.6382-.6504,1.1211-.8579.4829-.207,1.0254-.311,1.627-.311.9116,0,1.6348.229,2.1704.687s.8032,1.1021.8032,1.9312v3.2061c.0044.7021.1025,1.2329.2939,1.5928v.1162h-1.9961ZM341.1828,219.0313c.2915,0,.5605-.0649.8066-.1948s.4282-.3042.5469-.5229v-1.2715h-.7383c-.9888,0-1.5151.3418-1.5791,1.0254l-.0068.1162c0,.2461.0864.4492.2598.6084.1733.1597.4102.2393.7109.2393Z"/>
    <path class="cls-4" d="M345.7287,216.6524c0-1.1528.2588-2.0713.7759-2.7549s1.2246-1.0254,2.1226-1.0254c.7202,0,1.3149.269,1.7842.8066v-3.7734h1.9824v10.5h-1.7842l-.0957-.7861c-.4922.6152-1.1255.9229-1.9004.9229-.8706,0-1.5688-.3428-2.0952-1.0288-.5264-.6855-.7896-1.6392-.7896-2.8608ZM347.7043,216.7994c0,.6938.1206,1.2256.3623,1.5952.2417.3701.5923.5547,1.0527.5547.6108,0,1.0415-.2578,1.292-.7734v-2.9233c-.2461-.5156-.6724-.7739-1.2783-.7739-.9526,0-1.4287.7739-1.4287,2.3208Z"/>
    <path class="cls-4" d="M353.6174,216.6388c0-.7334.1411-1.3877.4238-1.9619s.6895-1.0186,1.2202-1.333,1.1475-.4717,1.8491-.4717c.998,0,1.8125.3057,2.4438.916.6313.6108.9834,1.4404,1.0562,2.4883l.0137.5059c0,1.1348-.3169,2.0454-.9502,2.731-.6333.686-1.4834,1.0288-2.5498,1.0288s-1.9175-.3418-2.5532-1.0254-.9536-1.6133-.9536-2.7891v-.0889ZM355.593,216.7789c0,.7031.1323,1.2407.3965,1.6123.2642.3721.6426.5581,1.1348.5581.4785,0,.8521-.1836,1.1211-.5513.269-.3672.4033-.9546.4033-1.7627,0-.689-.1343-1.2231-.4033-1.6021s-.647-.5684-1.1348-.5684c-.4829,0-.8569.1885-1.1211.5649s-.3965.9595-.3965,1.749Z"/>
    <path class="cls-4" d="M364.5071,217.9923l1.374-4.9834h2.0645l-2.4951,7.3965h-1.8867l-2.4951-7.3965h2.0645l1.374,4.9834Z"/>
    <path class="cls-4" d="M372.9973,220.4054c-.0913-.1777-.1572-.3984-.1982-.6631-.4785.5332-1.1006.7998-1.8662.7998-.7246,0-1.3252-.2095-1.8013-.6289-.4761-.4189-.7144-.9478-.7144-1.5859,0-.7837.2905-1.3853.8716-1.8047.5811-.4189,1.4209-.6309,2.519-.6357h.9092v-.4238c0-.3418-.0879-.6152-.2632-.8203s-.4521-.3076-.8306-.3076c-.3325,0-.5938.0801-.7827.2393-.189.1597-.2837.3784-.2837.6562h-1.9756c0-.4282.1323-.8247.3965-1.1895.2642-.3643.6382-.6504,1.1211-.8579.4829-.207,1.0254-.311,1.627-.311.9116,0,1.6348.229,2.1704.687s.8032,1.1021.8032,1.9312v3.2061c.0044.7021.1025,1.2329.2939,1.5928v.1162h-1.9961ZM371.3635,219.0313c.2915,0,.5605-.0649.8066-.1948s.4282-.3042.5469-.5229v-1.2715h-.7383c-.9888,0-1.5151.3418-1.5791,1.0254l-.0068.1162c0,.2461.0864.4492.2598.6084.1733.1597.4102.2393.7109.2393Z"/>
    <path class="cls-4" d="M378.0354,213.0089l.0615.8545c.5288-.6606,1.2373-.9912,2.126-.9912.7837,0,1.3672.2305,1.75.6904.3828.4604.5786,1.1484.5879,2.0645v4.7783h-1.9756v-4.7305c0-.4189-.0913-.7231-.2734-.9126-.1821-.189-.4854-.2837-.9092-.2837-.5562,0-.9731.2373-1.251.7109v5.2158h-1.9756v-7.3965h1.8594Z"/>
    <path class="cls-4" d="M388.344,220.4054c-.0913-.1777-.1572-.3984-.1982-.6631-.4785.5332-1.1006.7998-1.8662.7998-.7246,0-1.3252-.2095-1.8013-.6289-.4761-.4189-.7144-.9478-.7144-1.5859,0-.7837.2905-1.3853.8716-1.8047.5811-.4189,1.4209-.6309,2.519-.6357h.9092v-.4238c0-.3418-.0879-.6152-.2632-.8203s-.4521-.3076-.8306-.3076c-.3325,0-.5938.0801-.7827.2393-.189.1597-.2837.3784-.2837.6562h-1.9756c0-.4282.1323-.8247.3965-1.1895.2642-.3643.6382-.6504,1.1211-.8579.4829-.207,1.0254-.311,1.627-.311.9116,0,1.6348.229,2.1704.687s.8032,1.1021.8032,1.9312v3.2061c.0044.7021.1025,1.2329.2939,1.5928v.1162h-1.9961ZM386.7102,219.0313c.2915,0,.5605-.0649.8066-.1948s.4282-.3042.5469-.5229v-1.2715h-.7383c-.9888,0-1.5151.3418-1.5791,1.0254l-.0068.1162c0,.2461.0864.4492.2598.6084.1733.1597.4102.2393.7109.2393ZM387.4621,209.9054h2.1533l-1.8936,2.1191h-1.6064l1.3467-2.1191Z"/>
    <path class="cls-4" d="M399.0559,218.3614c0-.2412-.1196-.4316-.3589-.5708-.2393-.1387-.623-.2632-1.1519-.3726-1.7593-.3691-2.6387-1.1162-2.6387-2.2422,0-.6562.2725-1.2041.8169-1.644.5444-.4395,1.2568-.6597,2.1362-.6597.939,0,1.6895.2212,2.2524.6631.563.4424.8442,1.0166.8442,1.7227h-1.9756c0-.2822-.0913-.5161-.2734-.7007s-.4673-.2769-.8545-.2769c-.3325,0-.5903.0752-.7725.2256s-.2734.3418-.2734.5742c0,.2188.1035.3955.311.5298.2075.1348.5571.251,1.0493.3486.4922.0981.9067.2085,1.2441.3315,1.0435.3828,1.5654,1.0459,1.5654,1.9893,0,.6748-.2896,1.2202-.8682,1.6372s-1.3262.6255-2.2422.6255c-.6196,0-1.1699-.1104-1.6509-.3315-.481-.2207-.8579-.5239-1.1313-.9092-.2734-.3848-.4102-.8008-.4102-1.2476h1.873c.0181.3511.1479.6201.3896.8066.2417.187.5649.2803.9707.2803.3784,0,.6641-.0718.8579-.2153s.2905-.3315.2905-.564Z"/>
    <path class="cls-4" d="M408.9065,216.7755c0,1.1396-.2588,2.0522-.7759,2.7378-.5171.686-1.2158,1.0288-2.0952,1.0288-.7476,0-1.3511-.2598-1.8115-.7793v3.4863h-1.9756v-10.2402h1.832l.0684.7246c.4785-.5742,1.103-.8613,1.873-.8613.9116,0,1.6201.3374,2.126,1.0117.5059.6748.7588,1.6045.7588,2.7891v.1025ZM406.9309,216.6319c0-.688-.1221-1.2188-.3657-1.5928-.2437-.3735-.5981-.5605-1.063-.5605-.6196,0-1.0459.2373-1.2783.7109v3.0283c.2417.4878.6724.7314,1.292.7314.9434,0,1.415-.7725,1.415-2.3174Z"/>
    <path class="cls-4" d="M409.8225,216.6388c0-.7334.1411-1.3877.4238-1.9619s.6895-1.0186,1.2202-1.333,1.1475-.4717,1.8491-.4717c.998,0,1.8125.3057,2.4438.916.6313.6108.9834,1.4404,1.0562,2.4883l.0137.5059c0,1.1348-.3169,2.0454-.9502,2.731-.6333.686-1.4834,1.0288-2.5498,1.0288s-1.9175-.3418-2.5532-1.0254-.9536-1.6133-.9536-2.7891v-.0889ZM411.7981,216.7789c0,.7031.1323,1.2407.3965,1.6123.2642.3721.6426.5581,1.1348.5581.4785,0,.8521-.1836,1.1211-.5513.269-.3672.4033-.9546.4033-1.7627,0-.689-.1343-1.2231-.4033-1.6021s-.647-.5684-1.1348-.5684c-.4829,0-.8569.1885-1.1211.5649s-.3965.9595-.3965,1.749Z"/>
    <path class="cls-4" d="M420.4114,211.1905v1.8184h1.2646v1.4492h-1.2646v3.6914c0,.2734.0522.4697.1572.5879.105.1187.3052.1777.6016.1777.2188,0,.4126-.0156.5811-.0479v1.4971c-.3872.1187-.7861.1777-1.1963.1777-1.3853,0-2.0918-.6992-2.1191-2.0986v-3.9854h-1.0801v-1.4492h1.0801v-1.8184h1.9756Z"/>
    <path class="cls-4" d="M424.8274,210.8761l.998-.9775h1.6885v.0752l-2.0645,1.9209h-1.251l-2.0645-1.9346v-.0615h1.6885l1.0049.9775ZM426.9328,214.8614c-.269-.0361-.5059-.0547-.7109-.0547-.7476,0-1.2373.2529-1.4697.7588v4.8398h-1.9756v-7.3965h1.8662l.0547.8818c.3965-.6787.9458-1.0186,1.6475-1.0186.2188,0,.4238.0298.6152.0889l-.0273,1.9004Z"/>
    <path class="cls-4" d="M431.2873,220.5421c-1.0845,0-1.9678-.3325-2.6489-.998-.6812-.665-1.022-1.5518-1.022-2.6592v-.1914c0-.7427.1436-1.4067.4307-1.9927.2871-.5854.6938-1.0366,1.2202-1.3535.5264-.3164,1.127-.4751,1.8013-.4751,1.0117,0,1.8081.3193,2.3892.957.5811.6382.8716,1.543.8716,2.7139v.8066h-4.71c.064.4834.2563.8706.5776,1.1621.3213.292.728.4375,1.2202.4375.7612,0,1.356-.2754,1.7842-.8271l.9707,1.0869c-.2964.4194-.6973.7466-1.2031.981-.5059.2349-1.0664.3521-1.6816.3521ZM431.0617,214.4649c-.3921,0-.71.1328-.9536.3984s-.3999.6455-.4683,1.1396h2.748v-.1577c-.0093-.4395-.1274-.7793-.3555-1.0195-.228-.2407-.5513-.3608-.9707-.3608Z"/>
    <path class="cls-4" d="M442.1155,216.7755c0,1.1851-.2529,2.1089-.7588,2.772s-1.2124.9946-2.1191.9946c-.8022,0-1.4424-.3076-1.9209-.9229l-.0889.7861h-1.7773v-10.5h1.9756v3.7666c.4556-.5332,1.0552-.7998,1.7979-.7998.9023,0,1.6099.3315,2.1226.9946s.769,1.5962.769,2.7993v.1094ZM440.1399,216.6319c0-.7471-.1187-1.293-.3555-1.6372-.2368-.3438-.5903-.5161-1.0596-.5161-.6289,0-1.062.2578-1.2988.7725v2.9189c.2417.5195.6792.7793,1.3125.7793.6382,0,1.0571-.3145,1.2578-.9434.0957-.3008.1436-.7588.1436-1.374Z"/>
    <path class="cls-4" d="M447.6184,220.4054c-.0913-.1777-.1572-.3984-.1982-.6631-.4785.5332-1.1006.7998-1.8662.7998-.7246,0-1.3252-.2095-1.8013-.6289-.4761-.4189-.7144-.9478-.7144-1.5859,0-.7837.2905-1.3853.8716-1.8047.5811-.4189,1.4209-.6309,2.519-.6357h.9092v-.4238c0-.3418-.0879-.6152-.2632-.8203s-.4521-.3076-.8306-.3076c-.3325,0-.5938.0801-.7827.2393-.189.1597-.2837.3784-.2837.6562h-1.9756c0-.4282.1323-.8247.3965-1.1895.2642-.3643.6382-.6504,1.1211-.8579.4829-.207,1.0254-.311,1.627-.311.9116,0,1.6348.229,2.1704.687s.8032,1.1021.8032,1.9312v3.2061c.0044.7021.1025,1.2329.2939,1.5928v.1162h-1.9961ZM445.9846,219.0313c.2915,0,.5605-.0649.8066-.1948s.4282-.3042.5469-.5229v-1.2715h-.7383c-.9888,0-1.5151.3418-1.5791,1.0254l-.0068.1162c0,.2461.0864.4492.2598.6084.1733.1597.4102.2393.7109.2393Z"/>
    <path class="cls-4" d="M318.2961,235.5421c-1.0845,0-1.9678-.3325-2.6489-.998-.6812-.665-1.022-1.5518-1.022-2.6592v-.1914c0-.7427.1436-1.4067.4307-1.9927.2871-.5854.6938-1.0366,1.2202-1.3535.5264-.3164,1.127-.4751,1.8013-.4751,1.0117,0,1.8081.3193,2.3892.957.5811.6382.8716,1.543.8716,2.7139v.8066h-4.71c.064.4834.2563.8706.5776,1.1621.3213.292.728.4375,1.2202.4375.7612,0,1.356-.2754,1.7842-.8271l.9707,1.0869c-.2964.4194-.6973.7466-1.2031.981-.5059.2349-1.0664.3521-1.6816.3521ZM318.0705,229.4649c-.3921,0-.71.1328-.9536.3984s-.3999.6455-.4683,1.1396h2.748v-.1577c-.0093-.4395-.1274-.7793-.3555-1.0195-.228-.2407-.5513-.3608-.9707-.3608Z"/>
    <path class="cls-4" d="M324.5442,235.4054h-1.9824v-10.5h1.9824v10.5Z"/>
    <path class="cls-4" d="M329.5754,235.5421c-1.0845,0-1.9678-.3325-2.6489-.998-.6812-.665-1.022-1.5518-1.022-2.6592v-.1914c0-.7427.1436-1.4067.4307-1.9927.2871-.5854.6938-1.0366,1.2202-1.3535.5264-.3164,1.127-.4751,1.8013-.4751,1.0117,0,1.8081.3193,2.3892.957.5811.6382.8716,1.543.8716,2.7139v.8066h-4.71c.064.4834.2563.8706.5776,1.1621.3213.292.728.4375,1.2202.4375.7612,0,1.356-.2754,1.7842-.8271l.9707,1.0869c-.2964.4194-.6973.7466-1.2031.981-.5059.2349-1.0664.3521-1.6816.3521ZM329.3498,229.4649c-.3921,0-.71.1328-.9536.3984s-.3999.6455-.4683,1.1396h2.748v-.1577c-.0093-.4395-.1274-.7793-.3555-1.0195-.228-.2407-.5513-.3608-.9707-.3608Z"/>
    <path class="cls-4" d="M336.425,232.4386l-.7109.7109v2.2559h-1.9756v-10.5h1.9756v5.8174l.3828-.4922,1.8936-2.2217h2.3721l-2.6729,3.083,2.9053,4.3135h-2.2695l-1.9004-2.9668Z"/>
    <path class="cls-4" d="M343.5823,226.1905v1.8184h1.2646v1.4492h-1.2646v3.6914c0,.2734.0522.4697.1572.5879.105.1187.3052.1777.6016.1777.2188,0,.4126-.0156.5811-.0479v1.4971c-.3872.1187-.7861.1777-1.1963.1777-1.3853,0-2.0918-.6992-2.1191-2.0986v-3.9854h-1.0801v-1.4492h1.0801v-1.8184h1.9756Z"/>
    <path class="cls-4" d="M350.1037,229.8614c-.269-.0361-.5059-.0547-.7109-.0547-.7476,0-1.2373.2529-1.4697.7588v4.8398h-1.9756v-7.3965h1.8662l.0547.8818c.3965-.6787.9458-1.0186,1.6475-1.0186.2188,0,.4238.0298.6152.0889l-.0273,1.9004Z"/>
    <path class="cls-4" d="M351.0403,226.0948c0-.2959.0991-.54.2974-.7314s.4683-.2871.8101-.2871c.3374,0,.606.0957.8066.2871s.3008.4355.3008.7314c0,.3008-.1016.5469-.3042.7383s-.4707.2871-.8032.2871-.6006-.0957-.8032-.2871-.3042-.4375-.3042-.7383ZM353.1389,235.4054h-1.9824v-7.3965h1.9824v7.3965Z"/>
    <path class="cls-4" d="M355.3059,235.4054v-5.9473h-1.1006v-1.4492h1.1006v-.6289c0-.8291.2383-1.4731.7144-1.9312s1.1426-.687,1.9995-.687c.2734,0,.6084.0459,1.0049.1367l-.0205,1.5312c-.1641-.041-.3647-.0615-.6016-.0615-.7427,0-1.1143.3486-1.1143,1.0459v.5947h1.4697v1.4492h-1.4697v5.9473h-1.9824Z"/>
    <path class="cls-4" d="M359.7698,226.0948c0-.2959.0991-.54.2974-.7314s.4683-.2871.8101-.2871c.3374,0,.606.0957.8066.2871s.3008.4355.3008.7314c0,.3008-.1016.5469-.3042.7383s-.4707.2871-.8032.2871-.6006-.0957-.8032-.2871-.3042-.4375-.3042-.7383ZM361.8684,235.4054h-1.9824v-7.3965h1.9824v7.3965Z"/>
    <path class="cls-4" d="M366.1819,232.4386l-.7109.7109v2.2559h-1.9756v-10.5h1.9756v5.8174l.3828-.4922,1.8936-2.2217h2.3721l-2.6729,3.083,2.9053,4.3135h-2.2695l-1.9004-2.9668Z"/>
    <path class="cls-4" d="M370.6662,231.6388c0-.7334.1411-1.3877.4238-1.9619s.6895-1.0186,1.2202-1.333,1.1475-.4717,1.8491-.4717c.998,0,1.8125.3057,2.4438.916.6313.6108.9834,1.4404,1.0562,2.4883l.0137.5059c0,1.1348-.3169,2.0454-.9502,2.731-.6333.686-1.4834,1.0288-2.5498,1.0288s-1.9175-.3418-2.5532-1.0254-.9536-1.6133-.9536-2.7891v-.0889ZM372.6418,231.7789c0,.7031.1323,1.2407.3965,1.6123.2642.3721.6426.5581,1.1348.5581.4785,0,.8521-.1836,1.1211-.5513.269-.3672.4033-.9546.4033-1.7627,0-.689-.1343-1.2231-.4033-1.6021s-.647-.5684-1.1348-.5684c-.4829,0-.8569.1885-1.1211.5649s-.3965.9595-.3965,1.749Z"/>
    <path class="cls-4" d="M381.5559,232.9923l1.374-4.9834h2.0645l-2.4951,7.3965h-1.8867l-2.4951-7.3965h2.0645l1.374,4.9834Z"/>
    <path class="cls-4" d="M390.0461,235.4054c-.0913-.1777-.1572-.3984-.1982-.6631-.4785.5332-1.1006.7998-1.8662.7998-.7246,0-1.3252-.2095-1.8013-.6289-.4761-.4189-.7144-.9478-.7144-1.5859,0-.7837.2905-1.3853.8716-1.8047.5811-.4189,1.4209-.6309,2.519-.6357h.9092v-.4238c0-.3418-.0879-.6152-.2632-.8203s-.4521-.3076-.8306-.3076c-.3325,0-.5938.0801-.7827.2393-.189.1597-.2837.3784-.2837.6562h-1.9756c0-.4282.1323-.8247.3965-1.1895.2642-.3643.6382-.6504,1.1211-.8579.4829-.207,1.0254-.311,1.627-.311.9116,0,1.6348.229,2.1704.687s.8032,1.1021.8032,1.9312v3.2061c.0044.7021.1025,1.2329.2939,1.5928v.1162h-1.9961ZM388.4123,234.0313c.2915,0,.5605-.0649.8066-.1948s.4282-.3042.5469-.5229v-1.2715h-.7383c-.9888,0-1.5151.3418-1.5791,1.0254l-.0068.1162c0,.2461.0864.4492.2598.6084.1733.1597.4102.2393.7109.2393Z"/>
    <path class="cls-4" d="M395.0842,228.0089l.0615.8545c.5288-.6606,1.2373-.9912,2.126-.9912.7837,0,1.3672.2305,1.75.6904.3828.4604.5786,1.1484.5879,2.0645v4.7783h-1.9756v-4.7305c0-.4189-.0913-.7231-.2734-.9126-.1821-.189-.4854-.2837-.9092-.2837-.5562,0-.9731.2373-1.251.7109v5.2158h-1.9756v-7.3965h1.8594Z"/>
    <path class="cls-4" d="M404.511,235.5421c-1.0845,0-1.9678-.3325-2.6489-.998-.6812-.665-1.022-1.5518-1.022-2.6592v-.1914c0-.7427.1436-1.4067.4307-1.9927.2871-.5854.6938-1.0366,1.2202-1.3535.5264-.3164,1.127-.4751,1.8013-.4751,1.0117,0,1.8081.3193,2.3892.957.5811.6382.8716,1.543.8716,2.7139v.8066h-4.71c.064.4834.2563.8706.5776,1.1621.3213.292.728.4375,1.2202.4375.7612,0,1.356-.2754,1.7842-.8271l.9707,1.0869c-.2964.4194-.6973.7466-1.2031.981-.5059.2349-1.0664.3521-1.6816.3521ZM404.2854,229.4649c-.3921,0-.71.1328-.9536.3984s-.3999.6455-.4683,1.1396h2.748v-.1577c-.0093-.4395-.1274-.7793-.3555-1.0195-.228-.2407-.5513-.3608-.9707-.3608ZM404.4631,224.9054h2.1533l-1.8936,2.1191h-1.6064l1.3467-2.1191Z"/>
    <path class="cls-4" d="M411.8528,231.6524c0-1.1528.2588-2.0713.7759-2.7549s1.2246-1.0254,2.1226-1.0254c.7202,0,1.3149.269,1.7842.8066v-3.7734h1.9824v10.5h-1.7842l-.0957-.7861c-.4922.6152-1.1255.9229-1.9004.9229-.8706,0-1.5688-.3428-2.0952-1.0288-.5264-.6855-.7896-1.6392-.7896-2.8608ZM413.8283,231.7994c0,.6938.1206,1.2256.3623,1.5952.2417.3701.5923.5547,1.0527.5547.6108,0,1.0415-.2578,1.292-.7734v-2.9233c-.2461-.5156-.6724-.7739-1.2783-.7739-.9526,0-1.4287.7739-1.4287,2.3208Z"/>
    <path class="cls-4" d="M419.7414,231.6388c0-.7334.1411-1.3877.4238-1.9619s.6895-1.0186,1.2202-1.333,1.1475-.4717,1.8491-.4717c.998,0,1.8125.3057,2.4438.916.6313.6108.9834,1.4404,1.0562,2.4883l.0137.5059c0,1.1348-.3169,2.0454-.9502,2.731-.6333.686-1.4834,1.0288-2.5498,1.0288s-1.9175-.3418-2.5532-1.0254-.9536-1.6133-.9536-2.7891v-.0889ZM421.717,231.7789c0,.7031.1323,1.2407.3965,1.6123.2642.3721.6426.5581,1.1348.5581.4785,0,.8521-.1836,1.1211-.5513.269-.3672.4033-.9546.4033-1.7627,0-.689-.1343-1.2231-.4033-1.6021s-.647-.5684-1.1348-.5684c-.4829,0-.8569.1885-1.1211.5649s-.3965.9595-.3965,1.749Z"/>
    <path class="cls-4" d="M434.6233,231.7755c0,1.1396-.2588,2.0522-.7759,2.7378-.5171.686-1.2158,1.0288-2.0952,1.0288-.7476,0-1.3511-.2598-1.8115-.7793v3.4863h-1.9756v-10.2402h1.832l.0684.7246c.4785-.5742,1.103-.8613,1.873-.8613.9116,0,1.6201.3374,2.126,1.0117.5059.6748.7588,1.6045.7588,2.7891v.1025ZM432.6477,231.6319c0-.688-.1221-1.2188-.3657-1.5928-.2437-.3735-.5981-.5605-1.063-.5605-.6196,0-1.0459.2373-1.2783.7109v3.0283c.2417.4878.6724.7314,1.292.7314.9434,0,1.415-.7725,1.415-2.3174Z"/>
    <path class="cls-4" d="M440.0032,229.8614c-.269-.0361-.5059-.0547-.7109-.0547-.7476,0-1.2373.2529-1.4697.7588v4.8398h-1.9756v-7.3965h1.8662l.0547.8818c.3965-.6787.9458-1.0186,1.6475-1.0186.2188,0,.4238.0298.6152.0889l-.0273,1.9004Z"/>
    <path class="cls-4" d="M445.0344,235.4054c-.0913-.1777-.1572-.3984-.1982-.6631-.4785.5332-1.1006.7998-1.8662.7998-.7246,0-1.3252-.2095-1.8013-.6289-.4761-.4189-.7144-.9478-.7144-1.5859,0-.7837.2905-1.3853.8716-1.8047.5811-.4189,1.4209-.6309,2.519-.6357h.9092v-.4238c0-.3418-.0879-.6152-.2632-.8203s-.4521-.3076-.8306-.3076c-.3325,0-.5938.0801-.7827.2393-.189.1597-.2837.3784-.2837.6562h-1.9756c0-.4282.1323-.8247.3965-1.1895.2642-.3643.6382-.6504,1.1211-.8579.4829-.207,1.0254-.311,1.627-.311.9116,0,1.6348.229,2.1704.687s.8032,1.1021.8032,1.9312v3.2061c.0044.7021.1025,1.2329.2939,1.5928v.1162h-1.9961ZM443.4006,234.0313c.2915,0,.5605-.0649.8066-.1948s.4282-.3042.5469-.5229v-1.2715h-.7383c-.9888,0-1.5151.3418-1.5791,1.0254l-.0068.1162c0,.2461.0864.4492.2598.6084.1733.1597.4102.2393.7109.2393Z"/>
    <path class="cls-4" d="M450.9201,232.9923l1.374-4.9834h2.0645l-2.4951,7.3965h-1.8867l-2.4951-7.3965h2.0645l1.374,4.9834Z"/>
    <path class="cls-4" d="M457.9885,232.6095l1.3672-4.6006h2.1191l-2.9736,8.5449-.1641.3896c-.4419.9663-1.1714,1.4492-2.1875,1.4492-.2871,0-.5786-.0435-.875-.1299v-1.4971l.3008.0068c.3735,0,.6528-.0571.8374-.1709s.3291-.3032.4341-.5674l.2324-.6084-2.5908-7.417h2.126l1.374,4.6006Z"/>
  </g>
  <g>
    <path class="cls-7" d="M24.4651,168.7618v1.374h-.2051c-.9297.0137-1.6719.269-2.2285.7656-.5557.4971-.8857,1.2012-.9912,2.1123.5332-.5605,1.2148-.8408,2.0439-.8408.8799,0,1.5732.3101,2.082.9297.5078.6201.7617,1.4199.7617,2.3994,0,1.0117-.2969,1.8311-.8916,2.4575s-1.375.9399-2.3418.9399c-.9932,0-1.7988-.3667-2.416-1.1006-.6182-.7334-.9268-1.6953-.9268-2.8848v-.5674c0-1.7451.4248-3.1123,1.2754-4.1016.8496-.9888,2.0723-1.4834,3.667-1.4834h.1709ZM22.6809,173.5128c-.3643,0-.6982.1025-1.001.3076-.3037.2051-.5254.4785-.667.8203v.5059c0,.7383.1553,1.3252.4648,1.7603.3105.4351.7109.6528,1.2031.6528s.8818-.1846,1.1689-.5537.4307-.8545.4307-1.4561-.1455-1.0913-.4375-1.4697c-.291-.3779-.6787-.5674-1.1621-.5674Z"/>
    <path class="cls-7" d="M33.7414,174.5724c0,1.4312-.2676,2.5098-.8027,3.2368-.5361.7271-1.3506,1.0903-2.4443,1.0903-1.0752,0-1.8857-.3545-2.4297-1.063-.5449-.7085-.8242-1.7578-.8379-3.1479v-1.7227c0-1.4307.2676-2.5039.8037-3.2197.5352-.7153,1.3525-1.0732,2.4502-1.0732,1.0898,0,1.9014.3486,2.4375,1.0459.5352.6973.8096,1.7412.8232,3.1309v1.7227ZM32.0803,172.713c0-.9341-.127-1.6191-.3828-2.0542-.2549-.4351-.6602-.6528-1.2168-.6528-.542,0-.9404.2061-1.1963.6187-.2549.4126-.3896,1.0562-.4033,1.9312v2.2559c0,.9297.1299,1.6226.3896,2.0781.2598.4561.668.6836,1.2236.6836.5332,0,.9277-.2109,1.1826-.6323.2559-.4214.3896-1.0811.4033-1.979v-2.249Z"/>
    <path class="cls-7" d="M45.7453,170.2042h-3.1035v8.5586h-1.7158v-8.5586h-3.0762v-1.3945h7.8955v1.3945Z"/>
    <path class="cls-7" d="M54.9602,176.3018l1.5312-7.4922h1.7158l-2.2969,9.9531h-1.6543l-1.8936-7.2666-1.9346,7.2666h-1.6611l-2.2969-9.9531h1.7158l1.5449,7.4785,1.9004-7.4785h1.4492l1.8799,7.4922Z"/>
    <path class="cls-7" d="M60.9485,172.1729c.543-.6289,1.2285-.9434,2.0576-.9434,1.5771,0,2.377.9004,2.3994,2.7002v4.833h-1.6611v-4.7715c0-.5103-.1104-.8716-.3311-1.0835-.2217-.2119-.5459-.3179-.9746-.3179-.665,0-1.1621.2964-1.4902.8887v5.2842h-1.6611v-10.5h1.6611v3.9102Z"/>
  </g>
  <g>
    <path class="cls-7" d="M316.4006,178.7628h-1.6543v-7.9961l-2.4404.832v-1.3945l3.8828-1.4287h.2119v9.9873Z"/>
    <path class="cls-7" d="M324.5696,174.5997c-.5562.5879-1.2056.8818-1.9482.8818-.875,0-1.5723-.3066-2.0918-.9194s-.7793-1.4185-.7793-2.4165c0-.6562.1323-1.251.3965-1.7842s.6401-.9478,1.1279-1.2441c.4878-.2959,1.0527-.4443,1.6953-.4443,1.0024,0,1.7979.374,2.3857,1.1211.5879.7476.8818,1.748.8818,3.001v.4648c0,1.7959-.4058,3.165-1.2168,4.1084s-2.021,1.4219-3.6299,1.4355h-.1982v-1.374h.2393c.98-.0137,1.7319-.2495,2.2559-.7075s.8179-1.1655.8818-2.1226ZM322.9699,174.1827c.3325,0,.645-.0957.9365-.2871s.5171-.4556.6768-.793v-.6494c0-.7334-.1504-1.3237-.4512-1.7705-.3008-.4463-.6904-.6699-1.1689-.6699s-.8604.1973-1.145.5913-.4272.8921-.4272,1.4937c0,.6245.1436,1.1279.4307,1.5107s.6699.5742,1.1484.5742Z"/>
    <path class="cls-7" d="M338.3508,170.2042h-3.1035v8.5586h-1.7158v-8.5586h-3.0762v-1.3945h7.8955v1.3945Z"/>
    <path class="cls-7" d="M347.5657,176.3018l1.5312-7.4922h1.7158l-2.2969,9.9531h-1.6543l-1.8936-7.2666-1.9346,7.2666h-1.6611l-2.2969-9.9531h1.7158l1.5449,7.4785,1.9004-7.4785h1.4492l1.8799,7.4922Z"/>
    <path class="cls-7" d="M353.5539,172.1729c.5425-.6289,1.228-.9434,2.0576-.9434,1.5767,0,2.3765.9004,2.3994,2.7002v4.833h-1.6611v-4.7715c0-.5103-.1104-.8716-.3315-1.0835s-.5459-.3179-.9741-.3179c-.6655,0-1.1621.2964-1.4902.8887v5.2842h-1.6611v-10.5h1.6611v3.9102Z"/>
  </g>
  <g>
    <path class="cls-4" d="M451.9978,178.7628c-.0913-.1777-.1572-.3989-.1982-.6631-.4785.5332-1.1006.7998-1.8662.7998-.7246,0-1.3252-.2095-1.8013-.6289s-.7144-.9478-.7144-1.5859c0-.7837.2905-1.3853.8716-1.8047s1.4209-.6313,2.519-.6357h.9092v-.4238c0-.3418-.0879-.6152-.2632-.8203s-.4521-.3076-.8306-.3076c-.3325,0-.5938.0796-.7827.2393s-.2837.3784-.2837.6562h-1.9756c0-.4282.1323-.8247.3965-1.1895s.6382-.6504,1.1211-.8579,1.0254-.311,1.627-.311c.9116,0,1.6348.229,2.1704.687s.8032,1.1016.8032,1.9312v3.2061c.0044.7017.1025,1.2329.2939,1.5928v.1162h-1.9961ZM450.364,177.3888c.2915,0,.5605-.0649.8066-.1948s.4282-.3042.5469-.5229v-1.2715h-.7383c-.9888,0-1.5151.3418-1.5791,1.0254l-.0068.1162c0,.2461.0864.4487.2598.6084s.4102.2393.7109.2393Z"/>
    <path class="cls-4" d="M457.487,177.17h3.6162v1.5928h-6.1387v-1.2031l3.4795-4.6006h-3.377v-1.5928h5.9268v1.1636l-3.5068,4.6401ZM458.0271,169.2335l.998-.9775h1.6885v.0752l-2.0645,1.9209h-1.251l-2.0645-1.9346v-.0615h1.6885l1.0049.9775Z"/>
    <path class="cls-4" d="M472.5671,178.7628h-6.8223v-1.3535l3.2197-3.4316c.4419-.4829.769-.9048.981-1.2646s.3179-.7017.3179-1.0254c0-.4419-.1118-.7896-.335-1.0425s-.5425-.3794-.957-.3794c-.4468,0-.7988.1538-1.0562.4614s-.3862.7119-.3862,1.2134h-1.9824c0-.606.1445-1.1597.4341-1.6611s.6982-.8945,1.2271-1.1792,1.1279-.4272,1.7979-.4272c1.0254,0,1.8218.2461,2.3892.7383s.8511,1.187.8511,2.085c0,.4922-.1274.9937-.3828,1.5039s-.6929,1.105-1.3125,1.7842l-2.2627,2.3857h4.2793v1.5928Z"/>
    <path class="cls-4" d="M480.5447,169.9122l-3.8486,8.8506h-2.085l3.8555-8.3604h-4.9492v-1.5928h7.0273v1.1025Z"/>
    <path class="cls-4" d="M482.404,181.2579l-1.0322-.54.2461-.4443c.3052-.5562.4624-1.1099.4717-1.6611v-1.5312h1.668l-.0068,1.3672c-.0044.5059-.1323,1.0161-.3828,1.5312-.2505.5146-.5718.9409-.9639,1.2783Z"/>
    <path class="cls-4" d="M485.5212,173.8683l.5742-5.0586h5.5781v1.6475h-3.958l-.2461,2.1396c.4692-.2505.9683-.376,1.4971-.376.9478,0,1.6909.2939,2.2285.8818s.8066,1.4106.8066,2.4678c0,.6426-.1357,1.2178-.4067,1.7261s-.6597.9023-1.1655,1.1826-1.103.4204-1.791.4204c-.6016,0-1.1597-.1221-1.6748-.3657s-.9219-.5869-1.2202-1.0288-.457-.9458-.4751-1.5107h1.9551c.041.4146.1855.7373.4341.9673s.5732.3452.9741.3452c.4468,0,.7905-.1606,1.0322-.4819s.3623-.7759.3623-1.3638c0-.5649-.1392-.998-.417-1.2988s-.6724-.4512-1.1826-.4512c-.4692,0-.8501.123-1.1416.3691l-.1914.1777-1.5723-.3896Z"/>
    <path class="cls-4" d="M504.0398,170.4708h-3.0488v8.292h-2.0508v-8.292h-3.0078v-1.6611h8.1074v1.6611Z"/>
    <path class="cls-4" d="M513.0632,175.8917l1.3398-7.082h2.0439l-2.208,9.9531h-2.0645l-1.6201-6.6582-1.6201,6.6582h-2.0645l-2.208-9.9531h2.0439l1.3467,7.0684,1.6406-7.0684h1.7363l1.6338,7.082Z"/>
    <path class="cls-4" d="M519.3523,172.1729c.5239-.6289,1.1826-.9434,1.9756-.9434,1.604,0,2.4175.9321,2.4404,2.7959v4.7373h-1.9756v-4.6826c0-.4238-.0913-.7373-.2734-.9399s-.4854-.3042-.9092-.3042c-.5786,0-.998.2231-1.2578.6699v5.2568h-1.9756v-10.5h1.9756v3.9102Z"/>
  </g>
  <g>
    <path class="cls-7" d="M27.654,77.2603c0,.4878-.1255.9219-.376,1.3022-.2505.3809-.5923.6802-1.0254.8989.5195.2417.9194.5718,1.1997.9912s.4204.8931.4204,1.4219c0,.875-.2964,1.5688-.8887,2.0815s-1.3809.769-2.3652.769c-.9888,0-1.7808-.2573-2.3755-.7725s-.8921-1.2075-.8921-2.0781c0-.5332.1411-1.0117.4238-1.4355s.6792-.7495,1.1895-.9775c-.4282-.2188-.7666-.5181-1.0151-.8989-.2485-.3804-.3726-.8145-.3726-1.3022,0-.8477.2734-1.52.8203-2.0166s1.2852-.7451,2.2148-.7451c.9341,0,1.6748.2485,2.2217.7451s.8203,1.1689.8203,2.0166ZM26.2116,81.7926c0-.4922-.147-.8896-.4409-1.1929-.2939-.3027-.6826-.4546-1.1655-.4546s-.8691.1504-1.1587.4512-.4341.6997-.4341,1.1963c0,.4878.1426.8774.4272,1.1689s.6777.4375,1.1792.4375.8921-.1411,1.1724-.4238.4204-.6768.4204-1.1826ZM25.9997,77.3219c0-.4331-.1255-.7896-.376-1.0698s-.5879-.4204-1.0117-.4204-.7588.1333-1.0049.3999-.3691.6299-.3691,1.0903c0,.4556.124.8179.3726,1.0869s.5845.4033,1.0083.4033.7598-.1343,1.0083-.4033.3726-.6313.3726-1.0869Z"/>
    <path class="cls-7" d="M33.8406,84.5885h-1.6543v-7.9961l-2.4404.832v-1.3945l3.8828-1.4287h.2119v9.9873Z"/>
    <path class="cls-7" d="M47.8337,76.0299h-3.1035v8.5586h-1.7158v-8.5586h-3.0762v-1.3945h7.8955v1.3945Z"/>
    <path class="cls-7" d="M57.0486,82.1275l1.5312-7.4922h1.7158l-2.2969,9.9531h-1.6543l-1.8936-7.2666-1.9346,7.2666h-1.6611l-2.2969-9.9531h1.7158l1.5449,7.4785,1.9004-7.4785h1.4492l1.8799,7.4922Z"/>
    <path class="cls-7" d="M63.0368,77.9986c.5425-.6289,1.228-.9434,2.0576-.9434,1.5767,0,2.3765.8999,2.3994,2.7002v4.833h-1.6611v-4.7715c0-.5103-.1104-.8716-.3315-1.0835s-.5459-.3179-.9741-.3179c-.6655,0-1.1621.2964-1.4902.8887v5.2842h-1.6611v-10.5h1.6611v3.9102Z"/>
  </g>
  <line class="cls-2" x1="302.6365" y1="139.6292" x2="302.6365" y2="205.6774"/>
  <line class="cls-2" x1="560.65" y1="127.9393" x2="560.65" y2="193.9875"/>
  <g>
    <path class="cls-3" d="M11.113,217.794c0-.3872-.1367-.6846-.4102-.8921-.2734-.207-.7656-.4258-1.4766-.6562-.7109-.23-1.2739-.4565-1.6885-.6802-1.1304-.6104-1.6953-1.4331-1.6953-2.4678,0-.5376.1514-1.0171.4546-1.439.3032-.4214.7383-.7505,1.3057-.9878.5674-.2368,1.2041-.3555,1.9106-.3555.7109,0,1.3442.1289,1.9004.3862.5562.2578.9878.6211,1.2954,1.0903.3076.4697.4614,1.0029.4614,1.5996h-2.0508c0-.4556-.1436-.8101-.4307-1.063s-.6904-.3794-1.21-.3794c-.5015,0-.8911.106-1.1689.3179s-.417.4912-.417.8374c0,.3237.1631.5947.4888.8135s.8057.4238,1.439.6152c1.1665.3511,2.0166.7861,2.5498,1.3057s.7998,1.167.7998,1.9414c0,.8613-.3257,1.5371-.9775,2.0269-.6519.4902-1.5288.7349-2.6318.7349-.7656,0-1.4629-.1401-2.0918-.4204s-1.1084-.6641-1.439-1.1519c-.3306-.4873-.4956-1.0527-.4956-1.6953h2.0576c0,1.0986.6562,1.6475,1.9688,1.6475.4878,0,.8682-.0991,1.1416-.2974s.4102-.4751.4102-.8306Z"/>
    <path class="cls-3" d="M21.0866,216.7755c0,1.1396-.2588,2.0522-.7759,2.7378-.5171.686-1.2158,1.0288-2.0952,1.0288-.7476,0-1.3511-.2598-1.8115-.7793v3.4863h-1.9756v-10.2402h1.832l.0684.7246c.4785-.5742,1.103-.8613,1.873-.8613.9116,0,1.6201.3374,2.126,1.0117.5059.6748.7588,1.6045.7588,2.7891v.1025ZM19.1111,216.6319c0-.688-.1221-1.2188-.3657-1.5928-.2437-.3735-.5981-.5605-1.063-.5605-.6196,0-1.0459.2373-1.2783.7109v3.0283c.2417.4878.6724.7314,1.292.7314.9434,0,1.415-.7725,1.415-2.3174Z"/>
    <path class="cls-3" d="M22.0027,216.6388c0-.7334.1411-1.3877.4238-1.9619s.6895-1.0186,1.2202-1.333,1.1475-.4717,1.8491-.4717c.998,0,1.8125.3057,2.4438.916.6313.6108.9834,1.4404,1.0562,2.4883l.0137.5059c0,1.1348-.3169,2.0454-.9502,2.731-.6333.686-1.4834,1.0288-2.5498,1.0288s-1.9175-.3418-2.5532-1.0254-.9536-1.6133-.9536-2.7891v-.0889ZM23.9782,216.7789c0,.7031.1323,1.2407.3965,1.6123.2642.3721.6426.5581,1.1348.5581.4785,0,.8521-.1836,1.1211-.5513.269-.3672.4033-.9546.4033-1.7627,0-.689-.1343-1.2231-.4033-1.6021s-.647-.5684-1.1348-.5684c-.4829,0-.8569.1885-1.1211.5649s-.3965.9595-.3965,1.749Z"/>
    <path class="cls-3" d="M32.5915,211.1905v1.8184h1.2646v1.4492h-1.2646v3.6914c0,.2734.0522.4697.1572.5879.105.1187.3052.1777.6016.1777.2188,0,.4126-.0156.5811-.0479v1.4971c-.3872.1187-.7861.1777-1.1963.1777-1.3853,0-2.0918-.6992-2.1191-2.0986v-3.9854h-1.0801v-1.4492h1.0801v-1.8184h1.9756Z"/>
    <path class="cls-3" d="M37.0075,210.8761l.998-.9775h1.6885v.0752l-2.0645,1.9209h-1.251l-2.0645-1.9346v-.0615h1.6885l1.0049.9775ZM39.113,214.8614c-.269-.0361-.5059-.0547-.7109-.0547-.7476,0-1.2373.2529-1.4697.7588v4.8398h-1.9756v-7.3965h1.8662l.0547.8818c.3965-.6787.9458-1.0186,1.6475-1.0186.2188,0,.4238.0298.6152.0889l-.0273,1.9004Z"/>
    <path class="cls-3" d="M43.4675,220.5421c-1.0845,0-1.9678-.3325-2.6489-.998-.6812-.665-1.022-1.5518-1.022-2.6592v-.1914c0-.7427.1436-1.4067.4307-1.9927.2871-.5854.6938-1.0366,1.2202-1.3535.5264-.3164,1.127-.4751,1.8013-.4751,1.0117,0,1.8081.3193,2.3892.957.5811.6382.8716,1.543.8716,2.7139v.8066h-4.71c.064.4834.2563.8706.5776,1.1621.3213.292.728.4375,1.2202.4375.7612,0,1.356-.2754,1.7842-.8271l.9707,1.0869c-.2964.4194-.6973.7466-1.2031.981-.5059.2349-1.0664.3521-1.6816.3521ZM43.2419,214.4649c-.3921,0-.71.1328-.9536.3984s-.3999.6455-.4683,1.1396h2.748v-.1577c-.0093-.4395-.1274-.7793-.3555-1.0195-.228-.2407-.5513-.3608-.9707-.3608Z"/>
    <path class="cls-3" d="M54.2956,216.7755c0,1.1851-.2529,2.1089-.7588,2.772s-1.2124.9946-2.1191.9946c-.8022,0-1.4424-.3076-1.9209-.9229l-.0889.7861h-1.7773v-10.5h1.9756v3.7666c.4556-.5332,1.0552-.7998,1.7979-.7998.9023,0,1.6099.3315,2.1226.9946s.769,1.5962.769,2.7993v.1094ZM52.32,216.6319c0-.7471-.1187-1.293-.3555-1.6372-.2368-.3438-.5903-.5161-1.0596-.5161-.6289,0-1.062.2578-1.2988.7725v2.9189c.2417.5195.6792.7793,1.3125.7793.6382,0,1.0571-.3145,1.2578-.9434.0957-.3008.1436-.7588.1436-1.374Z"/>
    <path class="cls-3" d="M59.7986,220.4054c-.0913-.1777-.1572-.3984-.1982-.6631-.4785.5332-1.1006.7998-1.8662.7998-.7246,0-1.3252-.2095-1.8013-.6289-.4761-.4189-.7144-.9478-.7144-1.5859,0-.7837.2905-1.3853.8716-1.8047.5811-.4189,1.4209-.6309,2.519-.6357h.9092v-.4238c0-.3418-.0879-.6152-.2632-.8203s-.4521-.3076-.8306-.3076c-.3325,0-.5938.0801-.7827.2393-.189.1597-.2837.3784-.2837.6562h-1.9756c0-.4282.1323-.8247.3965-1.1895.2642-.3643.6382-.6504,1.1211-.8579.4829-.207,1.0254-.311,1.627-.311.9116,0,1.6348.229,2.1704.687s.8032,1.1021.8032,1.9312v3.2061c.0044.7021.1025,1.2329.2939,1.5928v.1162h-1.9961ZM58.1648,219.0313c.2915,0,.5605-.0649.8066-.1948s.4282-.3042.5469-.5229v-1.2715h-.7383c-.9888,0-1.5151.3418-1.5791,1.0254l-.0068.1162c0,.2461.0864.4492.2598.6084.1733.1597.4102.2393.7109.2393Z"/>
    <path class="cls-3" d="M69.9089,220.5421c-1.0845,0-1.9678-.3325-2.6489-.998-.6812-.665-1.022-1.5518-1.022-2.6592v-.1914c0-.7427.1436-1.4067.4307-1.9927.2871-.5854.6938-1.0366,1.2202-1.3535.5264-.3164,1.127-.4751,1.8013-.4751,1.0117,0,1.8081.3193,2.3892.957.5811.6382.8716,1.543.8716,2.7139v.8066h-4.71c.064.4834.2563.8706.5776,1.1621.3213.292.728.4375,1.2202.4375.7612,0,1.356-.2754,1.7842-.8271l.9707,1.0869c-.2964.4194-.6973.7466-1.2031.981-.5059.2349-1.0664.3521-1.6816.3521ZM69.6833,214.4649c-.3921,0-.71.1328-.9536.3984s-.3999.6455-.4683,1.1396h2.748v-.1577c-.0093-.4395-.1274-.7793-.3555-1.0195-.228-.2407-.5513-.3608-.9707-.3608Z"/>
    <path class="cls-3" d="M76.157,220.4054h-1.9824v-10.5h1.9824v10.5Z"/>
    <path class="cls-3" d="M81.1882,220.5421c-1.0845,0-1.9678-.3325-2.6489-.998-.6812-.665-1.022-1.5518-1.022-2.6592v-.1914c0-.7427.1436-1.4067.4307-1.9927.2871-.5854.6938-1.0366,1.2202-1.3535.5264-.3164,1.127-.4751,1.8013-.4751,1.0117,0,1.8081.3193,2.3892.957.5811.6382.8716,1.543.8716,2.7139v.8066h-4.71c.064.4834.2563.8706.5776,1.1621.3213.292.728.4375,1.2202.4375.7612,0,1.356-.2754,1.7842-.8271l.9707,1.0869c-.2964.4194-.6973.7466-1.2031.981-.5059.2349-1.0664.3521-1.6816.3521ZM80.9626,214.4649c-.3921,0-.71.1328-.9536.3984s-.3999.6455-.4683,1.1396h2.748v-.1577c-.0093-.4395-.1274-.7793-.3555-1.0195-.228-.2407-.5513-.3608-.9707-.3608Z"/>
    <path class="cls-3" d="M88.0378,217.4386l-.7109.7109v2.2559h-1.9756v-10.5h1.9756v5.8174l.3828-.4922,1.8936-2.2217h2.3721l-2.6729,3.083,2.9053,4.3135h-2.2695l-1.9004-2.9668Z"/>
    <path class="cls-3" d="M95.195,211.1905v1.8184h1.2646v1.4492h-1.2646v3.6914c0,.2734.0522.4697.1572.5879.105.1187.3052.1777.6016.1777.2188,0,.4126-.0156.5811-.0479v1.4971c-.3872.1187-.7861.1777-1.1963.1777-1.3853,0-2.0918-.6992-2.1191-2.0986v-3.9854h-1.0801v-1.4492h1.0801v-1.8184h1.9756Z"/>
    <path class="cls-3" d="M99.6111,210.8761l.998-.9775h1.6885v.0752l-2.0645,1.9209h-1.251l-2.0645-1.9346v-.0615h1.6885l1.0049.9775ZM101.7165,214.8614c-.269-.0361-.5059-.0547-.7109-.0547-.7476,0-1.2373.2529-1.4697.7588v4.8398h-1.9756v-7.3965h1.8662l.0547.8818c.3965-.6787.9458-1.0186,1.6475-1.0186.2188,0,.4238.0298.6152.0889l-.0273,1.9004Z"/>
    <path class="cls-3" d="M102.6531,211.0948c0-.2959.0991-.54.2974-.7314s.4683-.2871.8101-.2871c.3374,0,.606.0957.8066.2871s.3008.4355.3008.7314c0,.3008-.1016.5469-.3042.7383s-.4707.2871-.8032.2871-.6006-.0957-.8032-.2871-.3042-.4375-.3042-.7383ZM104.7517,220.4054h-1.9824v-7.3965h1.9824v7.3965Z"/>
    <path class="cls-3" d="M108.197,213.0089l.0615.8545c.5288-.6606,1.2373-.9912,2.126-.9912.7837,0,1.3672.2305,1.75.6904.3828.4604.5786,1.1484.5879,2.0645v4.7783h-1.9756v-4.7305c0-.4189-.0913-.7231-.2734-.9126-.1821-.189-.4854-.2837-.9092-.2837-.5562,0-.9731.2373-1.251.7109v5.2158h-1.9756v-7.3965h1.8594Z"/>
    <path class="cls-3" d="M116.9812,217.6095l1.3672-4.6006h2.1191l-2.9736,8.5449-.1641.3896c-.4419.9663-1.1714,1.4492-2.1875,1.4492-.2871,0-.5786-.0435-.875-.1299v-1.4971l.3008.0068c.3735,0,.6528-.0571.8374-.1709s.3291-.3032.4341-.5674l.2324-.6084-2.5908-7.417h2.126l1.374,4.6006Z"/>
    <path class="cls-3" d="M127.5017,217.9923l1.374-4.9834h2.0645l-2.4951,7.3965h-1.8867l-2.4951-7.3965h2.0645l1.374,4.9834Z"/>
    <path class="cls-3" d="M143.238,217.0899c-.0776,1.0713-.4727,1.9141-1.186,2.5293s-1.6533.9229-2.8198.9229c-1.2759,0-2.2798-.4292-3.0112-1.2886-.7314-.8589-1.0972-2.0381-1.0972-3.5376v-.6084c0-.957.1685-1.7998.5059-2.5293.3374-.729.8193-1.2886,1.4458-1.6782s1.3545-.5845,2.1841-.5845c1.1484,0,2.0737.3076,2.7754.9229s1.1074,1.479,1.2168,2.5908h-2.0508c-.0503-.6426-.229-1.1084-.5366-1.3979-.3076-.2891-.7759-.4341-1.4048-.4341-.6836,0-1.1953.2451-1.5347.7349-.3394.4902-.5137,1.25-.5229,2.2798v.752c0,1.0757.1631,1.8618.4888,2.3584.3257.4971.8398.7451,1.5415.7451.6333,0,1.1064-.1445,1.4185-.4341.312-.2891.4912-.7368.5366-1.3433h2.0508ZM139.239,208.7022l.998-.9775h1.6885v.0752l-2.0645,1.9209h-1.251l-2.0645-1.9346v-.0615h1.6885l1.0049.9775Z"/>
    <path class="cls-3" d="M148.2693,216.7618h-1.6338v3.6436h-2.0508v-9.9531h3.6982c1.1758,0,2.0825.2622,2.7207.7861.6382.5244.957,1.2646.957,2.2217,0,.6792-.147,1.2456-.4409,1.6987-.2939.4536-.7393.8149-1.3364,1.0835l2.1533,4.0674v.0957h-2.2012l-1.8662-3.6436ZM146.6355,215.1007h1.6543c.5151,0,.9136-.1309,1.1963-.3931.2827-.2617.4238-.623.4238-1.0835,0-.4692-.1333-.8384-.3999-1.1074-.2666-.2686-.6758-.4033-1.2271-.4033h-1.6475v2.9873Z"/>
  </g>
  <path class="cls-4" d="M308.1838,214.8341h2.4678v1.7842h-2.4678v2.7891h-1.8799v-2.7891h-2.4746v-1.7842h2.4746v-2.6729h1.8799v2.6729Z"/>
</svg>