<?xml version="1.0" encoding="UTF-8" standalone="no"?>
<svg
   width="440"
   height="340"
   version="1.1"
   id="svg935"
   xmlns="http://www.w3.org/2000/svg"
   xmlns:svg="http://www.w3.org/2000/svg">
  <defs
     id="defs935" />
  <g
     id="g102"
     transform="translate(-1.9322548,-923.90924)">
    <rect
       x="79.560974"
       y="1039.9882"
       width="17.229881"
       height="18.285141"
       style="fill:#f5c669;fill-opacity:1;stroke:none;stroke-width:1.42667;stroke-linecap:butt;stroke-linejoin:miter"
       id="rect8" />
    <rect
       x="79.560974"
       y="1058.2734"
       width="17.229881"
       height="177.54477"
       style="fill:#78afe9;fill-opacity:1;stroke:none;stroke-width:1.42667;stroke-linecap:butt;stroke-linejoin:miter"
       id="rect9" />
    <rect
       x="106.92297"
       y="1063.3779"
       width="17.229881"
       height="28.261612"
       style="fill:#f5c669;fill-opacity:1;stroke:none;stroke-width:1.42667;stroke-linecap:butt;stroke-linejoin:miter"
       id="rect10" />
    <rect
       x="106.92297"
       y="1091.6497"
       width="17.229881"
       height="144.1787"
       style="fill:#78afe9;fill-opacity:1;stroke:none;stroke-width:1.42667;stroke-linecap:butt;stroke-linejoin:miter"
       id="rect11" />
    <rect
       x="134.2749"
       y="1041.7167"
       width="17.229881"
       height="42.544037"
       style="fill:#f5c669;fill-opacity:1;stroke:none;stroke-width:1.42667;stroke-linecap:butt;stroke-linejoin:miter"
       id="rect12" />
    <rect
       x="134.2749"
       y="1084.2607"
       width="17.229881"
       height="151.56754"
       style="fill:#78afe9;fill-opacity:1;stroke:none;stroke-width:1.42667;stroke-linecap:butt;stroke-linejoin:miter"
       id="rect13" />
    <rect
       x="161.62683"
       y="1066.4408"
       width="17.229881"
       height="54.127655"
       style="fill:#f5c669;fill-opacity:1;stroke:none;stroke-width:1.42667;stroke-linecap:butt;stroke-linejoin:miter"
       id="rect14" />
    <rect
       x="161.62683"
       y="1120.5684"
       width="17.229881"
       height="115.24995"
       style="fill:#78afe9;fill-opacity:1;stroke:none;stroke-width:1.42667;stroke-linecap:butt;stroke-linejoin:miter"
       id="rect15" />
    <rect
       x="188.98877"
       y="1073.6172"
       width="17.229881"
       height="58.76717"
       style="fill:#f5c669;fill-opacity:1;stroke:none;stroke-width:1.42667;stroke-linecap:butt;stroke-linejoin:miter"
       id="rect16" />
    <rect
       x="188.98877"
       y="1132.3945"
       width="17.229881"
       height="103.43386"
       style="fill:#78afe9;fill-opacity:1;stroke:none;stroke-width:1.42667;stroke-linecap:butt;stroke-linejoin:miter"
       id="rect17" />
    <rect
       x="216.3407"
       y="1092.7817"
       width="17.229881"
       height="56.705162"
       style="fill:#f5c669;fill-opacity:1;stroke:none;stroke-width:1.42667;stroke-linecap:butt;stroke-linejoin:miter"
       id="rect18" />
    <rect
       x="216.3407"
       y="1149.4971"
       width="17.229881"
       height="86.331337"
       style="fill:#78afe9;fill-opacity:1;stroke:none;stroke-width:1.42667;stroke-linecap:butt;stroke-linejoin:miter"
       id="rect19" />
    <rect
       x="243.69263"
       y="1090.4569"
       width="17.229881"
       height="57.928215"
       style="fill:#f5c669;fill-opacity:1;stroke:none;stroke-width:1.42667;stroke-linecap:butt;stroke-linejoin:miter"
       id="rect20" />
    <rect
       x="243.69263"
       y="1148.3851"
       width="17.229881"
       height="87.433098"
       style="fill:#78afe9;fill-opacity:1;stroke:none;stroke-width:1.42667;stroke-linecap:butt;stroke-linejoin:miter"
       id="rect21" />
    <rect
       x="271.04449"
       y="1105.0629"
       width="17.229881"
       height="53.177517"
       style="fill:#f5c669;fill-opacity:1;stroke:none;stroke-width:1.42667;stroke-linecap:butt;stroke-linejoin:miter"
       id="rect22" />
    <rect
       x="271.04449"
       y="1158.2302"
       width="17.229881"
       height="77.598137"
       style="fill:#78afe9;fill-opacity:1;stroke:none;stroke-width:1.42667;stroke-linecap:butt;stroke-linejoin:miter"
       id="rect23" />
    <rect
       x="298.40649"
       y="1090.3254"
       width="17.229881"
       height="39.96653"
       style="fill:#f5c669;fill-opacity:1;stroke:none;stroke-width:1.42667;stroke-linecap:butt;stroke-linejoin:miter"
       id="rect24" />
    <rect
       x="298.40649"
       y="1130.2921"
       width="17.229881"
       height="105.5363"
       style="fill:#78afe9;fill-opacity:1;stroke:none;stroke-width:1.42667;stroke-linecap:butt;stroke-linejoin:miter"
       id="rect25" />
    <rect
       x="325.75842"
       y="1071.3025"
       width="17.229881"
       height="30.485344"
       style="fill:#f5c669;fill-opacity:1;stroke:none;stroke-width:1.42667;stroke-linecap:butt;stroke-linejoin:miter"
       id="rect26" />
    <rect
       x="325.75842"
       y="1101.7878"
       width="17.229881"
       height="134.0304"
       style="fill:#78afe9;fill-opacity:1;stroke:none;stroke-width:1.42667;stroke-linecap:butt;stroke-linejoin:miter"
       id="rect27" />
    <rect
       x="353.11035"
       y="1076.4978"
       width="17.229881"
       height="17.345108"
       style="fill:#f5c669;fill-opacity:1;stroke:none;stroke-width:1.42667;stroke-linecap:butt;stroke-linejoin:miter"
       id="rect28" />
    <rect
       x="353.11035"
       y="1093.8531"
       width="17.229881"
       height="141.97517"
       style="fill:#78afe9;fill-opacity:1;stroke:none;stroke-width:1.42667;stroke-linecap:butt;stroke-linejoin:miter"
       id="rect29" />
    <rect
       x="380.47229"
       y="1048.7113"
       width="17.229881"
       height="14.221776"
       style="fill:#f5c669;fill-opacity:1;stroke:none;stroke-width:1.42667;stroke-linecap:butt;stroke-linejoin:miter"
       id="rect30" />
    <rect
       x="380.47229"
       y="1062.9332"
       width="17.229881"
       height="172.89516"
       style="fill:#78afe9;fill-opacity:1;stroke:none;stroke-width:1.42667;stroke-linecap:butt;stroke-linejoin:miter"
       id="rect31" />
    <path
       style="fill:#81b2e3;fill-opacity:1;stroke:#ffffff;stroke-width:1.33333;stroke-linecap:butt;stroke-dasharray:none;stroke-opacity:1;paint-order:markers fill stroke"
       d="m 79.560974,1058.2734 17.229882,-10e-5"
       id="path7" />
    <path
       style="fill:#81b2e3;fill-opacity:1;stroke:#ffffff;stroke-width:1.33333;stroke-linecap:butt;stroke-dasharray:none;stroke-opacity:1;paint-order:markers fill stroke"
       d="m 106.92297,1091.6497 17.22989,-10e-5"
       id="path8" />
    <path
       style="fill:#81b2e3;fill-opacity:1;stroke:#ffffff;stroke-width:1.33333;stroke-linecap:butt;stroke-dasharray:none;stroke-opacity:1;paint-order:markers fill stroke"
       d="m 134.2749,1084.2608 17.22989,-10e-5"
       id="path9" />
    <path
       style="fill:#81b2e3;fill-opacity:1;stroke:#ffffff;stroke-width:1.33333;stroke-linecap:butt;stroke-dasharray:none;stroke-opacity:1;paint-order:markers fill stroke"
       d="m 161.62683,1120.5685 17.22989,-10e-5"
       id="path9-7" />
    <path
       style="fill:#81b2e3;fill-opacity:1;stroke:#ffffff;stroke-width:1.33333;stroke-linecap:butt;stroke-dasharray:none;stroke-opacity:1;paint-order:markers fill stroke"
       d="m 188.98877,1132.3946 17.22989,-10e-5"
       id="path9-4" />
    <path
       style="fill:#81b2e3;fill-opacity:1;stroke:#ffffff;stroke-width:1.33333;stroke-linecap:butt;stroke-dasharray:none;stroke-opacity:1;paint-order:markers fill stroke"
       d="m 216.3407,1149.4971 17.22989,-10e-5"
       id="path9-6" />
    <path
       style="fill:#81b2e3;fill-opacity:1;stroke:#ffffff;stroke-width:1.33333;stroke-linecap:butt;stroke-dasharray:none;stroke-opacity:1;paint-order:markers fill stroke"
       d="m 243.69263,1148.3852 17.22989,-10e-5"
       id="path9-9" />
    <path
       style="fill:#81b2e3;fill-opacity:1;stroke:#ffffff;stroke-width:1.33333;stroke-linecap:butt;stroke-dasharray:none;stroke-opacity:1;paint-order:markers fill stroke"
       d="m 271.04449,1158.2404 17.22989,-10e-5"
       id="path9-0" />
    <path
       style="fill:#81b2e3;fill-opacity:1;stroke:#ffffff;stroke-width:1.33333;stroke-linecap:butt;stroke-dasharray:none;stroke-opacity:1;paint-order:markers fill stroke"
       d="m 298.40649,1130.2922 17.22989,-1e-4"
       id="path9-1" />
    <path
       style="fill:#81b2e3;fill-opacity:1;stroke:#ffffff;stroke-width:1.33333;stroke-linecap:butt;stroke-dasharray:none;stroke-opacity:1;paint-order:markers fill stroke"
       d="m 325.75842,1102.1213 17.22989,-10e-5"
       id="path9-11" />
    <path
       style="fill:#e8c06d;fill-opacity:1;stroke:#ffffff;stroke-width:1.33333;stroke-linecap:butt;stroke-dasharray:none;stroke-opacity:1;paint-order:markers fill stroke"
       d="m 353.11035,1093.8429 17.22989,-1e-4"
       id="path9-3" />
    <path
       style="fill:#81b2e3;fill-opacity:1;stroke:#ffffff;stroke-width:1.33333;stroke-linecap:butt;stroke-dasharray:none;stroke-opacity:1;paint-order:markers fill stroke"
       d="m 380.47229,1062.9332 17.22989,-10e-5"
       id="path9-03" />
  </g>
  <g
     id="g43"
     transform="translate(-1.9322548,-918.93539)"
     style="fill:#808080">
    <path
       d="m 75.610489,1245.2501 v 9 h -1.089844 v -9 z m 6.755859,7.8926 q -0.310547,0.4688 -0.878906,0.8496 -0.568359,0.375 -1.505859,0.375 -1.324219,0 -2.121094,-0.8613 -0.791016,-0.8613 -0.791016,-2.2031 v -0.2461 q 0,-1.0371 0.392578,-1.7637 0.398438,-0.7324 1.03125,-1.1133 0.632813,-0.3867 1.347657,-0.3867 1.359375,0 1.980468,0.8906 0.626954,0.8848 0.626954,2.2149 v 0.4863 h -4.289063 q 0.02344,0.873 0.515625,1.4883 0.498047,0.6093 1.365234,0.6093 0.574219,0 0.972657,-0.2343 0.398437,-0.2344 0.697265,-0.627 z m -2.52539,-4.459 q -0.644532,0 -1.089844,0.4688 -0.445313,0.4687 -0.556641,1.3476 h 3.169922 v -0.082 q -0.04102,-0.6328 -0.36914,-1.1836 -0.322266,-0.5508 -1.154297,-0.5508 z m 7.96289,5.5664 -0.05273,-0.6797 q -0.650391,0.7969 -1.810547,0.7969 -1.119141,0 -1.810547,-0.9141 -0.685547,-0.914 -0.685547,-2.3027 v -0.123 q 0,-1.4532 0.685547,-2.3438 0.691406,-0.8906 1.822266,-0.8906 1.11914,0 1.757812,0.75 v -3.293 h 1.089844 v 9 z m -3.269531,-3.0996 q 0,0.9434 0.398438,1.6231 0.398437,0.6738 1.277343,0.6738 0.56836,0 0.925782,-0.2578 0.357421,-0.2578 0.574218,-0.6621 v -2.918 q -0.210937,-0.3926 -0.574218,-0.6445 -0.357422,-0.2578 -0.914063,-0.2578 -0.884766,0 -1.289062,0.6914 -0.398438,0.6855 -0.398438,1.6289 z m 10.962891,1.9922 q -0.310547,0.4688 -0.878907,0.8496 -0.568359,0.375 -1.505859,0.375 -1.324219,0 -2.121094,-0.8613 -0.791015,-0.8613 -0.791015,-2.2031 v -0.2461 q 0,-1.0371 0.392578,-1.7637 0.398437,-0.7324 1.03125,-1.1133 0.632812,-0.3867 1.347656,-0.3867 1.359375,0 1.980469,0.8906 0.626953,0.8848 0.626953,2.2149 v 0.4863 h -4.289063 q 0.02344,0.873 0.515625,1.4883 0.498047,0.6093 1.365235,0.6093 0.574219,0 0.972656,-0.2343 0.398438,-0.2344 0.697266,-0.627 z m -2.525391,-4.459 q -0.644531,0 -1.089844,0.4688 -0.445312,0.4687 -0.55664,1.3476 h 3.169922 v -0.082 q -0.04102,-0.6328 -0.369141,-1.1836 -0.322266,-0.5508 -1.154297,-0.5508 z m 6.503906,0.024 q -0.521484,0 -0.919922,0.2812 -0.398437,0.2813 -0.626953,0.7324 v 4.5293 h -1.083984 v -6.3398 h 1.025391 l 0.03516,0.791 q 0.720703,-0.9082 1.892578,-0.9082 0.937497,0 1.482417,0.5273 0.55078,0.5274 0.55078,1.7754 v 4.1543 h -1.08984 v -4.166 q 0,-0.7441 -0.32813,-1.0605 -0.32226,-0.3164 -0.937493,-0.3164 z"
       id="text2509-9"
       style="font-size:12px;line-height:1.3;font-family:Roboto;-inkscape-font-specification:Roboto;text-align:center;letter-spacing:0px;text-anchor:middle;stroke-width:3.77953;paint-order:markers fill stroke"
       aria-label="leden" />
    <path
       d="m 369.63702,1254.3673 q -1.14257,0 -1.81054,-0.7324 v 3.0527 h -1.08985 v -8.7773 h 0.9961 l 0.0527,0.6972 q 0.66797,-0.8144 1.83399,-0.8144 1.20117,0 1.83984,0.8906 0.63867,0.8906 0.63867,2.3438 v 0.123 q 0,1.3887 -0.64453,2.3027 -0.63867,0.9141 -1.81641,0.9141 z m -0.33398,-5.6601 q -0.55078,0 -0.9082,0.2519 -0.35743,0.2461 -0.56836,0.6211 v 3.0352 q 0.21679,0.375 0.56836,0.6211 0.35742,0.2402 0.91992,0.2402 0.8789,0 1.2832,-0.6914 0.41016,-0.6914 0.41016,-1.6348 v -0.123 q 0,-0.9434 -0.41016,-1.6289 -0.4043,-0.6914 -1.29492,-0.6914 z m 6.70898,0.1289 q -0.55664,0 -0.91406,0.2519 -0.35742,0.2461 -0.5332,0.6621 v 4.5 h -1.08399 v -6.3398 h 1.05469 l 0.0234,0.7265 q 0.24023,-0.3867 0.60937,-0.6152 0.375,-0.2285 0.89649,-0.2285 0.30469,0 0.48047,0.082 l -0.006,1.0078 q -0.24024,-0.047 -0.52735,-0.047 z m 1.13086,2.3144 v -0.1348 q 0,-1.3769 0.77344,-2.2968 0.77344,-0.9258 2.10352,-0.9258 1.34179,0 2.11523,0.9258 0.7793,0.9199 0.7793,2.2968 v 0.1348 q 0,1.377 -0.7793,2.2969 -0.77344,0.9199 -2.10351,0.9199 -1.33594,0 -2.11524,-0.9199 -0.77344,-0.9199 -0.77344,-2.2969 z m 1.08399,-0.1348 v 0.1348 q 0,0.9434 0.44531,1.6348 0.45117,0.6914 1.35938,0.6914 0.89062,0 1.34179,-0.6914 0.45117,-0.6914 0.45117,-1.6348 v -0.1348 q 0,-0.9316 -0.45117,-1.6289 -0.45117,-0.7031 -1.35351,-0.7031 -0.89649,0 -1.34766,0.7031 -0.44531,0.6973 -0.44531,1.6289 z m 9.73828,1.5528 q 0,-0.3516 -0.26367,-0.627 -0.25782,-0.2812 -1.19532,-0.4687 -1.06054,-0.2227 -1.67578,-0.6328 -0.60937,-0.4102 -0.60937,-1.1953 0,-0.75 0.63867,-1.3008 0.64453,-0.5508 1.71094,-0.5508 1.13672,0 1.77539,0.5801 0.63867,0.58 0.63867,1.4004 h -1.08398 q 0,-0.3926 -0.34571,-0.7383 -0.3457,-0.3516 -0.98437,-0.3516 -0.67383,0 -0.9668,0.293 -0.29297,0.293 -0.29297,0.6387 0,0.3515 0.28125,0.5683 0.28125,0.211 1.17774,0.4102 1.16601,0.2695 1.72265,0.6972 0.55664,0.4278 0.55664,1.1954 0,0.8378 -0.67382,1.3593 -0.66797,0.5215 -1.7754,0.5215 -1.25976,0 -1.92773,-0.6445 -0.66797,-0.6446 -0.66797,-1.4297 h 1.08985 q 0.0351,0.6738 0.51562,0.9316 0.48633,0.252 0.99023,0.252 0.66211,0 1.01368,-0.2578 0.35156,-0.2578 0.35156,-0.6504 z m 2.50781,-6.3399 q 0,-0.2636 0.1582,-0.4453 0.16407,-0.1816 0.48047,-0.1816 0.31055,0 0.47461,0.1816 0.16992,0.1817 0.16992,0.4453 0,0.252 -0.16992,0.4336 -0.16406,0.1758 -0.47461,0.1758 -0.3164,0 -0.48047,-0.1758 -0.1582,-0.1816 -0.1582,-0.4336 z m 1.17188,1.6817 v 6.3398 h -1.08985 v -6.3398 z m 4.37109,0.7969 q -0.52148,0 -0.91992,0.2812 -0.39844,0.2813 -0.62695,0.7324 v 4.5293 h -1.08399 v -6.3398 h 1.02539 l 0.0352,0.791 q 0.7207,-0.9082 1.89258,-0.9082 0.9375,0 1.48242,0.5273 0.55078,0.5274 0.55078,1.7754 v 4.1543 h -1.08984 v -4.166 q 0,-0.7441 -0.32813,-1.0605 -0.32227,-0.3164 -0.9375,-0.3164 z m 9.01172,4.4355 q -0.31055,0.4688 -0.87891,0.8496 -0.56836,0.375 -1.50586,0.375 -1.32422,0 -2.12109,-0.8613 -0.79102,-0.8613 -0.79102,-2.2031 v -0.2461 q 0,-1.0371 0.39258,-1.7637 0.39844,-0.7324 1.03125,-1.1133 0.63281,-0.3867 1.34766,-0.3867 1.35937,0 1.98047,0.8906 0.62695,0.8848 0.62695,2.2149 v 0.4863 h -4.28906 q 0.0234,0.873 0.51562,1.4883 0.49805,0.6093 1.36524,0.6093 0.57422,0 0.97265,-0.2343 0.39844,-0.2344 0.69727,-0.627 z m -2.52539,-4.459 q -0.64453,0 -1.08985,0.4688 -0.44531,0.4687 -0.55664,1.3476 h 3.16993 v -0.082 q -0.041,-0.6328 -0.36914,-1.1836 -0.32227,-0.5508 -1.1543,-0.5508 z m 6.41015,4.793 q 0.58008,0 1.01368,-0.3457 0.43945,-0.3457 0.48047,-0.8848 h 1.03125 q -0.041,0.8496 -0.7793,1.4883 -0.73828,0.6328 -1.7461,0.6328 -1.42968,0 -2.12695,-0.9433 -0.6914,-0.9434 -0.6914,-2.2208 v -0.246 q 0,-1.2774 0.6914,-2.2207 0.69727,-0.9434 2.12695,-0.9434 1.11329,0 1.79883,0.6621 0.68555,0.6563 0.72657,1.6348 h -1.03125 q -0.041,-0.586 -0.44532,-0.9961 -0.39843,-0.4102 -1.04883,-0.4102 -0.66796,0 -1.04882,0.3399 -0.375,0.3398 -0.53321,0.8613 -0.15234,0.5215 -0.15234,1.0723 v 0.246 q 0,0.5567 0.15234,1.0782 0.15235,0.5215 0.52735,0.8613 0.38086,0.334 1.05468,0.334 z"
       id="text2510-6"
       style="font-size:12px;line-height:1.3;font-family:Roboto;-inkscape-font-specification:Roboto;text-align:center;letter-spacing:0px;text-anchor:middle;stroke-width:3.77953;paint-order:markers fill stroke"
       aria-label="prosinec" />
    <path
       d="m 210.68221,1253.4767 q 0.58007,0 1.01367,-0.3457 0.43945,-0.3457 0.48047,-0.8848 h 1.03125 q -0.041,0.8496 -0.7793,1.4883 -0.73828,0.6328 -1.74609,0.6328 -1.42969,0 -2.12696,-0.9433 -0.6914,-0.9434 -0.6914,-2.2208 v -0.246 q 0,-1.2774 0.6914,-2.2207 0.69727,-0.9434 2.12696,-0.9434 1.11328,0 1.79882,0.6621 0.68555,0.6563 0.72657,1.6348 h -1.03125 q -0.041,-0.586 -0.44532,-0.9961 -0.39843,-0.4102 -1.04882,-0.4102 -0.66797,0 -1.04883,0.3399 -0.375,0.3398 -0.53321,0.8613 -0.15234,0.5215 -0.15234,1.0723 v 0.246 q 0,0.5567 0.15234,1.0782 0.15235,0.5215 0.52735,0.8613 0.38086,0.334 1.05469,0.334 z m -1.13086,-8.2207 0.88476,0.9961 0.88477,-0.9961 h 0.9375 v 0.059 l -1.48828,1.6054 h -0.66797 l -1.46485,-1.6054 v -0.059 z m 9.89062,7.8867 q -0.31055,0.4688 -0.87891,0.8496 -0.56835,0.375 -1.50585,0.375 -1.32422,0 -2.1211,-0.8613 -0.79101,-0.8613 -0.79101,-2.2031 v -0.2461 q 0,-1.0371 0.39257,-1.7637 0.39844,-0.7324 1.03125,-1.1133 0.63282,-0.3867 1.34766,-0.3867 1.35938,0 1.98047,0.8906 0.62695,0.8848 0.62695,2.2149 v 0.4863 h -4.28906 q 0.0234,0.873 0.51562,1.4883 0.49805,0.6093 1.36524,0.6093 0.57422,0 0.97266,-0.2343 0.39843,-0.2344 0.69726,-0.627 z m -2.52539,-4.459 q -0.64453,0 -1.08984,0.4688 -0.44532,0.4687 -0.55664,1.3476 h 3.16992 v -0.082 q -0.041,-0.6328 -0.36914,-1.1836 -0.32227,-0.5508 -1.1543,-0.5508 z m 6.4043,0.1524 q -0.55664,0 -0.91407,0.2519 -0.35742,0.2461 -0.5332,0.6621 v 4.5 h -1.08398 v -6.3398 h 1.05468 l 0.0234,0.7265 q 0.24024,-0.3867 0.60938,-0.6152 0.375,-0.2285 0.89648,-0.2285 0.30469,0 0.48047,0.082 l -0.006,1.0078 q -0.24023,-0.047 -0.52734,-0.047 z m 6.41015,-0.9258 -2.27929,6.3398 h -0.82618 l -2.29687,-6.3398 h 1.11328 l 1.61133,4.8574 1.57031,-4.8574 z m 5.98243,5.2324 q -0.31055,0.4688 -0.87891,0.8496 -0.56836,0.375 -1.50586,0.375 -1.32422,0 -2.12109,-0.8613 -0.79102,-0.8613 -0.79102,-2.2031 v -0.2461 q 0,-1.0371 0.39258,-1.7637 0.39844,-0.7324 1.03125,-1.1133 0.63281,-0.3867 1.34765,-0.3867 1.35938,0 1.98047,0.8906 0.62696,0.8848 0.62696,2.2149 v 0.4863 h -4.28907 q 0.0234,0.873 0.51563,1.4883 0.49805,0.6093 1.36523,0.6093 0.57422,0 0.97266,-0.2343 0.39844,-0.2344 0.69727,-0.627 z m -2.5254,-4.459 q -0.64453,0 -1.08984,0.4688 -0.44531,0.4687 -0.55664,1.3476 h 3.16992 v -0.082 q -0.041,-0.6328 -0.36914,-1.1836 -0.32226,-0.5508 -1.1543,-0.5508 z m 6.50391,0.024 q -0.52148,0 -0.91992,0.2812 -0.39844,0.2813 -0.62695,0.7324 v 4.5293 h -1.08399 v -6.3398 h 1.02539 l 0.0352,0.791 q 0.7207,-0.9082 1.89258,-0.9082 0.9375,0 1.48242,0.5273 0.55078,0.5274 0.55078,1.7754 v 4.1543 h -1.08984 v -4.166 q 0,-0.7441 -0.32813,-1.0605 -0.32226,-0.3164 -0.9375,-0.3164 z"
       id="text2511-4"
       style="font-size:12px;line-height:1.3;font-family:Roboto;-inkscape-font-specification:Roboto;text-align:center;letter-spacing:0px;text-anchor:middle;stroke-width:3.77953;paint-order:markers fill stroke"
       aria-label="červen" />
  </g>
  <line
     x1="63.565403"
     y1="106.74945"
     x2="69.466736"
     y2="106.74945"
     style="fill:none;stroke:#cccccc;stroke-width:1.33333;stroke-linecap:butt;stroke-linejoin:round;stroke-miterlimit:10;stroke-dasharray:none;stroke-opacity:1"
     id="line25-1" />
  <g
     id="g101"
     transform="translate(0.5473151,-923.90924)"
     style="fill:#808080">
    <path
       d="m 30.257069,1153.323 v 0.8906 h -4.892578 v -0.8906 z m 3.064453,0.6445 -0.867188,-0.2226 0.427735,-4.2481 h 4.376953 v 1.002 h -3.457031 l -0.257813,2.3203 q 0.234375,-0.1348 0.591797,-0.252 0.363281,-0.1171 0.832031,-0.1171 1.177735,0 1.857422,0.7792 0.685547,0.7735 0.685547,2.0801 0,1.2246 -0.667969,2.0332 -0.667969,0.8028 -2.033203,0.8028 -1.037109,0 -1.792969,-0.5801 -0.755859,-0.586 -0.873047,-1.7813 h 1.03125 q 0.205079,1.4707 1.634766,1.4707 0.767578,0 1.189453,-0.5214 0.421875,-0.5215 0.421875,-1.4122 0,-0.8027 -0.445312,-1.3476 -0.439453,-0.5508 -1.259766,-0.5508 -0.544922,0 -0.826172,0.1465 -0.28125,0.1465 -0.568359,0.3984 z m 10.728515,-0.8847 v 1.3007 q 0,2.0977 -0.726562,2.9297 -0.720703,0.8321 -1.962891,0.8321 -1.224609,0 -1.96289,-0.8321 -0.738282,-0.832 -0.738282,-2.9297 v -1.3007 q 0,-2.0918 0.732422,-2.8946 0.732422,-0.8086 1.957032,-0.8086 1.242187,0 1.96875,0.8086 0.732421,0.8028 0.732421,2.8946 z m -1.089843,1.4765 v -1.6582 q 0,-1.4414 -0.410157,-2.039 -0.410156,-0.5977 -1.201171,-0.5977 -0.773438,0 -1.189454,0.5977 -0.410156,0.5976 -0.410156,2.039 v 1.6582 q 0,1.4297 0.416016,2.0625 0.421875,0.6328 1.195312,0.6328 0.796875,0 1.195313,-0.6328 0.404297,-0.6328 0.404297,-2.0625 z m 5.361328,-2.9707 v -0.4511 q 0,-0.7266 0.46875,-1.2422 0.46875,-0.5215 1.277344,-0.5215 0.820312,0 1.283203,0.5215 0.46875,0.5156 0.46875,1.2422 v 0.4511 q 0,0.7149 -0.462891,1.2364 -0.462891,0.5156 -1.277344,0.5156 -0.814453,0 -1.289062,-0.5156 -0.46875,-0.5215 -0.46875,-1.2364 z m 0.814453,-0.4511 v 0.4511 q 0,0.4043 0.228516,0.7266 0.234375,0.3223 0.714843,0.3223 0.46875,0 0.697266,-0.3165 0.228516,-0.3222 0.228516,-0.7324 v -0.4511 q 0,-0.4102 -0.234375,-0.7325 -0.228516,-0.3281 -0.703125,-0.3281 -0.46875,0 -0.703125,0.3281 -0.228516,0.3223 -0.228516,0.7325 z m 5.355469,-0.4278 -4.166016,6.668 -0.609375,-0.3867 4.166016,-6.668 z m -2.015625,5.6836 v -0.457 q 0,-0.7207 0.46875,-1.2363 0.46875,-0.5215 1.277343,-0.5215 0.820313,0 1.283204,0.5215 0.46875,0.5156 0.46875,1.2363 v 0.457 q 0,0.7207 -0.462891,1.2422 -0.462891,0.5156 -1.277344,0.5156 -0.820312,0 -1.289062,-0.5156 -0.46875,-0.5215 -0.46875,-1.2422 z m 0.814453,-0.457 v 0.457 q 0,0.4102 0.228515,0.7324 0.234375,0.3223 0.714844,0.3223 0.47461,0 0.703125,-0.3164 0.228516,-0.3223 0.228516,-0.7383 v -0.457 q 0,-0.416 -0.234375,-0.7324 -0.228516,-0.3223 -0.708985,-0.3223 -0.46875,0 -0.703125,0.3223 -0.228515,0.3164 -0.228515,0.7324 z"
       id="text40"
       style="font-size:12px;font-family:Roboto;-inkscape-font-specification:Roboto;text-align:end;text-anchor:end;stroke-width:0.999997"
       aria-label="−50 %" />
    <path
       d="m 21.497303,1075.3544 q -1.142578,0 -1.810547,-0.7325 v 3.0528 h -1.089844 v -8.7774 h 0.996094 l 0.05274,0.6973 q 0.667968,-0.8144 1.833984,-0.8144 1.201172,0 1.839844,0.8906 0.638672,0.8906 0.638672,2.3437 v 0.1231 q 0,1.3886 -0.644532,2.3027 -0.638672,0.9141 -1.816406,0.9141 z m -0.333984,-5.6602 q -0.550782,0 -0.908203,0.252 -0.357422,0.2461 -0.56836,0.6211 v 3.0351 q 0.216797,0.375 0.56836,0.6211 0.357421,0.2402 0.919921,0.2402 0.878907,0 1.283204,-0.6914 0.410156,-0.6914 0.410156,-1.6347 v -0.1231 q 0,-0.9433 -0.410156,-1.6289 -0.404297,-0.6914 -1.294922,-0.6914 z m 6.708984,0.1289 q -0.556641,0 -0.914062,0.252 -0.357422,0.2461 -0.533204,0.6621 v 4.5 h -1.083984 v -6.3399 h 1.054688 l 0.02344,0.7266 q 0.240234,-0.3867 0.609375,-0.6152 0.375,-0.2285 0.896484,-0.2285 0.304688,0 0.480469,0.082 l -0.0059,1.0078 q -0.240235,-0.047 -0.527344,-0.047 z m 5.466797,5.4141 -0.02344,-0.627 q -0.292968,0.3516 -0.75,0.5508 -0.457031,0.1934 -1.101562,0.1934 -0.931641,0 -1.505859,-0.5508 -0.574219,-0.5508 -0.574219,-1.8164 v -4.0899 h 1.083984 v 4.1016 q 0,0.8555 0.357422,1.1484 0.363281,0.2871 0.808594,0.2871 0.662109,0 1.060547,-0.2519 0.398437,-0.252 0.591797,-0.668 v -4.6172 h 1.089843 v 6.3399 z m -2.695313,-8.3203 q 0,-0.5039 0.357422,-0.8614 0.363282,-0.3574 0.902344,-0.3574 0.533203,0 0.896484,0.3574 0.363282,0.3575 0.363282,0.8614 0,0.5156 -0.363282,0.8554 -0.363281,0.3399 -0.896484,0.3399 -0.539062,0 -0.902344,-0.3399 -0.357422,-0.3398 -0.357422,-0.8554 z m 0.580079,0 q 0,0.2578 0.1875,0.4687 0.193359,0.2051 0.492187,0.2051 0.298828,0 0.486328,-0.1992 0.19336,-0.2051 0.19336,-0.4746 0,-0.2754 -0.19336,-0.4805 -0.1875,-0.2109 -0.486328,-0.2109 -0.298828,0 -0.492187,0.2109 -0.1875,0.2051 -0.1875,0.4805 z m 7.335937,2.7773 q -0.580078,0 -0.931641,0.2461 -0.351562,0.2461 -0.527343,0.6504 v 4.6465 h -1.089844 v -6.3399 h 1.03125 l 0.0293,0.6914 q 0.685547,-0.8085 1.875,-0.8085 0.609375,0 1.083984,0.246 0.480469,0.2403 0.732422,0.7735 0.316406,-0.457 0.820313,-0.7383 0.509765,-0.2812 1.195312,-0.2812 1.019531,0 1.570313,0.5449 0.55664,0.5449 0.55664,1.7461 v 4.166 h -1.089844 v -4.1778 q 0,-0.7968 -0.36914,-1.0781 -0.363281,-0.2871 -0.984375,-0.2871 -0.65625,0 -1.03125,0.3926 -0.375,0.3867 -0.433594,0.9434 v 4.207 h -1.083984 v -4.1719 q 0,-0.7441 -0.369141,-1.0547 -0.369141,-0.3164 -0.984375,-0.3164 z m 13.001953,4.4356 q -0.310547,0.4687 -0.878906,0.8496 -0.568359,0.375 -1.505859,0.375 -1.324219,0 -2.121094,-0.8614 -0.791016,-0.8613 -0.791016,-2.2031 v -0.2461 q 0,-1.0371 0.392578,-1.7636 0.398438,-0.7325 1.03125,-1.1133 0.632813,-0.3867 1.347657,-0.3867 1.359375,0 1.980468,0.8906 0.626953,0.8847 0.626953,2.2148 v 0.4863 h -4.289062 q 0.02344,0.8731 0.515625,1.4883 0.498047,0.6094 1.365234,0.6094 0.574219,0 0.972657,-0.2344 0.398437,-0.2343 0.697265,-0.6269 z m -2.52539,-4.459 q -0.644532,0 -1.089844,0.4687 -0.445313,0.4688 -0.556641,1.3477 h 3.169922 v -0.082 q -0.04102,-0.6329 -0.369141,-1.1836 -0.322265,-0.5508 -1.154296,-0.5508 z m -0.896485,-3.4278 0.884766,0.9961 0.884765,-0.9961 h 0.9375 v 0.059 l -1.488281,1.6055 h -0.667969 l -1.464843,-1.6055 v -0.059 z m 7.300781,3.5801 q -0.55664,0 -0.914062,0.252 -0.357422,0.2461 -0.533203,0.6621 v 4.5 h -1.083985 v -6.3399 H 53.9641 l 0.02344,0.7266 q 0.240235,-0.3867 0.609375,-0.6152 0.375,-0.2285 0.896485,-0.2285 0.304687,0 0.480469,0.082 l -0.0059,1.0078 q -0.240234,-0.047 -0.527344,-0.047 z"
       id="text41"
       style="font-size:12px;font-family:Roboto;-inkscape-font-specification:Roboto;text-align:end;text-anchor:end;stroke-width:0.999997"
       aria-label="průměr" />
    <path
       d="m 30.737537,1031.3676 h -2.378906 v 2.7011 h -1.083984 v -2.7011 h -2.384766 v -1.0196 h 2.384766 v -2.4902 h 1.083984 v 2.4902 h 2.378906 z m 6.802735,2.666 v 0.8906 h -5.583985 v -0.7793 l 2.794922,-3.1113 q 0.773438,-0.8614 1.042969,-1.3535 0.269531,-0.4981 0.269531,-0.9961 0,-0.627 -0.392578,-1.0723 -0.386719,-0.4453 -1.095703,-0.4453 -0.855469,0 -1.277344,0.4863 -0.421875,0.4863 -0.421875,1.2481 h -1.083984 q 0,-1.0782 0.708984,-1.8516 0.708985,-0.7734 2.074219,-0.7734 1.207031,0 1.886719,0.6269 0.685547,0.627 0.685547,1.6524 0,0.7558 -0.47461,1.5234 -0.46875,0.7676 -1.125,1.4766 l -2.285156,2.4785 z m 2.52539,-3.17 -0.867187,-0.2226 0.427734,-4.2481 h 4.376953 v 1.002 h -3.457031 l -0.257812,2.3203 q 0.234375,-0.1348 0.591797,-0.2519 0.363281,-0.1172 0.832031,-0.1172 1.177734,0 1.857422,0.7793 0.685547,0.7734 0.685547,2.08 0,1.2247 -0.667969,2.0332 -0.667969,0.8028 -2.033203,0.8028 -1.03711,0 -1.792969,-0.5801 -0.755859,-0.5859 -0.873047,-1.7812 h 1.03125 q 0.205078,1.4707 1.634766,1.4707 0.767578,0 1.189453,-0.5215 0.421875,-0.5215 0.421875,-1.4121 0,-0.8028 -0.445313,-1.3477 -0.439453,-0.5508 -1.259765,-0.5508 -0.544922,0 -0.826172,0.1465 -0.28125,0.1465 -0.56836,0.3984 z m 8.25586,-2.3789 v -0.4511 q 0,-0.7266 0.46875,-1.2422 0.46875,-0.5215 1.277344,-0.5215 0.820312,0 1.283203,0.5215 0.46875,0.5156 0.46875,1.2422 v 0.4511 q 0,0.7149 -0.462891,1.2364 -0.462891,0.5156 -1.277344,0.5156 -0.814453,0 -1.289062,-0.5156 -0.46875,-0.5215 -0.46875,-1.2364 z m 0.814453,-0.4511 v 0.4511 q 0,0.4043 0.228516,0.7266 0.234375,0.3223 0.714843,0.3223 0.46875,0 0.697266,-0.3164 0.228516,-0.3223 0.228516,-0.7325 v -0.4511 q 0,-0.4102 -0.234375,-0.7325 -0.228516,-0.3281 -0.703125,-0.3281 -0.46875,0 -0.703125,0.3281 -0.228516,0.3223 -0.228516,0.7325 z m 5.355469,-0.4278 -4.166016,6.668 -0.609375,-0.3867 4.166016,-6.668 z m -2.015625,5.6836 v -0.457 q 0,-0.7207 0.46875,-1.2363 0.46875,-0.5215 1.277343,-0.5215 0.820313,0 1.283204,0.5215 0.46875,0.5156 0.46875,1.2363 v 0.457 q 0,0.7207 -0.462891,1.2422 -0.462891,0.5156 -1.277344,0.5156 -0.820312,0 -1.289062,-0.5156 -0.46875,-0.5215 -0.46875,-1.2422 z m 0.814453,-0.457 v 0.457 q 0,0.4102 0.228515,0.7325 0.234375,0.3222 0.714844,0.3222 0.47461,0 0.703125,-0.3164 0.228516,-0.3223 0.228516,-0.7383 v -0.457 q 0,-0.416 -0.234375,-0.7324 -0.228516,-0.3223 -0.708985,-0.3223 -0.46875,0 -0.703125,0.3223 -0.228515,0.3164 -0.228515,0.7324 z"
       id="text42"
       style="font-size:12px;font-family:Roboto;-inkscape-font-specification:Roboto;text-align:end;text-anchor:end;stroke-width:0.999997"
       aria-label="+25 %" />
    <path
       d="m 55.973866,1235.1486 v 1.3007 q 0,2.0977 -0.726563,2.9297 -0.720703,0.8321 -1.962891,0.8321 -1.224609,0 -1.96289,-0.8321 -0.738281,-0.832 -0.738281,-2.9297 v -1.3007 q 0,-2.0918 0.732421,-2.8946 0.732422,-0.8086 1.957032,-0.8086 1.242187,0 1.96875,0.8086 0.732422,0.8028 0.732422,2.8946 z m -1.089844,1.4765 v -1.6582 q 0,-1.4414 -0.410156,-2.039 -0.410157,-0.5977 -1.201172,-0.5977 -0.773438,0 -1.189453,0.5977 -0.410157,0.5976 -0.410157,2.039 v 1.6582 q 0,1.4297 0.416016,2.0625 0.421875,0.6328 1.195312,0.6328 0.796875,0 1.195313,-0.6328 0.404297,-0.6328 0.404297,-2.0625 z"
       id="text44"
       style="font-size:12px;font-family:Roboto;-inkscape-font-specification:Roboto;text-align:end;text-anchor:end;stroke-width:0.999997"
       aria-label="0" />
  </g>
  <g
     id="text3"
     style="font-weight:bold;font-size:21.3333px;line-height:1.3;font-family:Roboto;-inkscape-font-specification:'Roboto Bold';letter-spacing:0px;white-space:pre;fill:#4d4d4d;stroke-width:3.77953;paint-order:markers fill stroke"
     aria-label="Kombinovaná výroba ze slunce a větru &#10;při správném poměru dobře kopíruje spotřebu"
     transform="translate(2.9543457,-830.62861)">
    <path
       d="m 6.4313303,846.64935 -3.8958272,-6.09374 -1.62499743,1.75 v 4.34374 H -2.224906 v -15.16664 h 3.13541167 v 6.86457 l 1.36458123,-1.87499 3.8645772,-4.98958 H 9.983408 l -5.3749915,6.72916 5.5416575,8.43748 z m 3.9479097,-5.52082 v -0.21875 q 0,-2.45833 1.395832,-4.09374 1.395831,-1.64584 3.937493,-1.64584 2.572913,0 3.958327,1.64584 1.385415,1.63541 1.385415,4.09374 v 0.21875 q 0,2.45833 -1.385415,4.09374 -1.385414,1.63542 -3.937493,1.63542 -2.562496,0 -3.958327,-1.63542 -1.395832,-1.63541 -1.395832,-4.09374 z m 3.020829,-0.21875 v 0.21875 q 0,1.375 0.520832,2.34374 0.53125,0.95834 1.812498,0.95834 1.260414,0 1.781247,-0.95834 0.531249,-0.96874 0.531249,-2.34374 v -0.21875 q 0,-1.34375 -0.531249,-2.32291 -0.520833,-0.98959 -1.802081,-0.98959 -1.270831,0 -1.791664,0.98959 -0.520832,0.97916 -0.520832,2.32291 z m 14.374978,-3.30208 q -1.249998,0 -1.843747,1.0625 v 7.97915 H 22.910472 V 835.37854 H 25.7438 l 0.104167,1.23958 q 1.177081,-1.44792 3.229161,-1.44792 1.010416,0 1.781248,0.40625 0.781248,0.40625 1.208331,1.3125 0.541666,-0.80208 1.385415,-1.26041 0.854165,-0.45834 1.999996,-0.45834 1.635414,0 2.624996,0.96875 0.989582,0.96875 0.989582,3.33333 v 7.17707 h -3.020829 v -7.18749 q 0,-1.12499 -0.458332,-1.48958 -0.447916,-0.36458 -1.229165,-0.36458 -1.333331,0 -1.86458,1.26042 0,0.125 0,0.26041 v 7.52082 h -3.010412 v -7.16665 q 0,-1.11458 -0.458333,-1.48958 -0.458332,-0.38542 -1.249998,-0.38542 z m 23.760378,3.51041 q 0,2.53125 -1.093748,4.13541 -1.083332,1.60417 -3.281245,1.60417 -0.968749,0 -1.687497,-0.36459 -0.718749,-0.375 -1.239582,-1.04166 l -0.135416,1.19791 h -2.718746 v -15.99997 h 3.020829 v 5.72916 q 1.052081,-1.20834 2.739579,-1.20834 2.218746,0 3.302078,1.61459 1.093748,1.61458 1.093748,4.11457 z m -5.156242,-3.51041 q -1.427081,0 -1.979163,1.17708 v 4.45833 q 0.552082,1.17708 1.999996,1.17708 1.270832,0 1.697914,-0.9375 0.427083,-0.9375 0.427083,-2.36458 v -0.21875 q 0,-1.33333 -0.437499,-2.31249 -0.427083,-0.97917 -1.708331,-0.97917 z m 6.989574,-5.14582 q 0,-0.67709 0.458332,-1.11459 0.458333,-0.44791 1.229165,-0.44791 0.770832,0 1.229165,0.44791 0.458332,0.4375 0.458332,1.11459 0,0.66666 -0.458332,1.11458 -0.458333,0.4375 -1.229165,0.4375 -0.770832,0 -1.229165,-0.4375 -0.458332,-0.44792 -0.458332,-1.11458 z m 3.208328,2.91666 v 11.27081 h -3.020829 v -11.27081 z m 7.333323,2.22916 q -1.281248,0 -1.906247,1.08333 v 7.95832 h -3.010412 v -11.27081 h 2.822912 l 0.104167,1.29166 q 1.208331,-1.5 3.239578,-1.5 1.604164,0 2.583329,0.95834 0.979165,0.95833 0.979165,3.34374 v 7.17707 h -3.020828 v -7.18749 q 0,-1.08333 -0.46875,-1.46874 -0.458332,-0.38542 -1.322914,-0.38542 z m 6.61457,3.52083 v -0.21875 q 0,-2.45833 1.395831,-4.09374 1.395831,-1.64584 3.937494,-1.64584 2.572913,0 3.958327,1.64584 1.385414,1.63541 1.385414,4.09374 v 0.21875 q 0,2.45833 -1.385414,4.09374 -1.385414,1.63542 -3.937494,1.63542 -2.562496,0 -3.958327,-1.63542 -1.395831,-1.63541 -1.395831,-4.09374 z m 3.020829,-0.21875 v 0.21875 q 0,1.375 0.520832,2.34374 0.531249,0.95834 1.812497,0.95834 1.260415,0 1.781247,-0.95834 0.53125,-0.96874 0.53125,-2.34374 v -0.21875 q 0,-1.34375 -0.53125,-2.32291 -0.520832,-0.98959 -1.80208,-0.98959 -1.270831,0 -1.791664,0.98959 -0.520832,0.97916 -0.520832,2.32291 z m 18.812473,-5.53124 -3.802077,11.27081 H 85.691624 L 81.87913,835.37854 h 3.156245 l 2.093747,7.5729 2.08333,-7.5729 z m 7.70832,11.27081 q -0.187499,-0.39583 -0.302082,-1.01041 -0.447916,0.5 -1.145832,0.86458 -0.687499,0.35417 -1.697914,0.35417 -1.614581,0 -2.718745,-0.94792 -1.104165,-0.95833 -1.104165,-2.42708 0,-1.77083 1.312498,-2.73958 1.312497,-0.97916 3.88541,-0.97916 h 1.343748 v -0.65625 q 0,-0.78125 -0.406249,-1.23958 -0.395833,-0.46875 -1.260415,-0.46875 -1.614581,0 -1.614581,1.35416 h -3.010412 q 0,-1.46875 1.302081,-2.52083 1.302082,-1.0625 3.489578,-1.0625 1.94791,0 3.22916,0.98959 1.29167,0.98958 1.29167,2.96874 v 4.77083 q 0,0.95833 0.11458,1.55208 0.11458,0.59375 0.33333,1.02083 v 0.17708 z m -2.489579,-2.09374 q 0.760416,0 1.291665,-0.33334 0.541666,-0.34375 0.770832,-0.75 v -1.95833 h -1.229165 q -1.197915,0 -1.749997,0.51042 -0.552083,0.5 -0.552083,1.23958 0,0.5625 0.385417,0.92708 0.395832,0.36459 1.083331,0.36459 z m 12.260389,-6.94791 q -1.28124,0 -1.90624,1.08333 v 7.95832 h -3.01042 v -11.27081 h 2.82292 l 0.10416,1.29166 q 1.20833,-1.5 3.23958,-1.5 1.60417,0 2.58333,0.95834 0.97917,0.95833 0.97917,3.34374 v 7.17707 h -3.02083 v -7.18749 q 0,-1.08333 -0.46875,-1.46874 -0.45833,-0.38542 -1.32292,-0.38542 z m 13.61457,9.04165 q -0.1875,-0.39583 -0.30209,-1.01041 -0.44791,0.5 -1.14583,0.86458 -0.6875,0.35417 -1.69791,0.35417 -1.61458,0 -2.71875,-0.94792 -1.10416,-0.95833 -1.10416,-2.42708 0,-1.77083 1.3125,-2.73958 1.31249,-0.97916 3.88541,-0.97916 h 1.34374 v -0.65625 q 0,-0.78125 -0.40625,-1.23958 -0.39583,-0.46875 -1.26041,-0.46875 -1.61458,0 -1.61458,1.35416 h -3.01041 q 0,-1.46875 1.30208,-2.52083 1.30208,-1.0625 3.48958,-1.0625 1.94791,0 3.22916,0.98959 1.29166,0.98958 1.29166,2.96874 v 4.77083 q 0,0.95833 0.11459,1.55208 0.11458,0.59375 0.33333,1.02083 v 0.17708 z m -2.48958,-2.09374 q 0.76041,0 1.29166,-0.33334 0.54167,-0.34375 0.77083,-0.75 v -1.95833 h -1.22916 q -1.19792,0 -1.75,0.51042 -0.55208,0.5 -0.55208,1.23958 0,0.5625 0.38542,0.92708 0.39583,0.36459 1.08333,0.36459 z m -0.89583,-10.68749 2.04166,-3.21874 h 3.28124 l -2.88541,3.21874 z m 23.06246,1.51042 -3.80207,11.27081 h -2.86458 l -3.8125,-11.27081 h 3.15625 l 2.09374,7.5729 2.08333,-7.5729 z m 6.34373,12.95831 q -0.19791,0.5625 -0.58333,1.22917 -0.38541,0.67708 -1.11458,1.15624 -0.71875,0.47917 -1.90625,0.47917 -0.41666,0 -0.69791,-0.0521 -0.28125,-0.0521 -0.63542,-0.14584 v -2.28124 q 0.10417,0.0104 0.22917,0.0104 0.125,0 0.23958,0 0.88542,0 1.3125,-0.29166 0.42708,-0.28125 0.64583,-0.90625 l 0.33333,-0.86458 -3.94791,-11.29165 h 3.23958 l 2.09375,7.02082 2.08333,-7.02082 h 3.21874 z m -2.17708,-14.46873 2.04167,-3.21874 h 3.28124 l -2.88541,3.21874 z m 13.1354,4.23958 q -1.69791,0 -2.22916,1.15625 v 7.3854 h -3.02083 v -11.27081 h 2.84375 l 0.0937,1.34375 q 0.88541,-1.55209 2.51041,-1.55209 0.57291,0 0.92708,0.13542 l -0.0312,2.88541 q -0.22917,-0.0208 -0.54167,-0.0521 -0.30208,-0.0312 -0.55208,-0.0312 z m 1.69792,3.02083 v -0.21875 q 0,-2.45833 1.39583,-4.09374 1.39583,-1.64584 3.93749,-1.64584 2.57291,0 3.95833,1.64584 1.38541,1.63541 1.38541,4.09374 v 0.21875 q 0,2.45833 -1.38541,4.09374 -1.38542,1.63542 -3.93749,1.63542 -2.5625,0 -3.95833,-1.63542 -1.39583,-1.63541 -1.39583,-4.09374 z m 3.02083,-0.21875 v 0.21875 q 0,1.375 0.52083,2.34374 0.53125,0.95834 1.8125,0.95834 1.26041,0 1.78124,-0.95834 0.53125,-0.96874 0.53125,-2.34374 v -0.21875 q 0,-1.34375 -0.53125,-2.32291 -0.52083,-0.98959 -1.80208,-0.98959 -1.27083,0 -1.79166,0.98959 -0.52083,0.97916 -0.52083,2.32291 z m 19.66664,0.20833 q 0,2.53125 -1.09375,4.13541 -1.08333,1.60417 -3.28125,1.60417 -0.96875,0 -1.6875,-0.36459 -0.71874,-0.375 -1.23958,-1.04166 l -0.13541,1.19791 h -2.71875 v -15.99997 h 3.02083 v 5.72916 q 1.05208,-1.20834 2.73958,-1.20834 2.21875,0 3.30208,1.61459 1.09375,1.61458 1.09375,4.11457 z m -5.15625,-3.51041 q -1.42708,0 -1.97916,1.17708 v 4.45833 q 0.55208,1.17708 2,1.17708 1.27083,0 1.69791,-0.9375 0.42708,-0.9375 0.42708,-2.36458 v -0.21875 q 0,-1.33333 -0.4375,-2.31249 -0.42708,-0.97917 -1.70833,-0.97917 z m 13.54164,9.04165 q -0.1875,-0.39583 -0.30208,-1.01041 -0.44792,0.5 -1.14583,0.86458 -0.6875,0.35417 -1.69792,0.35417 -1.61458,0 -2.71874,-0.94792 -1.10417,-0.95833 -1.10417,-2.42708 0,-1.77083 1.3125,-2.73958 1.3125,-0.97916 3.88541,-0.97916 h 1.34375 v -0.65625 q 0,-0.78125 -0.40625,-1.23958 -0.39583,-0.46875 -1.26041,-0.46875 -1.61459,0 -1.61459,1.35416 h -3.01041 q 0,-1.46875 1.30208,-2.52083 1.30209,-1.0625 3.48958,-1.0625 1.94792,0 3.22916,0.98959 1.29167,0.98958 1.29167,2.96874 v 4.77083 q 0,0.95833 0.11458,1.55208 0.11458,0.59375 0.33333,1.02083 v 0.17708 z m -2.48958,-2.09374 q 0.76042,0 1.29167,-0.33334 0.54166,-0.34375 0.77083,-0.75 v -1.95833 h -1.22917 q -1.19791,0 -1.74999,0.51042 -0.55208,0.5 -0.55208,1.23958 0,0.5625 0.38541,0.92708 0.39583,0.36459 1.08333,0.36459 z m 12.48958,-6.74999 v -2.42708 h 9.03123 v 1.77083 l -5.35415,7.0729 h 5.5104 v 2.42708 h -9.35415 v -1.83333 l 5.32291,-7.0104 z m 20.51037,7.0104 q -0.54166,0.77083 -1.64583,1.40625 -1.10416,0.63542 -2.74999,0.63542 -2.63542,0 -4.11458,-1.59375 -1.47916,-1.60417 -1.47916,-3.86458 v -0.40625 q 0,-2.55208 1.41666,-4.18749 1.42708,-1.63542 3.84374,-1.63542 2.42708,0 3.69791,1.52084 1.27084,1.52083 1.27084,4.02082 v 1.28125 h -7.17708 q 0.15625,1.09375 0.86459,1.77083 0.70833,0.66667 1.86458,0.66667 1.71874,0 2.71874,-1.26042 z m -4.74999,-7.21874 q -0.95833,0 -1.47916,0.64584 -0.52084,0.64583 -0.67709,1.68749 h 4.1875 v -0.22916 q -0.0208,-0.90625 -0.51042,-1.5 -0.47916,-0.60417 -1.52083,-0.60417 z m 18.10413,5.92708 q 0,-0.47917 -0.44791,-0.80208 -0.4375,-0.33334 -1.85416,-0.63542 -1.72917,-0.36458 -2.875,-1.15625 -1.13542,-0.80208 -1.13542,-2.26041 0,-1.40625 1.1875,-2.44791 1.19792,-1.05209 3.30208,-1.05209 2.19791,0 3.45833,1.03125 1.26041,1.03125 1.26041,2.60417 h -3.01041 q 0,-0.64584 -0.41666,-1.07292 -0.41667,-0.42708 -1.30209,-0.42708 -0.74999,0 -1.17708,0.35416 -0.41666,0.34375 -0.41666,0.86459 0,0.48958 0.45833,0.80208 0.46875,0.3125 1.64583,0.54166 1.83333,0.36459 3.04166,1.11459 1.20833,0.74999 1.20833,2.42707 0,1.48959 -1.28124,2.46875 -1.28125,0.97917 -3.45833,0.97917 -2.36458,0 -3.61458,-1.20834 -1.25,-1.21874 -1.25,-2.59374 h 2.86458 q 0.0417,0.88541 0.64583,1.27083 0.61459,0.38542 1.41667,0.38542 1.74999,0 1.74999,-1.1875 z m 8.0625,-12.87498 v 15.99997 h -3.02083 v -15.99997 z m 9.31248,15.99997 -0.0833,-1.15625 q -1.10417,1.36459 -3.08333,1.36459 -1.66667,0 -2.70833,-0.97917 -1.03125,-0.97916 -1.03125,-3.20833 v -7.29165 h 3.01041 v 7.31249 q 0,0.93749 0.44792,1.33333 0.44791,0.38541 1.14583,0.38541 0.82291,0 1.33333,-0.28125 0.51042,-0.29166 0.78125,-0.79166 v -7.95832 h 3.02083 v 11.27081 z m 9.96873,-9.04165 q -1.28125,0 -1.90625,1.08333 v 7.95832 h -3.01041 v -11.27081 h 2.82291 l 0.10417,1.29166 q 1.20833,-1.5 3.23957,-1.5 1.60417,0 2.58333,0.95834 0.97917,0.95833 0.97917,3.34374 v 7.17707 h -3.02083 v -7.18749 q 0,-1.08333 -0.46875,-1.46874 -0.45833,-0.38542 -1.32291,-0.38542 z m 11.77082,6.82291 q 0.82291,0 1.35416,-0.44792 0.53125,-0.45833 0.54167,-1.22916 h 2.83333 q -0.0208,1.79166 -1.375,2.94791 -1.34375,1.15625 -3.30208,1.15625 -2.61458,0 -3.91666,-1.64583 -1.29166,-1.65625 -1.29166,-4.05208 v -0.29167 q 0,-2.38541 1.29166,-4.04166 1.29167,-1.65625 3.90625,-1.65625 2.07291,0 3.36457,1.1875 1.30209,1.1875 1.32292,3.21875 h -2.83333 q -0.0104,-0.82292 -0.5,-1.39583 -0.48958,-0.58334 -1.40625,-0.58334 -1.32291,0 -1.72916,1.01042 -0.39583,1 -0.39583,2.26041 v 0.29167 q 0,1.30208 0.39583,2.29166 0.40625,0.97917 1.73958,0.97917 z m 16.04165,0.38541 q -0.54167,0.77083 -1.64583,1.40625 -1.10417,0.63542 -2.75,0.63542 -2.63541,0 -4.11458,-1.59375 -1.47916,-1.60417 -1.47916,-3.86458 v -0.40625 q 0,-2.55208 1.41667,-4.18749 1.42708,-1.63542 3.84374,-1.63542 2.42708,0 3.69791,1.52084 1.27083,1.52083 1.27083,4.02082 v 1.28125 h -7.17707 q 0.15625,1.09375 0.86458,1.77083 0.70833,0.66667 1.86458,0.66667 1.71875,0 2.71875,-1.26042 z m -4.74999,-7.21874 q -0.95834,0 -1.47917,0.64584 -0.52083,0.64583 -0.67708,1.68749 h 4.18749 v -0.22916 q -0.0208,-0.90625 -0.51041,-1.5 -0.47917,-0.60417 -1.52083,-0.60417 z m 18.53121,9.05207 q -0.1875,-0.39583 -0.30208,-1.01041 -0.44792,0.5 -1.14583,0.86458 -0.6875,0.35417 -1.69792,0.35417 -1.61458,0 -2.71874,-0.94792 -1.10417,-0.95833 -1.10417,-2.42708 0,-1.77083 1.3125,-2.73958 1.3125,-0.97916 3.88541,-0.97916 h 1.34375 v -0.65625 q 0,-0.78125 -0.40625,-1.23958 -0.39583,-0.46875 -1.26041,-0.46875 -1.61458,0 -1.61458,1.35416 h -3.01042 q 0,-1.46875 1.30208,-2.52083 1.30209,-1.0625 3.48958,-1.0625 1.94792,0 3.22916,0.98959 1.29167,0.98958 1.29167,2.96874 v 4.77083 q 0,0.95833 0.11458,1.55208 0.11458,0.59375 0.33333,1.02083 v 0.17708 z m -2.48958,-2.09374 q 0.76042,0 1.29167,-0.33334 0.54166,-0.34375 0.77083,-0.75 v -1.95833 h -1.22916 q -1.19792,0 -1.75,0.51042 -0.55208,0.5 -0.55208,1.23958 0,0.5625 0.38541,0.92708 0.39583,0.36459 1.08333,0.36459 z m 22.16663,-9.17707 -3.80208,11.27081 h -2.86458 l -3.81249,-11.27081 h 3.15625 l 2.09374,7.5729 2.08333,-7.5729 z m 10.79167,9.43748 q -0.54167,0.77083 -1.64583,1.40625 -1.10417,0.63542 -2.75,0.63542 -2.63541,0 -4.11458,-1.59375 -1.47916,-1.60417 -1.47916,-3.86458 v -0.40625 q 0,-2.55208 1.41666,-4.18749 1.42709,-1.63542 3.84375,-1.63542 2.42708,0 3.69791,1.52084 1.27083,1.52083 1.27083,4.02082 v 1.28125 H 329.535 q 0.15625,1.09375 0.86458,1.77083 0.70833,0.66667 1.86458,0.66667 1.71875,0 2.71875,-1.26042 z m -4.75,-7.21874 q -0.95833,0 -1.47916,0.64584 -0.52083,0.64583 -0.67708,1.68749 h 4.18749 v -0.22916 q -0.0208,-0.90625 -0.51041,-1.5 -0.47917,-0.60417 -1.52084,-0.60417 z m -1.85416,-6.96874 1.53125,1.47917 1.53125,-1.47917 h 2.56249 v 0.10417 l -3.14583,2.9375 h -1.89583 l -3.14583,-2.94792 v -0.0937 z m 14.18747,15.9479 q -0.375,0.125 -0.82292,0.19791 -0.4375,0.0833 -0.98958,0.0833 -1.47917,0 -2.35416,-0.77084 -0.875,-0.77083 -0.875,-2.56249 v -5.94791 h -1.65625 v -2.19791 h 1.65625 v -2.78125 h 3.01041 v 2.78125 h 1.91666 v 2.19791 h -1.91666 v 5.63541 q 0,0.70833 0.29167,0.9375 0.29166,0.22916 0.86458,0.22916 0.27083,0 0.48958,-0.0208 0.22917,-0.0312 0.38542,-0.0625 z m 6.81248,-8.46874 q -1.69792,0 -2.22917,1.15625 v 7.3854 h -3.02083 v -11.27081 h 2.84375 l 0.0937,1.34375 q 0.88542,-1.55209 2.51041,-1.55209 0.57292,0 0.92708,0.13542 l -0.0312,2.88541 q -0.22916,-0.0208 -0.54166,-0.0521 -0.30208,-0.0312 -0.55208,-0.0312 z m 9.3854,8.54165 -0.0833,-1.15625 q -1.10417,1.36459 -3.08333,1.36459 -1.66667,0 -2.70833,-0.97917 -1.03125,-0.97916 -1.03125,-3.20833 v -7.29165 h 3.01041 v 7.31249 q 0,0.93749 0.44792,1.33333 0.44792,0.38541 1.14583,0.38541 0.82292,0 1.33333,-0.28125 0.51042,-0.29166 0.78125,-0.79166 v -7.95832 h 3.02083 v 11.27081 z"
       id="path20" />
    <path
       d="m 3.3584185,874.59097 q -1.6874974,0 -2.76041233,-1.19791 v 5.32291 H -2.4228224 v -15.60414 h 2.80207891 l 0.11458316,1.09374 q 1.07291493,-1.30208 2.83332883,-1.30208 2.14583,0 3.2708282,1.57292 1.1354149,1.57291 1.1354149,4.14582 v 0.21875 q 0,2.45833 -1.1354149,4.10416 -1.1249982,1.64583 -3.2395782,1.64583 z m -0.8124987,-9.24998 q -1.4062478,0 -1.94791363,1.09375 v 4.61457 q 0.56249913,1.11459 1.96874693,1.11459 1.1770814,0 1.666664,-0.97917 0.4895826,-0.97917 0.4895826,-2.34375 v -0.21875 q 0,-1.39583 -0.5104159,-2.33333 -0.4999992,-0.94791 -1.666664,-0.94791 z m 12.2916472,0.5 q -1.697914,0 -2.229163,1.15625 v 7.3854 H 9.5875755 v -11.27081 h 2.8437455 l 0.09375,1.34374 q 0.885415,-1.55208 2.510413,-1.55208 0.572915,0 0.927081,0.13542 l -0.03125,2.88541 q -0.229166,-0.0208 -0.541665,-0.0521 -0.302083,-0.0312 -0.552083,-0.0312 z m -3.656244,-7.46874 1.531248,1.47916 1.531247,-1.47916 h 2.562496 v 0.10417 l -3.145828,2.93749 H 11.764655 L 8.618827,858.466 v -0.0937 z m 6.177073,1.82291 q 0,-0.67708 0.458332,-1.11458 0.458333,-0.44791 1.229165,-0.44791 0.770832,0 1.229165,0.44791 0.458333,0.4375 0.458333,1.11458 0,0.66667 -0.458333,1.11459 -0.458333,0.43749 -1.229165,0.43749 -0.770832,0 -1.229165,-0.43749 -0.458332,-0.44792 -0.458332,-1.11459 z m 3.208328,2.91667 v 11.27081 h -3.020828 v -11.27081 z m 13.885395,8.14582 q 0,-0.47917 -0.447916,-0.80209 -0.437499,-0.33333 -1.854164,-0.63541 -1.729164,-0.36458 -2.874995,-1.15625 -1.135415,-0.80208 -1.135415,-2.26041 0,-1.40625 1.187498,-2.44792 1.197915,-1.05208 3.302078,-1.05208 2.197913,0 3.458328,1.03125 1.260415,1.03125 1.260415,2.60416 h -3.010412 q 0,-0.64583 -0.416666,-1.07291 -0.416666,-0.42708 -1.302081,-0.42708 -0.749999,0 -1.177082,0.35416 -0.416666,0.34375 -0.416666,0.86458 0,0.48959 0.458333,0.80209 0.468749,0.3125 1.64583,0.54166 1.833331,0.36459 3.041662,1.11458 1.208332,0.75 1.208332,2.42708 0,1.48958 -1.281248,2.46875 -1.281248,0.97916 -3.458328,0.97916 -2.36458,0 -3.614578,-1.20833 -1.249998,-1.21874 -1.249998,-2.59374 h 2.864579 q 0.04167,0.88541 0.645832,1.27083 0.614583,0.38541 1.416665,0.38541 1.749997,0 1.749997,-1.18749 z m 10.656235,3.33332 q -1.687498,0 -2.760413,-1.19791 v 5.32291 h -3.020828 v -15.60414 h 2.802079 l 0.114583,1.09374 q 1.072915,-1.30208 2.833329,-1.30208 2.14583,0 3.270828,1.57292 1.135415,1.57291 1.135415,4.14582 v 0.21875 q 0,2.45833 -1.135415,4.10416 -1.124998,1.64583 -3.239578,1.64583 z m -0.812499,-9.24998 q -1.406248,0 -1.947914,1.09375 v 4.61457 q 0.562499,1.11459 1.968747,1.11459 1.177082,0 1.666664,-0.97917 0.489583,-0.97917 0.489583,-2.34375 v -0.21875 q 0,-1.39583 -0.510416,-2.33333 -0.499999,-0.94791 -1.666664,-0.94791 z m 12.291645,0.5 q -1.697914,0 -2.229164,1.15625 v 7.3854 h -3.020828 v -11.27081 h 2.843745 l 0.09375,1.34374 q 0.885415,-1.55208 2.510413,-1.55208 0.572916,0 0.927082,0.13542 l -0.03125,2.88541 q -0.229167,-0.0208 -0.541666,-0.0521 -0.302083,-0.0312 -0.552082,-0.0312 z m 8.760404,8.54165 q -0.1875,-0.39583 -0.302083,-1.01041 -0.447916,0.5 -1.145831,0.86458 -0.687499,0.35416 -1.697914,0.35416 -1.614581,0 -2.718746,-0.94791 -1.104165,-0.95833 -1.104165,-2.42708 0,-1.77083 1.312498,-2.73958 1.312498,-0.97916 3.88541,-0.97916 h 1.343748 v -0.65625 q 0,-0.78125 -0.406249,-1.23958 -0.395833,-0.46875 -1.260415,-0.46875 -1.61458,0 -1.61458,1.35416 h -3.010412 q 0,-1.46875 1.302081,-2.52083 1.302081,-1.0625 3.489578,-1.0625 1.947913,0 3.229161,0.98958 1.291665,0.98959 1.291665,2.96875 v 4.77083 q 0,0.95833 0.114583,1.55208 0.114583,0.59375 0.333333,1.02083 v 0.17708 z m -2.489579,-2.09375 q 0.760415,0 1.291664,-0.33333 0.541666,-0.34375 0.770832,-0.75 v -1.95833 h -1.229164 q -1.197915,0 -1.749998,0.51042 -0.552082,0.5 -0.552082,1.23958 0,0.5625 0.385416,0.92708 0.395833,0.36458 1.083332,0.36458 z m -0.895832,-10.68748 2.041663,-3.21874 h 3.281245 l -2.885412,3.21874 z m 17.593724,1.51042 -3.802077,11.27081 h -2.864579 l -3.812494,-11.27081 h 3.156245 l 2.093747,7.5729 2.08333,-7.5729 z m 6.197907,2.22916 q -1.281248,0 -1.906247,1.08333 v 7.95832 h -3.010412 v -11.27081 h 2.822912 l 0.104166,1.29166 q 1.208332,-1.5 3.239579,-1.5 1.604164,0 2.583329,0.95833 0.979165,0.95834 0.979165,3.34375 v 7.17707 h -3.020829 v -7.18749 q 0,-1.08333 -0.468749,-1.46874 -0.458332,-0.38542 -1.322914,-0.38542 z m 16.677056,7.20832 q -0.54166,0.77083 -1.64583,1.40625 -1.104164,0.63541 -2.749995,0.63541 -2.635412,0 -4.114577,-1.59374 -1.479164,-1.60417 -1.479164,-3.86458 v -0.40625 q 0,-2.55208 1.416664,-4.18749 1.427082,-1.63542 3.843744,-1.63542 2.427078,0 3.697908,1.52083 1.27083,1.52083 1.27083,4.02083 v 1.28125 h -7.177067 q 0.156249,1.09375 0.864582,1.77083 0.708332,0.66667 1.86458,0.66667 1.718747,0 2.718745,-1.26042 z m -4.749991,-7.21874 q -0.958332,0 -1.479164,0.64583 -0.520833,0.64584 -0.677082,1.6875 h 4.187493 v -0.22916 q -0.02083,-0.90625 -0.510416,-1.5 -0.479166,-0.60417 -1.520831,-0.60417 z m -1.760414,-3.73957 2.041664,-3.21875 h 3.281241 l -2.885409,3.21875 z m 13.312475,3.74999 q -1.25,0 -1.84375,1.0625 v 7.97915 h -3.02083 v -11.27081 h 2.83333 l 0.10417,1.23958 q 1.17708,-1.44792 3.22916,-1.44792 1.01042,0 1.78125,0.40625 0.78125,0.40625 1.20833,1.3125 0.54167,-0.80208 1.38541,-1.26041 0.85417,-0.45834 2,-0.45834 1.63541,0 2.625,0.96875 0.98958,0.96875 0.98958,3.33333 v 7.17707 h -3.02083 v -7.18749 q 0,-1.125 -0.45833,-1.48958 -0.44792,-0.36458 -1.22917,-0.36458 -1.33333,0 -1.86458,1.26041 0,0.125 0,0.26042 v 7.52082 h -3.01041 v -7.16665 q 0,-1.11459 -0.45833,-1.48958 -0.45834,-0.38542 -1.25,-0.38542 z m 24.69788,9.24998 q -1.6875,0 -2.76042,-1.19791 v 5.32291 h -3.02082 v -15.60414 h 2.80207 l 0.11459,1.09374 q 1.07291,-1.30208 2.83333,-1.30208 2.14583,0 3.27082,1.57292 1.13542,1.57291 1.13542,4.14582 v 0.21875 q 0,2.45833 -1.13542,4.10416 -1.12499,1.64583 -3.23957,1.64583 z m -0.8125,-9.24998 q -1.40625,0 -1.94792,1.09375 v 4.61457 q 0.5625,1.11459 1.96875,1.11459 1.17708,0 1.66667,-0.97917 0.48958,-0.97917 0.48958,-2.34375 v -0.21875 q 0,-1.39583 -0.51042,-2.33333 -0.5,-0.94791 -1.66666,-0.94791 z m 6.57291,3.52083 v -0.21875 q 0,-2.45833 1.39583,-4.09375 1.39584,-1.64583 3.9375,-1.64583 2.57291,0 3.95832,1.64583 1.38542,1.63542 1.38542,4.09375 v 0.21875 q 0,2.45833 -1.38542,4.09374 -1.38541,1.63541 -3.93749,1.63541 -2.56249,0 -3.95833,-1.63541 -1.39583,-1.63541 -1.39583,-4.09374 z m 3.02083,-0.21875 v 0.21875 q 0,1.37499 0.52083,2.34374 0.53125,0.95834 1.8125,0.95834 1.26042,0 1.78125,-0.95834 0.53125,-0.96875 0.53125,-2.34374 v -0.21875 q 0,-1.34375 -0.53125,-2.32292 -0.52083,-0.98958 -1.80208,-0.98958 -1.27083,0 -1.79167,0.98958 -0.52083,0.97917 -0.52083,2.32292 z m 14.37497,-3.30208 q -1.25,0 -1.84375,1.0625 v 7.97915 h -3.02083 v -11.27081 h 2.83333 l 0.10417,1.23958 q 1.17708,-1.44792 3.22916,-1.44792 1.01041,0 1.78125,0.40625 0.78124,0.40625 1.20833,1.3125 0.54166,-0.80208 1.38541,-1.26041 0.85417,-0.45834 2,-0.45834 1.63541,0 2.62499,0.96875 0.98959,0.96875 0.98959,3.33333 v 7.17707 h -3.02083 v -7.18749 q 0,-1.125 -0.45833,-1.48958 -0.44792,-0.36458 -1.22917,-0.36458 -1.33333,0 -1.86458,1.26041 0,0.125 0,0.26042 v 7.52082 h -3.01041 v -7.16665 q 0,-1.11459 -0.45833,-1.48958 -0.45834,-0.38542 -1.25,-0.38542 z m 23.19789,7.20832 q -0.54166,0.77083 -1.64583,1.40625 -1.10416,0.63541 -2.75,0.63541 -2.63541,0 -4.11457,-1.59374 -1.47917,-1.60417 -1.47917,-3.86458 v -0.40625 q 0,-2.55208 1.41667,-4.18749 1.42708,-1.63542 3.84374,-1.63542 2.42708,0 3.69791,1.52083 1.27083,1.52083 1.27083,4.02083 v 1.28125 h -7.17707 q 0.15625,1.09375 0.86458,1.77083 0.70834,0.66667 1.86458,0.66667 1.71875,0 2.71875,-1.26042 z m -4.74999,-7.21874 q -0.95833,0 -1.47917,0.64583 -0.52083,0.64584 -0.67708,1.6875 h 4.1875 v -0.22916 q -0.0208,-0.90625 -0.51042,-1.5 -0.47917,-0.60417 -1.52083,-0.60417 z m -1.85416,-6.96874 1.53124,1.47917 1.53125,-1.47917 h 2.5625 v 0.10417 l -3.14583,2.9375 h -1.89583 l -3.14583,-2.94792 v -0.0937 z m 13.79163,7.47916 q -1.69792,0 -2.22917,1.15625 v 7.3854 h -3.02082 v -11.27081 h 2.84374 l 0.0937,1.34374 q 0.88542,-1.55208 2.51041,-1.55208 0.57292,0 0.92709,0.13542 l -0.0312,2.88541 q -0.22917,-0.0208 -0.54167,-0.0521 -0.30208,-0.0312 -0.55208,-0.0312 z m 9.3854,8.54165 -0.0833,-1.15625 q -1.10417,1.36458 -3.08333,1.36458 -1.66666,0 -2.70833,-0.97916 -1.03125,-0.97917 -1.03125,-3.20833 v -7.29165 h 3.01041 v 7.31248 q 0,0.9375 0.44792,1.33334 0.44792,0.38541 1.14583,0.38541 0.82292,0 1.33333,-0.28125 0.51042,-0.29166 0.78125,-0.79166 v -7.95832 h 3.02083 v 11.27081 z m 17.38539,0 -0.14583,-1.19791 q -0.52083,0.65625 -1.23958,1.03125 -0.70833,0.37499 -1.64583,0.37499 -2.09375,0 -3.25,-1.62499 -1.15625,-1.625 -1.15625,-4.08333 v -0.21875 q 0,-2.57291 1.15625,-4.16666 1.15625,-1.59375 3.27083,-1.59375 1.64583,0 2.70833,1.21875 v -5.73957 h 3.02083 v 15.99997 z m -4.41666,-5.49999 q 0,1.35416 0.47917,2.3125 0.47916,0.94791 1.66666,0.94791 1.375,0 1.96875,-1.16666 v -4.46875 q -0.57292,-1.16666 -1.94791,-1.16666 -1.17709,0 -1.67708,0.96875 -0.48959,0.95833 -0.48959,2.35416 z m 9.01041,-0.0208 v -0.21875 q 0,-2.45833 1.39583,-4.09375 1.39583,-1.64583 3.93749,-1.64583 2.57292,0 3.95833,1.64583 1.38542,1.63542 1.38542,4.09375 v 0.21875 q 0,2.45833 -1.38542,4.09374 -1.38541,1.63541 -3.93749,1.63541 -2.5625,0 -3.95833,-1.63541 -1.39583,-1.63541 -1.39583,-4.09374 z m 3.02083,-0.21875 v 0.21875 q 0,1.37499 0.52083,2.34374 0.53125,0.95834 1.8125,0.95834 1.26041,0 1.78124,-0.95834 0.53125,-0.96875 0.53125,-2.34374 v -0.21875 q 0,-1.34375 -0.53125,-2.32292 -0.52083,-0.98958 -1.80208,-0.98958 -1.27083,0 -1.79166,0.98958 -0.52083,0.97917 -0.52083,2.32292 z m 19.66664,0.20833 q 0,2.53125 -1.09375,4.13541 -1.08333,1.60416 -3.28125,1.60416 -0.96874,0 -1.68749,-0.36458 -0.71875,-0.375 -1.23958,-1.04166 l -0.13542,1.19791 h -2.71875 V 858.3827 h 3.02083 v 5.72915 q 1.05208,-1.20833 2.73958,-1.20833 2.21875,0 3.30208,1.61458 1.09375,1.61458 1.09375,4.11458 z m -5.15624,-3.51041 q -1.42709,0 -1.97917,1.17708 v 4.45833 q 0.55208,1.17708 2,1.17708 1.27083,0 1.69791,-0.9375 0.42709,-0.9375 0.42709,-2.36458 v -0.21875 q 0,-1.33333 -0.4375,-2.3125 -0.42709,-0.97916 -1.70833,-0.97916 z m 12.26039,0.5 q -1.69792,0 -2.22917,1.15625 v 7.3854 h -3.02083 v -11.27081 h 2.84375 l 0.0937,1.34374 q 0.88542,-1.55208 2.51041,-1.55208 0.57292,0 0.92708,0.13542 l -0.0312,2.88541 q -0.22916,-0.0208 -0.54166,-0.0521 -0.30208,-0.0312 -0.55208,-0.0312 z m -3.65625,-7.46874 1.53125,1.47916 1.53125,-1.47916 h 2.56249 v 0.10417 l -3.14583,2.93749 h -1.89583 l -3.14582,-2.94791 v -0.0937 z m 15.59372,14.17706 q -0.54166,0.77083 -1.64583,1.40625 -1.10416,0.63541 -2.74999,0.63541 -2.63541,0 -4.11458,-1.59374 -1.47916,-1.60417 -1.47916,-3.86458 v -0.40625 q 0,-2.55208 1.41666,-4.18749 1.42708,-1.63542 3.84374,-1.63542 2.42708,0 3.69792,1.52083 1.27083,1.52083 1.27083,4.02083 v 1.28125 h -7.17708 q 0.15625,1.09375 0.86459,1.77083 0.70833,0.66667 1.86458,0.66667 1.71874,0 2.71874,-1.26042 z m -4.74999,-7.21874 q -0.95833,0 -1.47916,0.64583 -0.52084,0.64584 -0.67709,1.6875 h 4.1875 v -0.22916 q -0.0208,-0.90625 -0.51042,-1.5 -0.47916,-0.60417 -1.52083,-0.60417 z m 18.98957,9.05207 -2.89583,-4.52082 -1.07292,1.07291 v 3.44791 h -3.01041 v -16.01039 h 3.01041 v 8.86457 l 0.58333,-0.75 2.875,-3.37499 h 3.61458 l -4.0625,4.68749 4.42708,6.58332 z m 3.93749,-5.52082 v -0.21875 q 0,-2.45833 1.39583,-4.09375 1.39583,-1.64583 3.93749,-1.64583 2.57292,0 3.95833,1.64583 1.38541,1.63542 1.38541,4.09375 v 0.21875 q 0,2.45833 -1.38541,4.09374 -1.38541,1.63541 -3.93749,1.63541 -2.5625,0 -3.95833,-1.63541 -1.39583,-1.63541 -1.39583,-4.09374 z m 3.02083,-0.21875 v 0.21875 q 0,1.37499 0.52083,2.34374 0.53125,0.95834 1.8125,0.95834 1.26041,0 1.78124,-0.95834 0.53125,-0.96875 0.53125,-2.34374 v -0.21875 q 0,-1.34375 -0.53125,-2.32292 -0.52083,-0.98958 -1.80208,-0.98958 -1.27083,0 -1.79166,0.98958 -0.52083,0.97917 -0.52083,2.32292 z m 15.29163,5.9479 q -1.6875,0 -2.76042,-1.19791 v 5.32291 h -3.02082 v -15.60414 h 2.80208 l 0.11458,1.09374 q 1.07291,-1.30208 2.83333,-1.30208 2.14583,0 3.27083,1.57292 1.13541,1.57291 1.13541,4.14582 v 0.21875 q 0,2.45833 -1.13541,4.10416 -1.125,1.64583 -3.23958,1.64583 z m -0.8125,-9.24998 q -1.40625,0 -1.94792,1.09375 v 4.61457 q 0.5625,1.11459 1.96875,1.11459 1.17708,0 1.66667,-0.97917 0.48958,-0.97917 0.48958,-2.34375 v -0.21875 q 0,-1.39583 -0.51042,-2.33333 -0.5,-0.94791 -1.66666,-0.94791 z m 10.30207,-2.22916 v 11.27081 h -3.02082 v -11.27081 z m -2.93749,-1.35417 2.04166,-3.21874 h 3.28125 l -2.88541,3.21874 z m 10.77082,4.08333 q -1.69791,0 -2.22916,1.15625 v 7.3854 h -3.02083 v -11.27081 h 2.84375 l 0.0937,1.34374 q 0.88541,-1.55208 2.51041,-1.55208 0.57292,0 0.92708,0.13542 l -0.0312,2.88541 q -0.22916,-0.0208 -0.54166,-0.0521 -0.30209,-0.0312 -0.55209,-0.0312 z m 9.38541,8.54165 -0.0833,-1.15625 q -1.10417,1.36458 -3.08333,1.36458 -1.66667,0 -2.70833,-0.97916 -1.03125,-0.97917 -1.03125,-3.20833 v -7.29165 h 3.01041 v 7.31248 q 0,0.9375 0.44792,1.33334 0.44791,0.38541 1.14583,0.38541 0.82291,0 1.33333,-0.28125 0.51042,-0.29166 0.78125,-0.79166 v -7.95832 h 3.02083 v 11.27081 z m 5.04164,-14.18748 q 0,-0.67708 0.44791,-1.11458 0.45833,-0.44791 1.22917,-0.44791 0.77083,0 1.22916,0.44791 0.45833,0.4375 0.45833,1.11458 0,0.66667 -0.45833,1.11459 -0.45833,0.43749 -1.22916,0.43749 -0.77084,0 -1.22917,-0.43749 -0.44791,-0.44792 -0.44791,-1.11459 z m 0.22916,2.91667 h 3.02083 v 11.89581 q 0,1.90625 -1.01041,2.91666 -1,1.01042 -2.82292,1.01042 -0.79166,0 -1.51041,-0.17709 v -2.38541 q 0.47916,0.0937 0.95833,0.0937 1.36458,0 1.36458,-1.45833 z m 14.97916,9.43748 q -0.54166,0.77083 -1.64583,1.40625 -1.10416,0.63541 -2.74999,0.63541 -2.63542,0 -4.11458,-1.59374 -1.47916,-1.60417 -1.47916,-3.86458 v -0.40625 q 0,-2.55208 1.41666,-4.18749 1.42708,-1.63542 3.84374,-1.63542 2.42708,0 3.69792,1.52083 1.27083,1.52083 1.27083,4.02083 v 1.28125 h -7.17708 q 0.15625,1.09375 0.86459,1.77083 0.70833,0.66667 1.86458,0.66667 1.71874,0 2.71874,-1.26042 z m -4.74999,-7.21874 q -0.95833,0 -1.47916,0.64583 -0.52084,0.64584 -0.67709,1.6875 h 4.1875 v -0.22916 q -0.0208,-0.90625 -0.51042,-1.5 -0.47916,-0.60417 -1.52083,-0.60417 z m 18.10414,5.92708 q 0,-0.47917 -0.44792,-0.80209 -0.4375,-0.33333 -1.85416,-0.63541 -1.72917,-0.36458 -2.875,-1.15625 -1.13541,-0.80208 -1.13541,-2.26041 0,-1.40625 1.18749,-2.44792 1.19792,-1.05208 3.30208,-1.05208 2.19791,0 3.45833,1.03125 1.26041,1.03125 1.26041,2.60416 h -3.01041 q 0,-0.64583 -0.41666,-1.07291 -0.41667,-0.42708 -1.30209,-0.42708 -0.74999,0 -1.17708,0.35416 -0.41666,0.34375 -0.41666,0.86458 0,0.48959 0.45833,0.80209 0.46875,0.3125 1.64583,0.54166 1.83333,0.36459 3.04166,1.11458 1.20833,0.75 1.20833,2.42708 0,1.48958 -1.28124,2.46875 -1.28125,0.97916 -3.45833,0.97916 -2.36458,0 -3.61458,-1.20833 -1.25,-1.21874 -1.25,-2.59374 h 2.86458 q 0.0417,0.88541 0.64583,1.27083 0.61459,0.38541 1.41667,0.38541 1.75,0 1.75,-1.18749 z m 10.65621,3.33332 q -1.6875,0 -2.76042,-1.19791 v 5.32291 h -3.02083 v -15.60414 h 2.80208 l 0.11459,1.09374 q 1.07291,-1.30208 2.83333,-1.30208 2.14583,0 3.27082,1.57292 1.13542,1.57291 1.13542,4.14582 v 0.21875 q 0,2.45833 -1.13542,4.10416 -1.12499,1.64583 -3.23957,1.64583 z m -0.8125,-9.24998 q -1.40625,0 -1.94792,1.09375 v 4.61457 q 0.5625,1.11459 1.96875,1.11459 1.17708,0 1.66666,-0.97917 0.48959,-0.97917 0.48959,-2.34375 v -0.21875 q 0,-1.39583 -0.51042,-2.33333 -0.5,-0.94791 -1.66666,-0.94791 z m 6.57291,3.52083 v -0.21875 q 0,-2.45833 1.39583,-4.09375 1.39583,-1.64583 3.9375,-1.64583 2.57291,0 3.95832,1.64583 1.38542,1.63542 1.38542,4.09375 v 0.21875 q 0,2.45833 -1.38542,4.09374 -1.38541,1.63541 -3.93749,1.63541 -2.5625,0 -3.95833,-1.63541 -1.39583,-1.63541 -1.39583,-4.09374 z m 3.02083,-0.21875 v 0.21875 q 0,1.37499 0.52083,2.34374 0.53125,0.95834 1.8125,0.95834 1.26041,0 1.78125,-0.95834 0.53125,-0.96875 0.53125,-2.34374 v -0.21875 q 0,-1.34375 -0.53125,-2.32292 -0.52084,-0.98958 -1.80208,-0.98958 -1.27083,0 -1.79167,0.98958 -0.52083,0.97917 -0.52083,2.32292 z m 15.15625,5.66665 q -0.375,0.125 -0.82292,0.19792 -0.4375,0.0833 -0.98958,0.0833 -1.47917,0 -2.35416,-0.77083 -0.875,-0.77083 -0.875,-2.56249 v -5.94791 h -1.65625 v -2.19791 h 1.65625 v -2.78125 h 3.01041 v 2.78125 h 1.91666 v 2.19791 h -1.91666 v 5.63541 q 0,0.70833 0.29166,0.9375 0.29167,0.22916 0.86459,0.22916 0.27083,0 0.48958,-0.0208 0.22917,-0.0312 0.38542,-0.0625 z m 6.81248,-8.46873 q -1.69792,0 -2.22917,1.15625 v 7.3854 h -3.02083 v -11.27081 h 2.84375 l 0.0937,1.34374 q 0.88541,-1.55208 2.51041,-1.55208 0.57292,0 0.92708,0.13542 l -0.0312,2.88541 q -0.22916,-0.0208 -0.54166,-0.0521 -0.30208,-0.0312 -0.55208,-0.0312 z m -3.65625,-7.46874 1.53125,1.47916 1.53125,-1.47916 h 2.56249 v 0.10417 l -3.14583,2.93749 h -1.89583 l -3.14582,-2.94791 v -0.0937 z m 15.59371,14.17706 q -0.54167,0.77083 -1.64583,1.40625 -1.10417,0.63541 -2.75,0.63541 -2.63541,0 -4.11458,-1.59374 -1.47916,-1.60417 -1.47916,-3.86458 v -0.40625 q 0,-2.55208 1.41666,-4.18749 1.42709,-1.63542 3.84375,-1.63542 2.42708,0 3.69791,1.52083 1.27083,1.52083 1.27083,4.02083 v 1.28125 h -7.17707 q 0.15625,1.09375 0.86458,1.77083 0.70833,0.66667 1.86458,0.66667 1.71875,0 2.71875,-1.26042 z m -4.74999,-7.21874 q -0.95834,0 -1.47917,0.64583 -0.52083,0.64584 -0.67708,1.6875 h 4.18749 v -0.22916 q -0.0208,-0.90625 -0.51041,-1.5 -0.47917,-0.60417 -1.52083,-0.60417 z m 16.84374,3.52083 q 0,2.53125 -1.09375,4.13541 -1.08333,1.60416 -3.28125,1.60416 -0.96874,0 -1.68749,-0.36458 -0.71875,-0.375 -1.23958,-1.04166 l -0.13542,1.19791 h -2.71875 V 858.3827 h 3.02083 v 5.72915 q 1.05208,-1.20833 2.73958,-1.20833 2.21875,0 3.30208,1.61458 1.09375,1.61458 1.09375,4.11458 z m -5.15624,-3.51041 q -1.42709,0 -1.97917,1.17708 v 4.45833 q 0.55208,1.17708 2,1.17708 1.27083,0 1.69791,-0.9375 0.42709,-0.9375 0.42709,-2.36458 v -0.21875 q 0,-1.33333 -0.4375,-2.3125 -0.42709,-0.97916 -1.70833,-0.97916 z m 13.85415,9.04165 -0.0833,-1.15625 q -1.10417,1.36458 -3.08333,1.36458 -1.66667,0 -2.70833,-0.97916 -1.03125,-0.97917 -1.03125,-3.20833 v -7.29165 h 3.01041 v 7.31248 q 0,0.9375 0.44792,1.33334 0.44791,0.38541 1.14583,0.38541 0.82291,0 1.33333,-0.28125 0.51042,-0.29166 0.78125,-0.79166 v -7.95832 h 3.02083 v 11.27081 z"
       id="path22" />
  </g>
  <line
     x1="63.565403"
     y1="147.77728"
     x2="69.466736"
     y2="147.77728"
     style="fill:none;stroke:#cccccc;stroke-width:1.33333;stroke-linecap:butt;stroke-linejoin:round;stroke-miterlimit:10;stroke-dasharray:none;stroke-opacity:1"
     id="line25-4" />
  <line
     x1="63.565403"
     y1="188.81537"
     x2="69.466736"
     y2="188.81537"
     style="fill:none;stroke:#cccccc;stroke-width:1.33333;stroke-linecap:butt;stroke-linejoin:round;stroke-miterlimit:10;stroke-dasharray:none;stroke-opacity:1"
     id="line25-9" />
  <line
     x1="63.565403"
     y1="229.85321"
     x2="69.466736"
     y2="229.85321"
     style="fill:none;stroke:#cccccc;stroke-width:1.33333;stroke-linecap:butt;stroke-linejoin:round;stroke-miterlimit:10;stroke-dasharray:none;stroke-opacity:1"
     id="line25-2" />
  <line
     x1="63.565403"
     y1="270.88104"
     x2="69.466736"
     y2="270.88104"
     style="fill:none;stroke:#cccccc;stroke-width:1.33333;stroke-linecap:butt;stroke-linejoin:round;stroke-miterlimit:10;stroke-dasharray:none;stroke-opacity:1"
     id="line25-0" />
  <line
     x1="63.565403"
     y1="311.91901"
     x2="69.466736"
     y2="311.91901"
     style="fill:none;stroke:#cccccc;stroke-width:1.33333;stroke-linecap:butt;stroke-linejoin:round;stroke-miterlimit:10;stroke-dasharray:none;stroke-opacity:1"
     id="line25-6" />
  <g
     id="text16"
     style="font-size:13.3333px;line-height:1.2;font-family:Roboto;-inkscape-font-specification:Roboto;letter-spacing:0px;white-space:pre;inline-size:148.718;fill:#999999;stroke-width:3.77953;paint-order:markers fill stroke"
     aria-label="Poměr roční výroby 1 : 3."
     transform="translate(2.9543457,-830.62861)">
    <path
       style="fill:#808080"
       d="m 1.0729051,897.83554 h -2.2395777 v 3.71744 h -1.2565073 v -9.47914 h 3.496085 q 1.6145792,0 2.4674416,0.8138 0.8593729,0.8138 0.8593729,2.07681 0,1.3737 -0.8593729,2.12239 -0.8528624,0.7487 -2.4674416,0.7487 z m -2.2395777,-4.73306 v 3.71093 h 2.2395777 q 1.106768,0 1.5885376,-0.51432 0.4817696,-0.51433 0.4817696,-1.32162 0,-0.72916 -0.4817696,-1.30208 -0.4817696,-0.57291 -1.5885376,-0.57291 z m 6.5689942,5.0065 v -0.14974 q 0,-1.52995 0.8593728,-2.55208 0.8593728,-1.02864 2.3372337,-1.02864 1.4908819,0 2.3502549,1.02864 0.865883,1.02213 0.865883,2.55208 v 0.14974 q 0,1.52994 -0.865883,2.55207 -0.859373,1.02214 -2.3372341,1.02214 -1.4843713,0 -2.3502545,-1.02214 -0.8593728,-1.02213 -0.8593728,-2.55207 z m 1.204424,-0.14974 v 0.14974 q 0,1.04817 0.4947904,1.8164 0.5013008,0.76823 1.5104129,0.76823 0.9895808,0 1.4908821,-0.76823 0.5013,-0.76823 0.5013,-1.8164 v -0.14974 q 0,-1.03516 -0.5013,-1.80989 -0.5013013,-0.78125 -1.5039029,-0.78125 -0.9960913,0 -1.4973921,0.78125 -0.4947904,0.77473 -0.4947904,1.80989 z m 9.5377364,-2.5651 q -0.644529,0 -1.035153,0.27344 -0.390624,0.27343 -0.585936,0.72265 v 5.16275 h -1.210935 v -7.04425 h 1.145831 l 0.03255,0.76822 q 0.761717,-0.89843 2.083328,-0.89843 0.677081,0 1.204424,0.27343 0.533853,0.26693 0.8138,0.85938 0.351561,-0.50781 0.911456,-0.82031 0.566405,-0.3125 1.328122,-0.3125 1.132809,0 1.744787,0.60546 0.618488,0.60547 0.618488,1.9401 v 4.6289 h -1.210935 v -4.64192 q 0,-0.88541 -0.410155,-1.19791 -0.403645,-0.31901 -1.093747,-0.31901 -0.729165,0 -1.145831,0.4362 -0.416665,0.42968 -0.481769,1.04817 v 4.67447 h -1.204424 v -4.63541 q 0,-0.82682 -0.410155,-1.17187 -0.410156,-0.35156 -1.093748,-0.35156 z m 14.446578,4.92837 q -0.345051,0.52083 -0.97656,0.94401 -0.631509,0.41667 -1.673173,0.41667 -1.47135,0 -2.356765,-0.95703 -0.878904,-0.95703 -0.878904,-2.44791 v -0.27344 q 0,-1.15234 0.436197,-1.95963 0.442707,-0.8138 1.145831,-1.23698 0.703123,-0.42968 1.497392,-0.42968 1.510412,0 2.200515,0.98958 0.696613,0.98307 0.696613,2.46093 v 0.54036 h -4.765613 q 0.02604,0.97005 0.572915,1.65364 0.553384,0.67709 1.516923,0.67709 0.638019,0 1.080727,-0.26042 0.442707,-0.26042 0.774737,-0.69661 z m -2.805982,-4.95441 q -0.716144,0 -1.210935,0.52083 -0.49479,0.52083 -0.618488,1.49739 h 3.522127 v -0.0911 q -0.04557,-0.70313 -0.410156,-1.3151 -0.358072,-0.61198 -1.282548,-0.61198 z m -0.996092,-3.80859 0.983071,1.10677 0.98307,-1.10677 h 1.041664 v 0.0651 l -1.653641,1.78385 h -0.742186 l -1.6276,-1.78385 v -0.0651 z m 8.11196,3.97786 q -0.618488,0 -1.015623,0.27995 -0.397134,0.27343 -0.592446,0.73567 v 4.99999 h -1.204424 v -7.04425 h 1.171872 l 0.02604,0.80729 q 0.266926,-0.42969 0.677081,-0.6836 0.416666,-0.2539 0.996091,-0.2539 0.338541,0 0.533853,0.0911 l -0.0065,1.11979 q -0.266927,-0.0521 -0.585936,-0.0521 z m 7.8255,0 q -0.618488,0 -1.015622,0.27995 -0.397135,0.27343 -0.592447,0.73567 v 4.99999 h -1.204424 v -7.04425 h 1.171872 l 0.02604,0.80729 q 0.266926,-0.42969 0.677082,-0.6836 0.416665,-0.2539 0.996091,-0.2539 0.338541,0 0.533853,0.0911 l -0.0065,1.11979 q -0.266926,-0.0521 -0.585936,-0.0521 z m 1.256506,2.57161 v -0.14974 q 0,-1.52995 0.859373,-2.55208 0.859373,-1.02864 2.337233,-1.02864 1.490882,0 2.350255,1.02864 0.865883,1.02213 0.865883,2.55208 v 0.14974 q 0,1.52994 -0.865883,2.55207 -0.859373,1.02214 -2.337234,1.02214 -1.484371,0 -2.350254,-1.02214 -0.859373,-1.02213 -0.859373,-2.55207 z m 1.204424,-0.14974 v 0.14974 q 0,1.04817 0.49479,1.8164 0.501301,0.76823 1.510413,0.76823 0.989581,0 1.490882,-0.76823 0.501301,-0.76823 0.501301,-1.8164 v -0.14974 q 0,-1.03516 -0.501301,-1.80989 -0.501301,-0.78125 -1.503903,-0.78125 -0.996091,0 -1.497392,0.78125 -0.49479,0.77473 -0.49479,1.80989 z m 9.537738,2.73437 q 0.644529,0 1.126299,-0.38412 0.48828,-0.38411 0.533853,-0.98307 h 1.14583 q -0.04557,0.94401 -0.865883,1.65364 -0.820311,0.70313 -1.940099,0.70313 -1.588538,0 -2.363276,-1.04818 -0.768227,-1.04817 -0.768227,-2.46744 v -0.27344 q 0,-1.41926 0.768227,-2.46744 0.774738,-1.04817 2.363276,-1.04817 1.236976,0 1.998693,0.73567 0.761716,0.72917 0.807289,1.8164 h -1.14583 q -0.04557,-0.65104 -0.494791,-1.10676 -0.442707,-0.45573 -1.165361,-0.45573 -0.742186,0 -1.165362,0.3776 -0.416666,0.3776 -0.592446,0.95703 -0.169271,0.57943 -0.169271,1.1914 v 0.27344 q 0,0.61849 0.169271,1.19791 0.16927,0.57943 0.585936,0.95703 0.423176,0.3711 1.171872,0.3711 z m -1.256508,-9.1341 0.983071,1.10677 0.98307,-1.10677 h 1.041664 v 0.0651 l -1.653641,1.78385 h -0.742186 l -1.6276,-1.78385 v -0.0651 z m 8.339823,3.83463 q -0.579426,0 -1.022133,0.3125 -0.442707,0.3125 -0.696613,0.8138 v 5.03254 h -1.204424 v -7.04425 h 1.13932 l 0.03906,0.8789 q 0.800779,-1.00911 2.102859,-1.00911 1.041664,0 1.647131,0.58593 0.611978,0.58594 0.611978,1.97265 v 4.61588 h -1.210935 v -4.6289 q 0,-0.82682 -0.364582,-1.17838 -0.358072,-0.35156 -1.041664,-0.35156 z m 5.742169,-0.88541 v 7.04425 h -1.204424 v -7.04425 z m -1.243487,-1.02865 1.263018,-1.91406 h 1.451819 l -1.744787,1.91406 z m 11.848935,1.02865 -2.532546,7.04425 h -0.917966 l -2.552077,-7.04425 h 1.236976 l 1.79036,5.39712 1.744787,-5.39712 z m 3.561185,8.13149 q -0.130208,0.34505 -0.377603,0.7552 -0.247395,0.41667 -0.664061,0.70964 -0.410155,0.29296 -1.048174,0.29296 -0.14974,0 -0.371093,-0.0391 -0.214843,-0.0326 -0.305989,-0.0651 l -0.0065,-0.97656 q 0.143229,0.026 0.325521,0.026 0.611977,0 0.957028,-0.25391 0.345052,-0.24739 0.566405,-0.89843 l 0.260416,-0.71615 -2.513014,-6.96612 h 1.315101 l 1.764318,5.27342 1.63411,-5.27342 h 1.28906 z m -0.677082,-9.17316 1.263018,-1.91406 h 1.451819 l -1.744787,1.91406 z m 7.395816,2.07031 q -0.618488,0 -1.015623,0.27995 -0.397134,0.27343 -0.592446,0.73567 v 4.99999 h -1.204424 v -7.04425 h 1.171872 l 0.02604,0.80729 q 0.266927,-0.42969 0.677082,-0.6836 0.416666,-0.2539 0.996091,-0.2539 0.338541,0 0.533853,0.0911 l -0.0065,1.11979 q -0.266927,-0.0521 -0.585936,-0.0521 z m 1.256505,2.57161 v -0.14974 q 0,-1.52995 0.859373,-2.55208 0.859373,-1.02864 2.337234,-1.02864 1.490881,0 2.350254,1.02864 0.865884,1.02213 0.865884,2.55208 v 0.14974 q 0,1.52994 -0.865884,2.55207 -0.859373,1.02214 -2.337233,1.02214 -1.484372,0 -2.350255,-1.02214 -0.859373,-1.02213 -0.859373,-2.55207 z m 1.204424,-0.14974 v 0.14974 q 0,1.04817 0.494791,1.8164 0.501301,0.76823 1.510413,0.76823 0.98958,0 1.490881,-0.76823 0.501301,-0.76823 0.501301,-1.8164 v -0.14974 q 0,-1.03516 -0.501301,-1.80989 -0.501301,-0.78125 -1.503902,-0.78125 -0.996091,0 -1.497392,0.78125 -0.494791,0.77473 -0.494791,1.80989 z m 12.682266,0.14974 q 0,1.54296 -0.71615,2.55858 -0.71614,1.01563 -2.02473,1.01563 -1.334635,0 -2.05729,-0.94401 l -0.0651,0.8138 H 97.609118 V 891.553 h 1.210935 v 3.71744 q 0.716144,-0.89192 2.005207,-0.89192 1.32812,0 2.03775,0.98958 0.71615,0.98958 0.71615,2.60416 z m -3.05338,-2.71484 q -0.657553,0 -1.067708,0.31901 -0.410155,0.3125 -0.638019,0.77474 v 3.0664 q 0.234374,0.46874 0.65104,0.78775 0.416665,0.31901 1.067707,0.31901 0.97656,0 1.39973,-0.74869 0.42969,-0.75521 0.42969,-1.80338 v -0.13672 q 0,-1.04818 -0.41015,-1.80989 -0.40365,-0.76823 -1.43229,-0.76823 z m 6.90753,7.24608 q -0.13021,0.34505 -0.3776,0.7552 -0.2474,0.41667 -0.66406,0.70964 -0.41016,0.29296 -1.04818,0.29296 -0.14974,0 -0.37109,-0.0391 -0.21484,-0.0326 -0.30599,-0.0651 l -0.007,-0.97656 q 0.14323,0.026 0.32552,0.026 0.61198,0 0.95703,-0.25391 0.34505,-0.24739 0.5664,-0.89843 l 0.26042,-0.71615 -2.51301,-6.96612 h 1.3151 l 1.76431,5.27342 1.63412,-5.27342 h 1.28905 z"
       id="path15" />
    <path
       style="font-weight:bold;-inkscape-font-specification:'Roboto Bold';fill:#e19d14"
       d="m 118.9437,892.06082 v 9.49216 h -1.88151 v -7.2591 l -2.23958,0.69662 v -1.52344 l 3.91926,-1.40624 z"
       id="path16" />
    <path
       style="font-weight:bold;-inkscape-font-specification:'Roboto Bold';fill:#808080"
       d="m 124.90723,900.62199 q 0,-0.42969 0.28645,-0.71614 0.29297,-0.29297 0.78125,-0.29297 0.48828,0 0.77474,0.29297 0.28646,0.28645 0.28646,0.71614 0,0.42318 -0.28646,0.71615 -0.28646,0.28645 -0.77474,0.28645 -0.48828,0 -0.78125,-0.28645 -0.28645,-0.29297 -0.28645,-0.71615 z m 0,-5.33202 q 0,-0.42968 0.28645,-0.71614 0.29297,-0.29297 0.78125,-0.29297 0.48828,0 0.77474,0.29297 0.28646,0.28646 0.28646,0.71614 0,0.42318 -0.28646,0.71615 -0.28646,0.28646 -0.77474,0.28646 -0.48828,0 -0.78125,-0.28646 -0.28645,-0.29297 -0.28645,-0.71615 z"
       id="path17" />
    <path
       style="font-weight:bold;-inkscape-font-specification:'Roboto Bold';fill:#67a1de"
       d="m 134.15199,897.45143 h -1.0026 v -1.47786 h 1.0026 q 0.70963,0 1.05468,-0.35157 0.35157,-0.35807 0.35157,-0.95702 0,-0.52735 -0.31901,-0.86589 -0.3125,-0.34505 -0.96354,-0.34505 -0.51433,0 -0.89844,0.28646 -0.3776,0.28646 -0.3776,0.78776 h -1.88151 q 0,-1.17188 0.90495,-1.88151 0.90494,-0.70963 2.20051,-0.70963 1.4388,0 2.32422,0.6901 0.89192,0.68359 0.89192,2.01171 0,0.61198 -0.3776,1.17188 -0.37761,0.55338 -1.06771,0.87239 0.79427,0.27995 1.19141,0.85937 0.39713,0.57292 0.39713,1.34765 0,1.33464 -0.96354,2.0638 -0.95703,0.72917 -2.39583,0.72917 -0.80078,0 -1.54296,-0.29297 -0.73568,-0.29297 -1.21094,-0.89193 -0.46874,-0.60546 -0.46874,-1.54296 h 1.88801 q 0,0.52734 0.39063,0.87239 0.39713,0.33854 0.99609,0.33854 0.67057,0 1.04817,-0.35807 0.3776,-0.35807 0.3776,-0.94401 0,-0.7552 -0.41666,-1.08072 -0.41667,-0.33203 -1.13281,-0.33203 z"
       id="path18" />
    <path
       style="fill:#808080"
       d="m 139.17151,900.91496 q 0,-0.30599 0.1888,-0.51432 0.19531,-0.21485 0.55989,-0.21485 0.36458,0 0.55339,0.21485 0.19531,0.20833 0.19531,0.51432 0,0.29948 -0.19531,0.50781 -0.18881,0.20833 -0.55339,0.20833 -0.36458,0 -0.55989,-0.20833 -0.1888,-0.20833 -0.1888,-0.50781 z"
       id="path19" />
  </g>
  <path
     d="m 212.91092,111.72397 3.09895,-7.72784 h 1.61458 v 9.47914 h -1.24999 v -3.69791 l 0.12369,-3.96483 -3.11848,7.66274 h -0.95052 l -3.11197,-7.67576 0.1237,3.97785 v 3.69791 h -1.25 v -9.47914 h 1.61458 z m 12.31117,0.52084 q -0.34505,0.52083 -0.97656,0.944 -0.63151,0.41667 -1.67317,0.41667 -1.47135,0 -2.35677,-0.95703 -0.8789,-0.95703 -0.8789,-2.44791 v -0.27344 q 0,-1.15234 0.4362,-1.95963 0.4427,-0.8138 1.14583,-1.23697 0.70312,-0.42969 1.49739,-0.42969 1.51041,0 2.20051,0.98958 0.69662,0.98307 0.69662,2.46093 v 0.54037 h -4.76562 q 0.026,0.97005 0.57292,1.65364 0.55338,0.67708 1.51692,0.67708 0.63802,0 1.08073,-0.26042 0.44271,-0.26041 0.77474,-0.69661 z m -2.80598,-4.95442 q -0.71615,0 -1.21094,0.52083 -0.49479,0.52084 -0.61848,1.4974 h 3.52212 v -0.0911 q -0.0456,-0.70312 -0.41015,-1.3151 -0.35807,-0.61198 -1.28255,-0.61198 z m -0.99609,-3.80858 0.98307,1.10677 0.98307,-1.10677 h 1.04166 v 0.0651 l -1.65364,1.78385 h -0.74219 l -1.6276,-1.78385 v -0.0651 z m 9.40101,8.12498 q 0,-0.39063 -0.29296,-0.69662 -0.28646,-0.3125 -1.32813,-0.52083 -1.17838,-0.24739 -1.86197,-0.70312 -0.67708,-0.45573 -0.67708,-1.32812 0,-0.83333 0.70963,-1.44531 0.71615,-0.61198 1.90104,-0.61198 1.26302,0 1.97265,0.64453 0.70963,0.64453 0.70963,1.55599 h -1.20442 q 0,-0.4362 -0.38411,-0.82031 -0.38412,-0.39063 -1.09375,-0.39063 -0.7487,0 -1.07422,0.32552 -0.32552,0.32552 -0.32552,0.70964 0,0.39062 0.3125,0.6315 0.3125,0.23438 1.30859,0.45573 1.29557,0.29948 1.91406,0.77474 0.61849,0.47526 0.61849,1.32812 0,0.93099 -0.7487,1.51041 -0.74218,0.57943 -1.97265,0.57943 -1.39973,0 -2.14192,-0.71614 Q 226.42,112.17319 226.42,111.3008 h 1.21094 q 0.0391,0.74869 0.57291,1.03515 0.54037,0.27995 1.10026,0.27995 0.73568,0 1.1263,-0.28646 0.39062,-0.28646 0.39062,-0.72265 z m 4.08203,-5.17577 v 7.04425 h -1.20443 v -7.04425 z m -1.24349,-1.02864 1.26302,-1.91406 h 1.45182 l -1.74479,1.91406 z m 6.06118,7.21352 q 0.64453,0 1.1263,-0.38411 0.48828,-0.38412 0.53385,-0.98308 h 1.14583 q -0.0456,0.94401 -0.86588,1.65365 -0.82031,0.70312 -1.9401,0.70312 -1.58854,0 -2.36327,-1.04817 -0.76823,-1.04818 -0.76823,-2.46745 v -0.27343 q 0,-1.41927 0.76823,-2.46744 0.77473,-1.04818 2.36327,-1.04818 1.23698,0 1.99869,0.73568 0.76172,0.72916 0.80729,1.8164 h -1.14583 q -0.0456,-0.65104 -0.49479,-1.10677 -0.4427,-0.45573 -1.16536,-0.45573 -0.74218,0 -1.16536,0.3776 -0.41667,0.37761 -0.59245,0.95703 -0.16927,0.57943 -0.16927,1.19141 v 0.27343 q 0,0.61849 0.16927,1.19792 0.16927,0.57942 0.58594,0.95703 0.42318,0.37109 1.17187,0.37109 z m -1.25651,-9.13409 0.98308,1.10677 0.98307,-1.10677 h 1.04166 v 0.0651 l -1.65364,1.78385 h -0.74219 l -1.6276,-1.78385 v -0.0651 z m 8.33983,3.83462 q -0.57943,0 -1.02213,0.3125 -0.44271,0.3125 -0.69662,0.8138 v 5.03254 h -1.20442 v -7.04425 h 1.13932 l 0.0391,0.8789 q 0.80078,-1.00911 2.10286,-1.00911 1.04167,0 1.64713,0.58594 0.61198,0.58593 0.61198,1.97265 v 4.61587 h -1.21093 v -4.62889 q 0,-0.82682 -0.36459,-1.17839 -0.35807,-0.35156 -1.04166,-0.35156 z m 5.74217,-0.88541 v 7.04425 h -1.20442 v -7.04425 z m -1.24348,-1.02864 1.26301,-1.91406 h 1.45182 l -1.74479,1.91406 z m 10.65101,6.20441 q 0,-0.39063 -0.29297,-0.69662 -0.28646,-0.3125 -1.32812,-0.52083 -1.17838,-0.24739 -1.86198,-0.70312 -0.67708,-0.45573 -0.67708,-1.32812 0,-0.83333 0.70964,-1.44531 0.71614,-0.61198 1.90103,-0.61198 1.26302,0 1.97265,0.64453 0.70964,0.64453 0.70964,1.55599 h -1.20443 q 0,-0.4362 -0.38411,-0.82031 -0.38411,-0.39063 -1.09375,-0.39063 -0.74869,0 -1.07421,0.32552 -0.32552,0.32552 -0.32552,0.70964 0,0.39062 0.3125,0.6315 0.3125,0.23438 1.30859,0.45573 1.29557,0.29948 1.91405,0.77474 0.61849,0.47526 0.61849,1.32812 0,0.93099 -0.74869,1.51041 -0.74219,0.57943 -1.97265,0.57943 -1.39974,0 -2.14193,-0.71614 -0.74218,-0.71615 -0.74218,-1.58854 h 1.21093 q 0.0391,0.74869 0.57292,1.03515 0.54036,0.27995 1.10026,0.27995 0.73567,0 1.12629,-0.28646 0.39063,-0.28646 0.39063,-0.72265 z m 5.99608,1.99869 q -1.26953,0 -2.01172,-0.8138 v 3.39192 h -1.21093 v -9.75258 h 1.10677 l 0.0586,0.77474 q 0.74219,-0.90495 2.03776,-0.90495 1.33463,0 2.04426,0.98958 0.70964,0.98958 0.70964,2.60416 v 0.13672 q 0,1.54296 -0.71615,2.55859 -0.70963,1.01562 -2.01822,1.01562 z m -0.3711,-6.28905 q -0.61197,0 -1.00911,0.27995 -0.39713,0.27344 -0.63151,0.6901 v 3.37239 q 0.24089,0.41667 0.63151,0.6901 0.39714,0.26693 1.02214,0.26693 0.97656,0 1.42577,-0.76823 0.45573,-0.76823 0.45573,-1.8164 v -0.13672 q 0,-1.04817 -0.45573,-1.80989 -0.44921,-0.76823 -1.4388,-0.76823 z m 4.32291,2.71484 v -0.14974 q 0,-1.52994 0.85937,-2.55208 0.85937,-1.02864 2.33723,-1.02864 1.49089,0 2.35026,1.02864 0.86588,1.02214 0.86588,2.55208 v 0.14974 q 0,1.52994 -0.86588,2.55208 -0.85937,1.02213 -2.33724,1.02213 -1.48437,0 -2.35025,-1.02213 -0.85937,-1.02214 -0.85937,-2.55208 z m 1.20442,-0.14974 v 0.14974 q 0,1.04817 0.49479,1.8164 0.5013,0.76823 1.51041,0.76823 0.98959,0 1.49089,-0.76823 0.5013,-0.76823 0.5013,-1.8164 v -0.14974 q 0,-1.03515 -0.5013,-1.80989 -0.5013,-0.78125 -1.50391,-0.78125 -0.99609,0 -1.49739,0.78125 -0.49479,0.77474 -0.49479,1.80989 z m 9.7005,3.59374 q -0.14323,0.0456 -0.3776,0.0846 -0.22787,0.0456 -0.55339,0.0456 -0.67057,0 -1.14583,-0.41016 -0.47526,-0.41015 -0.47526,-1.47135 v -4.36847 h -1.28906 v -0.92448 h 1.28906 v -1.71224 h 1.20443 v 1.71224 h 1.3151 v 0.92448 h -1.3151 v 4.37498 q 0,0.54037 0.23437,0.69011 0.23438,0.14974 0.54036,0.14974 0.14974,0 0.3125,-0.026 0.16927,-0.0326 0.25391,-0.0521 z m 4.1927,-6.01561 q -0.61849,0 -1.01562,0.27995 -0.39714,0.27344 -0.59245,0.73567 v 4.99999 h -1.20443 v -7.04425 h 1.17188 l 0.026,0.80729 q 0.26692,-0.42969 0.67708,-0.68359 0.41667,-0.25391 0.99609,-0.25391 0.33854,0 0.53385,0.0911 l -0.007,1.11979 q -0.26692,-0.0521 -0.58593,-0.0521 z m -2.0638,-3.97785 0.98307,1.10677 0.98307,-1.10677 h 1.04167 v 0.0651 l -1.65365,1.78385 h -0.74218 l -1.6276,-1.78385 v -0.0651 z m 9.21873,8.763 q -0.34505,0.52083 -0.97656,0.944 -0.63151,0.41667 -1.67317,0.41667 -1.47135,0 -2.35677,-0.95703 -0.8789,-0.95703 -0.8789,-2.44791 v -0.27344 q 0,-1.15234 0.4362,-1.95963 0.4427,-0.8138 1.14583,-1.23697 0.70312,-0.42969 1.49739,-0.42969 1.51041,0 2.20051,0.98958 0.69662,0.98307 0.69662,2.46093 v 0.54037 h -4.76562 q 0.026,0.97005 0.57292,1.65364 0.55338,0.67708 1.51692,0.67708 0.63802,0 1.08073,-0.26042 0.44271,-0.26041 0.77474,-0.69661 z m -2.80598,-4.95442 q -0.71615,0 -1.21094,0.52083 -0.49479,0.52084 -0.61848,1.4974 h 3.52212 v -0.0911 q -0.0456,-0.70312 -0.41015,-1.3151 -0.35807,-0.61198 -1.28255,-0.61198 z m 10.26689,2.74088 q 0,1.54296 -0.71614,2.55859 -0.71614,1.01562 -2.02473,1.01562 -1.33464,0 -2.05729,-0.94401 l -0.0651,0.8138 h -1.10677 v -9.99997 h 1.21093 v 3.71744 q 0.71615,-0.89193 2.00521,-0.89193 1.32812,0 2.03775,0.98958 0.71614,0.98958 0.71614,2.60416 z m -3.05337,-2.71484 q -0.65755,0 -1.06771,0.31901 -0.41015,0.3125 -0.63802,0.77474 v 3.0664 q 0.23438,0.46875 0.65104,0.78776 0.41667,0.31901 1.06771,0.31901 0.97656,0 1.39973,-0.7487 0.42969,-0.75521 0.42969,-1.80338 v -0.13672 q 0,-1.04817 -0.41016,-1.80989 -0.40364,-0.76823 -1.43228,-0.76823 z m 8.92576,6.15884 q -0.11719,-0.2539 -0.16927,-0.74218 -0.33854,0.35807 -0.84636,0.61848 -0.50781,0.25391 -1.15885,0.25391 -1.08072,0 -1.73176,-0.60547 -0.65104,-0.60546 -0.65104,-1.48437 0,-1.13281 0.85937,-1.71874 0.85937,-0.59245 2.31119,-0.59245 h 1.1914 v -0.5599 q 0,-0.62499 -0.3776,-0.99609 -0.37109,-0.3776 -1.10677,-0.3776 -0.68359,0 -1.10676,0.33854 -0.41667,0.33203 -0.41667,0.77474 h -1.20442 q 0,-0.75521 0.76171,-1.41927 0.76172,-0.66406 2.03776,-0.66406 1.14583,0 1.8815,0.58594 0.73568,0.58593 0.73568,1.77083 v 3.28124 q 0,0.35156 0.0586,0.74869 0.0651,0.39714 0.1888,0.6836 v 0.10416 z m -1.9987,-0.92447 q 0.65104,0 1.1263,-0.32553 0.48177,-0.32552 0.67708,-0.72265 v -1.45182 h -0.99609 q -2.15494,0 -2.15494,1.30208 0,0.5013 0.33854,0.85286 0.33854,0.34506 1.00911,0.34506 z m 13.78252,-0.30599 q -0.34505,0.52083 -0.97656,0.944 -0.63151,0.41667 -1.67317,0.41667 -1.47135,0 -2.35677,-0.95703 -0.8789,-0.95703 -0.8789,-2.44791 v -0.27344 q 0,-1.15234 0.43619,-1.95963 0.44271,-0.8138 1.14584,-1.23697 0.70312,-0.42969 1.49739,-0.42969 1.51041,0 2.20051,0.98958 0.69662,0.98307 0.69662,2.46093 v 0.54037 h -4.76562 q 0.026,0.97005 0.57292,1.65364 0.55338,0.67708 1.51692,0.67708 0.63802,0 1.08073,-0.26042 0.4427,-0.26041 0.77474,-0.69661 z m -2.80598,-4.95442 q -0.71615,0 -1.21094,0.52083 -0.49479,0.52084 -0.61849,1.4974 h 3.52213 v -0.0911 q -0.0456,-0.70312 -0.41015,-1.3151 -0.35808,-0.61198 -1.28255,-0.61198 z m 5.61196,-3.81509 v 9.99997 h -1.21093 v -9.99997 z m 7.5065,8.76951 q -0.34505,0.52083 -0.97656,0.944 -0.63151,0.41667 -1.67318,0.41667 -1.47135,0 -2.35676,-0.95703 -0.8789,-0.95703 -0.8789,-2.44791 v -0.27344 q 0,-1.15234 0.43619,-1.95963 0.44271,-0.8138 1.14583,-1.23697 0.70313,-0.42969 1.49739,-0.42969 1.51042,0 2.20052,0.98958 0.69661,0.98307 0.69661,2.46093 v 0.54037 h -4.76561 q 0.026,0.97005 0.57291,1.65364 0.55339,0.67708 1.51693,0.67708 0.63802,0 1.08072,-0.26042 0.44271,-0.26041 0.77474,-0.69661 z m -2.80599,-4.95442 q -0.71614,0 -1.21093,0.52083 -0.49479,0.52084 -0.61849,1.4974 h 3.52213 v -0.0911 q -0.0456,-0.70312 -0.41016,-1.3151 -0.35807,-0.61198 -1.28255,-0.61198 z m 8.71743,6.18488 -2.4414,-3.26822 -0.76171,0.78776 v 2.48046 h -1.21094 v -9.99997 h 1.21094 v 6.04165 l 0.64453,-0.76823 2.18749,-2.3177 h 1.47135 l -2.74739,2.93619 3.0664,4.10806 z m 5.3255,0 q -0.14322,0.0456 -0.3776,0.0846 -0.22786,0.0456 -0.55338,0.0456 -0.67057,0 -1.14583,-0.41016 -0.47526,-0.41015 -0.47526,-1.47135 v -4.36847 h -1.28906 v -0.92448 h 1.28906 v -1.71224 h 1.20442 v 1.71224 h 1.3151 v 0.92448 h -1.3151 v 4.37498 q 0,0.54037 0.23438,0.69011 0.23437,0.14974 0.54036,0.14974 0.14974,0 0.3125,-0.026 0.16927,-0.0326 0.2539,-0.0521 z m 4.1927,-6.01561 q -0.61848,0 -1.01562,0.27995 -0.39713,0.27344 -0.59245,0.73567 v 4.99999 h -1.20442 v -7.04425 h 1.17187 l 0.026,0.80729 q 0.26693,-0.42969 0.67709,-0.68359 0.41666,-0.25391 0.99609,-0.25391 0.33854,0 0.53385,0.0911 l -0.007,1.11979 q -0.26693,-0.0521 -0.58594,-0.0521 z m -2.06379,-3.97785 0.98307,1.10677 0.98307,-1.10677 h 1.04166 v 0.0651 l -1.65364,1.78385 h -0.74219 l -1.6276,-1.78385 v -0.0651 z m 3.77603,1.08072 q 0,-0.29296 0.17578,-0.49479 0.18229,-0.20182 0.53385,-0.20182 0.34505,0 0.52735,0.20182 0.1888,0.20183 0.1888,0.49479 0,0.27995 -0.1888,0.48177 -0.1823,0.19532 -0.52735,0.19532 -0.35156,0 -0.53385,-0.19532 -0.17578,-0.20182 -0.17578,-0.48177 z m 1.30208,1.86849 v 7.04425 h -1.21093 v -7.04425 z m 4.85677,0.88541 q -0.57943,0 -1.02214,0.3125 -0.4427,0.3125 -0.69661,0.8138 v 5.03254 h -1.20442 v -7.04425 h 1.13932 l 0.0391,0.8789 q 0.80078,-1.00911 2.10286,-1.00911 1.04166,0 1.64713,0.58594 0.61198,0.58593 0.61198,1.97265 v 4.61587 h -1.21094 v -4.62889 q 0,-0.82682 -0.36458,-1.17839 -0.35807,-0.35156 -1.04166,-0.35156 z m 6.84242,7.24608 q -0.13021,0.34505 -0.37761,0.75521 -0.24739,0.41666 -0.66406,0.70963 -0.41015,0.29297 -1.04817,0.29297 -0.14974,0 -0.3711,-0.0391 -0.21484,-0.0326 -0.30598,-0.0651 l -0.007,-0.97656 q 0.14323,0.026 0.32552,0.026 0.61198,0 0.95703,-0.2539 0.34505,-0.2474 0.56641,-0.89844 l 0.26041,-0.71614 -2.51301,-6.96613 h 1.3151 l 1.76432,5.27342 1.63411,-5.27342 h 1.28906 z"
     id="text21"
     style="font-size:13.3333px;line-height:1.3;font-family:Roboto;-inkscape-font-specification:Roboto;letter-spacing:0px;white-space:pre;fill:#545e6d;stroke-width:3.77953;paint-order:markers fill stroke"
     aria-label="Měsíční spotřeba elektřiny" />
  <path
     style="opacity:1;fill:#e8c06d;fill-opacity:1;stroke:#545e6d;stroke-width:1;stroke-linecap:butt;stroke-dasharray:none;stroke-dashoffset:0;stroke-opacity:1;paint-order:markers fill stroke"
     d="m 356.43762,130.59491 -5.3223,-13.3848"
     id="path21" />
  <g
     id="g100"
     transform="translate(-1.9322548,-921.6295)">
    <line
       x1="88.175919"
       y1="1244.28"
       x2="88.175919"
       y2="1238.3787"
       style="fill:none;stroke:#cccccc;stroke-width:1.33333;stroke-linecap:butt;stroke-linejoin:round;stroke-miterlimit:10;stroke-dasharray:none;stroke-opacity:1"
       id="line27" />
    <line
       x1="224.95564"
       y1="1244.28"
       x2="224.95564"
       y2="1238.3787"
       style="fill:none;stroke:#cccccc;stroke-width:1.33333;stroke-linecap:butt;stroke-linejoin:round;stroke-miterlimit:10;stroke-dasharray:none;stroke-opacity:1"
       id="line43" />
    <line
       x1="389.08722"
       y1="1244.28"
       x2="389.08722"
       y2="1238.3787"
       style="fill:none;stroke:#cccccc;stroke-width:1.33333;stroke-linecap:butt;stroke-linejoin:round;stroke-miterlimit:10;stroke-dasharray:none;stroke-opacity:1"
       id="line44" />
  </g>
  <g
     id="g103"
     transform="translate(-1.9322548,-923.90924)">
    <path
       style="fill:none;fill-opacity:1;stroke:#545e6d;stroke-width:2.66667;stroke-linecap:butt;stroke-dasharray:none;stroke-dashoffset:0;stroke-opacity:1;paint-order:markers fill stroke"
       d="M 77.397994,1039.0481 H 98.974031"
       id="path255-2" />
    <path
       style="fill:none;fill-opacity:1;stroke:#545e6d;stroke-width:2.66667;stroke-linecap:butt;stroke-dasharray:none;stroke-dashoffset:0;stroke-opacity:1;paint-order:markers fill stroke"
       d="m 104.74989,1060.8204 h 21.57605"
       id="path255-2-1" />
    <path
       style="fill:none;fill-opacity:1;stroke:#545e6d;stroke-width:2.66667;stroke-linecap:butt;stroke-dasharray:none;stroke-dashoffset:0;stroke-opacity:1;paint-order:markers fill stroke"
       d="m 132.10179,1054.7153 h 21.57605"
       id="path255-2-0" />
    <path
       style="fill:none;fill-opacity:1;stroke:#545e6d;stroke-width:2.66667;stroke-linecap:butt;stroke-dasharray:none;stroke-dashoffset:0;stroke-opacity:1;paint-order:markers fill stroke"
       d="m 159.45369,1078.0847 h 21.57605"
       id="path255-2-5" />
    <path
       style="fill:none;fill-opacity:1;stroke:#545e6d;stroke-width:2.66667;stroke-linecap:butt;stroke-dasharray:none;stroke-dashoffset:0;stroke-opacity:1;paint-order:markers fill stroke"
       d="m 214.1676,1091.6293 h 21.57605"
       id="path255-2-62" />
    <path
       style="fill:none;fill-opacity:1;stroke:#545e6d;stroke-width:2.66667;stroke-linecap:butt;stroke-dasharray:none;stroke-dashoffset:0;stroke-opacity:1;paint-order:markers fill stroke"
       d="m 186.8157,1082.8657 h 21.57605"
       id="path255-2-6" />
    <path
       style="fill:none;fill-opacity:1;stroke:#545e6d;stroke-width:2.66667;stroke-linecap:butt;stroke-dasharray:none;stroke-dashoffset:0;stroke-opacity:1;paint-order:markers fill stroke"
       d="m 241.5195,1093.4891 h 21.57605"
       id="path255-2-8" />
    <path
       style="fill:none;fill-opacity:1;stroke:#545e6d;stroke-width:2.66667;stroke-linecap:butt;stroke-dasharray:none;stroke-dashoffset:0;stroke-opacity:1;paint-order:markers fill stroke"
       d="m 268.8815,1090.3052 h 21.57605"
       id="path255-2-2" />
    <path
       style="fill:none;fill-opacity:1;stroke:#545e6d;stroke-width:2.66667;stroke-linecap:butt;stroke-dasharray:none;stroke-dashoffset:0;stroke-opacity:1;paint-order:markers fill stroke"
       d="m 296.23343,1089.2438 h 21.57605"
       id="path1" />
    <path
       style="fill:none;fill-opacity:1;stroke:#545e6d;stroke-width:2.66667;stroke-linecap:butt;stroke-dasharray:none;stroke-dashoffset:0;stroke-opacity:1;paint-order:markers fill stroke"
       d="m 323.58533,1067.4613 h 21.57605"
       id="path2" />
    <path
       style="fill:none;fill-opacity:1;stroke:#545e6d;stroke-width:2.66667;stroke-linecap:butt;stroke-dasharray:none;stroke-dashoffset:0;stroke-opacity:1;paint-order:markers fill stroke"
       d="m 350.94733,1059.2335 h 21.57604"
       id="path3" />
    <path
       style="fill:none;fill-opacity:1;stroke:#545e6d;stroke-width:2.66667;stroke-linecap:butt;stroke-dasharray:none;stroke-dashoffset:0;stroke-opacity:1;paint-order:markers fill stroke"
       d="m 378.29923,1053.3912 h 21.57604"
       id="path4" />
  </g>
</svg>
