<svg id="Layer_1" data-name="Layer 1" xmlns="http://www.w3.org/2000/svg" viewBox="0 0 740 147.47"><defs><style>.cls-1{fill:#1a1a1a;}.cls-2{fill:navy;}.cls-3{fill:none;stroke:navy;stroke-linecap:round;stroke-linejoin:round;stroke-width:0.75px;}</style></defs><path class="cls-1" d="M87.31,60.91a6.23,6.23,0,0,0-3.16-.9c-2.16,0-3.56,1.46-3.56,3.82s1.32,3.88,3.58,3.88a6,6,0,0,0,3.3-1l.66,2.82a9.4,9.4,0,0,1-4.1.9c-4,0-6.64-2.3-6.64-6.5,0-4,2.62-6.6,6.74-6.6a9.63,9.63,0,0,1,4.14.94Z"/><path class="cls-1" d="M95,69a3.31,3.31,0,0,1-2.68,1.42,2.69,2.69,0,0,1-2.84-2.58c0-1.76,1.32-3.18,5.5-3.3v-.18c0-1-.5-1.42-1.64-1.42a7.56,7.56,0,0,0-3.16.94l-.64-2.26a9.36,9.36,0,0,1,4.28-1.1c3.22,0,4.28,1.46,4.24,4.06l0,2.76c0,.64.12.7.76.76l-.3,2.2c-2,.26-3-.28-3.44-1.3Zm0-3c-1.9.22-2.6.58-2.6,1.4a1,1,0,0,0,1.16,1A1.9,1.9,0,0,0,95,67.75Z"/><path class="cls-1" d="M109.79,60.91a6.23,6.23,0,0,0-3.16-.9c-2.16,0-3.56,1.46-3.56,3.82s1.32,3.88,3.58,3.88a6,6,0,0,0,3.3-1l.66,2.82a9.4,9.4,0,0,1-4.1.9c-4,0-6.64-2.3-6.64-6.5,0-4,2.62-6.6,6.74-6.6a9.63,9.63,0,0,1,4.14.94Z"/><path class="cls-1" d="M118.27,70.41c-3.7,0-6.52-2.3-6.52-6.52a6.32,6.32,0,0,1,6.56-6.58c3.72,0,6.54,2.28,6.54,6.5A6.35,6.35,0,0,1,118.27,70.41Zm0-10.54c-2.12,0-3.32,1.6-3.32,3.94s1.24,4,3.38,4,3.32-1.62,3.32-4S120.39,59.87,118.27,59.87Z"/><path class="cls-1" d="M131,74.05c0,1.51-1.36,2.38-3,2.38a4.86,4.86,0,0,1-2.28-.54l.21-1.44a4.16,4.16,0,0,0,1.91.57c.81,0,1.32-.31,1.32-.94s-.43-.89-1.33-.92a5.77,5.77,0,0,0-1,.06v-1.3c1-.18,2-.42,2-1.19,0-.49-.36-.77-1.08-.77a3,3,0,0,0-1.64.63l-.4-1.3a4.18,4.18,0,0,1,2.49-.8c1.47,0,2.55.76,2.55,1.93a2,2,0,0,1-1.48,1.79A1.88,1.88,0,0,1,131,74.05Z"/><path class="cls-1" d="M366.48,60.91a6.23,6.23,0,0,0-3.16-.9c-2.16,0-3.56,1.46-3.56,3.82s1.32,3.88,3.58,3.88a6,6,0,0,0,3.3-1l.66,2.82a9.4,9.4,0,0,1-4.1.9c-4,0-6.65-2.3-6.65-6.5,0-4,2.63-6.6,6.75-6.6a9.63,9.63,0,0,1,4.14.94Z"/><path class="cls-1" d="M375,70.41c-3.7,0-6.53-2.3-6.53-6.52A6.32,6.32,0,0,1,375,57.31c3.72,0,6.54,2.28,6.54,6.5A6.35,6.35,0,0,1,375,70.41Zm0-10.54c-2.12,0-3.32,1.6-3.32,3.94s1.24,4,3.38,4,3.32-1.62,3.32-4S377.08,59.87,375,59.87Z"/><path class="cls-1" d="M382.79,74.25V73c1.84-1.17,2.85-1.72,2.85-2.36,0-.41-.31-.65-.89-.65a3.26,3.26,0,0,0-1.7.62l-.4-1.33a4.6,4.6,0,0,1,2.52-.8c1.5,0,2.38.77,2.38,1.85s-.82,1.69-2.32,2.46h2.57l0,1.45Z"/><path class="cls-1" d="M184,70.41c-2.3,0-3.54-.94-3.42-3.38l.14-3.54-1.4-.24.06-2,1.4-.46,0-2.12h3l0,2.22h2.32l-.06,2.42h-2.48l-.1,3.34c0,.86.46,1.22,1.22,1.22a4,4,0,0,0,1.22-.24l.36,2.4A7,7,0,0,1,184,70.41Z"/><path class="cls-1" d="M190.23,66.19c.1,1.24,1,2,2.46,2a6.3,6.3,0,0,0,3-.9l.3,2.38a8.34,8.34,0,0,1-3.62.76c-3.16,0-5.2-1.76-5.2-4.86a4.77,4.77,0,0,1,5-5c2.64,0,4.08,1.58,4.08,3.9a7,7,0,0,1-.2,1.64l-5.9.1Zm3.24-1.6v-.18c0-1.1-.46-1.78-1.42-1.78a1.94,1.94,0,0,0-1.8,2Z"/><path class="cls-1" d="M203.75,60.51c2.3,0,4,1.88,4,4.84a4.71,4.71,0,0,1-4.66,5,6.88,6.88,0,0,1-1.92-.3v4.16h-3.08V61l3.08-.38v1.18A3.6,3.6,0,0,1,203.75,60.51Zm-2.6,7.2a2.53,2.53,0,0,0,1.42.38c1.32,0,2.08-1,2.08-2.58S204,63,202.71,63a2.19,2.19,0,0,0-1.56.64Z"/><path class="cls-1" d="M209.47,70.11V56.89l3.08-.38v13.6Z"/><path class="cls-1" d="M219.19,70.41a4.63,4.63,0,0,1-4.94-4.92,4.76,4.76,0,0,1,5.06-5,4.64,4.64,0,0,1,4.92,4.92A4.79,4.79,0,0,1,219.19,70.41Zm0-7.56c-1.26,0-1.92,1-1.92,2.62s.68,2.58,1.94,2.58,1.92-1,1.92-2.6S220.49,62.85,219.23,62.85Z"/><path class="cls-1" d="M286.85,60.91a6.23,6.23,0,0,0-3.16-.9c-2.16,0-3.56,1.46-3.56,3.82s1.32,3.88,3.58,3.88a6,6,0,0,0,3.3-1l.66,2.82a9.4,9.4,0,0,1-4.1.9c-4,0-6.64-2.3-6.64-6.5,0-4,2.62-6.6,6.74-6.6a9.63,9.63,0,0,1,4.14.94Z"/><path class="cls-1" d="M294.53,69a3.31,3.31,0,0,1-2.68,1.42A2.69,2.69,0,0,1,289,67.83c0-1.76,1.32-3.18,5.5-3.3v-.18c0-1-.5-1.42-1.64-1.42a7.56,7.56,0,0,0-3.16.94l-.64-2.26a9.36,9.36,0,0,1,4.28-1.1c3.22,0,4.28,1.46,4.24,4.06l0,2.76c0,.64.12.7.76.76l-.3,2.2c-2,.26-3-.28-3.44-1.3Zm0-3c-1.9.22-2.6.58-2.6,1.4a1,1,0,0,0,1.16,1,1.9,1.9,0,0,0,1.44-.62Z"/><path class="cls-1" d="M305.93,70.41c-3.7,0-6.52-2.3-6.52-6.52A6.32,6.32,0,0,1,306,57.31c3.72,0,6.54,2.28,6.54,6.5A6.35,6.35,0,0,1,305.93,70.41Zm0-10.54c-2.12,0-3.32,1.6-3.32,3.94s1.24,4,3.38,4,3.32-1.62,3.32-4S308.05,59.87,305.93,59.87Z"/><path class="cls-2" d="M24.08,98h-.95l-3.08-7.8h1.14l2.47,6.43L26,90.21h1.11Z"/><path class="cls-2" d="M32.51,97.06a3,3,0,0,1-2.28,1.16,2.26,2.26,0,0,1-2.46-2.16c0-1.41,1.1-2.57,4.73-2.77v-.46C32.5,91.6,32,91,30.66,91a4.78,4.78,0,0,0-2.55.94l-.24-1A5.54,5.54,0,0,1,30.76,90c1.8,0,2.81.81,2.79,2.79v3.74c0,.56.1.79.78.78l-.07.86c-1,.07-1.58-.34-1.7-1.1Zm0-3.06c-2.67.31-3.63.9-3.63,1.94a1.42,1.42,0,0,0,1.6,1.36,2.81,2.81,0,0,0,2-1Zm-1.76-4.81H30l2-3h1.36Z"/><path class="cls-2" d="M39.21,90c2.11,0,3.48,1.67,3.48,4a3.85,3.85,0,0,1-3.84,4.15,5,5,0,0,1-1.9-.41V102H35.89V90.18L37,90v1A3.36,3.36,0,0,1,39.21,90ZM37,96.65a3.24,3.24,0,0,0,1.95.61c1.67,0,2.71-1.34,2.71-3.17S40.62,91,39,91a3.14,3.14,0,0,0-2.09.87Z"/><path class="cls-2" d="M45.21,94.22a2.77,2.77,0,0,0,2.72,3,4.2,4.2,0,0,0,2.26-.65l.21,1a4.79,4.79,0,0,1-2.5.67,3.74,3.74,0,0,1-3.76-4c0-2.45,1.56-4.18,3.67-4.18a2.67,2.67,0,0,1,2.84,2.87,4.82,4.82,0,0,1-.17,1.24l-5.27,0Zm4.39-.93c0-.09,0-.26,0-.34a1.79,1.79,0,0,0-1.87-2,2.51,2.51,0,0,0-2.46,2.36Z"/><path class="cls-2" d="M57.77,98V93c0-1.36-.54-2-1.71-2a3.51,3.51,0,0,0-2.37,1.11V98h-1V90.21l1-.22v1.27A4.07,4.07,0,0,1,56.35,90a2.35,2.35,0,0,1,2.48,2.67V98Z"/><path class="cls-2" d="M61.79,94.22a2.76,2.76,0,0,0,2.72,3,4.26,4.26,0,0,0,2.26-.65l.2,1a4.76,4.76,0,0,1-2.5.67,3.74,3.74,0,0,1-3.76-4c0-2.45,1.57-4.18,3.68-4.18a2.67,2.67,0,0,1,2.83,2.87,4.42,4.42,0,0,1-.17,1.24l-5.26,0Zm4.38-.93a2,2,0,0,0,0-.34,1.79,1.79,0,0,0-1.87-2,2.52,2.52,0,0,0-2.47,2.36Z"/><path class="cls-2" d="M72.51,98.22c-2.34,0-3.81-1.69-3.81-4.1A3.84,3.84,0,0,1,72.53,90a4.47,4.47,0,0,1,2.43.66l-.27.95A4,4,0,0,0,72.53,91c-1.68,0-2.74,1.26-2.74,3.12s1.11,3.14,2.76,3.14a4,4,0,0,0,2.15-.65l.23,1A4.68,4.68,0,0,1,72.51,98.22Z"/><path class="cls-2" d="M310.31,107.69v-.83l4.64-6h-4.49V99.9h5.75v.82l-4.64,6h4.64v.93Z"/><path class="cls-2" d="M321.92,106.76a3,3,0,0,1-2.28,1.15,2.26,2.26,0,0,1-2.46-2.16c0-1.41,1.1-2.57,4.72-2.77v-.46c0-1.22-.54-1.85-1.83-1.85a4.77,4.77,0,0,0-2.55.93l-.24-1a5.55,5.55,0,0,1,2.89-.94c1.8,0,2.8.82,2.79,2.79v3.74c0,.56.1.8.78.78l-.07.87c-1,.07-1.58-.34-1.7-1.1Zm0-3.06c-2.66.3-3.62.9-3.62,1.93a1.42,1.42,0,0,0,1.6,1.36,2.73,2.73,0,0,0,2-1Zm-1.75-4.81h-.78l2-3h1.36Z"/><path class="cls-2" d="M326.36,103.81v3.88H325.3V96.23l1.06-.22v7.48h0l3.5-3.59h1.33l-3.74,3.71,3.76,4.08h-1.35l-3.5-3.88Z"/><path class="cls-2" d="M332.68,107.69V96.23l1.06-.22v11.68Z"/><path class="cls-2" d="M340.26,106.76a3,3,0,0,1-2.27,1.15,2.26,2.26,0,0,1-2.47-2.16c0-1.41,1.11-2.57,4.73-2.77v-.46a1.61,1.61,0,0,0-1.84-1.85,4.77,4.77,0,0,0-2.55.93l-.24-1a5.55,5.55,0,0,1,2.89-.94c1.8,0,2.81.82,2.79,2.79v3.74c0,.56.1.8.78.78l-.07.87c-1,.07-1.58-.34-1.7-1.1Zm0-3.06c-2.67.3-3.62.9-3.62,1.93a1.41,1.41,0,0,0,1.59,1.36,2.76,2.76,0,0,0,2-1Z"/><path class="cls-2" d="M348.88,96.23l1.06-.22v11.68h-1.06V107a3.37,3.37,0,0,1-2.26,1c-2.09,0-3.48-1.68-3.48-4A3.86,3.86,0,0,1,347,99.73a4.68,4.68,0,0,1,1.88.43Zm-1.94,4.46c-1.66,0-2.72,1.32-2.72,3.16s1,3.09,2.59,3.09a3,3,0,0,0,2.07-.87v-4.79A3.22,3.22,0,0,0,346.94,100.69Z"/><path class="cls-2" d="M357.52,107.69v-5c0-1.36-.55-2-1.72-2a3.5,3.5,0,0,0-2.36,1.1v5.9h-1.06V99.9l1.06-.22V101a4,4,0,0,1,2.65-1.28,2.35,2.35,0,0,1,2.48,2.67v5.34Z"/><path class="cls-2" d="M361,107.69V100l1.05-.22v7.92Zm.82-8.8h-.79l2-3h1.36Z"/><path class="cls-2" d="M370.28,107.91a5,5,0,0,1-2.55-.7l.29-1a4.22,4.22,0,0,0,2.3.72c.93,0,1.75-.46,1.75-1.31s-1-1.21-2-1.51-2.26-.85-2.26-2.21a2.36,2.36,0,0,1,2.64-2.25,5.31,5.31,0,0,1,2.36.58l-.3.95a4.75,4.75,0,0,0-2.13-.57c-.95,0-1.56.44-1.56,1.19s.91,1.15,1.92,1.46,2.29.83,2.29,2.27S371.85,107.91,370.28,107.91Z"/><path class="cls-2" d="M375,107.69V96.23l1-.22v11.68Z"/><path class="cls-2" d="M381.73,107.91c-2.16,0-3.76-1.6-3.76-4.1a3.84,3.84,0,0,1,3.84-4.13c2.18,0,3.74,1.6,3.74,4.1A3.84,3.84,0,0,1,381.73,107.91Zm0-7.27c-1.65,0-2.74,1.3-2.74,3.14s1.11,3.18,2.76,3.18,2.73-1.31,2.73-3.15S383.41,100.64,381.76,100.64Z"/><path class="cls-2" d="M386.55,107.69v-.83l4.64-6h-4.48V99.9h5.74v.82l-4.64,6h4.64v.93ZM390.07,99h-1.19L387,95.88h.8l1.7,2.31h0l1.71-2.31h.8Z"/><path class="cls-2" d="M395.14,103.81v3.88h-1.05V96.23l1.05-.22v7.48h0l3.51-3.59H400l-3.74,3.71,3.76,4.08h-1.34l-3.51-3.88Z"/><path class="cls-2" d="M405.54,106.76a3,3,0,0,1-2.28,1.15,2.26,2.26,0,0,1-2.46-2.16c0-1.41,1.11-2.57,4.73-2.77v-.46a1.61,1.61,0,0,0-1.84-1.85,4.77,4.77,0,0,0-2.55.93l-.24-1a5.55,5.55,0,0,1,2.89-.94c1.8,0,2.81.82,2.79,2.79v3.74c0,.56.1.8.78.78l-.07.87c-1,.07-1.58-.34-1.7-1.1Zm0-3.06c-2.67.3-3.62.9-3.62,1.93A1.41,1.41,0,0,0,403.5,107a2.76,2.76,0,0,0,2-1Z"/><path class="cls-2" d="M314.47,126.91c-2.34,0-3.8-1.68-3.8-4.1a3.83,3.83,0,0,1,3.82-4.13,4.39,4.39,0,0,1,2.43.67l-.27,1a3.92,3.92,0,0,0-2.16-.63c-1.68,0-2.73,1.26-2.73,3.11s1.1,3.15,2.75,3.15a4.07,4.07,0,0,0,2.16-.65l.22,1A4.63,4.63,0,0,1,314.47,126.91Z"/><path class="cls-2" d="M319.32,122.92a2.76,2.76,0,0,0,2.72,3,4.2,4.2,0,0,0,2.26-.65l.21,1a4.81,4.81,0,0,1-2.5.66,3.73,3.73,0,0,1-3.76-4c0-2.45,1.56-4.19,3.67-4.19a2.68,2.68,0,0,1,2.84,2.88,4.89,4.89,0,0,1-.17,1.24l-5.27,0Zm4.39-.94c0-.08,0-.25,0-.34a1.78,1.78,0,0,0-1.87-2,2.51,2.51,0,0,0-2.46,2.36Z"/><path class="cls-2" d="M336.47,126.69v-5c0-1.36-.53-2-1.65-2a3.29,3.29,0,0,0-2.19,1,6.81,6.81,0,0,1,0,.7v5.3h-1.05v-5c0-1.36-.53-2-1.65-2a3.31,3.31,0,0,0-2.16.9v6.1h-1.05V118.9l1.05-.22v1.07a3.71,3.71,0,0,1,2.47-1.07,2.15,2.15,0,0,1,2.11,1.3,4,4,0,0,1,2.75-1.3c1.48,0,2.4,1,2.4,2.69v5.32Z"/><path class="cls-2" d="M340.49,122.92a2.76,2.76,0,0,0,2.72,3,4.26,4.26,0,0,0,2.26-.65l.2,1a4.76,4.76,0,0,1-2.5.66,3.73,3.73,0,0,1-3.76-4c0-2.45,1.57-4.19,3.68-4.19a2.68,2.68,0,0,1,2.84,2.88,4.89,4.89,0,0,1-.17,1.24l-5.27,0Zm4.38-.94a1.88,1.88,0,0,0,0-.34,1.79,1.79,0,0,0-1.87-2,2.52,2.52,0,0,0-2.47,2.36Z"/><path class="cls-2" d="M353.05,126.69v-5c0-1.36-.55-2-1.72-2a3.5,3.5,0,0,0-2.36,1.1v5.9h-1.06V118.9l1.06-.22V120a4,4,0,0,1,2.65-1.28,2.35,2.35,0,0,1,2.48,2.67v5.34Z"/><path class="cls-2" d="M358.64,126.94c-1.48,0-2.14-.81-2.09-2.44l.12-4.61-1.19-.07,0-.66,1.17-.27.05-1.77h1l-.05,1.82h2.6l-.05.93h-2.59l-.12,4.66c0,1,.33,1.46,1.14,1.46a4,4,0,0,0,1.5-.37l.18.92A4.28,4.28,0,0,1,358.64,126.94Z"/><path class="cls-2" d="M363.08,118.9v5c0,1.36.54,2,1.68,2a3.45,3.45,0,0,0,2.4-1.11v-5.9h1v7.79l-1,.22v-1.26a3.94,3.94,0,0,1-2.69,1.26,2.36,2.36,0,0,1-2.45-2.67V118.9Z"/><path class="cls-2" d="M404.76,34.19a4.93,4.93,0,0,1-2.55-.7l.29-1a4.27,4.27,0,0,0,2.3.71c.93,0,1.75-.46,1.75-1.31s-1-1.21-2-1.51-2.26-.85-2.26-2.21A2.36,2.36,0,0,1,405,26a5.31,5.31,0,0,1,2.36.58l-.31.95a4.68,4.68,0,0,0-2.12-.57c-.95,0-1.57.44-1.57,1.19s.92,1.15,1.93,1.46,2.29.83,2.29,2.27S406.33,34.19,404.76,34.19Z"/><path class="cls-2" d="M410.51,30.09V34h-1.06V22.51l1.06-.22v7.48h0l3.5-3.59h1.33l-3.74,3.71L415.39,34H414l-3.5-3.88Z"/><path class="cls-2" d="M416.83,34V22.51l1.06-.22V34Z"/><path class="cls-2" d="M420.9,30.2a2.76,2.76,0,0,0,2.72,3,4.23,4.23,0,0,0,2.26-.65l.2,1a4.76,4.76,0,0,1-2.5.66,3.73,3.73,0,0,1-3.76-4c0-2.45,1.57-4.19,3.68-4.19a2.69,2.69,0,0,1,2.84,2.88,4.89,4.89,0,0,1-.17,1.24l-5.27,0Zm4.38-.94a1.88,1.88,0,0,0,0-.34,1.79,1.79,0,0,0-1.87-2A2.52,2.52,0,0,0,421,29.28Z"/><path class="cls-2" d="M433.46,34v-5c0-1.36-.55-2-1.72-2a3.5,3.5,0,0,0-2.36,1.1V34h-1.06V26.18l1.06-.22v1.28A4,4,0,0,1,432,26a2.35,2.35,0,0,1,2.48,2.67V34Z"/><path class="cls-2" d="M437,34v-7.7l1.05-.22V34Zm.82-8.8H437l2-3.05h1.36Z"/><path class="cls-2" d="M441.51,30.09V34h-1.05V22.51l1.05-.22v7.48h0l3.5-3.59h1.33l-3.74,3.71L446.39,34h-1.34l-3.5-3.88Z"/><path class="cls-2" d="M450.92,34.19c-2.16,0-3.76-1.6-3.76-4.1A3.84,3.84,0,0,1,451,26c2.18,0,3.74,1.6,3.74,4.1A3.84,3.84,0,0,1,450.92,34.19Zm0-7.27c-1.65,0-2.74,1.3-2.74,3.14s1.11,3.18,2.76,3.18,2.73-1.31,2.73-3.15S452.6,26.92,451,26.92Z"/><path class="cls-2" d="M459.47,34h-1l-3.08-7.81h1.14L459,32.61l2.38-6.43h1.11Z"/><path class="cls-2" d="M467.05,33.89l-.63,1.68C465.71,37.47,465,38,463.9,38a3.69,3.69,0,0,1-1.51-.36l.33-1a2.48,2.48,0,0,0,1.18.34c.6,0,1-.32,1.6-1.8l.53-1.38-3-7.67h1.14l2.44,6.43,2.4-6.43h1.11Zm-.41-8.72h-.78l2-3.05h1.35Z"/><path class="cls-2" d="M478.56,26c2.11,0,3.48,1.67,3.48,4a3.85,3.85,0,0,1-3.84,4.15,5,5,0,0,1-1.9-.41v4.15h-1.06V26.15l1.06-.22v1A3.31,3.31,0,0,1,478.56,26Zm-2.26,6.62a3.26,3.26,0,0,0,1.95.61c1.67,0,2.71-1.34,2.71-3.18S480,27,478.39,27a3.14,3.14,0,0,0-2.09.87Z"/><path class="cls-2" d="M484,34V22.51l1.05-.22V34Z"/><path class="cls-2" d="M490.39,33.89l-.63,1.68c-.71,1.9-1.46,2.45-2.51,2.45a3.7,3.7,0,0,1-1.52-.36l.33-1a2.48,2.48,0,0,0,1.19.34c.59,0,1-.32,1.59-1.8l.53-1.38-3-7.67h1.14l2.44,6.43,2.4-6.43h1.11Z"/><path class="cls-2" d="M499.84,34v-5c0-1.36-.54-2-1.71-2a3.55,3.55,0,0,0-2.37,1.1V34h-1.05V26.18l1.05-.22v1.28A4,4,0,0,1,498.41,26a2.36,2.36,0,0,1,2.49,2.67V34Z"/><path class="cls-1" d="M156.05,66.49v3.4H153.6v-3.4h-3.37l.06-2.32h3.31v-3.4h2.45v3.4h3.31l.06,2.32Z"/><path class="cls-1" d="M335.91,66.49v3.4h-2.46v-3.4h-3.37l.06-2.32h3.31v-3.4h2.46v3.4h3.3l.06,2.32Z"/><path class="cls-1" d="M250,72.27l-1.48-1.5,4.18-4.08h-12.3V64.53h12.3l-4.18-4.08L250,59l6.66,6.66Z"/><path class="cls-3" d="M98.25,79.08c.35,5.32-1.69,11.38-9.36,13.67"/><polygon class="cls-2" points="90.24 89 90.9 89.36 89.14 92.61 92.52 94.13 92.21 94.81 88.1 92.96 90.24 89"/><path class="cls-3" d="M295.56,78.24c-.35,5.32,2.17,10.82,8.63,15.7"/><polygon class="cls-2" points="300.36 94.78 300.3 94.04 303.99 93.74 303.42 90.09 304.16 89.97 304.85 94.42 300.36 94.78"/><path class="cls-3" d="M381.49,46.19c1.42-5.14,5.61-9.51,13.32-12"/><polygon class="cls-2" points="393.47 37.95 392.81 37.59 394.55 34.33 391.17 32.84 391.47 32.15 395.59 33.97 393.47 37.95"/></svg>