<?xml version="1.0" encoding="UTF-8"?>
<svg id="Layer_1" data-name="Layer 1" xmlns="http://www.w3.org/2000/svg" viewBox="0 0 660 412.00757446">
  <defs>
    <style>
      .cls-1 {
        fill: #e4e7ed;
      }

      .cls-1, .cls-2 {
        stroke: #5f6875;
        stroke-miterlimit: 10;
        stroke-width: .5px;
      }

      .cls-3 {
        fill: #5f6875;
        stroke-width: 0px;
      }

      .cls-2 {
        fill: none;
      }
    </style>
  </defs>
  <rect class="cls-1" x="8.15202592" y="9.65518108" width="387" height="387"/>
  <rect class="cls-1" x="410.71607282" y="9.65518108" width="212" height="212"/>
  <rect class="cls-1" x="416.04336477" y="367.61901467" width="10" height="10"/>
  <g>
    <path class="cls-3" d="M23.09806322,31.35226927v-8.53125h2.625c.75,0,1.42089844.16894531,2.01269531.50683594s1.05371094.81835938,1.38574219,1.44140625.49804688,1.33105469.49804688,2.12402344v.39257812c0,.79296875-.16308594,1.49804688-.48925781,2.11523438s-.78613281,1.09570312-1.37988281,1.43554688-1.26367188.51171875-2.00976562.515625h-2.64257812ZM24.85587572,24.24484739v5.6953125h.84960938c.6875,0,1.21289062-.22460938,1.57617188-.67382812s.54882812-1.09179688.55664062-1.92773438v-.45117188c0-.8671875-.1796875-1.52441406-.5390625-1.97167969s-.88476562-.67089844-1.57617188-.67089844h-.8671875Z"/>
    <path class="cls-3" d="M30.52189134,28.12375364c0-.62890625.12109375-1.18945312.36328125-1.68164062s.59082031-.87304688,1.04589844-1.14257812.98339844-.40429688,1.58496094-.40429688c.85546875,0,1.55371094.26171875,2.09472656.78515625s.84277344,1.234375.90527344,2.1328125l.01171875.43359375c0,.97265625-.27148438,1.75292969-.81445312,2.34082031s-1.27148438.88183594-2.18554688.88183594-1.64355469-.29296875-2.18847656-.87890625-.81738281-1.3828125-.81738281-2.390625v-.07617188ZM32.21525072,28.24387083c0,.60253906.11328125,1.06347656.33984375,1.38183594.2265625.31933594.55078125.47851562.97265625.47851562.41015625,0,.73046875-.15722656.9609375-.47265625.23046875-.31445312.34570312-.81835938.34570312-1.51074219,0-.59082031-.11523438-1.04833984-.34570312-1.37304688s-.5546875-.48730469-.97265625-.48730469c-.4140625,0-.734375.16162109-.9609375.484375s-.33984375.82226562-.33984375,1.49902344Z"/>
    <path class="cls-3" d="M39.15861009,25.01242552l.05273438.70898438c.44921875-.55078125,1.05664062-.82617188,1.82226562-.82617188.81640625,0,1.37695312.32226562,1.68164062.96679688.4453125-.64453125,1.08007812-.96679688,1.90429688-.96679688.6875,0,1.19921875.20019531,1.53515625.60058594s.50390625,1.00292969.50390625,1.80761719v4.04882812h-1.69921875v-4.04296875c0-.359375-.0703125-.62207031-.2109375-.78808594s-.38867188-.24902344-.74414062-.24902344c-.5078125,0-.859375.2421875-1.0546875.7265625l.00585938,4.35351562h-1.69335938v-4.03710938c0-.3671875-.07226562-.6328125-.21679688-.796875s-.390625-.24609375-.73828125-.24609375c-.48046875,0-.828125.19921875-1.04296875.59765625v4.48242188h-1.69335938v-6.33984375h1.58789062Z"/>
    <path class="cls-3" d="M51.63321947,31.35226927c-.078125-.15234375-.13476562-.34179688-.16992188-.56835938-.41015625.45703125-.94335938.68554688-1.59960938.68554688-.62109375,0-1.13574219-.1796875-1.54394531-.5390625s-.61230469-.8125-.61230469-1.359375c0-.671875.24902344-1.1875.74707031-1.546875s1.21777344-.54101562,2.15917969-.54492188h.77929688v-.36328125c0-.29296875-.07519531-.52734375-.22558594-.703125s-.38769531-.26367188-.71191406-.26367188c-.28515625,0-.50878906.06835938-.67089844.20507812s-.24316406.32421875-.24316406.5625h-1.69335938c0-.3671875.11328125-.70703125.33984375-1.01953125s.546875-.55761719.9609375-.73535156.87890625-.26660156,1.39453125-.26660156c.78125,0,1.40136719.19628906,1.86035156.58886719s.68847656.94433594.68847656,1.65527344v2.74804688c.00390625.6015625.08789062,1.05664062.25195312,1.36523438v.09960938h-1.7109375ZM50.23282884,30.17453489c.25,0,.48046875-.05566406.69140625-.16699219s.3671875-.26074219.46875-.44824219v-1.08984375h-.6328125c-.84765625,0-1.29882812.29296875-1.35351562.87890625l-.00585938.09960938c0,.2109375.07421875.38476562.22265625.52148438s.3515625.20507812.609375.20507812ZM50.87736009,22.35226927h1.84570312l-1.62304688,1.81640625h-1.37695312l1.15429688-1.81640625Z"/>
    <path class="cls-3" d="M57.02970384,30.10422239c.3125,0,.56640625-.0859375.76171875-.2578125s.296875-.40039062.3046875-.68554688h1.58789062c-.00390625.4296875-.12109375.82324219-.3515625,1.18066406s-.54589844.63476562-.94628906.83203125-.84277344.29589844-1.32714844.29589844c-.90625,0-1.62109375-.28808594-2.14453125-.86425781s-.78515625-1.37207031-.78515625-2.38769531v-.11132812c0-.9765625.25976562-1.75585938.77929688-2.33789062s1.23242188-.87304688,2.13867188-.87304688c.79296875,0,1.42871094.22558594,1.90722656.67675781s.72167969,1.05175781.72949219,1.80175781h-1.58789062c-.0078125-.32958984-.109375-.59765625-.3046875-.80419922-.1953125-.20605469-.453125-.30908203-.7734375-.30908203-.39453125,0-.69238281.14404297-.89355469.43115234-.20117188.28759766-.30175781.75439453-.30175781,1.39990234v.17578125c0,.65332031.09960938,1.12304688.29882812,1.40869141s.50195312.42822266.90820312.42822266Z"/>
    <path class="cls-3" d="M62.20939134,25.01242552l.05273438.73242188c.453125-.56640625,1.06054688-.84960938,1.82226562-.84960938.671875,0,1.171875.19726562,1.5.59179688s.49609375.984375.50390625,1.76953125v4.09570312h-1.69335938v-4.0546875c0-.359375-.078125-.62011719-.234375-.78222656s-.41601562-.24316406-.77929688-.24316406c-.4765625,0-.83398438.203125-1.07226562.609375v4.47070312h-1.69335938v-6.33984375h1.59375Z"/>
    <path class="cls-3" d="M67.10782884,28.12375364c0-.62890625.12109375-1.18945312.36328125-1.68164062s.59082031-.87304688,1.04589844-1.14257812.98339844-.40429688,1.58496094-.40429688c.85546875,0,1.55371094.26171875,2.09472656.78515625s.84277344,1.234375.90527344,2.1328125l.01171875.43359375c0,.97265625-.27148438,1.75292969-.81445312,2.34082031s-1.27148438.88183594-2.18554688.88183594-1.64355469-.29296875-2.18847656-.87890625-.81738281-1.3828125-.81738281-2.390625v-.07617188ZM68.80118822,28.24387083c0,.60253906.11328125,1.06347656.33984375,1.38183594.2265625.31933594.55078125.47851562.97265625.47851562.41015625,0,.73046875-.15722656.9609375-.47265625.23046875-.31445312.34570312-.81835938.34570312-1.51074219,0-.59082031-.11523438-1.04833984-.34570312-1.37304688s-.5546875-.48730469-.97265625-.48730469c-.4140625,0-.734375.16162109-.9609375.484375s-.33984375.82226562-.33984375,1.49902344Z"/>
    <path class="cls-3" d="M77.59025072,29.60031614c0-.20703125-.10253906-.37011719-.30761719-.48925781s-.53417969-.22558594-.98730469-.31933594c-1.5078125-.31640625-2.26171875-.95703125-2.26171875-1.921875,0-.5625.23339844-1.03222656.70019531-1.40917969s1.07714844-.56542969,1.83105469-.56542969c.8046875,0,1.44824219.18945312,1.93066406.56835938s.72363281.87109375.72363281,1.4765625h-1.69335938c0-.2421875-.078125-.44238281-.234375-.60058594s-.40039062-.23730469-.73242188-.23730469c-.28515625,0-.50585938.06445312-.66210938.19335938s-.234375.29296875-.234375.4921875c0,.1875.08886719.33886719.26660156.45410156s.47753906.21484375.89941406.29882812.77734375.17871094,1.06640625.28417969c.89453125.328125,1.34179688.89648438,1.34179688,1.70507812,0,.578125-.24804688,1.04589844-.74414062,1.40332031s-1.13671875.53613281-1.921875.53613281c-.53125,0-1.00292969-.09472656-1.41503906-.28417969s-.73535156-.44921875-.96972656-.77929688-.3515625-.68652344-.3515625-1.06933594h1.60546875c.015625.30078125.12695312.53125.33398438.69140625s.484375.24023438.83203125.24023438c.32421875,0,.56933594-.06152344.73535156-.18457031s.24902344-.28417969.24902344-.48339844Z"/>
    <path class="cls-3" d="M82.35392259,23.45383177v1.55859375h1.08398438v1.2421875h-1.08398438v3.1640625c0,.234375.04492188.40234375.13476562.50390625s.26171875.15234375.515625.15234375c.1875,0,.35351562-.01367188.49804688-.04101562v1.28320312c-.33203125.1015625-.67382812.15234375-1.02539062.15234375-1.1875,0-1.79296875-.59960938-1.81640625-1.79882812v-3.41601562h-.92578125v-1.2421875h.92578125v-1.55859375h1.69335938Z"/>
    <path class="cls-3" d="M84.36954759,23.37180052c0-.25390625.08496094-.46289062.25488281-.62695312s.40136719-.24609375.69433594-.24609375c.2890625,0,.51953125.08203125.69140625.24609375s.2578125.37304688.2578125.62695312c0,.2578125-.08691406.46875-.26074219.6328125s-.40332031.24609375-.68847656.24609375-.51464844-.08203125-.68847656-.24609375-.26074219-.375-.26074219-.6328125ZM86.16837572,31.35226927h-1.69921875v-6.33984375h1.69921875v6.33984375Z"/>
    <path class="cls-3" d="M92.92423509,29.28390989l1.17773438-4.27148438h1.76953125l-2.13867188,6.33984375h-1.6171875l-2.13867188-6.33984375h1.76953125l1.17773438,4.27148438Z"/>
    <path class="cls-3" d="M101.47306322,28.34640989v3.00585938h-1.7578125v-8.53125h3.328125c.640625,0,1.20410156.1171875,1.69042969.3515625s.86035156.56738281,1.12207031.99902344.39257812.92285156.39257812,1.47363281c0,.8359375-.28613281,1.49511719-.85839844,1.97753906s-1.36425781.72363281-2.37597656.72363281h-1.54101562ZM101.47306322,26.92258177h1.5703125c.46484375,0,.81933594-.109375,1.06347656-.328125s.36621094-.53125.36621094-.9375c0-.41796875-.12304688-.75585938-.36914062-1.01367188s-.5859375-.390625-1.01953125-.3984375h-1.61132812v2.67773438Z"/>
    <path class="cls-3" d="M110.90665697,26.60031614c-.23046875-.03125-.43359375-.046875-.609375-.046875-.640625,0-1.06054688.21679688-1.25976562.65039062v4.1484375h-1.69335938v-6.33984375h1.59960938l.046875.75585938c.33984375-.58203125.81054688-.87304688,1.41210938-.87304688.1875,0,.36328125.02539062.52734375.07617188l-.0234375,1.62890625Z"/>
    <path class="cls-3" d="M115.21915697,31.35226927c-.078125-.15234375-.13476562-.34179688-.16992188-.56835938-.41015625.45703125-.94335938.68554688-1.59960938.68554688-.62109375,0-1.13574219-.1796875-1.54394531-.5390625s-.61230469-.8125-.61230469-1.359375c0-.671875.24902344-1.1875.74707031-1.546875s1.21777344-.54101562,2.15917969-.54492188h.77929688v-.36328125c0-.29296875-.07519531-.52734375-.22558594-.703125s-.38769531-.26367188-.71191406-.26367188c-.28515625,0-.50878906.06835938-.67089844.20507812s-.24316406.32421875-.24316406.5625h-1.69335938c0-.3671875.11328125-.70703125.33984375-1.01953125s.546875-.55761719.9609375-.73535156.87890625-.26660156,1.39453125-.26660156c.78125,0,1.40136719.19628906,1.86035156.58886719s.68847656.94433594.68847656,1.65527344v2.74804688c.00390625.6015625.08789062,1.05664062.25195312,1.36523438v.09960938h-1.7109375ZM113.81876634,30.17453489c.25,0,.48046875-.05566406.69140625-.16699219s.3671875-.26074219.46875-.44824219v-1.08984375h-.6328125c-.84765625,0-1.29882812.29296875-1.35351562.87890625l-.00585938.09960938c0,.2109375.07421875.38476562.22265625.52148438s.3515625.20507812.609375.20507812Z"/>
    <path class="cls-3" d="M119.92423509,29.98703489h3.09960938v1.36523438h-5.26171875v-1.03125l2.98242188-3.94335938h-2.89453125v-1.36523438h5.08007812v.99755859l-3.00585938,3.97705078Z"/>
    <path class="cls-3" d="M127.00236009,31.46945677c-.9296875,0-1.68652344-.28515625-2.27050781-.85546875s-.87597656-1.33007812-.87597656-2.27929688v-.1640625c0-.63671875.12304688-1.20605469.36914062-1.70800781s.59472656-.88867188,1.04589844-1.16015625.96582031-.40722656,1.54394531-.40722656c.8671875,0,1.54980469.2734375,2.04785156.8203125s.74707031,1.32226562.74707031,2.32617188v.69140625h-4.03710938c.0546875.4140625.21972656.74609375.49511719.99609375s.62402344.375,1.04589844.375c.65234375,0,1.16210938-.23632812,1.52929688-.70898438l.83203125.93164062c-.25390625.359375-.59765625.63964844-1.03125.84082031s-.9140625.30175781-1.44140625.30175781ZM126.80900072,26.26047239c-.3359375,0-.60839844.11376953-.81738281.34130859s-.34277344.55322266-.40136719.97705078h2.35546875v-.13525391c-.0078125-.37695312-.109375-.66796875-.3046875-.87402344s-.47265625-.30908203-.83203125-.30908203Z"/>
    <path class="cls-3" d="M25.87540697,45.75217161h-1.06640625l1.25390625-7.1953125-2.26757812.796875.18164062-1.03125,3.1640625-1.14257812h.1875l-1.453125,8.57226562Z"/>
    <path class="cls-3" d="M33.77140306,40.95920286l.703125.00585938c.515625,0,.95019531-.13574219,1.30371094-.40722656s.55566406-.63964844.60644531-1.10449219c.05078125-.453125-.03320312-.80957031-.25195312-1.06933594s-.53710938-.39355469-.95507812-.40136719c-.4453125-.0078125-.82324219.12207031-1.13378906.38964844s-.50097656.62792969-.57128906,1.08105469l-1.04882812.00585938c.06640625-.703125.36621094-1.27441406.89941406-1.71386719s1.16894531-.65527344,1.90722656-.64746094c.71484375.015625,1.27636719.23925781,1.68457031.67089844s.58496094,1.00097656.53027344,1.70800781c-.03515625.40234375-.18945312.76953125-.46289062,1.1015625s-.65234375.60742188-1.13671875.82617188c.38671875.15625.67578125.40332031.8671875.74121094s.27148438.73339844.24023438,1.18652344c-.0625.76953125-.36816406,1.38867188-.91699219,1.85742188s-1.21582031.6953125-2.00097656.6796875c-.73046875-.015625-1.3125-.2421875-1.74609375-.6796875s-.63476562-1.00195312-.60351562-1.69335938l1.06054688.00585938c-.0234375.4375.08203125.79003906.31640625,1.05761719s.57421875.40917969,1.01953125.42480469c.5.015625.91601562-.12695312,1.24804688-.42773438s.52148438-.703125.56835938-1.20703125c.04296875-.46484375-.0625-.82714844-.31640625-1.08691406s-.6328125-.39746094-1.13671875-.41308594l-.81445312-.00585938.140625-.88476562Z"/>
    <path class="cls-3" d="M39.21476244,41.45724974l1.08398438-4.23632812h4.25390625l-.15820312,1.00195312h-3.33984375l-.65625,2.33203125c.4296875-.25390625.89453125-.37695312,1.39453125-.36914062.70703125.0078125,1.25.27441406,1.62890625.79980469s.53320312,1.19433594.46289062,2.00683594c-.07421875.875-.38476562,1.578125-.93164062,2.109375s-1.22851562.7890625-2.04492188.7734375c-.6796875-.0078125-1.22851562-.2265625-1.64648438-.65625s-.63867188-1.00195312-.66210938-1.71679688h.99023438c.02734375.46875.16015625.83203125.3984375,1.08984375s.56054688.390625.96679688.3984375c.5.015625.92089844-.16210938,1.26269531-.53320312s.54394531-.85742188.60644531-1.45898438c.0546875-.52734375-.03710938-.96191406-.27539062-1.30371094s-.58789062-.52050781-1.04882812-.53613281c-.28515625-.0078125-.53808594.03515625-.75878906.12890625s-.44042969.22851562-.65917969.40429688l-.8671875-.234375Z"/>
    <path class="cls-3" d="M47.29484056,45.86935911c-.71875-.015625-1.2578125-.27050781-1.6171875-.76464844s-.5234375-1.20605469-.4921875-2.13574219c.0078125-.2890625.02929688-.57421875.06445312-.85546875l.2109375-1.42382812c.1875-1.21484375.54492188-2.12109375,1.07226562-2.71875s1.22265625-.88671875,2.0859375-.8671875c.7265625.015625,1.26855469.26464844,1.62597656.74707031s.52246094,1.18261719.49511719,2.10058594c-.01171875.29296875-.03515625.58007812-.0703125.86132812l-.20507812,1.37695312c-.20703125,1.28515625-.57226562,2.22460938-1.09570312,2.81835938s-1.21484375.88085938-2.07421875.86132812ZM49.64444994,40.61935911c.0546875-.47265625.08007812-.83984375.07617188-1.1015625-.01953125-.9921875-.40429688-1.50195312-1.15429688-1.52929688-.546875-.01953125-.98925781.18261719-1.32714844.60644531s-.57324219,1.08886719-.70605469,1.99511719l-.25195312,1.69921875c-.0546875.453125-.08007812.82226562-.07617188,1.10742188.01953125,1.03515625.40234375,1.56640625,1.1484375,1.59375.51953125.0234375.94824219-.16796875,1.28613281-.57421875s.57910156-1.05078125.72363281-1.93359375l.28125-1.86328125Z"/>
    <path class="cls-3" d="M56.2926433,45.86935911c-.71875-.015625-1.2578125-.27050781-1.6171875-.76464844s-.5234375-1.20605469-.4921875-2.13574219c.0078125-.2890625.02929688-.57421875.06445312-.85546875l.2109375-1.42382812c.1875-1.21484375.54492188-2.12109375,1.07226562-2.71875s1.22265625-.88671875,2.0859375-.8671875c.7265625.015625,1.26855469.26464844,1.62597656.74707031s.52246094,1.18261719.49511719,2.10058594c-.01171875.29296875-.03515625.58007812-.0703125.86132812l-.20507812,1.37695312c-.20703125,1.28515625-.57226562,2.22460938-1.09570312,2.81835938s-1.21484375.88085938-2.07421875.86132812ZM58.64225267,40.61935911c.0546875-.47265625.08007812-.83984375.07617188-1.1015625-.01953125-.9921875-.40429688-1.50195312-1.15429688-1.52929688-.546875-.01953125-.98925781.18261719-1.32714844.60644531s-.57324219,1.08886719-.70605469,1.99511719l-.25195312,1.69921875c-.0546875.453125-.08007812.82226562-.07617188,1.10742188.01953125,1.03515625.40234375,1.56640625,1.1484375,1.59375.51953125.0234375.94824219-.16796875,1.28613281-.57421875s.57910156-1.05078125.72363281-1.93359375l.28125-1.86328125Z"/>
    <path class="cls-3" d="M62.89029955,45.86935911c-.71875-.015625-1.2578125-.27050781-1.6171875-.76464844s-.5234375-1.20605469-.4921875-2.13574219c.0078125-.2890625.02929688-.57421875.06445312-.85546875l.2109375-1.42382812c.1875-1.21484375.54492188-2.12109375,1.07226562-2.71875s1.22265625-.88671875,2.0859375-.8671875c.7265625.015625,1.26855469.26464844,1.62597656.74707031s.52246094,1.18261719.49511719,2.10058594c-.01171875.29296875-.03515625.58007812-.0703125.86132812l-.20507812,1.37695312c-.20703125,1.28515625-.57226562,2.22460938-1.09570312,2.81835938s-1.21484375.88085938-2.07421875.86132812ZM65.23990892,40.61935911c.0546875-.47265625.08007812-.83984375.07617188-1.1015625-.01953125-.9921875-.40429688-1.50195312-1.15429688-1.52929688-.546875-.01953125-.98925781.18261719-1.32714844.60644531s-.57324219,1.08886719-.70605469,1.99511719l-.25195312,1.69921875c-.0546875.453125-.08007812.82226562-.07617188,1.10742188.01953125,1.03515625.40234375,1.56640625,1.1484375,1.59375.51953125.0234375.94824219-.16796875,1.28613281-.57421875s.57910156-1.05078125.72363281-1.93359375l.28125-1.86328125Z"/>
    <path class="cls-3" d="M69.4879558,45.86935911c-.71875-.015625-1.2578125-.27050781-1.6171875-.76464844s-.5234375-1.20605469-.4921875-2.13574219c.0078125-.2890625.02929688-.57421875.06445312-.85546875l.2109375-1.42382812c.1875-1.21484375.54492188-2.12109375,1.07226562-2.71875s1.22265625-.88671875,2.0859375-.8671875c.7265625.015625,1.26855469.26464844,1.62597656.74707031s.52246094,1.18261719.49511719,2.10058594c-.01171875.29296875-.03515625.58007812-.0703125.86132812l-.20507812,1.37695312c-.20703125,1.28515625-.57226562,2.22460938-1.09570312,2.81835938s-1.21484375.88085938-2.07421875.86132812ZM71.83756517,40.61935911c.0546875-.47265625.08007812-.83984375.07617188-1.1015625-.01953125-.9921875-.40429688-1.50195312-1.15429688-1.52929688-.546875-.01953125-.98925781.18261719-1.32714844.60644531s-.57324219,1.08886719-.70605469,1.99511719l-.25195312,1.69921875c-.0546875.453125-.08007812.82226562-.07617188,1.10742188.01953125,1.03515625.40234375,1.56640625,1.1484375,1.59375.51953125.0234375.94824219-.16796875,1.28613281-.57421875s.57910156-1.05078125.72363281-1.93359375l.28125-1.86328125Z"/>
    <path class="cls-3" d="M79.9645183,39.29514036c.53125.0078125.98632812.15234375,1.36523438.43359375s.65917969.66894531.84082031,1.16308594.24316406,1.03417969.18457031,1.62011719l-.01171875.12890625c-.07421875.6171875-.2578125,1.17480469-.55078125,1.67285156s-.671875.88574219-1.13671875,1.16308594-.97460938.40820312-1.52929688.39257812c-.52734375-.0078125-.98144531-.15234375-1.36230469-.43359375s-.65917969-.6640625-.83496094-1.1484375-.23828125-1.01757812-.1875-1.59960938c.05859375-.65625.23632812-1.24609375.53320312-1.76953125s.67871094-.92871094,1.14550781-1.21582031.98144531-.42285156,1.54394531-.40722656ZM77.8082683,42.69357786c-.02734375.24609375-.02734375.50195312,0,.76757812.0390625.4609375.17675781.828125.41308594,1.1015625s.55175781.41601562.94628906.42773438c.3515625.01171875.67578125-.07519531.97265625-.26074219s.546875-.46582031.75-.84082031.33398438-.79101562.39257812-1.24804688c.03125-.359375.03710938-.66210938.01757812-.90820312-.046875-.47265625-.18945312-.84570312-.42773438-1.11914062s-.5546875-.41796875-.94921875-.43359375c-.546875-.01171875-1.01171875.203125-1.39453125.64453125s-.61914062,1.01953125-.70898438,1.734375l-.01171875.13476562Z"/>
    <path class="cls-3" d="M88.8942058,42.61154661c-.078125.6484375-.25585938,1.23242188-.53320312,1.75195312s-.61328125.90429688-1.0078125,1.15429688-.83203125.36914062-1.3125.35742188c-.765625-.015625-1.33398438-.30273438-1.70507812-.86132812l-.21679688.73828125h-.97851562l1.56445312-9h1.06054688l-.63867188,3.36328125c.5078125-.5625,1.125-.8359375,1.8515625-.8203125.609375.015625,1.08398438.24023438,1.42382812.67382812s.51953125,1.03125.5390625,1.79296875c.00390625.25-.0078125.4921875-.03515625.7265625l-.01171875.12304688ZM87.8863933,42.00021849c.01171875-.56982422-.08398438-1.00585938-.28710938-1.30810547s-.51367188-.46142578-.93164062-.47705078c-.66015625-.015625-1.21875.31591797-1.67578125.99511719l-.47460938,2.75585938c.234375.64404297.67382812.97363281,1.31835938.98925781.4140625.015625.77636719-.10742188,1.08691406-.36865234s.54589844-.62695312.70605469-1.09716797.24609375-.96679688.2578125-1.48925781Z"/>
    <path class="cls-3" d="M92.00553392,44.15256224l2.25585938-4.74023438h1.171875l-3.76171875,7.39453125c-.5234375,1.02734375-1.1953125,1.53515625-2.015625,1.5234375-.14453125-.00390625-.35742188-.0390625-.63867188-.10546875l.09375-.87890625.27539062.02929688c.3359375.015625.62597656-.05957031.87011719-.22558594s.45996094-.43457031.64746094-.80566406l.38085938-.7265625-1.09570312-6.20507812h1.10742188l.70898438,4.74023438Z"/>
    <path class="cls-3" d="M97.60123705,44.26974974l2.28515625-4.85742188h1.11914062l-3.19335938,6.33984375h-.80859375l-1.2421875-6.33984375h1.04296875l.796875,4.85742188Z"/>
    <path class="cls-3" d="M104.7848308,45.75217161c-.02734375-.11328125-.04101562-.22460938-.04101562-.33398438l.01757812-.33398438c-.58203125.5390625-1.19921875.80078125-1.8515625.78515625-.55859375-.0078125-1.01269531-.18457031-1.36230469-.53027344s-.50878906-.77832031-.47753906-1.29785156c.0390625-.671875.33300781-1.19628906.88183594-1.57324219s1.27050781-.56542969,2.16503906-.56542969l1.10742188.00585938.0703125-.50390625c.0390625-.37890625-.03417969-.67871094-.21972656-.89941406s-.46386719-.33496094-.83496094-.34277344c-.36328125-.0078125-.68457031.08105469-.96386719.26660156s-.45019531.43066406-.51269531.73535156l-1.06640625.00585938c.03515625-.37109375.1796875-.70019531.43359375-.98730469s.58007812-.50976562.97851562-.66796875.81054688-.23339844,1.23632812-.22558594c.66015625.015625,1.17382812.21582031,1.54101562.60058594s.52148438.89550781.46289062,1.53222656l-.515625,3.140625-.02929688.45117188c-.0078125.21484375.015625.42773438.0703125.63867188l-.01171875.09960938h-1.078125ZM103.1207683,44.93185911c.33984375.0078125.66113281-.07324219.96386719-.24316406s.56347656-.40527344.78222656-.70605469l.22851562-1.30664062-.80273438-.00585938c-.66796875,0-1.1796875.10546875-1.53515625.31640625s-.55664062.50976562-.60351562.89648438c-.03515625.296875.03417969.54394531.20800781.74121094s.42675781.29980469.75878906.30761719Z"/>
    <path class="cls-3" d="M110.09928392,37.87717161l-.26953125,1.53515625h1.15429688l-.14648438.83789062h-1.1484375l-.66210938,3.94335938c-.01171875.1015625-.01367188.1953125-.00585938.28125.02734375.3046875.19335938.45703125.49804688.45703125.12890625,0,.30078125-.01953125.515625-.05859375l-.08203125.88476562c-.25390625.0703125-.51171875.10546875-.7734375.10546875-.421875-.0078125-.73828125-.16308594-.94921875-.46582031s-.29296875-.70996094-.24609375-1.22167969l.64453125-3.92578125h-1.11914062l.14648438-.83789062h1.11914062l.26953125-1.53515625h1.0546875Z"/>
    <path class="cls-3" d="M113.9020183,45.86935911c-.7890625-.015625-1.40625-.30664062-1.8515625-.87304688s-.6328125-1.29101562-.5625-2.17382812l.02929688-.25195312c.06640625-.62890625.25292969-1.203125.55957031-1.72265625s.68066406-.91113281,1.12207031-1.17480469.91796875-.38964844,1.4296875-.37792969c.65234375.015625,1.1640625.23242188,1.53515625.65039062s.57421875.984375.609375,1.69921875c.01171875.25390625.00390625.5078125-.0234375.76171875l-.06445312.48632812h-4.14257812c-.0703125.57421875.02441406,1.0625.28417969,1.46484375s.64746094.61132812,1.16308594.62695312c.625.015625,1.203125-.265625,1.734375-.84375l.609375.515625c-.265625.3828125-.60839844.68261719-1.02832031.89941406s-.88769531.32128906-1.40332031.31347656ZM114.57584642,40.17990599c-.4375-.01171875-.81933594.13671875-1.14550781.4453125s-.58496094.76757812-.77636719,1.37695312l3.08203125.00585938.0234375-.09375c.0625-.4921875-.01660156-.90136719-.23730469-1.22753906s-.53613281-.49511719-.94628906-.50683594Z"/>
    <path class="cls-3" d="M118.53092455,45.75217161h-1.0546875l1.55859375-9h1.06054688l-1.56445312,9Z"/>
  </g>
  <g>
    <path class="cls-3" d="M422.87296556,28.08810911v-8.53125h2.625c.75,0,1.42089844.16894531,2.01269531.50683594s1.05371094.81835938,1.38574219,1.44140625.49804688,1.33105469.49804688,2.12402344v.39257812c0,.79296875-.16308594,1.49804688-.48925781,2.11523438s-.78613281,1.09570312-1.37988281,1.43554688-1.26367188.51171875-2.00976562.515625h-2.64257812ZM424.63077806,20.98068724v5.6953125h.84960938c.6875,0,1.21289062-.22460938,1.57617188-.67382812s.54882812-1.09179688.55664062-1.92773438v-.45117188c0-.8671875-.1796875-1.52441406-.5390625-1.97167969s-.88476562-.67089844-1.57617188-.67089844h-.8671875Z"/>
    <path class="cls-3" d="M430.29679369,24.85959349c0-.62890625.12109375-1.18945312.36328125-1.68164062s.59082031-.87304688,1.04589844-1.14257812.98339844-.40429688,1.58496094-.40429688c.85546875,0,1.55371094.26171875,2.09472656.78515625s.84277344,1.234375.90527344,2.1328125l.01171875.43359375c0,.97265625-.27148438,1.75292969-.81445312,2.34082031s-1.27148438.88183594-2.18554688.88183594-1.64355469-.29296875-2.18847656-.87890625-.81738281-1.3828125-.81738281-2.390625v-.07617188ZM431.99015306,24.97971067c0,.60253906.11328125,1.06347656.33984375,1.38183594.2265625.31933594.55078125.47851562.97265625.47851562.41015625,0,.73046875-.15722656.9609375-.47265625.23046875-.31445312.34570312-.81835938.34570312-1.51074219,0-.59082031-.11523438-1.04833984-.34570312-1.37304688s-.5546875-.48730469-.97265625-.48730469c-.4140625,0-.734375.16162109-.9609375.484375s-.33984375.82226562-.33984375,1.49902344Z"/>
    <path class="cls-3" d="M438.93351244,21.74826536l.05273438.70898438c.44921875-.55078125,1.05664062-.82617188,1.82226562-.82617188.81640625,0,1.37695312.32226562,1.68164062.96679688.4453125-.64453125,1.08007812-.96679688,1.90429688-.96679688.6875,0,1.19921875.20019531,1.53515625.60058594s.50390625,1.00292969.50390625,1.80761719v4.04882812h-1.69921875v-4.04296875c0-.359375-.0703125-.62207031-.2109375-.78808594s-.38867188-.24902344-.74414062-.24902344c-.5078125,0-.859375.2421875-1.0546875.7265625l.00585938,4.35351562h-1.69335938v-4.03710938c0-.3671875-.07226562-.6328125-.21679688-.796875s-.390625-.24609375-.73828125-.24609375c-.48046875,0-.828125.19921875-1.04296875.59765625v4.48242188h-1.69335938v-6.33984375h1.58789062Z"/>
    <path class="cls-3" d="M451.40812181,28.08810911c-.078125-.15234375-.13476562-.34179688-.16992188-.56835938-.41015625.45703125-.94335938.68554688-1.59960938.68554688-.62109375,0-1.13574219-.1796875-1.54394531-.5390625s-.61230469-.8125-.61230469-1.359375c0-.671875.24902344-1.1875.74707031-1.546875s1.21777344-.54101562,2.15917969-.54492188h.77929688v-.36328125c0-.29296875-.07519531-.52734375-.22558594-.703125s-.38769531-.26367188-.71191406-.26367188c-.28515625,0-.50878906.06835938-.67089844.20507812s-.24316406.32421875-.24316406.5625h-1.69335938c0-.3671875.11328125-.70703125.33984375-1.01953125s.546875-.55761719.9609375-.73535156.87890625-.26660156,1.39453125-.26660156c.78125,0,1.40136719.19628906,1.86035156.58886719s.68847656.94433594.68847656,1.65527344v2.74804688c.00390625.6015625.08789062,1.05664062.25195312,1.36523438v.09960938h-1.7109375ZM450.00773119,26.91037474c.25,0,.48046875-.05566406.69140625-.16699219s.3671875-.26074219.46875-.44824219v-1.08984375h-.6328125c-.84765625,0-1.29882812.29296875-1.35351562.87890625l-.00585938.09960938c0,.2109375.07421875.38476562.22265625.52148438s.3515625.20507812.609375.20507812ZM450.65226244,19.08810911h1.84570312l-1.62304688,1.81640625h-1.37695312l1.15429688-1.81640625Z"/>
    <path class="cls-3" d="M456.80460619,26.84006224c.3125,0,.56640625-.0859375.76171875-.2578125s.296875-.40039062.3046875-.68554688h1.58789062c-.00390625.4296875-.12109375.82324219-.3515625,1.18066406s-.54589844.63476562-.94628906.83203125-.84277344.29589844-1.32714844.29589844c-.90625,0-1.62109375-.28808594-2.14453125-.86425781s-.78515625-1.37207031-.78515625-2.38769531v-.11132812c0-.9765625.25976562-1.75585938.77929688-2.33789062s1.23242188-.87304688,2.13867188-.87304688c.79296875,0,1.42871094.22558594,1.90722656.67675781s.72167969,1.05175781.72949219,1.80175781h-1.58789062c-.0078125-.32958984-.109375-.59765625-.3046875-.80419922-.1953125-.20605469-.453125-.30908203-.7734375-.30908203-.39453125,0-.69238281.14404297-.89355469.43115234-.20117188.28759766-.30175781.75439453-.30175781,1.39990234v.17578125c0,.65332031.09960938,1.12304688.29882812,1.40869141s.50195312.42822266.90820312.42822266Z"/>
    <path class="cls-3" d="M461.98429369,21.74826536l.05273438.73242188c.453125-.56640625,1.06054688-.84960938,1.82226562-.84960938.671875,0,1.171875.19726562,1.5.59179688s.49609375.984375.50390625,1.76953125v4.09570312h-1.69335938v-4.0546875c0-.359375-.078125-.62011719-.234375-.78222656s-.41601562-.24316406-.77929688-.24316406c-.4765625,0-.83398438.203125-1.07226562.609375v4.47070312h-1.69335938v-6.33984375h1.59375Z"/>
    <path class="cls-3" d="M466.88273119,24.85959349c0-.62890625.12109375-1.18945312.36328125-1.68164062s.59082031-.87304688,1.04589844-1.14257812.98339844-.40429688,1.58496094-.40429688c.85546875,0,1.55371094.26171875,2.09472656.78515625s.84277344,1.234375.90527344,2.1328125l.01171875.43359375c0,.97265625-.27148438,1.75292969-.81445312,2.34082031s-1.27148438.88183594-2.18554688.88183594-1.64355469-.29296875-2.18847656-.87890625-.81738281-1.3828125-.81738281-2.390625v-.07617188ZM468.57609056,24.97971067c0,.60253906.11328125,1.06347656.33984375,1.38183594.2265625.31933594.55078125.47851562.97265625.47851562.41015625,0,.73046875-.15722656.9609375-.47265625.23046875-.31445312.34570312-.81835938.34570312-1.51074219,0-.59082031-.11523438-1.04833984-.34570312-1.37304688s-.5546875-.48730469-.97265625-.48730469c-.4140625,0-.734375.16162109-.9609375.484375s-.33984375.82226562-.33984375,1.49902344Z"/>
    <path class="cls-3" d="M477.36515306,26.33615599c0-.20703125-.10253906-.37011719-.30761719-.48925781s-.53417969-.22558594-.98730469-.31933594c-1.5078125-.31640625-2.26171875-.95703125-2.26171875-1.921875,0-.5625.23339844-1.03222656.70019531-1.40917969s1.07714844-.56542969,1.83105469-.56542969c.8046875,0,1.44824219.18945312,1.93066406.56835938s.72363281.87109375.72363281,1.4765625h-1.69335938c0-.2421875-.078125-.44238281-.234375-.60058594s-.40039062-.23730469-.73242188-.23730469c-.28515625,0-.50585938.06445312-.66210938.19335938s-.234375.29296875-.234375.4921875c0,.1875.08886719.33886719.26660156.45410156s.47753906.21484375.89941406.29882812.77734375.17871094,1.06640625.28417969c.89453125.328125,1.34179688.89648438,1.34179688,1.70507812,0,.578125-.24804688,1.04589844-.74414062,1.40332031s-1.13671875.53613281-1.921875.53613281c-.53125,0-1.00292969-.09472656-1.41503906-.28417969s-.73535156-.44921875-.96972656-.77929688-.3515625-.68652344-.3515625-1.06933594h1.60546875c.015625.30078125.12695312.53125.33398438.69140625s.484375.24023438.83203125.24023438c.32421875,0,.56933594-.06152344.73535156-.18457031s.24902344-.28417969.24902344-.48339844Z"/>
    <path class="cls-3" d="M482.12882494,20.18967161v1.55859375h1.08398438v1.2421875h-1.08398438v3.1640625c0,.234375.04492188.40234375.13476562.50390625s.26171875.15234375.515625.15234375c.1875,0,.35351562-.01367188.49804688-.04101562v1.28320312c-.33203125.1015625-.67382812.15234375-1.02539062.15234375-1.1875,0-1.79296875-.59960938-1.81640625-1.79882812v-3.41601562h-.92578125v-1.2421875h.92578125v-1.55859375h1.69335938Z"/>
    <path class="cls-3" d="M484.14444994,20.10764036c0-.25390625.08496094-.46289062.25488281-.62695312s.40136719-.24609375.69433594-.24609375c.2890625,0,.51953125.08203125.69140625.24609375s.2578125.37304688.2578125.62695312c0,.2578125-.08691406.46875-.26074219.6328125s-.40332031.24609375-.68847656.24609375-.51464844-.08203125-.68847656-.24609375-.26074219-.375-.26074219-.6328125ZM485.94327806,28.08810911h-1.69921875v-6.33984375h1.69921875v6.33984375Z"/>
    <path class="cls-3" d="M492.69913744,26.01974974l1.17773438-4.27148438h1.76953125l-2.13867188,6.33984375h-1.6171875l-2.13867188-6.33984375h1.76953125l1.17773438,4.27148438Z"/>
    <path class="cls-3" d="M499.49015306,28.08810911v-8.53125h2.98828125c1.03515625,0,1.8203125.19824219,2.35546875.59472656s.80273438.97753906.80273438,1.74316406c0,.41796875-.10742188.78613281-.32226562,1.10449219s-.51367188.55175781-.89648438.70019531c.4375.109375.78222656.33007812,1.03417969.66210938s.37792969.73828125.37792969,1.21875c0,.8203125-.26171875,1.44140625-.78515625,1.86328125s-1.26953125.63671875-2.23828125.64453125h-3.31640625ZM501.24796556,23.13107786h1.30078125c.88671875-.015625,1.33007812-.36914062,1.33007812-1.06054688,0-.38671875-.11230469-.66503906-.33691406-.83496094s-.57910156-.25488281-1.06347656-.25488281h-1.23046875v2.15039062ZM501.24796556,24.37326536v2.30273438h1.50585938c.4140625,0,.73730469-.09863281.96972656-.29589844s.34863281-.46972656.34863281-.81738281c0-.78125-.40429688-1.17773438-1.21289062-1.18945312h-1.61132812Z"/>
    <path class="cls-3" d="M510.59952806,23.33615599c-.23046875-.03125-.43359375-.046875-.609375-.046875-.640625,0-1.06054688.21679688-1.25976562.65039062v4.1484375h-1.69335938v-6.33984375h1.59960938l.046875.75585938c.33984375-.58203125.81054688-.87304688,1.41210938-.87304688.1875,0,.36328125.02539062.52734375.07617188l-.0234375,1.62890625Z"/>
    <path class="cls-3" d="M512.97257494,21.74826536l.05273438.73242188c.453125-.56640625,1.06054688-.84960938,1.82226562-.84960938.671875,0,1.171875.19726562,1.5.59179688s.49609375.984375.50390625,1.76953125v4.09570312h-1.69335938v-4.0546875c0-.359375-.078125-.62011719-.234375-.78222656s-.41601562-.24316406-.77929688-.24316406c-.4765625,0-.83398438.203125-1.07226562.609375v4.47070312h-1.69335938v-6.33984375h1.59375Z"/>
    <path class="cls-3" d="M521.05265306,28.20529661c-.9296875,0-1.68652344-.28515625-2.27050781-.85546875s-.87597656-1.33007812-.87597656-2.27929688v-.1640625c0-.63671875.12304688-1.20605469.36914062-1.70800781s.59472656-.88867188,1.04589844-1.16015625.96582031-.40722656,1.54394531-.40722656c.8671875,0,1.54980469.2734375,2.04785156.8203125s.74707031,1.32226562.74707031,2.32617188v.69140625h-4.03710938c.0546875.4140625.21972656.74609375.49511719.99609375s.62402344.375,1.04589844.375c.65234375,0,1.16210938-.23632812,1.52929688-.70898438l.83203125.93164062c-.25390625.359375-.59765625.63964844-1.03125.84082031s-.9140625.30175781-1.44140625.30175781ZM520.67179369,19.92014036l.85546875-.83789062h1.44726562v.06445312l-1.76953125,1.64648438h-1.07226562l-1.76953125-1.65820312v-.05273438h1.44726562l.86132812.83789062ZM520.85929369,22.99631224c-.3359375,0-.60839844.11376953-.81738281.34130859s-.34277344.55322266-.40136719.97705078h2.35546875v-.13525391c-.0078125-.37695312-.109375-.66796875-.3046875-.87402344s-.47265625-.30908203-.83203125-.30908203Z"/>
    <path class="cls-3" d="M427.13273119,39.62277708h1.1484375l-.15820312.88476562h-1.14257812l-.34570312,1.98046875h-1.06640625l.34570312-1.98046875h-3.7734375l.12304688-.69726562,4.6875-5.85351562h1.16015625l-.97851562,5.66601562ZM423.53507494,39.62277708h2.53125l.76171875-4.1953125-.16992188.24609375-3.12304688,3.94921875Z"/>
    <path class="cls-3" d="M431.47452806,42.60519896c-.71875-.015625-1.2578125-.27050781-1.6171875-.76464844s-.5234375-1.20605469-.4921875-2.13574219c.0078125-.2890625.02929688-.57421875.06445312-.85546875l.2109375-1.42382812c.1875-1.21484375.54492188-2.12109375,1.07226562-2.71875s1.22265625-.88671875,2.0859375-.8671875c.7265625.015625,1.26855469.26464844,1.62597656.74707031s.52246094,1.18261719.49511719,2.10058594c-.01171875.29296875-.03515625.58007812-.0703125.86132812l-.20507812,1.37695312c-.20703125,1.28515625-.57226562,2.22460938-1.09570312,2.81835938s-1.21484375.88085938-2.07421875.86132812ZM433.82413744,37.35519896c.0546875-.47265625.08007812-.83984375.07617188-1.1015625-.01953125-.9921875-.40429688-1.50195312-1.15429688-1.52929688-.546875-.01953125-.98925781.18261719-1.32714844.60644531s-.57324219,1.08886719-.70605469,1.99511719l-.25195312,1.69921875c-.0546875.453125-.08007812.82226562-.07617188,1.10742188.01953125,1.03515625.40234375,1.56640625,1.1484375,1.59375.51953125.0234375.94824219-.16796875,1.28613281-.57421875s.57910156-1.05078125.72363281-1.93359375l.28125-1.86328125Z"/>
    <path class="cls-3" d="M438.07218431,42.60519896c-.71875-.015625-1.2578125-.27050781-1.6171875-.76464844s-.5234375-1.20605469-.4921875-2.13574219c.0078125-.2890625.02929688-.57421875.06445312-.85546875l.2109375-1.42382812c.1875-1.21484375.54492188-2.12109375,1.07226562-2.71875s1.22265625-.88671875,2.0859375-.8671875c.7265625.015625,1.26855469.26464844,1.62597656.74707031s.52246094,1.18261719.49511719,2.10058594c-.01171875.29296875-.03515625.58007812-.0703125.86132812l-.20507812,1.37695312c-.20703125,1.28515625-.57226562,2.22460938-1.09570312,2.81835938s-1.21484375.88085938-2.07421875.86132812ZM440.42179369,37.35519896c.0546875-.47265625.08007812-.83984375.07617188-1.1015625-.01953125-.9921875-.40429688-1.50195312-1.15429688-1.52929688-.546875-.01953125-.98925781.18261719-1.32714844.60644531s-.57324219,1.08886719-.70605469,1.99511719l-.25195312,1.69921875c-.0546875.453125-.08007812.82226562-.07617188,1.10742188.01953125,1.03515625.40234375,1.56640625,1.1484375,1.59375.51953125.0234375.94824219-.16796875,1.28613281-.57421875s.57910156-1.05078125.72363281-1.93359375l.28125-1.86328125Z"/>
    <path class="cls-3" d="M447.0697429,42.60519896c-.71875-.015625-1.2578125-.27050781-1.6171875-.76464844s-.5234375-1.20605469-.4921875-2.13574219c.0078125-.2890625.02929688-.57421875.06445312-.85546875l.2109375-1.42382812c.1875-1.21484375.54492188-2.12109375,1.07226562-2.71875s1.22265625-.88671875,2.0859375-.8671875c.7265625.015625,1.26855469.26464844,1.62597656.74707031s.52246094,1.18261719.49511719,2.10058594c-.01171875.29296875-.03515625.58007812-.0703125.86132812l-.20507812,1.37695312c-.20703125,1.28515625-.57226562,2.22460938-1.09570312,2.81835938s-1.21484375.88085938-2.07421875.86132812ZM449.41935228,37.35519896c.0546875-.47265625.08007812-.83984375.07617188-1.1015625-.01953125-.9921875-.40429688-1.50195312-1.15429688-1.52929688-.546875-.01953125-.98925781.18261719-1.32714844.60644531s-.57324219,1.08886719-.70605469,1.99511719l-.25195312,1.69921875c-.0546875.453125-.08007812.82226562-.07617188,1.10742188.01953125,1.03515625.40234375,1.56640625,1.1484375,1.59375.51953125.0234375.94824219-.16796875,1.28613281-.57421875s.57910156-1.05078125.72363281-1.93359375l.28125-1.86328125Z"/>
    <path class="cls-3" d="M453.66739915,42.60519896c-.71875-.015625-1.2578125-.27050781-1.6171875-.76464844s-.5234375-1.20605469-.4921875-2.13574219c.0078125-.2890625.02929688-.57421875.06445312-.85546875l.2109375-1.42382812c.1875-1.21484375.54492188-2.12109375,1.07226562-2.71875s1.22265625-.88671875,2.0859375-.8671875c.7265625.015625,1.26855469.26464844,1.62597656.74707031s.52246094,1.18261719.49511719,2.10058594c-.01171875.29296875-.03515625.58007812-.0703125.86132812l-.20507812,1.37695312c-.20703125,1.28515625-.57226562,2.22460938-1.09570312,2.81835938s-1.21484375.88085938-2.07421875.86132812ZM456.01700853,37.35519896c.0546875-.47265625.08007812-.83984375.07617188-1.1015625-.01953125-.9921875-.40429688-1.50195312-1.15429688-1.52929688-.546875-.01953125-.98925781.18261719-1.32714844.60644531s-.57324219,1.08886719-.70605469,1.99511719l-.25195312,1.69921875c-.0546875.453125-.08007812.82226562-.07617188,1.10742188.01953125,1.03515625.40234375,1.56640625,1.1484375,1.59375.51953125.0234375.94824219-.16796875,1.28613281-.57421875s.57910156-1.05078125.72363281-1.93359375l.28125-1.86328125Z"/>
    <path class="cls-3" d="M460.2650554,42.60519896c-.71875-.015625-1.2578125-.27050781-1.6171875-.76464844s-.5234375-1.20605469-.4921875-2.13574219c.0078125-.2890625.02929688-.57421875.06445312-.85546875l.2109375-1.42382812c.1875-1.21484375.54492188-2.12109375,1.07226562-2.71875s1.22265625-.88671875,2.0859375-.8671875c.7265625.015625,1.26855469.26464844,1.62597656.74707031s.52246094,1.18261719.49511719,2.10058594c-.01171875.29296875-.03515625.58007812-.0703125.86132812l-.20507812,1.37695312c-.20703125,1.28515625-.57226562,2.22460938-1.09570312,2.81835938s-1.21484375.88085938-2.07421875.86132812ZM462.61466478,37.35519896c.0546875-.47265625.08007812-.83984375.07617188-1.1015625-.01953125-.9921875-.40429688-1.50195312-1.15429688-1.52929688-.546875-.01953125-.98925781.18261719-1.32714844.60644531s-.57324219,1.08886719-.70605469,1.99511719l-.25195312,1.69921875c-.0546875.453125-.08007812.82226562-.07617188,1.10742188.01953125,1.03515625.40234375,1.56640625,1.1484375,1.59375.51953125.0234375.94824219-.16796875,1.28613281-.57421875s.57910156-1.05078125.72363281-1.93359375l.28125-1.86328125Z"/>
    <path class="cls-3" d="M470.7416179,36.03098021c.53125.0078125.98632812.15234375,1.36523438.43359375s.65917969.66894531.84082031,1.16308594.24316406,1.03417969.18457031,1.62011719l-.01171875.12890625c-.07421875.6171875-.2578125,1.17480469-.55078125,1.67285156s-.671875.88574219-1.13671875,1.16308594-.97460938.40820312-1.52929688.39257812c-.52734375-.0078125-.98144531-.15234375-1.36230469-.43359375s-.65917969-.6640625-.83496094-1.1484375-.23828125-1.01757812-.1875-1.59960938c.05859375-.65625.23632812-1.24609375.53320312-1.76953125s.67871094-.92871094,1.14550781-1.21582031.98144531-.42285156,1.54394531-.40722656ZM468.5853679,39.42941771c-.02734375.24609375-.02734375.50195312,0,.76757812.0390625.4609375.17675781.828125.41308594,1.1015625s.55175781.41601562.94628906.42773438c.3515625.01171875.67578125-.07519531.97265625-.26074219s.546875-.46582031.75-.84082031.33398438-.79101562.39257812-1.24804688c.03125-.359375.03710938-.66210938.01757812-.90820312-.046875-.47265625-.18945312-.84570312-.42773438-1.11914062s-.5546875-.41796875-.94921875-.43359375c-.546875-.01171875-1.01171875.203125-1.39453125.64453125s-.61914062,1.01953125-.70898438,1.734375l-.01171875.13476562Z"/>
    <path class="cls-3" d="M479.6713054,39.34738646c-.078125.6484375-.25585938,1.23242188-.53320312,1.75195312s-.61328125.90429688-1.0078125,1.15429688-.83203125.36914062-1.3125.35742188c-.765625-.015625-1.33398438-.30273438-1.70507812-.86132812l-.21679688.73828125h-.97851562l1.56445312-9h1.06054688l-.63867188,3.36328125c.5078125-.5625,1.125-.8359375,1.8515625-.8203125.609375.015625,1.08398438.24023438,1.42382812.67382812s.51953125,1.03125.5390625,1.79296875c.00390625.25-.0078125.4921875-.03515625.7265625l-.01171875.12304688ZM478.6634929,38.73605833c.01171875-.56982422-.08398438-1.00585938-.28710938-1.30810547s-.51367188-.46142578-.93164062-.47705078c-.66015625-.015625-1.21875.31591797-1.67578125.99511719l-.47460938,2.75585938c.234375.64404297.67382812.97363281,1.31835938.98925781.4140625.015625.77636719-.10742188,1.08691406-.36865234s.54589844-.62695312.70605469-1.09716797.24609375-.96679688.2578125-1.48925781Z"/>
    <path class="cls-3" d="M482.78263353,40.88840208l2.25585938-4.74023438h1.171875l-3.76171875,7.39453125c-.5234375,1.02734375-1.1953125,1.53515625-2.015625,1.5234375-.14453125-.00390625-.35742188-.0390625-.63867188-.10546875l.09375-.87890625.27539062.02929688c.3359375.015625.62597656-.05957031.87011719-.22558594s.45996094-.43457031.64746094-.80566406l.38085938-.7265625-1.09570312-6.20507812h1.10742188l.70898438,4.74023438Z"/>
    <path class="cls-3" d="M488.37833665,41.00558958l2.28515625-4.85742188h1.11914062l-3.19335938,6.33984375h-.80859375l-1.2421875-6.33984375h1.04296875l.796875,4.85742188Z"/>
    <path class="cls-3" d="M495.5619304,42.48801146c-.02734375-.11328125-.04101562-.22460938-.04101562-.33398438l.01757812-.33398438c-.58203125.5390625-1.19921875.80078125-1.8515625.78515625-.55859375-.0078125-1.01269531-.18457031-1.36230469-.53027344s-.50878906-.77832031-.47753906-1.29785156c.0390625-.671875.33300781-1.19628906.88183594-1.57324219s1.27050781-.56542969,2.16503906-.56542969l1.10742188.00585938.0703125-.50390625c.0390625-.37890625-.03417969-.67871094-.21972656-.89941406s-.46386719-.33496094-.83496094-.34277344c-.36328125-.0078125-.68457031.08105469-.96386719.26660156s-.45019531.43066406-.51269531.73535156l-1.06640625.00585938c.03515625-.37109375.1796875-.70019531.43359375-.98730469s.58007812-.50976562.97851562-.66796875.81054688-.23339844,1.23632812-.22558594c.66015625.015625,1.17382812.21582031,1.54101562.60058594s.52148438.89550781.46289062,1.53222656l-.515625,3.140625-.02929688.45117188c-.0078125.21484375.015625.42773438.0703125.63867188l-.01171875.09960938h-1.078125ZM493.8978679,41.66769896c.33984375.0078125.66113281-.07324219.96386719-.24316406s.56347656-.40527344.78222656-.70605469l.22851562-1.30664062-.80273438-.00585938c-.66796875,0-1.1796875.10546875-1.53515625.31640625s-.55664062.50976562-.60351562.89648438c-.03515625.296875.03417969.54394531.20800781.74121094s.42675781.29980469.75878906.30761719Z"/>
    <path class="cls-3" d="M500.87638353,34.61301146l-.26953125,1.53515625h1.15429688l-.14648438.83789062h-1.1484375l-.66210938,3.94335938c-.01171875.1015625-.01367188.1953125-.00585938.28125.02734375.3046875.19335938.45703125.49804688.45703125.12890625,0,.30078125-.01953125.515625-.05859375l-.08203125.88476562c-.25390625.0703125-.51171875.10546875-.7734375.10546875-.421875-.0078125-.73828125-.16308594-.94921875-.46582031s-.29296875-.70996094-.24609375-1.22167969l.64453125-3.92578125h-1.11914062l.14648438-.83789062h1.11914062l.26953125-1.53515625h1.0546875Z"/>
    <path class="cls-3" d="M504.6791179,42.60519896c-.7890625-.015625-1.40625-.30664062-1.8515625-.87304688s-.6328125-1.29101562-.5625-2.17382812l.02929688-.25195312c.06640625-.62890625.25292969-1.203125.55957031-1.72265625s.68066406-.91113281,1.12207031-1.17480469.91796875-.38964844,1.4296875-.37792969c.65234375.015625,1.1640625.23242188,1.53515625.65039062s.57421875.984375.609375,1.69921875c.01171875.25390625.00390625.5078125-.0234375.76171875l-.06445312.48632812h-4.14257812c-.0703125.57421875.02441406,1.0625.28417969,1.46484375s.64746094.61132812,1.16308594.62695312c.625.015625,1.203125-.265625,1.734375-.84375l.609375.515625c-.265625.3828125-.60839844.68261719-1.02832031.89941406s-.88769531.32128906-1.40332031.31347656ZM505.35294603,36.91574583c-.4375-.01171875-.81933594.13671875-1.14550781.4453125s-.58496094.76757812-.77636719,1.37695312l3.08203125.00585938.0234375-.09375c.0625-.4921875-.01660156-.90136719-.23730469-1.22753906s-.53613281-.49511719-.94628906-.50683594Z"/>
    <path class="cls-3" d="M509.30802415,42.48801146h-1.0546875l1.55859375-9h1.06054688l-1.56445312,9Z"/>
  </g>
  <g>
    <path class="cls-3" d="M415.0372722,330.90890989v-8.53125h2.625c.75,0,1.42089844.16894531,2.01269531.50683594s1.05371094.81835938,1.38574219,1.44140625.49804688,1.33105469.49804688,2.12402344v.39257812c0,.79296875-.16308594,1.49804688-.48925781,2.11523438s-.78613281,1.09570312-1.37988281,1.43554688-1.26367188.51171875-2.00976562.515625h-2.64257812ZM416.7950847,323.80148802v5.6953125h.84960938c.6875,0,1.21289062-.22460938,1.57617188-.67382812s.54882812-1.09179688.55664062-1.92773438v-.45117188c0-.8671875-.1796875-1.52441406-.5390625-1.97167969s-.88476562-.67089844-1.57617188-.67089844h-.8671875Z"/>
    <path class="cls-3" d="M422.46110033,327.68039427c0-.62890625.12109375-1.18945312.36328125-1.68164062s.59082031-.87304688,1.04589844-1.14257812.98339844-.40429688,1.58496094-.40429688c.85546875,0,1.55371094.26171875,2.09472656.78515625s.84277344,1.234375.90527344,2.1328125l.01171875.43359375c0,.97265625-.27148438,1.75292969-.81445312,2.34082031s-1.27148438.88183594-2.18554688.88183594-1.64355469-.29296875-2.18847656-.87890625-.81738281-1.3828125-.81738281-2.390625v-.07617188ZM424.1544597,327.80051146c0,.60253906.11328125,1.06347656.33984375,1.38183594.2265625.31933594.55078125.47851562.97265625.47851562.41015625,0,.73046875-.15722656.9609375-.47265625.23046875-.31445312.34570312-.81835938.34570312-1.51074219,0-.59082031-.11523438-1.04833984-.34570312-1.37304688s-.5546875-.48730469-.97265625-.48730469c-.4140625,0-.734375.16162109-.9609375.484375s-.33984375.82226562-.33984375,1.49902344Z"/>
    <path class="cls-3" d="M431.09781908,324.56906614l.05273438.70898438c.44921875-.55078125,1.05664062-.82617188,1.82226562-.82617188.81640625,0,1.37695312.32226562,1.68164062.96679688.4453125-.64453125,1.08007812-.96679688,1.90429688-.96679688.6875,0,1.19921875.20019531,1.53515625.60058594s.50390625,1.00292969.50390625,1.80761719v4.04882812h-1.69921875v-4.04296875c0-.359375-.0703125-.62207031-.2109375-.78808594s-.38867188-.24902344-.74414062-.24902344c-.5078125,0-.859375.2421875-1.0546875.7265625l.00585938,4.35351562h-1.69335938v-4.03710938c0-.3671875-.07226562-.6328125-.21679688-.796875s-.390625-.24609375-.73828125-.24609375c-.48046875,0-.828125.19921875-1.04296875.59765625v4.48242188h-1.69335938v-6.33984375h1.58789062Z"/>
    <path class="cls-3" d="M443.57242845,330.90890989c-.078125-.15234375-.13476562-.34179688-.16992188-.56835938-.41015625.45703125-.94335938.68554688-1.59960938.68554688-.62109375,0-1.13574219-.1796875-1.54394531-.5390625s-.61230469-.8125-.61230469-1.359375c0-.671875.24902344-1.1875.74707031-1.546875s1.21777344-.54101562,2.15917969-.54492188h.77929688v-.36328125c0-.29296875-.07519531-.52734375-.22558594-.703125s-.38769531-.26367188-.71191406-.26367188c-.28515625,0-.50878906.06835938-.67089844.20507812s-.24316406.32421875-.24316406.5625h-1.69335938c0-.3671875.11328125-.70703125.33984375-1.01953125s.546875-.55761719.9609375-.73535156.87890625-.26660156,1.39453125-.26660156c.78125,0,1.40136719.19628906,1.86035156.58886719s.68847656.94433594.68847656,1.65527344v2.74804688c.00390625.6015625.08789062,1.05664062.25195312,1.36523438v.09960938h-1.7109375ZM442.17203783,329.73117552c.25,0,.48046875-.05566406.69140625-.16699219s.3671875-.26074219.46875-.44824219v-1.08984375h-.6328125c-.84765625,0-1.29882812.29296875-1.35351562.87890625l-.00585938.09960938c0,.2109375.07421875.38476562.22265625.52148438s.3515625.20507812.609375.20507812ZM442.81656908,321.90890989h1.84570312l-1.62304688,1.81640625h-1.37695312l1.15429688-1.81640625Z"/>
    <path class="cls-3" d="M448.96891283,329.66086302c.3125,0,.56640625-.0859375.76171875-.2578125s.296875-.40039062.3046875-.68554688h1.58789062c-.00390625.4296875-.12109375.82324219-.3515625,1.18066406s-.54589844.63476562-.94628906.83203125-.84277344.29589844-1.32714844.29589844c-.90625,0-1.62109375-.28808594-2.14453125-.86425781s-.78515625-1.37207031-.78515625-2.38769531v-.11132812c0-.9765625.25976562-1.75585938.77929688-2.33789062s1.23242188-.87304688,2.13867188-.87304688c.79296875,0,1.42871094.22558594,1.90722656.67675781s.72167969,1.05175781.72949219,1.80175781h-1.58789062c-.0078125-.32958984-.109375-.59765625-.3046875-.80419922-.1953125-.20605469-.453125-.30908203-.7734375-.30908203-.39453125,0-.69238281.14404297-.89355469.43115234-.20117188.28759766-.30175781.75439453-.30175781,1.39990234v.17578125c0,.65332031.09960938,1.12304688.29882812,1.40869141s.50195312.42822266.90820312.42822266Z"/>
    <path class="cls-3" d="M454.14860033,324.56906614l.05273438.73242188c.453125-.56640625,1.06054688-.84960938,1.82226562-.84960938.671875,0,1.171875.19726562,1.5.59179688s.49609375.984375.50390625,1.76953125v4.09570312h-1.69335938v-4.0546875c0-.359375-.078125-.62011719-.234375-.78222656s-.41601562-.24316406-.77929688-.24316406c-.4765625,0-.83398438.203125-1.07226562.609375v4.47070312h-1.69335938v-6.33984375h1.59375Z"/>
    <path class="cls-3" d="M459.04703783,327.68039427c0-.62890625.12109375-1.18945312.36328125-1.68164062s.59082031-.87304688,1.04589844-1.14257812.98339844-.40429688,1.58496094-.40429688c.85546875,0,1.55371094.26171875,2.09472656.78515625s.84277344,1.234375.90527344,2.1328125l.01171875.43359375c0,.97265625-.27148438,1.75292969-.81445312,2.34082031s-1.27148438.88183594-2.18554688.88183594-1.64355469-.29296875-2.18847656-.87890625-.81738281-1.3828125-.81738281-2.390625v-.07617188ZM460.7403972,327.80051146c0,.60253906.11328125,1.06347656.33984375,1.38183594.2265625.31933594.55078125.47851562.97265625.47851562.41015625,0,.73046875-.15722656.9609375-.47265625.23046875-.31445312.34570312-.81835938.34570312-1.51074219,0-.59082031-.11523438-1.04833984-.34570312-1.37304688s-.5546875-.48730469-.97265625-.48730469c-.4140625,0-.734375.16162109-.9609375.484375s-.33984375.82226562-.33984375,1.49902344Z"/>
    <path class="cls-3" d="M469.5294597,329.15695677c0-.20703125-.10253906-.37011719-.30761719-.48925781s-.53417969-.22558594-.98730469-.31933594c-1.5078125-.31640625-2.26171875-.95703125-2.26171875-1.921875,0-.5625.23339844-1.03222656.70019531-1.40917969s1.07714844-.56542969,1.83105469-.56542969c.8046875,0,1.44824219.18945312,1.93066406.56835938s.72363281.87109375.72363281,1.4765625h-1.69335938c0-.2421875-.078125-.44238281-.234375-.60058594s-.40039062-.23730469-.73242188-.23730469c-.28515625,0-.50585938.06445312-.66210938.19335938s-.234375.29296875-.234375.4921875c0,.1875.08886719.33886719.26660156.45410156s.47753906.21484375.89941406.29882812.77734375.17871094,1.06640625.28417969c.89453125.328125,1.34179688.89648438,1.34179688,1.70507812,0,.578125-.24804688,1.04589844-.74414062,1.40332031s-1.13671875.53613281-1.921875.53613281c-.53125,0-1.00292969-.09472656-1.41503906-.28417969s-.73535156-.44921875-.96972656-.77929688-.3515625-.68652344-.3515625-1.06933594h1.60546875c.015625.30078125.12695312.53125.33398438.69140625s.484375.24023438.83203125.24023438c.32421875,0,.56933594-.06152344.73535156-.18457031s.24902344-.28417969.24902344-.48339844Z"/>
    <path class="cls-3" d="M474.29313158,323.01047239v1.55859375h1.08398438v1.2421875h-1.08398438v3.1640625c0,.234375.04492188.40234375.13476562.50390625s.26171875.15234375.515625.15234375c.1875,0,.35351562-.01367188.49804688-.04101562v1.28320312c-.33203125.1015625-.67382812.15234375-1.02539062.15234375-1.1875,0-1.79296875-.59960938-1.81640625-1.79882812v-3.41601562h-.92578125v-1.2421875h.92578125v-1.55859375h1.69335938Z"/>
    <path class="cls-3" d="M476.30875658,322.92844114c0-.25390625.08496094-.46289062.25488281-.62695312s.40136719-.24609375.69433594-.24609375c.2890625,0,.51953125.08203125.69140625.24609375s.2578125.37304688.2578125.62695312c0,.2578125-.08691406.46875-.26074219.6328125s-.40332031.24609375-.68847656.24609375-.51464844-.08203125-.68847656-.24609375-.26074219-.375-.26074219-.6328125ZM478.1075847,330.90890989h-1.69921875v-6.33984375h1.69921875v6.33984375Z"/>
    <path class="cls-3" d="M417.29899095,343.24045286l1.17773438-4.27148438h1.76953125l-2.13867188,6.33984375h-1.6171875l-2.13867188-6.33984375h1.76953125l1.17773438,4.27148438Z"/>
    <path class="cls-3" d="M428.5138347,343.07053099c0-.33203125-.1171875-.58691406-.3515625-.76464844s-.65625-.36523438-1.265625-.5625-1.09179688-.39160156-1.44726562-.58300781c-.96875-.5234375-1.453125-1.22851562-1.453125-2.11523438,0-.4609375.12988281-.87207031.38964844-1.23339844s.6328125-.64355469,1.11914062-.84667969,1.03222656-.3046875,1.63769531-.3046875c.609375,0,1.15234375.11035156,1.62890625.33105469s.84667969.53222656,1.11035156.93457031.39550781.859375.39550781,1.37109375h-1.7578125c0-.390625-.12304688-.69433594-.36914062-.91113281s-.59179688-.32519531-1.03710938-.32519531c-.4296875,0-.76367188.09082031-1.00195312.27246094s-.35742188.42089844-.35742188.71777344c0,.27734375.13964844.50976562.41894531.69726562s.69042969.36328125,1.23339844.52734375c1,.30078125,1.72851562.67382812,2.18554688,1.11914062s.68554688,1,.68554688,1.6640625c0,.73828125-.27929688,1.31738281-.83789062,1.73730469s-1.31054688.62988281-2.25585938.62988281c-.65625,0-1.25390625-.12011719-1.79296875-.36035156s-.95019531-.56933594-1.23339844-.98730469-.42480469-.90234375-.42480469-1.453125h1.76367188c0,.94140625.5625,1.41210938,1.6875,1.41210938.41796875,0,.74414062-.08496094.97851562-.25488281s.3515625-.40722656.3515625-.71191406ZM427.12516283,335.32443724l.85546875-.83789062h1.44726562v.06445312l-1.76953125,1.64648438h-1.07226562l-1.76953125-1.65820312v-.05273438h1.44726562l.86132812.83789062Z"/>
    <path class="cls-3" d="M437.06266283,342.19748411c0,.9765625-.22167969,1.75878906-.66503906,2.34667969s-1.04199219.88183594-1.79589844.88183594c-.640625,0-1.15820312-.22265625-1.55273438-.66796875v2.98828125h-1.69335938v-8.77734375h1.5703125l.05859375.62109375c.41015625-.4921875.9453125-.73828125,1.60546875-.73828125.78125,0,1.38867188.2890625,1.82226562.8671875s.65039062,1.375.65039062,2.390625v.08789062ZM435.36930345,342.07443724c0-.58984375-.10449219-1.04492188-.31347656-1.36523438s-.51269531-.48046875-.91113281-.48046875c-.53125,0-.89648438.203125-1.09570312.609375v2.59570312c.20703125.41796875.57617188.62695312,1.10742188.62695312.80859375,0,1.21289062-.66210938,1.21289062-1.98632812Z"/>
    <path class="cls-3" d="M438.0997722,337.32834349c0-.25390625.08496094-.46289062.25488281-.62695312s.40136719-.24609375.69433594-.24609375c.2890625,0,.51953125.08203125.69140625.24609375s.2578125.37304688.2578125.62695312c0,.2578125-.08691406.46875-.26074219.6328125s-.40332031.24609375-.68847656.24609375-.51464844-.08203125-.68847656-.24609375-.26074219-.375-.26074219-.6328125ZM439.89860033,345.30881224h-1.69921875v-6.33984375h1.69921875v6.33984375Z"/>
    <path class="cls-3" d="M442.85172533,338.96896849l.05273438.73242188c.453125-.56640625,1.06054688-.84960938,1.82226562-.84960938.671875,0,1.171875.19726562,1.5.59179688s.49609375.984375.50390625,1.76953125v4.09570312h-1.69335938v-4.0546875c0-.359375-.078125-.62011719-.234375-.78222656s-.41601562-.24316406-.77929688-.24316406c-.4765625,0-.83398438.203125-1.07226562.609375v4.47070312h-1.69335938v-6.33984375h1.59375Z"/>
    <path class="cls-3" d="M447.75016283,342.09201536c0-.98828125.22167969-1.77539062.66503906-2.36132812s1.04980469-.87890625,1.81933594-.87890625c.6171875,0,1.12695312.23046875,1.52929688.69140625v-3.234375h1.69921875v9h-1.52929688l-.08203125-.67382812c-.421875.52734375-.96484375.79101562-1.62890625.79101562-.74609375,0-1.34472656-.29394531-1.79589844-.88183594s-.67675781-1.40527344-.67675781-2.45214844ZM449.4435222,342.21799192c0,.59472656.10351562,1.05078125.31054688,1.3671875.20703125.31738281.5078125.47558594.90234375.47558594.5234375,0,.89257812-.22119141,1.10742188-.66308594v-2.50585938c-.2109375-.44189453-.57617188-.66308594-1.09570312-.66308594-.81640625,0-1.22460938.66308594-1.22460938,1.98925781Z"/>
    <path class="cls-3" d="M456.56266283,345.30881224h-1.69921875v-9h1.69921875v9Z"/>
    <path class="cls-3" d="M460.87516283,345.42599974c-.9296875,0-1.68652344-.28515625-2.27050781-.85546875s-.87597656-1.33007812-.87597656-2.27929688v-.1640625c0-.63671875.12304688-1.20605469.36914062-1.70800781s.59472656-.88867188,1.04589844-1.16015625.96582031-.40722656,1.54394531-.40722656c.8671875,0,1.54980469.2734375,2.04785156.8203125s.74707031,1.32226562.74707031,2.32617188v.69140625h-4.03710938c.0546875.4140625.21972656.74609375.49511719.99609375s.62402344.375,1.04589844.375c.65234375,0,1.16210938-.23632812,1.52929688-.70898438l.83203125.93164062c-.25390625.359375-.59765625.63964844-1.03125.84082031s-.9140625.30175781-1.44140625.30175781ZM460.68180345,340.21701536c-.3359375,0-.60839844.11376953-.81738281.34130859s-.34277344.55322266-.40136719.97705078h2.35546875v-.13525391c-.0078125-.37695312-.109375-.66796875-.3046875-.87402344s-.47265625-.30908203-.83203125-.30908203Z"/>
    <path class="cls-3" d="M468.0060222,340.55685911c-.23046875-.03125-.43359375-.046875-.609375-.046875-.640625,0-1.06054688.21679688-1.25976562.65039062v4.1484375h-1.69335938v-6.33984375h1.59960938l.046875.75585938c.33984375-.58203125.81054688-.87304688,1.41210938-.87304688.1875,0,.36328125.02539062.52734375.07617188l-.0234375,1.62890625Z"/>
    <path class="cls-3" d="M468.34586595,342.08029661c0-.62890625.12109375-1.18945312.36328125-1.68164062s.59082031-.87304688,1.04589844-1.14257812.98339844-.40429688,1.58496094-.40429688c.85546875,0,1.55371094.26171875,2.09472656.78515625s.84277344,1.234375.90527344,2.1328125l.01171875.43359375c0,.97265625-.27148438,1.75292969-.81445312,2.34082031s-1.27148438.88183594-2.18554688.88183594-1.64355469-.29296875-2.18847656-.87890625-.81738281-1.3828125-.81738281-2.390625v-.07617188ZM470.03922533,342.2004138c0,.60253906.11328125,1.06347656.33984375,1.38183594.2265625.31933594.55078125.47851562.97265625.47851562.41015625,0,.73046875-.15722656.9609375-.47265625.23046875-.31445312.34570312-.81835938.34570312-1.51074219,0-.59082031-.11523438-1.04833984-.34570312-1.37304688s-.5546875-.48730469-.97265625-.48730469c-.4140625,0-.734375.16162109-.9609375.484375s-.33984375.82226562-.33984375,1.49902344Z"/>
    <path class="cls-3" d="M477.67985033,343.24045286l1.17773438-4.27148438h1.76953125l-2.13867188,6.33984375h-1.6171875l-2.13867188-6.33984375h1.76953125l1.17773438,4.27148438Z"/>
    <path class="cls-3" d="M484.28922533,345.42599974c-.9296875,0-1.68652344-.28515625-2.27050781-.85546875s-.87597656-1.33007812-.87597656-2.27929688v-.1640625c0-.63671875.12304688-1.20605469.36914062-1.70800781s.59472656-.88867188,1.04589844-1.16015625.96582031-.40722656,1.54394531-.40722656c.8671875,0,1.54980469.2734375,2.04785156.8203125s.74707031,1.32226562.74707031,2.32617188v.69140625h-4.03710938c.0546875.4140625.21972656.74609375.49511719.99609375s.62402344.375,1.04589844.375c.65234375,0,1.16210938-.23632812,1.52929688-.70898438l.83203125.93164062c-.25390625.359375-.59765625.63964844-1.03125.84082031s-.9140625.30175781-1.44140625.30175781ZM483.90836595,337.14084349l.85546875-.83789062h1.44726562v.06445312l-1.76953125,1.64648438h-1.07226562l-1.76953125-1.65820312v-.05273438h1.44726562l.86132812.83789062ZM484.09586595,340.21701536c-.3359375,0-.60839844.11376953-.81738281.34130859s-.34277344.55322266-.40136719.97705078h2.35546875v-.13525391c-.0078125-.37695312-.109375-.66796875-.3046875-.87402344s-.47265625-.30908203-.83203125-.30908203Z"/>
    <path class="cls-3" d="M493.25406908,336.77756224l2.19140625,6.1875,2.1796875-6.1875h2.30859375v8.53125h-1.76367188v-2.33203125l.17578125-4.02539062-2.30273438,6.35742188h-1.20703125l-2.296875-6.3515625.17578125,4.01953125v2.33203125h-1.7578125v-8.53125h2.296875Z"/>
    <path class="cls-3" d="M503.14469408,345.30881224h-1.69921875v-9h1.69921875v9Z"/>
    <path class="cls-3" d="M506.90641283,342.91232786l1.171875-3.94335938h1.81640625l-2.54882812,7.32421875-.140625.33398438c-.37890625.828125-1.00390625,1.2421875-1.875,1.2421875-.24609375,0-.49609375-.03710938-.75-.11132812v-1.28320312l.2578125.00585938c.3203125,0,.55957031-.04882812.71777344-.14648438s.28222656-.25976562.37207031-.48632812l.19921875-.52148438-2.22070312-6.35742188h1.82226562l1.17773438,3.94335938ZM507.27555345,336.30881224h1.84570312l-1.62304688,1.81640625h-1.37695312l1.15429688-1.81640625Z"/>
    <path class="cls-3" d="M512.12125658,338.96896849l.05273438.73242188c.453125-.56640625,1.06054688-.84960938,1.82226562-.84960938.671875,0,1.171875.19726562,1.5.59179688s.49609375.984375.50390625,1.76953125v4.09570312h-1.69335938v-4.0546875c0-.359375-.078125-.62011719-.234375-.78222656s-.41601562-.24316406-.77929688-.24316406c-.4765625,0-.83398438.203125-1.07226562.609375v4.47070312h-1.69335938v-6.33984375h1.59375Z"/>
    <path class="cls-3" d="M520.2013347,345.42599974c-.9296875,0-1.68652344-.28515625-2.27050781-.85546875s-.87597656-1.33007812-.87597656-2.27929688v-.1640625c0-.63671875.12304688-1.20605469.36914062-1.70800781s.59472656-.88867188,1.04589844-1.16015625.96582031-.40722656,1.54394531-.40722656c.8671875,0,1.54980469.2734375,2.04785156.8203125s.74707031,1.32226562.74707031,2.32617188v.69140625h-4.03710938c.0546875.4140625.21972656.74609375.49511719.99609375s.62402344.375,1.04589844.375c.65234375,0,1.16210938-.23632812,1.52929688-.70898438l.83203125.93164062c-.25390625.359375-.59765625.63964844-1.03125.84082031s-.9140625.30175781-1.44140625.30175781ZM519.82047533,337.14084349l.85546875-.83789062h1.44726562v.06445312l-1.76953125,1.64648438h-1.07226562l-1.76953125-1.65820312v-.05273438h1.44726562l.86132812.83789062ZM520.00797533,340.21701536c-.3359375,0-.60839844.11376953-.81738281.34130859s-.34277344.55322266-.40136719.97705078h2.35546875v-.13525391c-.0078125-.37695312-.109375-.66796875-.3046875-.87402344s-.47265625-.30908203-.83203125-.30908203Z"/>
    <path class="cls-3" d="M417.81461595,359.70871458h-1.06640625l1.25390625-7.1953125-2.26757812.796875.18164062-1.03125,3.1640625-1.14257812h.1875l-1.453125,8.57226562Z"/>
    <path class="cls-3" d="M426.03873705,359.82590208c-.71875-.015625-1.2578125-.27050781-1.6171875-.76464844s-.5234375-1.20605469-.4921875-2.13574219c.0078125-.2890625.02929688-.57421875.06445312-.85546875l.2109375-1.42382812c.1875-1.21484375.54492188-2.12109375,1.07226562-2.71875s1.22265625-.88671875,2.0859375-.8671875c.7265625.015625,1.26855469.26464844,1.62597656.74707031s.52246094,1.18261719.49511719,2.10058594c-.01171875.29296875-.03515625.58007812-.0703125.86132812l-.20507812,1.37695312c-.20703125,1.28515625-.57226562,2.22460938-1.09570312,2.81835938s-1.21484375.88085938-2.07421875.86132812ZM428.38834642,354.57590208c.0546875-.47265625.08007812-.83984375.07617188-1.1015625-.01953125-.9921875-.40429688-1.50195312-1.15429688-1.52929688-.546875-.01953125-.98925781.18261719-1.32714844.60644531s-.57324219,1.08886719-.70605469,1.99511719l-.25195312,1.69921875c-.0546875.453125-.08007812.82226562-.07617188,1.10742188.01953125,1.03515625.40234375,1.56640625,1.1484375,1.59375.51953125.0234375.94824219-.16796875,1.28613281-.57421875s.57910156-1.05078125.72363281-1.93359375l.28125-1.86328125Z"/>
    <path class="cls-3" d="M432.6363933,359.82590208c-.71875-.015625-1.2578125-.27050781-1.6171875-.76464844s-.5234375-1.20605469-.4921875-2.13574219c.0078125-.2890625.02929688-.57421875.06445312-.85546875l.2109375-1.42382812c.1875-1.21484375.54492188-2.12109375,1.07226562-2.71875s1.22265625-.88671875,2.0859375-.8671875c.7265625.015625,1.26855469.26464844,1.62597656.74707031s.52246094,1.18261719.49511719,2.10058594c-.01171875.29296875-.03515625.58007812-.0703125.86132812l-.20507812,1.37695312c-.20703125,1.28515625-.57226562,2.22460938-1.09570312,2.81835938s-1.21484375.88085938-2.07421875.86132812ZM434.98600267,354.57590208c.0546875-.47265625.08007812-.83984375.07617188-1.1015625-.01953125-.9921875-.40429688-1.50195312-1.15429688-1.52929688-.546875-.01953125-.98925781.18261719-1.32714844.60644531s-.57324219,1.08886719-.70605469,1.99511719l-.25195312,1.69921875c-.0546875.453125-.08007812.82226562-.07617188,1.10742188.01953125,1.03515625.40234375,1.56640625,1.1484375,1.59375.51953125.0234375.94824219-.16796875,1.28613281-.57421875s.57910156-1.05078125.72363281-1.93359375l.28125-1.86328125Z"/>
    <path class="cls-3" d="M439.23404955,359.82590208c-.71875-.015625-1.2578125-.27050781-1.6171875-.76464844s-.5234375-1.20605469-.4921875-2.13574219c.0078125-.2890625.02929688-.57421875.06445312-.85546875l.2109375-1.42382812c.1875-1.21484375.54492188-2.12109375,1.07226562-2.71875s1.22265625-.88671875,2.0859375-.8671875c.7265625.015625,1.26855469.26464844,1.62597656.74707031s.52246094,1.18261719.49511719,2.10058594c-.01171875.29296875-.03515625.58007812-.0703125.86132812l-.20507812,1.37695312c-.20703125,1.28515625-.57226562,2.22460938-1.09570312,2.81835938s-1.21484375.88085938-2.07421875.86132812ZM441.58365892,354.57590208c.0546875-.47265625.08007812-.83984375.07617188-1.1015625-.01953125-.9921875-.40429688-1.50195312-1.15429688-1.52929688-.546875-.01953125-.98925781.18261719-1.32714844.60644531s-.57324219,1.08886719-.70605469,1.99511719l-.25195312,1.69921875c-.0546875.453125-.08007812.82226562-.07617188,1.10742188.01953125,1.03515625.40234375,1.56640625,1.1484375,1.59375.51953125.0234375.94824219-.16796875,1.28613281-.57421875s.57910156-1.05078125.72363281-1.93359375l.28125-1.86328125Z"/>
    <path class="cls-3" d="M449.71061205,353.25168333c.53125.0078125.98632812.15234375,1.36523438.43359375s.65917969.66894531.84082031,1.16308594.24316406,1.03417969.18457031,1.62011719l-.01171875.12890625c-.07421875.6171875-.2578125,1.17480469-.55078125,1.67285156s-.671875.88574219-1.13671875,1.16308594-.97460938.40820312-1.52929688.39257812c-.52734375-.0078125-.98144531-.15234375-1.36230469-.43359375s-.65917969-.6640625-.83496094-1.1484375-.23828125-1.01757812-.1875-1.59960938c.05859375-.65625.23632812-1.24609375.53320312-1.76953125s.67871094-.92871094,1.14550781-1.21582031.98144531-.42285156,1.54394531-.40722656ZM447.55436205,356.65012083c-.02734375.24609375-.02734375.50195312,0,.76757812.0390625.4609375.17675781.828125.41308594,1.1015625s.55175781.41601562.94628906.42773438c.3515625.01171875.67578125-.07519531.97265625-.26074219s.546875-.46582031.75-.84082031.33398438-.79101562.39257812-1.24804688c.03125-.359375.03710938-.66210938.01757812-.90820312-.046875-.47265625-.18945312-.84570312-.42773438-1.11914062s-.5546875-.41796875-.94921875-.43359375c-.546875-.01171875-1.01171875.203125-1.39453125.64453125s-.61914062,1.01953125-.70898438,1.734375l-.01171875.13476562Z"/>
    <path class="cls-3" d="M458.64029955,356.56808958c-.078125.6484375-.25585938,1.23242188-.53320312,1.75195312s-.61328125.90429688-1.0078125,1.15429688-.83203125.36914062-1.3125.35742188c-.765625-.015625-1.33398438-.30273438-1.70507812-.86132812l-.21679688.73828125h-.97851562l1.56445312-9h1.06054688l-.63867188,3.36328125c.5078125-.5625,1.125-.8359375,1.8515625-.8203125.609375.015625,1.08398438.24023438,1.42382812.67382812s.51953125,1.03125.5390625,1.79296875c.00390625.25-.0078125.4921875-.03515625.7265625l-.01171875.12304688ZM457.63248705,355.95676146c.01171875-.56982422-.08398438-1.00585938-.28710938-1.30810547s-.51367188-.46142578-.93164062-.47705078c-.66015625-.015625-1.21875.31591797-1.67578125.99511719l-.47460938,2.75585938c.234375.64404297.67382812.97363281,1.31835938.98925781.4140625.015625.77636719-.10742188,1.08691406-.36865234s.54589844-.62695312.70605469-1.09716797.24609375-.96679688.2578125-1.48925781Z"/>
    <path class="cls-3" d="M461.75162767,358.10910521l2.25585938-4.74023438h1.171875l-3.76171875,7.39453125c-.5234375,1.02734375-1.1953125,1.53515625-2.015625,1.5234375-.14453125-.00390625-.35742188-.0390625-.63867188-.10546875l.09375-.87890625.27539062.02929688c.3359375.015625.62597656-.05957031.87011719-.22558594s.45996094-.43457031.64746094-.80566406l.38085938-.7265625-1.09570312-6.20507812h1.10742188l.70898438,4.74023438Z"/>
    <path class="cls-3" d="M467.3473308,358.22629271l2.28515625-4.85742188h1.11914062l-3.19335938,6.33984375h-.80859375l-1.2421875-6.33984375h1.04296875l.796875,4.85742188Z"/>
    <path class="cls-3" d="M474.53092455,359.70871458c-.02734375-.11328125-.04101562-.22460938-.04101562-.33398438l.01757812-.33398438c-.58203125.5390625-1.19921875.80078125-1.8515625.78515625-.55859375-.0078125-1.01269531-.18457031-1.36230469-.53027344s-.50878906-.77832031-.47753906-1.29785156c.0390625-.671875.33300781-1.19628906.88183594-1.57324219s1.27050781-.56542969,2.16503906-.56542969l1.10742188.00585938.0703125-.50390625c.0390625-.37890625-.03417969-.67871094-.21972656-.89941406s-.46386719-.33496094-.83496094-.34277344c-.36328125-.0078125-.68457031.08105469-.96386719.26660156s-.45019531.43066406-.51269531.73535156l-1.06640625.00585938c.03515625-.37109375.1796875-.70019531.43359375-.98730469s.58007812-.50976562.97851562-.66796875.81054688-.23339844,1.23632812-.22558594c.66015625.015625,1.17382812.21582031,1.54101562.60058594s.52148438.89550781.46289062,1.53222656l-.515625,3.140625-.02929688.45117188c-.0078125.21484375.015625.42773438.0703125.63867188l-.01171875.09960938h-1.078125ZM472.86686205,358.88840208c.33984375.0078125.66113281-.07324219.96386719-.24316406s.56347656-.40527344.78222656-.70605469l.22851562-1.30664062-.80273438-.00585938c-.66796875,0-1.1796875.10546875-1.53515625.31640625s-.55664062.50976562-.60351562.89648438c-.03515625.296875.03417969.54394531.20800781.74121094s.42675781.29980469.75878906.30761719Z"/>
    <path class="cls-3" d="M479.84537767,351.83371458l-.26953125,1.53515625h1.15429688l-.14648438.83789062h-1.1484375l-.66210938,3.94335938c-.01171875.1015625-.01367188.1953125-.00585938.28125.02734375.3046875.19335938.45703125.49804688.45703125.12890625,0,.30078125-.01953125.515625-.05859375l-.08203125.88476562c-.25390625.0703125-.51171875.10546875-.7734375.10546875-.421875-.0078125-.73828125-.16308594-.94921875-.46582031s-.29296875-.70996094-.24609375-1.22167969l.64453125-3.92578125h-1.11914062l.14648438-.83789062h1.11914062l.26953125-1.53515625h1.0546875Z"/>
    <path class="cls-3" d="M483.64811205,359.82590208c-.7890625-.015625-1.40625-.30664062-1.8515625-.87304688s-.6328125-1.29101562-.5625-2.17382812l.02929688-.25195312c.06640625-.62890625.25292969-1.203125.55957031-1.72265625s.68066406-.91113281,1.12207031-1.17480469.91796875-.38964844,1.4296875-.37792969c.65234375.015625,1.1640625.23242188,1.53515625.65039062s.57421875.984375.609375,1.69921875c.01171875.25390625.00390625.5078125-.0234375.76171875l-.06445312.48632812h-4.14257812c-.0703125.57421875.02441406,1.0625.28417969,1.46484375s.64746094.61132812,1.16308594.62695312c.625.015625,1.203125-.265625,1.734375-.84375l.609375.515625c-.265625.3828125-.60839844.68261719-1.02832031.89941406s-.88769531.32128906-1.40332031.31347656ZM484.32194017,354.13644896c-.4375-.01171875-.81933594.13671875-1.14550781.4453125s-.58496094.76757812-.77636719,1.37695312l3.08203125.00585938.0234375-.09375c.0625-.4921875-.01660156-.90136719-.23730469-1.22753906s-.53613281-.49511719-.94628906-.50683594Z"/>
    <path class="cls-3" d="M488.2770183,359.70871458h-1.0546875l1.55859375-9h1.06054688l-1.56445312,9Z"/>
  </g>
  <g>
    <path class="cls-3" d="M27.10343431,380.66672239h-1.69335938v-6.52734375l-2.02148438.62695312v-1.37695312l3.53320312-1.265625h.18164062v8.54296875Z"/>
    <path class="cls-3" d="M32.52677415,376.47140989l.4921875-4.3359375h4.78125v1.41210938h-3.39257812l-.2109375,1.83398438c.40234375-.21484375.83007812-.32226562,1.28320312-.32226562.8125,0,1.44921875.25195312,1.91015625.75585938s.69140625,1.20898438.69140625,2.11523438c0,.55078125-.11621094,1.04394531-.34863281,1.47949219s-.56542969.7734375-.99902344,1.01367188-.9453125.36035156-1.53515625.36035156c-.515625,0-.99414062-.10449219-1.43554688-.31347656s-.79003906-.50292969-1.04589844-.88183594-.39160156-.81054688-.40722656-1.29492188h1.67578125c.03515625.35546875.15917969.63183594.37207031.82910156s.49121094.29589844.83496094.29589844c.3828125,0,.67773438-.13769531.88476562-.41308594s.31054688-.66503906.31054688-1.16894531c0-.484375-.11914062-.85546875-.35742188-1.11328125s-.57617188-.38671875-1.01367188-.38671875c-.40234375,0-.72851562.10546875-.97851562.31640625l-.1640625.15234375-1.34765625-.33398438Z"/>
    <path class="cls-3" d="M44.90177415,377.13937864c0,1.1796875-.24414062,2.08203125-.73242188,2.70703125s-1.203125.9375-2.14453125.9375c-.9296875,0-1.640625-.30664062-2.1328125-.91992188s-.74414062-1.4921875-.75585938-2.63671875v-1.5703125c0-1.19140625.24707031-2.09570312.74121094-2.71289062s1.20605469-.92578125,2.13574219-.92578125,1.640625.30566406,2.1328125.91699219.74414062,1.48925781.75585938,2.63378906v1.5703125ZM43.20841478,375.41281614c0-.70751953-.09667969-1.22265625-.29003906-1.54541016s-.49511719-.48388672-.90527344-.48388672c-.3984375,0-.69238281.15332031-.88183594.46044922s-.29003906.78662109-.30175781,1.43994141v2.07617188c0,.69580078.09472656,1.21289062.28417969,1.55126953s.49316406.50732422.91113281.50732422c.4140625,0,.71289062-.16210938.89648438-.48681641.18359375-.32421875.27929688-.82080078.28710938-1.48974609v-2.02929688Z"/>
    <path class="cls-3" d="M51.78653978,377.13937864c0,1.1796875-.24414062,2.08203125-.73242188,2.70703125s-1.203125.9375-2.14453125.9375c-.9296875,0-1.640625-.30664062-2.1328125-.91992188s-.74414062-1.4921875-.75585938-2.63671875v-1.5703125c0-1.19140625.24707031-2.09570312.74121094-2.71289062s1.20605469-.92578125,2.13574219-.92578125,1.640625.30566406,2.1328125.91699219.74414062,1.48925781.75585938,2.63378906v1.5703125ZM50.0931804,375.41281614c0-.70751953-.09667969-1.22265625-.29003906-1.54541016s-.49511719-.48388672-.90527344-.48388672c-.3984375,0-.69238281.15332031-.88183594.46044922s-.29003906.78662109-.30175781,1.43994141v2.07617188c0,.69580078.09472656,1.21289062.28417969,1.55126953s.49316406.50732422.91113281.50732422c.4140625,0,.71289062-.16210938.89648438-.48681641.18359375-.32421875.27929688-.82080078.28710938-1.48974609v-2.02929688Z"/>
    <path class="cls-3" d="M62.62638353,379.54758177c-.2890625.4140625-.69238281.72363281-1.20996094.92871094s-1.12011719.30761719-1.80761719.30761719c-.6953125,0-1.3125-.16308594-1.8515625-.48925781s-.95605469-.79003906-1.25097656-1.39160156-.44628906-1.29882812-.45410156-2.09179688v-.74414062c0-1.28515625.29980469-2.28125.89941406-2.98828125s1.44238281-1.06054688,2.52832031-1.06054688c.890625,0,1.60742188.22753906,2.15039062.68261719s.875,1.10058594.99609375,1.93652344h-1.125c-.2109375-1.1328125-.8828125-1.69921875-2.015625-1.69921875-.75390625,0-1.32519531.26513672-1.71386719.79492188-.38867188.52929688-.58496094,1.296875-.58886719,2.30126953v.69824219c0,.95751953.21875,1.71923828.65625,2.28369141.4375.56542969,1.02929688.84765625,1.77539062.84765625.421875,0,.79101562-.046875,1.10742188-.14013672.31640625-.09375.578125-.25146484.78515625-.47363281v-1.91162109h-1.97460938v-.91992188h3.09375v3.12890625Z"/>
    <path class="cls-3" d="M66.34122728,377.97726927l.1640625,1.125.24023438-1.01367188,1.6875-5.953125h.94921875l1.64648438,5.953125.234375,1.03125.18164062-1.1484375,1.32421875-5.8359375h1.13085938l-2.06835938,8.53125h-1.02539062l-1.7578125-6.21679688-.13476562-.65039062-.13476562.65039062-1.82226562,6.21679688h-1.02539062l-2.0625-8.53125h1.125l1.34765625,5.84179688Z"/>
    <path class="cls-3" d="M76.0619304,375.09445677c.48046875-.58984375,1.10546875-.88476562,1.875-.88476562,1.33984375,0,2.015625.75585938,2.02734375,2.26757812v4.18945312h-1.08398438v-4.1953125c-.00390625-.45703125-.10839844-.79492188-.31347656-1.01367188s-.52441406-.328125-.95800781-.328125c-.3515625,0-.66015625.09375-.92578125.28125s-.47265625.43359375-.62109375.73828125v4.51757812h-1.08398438v-9h1.08398438v3.42773438Z"/>
  </g>
  <g>
    <path class="cls-3" d="M428.46280931,208.66965208h.96679688v1.36523438h-.96679688v1.84570312h-1.69335938v-1.84570312h-3.49804688l-.07617188-1.06640625,3.55664062-5.61914062h1.7109375v5.3203125ZM424.88273119,208.66965208h1.88671875v-3.01171875l-.11132812.19335938-1.77539062,2.81835938Z"/>
    <path class="cls-3" d="M430.58976244,207.68527708l.4921875-4.3359375h4.78125v1.41210938h-3.39257812l-.2109375,1.83398438c.40234375-.21484375.83007812-.32226562,1.28320312-.32226562.8125,0,1.44921875.25195312,1.91015625.75585938s.69140625,1.20898438.69140625,2.11523438c0,.55078125-.11621094,1.04394531-.34863281,1.47949219s-.56542969.7734375-.99902344,1.01367188-.9453125.36035156-1.53515625.36035156c-.515625,0-.99414062-.10449219-1.43554688-.31347656s-.79003906-.50292969-1.04589844-.88183594-.39160156-.81054688-.40722656-1.29492188h1.67578125c.03515625.35546875.15917969.63183594.37207031.82910156s.49121094.29589844.83496094.29589844c.3828125,0,.67773438-.13769531.88476562-.41308594s.31054688-.66503906.31054688-1.16894531c0-.484375-.11914062-.85546875-.35742188-1.11328125s-.57617188-.38671875-1.01367188-.38671875c-.40234375,0-.72851562.10546875-.97851562.31640625l-.1640625.15234375-1.34765625-.33398438Z"/>
    <path class="cls-3" d="M442.96476244,208.35324583c0,1.1796875-.24414062,2.08203125-.73242188,2.70703125s-1.203125.9375-2.14453125.9375c-.9296875,0-1.640625-.30664062-2.1328125-.91992188s-.74414062-1.4921875-.75585938-2.63671875v-1.5703125c0-1.19140625.24707031-2.09570312.74121094-2.71289062s1.20605469-.92578125,2.13574219-.92578125,1.640625.30566406,2.1328125.91699219.74414062,1.48925781.75585938,2.63378906v1.5703125ZM441.27140306,206.62668333c0-.70751953-.09667969-1.22265625-.29003906-1.54541016s-.49511719-.48388672-.90527344-.48388672c-.3984375,0-.69238281.15332031-.88183594.46044922s-.29003906.78662109-.30175781,1.43994141v2.07617188c0,.69580078.09472656,1.21289062.28417969,1.55126953s.49316406.50732422.91113281.50732422c.4140625,0,.71289062-.16210938.89648438-.48681641.18359375-.32421875.27929688-.82080078.28710938-1.48974609v-2.02929688Z"/>
    <path class="cls-3" d="M453.80460619,210.76144896c-.2890625.4140625-.69238281.72363281-1.20996094.92871094s-1.12011719.30761719-1.80761719.30761719c-.6953125,0-1.3125-.16308594-1.8515625-.48925781s-.95605469-.79003906-1.25097656-1.39160156-.44628906-1.29882812-.45410156-2.09179688v-.74414062c0-1.28515625.29980469-2.28125.89941406-2.98828125s1.44238281-1.06054688,2.52832031-1.06054688c.890625,0,1.60742188.22753906,2.15039062.68261719s.875,1.10058594.99609375,1.93652344h-1.125c-.2109375-1.1328125-.8828125-1.69921875-2.015625-1.69921875-.75390625,0-1.32519531.26513672-1.71386719.79492188-.38867188.52929688-.58496094,1.296875-.58886719,2.30126953v.69824219c0,.95751953.21875,1.71923828.65625,2.28369141.4375.56542969,1.02929688.84765625,1.77539062.84765625.421875,0,.79101562-.046875,1.10742188-.14013672.31640625-.09375.578125-.25146484.78515625-.47363281v-1.91162109h-1.97460938v-.91992188h3.09375v3.12890625Z"/>
    <path class="cls-3" d="M457.51944994,209.19113646l.1640625,1.125.24023438-1.01367188,1.6875-5.953125h.94921875l1.64648438,5.953125.234375,1.03125.18164062-1.1484375,1.32421875-5.8359375h1.13085938l-2.06835938,8.53125h-1.02539062l-1.7578125-6.21679688-.13476562-.65039062-.13476562.65039062-1.82226562,6.21679688h-1.02539062l-2.0625-8.53125h1.125l1.34765625,5.84179688Z"/>
    <path class="cls-3" d="M467.24015306,206.30832396c.48046875-.58984375,1.10546875-.88476562,1.875-.88476562,1.33984375,0,2.015625.75585938,2.02734375,2.26757812v4.18945312h-1.08398438v-4.1953125c-.00390625-.45703125-.10839844-.79492188-.31347656-1.01367188s-.52441406-.328125-.95800781-.328125c-.3515625,0-.66015625.09375-.92578125.28125s-.47265625.43359375-.62109375.73828125v4.51757812h-1.08398438v-9h1.08398438v3.42773438Z"/>
  </g>
  <g>
    <path class="cls-3" d="M419.73063158,393.21652708h-1.69335938v-6.52734375l-2.02148438.62695312v-1.37695312l3.53320312-1.265625h.18164062v8.54296875Z"/>
    <path class="cls-3" d="M432.19938158,392.09738646c-.2890625.4140625-.69238281.72363281-1.20996094.92871094s-1.12011719.30761719-1.80761719.30761719c-.6953125,0-1.3125-.16308594-1.8515625-.48925781s-.95605469-.79003906-1.25097656-1.39160156-.44628906-1.29882812-.45410156-2.09179688v-.74414062c0-1.28515625.29980469-2.28125.89941406-2.98828125s1.44238281-1.06054688,2.52832031-1.06054688c.890625,0,1.60742188.22753906,2.15039062.68261719s.875,1.10058594.99609375,1.93652344h-1.125c-.2109375-1.1328125-.8828125-1.69921875-2.015625-1.69921875-.75390625,0-1.32519531.26513672-1.71386719.79492188-.38867188.52929688-.58496094,1.296875-.58886719,2.30126953v.69824219c0,.95751953.21875,1.71923828.65625,2.28369141.4375.56542969,1.02929688.84765625,1.77539062.84765625.421875,0,.79101562-.046875,1.10742188-.14013672.31640625-.09375.578125-.25146484.78515625-.47363281v-1.91162109h-1.97460938v-.91992188h3.09375v3.12890625Z"/>
    <path class="cls-3" d="M435.91422533,390.52707396l.1640625,1.125.24023438-1.01367188,1.6875-5.953125h.94921875l1.64648438,5.953125.234375,1.03125.18164062-1.1484375,1.32421875-5.8359375h1.13085938l-2.06835938,8.53125h-1.02539062l-1.7578125-6.21679688-.13476562-.65039062-.13476562.65039062-1.82226562,6.21679688h-1.02539062l-2.0625-8.53125h1.125l1.34765625,5.84179688Z"/>
    <path class="cls-3" d="M445.63492845,387.64426146c.48046875-.58984375,1.10546875-.88476562,1.875-.88476562,1.33984375,0,2.015625.75585938,2.02734375,2.26757812v4.18945312h-1.08398438v-4.1953125c-.00390625-.45703125-.10839844-.79492188-.31347656-1.01367188s-.52441406-.328125-.95800781-.328125c-.3515625,0-.66015625.09375-.92578125.28125s-.47265625.43359375-.62109375.73828125v4.51757812h-1.08398438v-9h1.08398438v3.42773438Z"/>
  </g>
  <g>
    <g>
      <polyline class="cls-2" points="369.26513102 356.88173126 369.26513102 380.66646114 332.55859376 380.66646114 332.55859376 356.89709608"/>
      <polyline class="cls-2" points="340.92806315 380.66325636 340.92806315 365.61046433 349.51416264 365.61046433 349.51416264 380.66325636"/>
      <polyline class="cls-2" points="375.34233453 362.06276407 350.91768421 341.29325863 326.4930339 362.06276407"/>
      <line class="cls-2" x1="313.12705992" y1="380.66646114" x2="377.31516587" y2="380.66646114"/>
      <rect class="cls-2" x="352.77615735" y="365.61046433" width="8.68021695" height="8.68021695"/>
    </g>
    <g>
      <polyline class="cls-2" points="332.53632345 371.10942636 318.48072143 371.10942636 318.48072143 325.18916341 354.13947311 325.18916341 354.13947311 343.94016957"/>
      <line class="cls-2" x1="316.18587729" y1="371.10942636" x2="320.60939779" y2="371.10942636"/>
      <rect class="cls-2" x="323.52329221" y="329.22963347" width="6.31724288" height="6.31724288"/>
      <rect class="cls-2" x="333.15147583" y="329.22963347" width="6.31724288" height="6.31724288"/>
      <polyline class="cls-2" points="326.54562795 325.18916341 326.54562795 323.13686116 346.07456659 323.13686116 346.07456659 325.18916341"/>
      <rect class="cls-2" x="342.77965946" y="329.22963347" width="6.31724288" height="6.31724288"/>
      <rect class="cls-2" x="323.52329221" y="338.7215314" width="6.31724288" height="6.31724288"/>
      <rect class="cls-2" x="333.15147583" y="338.7215314" width="6.31724288" height="6.31724288"/>
      <polyline class="cls-2" points="346.67158838 345.03877428 342.77965946 345.03877428 342.77965946 338.7215314 349.09690234 338.7215314 349.09690234 342.84155319"/>
      <rect class="cls-2" x="323.52329221" y="348.21342933" width="6.31724288" height="6.31724288"/>
      <polyline class="cls-2" points="335.35067024 354.53067221 333.15147583 354.53067221 333.15147583 348.21342933 339.46871871 348.21342933 339.46871871 351.02889076"/>
    </g>
  </g>
  <g>
    <g>
      <polyline class="cls-2" points="598.50553778 181.90241661 598.50553778 205.68714648 561.79900052 205.68714648 561.79900052 181.91778142"/>
      <polyline class="cls-2" points="570.16846991 205.68394171 570.16846991 190.63114968 578.7545694 190.63114968 578.7545694 205.68394171"/>
      <polyline class="cls-2" points="604.58274128 187.08344942 580.15809097 166.31394397 555.73344066 187.08344942"/>
      <line class="cls-2" x1="542.36746668" y1="205.68714648" x2="606.55557263" y2="205.68714648"/>
      <rect class="cls-2" x="582.01656411" y="190.63114968" width="8.68021695" height="8.68021695"/>
    </g>
    <g>
      <polyline class="cls-2" points="561.77673021 196.13011171 547.72112819 196.13011171 547.72112819 150.20984876 583.37987987 150.20984876 583.37987987 168.96085492"/>
      <line class="cls-2" x1="545.42628404" y1="196.13011171" x2="549.84980454" y2="196.13011171"/>
      <rect class="cls-2" x="552.76369897" y="154.25031882" width="6.31724288" height="6.31724288"/>
      <rect class="cls-2" x="562.39188259" y="154.25031882" width="6.31724288" height="6.31724288"/>
      <polyline class="cls-2" points="555.78603471 150.20984876 555.78603471 148.1575465 575.31497335 148.1575465 575.31497335 150.20984876"/>
      <rect class="cls-2" x="572.02006622" y="154.25031882" width="6.31724288" height="6.31724288"/>
      <rect class="cls-2" x="552.76369897" y="163.74221675" width="6.31724288" height="6.31724288"/>
      <rect class="cls-2" x="562.39188259" y="163.74221675" width="6.31724288" height="6.31724288"/>
      <polyline class="cls-2" points="575.91199514 170.05945963 572.02006622 170.05945963 572.02006622 163.74221675 578.33730909 163.74221675 578.33730909 167.86223853"/>
      <rect class="cls-2" x="552.76369897" y="173.23411468" width="6.31724288" height="6.31724288"/>
      <polyline class="cls-2" points="564.59107699 179.55135755 562.39188259 179.55135755 562.39188259 173.23411468 568.70912547 173.23411468 568.70912547 176.0495761"/>
    </g>
  </g>
</svg>