<?xml version="1.0" encoding="UTF-8"?>
<svg id="Layer_1" data-name="Layer 1" xmlns="http://www.w3.org/2000/svg" viewBox="0 0 660 145.63960505">
  <defs>
    <style>
      .cls-1 {
        fill: #e4e7ed;
      }

      .cls-1, .cls-2 {
        stroke: #fff;
        stroke-miterlimit: 10;
        stroke-width: .5px;
      }

      .cls-2, .cls-3 {
        fill: #515b66;
      }

      .cls-3, .cls-4, .cls-5, .cls-6 {
        stroke-width: 0px;
      }

      .cls-4 {
        fill: #9ea7b3;
      }

      .cls-5 {
        fill: #333;
      }

      .cls-6 {
        fill: #fff;
      }
    </style>
  </defs>
  <path class="cls-1" d="M2.72171691,110.61731177v-38.65291585h243.41235211v38.65291585H2.72171691Z"/>
  <path class="cls-2" d="M246.13406901,110.61731177v-38.65291585h173.76122726v38.65291585h-173.76122726Z"/>
  <path class="cls-1" d="M419.89529627,110.61731177v-38.65291585h143.70126811v38.65291585h-143.70126811Z"/>
  <path class="cls-1" d="M563.59656438,110.61731177v-38.65291585h38.12482623v38.65291585h-38.12482623Z"/>
  <polygon class="cls-1" points="653.77646667 71.96431915 645.71164733 71.96431915 634.71408874 71.96431915 620.78379088 71.96431915 601.72141295 71.96431915 601.72141295 110.61737962 620.78379088 110.61737962 634.71408874 110.61737962 645.71164733 110.61737962 653.77646667 110.61737962 658.90866881 110.61737962 658.90866881 71.96431915 653.77646667 71.96431915"/>
  <g>
    <path class="cls-4" d="M6.80276538,58.87952747v3.89648438h-1.3125v-9.953125h3.67089844c1.08935547,0,1.94238281.27783203,2.56005859.83398438s.92626953,1.29199219.92626953,2.20800781c0,.96630859-.30175781,1.70996094-.90576172,2.23193359s-1.46875.78271484-2.59423828.78271484h-2.34472656ZM6.80276538,57.80628528h2.35839844c.70166016,0,1.23974609-.16552734,1.61328125-.49658203.37353516-.33056641.56054688-.80908203.56054688-1.43457031,0-.59326172-.18701172-1.06835938-.56054688-1.42431641s-.88623047-.54101562-1.53808594-.5546875h-2.43359375v3.91015625Z"/>
    <path class="cls-4" d="M17.69924976,56.51429309c-.19140625-.03173828-.39892578-.04785156-.62207031-.04785156-.82958984,0-1.39208984.35302734-1.68847656,1.05957031v5.25h-1.26464844v-7.39648438h1.23046875l.02050781.85449219c.41455078-.66064453,1.00244141-.99121094,1.76367188-.99121094.24609375,0,.43310547.03173828.56054688.09570312v1.17578125Z"/>
    <path class="cls-4" d="M23.42776538,62.04456653c-.4921875.57861328-1.21435547.86816406-2.16699219.86816406-.78857422,0-1.38867188-.22900391-1.80126953-.68701172s-.62109375-1.13574219-.62548828-2.03369141v-4.8125h1.26464844v4.77832031c0,1.12109375.45556641,1.68164062,1.3671875,1.68164062.96630859,0,1.60888672-.35986328,1.92773438-1.08007812v-5.37988281h1.26464844v7.39648438h-1.203125l-.02734375-.73144531ZM23.25003101,53.07581653c0,.39648438-.14111328.72802734-.42382812.99462891s-.63134766.39990234-1.04589844.39990234c-.41943359,0-.76904297-.13427734-1.04931641-.40332031s-.42041016-.59912109-.42041016-.99121094.14013672-.72705078.42041016-1.00488281.62988281-.41699219,1.04931641-.41699219.76904297.13916016,1.04931641.41699219.42041016.61279297.42041016,1.00488281ZM20.9873357,53.07581653c0,.21435547.07617188.39892578.22900391.55371094s.34082031.23242188.56396484.23242188c.21875,0,.40576172-.07519531.56054688-.22558594s.23242188-.33740234.23242188-.56054688-.07617188-.41357422-.22900391-.57080078-.34082031-.23583984-.56396484-.23583984c-.22802734,0-.41699219.07958984-.56738281.23925781s-.22558594.34863281-.22558594.56738281Z"/>
    <path class="cls-4" d="M27.7685857,55.37952747l.03417969.8203125c.54248047-.63818359,1.27392578-.95703125,2.19433594-.95703125,1.03466797,0,1.73876953.39648438,2.11230469,1.18945312.24609375-.35546875.56640625-.64257812.96044922-.86132812s.86035156-.328125,1.39794922-.328125c1.62255859,0,2.44726562.85888672,2.47460938,2.57714844v4.95605469h-1.26464844v-4.88085938c0-.52880859-.12060547-.92382812-.36230469-1.18603516s-.64697266-.39306641-1.21679688-.39306641c-.46923828,0-.85888672.14013672-1.16894531.42041016s-.48974609.65722656-.54003906,1.13134766v4.90820312h-1.27148438v-4.84667969c0-1.07568359-.52636719-1.61328125-1.57910156-1.61328125-.82958984,0-1.39697266.35302734-1.70214844,1.05957031v5.40039062h-1.26464844v-7.39648438h1.19628906Z"/>
    <path class="cls-4" d="M41.26956226,60.92347278l1.72265625-5.54394531h1.35351562l-2.97363281,8.53808594c-.46044922,1.23046875-1.19189453,1.84570312-2.19433594,1.84570312l-.23925781-.02050781-.47167969-.08886719v-1.02539062l.34179688.02734375c.42822266,0,.76220703-.08642578,1.00146484-.25976562s.43652344-.48974609.59130859-.95019531l.28027344-.75195312-2.63867188-7.31445312h1.38085938l1.84570312,5.54394531Z"/>
    <path class="cls-4" d="M49.78030445,60.81409778c0-.34179688-.12890625-.60742188-.38623047-.79638672s-.70654297-.35205078-1.34667969-.48876953-1.1484375-.30078125-1.52441406-.4921875-.65380859-.41943359-.83398438-.68359375-.27001953-.57861328-.27001953-.94335938c0-.60595703.25634766-1.11865234.76904297-1.53808594s1.16796875-.62890625,1.96533203-.62890625c.83837891,0,1.51855469.21630859,2.04052734.64941406s.78271484.98681641.78271484,1.66113281h-1.27148438c0-.34619141-.14697266-.64501953-.44091797-.89550781s-.6640625-.37597656-1.11083984-.37597656c-.46044922,0-.8203125.10009766-1.08007812.30078125s-.38964844.46240234-.38964844.78613281c0,.30517578.12060547.53564453.36230469.69042969s.67773438.30322266,1.30908203.44433594,1.14257812.31005859,1.53466797.50585938.68261719.43164062.87158203.70751953.28369141.61181641.28369141,1.00830078c0,.66064453-.26416016,1.19042969-.79296875,1.58935547s-1.21435547.59814453-2.05761719.59814453c-.59228516,0-1.11669922-.10498047-1.57226562-.31445312s-.8125-.50244141-1.06982422-.87841797-.38623047-.78271484-.38623047-1.22021484h1.26464844c.02294922.42382812.19238281.75976562.50927734,1.00830078s.73486328.37255859,1.25439453.37255859c.47851562,0,.86230469-.09667969,1.15185547-.29052734s.43408203-.45214844.43408203-.77587891Z"/>
    <path class="cls-4" d="M54.06643726,62.77601184h-1.26464844v-10.5h1.26464844v10.5Z"/>
  </g>
  <g>
    <path class="cls-5" d="M15.52346851,18.18275012c-.09960938,1.37695312-.60791016,2.4609375-1.52490234,3.25195312s-2.12548828,1.18652344-3.62548828,1.18652344c-1.640625,0-2.93115234-.55273438-3.87158203-1.65722656s-1.41064453-2.62011719-1.41064453-4.54785156v-.78222656c0-1.23046875.21679688-2.31445312.65039062-3.25195312s1.05322266-1.65722656,1.85888672-2.15820312,1.74169922-.75097656,2.80810547-.75097656c1.4765625,0,2.66601562.39550781,3.56835938,1.18652344s1.42382812,1.90136719,1.56445312,3.33105469h-2.63671875c-.06445312-.82617188-.29443359-1.42578125-.68994141-1.79785156s-.99755859-.55761719-1.80615234-.55761719c-.87890625,0-1.53662109.31445312-1.97314453.94433594s-.66064453,1.60742188-.67236328,2.93164062v.96679688c0,1.3828125.20947266,2.39355469.62841797,3.03222656s1.07958984.95800781,1.98193359.95800781c.81445312,0,1.42236328-.18652344,1.82373047-.55859375s.63134766-.94726562.68994141-1.7265625h2.63671875ZM10.38186695,7.39857043l1.28320312-1.25683594h2.17089844v.09667969l-2.65429688,2.46972656h-1.60839844l-2.65429688-2.48730469v-.07910156h2.17089844l1.29199219,1.25683594Z"/>
    <path class="cls-5" d="M20.12893726,10.59778918v2.33789062h1.62597656v1.86328125h-1.62597656v4.74609375c0,.3515625.06738281.60351562.20214844.75585938s.39257812.22851562.7734375.22851562c.28125,0,.53027344-.02050781.74707031-.06152344v1.92480469c-.49804688.15234375-1.01074219.22851562-1.53808594.22851562-1.78125,0-2.68945312-.89941406-2.72460938-2.69824219v-5.12402344h-1.38867188v-1.86328125h1.38867188v-2.33789062h2.54003906Z"/>
    <path class="cls-5" d="M26.7295232,19.34290637l1.76660156-6.40722656h2.65429688l-3.20800781,9.50976562h-2.42578125l-3.20800781-9.50976562h2.65429688l1.76660156,6.40722656Z"/>
    <path class="cls-5" d="M37.61038257,15.31751575c-.34570312-.046875-.65039062-.0703125-.9140625-.0703125-.9609375,0-1.59082031.32519531-1.88964844.97558594v6.22265625h-2.54003906v-9.50976562h2.39941406l.0703125,1.13378906c.50976562-.87304688,1.21582031-1.30957031,2.11816406-1.30957031.28125,0,.54492188.03808594.79101562.11425781l-.03515625,2.44335938Z"/>
    <path class="cls-5" d="M42.31253101,10.59778918v2.33789062h1.62597656v1.86328125h-1.62597656v4.74609375c0,.3515625.06738281.60351562.20214844.75585938s.39257812.22851562.7734375.22851562c.28125,0,.53027344-.02050781.74707031-.06152344v1.92480469c-.49804688.15234375-1.01074219.22851562-1.53808594.22851562-1.78125,0-2.68945312-.89941406-2.72460938-2.69824219v-5.12402344h-1.38867188v-1.86328125h1.38867188v-2.33789062h2.54003906Z"/>
    <path class="cls-5" d="M45.33596851,10.47474231c0-.38085938.12744141-.69433594.38232422-.94042969s.60205078-.36914062,1.04150391-.36914062c.43359375,0,.77929688.12304688,1.03710938.36914062s.38671875.55957031.38671875.94042969c0,.38671875-.13037109.703125-.39111328.94921875s-.60498047.36914062-1.03271484.36914062-.77197266-.12304688-1.03271484-.36914062-.39111328-.5625-.39111328-.94921875ZM48.0342107,22.44544543h-2.54882812v-9.50976562h2.54882812v9.50976562Z"/>
    <path class="cls-5" d="M52.4638982,12.93567981l.07910156,1.09863281c.6796875-.84960938,1.59082031-1.27441406,2.73339844-1.27441406,1.0078125,0,1.7578125.29589844,2.25.88769531s.74414062,1.4765625.75585938,2.65429688v6.14355469h-2.54003906v-6.08203125c0-.5390625-.1171875-.93066406-.3515625-1.17382812s-.62402344-.36425781-1.16894531-.36425781c-.71484375,0-1.25097656.3046875-1.60839844.9140625v6.70605469h-2.54003906v-9.50976562h2.390625Z"/>
    <path class="cls-5" d="M65.90237476,21.47864856c-.62695312.76171875-1.49414062,1.14257812-2.6015625,1.14257812-1.01953125,0-1.79736328-.29296875-2.33349609-.87890625s-.81005859-1.44433594-.82177734-2.57519531v-6.23144531h2.54003906v6.15039062c0,.99121094.45117188,1.48730469,1.35351562,1.48730469.86132812,0,1.453125-.29980469,1.77539062-.89746094v-6.74023438h2.54882812v9.50976562h-2.390625l-.0703125-.96679688Z"/>
    <path class="cls-5" d="M77.67971851,20.39759387h4.64941406v2.04785156h-7.89257812v-1.546875l4.47363281-5.91503906h-4.34179688v-2.04785156h7.62011719v1.49609375l-4.50878906,5.96582031Z"/>
    <path class="cls-5" d="M92.35745288,20.57337512c.46875,0,.84960938-.12890625,1.14257812-.38671875s.4453125-.60058594.45703125-1.02832031h2.38183594c-.00585938.64453125-.18164062,1.234375-.52734375,1.77050781s-.81884766.95214844-1.41943359,1.24804688-1.26416016.44433594-1.99072266.44433594c-1.359375,0-2.43164062-.43261719-3.21679688-1.296875s-1.17773438-2.05761719-1.17773438-3.58105469v-.16699219c0-1.46484375.38964844-2.63378906,1.16894531-3.50683594s1.84863281-1.30957031,3.20800781-1.30957031c1.18945312,0,2.14306641.33789062,2.86083984,1.01464844s1.08251953,1.578125,1.09423828,2.703125h-2.38183594c-.01171875-.49511719-.1640625-.89746094-.45703125-1.20605469-.29296875-.30957031-.6796875-.46386719-1.16015625-.46386719-.59179688,0-1.03857422.21582031-1.34033203.64648438-.30175781.43164062-.45263672,1.13183594-.45263672,2.09960938v.26367188c0,.98046875.14941406,1.68457031.44824219,2.11328125s.75292969.64257812,1.36230469.64257812Z"/>
    <path class="cls-5" d="M102.16604663,22.62122668c-1.39453125,0-2.52978516-.42773438-3.40576172-1.28320312s-1.31396484-1.99511719-1.31396484-3.41894531v-.24609375c0-.95507812.18457031-1.80957031.55371094-2.5625s.89208984-1.33300781,1.56884766-1.74023438,1.44873047-.61035156,2.31591797-.61035156c1.30078125,0,2.32470703.41015625,3.07177734,1.23046875s1.12060547,1.98339844,1.12060547,3.48925781v1.03710938h-6.05566406c.08203125.62109375.32958984,1.11914062.74267578,1.49414062s.93603516.5625,1.56884766.5625c.97851562,0,1.74316406-.35449219,2.29394531-1.06347656l1.24804688,1.39746094c-.38085938.5390625-.89648438.95898438-1.546875,1.26074219s-1.37109375.453125-2.16210938.453125ZM101.87600757,14.80775012c-.50390625,0-.91259766.17089844-1.22607422.51171875-.31347656.34179688-.51416016.83007812-.60205078,1.46582031h3.53320312v-.203125c-.01171875-.56542969-.1640625-1.00195312-.45703125-1.31152344-.29296875-.30859375-.70898438-.46289062-1.24804688-.46289062Z"/>
    <path class="cls-5" d="M110.19924976,22.44544543h-2.54882812v-13.5h2.54882812v13.5Z"/>
    <path class="cls-5" d="M115.7451482,18.63099231l-.9140625.9140625v2.90039062h-2.54003906v-13.5h2.54003906v7.47949219l.4921875-.6328125,2.43457031-2.85644531h3.04980469l-3.43652344,3.96386719,3.73535156,5.54589844h-2.91796875l-2.44335938-3.81445312Z"/>
    <path class="cls-5" d="M121.5107732,17.602672c0-.94335938.18164062-1.78417969.54492188-2.52246094s.88623047-1.30957031,1.56884766-1.71386719,1.47509766-.60644531,2.37744141-.60644531c1.28320312,0,2.33056641.39257812,3.14208984,1.17773438s1.26416016,1.8515625,1.35791016,3.19921875l.01757812.65039062c0,1.45898438-.40722656,2.62890625-1.22167969,3.51074219s-1.90722656,1.32324219-3.27832031,1.32324219-2.46533203-.43945312-3.28271484-1.31835938-1.22607422-2.07421875-1.22607422-3.5859375v-.11425781ZM124.05081226,17.7823595c0,.90429688.16992188,1.59472656.50976562,2.07324219s.82617188.71777344,1.45898438.71777344c.61523438,0,1.09570312-.23632812,1.44140625-.70898438s.51855469-1.22753906.51855469-2.26660156c0-.88574219-.17285156-1.57226562-.51855469-2.05957031s-.83203125-.73046875-1.45898438-.73046875c-.62109375,0-1.1015625.2421875-1.44140625.72558594-.33984375.484375-.50976562,1.234375-.50976562,2.24902344Z"/>
    <path class="cls-5" d="M135.51174976,19.34290637l1.76660156-6.40722656h2.65429688l-3.20800781,9.50976562h-2.42578125l-3.20800781-9.50976562h2.65429688l1.76660156,6.40722656Z"/>
    <path class="cls-5" d="M145.42581226,22.62122668c-1.39453125,0-2.52978516-.42773438-3.40576172-1.28320312s-1.31396484-1.99511719-1.31396484-3.41894531v-.24609375c0-.95507812.18457031-1.80957031.55371094-2.5625s.89208984-1.33300781,1.56884766-1.74023438,1.44873047-.61035156,2.31591797-.61035156c1.30078125,0,2.32470703.41015625,3.07177734,1.23046875s1.12060547,1.98339844,1.12060547,3.48925781v1.03710938h-6.05566406c.08203125.62109375.32958984,1.11914062.74267578,1.49414062s.93603516.5625,1.56884766.5625c.97851562,0,1.74316406-.35449219,2.29394531-1.06347656l1.24804688,1.39746094c-.38085938.5390625-.89648438.95898438-1.546875,1.26074219s-1.37109375.453125-2.16210938.453125ZM145.1357732,14.80775012c-.50390625,0-.91259766.17089844-1.22607422.51171875-.31347656.34179688-.51416016.83007812-.60205078,1.46582031h3.53320312v-.203125c-.01171875-.56542969-.1640625-1.00195312-.45703125-1.31152344-.29296875-.30859375-.70898438-.46289062-1.24804688-.46289062ZM145.36428882,8.94544543h2.76855469l-2.43457031,2.72460938h-2.06542969l1.73144531-2.72460938Z"/>
    <path class="cls-5" d="M160.41116382,19.81751575c0-.31054688-.15380859-.55566406-.46142578-.734375s-.80126953-.33789062-1.48095703-.47851562c-2.26171875-.47460938-3.39257812-1.43554688-3.39257812-2.8828125,0-.84375.35009766-1.54882812,1.05029297-2.11425781s1.61572266-.84765625,2.74658203-.84765625c1.20703125,0,2.17236328.28417969,2.89599609.85253906s1.08544922,1.30664062,1.08544922,2.21484375h-2.54003906c0-.36328125-.1171875-.6640625-.3515625-.90136719s-.60058594-.35546875-1.09863281-.35546875c-.42773438,0-.75878906.09667969-.99316406.29003906s-.3515625.43945312-.3515625.73828125c0,.28125.13330078.5078125.39990234.68066406s.71630859.32226562,1.34912109.44824219,1.16601562.26855469,1.59960938.42675781c1.34179688.4921875,2.01269531,1.34472656,2.01269531,2.55761719,0,.8671875-.37207031,1.56835938-1.11621094,2.10449219s-1.70507812.8046875-2.8828125.8046875c-.796875,0-1.50439453-.14257812-2.12255859-.42675781s-1.10302734-.67382812-1.45458984-1.16894531-.52734375-1.02929688-.52734375-1.60351562h2.40820312c.0234375.45117188.19042969.796875.50097656,1.03710938s.7265625.36035156,1.24804688.36035156c.48632812,0,.85400391-.09277344,1.10302734-.27734375s.37353516-.42578125.37353516-.72460938Z"/>
    <path class="cls-5" d="M173.07620288,17.77845325c0,1.46484375-.33251953,2.63769531-.99755859,3.51953125s-1.56298828,1.32324219-2.69384766,1.32324219c-.9609375,0-1.73730469-.33398438-2.32910156-1.00195312v4.48242188h-2.54003906v-13.16601562h2.35546875l.08789062.93164062c.61523438-.73828125,1.41796875-1.10742188,2.40820312-1.10742188,1.171875,0,2.08300781.43359375,2.73339844,1.30078125s.97558594,2.0625.97558594,3.5859375v.13183594ZM170.53616382,17.59388293c0-.88476562-.15673828-1.56738281-.47021484-2.04785156s-.76904297-.72070312-1.36669922-.72070312c-.796875,0-1.34472656.3046875-1.64355469.9140625v3.89355469c.31054688.62695312.86425781.94042969,1.66113281.94042969,1.21289062,0,1.81933594-.99316406,1.81933594-2.97949219Z"/>
    <path class="cls-5" d="M174.25393726,17.602672c0-.94335938.18164062-1.78417969.54492188-2.52246094s.88623047-1.30957031,1.56884766-1.71386719,1.47509766-.60644531,2.37744141-.60644531c1.28320312,0,2.33056641.39257812,3.14208984,1.17773438s1.26416016,1.8515625,1.35791016,3.19921875l.01757812.65039062c0,1.45898438-.40722656,2.62890625-1.22167969,3.51074219s-1.90722656,1.32324219-3.27832031,1.32324219-2.46533203-.43945312-3.28271484-1.31835938-1.22607422-2.07421875-1.22607422-3.5859375v-.11425781ZM176.79397632,17.7823595c0,.90429688.16992188,1.59472656.50976562,2.07324219s.82617188.71777344,1.45898438.71777344c.61523438,0,1.09570312-.23632812,1.44140625-.70898438s.51855469-1.22753906.51855469-2.26660156c0-.88574219-.17285156-1.57226562-.51855469-2.05957031s-.83203125-.73046875-1.45898438-.73046875c-.62109375,0-1.1015625.2421875-1.44140625.72558594-.33984375.484375-.50976562,1.234375-.50976562,2.24902344Z"/>
    <path class="cls-5" d="M187.86819507,10.59778918v2.33789062h1.62597656v1.86328125h-1.62597656v4.74609375c0,.3515625.06738281.60351562.20214844.75585938s.39257812.22851562.7734375.22851562c.28125,0,.53027344-.02050781.74707031-.06152344v1.92480469c-.49804688.15234375-1.01074219.22851562-1.53808594.22851562-1.78125,0-2.68945312-.89941406-2.72460938-2.69824219v-5.12402344h-1.38867188v-1.86328125h1.38867188v-2.33789062h2.54003906Z"/>
    <path class="cls-5" d="M193.54592945,10.19349231l1.28320312-1.25683594h2.17089844v.09667969l-2.65429688,2.46972656h-1.60839844l-2.65429688-2.48730469v-.07910156h2.17089844l1.29199219,1.25683594ZM196.2529607,15.31751575c-.34570312-.046875-.65039062-.0703125-.9140625-.0703125-.9609375,0-1.59082031.32519531-1.88964844.97558594v6.22265625h-2.54003906v-9.50976562h2.39941406l.0703125,1.13378906c.50976562-.87304688,1.21582031-1.30957031,2.11816406-1.30957031.28125,0,.54492188.03808594.79101562.11425781l-.03515625,2.44335938Z"/>
    <path class="cls-5" d="M201.85159351,22.62122668c-1.39453125,0-2.52978516-.42773438-3.40576172-1.28320312s-1.31396484-1.99511719-1.31396484-3.41894531v-.24609375c0-.95507812.18457031-1.80957031.55371094-2.5625s.89208984-1.33300781,1.56884766-1.74023438,1.44873047-.61035156,2.31591797-.61035156c1.30078125,0,2.32470703.41015625,3.07177734,1.23046875s1.12060547,1.98339844,1.12060547,3.48925781v1.03710938h-6.05566406c.08203125.62109375.32958984,1.11914062.74267578,1.49414062s.93603516.5625,1.56884766.5625c.97851562,0,1.74316406-.35449219,2.29394531-1.06347656l1.24804688,1.39746094c-.38085938.5390625-.89648438.95898438-1.546875,1.26074219s-1.37109375.453125-2.16210938.453125ZM201.56155445,14.80775012c-.50390625,0-.91259766.17089844-1.22607422.51171875-.31347656.34179688-.51416016.83007812-.60205078,1.46582031h3.53320312v-.203125c-.01171875-.56542969-.1640625-1.00195312-.45703125-1.31152344-.29296875-.30859375-.70898438-.46289062-1.24804688-.46289062Z"/>
    <path class="cls-5" d="M215.77346851,17.77845325c0,1.5234375-.32519531,2.7109375-.97558594,3.56347656s-1.55859375,1.27929688-2.72460938,1.27929688c-1.03125,0-1.85449219-.39550781-2.46972656-1.18652344l-.11425781,1.01074219h-2.28515625v-13.5h2.54003906v4.84277344c.5859375-.68554688,1.35644531-1.02832031,2.31152344-1.02832031,1.16015625,0,2.06982422.42578125,2.72900391,1.27832031s.98876953,2.05273438.98876953,3.59960938v.140625ZM213.23342945,17.59388293c0-.9609375-.15234375-1.66308594-.45703125-2.10546875s-.75878906-.66308594-1.36230469-.66308594c-.80859375,0-1.36523438.33105469-1.66992188.99316406v3.75292969c.31054688.66796875.87304688,1.00195312,1.6875,1.00195312.8203125,0,1.359375-.40429688,1.6171875-1.21289062.12304688-.38671875.18457031-.97558594.18457031-1.76660156Z"/>
    <path class="cls-5" d="M220.88870288,18.85071887l1.7578125-5.91503906h2.72460938l-3.82324219,10.98632812-.2109375.50097656c-.56835938,1.2421875-1.50585938,1.86328125-2.8125,1.86328125-.36914062,0-.74414062-.05566406-1.125-.16699219v-1.92480469l.38671875.00878906c.48046875,0,.83935547-.07324219,1.07666016-.21972656s.42333984-.38964844.55810547-.72949219l.29882812-.78222656-3.33105469-9.53613281h2.73339844l1.76660156,5.91503906Z"/>
    <path class="cls-5" d="M235.23245288,22.62122668c-1.39453125,0-2.52978516-.42773438-3.40576172-1.28320312s-1.31396484-1.99511719-1.31396484-3.41894531v-.24609375c0-.95507812.18457031-1.80957031.55371094-2.5625s.89208984-1.33300781,1.56884766-1.74023438,1.44873047-.61035156,2.31591797-.61035156c1.30078125,0,2.32470703.41015625,3.07177734,1.23046875s1.12060547,1.98339844,1.12060547,3.48925781v1.03710938h-6.05566406c.08203125.62109375.32958984,1.11914062.74267578,1.49414062s.93603516.5625,1.56884766.5625c.97851562,0,1.74316406-.35449219,2.29394531-1.06347656l1.24804688,1.39746094c-.38085938.5390625-.89648438.95898438-1.546875,1.26074219s-1.37109375.453125-2.16210938.453125ZM234.94241382,14.80775012c-.50390625,0-.91259766.17089844-1.22607422.51171875-.31347656.34179688-.51416016.83007812-.60205078,1.46582031h3.53320312v-.203125c-.01171875-.56542969-.1640625-1.00195312-.45703125-1.31152344-.29296875-.30859375-.70898438-.46289062-1.24804688-.46289062Z"/>
    <path class="cls-5" d="M243.26565601,22.44544543h-2.54882812v-13.5h2.54882812v13.5Z"/>
    <path class="cls-5" d="M249.73440601,22.62122668c-1.39453125,0-2.52978516-.42773438-3.40576172-1.28320312s-1.31396484-1.99511719-1.31396484-3.41894531v-.24609375c0-.95507812.18457031-1.80957031.55371094-2.5625s.89208984-1.33300781,1.56884766-1.74023438,1.44873047-.61035156,2.31591797-.61035156c1.30078125,0,2.32470703.41015625,3.07177734,1.23046875s1.12060547,1.98339844,1.12060547,3.48925781v1.03710938h-6.05566406c.08203125.62109375.32958984,1.11914062.74267578,1.49414062s.93603516.5625,1.56884766.5625c.97851562,0,1.74316406-.35449219,2.29394531-1.06347656l1.24804688,1.39746094c-.38085938.5390625-.89648438.95898438-1.546875,1.26074219s-1.37109375.453125-2.16210938.453125ZM249.44436695,14.80775012c-.50390625,0-.91259766.17089844-1.22607422.51171875-.31347656.34179688-.51416016.83007812-.60205078,1.46582031h3.53320312v-.203125c-.01171875-.56542969-.1640625-1.00195312-.45703125-1.31152344-.29296875-.30859375-.70898438-.46289062-1.24804688-.46289062Z"/>
    <path class="cls-5" d="M258.54104663,18.63099231l-.9140625.9140625v2.90039062h-2.54003906v-13.5h2.54003906v7.47949219l.4921875-.6328125,2.43457031-2.85644531h3.04980469l-3.43652344,3.96386719,3.73535156,5.54589844h-2.91796875l-2.44335938-3.81445312Z"/>
    <path class="cls-5" d="M267.74319507,10.59778918v2.33789062h1.62597656v1.86328125h-1.62597656v4.74609375c0,.3515625.06738281.60351562.20214844.75585938s.39257812.22851562.7734375.22851562c.28125,0,.53027344-.02050781.74707031-.06152344v1.92480469c-.49804688.15234375-1.01074219.22851562-1.53808594.22851562-1.78125,0-2.68945312-.89941406-2.72460938-2.69824219v-5.12402344h-1.38867188v-1.86328125h1.38867188v-2.33789062h2.54003906Z"/>
    <path class="cls-5" d="M273.42092945,10.19349231l1.28320312-1.25683594h2.17089844v.09667969l-2.65429688,2.46972656h-1.60839844l-2.65429688-2.48730469v-.07910156h2.17089844l1.29199219,1.25683594ZM276.1279607,15.31751575c-.34570312-.046875-.65039062-.0703125-.9140625-.0703125-.9609375,0-1.59082031.32519531-1.88964844.97558594v6.22265625h-2.54003906v-9.50976562h2.39941406l.0703125,1.13378906c.50976562-.87304688,1.21582031-1.30957031,2.11816406-1.30957031.28125,0,.54492188.03808594.79101562.11425781l-.03515625,2.44335938Z"/>
    <path class="cls-5" d="M277.33206226,10.47474231c0-.38085938.12744141-.69433594.38232422-.94042969s.60205078-.36914062,1.04150391-.36914062c.43359375,0,.77929688.12304688,1.03710938.36914062s.38671875.55957031.38671875.94042969c0,.38671875-.13037109.703125-.39111328.94921875s-.60498047.36914062-1.03271484.36914062-.77197266-.12304688-1.03271484-.36914062-.39111328-.5625-.39111328-.94921875ZM280.03030445,22.44544543h-2.54882812v-9.50976562h2.54882812v9.50976562Z"/>
    <path class="cls-5" d="M284.45999195,12.93567981l.07910156,1.09863281c.6796875-.84960938,1.59082031-1.27441406,2.73339844-1.27441406,1.0078125,0,1.7578125.29589844,2.25.88769531s.74414062,1.4765625.75585938,2.65429688v6.14355469h-2.54003906v-6.08203125c0-.5390625-.1171875-.93066406-.3515625-1.17382812s-.62402344-.36425781-1.16894531-.36425781c-.71484375,0-1.25097656.3046875-1.60839844.9140625v6.70605469h-2.54003906v-9.50976562h2.390625Z"/>
    <path class="cls-5" d="M295.75393726,18.85071887l1.7578125-5.91503906h2.72460938l-3.82324219,10.98632812-.2109375.50097656c-.56835938,1.2421875-1.50585938,1.86328125-2.8125,1.86328125-.36914062,0-.74414062-.05566406-1.125-.16699219v-1.92480469l.38671875.00878906c.48046875,0,.83935547-.07324219,1.07666016-.21972656s.42333984-.38964844.55810547-.72949219l.29882812-.78222656-3.33105469-9.53613281h2.73339844l1.76660156,5.91503906Z"/>
    <path class="cls-5" d="M309.28030445,19.34290637l1.76660156-6.40722656h2.65429688l-3.20800781,9.50976562h-2.42578125l-3.20800781-9.50976562h2.65429688l1.76660156,6.40722656Z"/>
    <path class="cls-5" d="M329.51272632,18.18275012c-.09960938,1.37695312-.60791016,2.4609375-1.52490234,3.25195312s-2.12548828,1.18652344-3.62548828,1.18652344c-1.640625,0-2.93115234-.55273438-3.87158203-1.65722656s-1.41064453-2.62011719-1.41064453-4.54785156v-.78222656c0-1.23046875.21679688-2.31445312.65039062-3.25195312s1.05322266-1.65722656,1.85888672-2.15820312,1.74169922-.75097656,2.80810547-.75097656c1.4765625,0,2.66601562.39550781,3.56835938,1.18652344s1.42382812,1.90136719,1.56445312,3.33105469h-2.63671875c-.06445312-.82617188-.29443359-1.42578125-.68994141-1.79785156s-.99755859-.55761719-1.80615234-.55761719c-.87890625,0-1.53662109.31445312-1.97314453.94433594s-.66064453,1.60742188-.67236328,2.93164062v.96679688c0,1.3828125.20947266,2.39355469.62841797,3.03222656s1.07958984.95800781,1.98193359.95800781c.81445312,0,1.42236328-.18652344,1.82373047-.55859375s.63134766-.94726562.68994141-1.7265625h2.63671875ZM324.37112476,7.39857043l1.28320312-1.25683594h2.17089844v.09667969l-2.65429688,2.46972656h-1.60839844l-2.65429688-2.48730469v-.07910156h2.17089844l1.29199219,1.25683594Z"/>
    <path class="cls-5" d="M335.98147632,17.76087512h-2.10058594v4.68457031h-2.63671875v-12.796875h4.75488281c1.51171875,0,2.67773438.33691406,3.49804688,1.01074219s1.23046875,1.62597656,1.23046875,2.85644531c0,.87304688-.18896484,1.60058594-.56689453,2.18359375s-.95068359,1.04785156-1.71826172,1.39355469l2.76855469,5.22949219v.12304688h-2.83007812l-2.39941406-4.68457031ZM333.88089038,15.62513293h2.12695312c.66210938,0,1.17480469-.16894531,1.53808594-.50585938s.54492188-.80078125.54492188-1.39257812c0-.60351562-.17138672-1.078125-.51416016-1.42382812s-.86865234-.51855469-1.57763672-.51855469h-2.11816406v3.84082031Z"/>
    <path class="cls-5" d="M350.08792163,10.59778918v2.33789062h1.62597656v1.86328125h-1.62597656v4.74609375c0,.3515625.06738281.60351562.20214844.75585938s.39257812.22851562.7734375.22851562c.28125,0,.53027344-.02050781.74707031-.06152344v1.92480469c-.49804688.15234375-1.01074219.22851562-1.53808594.22851562-1.78125,0-2.68945312-.89941406-2.72460938-2.69824219v-5.12402344h-1.38867188v-1.86328125h1.38867188v-2.33789062h2.54003906Z"/>
    <path class="cls-5" d="M356.68850757,19.34290637l1.76660156-6.40722656h2.65429688l-3.20800781,9.50976562h-2.42578125l-3.20800781-9.50976562h2.65429688l1.76660156,6.40722656Z"/>
    <path class="cls-5" d="M361.6982732,17.602672c0-.94335938.18164062-1.78417969.54492188-2.52246094s.88623047-1.30957031,1.56884766-1.71386719,1.47509766-.60644531,2.37744141-.60644531c1.28320312,0,2.33056641.39257812,3.14208984,1.17773438s1.26416016,1.8515625,1.35791016,3.19921875l.01757812.65039062c0,1.45898438-.40722656,2.62890625-1.22167969,3.51074219s-1.90722656,1.32324219-3.27832031,1.32324219-2.46533203-.43945312-3.28271484-1.31835938-1.22607422-2.07421875-1.22607422-3.5859375v-.11425781ZM364.23831226,17.7823595c0,.90429688.16992188,1.59472656.50976562,2.07324219s.82617188.71777344,1.45898438.71777344c.61523438,0,1.09570312-.23632812,1.44140625-.70898438s.51855469-1.22753906.51855469-2.26660156c0-.88574219-.17285156-1.57226562-.51855469-2.05957031s-.83203125-.73046875-1.45898438-.73046875c-.62109375,0-1.1015625.2421875-1.44140625.72558594-.33984375.484375-.50976562,1.234375-.50976562,2.24902344Z"/>
    <path class="cls-5" d="M374.90823413,10.19349231l1.28320312-1.25683594h2.17089844v.09667969l-2.65429688,2.46972656h-1.60839844l-2.65429688-2.48730469v-.07910156h2.17089844l1.29199219,1.25683594ZM377.61526538,15.31751575c-.34570312-.046875-.65039062-.0703125-.9140625-.0703125-.9609375,0-1.59082031.32519531-1.88964844.97558594v6.22265625h-2.54003906v-9.50976562h2.39941406l.0703125,1.13378906c.50976562-.87304688,1.21582031-1.30957031,2.11816406-1.30957031.28125,0,.54492188.03808594.79101562.11425781l-.03515625,2.44335938Z"/>
    <path class="cls-5" d="M381.57913257,22.44544543h-2.54003906v-9.50976562h2.54003906v9.50976562ZM380.83206226,9.07728137h2.76855469l-2.43457031,2.72460938h-2.06542969l1.73144531-2.72460938Z"/>
    <path class="cls-3" d="M387.8545232,17.62025012c0-1.48242188.33251953-2.66308594.99755859-3.54199219s1.57470703-1.31835938,2.72900391-1.31835938c.92578125,0,1.69042969.34570312,2.29394531,1.03710938v-4.8515625h2.54882812v13.5h-2.29394531l-.12304688-1.01074219c-.6328125.79101562-1.44726562,1.18652344-2.44335938,1.18652344-1.11914062,0-2.01708984-.44140625-2.69384766-1.32324219s-1.01513672-2.10742188-1.01513672-3.67773438ZM390.39456226,17.80872668c0,.89257812.15527344,1.57617188.46582031,2.05175781.31054688.47460938.76171875.71289062,1.35351562.71289062.78515625,0,1.33886719-.33203125,1.66113281-.99511719v-3.75878906c-.31640625-.66308594-.86425781-.99414062-1.64355469-.99414062-1.22460938,0-1.83691406.99414062-1.83691406,2.98339844Z"/>
    <path class="cls-3" d="M397.99710132,17.602672c0-.94335938.18164062-1.78417969.54492188-2.52246094s.88623047-1.30957031,1.56884766-1.71386719,1.47509766-.60644531,2.37744141-.60644531c1.28320312,0,2.33056641.39257812,3.14208984,1.17773438s1.26416016,1.8515625,1.35791016,3.19921875l.01757812.65039062c0,1.45898438-.40722656,2.62890625-1.22167969,3.51074219s-1.90722656,1.32324219-3.27832031,1.32324219-2.46533203-.43945312-3.28271484-1.31835938-1.22607422-2.07421875-1.22607422-3.5859375v-.11425781ZM400.53714038,17.7823595c0,.90429688.16992188,1.59472656.50976562,2.07324219s.82617188.71777344,1.45898438.71777344c.61523438,0,1.09570312-.23632812,1.44140625-.70898438s.51855469-1.22753906.51855469-2.26660156c0-.88574219-.17285156-1.57226562-.51855469-2.05957031s-.83203125-.73046875-1.45898438-.73046875c-.62109375,0-1.1015625.2421875-1.44140625.72558594-.33984375.484375-.50976562,1.234375-.50976562,2.24902344Z"/>
    <path class="cls-3" d="M410.95217945,12.93567981l.07910156,1.06347656c.67382812-.82617188,1.58496094-1.23925781,2.73339844-1.23925781,1.22460938,0,2.06542969.48339844,2.52246094,1.45019531.66796875-.96679688,1.62011719-1.45019531,2.85644531-1.45019531,1.03125,0,1.79882812.29980469,2.30273438.90039062s.75585938,1.50488281.75585938,2.71191406v6.07324219h-2.54882812v-6.06445312c0-.5390625-.10546875-.93359375-.31640625-1.18261719s-.58300781-.37304688-1.11621094-.37304688c-.76171875,0-1.2890625.36328125-1.58203125,1.08984375l.00878906,6.53027344h-2.54003906v-6.05566406c0-.55078125-.10839844-.94921875-.32519531-1.1953125s-.5859375-.36914062-1.10742188-.36914062c-.72070312,0-1.2421875.29882812-1.56445312.89648438v6.72363281h-2.54003906v-9.50976562h2.38183594Z"/>
    <path class="cls-3" d="M429.66409351,22.44544543c-.1171875-.22851562-.20214844-.51269531-.25488281-.85253906-.61523438.68554688-1.41503906,1.02832031-2.39941406,1.02832031-.93164062,0-1.70361328-.26953125-2.31591797-.80859375s-.91845703-1.21875-.91845703-2.0390625c0-1.0078125.37353516-1.78125,1.12060547-2.3203125s1.82666016-.81152344,3.23876953-.81738281h1.16894531v-.54492188c0-.43945312-.11279297-.79101562-.33837891-1.0546875s-.58154297-.39550781-1.06787109-.39550781c-.42773438,0-.76318359.10253906-1.00634766.30761719s-.36474609.48632812-.36474609.84375h-2.54003906c0-.55078125.16992188-1.06054688.50976562-1.52929688s.8203125-.83691406,1.44140625-1.10351562,1.31835938-.39941406,2.09179688-.39941406c1.171875,0,2.10205078.29394531,2.79052734.8828125s1.03271484,1.41699219,1.03271484,2.48339844v4.12207031c.00585938.90234375.13183594,1.58496094.37792969,2.04785156v.14941406h-2.56640625ZM427.56350757,20.67884387c.375,0,.72070312-.08398438,1.03710938-.25097656s.55078125-.390625.703125-.671875v-1.63476562h-.94921875c-1.27148438,0-1.94824219.43945312-2.03027344,1.31835938l-.00878906.14941406c0,.31640625.11132812.57714844.33398438.78222656s.52734375.30761719.9140625.30761719ZM428.53030445,8.94544543h2.76855469l-2.43457031,2.72460938h-2.06542969l1.73144531-2.72460938Z"/>
    <path class="cls-3" d="M437.75882007,20.57337512c.46875,0,.84960938-.12890625,1.14257812-.38671875s.4453125-.60058594.45703125-1.02832031h2.38183594c-.00585938.64453125-.18164062,1.234375-.52734375,1.77050781s-.81884766.95214844-1.41943359,1.24804688-1.26416016.44433594-1.99072266.44433594c-1.359375,0-2.43164062-.43261719-3.21679688-1.296875s-1.17773438-2.05761719-1.17773438-3.58105469v-.16699219c0-1.46484375.38964844-2.63378906,1.16894531-3.50683594s1.84863281-1.30957031,3.20800781-1.30957031c1.18945312,0,2.14306641.33789062,2.86083984,1.01464844s1.08251953,1.578125,1.09423828,2.703125h-2.38183594c-.01171875-.49511719-.1640625-.89746094-.45703125-1.20605469-.29296875-.30957031-.6796875-.46386719-1.16015625-.46386719-.59179688,0-1.03857422.21582031-1.34033203.64648438-.30175781.43164062-.45263672,1.13183594-.45263672,2.09960938v.26367188c0,.98046875.14941406,1.68457031.44824219,2.11328125s.75292969.64257812,1.36230469.64257812Z"/>
    <path class="cls-3" d="M445.52835132,12.93567981l.07910156,1.09863281c.6796875-.84960938,1.59082031-1.27441406,2.73339844-1.27441406,1.0078125,0,1.7578125.29589844,2.25.88769531s.74414062,1.4765625.75585938,2.65429688v6.14355469h-2.54003906v-6.08203125c0-.5390625-.1171875-.93066406-.3515625-1.17382812s-.62402344-.36425781-1.16894531-.36425781c-.71484375,0-1.25097656.3046875-1.60839844.9140625v6.70605469h-2.54003906v-9.50976562h2.390625Z"/>
    <path class="cls-3" d="M452.87600757,17.602672c0-.94335938.18164062-1.78417969.54492188-2.52246094s.88623047-1.30957031,1.56884766-1.71386719,1.47509766-.60644531,2.37744141-.60644531c1.28320312,0,2.33056641.39257812,3.14208984,1.17773438s1.26416016,1.8515625,1.35791016,3.19921875l.01757812.65039062c0,1.45898438-.40722656,2.62890625-1.22167969,3.51074219s-1.90722656,1.32324219-3.27832031,1.32324219-2.46533203-.43945312-3.28271484-1.31835938-1.22607422-2.07421875-1.22607422-3.5859375v-.11425781ZM455.41604663,17.7823595c0,.90429688.16992188,1.59472656.50976562,2.07324219s.82617188.71777344,1.45898438.71777344c.61523438,0,1.09570312-.23632812,1.44140625-.70898438s.51855469-1.22753906.51855469-2.26660156c0-.88574219-.17285156-1.57226562-.51855469-2.05957031s-.83203125-.73046875-1.45898438-.73046875c-.62109375,0-1.1015625.2421875-1.44140625.72558594-.33984375.484375-.50976562,1.234375-.50976562,2.24902344Z"/>
    <path class="cls-3" d="M468.59964038,19.81751575c0-.31054688-.15380859-.55566406-.46142578-.734375s-.80126953-.33789062-1.48095703-.47851562c-2.26171875-.47460938-3.39257812-1.43554688-3.39257812-2.8828125,0-.84375.35009766-1.54882812,1.05029297-2.11425781s1.61572266-.84765625,2.74658203-.84765625c1.20703125,0,2.17236328.28417969,2.89599609.85253906s1.08544922,1.30664062,1.08544922,2.21484375h-2.54003906c0-.36328125-.1171875-.6640625-.3515625-.90136719s-.60058594-.35546875-1.09863281-.35546875c-.42773438,0-.75878906.09667969-.99316406.29003906s-.3515625.43945312-.3515625.73828125c0,.28125.13330078.5078125.39990234.68066406s.71630859.32226562,1.34912109.44824219,1.16601562.26855469,1.59960938.42675781c1.34179688.4921875,2.01269531,1.34472656,2.01269531,2.55761719,0,.8671875-.37207031,1.56835938-1.11621094,2.10449219s-1.70507812.8046875-2.8828125.8046875c-.796875,0-1.50439453-.14257812-2.12255859-.42675781s-1.10302734-.67382812-1.45458984-1.16894531-.52734375-1.02929688-.52734375-1.60351562h2.40820312c.0234375.45117188.19042969.796875.50097656,1.03710938s.7265625.36035156,1.24804688.36035156c.48632812,0,.85400391-.09277344,1.10302734-.27734375s.37353516-.42578125.37353516-.72460938Z"/>
    <path class="cls-3" d="M475.7451482,10.59778918v2.33789062h1.62597656v1.86328125h-1.62597656v4.74609375c0,.3515625.06738281.60351562.20214844.75585938s.39257812.22851562.7734375.22851562c.28125,0,.53027344-.02050781.74707031-.06152344v1.92480469c-.49804688.15234375-1.01074219.22851562-1.53808594.22851562-1.78125,0-2.68945312-.89941406-2.72460938-2.69824219v-5.12402344h-1.38867188v-1.86328125h1.38867188v-2.33789062h2.54003906Z"/>
    <path class="cls-3" d="M478.7685857,10.47474231c0-.38085938.12744141-.69433594.38232422-.94042969s.60205078-.36914062,1.04150391-.36914062c.43359375,0,.77929688.12304688,1.03710938.36914062s.38671875.55957031.38671875.94042969c0,.38671875-.13037109.703125-.39111328.94921875s-.60498047.36914062-1.03271484.36914062-.77197266-.12304688-1.03271484-.36914062-.39111328-.5625-.39111328-.94921875ZM481.46682788,22.44544543h-2.54882812v-9.50976562h2.54882812v9.50976562Z"/>
  </g>
  <g>
    <path class="cls-3" d="M247.02346851,62.77601184v-9.953125h3.0625c.875,0,1.65771484.19726562,2.34814453.59130859s1.22949219.95458984,1.61669922,1.68164062.58105469,1.55273438.58105469,2.47802734v.45800781c0,.92529297-.19042969,1.74755859-.57080078,2.46777344s-.91699219,1.27832031-1.60986328,1.67480469-1.47412109.59716797-2.34472656.6015625h-3.08300781ZM249.07424976,54.48401965v6.64453125h.99121094c.80224609,0,1.41503906-.26220703,1.83886719-.78613281s.64013672-1.27392578.64941406-2.24902344v-.52636719c0-1.01171875-.20947266-1.77832031-.62890625-2.30029297s-1.03222656-.78271484-1.83886719-.78271484h-1.01171875Z"/>
    <path class="cls-3" d="M255.68460132,59.00941028c0-.73388672.14111328-1.38769531.42382812-1.96191406s.68945312-1.01855469,1.22021484-1.33300781,1.14746094-.47167969,1.84912109-.47167969c.99804688,0,1.8125.30517578,2.44384766.91601562s.98339844,1.43994141,1.05615234,2.48828125l.01367188.50585938c0,1.13476562-.31689453,2.04492188-.95019531,2.73095703s-1.48339844,1.02880859-2.54980469,1.02880859-1.91748047-.34179688-2.55322266-1.02539062-.95361328-1.61328125-.95361328-2.7890625v-.08886719ZM257.66018726,59.149547c0,.703125.13232422,1.24072266.39648438,1.61230469.26416016.37207031.64257812.55810547,1.13476562.55810547.47851562,0,.85205078-.18359375,1.12109375-.55126953.26904297-.3671875.40332031-.95507812.40332031-1.76269531,0-.68945312-.13427734-1.22314453-.40332031-1.60205078s-.64697266-.56835938-1.13476562-.56835938c-.48291016,0-.85693359.18847656-1.12109375.56494141s-.39648438.95947266-.39648438,1.74902344Z"/>
    <path class="cls-3" d="M265.7607732,55.37952747l.06152344.82714844c.52392578-.64257812,1.23291016-.96386719,2.12597656-.96386719.95263672,0,1.60644531.37597656,1.96191406,1.12792969.51953125-.75195312,1.26025391-1.12792969,2.22167969-1.12792969.80224609,0,1.39892578.23339844,1.79101562.70068359s.58789062,1.16992188.58789062,2.10888672v4.72363281h-1.98242188v-4.71679688c0-.41943359-.08203125-.72558594-.24609375-.91943359s-.45361328-.29052734-.86816406-.29052734c-.59228516,0-1.00244141.28271484-1.23046875.84765625l.00683594,5.07910156h-1.97558594v-4.70996094c0-.42822266-.08447266-.73828125-.25292969-.9296875s-.45556641-.28710938-.86132812-.28710938c-.56054688,0-.96630859.23242188-1.21679688.69726562v5.22949219h-1.97558594v-7.39648438h1.85253906Z"/>
    <path class="cls-3" d="M280.31448413,62.77601184c-.09130859-.17773438-.15722656-.39892578-.19824219-.66308594-.47851562.53320312-1.10058594.79980469-1.86621094.79980469-.72460938,0-1.32519531-.20947266-1.80126953-.62890625s-.71435547-.94775391-.71435547-1.5859375c0-.78369141.29052734-1.38525391.87158203-1.8046875s1.42089844-.63134766,2.51904297-.63574219h.90917969v-.42382812c0-.34179688-.08789062-.61523438-.26318359-.8203125s-.45214844-.30761719-.83056641-.30761719c-.33251953,0-.59375.07958984-.78271484.23925781s-.28369141.37841797-.28369141.65625h-1.97558594c0-.42822266.13232422-.82470703.39648438-1.18945312s.63818359-.65039062,1.12109375-.85791016,1.02539062-.31103516,1.62695312-.31103516c.91162109,0,1.63476562.22900391,2.17041016.68701172s.80322266,1.1015625.80322266,1.93115234v3.20605469c.00439453.70166016.10253906,1.23291016.29394531,1.59277344v.11621094h-1.99609375ZM278.68069507,61.4019884c.29150391,0,.56054688-.06494141.80664062-.19482422s.42822266-.30419922.546875-.52294922v-1.27148438h-.73828125c-.98876953,0-1.51513672.34179688-1.57910156,1.02539062l-.00683594.11621094c0,.24609375.08642578.44873047.25976562.60839844s.41015625.23925781.7109375.23925781ZM279.4326482,52.27601184h2.15332031l-1.89355469,2.11914062h-1.60644531l1.34667969-2.11914062Z"/>
    <path class="cls-3" d="M286.61038257,61.31995715c.36474609,0,.66064453-.10009766.88867188-.30078125s.34619141-.46728516.35546875-.79980469h1.85253906c-.00439453.50146484-.14111328.96044922-.41015625,1.37744141s-.63671875.74072266-1.10400391.97070312-.98339844.34521484-1.54833984.34521484c-1.05712891,0-1.89111328-.3359375-2.50195312-1.00830078s-.91601562-1.60058594-.91601562-2.78564453v-.12988281c0-1.13916016.30322266-2.04833984.90917969-2.72753906s1.43798828-1.01855469,2.49511719-1.01855469c.92529297,0,1.66699219.26318359,2.22509766.78955078s.84179688,1.22705078.85107422,2.10205078h-1.85253906c-.00927734-.38476562-.12744141-.69726562-.35546875-.93798828s-.52880859-.36083984-.90234375-.36083984c-.46044922,0-.80761719.16796875-1.04248047.50341797s-.35205078.87939453-.35205078,1.6328125v.20507812c0,.76220703.11621094,1.31005859.34863281,1.64306641.23242188.33349609.58544922.5,1.05957031.5Z"/>
    <path class="cls-3" d="M292.65335132,55.37952747l.06152344.85449219c.52880859-.66064453,1.23730469-.99121094,2.12597656-.99121094.78369141,0,1.3671875.22998047,1.75.69042969s.57861328,1.1484375.58789062,2.06445312v4.77832031h-1.97558594v-4.73046875c0-.41943359-.09130859-.72363281-.2734375-.91259766s-.48535156-.28369141-.90917969-.28369141c-.55615234,0-.97314453.23681641-1.25097656.7109375v5.21582031h-1.97558594v-7.39648438h1.859375Z"/>
    <path class="cls-3" d="M298.36819507,59.00941028c0-.73388672.14111328-1.38769531.42382812-1.96191406s.68945312-1.01855469,1.22021484-1.33300781,1.14746094-.47167969,1.84912109-.47167969c.99804688,0,1.8125.30517578,2.44384766.91601562s.98339844,1.43994141,1.05615234,2.48828125l.01367188.50585938c0,1.13476562-.31689453,2.04492188-.95019531,2.73095703s-1.48339844,1.02880859-2.54980469,1.02880859-1.91748047-.34179688-2.55322266-1.02539062-.95361328-1.61328125-.95361328-2.7890625v-.08886719ZM300.34378101,59.149547c0,.703125.13232422,1.24072266.39648438,1.61230469.26416016.37207031.64257812.55810547,1.13476562.55810547.47851562,0,.85205078-.18359375,1.12109375-.55126953.26904297-.3671875.40332031-.95507812.40332031-1.76269531,0-.68945312-.13427734-1.22314453-.40332031-1.60205078s-.64697266-.56835938-1.13476562-.56835938c-.48291016,0-.85693359.18847656-1.12109375.56494141s-.39648438.95947266-.39648438,1.74902344Z"/>
    <path class="cls-3" d="M310.59768726,60.73206653c0-.24169922-.11962891-.43164062-.35888672-.57080078s-.62304688-.26318359-1.15185547-.37255859c-1.75927734-.36914062-2.63867188-1.11669922-2.63867188-2.2421875,0-.65625.27246094-1.20410156.81689453-1.64404297s1.25683594-.65966797,2.13623047-.65966797c.93896484,0,1.68945312.22119141,2.25244141.66308594s.84423828,1.01611328.84423828,1.72265625h-1.97558594c0-.28271484-.09130859-.51611328-.2734375-.70068359s-.46728516-.27685547-.85449219-.27685547c-.33251953,0-.59033203.07519531-.77246094.22558594s-.2734375.34179688-.2734375.57421875c0,.21875.10351562.39550781.31103516.52978516s.55712891.25048828,1.04931641.34863281.90673828.20849609,1.24414062.33154297c1.04345703.3828125,1.56542969,1.04589844,1.56542969,1.98925781,0,.67431641-.28955078,1.22021484-.86816406,1.63720703s-1.32617188.62548828-2.2421875.62548828c-.61962891,0-1.16992188-.11035156-1.65087891-.33154297s-.85791016-.52392578-1.13134766-.90917969-.41015625-.80078125-.41015625-1.24755859h1.87304688c.01806641.35107422.14794922.61962891.38964844.80664062s.56494141.28027344.97070312.28027344c.37841797,0,.6640625-.07177734.85791016-.21533203s.29052734-.33154297.29052734-.56396484Z"/>
    <path class="cls-3" d="M316.15530445,53.56116809v1.81835938h1.26464844v1.44921875h-1.26464844v3.69140625c0,.2734375.05224609.46923828.15722656.58789062s.30517578.17773438.6015625.17773438c.21875,0,.41259766-.01611328.58105469-.04785156v1.49707031c-.38720703.11865234-.78613281.17773438-1.19628906.17773438-1.38525391,0-2.09179688-.69970703-2.11914062-2.09863281v-3.98535156h-1.08007812v-1.44921875h1.08007812v-1.81835938h1.97558594Z"/>
    <path class="cls-3" d="M318.50686695,53.46546497c0-.29638672.09912109-.54003906.29736328-.73144531s.46826172-.28710938.81005859-.28710938c.33740234,0,.60595703.09570312.80664062.28710938s.30078125.43505859.30078125.73144531c0,.30078125-.1015625.546875-.30419922.73828125s-.47070312.28710938-.80322266.28710938-.60058594-.09570312-.80322266-.28710938-.30419922-.4375-.30419922-.73828125ZM320.60549976,62.77601184h-1.98242188v-7.39648438h1.98242188v7.39648438Z"/>
  </g>
  <g>
    <path class="cls-4" d="M428.70755054,58.1207384c0,.97509766-.1640625,1.82617188-.4921875,2.55322266s-.79296875,1.28173828-1.39453125,1.66455078-1.30322266.57421875-2.10546875.57421875c-.78369141,0-1.47900391-.19238281-2.08496094-.57763672s-1.07666016-.93408203-1.41162109-1.64746094-.50683594-1.5390625-.51611328-2.47802734v-.71777344c0-.95703125.16650391-1.80224609.49902344-2.53613281s.80322266-1.29541016,1.41162109-1.68505859,1.3046875-.58447266,2.08837891-.58447266c.79736328,0,1.50048828.19238281,2.10888672.57763672s1.07666016.94335938,1.40478516,1.67480469.4921875,1.58251953.4921875,2.55322266v.62890625ZM427.40188648,57.47816028c0-1.18017578-.23681641-2.0859375-.7109375-2.71728516s-1.13720703-.94677734-1.98925781-.94677734c-.82958984,0-1.48242188.31542969-1.95849609.94677734s-.72119141,1.50732422-.73486328,2.62841797v.73144531c0,1.14404297.24023438,2.04296875.72119141,2.69677734s1.14257812.98095703,1.98583984.98095703c.84765625,0,1.50390625-.30859375,1.96875-.92626953s.70410156-1.50292969.71777344-2.65576172v-.73828125Z"/>
    <path class="cls-4" d="M436.7397771,59.1598009c0,1.13037109-.25976562,2.03808594-.77929688,2.72412109s-1.21679688,1.02880859-2.09179688,1.02880859c-.93408203,0-1.65673828-.33056641-2.16699219-.99121094l-.06152344.85449219h-1.16210938v-10.5h1.26464844v3.91699219c.51025391-.63330078,1.21435547-.95019531,2.11230469-.95019531s1.60302734.33935547,2.11572266,1.01855469.76904297,1.60888672.76904297,2.7890625v.109375ZM435.47512867,59.01624622c0-.86132812-.16650391-1.52685547-.49902344-1.99609375s-.81103516-.70410156-1.43554688-.70410156c-.83398438,0-1.43310547.38720703-1.79785156,1.16210938v3.19921875c.38720703.77490234.99121094,1.16210938,1.81152344,1.16210938.60595703,0,1.07763672-.23486328,1.41503906-.70410156s.50585938-1.17578125.50585938-2.11914062Z"/>
    <path class="cls-4" d="M441.29934742,61.88050403c.45117188,0,.84521484-.13671875,1.18261719-.41015625s.52392578-.61523438.56054688-1.02539062h1.19628906c-.02294922.42382812-.16845703.82714844-.4375,1.20996094s-.62792969.68798828-1.07666016.91601562-.92382812.34179688-1.42529297.34179688c-1.00732422,0-1.80810547-.3359375-2.40283203-1.00830078s-.89208984-1.59179688-.89208984-2.75830078v-.21191406c0-.72021484.13232422-1.36035156.39648438-1.92089844s.64355469-.99560547,1.13818359-1.30566406,1.07910156-.46484375,1.75341797-.46484375c.82958984,0,1.51855469.24853516,2.06787109.74511719s.84179688,1.14160156.87841797,1.93457031h-1.19628906c-.03662109-.47851562-.21777344-.87158203-.54345703-1.17919922s-.72802734-.46142578-1.20654297-.46142578c-.64257812,0-1.140625.23144531-1.49365234.69384766s-.52978516,1.13134766-.52978516,2.00634766v.23925781c0,.85205078.17529297,1.50830078.52636719,1.96875s.85205078.69042969,1.50390625.69042969Z"/>
    <path class="cls-4" d="M446.92532398,56.27503528c.56054688-.68798828,1.28955078-1.03222656,2.1875-1.03222656,1.56298828,0,2.3515625.88183594,2.36523438,2.64550781v4.88769531h-1.26464844v-4.89453125c-.00439453-.53320312-.12646484-.92724609-.36572266-1.18261719s-.61181641-.3828125-1.11767578-.3828125c-.41015625,0-.77001953.109375-1.08007812.328125s-.55126953.50585938-.72460938.86132812v5.27050781h-1.26464844v-10.5h1.26464844v3.99902344Z"/>
    <path class="cls-4" d="M453.0366521,59.00941028c0-.72460938.14257812-1.37646484.42724609-1.95507812s.68115234-1.02539062,1.18945312-1.33984375,1.08789062-.47167969,1.73974609-.47167969c1.00732422,0,1.82177734.34863281,2.44384766,1.04589844s.93310547,1.62451172.93310547,2.78222656v.08886719c0,.72021484-.13769531,1.36621094-.41357422,1.93798828s-.66992188,1.01757812-1.18261719,1.33642578-1.1015625.47851562-1.76708984.47851562c-1.00244141,0-1.81494141-.34863281-2.43701172-1.04589844s-.93310547-1.62011719-.93310547-2.76855469v-.08886719ZM454.30813648,59.1598009c0,.8203125.19042969,1.47900391.57080078,1.97558594s.88964844.74511719,1.52783203.74511719c.64257812,0,1.15283203-.25195312,1.53125-.75537109s.56738281-1.20898438.56738281-2.11572266c0-.81103516-.19238281-1.46875-.57763672-1.97216797s-.89648438-.75537109-1.53466797-.75537109c-.62451172,0-1.12792969.24853516-1.51074219.74511719s-.57421875,1.20751953-.57421875,2.1328125Z"/>
    <path class="cls-4" d="M461.04837085,59.01624622c0-1.13476562.26904297-2.04736328.80664062-2.73779297s1.24169922-1.03564453,2.11230469-1.03564453c.86572266,0,1.55175781.29638672,2.05761719.88867188v-3.85546875h1.26464844v10.5h-1.16210938l-.06152344-.79296875c-.50585938.61962891-1.20996094.9296875-2.11230469.9296875-.85693359,0-1.55517578-.35107422-2.09521484-1.05273438s-.81005859-1.61767578-.81005859-2.74804688v-.09570312ZM462.31301929,59.1598009c0,.83837891.17333984,1.49462891.51953125,1.96875s.82470703.7109375,1.43554688.7109375c.80224609,0,1.38769531-.35986328,1.75683594-1.08007812v-3.39746094c-.37841797-.69726562-.95947266-1.04589844-1.74316406-1.04589844-.61962891,0-1.10302734.23925781-1.44921875.71777344s-.51953125,1.18701172-.51953125,2.12597656Z"/>
    <path class="cls-4" d="M477.28372242,62.77601184c-.07275391-.14599609-.13232422-.40576172-.17773438-.77929688-.58789062.61083984-1.28955078.91601562-2.10546875.91601562-.72900391,0-1.32714844-.20605469-1.79443359-.61865234s-.70068359-.93554688-.70068359-1.56884766c0-.77001953.29296875-1.36816406.87841797-1.79443359s1.40917969-.63916016,2.47119141-.63916016h1.23046875v-.58105469c0-.44189453-.13232422-.79394531-.39648438-1.05615234s-.65380859-.39306641-1.16894531-.39306641c-.45117188,0-.82958984.11376953-1.13476562.34179688s-.45800781.50341797-.45800781.82714844h-1.27148438c0-.36914062.13085938-.72558594.39306641-1.06982422s.61767578-.61621094,1.06640625-.81689453.94238281-.30078125,1.47998047-.30078125c.85205078,0,1.52001953.21289062,2.00292969.63916016s.73388672,1.01269531.75195312,1.76025391v3.40429688c0,.67919922.08642578,1.21923828.25976562,1.62011719v.109375h-1.32617188ZM475.1850896,61.81214465c.39648438,0,.77246094-.10253906,1.12792969-.30761719s.61279297-.47167969.77246094-.79980469v-1.51757812h-.99121094c-1.54931641,0-2.32421875.45361328-2.32421875,1.36035156,0,.39648438.13232422.70654297.39648438.9296875s.60400391.33496094,1.01855469.33496094Z"/>
    <path class="cls-4" d="M488.10501148,60.81409778c0-.34179688-.12890625-.60742188-.38623047-.79638672s-.70654297-.35205078-1.34667969-.48876953-1.1484375-.30078125-1.52441406-.4921875-.65380859-.41943359-.83398438-.68359375-.27001953-.57861328-.27001953-.94335938c0-.60595703.25634766-1.11865234.76904297-1.53808594s1.16796875-.62890625,1.96533203-.62890625c.83837891,0,1.51855469.21630859,2.04052734.64941406s.78271484.98681641.78271484,1.66113281h-1.27148438c0-.34619141-.14697266-.64501953-.44091797-.89550781s-.6640625-.37597656-1.11083984-.37597656c-.46044922,0-.8203125.10009766-1.08007812.30078125s-.38964844.46240234-.38964844.78613281c0,.30517578.12060547.53564453.36230469.69042969s.67773438.30322266,1.30908203.44433594,1.14257812.31005859,1.53466797.50585938.68261719.43164062.87158203.70751953.28369141.61181641.28369141,1.00830078c0,.66064453-.26416016,1.19042969-.79296875,1.58935547s-1.21435547.59814453-2.05761719.59814453c-.59228516,0-1.11669922-.10498047-1.57226562-.31445312s-.8125-.50244141-1.06982422-.87841797-.38623047-.78271484-.38623047-1.22021484h1.26464844c.02294922.42382812.19238281.75976562.50927734,1.00830078s.73486328.37255859,1.25439453.37255859c.47851562,0,.86230469-.09667969,1.15185547-.29052734s.43408203-.45214844.43408203-.77587891Z"/>
    <path class="cls-4" d="M492.39114429,62.77601184h-1.26464844v-10.5h1.26464844v10.5Z"/>
    <path class="cls-4" d="M498.98098804,62.04456653c-.4921875.57861328-1.21435547.86816406-2.16699219.86816406-.78857422,0-1.38867188-.22900391-1.80126953-.68701172s-.62109375-1.13574219-.62548828-2.03369141v-4.8125h1.26464844v4.77832031c0,1.12109375.45556641,1.68164062,1.3671875,1.68164062.96630859,0,1.60888672-.35986328,1.92773438-1.08007812v-5.37988281h1.26464844v7.39648438h-1.203125l-.02734375-.73144531Z"/>
    <path class="cls-4" d="M503.32180835,61.74378528h4.32714844v1.03222656h-5.87207031v-.9296875l4.08105469-5.42089844h-4.01953125v-1.04589844h5.60546875v.89550781l-4.12207031,5.46875ZM504.68215992,53.43812122l1.02539062-1.16210938h1.09375v.06835938l-1.73632812,1.87304688h-.77246094l-1.71582031-1.87304688v-.06835938h1.07324219l1.03222656,1.16210938Z"/>
    <path class="cls-4" d="M515.33255054,59.1598009c0,1.13037109-.25976562,2.03808594-.77929688,2.72412109s-1.21679688,1.02880859-2.09179688,1.02880859c-.93408203,0-1.65673828-.33056641-2.16699219-.99121094l-.06152344.85449219h-1.16210938v-10.5h1.26464844v3.91699219c.51025391-.63330078,1.21435547-.95019531,2.11230469-.95019531s1.60302734.33935547,2.11572266,1.01855469.76904297,1.60888672.76904297,2.7890625v.109375ZM514.0679021,59.01624622c0-.86132812-.16650391-1.52685547-.49902344-1.99609375s-.81103516-.70410156-1.43554688-.70410156c-.83398438,0-1.43310547.38720703-1.79785156,1.16210938v3.19921875c.38720703.77490234.99121094,1.16210938,1.81152344,1.16210938.60595703,0,1.07763672-.23486328,1.41503906-.70410156s.50585938-1.17578125.50585938-2.11914062Z"/>
    <path class="cls-4" d="M519.34524585,60.92347278l1.72265625-5.54394531h1.35351562l-2.97363281,8.53808594c-.46044922,1.23046875-1.19189453,1.84570312-2.19433594,1.84570312l-.23925781-.02050781-.47167969-.08886719v-1.02539062l.34179688.02734375c.42822266,0,.76220703-.08642578,1.00146484-.25976562s.43652344-.48974609.59130859-.95019531l.28027344-.75195312-2.63867188-7.31445312h1.38085938l1.84570312,5.54394531Z"/>
  </g>
  <g>
    <path class="cls-4" d="M570.37844898,58.1754259h-4.31347656v3.52734375h5.01074219v1.07324219h-6.32324219v-9.953125h6.25488281v1.07324219h-4.94238281v3.20605469h4.31347656v1.07324219Z"/>
    <path class="cls-4" d="M573.70755054,55.37952747l.04101562.9296875c.56494141-.7109375,1.30322266-1.06640625,2.21484375-1.06640625,1.56298828,0,2.3515625.88183594,2.36523438,2.64550781v4.88769531h-1.26464844v-4.89453125c-.00439453-.53320312-.12646484-.92724609-.36572266-1.18261719s-.61181641-.3828125-1.11767578-.3828125c-.41015625,0-.77001953.109375-1.08007812.328125s-.55126953.50585938-.72460938.86132812v5.27050781h-1.26464844v-7.39648438h1.19628906Z"/>
    <path class="cls-4" d="M583.30520679,62.91273059c-1.00244141,0-1.81835938-.32910156-2.44726562-.98779297s-.94335938-1.5390625-.94335938-2.64208984v-.23242188c0-.73388672.14013672-1.38867188.42041016-1.96533203s.67236328-1.02783203,1.17578125-1.35351562,1.04931641-.48876953,1.63720703-.48876953c.96142578,0,1.70898438.31689453,2.2421875.95019531s.79980469,1.54052734.79980469,2.72070312v.52636719h-5.01074219c.01806641.72900391.23144531,1.31835938.63916016,1.76708984s.92626953.67333984,1.55517578.67333984c.44677734,0,.82470703-.09130859,1.13476562-.2734375s.58105469-.42382812.81347656-.72460938l.77246094.6015625c-.61962891.95263672-1.54931641,1.42871094-2.7890625,1.42871094ZM583.14798023,56.28187122c-.51025391,0-.93896484.18554688-1.28515625.55712891s-.56054688.89208984-.64257812,1.56201172h3.70507812v-.09570312c-.03662109-.64257812-.20947266-1.140625-.51953125-1.49365234s-.72900391-.52978516-1.2578125-.52978516Z"/>
    <path class="cls-4" d="M591.22805835,56.51429309c-.19140625-.03173828-.39892578-.04785156-.62207031-.04785156-.82958984,0-1.39208984.35302734-1.68847656,1.05957031v5.25h-1.26464844v-7.39648438h1.23046875l.02050781.85449219c.41455078-.66064453,1.00244141-.99121094,1.76367188-.99121094.24609375,0,.43310547.03173828.56054688.09570312v1.17578125Z"/>
    <path class="cls-4" d="M592.08938648,59.01624622c0-1.15283203.26660156-2.0703125.79980469-2.75146484s1.23974609-1.02197266,2.11914062-1.02197266c.90234375,0,1.60644531.31884766,2.11230469.95703125l.06152344-.8203125h1.15527344v7.21875c0,.95703125-.28369141,1.71142578-.85107422,2.26269531s-1.32958984.82714844-2.28662109.82714844c-.53320312,0-1.05517578-.11376953-1.56542969-.34179688s-.89990234-.54003906-1.16894531-.93652344l.65625-.75878906c.54248047.66992188,1.20556641,1.00488281,1.98925781,1.00488281.61523438,0,1.09472656-.17333984,1.43896484-.51953125s.51611328-.83398438.51611328-1.46289062v-.63574219c-.50585938.58349609-1.19628906.875-2.07128906.875-.86572266,0-1.56640625-.34863281-2.10205078-1.04589844s-.80322266-1.64746094-.80322266-2.85058594ZM593.36087085,59.1598009c0,.83398438.17089844,1.48925781.51269531,1.96533203s.8203125.71435547,1.43554688.71435547c.79736328,0,1.38330078-.36230469,1.75683594-1.08691406v-3.37695312c-.38720703-.70654297-.96826172-1.05957031-1.74316406-1.05957031-.61523438,0-1.09619141.23925781-1.44238281.71777344s-.51953125,1.18701172-.51953125,2.12597656Z"/>
    <path class="cls-4" d="M603.31399585,62.91273059c-1.00244141,0-1.81835938-.32910156-2.44726562-.98779297s-.94335938-1.5390625-.94335938-2.64208984v-.23242188c0-.73388672.14013672-1.38867188.42041016-1.96533203s.67236328-1.02783203,1.17578125-1.35351562,1.04931641-.48876953,1.63720703-.48876953c.96142578,0,1.70898438.31689453,2.2421875.95019531s.79980469,1.54052734.79980469,2.72070312v.52636719h-5.01074219c.01806641.72900391.23144531,1.31835938.63916016,1.76708984s.92626953.67333984,1.55517578.67333984c.44677734,0,.82470703-.09130859,1.13476562-.2734375s.58105469-.42382812.81347656-.72460938l.77246094.6015625c-.61962891.95263672-1.54931641,1.42871094-2.7890625,1.42871094ZM603.15676929,56.28187122c-.51025391,0-.93896484.18554688-1.28515625.55712891s-.56054688.89208984-.64257812,1.56201172h3.70507812v-.09570312c-.03662109-.64257812-.20947266-1.140625-.51953125-1.49365234s-.72900391-.52978516-1.2578125-.52978516Z"/>
    <path class="cls-4" d="M609.37747242,53.58851184v1.79101562h1.38085938v.97753906h-1.38085938v4.59277344c0,.29638672.06152344.51904297.18457031.66748047.12304688.14794922.33251953.22216797.62890625.22216797.14599609,0,.34619141-.02734375.6015625-.08203125v1.01953125c-.33251953.09033203-.65625.13574219-.97070312.13574219-.56494141,0-.99121094-.17089844-1.27832031-.51269531s-.43066406-.82714844-.43066406-1.45605469v-4.58691406h-1.34667969v-.97753906h1.34667969v-1.79101562h1.26464844Z"/>
    <path class="cls-4" d="M612.24173023,53.4176134c0-.20507812.0625-.37841797.18798828-.51953125s.31103516-.21191406.55712891-.21191406.43310547.07080078.56054688.21191406.19140625.31445312.19140625.51953125-.06396484.37597656-.19140625.51269531-.31445312.20507812-.56054688.20507812-.43164062-.06835938-.55712891-.20507812-.18798828-.30761719-.18798828-.51269531ZM613.60891773,62.77601184h-1.26464844v-7.39648438h1.26464844v7.39648438Z"/>
    <path class="cls-4" d="M617.69680835,59.35120715l-.79296875.82714844v2.59765625h-1.26464844v-10.5h1.26464844v6.35058594l.67675781-.81347656,2.30371094-2.43359375h1.53808594l-2.87792969,3.08984375,3.21289062,4.30664062h-1.48339844l-2.57714844-3.42480469Z"/>
    <path class="cls-4" d="M627.2944646,62.77601184c-.07275391-.14599609-.13232422-.40576172-.17773438-.77929688-.58789062.61083984-1.28955078.91601562-2.10546875.91601562-.72900391,0-1.32714844-.20605469-1.79443359-.61865234s-.70068359-.93554688-.70068359-1.56884766c0-.77001953.29296875-1.36816406.87841797-1.79443359s1.40917969-.63916016,2.47119141-.63916016h1.23046875v-.58105469c0-.44189453-.13232422-.79394531-.39648438-1.05615234s-.65380859-.39306641-1.16894531-.39306641c-.45117188,0-.82958984.11376953-1.13476562.34179688s-.45800781.50341797-.45800781.82714844h-1.27148438c0-.36914062.13085938-.72558594.39306641-1.06982422s.61767578-.61621094,1.06640625-.81689453.94238281-.30078125,1.47998047-.30078125c.85205078,0,1.52001953.21289062,2.00292969.63916016s.73388672,1.01269531.75195312,1.76025391v3.40429688c0,.67919922.08642578,1.21923828.25976562,1.62011719v.109375h-1.32617188ZM625.19583179,61.81214465c.39648438,0,.77246094-.10253906,1.12792969-.30761719s.61279297-.47167969.77246094-.79980469v-1.51757812h-.99121094c-1.54931641,0-2.32421875.45361328-2.32421875,1.36035156,0,.39648438.13232422.70654297.39648438.9296875s.60400391.33496094,1.01855469.33496094Z"/>
  </g>
  <g>
    <path class="cls-4" d="M611.11843921,128.41321887c0,.97509766-.1640625,1.82617188-.4921875,2.55322266s-.79296875,1.28173828-1.39453125,1.66455078-1.30322266.57421875-2.10546875.57421875c-.78369141,0-1.47900391-.19238281-2.08496094-.57763672s-1.07666016-.93408203-1.41162109-1.64746094-.50683594-1.5390625-.51611328-2.47802734v-.71777344c0-.95703125.16650391-1.80224609.49902344-2.53613281s.80322266-1.29541016,1.41162109-1.68505859,1.3046875-.58447266,2.08837891-.58447266c.79736328,0,1.50048828.19238281,2.10888672.57763672s1.07666016.94335938,1.40478516,1.67480469.4921875,1.58251953.4921875,2.55322266v.62890625ZM609.81277515,127.77064075c0-1.18017578-.23681641-2.0859375-.7109375-2.71728516s-1.13720703-.94677734-1.98925781-.94677734c-.82958984,0-1.48242188.31542969-1.95849609.94677734s-.72119141,1.50732422-.73486328,2.62841797v.73144531c0,1.14404297.24023438,2.04296875.72119141,2.69677734s1.14257812.98095703,1.98583984.98095703c.84765625,0,1.50390625-.30859375,1.96875-.92626953s.70410156-1.50292969.71777344-2.65576172v-.73828125Z"/>
    <path class="cls-4" d="M617.19558765,131.10657825c0-.34179688-.12890625-.60742188-.38623047-.79638672s-.70654297-.35205078-1.34667969-.48876953-1.1484375-.30078125-1.52441406-.4921875-.65380859-.41943359-.83398438-.68359375-.27001953-.57861328-.27001953-.94335938c0-.60595703.25634766-1.11865234.76904297-1.53808594s1.16796875-.62890625,1.96533203-.62890625c.83837891,0,1.51855469.21630859,2.04052734.64941406s.78271484.98681641.78271484,1.66113281h-1.27148438c0-.34619141-.14697266-.64501953-.44091797-.89550781s-.6640625-.37597656-1.11083984-.37597656c-.46044922,0-.8203125.10009766-1.08007812.30078125s-.38964844.46240234-.38964844.78613281c0,.30517578.12060547.53564453.36230469.69042969s.67773438.30322266,1.30908203.44433594,1.14257812.31005859,1.53466797.50585938.68261719.43164062.87158203.70751953.28369141.61181641.28369141,1.00830078c0,.66064453-.26416016,1.19042969-.79296875,1.58935547s-1.21435547.59814453-2.05761719.59814453c-.59228516,0-1.11669922-.10498047-1.57226562-.31445312s-.8125-.50244141-1.06982422-.87841797-.38623047-.78271484-.38623047-1.22021484h1.26464844c.02294922.42382812.19238281.75976562.50927734,1.00830078s.73486328.37255859,1.25439453.37255859c.47851562,0,.86230469-.09667969,1.15185547-.29052734s.43408203-.45214844.43408203-.77587891Z"/>
    <path class="cls-4" d="M621.82351734,123.88099231v1.79101562h1.38085938v.97753906h-1.38085938v4.59277344c0,.29638672.06152344.51904297.18457031.66748047.12304688.14794922.33251953.22216797.62890625.22216797.14599609,0,.34619141-.02734375.6015625-.08203125v1.01953125c-.33251953.09033203-.65625.13574219-.97070312.13574219-.56494141,0-.99121094-.17089844-1.27832031-.51269531s-.43066406-.82714844-.43066406-1.45605469v-4.58691406h-1.34667969v-.97753906h1.34667969v-1.79101562h1.26464844Z"/>
    <path class="cls-4" d="M629.24734546,133.06849231c-.07275391-.14599609-.13232422-.40576172-.17773438-.77929688-.58789062.61083984-1.28955078.91601562-2.10546875.91601562-.72900391,0-1.32714844-.20605469-1.79443359-.61865234s-.70068359-.93554688-.70068359-1.56884766c0-.77001953.29296875-1.36816406.87841797-1.79443359s1.40917969-.63916016,2.47119141-.63916016h1.23046875v-.58105469c0-.44189453-.13232422-.79394531-.39648438-1.05615234s-.65380859-.39306641-1.16894531-.39306641c-.45117188,0-.82958984.11376953-1.13476562.34179688s-.45800781.50341797-.45800781.82714844h-1.27148438c0-.36914062.13085938-.72558594.39306641-1.06982422s.61767578-.61621094,1.06640625-.81689453.94238281-.30078125,1.47998047-.30078125c.85205078,0,1.52001953.21289062,2.00292969.63916016s.73388672,1.01269531.75195312,1.76025391v3.40429688c0,.67919922.08642578,1.21923828.25976562,1.62011719v.109375h-1.32617188ZM627.14871265,132.10462512c.39648438,0,.77246094-.10253906,1.12792969-.30761719s.61279297-.47167969.77246094-.79980469v-1.51757812h-.99121094c-1.54931641,0-2.32421875.45361328-2.32421875,1.36035156,0,.39648438.13232422.70654297.39648438.9296875s.60400391.33496094,1.01855469.33496094Z"/>
    <path class="cls-4" d="M634.0119939,123.88099231v1.79101562h1.38085938v.97753906h-1.38085938v4.59277344c0,.29638672.06152344.51904297.18457031.66748047.12304688.14794922.33251953.22216797.62890625.22216797.14599609,0,.34619141-.02734375.6015625-.08203125v1.01953125c-.33251953.09033203-.65625.13574219-.97070312.13574219-.56494141,0-.99121094-.17089844-1.27832031-.51269531s-.43066406-.82714844-.43066406-1.45605469v-4.58691406h-1.34667969v-.97753906h1.34667969v-1.79101562h1.26464844Z"/>
    <path class="cls-4" d="M638.06570484,125.67200793l.04101562.9296875c.56494141-.7109375,1.30322266-1.06640625,2.21484375-1.06640625,1.56298828,0,2.3515625.88183594,2.36523438,2.64550781v4.88769531h-1.26464844v-4.89453125c-.00439453-.53320312-.12646484-.92724609-.36572266-1.18261719s-.61181641-.3828125-1.11767578-.3828125c-.41015625,0-.77001953.109375-1.08007812.328125s-.55126953.50585938-.72460938.86132812v5.27050781h-1.26464844v-7.39648438h1.19628906Z"/>
    <path class="cls-4" d="M645.98172046,122.57532825h1.53125l-1.83203125,2.00976562-1.01855469-.00341797,1.31933594-2.00634766ZM645.96804859,133.06849231h-1.27148438v-7.39648438h1.27148438v7.39648438Z"/>
  </g>
  <g>
    <path class="cls-4" d="M16.95486499,91.01429309h.95019531c.59716797-.00927734,1.06640625-.16650391,1.40820312-.47167969s.51269531-.71777344.51269531-1.23730469c0-1.16650391-.58105469-1.75-1.74316406-1.75-.546875,0-.98339844.15625-1.30908203.46826172s-.48876953.72558594-.48876953,1.24072266h-1.26464844c0-.78857422.28808594-1.44335938.86474609-1.96533203s1.30908203-.78271484,2.19775391-.78271484c.93896484,0,1.67480469.24853516,2.20800781.74511719s.79980469,1.18701172.79980469,2.07128906c0,.43310547-.14013672.85205078-.42041016,1.2578125s-.66210938.70849609-1.14501953.90917969c.546875.17333984.96972656.46044922,1.26806641.86132812s.44775391.89111328.44775391,1.46972656c0,.89306641-.29150391,1.60205078-.875,2.12597656s-1.34228516.78613281-2.27636719.78613281-1.69433594-.25292969-2.27978516-.75878906-.87841797-1.17333984-.87841797-2.00292969h1.27148438c0,.52392578.17089844.94335938.51269531,1.2578125s.79980469.47167969,1.37402344.47167969c.61083984,0,1.07763672-.15966797,1.40136719-.47851562s.48535156-.77685547.48535156-1.37402344c0-.57861328-.17773438-1.02294922-.53320312-1.33300781s-.86816406-.46923828-1.53808594-.47851562h-.95019531v-1.03222656Z"/>
    <path class="cls-4" d="M29.40310718,87.36390247l-4.12207031,9.2421875h-1.32617188l4.10839844-8.9140625h-5.38671875v-1.0390625h6.7265625v.7109375Z"/>
    <path class="cls-4" d="M34.19509937,88.56702747c0-.59716797.19042969-1.08935547.57080078-1.4765625s.86914062-.58105469,1.46630859-.58105469c.60595703,0,1.09716797.19482422,1.47314453.58447266s.56396484.89453125.56396484,1.51416016v.48535156c0,.6015625-.19042969,1.09277344-.57080078,1.47314453s-.86474609.57080078-1.45263672.57080078c-.59228516,0-1.08251953-.19042969-1.46972656-.57080078s-.58105469-.88769531-.58105469-1.52099609v-.47851562ZM35.13845874,89.09046497c0,.35644531.10009766.64990234.30078125.88037109.20068359.23095703.46923828.34619141.80664062.34619141.32373047,0,.58447266-.11181641.78271484-.3359375.19824219-.22363281.29736328-.52978516.29736328-.91796875v-.5c0-.35644531-.09814453-.65087891-.29394531-.88378906s-.46240234-.34960938-.79980469-.34960938-.60400391.11669922-.79980469.34960938-.29394531.53662109-.29394531.91113281v.5ZM36.53298999,95.85413684l-.71777344-.45117188,4.86035156-7.77929688.71777344.45117188-4.86035156,7.77929688ZM39.04177906,94.16566028c0-.59716797.19042969-1.08789062.57080078-1.47314453s.86914062-.57763672,1.46630859-.57763672,1.08691406.19140625,1.46972656.57421875.57421875.89111328.57421875,1.52441406v.48535156c0,.59716797-.19042969,1.08789062-.57080078,1.47314453s-.8671875.57763672-1.45947266.57763672-1.08251953-.19042969-1.46972656-.57080078-.58105469-.88769531-.58105469-1.52099609v-.4921875ZM39.98513843,94.69593372c0,.36083984.10009766.65673828.30078125.88720703.20068359.23095703.46923828.34619141.80664062.34619141.328125,0,.59033203-.11279297.78613281-.33935547.19580078-.22558594.29394531-.53320312.29394531-.92138672v-.50683594c0-.36083984-.09912109-.65576172-.29736328-.88378906-.19824219-.22851562-.46386719-.34277344-.79638672-.34277344-.32373047,0-.58691406.11328125-.78955078.33935547s-.30419922.53076172-.30419922.91455078v.50683594Z"/>
  </g>
  <g>
    <path class="cls-6" d="M264.49807788,96.60608997h-6.82226562v-1.35351562l3.21972656-3.43164062c.44189453-.48291016.76904297-.90478516.98095703-1.26464844s.31787109-.70166016.31787109-1.02539062c0-.44189453-.11181641-.78955078-.33496094-1.04248047s-.54248047-.37939453-.95703125-.37939453c-.44677734,0-.79882812.15380859-1.05615234.46142578s-.38623047.71191406-.38623047,1.21337891h-1.98242188c0-.60595703.14453125-1.15966797.43408203-1.66113281s.69824219-.89453125,1.22705078-1.17919922,1.12792969-.42724609,1.79785156-.42724609c1.02539062,0,1.82177734.24609375,2.38916016.73828125s.85107422,1.18701172.85107422,2.08496094c0,.4921875-.12744141.99365234-.3828125,1.50390625s-.69287109,1.10498047-1.3125,1.78417969l-2.26269531,2.38574219h4.27929688v1.59277344Z"/>
    <path class="cls-6" d="M272.47561695,87.75550403l-3.84863281,8.85058594h-2.08496094l3.85546875-8.36035156h-4.94921875v-1.59277344h7.02734375v1.10253906Z"/>
    <path class="cls-6" d="M277.19924976,88.56702747c0-.61083984.19824219-1.10644531.59472656-1.48681641s.91601562-.57080078,1.55859375-.57080078c.65185547,0,1.17578125.18798828,1.57226562.56396484s.59472656.88525391.59472656,1.52783203v.4921875c0,.61523438-.19824219,1.10986328-.59472656,1.48339844s-.91601562.56054688-1.55859375.56054688c-.64697266,0-1.16992188-.18798828-1.56884766-.56396484s-.59814453-.8828125-.59814453-1.52099609v-.48535156ZM278.51174976,89.09339465c0,.2734375.07861328.49316406.23583984.65966797s.36328125.24951172.61865234.24951172.45800781-.08447266.60839844-.25292969.22558594-.39404297.22558594-.67675781v-.50585938c0-.2734375-.07519531-.49462891-.22558594-.66308594s-.35791016-.25292969-.62207031-.25292969c-.25048828,0-.45361328.08300781-.60839844.24951172s-.23242188.39746094-.23242188.69384766v.49902344ZM279.75589038,95.86097278l-.96386719-.51953125,4.86035156-7.77929688.96386719.51953125-4.86035156,7.77929688ZM281.95706226,94.16566028c0-.61523438.20068359-1.11083984.6015625-1.48681641s.92041016-.56396484,1.55859375-.56396484c.64697266,0,1.16992188.18554688,1.56884766.55712891s.59814453.8828125.59814453,1.53466797v.4921875c0,.61083984-.19580078,1.10400391-.58789062,1.47998047s-.91357422.56396484-1.56542969.56396484c-.65625,0-1.18261719-.18896484-1.57910156-.56738281s-.59472656-.87939453-.59472656-1.50390625v-.50585938ZM283.26956226,94.6988634c0,.25048828.08203125.46484375.24609375.64257812s.36914062.26660156.61523438.26660156c.55615234,0,.83398438-.30761719.83398438-.92285156v-.51953125c0-.2734375-.07763672-.49316406-.23242188-.65966797s-.35986328-.24951172-.61523438-.24951172-.46044922.08300781-.61523438.24951172-.23242188.39306641-.23242188.68017578v.51269531Z"/>
    <path class="cls-6" d="M291.28128101,92.5660509c0-1.02978516.13769531-2.01904297.41357422-2.96679688s.68701172-1.80908203,1.23388672-2.58398438,1.11425781-1.32177734,1.70214844-1.640625l.25976562.83398438c-.66552734.51025391-1.2109375,1.28955078-1.63720703,2.33789062s-.65966797,2.22167969-.70068359,3.52050781l-.00683594.58105469c0,1.75927734.32128906,3.28564453.96386719,4.58007812.38720703.77490234.84765625,1.38085938,1.38085938,1.81835938l-.25976562.77246094c-.60595703-.33740234-1.18505859-.90234375-1.73632812-1.6953125-1.07568359-1.54931641-1.61328125-3.40185547-1.61328125-5.55761719Z"/>
    <path class="cls-6" d="M300.14065601,96.60608997h-1.27148438v-8.42871094l-2.54980469.93652344v-1.1484375l3.62304688-1.36035156h.19824219v10.00097656Z"/>
    <path class="cls-6" d="M308.80862476,86.64612903v1.07324219h-.23242188c-.984375.01806641-1.76806641.31005859-2.3515625.875s-.92041016,1.36035156-1.01171875,2.38574219c.52392578-.6015625,1.23974609-.90234375,2.14648438-.90234375.86572266,0,1.55761719.30517578,2.07470703.91601562s.77587891,1.39892578.77587891,2.36523438c0,1.02539062-.27929688,1.84570312-.83740234,2.4609375s-1.30664062.92285156-2.24560547.92285156c-.95263672,0-1.72509766-.36572266-2.31738281-1.09716797s-.88867188-1.67382812-.88867188-2.82666016v-.48535156c0-1.83203125.390625-3.23242188,1.17236328-4.20068359s1.94482422-1.46386719,3.48974609-1.48681641h.22558594ZM307.14749195,91.13050403c-.43310547,0-.83154297.12988281-1.19628906.38964844s-.61767578.58544922-.75878906.97753906v.46484375c0,.8203125.18457031,1.48095703.55371094,1.98242188s.82958984.75195312,1.38085938.75195312c.56982422,0,1.01757812-.20947266,1.34326172-.62890625s.48876953-.96826172.48876953-1.64746094c0-.68359375-.16503906-1.23632812-.49560547-1.65771484s-.76904297-.63232422-1.31591797-.63232422Z"/>
    <path class="cls-6" d="M322.1045232,87.72620715h-3.19921875v8.87988281h-1.30566406v-8.87988281h-3.19238281v-1.07324219h7.69726562v1.07324219Z"/>
    <path class="cls-6" d="M325.83010913,93.46839465l.19140625,1.3125.28027344-1.18261719,1.96875-6.9453125h1.10742188l1.92089844,6.9453125.2734375,1.203125.21191406-1.33984375,1.54492188-6.80859375h1.31933594l-2.41308594,9.953125h-1.19628906l-2.05078125-7.25292969-.15722656-.75878906-.15722656.75878906-2.12597656,7.25292969h-1.19628906l-2.40625-9.953125h1.3125l1.57226562,6.81542969Z"/>
    <path class="cls-6" d="M337.17092945,90.1051134c.56054688-.68798828,1.28955078-1.03222656,2.1875-1.03222656,1.56298828,0,2.3515625.88183594,2.36523438,2.64550781v4.88769531h-1.26464844v-4.89453125c-.00439453-.53320312-.12646484-.92724609-.36572266-1.18261719s-.61181641-.3828125-1.11767578-.3828125c-.41015625,0-.77001953.109375-1.08007812.328125s-.55126953.50585938-.72460938.86132812v5.27050781h-1.26464844v-10.5h1.26464844v3.99902344Z"/>
    <path class="cls-6" d="M346.53616382,92.63441028c0,1.01611328-.13330078,1.99023438-.39990234,2.92236328s-.67431641,1.79199219-1.22363281,2.58056641-1.12451172,1.34912109-1.72607422,1.68164062l-.26660156-.77246094c.70166016-.53759766,1.265625-1.37304688,1.69189453-2.50537109s.64355469-2.38916016.65283203-3.77001953v-.21875c0-.95703125-.10009766-1.84667969-.30078125-2.66943359s-.47949219-1.55957031-.83740234-2.21142578-.75976562-1.15966797-1.20654297-1.52441406l.26660156-.77246094c.6015625.33251953,1.17480469.88867188,1.71923828,1.66796875s.95263672,1.63818359,1.22363281,2.57714844.40673828,1.94384766.40673828,3.01464844Z"/>
  </g>
  <g>
    <path class="cls-4" d="M437.49710132,96.60608997h-6.52148438v-.90917969l3.4453125-3.828125c.51025391-.57861328.86230469-1.04931641,1.05615234-1.41162109s.29052734-.73730469.29052734-1.12451172c0-.51953125-.15722656-.94580078-.47167969-1.27832031s-.73388672-.49902344-1.2578125-.49902344c-.62890625,0-1.11767578.17871094-1.46630859.53662109s-.52294922.85546875-.52294922,1.49365234h-1.26464844c0-.91601562.29492188-1.65673828.88525391-2.22167969s1.37988281-.84765625,2.36865234-.84765625c.92529297,0,1.65673828.24267578,2.19433594.72802734s.80664062,1.13134766.80664062,1.93798828c0,.97998047-.62451172,2.14648438-1.87304688,3.5l-2.66601562,2.89160156h4.99707031v1.03222656Z"/>
    <path class="cls-4" d="M445.35842945,96.60608997h-6.52148438v-.90917969l3.4453125-3.828125c.51025391-.57861328.86230469-1.04931641,1.05615234-1.41162109s.29052734-.73730469.29052734-1.12451172c0-.51953125-.15722656-.94580078-.47167969-1.27832031s-.73388672-.49902344-1.2578125-.49902344c-.62890625,0-1.11767578.17871094-1.46630859.53662109s-.52294922.85546875-.52294922,1.49365234h-1.26464844c0-.91601562.29492188-1.65673828.88525391-2.22167969s1.37988281-.84765625,2.36865234-.84765625c.92529297,0,1.65673828.24267578,2.19433594.72802734s.80664062,1.13134766.80664062,1.93798828c0,.97998047-.62451172,2.14648438-1.87304688,3.5l-2.66601562,2.89160156h4.99707031v1.03222656Z"/>
    <path class="cls-4" d="M450.05471851,88.56702747c0-.59716797.19042969-1.08935547.57080078-1.4765625s.86914062-.58105469,1.46630859-.58105469c.60595703,0,1.09716797.19482422,1.47314453.58447266s.56396484.89453125.56396484,1.51416016v.48535156c0,.6015625-.19042969,1.09277344-.57080078,1.47314453s-.86474609.57080078-1.45263672.57080078c-.59228516,0-1.08251953-.19042969-1.46972656-.57080078s-.58105469-.88769531-.58105469-1.52099609v-.47851562ZM450.99807788,89.09046497c0,.35644531.10009766.64990234.30078125.88037109.20068359.23095703.46923828.34619141.80664062.34619141.32373047,0,.58447266-.11181641.78271484-.3359375.19824219-.22363281.29736328-.52978516.29736328-.91796875v-.5c0-.35644531-.09814453-.65087891-.29394531-.88378906s-.46240234-.34960938-.79980469-.34960938-.60400391.11669922-.79980469.34960938-.29394531.53662109-.29394531.91113281v.5ZM452.39260913,95.85413684l-.71777344-.45117188,4.86035156-7.77929688.71777344.45117188-4.86035156,7.77929688ZM454.9013982,94.16566028c0-.59716797.19042969-1.08789062.57080078-1.47314453s.86914062-.57763672,1.46630859-.57763672,1.08691406.19140625,1.46972656.57421875.57421875.89111328.57421875,1.52441406v.48535156c0,.59716797-.19042969,1.08789062-.57080078,1.47314453s-.8671875.57763672-1.45947266.57763672-1.08251953-.19042969-1.46972656-.57080078-.58105469-.88769531-.58105469-1.52099609v-.4921875ZM455.84475757,94.69593372c0,.36083984.10009766.65673828.30078125.88720703.20068359.23095703.46923828.34619141.80664062.34619141.328125,0,.59033203-.11279297.78613281-.33935547.19580078-.22558594.29394531-.53320312.29394531-.92138672v-.50683594c0-.36083984-.09912109-.65576172-.29736328-.88378906-.19824219-.22851562-.46386719-.34277344-.79638672-.34277344-.32373047,0-.58691406.11328125-.78955078.33935547s-.30419922.53076172-.30419922.91455078v.50683594Z"/>
  </g>
  <g>
    <path class="cls-4" d="M577.39651538,86.64612903v1.07324219h-.23242188c-.984375.01806641-1.76806641.31005859-2.3515625.875s-.92041016,1.36035156-1.01171875,2.38574219c.52392578-.6015625,1.23974609-.90234375,2.14648438-.90234375.86572266,0,1.55761719.30517578,2.07470703.91601562s.77587891,1.39892578.77587891,2.36523438c0,1.02539062-.27929688,1.84570312-.83740234,2.4609375s-1.30664062.92285156-2.24560547.92285156c-.95263672,0-1.72509766-.36572266-2.31738281-1.09716797s-.88867188-1.67382812-.88867188-2.82666016v-.48535156c0-1.83203125.390625-3.23242188,1.17236328-4.20068359s1.94482422-1.46386719,3.48974609-1.48681641h.22558594ZM575.73538257,91.13050403c-.43310547,0-.83154297.12988281-1.19628906.38964844s-.61767578.58544922-.75878906.97753906v.46484375c0,.8203125.18457031,1.48095703.55371094,1.98242188s.82958984.75195312,1.38085938.75195312c.56982422,0,1.01757812-.20947266,1.34326172-.62890625s.48876953-.96826172.48876953-1.64746094c0-.68359375-.16503906-1.23632812-.49560547-1.65771484s-.76904297-.63232422-1.31591797-.63232422Z"/>
    <path class="cls-4" d="M583.6513982,88.56702747c0-.59716797.19042969-1.08935547.57080078-1.4765625s.86914062-.58105469,1.46630859-.58105469c.60595703,0,1.09716797.19482422,1.47314453.58447266s.56396484.89453125.56396484,1.51416016v.48535156c0,.6015625-.19042969,1.09277344-.57080078,1.47314453s-.86474609.57080078-1.45263672.57080078c-.59228516,0-1.08251953-.19042969-1.46972656-.57080078s-.58105469-.88769531-.58105469-1.52099609v-.47851562ZM584.59475757,89.09046497c0,.35644531.10009766.64990234.30078125.88037109.20068359.23095703.46923828.34619141.80664062.34619141.32373047,0,.58447266-.11181641.78271484-.3359375.19824219-.22363281.29736328-.52978516.29736328-.91796875v-.5c0-.35644531-.09814453-.65087891-.29394531-.88378906s-.46240234-.34960938-.79980469-.34960938-.60400391.11669922-.79980469.34960938-.29394531.53662109-.29394531.91113281v.5ZM585.98928882,95.85413684l-.71777344-.45117188,4.86035156-7.77929688.71777344.45117188-4.86035156,7.77929688ZM588.49807788,94.16566028c0-.59716797.19042969-1.08789062.57080078-1.47314453s.86914062-.57763672,1.46630859-.57763672,1.08691406.19140625,1.46972656.57421875.57421875.89111328.57421875,1.52441406v.48535156c0,.59716797-.19042969,1.08789062-.57080078,1.47314453s-.8671875.57763672-1.45947266.57763672-1.08251953-.19042969-1.46972656-.57080078-.58105469-.88769531-.58105469-1.52099609v-.4921875ZM589.44143726,94.69593372c0,.36083984.10009766.65673828.30078125.88720703.20068359.23095703.46923828.34619141.80664062.34619141.328125,0,.59033203-.11279297.78613281-.33935547.19580078-.22558594.29394531-.53320312.29394531-.92138672v-.50683594c0-.36083984-.09912109-.65576172-.29736328-.88378906-.19824219-.22851562-.46386719-.34277344-.79638672-.34277344-.32373047,0-.58691406.11328125-.78955078.33935547s-.30419922.53076172-.30419922.91455078v.50683594Z"/>
  </g>
  <g>
    <path class="cls-4" d="M616.79837085,89.25062122c0,.49658203-.13085938.93896484-.39306641,1.32617188s-.61621094.69042969-1.06298828.90917969c.51953125.22314453.93066406.54931641,1.23388672.97753906s.45458984.91357422.45458984,1.45605469c0,.86132812-.29052734,1.54736328-.87158203,2.05761719s-1.34570312.765625-2.29345703.765625c-.95703125,0-1.72363281-.25634766-2.30029297-.76904297s-.86474609-1.19726562-.86474609-2.05419922c0-.53759766.14697266-1.02294922.44091797-1.45605469s.70068359-.76123047,1.22021484-.984375c-.44189453-.21875-.79052734-.52197266-1.04589844-.90917969s-.3828125-.82714844-.3828125-1.31933594c0-.83837891.26904297-1.50390625.80664062-1.99609375s1.24658203-.73828125,2.12597656-.73828125c.875,0,1.58251953.24609375,2.12255859.73828125s.81005859,1.15771484.81005859,1.99609375ZM615.76614429,93.89222278c0-.55615234-.17675781-1.00927734-.52978516-1.36035156s-.81445312-.52636719-1.38427734-.52636719-1.02636719.17333984-1.37060547.51953125-.51611328.80224609-.51611328,1.3671875.16748047,1.00927734.50244141,1.33300781.80078125.48535156,1.39794922.48535156c.59228516,0,1.05712891-.16308594,1.39453125-.48876953s.50585938-.76904297.50585938-1.32958984ZM613.86575367,87.55530872c-.49658203,0-.89892578.15380859-1.20654297.46142578s-.46142578.72558594-.46142578,1.25439453c0,.50585938.15136719.91503906.45458984,1.22705078s.70751953.46826172,1.21337891.46826172.91015625-.15625,1.21337891-.46826172.45458984-.72119141.45458984-1.22705078-.15722656-.91845703-.47167969-1.23730469-.71337891-.47851562-1.19628906-.47851562Z"/>
    <path class="cls-4" d="M621.98001148,88.56702747c0-.59716797.19042969-1.08935547.57080078-1.4765625s.86914062-.58105469,1.46630859-.58105469c.60595703,0,1.09716797.19482422,1.47314453.58447266s.56396484.89453125.56396484,1.51416016v.48535156c0,.6015625-.19042969,1.09277344-.57080078,1.47314453s-.86474609.57080078-1.45263672.57080078c-.59228516,0-1.08251953-.19042969-1.46972656-.57080078s-.58105469-.88769531-.58105469-1.52099609v-.47851562ZM622.92337085,89.09046497c0,.35644531.10009766.64990234.30078125.88037109.20068359.23095703.46923828.34619141.80664062.34619141.32373047,0,.58447266-.11181641.78271484-.3359375.19824219-.22363281.29736328-.52978516.29736328-.91796875v-.5c0-.35644531-.09814453-.65087891-.29394531-.88378906s-.46240234-.34960938-.79980469-.34960938-.60400391.11669922-.79980469.34960938-.29394531.53662109-.29394531.91113281v.5ZM624.3179021,95.85413684l-.71777344-.45117188,4.86035156-7.77929688.71777344.45117188-4.86035156,7.77929688ZM626.82669117,94.16566028c0-.59716797.19042969-1.08789062.57080078-1.47314453s.86914062-.57763672,1.46630859-.57763672,1.08691406.19140625,1.46972656.57421875.57421875.89111328.57421875,1.52441406v.48535156c0,.59716797-.19042969,1.08789062-.57080078,1.47314453s-.8671875.57763672-1.45947266.57763672-1.08251953-.19042969-1.46972656-.57080078-.58105469-.88769531-.58105469-1.52099609v-.4921875ZM627.77005054,94.69593372c0,.36083984.10009766.65673828.30078125.88720703.20068359.23095703.46923828.34619141.80664062.34619141.328125,0,.59033203-.11279297.78613281-.33935547.19580078-.22558594.29394531-.53320312.29394531-.92138672v-.50683594c0-.36083984-.09912109-.65576172-.29736328-.88378906-.19824219-.22851562-.46386719-.34277344-.79638672-.34277344-.32373047,0-.58691406.11328125-.78955078.33935547s-.30419922.53076172-.30419922.91455078v.50683594Z"/>
  </g>
</svg>