<?xml version="1.0" encoding="UTF-8"?>
<svg id="Layer_1" data-name="Layer 1" xmlns="http://www.w3.org/2000/svg" viewBox="0 0 660 132.26987212">
  <defs>
    <style>
      .cls-1 {
        fill: #e4e7ed;
      }

      .cls-1, .cls-2 {
        stroke: #fff;
        stroke-miterlimit: 10;
        stroke-width: .5px;
      }

      .cls-2, .cls-3 {
        fill: #515b66;
      }

      .cls-3, .cls-4, .cls-5, .cls-6 {
        stroke-width: 0px;
      }

      .cls-4 {
        fill: #9ea7b3;
      }

      .cls-5 {
        fill: #333;
      }

      .cls-6 {
        fill: #fff;
      }
    </style>
  </defs>
  <path class="cls-1" d="M2.72171691,110.61731177v-38.65291585h243.41235211v38.65291585H2.72171691Z"/>
  <path class="cls-2" d="M246.13406901,110.61731177v-38.65291585h173.76122726v38.65291585h-173.76122726Z"/>
  <path class="cls-1" d="M419.89529627,110.61731177v-38.65291585h143.70126811v38.65291585h-143.70126811Z"/>
  <path class="cls-1" d="M563.59656438,110.61731177v-38.65291585h38.12482623v38.65291585h-38.12482623Z"/>
  <polygon class="cls-1" points="653.77646667 71.96431915 645.71164733 71.96431915 634.71408874 71.96431915 620.78379088 71.96431915 601.72141295 71.96431915 601.72141295 110.61737962 620.78379088 110.61737962 634.71408874 110.61737962 645.71164733 110.61737962 653.77646667 110.61737962 658.90866881 110.61737962 658.90866881 71.96431915 653.77646667 71.96431915"/>
  <g>
    <path class="cls-4" d="M6.45022632,59.43616809v3.33984375h-1.125v-8.53125h3.14648438c.93359375,0,1.66503906.23828125,2.19433594.71484375s.79394531,1.10742188.79394531,1.89257812c0,.828125-.25878906,1.46582031-.77636719,1.91308594s-1.25878906.67089844-2.22363281.67089844h-2.00976562ZM6.45022632,58.51624622h2.02148438c.6015625,0,1.0625-.14160156,1.3828125-.42578125.3203125-.28320312.48046875-.69335938.48046875-1.22949219,0-.50878906-.16015625-.91552734-.48046875-1.22070312s-.75976562-.46386719-1.31835938-.47558594h-2.0859375v3.3515625Z"/>
    <path class="cls-4" d="M15.79007007,57.40882434c-.1640625-.02734375-.34179688-.04101562-.53320312-.04101562-.7109375,0-1.19335938.30273438-1.44726562.90820312v4.5h-1.08398438v-6.33984375h1.0546875l.01757812.73242188c.35546875-.56640625.859375-.84960938,1.51171875-.84960938.2109375,0,.37109375.02734375.48046875.08203125v1.0078125Z"/>
    <path class="cls-4" d="M20.70022632,62.14905872c-.421875.49609375-1.04101562.74414062-1.85742188.74414062-.67578125,0-1.19042969-.19628906-1.54394531-.58886719s-.53222656-.97363281-.53613281-1.74316406v-4.125h1.08398438v4.09570312c0,.9609375.390625,1.44140625,1.171875,1.44140625.828125,0,1.37890625-.30859375,1.65234375-.92578125v-4.61132812h1.08398438v6.33984375h-1.03125l-.0234375-.62695312ZM20.54788257,54.46155872c0,.33984375-.12109375.62402344-.36328125.85253906s-.54101562.34277344-.89648438.34277344c-.359375,0-.65917969-.11523438-.89941406-.34570312s-.36035156-.51367188-.36035156-.84960938.12011719-.62304688.36035156-.86132812.54003906-.35742188.89941406-.35742188.65917969.11914062.89941406.35742188.36035156.52539062.36035156.86132812ZM18.60842945,54.46155872c0,.18359375.06542969.34179688.19628906.47460938s.29199219.19921875.48339844.19921875c.1875,0,.34765625-.06445312.48046875-.19335938s.19921875-.2890625.19921875-.48046875-.06542969-.35449219-.19628906-.48925781-.29199219-.20214844-.48339844-.20214844c-.1953125,0-.35742188.06835938-.48632812.20507812s-.19335938.29882812-.19335938.48632812Z"/>
    <path class="cls-4" d="M24.42092945,56.43616809l.02929688.703125c.46484375-.546875,1.09179688-.8203125,1.88085938-.8203125.88671875,0,1.49023438.33984375,1.81054688,1.01953125.2109375-.3046875.48535156-.55078125.82324219-.73828125s.73730469-.28125,1.19824219-.28125c1.390625,0,2.09765625.73632812,2.12109375,2.20898438v4.24804688h-1.08398438v-4.18359375c0-.453125-.10351562-.79199219-.31054688-1.01660156s-.5546875-.33691406-1.04296875-.33691406c-.40234375,0-.73632812.12011719-1.00195312.36035156s-.41992188.56347656-.46289062.96972656v4.20703125h-1.08984375v-4.15429688c0-.921875-.45117188-1.3828125-1.35351562-1.3828125-.7109375,0-1.19726562.30273438-1.45898438.90820312v4.62890625h-1.08398438v-6.33984375h1.02539062Z"/>
    <path class="cls-4" d="M35.99319507,61.18812122l1.4765625-4.75195312h1.16015625l-2.54882812,7.31835938c-.39453125,1.0546875-1.02148438,1.58203125-1.88085938,1.58203125l-.20507812-.01757812-.40429688-.07617188v-.87890625l.29296875.0234375c.3671875,0,.65332031-.07421875.85839844-.22265625s.37402344-.41992188.50683594-.81445312l.24023438-.64453125-2.26171875-6.26953125h1.18359375l1.58203125,4.75195312Z"/>
    <path class="cls-4" d="M43.28811695,61.09437122c0-.29296875-.11035156-.52050781-.33105469-.68261719s-.60546875-.30175781-1.15429688-.41894531-.984375-.2578125-1.30664062-.421875-.56054688-.359375-.71484375-.5859375-.23144531-.49609375-.23144531-.80859375c0-.51953125.21972656-.95898438.65917969-1.31835938s1.00097656-.5390625,1.68457031-.5390625c.71875,0,1.30175781.18554688,1.74902344.55664062s.67089844.84570312.67089844,1.42382812h-1.08984375c0-.296875-.12597656-.55273438-.37792969-.76757812s-.56933594-.32226562-.95214844-.32226562c-.39453125,0-.703125.0859375-.92578125.2578125s-.33398438.39648438-.33398438.67382812c0,.26171875.10351562.45898438.31054688.59179688s.58105469.25976562,1.12207031.38085938.97949219.265625,1.31542969.43359375.58496094.37011719.74707031.60644531.24316406.52441406.24316406.86425781c0,.56640625-.2265625,1.02050781-.6796875,1.36230469s-1.04101562.51269531-1.76367188.51269531c-.5078125,0-.95703125-.08984375-1.34765625-.26953125s-.69628906-.43066406-.91699219-.75292969-.33105469-.67089844-.33105469-1.04589844h1.08398438c.01953125.36328125.16503906.65136719.43652344.86425781s.62988281.31933594,1.07519531.31933594c.41015625,0,.73925781-.08300781.98730469-.24902344s.37207031-.38769531.37207031-.66503906Z"/>
    <path class="cls-4" d="M46.96194507,62.77601184h-1.08398438v-9h1.08398438v9Z"/>
  </g>
  <g>
    <path class="cls-5" d="M15.52346851,18.18275012c-.09960938,1.37695312-.60791016,2.4609375-1.52490234,3.25195312s-2.12548828,1.18652344-3.62548828,1.18652344c-1.640625,0-2.93115234-.55273438-3.87158203-1.65722656s-1.41064453-2.62011719-1.41064453-4.54785156v-.78222656c0-1.23046875.21679688-2.31445312.65039062-3.25195312s1.05322266-1.65722656,1.85888672-2.15820312,1.74169922-.75097656,2.80810547-.75097656c1.4765625,0,2.66601562.39550781,3.56835938,1.18652344s1.42382812,1.90136719,1.56445312,3.33105469h-2.63671875c-.06445312-.82617188-.29443359-1.42578125-.68994141-1.79785156s-.99755859-.55761719-1.80615234-.55761719c-.87890625,0-1.53662109.31445312-1.97314453.94433594s-.66064453,1.60742188-.67236328,2.93164062v.96679688c0,1.3828125.20947266,2.39355469.62841797,3.03222656s1.07958984.95800781,1.98193359.95800781c.81445312,0,1.42236328-.18652344,1.82373047-.55859375s.63134766-.94726562.68994141-1.7265625h2.63671875ZM10.38186695,7.39857043l1.28320312-1.25683594h2.17089844v.09667969l-2.65429688,2.46972656h-1.60839844l-2.65429688-2.48730469v-.07910156h2.17089844l1.29199219,1.25683594Z"/>
    <path class="cls-5" d="M20.12893726,10.59778918v2.33789062h1.62597656v1.86328125h-1.62597656v4.74609375c0,.3515625.06738281.60351562.20214844.75585938s.39257812.22851562.7734375.22851562c.28125,0,.53027344-.02050781.74707031-.06152344v1.92480469c-.49804688.15234375-1.01074219.22851562-1.53808594.22851562-1.78125,0-2.68945312-.89941406-2.72460938-2.69824219v-5.12402344h-1.38867188v-1.86328125h1.38867188v-2.33789062h2.54003906Z"/>
    <path class="cls-5" d="M26.7295232,19.34290637l1.76660156-6.40722656h2.65429688l-3.20800781,9.50976562h-2.42578125l-3.20800781-9.50976562h2.65429688l1.76660156,6.40722656Z"/>
    <path class="cls-5" d="M37.61038257,15.31751575c-.34570312-.046875-.65039062-.0703125-.9140625-.0703125-.9609375,0-1.59082031.32519531-1.88964844.97558594v6.22265625h-2.54003906v-9.50976562h2.39941406l.0703125,1.13378906c.50976562-.87304688,1.21582031-1.30957031,2.11816406-1.30957031.28125,0,.54492188.03808594.79101562.11425781l-.03515625,2.44335938Z"/>
    <path class="cls-5" d="M42.31253101,10.59778918v2.33789062h1.62597656v1.86328125h-1.62597656v4.74609375c0,.3515625.06738281.60351562.20214844.75585938s.39257812.22851562.7734375.22851562c.28125,0,.53027344-.02050781.74707031-.06152344v1.92480469c-.49804688.15234375-1.01074219.22851562-1.53808594.22851562-1.78125,0-2.68945312-.89941406-2.72460938-2.69824219v-5.12402344h-1.38867188v-1.86328125h1.38867188v-2.33789062h2.54003906Z"/>
    <path class="cls-5" d="M45.33596851,10.47474231c0-.38085938.12744141-.69433594.38232422-.94042969s.60205078-.36914062,1.04150391-.36914062c.43359375,0,.77929688.12304688,1.03710938.36914062s.38671875.55957031.38671875.94042969c0,.38671875-.13037109.703125-.39111328.94921875s-.60498047.36914062-1.03271484.36914062-.77197266-.12304688-1.03271484-.36914062-.39111328-.5625-.39111328-.94921875ZM48.0342107,22.44544543h-2.54882812v-9.50976562h2.54882812v9.50976562Z"/>
    <path class="cls-5" d="M52.4638982,12.93567981l.07910156,1.09863281c.6796875-.84960938,1.59082031-1.27441406,2.73339844-1.27441406,1.0078125,0,1.7578125.29589844,2.25.88769531s.74414062,1.4765625.75585938,2.65429688v6.14355469h-2.54003906v-6.08203125c0-.5390625-.1171875-.93066406-.3515625-1.17382812s-.62402344-.36425781-1.16894531-.36425781c-.71484375,0-1.25097656.3046875-1.60839844.9140625v6.70605469h-2.54003906v-9.50976562h2.390625Z"/>
    <path class="cls-5" d="M65.90237476,21.47864856c-.62695312.76171875-1.49414062,1.14257812-2.6015625,1.14257812-1.01953125,0-1.79736328-.29296875-2.33349609-.87890625s-.81005859-1.44433594-.82177734-2.57519531v-6.23144531h2.54003906v6.15039062c0,.99121094.45117188,1.48730469,1.35351562,1.48730469.86132812,0,1.453125-.29980469,1.77539062-.89746094v-6.74023438h2.54882812v9.50976562h-2.390625l-.0703125-.96679688Z"/>
    <path class="cls-5" d="M77.67971851,20.39759387h4.64941406v2.04785156h-7.89257812v-1.546875l4.47363281-5.91503906h-4.34179688v-2.04785156h7.62011719v1.49609375l-4.50878906,5.96582031Z"/>
    <path class="cls-5" d="M92.35745288,20.57337512c.46875,0,.84960938-.12890625,1.14257812-.38671875s.4453125-.60058594.45703125-1.02832031h2.38183594c-.00585938.64453125-.18164062,1.234375-.52734375,1.77050781s-.81884766.95214844-1.41943359,1.24804688-1.26416016.44433594-1.99072266.44433594c-1.359375,0-2.43164062-.43261719-3.21679688-1.296875s-1.17773438-2.05761719-1.17773438-3.58105469v-.16699219c0-1.46484375.38964844-2.63378906,1.16894531-3.50683594s1.84863281-1.30957031,3.20800781-1.30957031c1.18945312,0,2.14306641.33789062,2.86083984,1.01464844s1.08251953,1.578125,1.09423828,2.703125h-2.38183594c-.01171875-.49511719-.1640625-.89746094-.45703125-1.20605469-.29296875-.30957031-.6796875-.46386719-1.16015625-.46386719-.59179688,0-1.03857422.21582031-1.34033203.64648438-.30175781.43164062-.45263672,1.13183594-.45263672,2.09960938v.26367188c0,.98046875.14941406,1.68457031.44824219,2.11328125s.75292969.64257812,1.36230469.64257812Z"/>
    <path class="cls-5" d="M102.16604663,22.62122668c-1.39453125,0-2.52978516-.42773438-3.40576172-1.28320312s-1.31396484-1.99511719-1.31396484-3.41894531v-.24609375c0-.95507812.18457031-1.80957031.55371094-2.5625s.89208984-1.33300781,1.56884766-1.74023438,1.44873047-.61035156,2.31591797-.61035156c1.30078125,0,2.32470703.41015625,3.07177734,1.23046875s1.12060547,1.98339844,1.12060547,3.48925781v1.03710938h-6.05566406c.08203125.62109375.32958984,1.11914062.74267578,1.49414062s.93603516.5625,1.56884766.5625c.97851562,0,1.74316406-.35449219,2.29394531-1.06347656l1.24804688,1.39746094c-.38085938.5390625-.89648438.95898438-1.546875,1.26074219s-1.37109375.453125-2.16210938.453125ZM101.87600757,14.80775012c-.50390625,0-.91259766.17089844-1.22607422.51171875-.31347656.34179688-.51416016.83007812-.60205078,1.46582031h3.53320312v-.203125c-.01171875-.56542969-.1640625-1.00195312-.45703125-1.31152344-.29296875-.30859375-.70898438-.46289062-1.24804688-.46289062Z"/>
    <path class="cls-5" d="M110.19924976,22.44544543h-2.54882812v-13.5h2.54882812v13.5Z"/>
    <path class="cls-5" d="M115.7451482,18.63099231l-.9140625.9140625v2.90039062h-2.54003906v-13.5h2.54003906v7.47949219l.4921875-.6328125,2.43457031-2.85644531h3.04980469l-3.43652344,3.96386719,3.73535156,5.54589844h-2.91796875l-2.44335938-3.81445312Z"/>
    <path class="cls-5" d="M121.5107732,17.602672c0-.94335938.18164062-1.78417969.54492188-2.52246094s.88623047-1.30957031,1.56884766-1.71386719,1.47509766-.60644531,2.37744141-.60644531c1.28320312,0,2.33056641.39257812,3.14208984,1.17773438s1.26416016,1.8515625,1.35791016,3.19921875l.01757812.65039062c0,1.45898438-.40722656,2.62890625-1.22167969,3.51074219s-1.90722656,1.32324219-3.27832031,1.32324219-2.46533203-.43945312-3.28271484-1.31835938-1.22607422-2.07421875-1.22607422-3.5859375v-.11425781ZM124.05081226,17.7823595c0,.90429688.16992188,1.59472656.50976562,2.07324219s.82617188.71777344,1.45898438.71777344c.61523438,0,1.09570312-.23632812,1.44140625-.70898438s.51855469-1.22753906.51855469-2.26660156c0-.88574219-.17285156-1.57226562-.51855469-2.05957031s-.83203125-.73046875-1.45898438-.73046875c-.62109375,0-1.1015625.2421875-1.44140625.72558594-.33984375.484375-.50976562,1.234375-.50976562,2.24902344Z"/>
    <path class="cls-5" d="M135.51174976,19.34290637l1.76660156-6.40722656h2.65429688l-3.20800781,9.50976562h-2.42578125l-3.20800781-9.50976562h2.65429688l1.76660156,6.40722656Z"/>
    <path class="cls-5" d="M145.42581226,22.62122668c-1.39453125,0-2.52978516-.42773438-3.40576172-1.28320312s-1.31396484-1.99511719-1.31396484-3.41894531v-.24609375c0-.95507812.18457031-1.80957031.55371094-2.5625s.89208984-1.33300781,1.56884766-1.74023438,1.44873047-.61035156,2.31591797-.61035156c1.30078125,0,2.32470703.41015625,3.07177734,1.23046875s1.12060547,1.98339844,1.12060547,3.48925781v1.03710938h-6.05566406c.08203125.62109375.32958984,1.11914062.74267578,1.49414062s.93603516.5625,1.56884766.5625c.97851562,0,1.74316406-.35449219,2.29394531-1.06347656l1.24804688,1.39746094c-.38085938.5390625-.89648438.95898438-1.546875,1.26074219s-1.37109375.453125-2.16210938.453125ZM145.1357732,14.80775012c-.50390625,0-.91259766.17089844-1.22607422.51171875-.31347656.34179688-.51416016.83007812-.60205078,1.46582031h3.53320312v-.203125c-.01171875-.56542969-.1640625-1.00195312-.45703125-1.31152344-.29296875-.30859375-.70898438-.46289062-1.24804688-.46289062ZM145.36428882,8.94544543h2.76855469l-2.43457031,2.72460938h-2.06542969l1.73144531-2.72460938Z"/>
    <path class="cls-5" d="M160.41116382,19.81751575c0-.31054688-.15380859-.55566406-.46142578-.734375s-.80126953-.33789062-1.48095703-.47851562c-2.26171875-.47460938-3.39257812-1.43554688-3.39257812-2.8828125,0-.84375.35009766-1.54882812,1.05029297-2.11425781s1.61572266-.84765625,2.74658203-.84765625c1.20703125,0,2.17236328.28417969,2.89599609.85253906s1.08544922,1.30664062,1.08544922,2.21484375h-2.54003906c0-.36328125-.1171875-.6640625-.3515625-.90136719s-.60058594-.35546875-1.09863281-.35546875c-.42773438,0-.75878906.09667969-.99316406.29003906s-.3515625.43945312-.3515625.73828125c0,.28125.13330078.5078125.39990234.68066406s.71630859.32226562,1.34912109.44824219,1.16601562.26855469,1.59960938.42675781c1.34179688.4921875,2.01269531,1.34472656,2.01269531,2.55761719,0,.8671875-.37207031,1.56835938-1.11621094,2.10449219s-1.70507812.8046875-2.8828125.8046875c-.796875,0-1.50439453-.14257812-2.12255859-.42675781s-1.10302734-.67382812-1.45458984-1.16894531-.52734375-1.02929688-.52734375-1.60351562h2.40820312c.0234375.45117188.19042969.796875.50097656,1.03710938s.7265625.36035156,1.24804688.36035156c.48632812,0,.85400391-.09277344,1.10302734-.27734375s.37353516-.42578125.37353516-.72460938Z"/>
    <path class="cls-5" d="M173.07620288,17.77845325c0,1.46484375-.33251953,2.63769531-.99755859,3.51953125s-1.56298828,1.32324219-2.69384766,1.32324219c-.9609375,0-1.73730469-.33398438-2.32910156-1.00195312v4.48242188h-2.54003906v-13.16601562h2.35546875l.08789062.93164062c.61523438-.73828125,1.41796875-1.10742188,2.40820312-1.10742188,1.171875,0,2.08300781.43359375,2.73339844,1.30078125s.97558594,2.0625.97558594,3.5859375v.13183594ZM170.53616382,17.59388293c0-.88476562-.15673828-1.56738281-.47021484-2.04785156s-.76904297-.72070312-1.36669922-.72070312c-.796875,0-1.34472656.3046875-1.64355469.9140625v3.89355469c.31054688.62695312.86425781.94042969,1.66113281.94042969,1.21289062,0,1.81933594-.99316406,1.81933594-2.97949219Z"/>
    <path class="cls-5" d="M174.25393726,17.602672c0-.94335938.18164062-1.78417969.54492188-2.52246094s.88623047-1.30957031,1.56884766-1.71386719,1.47509766-.60644531,2.37744141-.60644531c1.28320312,0,2.33056641.39257812,3.14208984,1.17773438s1.26416016,1.8515625,1.35791016,3.19921875l.01757812.65039062c0,1.45898438-.40722656,2.62890625-1.22167969,3.51074219s-1.90722656,1.32324219-3.27832031,1.32324219-2.46533203-.43945312-3.28271484-1.31835938-1.22607422-2.07421875-1.22607422-3.5859375v-.11425781ZM176.79397632,17.7823595c0,.90429688.16992188,1.59472656.50976562,2.07324219s.82617188.71777344,1.45898438.71777344c.61523438,0,1.09570312-.23632812,1.44140625-.70898438s.51855469-1.22753906.51855469-2.26660156c0-.88574219-.17285156-1.57226562-.51855469-2.05957031s-.83203125-.73046875-1.45898438-.73046875c-.62109375,0-1.1015625.2421875-1.44140625.72558594-.33984375.484375-.50976562,1.234375-.50976562,2.24902344Z"/>
    <path class="cls-5" d="M187.86819507,10.59778918v2.33789062h1.62597656v1.86328125h-1.62597656v4.74609375c0,.3515625.06738281.60351562.20214844.75585938s.39257812.22851562.7734375.22851562c.28125,0,.53027344-.02050781.74707031-.06152344v1.92480469c-.49804688.15234375-1.01074219.22851562-1.53808594.22851562-1.78125,0-2.68945312-.89941406-2.72460938-2.69824219v-5.12402344h-1.38867188v-1.86328125h1.38867188v-2.33789062h2.54003906Z"/>
    <path class="cls-5" d="M193.54592945,10.19349231l1.28320312-1.25683594h2.17089844v.09667969l-2.65429688,2.46972656h-1.60839844l-2.65429688-2.48730469v-.07910156h2.17089844l1.29199219,1.25683594ZM196.2529607,15.31751575c-.34570312-.046875-.65039062-.0703125-.9140625-.0703125-.9609375,0-1.59082031.32519531-1.88964844.97558594v6.22265625h-2.54003906v-9.50976562h2.39941406l.0703125,1.13378906c.50976562-.87304688,1.21582031-1.30957031,2.11816406-1.30957031.28125,0,.54492188.03808594.79101562.11425781l-.03515625,2.44335938Z"/>
    <path class="cls-5" d="M201.85159351,22.62122668c-1.39453125,0-2.52978516-.42773438-3.40576172-1.28320312s-1.31396484-1.99511719-1.31396484-3.41894531v-.24609375c0-.95507812.18457031-1.80957031.55371094-2.5625s.89208984-1.33300781,1.56884766-1.74023438,1.44873047-.61035156,2.31591797-.61035156c1.30078125,0,2.32470703.41015625,3.07177734,1.23046875s1.12060547,1.98339844,1.12060547,3.48925781v1.03710938h-6.05566406c.08203125.62109375.32958984,1.11914062.74267578,1.49414062s.93603516.5625,1.56884766.5625c.97851562,0,1.74316406-.35449219,2.29394531-1.06347656l1.24804688,1.39746094c-.38085938.5390625-.89648438.95898438-1.546875,1.26074219s-1.37109375.453125-2.16210938.453125ZM201.56155445,14.80775012c-.50390625,0-.91259766.17089844-1.22607422.51171875-.31347656.34179688-.51416016.83007812-.60205078,1.46582031h3.53320312v-.203125c-.01171875-.56542969-.1640625-1.00195312-.45703125-1.31152344-.29296875-.30859375-.70898438-.46289062-1.24804688-.46289062Z"/>
    <path class="cls-5" d="M215.77346851,17.77845325c0,1.5234375-.32519531,2.7109375-.97558594,3.56347656s-1.55859375,1.27929688-2.72460938,1.27929688c-1.03125,0-1.85449219-.39550781-2.46972656-1.18652344l-.11425781,1.01074219h-2.28515625v-13.5h2.54003906v4.84277344c.5859375-.68554688,1.35644531-1.02832031,2.31152344-1.02832031,1.16015625,0,2.06982422.42578125,2.72900391,1.27832031s.98876953,2.05273438.98876953,3.59960938v.140625ZM213.23342945,17.59388293c0-.9609375-.15234375-1.66308594-.45703125-2.10546875s-.75878906-.66308594-1.36230469-.66308594c-.80859375,0-1.36523438.33105469-1.66992188.99316406v3.75292969c.31054688.66796875.87304688,1.00195312,1.6875,1.00195312.8203125,0,1.359375-.40429688,1.6171875-1.21289062.12304688-.38671875.18457031-.97558594.18457031-1.76660156Z"/>
    <path class="cls-5" d="M220.88870288,18.85071887l1.7578125-5.91503906h2.72460938l-3.82324219,10.98632812-.2109375.50097656c-.56835938,1.2421875-1.50585938,1.86328125-2.8125,1.86328125-.36914062,0-.74414062-.05566406-1.125-.16699219v-1.92480469l.38671875.00878906c.48046875,0,.83935547-.07324219,1.07666016-.21972656s.42333984-.38964844.55810547-.72949219l.29882812-.78222656-3.33105469-9.53613281h2.73339844l1.76660156,5.91503906Z"/>
    <path class="cls-5" d="M235.23245288,22.62122668c-1.39453125,0-2.52978516-.42773438-3.40576172-1.28320312s-1.31396484-1.99511719-1.31396484-3.41894531v-.24609375c0-.95507812.18457031-1.80957031.55371094-2.5625s.89208984-1.33300781,1.56884766-1.74023438,1.44873047-.61035156,2.31591797-.61035156c1.30078125,0,2.32470703.41015625,3.07177734,1.23046875s1.12060547,1.98339844,1.12060547,3.48925781v1.03710938h-6.05566406c.08203125.62109375.32958984,1.11914062.74267578,1.49414062s.93603516.5625,1.56884766.5625c.97851562,0,1.74316406-.35449219,2.29394531-1.06347656l1.24804688,1.39746094c-.38085938.5390625-.89648438.95898438-1.546875,1.26074219s-1.37109375.453125-2.16210938.453125ZM234.94241382,14.80775012c-.50390625,0-.91259766.17089844-1.22607422.51171875-.31347656.34179688-.51416016.83007812-.60205078,1.46582031h3.53320312v-.203125c-.01171875-.56542969-.1640625-1.00195312-.45703125-1.31152344-.29296875-.30859375-.70898438-.46289062-1.24804688-.46289062Z"/>
    <path class="cls-5" d="M243.26565601,22.44544543h-2.54882812v-13.5h2.54882812v13.5Z"/>
    <path class="cls-5" d="M249.73440601,22.62122668c-1.39453125,0-2.52978516-.42773438-3.40576172-1.28320312s-1.31396484-1.99511719-1.31396484-3.41894531v-.24609375c0-.95507812.18457031-1.80957031.55371094-2.5625s.89208984-1.33300781,1.56884766-1.74023438,1.44873047-.61035156,2.31591797-.61035156c1.30078125,0,2.32470703.41015625,3.07177734,1.23046875s1.12060547,1.98339844,1.12060547,3.48925781v1.03710938h-6.05566406c.08203125.62109375.32958984,1.11914062.74267578,1.49414062s.93603516.5625,1.56884766.5625c.97851562,0,1.74316406-.35449219,2.29394531-1.06347656l1.24804688,1.39746094c-.38085938.5390625-.89648438.95898438-1.546875,1.26074219s-1.37109375.453125-2.16210938.453125ZM249.44436695,14.80775012c-.50390625,0-.91259766.17089844-1.22607422.51171875-.31347656.34179688-.51416016.83007812-.60205078,1.46582031h3.53320312v-.203125c-.01171875-.56542969-.1640625-1.00195312-.45703125-1.31152344-.29296875-.30859375-.70898438-.46289062-1.24804688-.46289062Z"/>
    <path class="cls-5" d="M258.54104663,18.63099231l-.9140625.9140625v2.90039062h-2.54003906v-13.5h2.54003906v7.47949219l.4921875-.6328125,2.43457031-2.85644531h3.04980469l-3.43652344,3.96386719,3.73535156,5.54589844h-2.91796875l-2.44335938-3.81445312Z"/>
    <path class="cls-5" d="M267.74319507,10.59778918v2.33789062h1.62597656v1.86328125h-1.62597656v4.74609375c0,.3515625.06738281.60351562.20214844.75585938s.39257812.22851562.7734375.22851562c.28125,0,.53027344-.02050781.74707031-.06152344v1.92480469c-.49804688.15234375-1.01074219.22851562-1.53808594.22851562-1.78125,0-2.68945312-.89941406-2.72460938-2.69824219v-5.12402344h-1.38867188v-1.86328125h1.38867188v-2.33789062h2.54003906Z"/>
    <path class="cls-5" d="M273.42092945,10.19349231l1.28320312-1.25683594h2.17089844v.09667969l-2.65429688,2.46972656h-1.60839844l-2.65429688-2.48730469v-.07910156h2.17089844l1.29199219,1.25683594ZM276.1279607,15.31751575c-.34570312-.046875-.65039062-.0703125-.9140625-.0703125-.9609375,0-1.59082031.32519531-1.88964844.97558594v6.22265625h-2.54003906v-9.50976562h2.39941406l.0703125,1.13378906c.50976562-.87304688,1.21582031-1.30957031,2.11816406-1.30957031.28125,0,.54492188.03808594.79101562.11425781l-.03515625,2.44335938Z"/>
    <path class="cls-5" d="M277.33206226,10.47474231c0-.38085938.12744141-.69433594.38232422-.94042969s.60205078-.36914062,1.04150391-.36914062c.43359375,0,.77929688.12304688,1.03710938.36914062s.38671875.55957031.38671875.94042969c0,.38671875-.13037109.703125-.39111328.94921875s-.60498047.36914062-1.03271484.36914062-.77197266-.12304688-1.03271484-.36914062-.39111328-.5625-.39111328-.94921875ZM280.03030445,22.44544543h-2.54882812v-9.50976562h2.54882812v9.50976562Z"/>
    <path class="cls-5" d="M284.45999195,12.93567981l.07910156,1.09863281c.6796875-.84960938,1.59082031-1.27441406,2.73339844-1.27441406,1.0078125,0,1.7578125.29589844,2.25.88769531s.74414062,1.4765625.75585938,2.65429688v6.14355469h-2.54003906v-6.08203125c0-.5390625-.1171875-.93066406-.3515625-1.17382812s-.62402344-.36425781-1.16894531-.36425781c-.71484375,0-1.25097656.3046875-1.60839844.9140625v6.70605469h-2.54003906v-9.50976562h2.390625Z"/>
    <path class="cls-5" d="M295.75393726,18.85071887l1.7578125-5.91503906h2.72460938l-3.82324219,10.98632812-.2109375.50097656c-.56835938,1.2421875-1.50585938,1.86328125-2.8125,1.86328125-.36914062,0-.74414062-.05566406-1.125-.16699219v-1.92480469l.38671875.00878906c.48046875,0,.83935547-.07324219,1.07666016-.21972656s.42333984-.38964844.55810547-.72949219l.29882812-.78222656-3.33105469-9.53613281h2.73339844l1.76660156,5.91503906Z"/>
    <path class="cls-5" d="M309.28030445,19.34290637l1.76660156-6.40722656h2.65429688l-3.20800781,9.50976562h-2.42578125l-3.20800781-9.50976562h2.65429688l1.76660156,6.40722656Z"/>
    <path class="cls-5" d="M329.51272632,18.18275012c-.09960938,1.37695312-.60791016,2.4609375-1.52490234,3.25195312s-2.12548828,1.18652344-3.62548828,1.18652344c-1.640625,0-2.93115234-.55273438-3.87158203-1.65722656s-1.41064453-2.62011719-1.41064453-4.54785156v-.78222656c0-1.23046875.21679688-2.31445312.65039062-3.25195312s1.05322266-1.65722656,1.85888672-2.15820312,1.74169922-.75097656,2.80810547-.75097656c1.4765625,0,2.66601562.39550781,3.56835938,1.18652344s1.42382812,1.90136719,1.56445312,3.33105469h-2.63671875c-.06445312-.82617188-.29443359-1.42578125-.68994141-1.79785156s-.99755859-.55761719-1.80615234-.55761719c-.87890625,0-1.53662109.31445312-1.97314453.94433594s-.66064453,1.60742188-.67236328,2.93164062v.96679688c0,1.3828125.20947266,2.39355469.62841797,3.03222656s1.07958984.95800781,1.98193359.95800781c.81445312,0,1.42236328-.18652344,1.82373047-.55859375s.63134766-.94726562.68994141-1.7265625h2.63671875ZM324.37112476,7.39857043l1.28320312-1.25683594h2.17089844v.09667969l-2.65429688,2.46972656h-1.60839844l-2.65429688-2.48730469v-.07910156h2.17089844l1.29199219,1.25683594Z"/>
    <path class="cls-5" d="M335.98147632,17.76087512h-2.10058594v4.68457031h-2.63671875v-12.796875h4.75488281c1.51171875,0,2.67773438.33691406,3.49804688,1.01074219s1.23046875,1.62597656,1.23046875,2.85644531c0,.87304688-.18896484,1.60058594-.56689453,2.18359375s-.95068359,1.04785156-1.71826172,1.39355469l2.76855469,5.22949219v.12304688h-2.83007812l-2.39941406-4.68457031ZM333.88089038,15.62513293h2.12695312c.66210938,0,1.17480469-.16894531,1.53808594-.50585938s.54492188-.80078125.54492188-1.39257812c0-.60351562-.17138672-1.078125-.51416016-1.42382812s-.86865234-.51855469-1.57763672-.51855469h-2.11816406v3.84082031Z"/>
    <path class="cls-5" d="M350.08792163,10.59778918v2.33789062h1.62597656v1.86328125h-1.62597656v4.74609375c0,.3515625.06738281.60351562.20214844.75585938s.39257812.22851562.7734375.22851562c.28125,0,.53027344-.02050781.74707031-.06152344v1.92480469c-.49804688.15234375-1.01074219.22851562-1.53808594.22851562-1.78125,0-2.68945312-.89941406-2.72460938-2.69824219v-5.12402344h-1.38867188v-1.86328125h1.38867188v-2.33789062h2.54003906Z"/>
    <path class="cls-5" d="M356.68850757,19.34290637l1.76660156-6.40722656h2.65429688l-3.20800781,9.50976562h-2.42578125l-3.20800781-9.50976562h2.65429688l1.76660156,6.40722656Z"/>
    <path class="cls-5" d="M361.6982732,17.602672c0-.94335938.18164062-1.78417969.54492188-2.52246094s.88623047-1.30957031,1.56884766-1.71386719,1.47509766-.60644531,2.37744141-.60644531c1.28320312,0,2.33056641.39257812,3.14208984,1.17773438s1.26416016,1.8515625,1.35791016,3.19921875l.01757812.65039062c0,1.45898438-.40722656,2.62890625-1.22167969,3.51074219s-1.90722656,1.32324219-3.27832031,1.32324219-2.46533203-.43945312-3.28271484-1.31835938-1.22607422-2.07421875-1.22607422-3.5859375v-.11425781ZM364.23831226,17.7823595c0,.90429688.16992188,1.59472656.50976562,2.07324219s.82617188.71777344,1.45898438.71777344c.61523438,0,1.09570312-.23632812,1.44140625-.70898438s.51855469-1.22753906.51855469-2.26660156c0-.88574219-.17285156-1.57226562-.51855469-2.05957031s-.83203125-.73046875-1.45898438-.73046875c-.62109375,0-1.1015625.2421875-1.44140625.72558594-.33984375.484375-.50976562,1.234375-.50976562,2.24902344Z"/>
    <path class="cls-5" d="M374.90823413,10.19349231l1.28320312-1.25683594h2.17089844v.09667969l-2.65429688,2.46972656h-1.60839844l-2.65429688-2.48730469v-.07910156h2.17089844l1.29199219,1.25683594ZM377.61526538,15.31751575c-.34570312-.046875-.65039062-.0703125-.9140625-.0703125-.9609375,0-1.59082031.32519531-1.88964844.97558594v6.22265625h-2.54003906v-9.50976562h2.39941406l.0703125,1.13378906c.50976562-.87304688,1.21582031-1.30957031,2.11816406-1.30957031.28125,0,.54492188.03808594.79101562.11425781l-.03515625,2.44335938Z"/>
    <path class="cls-5" d="M381.57913257,22.44544543h-2.54003906v-9.50976562h2.54003906v9.50976562ZM380.83206226,9.07728137h2.76855469l-2.43457031,2.72460938h-2.06542969l1.73144531-2.72460938Z"/>
    <path class="cls-3" d="M387.8545232,17.62025012c0-1.48242188.33251953-2.66308594.99755859-3.54199219s1.57470703-1.31835938,2.72900391-1.31835938c.92578125,0,1.69042969.34570312,2.29394531,1.03710938v-4.8515625h2.54882812v13.5h-2.29394531l-.12304688-1.01074219c-.6328125.79101562-1.44726562,1.18652344-2.44335938,1.18652344-1.11914062,0-2.01708984-.44140625-2.69384766-1.32324219s-1.01513672-2.10742188-1.01513672-3.67773438ZM390.39456226,17.80872668c0,.89257812.15527344,1.57617188.46582031,2.05175781.31054688.47460938.76171875.71289062,1.35351562.71289062.78515625,0,1.33886719-.33203125,1.66113281-.99511719v-3.75878906c-.31640625-.66308594-.86425781-.99414062-1.64355469-.99414062-1.22460938,0-1.83691406.99414062-1.83691406,2.98339844Z"/>
    <path class="cls-3" d="M397.99710132,17.602672c0-.94335938.18164062-1.78417969.54492188-2.52246094s.88623047-1.30957031,1.56884766-1.71386719,1.47509766-.60644531,2.37744141-.60644531c1.28320312,0,2.33056641.39257812,3.14208984,1.17773438s1.26416016,1.8515625,1.35791016,3.19921875l.01757812.65039062c0,1.45898438-.40722656,2.62890625-1.22167969,3.51074219s-1.90722656,1.32324219-3.27832031,1.32324219-2.46533203-.43945312-3.28271484-1.31835938-1.22607422-2.07421875-1.22607422-3.5859375v-.11425781ZM400.53714038,17.7823595c0,.90429688.16992188,1.59472656.50976562,2.07324219s.82617188.71777344,1.45898438.71777344c.61523438,0,1.09570312-.23632812,1.44140625-.70898438s.51855469-1.22753906.51855469-2.26660156c0-.88574219-.17285156-1.57226562-.51855469-2.05957031s-.83203125-.73046875-1.45898438-.73046875c-.62109375,0-1.1015625.2421875-1.44140625.72558594-.33984375.484375-.50976562,1.234375-.50976562,2.24902344Z"/>
    <path class="cls-3" d="M410.95217945,12.93567981l.07910156,1.06347656c.67382812-.82617188,1.58496094-1.23925781,2.73339844-1.23925781,1.22460938,0,2.06542969.48339844,2.52246094,1.45019531.66796875-.96679688,1.62011719-1.45019531,2.85644531-1.45019531,1.03125,0,1.79882812.29980469,2.30273438.90039062s.75585938,1.50488281.75585938,2.71191406v6.07324219h-2.54882812v-6.06445312c0-.5390625-.10546875-.93359375-.31640625-1.18261719s-.58300781-.37304688-1.11621094-.37304688c-.76171875,0-1.2890625.36328125-1.58203125,1.08984375l.00878906,6.53027344h-2.54003906v-6.05566406c0-.55078125-.10839844-.94921875-.32519531-1.1953125s-.5859375-.36914062-1.10742188-.36914062c-.72070312,0-1.2421875.29882812-1.56445312.89648438v6.72363281h-2.54003906v-9.50976562h2.38183594Z"/>
    <path class="cls-3" d="M429.66409351,22.44544543c-.1171875-.22851562-.20214844-.51269531-.25488281-.85253906-.61523438.68554688-1.41503906,1.02832031-2.39941406,1.02832031-.93164062,0-1.70361328-.26953125-2.31591797-.80859375s-.91845703-1.21875-.91845703-2.0390625c0-1.0078125.37353516-1.78125,1.12060547-2.3203125s1.82666016-.81152344,3.23876953-.81738281h1.16894531v-.54492188c0-.43945312-.11279297-.79101562-.33837891-1.0546875s-.58154297-.39550781-1.06787109-.39550781c-.42773438,0-.76318359.10253906-1.00634766.30761719s-.36474609.48632812-.36474609.84375h-2.54003906c0-.55078125.16992188-1.06054688.50976562-1.52929688s.8203125-.83691406,1.44140625-1.10351562,1.31835938-.39941406,2.09179688-.39941406c1.171875,0,2.10205078.29394531,2.79052734.8828125s1.03271484,1.41699219,1.03271484,2.48339844v4.12207031c.00585938.90234375.13183594,1.58496094.37792969,2.04785156v.14941406h-2.56640625ZM427.56350757,20.67884387c.375,0,.72070312-.08398438,1.03710938-.25097656s.55078125-.390625.703125-.671875v-1.63476562h-.94921875c-1.27148438,0-1.94824219.43945312-2.03027344,1.31835938l-.00878906.14941406c0,.31640625.11132812.57714844.33398438.78222656s.52734375.30761719.9140625.30761719ZM428.53030445,8.94544543h2.76855469l-2.43457031,2.72460938h-2.06542969l1.73144531-2.72460938Z"/>
    <path class="cls-3" d="M437.75882007,20.57337512c.46875,0,.84960938-.12890625,1.14257812-.38671875s.4453125-.60058594.45703125-1.02832031h2.38183594c-.00585938.64453125-.18164062,1.234375-.52734375,1.77050781s-.81884766.95214844-1.41943359,1.24804688-1.26416016.44433594-1.99072266.44433594c-1.359375,0-2.43164062-.43261719-3.21679688-1.296875s-1.17773438-2.05761719-1.17773438-3.58105469v-.16699219c0-1.46484375.38964844-2.63378906,1.16894531-3.50683594s1.84863281-1.30957031,3.20800781-1.30957031c1.18945312,0,2.14306641.33789062,2.86083984,1.01464844s1.08251953,1.578125,1.09423828,2.703125h-2.38183594c-.01171875-.49511719-.1640625-.89746094-.45703125-1.20605469-.29296875-.30957031-.6796875-.46386719-1.16015625-.46386719-.59179688,0-1.03857422.21582031-1.34033203.64648438-.30175781.43164062-.45263672,1.13183594-.45263672,2.09960938v.26367188c0,.98046875.14941406,1.68457031.44824219,2.11328125s.75292969.64257812,1.36230469.64257812Z"/>
    <path class="cls-3" d="M445.52835132,12.93567981l.07910156,1.09863281c.6796875-.84960938,1.59082031-1.27441406,2.73339844-1.27441406,1.0078125,0,1.7578125.29589844,2.25.88769531s.74414062,1.4765625.75585938,2.65429688v6.14355469h-2.54003906v-6.08203125c0-.5390625-.1171875-.93066406-.3515625-1.17382812s-.62402344-.36425781-1.16894531-.36425781c-.71484375,0-1.25097656.3046875-1.60839844.9140625v6.70605469h-2.54003906v-9.50976562h2.390625Z"/>
    <path class="cls-3" d="M452.87600757,17.602672c0-.94335938.18164062-1.78417969.54492188-2.52246094s.88623047-1.30957031,1.56884766-1.71386719,1.47509766-.60644531,2.37744141-.60644531c1.28320312,0,2.33056641.39257812,3.14208984,1.17773438s1.26416016,1.8515625,1.35791016,3.19921875l.01757812.65039062c0,1.45898438-.40722656,2.62890625-1.22167969,3.51074219s-1.90722656,1.32324219-3.27832031,1.32324219-2.46533203-.43945312-3.28271484-1.31835938-1.22607422-2.07421875-1.22607422-3.5859375v-.11425781ZM455.41604663,17.7823595c0,.90429688.16992188,1.59472656.50976562,2.07324219s.82617188.71777344,1.45898438.71777344c.61523438,0,1.09570312-.23632812,1.44140625-.70898438s.51855469-1.22753906.51855469-2.26660156c0-.88574219-.17285156-1.57226562-.51855469-2.05957031s-.83203125-.73046875-1.45898438-.73046875c-.62109375,0-1.1015625.2421875-1.44140625.72558594-.33984375.484375-.50976562,1.234375-.50976562,2.24902344Z"/>
    <path class="cls-3" d="M468.59964038,19.81751575c0-.31054688-.15380859-.55566406-.46142578-.734375s-.80126953-.33789062-1.48095703-.47851562c-2.26171875-.47460938-3.39257812-1.43554688-3.39257812-2.8828125,0-.84375.35009766-1.54882812,1.05029297-2.11425781s1.61572266-.84765625,2.74658203-.84765625c1.20703125,0,2.17236328.28417969,2.89599609.85253906s1.08544922,1.30664062,1.08544922,2.21484375h-2.54003906c0-.36328125-.1171875-.6640625-.3515625-.90136719s-.60058594-.35546875-1.09863281-.35546875c-.42773438,0-.75878906.09667969-.99316406.29003906s-.3515625.43945312-.3515625.73828125c0,.28125.13330078.5078125.39990234.68066406s.71630859.32226562,1.34912109.44824219,1.16601562.26855469,1.59960938.42675781c1.34179688.4921875,2.01269531,1.34472656,2.01269531,2.55761719,0,.8671875-.37207031,1.56835938-1.11621094,2.10449219s-1.70507812.8046875-2.8828125.8046875c-.796875,0-1.50439453-.14257812-2.12255859-.42675781s-1.10302734-.67382812-1.45458984-1.16894531-.52734375-1.02929688-.52734375-1.60351562h2.40820312c.0234375.45117188.19042969.796875.50097656,1.03710938s.7265625.36035156,1.24804688.36035156c.48632812,0,.85400391-.09277344,1.10302734-.27734375s.37353516-.42578125.37353516-.72460938Z"/>
    <path class="cls-3" d="M475.7451482,10.59778918v2.33789062h1.62597656v1.86328125h-1.62597656v4.74609375c0,.3515625.06738281.60351562.20214844.75585938s.39257812.22851562.7734375.22851562c.28125,0,.53027344-.02050781.74707031-.06152344v1.92480469c-.49804688.15234375-1.01074219.22851562-1.53808594.22851562-1.78125,0-2.68945312-.89941406-2.72460938-2.69824219v-5.12402344h-1.38867188v-1.86328125h1.38867188v-2.33789062h2.54003906Z"/>
    <path class="cls-3" d="M478.7685857,10.47474231c0-.38085938.12744141-.69433594.38232422-.94042969s.60205078-.36914062,1.04150391-.36914062c.43359375,0,.77929688.12304688,1.03710938.36914062s.38671875.55957031.38671875.94042969c0,.38671875-.13037109.703125-.39111328.94921875s-.60498047.36914062-1.03271484.36914062-.77197266-.12304688-1.03271484-.36914062-.39111328-.5625-.39111328-.94921875ZM481.46682788,22.44544543h-2.54882812v-9.50976562h2.54882812v9.50976562Z"/>
  </g>
  <g>
    <path class="cls-3" d="M246.89651538,62.77601184v-8.53125h2.625c.75,0,1.42089844.16894531,2.01269531.50683594s1.05371094.81835938,1.38574219,1.44140625.49804688,1.33105469.49804688,2.12402344v.39257812c0,.79296875-.16308594,1.49804688-.48925781,2.11523438s-.78613281,1.09570312-1.37988281,1.43554688-1.26367188.51171875-2.00976562.515625h-2.64257812ZM248.65432788,55.66858997v5.6953125h.84960938c.6875,0,1.21289062-.22460938,1.57617188-.67382812s.54882812-1.09179688.55664062-1.92773438v-.45117188c0-.8671875-.1796875-1.52441406-.5390625-1.97167969s-.88476562-.67089844-1.57617188-.67089844h-.8671875Z"/>
    <path class="cls-3" d="M254.32034351,59.54749622c0-.62890625.12109375-1.18945312.36328125-1.68164062s.59082031-.87304688,1.04589844-1.14257812.98339844-.40429688,1.58496094-.40429688c.85546875,0,1.55371094.26171875,2.09472656.78515625s.84277344,1.234375.90527344,2.1328125l.01171875.43359375c0,.97265625-.27148438,1.75292969-.81445312,2.34082031s-1.27148438.88183594-2.18554688.88183594-1.64355469-.29296875-2.18847656-.87890625-.81738281-1.3828125-.81738281-2.390625v-.07617188ZM256.01370288,59.6676134c0,.60253906.11328125,1.06347656.33984375,1.38183594.2265625.31933594.55078125.47851562.97265625.47851562.41015625,0,.73046875-.15722656.9609375-.47265625.23046875-.31445312.34570312-.81835938.34570312-1.51074219,0-.59082031-.11523438-1.04833984-.34570312-1.37304688s-.5546875-.48730469-.97265625-.48730469c-.4140625,0-.734375.16162109-.9609375.484375s-.33984375.82226562-.33984375,1.49902344Z"/>
    <path class="cls-3" d="M262.95706226,56.43616809l.05273438.70898438c.44921875-.55078125,1.05664062-.82617188,1.82226562-.82617188.81640625,0,1.37695312.32226562,1.68164062.96679688.4453125-.64453125,1.08007812-.96679688,1.90429688-.96679688.6875,0,1.19921875.20019531,1.53515625.60058594s.50390625,1.00292969.50390625,1.80761719v4.04882812h-1.69921875v-4.04296875c0-.359375-.0703125-.62207031-.2109375-.78808594s-.38867188-.24902344-.74414062-.24902344c-.5078125,0-.859375.2421875-1.0546875.7265625l.00585938,4.35351562h-1.69335938v-4.03710938c0-.3671875-.07226562-.6328125-.21679688-.796875s-.390625-.24609375-.73828125-.24609375c-.48046875,0-.828125.19921875-1.04296875.59765625v4.48242188h-1.69335938v-6.33984375h1.58789062Z"/>
    <path class="cls-3" d="M275.43167163,62.77601184c-.078125-.15234375-.13476562-.34179688-.16992188-.56835938-.41015625.45703125-.94335938.68554688-1.59960938.68554688-.62109375,0-1.13574219-.1796875-1.54394531-.5390625s-.61230469-.8125-.61230469-1.359375c0-.671875.24902344-1.1875.74707031-1.546875s1.21777344-.54101562,2.15917969-.54492188h.77929688v-.36328125c0-.29296875-.07519531-.52734375-.22558594-.703125s-.38769531-.26367188-.71191406-.26367188c-.28515625,0-.50878906.06835938-.67089844.20507812s-.24316406.32421875-.24316406.5625h-1.69335938c0-.3671875.11328125-.70703125.33984375-1.01953125s.546875-.55761719.9609375-.73535156.87890625-.26660156,1.39453125-.26660156c.78125,0,1.40136719.19628906,1.86035156.58886719s.68847656.94433594.68847656,1.65527344v2.74804688c.00390625.6015625.08789062,1.05664062.25195312,1.36523438v.09960938h-1.7109375ZM274.03128101,61.59827747c.25,0,.48046875-.05566406.69140625-.16699219s.3671875-.26074219.46875-.44824219v-1.08984375h-.6328125c-.84765625,0-1.29882812.29296875-1.35351562.87890625l-.00585938.09960938c0,.2109375.07421875.38476562.22265625.52148438s.3515625.20507812.609375.20507812ZM274.67581226,53.77601184h1.84570312l-1.62304688,1.81640625h-1.37695312l1.15429688-1.81640625Z"/>
    <path class="cls-3" d="M280.82815601,61.52796497c.3125,0,.56640625-.0859375.76171875-.2578125s.296875-.40039062.3046875-.68554688h1.58789062c-.00390625.4296875-.12109375.82324219-.3515625,1.18066406s-.54589844.63476562-.94628906.83203125-.84277344.29589844-1.32714844.29589844c-.90625,0-1.62109375-.28808594-2.14453125-.86425781s-.78515625-1.37207031-.78515625-2.38769531v-.11132812c0-.9765625.25976562-1.75585938.77929688-2.33789062s1.23242188-.87304688,2.13867188-.87304688c.79296875,0,1.42871094.22558594,1.90722656.67675781s.72167969,1.05175781.72949219,1.80175781h-1.58789062c-.0078125-.32958984-.109375-.59765625-.3046875-.80419922-.1953125-.20605469-.453125-.30908203-.7734375-.30908203-.39453125,0-.69238281.14404297-.89355469.43115234-.20117188.28759766-.30175781.75439453-.30175781,1.39990234v.17578125c0,.65332031.09960938,1.12304688.29882812,1.40869141s.50195312.42822266.90820312.42822266Z"/>
    <path class="cls-3" d="M286.00784351,56.43616809l.05273438.73242188c.453125-.56640625,1.06054688-.84960938,1.82226562-.84960938.671875,0,1.171875.19726562,1.5.59179688s.49609375.984375.50390625,1.76953125v4.09570312h-1.69335938v-4.0546875c0-.359375-.078125-.62011719-.234375-.78222656s-.41601562-.24316406-.77929688-.24316406c-.4765625,0-.83398438.203125-1.07226562.609375v4.47070312h-1.69335938v-6.33984375h1.59375Z"/>
    <path class="cls-3" d="M290.90628101,59.54749622c0-.62890625.12109375-1.18945312.36328125-1.68164062s.59082031-.87304688,1.04589844-1.14257812.98339844-.40429688,1.58496094-.40429688c.85546875,0,1.55371094.26171875,2.09472656.78515625s.84277344,1.234375.90527344,2.1328125l.01171875.43359375c0,.97265625-.27148438,1.75292969-.81445312,2.34082031s-1.27148438.88183594-2.18554688.88183594-1.64355469-.29296875-2.18847656-.87890625-.81738281-1.3828125-.81738281-2.390625v-.07617188ZM292.59964038,59.6676134c0,.60253906.11328125,1.06347656.33984375,1.38183594.2265625.31933594.55078125.47851562.97265625.47851562.41015625,0,.73046875-.15722656.9609375-.47265625.23046875-.31445312.34570312-.81835938.34570312-1.51074219,0-.59082031-.11523438-1.04833984-.34570312-1.37304688s-.5546875-.48730469-.97265625-.48730469c-.4140625,0-.734375.16162109-.9609375.484375s-.33984375.82226562-.33984375,1.49902344Z"/>
    <path class="cls-3" d="M301.38870288,61.02405872c0-.20703125-.10253906-.37011719-.30761719-.48925781s-.53417969-.22558594-.98730469-.31933594c-1.5078125-.31640625-2.26171875-.95703125-2.26171875-1.921875,0-.5625.23339844-1.03222656.70019531-1.40917969s1.07714844-.56542969,1.83105469-.56542969c.8046875,0,1.44824219.18945312,1.93066406.56835938s.72363281.87109375.72363281,1.4765625h-1.69335938c0-.2421875-.078125-.44238281-.234375-.60058594s-.40039062-.23730469-.73242188-.23730469c-.28515625,0-.50585938.06445312-.66210938.19335938s-.234375.29296875-.234375.4921875c0,.1875.08886719.33886719.26660156.45410156s.47753906.21484375.89941406.29882812.77734375.17871094,1.06640625.28417969c.89453125.328125,1.34179688.89648438,1.34179688,1.70507812,0,.578125-.24804688,1.04589844-.74414062,1.40332031s-1.13671875.53613281-1.921875.53613281c-.53125,0-1.00292969-.09472656-1.41503906-.28417969s-.73535156-.44921875-.96972656-.77929688-.3515625-.68652344-.3515625-1.06933594h1.60546875c.015625.30078125.12695312.53125.33398438.69140625s.484375.24023438.83203125.24023438c.32421875,0,.56933594-.06152344.73535156-.18457031s.24902344-.28417969.24902344-.48339844Z"/>
    <path class="cls-3" d="M306.15237476,54.87757434v1.55859375h1.08398438v1.2421875h-1.08398438v3.1640625c0,.234375.04492188.40234375.13476562.50390625s.26171875.15234375.515625.15234375c.1875,0,.35351562-.01367188.49804688-.04101562v1.28320312c-.33203125.1015625-.67382812.15234375-1.02539062.15234375-1.1875,0-1.79296875-.59960938-1.81640625-1.79882812v-3.41601562h-.92578125v-1.2421875h.92578125v-1.55859375h1.69335938Z"/>
    <path class="cls-3" d="M308.16799976,54.79554309c0-.25390625.08496094-.46289062.25488281-.62695312s.40136719-.24609375.69433594-.24609375c.2890625,0,.51953125.08203125.69140625.24609375s.2578125.37304688.2578125.62695312c0,.2578125-.08691406.46875-.26074219.6328125s-.40332031.24609375-.68847656.24609375-.51464844-.08203125-.68847656-.24609375-.26074219-.375-.26074219-.6328125ZM309.96682788,62.77601184h-1.69921875v-6.33984375h1.69921875v6.33984375Z"/>
  </g>
  <g>
    <path class="cls-4" d="M427.44876148,58.78577747c0,.8359375-.140625,1.56542969-.421875,2.18847656s-.6796875,1.09863281-1.1953125,1.42675781-1.1171875.4921875-1.8046875.4921875c-.671875,0-1.26757812-.16503906-1.78710938-.49511719s-.92285156-.80078125-1.20996094-1.41210938-.43457031-1.31933594-.44238281-2.12402344v-.61523438c0-.8203125.14257812-1.54492188.42773438-2.17382812s.68847656-1.11035156,1.20996094-1.44433594,1.11816406-.50097656,1.79003906-.50097656c.68359375,0,1.28613281.16503906,1.80761719.49511719s.92285156.80859375,1.20410156,1.43554688.421875,1.35644531.421875,2.18847656v.5390625ZM426.32962085,58.23499622c0-1.01171875-.203125-1.78808594-.609375-2.32910156s-.97460938-.81152344-1.70507812-.81152344c-.7109375,0-1.27050781.27050781-1.67871094.81152344s-.61816406,1.29199219-.62988281,2.25292969v.62695312c0,.98046875.20605469,1.75097656.61816406,2.31152344s.97949219.84082031,1.70214844.84082031c.7265625,0,1.2890625-.26464844,1.6875-.79394531s.60351562-1.28808594.61523438-2.27636719v-.6328125Z"/>
    <path class="cls-4" d="M434.3335271,59.67640247c0,.96875-.22265625,1.74707031-.66796875,2.33496094s-1.04296875.88183594-1.79296875.88183594c-.80078125,0-1.41992188-.28320312-1.85742188-.84960938l-.05273438.73242188h-.99609375v-9h1.08398438v3.35742188c.4375-.54296875,1.04101562-.81445312,1.81054688-.81445312s1.37402344.29101562,1.81347656.87304688.65917969,1.37890625.65917969,2.390625v.09375ZM433.24954273,59.55335559c0-.73828125-.14257812-1.30859375-.42773438-1.7109375s-.6953125-.60351562-1.23046875-.60351562c-.71484375,0-1.22851562.33203125-1.54101562.99609375v2.7421875c.33203125.6640625.84960938.99609375,1.55273438.99609375.51953125,0,.92382812-.20117188,1.21289062-.60351562s.43359375-1.0078125.43359375-1.81640625Z"/>
    <path class="cls-4" d="M438.24173023,62.00843372c.38671875,0,.72460938-.1171875,1.01367188-.3515625s.44921875-.52734375.48046875-.87890625h1.02539062c-.01953125.36328125-.14453125.70898438-.375,1.03710938s-.53808594.58984375-.92285156.78515625-.79199219.29296875-1.22167969.29296875c-.86328125,0-1.54980469-.28808594-2.05957031-.86425781s-.76464844-1.36425781-.76464844-2.36425781v-.18164062c0-.6171875.11328125-1.16601562.33984375-1.64648438s.55175781-.85351562.97558594-1.11914062.92480469-.3984375,1.50292969-.3984375c.7109375,0,1.30175781.21289062,1.77246094.63867188s.72167969.97851562.75292969,1.65820312h-1.02539062c-.03125-.41015625-.18652344-.74707031-.46582031-1.01074219s-.62402344-.39550781-1.03417969-.39550781c-.55078125,0-.97753906.19824219-1.28027344.59472656s-.45410156.96972656-.45410156,1.71972656v.20507812c0,.73046875.15039062,1.29296875.45117188,1.6875s.73046875.59179688,1.2890625.59179688Z"/>
    <path class="cls-4" d="M443.06399585,57.20374622c.48046875-.58984375,1.10546875-.88476562,1.875-.88476562,1.33984375,0,2.015625.75585938,2.02734375,2.26757812v4.18945312h-1.08398438v-4.1953125c-.00390625-.45703125-.10839844-.79492188-.31347656-1.01367188s-.52441406-.328125-.95800781-.328125c-.3515625,0-.66015625.09375-.92578125.28125s-.47265625.43359375-.62109375.73828125v4.51757812h-1.08398438v-9h1.08398438v3.42773438Z"/>
    <path class="cls-4" d="M448.3022771,59.54749622c0-.62109375.12207031-1.1796875.36621094-1.67578125s.58398438-.87890625,1.01953125-1.1484375.93261719-.40429688,1.49121094-.40429688c.86328125,0,1.56152344.29882812,2.09472656.89648438s.79980469,1.39257812.79980469,2.38476562v.07617188c0,.6171875-.11816406,1.17089844-.35449219,1.66113281s-.57421875.87207031-1.01367188,1.14550781-.94433594.41015625-1.51464844.41015625c-.859375,0-1.55566406-.29882812-2.08886719-.89648438s-.79980469-1.38867188-.79980469-2.37304688v-.07617188ZM449.39212085,59.67640247c0,.703125.16308594,1.26757812.48925781,1.69335938s.76269531.63867188,1.30957031.63867188c.55078125,0,.98828125-.21582031,1.3125-.64746094s.48632812-1.03613281.48632812-1.81347656c0-.6953125-.16503906-1.25878906-.49511719-1.69042969s-.76855469-.64746094-1.31542969-.64746094c-.53515625,0-.96679688.21289062-1.29492188.63867188s-.4921875,1.03515625-.4921875,1.828125Z"/>
    <path class="cls-4" d="M455.1694646,59.55335559c0-.97265625.23046875-1.75488281.69140625-2.34667969s1.06445312-.88769531,1.81054688-.88769531c.7421875,0,1.33007812.25390625,1.76367188.76171875v-3.3046875h1.08398438v9h-.99609375l-.05273438-.6796875c-.43359375.53125-1.03710938.796875-1.81054688.796875-.734375,0-1.33300781-.30078125-1.79589844-.90234375s-.69433594-1.38671875-.69433594-2.35546875v-.08203125ZM456.25344898,59.67640247c0,.71875.1484375,1.28125.4453125,1.6875s.70703125.609375,1.23046875.609375c.6875,0,1.18945312-.30859375,1.50585938-.92578125v-2.91210938c-.32421875-.59765625-.82226562-.89648438-1.49414062-.89648438-.53125,0-.9453125.20507812-1.2421875.61523438s-.4453125,1.01757812-.4453125,1.82226562Z"/>
    <path class="cls-4" d="M469.08548023,62.77601184c-.0625-.125-.11328125-.34765625-.15234375-.66796875-.50390625.5234375-1.10546875.78515625-1.8046875.78515625-.625,0-1.13769531-.17675781-1.53808594-.53027344s-.60058594-.80175781-.60058594-1.34472656c0-.66015625.25097656-1.17285156.75292969-1.53808594s1.20800781-.54785156,2.11816406-.54785156h1.0546875v-.49804688c0-.37890625-.11328125-.68066406-.33984375-.90527344s-.56054688-.33691406-1.00195312-.33691406c-.38671875,0-.7109375.09765625-.97265625.29296875s-.39257812.43164062-.39257812.70898438h-1.08984375c0-.31640625.11230469-.62207031.33691406-.91699219s.52929688-.52832031.9140625-.70019531.80761719-.2578125,1.26855469-.2578125c.73046875,0,1.30273438.18261719,1.71679688.54785156s.62890625.86816406.64453125,1.50878906v2.91796875c0,.58203125.07421875,1.04492188.22265625,1.38867188v.09375h-1.13671875ZM467.2866521,61.94983997c.33984375,0,.66210938-.08789062.96679688-.26367188s.52539062-.40429688.66210938-.68554688v-1.30078125h-.84960938c-1.328125,0-1.9921875.38867188-1.9921875,1.16601562,0,.33984375.11328125.60546875.33984375.796875s.51757812.28710938.87304688.28710938Z"/>
    <path class="cls-4" d="M478.36087085,61.09437122c0-.29296875-.11035156-.52050781-.33105469-.68261719s-.60546875-.30175781-1.15429688-.41894531-.984375-.2578125-1.30664062-.421875-.56054688-.359375-.71484375-.5859375-.23144531-.49609375-.23144531-.80859375c0-.51953125.21972656-.95898438.65917969-1.31835938s1.00097656-.5390625,1.68457031-.5390625c.71875,0,1.30175781.18554688,1.74902344.55664062s.67089844.84570312.67089844,1.42382812h-1.08984375c0-.296875-.12597656-.55273438-.37792969-.76757812s-.56933594-.32226562-.95214844-.32226562c-.39453125,0-.703125.0859375-.92578125.2578125s-.33398438.39648438-.33398438.67382812c0,.26171875.10351562.45898438.31054688.59179688s.58105469.25976562,1.12207031.38085938.97949219.265625,1.31542969.43359375.58496094.37011719.74707031.60644531.24316406.52441406.24316406.86425781c0,.56640625-.2265625,1.02050781-.6796875,1.36230469s-1.04101562.51269531-1.76367188.51269531c-.5078125,0-.95703125-.08984375-1.34765625-.26953125s-.69628906-.43066406-.91699219-.75292969-.33105469-.67089844-.33105469-1.04589844h1.08398438c.01953125.36328125.16503906.65136719.43652344.86425781s.62988281.31933594,1.07519531.31933594c.41015625,0,.73925781-.08300781.98730469-.24902344s.37207031-.38769531.37207031-.66503906Z"/>
    <path class="cls-4" d="M482.03469898,62.77601184h-1.08398438v-9h1.08398438v9Z"/>
    <path class="cls-4" d="M487.68313648,62.14905872c-.421875.49609375-1.04101562.74414062-1.85742188.74414062-.67578125,0-1.19042969-.19628906-1.54394531-.58886719s-.53222656-.97363281-.53613281-1.74316406v-4.125h1.08398438v4.09570312c0,.9609375.390625,1.44140625,1.171875,1.44140625.828125,0,1.37890625-.30859375,1.65234375-.92578125v-4.61132812h1.08398438v6.33984375h-1.03125l-.0234375-.62695312Z"/>
    <path class="cls-4" d="M491.4038396,61.89124622h3.70898438v.88476562h-5.03320312v-.796875l3.49804688-4.64648438h-3.4453125v-.89648438h4.8046875v.76757812l-3.53320312,4.6875ZM492.56985523,54.77210559l.87890625-.99609375h.9375v.05859375l-1.48828125,1.60546875h-.66210938l-1.47070312-1.60546875v-.05859375h.91992188l.88476562.99609375Z"/>
    <path class="cls-4" d="M501.69876148,59.67640247c0,.96875-.22265625,1.74707031-.66796875,2.33496094s-1.04296875.88183594-1.79296875.88183594c-.80078125,0-1.41992188-.28320312-1.85742188-.84960938l-.05273438.73242188h-.99609375v-9h1.08398438v3.35742188c.4375-.54296875,1.04101562-.81445312,1.81054688-.81445312s1.37402344.29101562,1.81347656.87304688.65917969,1.37890625.65917969,2.390625v.09375ZM500.6147771,59.55335559c0-.73828125-.14257812-1.30859375-.42773438-1.7109375s-.6953125-.60351562-1.23046875-.60351562c-.71484375,0-1.22851562.33203125-1.54101562.99609375v2.7421875c.33203125.6640625.84960938.99609375,1.55273438.99609375.51953125,0,.92382812-.20117188,1.21289062-.60351562s.43359375-1.0078125.43359375-1.81640625Z"/>
    <path class="cls-4" d="M505.1382146,61.18812122l1.4765625-4.75195312h1.16015625l-2.54882812,7.31835938c-.39453125,1.0546875-1.02148438,1.58203125-1.88085938,1.58203125l-.20507812-.01757812-.40429688-.07617188v-.87890625l.29296875.0234375c.3671875,0,.65332031-.07421875.85839844-.22265625s.37402344-.41992188.50683594-.81445312l.24023438-.64453125-2.26171875-6.26953125h1.18359375l1.58203125,4.75195312Z"/>
  </g>
  <g>
    <path class="cls-4" d="M569.40969898,58.83265247h-3.69726562v3.0234375h4.29492188v.91992188h-5.41992188v-8.53125h5.36132812v.91992188h-4.23632812v2.74804688h3.69726562v.91992188Z"/>
    <path class="cls-4" d="M572.2632146,56.43616809l.03515625.796875c.484375-.609375,1.1171875-.9140625,1.8984375-.9140625,1.33984375,0,2.015625.75585938,2.02734375,2.26757812v4.18945312h-1.08398438v-4.1953125c-.00390625-.45703125-.10839844-.79492188-.31347656-1.01367188s-.52441406-.328125-.95800781-.328125c-.3515625,0-.66015625.09375-.92578125.28125s-.47265625.43359375-.62109375.73828125v4.51757812h-1.08398438v-6.33984375h1.02539062Z"/>
    <path class="cls-4" d="M580.4897771,62.89319934c-.859375,0-1.55859375-.28222656-2.09765625-.84667969s-.80859375-1.31933594-.80859375-2.26464844v-.19921875c0-.62890625.12011719-1.19042969.36035156-1.68457031s.57617188-.88085938,1.0078125-1.16015625.89941406-.41894531,1.40332031-.41894531c.82421875,0,1.46484375.27148438,1.921875.81445312s.68554688,1.3203125.68554688,2.33203125v.45117188h-4.29492188c.015625.625.19824219,1.12988281.54785156,1.51464844s.79394531.57714844,1.33300781.57714844c.3828125,0,.70703125-.078125.97265625-.234375s.49804688-.36328125.69726562-.62109375l.66210938.515625c-.53125.81640625-1.328125,1.22460938-2.390625,1.22460938ZM580.35501148,57.20960559c-.4375,0-.8046875.15917969-1.1015625.47753906s-.48046875.76464844-.55078125,1.33886719h3.17578125v-.08203125c-.03125-.55078125-.1796875-.97753906-.4453125-1.28027344s-.625-.45410156-1.078125-.45410156Z"/>
    <path class="cls-4" d="M587.28079273,57.40882434c-.1640625-.02734375-.34179688-.04101562-.53320312-.04101562-.7109375,0-1.19335938.30273438-1.44726562.90820312v4.5h-1.08398438v-6.33984375h1.0546875l.01757812.73242188c.35546875-.56640625.859375-.84960938,1.51171875-.84960938.2109375,0,.37109375.02734375.48046875.08203125v1.0078125Z"/>
    <path class="cls-4" d="M588.01907398,59.55335559c0-.98828125.22851562-1.77441406.68554688-2.35839844s1.0625-.87597656,1.81640625-.87597656c.7734375,0,1.37695312.2734375,1.81054688.8203125l.05273438-.703125h.99023438v6.1875c0,.8203125-.24316406,1.46679688-.72949219,1.93945312s-1.13964844.70898438-1.95996094.70898438c-.45703125,0-.90429688-.09765625-1.34179688-.29296875s-.77148438-.46289062-1.00195312-.80273438l.5625-.65039062c.46484375.57421875,1.03320312.86132812,1.70507812.86132812.52734375,0,.93847656-.1484375,1.23339844-.4453125s.44238281-.71484375.44238281-1.25390625v-.54492188c-.43359375.5-1.02539062.75-1.77539062.75-.7421875,0-1.34277344-.29882812-1.80175781-.89648438s-.68847656-1.41210938-.68847656-2.44335938ZM589.10891773,59.67640247c0,.71484375.14648438,1.27636719.43945312,1.68457031s.703125.61230469,1.23046875.61230469c.68359375,0,1.18554688-.31054688,1.50585938-.93164062v-2.89453125c-.33203125-.60546875-.83007812-.90820312-1.49414062-.90820312-.52734375,0-.93945312.20507812-1.23632812.61523438s-.4453125,1.01757812-.4453125,1.82226562Z"/>
    <path class="cls-4" d="M597.64016773,62.89319934c-.859375,0-1.55859375-.28222656-2.09765625-.84667969s-.80859375-1.31933594-.80859375-2.26464844v-.19921875c0-.62890625.12011719-1.19042969.36035156-1.68457031s.57617188-.88085938,1.0078125-1.16015625.89941406-.41894531,1.40332031-.41894531c.82421875,0,1.46484375.27148438,1.921875.81445312s.68554688,1.3203125.68554688,2.33203125v.45117188h-4.29492188c.015625.625.19824219,1.12988281.54785156,1.51464844s.79394531.57714844,1.33300781.57714844c.3828125,0,.70703125-.078125.97265625-.234375s.49804688-.36328125.69726562-.62109375l.66210938.515625c-.53125.81640625-1.328125,1.22460938-2.390625,1.22460938ZM597.5054021,57.20960559c-.4375,0-.8046875.15917969-1.1015625.47753906s-.48046875.76464844-.55078125,1.33886719h3.17578125v-.08203125c-.03125-.55078125-.1796875-.97753906-.4453125-1.28027344s-.625-.45410156-1.078125-.45410156Z"/>
    <path class="cls-4" d="M602.83743335,54.90101184v1.53515625h1.18359375v.83789062h-1.18359375v3.93652344c0,.25439453.05273438.44482422.15820312.57226562.10546875.12695312.28515625.19042969.5390625.19042969.125,0,.296875-.0234375.515625-.0703125v.87402344c-.28515625.07714844-.5625.11621094-.83203125.11621094-.484375,0-.84960938-.14648438-1.09570312-.43945312s-.36914062-.70898438-.36914062-1.24804688v-3.93164062h-1.15429688v-.83789062h1.15429688v-1.53515625h1.08398438Z"/>
    <path class="cls-4" d="M605.29251148,54.75452747c0-.17578125.05371094-.32421875.16113281-.4453125s.26660156-.18164062.47753906-.18164062.37109375.06054688.48046875.18164062.1640625.26953125.1640625.4453125-.0546875.32226562-.1640625.43945312-.26953125.17578125-.48046875.17578125-.37011719-.05859375-.47753906-.17578125-.16113281-.26367188-.16113281-.43945312ZM606.46438648,62.77601184h-1.08398438v-6.33984375h1.08398438v6.33984375Z"/>
    <path class="cls-4" d="M609.96829273,59.84046497l-.6796875.70898438v2.2265625h-1.08398438v-9h1.08398438v5.44335938l.58007812-.69726562,1.97460938-2.0859375h1.31835938l-2.46679688,2.6484375,2.75390625,3.69140625h-1.27148438l-2.20898438-2.93554688Z"/>
    <path class="cls-4" d="M618.19485523,62.77601184c-.0625-.125-.11328125-.34765625-.15234375-.66796875-.50390625.5234375-1.10546875.78515625-1.8046875.78515625-.625,0-1.13769531-.17675781-1.53808594-.53027344s-.60058594-.80175781-.60058594-1.34472656c0-.66015625.25097656-1.17285156.75292969-1.53808594s1.20800781-.54785156,2.11816406-.54785156h1.0546875v-.49804688c0-.37890625-.11328125-.68066406-.33984375-.90527344s-.56054688-.33691406-1.00195312-.33691406c-.38671875,0-.7109375.09765625-.97265625.29296875s-.39257812.43164062-.39257812.70898438h-1.08984375c0-.31640625.11230469-.62207031.33691406-.91699219s.52929688-.52832031.9140625-.70019531.80761719-.2578125,1.26855469-.2578125c.73046875,0,1.30273438.18261719,1.71679688.54785156s.62890625.86816406.64453125,1.50878906v2.91796875c0,.58203125.07421875,1.04492188.22265625,1.38867188v.09375h-1.13671875ZM616.3960271,61.94983997c.33984375,0,.66210938-.08789062.96679688-.26367188s.52539062-.40429688.66210938-.68554688v-1.30078125h-.84960938c-1.328125,0-1.9921875.38867188-1.9921875,1.16601562,0,.33984375.11328125.60546875.33984375.796875s.51757812.28710938.87304688.28710938Z"/>
  </g>
  <g>
    <path class="cls-4" d="M609.85965015,121.94398059c0,.8359375-.140625,1.56542969-.421875,2.18847656s-.6796875,1.09863281-1.1953125,1.42675781-1.1171875.4921875-1.8046875.4921875c-.671875,0-1.26757812-.16503906-1.78710938-.49511719s-.92285156-.80078125-1.20996094-1.41210938-.43457031-1.31933594-.44238281-2.12402344v-.61523438c0-.8203125.14257812-1.54492188.42773438-2.17382812s.68847656-1.11035156,1.20996094-1.44433594,1.11816406-.50097656,1.79003906-.50097656c.68359375,0,1.28613281.16503906,1.80761719.49511719s.92285156.80859375,1.20410156,1.43554688.421875,1.35644531.421875,2.18847656v.5390625ZM608.74050953,121.39319934c0-1.01171875-.203125-1.78808594-.609375-2.32910156s-.97460938-.81152344-1.70507812-.81152344c-.7109375,0-1.27050781.27050781-1.67871094.81152344s-.61816406,1.29199219-.62988281,2.25292969v.62695312c0,.98046875.20605469,1.75097656.61816406,2.31152344s.97949219.84082031,1.70214844.84082031c.7265625,0,1.2890625-.26464844,1.6875-.79394531s.60351562-1.28808594.61523438-2.27636719v-.6328125Z"/>
    <path class="cls-4" d="M615.06863453,124.25257434c0-.29296875-.11035156-.52050781-.33105469-.68261719s-.60546875-.30175781-1.15429688-.41894531-.984375-.2578125-1.30664062-.421875-.56054688-.359375-.71484375-.5859375-.23144531-.49609375-.23144531-.80859375c0-.51953125.21972656-.95898438.65917969-1.31835938s1.00097656-.5390625,1.68457031-.5390625c.71875,0,1.30175781.18554688,1.74902344.55664062s.67089844.84570312.67089844,1.42382812h-1.08984375c0-.296875-.12597656-.55273438-.37792969-.76757812s-.56933594-.32226562-.95214844-.32226562c-.39453125,0-.703125.0859375-.92578125.2578125s-.33398438.39648438-.33398438.67382812c0,.26171875.10351562.45898438.31054688.59179688s.58105469.25976562,1.12207031.38085938.97949219.265625,1.31542969.43359375.58496094.37011719.74707031.60644531.24316406.52441406.24316406.86425781c0,.56640625-.2265625,1.02050781-.6796875,1.36230469s-1.04101562.51269531-1.76367188.51269531c-.5078125,0-.95703125-.08984375-1.34765625-.26953125s-.69628906-.43066406-.91699219-.75292969-.33105469-.67089844-.33105469-1.04589844h1.08398438c.01953125.36328125.16503906.65136719.43652344.86425781s.62988281.31933594,1.07519531.31933594c.41015625,0,.73925781-.08300781.98730469-.24902344s.37207031-.38769531.37207031-.66503906Z"/>
    <path class="cls-4" d="M619.0354314,118.05921497v1.53515625h1.18359375v.83789062h-1.18359375v3.93652344c0,.25439453.05273438.44482422.15820312.57226562.10546875.12695312.28515625.19042969.5390625.19042969.125,0,.296875-.0234375.515625-.0703125v.87402344c-.28515625.07714844-.5625.11621094-.83203125.11621094-.484375,0-.84960938-.14648438-1.09570312-.43945312s-.36914062-.70898438-.36914062-1.24804688v-3.93164062h-1.15429688v-.83789062h1.15429688v-1.53515625h1.08398438Z"/>
    <path class="cls-4" d="M625.39871265,125.93421497c-.0625-.125-.11328125-.34765625-.15234375-.66796875-.50390625.5234375-1.10546875.78515625-1.8046875.78515625-.625,0-1.13769531-.17675781-1.53808594-.53027344s-.60058594-.80175781-.60058594-1.34472656c0-.66015625.25097656-1.17285156.75292969-1.53808594s1.20800781-.54785156,2.11816406-.54785156h1.0546875v-.49804688c0-.37890625-.11328125-.68066406-.33984375-.90527344s-.56054688-.33691406-1.00195312-.33691406c-.38671875,0-.7109375.09765625-.97265625.29296875s-.39257812.43164062-.39257812.70898438h-1.08984375c0-.31640625.11230469-.62207031.33691406-.91699219s.52929688-.52832031.9140625-.70019531.80761719-.2578125,1.26855469-.2578125c.73046875,0,1.30273438.18261719,1.71679688.54785156s.62890625.86816406.64453125,1.50878906v2.91796875c0,.58203125.07421875,1.04492188.22265625,1.38867188v.09375h-1.13671875ZM623.59988453,125.10804309c.33984375,0,.66210938-.08789062.96679688-.26367188s.52539062-.40429688.66210938-.68554688v-1.30078125h-.84960938c-1.328125,0-1.9921875.38867188-1.9921875,1.16601562,0,.33984375.11328125.60546875.33984375.796875s.51757812.28710938.87304688.28710938Z"/>
    <path class="cls-4" d="M629.48269703,118.05921497v1.53515625h1.18359375v.83789062h-1.18359375v3.93652344c0,.25439453.05273438.44482422.15820312.57226562.10546875.12695312.28515625.19042969.5390625.19042969.125,0,.296875-.0234375.515625-.0703125v.87402344c-.28515625.07714844-.5625.11621094-.83203125.11621094-.484375,0-.84960938-.14648438-1.09570312-.43945312s-.36914062-.70898438-.36914062-1.24804688v-3.93164062h-1.15429688v-.83789062h1.15429688v-1.53515625h1.08398438Z"/>
    <path class="cls-4" d="M632.9573064,119.59437122l.03515625.796875c.484375-.609375,1.1171875-.9140625,1.8984375-.9140625,1.33984375,0,2.015625.75585938,2.02734375,2.26757812v4.18945312h-1.08398438v-4.1953125c-.00390625-.45703125-.10839844-.79492188-.31347656-1.01367188s-.52441406-.328125-.95800781-.328125c-.3515625,0-.66015625.09375-.92578125.28125s-.47265625.43359375-.62109375.73828125v4.51757812h-1.08398438v-6.33984375h1.02539062Z"/>
    <path class="cls-4" d="M639.74246265,116.94007434h1.3125l-1.5703125,1.72265625-.87304688-.00292969,1.13085938-1.71972656ZM639.7307439,125.93421497h-1.08984375v-6.33984375h1.08984375v6.33984375Z"/>
  </g>
  <g>
    <path class="cls-4" d="M16.95486499,91.01429309h.95019531c.59716797-.00927734,1.06640625-.16650391,1.40820312-.47167969s.51269531-.71777344.51269531-1.23730469c0-1.16650391-.58105469-1.75-1.74316406-1.75-.546875,0-.98339844.15625-1.30908203.46826172s-.48876953.72558594-.48876953,1.24072266h-1.26464844c0-.78857422.28808594-1.44335938.86474609-1.96533203s1.30908203-.78271484,2.19775391-.78271484c.93896484,0,1.67480469.24853516,2.20800781.74511719s.79980469,1.18701172.79980469,2.07128906c0,.43310547-.14013672.85205078-.42041016,1.2578125s-.66210938.70849609-1.14501953.90917969c.546875.17333984.96972656.46044922,1.26806641.86132812s.44775391.89111328.44775391,1.46972656c0,.89306641-.29150391,1.60205078-.875,2.12597656s-1.34228516.78613281-2.27636719.78613281-1.69433594-.25292969-2.27978516-.75878906-.87841797-1.17333984-.87841797-2.00292969h1.27148438c0,.52392578.17089844.94335938.51269531,1.2578125s.79980469.47167969,1.37402344.47167969c.61083984,0,1.07763672-.15966797,1.40136719-.47851562s.48535156-.77685547.48535156-1.37402344c0-.57861328-.17773438-1.02294922-.53320312-1.33300781s-.86816406-.46923828-1.53808594-.47851562h-.95019531v-1.03222656Z"/>
    <path class="cls-4" d="M29.40310718,87.36390247l-4.12207031,9.2421875h-1.32617188l4.10839844-8.9140625h-5.38671875v-1.0390625h6.7265625v.7109375Z"/>
    <path class="cls-4" d="M34.19509937,88.56702747c0-.59716797.19042969-1.08935547.57080078-1.4765625s.86914062-.58105469,1.46630859-.58105469c.60595703,0,1.09716797.19482422,1.47314453.58447266s.56396484.89453125.56396484,1.51416016v.48535156c0,.6015625-.19042969,1.09277344-.57080078,1.47314453s-.86474609.57080078-1.45263672.57080078c-.59228516,0-1.08251953-.19042969-1.46972656-.57080078s-.58105469-.88769531-.58105469-1.52099609v-.47851562ZM35.13845874,89.09046497c0,.35644531.10009766.64990234.30078125.88037109.20068359.23095703.46923828.34619141.80664062.34619141.32373047,0,.58447266-.11181641.78271484-.3359375.19824219-.22363281.29736328-.52978516.29736328-.91796875v-.5c0-.35644531-.09814453-.65087891-.29394531-.88378906s-.46240234-.34960938-.79980469-.34960938-.60400391.11669922-.79980469.34960938-.29394531.53662109-.29394531.91113281v.5ZM36.53298999,95.85413684l-.71777344-.45117188,4.86035156-7.77929688.71777344.45117188-4.86035156,7.77929688ZM39.04177906,94.16566028c0-.59716797.19042969-1.08789062.57080078-1.47314453s.86914062-.57763672,1.46630859-.57763672,1.08691406.19140625,1.46972656.57421875.57421875.89111328.57421875,1.52441406v.48535156c0,.59716797-.19042969,1.08789062-.57080078,1.47314453s-.8671875.57763672-1.45947266.57763672-1.08251953-.19042969-1.46972656-.57080078-.58105469-.88769531-.58105469-1.52099609v-.4921875ZM39.98513843,94.69593372c0,.36083984.10009766.65673828.30078125.88720703.20068359.23095703.46923828.34619141.80664062.34619141.328125,0,.59033203-.11279297.78613281-.33935547.19580078-.22558594.29394531-.53320312.29394531-.92138672v-.50683594c0-.36083984-.09912109-.65576172-.29736328-.88378906-.19824219-.22851562-.46386719-.34277344-.79638672-.34277344-.32373047,0-.58691406.11328125-.78955078.33935547s-.30419922.53076172-.30419922.91455078v.50683594Z"/>
  </g>
  <g>
    <path class="cls-6" d="M264.49807788,96.60608997h-6.82226562v-1.35351562l3.21972656-3.43164062c.44189453-.48291016.76904297-.90478516.98095703-1.26464844s.31787109-.70166016.31787109-1.02539062c0-.44189453-.11181641-.78955078-.33496094-1.04248047s-.54248047-.37939453-.95703125-.37939453c-.44677734,0-.79882812.15380859-1.05615234.46142578s-.38623047.71191406-.38623047,1.21337891h-1.98242188c0-.60595703.14453125-1.15966797.43408203-1.66113281s.69824219-.89453125,1.22705078-1.17919922,1.12792969-.42724609,1.79785156-.42724609c1.02539062,0,1.82177734.24609375,2.38916016.73828125s.85107422,1.18701172.85107422,2.08496094c0,.4921875-.12744141.99365234-.3828125,1.50390625s-.69287109,1.10498047-1.3125,1.78417969l-2.26269531,2.38574219h4.27929688v1.59277344Z"/>
    <path class="cls-6" d="M272.47561695,87.75550403l-3.84863281,8.85058594h-2.08496094l3.85546875-8.36035156h-4.94921875v-1.59277344h7.02734375v1.10253906Z"/>
    <path class="cls-6" d="M277.19924976,88.56702747c0-.61083984.19824219-1.10644531.59472656-1.48681641s.91601562-.57080078,1.55859375-.57080078c.65185547,0,1.17578125.18798828,1.57226562.56396484s.59472656.88525391.59472656,1.52783203v.4921875c0,.61523438-.19824219,1.10986328-.59472656,1.48339844s-.91601562.56054688-1.55859375.56054688c-.64697266,0-1.16992188-.18798828-1.56884766-.56396484s-.59814453-.8828125-.59814453-1.52099609v-.48535156ZM278.51174976,89.09339465c0,.2734375.07861328.49316406.23583984.65966797s.36328125.24951172.61865234.24951172.45800781-.08447266.60839844-.25292969.22558594-.39404297.22558594-.67675781v-.50585938c0-.2734375-.07519531-.49462891-.22558594-.66308594s-.35791016-.25292969-.62207031-.25292969c-.25048828,0-.45361328.08300781-.60839844.24951172s-.23242188.39746094-.23242188.69384766v.49902344ZM279.75589038,95.86097278l-.96386719-.51953125,4.86035156-7.77929688.96386719.51953125-4.86035156,7.77929688ZM281.95706226,94.16566028c0-.61523438.20068359-1.11083984.6015625-1.48681641s.92041016-.56396484,1.55859375-.56396484c.64697266,0,1.16992188.18554688,1.56884766.55712891s.59814453.8828125.59814453,1.53466797v.4921875c0,.61083984-.19580078,1.10400391-.58789062,1.47998047s-.91357422.56396484-1.56542969.56396484c-.65625,0-1.18261719-.18896484-1.57910156-.56738281s-.59472656-.87939453-.59472656-1.50390625v-.50585938ZM283.26956226,94.6988634c0,.25048828.08203125.46484375.24609375.64257812s.36914062.26660156.61523438.26660156c.55615234,0,.83398438-.30761719.83398438-.92285156v-.51953125c0-.2734375-.07763672-.49316406-.23242188-.65966797s-.35986328-.24951172-.61523438-.24951172-.46044922.08300781-.61523438.24951172-.23242188.39306641-.23242188.68017578v.51269531Z"/>
    <path class="cls-6" d="M291.28128101,92.5660509c0-1.02978516.13769531-2.01904297.41357422-2.96679688s.68701172-1.80908203,1.23388672-2.58398438,1.11425781-1.32177734,1.70214844-1.640625l.25976562.83398438c-.66552734.51025391-1.2109375,1.28955078-1.63720703,2.33789062s-.65966797,2.22167969-.70068359,3.52050781l-.00683594.58105469c0,1.75927734.32128906,3.28564453.96386719,4.58007812.38720703.77490234.84765625,1.38085938,1.38085938,1.81835938l-.25976562.77246094c-.60595703-.33740234-1.18505859-.90234375-1.73632812-1.6953125-1.07568359-1.54931641-1.61328125-3.40185547-1.61328125-5.55761719Z"/>
    <path class="cls-6" d="M300.14065601,96.60608997h-1.27148438v-8.42871094l-2.54980469.93652344v-1.1484375l3.62304688-1.36035156h.19824219v10.00097656Z"/>
    <path class="cls-6" d="M308.80862476,86.64612903v1.07324219h-.23242188c-.984375.01806641-1.76806641.31005859-2.3515625.875s-.92041016,1.36035156-1.01171875,2.38574219c.52392578-.6015625,1.23974609-.90234375,2.14648438-.90234375.86572266,0,1.55761719.30517578,2.07470703.91601562s.77587891,1.39892578.77587891,2.36523438c0,1.02539062-.27929688,1.84570312-.83740234,2.4609375s-1.30664062.92285156-2.24560547.92285156c-.95263672,0-1.72509766-.36572266-2.31738281-1.09716797s-.88867188-1.67382812-.88867188-2.82666016v-.48535156c0-1.83203125.390625-3.23242188,1.17236328-4.20068359s1.94482422-1.46386719,3.48974609-1.48681641h.22558594ZM307.14749195,91.13050403c-.43310547,0-.83154297.12988281-1.19628906.38964844s-.61767578.58544922-.75878906.97753906v.46484375c0,.8203125.18457031,1.48095703.55371094,1.98242188s.82958984.75195312,1.38085938.75195312c.56982422,0,1.01757812-.20947266,1.34326172-.62890625s.48876953-.96826172.48876953-1.64746094c0-.68359375-.16503906-1.23632812-.49560547-1.65771484s-.76904297-.63232422-1.31591797-.63232422Z"/>
    <path class="cls-6" d="M322.1045232,87.72620715h-3.19921875v8.87988281h-1.30566406v-8.87988281h-3.19238281v-1.07324219h7.69726562v1.07324219Z"/>
    <path class="cls-6" d="M325.83010913,93.46839465l.19140625,1.3125.28027344-1.18261719,1.96875-6.9453125h1.10742188l1.92089844,6.9453125.2734375,1.203125.21191406-1.33984375,1.54492188-6.80859375h1.31933594l-2.41308594,9.953125h-1.19628906l-2.05078125-7.25292969-.15722656-.75878906-.15722656.75878906-2.12597656,7.25292969h-1.19628906l-2.40625-9.953125h1.3125l1.57226562,6.81542969Z"/>
    <path class="cls-6" d="M337.17092945,90.1051134c.56054688-.68798828,1.28955078-1.03222656,2.1875-1.03222656,1.56298828,0,2.3515625.88183594,2.36523438,2.64550781v4.88769531h-1.26464844v-4.89453125c-.00439453-.53320312-.12646484-.92724609-.36572266-1.18261719s-.61181641-.3828125-1.11767578-.3828125c-.41015625,0-.77001953.109375-1.08007812.328125s-.55126953.50585938-.72460938.86132812v5.27050781h-1.26464844v-10.5h1.26464844v3.99902344Z"/>
    <path class="cls-6" d="M346.53616382,92.63441028c0,1.01611328-.13330078,1.99023438-.39990234,2.92236328s-.67431641,1.79199219-1.22363281,2.58056641-1.12451172,1.34912109-1.72607422,1.68164062l-.26660156-.77246094c.70166016-.53759766,1.265625-1.37304688,1.69189453-2.50537109s.64355469-2.38916016.65283203-3.77001953v-.21875c0-.95703125-.10009766-1.84667969-.30078125-2.66943359s-.47949219-1.55957031-.83740234-2.21142578-.75976562-1.15966797-1.20654297-1.52441406l.26660156-.77246094c.6015625.33251953,1.17480469.88867188,1.71923828,1.66796875s.95263672,1.63818359,1.22363281,2.57714844.40673828,1.94384766.40673828,3.01464844Z"/>
  </g>
  <g>
    <path class="cls-4" d="M437.49710132,96.60608997h-6.52148438v-.90917969l3.4453125-3.828125c.51025391-.57861328.86230469-1.04931641,1.05615234-1.41162109s.29052734-.73730469.29052734-1.12451172c0-.51953125-.15722656-.94580078-.47167969-1.27832031s-.73388672-.49902344-1.2578125-.49902344c-.62890625,0-1.11767578.17871094-1.46630859.53662109s-.52294922.85546875-.52294922,1.49365234h-1.26464844c0-.91601562.29492188-1.65673828.88525391-2.22167969s1.37988281-.84765625,2.36865234-.84765625c.92529297,0,1.65673828.24267578,2.19433594.72802734s.80664062,1.13134766.80664062,1.93798828c0,.97998047-.62451172,2.14648438-1.87304688,3.5l-2.66601562,2.89160156h4.99707031v1.03222656Z"/>
    <path class="cls-4" d="M445.35842945,96.60608997h-6.52148438v-.90917969l3.4453125-3.828125c.51025391-.57861328.86230469-1.04931641,1.05615234-1.41162109s.29052734-.73730469.29052734-1.12451172c0-.51953125-.15722656-.94580078-.47167969-1.27832031s-.73388672-.49902344-1.2578125-.49902344c-.62890625,0-1.11767578.17871094-1.46630859.53662109s-.52294922.85546875-.52294922,1.49365234h-1.26464844c0-.91601562.29492188-1.65673828.88525391-2.22167969s1.37988281-.84765625,2.36865234-.84765625c.92529297,0,1.65673828.24267578,2.19433594.72802734s.80664062,1.13134766.80664062,1.93798828c0,.97998047-.62451172,2.14648438-1.87304688,3.5l-2.66601562,2.89160156h4.99707031v1.03222656Z"/>
    <path class="cls-4" d="M450.05471851,88.56702747c0-.59716797.19042969-1.08935547.57080078-1.4765625s.86914062-.58105469,1.46630859-.58105469c.60595703,0,1.09716797.19482422,1.47314453.58447266s.56396484.89453125.56396484,1.51416016v.48535156c0,.6015625-.19042969,1.09277344-.57080078,1.47314453s-.86474609.57080078-1.45263672.57080078c-.59228516,0-1.08251953-.19042969-1.46972656-.57080078s-.58105469-.88769531-.58105469-1.52099609v-.47851562ZM450.99807788,89.09046497c0,.35644531.10009766.64990234.30078125.88037109.20068359.23095703.46923828.34619141.80664062.34619141.32373047,0,.58447266-.11181641.78271484-.3359375.19824219-.22363281.29736328-.52978516.29736328-.91796875v-.5c0-.35644531-.09814453-.65087891-.29394531-.88378906s-.46240234-.34960938-.79980469-.34960938-.60400391.11669922-.79980469.34960938-.29394531.53662109-.29394531.91113281v.5ZM452.39260913,95.85413684l-.71777344-.45117188,4.86035156-7.77929688.71777344.45117188-4.86035156,7.77929688ZM454.9013982,94.16566028c0-.59716797.19042969-1.08789062.57080078-1.47314453s.86914062-.57763672,1.46630859-.57763672,1.08691406.19140625,1.46972656.57421875.57421875.89111328.57421875,1.52441406v.48535156c0,.59716797-.19042969,1.08789062-.57080078,1.47314453s-.8671875.57763672-1.45947266.57763672-1.08251953-.19042969-1.46972656-.57080078-.58105469-.88769531-.58105469-1.52099609v-.4921875ZM455.84475757,94.69593372c0,.36083984.10009766.65673828.30078125.88720703.20068359.23095703.46923828.34619141.80664062.34619141.328125,0,.59033203-.11279297.78613281-.33935547.19580078-.22558594.29394531-.53320312.29394531-.92138672v-.50683594c0-.36083984-.09912109-.65576172-.29736328-.88378906-.19824219-.22851562-.46386719-.34277344-.79638672-.34277344-.32373047,0-.58691406.11328125-.78955078.33935547s-.30419922.53076172-.30419922.91455078v.50683594Z"/>
  </g>
  <g>
    <path class="cls-4" d="M577.39651538,86.64612903v1.07324219h-.23242188c-.984375.01806641-1.76806641.31005859-2.3515625.875s-.92041016,1.36035156-1.01171875,2.38574219c.52392578-.6015625,1.23974609-.90234375,2.14648438-.90234375.86572266,0,1.55761719.30517578,2.07470703.91601562s.77587891,1.39892578.77587891,2.36523438c0,1.02539062-.27929688,1.84570312-.83740234,2.4609375s-1.30664062.92285156-2.24560547.92285156c-.95263672,0-1.72509766-.36572266-2.31738281-1.09716797s-.88867188-1.67382812-.88867188-2.82666016v-.48535156c0-1.83203125.390625-3.23242188,1.17236328-4.20068359s1.94482422-1.46386719,3.48974609-1.48681641h.22558594ZM575.73538257,91.13050403c-.43310547,0-.83154297.12988281-1.19628906.38964844s-.61767578.58544922-.75878906.97753906v.46484375c0,.8203125.18457031,1.48095703.55371094,1.98242188s.82958984.75195312,1.38085938.75195312c.56982422,0,1.01757812-.20947266,1.34326172-.62890625s.48876953-.96826172.48876953-1.64746094c0-.68359375-.16503906-1.23632812-.49560547-1.65771484s-.76904297-.63232422-1.31591797-.63232422Z"/>
    <path class="cls-4" d="M583.6513982,88.56702747c0-.59716797.19042969-1.08935547.57080078-1.4765625s.86914062-.58105469,1.46630859-.58105469c.60595703,0,1.09716797.19482422,1.47314453.58447266s.56396484.89453125.56396484,1.51416016v.48535156c0,.6015625-.19042969,1.09277344-.57080078,1.47314453s-.86474609.57080078-1.45263672.57080078c-.59228516,0-1.08251953-.19042969-1.46972656-.57080078s-.58105469-.88769531-.58105469-1.52099609v-.47851562ZM584.59475757,89.09046497c0,.35644531.10009766.64990234.30078125.88037109.20068359.23095703.46923828.34619141.80664062.34619141.32373047,0,.58447266-.11181641.78271484-.3359375.19824219-.22363281.29736328-.52978516.29736328-.91796875v-.5c0-.35644531-.09814453-.65087891-.29394531-.88378906s-.46240234-.34960938-.79980469-.34960938-.60400391.11669922-.79980469.34960938-.29394531.53662109-.29394531.91113281v.5ZM585.98928882,95.85413684l-.71777344-.45117188,4.86035156-7.77929688.71777344.45117188-4.86035156,7.77929688ZM588.49807788,94.16566028c0-.59716797.19042969-1.08789062.57080078-1.47314453s.86914062-.57763672,1.46630859-.57763672,1.08691406.19140625,1.46972656.57421875.57421875.89111328.57421875,1.52441406v.48535156c0,.59716797-.19042969,1.08789062-.57080078,1.47314453s-.8671875.57763672-1.45947266.57763672-1.08251953-.19042969-1.46972656-.57080078-.58105469-.88769531-.58105469-1.52099609v-.4921875ZM589.44143726,94.69593372c0,.36083984.10009766.65673828.30078125.88720703.20068359.23095703.46923828.34619141.80664062.34619141.328125,0,.59033203-.11279297.78613281-.33935547.19580078-.22558594.29394531-.53320312.29394531-.92138672v-.50683594c0-.36083984-.09912109-.65576172-.29736328-.88378906-.19824219-.22851562-.46386719-.34277344-.79638672-.34277344-.32373047,0-.58691406.11328125-.78955078.33935547s-.30419922.53076172-.30419922.91455078v.50683594Z"/>
  </g>
  <g>
    <path class="cls-4" d="M616.79837085,89.25062122c0,.49658203-.13085938.93896484-.39306641,1.32617188s-.61621094.69042969-1.06298828.90917969c.51953125.22314453.93066406.54931641,1.23388672.97753906s.45458984.91357422.45458984,1.45605469c0,.86132812-.29052734,1.54736328-.87158203,2.05761719s-1.34570312.765625-2.29345703.765625c-.95703125,0-1.72363281-.25634766-2.30029297-.76904297s-.86474609-1.19726562-.86474609-2.05419922c0-.53759766.14697266-1.02294922.44091797-1.45605469s.70068359-.76123047,1.22021484-.984375c-.44189453-.21875-.79052734-.52197266-1.04589844-.90917969s-.3828125-.82714844-.3828125-1.31933594c0-.83837891.26904297-1.50390625.80664062-1.99609375s1.24658203-.73828125,2.12597656-.73828125c.875,0,1.58251953.24609375,2.12255859.73828125s.81005859,1.15771484.81005859,1.99609375ZM615.76614429,93.89222278c0-.55615234-.17675781-1.00927734-.52978516-1.36035156s-.81445312-.52636719-1.38427734-.52636719-1.02636719.17333984-1.37060547.51953125-.51611328.80224609-.51611328,1.3671875.16748047,1.00927734.50244141,1.33300781.80078125.48535156,1.39794922.48535156c.59228516,0,1.05712891-.16308594,1.39453125-.48876953s.50585938-.76904297.50585938-1.32958984ZM613.86575367,87.55530872c-.49658203,0-.89892578.15380859-1.20654297.46142578s-.46142578.72558594-.46142578,1.25439453c0,.50585938.15136719.91503906.45458984,1.22705078s.70751953.46826172,1.21337891.46826172.91015625-.15625,1.21337891-.46826172.45458984-.72119141.45458984-1.22705078-.15722656-.91845703-.47167969-1.23730469-.71337891-.47851562-1.19628906-.47851562Z"/>
    <path class="cls-4" d="M621.98001148,88.56702747c0-.59716797.19042969-1.08935547.57080078-1.4765625s.86914062-.58105469,1.46630859-.58105469c.60595703,0,1.09716797.19482422,1.47314453.58447266s.56396484.89453125.56396484,1.51416016v.48535156c0,.6015625-.19042969,1.09277344-.57080078,1.47314453s-.86474609.57080078-1.45263672.57080078c-.59228516,0-1.08251953-.19042969-1.46972656-.57080078s-.58105469-.88769531-.58105469-1.52099609v-.47851562ZM622.92337085,89.09046497c0,.35644531.10009766.64990234.30078125.88037109.20068359.23095703.46923828.34619141.80664062.34619141.32373047,0,.58447266-.11181641.78271484-.3359375.19824219-.22363281.29736328-.52978516.29736328-.91796875v-.5c0-.35644531-.09814453-.65087891-.29394531-.88378906s-.46240234-.34960938-.79980469-.34960938-.60400391.11669922-.79980469.34960938-.29394531.53662109-.29394531.91113281v.5ZM624.3179021,95.85413684l-.71777344-.45117188,4.86035156-7.77929688.71777344.45117188-4.86035156,7.77929688ZM626.82669117,94.16566028c0-.59716797.19042969-1.08789062.57080078-1.47314453s.86914062-.57763672,1.46630859-.57763672,1.08691406.19140625,1.46972656.57421875.57421875.89111328.57421875,1.52441406v.48535156c0,.59716797-.19042969,1.08789062-.57080078,1.47314453s-.8671875.57763672-1.45947266.57763672-1.08251953-.19042969-1.46972656-.57080078-.58105469-.88769531-.58105469-1.52099609v-.4921875ZM627.77005054,94.69593372c0,.36083984.10009766.65673828.30078125.88720703.20068359.23095703.46923828.34619141.80664062.34619141.328125,0,.59033203-.11279297.78613281-.33935547.19580078-.22558594.29394531-.53320312.29394531-.92138672v-.50683594c0-.36083984-.09912109-.65576172-.29736328-.88378906-.19824219-.22851562-.46386719-.34277344-.79638672-.34277344-.32373047,0-.58691406.11328125-.78955078.33935547s-.30419922.53076172-.30419922.91455078v.50683594Z"/>
  </g>
</svg>