<svg id="Layer_1" data-name="Layer 1" xmlns="http://www.w3.org/2000/svg" viewBox="0 0 740 119.752"><defs><style>.cls-1{fill:#939598;}.cls-11,.cls-2,.cls-4,.cls-5,.cls-7,.cls-8{fill:none;}.cls-2,.cls-4,.cls-7,.cls-8{stroke:#000;}.cls-3{fill:#2e3192;}.cls-3,.cls-6,.cls-9{opacity:0.1;}.cls-4,.cls-7,.cls-8{stroke-linecap:round;}.cls-11,.cls-4,.cls-7,.cls-8{stroke-miterlimit:10;}.cls-4{stroke-width:0.68px;}.cls-6{fill:#f7941d;}.cls-7,.cls-8{stroke-width:0.638px;}.cls-8{fill-rule:evenodd;opacity:0.7;}.cls-9{fill:#00a79d;}.cls-10{fill:#6d6e71;}.cls-11{stroke:#e6e7e8;stroke-width:5px;}</style></defs><path d="M35.967,54.4l2.348-7.231H40.08l-3.326,9.243H35.2l-3.313-9.243h1.758Z"/><path d="M44.367,56.535a3.191,3.191,0,0,1-2.377-.923,3.352,3.352,0,0,1-.911-2.459v-.191a4.116,4.116,0,0,1,.4-1.838,2.994,2.994,0,0,1,1.113-1.259,2.942,2.942,0,0,1,1.6-.452,2.694,2.694,0,0,1,2.168.9,3.782,3.782,0,0,1,.765,2.532v.622H42.635a2.054,2.054,0,0,0,.568,1.346,1.7,1.7,0,0,0,1.253.5,2.09,2.09,0,0,0,1.727-.856l.832.793a2.778,2.778,0,0,1-1.1.955A3.455,3.455,0,0,1,44.367,56.535Zm-.3-8.9L45,46.653h1.32v.063l-1.771,1.771h-.952l-1.758-1.778v-.056h1.308Zm.115,3.016a1.3,1.3,0,0,0-1.026.444,2.3,2.3,0,0,0-.5,1.237H45.6v-.114a1.878,1.878,0,0,0-.412-1.171A1.294,1.294,0,0,0,44.184,50.652Z"/><path d="M48.68,52.924a4.09,4.09,0,0,1,.736-2.549,2.361,2.361,0,0,1,1.975-.962,2.242,2.242,0,0,1,1.764.762V46.659H54.7v9.75H53.3l-.076-.711a2.276,2.276,0,0,1-1.847.837,2.345,2.345,0,0,1-1.952-.97A4.238,4.238,0,0,1,48.68,52.924Zm1.543.133a2.852,2.852,0,0,0,.4,1.635,1.308,1.308,0,0,0,1.146.587,1.458,1.458,0,0,0,1.383-.844V51.5a1.435,1.435,0,0,0-1.371-.825,1.314,1.314,0,0,0-1.155.593A3.177,3.177,0,0,0,50.223,53.057Z"/><path d="M59.981,56.535a3.187,3.187,0,0,1-2.376-.923,3.349,3.349,0,0,1-.912-2.459v-.191a4.116,4.116,0,0,1,.4-1.838A3.008,3.008,0,0,1,58.2,49.865a2.945,2.945,0,0,1,1.6-.452,2.7,2.7,0,0,1,2.168.9,3.788,3.788,0,0,1,.764,2.532v.622H58.249a2.054,2.054,0,0,0,.568,1.346,1.7,1.7,0,0,0,1.253.5,2.088,2.088,0,0,0,1.727-.856l.832.793a2.772,2.772,0,0,1-1.1.955A3.452,3.452,0,0,1,59.981,56.535ZM59.8,50.652a1.3,1.3,0,0,0-1.026.444,2.313,2.313,0,0,0-.5,1.237h2.939v-.114a1.872,1.872,0,0,0-.412-1.171A1.291,1.291,0,0,0,59.8,50.652Z"/><path d="M67.4,55.3a1.4,1.4,0,0,0,.959-.336,1.156,1.156,0,0,0,.407-.832h1.453a2.268,2.268,0,0,1-.4,1.2,2.631,2.631,0,0,1-1.015.88,3.027,3.027,0,0,1-1.384.323,2.926,2.926,0,0,1-2.285-.932,3.7,3.7,0,0,1-.845-2.577v-.159a3.64,3.64,0,0,1,.838-2.511,2.9,2.9,0,0,1,2.285-.943,2.829,2.829,0,0,1,2,.714A2.563,2.563,0,0,1,70.223,52H68.77a1.414,1.414,0,0,0-.4-.97,1.3,1.3,0,0,0-.962-.381,1.358,1.358,0,0,0-1.155.542,2.774,2.774,0,0,0-.412,1.647v.248a2.814,2.814,0,0,0,.4,1.666A1.356,1.356,0,0,0,67.4,55.3Z"/><path d="M74.269,53.463l-.686.7v2.241H72.041v-9.75h1.542v5.624l.482-.6,1.9-2.14h1.853L75.266,52.4l2.824,4H76.307Z"/><path d="M81.876,54.2l1.4-4.66h1.644l-2.729,7.91a2.219,2.219,0,0,1-2.133,1.733,2.726,2.726,0,0,1-.742-.115v-1.2l.292.02a1.5,1.5,0,0,0,.878-.213,1.4,1.4,0,0,0,.467-.714l.222-.59L78.759,49.54h1.663Zm.521-7.541h1.757L82.4,48.582l-1.239,0Z"/><path d="M92.761,54.453l1.454-4.913h1.593l-2.38,6.869h-1.34l-2.4-6.869h1.6Z"/><path d="M99.822,54.2l1.4-4.66h1.643l-2.729,7.91A2.219,2.219,0,0,1,98,59.183a2.726,2.726,0,0,1-.742-.115v-1.2l.292.02a1.5,1.5,0,0,0,.879-.213,1.413,1.413,0,0,0,.467-.714l.221-.59L96.705,49.54h1.663Zm.521-7.541H102.1l-1.758,1.923-1.238,0Z"/><path d="M106.045,55.177H109.7v1.232h-5.573V55.4l3.485-4.615h-3.422V49.54h5.377v.978Z"/><path d="M113.817,53.463l-.685.7v2.241h-1.543v-9.75h1.543v5.624l.482-.6,1.9-2.14h1.853L114.813,52.4l2.826,4h-1.784Z"/><path d="M123.183,55.736a2.394,2.394,0,0,1-1.93.8,2.128,2.128,0,0,1-1.691-.653,2.775,2.775,0,0,1-.576-1.891V49.54h1.543v4.431q0,1.308,1.085,1.308a1.527,1.527,0,0,0,1.518-.806V49.54h1.542v6.869h-1.453Z"/><path d="M128.346,49.54l.045.718a2.47,2.47,0,0,1,1.98-.845,1.9,1.9,0,0,1,1.885,1.054,2.438,2.438,0,0,1,2.107-1.054,2.145,2.145,0,0,1,1.693.629,2.765,2.765,0,0,1,.567,1.854v4.513h-1.542V51.94a1.366,1.366,0,0,0-.286-.958,1.25,1.25,0,0,0-.945-.3,1.288,1.288,0,0,0-.861.282,1.5,1.5,0,0,0-.467.74l.007,4.71h-1.543v-4.52a1.1,1.1,0,0,0-1.237-1.212,1.358,1.358,0,0,0-1.314.755v4.977h-1.542V49.54Z"/><path class="cls-1" d="M34.253,61.763v1.663h1.282v.908H34.253V68.6a.954.954,0,0,0,.171.619.72.72,0,0,0,.584.207,2.8,2.8,0,0,0,.558-.076V70.3a3.421,3.421,0,0,1-.9.126,1.461,1.461,0,0,1-1.186-.475,2.047,2.047,0,0,1-.4-1.353V64.334h-1.25v-.908h1.25V61.763Z"/><path class="cls-1" d="M40.876,64.48a3.592,3.592,0,0,0-.578-.044,1.548,1.548,0,0,0-1.568.983v4.875H37.556V63.426H38.7l.02.794a1.827,1.827,0,0,1,1.637-.921,1.206,1.206,0,0,1,.521.089Z"/><path class="cls-1" d="M44.985,68.7l1.7-5.276h1.2l-2.463,6.868h-.9L42.04,63.426h1.2Z"/><path class="cls-1" d="M53.812,70.294a2.368,2.368,0,0,1-.165-.723,2.623,2.623,0,0,1-1.956.85,2.424,2.424,0,0,1-1.666-.574,1.857,1.857,0,0,1-.651-1.457,1.943,1.943,0,0,1,.816-1.666,3.841,3.841,0,0,1,2.294-.594h1.143v-.539a1.318,1.318,0,0,0-.368-.981,1.481,1.481,0,0,0-1.085-.365,1.71,1.71,0,0,0-1.054.318.934.934,0,0,0-.426.767h-1.18a1.624,1.624,0,0,1,.365-.993,2.5,2.5,0,0,1,.99-.759,3.351,3.351,0,0,1,1.374-.279,2.718,2.718,0,0,1,1.861.594,2.145,2.145,0,0,1,.7,1.635v3.161a3.86,3.86,0,0,0,.241,1.5v.1Zm-1.95-.894a2.071,2.071,0,0,0,1.048-.286,1.723,1.723,0,0,0,.717-.743V66.962h-.92q-2.158,0-2.158,1.263a1.066,1.066,0,0,0,.368.863A1.411,1.411,0,0,0,51.862,69.4Zm1.086-8.856H54.37l-1.7,1.866-.946,0Z"/><path class="cls-1" d="M66,67.191h1.282v.958H66v2.145H64.816V68.149H60.608v-.692l4.139-6.4H66Zm-4.056,0h2.875V62.659l-.139.253Z"/><path class="cls-1" d="M76.3,64.48a3.588,3.588,0,0,0-.577-.044,1.55,1.55,0,0,0-1.569.983v4.875H72.979V63.426h1.142l.019.794a1.828,1.828,0,0,1,1.637-.921,1.2,1.2,0,0,1,.521.089Z"/><path class="cls-1" d="M77.59,66.8a4.059,4.059,0,0,1,.4-1.815,2.959,2.959,0,0,1,1.1-1.244,3.009,3.009,0,0,1,1.615-.439,2.9,2.9,0,0,1,2.27.972,3.739,3.739,0,0,1,.866,2.583v.083a4.091,4.091,0,0,1-.384,1.8,2.911,2.911,0,0,1-1.1,1.241,3.028,3.028,0,0,1-1.64.444,2.889,2.889,0,0,1-2.263-.97,3.719,3.719,0,0,1-.866-2.572Zm1.181.14a2.938,2.938,0,0,0,.529,1.834,1.8,1.8,0,0,0,2.841-.01,3.212,3.212,0,0,0,.527-1.964,2.932,2.932,0,0,0-.537-1.832,1.706,1.706,0,0,0-1.425-.7,1.683,1.683,0,0,0-1.4.692A3.185,3.185,0,0,0,78.771,66.937Z"/><path class="cls-1" d="M87.882,67.115l-.736.767v2.412H85.971v-9.75h1.175v5.9l.627-.756,2.14-2.26h1.428L88.669,66.3l2.983,4H90.274Z"/><path class="cls-1" d="M95.45,68.575l1.6-5.149h1.257l-2.761,7.929q-.642,1.713-2.038,1.714l-.222-.02-.438-.082v-.952l.317.025a1.568,1.568,0,0,0,.93-.241,1.755,1.755,0,0,0,.55-.883l.259-.7-2.45-6.792h1.282Z"/><path class="cls-2" d="M20.554,62.035q0,4.8-1.987,7.34a6.932,6.932,0,0,1-5.816,2.542,6.98,6.98,0,0,1-5.783-2.494q-2-2.494-2.05-7.15V58.014q0-4.845,2.01-7.357a6.986,6.986,0,0,1,5.792-2.51A6.993,6.993,0,0,1,18.5,50.633q2,2.487,2.05,7.143Zm-4.593-4.683a8.482,8.482,0,0,0-.786-4.192,2.66,2.66,0,0,0-2.455-1.311A2.612,2.612,0,0,0,10.328,53.1,7.931,7.931,0,0,0,9.51,57v5.63a8.9,8.9,0,0,0,.77,4.207,2.624,2.624,0,0,0,2.471,1.376,2.58,2.58,0,0,0,2.432-1.32,8.691,8.691,0,0,0,.778-4.04Z"/><path d="M370.3,55.594l2.348-7.23h1.765l-3.326,9.242h-1.556l-3.313-9.242h1.758Z"/><path d="M378.054,57.733a3.189,3.189,0,0,1-2.377-.924,3.346,3.346,0,0,1-.911-2.459v-.19a4.113,4.113,0,0,1,.4-1.838,3.017,3.017,0,0,1,1.113-1.26,2.945,2.945,0,0,1,1.6-.451,2.7,2.7,0,0,1,2.168.9,3.784,3.784,0,0,1,.765,2.532v.622h-4.488a2.055,2.055,0,0,0,.569,1.346,1.7,1.7,0,0,0,1.253.495,2.087,2.087,0,0,0,1.726-.856l.832.793a2.769,2.769,0,0,1-1.1.955A3.455,3.455,0,0,1,378.054,57.733Zm-.3-8.9.927-.983H380v.063l-1.772,1.771h-.952l-1.757-1.777V47.85h1.307Zm.114,3.016a1.294,1.294,0,0,0-1.025.444,2.3,2.3,0,0,0-.5,1.238h2.938v-.115a1.875,1.875,0,0,0-.412-1.171A1.291,1.291,0,0,0,377.87,51.849Z"/><path d="M381.717,54.121a4.078,4.078,0,0,1,.736-2.548,2.356,2.356,0,0,1,1.974-.962,2.241,2.241,0,0,1,1.764.761V47.856h1.543v9.75h-1.4l-.076-.711a2.277,2.277,0,0,1-1.848.838,2.346,2.346,0,0,1-1.952-.971A4.234,4.234,0,0,1,381.717,54.121Zm1.542.133a2.868,2.868,0,0,0,.4,1.635,1.307,1.307,0,0,0,1.146.587,1.456,1.456,0,0,0,1.383-.844V52.7a1.433,1.433,0,0,0-1.371-.826,1.32,1.32,0,0,0-1.155.593A3.2,3.2,0,0,0,383.259,54.254Z"/><path d="M392.165,56.5a1.4,1.4,0,0,0,.958-.336,1.146,1.146,0,0,0,.406-.832h1.454a2.263,2.263,0,0,1-.4,1.2,2.613,2.613,0,0,1-1.016.88,3.029,3.029,0,0,1-1.383.323A2.933,2.933,0,0,1,389.9,56.8a3.7,3.7,0,0,1-.843-2.577v-.159a3.64,3.64,0,0,1,.838-2.511,2.9,2.9,0,0,1,2.285-.942,2.824,2.824,0,0,1,2,.714,2.556,2.556,0,0,1,.809,1.876h-1.454a1.406,1.406,0,0,0-.4-.971,1.294,1.294,0,0,0-.961-.381,1.357,1.357,0,0,0-1.155.542,2.767,2.767,0,0,0-.413,1.647v.248a2.812,2.812,0,0,0,.4,1.666A1.354,1.354,0,0,0,392.165,56.5Z"/><path d="M396.151,48.954a.823.823,0,0,1,.225-.59.85.85,0,0,1,.645-.235.859.859,0,0,1,.647.235.814.814,0,0,1,.229.59.8.8,0,0,1-.229.581.866.866,0,0,1-.647.232.856.856,0,0,1-.645-.232A.805.805,0,0,1,396.151,48.954Zm1.638,8.652h-1.543V50.738h1.543Z"/><path d="M372.62,68.242a4.128,4.128,0,0,1-.711,2.548,2.263,2.263,0,0,1-1.9.943,2.542,2.542,0,0,1-2.158-.99v3.5h-.755V64.738h.7l.038.971a2.438,2.438,0,0,1,2.152-1.1,2.285,2.285,0,0,1,1.933.933,4.226,4.226,0,0,1,.7,2.59Zm-.762-.133a3.53,3.53,0,0,0-.539-2.076,1.74,1.74,0,0,0-1.5-.762,2.006,2.006,0,0,0-1.967,1.314v3.294a2.012,2.012,0,0,0,.781.9,2.242,2.242,0,0,0,1.2.311,1.722,1.722,0,0,0,1.5-.765A3.844,3.844,0,0,0,371.858,68.109Z"/><path d="M375.534,61.932h.92l-1.466,1.777-.667,0Zm-.393,9.674h-.762V64.738h.762Z"/><path d="M381.311,69.861a1.085,1.085,0,0,0-.455-.909,3.5,3.5,0,0,0-1.368-.536,6.169,6.169,0,0,1-1.418-.444,1.879,1.879,0,0,1-.749-.612,1.529,1.529,0,0,1-.245-.876,1.634,1.634,0,0,1,.68-1.343,2.737,2.737,0,0,1,1.739-.53,2.821,2.821,0,0,1,1.844.568,1.822,1.822,0,0,1,.695,1.482h-.762a1.225,1.225,0,0,0-.5-1,2.277,2.277,0,0,0-2.476-.068,1.03,1.03,0,0,0-.454.867.933.933,0,0,0,.378.8,3.969,3.969,0,0,0,1.378.518,6.5,6.5,0,0,1,1.5.5,1.947,1.947,0,0,1,.739.64,1.764,1.764,0,0,1-.46,2.3,2.992,2.992,0,0,1-1.832.521,3.075,3.075,0,0,1-1.945-.581,1.788,1.788,0,0,1-.746-1.469h.761a1.321,1.321,0,0,0,.563,1.037,2.293,2.293,0,0,0,1.367.372,2.154,2.154,0,0,0,1.282-.349A1.049,1.049,0,0,0,381.311,69.861Zm-1.7-6.685,1.092-1.231h.679v.076l-1.5,1.657h-.546l-1.5-1.663v-.07h.68Z"/><path d="M385.011,61.932h.921l-1.467,1.777-.666,0Zm-.394,9.674h-.762V64.738h.762Z"/><path d="M391.975,70.559l2.088-5.821h.781l-2.565,6.868h-.616l-2.577-6.868h.781Z"/><path d="M398.665,71.733a2.981,2.981,0,0,1-1.584-.432,2.928,2.928,0,0,1-1.1-1.2,3.753,3.753,0,0,1-.394-1.73V68.1a4.044,4.044,0,0,1,.384-1.784,3.072,3.072,0,0,1,1.07-1.247,2.635,2.635,0,0,1,1.485-.454,2.485,2.485,0,0,1,1.984.853,3.471,3.471,0,0,1,.733,2.333v.426h-4.9v.145a2.871,2.871,0,0,0,.669,1.946,2.134,2.134,0,0,0,1.685.778,2.46,2.46,0,0,0,1.076-.223,2.373,2.373,0,0,0,.848-.71l.476.362A2.774,2.774,0,0,1,398.665,71.733Zm-.14-6.475a1.9,1.9,0,0,0-1.444.629,2.894,2.894,0,0,0-.714,1.689h4.119v-.083a2.517,2.517,0,0,0-.564-1.613A1.754,1.754,0,0,0,398.525,65.258Zm.077-2.082,1.091-1.231h.679v.076l-1.5,1.657h-.546l-1.5-1.663v-.07h.68Z"/><path d="M402.416,68.109a4.141,4.141,0,0,1,.714-2.549,2.3,2.3,0,0,1,1.939-.949,2.387,2.387,0,0,1,2.12,1.1V61.856h.756v9.75h-.711l-.032-.914a2.451,2.451,0,0,1-2.145,1.041,2.293,2.293,0,0,1-1.914-.955,4.158,4.158,0,0,1-.727-2.58Zm.769.133a3.58,3.58,0,0,0,.526,2.072,1.705,1.705,0,0,0,1.485.759,2.043,2.043,0,0,0,1.993-1.238V66.611a2.027,2.027,0,0,0-1.98-1.34,1.724,1.724,0,0,0-1.491.752A3.825,3.825,0,0,0,403.185,68.242Z"/><path d="M412.605,71.733a2.978,2.978,0,0,1-1.584-.432,2.937,2.937,0,0,1-1.1-1.2,3.753,3.753,0,0,1-.394-1.73V68.1a4.044,4.044,0,0,1,.384-1.784,3.067,3.067,0,0,1,1.071-1.247,2.635,2.635,0,0,1,1.485-.454,2.483,2.483,0,0,1,1.983.853,3.466,3.466,0,0,1,.734,2.333v.426h-4.9v.145a2.876,2.876,0,0,0,.669,1.946,2.134,2.134,0,0,0,1.686.778,2.466,2.466,0,0,0,1.076-.223,2.381,2.381,0,0,0,.848-.71l.475.362A2.773,2.773,0,0,1,412.605,71.733Zm-.14-6.475a1.9,1.9,0,0,0-1.444.629,2.894,2.894,0,0,0-.714,1.689h4.119v-.083a2.518,2.518,0,0,0-.565-1.613A1.752,1.752,0,0,0,412.465,65.258Z"/><path d="M419.2,71.092a2,2,0,0,0,1.33-.448,1.573,1.573,0,0,0,.581-1.158h.73a2.141,2.141,0,0,1-.394,1.145,2.453,2.453,0,0,1-.962.81,2.889,2.889,0,0,1-1.285.292,2.652,2.652,0,0,1-2.142-.94,3.794,3.794,0,0,1-.79-2.526v-.229a4.3,4.3,0,0,1,.355-1.8,2.744,2.744,0,0,1,1.019-1.207,2.809,2.809,0,0,1,1.552-.425,2.647,2.647,0,0,1,1.863.673,2.45,2.45,0,0,1,.784,1.771h-.73a1.838,1.838,0,0,0-1.917-1.8,1.9,1.9,0,0,0-1.6.743,3.358,3.358,0,0,0-.569,2.082v.222a3.286,3.286,0,0,0,.569,2.051A1.909,1.909,0,0,0,419.2,71.092Z"/><path d="M424.988,68.147l-.869.838v2.621h-.762v-9.75h.762V68.1l.717-.774,2.628-2.584h.959l-2.914,2.894,3.168,3.974h-.908Z"/><path d="M432.257,71.733a2.981,2.981,0,0,1-1.584-.432,2.937,2.937,0,0,1-1.1-1.2,3.765,3.765,0,0,1-.393-1.73V68.1a4.044,4.044,0,0,1,.384-1.784,3.064,3.064,0,0,1,1.07-1.247,2.635,2.635,0,0,1,1.485-.454,2.486,2.486,0,0,1,1.984.853,3.471,3.471,0,0,1,.733,2.333v.426h-4.9v.145a2.871,2.871,0,0,0,.669,1.946,2.132,2.132,0,0,0,1.685.778,2.463,2.463,0,0,0,1.076-.223,2.373,2.373,0,0,0,.848-.71l.476.362A2.775,2.775,0,0,1,432.257,71.733Zm-.14-6.475a1.9,1.9,0,0,0-1.444.629,2.894,2.894,0,0,0-.714,1.689h4.119v-.083a2.517,2.517,0,0,0-.564-1.613A1.755,1.755,0,0,0,432.117,65.258Zm.844-3.4h.921l-1.467,1.777-.666,0Z"/><path d="M369.637,85.092a2,2,0,0,0,1.33-.448,1.577,1.577,0,0,0,.581-1.158h.729a2.14,2.14,0,0,1-.393,1.145,2.46,2.46,0,0,1-.962.81,2.892,2.892,0,0,1-1.285.292,2.654,2.654,0,0,1-2.143-.94,3.8,3.8,0,0,1-.79-2.526v-.229a4.289,4.289,0,0,1,.356-1.8,2.748,2.748,0,0,1,1.018-1.207,2.812,2.812,0,0,1,1.553-.425,2.643,2.643,0,0,1,1.862.673,2.45,2.45,0,0,1,.784,1.771h-.729a1.838,1.838,0,0,0-1.917-1.8,1.9,1.9,0,0,0-1.6.743,3.358,3.358,0,0,0-.568,2.082v.222a3.286,3.286,0,0,0,.568,2.051A1.909,1.909,0,0,0,369.637,85.092Zm-.115-7.916,1.092-1.231h.68v.076l-1.5,1.657h-.546l-1.5-1.663v-.07h.679Z"/><path d="M374.646,85.606h-.762v-9.75h.762Z"/><path d="M381.044,85.606a3.625,3.625,0,0,1-.147-.958,2.662,2.662,0,0,1-1.018.8,3.128,3.128,0,0,1-1.311.282,2.3,2.3,0,0,1-1.6-.552,1.8,1.8,0,0,1-.612-1.4,1.835,1.835,0,0,1,.835-1.587,4,4,0,0,1,2.326-.584h1.378v-.782a1.506,1.506,0,0,0-.454-1.158,1.881,1.881,0,0,0-1.324-.422,2.065,2.065,0,0,0-1.314.407,1.205,1.205,0,0,0-.521.977l-.761-.007a1.77,1.77,0,0,1,.761-1.419,2.939,2.939,0,0,1,1.873-.6,2.674,2.674,0,0,1,1.812.574,2.066,2.066,0,0,1,.683,1.6v3.25a4.049,4.049,0,0,0,.209,1.492v.076Zm-2.387-.546a2.549,2.549,0,0,0,1.362-.368,2.178,2.178,0,0,0,.873-.984V82.2h-1.359a3.384,3.384,0,0,0-1.777.415,1.248,1.248,0,0,0-.642,1.108,1.227,1.227,0,0,0,.429.958A1.613,1.613,0,0,0,378.657,85.06Zm1.5-9.2h.92l-1.466,1.777-.667,0Z"/><path d="M384.4,78.738l.025,1.174a2.719,2.719,0,0,1,.965-.968,2.507,2.507,0,0,1,1.275-.333,2.067,2.067,0,0,1,1.645.622,2.814,2.814,0,0,1,.546,1.866v4.507H388.1V81.093a2.1,2.1,0,0,0-.39-1.371,1.53,1.53,0,0,0-1.228-.451,1.923,1.923,0,0,0-1.248.441,2.585,2.585,0,0,0-.8,1.191v4.7h-.755V78.738Z"/><path d="M392.444,82.147l-.87.838v2.621h-.761v-9.75h.761V82.1l.718-.774,2.628-2.584h.958l-2.913,2.894,3.167,3.974h-.907Z"/><path d="M399.356,84.514l2.006-5.776h.82l-2.933,8.036-.152.355a1.846,1.846,0,0,1-1.746,1.251,2.144,2.144,0,0,1-.584-.089l-.006-.629.393.039a1.4,1.4,0,0,0,.905-.277,2.1,2.1,0,0,0,.587-.948l.336-.927-2.589-6.811h.831Z"/><path d="M344.949,51.16a2.2,2.2,0,0,0-.652-1.569,2.27,2.27,0,0,0-3.137,0l-1.278,1.278h0l-14.021,14.02h0l0,.006V64.9a.3.3,0,0,0-.064.085l-2.107,4.832a.3.3,0,0,0,.389.388L328.9,68.1l.091-.062L341.1,55.929h0l1.917-1.917h0l1.277-1.278A2.2,2.2,0,0,0,344.949,51.16Zm-4.057,4.14-2.3-2.3,1.5-1.5,2.3,2.3ZM326.884,68.333l-1.328-1.328.6-1.386,2.108,2.109Zm1.9-.925-.943-.943,11.69-11.69.943.942Zm9.387-13.994.943.943L327.424,66.046l-.942-.943ZM325.3,67.585l1,1-1.777.776Zm17.507-14.2-2.3-2.3,1.07-1.07a1.667,1.667,0,0,1,2.3,0,1.627,1.627,0,0,1,0,2.3l0,0Z"/><path d="M341.481,65.606a22.11,22.11,0,0,0-6.79.571c-.631.151-.986.4-1.087.767-.174.632.5,1.292,1.213,1.99.44.432,1.106,1.084,1.006,1.326-.028.068-.272.409-2.346.409h-9.546a.3.3,0,1,0-.025.59.1.1,0,0,0,.025,0h9.547c1.805,0,2.67-.231,2.891-.776.249-.609-.425-1.271-1.14-1.97-.48-.471-1.138-1.115-1.056-1.412.018-.062.116-.22.656-.352a21.987,21.987,0,0,1,6.589-.558.287.287,0,0,0,.323-.248l0-.015A.3.3,0,0,0,341.481,65.606Z"/><circle class="cls-3" cx="338.467" cy="60.111" r="15.942"/><path d="M213.9,59.7l2.349-7.23h1.765l-3.327,9.242h-1.555l-3.314-9.242h1.759Z"/><path d="M221.652,61.841a3.188,3.188,0,0,1-2.377-.924,3.349,3.349,0,0,1-.911-2.459v-.19a4.113,4.113,0,0,1,.4-1.838,3,3,0,0,1,1.113-1.26,2.945,2.945,0,0,1,1.6-.451,2.7,2.7,0,0,1,2.168.9,3.786,3.786,0,0,1,.764,2.532v.622H219.92a2.057,2.057,0,0,0,.568,1.346,1.7,1.7,0,0,0,1.253.495,2.088,2.088,0,0,0,1.727-.857l.832.793a2.771,2.771,0,0,1-1.1.955A3.439,3.439,0,0,1,221.652,61.841Zm-.3-8.9.926-.984H223.6v.064l-1.772,1.77h-.952l-1.758-1.777v-.057h1.308Zm.114,3.015a1.3,1.3,0,0,0-1.026.445,2.313,2.313,0,0,0-.5,1.237h2.939v-.114a1.87,1.87,0,0,0-.412-1.171A1.289,1.289,0,0,0,221.469,55.957Z"/><path d="M225.315,58.23a4.082,4.082,0,0,1,.737-2.549,2.354,2.354,0,0,1,1.973-.962,2.24,2.24,0,0,1,1.765.762V51.964h1.543v9.75h-1.4L229.86,61a2.274,2.274,0,0,1-1.847.838,2.346,2.346,0,0,1-1.952-.971A4.227,4.227,0,0,1,225.315,58.23Zm1.542.133a2.854,2.854,0,0,0,.4,1.634,1.3,1.3,0,0,0,1.145.587,1.457,1.457,0,0,0,1.384-.843V56.808a1.432,1.432,0,0,0-1.371-.825,1.316,1.316,0,0,0-1.155.593A3.184,3.184,0,0,0,226.857,58.363Z"/><path d="M235.764,60.61a1.4,1.4,0,0,0,.958-.336,1.151,1.151,0,0,0,.406-.832h1.454a2.271,2.271,0,0,1-.4,1.2,2.613,2.613,0,0,1-1.016.88,3.024,3.024,0,0,1-1.384.323,2.93,2.93,0,0,1-2.285-.932,3.709,3.709,0,0,1-.844-2.578v-.159a3.645,3.645,0,0,1,.838-2.511,2.907,2.907,0,0,1,2.285-.942,2.821,2.821,0,0,1,2,.714,2.561,2.561,0,0,1,.81,1.876h-1.454a1.411,1.411,0,0,0-.4-.971,1.3,1.3,0,0,0-.961-.381,1.36,1.36,0,0,0-1.156.542,2.777,2.777,0,0,0-.413,1.648V58.4a2.813,2.813,0,0,0,.4,1.666A1.356,1.356,0,0,0,235.764,60.61Z"/><path d="M239.75,53.063a.822.822,0,0,1,.225-.591.852.852,0,0,1,.644-.234.866.866,0,0,1,.648.234.816.816,0,0,1,.228.591.793.793,0,0,1-.228.58.869.869,0,0,1-.648.232.855.855,0,0,1-.644-.232A.8.8,0,0,1,239.75,53.063Zm1.638,8.651h-1.543V54.846h1.543Z"/><path d="M211.877,67.088v1.758H213.3v.622h-1.422V74.05a1.442,1.442,0,0,0,.206.852.8.8,0,0,0,.689.279,4.754,4.754,0,0,0,.616-.063l.032.617a2.5,2.5,0,0,1-.813.106,1.354,1.354,0,0,1-1.136-.454,2.133,2.133,0,0,1-.356-1.336V69.468h-1.262v-.622h1.262V67.088Z"/><path d="M217.533,75.841a2.98,2.98,0,0,1-1.584-.431,2.943,2.943,0,0,1-1.1-1.2,3.746,3.746,0,0,1-.394-1.729V72.2a4.047,4.047,0,0,1,.384-1.784,3.072,3.072,0,0,1,1.07-1.247,2.636,2.636,0,0,1,1.486-.454,2.481,2.481,0,0,1,1.983.854,3.467,3.467,0,0,1,.733,2.333v.425h-4.9v.146a2.873,2.873,0,0,0,.669,1.945,2.132,2.132,0,0,0,1.685.779,2.482,2.482,0,0,0,1.077-.223,2.392,2.392,0,0,0,.847-.711l.476.362A2.772,2.772,0,0,1,217.533,75.841Zm-.139-6.474a1.9,1.9,0,0,0-1.445.628,2.9,2.9,0,0,0-.714,1.689h4.12V71.6a2.517,2.517,0,0,0-.565-1.612A1.752,1.752,0,0,0,217.394,69.367Z"/><path d="M225.7,73.969a1.081,1.081,0,0,0-.454-.908,3.486,3.486,0,0,0-1.367-.536,6.174,6.174,0,0,1-1.419-.445,1.886,1.886,0,0,1-.749-.612,1.527,1.527,0,0,1-.244-.876,1.636,1.636,0,0,1,.678-1.343,2.751,2.751,0,0,1,1.74-.53,2.822,2.822,0,0,1,1.843.568,1.823,1.823,0,0,1,.7,1.483h-.762a1.229,1.229,0,0,0-.5-1,2.277,2.277,0,0,0-2.475-.067,1.03,1.03,0,0,0-.454.867.936.936,0,0,0,.377.8,3.992,3.992,0,0,0,1.378.517,6.483,6.483,0,0,1,1.5.5,1.945,1.945,0,0,1,.74.641,1.764,1.764,0,0,1-.46,2.3,3,3,0,0,1-1.831.52,3.077,3.077,0,0,1-1.947-.581,1.787,1.787,0,0,1-.745-1.469H222a1.317,1.317,0,0,0,.561,1.037,2.288,2.288,0,0,0,1.369.373,2.158,2.158,0,0,0,1.282-.35A1.048,1.048,0,0,0,225.7,73.969Z"/><path d="M229.353,67.088v1.758h1.421v.622h-1.421V74.05a1.434,1.434,0,0,0,.206.852.8.8,0,0,0,.688.279,4.77,4.77,0,0,0,.616-.063l.032.617a2.5,2.5,0,0,1-.813.106,1.354,1.354,0,0,1-1.136-.454,2.133,2.133,0,0,1-.355-1.336V69.468h-1.264v-.622h1.264V67.088Z"/><path d="M236.767,74.845a2.471,2.471,0,0,1-2.191,1,2.127,2.127,0,0,1-1.669-.638,2.789,2.789,0,0,1-.584-1.888V68.846h.755V73.22q0,1.962,1.587,1.961a1.946,1.946,0,0,0,2.089-1.364V68.846h.762v6.868h-.737Z"/><path d="M240.309,68.846v7.688a2.089,2.089,0,0,1-.457,1.453,1.729,1.729,0,0,1-1.346.5,1.883,1.883,0,0,1-.667-.121l.013-.623a1.972,1.972,0,0,0,.571.083q1.131,0,1.13-1.3v-7.68Zm-.375-2.494a.5.5,0,0,1,.387.148.511.511,0,0,1,.14.363.5.5,0,0,1-.14.359.511.511,0,0,1-.387.146.493.493,0,0,1-.378-.146.5.5,0,0,1-.136-.359.516.516,0,0,1,.136-.363A.488.488,0,0,1,239.934,66.352Z"/><path d="M243.686,66.04h.919l-1.465,1.778-.667,0Zm-.394,9.674h-.762V68.846h.762Z"/><path d="M249.233,68.846l.026,1.175a2.722,2.722,0,0,1,.965-.969,2.5,2.5,0,0,1,1.275-.333,2.067,2.067,0,0,1,1.645.622,2.809,2.809,0,0,1,.545,1.866v4.507h-.755V71.2a2.1,2.1,0,0,0-.39-1.372,1.534,1.534,0,0,0-1.229-.451,1.924,1.924,0,0,0-1.247.442,2.575,2.575,0,0,0-.8,1.19v4.7h-.755V68.846Z"/><path d="M255.231,72.179a4.044,4.044,0,0,1,.384-1.784,2.885,2.885,0,0,1,2.676-1.676,2.823,2.823,0,0,1,2.222.962,3.7,3.7,0,0,1,.85,2.549v.158a4.085,4.085,0,0,1-.383,1.793A2.876,2.876,0,0,1,259.9,75.41a2.965,2.965,0,0,1-1.593.431,2.827,2.827,0,0,1-2.219-.962,3.7,3.7,0,0,1-.854-2.548Zm.762.209a3.119,3.119,0,0,0,.638,2.022,2.157,2.157,0,0,0,3.339,0,3.215,3.215,0,0,0,.638-2.085v-.146a3.488,3.488,0,0,0-.292-1.441,2.344,2.344,0,0,0-.819-1.013,2.1,2.1,0,0,0-1.206-.358,2.027,2.027,0,0,0-1.656.8,3.224,3.224,0,0,0-.642,2.085Z"/><path d="M264.976,74.667l2.087-5.821h.782l-2.565,6.868h-.616l-2.577-6.868h.781Z"/><path d="M271.666,75.841a2.98,2.98,0,0,1-1.584-.431,2.946,2.946,0,0,1-1.1-1.2,3.758,3.758,0,0,1-.393-1.729V72.2a4.047,4.047,0,0,1,.384-1.784,3.072,3.072,0,0,1,1.07-1.247,2.635,2.635,0,0,1,1.485-.454,2.483,2.483,0,0,1,1.984.854,3.467,3.467,0,0,1,.733,2.333v.425h-4.9v.146a2.868,2.868,0,0,0,.669,1.945,2.132,2.132,0,0,0,1.685.779,2.475,2.475,0,0,0,1.076-.223,2.386,2.386,0,0,0,.848-.711l.476.362A2.772,2.772,0,0,1,271.666,75.841Zm-.14-6.474a1.9,1.9,0,0,0-1.444.628,2.9,2.9,0,0,0-.714,1.689h4.119V71.6a2.516,2.516,0,0,0-.564-1.612A1.754,1.754,0,0,0,271.526,69.367Zm.844-3.4h.921l-1.467,1.778-.666,0Z"/><path d="M211.389,82.846l.025,1.117a2.541,2.541,0,0,1,.952-.932,2.606,2.606,0,0,1,1.27-.312,1.925,1.925,0,0,1,2.062,1.333,2.587,2.587,0,0,1,.985-.987,2.719,2.719,0,0,1,1.358-.346q2.21,0,2.253,2.412v4.583h-.762V85.189a2.047,2.047,0,0,0-.4-1.365,1.618,1.618,0,0,0-1.273-.445,2.021,2.021,0,0,0-1.383.531,1.871,1.871,0,0,0-.629,1.259v4.545h-.762V85.131a1.88,1.88,0,0,0-.416-1.317,1.658,1.658,0,0,0-1.26-.435,1.921,1.921,0,0,0-1.231.409A2.407,2.407,0,0,0,211.42,85v4.71h-.762V82.846Z"/><path d="M221.8,86.179a4.044,4.044,0,0,1,.384-1.784,2.885,2.885,0,0,1,2.675-1.676,2.823,2.823,0,0,1,2.222.962,3.705,3.705,0,0,1,.851,2.549v.158a4.071,4.071,0,0,1-.384,1.793,2.876,2.876,0,0,1-1.083,1.229,2.962,2.962,0,0,1-1.593.431,2.827,2.827,0,0,1-2.219-.962,3.694,3.694,0,0,1-.853-2.548Zm.762.209a3.119,3.119,0,0,0,.637,2.022,2.157,2.157,0,0,0,3.339,0,3.215,3.215,0,0,0,.638-2.085v-.146a3.488,3.488,0,0,0-.292-1.441,2.351,2.351,0,0,0-.819-1.013,2.1,2.1,0,0,0-1.206-.358,2.031,2.031,0,0,0-1.657.8,3.229,3.229,0,0,0-.64,2.085Z"/><path d="M229.193,86.217a4.15,4.15,0,0,1,.714-2.549,2.3,2.3,0,0,1,1.94-.949,2.388,2.388,0,0,1,2.12,1.1V79.964h.756v9.75h-.711l-.032-.914a2.454,2.454,0,0,1-2.146,1.041,2.291,2.291,0,0,1-1.914-.955,4.164,4.164,0,0,1-.727-2.58Zm.769.133a3.588,3.588,0,0,0,.526,2.072,1.706,1.706,0,0,0,1.486.759,2.044,2.044,0,0,0,1.993-1.237V84.719a2.03,2.03,0,0,0-1.981-1.34,1.726,1.726,0,0,0-1.491.752A3.833,3.833,0,0,0,229.962,86.35Z"/><path d="M239.382,89.841a2.98,2.98,0,0,1-1.584-.431,2.946,2.946,0,0,1-1.1-1.2,3.758,3.758,0,0,1-.393-1.729V86.2a4.047,4.047,0,0,1,.384-1.784,3.064,3.064,0,0,1,1.07-1.247,2.635,2.635,0,0,1,1.485-.454,2.484,2.484,0,0,1,1.984.854,3.467,3.467,0,0,1,.733,2.333v.425h-4.9v.146a2.868,2.868,0,0,0,.669,1.945,2.13,2.13,0,0,0,1.685.779,2.478,2.478,0,0,0,1.076-.223,2.386,2.386,0,0,0,.848-.711l.476.362A2.773,2.773,0,0,1,239.382,89.841Zm-.14-6.474A1.9,1.9,0,0,0,237.8,84a2.9,2.9,0,0,0-.714,1.689H241.2V85.6a2.516,2.516,0,0,0-.564-1.612A1.755,1.755,0,0,0,239.242,83.367Z"/><path d="M244.288,89.714h-.762v-9.75h.762Z"/><path d="M248.528,88.622l2.006-5.776h.82l-2.933,8.036-.152.356a1.846,1.846,0,0,1-1.747,1.251,2.2,2.2,0,0,1-.584-.089l0-.629.393.038a1.4,1.4,0,0,0,.9-.276,2.083,2.083,0,0,0,.587-.949l.337-.926-2.59-6.812h.832Z"/><path d="M260.024,89.714a3.591,3.591,0,0,1-.146-.958,2.656,2.656,0,0,1-1.019.8,3.123,3.123,0,0,1-1.31.282,2.3,2.3,0,0,1-1.6-.552,1.8,1.8,0,0,1-.612-1.4,1.837,1.837,0,0,1,.835-1.587,4.006,4.006,0,0,1,2.326-.584h1.378v-.781a1.5,1.5,0,0,0-.454-1.158,1.874,1.874,0,0,0-1.323-.422,2.067,2.067,0,0,0-1.315.406,1.208,1.208,0,0,0-.52.977l-.762-.006a1.767,1.767,0,0,1,.762-1.419,2.933,2.933,0,0,1,1.873-.6,2.671,2.671,0,0,1,1.811.574,2.064,2.064,0,0,1,.683,1.6v3.25a4.019,4.019,0,0,0,.21,1.491v.076Zm-2.386-.546A2.543,2.543,0,0,0,259,88.8a2.176,2.176,0,0,0,.873-.983V86.306h-1.358a3.4,3.4,0,0,0-1.778.415,1.251,1.251,0,0,0-.641,1.108,1.224,1.224,0,0,0,.428.958A1.617,1.617,0,0,0,257.638,89.168Z"/><path d="M266.568,84.008a2.681,2.681,0,0,1,.959-.952,2.5,2.5,0,0,1,1.276-.337,2.063,2.063,0,0,1,1.644.622,2.809,2.809,0,0,1,.546,1.866v4.507h-.756V85.2a2.1,2.1,0,0,0-.389-1.372,1.534,1.534,0,0,0-1.229-.451,1.92,1.92,0,0,0-1.247.442,2.584,2.584,0,0,0-.8,1.19v4.7h-.755v-9.75h.755Z"/><path d="M275.125,88.622l2.006-5.776h.819l-2.932,8.036-.153.356a1.846,1.846,0,0,1-1.746,1.251,2.189,2.189,0,0,1-.584-.089l-.006-.629.394.038a1.4,1.4,0,0,0,.9-.276,2.083,2.083,0,0,0,.587-.949l.337-.926-2.59-6.812h.831Z"/><path d="M284.647,86.35a4.138,4.138,0,0,1-.711,2.549,2.266,2.266,0,0,1-1.9.942,2.544,2.544,0,0,1-2.158-.99v3.5h-.755V82.846h.7l.038.972a2.437,2.437,0,0,1,2.153-1.1,2.284,2.284,0,0,1,1.932.934,4.224,4.224,0,0,1,.7,2.59Zm-.762-.133a3.539,3.539,0,0,0-.539-2.076,1.742,1.742,0,0,0-1.5-.762,2.007,2.007,0,0,0-1.968,1.315v3.294a2.021,2.021,0,0,0,.781.9,2.246,2.246,0,0,0,1.2.312,1.723,1.723,0,0,0,1.5-.766A3.85,3.85,0,0,0,283.885,86.217Z"/><path d="M285.91,86.179a4.044,4.044,0,0,1,.384-1.784,2.885,2.885,0,0,1,2.676-1.676,2.821,2.821,0,0,1,2.221.962,3.705,3.705,0,0,1,.851,2.549v.158a4.071,4.071,0,0,1-.384,1.793,2.876,2.876,0,0,1-1.083,1.229,2.962,2.962,0,0,1-1.593.431,2.824,2.824,0,0,1-2.218-.962,3.69,3.69,0,0,1-.854-2.548Zm.762.209a3.119,3.119,0,0,0,.638,2.022,2.156,2.156,0,0,0,3.338,0,3.215,3.215,0,0,0,.638-2.085v-.146a3.488,3.488,0,0,0-.292-1.441,2.349,2.349,0,0,0-.818-1.013,2.1,2.1,0,0,0-1.206-.358,2.028,2.028,0,0,0-1.657.8,3.23,3.23,0,0,0-.641,2.085Z"/><path d="M294.79,81.088v1.758h1.422v.622H294.79V88.05A1.442,1.442,0,0,0,295,88.9a.8.8,0,0,0,.69.279,4.743,4.743,0,0,0,.615-.063l.032.617a2.494,2.494,0,0,1-.812.106,1.355,1.355,0,0,1-1.137-.454,2.133,2.133,0,0,1-.356-1.336V83.468h-1.262v-.622h1.262V81.088Z"/><path d="M300.446,89.841a2.98,2.98,0,0,1-1.584-.431,2.943,2.943,0,0,1-1.1-1.2,3.746,3.746,0,0,1-.394-1.729V86.2a4.047,4.047,0,0,1,.384-1.784,3.072,3.072,0,0,1,1.07-1.247,2.636,2.636,0,0,1,1.486-.454,2.481,2.481,0,0,1,1.983.854,3.467,3.467,0,0,1,.733,2.333v.425h-4.9v.146a2.873,2.873,0,0,0,.669,1.945,2.132,2.132,0,0,0,1.686.779,2.481,2.481,0,0,0,1.076-.223,2.392,2.392,0,0,0,.847-.711l.476.362A2.772,2.772,0,0,1,300.446,89.841Zm-.139-6.474a1.9,1.9,0,0,0-1.445.628,2.9,2.9,0,0,0-.714,1.689h4.12V85.6a2.517,2.517,0,0,0-.565-1.612A1.752,1.752,0,0,0,300.307,83.367Zm.843-3.4h.921l-1.466,1.778-.667,0Z"/><path d="M305,89.074h4.462v.64h-5.4v-.558l4.165-5.65h-4.038v-.66h5v.57Z"/><path d="M313,88.622l2.006-5.776h.818l-2.932,8.036-.153.356A1.843,1.843,0,0,1,311,92.489a2.172,2.172,0,0,1-.584-.089l-.007-.629.394.038a1.4,1.4,0,0,0,.9-.276,2.084,2.084,0,0,0,.588-.949l.336-.926-2.59-6.812h.832Z"/><path d="M185.005,55H179.24a.339.339,0,1,0,0,.678h5.765a.339.339,0,1,0,0-.678Z"/><path d="M179.24,62.967h5.086a.339.339,0,1,1,0,.678H179.24a.339.339,0,0,1,0-.678Z"/><path d="M179.24,65.625h3.391a.339.339,0,0,1,0,.678H179.24a.339.339,0,0,1,0-.678Z"/><path d="M179.24,68.28h3.391a.339.339,0,0,1,0,.678H179.24a.339.339,0,0,1,0-.678Z"/><line class="cls-4" x1="193.863" y1="72.877" x2="198.563" y2="77.577"/><path class="cls-5" d="M188.419,57.433h3.344l-4.022-4.022v3.343A.679.679,0,0,0,188.419,57.433Z"/><path class="cls-5" d="M188.419,58.111a1.356,1.356,0,0,1-1.356-1.357V52.933h-9.284a.678.678,0,0,0-.679.678V59.56h15.141V58.111Z"/><path d="M177.1,53.611a.678.678,0,0,1,.679-.678h9.284v3.821a1.356,1.356,0,0,0,1.356,1.357h3.822V59.56h.675V57.751a.48.48,0,0,0-.021-.091.081.081,0,0,0,0-.031.361.361,0,0,0-.064-.095l-5.188-5.178a.359.359,0,0,0-.092-.061h-.034a.37.37,0,0,0-.091-.04h-9.647a1.356,1.356,0,0,0-1.357,1.356V59.56h.678Zm10.641-.2,4.022,4.022h-3.344a.679.679,0,0,1-.678-.679Z"/><path d="M177.1,59.56V70.345a.679.679,0,0,0,.678.679H184.2a6.08,6.08,0,0,1,8.037-8.037V59.56h.678v3.786A6.084,6.084,0,1,1,184.56,71.7h-6.781a1.357,1.357,0,0,1-1.357-1.357V59.56Zm12.662,14.4a5.426,5.426,0,1,0-5.426-5.426A5.425,5.425,0,0,0,189.759,73.957Z"/><path d="M189.244,60.312h-10a.339.339,0,1,0,0,.678h10a.339.339,0,1,0,0-.678Z"/><polyline class="cls-4" points="187.199 69.035 188.854 70.69 192.318 67.226"/><circle class="cls-6" cx="185.344" cy="64.916" r="15.942"/><path d="M502.674,57.334a5.669,5.669,0,0,1-.47,2.384,3.547,3.547,0,0,1-1.343,1.574,3.938,3.938,0,0,1-4.011,0,3.61,3.61,0,0,1-1.359-1.564,5.5,5.5,0,0,1-.485-2.343v-.52a5.614,5.614,0,0,1,.479-2.387,3.6,3.6,0,0,1,1.352-1.584,3.947,3.947,0,0,1,4.006-.006,3.55,3.55,0,0,1,1.348,1.562,5.607,5.607,0,0,1,.483,2.371Zm-1.607-.482a4.042,4.042,0,0,0-.58-2.355,2.049,2.049,0,0,0-3.275,0,3.965,3.965,0,0,0-.6,2.308v.533a4.018,4.018,0,0,0,.594,2.356,1.914,1.914,0,0,0,1.648.831,1.888,1.888,0,0,0,1.64-.813,4.094,4.094,0,0,0,.574-2.374Z"/><path d="M503.835,58.23a4.088,4.088,0,0,1,.736-2.549,2.361,2.361,0,0,1,1.975-.962,2.245,2.245,0,0,1,1.765.762V51.964h1.542v9.75h-1.4L508.38,61a2.272,2.272,0,0,1-1.847.838,2.344,2.344,0,0,1-1.952-.971A4.233,4.233,0,0,1,503.835,58.23Zm1.543.133a2.854,2.854,0,0,0,.4,1.634,1.307,1.307,0,0,0,1.146.587,1.458,1.458,0,0,0,1.384-.843V56.808a1.436,1.436,0,0,0-1.372-.825,1.315,1.315,0,0,0-1.155.593A3.185,3.185,0,0,0,505.378,58.363Z"/><path d="M517.489,58.35a4.13,4.13,0,0,1-.714,2.546,2.327,2.327,0,0,1-1.964.945,2.24,2.24,0,0,1-1.879-.869l-.077.742h-1.4v-9.75H513v3.542a2.235,2.235,0,0,1,1.8-.787,2.353,2.353,0,0,1,1.974.934,4.193,4.193,0,0,1,.717,2.608Zm-1.543-.133a2.919,2.919,0,0,0-.393-1.676,1.308,1.308,0,0,0-1.143-.558,1.433,1.433,0,0,0-1.409.876V59.69a1.447,1.447,0,0,0,1.422.894,1.3,1.3,0,0,0,1.117-.539,2.818,2.818,0,0,0,.406-1.632Z"/><path d="M518.492,58.217a4.047,4.047,0,0,1,.4-1.819,2.918,2.918,0,0,1,1.124-1.244,3.171,3.171,0,0,1,1.663-.435,3,3,0,0,1,2.256.9,3.512,3.512,0,0,1,.936,2.374l.007.361a4.084,4.084,0,0,1-.391,1.815A2.879,2.879,0,0,1,523.37,61.4a3.187,3.187,0,0,1-1.679.437,2.979,2.979,0,0,1-2.327-.968,3.71,3.71,0,0,1-.872-2.58Zm1.542.133a2.767,2.767,0,0,0,.439,1.66,1.423,1.423,0,0,0,1.218.6,1.4,1.4,0,0,0,1.215-.61,3.054,3.054,0,0,0,.436-1.783,2.732,2.732,0,0,0-.448-1.65,1.508,1.508,0,0,0-2.415-.01A3,3,0,0,0,520.034,58.35Z"/><path d="M529.778,56.255a3.917,3.917,0,0,0-.629-.051,1.415,1.415,0,0,0-1.427.813v4.7h-1.543V54.846h1.472l.038.769a1.74,1.74,0,0,1,1.549-.9,1.443,1.443,0,0,1,.546.089Z"/><path d="M532.184,54.846l.045.794a2.466,2.466,0,0,1,2-.921q2.145,0,2.183,2.457v4.538h-1.542V57.265a1.418,1.418,0,0,0-.283-.969,1.188,1.188,0,0,0-.923-.313,1.487,1.487,0,0,0-1.391.844v4.887H530.73V54.846Z"/><path d="M539.643,61.714H538.1V54.846h1.543Zm-.292-9.7h1.757l-1.757,1.923-1.239,0Z"/><path d="M548.23,56.255a3.9,3.9,0,0,0-.627-.051,1.418,1.418,0,0,0-1.429.813v4.7h-1.542V54.846h1.473l.038.769a1.737,1.737,0,0,1,1.548-.9,1.45,1.45,0,0,1,.546.089Z"/><path d="M552.109,61.841a3.19,3.19,0,0,1-2.378-.924,3.352,3.352,0,0,1-.91-2.459v-.19a4.113,4.113,0,0,1,.4-1.838,3.012,3.012,0,0,1,1.114-1.26,2.94,2.94,0,0,1,1.6-.451,2.7,2.7,0,0,1,2.167.9,3.781,3.781,0,0,1,.765,2.532v.622h-4.488a2.066,2.066,0,0,0,.568,1.346,1.706,1.706,0,0,0,1.254.495,2.089,2.089,0,0,0,1.727-.857l.831.793a2.757,2.757,0,0,1-1.1.955A3.435,3.435,0,0,1,552.109,61.841Zm-.184-5.884a1.3,1.3,0,0,0-1.026.445,2.321,2.321,0,0,0-.5,1.237h2.94v-.114a1.876,1.876,0,0,0-.413-1.171A1.286,1.286,0,0,0,551.925,55.957Z"/><path d="M558.882,60.61a1.4,1.4,0,0,0,.959-.336,1.151,1.151,0,0,0,.406-.832H561.7a2.261,2.261,0,0,1-.4,1.2,2.627,2.627,0,0,1-1.016.88,3.024,3.024,0,0,1-1.384.323,2.927,2.927,0,0,1-2.285-.932,3.7,3.7,0,0,1-.844-2.578v-.159a3.645,3.645,0,0,1,.837-2.511,2.908,2.908,0,0,1,2.286-.942,2.825,2.825,0,0,1,2,.714,2.563,2.563,0,0,1,.808,1.876h-1.453a1.411,1.411,0,0,0-.4-.971,1.3,1.3,0,0,0-.962-.381,1.359,1.359,0,0,0-1.155.542,2.77,2.77,0,0,0-.413,1.648V58.4a2.806,2.806,0,0,0,.4,1.666A1.354,1.354,0,0,0,558.882,60.61Z"/><path d="M565.89,61.841a3.185,3.185,0,0,1-2.377-.924,3.345,3.345,0,0,1-.911-2.459v-.19a4.113,4.113,0,0,1,.4-1.838,3.017,3.017,0,0,1,1.113-1.26,2.945,2.945,0,0,1,1.6-.451,2.7,2.7,0,0,1,2.168.9,3.781,3.781,0,0,1,.765,2.532v.622h-4.488a2.057,2.057,0,0,0,.569,1.346,1.7,1.7,0,0,0,1.253.495,2.085,2.085,0,0,0,1.726-.857l.832.793a2.761,2.761,0,0,1-1.1.955A3.442,3.442,0,0,1,565.89,61.841Zm-.184-5.884a1.3,1.3,0,0,0-1.025.445,2.3,2.3,0,0,0-.5,1.237h2.938v-.114a1.87,1.87,0,0,0-.412-1.171A1.288,1.288,0,0,0,565.706,55.957Z"/><path d="M571.272,54.846l.045.794a2.468,2.468,0,0,1,2-.921q2.146,0,2.184,2.457v4.538h-1.542V57.265a1.418,1.418,0,0,0-.283-.969,1.188,1.188,0,0,0-.923-.313,1.487,1.487,0,0,0-1.391.844v4.887h-1.542V54.846Z"/><path d="M578.719,60.483h3.656v1.231H576.8V60.705l3.484-4.615h-3.421V54.846h5.376v.978Z"/><path d="M586.532,61.841a3.188,3.188,0,0,1-2.377-.924,3.349,3.349,0,0,1-.911-2.459v-.19a4.113,4.113,0,0,1,.4-1.838,3,3,0,0,1,1.113-1.26,2.942,2.942,0,0,1,1.6-.451,2.693,2.693,0,0,1,2.167.9,3.781,3.781,0,0,1,.765,2.532v.622H584.8a2.057,2.057,0,0,0,.568,1.346,1.7,1.7,0,0,0,1.253.495,2.088,2.088,0,0,0,1.727-.857l.832.793a2.771,2.771,0,0,1-1.1.955A3.439,3.439,0,0,1,586.532,61.841Zm-.183-5.884a1.3,1.3,0,0,0-1.026.445,2.305,2.305,0,0,0-.5,1.237h2.939v-.114a1.876,1.876,0,0,0-.412-1.171A1.291,1.291,0,0,0,586.349,55.957Z"/><path d="M591.915,54.846l.045.794a2.468,2.468,0,0,1,2-.921q2.147,0,2.184,2.457v4.538H594.6V57.265a1.413,1.413,0,0,0-.284-.969,1.186,1.186,0,0,0-.922-.313,1.486,1.486,0,0,0-1.391.844v4.887h-1.542V54.846Z"/><path d="M599.647,53.177v1.669h1.212v1.143h-1.212v3.834a.837.837,0,0,0,.156.568.719.719,0,0,0,.554.175,2.4,2.4,0,0,0,.54-.064V61.7a3.85,3.85,0,0,1-1.015.145q-1.779,0-1.777-1.961V55.989h-1.13V54.846h1.13V53.177Z"/><path d="M602.04,53.063a.822.822,0,0,1,.225-.591.852.852,0,0,1,.644-.234.866.866,0,0,1,.648.234.816.816,0,0,1,.228.591.793.793,0,0,1-.228.58.869.869,0,0,1-.648.232.855.855,0,0,1-.644-.232A.8.8,0,0,1,602.04,53.063Zm1.638,8.651h-1.543V54.846h1.543Z"/><path d="M494.93,72.179a4.057,4.057,0,0,1,.383-1.784,2.885,2.885,0,0,1,2.676-1.676,2.823,2.823,0,0,1,2.222.962,3.71,3.71,0,0,1,.851,2.549v.158a4.071,4.071,0,0,1-.384,1.793A2.876,2.876,0,0,1,499.6,75.41a2.962,2.962,0,0,1-1.593.431,2.827,2.827,0,0,1-2.219-.962,3.694,3.694,0,0,1-.853-2.548Zm.761.209a3.119,3.119,0,0,0,.638,2.022,2.157,2.157,0,0,0,3.339,0,3.215,3.215,0,0,0,.638-2.085v-.146a3.488,3.488,0,0,0-.292-1.441,2.351,2.351,0,0,0-.819-1.013,2.1,2.1,0,0,0-1.206-.358,2.031,2.031,0,0,0-1.657.8,3.23,3.23,0,0,0-.641,2.085Z"/><path d="M504.673,74.667l2.089-5.821h.78l-2.564,6.868h-.616l-2.577-6.868h.78Z"/><path d="M511.363,75.841a2.977,2.977,0,0,1-1.583-.431,2.93,2.93,0,0,1-1.1-1.2,3.733,3.733,0,0,1-.394-1.729V72.2a4.047,4.047,0,0,1,.384-1.784,3.062,3.062,0,0,1,1.069-1.247,2.636,2.636,0,0,1,1.486-.454,2.481,2.481,0,0,1,1.984.854,3.467,3.467,0,0,1,.732,2.333v.425h-4.9v.146a2.874,2.874,0,0,0,.67,1.945,2.129,2.129,0,0,0,1.686.779,2.481,2.481,0,0,0,1.076-.223,2.39,2.39,0,0,0,.846-.711l.477.362A2.773,2.773,0,0,1,511.363,75.841Zm-.139-6.474A1.9,1.9,0,0,0,509.78,70a2.91,2.91,0,0,0-.715,1.689h4.121V71.6a2.523,2.523,0,0,0-.566-1.612A1.751,1.751,0,0,0,511.224,69.367Zm.076-2.082,1.092-1.232h.679v.076l-1.5,1.657h-.546l-1.5-1.663v-.07h.679Z"/><path d="M517.032,67.285l1.092-1.232h.679v.076l-1.5,1.657h-.546l-1.5-1.663v-.07h.679Zm1.562,2.208a2.9,2.9,0,0,0-.515-.043,1.847,1.847,0,0,0-1.2.4,2.169,2.169,0,0,0-.7,1.152v4.716h-.755V68.846h.742l.013,1.092a2.02,2.02,0,0,1,1.936-1.219,1.229,1.229,0,0,1,.5.083Z"/><path d="M524.211,74.845a2.469,2.469,0,0,1-2.189,1,2.125,2.125,0,0,1-1.67-.638,2.789,2.789,0,0,1-.584-1.888V68.846h.755V73.22q0,1.962,1.587,1.961a1.945,1.945,0,0,0,2.088-1.364V68.846h.762v6.868h-.736Z"/><path d="M527.753,68.846v7.688a2.084,2.084,0,0,1-.457,1.453,1.728,1.728,0,0,1-1.346.5,1.882,1.882,0,0,1-.666-.121l.013-.623a1.963,1.963,0,0,0,.571.083q1.129,0,1.13-1.3v-7.68Zm-.374-2.494a.5.5,0,0,1,.387.148.51.51,0,0,1,.139.363.5.5,0,0,1-.139.359.511.511,0,0,1-.387.146.493.493,0,0,1-.378-.146.506.506,0,0,1-.137-.359A.517.517,0,0,1,527,66.5.488.488,0,0,1,527.379,66.352Z"/><path d="M531.13,66.04h.921l-1.467,1.778-.666,0Zm-.394,9.674h-.761V68.846h.761Z"/><path d="M540.067,73.969a1.081,1.081,0,0,0-.454-.908,3.479,3.479,0,0,0-1.367-.536,6.174,6.174,0,0,1-1.419-.445,1.886,1.886,0,0,1-.749-.612,1.527,1.527,0,0,1-.244-.876,1.637,1.637,0,0,1,.679-1.343,2.747,2.747,0,0,1,1.739-.53,2.825,2.825,0,0,1,1.844.568,1.823,1.823,0,0,1,.7,1.483h-.762a1.229,1.229,0,0,0-.5-1,2.277,2.277,0,0,0-2.475-.067,1.029,1.029,0,0,0-.453.867.936.936,0,0,0,.377.8,3.992,3.992,0,0,0,1.378.517,6.483,6.483,0,0,1,1.5.5,1.941,1.941,0,0,1,.739.641,1.764,1.764,0,0,1-.46,2.3,3,3,0,0,1-1.831.52,3.074,3.074,0,0,1-1.946-.581,1.788,1.788,0,0,1-.746-1.469h.762a1.318,1.318,0,0,0,.562,1.037,2.285,2.285,0,0,0,1.368.373,2.158,2.158,0,0,0,1.282-.35A1.048,1.048,0,0,0,540.067,73.969Z"/><path d="M548.06,72.35a4.144,4.144,0,0,1-.711,2.549,2.268,2.268,0,0,1-1.905.942,2.542,2.542,0,0,1-2.158-.99v3.5h-.756V68.846h.705l.038.972a2.437,2.437,0,0,1,2.152-1.1,2.285,2.285,0,0,1,1.933.934,4.231,4.231,0,0,1,.7,2.59Zm-.762-.133a3.532,3.532,0,0,0-.54-2.076,1.74,1.74,0,0,0-1.5-.762,2.005,2.005,0,0,0-1.968,1.315v3.294a2.025,2.025,0,0,0,.78.9,2.25,2.25,0,0,0,1.2.312,1.725,1.725,0,0,0,1.495-.766A3.85,3.85,0,0,0,547.3,72.217Z"/><path d="M552.915,69.493a2.889,2.889,0,0,0-.514-.043,1.852,1.852,0,0,0-1.2.4A2.174,2.174,0,0,0,550.5,71v4.716h-.756V68.846h.743l.013,1.092a2.018,2.018,0,0,1,1.936-1.219,1.234,1.234,0,0,1,.5.083Z"/><path d="M558.2,75.714a3.557,3.557,0,0,1-.145-.958,2.664,2.664,0,0,1-1.019.8,3.124,3.124,0,0,1-1.311.282,2.3,2.3,0,0,1-1.6-.552,1.8,1.8,0,0,1-.612-1.4,1.837,1.837,0,0,1,.835-1.587,4,4,0,0,1,2.326-.584h1.377v-.781a1.506,1.506,0,0,0-.453-1.158,1.875,1.875,0,0,0-1.324-.422,2.064,2.064,0,0,0-1.314.406,1.2,1.2,0,0,0-.52.977l-.762-.006a1.767,1.767,0,0,1,.762-1.419,2.929,2.929,0,0,1,1.872-.6,2.674,2.674,0,0,1,1.812.574,2.064,2.064,0,0,1,.683,1.6v3.25a4.022,4.022,0,0,0,.209,1.491v.076Zm-2.386-.546a2.549,2.549,0,0,0,1.362-.368,2.168,2.168,0,0,0,.872-.983V72.306h-1.358a3.4,3.4,0,0,0-1.778.415,1.25,1.25,0,0,0-.64,1.108,1.224,1.224,0,0,0,.428.958A1.613,1.613,0,0,0,555.81,75.168Zm1.5-9.2h.921l-1.467,1.778-.666,0Z"/><path d="M562.868,74.667l2.089-5.821h.78l-2.564,6.868h-.615l-2.578-6.868h.781Z"/><path d="M567.705,68.846l.025,1.175a2.747,2.747,0,0,1,.965-.969,2.514,2.514,0,0,1,1.277-.333,2.06,2.06,0,0,1,1.643.622,2.8,2.8,0,0,1,.546,1.866v4.507h-.755V71.2a2.1,2.1,0,0,0-.39-1.372,1.531,1.531,0,0,0-1.229-.451,1.92,1.92,0,0,0-1.247.442,2.575,2.575,0,0,0-.8,1.19v4.7h-.756V68.846Z"/><path d="M573.7,72.179a4.044,4.044,0,0,1,.384-1.784,2.885,2.885,0,0,1,2.676-1.676,2.821,2.821,0,0,1,2.221.962,3.705,3.705,0,0,1,.851,2.549v.158a4.071,4.071,0,0,1-.384,1.793,2.876,2.876,0,0,1-1.083,1.229,2.962,2.962,0,0,1-1.593.431,2.824,2.824,0,0,1-2.218-.962,3.69,3.69,0,0,1-.854-2.548Zm.762.209a3.119,3.119,0,0,0,.638,2.022,2.156,2.156,0,0,0,3.338,0,3.215,3.215,0,0,0,.638-2.085v-.146a3.488,3.488,0,0,0-.292-1.441,2.349,2.349,0,0,0-.818-1.013,2.1,2.1,0,0,0-1.206-.358,2.031,2.031,0,0,0-1.658.8,3.235,3.235,0,0,0-.64,2.085Z"/><path d="M585.517,73.969a1.083,1.083,0,0,0-.454-.908,3.485,3.485,0,0,0-1.368-.536,6.174,6.174,0,0,1-1.419-.445,1.886,1.886,0,0,1-.749-.612,1.527,1.527,0,0,1-.244-.876,1.637,1.637,0,0,1,.679-1.343,2.747,2.747,0,0,1,1.739-.53,2.825,2.825,0,0,1,1.844.568,1.823,1.823,0,0,1,.7,1.483h-.761a1.229,1.229,0,0,0-.5-1A2.279,2.279,0,0,0,582.5,69.7a1.029,1.029,0,0,0-.453.867.936.936,0,0,0,.377.8,3.992,3.992,0,0,0,1.378.517,6.483,6.483,0,0,1,1.5.5,1.941,1.941,0,0,1,.739.641,1.764,1.764,0,0,1-.46,2.3,3,3,0,0,1-1.831.52,3.074,3.074,0,0,1-1.946-.581,1.787,1.787,0,0,1-.745-1.469h.761a1.318,1.318,0,0,0,.562,1.037,2.287,2.287,0,0,0,1.368.373,2.158,2.158,0,0,0,1.282-.35A1.047,1.047,0,0,0,585.517,73.969Z"/><path d="M589.167,67.088v1.758h1.422v.622h-1.422V74.05a1.434,1.434,0,0,0,.206.852.8.8,0,0,0,.689.279,4.787,4.787,0,0,0,.616-.063l.031.617a2.49,2.49,0,0,1-.812.106,1.351,1.351,0,0,1-1.136-.454,2.127,2.127,0,0,1-.356-1.336V69.468h-1.263v-.622h1.263V67.088Z"/><path d="M469.657,55h-5.765a.339.339,0,1,0,0,.678h5.765a.339.339,0,0,0,0-.678Z"/><path d="M463.892,62.967h5.086a.339.339,0,0,1,0,.678h-5.086a.339.339,0,1,1,0-.678Z"/><path d="M463.892,65.625h3.391a.339.339,0,0,1,0,.678h-3.391a.339.339,0,0,1,0-.678Z"/><path d="M463.892,68.28h3.391a.339.339,0,0,1,0,.678h-3.391a.339.339,0,1,1,0-.678Z"/><line class="cls-4" x1="478.515" y1="72.877" x2="483.214" y2="77.577"/><path class="cls-5" d="M473.071,57.433h3.344l-4.022-4.022v3.343A.679.679,0,0,0,473.071,57.433Z"/><path class="cls-5" d="M473.071,58.111a1.356,1.356,0,0,1-1.356-1.357V52.933H462.43a.678.678,0,0,0-.678.678V59.56h15.141V58.111Z"/><path d="M461.752,53.611a.678.678,0,0,1,.678-.678h9.285v3.821a1.356,1.356,0,0,0,1.356,1.357h3.822V59.56h.675V57.751a.48.48,0,0,0-.021-.091.081.081,0,0,0,0-.031.361.361,0,0,0-.064-.095L472.3,52.356a.359.359,0,0,0-.092-.061h-.034a.37.37,0,0,0-.091-.04H462.43a1.356,1.356,0,0,0-1.356,1.356V59.56h.678Zm10.641-.2,4.022,4.022h-3.344a.679.679,0,0,1-.678-.679Z"/><path d="M461.749,59.56V70.345a.679.679,0,0,0,.678.679h6.426a6.08,6.08,0,0,1,8.036-8.037V59.56h.679v3.786a6.084,6.084,0,1,1-8.356,8.356H462.43a1.357,1.357,0,0,1-1.356-1.357V59.56Zm12.662,14.4a5.426,5.426,0,1,0-5.426-5.426A5.425,5.425,0,0,0,474.411,73.957Z"/><path d="M473.9,60.312h-10a.339.339,0,1,0,0,.678h10a.339.339,0,0,0,0-.678Z"/><polyline class="cls-4" points="471.851 69.035 473.506 70.69 476.97 67.226"/><circle class="cls-6" cx="469.996" cy="64.916" r="15.942"/><polyline class="cls-7" points="633.279 67.552 634.832 69.105 638.083 65.854"/><path class="cls-8" d="M636.371,57.43l.921.665a.913.913,0,0,0,.869.2l1.073-.255a1.129,1.129,0,0,1,1.227.562l.563.972a.983.983,0,0,0,.767.562l1.022.2a1.136,1.136,0,0,1,.92.971l.1,1.125a1.2,1.2,0,0,0,.46.818l.92.613a1.14,1.14,0,0,1,.409,1.278l-.358,1.074a1.15,1.15,0,0,0,.1.92l.563.921a1.077,1.077,0,0,1-.154,1.329l-.766.869a1.1,1.1,0,0,0-.256.869l.1,1.074a1.133,1.133,0,0,1-.664,1.176l-1.023.46a1.079,1.079,0,0,0-.613.715L642.2,75.58a1.063,1.063,0,0,1-1.074.767H640a1.066,1.066,0,0,0-.818.409l-.716.767a1.116,1.116,0,0,1-1.329.307l-1.022-.461a.981.981,0,0,0-.921,0l-.971.461a1.116,1.116,0,0,1-1.329-.307l-.767-.818a.924.924,0,0,0-.869-.358h-1.074a1.155,1.155,0,0,1-1.074-.767l-.357-1.125a1.119,1.119,0,0,0-.614-.664l-.971-.409a1.133,1.133,0,0,1-.665-1.176l.1-1.125a.937.937,0,0,0-.306-.869l-.716-.818a1.077,1.077,0,0,1-.154-1.329l.563-.972a1.174,1.174,0,0,0,.1-.92l-.358-1.023a1.14,1.14,0,0,1,.409-1.278l.92-.664a1.043,1.043,0,0,0,.461-.818l.1-1.074a1.136,1.136,0,0,1,.92-.971l1.074-.256a.984.984,0,0,0,.767-.563l.511-.92a1.1,1.1,0,0,1,1.227-.562l1.125.255a1.23,1.23,0,0,0,.92-.2l.818-.665A1.34,1.34,0,0,1,636.371,57.43Z"/><circle class="cls-7" cx="635.681" cy="67.585" r="7.283"/><path d="M667.938,61.584a5.677,5.677,0,0,1-.469,2.385,3.564,3.564,0,0,1-1.343,1.574,3.939,3.939,0,0,1-4.012,0,3.609,3.609,0,0,1-1.358-1.565,5.483,5.483,0,0,1-.485-2.343v-.519a5.623,5.623,0,0,1,.479-2.387,3.592,3.592,0,0,1,1.352-1.584,3.945,3.945,0,0,1,4-.006,3.549,3.549,0,0,1,1.349,1.561,5.6,5.6,0,0,1,.482,2.371Zm-1.605-.482a4.042,4.042,0,0,0-.581-2.355,2.049,2.049,0,0,0-3.275,0,3.96,3.96,0,0,0-.6,2.307v.533a4.011,4.011,0,0,0,.594,2.356,1.913,1.913,0,0,0,1.647.832,1.891,1.891,0,0,0,1.641-.813,4.092,4.092,0,0,0,.575-2.375Z"/><path d="M669.1,62.48a4.08,4.08,0,0,1,.736-2.548,2.353,2.353,0,0,1,1.974-.963,2.242,2.242,0,0,1,1.764.762V56.215h1.543v9.75h-1.4l-.076-.711a2.277,2.277,0,0,1-1.848.838,2.344,2.344,0,0,1-1.952-.972A4.233,4.233,0,0,1,669.1,62.48Zm1.542.134a2.851,2.851,0,0,0,.4,1.634,1.306,1.306,0,0,0,1.145.586,1.458,1.458,0,0,0,1.384-.843V61.058a1.434,1.434,0,0,0-1.371-.825,1.313,1.313,0,0,0-1.155.594A3.181,3.181,0,0,0,670.643,62.614Z"/><path d="M682.754,62.6a4.128,4.128,0,0,1-.714,2.546,2.329,2.329,0,0,1-1.965.946,2.245,2.245,0,0,1-1.879-.87l-.076.743h-1.4v-9.75h1.543v3.541a2.232,2.232,0,0,1,1.8-.787,2.351,2.351,0,0,1,1.973.934,4.189,4.189,0,0,1,.718,2.609Zm-1.542-.133a2.914,2.914,0,0,0-.395-1.676,1.305,1.305,0,0,0-1.142-.558,1.43,1.43,0,0,0-1.408.876V63.94a1.445,1.445,0,0,0,1.421.894,1.3,1.3,0,0,0,1.118-.539,2.837,2.837,0,0,0,.406-1.631Z"/><path d="M683.757,62.467a4.04,4.04,0,0,1,.4-1.818,2.916,2.916,0,0,1,1.123-1.244,3.167,3.167,0,0,1,1.663-.436,3,3,0,0,1,2.257.9,3.512,3.512,0,0,1,.936,2.374l.007.361a4.088,4.088,0,0,1-.39,1.816,2.9,2.9,0,0,1-1.117,1.238,3.2,3.2,0,0,1-1.68.438,2.977,2.977,0,0,1-2.326-.969,3.7,3.7,0,0,1-.873-2.58Zm1.543.133a2.767,2.767,0,0,0,.437,1.66,1.425,1.425,0,0,0,1.219.6,1.4,1.4,0,0,0,1.215-.61,3.045,3.045,0,0,0,.435-1.783,2.728,2.728,0,0,0-.447-1.65,1.509,1.509,0,0,0-2.416-.01A3,3,0,0,0,685.3,62.6Z"/><path d="M695.043,60.506a3.8,3.8,0,0,0-.628-.051,1.415,1.415,0,0,0-1.429.813v4.7h-1.542V59.1h1.473l.037.769a1.739,1.739,0,0,1,1.549-.9,1.434,1.434,0,0,1,.547.09Z"/><path d="M697.448,59.1l.045.794a2.469,2.469,0,0,1,2-.921q2.145,0,2.184,2.457v4.539h-1.543v-4.45a1.408,1.408,0,0,0-.283-.968,1.189,1.189,0,0,0-.923-.314,1.486,1.486,0,0,0-1.39.844v4.888H696V59.1Z"/><path d="M704.907,65.965h-1.543V59.1h1.543Zm-.292-9.706h1.759l-1.759,1.923-1.237,0Z"/><path d="M713.5,60.506a3.793,3.793,0,0,0-.628-.051,1.418,1.418,0,0,0-1.429.813v4.7H709.9V59.1h1.472l.038.769a1.739,1.739,0,0,1,1.549-.9,1.425,1.425,0,0,1,.546.09Z"/><path d="M717.374,66.092A3.192,3.192,0,0,1,715,65.168a3.35,3.35,0,0,1-.911-2.46v-.19a4.113,4.113,0,0,1,.4-1.838,3.017,3.017,0,0,1,1.114-1.26,2.939,2.939,0,0,1,1.6-.451,2.694,2.694,0,0,1,2.168.9,3.781,3.781,0,0,1,.765,2.532v.623h-4.487a2.061,2.061,0,0,0,.568,1.346,1.7,1.7,0,0,0,1.253.494A2.086,2.086,0,0,0,719.189,64l.832.794a2.773,2.773,0,0,1-1.1.955A3.438,3.438,0,0,1,717.374,66.092Zm-.184-5.885a1.3,1.3,0,0,0-1.025.445,2.3,2.3,0,0,0-.5,1.237h2.938v-.113a1.865,1.865,0,0,0-.413-1.172A1.288,1.288,0,0,0,717.19,60.207Z"/><path d="M724.147,64.86a1.393,1.393,0,0,0,.958-.336,1.152,1.152,0,0,0,.407-.832h1.454a2.278,2.278,0,0,1-.4,1.2,2.623,2.623,0,0,1-1.015.879,3.028,3.028,0,0,1-1.384.324,2.929,2.929,0,0,1-2.285-.933,3.7,3.7,0,0,1-.845-2.578v-.159a3.638,3.638,0,0,1,.838-2.51,2.9,2.9,0,0,1,2.285-.943,2.818,2.818,0,0,1,2,.715,2.56,2.56,0,0,1,.81,1.875h-1.454a1.413,1.413,0,0,0-.4-.971,1.3,1.3,0,0,0-.961-.381,1.362,1.362,0,0,0-1.156.543,2.772,2.772,0,0,0-.412,1.647v.248a2.819,2.819,0,0,0,.4,1.666A1.358,1.358,0,0,0,724.147,64.86Z"/><path d="M731.155,66.092a3.193,3.193,0,0,1-2.378-.924,3.354,3.354,0,0,1-.911-2.46v-.19a4.113,4.113,0,0,1,.4-1.838,3.017,3.017,0,0,1,1.114-1.26,2.937,2.937,0,0,1,1.6-.451,2.7,2.7,0,0,1,2.167.9,3.78,3.78,0,0,1,.764,2.532v.623h-4.487a2.061,2.061,0,0,0,.568,1.346,1.7,1.7,0,0,0,1.253.494A2.087,2.087,0,0,0,732.97,64l.832.794a2.786,2.786,0,0,1-1.1.955A3.438,3.438,0,0,1,731.155,66.092Zm-.184-5.885a1.3,1.3,0,0,0-1.026.445,2.313,2.313,0,0,0-.5,1.237h2.939v-.113a1.871,1.871,0,0,0-.412-1.172A1.294,1.294,0,0,0,730.971,60.207Z"/><path d="M736.538,59.1l.044.794a2.47,2.47,0,0,1,2-.921q2.146,0,2.184,2.457v4.539h-1.542v-4.45a1.413,1.413,0,0,0-.283-.968,1.189,1.189,0,0,0-.923-.314,1.487,1.487,0,0,0-1.391.844v4.888h-1.542V59.1Z"/><path d="M664.727,78.219a1.082,1.082,0,0,0-.455-.908,3.48,3.48,0,0,0-1.367-.535,6.169,6.169,0,0,1-1.419-.446,1.879,1.879,0,0,1-.749-.612,1.527,1.527,0,0,1-.244-.876,1.636,1.636,0,0,1,.679-1.342,2.743,2.743,0,0,1,1.739-.531,2.827,2.827,0,0,1,1.844.568,1.823,1.823,0,0,1,.7,1.483h-.762a1.228,1.228,0,0,0-.5-1,2.284,2.284,0,0,0-2.476-.067,1.027,1.027,0,0,0-.453.867.937.937,0,0,0,.377.8,4.034,4.034,0,0,0,1.378.517,6.459,6.459,0,0,1,1.5.5,1.935,1.935,0,0,1,.739.642,1.763,1.763,0,0,1-.46,2.3,3,3,0,0,1-1.831.521,3.065,3.065,0,0,1-1.946-.582,1.787,1.787,0,0,1-.745-1.469h.761a1.317,1.317,0,0,0,.562,1.037,2.287,2.287,0,0,0,1.368.373,2.16,2.16,0,0,0,1.281-.349A1.051,1.051,0,0,0,664.727,78.219Z"/><path d="M669.735,79.451a2,2,0,0,0,1.33-.449,1.57,1.57,0,0,0,.581-1.158h.73a2.14,2.14,0,0,1-.395,1.147,2.45,2.45,0,0,1-.96.808,2.9,2.9,0,0,1-1.286.293,2.653,2.653,0,0,1-2.142-.939,3.8,3.8,0,0,1-.791-2.528V76.4a4.306,4.306,0,0,1,.355-1.8,2.737,2.737,0,0,1,1.02-1.206,2.813,2.813,0,0,1,1.552-.426,2.646,2.646,0,0,1,1.862.674,2.449,2.449,0,0,1,.785,1.77h-.73a1.837,1.837,0,0,0-1.917-1.8,1.9,1.9,0,0,0-1.6.742,3.358,3.358,0,0,0-.569,2.082v.222a3.285,3.285,0,0,0,.569,2.05A1.908,1.908,0,0,0,669.735,79.451Z"/><path d="M674.647,74.258a2.7,2.7,0,0,1,.959-.952,2.515,2.515,0,0,1,1.276-.337,2.059,2.059,0,0,1,1.644.623,2.8,2.8,0,0,1,.546,1.865v4.508h-.755V75.452a2.1,2.1,0,0,0-.39-1.372,1.532,1.532,0,0,0-1.229-.451,1.924,1.924,0,0,0-1.247.442,2.594,2.594,0,0,0-.8,1.19v4.7h-.754v-9.75h.754Z"/><path d="M683.167,78.917l2.088-5.821h.781l-2.564,6.869h-.617L680.278,73.1h.782Z"/><path d="M691.521,79.965a3.593,3.593,0,0,1-.147-.959,2.637,2.637,0,0,1-1.019.8,3.125,3.125,0,0,1-1.311.283,2.3,2.3,0,0,1-1.6-.553,1.8,1.8,0,0,1-.612-1.4,1.839,1.839,0,0,1,.835-1.587,4,4,0,0,1,2.326-.584h1.378v-.78a1.5,1.5,0,0,0-.454-1.158,1.87,1.87,0,0,0-1.323-.423,2.075,2.075,0,0,0-1.315.406,1.206,1.206,0,0,0-.52.977l-.762,0a1.767,1.767,0,0,1,.762-1.42,2.938,2.938,0,0,1,1.872-.6,2.67,2.67,0,0,1,1.812.574,2.064,2.064,0,0,1,.683,1.6V78.4a4,4,0,0,0,.21,1.492v.076Zm-2.387-.547a2.551,2.551,0,0,0,1.361-.367,2.172,2.172,0,0,0,.873-.984V76.556h-1.359a3.422,3.422,0,0,0-1.778.415,1.252,1.252,0,0,0-.64,1.108,1.22,1.22,0,0,0,.429.958A1.613,1.613,0,0,0,689.134,79.418Z"/><path d="M695,79.965h-.762v-9.75H695Z"/><path d="M701.48,79.1a2.47,2.47,0,0,1-2.19,1,2.125,2.125,0,0,1-1.67-.639,2.789,2.789,0,0,1-.584-1.888V73.1h.756V77.47q0,1.962,1.586,1.962a1.946,1.946,0,0,0,2.089-1.365V73.1h.762v6.869h-.737Z"/><path d="M705.022,73.1v7.688a2.084,2.084,0,0,1-.458,1.453,1.724,1.724,0,0,1-1.345.5,1.908,1.908,0,0,1-.667-.12l.013-.623a2,2,0,0,0,.571.082q1.131,0,1.131-1.3V73.1Zm-.375-2.494a.494.494,0,0,1,.527.512.5.5,0,0,1-.14.359.516.516,0,0,1-.387.145.5.5,0,0,1-.378-.145.511.511,0,0,1-.136-.359.522.522,0,0,1,.136-.364A.488.488,0,0,1,704.647,70.6Z"/><path d="M708.4,70.291h.921l-1.466,1.778-.666,0Zm-.393,9.674h-.762V73.1h.762Z"/><circle class="cls-9" cx="638.134" cy="67.585" r="15.942"/><path class="cls-10" d="M192.784,19.252h5.376v1.766h-8.122V19.729l5.274-7.6h-5.267V10.354h8v1.26Z"/><path class="cls-10" d="M206.785,18.821h-3.852l-.733,2.2h-2.337l3.971-10.664h2.035l3.992,10.664h-2.336Zm-3.26-1.781h2.666l-1.339-3.991ZM205.306,7.5h2.307l-2.029,2.272h-1.721Z"/><path class="cls-10" d="M215.322,16.741l-1.142,1.23v3.047h-2.2V10.354h2.2v4.834l.967-1.326,2.717-3.508h2.7l-3.786,4.738,3.9,5.926h-2.615Z"/><path class="cls-10" d="M224.826,19.252h4.665v1.766h-6.862V10.354h2.2Z"/><path class="cls-10" d="M238.036,18.821h-3.852l-.733,2.2h-2.337l3.971-10.664h2.035l3.992,10.664h-2.336Zm-3.26-1.781h2.666L236.1,13.049Z"/><path class="cls-10" d="M243.233,21.018V10.354h3.282a4.982,4.982,0,0,1,2.515.633,4.415,4.415,0,0,1,1.733,1.8,5.556,5.556,0,0,1,.622,2.655v.49a5.554,5.554,0,0,1-.612,2.644,4.374,4.374,0,0,1-1.724,1.8,5.041,5.041,0,0,1-2.512.645Zm2.2-8.885v7.119h1.061a2.388,2.388,0,0,0,1.971-.842,3.81,3.81,0,0,0,.695-2.41v-.564a3.867,3.867,0,0,0-.674-2.465,2.375,2.375,0,0,0-1.969-.838Z"/><path class="cls-10" d="M261.164,17.26v3.758h-2.2V10.354h4.16a4.812,4.812,0,0,1,2.113.439,3.246,3.246,0,0,1,1.4,1.248,3.488,3.488,0,0,1,.491,1.842,3.069,3.069,0,0,1-1.073,2.473,4.472,4.472,0,0,1-2.97.9Zm0-1.779h1.963a1.931,1.931,0,0,0,1.329-.41,1.49,1.49,0,0,0,.458-1.172,1.753,1.753,0,0,0-.462-1.268,1.721,1.721,0,0,0-1.273-.5h-2.015Z"/><path class="cls-10" d="M273.716,17.114h-1.751v3.9h-2.2V10.354h3.962a4.483,4.483,0,0,1,2.916.842,2.911,2.911,0,0,1,1.025,2.381,3.286,3.286,0,0,1-.473,1.82,3.232,3.232,0,0,1-1.431,1.16l2.306,4.357v.1h-2.358Zm-1.751-1.78h1.772a1.81,1.81,0,0,0,1.282-.422,1.507,1.507,0,0,0,.455-1.16,1.615,1.615,0,0,0-.429-1.187,1.788,1.788,0,0,0-1.315-.432h-1.765Z"/><path class="cls-10" d="M289.225,15.927a6.437,6.437,0,0,1-.557,2.761,4.2,4.2,0,0,1-1.593,1.832,4.709,4.709,0,0,1-4.742.007,4.234,4.234,0,0,1-1.611-1.82,6.242,6.242,0,0,1-.579-2.721v-.528a6.413,6.413,0,0,1,.567-2.772,4.229,4.229,0,0,1,1.6-1.838,4.7,4.7,0,0,1,4.739,0,4.229,4.229,0,0,1,1.6,1.838,6.4,6.4,0,0,1,.568,2.766ZM287,15.444a4.483,4.483,0,0,0-.6-2.549,2.122,2.122,0,0,0-3.419-.012,4.428,4.428,0,0,0-.609,2.524v.52a4.536,4.536,0,0,0,.6,2.534,2.1,2.1,0,0,0,3.427.033,4.511,4.511,0,0,0,.6-2.531Z"/><path class="cls-10" d="M305.485,21.018h-2.2v-4.57H299v4.57h-2.2V10.354H299v4.32h4.284v-4.32h2.2Z"/><path class="cls-10" d="M317.29,15.927a6.422,6.422,0,0,1-.557,2.761,4.2,4.2,0,0,1-1.592,1.832,4.711,4.711,0,0,1-4.743.007,4.234,4.234,0,0,1-1.611-1.82,6.256,6.256,0,0,1-.579-2.721v-.528a6.413,6.413,0,0,1,.567-2.772,4.225,4.225,0,0,1,1.605-1.838,4.7,4.7,0,0,1,4.738,0,4.225,4.225,0,0,1,1.605,1.838,6.4,6.4,0,0,1,.567,2.766Zm-2.227-.483a4.492,4.492,0,0,0-.6-2.549,2.123,2.123,0,0,0-3.42-.012,4.429,4.429,0,0,0-.608,2.524v.52a4.545,4.545,0,0,0,.6,2.534,2.1,2.1,0,0,0,3.428.033,4.511,4.511,0,0,0,.6-2.531Z"/><path class="cls-10" d="M320.012,21.018V10.354h3.281a4.989,4.989,0,0,1,2.516.633,4.419,4.419,0,0,1,1.732,1.8,5.556,5.556,0,0,1,.622,2.655v.49a5.566,5.566,0,0,1-.611,2.644,4.376,4.376,0,0,1-1.725,1.8,5.041,5.041,0,0,1-2.512.645Zm2.2-8.885v7.119h1.062a2.387,2.387,0,0,0,1.97-.842,3.81,3.81,0,0,0,.7-2.41v-.564a3.873,3.873,0,0,0-.674-2.465,2.379,2.379,0,0,0-1.97-.838Z"/><path class="cls-10" d="M339.557,21.018h-2.2L333.082,14v7.018h-2.2V10.354h2.2l4.284,7.031V10.354h2.191Z"/><path class="cls-10" d="M351.361,15.927a6.437,6.437,0,0,1-.556,2.761,4.2,4.2,0,0,1-1.593,1.832,4.709,4.709,0,0,1-4.742.007,4.229,4.229,0,0,1-1.612-1.82,6.27,6.27,0,0,1-.579-2.721v-.528a6.413,6.413,0,0,1,.568-2.772,4.229,4.229,0,0,1,1.6-1.838,4.7,4.7,0,0,1,4.738,0,4.225,4.225,0,0,1,1.6,1.838,6.4,6.4,0,0,1,.567,2.766Zm-2.226-.483a4.483,4.483,0,0,0-.6-2.549,2.123,2.123,0,0,0-3.42-.012,4.437,4.437,0,0,0-.608,2.524v.52a4.545,4.545,0,0,0,.6,2.534,1.953,1.953,0,0,0,1.729.9,1.933,1.933,0,0,0,1.7-.868,4.511,4.511,0,0,0,.6-2.531Z"/><path class="cls-10" d="M361.487,12.133h-3.266v8.885h-2.2V12.133H352.8V10.354h8.686Z"/><path class="cls-10" d="M366.2,21.018h-2.2V10.354h2.2Zm-.681-13.543h2.306L365.8,9.745h-1.722Z"/><path class="cls-10" d="M377.734,17.465a3.773,3.773,0,0,1-1.271,2.71,4.466,4.466,0,0,1-3.022.989,4.013,4.013,0,0,1-3.225-1.38,5.66,5.66,0,0,1-1.176-3.791v-.652a6.4,6.4,0,0,1,.542-2.71,4.068,4.068,0,0,1,1.549-1.8,4.845,4.845,0,0,1,5.314.364,4.056,4.056,0,0,1,1.3,2.775h-2.2a2.237,2.237,0,0,0-.574-1.5,2.137,2.137,0,0,0-1.506-.465,1.869,1.869,0,0,0-1.644.787,4.411,4.411,0,0,0-.56,2.444v.8a4.723,4.723,0,0,0,.523,2.527,1.83,1.83,0,0,0,1.651.8,2.173,2.173,0,0,0,1.521-.464,2.111,2.111,0,0,0,.575-1.44Z"/><path class="cls-10" d="M382.639,21.018h-2.2V10.354h2.2Zm-.682-13.543h2.307l-2.029,2.27h-1.721Z"/><path class="cls-10" d="M392.989,19.252h5.376v1.766h-8.122V19.729l5.274-7.6H390.25V10.354h8v1.26Z"/><path class="cls-10" d="M403.071,17.26v3.758h-2.2V10.354h4.16a4.812,4.812,0,0,1,2.113.439,3.24,3.24,0,0,1,1.4,1.248,3.488,3.488,0,0,1,.491,1.842,3.066,3.066,0,0,1-1.073,2.473,4.472,4.472,0,0,1-2.97.9Zm0-1.779h1.963a1.929,1.929,0,0,0,1.329-.41,1.49,1.49,0,0,0,.458-1.172,1.753,1.753,0,0,0-.462-1.268,1.721,1.721,0,0,0-1.273-.5h-2.015Z"/><path class="cls-10" d="M415.622,17.114h-1.751v3.9h-2.2V10.354h3.962a4.482,4.482,0,0,1,2.916.842,2.911,2.911,0,0,1,1.025,2.381,3.3,3.3,0,0,1-.472,1.82,3.235,3.235,0,0,1-1.432,1.16l2.307,4.357v.1h-2.359Zm-1.751-1.78h1.773a1.809,1.809,0,0,0,1.281-.422,1.5,1.5,0,0,0,.455-1.16,1.615,1.615,0,0,0-.429-1.187,1.786,1.786,0,0,0-1.315-.432h-1.765Z"/><path class="cls-10" d="M428.393,18.821H424.54l-.732,2.2h-2.337l3.97-10.664h2.036l3.992,10.664h-2.336Zm-3.26-1.781H427.8l-1.34-3.991Zm1.78-9.544h2.308l-2.03,2.272h-1.72Z"/><path class="cls-10" d="M436.966,18.373l2.417-8.019h2.446l-3.713,10.664h-2.293l-3.7-10.664h2.439Z"/><path class="cls-10" d="M452.029,10.354v7.023a3.6,3.6,0,0,1-1.094,2.769,4.924,4.924,0,0,1-5.958.029,3.535,3.535,0,0,1-1.122-2.718v-7.1h2.2v7.038a2.025,2.025,0,0,0,.5,1.526,1.92,1.92,0,0,0,1.387.481q1.854,0,1.882-1.948v-7.1Z"/><path class="cls-10" d="M462.153,21.018h-2.2V10.354h2.2Z"/><path class="cls-10" d="M467.512,17.26v3.758h-2.2V10.354h4.161a4.815,4.815,0,0,1,2.113.439,3.243,3.243,0,0,1,1.4,1.248,3.488,3.488,0,0,1,.491,1.842,3.066,3.066,0,0,1-1.073,2.473,4.472,4.472,0,0,1-2.97.9Zm0-1.779h1.963a1.931,1.931,0,0,0,1.329-.41,1.493,1.493,0,0,0,.458-1.172,1.757,1.757,0,0,0-.462-1.268,1.725,1.725,0,0,0-1.274-.5h-2.014Z"/><path class="cls-10" d="M484.486,17.465a3.773,3.773,0,0,1-1.271,2.71,4.466,4.466,0,0,1-3.022.989,4.013,4.013,0,0,1-3.225-1.38,5.66,5.66,0,0,1-1.176-3.791v-.652a6.4,6.4,0,0,1,.542-2.71,4.068,4.068,0,0,1,1.549-1.8,4.845,4.845,0,0,1,5.314.364,4.056,4.056,0,0,1,1.3,2.775h-2.2a2.237,2.237,0,0,0-.574-1.5,2.139,2.139,0,0,0-1.506-.465,1.869,1.869,0,0,0-1.644.787,4.411,4.411,0,0,0-.56,2.444v.8a4.723,4.723,0,0,0,.523,2.527,1.83,1.83,0,0,0,1.651.8,2.173,2.173,0,0,0,1.521-.464,2.111,2.111,0,0,0,.575-1.44Z"/><path class="cls-10" d="M495.426,17.465a3.774,3.774,0,0,1-1.272,2.71,4.461,4.461,0,0,1-3.021.989,4.016,4.016,0,0,1-3.226-1.38,5.66,5.66,0,0,1-1.176-3.791v-.652a6.4,6.4,0,0,1,.542-2.71,4.075,4.075,0,0,1,1.549-1.8,4.846,4.846,0,0,1,5.315.364,4.055,4.055,0,0,1,1.3,2.775h-2.2a2.237,2.237,0,0,0-.574-1.5,2.137,2.137,0,0,0-1.506-.465,1.868,1.868,0,0,0-1.643.787,4.41,4.41,0,0,0-.561,2.444v.8a4.733,4.733,0,0,0,.523,2.527,1.832,1.832,0,0,0,1.652.8,2.17,2.17,0,0,0,1.52-.464,2.111,2.111,0,0,0,.576-1.44Z"/><path class="cls-10" d="M510.441,12.133h-3.266v8.885h-2.2V12.133h-3.223V10.354h8.686Z"/><path class="cls-10" d="M516.876,18.373l2.417-8.019h2.446l-3.713,10.664h-2.293l-3.7-10.664h2.44Z"/><path class="cls-10" d="M532.533,15.927a6.437,6.437,0,0,1-.556,2.761,4.208,4.208,0,0,1-1.593,1.832,4.709,4.709,0,0,1-4.742.007,4.229,4.229,0,0,1-1.612-1.82,6.256,6.256,0,0,1-.579-2.721v-.528a6.413,6.413,0,0,1,.568-2.772,4.223,4.223,0,0,1,1.6-1.838,4.7,4.7,0,0,1,4.738,0,4.225,4.225,0,0,1,1.605,1.838,6.4,6.4,0,0,1,.567,2.766Zm-2.226-.483a4.491,4.491,0,0,0-.6-2.549,2.123,2.123,0,0,0-3.42-.012,4.437,4.437,0,0,0-.608,2.524v.52a4.545,4.545,0,0,0,.6,2.534,1.953,1.953,0,0,0,1.729.9,1.933,1.933,0,0,0,1.7-.868,4.511,4.511,0,0,0,.6-2.531Z"/><path class="cls-10" d="M539.2,17.114h-1.751v3.9h-2.2V10.354h3.962a4.482,4.482,0,0,1,2.916.842,2.911,2.911,0,0,1,1.025,2.381,3.3,3.3,0,0,1-.472,1.82,3.235,3.235,0,0,1-1.432,1.16l2.307,4.357v.1H541.2Zm-.52-8.577,1.069-1.047h1.809v.081l-2.211,2.057h-1.341L535.8,7.555V7.49h1.809Zm-1.231,6.8h1.773a1.809,1.809,0,0,0,1.281-.422,1.5,1.5,0,0,0,.455-1.16,1.615,1.615,0,0,0-.429-1.187,1.786,1.786,0,0,0-1.315-.432h-1.765Z"/><path class="cls-10" d="M548.289,21.018h-2.2V10.354h2.2Zm-.682-13.543h2.307l-2.028,2.27h-1.722Z"/><line class="cls-11" x1="216.912" y1="28.723" x2="523.088" y2="28.723"/></svg>