<svg id="Layer_1" data-name="Layer 1" xmlns="http://www.w3.org/2000/svg" viewBox="0 0 740 136.043"><defs><style>.cls-1{fill:#586c80;}.cls-12,.cls-2,.cls-3,.cls-4,.cls-7,.cls-8{fill:none;}.cls-2{stroke:#8395a7;stroke-width:3.358px;opacity:0.5;}.cls-12,.cls-2,.cls-3,.cls-7,.cls-8{stroke-miterlimit:10;}.cls-3,.cls-7,.cls-8{stroke:#000;stroke-linecap:round;}.cls-3{stroke-width:0.68px;}.cls-5{fill:#f79219;}.cls-5,.cls-6,.cls-9{opacity:0.1;}.cls-6{fill:#00997f;}.cls-7,.cls-8{stroke-width:0.638px;}.cls-8{fill-rule:evenodd;}.cls-9{fill:#ed2112;}.cls-10{fill:#eaeaf4;}.cls-11{opacity:0.6;}.cls-12{stroke:#606060;}.cls-13{fill:#606060;}</style></defs><path class="cls-1" d="M192.785,28.017h5.375v1.765h-8.121V28.493l5.273-7.595h-5.267v-1.78h8v1.26Z"/><path class="cls-1" d="M206.785,27.585h-3.852l-.732,2.2h-2.338l3.971-10.664h2.035l3.992,10.664h-2.336Zm-3.26-1.78h2.666l-1.34-3.992Zm1.781-9.544h2.307l-2.029,2.271h-1.721Z"/><path class="cls-1" d="M215.322,25.505l-1.143,1.23v3.047h-2.2V19.118h2.2v4.834l.967-1.326,2.719-3.508h2.7l-3.785,4.739,3.9,5.925h-2.615Z"/><path class="cls-1" d="M224.826,28.017h4.666v1.765h-6.863V19.118h2.2Z"/><path class="cls-1" d="M238.037,27.585h-3.854l-.732,2.2h-2.336l3.971-10.664h2.035l3.992,10.664h-2.336Zm-3.26-1.78h2.666l-1.34-3.992Z"/><path class="cls-1" d="M243.234,29.782V19.118h3.281a4.977,4.977,0,0,1,2.516.634,4.423,4.423,0,0,1,1.732,1.8,5.57,5.57,0,0,1,.621,2.655V24.7a5.571,5.571,0,0,1-.611,2.644,4.365,4.365,0,0,1-1.724,1.794,5.026,5.026,0,0,1-2.512.645Zm2.2-8.884v7.119h1.061a2.387,2.387,0,0,0,1.971-.843,3.8,3.8,0,0,0,.695-2.409V24.2a3.871,3.871,0,0,0-.674-2.465,2.375,2.375,0,0,0-1.969-.838Z"/><path class="cls-1" d="M261.164,26.025v3.757h-2.2V19.118h4.16a4.812,4.812,0,0,1,2.113.439,3.24,3.24,0,0,1,1.4,1.249,3.477,3.477,0,0,1,.492,1.842,3.064,3.064,0,0,1-1.074,2.472,4.466,4.466,0,0,1-2.968.9Zm0-1.78h1.963a1.932,1.932,0,0,0,1.33-.41,1.5,1.5,0,0,0,.457-1.172,1.756,1.756,0,0,0-.461-1.267,1.717,1.717,0,0,0-1.274-.5h-2.015Z"/><path class="cls-1" d="M273.717,25.878h-1.752v3.9h-2.2V19.118h3.963a4.487,4.487,0,0,1,2.916.842,2.912,2.912,0,0,1,1.026,2.38,3.291,3.291,0,0,1-.473,1.821,3.229,3.229,0,0,1-1.432,1.16l2.307,4.358v.1h-2.359Zm-1.752-1.78h1.773a1.812,1.812,0,0,0,1.281-.421,1.5,1.5,0,0,0,.455-1.161,1.613,1.613,0,0,0-.429-1.186,1.784,1.784,0,0,0-1.315-.432h-1.765Z"/><path class="cls-1" d="M289.224,24.692a6.44,6.44,0,0,1-.556,2.761,4.2,4.2,0,0,1-1.592,1.831,4.709,4.709,0,0,1-4.742.007,4.217,4.217,0,0,1-1.612-1.82,6.278,6.278,0,0,1-.58-2.721v-.527a6.393,6.393,0,0,1,.569-2.772,4.23,4.23,0,0,1,1.6-1.839,4.7,4.7,0,0,1,4.738,0,4.229,4.229,0,0,1,1.606,1.839,6.4,6.4,0,0,1,.566,2.764ZM287,24.208a4.484,4.484,0,0,0-.6-2.549,2.122,2.122,0,0,0-3.42-.011,4.434,4.434,0,0,0-.609,2.524v.52a4.549,4.549,0,0,0,.6,2.534,1.955,1.955,0,0,0,1.729.9,1.934,1.934,0,0,0,1.7-.869,4.51,4.51,0,0,0,.6-2.53Z"/><path class="cls-1" d="M305.486,29.782h-2.2v-4.57H299v4.57h-2.2V19.118H299v4.321h4.285V19.118h2.2Z"/><path class="cls-1" d="M317.291,24.692a6.44,6.44,0,0,1-.557,2.761,4.188,4.188,0,0,1-1.594,1.831,4.709,4.709,0,0,1-4.742.007,4.234,4.234,0,0,1-1.611-1.82,6.235,6.235,0,0,1-.578-2.721v-.527a6.422,6.422,0,0,1,.566-2.772,4.229,4.229,0,0,1,1.606-1.839,4.7,4.7,0,0,1,4.738,0,4.23,4.23,0,0,1,1.6,1.839,6.375,6.375,0,0,1,.569,2.764Zm-2.227-.484a4.491,4.491,0,0,0-.6-2.549,2.122,2.122,0,0,0-3.42-.011,4.426,4.426,0,0,0-.608,2.524v.52a4.541,4.541,0,0,0,.6,2.534,1.952,1.952,0,0,0,1.728.9,1.931,1.931,0,0,0,1.7-.869,4.518,4.518,0,0,0,.6-2.53Z"/><path class="cls-1" d="M320.011,29.782V19.118h3.282a4.97,4.97,0,0,1,2.515.634,4.406,4.406,0,0,1,1.733,1.8,5.547,5.547,0,0,1,.623,2.655V24.7a5.56,5.56,0,0,1-.612,2.644,4.378,4.378,0,0,1-1.724,1.794,5.02,5.02,0,0,1-2.512.645Zm2.2-8.884v7.119h1.062a2.387,2.387,0,0,0,1.971-.843,3.811,3.811,0,0,0,.695-2.409V24.2a3.865,3.865,0,0,0-.674-2.465,2.376,2.376,0,0,0-1.97-.838Z"/><path class="cls-1" d="M339.556,29.782h-2.2l-4.277-7.017v7.017h-2.2V19.118h2.2l4.285,7.031V19.118h2.189Z"/><path class="cls-1" d="M351.361,24.692a6.44,6.44,0,0,1-.557,2.761,4.2,4.2,0,0,1-1.591,1.831,4.711,4.711,0,0,1-4.743.007,4.222,4.222,0,0,1-1.611-1.82,6.264,6.264,0,0,1-.58-2.721v-.527a6.393,6.393,0,0,1,.568-2.772,4.225,4.225,0,0,1,1.6-1.839,4.7,4.7,0,0,1,4.738,0,4.229,4.229,0,0,1,1.606,1.839,6.4,6.4,0,0,1,.566,2.764Zm-2.227-.484a4.492,4.492,0,0,0-.6-2.549,2.122,2.122,0,0,0-3.42-.011,4.426,4.426,0,0,0-.609,2.524v.52a4.549,4.549,0,0,0,.6,2.534,1.955,1.955,0,0,0,1.729.9,1.935,1.935,0,0,0,1.7-.869,4.51,4.51,0,0,0,.6-2.53Z"/><path class="cls-1" d="M361.488,20.9H358.22v8.884h-2.2V20.9H352.8v-1.78h8.688Z"/><path class="cls-1" d="M366.2,29.782h-2.2V19.118h2.2Zm-.682-13.543h2.307L365.8,18.51h-1.721Z"/><path class="cls-1" d="M377.734,26.23a3.777,3.777,0,0,1-1.271,2.71,4.465,4.465,0,0,1-3.022.988,4.006,4.006,0,0,1-3.224-1.381,5.645,5.645,0,0,1-1.176-3.79v-.651a6.38,6.38,0,0,1,.541-2.71,4.069,4.069,0,0,1,1.549-1.8,4.842,4.842,0,0,1,5.314.363,4.054,4.054,0,0,1,1.3,2.776h-2.2a2.216,2.216,0,0,0-.574-1.5,2.132,2.132,0,0,0-1.506-.465,1.864,1.864,0,0,0-1.642.787A4.409,4.409,0,0,0,371.267,24v.806a4.717,4.717,0,0,0,.524,2.527,1.83,1.83,0,0,0,1.65.8,2.176,2.176,0,0,0,1.522-.465,2.1,2.1,0,0,0,.574-1.439Z"/><path class="cls-1" d="M382.638,29.782h-2.2V19.118h2.2Zm-.681-13.543h2.306l-2.027,2.271h-1.723Z"/><path class="cls-1" d="M392.99,28.017h5.375v1.765h-8.121V28.493l5.273-7.595H390.25v-1.78h8v1.26Z"/><path class="cls-1" d="M403.072,26.025v3.757h-2.2V19.118h4.16a4.815,4.815,0,0,1,2.113.439,3.245,3.245,0,0,1,1.4,1.249,3.486,3.486,0,0,1,.491,1.842,3.063,3.063,0,0,1-1.073,2.472,4.474,4.474,0,0,1-2.97.9Zm0-1.78h1.963a1.93,1.93,0,0,0,1.328-.41,1.487,1.487,0,0,0,.459-1.172,1.753,1.753,0,0,0-.463-1.267,1.715,1.715,0,0,0-1.273-.5h-2.014Z"/><path class="cls-1" d="M415.623,25.878h-1.752v3.9h-2.2V19.118h3.962a4.487,4.487,0,0,1,2.916.842,2.912,2.912,0,0,1,1.026,2.38,3.283,3.283,0,0,1-.473,1.821,3.231,3.231,0,0,1-1.431,1.16l2.306,4.358v.1h-2.359Zm-1.752-1.78h1.773a1.812,1.812,0,0,0,1.281-.421,1.5,1.5,0,0,0,.456-1.161,1.613,1.613,0,0,0-.43-1.186,1.782,1.782,0,0,0-1.315-.432h-1.765Z"/><path class="cls-1" d="M428.392,27.585h-3.851l-.733,2.2H421.47l3.971-10.664h2.035l3.992,10.664h-2.335Zm-3.259-1.78H427.8l-1.34-3.992Zm1.781-9.544h2.306l-2.029,2.271H425.47Z"/><path class="cls-1" d="M436.967,27.138l2.416-8.02h2.447l-3.713,10.664h-2.293l-3.7-10.664h2.439Z"/><path class="cls-1" d="M452.029,19.118v7.024a3.6,3.6,0,0,1-1.094,2.768,4.221,4.221,0,0,1-2.992,1.018,4.271,4.271,0,0,1-2.967-.988,3.543,3.543,0,0,1-1.121-2.718v-7.1h2.2v7.038a2.031,2.031,0,0,0,.5,1.527,1.921,1.921,0,0,0,1.389.48q1.851,0,1.881-1.948v-7.1Z"/><path class="cls-1" d="M462.154,29.782h-2.2V19.118h2.2Z"/><path class="cls-1" d="M467.511,26.025v3.757h-2.2V19.118h4.16a4.817,4.817,0,0,1,2.114.439,3.24,3.24,0,0,1,1.4,1.249,3.477,3.477,0,0,1,.492,1.842,3.064,3.064,0,0,1-1.074,2.472,4.467,4.467,0,0,1-2.969.9Zm0-1.78h1.963a1.93,1.93,0,0,0,1.33-.41,1.493,1.493,0,0,0,.457-1.172A1.751,1.751,0,0,0,470.8,21.4a1.714,1.714,0,0,0-1.273-.5h-2.016Z"/><path class="cls-1" d="M484.486,26.23a3.777,3.777,0,0,1-1.271,2.71,4.465,4.465,0,0,1-3.022.988,4.009,4.009,0,0,1-3.225-1.381,5.65,5.65,0,0,1-1.175-3.79v-.651a6.38,6.38,0,0,1,.541-2.71,4.069,4.069,0,0,1,1.549-1.8,4.842,4.842,0,0,1,5.314.363,4.054,4.054,0,0,1,1.3,2.776h-2.2a2.216,2.216,0,0,0-.574-1.5,2.132,2.132,0,0,0-1.506-.465,1.864,1.864,0,0,0-1.642.787A4.409,4.409,0,0,0,478.019,24v.806a4.717,4.717,0,0,0,.524,2.527,1.83,1.83,0,0,0,1.65.8,2.176,2.176,0,0,0,1.522-.465,2.1,2.1,0,0,0,.574-1.439Z"/><path class="cls-1" d="M495.425,26.23a3.769,3.769,0,0,1-1.271,2.71,4.463,4.463,0,0,1-3.021.988,4.007,4.007,0,0,1-3.225-1.381,5.65,5.65,0,0,1-1.176-3.79v-.651a6.4,6.4,0,0,1,.541-2.71,4.069,4.069,0,0,1,1.549-1.8,4.842,4.842,0,0,1,5.314.363,4.054,4.054,0,0,1,1.3,2.776h-2.2a2.221,2.221,0,0,0-.574-1.5,2.132,2.132,0,0,0-1.506-.465,1.866,1.866,0,0,0-1.643.787,4.4,4.4,0,0,0-.56,2.443v.806a4.728,4.728,0,0,0,.523,2.527,1.832,1.832,0,0,0,1.651.8,2.175,2.175,0,0,0,1.521-.465,2.1,2.1,0,0,0,.574-1.439Z"/><path class="cls-1" d="M510.441,20.9h-3.266v8.884h-2.2V20.9h-3.222v-1.78h8.685Z"/><path class="cls-1" d="M516.877,27.138l2.416-8.02h2.447l-3.713,10.664h-2.293l-3.7-10.664h2.439Z"/><path class="cls-1" d="M532.533,24.692a6.44,6.44,0,0,1-.557,2.761,4.2,4.2,0,0,1-1.592,1.831,4.709,4.709,0,0,1-4.742.007,4.222,4.222,0,0,1-1.611-1.82,6.264,6.264,0,0,1-.58-2.721v-.527a6.393,6.393,0,0,1,.568-2.772,4.225,4.225,0,0,1,1.6-1.839,4.7,4.7,0,0,1,4.738,0,4.236,4.236,0,0,1,1.606,1.839,6.418,6.418,0,0,1,.566,2.764Zm-2.227-.484a4.492,4.492,0,0,0-.6-2.549,2.122,2.122,0,0,0-3.42-.011,4.426,4.426,0,0,0-.61,2.524v.52a4.549,4.549,0,0,0,.6,2.534,2.1,2.1,0,0,0,3.428.032,4.519,4.519,0,0,0,.6-2.53Z"/><path class="cls-1" d="M539.2,25.878h-1.752v3.9h-2.2V19.118h3.963a4.491,4.491,0,0,1,2.916.842,2.915,2.915,0,0,1,1.025,2.38,3.283,3.283,0,0,1-.473,1.821,3.231,3.231,0,0,1-1.431,1.16l2.306,4.358v.1H541.2Zm-.522-8.577,1.071-1.047h1.808v.081l-2.211,2.058h-1.341L535.8,16.32v-.066h1.808Zm-1.23,6.8h1.773a1.816,1.816,0,0,0,1.282-.421,1.508,1.508,0,0,0,.455-1.161,1.613,1.613,0,0,0-.43-1.186,1.781,1.781,0,0,0-1.314-.432h-1.766Z"/><path class="cls-1" d="M548.289,29.782h-2.2V19.118h2.2Zm-.682-13.543h2.307l-2.028,2.271h-1.722Z"/><line class="cls-2" x1="178.164" y1="37.847" x2="561.836" y2="37.847"/><path d="M18.365,64.975l-1.047,1.111v2.882H15.712V59.726h1.606v4.335l.889-1.1,2.7-3.237h1.943L19.419,63.82l3.631,5.148H21.145Z"/><path d="M26.049,68.968H24.506v-9.75h1.543Z"/><path d="M28.381,60.316a.817.817,0,0,1,.224-.59,1.005,1.005,0,0,1,1.292,0,.808.808,0,0,1,.229.59.792.792,0,0,1-.229.581,1.015,1.015,0,0,1-1.292,0A.8.8,0,0,1,28.381,60.316Zm1.636,8.652H28.475V62.1h1.542Z"/><path d="M33.8,62.1l.044.717a2.469,2.469,0,0,1,1.98-.844,1.9,1.9,0,0,1,1.886,1.054,2.435,2.435,0,0,1,2.107-1.054,2.147,2.147,0,0,1,1.693.628,2.777,2.777,0,0,1,.567,1.854v4.513H40.533V64.5a1.366,1.366,0,0,0-.286-.958,1.254,1.254,0,0,0-.947-.3,1.282,1.282,0,0,0-.859.283,1.481,1.481,0,0,0-.467.739l.006,4.71H36.438v-4.52A1.1,1.1,0,0,0,35.2,63.236a1.36,1.36,0,0,0-1.315.755v4.977H32.343V62.1Z"/><path d="M48.412,68.968a2.375,2.375,0,0,1-.178-.641,2.594,2.594,0,0,1-3.49.178,1.887,1.887,0,0,1-.654-1.46,1.948,1.948,0,0,1,.815-1.685,3.948,3.948,0,0,1,2.333-.588h.945v-.451a1.2,1.2,0,0,0-.3-.853,1.179,1.179,0,0,0-.907-.321,1.361,1.361,0,0,0-.863.263.815.815,0,0,0-.337.67H44.236a1.712,1.712,0,0,1,.374-1.056,2.479,2.479,0,0,1,1.019-.772,3.58,3.58,0,0,1,1.437-.279,2.884,2.884,0,0,1,1.924.606,2.159,2.159,0,0,1,.736,1.7v3.1a3.518,3.518,0,0,0,.26,1.479v.108Zm-1.7-1.111a1.762,1.762,0,0,0,.861-.222,1.475,1.475,0,0,0,.6-.6v-1.3h-.831a2.269,2.269,0,0,0-1.288.3.964.964,0,0,0-.431.844.9.9,0,0,0,.294.708A1.146,1.146,0,0,0,46.717,67.857Z"/><path d="M53.925,60.43V62.1h1.211v1.142H53.925v3.834a.845.845,0,0,0,.155.569.721.721,0,0,0,.555.174,2.4,2.4,0,0,0,.54-.063v1.193a3.811,3.811,0,0,1-1.015.146q-1.779,0-1.777-1.962V63.242H51.252V62.1h1.131V60.43Z"/><path d="M56.967,60.316a.818.818,0,0,1,.226-.59,1,1,0,0,1,1.291,0,.812.812,0,0,1,.229.59.8.8,0,0,1-.229.581,1.014,1.014,0,0,1-1.291,0A.8.8,0,0,1,56.967,60.316Zm1.638,8.652H57.062V62.1h1.543Z"/><path d="M63.756,67.863a1.4,1.4,0,0,0,.959-.336,1.155,1.155,0,0,0,.406-.832h1.453a2.271,2.271,0,0,1-.4,1.2,2.619,2.619,0,0,1-1.016.879,3.023,3.023,0,0,1-1.383.324,2.926,2.926,0,0,1-2.285-.933,3.7,3.7,0,0,1-.845-2.577v-.159a3.645,3.645,0,0,1,.838-2.511,2.9,2.9,0,0,1,2.285-.942,2.823,2.823,0,0,1,2,.714,2.556,2.556,0,0,1,.809,1.876H65.121a1.423,1.423,0,0,0-.4-.972,1.3,1.3,0,0,0-.961-.38,1.36,1.36,0,0,0-1.156.542,2.782,2.782,0,0,0-.413,1.648v.247a2.809,2.809,0,0,0,.405,1.667A1.354,1.354,0,0,0,63.756,67.863Z"/><path d="M70.621,66.023l-.686.7v2.241H68.392v-9.75h1.543v5.624l.483-.6,1.9-2.139h1.854l-2.552,2.863,2.824,4.005H72.658Z"/><path d="M78.227,66.759l1.4-4.659h1.643l-2.728,7.909a2.221,2.221,0,0,1-2.133,1.733,2.727,2.727,0,0,1-.743-.115v-1.2l.292.019a1.512,1.512,0,0,0,.879-.212,1.408,1.408,0,0,0,.466-.714l.223-.59L75.111,62.1h1.662Zm.521-7.541h1.758l-1.758,1.923-1.239,0Z"/><path d="M89.112,67.013,90.566,62.1h1.593l-2.38,6.868h-1.34L86.04,62.1h1.6Z"/><path d="M96.174,66.759l1.4-4.659h1.644l-2.73,7.909a2.219,2.219,0,0,1-2.133,1.733,2.732,2.732,0,0,1-.742-.115v-1.2l.291.019a1.509,1.509,0,0,0,.88-.212,1.408,1.408,0,0,0,.466-.714l.222-.59L93.056,62.1h1.663Zm.519-7.541h1.759l-1.759,1.923-1.237,0Z"/><path d="M102.4,67.736h3.656v1.232H100.48V67.959l3.485-4.615h-3.422V62.1h5.377v.977Z"/><path d="M110.169,66.023l-.686.7v2.241h-1.542v-9.75h1.542v5.624l.483-.6,1.9-2.139h1.854l-2.551,2.863,2.824,4.005h-1.783Z"/><path d="M119.534,68.3a2.393,2.393,0,0,1-1.93.8,2.13,2.13,0,0,1-1.691-.654,2.776,2.776,0,0,1-.575-1.892V62.1h1.543v4.43q0,1.308,1.086,1.308a1.525,1.525,0,0,0,1.516-.806V62.1h1.542v6.868h-1.453Z"/><path d="M124.7,62.1l.045.717a2.469,2.469,0,0,1,1.98-.844,1.9,1.9,0,0,1,1.885,1.054,2.435,2.435,0,0,1,2.108-1.054,2.14,2.14,0,0,1,1.691.628,2.756,2.756,0,0,1,.568,1.854v4.513h-1.543V64.5a1.361,1.361,0,0,0-.285-.958,1.25,1.25,0,0,0-.945-.3,1.282,1.282,0,0,0-.861.283,1.493,1.493,0,0,0-.466.739l.007,4.71h-1.543v-4.52a1.1,1.1,0,0,0-1.239-1.212,1.359,1.359,0,0,0-1.313.755v4.977h-1.542V62.1Z"/><path d="M209.921,69.156l2.348-7.23h1.765l-3.326,9.243h-1.556l-3.312-9.243H207.6Z"/><path d="M217.672,71.3a3.19,3.19,0,0,1-2.378-.924,3.353,3.353,0,0,1-.911-2.46v-.19a4.113,4.113,0,0,1,.4-1.838,3.019,3.019,0,0,1,1.114-1.26,2.948,2.948,0,0,1,1.6-.451,2.7,2.7,0,0,1,2.167.895,3.78,3.78,0,0,1,.764,2.533v.622h-4.487a2.057,2.057,0,0,0,.569,1.346,1.7,1.7,0,0,0,1.252.495,2.087,2.087,0,0,0,1.727-.857l.832.794a2.783,2.783,0,0,1-1.1.955A3.454,3.454,0,0,1,217.672,71.3Zm-.3-8.9.927-.984h1.32v.064l-1.771,1.771H216.9l-1.758-1.778v-.057h1.308Zm.114,3.015a1.3,1.3,0,0,0-1.025.445,2.3,2.3,0,0,0-.5,1.237H218.9v-.114a1.87,1.87,0,0,0-.412-1.171A1.291,1.291,0,0,0,217.487,65.411Z"/><path d="M221.334,67.684a4.09,4.09,0,0,1,.736-2.549,2.358,2.358,0,0,1,1.975-.962,2.238,2.238,0,0,1,1.763.762V61.419h1.543v9.75h-1.4l-.076-.711a2.277,2.277,0,0,1-1.848.838,2.343,2.343,0,0,1-1.951-.972A4.225,4.225,0,0,1,221.334,67.684Zm1.543.133a2.86,2.86,0,0,0,.4,1.635,1.31,1.31,0,0,0,1.146.587,1.456,1.456,0,0,0,1.383-.845V66.262a1.434,1.434,0,0,0-1.371-.825,1.314,1.314,0,0,0-1.154.593A3.177,3.177,0,0,0,222.877,67.817Z"/><path d="M231.782,70.064a1.393,1.393,0,0,0,.958-.336,1.146,1.146,0,0,0,.406-.832H234.6a2.261,2.261,0,0,1-.4,1.2,2.627,2.627,0,0,1-1.016.88,3.023,3.023,0,0,1-1.385.324,2.929,2.929,0,0,1-2.285-.934,3.7,3.7,0,0,1-.843-2.577v-.158a3.643,3.643,0,0,1,.837-2.511,2.905,2.905,0,0,1,2.286-.943,2.827,2.827,0,0,1,2,.714,2.563,2.563,0,0,1,.809,1.876h-1.454a1.407,1.407,0,0,0-.4-.971,1.3,1.3,0,0,0-.962-.381,1.357,1.357,0,0,0-1.155.543,2.753,2.753,0,0,0-.412,1.647v.248a2.814,2.814,0,0,0,.4,1.666A1.357,1.357,0,0,0,231.782,70.064Z"/><path d="M235.768,62.517a.818.818,0,0,1,.226-.591.852.852,0,0,1,.644-.234.861.861,0,0,1,.647.234.816.816,0,0,1,.228.591.792.792,0,0,1-.228.58.864.864,0,0,1-.647.232.855.855,0,0,1-.644-.232A.794.794,0,0,1,235.768,62.517Zm1.638,8.652h-1.543V64.3h1.543Z"/><path d="M207.407,78.3l.025,1.118a2.544,2.544,0,0,1,.952-.933,2.608,2.608,0,0,1,1.27-.312,1.927,1.927,0,0,1,2.063,1.333,2.591,2.591,0,0,1,.984-.987,2.73,2.73,0,0,1,1.358-.346q2.21,0,2.253,2.413v4.583h-.762V80.643a2.042,2.042,0,0,0-.4-1.365,1.614,1.614,0,0,0-1.272-.444,2.021,2.021,0,0,0-1.384.53,1.876,1.876,0,0,0-.629,1.26v4.545h-.762V80.586a1.877,1.877,0,0,0-.416-1.318,1.653,1.653,0,0,0-1.26-.434,1.912,1.912,0,0,0-1.23.409,2.386,2.386,0,0,0-.762,1.216v4.71h-.762V78.3Z"/><path d="M220.9,85.3a2.981,2.981,0,0,1-1.584-.432,2.933,2.933,0,0,1-1.1-1.2,3.756,3.756,0,0,1-.394-1.73v-.273a4.036,4.036,0,0,1,.384-1.783,3.052,3.052,0,0,1,1.07-1.247,2.633,2.633,0,0,1,1.485-.455,2.481,2.481,0,0,1,1.984.854,3.467,3.467,0,0,1,.732,2.333v.425h-4.9v.146a2.878,2.878,0,0,0,.67,1.946,2.131,2.131,0,0,0,1.685.777A2.482,2.482,0,0,0,222,84.432a2.392,2.392,0,0,0,.847-.711l.476.362A2.773,2.773,0,0,1,220.9,85.3Zm-.14-6.475a1.9,1.9,0,0,0-1.444.628,2.91,2.91,0,0,0-.715,1.689h4.12v-.083a2.511,2.511,0,0,0-.565-1.612A1.748,1.748,0,0,0,220.756,78.821Zm.076-2.082,1.092-1.232h.679v.077l-1.5,1.656h-.546l-1.5-1.663v-.07h.679Z"/><path d="M226.564,76.739l1.092-1.232h.68v.077l-1.5,1.656h-.547l-1.5-1.663v-.07h.679Zm1.562,2.209a2.805,2.805,0,0,0-.515-.045,1.853,1.853,0,0,0-1.2.4,2.179,2.179,0,0,0-.7,1.152v4.717h-.755V78.3h.743l.012,1.092a2.021,2.021,0,0,1,1.936-1.219,1.242,1.242,0,0,1,.5.083Z"/><path d="M230.556,75.5h.921l-1.466,1.777-.667,0Zm-.392,9.674H229.4V78.3h.762Z"/><path d="M232.061,86.9l-.45-.33a2.759,2.759,0,0,0,.6-1.606v-.984h.743v.794A2.731,2.731,0,0,1,232.061,86.9Z"/><path d="M241.982,83.423a1.082,1.082,0,0,0-.453-.908,3.513,3.513,0,0,0-1.368-.536,6.164,6.164,0,0,1-1.419-.444,1.892,1.892,0,0,1-.748-.613,1.519,1.519,0,0,1-.245-.876,1.635,1.635,0,0,1,.678-1.342,2.747,2.747,0,0,1,1.741-.531,2.819,2.819,0,0,1,1.843.569,1.823,1.823,0,0,1,.7,1.482h-.762a1.226,1.226,0,0,0-.506-1,2.276,2.276,0,0,0-2.474-.067,1.03,1.03,0,0,0-.455.867.936.936,0,0,0,.378.8,3.99,3.99,0,0,0,1.377.518,6.442,6.442,0,0,1,1.5.5,1.964,1.964,0,0,1,.741.641,1.766,1.766,0,0,1-.461,2.3,3,3,0,0,1-1.831.521,3.078,3.078,0,0,1-1.947-.582,1.787,1.787,0,0,1-.745-1.469h.762a1.322,1.322,0,0,0,.561,1.038,2.3,2.3,0,0,0,1.369.371,2.158,2.158,0,0,0,1.282-.349A1.047,1.047,0,0,0,241.982,83.423Z"/><path d="M245.207,79.462a2.681,2.681,0,0,1,.959-.952,2.509,2.509,0,0,1,1.275-.337,2.063,2.063,0,0,1,1.645.623,2.811,2.811,0,0,1,.546,1.866v4.507h-.755V80.655a2.1,2.1,0,0,0-.391-1.371,1.531,1.531,0,0,0-1.228-.45,1.923,1.923,0,0,0-1.248.441,2.582,2.582,0,0,0-.8,1.19v4.7h-.755v-9.75h.755Z"/><path d="M254.76,78.948a2.8,2.8,0,0,0-.514-.045,1.853,1.853,0,0,0-1.2.4,2.179,2.179,0,0,0-.7,1.152v4.717h-.755V78.3h.743l.012,1.092a2.02,2.02,0,0,1,1.936-1.219,1.242,1.242,0,0,1,.5.083Z"/><path d="M255.414,81.633a4.044,4.044,0,0,1,.385-1.784,2.887,2.887,0,0,1,2.675-1.676,2.823,2.823,0,0,1,2.221.962,3.707,3.707,0,0,1,.852,2.549v.158a4.071,4.071,0,0,1-.385,1.793,2.868,2.868,0,0,1-1.082,1.229,2.964,2.964,0,0,1-1.594.432,2.833,2.833,0,0,1-2.219-.962,3.7,3.7,0,0,1-.853-2.549Zm.761.209a3.112,3.112,0,0,0,.639,2.022,2.158,2.158,0,0,0,3.338,0,3.214,3.214,0,0,0,.639-2.085v-.146a3.5,3.5,0,0,0-.292-1.441,2.352,2.352,0,0,0-.82-1.013,2.1,2.1,0,0,0-1.2-.358,2.03,2.03,0,0,0-1.657.8,3.226,3.226,0,0,0-.642,2.085Z"/><path d="M263.806,78.3l.026,1.118a2.534,2.534,0,0,1,.951-.933,2.607,2.607,0,0,1,1.269-.312,1.928,1.928,0,0,1,2.064,1.333,2.582,2.582,0,0,1,.983-.987,2.737,2.737,0,0,1,1.36-.346q2.208,0,2.253,2.413v4.583h-.762V80.643a2.052,2.052,0,0,0-.4-1.365,1.614,1.614,0,0,0-1.272-.444,2.022,2.022,0,0,0-1.385.53,1.874,1.874,0,0,0-.628,1.26v4.545h-.761V80.586a1.886,1.886,0,0,0-.416-1.318,1.658,1.658,0,0,0-1.26-.434,1.918,1.918,0,0,0-1.232.409,2.4,2.4,0,0,0-.761,1.216v4.71h-.762V78.3Z"/><path d="M278.97,85.169a3.6,3.6,0,0,1-.146-.959,2.643,2.643,0,0,1-1.018.8,3.129,3.129,0,0,1-1.311.283,2.3,2.3,0,0,1-1.6-.553,1.8,1.8,0,0,1-.613-1.4,1.837,1.837,0,0,1,.836-1.587,4.01,4.01,0,0,1,2.326-.584h1.377V80.4a1.5,1.5,0,0,0-.453-1.158,1.875,1.875,0,0,0-1.324-.422,2.073,2.073,0,0,0-1.315.406,1.209,1.209,0,0,0-.519.977l-.762-.006a1.767,1.767,0,0,1,.762-1.419,2.936,2.936,0,0,1,1.872-.6,2.67,2.67,0,0,1,1.811.575,2.061,2.061,0,0,1,.684,1.6V83.6a4.022,4.022,0,0,0,.209,1.491v.077Zm-2.386-.546a2.552,2.552,0,0,0,1.361-.368,2.172,2.172,0,0,0,.873-.984V81.76H277.46a3.409,3.409,0,0,0-1.778.415,1.252,1.252,0,0,0-.641,1.108,1.224,1.224,0,0,0,.429.959A1.614,1.614,0,0,0,276.584,84.623Z"/><path d="M282.1,84.527h4.463v.642h-5.4V84.61l4.164-5.649h-4.037V78.3h5v.571Zm1.752-7.794,1.092-1.232h.68v.076l-1.5,1.657h-.546l-1.5-1.663V75.5h.678Z"/><path d="M287.514,81.671a4.145,4.145,0,0,1,.714-2.548,2.3,2.3,0,0,1,1.94-.95,2.391,2.391,0,0,1,2.12,1.1V75.419h.755v9.75h-.711l-.032-.914a2.453,2.453,0,0,1-2.145,1.041,2.29,2.29,0,0,1-1.914-.956,4.164,4.164,0,0,1-.727-2.58Zm.769.133a3.593,3.593,0,0,0,.526,2.073,1.706,1.706,0,0,0,1.486.758,2.044,2.044,0,0,0,1.993-1.237V80.173a2.03,2.03,0,0,0-1.981-1.339,1.725,1.725,0,0,0-1.491.752A3.832,3.832,0,0,0,288.283,81.8Zm5.808-4.119-.451-.33a2.4,2.4,0,0,0,.457-1.333v-.61h.73v.4A2.385,2.385,0,0,1,294.091,77.685Z"/><path d="M300.413,84.3a2.468,2.468,0,0,1-2.191,1,2.127,2.127,0,0,1-1.669-.638,2.8,2.8,0,0,1-.584-1.889V78.3h.755v4.374q0,1.962,1.588,1.961a1.945,1.945,0,0,0,2.088-1.364V78.3h.762v6.869h-.737Z"/><path d="M303.955,78.3v7.687a2.09,2.09,0,0,1-.457,1.454,1.729,1.729,0,0,1-1.346.5,1.922,1.922,0,0,1-.666-.12l.012-.623a2.008,2.008,0,0,0,.572.082q1.129,0,1.129-1.3V78.3Zm-.375-2.494a.5.5,0,0,1,.387.148.511.511,0,0,1,.14.363.5.5,0,0,1-.14.359.508.508,0,0,1-.387.145.492.492,0,0,1-.377-.145.5.5,0,0,1-.137-.359.513.513,0,0,1,.137-.363A.487.487,0,0,1,303.58,75.806Z"/><path d="M307.332,75.5h.92l-1.466,1.777-.667,0Zm-.394,9.674h-.762V78.3h.762Z"/><path d="M206.41,95.671a4.132,4.132,0,0,1,.715-2.548,2.3,2.3,0,0,1,1.939-.95,2.388,2.388,0,0,1,2.119,1.1V89.419h.756v9.75h-.711l-.031-.914A2.457,2.457,0,0,1,209.05,99.3a2.293,2.293,0,0,1-1.914-.956,4.164,4.164,0,0,1-.726-2.58Zm.768.133a3.586,3.586,0,0,0,.527,2.073,1.7,1.7,0,0,0,1.486.758,2.041,2.041,0,0,0,1.992-1.237V94.173a2.026,2.026,0,0,0-1.98-1.339,1.724,1.724,0,0,0-1.491.752A3.823,3.823,0,0,0,207.178,95.8Z"/><path d="M218.274,99.169a3.566,3.566,0,0,1-.145-.959,2.665,2.665,0,0,1-1.02.8,3.124,3.124,0,0,1-1.31.283,2.306,2.306,0,0,1-1.6-.553,1.8,1.8,0,0,1-.611-1.4,1.836,1.836,0,0,1,.834-1.587,4.012,4.012,0,0,1,2.326-.584h1.378V94.4a1.5,1.5,0,0,0-.454-1.158,1.875,1.875,0,0,0-1.324-.422,2.069,2.069,0,0,0-1.313.406,1.207,1.207,0,0,0-.522.977l-.761-.006a1.768,1.768,0,0,1,.761-1.419,2.942,2.942,0,0,1,1.874-.6,2.676,2.676,0,0,1,1.812.575,2.063,2.063,0,0,1,.682,1.6V97.6a4.019,4.019,0,0,0,.21,1.491v.077Zm-2.387-.546a2.561,2.561,0,0,0,1.363-.368,2.187,2.187,0,0,0,.872-.984V95.76h-1.359a3.408,3.408,0,0,0-1.777.415,1.248,1.248,0,0,0-.641,1.108,1.229,1.229,0,0,0,.428.959A1.613,1.613,0,0,0,215.887,98.623Z"/><path d="M222.083,90.542V92.3h1.422v.622h-1.422V97.5a1.44,1.44,0,0,0,.206.852.8.8,0,0,0,.689.279,4.743,4.743,0,0,0,.615-.063l.032.617a2.489,2.489,0,0,1-.813.107,1.357,1.357,0,0,1-1.136-.455,2.132,2.132,0,0,1-.355-1.335V92.922h-1.263V92.3h1.263V90.542Z"/><path d="M229.414,99.169a3.6,3.6,0,0,1-.146-.959,2.643,2.643,0,0,1-1.018.8,3.129,3.129,0,0,1-1.311.283,2.3,2.3,0,0,1-1.6-.553,1.8,1.8,0,0,1-.613-1.4,1.839,1.839,0,0,1,.835-1.587,4.014,4.014,0,0,1,2.326-.584h1.377V94.4a1.5,1.5,0,0,0-.453-1.158,1.873,1.873,0,0,0-1.324-.422,2.067,2.067,0,0,0-1.313.406,1.208,1.208,0,0,0-.521.977l-.762-.006a1.767,1.767,0,0,1,.762-1.419,2.939,2.939,0,0,1,1.873-.6,2.676,2.676,0,0,1,1.812.575,2.059,2.059,0,0,1,.682,1.6V97.6a4.065,4.065,0,0,0,.209,1.491v.077Zm-2.387-.546a2.555,2.555,0,0,0,1.362-.368,2.164,2.164,0,0,0,.872-.984V95.76H227.9a3.4,3.4,0,0,0-1.777.415,1.249,1.249,0,0,0-.642,1.108,1.227,1.227,0,0,0,.429.959A1.61,1.61,0,0,0,227.027,98.623Z"/><path d="M239.539,99.169a3.634,3.634,0,0,1-.147-.959,2.633,2.633,0,0,1-1.017.8,3.133,3.133,0,0,1-1.312.283,2.3,2.3,0,0,1-1.6-.553,1.8,1.8,0,0,1-.614-1.4,1.84,1.84,0,0,1,.836-1.587,4.01,4.01,0,0,1,2.326-.584h1.377V94.4a1.5,1.5,0,0,0-.453-1.158,1.873,1.873,0,0,0-1.324-.422,2.07,2.07,0,0,0-1.314.406,1.207,1.207,0,0,0-.52.977l-.762-.006a1.767,1.767,0,0,1,.762-1.419,2.936,2.936,0,0,1,1.872-.6,2.672,2.672,0,0,1,1.812.575,2.06,2.06,0,0,1,.683,1.6V97.6a4.043,4.043,0,0,0,.209,1.491v.077Zm-2.387-.546a2.552,2.552,0,0,0,1.361-.368,2.161,2.161,0,0,0,.873-.984V95.76h-1.358a3.4,3.4,0,0,0-1.777.415,1.251,1.251,0,0,0-.642,1.108,1.225,1.225,0,0,0,.43.959A1.61,1.61,0,0,0,237.152,98.623Z"/><path d="M246.508,90.542V92.3h1.422v.622h-1.422V97.5a1.439,1.439,0,0,0,.207.852.8.8,0,0,0,.689.279,4.743,4.743,0,0,0,.615-.063l.031.617a2.478,2.478,0,0,1-.812.107,1.356,1.356,0,0,1-1.136-.455,2.132,2.132,0,0,1-.355-1.335V92.922h-1.263V92.3h1.263V90.542Z"/><path d="M252.164,99.3a2.946,2.946,0,0,1-2.685-1.635,3.755,3.755,0,0,1-.393-1.73v-.273a4.05,4.05,0,0,1,.383-1.783,3.059,3.059,0,0,1,1.07-1.247,2.639,2.639,0,0,1,1.486-.455,2.481,2.481,0,0,1,1.983.854,3.463,3.463,0,0,1,.734,2.333v.425h-4.9v.146a2.877,2.877,0,0,0,.668,1.946,2.133,2.133,0,0,0,1.686.777,2.478,2.478,0,0,0,1.076-.222,2.384,2.384,0,0,0,.847-.711l.476.362A2.772,2.772,0,0,1,252.164,99.3Zm-.139-6.475a1.9,1.9,0,0,0-1.444.628,2.9,2.9,0,0,0-.714,1.689h4.119v-.083a2.522,2.522,0,0,0-.564-1.612A1.752,1.752,0,0,0,252.025,92.821Z"/><path d="M260.334,97.423a1.086,1.086,0,0,0-.454-.908,3.506,3.506,0,0,0-1.369-.536,6.169,6.169,0,0,1-1.418-.444,1.91,1.91,0,0,1-.749-.613,1.527,1.527,0,0,1-.245-.876,1.634,1.634,0,0,1,.68-1.342,2.741,2.741,0,0,1,1.739-.531,2.82,2.82,0,0,1,1.844.569,1.819,1.819,0,0,1,.695,1.482H260.3a1.228,1.228,0,0,0-.5-1,2.279,2.279,0,0,0-2.476-.067,1.031,1.031,0,0,0-.454.867.938.938,0,0,0,.378.8,3.989,3.989,0,0,0,1.378.518,6.442,6.442,0,0,1,1.5.5,1.949,1.949,0,0,1,.739.641,1.764,1.764,0,0,1-.46,2.3,3,3,0,0,1-1.832.521,3.074,3.074,0,0,1-1.945-.582,1.786,1.786,0,0,1-.746-1.469h.762a1.317,1.317,0,0,0,.562,1.038,2.293,2.293,0,0,0,1.367.371,2.157,2.157,0,0,0,1.283-.349A1.048,1.048,0,0,0,260.334,97.423Z"/><path d="M263.984,90.542V92.3h1.422v.622h-1.422V97.5a1.44,1.44,0,0,0,.205.852.8.8,0,0,0,.69.279,4.743,4.743,0,0,0,.615-.063l.032.617a2.486,2.486,0,0,1-.812.107,1.352,1.352,0,0,1-1.136-.455,2.132,2.132,0,0,1-.356-1.335V92.922h-1.263V92.3h1.263V90.542Z"/><path d="M271.4,98.3a2.468,2.468,0,0,1-2.19,1,2.125,2.125,0,0,1-1.669-.638,2.793,2.793,0,0,1-.584-1.889V92.3h.755v4.374q0,1.962,1.587,1.961a1.944,1.944,0,0,0,2.087-1.364V92.3h.762v6.869h-.736Z"/><path d="M274.939,92.3v7.687a2.085,2.085,0,0,1-.457,1.454,1.728,1.728,0,0,1-1.346.5,1.926,1.926,0,0,1-.666-.12l.013-.623a2.006,2.006,0,0,0,.571.082q1.131,0,1.13-1.3V92.3Zm-.374-2.494a.493.493,0,0,1,.527.511.5.5,0,0,1-.139.359.514.514,0,0,1-.388.145.494.494,0,0,1-.378-.145.5.5,0,0,1-.137-.359.517.517,0,0,1,.137-.363A.489.489,0,0,1,274.565,89.806Z"/><path d="M278.316,89.5h.921l-1.466,1.777-.667,0Zm-.392,9.674h-.762V92.3h.762Z"/><path d="M207.439,106.3l.026,1.175a2.72,2.72,0,0,1,.964-.969,2.52,2.52,0,0,1,1.276-.333,2.06,2.06,0,0,1,1.644.623,2.8,2.8,0,0,1,.545,1.866v4.507h-.755v-4.514a2.1,2.1,0,0,0-.389-1.371,1.533,1.533,0,0,0-1.229-.45,1.92,1.92,0,0,0-1.248.441,2.59,2.59,0,0,0-.8,1.19v4.7h-.755V106.3Z"/><path d="M213.437,109.633a4.044,4.044,0,0,1,.384-1.784,2.89,2.89,0,0,1,2.676-1.676,2.823,2.823,0,0,1,2.221.962,3.707,3.707,0,0,1,.851,2.549v.158a4.071,4.071,0,0,1-.384,1.793,2.868,2.868,0,0,1-1.082,1.229,2.969,2.969,0,0,1-1.594.432,2.827,2.827,0,0,1-2.218-.962,3.7,3.7,0,0,1-.854-2.549Zm.762.209a3.117,3.117,0,0,0,.638,2.022,2.158,2.158,0,0,0,3.338,0,3.214,3.214,0,0,0,.639-2.085v-.146a3.473,3.473,0,0,0-.293-1.441,2.348,2.348,0,0,0-.818-1.013,2.1,2.1,0,0,0-1.206-.358,2.03,2.03,0,0,0-1.657.8,3.226,3.226,0,0,0-.641,2.085Z"/><path d="M223.181,112.121l2.088-5.821h.781l-2.564,6.869h-.616l-2.577-6.869h.781Z"/><path d="M229.871,113.3a2.946,2.946,0,0,1-2.685-1.635,3.755,3.755,0,0,1-.393-1.73v-.273a4.05,4.05,0,0,1,.383-1.783,3.059,3.059,0,0,1,1.07-1.247,2.639,2.639,0,0,1,1.486-.455,2.484,2.484,0,0,1,1.984.854,3.467,3.467,0,0,1,.733,2.333v.425h-4.9v.146a2.877,2.877,0,0,0,.668,1.946,2.133,2.133,0,0,0,1.686.777,2.478,2.478,0,0,0,1.076-.222,2.384,2.384,0,0,0,.847-.711l.476.362A2.772,2.772,0,0,1,229.871,113.3Zm-.139-6.475a1.9,1.9,0,0,0-1.444.628,2.9,2.9,0,0,0-.714,1.689h4.119v-.083a2.522,2.522,0,0,0-.564-1.612A1.752,1.752,0,0,0,229.732,106.821Zm.844-3.4h.92L230.03,105.2l-.667,0Z"/><path d="M237.781,106.3l.025,1.118a2.537,2.537,0,0,1,.952-.933,2.6,2.6,0,0,1,1.269-.312,1.928,1.928,0,0,1,2.064,1.333,2.582,2.582,0,0,1,.983-.987,2.733,2.733,0,0,1,1.359-.346q2.21,0,2.253,2.413v4.583h-.761v-4.526a2.052,2.052,0,0,0-.4-1.365,1.617,1.617,0,0,0-1.272-.444,2.022,2.022,0,0,0-1.385.53,1.874,1.874,0,0,0-.628,1.26v4.545h-.762v-4.583a1.881,1.881,0,0,0-.416-1.318,1.655,1.655,0,0,0-1.26-.434,1.917,1.917,0,0,0-1.231.409,2.4,2.4,0,0,0-.762,1.216v4.71h-.762V106.3Z"/><path d="M248.191,109.633a4.043,4.043,0,0,1,.383-1.784,2.89,2.89,0,0,1,2.676-1.676,2.827,2.827,0,0,1,2.222.962,3.706,3.706,0,0,1,.85,2.549v.158a4.071,4.071,0,0,1-.383,1.793,2.87,2.87,0,0,1-1.083,1.229,2.968,2.968,0,0,1-1.593.432,2.825,2.825,0,0,1-2.218-.962,3.694,3.694,0,0,1-.854-2.549Zm.762.209a3.122,3.122,0,0,0,.637,2.022,2.159,2.159,0,0,0,3.339,0,3.213,3.213,0,0,0,.638-2.085v-.146a3.488,3.488,0,0,0-.292-1.441,2.362,2.362,0,0,0-.818-1.013,2.1,2.1,0,0,0-1.207-.358,2.032,2.032,0,0,0-1.657.8,3.225,3.225,0,0,0-.64,2.085Z"/><path d="M255.586,109.671a4.138,4.138,0,0,1,.714-2.548,2.3,2.3,0,0,1,1.939-.95,2.388,2.388,0,0,1,2.12,1.1v-3.853h.756v9.75H260.4l-.032-.914a2.457,2.457,0,0,1-2.146,1.041,2.292,2.292,0,0,1-1.914-.956,4.164,4.164,0,0,1-.726-2.58Zm.767.133a3.578,3.578,0,0,0,.528,2.073,1.7,1.7,0,0,0,1.485.758,2.044,2.044,0,0,0,1.993-1.237v-3.225a2.028,2.028,0,0,0-1.98-1.339,1.728,1.728,0,0,0-1.493.752A3.832,3.832,0,0,0,256.353,109.8Z"/><path d="M265.773,113.3a2.977,2.977,0,0,1-1.583-.432,2.94,2.94,0,0,1-1.1-1.2,3.743,3.743,0,0,1-.394-1.73v-.273a4.036,4.036,0,0,1,.384-1.783,3.057,3.057,0,0,1,1.069-1.247,2.639,2.639,0,0,1,1.486-.455,2.483,2.483,0,0,1,1.984.854,3.467,3.467,0,0,1,.733,2.333v.425h-4.9v.146a2.877,2.877,0,0,0,.669,1.946,2.131,2.131,0,0,0,1.685.777,2.482,2.482,0,0,0,1.077-.222,2.39,2.39,0,0,0,.846-.711l.477.362A2.773,2.773,0,0,1,265.773,113.3Zm-.139-6.475a1.9,1.9,0,0,0-1.444.628,2.9,2.9,0,0,0-.714,1.689H267.6v-.083a2.522,2.522,0,0,0-.564-1.612A1.751,1.751,0,0,0,265.634,106.821Z"/><path d="M270.68,113.169h-.761v-9.75h.761Z"/><path d="M274.921,112.077l2-5.777h.82l-2.934,8.037-.152.355a1.843,1.843,0,0,1-1.745,1.251,2.138,2.138,0,0,1-.584-.089l-.007-.629.394.038a1.4,1.4,0,0,0,.9-.276,2.1,2.1,0,0,0,.587-.949l.337-.927-2.59-6.811h.831Z"/><path d="M182.6,68.1h-5.765a.34.34,0,0,0,0,.679H182.6a.34.34,0,0,0,0-.679Z"/><path d="M176.839,76.071h5.087a.339.339,0,0,1,0,.678h-5.087a.339.339,0,0,1,0-.678Z"/><path d="M176.839,78.73h3.391a.339.339,0,0,1,0,.678h-3.391a.339.339,0,0,1,0-.678Z"/><path d="M176.839,81.385h3.391a.339.339,0,0,1,0,.678h-3.391a.339.339,0,0,1,0-.678Z"/><line class="cls-3" x1="191.462" y1="85.981" x2="196.162" y2="90.681"/><path class="cls-4" d="M186.019,70.537h3.343l-4.021-4.022v3.344A.678.678,0,0,0,186.019,70.537Z"/><path class="cls-4" d="M186.019,71.215a1.357,1.357,0,0,1-1.357-1.356V66.037h-9.284a.678.678,0,0,0-.678.678v5.95h15.14v-1.45Z"/><path d="M174.7,66.715a.678.678,0,0,1,.678-.678h9.284v3.822a1.357,1.357,0,0,0,1.357,1.356h3.821v1.45h.675V70.856a.42.42,0,0,0-.02-.092.15.15,0,0,0,0-.03.364.364,0,0,0-.065-.095l-5.188-5.178a.346.346,0,0,0-.091-.061h-.034a.4.4,0,0,0-.092-.041h-9.647a1.356,1.356,0,0,0-1.356,1.356v5.95h.678Zm10.641-.2,4.021,4.022h-3.343a.678.678,0,0,1-.678-.678Z"/><path d="M174.7,72.665V83.45a.679.679,0,0,0,.679.678H181.8a6.08,6.08,0,0,1,8.037-8.037V72.665h.678v3.786a6.083,6.083,0,1,1-8.355,8.355h-6.782a1.356,1.356,0,0,1-1.356-1.356V72.665Zm12.662,14.4a5.426,5.426,0,1,0-5.425-5.425A5.425,5.425,0,0,0,187.358,87.061Z"/><path d="M186.843,73.416h-10a.339.339,0,0,0,0,.678h10a.339.339,0,1,0,0-.678Z"/><polyline class="cls-3" points="184.799 82.14 186.454 83.795 189.918 80.331"/><circle class="cls-5" cx="181.783" cy="75.99" r="15.942"/><path d="M527.863,66.789a5.671,5.671,0,0,1-.469,2.383,3.545,3.545,0,0,1-1.344,1.575,3.938,3.938,0,0,1-4.011,0,3.61,3.61,0,0,1-1.358-1.565,5.5,5.5,0,0,1-.486-2.343v-.52a5.617,5.617,0,0,1,.48-2.387,3.6,3.6,0,0,1,1.352-1.584,3.947,3.947,0,0,1,4.006-.006,3.555,3.555,0,0,1,1.348,1.562,5.6,5.6,0,0,1,.482,2.371Zm-1.605-.483a4.042,4.042,0,0,0-.581-2.355,2.049,2.049,0,0,0-3.275,0,3.956,3.956,0,0,0-.6,2.308v.533a4.025,4.025,0,0,0,.593,2.355,1.916,1.916,0,0,0,1.649.831,1.888,1.888,0,0,0,1.64-.812,4.1,4.1,0,0,0,.575-2.374Z"/><path d="M529.025,67.684a4.09,4.09,0,0,1,.736-2.549,2.361,2.361,0,0,1,1.975-.962,2.24,2.24,0,0,1,1.764.762V61.419h1.543v9.75h-1.4l-.076-.711a2.276,2.276,0,0,1-1.848.838,2.345,2.345,0,0,1-1.951-.972A4.225,4.225,0,0,1,529.025,67.684Zm1.543.133a2.868,2.868,0,0,0,.4,1.635,1.311,1.311,0,0,0,1.147.587,1.456,1.456,0,0,0,1.383-.845V66.262a1.434,1.434,0,0,0-1.371-.825,1.316,1.316,0,0,0-1.155.593A3.185,3.185,0,0,0,530.568,67.817Z"/><path d="M542.679,67.8a4.128,4.128,0,0,1-.714,2.546A2.329,2.329,0,0,1,540,71.3a2.241,2.241,0,0,1-1.879-.87l-.076.743h-1.4v-9.75h1.543v3.542a2.232,2.232,0,0,1,1.8-.788,2.353,2.353,0,0,1,1.974.934,4.2,4.2,0,0,1,.717,2.608Zm-1.543-.133A2.913,2.913,0,0,0,540.743,66a1.313,1.313,0,0,0-1.143-.558,1.433,1.433,0,0,0-1.409.876v2.831a1.449,1.449,0,0,0,1.422.895,1.3,1.3,0,0,0,1.117-.54,2.816,2.816,0,0,0,.406-1.631Z"/><path d="M543.681,67.671a4.048,4.048,0,0,1,.4-1.819,2.916,2.916,0,0,1,1.123-1.244,3.165,3.165,0,0,1,1.664-.435,3,3,0,0,1,2.256.895,3.519,3.519,0,0,1,.936,2.375l.007.361a4.089,4.089,0,0,1-.391,1.816,2.882,2.882,0,0,1-1.117,1.238,3.19,3.19,0,0,1-1.679.438,2.982,2.982,0,0,1-2.327-.968,3.71,3.71,0,0,1-.873-2.581Zm1.543.133a2.774,2.774,0,0,0,.438,1.66,1.426,1.426,0,0,0,1.219.6,1.407,1.407,0,0,0,1.215-.609,3.058,3.058,0,0,0,.435-1.784,2.726,2.726,0,0,0-.447-1.65,1.508,1.508,0,0,0-2.415-.01A3,3,0,0,0,545.224,67.8Z"/><path d="M554.968,65.71a3.8,3.8,0,0,0-.628-.051,1.415,1.415,0,0,0-1.428.812v4.7h-1.543V64.3h1.473l.038.768a1.738,1.738,0,0,1,1.548-.895,1.45,1.45,0,0,1,.546.089Z"/><path d="M557.374,64.3l.044.794a2.468,2.468,0,0,1,2-.921q2.144,0,2.183,2.457v4.539h-1.543v-4.45a1.412,1.412,0,0,0-.282-.968,1.189,1.189,0,0,0-.923-.314,1.484,1.484,0,0,0-1.39.844v4.888H555.92V64.3Z"/><path d="M564.832,71.169H563.29V64.3h1.542Zm-.291-9.706H566.3l-1.758,1.923-1.239,0Z"/><path d="M523.934,79.71a3.8,3.8,0,0,0-.628-.051,1.415,1.415,0,0,0-1.428.812v4.7h-1.542V78.3h1.472l.037.768a1.74,1.74,0,0,1,1.549-.895,1.452,1.452,0,0,1,.547.089Z"/><path d="M527.812,85.3a3.194,3.194,0,0,1-2.377-.924,3.352,3.352,0,0,1-.91-2.46v-.19a4.113,4.113,0,0,1,.4-1.838,3,3,0,0,1,1.113-1.26,2.95,2.95,0,0,1,1.6-.451,2.7,2.7,0,0,1,2.168.895,3.785,3.785,0,0,1,.766,2.533v.622H526.08a2.066,2.066,0,0,0,.568,1.346,1.706,1.706,0,0,0,1.254.495,2.093,2.093,0,0,0,1.727-.857l.831.794a2.773,2.773,0,0,1-1.1.955A3.452,3.452,0,0,1,527.812,85.3Zm-.183-5.885a1.3,1.3,0,0,0-1.026.445,2.305,2.305,0,0,0-.5,1.237h2.94v-.114a1.882,1.882,0,0,0-.413-1.171A1.293,1.293,0,0,0,527.629,79.411Z"/><path d="M534.586,84.064a1.4,1.4,0,0,0,.959-.336,1.153,1.153,0,0,0,.406-.832H537.4a2.271,2.271,0,0,1-.4,1.2,2.613,2.613,0,0,1-1.016.88,3.023,3.023,0,0,1-1.383.324,2.925,2.925,0,0,1-2.285-.934,3.7,3.7,0,0,1-.845-2.577v-.158a3.643,3.643,0,0,1,.838-2.511,2.9,2.9,0,0,1,2.285-.943,2.828,2.828,0,0,1,2,.714,2.56,2.56,0,0,1,.809,1.876h-1.453a1.418,1.418,0,0,0-.4-.971,1.3,1.3,0,0,0-.961-.381,1.358,1.358,0,0,0-1.156.543,2.781,2.781,0,0,0-.413,1.647v.248a2.806,2.806,0,0,0,.4,1.666A1.352,1.352,0,0,0,534.586,84.064Z"/><path d="M541.593,85.3a3.188,3.188,0,0,1-2.376-.924,3.349,3.349,0,0,1-.912-2.46v-.19a4.1,4.1,0,0,1,.4-1.838,3.01,3.01,0,0,1,1.113-1.26,2.953,2.953,0,0,1,1.6-.451,2.7,2.7,0,0,1,2.168.895,3.79,3.79,0,0,1,.764,2.533v.622h-4.487a2.057,2.057,0,0,0,.568,1.346,1.7,1.7,0,0,0,1.253.495,2.091,2.091,0,0,0,1.727-.857l.831.794a2.766,2.766,0,0,1-1.1.955A3.448,3.448,0,0,1,541.593,85.3Zm-.183-5.885a1.3,1.3,0,0,0-1.026.445,2.313,2.313,0,0,0-.5,1.237h2.939v-.114a1.87,1.87,0,0,0-.413-1.171A1.288,1.288,0,0,0,541.41,79.411Z"/><path d="M546.976,78.3l.045.794a2.468,2.468,0,0,1,2-.921q2.147,0,2.184,2.457v4.539h-1.542v-4.45a1.417,1.417,0,0,0-.283-.968,1.19,1.19,0,0,0-.924-.314,1.487,1.487,0,0,0-1.39.844v4.888h-1.542V78.3Z"/><path d="M554.422,83.937h3.656v1.232h-5.572v-1.01l3.484-4.614h-3.422V78.3h5.377v.978Z"/><path d="M562.236,85.3a3.19,3.19,0,0,1-2.377-.924,3.353,3.353,0,0,1-.911-2.46v-.19a4.113,4.113,0,0,1,.4-1.838,3.005,3.005,0,0,1,1.114-1.26,2.947,2.947,0,0,1,1.6-.451,2.7,2.7,0,0,1,2.168.895,3.785,3.785,0,0,1,.765,2.533v.622H560.5a2.057,2.057,0,0,0,.568,1.346,1.7,1.7,0,0,0,1.253.495,2.089,2.089,0,0,0,1.726-.857l.832.794a2.773,2.773,0,0,1-1.1.955A3.451,3.451,0,0,1,562.236,85.3Zm-.184-5.885a1.3,1.3,0,0,0-1.025.445,2.3,2.3,0,0,0-.5,1.237h2.938v-.114a1.864,1.864,0,0,0-.413-1.171A1.288,1.288,0,0,0,562.052,79.411Z"/><path d="M567.619,78.3l.045.794a2.468,2.468,0,0,1,2-.921q2.145,0,2.183,2.457v4.539H570.3v-4.45a1.411,1.411,0,0,0-.283-.968,1.188,1.188,0,0,0-.924-.314,1.485,1.485,0,0,0-1.389.844v4.888h-1.542V78.3Z"/><path d="M575.35,76.631V78.3h1.212v1.143H575.35v3.834a.842.842,0,0,0,.156.568.718.718,0,0,0,.555.175,2.342,2.342,0,0,0,.54-.064V85.15a3.811,3.811,0,0,1-1.015.146q-1.779,0-1.778-1.962V79.443h-1.131V78.3h1.131V76.631Z"/><path d="M577.744,76.517a.821.821,0,0,1,.224-.591,1.009,1.009,0,0,1,1.292,0,.812.812,0,0,1,.229.591.788.788,0,0,1-.229.58,1.015,1.015,0,0,1-1.292,0A.8.8,0,0,1,577.744,76.517Zm1.637,8.652h-1.542V78.3h1.542Z"/><path d="M526.06,95.8a4.131,4.131,0,0,1-.711,2.549,2.263,2.263,0,0,1-1.9.943,2.544,2.544,0,0,1-2.158-.991v3.5h-.755V92.3h.7l.039.972a2.436,2.436,0,0,1,2.151-1.1,2.284,2.284,0,0,1,1.933.934,4.223,4.223,0,0,1,.7,2.589Zm-.761-.133a3.532,3.532,0,0,0-.54-2.076,1.739,1.739,0,0,0-1.5-.761,2,2,0,0,0-1.969,1.314v3.294a2.016,2.016,0,0,0,.781.9,2.242,2.242,0,0,0,1.2.311,1.722,1.722,0,0,0,1.5-.765A3.84,3.84,0,0,0,525.3,95.671Z"/><path d="M529.355,90.739l1.092-1.232h.68v.077l-1.5,1.656h-.547l-1.5-1.663v-.07h.679Zm1.562,2.209a2.805,2.805,0,0,0-.515-.045,1.853,1.853,0,0,0-1.2.4,2.179,2.179,0,0,0-.7,1.152v4.717h-.755V92.3h.743l.012,1.092a2.021,2.021,0,0,1,1.936-1.219,1.242,1.242,0,0,1,.5.083Z"/><path d="M532.072,90.317a.511.511,0,0,1,.14-.363.493.493,0,0,1,.38-.148.5.5,0,0,1,.527.511.487.487,0,0,1-.143.359.511.511,0,0,1-.384.145.489.489,0,0,1-.52-.5Zm.895,8.852h-.762V92.3h.762Z"/><path d="M540.552,95.8a4.138,4.138,0,0,1-.71,2.549,2.269,2.269,0,0,1-1.9.943,2.544,2.544,0,0,1-2.158-.991v3.5h-.756V92.3h.7l.038.972a2.438,2.438,0,0,1,2.152-1.1,2.286,2.286,0,0,1,1.933.934,4.23,4.23,0,0,1,.7,2.589Zm-.761-.133a3.539,3.539,0,0,0-.539-2.076,1.744,1.744,0,0,0-1.5-.761,2,2,0,0,0-1.968,1.314v3.294a2.01,2.01,0,0,0,.781.9,2.245,2.245,0,0,0,1.2.311,1.725,1.725,0,0,0,1.5-.765A3.847,3.847,0,0,0,539.791,95.671Z"/><path d="M541.816,95.633a4.043,4.043,0,0,1,.383-1.784,2.89,2.89,0,0,1,2.676-1.676,2.827,2.827,0,0,1,2.222.962,3.706,3.706,0,0,1,.85,2.549v.158a4.071,4.071,0,0,1-.383,1.793,2.87,2.87,0,0,1-1.083,1.229,2.968,2.968,0,0,1-1.593.432,2.825,2.825,0,0,1-2.218-.962,3.694,3.694,0,0,1-.854-2.549Zm.762.209a3.122,3.122,0,0,0,.637,2.022,2.159,2.159,0,0,0,3.339,0,3.213,3.213,0,0,0,.638-2.085v-.146a3.488,3.488,0,0,0-.292-1.441,2.362,2.362,0,0,0-.818-1.013,2.1,2.1,0,0,0-1.207-.358,2.032,2.032,0,0,0-1.657.8,3.225,3.225,0,0,0-.64,2.085Z"/><path d="M550.207,92.3l.025,1.118a2.539,2.539,0,0,1,.953-.933,2.606,2.606,0,0,1,1.27-.312,1.926,1.926,0,0,1,2.062,1.333,2.587,2.587,0,0,1,.985-.987,2.729,2.729,0,0,1,1.357-.346q2.209,0,2.254,2.413v4.583h-.762V94.643a2.047,2.047,0,0,0-.4-1.365,1.619,1.619,0,0,0-1.274-.444,2.016,2.016,0,0,0-1.382.53,1.876,1.876,0,0,0-.629,1.26v4.545h-.762V94.586a1.881,1.881,0,0,0-.416-1.318,1.658,1.658,0,0,0-1.26-.434,1.913,1.913,0,0,0-1.231.409,2.4,2.4,0,0,0-.762,1.216v4.71h-.762V92.3Z"/><path d="M562.267,89.5h.921l-1.466,1.777-.667,0Zm-.392,9.674h-.762V92.3h.762Z"/><path d="M564.654,92.3l.025,1.175a2.738,2.738,0,0,1,.965-.969,2.524,2.524,0,0,1,1.277-.333,2.057,2.057,0,0,1,1.643.623,2.8,2.8,0,0,1,.547,1.866v4.507h-.756V94.655a2.1,2.1,0,0,0-.39-1.371,1.531,1.531,0,0,0-1.229-.45,1.918,1.918,0,0,0-1.246.441,2.569,2.569,0,0,0-.8,1.19v4.7h-.755V92.3Z"/><path d="M572.7,95.709l-.869.838v2.622h-.762v-9.75h.762v6.239l.716-.774,2.629-2.584h.958L573.224,95.2l3.167,3.974h-.907Z"/><path d="M581.857,98.3a2.468,2.468,0,0,1-2.19,1A2.125,2.125,0,0,1,578,98.658a2.793,2.793,0,0,1-.584-1.889V92.3h.755v4.374q0,1.962,1.587,1.961a1.944,1.944,0,0,0,2.087-1.364V92.3h.762v6.869h-.736Z"/><path d="M585.4,92.3v7.687a2.085,2.085,0,0,1-.457,1.454,1.728,1.728,0,0,1-1.346.5,1.926,1.926,0,0,1-.666-.12l.013-.623a2.006,2.006,0,0,0,.571.082q1.131,0,1.13-1.3V92.3Zm-.374-2.494a.491.491,0,0,1,.526.511.5.5,0,0,1-.138.359.514.514,0,0,1-.388.145.494.494,0,0,1-.378-.145.5.5,0,0,1-.137-.359.517.517,0,0,1,.137-.363A.489.489,0,0,1,585.024,89.806Z"/><path d="M588.775,89.5h.921l-1.466,1.777-.667,0Zm-.392,9.674h-.762V92.3h.762Z"/><path d="M526.06,109.8a4.131,4.131,0,0,1-.711,2.549,2.263,2.263,0,0,1-1.9.943,2.544,2.544,0,0,1-2.158-.991v3.5h-.755V106.3h.7l.039.972a2.436,2.436,0,0,1,2.151-1.1,2.284,2.284,0,0,1,1.933.934,4.223,4.223,0,0,1,.7,2.589Zm-.761-.133a3.532,3.532,0,0,0-.54-2.076,1.739,1.739,0,0,0-1.5-.761,2,2,0,0,0-1.969,1.314v3.294a2.016,2.016,0,0,0,.781.9,2.242,2.242,0,0,0,1.2.311,1.722,1.722,0,0,0,1.5-.765A3.84,3.84,0,0,0,525.3,109.671Z"/><path d="M529.355,104.739l1.092-1.232h.68v.077l-1.5,1.656h-.547l-1.5-1.663v-.07h.679Zm1.562,2.209a2.805,2.805,0,0,0-.515-.045,1.853,1.853,0,0,0-1.2.4,2.179,2.179,0,0,0-.7,1.152v4.717h-.755V106.3h.743l.012,1.092a2.021,2.021,0,0,1,1.936-1.219,1.242,1.242,0,0,1,.5.083Z"/><path d="M534.656,113.3a2.981,2.981,0,0,1-1.584-.432,2.936,2.936,0,0,1-1.1-1.2,3.768,3.768,0,0,1-.393-1.73v-.273a4.036,4.036,0,0,1,.384-1.783,3.052,3.052,0,0,1,1.07-1.247,2.633,2.633,0,0,1,1.484-.455,2.485,2.485,0,0,1,1.985.854,3.467,3.467,0,0,1,.732,2.333v.425h-4.9v.146a2.873,2.873,0,0,0,.67,1.946,2.13,2.13,0,0,0,1.685.777,2.478,2.478,0,0,0,1.076-.222,2.386,2.386,0,0,0,.848-.711l.476.362A2.774,2.774,0,0,1,534.656,113.3Zm-.141-6.475a1.9,1.9,0,0,0-1.443.628,2.9,2.9,0,0,0-.715,1.689h4.12v-.083a2.517,2.517,0,0,0-.565-1.612A1.75,1.75,0,0,0,534.515,106.821Z"/><path d="M538.407,109.671a4.138,4.138,0,0,1,.714-2.548,2.3,2.3,0,0,1,1.939-.95,2.389,2.389,0,0,1,2.12,1.1v-3.853h.755v9.75h-.711l-.031-.914a2.453,2.453,0,0,1-2.145,1.041,2.294,2.294,0,0,1-1.915-.956,4.164,4.164,0,0,1-.726-2.58Zm.768.133a3.586,3.586,0,0,0,.527,2.073,1.7,1.7,0,0,0,1.485.758,2.043,2.043,0,0,0,1.993-1.237v-3.225a2.027,2.027,0,0,0-1.98-1.339,1.722,1.722,0,0,0-1.491.752A3.823,3.823,0,0,0,539.175,109.8Z"/><path d="M554.619,109.8a4.131,4.131,0,0,1-.711,2.549,2.267,2.267,0,0,1-1.9.943,2.545,2.545,0,0,1-2.159-.991v3.5h-.755V106.3h.7l.038.972a2.437,2.437,0,0,1,2.151-1.1,2.288,2.288,0,0,1,1.934.934,4.237,4.237,0,0,1,.7,2.589Zm-.762-.133a3.539,3.539,0,0,0-.539-2.076,1.742,1.742,0,0,0-1.5-.761,2,2,0,0,0-1.968,1.314v3.294a2.012,2.012,0,0,0,.782.9,2.242,2.242,0,0,0,1.2.311,1.722,1.722,0,0,0,1.5-.765A3.847,3.847,0,0,0,553.857,109.671Z"/><path d="M560.718,112.3a2.466,2.466,0,0,1-2.189,1,2.128,2.128,0,0,1-1.67-.638,2.8,2.8,0,0,1-.584-1.889V106.3h.756v4.374q0,1.962,1.587,1.961a1.947,1.947,0,0,0,2.089-1.364V106.3h.761v6.869h-.736Z"/><path d="M568.97,109.8a4.131,4.131,0,0,1-.711,2.549,2.269,2.269,0,0,1-1.91.943,2.469,2.469,0,0,1-2.171-1.067l-.032.94h-.711v-9.75h.756V107.3a2.388,2.388,0,0,1,2.146-1.124,2.294,2.294,0,0,1,1.926.93,4.187,4.187,0,0,1,.707,2.587Zm-.761-.133a3.579,3.579,0,0,0-.527-2.1,1.715,1.715,0,0,0-1.485-.739,2.094,2.094,0,0,0-1.238.358,2.184,2.184,0,0,0-.768,1.051v3.1a2.035,2.035,0,0,0,2.019,1.3,1.7,1.7,0,0,0,1.469-.742A3.82,3.82,0,0,0,568.209,109.671Z"/><path d="M571.5,113.169h-.762v-9.75h.762Z"/><path d="M573.515,104.317a.507.507,0,0,1,.141-.363.5.5,0,0,1,.381-.148.5.5,0,0,1,.526.511.494.494,0,0,1-.142.359.516.516,0,0,1-.384.145.5.5,0,0,1-.381-.145A.493.493,0,0,1,573.515,104.317Zm.9,8.852h-.762V106.3h.762Z"/><path d="M578.105,109.709l-.869.838v2.622h-.762v-9.75h.762v6.239l.717-.774,2.628-2.584h.958l-2.913,2.895,3.167,3.974h-.908Z"/><path d="M587.175,113.169a3.566,3.566,0,0,1-.145-.959,2.647,2.647,0,0,1-1.019.8,3.124,3.124,0,0,1-1.31.283,2.308,2.308,0,0,1-1.6-.553,1.8,1.8,0,0,1-.612-1.4,1.837,1.837,0,0,1,.835-1.587,4.014,4.014,0,0,1,2.326-.584h1.377V108.4a1.5,1.5,0,0,0-.453-1.158,1.875,1.875,0,0,0-1.324-.422,2.07,2.07,0,0,0-1.314.406,1.21,1.21,0,0,0-.52.977l-.762-.006a1.767,1.767,0,0,1,.762-1.419,2.939,2.939,0,0,1,1.873-.6,2.673,2.673,0,0,1,1.811.575,2.06,2.06,0,0,1,.683,1.6v3.25a4.043,4.043,0,0,0,.209,1.491v.077Zm-2.386-.546a2.555,2.555,0,0,0,1.362-.368,2.17,2.17,0,0,0,.872-.984V109.76h-1.357a3.407,3.407,0,0,0-1.778.415,1.25,1.25,0,0,0-.641,1.108,1.226,1.226,0,0,0,.428.959A1.614,1.614,0,0,0,584.789,112.623Z"/><path d="M592.343,112.654a2.008,2.008,0,0,0,1.331-.447,1.576,1.576,0,0,0,.58-1.159h.73a2.144,2.144,0,0,1-.394,1.146,2.465,2.465,0,0,1-.961.81,2.913,2.913,0,0,1-1.286.292,2.65,2.65,0,0,1-2.142-.94,3.8,3.8,0,0,1-.791-2.526V109.6a4.306,4.306,0,0,1,.355-1.8,2.737,2.737,0,0,1,1.02-1.206,2.8,2.8,0,0,1,1.552-.426,2.648,2.648,0,0,1,1.862.673,2.451,2.451,0,0,1,.785,1.771h-.73a1.837,1.837,0,0,0-1.917-1.8,1.893,1.893,0,0,0-1.6.743,3.358,3.358,0,0,0-.568,2.082v.222a3.283,3.283,0,0,0,.568,2.05A1.907,1.907,0,0,0,592.343,112.654Z"/><path d="M597.732,103.5h.92l-1.466,1.777-.667,0Zm-.393,9.674h-.762V106.3h.762Z"/><path d="M496.427,68.1h-5.765a.34.34,0,0,0,0,.679h5.765a.34.34,0,0,0,0-.679Z"/><path d="M490.662,76.071h5.087a.339.339,0,0,1,0,.678h-5.087a.339.339,0,1,1,0-.678Z"/><path d="M490.662,78.73h3.391a.339.339,0,0,1,0,.678h-3.391a.339.339,0,0,1,0-.678Z"/><path d="M490.662,81.385h3.391a.339.339,0,0,1,0,.678h-3.391a.339.339,0,1,1,0-.678Z"/><line class="cls-3" x1="505.285" y1="85.981" x2="509.985" y2="90.681"/><path class="cls-4" d="M499.842,70.537h3.343l-4.021-4.022v3.344A.678.678,0,0,0,499.842,70.537Z"/><path class="cls-4" d="M499.842,71.215a1.357,1.357,0,0,1-1.357-1.356V66.037H489.2a.678.678,0,0,0-.678.678v5.95h15.14v-1.45Z"/><path d="M488.523,66.715a.678.678,0,0,1,.678-.678h9.284v3.822a1.357,1.357,0,0,0,1.357,1.356h3.821v1.45h.675V70.856a.42.42,0,0,0-.02-.092.15.15,0,0,0,0-.03.364.364,0,0,0-.065-.095l-5.188-5.178a.346.346,0,0,0-.091-.061h-.034a.4.4,0,0,0-.092-.041H489.2a1.356,1.356,0,0,0-1.356,1.356v5.95h.678Zm10.641-.2,4.021,4.022h-3.343a.678.678,0,0,1-.678-.678Z"/><path d="M488.519,72.665V83.45a.679.679,0,0,0,.679.678h6.425a6.08,6.08,0,0,1,8.037-8.037V72.665h.678v3.786a6.083,6.083,0,1,1-8.355,8.355H489.2a1.356,1.356,0,0,1-1.356-1.356V72.665Zm12.662,14.4a5.426,5.426,0,1,0-5.425-5.425A5.425,5.425,0,0,0,501.181,87.061Z"/><path d="M500.666,73.416h-10a.339.339,0,1,0,0,.678h10a.339.339,0,1,0,0-.678Z"/><polyline class="cls-3" points="498.622 82.14 500.277 83.795 503.741 80.331"/><circle class="cls-5" cx="495.606" cy="75.99" r="15.942"/><path d="M672.965,66.789a5.671,5.671,0,0,1-.47,2.383,3.556,3.556,0,0,1-1.343,1.575,3.939,3.939,0,0,1-4.012,0,3.6,3.6,0,0,1-1.358-1.565,5.483,5.483,0,0,1-.485-2.343v-.52a5.632,5.632,0,0,1,.479-2.387,3.6,3.6,0,0,1,1.352-1.584,3.945,3.945,0,0,1,4-.006,3.551,3.551,0,0,1,1.349,1.562,5.6,5.6,0,0,1,.483,2.371Zm-1.606-.483a4.042,4.042,0,0,0-.581-2.355,2.049,2.049,0,0,0-3.275,0,3.963,3.963,0,0,0-.6,2.308v.533a4.01,4.01,0,0,0,.594,2.355,1.912,1.912,0,0,0,1.647.831,1.89,1.89,0,0,0,1.641-.812,4.088,4.088,0,0,0,.575-2.374Z"/><path d="M674.127,67.684a4.083,4.083,0,0,1,.736-2.549,2.357,2.357,0,0,1,1.974-.962,2.242,2.242,0,0,1,1.764.762V61.419h1.543v9.75h-1.4l-.076-.711a2.28,2.28,0,0,1-1.848.838,2.344,2.344,0,0,1-1.952-.972A4.231,4.231,0,0,1,674.127,67.684Zm1.542.133a2.852,2.852,0,0,0,.4,1.635,1.308,1.308,0,0,0,1.145.587,1.458,1.458,0,0,0,1.384-.845V66.262a1.434,1.434,0,0,0-1.371-.825,1.314,1.314,0,0,0-1.155.593A3.185,3.185,0,0,0,675.669,67.817Z"/><path d="M687.78,67.8a4.128,4.128,0,0,1-.714,2.546,2.328,2.328,0,0,1-1.965.946,2.242,2.242,0,0,1-1.879-.87l-.076.743h-1.4v-9.75h1.543v3.542a2.23,2.23,0,0,1,1.8-.788,2.351,2.351,0,0,1,1.973.934,4.186,4.186,0,0,1,.718,2.608Zm-1.542-.133a2.912,2.912,0,0,0-.4-1.676,1.308,1.308,0,0,0-1.142-.558,1.43,1.43,0,0,0-1.408.876v2.831a1.446,1.446,0,0,0,1.422.895,1.3,1.3,0,0,0,1.117-.54,2.84,2.84,0,0,0,.406-1.631Z"/><path d="M688.783,67.671a4.047,4.047,0,0,1,.4-1.819,2.922,2.922,0,0,1,1.123-1.244,3.166,3.166,0,0,1,1.663-.435,3,3,0,0,1,2.257.895,3.519,3.519,0,0,1,.936,2.375l.007.361a4.088,4.088,0,0,1-.39,1.816,2.9,2.9,0,0,1-1.117,1.238,3.2,3.2,0,0,1-1.68.438,2.98,2.98,0,0,1-2.326-.968,3.71,3.71,0,0,1-.873-2.581Zm1.543.133a2.767,2.767,0,0,0,.437,1.66,1.425,1.425,0,0,0,1.219.6,1.406,1.406,0,0,0,1.215-.609,3.05,3.05,0,0,0,.436-1.784,2.726,2.726,0,0,0-.448-1.65,1.509,1.509,0,0,0-2.416-.01A3,3,0,0,0,690.326,67.8Z"/><path d="M700.069,65.71a3.8,3.8,0,0,0-.628-.051,1.417,1.417,0,0,0-1.429.812v4.7H696.47V64.3h1.473l.037.768a1.74,1.74,0,0,1,1.549-.895,1.455,1.455,0,0,1,.547.089Z"/><path d="M702.474,64.3l.045.794a2.469,2.469,0,0,1,2-.921q2.145,0,2.184,2.457v4.539H705.16v-4.45a1.411,1.411,0,0,0-.283-.968,1.189,1.189,0,0,0-.923-.314,1.486,1.486,0,0,0-1.39.844v4.888h-1.543V64.3Z"/><path d="M709.933,71.169H708.39V64.3h1.543Zm-.292-9.706H711.4l-1.759,1.923-1.237,0Z"/><path d="M669.035,79.71a3.793,3.793,0,0,0-.628-.051,1.418,1.418,0,0,0-1.429.812v4.7h-1.542V78.3h1.473l.038.768a1.74,1.74,0,0,1,1.549-.895,1.446,1.446,0,0,1,.546.089Z"/><path d="M672.914,85.3a3.189,3.189,0,0,1-2.377-.924,3.349,3.349,0,0,1-.911-2.46v-.19a4.113,4.113,0,0,1,.4-1.838,3.01,3.01,0,0,1,1.113-1.26,2.953,2.953,0,0,1,1.6-.451,2.7,2.7,0,0,1,2.168.895,3.785,3.785,0,0,1,.765,2.533v.622h-4.488a2.057,2.057,0,0,0,.569,1.346,1.7,1.7,0,0,0,1.253.495,2.089,2.089,0,0,0,1.726-.857l.831.794a2.763,2.763,0,0,1-1.1.955A3.451,3.451,0,0,1,672.914,85.3Zm-.184-5.885a1.3,1.3,0,0,0-1.025.445,2.3,2.3,0,0,0-.5,1.237h2.938v-.114a1.87,1.87,0,0,0-.413-1.171A1.288,1.288,0,0,0,672.73,79.411Z"/><path d="M679.687,84.064a1.4,1.4,0,0,0,.958-.336,1.146,1.146,0,0,0,.406-.832h1.455a2.272,2.272,0,0,1-.4,1.2,2.624,2.624,0,0,1-1.015.88,3.028,3.028,0,0,1-1.384.324,2.927,2.927,0,0,1-2.285-.934,3.7,3.7,0,0,1-.845-2.577v-.158a3.639,3.639,0,0,1,.838-2.511,2.9,2.9,0,0,1,2.285-.943,2.829,2.829,0,0,1,2,.714,2.564,2.564,0,0,1,.81,1.876h-1.455a1.408,1.408,0,0,0-.4-.971,1.3,1.3,0,0,0-.961-.381,1.358,1.358,0,0,0-1.156.543,2.767,2.767,0,0,0-.412,1.647v.248a2.821,2.821,0,0,0,.4,1.666A1.357,1.357,0,0,0,679.687,84.064Z"/><path d="M686.7,85.3a3.193,3.193,0,0,1-2.378-.924,3.357,3.357,0,0,1-.911-2.46v-.19a4.126,4.126,0,0,1,.4-1.838,3.014,3.014,0,0,1,1.115-1.26,2.942,2.942,0,0,1,1.6-.451,2.7,2.7,0,0,1,2.167.895,3.78,3.78,0,0,1,.765,2.533v.622h-4.487a2.057,2.057,0,0,0,.568,1.346,1.7,1.7,0,0,0,1.253.495,2.086,2.086,0,0,0,1.726-.857l.833.794a2.786,2.786,0,0,1-1.1.955A3.454,3.454,0,0,1,686.7,85.3Zm-.185-5.885a1.3,1.3,0,0,0-1.025.445,2.3,2.3,0,0,0-.5,1.237h2.938v-.114a1.864,1.864,0,0,0-.412-1.171A1.291,1.291,0,0,0,686.51,79.411Z"/><path d="M692.078,78.3l.044.794a2.47,2.47,0,0,1,2-.921q2.145,0,2.183,2.457v4.539h-1.542v-4.45a1.417,1.417,0,0,0-.282-.968,1.19,1.19,0,0,0-.924-.314,1.485,1.485,0,0,0-1.39.844v4.888h-1.542V78.3Z"/><path d="M699.523,83.937h3.656v1.232h-5.573v-1.01l3.486-4.614H697.67V78.3h5.377v.978Z"/><path d="M707.338,85.3a3.19,3.19,0,0,1-2.378-.924,3.353,3.353,0,0,1-.911-2.46v-.19a4.113,4.113,0,0,1,.4-1.838,3.019,3.019,0,0,1,1.114-1.26,2.948,2.948,0,0,1,1.6-.451,2.7,2.7,0,0,1,2.167.895,3.78,3.78,0,0,1,.765,2.533v.622H705.6a2.057,2.057,0,0,0,.569,1.346,1.7,1.7,0,0,0,1.252.495,2.087,2.087,0,0,0,1.727-.857l.832.794a2.776,2.776,0,0,1-1.1.955A3.454,3.454,0,0,1,707.338,85.3Zm-.185-5.885a1.3,1.3,0,0,0-1.025.445,2.3,2.3,0,0,0-.5,1.237h2.938v-.114a1.87,1.87,0,0,0-.412-1.171A1.291,1.291,0,0,0,707.153,79.411Z"/><path d="M712.72,78.3l.044.794a2.47,2.47,0,0,1,2-.921q2.146,0,2.184,2.457v4.539h-1.542v-4.45a1.422,1.422,0,0,0-.282-.968,1.191,1.191,0,0,0-.924-.314,1.487,1.487,0,0,0-1.391.844v4.888h-1.542V78.3Z"/><path d="M720.451,76.631V78.3h1.213v1.143h-1.213v3.834a.848.848,0,0,0,.156.568.719.719,0,0,0,.555.175,2.348,2.348,0,0,0,.54-.064V85.15a3.818,3.818,0,0,1-1.016.146q-1.776,0-1.777-1.962V79.443h-1.13V78.3h1.13V76.631Z"/><path d="M722.844,76.517a.822.822,0,0,1,.226-.591,1.007,1.007,0,0,1,1.291,0,.816.816,0,0,1,.229.591.792.792,0,0,1-.229.58,1.014,1.014,0,0,1-1.291,0A.8.8,0,0,1,722.844,76.517Zm1.638,8.652h-1.543V78.3h1.543Z"/><path d="M669.753,97.423a1.086,1.086,0,0,0-.454-.908,3.507,3.507,0,0,0-1.368-.536,6.18,6.18,0,0,1-1.419-.444,1.889,1.889,0,0,1-.749-.613,1.527,1.527,0,0,1-.244-.876A1.636,1.636,0,0,1,666.2,92.7a2.737,2.737,0,0,1,1.739-.531,2.822,2.822,0,0,1,1.844.569,1.819,1.819,0,0,1,.7,1.482h-.761a1.228,1.228,0,0,0-.5-1,2.279,2.279,0,0,0-2.476-.067,1.028,1.028,0,0,0-.453.867.935.935,0,0,0,.377.8,3.989,3.989,0,0,0,1.378.518,6.459,6.459,0,0,1,1.5.5,1.941,1.941,0,0,1,.739.641,1.764,1.764,0,0,1-.46,2.3,3,3,0,0,1-1.831.521,3.071,3.071,0,0,1-1.946-.582,1.785,1.785,0,0,1-.745-1.469h.761a1.32,1.32,0,0,0,.562,1.038,2.294,2.294,0,0,0,1.368.371,2.153,2.153,0,0,0,1.281-.349A1.047,1.047,0,0,0,669.753,97.423Z"/><path d="M674.761,98.654a2.008,2.008,0,0,0,1.331-.447,1.576,1.576,0,0,0,.58-1.159h.73a2.144,2.144,0,0,1-.394,1.146,2.465,2.465,0,0,1-.961.81,2.913,2.913,0,0,1-1.286.292,2.65,2.65,0,0,1-2.142-.94,3.8,3.8,0,0,1-.791-2.526V95.6a4.306,4.306,0,0,1,.355-1.8A2.737,2.737,0,0,1,673.2,92.6a2.8,2.8,0,0,1,1.552-.426,2.648,2.648,0,0,1,1.862.673,2.451,2.451,0,0,1,.785,1.771h-.73a1.837,1.837,0,0,0-1.917-1.8,1.893,1.893,0,0,0-1.6.743,3.358,3.358,0,0,0-.568,2.082v.222a3.283,3.283,0,0,0,.568,2.05A1.907,1.907,0,0,0,674.761,98.654Z"/><path d="M679.674,93.462a2.681,2.681,0,0,1,.959-.952,2.509,2.509,0,0,1,1.275-.337,2.059,2.059,0,0,1,1.644.623,2.805,2.805,0,0,1,.546,1.866v4.507h-.755V94.655a2.1,2.1,0,0,0-.39-1.371,1.532,1.532,0,0,0-1.229-.45,1.923,1.923,0,0,0-1.247.441,2.575,2.575,0,0,0-.8,1.19v4.7h-.755v-9.75h.755Z"/><path d="M688.193,98.121l2.088-5.821h.781L688.5,99.169h-.616L685.3,92.3h.782Z"/><path d="M696.547,99.169a3.593,3.593,0,0,1-.147-.959,2.651,2.651,0,0,1-1.018.8,3.133,3.133,0,0,1-1.312.283,2.307,2.307,0,0,1-1.6-.553,1.8,1.8,0,0,1-.612-1.4,1.837,1.837,0,0,1,.835-1.587,4.01,4.01,0,0,1,2.326-.584h1.378V94.4a1.5,1.5,0,0,0-.454-1.158,1.874,1.874,0,0,0-1.323-.422,2.075,2.075,0,0,0-1.315.406,1.207,1.207,0,0,0-.52.977l-.762-.006a1.767,1.767,0,0,1,.762-1.419,2.938,2.938,0,0,1,1.872-.6,2.675,2.675,0,0,1,1.813.575,2.063,2.063,0,0,1,.682,1.6V97.6a4,4,0,0,0,.21,1.491v.077Zm-2.387-.546a2.552,2.552,0,0,0,1.361-.368,2.172,2.172,0,0,0,.873-.984V95.76h-1.359a3.405,3.405,0,0,0-1.777.415,1.25,1.25,0,0,0-.641,1.108,1.224,1.224,0,0,0,.429.959A1.613,1.613,0,0,0,694.16,98.623Z"/><path d="M700.025,99.169h-.762v-9.75h.762Z"/><path d="M706.506,98.3a2.469,2.469,0,0,1-2.19,1,2.128,2.128,0,0,1-1.67-.638,2.793,2.793,0,0,1-.584-1.889V92.3h.756v4.374q0,1.962,1.586,1.961a1.946,1.946,0,0,0,2.089-1.364V92.3h.762v6.869h-.737Z"/><path d="M710.048,92.3v7.687a2.09,2.09,0,0,1-.457,1.454,1.728,1.728,0,0,1-1.346.5,1.932,1.932,0,0,1-.667-.12l.014-.623a1.989,1.989,0,0,0,.57.082q1.131,0,1.131-1.3V92.3Zm-.374-2.494a.494.494,0,0,1,.526.511.492.492,0,0,1-.14.359.51.51,0,0,1-.386.145.494.494,0,0,1-.379-.145.506.506,0,0,1-.136-.359.521.521,0,0,1,.136-.363A.488.488,0,0,1,709.674,89.806Z"/><path d="M713.425,89.5h.92l-1.466,1.777-.666,0Zm-.394,9.674h-.762V92.3h.762Z"/><path d="M671.162,109.8a4.138,4.138,0,0,1-.711,2.549,2.267,2.267,0,0,1-1.9.943,2.545,2.545,0,0,1-2.159-.991v3.5h-.755V106.3h.7l.038.972a2.437,2.437,0,0,1,2.151-1.1,2.288,2.288,0,0,1,1.934.934,4.237,4.237,0,0,1,.7,2.589Zm-.762-.133a3.539,3.539,0,0,0-.539-2.076,1.742,1.742,0,0,0-1.5-.761,2,2,0,0,0-1.968,1.314v3.294a2.012,2.012,0,0,0,.782.9,2.242,2.242,0,0,0,1.2.311,1.722,1.722,0,0,0,1.5-.765A3.847,3.847,0,0,0,670.4,109.671Z"/><path d="M677.261,112.3a2.466,2.466,0,0,1-2.189,1,2.128,2.128,0,0,1-1.67-.638,2.8,2.8,0,0,1-.584-1.889V106.3h.756v4.374q0,1.962,1.587,1.961a1.947,1.947,0,0,0,2.089-1.364V106.3h.761v6.869h-.736Z"/><path d="M685.513,109.8a4.131,4.131,0,0,1-.711,2.549,2.269,2.269,0,0,1-1.91.943,2.469,2.469,0,0,1-2.171-1.067l-.032.94h-.711v-9.75h.756V107.3a2.388,2.388,0,0,1,2.146-1.124,2.294,2.294,0,0,1,1.926.93,4.187,4.187,0,0,1,.707,2.587Zm-.761-.133a3.579,3.579,0,0,0-.527-2.1,1.715,1.715,0,0,0-1.485-.739,2.094,2.094,0,0,0-1.238.358,2.184,2.184,0,0,0-.768,1.051v3.1a2.035,2.035,0,0,0,2.019,1.3,1.7,1.7,0,0,0,1.469-.742A3.82,3.82,0,0,0,684.752,109.671Z"/><path d="M688.041,113.169h-.762v-9.75h.762Z"/><path d="M690.058,104.317a.507.507,0,0,1,.141-.363.5.5,0,0,1,.381-.148.5.5,0,0,1,.526.511.494.494,0,0,1-.142.359.516.516,0,0,1-.384.145.5.5,0,0,1-.381-.145A.493.493,0,0,1,690.058,104.317Zm.9,8.852h-.762V106.3h.762Z"/><path d="M694.648,109.709l-.869.838v2.622h-.762v-9.75h.762v6.239l.717-.774,2.628-2.584h.958l-2.913,2.895,3.167,3.974h-.908Z"/><path d="M703.718,113.169a3.566,3.566,0,0,1-.145-.959,2.647,2.647,0,0,1-1.019.8,3.124,3.124,0,0,1-1.31.283,2.308,2.308,0,0,1-1.6-.553,1.8,1.8,0,0,1-.612-1.4,1.837,1.837,0,0,1,.835-1.587,4.014,4.014,0,0,1,2.326-.584h1.377V108.4a1.5,1.5,0,0,0-.453-1.158,1.875,1.875,0,0,0-1.324-.422,2.07,2.07,0,0,0-1.314.406,1.21,1.21,0,0,0-.52.977l-.762-.006a1.767,1.767,0,0,1,.762-1.419,2.939,2.939,0,0,1,1.873-.6,2.673,2.673,0,0,1,1.811.575,2.06,2.06,0,0,1,.683,1.6v3.25a4.043,4.043,0,0,0,.209,1.491v.077Zm-2.386-.546a2.555,2.555,0,0,0,1.362-.368,2.175,2.175,0,0,0,.872-.984V109.76h-1.357a3.407,3.407,0,0,0-1.778.415,1.25,1.25,0,0,0-.641,1.108,1.226,1.226,0,0,0,.428.959A1.614,1.614,0,0,0,701.332,112.623Z"/><path d="M708.886,112.654a2.008,2.008,0,0,0,1.331-.447,1.576,1.576,0,0,0,.58-1.159h.73a2.144,2.144,0,0,1-.394,1.146,2.465,2.465,0,0,1-.961.81,2.913,2.913,0,0,1-1.286.292,2.65,2.65,0,0,1-2.142-.94,3.8,3.8,0,0,1-.791-2.526V109.6a4.306,4.306,0,0,1,.355-1.8,2.737,2.737,0,0,1,1.02-1.206,2.8,2.8,0,0,1,1.552-.426,2.648,2.648,0,0,1,1.862.673,2.451,2.451,0,0,1,.785,1.771h-.73a1.837,1.837,0,0,0-1.917-1.8,1.893,1.893,0,0,0-1.6.743,3.358,3.358,0,0,0-.568,2.082v.222a3.283,3.283,0,0,0,.568,2.05A1.907,1.907,0,0,0,708.886,112.654Z"/><path d="M713,104.317a.514.514,0,0,1,.138-.363.5.5,0,0,1,.381-.148.511.511,0,0,1,.385.148.505.505,0,0,1,.143.363.491.491,0,0,1-.143.359.516.516,0,0,1-.385.145.506.506,0,0,1-.381-.145A.5.5,0,0,1,713,104.317Zm.894,8.852h-.761V106.3h.761Z"/><circle class="cls-6" cx="640.707" cy="75.99" r="15.942"/><polyline class="cls-7" points="638.276 75.827 639.829 77.381 643.08 74.129"/><path class="cls-8" d="M641.368,65.706l.92.665a.918.918,0,0,0,.87.2l1.073-.256a1.13,1.13,0,0,1,1.227.563l.563.971a.984.984,0,0,0,.767.563l1.022.2a1.136,1.136,0,0,1,.92.972l.1,1.124a1.2,1.2,0,0,0,.46.818l.92.614a1.14,1.14,0,0,1,.409,1.278l-.358,1.074a1.151,1.151,0,0,0,.1.92l.563.92a1.077,1.077,0,0,1-.154,1.329l-.767.87a1.1,1.1,0,0,0-.255.869l.1,1.073a1.131,1.131,0,0,1-.665,1.176l-1.022.46a1.085,1.085,0,0,0-.614.716l-.357,1.023a1.062,1.062,0,0,1-1.074.766H645a1.07,1.07,0,0,0-.818.409l-.716.767a1.114,1.114,0,0,1-1.329.307l-1.022-.46a.981.981,0,0,0-.921,0l-.971.46a1.114,1.114,0,0,1-1.329-.307l-.767-.818a.927.927,0,0,0-.869-.358h-1.074a1.154,1.154,0,0,1-1.074-.766l-.358-1.125a1.119,1.119,0,0,0-.613-.665l-.971-.409a1.131,1.131,0,0,1-.665-1.176l.1-1.124a.938.938,0,0,0-.307-.87l-.715-.818a1.077,1.077,0,0,1-.154-1.329l.563-.971a1.176,1.176,0,0,0,.1-.921l-.358-1.022a1.14,1.14,0,0,1,.409-1.278l.92-.665a1.039,1.039,0,0,0,.46-.818l.1-1.073a1.136,1.136,0,0,1,.92-.972l1.074-.256a.981.981,0,0,0,.766-.562l.512-.92a1.1,1.1,0,0,1,1.227-.563l1.125.256a1.234,1.234,0,0,0,.92-.2l.818-.665A1.336,1.336,0,0,1,641.368,65.706Z"/><circle class="cls-7" cx="640.678" cy="75.861" r="7.283"/><path d="M385.507,69.156l2.348-7.23h1.765l-3.326,9.243h-1.556l-3.313-9.243h1.758Z"/><path d="M393.258,71.3a3.19,3.19,0,0,1-2.378-.924,3.353,3.353,0,0,1-.912-2.46v-.19a4.113,4.113,0,0,1,.4-1.838,3.019,3.019,0,0,1,1.114-1.26,2.948,2.948,0,0,1,1.6-.451,2.7,2.7,0,0,1,2.167.895,3.78,3.78,0,0,1,.764,2.533v.622h-4.487a2.057,2.057,0,0,0,.568,1.346,1.707,1.707,0,0,0,1.253.495,2.088,2.088,0,0,0,1.727-.857L395.9,70a2.779,2.779,0,0,1-1.1.955A3.45,3.45,0,0,1,393.258,71.3Zm-.3-8.9.926-.984h1.321v.064l-1.771,1.771h-.953l-1.758-1.778v-.057h1.308Zm.114,3.015a1.3,1.3,0,0,0-1.025.445,2.3,2.3,0,0,0-.5,1.237h2.938v-.114a1.87,1.87,0,0,0-.412-1.171A1.291,1.291,0,0,0,393.073,65.411Z"/><path d="M396.92,67.684a4.09,4.09,0,0,1,.736-2.549,2.358,2.358,0,0,1,1.975-.962,2.238,2.238,0,0,1,1.763.762V61.419h1.543v9.75h-1.4l-.076-.711a2.277,2.277,0,0,1-1.848.838,2.343,2.343,0,0,1-1.951-.972A4.225,4.225,0,0,1,396.92,67.684Zm1.543.133a2.86,2.86,0,0,0,.4,1.635,1.308,1.308,0,0,0,1.146.587,1.456,1.456,0,0,0,1.383-.845V66.262a1.434,1.434,0,0,0-1.371-.825,1.314,1.314,0,0,0-1.154.593A3.177,3.177,0,0,0,398.463,67.817Z"/><path d="M407.368,70.064a1.393,1.393,0,0,0,.958-.336,1.146,1.146,0,0,0,.406-.832h1.454a2.261,2.261,0,0,1-.4,1.2,2.627,2.627,0,0,1-1.016.88,3.026,3.026,0,0,1-1.385.324,2.928,2.928,0,0,1-2.285-.934,3.7,3.7,0,0,1-.843-2.577v-.158a3.643,3.643,0,0,1,.837-2.511,2.905,2.905,0,0,1,2.286-.943,2.827,2.827,0,0,1,2,.714,2.563,2.563,0,0,1,.809,1.876h-1.454a1.407,1.407,0,0,0-.4-.971,1.3,1.3,0,0,0-.962-.381,1.357,1.357,0,0,0-1.155.543A2.759,2.759,0,0,0,405.8,67.6v.248a2.814,2.814,0,0,0,.4,1.666A1.357,1.357,0,0,0,407.368,70.064Z"/><path d="M411.354,62.517a.818.818,0,0,1,.226-.591.852.852,0,0,1,.644-.234.863.863,0,0,1,.647.234.816.816,0,0,1,.228.591.792.792,0,0,1-.228.58.866.866,0,0,1-.647.232.855.855,0,0,1-.644-.232A.794.794,0,0,1,411.354,62.517Zm1.638,8.652h-1.543V64.3h1.543Z"/><path d="M387.824,81.8a4.138,4.138,0,0,1-.711,2.549,2.267,2.267,0,0,1-1.9.943,2.545,2.545,0,0,1-2.159-.991v3.5H382.3V78.3h.7l.037.972a2.44,2.44,0,0,1,2.152-1.1,2.29,2.29,0,0,1,1.934.934,4.23,4.23,0,0,1,.7,2.589Zm-.762-.133a3.524,3.524,0,0,0-.54-2.076,1.742,1.742,0,0,0-1.5-.761,2,2,0,0,0-1.967,1.314v3.294a2.01,2.01,0,0,0,.781.9,2.246,2.246,0,0,0,1.2.311,1.719,1.719,0,0,0,1.494-.765A3.839,3.839,0,0,0,387.062,81.671Z"/><path d="M390.737,75.5h.921l-1.467,1.777-.666,0Zm-.394,9.674h-.761V78.3h.761Z"/><path d="M396.513,83.423a1.083,1.083,0,0,0-.454-.908,3.5,3.5,0,0,0-1.368-.536,6.169,6.169,0,0,1-1.418-.444,1.9,1.9,0,0,1-.749-.613,1.527,1.527,0,0,1-.245-.876,1.634,1.634,0,0,1,.68-1.342,2.741,2.741,0,0,1,1.739-.531,2.82,2.82,0,0,1,1.844.569,1.819,1.819,0,0,1,.7,1.482h-.762a1.228,1.228,0,0,0-.5-1,2.277,2.277,0,0,0-2.475-.067,1.031,1.031,0,0,0-.454.867.938.938,0,0,0,.378.8,3.989,3.989,0,0,0,1.378.518,6.442,6.442,0,0,1,1.5.5,1.949,1.949,0,0,1,.739.641,1.764,1.764,0,0,1-.46,2.3,3,3,0,0,1-1.832.521,3.074,3.074,0,0,1-1.945-.582,1.787,1.787,0,0,1-.747-1.469h.762a1.318,1.318,0,0,0,.563,1.038,2.288,2.288,0,0,0,1.367.371,2.159,2.159,0,0,0,1.283-.349A1.049,1.049,0,0,0,396.513,83.423Zm-1.7-6.684,1.092-1.232h.68v.077l-1.5,1.656h-.547l-1.5-1.663v-.07h.679Z"/><path d="M400.215,75.5h.919l-1.466,1.777-.666,0Zm-.395,9.674h-.762V78.3h.762Z"/><path d="M407.177,84.121l2.088-5.821h.782l-2.565,6.869h-.615L404.289,78.3h.781Z"/><path d="M413.868,85.3a2.975,2.975,0,0,1-1.583-.432,2.936,2.936,0,0,1-1.1-1.2,3.756,3.756,0,0,1-.394-1.73v-.273a4.037,4.037,0,0,1,.385-1.783,3.042,3.042,0,0,1,1.069-1.247,2.636,2.636,0,0,1,1.485-.455,2.486,2.486,0,0,1,1.985.854,3.467,3.467,0,0,1,.732,2.333v.425h-4.9v.146a2.868,2.868,0,0,0,.67,1.946,2.129,2.129,0,0,0,1.685.777,2.481,2.481,0,0,0,1.076-.222,2.384,2.384,0,0,0,.847-.711l.476.362A2.774,2.774,0,0,1,413.868,85.3Zm-.14-6.475a1.894,1.894,0,0,0-1.443.628,2.891,2.891,0,0,0-.715,1.689h4.119v-.083a2.516,2.516,0,0,0-.564-1.612A1.751,1.751,0,0,0,413.728,78.821Zm.076-2.082,1.092-1.232h.68v.077l-1.5,1.656h-.547l-1.5-1.663v-.07h.68Z"/><path d="M417.619,81.671a4.132,4.132,0,0,1,.715-2.548,2.3,2.3,0,0,1,1.939-.95,2.388,2.388,0,0,1,2.119,1.1V75.419h.756v9.75h-.711l-.031-.914a2.457,2.457,0,0,1-2.147,1.041,2.293,2.293,0,0,1-1.914-.956,4.164,4.164,0,0,1-.726-2.58Zm.768.133a3.586,3.586,0,0,0,.527,2.073,1.7,1.7,0,0,0,1.486.758,2.041,2.041,0,0,0,1.992-1.237V80.173a2.026,2.026,0,0,0-1.98-1.339,1.724,1.724,0,0,0-1.491.752A3.823,3.823,0,0,0,418.387,81.8Z"/><path d="M427.807,85.3a2.975,2.975,0,0,1-1.583-.432,2.933,2.933,0,0,1-1.1-1.2,3.744,3.744,0,0,1-.395-1.73v-.273a4.037,4.037,0,0,1,.385-1.783,3.049,3.049,0,0,1,1.069-1.247,2.637,2.637,0,0,1,1.486-.455,2.483,2.483,0,0,1,1.984.854,3.467,3.467,0,0,1,.732,2.333v.425h-4.9v.146a2.873,2.873,0,0,0,.67,1.946,2.131,2.131,0,0,0,1.686.777,2.484,2.484,0,0,0,1.076-.222,2.39,2.39,0,0,0,.846-.711l.476.362A2.773,2.773,0,0,1,427.807,85.3Zm-.139-6.475a1.9,1.9,0,0,0-1.444.628,2.9,2.9,0,0,0-.715,1.689h4.12v-.083a2.517,2.517,0,0,0-.565-1.612A1.748,1.748,0,0,0,427.668,78.821Z"/><path d="M434.4,84.654a2,2,0,0,0,1.33-.447,1.574,1.574,0,0,0,.581-1.159h.73a2.16,2.16,0,0,1-.393,1.146,2.471,2.471,0,0,1-.963.81,2.9,2.9,0,0,1-1.285.292,2.656,2.656,0,0,1-2.143-.94,3.806,3.806,0,0,1-.789-2.526V81.6a4.29,4.29,0,0,1,.356-1.8,2.732,2.732,0,0,1,1.017-1.206,2.818,2.818,0,0,1,1.553-.426,2.649,2.649,0,0,1,1.863.673,2.454,2.454,0,0,1,.784,1.771h-.73a1.838,1.838,0,0,0-1.917-1.8,1.891,1.891,0,0,0-1.6.743,3.365,3.365,0,0,0-.568,2.082v.222a3.289,3.289,0,0,0,.568,2.05A1.9,1.9,0,0,0,434.4,84.654Z"/><path d="M440.191,81.709l-.869.838v2.622h-.762v-9.75h.762v6.239l.717-.774,2.629-2.584h.958l-2.913,2.895,3.167,3.974h-.908Z"/><path d="M447.46,85.3a2.972,2.972,0,0,1-1.583-.432,2.936,2.936,0,0,1-1.1-1.2,3.743,3.743,0,0,1-.394-1.73v-.273a4.036,4.036,0,0,1,.384-1.783,3.052,3.052,0,0,1,1.07-1.247,2.636,2.636,0,0,1,1.485-.455,2.483,2.483,0,0,1,1.984.854,3.462,3.462,0,0,1,.733,2.333v.425h-4.9v.146a2.873,2.873,0,0,0,.67,1.946,2.132,2.132,0,0,0,1.686.777,2.481,2.481,0,0,0,1.076-.222,2.384,2.384,0,0,0,.847-.711l.475.362A2.771,2.771,0,0,1,447.46,85.3Zm-.14-6.475a1.894,1.894,0,0,0-1.443.628,2.891,2.891,0,0,0-.715,1.689h4.119v-.083a2.522,2.522,0,0,0-.564-1.612A1.751,1.751,0,0,0,447.32,78.821Zm.844-3.4h.921L447.619,77.2l-.667,0Z"/><path d="M384.84,98.654a2,2,0,0,0,1.33-.447,1.581,1.581,0,0,0,.581-1.159h.729a2.15,2.15,0,0,1-.392,1.146,2.485,2.485,0,0,1-.963.81,2.9,2.9,0,0,1-1.285.292,2.654,2.654,0,0,1-2.143-.94,3.806,3.806,0,0,1-.789-2.526V95.6a4.29,4.29,0,0,1,.355-1.8,2.74,2.74,0,0,1,1.018-1.206,2.815,2.815,0,0,1,1.553-.426,2.649,2.649,0,0,1,1.863.673,2.453,2.453,0,0,1,.783,1.771h-.729a1.838,1.838,0,0,0-1.917-1.8,1.89,1.89,0,0,0-1.6.743,3.358,3.358,0,0,0-.568,2.082v.222a3.283,3.283,0,0,0,.568,2.05A1.9,1.9,0,0,0,384.84,98.654Zm-.114-7.915,1.092-1.232h.679v.077L385,91.24h-.546l-1.5-1.663v-.07h.679Z"/><path d="M389.848,99.169h-.761v-9.75h.761Z"/><path d="M396.247,99.169a3.6,3.6,0,0,1-.146-.959,2.654,2.654,0,0,1-1.019.8,3.125,3.125,0,0,1-1.311.283,2.305,2.305,0,0,1-1.6-.553,1.8,1.8,0,0,1-.612-1.4,1.838,1.838,0,0,1,.834-1.587,4.015,4.015,0,0,1,2.327-.584h1.377V94.4a1.5,1.5,0,0,0-.454-1.158,1.872,1.872,0,0,0-1.323-.422,2.067,2.067,0,0,0-1.313.406,1.207,1.207,0,0,0-.522.977l-.762-.006a1.767,1.767,0,0,1,.762-1.419,2.941,2.941,0,0,1,1.873-.6,2.679,2.679,0,0,1,1.813.575,2.059,2.059,0,0,1,.681,1.6V97.6a4.04,4.04,0,0,0,.21,1.491v.077Zm-2.387-.546a2.555,2.555,0,0,0,1.362-.368,2.175,2.175,0,0,0,.872-.984V95.76h-1.358a3.4,3.4,0,0,0-1.777.415,1.248,1.248,0,0,0-.641,1.108,1.229,1.229,0,0,0,.428.959A1.613,1.613,0,0,0,393.86,98.623Zm1.5-9.2h.921L394.812,91.2l-.666,0Z"/><path d="M399.6,92.3l.026,1.175a2.73,2.73,0,0,1,.965-.969,2.518,2.518,0,0,1,1.276-.333,2.058,2.058,0,0,1,1.643.623,2.794,2.794,0,0,1,.546,1.866v4.507H403.3V94.655a2.1,2.1,0,0,0-.39-1.371,1.532,1.532,0,0,0-1.229-.45,1.923,1.923,0,0,0-1.247.441,2.566,2.566,0,0,0-.8,1.19v4.7h-.756V92.3Z"/><path d="M407.647,95.709l-.87.838v2.622h-.762v-9.75h.762v6.239l.718-.774,2.628-2.584h.959L408.168,95.2l3.168,3.974h-.909Z"/><path d="M414.56,98.077l2.006-5.777h.818l-2.932,8.037-.152.355a1.844,1.844,0,0,1-1.746,1.251,2.138,2.138,0,0,1-.584-.089l-.006-.629.393.038a1.4,1.4,0,0,0,.9-.276,2.092,2.092,0,0,0,.588-.949l.336-.927L411.6,92.3h.832Z"/><circle class="cls-9" cx="357.368" cy="75.99" r="15.942"/><polygon class="cls-4" points="348.178 84.405 349.795 83.7 348.884 82.789 348.178 84.405"/><polygon class="cls-4" points="349.114 82.261 350.323 83.469 351.581 82.919 349.663 81 349.114 82.261"/><rect class="cls-4" x="349.42" y="76.275" width="15.039" height="1.213" transform="translate(50.182 274.912) rotate(-45)"/><rect class="cls-4" x="348.183" y="75.037" width="15.038" height="1.213" transform="translate(50.749 273.758) rotate(-45.016)"/><path class="cls-4" d="M365.783,66.8a1.515,1.515,0,0,0-2.094,0l-.973.973,2.094,2.095.973-.973,0,0A1.48,1.48,0,0,0,365.783,66.8Z"/><rect class="cls-4" x="361.735" y="68.402" width="1.93" height="2.963" transform="translate(56.771 276.867) rotate(-44.987)"/><path d="M366.163,66.42a2.066,2.066,0,0,0-2.854,0l-1.163,1.163L349.392,80.336l0,.006v0a.268.268,0,0,0-.059.078l-1.916,4.395a.268.268,0,0,0,.354.353l4.392-1.918.083-.056,11.013-11.013L365,70.442l1.162-1.163a2.018,2.018,0,0,0,0-2.859ZM360.59,69.9l.858.857L350.814,81.389l-.858-.858ZM350.323,83.469l-.528.231-1.617.7.706-1.616.23-.528L349.663,81l1.918,1.919Zm1.728-.841-.858-.858,10.635-10.634.857.857Zm11.014-11.015-2.094-2.095,1.364-1.365,2.1,2.095Zm2.721-2.72,0,0-.973.973-2.094-2.095.973-.973a1.515,1.515,0,0,1,2.094,0A1.48,1.48,0,0,1,365.786,68.893Z"/><path d="M363.6,80.989a20.079,20.079,0,0,0-6.177.519c-.574.137-.9.366-.989.7-.158.574.454,1.175,1.1,1.81.4.393,1.006.986.915,1.207-.026.062-.248.372-2.134.372h-8.684a.268.268,0,1,0-.023.536.089.089,0,0,0,.023,0h8.685c1.642,0,2.428-.21,2.63-.7.226-.555-.387-1.157-1.037-1.793-.437-.428-1.036-1.014-.961-1.284.016-.057.106-.2.6-.32a19.989,19.989,0,0,1,5.994-.508.261.261,0,0,0,.293-.226l0-.013A.268.268,0,0,0,363.6,80.989Z"/><polyline class="cls-10" points="361.353 70.659 350.716 81.296 351.305 81.884 361.942 71.247 361.353 70.659"/><g class="cls-11"><line class="cls-12" x1="321.488" y1="65.359" x2="332.342" y2="65.359"/><polygon class="cls-13" points="329.029 69.449 328.346 68.716 331.958 65.36 328.346 62.003 329.029 61.27 333.426 65.36 329.029 69.449"/></g><g class="cls-11"><line class="cls-12" x1="459.725" y1="65.359" x2="470.58" y2="65.359"/><polygon class="cls-13" points="467.266 69.449 466.584 68.716 470.196 65.36 466.584 62.003 467.266 61.27 471.664 65.36 467.266 69.449"/></g><g class="cls-11"><line class="cls-12" x1="604.826" y1="65.359" x2="615.68" y2="65.359"/><polygon class="cls-13" points="612.367 69.449 611.685 68.716 615.297 65.36 611.685 62.003 612.367 61.27 616.765 65.36 612.367 69.449"/></g></svg>