<svg id="Layer_1" data-name="Layer 1" xmlns="http://www.w3.org/2000/svg" viewBox="0 0 740 136.043"><defs><style>.cls-1{fill:#586c80;}.cls-2{fill:#f79219;}.cls-10,.cls-2,.cls-5{opacity:0.1;}.cls-11,.cls-3,.cls-4,.cls-8{fill:none;}.cls-3{stroke:#000;stroke-linecap:round;stroke-width:0.68px;}.cls-11,.cls-3,.cls-8{stroke-miterlimit:10;}.cls-5{fill:#ed2112;}.cls-6{fill:#231f20;}.cls-7{opacity:0.6;}.cls-8{stroke:#606060;}.cls-9{fill:#606060;}.cls-10{fill:#00997f;}.cls-11{stroke:#8395a7;stroke-width:3.475px;opacity:0.5;}</style></defs><path class="cls-1" d="M108.043,28.016h5.375v1.766H105.3v-1.29l5.273-7.6H105.3v-1.78h8v1.26Z"/><path class="cls-1" d="M122.043,27.584h-3.852l-.732,2.2h-2.338l3.971-10.665h2.035l3.992,10.665h-2.336Zm-3.26-1.78h2.666l-1.34-3.991Zm1.781-9.543h2.307l-2.029,2.271h-1.721Z"/><path class="cls-1" d="M130.58,25.5l-1.143,1.231v3.047h-2.2V19.117h2.2v4.834l.967-1.325,2.719-3.509h2.7l-3.785,4.739,3.9,5.926H133.32Z"/><path class="cls-1" d="M140.084,28.016h4.666v1.766h-6.864V19.117h2.2Z"/><path class="cls-1" d="M153.295,27.584h-3.854l-.732,2.2h-2.336l3.97-10.665h2.036l3.992,10.665h-2.336Zm-3.26-1.78H152.7l-1.34-3.991Z"/><path class="cls-1" d="M158.492,29.782V19.117h3.281a4.987,4.987,0,0,1,2.516.634,4.425,4.425,0,0,1,1.732,1.8,5.57,5.57,0,0,1,.621,2.655V24.7a5.571,5.571,0,0,1-.611,2.644,4.367,4.367,0,0,1-1.725,1.794,5.019,5.019,0,0,1-2.511.645Zm2.2-8.885v7.119h1.061a2.383,2.383,0,0,0,1.97-.842,3.8,3.8,0,0,0,.7-2.41V24.2a3.868,3.868,0,0,0-.674-2.464,2.377,2.377,0,0,0-1.969-.839Z"/><path class="cls-1" d="M175.781,25.16h-4.219v2.856h4.951v1.766h-7.148V19.117H176.5V20.9h-4.938v2.542h4.219Z"/><path class="cls-1" d="M181.8,19.117l2.74,7.735,2.724-7.735h2.885V29.782h-2.2V26.867l.219-5.032-2.879,7.947h-1.508l-2.871-7.94.219,5.025v2.915h-2.2V19.117Z"/><path class="cls-1" d="M200.25,26.024v3.758h-2.2V19.117h4.161a4.815,4.815,0,0,1,2.113.44,3.233,3.233,0,0,1,1.4,1.249,3.475,3.475,0,0,1,.492,1.842,3.06,3.06,0,0,1-1.074,2.471,4.462,4.462,0,0,1-2.969.905Zm0-1.78h1.963a1.927,1.927,0,0,0,1.33-.41A1.5,1.5,0,0,0,204,22.662a1.759,1.759,0,0,0-.461-1.267,1.725,1.725,0,0,0-1.274-.5H200.25Z"/><path class="cls-1" d="M212.8,25.878h-1.75v3.9h-2.2V19.117h3.961a4.478,4.478,0,0,1,2.916.843,2.905,2.905,0,0,1,1.026,2.38,3.286,3.286,0,0,1-.473,1.82,3.225,3.225,0,0,1-1.432,1.161l2.307,4.358v.1H214.8Zm-1.75-1.78h1.772a1.81,1.81,0,0,0,1.281-.421,1.506,1.506,0,0,0,.455-1.161,1.614,1.614,0,0,0-.427-1.187,1.789,1.789,0,0,0-1.317-.432H211.05Z"/><path class="cls-1" d="M228.31,24.691a6.437,6.437,0,0,1-.556,2.761,4.206,4.206,0,0,1-1.592,1.832,4.709,4.709,0,0,1-4.742.007,4.217,4.217,0,0,1-1.612-1.82,6.27,6.27,0,0,1-.58-2.721v-.528a6.4,6.4,0,0,1,.569-2.772,4.221,4.221,0,0,1,1.6-1.838,4.7,4.7,0,0,1,4.738,0,4.227,4.227,0,0,1,1.606,1.838,6.405,6.405,0,0,1,.566,2.765Zm-2.226-.483a4.492,4.492,0,0,0-.6-2.549,2.121,2.121,0,0,0-3.42-.011,4.433,4.433,0,0,0-.609,2.523v.52a4.545,4.545,0,0,0,.6,2.534,2.1,2.1,0,0,0,3.428.033,4.512,4.512,0,0,0,.6-2.53Z"/><path class="cls-1" d="M244.572,29.782h-2.2V25.211H238.09v4.571h-2.2V19.117h2.2v4.322h4.285V19.117h2.2Z"/><path class="cls-1" d="M256.375,24.691a6.437,6.437,0,0,1-.557,2.761,4.2,4.2,0,0,1-1.592,1.832,4.709,4.709,0,0,1-4.742.007,4.222,4.222,0,0,1-1.611-1.82,6.27,6.27,0,0,1-.58-2.721v-.528a6.4,6.4,0,0,1,.568-2.772,4.223,4.223,0,0,1,1.6-1.838,4.7,4.7,0,0,1,4.738,0,4.231,4.231,0,0,1,1.6,1.838,6.405,6.405,0,0,1,.567,2.765Zm-2.227-.483a4.492,4.492,0,0,0-.6-2.549,2.121,2.121,0,0,0-3.42-.011,4.424,4.424,0,0,0-.61,2.523v.52a4.536,4.536,0,0,0,.6,2.534,2.1,2.1,0,0,0,3.428.033,4.521,4.521,0,0,0,.6-2.53Z"/><path class="cls-1" d="M259.1,29.782V19.117h3.282a4.986,4.986,0,0,1,2.515.634,4.428,4.428,0,0,1,1.733,1.8,5.57,5.57,0,0,1,.621,2.655V24.7a5.56,5.56,0,0,1-.612,2.644,4.371,4.371,0,0,1-1.724,1.794,5.02,5.02,0,0,1-2.512.645Zm2.2-8.885v7.119h1.06a2.384,2.384,0,0,0,1.971-.842,3.8,3.8,0,0,0,.695-2.41V24.2a3.862,3.862,0,0,0-.674-2.464,2.375,2.375,0,0,0-1.968-.839Z"/><path class="cls-1" d="M278.642,29.782h-2.2l-4.277-7.017v7.017h-2.2V19.117h2.2l4.285,7.032V19.117h2.189Z"/><path class="cls-1" d="M290.445,24.691a6.437,6.437,0,0,1-.557,2.761,4.2,4.2,0,0,1-1.591,1.832,4.711,4.711,0,0,1-4.743.007,4.222,4.222,0,0,1-1.611-1.82,6.27,6.27,0,0,1-.58-2.721v-.528a6.4,6.4,0,0,1,.568-2.772,4.223,4.223,0,0,1,1.6-1.838,4.7,4.7,0,0,1,4.738,0,4.227,4.227,0,0,1,1.606,1.838,6.405,6.405,0,0,1,.566,2.765Zm-2.227-.483a4.492,4.492,0,0,0-.6-2.549,2.121,2.121,0,0,0-3.42-.011,4.425,4.425,0,0,0-.609,2.523v.52a4.545,4.545,0,0,0,.6,2.534,2.1,2.1,0,0,0,3.428.033,4.513,4.513,0,0,0,.6-2.53Z"/><path class="cls-1" d="M300.572,20.9h-3.266v8.885h-2.2V20.9h-3.223v-1.78h8.686Z"/><path class="cls-1" d="M305.287,29.782h-2.2V19.117h2.2Zm-.682-13.543h2.307l-2.029,2.271h-1.721Z"/><path class="cls-1" d="M316.82,26.229a3.781,3.781,0,0,1-1.271,2.71,4.466,4.466,0,0,1-3.022.989,4.014,4.014,0,0,1-3.227-1.381,5.662,5.662,0,0,1-1.175-3.79v-.652a6.386,6.386,0,0,1,.543-2.71,4.06,4.06,0,0,1,1.549-1.8,4.842,4.842,0,0,1,5.314.363,4.061,4.061,0,0,1,1.3,2.776h-2.2a2.235,2.235,0,0,0-.574-1.5,2.132,2.132,0,0,0-1.506-.465,1.866,1.866,0,0,0-1.644.787A4.421,4.421,0,0,0,310.351,24v.8a4.731,4.731,0,0,0,.524,2.527,1.834,1.834,0,0,0,1.652.8,2.166,2.166,0,0,0,1.52-.466,2.109,2.109,0,0,0,.576-1.439Z"/><path class="cls-1" d="M321.724,29.782h-2.2V19.117h2.2Zm-.681-13.543h2.306L321.32,18.51H319.6Z"/><path class="cls-1" d="M332.074,28.016h5.375v1.766h-8.121v-1.29l5.273-7.6h-5.267v-1.78h8v1.26Z"/><path class="cls-1" d="M342.156,26.024v3.758h-2.2V19.117h4.16a4.809,4.809,0,0,1,2.113.44,3.228,3.228,0,0,1,1.4,1.249,3.466,3.466,0,0,1,.493,1.842,3.061,3.061,0,0,1-1.075,2.471,4.459,4.459,0,0,1-2.968.905Zm0-1.78h1.963a1.927,1.927,0,0,0,1.33-.41,1.491,1.491,0,0,0,.457-1.172,1.755,1.755,0,0,0-.461-1.267,1.723,1.723,0,0,0-1.273-.5h-2.016Z"/><path class="cls-1" d="M354.709,25.878h-1.752v3.9h-2.2V19.117h3.963a4.482,4.482,0,0,1,2.916.843,2.911,2.911,0,0,1,1.026,2.38,3.277,3.277,0,0,1-.473,1.82,3.23,3.23,0,0,1-1.432,1.161l2.307,4.358v.1h-2.359Zm-1.752-1.78h1.773a1.812,1.812,0,0,0,1.281-.421,1.506,1.506,0,0,0,.456-1.161,1.616,1.616,0,0,0-.43-1.187,1.782,1.782,0,0,0-1.315-.432h-1.765Z"/><path class="cls-1" d="M367.478,27.584h-3.853l-.733,2.2h-2.336l3.971-10.665h2.035l3.992,10.665h-2.336Zm-3.26-1.78h2.666l-1.339-3.991ZM366,16.261h2.308l-2.029,2.271h-1.721Z"/><path class="cls-1" d="M376.052,27.138l2.416-8.021h2.448L377.2,29.782H374.91l-3.7-10.665h2.439Z"/><path class="cls-1" d="M391.115,19.117v7.024a3.6,3.6,0,0,1-1.1,2.769,4.218,4.218,0,0,1-2.992,1.018,4.269,4.269,0,0,1-2.965-.989,3.534,3.534,0,0,1-1.121-2.717v-7.1h2.2v7.039a2.025,2.025,0,0,0,.5,1.527,1.924,1.924,0,0,0,1.387.48q1.854,0,1.883-1.948v-7.1Z"/><path class="cls-1" d="M401.238,29.782h-2.2V19.117h2.2Z"/><path class="cls-1" d="M406.6,26.024v3.758h-2.2V19.117h4.16a4.817,4.817,0,0,1,2.114.44,3.233,3.233,0,0,1,1.4,1.249,3.475,3.475,0,0,1,.492,1.842,3.06,3.06,0,0,1-1.074,2.471,4.462,4.462,0,0,1-2.969.905Zm0-1.78h1.963a1.925,1.925,0,0,0,1.33-.41,1.491,1.491,0,0,0,.457-1.172,1.755,1.755,0,0,0-.461-1.267,1.721,1.721,0,0,0-1.273-.5H406.6Z"/><path class="cls-1" d="M423.572,26.229a3.778,3.778,0,0,1-1.272,2.71,4.461,4.461,0,0,1-3.021.989,4.014,4.014,0,0,1-3.227-1.381,5.662,5.662,0,0,1-1.175-3.79v-.652a6.386,6.386,0,0,1,.543-2.71,4.064,4.064,0,0,1,1.548-1.8,4.843,4.843,0,0,1,5.315.363,4.065,4.065,0,0,1,1.3,2.776h-2.2a2.235,2.235,0,0,0-.574-1.5,2.132,2.132,0,0,0-1.506-.465,1.866,1.866,0,0,0-1.644.787A4.413,4.413,0,0,0,417.1,24v.8a4.731,4.731,0,0,0,.524,2.527,1.834,1.834,0,0,0,1.652.8,2.166,2.166,0,0,0,1.52-.466,2.109,2.109,0,0,0,.576-1.439Z"/><path class="cls-1" d="M434.511,26.229a3.777,3.777,0,0,1-1.271,2.71,4.466,4.466,0,0,1-3.022.989,4.01,4.01,0,0,1-3.226-1.381,5.662,5.662,0,0,1-1.176-3.79v-.652a6.4,6.4,0,0,1,.543-2.71,4.06,4.06,0,0,1,1.549-1.8,4.842,4.842,0,0,1,5.314.363,4.061,4.061,0,0,1,1.3,2.776h-2.2a2.24,2.24,0,0,0-.574-1.5,2.132,2.132,0,0,0-1.506-.465,1.867,1.867,0,0,0-1.645.787,4.413,4.413,0,0,0-.56,2.443v.8a4.733,4.733,0,0,0,.523,2.527,1.836,1.836,0,0,0,1.652.8,2.166,2.166,0,0,0,1.52-.466,2.109,2.109,0,0,0,.576-1.439Z"/><path class="cls-1" d="M446.238,19.117h2.2V26.5a3.52,3.52,0,0,1-.451,1.8,3.043,3.043,0,0,1-1.269,1.205,3.978,3.978,0,0,1-1.854.425,3.774,3.774,0,0,1-2.637-.86,3.125,3.125,0,0,1-.945-2.436h2.213a1.717,1.717,0,0,0,.328,1.157,1.321,1.321,0,0,0,1.041.374,1.262,1.262,0,0,0,1-.432,1.831,1.831,0,0,0,.373-1.231Z"/><path class="cls-1" d="M457.859,25.16H453.64v2.856h4.952v1.766h-7.149V19.117h7.133V20.9H453.64v2.542h4.219Z"/><path class="cls-1" d="M469.205,25.5l-1.143,1.231v3.047h-2.2V19.117h2.2v4.834l.967-1.325,2.719-3.509h2.7l-3.785,4.739,3.9,5.926h-2.615Z"/><path class="cls-1" d="M478.709,28.016h4.666v1.766h-6.864V19.117h2.2Z"/><path class="cls-1" d="M488.1,29.782h-2.2V19.117h2.2Z"/><path class="cls-1" d="M494.129,19.117l2.738,7.735,2.725-7.735h2.886V29.782h-2.2V26.867l.219-5.032-2.877,7.947h-1.51l-2.871-7.94.221,5.025v2.915h-2.2V19.117Z"/><path class="cls-1" d="M511.674,27.584h-3.852l-.732,2.2h-2.338l3.97-10.665h2.036l3.992,10.665h-2.336Zm-3.26-1.78h2.666l-1.34-3.991Z"/><path class="cls-1" d="M524.019,20.9h-3.265v8.885h-2.2V20.9h-3.222v-1.78h8.685Z"/><path class="cls-1" d="M528.734,29.782h-2.2V19.117h2.2Z"/><path class="cls-1" d="M540.267,26.229A3.781,3.781,0,0,1,539,28.939a4.466,4.466,0,0,1-3.022.989,4.01,4.01,0,0,1-3.226-1.381,5.662,5.662,0,0,1-1.176-3.79v-.652a6.4,6.4,0,0,1,.543-2.71,4.06,4.06,0,0,1,1.549-1.8,4.842,4.842,0,0,1,5.314.363,4.061,4.061,0,0,1,1.3,2.776h-2.2a2.236,2.236,0,0,0-.575-1.5,2.131,2.131,0,0,0-1.5-.465,1.866,1.866,0,0,0-1.645.787A4.413,4.413,0,0,0,533.8,24v.8a4.733,4.733,0,0,0,.523,2.527,1.835,1.835,0,0,0,1.652.8,2.166,2.166,0,0,0,1.52-.466,2.109,2.109,0,0,0,.576-1.439Z"/><path class="cls-1" d="M546.174,25.5l-1.143,1.231v3.047h-2.2V19.117h2.2v4.834L546,22.626l2.719-3.509h2.7l-3.785,4.739,3.9,5.926h-2.615Z"/><path class="cls-1" d="M557.158,23.922l2.219-4.8h2.4l-3.5,6.8v3.868h-2.234V25.914l-3.5-6.8h2.41Zm.447-7.661h2.307l-2.029,2.271h-1.721Z"/><path class="cls-1" d="M572.679,27.138l2.416-8.021h2.448L573.83,29.782h-2.293l-3.7-10.665h2.439Z"/><path class="cls-1" d="M583.347,23.922l2.219-4.8h2.4l-3.5,6.8v3.868h-2.234V25.914l-3.5-6.8h2.41Zm.448-7.661H586.1l-2.029,2.271h-1.721Z"/><path class="cls-1" d="M592.4,28.016h5.375v1.766h-8.121v-1.29l5.273-7.6h-5.267v-1.78h8v1.26Z"/><path class="cls-1" d="M603.623,25.5l-1.143,1.231v3.047h-2.2V19.117h2.2v4.834l.967-1.325,2.717-3.509h2.7l-3.787,4.739,3.9,5.926h-2.615Z"/><path class="cls-1" d="M619,19.117v7.024a3.6,3.6,0,0,1-1.094,2.769,4.225,4.225,0,0,1-2.992,1.018,4.269,4.269,0,0,1-2.967-.989,3.541,3.541,0,0,1-1.121-2.717v-7.1h2.2v7.039a2.033,2.033,0,0,0,.5,1.527,1.925,1.925,0,0,0,1.389.48q1.851,0,1.881-1.948v-7.1Z"/><path class="cls-1" d="M624.8,19.117l2.738,7.735,2.724-7.735h2.887V29.782h-2.205V26.867l.219-5.032-2.877,7.947h-1.51l-2.871-7.94.221,5.025v2.915h-2.2V19.117Z"/><circle class="cls-2" cx="26.309" cy="75.99" r="15.942"/><path d="M27.129,68.1H21.365a.34.34,0,0,0,0,.679h5.764a.34.34,0,0,0,0-.679Z"/><path d="M21.365,76.071h5.086a.339.339,0,0,1,0,.678H21.365a.339.339,0,1,1,0-.678Z"/><path d="M21.365,78.73h3.391a.339.339,0,0,1,0,.678H21.365a.339.339,0,1,1,0-.678Z"/><path d="M21.365,81.385h3.391a.339.339,0,0,1,0,.678H21.365a.339.339,0,1,1,0-.678Z"/><line class="cls-3" x1="35.987" y1="85.981" x2="40.687" y2="90.681"/><path class="cls-4" d="M30.544,70.537h3.344l-4.022-4.022v3.344A.679.679,0,0,0,30.544,70.537Z"/><path class="cls-4" d="M30.544,71.215a1.356,1.356,0,0,1-1.356-1.356V66.037H19.9a.679.679,0,0,0-.678.678v5.95H34.366v-1.45Z"/><path d="M35.04,76.451V70.856a.42.42,0,0,0-.02-.092.076.076,0,0,0,0-.03.361.361,0,0,0-.064-.095l-5.188-5.178a.351.351,0,0,0-.092-.061h-.034a.391.391,0,0,0-.091-.041H19.9a1.356,1.356,0,0,0-1.356,1.356V83.45A1.356,1.356,0,0,0,19.9,84.806h6.782a6.083,6.083,0,1,0,8.355-8.355Zm-5.174-9.936,4.021,4.022H30.544a.679.679,0,0,1-.678-.678ZM19.9,84.128a.678.678,0,0,1-.678-.678V72.665h0v-5.95a.679.679,0,0,1,.678-.678h9.285v3.822a1.356,1.356,0,0,0,1.356,1.356h3.821v1.45h0v3.426a6.08,6.08,0,0,0-8.037,8.037Zm11.984,2.933a5.426,5.426,0,1,1,5.425-5.425A5.425,5.425,0,0,1,31.884,87.061Z"/><path d="M31.369,73.416h-10a.339.339,0,1,0,0,.678h10a.339.339,0,0,0,0-.678Z"/><polyline class="cls-3" points="29.324 82.14 30.979 83.795 34.443 80.331"/><path d="M54.446,69.157l2.349-7.23h1.764l-3.326,9.242H53.677l-3.312-9.242h1.758Z"/><path d="M62.2,71.3a3.19,3.19,0,0,1-2.378-.924,3.355,3.355,0,0,1-.911-2.46v-.19a4.122,4.122,0,0,1,.4-1.837,3.023,3.023,0,0,1,1.115-1.261,2.942,2.942,0,0,1,1.6-.45,2.694,2.694,0,0,1,2.167.895,3.777,3.777,0,0,1,.765,2.532v.622H60.464a2.052,2.052,0,0,0,.568,1.346,1.7,1.7,0,0,0,1.253.495,2.084,2.084,0,0,0,1.726-.857l.832.794a2.776,2.776,0,0,1-1.1.955A3.454,3.454,0,0,1,62.2,71.3Zm-.3-8.9.927-.984h1.32v.064l-1.77,1.771h-.953L59.664,61.47v-.058h1.307Zm.114,3.015a1.3,1.3,0,0,0-1.025.445,2.3,2.3,0,0,0-.5,1.238h2.938v-.115a1.866,1.866,0,0,0-.412-1.171A1.291,1.291,0,0,0,62.012,65.411Z"/><path d="M65.859,67.684a4.085,4.085,0,0,1,.736-2.548,2.358,2.358,0,0,1,1.975-.962,2.243,2.243,0,0,1,1.764.761V61.419h1.543v9.75h-1.4l-.076-.711a2.276,2.276,0,0,1-1.848.838,2.346,2.346,0,0,1-1.951-.971A4.23,4.23,0,0,1,65.859,67.684Zm1.543.133a2.868,2.868,0,0,0,.4,1.635,1.311,1.311,0,0,0,1.147.587,1.455,1.455,0,0,0,1.383-.844V66.262a1.435,1.435,0,0,0-1.371-.825,1.319,1.319,0,0,0-1.155.593A3.185,3.185,0,0,0,67.4,67.817Z"/><path d="M76.307,70.064a1.393,1.393,0,0,0,.958-.336,1.151,1.151,0,0,0,.407-.832h1.454a2.274,2.274,0,0,1-.4,1.2,2.637,2.637,0,0,1-1.015.879,3.029,3.029,0,0,1-1.385.324,2.929,2.929,0,0,1-2.285-.933,3.7,3.7,0,0,1-.844-2.578v-.158a3.639,3.639,0,0,1,.838-2.511,2.9,2.9,0,0,1,2.285-.942,2.822,2.822,0,0,1,2,.714,2.56,2.56,0,0,1,.81,1.875H77.672a1.413,1.413,0,0,0-.4-.971,1.3,1.3,0,0,0-.962-.381,1.361,1.361,0,0,0-1.155.543A2.767,2.767,0,0,0,74.74,67.6v.248a2.82,2.82,0,0,0,.4,1.666A1.359,1.359,0,0,0,76.307,70.064Z"/><path d="M80.294,62.517a.818.818,0,0,1,.225-.59,1,1,0,0,1,1.291,0,.808.808,0,0,1,.229.59.788.788,0,0,1-.229.58,1.014,1.014,0,0,1-1.291,0A.8.8,0,0,1,80.294,62.517Zm1.637,8.652H80.388V64.3h1.543Z"/><path d="M51.932,78.3l.026,1.117a2.537,2.537,0,0,1,.952-.933,2.607,2.607,0,0,1,1.269-.311,1.925,1.925,0,0,1,2.063,1.333,2.587,2.587,0,0,1,.984-.988,2.733,2.733,0,0,1,1.359-.345q2.208,0,2.253,2.412v4.583h-.762V80.643a2.049,2.049,0,0,0-.4-1.365,1.611,1.611,0,0,0-1.272-.444,2.021,2.021,0,0,0-1.384.53,1.876,1.876,0,0,0-.629,1.26v4.545h-.761V80.586a1.881,1.881,0,0,0-.416-1.318,1.656,1.656,0,0,0-1.26-.434,1.919,1.919,0,0,0-1.231.409,2.391,2.391,0,0,0-.761,1.216v4.71H51.2V78.3Z"/><path d="M65.422,85.3a2.978,2.978,0,0,1-1.584-.432,2.93,2.93,0,0,1-1.1-1.2,3.753,3.753,0,0,1-.394-1.73v-.272a4.041,4.041,0,0,1,.384-1.784A3.054,3.054,0,0,1,63.8,78.628a2.632,2.632,0,0,1,1.484-.454,2.48,2.48,0,0,1,1.984.853A3.462,3.462,0,0,1,68,81.36v.425H63.1v.146a2.878,2.878,0,0,0,.67,1.946,2.134,2.134,0,0,0,1.686.778,2.481,2.481,0,0,0,1.076-.223,2.386,2.386,0,0,0,.848-.711l.475.362A2.771,2.771,0,0,1,65.422,85.3Zm-.141-6.475a1.9,1.9,0,0,0-1.443.629,2.9,2.9,0,0,0-.715,1.688h4.12v-.083a2.517,2.517,0,0,0-.566-1.612A1.751,1.751,0,0,0,65.281,78.821Zm.076-2.082,1.092-1.231h.68v.076l-1.5,1.657h-.546l-1.5-1.664v-.069h.678Z"/><path d="M71.09,76.739l1.091-1.231h.68v.076l-1.5,1.657h-.547l-1.5-1.664v-.069H70Zm1.561,2.209a2.807,2.807,0,0,0-.515-.044,1.85,1.85,0,0,0-1.2.4,2.179,2.179,0,0,0-.7,1.151v4.717h-.755V78.3h.743l.012,1.091a2.021,2.021,0,0,1,1.937-1.218,1.244,1.244,0,0,1,.5.082Z"/><path d="M75.082,75.5H76l-1.466,1.777-.667,0Zm-.393,9.674h-.762V78.3h.762Z"/><path d="M76.587,86.9l-.451-.33a2.759,2.759,0,0,0,.6-1.606v-.984h.743v.794A2.733,2.733,0,0,1,76.587,86.9Z"/><path d="M86.508,83.423a1.083,1.083,0,0,0-.454-.908,3.5,3.5,0,0,0-1.368-.536,6.18,6.18,0,0,1-1.419-.444,1.892,1.892,0,0,1-.748-.613,1.519,1.519,0,0,1-.245-.876,1.636,1.636,0,0,1,.679-1.342,2.742,2.742,0,0,1,1.74-.53,2.821,2.821,0,0,1,1.844.568,1.824,1.824,0,0,1,.695,1.482H86.47a1.229,1.229,0,0,0-.5-1,2.277,2.277,0,0,0-2.475-.067,1.029,1.029,0,0,0-.454.867.935.935,0,0,0,.378.8,3.99,3.99,0,0,0,1.377.518,6.538,6.538,0,0,1,1.5.5,1.953,1.953,0,0,1,.74.641,1.766,1.766,0,0,1-.461,2.3,3,3,0,0,1-1.831.521,3.08,3.08,0,0,1-1.946-.581,1.79,1.79,0,0,1-.745-1.47h.761a1.323,1.323,0,0,0,.562,1.038,2.3,2.3,0,0,0,1.368.372,2.158,2.158,0,0,0,1.282-.35A1.046,1.046,0,0,0,86.508,83.423Z"/><path d="M89.732,79.462a2.689,2.689,0,0,1,.959-.952,2.514,2.514,0,0,1,1.276-.336,2.059,2.059,0,0,1,1.644.622,2.811,2.811,0,0,1,.546,1.866v4.507H93.4V80.656a2.106,2.106,0,0,0-.391-1.372,1.53,1.53,0,0,0-1.228-.45,1.919,1.919,0,0,0-1.247.441,2.589,2.589,0,0,0-.8,1.19v4.7h-.755v-9.75h.755Z"/><path d="M99.286,78.948a2.807,2.807,0,0,0-.515-.044,1.85,1.85,0,0,0-1.2.4,2.179,2.179,0,0,0-.7,1.151v4.717h-.755V78.3h.743l.012,1.091A2.021,2.021,0,0,1,98.8,78.174a1.244,1.244,0,0,1,.5.082Z"/><path d="M99.939,81.633a4.044,4.044,0,0,1,.385-1.784A2.887,2.887,0,0,1,103,78.174a2.818,2.818,0,0,1,2.22.962,3.7,3.7,0,0,1,.852,2.548v.159a4.078,4.078,0,0,1-.385,1.793,2.871,2.871,0,0,1-1.082,1.228,2.964,2.964,0,0,1-1.594.432,2.83,2.83,0,0,1-2.218-.962,3.7,3.7,0,0,1-.854-2.549Zm.762.21a3.111,3.111,0,0,0,.639,2.021,2.155,2.155,0,0,0,3.337,0,3.214,3.214,0,0,0,.639-2.085v-.146a3.5,3.5,0,0,0-.292-1.441,2.35,2.35,0,0,0-.819-1.013,2.1,2.1,0,0,0-1.2-.358,2.031,2.031,0,0,0-1.658.8A3.232,3.232,0,0,0,100.7,81.7Z"/><path d="M108.332,78.3l.025,1.117a2.534,2.534,0,0,1,.951-.933,2.608,2.608,0,0,1,1.27-.311,1.926,1.926,0,0,1,2.063,1.333,2.58,2.58,0,0,1,.984-.988,2.733,2.733,0,0,1,1.359-.345q2.21,0,2.253,2.412v4.583h-.762V80.643a2.054,2.054,0,0,0-.4-1.365,1.618,1.618,0,0,0-1.273-.444,2.019,2.019,0,0,0-1.384.53,1.874,1.874,0,0,0-.628,1.26v4.545h-.762V80.586a1.886,1.886,0,0,0-.416-1.318,1.656,1.656,0,0,0-1.26-.434,1.921,1.921,0,0,0-1.231.409,2.4,2.4,0,0,0-.762,1.216v4.71H107.6V78.3Z"/><path d="M123.5,85.169a3.627,3.627,0,0,1-.147-.959,2.633,2.633,0,0,1-1.017.8,3.133,3.133,0,0,1-1.312.283,2.3,2.3,0,0,1-1.6-.553,1.8,1.8,0,0,1-.614-1.4,1.841,1.841,0,0,1,.836-1.587,4.011,4.011,0,0,1,2.327-.584h1.376V80.4a1.506,1.506,0,0,0-.453-1.158,1.873,1.873,0,0,0-1.324-.422,2.07,2.07,0,0,0-1.314.406,1.207,1.207,0,0,0-.52.978l-.762-.007a1.768,1.768,0,0,1,.762-1.419,2.936,2.936,0,0,1,1.872-.6,2.672,2.672,0,0,1,1.812.574,2.06,2.06,0,0,1,.683,1.6V83.6a4.049,4.049,0,0,0,.209,1.492v.076Zm-2.387-.546a2.552,2.552,0,0,0,1.361-.368,2.161,2.161,0,0,0,.873-.984V81.76h-1.358a3.393,3.393,0,0,0-1.777.416,1.25,1.25,0,0,0-.642,1.108,1.224,1.224,0,0,0,.43.958A1.61,1.61,0,0,0,121.109,84.623Z"/><path d="M126.625,84.528h4.463v.641h-5.4V84.61l4.164-5.649h-4.037V78.3h5v.57Zm1.752-7.8,1.091-1.232h.68v.076l-1.5,1.657H128.1l-1.5-1.663V75.5h.679Z"/><path d="M132.04,81.671a4.138,4.138,0,0,1,.714-2.548,2.3,2.3,0,0,1,1.939-.949,2.388,2.388,0,0,1,2.12,1.1V75.419h.755v9.75h-.711l-.031-.914A2.452,2.452,0,0,1,134.68,85.3a2.293,2.293,0,0,1-1.914-.955,4.167,4.167,0,0,1-.726-2.581Zm.768.133a3.586,3.586,0,0,0,.527,2.073,1.7,1.7,0,0,0,1.485.759,2.043,2.043,0,0,0,1.993-1.238V80.173a2.028,2.028,0,0,0-1.98-1.339,1.722,1.722,0,0,0-1.491.752A3.823,3.823,0,0,0,132.808,81.8Zm5.808-4.119-.45-.33a2.406,2.406,0,0,0,.457-1.333v-.61h.729v.4A2.385,2.385,0,0,1,138.616,77.685Z"/><path d="M144.938,84.3a2.466,2.466,0,0,1-2.19,1,2.125,2.125,0,0,1-1.669-.638,2.8,2.8,0,0,1-.584-1.889V78.3h.755v4.373q0,1.962,1.588,1.962a1.946,1.946,0,0,0,2.087-1.365V78.3h.762v6.868h-.736Z"/><path d="M148.48,78.3v7.687a2.084,2.084,0,0,1-.457,1.453,1.729,1.729,0,0,1-1.346.5,1.9,1.9,0,0,1-.666-.12l.012-.623a2.014,2.014,0,0,0,.572.083q1.13,0,1.129-1.3V78.3Zm-.375-2.5a.506.506,0,0,1,.388.148.511.511,0,0,1,.14.363.5.5,0,0,1-.14.36.515.515,0,0,1-.388.145.5.5,0,0,1-.377-.145.5.5,0,0,1-.136-.36.512.512,0,0,1,.136-.363A.487.487,0,0,1,148.1,75.806Z"/><path d="M151.857,75.5h.92l-1.466,1.777-.667,0Zm-.393,9.674H150.7V78.3h.762Z"/><path d="M156.377,81.671a4.138,4.138,0,0,1,.714-2.548,2.3,2.3,0,0,1,1.939-.949,2.387,2.387,0,0,1,2.12,1.1V75.419h.756v9.75H161.2l-.032-.914a2.455,2.455,0,0,1-2.146,1.041,2.293,2.293,0,0,1-1.914-.955,4.167,4.167,0,0,1-.726-2.581Zm.767.133a3.578,3.578,0,0,0,.528,2.073,1.7,1.7,0,0,0,1.485.759A2.044,2.044,0,0,0,161.15,83.4V80.173a2.028,2.028,0,0,0-1.98-1.339,1.728,1.728,0,0,0-1.493.752A3.832,3.832,0,0,0,157.144,81.8Z"/><path d="M168.24,85.169a3.593,3.593,0,0,1-.146-.959,2.643,2.643,0,0,1-1.018.8,3.129,3.129,0,0,1-1.311.283,2.3,2.3,0,0,1-1.6-.553,1.8,1.8,0,0,1-.612-1.4,1.839,1.839,0,0,1,.834-1.587,4.017,4.017,0,0,1,2.327-.584h1.377V80.4a1.5,1.5,0,0,0-.454-1.158,1.873,1.873,0,0,0-1.324-.422,2.067,2.067,0,0,0-1.313.406,1.208,1.208,0,0,0-.521.978l-.761-.007a1.767,1.767,0,0,1,.761-1.419,2.939,2.939,0,0,1,1.873-.6,2.676,2.676,0,0,1,1.812.574,2.059,2.059,0,0,1,.682,1.6V83.6a4.071,4.071,0,0,0,.209,1.492v.076Zm-2.387-.546a2.561,2.561,0,0,0,1.363-.368,2.175,2.175,0,0,0,.872-.984V81.76H166.73a3.393,3.393,0,0,0-1.777.416,1.248,1.248,0,0,0-.642,1.108,1.227,1.227,0,0,0,.429.958A1.61,1.61,0,0,0,165.853,84.623Z"/><path d="M172.049,76.542V78.3h1.421v.622h-1.421V83.5a1.43,1.43,0,0,0,.207.852.8.8,0,0,0,.688.28,4.639,4.639,0,0,0,.616-.064l.032.617a2.5,2.5,0,0,1-.813.107,1.359,1.359,0,0,1-1.137-.454,2.144,2.144,0,0,1-.355-1.336V78.923h-1.263V78.3h1.263V76.542Z"/><path d="M179.381,85.169a3.585,3.585,0,0,1-.147-.959,2.64,2.64,0,0,1-1.017.8,3.137,3.137,0,0,1-1.312.283,2.3,2.3,0,0,1-1.6-.553,1.8,1.8,0,0,1-.613-1.4,1.839,1.839,0,0,1,.836-1.587,4.01,4.01,0,0,1,2.326-.584h1.377V80.4a1.506,1.506,0,0,0-.453-1.158,1.875,1.875,0,0,0-1.324-.422,2.075,2.075,0,0,0-1.315.406,1.209,1.209,0,0,0-.519.978l-.762-.007a1.768,1.768,0,0,1,.762-1.419,2.936,2.936,0,0,1,1.872-.6,2.668,2.668,0,0,1,1.811.574,2.061,2.061,0,0,1,.684,1.6V83.6a4.028,4.028,0,0,0,.209,1.492v.076Zm-2.387-.546a2.552,2.552,0,0,0,1.361-.368,2.161,2.161,0,0,0,.873-.984V81.76H177.87a3.4,3.4,0,0,0-1.778.416,1.251,1.251,0,0,0-.641,1.108,1.221,1.221,0,0,0,.43.958A1.61,1.61,0,0,0,176.994,84.623Z"/><path d="M55.576,99.169a3.627,3.627,0,0,1-.147-.959,2.633,2.633,0,0,1-1.017.8A3.133,3.133,0,0,1,53.1,99.3a2.3,2.3,0,0,1-1.6-.553,1.8,1.8,0,0,1-.614-1.4,1.841,1.841,0,0,1,.836-1.587,4.011,4.011,0,0,1,2.327-.584h1.377V94.4a1.506,1.506,0,0,0-.454-1.158,1.873,1.873,0,0,0-1.324-.422,2.07,2.07,0,0,0-1.314.406,1.207,1.207,0,0,0-.52.978l-.762-.007a1.768,1.768,0,0,1,.762-1.419,2.936,2.936,0,0,1,1.872-.6,2.672,2.672,0,0,1,1.812.574,2.06,2.06,0,0,1,.683,1.6V97.6a4.049,4.049,0,0,0,.209,1.492v.076Zm-2.387-.546a2.552,2.552,0,0,0,1.361-.368,2.168,2.168,0,0,0,.874-.984V95.76H54.065a3.4,3.4,0,0,0-1.777.416,1.25,1.25,0,0,0-.642,1.108,1.224,1.224,0,0,0,.43.958A1.61,1.61,0,0,0,53.189,98.623Z"/><path d="M62.546,90.542V92.3h1.421v.622H62.546V97.5a1.438,1.438,0,0,0,.206.852.8.8,0,0,0,.689.28,4.613,4.613,0,0,0,.615-.064l.032.617a2.489,2.489,0,0,1-.813.107,1.359,1.359,0,0,1-1.136-.454,2.137,2.137,0,0,1-.355-1.336V92.923H60.521V92.3h1.263V90.542Z"/><path d="M68.2,99.3a2.977,2.977,0,0,1-1.583-.432,2.943,2.943,0,0,1-1.1-1.2,3.752,3.752,0,0,1-.393-1.73v-.272a4.041,4.041,0,0,1,.384-1.784,3.049,3.049,0,0,1,1.069-1.247,2.638,2.638,0,0,1,1.486-.454,2.483,2.483,0,0,1,1.984.853,3.467,3.467,0,0,1,.733,2.333v.425h-4.9v.146a2.872,2.872,0,0,0,.669,1.946,2.131,2.131,0,0,0,1.685.778,2.478,2.478,0,0,0,1.076-.223,2.384,2.384,0,0,0,.847-.711l.477.362A2.775,2.775,0,0,1,68.2,99.3Zm-.139-6.475a1.9,1.9,0,0,0-1.444.629,2.89,2.89,0,0,0-.714,1.688h4.119v-.083a2.522,2.522,0,0,0-.564-1.612A1.755,1.755,0,0,0,68.062,92.821Z"/><path d="M76.371,97.423a1.086,1.086,0,0,0-.454-.908,3.507,3.507,0,0,0-1.368-.536,6.153,6.153,0,0,1-1.418-.444,1.9,1.9,0,0,1-.749-.613,1.52,1.52,0,0,1-.246-.876,1.634,1.634,0,0,1,.68-1.342,2.741,2.741,0,0,1,1.739-.53,2.82,2.82,0,0,1,1.844.568,1.821,1.821,0,0,1,.695,1.482h-.761a1.229,1.229,0,0,0-.5-1,2.279,2.279,0,0,0-2.476-.067,1.031,1.031,0,0,0-.454.867.937.937,0,0,0,.378.8,3.989,3.989,0,0,0,1.378.518,6.538,6.538,0,0,1,1.5.5,1.949,1.949,0,0,1,.739.641,1.761,1.761,0,0,1-.46,2.3A3,3,0,0,1,74.6,99.3a3.079,3.079,0,0,1-1.945-.581,1.789,1.789,0,0,1-.746-1.47h.762a1.317,1.317,0,0,0,.562,1.038,2.293,2.293,0,0,0,1.367.372,2.163,2.163,0,0,0,1.284-.35A1.047,1.047,0,0,0,76.371,97.423Z"/><path d="M80.021,90.542V92.3h1.422v.622H80.021V97.5a1.446,1.446,0,0,0,.2.852.8.8,0,0,0,.69.28,4.613,4.613,0,0,0,.615-.064l.032.617a2.486,2.486,0,0,1-.812.107,1.354,1.354,0,0,1-1.136-.454,2.137,2.137,0,0,1-.356-1.336V92.923H78V92.3h1.263V90.542Z"/><path d="M87.435,98.3a2.468,2.468,0,0,1-2.19,1,2.125,2.125,0,0,1-1.669-.638,2.793,2.793,0,0,1-.584-1.889V92.3h.755v4.373q0,1.962,1.587,1.962a1.946,1.946,0,0,0,2.088-1.365V92.3h.761v6.868h-.736Z"/><path d="M90.976,92.3v7.687a2.084,2.084,0,0,1-.457,1.453,1.725,1.725,0,0,1-1.345.5,1.9,1.9,0,0,1-.666-.12l.012-.623a2.009,2.009,0,0,0,.572.083q1.129,0,1.129-1.3V92.3Zm-.374-2.5a.493.493,0,0,1,.527.511.5.5,0,0,1-.139.36.518.518,0,0,1-.388.145.5.5,0,0,1-.378-.145.506.506,0,0,1-.136-.36.516.516,0,0,1,.136-.363A.489.489,0,0,1,90.6,89.806Z"/><path d="M94.353,89.5h.921l-1.466,1.777-.667,0Zm-.392,9.674H93.2V92.3h.762Z"/><path d="M99.9,92.3l.025,1.174a2.727,2.727,0,0,1,.965-.968,2.51,2.51,0,0,1,1.276-.333,2.06,2.06,0,0,1,1.644.622,2.8,2.8,0,0,1,.545,1.866v4.507H103.6V94.656a2.112,2.112,0,0,0-.389-1.372,1.533,1.533,0,0,0-1.229-.45,1.92,1.92,0,0,0-1.248.441,2.6,2.6,0,0,0-.8,1.19v4.7h-.756V92.3Z"/><path d="M105.9,95.633a4.044,4.044,0,0,1,.384-1.784,2.887,2.887,0,0,1,2.676-1.675,2.82,2.82,0,0,1,2.221.962,3.7,3.7,0,0,1,.851,2.548v.159a4.077,4.077,0,0,1-.384,1.793,2.871,2.871,0,0,1-1.082,1.228,2.969,2.969,0,0,1-1.594.432,2.827,2.827,0,0,1-2.218-.962,3.7,3.7,0,0,1-.854-2.549Zm.762.21a3.116,3.116,0,0,0,.638,2.021,2.156,2.156,0,0,0,3.338,0,3.214,3.214,0,0,0,.639-2.085v-.146a3.489,3.489,0,0,0-.293-1.441,2.348,2.348,0,0,0-.818-1.013,2.1,2.1,0,0,0-1.206-.358,2.033,2.033,0,0,0-1.658.8,3.231,3.231,0,0,0-.64,2.085Z"/><path d="M115.644,98.121l2.088-5.82h.781l-2.564,6.868h-.616L112.756,92.3h.781Z"/><path d="M122.334,99.3a2.975,2.975,0,0,1-1.583-.432,2.943,2.943,0,0,1-1.1-1.2,3.74,3.74,0,0,1-.393-1.73v-.272a4.04,4.04,0,0,1,.383-1.784,3.059,3.059,0,0,1,1.07-1.247,2.638,2.638,0,0,1,1.486-.454,2.48,2.48,0,0,1,1.983.853,3.463,3.463,0,0,1,.734,2.333v.425h-4.9v.146a2.877,2.877,0,0,0,.669,1.946,2.134,2.134,0,0,0,1.686.778,2.478,2.478,0,0,0,1.076-.223,2.384,2.384,0,0,0,.847-.711l.476.362A2.772,2.772,0,0,1,122.334,99.3Zm-.139-6.475a1.9,1.9,0,0,0-1.444.629,2.89,2.89,0,0,0-.714,1.688h4.119v-.083a2.527,2.527,0,0,0-.564-1.612A1.755,1.755,0,0,0,122.2,92.821Zm.844-3.4h.92L122.493,91.2l-.667,0Z"/><path d="M130.244,92.3l.025,1.117a2.541,2.541,0,0,1,.951-.933,2.608,2.608,0,0,1,1.27-.311,1.926,1.926,0,0,1,2.063,1.333,2.587,2.587,0,0,1,.984-.988,2.733,2.733,0,0,1,1.359-.345q2.21,0,2.253,2.412v4.583h-.762V94.643a2.049,2.049,0,0,0-.4-1.365,1.618,1.618,0,0,0-1.273-.444,2.021,2.021,0,0,0-1.384.53,1.874,1.874,0,0,0-.628,1.26v4.545h-.762V94.586a1.886,1.886,0,0,0-.416-1.318,1.655,1.655,0,0,0-1.26-.434,1.923,1.923,0,0,0-1.231.409,2.4,2.4,0,0,0-.762,1.216v4.71h-.762V92.3Z"/><path d="M140.654,95.633a4.043,4.043,0,0,1,.383-1.784,2.887,2.887,0,0,1,2.676-1.675,2.823,2.823,0,0,1,2.222.962,3.7,3.7,0,0,1,.85,2.548v.159a4.077,4.077,0,0,1-.383,1.793,2.873,2.873,0,0,1-1.083,1.228,2.968,2.968,0,0,1-1.593.432,2.825,2.825,0,0,1-2.218-.962,3.692,3.692,0,0,1-.854-2.549Zm.762.21a3.127,3.127,0,0,0,.636,2.021,2.158,2.158,0,0,0,3.34,0,3.213,3.213,0,0,0,.638-2.085v-.146a3.488,3.488,0,0,0-.292-1.441,2.362,2.362,0,0,0-.818-1.013,2.1,2.1,0,0,0-1.207-.358,2.032,2.032,0,0,0-1.657.8,3.225,3.225,0,0,0-.64,2.085Z"/><path d="M148.049,95.671a4.144,4.144,0,0,1,.713-2.548,2.3,2.3,0,0,1,1.94-.949,2.387,2.387,0,0,1,2.12,1.1V89.419h.756v9.75h-.711l-.032-.914a2.455,2.455,0,0,1-2.146,1.041,2.292,2.292,0,0,1-1.914-.955,4.167,4.167,0,0,1-.726-2.581Zm.767.133a3.586,3.586,0,0,0,.527,2.073,1.7,1.7,0,0,0,1.486.759,2.046,2.046,0,0,0,1.993-1.238V94.173a2.029,2.029,0,0,0-1.98-1.339,1.728,1.728,0,0,0-1.493.752A3.832,3.832,0,0,0,148.816,95.8Z"/><path d="M158.236,99.3a2.977,2.977,0,0,1-1.583-.432,2.943,2.943,0,0,1-1.1-1.2,3.752,3.752,0,0,1-.393-1.73v-.272a4.041,4.041,0,0,1,.384-1.784,3.057,3.057,0,0,1,1.069-1.247,2.638,2.638,0,0,1,1.486-.454,2.482,2.482,0,0,1,1.984.853,3.467,3.467,0,0,1,.733,2.333v.425h-4.9v.146a2.872,2.872,0,0,0,.669,1.946,2.132,2.132,0,0,0,1.685.778,2.475,2.475,0,0,0,1.076-.223,2.384,2.384,0,0,0,.847-.711l.477.362A2.773,2.773,0,0,1,158.236,99.3Zm-.139-6.475a1.9,1.9,0,0,0-1.444.629,2.89,2.89,0,0,0-.714,1.688h4.119v-.083a2.522,2.522,0,0,0-.564-1.612A1.754,1.754,0,0,0,158.1,92.821Z"/><path d="M163.143,99.169h-.761v-9.75h.761Z"/><path d="M167.383,98.077l2.006-5.776h.82l-2.934,8.036-.152.355a1.843,1.843,0,0,1-1.745,1.251,2.138,2.138,0,0,1-.584-.089l-.007-.629.394.038a1.4,1.4,0,0,0,.905-.276,2.1,2.1,0,0,0,.587-.949l.336-.926L164.42,92.3h.831Z"/><circle class="cls-5" cx="245.546" cy="75.99" r="15.942"/><path class="cls-6" d="M254.389,66.37a2.136,2.136,0,0,0-2.953,0L237.513,80.3l-.013.017a.335.335,0,0,0-.058.085l-1.916,4.395a.337.337,0,0,0-.005.259.333.333,0,0,0,.179.186.333.333,0,0,0,.272,0l4.405-1.924.091-.064,13.918-13.92a2.086,2.086,0,0,0,0-2.959ZM238.472,83.405l-1.98.865,1.373-3.148,1.772,1.774Zm12.292-11.412L240.229,82.528l-2-2L248.768,70Zm1.745-1.745-1.267,1.266-2-2,1.267-1.266Zm1.727-2.858a1.4,1.4,0,0,1-.322,1.452l-.926.927-2-2,.924-.924a1.446,1.446,0,0,1,2,0A1.388,1.388,0,0,1,254.236,67.39Z"/><path class="cls-6" d="M251.786,80.919a20.341,20.341,0,0,0-6.2.521c-.6.144-.94.388-1.04.747-.17.616.458,1.23,1.127,1.884.315.308.968.949.9,1.125,0,0-.158.329-2.07.329h-8.7a.332.332,0,0,0-.228.089.338.338,0,0,0,.213.587H244.5c1.676,0,2.482-.224,2.7-.749.245-.6-.385-1.216-1.053-1.87-.376-.368-1.006-.985-.942-1.213,0-.015.057-.154.546-.272a19.88,19.88,0,0,1,5.968-.507.33.33,0,0,0,.371-.28l0-.022A.338.338,0,0,0,251.786,80.919Z"/><path d="M273.683,69.157l2.35-7.23H277.8l-3.327,9.242h-1.554L269.6,61.927h1.759Z"/><path d="M281.434,71.3a3.194,3.194,0,0,1-2.378-.924,3.355,3.355,0,0,1-.91-2.46v-.19a4.122,4.122,0,0,1,.4-1.837,3.021,3.021,0,0,1,1.114-1.261,2.945,2.945,0,0,1,1.6-.45,2.7,2.7,0,0,1,2.167.895,3.782,3.782,0,0,1,.765,2.532v.622H279.7a2.066,2.066,0,0,0,.568,1.346,1.706,1.706,0,0,0,1.254.495,2.088,2.088,0,0,0,1.727-.857l.832.794a2.786,2.786,0,0,1-1.1.955A3.452,3.452,0,0,1,281.434,71.3Zm-.3-8.9.926-.984h1.321v.064l-1.771,1.771h-.952L278.9,61.47v-.058h1.307Zm.114,3.015a1.3,1.3,0,0,0-1.026.445,2.321,2.321,0,0,0-.5,1.238h2.94v-.115a1.878,1.878,0,0,0-.412-1.171A1.3,1.3,0,0,0,281.25,65.411Z"/><path d="M285.1,67.684a4.072,4.072,0,0,1,.737-2.548,2.354,2.354,0,0,1,1.973-.962,2.245,2.245,0,0,1,1.765.761V61.419h1.543v9.75h-1.4l-.076-.711a2.278,2.278,0,0,1-1.847.838,2.349,2.349,0,0,1-1.953-.971A4.236,4.236,0,0,1,285.1,67.684Zm1.542.133a2.852,2.852,0,0,0,.4,1.635,1.307,1.307,0,0,0,1.145.587,1.457,1.457,0,0,0,1.384-.844V66.262a1.434,1.434,0,0,0-1.371-.825,1.316,1.316,0,0,0-1.155.593A3.184,3.184,0,0,0,286.639,67.817Z"/><path d="M295.545,70.064a1.4,1.4,0,0,0,.959-.336,1.153,1.153,0,0,0,.406-.832h1.453a2.273,2.273,0,0,1-.4,1.2,2.626,2.626,0,0,1-1.016.879,3.025,3.025,0,0,1-1.384.324,2.928,2.928,0,0,1-2.285-.933,3.705,3.705,0,0,1-.844-2.578v-.158a3.643,3.643,0,0,1,.838-2.511,2.9,2.9,0,0,1,2.285-.942,2.821,2.821,0,0,1,2,.714,2.556,2.556,0,0,1,.809,1.875H296.91a1.422,1.422,0,0,0-.4-.971,1.3,1.3,0,0,0-.962-.381,1.36,1.36,0,0,0-1.155.543,2.774,2.774,0,0,0-.413,1.647v.248a2.8,2.8,0,0,0,.4,1.666A1.354,1.354,0,0,0,295.545,70.064Z"/><path d="M299.531,62.517a.818.818,0,0,1,.226-.59.849.849,0,0,1,.644-.235.863.863,0,0,1,.648.235.812.812,0,0,1,.228.59.792.792,0,0,1-.228.58.869.869,0,0,1-.648.232.855.855,0,0,1-.644-.232A.8.8,0,0,1,299.531,62.517Zm1.639,8.652h-1.543V64.3h1.543Z"/><path d="M276,81.8a4.144,4.144,0,0,1-.711,2.549,2.267,2.267,0,0,1-1.905.943,2.54,2.54,0,0,1-2.158-.991v3.5h-.755V78.3h.7l.039.971a2.437,2.437,0,0,1,2.152-1.1,2.286,2.286,0,0,1,1.933.933,4.231,4.231,0,0,1,.7,2.59Zm-.762-.133a3.526,3.526,0,0,0-.54-2.075,1.738,1.738,0,0,0-1.5-.762,2,2,0,0,0-1.968,1.314v3.294a2.03,2.03,0,0,0,.781.9,2.253,2.253,0,0,0,1.2.311,1.723,1.723,0,0,0,1.495-.766A3.847,3.847,0,0,0,275.239,81.671Z"/><path d="M278.914,75.5h.921l-1.466,1.777-.667,0Zm-.393,9.674h-.762V78.3h.762Z"/><path d="M284.691,83.423a1.084,1.084,0,0,0-.455-.908,3.5,3.5,0,0,0-1.367-.536,6.153,6.153,0,0,1-1.418-.444,1.892,1.892,0,0,1-.75-.613,1.534,1.534,0,0,1-.244-.876,1.633,1.633,0,0,1,.679-1.342,2.741,2.741,0,0,1,1.739-.53,2.817,2.817,0,0,1,1.843.568,1.819,1.819,0,0,1,.7,1.482h-.762a1.231,1.231,0,0,0-.5-1,2.279,2.279,0,0,0-2.476-.067,1.031,1.031,0,0,0-.454.867.936.936,0,0,0,.377.8,3.988,3.988,0,0,0,1.379.518,6.556,6.556,0,0,1,1.5.5,1.949,1.949,0,0,1,.739.641,1.762,1.762,0,0,1-.459,2.3,3,3,0,0,1-1.832.521,3.078,3.078,0,0,1-1.946-.581,1.786,1.786,0,0,1-.746-1.47h.762a1.317,1.317,0,0,0,.562,1.038,2.292,2.292,0,0,0,1.368.372,2.154,2.154,0,0,0,1.282-.35A1.048,1.048,0,0,0,284.691,83.423Zm-1.7-6.684,1.092-1.231h.678v.076l-1.5,1.657h-.545l-1.5-1.664v-.069h.68Z"/><path d="M288.391,75.5h.921l-1.467,1.777-.666,0ZM288,85.169h-.762V78.3H288Z"/><path d="M295.355,84.121l2.088-5.82h.781l-2.564,6.868h-.616L292.467,78.3h.781Z"/><path d="M302.045,85.3a2.975,2.975,0,0,1-1.583-.432,2.943,2.943,0,0,1-1.1-1.2,3.74,3.74,0,0,1-.393-1.73v-.272a4.04,4.04,0,0,1,.383-1.784,3.059,3.059,0,0,1,1.07-1.247,2.638,2.638,0,0,1,1.486-.454,2.48,2.48,0,0,1,1.983.853,3.463,3.463,0,0,1,.734,2.333v.425h-4.9v.146a2.877,2.877,0,0,0,.669,1.946,2.134,2.134,0,0,0,1.686.778,2.478,2.478,0,0,0,1.076-.223,2.384,2.384,0,0,0,.847-.711l.476.362A2.772,2.772,0,0,1,302.045,85.3Zm-.139-6.475a1.9,1.9,0,0,0-1.444.629,2.89,2.89,0,0,0-.714,1.688h4.119v-.083a2.522,2.522,0,0,0-.565-1.612A1.752,1.752,0,0,0,301.906,78.821Zm.076-2.082,1.092-1.231h.679v.076l-1.5,1.657h-.546l-1.5-1.664v-.069h.679Z"/><path d="M305.8,81.671a4.144,4.144,0,0,1,.713-2.548,2.3,2.3,0,0,1,1.94-.949,2.387,2.387,0,0,1,2.12,1.1V75.419h.756v9.75h-.711l-.032-.914a2.455,2.455,0,0,1-2.146,1.041,2.293,2.293,0,0,1-1.914-.955,4.167,4.167,0,0,1-.726-2.581Zm.767.133a3.578,3.578,0,0,0,.528,2.073,1.7,1.7,0,0,0,1.485.759A2.046,2.046,0,0,0,310.57,83.4V80.173a2.029,2.029,0,0,0-1.98-1.339,1.728,1.728,0,0,0-1.493.752A3.832,3.832,0,0,0,306.564,81.8Z"/><path d="M315.984,85.3a2.977,2.977,0,0,1-1.583-.432,2.934,2.934,0,0,1-1.1-1.2,3.74,3.74,0,0,1-.394-1.73v-.272a4.041,4.041,0,0,1,.384-1.784,3.057,3.057,0,0,1,1.069-1.247,2.638,2.638,0,0,1,1.486-.454,2.482,2.482,0,0,1,1.984.853,3.467,3.467,0,0,1,.733,2.333v.425h-4.9v.146a2.872,2.872,0,0,0,.669,1.946,2.132,2.132,0,0,0,1.685.778,2.475,2.475,0,0,0,1.076-.223,2.384,2.384,0,0,0,.847-.711l.477.362A2.773,2.773,0,0,1,315.984,85.3Zm-.139-6.475a1.9,1.9,0,0,0-1.444.629,2.89,2.89,0,0,0-.714,1.688h4.119v-.083a2.522,2.522,0,0,0-.564-1.612A1.754,1.754,0,0,0,315.845,78.821Z"/><path d="M322.58,84.655a2,2,0,0,0,1.33-.448,1.572,1.572,0,0,0,.58-1.158h.73a2.148,2.148,0,0,1-.393,1.145,2.468,2.468,0,0,1-.962.81,2.889,2.889,0,0,1-1.285.292,2.654,2.654,0,0,1-2.143-.94,3.8,3.8,0,0,1-.79-2.526V81.6a4.274,4.274,0,0,1,.356-1.8,2.745,2.745,0,0,1,1.018-1.206,2.812,2.812,0,0,1,1.553-.425,2.647,2.647,0,0,1,1.862.672,2.452,2.452,0,0,1,.784,1.771h-.73a1.837,1.837,0,0,0-1.916-1.8,1.894,1.894,0,0,0-1.6.743,3.358,3.358,0,0,0-.568,2.082v.222a3.281,3.281,0,0,0,.568,2.05A1.906,1.906,0,0,0,322.58,84.655Z"/><path d="M328.369,81.709l-.869.838v2.622h-.762v-9.75h.762v6.24l.717-.775,2.627-2.583h.958l-2.913,2.894,3.167,3.974h-.907Z"/><path d="M335.636,85.3a2.977,2.977,0,0,1-1.583-.432,2.947,2.947,0,0,1-1.1-1.2,3.74,3.74,0,0,1-.394-1.73v-.272a4.041,4.041,0,0,1,.384-1.784,3.057,3.057,0,0,1,1.069-1.247,2.641,2.641,0,0,1,1.487-.454,2.48,2.48,0,0,1,1.983.853,3.468,3.468,0,0,1,.734,2.333v.425h-4.9v.146a2.877,2.877,0,0,0,.669,1.946,2.133,2.133,0,0,0,1.686.778,2.481,2.481,0,0,0,1.076-.223,2.392,2.392,0,0,0,.847-.711l.476.362A2.773,2.773,0,0,1,335.636,85.3Zm-.138-6.475a1.9,1.9,0,0,0-1.445.629,2.9,2.9,0,0,0-.713,1.688h4.119v-.083a2.522,2.522,0,0,0-.565-1.612A1.752,1.752,0,0,0,335.5,78.821Zm.844-3.4h.919L335.8,77.2l-.667,0Z"/><path d="M273.017,98.655a2,2,0,0,0,1.33-.448,1.569,1.569,0,0,0,.58-1.158h.731a2.149,2.149,0,0,1-.394,1.145,2.461,2.461,0,0,1-.962.81,2.889,2.889,0,0,1-1.285.292,2.652,2.652,0,0,1-2.142-.94,3.8,3.8,0,0,1-.79-2.526V95.6a4.29,4.29,0,0,1,.355-1.8,2.741,2.741,0,0,1,1.019-1.206,2.809,2.809,0,0,1,1.552-.425,2.651,2.651,0,0,1,1.863.672,2.452,2.452,0,0,1,.784,1.771h-.731a1.837,1.837,0,0,0-1.916-1.8,1.893,1.893,0,0,0-1.6.743,3.358,3.358,0,0,0-.569,2.082v.222a3.281,3.281,0,0,0,.569,2.05A1.906,1.906,0,0,0,273.017,98.655Zm-.114-7.916L274,89.508h.679v.076l-1.5,1.657h-.544l-1.5-1.664v-.069h.678Z"/><path d="M278.025,99.169h-.762v-9.75h.762Z"/><path d="M284.424,99.169a3.552,3.552,0,0,1-.146-.959,2.647,2.647,0,0,1-1.019.8,3.124,3.124,0,0,1-1.31.283,2.3,2.3,0,0,1-1.6-.553,1.8,1.8,0,0,1-.612-1.4,1.838,1.838,0,0,1,.835-1.587,4.014,4.014,0,0,1,2.326-.584h1.377V94.4a1.5,1.5,0,0,0-.453-1.158,1.875,1.875,0,0,0-1.324-.422,2.072,2.072,0,0,0-1.314.406,1.21,1.21,0,0,0-.52.978l-.762-.007a1.768,1.768,0,0,1,.762-1.419,2.939,2.939,0,0,1,1.873-.6,2.671,2.671,0,0,1,1.811.574,2.06,2.06,0,0,1,.683,1.6V97.6a4.049,4.049,0,0,0,.209,1.492v.076Zm-2.387-.546a2.555,2.555,0,0,0,1.362-.368,2.164,2.164,0,0,0,.872-.984V95.76h-1.357a3.4,3.4,0,0,0-1.778.416,1.249,1.249,0,0,0-.641,1.108,1.223,1.223,0,0,0,.429.958A1.61,1.61,0,0,0,282.037,98.623Zm1.5-9.2h.921L282.99,91.2l-.667,0Z"/><path d="M287.775,92.3l.025,1.174a2.743,2.743,0,0,1,.965-.968,2.514,2.514,0,0,1,1.277-.333,2.056,2.056,0,0,1,1.643.622,2.8,2.8,0,0,1,.547,1.866v4.507h-.756V94.656a2.1,2.1,0,0,0-.39-1.372,1.531,1.531,0,0,0-1.229-.45,1.918,1.918,0,0,0-1.246.441,2.574,2.574,0,0,0-.8,1.19v4.7h-.755V92.3Z"/><path d="M295.824,95.709l-.869.838v2.622h-.762v-9.75h.762v6.24l.717-.775L298.3,92.3h.958L296.345,95.2l3.167,3.974h-.907Z"/><path d="M302.737,98.077l2.006-5.776h.819l-2.933,8.036-.153.355a1.843,1.843,0,0,1-1.745,1.251,2.144,2.144,0,0,1-.584-.089l-.007-.629.4.038a1.4,1.4,0,0,0,.9-.276,2.086,2.086,0,0,0,.587-.949l.337-.926-2.59-6.811h.831Z"/><g class="cls-7"><line class="cls-8" x1="209.665" y1="65.359" x2="220.519" y2="65.359"/><polygon class="cls-9" points="217.206 69.449 216.524 68.716 220.135 65.36 216.524 62.003 217.206 61.27 221.604 65.36 217.206 69.449"/></g><circle class="cls-2" cx="403.23" cy="75.99" r="15.942"/><path d="M404.051,68.1h-5.764a.34.34,0,0,0,0,.679h5.764a.34.34,0,0,0,0-.679Z"/><path d="M398.287,76.071h5.086a.339.339,0,1,1,0,.678h-5.086a.339.339,0,1,1,0-.678Z"/><path d="M398.287,78.73h3.391a.339.339,0,0,1,0,.678h-3.391a.339.339,0,1,1,0-.678Z"/><path d="M398.287,81.385h3.391a.339.339,0,0,1,0,.678h-3.391a.339.339,0,1,1,0-.678Z"/><line class="cls-3" x1="412.909" y1="85.981" x2="417.609" y2="90.681"/><path class="cls-4" d="M407.466,70.537h3.343l-4.021-4.022v3.344A.678.678,0,0,0,407.466,70.537Z"/><path class="cls-4" d="M407.466,71.215a1.356,1.356,0,0,1-1.356-1.356V66.037h-9.285a.679.679,0,0,0-.678.678v5.95h15.141v-1.45Z"/><path d="M411.962,76.451V70.856a.42.42,0,0,0-.02-.092.076.076,0,0,0,0-.03.387.387,0,0,0-.064-.095l-5.188-5.178a.351.351,0,0,0-.092-.061h-.034a.38.38,0,0,0-.092-.041h-9.647a1.356,1.356,0,0,0-1.356,1.356V83.45a1.356,1.356,0,0,0,1.356,1.356h6.782a6.083,6.083,0,1,0,8.355-8.355Zm-5.174-9.936,4.021,4.022h-3.343a.679.679,0,0,1-.678-.678Zm-9.966,17.613a.678.678,0,0,1-.678-.678V72.665h0v-5.95a.679.679,0,0,1,.678-.678h9.285v3.822a1.356,1.356,0,0,0,1.356,1.356h3.821v1.45h0v3.426a6.08,6.08,0,0,0-8.036,8.037Zm11.983,2.933a5.426,5.426,0,1,1,5.426-5.425A5.425,5.425,0,0,1,408.805,87.061Z"/><path d="M408.291,73.416h-10a.339.339,0,1,0,0,.678h10a.339.339,0,1,0,0-.678Z"/><polyline class="cls-3" points="406.246 82.14 407.901 83.795 411.365 80.331"/><path d="M435.488,66.789a5.66,5.66,0,0,1-.471,2.384,3.538,3.538,0,0,1-1.342,1.574,3.938,3.938,0,0,1-4.011,0,3.621,3.621,0,0,1-1.36-1.565,5.512,5.512,0,0,1-.484-2.342v-.521a5.617,5.617,0,0,1,.479-2.387,3.613,3.613,0,0,1,1.351-1.584,3.95,3.95,0,0,1,4.006,0,3.558,3.558,0,0,1,1.35,1.561,5.641,5.641,0,0,1,.482,2.371Zm-1.606-.483a4.044,4.044,0,0,0-.582-2.355,2.05,2.05,0,0,0-3.275,0,3.963,3.963,0,0,0-.6,2.308v.533a4.008,4.008,0,0,0,.594,2.355,1.912,1.912,0,0,0,1.647.831,1.887,1.887,0,0,0,1.64-.812,4.088,4.088,0,0,0,.576-2.374Z"/><path d="M436.649,67.684a4.078,4.078,0,0,1,.736-2.548,2.36,2.36,0,0,1,1.974-.962,2.247,2.247,0,0,1,1.766.761V61.419h1.542v9.75h-1.4l-.076-.711a2.277,2.277,0,0,1-1.847.838,2.35,2.35,0,0,1-1.953-.971A4.243,4.243,0,0,1,436.649,67.684Zm1.542.133a2.86,2.86,0,0,0,.4,1.635,1.308,1.308,0,0,0,1.145.587,1.458,1.458,0,0,0,1.385-.844V66.262a1.436,1.436,0,0,0-1.371-.825,1.322,1.322,0,0,0-1.157.593A3.193,3.193,0,0,0,438.191,67.817Z"/><path d="M450.3,67.8a4.138,4.138,0,0,1-.712,2.546,2.33,2.33,0,0,1-1.965.946,2.238,2.238,0,0,1-1.879-.87l-.076.743h-1.4v-9.75h1.542v3.542a2.231,2.231,0,0,1,1.8-.787,2.355,2.355,0,0,1,1.975.933,4.194,4.194,0,0,1,.716,2.609Zm-1.542-.133A2.923,2.923,0,0,0,448.367,66a1.311,1.311,0,0,0-1.143-.558,1.433,1.433,0,0,0-1.409.876v2.831a1.446,1.446,0,0,0,1.422.895,1.3,1.3,0,0,0,1.117-.54,2.816,2.816,0,0,0,.406-1.631Z"/><path d="M451.306,67.671a4.047,4.047,0,0,1,.4-1.819,2.918,2.918,0,0,1,1.124-1.244,3.169,3.169,0,0,1,1.662-.434,3,3,0,0,1,2.257.895,3.519,3.519,0,0,1,.936,2.374l.006.361a4.088,4.088,0,0,1-.39,1.816,2.882,2.882,0,0,1-1.117,1.238,3.188,3.188,0,0,1-1.678.438,2.983,2.983,0,0,1-2.328-.968,3.714,3.714,0,0,1-.872-2.581Zm1.542.133a2.766,2.766,0,0,0,.439,1.661,1.423,1.423,0,0,0,1.219.6,1.407,1.407,0,0,0,1.214-.609,3.056,3.056,0,0,0,.436-1.784,2.726,2.726,0,0,0-.448-1.65,1.429,1.429,0,0,0-1.216-.61,1.415,1.415,0,0,0-1.2.6A2.988,2.988,0,0,0,452.848,67.8Z"/><path d="M462.592,65.71a3.811,3.811,0,0,0-.628-.051,1.418,1.418,0,0,0-1.429.812v4.7h-1.542V64.3h1.473l.038.768a1.737,1.737,0,0,1,1.548-.895,1.423,1.423,0,0,1,.546.089Z"/><path d="M465,64.3l.045.793a2.466,2.466,0,0,1,2-.92q2.145,0,2.183,2.456v4.539h-1.542v-4.45a1.411,1.411,0,0,0-.283-.968,1.188,1.188,0,0,0-.924-.314,1.485,1.485,0,0,0-1.389.844v4.888h-1.542V64.3Z"/><path d="M472.457,71.169h-1.543V64.3h1.543Zm-.293-9.706h1.759l-1.759,1.924-1.238,0Z"/><path d="M481.045,65.71a3.8,3.8,0,0,0-.629-.051,1.416,1.416,0,0,0-1.428.812v4.7h-1.543V64.3h1.473l.039.768a1.736,1.736,0,0,1,1.549-.895,1.419,1.419,0,0,1,.544.089Z"/><path d="M484.924,71.3a3.19,3.19,0,0,1-2.378-.924,3.352,3.352,0,0,1-.912-2.46v-.19a4.109,4.109,0,0,1,.4-1.837,3.028,3.028,0,0,1,1.114-1.261,2.947,2.947,0,0,1,1.6-.45,2.7,2.7,0,0,1,2.167.895,3.777,3.777,0,0,1,.764,2.532v.622H483.19a2.057,2.057,0,0,0,.568,1.346,1.707,1.707,0,0,0,1.253.495,2.085,2.085,0,0,0,1.727-.857l.832.794a2.779,2.779,0,0,1-1.1.955A3.45,3.45,0,0,1,484.924,71.3Zm-.185-5.885a1.3,1.3,0,0,0-1.025.445,2.3,2.3,0,0,0-.5,1.238h2.938v-.115a1.872,1.872,0,0,0-.412-1.171A1.291,1.291,0,0,0,484.739,65.411Z"/><path d="M491.7,70.064a1.393,1.393,0,0,0,.958-.336,1.146,1.146,0,0,0,.406-.832h1.454a2.264,2.264,0,0,1-.4,1.2,2.633,2.633,0,0,1-1.016.879,3.022,3.022,0,0,1-1.384.324,2.933,2.933,0,0,1-2.286-.933,3.7,3.7,0,0,1-.843-2.578v-.158a3.639,3.639,0,0,1,.838-2.511,2.9,2.9,0,0,1,2.285-.942,2.822,2.822,0,0,1,2,.714,2.56,2.56,0,0,1,.809,1.875H493.06a1.407,1.407,0,0,0-.4-.971,1.3,1.3,0,0,0-.962-.381,1.36,1.36,0,0,0-1.155.543,2.76,2.76,0,0,0-.412,1.647v.248a2.812,2.812,0,0,0,.4,1.666A1.357,1.357,0,0,0,491.7,70.064Z"/><path d="M498.7,71.3a3.191,3.191,0,0,1-2.378-.924,3.351,3.351,0,0,1-.91-2.46v-.19a4.135,4.135,0,0,1,.4-1.837,3.035,3.035,0,0,1,1.114-1.261,2.947,2.947,0,0,1,1.6-.45,2.694,2.694,0,0,1,2.167.895,3.777,3.777,0,0,1,.766,2.532v.622H496.97a2.067,2.067,0,0,0,.569,1.346,1.706,1.706,0,0,0,1.254.495,2.085,2.085,0,0,0,1.726-.857l.832.794a2.776,2.776,0,0,1-1.1.955A3.455,3.455,0,0,1,498.7,71.3Zm-.185-5.885a1.3,1.3,0,0,0-1.025.445,2.305,2.305,0,0,0-.5,1.238h2.939v-.115a1.878,1.878,0,0,0-.412-1.171A1.294,1.294,0,0,0,498.519,65.411Z"/><path d="M504.087,64.3l.044.793a2.467,2.467,0,0,1,2-.92q2.144,0,2.183,2.456v4.539h-1.543v-4.45a1.417,1.417,0,0,0-.282-.968,1.19,1.19,0,0,0-.923-.314,1.486,1.486,0,0,0-1.391.844v4.888h-1.542V64.3Z"/><path d="M511.533,69.937h3.656v1.232h-5.574v-1.01l3.485-4.614h-3.421V64.3h5.376v.977Z"/><path d="M519.346,71.3a3.194,3.194,0,0,1-2.378-.924,3.355,3.355,0,0,1-.91-2.46v-.19a4.122,4.122,0,0,1,.4-1.837,3.028,3.028,0,0,1,1.114-1.261,2.947,2.947,0,0,1,1.6-.45,2.7,2.7,0,0,1,2.167.895A3.782,3.782,0,0,1,522.1,67.6v.622h-4.488a2.066,2.066,0,0,0,.568,1.346,1.706,1.706,0,0,0,1.254.495,2.088,2.088,0,0,0,1.727-.857l.832.794a2.786,2.786,0,0,1-1.1.955A3.452,3.452,0,0,1,519.346,71.3Zm-.184-5.885a1.3,1.3,0,0,0-1.026.445,2.321,2.321,0,0,0-.5,1.238h2.94v-.115a1.878,1.878,0,0,0-.412-1.171A1.294,1.294,0,0,0,519.162,65.411Z"/><path d="M524.729,64.3l.044.793a2.469,2.469,0,0,1,2-.92q2.145,0,2.184,2.456v4.539h-1.543v-4.45a1.417,1.417,0,0,0-.282-.968,1.192,1.192,0,0,0-.923-.314,1.486,1.486,0,0,0-1.391.844v4.888h-1.543V64.3Z"/><path d="M532.461,62.631V64.3h1.213v1.142h-1.213v3.834a.842.842,0,0,0,.156.569.72.72,0,0,0,.555.174,2.34,2.34,0,0,0,.539-.064V71.15a3.813,3.813,0,0,1-1.016.146q-1.778,0-1.777-1.962V65.443h-1.129V64.3h1.129v-1.67Z"/><path d="M534.853,62.517a.818.818,0,0,1,.226-.59.849.849,0,0,1,.644-.235.862.862,0,0,1,.648.235.812.812,0,0,1,.228.59.792.792,0,0,1-.228.58.868.868,0,0,1-.648.232.855.855,0,0,1-.644-.232A.8.8,0,0,1,534.853,62.517Zm1.639,8.652h-1.543V64.3h1.543Z"/><path d="M433.685,81.8a4.138,4.138,0,0,1-.711,2.549,2.266,2.266,0,0,1-1.9.943,2.54,2.54,0,0,1-2.158-.991v3.5h-.756V78.3h.7l.037.971a2.439,2.439,0,0,1,2.152-1.1,2.288,2.288,0,0,1,1.934.933,4.231,4.231,0,0,1,.7,2.59Zm-.761-.133a3.519,3.519,0,0,0-.541-2.075,1.74,1.74,0,0,0-1.5-.762,2,2,0,0,0-1.967,1.314v3.294a2.01,2.01,0,0,0,.78.9,2.255,2.255,0,0,0,1.2.311,1.72,1.72,0,0,0,1.494-.766A3.839,3.839,0,0,0,432.924,81.671Z"/><path d="M436.979,76.739l1.092-1.231h.679v.076l-1.5,1.657h-.545l-1.5-1.664v-.069h.678Zm1.562,2.209a2.8,2.8,0,0,0-.514-.044,1.851,1.851,0,0,0-1.2.4,2.159,2.159,0,0,0-.7,1.151v4.717h-.756V78.3h.742l.014,1.091a2.018,2.018,0,0,1,1.935-1.218,1.256,1.256,0,0,1,.5.082Z"/><path d="M439.7,76.317a.507.507,0,0,1,.14-.363.5.5,0,0,1,.381-.148.5.5,0,0,1,.527.511.5.5,0,0,1-.143.36.518.518,0,0,1-.384.145.506.506,0,0,1-.381-.145A.5.5,0,0,1,439.7,76.317Zm.9,8.852h-.762V78.3h.762Z"/><path d="M448.176,81.8a4.144,4.144,0,0,1-.71,2.549,2.267,2.267,0,0,1-1.905.943,2.54,2.54,0,0,1-2.158-.991v3.5h-.755V78.3h.7l.038.971a2.439,2.439,0,0,1,2.153-1.1,2.283,2.283,0,0,1,1.932.933,4.224,4.224,0,0,1,.7,2.59Zm-.761-.133a3.526,3.526,0,0,0-.54-2.075,1.741,1.741,0,0,0-1.5-.762,2,2,0,0,0-1.968,1.314v3.294a2.028,2.028,0,0,0,.78.9,2.258,2.258,0,0,0,1.2.311,1.723,1.723,0,0,0,1.5-.766A3.847,3.847,0,0,0,447.415,81.671Z"/><path d="M449.439,81.633a4.044,4.044,0,0,1,.385-1.784,2.887,2.887,0,0,1,2.676-1.675,2.818,2.818,0,0,1,2.22.962,3.7,3.7,0,0,1,.852,2.548v.159a4.078,4.078,0,0,1-.385,1.793,2.871,2.871,0,0,1-1.082,1.228,2.964,2.964,0,0,1-1.594.432,2.83,2.83,0,0,1-2.218-.962,3.7,3.7,0,0,1-.854-2.549Zm.762.21a3.111,3.111,0,0,0,.639,2.021,2.155,2.155,0,0,0,3.337,0,3.214,3.214,0,0,0,.639-2.085v-.146a3.5,3.5,0,0,0-.292-1.441,2.35,2.35,0,0,0-.819-1.013,2.1,2.1,0,0,0-1.2-.358,2.031,2.031,0,0,0-1.658.8A3.232,3.232,0,0,0,450.2,81.7Z"/><path d="M457.832,78.3l.025,1.117a2.534,2.534,0,0,1,.951-.933,2.608,2.608,0,0,1,1.27-.311,1.926,1.926,0,0,1,2.063,1.333,2.58,2.58,0,0,1,.984-.988,2.733,2.733,0,0,1,1.359-.345q2.209,0,2.253,2.412v4.583h-.762V80.643a2.054,2.054,0,0,0-.4-1.365,1.618,1.618,0,0,0-1.273-.444,2.019,2.019,0,0,0-1.384.53,1.874,1.874,0,0,0-.628,1.26v4.545h-.762V80.586a1.886,1.886,0,0,0-.416-1.318,1.656,1.656,0,0,0-1.26-.434,1.921,1.921,0,0,0-1.231.409,2.4,2.4,0,0,0-.762,1.216v4.71H457.1V78.3Z"/><path d="M469.892,75.5h.92l-1.467,1.777-.666,0Zm-.394,9.674h-.762V78.3h.762Z"/><path d="M472.279,78.3l.025,1.174a2.719,2.719,0,0,1,.965-.968,2.51,2.51,0,0,1,1.276-.333,2.06,2.06,0,0,1,1.644.622,2.8,2.8,0,0,1,.545,1.866v4.507h-.755V80.656a2.112,2.112,0,0,0-.389-1.372,1.533,1.533,0,0,0-1.229-.45,1.92,1.92,0,0,0-1.248.441,2.6,2.6,0,0,0-.8,1.19v4.7h-.756V78.3Z"/><path d="M480.328,81.709l-.87.838v2.622H478.7v-9.75h.762v6.24l.717-.775L482.8,78.3h.959l-2.914,2.894,3.168,3.974h-.908Z"/><path d="M489.48,84.3a2.466,2.466,0,0,1-2.189,1,2.126,2.126,0,0,1-1.67-.638,2.8,2.8,0,0,1-.584-1.889V78.3h.756v4.373q0,1.962,1.587,1.962a1.947,1.947,0,0,0,2.088-1.365V78.3h.762v6.868h-.736Z"/><path d="M493.023,78.3v7.687a2.084,2.084,0,0,1-.457,1.453,1.729,1.729,0,0,1-1.346.5,1.908,1.908,0,0,1-.667-.12l.013-.623a2.007,2.007,0,0,0,.571.083q1.129,0,1.13-1.3V78.3Zm-.375-2.5a.494.494,0,0,1,.527.511.5.5,0,0,1-.14.36.514.514,0,0,1-.387.145.5.5,0,0,1-.378-.145.506.506,0,0,1-.136-.36.516.516,0,0,1,.136-.363A.489.489,0,0,1,492.648,75.806Z"/><path d="M496.4,75.5h.92l-1.467,1.777-.666,0Zm-.394,9.674h-.762V78.3h.762Z"/><path d="M506.746,81.8a4.138,4.138,0,0,1-.711,2.549,2.266,2.266,0,0,1-1.9.943,2.542,2.542,0,0,1-2.159-.991v3.5h-.755V78.3h.705l.039.971a2.435,2.435,0,0,1,2.151-1.1,2.284,2.284,0,0,1,1.933.933,4.231,4.231,0,0,1,.7,2.59Zm-.762-.133a3.534,3.534,0,0,0-.539-2.075,1.738,1.738,0,0,0-1.5-.762,2,2,0,0,0-1.969,1.314v3.294a2.032,2.032,0,0,0,.782.9,2.251,2.251,0,0,0,1.2.311,1.725,1.725,0,0,0,1.5-.766A3.848,3.848,0,0,0,505.984,81.671Z"/><path d="M510.041,76.739l1.092-1.231h.679v.076l-1.5,1.657h-.547l-1.5-1.664v-.069h.68Zm1.561,2.209a2.8,2.8,0,0,0-.514-.044,1.853,1.853,0,0,0-1.2.4,2.179,2.179,0,0,0-.7,1.151v4.717h-.755V78.3h.744l.011,1.091a2.022,2.022,0,0,1,1.937-1.218,1.244,1.244,0,0,1,.5.082Z"/><path d="M515.342,85.3a2.978,2.978,0,0,1-1.584-.432,2.93,2.93,0,0,1-1.1-1.2,3.753,3.753,0,0,1-.394-1.73v-.272a4.041,4.041,0,0,1,.384-1.784,3.046,3.046,0,0,1,1.071-1.247,2.632,2.632,0,0,1,1.484-.454,2.48,2.48,0,0,1,1.984.853,3.462,3.462,0,0,1,.733,2.333v.425h-4.9v.146a2.878,2.878,0,0,0,.67,1.946,2.133,2.133,0,0,0,1.686.778,2.481,2.481,0,0,0,1.076-.223,2.4,2.4,0,0,0,.848-.711l.475.362A2.771,2.771,0,0,1,515.342,85.3Zm-.141-6.475a1.9,1.9,0,0,0-1.443.629,2.9,2.9,0,0,0-.715,1.688h4.12v-.083a2.517,2.517,0,0,0-.566-1.612A1.751,1.751,0,0,0,515.2,78.821Z"/><path d="M519.092,81.671a4.145,4.145,0,0,1,.714-2.548,2.3,2.3,0,0,1,1.94-.949,2.388,2.388,0,0,1,2.12,1.1V75.419h.755v9.75h-.711l-.031-.914a2.454,2.454,0,0,1-2.146,1.041,2.292,2.292,0,0,1-1.914-.955,4.168,4.168,0,0,1-.727-2.581Zm.769.133a3.593,3.593,0,0,0,.526,2.073,1.7,1.7,0,0,0,1.486.759,2.045,2.045,0,0,0,1.993-1.238V80.173a2.03,2.03,0,0,0-1.981-1.339,1.725,1.725,0,0,0-1.491.752A3.832,3.832,0,0,0,519.861,81.8Z"/><path d="M433.685,95.8a4.138,4.138,0,0,1-.711,2.549,2.266,2.266,0,0,1-1.9.943,2.54,2.54,0,0,1-2.158-.991v3.5h-.756V92.3h.7l.037.971a2.439,2.439,0,0,1,2.152-1.1,2.288,2.288,0,0,1,1.934.933,4.231,4.231,0,0,1,.7,2.59Zm-.761-.133a3.519,3.519,0,0,0-.541-2.075,1.74,1.74,0,0,0-1.5-.762,2,2,0,0,0-1.967,1.314v3.294a2.01,2.01,0,0,0,.78.9,2.255,2.255,0,0,0,1.2.311,1.72,1.72,0,0,0,1.494-.766A3.839,3.839,0,0,0,432.924,95.671Z"/><path d="M439.785,98.3a2.469,2.469,0,0,1-2.19,1,2.128,2.128,0,0,1-1.67-.638,2.793,2.793,0,0,1-.583-1.889V92.3h.755v4.373q0,1.962,1.586,1.962a1.947,1.947,0,0,0,2.089-1.365V92.3h.762v6.868H439.8Z"/><path d="M448.037,95.8a4.138,4.138,0,0,1-.711,2.549,2.273,2.273,0,0,1-1.91.943,2.47,2.47,0,0,1-2.172-1.067l-.031.94H442.5v-9.75h.756V93.3a2.385,2.385,0,0,1,2.144-1.123,2.3,2.3,0,0,1,1.928.929,4.2,4.2,0,0,1,.707,2.587Zm-.762-.133a3.579,3.579,0,0,0-.527-2.1,1.716,1.716,0,0,0-1.485-.739,2.09,2.09,0,0,0-1.238.358,2.175,2.175,0,0,0-.767,1.051v3.1a2.033,2.033,0,0,0,2.017,1.3,1.708,1.708,0,0,0,1.471-.743A3.836,3.836,0,0,0,447.275,95.671Z"/><path d="M450.563,99.169H449.8v-9.75h.762Z"/><path d="M452.582,90.317a.514.514,0,0,1,.139-.363.5.5,0,0,1,.381-.148.508.508,0,0,1,.384.148.5.5,0,0,1,.143.363.491.491,0,0,1-.143.36.518.518,0,0,1-.384.145.487.487,0,0,1-.52-.505Zm.894,8.852h-.761V92.3h.761Z"/><path d="M457.172,95.709l-.871.838v2.622h-.761v-9.75h.761v6.24l.718-.775,2.627-2.583h.959L457.691,95.2l3.168,3.974h-.908Z"/><path d="M466.242,99.169a3.627,3.627,0,0,1-.147-.959,2.633,2.633,0,0,1-1.017.8,3.133,3.133,0,0,1-1.312.283,2.3,2.3,0,0,1-1.6-.553,1.8,1.8,0,0,1-.614-1.4,1.841,1.841,0,0,1,.836-1.587,4.011,4.011,0,0,1,2.327-.584h1.377V94.4a1.506,1.506,0,0,0-.454-1.158,1.873,1.873,0,0,0-1.324-.422,2.07,2.07,0,0,0-1.314.406,1.207,1.207,0,0,0-.52.978l-.761-.007a1.767,1.767,0,0,1,.761-1.419,2.936,2.936,0,0,1,1.872-.6,2.672,2.672,0,0,1,1.812.574,2.06,2.06,0,0,1,.683,1.6V97.6a4.049,4.049,0,0,0,.209,1.492v.076Zm-2.387-.546a2.558,2.558,0,0,0,1.362-.368,2.172,2.172,0,0,0,.873-.984V95.76h-1.359a3.4,3.4,0,0,0-1.777.416,1.25,1.25,0,0,0-.642,1.108,1.224,1.224,0,0,0,.43.958A1.61,1.61,0,0,0,463.855,98.623Z"/><path d="M471.409,98.655a2.006,2.006,0,0,0,1.33-.448,1.577,1.577,0,0,0,.581-1.158h.73a2.149,2.149,0,0,1-.394,1.145,2.468,2.468,0,0,1-.962.81,2.889,2.889,0,0,1-1.285.292,2.655,2.655,0,0,1-2.143-.94,3.8,3.8,0,0,1-.79-2.526V95.6a4.29,4.29,0,0,1,.356-1.8A2.733,2.733,0,0,1,469.85,92.6a2.811,2.811,0,0,1,1.552-.425,2.648,2.648,0,0,1,1.863.672,2.457,2.457,0,0,1,.785,1.771h-.73a1.838,1.838,0,0,0-1.918-1.8,1.9,1.9,0,0,0-1.6.743,3.358,3.358,0,0,0-.568,2.082v.222a3.281,3.281,0,0,0,.568,2.05A1.906,1.906,0,0,0,471.409,98.655Z"/><path d="M476.8,89.5h.919l-1.466,1.777-.666,0Zm-.395,9.674h-.762V92.3h.762Z"/><g class="cls-7"><line class="cls-8" x1="367.349" y1="65.359" x2="378.204" y2="65.359"/><polygon class="cls-9" points="374.89 69.449 374.208 68.716 377.82 65.36 374.208 62.003 374.89 61.27 379.288 65.36 374.89 69.449"/></g><circle class="cls-10" cx="598.746" cy="75.99" r="15.942"/><path class="cls-6" d="M597.868,77.86l-1.793-1.793a.339.339,0,1,1,.479-.479l1.314,1.313,3.012-3.011a.339.339,0,0,1,.479.479Zm3.884,8.169.732-.785a.733.733,0,0,1,.553-.282h1.125a1.394,1.394,0,0,0,1.394-.994l.364-1.042a.743.743,0,0,1,.426-.5l1.021-.459a1.473,1.473,0,0,0,.866-1.518l-.107-1.1a.759.759,0,0,1,.176-.59l.753-.854a1.426,1.426,0,0,0,.2-1.746l-.56-.917a.817.817,0,0,1-.073-.639l.359-1.074a1.493,1.493,0,0,0-.542-1.668l-.9-.595a.854.854,0,0,1-.334-.584l-.1-1.132a1.466,1.466,0,0,0-1.191-1.266l-1.042-.208a.66.66,0,0,1-.521-.4l-.559-.965a1.47,1.47,0,0,0-1.6-.728l-1.1.264a.607.607,0,0,1-.563-.158l-.92-.665-.019-.012a1.68,1.68,0,0,0-1.773.024l-.793.645a.872.872,0,0,1-.656.157l-1.134-.258a1.451,1.451,0,0,0-1.59.73l-.519.934a.662.662,0,0,1-.543.384l-1.06.253a1.469,1.469,0,0,0-1.192,1.271l-.1,1.106a.7.7,0,0,1-.319.543l-.925.669a1.487,1.487,0,0,0-.527,1.661l.357,1.018a.814.814,0,0,1-.075.643l-.564.976a1.412,1.412,0,0,0,.195,1.718l.73.834a.614.614,0,0,1,.209.6l-.1,1.121a1.473,1.473,0,0,0,.871,1.523l.951.4a.777.777,0,0,1,.442.465l.359,1.129a1.485,1.485,0,0,0,1.395,1l1.122,0a.621.621,0,0,1,.574.255l.759.809a1.45,1.45,0,0,0,1.73.39l.977-.464a.653.653,0,0,1,.63.006l1.023.461a1.507,1.507,0,0,0,.613.133A1.455,1.455,0,0,0,601.752,86.029Zm-3.666-.691-.964.458a.786.786,0,0,1-.944-.229l-.749-.8a1.222,1.222,0,0,0-1.134-.485h-1.074a.819.819,0,0,1-.75-.531l-.359-1.129a1.468,1.468,0,0,0-.8-.87l-.965-.407a.792.792,0,0,1-.465-.835l.1-1.108a1.266,1.266,0,0,0-.388-1.14l-.731-.834a.738.738,0,0,1-.1-.92l.57-.989a1.5,1.5,0,0,0,.12-1.184l-.356-1.019a.8.8,0,0,1,.286-.9l.934-.674A1.344,1.344,0,0,0,590.9,70.7l.1-1.068a.807.807,0,0,1,.662-.679l1.042-.25a1.316,1.316,0,0,0,1.016-.734l.511-.92a.75.75,0,0,1,.856-.4l1.145.26a1.594,1.594,0,0,0,1.189-.276l.784-.641a1,1,0,0,1,1.012,0l.9.647a1.224,1.224,0,0,0,1.159.27l1.069-.254a.792.792,0,0,1,.86.4l.553.953a1.317,1.317,0,0,0,1,.743l1.024.2a.8.8,0,0,1,.648.669l.1,1.142a1.565,1.565,0,0,0,.608,1.053l.9.6a.8.8,0,0,1,.291.9l-.359,1.075a1.492,1.492,0,0,0,.136,1.2l.555.908a.747.747,0,0,1-.111.94l-.777.881a1.426,1.426,0,0,0-.33,1.114l.1,1.075a.8.8,0,0,1-.467.833l-1.035.466a1.4,1.4,0,0,0-.782.907l-.369,1.061a.728.728,0,0,1-.743.5h-1.125a1.393,1.393,0,0,0-1.066.516l-.722.775a.782.782,0,0,1-.936.221l-1.01-.454a1.325,1.325,0,0,0-1.217,0Zm8.253-9.477a7.622,7.622,0,1,0-7.622,7.622A7.63,7.63,0,0,0,606.339,75.861Zm-.678,0a6.944,6.944,0,1,1-6.944-6.944A6.952,6.952,0,0,1,605.661,75.861Z"/><path d="M631,66.789a5.675,5.675,0,0,1-.47,2.384,3.559,3.559,0,0,1-1.343,1.574,3.939,3.939,0,0,1-4.012,0,3.6,3.6,0,0,1-1.358-1.565,5.5,5.5,0,0,1-.485-2.342v-.521a5.632,5.632,0,0,1,.479-2.387,3.609,3.609,0,0,1,1.352-1.584,3.95,3.95,0,0,1,4.006,0,3.547,3.547,0,0,1,1.348,1.561A5.6,5.6,0,0,1,631,66.275Zm-1.606-.483a4.044,4.044,0,0,0-.581-2.355,2.05,2.05,0,0,0-3.275,0,3.963,3.963,0,0,0-.6,2.308v.533a4.008,4.008,0,0,0,.594,2.355,1.912,1.912,0,0,0,1.647.831,1.89,1.89,0,0,0,1.641-.812,4.088,4.088,0,0,0,.575-2.374Z"/><path d="M632.166,67.684a4.078,4.078,0,0,1,.736-2.548,2.355,2.355,0,0,1,1.974-.962,2.244,2.244,0,0,1,1.764.761V61.419h1.543v9.75h-1.4l-.076-.711a2.278,2.278,0,0,1-1.848.838,2.346,2.346,0,0,1-1.952-.971A4.236,4.236,0,0,1,632.166,67.684Zm1.542.133a2.86,2.86,0,0,0,.4,1.635,1.308,1.308,0,0,0,1.146.587,1.457,1.457,0,0,0,1.383-.844V66.262a1.434,1.434,0,0,0-1.371-.825,1.316,1.316,0,0,0-1.155.593A3.185,3.185,0,0,0,633.708,67.817Z"/><path d="M645.819,67.8a4.126,4.126,0,0,1-.714,2.546,2.328,2.328,0,0,1-1.965.946,2.242,2.242,0,0,1-1.879-.87l-.076.743h-1.4v-9.75h1.543v3.542a2.229,2.229,0,0,1,1.8-.787,2.349,2.349,0,0,1,1.973.933,4.187,4.187,0,0,1,.718,2.609Zm-1.542-.133A2.922,2.922,0,0,0,643.883,66a1.311,1.311,0,0,0-1.143-.558,1.43,1.43,0,0,0-1.408.876v2.831a1.445,1.445,0,0,0,1.422.895,1.3,1.3,0,0,0,1.117-.54,2.832,2.832,0,0,0,.406-1.631Z"/><path d="M646.822,67.671a4.047,4.047,0,0,1,.4-1.819,2.922,2.922,0,0,1,1.123-1.244,3.178,3.178,0,0,1,1.663-.434,3,3,0,0,1,2.257.895,3.514,3.514,0,0,1,.936,2.374l.007.361a4.088,4.088,0,0,1-.39,1.816,2.9,2.9,0,0,1-1.117,1.238,3.193,3.193,0,0,1-1.68.438,2.98,2.98,0,0,1-2.326-.968,3.71,3.71,0,0,1-.873-2.581Zm1.543.133a2.773,2.773,0,0,0,.437,1.661,1.426,1.426,0,0,0,1.219.6,1.406,1.406,0,0,0,1.215-.609,3.048,3.048,0,0,0,.436-1.784,2.726,2.726,0,0,0-.448-1.65,1.508,1.508,0,0,0-2.416-.009A3,3,0,0,0,648.365,67.8Z"/><path d="M658.108,65.71a3.8,3.8,0,0,0-.628-.051,1.417,1.417,0,0,0-1.429.812v4.7h-1.542V64.3h1.473l.037.768a1.738,1.738,0,0,1,1.549-.895,1.436,1.436,0,0,1,.547.089Z"/><path d="M660.513,64.3l.045.793a2.468,2.468,0,0,1,2-.92q2.145,0,2.184,2.456v4.539H663.2v-4.45a1.411,1.411,0,0,0-.283-.968,1.189,1.189,0,0,0-.923-.314,1.486,1.486,0,0,0-1.39.844v4.888H659.06V64.3Z"/><path d="M667.972,71.169h-1.543V64.3h1.543Zm-.292-9.706h1.759l-1.759,1.924-1.237,0Z"/><path d="M676.56,65.71a3.793,3.793,0,0,0-.628-.051,1.416,1.416,0,0,0-1.428.812v4.7h-1.542V64.3h1.472l.038.768a1.738,1.738,0,0,1,1.549-.895,1.423,1.423,0,0,1,.546.089Z"/><path d="M680.439,71.3a3.192,3.192,0,0,1-2.377-.924,3.351,3.351,0,0,1-.911-2.46v-.19a4.1,4.1,0,0,1,.4-1.837,3.005,3.005,0,0,1,1.113-1.261,2.949,2.949,0,0,1,1.6-.45,2.693,2.693,0,0,1,2.168.895,3.782,3.782,0,0,1,.765,2.532v.622h-4.487a2.057,2.057,0,0,0,.568,1.346,1.7,1.7,0,0,0,1.253.495,2.089,2.089,0,0,0,1.727-.857l.831.794a2.773,2.773,0,0,1-1.1.955A3.451,3.451,0,0,1,680.439,71.3Zm-.183-5.885a1.3,1.3,0,0,0-1.026.445,2.3,2.3,0,0,0-.5,1.238h2.939v-.115a1.878,1.878,0,0,0-.413-1.171A1.291,1.291,0,0,0,680.256,65.411Z"/><path d="M687.213,70.064a1.4,1.4,0,0,0,.958-.336,1.15,1.15,0,0,0,.406-.832h1.454a2.274,2.274,0,0,1-.4,1.2,2.626,2.626,0,0,1-1.016.879,3.028,3.028,0,0,1-1.384.324,2.929,2.929,0,0,1-2.285-.933,3.7,3.7,0,0,1-.845-2.578v-.158a3.643,3.643,0,0,1,.838-2.511,2.9,2.9,0,0,1,2.285-.942,2.821,2.821,0,0,1,2,.714,2.557,2.557,0,0,1,.81,1.875h-1.454a1.417,1.417,0,0,0-.4-.971,1.3,1.3,0,0,0-.961-.381,1.364,1.364,0,0,0-1.157.543,2.774,2.774,0,0,0-.412,1.647v.248a2.811,2.811,0,0,0,.4,1.666A1.356,1.356,0,0,0,687.213,70.064Z"/><path d="M694.22,71.3a3.193,3.193,0,0,1-2.378-.924,3.355,3.355,0,0,1-.911-2.46v-.19a4.109,4.109,0,0,1,.4-1.837,3.021,3.021,0,0,1,1.114-1.261,2.947,2.947,0,0,1,1.6-.45,2.7,2.7,0,0,1,2.167.895,3.782,3.782,0,0,1,.764,2.532v.622h-4.487a2.057,2.057,0,0,0,.568,1.346,1.7,1.7,0,0,0,1.253.495,2.085,2.085,0,0,0,1.727-.857l.832.794a2.779,2.779,0,0,1-1.1.955A3.451,3.451,0,0,1,694.22,71.3Zm-.184-5.885a1.3,1.3,0,0,0-1.026.445,2.313,2.313,0,0,0-.5,1.238h2.939v-.115a1.872,1.872,0,0,0-.412-1.171A1.291,1.291,0,0,0,694.036,65.411Z"/><path d="M699.6,64.3l.044.793a2.469,2.469,0,0,1,2-.92q2.147,0,2.184,2.456v4.539h-1.542v-4.45a1.422,1.422,0,0,0-.282-.968,1.193,1.193,0,0,0-.924-.314,1.487,1.487,0,0,0-1.391.844v4.888h-1.542V64.3Z"/><path d="M707.049,69.937h3.656v1.232h-5.573v-1.01l3.485-4.614H705.2V64.3h5.377v.977Z"/><path d="M714.863,71.3a3.19,3.19,0,0,1-2.378-.924,3.355,3.355,0,0,1-.911-2.46v-.19a4.122,4.122,0,0,1,.4-1.837,3.023,3.023,0,0,1,1.115-1.261,2.942,2.942,0,0,1,1.6-.45,2.694,2.694,0,0,1,2.167.895,3.777,3.777,0,0,1,.765,2.532v.622H713.13a2.052,2.052,0,0,0,.568,1.346,1.7,1.7,0,0,0,1.253.495,2.084,2.084,0,0,0,1.726-.857l.832.794a2.776,2.776,0,0,1-1.1.955A3.454,3.454,0,0,1,714.863,71.3Zm-.185-5.885a1.3,1.3,0,0,0-1.025.445,2.3,2.3,0,0,0-.5,1.238h2.938v-.115a1.866,1.866,0,0,0-.412-1.171A1.291,1.291,0,0,0,714.678,65.411Z"/><path d="M720.246,64.3l.044.793a2.469,2.469,0,0,1,2-.92q2.145,0,2.183,2.456v4.539H722.93v-4.45a1.417,1.417,0,0,0-.282-.968,1.19,1.19,0,0,0-.924-.314,1.485,1.485,0,0,0-1.39.844v4.888h-1.542V64.3Z"/><path d="M727.976,62.631V64.3h1.213v1.142h-1.213v3.834a.847.847,0,0,0,.157.569.72.72,0,0,0,.554.174,2.342,2.342,0,0,0,.54-.064V71.15a3.806,3.806,0,0,1-1.015.146q-1.777,0-1.778-1.962V65.443H725.3V64.3h1.13v-1.67Z"/><path d="M730.37,62.517a.818.818,0,0,1,.225-.59,1,1,0,0,1,1.291,0,.808.808,0,0,1,.229.59.788.788,0,0,1-.229.58,1.014,1.014,0,0,1-1.291,0A.8.8,0,0,1,730.37,62.517Zm1.638,8.652h-1.543V64.3h1.543Z"/><path d="M627.792,83.423a1.086,1.086,0,0,0-.454-.908,3.507,3.507,0,0,0-1.368-.536,6.18,6.18,0,0,1-1.419-.444,1.9,1.9,0,0,1-.749-.613,1.527,1.527,0,0,1-.244-.876,1.636,1.636,0,0,1,.679-1.342,2.737,2.737,0,0,1,1.739-.53,2.821,2.821,0,0,1,1.844.568,1.821,1.821,0,0,1,.695,1.482h-.761a1.229,1.229,0,0,0-.5-1,2.279,2.279,0,0,0-2.476-.067,1.028,1.028,0,0,0-.453.867.934.934,0,0,0,.377.8,3.989,3.989,0,0,0,1.378.518,6.556,6.556,0,0,1,1.5.5,1.941,1.941,0,0,1,.739.641,1.764,1.764,0,0,1-.46,2.3,3,3,0,0,1-1.831.521,3.076,3.076,0,0,1-1.946-.581,1.788,1.788,0,0,1-.745-1.47h.762a1.317,1.317,0,0,0,.561,1.038,2.294,2.294,0,0,0,1.368.372,2.151,2.151,0,0,0,1.281-.35A1.044,1.044,0,0,0,627.792,83.423Z"/><path d="M632.8,84.655a2.008,2.008,0,0,0,1.331-.448,1.576,1.576,0,0,0,.58-1.158h.73a2.141,2.141,0,0,1-.394,1.145,2.465,2.465,0,0,1-.961.81,2.9,2.9,0,0,1-1.286.292,2.65,2.65,0,0,1-2.142-.94,3.8,3.8,0,0,1-.791-2.526V81.6a4.306,4.306,0,0,1,.355-1.8,2.749,2.749,0,0,1,1.02-1.206,2.8,2.8,0,0,1,1.552-.425,2.647,2.647,0,0,1,1.862.672,2.453,2.453,0,0,1,.785,1.771h-.73a1.837,1.837,0,0,0-1.917-1.8,1.9,1.9,0,0,0-1.6.743,3.358,3.358,0,0,0-.568,2.082v.222a3.281,3.281,0,0,0,.568,2.05A1.908,1.908,0,0,0,632.8,84.655Z"/><path d="M637.713,79.462a2.689,2.689,0,0,1,.959-.952,2.508,2.508,0,0,1,1.275-.336,2.062,2.062,0,0,1,1.645.622,2.805,2.805,0,0,1,.545,1.866v4.507h-.754V80.656a2.106,2.106,0,0,0-.391-1.372,1.532,1.532,0,0,0-1.229-.45,1.923,1.923,0,0,0-1.247.441,2.58,2.58,0,0,0-.8,1.19v4.7h-.755v-9.75h.755Z"/><path d="M646.232,84.121l2.088-5.82h.781l-2.564,6.868h-.616L643.343,78.3h.782Z"/><path d="M654.586,85.169a3.585,3.585,0,0,1-.147-.959,2.643,2.643,0,0,1-1.018.8,3.13,3.13,0,0,1-1.312.283,2.3,2.3,0,0,1-1.6-.553,1.8,1.8,0,0,1-.613-1.4,1.84,1.84,0,0,1,.835-1.587,4.01,4.01,0,0,1,2.326-.584h1.378V80.4a1.506,1.506,0,0,0-.454-1.158,1.874,1.874,0,0,0-1.323-.422,2.07,2.07,0,0,0-1.314.406,1.206,1.206,0,0,0-.521.978l-.762-.007a1.768,1.768,0,0,1,.762-1.419,2.938,2.938,0,0,1,1.872-.6,2.675,2.675,0,0,1,1.813.574,2.063,2.063,0,0,1,.682,1.6V83.6a4.025,4.025,0,0,0,.21,1.492v.076Zm-2.387-.546a2.552,2.552,0,0,0,1.361-.368,2.172,2.172,0,0,0,.873-.984V81.76h-1.359a3.4,3.4,0,0,0-1.777.416,1.249,1.249,0,0,0-.641,1.108,1.227,1.227,0,0,0,.429.958A1.613,1.613,0,0,0,652.2,84.623Z"/><path d="M658.064,85.169H657.3v-9.75h.762Z"/><path d="M664.545,84.3a2.469,2.469,0,0,1-2.19,1,2.128,2.128,0,0,1-1.67-.638,2.793,2.793,0,0,1-.584-1.889V78.3h.756v4.373q0,1.962,1.586,1.962a1.947,1.947,0,0,0,2.089-1.365V78.3h.762v6.868h-.737Z"/><path d="M668.087,78.3v7.687a2.089,2.089,0,0,1-.457,1.453,1.728,1.728,0,0,1-1.346.5,1.908,1.908,0,0,1-.667-.12l.014-.623a2,2,0,0,0,.57.083q1.131,0,1.131-1.3V78.3Zm-.374-2.5a.494.494,0,0,1,.526.511.5.5,0,0,1-.14.36.513.513,0,0,1-.386.145.5.5,0,0,1-.379-.145.51.51,0,0,1-.136-.36.521.521,0,0,1,.136-.363A.488.488,0,0,1,667.713,75.806Z"/><path d="M671.464,75.5h.92l-1.466,1.777-.666,0Zm-.394,9.674h-.762V78.3h.762Z"/><path d="M681.81,81.8a4.131,4.131,0,0,1-.711,2.549,2.266,2.266,0,0,1-1.9.943,2.542,2.542,0,0,1-2.158-.991v3.5h-.756V78.3h.705l.038.971a2.436,2.436,0,0,1,2.151-1.1,2.286,2.286,0,0,1,1.934.933,4.231,4.231,0,0,1,.7,2.59Zm-.761-.133a3.526,3.526,0,0,0-.54-2.075,1.74,1.74,0,0,0-1.5-.762,2,2,0,0,0-1.968,1.314v3.294a2.012,2.012,0,0,0,.781.9,2.251,2.251,0,0,0,1.2.311,1.723,1.723,0,0,0,1.495-.766A3.839,3.839,0,0,0,681.049,81.671Z"/><path d="M687.91,84.3a2.468,2.468,0,0,1-2.19,1,2.128,2.128,0,0,1-1.67-.638,2.8,2.8,0,0,1-.583-1.889V78.3h.755v4.373q0,1.962,1.587,1.962a1.947,1.947,0,0,0,2.089-1.365V78.3h.762v6.868h-.736Z"/><path d="M696.162,81.8a4.138,4.138,0,0,1-.711,2.549,2.271,2.271,0,0,1-1.91.943,2.468,2.468,0,0,1-2.171-1.067l-.032.94h-.711v-9.75h.756V79.3a2.385,2.385,0,0,1,2.145-1.123,2.3,2.3,0,0,1,1.927.929,4.193,4.193,0,0,1,.707,2.587Zm-.762-.133a3.587,3.587,0,0,0-.526-2.1,1.718,1.718,0,0,0-1.486-.739,2.094,2.094,0,0,0-1.238.358,2.181,2.181,0,0,0-.767,1.051v3.1a2.034,2.034,0,0,0,2.018,1.3,1.708,1.708,0,0,0,1.47-.743A3.829,3.829,0,0,0,695.4,81.671Z"/><path d="M698.689,85.169h-.762v-9.75h.762Z"/><path d="M700.707,76.317a.511.511,0,0,1,.14-.363.5.5,0,0,1,.381-.148.5.5,0,0,1,.527.511.5.5,0,0,1-.143.36.52.52,0,0,1-.384.145.506.506,0,0,1-.381-.145A.5.5,0,0,1,700.707,76.317Zm.895,8.852h-.761V78.3h.761Z"/><path d="M705.3,81.709l-.87.838v2.622h-.761v-9.75h.761v6.24l.717-.775,2.628-2.583h.958l-2.913,2.894,3.167,3.974h-.907Z"/><path d="M714.367,85.169a3.593,3.593,0,0,1-.146-.959,2.643,2.643,0,0,1-1.018.8,3.129,3.129,0,0,1-1.311.283,2.3,2.3,0,0,1-1.6-.553,1.8,1.8,0,0,1-.613-1.4,1.84,1.84,0,0,1,.835-1.587,4.015,4.015,0,0,1,2.327-.584h1.377V80.4a1.5,1.5,0,0,0-.454-1.158,1.873,1.873,0,0,0-1.324-.422,2.067,2.067,0,0,0-1.313.406,1.208,1.208,0,0,0-.521.978l-.761-.007a1.767,1.767,0,0,1,.761-1.419,2.939,2.939,0,0,1,1.873-.6,2.676,2.676,0,0,1,1.812.574,2.059,2.059,0,0,1,.682,1.6V83.6a4.071,4.071,0,0,0,.209,1.492v.076Zm-2.387-.546a2.555,2.555,0,0,0,1.362-.368,2.172,2.172,0,0,0,.873-.984V81.76h-1.358a3.393,3.393,0,0,0-1.777.416,1.248,1.248,0,0,0-.642,1.108,1.227,1.227,0,0,0,.429.958A1.61,1.61,0,0,0,711.98,84.623Z"/><path d="M719.535,84.655a2.006,2.006,0,0,0,1.33-.448,1.572,1.572,0,0,0,.58-1.158h.73a2.141,2.141,0,0,1-.394,1.145,2.458,2.458,0,0,1-.961.81,2.892,2.892,0,0,1-1.285.292,2.654,2.654,0,0,1-2.143-.94,3.8,3.8,0,0,1-.791-2.526V81.6a4.29,4.29,0,0,1,.356-1.8,2.741,2.741,0,0,1,1.019-1.206,2.807,2.807,0,0,1,1.552-.425,2.647,2.647,0,0,1,1.862.672,2.449,2.449,0,0,1,.785,1.771h-.73a1.837,1.837,0,0,0-1.917-1.8,1.9,1.9,0,0,0-1.6.743,3.358,3.358,0,0,0-.568,2.082v.222a3.281,3.281,0,0,0,.568,2.05A1.908,1.908,0,0,0,719.535,84.655Z"/><path d="M723.648,76.317a.51.51,0,0,1,.139-.363.5.5,0,0,1,.381-.148.5.5,0,0,1,.527.511.5.5,0,0,1-.143.36.516.516,0,0,1-.384.145.509.509,0,0,1-.381-.145A.5.5,0,0,1,723.648,76.317Zm.895,8.852h-.762V78.3h.762Z"/><g class="cls-7"><line class="cls-8" x1="562.865" y1="65.359" x2="573.719" y2="65.359"/><polygon class="cls-9" points="570.406 69.449 569.724 68.716 573.336 65.36 569.724 62.003 570.406 61.27 574.804 65.36 570.406 69.449"/></g><line class="cls-11" x1="85.209" y1="37.847" x2="654.791" y2="37.847"/></svg>