<?xml version="1.0" encoding="UTF-8"?><svg id="a" xmlns="http://www.w3.org/2000/svg" viewBox="0 0 411.15 347.93"><defs><style>.m{fill:rgba(251,176,64,0);}.n{fill:rgba(20,86,165,0);}.o{fill:#f58800;}.p{fill:#024b7a;}.q{fill:#f7941d;}.r{fill:#8c2c79;}.s{fill:#8e2980;}.t{fill:#414042;}.u,.v,.w,.x,.y,.z,.aa,.ab,.ac{isolation:isolate;}.u,.v,.ad{opacity:.3;}.u,.w,.y,.ab{fill:#fbb040;}.v,.x,.z,.aa{fill:#1456a5;}.w,.x,.ae{opacity:.15;}.af{stroke:#606060;}.af,.ag{stroke-miterlimit:10;}.af,.ag,.ah,.ai,.aj,.ak,.al,.am,.an,.ao,.ap,.aq,.ar,.as,.at,.au,.av,.aw,.ax,.ay,.az,.ba,.bb{fill:none;stroke-linecap:round;}.ag,.bc,.aq{stroke:#414042;}.y,.z,.bd{opacity:.7;}.aa,.ab,.be{opacity:.5;}.bc{fill:#fff;}.bf{opacity:.8;}.ah{stroke:#676769;}.ah,.ai,.aj,.ak,.al,.am,.an,.ao,.ap,.aq,.ar,.as,.at,.au,.av,.aw,.ax,.ay,.az,.ba,.bb{stroke-width:3px;}.ai{stroke:#909194;}.aj{stroke:#7e7f81;}.ak{stroke:#9c9ea0;}.al{stroke:#737375;}.am{stroke:#8a8b8e;}.an{stroke:#b5b7ba;}.ao{stroke:#848587;}.ap{stroke:#96979a;}.ar{stroke:#afb1b4;}.as{stroke:#a9aaad;}.at{stroke:#a2a4a7;}.au{stroke:#6d6d6f;}.av{stroke:#464547;}.aw{stroke:#515053;}.ax{stroke:#4c4b4d;}.ay{stroke:#78797b;}.az{stroke:#626164;}.ba{stroke:#565658;}.bb{stroke:#5c5c5e;}.bg{opacity:0;}</style></defs><g id="b"><g id="c" class="bf"><g id="d"><polygon class="z" points="109.16 313.58 76.88 257.67 44.6 313.58 109.16 313.58"/><polygon class="aa" points="76.88 257.67 109.16 201.76 173.73 313.58 109.16 313.58 76.88 257.67"/><polygon class="v" points="109.16 201.76 141.45 145.84 238.3 313.58 173.74 313.58 109.16 201.76"/><polygon class="n" points="173.71 90.02 206 34.11 367.43 313.58 302.87 313.58 173.71 90.02"/><polygon class="x" points="141.45 145.85 173.73 89.94 302.87 313.58 238.3 313.58 141.45 145.85"/></g><g id="e"><g class="bd"><polygon class="s" points="238.27 90 173.69 90 205.98 34.11 238.27 90"/></g><g class="be"><polygon class="s" points="173.69 90 141.4 145.89 270.56 145.89 238.27 90 173.69 90"/></g><g class="ad"><polygon class="s" points="141.4 145.89 109.11 201.78 302.85 201.79 270.56 145.9 141.4 145.89"/></g><g class="bg"><polygon class="s" points="76.89 257.62 44.6 313.51 367.43 313.58 335.14 257.69 76.89 257.62"/></g><g class="ae"><polygon class="s" points="109.12 201.78 76.83 257.67 335.14 257.68 302.85 201.79 109.12 201.78"/></g></g><g id="f"><polygon class="y" points="302.87 313.58 335.15 257.67 367.43 313.58 302.87 313.58"/><polygon class="ab" points="335.15 257.67 302.87 201.76 238.3 313.58 302.87 313.58 335.15 257.67"/><polygon class="u" points="302.87 201.76 270.59 145.84 173.73 313.58 238.3 313.58 302.87 201.76"/><polygon class="m" points="238.32 90.02 206.04 34.11 44.6 313.58 109.16 313.58 238.32 90.02"/><polygon class="w" points="270.59 145.85 238.3 89.94 109.17 313.58 173.73 313.58 270.59 145.85"/></g></g></g><g id="g"><line class="an" x1="100.95" y1="287.07" x2="103.58" y2="289.69"/><line class="ar" x1="103.58" y1="289.69" x2="96.65" y2="286.92"/><line class="as" x1="96.65" y1="286.92" x2="96.58" y2="284.94"/><line class="at" x1="96.58" y1="284.94" x2="96.22" y2="285.73"/><line class="ak" x1="96.22" y1="285.73" x2="93.69" y2="282.51"/><line class="ap" x1="93.69" y1="282.51" x2="95.39" y2="285.58"/><line class="ai" x1="95.39" y1="285.58" x2="98.23" y2="284.66"/><line class="am" x1="98.23" y1="284.66" x2="101.57" y2="286.21"/><line class="ao" x1="101.57" y1="286.21" x2="101.83" y2="286.48"/><line class="aj" x1="101.83" y1="286.48" x2="105.11" y2="284.96"/><line class="ay" x1="105.11" y1="284.96" x2="98.94" y2="284.52"/><line class="al" x1="98.94" y1="284.52" x2="109.19" y2="285.77"/><line class="au" x1="109.19" y1="285.77" x2="115.22" y2="287.72"/><line class="ah" x1="115.22" y1="287.72" x2="108.39" y2="295.97"/><line class="az" x1="108.39" y1="295.97" x2="108.82" y2="291.84"/><line class="bb" x1="108.82" y1="291.84" x2="118.12" y2="285.34"/><line class="ba" x1="118.12" y1="285.34" x2="117.27" y2="280.87"/><line class="aw" x1="117.27" y1="280.87" x2="122.11" y2="289.67"/><line class="ax" x1="122.11" y1="289.67" x2="124.47" y2="287.15"/><line class="av" x1="124.47" y1="287.15" x2="136.05" y2="288.06"/><line class="aq" x1="136.05" y1="288.06" x2="130.64" y2="288.87"/></g><g id="h"><g class="bg"><g class="ac"><g class="ac"><path class="q" d="m34.85,327.94v1.1c0,1.18-.22,2-.63,2.47-.41.47-.96.7-1.66.7-.69,0-1.24-.24-1.65-.71-.41-.47-.62-1.29-.61-2.47v-1.1c0-1.18.22-1.99.63-2.44.41-.45.97-.68,1.65-.67.7,0,1.25.23,1.66.69.41.46.61,1.27.61,2.45Zm-.93,1.24v-1.4c0-.81-.1-1.38-.33-1.72-.23-.34-.57-.51-1.01-.51-.44,0-.77.17-1,.5-.23.33-.35.91-.35,1.72v1.4c0,.8.11,1.39.34,1.74.23.36.57.54,1,.54.45,0,.79-.17,1.01-.53.23-.35.34-.94.35-1.74Z"/><path class="q" d="m38.46,326.69v-.38c0-.41.14-.76.4-1.05.26-.29.62-.43,1.08-.43.46,0,.82.15,1.08.44.26.29.39.64.39,1.05v.38c0,.4-.13.75-.4,1.04s-.62.43-1.08.43c-.46,0-.82-.15-1.08-.44-.26-.29-.4-.64-.39-1.04Zm.69-.38v.38c0,.23.06.43.19.61.13.18.33.27.6.27.26,0,.46-.09.59-.27s.19-.38.19-.61v-.38c0-.23-.06-.44-.19-.62-.13-.18-.33-.28-.59-.28-.26,0-.46.09-.59.27-.13.18-.2.39-.2.62Zm4.52-.34l-3.54,5.62-.51-.33,3.54-5.61.51.33Zm-1.72,4.79v-.39c0-.41.14-.75.4-1.04.26-.29.62-.44,1.08-.43.46,0,.82.15,1.08.44.26.29.39.64.39,1.05v.39c0,.41-.13.75-.4,1.04-.26.29-.62.43-1.08.43-.46,0-.82-.15-1.09-.44-.26-.29-.39-.64-.39-1.05Zm.69-.38v.39c0,.23.06.44.19.62.13.18.33.27.6.27.27,0,.46-.09.59-.27.13-.18.19-.39.2-.62v-.39c0-.23-.06-.44-.19-.62-.13-.18-.33-.27-.6-.27-.26,0-.46.09-.59.27-.13.18-.2.39-.2.62Z"/></g></g></g><g class="ac"><g class="ac"><path class="p" d="m149.66,73.55l-.45.77-4.83-2.81.39-.67,3.98-1.28c.73-.24,1.26-.45,1.58-.65.32-.19.57-.44.73-.72.21-.36.28-.74.2-1.12-.08-.39-.32-.7-.73-.94-.49-.29-.94-.36-1.35-.22-.41.14-.74.43-.99.87l-.94-.54c.36-.62.88-1.04,1.54-1.24.67-.21,1.4-.08,2.18.38.7.4,1.13.9,1.32,1.49.18.59.1,1.18-.24,1.77-.25.44-.65.79-1.17,1.08-.53.29-1.1.52-1.72.71l-3.22.99,3.7,2.15Z"/><path class="p" d="m157.33,73.32l-.65,1.12c-.7,1.21-1.4,1.93-2.1,2.17-.7.24-1.4.15-2.12-.27-.71-.41-1.13-.98-1.28-1.71-.15-.73.13-1.69.84-2.9l.65-1.12c.7-1.21,1.4-1.92,2.09-2.14.69-.22,1.39-.12,2.1.29.72.42,1.15.98,1.3,1.69.15.71-.13,1.67-.83,2.87Zm-1.69.73l.83-1.43c.48-.83.71-1.49.67-1.97-.04-.48-.28-.86-.74-1.12-.45-.26-.89-.29-1.33-.08-.44.21-.9.72-1.38,1.55l-.83,1.43c-.48.82-.71,1.49-.68,1.99.03.5.27.89.71,1.15.46.27.91.29,1.35.06.44-.23.91-.76,1.38-1.58Z"/><path class="p" d="m167.54,76.53l-6.96,3.67-.33-.64,6.96-3.67.33.64Zm-5.77-2.35l.23-.39c.24-.42.59-.7,1.03-.84s.9-.08,1.36.19c.47.28.76.64.85,1.1s.02.89-.22,1.31l-.23.39c-.24.41-.58.69-1.02.83-.44.14-.9.08-1.36-.2-.47-.27-.75-.64-.85-1.09-.1-.46-.03-.89.21-1.3Zm.93.02l-.23.39c-.14.23-.19.48-.17.75.03.26.18.48.45.64.27.16.52.18.76.08.24-.11.43-.28.56-.52l.23-.39c.14-.24.19-.49.17-.75-.02-.26-.17-.48-.45-.64-.27-.16-.53-.18-.77-.07-.24.11-.43.28-.57.52Zm.24,6.22l.23-.39c.24-.42.58-.69,1.03-.83.44-.14.9-.08,1.37.19.47.28.76.64.85,1.1s.02.89-.22,1.31l-.23.39c-.24.42-.58.69-1.02.84-.44.14-.9.08-1.36-.2-.47-.28-.76-.64-.85-1.1-.1-.46-.02-.89.22-1.31Zm.93.01l-.23.39c-.14.24-.19.49-.17.75.02.26.18.48.45.64.27.16.53.19.77.08.24-.11.43-.28.57-.52l.23-.39c.14-.24.2-.49.17-.75-.03-.26-.18-.47-.45-.63-.27-.16-.53-.18-.77-.08-.24.11-.43.28-.57.52Z"/></g></g><g class="ac"><g class="ac"><path class="p" d="m113.3,124.94l6.28-3.19,1,.58-2.85,4.89,1.03.6-.45.77-1.03-.6-1,1.71-.94-.55,1-1.71-3.36-1.96.32-.55Zm1.19.4l2.3,1.34,2.11-3.62-.24.14-4.17,2.14Z"/><path class="p" d="m125.27,129.22l-.65,1.12c-.7,1.21-1.4,1.93-2.1,2.17-.7.24-1.4.15-2.12-.27-.71-.41-1.13-.98-1.28-1.71-.15-.73.13-1.69.84-2.9l.65-1.12c.7-1.21,1.4-1.92,2.09-2.14.69-.22,1.39-.12,2.1.29.72.42,1.15.98,1.3,1.69.15.71-.13,1.67-.83,2.87Zm-1.69.73l.83-1.43c.48-.83.71-1.49.67-1.97-.04-.48-.28-.86-.74-1.12-.45-.26-.89-.29-1.33-.08-.44.21-.9.72-1.38,1.55l-.83,1.43c-.48.82-.71,1.49-.68,1.99.03.5.27.89.71,1.15.46.27.91.29,1.35.06.44-.23.91-.76,1.38-1.58Z"/><path class="p" d="m135.48,132.43l-6.96,3.67-.33-.64,6.96-3.67.33.64Zm-5.77-2.35l.23-.39c.24-.42.59-.7,1.03-.84s.9-.08,1.36.19c.47.28.76.64.85,1.1s.02.89-.22,1.31l-.23.39c-.24.41-.58.69-1.02.83-.44.14-.9.08-1.36-.2-.47-.27-.75-.64-.85-1.09-.1-.46-.03-.89.21-1.3Zm.93.02l-.23.39c-.14.23-.19.48-.17.75.03.26.18.48.45.64.27.16.52.18.76.08.24-.11.43-.28.56-.52l.23-.39c.14-.24.19-.49.17-.75-.02-.26-.17-.48-.45-.64-.27-.16-.53-.18-.77-.07-.24.11-.43.28-.57.52Zm.24,6.22l.23-.39c.24-.42.58-.69,1.03-.83.44-.14.9-.08,1.37.19.47.28.76.64.85,1.1s.02.89-.22,1.31l-.23.39c-.24.42-.58.69-1.02.84-.44.14-.9.08-1.36-.2-.47-.28-.76-.64-.85-1.1-.1-.46-.02-.89.22-1.31Zm.93.01l-.23.39c-.14.24-.19.49-.17.75.02.26.18.48.45.64.27.16.53.19.77.08.24-.11.43-.28.57-.52l.23-.39c.14-.24.2-.49.17-.75-.03-.26-.18-.47-.45-.63-.27-.16-.53-.18-.77-.08-.24.11-.43.28-.57.52Z"/></g></g><g class="ac"><g class="ac"><path class="p" d="m86.82,183.66c-.41.7-.95,1.18-1.62,1.44-.67.26-1.38.17-2.13-.26-.53-.31-.89-.71-1.08-1.19s-.24-1-.16-1.53c.08-.54.25-1.03.52-1.49l.26-.44c.4-.69.89-1.3,1.46-1.83.57-.53,1.23-.86,1.98-.97.75-.12,1.6.1,2.55.65l.08.05-.46.79-.08-.05c-.6-.35-1.15-.51-1.64-.5-.5.02-.94.16-1.33.42-.39.26-.73.59-1.01.99.34-.11.67-.14,1-.09s.66.17.97.35c.49.29.82.64,1,1.05.17.42.23.86.16,1.32s-.22.89-.45,1.29Zm-3.55-2.46c-.38.65-.53,1.24-.44,1.76.09.52.32.88.69,1.1.43.25.86.29,1.28.11.42-.18.78-.51,1.06-1.01.26-.44.38-.9.36-1.37-.02-.48-.25-.85-.71-1.11-.33-.19-.68-.27-1.06-.22-.38.04-.7.17-.97.39l-.21.36Z"/><path class="p" d="m93.65,185.13l-.65,1.12c-.7,1.21-1.4,1.93-2.1,2.17-.7.24-1.4.15-2.12-.27-.71-.41-1.13-.98-1.28-1.71-.15-.73.13-1.69.84-2.9l.65-1.12c.7-1.21,1.4-1.92,2.09-2.14.69-.22,1.39-.12,2.1.29.72.42,1.15.98,1.3,1.69.15.71-.13,1.67-.83,2.87Zm-1.69.73l.83-1.43c.48-.83.71-1.49.67-1.97-.04-.48-.28-.86-.74-1.12-.45-.26-.89-.29-1.33-.08-.44.21-.9.72-1.38,1.55l-.83,1.43c-.48.82-.71,1.49-.68,1.99.03.5.27.89.71,1.15.46.27.91.29,1.35.06.44-.23.91-.76,1.38-1.58Z"/><path class="p" d="m103.86,188.34l-6.96,3.67-.33-.64,6.96-3.67.33.64Zm-5.77-2.35l.23-.39c.24-.42.59-.7,1.03-.84s.9-.08,1.36.19c.47.28.76.64.85,1.1s.02.89-.22,1.31l-.23.39c-.24.41-.58.69-1.02.83-.44.14-.9.08-1.36-.2-.47-.27-.75-.64-.85-1.09-.1-.46-.03-.89.21-1.3Zm.93.02l-.23.39c-.14.23-.19.48-.17.75.03.26.18.48.45.64.27.16.52.18.76.08.24-.11.43-.28.56-.52l.23-.39c.14-.24.19-.49.17-.75-.02-.26-.17-.48-.45-.64-.27-.16-.53-.18-.77-.07-.24.11-.43.28-.57.52Zm.24,6.22l.23-.39c.24-.42.58-.69,1.03-.83.44-.14.9-.08,1.37.19.47.28.76.64.85,1.1s.02.89-.22,1.31l-.23.39c-.24.42-.58.69-1.02.84-.44.14-.9.08-1.36-.2-.47-.28-.76-.64-.85-1.1-.1-.46-.02-.89.22-1.31Zm.93.01l-.23.39c-.14.24-.19.49-.17.75.02.26.18.48.45.64.27.16.53.19.77.08.24-.11.43-.28.57-.52l.23-.39c.14-.24.2-.49.17-.75-.03-.26-.18-.47-.45-.63-.27-.16-.53-.18-.77-.08-.24.11-.43.28-.57.52Z"/></g></g><g class="ac"><g class="ac"><path class="p" d="m53.07,239.95c-.39.68-.92,1.06-1.58,1.16s-1.32-.04-1.98-.43c-.66-.39-1.11-.89-1.35-1.51-.24-.62-.16-1.27.23-1.95.24-.41.56-.71.97-.9.4-.19.84-.25,1.32-.19-.24-.35-.36-.72-.39-1.13-.02-.4.07-.78.28-1.14.38-.64.87-1.02,1.48-1.14.61-.11,1.24.01,1.86.38.63.37,1.05.85,1.26,1.44.21.59.12,1.21-.25,1.85-.21.36-.5.63-.86.81-.36.17-.76.25-1.18.21.29.38.45.8.49,1.25.04.45-.06.88-.29,1.29Zm-.93-.57c.24-.41.3-.82.19-1.24-.11-.41-.37-.74-.79-.98-.43-.25-.84-.32-1.25-.21s-.72.38-.96.79c-.25.42-.31.83-.2,1.21s.39.7.82.96c.44.25.85.33,1.23.24.39-.09.7-.35.95-.77Zm1.83-3.52c.21-.37.28-.74.19-1.11-.09-.37-.32-.66-.69-.88-.37-.21-.73-.27-1.09-.18-.36.1-.65.34-.88.73-.22.38-.29.75-.19,1.11.09.36.32.65.7.87.37.21.73.27,1.09.18.36-.1.65-.34.88-.72Z"/><path class="p" d="m60.21,241.05l-.65,1.12c-.7,1.21-1.4,1.93-2.1,2.17-.7.24-1.4.15-2.12-.27-.71-.41-1.13-.98-1.28-1.71-.15-.73.13-1.69.84-2.9l.65-1.12c.7-1.21,1.4-1.92,2.09-2.14.69-.22,1.39-.12,2.1.29.72.42,1.15.98,1.3,1.69.15.71-.13,1.67-.83,2.87Zm-1.69.73l.83-1.43c.48-.83.71-1.49.67-1.97-.04-.48-.28-.86-.74-1.12-.45-.26-.89-.29-1.33-.08-.44.21-.9.72-1.38,1.55l-.83,1.43c-.48.82-.71,1.49-.68,1.99.03.5.27.89.71,1.15.46.27.91.29,1.35.06.44-.23.91-.76,1.38-1.58Z"/><path class="p" d="m70.42,244.26l-6.96,3.67-.33-.64,6.96-3.67.33.64Zm-5.77-2.35l.23-.39c.24-.42.59-.7,1.03-.84s.9-.08,1.36.19c.47.28.76.64.85,1.1s.02.89-.22,1.31l-.23.39c-.24.41-.58.69-1.02.83-.44.14-.9.08-1.36-.2-.47-.27-.75-.64-.85-1.09-.1-.46-.03-.89.21-1.3Zm.93.02l-.23.39c-.14.23-.19.48-.17.75.03.26.18.48.45.64.27.16.52.18.76.08.24-.11.43-.28.56-.52l.23-.39c.14-.24.19-.49.17-.75-.02-.26-.17-.48-.45-.64-.27-.16-.53-.18-.77-.07-.24.11-.43.28-.57.52Zm.24,6.22l.23-.39c.24-.42.58-.69,1.03-.83.44-.14.9-.08,1.37.19.47.28.76.64.85,1.1s.02.89-.22,1.31l-.23.39c-.24.42-.58.69-1.02.84-.44.14-.9.08-1.36-.2-.47-.28-.76-.64-.85-1.1-.1-.46-.02-.89.22-1.31Zm.93.01l-.23.39c-.14.24-.19.49-.17.75.02.26.18.48.45.64.27.16.53.19.77.08.24-.11.43-.28.57-.52l.23-.39c.14-.24.2-.49.17-.75-.03-.26-.18-.47-.45-.63-.27-.16-.53-.18-.77-.08-.24.11-.43.28-.57.52Z"/></g></g><g class="ac"><g class="ac"><path class="p" d="m5.91,303.22v9.25h-1.83v-7.08l-2.18.68v-1.49l3.82-1.37h.2Z"/><path class="p" d="m15.14,307.04v1.61c0,1.39-.29,2.4-.86,3.02-.57.62-1.32.93-2.25.93s-1.69-.31-2.26-.93c-.58-.62-.87-1.63-.87-3.02v-1.61c0-1.39.29-2.39.86-3.01.57-.62,1.33-.93,2.26-.93s1.68.31,2.26.93.86,1.62.86,3.01Zm-1.83,1.85v-2.11c0-.82-.11-1.39-.34-1.72-.22-.32-.54-.49-.95-.49s-.72.16-.95.49c-.22.32-.34.9-.34,1.72v2.11c0,.83.11,1.4.34,1.73.23.33.54.5.96.5s.72-.17.94-.5c.22-.33.33-.91.33-1.73Z"/><path class="p" d="m22.6,307.04v1.61c0,1.39-.29,2.4-.86,3.02-.57.62-1.32.93-2.25.93s-1.69-.31-2.26-.93c-.58-.62-.87-1.63-.87-3.02v-1.61c0-1.39.29-2.39.86-3.01.57-.62,1.33-.93,2.26-.93s1.68.31,2.26.93.86,1.62.86,3.01Zm-1.83,1.85v-2.11c0-.82-.11-1.39-.34-1.72-.22-.32-.54-.49-.95-.49s-.72.16-.95.49c-.22.32-.34.9-.34,1.72v2.11c0,.83.11,1.4.34,1.73.23.33.54.5.96.5s.72-.17.94-.5c.22-.33.33-.91.33-1.73Z"/><path class="p" d="m27.05,305.49v-.49c0-.52.17-.97.51-1.35.34-.38.84-.56,1.49-.56s1.16.19,1.5.56c.34.37.5.82.5,1.35v.49c0,.52-.17.96-.5,1.34-.34.37-.83.56-1.49.56s-1.16-.19-1.5-.56c-.34-.38-.52-.82-.52-1.34Zm1.23-.49v.49c0,.22.06.42.19.58.13.17.33.25.6.25s.46-.08.58-.25c.13-.17.19-.36.19-.58v-.49c0-.22-.06-.42-.19-.59-.13-.17-.33-.26-.59-.26s-.46.09-.59.26c-.13.17-.19.37-.19.59Zm5.67-.45l-4.51,7.22-.9-.48,4.51-7.22.9.48Zm-2.48,6.14v-.49c0-.52.17-.97.52-1.34.35-.38.84-.56,1.5-.56s1.16.19,1.5.56c.34.37.51.82.51,1.34v.49c0,.52-.17.97-.51,1.34-.34.37-.83.56-1.49.56s-1.16-.19-1.5-.56c-.35-.38-.52-.82-.52-1.34Zm1.23-.49v.49c0,.22.07.42.22.59.14.17.34.26.58.26.3,0,.5-.08.61-.26.11-.17.16-.37.16-.59v-.49c0-.22-.07-.42-.2-.59s-.33-.25-.59-.25-.46.08-.59.25c-.13.17-.19.37-.19.59Z"/></g><g class="ac"><path class="p" d="m7.64,318.84h1.84v7.25c0,.77-.2,1.37-.61,1.78-.41.41-.98.62-1.72.62-.32,0-.63-.04-.92-.11v-1.45c.19.04.39.06.58.06.55,0,.83-.3.83-.89v-7.25Zm-.14-1.78c0-.28.09-.5.28-.68.18-.18.43-.27.75-.27s.56.09.75.27.28.41.28.68-.09.5-.28.68-.44.27-.75.27-.56-.09-.75-.27c-.18-.18-.28-.41-.28-.68Z"/><path class="p" d="m14.9,325.71c-.08-.16-.14-.37-.18-.62-.18.2-.41.38-.69.52-.28.15-.63.22-1.04.22-.66,0-1.21-.19-1.66-.58-.45-.39-.67-.88-.67-1.48,0-.72.27-1.28.8-1.67s1.32-.59,2.37-.59h.82v-.4c0-.32-.08-.57-.24-.76-.16-.19-.42-.28-.77-.28-.66,0-.98.28-.98.83h-1.83c0-.6.26-1.11.79-1.54s1.24-.64,2.13-.64c.79,0,1.45.2,1.97.6.52.4.78,1.01.78,1.81v2.91c0,.39.02.71.07.95.05.24.11.45.2.62v.11h-1.85Zm-1.52-1.28c.31,0,.57-.07.79-.21.22-.14.37-.29.47-.45v-1.19h-.75c-.49,0-.84.1-1.07.31s-.34.46-.34.76c0,.23.08.42.24.56.16.15.38.22.66.22Zm-.55-6.51l1.24-1.96h2l-1.76,1.96h-1.49Z"/><path class="p" d="m22.13,325.71l-.09-.73c-.21.27-.46.48-.75.63-.29.15-.63.23-1.01.23-.85,0-1.51-.33-1.98-.99s-.7-1.49-.7-2.49v-.13c0-1.05.23-1.89.7-2.54.47-.65,1.13-.97,1.99-.97.67,0,1.22.25,1.65.74v-3.5h1.84v9.75h-1.66Zm-2.69-3.35c0,.55.1,1.02.29,1.41.19.39.53.58,1.02.58.56,0,.96-.24,1.2-.71v-2.72c-.23-.47-.63-.71-1.19-.71-.48,0-.82.2-1.02.59-.2.39-.3.87-.3,1.44v.13Z"/></g><g class="ac"><path class="p" d="m28.41,320.5c-.69,0-1.14.23-1.36.71v4.5h-1.84v-6.87h1.73l.06.82c.36-.63.87-.95,1.53-.95.23,0,.42.03.56.08l-.02,1.76c-.09,0-.2-.02-.33-.03-.12-.01-.24-.02-.34-.02Z"/></g><g class="ac"><path class="p" d="m33.75,325.71c-.08-.16-.14-.37-.18-.62-.18.2-.41.38-.69.52-.28.15-.63.22-1.04.22-.66,0-1.21-.19-1.66-.58-.45-.39-.67-.88-.67-1.48,0-.72.27-1.28.8-1.67s1.32-.59,2.37-.59h.82v-.4c0-.32-.08-.57-.24-.76-.16-.19-.42-.28-.77-.28-.66,0-.98.28-.98.83h-1.83c0-.6.26-1.11.79-1.54s1.24-.64,2.13-.64c.79,0,1.45.2,1.97.6.52.4.78,1.01.78,1.81v2.91c0,.39.02.71.07.95.05.24.11.45.2.62v.11h-1.85Zm-1.52-1.28c.31,0,.57-.07.79-.21.22-.14.37-.29.47-.45v-1.19h-.75c-.49,0-.84.1-1.07.31s-.34.46-.34.76c0,.23.08.42.24.56.16.15.38.22.66.22Z"/></g></g><g class="ac"><g class="ac"><path class="r" d="m357.7,261.57v.89s-5.59-.02-5.59-.02v-.78s2.81-3.1,2.81-3.1c.52-.57.87-1.02,1.05-1.35.18-.33.27-.66.27-.99,0-.42-.13-.78-.39-1.07-.26-.3-.62-.45-1.1-.45-.57,0-1,.16-1.28.48-.28.32-.42.74-.43,1.25h-1.08c0-.72.24-1.34.72-1.85.47-.52,1.17-.77,2.08-.77.8,0,1.43.21,1.89.63s.68.97.68,1.66c0,.5-.16,1.01-.48,1.52-.32.51-.7,1-1.13,1.47l-2.29,2.47,4.28.02Z"/><path class="r" d="m364.23,257.54v1.3c-.01,1.4-.25,2.38-.74,2.93-.48.55-1.14.83-1.97.82-.82,0-1.47-.28-1.96-.84s-.73-1.53-.73-2.93v-1.3c0-1.39.26-2.36.75-2.89s1.14-.8,1.96-.8c.83,0,1.48.27,1.97.81.48.54.72,1.51.72,2.9Zm-1.1,1.47v-1.66c.01-.96-.12-1.64-.4-2.04-.27-.4-.67-.6-1.2-.6-.52,0-.91.2-1.19.59-.28.4-.42,1.08-.42,2.04v1.66c0,.95.13,1.64.4,2.06.28.42.67.63,1.19.64.53,0,.93-.21,1.2-.63.27-.42.41-1.11.41-2.06Z"/><path class="r" d="m368.5,256.07v-.45c0-.48.16-.9.48-1.24.31-.34.74-.52,1.28-.51.55,0,.97.18,1.28.52.31.35.46.76.46,1.25v.45c0,.48-.16.89-.47,1.23-.31.34-.74.52-1.28.51s-.97-.18-1.28-.52-.47-.76-.47-1.23Zm.82-.45v.45c0,.27.07.51.23.73.15.21.39.32.71.32.31,0,.55-.1.7-.32.15-.21.23-.46.23-.73v-.45c0-.27-.07-.52-.23-.74-.15-.22-.39-.33-.71-.33-.31,0-.55.11-.7.32-.15.22-.23.46-.23.73Zm5.36-.41l-4.19,6.65-.61-.39,4.19-6.65.61.39Zm-2.04,5.68v-.46c0-.48.16-.89.47-1.24.31-.34.74-.52,1.28-.51.55,0,.98.18,1.29.52.31.35.46.76.46,1.24v.46c0,.48-.16.89-.47,1.24-.31.35-.74.52-1.28.51-.55,0-.98-.18-1.29-.52-.31-.35-.47-.76-.46-1.24Zm.82-.46v.46c0,.27.07.52.23.73s.39.32.71.32c.32,0,.55-.1.7-.32s.23-.46.23-.73v-.46c0-.28-.07-.52-.23-.74-.15-.21-.39-.32-.71-.32-.31,0-.55.11-.7.32-.16.21-.23.46-.23.73Z"/></g></g><g class="ac"><g class="ac"><path class="r" d="m319.71,203.91l3.84-5.9h1.15s-.02,5.66-.02,5.66h1.19s0,.9,0,.9h-1.19s0,1.98,0,1.98h-1.08s0-1.98,0-1.98h-3.89s0-.65,0-.65Zm1.23-.25h2.66s.02-4.18.02-4.18l-.14.24-2.54,3.94Z"/><path class="r" d="m332.22,201.63v1.3c-.01,1.4-.26,2.37-.74,2.93s-1.14.83-1.97.82c-.82,0-1.47-.28-1.96-.84s-.73-1.53-.73-2.93v-1.3c.01-1.39.26-2.36.75-2.89s1.14-.8,1.96-.8c.83,0,1.48.27,1.97.81s.72,1.51.72,2.9Zm-1.1,1.47v-1.66c0-.96-.12-1.64-.4-2.04-.27-.4-.67-.6-1.2-.6-.52,0-.91.2-1.19.59-.28.4-.42,1.08-.42,2.04v1.66c0,.95.13,1.64.41,2.06.28.42.67.63,1.19.64.53,0,.93-.21,1.2-.63.27-.42.41-1.11.41-2.06Z"/><path class="r" d="m336.49,200.16v-.45c0-.48.16-.9.48-1.24.31-.34.74-.52,1.28-.51.55,0,.97.18,1.28.52.31.35.46.76.46,1.25v.45c0,.48-.16.89-.47,1.23-.31.34-.74.52-1.28.51-.54,0-.97-.18-1.28-.52-.31-.35-.47-.76-.47-1.24Zm.82-.45v.45c0,.27.07.51.23.73.15.21.39.32.71.33.31,0,.55-.1.7-.32.15-.21.23-.46.23-.73v-.45c0-.27-.07-.52-.23-.74-.15-.22-.39-.33-.71-.33-.31,0-.55.11-.7.32-.16.22-.23.46-.23.73Zm5.36-.41l-4.19,6.65-.61-.39,4.19-6.65.61.39Zm-2.04,5.68v-.46c0-.48.16-.89.47-1.24.31-.34.74-.52,1.28-.51.55,0,.98.18,1.28.52.31.35.46.76.46,1.24v.46c0,.48-.16.89-.47,1.24-.31.34-.74.52-1.28.51-.55,0-.98-.18-1.29-.52-.31-.35-.47-.76-.46-1.24Zm.82-.45v.46c0,.27.07.52.23.73.15.22.39.32.71.33.32,0,.55-.1.71-.32.15-.21.23-.46.23-.73v-.46c0-.28-.07-.52-.23-.74-.15-.21-.39-.32-.71-.32-.31,0-.55.1-.7.32-.16.21-.23.46-.23.73Z"/></g></g><g class="ac"><g class="ac"><path class="r" d="m292.11,147.86c0,.81-.23,1.49-.68,2.05s-1.11.84-1.97.84c-.61,0-1.12-.17-1.53-.5-.41-.33-.71-.74-.91-1.25s-.3-1.02-.29-1.54v-.51c0-.8.12-1.57.35-2.32s.64-1.36,1.23-1.83c.59-.48,1.44-.71,2.53-.71h.09v.92h-.1c-.69,0-1.25.13-1.67.39-.42.26-.74.61-.95,1.03-.21.42-.33.88-.38,1.36.24-.26.51-.46.83-.58.32-.12.65-.18,1.01-.18.57,0,1.03.14,1.39.42.36.27.62.63.79,1.06.17.43.25.88.25,1.35Zm-4.3-.36c0,.76.16,1.34.5,1.74.34.4.72.61,1.14.61.5,0,.89-.18,1.17-.54.28-.36.42-.83.42-1.4,0-.51-.12-.96-.38-1.37-.25-.4-.64-.61-1.17-.61-.38,0-.72.11-1.03.34-.31.23-.53.5-.65.82v.41Z"/><path class="r" d="m298.76,145.72v1.3c-.01,1.4-.26,2.37-.74,2.93s-1.14.83-1.97.82c-.82,0-1.47-.28-1.96-.84s-.73-1.53-.73-2.93v-1.3c.01-1.39.26-2.36.75-2.89s1.14-.8,1.96-.8c.83,0,1.48.27,1.97.81s.72,1.51.72,2.9Zm-1.1,1.47v-1.66c0-.96-.12-1.64-.4-2.04-.27-.4-.67-.6-1.2-.6-.52,0-.91.2-1.19.59-.28.4-.42,1.08-.42,2.04v1.66c0,.95.13,1.64.41,2.06.28.42.67.63,1.19.64.53,0,.93-.21,1.2-.63.27-.42.41-1.11.41-2.06Z"/><path class="r" d="m303.03,144.25v-.45c0-.48.16-.9.48-1.24.31-.34.74-.52,1.28-.51.55,0,.97.18,1.28.52.31.35.46.76.46,1.25v.45c0,.48-.16.89-.47,1.23-.31.34-.74.52-1.28.51-.54,0-.97-.18-1.28-.52-.31-.35-.47-.76-.47-1.24Zm.82-.45v.45c0,.27.07.51.23.73.15.21.39.32.71.33.31,0,.55-.1.7-.32.15-.21.23-.46.23-.73v-.45c0-.27-.07-.52-.23-.74-.15-.22-.39-.33-.71-.33-.31,0-.55.11-.7.32-.16.22-.23.46-.23.73Zm5.36-.41l-4.19,6.65-.61-.39,4.19-6.65.61.39Zm-2.04,5.68v-.46c0-.48.16-.89.47-1.24.31-.34.74-.52,1.28-.51.55,0,.98.18,1.28.52.31.35.46.76.46,1.24v.46c0,.48-.16.89-.47,1.24-.31.34-.74.52-1.28.51-.55,0-.98-.18-1.29-.52-.31-.35-.47-.76-.46-1.24Zm.82-.45v.46c0,.27.07.52.23.73.15.22.39.32.71.33.32,0,.55-.1.71-.32.15-.21.23-.46.23-.73v-.46c0-.28-.07-.52-.23-.74-.15-.21-.39-.32-.71-.32-.31,0-.55.1-.7.32-.16.21-.23.46-.23.73Z"/></g></g><g class="ac"><g class="ac"><path class="r" d="m257.94,92.42c0,.78-.27,1.38-.79,1.8s-1.17.62-1.93.62-1.41-.21-1.93-.63-.78-1.02-.78-1.8c0-.48.13-.9.39-1.26.26-.36.61-.64,1.04-.83-.38-.19-.68-.45-.9-.78-.22-.34-.33-.71-.33-1.13,0-.75.24-1.32.72-1.73.48-.4,1.08-.61,1.8-.6.73,0,1.33.21,1.81.62.47.41.71.99.71,1.73,0,.42-.12.8-.34,1.13-.23.33-.53.59-.91.77.44.19.79.47,1.05.84.26.37.39.79.39,1.26Zm-1.09-.03c0-.48-.15-.87-.45-1.17-.3-.3-.69-.45-1.18-.46-.5,0-.89.15-1.18.45s-.44.69-.44,1.16c0,.49.14.88.43,1.15s.69.41,1.19.42.9-.13,1.19-.41c.29-.27.44-.65.44-1.15Zm-.18-3.96c0-.43-.13-.78-.39-1.05s-.61-.42-1.04-.42c-.43,0-.77.13-1.03.39s-.39.62-.4,1.07c0,.44.13.8.39,1.06s.61.4,1.04.4c.43,0,.77-.13,1.04-.39s.4-.62.4-1.06Z"/><path class="r" d="m264.68,89.81v1.3c-.01,1.4-.26,2.37-.74,2.93s-1.14.83-1.97.82c-.82,0-1.47-.28-1.96-.84s-.73-1.53-.73-2.93v-1.3c.01-1.39.26-2.36.75-2.89s1.14-.8,1.96-.8c.83,0,1.48.27,1.97.81s.72,1.51.72,2.9Zm-1.1,1.47v-1.66c0-.96-.12-1.64-.4-2.04-.27-.4-.67-.6-1.2-.6-.52,0-.91.2-1.19.59-.28.4-.42,1.08-.42,2.04v1.66c0,.95.13,1.64.41,2.06.28.42.67.63,1.19.64.53,0,.93-.21,1.2-.63.27-.42.41-1.11.41-2.06Z"/><path class="r" d="m268.95,88.34v-.45c0-.48.16-.9.48-1.24.31-.34.74-.52,1.28-.51.55,0,.97.18,1.28.52.31.35.46.76.46,1.25v.45c0,.48-.16.89-.47,1.23-.31.34-.74.52-1.28.51-.54,0-.97-.18-1.28-.52-.31-.35-.47-.76-.47-1.24Zm.82-.45v.45c0,.27.07.51.23.73.15.21.39.32.71.33.31,0,.55-.1.7-.32.15-.21.23-.46.23-.73v-.45c0-.27-.07-.52-.23-.74-.15-.22-.39-.33-.71-.33-.31,0-.55.11-.7.32-.16.22-.23.46-.23.73Zm5.36-.41l-4.19,6.65-.61-.39,4.19-6.65.61.39Zm-2.04,5.68v-.46c0-.48.16-.89.47-1.24.31-.34.74-.52,1.28-.51.55,0,.98.18,1.28.52.31.35.46.76.46,1.24v.46c0,.48-.16.89-.47,1.24-.31.34-.74.52-1.28.51-.55,0-.98-.18-1.29-.52-.31-.35-.47-.76-.46-1.24Zm.82-.45v.46c0,.27.07.52.23.73.15.22.39.32.71.33.32,0,.55-.1.71-.32.15-.21.23-.46.23-.73v-.46c0-.28-.07-.52-.23-.74-.15-.21-.39-.32-.71-.32-.31,0-.55.1-.7.32-.16.21-.23.46-.23.73Z"/></g></g><g class="ac"><g class="ac"><path class="r" d="m196.13,2.6l-.04,9.25h-1.83s.03-7.09.03-7.09l-2.19.67v-1.49s3.83-1.36,3.83-1.36h.2Z"/><path class="r" d="m205.34,6.45v1.61c-.01,1.39-.3,2.4-.87,3.02-.57.62-1.33.93-2.26.93-.93,0-1.68-.32-2.26-.94-.57-.62-.86-1.63-.85-3.03v-1.61c.01-1.39.3-2.39.88-3,.58-.62,1.33-.92,2.26-.92.93,0,1.68.31,2.26.93.57.62.86,1.62.85,3.01Zm-1.84,1.85v-2.11c.01-.82-.1-1.39-.32-1.72-.22-.33-.54-.49-.95-.49-.41,0-.72.16-.95.48-.23.32-.34.89-.34,1.71v2.11c-.01.83.1,1.4.32,1.73.23.33.54.5.95.5.41,0,.72-.16.94-.49.22-.33.34-.91.34-1.73Z"/><path class="r" d="m212.8,6.48v1.61c-.01,1.39-.3,2.4-.88,3.02-.57.62-1.33.93-2.26.92-.93,0-1.68-.32-2.26-.94-.57-.62-.86-1.63-.85-3.02v-1.61c.01-1.39.3-2.39.88-3.01s1.33-.92,2.26-.92c.93,0,1.68.31,2.26.94.57.62.86,1.62.85,3.01Zm-1.84,1.85v-2.11c.01-.82-.1-1.39-.32-1.72-.22-.33-.54-.49-.95-.49-.41,0-.72.16-.95.48-.23.32-.34.89-.34,1.72v2.11c-.01.83.1,1.4.32,1.73.23.33.54.5.95.5.41,0,.72-.16.94-.49.22-.33.34-.91.34-1.73Z"/><path class="r" d="m217.25,4.95v-.49c0-.52.18-.97.52-1.35.34-.37.84-.56,1.49-.56.66,0,1.16.19,1.5.57s.5.83.5,1.35v.49c0,.52-.17.96-.51,1.33-.34.37-.83.56-1.49.56-.66,0-1.16-.19-1.5-.57-.34-.38-.51-.82-.51-1.34Zm1.23-.48v.49c0,.22.06.42.19.58.13.17.33.25.6.26.26,0,.46-.08.58-.25.13-.17.19-.36.19-.58v-.49c0-.22-.06-.42-.19-.59-.13-.17-.33-.26-.59-.26-.26,0-.46.08-.59.25-.13.17-.19.37-.2.59Zm5.67-.43l-4.54,7.21-.89-.49,4.54-7.21.89.49Zm-2.5,6.13v-.49c0-.52.18-.97.52-1.34.35-.37.85-.56,1.5-.56.66,0,1.16.19,1.5.57.34.38.5.82.5,1.34v.49c0,.52-.18.97-.52,1.34-.34.37-.83.56-1.49.56-.66,0-1.16-.19-1.5-.57-.35-.38-.52-.82-.52-1.34Zm1.23-.48v.49c0,.22.07.42.21.59s.34.26.58.26c.3,0,.51-.08.61-.25.11-.17.16-.37.17-.59v-.49c0-.22-.06-.42-.19-.59-.13-.17-.33-.25-.59-.26-.27,0-.46.08-.59.25-.13.17-.2.37-.2.59Z"/></g><g class="ac"><path class="r" d="m172.25,19.47h-1.36s-.02,5.52-.02,5.52h-1.84s.02-5.54.02-5.54h-1.02s0-1.34,0-1.34h1.02s0-.59,0-.59c0-.78.23-1.38.69-1.79.45-.41,1.07-.62,1.84-.61.3,0,.61.04.94.13l-.02,1.42c-.16-.04-.35-.06-.56-.06-.69,0-1.04.3-1.04.92v.6s1.36,0,1.36,0v1.34Z"/><path class="r" d="m172.91,21.64v-.13c0-1,.29-1.83.86-2.49.57-.67,1.37-1,2.4-.99,1.05,0,1.85.34,2.41,1.01.56.67.84,1.5.83,2.5v.13c0,1-.29,1.83-.85,2.49-.57.66-1.37.99-2.4.99-1.04,0-1.84-.34-2.41-1-.56-.67-.85-1.5-.84-2.5Zm1.84-.13v.13c0,.56.1,1.03.31,1.43.21.39.58.59,1.1.59.51,0,.88-.19,1.09-.58.21-.39.32-.87.33-1.42v-.13c0-.54-.1-1.02-.31-1.42-.21-.4-.58-.6-1.1-.6-.52,0-.88.2-1.09.6-.21.4-.32.87-.32,1.42Z"/><path class="r" d="m184.26,23.14c0-.19-.09-.36-.27-.49-.18-.13-.56-.26-1.13-.39-.7-.15-1.28-.39-1.75-.71-.46-.33-.69-.78-.69-1.38,0-.57.25-1.07.73-1.49.49-.42,1.16-.63,2.01-.63.89,0,1.59.22,2.1.64.51.42.76.95.76,1.59h-1.83c0-.27-.08-.49-.25-.66-.17-.17-.43-.26-.79-.26-.3,0-.54.07-.72.21-.17.14-.26.32-.26.53,0,.2.09.36.28.49.19.13.52.24,1,.33.74.15,1.36.38,1.85.69.49.31.73.8.73,1.48,0,.61-.26,1.11-.79,1.5-.52.4-1.23.59-2.11.59-.96,0-1.69-.25-2.2-.75-.51-.5-.76-1.02-.76-1.58h1.75c.02.37.15.62.39.78.25.16.53.24.86.24.71,0,1.07-.24,1.07-.72Z"/><path class="r" d="m187.24,16.41c0-.28.1-.5.28-.68.19-.18.44-.27.75-.27s.56.09.75.27c.19.18.28.41.28.68,0,.27-.1.5-.28.67-.19.18-.44.27-.75.27s-.56-.09-.75-.27c-.19-.18-.28-.41-.28-.68Zm1.95,1.78l-.03,6.87h-1.84s.03-6.88.03-6.88h1.84Z"/><path class="r" d="m192.65,15.33l-.04,9.75h-1.84s.04-9.76.04-9.76h1.84Z"/><path class="r" d="m197.1,19.58c-.52,0-.91.22-1.16.66l-.02,4.85h-1.83s.03-6.88.03-6.88h1.72s.06.79.06.79c.49-.61,1.15-.91,1.98-.91.65,0,1.18.2,1.57.59.4.39.59,1.07.59,2.04l-.02,4.37h-1.84s.02-4.39.02-4.39c0-.44-.09-.74-.28-.9-.19-.16-.46-.24-.81-.24Z"/><path class="r" d="m203.41,18.25l-.03,6.87h-1.84s.03-6.88.03-6.88h1.84Zm-1.79-.83l1.25-1.96h2s-1.77,1.96-1.77,1.96h-1.49Z"/><path class="r" d="m207.82,23.78c.33,0,.61-.09.83-.27.22-.18.33-.43.33-.75h1.73c-.01.73-.29,1.33-.84,1.8-.55.47-1.22.7-2.02.7-1.06,0-1.85-.34-2.38-1.01-.52-.67-.78-1.5-.78-2.47v-.18c0-.97.27-1.79.8-2.46.53-.67,1.32-1,2.38-1,.84,0,1.53.25,2.05.73.53.48.79,1.14.8,1.96h-1.73c0-.34-.1-.62-.3-.86-.2-.24-.48-.35-.86-.35-.54,0-.89.2-1.05.61-.16.41-.25.87-.25,1.38v.18c0,.53.08.99.24,1.39.16.4.51.6,1.05.6Z"/><path class="r" d="m214.72,19.65c-.53,0-.92.2-1.16.61l-.02,4.89h-1.83s.04-9.76.04-9.76h1.83s-.01,3.63-.01,3.63c.48-.58,1.09-.87,1.84-.86.68,0,1.22.21,1.64.61.42.4.62,1.09.62,2.07l-.02,4.33h-1.84s.02-4.35.02-4.35c0-.44-.09-.75-.28-.92-.19-.17-.46-.25-.81-.25Z"/><path class="r" d="m225.79,25.33c-.69,0-1.25-.25-1.68-.74v3.24s-1.85,0-1.85,0l.04-9.51h1.71s.07.67.07.67c.44-.53,1.01-.79,1.73-.79.87,0,1.54.33,1.99.97.46.64.68,1.48.68,2.53v.13c0,1-.24,1.83-.7,2.5-.46.67-1.12,1-1.98,1Zm-.47-5.64c-.57,0-.97.22-1.19.66v2.81c.22.45.62.68,1.19.68.48,0,.82-.2,1.02-.59s.3-.87.3-1.43v-.13c0-.57-.1-1.04-.3-1.43-.2-.38-.54-.58-1.02-.58Z"/><path class="r" d="m233.56,25.23c-.08-.16-.14-.37-.18-.62-.18.2-.42.38-.7.52-.28.14-.63.22-1.04.21-.66,0-1.21-.2-1.65-.59-.45-.39-.67-.88-.67-1.48,0-.72.27-1.28.81-1.67.54-.39,1.33-.59,2.37-.58h.82s0-.4,0-.4c0-.32-.08-.57-.24-.76s-.42-.28-.77-.29c-.66,0-.98.27-.99.82h-1.83c0-.6.27-1.12.8-1.54.53-.43,1.24-.64,2.13-.64.79,0,1.45.21,1.97.61.52.4.78,1.01.78,1.81v2.91c-.01.39,0,.71.05.95.05.24.11.45.2.62v.11h-1.85Zm-1.51-1.28c.31,0,.57-.07.79-.2s.38-.29.47-.45v-1.19s-.75,0-.75,0c-.49,0-.84.1-1.07.3-.22.2-.34.46-.34.76,0,.23.08.42.24.56.16.15.38.22.66.23Z"/><path class="r" d="m238.53,15.5l-.04,9.75h-1.84s.04-9.76.04-9.76h1.84Z"/><path class="r" d="m240.02,16.61c0-.28.09-.5.28-.68.19-.18.44-.27.75-.27.31,0,.56.09.75.27.19.18.28.41.28.68,0,.27-.1.5-.28.67-.19.18-.44.27-.75.27-.31,0-.56-.09-.75-.27-.19-.18-.28-.41-.28-.68Zm1.95,1.79l-.03,6.87h-1.84s.03-6.88.03-6.88h1.84Z"/><path class="r" d="m249.23,18.43l-2.34,6.86h-1.75s-2.3-6.88-2.3-6.88h1.92s1.26,4.63,1.26,4.63l1.29-4.61h1.92Z"/></g></g><g class="ac"><g class="ac"><path class="o" d="m97.61,342.04l.77.45-2.81,4.83-.67-.39-1.28-3.98c-.24-.73-.45-1.26-.65-1.58-.2-.32-.44-.57-.72-.73-.36-.21-.74-.28-1.12-.2-.39.08-.7.32-.94.73-.29.49-.36.94-.22,1.35s.43.74.87.99l-.54.94c-.62-.36-1.04-.88-1.24-1.54s-.08-1.39.38-2.18c.4-.7.9-1.13,1.49-1.32.59-.18,1.18-.1,1.77.24.44.25.79.65,1.08,1.17s.52,1.1.71,1.72l.99,3.22,2.15-3.7Z"/><path class="o" d="m97.38,334.37l1.12.65c1.21.7,1.93,1.4,2.17,2.1s.15,1.4-.27,2.12c-.41.71-.98,1.13-1.71,1.28s-1.69-.13-2.9-.84l-1.12-.65c-1.21-.7-1.92-1.4-2.13-2.09s-.12-1.39.29-2.1c.42-.72.98-1.15,1.69-1.3.71-.15,1.67.12,2.87.83Zm.73,1.68l-1.43-.83c-.83-.48-1.49-.71-1.97-.67-.48.04-.86.28-1.12.74-.26.45-.29.89-.08,1.33s.72.9,1.55,1.38l1.43.83c.82.48,1.49.71,1.99.68s.89-.27,1.15-.71c.27-.46.29-.91.06-1.35-.23-.44-.76-.91-1.58-1.38Z"/><path class="o" d="m98.24,329.93l-.39-.23c-.42-.24-.7-.59-.84-1.03-.14-.44-.08-.9.19-1.36.28-.47.64-.76,1.1-.85.46-.09.89-.02,1.31.22l.39.23c.41.24.69.58.83,1.02.14.44.08.9-.19,1.37-.27.47-.64.75-1.1.85-.46.1-.89.03-1.3-.21Zm.02-.93l.39.23c.23.13.48.19.74.17.26-.03.48-.18.64-.45.16-.27.18-.52.08-.76-.11-.24-.28-.43-.52-.56l-.39-.23c-.24-.14-.49-.19-.75-.17s-.48.17-.64.45c-.16.27-.18.53-.07.77.11.24.28.43.52.57Zm2.33-4.84l3.67,6.96-.64.33-3.67-6.96.64-.33Zm3.9,4.6l-.39-.23c-.42-.24-.69-.58-.83-1.03-.14-.45-.08-.9.2-1.37.28-.47.64-.76,1.1-.85.45-.09.89-.02,1.3.22l.39.23c.42.24.7.58.84,1.02.14.44.08.89-.19,1.36-.28.47-.64.76-1.1.85-.46.1-.89.02-1.31-.22Zm.02-.93l.39.23c.24.14.49.19.75.17.26-.03.48-.18.64-.45.16-.27.18-.53.08-.77-.11-.24-.28-.43-.52-.57l-.39-.23c-.24-.14-.49-.2-.75-.17-.26.03-.47.18-.63.46-.16.27-.18.53-.08.77.11.24.28.43.52.57Z"/></g></g><g class="ac"><g class="ac"><path class="o" d="m157.35,346.34l-3.19-6.28.58-1,4.89,2.85.6-1.03.77.45-.6,1.03,1.71,1-.55.94-1.71-1-1.96,3.36-.55-.32Zm.4-1.19l1.34-2.3-3.62-2.11.14.24,2.14,4.17Z"/><path class="o" d="m161.63,334.37l1.12.65c1.21.7,1.93,1.4,2.17,2.1s.15,1.4-.27,2.12c-.41.71-.98,1.13-1.71,1.28s-1.69-.13-2.9-.84l-1.12-.65c-1.21-.7-1.92-1.4-2.13-2.09s-.12-1.39.29-2.1c.42-.72.98-1.15,1.69-1.3.71-.15,1.67.12,2.87.83Zm.73,1.68l-1.43-.83c-.83-.48-1.49-.71-1.97-.67-.48.04-.86.28-1.12.74-.26.45-.29.89-.08,1.33s.72.9,1.55,1.38l1.43.83c.82.48,1.49.71,1.99.68s.89-.27,1.15-.71c.27-.46.29-.91.06-1.35-.23-.44-.76-.91-1.58-1.38Z"/><path class="o" d="m162.49,329.93l-.39-.23c-.42-.24-.7-.59-.84-1.03-.14-.44-.08-.9.19-1.36.28-.47.64-.76,1.1-.85.46-.09.89-.02,1.31.22l.39.23c.41.24.69.58.83,1.02.14.44.08.9-.19,1.37-.27.47-.64.75-1.1.85-.46.1-.89.03-1.3-.21Zm.02-.93l.39.23c.23.13.48.19.74.17.26-.03.48-.18.64-.45.16-.27.18-.52.08-.76-.11-.24-.28-.43-.52-.56l-.39-.23c-.24-.14-.49-.19-.75-.17s-.48.17-.64.45c-.16.27-.18.53-.07.77.11.24.28.43.52.57Zm2.33-4.84l3.67,6.96-.64.33-3.67-6.96.64-.33Zm3.9,4.6l-.39-.23c-.42-.24-.69-.58-.83-1.03-.14-.45-.08-.9.2-1.37.28-.47.64-.76,1.1-.85.45-.09.89-.02,1.3.22l.39.23c.42.24.7.58.84,1.02.14.44.08.89-.19,1.36-.28.47-.64.76-1.1.85-.46.1-.89.02-1.31-.22Zm.02-.93l.39.23c.24.14.49.19.75.17.26-.03.48-.18.64-.45.16-.27.18-.53.08-.77-.11-.24-.28-.43-.52-.57l-.39-.23c-.24-.14-.49-.2-.75-.17-.26.03-.47.18-.63.46-.16.27-.18.53-.08.77.11.24.28.43.52.57Z"/></g></g><g class="ac"><g class="ac"><path class="o" d="m224.99,341.2c.7.41,1.18.95,1.44,1.62.26.67.17,1.38-.26,2.13-.31.53-.71.89-1.19,1.08-.49.19-1,.24-1.53.16-.54-.08-1.03-.25-1.49-.52l-.44-.26c-.69-.4-1.3-.89-1.84-1.46-.53-.57-.86-1.23-.97-1.98-.12-.75.1-1.6.65-2.55l.05-.08.79.46-.05.08c-.35.6-.51,1.15-.5,1.64.02.5.16.94.42,1.33.26.39.59.73.99,1.01-.11-.34-.14-.67-.09-1,.05-.33.17-.66.35-.97.29-.49.64-.82,1.05-1,.42-.17.86-.23,1.32-.16.46.07.89.22,1.29.45Zm-2.46,3.54c.65.38,1.24.53,1.76.44.52-.09.88-.32,1.1-.69.25-.43.29-.86.11-1.28-.18-.42-.51-.78-1-1.06-.44-.26-.9-.38-1.37-.36-.47.02-.85.25-1.11.71-.19.33-.27.68-.22,1.06.04.38.17.7.39.97l.35.21Z"/><path class="o" d="m226.46,334.37l1.12.65c1.21.7,1.93,1.4,2.17,2.1s.15,1.4-.27,2.12c-.41.71-.98,1.13-1.71,1.28s-1.69-.13-2.9-.84l-1.12-.65c-1.21-.7-1.92-1.4-2.13-2.09s-.12-1.39.29-2.1c.42-.72.98-1.15,1.69-1.3.71-.15,1.67.12,2.87.83Zm.73,1.68l-1.43-.83c-.83-.48-1.49-.71-1.97-.67-.48.04-.86.28-1.12.74-.26.45-.29.89-.08,1.33s.72.9,1.55,1.38l1.43.83c.82.48,1.49.71,1.99.68s.89-.27,1.15-.71c.27-.46.29-.91.06-1.35-.23-.44-.76-.91-1.58-1.38Z"/><path class="o" d="m227.32,329.93l-.39-.23c-.42-.24-.7-.59-.84-1.03-.14-.44-.08-.9.19-1.36.28-.47.64-.76,1.1-.85.46-.09.89-.02,1.31.22l.39.23c.41.24.69.58.83,1.02.14.44.08.9-.19,1.37-.27.47-.64.75-1.1.85-.46.1-.89.03-1.3-.21Zm.02-.93l.39.23c.23.13.48.19.74.17.26-.03.48-.18.64-.45.16-.27.18-.52.08-.76-.11-.24-.28-.43-.52-.56l-.39-.23c-.24-.14-.49-.19-.75-.17s-.48.17-.64.45c-.16.27-.18.53-.07.77.11.24.28.43.52.57Zm2.33-4.84l3.67,6.96-.64.33-3.67-6.96.64-.33Zm3.9,4.6l-.39-.23c-.42-.24-.69-.58-.83-1.03-.14-.45-.08-.9.2-1.37.28-.47.64-.76,1.1-.85.45-.09.89-.02,1.3.22l.39.23c.42.24.7.58.84,1.02.14.44.08.89-.19,1.36-.28.47-.64.76-1.1.85-.46.1-.89.02-1.31-.22Zm.02-.93l.39.23c.24.14.49.19.75.17.26-.03.48-.18.64-.45.16-.27.18-.53.08-.77-.11-.24-.28-.43-.52-.57l-.39-.23c-.24-.14-.49-.2-.75-.17-.26.03-.47.18-.63.46-.16.27-.18.53-.08.77.11.24.28.43.52.57Z"/></g></g><g class="ac"><g class="ac"><path class="o" d="m289.47,341.51c.67.39,1.06.92,1.16,1.58.1.66-.04,1.32-.43,1.98s-.89,1.11-1.51,1.35c-.62.24-1.27.16-1.95-.23-.41-.24-.71-.56-.9-.97-.19-.41-.25-.84-.19-1.32-.35.24-.72.36-1.13.39-.4.02-.78-.07-1.14-.28-.64-.38-1.02-.87-1.14-1.49s.01-1.24.38-1.86c.37-.63.85-1.05,1.44-1.25s1.21-.12,1.85.25c.36.21.63.5.81.86.17.36.25.76.21,1.17.38-.29.8-.45,1.25-.49.45-.04.88.06,1.29.29Zm-4.09-.9c-.37-.21-.74-.28-1.11-.19-.37.09-.67.32-.88.69-.21.37-.27.73-.18,1.09.1.36.34.65.73.88.38.22.75.29,1.11.2.36-.09.65-.32.87-.7.21-.37.27-.73.18-1.09-.1-.36-.34-.65-.72-.88Zm3.52,1.83c-.41-.24-.82-.3-1.24-.19-.41.11-.74.37-.98.79-.25.43-.32.84-.21,1.25s.38.72.79.96c.42.25.83.31,1.21.2.38-.11.7-.39.96-.82s.33-.85.24-1.23c-.09-.39-.35-.71-.77-.95Z"/><path class="o" d="m290.57,334.37l1.12.65c1.21.7,1.93,1.4,2.17,2.1s.15,1.4-.27,2.12c-.41.71-.98,1.13-1.71,1.28s-1.69-.13-2.9-.84l-1.12-.65c-1.21-.7-1.92-1.4-2.13-2.09s-.12-1.39.29-2.1c.42-.72.98-1.15,1.69-1.3.71-.15,1.67.12,2.87.83Zm.73,1.68l-1.43-.83c-.83-.48-1.49-.71-1.97-.67-.48.04-.86.28-1.12.74-.26.45-.29.89-.08,1.33s.72.9,1.55,1.38l1.43.83c.82.48,1.49.71,1.99.68s.89-.27,1.15-.71c.27-.46.29-.91.06-1.35-.23-.44-.76-.91-1.58-1.38Z"/><path class="o" d="m291.43,329.93l-.39-.23c-.42-.24-.7-.59-.84-1.03-.14-.44-.08-.9.19-1.36.28-.47.64-.76,1.1-.85.46-.09.89-.02,1.31.22l.39.23c.41.24.69.58.83,1.02.14.44.08.9-.19,1.37-.27.47-.64.75-1.1.85-.46.1-.89.03-1.3-.21Zm.02-.93l.39.23c.23.13.48.19.74.17.26-.03.48-.18.64-.45.16-.27.18-.52.08-.76-.11-.24-.28-.43-.52-.56l-.39-.23c-.24-.14-.49-.19-.75-.17s-.48.17-.64.45c-.16.27-.18.53-.07.77.11.24.28.43.52.57Zm2.33-4.84l3.67,6.96-.64.33-3.67-6.96.64-.33Zm3.9,4.6l-.39-.23c-.42-.24-.69-.58-.83-1.03-.14-.45-.08-.9.2-1.37.28-.47.64-.76,1.1-.85.45-.09.89-.02,1.3.22l.39.23c.42.24.7.58.84,1.02.14.44.08.89-.19,1.36-.28.47-.64.76-1.1.85-.46.1-.89.02-1.31-.22Zm.02-.93l.39.23c.24.14.49.19.75.17.26-.03.48-.18.64-.45.16-.27.18-.53.08-.77-.11-.24-.28-.43-.52-.57l-.39-.23c-.24-.14-.49-.2-.75-.17-.26.03-.47.18-.63.46-.16.27-.18.53-.08.77.11.24.28.43.52.57Z"/></g></g><g class="ac"><g class="ac"><path class="o" d="m380.44,304.24v9.25h-1.83v-7.08l-2.18.68v-1.49l3.82-1.37h.2Z"/><path class="o" d="m389.67,308.07v1.61c0,1.39-.29,2.4-.86,3.02-.57.62-1.32.93-2.25.93s-1.69-.31-2.26-.93c-.58-.62-.87-1.63-.87-3.02v-1.61c0-1.39.29-2.39.86-3.01s1.33-.93,2.26-.93,1.68.31,2.26.93c.58.62.86,1.62.86,3.01Zm-1.83,1.85v-2.11c0-.82-.11-1.39-.34-1.72-.22-.32-.54-.49-.95-.49s-.72.16-.95.49c-.22.32-.34.9-.34,1.72v2.11c0,.83.11,1.4.34,1.73.23.33.54.5.96.5s.72-.17.94-.5c.22-.33.33-.91.33-1.73Z"/><path class="o" d="m397.13,308.07v1.61c0,1.39-.29,2.4-.86,3.02-.57.62-1.32.93-2.25.93s-1.68-.31-2.26-.93c-.58-.62-.87-1.63-.87-3.02v-1.61c0-1.39.29-2.39.86-3.01.57-.62,1.33-.93,2.26-.93s1.68.31,2.26.93c.58.62.86,1.62.86,3.01Zm-1.83,1.85v-2.11c0-.82-.11-1.39-.34-1.72-.22-.32-.54-.49-.95-.49s-.72.16-.95.49c-.22.32-.34.9-.34,1.72v2.11c0,.83.11,1.4.34,1.73s.54.5.96.5.72-.17.94-.5c.22-.33.33-.91.33-1.73Z"/><path class="o" d="m401.58,306.52v-.49c0-.52.17-.97.51-1.35.34-.38.84-.56,1.49-.56s1.16.19,1.5.56c.34.37.5.82.5,1.35v.49c0,.52-.17.96-.5,1.34-.34.37-.83.56-1.49.56s-1.16-.19-1.5-.56c-.34-.38-.52-.82-.52-1.34Zm1.22-.49v.49c0,.22.06.42.19.58.13.17.33.25.6.25s.46-.08.58-.25c.13-.17.19-.36.19-.58v-.49c0-.22-.06-.42-.19-.59-.13-.17-.33-.26-.59-.26s-.46.09-.59.26c-.13.17-.19.37-.19.59Zm5.67-.45l-4.51,7.22-.89-.48,4.51-7.22.9.48Zm-2.48,6.14v-.49c0-.52.17-.97.52-1.34.35-.38.84-.56,1.5-.56s1.16.19,1.5.56c.34.37.51.82.51,1.34v.49c0,.52-.17.97-.51,1.34-.34.37-.83.56-1.49.56s-1.16-.19-1.5-.56c-.35-.38-.52-.82-.52-1.34Zm1.22-.49v.49c0,.22.07.42.22.59.14.17.34.26.58.26.3,0,.5-.08.61-.26.11-.17.16-.37.16-.59v-.49c0-.22-.07-.42-.2-.59-.13-.17-.33-.25-.59-.25s-.46.08-.59.25c-.13.17-.19.37-.19.59Z"/></g><g class="ac"><path class="o" d="m383.78,321.92v.41c0,1.41-.36,2.52-1.09,3.33-.73.81-1.67,1.21-2.83,1.21s-2.11-.4-2.84-1.21c-.74-.81-1.1-1.92-1.1-3.33v-.41c0-1.41.37-2.52,1.1-3.33.73-.81,1.68-1.22,2.84-1.22s2.11.41,2.84,1.22c.73.81,1.1,1.92,1.1,3.33Zm-1.93.41v-.42c0-.96-.18-1.7-.53-2.2-.35-.5-.85-.76-1.49-.76s-1.14.25-1.49.76c-.35.5-.52,1.24-.52,2.2v.42c0,.96.18,1.7.53,2.21.35.51.85.76,1.49.76s1.14-.25,1.48-.76c.34-.51.52-1.25.52-2.21Z"/></g><g class="ac"><path class="o" d="m384.66,319.04v-1.54h6.93v1.09l-4.55,6.61h4.65v1.54h-7.03v-1.12l4.57-6.58h-4.57Z"/><path class="o" d="m392.9,326.74v-9.24h6.18v1.54h-4.27v2.2h3.65v1.49h-3.65v2.47h4.29v1.54h-6.2Z"/></g></g><g class="be"><line class="af" x1="244.44" y1="89.99" x2="248.03" y2="89.99"/><line class="af" x1="276.72" y1="145.87" x2="280.31" y2="145.87"/><line class="af" x1="309" y1="201.74" x2="312.59" y2="201.74"/><line class="af" x1="341.28" y1="257.62" x2="344.87" y2="257.62"/><g class="bg"><line class="af" x1="373.56" y1="313.5" x2="377.15" y2="313.5"/></g></g><g class="be"><g class="bg"><line class="af" x1="201.13" y1="27.74" x2="202.92" y2="30.85"/></g><line class="af" x1="168.85" y1="83.62" x2="170.64" y2="86.73"/><line class="af" x1="136.56" y1="139.5" x2="138.36" y2="142.61"/><line class="af" x1="104.28" y1="195.38" x2="106.08" y2="198.48"/><line class="af" x1="72" y1="251.25" x2="73.8" y2="254.36"/></g><g class="be"><line class="af" x1="300.19" y1="318.07" x2="298.4" y2="321.18"/><line class="af" x1="235.67" y1="318.07" x2="233.88" y2="321.18"/><line class="af" x1="171.16" y1="318.07" x2="169.36" y2="321.18"/><line class="af" x1="106.64" y1="318.07" x2="104.85" y2="321.18"/><g class="bg"><line class="af" x1="42.13" y1="318.07" x2="40.33" y2="321.18"/></g></g><line id="i" class="ag" x1="92.95" y1="287.07" x2="100.95" y2="287.07"/><g id="j"><g class="ac"><g class="ac"><path class="t" d="m151.73,291.36v1.51h-6.45v-1.28l3.04-3.25c.46-.51.78-.93.96-1.26.18-.33.26-.63.26-.91,0-.42-.1-.75-.31-.99-.21-.24-.51-.36-.9-.36-.44,0-.78.15-1.02.45s-.35.68-.35,1.14h-1.87c0-.85.29-1.58.88-2.18.58-.61,1.38-.91,2.4-.91s1.74.24,2.27.71c.53.48.79,1.13.79,1.96,0,.63-.19,1.23-.57,1.79-.38.57-.88,1.18-1.51,1.83l-1.67,1.75h4.05Z"/><path class="t" d="m159.21,287.34v1.64c0,1.42-.29,2.44-.87,3.08-.58.63-1.35.95-2.3.95s-1.72-.32-2.3-.95-.88-1.66-.88-3.08v-1.64c0-1.41.29-2.43.88-3.06.58-.63,1.35-.94,2.3-.94s1.72.31,2.3.94c.59.63.88,1.65.88,3.06Zm-1.87,1.89v-2.15c0-.84-.11-1.42-.34-1.75-.23-.33-.55-.5-.97-.5s-.73.17-.96.5c-.23.33-.34.91-.34,1.75v2.15c0,.84.12,1.43.35,1.77.23.34.55.5.97.5s.73-.17.96-.5c.23-.34.34-.92.34-1.77Z"/><path class="t" d="m166.92,291.36v1.51h-6.45v-1.28l3.04-3.25c.46-.51.78-.93.96-1.26.18-.33.26-.63.26-.91,0-.42-.1-.75-.31-.99-.21-.24-.51-.36-.9-.36-.44,0-.78.15-1.02.45s-.35.68-.35,1.14h-1.87c0-.85.29-1.58.88-2.18.58-.61,1.38-.91,2.4-.91s1.74.24,2.27.71c.53.48.79,1.13.79,1.96,0,.63-.19,1.23-.57,1.79-.38.57-.88,1.18-1.51,1.83l-1.67,1.75h4.05Z"/><path class="t" d="m172.61,283.44v9.43h-1.87v-7.21l-2.22.69v-1.51l3.89-1.4h.2Z"/></g></g></g><g id="k"><g class="ac"><g class="ac"><path class="t" d="m67.66,289.56v1.51h-6.45v-1.28l3.04-3.25c.46-.51.78-.93.96-1.26.18-.33.26-.63.26-.91,0-.42-.1-.75-.31-.99-.21-.24-.51-.36-.9-.36-.44,0-.78.15-1.02.45s-.35.68-.35,1.14h-1.87c0-.85.29-1.58.88-2.18.58-.61,1.38-.91,2.4-.91s1.74.24,2.27.71c.53.48.79,1.13.79,1.96,0,.63-.19,1.23-.57,1.79-.38.57-.88,1.18-1.51,1.83l-1.67,1.75h4.05Z"/><path class="t" d="m75.14,285.54v1.64c0,1.42-.29,2.44-.87,3.08-.58.63-1.35.95-2.3.95s-1.72-.32-2.3-.95-.88-1.66-.88-3.08v-1.64c0-1.41.29-2.43.88-3.06.58-.63,1.35-.94,2.3-.94s1.72.31,2.3.94c.59.63.88,1.65.88,3.06Zm-1.87,1.89v-2.15c0-.84-.11-1.42-.34-1.75-.23-.33-.55-.5-.97-.5s-.73.17-.96.5c-.23.33-.34.91-.34,1.75v2.15c0,.84.12,1.43.35,1.77.23.34.55.5.97.5s.73-.17.96-.5c.23-.34.34-.92.34-1.77Z"/><path class="t" d="m82.73,285.54v1.64c0,1.42-.29,2.44-.87,3.08-.58.63-1.35.95-2.3.95s-1.72-.32-2.3-.95-.88-1.66-.88-3.08v-1.64c0-1.41.29-2.43.88-3.06.58-.63,1.35-.94,2.3-.94s1.72.31,2.3.94c.59.63.88,1.65.88,3.06Zm-1.87,1.89v-2.15c0-.84-.11-1.42-.34-1.75-.23-.33-.55-.5-.97-.5s-.73.17-.96.5c-.23.33-.34.91-.34,1.75v2.15c0,.84.12,1.43.35,1.77.23.34.55.5.97.5s.73-.17.96-.5c.23-.34.34-.92.34-1.77Z"/><path class="t" d="m90.33,285.54v1.64c0,1.42-.29,2.44-.87,3.08-.58.63-1.35.95-2.3.95s-1.72-.32-2.3-.95-.88-1.66-.88-3.08v-1.64c0-1.41.29-2.43.88-3.06.58-.63,1.35-.94,2.3-.94s1.72.31,2.3.94c.59.63.88,1.65.88,3.06Zm-1.87,1.89v-2.15c0-.84-.11-1.42-.34-1.75-.23-.33-.55-.5-.97-.5s-.73.17-.96.5c-.23.33-.34.91-.34,1.75v2.15c0,.84.12,1.43.35,1.77.23.34.55.5.97.5s.73-.17.96-.5c.23-.34.34-.92.34-1.77Z"/></g></g></g><line id="l" class="ag" x1="142.64" y1="288.87" x2="130.64" y2="288.87"/></g><circle class="bc" cx="130.64" cy="288.87" r="4"/></svg>