<?xml version="1.0" encoding="utf-8"?>
<!-- Generator: Adobe Illustrator 27.7.0, SVG Export Plug-In . SVG Version: 6.00 Build 0)  -->
<svg version="1.1" id="Layer_1" xmlns="http://www.w3.org/2000/svg" xmlns:xlink="http://www.w3.org/1999/xlink" x="0px" y="0px"
	 viewBox="0 0 740 467.7" enable-background="new 0 0 740 467.7" xml:space="preserve">
<g>
	<path fill="#87BBDE" stroke="#FFFFFF" stroke-width="1.107" stroke-miterlimit="10" d="M653.2,389.9h38.2V252.2h-38.2V389.9z"/>
</g>
<g>
	<path fill="#87BBDE" stroke="#FFFFFF" stroke-width="1.107" stroke-miterlimit="10" d="M615,389.9h38.2V249.4H615V389.9z"/>
</g>
<g>
	<path fill="#87BBDE" stroke="#FFFFFF" stroke-width="1.107" stroke-miterlimit="10" d="M42.7,389.9h38.2V182.2H42.7V389.9z"/>
</g>
<g>
	<path fill="#87BBDE" stroke="#FFFFFF" stroke-width="1.107" stroke-miterlimit="10" d="M80.9,389.9h38.2V180.8H80.9V389.9z"/>
</g>
<g>
	<path fill="#87BBDE" stroke="#FFFFFF" stroke-width="1.107" stroke-miterlimit="10" d="M119.1,389.9h38.2V166.5h-38.2V389.9z"/>
</g>
<g>
	<path fill="#87BBDE" stroke="#FFFFFF" stroke-width="1.107" stroke-miterlimit="10" d="M157.3,389.9h38.2V172.1h-38.2V389.9z"/>
</g>
<g>
	<path fill="#87BBDE" stroke="#FFFFFF" stroke-width="1.107" stroke-miterlimit="10" d="M195.4,389.9h38.2V196.4h-38.2V389.9z"/>
</g>
<g>
	<path fill="#87BBDE" stroke="#FFFFFF" stroke-width="1.107" stroke-miterlimit="10" d="M233.6,389.9h38.2V190.8h-38.2V389.9z"/>
</g>
<g>
	<path fill="#87BBDE" stroke="#FFFFFF" stroke-width="1.107" stroke-miterlimit="10" d="M271.8,389.9H310V193.7h-38.2V389.9z"/>
</g>
<g>
	<path fill="#87BBDE" stroke="#FFFFFF" stroke-width="1.107" stroke-miterlimit="10" d="M310,389.9h38.2V197.8H310V389.9z"/>
</g>
<g>
	<path fill="#87BBDE" stroke="#FFFFFF" stroke-width="1.107" stroke-miterlimit="10" d="M348.1,389.9h38.2V193.5h-38.2V389.9z"/>
</g>
<g>
	<path fill="#87BBDE" stroke="#FFFFFF" stroke-width="1.107" stroke-miterlimit="10" d="M386.3,389.9h38.2V203.6h-38.2V389.9z"/>
</g>
<g>
	<path fill="#87BBDE" stroke="#FFFFFF" stroke-width="1.107" stroke-miterlimit="10" d="M424.5,389.9h38.2V203.6h-38.2V389.9z"/>
</g>
<g>
	<path fill="#87BBDE" stroke="#FFFFFF" stroke-width="1.107" stroke-miterlimit="10" d="M462.7,389.9h38.2V209.2h-38.2V389.9z"/>
</g>
<g>
	<path fill="#87BBDE" stroke="#FFFFFF" stroke-width="1.107" stroke-miterlimit="10" d="M500.8,389.9H539V209.4h-38.2V389.9z"/>
</g>
<g>
	<path fill="#87BBDE" stroke="#FFFFFF" stroke-width="1.107" stroke-miterlimit="10" d="M539,389.9h38.2V216.5H539V389.9z"/>
</g>
<g>
	<g>
		<path d="M53.2,412.7h-6.7v-0.7l3.7-4.1c0.6-0.7,1-1.3,1.3-1.7s0.4-0.9,0.4-1.3c0-0.7-0.2-1.2-0.6-1.6c-0.4-0.4-0.9-0.6-1.6-0.6
			c-0.7,0-1.3,0.2-1.7,0.7c-0.4,0.5-0.7,1.1-0.7,1.8h-0.9c0-0.6,0.1-1.1,0.4-1.6c0.3-0.5,0.7-0.9,1.2-1.2c0.5-0.3,1.1-0.4,1.7-0.4
			c1,0,1.7,0.3,2.3,0.8c0.5,0.5,0.8,1.2,0.8,2.1c0,0.5-0.2,1-0.5,1.6c-0.3,0.6-0.9,1.3-1.6,2.2l-3,3.4h5.6V412.7z"/>
		<path d="M61.2,408.3c0,1.5-0.3,2.6-0.8,3.4c-0.6,0.8-1.4,1.2-2.4,1.2c-1.1,0-1.9-0.4-2.4-1.1c-0.6-0.8-0.8-1.9-0.9-3.3v-1.9
			c0-1.5,0.3-2.6,0.8-3.4s1.4-1.2,2.4-1.2c1.1,0,1.9,0.4,2.4,1.1c0.6,0.7,0.8,1.8,0.9,3.3V408.3z M60.3,406.4c0-1.2-0.2-2.1-0.6-2.8
			c-0.4-0.6-1-0.9-1.8-0.9c-0.8,0-1.4,0.3-1.8,0.9c-0.4,0.6-0.6,1.5-0.6,2.7v2.1c0,1.2,0.2,2.1,0.6,2.8c0.4,0.6,1,1,1.8,1
			c0.8,0,1.4-0.3,1.8-0.9c0.4-0.6,0.6-1.6,0.6-2.8V406.4z"/>
		<path d="M69.5,408.3c0,1.5-0.3,2.6-0.8,3.4c-0.6,0.8-1.4,1.2-2.4,1.2c-1.1,0-1.9-0.4-2.4-1.1c-0.6-0.8-0.8-1.9-0.9-3.3v-1.9
			c0-1.5,0.3-2.6,0.8-3.4s1.4-1.2,2.4-1.2c1.1,0,1.9,0.4,2.4,1.1c0.6,0.7,0.8,1.8,0.9,3.3V408.3z M68.7,406.4c0-1.2-0.2-2.1-0.6-2.8
			c-0.4-0.6-1-0.9-1.8-0.9c-0.8,0-1.4,0.3-1.8,0.9c-0.4,0.6-0.6,1.5-0.6,2.7v2.1c0,1.2,0.2,2.1,0.6,2.8c0.4,0.6,1,1,1.8,1
			c0.8,0,1.4-0.3,1.8-0.9c0.4-0.6,0.6-1.6,0.6-2.8V406.4z"/>
		<path d="M72,407.3l0.5-5.2h5.3v0.8h-4.6l-0.4,3.6c0.6-0.4,1.2-0.6,2-0.6c1,0,1.7,0.3,2.3,0.9c0.6,0.6,0.9,1.5,0.9,2.5
			c0,1.1-0.3,2-0.8,2.6s-1.3,0.9-2.4,0.9c-0.9,0-1.7-0.3-2.3-0.8s-0.9-1.2-1-2.2h0.8c0.1,0.7,0.3,1.3,0.7,1.7c0.4,0.4,1,0.6,1.7,0.6
			c0.8,0,1.3-0.2,1.7-0.7c0.4-0.5,0.6-1.2,0.6-2.1c0-0.8-0.2-1.4-0.7-1.9c-0.4-0.5-1-0.7-1.8-0.7c-0.4,0-0.8,0.1-1.1,0.2
			c-0.3,0.1-0.6,0.3-1,0.6L72,407.3z"/>
	</g>
</g>
<g>
	<g>
		<path d="M129.4,412.7h-6.7v-0.7l3.7-4.1c0.6-0.7,1-1.3,1.3-1.7s0.4-0.9,0.4-1.3c0-0.7-0.2-1.2-0.6-1.6c-0.4-0.4-0.9-0.6-1.6-0.6
			c-0.7,0-1.3,0.2-1.7,0.7c-0.4,0.5-0.7,1.1-0.7,1.8h-0.9c0-0.6,0.1-1.1,0.4-1.6c0.3-0.5,0.7-0.9,1.2-1.2c0.5-0.3,1.1-0.4,1.7-0.4
			c1,0,1.7,0.3,2.3,0.8c0.5,0.5,0.8,1.2,0.8,2.1c0,0.5-0.2,1-0.5,1.6c-0.3,0.6-0.9,1.3-1.6,2.2l-3,3.4h5.6V412.7z"/>
		<path d="M137.5,408.3c0,1.5-0.3,2.6-0.8,3.4c-0.6,0.8-1.4,1.2-2.4,1.2c-1.1,0-1.9-0.4-2.4-1.1c-0.6-0.8-0.8-1.9-0.9-3.3v-1.9
			c0-1.5,0.3-2.6,0.8-3.4s1.4-1.2,2.4-1.2c1.1,0,1.9,0.4,2.4,1.1c0.6,0.7,0.8,1.8,0.9,3.3V408.3z M136.6,406.4
			c0-1.2-0.2-2.1-0.6-2.8c-0.4-0.6-1-0.9-1.8-0.9c-0.8,0-1.4,0.3-1.8,0.9c-0.4,0.6-0.6,1.5-0.6,2.7v2.1c0,1.2,0.2,2.1,0.6,2.8
			c0.4,0.6,1,1,1.8,1c0.8,0,1.4-0.3,1.8-0.9c0.4-0.6,0.6-1.6,0.6-2.8V406.4z"/>
		<path d="M145.8,408.3c0,1.5-0.3,2.6-0.8,3.4c-0.6,0.8-1.4,1.2-2.4,1.2c-1.1,0-1.9-0.4-2.4-1.1c-0.6-0.8-0.8-1.9-0.9-3.3v-1.9
			c0-1.5,0.3-2.6,0.8-3.4s1.4-1.2,2.4-1.2c1.1,0,1.9,0.4,2.4,1.1c0.6,0.7,0.8,1.8,0.9,3.3V408.3z M144.9,406.4
			c0-1.2-0.2-2.1-0.6-2.8c-0.4-0.6-1-0.9-1.8-0.9c-0.8,0-1.4,0.3-1.8,0.9c-0.4,0.6-0.6,1.5-0.6,2.7v2.1c0,1.2,0.2,2.1,0.6,2.8
			c0.4,0.6,1,1,1.8,1c0.8,0,1.4-0.3,1.8-0.9c0.4-0.6,0.6-1.6,0.6-2.8V406.4z"/>
		<path d="M154.3,402.6l-4.6,10.2h-0.9l4.5-9.9h-6.1v-0.7h7V402.6z"/>
	</g>
</g>
<g>
	<g>
		<path d="M205.7,412.7H199v-0.7l3.7-4.1c0.6-0.7,1-1.3,1.3-1.7s0.4-0.9,0.4-1.3c0-0.7-0.2-1.2-0.6-1.6c-0.4-0.4-0.9-0.6-1.6-0.6
			c-0.7,0-1.3,0.2-1.7,0.7c-0.4,0.5-0.7,1.1-0.7,1.8h-0.9c0-0.6,0.1-1.1,0.4-1.6c0.3-0.5,0.7-0.9,1.2-1.2c0.5-0.3,1.1-0.4,1.7-0.4
			c1,0,1.7,0.3,2.3,0.8c0.5,0.5,0.8,1.2,0.8,2.1c0,0.5-0.2,1-0.5,1.6c-0.3,0.6-0.9,1.3-1.6,2.2l-3,3.4h5.6V412.7z"/>
		<path d="M213.8,408.3c0,1.5-0.3,2.6-0.8,3.4c-0.6,0.8-1.4,1.2-2.4,1.2c-1.1,0-1.9-0.4-2.4-1.1c-0.6-0.8-0.8-1.9-0.9-3.3v-1.9
			c0-1.5,0.3-2.6,0.8-3.4s1.4-1.2,2.4-1.2c1.1,0,1.9,0.4,2.4,1.1c0.6,0.7,0.8,1.8,0.9,3.3V408.3z M212.9,406.4
			c0-1.2-0.2-2.1-0.6-2.8c-0.4-0.6-1-0.9-1.8-0.9c-0.8,0-1.4,0.3-1.8,0.9c-0.4,0.6-0.6,1.5-0.6,2.7v2.1c0,1.2,0.2,2.1,0.6,2.8
			c0.4,0.6,1,1,1.8,1c0.8,0,1.4-0.3,1.8-0.9c0.4-0.6,0.6-1.6,0.6-2.8V406.4z"/>
		<path d="M222.1,408.3c0,1.5-0.3,2.6-0.8,3.4c-0.6,0.8-1.4,1.2-2.4,1.2c-1.1,0-1.9-0.4-2.4-1.1c-0.6-0.8-0.8-1.9-0.9-3.3v-1.9
			c0-1.5,0.3-2.6,0.8-3.4s1.4-1.2,2.4-1.2c1.1,0,1.9,0.4,2.4,1.1c0.6,0.7,0.8,1.8,0.9,3.3V408.3z M221.2,406.4
			c0-1.2-0.2-2.1-0.6-2.8c-0.4-0.6-1-0.9-1.8-0.9c-0.8,0-1.4,0.3-1.8,0.9c-0.4,0.6-0.6,1.5-0.6,2.7v2.1c0,1.2,0.2,2.1,0.6,2.8
			c0.4,0.6,1,1,1.8,1c0.8,0,1.4-0.3,1.8-0.9c0.4-0.6,0.6-1.6,0.6-2.8V406.4z"/>
		<path d="M229.4,407.8c-0.3,0.5-0.7,0.8-1.2,1.1c-0.5,0.3-1,0.4-1.5,0.4c-0.6,0-1.1-0.2-1.6-0.5c-0.5-0.3-0.8-0.7-1.1-1.3
			c-0.3-0.6-0.4-1.2-0.4-1.8c0-0.7,0.1-1.3,0.4-1.9c0.3-0.6,0.6-1,1.1-1.3c0.5-0.3,1-0.5,1.7-0.5c1.1,0,1.9,0.4,2.5,1.1
			c0.6,0.8,0.9,1.8,0.9,3.2v0.8c0,1.9-0.4,3.4-1.2,4.3s-2.1,1.4-3.8,1.4h-0.2l0-0.8h0.3c1.3,0,2.2-0.4,2.9-1.1
			C229,410.3,229.4,409.2,229.4,407.8z M226.9,408.5c0.6,0,1.1-0.2,1.6-0.5c0.5-0.3,0.8-0.8,1-1.4v-0.5c0-1.1-0.2-1.9-0.7-2.5
			c-0.5-0.6-1.1-0.9-1.8-0.9c-0.7,0-1.3,0.3-1.7,0.8s-0.7,1.3-0.7,2.1c0,0.8,0.2,1.5,0.6,2C225.6,408.2,226.2,408.5,226.9,408.5z"/>
	</g>
</g>
<g>
	<g>
		<path d="M282,412.7h-6.7v-0.7l3.7-4.1c0.6-0.7,1-1.3,1.3-1.7s0.4-0.9,0.4-1.3c0-0.7-0.2-1.2-0.6-1.6c-0.4-0.4-0.9-0.6-1.6-0.6
			c-0.7,0-1.3,0.2-1.7,0.7c-0.4,0.5-0.7,1.1-0.7,1.8h-0.9c0-0.6,0.1-1.1,0.4-1.6c0.3-0.5,0.7-0.9,1.2-1.2c0.5-0.3,1.1-0.4,1.7-0.4
			c1,0,1.7,0.3,2.3,0.8c0.5,0.5,0.8,1.2,0.8,2.1c0,0.5-0.2,1-0.5,1.6c-0.3,0.6-0.9,1.3-1.6,2.2l-3,3.4h5.6V412.7z"/>
		<path d="M290,408.3c0,1.5-0.3,2.6-0.8,3.4c-0.6,0.8-1.4,1.2-2.4,1.2c-1.1,0-1.9-0.4-2.4-1.1c-0.6-0.8-0.8-1.9-0.9-3.3v-1.9
			c0-1.5,0.3-2.6,0.8-3.4s1.4-1.2,2.4-1.2c1.1,0,1.9,0.4,2.4,1.1c0.6,0.7,0.8,1.8,0.9,3.3V408.3z M289.2,406.4
			c0-1.2-0.2-2.1-0.6-2.8c-0.4-0.6-1-0.9-1.8-0.9c-0.8,0-1.4,0.3-1.8,0.9c-0.4,0.6-0.6,1.5-0.6,2.7v2.1c0,1.2,0.2,2.1,0.6,2.8
			c0.4,0.6,1,1,1.8,1c0.8,0,1.4-0.3,1.8-0.9c0.4-0.6,0.6-1.6,0.6-2.8V406.4z"/>
		<path d="M296,412.7h-0.9v-9.6l-2.9,1.1v-0.8l3.6-1.3h0.1V412.7z"/>
		<path d="M304.3,412.7h-0.9v-9.6l-2.9,1.1v-0.8l3.6-1.3h0.1V412.7z"/>
	</g>
</g>
<g>
	<g>
		<path d="M358.2,412.7h-6.7v-0.7l3.7-4.1c0.6-0.7,1-1.3,1.3-1.7s0.4-0.9,0.4-1.3c0-0.7-0.2-1.2-0.6-1.6c-0.4-0.4-0.9-0.6-1.6-0.6
			c-0.7,0-1.3,0.2-1.7,0.7c-0.4,0.5-0.7,1.1-0.7,1.8h-0.9c0-0.6,0.1-1.1,0.4-1.6c0.3-0.5,0.7-0.9,1.2-1.2c0.5-0.3,1.1-0.4,1.7-0.4
			c1,0,1.7,0.3,2.3,0.8c0.5,0.5,0.8,1.2,0.8,2.1c0,0.5-0.2,1-0.5,1.6c-0.3,0.6-0.9,1.3-1.6,2.2l-3,3.4h5.6V412.7z"/>
		<path d="M366.3,408.3c0,1.5-0.3,2.6-0.8,3.4c-0.6,0.8-1.4,1.2-2.4,1.2c-1.1,0-1.9-0.4-2.4-1.1c-0.6-0.8-0.8-1.9-0.9-3.3v-1.9
			c0-1.5,0.3-2.6,0.8-3.4s1.4-1.2,2.4-1.2c1.1,0,1.9,0.4,2.4,1.1c0.6,0.7,0.8,1.8,0.9,3.3V408.3z M365.4,406.4
			c0-1.2-0.2-2.1-0.6-2.8c-0.4-0.6-1-0.9-1.8-0.9c-0.8,0-1.4,0.3-1.8,0.9c-0.4,0.6-0.6,1.5-0.6,2.7v2.1c0,1.2,0.2,2.1,0.6,2.8
			c0.4,0.6,1,1,1.8,1c0.8,0,1.4-0.3,1.8-0.9c0.4-0.6,0.6-1.6,0.6-2.8V406.4z"/>
		<path d="M372.3,412.7h-0.9v-9.6l-2.9,1.1v-0.8l3.6-1.3h0.1V412.7z"/>
		<path d="M378.5,406.9h0.9c0.5,0,0.9-0.1,1.3-0.3c0.4-0.2,0.7-0.4,0.9-0.7c0.2-0.3,0.3-0.7,0.3-1.1c0-0.7-0.2-1.2-0.6-1.6
			s-0.9-0.6-1.7-0.6c-0.7,0-1.2,0.2-1.7,0.6c-0.4,0.4-0.7,0.9-0.7,1.6h-0.9c0-0.6,0.1-1.1,0.4-1.5c0.3-0.5,0.7-0.8,1.2-1.1
			c0.5-0.2,1-0.4,1.6-0.4c1,0,1.7,0.3,2.3,0.8s0.8,1.2,0.8,2.2c0,0.5-0.2,1-0.5,1.4c-0.3,0.4-0.8,0.8-1.3,1c0.7,0.2,1.2,0.5,1.5,1
			c0.3,0.5,0.5,1,0.5,1.6c0,0.9-0.3,1.6-0.9,2.2s-1.4,0.8-2.4,0.8c-0.6,0-1.2-0.1-1.7-0.4c-0.5-0.3-0.9-0.6-1.2-1.1
			c-0.3-0.5-0.4-1-0.4-1.6h0.9c0,0.7,0.2,1.2,0.7,1.7c0.5,0.4,1.1,0.6,1.8,0.6c0.8,0,1.3-0.2,1.8-0.6c0.4-0.4,0.6-1,0.6-1.7
			c0-0.7-0.2-1.3-0.7-1.6c-0.5-0.4-1.1-0.6-2-0.6h-0.9V406.9z"/>
	</g>
</g>
<g>
	<g>
		<path d="M434.5,412.7h-6.7v-0.7l3.7-4.1c0.6-0.7,1-1.3,1.3-1.7s0.4-0.9,0.4-1.3c0-0.7-0.2-1.2-0.6-1.6c-0.4-0.4-0.9-0.6-1.6-0.6
			c-0.7,0-1.3,0.2-1.7,0.7c-0.4,0.5-0.7,1.1-0.7,1.8h-0.9c0-0.6,0.1-1.1,0.4-1.6c0.3-0.5,0.7-0.9,1.2-1.2c0.5-0.3,1.1-0.4,1.7-0.4
			c1,0,1.7,0.3,2.3,0.8c0.5,0.5,0.8,1.2,0.8,2.1c0,0.5-0.2,1-0.5,1.6c-0.3,0.6-0.9,1.3-1.6,2.2l-3,3.4h5.6V412.7z"/>
		<path d="M442.6,408.3c0,1.5-0.3,2.6-0.8,3.4c-0.6,0.8-1.4,1.2-2.4,1.2c-1.1,0-1.9-0.4-2.4-1.1c-0.6-0.8-0.8-1.9-0.9-3.3v-1.9
			c0-1.5,0.3-2.6,0.8-3.4s1.4-1.2,2.4-1.2c1.1,0,1.9,0.4,2.4,1.1c0.6,0.7,0.8,1.8,0.9,3.3V408.3z M441.7,406.4
			c0-1.2-0.2-2.1-0.6-2.8c-0.4-0.6-1-0.9-1.8-0.9c-0.8,0-1.4,0.3-1.8,0.9c-0.4,0.6-0.6,1.5-0.6,2.7v2.1c0,1.2,0.2,2.1,0.6,2.8
			c0.4,0.6,1,1,1.8,1c0.8,0,1.4-0.3,1.8-0.9c0.4-0.6,0.6-1.6,0.6-2.8V406.4z"/>
		<path d="M448.5,412.7h-0.9v-9.6l-2.9,1.1v-0.8l3.6-1.3h0.1V412.7z"/>
		<path d="M453.4,407.3l0.5-5.2h5.3v0.8h-4.6l-0.4,3.6c0.6-0.4,1.2-0.6,2-0.6c1,0,1.7,0.3,2.3,0.9c0.6,0.6,0.9,1.5,0.9,2.5
			c0,1.1-0.3,2-0.8,2.6s-1.3,0.9-2.4,0.9c-0.9,0-1.7-0.3-2.3-0.8s-0.9-1.2-1-2.2h0.8c0.1,0.7,0.3,1.3,0.7,1.7c0.4,0.4,1,0.6,1.7,0.6
			c0.8,0,1.3-0.2,1.7-0.7c0.4-0.5,0.6-1.2,0.6-2.1c0-0.8-0.2-1.4-0.7-1.9c-0.4-0.5-1-0.7-1.8-0.7c-0.4,0-0.8,0.1-1.1,0.2
			c-0.3,0.1-0.6,0.3-1,0.6L453.4,407.3z"/>
	</g>
</g>
<g>
	<g>
		<path d="M510.8,412.7h-6.7v-0.7l3.7-4.1c0.6-0.7,1-1.3,1.3-1.7s0.4-0.9,0.4-1.3c0-0.7-0.2-1.2-0.6-1.6c-0.4-0.4-0.9-0.6-1.6-0.6
			c-0.7,0-1.3,0.2-1.7,0.7c-0.4,0.5-0.7,1.1-0.7,1.8h-0.9c0-0.6,0.1-1.1,0.4-1.6c0.3-0.5,0.7-0.9,1.2-1.2c0.5-0.3,1.1-0.4,1.7-0.4
			c1,0,1.7,0.3,2.3,0.8c0.5,0.5,0.8,1.2,0.8,2.1c0,0.5-0.2,1-0.5,1.6c-0.3,0.6-0.9,1.3-1.6,2.2l-3,3.4h5.6V412.7z"/>
		<path d="M518.8,408.3c0,1.5-0.3,2.6-0.8,3.4c-0.6,0.8-1.4,1.2-2.4,1.2c-1.1,0-1.9-0.4-2.4-1.1c-0.6-0.8-0.8-1.9-0.9-3.3v-1.9
			c0-1.5,0.3-2.6,0.8-3.4s1.4-1.2,2.4-1.2c1.1,0,1.9,0.4,2.4,1.1c0.6,0.7,0.8,1.8,0.9,3.3V408.3z M518,406.4c0-1.2-0.2-2.1-0.6-2.8
			c-0.4-0.6-1-0.9-1.8-0.9c-0.8,0-1.4,0.3-1.8,0.9c-0.4,0.6-0.6,1.5-0.6,2.7v2.1c0,1.2,0.2,2.1,0.6,2.8c0.4,0.6,1,1,1.8,1
			c0.8,0,1.4-0.3,1.8-0.9c0.4-0.6,0.6-1.6,0.6-2.8V406.4z"/>
		<path d="M524.8,412.7h-0.9v-9.6l-2.9,1.1v-0.8l3.6-1.3h0.1V412.7z"/>
		<path d="M535.6,402.6l-4.6,10.2h-0.9l4.5-9.9h-6.1v-0.7h7V402.6z"/>
	</g>
</g>
<g>
	<g>
		<path d="M587.1,412.7h-6.7v-0.7l3.7-4.1c0.6-0.7,1-1.3,1.3-1.7s0.4-0.9,0.4-1.3c0-0.7-0.2-1.2-0.6-1.6c-0.4-0.4-0.9-0.6-1.6-0.6
			c-0.7,0-1.3,0.2-1.7,0.7c-0.4,0.5-0.7,1.1-0.7,1.8h-0.9c0-0.6,0.1-1.1,0.4-1.6s0.7-0.9,1.2-1.2c0.5-0.3,1.1-0.4,1.7-0.4
			c1,0,1.7,0.3,2.3,0.8c0.5,0.5,0.8,1.2,0.8,2.1c0,0.5-0.2,1-0.5,1.6s-0.9,1.3-1.6,2.2l-3,3.4h5.6V412.7z"/>
		<path d="M595.1,408.3c0,1.5-0.3,2.6-0.8,3.4c-0.6,0.8-1.4,1.2-2.4,1.2c-1.1,0-1.9-0.4-2.4-1.1c-0.6-0.8-0.8-1.9-0.9-3.3v-1.9
			c0-1.5,0.3-2.6,0.8-3.4s1.4-1.2,2.4-1.2c1.1,0,1.9,0.4,2.4,1.1c0.6,0.7,0.8,1.8,0.9,3.3V408.3z M594.2,406.4
			c0-1.2-0.2-2.1-0.6-2.8s-1-0.9-1.8-0.9c-0.8,0-1.4,0.3-1.8,0.9c-0.4,0.6-0.6,1.5-0.6,2.7v2.1c0,1.2,0.2,2.1,0.6,2.8
			c0.4,0.6,1,1,1.8,1c0.8,0,1.4-0.3,1.8-0.9c0.4-0.6,0.6-1.6,0.6-2.8V406.4z"/>
		<path d="M601.1,412.7h-0.9v-9.6l-2.9,1.1v-0.8l3.6-1.3h0.1V412.7z"/>
		<path d="M610.8,407.8c-0.3,0.5-0.7,0.8-1.2,1.1c-0.5,0.3-1,0.4-1.5,0.4c-0.6,0-1.1-0.2-1.6-0.5c-0.5-0.3-0.8-0.7-1.1-1.3
			s-0.4-1.2-0.4-1.8c0-0.7,0.1-1.3,0.4-1.9s0.7-1,1.1-1.3c0.5-0.3,1-0.5,1.7-0.5c1.1,0,1.9,0.4,2.5,1.1c0.6,0.8,0.9,1.8,0.9,3.2v0.8
			c0,1.9-0.4,3.4-1.2,4.3s-2.1,1.4-3.8,1.4h-0.2l0-0.8h0.3c1.3,0,2.2-0.4,2.9-1.1S610.8,409.2,610.8,407.8z M608.2,408.5
			c0.6,0,1.1-0.2,1.6-0.5c0.5-0.3,0.8-0.8,1-1.4v-0.5c0-1.1-0.2-1.9-0.7-2.5c-0.5-0.6-1.1-0.9-1.8-0.9c-0.7,0-1.3,0.3-1.7,0.8
			c-0.4,0.6-0.7,1.3-0.7,2.1c0,0.8,0.2,1.5,0.6,2C607,408.2,607.5,408.5,608.2,408.5z"/>
	</g>
</g>
<g>
	<g>
		<path d="M663.3,412.7h-6.7v-0.7l3.7-4.1c0.6-0.7,1-1.3,1.3-1.7s0.4-0.9,0.4-1.3c0-0.7-0.2-1.2-0.6-1.6c-0.4-0.4-0.9-0.6-1.6-0.6
			c-0.7,0-1.3,0.2-1.7,0.7s-0.7,1.1-0.7,1.8h-0.9c0-0.6,0.1-1.1,0.4-1.6c0.3-0.5,0.7-0.9,1.2-1.2c0.5-0.3,1.1-0.4,1.7-0.4
			c1,0,1.7,0.3,2.3,0.8c0.5,0.5,0.8,1.2,0.8,2.1c0,0.5-0.2,1-0.5,1.6c-0.3,0.6-0.9,1.3-1.6,2.2l-3,3.4h5.6V412.7z"/>
		<path d="M671.4,408.3c0,1.5-0.3,2.6-0.8,3.4c-0.6,0.8-1.4,1.2-2.4,1.2c-1.1,0-1.9-0.4-2.4-1.1c-0.6-0.8-0.8-1.9-0.9-3.3v-1.9
			c0-1.5,0.3-2.6,0.8-3.4s1.4-1.2,2.4-1.2c1.1,0,1.9,0.4,2.4,1.1c0.6,0.7,0.8,1.8,0.9,3.3V408.3z M670.5,406.4
			c0-1.2-0.2-2.1-0.6-2.8c-0.4-0.6-1-0.9-1.8-0.9c-0.8,0-1.4,0.3-1.8,0.9c-0.4,0.6-0.6,1.5-0.6,2.7v2.1c0,1.2,0.2,2.1,0.6,2.8
			s1,1,1.8,1c0.8,0,1.4-0.3,1.8-0.9s0.6-1.6,0.6-2.8V406.4z"/>
		<path d="M679.9,412.7h-6.7v-0.7l3.7-4.1c0.6-0.7,1-1.3,1.3-1.7s0.4-0.9,0.4-1.3c0-0.7-0.2-1.2-0.6-1.6c-0.4-0.4-0.9-0.6-1.6-0.6
			c-0.7,0-1.3,0.2-1.7,0.7c-0.4,0.5-0.7,1.1-0.7,1.8H673c0-0.6,0.1-1.1,0.4-1.6s0.7-0.9,1.2-1.2c0.5-0.3,1.1-0.4,1.7-0.4
			c1,0,1.7,0.3,2.3,0.8c0.5,0.5,0.8,1.2,0.8,2.1c0,0.5-0.2,1-0.5,1.6s-0.9,1.3-1.6,2.2l-3,3.4h5.6V412.7z"/>
		<path d="M685.7,412.7h-0.9v-9.6l-2.9,1.1v-0.8l3.6-1.3h0.1V412.7z"/>
	</g>
</g>
<g>
	
		<path fill="none" stroke="#808285" stroke-width="0.3" stroke-linecap="square" stroke-linejoin="round" stroke-dasharray="5.6885" d="
		M5.8,389.9h724"/>
	
		<path fill="none" stroke="#808285" stroke-width="0.3" stroke-linecap="square" stroke-linejoin="round" stroke-dasharray="5.6885" d="
		M5.8,338.7h724"/>
	
		<path fill="none" stroke="#808285" stroke-width="0.3" stroke-linecap="square" stroke-linejoin="round" stroke-dasharray="5.6885" d="
		M5.8,287.4h724"/>
	
		<path fill="none" stroke="#808285" stroke-width="0.3" stroke-linecap="square" stroke-linejoin="round" stroke-dasharray="5.6885" d="
		M5.8,236.1h724"/>
	
		<path fill="none" stroke="#808285" stroke-width="0.3" stroke-linecap="square" stroke-linejoin="round" stroke-dasharray="5.6885" d="
		M5.8,184.9h724"/>
	
		<path fill="none" stroke="#808285" stroke-width="0.3" stroke-linecap="square" stroke-linejoin="round" stroke-dasharray="5.6885" d="
		M5.8,133.6h724"/>
</g>
<g>
	<path d="M8.2,447L6,446.3l0.2-0.7l2.2,0.8l0-2.5h0.7L9,446.5l2.2-0.8l0.2,0.7l-2.2,0.8l1.5,2l-0.6,0.4l-1.4-2l-1.4,2l-0.6-0.4
		L8.2,447z"/>
	<path d="M16.5,453h6v0.7h-7v-0.6l5.8-8.4h-5.6V444h6.6v0.6L16.5,453z"/>
	<path d="M28.7,453.7c-0.1-0.2-0.1-0.6-0.2-1c-0.3,0.4-0.6,0.6-1.1,0.8s-0.9,0.3-1.4,0.3c-0.7,0-1.3-0.2-1.7-0.6s-0.6-0.9-0.6-1.5
		c0-0.7,0.3-1.3,0.9-1.7c0.6-0.4,1.4-0.6,2.5-0.6h1.5v-0.8c0-0.5-0.2-0.9-0.5-1.2c-0.3-0.3-0.8-0.4-1.4-0.4c-0.6,0-1,0.1-1.4,0.4
		c-0.4,0.3-0.5,0.6-0.5,1l-0.8,0c0-0.6,0.3-1.1,0.8-1.5c0.5-0.4,1.2-0.6,2-0.6c0.8,0,1.4,0.2,1.9,0.6c0.5,0.4,0.7,1,0.7,1.7v3.4
		c0,0.7,0.1,1.2,0.2,1.6v0.1H28.7z M26.2,453.2c0.5,0,1-0.1,1.4-0.4c0.4-0.3,0.7-0.6,0.9-1v-1.6h-1.4c-0.8,0-1.4,0.2-1.9,0.4
		s-0.7,0.7-0.7,1.2c0,0.4,0.2,0.7,0.5,1C25.4,453,25.8,453.2,26.2,453.2z"/>
	<path d="M33.2,444.9l1.2-1.3h0.7v0.1l-1.6,1.7h-0.6l-1.6-1.8v-0.1h0.7L33.2,444.9z M34.9,447.2c-0.2,0-0.4,0-0.5,0
		c-0.5,0-0.9,0.1-1.3,0.4s-0.6,0.7-0.7,1.2v5h-0.8v-7.2h0.8l0,1.2c0.4-0.9,1.1-1.3,2-1.3c0.2,0,0.4,0,0.5,0.1L34.9,447.2z"/>
	<path d="M37.4,443.5h1l-1.5,1.9l-0.7,0L37.4,443.5z M37,453.7h-0.8v-7.2H37V453.7z"/>
	<path d="M39.7,453.1h4.7v0.7h-5.7v-0.6l4.4-6h-4.3v-0.7h5.3v0.6L39.7,453.1z"/>
	<path d="M48.5,453.9c-0.6,0-1.2-0.2-1.7-0.5c-0.5-0.3-0.9-0.7-1.2-1.3s-0.4-1.1-0.4-1.8V450c0-0.7,0.1-1.3,0.4-1.9s0.6-1,1.1-1.3
		c0.5-0.3,1-0.5,1.6-0.5c0.9,0,1.6,0.3,2.1,0.9c0.5,0.6,0.8,1.4,0.8,2.5v0.4h-5.2v0.2c0,0.8,0.2,1.5,0.7,2.1
		c0.5,0.5,1.1,0.8,1.8,0.8c0.4,0,0.8-0.1,1.1-0.2s0.6-0.4,0.9-0.7l0.5,0.4C50.5,453.4,49.7,453.9,48.5,453.9z M48.4,447
		c-0.6,0-1.1,0.2-1.5,0.7c-0.4,0.4-0.7,1-0.8,1.8h4.3v-0.1c0-0.7-0.2-1.3-0.6-1.7C49.5,447.3,49,447,48.4,447z"/>
	<path d="M53.6,446.5l0,1.2c0.3-0.4,0.6-0.8,1-1c0.4-0.2,0.9-0.4,1.3-0.4c0.8,0,1.4,0.2,1.7,0.7c0.4,0.4,0.6,1.1,0.6,2v4.8h-0.8V449
		c0-0.6-0.1-1.1-0.4-1.4c-0.3-0.3-0.7-0.5-1.3-0.5c-0.5,0-0.9,0.2-1.3,0.5c-0.4,0.3-0.7,0.7-0.8,1.3v5h-0.8v-7.2H53.6z"/>
	<path d="M61.6,443.5h1l-1.5,1.9l-0.7,0L61.6,443.5z M61.2,453.7h-0.8v-7.2h0.8V453.7z"/>
	<path d="M67.4,446.5l0,1.2c0.3-0.4,0.6-0.8,1-1s0.8-0.3,1.3-0.3c1.1,0,1.9,0.5,2.2,1.4c0.3-0.5,0.6-0.8,1-1
		c0.4-0.2,0.9-0.4,1.4-0.4c1.6,0,2.3,0.8,2.4,2.5v4.8H76V449c0-0.6-0.1-1.1-0.4-1.4s-0.7-0.5-1.3-0.5c-0.6,0-1.1,0.2-1.5,0.6
		c-0.4,0.4-0.6,0.8-0.7,1.3v4.8h-0.8v-4.8c0-0.6-0.2-1.1-0.4-1.4c-0.3-0.3-0.7-0.5-1.3-0.5c-0.5,0-0.9,0.1-1.3,0.4
		c-0.4,0.3-0.6,0.7-0.8,1.3v5h-0.8v-7.2H67.4z"/>
	<path d="M78.4,450c0-0.7,0.1-1.3,0.4-1.9c0.3-0.6,0.7-1,1.1-1.3c0.5-0.3,1.1-0.5,1.7-0.5c1,0,1.7,0.3,2.3,1s0.9,1.6,0.9,2.7v0.2
		c0,0.7-0.1,1.3-0.4,1.9c-0.3,0.6-0.6,1-1.1,1.3c-0.5,0.3-1,0.5-1.7,0.5c-1,0-1.7-0.3-2.3-1s-0.9-1.6-0.9-2.7V450z M79.2,450.2
		c0,0.9,0.2,1.6,0.7,2.1c0.4,0.6,1,0.8,1.8,0.8c0.7,0,1.3-0.3,1.8-0.8c0.4-0.6,0.7-1.3,0.7-2.2V450c0-0.6-0.1-1.1-0.3-1.5
		c-0.2-0.5-0.5-0.8-0.9-1.1s-0.8-0.4-1.3-0.4c-0.7,0-1.3,0.3-1.7,0.8c-0.5,0.6-0.7,1.3-0.7,2.2V450.2z"/>
	<path d="M87.3,447.7c0.3-0.4,0.6-0.8,1-1s0.9-0.4,1.3-0.4c0.8,0,1.4,0.2,1.7,0.7c0.4,0.4,0.6,1.1,0.6,2v4.8h-0.8V449
		c0-0.6-0.1-1.1-0.4-1.4c-0.3-0.3-0.7-0.5-1.3-0.5c-0.5,0-0.9,0.2-1.3,0.5c-0.4,0.3-0.7,0.7-0.8,1.3v5h-0.8v-10.3h0.8V447.7z"/>
	<path d="M94.9,453.7h-0.8v-10.3h0.8V453.7z"/>
	<path d="M101.7,453.7c-0.1-0.2-0.1-0.6-0.2-1c-0.3,0.4-0.6,0.6-1.1,0.8s-0.9,0.3-1.4,0.3c-0.7,0-1.3-0.2-1.7-0.6s-0.6-0.9-0.6-1.5
		c0-0.7,0.3-1.3,0.9-1.7c0.6-0.4,1.4-0.6,2.5-0.6h1.5v-0.8c0-0.5-0.2-0.9-0.5-1.2c-0.3-0.3-0.8-0.4-1.4-0.4c-0.6,0-1,0.1-1.4,0.4
		c-0.4,0.3-0.5,0.6-0.5,1l-0.8,0c0-0.6,0.3-1.1,0.8-1.5c0.5-0.4,1.2-0.6,2-0.6c0.8,0,1.4,0.2,1.9,0.6c0.5,0.4,0.7,1,0.7,1.7v3.4
		c0,0.7,0.1,1.2,0.2,1.6v0.1H101.7z M99.2,453.2c0.5,0,1-0.1,1.4-0.4c0.4-0.3,0.7-0.6,0.9-1v-1.6h-1.4c-0.8,0-1.4,0.2-1.9,0.4
		s-0.7,0.7-0.7,1.2c0,0.4,0.2,0.7,0.5,1C98.3,453,98.7,453.2,99.2,453.2z"/>
	<path d="M112.1,451.9c0-0.4-0.2-0.7-0.5-1c-0.3-0.2-0.8-0.4-1.4-0.6c-0.6-0.1-1.1-0.3-1.5-0.5c-0.4-0.2-0.6-0.4-0.8-0.6
		s-0.3-0.6-0.3-0.9c0-0.6,0.2-1,0.7-1.4c0.5-0.4,1.1-0.6,1.8-0.6c0.8,0,1.5,0.2,1.9,0.6s0.7,0.9,0.7,1.6h-0.8c0-0.4-0.2-0.8-0.5-1.1
		c-0.4-0.3-0.8-0.4-1.3-0.4c-0.5,0-0.9,0.1-1.3,0.4c-0.3,0.2-0.5,0.5-0.5,0.9c0,0.4,0.1,0.6,0.4,0.8s0.7,0.4,1.5,0.5
		c0.7,0.2,1.2,0.3,1.6,0.5c0.4,0.2,0.6,0.4,0.8,0.7c0.2,0.3,0.3,0.6,0.3,1c0,0.6-0.2,1.1-0.7,1.5c-0.5,0.4-1.1,0.5-1.9,0.5
		c-0.8,0-1.5-0.2-2-0.6c-0.5-0.4-0.8-0.9-0.8-1.5h0.8c0,0.5,0.2,0.8,0.6,1.1s0.8,0.4,1.4,0.4c0.6,0,1-0.1,1.4-0.4
		S112.1,452.3,112.1,451.9z"/>
	<path d="M117,452.6l2.2-6.1h0.8l-2.7,7.2h-0.6l-2.7-7.2h0.8L117,452.6z"/>
	<path d="M124,453.9c-0.6,0-1.2-0.2-1.7-0.5c-0.5-0.3-0.9-0.7-1.2-1.3s-0.4-1.1-0.4-1.8V450c0-0.7,0.1-1.3,0.4-1.9s0.6-1,1.1-1.3
		c0.5-0.3,1-0.5,1.6-0.5c0.9,0,1.6,0.3,2.1,0.9c0.5,0.6,0.8,1.4,0.8,2.5v0.4h-5.2v0.2c0,0.8,0.2,1.5,0.7,2.1
		c0.5,0.5,1.1,0.8,1.8,0.8c0.4,0,0.8-0.1,1.1-0.2s0.6-0.4,0.9-0.7l0.5,0.4C126,453.4,125.2,453.9,124,453.9z M123.9,447
		c-0.6,0-1.1,0.2-1.5,0.7c-0.4,0.4-0.7,1-0.8,1.8h4.3v-0.1c0-0.7-0.2-1.3-0.6-1.7C125,447.3,124.5,447,123.9,447z M124.8,443.5h1
		l-1.5,1.9l-0.7,0L124.8,443.5z"/>
	<path d="M134.4,453.9c-0.6,0-1.2-0.2-1.7-0.5c-0.5-0.3-0.9-0.7-1.2-1.3s-0.4-1.1-0.4-1.8V450c0-0.7,0.1-1.3,0.4-1.9s0.6-1,1.1-1.3
		c0.5-0.3,1-0.5,1.6-0.5c0.9,0,1.6,0.3,2.1,0.9c0.5,0.6,0.8,1.4,0.8,2.5v0.4H132v0.2c0,0.8,0.2,1.5,0.7,2.1c0.5,0.5,1.1,0.8,1.8,0.8
		c0.4,0,0.8-0.1,1.1-0.2s0.6-0.4,0.9-0.7l0.5,0.4C136.4,453.4,135.6,453.9,134.4,453.9z M134.3,447c-0.6,0-1.1,0.2-1.5,0.7
		c-0.4,0.4-0.7,1-0.8,1.8h4.3v-0.1c0-0.7-0.2-1.3-0.6-1.7C135.4,447.3,134.9,447,134.3,447z"/>
	<path d="M139.4,446.5l0,1.2c0.3-0.4,0.6-0.8,1-1s0.8-0.3,1.3-0.3c1.1,0,1.9,0.5,2.2,1.4c0.3-0.5,0.6-0.8,1-1
		c0.4-0.2,0.9-0.4,1.4-0.4c1.6,0,2.3,0.8,2.4,2.5v4.8H148V449c0-0.6-0.1-1.1-0.4-1.4s-0.7-0.5-1.3-0.5c-0.6,0-1.1,0.2-1.5,0.6
		c-0.4,0.4-0.6,0.8-0.7,1.3v4.8h-0.8v-4.8c0-0.6-0.2-1.1-0.4-1.4c-0.3-0.3-0.7-0.5-1.3-0.5c-0.5,0-0.9,0.1-1.3,0.4
		c-0.4,0.3-0.6,0.7-0.8,1.3v5h-0.8v-7.2H139.4z"/>
	<path d="M150.8,444.4c0-0.2,0-0.3,0.1-0.4c0.1-0.1,0.2-0.2,0.4-0.2c0.2,0,0.3,0.1,0.4,0.2s0.2,0.2,0.2,0.4c0,0.2,0,0.3-0.2,0.4
		c-0.1,0.1-0.2,0.2-0.4,0.2c-0.2,0-0.3-0.1-0.4-0.2C150.9,444.7,150.8,444.6,150.8,444.4z M151.8,453.7H151v-7.2h0.8V453.7z"/>
	<path d="M158.3,451.9c0-0.4-0.2-0.7-0.5-1c-0.3-0.2-0.8-0.4-1.4-0.6c-0.6-0.1-1.1-0.3-1.5-0.5c-0.4-0.2-0.6-0.4-0.8-0.6
		s-0.3-0.6-0.3-0.9c0-0.6,0.2-1,0.7-1.4c0.5-0.4,1.1-0.6,1.8-0.6c0.8,0,1.5,0.2,1.9,0.6s0.7,0.9,0.7,1.6h-0.8c0-0.4-0.2-0.8-0.5-1.1
		c-0.4-0.3-0.8-0.4-1.3-0.4c-0.5,0-0.9,0.1-1.3,0.4c-0.3,0.2-0.5,0.5-0.5,0.9c0,0.4,0.1,0.6,0.4,0.8s0.7,0.4,1.5,0.5
		c0.7,0.2,1.2,0.3,1.6,0.5c0.4,0.2,0.6,0.4,0.8,0.7c0.2,0.3,0.3,0.6,0.3,1c0,0.6-0.2,1.1-0.7,1.5c-0.5,0.4-1.1,0.5-1.9,0.5
		c-0.8,0-1.5-0.2-2-0.6c-0.5-0.4-0.8-0.9-0.8-1.5h0.8c0,0.5,0.2,0.8,0.6,1.1s0.8,0.4,1.4,0.4c0.6,0,1-0.1,1.4-0.4
		S158.3,452.3,158.3,451.9z"/>
	<path d="M163.7,453.9c-0.6,0-1.2-0.2-1.7-0.5c-0.5-0.3-0.9-0.7-1.2-1.3s-0.4-1.1-0.4-1.8V450c0-0.7,0.1-1.3,0.4-1.9s0.6-1,1.1-1.3
		c0.5-0.3,1-0.5,1.6-0.5c0.9,0,1.6,0.3,2.1,0.9c0.5,0.6,0.8,1.4,0.8,2.5v0.4h-5.2v0.2c0,0.8,0.2,1.5,0.7,2.1
		c0.5,0.5,1.1,0.8,1.8,0.8c0.4,0,0.8-0.1,1.1-0.2s0.6-0.4,0.9-0.7l0.5,0.4C165.6,453.4,164.8,453.9,163.7,453.9z M163.5,447
		c-0.6,0-1.1,0.2-1.5,0.7c-0.4,0.4-0.7,1-0.8,1.8h4.3v-0.1c0-0.7-0.2-1.3-0.6-1.7C164.6,447.3,164.1,447,163.5,447z"/>
	<path d="M177.1,450.2c0,1.1-0.2,2-0.7,2.7c-0.5,0.7-1.2,1-2,1c-1,0-1.7-0.3-2.3-1v3.7h-0.8v-10h0.7l0,1c0.5-0.8,1.3-1.2,2.3-1.2
		c0.9,0,1.5,0.3,2,1c0.5,0.7,0.7,1.6,0.7,2.7V450.2z M176.3,450.1c0-0.9-0.2-1.7-0.6-2.2s-0.9-0.8-1.6-0.8c-0.5,0-0.9,0.1-1.3,0.4
		c-0.4,0.2-0.6,0.6-0.8,1v3.5c0.2,0.4,0.5,0.7,0.8,0.9c0.4,0.2,0.8,0.3,1.3,0.3c0.7,0,1.2-0.3,1.6-0.8
		C176.1,451.9,176.3,451.1,176.3,450.1z"/>
	<path d="M178.4,450c0-0.7,0.1-1.3,0.4-1.9c0.3-0.6,0.7-1,1.1-1.3c0.5-0.3,1.1-0.5,1.7-0.5c1,0,1.7,0.3,2.3,1s0.9,1.6,0.9,2.7v0.2
		c0,0.7-0.1,1.3-0.4,1.9c-0.3,0.6-0.6,1-1.1,1.3c-0.5,0.3-1,0.5-1.7,0.5c-1,0-1.7-0.3-2.3-1s-0.9-1.6-0.9-2.7V450z M179.2,450.2
		c0,0.9,0.2,1.6,0.7,2.1c0.4,0.6,1,0.8,1.8,0.8c0.7,0,1.3-0.3,1.8-0.8c0.4-0.6,0.7-1.3,0.7-2.2V450c0-0.6-0.1-1.1-0.3-1.5
		c-0.2-0.5-0.5-0.8-0.9-1.1s-0.8-0.4-1.3-0.4c-0.7,0-1.3,0.3-1.7,0.8c-0.5,0.6-0.7,1.3-0.7,2.2V450.2z"/>
	<path d="M188.3,450.1l-0.9,0.9v2.8h-0.8v-10.3h0.8v6.6l0.8-0.8l2.8-2.7h1l-3.1,3.1l3.3,4.2h-1L188.3,450.1z"/>
	<path d="M196.6,447.2c-0.2,0-0.4,0-0.5,0c-0.5,0-0.9,0.1-1.3,0.4s-0.6,0.7-0.7,1.2v5h-0.8v-7.2h0.8l0,1.2c0.4-0.9,1.1-1.3,2-1.3
		c0.2,0,0.4,0,0.5,0.1L196.6,447.2z"/>
	<path d="M200.3,452.6l2.1-6.1h0.9l-3.1,8.5l-0.2,0.4c-0.4,0.9-1,1.3-1.8,1.3c-0.2,0-0.4,0-0.6-0.1l0-0.7l0.4,0c0.4,0,0.7-0.1,1-0.3
		c0.2-0.2,0.4-0.5,0.6-1l0.4-1l-2.7-7.2h0.9L200.3,452.6z M201.2,443.5h1l-1.5,1.9l-0.7,0L201.2,443.5z"/>
	<path d="M205.7,444.6v1.9h1.5v0.7h-1.5v4.8c0,0.4,0.1,0.7,0.2,0.9c0.1,0.2,0.4,0.3,0.7,0.3c0.1,0,0.3,0,0.6-0.1l0,0.6
		c-0.2,0.1-0.5,0.1-0.9,0.1c-0.5,0-0.9-0.2-1.2-0.5c-0.2-0.3-0.4-0.8-0.4-1.4v-4.8h-1.3v-0.7h1.3v-1.9H205.7z"/>
	<path d="M213.5,444.6v1.9h1.5v0.7h-1.5v4.8c0,0.4,0.1,0.7,0.2,0.9c0.1,0.2,0.4,0.3,0.7,0.3c0.1,0,0.3,0,0.6-0.1l0,0.6
		c-0.2,0.1-0.5,0.1-0.9,0.1c-0.5,0-0.9-0.2-1.2-0.5c-0.2-0.3-0.4-0.8-0.4-1.4v-4.8h-1.3v-0.7h1.3v-1.9H213.5z"/>
	<path d="M221.2,453.7c-0.1-0.2-0.1-0.6-0.2-1c-0.3,0.4-0.6,0.6-1.1,0.8s-0.9,0.3-1.4,0.3c-0.7,0-1.3-0.2-1.7-0.6s-0.6-0.9-0.6-1.5
		c0-0.7,0.3-1.3,0.9-1.7c0.6-0.4,1.4-0.6,2.5-0.6h1.5v-0.8c0-0.5-0.2-0.9-0.5-1.2c-0.3-0.3-0.8-0.4-1.4-0.4c-0.6,0-1,0.1-1.4,0.4
		c-0.4,0.3-0.5,0.6-0.5,1l-0.8,0c0-0.6,0.3-1.1,0.8-1.5c0.5-0.4,1.2-0.6,2-0.6c0.8,0,1.4,0.2,1.9,0.6c0.5,0.4,0.7,1,0.7,1.7v3.4
		c0,0.7,0.1,1.2,0.2,1.6v0.1H221.2z M218.7,453.2c0.5,0,1-0.1,1.4-0.4c0.4-0.3,0.7-0.6,0.9-1v-1.6h-1.4c-0.8,0-1.4,0.2-1.9,0.4
		s-0.7,0.7-0.7,1.2c0,0.4,0.2,0.7,0.5,1C217.8,453,218.2,453.2,218.7,453.2z"/>
	<path d="M225.7,450.1l-0.9,0.9v2.8H224v-10.3h0.8v6.6l0.8-0.8l2.8-2.7h1l-3.1,3.1l3.3,4.2h-1L225.7,450.1z"/>
	<path d="M233.3,453.9c-0.6,0-1.2-0.2-1.7-0.5c-0.5-0.3-0.9-0.7-1.2-1.3s-0.4-1.1-0.4-1.8V450c0-0.7,0.1-1.3,0.4-1.9s0.6-1,1.1-1.3
		c0.5-0.3,1-0.5,1.6-0.5c0.9,0,1.6,0.3,2.1,0.9c0.5,0.6,0.8,1.4,0.8,2.5v0.4h-5.2v0.2c0,0.8,0.2,1.5,0.7,2.1
		c0.5,0.5,1.1,0.8,1.8,0.8c0.4,0,0.8-0.1,1.1-0.2s0.6-0.4,0.9-0.7l0.5,0.4C235.3,453.4,234.5,453.9,233.3,453.9z M233.2,447
		c-0.6,0-1.1,0.2-1.5,0.7c-0.4,0.4-0.7,1-0.8,1.8h4.3v-0.1c0-0.7-0.2-1.3-0.6-1.7C234.3,447.3,233.8,447,233.2,447z M234.1,443.5h1
		l-1.5,1.9l-0.7,0L234.1,443.5z"/>
	<path d="M241.7,446.5l0,1.2c0.3-0.4,0.6-0.8,1-1s0.8-0.3,1.3-0.3c1.1,0,1.9,0.5,2.2,1.4c0.3-0.5,0.6-0.8,1-1
		c0.4-0.2,0.9-0.4,1.4-0.4c1.6,0,2.3,0.8,2.4,2.5v4.8h-0.8V449c0-0.6-0.1-1.1-0.4-1.4s-0.7-0.5-1.3-0.5c-0.6,0-1.1,0.2-1.5,0.6
		c-0.4,0.4-0.6,0.8-0.7,1.3v4.8h-0.8v-4.8c0-0.6-0.2-1.1-0.4-1.4c-0.3-0.3-0.7-0.5-1.3-0.5c-0.5,0-0.9,0.1-1.3,0.4
		c-0.4,0.3-0.6,0.7-0.8,1.3v5h-0.8v-7.2H241.7z"/>
	<path d="M255.9,453.9c-0.6,0-1.2-0.2-1.7-0.5c-0.5-0.3-0.9-0.7-1.2-1.3s-0.4-1.1-0.4-1.8V450c0-0.7,0.1-1.3,0.4-1.9s0.6-1,1.1-1.3
		c0.5-0.3,1-0.5,1.6-0.5c0.9,0,1.6,0.3,2.1,0.9c0.5,0.6,0.8,1.4,0.8,2.5v0.4h-5.2v0.2c0,0.8,0.2,1.5,0.7,2.1
		c0.5,0.5,1.1,0.8,1.8,0.8c0.4,0,0.8-0.1,1.1-0.2s0.6-0.4,0.9-0.7l0.5,0.4C257.9,453.4,257,453.9,255.9,453.9z M255.7,447
		c-0.6,0-1.1,0.2-1.5,0.7c-0.4,0.4-0.7,1-0.8,1.8h4.3v-0.1c0-0.7-0.2-1.3-0.6-1.7C256.8,447.3,256.3,447,255.7,447z"/>
	<path d="M260.7,453.1h4.7v0.7h-5.7v-0.6l4.4-6h-4.3v-0.7h5.3v0.6L260.7,453.1z"/>
	<path d="M266.8,444.4c0-0.2,0-0.3,0.1-0.4c0.1-0.1,0.2-0.2,0.4-0.2c0.2,0,0.3,0.1,0.4,0.2s0.2,0.2,0.2,0.4c0,0.2,0,0.3-0.2,0.4
		c-0.1,0.1-0.2,0.2-0.4,0.2c-0.2,0-0.3-0.1-0.4-0.2C266.8,444.7,266.8,444.6,266.8,444.4z M267.7,453.7h-0.8v-7.2h0.8V453.7z"/>
	<path d="M270.7,446.5l0,1.2c0.3-0.4,0.6-0.8,1-1c0.4-0.2,0.9-0.4,1.3-0.4c0.8,0,1.4,0.2,1.7,0.7c0.4,0.4,0.6,1.1,0.6,2v4.8h-0.8
		V449c0-0.6-0.1-1.1-0.4-1.4c-0.3-0.3-0.7-0.5-1.3-0.5c-0.5,0-0.9,0.2-1.3,0.5c-0.4,0.3-0.7,0.7-0.8,1.3v5h-0.8v-7.2H270.7z"/>
	<path d="M282,453.7c-0.1-0.2-0.1-0.6-0.2-1c-0.3,0.4-0.6,0.6-1.1,0.8s-0.9,0.3-1.4,0.3c-0.7,0-1.3-0.2-1.7-0.6s-0.6-0.9-0.6-1.5
		c0-0.7,0.3-1.3,0.9-1.7c0.6-0.4,1.4-0.6,2.5-0.6h1.5v-0.8c0-0.5-0.2-0.9-0.5-1.2c-0.3-0.3-0.8-0.4-1.4-0.4c-0.6,0-1,0.1-1.4,0.4
		c-0.4,0.3-0.5,0.6-0.5,1l-0.8,0c0-0.6,0.3-1.1,0.8-1.5c0.5-0.4,1.2-0.6,2-0.6c0.8,0,1.4,0.2,1.9,0.6c0.5,0.4,0.7,1,0.7,1.7v3.4
		c0,0.7,0.1,1.2,0.2,1.6v0.1H282z M279.5,453.2c0.5,0,1-0.1,1.4-0.4c0.4-0.3,0.7-0.6,0.9-1v-1.6h-1.4c-0.8,0-1.4,0.2-1.9,0.4
		s-0.7,0.7-0.7,1.2c0,0.4,0.2,0.7,0.5,1C278.6,453,279,453.2,279.5,453.2z M281.1,443.5h1l-1.5,1.9l-0.7,0L281.1,443.5z"/>
	<path d="M288.1,447.2c-0.2,0-0.4,0-0.5,0c-0.5,0-0.9,0.1-1.3,0.4s-0.6,0.7-0.7,1.2v5h-0.8v-7.2h0.8l0,1.2c0.4-0.9,1.1-1.3,2-1.3
		c0.2,0,0.4,0,0.5,0.1L288.1,447.2z"/>
	<path d="M288.8,450c0-0.7,0.1-1.3,0.4-1.9c0.3-0.6,0.7-1,1.1-1.3c0.5-0.3,1.1-0.5,1.7-0.5c1,0,1.7,0.3,2.3,1s0.9,1.6,0.9,2.7v0.2
		c0,0.7-0.1,1.3-0.4,1.9c-0.3,0.6-0.6,1-1.1,1.3c-0.5,0.3-1,0.5-1.7,0.5c-1,0-1.7-0.3-2.3-1s-0.9-1.6-0.9-2.7V450z M289.6,450.2
		c0,0.9,0.2,1.6,0.7,2.1c0.4,0.6,1,0.8,1.8,0.8c0.7,0,1.3-0.3,1.8-0.8c0.4-0.6,0.7-1.3,0.7-2.2V450c0-0.6-0.1-1.1-0.3-1.5
		c-0.2-0.5-0.5-0.8-0.9-1.1s-0.8-0.4-1.3-0.4c-0.7,0-1.3,0.3-1.7,0.8c-0.5,0.6-0.7,1.3-0.7,2.2V450.2z"/>
	<path d="M296.6,450.1c0-1.1,0.3-2,0.8-2.7c0.5-0.7,1.2-1,2-1c1,0,1.7,0.4,2.2,1.2v-4.1h0.8v10.3h-0.7l0-1c-0.5,0.7-1.3,1.1-2.3,1.1
		c-0.8,0-1.5-0.3-2-1S296.6,451.3,296.6,450.1L296.6,450.1z M297.4,450.2c0,0.9,0.2,1.7,0.6,2.2s0.9,0.8,1.6,0.8
		c1,0,1.7-0.4,2.1-1.3v-3.4c-0.4-0.9-1.1-1.4-2.1-1.4c-0.7,0-1.2,0.3-1.6,0.8S297.4,449.2,297.4,450.2z"/>
	<path d="M305.3,446.5l0,1.2c0.3-0.4,0.6-0.8,1-1c0.4-0.2,0.9-0.4,1.3-0.4c0.8,0,1.4,0.2,1.7,0.7c0.4,0.4,0.6,1.1,0.6,2v4.8h-0.8
		V449c0-0.6-0.1-1.1-0.4-1.4c-0.3-0.3-0.7-0.5-1.3-0.5c-0.5,0-0.9,0.2-1.3,0.5c-0.4,0.3-0.7,0.7-0.8,1.3v5h-0.8v-7.2H305.3z"/>
	<path d="M313.3,443.5h1l-1.5,1.9l-0.7,0L313.3,443.5z M312.9,453.7h-0.8v-7.2h0.8V453.7z"/>
	<path d="M315.8,446.5l0,1.2c0.3-0.4,0.6-0.8,1-1s0.8-0.3,1.3-0.3c1.1,0,1.9,0.5,2.2,1.4c0.3-0.5,0.6-0.8,1-1
		c0.4-0.2,0.9-0.4,1.4-0.4c1.6,0,2.3,0.8,2.4,2.5v4.8h-0.8V449c0-0.6-0.1-1.1-0.4-1.4s-0.7-0.5-1.3-0.5c-0.6,0-1.1,0.2-1.5,0.6
		c-0.4,0.4-0.6,0.8-0.7,1.3v4.8h-0.8v-4.8c0-0.6-0.2-1.1-0.4-1.4c-0.3-0.3-0.7-0.5-1.3-0.5c-0.5,0-0.9,0.1-1.3,0.4
		c-0.4,0.3-0.6,0.7-0.8,1.3v5h-0.8v-7.2H315.8z"/>
	<path d="M327.2,444.4c0-0.2,0-0.3,0.1-0.4c0.1-0.1,0.2-0.2,0.4-0.2c0.2,0,0.3,0.1,0.4,0.2s0.2,0.2,0.2,0.4c0,0.2,0,0.3-0.2,0.4
		c-0.1,0.1-0.2,0.2-0.4,0.2c-0.2,0-0.3-0.1-0.4-0.2C327.2,444.7,327.2,444.6,327.2,444.4z M328.1,453.7h-0.8v-7.2h0.8V453.7z"/>
	<path d="M335.4,450.1l-0.9,0.9v2.8h-0.8v-10.3h0.8v6.6l0.8-0.8l2.8-2.7h1l-3.1,3.1l3.3,4.2h-1L335.4,450.1z"/>
	<path d="M343.7,447.2c-0.2,0-0.4,0-0.5,0c-0.5,0-0.9,0.1-1.3,0.4s-0.6,0.7-0.7,1.2v5h-0.8v-7.2h0.8l0,1.2c0.4-0.9,1.1-1.3,2-1.3
		c0.2,0,0.4,0,0.5,0.1L343.7,447.2z"/>
	<path d="M347.6,453.9c-0.6,0-1.2-0.2-1.7-0.5c-0.5-0.3-0.9-0.7-1.2-1.3s-0.4-1.1-0.4-1.8V450c0-0.7,0.1-1.3,0.4-1.9s0.6-1,1.1-1.3
		c0.5-0.3,1-0.5,1.6-0.5c0.9,0,1.6,0.3,2.1,0.9c0.5,0.6,0.8,1.4,0.8,2.5v0.4h-5.2v0.2c0,0.8,0.2,1.5,0.7,2.1
		c0.5,0.5,1.1,0.8,1.8,0.8c0.4,0,0.8-0.1,1.1-0.2s0.6-0.4,0.9-0.7l0.5,0.4C349.6,453.4,348.8,453.9,347.6,453.9z M347.5,447
		c-0.6,0-1.1,0.2-1.5,0.7c-0.4,0.4-0.7,1-0.8,1.8h4.3v-0.1c0-0.7-0.2-1.3-0.6-1.7C348.6,447.3,348.1,447,347.5,447z"/>
	<path d="M351.6,450.1c0-1.1,0.3-2,0.8-2.7c0.5-0.7,1.2-1,2-1c1,0,1.7,0.4,2.2,1.2v-4.1h0.8v10.3h-0.7l0-1c-0.5,0.7-1.3,1.1-2.3,1.1
		c-0.8,0-1.5-0.3-2-1S351.6,451.3,351.6,450.1L351.6,450.1z M352.4,450.2c0,0.9,0.2,1.7,0.6,2.2s0.9,0.8,1.6,0.8
		c1,0,1.7-0.4,2.1-1.3v-3.4c-0.4-0.9-1.1-1.4-2.1-1.4c-0.7,0-1.2,0.3-1.6,0.8S352.4,449.2,352.4,450.2z"/>
	<path d="M359.5,444.4c0-0.2,0-0.3,0.1-0.4c0.1-0.1,0.2-0.2,0.4-0.2c0.2,0,0.3,0.1,0.4,0.2s0.2,0.2,0.2,0.4c0,0.2,0,0.3-0.2,0.4
		c-0.1,0.1-0.2,0.2-0.4,0.2c-0.2,0-0.3-0.1-0.4-0.2C359.5,444.7,359.5,444.6,359.5,444.4z M360.4,453.7h-0.8v-7.2h0.8V453.7z"/>
	<path d="M363.8,444.6v1.9h1.5v0.7h-1.5v4.8c0,0.4,0.1,0.7,0.2,0.9c0.1,0.2,0.4,0.3,0.7,0.3c0.1,0,0.3,0,0.6-0.1l0,0.6
		c-0.2,0.1-0.5,0.1-0.9,0.1c-0.5,0-0.9-0.2-1.2-0.5c-0.2-0.3-0.4-0.8-0.4-1.4v-4.8h-1.3v-0.7h1.3v-1.9H363.8z"/>
	<path d="M369.3,452.6l2.1-6.1h0.9l-3.1,8.5l-0.2,0.4c-0.4,0.9-1,1.3-1.8,1.3c-0.2,0-0.4,0-0.6-0.1l0-0.7l0.4,0c0.4,0,0.7-0.1,1-0.3
		c0.2-0.2,0.4-0.5,0.6-1l0.4-1l-2.7-7.2h0.9L369.3,452.6z"/>
	<path d="M382.7,450.2c0,1.1-0.2,2-0.8,2.7c-0.5,0.7-1.2,1-2,1c-1,0-1.7-0.3-2.3-1v3.7h-0.8v-10h0.7l0,1c0.5-0.8,1.3-1.2,2.3-1.2
		c0.9,0,1.5,0.3,2,1c0.5,0.7,0.7,1.6,0.7,2.7V450.2z M381.9,450.1c0-0.9-0.2-1.7-0.6-2.2s-0.9-0.8-1.6-0.8c-0.5,0-0.9,0.1-1.3,0.4
		c-0.4,0.2-0.6,0.6-0.8,1v3.5c0.2,0.4,0.5,0.7,0.8,0.9c0.4,0.2,0.8,0.3,1.3,0.3c0.7,0,1.2-0.3,1.6-0.8
		C381.7,451.9,381.9,451.1,381.9,450.1z"/>
	<path d="M384,450c0-0.7,0.1-1.3,0.4-1.9c0.3-0.6,0.7-1,1.1-1.3c0.5-0.3,1.1-0.5,1.7-0.5c1,0,1.7,0.3,2.3,1s0.9,1.6,0.9,2.7v0.2
		c0,0.7-0.1,1.3-0.4,1.9c-0.3,0.6-0.7,1-1.1,1.3s-1.1,0.5-1.7,0.5c-1,0-1.7-0.3-2.3-1s-0.9-1.6-0.9-2.7V450z M384.8,450.2
		c0,0.9,0.2,1.6,0.7,2.1c0.4,0.6,1,0.8,1.8,0.8c0.7,0,1.3-0.3,1.8-0.8c0.4-0.6,0.7-1.3,0.7-2.2V450c0-0.6-0.1-1.1-0.3-1.5
		c-0.2-0.5-0.5-0.8-0.9-1.1c-0.4-0.3-0.8-0.4-1.3-0.4c-0.7,0-1.3,0.3-1.7,0.8c-0.4,0.6-0.7,1.3-0.7,2.2V450.2z"/>
	<path d="M391.8,450.1c0-1.1,0.2-2,0.8-2.7s1.2-1,2-1c1,0,1.7,0.4,2.2,1.2v-4.1h0.8v10.3h-0.8l0-1c-0.5,0.7-1.3,1.1-2.3,1.1
		c-0.8,0-1.5-0.3-2-1C392,452.2,391.8,451.3,391.8,450.1L391.8,450.1z M392.6,450.2c0,0.9,0.2,1.7,0.6,2.2c0.4,0.5,0.9,0.8,1.6,0.8
		c1,0,1.7-0.4,2.1-1.3v-3.4c-0.4-0.9-1.1-1.4-2.1-1.4c-0.7,0-1.2,0.3-1.6,0.8S392.6,449.2,392.6,450.2z"/>
	<path d="M400.6,453.7h-0.8v-10.3h0.8V453.7z"/>
	<path d="M405.6,453.9c-0.6,0-1.2-0.2-1.7-0.5s-0.9-0.7-1.2-1.3c-0.3-0.5-0.4-1.1-0.4-1.8V450c0-0.7,0.1-1.3,0.4-1.9s0.6-1,1.1-1.3
		c0.5-0.3,1-0.5,1.6-0.5c0.9,0,1.6,0.3,2.1,0.9c0.5,0.6,0.8,1.4,0.8,2.5v0.4h-5.2v0.2c0,0.8,0.2,1.5,0.7,2.1
		c0.5,0.5,1.1,0.8,1.8,0.8c0.4,0,0.8-0.1,1.1-0.2s0.6-0.4,0.9-0.7l0.5,0.4C407.6,453.4,406.7,453.9,405.6,453.9z M405.4,447
		c-0.6,0-1.1,0.2-1.5,0.7s-0.7,1-0.8,1.8h4.3v-0.1c0-0.7-0.2-1.3-0.6-1.7C406.5,447.3,406,447,405.4,447z"/>
	<path d="M415.6,448.9l-1.4,1.4v3.5h-0.8V444h0.8v5.3l5-5.3h1l-4.1,4.3l4.4,5.4h-1L415.6,448.9z"/>
	<path d="M422.7,446.5v8.1c0,0.7-0.2,1.2-0.5,1.5c-0.3,0.4-0.8,0.5-1.4,0.5c-0.2,0-0.5,0-0.7-0.1l0-0.7c0.2,0.1,0.4,0.1,0.6,0.1
		c0.8,0,1.2-0.5,1.2-1.4v-8.1H422.7z M422.3,443.9c0.2,0,0.3,0.1,0.4,0.2c0.1,0.1,0.1,0.2,0.1,0.4c0,0.2,0,0.3-0.1,0.4
		c-0.1,0.1-0.2,0.2-0.4,0.2c-0.2,0-0.3-0.1-0.4-0.2c-0.1-0.1-0.1-0.2-0.1-0.4c0-0.2,0-0.3,0.1-0.4S422.1,443.9,422.3,443.9z"/>
	<path d="M424.5,450c0-0.7,0.1-1.3,0.4-1.9c0.3-0.6,0.7-1,1.1-1.3c0.5-0.3,1.1-0.5,1.7-0.5c1,0,1.7,0.3,2.3,1s0.9,1.6,0.9,2.7v0.2
		c0,0.7-0.1,1.3-0.4,1.9c-0.3,0.6-0.7,1-1.1,1.3s-1.1,0.5-1.7,0.5c-1,0-1.7-0.3-2.3-1s-0.9-1.6-0.9-2.7V450z M425.3,450.2
		c0,0.9,0.2,1.6,0.7,2.1c0.4,0.6,1,0.8,1.8,0.8c0.7,0,1.3-0.3,1.8-0.8c0.4-0.6,0.7-1.3,0.7-2.2V450c0-0.6-0.1-1.1-0.3-1.5
		c-0.2-0.5-0.5-0.8-0.9-1.1c-0.4-0.3-0.8-0.4-1.3-0.4c-0.7,0-1.3,0.3-1.7,0.8c-0.4,0.6-0.7,1.3-0.7,2.2V450.2z M428.5,443.5h1
		l-1.5,1.9l-0.7,0L428.5,443.5z"/>
	<path d="M433.9,444.6v1.9h1.5v0.7h-1.5v4.8c0,0.4,0.1,0.7,0.2,0.9c0.1,0.2,0.4,0.3,0.7,0.3c0.1,0,0.3,0,0.6-0.1l0,0.6
		c-0.2,0.1-0.5,0.1-0.9,0.1c-0.5,0-0.9-0.2-1.2-0.5c-0.2-0.3-0.4-0.8-0.4-1.4v-4.8h-1.3v-0.7h1.3v-1.9H433.9z"/>
	<path d="M441.4,451.9c0-0.4-0.2-0.7-0.5-1c-0.3-0.2-0.8-0.4-1.4-0.6c-0.6-0.1-1.1-0.3-1.5-0.5c-0.4-0.2-0.6-0.4-0.8-0.6
		s-0.3-0.6-0.3-0.9c0-0.6,0.2-1,0.7-1.4s1.1-0.6,1.8-0.6c0.8,0,1.5,0.2,1.9,0.6s0.7,0.9,0.7,1.6h-0.8c0-0.4-0.2-0.8-0.5-1.1
		c-0.4-0.3-0.8-0.4-1.3-0.4c-0.5,0-0.9,0.1-1.3,0.4c-0.3,0.2-0.5,0.5-0.5,0.9c0,0.4,0.1,0.6,0.4,0.8s0.8,0.4,1.5,0.5
		c0.7,0.2,1.2,0.3,1.6,0.5c0.3,0.2,0.6,0.4,0.8,0.7c0.2,0.3,0.3,0.6,0.3,1c0,0.6-0.2,1.1-0.7,1.5c-0.5,0.4-1.1,0.5-1.9,0.5
		c-0.8,0-1.5-0.2-2-0.6c-0.5-0.4-0.8-0.9-0.8-1.5h0.8c0,0.5,0.2,0.8,0.6,1.1s0.8,0.4,1.4,0.4c0.6,0,1-0.1,1.4-0.4
		S441.4,452.3,441.4,451.9z"/>
	<path d="M445.7,450.1l-0.9,0.9v2.8H444v-10.3h0.8v6.6l0.8-0.8l2.8-2.7h1l-3.1,3.1l3.3,4.2h-1L445.7,450.1z"/>
	<path d="M453.3,453.9c-0.6,0-1.2-0.2-1.7-0.5c-0.5-0.3-0.9-0.7-1.2-1.3c-0.3-0.5-0.4-1.1-0.4-1.8V450c0-0.7,0.1-1.3,0.4-1.9
		s0.6-1,1.1-1.3c0.5-0.3,1-0.5,1.6-0.5c0.9,0,1.6,0.3,2.1,0.9c0.5,0.6,0.8,1.4,0.8,2.5v0.4h-5.2v0.2c0,0.8,0.2,1.5,0.7,2.1
		c0.5,0.5,1.1,0.8,1.8,0.8c0.4,0,0.8-0.1,1.1-0.2s0.6-0.4,0.9-0.7l0.5,0.4C455.3,453.4,454.5,453.9,453.3,453.9z M453.2,447
		c-0.6,0-1.1,0.2-1.5,0.7c-0.4,0.4-0.7,1-0.8,1.8h4.3v-0.1c0-0.7-0.2-1.3-0.6-1.7C454.3,447.3,453.8,447,453.2,447z M454.1,443.5h1
		l-1.5,1.9l-0.7,0L454.1,443.5z"/>
	<path d="M458.4,447.7c0.3-0.4,0.6-0.8,1-1s0.9-0.4,1.3-0.4c0.8,0,1.4,0.2,1.7,0.7c0.4,0.4,0.6,1.1,0.6,2v4.8h-0.8V449
		c0-0.6-0.1-1.1-0.4-1.4c-0.3-0.3-0.7-0.5-1.3-0.5c-0.5,0-0.9,0.2-1.3,0.5c-0.4,0.3-0.7,0.7-0.8,1.3v5h-0.8v-10.3h0.8V447.7z"/>
	<path d="M464.7,450c0-0.7,0.1-1.3,0.4-1.9c0.3-0.6,0.7-1,1.1-1.3c0.5-0.3,1.1-0.5,1.7-0.5c1,0,1.7,0.3,2.3,1s0.9,1.6,0.9,2.7v0.2
		c0,0.7-0.1,1.3-0.4,1.9c-0.3,0.6-0.7,1-1.1,1.3s-1.1,0.5-1.7,0.5c-1,0-1.7-0.3-2.3-1s-0.9-1.6-0.9-2.7V450z M465.5,450.2
		c0,0.9,0.2,1.6,0.7,2.1c0.4,0.6,1,0.8,1.8,0.8c0.7,0,1.3-0.3,1.8-0.8c0.4-0.6,0.7-1.3,0.7-2.2V450c0-0.6-0.1-1.1-0.3-1.5
		c-0.2-0.5-0.5-0.8-0.9-1.1c-0.4-0.3-0.8-0.4-1.3-0.4c-0.7,0-1.3,0.3-1.7,0.8c-0.4,0.6-0.7,1.3-0.7,2.2V450.2z"/>
	<path d="M482,450.2c0,1.1-0.2,2-0.7,2.7c-0.5,0.7-1.2,1-2,1c-1,0-1.7-0.3-2.3-1v3.7h-0.8v-10h0.7l0,1c0.5-0.8,1.3-1.2,2.3-1.2
		c0.9,0,1.5,0.3,2,1s0.7,1.6,0.7,2.7V450.2z M481.2,450.1c0-0.9-0.2-1.7-0.6-2.2s-0.9-0.8-1.6-0.8c-0.5,0-0.9,0.1-1.3,0.4
		s-0.6,0.6-0.8,1v3.5c0.2,0.4,0.5,0.7,0.8,0.9c0.4,0.2,0.8,0.3,1.3,0.3c0.7,0,1.2-0.3,1.6-0.8C481,451.9,481.2,451.1,481.2,450.1z"
		/>
	<path d="M487.1,447.2c-0.2,0-0.4,0-0.5,0c-0.5,0-0.9,0.1-1.3,0.4s-0.6,0.7-0.7,1.2v5h-0.8v-7.2h0.8l0,1.2c0.4-0.9,1.1-1.3,2-1.3
		c0.2,0,0.4,0,0.5,0.1L487.1,447.2z"/>
	<path d="M487.8,450c0-0.7,0.1-1.3,0.4-1.9c0.3-0.6,0.7-1,1.1-1.3c0.5-0.3,1.1-0.5,1.7-0.5c1,0,1.7,0.3,2.3,1s0.9,1.6,0.9,2.7v0.2
		c0,0.7-0.1,1.3-0.4,1.9c-0.3,0.6-0.7,1-1.1,1.3s-1.1,0.5-1.7,0.5c-1,0-1.7-0.3-2.3-1s-0.9-1.6-0.9-2.7V450z M488.6,450.2
		c0,0.9,0.2,1.6,0.7,2.1c0.4,0.6,1,0.8,1.8,0.8c0.7,0,1.3-0.3,1.8-0.8c0.4-0.6,0.7-1.3,0.7-2.2V450c0-0.6-0.1-1.1-0.3-1.5
		c-0.2-0.5-0.5-0.8-0.9-1.1c-0.4-0.3-0.8-0.4-1.3-0.4c-0.7,0-1.3,0.3-1.7,0.8c-0.4,0.6-0.7,1.3-0.7,2.2V450.2z"/>
	<path d="M497.1,444.6v1.9h1.5v0.7h-1.5v4.8c0,0.4,0.1,0.7,0.2,0.9c0.1,0.2,0.4,0.3,0.7,0.3c0.1,0,0.3,0,0.6-0.1l0,0.6
		c-0.2,0.1-0.5,0.1-0.9,0.1c-0.5,0-0.9-0.2-1.2-0.5c-0.2-0.3-0.4-0.8-0.4-1.4v-4.8H495v-0.7h1.3v-1.9H497.1z"/>
	<path d="M499.7,450c0-0.7,0.1-1.3,0.4-1.9c0.3-0.6,0.7-1,1.1-1.3c0.5-0.3,1.1-0.5,1.7-0.5c1,0,1.7,0.3,2.3,1s0.9,1.6,0.9,2.7v0.2
		c0,0.7-0.1,1.3-0.4,1.9c-0.3,0.6-0.6,1-1.1,1.3c-0.5,0.3-1,0.5-1.7,0.5c-1,0-1.7-0.3-2.3-1s-0.9-1.6-0.9-2.7V450z M500.5,450.2
		c0,0.9,0.2,1.6,0.7,2.1c0.4,0.6,1,0.8,1.8,0.8c0.7,0,1.3-0.3,1.8-0.8c0.4-0.6,0.7-1.3,0.7-2.2V450c0-0.6-0.1-1.1-0.3-1.5
		c-0.2-0.5-0.5-0.8-0.9-1.1c-0.4-0.3-0.8-0.4-1.3-0.4c-0.7,0-1.3,0.3-1.7,0.8c-0.5,0.6-0.7,1.3-0.7,2.2V450.2z"/>
	<path d="M509.5,450.1l-0.9,0.9v2.8h-0.8v-10.3h0.8v6.6l0.8-0.8l2.8-2.7h1l-3.1,3.1l3.3,4.2h-1L509.5,450.1z"/>
	<path d="M514.1,450c0-0.7,0.1-1.3,0.4-1.9c0.3-0.6,0.7-1,1.1-1.3c0.5-0.3,1.1-0.5,1.7-0.5c1,0,1.7,0.3,2.3,1s0.9,1.6,0.9,2.7v0.2
		c0,0.7-0.1,1.3-0.4,1.9c-0.3,0.6-0.7,1-1.1,1.3s-1.1,0.5-1.7,0.5c-1,0-1.7-0.3-2.3-1s-0.9-1.6-0.9-2.7V450z M514.9,450.2
		c0,0.9,0.2,1.6,0.7,2.1c0.4,0.6,1,0.8,1.8,0.8c0.7,0,1.3-0.3,1.8-0.8c0.4-0.6,0.7-1.3,0.7-2.2V450c0-0.6-0.1-1.1-0.3-1.5
		c-0.2-0.5-0.5-0.8-0.9-1.1c-0.4-0.3-0.8-0.4-1.3-0.4c-0.7,0-1.3,0.3-1.7,0.8c-0.4,0.6-0.7,1.3-0.7,2.2V450.2z"/>
	<path d="M523.1,453.7h-0.8v-10.3h0.8V453.7z"/>
	<path d="M529.9,452.8c-0.5,0.7-1.3,1.1-2.3,1.1c-0.8,0-1.4-0.2-1.8-0.7c-0.4-0.4-0.6-1.1-0.6-2v-4.7h0.8v4.6c0,1.4,0.6,2.1,1.7,2.1
		c1.2,0,1.9-0.5,2.2-1.4v-5.2h0.8v7.2h-0.8L529.9,452.8z"/>
	<path d="M532.6,455.6l-0.5-0.3c0.4-0.5,0.6-1.1,0.6-1.7v-1h0.8v0.8C533.6,454.2,533.3,455,532.6,455.6z"/>
	<path d="M540.5,450.1l-0.9,0.9v2.8h-0.8v-10.3h0.8v6.6l0.8-0.8l2.8-2.7h1l-3.1,3.1l3.3,4.2h-1L540.5,450.1z"/>
	<path d="M546.7,444.6v1.9h1.5v0.7h-1.5v4.8c0,0.4,0.1,0.7,0.2,0.9c0.1,0.2,0.4,0.3,0.7,0.3c0.1,0,0.3,0,0.6-0.1l0,0.6
		c-0.2,0.1-0.5,0.1-0.9,0.1c-0.5,0-0.9-0.2-1.2-0.5c-0.2-0.3-0.4-0.8-0.4-1.4v-4.8h-1.3v-0.7h1.3v-1.9H546.7z"/>
	<path d="M552.7,453.9c-0.6,0-1.2-0.2-1.7-0.5s-0.9-0.7-1.2-1.3c-0.3-0.5-0.4-1.1-0.4-1.8V450c0-0.7,0.1-1.3,0.4-1.9s0.6-1,1.1-1.3
		c0.5-0.3,1-0.5,1.6-0.5c0.9,0,1.6,0.3,2.1,0.9c0.5,0.6,0.8,1.4,0.8,2.5v0.4h-5.2v0.2c0,0.8,0.2,1.5,0.7,2.1
		c0.5,0.5,1.1,0.8,1.8,0.8c0.4,0,0.8-0.1,1.1-0.2s0.6-0.4,0.9-0.7l0.5,0.4C554.6,453.4,553.8,453.9,552.7,453.9z M552.5,447
		c-0.6,0-1.1,0.2-1.5,0.7s-0.7,1-0.8,1.8h4.3v-0.1c0-0.7-0.2-1.3-0.6-1.7C553.6,447.3,553.1,447,552.5,447z"/>
	<path d="M560.3,447.2c-0.2,0-0.4,0-0.5,0c-0.5,0-0.9,0.1-1.3,0.4s-0.6,0.7-0.7,1.2v5h-0.8v-7.2h0.8l0,1.2c0.4-0.9,1.1-1.3,2-1.3
		c0.2,0,0.4,0,0.5,0.1L560.3,447.2z"/>
	<path d="M564.2,453.9c-0.6,0-1.2-0.2-1.7-0.5c-0.5-0.3-0.9-0.7-1.2-1.3c-0.3-0.5-0.4-1.1-0.4-1.8V450c0-0.7,0.1-1.3,0.4-1.9
		s0.6-1,1.1-1.3c0.5-0.3,1-0.5,1.6-0.5c0.9,0,1.6,0.3,2.1,0.9c0.5,0.6,0.8,1.4,0.8,2.5v0.4h-5.2v0.2c0,0.8,0.2,1.5,0.7,2.1
		c0.5,0.5,1.1,0.8,1.8,0.8c0.4,0,0.8-0.1,1.1-0.2s0.6-0.4,0.9-0.7l0.5,0.4C566.2,453.4,565.4,453.9,564.2,453.9z M564.1,447
		c-0.6,0-1.1,0.2-1.5,0.7c-0.4,0.4-0.7,1-0.8,1.8h4.3v-0.1c0-0.7-0.2-1.3-0.6-1.7C565.2,447.3,564.7,447,564.1,447z M565,443.5h1
		l-1.5,1.9l-0.7,0L565,443.5z"/>
	<path d="M572.6,446.5l0,1.2c0.3-0.4,0.6-0.8,1-1c0.4-0.2,0.9-0.4,1.3-0.4c0.8,0,1.4,0.2,1.7,0.7c0.4,0.4,0.6,1.1,0.6,2v4.8h-0.8
		V449c0-0.6-0.1-1.1-0.4-1.4c-0.3-0.3-0.7-0.5-1.3-0.5c-0.5,0-0.9,0.2-1.3,0.5c-0.4,0.3-0.7,0.7-0.8,1.3v5h-0.8v-7.2H572.6z"/>
	<path d="M582.2,453.9c-0.6,0-1.2-0.2-1.7-0.5s-0.9-0.7-1.2-1.3c-0.3-0.5-0.4-1.1-0.4-1.8V450c0-0.7,0.1-1.3,0.4-1.9s0.6-1,1.1-1.3
		c0.5-0.3,1-0.5,1.6-0.5c0.9,0,1.6,0.3,2.1,0.9c0.5,0.6,0.8,1.4,0.8,2.5v0.4h-5.2v0.2c0,0.8,0.2,1.5,0.7,2.1
		c0.5,0.5,1.1,0.8,1.8,0.8c0.4,0,0.8-0.1,1.1-0.2s0.6-0.4,0.9-0.7l0.5,0.4C584.1,453.4,583.3,453.9,582.2,453.9z M582,447
		c-0.6,0-1.1,0.2-1.5,0.7s-0.7,1-0.8,1.8h4.3v-0.1c0-0.7-0.2-1.3-0.6-1.7C583.1,447.3,582.6,447,582,447z"/>
	<path d="M587.3,446.5v8.1c0,0.7-0.2,1.2-0.5,1.5c-0.3,0.4-0.8,0.5-1.4,0.5c-0.2,0-0.5,0-0.7-0.1l0-0.7c0.2,0.1,0.4,0.1,0.6,0.1
		c0.8,0,1.2-0.5,1.2-1.4v-8.1H587.3z M586.9,443.9c0.2,0,0.3,0.1,0.4,0.2c0.1,0.1,0.1,0.2,0.1,0.4c0,0.2,0,0.3-0.1,0.4
		c-0.1,0.1-0.2,0.2-0.4,0.2c-0.2,0-0.3-0.1-0.4-0.2c-0.1-0.1-0.1-0.2-0.1-0.4c0-0.2,0-0.3,0.1-0.4S586.7,443.9,586.9,443.9z"/>
	<path d="M593.9,451.9c0-0.4-0.2-0.7-0.5-1c-0.3-0.2-0.8-0.4-1.4-0.6c-0.6-0.1-1.1-0.3-1.5-0.5c-0.4-0.2-0.6-0.4-0.8-0.6
		s-0.3-0.6-0.3-0.9c0-0.6,0.2-1,0.7-1.4s1.1-0.6,1.8-0.6c0.8,0,1.5,0.2,1.9,0.6s0.7,0.9,0.7,1.6h-0.8c0-0.4-0.2-0.8-0.5-1.1
		c-0.4-0.3-0.8-0.4-1.3-0.4c-0.5,0-0.9,0.1-1.3,0.4c-0.3,0.2-0.5,0.5-0.5,0.9c0,0.4,0.1,0.6,0.4,0.8s0.8,0.4,1.5,0.5
		c0.7,0.2,1.2,0.3,1.6,0.5c0.3,0.2,0.6,0.4,0.8,0.7c0.2,0.3,0.3,0.6,0.3,1c0,0.6-0.2,1.1-0.7,1.5c-0.5,0.4-1.1,0.5-1.9,0.5
		c-0.8,0-1.5-0.2-2-0.6c-0.5-0.4-0.8-0.9-0.8-1.5h0.8c0,0.5,0.2,0.8,0.6,1.1s0.8,0.4,1.4,0.4c0.6,0,1-0.1,1.4-0.4
		S593.9,452.3,593.9,451.9z"/>
	<path d="M596.1,450c0-0.7,0.1-1.3,0.4-1.9c0.3-0.6,0.7-1,1.1-1.3c0.5-0.3,1.1-0.5,1.7-0.5c1,0,1.7,0.3,2.3,1s0.9,1.6,0.9,2.7v0.2
		c0,0.7-0.1,1.3-0.4,1.9c-0.3,0.6-0.6,1-1.1,1.3c-0.5,0.3-1,0.5-1.7,0.5c-1,0-1.7-0.3-2.3-1s-0.9-1.6-0.9-2.7V450z M596.9,450.2
		c0,0.9,0.2,1.6,0.7,2.1c0.4,0.6,1,0.8,1.8,0.8c0.7,0,1.3-0.3,1.8-0.8c0.4-0.6,0.7-1.3,0.7-2.2V450c0-0.6-0.1-1.1-0.3-1.5
		c-0.2-0.5-0.5-0.8-0.9-1.1c-0.4-0.3-0.8-0.4-1.3-0.4c-0.7,0-1.3,0.3-1.7,0.8c-0.5,0.6-0.7,1.3-0.7,2.2V450.2z"/>
	<path d="M608.8,452.8c-0.5,0.7-1.2,1.1-2.3,1.1c-0.8,0-1.4-0.2-1.8-0.7c-0.4-0.4-0.6-1.1-0.6-2v-4.7h0.8v4.6c0,1.4,0.6,2.1,1.7,2.1
		c1.2,0,1.9-0.5,2.2-1.4v-5.2h0.8v7.2h-0.8L608.8,452.8z"/>
	<path d="M617.3,452.6l2.2-6.1h0.8l-2.7,7.2H617l-2.7-7.2h0.8L617.3,452.6z"/>
	<path d="M624.6,450.1c0-1.1,0.3-2,0.8-2.7c0.5-0.7,1.2-1,2-1c1,0,1.7,0.4,2.2,1.2l0-1h0.8v7.1c0,0.9-0.3,1.7-0.8,2.2
		s-1.2,0.8-2.1,0.8c-0.5,0-1-0.1-1.4-0.3c-0.5-0.2-0.8-0.5-1.1-0.9l0.4-0.5c0.6,0.7,1.2,1,2,1c0.7,0,1.2-0.2,1.6-0.6
		c0.4-0.4,0.6-0.9,0.6-1.6v-0.9c-0.5,0.7-1.3,1.1-2.2,1.1c-0.8,0-1.5-0.3-2-1c-0.5-0.7-0.8-1.6-0.8-2.7V450.1z M625.4,450.2
		c0,0.9,0.2,1.7,0.6,2.2c0.4,0.5,0.9,0.8,1.6,0.8c1,0,1.7-0.4,2.1-1.3v-3.4c-0.2-0.5-0.5-0.8-0.8-1.1c-0.4-0.2-0.8-0.4-1.3-0.4
		c-0.7,0-1.2,0.3-1.6,0.8S625.4,449.2,625.4,450.2z"/>
	<path d="M635.9,447.2c-0.2,0-0.3,0-0.5,0c-0.5,0-0.9,0.1-1.3,0.4s-0.6,0.7-0.7,1.2v5h-0.8v-7.2h0.8l0,1.2c0.4-0.9,1.1-1.3,2-1.3
		c0.2,0,0.4,0,0.5,0.1L635.9,447.2z"/>
	<path d="M641.5,453.7c-0.1-0.2-0.1-0.6-0.2-1c-0.3,0.4-0.6,0.6-1.1,0.8c-0.4,0.2-0.9,0.3-1.4,0.3c-0.7,0-1.3-0.2-1.7-0.6
		c-0.4-0.4-0.6-0.9-0.6-1.5c0-0.7,0.3-1.3,0.9-1.7c0.6-0.4,1.4-0.6,2.5-0.6h1.5v-0.8c0-0.5-0.2-0.9-0.5-1.2
		c-0.3-0.3-0.8-0.4-1.4-0.4c-0.6,0-1,0.1-1.4,0.4c-0.4,0.3-0.5,0.6-0.5,1l-0.8,0c0-0.6,0.3-1.1,0.8-1.5c0.5-0.4,1.2-0.6,2-0.6
		c0.8,0,1.4,0.2,1.9,0.6s0.7,1,0.7,1.7v3.4c0,0.7,0.1,1.2,0.2,1.6v0.1H641.5z M638.9,453.2c0.5,0,1-0.1,1.4-0.4
		c0.4-0.3,0.7-0.6,0.9-1v-1.6h-1.4c-0.8,0-1.4,0.2-1.9,0.4c-0.5,0.3-0.7,0.7-0.7,1.2c0,0.4,0.2,0.7,0.5,1S638.5,453.2,638.9,453.2z"
		/>
	<path d="M644.8,453.7v-6.6h-1.2v-0.7h1.2v-0.9c0-0.7,0.2-1.3,0.6-1.7c0.4-0.4,0.9-0.6,1.6-0.6c0.3,0,0.6,0,0.8,0.1l-0.1,0.7
		c-0.2-0.1-0.5-0.1-0.7-0.1c-0.4,0-0.8,0.1-1,0.4c-0.2,0.3-0.4,0.7-0.4,1.2v0.9h1.7v0.7h-1.7v6.6H644.8z"/>
	<path d="M653.4,452.8c-0.5,0.7-1.3,1.1-2.3,1.1c-0.8,0-1.4-0.2-1.8-0.7c-0.4-0.4-0.6-1.1-0.6-2v-4.7h0.8v4.6c0,1.4,0.6,2.1,1.7,2.1
		c1.2,0,1.9-0.5,2.2-1.4v-5.2h0.8v7.2h-0.8L653.4,452.8z"/>
	<path d="M660.2,453.1h4.7v0.7h-5.7v-0.6l4.4-6h-4.3v-0.7h5.3v0.6L660.2,453.1z"/>
	<path d="M667.1,446.5l0,1.2c0.3-0.4,0.6-0.8,1-1c0.4-0.2,0.9-0.4,1.3-0.4c0.8,0,1.4,0.2,1.7,0.7c0.4,0.4,0.6,1.1,0.6,2v4.8h-0.8
		V449c0-0.6-0.1-1.1-0.4-1.4c-0.3-0.3-0.7-0.5-1.3-0.5c-0.5,0-0.9,0.2-1.3,0.5c-0.4,0.3-0.7,0.7-0.8,1.3v5h-0.8v-7.2H667.1z"/>
	<path d="M678.4,453.7c-0.1-0.2-0.1-0.6-0.2-1c-0.3,0.4-0.6,0.6-1.1,0.8c-0.4,0.2-0.9,0.3-1.4,0.3c-0.7,0-1.3-0.2-1.7-0.6
		c-0.4-0.4-0.6-0.9-0.6-1.5c0-0.7,0.3-1.3,0.9-1.7c0.6-0.4,1.4-0.6,2.5-0.6h1.5v-0.8c0-0.5-0.2-0.9-0.5-1.2
		c-0.3-0.3-0.8-0.4-1.4-0.4c-0.6,0-1,0.1-1.4,0.4c-0.4,0.3-0.5,0.6-0.5,1l-0.8,0c0-0.6,0.3-1.1,0.8-1.5c0.5-0.4,1.2-0.6,2-0.6
		c0.8,0,1.4,0.2,1.9,0.6c0.5,0.4,0.7,1,0.7,1.7v3.4c0,0.7,0.1,1.2,0.2,1.6v0.1H678.4z M675.9,453.2c0.5,0,1-0.1,1.4-0.4
		c0.4-0.3,0.7-0.6,0.9-1v-1.6h-1.4c-0.8,0-1.4,0.2-1.9,0.4c-0.4,0.3-0.7,0.7-0.7,1.2c0,0.4,0.2,0.7,0.5,1
		C675,453,675.4,453.2,675.9,453.2z M677.4,443.5h1l-1.5,1.9l-0.7,0L677.4,443.5z"/>
	<path d="M681.7,453.1h4.7v0.7h-5.7v-0.6l4.4-6h-4.3v-0.7h5.3v0.6L681.7,453.1z"/>
	<path d="M687.3,450c0-0.7,0.1-1.3,0.4-1.9c0.3-0.6,0.7-1,1.1-1.3c0.5-0.3,1.1-0.5,1.7-0.5c1,0,1.7,0.3,2.3,1s0.9,1.6,0.9,2.7v0.2
		c0,0.7-0.1,1.3-0.4,1.9c-0.3,0.6-0.7,1-1.1,1.3s-1.1,0.5-1.7,0.5c-1,0-1.7-0.3-2.3-1s-0.9-1.6-0.9-2.7V450z M688.1,450.2
		c0,0.9,0.2,1.6,0.7,2.1c0.4,0.6,1,0.8,1.8,0.8c0.7,0,1.3-0.3,1.8-0.8c0.4-0.6,0.7-1.3,0.7-2.2V450c0-0.6-0.1-1.1-0.3-1.5
		c-0.2-0.5-0.5-0.8-0.9-1.1c-0.4-0.3-0.8-0.4-1.3-0.4c-0.7,0-1.3,0.3-1.7,0.8c-0.4,0.6-0.7,1.3-0.7,2.2V450.2z"/>
	<path d="M698.7,447.2c-0.2,0-0.4,0-0.5,0c-0.5,0-0.9,0.1-1.3,0.4s-0.6,0.7-0.7,1.2v5h-0.8v-7.2h0.8l0,1.2c0.4-0.9,1.1-1.3,2-1.3
		c0.2,0,0.4,0,0.5,0.1L698.7,447.2z"/>
	<path d="M700.8,446.5l0,1.2c0.3-0.4,0.6-0.8,1-1c0.4-0.2,0.9-0.4,1.3-0.4c0.8,0,1.4,0.2,1.7,0.7c0.4,0.4,0.6,1.1,0.6,2v4.8h-0.8
		V449c0-0.6-0.1-1.1-0.4-1.4c-0.3-0.3-0.7-0.5-1.3-0.5c-0.5,0-0.9,0.2-1.3,0.5c-0.4,0.3-0.7,0.7-0.8,1.3v5H700v-7.2H700.8z"/>
	<path d="M710.3,453.9c-0.6,0-1.2-0.2-1.7-0.5c-0.5-0.3-0.9-0.7-1.2-1.3c-0.3-0.5-0.4-1.1-0.4-1.8V450c0-0.7,0.1-1.3,0.4-1.9
		s0.6-1,1.1-1.3c0.5-0.3,1-0.5,1.6-0.5c0.9,0,1.6,0.3,2.1,0.9c0.5,0.6,0.8,1.4,0.8,2.5v0.4h-5.2v0.2c0,0.8,0.2,1.5,0.7,2.1
		c0.5,0.5,1.1,0.8,1.8,0.8c0.4,0,0.8-0.1,1.1-0.2s0.6-0.4,0.9-0.7l0.5,0.4C712.3,453.4,711.4,453.9,710.3,453.9z M710.2,447
		c-0.6,0-1.1,0.2-1.5,0.7c-0.4,0.4-0.7,1-0.8,1.8h4.3v-0.1c0-0.7-0.2-1.3-0.6-1.7C711.3,447.3,710.8,447,710.2,447z M710.2,444.9
		l1.2-1.3h0.7v0.1l-1.6,1.7H710l-1.6-1.8v-0.1h0.7L710.2,444.9z"/>
	<path d="M715.4,446.5l0,1.2c0.3-0.4,0.6-0.8,1-1c0.4-0.2,0.9-0.4,1.3-0.4c0.8,0,1.4,0.2,1.7,0.7c0.4,0.4,0.6,1.1,0.6,2v4.8h-0.8
		V449c0-0.6-0.1-1.1-0.4-1.4s-0.7-0.5-1.3-0.5c-0.5,0-0.9,0.2-1.3,0.5c-0.4,0.3-0.7,0.7-0.8,1.3v5h-0.8v-7.2H715.4z"/>
	<path d="M724.9,453.9c-0.6,0-1.2-0.2-1.7-0.5c-0.5-0.3-0.9-0.7-1.2-1.3c-0.3-0.5-0.4-1.1-0.4-1.8V450c0-0.7,0.1-1.3,0.4-1.9
		s0.6-1,1.1-1.3c0.5-0.3,1-0.5,1.6-0.5c0.9,0,1.6,0.3,2.1,0.9c0.5,0.6,0.8,1.4,0.8,2.5v0.4h-5.2v0.2c0,0.8,0.2,1.5,0.7,2.1
		c0.5,0.5,1.1,0.8,1.8,0.8c0.4,0,0.8-0.1,1.1-0.2s0.6-0.4,0.9-0.7l0.5,0.4C726.9,453.4,726,453.9,724.9,453.9z M724.8,447
		c-0.6,0-1.1,0.2-1.5,0.7c-0.4,0.4-0.7,1-0.8,1.8h4.3v-0.1c0-0.7-0.2-1.3-0.6-1.7C725.9,447.3,725.4,447,724.8,447z M725.7,443.5h1
		l-1.5,1.9l-0.7,0L725.7,443.5z"/>
	<path d="M729.1,453.3c0-0.2,0.1-0.3,0.2-0.4s0.2-0.2,0.4-0.2s0.3,0.1,0.4,0.2c0.1,0.1,0.2,0.2,0.2,0.4c0,0.2-0.1,0.3-0.2,0.4
		c-0.1,0.1-0.2,0.2-0.4,0.2s-0.3-0.1-0.4-0.2C729.2,453.5,729.1,453.4,729.1,453.3z"/>
</g>
<g>
	<rect x="172.5" y="48" fill="#E8E3E7" stroke="#FFFFFF" stroke-miterlimit="10" width="16.3" height="16.3"/>
</g>
<g>
	<rect x="6.6" y="48" fill="#97C1DE" stroke="#FFFFFF" stroke-miterlimit="10" width="16.3" height="16.3"/>
	<line fill="#97C1DE" stroke="#FFFFFF" stroke-miterlimit="10" x1="6.6" y1="48" x2="22.8" y2="48"/>
</g>
<g>
	<path fill="#999999" d="M207.9,59.4h-4.1l-0.9,2.5h-1.9l4-10.7h1.7l4,10.7h-1.9L207.9,59.4z M204.3,57.9h3.1l-1.5-4.4L204.3,57.9z"
		/>
	<path fill="#999999" d="M213.6,61.9h-1.8V50.6h1.8V61.9z"/>
	<path fill="#999999" d="M215.2,57.9c0-0.8,0.2-1.5,0.5-2.1c0.3-0.6,0.7-1.1,1.3-1.4s1.2-0.5,1.9-0.5c1.1,0,1.9,0.3,2.6,1
		c0.7,0.7,1,1.6,1.1,2.7l0,0.4c0,0.8-0.2,1.5-0.5,2.1c-0.3,0.6-0.7,1.1-1.3,1.4c-0.6,0.3-1.2,0.5-1.9,0.5c-1.1,0-2-0.4-2.7-1.1
		C215.5,60.2,215.2,59.2,215.2,57.9L215.2,57.9z M217,58c0,0.8,0.2,1.5,0.5,1.9c0.3,0.5,0.8,0.7,1.4,0.7c0.6,0,1.1-0.2,1.4-0.7
		c0.3-0.5,0.5-1.2,0.5-2.1c0-0.8-0.2-1.4-0.5-1.9c-0.3-0.5-0.8-0.7-1.4-0.7c-0.6,0-1,0.2-1.4,0.7C217.2,56.4,217,57.1,217,58z"/>
	<path fill="#999999" d="M226.7,58.5l-0.8,0.8v2.6h-1.8V50.6h1.8v6.5l0.6-0.7l2.2-2.5h2.1l-2.9,3.3l3.3,4.6H229L226.7,58.5z"/>
	<path fill="#999999" d="M231.6,57.9c0-0.8,0.2-1.5,0.5-2.1c0.3-0.6,0.7-1.1,1.3-1.4s1.2-0.5,1.9-0.5c1.1,0,1.9,0.3,2.6,1
		c0.7,0.7,1,1.6,1.1,2.7l0,0.4c0,0.8-0.2,1.5-0.5,2.1c-0.3,0.6-0.7,1.1-1.3,1.4c-0.6,0.3-1.2,0.5-1.9,0.5c-1.1,0-2-0.4-2.7-1.1
		C231.9,60.2,231.6,59.2,231.6,57.9L231.6,57.9z M233.4,58c0,0.8,0.2,1.5,0.5,1.9c0.3,0.5,0.8,0.7,1.4,0.7c0.6,0,1.1-0.2,1.4-0.7
		c0.3-0.5,0.5-1.2,0.5-2.1c0-0.8-0.2-1.4-0.5-1.9c-0.3-0.5-0.8-0.7-1.4-0.7c-0.6,0-1,0.2-1.4,0.7C233.5,56.4,233.4,57.1,233.4,58z"
		/>
	<path fill="#999999" d="M243.1,59.6l1.7-5.7h1.8l-2.7,7.9h-1.5l-2.8-7.9h1.8L243.1,59.6z"/>
	<path fill="#999999" d="M252.4,61.9c-0.1-0.2-0.1-0.4-0.2-0.7c-0.6,0.6-1.3,0.9-2.1,0.9c-0.8,0-1.4-0.2-1.9-0.7
		c-0.5-0.5-0.8-1-0.8-1.7c0-0.8,0.3-1.5,0.9-1.9c0.6-0.5,1.5-0.7,2.7-0.7h1.1v-0.5c0-0.4-0.1-0.7-0.3-1c-0.2-0.2-0.6-0.4-1-0.4
		c-0.4,0-0.7,0.1-1,0.3c-0.3,0.2-0.4,0.5-0.4,0.8h-1.8c0-0.4,0.1-0.8,0.4-1.2c0.3-0.4,0.7-0.7,1.2-0.9c0.5-0.2,1-0.3,1.7-0.3
		c0.9,0,1.7,0.2,2.2,0.7c0.6,0.5,0.8,1.1,0.8,2v3.6c0,0.7,0.1,1.3,0.3,1.7v0.1H252.4z M250.4,60.6c0.4,0,0.7-0.1,1-0.3
		c0.3-0.2,0.5-0.4,0.7-0.7v-1.5h-1c-0.7,0-1.2,0.1-1.5,0.3c-0.3,0.2-0.5,0.6-0.5,1c0,0.3,0.1,0.6,0.3,0.8
		C249.7,60.5,250,60.6,250.4,60.6z"/>
	<path fill="#999999" d="M257.4,54l0.1,0.9c0.6-0.7,1.4-1.1,2.3-1.1c1.7,0,2.5,0.9,2.5,2.8v5.2h-1.8v-5.1c0-0.5-0.1-0.9-0.3-1.1
		c-0.2-0.2-0.6-0.4-1.1-0.4c-0.7,0-1.3,0.3-1.6,1v5.6h-1.8V54H257.4z"/>
	<path fill="#999999" d="M267.6,62c-1.1,0-2-0.4-2.7-1.1c-0.7-0.7-1.1-1.7-1.1-2.8v-0.2c0-0.8,0.2-1.5,0.5-2.1
		c0.3-0.6,0.7-1.1,1.3-1.5c0.6-0.3,1.2-0.5,1.8-0.5c1.1,0,1.9,0.3,2.5,1c0.6,0.7,0.9,1.7,0.9,2.9v0.7h-5.2c0.1,0.7,0.3,1.2,0.7,1.6
		c0.4,0.4,0.9,0.6,1.4,0.6c0.8,0,1.5-0.3,2-1l1,0.9c-0.3,0.5-0.7,0.8-1.3,1.1C268.8,61.9,268.3,62,267.6,62z M267.4,55.3
		c-0.5,0-0.9,0.2-1.2,0.5c-0.3,0.3-0.5,0.8-0.6,1.4h3.4v-0.1c0-0.6-0.2-1-0.5-1.4C268.3,55.4,267.9,55.3,267.4,55.3z M267.8,50.6h2
		l-2,2.2l-1.4,0L267.8,50.6z"/>
	<path fill="#999999" d="M282.8,58c0,1.2-0.3,2.2-0.8,2.9s-1.3,1.1-2.2,1.1c-0.9,0-1.6-0.3-2.1-0.9v3.8h-1.8V54h1.6l0.1,0.8
		c0.5-0.6,1.2-1,2.1-1c1,0,1.7,0.4,2.3,1.1c0.5,0.7,0.8,1.7,0.8,3V58z M281.1,57.9c0-0.8-0.2-1.4-0.5-1.9c-0.3-0.5-0.8-0.7-1.4-0.7
		c-0.7,0-1.3,0.3-1.6,0.9v3.5c0.3,0.6,0.8,0.9,1.6,0.9c0.6,0,1-0.2,1.3-0.7C280.9,59.5,281.1,58.8,281.1,57.9z"/>
	<path fill="#999999" d="M284,57.9c0-0.8,0.2-1.5,0.5-2.1c0.3-0.6,0.7-1.1,1.3-1.4s1.2-0.5,1.9-0.5c1.1,0,1.9,0.3,2.6,1
		c0.7,0.7,1,1.6,1.1,2.7l0,0.4c0,0.8-0.2,1.5-0.5,2.1c-0.3,0.6-0.7,1.1-1.3,1.4c-0.6,0.3-1.2,0.5-1.9,0.5c-1.1,0-2-0.4-2.7-1.1
		C284.3,60.2,284,59.2,284,57.9L284,57.9z M285.8,58c0,0.8,0.2,1.5,0.5,1.9c0.3,0.5,0.8,0.7,1.4,0.7c0.6,0,1.1-0.2,1.4-0.7
		c0.3-0.5,0.5-1.2,0.5-2.1c0-0.8-0.2-1.4-0.5-1.9c-0.3-0.5-0.8-0.7-1.4-0.7c-0.6,0-1,0.2-1.4,0.7C286,56.4,285.8,57.1,285.8,58z"/>
	<path fill="#999999" d="M295.6,59.6l1.7-5.7h1.8l-2.7,7.9h-1.5L292,54h1.8L295.6,59.6z"/>
	<path fill="#999999" d="M299.7,57.9c0-0.8,0.2-1.5,0.5-2.1c0.3-0.6,0.7-1.1,1.3-1.4s1.2-0.5,1.9-0.5c1.1,0,1.9,0.3,2.6,1
		c0.7,0.7,1,1.6,1.1,2.7l0,0.4c0,0.8-0.2,1.5-0.5,2.1c-0.3,0.6-0.7,1.1-1.3,1.4c-0.6,0.3-1.2,0.5-1.9,0.5c-1.1,0-2-0.4-2.7-1.1
		C300.1,60.2,299.7,59.2,299.7,57.9L299.7,57.9z M301.5,58c0,0.8,0.2,1.5,0.5,1.9c0.3,0.5,0.8,0.7,1.4,0.7c0.6,0,1.1-0.2,1.4-0.7
		c0.3-0.5,0.5-1.2,0.5-2.1c0-0.8-0.2-1.4-0.5-1.9c-0.3-0.5-0.8-0.7-1.4-0.7c-0.6,0-1,0.2-1.4,0.7C301.7,56.4,301.5,57.1,301.5,58z"
		/>
	<path fill="#999999" d="M310.5,61.9h-1.8V50.6h1.8V61.9z"/>
	<path fill="#999999" d="M315.9,62c-1.1,0-2-0.4-2.7-1.1c-0.7-0.7-1.1-1.7-1.1-2.8v-0.2c0-0.8,0.2-1.5,0.5-2.1
		c0.3-0.6,0.7-1.1,1.3-1.5c0.6-0.3,1.2-0.5,1.8-0.5c1.1,0,1.9,0.3,2.5,1c0.6,0.7,0.9,1.7,0.9,2.9v0.7h-5.2c0.1,0.7,0.3,1.2,0.7,1.6
		c0.4,0.4,0.9,0.6,1.4,0.6c0.8,0,1.5-0.3,2-1l1,0.9c-0.3,0.5-0.7,0.8-1.3,1.1C317.2,61.9,316.6,62,315.9,62z M315.7,55.3
		c-0.5,0-0.9,0.2-1.2,0.5c-0.3,0.3-0.5,0.8-0.6,1.4h3.4v-0.1c0-0.6-0.2-1-0.5-1.4C316.6,55.4,316.2,55.3,315.7,55.3z"/>
	<path fill="#999999" d="M322.1,54l0.1,0.9c0.6-0.7,1.4-1.1,2.3-1.1c1.7,0,2.5,0.9,2.5,2.8v5.2h-1.8v-5.1c0-0.5-0.1-0.9-0.3-1.1
		c-0.2-0.2-0.6-0.4-1.1-0.4c-0.7,0-1.3,0.3-1.6,1v5.6h-1.8V54H322.1z"/>
	<path fill="#999999" d="M331.4,58.5l-0.8,0.8v2.6h-1.8V50.6h1.8v6.5l0.6-0.7l2.2-2.5h2.1l-2.9,3.3l3.3,4.6h-2.1L331.4,58.5z"/>
	<path fill="#999999" d="M339.4,59.3L341,54h1.9l-3.1,9.1c-0.5,1.3-1.3,2-2.5,2c-0.3,0-0.5,0-0.9-0.1v-1.4l0.3,0
		c0.4,0,0.8-0.1,1-0.2c0.2-0.2,0.4-0.4,0.5-0.8l0.3-0.7l-2.8-7.9h1.9L339.4,59.3z"/>
	<path fill="#999999" d="M345.5,54.8l-2.2-0.6l0.4-1.2l2.2,0.9l-0.1-2.5h1.3l-0.1,2.6l2.2-0.8l0.4,1.3l-2.3,0.6l1.5,1.9l-1.1,0.8
		l-1.3-2.1l-1.3,2l-1.1-0.7L345.5,54.8z"/>
</g>
<g>
	<path fill="#76B4DE" d="M44.4,56.8c0,1-0.2,2-0.5,2.8c-0.4,0.8-0.9,1.4-1.5,1.8C41.7,61.8,40.9,62,40,62c-0.9,0-1.6-0.2-2.3-0.6
		c-0.7-0.4-1.2-1-1.6-1.8c-0.4-0.8-0.6-1.7-0.6-2.7v-0.6c0-1,0.2-2,0.6-2.8c0.4-0.8,0.9-1.4,1.6-1.8c0.7-0.4,1.4-0.6,2.3-0.6
		s1.6,0.2,2.3,0.6c0.7,0.4,1.2,1,1.6,1.8c0.4,0.8,0.6,1.7,0.6,2.7V56.8z M42.6,56.3c0-1.2-0.2-2.1-0.7-2.7c-0.4-0.6-1.1-0.9-1.9-0.9
		c-0.8,0-1.4,0.3-1.9,0.9c-0.5,0.6-0.7,1.5-0.7,2.7v0.6c0,1.2,0.2,2.1,0.7,2.7c0.5,0.6,1.1,1,1.9,1c0.8,0,1.5-0.3,1.9-0.9
		c0.4-0.6,0.7-1.5,0.7-2.7V56.3z"/>
	<path fill="#76B4DE" d="M48.9,59.6l1.7-5.7h1.8l-2.7,7.9h-1.5L45.4,54h1.8L48.9,59.6z"/>
	<path fill="#76B4DE" d="M56.9,62c-1.1,0-2-0.4-2.7-1.1c-0.7-0.7-1.1-1.7-1.1-2.8v-0.2c0-0.8,0.2-1.5,0.5-2.1
		c0.3-0.6,0.7-1.1,1.3-1.5c0.6-0.3,1.2-0.5,1.8-0.5c1.1,0,1.9,0.3,2.5,1c0.6,0.7,0.9,1.7,0.9,2.9v0.7h-5.2c0.1,0.7,0.3,1.2,0.7,1.6
		c0.4,0.4,0.9,0.6,1.4,0.6c0.8,0,1.5-0.3,2-1l1,0.9c-0.3,0.5-0.7,0.8-1.3,1.1C58.2,61.9,57.6,62,56.9,62z M56.6,51.8l1.1-1.1h1.5
		v0.1l-2,2H56l-2-2.1v-0.1h1.5L56.6,51.8z M56.7,55.3c-0.5,0-0.9,0.2-1.2,0.5c-0.3,0.3-0.5,0.8-0.6,1.4h3.4v-0.1
		c0-0.6-0.2-1-0.5-1.4C57.6,55.4,57.2,55.3,56.7,55.3z"/>
	<path fill="#76B4DE" d="M63.6,51.8l1.1-1.1h1.5v0.1l-2,2H63l-2-2.1v-0.1h1.5L63.6,51.8z M65.6,55.6c-0.2,0-0.5-0.1-0.7-0.1
		c-0.8,0-1.4,0.3-1.6,0.9v5.4h-1.8V54h1.7l0,0.9c0.4-0.7,1-1,1.8-1c0.3,0,0.5,0,0.6,0.1L65.6,55.6z"/>
	<path fill="#76B4DE" d="M70.1,62c-1.1,0-2-0.4-2.7-1.1c-0.7-0.7-1.1-1.7-1.1-2.8v-0.2c0-0.8,0.2-1.5,0.5-2.1
		c0.3-0.6,0.7-1.1,1.3-1.5c0.6-0.3,1.2-0.5,1.8-0.5c1.1,0,1.9,0.3,2.5,1c0.6,0.7,0.9,1.7,0.9,2.9v0.7h-5.2c0.1,0.7,0.3,1.2,0.7,1.6
		c0.4,0.4,0.9,0.6,1.4,0.6c0.8,0,1.5-0.3,2-1l1,0.9c-0.3,0.5-0.7,0.8-1.3,1.1C71.4,61.9,70.8,62,70.1,62z M69.9,55.3
		c-0.5,0-0.9,0.2-1.2,0.5c-0.3,0.3-0.5,0.8-0.6,1.4h3.4v-0.1c0-0.6-0.2-1-0.5-1.4C70.8,55.4,70.4,55.3,69.9,55.3z"/>
	<path fill="#76B4DE" d="M76.3,54l0.1,0.9c0.6-0.7,1.4-1.1,2.3-1.1c1.7,0,2.5,0.9,2.5,2.8v5.2h-1.8v-5.1c0-0.5-0.1-0.9-0.3-1.1
		c-0.2-0.2-0.6-0.4-1.1-0.4c-0.7,0-1.3,0.3-1.6,1v5.6h-1.8V54H76.3z"/>
	<path fill="#76B4DE" d="M86.5,62c-1.1,0-2-0.4-2.7-1.1c-0.7-0.7-1.1-1.7-1.1-2.8v-0.2c0-0.8,0.2-1.5,0.5-2.1
		c0.3-0.6,0.7-1.1,1.3-1.5c0.6-0.3,1.2-0.5,1.8-0.5c1.1,0,1.9,0.3,2.5,1c0.6,0.7,0.9,1.7,0.9,2.9v0.7h-5.2c0.1,0.7,0.3,1.2,0.7,1.6
		c0.4,0.4,0.9,0.6,1.4,0.6c0.8,0,1.5-0.3,2-1l1,0.9c-0.3,0.5-0.7,0.8-1.3,1.1C87.8,61.9,87.2,62,86.5,62z M86.3,55.3
		c-0.5,0-0.9,0.2-1.2,0.5c-0.3,0.3-0.5,0.8-0.6,1.4h3.4v-0.1c0-0.6-0.2-1-0.5-1.4C87.2,55.4,86.8,55.3,86.3,55.3z M86.7,50.6h2
		l-2,2.2l-1.4,0L86.7,50.6z"/>
	<path fill="#76B4DE" d="M98.3,62c-1.1,0-2-0.4-2.7-1.1c-0.7-0.7-1.1-1.7-1.1-2.8v-0.2c0-0.8,0.2-1.5,0.5-2.1
		c0.3-0.6,0.7-1.1,1.3-1.5c0.6-0.3,1.2-0.5,1.8-0.5c1.1,0,1.9,0.3,2.5,1c0.6,0.7,0.9,1.7,0.9,2.9v0.7h-5.2c0.1,0.7,0.3,1.2,0.7,1.6
		c0.4,0.4,0.9,0.6,1.4,0.6c0.8,0,1.5-0.3,2-1l1,0.9c-0.3,0.5-0.7,0.8-1.3,1.1C99.5,61.9,98.9,62,98.3,62z M98.1,55.3
		c-0.5,0-0.9,0.2-1.2,0.5c-0.3,0.3-0.5,0.8-0.6,1.4h3.4v-0.1c0-0.6-0.2-1-0.5-1.4C99,55.4,98.6,55.3,98.1,55.3z"/>
	<path fill="#76B4DE" d="M104.5,54l0.1,0.8c0.6-0.6,1.3-1,2.3-1c1.1,0,1.8,0.4,2.2,1.2c0.6-0.8,1.4-1.2,2.4-1.2c0.9,0,1.5,0.2,2,0.7
		c0.4,0.5,0.6,1.2,0.7,2.1v5.2h-1.8v-5.2c0-0.5-0.1-0.9-0.3-1.1c-0.2-0.2-0.6-0.4-1.1-0.4c-0.4,0-0.7,0.1-1,0.3
		c-0.3,0.2-0.4,0.5-0.5,0.9l0,5.4h-1.8v-5.2c0-0.9-0.5-1.4-1.4-1.4c-0.7,0-1.2,0.3-1.5,0.9v5.7h-1.8V54H104.5z"/>
	<path fill="#76B4DE" d="M115.9,51.9c0-0.3,0.1-0.5,0.3-0.7c0.2-0.2,0.4-0.3,0.7-0.3s0.6,0.1,0.7,0.3s0.3,0.4,0.3,0.7
		c0,0.3-0.1,0.5-0.3,0.7s-0.4,0.3-0.7,0.3s-0.6-0.1-0.7-0.3C116,52.4,115.9,52.2,115.9,51.9z M117.8,61.9H116V54h1.8V61.9z"/>
	<path fill="#76B4DE" d="M124.2,59.7c0-0.3-0.1-0.6-0.4-0.7c-0.3-0.2-0.7-0.3-1.3-0.4s-1.1-0.3-1.5-0.5c-0.9-0.4-1.3-1.1-1.3-1.9
		c0-0.7,0.3-1.3,0.9-1.7c0.6-0.5,1.3-0.7,2.2-0.7c0.9,0,1.7,0.2,2.3,0.7c0.6,0.5,0.9,1.1,0.9,1.8h-1.8c0-0.3-0.1-0.6-0.4-0.9
		c-0.3-0.2-0.6-0.3-1-0.3c-0.4,0-0.7,0.1-1,0.3c-0.2,0.2-0.4,0.4-0.4,0.7c0,0.3,0.1,0.5,0.3,0.6s0.7,0.3,1.4,0.5
		c0.7,0.2,1.2,0.3,1.6,0.5c0.4,0.2,0.7,0.5,0.9,0.8c0.2,0.3,0.3,0.7,0.3,1.1c0,0.7-0.3,1.3-0.9,1.7c-0.6,0.4-1.4,0.7-2.3,0.7
		c-0.6,0-1.2-0.1-1.7-0.4s-0.9-0.6-1.2-1c-0.3-0.4-0.4-0.9-0.4-1.3h1.7c0,0.4,0.2,0.7,0.5,1c0.3,0.2,0.7,0.3,1.2,0.3
		c0.5,0,0.8-0.1,1.1-0.3C124,60.3,124.2,60,124.2,59.7z"/>
	<path fill="#76B4DE" d="M131,62c-1.1,0-2-0.4-2.7-1.1c-0.7-0.7-1.1-1.7-1.1-2.8v-0.2c0-0.8,0.2-1.5,0.5-2.1
		c0.3-0.6,0.7-1.1,1.3-1.5c0.6-0.3,1.2-0.5,1.8-0.5c1.1,0,1.9,0.3,2.5,1c0.6,0.7,0.9,1.7,0.9,2.9v0.7H129c0.1,0.7,0.3,1.2,0.7,1.6
		c0.4,0.4,0.9,0.6,1.4,0.6c0.8,0,1.5-0.3,2-1l1,0.9c-0.3,0.5-0.7,0.8-1.3,1.1C132.2,61.9,131.6,62,131,62z M130.7,55.3
		c-0.5,0-0.9,0.2-1.2,0.5c-0.3,0.3-0.5,0.8-0.6,1.4h3.4v-0.1c0-0.6-0.2-1-0.5-1.4C131.6,55.4,131.2,55.3,130.7,55.3z"/>
</g>
<g>
	<g>
		<path d="M12.5,382c0,1.5-0.3,2.6-0.8,3.4c-0.6,0.8-1.4,1.2-2.4,1.2c-1.1,0-1.9-0.4-2.4-1.1c-0.6-0.8-0.8-1.9-0.9-3.3v-1.9
			c0-1.5,0.3-2.6,0.8-3.4s1.4-1.2,2.4-1.2c1.1,0,1.9,0.4,2.4,1.1c0.6,0.7,0.8,1.8,0.9,3.3V382z M11.6,380.1c0-1.2-0.2-2.1-0.6-2.8
			c-0.4-0.6-1-0.9-1.8-0.9c-0.8,0-1.4,0.3-1.8,0.9c-0.4,0.6-0.6,1.5-0.6,2.7v2.1c0,1.2,0.2,2.1,0.6,2.8c0.4,0.6,1,1,1.8,1
			c0.8,0,1.4-0.3,1.8-0.9c0.4-0.6,0.6-1.6,0.6-2.8V380.1z"/>
	</g>
</g>
<g>
	<g>
		<path d="M12.5,330.5c0,1.5-0.3,2.6-0.8,3.4c-0.6,0.8-1.4,1.2-2.4,1.2c-1.1,0-1.9-0.4-2.4-1.1c-0.6-0.8-0.8-1.9-0.9-3.3v-1.9
			c0-1.5,0.3-2.6,0.8-3.4s1.4-1.2,2.4-1.2c1.1,0,1.9,0.4,2.4,1.1c0.6,0.7,0.8,1.8,0.9,3.3V330.5z M11.6,328.6c0-1.2-0.2-2.1-0.6-2.8
			c-0.4-0.6-1-0.9-1.8-0.9c-0.8,0-1.4,0.3-1.8,0.9c-0.4,0.6-0.6,1.5-0.6,2.7v2.1c0,1.2,0.2,2.1,0.6,2.8c0.4,0.6,1,1,1.8,1
			c0.8,0,1.4-0.3,1.8-0.9c0.4-0.6,0.6-1.6,0.6-2.8V328.6z"/>
		<path d="M14.3,336.9l-0.5-0.4c0.4-0.6,0.7-1.2,0.7-1.9v-1.1h0.9v0.9C15.4,335.5,15,336.3,14.3,336.9z"/>
		<path d="M17.8,329.5l0.5-5.2h5.3v0.8h-4.6l-0.4,3.6c0.6-0.4,1.2-0.6,2-0.6c1,0,1.7,0.3,2.3,0.9c0.6,0.6,0.9,1.5,0.9,2.5
			c0,1.1-0.3,2-0.8,2.6s-1.3,0.9-2.4,0.9c-0.9,0-1.7-0.3-2.3-0.8s-0.9-1.2-1-2.2h0.8c0.1,0.7,0.3,1.3,0.7,1.7c0.4,0.4,1,0.6,1.7,0.6
			c0.8,0,1.3-0.2,1.7-0.7c0.4-0.5,0.6-1.2,0.6-2.1c0-0.8-0.2-1.4-0.7-1.9c-0.4-0.5-1-0.7-1.8-0.7c-0.4,0-0.8,0.1-1.1,0.2
			c-0.3,0.1-0.6,0.3-1,0.6L17.8,329.5z"/>
	</g>
</g>
<g>
	<g>
		<path d="M10.1,283.5H9.3v-9.6l-2.9,1.1v-0.8l3.6-1.3h0.1V283.5z"/>
		<path d="M14.3,285.4l-0.5-0.4c0.4-0.6,0.7-1.2,0.7-1.9v-1.1h0.9v0.9C15.4,284,15,284.8,14.3,285.4z"/>
		<path d="M23.7,279c0,1.5-0.3,2.6-0.8,3.4c-0.6,0.8-1.4,1.2-2.4,1.2c-1.1,0-1.9-0.4-2.4-1.1c-0.6-0.8-0.8-1.9-0.9-3.3v-1.9
			c0-1.5,0.3-2.6,0.8-3.4s1.4-1.2,2.4-1.2c1.1,0,1.9,0.4,2.4,1.1c0.6,0.7,0.8,1.8,0.9,3.3V279z M22.8,277.1c0-1.2-0.2-2.1-0.6-2.8
			c-0.4-0.6-1-0.9-1.8-0.9c-0.8,0-1.4,0.3-1.8,0.9c-0.4,0.6-0.6,1.5-0.6,2.7v2.1c0,1.2,0.2,2.1,0.6,2.8c0.4,0.6,1,1,1.8,1
			c0.8,0,1.4-0.3,1.8-0.9c0.4-0.6,0.6-1.6,0.6-2.8V277.1z"/>
	</g>
</g>
<g>
	<g>
		<path d="M10.1,232H9.3v-9.6l-2.9,1.1v-0.8l3.6-1.3h0.1V232z"/>
		<path d="M14.3,233.9l-0.5-0.4c0.4-0.6,0.7-1.2,0.7-1.9v-1.1h0.9v0.9C15.4,232.5,15,233.3,14.3,233.9z"/>
		<path d="M17.8,226.5l0.5-5.2h5.3v0.8h-4.6l-0.4,3.6c0.6-0.4,1.2-0.6,2-0.6c1,0,1.7,0.3,2.3,0.9c0.6,0.6,0.9,1.5,0.9,2.5
			c0,1.1-0.3,2-0.8,2.6s-1.3,0.9-2.4,0.9c-0.9,0-1.7-0.3-2.3-0.8s-0.9-1.2-1-2.2h0.8c0.1,0.7,0.3,1.3,0.7,1.7c0.4,0.4,1,0.6,1.7,0.6
			c0.8,0,1.3-0.2,1.7-0.7c0.4-0.5,0.6-1.2,0.6-2.1c0-0.8-0.2-1.4-0.7-1.9c-0.4-0.5-1-0.7-1.8-0.7c-0.4,0-0.8,0.1-1.1,0.2
			c-0.3,0.1-0.6,0.3-1,0.6L17.8,226.5z"/>
	</g>
</g>
<g>
	<g>
		<path d="M12.7,180.5H6.1v-0.7l3.7-4.1c0.6-0.7,1-1.3,1.3-1.7s0.4-0.9,0.4-1.3c0-0.7-0.2-1.2-0.6-1.6c-0.4-0.4-0.9-0.6-1.6-0.6
			c-0.7,0-1.3,0.2-1.7,0.7c-0.4,0.5-0.7,1.1-0.7,1.8H5.8c0-0.6,0.1-1.1,0.4-1.6c0.3-0.5,0.7-0.9,1.2-1.2c0.5-0.3,1.1-0.4,1.7-0.4
			c1,0,1.7,0.3,2.3,0.8c0.5,0.5,0.8,1.2,0.8,2.1c0,0.5-0.2,1-0.5,1.6c-0.3,0.6-0.9,1.3-1.6,2.2l-3,3.4h5.6V180.5z"/>
		<path d="M14.3,182.4l-0.5-0.4c0.4-0.6,0.7-1.2,0.7-1.9v-1.1h0.9v0.9C15.4,181,15,181.8,14.3,182.4z"/>
		<path d="M23.7,176c0,1.5-0.3,2.6-0.8,3.4s-1.4,1.2-2.4,1.2c-1.1,0-1.9-0.4-2.4-1.1c-0.6-0.8-0.8-1.9-0.9-3.3v-1.9
			c0-1.5,0.3-2.6,0.8-3.4s1.4-1.2,2.4-1.2c1.1,0,1.9,0.4,2.4,1.1s0.8,1.8,0.9,3.3V176z M22.8,174.1c0-1.2-0.2-2.1-0.6-2.8
			c-0.4-0.6-1-0.9-1.8-0.9c-0.8,0-1.4,0.3-1.8,0.9S18,172.8,18,174v2.1c0,1.2,0.2,2.1,0.6,2.8c0.4,0.6,1,1,1.8,1
			c0.8,0,1.4-0.3,1.8-0.9c0.4-0.6,0.6-1.6,0.6-2.8V174.1z"/>
	</g>
</g>
<g>
	<g>
		<path d="M12.8,129.3H6.1v-0.7l3.7-4.1c0.6-0.7,1-1.3,1.3-1.7s0.4-0.9,0.4-1.3c0-0.7-0.2-1.2-0.6-1.6c-0.4-0.4-0.9-0.6-1.6-0.6
			c-0.7,0-1.3,0.2-1.7,0.7c-0.4,0.5-0.7,1.1-0.7,1.8H5.9c0-0.6,0.1-1.1,0.4-1.6c0.3-0.5,0.7-0.9,1.2-1.2c0.5-0.3,1.1-0.4,1.7-0.4
			c1,0,1.7,0.3,2.3,0.8c0.5,0.5,0.8,1.2,0.8,2.1c0,0.5-0.2,1-0.5,1.6c-0.3,0.6-0.9,1.3-1.6,2.2l-3,3.4h5.6V129.3z"/>
		<path d="M14.4,131.3l-0.5-0.4c0.4-0.6,0.7-1.2,0.7-1.9v-1.1h0.9v0.9C15.4,129.9,15.1,130.7,14.4,131.3z"/>
		<path d="M17.9,123.8l0.5-5.2h5.3v0.8h-4.6l-0.4,3.6c0.6-0.4,1.2-0.6,2-0.6c1,0,1.7,0.3,2.3,0.9c0.6,0.6,0.9,1.5,0.9,2.5
			c0,1.1-0.3,2-0.8,2.6s-1.3,0.9-2.4,0.9c-0.9,0-1.7-0.3-2.3-0.8s-0.9-1.2-1-2.2h0.8c0.1,0.7,0.3,1.3,0.7,1.7c0.4,0.4,1,0.6,1.7,0.6
			c0.8,0,1.3-0.2,1.7-0.7c0.4-0.5,0.6-1.2,0.6-2.1c0-0.8-0.2-1.4-0.7-1.9c-0.4-0.5-1-0.7-1.8-0.7c-0.4,0-0.8,0.1-1.1,0.2
			c-0.3,0.1-0.6,0.3-1,0.6L17.9,123.8z"/>
		<path d="M30.2,121.4l0,1.3c0.3-0.5,0.7-0.8,1.1-1.1s0.9-0.4,1.5-0.4c1.2,0,2,0.5,2.4,1.5c0.3-0.5,0.7-0.9,1.1-1.1s1-0.4,1.6-0.4
			c1.7,0,2.6,0.9,2.6,2.8v5.3h-0.9v-5.2c0-0.7-0.2-1.2-0.5-1.6c-0.3-0.3-0.8-0.5-1.5-0.5c-0.6,0-1.2,0.2-1.6,0.6
			c-0.4,0.4-0.7,0.9-0.7,1.5v5.2h-0.9V124c0-0.7-0.2-1.2-0.5-1.5c-0.3-0.3-0.8-0.5-1.5-0.5c-0.6,0-1,0.2-1.4,0.5
			c-0.4,0.3-0.7,0.8-0.9,1.4v5.4h-0.9v-7.9H30.2z"/>
		<path d="M43.7,129.3h-0.9v-11.2h0.9V129.3z"/>
		<path d="M45.7,125.3c0-1.2,0.3-2.2,0.8-2.9c0.5-0.7,1.3-1.1,2.2-1.1c1.1,0,1.9,0.4,2.4,1.3v-4.4h0.9v11.2h-0.8l0-1.1
			c-0.6,0.8-1.4,1.2-2.5,1.2c-0.9,0-1.6-0.4-2.2-1.1c-0.6-0.7-0.8-1.7-0.8-3V125.3z M46.6,125.4c0,1,0.2,1.8,0.6,2.4s1,0.9,1.7,0.9
			c1.1,0,1.8-0.5,2.3-1.4v-3.7c-0.5-1-1.2-1.5-2.3-1.5c-0.7,0-1.3,0.3-1.7,0.9C46.8,123.4,46.6,124.3,46.6,125.4z"/>
		<path d="M54.3,128.8c0-0.2,0.1-0.3,0.2-0.4c0.1-0.1,0.3-0.2,0.5-0.2s0.3,0.1,0.5,0.2c0.1,0.1,0.2,0.3,0.2,0.4s-0.1,0.3-0.2,0.4
			c-0.1,0.1-0.3,0.2-0.5,0.2s-0.3-0.1-0.5-0.2C54.4,129.1,54.3,128.9,54.3,128.8z"/>
		<path d="M63,119.3v2h1.6v0.7H63v5.3c0,0.4,0.1,0.8,0.2,1c0.2,0.2,0.4,0.3,0.8,0.3c0.1,0,0.4,0,0.7-0.1l0,0.7
			c-0.2,0.1-0.5,0.1-0.9,0.1c-0.6,0-1-0.2-1.3-0.5s-0.4-0.9-0.4-1.5v-5.3h-1.5v-0.7h1.5v-2H63z"/>
		<path d="M71.5,128.3c-0.5,0.8-1.4,1.1-2.5,1.1c-0.8,0-1.5-0.2-1.9-0.7c-0.4-0.5-0.7-1.2-0.7-2.2v-5.2h0.9v5c0,1.5,0.6,2.3,1.8,2.3
			c1.3,0,2.1-0.5,2.4-1.6v-5.7h0.9v7.9h-0.8L71.5,128.3z"/>
		<path d="M75.5,121.4l0,1.4c0.3-0.5,0.7-0.9,1.1-1.1c0.4-0.3,0.9-0.4,1.5-0.4c0.8,0,1.5,0.2,1.9,0.7s0.6,1.2,0.6,2.2v5.2h-0.9v-5.2
			c0-0.7-0.2-1.2-0.5-1.6c-0.3-0.3-0.8-0.5-1.4-0.5c-0.5,0-1,0.2-1.4,0.5c-0.4,0.3-0.7,0.8-0.9,1.4v5.4h-0.9v-7.9H75.5z"/>
		<path d="M94.3,126c-0.1,1.1-0.5,2-1.2,2.6c-0.7,0.6-1.6,0.9-2.7,0.9c-0.8,0-1.5-0.2-2.1-0.6c-0.6-0.4-1.1-1-1.4-1.7
			c-0.3-0.7-0.5-1.6-0.5-2.5v-1.4c0-0.9,0.2-1.8,0.5-2.5s0.8-1.3,1.4-1.7c0.6-0.4,1.3-0.6,2.1-0.6c1.1,0,2,0.3,2.7,0.9
			c0.7,0.6,1,1.5,1.2,2.6h-0.9c-0.2-1.8-1.2-2.7-3-2.7c-1,0-1.7,0.4-2.3,1.1c-0.6,0.7-0.9,1.7-0.9,3v1.3c0,1.2,0.3,2.2,0.8,2.9
			c0.6,0.7,1.3,1.1,2.3,1.1c0.9,0,1.7-0.2,2.1-0.7c0.5-0.5,0.8-1.1,0.9-2H94.3z"/>
		<path d="M104.4,124.5c0,1-0.2,1.8-0.5,2.6c-0.3,0.7-0.8,1.3-1.5,1.7s-1.4,0.6-2.2,0.6c-1.2,0-2.3-0.4-3-1.3
			c-0.8-0.9-1.1-2.1-1.1-3.6v-1.1c0-1,0.2-1.8,0.5-2.6c0.3-0.7,0.8-1.3,1.5-1.7c0.6-0.4,1.4-0.6,2.2-0.6s1.5,0.2,2.2,0.6
			c0.6,0.4,1.1,1,1.5,1.7s0.5,1.6,0.5,2.5V124.5z M103.5,123.4c0-1.3-0.3-2.3-0.9-3s-1.4-1.1-2.4-1.1c-1,0-1.8,0.4-2.4,1.1
			c-0.6,0.7-0.9,1.7-0.9,3.1v1.1c0,1.3,0.3,2.3,0.9,3c0.6,0.7,1.4,1.1,2.4,1.1c1,0,1.8-0.4,2.4-1.1c0.6-0.7,0.9-1.7,0.9-3.1V123.4z"
			/>
		<path d="M109.9,132.3h-4.1v-0.6l2.2-2.4c0.3-0.4,0.5-0.7,0.7-0.9c0.1-0.2,0.2-0.5,0.2-0.7c0-0.3-0.1-0.6-0.3-0.8
			c-0.2-0.2-0.5-0.3-0.8-0.3c-0.4,0-0.7,0.1-0.9,0.3s-0.3,0.5-0.3,0.9h-0.8c0-0.6,0.2-1,0.6-1.4c0.4-0.4,0.9-0.5,1.5-0.5
			c0.6,0,1,0.2,1.4,0.5c0.3,0.3,0.5,0.7,0.5,1.2c0,0.6-0.4,1.3-1.2,2.2l-1.7,1.8h3.1V132.3z"/>
		<path d="M118.1,129.4c-0.7,0-1.3-0.2-1.8-0.5c-0.5-0.3-1-0.8-1.3-1.4c-0.3-0.6-0.5-1.3-0.5-2v-0.3c0-0.8,0.1-1.4,0.4-2.1
			c0.3-0.6,0.7-1.1,1.2-1.4c0.5-0.3,1.1-0.5,1.7-0.5c1,0,1.7,0.3,2.3,1c0.6,0.7,0.8,1.6,0.8,2.7v0.5h-5.7v0.2c0,0.9,0.3,1.6,0.8,2.2
			c0.5,0.6,1.2,0.9,1.9,0.9c0.5,0,0.9-0.1,1.2-0.3c0.4-0.2,0.7-0.4,1-0.8l0.5,0.4C120.2,129,119.3,129.4,118.1,129.4z M117.9,122
			c-0.7,0-1.2,0.2-1.7,0.7c-0.5,0.5-0.7,1.1-0.8,1.9h4.8v-0.1c0-0.8-0.2-1.4-0.7-1.9S118.6,122,117.9,122z"/>
		<path d="M123.6,121.4l0,1.3c0.3-0.5,0.7-0.8,1.1-1.1s0.9-0.4,1.5-0.4c1.2,0,2,0.5,2.4,1.5c0.3-0.5,0.7-0.9,1.1-1.1s1-0.4,1.6-0.4
			c1.7,0,2.6,0.9,2.6,2.8v5.3H133v-5.2c0-0.7-0.2-1.2-0.5-1.6c-0.3-0.3-0.8-0.5-1.5-0.5c-0.6,0-1.2,0.2-1.6,0.6
			c-0.4,0.4-0.7,0.9-0.7,1.5v5.2h-0.9V124c0-0.7-0.2-1.2-0.5-1.5c-0.3-0.3-0.8-0.5-1.5-0.5c-0.6,0-1,0.2-1.4,0.5
			c-0.4,0.3-0.7,0.8-0.9,1.4v5.4h-0.9v-7.9H123.6z"/>
		<path d="M136,119.1c0-0.2,0.1-0.3,0.2-0.4c0.1-0.1,0.3-0.2,0.4-0.2s0.3,0.1,0.4,0.2c0.1,0.1,0.2,0.3,0.2,0.4
			c0,0.2-0.1,0.3-0.2,0.4c-0.1,0.1-0.3,0.2-0.4,0.2s-0.3-0.1-0.4-0.2C136.1,119.4,136,119.3,136,119.1z M137,129.3h-0.9v-7.9h0.9
			V129.3z"/>
		<path d="M144.2,127.3c0-0.4-0.2-0.8-0.5-1c-0.3-0.3-0.9-0.5-1.6-0.6c-0.7-0.1-1.2-0.3-1.6-0.5c-0.4-0.2-0.7-0.4-0.9-0.7
			c-0.2-0.3-0.3-0.6-0.3-1c0-0.6,0.3-1.1,0.8-1.5c0.5-0.4,1.2-0.6,2-0.6c0.9,0,1.6,0.2,2.1,0.7c0.5,0.4,0.8,1,0.8,1.7h-0.9
			c0-0.5-0.2-0.8-0.6-1.2c-0.4-0.3-0.9-0.5-1.5-0.5c-0.6,0-1,0.1-1.4,0.4c-0.3,0.3-0.5,0.6-0.5,1c0,0.4,0.1,0.7,0.4,0.9
			c0.3,0.2,0.8,0.4,1.6,0.6c0.8,0.2,1.3,0.4,1.7,0.6c0.4,0.2,0.7,0.5,0.9,0.7s0.3,0.6,0.3,1c0,0.7-0.3,1.2-0.8,1.6
			c-0.5,0.4-1.2,0.6-2.1,0.6c-0.9,0-1.7-0.2-2.2-0.7c-0.6-0.4-0.9-1-0.9-1.7h0.9c0,0.5,0.2,0.9,0.6,1.2c0.4,0.3,0.9,0.4,1.6,0.4
			c0.6,0,1.1-0.1,1.5-0.4S144.2,127.7,144.2,127.3z"/>
		<path d="M148.4,118.1h1.1l-1.7,2.1l-0.8,0L148.4,118.1z M148,129.3h-0.9v-7.9h0.9V129.3z"/>
		<path d="M153.9,130.2h-0.8l4.5-11.6h0.8L153.9,130.2z"/>
		<path d="M164.4,121.4l0,1.3c0.3-0.5,0.7-0.8,1.1-1.1s0.9-0.4,1.5-0.4c1.2,0,2,0.5,2.4,1.5c0.3-0.5,0.7-0.9,1.1-1.1s1-0.4,1.6-0.4
			c1.7,0,2.6,0.9,2.6,2.8v5.3h-0.9v-5.2c0-0.7-0.2-1.2-0.5-1.6c-0.3-0.3-0.8-0.5-1.5-0.5c-0.6,0-1.2,0.2-1.6,0.6
			c-0.4,0.4-0.7,0.9-0.7,1.5v5.2h-0.9V124c0-0.7-0.2-1.2-0.5-1.5c-0.3-0.3-0.8-0.5-1.5-0.5c-0.6,0-1,0.2-1.4,0.5
			c-0.4,0.3-0.7,0.8-0.9,1.4v5.4h-0.9v-7.9H164.4z"/>
		<path d="M177.9,129.3H177v-11.2h0.9V129.3z"/>
		<path d="M179.9,125.3c0-1.2,0.3-2.2,0.8-2.9c0.5-0.7,1.3-1.1,2.2-1.1c1.1,0,1.9,0.4,2.4,1.3v-4.4h0.9v11.2h-0.8l0-1.1
			c-0.6,0.8-1.4,1.2-2.5,1.2c-0.9,0-1.6-0.4-2.2-1.1c-0.6-0.7-0.8-1.7-0.8-3V125.3z M180.8,125.4c0,1,0.2,1.8,0.6,2.4s1,0.9,1.7,0.9
			c1.1,0,1.8-0.5,2.3-1.4v-3.7c-0.5-1-1.2-1.5-2.3-1.5c-0.7,0-1.3,0.3-1.7,0.9C181,123.4,180.8,124.3,180.8,125.4z"/>
		<path d="M188.5,128.8c0-0.2,0.1-0.3,0.2-0.4c0.1-0.1,0.3-0.2,0.5-0.2s0.3,0.1,0.5,0.2c0.1,0.1,0.2,0.3,0.2,0.4s-0.1,0.3-0.2,0.4
			c-0.1,0.1-0.3,0.2-0.5,0.2s-0.3-0.1-0.5-0.2C188.6,129.1,188.5,128.9,188.5,128.8z"/>
		<path d="M202.2,125.4c0,1.2-0.3,2.2-0.8,2.9c-0.5,0.7-1.3,1.1-2.2,1.1c-1.1,0-1.9-0.4-2.5-1.1v4h-0.9v-11h0.8l0,1.1
			c0.6-0.8,1.4-1.3,2.5-1.3c0.9,0,1.7,0.4,2.2,1.1c0.5,0.7,0.8,1.7,0.8,3V125.4z M201.3,125.3c0-1-0.2-1.8-0.6-2.4
			c-0.4-0.6-1-0.9-1.7-0.9c-0.5,0-1,0.1-1.4,0.4s-0.7,0.6-0.9,1.1v3.8c0.2,0.5,0.5,0.8,0.9,1c0.4,0.2,0.9,0.4,1.4,0.4
			c0.7,0,1.3-0.3,1.7-0.9C201.1,127.2,201.3,126.4,201.3,125.3z"/>
		<path d="M203.7,125.2c0-0.8,0.1-1.4,0.4-2.1c0.3-0.6,0.7-1.1,1.3-1.4c0.5-0.3,1.2-0.5,1.8-0.5c1.1,0,1.9,0.4,2.6,1.1
			c0.7,0.7,1,1.7,1,2.9v0.2c0,0.8-0.1,1.5-0.4,2.1c-0.3,0.6-0.7,1.1-1.2,1.4c-0.5,0.3-1.2,0.5-1.8,0.5c-1,0-1.9-0.4-2.6-1.1
			c-0.7-0.7-1-1.7-1-2.9V125.2z M204.5,125.5c0,0.9,0.2,1.7,0.7,2.3c0.5,0.6,1.1,0.9,1.9,0.9c0.8,0,1.4-0.3,1.9-0.9
			c0.5-0.6,0.7-1.4,0.7-2.4v-0.2c0-0.6-0.1-1.2-0.3-1.7s-0.5-0.9-0.9-1.2s-0.9-0.4-1.4-0.4c-0.8,0-1.4,0.3-1.9,0.9
			c-0.5,0.6-0.7,1.4-0.7,2.4V125.5z"/>
		<path d="M214.9,128.1l2.4-6.7h0.9l-3,7.9h-0.7l-3-7.9h0.9L214.9,128.1z"/>
		<path d="M219,125.2c0-0.8,0.1-1.4,0.4-2.1c0.3-0.6,0.7-1.1,1.3-1.4c0.5-0.3,1.2-0.5,1.8-0.5c1.1,0,1.9,0.4,2.6,1.1
			c0.7,0.7,1,1.7,1,2.9v0.2c0,0.8-0.1,1.5-0.4,2.1c-0.3,0.6-0.7,1.1-1.2,1.4c-0.5,0.3-1.2,0.5-1.8,0.5c-1,0-1.9-0.4-2.6-1.1
			c-0.7-0.7-1-1.7-1-2.9V125.2z M219.9,125.5c0,0.9,0.2,1.7,0.7,2.3c0.5,0.6,1.1,0.9,1.9,0.9c0.8,0,1.4-0.3,1.9-0.9
			c0.5-0.6,0.7-1.4,0.7-2.4v-0.2c0-0.6-0.1-1.2-0.3-1.7s-0.5-0.9-0.9-1.2s-0.9-0.4-1.4-0.4c-0.8,0-1.4,0.3-1.9,0.9
			c-0.5,0.6-0.7,1.4-0.7,2.4V125.5z"/>
		<path d="M228.9,129.3H228v-11.2h0.9V129.3z"/>
		<path d="M234.4,129.4c-0.7,0-1.3-0.2-1.8-0.5c-0.5-0.3-1-0.8-1.3-1.4c-0.3-0.6-0.5-1.3-0.5-2v-0.3c0-0.8,0.1-1.4,0.4-2.1
			c0.3-0.6,0.7-1.1,1.2-1.4c0.5-0.3,1.1-0.5,1.7-0.5c1,0,1.7,0.3,2.3,1c0.6,0.7,0.8,1.6,0.8,2.7v0.5h-5.7v0.2c0,0.9,0.3,1.6,0.8,2.2
			c0.5,0.6,1.2,0.9,1.9,0.9c0.5,0,0.9-0.1,1.2-0.3c0.4-0.2,0.7-0.4,1-0.8l0.5,0.4C236.5,129,235.6,129.4,234.4,129.4z M234.2,122
			c-0.7,0-1.2,0.2-1.7,0.7c-0.5,0.5-0.7,1.1-0.8,1.9h4.8v-0.1c0-0.8-0.2-1.4-0.7-1.9S234.9,122,234.2,122z"/>
		<path d="M239.9,121.4l0,1.4c0.3-0.5,0.7-0.9,1.1-1.1c0.4-0.3,0.9-0.4,1.5-0.4c0.8,0,1.5,0.2,1.9,0.7s0.6,1.2,0.6,2.2v5.2h-0.9
			v-5.2c0-0.7-0.2-1.2-0.5-1.6c-0.3-0.3-0.8-0.5-1.4-0.5c-0.5,0-1,0.2-1.4,0.5c-0.4,0.3-0.7,0.8-0.9,1.4v5.4H239v-7.9H239.9z"/>
		<path d="M250.4,129.4c-0.7,0-1.3-0.2-1.8-0.5c-0.5-0.3-1-0.8-1.3-1.4c-0.3-0.6-0.5-1.3-0.5-2v-0.3c0-0.8,0.1-1.4,0.4-2.1
			c0.3-0.6,0.7-1.1,1.2-1.4c0.5-0.3,1.1-0.5,1.7-0.5c1,0,1.7,0.3,2.3,1c0.6,0.7,0.8,1.6,0.8,2.7v0.5h-5.7v0.2c0,0.9,0.3,1.6,0.8,2.2
			c0.5,0.6,1.2,0.9,1.9,0.9c0.5,0,0.9-0.1,1.2-0.3c0.4-0.2,0.7-0.4,1-0.8l0.5,0.4C252.5,129,251.6,129.4,250.4,129.4z M250.2,122
			c-0.7,0-1.2,0.2-1.7,0.7c-0.5,0.5-0.7,1.1-0.8,1.9h4.8v-0.1c0-0.8-0.2-1.4-0.7-1.9S250.9,122,250.2,122z"/>
		<path d="M256.9,125.3l-1,1v3H255v-11.2h0.9v7.2l0.8-0.9l3-3h1.1l-3.4,3.3l3.7,4.6h-1L256.9,125.3z"/>
	</g>
</g>
<g>
	<g>
		<path d="M5.8,22.9v-4.7c0-2.8,1.6-4.5,4.3-4.5s4.3,1.7,4.3,4.5v4.7c0,2.8-1.6,4.5-4.3,4.5S5.8,25.7,5.8,22.9z M11.6,22.9v-4.7
			c0-1.3-0.5-1.9-1.5-1.9s-1.5,0.7-1.5,1.9v4.7c0,1.3,0.5,1.9,1.5,1.9S11.6,24.1,11.6,22.9z"/>
		<path d="M17.2,13.9H20l1.2,6.3c0.2,1,0.4,2.6,0.6,3.7h0.1c0.1-1.1,0.4-2.7,0.6-3.7l1.2-6.3h2.8l-3.2,13.3h-2.8L17.2,13.9z"/>
		<path d="M36.5,24.6v2.6h-7V13.9h6.9v2.6h-4.2v2.8h3.8v2.5h-3.8v2.9H36.5z M32,12.6L30.5,10h1.7l0.8,1.3l0.8-1.3h1.7L34,12.6H32z"
			/>
		<path d="M43.9,22.7h-1v4.5h-2.7V13.9h3.9c2.6,0,4.2,1.6,4.2,4.4c0,1.8-0.7,3.1-1.8,3.8l2.5,5H46L43.9,22.7z M42.9,12.6L41.4,10
			h1.7l0.8,1.3l0.8-1.3h1.7l-1.5,2.6H42.9z M43,20.1h1.1c1,0,1.5-0.6,1.5-1.8c0-1.2-0.5-1.9-1.5-1.9H43V20.1z"/>
		<path d="M59.2,24.6v2.6h-7V13.9H59v2.6h-4.2v2.8h3.8v2.5h-3.8v2.9H59.2z"/>
		<path d="M62.9,13.9h2.7l2.5,5.8c0.3,0.8,0.6,1.7,0.9,2.5l0.1-0.1c-0.2-1.7-0.4-4-0.4-5.2v-3.1h2.7v13.3h-2.7L66.5,22l-1.2-3.2
			l-0.1,0.1c0.2,1.7,0.3,4.2,0.3,5.6v2.7h-2.7V13.9z"/>
		<path d="M82.7,24.6v2.6h-7V13.9h6.9v2.6h-4.2v2.8h3.8v2.5h-3.8v2.9H82.7z M79.7,12.6h-1.8l1.8-2.6h2.1L79.7,12.6z"/>
		<path d="M99.2,24.6v2.6h-7V13.9H99v2.6h-4.2v2.8h3.8v2.5h-3.8v2.9H99.2z"/>
		<path d="M114.4,13.9v13.3h-2.6v-3.3c0.1-1.6,0.1-3.2,0.2-4.8l-0.1,0l-1.2,3.5l-0.7,1.8h-2.7l-0.7-1.8l-1.2-3.5l-0.1,0
			c0.1,1.6,0.1,3.2,0.2,4.8v3.3H103V13.9h2.7l2.1,5c0.3,0.7,0.7,1.8,0.9,2.3h0.1c0.2-0.5,0.6-1.7,0.9-2.3l2.1-5H114.4z"/>
		<path d="M118.7,13.9h2.7v13.3h-2.7V13.9z"/>
		<path d="M124.8,23.3h2.8c0,1.1,0.5,1.5,1.4,1.5c0.9,0,1.3-0.5,1.3-1.2c0-2.2-5.2-2.5-5.2-6.5c0-2,1.4-3.5,3.9-3.5
			c2.5,0,3.9,1.5,3.9,3.9h-2.8c0-0.9-0.4-1.3-1.2-1.3c-0.7,0-1.1,0.4-1.1,1c0,2.1,5.3,2.2,5.3,6.5c0,2.2-1.5,3.8-4.2,3.8
			C126.4,27.4,124.8,26,124.8,23.3z"/>
		<path d="M143.5,24.6v2.6h-7V13.9h6.9v2.6h-4.2v2.8h3.8v2.5h-3.8v2.9H143.5z"/>
		<path d="M152.5,23.1v-5.2c0-2.8,1.5-4.3,4.1-4.3c2.7,0,4.1,1.5,4.2,4.3h-2.7c-0.1-1.2-0.5-1.7-1.6-1.7c-0.8,0-1.3,0.5-1.3,1.7v5.2
			c0,1.1,0.5,1.7,1.3,1.7c1,0,1.5-0.5,1.6-1.7h2.7c-0.1,2.8-1.6,4.3-4.3,4.3C154.1,27.4,152.5,25.9,152.5,23.1z"/>
		<path d="M164,22.9v-4.7c0-2.8,1.6-4.5,4.3-4.5s4.3,1.7,4.3,4.5v4.7c0,2.8-1.6,4.5-4.3,4.5S164,25.7,164,22.9z M169.8,22.9v-4.7
			c0-1.3-0.5-1.9-1.5-1.9s-1.5,0.7-1.5,1.9v4.7c0,1.3,0.5,1.9,1.5,1.9S169.8,24.1,169.8,22.9z"/>
		<path d="M175.6,28.6c0-2.5,2.8-3.6,2.8-4.9c0-0.3-0.2-0.7-0.6-0.7c-0.4,0-0.6,0.3-0.7,0.8h-1.4c0.1-1.5,0.8-2.2,2.1-2.2
			c1.5,0,2.1,1,2.1,2c0,2-2.7,3.3-2.7,4.5h2.7v1.4h-4.3V28.6z"/>
		<path d="M193.1,25h-2.8l-0.4,2.2h-2.8l3.2-13.3h2.9l3.2,13.3h-2.8L193.1,25z M192.6,22.4l-0.3-1.5c-0.2-0.9-0.4-2.6-0.5-3.6h-0.1
			c-0.1,1.1-0.3,2.7-0.5,3.6l-0.3,1.5H192.6z"/>
		<path d="M210.1,25h-2.8l-0.4,2.2H204l3.2-13.3h2.9l3.2,13.3h-2.8L210.1,25z M209.6,22.4l-0.3-1.5c-0.2-0.9-0.4-2.6-0.5-3.6h-0.1
			c-0.1,1.1-0.3,2.7-0.5,3.6l-0.3,1.5H209.6z"/>
		<path d="M223.1,24.6v2.6h-6.6V13.9h2.7v10.7H223.1z"/>
		<path d="M225.9,22.9v-4.7c0-2.8,1.6-4.5,4.3-4.5s4.3,1.7,4.3,4.5v4.7c0,2.8-1.6,4.5-4.3,4.5S225.9,25.7,225.9,22.9z M231.7,22.9
			v-4.7c0-1.3-0.5-1.9-1.5-1.9s-1.5,0.7-1.5,1.9v4.7c0,1.3,0.5,1.9,1.5,1.9S231.7,24.1,231.7,22.9z"/>
		<path d="M241.8,22.1l-0.7,1.2v3.8h-2.7V13.9h2.7V19l0.7-1.5l1.9-3.6h3.1l-3.4,5.8l4,7.5h-3L241.8,22.1z"/>
		<path d="M249.7,22.9v-4.7c0-2.8,1.6-4.5,4.3-4.5s4.3,1.7,4.3,4.5v4.7c0,2.8-1.6,4.5-4.3,4.5S249.7,25.7,249.7,22.9z M255.5,22.9
			v-4.7c0-1.3-0.5-1.9-1.5-1.9s-1.5,0.7-1.5,1.9v4.7c0,1.3,0.5,1.9,1.5,1.9S255.5,24.1,255.5,22.9z"/>
		<path d="M261,13.9h2.8l1.2,6.3c0.2,1,0.4,2.6,0.6,3.7h0.1c0.1-1.1,0.4-2.7,0.6-3.7l1.2-6.3h2.8L267,27.2h-2.8L261,13.9z"/>
		<path d="M277.6,25h-2.8l-0.4,2.2h-2.8l3.2-13.3h2.9l3.2,13.3H278L277.6,25z M277.1,22.4l-0.3-1.5c-0.2-0.9-0.4-2.6-0.5-3.6h-0.1
			c-0.1,1.1-0.3,2.7-0.5,3.6l-0.3,1.5H277.1z"/>
		<path d="M284,13.9h2.7l2.5,5.8c0.3,0.8,0.6,1.7,0.9,2.5l0.1-0.1c-0.2-1.7-0.4-4-0.4-5.2v-3.1h2.7v13.3h-2.7l-2.2-5.1l-1.2-3.2
			l-0.1,0.1c0.2,1.7,0.3,4.2,0.3,5.6v2.7H284V13.9z"/>
		<path d="M303.8,24.6v2.6h-7V13.9h6.9v2.6h-4.2v2.8h3.8v2.5h-3.8v2.9H303.8z M300.7,12.6h-1.8l1.8-2.6h2.1L300.7,12.6z"/>
		<path d="M321.4,18.4c0,2.8-1.6,4.5-4.4,4.5h-1.2v4.3h-2.7V13.9h3.9C319.8,13.9,321.4,15.5,321.4,18.4z M318.7,18.4
			c0-1.3-0.6-2-1.7-2h-1.1v3.9h1.1C318.1,20.3,318.7,19.7,318.7,18.4z"/>
		<path d="M324.7,22.9v-4.7c0-2.8,1.6-4.5,4.3-4.5s4.3,1.7,4.3,4.5v4.7c0,2.8-1.6,4.5-4.3,4.5S324.7,25.7,324.7,22.9z M330.5,22.9
			v-4.7c0-1.3-0.5-1.9-1.5-1.9s-1.5,0.7-1.5,1.9v4.7c0,1.3,0.5,1.9,1.5,1.9S330.5,24.1,330.5,22.9z"/>
		<path d="M336.1,13.9h2.8l1.2,6.3c0.2,1,0.4,2.6,0.6,3.7h0.1c0.1-1.1,0.4-2.7,0.6-3.7l1.2-6.3h2.8l-3.2,13.3h-2.8L336.1,13.9z"/>
		<path d="M348,22.9v-4.7c0-2.8,1.6-4.5,4.3-4.5s4.3,1.7,4.3,4.5v4.7c0,2.8-1.6,4.5-4.3,4.5S348,25.7,348,22.9z M353.8,22.9v-4.7
			c0-1.3-0.5-1.9-1.5-1.9s-1.5,0.7-1.5,1.9v4.7c0,1.3,0.5,1.9,1.5,1.9S353.8,24.1,353.8,22.9z"/>
		<path d="M367.1,24.6v2.6h-6.6V13.9h2.7v10.7H367.1z"/>
		<path d="M377.4,24.6v2.6h-7V13.9h6.9v2.6H373v2.8h3.8v2.5H373v2.9H377.4z"/>
		<path d="M381.1,13.9h2.7l2.5,5.8c0.3,0.8,0.6,1.7,0.9,2.5l0.1-0.1c-0.2-1.7-0.4-4-0.4-5.2v-3.1h2.7v13.3h-2.7l-2.2-5.1l-1.2-3.2
			l-0.1,0.1c0.2,1.7,0.3,4.2,0.3,5.6v2.7h-2.7V13.9z"/>
		<path d="M397.2,22.1l-0.7,1.2v3.8h-2.7V13.9h2.7V19l0.7-1.5l1.9-3.6h3.1l-3.4,5.8l4,7.5h-3L397.2,22.1z"/>
		<path d="M408.1,23.2l-3.1-9.3h2.8l1.1,3.7c0.1,0.4,0.4,1.5,0.6,2.1h0.1c0.2-0.6,0.5-1.7,0.6-2.2l1-3.6h2.8l-3.1,9.3v4h-2.7V23.2z"
			/>
		<path d="M421.6,13.9h2.8l1.2,6.3c0.2,1,0.4,2.6,0.6,3.7h0.1c0.1-1.1,0.4-2.7,0.6-3.7l1.2-6.3h2.8l-3.2,13.3h-2.8L421.6,13.9z"/>
		<path d="M438.4,27.6c1.5,0,2.3-0.5,2.3-2.5V13.9h2.7v11.3c0,3-1.7,4.9-5,4.9V27.6z"/>
		<path d="M454.6,24.6v2.6h-7V13.9h6.9v2.6h-4.2v2.8h3.8v2.5h-3.8v2.9H454.6z"/>
		<path d="M458.4,13.9h3.6c2.7,0,4.3,1.6,4.3,4.4v4.4c0,2.8-1.6,4.5-4.2,4.5h-3.7V13.9z M462.1,24.6c1,0,1.5-0.7,1.5-1.9v-4.4
			c0-1.2-0.5-1.8-1.5-1.8h-1v8.2H462.1z"/>
		<path d="M470.2,13.9h2.7l2.5,5.8c0.3,0.8,0.6,1.7,0.9,2.5l0.1-0.1c-0.2-1.7-0.4-4-0.4-5.2v-3.1h2.7v13.3H476l-2.2-5.1l-1.2-3.2
			l-0.1,0.1c0.2,1.7,0.3,4.2,0.3,5.6v2.7h-2.7V13.9z"/>
		<path d="M482.5,22.9v-4.7c0-2.8,1.6-4.5,4.3-4.5s4.3,1.7,4.3,4.5v4.7c0,2.8-1.6,4.5-4.3,4.5S482.5,25.7,482.5,22.9z M488.3,22.9
			v-4.7c0-1.3-0.5-1.9-1.5-1.9s-1.5,0.7-1.5,1.9v4.7c0,1.3,0.5,1.9,1.5,1.9S488.3,24.1,488.3,22.9z"/>
		<path d="M502.1,16.4h-2.6v10.7h-2.8V16.4h-2.6v-2.6h8V16.4z"/>
		<path d="M511.9,24.6v2.6h-6.6V13.9h2.7v10.7H511.9z"/>
		<path d="M515.1,13.9h2.7v13.3h-2.7V13.9z"/>
		<path d="M520.9,13.9h2.8l1.2,6.3c0.2,1,0.4,2.6,0.6,3.7h0.1c0.1-1.1,0.4-2.7,0.6-3.7l1.2-6.3h2.8l-3.2,13.3h-2.8L520.9,13.9z"/>
		<path d="M535.2,23.2l-3.1-9.3h2.8l1.1,3.7c0.1,0.4,0.4,1.5,0.6,2.1h0.1c0.2-0.6,0.5-1.7,0.6-2.2l1-3.6h2.8l-3.1,9.3v4h-2.7V23.2z
			 M537,10h2.1l-2.1,2.6h-1.8L537,10z"/>
		<path d="M543.7,23.1v-5.2c0-2.8,1.5-4.3,4.1-4.3c2.7,0,4.1,1.5,4.2,4.3h-2.7c-0.1-1.2-0.5-1.7-1.6-1.7c-0.8,0-1.3,0.5-1.3,1.7v5.2
			c0,1.1,0.5,1.7,1.3,1.7c1,0,1.5-0.5,1.6-1.7h2.7c-0.1,2.8-1.6,4.3-4.3,4.3C545.2,27.4,543.7,25.9,543.7,23.1z"/>
		<path d="M563.7,13.9v13.3H561v-5.4h-2.7v5.4h-2.7V13.9h2.7v5.3h2.7v-5.3H563.7z"/>
		<path d="M580.4,24.6v2.6h-6.6V13.9h2.7v10.7H580.4z"/>
		<path d="M590.6,24.6v2.6h-7V13.9h6.9v2.6h-4.2v2.8h3.8v2.5h-3.8v2.9H590.6z"/>
		<path d="M601.4,16.4h-2.6v10.7H596V16.4h-2.6v-2.6h8V16.4z"/>
		<path d="M611.6,24.6v2.6h-7V13.9h6.9v2.6h-4.2v2.8h3.8v2.5h-3.8v2.9H611.6z"/>
		<path d="M615,23.1v-5.2c0-2.8,1.5-4.3,4.1-4.3c2.7,0,4.1,1.5,4.2,4.3h-2.7c-0.1-1.2-0.5-1.7-1.6-1.7c-0.8,0-1.3,0.5-1.3,1.7v5.2
			c0,1.1,0.5,1.7,1.3,1.7c1,0,1.5-0.5,1.6-1.7h2.7c-0.1,2.8-1.6,4.3-4.3,4.3C616.5,27.4,615,25.9,615,23.1z"/>
		<path d="M635,13.9v13.3h-2.7v-5.4h-2.7v5.4h-2.7V13.9h2.7v5.3h2.7v-5.3H635z"/>
	</g>
</g>
<g id="patch_47_1_" opacity="0.1">
	<g>
		<path stroke="#FFFFFF" stroke-width="0.75" stroke-miterlimit="10" d="M43,389.9h38.1V175.7H43V389.9z"/>
	</g>
</g>
<g id="patch_48_1_" opacity="0.1">
	<g>
		<path stroke="#FFFFFF" stroke-width="1.107" stroke-miterlimit="10" d="M81.2,389.9h38.1V177.1H81.2V389.9z"/>
	</g>
</g>
<g id="patch_49_1_" opacity="0.1">
	<g>
		<path stroke="#FFFFFF" stroke-width="1.107" stroke-miterlimit="10" d="M119.3,389.9h38.1V165.7h-38.1V389.9z"/>
	</g>
</g>
<g id="patch_50_1_" opacity="0.1">
	<g>
		<path stroke="#FFFFFF" stroke-width="1.107" stroke-miterlimit="10" d="M157.4,389.9h38.1V182.8h-38.1V389.9z"/>
	</g>
</g>
<g id="patch_51_1_" opacity="0.1">
	<g>
		<path stroke="#FFFFFF" stroke-width="1.107" stroke-miterlimit="10" d="M195.6,389.9h38.1V179.8h-38.1V389.9z"/>
	</g>
</g>
<g id="patch_52_1_" opacity="0.1">
	<g>
		<path stroke="#FFFFFF" stroke-width="1.107" stroke-miterlimit="10" d="M233.7,389.9h38.1V175.7h-38.1V389.9z"/>
	</g>
</g>
<g id="patch_53_1_" opacity="0.1">
	<g>
		<path stroke="#FFFFFF" stroke-width="1.107" stroke-miterlimit="10" d="M271.8,389.9H310V174.2h-38.1V389.9z"/>
	</g>
</g>
<g id="patch_54_1_" opacity="0.1">
	<g>
		<path stroke="#FFFFFF" stroke-width="1.107" stroke-miterlimit="10" d="M310,389.9h38.1V166.4H310V389.9z"/>
	</g>
</g>
<g id="patch_55_1_" opacity="0.1">
	<g>
		<path id="test" stroke="#FFFFFF" stroke-width="1.107" stroke-miterlimit="10" d="M348.1,389.9h38.1V170.8h-38.1V389.9z"/>
	</g>
</g>
<g opacity="0.1">
	<path stroke="#FFFFFF" stroke-width="1.107" stroke-miterlimit="10" d="M386.3,389.9h38.1V229.3h-38.1V389.9z"/>
</g>
<g id="patch_57_1_" opacity="0.1">
	<g>
		<path stroke="#FFFFFF" stroke-width="1.107" stroke-miterlimit="10" d="M424.4,389.9h38.1V233.5h-38.1V389.9z"/>
	</g>
</g>
<g id="patch_58_1_" opacity="0.1">
	<g>
		<path stroke="#FFFFFF" stroke-width="1.107" stroke-miterlimit="10" d="M462.5,389.9h38.1V230.6h-38.1V389.9z"/>
	</g>
</g>
<g id="patch_59_1_" opacity="0.1">
	<g>
		<path stroke="#FFFFFF" stroke-width="1.107" stroke-miterlimit="10" d="M500.7,389.9h38.1V210.7h-38.1V389.9z"/>
	</g>
</g>
<g id="patch_60_1_" opacity="0.1">
	<g>
		<path stroke="#FFFFFF" stroke-width="1.107" stroke-miterlimit="10" d="M538.8,389.9h38.1V217.9h-38.1V389.9z"/>
	</g>
</g>
<g>
	<path fill="#87BBDE" stroke="#FFFFFF" stroke-width="1.107" stroke-miterlimit="10" d="M577.2,389.9h38.2V232.3h-38.2V389.9z"/>
</g>
<g id="patch_61_1_" opacity="0.1">
	<g>
		<path stroke="#FFFFFF" stroke-width="1.107" stroke-miterlimit="10" d="M576.9,389.9h38.1V255.6h-38.1V389.9z"/>
	</g>
</g>
<g id="patch_59_00000180363400391439093710000018089748058289330328_" opacity="0.1">
	<g>
		<path stroke="#FFFFFF" stroke-width="1.107" stroke-miterlimit="10" d="M615.4,389.9h37.8v-145h-37.8V389.9z"/>
	</g>
</g>
<g id="patch_60_00000126289542081082714090000009556105800766169221_" opacity="0.1">
	<g>
		<path stroke="#FFFFFF" stroke-width="1.107" stroke-miterlimit="10" d="M653.2,389.9h38.1V285h-38.1V389.9z"/>
	</g>
</g>
<g>
	<path fill="#87BBDE" stroke="#FFFFFF" stroke-width="1.107" stroke-miterlimit="10" d="M691.6,389.9h38.2V255.1h-38.2V389.9z"/>
</g>
<g id="patch_61_00000122722181111616668740000005197978804291875463_" opacity="0.1">
	<g>
		<path stroke="#FFFFFF" stroke-width="1.107" stroke-miterlimit="10" d="M691.3,389.9h38.1V295h-38.1V389.9z"/>
	</g>
</g>
<path fill="none" stroke="#666666" stroke-width="0.6642" stroke-linecap="square" d="M39.5,389.9h690"/>
<rect x="43.1" y="133.2" fill="none" width="692.2" height="256.3"/>
<rect x="43.1" y="133.2" fill="none" width="692.2" height="256.3"/>
<rect x="43.1" y="133.2" fill="none" width="692.2" height="256.3"/>
<rect x="43.1" y="133.2" fill="none" width="692.2" height="256.3"/>
<rect x="43.1" y="133.2" fill="none" width="692.2" height="256.3"/>
<rect x="43.1" y="133.2" fill="none" width="692.2" height="256.3"/>
<rect x="43.1" y="133.2" fill="none" width="692.2" height="256.3"/>
<rect x="43.1" y="133.2" fill="none" width="692.2" height="256.3"/>
<rect x="43.1" y="133.2" fill="none" width="692.2" height="256.3"/>
<rect x="43.1" y="133.2" fill="none" width="692.2" height="256.3"/>
<rect x="43.1" y="133.2" fill="none" width="692.2" height="256.3"/>
<rect x="43.1" y="133.2" fill="none" width="692.2" height="256.3"/>
<rect x="43.1" y="133.2" fill="none" width="692.2" height="256.3"/>
<rect x="43.1" y="133.2" fill="none" width="692.2" height="256.3"/>
<rect x="43.1" y="133.2" fill="none" width="692.2" height="256.3"/>
<rect x="43.1" y="133.2" fill="none" width="692.2" height="256.3"/>
<rect x="43.1" y="133.2" fill="none" width="692.2" height="256.3"/>
<rect x="43.1" y="133.2" fill="none" width="692.2" height="256.3"/>
<rect x="43.1" y="133.2" fill="none" width="692.2" height="256.3"/>
<rect x="43.1" y="133.2" fill="none" width="692.2" height="256.3"/>
<rect x="43.1" y="133.2" fill="none" width="692.2" height="256.3"/>
<rect x="43.1" y="133.2" fill="none" width="692.2" height="256.3"/>
<rect x="43.1" y="133.2" fill="none" width="692.2" height="256.3"/>
<rect x="43.1" y="133.2" fill="none" width="692.2" height="256.3"/>
<rect x="43.1" y="133.2" fill="none" width="692.2" height="256.3"/>
<rect x="43.1" y="133.2" fill="none" width="692.2" height="256.3"/>
<rect x="43.1" y="133.2" fill="none" width="692.2" height="256.3"/>
<rect x="43.1" y="133.2" fill="none" width="692.2" height="256.3"/>
<rect x="43.1" y="133.2" fill="none" width="692.2" height="256.3"/>
<rect x="43.1" y="133.2" fill="none" width="692.2" height="256.3"/>
<rect x="43.1" y="133.2" fill="none" width="692.2" height="256.3"/>
<rect x="43.1" y="133.2" fill="none" width="692.2" height="256.3"/>
<rect x="43.1" y="133.2" fill="none" width="692.2" height="256.3"/>
<rect x="43.1" y="133.2" fill="none" width="692.2" height="256.3"/>
<rect x="43.1" y="133.2" fill="none" width="692.2" height="256.3"/>
<rect x="43.1" y="133.2" fill="none" width="692.2" height="256.3"/>
<rect x="43.1" y="133.2" fill="none" width="692.2" height="256.3"/>
<rect x="43.1" y="133.2" fill="none" width="692.2" height="256.3"/>
<rect x="43.1" y="133.2" fill="none" width="692.2" height="256.3"/>
<rect x="43.1" y="133.2" fill="none" width="692.2" height="256.3"/>
<rect x="43.1" y="133.2" fill="none" width="692.2" height="256.3"/>
<rect x="43.1" y="133.2" fill="none" width="692.2" height="256.3"/>
<rect x="43.1" y="133.2" fill="none" width="692.2" height="256.3"/>
<rect x="43.1" y="133.2" fill="none" width="692.2" height="256.3"/>
<rect x="43.1" y="133.2" fill="none" width="692.2" height="256.3"/>
<rect x="43.1" y="133.2" fill="none" width="692.2" height="256.3"/>
<rect x="43.1" y="133.2" fill="none" width="692.2" height="256.3"/>
<rect x="43.1" y="133.2" fill="none" width="692.2" height="256.3"/>
<rect x="43.1" y="133.2" fill="none" width="692.2" height="256.3"/>
<rect x="43.1" y="133.2" fill="none" width="692.2" height="256.3"/>
<rect x="43.1" y="133.2" fill="none" width="692.2" height="256.3"/>
<rect x="43.1" y="133.2" fill="none" width="692.2" height="256.3"/>
<rect x="43.1" y="133.2" fill="none" width="692.2" height="256.3"/>
<rect x="43.1" y="133.2" fill="none" width="692.2" height="256.3"/>
<rect x="43.1" y="133.2" fill="none" width="692.2" height="256.3"/>
<rect x="43.1" y="133.2" fill="none" width="692.2" height="256.3"/>
<rect x="43.1" y="133.2" fill="none" width="692.2" height="256.3"/>
<rect x="43.1" y="133.2" fill="none" width="692.2" height="256.3"/>
<rect x="43.1" y="133.2" fill="none" width="692.2" height="256.3"/>
<rect x="43.1" y="133.2" fill="none" width="692.2" height="256.3"/>
<rect x="43.1" y="133.2" fill="none" width="692.2" height="256.3"/>
<rect x="43.1" y="133.2" fill="none" width="692.2" height="256.3"/>
<rect x="43.1" y="133.2" fill="none" width="692.2" height="256.3"/>
<rect x="43.1" y="133.2" fill="none" width="692.2" height="256.3"/>
<rect x="43.1" y="133.2" fill="none" width="692.2" height="256.3"/>
<rect x="43.1" y="133.2" fill="none" width="692.2" height="256.3"/>
<rect x="43.1" y="133.2" fill="none" width="692.2" height="256.3"/>
<rect x="43.1" y="133.2" fill="none" width="692.2" height="256.3"/>
<rect x="43.1" y="133.2" fill="none" width="692.2" height="256.3"/>
<rect x="43.1" y="133.2" fill="none" width="692.2" height="256.3"/>
<rect x="43.1" y="133.2" fill="none" width="692.2" height="256.3"/>
<line fill="none" stroke="#000000" stroke-width="2.214" stroke-miterlimit="10" x1="80.9" y1="175.8" x2="42.7" y2="175.8"/>
<line fill="none" stroke="#000000" stroke-width="2.214" stroke-miterlimit="10" x1="119.1" y1="177.1" x2="80.9" y2="177.1"/>
<line fill="none" stroke="#000000" stroke-width="2.214" stroke-miterlimit="10" x1="157.3" y1="165.8" x2="119.1" y2="165.8"/>
<line fill="none" stroke="#000000" stroke-width="2.214" stroke-miterlimit="10" x1="195.5" y1="182.8" x2="157.3" y2="182.8"/>
<line fill="none" stroke="#000000" stroke-width="2.214" stroke-miterlimit="10" x1="233.6" y1="179.8" x2="195.4" y2="179.8"/>
<line fill="none" stroke="#000000" stroke-width="2.214" stroke-miterlimit="10" x1="271.8" y1="175.7" x2="233.6" y2="175.7"/>
<line fill="none" stroke="#000000" stroke-width="2.214" stroke-miterlimit="10" x1="310" y1="174.2" x2="271.8" y2="174.2"/>
<line fill="none" stroke="#000000" stroke-width="2.214" stroke-miterlimit="10" x1="348.1" y1="167.1" x2="310" y2="167.1"/>
<line fill="none" stroke="#000000" stroke-width="2.214" stroke-miterlimit="10" x1="386.3" y1="171.4" x2="348.1" y2="171.4"/>
<line fill="none" stroke="#000000" stroke-width="2.214" stroke-miterlimit="10" x1="424.5" y1="230" x2="386.3" y2="230"/>
<line fill="none" stroke="#000000" stroke-width="2.214" stroke-miterlimit="10" x1="462.7" y1="234.2" x2="424.5" y2="234.2"/>
<line fill="none" stroke="#000000" stroke-width="2.214" stroke-miterlimit="10" x1="500.8" y1="231.4" x2="462.7" y2="231.4"/>
<line fill="none" stroke="#000000" stroke-width="2.214" stroke-miterlimit="10" x1="539" y1="211.4" x2="500.8" y2="211.4"/>
<line fill="none" stroke="#000000" stroke-width="2.214" stroke-miterlimit="10" x1="577.2" y1="218.5" x2="539" y2="218.5"/>
<line fill="none" stroke="#000000" stroke-width="2.214" stroke-miterlimit="10" x1="691.6" y1="285.6" x2="653.4" y2="285.6"/>
<line fill="none" stroke="#000000" stroke-width="2.214" stroke-miterlimit="10" x1="652.8" y1="245.6" x2="614.7" y2="245.6"/>
<line fill="none" stroke="#000000" stroke-width="2.214" stroke-miterlimit="10" x1="615" y1="255.6" x2="577.2" y2="255.6"/>
<line fill="none" stroke="#000000" stroke-width="2.214" stroke-miterlimit="10" x1="729.8" y1="295" x2="691.6" y2="295"/>
<line fill="none" stroke="#000000" stroke-width="2.214" stroke-miterlimit="10" x1="188.3" y1="48" x2="173" y2="48"/>
</svg>
