<svg id="Layer_1" data-name="Layer 1" xmlns="http://www.w3.org/2000/svg" viewBox="0 0 520 363.421"><defs><style>.cls-1,.cls-2,.cls-3,.cls-5,.cls-9{fill:none;}.cls-1{stroke:#ccc;}.cls-1,.cls-5,.cls-9{stroke-miterlimit:10;}.cls-1,.cls-9{stroke-width:2px;}.cls-2{stroke:#666;stroke-width:0.664px;}.cls-2,.cls-3,.cls-9{stroke-linecap:square;}.cls-3{stroke:#808285;stroke-linejoin:round;stroke-width:0.3px;stroke-dasharray:5.688;}.cls-4{fill:#231f20;opacity:0.1;}.cls-5{stroke:#939598;}.cls-6{fill:#939598;}.cls-7{fill:#999;}.cls-8{fill:#fff;}.cls-9{stroke:#000;}</style></defs><line class="cls-1" x1="515.68" y1="222.061" x2="515.68" y2="334.29"/><path d="M41.73,355.105H35.051v-.674l3.654-4.146a9.6,9.6,0,0,0,1.26-1.728,2.885,2.885,0,0,0,.351-1.325,2.154,2.154,0,0,0-.593-1.6,2.215,2.215,0,0,0-1.633-.59,2.3,2.3,0,0,0-1.739.689,2.464,2.464,0,0,0-.663,1.787h-.872a3.339,3.339,0,0,1,.407-1.641,2.917,2.917,0,0,1,1.157-1.161,3.44,3.44,0,0,1,1.71-.421,3.221,3.221,0,0,1,2.289.77,2.724,2.724,0,0,1,.824,2.093,3.546,3.546,0,0,1-.466,1.634A12.089,12.089,0,0,1,39.1,351l-2.974,3.362h5.6Z"/><path d="M49.793,350.659a5.9,5.9,0,0,1-.827,3.424,3.134,3.134,0,0,1-4.863.022,5.681,5.681,0,0,1-.865-3.336v-1.912a5.8,5.8,0,0,1,.835-3.406,3.162,3.162,0,0,1,4.857-.04,5.591,5.591,0,0,1,.863,3.292Zm-.879-1.912a5.2,5.2,0,0,0-.6-2.768,2.2,2.2,0,0,0-3.592-.023,5.039,5.039,0,0,0-.616,2.7v2.1a5.188,5.188,0,0,0,.62,2.79,2,2,0,0,0,1.8.967,1.975,1.975,0,0,0,1.776-.944,5.219,5.219,0,0,0,.611-2.769Z"/><path d="M55.756,355.105h-.879V345.5l-2.9,1.077v-.821l3.632-1.347h.147Z"/><path d="M61.938,349.3h.908a3.064,3.064,0,0,0,1.318-.266,2.019,2.019,0,0,0,.861-.733,1.951,1.951,0,0,0,.3-1.073,2.167,2.167,0,0,0-.579-1.6,2.254,2.254,0,0,0-1.663-.579,2.379,2.379,0,0,0-1.681.605,2.065,2.065,0,0,0-.655,1.593h-.879a2.846,2.846,0,0,1,.418-1.513,2.813,2.813,0,0,1,1.156-1.059,3.606,3.606,0,0,1,1.641-.373,3.187,3.187,0,0,1,2.285.791,2.844,2.844,0,0,1,.836,2.168,2.309,2.309,0,0,1-.487,1.417,2.919,2.919,0,0,1-1.337.971,2.741,2.741,0,0,1,1.509.956,2.6,2.6,0,0,1,.512,1.615,2.872,2.872,0,0,1-.893,2.2,3.356,3.356,0,0,1-2.388.835,3.988,3.988,0,0,1-1.747-.381,2.819,2.819,0,0,1-1.666-2.658h.879a2.125,2.125,0,0,0,.71,1.658,2.617,2.617,0,0,0,1.824.641,2.513,2.513,0,0,0,1.769-.582,2.175,2.175,0,0,0,.634-1.688,2,2,0,0,0-.685-1.633,3.115,3.115,0,0,0-2.019-.564h-.878Z"/><path d="M94.952,355.105h-6.68v-.674l3.655-4.146a9.645,9.645,0,0,0,1.26-1.728,2.885,2.885,0,0,0,.351-1.325,2.151,2.151,0,0,0-.594-1.6,2.211,2.211,0,0,0-1.632-.59,2.306,2.306,0,0,0-1.74.689,2.468,2.468,0,0,0-.663,1.787h-.871a3.349,3.349,0,0,1,.406-1.641,2.926,2.926,0,0,1,1.158-1.161,3.44,3.44,0,0,1,1.71-.421,3.221,3.221,0,0,1,2.289.77,2.727,2.727,0,0,1,.824,2.093,3.546,3.546,0,0,1-.466,1.634A12.1,12.1,0,0,1,92.322,351l-2.973,3.362h5.6Z"/><path d="M103.016,350.659a5.9,5.9,0,0,1-.828,3.424,2.8,2.8,0,0,1-2.438,1.168,2.827,2.827,0,0,1-2.425-1.146,5.689,5.689,0,0,1-.864-3.336v-1.912a5.794,5.794,0,0,1,.835-3.406,3.161,3.161,0,0,1,4.856-.04,5.584,5.584,0,0,1,.864,3.292Zm-.879-1.912a5.2,5.2,0,0,0-.6-2.768,2.205,2.205,0,0,0-3.593-.023,5.049,5.049,0,0,0-.615,2.7v2.1a5.2,5.2,0,0,0,.619,2.79,2.006,2.006,0,0,0,1.8.967,1.973,1.973,0,0,0,1.775-.944,5.209,5.209,0,0,0,.612-2.769Z"/><path d="M108.978,355.105H108.1V345.5l-2.9,1.077v-.821l3.633-1.347h.147Z"/><path d="M113.8,349.641l.52-5.2h5.332v.812h-4.578l-.373,3.6a3.467,3.467,0,0,1,2.006-.586,2.972,2.972,0,0,1,2.3.937,3.567,3.567,0,0,1,.856,2.5,3.782,3.782,0,0,1-.835,2.616,2.994,2.994,0,0,1-2.351.929,3.25,3.25,0,0,1-2.256-.776,3.174,3.174,0,0,1-.988-2.175h.841a2.527,2.527,0,0,0,.741,1.651,2.374,2.374,0,0,0,1.662.56,2.08,2.08,0,0,0,1.725-.725,3.224,3.224,0,0,0,.582-2.065,2.79,2.79,0,0,0-.651-1.911,2.253,2.253,0,0,0-1.78-.74,3.359,3.359,0,0,0-1.084.157,2.945,2.945,0,0,0-.974.612Z"/><path d="M148.174,355.105h-6.68v-.674l3.654-4.146a9.545,9.545,0,0,0,1.26-1.728,2.874,2.874,0,0,0,.352-1.325,2.155,2.155,0,0,0-.594-1.6,2.213,2.213,0,0,0-1.633-.59,2.3,2.3,0,0,0-1.739.689,2.468,2.468,0,0,0-.663,1.787h-.871a3.349,3.349,0,0,1,.406-1.641,2.924,2.924,0,0,1,1.157-1.161,3.443,3.443,0,0,1,1.71-.421,3.22,3.22,0,0,1,2.289.77,2.724,2.724,0,0,1,.824,2.093,3.555,3.555,0,0,1-.465,1.634A12.151,12.151,0,0,1,145.544,351l-2.974,3.362h5.6Z"/><path d="M156.236,350.659a5.9,5.9,0,0,1-.827,3.424,2.8,2.8,0,0,1-2.438,1.168,2.825,2.825,0,0,1-2.425-1.146,5.674,5.674,0,0,1-.864-3.336v-1.912a5.794,5.794,0,0,1,.835-3.406,3.161,3.161,0,0,1,4.856-.04,5.577,5.577,0,0,1,.863,3.292Zm-.879-1.912a5.205,5.205,0,0,0-.6-2.768,2.205,2.205,0,0,0-3.593-.023,5.04,5.04,0,0,0-.615,2.7v2.1a5.2,5.2,0,0,0,.619,2.79,2.006,2.006,0,0,0,1.8.967,1.973,1.973,0,0,0,1.775-.944,5.209,5.209,0,0,0,.611-2.769Z"/><path d="M162.2,355.105h-.879V345.5l-2.9,1.077v-.821l3.633-1.347h.146Z"/><path d="M173,344.947l-4.556,10.158h-.916l4.528-9.917h-6.065v-.747H173Z"/><path d="M201.4,355.105h-6.68v-.674l3.654-4.146a9.545,9.545,0,0,0,1.26-1.728,2.885,2.885,0,0,0,.351-1.325,2.154,2.154,0,0,0-.593-1.6,2.215,2.215,0,0,0-1.633-.59,2.3,2.3,0,0,0-1.739.689,2.464,2.464,0,0,0-.663,1.787h-.872a3.339,3.339,0,0,1,.407-1.641,2.917,2.917,0,0,1,1.157-1.161,3.44,3.44,0,0,1,1.71-.421,3.221,3.221,0,0,1,2.289.77,2.724,2.724,0,0,1,.824,2.093,3.546,3.546,0,0,1-.466,1.634A12.089,12.089,0,0,1,198.766,351l-2.974,3.362h5.6Z"/><path d="M209.459,350.659a5.9,5.9,0,0,1-.827,3.424,3.134,3.134,0,0,1-4.863.022,5.681,5.681,0,0,1-.865-3.336v-1.912a5.8,5.8,0,0,1,.835-3.406,3.162,3.162,0,0,1,4.857-.04,5.591,5.591,0,0,1,.863,3.292Zm-.879-1.912a5.2,5.2,0,0,0-.6-2.768,2.2,2.2,0,0,0-3.592-.023,5.039,5.039,0,0,0-.616,2.7v2.1a5.188,5.188,0,0,0,.62,2.79,2,2,0,0,0,1.8.967,1.975,1.975,0,0,0,1.776-.944,5.219,5.219,0,0,0,.611-2.769Z"/><path d="M215.421,355.105h-.879V345.5l-2.9,1.077v-.821l3.632-1.347h.147Z"/><path d="M225.125,350.168a3.307,3.307,0,0,1-1.164,1.066,3.115,3.115,0,0,1-1.51.377,2.8,2.8,0,0,1-1.6-.469,3.056,3.056,0,0,1-1.077-1.3,4.273,4.273,0,0,1-.38-1.81,4.437,4.437,0,0,1,.406-1.918,3.184,3.184,0,0,1,1.135-1.344,3.277,3.277,0,0,1,4.178.644,5.019,5.019,0,0,1,.894,3.191v.791a6.558,6.558,0,0,1-1.231,4.336,4.655,4.655,0,0,1-3.757,1.449h-.161l.007-.762h.308a3.9,3.9,0,0,0,2.908-1.084A4.643,4.643,0,0,0,225.125,350.168Zm-2.563.681a2.573,2.573,0,0,0,1.578-.522,2.829,2.829,0,0,0,.993-1.355v-.5a4.1,4.1,0,0,0-.678-2.518,2.177,2.177,0,0,0-1.828-.894,2.086,2.086,0,0,0-1.706.837,3.276,3.276,0,0,0-.667,2.107,3.182,3.182,0,0,0,.642,2.034A2.017,2.017,0,0,0,222.562,350.849Z"/><path d="M254.616,355.105h-6.679v-.674l3.654-4.146a9.645,9.645,0,0,0,1.26-1.728,2.885,2.885,0,0,0,.351-1.325,2.151,2.151,0,0,0-.594-1.6,2.211,2.211,0,0,0-1.632-.59,2.306,2.306,0,0,0-1.74.689,2.468,2.468,0,0,0-.663,1.787H247.7a3.349,3.349,0,0,1,.406-1.641,2.926,2.926,0,0,1,1.158-1.161,3.44,3.44,0,0,1,1.71-.421,3.221,3.221,0,0,1,2.289.77,2.727,2.727,0,0,1,.824,2.093,3.546,3.546,0,0,1-.466,1.634A12.1,12.1,0,0,1,251.986,351l-2.973,3.362h5.6Z"/><path d="M262.68,350.659a5.908,5.908,0,0,1-.827,3.424,3.135,3.135,0,0,1-4.864.022,5.689,5.689,0,0,1-.864-3.336v-1.912a5.794,5.794,0,0,1,.835-3.406,3.161,3.161,0,0,1,4.856-.04,5.584,5.584,0,0,1,.864,3.292Zm-.879-1.912a5.2,5.2,0,0,0-.6-2.768,2.205,2.205,0,0,0-3.593-.023,5.049,5.049,0,0,0-.615,2.7v2.1a5.2,5.2,0,0,0,.619,2.79,2.006,2.006,0,0,0,1.8.967,1.973,1.973,0,0,0,1.775-.944,5.209,5.209,0,0,0,.612-2.769Z"/><path d="M271.242,355.105h-6.68v-.674l3.655-4.146a9.645,9.645,0,0,0,1.26-1.728,2.885,2.885,0,0,0,.351-1.325,2.151,2.151,0,0,0-.594-1.6,2.211,2.211,0,0,0-1.632-.59,2.306,2.306,0,0,0-1.74.689,2.468,2.468,0,0,0-.663,1.787h-.871a3.349,3.349,0,0,1,.406-1.641,2.926,2.926,0,0,1,1.158-1.161,3.44,3.44,0,0,1,1.71-.421,3.221,3.221,0,0,1,2.289.77,2.727,2.727,0,0,1,.824,2.093,3.546,3.546,0,0,1-.466,1.634A12.1,12.1,0,0,1,268.612,351l-2.973,3.362h5.6Z"/><path d="M276.954,355.105h-.879V345.5l-2.9,1.077v-.821l3.633-1.347h.146Z"/><path d="M307.838,355.105h-6.68v-.674l3.654-4.146a9.545,9.545,0,0,0,1.26-1.728,2.874,2.874,0,0,0,.352-1.325,2.151,2.151,0,0,0-.594-1.6,2.211,2.211,0,0,0-1.633-.59,2.3,2.3,0,0,0-1.739.689,2.468,2.468,0,0,0-.663,1.787h-.871a3.349,3.349,0,0,1,.406-1.641,2.924,2.924,0,0,1,1.157-1.161,3.443,3.443,0,0,1,1.71-.421,3.218,3.218,0,0,1,2.289.77,2.724,2.724,0,0,1,.825,2.093,3.558,3.558,0,0,1-.466,1.634A12.151,12.151,0,0,1,305.208,351l-2.974,3.362h5.6Z"/><path d="M315.9,350.659a5.9,5.9,0,0,1-.827,3.424,2.8,2.8,0,0,1-2.438,1.168,2.825,2.825,0,0,1-2.425-1.146,5.674,5.674,0,0,1-.864-3.336v-1.912a5.794,5.794,0,0,1,.835-3.406,3.161,3.161,0,0,1,4.856-.04,5.577,5.577,0,0,1,.863,3.292Zm-.879-1.912a5.205,5.205,0,0,0-.6-2.768,2.205,2.205,0,0,0-3.593-.023,5.049,5.049,0,0,0-.615,2.7v2.1a5.2,5.2,0,0,0,.619,2.79,2.006,2.006,0,0,0,1.8.967,1.973,1.973,0,0,0,1.775-.944,5.209,5.209,0,0,0,.611-2.769Z"/><path d="M324.464,355.105h-6.68v-.674l3.654-4.146a9.545,9.545,0,0,0,1.26-1.728,2.874,2.874,0,0,0,.352-1.325,2.151,2.151,0,0,0-.594-1.6,2.211,2.211,0,0,0-1.633-.59,2.3,2.3,0,0,0-1.739.689,2.468,2.468,0,0,0-.663,1.787h-.871a3.349,3.349,0,0,1,.406-1.641,2.924,2.924,0,0,1,1.157-1.161,3.443,3.443,0,0,1,1.71-.421,3.22,3.22,0,0,1,2.289.77,2.724,2.724,0,0,1,.825,2.093,3.558,3.558,0,0,1-.466,1.634A12.151,12.151,0,0,1,321.834,351l-2.974,3.362h5.6Z"/><path d="M328.045,349.3h.908a3.061,3.061,0,0,0,1.318-.266,2.022,2.022,0,0,0,.862-.733,1.959,1.959,0,0,0,.3-1.073,2.171,2.171,0,0,0-.579-1.6,2.256,2.256,0,0,0-1.663-.579,2.378,2.378,0,0,0-1.681.605,2.061,2.061,0,0,0-.655,1.593h-.879a2.837,2.837,0,0,1,.418-1.513,2.807,2.807,0,0,1,1.156-1.059,3.6,3.6,0,0,1,1.641-.373,3.191,3.191,0,0,1,2.285.791,2.847,2.847,0,0,1,.836,2.168,2.3,2.3,0,0,1-.488,1.417,2.914,2.914,0,0,1-1.337.971,2.741,2.741,0,0,1,1.509.956,2.6,2.6,0,0,1,.513,1.615,2.873,2.873,0,0,1-.894,2.2,3.352,3.352,0,0,1-2.387.835,3.988,3.988,0,0,1-1.747-.381,2.815,2.815,0,0,1-1.666-2.658h.878a2.129,2.129,0,0,0,.71,1.658,2.618,2.618,0,0,0,1.825.641,2.512,2.512,0,0,0,1.768-.582,2.175,2.175,0,0,0,.634-1.688,2,2,0,0,0-.685-1.633,3.114,3.114,0,0,0-2.018-.564h-.879Z"/><path d="M361.06,355.105h-6.68v-.674l3.654-4.146a9.545,9.545,0,0,0,1.26-1.728,2.887,2.887,0,0,0,.352-1.325,2.155,2.155,0,0,0-.594-1.6,2.215,2.215,0,0,0-1.633-.59,2.3,2.3,0,0,0-1.739.689,2.464,2.464,0,0,0-.663,1.787h-.871a3.338,3.338,0,0,1,.406-1.641,2.917,2.917,0,0,1,1.157-1.161,3.44,3.44,0,0,1,1.71-.421,3.22,3.22,0,0,1,2.289.77,2.724,2.724,0,0,1,.824,2.093,3.546,3.546,0,0,1-.466,1.634A12.089,12.089,0,0,1,358.43,351l-2.974,3.362h5.6Z"/><path d="M369.123,350.659a5.9,5.9,0,0,1-.827,3.424,3.134,3.134,0,0,1-4.863.022,5.681,5.681,0,0,1-.865-3.336v-1.912a5.8,5.8,0,0,1,.835-3.406,3.162,3.162,0,0,1,4.857-.04,5.584,5.584,0,0,1,.863,3.292Zm-.879-1.912a5.2,5.2,0,0,0-.6-2.768,2.2,2.2,0,0,0-3.592-.023,5.039,5.039,0,0,0-.616,2.7v2.1a5.188,5.188,0,0,0,.62,2.79,2,2,0,0,0,1.8.967,1.975,1.975,0,0,0,1.776-.944,5.219,5.219,0,0,0,.611-2.769Z"/><path d="M377.686,355.105h-6.68v-.674l3.654-4.146a9.545,9.545,0,0,0,1.26-1.728,2.885,2.885,0,0,0,.351-1.325,2.154,2.154,0,0,0-.593-1.6,2.215,2.215,0,0,0-1.633-.59,2.3,2.3,0,0,0-1.739.689,2.464,2.464,0,0,0-.663,1.787h-.872a3.339,3.339,0,0,1,.407-1.641,2.917,2.917,0,0,1,1.157-1.161,3.44,3.44,0,0,1,1.71-.421,3.221,3.221,0,0,1,2.289.77,2.724,2.724,0,0,1,.824,2.093,3.546,3.546,0,0,1-.466,1.634A12.089,12.089,0,0,1,375.056,351l-2.974,3.362h5.6Z"/><path d="M379.911,349.641l.521-5.2h5.332v.812h-4.578l-.374,3.6a3.471,3.471,0,0,1,2.006-.586,2.97,2.97,0,0,1,2.3.937,3.567,3.567,0,0,1,.857,2.5,3.787,3.787,0,0,1-.835,2.616,3,3,0,0,1-2.352.929,3.25,3.25,0,0,1-2.256-.776,3.174,3.174,0,0,1-.988-2.175h.842a2.531,2.531,0,0,0,.74,1.651,2.376,2.376,0,0,0,1.662.56,2.082,2.082,0,0,0,1.726-.725,3.23,3.23,0,0,0,.582-2.065,2.786,2.786,0,0,0-.652-1.911,2.252,2.252,0,0,0-1.78-.74,3.363,3.363,0,0,0-1.084.157,2.945,2.945,0,0,0-.974.612Z"/><path d="M414.281,355.105H407.6v-.674l3.654-4.146a9.645,9.645,0,0,0,1.26-1.728,2.885,2.885,0,0,0,.351-1.325,2.151,2.151,0,0,0-.594-1.6,2.211,2.211,0,0,0-1.632-.59,2.306,2.306,0,0,0-1.74.689,2.468,2.468,0,0,0-.663,1.787h-.871a3.349,3.349,0,0,1,.406-1.641,2.926,2.926,0,0,1,1.158-1.161,3.44,3.44,0,0,1,1.71-.421,3.221,3.221,0,0,1,2.289.77,2.724,2.724,0,0,1,.824,2.093,3.546,3.546,0,0,1-.466,1.634A12.056,12.056,0,0,1,411.651,351l-2.973,3.362h5.6Z"/><path d="M422.344,350.659a5.908,5.908,0,0,1-.827,3.424,3.135,3.135,0,0,1-4.864.022,5.689,5.689,0,0,1-.864-3.336v-1.912a5.794,5.794,0,0,1,.835-3.406,3.161,3.161,0,0,1,4.856-.04,5.584,5.584,0,0,1,.864,3.292Zm-.879-1.912a5.2,5.2,0,0,0-.6-2.768,2.205,2.205,0,0,0-3.593-.023,5.049,5.049,0,0,0-.615,2.7v2.1a5.2,5.2,0,0,0,.619,2.79,2.006,2.006,0,0,0,1.8.967,1.976,1.976,0,0,0,1.776-.944,5.219,5.219,0,0,0,.611-2.769Z"/><path d="M430.907,355.105h-6.679v-.674l3.654-4.146a9.645,9.645,0,0,0,1.26-1.728,2.885,2.885,0,0,0,.351-1.325,2.151,2.151,0,0,0-.594-1.6,2.211,2.211,0,0,0-1.632-.59,2.306,2.306,0,0,0-1.74.689,2.468,2.468,0,0,0-.663,1.787h-.871a3.349,3.349,0,0,1,.406-1.641,2.926,2.926,0,0,1,1.158-1.161,3.44,3.44,0,0,1,1.71-.421,3.221,3.221,0,0,1,2.289.77,2.727,2.727,0,0,1,.824,2.093,3.546,3.546,0,0,1-.466,1.634A12.1,12.1,0,0,1,428.277,351l-2.973,3.362h5.6Z"/><path d="M439.11,344.947l-4.555,10.158h-.916l4.527-9.917H432.1v-.747h7.008Z"/><path d="M467.5,355.105h-6.68v-.674l3.655-4.146a9.58,9.58,0,0,0,1.259-1.728,2.874,2.874,0,0,0,.352-1.325,2.151,2.151,0,0,0-.594-1.6,2.211,2.211,0,0,0-1.633-.59,2.3,2.3,0,0,0-1.739.689,2.468,2.468,0,0,0-.663,1.787h-.871a3.349,3.349,0,0,1,.406-1.641,2.924,2.924,0,0,1,1.157-1.161,3.443,3.443,0,0,1,1.71-.421,3.218,3.218,0,0,1,2.289.77,2.724,2.724,0,0,1,.825,2.093,3.558,3.558,0,0,1-.466,1.634A12.151,12.151,0,0,1,464.873,351l-2.974,3.362h5.6Z"/><path d="M475.566,350.659a5.9,5.9,0,0,1-.827,3.424,2.8,2.8,0,0,1-2.438,1.168,2.827,2.827,0,0,1-2.425-1.146,5.674,5.674,0,0,1-.864-3.336v-1.912a5.794,5.794,0,0,1,.835-3.406,3.161,3.161,0,0,1,4.856-.04,5.577,5.577,0,0,1,.863,3.292Zm-.878-1.912a5.2,5.2,0,0,0-.6-2.768,2.205,2.205,0,0,0-3.593-.023,5.049,5.049,0,0,0-.615,2.7v2.1a5.2,5.2,0,0,0,.619,2.79,2.006,2.006,0,0,0,1.8.967,1.973,1.973,0,0,0,1.775-.944,5.218,5.218,0,0,0,.612-2.769Z"/><path d="M484.129,355.105h-6.68v-.674l3.655-4.146a9.58,9.58,0,0,0,1.259-1.728,2.874,2.874,0,0,0,.352-1.325,2.151,2.151,0,0,0-.594-1.6,2.211,2.211,0,0,0-1.633-.59,2.3,2.3,0,0,0-1.739.689,2.468,2.468,0,0,0-.663,1.787h-.871a3.349,3.349,0,0,1,.406-1.641,2.924,2.924,0,0,1,1.157-1.161,3.443,3.443,0,0,1,1.71-.421,3.218,3.218,0,0,1,2.289.77,2.724,2.724,0,0,1,.825,2.093,3.558,3.558,0,0,1-.466,1.634A12.151,12.151,0,0,1,481.5,351l-2.974,3.362h5.6Z"/><path d="M491.232,350.168a3.3,3.3,0,0,1-1.164,1.066,3.108,3.108,0,0,1-1.509.377,2.8,2.8,0,0,1-1.6-.469,3.054,3.054,0,0,1-1.076-1.3,4.258,4.258,0,0,1-.381-1.81,4.451,4.451,0,0,1,.406-1.918,3.2,3.2,0,0,1,1.135-1.344,3.278,3.278,0,0,1,4.179.644,5.025,5.025,0,0,1,.893,3.191v.791a6.564,6.564,0,0,1-1.23,4.336,4.656,4.656,0,0,1-3.758,1.449h-.16l.007-.762h.307a3.9,3.9,0,0,0,2.909-1.084A4.642,4.642,0,0,0,491.232,350.168Zm-2.563.681a2.571,2.571,0,0,0,1.578-.522,2.823,2.823,0,0,0,.993-1.355v-.5a4.1,4.1,0,0,0-.678-2.518,2.177,2.177,0,0,0-1.828-.894,2.087,2.087,0,0,0-1.706.837,3.276,3.276,0,0,0-.667,2.107,3.182,3.182,0,0,0,.642,2.034A2.019,2.019,0,0,0,488.669,350.849Z"/><path class="cls-2" d="M32.735,334.29H516.018"/><path class="cls-3" d="M5.581,334.29H516.018"/><path class="cls-3" d="M5.581,286.912H516.018"/><path class="cls-3" d="M5.581,239.534H516.018"/><path class="cls-3" d="M5.581,192.155H516.018"/><path class="cls-3" d="M5.581,144.777H516.018"/><path class="cls-3" d="M5.581,97.4H516.018"/><path d="M12.5,326.632a5.9,5.9,0,0,1-.827,3.424,2.8,2.8,0,0,1-2.439,1.168,2.823,2.823,0,0,1-2.424-1.147,5.679,5.679,0,0,1-.865-3.336v-1.912a5.8,5.8,0,0,1,.835-3.405,2.82,2.82,0,0,1,2.439-1.157,2.834,2.834,0,0,1,2.418,1.117,5.582,5.582,0,0,1,.863,3.292Zm-.879-1.912a5.207,5.207,0,0,0-.6-2.769,2,2,0,0,0-1.806-.937,2,2,0,0,0-1.787.915,5.037,5.037,0,0,0-.616,2.7v2.095a5.2,5.2,0,0,0,.62,2.79,2.006,2.006,0,0,0,1.8.967,1.975,1.975,0,0,0,1.776-.945,5.215,5.215,0,0,0,.611-2.768Z"/><path d="M12.5,279.032a5.9,5.9,0,0,1-.827,3.424,2.8,2.8,0,0,1-2.439,1.168,2.825,2.825,0,0,1-2.424-1.146,5.681,5.681,0,0,1-.865-3.336V277.23a5.8,5.8,0,0,1,.835-3.406,2.82,2.82,0,0,1,2.439-1.157,2.834,2.834,0,0,1,2.418,1.117,5.584,5.584,0,0,1,.863,3.292Zm-.879-1.912a5.205,5.205,0,0,0-.6-2.768,2,2,0,0,0-1.806-.938,2,2,0,0,0-1.787.915,5.039,5.039,0,0,0-.616,2.7v2.1a5.2,5.2,0,0,0,.62,2.79,2,2,0,0,0,1.8.967,1.974,1.974,0,0,0,1.776-.944,5.219,5.219,0,0,0,.611-2.769Z"/><path d="M14.334,285.47l-.52-.381a3.19,3.19,0,0,0,.689-1.853V282.1h.856v.916A3.152,3.152,0,0,1,14.334,285.47Z"/><path d="M17.843,278.014l.52-5.2H23.7v.812H19.117l-.373,3.6a3.467,3.467,0,0,1,2.006-.586,2.97,2.97,0,0,1,2.3.937,3.567,3.567,0,0,1,.856,2.5,3.782,3.782,0,0,1-.835,2.616,2.994,2.994,0,0,1-2.351.929,3.245,3.245,0,0,1-2.256-.776,3.174,3.174,0,0,1-.988-2.175h.841a2.527,2.527,0,0,0,.741,1.651,2.37,2.37,0,0,0,1.662.56,2.08,2.08,0,0,0,1.725-.725,3.224,3.224,0,0,0,.582-2.065,2.786,2.786,0,0,0-.651-1.911,2.253,2.253,0,0,0-1.78-.74,3.359,3.359,0,0,0-1.084.157,2.945,2.945,0,0,0-.974.612Z"/><path d="M10.146,235.881H9.267v-9.609l-2.9,1.076v-.82L10,225.18h.147Z"/><path d="M14.334,237.873l-.52-.381a3.185,3.185,0,0,0,.689-1.853V234.5h.856v.916A3.152,3.152,0,0,1,14.334,237.873Z"/><path d="M23.68,231.436a5.91,5.91,0,0,1-.827,3.424,2.8,2.8,0,0,1-2.439,1.168,2.825,2.825,0,0,1-2.425-1.147,5.689,5.689,0,0,1-.864-3.336v-1.912a5.789,5.789,0,0,1,.835-3.405,2.817,2.817,0,0,1,2.438-1.157,2.833,2.833,0,0,1,2.418,1.117,5.581,5.581,0,0,1,.864,3.292Zm-.879-1.912a5.2,5.2,0,0,0-.6-2.769,1.994,1.994,0,0,0-1.806-.937,2,2,0,0,0-1.787.915,5.044,5.044,0,0,0-.615,2.7v2.095a5.2,5.2,0,0,0,.619,2.79,2.007,2.007,0,0,0,1.8.966,1.973,1.973,0,0,0,1.775-.944,5.209,5.209,0,0,0,.612-2.769Z"/><path d="M10.146,188.282H9.267v-9.609l-2.9,1.076v-.82L10,177.581h.147Z"/><path d="M14.334,190.275l-.52-.381a3.19,3.19,0,0,0,.689-1.854v-1.134h.856v.916A3.153,3.153,0,0,1,14.334,190.275Z"/><path d="M17.843,182.819l.52-5.2H23.7v.813H19.117l-.373,3.6a3.473,3.473,0,0,1,2.006-.585,2.97,2.97,0,0,1,2.3.937,3.567,3.567,0,0,1,.856,2.5,3.778,3.778,0,0,1-.835,2.615,3,3,0,0,1-2.351.93,3.25,3.25,0,0,1-2.256-.776,3.176,3.176,0,0,1-.988-2.175h.841a2.529,2.529,0,0,0,.741,1.651,2.374,2.374,0,0,0,1.662.56,2.08,2.08,0,0,0,1.725-.725,3.226,3.226,0,0,0,.582-2.065,2.784,2.784,0,0,0-.651-1.911,2.251,2.251,0,0,0-1.78-.741,3.357,3.357,0,0,0-1.084.158,2.945,2.945,0,0,0-.974.612Z"/><path d="M12.746,140.684H6.066v-.674l3.655-4.145a9.615,9.615,0,0,0,1.259-1.729,2.871,2.871,0,0,0,.352-1.325,2.151,2.151,0,0,0-.594-1.6,2.211,2.211,0,0,0-1.633-.59,2.305,2.305,0,0,0-1.739.689A2.469,2.469,0,0,0,6.7,133.1H5.832a3.352,3.352,0,0,1,.406-1.641A2.926,2.926,0,0,1,7.4,130.294a3.439,3.439,0,0,1,1.709-.421,3.222,3.222,0,0,1,2.29.77,2.729,2.729,0,0,1,.824,2.094,3.554,3.554,0,0,1-.466,1.633,12.117,12.117,0,0,1-1.637,2.212l-2.973,3.362h5.6Z"/><path d="M14.334,142.676l-.52-.381a3.19,3.19,0,0,0,.689-1.853v-1.135h.856v.916A3.152,3.152,0,0,1,14.334,142.676Z"/><path d="M23.68,136.239a5.907,5.907,0,0,1-.827,3.423,2.8,2.8,0,0,1-2.439,1.168,2.824,2.824,0,0,1-2.425-1.146,5.689,5.689,0,0,1-.864-3.336v-1.912a5.789,5.789,0,0,1,.835-3.405,2.818,2.818,0,0,1,2.438-1.158,2.831,2.831,0,0,1,2.418,1.118,5.578,5.578,0,0,1,.864,3.291Zm-.879-1.913a5.2,5.2,0,0,0-.6-2.768,2,2,0,0,0-1.806-.938,2,2,0,0,0-1.787.915,5.051,5.051,0,0,0-.615,2.7v2.094a5.2,5.2,0,0,0,.619,2.79,2.006,2.006,0,0,0,1.8.967,1.973,1.973,0,0,0,1.775-.944,5.209,5.209,0,0,0,.612-2.769Z"/><path d="M12.781,93.409H6.1v-.673L9.756,88.59a9.645,9.645,0,0,0,1.26-1.728,2.889,2.889,0,0,0,.351-1.326,2.148,2.148,0,0,0-.594-1.6,2.207,2.207,0,0,0-1.632-.59,2.305,2.305,0,0,0-1.74.688,2.47,2.47,0,0,0-.663,1.788H5.867a3.349,3.349,0,0,1,.406-1.641A2.926,2.926,0,0,1,7.431,83.02a3.44,3.44,0,0,1,1.71-.421,3.225,3.225,0,0,1,2.289.769,2.726,2.726,0,0,1,.824,2.094,3.549,3.549,0,0,1-.466,1.634,12.056,12.056,0,0,1-1.637,2.212L7.178,92.669h5.6Z"/><path d="M14.369,95.4l-.519-.381a3.2,3.2,0,0,0,.688-1.854V92.032H15.4v.917A3.154,3.154,0,0,1,14.369,95.4Z"/><path d="M17.878,87.946l.52-5.2H23.73v.813H19.152l-.373,3.6a3.479,3.479,0,0,1,2.006-.586,2.971,2.971,0,0,1,2.3.938,3.567,3.567,0,0,1,.856,2.5,3.778,3.778,0,0,1-.835,2.615,2.994,2.994,0,0,1-2.351.93A3.25,3.25,0,0,1,18.5,92.78a3.176,3.176,0,0,1-.988-2.175h.842a2.533,2.533,0,0,0,.74,1.651,2.376,2.376,0,0,0,1.662.56,2.081,2.081,0,0,0,1.725-.725,3.226,3.226,0,0,0,.582-2.065,2.784,2.784,0,0,0-.651-1.911,2.25,2.25,0,0,0-1.78-.741,3.357,3.357,0,0,0-1.084.158,2.945,2.945,0,0,0-.974.612Z"/><path d="M30.184,85.485l.029,1.289a2.931,2.931,0,0,1,1.1-1.077,3.012,3.012,0,0,1,1.464-.359,2.224,2.224,0,0,1,2.381,1.538,2.962,2.962,0,0,1,1.135-1.138,3.138,3.138,0,0,1,1.568-.4q2.55,0,2.6,2.783v5.288H39.58V88.187a2.357,2.357,0,0,0-.458-1.574,1.862,1.862,0,0,0-1.468-.513,2.337,2.337,0,0,0-1.6.611,2.163,2.163,0,0,0-.725,1.454v5.244h-.879V88.121a2.174,2.174,0,0,0-.479-1.519,1.91,1.91,0,0,0-1.454-.5,2.2,2.2,0,0,0-1.421.473,2.759,2.759,0,0,0-.879,1.4v5.434h-.879V85.485Z"/><path d="M43.659,93.409H42.78V82.159h.879Z"/><path d="M45.688,89.374a4.775,4.775,0,0,1,.825-2.941,2.651,2.651,0,0,1,2.237-1.1A2.757,2.757,0,0,1,51.2,86.605V82.159h.871v11.25h-.82l-.036-1.054a2.831,2.831,0,0,1-2.476,1.2,2.64,2.64,0,0,1-2.208-1.1,4.8,4.8,0,0,1-.839-2.977Zm.887.154a4.129,4.129,0,0,0,.608,2.391,1.966,1.966,0,0,0,1.713.875,2.358,2.358,0,0,0,2.3-1.428v-3.72A2.342,2.342,0,0,0,48.911,86.1a1.99,1.99,0,0,0-1.721.868A4.417,4.417,0,0,0,46.575,89.528Z"/><path d="M54.3,92.882a.621.621,0,0,1,.164-.435.587.587,0,0,1,.458-.18.6.6,0,0,1,.462.18.616.616,0,0,1,.168.435.567.567,0,0,1-.168.421.634.634,0,0,1-.462.165.62.62,0,0,1-.458-.165A.571.571,0,0,1,54.3,92.882Z"/><path d="M67.976,89.528a4.77,4.77,0,0,1-.821,2.94,2.61,2.61,0,0,1-2.2,1.088,2.932,2.932,0,0,1-2.49-1.143v4.043H61.6V85.485h.813l.044,1.12a2.814,2.814,0,0,1,2.483-1.267,2.635,2.635,0,0,1,2.23,1.077,4.873,4.873,0,0,1,.81,2.989Zm-.879-.154a4.083,4.083,0,0,0-.622-2.395,2.011,2.011,0,0,0-1.737-.879,2.311,2.311,0,0,0-2.27,1.516v3.8a2.324,2.324,0,0,0,.9,1.04,2.589,2.589,0,0,0,1.384.359,1.99,1.99,0,0,0,1.725-.882A4.437,4.437,0,0,0,67.1,89.374Z"/><path d="M69.434,89.329a4.651,4.651,0,0,1,.443-2.057,3.327,3.327,0,0,1,3.087-1.934,3.258,3.258,0,0,1,2.563,1.11,4.272,4.272,0,0,1,.982,2.94v.184a4.7,4.7,0,0,1-.444,2.069,3.3,3.3,0,0,1-1.248,1.417,3.426,3.426,0,0,1-1.838.5,3.264,3.264,0,0,1-2.56-1.109,4.268,4.268,0,0,1-.985-2.942Zm.878.243a3.6,3.6,0,0,0,.737,2.333,2.491,2.491,0,0,0,3.852,0,3.718,3.718,0,0,0,.737-2.407v-.169a4.044,4.044,0,0,0-.338-1.662,2.7,2.7,0,0,0-.945-1.168,2.412,2.412,0,0,0-1.391-.414A2.345,2.345,0,0,0,71.052,87a3.722,3.722,0,0,0-.74,2.406Z"/><path d="M80.677,92.2l2.409-6.715h.9l-2.959,7.924h-.711l-2.973-7.924h.9Z"/><path d="M84.829,89.329a4.665,4.665,0,0,1,.443-2.057,3.327,3.327,0,0,1,3.087-1.934,3.26,3.26,0,0,1,2.564,1.11,4.277,4.277,0,0,1,.981,2.94v.184a4.7,4.7,0,0,1-.443,2.069,3.315,3.315,0,0,1-1.248,1.417,3.43,3.43,0,0,1-1.839.5,3.265,3.265,0,0,1-2.56-1.109,4.268,4.268,0,0,1-.985-2.942Zm.879.243a3.6,3.6,0,0,0,.736,2.333,2.492,2.492,0,0,0,3.853,0,3.724,3.724,0,0,0,.736-2.407v-.169a4.028,4.028,0,0,0-.338-1.662,2.7,2.7,0,0,0-.944-1.168,2.413,2.413,0,0,0-1.392-.414A2.345,2.345,0,0,0,86.447,87a3.722,3.722,0,0,0-.739,2.406Z"/><path d="M94.694,93.409h-.879V82.159h.879Z"/><path d="M100.144,93.556a3.444,3.444,0,0,1-1.828-.5,3.4,3.4,0,0,1-1.27-1.388,4.328,4.328,0,0,1-.454-2v-.315a4.653,4.653,0,0,1,.443-2.058,3.518,3.518,0,0,1,1.234-1.439,3.046,3.046,0,0,1,1.714-.524,2.856,2.856,0,0,1,2.288.986,3.987,3.987,0,0,1,.847,2.691v.49H97.464v.169a3.318,3.318,0,0,0,.772,2.245,2.458,2.458,0,0,0,1.945.9,2.855,2.855,0,0,0,1.241-.256,2.75,2.75,0,0,0,.977-.82l.55.417A3.2,3.2,0,0,1,100.144,93.556Zm-.161-7.471a2.195,2.195,0,0,0-1.667.725,3.354,3.354,0,0,0-.823,1.949h4.753v-.1a2.908,2.908,0,0,0-.651-1.86A2.021,2.021,0,0,0,99.983,86.085Z"/><path d="M105.659,85.485l.029,1.354a3.149,3.149,0,0,1,1.114-1.116,2.882,2.882,0,0,1,1.471-.385,2.377,2.377,0,0,1,1.9.718,3.236,3.236,0,0,1,.63,2.153v5.2h-.871V88.2a2.43,2.43,0,0,0-.451-1.582,1.766,1.766,0,0,0-1.417-.52,2.222,2.222,0,0,0-1.44.509,3,3,0,0,0-.927,1.373v5.427h-.871V85.485Z"/><path d="M116.133,93.556a3.44,3.44,0,0,1-1.827-.5,3.4,3.4,0,0,1-1.271-1.388,4.328,4.328,0,0,1-.454-2v-.315a4.667,4.667,0,0,1,.443-2.058,3.518,3.518,0,0,1,1.234-1.439,3.047,3.047,0,0,1,1.715-.524,2.858,2.858,0,0,1,2.288.986,3.992,3.992,0,0,1,.846,2.691v.49h-5.654v.169a3.313,3.313,0,0,0,.773,2.245,2.456,2.456,0,0,0,1.944.9,2.849,2.849,0,0,0,1.241-.256,2.745,2.745,0,0,0,.978-.82l.549.417A3.2,3.2,0,0,1,116.133,93.556Zm-.16-7.471a2.192,2.192,0,0,0-1.667.725,3.349,3.349,0,0,0-.824,1.949h4.753v-.1a2.908,2.908,0,0,0-.651-1.86A2.019,2.019,0,0,0,115.973,86.085Z"/><path d="M122.7,89.417l-1,.967v3.025h-.879V82.159h.879v7.2l.829-.893,3.031-2.981h1.106L123.3,88.824l3.655,4.585H125.9Z"/><path d="M17.613,10.552v13.3h-2.64V20.582c.076-1.615.132-3.229.209-4.844l-.1-.039-1.2,3.5L13.225,21h-2.66L9.9,19.2,8.7,15.7l-.095.039c.057,1.615.133,3.229.191,4.844V23.85H6.177v-13.3H8.894l2.089,5.034c.266.664.722,1.823.874,2.318h.076c.152-.5.608-1.654.874-2.318L14.9,10.552Z"/><path d="M26.791,21.646H23.979l-.436,2.2H20.75l3.191-13.3h2.888l3.192,13.3H27.229Zm-.531-2.565-.3-1.519c-.172-.95-.4-2.565-.532-3.648h-.076c-.133,1.083-.342,2.7-.533,3.648l-.3,1.519Z"/><path d="M38.324,23.85l-1.672-4.236L34.98,23.85H32.017l3.134-6.877-2.944-6.421h2.944l1.5,3.856,1.5-3.856H41.1l-2.945,6.421,3.135,6.877Z"/><path d="M44.442,10.552h2.7v13.3h-2.7Z"/><path d="M62.833,10.552v13.3H60.192V20.582c.077-1.615.133-3.229.209-4.844l-.094-.039-1.2,3.5L58.444,21H55.785l-.665-1.8-1.2-3.5-.095.039c.057,1.615.133,3.229.191,4.844V23.85H51.4v-13.3h2.717l2.09,5.034c.266.664.722,1.823.874,2.318h.075c.153-.5.609-1.654.874-2.318l2.09-5.034Z"/><path d="M72.011,21.646H69.2l-.436,2.2H65.97l3.191-13.3h2.888l3.191,13.3H72.448ZM71.08,9.279H69.3l1.785-2.6h2.147Zm.4,9.8-.3-1.519c-.172-.95-.4-2.565-.532-3.648h-.077c-.132,1.083-.341,2.7-.532,3.648l-.3,1.519Z"/><path d="M85.025,21.285V23.85H78.376v-13.3h2.7V21.285Z"/><path d="M88.218,10.552h2.66L93.4,16.326c.323.836.627,1.71.95,2.546l.057-.056a45.97,45.97,0,0,1-.38-5.187V10.552H96.69v13.3H94.031L91.789,18.7l-1.2-3.249-.058.058a54.035,54.035,0,0,1,.343,5.642v2.7h-2.66Z"/><path d="M100.948,10.552h2.7v13.3h-2.7Zm1.843-3.876h2.147l-2.147,2.6h-1.786Z"/><path d="M125.038,10.552v13.3H122.4V20.582c.077-1.615.133-3.229.209-4.844l-.094-.039-1.2,3.5-.665,1.8H117.99l-.665-1.8-1.2-3.5-.095.039c.057,1.615.133,3.229.191,4.844V23.85H113.6v-13.3h2.716l2.09,5.034c.266.664.722,1.823.874,2.318h.075c.153-.5.609-1.654.874-2.318l2.09-5.034Z"/><path d="M129.3,10.552h2.66l2.526,5.774c.323.836.627,1.71.95,2.546l.057-.056a45.97,45.97,0,0,1-.38-5.187V10.552h2.66v13.3h-2.66L132.867,18.7l-1.2-3.249-.058.058a54.035,54.035,0,0,1,.343,5.642v2.7H129.3Z"/><path d="M141.646,19.537V14.864c0-2.85,1.615-4.54,4.312-4.54s4.313,1.69,4.313,4.54v4.673c0,2.85-1.616,4.54-4.313,4.54S141.646,22.387,141.646,19.537Zm5.832,0V14.864c0-1.253-.513-1.918-1.52-1.918s-1.52.665-1.52,1.918v4.673c0,1.254.513,1.919,1.52,1.919S147.478,20.791,147.478,19.537Z"/><path d="M160.835,21.285V23.85h-7.618v-1.8l4.217-8.929H153.54V10.552h7.2v1.861l-4.178,8.872Zm-4.6-12.006-1.539-2.6h1.692l.835,1.273.817-1.273h1.69l-1.538,2.6Z"/><path d="M163.458,19.974h2.773c0,1.064.532,1.52,1.387,1.52a1.164,1.164,0,0,0,1.33-1.178c0-2.2-5.206-2.469-5.206-6.516,0-2.032,1.425-3.515,3.876-3.515a3.611,3.611,0,0,1,3.933,3.914h-2.775c0-.874-.4-1.311-1.177-1.311-.7,0-1.12.38-1.12.988,0,2.09,5.281,2.223,5.281,6.459,0,2.185-1.539,3.781-4.18,3.781A3.782,3.782,0,0,1,163.458,19.974Z"/><path d="M182.361,13.116h-2.6V23.85h-2.774V13.116h-2.6V10.552h7.978Z"/><path d="M184.6,10.552H187.4l1.2,6.288c.189.969.417,2.6.551,3.7h.075c.133-1.1.361-2.735.551-3.7l1.2-6.288h2.793l-3.154,13.3h-2.849Z"/><path d="M196.9,10.552h2.7v13.3h-2.7Zm1.843-3.876h2.147l-2.147,2.6h-1.786Z"/><path d="M214.471,21.646h-2.812l-.436,2.2H208.43l3.191-13.3h2.888l3.191,13.3h-2.792Zm-.532-2.565-.3-1.519c-.172-.95-.4-2.565-.532-3.648h-.077c-.132,1.083-.341,2.7-.532,3.648l-.3,1.519Z"/><path d="M227.486,21.285V23.85h-6.649v-13.3h2.7V21.285Z"/><path d="M230.3,19.537V14.864c0-2.85,1.615-4.54,4.312-4.54s4.313,1.69,4.313,4.54v4.673c0,2.85-1.615,4.54-4.313,4.54S230.3,22.387,230.3,19.537Zm5.832,0V14.864c0-1.253-.513-1.918-1.52-1.918s-1.519.665-1.519,1.918v4.673c0,1.254.512,1.919,1.519,1.919S236.131,20.791,236.131,19.537Z"/><path d="M246.2,18.816l-.74,1.2V23.85H242.8v-13.3h2.66v5.091l.684-1.482,1.861-3.609h3.078L247.7,16.365l3.951,7.485h-3.039Z"/><path d="M254.049,19.537V14.864c0-2.85,1.615-4.54,4.312-4.54s4.313,1.69,4.313,4.54v4.673c0,2.85-1.615,4.54-4.313,4.54S254.049,22.387,254.049,19.537Zm5.832,0V14.864c0-1.253-.513-1.918-1.52-1.918s-1.519.665-1.519,1.918v4.673c0,1.254.512,1.919,1.519,1.919S259.881,20.791,259.881,19.537Z"/><path d="M265.43,10.552h2.793l1.2,6.288c.189.969.417,2.6.551,3.7h.075c.134-1.1.361-2.735.552-3.7l1.2-6.288h2.793l-3.153,13.3h-2.85Z"/><path d="M282,21.646h-2.811l-.437,2.2h-2.793l3.191-13.3h2.888l3.192,13.3h-2.792Zm-.531-2.565-.3-1.519c-.172-.95-.4-2.565-.532-3.648h-.076c-.133,1.083-.342,2.7-.532,3.648l-.3,1.519Z"/><path d="M288.362,10.552h2.66l2.527,5.774c.322.836.627,1.71.949,2.546l.058-.056a45.737,45.737,0,0,1-.38-5.187V10.552h2.659v13.3h-2.659L291.934,18.7l-1.2-3.249-.057.058a54.024,54.024,0,0,1,.342,5.642v2.7h-2.66Z"/><path d="M303.049,19.9l-3.135-9.346h2.793l1.082,3.685c.134.437.438,1.482.57,2.128h.077c.151-.646.456-1.691.607-2.185l1.045-3.628h2.793L305.746,19.9V23.85h-2.7Zm1.823-13.222h2.147l-2.147,2.6h-1.785Z"/><path d="M311.58,19.784V14.617c0-2.812,1.52-4.332,4.122-4.332,2.66,0,4.142,1.52,4.236,4.332h-2.7c-.076-1.215-.532-1.71-1.557-1.71-.818,0-1.292.532-1.292,1.71v5.167c0,1.14.456,1.672,1.292,1.672,1.045,0,1.519-.494,1.595-1.672h2.7c-.057,2.792-1.6,4.293-4.293,4.293C313.1,24.077,311.58,22.576,311.58,19.784Z"/><path d="M331.6,10.552v13.3h-2.716V18.436h-2.736V23.85h-2.716v-13.3h2.716V15.87h2.736V10.552Z"/><path d="M349.807,15.073c0,2.831-1.634,4.5-4.389,4.5h-1.159V23.85h-2.7v-13.3h3.856C348.173,10.552,349.807,12.223,349.807,15.073Zm-2.774,0c0-1.291-.57-1.957-1.653-1.957h-1.121v3.895h1.121C346.463,17.011,347.033,16.346,347.033,15.073Z"/><path d="M353.037,19.537V14.864c0-2.85,1.615-4.54,4.313-4.54s4.312,1.69,4.312,4.54v4.673c0,2.85-1.615,4.54-4.312,4.54S353.037,22.387,353.037,19.537Zm5.832,0V14.864c0-1.253-.513-1.918-1.519-1.918s-1.52.665-1.52,1.918v4.673c0,1.254.513,1.919,1.52,1.919S358.869,20.791,358.869,19.537Z"/><path d="M364.418,10.552h2.793l1.2,6.288c.19.969.417,2.6.551,3.7h.075c.134-1.1.362-2.735.552-3.7l1.2-6.288h2.793l-3.153,13.3h-2.85Z"/><path d="M376.331,19.537V14.864c0-2.85,1.615-4.54,4.313-4.54s4.312,1.69,4.312,4.54v4.673c0,2.85-1.615,4.54-4.312,4.54S376.331,22.387,376.331,19.537Zm5.832,0V14.864c0-1.253-.513-1.918-1.519-1.918s-1.52.665-1.52,1.918v4.673c0,1.254.513,1.919,1.52,1.919S382.163,20.791,382.163,19.537Z"/><path d="M395.482,21.285V23.85h-6.649v-13.3h2.7V21.285Z"/><path d="M405.723,21.285V23.85h-7.048v-13.3h6.858v2.564h-4.161V15.87h3.781v2.47h-3.781v2.945Z"/><path d="M409.467,10.552h2.66l2.526,5.774c.324.836.627,1.71.95,2.546l.057-.056a45.97,45.97,0,0,1-.38-5.187V10.552h2.659v13.3H415.28L413.038,18.7l-1.2-3.249-.058.058a54.035,54.035,0,0,1,.343,5.642v2.7h-2.66Z"/><path d="M429.244,21.285V23.85H422.2v-13.3h6.859v2.564h-4.161V15.87h3.781v2.47h-3.781v2.945Z"/><path d="M436.389,18.816l-.741,1.2V23.85h-2.66v-13.3h2.66v5.091l.684-1.482,1.861-3.609h3.078l-3.381,5.813,3.951,7.485H438.8Z"/><rect class="cls-4" x="37.367" y="136.815" width="26.611" height="197.475"/><rect class="cls-4" x="63.978" y="140.44" width="26.611" height="193.85"/><rect class="cls-4" x="90.589" y="144.066" width="26.611" height="190.225"/><rect class="cls-4" x="117.2" y="147.691" width="26.611" height="186.599"/><rect class="cls-4" x="143.81" y="151.316" width="26.611" height="182.974"/><rect class="cls-4" x="170.421" y="154.942" width="26.611" height="179.349"/><rect class="cls-4" x="197.032" y="158.567" width="26.611" height="175.723"/><rect class="cls-4" x="223.643" y="162.192" width="26.611" height="172.098"/><rect class="cls-4" x="250.254" y="185.392" width="26.611" height="148.898"/><rect class="cls-4" x="276.864" y="189.466" width="26.611" height="144.824"/><rect class="cls-4" x="303.475" y="193.541" width="26.611" height="140.75"/><rect class="cls-4" x="330.086" y="197.615" width="26.611" height="136.675"/><rect class="cls-4" x="356.697" y="201.689" width="26.611" height="132.601"/><rect class="cls-4" x="383.308" y="205.764" width="26.611" height="128.527"/><rect class="cls-4" x="409.918" y="209.838" width="26.611" height="124.452"/><rect class="cls-4" x="436.529" y="213.912" width="26.611" height="120.378"/><rect class="cls-4" x="463.14" y="217.863" width="26.611" height="116.304"/><rect class="cls-4" x="489.751" y="222.061" width="26.611" height="112.229"/><line class="cls-1" x1="250.254" y1="185.392" x2="250.254" y2="334.29"/><line class="cls-1" x1="37.367" y1="136.815" x2="37.367" y2="334.29"/><path class="cls-5" d="M257.39,171.763c4.914-.462,24.958-4.227,24.958-34.948"/><polygon class="cls-6" points="261.205 175.311 261.786 174.496 257.769 171.637 260.914 167.839 260.142 167.202 256.313 171.828 261.205 175.311"/><path class="cls-7" d="M127.03,262.6h-4.291v4.519h-1.853V256.453h6.775v1.5h-4.922v3.171h4.291Z"/><path class="cls-7" d="M133.439,267.117a2.752,2.752,0,0,1-.2-.74,2.99,2.99,0,0,1-4.027.2,2.171,2.171,0,0,1-.755-1.683,2.253,2.253,0,0,1,.942-1.946,4.563,4.563,0,0,1,2.691-.677h1.091v-.52a1.386,1.386,0,0,0-.344-.985,1.365,1.365,0,0,0-1.047-.37,1.562,1.562,0,0,0-1,.3.937.937,0,0,0-.389.773h-1.779a1.977,1.977,0,0,1,.432-1.22,2.876,2.876,0,0,1,1.176-.89,4.135,4.135,0,0,1,1.658-.322,3.331,3.331,0,0,1,2.219.7,2.5,2.5,0,0,1,.85,1.967v3.574a4.046,4.046,0,0,0,.3,1.706v.125Zm-1.955-1.281a2.025,2.025,0,0,0,.993-.257,1.71,1.71,0,0,0,.7-.688V263.4h-.959a2.629,2.629,0,0,0-1.487.344,1.113,1.113,0,0,0-.5.974,1.044,1.044,0,0,0,.34.817A1.321,1.321,0,0,0,131.484,265.836Zm.989-9.969H134.5l-2.029,2.219-1.428,0Z"/><path class="cls-7" d="M138.721,265.7h4.218v1.42h-6.43v-1.164l4.02-5.325h-3.947v-1.435h6.2v1.128Z"/><path class="cls-7" d="M147.736,267.264a3.685,3.685,0,0,1-2.743-1.065,3.868,3.868,0,0,1-1.052-2.839v-.219a4.775,4.775,0,0,1,.458-2.121,3.482,3.482,0,0,1,1.287-1.453,3.389,3.389,0,0,1,1.845-.521,3.117,3.117,0,0,1,2.5,1.032,4.373,4.373,0,0,1,.882,2.923v.718h-5.178a2.385,2.385,0,0,0,.656,1.553,1.966,1.966,0,0,0,1.446.571,2.407,2.407,0,0,0,1.992-.989l.96.916a3.207,3.207,0,0,1-1.27,1.1A3.988,3.988,0,0,1,147.736,267.264Zm-.213-6.789a1.5,1.5,0,0,0-1.182.512,2.653,2.653,0,0,0-.575,1.428h3.39v-.132a2.167,2.167,0,0,0-.475-1.351A1.489,1.489,0,0,0,147.523,260.475Z"/><path class="cls-7" d="M158.158,267.117h-1.846V256.453h1.846Z"/><path class="cls-7" d="M162.392,267.117h-1.846V256.453h1.846Z"/><path class="cls-7" d="M166.625,267.117h-1.846V256.453h1.846Z"/><path class="cls-7" d="M365.4,262.6h-4.291v4.519h-1.853V256.453h6.775v1.5h-4.922v3.171H365.4Z"/><path class="cls-7" d="M371.806,267.117a2.715,2.715,0,0,1-.2-.74,2.991,2.991,0,0,1-4.028.2,2.171,2.171,0,0,1-.755-1.683,2.253,2.253,0,0,1,.942-1.946,4.563,4.563,0,0,1,2.691-.677h1.091v-.52a1.386,1.386,0,0,0-.344-.985,1.365,1.365,0,0,0-1.047-.37,1.562,1.562,0,0,0-1,.3.939.939,0,0,0-.388.773h-1.78a1.977,1.977,0,0,1,.432-1.22,2.882,2.882,0,0,1,1.176-.89,4.138,4.138,0,0,1,1.658-.322,3.334,3.334,0,0,1,2.22.7,2.5,2.5,0,0,1,.849,1.967v3.574a4.046,4.046,0,0,0,.3,1.706v.125Zm-1.955-1.281a2.024,2.024,0,0,0,.992-.257,1.71,1.71,0,0,0,.7-.688V263.4h-.959a2.623,2.623,0,0,0-1.486.344,1.113,1.113,0,0,0-.5.974,1.043,1.043,0,0,0,.339.817A1.321,1.321,0,0,0,369.851,265.836Zm.988-9.969h2.029l-2.029,2.219-1.428,0Z"/><path class="cls-7" d="M377.087,265.7h4.219v1.42h-6.431v-1.164l4.021-5.325h-3.948v-1.435h6.2v1.128Z"/><path class="cls-7" d="M386.1,267.264a3.688,3.688,0,0,1-2.743-1.065,3.867,3.867,0,0,1-1.051-2.839v-.219a4.762,4.762,0,0,1,.458-2.121,3.473,3.473,0,0,1,1.286-1.453,3.389,3.389,0,0,1,1.845-.521,3.114,3.114,0,0,1,2.5,1.032,4.373,4.373,0,0,1,.882,2.923v.718H384.1a2.385,2.385,0,0,0,.656,1.553,1.967,1.967,0,0,0,1.446.571,2.406,2.406,0,0,0,1.992-.989l.96.916a3.207,3.207,0,0,1-1.27,1.1A3.988,3.988,0,0,1,386.1,267.264Zm-.212-6.789a1.5,1.5,0,0,0-1.183.512,2.653,2.653,0,0,0-.575,1.428h3.39v-.132a2.167,2.167,0,0,0-.475-1.351A1.487,1.487,0,0,0,385.892,260.475Z"/><path class="cls-7" d="M396.525,267.117H394.68V256.453h1.845Z"/><path class="cls-7" d="M402.562,264.8l2.709-8.342h2.037l-3.838,10.664h-1.8l-3.823-10.664h2.028Z"/><rect class="cls-8" x="265.043" y="93.41" width="238.014" height="6.933"/><path d="M283.692,73.827l.059.227.066-.227,3.355-9.345h.989L284.19,75.146h-.863l-3.971-10.664h.983Z"/><path d="M292.269,75.292a3.444,3.444,0,0,1-1.828-.5,3.4,3.4,0,0,1-1.27-1.387,4.329,4.329,0,0,1-.454-2V71.1a4.656,4.656,0,0,1,.443-2.058,3.525,3.525,0,0,1,1.234-1.439,3.046,3.046,0,0,1,1.714-.524,2.86,2.86,0,0,1,2.288.986,3.989,3.989,0,0,1,.847,2.691v.49h-5.654v.169a3.322,3.322,0,0,0,.772,2.246,2.46,2.46,0,0,0,1.945.9,2.855,2.855,0,0,0,1.241-.256,2.75,2.75,0,0,0,.977-.82l.55.418A3.2,3.2,0,0,1,292.269,75.292Zm-.161-7.47a2.2,2.2,0,0,0-1.667.724,3.357,3.357,0,0,0-.823,1.949h4.753V70.4a2.909,2.909,0,0,0-.651-1.861A2.024,2.024,0,0,0,292.108,67.822Z"/><path d="M297.931,75.146h-.879V63.9h.879Z"/><path d="M302.194,71.154l-1,.966v3.026h-.878V63.9h.878v7.2l.829-.893,3.031-2.981h1.106l-3.362,3.34,3.655,4.585H305.4Z"/><path d="M312.659,75.146a4.163,4.163,0,0,1-.168-1.106,3.037,3.037,0,0,1-1.176.926,3.583,3.583,0,0,1-1.511.326,2.665,2.665,0,0,1-1.85-.636,2.076,2.076,0,0,1-.707-1.612,2.124,2.124,0,0,1,.963-1.832,4.64,4.64,0,0,1,2.685-.674h1.588v-.9a1.734,1.734,0,0,0-.523-1.337,2.167,2.167,0,0,0-1.527-.487,2.4,2.4,0,0,0-1.516.468,1.4,1.4,0,0,0-.6,1.129l-.878-.007a2.036,2.036,0,0,1,.878-1.637,3.383,3.383,0,0,1,2.162-.693,3.082,3.082,0,0,1,2.09.664,2.375,2.375,0,0,1,.787,1.849v3.75a4.672,4.672,0,0,0,.242,1.721v.088Zm-2.754-.63a2.946,2.946,0,0,0,1.572-.425,2.5,2.5,0,0,0,1.006-1.135V71.212h-1.566a3.925,3.925,0,0,0-2.051.481,1.437,1.437,0,0,0-.74,1.277,1.418,1.418,0,0,0,.494,1.106A1.863,1.863,0,0,0,309.9,74.516Zm1.729-10.62H312.7l-1.691,2.051-.77,0Z"/><path d="M319.545,75.146V64.482h3.149a4.1,4.1,0,0,1,2.6.707,2.51,2.51,0,0,1,.886,2.085,2.365,2.365,0,0,1-.451,1.44,2.457,2.457,0,0,1-1.234.876,2.584,2.584,0,0,1,2.066,2.555,2.77,2.77,0,0,1-.913,2.207,3.739,3.739,0,0,1-2.538.794Zm.9-5.881h2.461a2.772,2.772,0,0,0,1.747-.532,1.815,1.815,0,0,0,.619-1.487,1.781,1.781,0,0,0-.64-1.514,3.184,3.184,0,0,0-1.938-.489h-2.249Zm0,.762v4.357h2.7a2.7,2.7,0,0,0,1.835-.589,2.047,2.047,0,0,0,.677-1.634,1.982,1.982,0,0,0-.647-1.561,2.609,2.609,0,0,0-1.791-.573Z"/><path d="M332.194,67.968a3.283,3.283,0,0,0-.593-.051,2.147,2.147,0,0,0-1.388.457,2.521,2.521,0,0,0-.81,1.33v5.442h-.871V67.221h.858l.013,1.26a2.332,2.332,0,0,1,2.235-1.407,1.467,1.467,0,0,1,.578.095Z"/><path d="M333.528,64.932a.585.585,0,0,1,.16-.418.576.576,0,0,1,.44-.171.586.586,0,0,1,.443.171.573.573,0,0,1,.165.418.563.563,0,0,1-.165.415.6.6,0,0,1-.443.168.585.585,0,0,1-.44-.168A.575.575,0,0,1,333.528,64.932Zm1.033,10.214h-.879V67.221h.879Z"/><path d="M338.3,65.193v2.028h1.64v.718H338.3v5.286a1.656,1.656,0,0,0,.238.983.921.921,0,0,0,.794.323,5.47,5.47,0,0,0,.711-.074l.037.712a2.878,2.878,0,0,1-.937.123,1.566,1.566,0,0,1-1.312-.523,2.47,2.47,0,0,1-.41-1.542V67.939h-1.458v-.718h1.458V65.193Z"/><path d="M346.762,75.146a4.122,4.122,0,0,1-.168-1.106,3.044,3.044,0,0,1-1.176.926,3.588,3.588,0,0,1-1.512.326,2.663,2.663,0,0,1-1.849-.636,2.076,2.076,0,0,1-.707-1.612,2.126,2.126,0,0,1,.962-1.832A4.642,4.642,0,0,1,345,70.538h1.589v-.9a1.735,1.735,0,0,0-.524-1.337,2.166,2.166,0,0,0-1.527-.487,2.4,2.4,0,0,0-1.515.468,1.4,1.4,0,0,0-.6,1.129l-.879-.007a2.037,2.037,0,0,1,.879-1.637,3.382,3.382,0,0,1,2.161-.693,3.084,3.084,0,0,1,2.091.664,2.378,2.378,0,0,1,.787,1.849v3.75a4.676,4.676,0,0,0,.241,1.721v.088Zm-2.754-.63a2.943,2.943,0,0,0,1.571-.425,2.493,2.493,0,0,0,1.007-1.135V71.212H345.02a3.925,3.925,0,0,0-2.051.481,1.437,1.437,0,0,0-.74,1.277,1.418,1.418,0,0,0,.494,1.106A1.861,1.861,0,0,0,344.008,74.516Zm1.728-10.62H346.8l-1.692,2.051-.769,0Z"/><path d="M350.629,67.221l.029,1.354a3.155,3.155,0,0,1,1.113-1.116,2.889,2.889,0,0,1,1.472-.385,2.381,2.381,0,0,1,1.9.718,3.241,3.241,0,0,1,.63,2.154v5.2H354.9V69.939a2.417,2.417,0,0,0-.451-1.582,1.762,1.762,0,0,0-1.417-.521,2.219,2.219,0,0,0-1.439.509,2.994,2.994,0,0,0-.927,1.373v5.428h-.871V67.221Z"/><path d="M357.983,64.932a.582.582,0,0,1,.161-.418.572.572,0,0,1,.439-.171.585.585,0,0,1,.443.171.573.573,0,0,1,.165.418.563.563,0,0,1-.165.415.594.594,0,0,1-.443.168.582.582,0,0,1-.439-.168A.572.572,0,0,1,357.983,64.932Zm1.033,10.214h-.879V67.221h.879Z"/><path d="M364.464,75.292a3.44,3.44,0,0,1-1.827-.5,3.4,3.4,0,0,1-1.271-1.387,4.329,4.329,0,0,1-.454-2V71.1a4.67,4.67,0,0,1,.443-2.058,3.532,3.532,0,0,1,1.234-1.439,3.047,3.047,0,0,1,1.715-.524,2.861,2.861,0,0,1,2.288.986,3.994,3.994,0,0,1,.846,2.691v.49h-5.654v.169a3.318,3.318,0,0,0,.773,2.246,2.458,2.458,0,0,0,1.944.9,2.849,2.849,0,0,0,1.241-.256,2.745,2.745,0,0,0,.978-.82l.55.418A3.2,3.2,0,0,1,364.464,75.292Zm-.16-7.47a2.2,2.2,0,0,0-1.667.724,3.358,3.358,0,0,0-.824,1.949h4.753V70.4a2.909,2.909,0,0,0-.651-1.861A2.022,2.022,0,0,0,364.3,67.822Z"/><path d="M372.309,71.066a4.653,4.653,0,0,1,.443-2.058,3.327,3.327,0,0,1,3.087-1.934,3.261,3.261,0,0,1,2.563,1.11,4.274,4.274,0,0,1,.982,2.94v.184a4.7,4.7,0,0,1-.444,2.069,3.3,3.3,0,0,1-1.248,1.417,3.426,3.426,0,0,1-1.838.5,3.264,3.264,0,0,1-2.56-1.109,4.266,4.266,0,0,1-.985-2.942Zm.879.242a3.6,3.6,0,0,0,.736,2.333,2.491,2.491,0,0,0,3.852,0,3.715,3.715,0,0,0,.737-2.406v-.169a4.041,4.041,0,0,0-.338-1.662,2.7,2.7,0,0,0-.945-1.168,2.4,2.4,0,0,0-1.391-.414,2.342,2.342,0,0,0-1.912.919,3.722,3.722,0,0,0-.739,2.406Z"/><path d="M380.841,71.111a4.778,4.778,0,0,1,.824-2.942,2.654,2.654,0,0,1,2.237-1.095,2.758,2.758,0,0,1,2.447,1.267V63.9h.871v11.25H386.4l-.036-1.055a2.828,2.828,0,0,1-2.475,1.2,2.64,2.64,0,0,1-2.208-1.1,4.8,4.8,0,0,1-.839-2.978Zm.887.153a4.138,4.138,0,0,0,.607,2.392,1.967,1.967,0,0,0,1.714.875,2.361,2.361,0,0,0,2.3-1.428V69.382a2.343,2.343,0,0,0-2.286-1.546,1.987,1.987,0,0,0-1.72.868A4.417,4.417,0,0,0,381.728,71.264Z"/><path d="M392.457,74.552a2.314,2.314,0,0,0,1.534-.516,1.82,1.82,0,0,0,.671-1.337h.842a2.494,2.494,0,0,1-.454,1.323,2.855,2.855,0,0,1-1.11.933,3.338,3.338,0,0,1-1.483.337,3.061,3.061,0,0,1-2.472-1.084,4.38,4.38,0,0,1-.912-2.915V71.03a4.969,4.969,0,0,1,.41-2.074,3.164,3.164,0,0,1,1.176-1.39,3.245,3.245,0,0,1,1.79-.492,3.06,3.06,0,0,1,2.151.777,2.833,2.833,0,0,1,.9,2.043h-.842a2.122,2.122,0,0,0-2.213-2.072,2.185,2.185,0,0,0-1.842.857,3.881,3.881,0,0,0-.655,2.4v.256a3.792,3.792,0,0,0,.655,2.365A2.2,2.2,0,0,0,392.457,74.552Z"/><path d="M398.126,68.562a3.106,3.106,0,0,1,1.106-1.1,2.907,2.907,0,0,1,1.472-.388,2.381,2.381,0,0,1,1.9.718,3.236,3.236,0,0,1,.629,2.154v5.2h-.871V69.939a2.423,2.423,0,0,0-.451-1.582,1.762,1.762,0,0,0-1.417-.521,2.219,2.219,0,0,0-1.439.509,2.994,2.994,0,0,0-.927,1.373v5.428h-.871V63.9h.871Z"/><path d="M405,71.066a4.653,4.653,0,0,1,.443-2.058,3.327,3.327,0,0,1,3.087-1.934,3.264,3.264,0,0,1,2.564,1.11,4.279,4.279,0,0,1,.981,2.94v.184a4.7,4.7,0,0,1-.443,2.069,3.309,3.309,0,0,1-1.248,1.417,3.43,3.43,0,0,1-1.839.5,3.265,3.265,0,0,1-2.56-1.109A4.266,4.266,0,0,1,405,71.241Zm.879.242a3.6,3.6,0,0,0,.736,2.333,2.492,2.492,0,0,0,3.853,0,3.721,3.721,0,0,0,.736-2.406v-.169a4.024,4.024,0,0,0-.338-1.662,2.7,2.7,0,0,0-.944-1.168,2.4,2.4,0,0,0-1.392-.414,2.342,2.342,0,0,0-1.912.919,3.722,3.722,0,0,0-.739,2.406Z"/><path d="M413.536,71.111a4.784,4.784,0,0,1,.824-2.942,2.654,2.654,0,0,1,2.238-1.095,2.758,2.758,0,0,1,2.446,1.267V63.9h.871v11.25h-.82l-.036-1.055a2.831,2.831,0,0,1-2.476,1.2,2.641,2.641,0,0,1-2.208-1.1,4.8,4.8,0,0,1-.839-2.978Zm.887.153a4.138,4.138,0,0,0,.607,2.392,1.969,1.969,0,0,0,1.714.875,2.361,2.361,0,0,0,2.3-1.428V69.382a2.342,2.342,0,0,0-2.285-1.546,1.988,1.988,0,0,0-1.721.868A4.417,4.417,0,0,0,414.423,71.264Z"/><path d="M425.291,75.292a3.44,3.44,0,0,1-1.827-.5,3.4,3.4,0,0,1-1.271-1.387,4.341,4.341,0,0,1-.454-2V71.1a4.656,4.656,0,0,1,.444-2.058,3.53,3.53,0,0,1,1.233-1.439,3.049,3.049,0,0,1,1.715-.524,2.861,2.861,0,0,1,2.288.986,3.994,3.994,0,0,1,.847,2.691v.49h-5.655v.169a3.318,3.318,0,0,0,.773,2.246,2.458,2.458,0,0,0,1.944.9,2.849,2.849,0,0,0,1.241-.256,2.745,2.745,0,0,0,.978-.82l.55.418A3.2,3.2,0,0,1,425.291,75.292Zm-.16-7.47a2.2,2.2,0,0,0-1.667.724,3.351,3.351,0,0,0-.823,1.949h4.753V70.4a2.915,2.915,0,0,0-.652-1.861A2.022,2.022,0,0,0,425.131,67.822Z"/><path d="M430.771,67.221l.029,1.289a2.943,2.943,0,0,1,1.1-1.077,3.029,3.029,0,0,1,1.465-.359,2.224,2.224,0,0,1,2.381,1.539,2.964,2.964,0,0,1,1.135-1.139,3.138,3.138,0,0,1,1.568-.4q2.55,0,2.6,2.784v5.288h-.879V69.923a2.359,2.359,0,0,0-.458-1.574,1.862,1.862,0,0,0-1.468-.513,2.333,2.333,0,0,0-1.6.612,2.159,2.159,0,0,0-.725,1.454v5.244h-.879V69.858a2.175,2.175,0,0,0-.479-1.52,1.91,1.91,0,0,0-1.455-.5,2.2,2.2,0,0,0-1.42.473,2.759,2.759,0,0,0-.879,1.4v5.435h-.879V67.221Z"/><path d="M447.49,74.406h5.15v.74h-6.234V74.5l4.805-6.518h-4.658v-.762h5.764v.658Z"/><path d="M463.948,70.033H458.96v4.351H464.7v.762H458.06V64.482h6.6v.761h-5.7v4.029h4.988Z"/><path d="M473.938,64.482v7.28a3.681,3.681,0,0,1-.475,1.875,3.126,3.126,0,0,1-1.322,1.227,4.3,4.3,0,0,1-1.959.428,3.869,3.869,0,0,1-2.7-.919,3.374,3.374,0,0,1-1.05-2.546V64.482h.893V71.7a2.767,2.767,0,0,0,.77,2.09,3.288,3.288,0,0,0,4.171,0,2.776,2.776,0,0,0,.764-2.08V64.482Z"/><path d="M279.789,87.066a4.667,4.667,0,0,1,.443-2.058,3.327,3.327,0,0,1,3.087-1.934,3.263,3.263,0,0,1,2.564,1.11,4.279,4.279,0,0,1,.981,2.94v.184a4.7,4.7,0,0,1-.443,2.069,3.309,3.309,0,0,1-1.248,1.417,3.43,3.43,0,0,1-1.839.5,3.265,3.265,0,0,1-2.56-1.109,4.266,4.266,0,0,1-.985-2.942Zm.879.242a3.6,3.6,0,0,0,.736,2.333,2.492,2.492,0,0,0,3.853,0,3.721,3.721,0,0,0,.736-2.406v-.169a4.024,4.024,0,0,0-.338-1.662,2.7,2.7,0,0,0-.944-1.168,2.4,2.4,0,0,0-1.392-.414,2.342,2.342,0,0,0-1.912.919,3.722,3.722,0,0,0-.739,2.406Z"/><path d="M295.045,87.264a4.775,4.775,0,0,1-.82,2.94,2.612,2.612,0,0,1-2.2,1.088,2.934,2.934,0,0,1-2.49-1.142v4.043h-.872V83.221h.814l.043,1.12a2.815,2.815,0,0,1,2.483-1.267,2.633,2.633,0,0,1,2.23,1.078,4.869,4.869,0,0,1,.81,2.988Zm-.879-.153a4.084,4.084,0,0,0-.622-2.4,2.009,2.009,0,0,0-1.736-.879,2.311,2.311,0,0,0-2.271,1.517v3.8a2.33,2.33,0,0,0,.9,1.04,2.6,2.6,0,0,0,1.384.358,1.988,1.988,0,0,0,1.725-.882A4.434,4.434,0,0,0,294.166,87.111Z"/><path d="M302.083,90.142a2.847,2.847,0,0,1-2.527,1.15,2.449,2.449,0,0,1-1.926-.736,3.221,3.221,0,0,1-.674-2.179V83.221h.871v5.046q0,2.265,1.832,2.264a2.244,2.244,0,0,0,2.409-1.575V83.221h.879v7.925H302.1Z"/><path d="M309.972,89.132a1.252,1.252,0,0,0-.524-1.048,4.064,4.064,0,0,0-1.578-.619,7.045,7.045,0,0,1-1.638-.513,2.174,2.174,0,0,1-.864-.707,1.765,1.765,0,0,1-.281-1.009,1.888,1.888,0,0,1,.783-1.55,3.172,3.172,0,0,1,2.007-.612,3.259,3.259,0,0,1,2.128.656,2.107,2.107,0,0,1,.8,1.711h-.879a1.427,1.427,0,0,0-.582-1.159,2.634,2.634,0,0,0-2.857-.076,1.186,1.186,0,0,0-.523,1,1.08,1.08,0,0,0,.435.919,4.624,4.624,0,0,0,1.589.6,7.478,7.478,0,0,1,1.729.578,2.229,2.229,0,0,1,.853.74,2.033,2.033,0,0,1-.531,2.652,3.458,3.458,0,0,1-2.112.6,3.545,3.545,0,0,1-2.245-.67,2.059,2.059,0,0,1-.861-1.695h.879a1.521,1.521,0,0,0,.648,1.2,2.653,2.653,0,0,0,1.579.428,2.492,2.492,0,0,0,1.478-.4A1.211,1.211,0,0,0,309.972,89.132Z"/><path d="M314.184,81.193v2.028h1.64v.718h-1.64v5.286a1.656,1.656,0,0,0,.238.983.921.921,0,0,0,.794.323,5.47,5.47,0,0,0,.711-.074l.037.712a2.885,2.885,0,0,1-.938.123,1.565,1.565,0,0,1-1.311-.523,2.464,2.464,0,0,1-.41-1.542V83.939h-1.458v-.718h1.458V81.193Z"/><path d="M317.59,80.932a.585.585,0,0,1,.16-.418.574.574,0,0,1,.439-.171.588.588,0,0,1,.444.171.577.577,0,0,1,.165.418.567.567,0,0,1-.165.415.6.6,0,0,1-.444.168.583.583,0,0,1-.439-.168A.575.575,0,0,1,317.59,80.932Zm1.032,10.214h-.879V83.221h.879Z"/><path d="M321.984,91.146h-.879V79.9h.879Z"/><path d="M329.366,91.146a4.163,4.163,0,0,1-.168-1.106,3.037,3.037,0,0,1-1.176.926,3.583,3.583,0,0,1-1.511.326,2.665,2.665,0,0,1-1.85-.636,2.076,2.076,0,0,1-.707-1.612,2.124,2.124,0,0,1,.963-1.832,4.64,4.64,0,0,1,2.685-.674h1.588v-.9a1.734,1.734,0,0,0-.523-1.337,2.167,2.167,0,0,0-1.527-.487,2.4,2.4,0,0,0-1.516.468,1.4,1.4,0,0,0-.6,1.129l-.878-.007a2.039,2.039,0,0,1,.878-1.637,3.383,3.383,0,0,1,2.162-.693,3.082,3.082,0,0,1,2.09.664,2.375,2.375,0,0,1,.787,1.849v3.75a4.672,4.672,0,0,0,.242,1.721v.088Zm-2.754-.63a2.946,2.946,0,0,0,1.572-.425,2.491,2.491,0,0,0,1.006-1.135V87.212h-1.566a3.925,3.925,0,0,0-2.051.481,1.437,1.437,0,0,0-.74,1.277,1.418,1.418,0,0,0,.494,1.106A1.863,1.863,0,0,0,326.612,90.516Z"/><path d="M337.409,81.193v2.028h1.641v.718h-1.641v5.286a1.656,1.656,0,0,0,.238.983.922.922,0,0,0,.794.323,5.453,5.453,0,0,0,.711-.074l.037.712a2.878,2.878,0,0,1-.937.123,1.567,1.567,0,0,1-1.312-.523,2.47,2.47,0,0,1-.41-1.542V83.939h-1.458v-.718h1.458V81.193Z"/><path d="M345.868,91.146a4.163,4.163,0,0,1-.168-1.106,3.037,3.037,0,0,1-1.176.926,3.583,3.583,0,0,1-1.511.326,2.665,2.665,0,0,1-1.85-.636,2.076,2.076,0,0,1-.707-1.612,2.124,2.124,0,0,1,.963-1.832,4.64,4.64,0,0,1,2.685-.674h1.588v-.9a1.734,1.734,0,0,0-.523-1.337,2.167,2.167,0,0,0-1.527-.487,2.4,2.4,0,0,0-1.516.468,1.4,1.4,0,0,0-.6,1.129l-.879-.007a2.037,2.037,0,0,1,.879-1.637,3.383,3.383,0,0,1,2.162-.693,3.082,3.082,0,0,1,2.09.664,2.375,2.375,0,0,1,.787,1.849v3.75a4.672,4.672,0,0,0,.242,1.721v.088Zm-2.754-.63a2.946,2.946,0,0,0,1.572-.425,2.5,2.5,0,0,0,1.006-1.135V87.212h-1.566a3.925,3.925,0,0,0-2.051.481,1.437,1.437,0,0,0-.74,1.277,1.418,1.418,0,0,0,.494,1.106A1.863,1.863,0,0,0,343.114,90.516Z"/><path d="M350.784,87.154l-1,.966v3.026H348.9V79.9h.879v7.2l.828-.893,3.032-2.981h1.106l-3.362,3.34,3.655,4.585h-1.048Z"/><path d="M359.169,91.292a3.44,3.44,0,0,1-1.827-.5,3.4,3.4,0,0,1-1.271-1.387,4.341,4.341,0,0,1-.454-2V87.1a4.656,4.656,0,0,1,.444-2.058,3.522,3.522,0,0,1,1.233-1.439,3.049,3.049,0,0,1,1.715-.524,2.861,2.861,0,0,1,2.288.986,3.994,3.994,0,0,1,.847,2.691v.49h-5.655v.169a3.318,3.318,0,0,0,.773,2.246,2.458,2.458,0,0,0,1.944.9,2.849,2.849,0,0,0,1.241-.256,2.745,2.745,0,0,0,.978-.82l.55.418A3.2,3.2,0,0,1,359.169,91.292Zm-.16-7.47a2.2,2.2,0,0,0-1.667.724,3.351,3.351,0,0,0-.823,1.949h4.752V86.4a2.909,2.909,0,0,0-.651-1.861A2.022,2.022,0,0,0,359.009,83.822Zm.973-3.926h1.062l-1.691,2.051-.77,0Z"/><path d="M373.591,86.033H368.6v4.351h5.735v.762H367.7V80.482h6.6v.761h-5.7v4.029h4.988Z"/><path d="M383.581,80.482v7.28a3.682,3.682,0,0,1-.476,1.875,3.114,3.114,0,0,1-1.322,1.227,4.3,4.3,0,0,1-1.959.428,3.866,3.866,0,0,1-2.7-.919,3.375,3.375,0,0,1-1.051-2.546V80.482h.894V87.7a2.77,2.77,0,0,0,.769,2.09,3.288,3.288,0,0,0,4.171,0,2.773,2.773,0,0,0,.765-2.08V80.482Z"/><path d="M395.63,86.033h-4.988v4.351h5.735v.762h-6.636V80.482h6.6v.761h-5.7v4.029h4.988Z"/><path d="M405.657,81.243H402v9.9h-.9v-9.9h-3.648v-.761h8.2Z"/><path d="M413.3,88.524a1.727,1.727,0,0,0-.623-1.4,6.558,6.558,0,0,0-2.277-.981,8,8,0,0,1-2.417-1.015A2.46,2.46,0,0,1,407.9,81.1a4.134,4.134,0,0,1,2.575-.766,4.281,4.281,0,0,1,1.9.41,3.12,3.12,0,0,1,1.3,1.143,3.006,3.006,0,0,1,.461,1.633h-.909a2.238,2.238,0,0,0-.746-1.759,2.911,2.911,0,0,0-2.007-.665,3.161,3.161,0,0,0-1.948.547,1.7,1.7,0,0,0-.725,1.427,1.613,1.613,0,0,0,.651,1.327,6.044,6.044,0,0,0,2.088.906,9.9,9.9,0,0,1,2.176.813,3.143,3.143,0,0,1,1.113,1.007,2.534,2.534,0,0,1,.373,1.385,2.412,2.412,0,0,1-1.007,2.022,4.3,4.3,0,0,1-2.655.761,5.232,5.232,0,0,1-2.069-.4,3.159,3.159,0,0,1-1.428-1.129,2.9,2.9,0,0,1-.487-1.662h.9a2.125,2.125,0,0,0,.843,1.779,3.554,3.554,0,0,0,2.241.653,3.334,3.334,0,0,0,2-.549A1.722,1.722,0,0,0,413.3,88.524Z"/><path d="M415.757,93.138l-.52-.381a3.19,3.19,0,0,0,.689-1.853V89.769h.856v.916A3.157,3.157,0,0,1,415.757,93.138Z"/><path d="M428.831,87.264a4.768,4.768,0,0,1-.82,2.94,2.612,2.612,0,0,1-2.2,1.088,2.934,2.934,0,0,1-2.49-1.142v4.043h-.872V83.221h.814l.044,1.12a2.812,2.812,0,0,1,2.482-1.267,2.633,2.633,0,0,1,2.23,1.078,4.863,4.863,0,0,1,.81,2.988Zm-.879-.153a4.084,4.084,0,0,0-.622-2.4,2.009,2.009,0,0,0-1.736-.879,2.311,2.311,0,0,0-2.271,1.517v3.8a2.326,2.326,0,0,0,.9,1.04,2.592,2.592,0,0,0,1.383.358,1.988,1.988,0,0,0,1.725-.882A4.434,4.434,0,0,0,427.952,87.111Z"/><path d="M434.435,83.968a3.3,3.3,0,0,0-.594-.051,2.147,2.147,0,0,0-1.388.457,2.52,2.52,0,0,0-.809,1.33v5.442h-.872V83.221h.858l.014,1.26a2.33,2.33,0,0,1,2.234-1.407,1.467,1.467,0,0,1,.578.095Z"/><path d="M435.189,87.066a4.653,4.653,0,0,1,.444-2.058,3.327,3.327,0,0,1,3.087-1.934,3.262,3.262,0,0,1,2.563,1.11,4.274,4.274,0,0,1,.982,2.94v.184a4.7,4.7,0,0,1-.444,2.069,3.309,3.309,0,0,1-1.248,1.417,3.427,3.427,0,0,1-1.839.5,3.263,3.263,0,0,1-2.559-1.109,4.267,4.267,0,0,1-.986-2.942Zm.879.242a3.592,3.592,0,0,0,.737,2.333,2.491,2.491,0,0,0,3.852,0,3.721,3.721,0,0,0,.737-2.406v-.169a4.041,4.041,0,0,0-.338-1.662,2.7,2.7,0,0,0-.945-1.168,2.4,2.4,0,0,0-1.391-.414,2.341,2.341,0,0,0-1.912.919,3.716,3.716,0,0,0-.74,2.406Z"/><path d="M445.436,81.193v2.028h1.64v.718h-1.64v5.286a1.656,1.656,0,0,0,.238.983.921.921,0,0,0,.794.323,5.47,5.47,0,0,0,.711-.074l.037.712a2.885,2.885,0,0,1-.938.123,1.565,1.565,0,0,1-1.311-.523,2.464,2.464,0,0,1-.41-1.542V83.939H443.1v-.718h1.458V81.193Z"/><path d="M448.263,87.066a4.653,4.653,0,0,1,.443-2.058,3.327,3.327,0,0,1,3.087-1.934,3.261,3.261,0,0,1,2.563,1.11,4.274,4.274,0,0,1,.982,2.94v.184a4.712,4.712,0,0,1-.443,2.069,3.305,3.305,0,0,1-1.249,1.417,3.426,3.426,0,0,1-1.838.5,3.264,3.264,0,0,1-2.56-1.109,4.266,4.266,0,0,1-.985-2.942Zm.879.242a3.6,3.6,0,0,0,.736,2.333,2.491,2.491,0,0,0,3.852,0,3.715,3.715,0,0,0,.737-2.406v-.169a4.024,4.024,0,0,0-.338-1.662,2.7,2.7,0,0,0-.944-1.168,2.41,2.41,0,0,0-1.392-.414,2.342,2.342,0,0,0-1.912.919,3.722,3.722,0,0,0-.739,2.406Z"/><path d="M460.443,87.111a4.778,4.778,0,0,1,.825-2.942,2.651,2.651,0,0,1,2.237-1.095,2.757,2.757,0,0,1,2.446,1.267V79.9h.871v11.25H466l-.036-1.055a2.831,2.831,0,0,1-2.476,1.2,2.641,2.641,0,0,1-2.208-1.1,4.8,4.8,0,0,1-.839-2.978Zm.887.153a4.13,4.13,0,0,0,.608,2.392,1.966,1.966,0,0,0,1.713.875,2.361,2.361,0,0,0,2.3-1.428V85.382a2.342,2.342,0,0,0-2.285-1.546,1.989,1.989,0,0,0-1.721.868A4.417,4.417,0,0,0,461.33,87.264Z"/><path d="M468.646,87.066a4.653,4.653,0,0,1,.444-2.058,3.327,3.327,0,0,1,3.087-1.934,3.262,3.262,0,0,1,2.563,1.11,4.274,4.274,0,0,1,.982,2.94v.184a4.7,4.7,0,0,1-.444,2.069,3.309,3.309,0,0,1-1.248,1.417,3.427,3.427,0,0,1-1.839.5,3.263,3.263,0,0,1-2.559-1.109,4.267,4.267,0,0,1-.986-2.942Zm.879.242a3.6,3.6,0,0,0,.737,2.333,2.491,2.491,0,0,0,3.852,0,3.721,3.721,0,0,0,.737-2.406v-.169a4.041,4.041,0,0,0-.338-1.662,2.7,2.7,0,0,0-.945-1.168,2.4,2.4,0,0,0-1.391-.414,2.342,2.342,0,0,0-1.912.919,3.716,3.716,0,0,0-.74,2.406Z"/><path d="M482.276,89.132a1.251,1.251,0,0,0-.523-1.048,4.07,4.07,0,0,0-1.578-.619,7.045,7.045,0,0,1-1.638-.513,2.16,2.16,0,0,1-.864-.707,1.757,1.757,0,0,1-.281-1.009,1.886,1.886,0,0,1,.783-1.55,3.168,3.168,0,0,1,2.007-.612,3.263,3.263,0,0,1,2.128.656,2.107,2.107,0,0,1,.8,1.711h-.879a1.424,1.424,0,0,0-.582-1.159,2.633,2.633,0,0,0-2.856-.076,1.184,1.184,0,0,0-.523,1,1.08,1.08,0,0,0,.435.919,4.615,4.615,0,0,0,1.589.6,7.467,7.467,0,0,1,1.728.578,2.24,2.24,0,0,1,.854.74,2.036,2.036,0,0,1-.531,2.652,3.459,3.459,0,0,1-2.113.6,3.549,3.549,0,0,1-2.245-.67,2.06,2.06,0,0,1-.86-1.695h.879a1.523,1.523,0,0,0,.647,1.2,2.657,2.657,0,0,0,1.579.428,2.493,2.493,0,0,0,1.479-.4A1.21,1.21,0,0,0,482.276,89.132Zm-1.963-7.713L481.573,80h.783v.088L480.628,82H480l-1.728-1.918V80h.783Z"/><path d="M486.107,91.146h-.878V79.9h.878Z"/><path d="M488,87.066a4.653,4.653,0,0,1,.443-2.058,3.327,3.327,0,0,1,3.087-1.934,3.264,3.264,0,0,1,2.564,1.11,4.279,4.279,0,0,1,.981,2.94v.184a4.7,4.7,0,0,1-.443,2.069,3.309,3.309,0,0,1-1.248,1.417,3.43,3.43,0,0,1-1.839.5,3.265,3.265,0,0,1-2.56-1.109A4.266,4.266,0,0,1,488,87.241Zm.879.242a3.6,3.6,0,0,0,.736,2.333,2.492,2.492,0,0,0,3.853,0,3.721,3.721,0,0,0,.736-2.406v-.169a4.024,4.024,0,0,0-.338-1.662,2.7,2.7,0,0,0-.944-1.168,2.4,2.4,0,0,0-1.392-.414,2.342,2.342,0,0,0-1.912.919,3.722,3.722,0,0,0-.739,2.406Z"/><path d="M282.155,103.154l-1,.966v3.026h-.879V95.9h.879v7.2l.828-.893,3.032-2.981h1.106l-3.362,3.34,3.655,4.585h-1.048Z"/><path d="M290.54,107.292a3.44,3.44,0,0,1-1.827-.5,3.4,3.4,0,0,1-1.271-1.387,4.341,4.341,0,0,1-.454-2V103.1a4.656,4.656,0,0,1,.444-2.058,3.53,3.53,0,0,1,1.233-1.439,3.049,3.049,0,0,1,1.715-.524,2.861,2.861,0,0,1,2.288.986,3.994,3.994,0,0,1,.847,2.691v.49H287.86v.169a3.318,3.318,0,0,0,.773,2.246,2.458,2.458,0,0,0,1.944.9,2.849,2.849,0,0,0,1.241-.256,2.745,2.745,0,0,0,.978-.82l.55.418A3.2,3.2,0,0,1,290.54,107.292Zm-.16-7.47a2.2,2.2,0,0,0-1.667.724,3.351,3.351,0,0,0-.823,1.949h4.753V102.4a2.915,2.915,0,0,0-.652-1.861A2.022,2.022,0,0,0,290.38,99.822Z"/><path d="M303.614,105.132a1.253,1.253,0,0,0-.523-1.048,4.07,4.07,0,0,0-1.578-.619,7.045,7.045,0,0,1-1.638-.513,2.16,2.16,0,0,1-.864-.707,1.758,1.758,0,0,1-.282-1.009,1.887,1.887,0,0,1,.784-1.55,3.168,3.168,0,0,1,2.007-.612,3.258,3.258,0,0,1,2.127.656,2.1,2.1,0,0,1,.8,1.711h-.879a1.424,1.424,0,0,0-.582-1.159,2.633,2.633,0,0,0-2.856-.076,1.185,1.185,0,0,0-.524,1,1.081,1.081,0,0,0,.436.919,4.615,4.615,0,0,0,1.589.6,7.467,7.467,0,0,1,1.728.578,2.24,2.24,0,0,1,.854.74,2.036,2.036,0,0,1-.531,2.652,3.461,3.461,0,0,1-2.113.6,3.545,3.545,0,0,1-2.245-.67,2.06,2.06,0,0,1-.86-1.695h.879a1.523,1.523,0,0,0,.647,1.2,2.657,2.657,0,0,0,1.579.428,2.493,2.493,0,0,0,1.479-.4A1.21,1.21,0,0,0,303.614,105.132Z"/><path d="M308.347,103.154l-1,.966v3.026h-.879V95.9h.879v7.2l.828-.893,3.031-2.981h1.107l-3.363,3.34,3.656,4.585h-1.048Z"/><path d="M313.326,103.066a4.653,4.653,0,0,1,.444-2.058,3.324,3.324,0,0,1,3.086-1.934,3.263,3.263,0,0,1,2.564,1.11,4.279,4.279,0,0,1,.981,2.94v.184a4.7,4.7,0,0,1-.443,2.069,3.309,3.309,0,0,1-1.248,1.417,3.427,3.427,0,0,1-1.839.5,3.262,3.262,0,0,1-2.559-1.109,4.262,4.262,0,0,1-.986-2.942Zm.879.242a3.6,3.6,0,0,0,.736,2.333,2.492,2.492,0,0,0,3.853,0,3.721,3.721,0,0,0,.736-2.406v-.169a4.024,4.024,0,0,0-.338-1.662,2.7,2.7,0,0,0-.944-1.168,2.4,2.4,0,0,0-1.392-.414,2.343,2.343,0,0,0-1.912.919,3.722,3.722,0,0,0-.739,2.406Z"/><path d="M324.093,103.154l-1,.966v3.026h-.879V95.9h.879v7.2l.828-.893,3.031-2.981h1.107l-3.363,3.34,3.656,4.585H327.3Z"/><path d="M329.072,103.066a4.653,4.653,0,0,1,.444-2.058,3.327,3.327,0,0,1,3.087-1.934,3.262,3.262,0,0,1,2.563,1.11,4.279,4.279,0,0,1,.981,2.94v.184a4.7,4.7,0,0,1-.443,2.069,3.309,3.309,0,0,1-1.248,1.417,3.427,3.427,0,0,1-1.839.5,3.262,3.262,0,0,1-2.559-1.109,4.262,4.262,0,0,1-.986-2.942Zm.879.242a3.592,3.592,0,0,0,.737,2.333,2.491,2.491,0,0,0,3.852,0,3.721,3.721,0,0,0,.736-2.406v-.169a4.024,4.024,0,0,0-.338-1.662,2.7,2.7,0,0,0-.944-1.168,2.4,2.4,0,0,0-1.391-.414,2.344,2.344,0,0,0-1.913.919,3.722,3.722,0,0,0-.739,2.406Z"/><path d="M340.315,105.937l2.41-6.716h.9l-2.959,7.925h-.711l-2.974-7.925h.9Z"/><path d="M348.034,107.292a3.44,3.44,0,0,1-1.827-.5,3.4,3.4,0,0,1-1.27-1.387,4.329,4.329,0,0,1-.455-2V103.1a4.656,4.656,0,0,1,.444-2.058,3.53,3.53,0,0,1,1.233-1.439,3.051,3.051,0,0,1,1.715-.524,2.86,2.86,0,0,1,2.288.986,3.989,3.989,0,0,1,.847,2.691v.49h-5.655v.169a3.318,3.318,0,0,0,.773,2.246,2.46,2.46,0,0,0,1.944.9,2.849,2.849,0,0,0,1.241-.256,2.745,2.745,0,0,0,.978-.82l.55.418A3.2,3.2,0,0,1,348.034,107.292Zm-.16-7.47a2.2,2.2,0,0,0-1.667.724,3.351,3.351,0,0,0-.823,1.949h4.753V102.4a2.909,2.909,0,0,0-.652-1.861A2.022,2.022,0,0,0,347.874,99.822Zm.974-3.926h1.061l-1.691,2.051-.77,0Z"/><path d="M353.514,99.221l.029,1.289a2.939,2.939,0,0,1,1.1-1.077,3.023,3.023,0,0,1,1.464-.359,2.224,2.224,0,0,1,2.381,1.539,2.971,2.971,0,0,1,1.135-1.139,3.138,3.138,0,0,1,1.568-.4q2.55,0,2.6,2.784v5.288h-.879v-5.223a2.359,2.359,0,0,0-.458-1.574,1.862,1.862,0,0,0-1.468-.513,2.335,2.335,0,0,0-1.6.612,2.159,2.159,0,0,0-.725,1.454v5.244h-.879v-5.288a2.175,2.175,0,0,0-.479-1.52,1.91,1.91,0,0,0-1.454-.5,2.2,2.2,0,0,0-1.421.473,2.759,2.759,0,0,0-.879,1.4v5.435h-.879V99.221Z"/><path d="M371.106,106.142a2.847,2.847,0,0,1-2.527,1.15,2.451,2.451,0,0,1-1.926-.736,3.226,3.226,0,0,1-.674-2.179V99.221h.872v5.046q0,2.265,1.832,2.264a2.245,2.245,0,0,0,2.409-1.575V99.221h.879v7.925h-.85Z"/><path d="M382.643,105.132a1.252,1.252,0,0,0-.524-1.048,4.064,4.064,0,0,0-1.578-.619,7.045,7.045,0,0,1-1.638-.513,2.174,2.174,0,0,1-.864-.707,1.765,1.765,0,0,1-.281-1.009,1.888,1.888,0,0,1,.783-1.55,3.168,3.168,0,0,1,2.007-.612,3.259,3.259,0,0,1,2.128.656,2.107,2.107,0,0,1,.8,1.711H382.6a1.427,1.427,0,0,0-.582-1.159,2.634,2.634,0,0,0-2.857-.076,1.186,1.186,0,0,0-.523,1,1.08,1.08,0,0,0,.435.919,4.624,4.624,0,0,0,1.589.6,7.478,7.478,0,0,1,1.729.578,2.236,2.236,0,0,1,.853.74,2.036,2.036,0,0,1-.531,2.652,3.458,3.458,0,0,1-2.112.6,3.55,3.55,0,0,1-2.246-.67,2.06,2.06,0,0,1-.86-1.695h.879a1.521,1.521,0,0,0,.648,1.2,2.653,2.653,0,0,0,1.579.428,2.492,2.492,0,0,0,1.478-.4A1.211,1.211,0,0,0,382.643,105.132Z"/><path d="M386.326,99.221l.029,1.354a3.149,3.149,0,0,1,1.114-1.116,2.882,2.882,0,0,1,1.471-.385,2.381,2.381,0,0,1,1.9.718,3.241,3.241,0,0,1,.63,2.154v5.2H390.6v-5.207a2.428,2.428,0,0,0-.451-1.582,1.763,1.763,0,0,0-1.417-.521,2.222,2.222,0,0,0-1.44.509,2.994,2.994,0,0,0-.927,1.373v5.428h-.871V99.221Z"/><path d="M395.152,95.984h1.062l-1.692,2.05-.769,0Zm-.454,11.162h-.879V99.221h.879Z"/><path d="M397.649,106.406h5.15v.74h-6.234V106.5l4.805-6.518h-4.658v-.762h5.765v.658Zm2.022-9,1.26-1.42h.784v.088l-1.729,1.912h-.63l-1.728-1.919v-.081h.783Z"/><path d="M407.317,107.292a3.443,3.443,0,0,1-1.827-.5,3.4,3.4,0,0,1-1.27-1.387,4.329,4.329,0,0,1-.454-2V103.1a4.656,4.656,0,0,1,.443-2.058,3.53,3.53,0,0,1,1.233-1.439,3.051,3.051,0,0,1,1.715-.524,2.86,2.86,0,0,1,2.288.986,3.989,3.989,0,0,1,.847,2.691v.49h-5.654v.169a3.322,3.322,0,0,0,.772,2.246,2.46,2.46,0,0,0,1.944.9,2.856,2.856,0,0,0,1.242-.256,2.75,2.75,0,0,0,.977-.82l.55.418A3.2,3.2,0,0,1,407.317,107.292Zm-.16-7.47a2.2,2.2,0,0,0-1.667.724,3.357,3.357,0,0,0-.823,1.949h4.753V102.4a2.909,2.909,0,0,0-.651-1.861A2.025,2.025,0,0,0,407.157,99.822Z"/><path d="M412.833,99.221l.029,1.354a3.149,3.149,0,0,1,1.114-1.116,2.882,2.882,0,0,1,1.471-.385,2.381,2.381,0,0,1,1.9.718,3.241,3.241,0,0,1,.63,2.154v5.2H417.1v-5.207a2.423,2.423,0,0,0-.452-1.582,1.762,1.762,0,0,0-1.417-.521,2.219,2.219,0,0,0-1.439.509,2.994,2.994,0,0,0-.927,1.373v5.428H412V99.221Z"/><path d="M421.658,95.984h1.062l-1.692,2.05-.769,0Zm-.454,11.162h-.879V99.221h.879Z"/><path d="M428.023,99.221l.03,1.289a2.943,2.943,0,0,1,1.1-1.077,3.029,3.029,0,0,1,1.465-.359A2.224,2.224,0,0,1,433,100.613a2.964,2.964,0,0,1,1.135-1.139,3.135,3.135,0,0,1,1.568-.4q2.549,0,2.6,2.784v5.288h-.879v-5.223a2.359,2.359,0,0,0-.458-1.574,1.862,1.862,0,0,0-1.468-.513,2.337,2.337,0,0,0-1.6.612,2.162,2.162,0,0,0-.724,1.454v5.244h-.879v-5.288a2.171,2.171,0,0,0-.48-1.52,1.907,1.907,0,0,0-1.454-.5,2.208,2.208,0,0,0-1.421.473,2.764,2.764,0,0,0-.878,1.4v5.435h-.879V99.221Z"/><path d="M441.354,99.221l.029,1.354a3.155,3.155,0,0,1,1.113-1.116,2.886,2.886,0,0,1,1.472-.385,2.38,2.38,0,0,1,1.9.718,3.241,3.241,0,0,1,.63,2.154v5.2h-.871v-5.207a2.423,2.423,0,0,0-.451-1.582,1.763,1.763,0,0,0-1.417-.521,2.222,2.222,0,0,0-1.44.509,2.992,2.992,0,0,0-.926,1.373v5.428h-.871V99.221Z"/><path d="M448.275,103.066a4.653,4.653,0,0,1,.444-2.058,3.327,3.327,0,0,1,3.087-1.934,3.262,3.262,0,0,1,2.563,1.11,4.279,4.279,0,0,1,.982,2.94v.184a4.7,4.7,0,0,1-.444,2.069,3.309,3.309,0,0,1-1.248,1.417,3.427,3.427,0,0,1-1.839.5,3.263,3.263,0,0,1-2.559-1.109,4.267,4.267,0,0,1-.986-2.942Zm.879.242a3.592,3.592,0,0,0,.737,2.333,2.491,2.491,0,0,0,3.852,0,3.721,3.721,0,0,0,.736-2.406v-.169a4.04,4.04,0,0,0-.337-1.662,2.7,2.7,0,0,0-.945-1.168,2.4,2.4,0,0,0-1.391-.414,2.341,2.341,0,0,0-1.912.919,3.716,3.716,0,0,0-.74,2.406Z"/><path d="M457.62,106.406h5.15v.74h-6.234V106.5l4.805-6.518h-4.658v-.762h5.764v.658Zm2.022-9,1.259-1.42h.785v.088l-1.729,1.912h-.63L457.6,96.072v-.081h.783Z"/><path d="M469.083,105.132a1.253,1.253,0,0,0-.523-1.048,4.069,4.069,0,0,0-1.579-.619,7.019,7.019,0,0,1-1.637-.513,2.171,2.171,0,0,1-.865-.707,1.765,1.765,0,0,1-.281-1.009,1.888,1.888,0,0,1,.783-1.55,3.172,3.172,0,0,1,2.007-.612,3.259,3.259,0,0,1,2.128.656,2.107,2.107,0,0,1,.8,1.711h-.879a1.424,1.424,0,0,0-.582-1.159,2.633,2.633,0,0,0-2.856-.076,1.185,1.185,0,0,0-.524,1,1.081,1.081,0,0,0,.436.919,4.615,4.615,0,0,0,1.589.6,7.484,7.484,0,0,1,1.728.578,2.24,2.24,0,0,1,.854.74,2.035,2.035,0,0,1-.532,2.652,3.458,3.458,0,0,1-2.112.6,3.545,3.545,0,0,1-2.245-.67,2.06,2.06,0,0,1-.86-1.695h.878a1.524,1.524,0,0,0,.648,1.2,2.655,2.655,0,0,0,1.579.428,2.5,2.5,0,0,0,1.479-.4A1.21,1.21,0,0,0,469.083,105.132Z"/><path d="M473.3,97.193v2.028h1.641v.718H473.3v5.286a1.656,1.656,0,0,0,.238.983.921.921,0,0,0,.794.323,5.453,5.453,0,0,0,.711-.074l.037.712a2.878,2.878,0,0,1-.937.123,1.567,1.567,0,0,1-1.312-.523,2.47,2.47,0,0,1-.41-1.542V99.939h-1.458v-.718h1.458V97.193Z"/><path d="M479.221,105.937l2.409-6.716h.9l-2.959,7.925h-.711l-2.973-7.925h.9Z"/><path d="M485.387,95.984h1.061l-1.691,2.05-.77,0Zm-.454,11.162h-.879V99.221h.879Z"/><path d="M285.274,123.146a4.2,4.2,0,0,1-.168-1.106,3.041,3.041,0,0,1-1.175.926,3.591,3.591,0,0,1-1.512.326,2.665,2.665,0,0,1-1.85-.636,2.079,2.079,0,0,1-.707-1.612,2.126,2.126,0,0,1,.963-1.832,4.64,4.64,0,0,1,2.685-.674H285.1v-.9a1.735,1.735,0,0,0-.524-1.337,2.166,2.166,0,0,0-1.527-.487,2.4,2.4,0,0,0-1.516.468,1.4,1.4,0,0,0-.6,1.129l-.879-.007a2.037,2.037,0,0,1,.879-1.637,3.38,3.38,0,0,1,2.161-.693,3.084,3.084,0,0,1,2.091.664,2.381,2.381,0,0,1,.787,1.849v3.75a4.676,4.676,0,0,0,.241,1.721v.088Zm-2.753-.63a2.945,2.945,0,0,0,1.571-.425,2.493,2.493,0,0,0,1.007-1.135v-1.744h-1.567a3.927,3.927,0,0,0-2.051.481,1.437,1.437,0,0,0-.74,1.277,1.418,1.418,0,0,0,.494,1.106A1.864,1.864,0,0,0,282.521,122.516Z"/><path d="M289.289,123.146h-.879V111.9h.879Z"/><path d="M291.186,119.066a4.653,4.653,0,0,1,.443-2.058,3.327,3.327,0,0,1,3.087-1.934,3.261,3.261,0,0,1,2.563,1.11,4.274,4.274,0,0,1,.982,2.94v.184a4.7,4.7,0,0,1-.444,2.069,3.309,3.309,0,0,1-1.248,1.417,3.427,3.427,0,0,1-1.839.5,3.263,3.263,0,0,1-2.559-1.109,4.266,4.266,0,0,1-.985-2.942Zm.878.242a3.6,3.6,0,0,0,.737,2.333,2.491,2.491,0,0,0,3.852,0,3.715,3.715,0,0,0,.737-2.406v-.169a4.041,4.041,0,0,0-.338-1.662,2.7,2.7,0,0,0-.945-1.168,2.4,2.4,0,0,0-1.391-.414,2.342,2.342,0,0,0-1.912.919,3.722,3.722,0,0,0-.74,2.406Z"/><path d="M301.952,119.154l-1,.966v3.026h-.879V111.9h.879v7.2l.828-.893,3.032-2.981h1.106l-3.362,3.34,3.655,4.585h-1.048Z"/><path d="M306.932,119.066a4.653,4.653,0,0,1,.443-2.058,3.327,3.327,0,0,1,3.087-1.934,3.261,3.261,0,0,1,2.563,1.11,4.274,4.274,0,0,1,.982,2.94v.184a4.7,4.7,0,0,1-.444,2.069,3.3,3.3,0,0,1-1.248,1.417,3.426,3.426,0,0,1-1.838.5,3.264,3.264,0,0,1-2.56-1.109,4.266,4.266,0,0,1-.985-2.942Zm.879.242a3.6,3.6,0,0,0,.736,2.333,2.491,2.491,0,0,0,3.852,0,3.715,3.715,0,0,0,.737-2.406v-.169a4.041,4.041,0,0,0-.338-1.662,2.7,2.7,0,0,0-.944-1.168,2.41,2.41,0,0,0-1.392-.414,2.342,2.342,0,0,0-1.912.919,3.722,3.722,0,0,0-.739,2.406Z"/><path d="M318.175,121.937l2.409-6.716h.9l-2.959,7.925h-.711l-2.973-7.925h.9Z"/><path d="M327.812,123.146a4.17,4.17,0,0,1-.167-1.106,3.052,3.052,0,0,1-1.176.926,3.591,3.591,0,0,1-1.512.326,2.665,2.665,0,0,1-1.85-.636,2.079,2.079,0,0,1-.707-1.612,2.126,2.126,0,0,1,.963-1.832,4.64,4.64,0,0,1,2.685-.674h1.589v-.9a1.735,1.735,0,0,0-.524-1.337,2.166,2.166,0,0,0-1.527-.487,2.4,2.4,0,0,0-1.516.468,1.4,1.4,0,0,0-.6,1.129l-.879-.007a2.037,2.037,0,0,1,.879-1.637,3.38,3.38,0,0,1,2.161-.693,3.084,3.084,0,0,1,2.091.664,2.381,2.381,0,0,1,.787,1.849v3.75a4.676,4.676,0,0,0,.241,1.721v.088Zm-2.753-.63a2.943,2.943,0,0,0,1.571-.425,2.493,2.493,0,0,0,1.007-1.135v-1.744H326.07a3.921,3.921,0,0,0-2.05.481,1.436,1.436,0,0,0-.741,1.277,1.418,1.418,0,0,0,.494,1.106A1.866,1.866,0,0,0,325.059,122.516Z"/><path d="M331.681,115.221l.029,1.354a3.155,3.155,0,0,1,1.113-1.116,2.889,2.889,0,0,1,1.472-.385,2.378,2.378,0,0,1,1.9.718,3.241,3.241,0,0,1,.63,2.154v5.2h-.871v-5.207a2.423,2.423,0,0,0-.451-1.582,1.763,1.763,0,0,0-1.417-.521,2.219,2.219,0,0,0-1.439.509,2.994,2.994,0,0,0-.927,1.373v5.428h-.871v-7.925Z"/><path d="M341.6,121.886l2.314-6.665h.945l-3.383,9.272-.176.411a2.13,2.13,0,0,1-2.015,1.443,2.444,2.444,0,0,1-.674-.1l-.006-.724.454.044a1.629,1.629,0,0,0,1.044-.319,2.425,2.425,0,0,0,.676-1.094l.389-1.071-2.988-7.858h.959Zm.982-9.99h1.062l-1.693,2.051-.768,0Z"/><path d="M349.048,122.552a2.314,2.314,0,0,0,1.534-.516,1.82,1.82,0,0,0,.671-1.337h.842a2.494,2.494,0,0,1-.454,1.323,2.855,2.855,0,0,1-1.11.933,3.341,3.341,0,0,1-1.483.337,3.061,3.061,0,0,1-2.472-1.084,4.38,4.38,0,0,1-.912-2.915v-.263a4.969,4.969,0,0,1,.41-2.074,3.164,3.164,0,0,1,1.176-1.39,3.243,3.243,0,0,1,1.79-.492,3.056,3.056,0,0,1,2.15.777,2.83,2.83,0,0,1,.905,2.043h-.842a2.122,2.122,0,0,0-2.213-2.072,2.185,2.185,0,0,0-1.842.857,3.881,3.881,0,0,0-.655,2.4v.256a3.792,3.792,0,0,0,.655,2.365A2.2,2.2,0,0,0,349.048,122.552Z"/><path d="M354.716,116.562a3.106,3.106,0,0,1,1.106-1.1,2.9,2.9,0,0,1,1.472-.388,2.378,2.378,0,0,1,1.9.718,3.241,3.241,0,0,1,.63,2.154v5.2h-.871v-5.207a2.423,2.423,0,0,0-.451-1.582,1.763,1.763,0,0,0-1.417-.521,2.219,2.219,0,0,0-1.439.509,2.994,2.994,0,0,0-.927,1.373v5.428h-.871V111.9h.871Z"/><path d="M372.1,119.264a4.768,4.768,0,0,1-.821,2.94,2.609,2.609,0,0,1-2.2,1.088,2.934,2.934,0,0,1-2.49-1.142v4.043h-.872V115.221h.813l.044,1.12a2.815,2.815,0,0,1,2.483-1.267,2.633,2.633,0,0,1,2.23,1.078,4.869,4.869,0,0,1,.81,2.988Zm-.879-.153a4.084,4.084,0,0,0-.622-2.4,2.01,2.01,0,0,0-1.737-.879,2.311,2.311,0,0,0-2.27,1.517v3.8a2.33,2.33,0,0,0,.9,1.04,2.6,2.6,0,0,0,1.384.358,1.989,1.989,0,0,0,1.725-.882A4.434,4.434,0,0,0,371.217,119.111Z"/><path d="M373.555,119.066a4.653,4.653,0,0,1,.443-2.058,3.327,3.327,0,0,1,3.087-1.934,3.261,3.261,0,0,1,2.563,1.11,4.274,4.274,0,0,1,.982,2.94v.184a4.712,4.712,0,0,1-.443,2.069,3.305,3.305,0,0,1-1.249,1.417,3.426,3.426,0,0,1-1.838.5,3.264,3.264,0,0,1-2.56-1.109,4.266,4.266,0,0,1-.985-2.942Zm.879.242a3.6,3.6,0,0,0,.736,2.333,2.491,2.491,0,0,0,3.852,0,3.715,3.715,0,0,0,.737-2.406v-.169a4.024,4.024,0,0,0-.338-1.662,2.7,2.7,0,0,0-.944-1.168,2.41,2.41,0,0,0-1.392-.414,2.342,2.342,0,0,0-1.912.919,3.722,3.722,0,0,0-.739,2.406Z"/><path d="M384.8,121.937l2.409-6.716h.9l-2.959,7.925h-.71l-2.974-7.925h.9Z"/><path d="M388.949,119.066a4.653,4.653,0,0,1,.444-2.058,3.327,3.327,0,0,1,3.086-1.934,3.263,3.263,0,0,1,2.564,1.11,4.279,4.279,0,0,1,.981,2.94v.184a4.7,4.7,0,0,1-.443,2.069,3.309,3.309,0,0,1-1.248,1.417,3.427,3.427,0,0,1-1.839.5,3.262,3.262,0,0,1-2.559-1.109,4.262,4.262,0,0,1-.986-2.942Zm.879.242a3.6,3.6,0,0,0,.736,2.333,2.492,2.492,0,0,0,3.853,0,3.721,3.721,0,0,0,.736-2.406v-.169a4.024,4.024,0,0,0-.338-1.662,2.7,2.7,0,0,0-.944-1.168,2.4,2.4,0,0,0-1.392-.414,2.343,2.343,0,0,0-1.912.919,3.722,3.722,0,0,0-.739,2.406Z"/><path d="M398.814,123.146h-.878V111.9h.878Z"/><path d="M404.263,123.292a3.4,3.4,0,0,1-3.1-1.885,4.329,4.329,0,0,1-.454-2V119.1a4.656,4.656,0,0,1,.443-2.058,3.525,3.525,0,0,1,1.234-1.439,3.047,3.047,0,0,1,1.715-.524,2.862,2.862,0,0,1,2.288.986,3.994,3.994,0,0,1,.846,2.691v.49h-5.654v.169a3.322,3.322,0,0,0,.772,2.246,2.462,2.462,0,0,0,1.945.9,2.849,2.849,0,0,0,1.241-.256,2.753,2.753,0,0,0,.978-.82l.549.418A3.2,3.2,0,0,1,404.263,123.292Zm-.16-7.47a2.194,2.194,0,0,0-1.667.724,3.351,3.351,0,0,0-.824,1.949h4.753V118.4a2.909,2.909,0,0,0-.651-1.861A2.022,2.022,0,0,0,404.1,115.822Z"/><path d="M409.779,115.221l.03,1.354a3.147,3.147,0,0,1,1.113-1.116,2.883,2.883,0,0,1,1.472-.385,2.38,2.38,0,0,1,1.9.718,3.241,3.241,0,0,1,.63,2.154v5.2h-.871v-5.207a2.423,2.423,0,0,0-.451-1.582,1.763,1.763,0,0,0-1.417-.521,2.222,2.222,0,0,0-1.44.509,3,3,0,0,0-.927,1.373v5.428h-.871v-7.925Z"/><path d="M420.251,123.292a3.44,3.44,0,0,1-1.827-.5,3.4,3.4,0,0,1-1.271-1.387,4.341,4.341,0,0,1-.454-2V119.1a4.656,4.656,0,0,1,.444-2.058,3.53,3.53,0,0,1,1.233-1.439,3.049,3.049,0,0,1,1.715-.524,2.861,2.861,0,0,1,2.288.986,3.994,3.994,0,0,1,.847,2.691v.49h-5.655v.169a3.318,3.318,0,0,0,.773,2.246,2.458,2.458,0,0,0,1.944.9,2.849,2.849,0,0,0,1.241-.256,2.745,2.745,0,0,0,.978-.82l.55.418A3.2,3.2,0,0,1,420.251,123.292Zm-.16-7.47a2.2,2.2,0,0,0-1.667.724,3.351,3.351,0,0,0-.823,1.949h4.753V118.4a2.915,2.915,0,0,0-.652-1.861A2.022,2.022,0,0,0,420.091,115.822Z"/><path d="M426.815,119.154l-1,.966v3.026h-.879V111.9h.879v7.2l.828-.893,3.031-2.981h1.106l-3.362,3.34,3.655,4.585h-1.048Z"/><path d="M432.2,122.618a.623.623,0,0,1,.164-.435.592.592,0,0,1,.458-.18.6.6,0,0,1,.462.18.613.613,0,0,1,.168.435.563.563,0,0,1-.168.421.628.628,0,0,1-.462.165.617.617,0,0,1-.458-.165A.571.571,0,0,1,432.2,122.618Z"/><polyline class="cls-9" points="515.68 222.061 489.751 222.061 489.751 217.987 463.14 217.987 463.14 213.912 436.529 213.912 436.529 209.838 409.918 209.838 409.918 205.764 383.308 205.764 383.308 201.689 356.697 201.689 356.697 197.615 330.086 197.615 330.086 193.541 303.475 193.541 303.475 189.466 276.865 189.466 276.865 185.392 250.254 185.392 250.254 162.192 223.643 162.192 223.643 158.567 197.032 158.567 197.032 154.942 170.421 154.942 170.421 151.316 143.81 151.316 143.81 147.691 117.2 147.691 117.2 144.066 90.589 144.066 90.589 140.44 63.978 140.44 63.978 136.815 37.367 136.815"/></svg>