<svg id="Layer_1" data-name="Layer 1" xmlns="http://www.w3.org/2000/svg" viewBox="0 0 520 450.66"><defs><style>.cls-1{fill:#87bbde;}.cls-1,.cls-11,.cls-5,.cls-7{stroke:#fff;}.cls-1,.cls-11,.cls-4,.cls-5,.cls-6,.cls-7{stroke-miterlimit:10;}.cls-1,.cls-11{stroke-width:1.107px;}.cls-2,.cls-3,.cls-4,.cls-6{fill:none;}.cls-2{stroke:#666;stroke-width:0.664px;}.cls-2,.cls-3{stroke-linecap:square;}.cls-3{stroke:#808285;stroke-linejoin:round;stroke-width:0.3px;stroke-dasharray:5.688;}.cls-4,.cls-6{stroke:#000;}.cls-4{stroke-width:2.214px;}.cls-5{fill:#e8e3e7;}.cls-6{stroke-width:2px;}.cls-7{fill:#97c1de;}.cls-8{fill:#999;}.cls-9{fill:#76b4de;}.cls-10{opacity:0.1;}</style></defs><path class="cls-1" d="M36.485,357.048H68.431V159.133H36.485Z"/><path class="cls-1" d="M68.431,357.048h31.947V157H68.431Z"/><path class="cls-1" d="M100.378,357.048h31.946V144.328H100.378Z"/><path class="cls-1" d="M132.324,357.048H164.27V148.756H132.324Z"/><path class="cls-1" d="M164.27,357.048h31.947v-184.7H164.27Z"/><path class="cls-1" d="M196.217,357.048h31.946V166.529H196.217Z"/><path class="cls-1" d="M228.163,357.048H260.11V169.911H228.163Z"/><path class="cls-1" d="M260.11,357.048h31.946V165.33H260.11Z"/><path class="cls-1" d="M292.056,357.048H324V164.288H292.056Z"/><path class="cls-1" d="M324,357.048h31.947V173.425H324Z"/><path class="cls-1" d="M355.949,357.048H387.9V174.253H355.949Z"/><path class="cls-1" d="M387.9,357.048h31.947V178.985H387.9Z"/><path class="cls-1" d="M419.842,357.048h31.946V178.287H419.842Z"/><path class="cls-1" d="M451.788,357.048h31.946V185.023H451.788Z"/><path class="cls-1" d="M483.734,357.048h31.947V199.977H483.734Z"/><path d="M43.757,378.9H37.078v-.674l3.654-4.146a9.545,9.545,0,0,0,1.26-1.728,2.874,2.874,0,0,0,.352-1.325,2.155,2.155,0,0,0-.594-1.6,2.213,2.213,0,0,0-1.633-.59,2.3,2.3,0,0,0-1.739.689,2.468,2.468,0,0,0-.663,1.787h-.872a3.35,3.35,0,0,1,.407-1.641,2.924,2.924,0,0,1,1.157-1.161,3.443,3.443,0,0,1,1.71-.421,3.22,3.22,0,0,1,2.289.77,2.724,2.724,0,0,1,.824,2.093,3.555,3.555,0,0,1-.465,1.634,12.151,12.151,0,0,1-1.637,2.212l-2.974,3.361h5.6Z"/><path d="M51.821,374.452a5.908,5.908,0,0,1-.827,3.424,2.8,2.8,0,0,1-2.439,1.168A2.827,2.827,0,0,1,46.13,377.9a5.689,5.689,0,0,1-.864-3.336V372.65a5.794,5.794,0,0,1,.835-3.406,3.161,3.161,0,0,1,4.856-.04,5.576,5.576,0,0,1,.864,3.292Zm-.879-1.912a5.2,5.2,0,0,0-.6-2.768,2.2,2.2,0,0,0-3.592-.023,5.04,5.04,0,0,0-.615,2.7v2.1a5.2,5.2,0,0,0,.618,2.79,2.007,2.007,0,0,0,1.8.967,1.975,1.975,0,0,0,1.776-.944,5.209,5.209,0,0,0,.611-2.769Z"/><path d="M60.134,374.452a5.908,5.908,0,0,1-.827,3.424,2.8,2.8,0,0,1-2.439,1.168,2.827,2.827,0,0,1-2.425-1.146,5.689,5.689,0,0,1-.864-3.336V372.65a5.794,5.794,0,0,1,.835-3.406,3.161,3.161,0,0,1,4.856-.04,5.576,5.576,0,0,1,.864,3.292Zm-.879-1.912a5.2,5.2,0,0,0-.6-2.768,2.2,2.2,0,0,0-3.592-.023,5.04,5.04,0,0,0-.615,2.7v2.1a5.2,5.2,0,0,0,.618,2.79,2.007,2.007,0,0,0,1.8.967,1.975,1.975,0,0,0,1.776-.944,5.219,5.219,0,0,0,.611-2.769Z"/><path d="M62.61,373.434l.52-5.2h5.332v.812H63.884l-.373,3.6a3.472,3.472,0,0,1,2.007-.586,2.966,2.966,0,0,1,2.3.937,3.558,3.558,0,0,1,.857,2.5,3.782,3.782,0,0,1-.835,2.616,2.994,2.994,0,0,1-2.351.929,3.253,3.253,0,0,1-2.256-.776,3.174,3.174,0,0,1-.988-2.175h.842a2.531,2.531,0,0,0,.74,1.651,2.376,2.376,0,0,0,1.662.56,2.078,2.078,0,0,0,1.725-.725,3.226,3.226,0,0,0,.582-2.065,2.786,2.786,0,0,0-.651-1.911,2.252,2.252,0,0,0-1.78-.74,3.359,3.359,0,0,0-1.084.157,2.945,2.945,0,0,0-.974.612Z"/><path d="M107.581,378.9H100.9v-.674l3.655-4.146a9.545,9.545,0,0,0,1.26-1.728,2.885,2.885,0,0,0,.351-1.325,2.154,2.154,0,0,0-.593-1.6,2.215,2.215,0,0,0-1.633-.59,2.3,2.3,0,0,0-1.739.689,2.464,2.464,0,0,0-.663,1.787h-.872a3.339,3.339,0,0,1,.407-1.641,2.917,2.917,0,0,1,1.157-1.161,3.44,3.44,0,0,1,1.71-.421,3.221,3.221,0,0,1,2.289.77,2.724,2.724,0,0,1,.824,2.093,3.558,3.558,0,0,1-.466,1.634,12.137,12.137,0,0,1-1.636,2.212l-2.974,3.361h5.6Z"/><path d="M115.645,374.452a5.9,5.9,0,0,1-.828,3.424,2.8,2.8,0,0,1-2.439,1.168,2.826,2.826,0,0,1-2.424-1.146,5.681,5.681,0,0,1-.864-3.336V372.65a5.794,5.794,0,0,1,.835-3.406,3.161,3.161,0,0,1,4.856-.04,5.591,5.591,0,0,1,.864,3.292Zm-.879-1.912a5.2,5.2,0,0,0-.6-2.768,2.2,2.2,0,0,0-3.592-.023,5.039,5.039,0,0,0-.616,2.7v2.1a5.189,5.189,0,0,0,.619,2.79,2.005,2.005,0,0,0,1.8.967,1.973,1.973,0,0,0,1.776-.944,5.209,5.209,0,0,0,.612-2.769Z"/><path d="M123.958,374.452a5.9,5.9,0,0,1-.828,3.424,2.8,2.8,0,0,1-2.439,1.168,2.826,2.826,0,0,1-2.424-1.146,5.681,5.681,0,0,1-.864-3.336V372.65a5.794,5.794,0,0,1,.835-3.406,3.161,3.161,0,0,1,4.856-.04,5.591,5.591,0,0,1,.864,3.292Zm-.879-1.912a5.2,5.2,0,0,0-.6-2.768,2.2,2.2,0,0,0-3.592-.023,5.039,5.039,0,0,0-.616,2.7v2.1a5.189,5.189,0,0,0,.619,2.79,2.005,2.005,0,0,0,1.8.967,1.973,1.973,0,0,0,1.776-.944,5.209,5.209,0,0,0,.612-2.769Z"/><path d="M132.41,368.74,127.854,378.9h-.915l4.526-9.917H125.4v-.747h7.009Z"/><path d="M171.4,378.9h-6.679v-.674l3.654-4.146a9.545,9.545,0,0,0,1.26-1.728,2.874,2.874,0,0,0,.352-1.325,2.155,2.155,0,0,0-.594-1.6,2.213,2.213,0,0,0-1.633-.59,2.3,2.3,0,0,0-1.739.689,2.468,2.468,0,0,0-.663,1.787h-.872a3.339,3.339,0,0,1,.407-1.641,2.917,2.917,0,0,1,1.157-1.161,3.443,3.443,0,0,1,1.71-.421,3.22,3.22,0,0,1,2.289.77,2.724,2.724,0,0,1,.824,2.093,3.555,3.555,0,0,1-.465,1.634,12.151,12.151,0,0,1-1.637,2.212l-2.974,3.361h5.6Z"/><path d="M179.468,374.452a5.908,5.908,0,0,1-.827,3.424,2.8,2.8,0,0,1-2.439,1.168,2.827,2.827,0,0,1-2.425-1.146,5.689,5.689,0,0,1-.864-3.336V372.65a5.794,5.794,0,0,1,.835-3.406,3.161,3.161,0,0,1,4.856-.04,5.576,5.576,0,0,1,.864,3.292Zm-.879-1.912a5.2,5.2,0,0,0-.6-2.768,2.2,2.2,0,0,0-3.592-.023,5.04,5.04,0,0,0-.615,2.7v2.1a5.2,5.2,0,0,0,.618,2.79,2.007,2.007,0,0,0,1.8.967,1.975,1.975,0,0,0,1.776-.944,5.219,5.219,0,0,0,.611-2.769Z"/><path d="M187.781,374.452a5.908,5.908,0,0,1-.827,3.424,2.8,2.8,0,0,1-2.439,1.168,2.827,2.827,0,0,1-2.425-1.146,5.689,5.689,0,0,1-.864-3.336V372.65a5.794,5.794,0,0,1,.835-3.406,3.161,3.161,0,0,1,4.856-.04,5.576,5.576,0,0,1,.864,3.292Zm-.879-1.912a5.2,5.2,0,0,0-.6-2.768,2.2,2.2,0,0,0-3.592-.023,5.031,5.031,0,0,0-.615,2.7v2.1a5.2,5.2,0,0,0,.618,2.79,2.007,2.007,0,0,0,1.8.967,1.975,1.975,0,0,0,1.776-.944,5.219,5.219,0,0,0,.611-2.769Z"/><path d="M195.135,373.961a3.3,3.3,0,0,1-1.165,1.066,3.111,3.111,0,0,1-1.509.377,2.8,2.8,0,0,1-1.6-.469,3.068,3.068,0,0,1-1.076-1.3,4.273,4.273,0,0,1-.381-1.81,4.437,4.437,0,0,1,.407-1.918,3.189,3.189,0,0,1,1.134-1.344,3.278,3.278,0,0,1,4.179.644,5.019,5.019,0,0,1,.894,3.191v.791a6.56,6.56,0,0,1-1.231,4.336,4.657,4.657,0,0,1-3.757,1.449h-.161l.007-.762h.308a3.891,3.891,0,0,0,2.907-1.084A4.638,4.638,0,0,0,195.135,373.961Zm-2.564.681a2.571,2.571,0,0,0,1.578-.522,2.817,2.817,0,0,0,.993-1.355v-.5a4.1,4.1,0,0,0-.677-2.518,2.177,2.177,0,0,0-1.828-.894,2.086,2.086,0,0,0-1.706.837,3.27,3.27,0,0,0-.667,2.107,3.188,3.188,0,0,0,.641,2.034A2.02,2.02,0,0,0,192.571,374.642Z"/><path d="M235.228,378.9h-6.68v-.674l3.655-4.146a9.58,9.58,0,0,0,1.259-1.728,2.874,2.874,0,0,0,.352-1.325,2.158,2.158,0,0,0-.593-1.6,2.217,2.217,0,0,0-1.634-.59,2.305,2.305,0,0,0-1.739.689,2.468,2.468,0,0,0-.663,1.787h-.872a3.35,3.35,0,0,1,.407-1.641,2.924,2.924,0,0,1,1.157-1.161,3.443,3.443,0,0,1,1.71-.421,3.218,3.218,0,0,1,2.289.77,2.724,2.724,0,0,1,.824,2.093,3.555,3.555,0,0,1-.465,1.634A12.151,12.151,0,0,1,232.6,374.8l-2.973,3.361h5.6Z"/><path d="M243.292,374.452a5.9,5.9,0,0,1-.828,3.424,3.134,3.134,0,0,1-4.863.022,5.681,5.681,0,0,1-.865-3.336V372.65a5.8,5.8,0,0,1,.835-3.406,3.161,3.161,0,0,1,4.856-.04,5.583,5.583,0,0,1,.865,3.292Zm-.879-1.912a5.2,5.2,0,0,0-.6-2.768,2.2,2.2,0,0,0-3.592-.023,5.049,5.049,0,0,0-.615,2.7v2.1a5.189,5.189,0,0,0,.619,2.79,2,2,0,0,0,1.8.967,1.975,1.975,0,0,0,1.776-.944,5.218,5.218,0,0,0,.612-2.769Z"/><path d="M249.253,378.9h-.878v-9.61l-2.9,1.077v-.821l3.633-1.347h.146Z"/><path d="M257.566,378.9h-.878v-9.61l-2.9,1.077v-.821l3.633-1.347h.146Z"/><path d="M299.052,378.9h-6.679v-.674l3.654-4.146a9.545,9.545,0,0,0,1.26-1.728,2.887,2.887,0,0,0,.352-1.325,2.155,2.155,0,0,0-.594-1.6,2.215,2.215,0,0,0-1.633-.59,2.3,2.3,0,0,0-1.739.689,2.464,2.464,0,0,0-.663,1.787h-.872a3.339,3.339,0,0,1,.407-1.641,2.917,2.917,0,0,1,1.157-1.161,3.44,3.44,0,0,1,1.71-.421,3.22,3.22,0,0,1,2.289.77,2.724,2.724,0,0,1,.824,2.093,3.555,3.555,0,0,1-.465,1.634,12.151,12.151,0,0,1-1.637,2.212l-2.974,3.361h5.6Z"/><path d="M307.116,374.452a5.908,5.908,0,0,1-.827,3.424,2.8,2.8,0,0,1-2.439,1.168,2.827,2.827,0,0,1-2.425-1.146,5.689,5.689,0,0,1-.864-3.336V372.65a5.794,5.794,0,0,1,.835-3.406,3.161,3.161,0,0,1,4.856-.04,5.576,5.576,0,0,1,.864,3.292Zm-.879-1.912a5.2,5.2,0,0,0-.6-2.768,2.2,2.2,0,0,0-3.592-.023,5.031,5.031,0,0,0-.615,2.7v2.1a5.2,5.2,0,0,0,.618,2.79,2.006,2.006,0,0,0,1.8.967,1.972,1.972,0,0,0,1.775-.944,5.209,5.209,0,0,0,.612-2.769Z"/><path d="M313.078,378.9H312.2v-9.61l-2.9,1.077v-.821l3.633-1.347h.146Z"/><path d="M319.26,373.089h.908a3.064,3.064,0,0,0,1.318-.266,2.019,2.019,0,0,0,.861-.733,1.959,1.959,0,0,0,.3-1.073,2.167,2.167,0,0,0-.579-1.6,2.254,2.254,0,0,0-1.663-.579,2.379,2.379,0,0,0-1.681.605,2.061,2.061,0,0,0-.655,1.593h-.879a2.855,2.855,0,0,1,.417-1.513,2.824,2.824,0,0,1,1.158-1.059,3.6,3.6,0,0,1,1.64-.373,3.192,3.192,0,0,1,2.286.791,2.846,2.846,0,0,1,.834,2.168,2.308,2.308,0,0,1-.486,1.417,2.924,2.924,0,0,1-1.337.971,2.741,2.741,0,0,1,1.509.956,2.6,2.6,0,0,1,.512,1.615,2.875,2.875,0,0,1-.893,2.2,3.356,3.356,0,0,1-2.388.835,3.988,3.988,0,0,1-1.747-.381,2.815,2.815,0,0,1-1.666-2.658h.879a2.129,2.129,0,0,0,.71,1.658,2.617,2.617,0,0,0,1.824.641,2.514,2.514,0,0,0,1.769-.582,2.178,2.178,0,0,0,.633-1.688,2,2,0,0,0-.684-1.633,3.114,3.114,0,0,0-2.018-.564h-.879Z"/><path d="M362.875,378.9H356.2v-.674l3.655-4.146a9.58,9.58,0,0,0,1.259-1.728,2.874,2.874,0,0,0,.352-1.325,2.158,2.158,0,0,0-.593-1.6,2.217,2.217,0,0,0-1.634-.59,2.305,2.305,0,0,0-1.739.689,2.468,2.468,0,0,0-.663,1.787h-.872a3.35,3.35,0,0,1,.407-1.641,2.924,2.924,0,0,1,1.157-1.161,3.443,3.443,0,0,1,1.71-.421,3.218,3.218,0,0,1,2.289.77,2.724,2.724,0,0,1,.824,2.093,3.555,3.555,0,0,1-.465,1.634,12.151,12.151,0,0,1-1.637,2.212l-2.974,3.361h5.6Z"/><path d="M370.939,374.452a5.9,5.9,0,0,1-.827,3.424,3.134,3.134,0,0,1-4.863.022,5.681,5.681,0,0,1-.865-3.336V372.65a5.8,5.8,0,0,1,.835-3.406,3.161,3.161,0,0,1,4.856-.04,5.576,5.576,0,0,1,.864,3.292Zm-.878-1.912a5.2,5.2,0,0,0-.6-2.768,2.2,2.2,0,0,0-3.592-.023,5.049,5.049,0,0,0-.615,2.7v2.1a5.189,5.189,0,0,0,.619,2.79,2,2,0,0,0,1.8.967,1.975,1.975,0,0,0,1.776-.944,5.218,5.218,0,0,0,.612-2.769Z"/><path d="M376.9,378.9h-.879v-9.61l-2.9,1.077v-.821l3.633-1.347h.146Z"/><path d="M381.728,373.434l.52-5.2h5.332v.812H383l-.373,3.6a3.467,3.467,0,0,1,2.006-.586,2.972,2.972,0,0,1,2.3.937,3.567,3.567,0,0,1,.856,2.5,3.782,3.782,0,0,1-.835,2.616,3,3,0,0,1-2.352.929,3.249,3.249,0,0,1-2.255-.776,3.17,3.17,0,0,1-.989-2.175h.842a2.531,2.531,0,0,0,.74,1.651,2.378,2.378,0,0,0,1.662.56,2.082,2.082,0,0,0,1.726-.725,3.226,3.226,0,0,0,.582-2.065,2.79,2.79,0,0,0-.651-1.911,2.256,2.256,0,0,0-1.781-.74,3.363,3.363,0,0,0-1.084.157,2.952,2.952,0,0,0-.973.612Z"/><path d="M426.7,378.9H420.02v-.674l3.654-4.146a9.645,9.645,0,0,0,1.26-1.728,2.885,2.885,0,0,0,.351-1.325,2.151,2.151,0,0,0-.594-1.6,2.211,2.211,0,0,0-1.632-.59,2.306,2.306,0,0,0-1.74.689,2.468,2.468,0,0,0-.663,1.787h-.871a3.349,3.349,0,0,1,.406-1.641,2.926,2.926,0,0,1,1.158-1.161,3.44,3.44,0,0,1,1.71-.421,3.221,3.221,0,0,1,2.289.77,2.727,2.727,0,0,1,.824,2.093,3.546,3.546,0,0,1-.466,1.634,12.1,12.1,0,0,1-1.637,2.212l-2.973,3.361h5.6Z"/><path d="M434.762,374.452a5.908,5.908,0,0,1-.827,3.424,3.135,3.135,0,0,1-4.864.022,5.689,5.689,0,0,1-.864-3.336V372.65a5.794,5.794,0,0,1,.835-3.406,3.161,3.161,0,0,1,4.856-.04,5.584,5.584,0,0,1,.864,3.292Zm-.879-1.912a5.2,5.2,0,0,0-.6-2.768,2.205,2.205,0,0,0-3.593-.023,5.049,5.049,0,0,0-.615,2.7v2.1a5.2,5.2,0,0,0,.619,2.79,2.006,2.006,0,0,0,1.8.967,1.973,1.973,0,0,0,1.775-.944,5.209,5.209,0,0,0,.612-2.769Z"/><path d="M440.725,378.9h-.879v-9.61l-2.9,1.077v-.821l3.633-1.347h.147Z"/><path d="M451.528,368.74,446.973,378.9h-.916l4.527-9.917H444.52v-.747h7.008Z"/><path d="M490.524,378.9h-6.679v-.674l3.654-4.146a9.645,9.645,0,0,0,1.26-1.728,2.885,2.885,0,0,0,.351-1.325,2.154,2.154,0,0,0-.593-1.6,2.215,2.215,0,0,0-1.633-.59,2.3,2.3,0,0,0-1.739.689,2.464,2.464,0,0,0-.664,1.787h-.871a3.339,3.339,0,0,1,.407-1.641,2.917,2.917,0,0,1,1.157-1.161,3.44,3.44,0,0,1,1.71-.421,3.221,3.221,0,0,1,2.289.77,2.724,2.724,0,0,1,.824,2.093,3.546,3.546,0,0,1-.466,1.634A12.089,12.089,0,0,1,487.9,374.8l-2.974,3.362h5.6Z"/><path d="M498.588,374.451a5.908,5.908,0,0,1-.827,3.424,2.8,2.8,0,0,1-2.439,1.168A2.828,2.828,0,0,1,492.9,377.9a5.689,5.689,0,0,1-.864-3.336v-1.912a5.8,5.8,0,0,1,.835-3.406,3.162,3.162,0,0,1,4.857-.04,5.591,5.591,0,0,1,.863,3.292Zm-.879-1.912a5.2,5.2,0,0,0-.6-2.768,2.2,2.2,0,0,0-3.592-.023,5.039,5.039,0,0,0-.616,2.7v2.095a5.2,5.2,0,0,0,.619,2.79,2.007,2.007,0,0,0,1.8.967,1.975,1.975,0,0,0,1.776-.944,5.219,5.219,0,0,0,.611-2.769Z"/><path d="M504.55,378.9h-.879v-9.61l-2.9,1.077v-.821L504.4,368.2h.147Z"/><path d="M514.254,373.96a3.307,3.307,0,0,1-1.164,1.066,3.115,3.115,0,0,1-1.51.377,2.8,2.8,0,0,1-1.6-.469,3.056,3.056,0,0,1-1.077-1.3,4.273,4.273,0,0,1-.38-1.81,4.437,4.437,0,0,1,.406-1.918,3.184,3.184,0,0,1,1.135-1.344,3.277,3.277,0,0,1,4.178.644,5.019,5.019,0,0,1,.894,3.191v.791a6.558,6.558,0,0,1-1.231,4.336,4.655,4.655,0,0,1-3.757,1.449h-.161l.007-.762h.308a3.9,3.9,0,0,0,2.908-1.084A4.643,4.643,0,0,0,514.254,373.96Zm-2.564.681a2.574,2.574,0,0,0,1.579-.522,2.836,2.836,0,0,0,.993-1.355v-.5a4.1,4.1,0,0,0-.678-2.518,2.179,2.179,0,0,0-1.828-.894,2.084,2.084,0,0,0-1.706.837,3.27,3.27,0,0,0-.667,2.107,3.188,3.188,0,0,0,.641,2.034A2.02,2.02,0,0,0,511.69,374.641Z"/><path class="cls-2" d="M32.716,357.048H515.681"/><path class="cls-3" d="M5.58,357.048h510.1"/><path class="cls-3" d="M5.58,307.915h510.1"/><path class="cls-3" d="M5.58,258.782h510.1"/><path class="cls-3" d="M5.58,209.649h510.1"/><path class="cls-3" d="M5.58,160.516h510.1"/><path class="cls-3" d="M5.58,111.383h510.1"/><line class="cls-4" x1="68.432" y1="151.781" x2="36.485" y2="151.781"/><line class="cls-4" x1="100.378" y1="153.562" x2="68.432" y2="153.562"/><line class="cls-4" x1="132.324" y1="142.199" x2="100.378" y2="142.199"/><line class="cls-4" x1="164.271" y1="160.516" x2="132.324" y2="160.516"/><line class="cls-4" x1="196.217" y1="155.657" x2="164.271" y2="155.657"/><line class="cls-4" x1="228.163" y1="152.577" x2="196.217" y2="152.577"/><line class="cls-4" x1="260.11" y1="150.571" x2="228.163" y2="150.571"/><line class="cls-4" x1="292.056" y1="137.017" x2="260.11" y2="137.017"/><line class="cls-4" x1="324.002" y1="145.366" x2="292.056" y2="145.366"/><line class="cls-4" x1="355.949" y1="199.941" x2="324.002" y2="199.941"/><line class="cls-4" x1="387.895" y1="203.757" x2="355.949" y2="203.757"/><line class="cls-4" x1="419.842" y1="201.106" x2="387.895" y2="201.106"/><line class="cls-4" x1="451.788" y1="182.532" x2="419.842" y2="182.532"/><line class="cls-4" x1="483.734" y1="189.899" x2="451.788" y2="189.899"/><line class="cls-4" x1="515.681" y1="224.846" x2="483.734" y2="224.846"/><path d="M8.212,417.172l-2.22-.722.214-.674,2.22.821L8.4,414.125h.7l-.053,2.492,2.167-.848.221.675-2.227.768,1.491,1.967-.569.421-1.431-2.04L7.33,419.587l-.57-.408Z"/><path d="M16.541,423.169h6.013v.7H15.543v-.623l5.781-8.421H15.718v-.7H22.34v.583Z"/><path d="M28.749,423.865a3.746,3.746,0,0,1-.154-1.01,2.791,2.791,0,0,1-1.074.845,3.268,3.268,0,0,1-1.381.3,2.42,2.42,0,0,1-1.689-.582,1.891,1.891,0,0,1-.646-1.471,1.936,1.936,0,0,1,.88-1.672,4.226,4.226,0,0,1,2.451-.616h1.452v-.823a1.586,1.586,0,0,0-.478-1.22,1.976,1.976,0,0,0-1.395-.446,2.183,2.183,0,0,0-1.384.429,1.269,1.269,0,0,0-.549,1.03l-.8-.007a1.862,1.862,0,0,1,.8-1.5,3.087,3.087,0,0,1,1.973-.632,2.828,2.828,0,0,1,1.911.605,2.175,2.175,0,0,1,.718,1.689v3.425a4.248,4.248,0,0,0,.221,1.572v.081Zm-2.515-.576a2.689,2.689,0,0,0,1.434-.387,2.292,2.292,0,0,0,.92-1.037v-1.592H27.157a3.6,3.6,0,0,0-1.873.437,1.316,1.316,0,0,0-.676,1.168,1.3,1.3,0,0,0,.451,1.01A1.7,1.7,0,0,0,26.234,423.289Z"/><path d="M33.217,414.981l1.152-1.3h.715v.08l-1.579,1.746H32.93l-1.579-1.753v-.073h.716Zm1.647,2.328a3.021,3.021,0,0,0-.542-.047,1.96,1.96,0,0,0-1.268.418,2.283,2.283,0,0,0-.739,1.215v4.97h-.8v-7.238H32.3l.014,1.151a2.128,2.128,0,0,1,2.04-1.285,1.312,1.312,0,0,1,.528.087Z"/><path d="M37.425,413.67h.97l-1.546,1.873-.7,0Zm-.415,10.195h-.8v-7.238h.8Z"/><path d="M39.707,423.189h4.7v.676H38.716v-.589l4.389-5.953H38.85v-.7h5.265v.6Z"/><path d="M48.537,424a3.133,3.133,0,0,1-1.669-.455,3.082,3.082,0,0,1-1.161-1.267,3.945,3.945,0,0,1-.415-1.823v-.288a4.262,4.262,0,0,1,.405-1.88,3.22,3.22,0,0,1,1.127-1.314,2.787,2.787,0,0,1,1.565-.478,2.615,2.615,0,0,1,2.091.9,3.647,3.647,0,0,1,.772,2.458v.448H46.088v.154a3.031,3.031,0,0,0,.7,2.05,2.245,2.245,0,0,0,1.777.82,2.614,2.614,0,0,0,1.134-.234,2.5,2.5,0,0,0,.893-.75l.5.382A2.917,2.917,0,0,1,48.537,424Zm-.148-6.823a2,2,0,0,0-1.521.662,3.058,3.058,0,0,0-.753,1.779h4.342v-.086a2.657,2.657,0,0,0-.6-1.7A1.846,1.846,0,0,0,48.389,417.175Z"/><path d="M53.574,416.627l.026,1.238a2.858,2.858,0,0,1,1.017-1.021,2.643,2.643,0,0,1,1.344-.351,2.168,2.168,0,0,1,1.733.656,2.952,2.952,0,0,1,.575,1.967v4.749h-.8v-4.756a2.219,2.219,0,0,0-.411-1.446,1.614,1.614,0,0,0-1.295-.474,2.023,2.023,0,0,0-1.314.465,2.724,2.724,0,0,0-.846,1.253v4.958h-.8v-7.238Z"/><path d="M61.634,413.67h.97l-1.546,1.873-.7,0Zm-.415,10.195h-.8v-7.238h.8Z"/><path d="M67.447,416.627l.027,1.177a2.679,2.679,0,0,1,1-.983,2.759,2.759,0,0,1,1.338-.328,2.03,2.03,0,0,1,2.174,1.405,2.719,2.719,0,0,1,1.037-1.04,2.873,2.873,0,0,1,1.432-.365q2.327,0,2.375,2.542v4.83h-.8V419.1a2.162,2.162,0,0,0-.418-1.438,1.705,1.705,0,0,0-1.342-.468,2.132,2.132,0,0,0-1.458.558,1.972,1.972,0,0,0-.662,1.328v4.79h-.8v-4.83a1.983,1.983,0,0,0-.438-1.388,1.742,1.742,0,0,0-1.328-.458,2.012,2.012,0,0,0-1.3.431,2.524,2.524,0,0,0-.8,1.282v4.963h-.8v-7.238Z"/><path d="M78.417,420.139a4.259,4.259,0,0,1,.406-1.88,3.038,3.038,0,0,1,2.819-1.766,2.977,2.977,0,0,1,2.342,1.013,3.9,3.9,0,0,1,.9,2.687v.167a4.289,4.289,0,0,1-.405,1.889,3,3,0,0,1-1.141,1.294,3.115,3.115,0,0,1-1.678.455,2.98,2.98,0,0,1-2.338-1.013,3.9,3.9,0,0,1-.9-2.686Zm.8.221a3.289,3.289,0,0,0,.673,2.131,2.276,2.276,0,0,0,3.519,0,3.4,3.4,0,0,0,.671-2.2v-.153a3.685,3.685,0,0,0-.307-1.519,2.473,2.473,0,0,0-.862-1.067,2.208,2.208,0,0,0-1.272-.378,2.139,2.139,0,0,0-1.746.84,3.4,3.4,0,0,0-.676,2.2Z"/><path d="M87.329,417.851a2.809,2.809,0,0,1,1.009-1,2.654,2.654,0,0,1,1.345-.355,2.169,2.169,0,0,1,1.733.656,2.957,2.957,0,0,1,.575,1.967v4.749h-.8v-4.756a2.224,2.224,0,0,0-.411-1.446,1.615,1.615,0,0,0-1.3-.474,2.027,2.027,0,0,0-1.315.465,2.715,2.715,0,0,0-.845,1.253v4.958h-.8V413.59h.8Z"/><path d="M94.947,423.865h-.8V413.59h.8Z"/><path d="M101.69,423.865a3.753,3.753,0,0,1-.153-1.01,2.8,2.8,0,0,1-1.075.845,3.26,3.26,0,0,1-1.38.3,2.423,2.423,0,0,1-1.69-.582,1.891,1.891,0,0,1-.645-1.471,1.937,1.937,0,0,1,.879-1.672,4.229,4.229,0,0,1,2.452-.616h1.452v-.823a1.583,1.583,0,0,0-.479-1.22,1.975,1.975,0,0,0-1.394-.446,2.184,2.184,0,0,0-1.385.429,1.271,1.271,0,0,0-.549,1.03l-.8-.007a1.862,1.862,0,0,1,.8-1.5,3.09,3.09,0,0,1,1.974-.632,2.827,2.827,0,0,1,1.91.605,2.175,2.175,0,0,1,.719,1.689v3.425a4.252,4.252,0,0,0,.22,1.572v.081Zm-2.515-.576a2.7,2.7,0,0,0,1.435-.387,2.3,2.3,0,0,0,.92-1.037v-1.592H100.1a3.6,3.6,0,0,0-1.873.437,1.318,1.318,0,0,0-.676,1.168,1.3,1.3,0,0,0,.451,1.01A1.7,1.7,0,0,0,99.175,423.289Z"/><path d="M112.125,422.025a1.141,1.141,0,0,0-.477-.956,3.674,3.674,0,0,0-1.442-.566,6.549,6.549,0,0,1-1.5-.468,2,2,0,0,1-.789-.645,1.621,1.621,0,0,1-.257-.924,1.724,1.724,0,0,1,.715-1.414,2.891,2.891,0,0,1,1.833-.559,2.978,2.978,0,0,1,1.944.6,1.921,1.921,0,0,1,.732,1.562h-.8a1.293,1.293,0,0,0-.531-1.057,2.4,2.4,0,0,0-2.609-.07,1.083,1.083,0,0,0-.479.913.989.989,0,0,0,.4.84,4.219,4.219,0,0,0,1.451.544,6.825,6.825,0,0,1,1.579.529,2.031,2.031,0,0,1,.779.676,1.858,1.858,0,0,1-.485,2.421,3.154,3.154,0,0,1-1.93.548,3.243,3.243,0,0,1-2.05-.612,1.882,1.882,0,0,1-.786-1.548h.8a1.394,1.394,0,0,0,.592,1.094,2.417,2.417,0,0,0,1.441.391,2.279,2.279,0,0,0,1.352-.368A1.1,1.1,0,0,0,112.125,422.025Z"/><path d="M116.983,422.761l2.2-6.134h.822l-2.7,7.238h-.649l-2.716-7.238h.823Z"/><path d="M124.034,424a3.133,3.133,0,0,1-1.669-.455,3.082,3.082,0,0,1-1.161-1.267,3.945,3.945,0,0,1-.415-1.823v-.288a4.262,4.262,0,0,1,.405-1.88,3.22,3.22,0,0,1,1.127-1.314,2.787,2.787,0,0,1,1.565-.478,2.615,2.615,0,0,1,2.091.9,3.648,3.648,0,0,1,.773,2.458v.448h-5.165v.154a3.026,3.026,0,0,0,.706,2.05,2.242,2.242,0,0,0,1.776.82,2.611,2.611,0,0,0,1.134-.234,2.5,2.5,0,0,0,.893-.75l.5.382A2.917,2.917,0,0,1,124.034,424Zm-.148-6.823a2,2,0,0,0-1.521.662,3.058,3.058,0,0,0-.753,1.779h4.342v-.086a2.657,2.657,0,0,0-.6-1.7A1.846,1.846,0,0,0,123.886,417.175Zm.89-3.585h.97l-1.545,1.873-.7,0Z"/><path d="M134.442,424a3.136,3.136,0,0,1-1.669-.455,3.082,3.082,0,0,1-1.161-1.267,3.945,3.945,0,0,1-.415-1.823v-.288a4.276,4.276,0,0,1,.405-1.88,3.235,3.235,0,0,1,1.127-1.314,2.787,2.787,0,0,1,1.565-.478,2.613,2.613,0,0,1,2.091.9,3.648,3.648,0,0,1,.773,2.458v.448h-5.164v.154a3.026,3.026,0,0,0,.705,2.05,2.242,2.242,0,0,0,1.776.82,2.611,2.611,0,0,0,1.134-.234,2.5,2.5,0,0,0,.893-.75l.5.382A2.916,2.916,0,0,1,134.442,424Zm-.148-6.823a2,2,0,0,0-1.521.662,3.058,3.058,0,0,0-.753,1.779h4.342v-.086a2.657,2.657,0,0,0-.6-1.7A1.846,1.846,0,0,0,134.294,417.175Z"/><path d="M139.446,416.627l.027,1.177a2.679,2.679,0,0,1,1-.983,2.759,2.759,0,0,1,1.338-.328,2.03,2.03,0,0,1,2.174,1.405,2.719,2.719,0,0,1,1.037-1.04,2.875,2.875,0,0,1,1.432-.365q2.327,0,2.375,2.542v4.83h-.8V419.1a2.162,2.162,0,0,0-.418-1.438,1.705,1.705,0,0,0-1.342-.468,2.134,2.134,0,0,0-1.458.558,1.972,1.972,0,0,0-.662,1.328v4.79h-.8v-4.83a1.983,1.983,0,0,0-.438-1.388,1.742,1.742,0,0,0-1.328-.458,2.012,2.012,0,0,0-1.3.431,2.524,2.524,0,0,0-.8,1.282v4.963h-.8v-7.238Z"/><path d="M150.811,414.536a.533.533,0,0,1,.147-.381.523.523,0,0,1,.4-.158.533.533,0,0,1,.405.158.524.524,0,0,1,.151.381.515.515,0,0,1-.151.379.541.541,0,0,1-.405.153.53.53,0,0,1-.4-.153A.524.524,0,0,1,150.811,414.536Zm.942,9.329h-.8v-7.238h.8Z"/><path d="M158.263,422.025a1.141,1.141,0,0,0-.477-.956,3.68,3.68,0,0,0-1.443-.566,6.555,6.555,0,0,1-1.495-.468,2,2,0,0,1-.789-.645,1.613,1.613,0,0,1-.258-.924,1.725,1.725,0,0,1,.716-1.414,2.891,2.891,0,0,1,1.833-.559,2.974,2.974,0,0,1,1.943.6,1.919,1.919,0,0,1,.733,1.562h-.8a1.3,1.3,0,0,0-.531-1.057,2.4,2.4,0,0,0-2.609-.07,1.083,1.083,0,0,0-.479.913.991.991,0,0,0,.4.84,4.227,4.227,0,0,0,1.452.544,6.825,6.825,0,0,1,1.579.529,2.039,2.039,0,0,1,.779.676,1.858,1.858,0,0,1-.485,2.421,3.156,3.156,0,0,1-1.93.548,3.241,3.241,0,0,1-2.05-.612,1.882,1.882,0,0,1-.786-1.548h.8a1.391,1.391,0,0,0,.592,1.094,2.415,2.415,0,0,0,1.441.391,2.279,2.279,0,0,0,1.352-.368A1.1,1.1,0,0,0,158.263,422.025Z"/><path d="M163.668,424a3.132,3.132,0,0,1-1.668-.455,3.084,3.084,0,0,1-1.162-1.267,3.958,3.958,0,0,1-.415-1.823v-.288a4.262,4.262,0,0,1,.406-1.88,3.22,3.22,0,0,1,1.127-1.314,2.784,2.784,0,0,1,1.565-.478,2.615,2.615,0,0,1,2.091.9,3.653,3.653,0,0,1,.772,2.458v.448H161.22v.154a3.031,3.031,0,0,0,.705,2.05,2.245,2.245,0,0,0,1.777.82,2.61,2.61,0,0,0,1.133-.234,2.506,2.506,0,0,0,.894-.75l.5.382A2.918,2.918,0,0,1,163.668,424Zm-.147-6.823a2,2,0,0,0-1.521.662,3.045,3.045,0,0,0-.753,1.779h4.341v-.086a2.651,2.651,0,0,0-.595-1.7A1.847,1.847,0,0,0,163.521,417.175Z"/><path d="M177.094,420.32a4.36,4.36,0,0,1-.749,2.685,2.388,2.388,0,0,1-2.007.993,2.677,2.677,0,0,1-2.274-1.043v3.693h-.8V416.627h.742l.04,1.024a2.571,2.571,0,0,1,2.268-1.158,2.408,2.408,0,0,1,2.037.983,4.454,4.454,0,0,1,.739,2.729Zm-.8-.141a3.727,3.727,0,0,0-.569-2.188,1.834,1.834,0,0,0-1.586-.8,2.111,2.111,0,0,0-2.073,1.385v3.471a2.12,2.12,0,0,0,.822.95,2.374,2.374,0,0,0,1.265.328,1.816,1.816,0,0,0,1.575-.806A4.052,4.052,0,0,0,176.292,420.179Z"/><path d="M178.424,420.139a4.259,4.259,0,0,1,.406-1.88,3.038,3.038,0,0,1,2.819-1.766,2.977,2.977,0,0,1,2.342,1.013,3.91,3.91,0,0,1,.9,2.687v.167a4.3,4.3,0,0,1-.405,1.889,3,3,0,0,1-1.141,1.294,3.115,3.115,0,0,1-1.678.455,2.98,2.98,0,0,1-2.338-1.013,3.9,3.9,0,0,1-.9-2.686Zm.8.221a3.289,3.289,0,0,0,.673,2.131,2.275,2.275,0,0,0,3.518,0,3.393,3.393,0,0,0,.672-2.2v-.153a3.685,3.685,0,0,0-.307-1.519,2.468,2.468,0,0,0-.863-1.067,2.2,2.2,0,0,0-1.271-.378,2.139,2.139,0,0,0-1.746.84,3.4,3.4,0,0,0-.676,2.2Z"/><path d="M188.258,420.219l-.916.883v2.763h-.8V413.59h.8v6.575l.756-.816,2.77-2.722h1.009l-3.07,3.05,3.338,4.188h-.957Z"/><path d="M196.594,417.309a3.013,3.013,0,0,0-.542-.047,1.955,1.955,0,0,0-1.267.418,2.29,2.29,0,0,0-.74,1.215v4.97h-.795v-7.238h.782l.013,1.151a2.128,2.128,0,0,1,2.04-1.285,1.318,1.318,0,0,1,.529.087Z"/><path d="M200.273,422.714l2.114-6.087h.863l-3.09,8.469-.161.374a1.943,1.943,0,0,1-1.839,1.318,2.267,2.267,0,0,1-.617-.093l-.006-.663.415.041a1.488,1.488,0,0,0,.953-.291,2.223,2.223,0,0,0,.619-1l.354-.977-2.729-7.178h.877Zm.9-9.124h.97l-1.545,1.873-.7,0Z"/><path d="M205.732,414.774v1.853h1.5v.655h-1.5v4.829a1.509,1.509,0,0,0,.217.9.843.843,0,0,0,.726.3,4.915,4.915,0,0,0,.649-.067l.033.65a2.622,2.622,0,0,1-.857.112,1.429,1.429,0,0,1-1.2-.478,2.248,2.248,0,0,1-.374-1.407v-4.831H203.6v-.655h1.331v-1.853Z"/><path d="M213.464,414.774v1.853h1.5v.655h-1.5v4.829a1.516,1.516,0,0,0,.217.9.846.846,0,0,0,.727.3,4.9,4.9,0,0,0,.648-.067l.033.65a2.619,2.619,0,0,1-.856.112,1.427,1.427,0,0,1-1.2-.478,2.248,2.248,0,0,1-.374-1.407v-4.831h-1.331v-.655h1.331v-1.853Z"/><path d="M221.191,423.865a3.753,3.753,0,0,1-.153-1.01,2.8,2.8,0,0,1-1.075.845,3.26,3.26,0,0,1-1.38.3,2.423,2.423,0,0,1-1.69-.582,1.891,1.891,0,0,1-.645-1.471,1.937,1.937,0,0,1,.879-1.672,4.229,4.229,0,0,1,2.452-.616h1.452v-.823a1.583,1.583,0,0,0-.479-1.22,1.975,1.975,0,0,0-1.394-.446,2.184,2.184,0,0,0-1.385.429,1.271,1.271,0,0,0-.549,1.03l-.8-.007a1.862,1.862,0,0,1,.8-1.5,3.088,3.088,0,0,1,1.974-.632,2.827,2.827,0,0,1,1.91.605,2.175,2.175,0,0,1,.719,1.689v3.425a4.252,4.252,0,0,0,.22,1.572v.081Zm-2.515-.576a2.7,2.7,0,0,0,1.435-.387,2.3,2.3,0,0,0,.92-1.037v-1.592H219.6a3.6,3.6,0,0,0-1.873.437,1.318,1.318,0,0,0-.676,1.168,1.3,1.3,0,0,0,.451,1.01A1.7,1.7,0,0,0,218.676,423.289Z"/><path d="M225.679,420.219l-.916.883v2.763h-.8V413.59h.8v6.575l.756-.816,2.77-2.722H229.3l-3.07,3.05,3.338,4.188h-.957Z"/><path d="M233.339,424a3.136,3.136,0,0,1-1.669-.455,3.089,3.089,0,0,1-1.161-1.267,3.958,3.958,0,0,1-.415-1.823v-.288a4.262,4.262,0,0,1,.406-1.88,3.225,3.225,0,0,1,1.126-1.314,2.79,2.79,0,0,1,1.566-.478,2.615,2.615,0,0,1,2.091.9,3.653,3.653,0,0,1,.772,2.458v.448h-5.164v.154a3.026,3.026,0,0,0,.705,2.05,2.245,2.245,0,0,0,1.777.82,2.61,2.61,0,0,0,1.133-.234,2.515,2.515,0,0,0,.894-.75l.5.382A2.919,2.919,0,0,1,233.339,424Zm-.147-6.823a2,2,0,0,0-1.522.662,3.058,3.058,0,0,0-.753,1.779h4.342v-.086a2.651,2.651,0,0,0-.595-1.7A1.847,1.847,0,0,0,233.192,417.175Zm.89-3.585h.969l-1.545,1.873-.7,0Z"/><path d="M241.673,416.627l.028,1.177a2.665,2.665,0,0,1,1-.983,2.756,2.756,0,0,1,1.338-.328,2.029,2.029,0,0,1,2.173,1.405,2.726,2.726,0,0,1,1.037-1.04,2.878,2.878,0,0,1,1.432-.365q2.328,0,2.375,2.542v4.83h-.8V419.1a2.157,2.157,0,0,0-.418-1.438,1.7,1.7,0,0,0-1.341-.468,2.13,2.13,0,0,0-1.458.558,1.969,1.969,0,0,0-.663,1.328v4.79h-.8v-4.83a1.983,1.983,0,0,0-.439-1.388,1.74,1.74,0,0,0-1.328-.458,2.014,2.014,0,0,0-1.3.431,2.522,2.522,0,0,0-.8,1.282v4.963h-.8v-7.238Z"/><path d="M255.889,424a3.136,3.136,0,0,1-1.669-.455,3.082,3.082,0,0,1-1.161-1.267,3.958,3.958,0,0,1-.415-1.823v-.288a4.276,4.276,0,0,1,.405-1.88,3.235,3.235,0,0,1,1.127-1.314,2.79,2.79,0,0,1,1.566-.478,2.615,2.615,0,0,1,2.091.9,3.653,3.653,0,0,1,.772,2.458v.448h-5.164v.154a3.026,3.026,0,0,0,.7,2.05,2.243,2.243,0,0,0,1.776.82,2.611,2.611,0,0,0,1.134-.234,2.515,2.515,0,0,0,.894-.75l.5.382A2.919,2.919,0,0,1,255.889,424Zm-.147-6.823a2,2,0,0,0-1.522.662,3.058,3.058,0,0,0-.753,1.779h4.342v-.086a2.652,2.652,0,0,0-.6-1.7A1.845,1.845,0,0,0,255.742,417.175Z"/><path d="M260.692,423.189h4.7v.676H259.7v-.589l4.388-5.953h-4.255v-.7H265.1v.6Z"/><path d="M266.78,414.536a.537.537,0,0,1,.146-.381.526.526,0,0,1,.4-.158.535.535,0,0,1,.405.158.527.527,0,0,1,.15.381.518.518,0,0,1-.15.379.543.543,0,0,1-.405.153.534.534,0,0,1-.4-.153A.527.527,0,0,1,266.78,414.536Zm.942,9.329h-.8v-7.238h.8Z"/><path d="M270.66,416.627l.026,1.238a2.858,2.858,0,0,1,1.017-1.021,2.643,2.643,0,0,1,1.344-.351,2.168,2.168,0,0,1,1.733.656,2.952,2.952,0,0,1,.575,1.967v4.749h-.8v-4.756a2.224,2.224,0,0,0-.411-1.446,1.615,1.615,0,0,0-1.3-.474,2.023,2.023,0,0,0-1.314.465,2.717,2.717,0,0,0-.846,1.253v4.958h-.8v-7.238Z"/><path d="M281.991,423.865a3.786,3.786,0,0,1-.154-1.01,2.791,2.791,0,0,1-1.074.845,3.261,3.261,0,0,1-1.381.3,2.422,2.422,0,0,1-1.689-.582,1.891,1.891,0,0,1-.646-1.471,1.936,1.936,0,0,1,.88-1.672,4.228,4.228,0,0,1,2.451-.616h1.453v-.823a1.587,1.587,0,0,0-.479-1.22,1.975,1.975,0,0,0-1.394-.446,2.184,2.184,0,0,0-1.385.429,1.271,1.271,0,0,0-.549,1.03l-.8-.007a1.862,1.862,0,0,1,.8-1.5,3.088,3.088,0,0,1,1.974-.632,2.827,2.827,0,0,1,1.91.605,2.171,2.171,0,0,1,.718,1.689v3.425a4.248,4.248,0,0,0,.221,1.572v.081Zm-2.515-.576a2.7,2.7,0,0,0,1.435-.387,2.3,2.3,0,0,0,.92-1.037v-1.592H280.4a3.6,3.6,0,0,0-1.873.437,1.318,1.318,0,0,0-.676,1.168,1.3,1.3,0,0,0,.451,1.01A1.7,1.7,0,0,0,279.476,423.289Zm1.578-9.7h.97l-1.545,1.873-.7,0Z"/><path d="M288.106,417.309a3.021,3.021,0,0,0-.542-.047,1.96,1.96,0,0,0-1.268.418,2.3,2.3,0,0,0-.739,1.215v4.97h-.8v-7.238h.782l.014,1.151a2.128,2.128,0,0,1,2.04-1.285,1.309,1.309,0,0,1,.528.087Z"/><path d="M288.793,420.139a4.259,4.259,0,0,1,.406-1.88,3.038,3.038,0,0,1,2.819-1.766,2.977,2.977,0,0,1,2.342,1.013,3.9,3.9,0,0,1,.9,2.687v.167a4.289,4.289,0,0,1-.4,1.889,3,3,0,0,1-1.141,1.294,3.115,3.115,0,0,1-1.678.455,2.98,2.98,0,0,1-2.338-1.013,3.9,3.9,0,0,1-.9-2.686Zm.8.221a3.289,3.289,0,0,0,.673,2.131,2.276,2.276,0,0,0,3.519,0,3.4,3.4,0,0,0,.671-2.2v-.153a3.685,3.685,0,0,0-.307-1.519,2.473,2.473,0,0,0-.862-1.067,2.208,2.208,0,0,0-1.272-.378,2.139,2.139,0,0,0-1.746.84,3.4,3.4,0,0,0-.676,2.2Z"/><path d="M296.587,420.179a4.366,4.366,0,0,1,.752-2.686,2.423,2.423,0,0,1,2.044-1,2.518,2.518,0,0,1,2.235,1.158V413.59h.8v10.275h-.749l-.034-.963a2.585,2.585,0,0,1-2.261,1.1,2.412,2.412,0,0,1-2.017-1.007,4.378,4.378,0,0,1-.766-2.718Zm.81.141a3.772,3.772,0,0,0,.555,2.183,1.8,1.8,0,0,0,1.565.8,2.156,2.156,0,0,0,2.1-1.305v-3.4a2.139,2.139,0,0,0-2.087-1.411,1.818,1.818,0,0,0-1.573.793A4.028,4.028,0,0,0,297.4,420.32Z"/><path d="M305.285,416.627l.026,1.238a2.858,2.858,0,0,1,1.017-1.021,2.643,2.643,0,0,1,1.344-.351,2.168,2.168,0,0,1,1.733.656,2.952,2.952,0,0,1,.575,1.967v4.749h-.8v-4.756a2.224,2.224,0,0,0-.411-1.446,1.615,1.615,0,0,0-1.3-.474,2.023,2.023,0,0,0-1.314.465,2.717,2.717,0,0,0-.846,1.253v4.958h-.8v-7.238Z"/><path d="M313.345,413.67h.97l-1.546,1.873-.7,0Zm-.415,10.195h-.8v-7.238h.8Z"/><path d="M315.826,416.627l.027,1.177a2.679,2.679,0,0,1,1-.983,2.759,2.759,0,0,1,1.338-.328,2.031,2.031,0,0,1,2.174,1.405,2.712,2.712,0,0,1,1.037-1.04,2.872,2.872,0,0,1,1.431-.365q2.328,0,2.375,2.542v4.83h-.8V419.1a2.162,2.162,0,0,0-.418-1.438,1.705,1.705,0,0,0-1.342-.468,2.132,2.132,0,0,0-1.458.558,1.967,1.967,0,0,0-.662,1.328v4.79h-.8v-4.83a1.983,1.983,0,0,0-.438-1.388,1.744,1.744,0,0,0-1.329-.458,2.011,2.011,0,0,0-1.3.431,2.524,2.524,0,0,0-.8,1.282v4.963h-.8v-7.238Z"/><path d="M327.192,414.536a.537.537,0,0,1,.146-.381.526.526,0,0,1,.4-.158.535.535,0,0,1,.4.158.523.523,0,0,1,.15.381.514.514,0,0,1-.15.379.543.543,0,0,1-.4.153.534.534,0,0,1-.4-.153A.527.527,0,0,1,327.192,414.536Zm.942,9.329h-.8v-7.238h.8Z"/><path d="M335.36,420.219l-.916.883v2.763h-.8V413.59h.8v6.575l.756-.816,2.769-2.722h1.01l-3.07,3.05,3.338,4.188h-.957Z"/><path d="M343.7,417.309a3.021,3.021,0,0,0-.542-.047,1.96,1.96,0,0,0-1.268.418,2.289,2.289,0,0,0-.739,1.215v4.97h-.8v-7.238h.782l.014,1.151a2.128,2.128,0,0,1,2.04-1.285,1.312,1.312,0,0,1,.528.087Z"/><path d="M347.635,424a3.136,3.136,0,0,1-1.669-.455,3.089,3.089,0,0,1-1.161-1.267,3.958,3.958,0,0,1-.415-1.823v-.288a4.276,4.276,0,0,1,.405-1.88,3.235,3.235,0,0,1,1.127-1.314,2.79,2.79,0,0,1,1.566-.478,2.615,2.615,0,0,1,2.091.9,3.653,3.653,0,0,1,.772,2.458v.448h-5.164v.154a3.026,3.026,0,0,0,.7,2.05,2.245,2.245,0,0,0,1.776.82,2.611,2.611,0,0,0,1.134-.234,2.515,2.515,0,0,0,.894-.75l.5.382A2.919,2.919,0,0,1,347.635,424Zm-.147-6.823a2,2,0,0,0-1.522.662,3.058,3.058,0,0,0-.753,1.779h4.342v-.086a2.652,2.652,0,0,0-.6-1.7A1.845,1.845,0,0,0,347.488,417.175Z"/><path d="M351.588,420.179a4.366,4.366,0,0,1,.752-2.686,2.423,2.423,0,0,1,2.044-1,2.518,2.518,0,0,1,2.235,1.158V413.59h.8v10.275h-.749l-.034-.963a2.585,2.585,0,0,1-2.261,1.1,2.412,2.412,0,0,1-2.017-1.007,4.378,4.378,0,0,1-.766-2.718Zm.81.141a3.772,3.772,0,0,0,.555,2.183,1.8,1.8,0,0,0,1.565.8,2.156,2.156,0,0,0,2.1-1.305v-3.4a2.139,2.139,0,0,0-2.087-1.411,1.818,1.818,0,0,0-1.573.793A4.028,4.028,0,0,0,352.4,420.32Z"/><path d="M359.475,414.536a.533.533,0,0,1,.147-.381.523.523,0,0,1,.4-.158.533.533,0,0,1,.4.158.524.524,0,0,1,.151.381.515.515,0,0,1-.151.379.541.541,0,0,1-.4.153.53.53,0,0,1-.4-.153A.524.524,0,0,1,359.475,414.536Zm.942,9.329h-.8v-7.238h.8Z"/><path d="M363.836,414.774v1.853h1.5v.655h-1.5v4.829a1.516,1.516,0,0,0,.217.9.846.846,0,0,0,.727.3,4.9,4.9,0,0,0,.648-.067l.033.65a2.619,2.619,0,0,1-.856.112,1.427,1.427,0,0,1-1.2-.478,2.248,2.248,0,0,1-.374-1.407v-4.831H361.7v-.655h1.331v-1.853Z"/><path d="M369.289,422.714l2.113-6.087h.864l-3.091,8.469-.161.374a1.942,1.942,0,0,1-1.839,1.318,2.265,2.265,0,0,1-.616-.093l-.007-.663.415.041a1.486,1.486,0,0,0,.953-.291,2.215,2.215,0,0,0,.62-1l.354-.977-2.729-7.178h.877Z"/><path d="M382.654,420.32a4.353,4.353,0,0,1-.75,2.685A2.386,2.386,0,0,1,379.9,424a2.68,2.68,0,0,1-2.275-1.043v3.693h-.8V416.627h.742l.039,1.024a2.573,2.573,0,0,1,2.268-1.158,2.408,2.408,0,0,1,2.037.983,4.447,4.447,0,0,1,.74,2.729Zm-.8-.141a3.727,3.727,0,0,0-.569-2.188,1.834,1.834,0,0,0-1.586-.8,2.114,2.114,0,0,0-2.074,1.385v3.471a2.126,2.126,0,0,0,.822.95,2.378,2.378,0,0,0,1.266.328,1.814,1.814,0,0,0,1.574-.806A4.051,4.051,0,0,0,381.852,420.179Z"/><path d="M383.984,420.139a4.259,4.259,0,0,1,.407-1.88,3.035,3.035,0,0,1,2.818-1.766,2.975,2.975,0,0,1,2.342,1.013,3.91,3.91,0,0,1,.9,2.687v.167a4.3,4.3,0,0,1-.4,1.889,3.011,3.011,0,0,1-1.141,1.294,3.119,3.119,0,0,1-1.679.455,2.98,2.98,0,0,1-2.338-1.013,3.9,3.9,0,0,1-.9-2.686Zm.8.221a3.284,3.284,0,0,0,.674,2.131,2.275,2.275,0,0,0,3.518,0,3.393,3.393,0,0,0,.671-2.2v-.153a3.685,3.685,0,0,0-.306-1.519,2.463,2.463,0,0,0-.864-1.067,2.2,2.2,0,0,0-1.271-.378,2.14,2.14,0,0,0-1.746.84,3.4,3.4,0,0,0-.676,2.2Z"/><path d="M391.779,420.179a4.36,4.36,0,0,1,.752-2.686,2.423,2.423,0,0,1,2.043-1,2.516,2.516,0,0,1,2.235,1.158V413.59h.8v10.275h-.75l-.033-.963a2.583,2.583,0,0,1-2.261,1.1,2.409,2.409,0,0,1-2.016-1.007,4.371,4.371,0,0,1-.766-2.718Zm.809.141a3.772,3.772,0,0,0,.555,2.183,1.8,1.8,0,0,0,1.566.8,2.155,2.155,0,0,0,2.1-1.305v-3.4a2.137,2.137,0,0,0-2.086-1.411,1.818,1.818,0,0,0-1.573.793A4.028,4.028,0,0,0,392.588,420.32Z"/><path d="M400.607,423.865h-.8V413.59h.8Z"/><path d="M405.586,424a3.142,3.142,0,0,1-1.67-.455,3.073,3.073,0,0,1-1.16-1.267,3.946,3.946,0,0,1-.416-1.823v-.288a4.276,4.276,0,0,1,.406-1.88,3.227,3.227,0,0,1,1.127-1.314,2.787,2.787,0,0,1,1.565-.478,2.615,2.615,0,0,1,2.091.9,3.653,3.653,0,0,1,.772,2.458v.448h-5.164v.154a3.026,3.026,0,0,0,.7,2.05,2.243,2.243,0,0,0,1.777.82,2.607,2.607,0,0,0,1.133-.234,2.506,2.506,0,0,0,.894-.75l.5.382A2.914,2.914,0,0,1,405.586,424Zm-.148-6.823a2,2,0,0,0-1.522.662,3.057,3.057,0,0,0-.752,1.779h4.342v-.086a2.663,2.663,0,0,0-.6-1.7A1.846,1.846,0,0,0,405.438,417.175Z"/><path d="M415.572,419.029l-1.371,1.35v3.486h-.822v-9.74h.822v5.251l4.99-5.251h1.038l-4.081,4.334,4.395,5.406h-1Z"/><path d="M422.7,416.627v8.1a2.2,2.2,0,0,1-.482,1.532,1.821,1.821,0,0,1-1.418.528,2,2,0,0,1-.7-.126l.011-.657a2.1,2.1,0,0,0,.6.087q1.19,0,1.189-1.372v-8.093ZM422.3,414a.521.521,0,0,1,.554.539.523.523,0,0,1-.146.379.542.542,0,0,1-.408.153.521.521,0,0,1-.4-.153.534.534,0,0,1-.144-.379.544.544,0,0,1,.144-.381A.514.514,0,0,1,422.3,414Z"/><path d="M424.516,420.139a4.259,4.259,0,0,1,.406-1.88,3.035,3.035,0,0,1,2.818-1.766,2.975,2.975,0,0,1,2.342,1.013,3.905,3.905,0,0,1,.9,2.687v.167a4.289,4.289,0,0,1-.4,1.889,3.009,3.009,0,0,1-1.14,1.294,3.125,3.125,0,0,1-1.68.455,2.982,2.982,0,0,1-2.338-1.013,3.9,3.9,0,0,1-.9-2.686Zm.8.221a3.284,3.284,0,0,0,.674,2.131,2.275,2.275,0,0,0,3.518,0,3.393,3.393,0,0,0,.672-2.2v-.153a3.685,3.685,0,0,0-.307-1.519,2.468,2.468,0,0,0-.863-1.067,2.2,2.2,0,0,0-1.272-.378,2.14,2.14,0,0,0-1.746.84,3.4,3.4,0,0,0-.676,2.2Zm3.219-6.77h.971l-1.547,1.873-.7,0Z"/><path d="M433.875,414.774v1.853h1.5v.655h-1.5v4.829a1.509,1.509,0,0,0,.217.9.846.846,0,0,0,.726.3,4.9,4.9,0,0,0,.649-.067l.033.65a2.612,2.612,0,0,1-.855.112,1.428,1.428,0,0,1-1.2-.478,2.248,2.248,0,0,1-.375-1.407v-4.831h-1.33v-.655h1.33v-1.853Z"/><path d="M441.367,422.025a1.142,1.142,0,0,0-.478-.956,3.668,3.668,0,0,0-1.442-.566,6.549,6.549,0,0,1-1.5-.468,2,2,0,0,1-.789-.645,1.613,1.613,0,0,1-.258-.924,1.726,1.726,0,0,1,.717-1.414,2.886,2.886,0,0,1,1.832-.559,2.972,2.972,0,0,1,1.943.6,1.919,1.919,0,0,1,.733,1.562h-.8a1.293,1.293,0,0,0-.531-1.057,2.4,2.4,0,0,0-2.609-.07,1.083,1.083,0,0,0-.479.913.991.991,0,0,0,.4.84,4.235,4.235,0,0,0,1.452.544,6.836,6.836,0,0,1,1.58.529,2.046,2.046,0,0,1,.779.676,1.857,1.857,0,0,1-.486,2.421,3.152,3.152,0,0,1-1.93.548,3.24,3.24,0,0,1-2.049-.612,1.881,1.881,0,0,1-.787-1.548h.8a1.391,1.391,0,0,0,.592,1.094,2.415,2.415,0,0,0,1.441.391,2.277,2.277,0,0,0,1.352-.368A1.1,1.1,0,0,0,441.367,422.025Z"/><path d="M445.689,420.219l-.916.883v2.763h-.8V413.59h.8v6.575l.756-.816,2.77-2.722h1.01l-3.071,3.05,3.338,4.188h-.957Z"/><path d="M453.348,424a3.127,3.127,0,0,1-1.668-.455,3.091,3.091,0,0,1-1.162-1.267,3.957,3.957,0,0,1-.414-1.823v-.288a4.261,4.261,0,0,1,.4-1.88,3.227,3.227,0,0,1,1.127-1.314,2.79,2.79,0,0,1,1.566-.478,2.613,2.613,0,0,1,2.09.9,3.643,3.643,0,0,1,.773,2.458v.448H450.9v.154a3.031,3.031,0,0,0,.705,2.05,2.245,2.245,0,0,0,1.776.82,2.616,2.616,0,0,0,1.135-.234,2.5,2.5,0,0,0,.892-.75l.5.382A2.919,2.919,0,0,1,453.348,424Zm-.147-6.823a2,2,0,0,0-1.521.662,3.059,3.059,0,0,0-.754,1.779h4.342v-.086a2.652,2.652,0,0,0-.6-1.7A1.845,1.845,0,0,0,453.2,417.175Zm.889-3.585h.971l-1.545,1.873-.7,0Z"/><path d="M458.42,417.851a2.812,2.812,0,0,1,1.01-1,2.644,2.644,0,0,1,1.343-.355,2.166,2.166,0,0,1,1.733.656,2.952,2.952,0,0,1,.576,1.967v4.749h-.8v-4.756a2.213,2.213,0,0,0-.41-1.446,1.615,1.615,0,0,0-1.3-.474,2.019,2.019,0,0,0-1.314.465,2.717,2.717,0,0,0-.846,1.253v4.958h-.8V413.59h.8Z"/><path d="M464.7,420.139a4.273,4.273,0,0,1,.406-1.88,3.038,3.038,0,0,1,2.819-1.766,2.975,2.975,0,0,1,2.342,1.013,3.91,3.91,0,0,1,.9,2.687v.167a4.3,4.3,0,0,1-.4,1.889,3.018,3.018,0,0,1-1.141,1.294,3.121,3.121,0,0,1-1.679.455,2.98,2.98,0,0,1-2.338-1.013,3.9,3.9,0,0,1-.9-2.686Zm.8.221a3.284,3.284,0,0,0,.674,2.131,2.274,2.274,0,0,0,3.517,0,3.387,3.387,0,0,0,.672-2.2v-.153a3.685,3.685,0,0,0-.306-1.519,2.47,2.47,0,0,0-.864-1.067,2.2,2.2,0,0,0-1.271-.378,2.14,2.14,0,0,0-1.746.84,3.4,3.4,0,0,0-.676,2.2Z"/><path d="M21.428,436.759a4.368,4.368,0,0,1-.749,2.687,2.388,2.388,0,0,1-2.007.993A2.678,2.678,0,0,1,16.4,439.4v3.692h-.8v-10.02h.742l.04,1.023a2.572,2.572,0,0,1,2.268-1.157,2.408,2.408,0,0,1,2.037.983,4.457,4.457,0,0,1,.739,2.73Zm-.8-.141a3.724,3.724,0,0,0-.568-2.187,1.835,1.835,0,0,0-1.586-.8,2.118,2.118,0,0,0-2.073,1.385v3.473a2.123,2.123,0,0,0,.822.949,2.374,2.374,0,0,0,1.265.328,1.815,1.815,0,0,0,1.575-.807A4.05,4.05,0,0,0,20.625,436.618Z"/><path d="M26.546,433.749A3.013,3.013,0,0,0,26,433.7a1.957,1.957,0,0,0-1.267.418A2.284,2.284,0,0,0,24,435.334v4.971h-.8v-7.238h.782l.014,1.15a2.127,2.127,0,0,1,2.04-1.284,1.316,1.316,0,0,1,.528.087Z"/><path d="M27.234,436.578a4.268,4.268,0,0,1,.4-1.879,3.041,3.041,0,0,1,2.819-1.766,2.976,2.976,0,0,1,2.342,1.014,3.9,3.9,0,0,1,.9,2.685v.167a4.31,4.31,0,0,1-.405,1.89,3.025,3.025,0,0,1-1.141,1.295,3.128,3.128,0,0,1-1.679.455,2.979,2.979,0,0,1-2.338-1.014,3.9,3.9,0,0,1-.9-2.685Zm.8.221a3.286,3.286,0,0,0,.672,2.131,2.275,2.275,0,0,0,3.519,0,3.393,3.393,0,0,0,.672-2.2v-.155a3.687,3.687,0,0,0-.308-1.518,2.473,2.473,0,0,0-.862-1.067,2.205,2.205,0,0,0-1.272-.377,2.142,2.142,0,0,0-1.746.838,3.406,3.406,0,0,0-.675,2.2Z"/><path d="M36.593,431.214v1.853h1.5v.655h-1.5v4.829a1.524,1.524,0,0,0,.217.9.846.846,0,0,0,.727.293,4.873,4.873,0,0,0,.648-.066l.033.649a2.585,2.585,0,0,1-.856.114,1.425,1.425,0,0,1-1.2-.479,2.248,2.248,0,0,1-.374-1.408v-4.83H34.459v-.655h1.332v-1.853Z"/><path d="M39.175,436.578a4.255,4.255,0,0,1,.406-1.879,3.038,3.038,0,0,1,2.819-1.766,2.978,2.978,0,0,1,2.342,1.014,3.906,3.906,0,0,1,.9,2.685v.167a4.31,4.31,0,0,1-.405,1.89,3.025,3.025,0,0,1-1.141,1.295,3.127,3.127,0,0,1-1.678.455,2.978,2.978,0,0,1-2.338-1.014,3.9,3.9,0,0,1-.9-2.685Zm.8.221a3.287,3.287,0,0,0,.673,2.131,2.274,2.274,0,0,0,3.518,0,3.387,3.387,0,0,0,.672-2.2v-.155a3.687,3.687,0,0,0-.307-1.518,2.468,2.468,0,0,0-.863-1.067,2.2,2.2,0,0,0-1.271-.377,2.14,2.14,0,0,0-1.746.838,3.406,3.406,0,0,0-.676,2.2Z"/><path d="M49.009,436.659l-.916.883v2.763h-.8V430.03h.8v6.576l.756-.817,2.77-2.722h1.009l-3.07,3.05,3.338,4.188h-.957Z"/><path d="M53.557,436.578a4.268,4.268,0,0,1,.405-1.879,3.041,3.041,0,0,1,2.82-1.766,2.978,2.978,0,0,1,2.342,1.014,3.906,3.906,0,0,1,.9,2.685v.167a4.31,4.31,0,0,1-.405,1.89,3.025,3.025,0,0,1-1.141,1.295,3.128,3.128,0,0,1-1.679.455,2.976,2.976,0,0,1-2.337-1.014,3.9,3.9,0,0,1-.9-2.685Zm.8.221a3.281,3.281,0,0,0,.673,2.131,2.274,2.274,0,0,0,3.518,0,3.387,3.387,0,0,0,.672-2.2v-.155a3.687,3.687,0,0,0-.307-1.518,2.482,2.482,0,0,0-.863-1.067,2.2,2.2,0,0,0-1.271-.377,2.14,2.14,0,0,0-1.746.838,3.4,3.4,0,0,0-.676,2.2Z"/><path d="M62.568,440.305h-.8V430.03h.8Z"/><path d="M69.4,439.388a2.6,2.6,0,0,1-2.308,1.051,2.24,2.24,0,0,1-1.759-.673,2.94,2.94,0,0,1-.616-1.99v-4.709h.8v4.609q0,2.067,1.673,2.066a2.048,2.048,0,0,0,2.2-1.437v-5.238h.8v7.238h-.775Z"/><path d="M72.1,442.124l-.475-.347a2.911,2.911,0,0,0,.629-1.693v-1.037h.783v.836A2.878,2.878,0,0,1,72.1,442.124Z"/><path d="M79.941,436.659l-.916.883v2.763h-.8V430.03h.8v6.576l.756-.817,2.769-2.722h1.01l-3.07,3.05,3.338,4.188h-.957Z"/><path d="M86.175,431.214v1.853h1.5v.655h-1.5v4.829a1.524,1.524,0,0,0,.217.9.846.846,0,0,0,.727.293,4.873,4.873,0,0,0,.648-.066l.033.649a2.585,2.585,0,0,1-.856.114,1.425,1.425,0,0,1-1.2-.479,2.248,2.248,0,0,1-.374-1.408v-4.83H84.042v-.655h1.331v-1.853Z"/><path d="M92.136,440.439a3.145,3.145,0,0,1-1.669-.455,3.1,3.1,0,0,1-1.161-1.268,3.958,3.958,0,0,1-.415-1.823v-.287a4.266,4.266,0,0,1,.405-1.88,3.225,3.225,0,0,1,1.127-1.315,2.782,2.782,0,0,1,1.566-.478,2.617,2.617,0,0,1,2.091.9,3.659,3.659,0,0,1,.772,2.459v.449H89.688v.153a3.03,3.03,0,0,0,.7,2.051,2.247,2.247,0,0,0,1.776.819,2.611,2.611,0,0,0,1.134-.234,2.532,2.532,0,0,0,.894-.749l.5.38A2.918,2.918,0,0,1,92.136,440.439Zm-.147-6.823a2,2,0,0,0-1.522.662,3.052,3.052,0,0,0-.753,1.779h4.342v-.087a2.654,2.654,0,0,0-.6-1.7A1.845,1.845,0,0,0,91.989,433.616Z"/><path d="M99.755,433.749a3.013,3.013,0,0,0-.542-.047,1.957,1.957,0,0,0-1.267.418,2.284,2.284,0,0,0-.739,1.214v4.971h-.8v-7.238h.782l.014,1.15a2.127,2.127,0,0,1,2.04-1.284,1.316,1.316,0,0,1,.528.087Z"/><path d="M103.7,440.439a3.145,3.145,0,0,1-1.669-.455,3.1,3.1,0,0,1-1.161-1.268,3.945,3.945,0,0,1-.415-1.823v-.287a4.252,4.252,0,0,1,.405-1.88,3.21,3.21,0,0,1,1.127-1.315,2.779,2.779,0,0,1,1.565-.478,2.616,2.616,0,0,1,2.091.9,3.654,3.654,0,0,1,.773,2.459v.449h-5.164v.153a3.03,3.03,0,0,0,.7,2.051,2.244,2.244,0,0,0,1.776.819,2.611,2.611,0,0,0,1.134-.234,2.521,2.521,0,0,0,.893-.749l.5.38A2.917,2.917,0,0,1,103.7,440.439Zm-.148-6.823a2,2,0,0,0-1.521.662,3.052,3.052,0,0,0-.753,1.779h4.342v-.087a2.659,2.659,0,0,0-.6-1.7A1.845,1.845,0,0,0,103.548,433.616Zm.89-3.586h.97l-1.545,1.873-.7,0Z"/><path d="M112.064,433.067l.026,1.237a2.879,2.879,0,0,1,1.017-1.02,2.644,2.644,0,0,1,1.345-.351,2.173,2.173,0,0,1,1.732.655,2.957,2.957,0,0,1,.575,1.967v4.75h-.8v-4.757a2.211,2.211,0,0,0-.411-1.444,1.611,1.611,0,0,0-1.3-.476,2.02,2.02,0,0,0-1.314.466,2.727,2.727,0,0,0-.846,1.254v4.957h-.8v-7.238Z"/><path d="M121.629,440.439a3.147,3.147,0,0,1-1.669-.455,3.1,3.1,0,0,1-1.161-1.268,3.958,3.958,0,0,1-.415-1.823v-.287a4.253,4.253,0,0,1,.406-1.88,3.21,3.21,0,0,1,1.127-1.315,2.777,2.777,0,0,1,1.565-.478,2.617,2.617,0,0,1,2.091.9,3.659,3.659,0,0,1,.772,2.459v.449h-5.164v.153a3.035,3.035,0,0,0,.7,2.051,2.248,2.248,0,0,0,1.777.819,2.61,2.61,0,0,0,1.133-.234,2.523,2.523,0,0,0,.894-.749l.5.38A2.917,2.917,0,0,1,121.629,440.439Zm-.147-6.823a2,2,0,0,0-1.522.662,3.045,3.045,0,0,0-.752,1.779h4.341v-.087a2.653,2.653,0,0,0-.6-1.7A1.847,1.847,0,0,0,121.482,433.616Z"/><path d="M126.767,433.067v8.1a2.2,2.2,0,0,1-.481,1.532,1.822,1.822,0,0,1-1.418.529,2,2,0,0,1-.7-.126l.012-.656a2.159,2.159,0,0,0,.6.086q1.191,0,1.19-1.372v-8.093Zm-.394-2.629a.52.52,0,0,1,.555.538.529.529,0,0,1-.147.379.542.542,0,0,1-.408.153.519.519,0,0,1-.4-.153.527.527,0,0,1-.144-.379.539.539,0,0,1,.144-.382A.514.514,0,0,1,126.373,430.438Z"/><path d="M133.363,438.465a1.142,1.142,0,0,0-.478-.957,3.691,3.691,0,0,0-1.442-.564,6.516,6.516,0,0,1-1.5-.469,1.991,1.991,0,0,1-.789-.646,1.6,1.6,0,0,1-.258-.922,1.724,1.724,0,0,1,.716-1.416,2.9,2.9,0,0,1,1.833-.558,2.97,2.97,0,0,1,1.943.6,1.921,1.921,0,0,1,.732,1.562h-.8a1.3,1.3,0,0,0-.531-1.058,2.409,2.409,0,0,0-2.61-.07,1.086,1.086,0,0,0-.478.913.985.985,0,0,0,.4.84,4.225,4.225,0,0,0,1.451.545,6.808,6.808,0,0,1,1.579.529,2.041,2.041,0,0,1,.78.675,1.858,1.858,0,0,1-.486,2.422,3.151,3.151,0,0,1-1.929.549,3.234,3.234,0,0,1-2.05-.613,1.88,1.88,0,0,1-.786-1.548h.8a1.393,1.393,0,0,0,.592,1.093,2.419,2.419,0,0,0,1.442.392,2.278,2.278,0,0,0,1.351-.368A1.1,1.1,0,0,0,133.363,438.465Z"/><path d="M135.523,436.578a4.268,4.268,0,0,1,.405-1.879,3.041,3.041,0,0,1,2.82-1.766,2.976,2.976,0,0,1,2.341,1.014,3.9,3.9,0,0,1,.9,2.685v.167a4.31,4.31,0,0,1-.405,1.89,3.025,3.025,0,0,1-1.141,1.295,3.128,3.128,0,0,1-1.679.455,2.979,2.979,0,0,1-2.338-1.014,3.9,3.9,0,0,1-.9-2.685Zm.8.221A3.281,3.281,0,0,0,137,438.93a2.274,2.274,0,0,0,3.518,0,3.393,3.393,0,0,0,.672-2.2v-.155a3.687,3.687,0,0,0-.308-1.518,2.473,2.473,0,0,0-.862-1.067,2.2,2.2,0,0,0-1.271-.377,2.143,2.143,0,0,0-1.747.838,3.406,3.406,0,0,0-.675,2.2Z"/><path d="M148.293,439.388a2.6,2.6,0,0,1-2.307,1.051,2.241,2.241,0,0,1-1.76-.673,2.945,2.945,0,0,1-.615-1.99v-4.709h.8v4.609q0,2.067,1.673,2.066a2.049,2.049,0,0,0,2.2-1.437v-5.238h.8v7.238h-.776Z"/><path d="M156.75,439.2l2.2-6.134h.822l-2.7,7.238h-.65l-2.715-7.238h.823Z"/><path d="M164.094,436.618a4.363,4.363,0,0,1,.752-2.692,2.43,2.43,0,0,1,2.044-.993,2.517,2.517,0,0,1,2.248,1.178l.04-1.044h.749v7.09a3.064,3.064,0,0,1-.782,2.214,2.8,2.8,0,0,1-2.121.817,3.221,3.221,0,0,1-1.441-.338,2.8,2.8,0,0,1-1.081-.9l.449-.481a2.534,2.534,0,0,0,2.019,1.043,2.054,2.054,0,0,0,1.566-.592,2.358,2.358,0,0,0,.582-1.642v-.91a2.59,2.59,0,0,1-2.242,1.071,2.413,2.413,0,0,1-2.019-1,4.366,4.366,0,0,1-.763-2.709Zm.81.141a3.779,3.779,0,0,0,.554,2.185,1.8,1.8,0,0,0,1.566.8,2.139,2.139,0,0,0,2.094-1.324v-3.364a2.29,2.29,0,0,0-.81-1.061,2.18,2.18,0,0,0-1.27-.365,1.82,1.82,0,0,0-1.573.793A4.03,4.03,0,0,0,164.9,436.759Z"/><path d="M175.36,433.749a3.021,3.021,0,0,0-.542-.047,1.96,1.96,0,0,0-1.268.418,2.3,2.3,0,0,0-.739,1.214v4.971h-.8v-7.238h.782l.014,1.15a2.129,2.129,0,0,1,2.04-1.284,1.312,1.312,0,0,1,.528.087Z"/><path d="M180.924,440.305a3.754,3.754,0,0,1-.153-1.011,2.794,2.794,0,0,1-1.074.847,3.3,3.3,0,0,1-1.381.3,2.434,2.434,0,0,1-1.69-.582,1.9,1.9,0,0,1-.645-1.472,1.938,1.938,0,0,1,.88-1.673,4.226,4.226,0,0,1,2.451-.615h1.452v-.822a1.591,1.591,0,0,0-.478-1.222,1.984,1.984,0,0,0-1.4-.444,2.185,2.185,0,0,0-1.385.427,1.273,1.273,0,0,0-.548,1.031l-.8-.007a1.86,1.86,0,0,1,.8-1.5,3.093,3.093,0,0,1,1.973-.632,2.823,2.823,0,0,1,1.91.605,2.176,2.176,0,0,1,.719,1.69v3.425a4.234,4.234,0,0,0,.221,1.572v.08Zm-2.514-.575a2.684,2.684,0,0,0,1.434-.389,2.28,2.28,0,0,0,.92-1.036v-1.593h-1.431a3.592,3.592,0,0,0-1.874.439,1.315,1.315,0,0,0-.675,1.167,1.292,1.292,0,0,0,.451,1.01A1.7,1.7,0,0,0,178.41,439.73Z"/><path d="M184.27,440.305v-6.583h-1.2v-.655h1.2v-.876a2.38,2.38,0,0,1,.565-1.706,2.068,2.068,0,0,1,1.576-.6,3.089,3.089,0,0,1,.849.113l-.06.663a3.152,3.152,0,0,0-.73-.08,1.313,1.313,0,0,0-1.03.412,1.7,1.7,0,0,0-.367,1.171v.9H186.8v.655h-1.725v6.583Z"/><path d="M192.885,439.388a2.6,2.6,0,0,1-2.307,1.051,2.241,2.241,0,0,1-1.76-.673,2.94,2.94,0,0,1-.615-1.99v-4.709h.8v4.609q0,2.067,1.672,2.066a2.049,2.049,0,0,0,2.2-1.437v-5.238h.8v7.238H192.9Z"/><path d="M199.616,439.629h4.7v.676h-5.693v-.589l4.389-5.954h-4.255v-.695h5.265v.6Z"/><path d="M206.512,433.067l.027,1.237a2.869,2.869,0,0,1,1.016-1.02,2.647,2.647,0,0,1,1.345-.351,2.173,2.173,0,0,1,1.732.655,2.957,2.957,0,0,1,.576,1.967v4.75h-.8v-4.757A2.21,2.21,0,0,0,210,434.1a1.61,1.61,0,0,0-1.294-.476,2.021,2.021,0,0,0-1.315.466,2.727,2.727,0,0,0-.846,1.254v4.957h-.795v-7.238Z"/><path d="M217.843,440.305a3.754,3.754,0,0,1-.153-1.011,2.794,2.794,0,0,1-1.074.847,3.3,3.3,0,0,1-1.381.3,2.434,2.434,0,0,1-1.69-.582,1.9,1.9,0,0,1-.645-1.472,1.938,1.938,0,0,1,.88-1.673,4.226,4.226,0,0,1,2.451-.615h1.452v-.822a1.591,1.591,0,0,0-.478-1.222,1.984,1.984,0,0,0-1.4-.444,2.185,2.185,0,0,0-1.385.427,1.275,1.275,0,0,0-.549,1.031l-.8-.007a1.862,1.862,0,0,1,.8-1.5,3.1,3.1,0,0,1,1.974-.632,2.825,2.825,0,0,1,1.91.605,2.176,2.176,0,0,1,.719,1.69v3.425a4.234,4.234,0,0,0,.221,1.572v.08Zm-2.514-.575a2.684,2.684,0,0,0,1.434-.389,2.28,2.28,0,0,0,.92-1.036v-1.593h-1.432a3.591,3.591,0,0,0-1.873.439,1.315,1.315,0,0,0-.675,1.167,1.292,1.292,0,0,0,.451,1.01A1.7,1.7,0,0,0,215.329,439.73Zm1.578-9.7h.969l-1.544,1.873-.7,0Z"/><path d="M221.142,439.629h4.7v.676h-5.692v-.589l4.389-5.954h-4.255v-.695h5.264v.6Z"/><path d="M226.727,436.578a4.268,4.268,0,0,1,.405-1.879,3.041,3.041,0,0,1,2.82-1.766,2.974,2.974,0,0,1,2.341,1.014,3.9,3.9,0,0,1,.9,2.685v.167a4.31,4.31,0,0,1-.405,1.89,3.025,3.025,0,0,1-1.141,1.295,3.128,3.128,0,0,1-1.679.455,2.979,2.979,0,0,1-2.338-1.014,3.9,3.9,0,0,1-.9-2.685Zm.8.221a3.281,3.281,0,0,0,.673,2.131,2.274,2.274,0,0,0,3.518,0,3.393,3.393,0,0,0,.672-2.2v-.155a3.671,3.671,0,0,0-.308-1.518,2.473,2.473,0,0,0-.862-1.067,2.2,2.2,0,0,0-1.271-.377,2.14,2.14,0,0,0-1.746.838,3.4,3.4,0,0,0-.676,2.2Z"/><path d="M238.187,433.749a3.021,3.021,0,0,0-.542-.047,1.96,1.96,0,0,0-1.268.418,2.3,2.3,0,0,0-.739,1.214v4.971h-.8v-7.238h.783l.013,1.15a2.129,2.129,0,0,1,2.04-1.284,1.318,1.318,0,0,1,.529.087Z"/><path d="M240.213,433.067l.027,1.237a2.869,2.869,0,0,1,1.016-1.02,2.65,2.65,0,0,1,1.345-.351,2.172,2.172,0,0,1,1.732.655,2.957,2.957,0,0,1,.576,1.967v4.75h-.8v-4.757a2.216,2.216,0,0,0-.411-1.444,1.614,1.614,0,0,0-1.295-.476,2.023,2.023,0,0,0-1.315.466,2.718,2.718,0,0,0-.845,1.254v4.957h-.8v-7.238Z"/><path d="M249.78,440.439a3.145,3.145,0,0,1-1.669-.455,3.1,3.1,0,0,1-1.161-1.268,3.945,3.945,0,0,1-.415-1.823v-.287a4.252,4.252,0,0,1,.405-1.88,3.21,3.21,0,0,1,1.127-1.315,2.779,2.779,0,0,1,1.565-.478,2.616,2.616,0,0,1,2.091.9,3.654,3.654,0,0,1,.773,2.459v.449h-5.164v.153a3.03,3.03,0,0,0,.705,2.051,2.244,2.244,0,0,0,1.776.819,2.611,2.611,0,0,0,1.134-.234,2.521,2.521,0,0,0,.893-.749l.5.38A2.917,2.917,0,0,1,249.78,440.439Zm-.148-6.823a2,2,0,0,0-1.521.662,3.052,3.052,0,0,0-.753,1.779H251.7v-.087a2.659,2.659,0,0,0-.6-1.7A1.845,1.845,0,0,0,249.632,433.616Zm.08-2.195,1.151-1.3h.716v.08L250,431.949h-.575l-1.579-1.752v-.074h.716Z"/><path d="M254.817,433.067l.026,1.237a2.879,2.879,0,0,1,1.017-1.02,2.644,2.644,0,0,1,1.345-.351,2.173,2.173,0,0,1,1.732.655,2.957,2.957,0,0,1,.575,1.967v4.75h-.8v-4.757a2.211,2.211,0,0,0-.411-1.444,1.611,1.611,0,0,0-1.3-.476,2.02,2.02,0,0,0-1.314.466,2.727,2.727,0,0,0-.846,1.254v4.957h-.8v-7.238Z"/><path d="M264.382,440.439a3.145,3.145,0,0,1-1.669-.455,3.1,3.1,0,0,1-1.161-1.268,3.958,3.958,0,0,1-.415-1.823v-.287a4.266,4.266,0,0,1,.4-1.88,3.225,3.225,0,0,1,1.127-1.315,2.782,2.782,0,0,1,1.566-.478,2.617,2.617,0,0,1,2.091.9,3.659,3.659,0,0,1,.772,2.459v.449h-5.164v.153a3.03,3.03,0,0,0,.7,2.051,2.248,2.248,0,0,0,1.777.819,2.61,2.61,0,0,0,1.133-.234,2.532,2.532,0,0,0,.894-.749l.5.38A2.918,2.918,0,0,1,264.382,440.439Zm-.147-6.823a2,2,0,0,0-1.522.662,3.052,3.052,0,0,0-.753,1.779H266.3v-.087a2.653,2.653,0,0,0-.6-1.7A1.847,1.847,0,0,0,264.235,433.616Zm.89-3.586h.969l-1.545,1.873-.7,0Z"/><path d="M268.583,439.824a.569.569,0,0,1,.15-.4.541.541,0,0,1,.419-.164.551.551,0,0,1,.421.164.563.563,0,0,1,.154.4.513.513,0,0,1-.154.383.575.575,0,0,1-.421.152.564.564,0,0,1-.419-.152A.518.518,0,0,1,268.583,439.824Z"/><rect class="cls-5" x="172.535" y="47.957" width="16.277" height="16.277"/><line class="cls-6" x1="172.939" y1="47.957" x2="188.428" y2="47.957"/><rect class="cls-7" x="6.567" y="47.957" width="16.277" height="16.277"/><line class="cls-7" x1="6.567" y1="47.957" x2="22.844" y2="47.957"/><path class="cls-8" d="M207.865,59.412h-4.131l-.863,2.484h-1.927l4.028-10.664h1.662L210.67,61.9h-1.933Zm-3.611-1.494h3.091L205.8,53.494Z"/><path class="cls-8" d="M213.6,61.9h-1.779V50.646H213.6Z"/><path class="cls-8" d="M215.2,57.86a4.663,4.663,0,0,1,.462-2.1,3.363,3.363,0,0,1,1.3-1.436,3.652,3.652,0,0,1,1.92-.5,3.462,3.462,0,0,1,2.6,1.033,4.063,4.063,0,0,1,1.08,2.739l.008.418a4.723,4.723,0,0,1-.451,2.095,3.327,3.327,0,0,1-1.289,1.427,3.683,3.683,0,0,1-1.938.506,3.435,3.435,0,0,1-2.684-1.117,4.278,4.278,0,0,1-1.007-2.977Zm1.78.154a3.2,3.2,0,0,0,.5,1.915,1.643,1.643,0,0,0,1.406.692,1.624,1.624,0,0,0,1.4-.7,3.532,3.532,0,0,0,.5-2.058,3.163,3.163,0,0,0-.515-1.905,1.653,1.653,0,0,0-1.4-.7,1.633,1.633,0,0,0-1.384.693A3.46,3.46,0,0,0,216.984,58.014Z"/><path class="cls-8" d="M226.652,58.5l-.791.813V61.9h-1.779V50.646h1.779v6.489l.556-.7,2.19-2.468h2.139l-2.944,3.3,3.259,4.622H229Z"/><path class="cls-8" d="M231.573,57.86a4.663,4.663,0,0,1,.462-2.1,3.359,3.359,0,0,1,1.3-1.436,3.646,3.646,0,0,1,1.919-.5,3.462,3.462,0,0,1,2.6,1.033,4.063,4.063,0,0,1,1.08,2.739l.008.418a4.71,4.71,0,0,1-.451,2.095,3.327,3.327,0,0,1-1.289,1.427,3.68,3.68,0,0,1-1.938.506,3.432,3.432,0,0,1-2.683-1.117,4.274,4.274,0,0,1-1.008-2.977Zm1.78.154a3.2,3.2,0,0,0,.5,1.915,1.644,1.644,0,0,0,1.406.692,1.623,1.623,0,0,0,1.4-.7,3.532,3.532,0,0,0,.5-2.058,3.156,3.156,0,0,0-.515-1.905,1.653,1.653,0,0,0-1.4-.7,1.634,1.634,0,0,0-1.384.693A3.46,3.46,0,0,0,233.353,58.014Z"/><path class="cls-8" d="M243.131,59.64l1.677-5.669h1.839L243.9,61.9h-1.545l-2.769-7.925h1.846Z"/><path class="cls-8" d="M252.381,61.9a2.786,2.786,0,0,1-.205-.74,2.993,2.993,0,0,1-4.027.2,2.177,2.177,0,0,1-.755-1.685,2.25,2.25,0,0,1,.941-1.944,4.566,4.566,0,0,1,2.692-.678h1.091v-.52a1.391,1.391,0,0,0-.344-.985,1.366,1.366,0,0,0-1.047-.37,1.563,1.563,0,0,0-1,.3.937.937,0,0,0-.389.772h-1.779a1.98,1.98,0,0,1,.432-1.22,2.877,2.877,0,0,1,1.175-.889,4.126,4.126,0,0,1,1.659-.323,3.326,3.326,0,0,1,2.219.7,2.5,2.5,0,0,1,.85,1.967v3.574a4.052,4.052,0,0,0,.3,1.706V61.9Zm-1.955-1.282a2.017,2.017,0,0,0,.992-.256,1.715,1.715,0,0,0,.7-.689V58.175h-.959a2.618,2.618,0,0,0-1.487.344,1.113,1.113,0,0,0-.5.974,1.043,1.043,0,0,0,.34.817A1.319,1.319,0,0,0,250.426,60.614Z"/><path class="cls-8" d="M257.414,53.971l.051.915a2.849,2.849,0,0,1,2.307-1.062q2.475,0,2.52,2.834V61.9h-1.78V56.761a1.629,1.629,0,0,0-.326-1.116,1.372,1.372,0,0,0-1.066-.363,1.717,1.717,0,0,0-1.6.974V61.9h-1.779V53.971Z"/><path class="cls-8" d="M267.594,62.042a3.681,3.681,0,0,1-2.743-1.065,3.868,3.868,0,0,1-1.052-2.839v-.22a4.771,4.771,0,0,1,.458-2.12,3.5,3.5,0,0,1,1.286-1.454,3.392,3.392,0,0,1,1.846-.52,3.111,3.111,0,0,1,2.5,1.033,4.369,4.369,0,0,1,.882,2.923V58.5h-5.178a2.383,2.383,0,0,0,.656,1.553,1.966,1.966,0,0,0,1.446.571,2.41,2.41,0,0,0,1.992-.989l.96.916a3.206,3.206,0,0,1-1.271,1.1A4,4,0,0,1,267.594,62.042Zm-.213-6.79a1.5,1.5,0,0,0-1.182.513,2.653,2.653,0,0,0-.575,1.429h3.39v-.132a2.168,2.168,0,0,0-.475-1.352A1.493,1.493,0,0,0,267.381,55.252Zm.4-4.606h2.029l-2.029,2.219-1.428,0Z"/><path class="cls-8" d="M282.829,58.014a4.726,4.726,0,0,1-.835,2.934,2.9,2.9,0,0,1-4.329.237v3.758h-1.78V53.971h1.641l.073.806a2.615,2.615,0,0,1,2.132-.953A2.7,2.7,0,0,1,282,54.905a4.837,4.837,0,0,1,.825,3Zm-1.773-.154a3.3,3.3,0,0,0-.473-1.882,1.532,1.532,0,0,0-1.35-.7,1.636,1.636,0,0,0-1.568.9V59.7a1.652,1.652,0,0,0,1.582.922,1.538,1.538,0,0,0,1.33-.684A3.65,3.65,0,0,0,281.056,57.86Z"/><path class="cls-8" d="M284,57.86a4.676,4.676,0,0,1,.462-2.1,3.372,3.372,0,0,1,1.3-1.436,3.652,3.652,0,0,1,1.92-.5,3.462,3.462,0,0,1,2.6,1.033,4.063,4.063,0,0,1,1.08,2.739l.008.418a4.71,4.71,0,0,1-.452,2.095,3.314,3.314,0,0,1-1.289,1.427,3.676,3.676,0,0,1-1.937.506,3.435,3.435,0,0,1-2.684-1.117A4.274,4.274,0,0,1,284,57.948Zm1.781.154a3.2,3.2,0,0,0,.5,1.915,1.643,1.643,0,0,0,1.406.692,1.625,1.625,0,0,0,1.4-.7,3.532,3.532,0,0,0,.5-2.058,3.163,3.163,0,0,0-.515-1.905,1.653,1.653,0,0,0-1.4-.7,1.636,1.636,0,0,0-1.385.693A3.467,3.467,0,0,0,285.781,58.014Z"/><path class="cls-8" d="M295.558,59.64l1.677-5.669h1.839L296.327,61.9h-1.545l-2.769-7.925h1.846Z"/><path class="cls-8" d="M299.74,57.86a4.663,4.663,0,0,1,.462-2.1,3.359,3.359,0,0,1,1.3-1.436,3.646,3.646,0,0,1,1.919-.5,3.462,3.462,0,0,1,2.6,1.033A4.063,4.063,0,0,1,307.1,57.6l.008.418a4.723,4.723,0,0,1-.451,2.095,3.327,3.327,0,0,1-1.289,1.427,3.68,3.68,0,0,1-1.938.506,3.432,3.432,0,0,1-2.683-1.117,4.274,4.274,0,0,1-1.008-2.977Zm1.78.154a3.2,3.2,0,0,0,.5,1.915,1.644,1.644,0,0,0,1.406.692,1.623,1.623,0,0,0,1.4-.7,3.532,3.532,0,0,0,.5-2.058,3.156,3.156,0,0,0-.515-1.905,1.653,1.653,0,0,0-1.4-.7,1.634,1.634,0,0,0-1.384.693A3.46,3.46,0,0,0,301.52,58.014Z"/><path class="cls-8" d="M310.506,61.9h-1.779V50.646h1.779Z"/><path class="cls-8" d="M315.934,62.042a3.681,3.681,0,0,1-2.743-1.065,3.868,3.868,0,0,1-1.052-2.839v-.22a4.758,4.758,0,0,1,.458-2.12,3.5,3.5,0,0,1,1.286-1.454,3.392,3.392,0,0,1,1.846-.52,3.111,3.111,0,0,1,2.5,1.033,4.369,4.369,0,0,1,.882,2.923V58.5h-5.178a2.387,2.387,0,0,0,.655,1.553,1.97,1.97,0,0,0,1.447.571,2.41,2.41,0,0,0,1.992-.989l.96.916a3.212,3.212,0,0,1-1.271,1.1A4,4,0,0,1,315.934,62.042Zm-.213-6.79a1.5,1.5,0,0,0-1.182.513,2.654,2.654,0,0,0-.576,1.429h3.391v-.132a2.162,2.162,0,0,0-.476-1.352A1.491,1.491,0,0,0,315.721,55.252Z"/><path class="cls-8" d="M322.145,53.971l.052.915a2.848,2.848,0,0,1,2.306-1.062q2.477,0,2.52,2.834V61.9h-1.779V56.761a1.629,1.629,0,0,0-.327-1.116,1.371,1.371,0,0,0-1.066-.363,1.714,1.714,0,0,0-1.6.974V61.9h-1.78V53.971Z"/><path class="cls-8" d="M331.411,58.5l-.791.813V61.9h-1.78V50.646h1.78v6.489l.556-.7,2.19-2.468H335.5l-2.943,3.3L335.82,61.9h-2.058Z"/><path class="cls-8" d="M339.437,59.347l1.611-5.376h1.9L339.8,63.1a2.558,2.558,0,0,1-2.461,2,3.192,3.192,0,0,1-.857-.132V63.58l.338.022a1.737,1.737,0,0,0,1.014-.245,1.631,1.631,0,0,0,.539-.824l.256-.68-2.784-7.882h1.919Z"/><path class="cls-8" d="M349.223,54.773l-2.234-.644.4-1.237,2.212.856-.109-2.516h1.31l-.109,2.56,2.175-.842.4,1.259-2.27.645L352.46,56.8l-1.061.776-1.318-2.109-1.305,2.043-1.068-.747Z"/><path class="cls-9" d="M44.439,56.842a6.545,6.545,0,0,1-.542,2.75,4.087,4.087,0,0,1-1.549,1.816,4.542,4.542,0,0,1-4.629,0,4.141,4.141,0,0,1-1.567-1.8,6.337,6.337,0,0,1-.561-2.7v-.6a6.5,6.5,0,0,1,.553-2.754,4.158,4.158,0,0,1,1.561-1.827,4.245,4.245,0,0,1,2.31-.634,4.289,4.289,0,0,1,2.311.626,4.1,4.1,0,0,1,1.556,1.8,6.466,6.466,0,0,1,.557,2.736Zm-1.853-.557a4.657,4.657,0,0,0-.67-2.716,2.364,2.364,0,0,0-3.78,0,4.577,4.577,0,0,0-.692,2.662v.615a4.626,4.626,0,0,0,.685,2.718,2.206,2.206,0,0,0,1.9.959,2.18,2.18,0,0,0,1.893-.938,4.725,4.725,0,0,0,.663-2.739Z"/><path class="cls-9" d="M48.907,59.64l1.676-5.669h1.839L49.675,61.9H48.13l-2.768-7.925h1.846Z"/><path class="cls-9" d="M56.927,62.042a3.681,3.681,0,0,1-2.743-1.065,3.865,3.865,0,0,1-1.052-2.838v-.22A4.775,4.775,0,0,1,53.59,55.8a3.492,3.492,0,0,1,1.286-1.453,3.392,3.392,0,0,1,1.846-.521,3.112,3.112,0,0,1,2.5,1.034,4.366,4.366,0,0,1,.882,2.922V58.5H54.927a2.383,2.383,0,0,0,.656,1.553,1.966,1.966,0,0,0,1.446.571,2.409,2.409,0,0,0,1.992-.988l.96.915a3.2,3.2,0,0,1-1.271,1.1A4,4,0,0,1,56.927,62.042Zm-.344-10.268,1.069-1.135h1.523v.073l-2.043,2.043h-1.1L54,50.7v-.065h1.509Zm.131,3.479a1.5,1.5,0,0,0-1.182.513,2.65,2.65,0,0,0-.575,1.428h3.39v-.132a2.168,2.168,0,0,0-.475-1.352A1.492,1.492,0,0,0,56.714,55.253Z"/><path class="cls-9" d="M63.562,51.774l1.069-1.135h1.524v.073l-2.044,2.043h-1.1L60.984,50.7v-.065h1.509ZM65.634,55.6a4.394,4.394,0,0,0-.724-.059,1.634,1.634,0,0,0-1.649.938V61.9H61.482V53.971h1.7l.044.887a2.005,2.005,0,0,1,1.787-1.034,1.673,1.673,0,0,1,.63.1Z"/><path class="cls-9" d="M70.111,62.042a3.681,3.681,0,0,1-2.743-1.065,3.865,3.865,0,0,1-1.052-2.838v-.22a4.762,4.762,0,0,1,.458-2.121,3.486,3.486,0,0,1,1.286-1.453,3.392,3.392,0,0,1,1.846-.521,3.112,3.112,0,0,1,2.5,1.034,4.366,4.366,0,0,1,.882,2.922V58.5H68.111a2.382,2.382,0,0,0,.655,1.553,1.967,1.967,0,0,0,1.446.571,2.41,2.41,0,0,0,1.993-.988l.96.915a3.211,3.211,0,0,1-1.271,1.1A4,4,0,0,1,70.111,62.042ZM69.9,55.253a1.5,1.5,0,0,0-1.183.513,2.657,2.657,0,0,0-.575,1.428h3.391v-.132a2.168,2.168,0,0,0-.476-1.352A1.49,1.49,0,0,0,69.9,55.253Z"/><path class="cls-9" d="M76.321,53.971l.052.916a2.847,2.847,0,0,1,2.306-1.063q2.476,0,2.52,2.835V61.9h-1.78V56.762a1.632,1.632,0,0,0-.326-1.117,1.372,1.372,0,0,0-1.066-.363,1.717,1.717,0,0,0-1.6.974V61.9H74.644V53.971Z"/><path class="cls-9" d="M86.5,62.042a3.682,3.682,0,0,1-2.743-1.065,3.865,3.865,0,0,1-1.051-2.838v-.22a4.762,4.762,0,0,1,.458-2.121,3.479,3.479,0,0,1,1.286-1.453,3.389,3.389,0,0,1,1.845-.521,3.112,3.112,0,0,1,2.5,1.034,4.366,4.366,0,0,1,.882,2.922V58.5H84.5a2.383,2.383,0,0,0,.656,1.553,1.967,1.967,0,0,0,1.446.571,2.409,2.409,0,0,0,1.992-.988l.96.915a3.2,3.2,0,0,1-1.27,1.1A4,4,0,0,1,86.5,62.042Zm-.212-6.789a1.5,1.5,0,0,0-1.183.513,2.65,2.65,0,0,0-.575,1.428h3.39v-.132a2.168,2.168,0,0,0-.475-1.352A1.492,1.492,0,0,0,86.29,55.253Zm.4-4.607h2.029l-2.029,2.22-1.428,0Z"/><path class="cls-9" d="M98.287,62.042a3.685,3.685,0,0,1-2.744-1.065,3.865,3.865,0,0,1-1.051-2.838v-.22A4.762,4.762,0,0,1,94.95,55.8a3.479,3.479,0,0,1,1.286-1.453,3.392,3.392,0,0,1,1.846-.521,3.112,3.112,0,0,1,2.5,1.034,4.372,4.372,0,0,1,.881,2.922V58.5H96.287a2.377,2.377,0,0,0,.655,1.553,1.967,1.967,0,0,0,1.446.571,2.406,2.406,0,0,0,1.992-.988l.96.915a3.2,3.2,0,0,1-1.27,1.1A4,4,0,0,1,98.287,62.042Zm-.213-6.789a1.5,1.5,0,0,0-1.183.513,2.65,2.65,0,0,0-.575,1.428h3.391v-.132a2.174,2.174,0,0,0-.476-1.352A1.49,1.49,0,0,0,98.074,55.253Z"/><path class="cls-9" d="M104.52,53.971l.051.828a2.852,2.852,0,0,1,2.285-.975,2.194,2.194,0,0,1,2.176,1.216,2.808,2.808,0,0,1,2.431-1.216,2.474,2.474,0,0,1,1.952.726,3.2,3.2,0,0,1,.656,2.139V61.9h-1.78V56.74a1.579,1.579,0,0,0-.33-1.106,1.445,1.445,0,0,0-1.091-.352,1.483,1.483,0,0,0-.993.326,1.733,1.733,0,0,0-.539.853l.008,5.435h-1.779V56.681a1.27,1.27,0,0,0-1.429-1.4,1.566,1.566,0,0,0-1.516.872V61.9h-1.78V53.971Z"/><path class="cls-9" d="M115.9,51.913a.941.941,0,0,1,.26-.681.978.978,0,0,1,.743-.271.994.994,0,0,1,.747.271.936.936,0,0,1,.264.681.912.912,0,0,1-.264.67,1,1,0,0,1-.747.268.984.984,0,0,1-.743-.268A.917.917,0,0,1,115.9,51.913Zm1.889,9.983h-1.78V53.971h1.78Z"/><path class="cls-9" d="M124.169,59.742a.8.8,0,0,0-.391-.724,4.169,4.169,0,0,0-1.3-.44,6.7,6.7,0,0,1-1.516-.483,2.025,2.025,0,0,1-1.334-1.868,2.109,2.109,0,0,1,.866-1.714,3.411,3.411,0,0,1,2.2-.689,3.557,3.557,0,0,1,2.3.7,2.232,2.232,0,0,1,.875,1.824h-1.78a1.1,1.1,0,0,0-.381-.854,1.46,1.46,0,0,0-1.01-.341,1.572,1.572,0,0,0-.956.272.853.853,0,0,0-.37.725.721.721,0,0,0,.343.637,4.706,4.706,0,0,0,1.393.457,6.625,6.625,0,0,1,1.644.55,2.325,2.325,0,0,1,.886.766,1.951,1.951,0,0,1,.289,1.084,2.062,2.062,0,0,1-.885,1.731,3.778,3.778,0,0,1-2.323.663,4.106,4.106,0,0,1-1.736-.351,2.85,2.85,0,0,1-1.185-.967,2.276,2.276,0,0,1-.426-1.325h1.728a1.252,1.252,0,0,0,.477.969,1.843,1.843,0,0,0,1.164.341,1.805,1.805,0,0,0,1.07-.267A.829.829,0,0,0,124.169,59.742Z"/><path class="cls-9" d="M130.96,62.042a3.682,3.682,0,0,1-2.743-1.065,3.865,3.865,0,0,1-1.051-2.838v-.22a4.762,4.762,0,0,1,.458-2.121,3.479,3.479,0,0,1,1.286-1.453,3.389,3.389,0,0,1,1.845-.521,3.112,3.112,0,0,1,2.5,1.034,4.366,4.366,0,0,1,.882,2.922V58.5H128.96a2.383,2.383,0,0,0,.656,1.553,1.967,1.967,0,0,0,1.446.571,2.409,2.409,0,0,0,1.992-.988l.96.915a3.2,3.2,0,0,1-1.27,1.1A4,4,0,0,1,130.96,62.042Zm-.212-6.789a1.5,1.5,0,0,0-1.183.513,2.65,2.65,0,0,0-.575,1.428h3.39v-.132a2.168,2.168,0,0,0-.475-1.352A1.492,1.492,0,0,0,130.748,55.253Z"/><path d="M12.5,349.272a5.9,5.9,0,0,1-.828,3.424,2.8,2.8,0,0,1-2.439,1.168,2.824,2.824,0,0,1-2.424-1.147,5.689,5.689,0,0,1-.864-3.336v-1.912a5.789,5.789,0,0,1,.835-3.4,2.818,2.818,0,0,1,2.439-1.157,2.832,2.832,0,0,1,2.417,1.117,5.581,5.581,0,0,1,.864,3.292Zm-.879-1.912a5.206,5.206,0,0,0-.6-2.769,1.994,1.994,0,0,0-1.8-.937,2,2,0,0,0-1.787.915,5.035,5.035,0,0,0-.616,2.7v2.094a5.2,5.2,0,0,0,.619,2.791,2.006,2.006,0,0,0,1.8.966,1.973,1.973,0,0,0,1.776-.944,5.209,5.209,0,0,0,.612-2.769Z"/><path d="M12.5,299.909a5.9,5.9,0,0,1-.828,3.424A2.8,2.8,0,0,1,9.229,304.5a2.826,2.826,0,0,1-2.424-1.146,5.689,5.689,0,0,1-.864-3.336v-1.912a5.794,5.794,0,0,1,.835-3.406,2.82,2.82,0,0,1,2.439-1.157,2.832,2.832,0,0,1,2.417,1.117,5.584,5.584,0,0,1,.864,3.292ZM11.617,298a5.2,5.2,0,0,0-.6-2.768,2,2,0,0,0-1.8-.938,2,2,0,0,0-1.787.915,5.039,5.039,0,0,0-.616,2.7V300a5.2,5.2,0,0,0,.619,2.79,2.005,2.005,0,0,0,1.8.967,1.973,1.973,0,0,0,1.776-.944,5.209,5.209,0,0,0,.612-2.769Z"/><path d="M14.334,306.347l-.52-.381a3.19,3.19,0,0,0,.689-1.853v-1.135h.857v.916A3.154,3.154,0,0,1,14.334,306.347Z"/><path d="M17.843,298.891l.52-5.2H23.7v.812H19.117l-.373,3.6a3.471,3.471,0,0,1,2.006-.586,2.967,2.967,0,0,1,2.3.937,3.558,3.558,0,0,1,.857,2.5,3.782,3.782,0,0,1-.835,2.616,2.994,2.994,0,0,1-2.351.929,3.251,3.251,0,0,1-2.256-.776,3.174,3.174,0,0,1-.988-2.175h.842a2.526,2.526,0,0,0,.74,1.651,2.376,2.376,0,0,0,1.662.56,2.078,2.078,0,0,0,1.725-.725,3.224,3.224,0,0,0,.582-2.065,2.781,2.781,0,0,0-.652-1.911,2.249,2.249,0,0,0-1.779-.74,3.359,3.359,0,0,0-1.084.157,2.945,2.945,0,0,0-.974.612Z"/><path d="M10.145,255H9.266v-9.609l-2.9,1.076v-.82L10,244.294h.146Z"/><path d="M14.334,256.988l-.52-.381a3.19,3.19,0,0,0,.689-1.854v-1.135h.857v.916A3.156,3.156,0,0,1,14.334,256.988Z"/><path d="M23.68,250.55a5.908,5.908,0,0,1-.827,3.424,2.8,2.8,0,0,1-2.439,1.168A2.825,2.825,0,0,1,17.989,254a5.687,5.687,0,0,1-.864-3.336v-1.912a5.791,5.791,0,0,1,.835-3.405,2.82,2.82,0,0,1,2.439-1.157,2.832,2.832,0,0,1,2.417,1.117,5.574,5.574,0,0,1,.864,3.292Zm-.879-1.912a5.206,5.206,0,0,0-.6-2.769,1.994,1.994,0,0,0-1.8-.937,2,2,0,0,0-1.787.915,5.029,5.029,0,0,0-.615,2.7v2.095a5.2,5.2,0,0,0,.618,2.79,2.008,2.008,0,0,0,1.8.967,1.973,1.973,0,0,0,1.775-.945,5.2,5.2,0,0,0,.612-2.768Z"/><path d="M10.145,205.634H9.266v-9.609l-2.9,1.076v-.82L10,194.933h.146Z"/><path d="M14.334,207.626l-.52-.381a3.185,3.185,0,0,0,.689-1.853v-1.135h.857v.916A3.153,3.153,0,0,1,14.334,207.626Z"/><path d="M17.843,200.17l.52-5.2H23.7v.812H19.117l-.373,3.6a3.471,3.471,0,0,1,2.006-.586,2.967,2.967,0,0,1,2.3.938,3.558,3.558,0,0,1,.857,2.5,3.778,3.778,0,0,1-.835,2.615,3,3,0,0,1-2.351.93A3.247,3.247,0,0,1,18.465,205a3.172,3.172,0,0,1-.988-2.175h.842a2.529,2.529,0,0,0,.74,1.652,2.376,2.376,0,0,0,1.662.559,2.081,2.081,0,0,0,1.725-.724,3.229,3.229,0,0,0,.582-2.066,2.781,2.781,0,0,0-.652-1.911,2.249,2.249,0,0,0-1.779-.74,3.386,3.386,0,0,0-1.084.157,2.978,2.978,0,0,0-.974.612Z"/><path d="M12.745,156.272H6.065V155.6l3.655-4.146a9.545,9.545,0,0,0,1.26-1.728,2.887,2.887,0,0,0,.352-1.325,2.155,2.155,0,0,0-.594-1.6,2.215,2.215,0,0,0-1.633-.59,2.3,2.3,0,0,0-1.739.689,2.464,2.464,0,0,0-.663,1.787H5.831a3.339,3.339,0,0,1,.407-1.641A2.917,2.917,0,0,1,7.4,145.882a3.44,3.44,0,0,1,1.71-.421,3.22,3.22,0,0,1,2.289.77,2.724,2.724,0,0,1,.824,2.093,3.558,3.558,0,0,1-.466,1.634,12.137,12.137,0,0,1-1.636,2.212l-2.974,3.362h5.6Z"/><path d="M14.334,158.264l-.52-.381a3.19,3.19,0,0,0,.689-1.853V154.9h.857v.916A3.154,3.154,0,0,1,14.334,158.264Z"/><path d="M23.68,151.826a5.908,5.908,0,0,1-.827,3.424,2.8,2.8,0,0,1-2.439,1.168,2.827,2.827,0,0,1-2.425-1.146,5.689,5.689,0,0,1-.864-3.336v-1.912a5.794,5.794,0,0,1,.835-3.406,2.82,2.82,0,0,1,2.439-1.157,2.832,2.832,0,0,1,2.417,1.117,5.576,5.576,0,0,1,.864,3.292Zm-.879-1.912a5.2,5.2,0,0,0-.6-2.768,2,2,0,0,0-1.8-.938,2,2,0,0,0-1.787.915,5.031,5.031,0,0,0-.615,2.7v2.095a5.2,5.2,0,0,0,.618,2.79,2.006,2.006,0,0,0,1.8.967,1.972,1.972,0,0,0,1.775-.944,5.209,5.209,0,0,0,.612-2.769Z"/><path d="M12.781,107.247H6.1v-.673l3.655-4.146a9.61,9.61,0,0,0,1.26-1.729,2.882,2.882,0,0,0,.351-1.325,2.154,2.154,0,0,0-.593-1.6,2.212,2.212,0,0,0-1.633-.59,2.305,2.305,0,0,0-1.74.688,2.469,2.469,0,0,0-.663,1.787H5.867a3.348,3.348,0,0,1,.406-1.64,2.926,2.926,0,0,1,1.158-1.161,3.429,3.429,0,0,1,1.71-.421,3.225,3.225,0,0,1,2.289.769,2.725,2.725,0,0,1,.823,2.094,3.559,3.559,0,0,1-.465,1.634,12.1,12.1,0,0,1-1.637,2.212l-2.973,3.361h5.6Z"/><path d="M14.37,109.24l-.52-.381a3.2,3.2,0,0,0,.689-1.854V105.87H15.4v.916A3.156,3.156,0,0,1,14.37,109.24Z"/><path d="M17.878,101.783l.52-5.2H23.73V97.4H19.153l-.374,3.6a3.484,3.484,0,0,1,2.007-.586,2.967,2.967,0,0,1,2.3.938,3.562,3.562,0,0,1,.857,2.5,3.778,3.778,0,0,1-.835,2.615,3,3,0,0,1-2.351.93,3.245,3.245,0,0,1-2.256-.777,3.172,3.172,0,0,1-.989-2.174h.842a2.538,2.538,0,0,0,.74,1.651,2.379,2.379,0,0,0,1.663.56,2.082,2.082,0,0,0,1.725-.725,3.226,3.226,0,0,0,.582-2.065,2.784,2.784,0,0,0-.652-1.912,2.251,2.251,0,0,0-1.78-.74,3.391,3.391,0,0,0-1.084.157,2.987,2.987,0,0,0-.974.613Z"/><path d="M30.183,99.323l.029,1.289a2.951,2.951,0,0,1,1.1-1.078,3.026,3.026,0,0,1,1.465-.358,2.223,2.223,0,0,1,2.38,1.538,2.974,2.974,0,0,1,1.136-1.139,3.143,3.143,0,0,1,1.567-.4q2.548,0,2.6,2.783v5.288H39.58v-5.222a2.362,2.362,0,0,0-.458-1.575,1.864,1.864,0,0,0-1.468-.512,2.341,2.341,0,0,0-1.6.611A2.167,2.167,0,0,0,35.332,102v5.244h-.879v-5.288a2.174,2.174,0,0,0-.479-1.519,1.91,1.91,0,0,0-1.454-.5,2.209,2.209,0,0,0-1.421.472,2.767,2.767,0,0,0-.879,1.4v5.434h-.879V99.323Z"/><path d="M43.66,107.247h-.879V96h.879Z"/><path d="M45.688,103.212a4.775,4.775,0,0,1,.825-2.941,2.651,2.651,0,0,1,2.237-1.095,2.757,2.757,0,0,1,2.446,1.267V96h.872v11.25h-.82l-.037-1.054a2.833,2.833,0,0,1-2.476,1.2,2.64,2.64,0,0,1-2.208-1.1,4.8,4.8,0,0,1-.839-2.977Zm.887.154a4.129,4.129,0,0,0,.608,2.391,1.966,1.966,0,0,0,1.713.875,2.358,2.358,0,0,0,2.3-1.428v-3.72a2.341,2.341,0,0,0-2.285-1.546,1.989,1.989,0,0,0-1.721.868A4.417,4.417,0,0,0,46.575,103.366Z"/><path d="M54.294,106.72a.626.626,0,0,1,.165-.436.59.59,0,0,1,.458-.179.6.6,0,0,1,.461.179.612.612,0,0,1,.169.436.56.56,0,0,1-.169.421.63.63,0,0,1-.461.165.62.62,0,0,1-.458-.165A.572.572,0,0,1,54.294,106.72Z"/><path d="M62.966,97.294v2.029h1.641v.717H62.966v5.286a1.65,1.65,0,0,0,.239.984.92.92,0,0,0,.794.322,5.4,5.4,0,0,0,.71-.073l.037.712a2.87,2.87,0,0,1-.937.123,1.562,1.562,0,0,1-1.311-.524,2.461,2.461,0,0,1-.411-1.542V100.04H60.63v-.717h1.457V97.294Z"/><path d="M71.521,106.243a2.846,2.846,0,0,1-2.527,1.151,2.446,2.446,0,0,1-1.926-.737,3.218,3.218,0,0,1-.674-2.178V99.323h.872v5.045q0,2.265,1.831,2.264a2.244,2.244,0,0,0,2.409-1.574V99.323h.879v7.924h-.849Z"/><path d="M75.5,99.323l.029,1.354a3.149,3.149,0,0,1,1.114-1.116,2.886,2.886,0,0,1,1.472-.385,2.377,2.377,0,0,1,1.9.718,3.236,3.236,0,0,1,.63,2.153v5.2h-.872V102.04a2.419,2.419,0,0,0-.451-1.582,1.765,1.765,0,0,0-1.417-.52,2.219,2.219,0,0,0-1.439.509,2.981,2.981,0,0,0-.926,1.373v5.427h-.872V99.323Z"/><path d="M94.307,103.922a3.821,3.821,0,0,1-1.2,2.578,3.986,3.986,0,0,1-2.721.894,3.747,3.747,0,0,1-2.1-.594,3.848,3.848,0,0,1-1.41-1.681,5.983,5.983,0,0,1-.506-2.486v-1.384a6.04,6.04,0,0,1,.5-2.519,3.834,3.834,0,0,1,1.432-1.7,3.91,3.91,0,0,1,2.15-.6,3.815,3.815,0,0,1,2.706.923,3.87,3.87,0,0,1,1.154,2.555H93.4A2.713,2.713,0,0,0,90.447,97.2a2.8,2.8,0,0,0-2.311,1.084,4.706,4.706,0,0,0-.861,3v1.3a4.735,4.735,0,0,0,.839,2.946,2.7,2.7,0,0,0,2.267,1.1,2.991,2.991,0,0,0,2.131-.678,3.24,3.24,0,0,0,.886-2.032Z"/><path d="M104.377,102.493a6.164,6.164,0,0,1-.508,2.586,3.888,3.888,0,0,1-1.454,1.714,3.978,3.978,0,0,1-2.183.6,3.787,3.787,0,0,1-3.018-1.337,5.346,5.346,0,0,1-1.15-3.607v-1.1a6.124,6.124,0,0,1,.517-2.581,4.08,4.08,0,0,1,5.808-1.739,3.894,3.894,0,0,1,1.454,1.676,6.025,6.025,0,0,1,.534,2.513Zm-.9-1.156a4.711,4.711,0,0,0-.872-3.017,3.133,3.133,0,0,0-4.757,0,4.748,4.748,0,0,0-.883,3.057v1.113a4.71,4.71,0,0,0,.879,3.007,3.136,3.136,0,0,0,4.776.015,4.839,4.839,0,0,0,.857-3.051Z"/><path d="M109.891,110.325h-4.074v-.568l2.152-2.391a5.1,5.1,0,0,0,.66-.881,1.475,1.475,0,0,0,.181-.7,1.115,1.115,0,0,0-.294-.8,1.032,1.032,0,0,0-.786-.312,1.218,1.218,0,0,0-.916.335,1.28,1.28,0,0,0-.327.933h-.79a1.838,1.838,0,0,1,.553-1.388,2.051,2.051,0,0,1,1.48-.529,1.967,1.967,0,0,1,1.371.455,1.55,1.55,0,0,1,.5,1.21,3.558,3.558,0,0,1-1.169,2.186l-1.666,1.807h3.122Z"/><path d="M118.07,107.394a3.444,3.444,0,0,1-1.828-.5,3.392,3.392,0,0,1-1.27-1.388,4.328,4.328,0,0,1-.454-2V103.2a4.653,4.653,0,0,1,.443-2.058A3.527,3.527,0,0,1,116.2,99.7a3.05,3.05,0,0,1,1.714-.523,2.857,2.857,0,0,1,2.288.985,3.991,3.991,0,0,1,.846,2.692v.49h-5.654v.169a3.317,3.317,0,0,0,.773,2.245,2.457,2.457,0,0,0,1.944.9,2.856,2.856,0,0,0,1.242-.256,2.756,2.756,0,0,0,.978-.821l.549.418A3.2,3.2,0,0,1,118.07,107.394Zm-.161-7.471a2.195,2.195,0,0,0-1.667.725,3.361,3.361,0,0,0-.824,1.949h4.754v-.1a2.912,2.912,0,0,0-.652-1.86A2.018,2.018,0,0,0,117.909,99.923Z"/><path d="M123.548,99.323l.03,1.289a2.949,2.949,0,0,1,1.1-1.078,3.029,3.029,0,0,1,1.465-.358,2.222,2.222,0,0,1,2.38,1.538,2.981,2.981,0,0,1,1.136-1.139,3.143,3.143,0,0,1,1.567-.4q2.549,0,2.6,2.783v5.288h-.879v-5.222a2.362,2.362,0,0,0-.458-1.575,1.863,1.863,0,0,0-1.468-.512,2.341,2.341,0,0,0-1.6.611A2.167,2.167,0,0,0,128.7,102v5.244h-.879v-5.288a2.174,2.174,0,0,0-.479-1.519,1.91,1.91,0,0,0-1.454-.5,2.209,2.209,0,0,0-1.421.472,2.767,2.767,0,0,0-.879,1.4v5.434h-.879V99.323Z"/><path d="M135.992,97.033a.584.584,0,0,1,.161-.417.573.573,0,0,1,.44-.171.584.584,0,0,1,.443.171.608.608,0,0,1,0,.833.6.6,0,0,1-.443.167.585.585,0,0,1-.44-.167A.578.578,0,0,1,135.992,97.033Zm1.033,10.214h-.879V99.323h.879Z"/><path d="M144.151,105.234a1.248,1.248,0,0,0-.523-1.048,4.045,4.045,0,0,0-1.579-.619,7.132,7.132,0,0,1-1.637-.513,2.169,2.169,0,0,1-.864-.707,1.759,1.759,0,0,1-.282-1.01,1.888,1.888,0,0,1,.784-1.55,3.168,3.168,0,0,1,2.007-.611,3.268,3.268,0,0,1,2.128.655,2.108,2.108,0,0,1,.8,1.711h-.879a1.423,1.423,0,0,0-.582-1.158,2.627,2.627,0,0,0-2.856-.076,1.185,1.185,0,0,0-.524,1,1.082,1.082,0,0,0,.436.919,4.615,4.615,0,0,0,1.589.6,7.436,7.436,0,0,1,1.728.578,2.24,2.24,0,0,1,.854.74,2.035,2.035,0,0,1-.531,2.651,3.455,3.455,0,0,1-2.113.6,3.555,3.555,0,0,1-2.245-.67,2.063,2.063,0,0,1-.861-1.7h.879a1.528,1.528,0,0,0,.648,1.2,2.657,2.657,0,0,0,1.579.428,2.487,2.487,0,0,0,1.479-.4A1.207,1.207,0,0,0,144.151,105.234Z"/><path d="M148.421,96.085h1.062l-1.691,2.051-.77,0Zm-.454,11.162h-.879V99.323h.879Z"/><path d="M153.863,108.163h-.8l4.453-11.58h.791Z"/><path d="M164.388,99.323l.029,1.289a2.951,2.951,0,0,1,1.1-1.078,3.029,3.029,0,0,1,1.465-.358,2.223,2.223,0,0,1,2.38,1.538,2.981,2.981,0,0,1,1.136-1.139,3.143,3.143,0,0,1,1.567-.4q2.549,0,2.6,2.783v5.288h-.879v-5.222a2.362,2.362,0,0,0-.458-1.575,1.864,1.864,0,0,0-1.468-.512,2.341,2.341,0,0,0-1.6.611,2.167,2.167,0,0,0-.725,1.454v5.244h-.879v-5.288a2.174,2.174,0,0,0-.479-1.519,1.91,1.91,0,0,0-1.454-.5,2.209,2.209,0,0,0-1.421.472,2.767,2.767,0,0,0-.879,1.4v5.434h-.879V99.323Z"/><path d="M177.865,107.247h-.879V96h.879Z"/><path d="M179.894,103.212a4.774,4.774,0,0,1,.824-2.941,2.651,2.651,0,0,1,2.237-1.095,2.757,2.757,0,0,1,2.446,1.267V96h.872v11.25h-.82l-.037-1.054a2.833,2.833,0,0,1-2.476,1.2,2.64,2.64,0,0,1-2.208-1.1,4.8,4.8,0,0,1-.838-2.977Zm.886.154a4.129,4.129,0,0,0,.608,2.391,1.966,1.966,0,0,0,1.714.875,2.358,2.358,0,0,0,2.3-1.428v-3.72a2.34,2.34,0,0,0-2.285-1.546,1.989,1.989,0,0,0-1.721.868A4.417,4.417,0,0,0,180.78,103.366Z"/><path d="M188.5,106.72a.625.625,0,0,1,.164-.436.59.59,0,0,1,.458-.179.6.6,0,0,1,.461.179.612.612,0,0,1,.169.436.56.56,0,0,1-.169.421.63.63,0,0,1-.461.165.62.62,0,0,1-.458-.165A.571.571,0,0,1,188.5,106.72Z"/><path d="M202.181,103.366a4.77,4.77,0,0,1-.82,2.94,2.61,2.61,0,0,1-2.2,1.088,2.935,2.935,0,0,1-2.491-1.143v4.043H195.8V99.323h.813l.044,1.12a2.814,2.814,0,0,1,2.483-1.267,2.634,2.634,0,0,1,2.23,1.077,4.878,4.878,0,0,1,.809,2.988Zm-.879-.154a4.074,4.074,0,0,0-.622-2.4,2.008,2.008,0,0,0-1.736-.879,2.31,2.31,0,0,0-2.271,1.516v3.8a2.331,2.331,0,0,0,.9,1.04,2.6,2.6,0,0,0,1.384.359,1.988,1.988,0,0,0,1.725-.882A4.437,4.437,0,0,0,201.3,103.212Z"/><path d="M203.639,103.167a4.651,4.651,0,0,1,.443-2.057,3.327,3.327,0,0,1,3.087-1.934,3.26,3.26,0,0,1,2.563,1.109,4.277,4.277,0,0,1,.982,2.941v.183a4.713,4.713,0,0,1-.443,2.07,3.317,3.317,0,0,1-1.249,1.417,3.424,3.424,0,0,1-1.838.5,3.261,3.261,0,0,1-2.56-1.11,4.263,4.263,0,0,1-.985-2.941Zm.879.242a3.594,3.594,0,0,0,.736,2.333,2.49,2.49,0,0,0,3.852,0,3.713,3.713,0,0,0,.736-2.406v-.169a4.027,4.027,0,0,0-.337-1.662,2.7,2.7,0,0,0-.944-1.168,2.417,2.417,0,0,0-1.392-.414,2.345,2.345,0,0,0-1.912.919,3.722,3.722,0,0,0-.739,2.406Z"/><path d="M214.881,106.038l2.41-6.715h.9l-2.959,7.924h-.711l-2.973-7.924h.9Z"/><path d="M219.034,103.167a4.652,4.652,0,0,1,.444-2.057,3.324,3.324,0,0,1,3.086-1.934,3.262,3.262,0,0,1,2.564,1.109,4.281,4.281,0,0,1,.981,2.941v.183a4.713,4.713,0,0,1-.443,2.07,3.3,3.3,0,0,1-1.249,1.417,3.422,3.422,0,0,1-1.838.5,3.259,3.259,0,0,1-2.559-1.11,4.259,4.259,0,0,1-.986-2.941Zm.879.242a3.594,3.594,0,0,0,.736,2.333,2.491,2.491,0,0,0,3.853,0,3.719,3.719,0,0,0,.736-2.406v-.169a4.043,4.043,0,0,0-.337-1.662,2.712,2.712,0,0,0-.945-1.168,2.413,2.413,0,0,0-1.392-.414,2.343,2.343,0,0,0-1.911.919,3.722,3.722,0,0,0-.74,2.406Z"/><path d="M228.9,107.247h-.879V96h.879Z"/><path d="M234.349,107.394a3.444,3.444,0,0,1-1.828-.5,3.4,3.4,0,0,1-1.27-1.388,4.328,4.328,0,0,1-.454-2V103.2a4.653,4.653,0,0,1,.443-2.058,3.535,3.535,0,0,1,1.234-1.44,3.053,3.053,0,0,1,1.714-.523,2.861,2.861,0,0,1,2.289.985,4,4,0,0,1,.846,2.692v.49h-5.655v.169a3.322,3.322,0,0,0,.773,2.245,2.458,2.458,0,0,0,1.945.9,2.852,2.852,0,0,0,1.241-.256,2.756,2.756,0,0,0,.978-.821l.549.418A3.2,3.2,0,0,1,234.349,107.394Zm-.161-7.471a2.195,2.195,0,0,0-1.667.725,3.354,3.354,0,0,0-.823,1.949h4.753v-.1a2.906,2.906,0,0,0-.652-1.86A2.018,2.018,0,0,0,234.188,99.923Z"/><path d="M239.864,99.323l.03,1.354a3.139,3.139,0,0,1,1.113-1.116,2.886,2.886,0,0,1,1.472-.385,2.375,2.375,0,0,1,1.9.718,3.236,3.236,0,0,1,.63,2.153v5.2h-.872V102.04a2.425,2.425,0,0,0-.45-1.582,1.768,1.768,0,0,0-1.417-.52,2.222,2.222,0,0,0-1.44.509,2.981,2.981,0,0,0-.926,1.373v5.427h-.872V99.323Z"/><path d="M250.338,107.394a3.444,3.444,0,0,1-1.828-.5,3.392,3.392,0,0,1-1.27-1.388,4.328,4.328,0,0,1-.454-2V103.2a4.653,4.653,0,0,1,.443-2.058,3.535,3.535,0,0,1,1.234-1.44,3.053,3.053,0,0,1,1.714-.523,2.857,2.857,0,0,1,2.288.985,3.992,3.992,0,0,1,.847,2.692v.49h-5.655v.169a3.322,3.322,0,0,0,.773,2.245,2.458,2.458,0,0,0,1.945.9,2.855,2.855,0,0,0,1.241-.256,2.756,2.756,0,0,0,.978-.821l.549.418A3.2,3.2,0,0,1,250.338,107.394Zm-.161-7.471a2.195,2.195,0,0,0-1.667.725,3.354,3.354,0,0,0-.823,1.949h4.753v-.1a2.906,2.906,0,0,0-.652-1.86A2.018,2.018,0,0,0,250.177,99.923Z"/><path d="M256.9,103.255l-1,.967v3.025h-.879V96h.879v7.2l.828-.893,3.032-2.981h1.106l-3.362,3.339,3.655,4.585h-1.048Z"/><path d="M5.8,19.537V14.864c0-2.85,1.616-4.54,4.313-4.54s4.312,1.69,4.312,4.54v4.673c0,2.85-1.615,4.54-4.312,4.54S5.8,22.387,5.8,19.537Zm5.832,0V14.864c0-1.253-.512-1.918-1.519-1.918s-1.52.665-1.52,1.918v4.673c0,1.254.513,1.919,1.52,1.919S11.629,20.791,11.629,19.537Z"/><path d="M17.178,10.552h2.793l1.2,6.288c.19.969.417,2.6.551,3.7h.075c.134-1.1.362-2.735.552-3.7l1.2-6.288h2.793l-3.153,13.3H20.333Z"/><path d="M36.519,21.285V23.85H29.471v-13.3H36.33v2.564H32.168V15.87H35.95v2.47H32.168v2.945ZM32.036,9.279,30.5,6.676h1.69l.836,1.273.816-1.273h1.692l-1.539,2.6Z"/><path d="M43.911,19.385H42.96V23.85h-2.7v-13.3H44.12c2.64,0,4.2,1.634,4.2,4.426a4.191,4.191,0,0,1-1.843,3.838l2.508,5.034H46.039ZM42.923,9.279l-1.539-2.6h1.691l.836,1.273.817-1.273h1.69l-1.539,2.6Zm.037,7.542h1.122c.95,0,1.462-.646,1.462-1.843,0-1.216-.512-1.862-1.462-1.862H42.96Z"/><path d="M59.205,21.285V23.85H52.157v-13.3h6.858v2.564H54.854V15.87h3.781v2.47H54.854v2.945Z"/><path d="M62.948,10.552h2.66l2.526,5.774c.324.836.627,1.71.949,2.546l.058-.056a45.97,45.97,0,0,1-.38-5.187V10.552H71.42v13.3H68.761L66.519,18.7l-1.2-3.249-.058.058a54.035,54.035,0,0,1,.343,5.642v2.7h-2.66Z"/><path d="M82.726,21.285V23.85H75.678v-13.3h6.859v2.564H78.375V15.87h3.782v2.47H78.375v2.945ZM79.667,9.279H77.882l1.785-2.6h2.147Z"/><path d="M99.217,21.285V23.85H92.169v-13.3h6.859v2.564H94.867V15.87h3.781v2.47H94.867v2.945Z"/><path d="M114.4,10.552v13.3h-2.641V20.582c.076-1.615.133-3.229.209-4.844l-.094-.039-1.2,3.5-.665,1.8H107.35l-.665-1.8-1.2-3.5-.095.039c.057,1.615.133,3.229.19,4.844V23.85h-2.622v-13.3h2.717l2.09,5.034c.266.664.722,1.823.874,2.318h.075c.153-.5.609-1.654.874-2.318l2.09-5.034Z"/><path d="M118.656,10.552h2.7v13.3h-2.7Z"/><path d="M124.792,19.974h2.774c0,1.064.531,1.52,1.387,1.52a1.164,1.164,0,0,0,1.33-1.178c0-2.2-5.206-2.469-5.206-6.516,0-2.032,1.424-3.515,3.876-3.515a3.61,3.61,0,0,1,3.932,3.914h-2.774c0-.874-.4-1.311-1.178-1.311-.7,0-1.12.38-1.12.988,0,2.09,5.281,2.223,5.281,6.459,0,2.185-1.539,3.781-4.179,3.781A3.783,3.783,0,0,1,124.792,19.974Z"/><path d="M143.468,21.285V23.85H136.42v-13.3h6.859v2.564h-4.161V15.87H142.9v2.47h-3.781v2.945Z"/><path d="M152.532,19.784V14.617c0-2.812,1.519-4.332,4.122-4.332,2.66,0,4.141,1.52,4.236,4.332h-2.7c-.076-1.215-.532-1.71-1.558-1.71-.817,0-1.292.532-1.292,1.71v5.167c0,1.14.456,1.672,1.292,1.672,1.045,0,1.52-.494,1.6-1.672h2.7c-.056,2.792-1.595,4.293-4.293,4.293C154.051,24.077,152.532,22.576,152.532,19.784Z"/><path d="M164.008,19.537V14.864c0-2.85,1.616-4.54,4.313-4.54s4.312,1.69,4.312,4.54v4.673c0,2.85-1.615,4.54-4.312,4.54S164.008,22.387,164.008,19.537Zm5.832,0V14.864c0-1.253-.512-1.918-1.519-1.918s-1.52.665-1.52,1.918v4.673c0,1.254.513,1.919,1.52,1.919S169.84,20.791,169.84,19.537Z"/><path d="M175.586,25.246c0-2.459,2.77-3.567,2.77-4.863a.61.61,0,0,0-.609-.676c-.4,0-.643.288-.665.809h-1.418c.066-1.474.808-2.227,2.06-2.227a1.974,1.974,0,0,1,2.127,2.017c0,1.982-2.681,3.3-2.681,4.475h2.714v1.4h-4.3Z"/><path d="M193.1,21.646h-2.811l-.437,2.2h-2.793l3.191-13.3h2.888l3.192,13.3h-2.792Zm-.531-2.565-.3-1.519c-.172-.95-.4-2.565-.532-3.648h-.076c-.133,1.083-.342,2.7-.532,3.648l-.3,1.519Z"/><path d="M210.085,21.646h-2.811l-.437,2.2h-2.793l3.192-13.3h2.888l3.191,13.3h-2.792Zm-.531-2.565-.3-1.519c-.171-.95-.4-2.565-.532-3.648h-.076c-.133,1.083-.342,2.7-.532,3.648l-.3,1.519Z"/><path d="M223.1,21.285V23.85h-6.649v-13.3h2.7V21.285Z"/><path d="M225.914,19.537V14.864c0-2.85,1.615-4.54,4.312-4.54s4.313,1.69,4.313,4.54v4.673c0,2.85-1.616,4.54-4.313,4.54S225.914,22.387,225.914,19.537Zm5.832,0V14.864c0-1.253-.513-1.918-1.52-1.918s-1.519.665-1.519,1.918v4.673c0,1.254.512,1.919,1.519,1.919S231.746,20.791,231.746,19.537Z"/><path d="M241.816,18.816l-.74,1.2V23.85h-2.66v-13.3h2.66v5.091l.683-1.482,1.862-3.609H246.7l-3.382,5.813,3.951,7.485h-3.039Z"/><path d="M249.664,19.537V14.864c0-2.85,1.615-4.54,4.312-4.54s4.313,1.69,4.313,4.54v4.673c0,2.85-1.616,4.54-4.313,4.54S249.664,22.387,249.664,19.537Zm5.832,0V14.864c0-1.253-.513-1.918-1.52-1.918s-1.519.665-1.519,1.918v4.673c0,1.254.512,1.919,1.519,1.919S255.5,20.791,255.5,19.537Z"/><path d="M261.044,10.552h2.793l1.2,6.288c.189.969.417,2.6.55,3.7h.076c.133-1.1.361-2.735.551-3.7l1.2-6.288H270.2l-3.154,13.3H264.2Z"/><path d="M277.612,21.646H274.8l-.436,2.2h-2.793l3.191-13.3h2.888l3.191,13.3h-2.792Zm-.531-2.565-.3-1.519c-.172-.95-.4-2.565-.532-3.648h-.077c-.132,1.083-.341,2.7-.532,3.648l-.3,1.519Z"/><path d="M283.977,10.552h2.66l2.527,5.774c.323.836.627,1.71.949,2.546l.057-.056a45.948,45.948,0,0,1-.379-5.187V10.552h2.659v13.3h-2.659L287.548,18.7l-1.2-3.249-.058.058a54.035,54.035,0,0,1,.343,5.642v2.7h-2.66Z"/><path d="M303.755,21.285V23.85h-7.047v-13.3h6.858v2.564H299.4V15.87h3.781v2.47H299.4v2.945ZM300.7,9.279h-1.785l1.785-2.6h2.146Z"/><path d="M321.444,15.073c0,2.831-1.634,4.5-4.389,4.5H315.9V23.85h-2.7v-13.3h3.856C319.81,10.552,321.444,12.223,321.444,15.073Zm-2.774,0c0-1.291-.57-1.957-1.653-1.957H315.9v3.895h1.121C318.1,17.011,318.67,16.346,318.67,15.073Z"/><path d="M324.674,19.537V14.864c0-2.85,1.616-4.54,4.313-4.54s4.312,1.69,4.312,4.54v4.673c0,2.85-1.615,4.54-4.312,4.54S324.674,22.387,324.674,19.537Zm5.832,0V14.864c0-1.253-.512-1.918-1.519-1.918s-1.52.665-1.52,1.918v4.673c0,1.254.513,1.919,1.52,1.919S330.506,20.791,330.506,19.537Z"/><path d="M336.055,10.552h2.793l1.2,6.288c.19.969.417,2.6.551,3.7h.075c.134-1.1.362-2.735.552-3.7l1.2-6.288h2.793l-3.153,13.3h-2.85Z"/><path d="M347.968,19.537V14.864c0-2.85,1.615-4.54,4.313-4.54s4.312,1.69,4.312,4.54v4.673c0,2.85-1.615,4.54-4.312,4.54S347.968,22.387,347.968,19.537Zm5.832,0V14.864c0-1.253-.512-1.918-1.519-1.918s-1.52.665-1.52,1.918v4.673c0,1.254.513,1.919,1.52,1.919S353.8,20.791,353.8,19.537Z"/><path d="M367.12,21.285V23.85h-6.65v-13.3h2.7V21.285Z"/><path d="M377.36,21.285V23.85h-7.048v-13.3h6.859v2.564H373.01V15.87h3.781v2.47H373.01v2.945Z"/><path d="M381.1,10.552h2.661l2.526,5.774c.323.836.627,1.71.949,2.546l.058-.056a45.737,45.737,0,0,1-.38-5.187V10.552h2.659v13.3h-2.659L384.676,18.7l-1.2-3.249-.057.058a54.035,54.035,0,0,1,.343,5.642v2.7H381.1Z"/><path d="M397.234,18.816l-.74,1.2V23.85h-2.66v-13.3h2.66v5.091l.684-1.482,1.861-3.609h3.078l-3.382,5.813,3.952,7.485h-3.04Z"/><path d="M408.1,19.9l-3.135-9.346h2.793l1.082,3.685c.134.437.437,1.482.57,2.128h.076c.152-.646.456-1.691.608-2.185l1.045-3.628h2.793L410.8,19.9V23.85h-2.7Z"/><g class="cls-10"><g id="patch_47" data-name="patch 47"><path class="cls-11" d="M36.744,357.048H68.656V151.781H36.744Z"/></g><g id="patch_48" data-name="patch 48"><path class="cls-11" d="M68.656,357.048h31.911V153.562H68.656Z"/></g><g id="patch_49" data-name="patch 49"><path class="cls-11" d="M100.567,357.048h31.912V142.2H100.567Z"/></g><g id="patch_50" data-name="patch 50"><path class="cls-11" d="M132.479,357.048h31.912v-197.6H132.479Z"/></g><g id="patch_51" data-name="patch 51"><path class="cls-11" d="M164.391,357.048H196.3V155.657H164.391Z"/></g><g id="patch_52" data-name="patch 52"><path class="cls-11" d="M196.3,357.048h31.912V152.577H196.3Z"/></g><g id="patch_53" data-name="patch 53"><path class="cls-11" d="M228.215,357.048h31.912V150.571H228.215Z"/></g><g id="patch_54" data-name="patch 54"><path class="cls-11" d="M260.127,357.048h31.912V137.017H260.127Z"/></g><g id="patch_55" data-name="patch 55"><path class="cls-11" d="M292.039,357.048h31.912V145.366H292.039Z"/></g><g id="patch_56" data-name="patch 56"><path class="cls-11" d="M323.951,357.048h31.912V199.941H323.951Z"/></g><g id="patch_57" data-name="patch 57"><path class="cls-11" d="M355.863,357.048h31.911V203.757H355.863Z"/></g><g id="patch_58" data-name="patch 58"><path class="cls-11" d="M387.774,357.048h31.912V201.106H387.774Z"/></g><g id="patch_59" data-name="patch 59"><path class="cls-11" d="M419.686,357.048H451.6V182.532H419.686Z"/></g><g id="patch_60" data-name="patch 60"><path class="cls-11" d="M451.6,357.048H483.51V189.9H451.6Z"/></g><g id="patch_61" data-name="patch 61"><path class="cls-11" d="M483.51,357.048h31.912v-132.2H483.51Z"/></g></g></svg>