<?xml version="1.0" encoding="utf-8"?>
<!-- Generator: Adobe Illustrator 27.7.0, SVG Export Plug-In . SVG Version: 6.00 Build 0)  -->
<svg version="1.1" id="Layer_1" xmlns="http://www.w3.org/2000/svg" xmlns:xlink="http://www.w3.org/1999/xlink" x="0px" y="0px"
	 viewBox="0 0 520 363.4" enable-background="new 0 0 520 363.4" xml:space="preserve">
<line fill="none" stroke="#CCCCCC" stroke-width="2" stroke-miterlimit="10" x1="515.7" y1="261.9" x2="515.7" y2="334.3"/>
<g>
	<g>
		<path d="M41.7,355.1h-6.7v-0.7l3.7-4.1c0.6-0.7,1-1.3,1.3-1.7s0.4-0.9,0.4-1.3c0-0.7-0.2-1.2-0.6-1.6c-0.4-0.4-0.9-0.6-1.6-0.6
			c-0.7,0-1.3,0.2-1.7,0.7c-0.4,0.5-0.7,1.1-0.7,1.8h-0.9c0-0.6,0.1-1.1,0.4-1.6c0.3-0.5,0.7-0.9,1.2-1.2c0.5-0.3,1.1-0.4,1.7-0.4
			c1,0,1.7,0.3,2.3,0.8c0.5,0.5,0.8,1.2,0.8,2.1c0,0.5-0.2,1-0.5,1.6c-0.3,0.6-0.9,1.3-1.6,2.2l-3,3.4h5.6V355.1z"/>
		<path d="M49.8,350.7c0,1.5-0.3,2.6-0.8,3.4c-0.6,0.8-1.4,1.2-2.4,1.2c-1.1,0-1.9-0.4-2.4-1.1c-0.6-0.8-0.8-1.9-0.9-3.3v-1.9
			c0-1.5,0.3-2.6,0.8-3.4s1.4-1.2,2.4-1.2c1.1,0,1.9,0.4,2.4,1.1c0.6,0.7,0.8,1.8,0.9,3.3V350.7z M48.9,348.7c0-1.2-0.2-2.1-0.6-2.8
			c-0.4-0.6-1-0.9-1.8-0.9c-0.8,0-1.4,0.3-1.8,0.9c-0.4,0.6-0.6,1.5-0.6,2.7v2.1c0,1.2,0.2,2.1,0.6,2.8c0.4,0.6,1,1,1.8,1
			c0.8,0,1.4-0.3,1.8-0.9c0.4-0.6,0.6-1.6,0.6-2.8V348.7z"/>
		<path d="M55.8,355.1h-0.9v-9.6l-2.9,1.1v-0.8l3.6-1.3h0.1V355.1z"/>
		<path d="M61.9,349.3h0.9c0.5,0,0.9-0.1,1.3-0.3c0.4-0.2,0.7-0.4,0.9-0.7c0.2-0.3,0.3-0.7,0.3-1.1c0-0.7-0.2-1.2-0.6-1.6
			s-0.9-0.6-1.7-0.6c-0.7,0-1.2,0.2-1.7,0.6c-0.4,0.4-0.7,0.9-0.7,1.6h-0.9c0-0.6,0.1-1.1,0.4-1.5c0.3-0.5,0.7-0.8,1.2-1.1
			c0.5-0.2,1-0.4,1.6-0.4c1,0,1.7,0.3,2.3,0.8s0.8,1.2,0.8,2.2c0,0.5-0.2,1-0.5,1.4c-0.3,0.4-0.8,0.8-1.3,1c0.7,0.2,1.2,0.5,1.5,1
			c0.3,0.5,0.5,1,0.5,1.6c0,0.9-0.3,1.6-0.9,2.2s-1.4,0.8-2.4,0.8c-0.6,0-1.2-0.1-1.7-0.4c-0.5-0.3-0.9-0.6-1.2-1.1
			c-0.3-0.5-0.4-1-0.4-1.6h0.9c0,0.7,0.2,1.2,0.7,1.7c0.5,0.4,1.1,0.6,1.8,0.6c0.8,0,1.3-0.2,1.8-0.6c0.4-0.4,0.6-1,0.6-1.7
			c0-0.7-0.2-1.3-0.7-1.6c-0.5-0.4-1.1-0.6-2-0.6h-0.9V349.3z"/>
	</g>
</g>
<g>
	<g>
		<path d="M95,355.1h-6.7v-0.7l3.7-4.1c0.6-0.7,1-1.3,1.3-1.7s0.4-0.9,0.4-1.3c0-0.7-0.2-1.2-0.6-1.6c-0.4-0.4-0.9-0.6-1.6-0.6
			c-0.7,0-1.3,0.2-1.7,0.7c-0.4,0.5-0.7,1.1-0.7,1.8H88c0-0.6,0.1-1.1,0.4-1.6c0.3-0.5,0.7-0.9,1.2-1.2c0.5-0.3,1.1-0.4,1.7-0.4
			c1,0,1.7,0.3,2.3,0.8c0.5,0.5,0.8,1.2,0.8,2.1c0,0.5-0.2,1-0.5,1.6c-0.3,0.6-0.9,1.3-1.6,2.2l-3,3.4H95V355.1z"/>
		<path d="M103,350.7c0,1.5-0.3,2.6-0.8,3.4c-0.6,0.8-1.4,1.2-2.4,1.2c-1.1,0-1.9-0.4-2.4-1.1c-0.6-0.8-0.8-1.9-0.9-3.3v-1.9
			c0-1.5,0.3-2.6,0.8-3.4s1.4-1.2,2.4-1.2c1.1,0,1.9,0.4,2.4,1.1c0.6,0.7,0.8,1.8,0.9,3.3V350.7z M102.1,348.7
			c0-1.2-0.2-2.1-0.6-2.8c-0.4-0.6-1-0.9-1.8-0.9c-0.8,0-1.4,0.3-1.8,0.9c-0.4,0.6-0.6,1.5-0.6,2.7v2.1c0,1.2,0.2,2.1,0.6,2.8
			c0.4,0.6,1,1,1.8,1c0.8,0,1.4-0.3,1.8-0.9c0.4-0.6,0.6-1.6,0.6-2.8V348.7z"/>
		<path d="M109,355.1h-0.9v-9.6l-2.9,1.1v-0.8l3.6-1.3h0.1V355.1z"/>
		<path d="M113.8,349.6l0.5-5.2h5.3v0.8h-4.6l-0.4,3.6c0.6-0.4,1.2-0.6,2-0.6c1,0,1.7,0.3,2.3,0.9c0.6,0.6,0.9,1.5,0.9,2.5
			c0,1.1-0.3,2-0.8,2.6s-1.3,0.9-2.4,0.9c-0.9,0-1.7-0.3-2.3-0.8s-0.9-1.2-1-2.2h0.8c0.1,0.7,0.3,1.3,0.7,1.7c0.4,0.4,1,0.6,1.7,0.6
			c0.8,0,1.3-0.2,1.7-0.7c0.4-0.5,0.6-1.2,0.6-2.1c0-0.8-0.2-1.4-0.7-1.9c-0.4-0.5-1-0.7-1.8-0.7c-0.4,0-0.8,0.1-1.1,0.2
			c-0.3,0.1-0.6,0.3-1,0.6L113.8,349.6z"/>
	</g>
</g>
<g>
	<g>
		<path d="M148.2,355.1h-6.7v-0.7l3.7-4.1c0.6-0.7,1-1.3,1.3-1.7s0.4-0.9,0.4-1.3c0-0.7-0.2-1.2-0.6-1.6c-0.4-0.4-0.9-0.6-1.6-0.6
			c-0.7,0-1.3,0.2-1.7,0.7c-0.4,0.5-0.7,1.1-0.7,1.8h-0.9c0-0.6,0.1-1.1,0.4-1.6c0.3-0.5,0.7-0.9,1.2-1.2c0.5-0.3,1.1-0.4,1.7-0.4
			c1,0,1.7,0.3,2.3,0.8c0.5,0.5,0.8,1.2,0.8,2.1c0,0.5-0.2,1-0.5,1.6c-0.3,0.6-0.9,1.3-1.6,2.2l-3,3.4h5.6V355.1z"/>
		<path d="M156.2,350.7c0,1.5-0.3,2.6-0.8,3.4c-0.6,0.8-1.4,1.2-2.4,1.2c-1.1,0-1.9-0.4-2.4-1.1c-0.6-0.8-0.8-1.9-0.9-3.3v-1.9
			c0-1.5,0.3-2.6,0.8-3.4s1.4-1.2,2.4-1.2c1.1,0,1.9,0.4,2.4,1.1c0.6,0.7,0.8,1.8,0.9,3.3V350.7z M155.4,348.7
			c0-1.2-0.2-2.1-0.6-2.8c-0.4-0.6-1-0.9-1.8-0.9c-0.8,0-1.4,0.3-1.8,0.9c-0.4,0.6-0.6,1.5-0.6,2.7v2.1c0,1.2,0.2,2.1,0.6,2.8
			c0.4,0.6,1,1,1.8,1c0.8,0,1.4-0.3,1.8-0.9c0.4-0.6,0.6-1.6,0.6-2.8V348.7z"/>
		<path d="M162.2,355.1h-0.9v-9.6l-2.9,1.1v-0.8l3.6-1.3h0.1V355.1z"/>
		<path d="M173,344.9l-4.6,10.2h-0.9l4.5-9.9H166v-0.7h7V344.9z"/>
	</g>
</g>
<g>
	<g>
		<path d="M201.4,355.1h-6.7v-0.7l3.7-4.1c0.6-0.7,1-1.3,1.3-1.7s0.4-0.9,0.4-1.3c0-0.7-0.2-1.2-0.6-1.6c-0.4-0.4-0.9-0.6-1.6-0.6
			c-0.7,0-1.3,0.2-1.7,0.7c-0.4,0.5-0.7,1.1-0.7,1.8h-0.9c0-0.6,0.1-1.1,0.4-1.6c0.3-0.5,0.7-0.9,1.2-1.2c0.5-0.3,1.1-0.4,1.7-0.4
			c1,0,1.7,0.3,2.3,0.8c0.5,0.5,0.8,1.2,0.8,2.1c0,0.5-0.2,1-0.5,1.6c-0.3,0.6-0.9,1.3-1.6,2.2l-3,3.4h5.6V355.1z"/>
		<path d="M209.5,350.7c0,1.5-0.3,2.6-0.8,3.4c-0.6,0.8-1.4,1.2-2.4,1.2c-1.1,0-1.9-0.4-2.4-1.1c-0.6-0.8-0.8-1.9-0.9-3.3v-1.9
			c0-1.5,0.3-2.6,0.8-3.4s1.4-1.2,2.4-1.2c1.1,0,1.9,0.4,2.4,1.1c0.6,0.7,0.8,1.8,0.9,3.3V350.7z M208.6,348.7
			c0-1.2-0.2-2.1-0.6-2.8c-0.4-0.6-1-0.9-1.8-0.9c-0.8,0-1.4,0.3-1.8,0.9c-0.4,0.6-0.6,1.5-0.6,2.7v2.1c0,1.2,0.2,2.1,0.6,2.8
			c0.4,0.6,1,1,1.8,1c0.8,0,1.4-0.3,1.8-0.9c0.4-0.6,0.6-1.6,0.6-2.8V348.7z"/>
		<path d="M215.4,355.1h-0.9v-9.6l-2.9,1.1v-0.8l3.6-1.3h0.1V355.1z"/>
		<path d="M225.1,350.2c-0.3,0.5-0.7,0.8-1.2,1.1c-0.5,0.3-1,0.4-1.5,0.4c-0.6,0-1.1-0.2-1.6-0.5c-0.5-0.3-0.8-0.7-1.1-1.3
			c-0.3-0.6-0.4-1.2-0.4-1.8c0-0.7,0.1-1.3,0.4-1.9c0.3-0.6,0.6-1,1.1-1.3c0.5-0.3,1-0.5,1.7-0.5c1.1,0,1.9,0.4,2.5,1.1
			c0.6,0.8,0.9,1.8,0.9,3.2v0.8c0,1.9-0.4,3.4-1.2,4.3s-2.1,1.4-3.8,1.4h-0.2l0-0.8h0.3c1.3,0,2.2-0.4,2.9-1.1
			C224.7,352.6,225.1,351.6,225.1,350.2z M222.6,350.8c0.6,0,1.1-0.2,1.6-0.5c0.5-0.3,0.8-0.8,1-1.4v-0.5c0-1.1-0.2-1.9-0.7-2.5
			c-0.5-0.6-1.1-0.9-1.8-0.9c-0.7,0-1.3,0.3-1.7,0.8s-0.7,1.3-0.7,2.1c0,0.8,0.2,1.5,0.6,2C221.3,350.6,221.9,350.8,222.6,350.8z"/>
	</g>
</g>
<g>
	<g>
		<path d="M254.6,355.1h-6.7v-0.7l3.7-4.1c0.6-0.7,1-1.3,1.3-1.7s0.4-0.9,0.4-1.3c0-0.7-0.2-1.2-0.6-1.6c-0.4-0.4-0.9-0.6-1.6-0.6
			c-0.7,0-1.3,0.2-1.7,0.7c-0.4,0.5-0.7,1.1-0.7,1.8h-0.9c0-0.6,0.1-1.1,0.4-1.6c0.3-0.5,0.7-0.9,1.2-1.2c0.5-0.3,1.1-0.4,1.7-0.4
			c1,0,1.7,0.3,2.3,0.8c0.5,0.5,0.8,1.2,0.8,2.1c0,0.5-0.2,1-0.5,1.6c-0.3,0.6-0.9,1.3-1.6,2.2l-3,3.4h5.6V355.1z"/>
		<path d="M262.7,350.7c0,1.5-0.3,2.6-0.8,3.4c-0.6,0.8-1.4,1.2-2.4,1.2c-1.1,0-1.9-0.4-2.4-1.1c-0.6-0.8-0.8-1.9-0.9-3.3v-1.9
			c0-1.5,0.3-2.6,0.8-3.4s1.4-1.2,2.4-1.2c1.1,0,1.9,0.4,2.4,1.1c0.6,0.7,0.8,1.8,0.9,3.3V350.7z M261.8,348.7
			c0-1.2-0.2-2.1-0.6-2.8c-0.4-0.6-1-0.9-1.8-0.9c-0.8,0-1.4,0.3-1.8,0.9c-0.4,0.6-0.6,1.5-0.6,2.7v2.1c0,1.2,0.2,2.1,0.6,2.8
			c0.4,0.6,1,1,1.8,1c0.8,0,1.4-0.3,1.8-0.9c0.4-0.6,0.6-1.6,0.6-2.8V348.7z"/>
		<path d="M271.2,355.1h-6.7v-0.7l3.7-4.1c0.6-0.7,1-1.3,1.3-1.7s0.4-0.9,0.4-1.3c0-0.7-0.2-1.2-0.6-1.6c-0.4-0.4-0.9-0.6-1.6-0.6
			c-0.7,0-1.3,0.2-1.7,0.7c-0.4,0.5-0.7,1.1-0.7,1.8h-0.9c0-0.6,0.1-1.1,0.4-1.6c0.3-0.5,0.7-0.9,1.2-1.2c0.5-0.3,1.1-0.4,1.7-0.4
			c1,0,1.7,0.3,2.3,0.8c0.5,0.5,0.8,1.2,0.8,2.1c0,0.5-0.2,1-0.5,1.6c-0.3,0.6-0.9,1.3-1.6,2.2l-3,3.4h5.6V355.1z"/>
		<path d="M277,355.1h-0.9v-9.6l-2.9,1.1v-0.8l3.6-1.3h0.1V355.1z"/>
	</g>
</g>
<g>
	<g>
		<path d="M307.8,355.1h-6.7v-0.7l3.7-4.1c0.6-0.7,1-1.3,1.3-1.7s0.4-0.9,0.4-1.3c0-0.7-0.2-1.2-0.6-1.6c-0.4-0.4-0.9-0.6-1.6-0.6
			c-0.7,0-1.3,0.2-1.7,0.7c-0.4,0.5-0.7,1.1-0.7,1.8h-0.9c0-0.6,0.1-1.1,0.4-1.6c0.3-0.5,0.7-0.9,1.2-1.2c0.5-0.3,1.1-0.4,1.7-0.4
			c1,0,1.7,0.3,2.3,0.8c0.5,0.5,0.8,1.2,0.8,2.1c0,0.5-0.2,1-0.5,1.6c-0.3,0.6-0.9,1.3-1.6,2.2l-3,3.4h5.6V355.1z"/>
		<path d="M315.9,350.7c0,1.5-0.3,2.6-0.8,3.4c-0.6,0.8-1.4,1.2-2.4,1.2c-1.1,0-1.9-0.4-2.4-1.1c-0.6-0.8-0.8-1.9-0.9-3.3v-1.9
			c0-1.5,0.3-2.6,0.8-3.4s1.4-1.2,2.4-1.2c1.1,0,1.9,0.4,2.4,1.1c0.6,0.7,0.8,1.8,0.9,3.3V350.7z M315,348.7c0-1.2-0.2-2.1-0.6-2.8
			c-0.4-0.6-1-0.9-1.8-0.9c-0.8,0-1.4,0.3-1.8,0.9c-0.4,0.6-0.6,1.5-0.6,2.7v2.1c0,1.2,0.2,2.1,0.6,2.8c0.4,0.6,1,1,1.8,1
			c0.8,0,1.4-0.3,1.8-0.9c0.4-0.6,0.6-1.6,0.6-2.8V348.7z"/>
		<path d="M324.5,355.1h-6.7v-0.7l3.7-4.1c0.6-0.7,1-1.3,1.3-1.7s0.4-0.9,0.4-1.3c0-0.7-0.2-1.2-0.6-1.6c-0.4-0.4-0.9-0.6-1.6-0.6
			c-0.7,0-1.3,0.2-1.7,0.7c-0.4,0.5-0.7,1.1-0.7,1.8h-0.9c0-0.6,0.1-1.1,0.4-1.6c0.3-0.5,0.7-0.9,1.2-1.2c0.5-0.3,1.1-0.4,1.7-0.4
			c1,0,1.7,0.3,2.3,0.8c0.5,0.5,0.8,1.2,0.8,2.1c0,0.5-0.2,1-0.5,1.6c-0.3,0.6-0.9,1.3-1.6,2.2l-3,3.4h5.6V355.1z"/>
		<path d="M328,349.3h0.9c0.5,0,0.9-0.1,1.3-0.3c0.4-0.2,0.7-0.4,0.9-0.7c0.2-0.3,0.3-0.7,0.3-1.1c0-0.7-0.2-1.2-0.6-1.6
			s-0.9-0.6-1.7-0.6c-0.7,0-1.2,0.2-1.7,0.6c-0.4,0.4-0.7,0.9-0.7,1.6H326c0-0.6,0.1-1.1,0.4-1.5c0.3-0.5,0.7-0.8,1.2-1.1
			c0.5-0.2,1-0.4,1.6-0.4c1,0,1.7,0.3,2.3,0.8s0.8,1.2,0.8,2.2c0,0.5-0.2,1-0.5,1.4c-0.3,0.4-0.8,0.8-1.3,1c0.7,0.2,1.2,0.5,1.5,1
			c0.3,0.5,0.5,1,0.5,1.6c0,0.9-0.3,1.6-0.9,2.2s-1.4,0.8-2.4,0.8c-0.6,0-1.2-0.1-1.7-0.4c-0.5-0.3-0.9-0.6-1.2-1.1
			c-0.3-0.5-0.4-1-0.4-1.6h0.9c0,0.7,0.2,1.2,0.7,1.7c0.5,0.4,1.1,0.6,1.8,0.6c0.8,0,1.3-0.2,1.8-0.6c0.4-0.4,0.6-1,0.6-1.7
			c0-0.7-0.2-1.3-0.7-1.6c-0.5-0.4-1.1-0.6-2-0.6H328V349.3z"/>
	</g>
</g>
<g>
	<g>
		<path d="M361.1,355.1h-6.7v-0.7l3.7-4.1c0.6-0.7,1-1.3,1.3-1.7s0.4-0.9,0.4-1.3c0-0.7-0.2-1.2-0.6-1.6c-0.4-0.4-0.9-0.6-1.6-0.6
			c-0.7,0-1.3,0.2-1.7,0.7c-0.4,0.5-0.7,1.1-0.7,1.8h-0.9c0-0.6,0.1-1.1,0.4-1.6c0.3-0.5,0.7-0.9,1.2-1.2c0.5-0.3,1.1-0.4,1.7-0.4
			c1,0,1.7,0.3,2.3,0.8c0.5,0.5,0.8,1.2,0.8,2.1c0,0.5-0.2,1-0.5,1.6c-0.3,0.6-0.9,1.3-1.6,2.2l-3,3.4h5.6V355.1z"/>
		<path d="M369.1,350.7c0,1.5-0.3,2.6-0.8,3.4c-0.6,0.8-1.4,1.2-2.4,1.2c-1.1,0-1.9-0.4-2.4-1.1c-0.6-0.8-0.8-1.9-0.9-3.3v-1.9
			c0-1.5,0.3-2.6,0.8-3.4s1.4-1.2,2.4-1.2c1.1,0,1.9,0.4,2.4,1.1c0.6,0.7,0.8,1.8,0.9,3.3V350.7z M368.2,348.7
			c0-1.2-0.2-2.1-0.6-2.8c-0.4-0.6-1-0.9-1.8-0.9c-0.8,0-1.4,0.3-1.8,0.9c-0.4,0.6-0.6,1.5-0.6,2.7v2.1c0,1.2,0.2,2.1,0.6,2.8
			c0.4,0.6,1,1,1.8,1c0.8,0,1.4-0.3,1.8-0.9c0.4-0.6,0.6-1.6,0.6-2.8V348.7z"/>
		<path d="M377.7,355.1H371v-0.7l3.7-4.1c0.6-0.7,1-1.3,1.3-1.7s0.4-0.9,0.4-1.3c0-0.7-0.2-1.2-0.6-1.6c-0.4-0.4-0.9-0.6-1.6-0.6
			c-0.7,0-1.3,0.2-1.7,0.7c-0.4,0.5-0.7,1.1-0.7,1.8h-0.9c0-0.6,0.1-1.1,0.4-1.6c0.3-0.5,0.7-0.9,1.2-1.2c0.5-0.3,1.1-0.4,1.7-0.4
			c1,0,1.7,0.3,2.3,0.8c0.5,0.5,0.8,1.2,0.8,2.1c0,0.5-0.2,1-0.5,1.6c-0.3,0.6-0.9,1.3-1.6,2.2l-3,3.4h5.6V355.1z"/>
		<path d="M379.9,349.6l0.5-5.2h5.3v0.8h-4.6l-0.4,3.6c0.6-0.4,1.2-0.6,2-0.6c1,0,1.7,0.3,2.3,0.9c0.6,0.6,0.9,1.5,0.9,2.5
			c0,1.1-0.3,2-0.8,2.6s-1.3,0.9-2.4,0.9c-0.9,0-1.7-0.3-2.3-0.8s-0.9-1.2-1-2.2h0.8c0.1,0.7,0.3,1.3,0.7,1.7c0.4,0.4,1,0.6,1.7,0.6
			c0.8,0,1.3-0.2,1.7-0.7c0.4-0.5,0.6-1.2,0.6-2.1c0-0.8-0.2-1.4-0.7-1.9c-0.4-0.5-1-0.7-1.8-0.7c-0.4,0-0.8,0.1-1.1,0.2
			c-0.3,0.1-0.6,0.3-1,0.6L379.9,349.6z"/>
	</g>
</g>
<g>
	<g>
		<path d="M414.3,355.1h-6.7v-0.7l3.7-4.1c0.6-0.7,1-1.3,1.3-1.7s0.4-0.9,0.4-1.3c0-0.7-0.2-1.2-0.6-1.6c-0.4-0.4-0.9-0.6-1.6-0.6
			c-0.7,0-1.3,0.2-1.7,0.7c-0.4,0.5-0.7,1.1-0.7,1.8h-0.9c0-0.6,0.1-1.1,0.4-1.6c0.3-0.5,0.7-0.9,1.2-1.2c0.5-0.3,1.1-0.4,1.7-0.4
			c1,0,1.7,0.3,2.3,0.8c0.5,0.5,0.8,1.2,0.8,2.1c0,0.5-0.2,1-0.5,1.6c-0.3,0.6-0.9,1.3-1.6,2.2l-3,3.4h5.6V355.1z"/>
		<path d="M422.3,350.7c0,1.5-0.3,2.6-0.8,3.4c-0.6,0.8-1.4,1.2-2.4,1.2c-1.1,0-1.9-0.4-2.4-1.1c-0.6-0.8-0.8-1.9-0.9-3.3v-1.9
			c0-1.5,0.3-2.6,0.8-3.4s1.4-1.2,2.4-1.2c1.1,0,1.9,0.4,2.4,1.1c0.6,0.7,0.8,1.8,0.9,3.3V350.7z M421.5,348.7
			c0-1.2-0.2-2.1-0.6-2.8c-0.4-0.6-1-0.9-1.8-0.9c-0.8,0-1.4,0.3-1.8,0.9c-0.4,0.6-0.6,1.5-0.6,2.7v2.1c0,1.2,0.2,2.1,0.6,2.8
			c0.4,0.6,1,1,1.8,1c0.8,0,1.4-0.3,1.8-0.9c0.4-0.6,0.6-1.6,0.6-2.8V348.7z"/>
		<path d="M430.9,355.1h-6.7v-0.7l3.7-4.1c0.6-0.7,1-1.3,1.3-1.7s0.4-0.9,0.4-1.3c0-0.7-0.2-1.2-0.6-1.6c-0.4-0.4-0.9-0.6-1.6-0.6
			c-0.7,0-1.3,0.2-1.7,0.7c-0.4,0.5-0.7,1.1-0.7,1.8H424c0-0.6,0.1-1.1,0.4-1.6c0.3-0.5,0.7-0.9,1.2-1.2c0.5-0.3,1.1-0.4,1.7-0.4
			c1,0,1.7,0.3,2.3,0.8c0.5,0.5,0.8,1.2,0.8,2.1c0,0.5-0.2,1-0.5,1.6c-0.3,0.6-0.9,1.3-1.6,2.2l-3,3.4h5.6V355.1z"/>
		<path d="M439.1,344.9l-4.6,10.2h-0.9l4.5-9.9h-6.1v-0.7h7V344.9z"/>
	</g>
</g>
<g>
	<g>
		<path d="M467.5,355.1h-6.7v-0.7l3.7-4.1c0.6-0.7,1-1.3,1.3-1.7s0.4-0.9,0.4-1.3c0-0.7-0.2-1.2-0.6-1.6c-0.4-0.4-0.9-0.6-1.6-0.6
			c-0.7,0-1.3,0.2-1.7,0.7c-0.4,0.5-0.7,1.1-0.7,1.8h-0.9c0-0.6,0.1-1.1,0.4-1.6c0.3-0.5,0.7-0.9,1.2-1.2c0.5-0.3,1.1-0.4,1.7-0.4
			c1,0,1.7,0.3,2.3,0.8c0.5,0.5,0.8,1.2,0.8,2.1c0,0.5-0.2,1-0.5,1.6c-0.3,0.6-0.9,1.3-1.6,2.2l-3,3.4h5.6V355.1z"/>
		<path d="M475.6,350.7c0,1.5-0.3,2.6-0.8,3.4c-0.6,0.8-1.4,1.2-2.4,1.2c-1.1,0-1.9-0.4-2.4-1.1c-0.6-0.8-0.8-1.9-0.9-3.3v-1.9
			c0-1.5,0.3-2.6,0.8-3.4s1.4-1.2,2.4-1.2c1.1,0,1.9,0.4,2.4,1.1c0.6,0.7,0.8,1.8,0.9,3.3V350.7z M474.7,348.7
			c0-1.2-0.2-2.1-0.6-2.8c-0.4-0.6-1-0.9-1.8-0.9c-0.8,0-1.4,0.3-1.8,0.9c-0.4,0.6-0.6,1.5-0.6,2.7v2.1c0,1.2,0.2,2.1,0.6,2.8
			c0.4,0.6,1,1,1.8,1c0.8,0,1.4-0.3,1.8-0.9c0.4-0.6,0.6-1.6,0.6-2.8V348.7z"/>
		<path d="M484.1,355.1h-6.7v-0.7l3.7-4.1c0.6-0.7,1-1.3,1.3-1.7s0.4-0.9,0.4-1.3c0-0.7-0.2-1.2-0.6-1.6c-0.4-0.4-0.9-0.6-1.6-0.6
			c-0.7,0-1.3,0.2-1.7,0.7c-0.4,0.5-0.7,1.1-0.7,1.8h-0.9c0-0.6,0.1-1.1,0.4-1.6c0.3-0.5,0.7-0.9,1.2-1.2c0.5-0.3,1.1-0.4,1.7-0.4
			c1,0,1.7,0.3,2.3,0.8c0.5,0.5,0.8,1.2,0.8,2.1c0,0.5-0.2,1-0.5,1.6c-0.3,0.6-0.9,1.3-1.6,2.2l-3,3.4h5.6V355.1z"/>
		<path d="M491.2,350.2c-0.3,0.5-0.7,0.8-1.2,1.1c-0.5,0.3-1,0.4-1.5,0.4c-0.6,0-1.1-0.2-1.6-0.5c-0.5-0.3-0.8-0.7-1.1-1.3
			c-0.3-0.6-0.4-1.2-0.4-1.8c0-0.7,0.1-1.3,0.4-1.9c0.3-0.6,0.6-1,1.1-1.3c0.5-0.3,1-0.5,1.7-0.5c1.1,0,1.9,0.4,2.5,1.1
			c0.6,0.8,0.9,1.8,0.9,3.2v0.8c0,1.9-0.4,3.4-1.2,4.3s-2.1,1.4-3.8,1.4H487l0-0.8h0.3c1.3,0,2.2-0.4,2.9-1.1
			C490.8,352.6,491.2,351.6,491.2,350.2z M488.7,350.8c0.6,0,1.1-0.2,1.6-0.5c0.5-0.3,0.8-0.8,1-1.4v-0.5c0-1.1-0.2-1.9-0.7-2.5
			c-0.5-0.6-1.1-0.9-1.8-0.9c-0.7,0-1.3,0.3-1.7,0.8s-0.7,1.3-0.7,2.1c0,0.8,0.2,1.5,0.6,2C487.4,350.6,488,350.8,488.7,350.8z"/>
	</g>
</g>
<path fill="none" stroke="#666666" stroke-width="0.6642" stroke-linecap="square" d="M32.7,334.3H516"/>
<g>
	
		<path fill="none" stroke="#808285" stroke-width="0.3" stroke-linecap="square" stroke-linejoin="round" stroke-dasharray="5.6885" d="
		M5.6,334.3H516"/>
	
		<path fill="none" stroke="#808285" stroke-width="0.3" stroke-linecap="square" stroke-linejoin="round" stroke-dasharray="5.6885" d="
		M5.6,286.9H516"/>
	
		<path fill="none" stroke="#808285" stroke-width="0.3" stroke-linecap="square" stroke-linejoin="round" stroke-dasharray="5.6885" d="
		M5.6,239.5H516"/>
	
		<path fill="none" stroke="#808285" stroke-width="0.3" stroke-linecap="square" stroke-linejoin="round" stroke-dasharray="5.6885" d="
		M5.6,192.2H516"/>
	
		<path fill="none" stroke="#808285" stroke-width="0.3" stroke-linecap="square" stroke-linejoin="round" stroke-dasharray="5.6885" d="
		M5.6,144.8H516"/>
	
		<path fill="none" stroke="#808285" stroke-width="0.3" stroke-linecap="square" stroke-linejoin="round" stroke-dasharray="5.6885" d="
		M5.6,97.4H516"/>
</g>
<g>
	<g>
		<path d="M12.5,326.6c0,1.5-0.3,2.6-0.8,3.4c-0.6,0.8-1.4,1.2-2.4,1.2c-1.1,0-1.9-0.4-2.4-1.1c-0.6-0.8-0.8-1.9-0.9-3.3v-1.9
			c0-1.5,0.3-2.6,0.8-3.4s1.4-1.2,2.4-1.2c1.1,0,1.9,0.4,2.4,1.1c0.6,0.7,0.8,1.8,0.9,3.3V326.6z M11.6,324.7c0-1.2-0.2-2.1-0.6-2.8
			c-0.4-0.6-1-0.9-1.8-0.9c-0.8,0-1.4,0.3-1.8,0.9c-0.4,0.6-0.6,1.5-0.6,2.7v2.1c0,1.2,0.2,2.1,0.6,2.8c0.4,0.6,1,1,1.8,1
			c0.8,0,1.4-0.3,1.8-0.9c0.4-0.6,0.6-1.6,0.6-2.8V324.7z"/>
	</g>
</g>
<g>
	<g>
		<path d="M12.5,279c0,1.5-0.3,2.6-0.8,3.4c-0.6,0.8-1.4,1.2-2.4,1.2c-1.1,0-1.9-0.4-2.4-1.1c-0.6-0.8-0.8-1.9-0.9-3.3v-1.9
			c0-1.5,0.3-2.6,0.8-3.4s1.4-1.2,2.4-1.2c1.1,0,1.9,0.4,2.4,1.1c0.6,0.7,0.8,1.8,0.9,3.3V279z M11.6,277.1c0-1.2-0.2-2.1-0.6-2.8
			c-0.4-0.6-1-0.9-1.8-0.9c-0.8,0-1.4,0.3-1.8,0.9c-0.4,0.6-0.6,1.5-0.6,2.7v2.1c0,1.2,0.2,2.1,0.6,2.8c0.4,0.6,1,1,1.8,1
			c0.8,0,1.4-0.3,1.8-0.9c0.4-0.6,0.6-1.6,0.6-2.8V277.1z"/>
		<path d="M14.3,285.5l-0.5-0.4c0.4-0.6,0.7-1.2,0.7-1.9v-1.1h0.9v0.9C15.4,284,15,284.8,14.3,285.5z"/>
		<path d="M17.8,278l0.5-5.2h5.3v0.8h-4.6l-0.4,3.6c0.6-0.4,1.2-0.6,2-0.6c1,0,1.7,0.3,2.3,0.9c0.6,0.6,0.9,1.5,0.9,2.5
			c0,1.1-0.3,2-0.8,2.6s-1.3,0.9-2.4,0.9c-0.9,0-1.7-0.3-2.3-0.8s-0.9-1.2-1-2.2h0.8c0.1,0.7,0.3,1.3,0.7,1.7c0.4,0.4,1,0.6,1.7,0.6
			c0.8,0,1.3-0.2,1.7-0.7c0.4-0.5,0.6-1.2,0.6-2.1c0-0.8-0.2-1.4-0.7-1.9c-0.4-0.5-1-0.7-1.8-0.7c-0.4,0-0.8,0.1-1.1,0.2
			c-0.3,0.1-0.6,0.3-1,0.6L17.8,278z"/>
	</g>
</g>
<g>
	<g>
		<path d="M10.1,235.9H9.3v-9.6l-2.9,1.1v-0.8l3.6-1.3h0.1V235.9z"/>
		<path d="M14.3,237.9l-0.5-0.4c0.4-0.6,0.7-1.2,0.7-1.9v-1.1h0.9v0.9C15.4,236.4,15,237.3,14.3,237.9z"/>
		<path d="M23.7,231.4c0,1.5-0.3,2.6-0.8,3.4c-0.6,0.8-1.4,1.2-2.4,1.2c-1.1,0-1.9-0.4-2.4-1.1c-0.6-0.8-0.8-1.9-0.9-3.3v-1.9
			c0-1.5,0.3-2.6,0.8-3.4s1.4-1.2,2.4-1.2c1.1,0,1.9,0.4,2.4,1.1c0.6,0.7,0.8,1.8,0.9,3.3V231.4z M22.8,229.5c0-1.2-0.2-2.1-0.6-2.8
			c-0.4-0.6-1-0.9-1.8-0.9c-0.8,0-1.4,0.3-1.8,0.9c-0.4,0.6-0.6,1.5-0.6,2.7v2.1c0,1.2,0.2,2.1,0.6,2.8c0.4,0.6,1,1,1.8,1
			c0.8,0,1.4-0.3,1.8-0.9c0.4-0.6,0.6-1.6,0.6-2.8V229.5z"/>
	</g>
</g>
<g>
	<g>
		<path d="M10.1,188.3H9.3v-9.6l-2.9,1.1v-0.8l3.6-1.3h0.1V188.3z"/>
		<path d="M14.3,190.3l-0.5-0.4c0.4-0.6,0.7-1.2,0.7-1.9v-1.1h0.9v0.9C15.4,188.8,15,189.7,14.3,190.3z"/>
		<path d="M17.8,182.8l0.5-5.2h5.3v0.8h-4.6l-0.4,3.6c0.6-0.4,1.2-0.6,2-0.6c1,0,1.7,0.3,2.3,0.9c0.6,0.6,0.9,1.5,0.9,2.5
			c0,1.1-0.3,2-0.8,2.6s-1.3,0.9-2.4,0.9c-0.9,0-1.7-0.3-2.3-0.8s-0.9-1.2-1-2.2h0.8c0.1,0.7,0.3,1.3,0.7,1.7c0.4,0.4,1,0.6,1.7,0.6
			c0.8,0,1.3-0.2,1.7-0.7c0.4-0.5,0.6-1.2,0.6-2.1c0-0.8-0.2-1.4-0.7-1.9c-0.4-0.5-1-0.7-1.8-0.7c-0.4,0-0.8,0.1-1.1,0.2
			c-0.3,0.1-0.6,0.3-1,0.6L17.8,182.8z"/>
	</g>
</g>
<g>
	<g>
		<path d="M12.7,140.7H6.1V140l3.7-4.1c0.6-0.7,1-1.3,1.3-1.7s0.4-0.9,0.4-1.3c0-0.7-0.2-1.2-0.6-1.6c-0.4-0.4-0.9-0.6-1.6-0.6
			c-0.7,0-1.3,0.2-1.7,0.7c-0.4,0.5-0.7,1.1-0.7,1.8H5.8c0-0.6,0.1-1.1,0.4-1.6c0.3-0.5,0.7-0.9,1.2-1.2c0.5-0.3,1.1-0.4,1.7-0.4
			c1,0,1.7,0.3,2.3,0.8c0.5,0.5,0.8,1.2,0.8,2.1c0,0.5-0.2,1-0.5,1.6c-0.3,0.6-0.9,1.3-1.6,2.2l-3,3.4h5.6V140.7z"/>
		<path d="M14.3,142.7l-0.5-0.4c0.4-0.6,0.7-1.2,0.7-1.9v-1.1h0.9v0.9C15.4,141.2,15,142.1,14.3,142.7z"/>
		<path d="M23.7,136.2c0,1.5-0.3,2.6-0.8,3.4c-0.6,0.8-1.4,1.2-2.4,1.2c-1.1,0-1.9-0.4-2.4-1.1c-0.6-0.8-0.8-1.9-0.9-3.3v-1.9
			c0-1.5,0.3-2.6,0.8-3.4s1.4-1.2,2.4-1.2c1.1,0,1.9,0.4,2.4,1.1c0.6,0.7,0.8,1.8,0.9,3.3V136.2z M22.8,134.3c0-1.2-0.2-2.1-0.6-2.8
			c-0.4-0.6-1-0.9-1.8-0.9c-0.8,0-1.4,0.3-1.8,0.9c-0.4,0.6-0.6,1.5-0.6,2.7v2.1c0,1.2,0.2,2.1,0.6,2.8c0.4,0.6,1,1,1.8,1
			c0.8,0,1.4-0.3,1.8-0.9c0.4-0.6,0.6-1.6,0.6-2.8V134.3z"/>
	</g>
</g>
<g>
	<g>
		<path d="M12.8,93.4H6.1v-0.7l3.7-4.1c0.6-0.7,1-1.3,1.3-1.7s0.4-0.9,0.4-1.3c0-0.7-0.2-1.2-0.6-1.6c-0.4-0.4-0.9-0.6-1.6-0.6
			c-0.7,0-1.3,0.2-1.7,0.7c-0.4,0.5-0.7,1.1-0.7,1.8H5.9c0-0.6,0.1-1.1,0.4-1.6c0.3-0.5,0.7-0.9,1.2-1.2c0.5-0.3,1.1-0.4,1.7-0.4
			c1,0,1.7,0.3,2.3,0.8c0.5,0.5,0.8,1.2,0.8,2.1c0,0.5-0.2,1-0.5,1.6c-0.3,0.6-0.9,1.3-1.6,2.2l-3,3.4h5.6V93.4z"/>
		<path d="M14.4,95.4L13.8,95c0.4-0.6,0.7-1.2,0.7-1.9V92h0.9v0.9C15.4,94,15.1,94.8,14.4,95.4z"/>
		<path d="M17.9,87.9l0.5-5.2h5.3v0.8h-4.6l-0.4,3.6c0.6-0.4,1.2-0.6,2-0.6c1,0,1.7,0.3,2.3,0.9c0.6,0.6,0.9,1.5,0.9,2.5
			c0,1.1-0.3,2-0.8,2.6s-1.3,0.9-2.4,0.9c-0.9,0-1.7-0.3-2.3-0.8s-0.9-1.2-1-2.2h0.8c0.1,0.7,0.3,1.3,0.7,1.7c0.4,0.4,1,0.6,1.7,0.6
			c0.8,0,1.3-0.2,1.7-0.7c0.4-0.5,0.6-1.2,0.6-2.1c0-0.8-0.2-1.4-0.7-1.9c-0.4-0.5-1-0.7-1.8-0.7c-0.4,0-0.8,0.1-1.1,0.2
			c-0.3,0.1-0.6,0.3-1,0.6L17.9,87.9z"/>
		<path d="M30.2,85.5l0,1.3c0.3-0.5,0.7-0.8,1.1-1.1c0.4-0.2,0.9-0.4,1.5-0.4c1.2,0,2,0.5,2.4,1.5c0.3-0.5,0.7-0.9,1.1-1.1
			c0.5-0.3,1-0.4,1.6-0.4c1.7,0,2.6,0.9,2.6,2.8v5.3h-0.9v-5.2c0-0.7-0.2-1.2-0.5-1.6c-0.3-0.3-0.8-0.5-1.5-0.5
			c-0.6,0-1.2,0.2-1.6,0.6c-0.4,0.4-0.7,0.9-0.7,1.5v5.2h-0.9v-5.3c0-0.7-0.2-1.2-0.5-1.5c-0.3-0.3-0.8-0.5-1.5-0.5
			c-0.6,0-1,0.2-1.4,0.5c-0.4,0.3-0.7,0.8-0.9,1.4v5.4h-0.9v-7.9H30.2z"/>
		<path d="M43.7,93.4h-0.9V82.2h0.9V93.4z"/>
		<path d="M45.7,89.4c0-1.2,0.3-2.2,0.8-2.9c0.5-0.7,1.3-1.1,2.2-1.1c1.1,0,1.9,0.4,2.4,1.3v-4.4h0.9v11.2h-0.8l0-1.1
			c-0.6,0.8-1.4,1.2-2.5,1.2c-0.9,0-1.6-0.4-2.2-1.1c-0.6-0.7-0.8-1.7-0.8-3V89.4z M46.6,89.5c0,1,0.2,1.8,0.6,2.4
			c0.4,0.6,1,0.9,1.7,0.9c1.1,0,1.8-0.5,2.3-1.4v-3.7c-0.5-1-1.2-1.5-2.3-1.5c-0.7,0-1.3,0.3-1.7,0.9C46.8,87.5,46.6,88.4,46.6,89.5
			z"/>
		<path d="M54.3,92.9c0-0.2,0.1-0.3,0.2-0.4c0.1-0.1,0.3-0.2,0.5-0.2s0.3,0.1,0.5,0.2c0.1,0.1,0.2,0.3,0.2,0.4s-0.1,0.3-0.2,0.4
			c-0.1,0.1-0.3,0.2-0.5,0.2s-0.3-0.1-0.5-0.2C54.3,93.2,54.3,93.1,54.3,92.9z"/>
		<path d="M68,89.5c0,1.2-0.3,2.2-0.8,2.9c-0.5,0.7-1.3,1.1-2.2,1.1c-1.1,0-1.9-0.4-2.5-1.1v4h-0.9v-11h0.8l0,1.1
			c0.6-0.8,1.4-1.3,2.5-1.3c0.9,0,1.7,0.4,2.2,1.1c0.5,0.7,0.8,1.7,0.8,3V89.5z M67.1,89.4c0-1-0.2-1.8-0.6-2.4
			c-0.4-0.6-1-0.9-1.7-0.9c-0.5,0-1,0.1-1.4,0.4c-0.4,0.3-0.7,0.6-0.9,1.1v3.8c0.2,0.5,0.5,0.8,0.9,1c0.4,0.2,0.9,0.4,1.4,0.4
			c0.7,0,1.3-0.3,1.7-0.9C66.9,91.3,67.1,90.5,67.1,89.4z"/>
		<path d="M69.4,89.3c0-0.8,0.1-1.4,0.4-2.1c0.3-0.6,0.7-1.1,1.3-1.4c0.5-0.3,1.2-0.5,1.8-0.5c1.1,0,1.9,0.4,2.6,1.1
			c0.7,0.7,1,1.7,1,2.9v0.2c0,0.8-0.1,1.5-0.4,2.1c-0.3,0.6-0.7,1.1-1.2,1.4c-0.5,0.3-1.2,0.5-1.8,0.5c-1,0-1.9-0.4-2.6-1.1
			c-0.7-0.7-1-1.7-1-2.9V89.3z M70.3,89.6c0,0.9,0.2,1.7,0.7,2.3c0.5,0.6,1.1,0.9,1.9,0.9c0.8,0,1.4-0.3,1.9-0.9
			c0.5-0.6,0.7-1.4,0.7-2.4v-0.2c0-0.6-0.1-1.2-0.3-1.7s-0.5-0.9-0.9-1.2c-0.4-0.3-0.9-0.4-1.4-0.4c-0.8,0-1.4,0.3-1.9,0.9
			c-0.5,0.6-0.7,1.4-0.7,2.4V89.6z"/>
		<path d="M80.7,92.2l2.4-6.7H84l-3,7.9h-0.7l-3-7.9h0.9L80.7,92.2z"/>
		<path d="M84.8,89.3c0-0.8,0.1-1.4,0.4-2.1c0.3-0.6,0.7-1.1,1.3-1.4c0.5-0.3,1.2-0.5,1.8-0.5c1.1,0,1.9,0.4,2.6,1.1
			c0.7,0.7,1,1.7,1,2.9v0.2c0,0.8-0.1,1.5-0.4,2.1c-0.3,0.6-0.7,1.1-1.2,1.4c-0.5,0.3-1.2,0.5-1.8,0.5c-1,0-1.9-0.4-2.6-1.1
			c-0.7-0.7-1-1.7-1-2.9V89.3z M85.7,89.6c0,0.9,0.2,1.7,0.7,2.3c0.5,0.6,1.1,0.9,1.9,0.9c0.8,0,1.4-0.3,1.9-0.9
			c0.5-0.6,0.7-1.4,0.7-2.4v-0.2c0-0.6-0.1-1.2-0.3-1.7s-0.5-0.9-0.9-1.2c-0.4-0.3-0.9-0.4-1.4-0.4c-0.8,0-1.4,0.3-1.9,0.9
			c-0.5,0.6-0.7,1.4-0.7,2.4V89.6z"/>
		<path d="M94.7,93.4h-0.9V82.2h0.9V93.4z"/>
		<path d="M100.1,93.6c-0.7,0-1.3-0.2-1.8-0.5c-0.5-0.3-1-0.8-1.3-1.4c-0.3-0.6-0.5-1.3-0.5-2v-0.3c0-0.8,0.1-1.4,0.4-2.1
			c0.3-0.6,0.7-1.1,1.2-1.4c0.5-0.3,1.1-0.5,1.7-0.5c1,0,1.7,0.3,2.3,1c0.6,0.7,0.8,1.6,0.8,2.7v0.5h-5.7v0.2c0,0.9,0.3,1.6,0.8,2.2
			c0.5,0.6,1.2,0.9,1.9,0.9c0.5,0,0.9-0.1,1.2-0.3c0.4-0.2,0.7-0.4,1-0.8l0.5,0.4C102.3,93.1,101.4,93.6,100.1,93.6z M100,86.1
			c-0.7,0-1.2,0.2-1.7,0.7c-0.5,0.5-0.7,1.1-0.8,1.9h4.8v-0.1c0-0.8-0.2-1.4-0.7-1.9S100.6,86.1,100,86.1z"/>
		<path d="M105.7,85.5l0,1.4c0.3-0.5,0.7-0.9,1.1-1.1c0.4-0.3,0.9-0.4,1.5-0.4c0.8,0,1.5,0.2,1.9,0.7s0.6,1.2,0.6,2.2v5.2h-0.9v-5.2
			c0-0.7-0.2-1.2-0.5-1.6c-0.3-0.3-0.8-0.5-1.4-0.5c-0.5,0-1,0.2-1.4,0.5c-0.4,0.3-0.7,0.8-0.9,1.4v5.4h-0.9v-7.9H105.7z"/>
		<path d="M116.1,93.6c-0.7,0-1.3-0.2-1.8-0.5c-0.5-0.3-1-0.8-1.3-1.4c-0.3-0.6-0.5-1.3-0.5-2v-0.3c0-0.8,0.1-1.4,0.4-2.1
			c0.3-0.6,0.7-1.1,1.2-1.4c0.5-0.3,1.1-0.5,1.7-0.5c1,0,1.7,0.3,2.3,1c0.6,0.7,0.8,1.6,0.8,2.7v0.5h-5.7v0.2c0,0.9,0.3,1.6,0.8,2.2
			c0.5,0.6,1.2,0.9,1.9,0.9c0.5,0,0.9-0.1,1.2-0.3c0.4-0.2,0.7-0.4,1-0.8l0.5,0.4C118.3,93.1,117.4,93.6,116.1,93.6z M116,86.1
			c-0.7,0-1.2,0.2-1.7,0.7c-0.5,0.5-0.7,1.1-0.8,1.9h4.8v-0.1c0-0.8-0.2-1.4-0.7-1.9S116.6,86.1,116,86.1z"/>
		<path d="M122.7,89.4l-1,1v3h-0.9V82.2h0.9v7.2l0.8-0.9l3-3h1.1l-3.4,3.3l3.7,4.6h-1L122.7,89.4z"/>
	</g>
</g>
<g>
	<g>
		<path d="M17.6,10.6v13.3H15v-3.3c0.1-1.6,0.1-3.2,0.2-4.8l-0.1,0l-1.2,3.5L13.2,21h-2.7l-0.7-1.8l-1.2-3.5l-0.1,0
			c0.1,1.6,0.1,3.2,0.2,4.8v3.3H6.2V10.6h2.7l2.1,5c0.3,0.7,0.7,1.8,0.9,2.3h0.1c0.2-0.5,0.6-1.7,0.9-2.3l2.1-5H17.6z"/>
		<path d="M26.8,21.6H24l-0.4,2.2h-2.8l3.2-13.3h2.9L30,23.8h-2.8L26.8,21.6z M26.3,19.1L26,17.6c-0.2-0.9-0.4-2.6-0.5-3.6h-0.1
			c-0.1,1.1-0.3,2.7-0.5,3.6l-0.3,1.5H26.3z"/>
		<path d="M38.3,23.8l-1.7-4.2L35,23.8h-3l3.1-6.9l-2.9-6.4h2.9l1.5,3.9l1.5-3.9h2.9L38.2,17l3.1,6.9H38.3z"/>
		<path d="M44.4,10.6h2.7v13.3h-2.7V10.6z"/>
		<path d="M62.8,10.6v13.3h-2.6v-3.3c0.1-1.6,0.1-3.2,0.2-4.8l-0.1,0l-1.2,3.5L58.4,21h-2.7l-0.7-1.8l-1.2-3.5l-0.1,0
			c0.1,1.6,0.1,3.2,0.2,4.8v3.3h-2.6V10.6h2.7l2.1,5c0.3,0.7,0.7,1.8,0.9,2.3h0.1c0.2-0.5,0.6-1.7,0.9-2.3l2.1-5H62.8z"/>
		<path d="M72,21.6h-2.8l-0.4,2.2H66l3.2-13.3H72l3.2,13.3h-2.8L72,21.6z M71.1,9.3h-1.8l1.8-2.6h2.1L71.1,9.3z M71.5,19.1l-0.3-1.5
			c-0.2-0.9-0.4-2.6-0.5-3.6h-0.1c-0.1,1.1-0.3,2.7-0.5,3.6l-0.3,1.5H71.5z"/>
		<path d="M85,21.3v2.6h-6.7V10.6h2.7v10.7H85z"/>
		<path d="M88.2,10.6h2.7l2.5,5.8c0.3,0.8,0.6,1.7,0.9,2.5l0.1-0.1c-0.2-1.7-0.4-4-0.4-5.2v-3.1h2.7v13.3H94l-2.2-5.1l-1.2-3.2
			l-0.1,0.1c0.2,1.7,0.3,4.2,0.3,5.6v2.7h-2.7V10.6z"/>
		<path d="M100.9,10.6h2.7v13.3h-2.7V10.6z M102.8,6.7h2.1l-2.1,2.6H101L102.8,6.7z"/>
		<path d="M125,10.6v13.3h-2.6v-3.3c0.1-1.6,0.1-3.2,0.2-4.8l-0.1,0l-1.2,3.5l-0.7,1.8H118l-0.7-1.8l-1.2-3.5l-0.1,0
			c0.1,1.6,0.1,3.2,0.2,4.8v3.3h-2.6V10.6h2.7l2.1,5c0.3,0.7,0.7,1.8,0.9,2.3h0.1c0.2-0.5,0.6-1.7,0.9-2.3l2.1-5H125z"/>
		<path d="M129.3,10.6h2.7l2.5,5.8c0.3,0.8,0.6,1.7,0.9,2.5l0.1-0.1c-0.2-1.7-0.4-4-0.4-5.2v-3.1h2.7v13.3h-2.7l-2.2-5.1l-1.2-3.2
			l-0.1,0.1c0.2,1.7,0.3,4.2,0.3,5.6v2.7h-2.7V10.6z"/>
		<path d="M141.6,19.5v-4.7c0-2.8,1.6-4.5,4.3-4.5s4.3,1.7,4.3,4.5v4.7c0,2.8-1.6,4.5-4.3,4.5S141.6,22.4,141.6,19.5z M147.5,19.5
			v-4.7c0-1.3-0.5-1.9-1.5-1.9c-1,0-1.5,0.7-1.5,1.9v4.7c0,1.3,0.5,1.9,1.5,1.9C147,21.5,147.5,20.8,147.5,19.5z"/>
		<path d="M160.8,21.3v2.6h-7.6V22l4.2-8.9h-3.9v-2.6h7.2v1.9l-4.2,8.9H160.8z M156.2,9.3l-1.5-2.6h1.7l0.8,1.3l0.8-1.3h1.7
			l-1.5,2.6H156.2z"/>
		<path d="M163.5,20h2.8c0,1.1,0.5,1.5,1.4,1.5c0.9,0,1.3-0.5,1.3-1.2c0-2.2-5.2-2.5-5.2-6.5c0-2,1.4-3.5,3.9-3.5s3.9,1.5,3.9,3.9
			h-2.8c0-0.9-0.4-1.3-1.2-1.3c-0.7,0-1.1,0.4-1.1,1c0,2.1,5.3,2.2,5.3,6.5c0,2.2-1.5,3.8-4.2,3.8C165.1,24.1,163.5,22.7,163.5,20z"
			/>
		<path d="M182.4,13.1h-2.6v10.7H177V13.1h-2.6v-2.6h8V13.1z"/>
		<path d="M184.6,10.6h2.8l1.2,6.3c0.2,1,0.4,2.6,0.6,3.7h0.1c0.1-1.1,0.4-2.7,0.6-3.7l1.2-6.3h2.8l-3.2,13.3h-2.8L184.6,10.6z"/>
		<path d="M196.9,10.6h2.7v13.3h-2.7V10.6z M198.7,6.7h2.1l-2.1,2.6H197L198.7,6.7z"/>
		<path d="M214.5,21.6h-2.8l-0.4,2.2h-2.8l3.2-13.3h2.9l3.2,13.3h-2.8L214.5,21.6z M213.9,19.1l-0.3-1.5c-0.2-0.9-0.4-2.6-0.5-3.6
			H213c-0.1,1.1-0.3,2.7-0.5,3.6l-0.3,1.5H213.9z"/>
		<path d="M227.5,21.3v2.6h-6.7V10.6h2.7v10.7H227.5z"/>
		<path d="M230.3,19.5v-4.7c0-2.8,1.6-4.5,4.3-4.5s4.3,1.7,4.3,4.5v4.7c0,2.8-1.6,4.5-4.3,4.5S230.3,22.4,230.3,19.5z M236.1,19.5
			v-4.7c0-1.3-0.5-1.9-1.5-1.9c-1,0-1.5,0.7-1.5,1.9v4.7c0,1.3,0.5,1.9,1.5,1.9C235.6,21.5,236.1,20.8,236.1,19.5z"/>
		<path d="M246.2,18.8l-0.7,1.2v3.8h-2.7V10.6h2.7v5.1l0.7-1.5l1.9-3.6h3.1l-3.4,5.8l4,7.5h-3L246.2,18.8z"/>
		<path d="M254,19.5v-4.7c0-2.8,1.6-4.5,4.3-4.5c2.7,0,4.3,1.7,4.3,4.5v4.7c0,2.8-1.6,4.5-4.3,4.5C255.7,24.1,254,22.4,254,19.5z
			 M259.9,19.5v-4.7c0-1.3-0.5-1.9-1.5-1.9c-1,0-1.5,0.7-1.5,1.9v4.7c0,1.3,0.5,1.9,1.5,1.9C259.4,21.5,259.9,20.8,259.9,19.5z"/>
		<path d="M265.4,10.6h2.8l1.2,6.3c0.2,1,0.4,2.6,0.6,3.7h0.1c0.1-1.1,0.4-2.7,0.6-3.7l1.2-6.3h2.8l-3.2,13.3h-2.8L265.4,10.6z"/>
		<path d="M282,21.6h-2.8l-0.4,2.2H276l3.2-13.3h2.9l3.2,13.3h-2.8L282,21.6z M281.5,19.1l-0.3-1.5c-0.2-0.9-0.4-2.6-0.5-3.6h-0.1
			c-0.1,1.1-0.3,2.7-0.5,3.6l-0.3,1.5H281.5z"/>
		<path d="M288.4,10.6h2.7l2.5,5.8c0.3,0.8,0.6,1.7,0.9,2.5l0.1-0.1c-0.2-1.7-0.4-4-0.4-5.2v-3.1h2.7v13.3h-2.7l-2.2-5.1l-1.2-3.2
			l-0.1,0.1c0.2,1.7,0.3,4.2,0.3,5.6v2.7h-2.7V10.6z"/>
		<path d="M303,19.9l-3.1-9.3h2.8l1.1,3.7c0.1,0.4,0.4,1.5,0.6,2.1h0.1c0.2-0.6,0.5-1.7,0.6-2.2l1-3.6h2.8l-3.1,9.3v4H303V19.9z
			 M304.9,6.7h2.1l-2.1,2.6h-1.8L304.9,6.7z"/>
		<path d="M311.6,19.8v-5.2c0-2.8,1.5-4.3,4.1-4.3c2.7,0,4.1,1.5,4.2,4.3h-2.7c-0.1-1.2-0.5-1.7-1.6-1.7c-0.8,0-1.3,0.5-1.3,1.7v5.2
			c0,1.1,0.5,1.7,1.3,1.7c1,0,1.5-0.5,1.6-1.7h2.7c-0.1,2.8-1.6,4.3-4.3,4.3C313.1,24.1,311.6,22.6,311.6,19.8z"/>
		<path d="M331.6,10.6v13.3h-2.7v-5.4h-2.7v5.4h-2.7V10.6h2.7v5.3h2.7v-5.3H331.6z"/>
		<path d="M349.8,15.1c0,2.8-1.6,4.5-4.4,4.5h-1.2v4.3h-2.7V10.6h3.9C348.2,10.6,349.8,12.2,349.8,15.1z M347,15.1
			c0-1.3-0.6-2-1.7-2h-1.1V17h1.1C346.5,17,347,16.3,347,15.1z"/>
		<path d="M353,19.5v-4.7c0-2.8,1.6-4.5,4.3-4.5s4.3,1.7,4.3,4.5v4.7c0,2.8-1.6,4.5-4.3,4.5S353,22.4,353,19.5z M358.9,19.5v-4.7
			c0-1.3-0.5-1.9-1.5-1.9c-1,0-1.5,0.7-1.5,1.9v4.7c0,1.3,0.5,1.9,1.5,1.9C358.4,21.5,358.9,20.8,358.9,19.5z"/>
		<path d="M364.4,10.6h2.8l1.2,6.3c0.2,1,0.4,2.6,0.6,3.7h0.1c0.1-1.1,0.4-2.7,0.6-3.7l1.2-6.3h2.8l-3.2,13.3h-2.8L364.4,10.6z"/>
		<path d="M376.3,19.5v-4.7c0-2.8,1.6-4.5,4.3-4.5s4.3,1.7,4.3,4.5v4.7c0,2.8-1.6,4.5-4.3,4.5S376.3,22.4,376.3,19.5z M382.2,19.5
			v-4.7c0-1.3-0.5-1.9-1.5-1.9c-1,0-1.5,0.7-1.5,1.9v4.7c0,1.3,0.5,1.9,1.5,1.9C381.7,21.5,382.2,20.8,382.2,19.5z"/>
		<path d="M395.5,21.3v2.6h-6.7V10.6h2.7v10.7H395.5z"/>
		<path d="M405.7,21.3v2.6h-7V10.6h6.9v2.6h-4.2v2.8h3.8v2.5h-3.8v2.9H405.7z"/>
		<path d="M409.5,10.6h2.7l2.5,5.8c0.3,0.8,0.6,1.7,0.9,2.5l0.1-0.1c-0.2-1.7-0.4-4-0.4-5.2v-3.1h2.7v13.3h-2.7l-2.2-5.1l-1.2-3.2
			l-0.1,0.1c0.2,1.7,0.3,4.2,0.3,5.6v2.7h-2.7V10.6z"/>
		<path d="M429.2,21.3v2.6h-7V10.6h6.9v2.6h-4.2v2.8h3.8v2.5h-3.8v2.9H429.2z"/>
		<path d="M436.4,18.8l-0.7,1.2v3.8H433V10.6h2.7v5.1l0.7-1.5l1.9-3.6h3.1l-3.4,5.8l4,7.5h-3L436.4,18.8z"/>
	</g>
</g>
<rect x="37.4" y="136.8" opacity="0.1" fill="#231F20" width="26.6" height="197.5"/>
<rect x="64" y="140.4" opacity="0.1" fill="#231F20" width="26.6" height="193.9"/>
<rect x="90.6" y="144.1" opacity="0.1" fill="#231F20" width="26.6" height="190.2"/>
<rect x="117.2" y="147.7" opacity="0.1" fill="#231F20" width="26.6" height="186.6"/>
<rect x="143.8" y="151.3" opacity="0.1" fill="#231F20" width="26.6" height="183"/>
<rect x="170.4" y="154.9" opacity="0.1" fill="#231F20" width="26.6" height="179.3"/>
<rect x="197" y="158.6" opacity="0.1" fill="#231F20" width="26.6" height="175.7"/>
<rect x="223.6" y="162.2" opacity="0.1" fill="#231F20" width="26.6" height="172.1"/>
<rect x="250.3" y="185.4" opacity="0.1" fill="#231F20" width="26.6" height="148.9"/>
<rect x="276.9" y="189.5" opacity="0.1" fill="#231F20" width="26.6" height="144.8"/>
<rect x="303.5" y="193.5" opacity="0.1" fill="#231F20" width="26.6" height="140.7"/>
<rect x="330.1" y="209" opacity="0.1" fill="#231F20" width="26.6" height="125.3"/>
<rect x="356.7" y="218.3" opacity="0.1" fill="#231F20" width="26.6" height="116"/>
<rect x="383.3" y="228.9" opacity="0.1" fill="#231F20" width="26.6" height="105.4"/>
<rect x="409.9" y="236.7" opacity="0.1" fill="#231F20" width="26.6" height="97.6"/>
<rect x="436.5" y="245.4" opacity="0.1" fill="#231F20" width="26.6" height="88.9"/>
<rect x="463.1" y="253.6" opacity="0.1" fill="#231F20" width="26.6" height="80.5"/>
<rect x="489.8" y="261.9" opacity="0.1" fill="#231F20" width="26.6" height="72.4"/>
<line fill="none" stroke="#CCCCCC" stroke-width="2" stroke-miterlimit="10" x1="250.3" y1="185.4" x2="250.3" y2="334.3"/>
<line fill="none" stroke="#CCCCCC" stroke-width="2" stroke-miterlimit="10" x1="37.4" y1="136.8" x2="37.4" y2="334.3"/>
<g>
	<g>
		<path fill="none" stroke="#939598" stroke-miterlimit="10" d="M257.4,171.8c4.9-0.5,25-4.2,25-34.9"/>
		<g>
			<polygon fill="#939598" points="261.2,175.3 261.8,174.5 257.8,171.6 260.9,167.8 260.1,167.2 256.3,171.8 			"/>
		</g>
	</g>
</g>
<g>
	<path fill="#999999" d="M127,262.6h-4.3v4.5h-1.9v-10.7h6.8v1.5h-4.9v3.2h4.3V262.6z"/>
	<path fill="#999999" d="M133.4,267.1c-0.1-0.2-0.1-0.4-0.2-0.7c-0.6,0.6-1.3,0.9-2.1,0.9c-0.8,0-1.4-0.2-1.9-0.7
		c-0.5-0.5-0.8-1-0.8-1.7c0-0.8,0.3-1.5,0.9-1.9c0.6-0.5,1.5-0.7,2.7-0.7h1.1v-0.5c0-0.4-0.1-0.7-0.3-1c-0.2-0.2-0.6-0.4-1-0.4
		c-0.4,0-0.7,0.1-1,0.3c-0.3,0.2-0.4,0.5-0.4,0.8h-1.8c0-0.4,0.1-0.8,0.4-1.2c0.3-0.4,0.7-0.7,1.2-0.9c0.5-0.2,1-0.3,1.7-0.3
		c0.9,0,1.7,0.2,2.2,0.7c0.6,0.5,0.8,1.1,0.8,2v3.6c0,0.7,0.1,1.3,0.3,1.7v0.1H133.4z M131.5,265.8c0.4,0,0.7-0.1,1-0.3
		c0.3-0.2,0.5-0.4,0.7-0.7v-1.5h-1c-0.7,0-1.2,0.1-1.5,0.3c-0.3,0.2-0.5,0.6-0.5,1c0,0.3,0.1,0.6,0.3,0.8
		C130.8,265.7,131.1,265.8,131.5,265.8z M132.5,255.9h2l-2,2.2l-1.4,0L132.5,255.9z"/>
	<path fill="#999999" d="M138.7,265.7h4.2v1.4h-6.4V266l4-5.3h-3.9v-1.4h6.2v1.1L138.7,265.7z"/>
	<path fill="#999999" d="M147.7,267.3c-1.1,0-2-0.4-2.7-1.1c-0.7-0.7-1.1-1.7-1.1-2.8v-0.2c0-0.8,0.2-1.5,0.5-2.1
		c0.3-0.6,0.7-1.1,1.3-1.5c0.6-0.3,1.2-0.5,1.8-0.5c1.1,0,1.9,0.3,2.5,1c0.6,0.7,0.9,1.7,0.9,2.9v0.7h-5.2c0.1,0.7,0.3,1.2,0.7,1.6
		c0.4,0.4,0.9,0.6,1.4,0.6c0.8,0,1.5-0.3,2-1l1,0.9c-0.3,0.5-0.7,0.8-1.3,1.1C149,267.1,148.4,267.3,147.7,267.3z M147.5,260.5
		c-0.5,0-0.9,0.2-1.2,0.5c-0.3,0.3-0.5,0.8-0.6,1.4h3.4v-0.1c0-0.6-0.2-1-0.5-1.4C148.4,260.6,148,260.5,147.5,260.5z"/>
	<path fill="#999999" d="M158.2,267.1h-1.8v-10.7h1.8V267.1z"/>
	<path fill="#999999" d="M162.4,267.1h-1.8v-10.7h1.8V267.1z"/>
	<path fill="#999999" d="M166.6,267.1h-1.8v-10.7h1.8V267.1z"/>
</g>
<g>
	<path fill="#999999" d="M365.4,262.6h-4.3v4.5h-1.9v-10.7h6.8v1.5h-4.9v3.2h4.3V262.6z"/>
	<path fill="#999999" d="M371.8,267.1c-0.1-0.2-0.1-0.4-0.2-0.7c-0.6,0.6-1.3,0.9-2.1,0.9c-0.8,0-1.4-0.2-1.9-0.7
		c-0.5-0.5-0.8-1-0.8-1.7c0-0.8,0.3-1.5,0.9-1.9c0.6-0.5,1.5-0.7,2.7-0.7h1.1v-0.5c0-0.4-0.1-0.7-0.3-1c-0.2-0.2-0.6-0.4-1-0.4
		c-0.4,0-0.7,0.1-1,0.3c-0.3,0.2-0.4,0.5-0.4,0.8H367c0-0.4,0.1-0.8,0.4-1.2c0.3-0.4,0.7-0.7,1.2-0.9c0.5-0.2,1-0.3,1.7-0.3
		c0.9,0,1.7,0.2,2.2,0.7c0.6,0.5,0.8,1.1,0.8,2v3.6c0,0.7,0.1,1.3,0.3,1.7v0.1H371.8z M369.9,265.8c0.4,0,0.7-0.1,1-0.3
		c0.3-0.2,0.5-0.4,0.7-0.7v-1.5h-1c-0.7,0-1.2,0.1-1.5,0.3c-0.3,0.2-0.5,0.6-0.5,1c0,0.3,0.1,0.6,0.3,0.8
		C369.2,265.7,369.5,265.8,369.9,265.8z M370.8,255.9h2l-2,2.2l-1.4,0L370.8,255.9z"/>
	<path fill="#999999" d="M377.1,265.7h4.2v1.4h-6.4V266l4-5.3h-3.9v-1.4h6.2v1.1L377.1,265.7z"/>
	<path fill="#999999" d="M386.1,267.3c-1.1,0-2-0.4-2.7-1.1c-0.7-0.7-1.1-1.7-1.1-2.8v-0.2c0-0.8,0.2-1.5,0.5-2.1
		c0.3-0.6,0.7-1.1,1.3-1.5c0.6-0.3,1.2-0.5,1.8-0.5c1.1,0,1.9,0.3,2.5,1c0.6,0.7,0.9,1.7,0.9,2.9v0.7h-5.2c0.1,0.7,0.3,1.2,0.7,1.6
		c0.4,0.4,0.9,0.6,1.4,0.6c0.8,0,1.5-0.3,2-1l1,0.9c-0.3,0.5-0.7,0.8-1.3,1.1C387.4,267.1,386.8,267.3,386.1,267.3z M385.9,260.5
		c-0.5,0-0.9,0.2-1.2,0.5c-0.3,0.3-0.5,0.8-0.6,1.4h3.4v-0.1c0-0.6-0.2-1-0.5-1.4C386.8,260.6,386.4,260.5,385.9,260.5z"/>
	<path fill="#999999" d="M396.5,267.1h-1.8v-10.7h1.8V267.1z"/>
	<path fill="#999999" d="M402.6,264.8l2.7-8.3h2l-3.8,10.7h-1.8l-3.8-10.7h2L402.6,264.8z"/>
</g>
<rect x="265" y="93.4" fill="#FFFFFF" width="238" height="6.9"/>
<g>
	<g>
		<path d="M283.7,73.8l0.1,0.2l0.1-0.2l3.4-9.3h1l-4,10.7h-0.9l-4-10.7h1L283.7,73.8z"/>
		<path d="M292.3,75.3c-0.7,0-1.3-0.2-1.8-0.5c-0.5-0.3-1-0.8-1.3-1.4c-0.3-0.6-0.5-1.3-0.5-2v-0.3c0-0.8,0.1-1.4,0.4-2.1
			c0.3-0.6,0.7-1.1,1.2-1.4c0.5-0.3,1.1-0.5,1.7-0.5c1,0,1.7,0.3,2.3,1c0.6,0.7,0.8,1.6,0.8,2.7v0.5h-5.7v0.2c0,0.9,0.3,1.6,0.8,2.2
			c0.5,0.6,1.2,0.9,1.9,0.9c0.5,0,0.9-0.1,1.2-0.3c0.4-0.2,0.7-0.4,1-0.8l0.5,0.4C294.4,74.8,293.5,75.3,292.3,75.3z M292.1,67.8
			c-0.7,0-1.2,0.2-1.7,0.7c-0.5,0.5-0.7,1.1-0.8,1.9h4.8v-0.1c0-0.8-0.2-1.4-0.7-1.9S292.8,67.8,292.1,67.8z"/>
		<path d="M297.9,75.1h-0.9V63.9h0.9V75.1z"/>
		<path d="M302.2,71.2l-1,1v3h-0.9V63.9h0.9v7.2l0.8-0.9l3-3h1.1l-3.4,3.3l3.7,4.6h-1L302.2,71.2z"/>
		<path d="M312.7,75.1c-0.1-0.2-0.1-0.6-0.2-1.1c-0.3,0.4-0.7,0.7-1.2,0.9c-0.5,0.2-1,0.3-1.5,0.3c-0.8,0-1.4-0.2-1.8-0.6
			c-0.5-0.4-0.7-1-0.7-1.6c0-0.8,0.3-1.4,1-1.8c0.6-0.4,1.5-0.7,2.7-0.7h1.6v-0.9c0-0.6-0.2-1-0.5-1.3c-0.3-0.3-0.9-0.5-1.5-0.5
			c-0.6,0-1.1,0.2-1.5,0.5c-0.4,0.3-0.6,0.7-0.6,1.1l-0.9,0c0-0.6,0.3-1.2,0.9-1.6c0.6-0.5,1.3-0.7,2.2-0.7c0.9,0,1.6,0.2,2.1,0.7
			c0.5,0.4,0.8,1.1,0.8,1.8v3.8c0,0.8,0.1,1.3,0.2,1.7v0.1H312.7z M309.9,74.5c0.6,0,1.1-0.1,1.6-0.4c0.5-0.3,0.8-0.7,1-1.1v-1.7
			h-1.6c-0.9,0-1.6,0.2-2.1,0.5c-0.5,0.3-0.7,0.7-0.7,1.3c0,0.4,0.2,0.8,0.5,1.1C309,74.4,309.4,74.5,309.9,74.5z M311.6,63.9h1.1
			l-1.7,2.1l-0.8,0L311.6,63.9z"/>
		<path d="M319.5,75.1V64.5h3.1c1.1,0,2,0.2,2.6,0.7c0.6,0.5,0.9,1.2,0.9,2.1c0,0.6-0.2,1-0.5,1.4c-0.3,0.4-0.7,0.7-1.2,0.9
			c0.6,0.1,1.1,0.4,1.5,0.9c0.4,0.5,0.6,1,0.6,1.6c0,0.9-0.3,1.7-0.9,2.2c-0.6,0.5-1.5,0.8-2.5,0.8H319.5z M320.4,69.3h2.5
			c0.8,0,1.3-0.2,1.7-0.5c0.4-0.3,0.6-0.8,0.6-1.5c0-0.7-0.2-1.2-0.6-1.5c-0.4-0.3-1.1-0.5-1.9-0.5h-2.2V69.3z M320.4,70v4.4h2.7
			c0.8,0,1.4-0.2,1.8-0.6c0.5-0.4,0.7-0.9,0.7-1.6c0-0.7-0.2-1.2-0.6-1.6c-0.4-0.4-1-0.6-1.8-0.6H320.4z"/>
		<path d="M332.2,68c-0.2,0-0.4-0.1-0.6-0.1c-0.5,0-1,0.2-1.4,0.5c-0.4,0.3-0.6,0.7-0.8,1.3v5.4h-0.9v-7.9h0.9l0,1.3
			c0.5-0.9,1.2-1.4,2.2-1.4c0.2,0,0.4,0,0.6,0.1L332.2,68z"/>
		<path d="M333.5,64.9c0-0.2,0.1-0.3,0.2-0.4c0.1-0.1,0.3-0.2,0.4-0.2s0.3,0.1,0.4,0.2c0.1,0.1,0.2,0.3,0.2,0.4s-0.1,0.3-0.2,0.4
			c-0.1,0.1-0.3,0.2-0.4,0.2s-0.3-0.1-0.4-0.2S333.5,65.1,333.5,64.9z M334.6,75.1h-0.9v-7.9h0.9V75.1z"/>
		<path d="M338.3,65.2v2h1.6v0.7h-1.6v5.3c0,0.4,0.1,0.8,0.2,1c0.2,0.2,0.4,0.3,0.8,0.3c0.1,0,0.4,0,0.7-0.1l0,0.7
			c-0.2,0.1-0.5,0.1-0.9,0.1c-0.6,0-1-0.2-1.3-0.5c-0.3-0.3-0.4-0.9-0.4-1.5v-5.3H336v-0.7h1.5v-2H338.3z"/>
		<path d="M346.8,75.1c-0.1-0.2-0.1-0.6-0.2-1.1c-0.3,0.4-0.7,0.7-1.2,0.9c-0.5,0.2-1,0.3-1.5,0.3c-0.8,0-1.4-0.2-1.8-0.6
			c-0.5-0.4-0.7-1-0.7-1.6c0-0.8,0.3-1.4,1-1.8c0.6-0.4,1.5-0.7,2.7-0.7h1.6v-0.9c0-0.6-0.2-1-0.5-1.3c-0.3-0.3-0.9-0.5-1.5-0.5
			c-0.6,0-1.1,0.2-1.5,0.5c-0.4,0.3-0.6,0.7-0.6,1.1l-0.9,0c0-0.6,0.3-1.2,0.9-1.6c0.6-0.5,1.3-0.7,2.2-0.7c0.9,0,1.6,0.2,2.1,0.7
			c0.5,0.4,0.8,1.1,0.8,1.8v3.8c0,0.8,0.1,1.3,0.2,1.7v0.1H346.8z M344,74.5c0.6,0,1.1-0.1,1.6-0.4c0.5-0.3,0.8-0.7,1-1.1v-1.7H345
			c-0.9,0-1.6,0.2-2.1,0.5c-0.5,0.3-0.7,0.7-0.7,1.3c0,0.4,0.2,0.8,0.5,1.1C343.1,74.4,343.5,74.5,344,74.5z M345.7,63.9h1.1
			l-1.7,2.1l-0.8,0L345.7,63.9z"/>
		<path d="M350.6,67.2l0,1.4c0.3-0.5,0.7-0.9,1.1-1.1c0.4-0.3,0.9-0.4,1.5-0.4c0.8,0,1.5,0.2,1.9,0.7s0.6,1.2,0.6,2.2v5.2h-0.9v-5.2
			c0-0.7-0.2-1.2-0.5-1.6c-0.3-0.3-0.8-0.5-1.4-0.5c-0.5,0-1,0.2-1.4,0.5c-0.4,0.3-0.7,0.8-0.9,1.4v5.4h-0.9v-7.9H350.6z"/>
		<path d="M358,64.9c0-0.2,0.1-0.3,0.2-0.4c0.1-0.1,0.3-0.2,0.4-0.2s0.3,0.1,0.4,0.2c0.1,0.1,0.2,0.3,0.2,0.4s-0.1,0.3-0.2,0.4
			c-0.1,0.1-0.3,0.2-0.4,0.2s-0.3-0.1-0.4-0.2S358,65.1,358,64.9z M359,75.1h-0.9v-7.9h0.9V75.1z"/>
		<path d="M364.5,75.3c-0.7,0-1.3-0.2-1.8-0.5c-0.5-0.3-1-0.8-1.3-1.4c-0.3-0.6-0.5-1.3-0.5-2v-0.3c0-0.8,0.1-1.4,0.4-2.1
			c0.3-0.6,0.7-1.1,1.2-1.4c0.5-0.3,1.1-0.5,1.7-0.5c1,0,1.7,0.3,2.3,1c0.6,0.7,0.8,1.6,0.8,2.7v0.5h-5.7v0.2c0,0.9,0.3,1.6,0.8,2.2
			c0.5,0.6,1.2,0.9,1.9,0.9c0.5,0,0.9-0.1,1.2-0.3c0.4-0.2,0.7-0.4,1-0.8l0.5,0.4C366.6,74.8,365.7,75.3,364.5,75.3z M364.3,67.8
			c-0.7,0-1.2,0.2-1.7,0.7c-0.5,0.5-0.7,1.1-0.8,1.9h4.8v-0.1c0-0.8-0.2-1.4-0.7-1.9S365,67.8,364.3,67.8z"/>
		<path d="M372.3,71.1c0-0.8,0.1-1.4,0.4-2.1c0.3-0.6,0.7-1.1,1.3-1.4c0.5-0.3,1.2-0.5,1.8-0.5c1.1,0,1.9,0.4,2.6,1.1
			c0.7,0.7,1,1.7,1,2.9v0.2c0,0.8-0.1,1.5-0.4,2.1c-0.3,0.6-0.7,1.1-1.2,1.4c-0.5,0.3-1.2,0.5-1.8,0.5c-1,0-1.9-0.4-2.6-1.1
			c-0.7-0.7-1-1.7-1-2.9V71.1z M373.2,71.3c0,0.9,0.2,1.7,0.7,2.3c0.5,0.6,1.1,0.9,1.9,0.9c0.8,0,1.4-0.3,1.9-0.9
			c0.5-0.6,0.7-1.4,0.7-2.4v-0.2c0-0.6-0.1-1.2-0.3-1.7s-0.5-0.9-0.9-1.2c-0.4-0.3-0.9-0.4-1.4-0.4c-0.8,0-1.4,0.3-1.9,0.9
			c-0.5,0.6-0.7,1.4-0.7,2.4V71.3z"/>
		<path d="M380.8,71.1c0-1.2,0.3-2.2,0.8-2.9c0.5-0.7,1.3-1.1,2.2-1.1c1.1,0,1.9,0.4,2.4,1.3v-4.4h0.9v11.3h-0.8l0-1.1
			c-0.6,0.8-1.4,1.2-2.5,1.2c-0.9,0-1.6-0.4-2.2-1.1c-0.6-0.7-0.8-1.7-0.8-3V71.1z M381.7,71.3c0,1,0.2,1.8,0.6,2.4
			c0.4,0.6,1,0.9,1.7,0.9c1.1,0,1.8-0.5,2.3-1.4v-3.7c-0.5-1-1.2-1.5-2.3-1.5c-0.7,0-1.3,0.3-1.7,0.9
			C381.9,69.3,381.7,70.1,381.7,71.3z"/>
		<path d="M392.5,74.6c0.6,0,1.1-0.2,1.5-0.5c0.4-0.3,0.6-0.8,0.7-1.3h0.8c0,0.5-0.2,0.9-0.5,1.3c-0.3,0.4-0.6,0.7-1.1,0.9
			c-0.5,0.2-1,0.3-1.5,0.3c-1,0-1.9-0.4-2.5-1.1c-0.6-0.7-0.9-1.7-0.9-2.9V71c0-0.8,0.1-1.5,0.4-2.1c0.3-0.6,0.7-1.1,1.2-1.4
			c0.5-0.3,1.1-0.5,1.8-0.5c0.9,0,1.6,0.3,2.2,0.8c0.6,0.5,0.9,1.2,0.9,2h-0.8c0-0.6-0.3-1.1-0.7-1.5c-0.4-0.4-0.9-0.6-1.5-0.6
			c-0.8,0-1.4,0.3-1.8,0.9c-0.4,0.6-0.7,1.4-0.7,2.4v0.3c0,1,0.2,1.8,0.7,2.4C391,74.3,391.7,74.6,392.5,74.6z"/>
		<path d="M398.1,68.6c0.3-0.5,0.7-0.8,1.1-1.1c0.4-0.3,0.9-0.4,1.5-0.4c0.8,0,1.5,0.2,1.9,0.7s0.6,1.2,0.6,2.2v5.2h-0.9v-5.2
			c0-0.7-0.2-1.2-0.5-1.6c-0.3-0.3-0.8-0.5-1.4-0.5c-0.5,0-1,0.2-1.4,0.5c-0.4,0.3-0.7,0.8-0.9,1.4v5.4h-0.9V63.9h0.9V68.6z"/>
		<path d="M405,71.1c0-0.8,0.1-1.4,0.4-2.1c0.3-0.6,0.7-1.1,1.3-1.4c0.5-0.3,1.2-0.5,1.8-0.5c1.1,0,1.9,0.4,2.6,1.1
			c0.7,0.7,1,1.7,1,2.9v0.2c0,0.8-0.1,1.5-0.4,2.1c-0.3,0.6-0.7,1.1-1.2,1.4c-0.5,0.3-1.2,0.5-1.8,0.5c-1,0-1.9-0.4-2.6-1.1
			c-0.7-0.7-1-1.7-1-2.9V71.1z M405.9,71.3c0,0.9,0.2,1.7,0.7,2.3c0.5,0.6,1.1,0.9,1.9,0.9c0.8,0,1.4-0.3,1.9-0.9
			c0.5-0.6,0.7-1.4,0.7-2.4v-0.2c0-0.6-0.1-1.2-0.3-1.7s-0.5-0.9-0.9-1.2c-0.4-0.3-0.9-0.4-1.4-0.4c-0.8,0-1.4,0.3-1.9,0.9
			c-0.5,0.6-0.7,1.4-0.7,2.4V71.3z"/>
		<path d="M413.5,71.1c0-1.2,0.3-2.2,0.8-2.9c0.5-0.7,1.3-1.1,2.2-1.1c1.1,0,1.9,0.4,2.4,1.3v-4.4h0.9v11.3h-0.8l0-1.1
			c-0.6,0.8-1.4,1.2-2.5,1.2c-0.9,0-1.6-0.4-2.2-1.1c-0.6-0.7-0.8-1.7-0.8-3V71.1z M414.4,71.3c0,1,0.2,1.8,0.6,2.4
			c0.4,0.6,1,0.9,1.7,0.9c1.1,0,1.8-0.5,2.3-1.4v-3.7c-0.5-1-1.2-1.5-2.3-1.5c-0.7,0-1.3,0.3-1.7,0.9
			C414.6,69.3,414.4,70.1,414.4,71.3z"/>
		<path d="M425.3,75.3c-0.7,0-1.3-0.2-1.8-0.5c-0.5-0.3-1-0.8-1.3-1.4c-0.3-0.6-0.5-1.3-0.5-2v-0.3c0-0.8,0.1-1.4,0.4-2.1
			c0.3-0.6,0.7-1.1,1.2-1.4c0.5-0.3,1.1-0.5,1.7-0.5c1,0,1.7,0.3,2.3,1c0.6,0.7,0.8,1.6,0.8,2.7v0.5h-5.7v0.2c0,0.9,0.3,1.6,0.8,2.2
			c0.5,0.6,1.2,0.9,1.9,0.9c0.5,0,0.9-0.1,1.2-0.3c0.4-0.2,0.7-0.4,1-0.8l0.5,0.4C427.5,74.8,426.5,75.3,425.3,75.3z M425.1,67.8
			c-0.7,0-1.2,0.2-1.7,0.7c-0.5,0.5-0.7,1.1-0.8,1.9h4.8v-0.1c0-0.8-0.2-1.4-0.7-1.9S425.8,67.8,425.1,67.8z"/>
		<path d="M430.8,67.2l0,1.3c0.3-0.5,0.7-0.8,1.1-1.1c0.4-0.2,0.9-0.4,1.5-0.4c1.2,0,2,0.5,2.4,1.5c0.3-0.5,0.7-0.9,1.1-1.1
			c0.5-0.3,1-0.4,1.6-0.4c1.7,0,2.6,0.9,2.6,2.8v5.3h-0.9v-5.2c0-0.7-0.2-1.2-0.5-1.6c-0.3-0.3-0.8-0.5-1.5-0.5
			c-0.6,0-1.2,0.2-1.6,0.6c-0.4,0.4-0.7,0.9-0.7,1.5v5.2H435v-5.3c0-0.7-0.2-1.2-0.5-1.5c-0.3-0.3-0.8-0.5-1.5-0.5
			c-0.6,0-1,0.2-1.4,0.5c-0.4,0.3-0.7,0.8-0.9,1.4v5.4h-0.9v-7.9H430.8z"/>
		<path d="M447.5,74.4h5.1v0.7h-6.2v-0.6l4.8-6.5h-4.7v-0.8h5.8v0.7L447.5,74.4z"/>
		<path d="M463.9,70h-5v4.4h5.7v0.8h-6.6V64.5h6.6v0.8H459v4h5V70z"/>
		<path d="M473.9,64.5v7.3c0,0.7-0.2,1.3-0.5,1.9s-0.8,0.9-1.3,1.2c-0.6,0.3-1.2,0.4-2,0.4c-1.1,0-2-0.3-2.7-0.9
			c-0.7-0.6-1-1.5-1.1-2.5v-7.3h0.9v7.2c0,0.9,0.3,1.6,0.8,2.1c0.5,0.5,1.2,0.7,2.1,0.7s1.6-0.2,2.1-0.7c0.5-0.5,0.8-1.2,0.8-2.1
			v-7.2H473.9z"/>
		<path d="M279.8,87.1c0-0.8,0.1-1.4,0.4-2.1c0.3-0.6,0.7-1.1,1.3-1.4c0.5-0.3,1.2-0.5,1.8-0.5c1.1,0,1.9,0.4,2.6,1.1
			c0.7,0.7,1,1.7,1,2.9v0.2c0,0.8-0.1,1.5-0.4,2.1c-0.3,0.6-0.7,1.1-1.2,1.4c-0.5,0.3-1.2,0.5-1.8,0.5c-1,0-1.9-0.4-2.6-1.1
			c-0.7-0.7-1-1.7-1-2.9V87.1z M280.7,87.3c0,0.9,0.2,1.7,0.7,2.3c0.5,0.6,1.1,0.9,1.9,0.9c0.8,0,1.4-0.3,1.9-0.9
			c0.5-0.6,0.7-1.4,0.7-2.4v-0.2c0-0.6-0.1-1.2-0.3-1.7s-0.5-0.9-0.9-1.2c-0.4-0.3-0.9-0.4-1.4-0.4c-0.8,0-1.4,0.3-1.9,0.9
			c-0.5,0.6-0.7,1.4-0.7,2.4V87.3z"/>
		<path d="M295,87.3c0,1.2-0.3,2.2-0.8,2.9c-0.5,0.7-1.3,1.1-2.2,1.1c-1.1,0-1.9-0.4-2.5-1.1v4h-0.9v-11h0.8l0,1.1
			c0.6-0.8,1.4-1.3,2.5-1.3c0.9,0,1.7,0.4,2.2,1.1c0.5,0.7,0.8,1.7,0.8,3V87.3z M294.2,87.1c0-1-0.2-1.8-0.6-2.4
			c-0.4-0.6-1-0.9-1.7-0.9c-0.5,0-1,0.1-1.4,0.4c-0.4,0.3-0.7,0.6-0.9,1.1v3.8c0.2,0.5,0.5,0.8,0.9,1c0.4,0.2,0.9,0.4,1.4,0.4
			c0.7,0,1.3-0.3,1.7-0.9C294,89.1,294.2,88.2,294.2,87.1z"/>
		<path d="M302.1,90.1c-0.5,0.8-1.4,1.2-2.5,1.2c-0.8,0-1.5-0.2-1.9-0.7c-0.4-0.5-0.7-1.2-0.7-2.2v-5.2h0.9v5c0,1.5,0.6,2.3,1.8,2.3
			c1.3,0,2.1-0.5,2.4-1.6v-5.7h0.9v7.9h-0.8L302.1,90.1z"/>
		<path d="M310,89.1c0-0.4-0.2-0.8-0.5-1c-0.3-0.3-0.9-0.5-1.6-0.6c-0.7-0.1-1.2-0.3-1.6-0.5c-0.4-0.2-0.7-0.4-0.9-0.7
			c-0.2-0.3-0.3-0.6-0.3-1c0-0.6,0.3-1.1,0.8-1.5c0.5-0.4,1.2-0.6,2-0.6c0.9,0,1.6,0.2,2.1,0.7c0.5,0.4,0.8,1,0.8,1.7h-0.9
			c0-0.5-0.2-0.8-0.6-1.2c-0.4-0.3-0.9-0.5-1.5-0.5c-0.6,0-1,0.1-1.4,0.4c-0.3,0.3-0.5,0.6-0.5,1c0,0.4,0.1,0.7,0.4,0.9
			c0.3,0.2,0.8,0.4,1.6,0.6c0.8,0.2,1.3,0.4,1.7,0.6c0.4,0.2,0.7,0.5,0.9,0.7s0.3,0.6,0.3,1c0,0.7-0.3,1.2-0.8,1.6
			c-0.5,0.4-1.2,0.6-2.1,0.6c-0.9,0-1.7-0.2-2.2-0.7c-0.6-0.4-0.9-1-0.9-1.7h0.9c0,0.5,0.2,0.9,0.6,1.2c0.4,0.3,0.9,0.4,1.6,0.4
			c0.6,0,1.1-0.1,1.5-0.4S310,89.5,310,89.1z"/>
		<path d="M314.2,81.2v2h1.6v0.7h-1.6v5.3c0,0.4,0.1,0.8,0.2,1c0.2,0.2,0.4,0.3,0.8,0.3c0.1,0,0.4,0,0.7-0.1l0,0.7
			c-0.2,0.1-0.5,0.1-0.9,0.1c-0.6,0-1-0.2-1.3-0.5c-0.3-0.3-0.4-0.9-0.4-1.5v-5.3h-1.5v-0.7h1.5v-2H314.2z"/>
		<path d="M317.6,80.9c0-0.2,0.1-0.3,0.2-0.4c0.1-0.1,0.3-0.2,0.4-0.2s0.3,0.1,0.4,0.2c0.1,0.1,0.2,0.3,0.2,0.4s-0.1,0.3-0.2,0.4
			c-0.1,0.1-0.3,0.2-0.4,0.2s-0.3-0.1-0.4-0.2S317.6,81.1,317.6,80.9z M318.6,91.1h-0.9v-7.9h0.9V91.1z"/>
		<path d="M322,91.1h-0.9V79.9h0.9V91.1z"/>
		<path d="M329.4,91.1c-0.1-0.2-0.1-0.6-0.2-1.1c-0.3,0.4-0.7,0.7-1.2,0.9c-0.5,0.2-1,0.3-1.5,0.3c-0.8,0-1.4-0.2-1.8-0.6
			c-0.5-0.4-0.7-1-0.7-1.6c0-0.8,0.3-1.4,1-1.8c0.6-0.4,1.5-0.7,2.7-0.7h1.6v-0.9c0-0.6-0.2-1-0.5-1.3c-0.3-0.3-0.9-0.5-1.5-0.5
			c-0.6,0-1.1,0.2-1.5,0.5c-0.4,0.3-0.6,0.7-0.6,1.1l-0.9,0c0-0.6,0.3-1.2,0.9-1.6c0.6-0.5,1.3-0.7,2.2-0.7c0.9,0,1.6,0.2,2.1,0.7
			c0.5,0.4,0.8,1.1,0.8,1.8v3.8c0,0.8,0.1,1.3,0.2,1.7v0.1H329.4z M326.6,90.5c0.6,0,1.1-0.1,1.6-0.4c0.5-0.3,0.8-0.7,1-1.1v-1.7
			h-1.6c-0.9,0-1.6,0.2-2.1,0.5c-0.5,0.3-0.7,0.7-0.7,1.3c0,0.4,0.2,0.8,0.5,1.1C325.7,90.4,326.1,90.5,326.6,90.5z"/>
		<path d="M337.4,81.2v2h1.6v0.7h-1.6v5.3c0,0.4,0.1,0.8,0.2,1c0.2,0.2,0.4,0.3,0.8,0.3c0.1,0,0.4,0,0.7-0.1l0,0.7
			c-0.2,0.1-0.5,0.1-0.9,0.1c-0.6,0-1-0.2-1.3-0.5c-0.3-0.3-0.4-0.9-0.4-1.5v-5.3h-1.5v-0.7h1.5v-2H337.4z"/>
		<path d="M345.9,91.1c-0.1-0.2-0.1-0.6-0.2-1.1c-0.3,0.4-0.7,0.7-1.2,0.9c-0.5,0.2-1,0.3-1.5,0.3c-0.8,0-1.4-0.2-1.8-0.6
			c-0.5-0.4-0.7-1-0.7-1.6c0-0.8,0.3-1.4,1-1.8c0.6-0.4,1.5-0.7,2.7-0.7h1.6v-0.9c0-0.6-0.2-1-0.5-1.3c-0.3-0.3-0.9-0.5-1.5-0.5
			c-0.6,0-1.1,0.2-1.5,0.5c-0.4,0.3-0.6,0.7-0.6,1.1l-0.9,0c0-0.6,0.3-1.2,0.9-1.6c0.6-0.5,1.3-0.7,2.2-0.7c0.9,0,1.6,0.2,2.1,0.7
			c0.5,0.4,0.8,1.1,0.8,1.8v3.8c0,0.8,0.1,1.3,0.2,1.7v0.1H345.9z M343.1,90.5c0.6,0,1.1-0.1,1.6-0.4c0.5-0.3,0.8-0.7,1-1.1v-1.7
			h-1.6c-0.9,0-1.6,0.2-2.1,0.5c-0.5,0.3-0.7,0.7-0.7,1.3c0,0.4,0.2,0.8,0.5,1.1C342.2,90.4,342.6,90.5,343.1,90.5z"/>
		<path d="M350.8,87.2l-1,1v3h-0.9V79.9h0.9v7.2l0.8-0.9l3-3h1.1l-3.4,3.3l3.7,4.6h-1L350.8,87.2z"/>
		<path d="M359.2,91.3c-0.7,0-1.3-0.2-1.8-0.5c-0.5-0.3-1-0.8-1.3-1.4c-0.3-0.6-0.5-1.3-0.5-2v-0.3c0-0.8,0.1-1.4,0.4-2.1
			c0.3-0.6,0.7-1.1,1.2-1.4c0.5-0.3,1.1-0.5,1.7-0.5c1,0,1.7,0.3,2.3,1c0.6,0.7,0.8,1.6,0.8,2.7v0.5h-5.7v0.2c0,0.9,0.3,1.6,0.8,2.2
			c0.5,0.6,1.2,0.9,1.9,0.9c0.5,0,0.9-0.1,1.2-0.3c0.4-0.2,0.7-0.4,1-0.8l0.5,0.4C361.3,90.8,360.4,91.3,359.2,91.3z M359,83.8
			c-0.7,0-1.2,0.2-1.7,0.7c-0.5,0.5-0.7,1.1-0.8,1.9h4.8v-0.1c0-0.8-0.2-1.4-0.7-1.9S359.7,83.8,359,83.8z M360,79.9h1.1l-1.7,2.1
			l-0.8,0L360,79.9z"/>
		<path d="M373.6,86h-5v4.4h5.7v0.8h-6.6V80.5h6.6v0.8h-5.7v4h5V86z"/>
		<path d="M383.6,80.5v7.3c0,0.7-0.2,1.3-0.5,1.9s-0.8,0.9-1.3,1.2c-0.6,0.3-1.2,0.4-2,0.4c-1.1,0-2-0.3-2.7-0.9
			c-0.7-0.6-1-1.5-1.1-2.5v-7.3h0.9v7.2c0,0.9,0.3,1.6,0.8,2.1c0.5,0.5,1.2,0.7,2.1,0.7s1.6-0.2,2.1-0.7c0.5-0.5,0.8-1.2,0.8-2.1
			v-7.2H383.6z"/>
		<path d="M395.6,86h-5v4.4h5.7v0.8h-6.6V80.5h6.6v0.8h-5.7v4h5V86z"/>
		<path d="M405.7,81.2H402v9.9h-0.9v-9.9h-3.6v-0.8h8.2V81.2z"/>
		<path d="M413.3,88.5c0-0.6-0.2-1.1-0.6-1.4c-0.4-0.3-1.2-0.7-2.3-1c-1.1-0.3-1.9-0.6-2.4-1c-0.7-0.5-1.1-1.2-1.1-2
			c0-0.8,0.3-1.5,1-2c0.7-0.5,1.5-0.8,2.6-0.8c0.7,0,1.3,0.1,1.9,0.4c0.6,0.3,1,0.7,1.3,1.1s0.5,1,0.5,1.6h-0.9
			c0-0.7-0.2-1.3-0.7-1.8s-1.2-0.7-2-0.7c-0.8,0-1.5,0.2-1.9,0.5c-0.5,0.4-0.7,0.8-0.7,1.4c0,0.5,0.2,1,0.7,1.3
			c0.4,0.3,1.1,0.6,2.1,0.9s1.7,0.5,2.2,0.8c0.5,0.3,0.9,0.6,1.1,1c0.2,0.4,0.4,0.9,0.4,1.4c0,0.8-0.3,1.5-1,2
			c-0.7,0.5-1.6,0.8-2.7,0.8c-0.8,0-1.4-0.1-2.1-0.4c-0.6-0.3-1.1-0.6-1.4-1.1c-0.3-0.5-0.5-1-0.5-1.7h0.9c0,0.8,0.3,1.3,0.8,1.8
			c0.6,0.4,1.3,0.7,2.2,0.7c0.8,0,1.5-0.2,2-0.5C413,89.6,413.3,89.1,413.3,88.5z"/>
		<path d="M415.8,93.1l-0.5-0.4c0.4-0.6,0.7-1.2,0.7-1.9v-1.1h0.9v0.9C416.8,91.7,416.4,92.5,415.8,93.1z"/>
		<path d="M428.8,87.3c0,1.2-0.3,2.2-0.8,2.9c-0.5,0.7-1.3,1.1-2.2,1.1c-1.1,0-1.9-0.4-2.5-1.1v4h-0.9v-11h0.8l0,1.1
			c0.6-0.8,1.4-1.3,2.5-1.3c0.9,0,1.7,0.4,2.2,1.1c0.5,0.7,0.8,1.7,0.8,3V87.3z M428,87.1c0-1-0.2-1.8-0.6-2.4
			c-0.4-0.6-1-0.9-1.7-0.9c-0.5,0-1,0.1-1.4,0.4c-0.4,0.3-0.7,0.6-0.9,1.1v3.8c0.2,0.5,0.5,0.8,0.9,1c0.4,0.2,0.9,0.4,1.4,0.4
			c0.7,0,1.3-0.3,1.7-0.9C427.7,89.1,428,88.2,428,87.1z"/>
		<path d="M434.4,84c-0.2,0-0.4-0.1-0.6-0.1c-0.5,0-1,0.2-1.4,0.5c-0.4,0.3-0.6,0.7-0.8,1.3v5.4h-0.9v-7.9h0.9l0,1.3
			c0.5-0.9,1.2-1.4,2.2-1.4c0.2,0,0.4,0,0.6,0.1L434.4,84z"/>
		<path d="M435.2,87.1c0-0.8,0.1-1.4,0.4-2.1c0.3-0.6,0.7-1.1,1.3-1.4c0.5-0.3,1.2-0.5,1.8-0.5c1.1,0,1.9,0.4,2.6,1.1
			c0.7,0.7,1,1.7,1,2.9v0.2c0,0.8-0.1,1.5-0.4,2.1c-0.3,0.6-0.7,1.1-1.2,1.4c-0.5,0.3-1.2,0.5-1.8,0.5c-1,0-1.9-0.4-2.6-1.1
			c-0.7-0.7-1-1.7-1-2.9V87.1z M436.1,87.3c0,0.9,0.2,1.7,0.7,2.3c0.5,0.6,1.1,0.9,1.9,0.9c0.8,0,1.4-0.3,1.9-0.9
			c0.5-0.6,0.7-1.4,0.7-2.4v-0.2c0-0.6-0.1-1.2-0.3-1.7s-0.5-0.9-0.9-1.2c-0.4-0.3-0.9-0.4-1.4-0.4c-0.8,0-1.4,0.3-1.9,0.9
			c-0.5,0.6-0.7,1.4-0.7,2.4V87.3z"/>
		<path d="M445.4,81.2v2h1.6v0.7h-1.6v5.3c0,0.4,0.1,0.8,0.2,1c0.2,0.2,0.4,0.3,0.8,0.3c0.1,0,0.4,0,0.7-0.1l0,0.7
			c-0.2,0.1-0.5,0.1-0.9,0.1c-0.6,0-1-0.2-1.3-0.5c-0.3-0.3-0.4-0.9-0.4-1.5v-5.3h-1.5v-0.7h1.5v-2H445.4z"/>
		<path d="M448.3,87.1c0-0.8,0.1-1.4,0.4-2.1c0.3-0.6,0.7-1.1,1.3-1.4c0.5-0.3,1.2-0.5,1.8-0.5c1.1,0,1.9,0.4,2.6,1.1
			c0.7,0.7,1,1.7,1,2.9v0.2c0,0.8-0.1,1.5-0.4,2.1c-0.3,0.6-0.7,1.1-1.2,1.4c-0.5,0.3-1.2,0.5-1.8,0.5c-1,0-1.9-0.4-2.6-1.1
			c-0.7-0.7-1-1.7-1-2.9V87.1z M449.1,87.3c0,0.9,0.2,1.7,0.7,2.3c0.5,0.6,1.1,0.9,1.9,0.9c0.8,0,1.4-0.3,1.9-0.9
			c0.5-0.6,0.7-1.4,0.7-2.4v-0.2c0-0.6-0.1-1.2-0.3-1.7s-0.5-0.9-0.9-1.2c-0.4-0.3-0.9-0.4-1.4-0.4c-0.8,0-1.4,0.3-1.9,0.9
			c-0.5,0.6-0.7,1.4-0.7,2.4V87.3z"/>
		<path d="M460.4,87.1c0-1.2,0.3-2.2,0.8-2.9c0.5-0.7,1.3-1.1,2.2-1.1c1.1,0,1.9,0.4,2.4,1.3v-4.4h0.9v11.2H466l0-1.1
			c-0.6,0.8-1.4,1.2-2.5,1.2c-0.9,0-1.6-0.4-2.2-1.1c-0.6-0.7-0.8-1.7-0.8-3V87.1z M461.3,87.3c0,1,0.2,1.8,0.6,2.4
			c0.4,0.6,1,0.9,1.7,0.9c1.1,0,1.8-0.5,2.3-1.4v-3.7c-0.5-1-1.2-1.5-2.3-1.5c-0.7,0-1.3,0.3-1.7,0.9
			C461.5,85.3,461.3,86.1,461.3,87.3z"/>
		<path d="M468.6,87.1c0-0.8,0.1-1.4,0.4-2.1c0.3-0.6,0.7-1.1,1.3-1.4c0.5-0.3,1.2-0.5,1.8-0.5c1.1,0,1.9,0.4,2.6,1.1
			c0.7,0.7,1,1.7,1,2.9v0.2c0,0.8-0.1,1.5-0.4,2.1c-0.3,0.6-0.7,1.1-1.2,1.4c-0.5,0.3-1.2,0.5-1.8,0.5c-1,0-1.9-0.4-2.6-1.1
			c-0.7-0.7-1-1.7-1-2.9V87.1z M469.5,87.3c0,0.9,0.2,1.7,0.7,2.3c0.5,0.6,1.1,0.9,1.9,0.9c0.8,0,1.4-0.3,1.9-0.9
			c0.5-0.6,0.7-1.4,0.7-2.4v-0.2c0-0.6-0.1-1.2-0.3-1.7s-0.5-0.9-0.9-1.2c-0.4-0.3-0.9-0.4-1.4-0.4c-0.8,0-1.4,0.3-1.9,0.9
			c-0.5,0.6-0.7,1.4-0.7,2.4V87.3z"/>
		<path d="M482.3,89.1c0-0.4-0.2-0.8-0.5-1c-0.3-0.3-0.9-0.5-1.6-0.6c-0.7-0.1-1.2-0.3-1.6-0.5c-0.4-0.2-0.7-0.4-0.9-0.7
			c-0.2-0.3-0.3-0.6-0.3-1c0-0.6,0.3-1.1,0.8-1.5c0.5-0.4,1.2-0.6,2-0.6c0.9,0,1.6,0.2,2.1,0.7c0.5,0.4,0.8,1,0.8,1.7h-0.9
			c0-0.5-0.2-0.8-0.6-1.2c-0.4-0.3-0.9-0.5-1.5-0.5c-0.6,0-1,0.1-1.4,0.4c-0.3,0.3-0.5,0.6-0.5,1c0,0.4,0.1,0.7,0.4,0.9
			c0.3,0.2,0.8,0.4,1.6,0.6c0.8,0.2,1.3,0.4,1.7,0.6c0.4,0.2,0.7,0.5,0.9,0.7s0.3,0.6,0.3,1c0,0.7-0.3,1.2-0.8,1.6
			c-0.5,0.4-1.2,0.6-2.1,0.6c-0.9,0-1.7-0.2-2.2-0.7c-0.6-0.4-0.9-1-0.9-1.7h0.9c0,0.5,0.2,0.9,0.6,1.2c0.4,0.3,0.9,0.4,1.6,0.4
			c0.6,0,1.1-0.1,1.5-0.4S482.3,89.5,482.3,89.1z M480.3,81.4l1.3-1.4h0.8v0.1l-1.7,1.9H480l-1.7-1.9V80h0.8L480.3,81.4z"/>
		<path d="M486.1,91.1h-0.9V79.9h0.9V91.1z"/>
		<path d="M488,87.1c0-0.8,0.1-1.4,0.4-2.1c0.3-0.6,0.7-1.1,1.3-1.4c0.5-0.3,1.2-0.5,1.8-0.5c1.1,0,1.9,0.4,2.6,1.1
			c0.7,0.7,1,1.7,1,2.9v0.2c0,0.8-0.1,1.5-0.4,2.1c-0.3,0.6-0.7,1.1-1.2,1.4c-0.5,0.3-1.2,0.5-1.8,0.5c-1,0-1.9-0.4-2.6-1.1
			c-0.7-0.7-1-1.7-1-2.9V87.1z M488.9,87.3c0,0.9,0.2,1.7,0.7,2.3c0.5,0.6,1.1,0.9,1.9,0.9c0.8,0,1.4-0.3,1.9-0.9
			c0.5-0.6,0.7-1.4,0.7-2.4v-0.2c0-0.6-0.1-1.2-0.3-1.7s-0.5-0.9-0.9-1.2c-0.4-0.3-0.9-0.4-1.4-0.4c-0.8,0-1.4,0.3-1.9,0.9
			c-0.5,0.6-0.7,1.4-0.7,2.4V87.3z"/>
		<path d="M282.2,103.2l-1,1v3h-0.9V95.9h0.9v7.2l0.8-0.9l3-3h1.1l-3.4,3.3l3.7,4.6h-1L282.2,103.2z"/>
		<path d="M290.5,107.3c-0.7,0-1.3-0.2-1.8-0.5c-0.5-0.3-1-0.8-1.3-1.4c-0.3-0.6-0.5-1.3-0.5-2v-0.3c0-0.8,0.1-1.4,0.4-2.1
			c0.3-0.6,0.7-1.1,1.2-1.4c0.5-0.3,1.1-0.5,1.7-0.5c1,0,1.7,0.3,2.3,1c0.6,0.7,0.8,1.6,0.8,2.7v0.5h-5.7v0.2c0,0.9,0.3,1.6,0.8,2.2
			c0.5,0.6,1.2,0.9,1.9,0.9c0.5,0,0.9-0.1,1.2-0.3c0.4-0.2,0.7-0.4,1-0.8l0.5,0.4C292.7,106.8,291.8,107.3,290.5,107.3z M290.4,99.8
			c-0.7,0-1.2,0.2-1.7,0.7c-0.5,0.5-0.7,1.1-0.8,1.9h4.8v-0.1c0-0.8-0.2-1.4-0.7-1.9S291,99.8,290.4,99.8z"/>
		<path d="M303.6,105.1c0-0.4-0.2-0.8-0.5-1c-0.3-0.3-0.9-0.5-1.6-0.6c-0.7-0.1-1.2-0.3-1.6-0.5c-0.4-0.2-0.7-0.4-0.9-0.7
			c-0.2-0.3-0.3-0.6-0.3-1c0-0.6,0.3-1.1,0.8-1.5c0.5-0.4,1.2-0.6,2-0.6c0.9,0,1.6,0.2,2.1,0.7c0.5,0.4,0.8,1,0.8,1.7h-0.9
			c0-0.5-0.2-0.8-0.6-1.2c-0.4-0.3-0.9-0.5-1.5-0.5c-0.6,0-1,0.1-1.4,0.4c-0.3,0.3-0.5,0.6-0.5,1c0,0.4,0.1,0.7,0.4,0.9
			c0.3,0.2,0.8,0.4,1.6,0.6c0.8,0.2,1.3,0.4,1.7,0.6c0.4,0.2,0.7,0.5,0.9,0.7s0.3,0.6,0.3,1c0,0.7-0.3,1.2-0.8,1.6
			c-0.5,0.4-1.2,0.6-2.1,0.6c-0.9,0-1.7-0.2-2.2-0.7c-0.6-0.4-0.9-1-0.9-1.7h0.9c0,0.5,0.2,0.9,0.6,1.2c0.4,0.3,0.9,0.4,1.6,0.4
			c0.6,0,1.1-0.1,1.5-0.4S303.6,105.5,303.6,105.1z"/>
		<path d="M308.3,103.2l-1,1v3h-0.9V95.9h0.9v7.2l0.8-0.9l3-3h1.1l-3.4,3.3l3.7,4.6h-1L308.3,103.2z"/>
		<path d="M313.3,103.1c0-0.8,0.1-1.4,0.4-2.1c0.3-0.6,0.7-1.1,1.3-1.4c0.5-0.3,1.2-0.5,1.8-0.5c1.1,0,1.9,0.4,2.6,1.1
			c0.7,0.7,1,1.7,1,2.9v0.2c0,0.8-0.1,1.5-0.4,2.1c-0.3,0.6-0.7,1.1-1.2,1.4c-0.5,0.3-1.2,0.5-1.8,0.5c-1,0-1.9-0.4-2.6-1.1
			c-0.7-0.7-1-1.7-1-2.9V103.1z M314.2,103.3c0,0.9,0.2,1.7,0.7,2.3c0.5,0.6,1.1,0.9,1.9,0.9c0.8,0,1.4-0.3,1.9-0.9
			c0.5-0.6,0.7-1.4,0.7-2.4v-0.2c0-0.6-0.1-1.2-0.3-1.7s-0.5-0.9-0.9-1.2c-0.4-0.3-0.9-0.4-1.4-0.4c-0.8,0-1.4,0.3-1.9,0.9
			c-0.5,0.6-0.7,1.4-0.7,2.4V103.3z"/>
		<path d="M324.1,103.2l-1,1v3h-0.9V95.9h0.9v7.2l0.8-0.9l3-3h1.1l-3.4,3.3l3.7,4.6h-1L324.1,103.2z"/>
		<path d="M329.1,103.1c0-0.8,0.1-1.4,0.4-2.1c0.3-0.6,0.7-1.1,1.3-1.4c0.5-0.3,1.2-0.5,1.8-0.5c1.1,0,1.9,0.4,2.6,1.1
			c0.7,0.7,1,1.7,1,2.9v0.2c0,0.8-0.1,1.5-0.4,2.1c-0.3,0.6-0.7,1.1-1.2,1.4c-0.5,0.3-1.2,0.5-1.8,0.5c-1,0-1.9-0.4-2.6-1.1
			c-0.7-0.7-1-1.7-1-2.9V103.1z M330,103.3c0,0.9,0.2,1.7,0.7,2.3c0.5,0.6,1.1,0.9,1.9,0.9c0.8,0,1.4-0.3,1.9-0.9
			c0.5-0.6,0.7-1.4,0.7-2.4v-0.2c0-0.6-0.1-1.2-0.3-1.7s-0.5-0.9-0.9-1.2c-0.4-0.3-0.9-0.4-1.4-0.4c-0.8,0-1.4,0.3-1.9,0.9
			c-0.5,0.6-0.7,1.4-0.7,2.4V103.3z"/>
		<path d="M340.3,105.9l2.4-6.7h0.9l-3,7.9H340l-3-7.9h0.9L340.3,105.9z"/>
		<path d="M348,107.3c-0.7,0-1.3-0.2-1.8-0.5c-0.5-0.3-1-0.8-1.3-1.4c-0.3-0.6-0.5-1.3-0.5-2v-0.3c0-0.8,0.1-1.4,0.4-2.1
			c0.3-0.6,0.7-1.1,1.2-1.4c0.5-0.3,1.1-0.5,1.7-0.5c1,0,1.7,0.3,2.3,1c0.6,0.7,0.8,1.6,0.8,2.7v0.5h-5.7v0.2c0,0.9,0.3,1.6,0.8,2.2
			c0.5,0.6,1.2,0.9,1.9,0.9c0.5,0,0.9-0.1,1.2-0.3c0.4-0.2,0.7-0.4,1-0.8l0.5,0.4C350.2,106.8,349.3,107.3,348,107.3z M347.9,99.8
			c-0.7,0-1.2,0.2-1.7,0.7c-0.5,0.5-0.7,1.1-0.8,1.9h4.8v-0.1c0-0.8-0.2-1.4-0.7-1.9S348.5,99.8,347.9,99.8z M348.8,95.9h1.1
			l-1.7,2.1l-0.8,0L348.8,95.9z"/>
		<path d="M353.5,99.2l0,1.3c0.3-0.5,0.7-0.8,1.1-1.1c0.4-0.2,0.9-0.4,1.5-0.4c1.2,0,2,0.5,2.4,1.5c0.3-0.5,0.7-0.9,1.1-1.1
			c0.5-0.3,1-0.4,1.6-0.4c1.7,0,2.6,0.9,2.6,2.8v5.3h-0.9v-5.2c0-0.7-0.2-1.2-0.5-1.6c-0.3-0.3-0.8-0.5-1.5-0.5
			c-0.6,0-1.2,0.2-1.6,0.6c-0.4,0.4-0.7,0.9-0.7,1.5v5.2h-0.9v-5.3c0-0.7-0.2-1.2-0.5-1.5c-0.3-0.3-0.8-0.5-1.5-0.5
			c-0.6,0-1,0.2-1.4,0.5c-0.4,0.3-0.7,0.8-0.9,1.4v5.4h-0.9v-7.9H353.5z"/>
		<path d="M371.1,106.1c-0.5,0.8-1.4,1.2-2.5,1.2c-0.8,0-1.5-0.2-1.9-0.7c-0.4-0.5-0.7-1.2-0.7-2.2v-5.2h0.9v5
			c0,1.5,0.6,2.3,1.8,2.3c1.3,0,2.1-0.5,2.4-1.6v-5.7h0.9v7.9h-0.8L371.1,106.1z"/>
		<path d="M382.6,105.1c0-0.4-0.2-0.8-0.5-1c-0.3-0.3-0.9-0.5-1.6-0.6c-0.7-0.1-1.2-0.3-1.6-0.5c-0.4-0.2-0.7-0.4-0.9-0.7
			c-0.2-0.3-0.3-0.6-0.3-1c0-0.6,0.3-1.1,0.8-1.5c0.5-0.4,1.2-0.6,2-0.6c0.9,0,1.6,0.2,2.1,0.7c0.5,0.4,0.8,1,0.8,1.7h-0.9
			c0-0.5-0.2-0.8-0.6-1.2c-0.4-0.3-0.9-0.5-1.5-0.5c-0.6,0-1,0.1-1.4,0.4c-0.3,0.3-0.5,0.6-0.5,1c0,0.4,0.1,0.7,0.4,0.9
			c0.3,0.2,0.8,0.4,1.6,0.6c0.8,0.2,1.3,0.4,1.7,0.6c0.4,0.2,0.7,0.5,0.9,0.7s0.3,0.6,0.3,1c0,0.7-0.3,1.2-0.8,1.6
			c-0.5,0.4-1.2,0.6-2.1,0.6c-0.9,0-1.7-0.2-2.2-0.7c-0.6-0.4-0.9-1-0.9-1.7h0.9c0,0.5,0.2,0.9,0.6,1.2c0.4,0.3,0.9,0.4,1.6,0.4
			c0.6,0,1.1-0.1,1.5-0.4S382.6,105.5,382.6,105.1z"/>
		<path d="M386.3,99.2l0,1.4c0.3-0.5,0.7-0.9,1.1-1.1c0.4-0.3,0.9-0.4,1.5-0.4c0.8,0,1.5,0.2,1.9,0.7s0.6,1.2,0.6,2.2v5.2h-0.9v-5.2
			c0-0.7-0.2-1.2-0.5-1.6c-0.3-0.3-0.8-0.5-1.4-0.5c-0.5,0-1,0.2-1.4,0.5c-0.4,0.3-0.7,0.8-0.9,1.4v5.4h-0.9v-7.9H386.3z"/>
		<path d="M395.2,96h1.1l-1.7,2.1l-0.8,0L395.2,96z M394.7,107.1h-0.9v-7.9h0.9V107.1z"/>
		<path d="M397.6,106.4h5.1v0.7h-6.2v-0.6l4.8-6.5h-4.7v-0.8h5.8v0.7L397.6,106.4z M399.7,97.4l1.3-1.4h0.8v0.1L400,98h-0.6
			l-1.7-1.9V96h0.8L399.7,97.4z"/>
		<path d="M407.3,107.3c-0.7,0-1.3-0.2-1.8-0.5c-0.5-0.3-1-0.8-1.3-1.4c-0.3-0.6-0.5-1.3-0.5-2v-0.3c0-0.8,0.1-1.4,0.4-2.1
			c0.3-0.6,0.7-1.1,1.2-1.4c0.5-0.3,1.1-0.5,1.7-0.5c1,0,1.7,0.3,2.3,1c0.6,0.7,0.8,1.6,0.8,2.7v0.5h-5.7v0.2c0,0.9,0.3,1.6,0.8,2.2
			c0.5,0.6,1.2,0.9,1.9,0.9c0.5,0,0.9-0.1,1.2-0.3c0.4-0.2,0.7-0.4,1-0.8l0.5,0.4C409.5,106.8,408.5,107.3,407.3,107.3z M407.2,99.8
			c-0.7,0-1.2,0.2-1.7,0.7c-0.5,0.5-0.7,1.1-0.8,1.9h4.8v-0.1c0-0.8-0.2-1.4-0.7-1.9S407.8,99.8,407.2,99.8z"/>
		<path d="M412.8,99.2l0,1.4c0.3-0.5,0.7-0.9,1.1-1.1c0.4-0.3,0.9-0.4,1.5-0.4c0.8,0,1.5,0.2,1.9,0.7s0.6,1.2,0.6,2.2v5.2h-0.9v-5.2
			c0-0.7-0.2-1.2-0.5-1.6c-0.3-0.3-0.8-0.5-1.4-0.5c-0.5,0-1,0.2-1.4,0.5c-0.4,0.3-0.7,0.8-0.9,1.4v5.4H412v-7.9H412.8z"/>
		<path d="M421.7,96h1.1L421,98l-0.8,0L421.7,96z M421.2,107.1h-0.9v-7.9h0.9V107.1z"/>
		<path d="M428,99.2l0,1.3c0.3-0.5,0.7-0.8,1.1-1.1c0.4-0.2,0.9-0.4,1.5-0.4c1.2,0,2,0.5,2.4,1.5c0.3-0.5,0.7-0.9,1.1-1.1
			c0.5-0.3,1-0.4,1.6-0.4c1.7,0,2.6,0.9,2.6,2.8v5.3h-0.9v-5.2c0-0.7-0.2-1.2-0.5-1.6c-0.3-0.3-0.8-0.5-1.5-0.5
			c-0.6,0-1.2,0.2-1.6,0.6c-0.4,0.4-0.7,0.9-0.7,1.5v5.2h-0.9v-5.3c0-0.7-0.2-1.2-0.5-1.5c-0.3-0.3-0.8-0.5-1.5-0.5
			c-0.6,0-1,0.2-1.4,0.5c-0.4,0.3-0.7,0.8-0.9,1.4v5.4h-0.9v-7.9H428z"/>
		<path d="M441.4,99.2l0,1.4c0.3-0.5,0.7-0.9,1.1-1.1c0.4-0.3,0.9-0.4,1.5-0.4c0.8,0,1.5,0.2,1.9,0.7s0.6,1.2,0.6,2.2v5.2h-0.9v-5.2
			c0-0.7-0.2-1.2-0.5-1.6c-0.3-0.3-0.8-0.5-1.4-0.5c-0.5,0-1,0.2-1.4,0.5c-0.4,0.3-0.7,0.8-0.9,1.4v5.4h-0.9v-7.9H441.4z"/>
		<path d="M448.3,103.1c0-0.8,0.1-1.4,0.4-2.1c0.3-0.6,0.7-1.1,1.3-1.4c0.5-0.3,1.2-0.5,1.8-0.5c1.1,0,1.9,0.4,2.6,1.1
			c0.7,0.7,1,1.7,1,2.9v0.2c0,0.8-0.1,1.5-0.4,2.1c-0.3,0.6-0.7,1.1-1.2,1.4c-0.5,0.3-1.2,0.5-1.8,0.5c-1,0-1.9-0.4-2.6-1.1
			c-0.7-0.7-1-1.7-1-2.9V103.1z M449.2,103.3c0,0.9,0.2,1.7,0.7,2.3c0.5,0.6,1.1,0.9,1.9,0.9c0.8,0,1.4-0.3,1.9-0.9
			c0.5-0.6,0.7-1.4,0.7-2.4v-0.2c0-0.6-0.1-1.2-0.3-1.7s-0.5-0.9-0.9-1.2c-0.4-0.3-0.9-0.4-1.4-0.4c-0.8,0-1.4,0.3-1.9,0.9
			c-0.5,0.6-0.7,1.4-0.7,2.4V103.3z"/>
		<path d="M457.6,106.4h5.1v0.7h-6.2v-0.6l4.8-6.5h-4.7v-0.8h5.8v0.7L457.6,106.4z M459.6,97.4l1.3-1.4h0.8v0.1L460,98h-0.6
			l-1.7-1.9V96h0.8L459.6,97.4z"/>
		<path d="M469.1,105.1c0-0.4-0.2-0.8-0.5-1c-0.3-0.3-0.9-0.5-1.6-0.6c-0.7-0.1-1.2-0.3-1.6-0.5c-0.4-0.2-0.7-0.4-0.9-0.7
			c-0.2-0.3-0.3-0.6-0.3-1c0-0.6,0.3-1.1,0.8-1.5c0.5-0.4,1.2-0.6,2-0.6c0.9,0,1.6,0.2,2.1,0.7c0.5,0.4,0.8,1,0.8,1.7H469
			c0-0.5-0.2-0.8-0.6-1.2c-0.4-0.3-0.9-0.5-1.5-0.5c-0.6,0-1,0.1-1.4,0.4c-0.3,0.3-0.5,0.6-0.5,1c0,0.4,0.1,0.7,0.4,0.9
			c0.3,0.2,0.8,0.4,1.6,0.6c0.8,0.2,1.3,0.4,1.7,0.6c0.4,0.2,0.7,0.5,0.9,0.7s0.3,0.6,0.3,1c0,0.7-0.3,1.2-0.8,1.6
			c-0.5,0.4-1.2,0.6-2.1,0.6c-0.9,0-1.7-0.2-2.2-0.7c-0.6-0.4-0.9-1-0.9-1.7h0.9c0,0.5,0.2,0.9,0.6,1.2c0.4,0.3,0.9,0.4,1.6,0.4
			c0.6,0,1.1-0.1,1.5-0.4S469.1,105.5,469.1,105.1z"/>
		<path d="M473.3,97.2v2h1.6v0.7h-1.6v5.3c0,0.4,0.1,0.8,0.2,1c0.2,0.2,0.4,0.3,0.8,0.3c0.1,0,0.4,0,0.7-0.1l0,0.7
			c-0.2,0.1-0.5,0.1-0.9,0.1c-0.6,0-1-0.2-1.3-0.5c-0.3-0.3-0.4-0.9-0.4-1.5v-5.3H471v-0.7h1.5v-2H473.3z"/>
		<path d="M479.2,105.9l2.4-6.7h0.9l-3,7.9h-0.7l-3-7.9h0.9L479.2,105.9z"/>
		<path d="M485.4,96h1.1l-1.7,2.1l-0.8,0L485.4,96z M484.9,107.1h-0.9v-7.9h0.9V107.1z"/>
		<path d="M285.3,123.1c-0.1-0.2-0.1-0.6-0.2-1.1c-0.3,0.4-0.7,0.7-1.2,0.9c-0.5,0.2-1,0.3-1.5,0.3c-0.8,0-1.4-0.2-1.8-0.6
			c-0.5-0.4-0.7-1-0.7-1.6c0-0.8,0.3-1.4,1-1.8c0.6-0.4,1.5-0.7,2.7-0.7h1.6v-0.9c0-0.6-0.2-1-0.5-1.3c-0.3-0.3-0.9-0.5-1.5-0.5
			c-0.6,0-1.1,0.2-1.5,0.5c-0.4,0.3-0.6,0.7-0.6,1.1l-0.9,0c0-0.6,0.3-1.2,0.9-1.6c0.6-0.5,1.3-0.7,2.2-0.7c0.9,0,1.6,0.2,2.1,0.7
			c0.5,0.4,0.8,1.1,0.8,1.8v3.8c0,0.8,0.1,1.3,0.2,1.7v0.1H285.3z M282.5,122.5c0.6,0,1.1-0.1,1.6-0.4c0.5-0.3,0.8-0.7,1-1.1v-1.7
			h-1.6c-0.9,0-1.6,0.2-2.1,0.5c-0.5,0.3-0.7,0.7-0.7,1.3c0,0.4,0.2,0.8,0.5,1.1C281.6,122.4,282,122.5,282.5,122.5z"/>
		<path d="M289.3,123.1h-0.9v-11.2h0.9V123.1z"/>
		<path d="M291.2,119.1c0-0.8,0.1-1.4,0.4-2.1c0.3-0.6,0.7-1.1,1.3-1.4c0.5-0.3,1.2-0.5,1.8-0.5c1.1,0,1.9,0.4,2.6,1.1
			c0.7,0.7,1,1.7,1,2.9v0.2c0,0.8-0.1,1.5-0.4,2.1c-0.3,0.6-0.7,1.1-1.2,1.4c-0.5,0.3-1.2,0.5-1.8,0.5c-1,0-1.9-0.4-2.6-1.1
			c-0.7-0.7-1-1.7-1-2.9V119.1z M292.1,119.3c0,0.9,0.2,1.7,0.7,2.3c0.5,0.6,1.1,0.9,1.9,0.9c0.8,0,1.4-0.3,1.9-0.9
			c0.5-0.6,0.7-1.4,0.7-2.4v-0.2c0-0.6-0.1-1.2-0.3-1.7s-0.5-0.9-0.9-1.2c-0.4-0.3-0.9-0.4-1.4-0.4c-0.8,0-1.4,0.3-1.9,0.9
			c-0.5,0.6-0.7,1.4-0.7,2.4V119.3z"/>
		<path d="M302,119.2l-1,1v3h-0.9v-11.2h0.9v7.2l0.8-0.9l3-3h1.1l-3.4,3.3l3.7,4.6h-1L302,119.2z"/>
		<path d="M306.9,119.1c0-0.8,0.1-1.4,0.4-2.1c0.3-0.6,0.7-1.1,1.3-1.4c0.5-0.3,1.2-0.5,1.8-0.5c1.1,0,1.9,0.4,2.6,1.1
			c0.7,0.7,1,1.7,1,2.9v0.2c0,0.8-0.1,1.5-0.4,2.1c-0.3,0.6-0.7,1.1-1.2,1.4c-0.5,0.3-1.2,0.5-1.8,0.5c-1,0-1.9-0.4-2.6-1.1
			c-0.7-0.7-1-1.7-1-2.9V119.1z M307.8,119.3c0,0.9,0.2,1.7,0.7,2.3c0.5,0.6,1.1,0.9,1.9,0.9c0.8,0,1.4-0.3,1.9-0.9
			c0.5-0.6,0.7-1.4,0.7-2.4v-0.2c0-0.6-0.1-1.2-0.3-1.7s-0.5-0.9-0.9-1.2c-0.4-0.3-0.9-0.4-1.4-0.4c-0.8,0-1.4,0.3-1.9,0.9
			c-0.5,0.6-0.7,1.4-0.7,2.4V119.3z"/>
		<path d="M318.2,121.9l2.4-6.7h0.9l-3,7.9h-0.7l-3-7.9h0.9L318.2,121.9z"/>
		<path d="M327.8,123.1c-0.1-0.2-0.1-0.6-0.2-1.1c-0.3,0.4-0.7,0.7-1.2,0.9c-0.5,0.2-1,0.3-1.5,0.3c-0.8,0-1.4-0.2-1.8-0.6
			c-0.5-0.4-0.7-1-0.7-1.6c0-0.8,0.3-1.4,1-1.8c0.6-0.4,1.5-0.7,2.7-0.7h1.6v-0.9c0-0.6-0.2-1-0.5-1.3c-0.3-0.3-0.9-0.5-1.5-0.5
			c-0.6,0-1.1,0.2-1.5,0.5c-0.4,0.3-0.6,0.7-0.6,1.1l-0.9,0c0-0.6,0.3-1.2,0.9-1.6c0.6-0.5,1.3-0.7,2.2-0.7c0.9,0,1.6,0.2,2.1,0.7
			c0.5,0.4,0.8,1.1,0.8,1.8v3.8c0,0.8,0.1,1.3,0.2,1.7v0.1H327.8z M325.1,122.5c0.6,0,1.1-0.1,1.6-0.4c0.5-0.3,0.8-0.7,1-1.1v-1.7
			h-1.6c-0.9,0-1.6,0.2-2.1,0.5c-0.5,0.3-0.7,0.7-0.7,1.3c0,0.4,0.2,0.8,0.5,1.1C324.1,122.4,324.5,122.5,325.1,122.5z"/>
		<path d="M331.7,115.2l0,1.4c0.3-0.5,0.7-0.9,1.1-1.1c0.4-0.3,0.9-0.4,1.5-0.4c0.8,0,1.5,0.2,1.9,0.7s0.6,1.2,0.6,2.2v5.2H336v-5.2
			c0-0.7-0.2-1.2-0.5-1.6c-0.3-0.3-0.8-0.5-1.4-0.5c-0.5,0-1,0.2-1.4,0.5c-0.4,0.3-0.7,0.8-0.9,1.4v5.4h-0.9v-7.9H331.7z"/>
		<path d="M341.6,121.9l2.3-6.7h0.9l-3.4,9.3l-0.2,0.4c-0.4,1-1.1,1.4-2,1.4c-0.2,0-0.4,0-0.7-0.1l0-0.7l0.5,0c0.4,0,0.8-0.1,1-0.3
			c0.3-0.2,0.5-0.6,0.7-1.1l0.4-1.1l-3-7.9h1L341.6,121.9z M342.6,111.9h1.1l-1.7,2.1l-0.8,0L342.6,111.9z"/>
		<path d="M349,122.6c0.6,0,1.1-0.2,1.5-0.5c0.4-0.3,0.6-0.8,0.7-1.3h0.8c0,0.5-0.2,0.9-0.5,1.3c-0.3,0.4-0.6,0.7-1.1,0.9
			c-0.5,0.2-1,0.3-1.5,0.3c-1,0-1.9-0.4-2.5-1.1c-0.6-0.7-0.9-1.7-0.9-2.9V119c0-0.8,0.1-1.5,0.4-2.1c0.3-0.6,0.7-1.1,1.2-1.4
			c0.5-0.3,1.1-0.5,1.8-0.5c0.9,0,1.6,0.3,2.2,0.8c0.6,0.5,0.9,1.2,0.9,2h-0.8c0-0.6-0.3-1.1-0.7-1.5c-0.4-0.4-0.9-0.6-1.5-0.6
			c-0.8,0-1.4,0.3-1.8,0.9c-0.4,0.6-0.7,1.4-0.7,2.4v0.3c0,1,0.2,1.8,0.7,2.4C347.6,122.3,348.3,122.6,349,122.6z"/>
		<path d="M354.7,116.6c0.3-0.5,0.7-0.8,1.1-1.1c0.4-0.3,0.9-0.4,1.5-0.4c0.8,0,1.5,0.2,1.9,0.7s0.6,1.2,0.6,2.2v5.2H359v-5.2
			c0-0.7-0.2-1.2-0.5-1.6c-0.3-0.3-0.8-0.5-1.4-0.5c-0.5,0-1,0.2-1.4,0.5c-0.4,0.3-0.7,0.8-0.9,1.4v5.4h-0.9v-11.2h0.9V116.6z"/>
		<path d="M372.1,119.3c0,1.2-0.3,2.2-0.8,2.9c-0.5,0.7-1.3,1.1-2.2,1.1c-1.1,0-1.9-0.4-2.5-1.1v4h-0.9v-11h0.8l0,1.1
			c0.6-0.8,1.4-1.3,2.5-1.3c0.9,0,1.7,0.4,2.2,1.1c0.5,0.7,0.8,1.7,0.8,3V119.3z M371.2,119.1c0-1-0.2-1.8-0.6-2.4
			c-0.4-0.6-1-0.9-1.7-0.9c-0.5,0-1,0.1-1.4,0.4c-0.4,0.3-0.7,0.6-0.9,1.1v3.8c0.2,0.5,0.5,0.8,0.9,1c0.4,0.2,0.9,0.4,1.4,0.4
			c0.7,0,1.3-0.3,1.7-0.9C371,121.1,371.2,120.2,371.2,119.1z"/>
		<path d="M373.6,119.1c0-0.8,0.1-1.4,0.4-2.1c0.3-0.6,0.7-1.1,1.3-1.4c0.5-0.3,1.2-0.5,1.8-0.5c1.1,0,1.9,0.4,2.6,1.1
			c0.7,0.7,1,1.7,1,2.9v0.2c0,0.8-0.1,1.5-0.4,2.1c-0.3,0.6-0.7,1.1-1.2,1.4c-0.5,0.3-1.2,0.5-1.8,0.5c-1,0-1.9-0.4-2.6-1.1
			c-0.7-0.7-1-1.7-1-2.9V119.1z M374.4,119.3c0,0.9,0.2,1.7,0.7,2.3c0.5,0.6,1.1,0.9,1.9,0.9c0.8,0,1.4-0.3,1.9-0.9
			c0.5-0.6,0.7-1.4,0.7-2.4v-0.2c0-0.6-0.1-1.2-0.3-1.7s-0.5-0.9-0.9-1.2c-0.4-0.3-0.9-0.4-1.4-0.4c-0.8,0-1.4,0.3-1.9,0.9
			c-0.5,0.6-0.7,1.4-0.7,2.4V119.3z"/>
		<path d="M384.8,121.9l2.4-6.7h0.9l-3,7.9h-0.7l-3-7.9h0.9L384.8,121.9z"/>
		<path d="M388.9,119.1c0-0.8,0.1-1.4,0.4-2.1c0.3-0.6,0.7-1.1,1.3-1.4c0.5-0.3,1.2-0.5,1.8-0.5c1.1,0,1.9,0.4,2.6,1.1
			c0.7,0.7,1,1.7,1,2.9v0.2c0,0.8-0.1,1.5-0.4,2.1c-0.3,0.6-0.7,1.1-1.2,1.4c-0.5,0.3-1.2,0.5-1.8,0.5c-1,0-1.9-0.4-2.6-1.1
			c-0.7-0.7-1-1.7-1-2.9V119.1z M389.8,119.3c0,0.9,0.2,1.7,0.7,2.3c0.5,0.6,1.1,0.9,1.9,0.9c0.8,0,1.4-0.3,1.9-0.9
			c0.5-0.6,0.7-1.4,0.7-2.4v-0.2c0-0.6-0.1-1.2-0.3-1.7s-0.5-0.9-0.9-1.2c-0.4-0.3-0.9-0.4-1.4-0.4c-0.8,0-1.4,0.3-1.9,0.9
			c-0.5,0.6-0.7,1.4-0.7,2.4V119.3z"/>
		<path d="M398.8,123.1h-0.9v-11.2h0.9V123.1z"/>
		<path d="M404.3,123.3c-0.7,0-1.3-0.2-1.8-0.5c-0.5-0.3-1-0.8-1.3-1.4c-0.3-0.6-0.5-1.3-0.5-2v-0.3c0-0.8,0.1-1.4,0.4-2.1
			c0.3-0.6,0.7-1.1,1.2-1.4c0.5-0.3,1.1-0.5,1.7-0.5c1,0,1.7,0.3,2.3,1c0.6,0.7,0.8,1.6,0.8,2.7v0.5h-5.7v0.2c0,0.9,0.3,1.6,0.8,2.2
			c0.5,0.6,1.2,0.9,1.9,0.9c0.5,0,0.9-0.1,1.2-0.3c0.4-0.2,0.7-0.4,1-0.8l0.5,0.4C406.4,122.8,405.5,123.3,404.3,123.3z
			 M404.1,115.8c-0.7,0-1.2,0.2-1.7,0.7c-0.5,0.5-0.7,1.1-0.8,1.9h4.8v-0.1c0-0.8-0.2-1.4-0.7-1.9S404.8,115.8,404.1,115.8z"/>
		<path d="M409.8,115.2l0,1.4c0.3-0.5,0.7-0.9,1.1-1.1c0.4-0.3,0.9-0.4,1.5-0.4c0.8,0,1.5,0.2,1.9,0.7s0.6,1.2,0.6,2.2v5.2H414v-5.2
			c0-0.7-0.2-1.2-0.5-1.6c-0.3-0.3-0.8-0.5-1.4-0.5c-0.5,0-1,0.2-1.4,0.5c-0.4,0.3-0.7,0.8-0.9,1.4v5.4h-0.9v-7.9H409.8z"/>
		<path d="M420.3,123.3c-0.7,0-1.3-0.2-1.8-0.5c-0.5-0.3-1-0.8-1.3-1.4c-0.3-0.6-0.5-1.3-0.5-2v-0.3c0-0.8,0.1-1.4,0.4-2.1
			c0.3-0.6,0.7-1.1,1.2-1.4c0.5-0.3,1.1-0.5,1.7-0.5c1,0,1.7,0.3,2.3,1c0.6,0.7,0.8,1.6,0.8,2.7v0.5h-5.7v0.2c0,0.9,0.3,1.6,0.8,2.2
			c0.5,0.6,1.2,0.9,1.9,0.9c0.5,0,0.9-0.1,1.2-0.3c0.4-0.2,0.7-0.4,1-0.8l0.5,0.4C422.4,122.8,421.5,123.3,420.3,123.3z
			 M420.1,115.8c-0.7,0-1.2,0.2-1.7,0.7c-0.5,0.5-0.7,1.1-0.8,1.9h4.8v-0.1c0-0.8-0.2-1.4-0.7-1.9S420.8,115.8,420.1,115.8z"/>
		<path d="M426.8,119.2l-1,1v3h-0.9v-11.2h0.9v7.2l0.8-0.9l3-3h1.1l-3.4,3.3l3.7,4.6h-1L426.8,119.2z"/>
		<path d="M432.2,122.6c0-0.2,0.1-0.3,0.2-0.4c0.1-0.1,0.3-0.2,0.5-0.2s0.3,0.1,0.5,0.2c0.1,0.1,0.2,0.3,0.2,0.4s-0.1,0.3-0.2,0.4
			c-0.1,0.1-0.3,0.2-0.5,0.2s-0.3-0.1-0.5-0.2C432.3,122.9,432.2,122.8,432.2,122.6z"/>
	</g>
</g>
<g>
	<polyline fill="none" stroke="#000000" stroke-width="2" stroke-linecap="square" stroke-miterlimit="10" points="515.7,261.9 
		489.8,261.9 489.8,253.6 463.1,253.6 463.1,245.4 436.5,245.4 436.5,237.2 409.9,236.4 409.9,228.9 383.3,228.9 383.3,218.3 
		356.7,218.3 356.7,209 330.1,209 330.1,193.6 303.5,193.6 303.5,189.5 276.9,189.5 276.9,185.3 250.3,185.3 250.3,161.9 
		223.6,161.9 223.6,158.2 197,158.2 197,154.6 170.4,154.6 170.4,150.9 143.8,150.9 143.8,147.2 117.2,147.2 117.2,143.6 
		90.6,143.6 90.6,139.9 64,139.9 64,136.2 37.4,136.2 	"/>
</g>
</svg>
