<?xml version="1.0" encoding="utf-8"?>
<!-- Generator: Adobe Illustrator 27.7.0, SVG Export Plug-In . SVG Version: 6.00 Build 0)  -->
<svg version="1.1" id="Layer_1" xmlns="http://www.w3.org/2000/svg" xmlns:xlink="http://www.w3.org/1999/xlink" x="0px" y="0px"
	 viewBox="0 0 740 391.5" enable-background="new 0 0 740 391.5" xml:space="preserve">
<line fill="none" stroke="#CCCCCC" stroke-width="2" stroke-miterlimit="10" x1="729.3" y1="275.8" x2="729.3" y2="355"/>
<g>
	<g>
		<path d="M60.8,377.5h-6.7v-0.7l3.7-4.1c0.6-0.7,1-1.3,1.3-1.7s0.4-0.9,0.4-1.3c0-0.7-0.2-1.2-0.6-1.6c-0.4-0.4-0.9-0.6-1.6-0.6
			c-0.7,0-1.3,0.2-1.7,0.7c-0.4,0.5-0.7,1.1-0.7,1.8h-0.9c0-0.6,0.1-1.1,0.4-1.6c0.3-0.5,0.7-0.9,1.2-1.2c0.5-0.3,1.1-0.4,1.7-0.4
			c1,0,1.7,0.3,2.3,0.8c0.5,0.5,0.8,1.2,0.8,2.1c0,0.5-0.2,1-0.5,1.6c-0.3,0.6-0.9,1.3-1.6,2.2l-3,3.4h5.6V377.5z"/>
		<path d="M68.9,373.1c0,1.5-0.3,2.6-0.8,3.4c-0.6,0.8-1.4,1.2-2.4,1.2c-1.1,0-1.9-0.4-2.4-1.1c-0.6-0.8-0.8-1.9-0.9-3.3v-1.9
			c0-1.5,0.3-2.6,0.8-3.4s1.4-1.2,2.4-1.2c1.1,0,1.9,0.4,2.4,1.1c0.6,0.7,0.8,1.8,0.9,3.3V373.1z M68,371.2c0-1.2-0.2-2.1-0.6-2.8
			c-0.4-0.6-1-0.9-1.8-0.9c-0.8,0-1.4,0.3-1.8,0.9c-0.4,0.6-0.6,1.5-0.6,2.7v2.1c0,1.2,0.2,2.1,0.6,2.8c0.4,0.6,1,1,1.8,1
			c0.8,0,1.4-0.3,1.8-0.9c0.4-0.6,0.6-1.6,0.6-2.8V371.2z"/>
		<path d="M74.8,377.5H74v-9.6l-2.9,1.1v-0.8l3.6-1.3h0.1V377.5z"/>
		<path d="M81,371.7h0.9c0.5,0,0.9-0.1,1.3-0.3c0.4-0.2,0.7-0.4,0.9-0.7c0.2-0.3,0.3-0.7,0.3-1.1c0-0.7-0.2-1.2-0.6-1.6
			s-0.9-0.6-1.7-0.6c-0.7,0-1.2,0.2-1.7,0.6c-0.4,0.4-0.7,0.9-0.7,1.6h-0.9c0-0.6,0.1-1.1,0.4-1.5c0.3-0.5,0.7-0.8,1.2-1.1
			c0.5-0.2,1-0.4,1.6-0.4c1,0,1.7,0.3,2.3,0.8s0.8,1.2,0.8,2.2c0,0.5-0.2,1-0.5,1.4c-0.3,0.4-0.8,0.8-1.3,1c0.7,0.2,1.2,0.5,1.5,1
			c0.3,0.5,0.5,1,0.5,1.6c0,0.9-0.3,1.6-0.9,2.2s-1.4,0.8-2.4,0.8c-0.6,0-1.2-0.1-1.7-0.4c-0.5-0.3-0.9-0.6-1.2-1.1
			c-0.3-0.5-0.4-1-0.4-1.6h0.9c0,0.7,0.2,1.2,0.7,1.7c0.5,0.4,1.1,0.6,1.8,0.6c0.8,0,1.3-0.2,1.8-0.6c0.4-0.4,0.6-1,0.6-1.7
			c0-0.7-0.2-1.3-0.7-1.6c-0.5-0.4-1.1-0.6-2-0.6H81V371.7z"/>
	</g>
</g>
<g>
	<g>
		<path d="M136.3,377.5h-6.7v-0.7l3.7-4.1c0.6-0.7,1-1.3,1.3-1.7s0.4-0.9,0.4-1.3c0-0.7-0.2-1.2-0.6-1.6c-0.4-0.4-0.9-0.6-1.6-0.6
			c-0.7,0-1.3,0.2-1.7,0.7c-0.4,0.5-0.7,1.1-0.7,1.8h-0.9c0-0.6,0.1-1.1,0.4-1.6c0.3-0.5,0.7-0.9,1.2-1.2c0.5-0.3,1.1-0.4,1.7-0.4
			c1,0,1.7,0.3,2.3,0.8c0.5,0.5,0.8,1.2,0.8,2.1c0,0.5-0.2,1-0.5,1.6c-0.3,0.6-0.9,1.3-1.6,2.2l-3,3.4h5.6V377.5z"/>
		<path d="M144.4,373.1c0,1.5-0.3,2.6-0.8,3.4c-0.6,0.8-1.4,1.2-2.4,1.2c-1.1,0-1.9-0.4-2.4-1.1c-0.6-0.8-0.8-1.9-0.9-3.3v-1.9
			c0-1.5,0.3-2.6,0.8-3.4s1.4-1.2,2.4-1.2c1.1,0,1.9,0.4,2.4,1.1c0.6,0.7,0.8,1.8,0.9,3.3V373.1z M143.5,371.2
			c0-1.2-0.2-2.1-0.6-2.8c-0.4-0.6-1-0.9-1.8-0.9c-0.8,0-1.4,0.3-1.8,0.9c-0.4,0.6-0.6,1.5-0.6,2.7v2.1c0,1.2,0.2,2.1,0.6,2.8
			c0.4,0.6,1,1,1.8,1c0.8,0,1.4-0.3,1.8-0.9c0.4-0.6,0.6-1.6,0.6-2.8V371.2z"/>
		<path d="M150.3,377.5h-0.9v-9.6l-2.9,1.1v-0.8l3.6-1.3h0.1V377.5z"/>
		<path d="M155.2,372.1l0.5-5.2h5.3v0.8h-4.6l-0.4,3.6c0.6-0.4,1.2-0.6,2-0.6c1,0,1.7,0.3,2.3,0.9c0.6,0.6,0.9,1.5,0.9,2.5
			c0,1.1-0.3,2-0.8,2.6s-1.3,0.9-2.4,0.9c-0.9,0-1.7-0.3-2.3-0.8s-0.9-1.2-1-2.2h0.8c0.1,0.7,0.3,1.3,0.7,1.7c0.4,0.4,1,0.6,1.7,0.6
			c0.8,0,1.3-0.2,1.7-0.7c0.4-0.5,0.6-1.2,0.6-2.1c0-0.8-0.2-1.4-0.7-1.9c-0.4-0.5-1-0.7-1.8-0.7c-0.4,0-0.8,0.1-1.1,0.2
			c-0.3,0.1-0.6,0.3-1,0.6L155.2,372.1z"/>
	</g>
</g>
<g>
	<g>
		<path d="M211.8,377.5h-6.7v-0.7l3.7-4.1c0.6-0.7,1-1.3,1.3-1.7s0.4-0.9,0.4-1.3c0-0.7-0.2-1.2-0.6-1.6c-0.4-0.4-0.9-0.6-1.6-0.6
			c-0.7,0-1.3,0.2-1.7,0.7c-0.4,0.5-0.7,1.1-0.7,1.8h-0.9c0-0.6,0.1-1.1,0.4-1.6c0.3-0.5,0.7-0.9,1.2-1.2c0.5-0.3,1.1-0.4,1.7-0.4
			c1,0,1.7,0.3,2.3,0.8c0.5,0.5,0.8,1.2,0.8,2.1c0,0.5-0.2,1-0.5,1.6c-0.3,0.6-0.9,1.3-1.6,2.2l-3,3.4h5.6V377.5z"/>
		<path d="M219.8,373.1c0,1.5-0.3,2.6-0.8,3.4c-0.6,0.8-1.4,1.2-2.4,1.2c-1.1,0-1.9-0.4-2.4-1.1c-0.6-0.8-0.8-1.9-0.9-3.3v-1.9
			c0-1.5,0.3-2.6,0.8-3.4s1.4-1.2,2.4-1.2c1.1,0,1.9,0.4,2.4,1.1c0.6,0.7,0.8,1.8,0.9,3.3V373.1z M219,371.2c0-1.2-0.2-2.1-0.6-2.8
			c-0.4-0.6-1-0.9-1.8-0.9c-0.8,0-1.4,0.3-1.8,0.9c-0.4,0.6-0.6,1.5-0.6,2.7v2.1c0,1.2,0.2,2.1,0.6,2.8c0.4,0.6,1,1,1.8,1
			c0.8,0,1.4-0.3,1.8-0.9c0.4-0.6,0.6-1.6,0.6-2.8V371.2z"/>
		<path d="M225.8,377.5h-0.9v-9.6L222,369v-0.8l3.6-1.3h0.1V377.5z"/>
		<path d="M236.6,367.4l-4.6,10.2h-0.9l4.5-9.9h-6.1v-0.7h7V367.4z"/>
	</g>
</g>
<g>
	<g>
		<path d="M287.3,377.5h-6.7v-0.7l3.7-4.1c0.6-0.7,1-1.3,1.3-1.7s0.4-0.9,0.4-1.3c0-0.7-0.2-1.2-0.6-1.6c-0.4-0.4-0.9-0.6-1.6-0.6
			c-0.7,0-1.3,0.2-1.7,0.7c-0.4,0.5-0.7,1.1-0.7,1.8h-0.9c0-0.6,0.1-1.1,0.4-1.6c0.3-0.5,0.7-0.9,1.2-1.2c0.5-0.3,1.1-0.4,1.7-0.4
			c1,0,1.7,0.3,2.3,0.8c0.5,0.5,0.8,1.2,0.8,2.1c0,0.5-0.2,1-0.5,1.6c-0.3,0.6-0.9,1.3-1.6,2.2l-3,3.4h5.6V377.5z"/>
		<path d="M295.3,373.1c0,1.5-0.3,2.6-0.8,3.4c-0.6,0.8-1.4,1.2-2.4,1.2c-1.1,0-1.9-0.4-2.4-1.1c-0.6-0.8-0.8-1.9-0.9-3.3v-1.9
			c0-1.5,0.3-2.6,0.8-3.4s1.4-1.2,2.4-1.2c1.1,0,1.9,0.4,2.4,1.1c0.6,0.7,0.8,1.8,0.9,3.3V373.1z M294.5,371.2
			c0-1.2-0.2-2.1-0.6-2.8c-0.4-0.6-1-0.9-1.8-0.9c-0.8,0-1.4,0.3-1.8,0.9c-0.4,0.6-0.6,1.5-0.6,2.7v2.1c0,1.2,0.2,2.1,0.6,2.8
			c0.4,0.6,1,1,1.8,1c0.8,0,1.4-0.3,1.8-0.9c0.4-0.6,0.6-1.6,0.6-2.8V371.2z"/>
		<path d="M301.3,377.5h-0.9v-9.6l-2.9,1.1v-0.8l3.6-1.3h0.1V377.5z"/>
		<path d="M311,372.6c-0.3,0.5-0.7,0.8-1.2,1.1c-0.5,0.3-1,0.4-1.5,0.4c-0.6,0-1.1-0.2-1.6-0.5c-0.5-0.3-0.8-0.7-1.1-1.3
			c-0.3-0.6-0.4-1.2-0.4-1.8c0-0.7,0.1-1.3,0.4-1.9c0.3-0.6,0.6-1,1.1-1.3c0.5-0.3,1-0.5,1.7-0.5c1.1,0,1.9,0.4,2.5,1.1
			c0.6,0.8,0.9,1.8,0.9,3.2v0.8c0,1.9-0.4,3.4-1.2,4.3s-2.1,1.4-3.8,1.4h-0.2l0-0.8h0.3c1.3,0,2.2-0.4,2.9-1.1
			C310.6,375.1,311,374,311,372.6z M308.4,373.3c0.6,0,1.1-0.2,1.6-0.5c0.5-0.3,0.8-0.8,1-1.4v-0.5c0-1.1-0.2-1.9-0.7-2.5
			c-0.5-0.6-1.1-0.9-1.8-0.9c-0.7,0-1.3,0.3-1.7,0.8s-0.7,1.3-0.7,2.1c0,0.8,0.2,1.5,0.6,2C307.2,373,307.8,373.3,308.4,373.3z"/>
	</g>
</g>
<g>
	<g>
		<path d="M362.8,377.5h-6.7v-0.7l3.7-4.1c0.6-0.7,1-1.3,1.3-1.7s0.4-0.9,0.4-1.3c0-0.7-0.2-1.2-0.6-1.6c-0.4-0.4-0.9-0.6-1.6-0.6
			c-0.7,0-1.3,0.2-1.7,0.7c-0.4,0.5-0.7,1.1-0.7,1.8h-0.9c0-0.6,0.1-1.1,0.4-1.6c0.3-0.5,0.7-0.9,1.2-1.2c0.5-0.3,1.1-0.4,1.7-0.4
			c1,0,1.7,0.3,2.3,0.8c0.5,0.5,0.8,1.2,0.8,2.1c0,0.5-0.2,1-0.5,1.6c-0.3,0.6-0.9,1.3-1.6,2.2l-3,3.4h5.6V377.5z"/>
		<path d="M370.8,373.1c0,1.5-0.3,2.6-0.8,3.4c-0.6,0.8-1.4,1.2-2.4,1.2c-1.1,0-1.9-0.4-2.4-1.1c-0.6-0.8-0.8-1.9-0.9-3.3v-1.9
			c0-1.5,0.3-2.6,0.8-3.4s1.4-1.2,2.4-1.2c1.1,0,1.9,0.4,2.4,1.1c0.6,0.7,0.8,1.8,0.9,3.3V373.1z M369.9,371.2
			c0-1.2-0.2-2.1-0.6-2.8c-0.4-0.6-1-0.9-1.8-0.9c-0.8,0-1.4,0.3-1.8,0.9c-0.4,0.6-0.6,1.5-0.6,2.7v2.1c0,1.2,0.2,2.1,0.6,2.8
			c0.4,0.6,1,1,1.8,1c0.8,0,1.4-0.3,1.8-0.9c0.4-0.6,0.6-1.6,0.6-2.8V371.2z"/>
		<path d="M379.4,377.5h-6.7v-0.7l3.7-4.1c0.6-0.7,1-1.3,1.3-1.7s0.4-0.9,0.4-1.3c0-0.7-0.2-1.2-0.6-1.6c-0.4-0.4-0.9-0.6-1.6-0.6
			c-0.7,0-1.3,0.2-1.7,0.7c-0.4,0.5-0.7,1.1-0.7,1.8h-0.9c0-0.6,0.1-1.1,0.4-1.6c0.3-0.5,0.7-0.9,1.2-1.2c0.5-0.3,1.1-0.4,1.7-0.4
			c1,0,1.7,0.3,2.3,0.8c0.5,0.5,0.8,1.2,0.8,2.1c0,0.5-0.2,1-0.5,1.6c-0.3,0.6-0.9,1.3-1.6,2.2l-3,3.4h5.6V377.5z"/>
		<path d="M385.1,377.5h-0.9v-9.6l-2.9,1.1v-0.8l3.6-1.3h0.1V377.5z"/>
	</g>
</g>
<g>
	<g>
		<path d="M438.2,377.5h-6.7v-0.7l3.7-4.1c0.6-0.7,1-1.3,1.3-1.7s0.4-0.9,0.4-1.3c0-0.7-0.2-1.2-0.6-1.6c-0.4-0.4-0.9-0.6-1.6-0.6
			c-0.7,0-1.3,0.2-1.7,0.7c-0.4,0.5-0.7,1.1-0.7,1.8h-0.9c0-0.6,0.1-1.1,0.4-1.6c0.3-0.5,0.7-0.9,1.2-1.2c0.5-0.3,1.1-0.4,1.7-0.4
			c1,0,1.7,0.3,2.3,0.8c0.5,0.5,0.8,1.2,0.8,2.1c0,0.5-0.2,1-0.5,1.6c-0.3,0.6-0.9,1.3-1.6,2.2l-3,3.4h5.6V377.5z"/>
		<path d="M446.3,373.1c0,1.5-0.3,2.6-0.8,3.4c-0.6,0.8-1.4,1.2-2.4,1.2c-1.1,0-1.9-0.4-2.4-1.1c-0.6-0.8-0.8-1.9-0.9-3.3v-1.9
			c0-1.5,0.3-2.6,0.8-3.4s1.4-1.2,2.4-1.2c1.1,0,1.9,0.4,2.4,1.1c0.6,0.7,0.8,1.8,0.9,3.3V373.1z M445.4,371.2
			c0-1.2-0.2-2.1-0.6-2.8c-0.4-0.6-1-0.9-1.8-0.9c-0.8,0-1.4,0.3-1.8,0.9c-0.4,0.6-0.6,1.5-0.6,2.7v2.1c0,1.2,0.2,2.1,0.6,2.8
			c0.4,0.6,1,1,1.8,1c0.8,0,1.4-0.3,1.8-0.9c0.4-0.6,0.6-1.6,0.6-2.8V371.2z"/>
		<path d="M454.9,377.5h-6.7v-0.7l3.7-4.1c0.6-0.7,1-1.3,1.3-1.7s0.4-0.9,0.4-1.3c0-0.7-0.2-1.2-0.6-1.6c-0.4-0.4-0.9-0.6-1.6-0.6
			c-0.7,0-1.3,0.2-1.7,0.7c-0.4,0.5-0.7,1.1-0.7,1.8H448c0-0.6,0.1-1.1,0.4-1.6c0.3-0.5,0.7-0.9,1.2-1.2c0.5-0.3,1.1-0.4,1.7-0.4
			c1,0,1.7,0.3,2.3,0.8c0.5,0.5,0.8,1.2,0.8,2.1c0,0.5-0.2,1-0.5,1.6c-0.3,0.6-0.9,1.3-1.6,2.2l-3,3.4h5.6V377.5z"/>
		<path d="M458.5,371.7h0.9c0.5,0,0.9-0.1,1.3-0.3c0.4-0.2,0.7-0.4,0.9-0.7c0.2-0.3,0.3-0.7,0.3-1.1c0-0.7-0.2-1.2-0.6-1.6
			s-0.9-0.6-1.7-0.6c-0.7,0-1.2,0.2-1.7,0.6c-0.4,0.4-0.7,0.9-0.7,1.6h-0.9c0-0.6,0.1-1.1,0.4-1.5c0.3-0.5,0.7-0.8,1.2-1.1
			c0.5-0.2,1-0.4,1.6-0.4c1,0,1.7,0.3,2.3,0.8s0.8,1.2,0.8,2.2c0,0.5-0.2,1-0.5,1.4c-0.3,0.4-0.8,0.8-1.3,1c0.7,0.2,1.2,0.5,1.5,1
			c0.3,0.5,0.5,1,0.5,1.6c0,0.9-0.3,1.6-0.9,2.2s-1.4,0.8-2.4,0.8c-0.6,0-1.2-0.1-1.7-0.4c-0.5-0.3-0.9-0.6-1.2-1.1
			c-0.3-0.5-0.4-1-0.4-1.6h0.9c0,0.7,0.2,1.2,0.7,1.7c0.5,0.4,1.1,0.6,1.8,0.6c0.8,0,1.3-0.2,1.8-0.6c0.4-0.4,0.6-1,0.6-1.7
			c0-0.7-0.2-1.3-0.7-1.6c-0.5-0.4-1.1-0.6-2-0.6h-0.9V371.7z"/>
	</g>
</g>
<g>
	<g>
		<path d="M513.7,377.5h-6.7v-0.7l3.7-4.1c0.6-0.7,1-1.3,1.3-1.7c0.2-0.5,0.4-0.9,0.4-1.3c0-0.7-0.2-1.2-0.6-1.6
			c-0.4-0.4-0.9-0.6-1.6-0.6c-0.7,0-1.3,0.2-1.7,0.7c-0.4,0.5-0.7,1.1-0.7,1.8h-0.9c0-0.6,0.1-1.1,0.4-1.6c0.3-0.5,0.7-0.9,1.2-1.2
			c0.5-0.3,1.1-0.4,1.7-0.4c1,0,1.7,0.3,2.3,0.8c0.5,0.5,0.8,1.2,0.8,2.1c0,0.5-0.2,1-0.5,1.6c-0.3,0.6-0.9,1.3-1.6,2.2l-3,3.4h5.6
			V377.5z"/>
		<path d="M521.8,373.1c0,1.5-0.3,2.6-0.8,3.4c-0.6,0.8-1.4,1.2-2.4,1.2c-1.1,0-1.9-0.4-2.4-1.1c-0.6-0.8-0.8-1.9-0.9-3.3v-1.9
			c0-1.5,0.3-2.6,0.8-3.4s1.4-1.2,2.4-1.2c1.1,0,1.9,0.4,2.4,1.1c0.6,0.7,0.8,1.8,0.9,3.3V373.1z M520.9,371.2
			c0-1.2-0.2-2.1-0.6-2.8c-0.4-0.6-1-0.9-1.8-0.9c-0.8,0-1.4,0.3-1.8,0.9c-0.4,0.6-0.6,1.5-0.6,2.7v2.1c0,1.2,0.2,2.1,0.6,2.8
			c0.4,0.6,1,1,1.8,1c0.8,0,1.4-0.3,1.8-0.9c0.4-0.6,0.6-1.6,0.6-2.8V371.2z"/>
		<path d="M530.4,377.5h-6.7v-0.7l3.7-4.1c0.6-0.7,1-1.3,1.3-1.7s0.4-0.9,0.4-1.3c0-0.7-0.2-1.2-0.6-1.6c-0.4-0.4-0.9-0.6-1.6-0.6
			c-0.7,0-1.3,0.2-1.7,0.7c-0.4,0.5-0.7,1.1-0.7,1.8h-0.9c0-0.6,0.1-1.1,0.4-1.6c0.3-0.5,0.7-0.9,1.2-1.2c0.5-0.3,1.1-0.4,1.7-0.4
			c1,0,1.7,0.3,2.3,0.8c0.5,0.5,0.8,1.2,0.8,2.1c0,0.5-0.2,1-0.5,1.6c-0.3,0.6-0.9,1.3-1.6,2.2l-3,3.4h5.6V377.5z"/>
		<path d="M532.6,372.1l0.5-5.2h5.3v0.8h-4.6l-0.4,3.6c0.6-0.4,1.2-0.6,2-0.6c1,0,1.7,0.3,2.3,0.9c0.6,0.6,0.9,1.5,0.9,2.5
			c0,1.1-0.3,2-0.8,2.6s-1.3,0.9-2.4,0.9c-0.9,0-1.7-0.3-2.3-0.8s-0.9-1.2-1-2.2h0.8c0.1,0.7,0.3,1.3,0.7,1.7c0.4,0.4,1,0.6,1.7,0.6
			c0.8,0,1.3-0.2,1.7-0.7c0.4-0.5,0.6-1.2,0.6-2.1c0-0.8-0.2-1.4-0.7-1.9c-0.4-0.5-1-0.7-1.8-0.7c-0.4,0-0.8,0.1-1.1,0.2
			c-0.3,0.1-0.6,0.3-1,0.6L532.6,372.1z"/>
	</g>
</g>
<g>
	<g>
		<path d="M589.2,377.5h-6.7v-0.7l3.7-4.1c0.6-0.7,1-1.3,1.3-1.7s0.4-0.9,0.4-1.3c0-0.7-0.2-1.2-0.6-1.6c-0.4-0.4-0.9-0.6-1.6-0.6
			c-0.7,0-1.3,0.2-1.7,0.7c-0.4,0.5-0.7,1.1-0.7,1.8h-0.9c0-0.6,0.1-1.1,0.4-1.6c0.3-0.5,0.7-0.9,1.2-1.2c0.5-0.3,1.1-0.4,1.7-0.4
			c1,0,1.7,0.3,2.3,0.8c0.5,0.5,0.8,1.2,0.8,2.1c0,0.5-0.2,1-0.5,1.6c-0.3,0.6-0.9,1.3-1.6,2.2l-3,3.4h5.6V377.5z"/>
		<path d="M597.3,373.1c0,1.5-0.3,2.6-0.8,3.4c-0.6,0.8-1.4,1.2-2.4,1.2c-1.1,0-1.9-0.4-2.4-1.1c-0.6-0.8-0.8-1.9-0.9-3.3v-1.9
			c0-1.5,0.3-2.6,0.8-3.4s1.4-1.2,2.4-1.2c1.1,0,1.9,0.4,2.4,1.1c0.6,0.7,0.8,1.8,0.9,3.3V373.1z M596.4,371.2
			c0-1.2-0.2-2.1-0.6-2.8c-0.4-0.6-1-0.9-1.8-0.9c-0.8,0-1.4,0.3-1.8,0.9c-0.4,0.6-0.6,1.5-0.6,2.7v2.1c0,1.2,0.2,2.1,0.6,2.8
			c0.4,0.6,1,1,1.8,1c0.8,0,1.4-0.3,1.8-0.9c0.4-0.6,0.6-1.6,0.6-2.8V371.2z"/>
		<path d="M605.8,377.5h-6.7v-0.7l3.7-4.1c0.6-0.7,1-1.3,1.3-1.7s0.4-0.9,0.4-1.3c0-0.7-0.2-1.2-0.6-1.6c-0.4-0.4-0.9-0.6-1.6-0.6
			c-0.7,0-1.3,0.2-1.7,0.7c-0.4,0.5-0.7,1.1-0.7,1.8h-0.9c0-0.6,0.1-1.1,0.4-1.6c0.3-0.5,0.7-0.9,1.2-1.2c0.5-0.3,1.1-0.4,1.7-0.4
			c1,0,1.7,0.3,2.3,0.8c0.5,0.5,0.8,1.2,0.8,2.1c0,0.5-0.2,1-0.5,1.6c-0.3,0.6-0.9,1.3-1.6,2.2l-3,3.4h5.6V377.5z"/>
		<path d="M614,367.4l-4.6,10.2h-0.9l4.5-9.9H607v-0.7h7V367.4z"/>
	</g>
</g>
<g>
	<g>
		<path d="M664.7,377.5H658v-0.7l3.7-4.1c0.6-0.7,1-1.3,1.3-1.7s0.4-0.9,0.4-1.3c0-0.7-0.2-1.2-0.6-1.6c-0.4-0.4-0.9-0.6-1.6-0.6
			c-0.7,0-1.3,0.2-1.7,0.7c-0.4,0.5-0.7,1.1-0.7,1.8h-0.9c0-0.6,0.1-1.1,0.4-1.6c0.3-0.5,0.7-0.9,1.2-1.2c0.5-0.3,1.1-0.4,1.7-0.4
			c1,0,1.7,0.3,2.3,0.8c0.5,0.5,0.8,1.2,0.8,2.1c0,0.5-0.2,1-0.5,1.6c-0.3,0.6-0.9,1.3-1.6,2.2l-3,3.4h5.6V377.5z"/>
		<path d="M672.8,373.1c0,1.5-0.3,2.6-0.8,3.4c-0.6,0.8-1.4,1.2-2.4,1.2c-1.1,0-1.9-0.4-2.4-1.1c-0.6-0.8-0.8-1.9-0.9-3.3v-1.9
			c0-1.5,0.3-2.6,0.8-3.4s1.4-1.2,2.4-1.2c1.1,0,1.9,0.4,2.4,1.1c0.6,0.7,0.8,1.8,0.9,3.3V373.1z M671.9,371.2
			c0-1.2-0.2-2.1-0.6-2.8c-0.4-0.6-1-0.9-1.8-0.9c-0.8,0-1.4,0.3-1.8,0.9c-0.4,0.6-0.6,1.5-0.6,2.7v2.1c0,1.2,0.2,2.1,0.6,2.8
			c0.4,0.6,1,1,1.8,1c0.8,0,1.4-0.3,1.8-0.9c0.4-0.6,0.6-1.6,0.6-2.8V371.2z"/>
		<path d="M681.3,377.5h-6.7v-0.7l3.7-4.1c0.6-0.7,1-1.3,1.3-1.7s0.4-0.9,0.4-1.3c0-0.7-0.2-1.2-0.6-1.6c-0.4-0.4-0.9-0.6-1.6-0.6
			c-0.7,0-1.3,0.2-1.7,0.7c-0.4,0.5-0.7,1.1-0.7,1.8h-0.9c0-0.6,0.1-1.1,0.4-1.6c0.3-0.5,0.7-0.9,1.2-1.2c0.5-0.3,1.1-0.4,1.7-0.4
			c1,0,1.7,0.3,2.3,0.8c0.5,0.5,0.8,1.2,0.8,2.1c0,0.5-0.2,1-0.5,1.6c-0.3,0.6-0.9,1.3-1.6,2.2l-3,3.4h5.6V377.5z"/>
		<path d="M688.4,372.6c-0.3,0.5-0.7,0.8-1.2,1.1c-0.5,0.3-1,0.4-1.5,0.4c-0.6,0-1.1-0.2-1.6-0.5c-0.5-0.3-0.8-0.7-1.1-1.3
			c-0.3-0.6-0.4-1.2-0.4-1.8c0-0.7,0.1-1.3,0.4-1.9c0.3-0.6,0.6-1,1.1-1.3c0.5-0.3,1-0.5,1.7-0.5c1.1,0,1.9,0.4,2.5,1.1
			c0.6,0.8,0.9,1.8,0.9,3.2v0.8c0,1.9-0.4,3.4-1.2,4.3s-2.1,1.4-3.8,1.4h-0.2l0-0.8h0.3c1.3,0,2.2-0.4,2.9-1.1
			C688.1,375.1,688.4,374,688.4,372.6z M685.9,373.3c0.6,0,1.1-0.2,1.6-0.5c0.5-0.3,0.8-0.8,1-1.4v-0.5c0-1.1-0.2-1.9-0.7-2.5
			c-0.5-0.6-1.1-0.9-1.8-0.9c-0.7,0-1.3,0.3-1.7,0.8s-0.7,1.3-0.7,2.1c0,0.8,0.2,1.5,0.6,2C684.6,373,685.2,373.3,685.9,373.3z"/>
	</g>
</g>
<path fill="none" stroke="#666666" stroke-width="0.6642" stroke-linecap="square" d="M44.3,355h685.5"/>
<g>
	
		<path fill="none" stroke="#808285" stroke-width="0.3" stroke-linecap="square" stroke-linejoin="round" stroke-dasharray="5.6885" d="
		M5.8,355h724"/>
	
		<path fill="none" stroke="#808285" stroke-width="0.3" stroke-linecap="square" stroke-linejoin="round" stroke-dasharray="5.6885" d="
		M5.8,303.7h724"/>
	
		<path fill="none" stroke="#808285" stroke-width="0.3" stroke-linecap="square" stroke-linejoin="round" stroke-dasharray="5.6885" d="
		M5.8,252.5h724"/>
	
		<path fill="none" stroke="#808285" stroke-width="0.3" stroke-linecap="square" stroke-linejoin="round" stroke-dasharray="5.6885" d="
		M5.8,201.2h724"/>
	
		<path fill="none" stroke="#808285" stroke-width="0.3" stroke-linecap="square" stroke-linejoin="round" stroke-dasharray="5.6885" d="
		M5.8,150h724"/>
	
		<path fill="none" stroke="#808285" stroke-width="0.3" stroke-linecap="square" stroke-linejoin="round" stroke-dasharray="5.6885" d="
		M5.8,98.7h724"/>
</g>
<g>
	<g>
		<path d="M12.5,347.1c0,1.5-0.3,2.6-0.8,3.4c-0.6,0.8-1.4,1.2-2.4,1.2c-1.1,0-1.9-0.4-2.4-1.1c-0.6-0.8-0.8-1.9-0.9-3.3v-1.9
			c0-1.5,0.3-2.6,0.8-3.4s1.4-1.2,2.4-1.2c1.1,0,1.9,0.4,2.4,1.1c0.6,0.7,0.8,1.8,0.9,3.3V347.1z M11.6,345.2c0-1.2-0.2-2.1-0.6-2.8
			s-1-0.9-1.8-0.9c-0.8,0-1.4,0.3-1.8,0.9c-0.4,0.6-0.6,1.5-0.6,2.7v2.1c0,1.2,0.2,2.1,0.6,2.8c0.4,0.6,1,1,1.8,1
			c0.8,0,1.4-0.3,1.8-0.9c0.4-0.6,0.6-1.6,0.6-2.8V345.2z"/>
	</g>
</g>
<g>
	<g>
		<path d="M12.5,295.6c0,1.5-0.3,2.6-0.8,3.4c-0.6,0.8-1.4,1.2-2.4,1.2c-1.1,0-1.9-0.4-2.4-1.1c-0.6-0.8-0.8-1.9-0.9-3.3v-1.9
			c0-1.5,0.3-2.6,0.8-3.4s1.4-1.2,2.4-1.2c1.1,0,1.9,0.4,2.4,1.1c0.6,0.7,0.8,1.8,0.9,3.3V295.6z M11.6,293.7c0-1.2-0.2-2.1-0.6-2.8
			s-1-0.9-1.8-0.9c-0.8,0-1.4,0.3-1.8,0.9c-0.4,0.6-0.6,1.5-0.6,2.7v2.1c0,1.2,0.2,2.1,0.6,2.8c0.4,0.6,1,1,1.8,1
			c0.8,0,1.4-0.3,1.8-0.9c0.4-0.6,0.6-1.6,0.6-2.8V293.7z"/>
		<path d="M14.3,302l-0.5-0.4c0.4-0.6,0.7-1.2,0.7-1.9v-1.1h0.9v0.9C15.4,300.6,15,301.4,14.3,302z"/>
		<path d="M17.8,294.6l0.5-5.2h5.3v0.8h-4.6l-0.4,3.6c0.6-0.4,1.2-0.6,2-0.6c1,0,1.7,0.3,2.3,0.9c0.6,0.6,0.9,1.5,0.9,2.5
			c0,1.1-0.3,2-0.8,2.6s-1.3,0.9-2.4,0.9c-0.9,0-1.7-0.3-2.3-0.8s-0.9-1.2-1-2.2h0.8c0.1,0.7,0.3,1.3,0.7,1.7c0.4,0.4,1,0.6,1.7,0.6
			c0.8,0,1.3-0.2,1.7-0.7c0.4-0.5,0.6-1.2,0.6-2.1c0-0.8-0.2-1.4-0.7-1.9c-0.4-0.5-1-0.7-1.8-0.7c-0.4,0-0.8,0.1-1.1,0.2
			c-0.3,0.1-0.6,0.3-1,0.6L17.8,294.6z"/>
	</g>
</g>
<g>
	<g>
		<path d="M10.1,248.5H9.3v-9.6L6.4,240v-0.8l3.6-1.3h0.1V248.5z"/>
		<path d="M14.3,250.5l-0.5-0.4c0.4-0.6,0.7-1.2,0.7-1.9v-1.1h0.9v0.9C15.4,249.1,15,249.9,14.3,250.5z"/>
		<path d="M23.7,244.1c0,1.5-0.3,2.6-0.8,3.4c-0.6,0.8-1.4,1.2-2.4,1.2c-1.1,0-1.9-0.4-2.4-1.1c-0.6-0.8-0.8-1.9-0.9-3.3v-1.9
			c0-1.5,0.3-2.6,0.8-3.4s1.4-1.2,2.4-1.2c1.1,0,1.9,0.4,2.4,1.1c0.6,0.7,0.8,1.8,0.9,3.3V244.1z M22.8,242.2c0-1.2-0.2-2.1-0.6-2.8
			s-1-0.9-1.8-0.9c-0.8,0-1.4,0.3-1.8,0.9c-0.4,0.6-0.6,1.5-0.6,2.7v2.1c0,1.2,0.2,2.1,0.6,2.8c0.4,0.6,1,1,1.8,1
			c0.8,0,1.4-0.3,1.8-0.9c0.4-0.6,0.6-1.6,0.6-2.8V242.2z"/>
	</g>
</g>
<g>
	<g>
		<path d="M10.1,197H9.3v-9.6l-2.9,1.1v-0.8l3.6-1.3h0.1V197z"/>
		<path d="M14.3,199l-0.5-0.4c0.4-0.6,0.7-1.2,0.7-1.9v-1.1h0.9v0.9C15.4,197.6,15,198.4,14.3,199z"/>
		<path d="M17.8,191.6l0.5-5.2h5.3v0.8h-4.6l-0.4,3.6c0.6-0.4,1.2-0.6,2-0.6c1,0,1.7,0.3,2.3,0.9c0.6,0.6,0.9,1.5,0.9,2.5
			c0,1.1-0.3,2-0.8,2.6s-1.3,0.9-2.4,0.9c-0.9,0-1.7-0.3-2.3-0.8s-0.9-1.2-1-2.2h0.8c0.1,0.7,0.3,1.3,0.7,1.7c0.4,0.4,1,0.6,1.7,0.6
			c0.8,0,1.3-0.2,1.7-0.7c0.4-0.5,0.6-1.2,0.6-2.1c0-0.8-0.2-1.4-0.7-1.9c-0.4-0.5-1-0.7-1.8-0.7c-0.4,0-0.8,0.1-1.1,0.2
			c-0.3,0.1-0.6,0.3-1,0.6L17.8,191.6z"/>
	</g>
</g>
<g>
	<g>
		<path d="M12.7,145.5H6.1v-0.7l3.7-4.1c0.6-0.7,1-1.3,1.3-1.7s0.4-0.9,0.4-1.3c0-0.7-0.2-1.2-0.6-1.6c-0.4-0.4-0.9-0.6-1.6-0.6
			c-0.7,0-1.3,0.2-1.7,0.7c-0.4,0.5-0.7,1.1-0.7,1.8H5.8c0-0.6,0.1-1.1,0.4-1.6s0.7-0.9,1.2-1.2c0.5-0.3,1.1-0.4,1.7-0.4
			c1,0,1.7,0.3,2.3,0.8s0.8,1.2,0.8,2.1c0,0.5-0.2,1-0.5,1.6s-0.9,1.3-1.6,2.2l-3,3.4h5.6V145.5z"/>
		<path d="M14.3,147.5l-0.5-0.4c0.4-0.6,0.7-1.2,0.7-1.9v-1.1h0.9v0.9C15.4,146.1,15,146.9,14.3,147.5z"/>
		<path d="M23.7,141.1c0,1.5-0.3,2.6-0.8,3.4c-0.6,0.8-1.4,1.2-2.4,1.2c-1.1,0-1.9-0.4-2.4-1.1c-0.6-0.8-0.8-1.9-0.9-3.3v-1.9
			c0-1.5,0.3-2.6,0.8-3.4s1.4-1.2,2.4-1.2c1.1,0,1.9,0.4,2.4,1.1s0.8,1.8,0.9,3.3V141.1z M22.8,139.2c0-1.2-0.2-2.1-0.6-2.8
			s-1-0.9-1.8-0.9c-0.8,0-1.4,0.3-1.8,0.9s-0.6,1.5-0.6,2.7v2.1c0,1.2,0.2,2.1,0.6,2.8c0.4,0.6,1,1,1.8,1c0.8,0,1.4-0.3,1.8-0.9
			c0.4-0.6,0.6-1.6,0.6-2.8V139.2z"/>
	</g>
</g>
<g>
	<g>
		<path d="M12.8,94.4H6.1v-0.7l3.7-4.1c0.6-0.7,1-1.3,1.3-1.7s0.4-0.9,0.4-1.3c0-0.7-0.2-1.2-0.6-1.6c-0.4-0.4-0.9-0.6-1.6-0.6
			c-0.7,0-1.3,0.2-1.7,0.7c-0.4,0.5-0.7,1.1-0.7,1.8H5.9c0-0.6,0.1-1.1,0.4-1.6c0.3-0.5,0.7-0.9,1.2-1.2c0.5-0.3,1.1-0.4,1.7-0.4
			c1,0,1.7,0.3,2.3,0.8c0.5,0.5,0.8,1.2,0.8,2.1c0,0.5-0.2,1-0.5,1.6c-0.3,0.6-0.9,1.3-1.6,2.2l-3,3.4h5.6V94.4z"/>
		<path d="M14.4,96.4L13.9,96c0.4-0.6,0.7-1.2,0.7-1.9V93h0.9v0.9C15.4,94.9,15.1,95.8,14.4,96.4z"/>
		<path d="M17.9,88.9l0.5-5.2h5.3v0.8h-4.6l-0.4,3.6c0.6-0.4,1.2-0.6,2-0.6c1,0,1.7,0.3,2.3,0.9c0.6,0.6,0.9,1.5,0.9,2.5
			c0,1.1-0.3,2-0.8,2.6s-1.3,0.9-2.4,0.9c-0.9,0-1.7-0.3-2.3-0.8s-0.9-1.2-1-2.2h0.8c0.1,0.7,0.3,1.3,0.7,1.7c0.4,0.4,1,0.6,1.7,0.6
			c0.8,0,1.3-0.2,1.7-0.7c0.4-0.5,0.6-1.2,0.6-2.1c0-0.8-0.2-1.4-0.7-1.9c-0.4-0.5-1-0.7-1.8-0.7c-0.4,0-0.8,0.1-1.1,0.2
			c-0.3,0.1-0.6,0.3-1,0.6L17.9,88.9z"/>
		<path d="M30.2,86.5l0,1.3c0.3-0.5,0.7-0.8,1.1-1.1s0.9-0.4,1.5-0.4c1.2,0,2,0.5,2.4,1.5c0.3-0.5,0.7-0.9,1.1-1.1s1-0.4,1.6-0.4
			c1.7,0,2.6,0.9,2.6,2.8v5.3h-0.9v-5.2c0-0.7-0.2-1.2-0.5-1.6c-0.3-0.3-0.8-0.5-1.5-0.5c-0.6,0-1.2,0.2-1.6,0.6
			c-0.4,0.4-0.7,0.9-0.7,1.5v5.2h-0.9v-5.3c0-0.7-0.2-1.2-0.5-1.5c-0.3-0.3-0.8-0.5-1.5-0.5c-0.6,0-1,0.2-1.4,0.5
			c-0.4,0.3-0.7,0.8-0.9,1.4v5.4h-0.9v-7.9H30.2z"/>
		<path d="M43.7,94.4h-0.9V83.1h0.9V94.4z"/>
		<path d="M45.7,90.3c0-1.2,0.3-2.2,0.8-2.9c0.5-0.7,1.3-1.1,2.2-1.1c1.1,0,1.9,0.4,2.4,1.3v-4.4h0.9v11.2h-0.8l0-1.1
			c-0.6,0.8-1.4,1.2-2.5,1.2c-0.9,0-1.6-0.4-2.2-1.1c-0.6-0.7-0.8-1.7-0.8-3V90.3z M46.6,90.5c0,1,0.2,1.8,0.6,2.4s1,0.9,1.7,0.9
			c1.1,0,1.8-0.5,2.3-1.4v-3.7c-0.5-1-1.2-1.5-2.3-1.5c-0.7,0-1.3,0.3-1.7,0.9C46.8,88.5,46.6,89.4,46.6,90.5z"/>
		<path d="M54.3,93.9c0-0.2,0.1-0.3,0.2-0.4c0.1-0.1,0.3-0.2,0.5-0.2s0.3,0.1,0.5,0.2c0.1,0.1,0.2,0.3,0.2,0.4s-0.1,0.3-0.2,0.4
			c-0.1,0.1-0.3,0.2-0.5,0.2s-0.3-0.1-0.5-0.2C54.4,94.2,54.3,94,54.3,93.9z"/>
		<path d="M68,90.5c0,1.2-0.3,2.2-0.8,2.9c-0.5,0.7-1.3,1.1-2.2,1.1c-1.1,0-1.9-0.4-2.5-1.1v4h-0.9v-11h0.8l0,1.1
			c0.6-0.8,1.4-1.3,2.5-1.3c0.9,0,1.7,0.4,2.2,1.1c0.5,0.7,0.8,1.7,0.8,3V90.5z M67.1,90.3c0-1-0.2-1.8-0.6-2.4
			c-0.4-0.6-1-0.9-1.7-0.9c-0.5,0-1,0.1-1.4,0.4s-0.7,0.6-0.9,1.1v3.8c0.2,0.5,0.5,0.8,0.9,1c0.4,0.2,0.9,0.4,1.4,0.4
			c0.7,0,1.3-0.3,1.7-0.9C66.9,92.3,67.1,91.5,67.1,90.3z"/>
		<path d="M69.4,90.3c0-0.8,0.1-1.4,0.4-2.1c0.3-0.6,0.7-1.1,1.3-1.4c0.5-0.3,1.2-0.5,1.8-0.5c1.1,0,1.9,0.4,2.6,1.1
			c0.7,0.7,1,1.7,1,2.9v0.2c0,0.8-0.1,1.5-0.4,2.1c-0.3,0.6-0.7,1.1-1.2,1.4c-0.5,0.3-1.2,0.5-1.8,0.5c-1,0-1.9-0.4-2.6-1.1
			c-0.7-0.7-1-1.7-1-2.9V90.3z M70.3,90.5c0,0.9,0.2,1.7,0.7,2.3c0.5,0.6,1.1,0.9,1.9,0.9c0.8,0,1.4-0.3,1.9-0.9
			c0.5-0.6,0.7-1.4,0.7-2.4v-0.2c0-0.6-0.1-1.2-0.3-1.7s-0.5-0.9-0.9-1.2s-0.9-0.4-1.4-0.4c-0.8,0-1.4,0.3-1.9,0.9
			c-0.5,0.6-0.7,1.4-0.7,2.4V90.5z"/>
		<path d="M80.7,93.2l2.4-6.7H84l-3,7.9h-0.7l-3-7.9h0.9L80.7,93.2z"/>
		<path d="M84.8,90.3c0-0.8,0.1-1.4,0.4-2.1c0.3-0.6,0.7-1.1,1.3-1.4c0.5-0.3,1.2-0.5,1.8-0.5c1.1,0,1.9,0.4,2.6,1.1
			c0.7,0.7,1,1.7,1,2.9v0.2c0,0.8-0.1,1.5-0.4,2.1c-0.3,0.6-0.7,1.1-1.2,1.4c-0.5,0.3-1.2,0.5-1.8,0.5c-1,0-1.9-0.4-2.6-1.1
			c-0.7-0.7-1-1.7-1-2.9V90.3z M85.7,90.5c0,0.9,0.2,1.7,0.7,2.3c0.5,0.6,1.1,0.9,1.9,0.9c0.8,0,1.4-0.3,1.9-0.9
			c0.5-0.6,0.7-1.4,0.7-2.4v-0.2c0-0.6-0.1-1.2-0.3-1.7s-0.5-0.9-0.9-1.2s-0.9-0.4-1.4-0.4c-0.8,0-1.4,0.3-1.9,0.9
			c-0.5,0.6-0.7,1.4-0.7,2.4V90.5z"/>
		<path d="M94.7,94.4h-0.9V83.1h0.9V94.4z"/>
		<path d="M100.2,94.5c-0.7,0-1.3-0.2-1.8-0.5c-0.5-0.3-1-0.8-1.3-1.4c-0.3-0.6-0.5-1.3-0.5-2v-0.3c0-0.8,0.1-1.4,0.4-2.1
			c0.3-0.6,0.7-1.1,1.2-1.4c0.5-0.3,1.1-0.5,1.7-0.5c1,0,1.7,0.3,2.3,1c0.6,0.7,0.8,1.6,0.8,2.7v0.5h-5.7v0.2c0,0.9,0.3,1.6,0.8,2.2
			c0.5,0.6,1.2,0.9,1.9,0.9c0.5,0,0.9-0.1,1.2-0.3c0.4-0.2,0.7-0.4,1-0.8l0.5,0.4C102.3,94.1,101.4,94.5,100.2,94.5z M100,87.1
			c-0.7,0-1.2,0.2-1.7,0.7c-0.5,0.5-0.7,1.1-0.8,1.9h4.8v-0.1c0-0.8-0.2-1.4-0.7-1.9S100.7,87.1,100,87.1z"/>
		<path d="M105.7,86.5l0,1.4c0.3-0.5,0.7-0.9,1.1-1.1c0.4-0.3,0.9-0.4,1.5-0.4c0.8,0,1.5,0.2,1.9,0.7s0.6,1.2,0.6,2.2v5.2h-0.9v-5.2
			c0-0.7-0.2-1.2-0.5-1.6c-0.3-0.3-0.8-0.5-1.4-0.5c-0.5,0-1,0.2-1.4,0.5c-0.4,0.3-0.7,0.8-0.9,1.4v5.4h-0.9v-7.9H105.7z"/>
		<path d="M116.1,94.5c-0.7,0-1.3-0.2-1.8-0.5c-0.5-0.3-1-0.8-1.3-1.4c-0.3-0.6-0.5-1.3-0.5-2v-0.3c0-0.8,0.1-1.4,0.4-2.1
			c0.3-0.6,0.7-1.1,1.2-1.4c0.5-0.3,1.1-0.5,1.7-0.5c1,0,1.7,0.3,2.3,1c0.6,0.7,0.8,1.6,0.8,2.7v0.5h-5.7v0.2c0,0.9,0.3,1.6,0.8,2.2
			c0.5,0.6,1.2,0.9,1.9,0.9c0.5,0,0.9-0.1,1.2-0.3c0.4-0.2,0.7-0.4,1-0.8l0.5,0.4C118.3,94.1,117.4,94.5,116.1,94.5z M116,87.1
			c-0.7,0-1.2,0.2-1.7,0.7c-0.5,0.5-0.7,1.1-0.8,1.9h4.8v-0.1c0-0.8-0.2-1.4-0.7-1.9S116.7,87.1,116,87.1z"/>
		<path d="M122.7,90.4l-1,1v3h-0.9V83.1h0.9v7.2l0.8-0.9l3-3h1.1l-3.4,3.3l3.7,4.6h-1L122.7,90.4z"/>
	</g>
</g>
<g>
	<g>
		<path d="M17.6,13.9v13.3H15v-3.3c0.1-1.6,0.1-3.2,0.2-4.8l-0.1,0l-1.2,3.5l-0.7,1.8h-2.7l-0.7-1.8L8.7,19l-0.1,0
			c0.1,1.6,0.1,3.2,0.2,4.8v3.3H6.2V13.9h2.7l2.1,5c0.3,0.7,0.7,1.8,0.9,2.3h0.1c0.2-0.5,0.6-1.7,0.9-2.3l2.1-5H17.6z"/>
		<path d="M26.8,25H24l-0.4,2.2h-2.8l3.2-13.3h2.9L30,27.2h-2.8L26.8,25z M26.3,22.4L26,20.9c-0.2-0.9-0.4-2.6-0.5-3.6h-0.1
			c-0.1,1.1-0.3,2.7-0.5,3.6l-0.3,1.5H26.3z"/>
		<path d="M38.3,27.2l-1.7-4.2L35,27.2h-3l3.1-6.9l-2.9-6.4h2.9l1.5,3.9l1.5-3.9h2.9l-2.9,6.4l3.1,6.9H38.3z"/>
		<path d="M44.4,13.9h2.7v13.3h-2.7V13.9z"/>
		<path d="M62.8,13.9v13.3h-2.6v-3.3c0.1-1.6,0.1-3.2,0.2-4.8l-0.1,0l-1.2,3.5l-0.7,1.8h-2.7l-0.7-1.8L53.9,19l-0.1,0
			c0.1,1.6,0.1,3.2,0.2,4.8v3.3h-2.6V13.9h2.7l2.1,5c0.3,0.7,0.7,1.8,0.9,2.3h0.1c0.2-0.5,0.6-1.7,0.9-2.3l2.1-5H62.8z"/>
		<path d="M72,25h-2.8l-0.4,2.2H66l3.2-13.3H72l3.2,13.3h-2.8L72,25z M71.1,12.6h-1.8l1.8-2.6h2.1L71.1,12.6z M71.5,22.4l-0.3-1.5
			c-0.2-0.9-0.4-2.6-0.5-3.6h-0.1c-0.1,1.1-0.3,2.7-0.5,3.6l-0.3,1.5H71.5z"/>
		<path d="M85,24.6v2.6h-6.7V13.9h2.7v10.7H85z"/>
		<path d="M88.2,13.9h2.7l2.5,5.8c0.3,0.8,0.6,1.7,0.9,2.5l0.1-0.1c-0.2-1.7-0.4-4-0.4-5.2v-3.1h2.7v13.3H94L91.8,22l-1.2-3.2
			l-0.1,0.1c0.2,1.7,0.3,4.2,0.3,5.6v2.7h-2.7V13.9z"/>
		<path d="M100.9,13.9h2.7v13.3h-2.7V13.9z M102.8,10h2.1l-2.1,2.6H101L102.8,10z"/>
		<path d="M125,13.9v13.3h-2.6v-3.3c0.1-1.6,0.1-3.2,0.2-4.8l-0.1,0l-1.2,3.5l-0.7,1.8H118l-0.7-1.8l-1.2-3.5l-0.1,0
			c0.1,1.6,0.1,3.2,0.2,4.8v3.3h-2.6V13.9h2.7l2.1,5c0.3,0.7,0.7,1.8,0.9,2.3h0.1c0.2-0.5,0.6-1.7,0.9-2.3l2.1-5H125z"/>
		<path d="M129.3,13.9h2.7l2.5,5.8c0.3,0.8,0.6,1.7,0.9,2.5l0.1-0.1c-0.2-1.7-0.4-4-0.4-5.2v-3.1h2.7v13.3h-2.7l-2.2-5.1l-1.2-3.2
			l-0.1,0.1c0.2,1.7,0.3,4.2,0.3,5.6v2.7h-2.7V13.9z"/>
		<path d="M141.6,22.9v-4.7c0-2.8,1.6-4.5,4.3-4.5s4.3,1.7,4.3,4.5v4.7c0,2.8-1.6,4.5-4.3,4.5S141.6,25.7,141.6,22.9z M147.5,22.9
			v-4.7c0-1.3-0.5-1.9-1.5-1.9c-1,0-1.5,0.7-1.5,1.9v4.7c0,1.3,0.5,1.9,1.5,1.9C147,24.8,147.5,24.1,147.5,22.9z"/>
		<path d="M160.8,24.6v2.6h-7.6v-1.8l4.2-8.9h-3.9v-2.6h7.2v1.9l-4.2,8.9H160.8z M156.2,12.6l-1.5-2.6h1.7l0.8,1.3L158,10h1.7
			l-1.5,2.6H156.2z"/>
		<path d="M163.5,23.3h2.8c0,1.1,0.5,1.5,1.4,1.5c0.9,0,1.3-0.5,1.3-1.2c0-2.2-5.2-2.5-5.2-6.5c0-2,1.4-3.5,3.9-3.5s3.9,1.5,3.9,3.9
			h-2.8c0-0.9-0.4-1.3-1.2-1.3c-0.7,0-1.1,0.4-1.1,1c0,2.1,5.3,2.2,5.3,6.5c0,2.2-1.5,3.8-4.2,3.8C165.1,27.4,163.5,26,163.5,23.3z"
			/>
		<path d="M182.4,16.4h-2.6v10.7H177V16.4h-2.6v-2.6h8V16.4z"/>
		<path d="M184.6,13.9h2.8l1.2,6.3c0.2,1,0.4,2.6,0.6,3.7h0.1c0.1-1.1,0.4-2.7,0.6-3.7l1.2-6.3h2.8l-3.2,13.3h-2.8L184.6,13.9z"/>
		<path d="M196.9,13.9h2.7v13.3h-2.7V13.9z M198.7,10h2.1l-2.1,2.6H197L198.7,10z"/>
		<path d="M214.5,25h-2.8l-0.4,2.2h-2.8l3.2-13.3h2.9l3.2,13.3h-2.8L214.5,25z M213.9,22.4l-0.3-1.5c-0.2-0.9-0.4-2.6-0.5-3.6H213
			c-0.1,1.1-0.3,2.7-0.5,3.6l-0.3,1.5H213.9z"/>
		<path d="M227.5,24.6v2.6h-6.7V13.9h2.7v10.7H227.5z"/>
		<path d="M230.3,22.9v-4.7c0-2.8,1.6-4.5,4.3-4.5s4.3,1.7,4.3,4.5v4.7c0,2.8-1.6,4.5-4.3,4.5S230.3,25.7,230.3,22.9z M236.1,22.9
			v-4.7c0-1.3-0.5-1.9-1.5-1.9c-1,0-1.5,0.7-1.5,1.9v4.7c0,1.3,0.5,1.9,1.5,1.9C235.6,24.8,236.1,24.1,236.1,22.9z"/>
		<path d="M246.2,22.1l-0.7,1.2v3.8h-2.7V13.9h2.7V19l0.7-1.5l1.9-3.6h3.1l-3.4,5.8l4,7.5h-3L246.2,22.1z"/>
		<path d="M254,22.9v-4.7c0-2.8,1.6-4.5,4.3-4.5c2.7,0,4.3,1.7,4.3,4.5v4.7c0,2.8-1.6,4.5-4.3,4.5C255.7,27.4,254,25.7,254,22.9z
			 M259.9,22.9v-4.7c0-1.3-0.5-1.9-1.5-1.9c-1,0-1.5,0.7-1.5,1.9v4.7c0,1.3,0.5,1.9,1.5,1.9C259.4,24.8,259.9,24.1,259.9,22.9z"/>
		<path d="M265.4,13.9h2.8l1.2,6.3c0.2,1,0.4,2.6,0.6,3.7h0.1c0.1-1.1,0.4-2.7,0.6-3.7l1.2-6.3h2.8l-3.2,13.3h-2.8L265.4,13.9z"/>
		<path d="M282,25h-2.8l-0.4,2.2H276l3.2-13.3h2.9l3.2,13.3h-2.8L282,25z M281.5,22.4l-0.3-1.5c-0.2-0.9-0.4-2.6-0.5-3.6h-0.1
			c-0.1,1.1-0.3,2.7-0.5,3.6l-0.3,1.5H281.5z"/>
		<path d="M288.4,13.9h2.7l2.5,5.8c0.3,0.8,0.6,1.7,0.9,2.5l0.1-0.1c-0.2-1.7-0.4-4-0.4-5.2v-3.1h2.7v13.3h-2.7l-2.2-5.1l-1.2-3.2
			l-0.1,0.1c0.2,1.7,0.3,4.2,0.3,5.6v2.7h-2.7V13.9z"/>
		<path d="M303,23.2l-3.1-9.3h2.8l1.1,3.7c0.1,0.4,0.4,1.5,0.6,2.1h0.1c0.2-0.6,0.5-1.7,0.6-2.2l1-3.6h2.8l-3.1,9.3v4H303V23.2z
			 M304.9,10h2.1l-2.1,2.6h-1.8L304.9,10z"/>
		<path d="M311.6,23.1v-5.2c0-2.8,1.5-4.3,4.1-4.3c2.7,0,4.1,1.5,4.2,4.3h-2.7c-0.1-1.2-0.5-1.7-1.6-1.7c-0.8,0-1.3,0.5-1.3,1.7v5.2
			c0,1.1,0.5,1.7,1.3,1.7c1,0,1.5-0.5,1.6-1.7h2.7c-0.1,2.8-1.6,4.3-4.3,4.3C313.1,27.4,311.6,25.9,311.6,23.1z"/>
		<path d="M331.6,13.9v13.3h-2.7v-5.4h-2.7v5.4h-2.7V13.9h2.7v5.3h2.7v-5.3H331.6z"/>
		<path d="M349.8,18.4c0,2.8-1.6,4.5-4.4,4.5h-1.2v4.3h-2.7V13.9h3.9C348.2,13.9,349.8,15.5,349.8,18.4z M347,18.4
			c0-1.3-0.6-2-1.7-2h-1.1v3.9h1.1C346.5,20.3,347,19.7,347,18.4z"/>
		<path d="M353,22.9v-4.7c0-2.8,1.6-4.5,4.3-4.5s4.3,1.7,4.3,4.5v4.7c0,2.8-1.6,4.5-4.3,4.5S353,25.7,353,22.9z M358.9,22.9v-4.7
			c0-1.3-0.5-1.9-1.5-1.9c-1,0-1.5,0.7-1.5,1.9v4.7c0,1.3,0.5,1.9,1.5,1.9C358.4,24.8,358.9,24.1,358.9,22.9z"/>
		<path d="M364.4,13.9h2.8l1.2,6.3c0.2,1,0.4,2.6,0.6,3.7h0.1c0.1-1.1,0.4-2.7,0.6-3.7l1.2-6.3h2.8l-3.2,13.3h-2.8L364.4,13.9z"/>
		<path d="M376.3,22.9v-4.7c0-2.8,1.6-4.5,4.3-4.5s4.3,1.7,4.3,4.5v4.7c0,2.8-1.6,4.5-4.3,4.5S376.3,25.7,376.3,22.9z M382.2,22.9
			v-4.7c0-1.3-0.5-1.9-1.5-1.9c-1,0-1.5,0.7-1.5,1.9v4.7c0,1.3,0.5,1.9,1.5,1.9C381.7,24.8,382.2,24.1,382.2,22.9z"/>
		<path d="M395.5,24.6v2.6h-6.7V13.9h2.7v10.7H395.5z"/>
		<path d="M405.7,24.6v2.6h-7V13.9h6.9v2.6h-4.2v2.8h3.8v2.5h-3.8v2.9H405.7z"/>
		<path d="M409.5,13.9h2.7l2.5,5.8c0.3,0.8,0.6,1.7,0.9,2.5l0.1-0.1c-0.2-1.7-0.4-4-0.4-5.2v-3.1h2.7v13.3h-2.7L413,22l-1.2-3.2
			l-0.1,0.1c0.2,1.7,0.3,4.2,0.3,5.6v2.7h-2.7V13.9z"/>
		<path d="M429.2,24.6v2.6h-7V13.9h6.9v2.6h-4.2v2.8h3.8v2.5h-3.8v2.9H429.2z"/>
		<path d="M436.4,22.1l-0.7,1.2v3.8H433V13.9h2.7V19l0.7-1.5l1.9-3.6h3.1l-3.4,5.8l4,7.5h-3L436.4,22.1z"/>
		<path d="M449.5,13.9h2.8l1.2,6.3c0.2,1,0.4,2.6,0.6,3.7h0.1c0.1-1.1,0.4-2.7,0.6-3.7l1.2-6.3h2.8l-3.2,13.3h-2.8L449.5,13.9z"/>
		<path d="M466.3,27.6c1.5,0,2.3-0.5,2.3-2.5V13.9h2.7v11.3c0,3-1.7,4.9-5,4.9V27.6z"/>
		<path d="M482.5,24.6v2.6h-7V13.9h6.9v2.6h-4.2v2.8h3.8v2.5h-3.8v2.9H482.5z"/>
		<path d="M486.3,13.9h3.6c2.7,0,4.3,1.6,4.3,4.4v4.4c0,2.8-1.6,4.5-4.2,4.5h-3.7V13.9z M490,24.6c1,0,1.5-0.7,1.5-1.9v-4.4
			c0-1.2-0.5-1.8-1.5-1.8h-1v8.2H490z"/>
		<path d="M498.1,13.9h2.7l2.5,5.8c0.3,0.8,0.6,1.7,0.9,2.5l0.1-0.1c-0.2-1.7-0.4-4-0.4-5.2v-3.1h2.7v13.3h-2.7l-2.2-5.1l-1.2-3.2
			l-0.1,0.1c0.2,1.7,0.3,4.2,0.3,5.6v2.7h-2.7V13.9z"/>
		<path d="M510.4,22.9v-4.7c0-2.8,1.6-4.5,4.3-4.5s4.3,1.7,4.3,4.5v4.7c0,2.8-1.6,4.5-4.3,4.5S510.4,25.7,510.4,22.9z M516.2,22.9
			v-4.7c0-1.3-0.5-1.9-1.5-1.9c-1,0-1.5,0.7-1.5,1.9v4.7c0,1.3,0.5,1.9,1.5,1.9C515.7,24.8,516.2,24.1,516.2,22.9z"/>
		<path d="M530,16.4h-2.6v10.7h-2.8V16.4H522v-2.6h8V16.4z"/>
		<path d="M539.8,24.6v2.6h-6.6V13.9h2.7v10.7H539.8z"/>
		<path d="M543,13.9h2.7v13.3H543V13.9z"/>
		<path d="M548.8,13.9h2.8l1.2,6.3c0.2,1,0.4,2.6,0.6,3.7h0.1c0.1-1.1,0.4-2.7,0.6-3.7l1.2-6.3h2.8l-3.2,13.3H552L548.8,13.9z"/>
		<path d="M563.1,23.2l-3.1-9.3h2.8l1.1,3.7c0.1,0.4,0.4,1.5,0.6,2.1h0.1c0.2-0.6,0.5-1.7,0.6-2.2l1-3.6h2.8l-3.1,9.3v4h-2.7V23.2z
			 M564.9,10h2.1l-2.1,2.6h-1.8L564.9,10z"/>
		<path d="M571.6,23.1v-5.2c0-2.8,1.5-4.3,4.1-4.3c2.7,0,4.1,1.5,4.2,4.3h-2.7c-0.1-1.2-0.5-1.7-1.6-1.7c-0.8,0-1.3,0.5-1.3,1.7v5.2
			c0,1.1,0.5,1.7,1.3,1.7c1,0,1.5-0.5,1.6-1.7h2.7c-0.1,2.8-1.6,4.3-4.3,4.3C573.1,27.4,571.6,25.9,571.6,23.1z"/>
		<path d="M591.7,13.9v13.3h-2.7v-5.4h-2.7v5.4h-2.7V13.9h2.7v5.3h2.7v-5.3H591.7z"/>
		<path d="M608.3,24.6v2.6h-6.6V13.9h2.7v10.7H608.3z"/>
		<path d="M618.5,24.6v2.6h-7V13.9h6.9v2.6h-4.2v2.8h3.8v2.5h-3.8v2.9H618.5z"/>
		<path d="M629.3,16.4h-2.6v10.7H624V16.4h-2.6v-2.6h8V16.4z"/>
		<path d="M639.6,24.6v2.6h-7V13.9h6.9v2.6h-4.2v2.8h3.8v2.5h-3.8v2.9H639.6z"/>
		<path d="M642.9,23.1v-5.2c0-2.8,1.5-4.3,4.1-4.3c2.7,0,4.1,1.5,4.2,4.3h-2.7c-0.1-1.2-0.5-1.7-1.6-1.7c-0.8,0-1.3,0.5-1.3,1.7v5.2
			c0,1.1,0.5,1.7,1.3,1.7c1,0,1.5-0.5,1.6-1.7h2.7c-0.1,2.8-1.6,4.3-4.3,4.3C644.4,27.4,642.9,25.9,642.9,23.1z"/>
		<path d="M662.9,13.9v13.3h-2.7v-5.4h-2.7v5.4h-2.7V13.9h2.7v5.3h2.7v-5.3H662.9z"/>
	</g>
</g>
<rect x="50.9" y="141.3" opacity="0.1" fill="#231F20" width="37.7" height="213.7"/>
<rect x="88.6" y="145.3" opacity="0.1" fill="#231F20" width="37.7" height="209.7"/>
<rect x="126.4" y="149.2" opacity="0.1" fill="#231F20" width="37.7" height="205.8"/>
<rect x="164.1" y="153.1" opacity="0.1" fill="#231F20" width="37.7" height="201.9"/>
<rect x="201.9" y="157" opacity="0.1" fill="#231F20" width="37.7" height="198"/>
<rect x="239.6" y="161" opacity="0.1" fill="#231F20" width="37.7" height="194.1"/>
<rect x="277.3" y="164.9" opacity="0.1" fill="#231F20" width="37.7" height="190.1"/>
<rect x="315.1" y="168.8" opacity="0.1" fill="#231F20" width="37.7" height="186.2"/>
<rect x="352.8" y="193.9" opacity="0.1" fill="#231F20" width="37.7" height="161.1"/>
<rect x="390.6" y="198.3" opacity="0.1" fill="#231F20" width="37.7" height="156.7"/>
<rect x="428.3" y="202.7" opacity="0.1" fill="#231F20" width="37.7" height="152.3"/>
<rect x="466.1" y="220.4" opacity="0.1" fill="#231F20" width="37.7" height="134.7"/>
<rect x="503.8" y="229.2" opacity="0.1" fill="#231F20" width="37.7" height="125.8"/>
<rect x="541.5" y="240.6" opacity="0.1" fill="#231F20" width="37.7" height="114.4"/>
<rect x="579.3" y="249.4" opacity="0.1" fill="#231F20" width="37.7" height="105.6"/>
<rect x="617" y="258.2" opacity="0.1" fill="#231F20" width="37.7" height="96.8"/>
<rect x="654.8" y="267" opacity="0.1" fill="#231F20" width="37.7" height="87.9"/>
<rect x="692.5" y="275.8" opacity="0.1" fill="#231F20" width="37.7" height="79.2"/>
<line fill="none" stroke="#CCCCCC" stroke-width="2" stroke-miterlimit="10" x1="352.8" y1="193.9" x2="352.8" y2="355"/>
<line fill="none" stroke="#CCCCCC" stroke-width="2" stroke-miterlimit="10" x1="50.9" y1="141.3" x2="50.9" y2="355"/>
<g>
	<g>
		<path fill="none" stroke="#939598" stroke-miterlimit="10" d="M362.5,179.2c6.1-0.4,35.8-3.8,35.8-37.8"/>
		<g>
			<polygon fill="#939598" points="366.2,182.9 366.8,182.1 362.9,179.1 366.2,175.4 365.4,174.8 361.4,179.2 			"/>
		</g>
	</g>
</g>
<g>
	<path fill="#999999" d="M186.2,278.4h-4v4.2h-1.7v-9.9h6.3v1.4h-4.6v3h4V278.4z"/>
	<path fill="#999999" d="M192.2,282.7c-0.1-0.1-0.1-0.4-0.2-0.7c-0.5,0.6-1.2,0.8-1.9,0.8c-0.7,0-1.3-0.2-1.8-0.6
		c-0.5-0.4-0.7-0.9-0.7-1.6c0-0.8,0.3-1.4,0.9-1.8c0.6-0.4,1.4-0.6,2.5-0.6h1v-0.5c0-0.4-0.1-0.7-0.3-0.9c-0.2-0.2-0.5-0.3-1-0.3
		c-0.4,0-0.7,0.1-0.9,0.3c-0.2,0.2-0.4,0.4-0.4,0.7h-1.7c0-0.4,0.1-0.8,0.4-1.1c0.3-0.4,0.6-0.6,1.1-0.8c0.5-0.2,1-0.3,1.5-0.3
		c0.9,0,1.6,0.2,2.1,0.7c0.5,0.4,0.8,1,0.8,1.8v3.3c0,0.7,0.1,1.2,0.3,1.6v0.1H192.2z M190.4,281.5c0.3,0,0.6-0.1,0.9-0.2
		s0.5-0.4,0.7-0.6v-1.4H191c-0.6,0-1.1,0.1-1.4,0.3c-0.3,0.2-0.5,0.5-0.5,0.9c0,0.3,0.1,0.6,0.3,0.8
		C189.7,281.4,190,281.5,190.4,281.5z M191.3,272.2h1.9l-1.9,2.1l-1.3,0L191.3,272.2z"/>
	<path fill="#999999" d="M197.1,281.3h3.9v1.3h-6v-1.1l3.8-5h-3.7v-1.3h5.8v1.1L197.1,281.3z"/>
	<path fill="#999999" d="M205.5,282.8c-1.1,0-1.9-0.3-2.6-1c-0.7-0.7-1-1.5-1-2.6v-0.2c0-0.7,0.1-1.4,0.4-2c0.3-0.6,0.7-1,1.2-1.4
		s1.1-0.5,1.7-0.5c1,0,1.8,0.3,2.3,1c0.5,0.6,0.8,1.6,0.8,2.7v0.7h-4.8c0,0.6,0.3,1.1,0.6,1.4s0.8,0.5,1.3,0.5
		c0.8,0,1.4-0.3,1.9-0.9l0.9,0.9c-0.3,0.4-0.7,0.8-1.2,1C206.7,282.7,206.1,282.8,205.5,282.8z M205.3,276.5c-0.5,0-0.8,0.2-1.1,0.5
		c-0.3,0.3-0.5,0.8-0.5,1.3h3.2v-0.1c0-0.6-0.2-1-0.4-1.3C206.1,276.6,205.8,276.5,205.3,276.5z"/>
	<path fill="#999999" d="M215.2,282.7h-1.7v-9.9h1.7V282.7z"/>
	<path fill="#999999" d="M219.2,282.7h-1.7v-9.9h1.7V282.7z"/>
	<path fill="#999999" d="M223.1,282.7h-1.7v-9.9h1.7V282.7z"/>
</g>
<g>
	<path fill="#999999" d="M525.3,278.4h-4v4.2h-1.7v-9.9h6.3v1.4h-4.6v3h4V278.4z"/>
	<path fill="#999999" d="M531.3,282.7c-0.1-0.1-0.1-0.4-0.2-0.7c-0.5,0.6-1.2,0.8-1.9,0.8c-0.7,0-1.3-0.2-1.8-0.6
		c-0.5-0.4-0.7-0.9-0.7-1.6c0-0.8,0.3-1.4,0.9-1.8c0.6-0.4,1.4-0.6,2.5-0.6h1v-0.5c0-0.4-0.1-0.7-0.3-0.9c-0.2-0.2-0.5-0.3-1-0.3
		c-0.4,0-0.7,0.1-0.9,0.3c-0.2,0.2-0.4,0.4-0.4,0.7h-1.7c0-0.4,0.1-0.8,0.4-1.1c0.3-0.4,0.6-0.6,1.1-0.8c0.5-0.2,1-0.3,1.5-0.3
		c0.9,0,1.6,0.2,2.1,0.7c0.5,0.4,0.8,1,0.8,1.8v3.3c0,0.7,0.1,1.2,0.3,1.6v0.1H531.3z M529.5,281.5c0.3,0,0.6-0.1,0.9-0.2
		s0.5-0.4,0.7-0.6v-1.4h-0.9c-0.6,0-1.1,0.1-1.4,0.3c-0.3,0.2-0.5,0.5-0.5,0.9c0,0.3,0.1,0.6,0.3,0.8
		C528.9,281.4,529.1,281.5,529.5,281.5z M530.4,272.2h1.9l-1.9,2.1l-1.3,0L530.4,272.2z"/>
	<path fill="#999999" d="M536.2,281.3h3.9v1.3h-6v-1.1l3.8-5h-3.7v-1.3h5.8v1.1L536.2,281.3z"/>
	<path fill="#999999" d="M544.6,282.8c-1.1,0-1.9-0.3-2.6-1c-0.7-0.7-1-1.5-1-2.6v-0.2c0-0.7,0.1-1.4,0.4-2c0.3-0.6,0.7-1,1.2-1.4
		s1.1-0.5,1.7-0.5c1,0,1.8,0.3,2.3,1c0.5,0.6,0.8,1.6,0.8,2.7v0.7h-4.8c0,0.6,0.3,1.1,0.6,1.4s0.8,0.5,1.3,0.5
		c0.8,0,1.4-0.3,1.9-0.9l0.9,0.9c-0.3,0.4-0.7,0.8-1.2,1C545.8,282.7,545.3,282.8,544.6,282.8z M544.5,276.5c-0.5,0-0.8,0.2-1.1,0.5
		c-0.3,0.3-0.5,0.8-0.5,1.3h3.2v-0.1c0-0.6-0.2-1-0.4-1.3C545.3,276.6,544.9,276.5,544.5,276.5z"/>
	<path fill="#999999" d="M554.4,282.7h-1.7v-9.9h1.7V282.7z"/>
	<path fill="#999999" d="M560,280.5l2.5-7.8h1.9l-3.6,9.9h-1.7l-3.6-9.9h1.9L560,280.5z"/>
</g>
<rect x="379.9" y="94.4" fill="#FFFFFF" width="282.4" height="7.5"/>
<g>
	<g>
		<path d="M396.5,99.7l0.1,0.2l0.1-0.2l3.4-9.3h1l-4,10.7h-0.9l-4-10.7h1L396.5,99.7z"/>
		<path d="M405.1,101.1c-0.7,0-1.3-0.2-1.8-0.5s-1-0.8-1.3-1.4c-0.3-0.6-0.5-1.3-0.5-2v-0.3c0-0.8,0.1-1.4,0.4-2.1
			c0.3-0.6,0.7-1.1,1.2-1.4c0.5-0.3,1.1-0.5,1.7-0.5c1,0,1.7,0.3,2.3,1s0.8,1.6,0.8,2.7v0.5h-5.7v0.2c0,0.9,0.3,1.6,0.8,2.2
			c0.5,0.6,1.2,0.9,1.9,0.9c0.5,0,0.9-0.1,1.2-0.3s0.7-0.4,1-0.8l0.6,0.4C407.3,100.7,406.3,101.1,405.1,101.1z M405,93.7
			c-0.7,0-1.2,0.2-1.7,0.7s-0.7,1.1-0.8,1.9h4.8v-0.1c0-0.8-0.2-1.4-0.7-1.9S405.6,93.7,405,93.7z"/>
		<path d="M410.8,101h-0.9V89.7h0.9V101z"/>
		<path d="M415,97l-1,1v3h-0.9V89.7h0.9v7.2l0.8-0.9l3-3h1.1l-3.4,3.3l3.7,4.6h-1L415,97z"/>
		<path d="M425.5,101c-0.1-0.2-0.1-0.6-0.2-1.1c-0.3,0.4-0.7,0.7-1.2,0.9c-0.5,0.2-1,0.3-1.5,0.3c-0.8,0-1.4-0.2-1.8-0.6
			s-0.7-1-0.7-1.6c0-0.8,0.3-1.4,1-1.8c0.6-0.4,1.5-0.7,2.7-0.7h1.6v-0.9c0-0.6-0.2-1-0.5-1.3c-0.3-0.3-0.9-0.5-1.5-0.5
			c-0.6,0-1.1,0.2-1.5,0.5s-0.6,0.7-0.6,1.1l-0.9,0c0-0.6,0.3-1.2,0.9-1.6c0.6-0.5,1.3-0.7,2.2-0.7c0.9,0,1.6,0.2,2.1,0.7
			c0.5,0.4,0.8,1.1,0.8,1.8v3.8c0,0.8,0.1,1.3,0.2,1.7v0.1H425.5z M422.8,100.4c0.6,0,1.1-0.1,1.6-0.4s0.8-0.7,1-1.1v-1.7h-1.6
			c-0.9,0-1.6,0.2-2.1,0.5c-0.5,0.3-0.7,0.7-0.7,1.3c0,0.4,0.2,0.8,0.5,1.1C421.8,100.2,422.2,100.4,422.8,100.4z M424.5,89.7h1.1
			l-1.7,2.1l-0.8,0L424.5,89.7z"/>
		<path d="M432.4,101V90.3h3.1c1.1,0,2,0.2,2.6,0.7c0.6,0.5,0.9,1.2,0.9,2.1c0,0.6-0.2,1-0.4,1.4c-0.3,0.4-0.7,0.7-1.2,0.9
			c0.6,0.1,1.1,0.4,1.5,0.9c0.4,0.5,0.6,1,0.6,1.6c0,0.9-0.3,1.7-0.9,2.2c-0.6,0.5-1.5,0.8-2.5,0.8H432.4z M433.3,95.1h2.5
			c0.8,0,1.3-0.2,1.7-0.5c0.4-0.3,0.6-0.8,0.6-1.5c0-0.7-0.2-1.2-0.6-1.5c-0.4-0.3-1.1-0.5-1.9-0.5h-2.2V95.1z M433.3,95.9v4.4h2.7
			c0.8,0,1.4-0.2,1.8-0.6c0.5-0.4,0.7-0.9,0.7-1.6c0-0.7-0.2-1.2-0.6-1.6c-0.4-0.4-1-0.6-1.8-0.6H433.3z"/>
		<path d="M445,93.8c-0.2,0-0.4-0.1-0.6-0.1c-0.5,0-1,0.2-1.4,0.5c-0.4,0.3-0.6,0.7-0.8,1.3v5.4h-0.9v-7.9h0.9l0,1.3
			c0.5-0.9,1.2-1.4,2.2-1.4c0.2,0,0.4,0,0.6,0.1L445,93.8z"/>
		<path d="M446.4,90.8c0-0.2,0.1-0.3,0.2-0.4c0.1-0.1,0.3-0.2,0.4-0.2s0.3,0.1,0.4,0.2c0.1,0.1,0.2,0.3,0.2,0.4
			c0,0.2-0.1,0.3-0.2,0.4c-0.1,0.1-0.3,0.2-0.4,0.2s-0.3-0.1-0.4-0.2C446.4,91.1,446.4,90.9,446.4,90.8z M447.4,101h-0.9v-7.9h0.9
			V101z"/>
		<path d="M451.1,91v2h1.6v0.7h-1.6v5.3c0,0.4,0.1,0.8,0.2,1c0.2,0.2,0.4,0.3,0.8,0.3c0.1,0,0.4,0,0.7-0.1l0,0.7
			c-0.2,0.1-0.5,0.1-0.9,0.1c-0.6,0-1-0.2-1.3-0.5s-0.4-0.9-0.4-1.5v-5.3h-1.5v-0.7h1.5v-2H451.1z"/>
		<path d="M459.6,101c-0.1-0.2-0.1-0.6-0.2-1.1c-0.3,0.4-0.7,0.7-1.2,0.9c-0.5,0.2-1,0.3-1.5,0.3c-0.8,0-1.4-0.2-1.8-0.6
			c-0.5-0.4-0.7-1-0.7-1.6c0-0.8,0.3-1.4,1-1.8s1.5-0.7,2.7-0.7h1.6v-0.9c0-0.6-0.2-1-0.5-1.3c-0.3-0.3-0.9-0.5-1.5-0.5
			c-0.6,0-1.1,0.2-1.5,0.5s-0.6,0.7-0.6,1.1l-0.9,0c0-0.6,0.3-1.2,0.9-1.6c0.6-0.5,1.3-0.7,2.2-0.7c0.9,0,1.6,0.2,2.1,0.7
			s0.8,1.1,0.8,1.8v3.8c0,0.8,0.1,1.3,0.2,1.7v0.1H459.6z M456.9,100.4c0.6,0,1.1-0.1,1.6-0.4c0.5-0.3,0.8-0.7,1-1.1v-1.7h-1.6
			c-0.9,0-1.6,0.2-2.1,0.5c-0.5,0.3-0.7,0.7-0.7,1.3c0,0.4,0.2,0.8,0.5,1.1S456.3,100.4,456.9,100.4z M458.6,89.7h1.1l-1.7,2.1
			l-0.8,0L458.6,89.7z"/>
		<path d="M463.5,93.1l0,1.4c0.3-0.5,0.7-0.9,1.1-1.1c0.4-0.3,0.9-0.4,1.5-0.4c0.8,0,1.5,0.2,1.9,0.7c0.4,0.5,0.6,1.2,0.6,2.2v5.2
			h-0.9v-5.2c0-0.7-0.2-1.2-0.5-1.6c-0.3-0.3-0.8-0.5-1.4-0.5c-0.5,0-1,0.2-1.4,0.5c-0.4,0.3-0.7,0.8-0.9,1.4v5.4h-0.9v-7.9H463.5z"
			/>
		<path d="M470.8,90.8c0-0.2,0.1-0.3,0.2-0.4c0.1-0.1,0.3-0.2,0.4-0.2s0.3,0.1,0.4,0.2c0.1,0.1,0.2,0.3,0.2,0.4
			c0,0.2-0.1,0.3-0.2,0.4c-0.1,0.1-0.3,0.2-0.4,0.2s-0.3-0.1-0.4-0.2C470.9,91.1,470.8,90.9,470.8,90.8z M471.9,101H471v-7.9h0.9
			V101z"/>
		<path d="M477.3,101.1c-0.7,0-1.3-0.2-1.8-0.5s-1-0.8-1.3-1.4c-0.3-0.6-0.5-1.3-0.5-2v-0.3c0-0.8,0.1-1.4,0.4-2.1
			c0.3-0.6,0.7-1.1,1.2-1.4c0.5-0.3,1.1-0.5,1.7-0.5c1,0,1.7,0.3,2.3,1s0.8,1.6,0.8,2.7v0.5h-5.7v0.2c0,0.9,0.3,1.6,0.8,2.2
			c0.5,0.6,1.2,0.9,1.9,0.9c0.5,0,0.9-0.1,1.2-0.3s0.7-0.4,1-0.8l0.6,0.4C479.5,100.7,478.5,101.1,477.3,101.1z M477.1,93.7
			c-0.7,0-1.2,0.2-1.7,0.7s-0.7,1.1-0.8,1.9h4.8v-0.1c0-0.8-0.2-1.4-0.7-1.9S477.8,93.7,477.1,93.7z"/>
		<path d="M485.2,96.9c0-0.8,0.1-1.4,0.4-2.1c0.3-0.6,0.7-1.1,1.3-1.4c0.5-0.3,1.2-0.5,1.8-0.5c1.1,0,1.9,0.4,2.6,1.1
			c0.7,0.7,1,1.7,1,2.9v0.2c0,0.8-0.1,1.5-0.4,2.1c-0.3,0.6-0.7,1.1-1.2,1.4s-1.2,0.5-1.8,0.5c-1.1,0-1.9-0.4-2.6-1.1
			c-0.7-0.7-1-1.7-1-2.9V96.9z M486,97.1c0,0.9,0.2,1.7,0.7,2.3c0.5,0.6,1.1,0.9,1.9,0.9c0.8,0,1.4-0.3,1.9-0.9
			c0.5-0.6,0.7-1.4,0.7-2.4v-0.2c0-0.6-0.1-1.2-0.3-1.7s-0.5-0.9-0.9-1.2c-0.4-0.3-0.9-0.4-1.4-0.4c-0.8,0-1.4,0.3-1.9,0.9
			c-0.5,0.6-0.7,1.4-0.7,2.4V97.1z"/>
		<path d="M493.7,96.9c0-1.2,0.3-2.2,0.8-2.9c0.5-0.7,1.3-1.1,2.2-1.1c1.1,0,1.9,0.4,2.4,1.3v-4.4h0.9V101h-0.8l0-1.1
			c-0.6,0.8-1.4,1.2-2.5,1.2c-0.9,0-1.6-0.4-2.2-1.1c-0.6-0.7-0.8-1.7-0.8-3V96.9z M494.6,97.1c0,1,0.2,1.8,0.6,2.4
			c0.4,0.6,1,0.9,1.7,0.9c1.1,0,1.8-0.5,2.3-1.4v-3.7c-0.5-1-1.2-1.5-2.3-1.5c-0.7,0-1.3,0.3-1.7,0.9
			C494.8,95.1,494.6,96,494.6,97.1z"/>
		<path d="M505.3,100.4c0.6,0,1.1-0.2,1.5-0.5c0.4-0.3,0.6-0.8,0.7-1.3h0.8c0,0.5-0.2,0.9-0.5,1.3c-0.3,0.4-0.6,0.7-1.1,0.9
			s-1,0.3-1.5,0.3c-1,0-1.9-0.4-2.5-1.1s-0.9-1.7-0.9-2.9v-0.3c0-0.8,0.1-1.5,0.4-2.1s0.7-1.1,1.2-1.4s1.1-0.5,1.8-0.5
			c0.9,0,1.6,0.3,2.2,0.8c0.6,0.5,0.9,1.2,0.9,2h-0.8c0-0.6-0.3-1.1-0.7-1.5c-0.4-0.4-0.9-0.6-1.5-0.6c-0.8,0-1.4,0.3-1.8,0.9
			s-0.7,1.4-0.7,2.4v0.3c0,1,0.2,1.8,0.7,2.4S504.5,100.4,505.3,100.4z"/>
		<path d="M511,94.4c0.3-0.5,0.7-0.8,1.1-1.1c0.4-0.3,0.9-0.4,1.5-0.4c0.8,0,1.5,0.2,1.9,0.7c0.4,0.5,0.6,1.2,0.6,2.2v5.2h-0.9v-5.2
			c0-0.7-0.2-1.2-0.5-1.6c-0.3-0.3-0.8-0.5-1.4-0.5c-0.5,0-1,0.2-1.4,0.5c-0.4,0.3-0.7,0.8-0.9,1.4v5.4h-0.9V89.7h0.9V94.4z"/>
		<path d="M517.9,96.9c0-0.8,0.1-1.4,0.4-2.1c0.3-0.6,0.7-1.1,1.3-1.4c0.5-0.3,1.2-0.5,1.8-0.5c1.1,0,1.9,0.4,2.6,1.1
			c0.7,0.7,1,1.7,1,2.9v0.2c0,0.8-0.1,1.5-0.4,2.1c-0.3,0.6-0.7,1.1-1.2,1.4s-1.2,0.5-1.8,0.5c-1.1,0-1.9-0.4-2.6-1.1
			c-0.7-0.7-1-1.7-1-2.9V96.9z M518.7,97.1c0,0.9,0.2,1.7,0.7,2.3c0.5,0.6,1.1,0.9,1.9,0.9c0.8,0,1.4-0.3,1.9-0.9
			c0.5-0.6,0.7-1.4,0.7-2.4v-0.2c0-0.6-0.1-1.2-0.3-1.7s-0.5-0.9-0.9-1.2c-0.4-0.3-0.9-0.4-1.4-0.4c-0.8,0-1.4,0.3-1.9,0.9
			c-0.5,0.6-0.7,1.4-0.7,2.4V97.1z"/>
		<path d="M526.4,96.9c0-1.2,0.3-2.2,0.8-2.9c0.5-0.7,1.3-1.1,2.2-1.1c1.1,0,1.9,0.4,2.4,1.3v-4.4h0.9V101h-0.8l0-1.1
			c-0.6,0.8-1.4,1.2-2.5,1.2c-0.9,0-1.6-0.4-2.2-1.1c-0.6-0.7-0.8-1.7-0.8-3V96.9z M527.3,97.1c0,1,0.2,1.8,0.6,2.4
			c0.4,0.6,1,0.9,1.7,0.9c1.1,0,1.8-0.5,2.3-1.4v-3.7c-0.5-1-1.2-1.5-2.3-1.5c-0.7,0-1.3,0.3-1.7,0.9
			C527.5,95.1,527.3,96,527.3,97.1z"/>
		<path d="M538.1,101.1c-0.7,0-1.3-0.2-1.8-0.5c-0.5-0.3-1-0.8-1.3-1.4c-0.3-0.6-0.5-1.3-0.5-2v-0.3c0-0.8,0.1-1.4,0.4-2.1
			s0.7-1.1,1.2-1.4c0.5-0.3,1.1-0.5,1.7-0.5c1,0,1.7,0.3,2.3,1c0.6,0.7,0.8,1.6,0.8,2.7v0.5h-5.7v0.2c0,0.9,0.3,1.6,0.8,2.2
			s1.2,0.9,1.9,0.9c0.5,0,0.9-0.1,1.2-0.3c0.4-0.2,0.7-0.4,1-0.8l0.5,0.4C540.3,100.7,539.4,101.1,538.1,101.1z M538,93.7
			c-0.7,0-1.2,0.2-1.7,0.7c-0.5,0.5-0.7,1.1-0.8,1.9h4.8v-0.1c0-0.8-0.2-1.4-0.7-1.9S538.6,93.7,538,93.7z"/>
		<path d="M543.6,93.1l0,1.3c0.3-0.5,0.7-0.8,1.1-1.1s0.9-0.4,1.5-0.4c1.2,0,2,0.5,2.4,1.5c0.3-0.5,0.7-0.9,1.1-1.1
			c0.5-0.3,1-0.4,1.6-0.4c1.7,0,2.6,0.9,2.6,2.8v5.3H553v-5.2c0-0.7-0.2-1.2-0.5-1.6s-0.8-0.5-1.5-0.5c-0.6,0-1.2,0.2-1.6,0.6
			c-0.4,0.4-0.7,0.9-0.7,1.5v5.2h-0.9v-5.3c0-0.7-0.2-1.2-0.5-1.5c-0.3-0.3-0.8-0.5-1.5-0.5c-0.6,0-1,0.2-1.4,0.5
			c-0.4,0.3-0.7,0.8-0.9,1.4v5.4h-0.9v-7.9H543.6z"/>
		<path d="M560.3,100.2h5.1v0.7h-6.2v-0.6l4.8-6.5h-4.7v-0.8h5.8v0.7L560.3,100.2z"/>
		<path d="M576.8,95.9h-5v4.4h5.7v0.8h-6.6V90.3h6.6v0.8h-5.7v4h5V95.9z"/>
		<path d="M586.8,90.3v7.3c0,0.7-0.2,1.3-0.5,1.9s-0.8,0.9-1.3,1.2c-0.6,0.3-1.2,0.4-2,0.4c-1.1,0-2-0.3-2.7-0.9s-1-1.5-1.1-2.5
			v-7.3h0.9v7.2c0,0.9,0.3,1.6,0.8,2.1c0.5,0.5,1.2,0.7,2.1,0.7s1.6-0.2,2.1-0.7c0.5-0.5,0.8-1.2,0.8-2.1v-7.2H586.8z"/>
		<path d="M592.3,96.9c0-0.8,0.1-1.4,0.4-2.1c0.3-0.6,0.7-1.1,1.3-1.4c0.5-0.3,1.2-0.5,1.8-0.5c1.1,0,1.9,0.4,2.6,1.1
			c0.7,0.7,1,1.7,1,2.9v0.2c0,0.8-0.1,1.5-0.4,2.1c-0.3,0.6-0.7,1.1-1.2,1.4s-1.2,0.5-1.8,0.5c-1.1,0-1.9-0.4-2.6-1.1
			c-0.7-0.7-1-1.7-1-2.9V96.9z M593.1,97.1c0,0.9,0.2,1.7,0.7,2.3c0.5,0.6,1.1,0.9,1.9,0.9c0.8,0,1.4-0.3,1.9-0.9
			c0.5-0.6,0.7-1.4,0.7-2.4v-0.2c0-0.6-0.1-1.2-0.3-1.7s-0.5-0.9-0.9-1.2c-0.4-0.3-0.9-0.4-1.4-0.4c-0.8,0-1.4,0.3-1.9,0.9
			c-0.5,0.6-0.7,1.4-0.7,2.4V97.1z"/>
		<path d="M607.5,97.1c0,1.2-0.3,2.2-0.8,2.9c-0.5,0.7-1.3,1.1-2.2,1.1c-1.1,0-1.9-0.4-2.5-1.1v4h-0.9v-11h0.8l0,1.1
			c0.6-0.8,1.4-1.3,2.5-1.3c0.9,0,1.7,0.4,2.2,1.1c0.5,0.7,0.8,1.7,0.8,3V97.1z M606.6,96.9c0-1-0.2-1.8-0.6-2.4
			c-0.4-0.6-1-0.9-1.7-0.9c-0.5,0-1,0.1-1.4,0.4c-0.4,0.3-0.7,0.6-0.9,1.1V99c0.2,0.5,0.5,0.8,0.9,1s0.9,0.4,1.4,0.4
			c0.7,0,1.3-0.3,1.7-0.9S606.6,98.1,606.6,96.9z"/>
		<path d="M614.5,100c-0.5,0.8-1.4,1.1-2.5,1.1c-0.8,0-1.5-0.2-1.9-0.7c-0.4-0.5-0.7-1.2-0.7-2.2v-5.2h0.9v5c0,1.5,0.6,2.3,1.8,2.3
			c1.3,0,2.1-0.5,2.4-1.6v-5.7h0.9v7.9h-0.8L614.5,100z"/>
		<path d="M622.4,99c0-0.4-0.2-0.8-0.5-1s-0.9-0.5-1.6-0.6c-0.7-0.1-1.2-0.3-1.6-0.5c-0.4-0.2-0.7-0.4-0.9-0.7
			c-0.2-0.3-0.3-0.6-0.3-1c0-0.6,0.3-1.1,0.8-1.5c0.5-0.4,1.2-0.6,2-0.6c0.9,0,1.6,0.2,2.1,0.7c0.5,0.4,0.8,1,0.8,1.7h-0.9
			c0-0.5-0.2-0.8-0.6-1.2c-0.4-0.3-0.9-0.5-1.5-0.5c-0.6,0-1,0.1-1.4,0.4c-0.3,0.3-0.5,0.6-0.5,1c0,0.4,0.1,0.7,0.4,0.9
			s0.8,0.4,1.6,0.6s1.3,0.4,1.7,0.6s0.7,0.5,0.9,0.7s0.3,0.6,0.3,1c0,0.7-0.3,1.2-0.8,1.6s-1.2,0.6-2.1,0.6c-0.9,0-1.7-0.2-2.2-0.7
			c-0.6-0.4-0.9-1-0.9-1.7h0.9c0,0.5,0.2,0.9,0.6,1.2c0.4,0.3,0.9,0.4,1.6,0.4c0.6,0,1.1-0.1,1.5-0.4
			C622.3,99.7,622.4,99.4,622.4,99z"/>
		<path d="M626.7,91v2h1.6v0.7h-1.6v5.3c0,0.4,0.1,0.8,0.2,1c0.2,0.2,0.4,0.3,0.8,0.3c0.1,0,0.4,0,0.7-0.1l0,0.7
			c-0.2,0.1-0.5,0.1-0.9,0.1c-0.6,0-1-0.2-1.3-0.5s-0.4-0.9-0.4-1.5v-5.3h-1.5v-0.7h1.5v-2H626.7z"/>
		<path d="M630.1,90.8c0-0.2,0.1-0.3,0.2-0.4c0.1-0.1,0.3-0.2,0.4-0.2s0.3,0.1,0.4,0.2c0.1,0.1,0.2,0.3,0.2,0.4
			c0,0.2-0.1,0.3-0.2,0.4c-0.1,0.1-0.3,0.2-0.4,0.2s-0.3-0.1-0.4-0.2C630.1,91.1,630.1,90.9,630.1,90.8z M631.1,101h-0.9v-7.9h0.9
			V101z"/>
		<path d="M634.5,101h-0.9V89.7h0.9V101z"/>
		<path d="M641.8,101c-0.1-0.2-0.1-0.6-0.2-1.1c-0.3,0.4-0.7,0.7-1.2,0.9c-0.5,0.2-1,0.3-1.5,0.3c-0.8,0-1.4-0.2-1.8-0.6
			s-0.7-1-0.7-1.6c0-0.8,0.3-1.4,1-1.8c0.6-0.4,1.5-0.7,2.7-0.7h1.6v-0.9c0-0.6-0.2-1-0.5-1.3c-0.3-0.3-0.9-0.5-1.5-0.5
			c-0.6,0-1.1,0.2-1.5,0.5s-0.6,0.7-0.6,1.1l-0.9,0c0-0.6,0.3-1.2,0.9-1.6c0.6-0.5,1.3-0.7,2.2-0.7c0.9,0,1.6,0.2,2.1,0.7
			c0.5,0.4,0.8,1.1,0.8,1.8v3.8c0,0.8,0.1,1.3,0.2,1.7v0.1H641.8z M639.1,100.4c0.6,0,1.1-0.1,1.6-0.4s0.8-0.7,1-1.1v-1.7h-1.6
			c-0.9,0-1.6,0.2-2.1,0.5c-0.5,0.3-0.7,0.7-0.7,1.3c0,0.4,0.2,0.8,0.5,1.1C638.1,100.2,638.6,100.4,639.1,100.4z"/>
		<path d="M394.5,107v2h1.6v0.7h-1.6v5.3c0,0.4,0.1,0.8,0.2,1c0.2,0.2,0.4,0.3,0.8,0.3c0.1,0,0.4,0,0.7-0.1l0,0.7
			c-0.2,0.1-0.5,0.1-0.9,0.1c-0.6,0-1-0.2-1.3-0.5s-0.4-0.9-0.4-1.5v-5.3h-1.5v-0.7h1.5v-2H394.5z"/>
		<path d="M402.9,117c-0.1-0.2-0.1-0.6-0.2-1.1c-0.3,0.4-0.7,0.7-1.2,0.9c-0.5,0.2-1,0.3-1.5,0.3c-0.8,0-1.4-0.2-1.8-0.6
			c-0.5-0.4-0.7-1-0.7-1.6c0-0.8,0.3-1.4,1-1.8s1.5-0.7,2.7-0.7h1.6v-0.9c0-0.6-0.2-1-0.5-1.3c-0.3-0.3-0.9-0.5-1.5-0.5
			c-0.6,0-1.1,0.2-1.5,0.5s-0.6,0.7-0.6,1.1l-0.9,0c0-0.6,0.3-1.2,0.9-1.6c0.6-0.5,1.3-0.7,2.2-0.7c0.9,0,1.6,0.2,2.1,0.7
			s0.8,1.1,0.8,1.8v3.8c0,0.8,0.1,1.3,0.2,1.7v0.1H402.9z M400.2,116.4c0.6,0,1.1-0.1,1.6-0.4c0.5-0.3,0.8-0.7,1-1.1v-1.7h-1.6
			c-0.9,0-1.6,0.2-2.1,0.5c-0.5,0.3-0.7,0.7-0.7,1.3c0,0.4,0.2,0.8,0.5,1.1S399.7,116.4,400.2,116.4z"/>
		<path d="M407.9,113l-1,1v3H406v-11.2h0.9v7.2l0.8-0.9l3-3h1.1l-3.4,3.3l3.7,4.6h-1L407.9,113z"/>
		<path d="M416.2,117.1c-0.7,0-1.3-0.2-1.8-0.5s-1-0.8-1.3-1.4c-0.3-0.6-0.5-1.3-0.5-2v-0.3c0-0.8,0.1-1.4,0.4-2.1
			c0.3-0.6,0.7-1.1,1.2-1.4c0.5-0.3,1.1-0.5,1.7-0.5c1,0,1.7,0.3,2.3,1s0.8,1.6,0.8,2.7v0.5h-5.7v0.2c0,0.9,0.3,1.6,0.8,2.2
			c0.5,0.6,1.2,0.9,1.9,0.9c0.5,0,0.9-0.1,1.2-0.3s0.7-0.4,1-0.8l0.6,0.4C418.4,116.7,417.5,117.1,416.2,117.1z M416.1,109.7
			c-0.7,0-1.2,0.2-1.7,0.7s-0.7,1.1-0.8,1.9h4.8v-0.1c0-0.8-0.2-1.4-0.7-1.9S416.7,109.7,416.1,109.7z M417.1,105.7h1.1l-1.7,2.1
			l-0.8,0L417.1,105.7z"/>
		<path d="M430.7,111.9h-5v4.4h5.7v0.8h-6.6v-10.7h6.6v0.8h-5.7v4h5V111.9z"/>
		<path d="M440.7,106.3v7.3c0,0.7-0.2,1.3-0.5,1.9s-0.8,0.9-1.3,1.2c-0.6,0.3-1.2,0.4-2,0.4c-1.1,0-2-0.3-2.7-0.9s-1-1.5-1.1-2.5
			v-7.3h0.9v7.2c0,0.9,0.3,1.6,0.8,2.1c0.5,0.5,1.2,0.7,2.1,0.7s1.6-0.2,2.1-0.7c0.5-0.5,0.8-1.2,0.8-2.1v-7.2H440.7z"/>
		<path d="M452.7,111.9h-5v4.4h5.7v0.8h-6.6v-10.7h6.6v0.8h-5.7v4h5V111.9z"/>
		<path d="M462.7,107.1h-3.7v9.9h-0.9v-9.9h-3.6v-0.8h8.2V107.1z"/>
		<path d="M470.4,114.4c0-0.6-0.2-1.1-0.6-1.4c-0.4-0.3-1.2-0.7-2.3-1s-1.9-0.6-2.4-1c-0.7-0.5-1.1-1.2-1.1-2c0-0.8,0.3-1.5,1-2
			c0.7-0.5,1.5-0.8,2.6-0.8c0.7,0,1.3,0.1,1.9,0.4c0.6,0.3,1,0.7,1.3,1.1c0.3,0.5,0.5,1,0.5,1.6h-0.9c0-0.7-0.2-1.3-0.7-1.8
			c-0.5-0.4-1.2-0.7-2-0.7c-0.8,0-1.5,0.2-1.9,0.5c-0.5,0.4-0.7,0.8-0.7,1.4c0,0.5,0.2,1,0.7,1.3c0.4,0.3,1.1,0.6,2.1,0.9
			c1,0.3,1.7,0.5,2.2,0.8c0.5,0.3,0.9,0.6,1.1,1c0.2,0.4,0.4,0.9,0.4,1.4c0,0.8-0.3,1.5-1,2c-0.7,0.5-1.6,0.8-2.7,0.8
			c-0.8,0-1.4-0.1-2.1-0.4s-1.1-0.6-1.4-1.1c-0.3-0.5-0.5-1-0.5-1.7h0.9c0,0.8,0.3,1.3,0.8,1.8c0.6,0.4,1.3,0.7,2.2,0.7
			c0.8,0,1.5-0.2,2-0.5C470.1,115.5,470.4,115,470.4,114.4z"/>
		<path d="M472.8,119l-0.5-0.4c0.4-0.6,0.7-1.2,0.7-1.9v-1.1h0.9v0.9C473.9,117.5,473.5,118.4,472.8,119z"/>
		<path d="M485.9,113.1c0,1.2-0.3,2.2-0.8,2.9c-0.5,0.7-1.3,1.1-2.2,1.1c-1.1,0-1.9-0.4-2.5-1.1v4h-0.9v-11h0.8l0,1.1
			c0.6-0.8,1.4-1.3,2.5-1.3c0.9,0,1.7,0.4,2.2,1.1s0.8,1.7,0.8,3V113.1z M485,112.9c0-1-0.2-1.8-0.6-2.4c-0.4-0.6-1-0.9-1.7-0.9
			c-0.5,0-1,0.1-1.4,0.4c-0.4,0.3-0.7,0.6-0.9,1.1v3.8c0.2,0.5,0.5,0.8,0.9,1c0.4,0.2,0.9,0.4,1.4,0.4c0.7,0,1.3-0.3,1.7-0.9
			C484.8,114.9,485,114.1,485,112.9z"/>
		<path d="M491.5,109.8c-0.2,0-0.4-0.1-0.6-0.1c-0.5,0-1,0.2-1.4,0.5c-0.4,0.3-0.6,0.7-0.8,1.3v5.4h-0.9v-7.9h0.9l0,1.3
			c0.5-0.9,1.2-1.4,2.2-1.4c0.2,0,0.4,0,0.6,0.1L491.5,109.8z"/>
		<path d="M492.3,112.9c0-0.8,0.1-1.4,0.4-2.1c0.3-0.6,0.7-1.1,1.3-1.4c0.5-0.3,1.2-0.5,1.8-0.5c1.1,0,1.9,0.4,2.6,1.1
			c0.7,0.7,1,1.7,1,2.9v0.2c0,0.8-0.1,1.5-0.4,2.1c-0.3,0.6-0.7,1.1-1.2,1.4s-1.2,0.5-1.8,0.5c-1.1,0-1.9-0.4-2.6-1.1
			c-0.7-0.7-1-1.7-1-2.9V112.9z M493.1,113.1c0,0.9,0.2,1.7,0.7,2.3c0.5,0.6,1.1,0.9,1.9,0.9c0.8,0,1.4-0.3,1.9-0.9
			c0.5-0.6,0.7-1.4,0.7-2.4v-0.2c0-0.6-0.1-1.2-0.3-1.7s-0.5-0.9-0.9-1.2c-0.4-0.3-0.9-0.4-1.4-0.4c-0.8,0-1.4,0.3-1.9,0.9
			c-0.5,0.6-0.7,1.4-0.7,2.4V113.1z"/>
		<path d="M502.5,107v2h1.6v0.7h-1.6v5.3c0,0.4,0.1,0.8,0.2,1c0.2,0.2,0.4,0.3,0.8,0.3c0.1,0,0.4,0,0.7-0.1l0,0.7
			c-0.2,0.1-0.5,0.1-0.9,0.1c-0.6,0-1-0.2-1.3-0.5s-0.4-0.9-0.4-1.5v-5.3h-1.5v-0.7h1.5v-2H502.5z"/>
		<path d="M505.3,112.9c0-0.8,0.1-1.4,0.4-2.1s0.7-1.1,1.3-1.4c0.5-0.3,1.2-0.5,1.8-0.5c1.1,0,1.9,0.4,2.6,1.1c0.7,0.7,1,1.7,1,2.9
			v0.2c0,0.8-0.1,1.5-0.4,2.1c-0.3,0.6-0.7,1.1-1.2,1.4c-0.5,0.3-1.2,0.5-1.8,0.5c-1,0-1.9-0.4-2.6-1.1c-0.7-0.7-1-1.7-1-2.9V112.9z
			 M506.2,113.1c0,0.9,0.2,1.7,0.7,2.3c0.5,0.6,1.1,0.9,1.9,0.9c0.8,0,1.4-0.3,1.9-0.9c0.5-0.6,0.7-1.4,0.7-2.4v-0.2
			c0-0.6-0.1-1.2-0.3-1.7s-0.5-0.9-0.9-1.2c-0.4-0.3-0.9-0.4-1.4-0.4c-0.8,0-1.4,0.3-1.9,0.9c-0.5,0.6-0.7,1.4-0.7,2.4V113.1z"/>
		<path d="M517.5,112.9c0-1.2,0.3-2.2,0.8-2.9c0.5-0.7,1.3-1.1,2.2-1.1c1.1,0,1.9,0.4,2.4,1.3v-4.4h0.9V117h-0.8l0-1.1
			c-0.6,0.8-1.4,1.2-2.5,1.2c-0.9,0-1.7-0.4-2.2-1.1c-0.6-0.7-0.8-1.7-0.8-3V112.9z M518.4,113.1c0,1,0.2,1.8,0.6,2.4
			c0.4,0.6,1,0.9,1.7,0.9c1.1,0,1.8-0.5,2.3-1.4v-3.7c-0.5-1-1.2-1.5-2.3-1.5c-0.7,0-1.3,0.3-1.7,0.9
			C518.6,111.1,518.4,112,518.4,113.1z"/>
		<path d="M525.7,112.9c0-0.8,0.1-1.4,0.4-2.1c0.3-0.6,0.7-1.1,1.3-1.4c0.5-0.3,1.2-0.5,1.8-0.5c1.1,0,1.9,0.4,2.6,1.1
			c0.7,0.7,1,1.7,1,2.9v0.2c0,0.8-0.1,1.5-0.4,2.1c-0.3,0.6-0.7,1.1-1.2,1.4s-1.2,0.5-1.8,0.5c-1.1,0-1.9-0.4-2.6-1.1
			c-0.7-0.7-1-1.7-1-2.9V112.9z M526.6,113.1c0,0.9,0.2,1.7,0.7,2.3c0.5,0.6,1.1,0.9,1.9,0.9c0.8,0,1.4-0.3,1.9-0.9
			c0.5-0.6,0.7-1.4,0.7-2.4v-0.2c0-0.6-0.1-1.2-0.3-1.7s-0.5-0.9-0.9-1.2c-0.4-0.3-0.9-0.4-1.4-0.4c-0.8,0-1.4,0.3-1.9,0.9
			c-0.5,0.6-0.7,1.4-0.7,2.4V113.1z"/>
		<path d="M539.3,115c0-0.4-0.2-0.8-0.5-1s-0.9-0.5-1.6-0.6c-0.7-0.1-1.2-0.3-1.6-0.5c-0.4-0.2-0.7-0.4-0.9-0.7
			c-0.2-0.3-0.3-0.6-0.3-1c0-0.6,0.3-1.1,0.8-1.5c0.5-0.4,1.2-0.6,2-0.6c0.9,0,1.6,0.2,2.1,0.7c0.5,0.4,0.8,1,0.8,1.7h-0.9
			c0-0.5-0.2-0.8-0.6-1.2c-0.4-0.3-0.9-0.5-1.5-0.5c-0.6,0-1,0.1-1.4,0.4c-0.3,0.3-0.5,0.6-0.5,1c0,0.4,0.1,0.7,0.4,0.9
			s0.8,0.4,1.6,0.6s1.3,0.4,1.7,0.6s0.7,0.5,0.9,0.7s0.3,0.6,0.3,1c0,0.7-0.3,1.2-0.8,1.6s-1.2,0.6-2.1,0.6c-0.9,0-1.7-0.2-2.2-0.7
			c-0.6-0.4-0.9-1-0.9-1.7h0.9c0,0.5,0.2,0.9,0.6,1.2c0.4,0.3,0.9,0.4,1.6,0.4c0.6,0,1.1-0.1,1.5-0.4
			C539.2,115.7,539.3,115.4,539.3,115z M537.4,107.3l1.3-1.4h0.8v0.1l-1.7,1.9h-0.6l-1.7-1.9v-0.1h0.8L537.4,107.3z"/>
		<path d="M543.2,117h-0.9v-11.2h0.9V117z"/>
		<path d="M545.1,112.9c0-0.8,0.1-1.4,0.4-2.1c0.3-0.6,0.7-1.1,1.3-1.4c0.5-0.3,1.2-0.5,1.8-0.5c1.1,0,1.9,0.4,2.6,1.1
			c0.7,0.7,1,1.7,1,2.9v0.2c0,0.8-0.1,1.5-0.4,2.1c-0.3,0.6-0.7,1.1-1.2,1.4s-1.2,0.5-1.8,0.5c-1.1,0-1.9-0.4-2.6-1.1
			c-0.7-0.7-1-1.7-1-2.9V112.9z M546,113.1c0,0.9,0.2,1.7,0.7,2.3c0.5,0.6,1.1,0.9,1.9,0.9c0.8,0,1.4-0.3,1.9-0.9
			c0.5-0.6,0.7-1.4,0.7-2.4v-0.2c0-0.6-0.1-1.2-0.3-1.7s-0.5-0.9-0.9-1.2c-0.4-0.3-0.9-0.4-1.4-0.4c-0.8,0-1.4,0.3-1.9,0.9
			c-0.5,0.6-0.7,1.4-0.7,2.4V113.1z"/>
		<path d="M559.5,113l-1,1v3h-0.9v-11.2h0.9v7.2l0.8-0.9l3-3h1.1l-3.4,3.3l3.7,4.6h-1L559.5,113z"/>
		<path d="M567.9,117.1c-0.7,0-1.3-0.2-1.8-0.5s-1-0.8-1.3-1.4c-0.3-0.6-0.5-1.3-0.5-2v-0.3c0-0.8,0.1-1.4,0.4-2.1
			c0.3-0.6,0.7-1.1,1.2-1.4c0.5-0.3,1.1-0.5,1.7-0.5c1,0,1.7,0.3,2.3,1s0.8,1.6,0.8,2.7v0.5h-5.7v0.2c0,0.9,0.3,1.6,0.8,2.2
			c0.5,0.6,1.2,0.9,1.9,0.9c0.5,0,0.9-0.1,1.2-0.3s0.7-0.4,1-0.8l0.6,0.4C570,116.7,569.1,117.1,567.9,117.1z M567.7,109.7
			c-0.7,0-1.2,0.2-1.7,0.7s-0.7,1.1-0.8,1.9h4.8v-0.1c0-0.8-0.2-1.4-0.7-1.9S568.4,109.7,567.7,109.7z"/>
		<path d="M580.9,115c0-0.4-0.2-0.8-0.5-1s-0.9-0.5-1.6-0.6c-0.7-0.1-1.2-0.3-1.6-0.5c-0.4-0.2-0.7-0.4-0.9-0.7
			c-0.2-0.3-0.3-0.6-0.3-1c0-0.6,0.3-1.1,0.8-1.5c0.5-0.4,1.2-0.6,2-0.6c0.9,0,1.6,0.2,2.1,0.7c0.5,0.4,0.8,1,0.8,1.7h-0.9
			c0-0.5-0.2-0.8-0.6-1.2c-0.4-0.3-0.9-0.5-1.5-0.5c-0.6,0-1,0.1-1.4,0.4c-0.3,0.3-0.5,0.6-0.5,1c0,0.4,0.1,0.7,0.4,0.9
			s0.8,0.4,1.6,0.6s1.3,0.4,1.7,0.6s0.7,0.5,0.9,0.7s0.3,0.6,0.3,1c0,0.7-0.3,1.2-0.8,1.6s-1.2,0.6-2.1,0.6c-0.9,0-1.7-0.2-2.2-0.7
			c-0.6-0.4-0.9-1-0.9-1.7h0.9c0,0.5,0.2,0.9,0.6,1.2c0.4,0.3,0.9,0.4,1.6,0.4c0.6,0,1.1-0.1,1.5-0.4
			C580.8,115.7,580.9,115.4,580.9,115z"/>
		<path d="M585.7,113l-1,1v3h-0.9v-11.2h0.9v7.2l0.8-0.9l3-3h1.1l-3.4,3.3l3.7,4.6h-1L585.7,113z"/>
		<path d="M590.7,112.9c0-0.8,0.1-1.4,0.4-2.1c0.3-0.6,0.7-1.1,1.3-1.4c0.5-0.3,1.2-0.5,1.8-0.5c1.1,0,1.9,0.4,2.6,1.1
			c0.7,0.7,1,1.7,1,2.9v0.2c0,0.8-0.1,1.5-0.4,2.1c-0.3,0.6-0.7,1.1-1.2,1.4s-1.2,0.5-1.8,0.5c-1.1,0-1.9-0.4-2.6-1.1
			c-0.7-0.7-1-1.7-1-2.9V112.9z M591.5,113.1c0,0.9,0.2,1.7,0.7,2.3c0.5,0.6,1.1,0.9,1.9,0.9c0.8,0,1.4-0.3,1.9-0.9
			c0.5-0.6,0.7-1.4,0.7-2.4v-0.2c0-0.6-0.1-1.2-0.3-1.7s-0.5-0.9-0.9-1.2c-0.4-0.3-0.9-0.4-1.4-0.4c-0.8,0-1.4,0.3-1.9,0.9
			c-0.5,0.6-0.7,1.4-0.7,2.4V113.1z"/>
		<path d="M601.4,113l-1,1v3h-0.9v-11.2h0.9v7.2l0.8-0.9l3-3h1.1l-3.4,3.3l3.7,4.6h-1L601.4,113z"/>
		<path d="M606.4,112.9c0-0.8,0.1-1.4,0.4-2.1c0.3-0.6,0.7-1.1,1.3-1.4c0.5-0.3,1.2-0.5,1.8-0.5c1.1,0,1.9,0.4,2.6,1.1
			c0.7,0.7,1,1.7,1,2.9v0.2c0,0.8-0.1,1.5-0.4,2.1c-0.3,0.6-0.7,1.1-1.2,1.4s-1.2,0.5-1.8,0.5c-1.1,0-1.9-0.4-2.6-1.1
			c-0.7-0.7-1-1.7-1-2.9V112.9z M607.3,113.1c0,0.9,0.2,1.7,0.7,2.3c0.5,0.6,1.1,0.9,1.9,0.9c0.8,0,1.4-0.3,1.9-0.9
			c0.5-0.6,0.7-1.4,0.7-2.4v-0.2c0-0.6-0.1-1.2-0.3-1.7s-0.5-0.9-0.9-1.2c-0.4-0.3-0.9-0.4-1.4-0.4c-0.8,0-1.4,0.3-1.9,0.9
			c-0.5,0.6-0.7,1.4-0.7,2.4V113.1z"/>
		<path d="M617.6,115.8l2.4-6.7h0.9l-3,7.9h-0.7l-3-7.9h0.9L617.6,115.8z"/>
		<path d="M625.4,117.1c-0.7,0-1.3-0.2-1.8-0.5s-1-0.8-1.3-1.4c-0.3-0.6-0.5-1.3-0.5-2v-0.3c0-0.8,0.1-1.4,0.4-2.1
			c0.3-0.6,0.7-1.1,1.2-1.4c0.5-0.3,1.1-0.5,1.7-0.5c1,0,1.7,0.3,2.3,1s0.8,1.6,0.8,2.7v0.5h-5.7v0.2c0,0.9,0.3,1.6,0.8,2.2
			c0.5,0.6,1.2,0.9,1.9,0.9c0.5,0,0.9-0.1,1.2-0.3s0.7-0.4,1-0.8l0.6,0.4C627.5,116.7,626.6,117.1,625.4,117.1z M625.2,109.7
			c-0.7,0-1.2,0.2-1.7,0.7s-0.7,1.1-0.8,1.9h4.8v-0.1c0-0.8-0.2-1.4-0.7-1.9S625.9,109.7,625.2,109.7z M626.2,105.7h1.1l-1.7,2.1
			l-0.8,0L626.2,105.7z"/>
		<path d="M630.8,109.1l0,1.3c0.3-0.5,0.7-0.8,1.1-1.1s0.9-0.4,1.5-0.4c1.2,0,2,0.5,2.4,1.5c0.3-0.5,0.7-0.9,1.1-1.1
			c0.5-0.3,1-0.4,1.6-0.4c1.7,0,2.6,0.9,2.6,2.8v5.3h-0.9v-5.2c0-0.7-0.2-1.2-0.5-1.6c-0.3-0.3-0.8-0.5-1.5-0.5
			c-0.6,0-1.2,0.2-1.6,0.6c-0.4,0.4-0.7,0.9-0.7,1.5v5.2h-0.9v-5.3c0-0.7-0.2-1.2-0.5-1.5s-0.8-0.5-1.5-0.5c-0.6,0-1,0.2-1.4,0.5
			c-0.4,0.3-0.7,0.8-0.9,1.4v5.4H630v-7.9H630.8z"/>
		<path d="M648.4,116c-0.5,0.8-1.4,1.1-2.5,1.1c-0.8,0-1.5-0.2-1.9-0.7c-0.4-0.5-0.7-1.2-0.7-2.2v-5.2h0.9v5c0,1.5,0.6,2.3,1.8,2.3
			c1.3,0,2.1-0.5,2.4-1.6v-5.7h0.9v7.9h-0.8L648.4,116z"/>
		<path d="M397.9,131c0-0.4-0.2-0.8-0.5-1s-0.9-0.5-1.6-0.6c-0.7-0.1-1.2-0.3-1.6-0.5c-0.4-0.2-0.7-0.4-0.9-0.7
			c-0.2-0.3-0.3-0.6-0.3-1c0-0.6,0.3-1.1,0.8-1.5c0.5-0.4,1.2-0.6,2-0.6c0.9,0,1.6,0.2,2.1,0.7c0.5,0.4,0.8,1,0.8,1.7h-0.9
			c0-0.5-0.2-0.8-0.6-1.2c-0.4-0.3-0.9-0.5-1.5-0.5c-0.6,0-1,0.1-1.4,0.4c-0.3,0.3-0.5,0.6-0.5,1c0,0.4,0.1,0.7,0.4,0.9
			s0.8,0.4,1.6,0.6s1.3,0.4,1.7,0.6s0.7,0.5,0.9,0.7s0.3,0.6,0.3,1c0,0.7-0.3,1.2-0.8,1.6s-1.2,0.6-2.1,0.6c-0.9,0-1.7-0.2-2.2-0.7
			c-0.6-0.4-0.9-1-0.9-1.7h0.9c0,0.5,0.2,0.9,0.6,1.2c0.4,0.3,0.9,0.4,1.6,0.4c0.6,0,1.1-0.1,1.5-0.4
			C397.7,131.7,397.9,131.4,397.9,131z"/>
		<path d="M401.5,125.1l0,1.4c0.3-0.5,0.7-0.9,1.1-1.1c0.4-0.3,0.9-0.4,1.5-0.4c0.8,0,1.5,0.2,1.9,0.7c0.4,0.5,0.6,1.2,0.6,2.2v5.2
			h-0.9v-5.2c0-0.7-0.2-1.2-0.5-1.6c-0.3-0.3-0.8-0.5-1.4-0.5c-0.5,0-1,0.2-1.4,0.5c-0.4,0.3-0.7,0.8-0.9,1.4v5.4h-0.9v-7.9H401.5z"
			/>
		<path d="M410.4,121.8h1.1l-1.7,2.1l-0.8,0L410.4,121.8z M409.9,133H409v-7.9h0.9V133z"/>
		<path d="M412.9,132.2h5.2v0.7h-6.2v-0.6l4.8-6.5h-4.7v-0.8h5.8v0.7L412.9,132.2z M414.9,123.3l1.3-1.4h0.8v0.1l-1.7,1.9h-0.6
			l-1.7-1.9v-0.1h0.8L414.9,123.3z"/>
		<path d="M422.5,133.1c-0.7,0-1.3-0.2-1.8-0.5s-1-0.8-1.3-1.4c-0.3-0.6-0.5-1.3-0.5-2v-0.3c0-0.8,0.1-1.4,0.4-2.1
			c0.3-0.6,0.7-1.1,1.2-1.4c0.5-0.3,1.1-0.5,1.7-0.5c1,0,1.7,0.3,2.3,1s0.8,1.6,0.8,2.7v0.5h-5.7v0.2c0,0.9,0.3,1.6,0.8,2.2
			c0.5,0.6,1.2,0.9,1.9,0.9c0.5,0,0.9-0.1,1.2-0.3s0.7-0.4,1-0.8l0.6,0.4C424.7,132.7,423.8,133.1,422.5,133.1z M422.4,125.7
			c-0.7,0-1.2,0.2-1.7,0.7s-0.7,1.1-0.8,1.9h4.8v-0.1c0-0.8-0.2-1.4-0.7-1.9S423,125.7,422.4,125.7z"/>
		<path d="M428.1,125.1l0,1.4c0.3-0.5,0.7-0.9,1.1-1.1c0.4-0.3,0.9-0.4,1.5-0.4c0.8,0,1.5,0.2,1.9,0.7c0.4,0.5,0.6,1.2,0.6,2.2v5.2
			h-0.9v-5.2c0-0.7-0.2-1.2-0.5-1.6s-0.8-0.5-1.4-0.5c-0.5,0-1,0.2-1.4,0.5c-0.4,0.3-0.7,0.8-0.9,1.4v5.4h-0.9v-7.9H428.1z"/>
		<path d="M436.9,121.8h1.1l-1.7,2.1l-0.8,0L436.9,121.8z M436.4,133h-0.9v-7.9h0.9V133z"/>
		<path d="M443.2,125.1l0,1.3c0.3-0.5,0.7-0.8,1.1-1.1s0.9-0.4,1.5-0.4c1.2,0,2,0.5,2.4,1.5c0.3-0.5,0.7-0.9,1.1-1.1
			c0.5-0.3,1-0.4,1.6-0.4c1.7,0,2.6,0.9,2.6,2.8v5.3h-0.9v-5.2c0-0.7-0.2-1.2-0.5-1.6c-0.3-0.3-0.8-0.5-1.5-0.5
			c-0.6,0-1.2,0.2-1.6,0.6c-0.4,0.4-0.7,0.9-0.7,1.5v5.2h-0.9v-5.3c0-0.7-0.2-1.2-0.5-1.5s-0.8-0.5-1.5-0.5c-0.6,0-1,0.2-1.4,0.5
			c-0.4,0.3-0.7,0.8-0.9,1.4v5.4h-0.9v-7.9H443.2z"/>
		<path d="M456.6,125.1l0,1.4c0.3-0.5,0.7-0.9,1.1-1.1c0.4-0.3,0.9-0.4,1.5-0.4c0.8,0,1.5,0.2,1.9,0.7c0.4,0.5,0.6,1.2,0.6,2.2v5.2
			h-0.9v-5.2c0-0.7-0.2-1.2-0.5-1.6c-0.3-0.3-0.8-0.5-1.4-0.5c-0.5,0-1,0.2-1.4,0.5c-0.4,0.3-0.7,0.8-0.9,1.4v5.4h-0.9v-7.9H456.6z"
			/>
		<path d="M463.5,128.9c0-0.8,0.1-1.4,0.4-2.1c0.3-0.6,0.7-1.1,1.3-1.4c0.5-0.3,1.2-0.5,1.8-0.5c1.1,0,1.9,0.4,2.6,1.1
			c0.7,0.7,1,1.7,1,2.9v0.2c0,0.8-0.1,1.5-0.4,2.1c-0.3,0.6-0.7,1.1-1.2,1.4s-1.2,0.5-1.8,0.5c-1.1,0-1.9-0.4-2.6-1.1
			c-0.7-0.7-1-1.7-1-2.9V128.9z M464.4,129.1c0,0.9,0.2,1.7,0.7,2.3c0.5,0.6,1.1,0.9,1.9,0.9c0.8,0,1.4-0.3,1.9-0.9
			c0.5-0.6,0.7-1.4,0.7-2.4v-0.2c0-0.6-0.1-1.2-0.3-1.7s-0.5-0.9-0.9-1.2c-0.4-0.3-0.9-0.4-1.4-0.4c-0.8,0-1.4,0.3-1.9,0.9
			c-0.5,0.6-0.7,1.4-0.7,2.4V129.1z"/>
		<path d="M472.8,132.2h5.2v0.7h-6.2v-0.6l4.8-6.5h-4.7v-0.8h5.8v0.7L472.8,132.2z M474.9,123.3l1.3-1.4h0.8v0.1l-1.7,1.9h-0.6
			l-1.7-1.9v-0.1h0.8L474.9,123.3z"/>
		<path d="M484.3,131c0-0.4-0.2-0.8-0.5-1s-0.9-0.5-1.6-0.6c-0.7-0.1-1.2-0.3-1.6-0.5c-0.4-0.2-0.7-0.4-0.9-0.7
			c-0.2-0.3-0.3-0.6-0.3-1c0-0.6,0.3-1.1,0.8-1.5c0.5-0.4,1.2-0.6,2-0.6c0.9,0,1.6,0.2,2.1,0.7c0.5,0.4,0.8,1,0.8,1.7h-0.9
			c0-0.5-0.2-0.8-0.6-1.2c-0.4-0.3-0.9-0.5-1.5-0.5c-0.6,0-1,0.1-1.4,0.4c-0.3,0.3-0.5,0.6-0.5,1c0,0.4,0.1,0.7,0.4,0.9
			s0.8,0.4,1.6,0.6s1.3,0.4,1.7,0.6s0.7,0.5,0.9,0.7s0.3,0.6,0.3,1c0,0.7-0.3,1.2-0.8,1.6s-1.2,0.6-2.1,0.6c-0.9,0-1.7-0.2-2.2-0.7
			c-0.6-0.4-0.9-1-0.9-1.7h0.9c0,0.5,0.2,0.9,0.6,1.2c0.4,0.3,0.9,0.4,1.6,0.4c0.6,0,1.1-0.1,1.5-0.4
			C484.1,131.7,484.3,131.4,484.3,131z"/>
		<path d="M488.5,123v2h1.6v0.7h-1.6v5.3c0,0.4,0.1,0.8,0.2,1c0.2,0.2,0.4,0.3,0.8,0.3c0.1,0,0.4,0,0.7-0.1l0,0.7
			c-0.2,0.1-0.5,0.1-0.9,0.1c-0.6,0-1-0.2-1.3-0.5s-0.4-0.9-0.4-1.5v-5.3h-1.5v-0.7h1.5v-2H488.5z"/>
		<path d="M494.4,131.8l2.4-6.7h0.9l-3,7.9h-0.7l-3-7.9h0.9L494.4,131.8z"/>
		<path d="M500.6,121.8h1.1l-1.7,2.1l-0.8,0L500.6,121.8z M500.2,133h-0.9v-7.9h0.9V133z"/>
		<path d="M511.2,133c-0.1-0.2-0.1-0.6-0.2-1.1c-0.3,0.4-0.7,0.7-1.2,0.9c-0.5,0.2-1,0.3-1.5,0.3c-0.8,0-1.4-0.2-1.8-0.6
			c-0.5-0.4-0.7-1-0.7-1.6c0-0.8,0.3-1.4,1-1.8s1.5-0.7,2.7-0.7h1.6v-0.9c0-0.6-0.2-1-0.5-1.3c-0.3-0.3-0.9-0.5-1.5-0.5
			c-0.6,0-1.1,0.2-1.5,0.5s-0.6,0.7-0.6,1.1l-0.9,0c0-0.6,0.3-1.2,0.9-1.6c0.6-0.5,1.3-0.7,2.2-0.7c0.9,0,1.6,0.2,2.1,0.7
			s0.8,1.1,0.8,1.8v3.8c0,0.8,0.1,1.3,0.2,1.7v0.1H511.2z M508.4,132.4c0.6,0,1.1-0.1,1.6-0.4c0.5-0.3,0.8-0.7,1-1.1v-1.7h-1.6
			c-0.9,0-1.6,0.2-2.1,0.5c-0.5,0.3-0.7,0.7-0.7,1.3c0,0.4,0.2,0.8,0.5,1.1S507.9,132.4,508.4,132.4z"/>
		<path d="M515.2,133h-0.9v-11.2h0.9V133z"/>
		<path d="M517.1,128.9c0-0.8,0.1-1.4,0.4-2.1c0.3-0.6,0.7-1.1,1.3-1.4c0.5-0.3,1.2-0.5,1.8-0.5c1.1,0,1.9,0.4,2.6,1.1
			c0.7,0.7,1,1.7,1,2.9v0.2c0,0.8-0.1,1.5-0.4,2.1c-0.3,0.6-0.7,1.1-1.2,1.4s-1.2,0.5-1.8,0.5c-1.1,0-1.9-0.4-2.6-1.1
			c-0.7-0.7-1-1.7-1-2.9V128.9z M518,129.1c0,0.9,0.2,1.7,0.7,2.3c0.5,0.6,1.1,0.9,1.9,0.9c0.8,0,1.4-0.3,1.9-0.9
			c0.5-0.6,0.7-1.4,0.7-2.4v-0.2c0-0.6-0.1-1.2-0.3-1.7s-0.5-0.9-0.9-1.2c-0.4-0.3-0.9-0.4-1.4-0.4c-0.8,0-1.4,0.3-1.9,0.9
			c-0.5,0.6-0.7,1.4-0.7,2.4V129.1z"/>
		<path d="M527.9,129l-1,1v3H526v-11.2h0.9v7.2l0.8-0.9l3-3h1.1l-3.4,3.3l3.7,4.6h-1L527.9,129z"/>
		<path d="M532.8,128.9c0-0.8,0.1-1.4,0.4-2.1c0.3-0.6,0.7-1.1,1.3-1.4c0.5-0.3,1.2-0.5,1.8-0.5c1.1,0,1.9,0.4,2.6,1.1
			c0.7,0.7,1,1.7,1,2.9v0.2c0,0.8-0.1,1.5-0.4,2.1c-0.3,0.6-0.7,1.1-1.2,1.4s-1.2,0.5-1.8,0.5c-1.1,0-1.9-0.4-2.6-1.1
			c-0.7-0.7-1-1.7-1-2.9V128.9z M533.7,129.1c0,0.9,0.2,1.7,0.7,2.3c0.5,0.6,1.1,0.9,1.9,0.9c0.8,0,1.4-0.3,1.9-0.9
			c0.5-0.6,0.7-1.4,0.7-2.4v-0.2c0-0.6-0.1-1.2-0.3-1.7s-0.5-0.9-0.9-1.2c-0.4-0.3-0.9-0.4-1.4-0.4c-0.8,0-1.4,0.3-1.9,0.9
			c-0.5,0.6-0.7,1.4-0.7,2.4V129.1z"/>
		<path d="M544.1,131.8l2.4-6.7h0.9l-3,7.9h-0.7l-3-7.9h0.9L544.1,131.8z"/>
		<path d="M553.7,133c-0.1-0.2-0.1-0.6-0.2-1.1c-0.3,0.4-0.7,0.7-1.2,0.9c-0.5,0.2-1,0.3-1.5,0.3c-0.8,0-1.4-0.2-1.8-0.6
			c-0.5-0.4-0.7-1-0.7-1.6c0-0.8,0.3-1.4,1-1.8s1.5-0.7,2.7-0.7h1.6v-0.9c0-0.6-0.2-1-0.5-1.3c-0.3-0.3-0.9-0.5-1.5-0.5
			c-0.6,0-1.1,0.2-1.5,0.5s-0.6,0.7-0.6,1.1l-0.9,0c0-0.6,0.3-1.2,0.9-1.6c0.6-0.5,1.3-0.7,2.2-0.7c0.9,0,1.6,0.2,2.1,0.7
			s0.8,1.1,0.8,1.8v3.8c0,0.8,0.1,1.3,0.2,1.7v0.1H553.7z M551,132.4c0.6,0,1.1-0.1,1.6-0.4c0.5-0.3,0.8-0.7,1-1.1v-1.7H552
			c-0.9,0-1.6,0.2-2.1,0.5c-0.5,0.3-0.7,0.7-0.7,1.3c0,0.4,0.2,0.8,0.5,1.1S550.4,132.4,551,132.4z"/>
		<path d="M557.6,125.1l0,1.4c0.3-0.5,0.7-0.9,1.1-1.1c0.4-0.3,0.9-0.4,1.5-0.4c0.8,0,1.5,0.2,1.9,0.7c0.4,0.5,0.6,1.2,0.6,2.2v5.2
			h-0.9v-5.2c0-0.7-0.2-1.2-0.5-1.6s-0.8-0.5-1.4-0.5c-0.5,0-1,0.2-1.4,0.5c-0.4,0.3-0.7,0.8-0.9,1.4v5.4h-0.9v-7.9H557.6z"/>
		<path d="M567.5,131.7l2.3-6.7h0.9l-3.4,9.3l-0.2,0.4c-0.4,1-1.1,1.4-2,1.4c-0.2,0-0.4,0-0.7-0.1l0-0.7l0.5,0c0.4,0,0.8-0.1,1-0.3
			c0.3-0.2,0.5-0.6,0.7-1.1l0.4-1.1l-3-7.9h1L567.5,131.7z M568.5,121.7h1.1l-1.7,2.1l-0.8,0L568.5,121.7z"/>
		<path d="M575,132.4c0.6,0,1.1-0.2,1.5-0.5c0.4-0.3,0.6-0.8,0.7-1.3h0.8c0,0.5-0.2,0.9-0.5,1.3c-0.3,0.4-0.6,0.7-1.1,0.9
			c-0.5,0.2-1,0.3-1.5,0.3c-1,0-1.9-0.4-2.5-1.1c-0.6-0.7-0.9-1.7-0.9-2.9v-0.3c0-0.8,0.1-1.5,0.4-2.1s0.7-1.1,1.2-1.4
			c0.5-0.3,1.1-0.5,1.8-0.5c0.9,0,1.6,0.3,2.2,0.8s0.9,1.2,0.9,2h-0.8c0-0.6-0.3-1.1-0.7-1.5s-0.9-0.6-1.5-0.6
			c-0.8,0-1.4,0.3-1.8,0.9c-0.4,0.6-0.7,1.4-0.7,2.4v0.3c0,1,0.2,1.8,0.7,2.4C573.5,132.1,574.2,132.4,575,132.4z"/>
		<path d="M580.6,126.4c0.3-0.5,0.7-0.8,1.1-1.1s0.9-0.4,1.5-0.4c0.8,0,1.5,0.2,1.9,0.7c0.4,0.5,0.6,1.2,0.6,2.2v5.2h-0.9v-5.2
			c0-0.7-0.2-1.2-0.5-1.6c-0.3-0.3-0.8-0.5-1.4-0.5c-0.5,0-1,0.2-1.4,0.5c-0.4,0.3-0.7,0.8-0.9,1.4v5.4h-0.9v-11.2h0.9V126.4z"/>
		<path d="M598,129.1c0,1.2-0.3,2.2-0.8,2.9c-0.5,0.7-1.3,1.1-2.2,1.1c-1.1,0-1.9-0.4-2.5-1.1v4h-0.9v-11h0.8l0,1.1
			c0.6-0.8,1.4-1.3,2.5-1.3c0.9,0,1.7,0.4,2.2,1.1c0.5,0.7,0.8,1.7,0.8,3V129.1z M597.1,128.9c0-1-0.2-1.8-0.6-2.4
			c-0.4-0.6-1-0.9-1.7-0.9c-0.5,0-1,0.1-1.4,0.4c-0.4,0.3-0.7,0.6-0.9,1.1v3.8c0.2,0.5,0.5,0.8,0.9,1s0.9,0.4,1.4,0.4
			c0.7,0,1.3-0.3,1.7-0.9S597.1,130.1,597.1,128.9z"/>
		<path d="M599.5,128.9c0-0.8,0.1-1.4,0.4-2.1c0.3-0.6,0.7-1.1,1.3-1.4c0.5-0.3,1.2-0.5,1.8-0.5c1.1,0,1.9,0.4,2.6,1.1
			c0.7,0.7,1,1.7,1,2.9v0.2c0,0.8-0.1,1.5-0.4,2.1c-0.3,0.6-0.7,1.1-1.2,1.4s-1.2,0.5-1.8,0.5c-1.1,0-1.9-0.4-2.6-1.1
			c-0.7-0.7-1-1.7-1-2.9V128.9z M600.3,129.1c0,0.9,0.2,1.7,0.7,2.3c0.5,0.6,1.1,0.9,1.9,0.9c0.8,0,1.4-0.3,1.9-0.9
			c0.5-0.6,0.7-1.4,0.7-2.4v-0.2c0-0.6-0.1-1.2-0.3-1.7s-0.5-0.9-0.9-1.2c-0.4-0.3-0.9-0.4-1.4-0.4c-0.8,0-1.4,0.3-1.9,0.9
			c-0.5,0.6-0.7,1.4-0.7,2.4V129.1z"/>
		<path d="M610.7,131.8l2.4-6.7h0.9l-3,7.9h-0.7l-3-7.9h0.9L610.7,131.8z"/>
		<path d="M614.9,128.9c0-0.8,0.1-1.4,0.4-2.1c0.3-0.6,0.7-1.1,1.3-1.4c0.5-0.3,1.2-0.5,1.8-0.5c1.1,0,1.9,0.4,2.6,1.1
			c0.7,0.7,1,1.7,1,2.9v0.2c0,0.8-0.1,1.5-0.4,2.1c-0.3,0.6-0.7,1.1-1.2,1.4s-1.2,0.5-1.8,0.5c-1.1,0-1.9-0.4-2.6-1.1
			c-0.7-0.7-1-1.7-1-2.9V128.9z M615.7,129.1c0,0.9,0.2,1.7,0.7,2.3c0.5,0.6,1.1,0.9,1.9,0.9c0.8,0,1.4-0.3,1.9-0.9
			c0.5-0.6,0.7-1.4,0.7-2.4v-0.2c0-0.6-0.1-1.2-0.3-1.7s-0.5-0.9-0.9-1.2c-0.4-0.3-0.9-0.4-1.4-0.4c-0.8,0-1.4,0.3-1.9,0.9
			c-0.5,0.6-0.7,1.4-0.7,2.4V129.1z"/>
		<path d="M624.7,133h-0.9v-11.2h0.9V133z"/>
		<path d="M630.2,133.1c-0.7,0-1.3-0.2-1.8-0.5s-1-0.8-1.3-1.4c-0.3-0.6-0.5-1.3-0.5-2v-0.3c0-0.8,0.1-1.4,0.4-2.1
			c0.3-0.6,0.7-1.1,1.2-1.4c0.5-0.3,1.1-0.5,1.7-0.5c1,0,1.7,0.3,2.3,1s0.8,1.6,0.8,2.7v0.5h-5.7v0.2c0,0.9,0.3,1.6,0.8,2.2
			c0.5,0.6,1.2,0.9,1.9,0.9c0.5,0,0.9-0.1,1.2-0.3s0.7-0.4,1-0.8l0.6,0.4C632.3,132.7,631.4,133.1,630.2,133.1z M630,125.7
			c-0.7,0-1.2,0.2-1.7,0.7s-0.7,1.1-0.8,1.9h4.8v-0.1c0-0.8-0.2-1.4-0.7-1.9S630.7,125.7,630,125.7z"/>
		<path d="M635.7,125.1l0,1.4c0.3-0.5,0.7-0.9,1.1-1.1c0.4-0.3,0.9-0.4,1.5-0.4c0.8,0,1.5,0.2,1.9,0.7c0.4,0.5,0.6,1.2,0.6,2.2v5.2
			H640v-5.2c0-0.7-0.2-1.2-0.5-1.6c-0.3-0.3-0.8-0.5-1.4-0.5c-0.5,0-1,0.2-1.4,0.5c-0.4,0.3-0.7,0.8-0.9,1.4v5.4h-0.9v-7.9H635.7z"
			/>
		<path d="M646.2,133.1c-0.7,0-1.3-0.2-1.8-0.5s-1-0.8-1.3-1.4c-0.3-0.6-0.5-1.3-0.5-2v-0.3c0-0.8,0.1-1.4,0.4-2.1
			c0.3-0.6,0.7-1.1,1.2-1.4c0.5-0.3,1.1-0.5,1.7-0.5c1,0,1.7,0.3,2.3,1s0.8,1.6,0.8,2.7v0.5h-5.7v0.2c0,0.9,0.3,1.6,0.8,2.2
			c0.5,0.6,1.2,0.9,1.9,0.9c0.5,0,0.9-0.1,1.2-0.3s0.7-0.4,1-0.8l0.6,0.4C648.3,132.7,647.4,133.1,646.2,133.1z M646,125.7
			c-0.7,0-1.2,0.2-1.7,0.7s-0.7,1.1-0.8,1.9h4.8v-0.1c0-0.8-0.2-1.4-0.7-1.9S646.7,125.7,646,125.7z"/>
		<path d="M652.7,129l-1,1v3h-0.9v-11.2h0.9v7.2l0.8-0.9l3-3h1.1l-3.4,3.3l3.7,4.6h-1L652.7,129z"/>
		<path d="M658.1,132.5c0-0.2,0.1-0.3,0.2-0.4c0.1-0.1,0.3-0.2,0.5-0.2s0.3,0.1,0.5,0.2c0.1,0.1,0.2,0.3,0.2,0.4s-0.1,0.3-0.2,0.4
			c-0.1,0.1-0.3,0.2-0.5,0.2s-0.3-0.1-0.5-0.2C658.2,132.8,658.1,132.6,658.1,132.5z"/>
	</g>
</g>
<g>
	<polyline fill="none" stroke="#000000" stroke-width="2" stroke-linecap="square" stroke-miterlimit="10" points="729.3,275.8 
		692.5,275.8 692.5,267 654.8,267 654.8,258.2 617,258.2 617,249.4 579.3,248.5 579.3,240.6 541.5,240.6 541.5,229.2 503.8,229.2 
		503.8,219.2 466.1,219.2 466.1,202.7 428.3,202.7 428.3,198.3 390.6,198.3 390.6,193.9 352.8,193.9 352.8,168.8 315.1,168.8 
		315.1,164.9 277.3,164.9 277.3,161 239.6,161 239.6,157 201.9,157 201.9,153.1 164.1,153.1 164.1,149.2 126.4,149.2 126.4,145.3 
		88.6,145.3 88.6,141.3 50.9,141.3 	"/>
</g>
</svg>
