<?xml version="1.0" encoding="utf-8"?>
<!-- Generator: Adobe Illustrator 27.7.0, SVG Export Plug-In . SVG Version: 6.00 Build 0)  -->
<svg version="1.1" id="Layer_1" xmlns="http://www.w3.org/2000/svg" xmlns:xlink="http://www.w3.org/1999/xlink" x="0px" y="0px"
	 viewBox="0 0 520 477.2" style="enable-background:new 0 0 520 477.2;" xml:space="preserve">
<style type="text/css">
	.st0{enable-background:new    ;}
	.st1{fill:none;stroke:#BCBEC0;stroke-miterlimit:10;}
	.st2{fill:#BCBEC0;}
	.st3{fill:#87BBDE;stroke:#FFFFFF;stroke-width:1.107;stroke-miterlimit:10;}
	.st4{fill:#E6EEF7;}
	.st5{fill:#231F20;}
	.st6{fill:#606060;}
	.st7{fill:none;stroke:#FFFFFF;stroke-width:12;stroke-miterlimit:10;}
	.st8{fill:#E8E3E7;stroke:#FFFFFF;stroke-miterlimit:10;}
	.st9{fill:#97C1DE;stroke:#FFFFFF;stroke-miterlimit:10;}
	.st10{fill:#999999;}
	.st11{fill:#76B4DE;}
	.st12{fill:none;stroke:#000000;stroke-width:1.5;stroke-miterlimit:10;}
	.st13{fill:none;stroke:#FFFFFF;stroke-width:20;stroke-miterlimit:10;}
	.st14{fill:#F1F2F2;enable-background:new    ;}
	.st15{fill:#666666;stroke:#666666;stroke-width:0.6;stroke-linejoin:round;}
	.st16{fill:none;}
	.st17{fill:none;stroke:#808285;stroke-width:0.3;stroke-linecap:square;stroke-linejoin:round;stroke-dasharray:5.6885;}
	.st18{fill:#606060;enable-background:new    ;}
	.st19{opacity:0.1;}
	.st20{stroke:#FFFFFF;stroke-width:0.75;stroke-miterlimit:10;}
	.st21{stroke:#FFFFFF;stroke-width:1.107;stroke-miterlimit:10;}
	
		.st22{fill:none;stroke:#000000;stroke-width:0.4;stroke-linecap:square;stroke-linejoin:round;stroke-opacity:0.16;stroke-dasharray:5;}
	.st23{fill:none;stroke:#1F77B4;stroke-width:2.5;stroke-linecap:square;stroke-linejoin:round;}
	.st24{fill:none;stroke:#666666;stroke-width:0.6642;stroke-linecap:square;}
	.st25{fill:none;stroke:#000000;stroke-width:2.214;stroke-miterlimit:10;}
	.st26{fill:none;stroke:#000000;stroke-width:2.214;stroke-miterlimit:10;stroke-dasharray:5.5351;}
	.st27{fill:#F7F7F7;}
	.st28{fill:none;stroke:#000000;stroke-width:2.5;stroke-miterlimit:10;}
	.st29{fill:#B7C6E6;}
	.st30{fill:#D1D3D4;stroke:#000000;stroke-width:1.3;stroke-linejoin:round;stroke-miterlimit:10;}
	.st31{fill:#2E3D99;}
	.st32{fill:#BFBFBF;}
	.st33{stroke:#000000;stroke-width:0.4;stroke-linejoin:bevel;stroke-miterlimit:10;}
	.st34{fill:#FFFFFF;}
	.st35{fill:#B3B3B3;}
	.st36{fill:none;stroke:#000000;stroke-miterlimit:10;}
	.st37{fill:none;stroke:#000000;stroke-miterlimit:10;stroke-dasharray:5.8118,2.9059;}
	.st38{fill:#939598;}
	.st39{fill:#D1D3D4;stroke:#000000;stroke-width:1.7;stroke-linejoin:round;stroke-miterlimit:10;}
	.st40{stroke:#000000;stroke-width:0.5;stroke-linejoin:bevel;stroke-miterlimit:10;}
	.st41{fill:none;stroke:#000000;stroke-width:2;stroke-miterlimit:10;}
	.st42{fill:none;stroke:#000000;stroke-miterlimit:10;stroke-dasharray:6.1087,3.0543;}
	.st43{fill:none;stroke:#CCCCCC;stroke-width:2;stroke-miterlimit:10;}
	.st44{opacity:0.1;fill:#231F20;}
	.st45{fill:none;stroke:#939598;stroke-miterlimit:10;}
	.st46{fill:none;stroke:#000000;stroke-width:2;stroke-linecap:square;stroke-miterlimit:10;}
</style>
<g class="st0">
	<g>
		<line class="st1" x1="437.8" y1="373.3" x2="437.8" y2="407.7"/>
		<g>
			<polygon class="st2" points="433.7,376.7 434.4,377.3 437.8,373.7 441.1,377.3 441.8,376.7 437.8,372.3 			"/>
		</g>
	</g>
</g>
<g>
	<g>
		<path d="M5.8,19.8v-5.2c0-2.8,1.5-4.3,4.1-4.3c2.7,0,4.1,1.5,4.2,4.3h-2.7c-0.1-1.2-0.5-1.7-1.6-1.7c-0.8,0-1.3,0.5-1.3,1.7v5.2
			c0,1.1,0.5,1.7,1.3,1.7c1,0,1.5-0.5,1.6-1.7h2.7c-0.1,2.8-1.6,4.3-4.3,4.3C7.3,24.1,5.8,22.6,5.8,19.8z"/>
		<path d="M24.7,21.3v2.6h-7V10.6h6.9v2.6h-4.2v2.8h3.8v2.5h-3.8v2.9H24.7z"/>
		<path d="M28.4,10.6h2.7l2.5,5.8c0.3,0.8,0.6,1.7,0.9,2.5l0.1-0.1c-0.2-1.7-0.4-4-0.4-5.2v-3.1h2.7v13.3h-2.7L32,18.7l-1.2-3.2
			l-0.1,0.1c0.2,1.7,0.3,4.2,0.3,5.6v2.7h-2.7V10.6z"/>
		<path d="M46.1,21.6h-2.8l-0.4,2.2h-2.8l3.2-13.3h2.9l3.2,13.3h-2.8L46.1,21.6z M45.6,19.1l-0.3-1.5c-0.2-0.9-0.4-2.6-0.5-3.6h-0.1
			c-0.1,1.1-0.3,2.7-0.5,3.6l-0.3,1.5H45.6z"/>
		<path d="M65.2,21.3v2.6h-7V10.6H65v2.6h-4.2v2.8h3.8v2.5h-3.8v2.9H65.2z"/>
		<path d="M67.8,10.6h2.8l1.2,6.3c0.2,1,0.4,2.6,0.6,3.7h0.1c0.1-1.1,0.4-2.7,0.6-3.7l1.2-6.3H77l-3.2,13.3H71L67.8,10.6z"/>
		<path d="M83.8,19.4h-1v4.5h-2.7V10.6H84c2.6,0,4.2,1.6,4.2,4.4c0,1.8-0.7,3.1-1.8,3.8l2.5,5h-2.9L83.8,19.4z M82.8,16.8h1.1
			c1,0,1.5-0.6,1.5-1.8c0-1.2-0.5-1.9-1.5-1.9h-1.1V16.8z"/>
		<path d="M91.6,19.5v-4.7c0-2.8,1.6-4.5,4.3-4.5s4.3,1.7,4.3,4.5v4.7c0,2.8-1.6,4.5-4.3,4.5S91.6,22.4,91.6,19.5z M97.5,19.5v-4.7
			c0-1.3-0.5-1.9-1.5-1.9s-1.5,0.7-1.5,1.9v4.7c0,1.3,0.5,1.9,1.5,1.9S97.5,20.8,97.5,19.5z"/>
		<path d="M112.4,15.1c0,2.8-1.6,4.5-4.4,4.5h-1.2v4.3h-2.7V10.6h3.9C110.8,10.6,112.4,12.2,112.4,15.1z M109.6,15.1
			c0-1.3-0.6-2-1.7-2h-1.1V17h1.1C109,17,109.6,16.3,109.6,15.1z"/>
		<path d="M115.2,20h2.8c0,1.1,0.5,1.5,1.4,1.5c0.9,0,1.3-0.5,1.3-1.2c0-2.2-5.2-2.5-5.2-6.5c0-2,1.4-3.5,3.9-3.5
			c2.5,0,3.9,1.5,3.9,3.9h-2.8c0-0.9-0.4-1.3-1.2-1.3c-0.7,0-1.1,0.4-1.1,1c0,2.1,5.3,2.2,5.3,6.5c0,2.2-1.5,3.8-4.2,3.8
			C116.8,24.1,115.2,22.7,115.2,20z"/>
		<path d="M130.2,18.8l-0.7,1.2v3.8h-2.7V10.6h2.7v5.1l0.7-1.5l1.9-3.6h3.1l-3.4,5.8l4,7.5h-3L130.2,18.8z"/>
		<path d="M141.1,19.9l-3.1-9.3h2.8l1.1,3.7c0.1,0.4,0.4,1.5,0.6,2.1h0.1c0.2-0.6,0.5-1.7,0.6-2.2l1-3.6h2.8l-3.1,9.3v4h-2.7V19.9z
			 M142.9,6.7h2.1l-2.1,2.6h-1.8L142.9,6.7z"/>
		<path d="M149.6,19.8v-5.2c0-2.8,1.5-4.3,4.1-4.3c2.7,0,4.1,1.5,4.2,4.3h-2.7c-0.1-1.2-0.5-1.7-1.6-1.7c-0.8,0-1.3,0.5-1.3,1.7v5.2
			c0,1.1,0.5,1.7,1.3,1.7c1,0,1.5-0.5,1.6-1.7h2.7c-0.1,2.8-1.6,4.3-4.3,4.3C151.1,24.1,149.6,22.6,149.6,19.8z"/>
		<path d="M169.6,10.6v13.3h-2.7v-5.4h-2.7v5.4h-2.7V10.6h2.7v5.3h2.7v-5.3H169.6z"/>
		<path d="M186.6,21.3v2.6h-7V10.6h6.9v2.6h-4.2v2.8h3.8v2.5h-3.8v2.9H186.6z"/>
		<path d="M201.8,10.6v13.3h-2.6v-3.3c0.1-1.6,0.1-3.2,0.2-4.8l-0.1,0l-1.2,3.5l-0.7,1.8h-2.7l-0.7-1.8l-1.2-3.5l-0.1,0
			c0.1,1.6,0.1,3.2,0.2,4.8v3.3h-2.6V10.6h2.7l2.1,5c0.3,0.7,0.7,1.8,0.9,2.3h0.1c0.2-0.5,0.6-1.7,0.9-2.3l2.1-5H201.8z"/>
		<path d="M206.1,10.6h2.7v13.3h-2.7V10.6z"/>
		<path d="M212.2,20h2.8c0,1.1,0.5,1.5,1.4,1.5c0.9,0,1.3-0.5,1.3-1.2c0-2.2-5.2-2.5-5.2-6.5c0-2,1.4-3.5,3.9-3.5
			c2.5,0,3.9,1.5,3.9,3.9h-2.8c0-0.9-0.4-1.3-1.2-1.3c-0.7,0-1.1,0.4-1.1,1c0,2.1,5.3,2.2,5.3,6.5c0,2.2-1.5,3.8-4.2,3.8
			C213.8,24.1,212.2,22.7,212.2,20z"/>
		<path d="M223.8,10.6h2.7l2.5,5.8c0.3,0.8,0.6,1.7,0.9,2.5l0.1-0.1c-0.2-1.7-0.4-4-0.4-5.2v-3.1h2.7v13.3h-2.7l-2.2-5.1l-1.2-3.2
			l-0.1,0.1c0.2,1.7,0.3,4.2,0.3,5.6v2.7h-2.7V10.6z"/>
		<path d="M236.6,10.6h2.7v13.3h-2.7V10.6z M238.4,6.7h2.1l-2.1,2.6h-1.8L238.4,6.7z"/>
		<path d="M243.1,19.8v-5.2c0-2.8,1.5-4.3,4.1-4.3c2.7,0,4.1,1.5,4.2,4.3h-2.7c-0.1-1.2-0.5-1.7-1.6-1.7c-0.8,0-1.3,0.5-1.3,1.7v5.2
			c0,1.1,0.5,1.7,1.3,1.7c1,0,1.5-0.5,1.6-1.7h2.7c-0.1,2.8-1.6,4.3-4.3,4.3C244.7,24.1,243.1,22.6,243.1,19.8z"/>
		<path d="M263.2,10.6v13.3h-2.7v-5.4h-2.7v5.4H255V10.6h2.7v5.3h2.7v-5.3H263.2z"/>
		<path d="M281.4,15.1c0,2.8-1.6,4.5-4.4,4.5h-1.2v4.3h-2.7V10.6h3.9C279.7,10.6,281.4,12.2,281.4,15.1z M278.6,15.1
			c0-1.3-0.6-2-1.7-2h-1.1V17h1.1C278,17,278.6,16.3,278.6,15.1z"/>
		<path d="M284.6,19.5v-4.7c0-2.8,1.6-4.5,4.3-4.5s4.3,1.7,4.3,4.5v4.7c0,2.8-1.6,4.5-4.3,4.5S284.6,22.4,284.6,19.5z M290.4,19.5
			v-4.7c0-1.3-0.5-1.9-1.5-1.9s-1.5,0.7-1.5,1.9v4.7c0,1.3,0.5,1.9,1.5,1.9S290.4,20.8,290.4,19.5z"/>
		<path d="M296,10.6h2.8l1.2,6.3c0.2,1,0.4,2.6,0.6,3.7h0.1c0.1-1.1,0.4-2.7,0.6-3.7l1.2-6.3h2.8L302,23.8h-2.8L296,10.6z"/>
		<path d="M307.9,19.5v-4.7c0-2.8,1.6-4.5,4.3-4.5s4.3,1.7,4.3,4.5v4.7c0,2.8-1.6,4.5-4.3,4.5S307.9,22.4,307.9,19.5z M313.7,19.5
			v-4.7c0-1.3-0.5-1.9-1.5-1.9s-1.5,0.7-1.5,1.9v4.7c0,1.3,0.5,1.9,1.5,1.9S313.7,20.8,313.7,19.5z"/>
		<path d="M327,21.3v2.6h-6.6V10.6h2.7v10.7H327z"/>
		<path d="M337.3,21.3v2.6h-7V10.6h6.9v2.6h-4.2v2.8h3.8v2.5h-3.8v2.9H337.3z"/>
		<path d="M341,10.6h2.7l2.5,5.8c0.3,0.8,0.6,1.7,0.9,2.5l0.1-0.1c-0.2-1.7-0.4-4-0.4-5.2v-3.1h2.7v13.3h-2.7l-2.2-5.1l-1.2-3.2
			l-0.1,0.1c0.2,1.7,0.3,4.2,0.3,5.6v2.7H341V10.6z"/>
		<path d="M360.8,21.3v2.6h-7V10.6h6.9v2.6h-4.2v2.8h3.8v2.5h-3.8v2.9H360.8z"/>
		<path d="M368,18.8l-0.7,1.2v3.8h-2.7V10.6h2.7v5.1l0.7-1.5l1.9-3.6h3.1l-3.4,5.8l4,7.5h-3L368,18.8z"/>
	</g>
</g>
<g>
	<path d="M10.2,55.3H7.9v4H6.1V48.6h4.1c1.2,0,2.2,0.3,2.9,1c0.7,0.6,1,1.5,1,2.4c0,1-0.3,1.8-1,2.4C12.4,55,11.4,55.3,10.2,55.3z
		 M7.9,50v3.7h2.2c0.7,0,1.2-0.2,1.5-0.5c0.3-0.3,0.5-0.8,0.5-1.3c0-0.5-0.2-0.9-0.5-1.3c-0.3-0.4-0.8-0.6-1.5-0.6H7.9z"/>
	<path d="M18.9,52.9c-0.8,0-1.4,0.3-1.7,0.9v5.4h-1.8v-7.9h1.7l0,0.9c0.2-0.3,0.4-0.6,0.7-0.8s0.6-0.3,1-0.3c0.2,0,0.4,0,0.6,0.1
		l0,1.7C19.4,52.9,19.2,52.9,18.9,52.9z"/>
	<path d="M25.6,59.2l0-0.8c-0.5,0.6-1.3,0.9-2.2,0.9c-0.8,0-1.4-0.2-1.9-0.7s-0.7-1.2-0.7-2.3v-5.1h1.8v5.1c0,0.6,0.1,1,0.4,1.2
		c0.3,0.2,0.5,0.3,0.9,0.3c0.5,0,0.8-0.1,1.1-0.2c0.3-0.2,0.5-0.4,0.6-0.7v-5.7h1.8v7.9H25.6z M22.4,48.8c0-0.4,0.2-0.8,0.5-1.1
		c0.3-0.3,0.7-0.4,1.2-0.4c0.5,0,0.8,0.1,1.2,0.4s0.5,0.7,0.5,1.1s-0.2,0.8-0.5,1.1s-0.7,0.4-1.2,0.4c-0.5,0-0.8-0.1-1.2-0.4
		C22.6,49.6,22.4,49.2,22.4,48.8z M23.2,48.8c0,0.2,0.1,0.4,0.2,0.6c0.2,0.2,0.3,0.2,0.6,0.2c0.2,0,0.4-0.1,0.6-0.2
		c0.2-0.2,0.2-0.4,0.2-0.6c0-0.2-0.1-0.4-0.2-0.6C24.5,48.1,24.3,48,24,48c-0.2,0-0.4,0.1-0.6,0.2S23.2,48.6,23.2,48.8z"/>
	<path d="M32.4,52.6c-0.4,0-0.7,0.1-0.9,0.2s-0.4,0.4-0.6,0.6v5.7h-1.8v-7.9h1.7l0.1,0.8c0.6-0.6,1.3-1,2.3-1c0.5,0,0.9,0.1,1.3,0.3
		c0.4,0.2,0.7,0.5,0.9,0.9c0.3-0.4,0.6-0.7,1-0.9s0.9-0.3,1.4-0.3c0.8,0,1.4,0.2,1.9,0.7s0.7,1.2,0.7,2.3v5.1h-1.8v-5.1
		c0-0.6-0.1-1-0.4-1.2c-0.3-0.2-0.6-0.3-1-0.3c-0.4,0-0.7,0.1-1,0.3c-0.3,0.2-0.4,0.5-0.5,0.9c0,0,0,0.1,0,0.2v5.3h-1.8v-5.1
		c0-0.6-0.1-0.9-0.4-1.2C33.2,52.7,32.9,52.6,32.4,52.6z"/>
	<path d="M48.7,57.9c-0.3,0.4-0.6,0.7-1.1,1c-0.5,0.3-1.1,0.5-1.9,0.5c-1.2,0-2.1-0.4-2.8-1.1s-1-1.6-1-2.7v-0.3c0-1.2,0.3-2.2,1-3
		c0.7-0.7,1.5-1.1,2.5-1.1c1.2,0,2,0.4,2.6,1.1c0.6,0.7,0.8,1.7,0.8,2.8v0.8h-5.2c0,0.6,0.3,1.1,0.6,1.5c0.4,0.4,0.9,0.6,1.5,0.6
		c0.4,0,0.8-0.1,1.1-0.3c0.3-0.2,0.6-0.4,0.8-0.7L48.7,57.9z M44.2,48l1.1,1.1l1.1-1.1h1.5V48l-2,2h-1.1l-2-2V48H44.2z M45.5,52.6
		c-0.5,0-0.9,0.2-1.2,0.5s-0.5,0.8-0.6,1.4h3.4v-0.1c0-0.5-0.2-0.9-0.4-1.2S46,52.6,45.5,52.6z"/>
	<path d="M53.7,52.9c-0.8,0-1.4,0.3-1.7,0.9v5.4h-1.8v-7.9h1.7l0,0.9c0.2-0.3,0.4-0.6,0.7-0.8s0.6-0.3,1-0.3c0.2,0,0.4,0,0.6,0.1
		l0,1.7C54.1,52.9,53.9,52.9,53.7,52.9z"/>
	<path d="M58.9,52.6c-0.7,0-1.2,0.3-1.6,1v5.7h-1.8v-7.9h1.7l0.1,0.9c0.6-0.7,1.3-1.1,2.3-1.1c0.8,0,1.4,0.2,1.8,0.7S62,53,62,54.1
		v5.1h-1.8v-5.1c0-0.5-0.1-0.9-0.4-1.1C59.7,52.7,59.3,52.6,58.9,52.6z"/>
	<path d="M68.6,59.2c-0.1-0.2-0.2-0.4-0.2-0.7c-0.2,0.2-0.5,0.5-0.9,0.6s-0.8,0.3-1.2,0.3c-0.8,0-1.4-0.2-1.9-0.7s-0.8-1-0.8-1.7
		c0-0.8,0.3-1.5,0.9-1.9s1.5-0.7,2.7-0.7h1.1v-0.5c0-0.4-0.1-0.7-0.3-1c-0.2-0.2-0.6-0.4-1-0.4c-0.4,0-0.8,0.1-1,0.3
		c-0.3,0.2-0.4,0.5-0.4,0.8h-1.8c0-0.6,0.3-1.2,0.9-1.7c0.6-0.5,1.4-0.7,2.4-0.7c0.9,0,1.6,0.2,2.2,0.7c0.6,0.5,0.9,1.1,0.9,2v3.5
		c0,0.7,0.1,1.3,0.3,1.7v0.1H68.6z M66.6,57.9c0.4,0,0.8-0.1,1.1-0.3c0.3-0.2,0.5-0.4,0.6-0.7v-1.5h-1c-1.3,0-2,0.4-2,1.3
		c0,0.3,0.1,0.6,0.3,0.8C65.9,57.8,66.2,57.9,66.6,57.9z M66.2,50.2l1.4-2.2h2l-2,2.2H66.2z"/>
	<path d="M79,52.6c-0.4,0-0.7,0.1-0.9,0.2s-0.4,0.4-0.6,0.6v5.7h-1.8v-7.9h1.7l0.1,0.8c0.6-0.6,1.3-1,2.3-1c0.5,0,0.9,0.1,1.3,0.3
		c0.4,0.2,0.7,0.5,0.9,0.9c0.3-0.4,0.6-0.7,1-0.9s0.9-0.3,1.4-0.3c0.8,0,1.4,0.2,1.9,0.7s0.7,1.2,0.7,2.3v5.1h-1.8v-5.1
		c0-0.6-0.1-1-0.4-1.2c-0.3-0.2-0.6-0.3-1-0.3c-0.4,0-0.7,0.1-1,0.3c-0.3,0.2-0.4,0.5-0.5,0.9c0,0,0,0.1,0,0.2v5.3h-1.8v-5.1
		c0-0.6-0.1-0.9-0.4-1.2C79.8,52.7,79.4,52.6,79,52.6z"/>
	<path d="M95.3,57.9c-0.3,0.4-0.6,0.7-1.1,1c-0.5,0.3-1.1,0.5-1.9,0.5c-1.2,0-2.1-0.4-2.8-1.1s-1-1.6-1-2.7v-0.3c0-1.2,0.3-2.2,1-3
		c0.7-0.7,1.5-1.1,2.5-1.1c1.2,0,2,0.4,2.6,1.1c0.6,0.7,0.8,1.7,0.8,2.8v0.8h-5.2c0,0.6,0.3,1.1,0.6,1.5c0.4,0.4,0.9,0.6,1.5,0.6
		c0.4,0,0.8-0.1,1.1-0.3c0.3-0.2,0.6-0.4,0.8-0.7L95.3,57.9z M90.8,48l1.1,1.1L93,48h1.5V48l-2,2h-1.1l-2-2V48H90.8z M92,52.6
		c-0.5,0-0.9,0.2-1.2,0.5s-0.5,0.8-0.6,1.4h3.4v-0.1c0-0.5-0.2-0.9-0.4-1.2S92.6,52.6,92,52.6z"/>
	<path d="M101.3,57.1c0-0.3-0.1-0.5-0.3-0.7c-0.2-0.2-0.7-0.4-1.4-0.5c-0.8-0.2-1.5-0.5-2.1-0.8c-0.5-0.4-0.8-0.9-0.8-1.5
		c0-0.6,0.3-1.2,0.8-1.7c0.5-0.5,1.3-0.7,2.2-0.7c1,0,1.8,0.2,2.3,0.7c0.6,0.5,0.8,1.1,0.8,1.8h-1.8c0-0.3-0.1-0.6-0.4-0.8
		c-0.2-0.2-0.6-0.4-1-0.4c-0.5,0-0.8,0.1-1,0.3c-0.2,0.2-0.3,0.4-0.3,0.7c0,0.3,0.1,0.5,0.3,0.6c0.2,0.2,0.7,0.3,1.3,0.4
		c0.9,0.2,1.6,0.5,2.2,0.8c0.5,0.4,0.8,0.9,0.8,1.6c0,0.7-0.3,1.3-0.9,1.7s-1.4,0.7-2.3,0.7c-1.1,0-1.9-0.3-2.5-0.8
		c-0.6-0.6-0.9-1.2-0.9-1.8h1.7c0,0.5,0.2,0.8,0.5,1c0.3,0.2,0.7,0.3,1.1,0.3c0.5,0,0.8-0.1,1.1-0.3
		C101.1,57.6,101.3,57.3,101.3,57.1z"/>
	<path d="M106.5,51.3v7.9h-1.8v-7.9H106.5z M104.7,50.2l1.4-2.2h2l-2,2.2H104.7z"/>
	<path d="M111.8,57.9c0.4,0,0.8-0.1,1.1-0.4c0.3-0.3,0.5-0.6,0.5-1h1.7c0,0.8-0.3,1.4-1,2c-0.6,0.5-1.4,0.8-2.3,0.8
		c-1.2,0-2.1-0.4-2.7-1.2c-0.6-0.8-0.9-1.7-0.9-2.8v-0.3c0-1.1,0.3-2,0.9-2.8c0.6-0.8,1.5-1.2,2.7-1.2c1,0,1.7,0.3,2.3,0.8
		s0.9,1.3,0.9,2.1h-1.7c0-0.4-0.2-0.8-0.4-1.1c-0.3-0.3-0.7-0.5-1.1-0.5c-0.7,0-1.2,0.3-1.4,0.8c-0.2,0.5-0.4,1.1-0.4,1.7v0.3
		c0,0.6,0.1,1.2,0.4,1.8S111,57.9,111.8,57.9z M110.4,48l1.1,1.1l1.1-1.1h1.5V48l-2,2h-1.1l-2-2V48H110.4z"/>
	<path d="M119.7,52.6c-0.7,0-1.2,0.3-1.6,1v5.7h-1.8v-7.9h1.7l0.1,0.9c0.6-0.7,1.3-1.1,2.3-1.1c0.8,0,1.4,0.2,1.8,0.7
		s0.7,1.2,0.7,2.3v5.1h-1.8v-5.1c0-0.5-0.1-0.9-0.4-1.1C120.5,52.7,120.2,52.6,119.7,52.6z"/>
	<path d="M126.6,51.3v7.9h-1.8v-7.9H126.6z M124.9,50.2l1.4-2.2h2l-2,2.2H124.9z"/>
	<path d="M135.6,57.9c0.4,0,0.8-0.1,1.1-0.4c0.3-0.3,0.5-0.6,0.5-1h1.7c0,0.8-0.3,1.4-1,2c-0.6,0.5-1.4,0.8-2.3,0.8
		c-1.2,0-2.1-0.4-2.7-1.2c-0.6-0.8-0.9-1.7-0.9-2.8v-0.3c0-1.1,0.3-2,0.9-2.8c0.6-0.8,1.5-1.2,2.7-1.2c1,0,1.7,0.3,2.3,0.8
		s0.9,1.3,0.9,2.1h-1.7c0-0.4-0.2-0.8-0.4-1.1c-0.3-0.3-0.7-0.5-1.1-0.5c-0.7,0-1.2,0.3-1.4,0.8c-0.2,0.5-0.4,1.1-0.4,1.7v0.3
		c0,0.6,0.1,1.2,0.4,1.8S134.9,57.9,135.6,57.9z"/>
	<path d="M146.8,57.9c-0.3,0.4-0.6,0.7-1.1,1c-0.5,0.3-1.1,0.5-1.9,0.5c-1.2,0-2.1-0.4-2.8-1.1s-1-1.6-1-2.7v-0.3c0-1.2,0.3-2.2,1-3
		c0.7-0.7,1.5-1.1,2.5-1.1c1.2,0,2,0.4,2.6,1.1c0.6,0.7,0.8,1.7,0.8,2.8v0.8h-5.2c0,0.6,0.3,1.1,0.6,1.5c0.4,0.4,0.9,0.6,1.5,0.6
		c0.4,0,0.8-0.1,1.1-0.3c0.3-0.2,0.6-0.4,0.8-0.7L146.8,57.9z M143.5,52.6c-0.5,0-0.9,0.2-1.2,0.5s-0.5,0.8-0.6,1.4h3.4v-0.1
		c0-0.5-0.2-0.9-0.4-1.2S144.1,52.6,143.5,52.6z"/>
	<path d="M151.7,52.6c-0.7,0-1.2,0.3-1.6,1v5.7h-1.8v-7.9h1.7l0.1,0.9c0.6-0.7,1.3-1.1,2.3-1.1c0.8,0,1.4,0.2,1.8,0.7
		s0.7,1.2,0.7,2.3v5.1h-1.8v-5.1c0-0.5-0.1-0.9-0.4-1.1C152.5,52.7,152.1,52.6,151.7,52.6z"/>
	<path d="M161.4,59.2c-0.1-0.2-0.2-0.4-0.2-0.7c-0.2,0.2-0.5,0.5-0.9,0.6s-0.8,0.3-1.2,0.3c-0.8,0-1.4-0.2-1.9-0.7s-0.8-1-0.8-1.7
		c0-0.8,0.3-1.5,0.9-1.9s1.5-0.7,2.7-0.7h1.1v-0.5c0-0.4-0.1-0.7-0.3-1c-0.2-0.2-0.6-0.4-1-0.4c-0.4,0-0.8,0.1-1,0.3
		c-0.3,0.2-0.4,0.5-0.4,0.8h-1.8c0-0.6,0.3-1.2,0.9-1.7c0.6-0.5,1.4-0.7,2.4-0.7c0.9,0,1.6,0.2,2.2,0.7c0.6,0.5,0.9,1.1,0.9,2v3.5
		c0,0.7,0.1,1.3,0.3,1.7v0.1H161.4z M159.4,57.9c0.4,0,0.8-0.1,1.1-0.3c0.3-0.2,0.5-0.4,0.6-0.7v-1.5h-1c-1.3,0-2,0.4-2,1.3
		c0,0.3,0.1,0.6,0.3,0.8C158.7,57.8,159,57.9,159.4,57.9z"/>
	<path d="M172.4,59.4c-0.9,0-1.6-0.3-2.1-0.9v3.8h-1.8v-11h1.6l0.1,0.8c0.5-0.6,1.2-0.9,2.1-0.9c1,0,1.8,0.4,2.3,1.1
		c0.5,0.7,0.8,1.7,0.8,2.9v0.2c0,1.2-0.3,2.1-0.8,2.9S173.3,59.4,172.4,59.4z M171.8,52.6c-0.4,0-0.7,0.1-1,0.2
		c-0.3,0.2-0.5,0.4-0.6,0.7V57c0.1,0.3,0.3,0.5,0.6,0.7c0.3,0.2,0.6,0.3,1,0.3c0.6,0,1.1-0.3,1.4-0.8c0.3-0.5,0.4-1.1,0.4-1.8v-0.2
		c0-0.7-0.1-1.3-0.4-1.8C172.9,52.8,172.5,52.6,171.8,52.6z"/>
	<path d="M176.6,55.3v-0.2c0-1.1,0.3-2.1,1-2.9c0.6-0.8,1.5-1.2,2.7-1.2c1.2,0,2.1,0.4,2.7,1.2c0.6,0.8,1,1.7,1,2.9v0.2
		c0,1.2-0.3,2.1-1,2.9c-0.6,0.8-1.5,1.1-2.7,1.1c-1.2,0-2.1-0.4-2.7-1.1C176.9,57.4,176.6,56.5,176.6,55.3z M178.4,55.2v0.2
		c0,0.7,0.2,1.3,0.5,1.8c0.3,0.5,0.8,0.8,1.5,0.8c0.7,0,1.1-0.3,1.4-0.8c0.3-0.5,0.5-1.1,0.5-1.8v-0.2c0-0.7-0.2-1.3-0.5-1.8
		c-0.3-0.5-0.8-0.8-1.5-0.8c-0.7,0-1.1,0.3-1.4,0.8C178.5,53.9,178.4,54.5,178.4,55.2z"/>
	<path d="M191.7,51.3l-2.7,7.9h-1.5l-2.8-7.9h1.8l1.7,5.7l1.7-5.7H191.7z"/>
	<path d="M192.4,55.3v-0.2c0-1.1,0.3-2.1,1-2.9c0.6-0.8,1.5-1.2,2.7-1.2c1.2,0,2.1,0.4,2.7,1.2c0.6,0.8,1,1.7,1,2.9v0.2
		c0,1.2-0.3,2.1-1,2.9c-0.6,0.8-1.5,1.1-2.7,1.1c-1.2,0-2.1-0.4-2.7-1.1C192.7,57.4,192.4,56.5,192.4,55.3z M194.1,55.2v0.2
		c0,0.7,0.2,1.3,0.5,1.8c0.3,0.5,0.8,0.8,1.5,0.8c0.7,0,1.1-0.3,1.4-0.8c0.3-0.5,0.5-1.1,0.5-1.8v-0.2c0-0.7-0.2-1.3-0.5-1.8
		c-0.3-0.5-0.8-0.8-1.5-0.8c-0.7,0-1.1,0.3-1.4,0.8C194.3,53.9,194.1,54.5,194.1,55.2z"/>
	<path d="M203.1,48v11.2h-1.8V48H203.1z"/>
	<path d="M211.6,57.9c-0.3,0.4-0.6,0.7-1.1,1c-0.5,0.3-1.1,0.5-1.9,0.5c-1.2,0-2.1-0.4-2.8-1.1s-1-1.6-1-2.7v-0.3c0-1.2,0.3-2.2,1-3
		c0.7-0.7,1.5-1.1,2.5-1.1c1.2,0,2,0.4,2.6,1.1c0.6,0.7,0.8,1.7,0.8,2.8v0.8h-5.2c0,0.6,0.3,1.1,0.6,1.5c0.4,0.4,0.9,0.6,1.5,0.6
		c0.4,0,0.8-0.1,1.1-0.3c0.3-0.2,0.6-0.4,0.8-0.7L211.6,57.9z M208.3,52.6c-0.5,0-0.9,0.2-1.2,0.5s-0.5,0.8-0.6,1.4h3.4v-0.1
		c0-0.5-0.2-0.9-0.4-1.2S208.9,52.6,208.3,52.6z"/>
	<path d="M216.5,52.6c-0.7,0-1.2,0.3-1.6,1v5.7h-1.8v-7.9h1.7l0.1,0.9c0.6-0.7,1.3-1.1,2.3-1.1c0.8,0,1.4,0.2,1.8,0.7
		s0.7,1.2,0.7,2.3v5.1h-1.8v-5.1c0-0.5-0.1-0.9-0.4-1.1C217.3,52.7,216.9,52.6,216.5,52.6z"/>
	<path d="M226.4,59.2l-2.4-3.4l-0.8,0.8v2.6h-1.8V48h1.8v6.5l0.6-0.7l2.2-2.5h2.1l-3,3.3l3.3,4.6H226.4z"/>
	<path d="M232.4,60.4c-0.1,0.3-0.2,0.6-0.4,0.9c-0.2,0.3-0.4,0.6-0.8,0.8s-0.8,0.3-1.3,0.3c-0.2,0-0.3,0-0.5,0s-0.3-0.1-0.4-0.1
		v-1.4c0,0,0.1,0,0.2,0c0.1,0,0.1,0,0.2,0c0.4,0,0.8-0.1,1-0.2c0.2-0.2,0.4-0.4,0.5-0.8l0.3-0.7l-2.8-7.9h1.9l1.7,5.4l1.6-5.4h1.9
		L232.4,60.4z"/>
	<path d="M6,73v-0.1c0-1.3,0.2-2.4,0.5-3.5c0.3-1,0.8-1.9,1.3-2.6c0.5-0.7,1-1.2,1.5-1.5l0.2,0.6c-0.4,0.3-0.9,0.8-1.3,1.5
		s-0.7,1.5-1,2.4c-0.3,1-0.4,2-0.4,3.1V73c0,1.1,0.1,2.2,0.4,3.1s0.6,1.8,1,2.4s0.8,1.2,1.3,1.5l-0.2,0.6c-0.5-0.3-1-0.8-1.5-1.5
		c-0.5-0.7-0.9-1.6-1.3-2.6S6,74.3,6,73z"/>
	<path d="M11.1,77.2V66.6h6.6v0.8H12v4h5v0.8h-5v4.4h5.7v0.8H11.1z"/>
	<path d="M26.1,66.6H27v7.2c0,1.2-0.4,2.1-1.1,2.7s-1.6,0.9-2.7,0.9c-1.1,0-2-0.3-2.7-0.9c-0.7-0.6-1.1-1.5-1.1-2.7v-7.2h0.9v7.2
		c0,0.9,0.3,1.6,0.8,2.1c0.5,0.5,1.2,0.7,2,0.7c0.8,0,1.5-0.2,2.1-0.7c0.5-0.5,0.8-1.2,0.8-2.1V66.6z"/>
	<path d="M36.1,77.2l-2.6-4.4h-3.1v4.4h-0.9V66.6H33c1.1,0,2,0.3,2.6,0.8c0.7,0.5,1,1.3,1,2.3c0,0.7-0.2,1.3-0.6,1.8
		c-0.4,0.5-0.9,0.9-1.6,1.1l2.7,4.5v0.1H36.1z M30.4,67.3V72h2.8c0.8,0,1.5-0.2,1.9-0.7c0.4-0.5,0.6-1,0.6-1.6
		c0-0.7-0.2-1.3-0.7-1.7c-0.5-0.4-1.1-0.6-2-0.6H30.4z"/>
	<path d="M42.2,70v-0.8h5.8v0.6l-4.8,6.5h5.1v0.7H42v-0.7l4.8-6.5H42.2z"/>
	<path d="M54.8,77.2c0-0.1-0.1-0.3-0.1-0.5s0-0.4-0.1-0.6c-0.3,0.3-0.6,0.6-1.1,0.9s-1,0.4-1.6,0.4c-0.8,0-1.4-0.2-1.9-0.6
		s-0.7-1-0.7-1.6c0-0.8,0.3-1.4,1-1.8s1.5-0.7,2.6-0.7h1.6v-0.9c0-0.6-0.2-1-0.5-1.3s-0.9-0.5-1.5-0.5c-0.6,0-1.1,0.2-1.5,0.5
		s-0.6,0.7-0.6,1.1l-0.9,0c0-0.6,0.3-1.1,0.8-1.6c0.6-0.5,1.3-0.7,2.2-0.7c0.8,0,1.5,0.2,2.1,0.6c0.5,0.4,0.8,1.1,0.8,1.9v3.8
		c0,0.3,0,0.6,0.1,0.9c0,0.3,0.1,0.5,0.2,0.7v0.1H54.8z M52.1,76.6c0.6,0,1.2-0.2,1.6-0.5c0.4-0.3,0.8-0.7,1-1.1v-1.8h-1.5
		c-0.9,0-1.6,0.2-2.1,0.5s-0.8,0.7-0.8,1.3c0,0.4,0.2,0.8,0.5,1.1C51.1,76.4,51.5,76.6,52.1,76.6z"/>
	<path d="M64.7,77.2c-0.2,0.1-0.5,0.1-0.9,0.1c-0.5,0-0.9-0.1-1.2-0.4c-0.3-0.3-0.5-0.8-0.5-1.6V70h-1.5v-0.7H62v-2h0.9v2h1.6V70
		h-1.6v5.3c0,0.6,0.1,0.9,0.3,1.1c0.2,0.2,0.4,0.2,0.7,0.2c0.1,0,0.3,0,0.4,0c0.1,0,0.2,0,0.3-0.1L64.7,77.2z"/>
	<path d="M71.5,77.2l0-1c-0.2,0.4-0.6,0.6-1,0.8c-0.4,0.2-0.9,0.3-1.5,0.3c-0.8,0-1.4-0.2-1.9-0.7c-0.5-0.5-0.7-1.2-0.7-2.3v-5.1
		h0.9v5.1c0,0.8,0.2,1.4,0.5,1.7c0.4,0.3,0.8,0.5,1.3,0.5c0.7,0,1.2-0.1,1.6-0.4c0.4-0.3,0.6-0.7,0.8-1.1v-5.7h0.9v7.9H71.5z"/>
	<path d="M77.8,69.9c-0.6,0-1.1,0.2-1.5,0.6c-0.4,0.4-0.7,0.8-0.8,1.3v5.4h-0.9v-7.9h0.8l0,1.3c0.3-0.4,0.6-0.8,1.1-1.1
		c0.4-0.3,0.9-0.4,1.5-0.4c0.8,0,1.4,0.2,1.9,0.7c0.4,0.4,0.7,1.2,0.7,2.2v5.2h-0.9v-5.2c0-0.8-0.2-1.4-0.5-1.7
		C78.8,70.1,78.4,69.9,77.8,69.9z"/>
	<path d="M87.9,77.2l0-1c-0.2,0.4-0.6,0.6-1,0.8c-0.4,0.2-0.9,0.3-1.5,0.3c-0.8,0-1.4-0.2-1.9-0.7c-0.5-0.5-0.7-1.2-0.7-2.3v-5.1
		h0.9v5.1c0,0.8,0.2,1.4,0.5,1.7c0.4,0.3,0.8,0.5,1.3,0.5c0.7,0,1.2-0.1,1.6-0.4c0.4-0.3,0.6-0.7,0.8-1.1v-5.7h0.9v7.9H87.9z"/>
	<path d="M101.6,73.9h0.9c-0.1,1.1-0.5,1.9-1.2,2.5s-1.6,0.9-2.8,0.9c-1.2,0-2.2-0.4-2.9-1.3c-0.7-0.9-1.1-2-1.1-3.5v-1.3
		c0-1.4,0.4-2.6,1.1-3.5c0.7-0.9,1.7-1.3,3-1.3c1.1,0,2,0.3,2.7,0.9c0.7,0.6,1,1.5,1.2,2.6h-0.9c-0.1-0.9-0.4-1.5-0.9-2
		c-0.5-0.5-1.2-0.7-2.1-0.7c-1,0-1.8,0.4-2.3,1.1c-0.6,0.7-0.8,1.7-0.8,2.9v1.3c0,1.2,0.3,2.1,0.8,2.9s1.3,1.1,2.3,1.1
		c0.9,0,1.7-0.2,2.1-0.7S101.5,74.8,101.6,73.9z"/>
	<path d="M112.5,71.3v1.1c0,1.5-0.4,2.7-1.1,3.6c-0.8,0.9-1.8,1.3-3,1.3c-1.2,0-2.2-0.4-3-1.3s-1.1-2.1-1.1-3.6v-1.1
		c0-1.5,0.4-2.7,1.1-3.6s1.8-1.3,3-1.3c1.3,0,2.3,0.4,3,1.3C112.2,68.6,112.5,69.8,112.5,71.3z M111.7,72.5v-1.2
		c0-1.3-0.3-2.3-0.9-3c-0.6-0.7-1.4-1.1-2.4-1.1c-1,0-1.8,0.4-2.4,1.1c-0.6,0.7-0.9,1.7-0.9,3v1.2c0,1.3,0.3,2.3,0.9,3
		c0.6,0.7,1.4,1.1,2.4,1.1c1,0,1.8-0.4,2.4-1.1S111.7,73.7,111.7,72.5z"/>
	<path d="M118,79.8v0.4h-3.9v-0.4l2-2.3c0.4-0.4,0.6-0.8,0.8-1.1s0.2-0.6,0.2-0.8c0-0.4-0.1-0.7-0.3-0.9c-0.2-0.2-0.5-0.4-1-0.4
		c-0.4,0-0.8,0.1-1,0.4c-0.3,0.3-0.4,0.6-0.4,1h-0.5c0-0.5,0.2-1,0.5-1.3c0.3-0.4,0.8-0.6,1.4-0.6c0.6,0,1,0.1,1.3,0.4
		c0.3,0.3,0.5,0.7,0.5,1.2c0,0.4-0.1,0.8-0.4,1.1s-0.5,0.8-0.8,1.1l-1.7,2H118z"/>
	<path d="M122.1,72.9V73c0,1.3-0.2,2.5-0.5,3.5s-0.8,1.9-1.3,2.6s-1,1.2-1.5,1.5l-0.2-0.6c0.4-0.3,0.9-0.8,1.3-1.5
		c0.4-0.7,0.7-1.5,1-2.4c0.3-1,0.4-2,0.4-3.1v-0.1c0-1.1-0.1-2.2-0.4-3.1c-0.3-1-0.6-1.8-1-2.4c-0.4-0.7-0.8-1.2-1.2-1.5l0.2-0.6
		c0.5,0.3,1,0.8,1.5,1.5s0.9,1.6,1.3,2.6C121.9,70.5,122.1,71.6,122.1,72.9z"/>
</g>
<g>
	<g>
		<path d="M22.6,366v1.8c0,1.6-0.3,2.7-0.9,3.5c-0.6,0.7-1.4,1.1-2.4,1.1c-1,0-1.8-0.4-2.4-1.1s-0.9-1.9-0.9-3.5V366
			c0-1.6,0.3-2.7,0.9-3.5s1.4-1.1,2.4-1.1c1,0,1.8,0.4,2.4,1.1C22.3,363.3,22.6,364.4,22.6,366z M21.7,367.9v-2
			c0-2.5-0.8-3.7-2.4-3.7c-1.6,0-2.4,1.2-2.4,3.7v2c0,1.2,0.2,2.1,0.6,2.8c0.4,0.7,1,1,1.8,1c0.8,0,1.4-0.3,1.8-1
			C21.5,370,21.7,369.1,21.7,367.9z"/>
	</g>
</g>
<g>
	<g>
		<path d="M14.5,320.7v0.7H7.8v-0.7l3.5-4c0.7-0.7,1.1-1.4,1.4-1.8c0.3-0.5,0.4-1,0.4-1.4c0-0.6-0.2-1.2-0.6-1.6
			c-0.4-0.4-0.9-0.6-1.7-0.6c-0.7,0-1.3,0.2-1.8,0.7c-0.4,0.5-0.6,1.1-0.6,1.8H7.6c0-0.9,0.3-1.6,0.9-2.3c0.6-0.6,1.4-0.9,2.4-0.9
			c1,0,1.7,0.3,2.3,0.8c0.6,0.5,0.8,1.2,0.8,2.1c0,0.6-0.2,1.3-0.6,1.9c-0.4,0.7-0.9,1.3-1.5,1.9l-3,3.4H14.5z"/>
		<path d="M22.6,315.2v1.8c0,1.6-0.3,2.7-0.9,3.5c-0.6,0.7-1.4,1.1-2.4,1.1c-1,0-1.8-0.4-2.4-1.1S16,318.6,16,317v-1.8
			c0-1.6,0.3-2.7,0.9-3.5s1.4-1.1,2.4-1.1c1,0,1.8,0.4,2.4,1.1C22.3,312.5,22.6,313.6,22.6,315.2z M21.7,317.1v-2
			c0-2.5-0.8-3.7-2.4-3.7c-1.6,0-2.4,1.2-2.4,3.7v2c0,1.2,0.2,2.1,0.6,2.8c0.4,0.7,1,1,1.8,1c0.8,0,1.4-0.3,1.8-1
			C21.5,319.2,21.7,318.3,21.7,317.1z"/>
	</g>
</g>
<g>
	<g>
		<path d="M7.3,264.5l4.9-7.5h1v7.2h1.7v0.7h-1.7v2.7h-0.9V265h-5V264.5z M8.4,264.3h3.9v-6.1l-0.4,0.7L8.4,264.3z"/>
		<path d="M22.6,261.5v1.8c0,1.6-0.3,2.7-0.9,3.5c-0.6,0.7-1.4,1.1-2.4,1.1c-1,0-1.8-0.4-2.4-1.1s-0.9-1.9-0.9-3.5v-1.8
			c0-1.6,0.3-2.7,0.9-3.5s1.4-1.1,2.4-1.1c1,0,1.8,0.4,2.4,1.1C22.3,258.8,22.6,259.9,22.6,261.5z M21.7,263.4v-2
			c0-2.5-0.8-3.7-2.4-3.7c-1.6,0-2.4,1.2-2.4,3.7v2c0,1.2,0.2,2.1,0.6,2.8c0.4,0.7,1,1,1.8,1c0.8,0,1.4-0.3,1.8-1
			C21.5,265.5,21.7,264.6,21.7,263.4z"/>
	</g>
</g>
<g>
	<g>
		<path d="M14.4,215.7c0,1-0.3,1.9-0.8,2.6s-1.3,1.1-2.3,1.1c-1.1,0-1.9-0.4-2.5-1.2c-0.6-0.8-0.9-1.7-0.9-2.8v-0.9
			c0-1.8,0.4-3.3,1.3-4.4s2.1-1.7,3.8-1.7H13v0.8h-0.1c-1.3,0-2.3,0.4-3,1.1c-0.7,0.8-1.1,1.8-1.2,3.1c0.6-0.9,1.5-1.3,2.7-1.3
			c1,0,1.8,0.3,2.3,1C14.1,214,14.4,214.8,14.4,215.7z M8.7,215.5c0,1,0.2,1.8,0.8,2.3c0.5,0.6,1.1,0.8,1.8,0.8
			c0.7,0,1.3-0.3,1.7-0.8s0.6-1.2,0.6-2c0-0.8-0.2-1.4-0.6-2s-1-0.8-1.8-0.8c-0.6,0-1.1,0.2-1.6,0.5c-0.5,0.3-0.8,0.8-0.9,1.3V215.5
			z"/>
		<path d="M22.6,213v1.8c0,1.6-0.3,2.7-0.9,3.5c-0.6,0.7-1.4,1.1-2.4,1.1c-1,0-1.8-0.4-2.4-1.1s-0.9-1.9-0.9-3.5V213
			c0-1.6,0.3-2.7,0.9-3.5s1.4-1.1,2.4-1.1c1,0,1.8,0.4,2.4,1.1C22.3,210.3,22.6,211.4,22.6,213z M21.7,214.9v-2
			c0-2.5-0.8-3.7-2.4-3.7c-1.6,0-2.4,1.2-2.4,3.7v2c0,1.2,0.2,2.1,0.6,2.8c0.4,0.7,1,1,1.8,1c0.8,0,1.4-0.3,1.8-1
			C21.5,217,21.7,216.1,21.7,214.9z"/>
	</g>
</g>
<g>
	<g>
		<path d="M14.4,165.7c0,1-0.3,1.7-1,2.2c-0.7,0.5-1.5,0.8-2.4,0.8c-1,0-1.8-0.3-2.4-0.8c-0.7-0.5-1-1.2-1-2.2
			c0-0.6,0.2-1.2,0.5-1.6c0.4-0.5,0.8-0.8,1.5-1c-0.5-0.2-0.9-0.5-1.3-1s-0.5-0.9-0.5-1.5c0-0.9,0.3-1.6,0.9-2.1s1.3-0.7,2.2-0.7
			s1.6,0.2,2.2,0.7c0.6,0.5,0.9,1.2,0.9,2.1c0,0.6-0.2,1.1-0.5,1.5c-0.3,0.4-0.7,0.7-1.3,1c0.6,0.2,1.1,0.5,1.5,1
			S14.4,165.1,14.4,165.7z M13.5,165.7c0-0.7-0.2-1.2-0.7-1.6c-0.5-0.4-1.1-0.6-1.8-0.6c-0.7,0-1.3,0.2-1.8,0.6s-0.7,1-0.7,1.6
			c0,0.7,0.2,1.3,0.7,1.6s1.1,0.6,1.8,0.6c0.7,0,1.3-0.2,1.8-0.6C13.3,167,13.5,166.4,13.5,165.7z M13.2,160.6
			c0-0.6-0.2-1.1-0.6-1.5c-0.4-0.4-1-0.6-1.6-0.6c-0.6,0-1.2,0.2-1.6,0.6s-0.6,0.9-0.6,1.6c0,0.6,0.2,1.1,0.6,1.5
			c0.4,0.4,1,0.6,1.6,0.6c0.6,0,1.2-0.2,1.6-0.6C13,161.7,13.2,161.2,13.2,160.6z"/>
		<path d="M22.6,162.3v1.8c0,1.6-0.3,2.7-0.9,3.5c-0.6,0.7-1.4,1.1-2.4,1.1c-1,0-1.8-0.4-2.4-1.1s-0.9-1.9-0.9-3.5v-1.8
			c0-1.6,0.3-2.7,0.9-3.5s1.4-1.1,2.4-1.1c1,0,1.8,0.4,2.4,1.1C22.3,159.6,22.6,160.7,22.6,162.3z M21.7,164.2v-2
			c0-2.5-0.8-3.7-2.4-3.7c-1.6,0-2.4,1.2-2.4,3.7v2c0,1.2,0.2,2.1,0.6,2.8c0.4,0.7,1,1,1.8,1c0.8,0,1.4-0.3,1.8-1
			C21.5,166.3,21.7,165.4,21.7,164.2z"/>
	</g>
</g>
<g>
	<g>
		<path d="M98.7,395.8v0.7H92v-0.7l3.5-4c0.7-0.7,1.1-1.4,1.4-1.8c0.3-0.5,0.4-1,0.4-1.4c0-0.6-0.2-1.2-0.6-1.6
			c-0.4-0.4-0.9-0.6-1.7-0.6c-0.7,0-1.3,0.2-1.8,0.7c-0.4,0.5-0.6,1.1-0.6,1.8h-0.9c0-0.9,0.3-1.6,0.9-2.3c0.6-0.6,1.4-0.9,2.4-0.9
			c1,0,1.7,0.3,2.3,0.8c0.6,0.5,0.8,1.2,0.8,2.1c0,0.6-0.2,1.3-0.6,1.9c-0.4,0.7-0.9,1.3-1.5,1.9l-3,3.4H98.7z"/>
		<path d="M106.8,390.3v1.8c0,1.6-0.3,2.7-0.9,3.5c-0.6,0.7-1.4,1.1-2.4,1.1c-1,0-1.8-0.4-2.4-1.1s-0.9-1.9-0.9-3.5v-1.8
			c0-1.6,0.3-2.7,0.9-3.5s1.4-1.1,2.4-1.1c1,0,1.8,0.4,2.4,1.1C106.5,387.6,106.8,388.7,106.8,390.3z M105.9,392.2v-2
			c0-2.5-0.8-3.7-2.4-3.7c-1.6,0-2.4,1.2-2.4,3.7v2c0,1.2,0.2,2.1,0.6,2.8c0.4,0.7,1,1,1.8,1c0.8,0,1.4-0.3,1.8-1
			C105.7,394.3,105.9,393.4,105.9,392.2z"/>
		<path d="M115.1,390.3v1.8c0,1.6-0.3,2.7-0.9,3.5c-0.6,0.7-1.4,1.1-2.4,1.1c-1,0-1.8-0.4-2.4-1.1s-0.9-1.9-0.9-3.5v-1.8
			c0-1.6,0.3-2.7,0.9-3.5s1.4-1.1,2.4-1.1c1,0,1.8,0.4,2.4,1.1C114.8,387.6,115.1,388.7,115.1,390.3z M114.2,392.2v-2
			c0-2.5-0.8-3.7-2.4-3.7c-1.6,0-2.4,1.2-2.4,3.7v2c0,1.2,0.2,2.1,0.6,2.8c0.4,0.7,1,1,1.8,1c0.8,0,1.4-0.3,1.8-1
			C114,394.3,114.2,393.4,114.2,392.2z"/>
		<path d="M123.5,393.7c0,1-0.3,1.7-1,2.2c-0.7,0.5-1.5,0.8-2.4,0.8c-1,0-1.8-0.3-2.4-0.8c-0.7-0.5-1-1.2-1-2.2
			c0-0.6,0.2-1.2,0.5-1.6c0.4-0.5,0.8-0.8,1.5-1c-0.5-0.2-0.9-0.5-1.3-1s-0.5-0.9-0.5-1.5c0-0.9,0.3-1.6,0.9-2.1s1.3-0.7,2.2-0.7
			s1.6,0.2,2.2,0.7c0.6,0.5,0.9,1.2,0.9,2.1c0,0.6-0.2,1.1-0.5,1.5c-0.3,0.4-0.7,0.7-1.3,1c0.6,0.2,1.1,0.5,1.5,1
			S123.5,393.1,123.5,393.7z M122.7,393.7c0-0.7-0.2-1.2-0.7-1.6c-0.5-0.4-1.1-0.6-1.8-0.6c-0.7,0-1.3,0.2-1.8,0.6s-0.7,1-0.7,1.6
			c0,0.7,0.2,1.3,0.7,1.6s1.1,0.6,1.8,0.6c0.7,0,1.3-0.2,1.8-0.6C122.4,395,122.7,394.4,122.7,393.7z M122.4,388.6
			c0-0.6-0.2-1.1-0.6-1.5c-0.4-0.4-1-0.6-1.6-0.6c-0.6,0-1.2,0.2-1.6,0.6s-0.6,0.9-0.6,1.6c0,0.6,0.2,1.1,0.6,1.5
			c0.4,0.4,1,0.6,1.6,0.6c0.6,0,1.2-0.2,1.6-0.6C122.2,389.8,122.4,389.3,122.4,388.6z"/>
	</g>
</g>
<g>
	<g>
		<path d="M175.1,395.8v0.7h-6.7v-0.7l3.5-4c0.7-0.7,1.1-1.4,1.4-1.8c0.3-0.5,0.4-1,0.4-1.4c0-0.6-0.2-1.2-0.6-1.6
			c-0.4-0.4-0.9-0.6-1.7-0.6c-0.7,0-1.3,0.2-1.8,0.7c-0.4,0.5-0.6,1.1-0.6,1.8h-0.9c0-0.9,0.3-1.6,0.9-2.3c0.6-0.6,1.4-0.9,2.4-0.9
			c1,0,1.7,0.3,2.3,0.8c0.6,0.5,0.8,1.2,0.8,2.1c0,0.6-0.2,1.3-0.6,1.9c-0.4,0.7-0.9,1.3-1.5,1.9l-3,3.4H175.1z"/>
		<path d="M183.1,390.3v1.8c0,1.6-0.3,2.7-0.9,3.5c-0.6,0.7-1.4,1.1-2.4,1.1c-1,0-1.8-0.4-2.4-1.1s-0.9-1.9-0.9-3.5v-1.8
			c0-1.6,0.3-2.7,0.9-3.5s1.4-1.1,2.4-1.1c1,0,1.8,0.4,2.4,1.1C182.8,387.6,183.1,388.7,183.1,390.3z M182.2,392.2v-2
			c0-2.5-0.8-3.7-2.4-3.7c-1.6,0-2.4,1.2-2.4,3.7v2c0,1.2,0.2,2.1,0.6,2.8c0.4,0.7,1,1,1.8,1c0.8,0,1.4-0.3,1.8-1
			C182.1,394.3,182.2,393.4,182.2,392.2z"/>
		<path d="M189.1,385.8v10.7h-0.9v-9.6l-2.9,1.1v-0.8l3.6-1.4H189.1z"/>
		<path d="M197.4,385.8v10.7h-0.9v-9.6l-2.9,1.1v-0.8l3.6-1.4H197.4z"/>
	</g>
</g>
<g>
	<g>
		<path d="M252.1,395.8v0.7h-6.7v-0.7l3.5-4c0.7-0.7,1.1-1.4,1.4-1.8c0.3-0.5,0.4-1,0.4-1.4c0-0.6-0.2-1.2-0.6-1.6
			c-0.4-0.4-0.9-0.6-1.7-0.6c-0.7,0-1.3,0.2-1.8,0.7c-0.4,0.5-0.6,1.1-0.6,1.8h-0.9c0-0.9,0.3-1.6,0.9-2.3c0.6-0.6,1.4-0.9,2.4-0.9
			c1,0,1.7,0.3,2.3,0.8c0.6,0.5,0.8,1.2,0.8,2.1c0,0.6-0.2,1.3-0.6,1.9c-0.4,0.7-0.9,1.3-1.5,1.9l-3,3.4H252.1z"/>
		<path d="M260.1,390.3v1.8c0,1.6-0.3,2.7-0.9,3.5c-0.6,0.7-1.4,1.1-2.4,1.1c-1,0-1.8-0.4-2.4-1.1s-0.9-1.9-0.9-3.5v-1.8
			c0-1.6,0.3-2.7,0.9-3.5s1.4-1.1,2.4-1.1c1,0,1.8,0.4,2.4,1.1C259.8,387.6,260.1,388.7,260.1,390.3z M259.2,392.2v-2
			c0-2.5-0.8-3.7-2.4-3.7c-1.6,0-2.4,1.2-2.4,3.7v2c0,1.2,0.2,2.1,0.6,2.8c0.4,0.7,1,1,1.8,1c0.8,0,1.4-0.3,1.8-1
			C259,394.3,259.2,393.4,259.2,392.2z"/>
		<path d="M266.1,385.8v10.7h-0.9v-9.6l-2.9,1.1v-0.8l3.6-1.4H266.1z"/>
		<path d="M269.8,393.4l4.9-7.5h1v7.2h1.7v0.7h-1.7v2.7h-0.9v-2.7h-5V393.4z M270.9,393.1h3.9V387l-0.4,0.7L270.9,393.1z"/>
	</g>
</g>
<g>
	<g>
		<path d="M329.1,395.8v0.7h-6.7v-0.7l3.5-4c0.7-0.7,1.1-1.4,1.4-1.8c0.3-0.5,0.4-1,0.4-1.4c0-0.6-0.2-1.2-0.6-1.6
			c-0.4-0.4-0.9-0.6-1.7-0.6c-0.7,0-1.3,0.2-1.8,0.7c-0.4,0.5-0.6,1.1-0.6,1.8h-0.9c0-0.9,0.3-1.6,0.9-2.3c0.6-0.6,1.4-0.9,2.4-0.9
			c1,0,1.7,0.3,2.3,0.8c0.6,0.5,0.8,1.2,0.8,2.1c0,0.6-0.2,1.3-0.6,1.9c-0.4,0.7-0.9,1.3-1.5,1.9l-3,3.4H329.1z"/>
		<path d="M337.2,390.3v1.8c0,1.6-0.3,2.7-0.9,3.5c-0.6,0.7-1.4,1.1-2.4,1.1c-1,0-1.8-0.4-2.4-1.1s-0.9-1.9-0.9-3.5v-1.8
			c0-1.6,0.3-2.7,0.9-3.5s1.4-1.1,2.4-1.1c1,0,1.8,0.4,2.4,1.1C336.9,387.6,337.2,388.7,337.2,390.3z M336.3,392.2v-2
			c0-2.5-0.8-3.7-2.4-3.7c-1.6,0-2.4,1.2-2.4,3.7v2c0,1.2,0.2,2.1,0.6,2.8c0.4,0.7,1,1,1.8,1c0.8,0,1.4-0.3,1.8-1
			C336.1,394.3,336.3,393.4,336.3,392.2z"/>
		<path d="M343.1,385.8v10.7h-0.9v-9.6l-2.9,1.1v-0.8l3.6-1.4H343.1z"/>
		<path d="M353.9,385.9v0.5l-4.6,10.2h-0.9l4.5-9.9h-6.1v-0.7H353.9z"/>
	</g>
</g>
<g>
	<g>
		<path d="M406.1,395.8v0.7h-6.7v-0.7l3.5-4c0.7-0.7,1.1-1.4,1.4-1.8c0.3-0.5,0.4-1,0.4-1.4c0-0.6-0.2-1.2-0.6-1.6
			c-0.4-0.4-0.9-0.6-1.7-0.6c-0.7,0-1.3,0.2-1.8,0.7c-0.4,0.5-0.6,1.1-0.6,1.8h-0.9c0-0.9,0.3-1.6,0.9-2.3c0.6-0.6,1.4-0.9,2.4-0.9
			c1,0,1.7,0.3,2.3,0.8c0.6,0.5,0.8,1.2,0.8,2.1c0,0.6-0.2,1.3-0.6,1.9c-0.4,0.7-0.9,1.3-1.5,1.9l-3,3.4H406.1z"/>
		<path d="M414.2,390.3v1.8c0,1.6-0.3,2.7-0.9,3.5c-0.6,0.7-1.4,1.1-2.4,1.1c-1,0-1.8-0.4-2.4-1.1s-0.9-1.9-0.9-3.5v-1.8
			c0-1.6,0.3-2.7,0.9-3.5s1.4-1.1,2.4-1.1c1,0,1.8,0.4,2.4,1.1C413.9,387.6,414.2,388.7,414.2,390.3z M413.3,392.2v-2
			c0-2.5-0.8-3.7-2.4-3.7c-1.6,0-2.4,1.2-2.4,3.7v2c0,1.2,0.2,2.1,0.6,2.8c0.4,0.7,1,1,1.8,1c0.8,0,1.4-0.3,1.8-1
			C413.1,394.3,413.3,393.4,413.3,392.2z"/>
		<path d="M422.7,395.8v0.7h-6.7v-0.7l3.5-4c0.7-0.7,1.1-1.4,1.4-1.8c0.3-0.5,0.4-1,0.4-1.4c0-0.6-0.2-1.2-0.6-1.6
			c-0.4-0.4-0.9-0.6-1.7-0.6c-0.7,0-1.3,0.2-1.8,0.7c-0.4,0.5-0.6,1.1-0.6,1.8h-0.9c0-0.9,0.3-1.6,0.9-2.3c0.6-0.6,1.4-0.9,2.4-0.9
			c1,0,1.7,0.3,2.3,0.8c0.6,0.5,0.8,1.2,0.8,2.1c0,0.6-0.2,1.3-0.6,1.9c-0.4,0.7-0.9,1.3-1.5,1.9l-3,3.4H422.7z"/>
		<path d="M430.8,390.3v1.8c0,1.6-0.3,2.7-0.9,3.5c-0.6,0.7-1.4,1.1-2.4,1.1c-1,0-1.8-0.4-2.4-1.1s-0.9-1.9-0.9-3.5v-1.8
			c0-1.6,0.3-2.7,0.9-3.5s1.4-1.1,2.4-1.1c1,0,1.8,0.4,2.4,1.1C430.5,387.6,430.8,388.7,430.8,390.3z M429.9,392.2v-2
			c0-2.5-0.8-3.7-2.4-3.7c-1.6,0-2.4,1.2-2.4,3.7v2c0,1.2,0.2,2.1,0.6,2.8c0.4,0.7,1,1,1.8,1c0.8,0,1.4-0.3,1.8-1
			C429.7,394.3,429.9,393.4,429.9,392.2z"/>
	</g>
</g>
<g>
	<g>
		<path d="M483.1,395.8v0.7h-6.7v-0.7l3.5-4c0.7-0.7,1.1-1.4,1.4-1.8c0.3-0.5,0.4-1,0.4-1.4c0-0.6-0.2-1.2-0.6-1.6
			c-0.4-0.4-0.9-0.6-1.7-0.6c-0.7,0-1.3,0.2-1.8,0.7c-0.4,0.5-0.6,1.1-0.6,1.8h-0.9c0-0.9,0.3-1.6,0.9-2.3c0.6-0.6,1.4-0.9,2.4-0.9
			c1,0,1.7,0.3,2.3,0.8c0.6,0.5,0.8,1.2,0.8,2.1c0,0.6-0.2,1.3-0.6,1.9c-0.4,0.7-0.9,1.3-1.5,1.9l-3,3.4H483.1z"/>
		<path d="M491.2,390.3v1.8c0,1.6-0.3,2.7-0.9,3.5c-0.6,0.7-1.4,1.1-2.4,1.1c-1,0-1.8-0.4-2.4-1.1s-0.9-1.9-0.9-3.5v-1.8
			c0-1.6,0.3-2.7,0.9-3.5s1.4-1.1,2.4-1.1c1,0,1.8,0.4,2.4,1.1C490.9,387.6,491.2,388.7,491.2,390.3z M490.3,392.2v-2
			c0-2.5-0.8-3.7-2.4-3.7c-1.6,0-2.4,1.2-2.4,3.7v2c0,1.2,0.2,2.1,0.6,2.8c0.4,0.7,1,1,1.8,1c0.8,0,1.4-0.3,1.8-1
			C490.1,394.3,490.3,393.4,490.3,392.2z"/>
		<path d="M499.8,395.8v0.7h-6.7v-0.7l3.5-4c0.7-0.7,1.1-1.4,1.4-1.8c0.3-0.5,0.4-1,0.4-1.4c0-0.6-0.2-1.2-0.6-1.6
			c-0.4-0.4-0.9-0.6-1.7-0.6c-0.7,0-1.3,0.2-1.8,0.7c-0.4,0.5-0.6,1.1-0.6,1.8h-0.9c0-0.9,0.3-1.6,0.9-2.3c0.6-0.6,1.4-0.9,2.4-0.9
			c1,0,1.7,0.3,2.3,0.8c0.6,0.5,0.8,1.2,0.8,2.1c0,0.6-0.2,1.3-0.6,1.9c-0.4,0.7-0.9,1.3-1.5,1.9l-3,3.4H499.8z"/>
		<path d="M504.3,391.5h-0.9v-0.8h0.9c0.8,0,1.4-0.2,1.9-0.6c0.4-0.4,0.6-0.9,0.6-1.5c0-0.6-0.2-1.2-0.5-1.6
			c-0.4-0.4-0.9-0.6-1.7-0.6c-0.7,0-1.2,0.2-1.7,0.6c-0.4,0.4-0.7,0.9-0.7,1.6h-0.9c0-0.9,0.3-1.6,0.9-2.1c0.6-0.5,1.4-0.8,2.3-0.8
			c0.9,0,1.7,0.3,2.3,0.8c0.6,0.5,0.9,1.2,0.9,2.2c0,0.5-0.2,0.9-0.5,1.4c-0.3,0.4-0.8,0.8-1.4,1c0.7,0.2,1.2,0.5,1.5,1
			c0.3,0.5,0.5,1,0.5,1.6c0,1-0.3,1.7-0.9,2.3c-0.6,0.5-1.4,0.8-2.3,0.8c-0.6,0-1.1-0.1-1.6-0.3c-0.5-0.2-0.9-0.6-1.3-1
			c-0.3-0.4-0.5-1-0.5-1.7h0.9c0,0.7,0.2,1.2,0.7,1.7c0.5,0.4,1.1,0.6,1.8,0.6c0.8,0,1.3-0.2,1.8-0.6c0.4-0.4,0.6-1,0.6-1.7
			c0-0.8-0.2-1.3-0.7-1.7C505.7,391.7,505.1,391.5,504.3,391.5z"/>
	</g>
</g>
<path class="st14" d="M235.4,367.3V85.9h102.7v281.4H235.4z"/>
<path class="st14" d="M434.9,367.3V85.9h57.2v281.4H434.9z"/>
<path class="st14" d="M122.8,367.3V85.9h29.9v281.4H122.8z"/>
<g id="xtick_2_00000145032562766075952990000015827554109846687874_">
	<g id="line2d_4_00000017479977784107374470000001321772009458510243_">
		<g>
			<g>
				<path id="mc95f9bb590_00000154412962119844420350000013979667973727339136_" class="st15" d="M107.7,372.3v4"/>
			</g>
		</g>
	</g>
</g>
<g id="xtick_3_00000087375467608917440890000001899206607414902927_">
	<g id="line2d_6_00000093864356655000118950000009623314951459358353_">
		<g>
			<g>
				<path id="mc95f9bb590_00000071527420561922045440000007504051573510014616_" class="st15" d="M184,372.3v4"/>
			</g>
		</g>
	</g>
</g>
<g id="xtick_4_00000022525912354758110830000014503597252419772095_">
	<g id="line2d_8_00000119810291601545280390000014785532237570437787_">
		<g>
			<g>
				<path id="mc95f9bb590_00000132065373572574894750000003348401375707061127_" class="st15" d="M261.1,372.3v4"/>
			</g>
		</g>
	</g>
</g>
<g id="xtick_5_00000168836904822411397740000016684592120059871117_">
	<g id="line2d_10_00000169531948050831496770000001821081171494952118_">
		<g>
			<g>
				<path id="mc95f9bb590_00000041997146747062485270000006146999963066526636_" class="st15" d="M338.1,372.3v4"/>
			</g>
		</g>
	</g>
</g>
<g id="xtick_6_00000008145159283079869070000015133802730557383593_">
	<g id="line2d_12_00000135664410738091623730000013630974744616726964_">
		<g>
			<g>
				<path id="mc95f9bb590_00000030464226614708502090000018267294558034733210_" class="st15" d="M415.1,372.3v4"/>
			</g>
		</g>
	</g>
</g>
<g id="xtick_7_00000151511780913143017770000018007986233898413961_">
	<g id="line2d_14_00000000180932931862279970000012502331030103455131_">
		<g>
			<g>
				<path id="mc95f9bb590_00000093156905408117377360000017007935692659442065_" class="st15" d="M492.1,372.3v4"/>
			</g>
		</g>
	</g>
</g>
<g id="ytick_1_00000150061596817478708370000000846912373605147275_">
	<g id="line2d_16_00000076604068654971533860000010795021499946525094_">
		<g>
			<g>
				<path id="m1ddfdf4c06_00000150077929064397248190000006493028409443718287_" class="st15" d="M32.5,317.1h-3.3"/>
			</g>
		</g>
	</g>
</g>
<g id="ytick_2_00000124143961280439584270000018110264529876928906_">
	<g id="line2d_18_00000161608841761344029890000002488313433420082876_">
		<g>
			<g>
				<path id="m1ddfdf4c06_00000125594159420561766010000009739950918497620153_" class="st15" d="M32.5,263.3h-3.3"/>
			</g>
		</g>
	</g>
</g>
<g id="ytick_3_00000049220515494979172900000000509141675846932919_">
	<g id="line2d_20_00000044894704758992769620000008039607395436419252_">
		<g>
			<g>
				<path id="m1ddfdf4c06_00000111188803765063252760000005471592032883833765_" class="st15" d="M32.5,214.8h-3.3"/>
			</g>
		</g>
	</g>
</g>
<g id="ytick_4_00000174580522599513725370000016113371917309359025_">
	<g id="line2d_22_00000023981148424815569000000002935174119724674964_">
		<g>
			<g>
				<path id="m1ddfdf4c06_00000168096169670715488600000010318279090093894281_" class="st15" d="M32.5,164.1h-3.3"/>
			</g>
		</g>
	</g>
</g>
<g>
	<g>
		<path d="M3.6,107.1v10.7H2.7v-9.6l-2.9,1.1v-0.8l3.6-1.4H3.6z"/>
		<path d="M14.3,111.6v1.8c0,1.6-0.3,2.7-0.9,3.5c-0.6,0.7-1.4,1.1-2.4,1.1c-1,0-1.8-0.4-2.4-1.1s-0.9-1.9-0.9-3.5v-1.8
			c0-1.6,0.3-2.7,0.9-3.5S10,107,11,107c1,0,1.8,0.4,2.4,1.1C14,108.9,14.3,110,14.3,111.6z M13.4,113.5v-2c0-2.5-0.8-3.7-2.4-3.7
			c-1.6,0-2.4,1.2-2.4,3.7v2c0,1.2,0.2,2.1,0.6,2.8c0.4,0.7,1,1,1.8,1c0.8,0,1.4-0.3,1.8-1C13.2,115.6,13.4,114.7,13.4,113.5z"/>
		<path d="M22.6,111.6v1.8c0,1.6-0.3,2.7-0.9,3.5c-0.6,0.7-1.4,1.1-2.4,1.1c-1,0-1.8-0.4-2.4-1.1S16,115,16,113.4v-1.8
			c0-1.6,0.3-2.7,0.9-3.5s1.4-1.1,2.4-1.1c1,0,1.8,0.4,2.4,1.1C22.3,108.9,22.6,110,22.6,111.6z M21.7,113.5v-2
			c0-2.5-0.8-3.7-2.4-3.7c-1.6,0-2.4,1.2-2.4,3.7v2c0,1.2,0.2,2.1,0.6,2.8c0.4,0.7,1,1,1.8,1c0.8,0,1.4-0.3,1.8-1
			C21.5,115.6,21.7,114.7,21.7,113.5z"/>
	</g>
</g>
<g id="ytick_4_00000165211332008675311490000002849888101321755050_">
	<g id="line2d_22_00000024683675384114620230000001336379809449508264_">
		<g>
			<g>
				<path id="m1ddfdf4c06_00000157310632712744555470000014842222504826584752_" class="st15" d="M32.5,113.5h-3.3"/>
			</g>
		</g>
	</g>
</g>
<g>
	<rect x="125.6" y="98.6" class="st16" width="101.5" height="56.7"/>
	<path d="M133.7,108.1v1.7h-7.3v-1.5l3.4-3.7c0.5-0.6,0.9-1.1,1.1-1.4c0.2-0.4,0.3-0.7,0.3-1c0-0.5-0.1-0.8-0.4-1.1
		c-0.2-0.3-0.6-0.4-1-0.4c-0.5,0-0.9,0.2-1.2,0.5c-0.3,0.3-0.4,0.8-0.4,1.3h-2.1c0-1,0.3-1.8,1-2.5c0.7-0.7,1.6-1,2.7-1
		c1.1,0,2,0.3,2.6,0.8c0.6,0.5,0.9,1.3,0.9,2.2c0,0.7-0.2,1.4-0.6,2c-0.4,0.6-1,1.3-1.7,2.1l-1.9,2H133.7z"/>
	<path d="M142.1,103.5v1.9c0,1.6-0.3,2.8-1,3.5s-1.5,1.1-2.6,1.1c-1.1,0-1.9-0.4-2.6-1.1c-0.7-0.7-1-1.9-1-3.5v-1.9
		c0-1.6,0.3-2.8,1-3.5c0.7-0.7,1.5-1.1,2.6-1.1s1.9,0.4,2.6,1.1S142.1,101.9,142.1,103.5z M140,105.7v-2.4c0-0.9-0.1-1.6-0.4-2
		c-0.3-0.4-0.6-0.6-1.1-0.6c-0.5,0-0.8,0.2-1.1,0.6c-0.3,0.4-0.4,1-0.4,2v2.4c0,1,0.1,1.6,0.4,2c0.3,0.4,0.6,0.6,1.1,0.6
		c0.5,0,0.8-0.2,1.1-0.6C139.9,107.3,140,106.6,140,105.7z"/>
	<path d="M150.8,103.5v1.9c0,1.6-0.3,2.8-1,3.5s-1.5,1.1-2.6,1.1c-1.1,0-1.9-0.4-2.6-1.1c-0.7-0.7-1-1.9-1-3.5v-1.9
		c0-1.6,0.3-2.8,1-3.5c0.7-0.7,1.5-1.1,2.6-1.1s1.9,0.4,2.6,1.1S150.8,101.9,150.8,103.5z M148.6,105.7v-2.4c0-0.9-0.1-1.6-0.4-2
		c-0.3-0.4-0.6-0.6-1.1-0.6c-0.5,0-0.8,0.2-1.1,0.6c-0.3,0.4-0.4,1-0.4,2v2.4c0,1,0.1,1.6,0.4,2c0.3,0.4,0.6,0.6,1.1,0.6
		c0.5,0,0.8-0.2,1.1-0.6C148.5,107.3,148.6,106.6,148.6,105.7z"/>
	<path d="M159.4,106.9c0,1-0.3,1.8-1,2.3c-0.7,0.5-1.5,0.8-2.6,0.8s-1.9-0.3-2.6-0.8c-0.7-0.5-1-1.3-1-2.3c0-0.6,0.2-1.1,0.5-1.5
		c0.3-0.4,0.7-0.8,1.2-1c-0.4-0.2-0.8-0.6-1.1-1c-0.3-0.4-0.4-0.9-0.4-1.4c0-1,0.3-1.7,1-2.2s1.4-0.8,2.4-0.8c1,0,1.8,0.3,2.4,0.8
		c0.6,0.5,0.9,1.3,0.9,2.2c0,0.5-0.1,1-0.4,1.4c-0.3,0.4-0.6,0.7-1.1,1c0.5,0.2,0.9,0.6,1.2,1S159.4,106.3,159.4,106.9z
		 M157.2,106.7c0-0.5-0.1-0.9-0.4-1.1c-0.3-0.3-0.6-0.4-1.1-0.4s-0.8,0.1-1.1,0.4c-0.3,0.3-0.4,0.6-0.4,1.1c0,0.5,0.1,0.8,0.4,1.1
		c0.3,0.3,0.6,0.4,1.1,0.4c0.4,0,0.8-0.1,1.1-0.4C157.1,107.6,157.2,107.2,157.2,106.7z M157,102.1c0-0.4-0.1-0.7-0.3-1
		c-0.2-0.3-0.5-0.4-0.9-0.4c-0.4,0-0.7,0.1-0.9,0.4c-0.2,0.2-0.3,0.6-0.3,1c0,0.4,0.1,0.8,0.3,1c0.2,0.3,0.5,0.4,0.9,0.4
		s0.7-0.1,0.9-0.4C156.9,102.8,157,102.5,157,102.1z"/>
	<path d="M168.8,103.7v1.7h-7.6v-1.7H168.8z"/>
	<path d="M177.6,108.1v1.7h-7.3v-1.5l3.4-3.7c0.5-0.6,0.9-1.1,1.1-1.4c0.2-0.4,0.3-0.7,0.3-1c0-0.5-0.1-0.8-0.4-1.1
		c-0.2-0.3-0.6-0.4-1-0.4c-0.5,0-0.9,0.2-1.2,0.5c-0.3,0.3-0.4,0.8-0.4,1.3h-2.1c0-1,0.3-1.8,1-2.5c0.7-0.7,1.6-1,2.7-1
		c1.1,0,2,0.3,2.6,0.8c0.6,0.5,0.9,1.3,0.9,2.2c0,0.7-0.2,1.4-0.6,2c-0.4,0.6-1,1.3-1.7,2.1l-1.9,2H177.6z"/>
	<path d="M186,103.5v1.9c0,1.6-0.3,2.8-1,3.5s-1.5,1.1-2.6,1.1c-1.1,0-1.9-0.4-2.6-1.1c-0.7-0.7-1-1.9-1-3.5v-1.9
		c0-1.6,0.3-2.8,1-3.5c0.7-0.7,1.5-1.1,2.6-1.1s1.9,0.4,2.6,1.1S186,101.9,186,103.5z M183.9,105.7v-2.4c0-0.9-0.1-1.6-0.4-2
		c-0.3-0.4-0.6-0.6-1.1-0.6c-0.5,0-0.8,0.2-1.1,0.6c-0.3,0.4-0.4,1-0.4,2v2.4c0,1,0.1,1.6,0.4,2c0.3,0.4,0.6,0.6,1.1,0.6
		c0.5,0,0.8-0.2,1.1-0.6C183.8,107.3,183.9,106.6,183.9,105.7z"/>
	<path d="M194.7,103.5v1.9c0,1.6-0.3,2.8-1,3.5s-1.5,1.1-2.6,1.1c-1.1,0-1.9-0.4-2.6-1.1c-0.7-0.7-1-1.9-1-3.5v-1.9
		c0-1.6,0.3-2.8,1-3.5c0.7-0.7,1.5-1.1,2.6-1.1s1.9,0.4,2.6,1.1S194.7,101.9,194.7,103.5z M192.5,105.7v-2.4c0-0.9-0.1-1.6-0.4-2
		c-0.3-0.4-0.6-0.6-1.1-0.6c-0.5,0-0.8,0.2-1.1,0.6c-0.3,0.4-0.4,1-0.4,2v2.4c0,1,0.1,1.6,0.4,2c0.3,0.4,0.6,0.6,1.1,0.6
		c0.5,0,0.8-0.2,1.1-0.6C192.4,107.3,192.5,106.6,192.5,105.7z"/>
	<path d="M203.2,104.1c0,1.7-0.5,3.2-1.4,4.2c-0.9,1.1-2.3,1.6-4.1,1.6h-0.2v-1.8h0.1c1.1,0,1.9-0.2,2.4-0.7
		c0.5-0.4,0.8-1.1,0.9-1.9c-0.3,0.2-0.5,0.4-0.9,0.6c-0.3,0.2-0.7,0.2-1.1,0.2c-1,0-1.8-0.3-2.3-1c-0.5-0.7-0.8-1.5-0.8-2.6
		c0-1,0.3-1.9,1-2.7c0.6-0.7,1.5-1.1,2.6-1.1c1.1,0,2,0.4,2.6,1.2c0.7,0.8,1,1.9,1,3.2V104.1z M198.1,102.7c0,0.5,0.1,1,0.4,1.4
		s0.6,0.6,1.1,0.6c0.3,0,0.6-0.1,0.9-0.3s0.4-0.4,0.6-0.6V103c0-0.8-0.1-1.3-0.4-1.7c-0.3-0.4-0.6-0.6-1.1-0.6
		c-0.5,0-0.8,0.2-1.1,0.6C198.2,101.7,198.1,102.2,198.1,102.7z"/>
	<path d="M134,129.8v-5.1h-6.1v5.1H127v-10.7h0.9v4.8h6.1v-4.8h0.9v10.7H134z"/>
	<path d="M136.9,126v-0.2c0-1.2,0.3-2.1,1-2.9c0.6-0.8,1.5-1.1,2.6-1.1c1.1,0,1.9,0.4,2.6,1.1c0.6,0.8,1,1.7,1,2.9v0.2
		c0,1.2-0.3,2.1-1,2.9c-0.6,0.8-1.5,1.1-2.6,1.1c-1.1,0-1.9-0.4-2.6-1.1S136.9,127.1,136.9,126z M137.8,125.7v0.2
		c0,0.9,0.2,1.6,0.7,2.3c0.5,0.6,1.1,1,2,1c0.9,0,1.5-0.3,2-1c0.5-0.6,0.7-1.4,0.7-2.3v-0.2c0-0.9-0.2-1.6-0.7-2.3s-1.1-1-2-1
		c-0.9,0-1.5,0.3-2,1C138,124.1,137.8,124.9,137.8,125.7z"/>
	<path d="M150.6,127.8c0-0.3-0.1-0.6-0.4-0.9c-0.3-0.3-0.8-0.5-1.7-0.7s-1.6-0.4-2-0.8s-0.7-0.8-0.7-1.5c0-0.6,0.2-1.1,0.8-1.5
		c0.5-0.4,1.2-0.6,2-0.6c0.9,0,1.6,0.2,2.2,0.7c0.5,0.4,0.8,1,0.8,1.7h-0.9c0-0.4-0.2-0.8-0.5-1.1s-0.9-0.5-1.5-0.5
		c-0.7,0-1.2,0.1-1.5,0.4s-0.4,0.6-0.4,0.9c0,0.4,0.1,0.6,0.4,0.9c0.3,0.2,0.8,0.5,1.7,0.7c1,0.2,1.7,0.5,2.1,0.9
		c0.4,0.4,0.7,0.8,0.7,1.5c0,0.7-0.3,1.2-0.8,1.6c-0.5,0.4-1.2,0.6-2.1,0.6c-1,0-1.8-0.2-2.3-0.7c-0.5-0.5-0.8-1-0.8-1.7h0.9
		c0,0.6,0.3,1.1,0.8,1.3s1,0.3,1.5,0.3c0.7,0,1.2-0.1,1.5-0.4C150.4,128.5,150.6,128.2,150.6,127.8z"/>
	<path d="M156.8,129.9c-0.6,0-1-0.1-1.5-0.3c-0.4-0.2-0.8-0.5-1-0.8v4.1h-0.9v-11h0.8l0,1.1c0.3-0.4,0.6-0.7,1-0.9
		c0.4-0.2,0.9-0.3,1.5-0.3c1,0,1.7,0.4,2.2,1.1c0.5,0.7,0.8,1.7,0.8,2.9v0.2c0,1.2-0.3,2.1-0.8,2.9
		C158.5,129.6,157.7,129.9,156.8,129.9z M156.5,122.5c-0.6,0-1.1,0.2-1.5,0.5s-0.6,0.7-0.8,1.1v3.8c0.2,0.4,0.5,0.7,0.8,1
		s0.9,0.4,1.4,0.4c0.8,0,1.4-0.3,1.8-0.9c0.4-0.6,0.6-1.4,0.6-2.3v-0.2c0-0.9-0.2-1.7-0.6-2.3C157.9,122.8,157.4,122.5,156.5,122.5z
		"/>
	<path d="M161.2,126v-0.2c0-1.2,0.3-2.1,1-2.9c0.6-0.8,1.5-1.1,2.6-1.1c1.1,0,1.9,0.4,2.6,1.1c0.6,0.8,1,1.7,1,2.9v0.2
		c0,1.2-0.3,2.1-1,2.9c-0.6,0.8-1.5,1.1-2.6,1.1c-1.1,0-1.9-0.4-2.6-1.1S161.2,127.1,161.2,126z M162.1,125.7v0.2
		c0,0.9,0.2,1.6,0.7,2.3c0.5,0.6,1.1,1,2,1c0.9,0,1.5-0.3,2-1c0.5-0.6,0.7-1.4,0.7-2.3v-0.2c0-0.9-0.2-1.6-0.7-2.3s-1.1-1-2-1
		c-0.9,0-1.5,0.3-2,1C162.4,124.1,162.1,124.9,162.1,125.7z"/>
	<path d="M175.3,129.8l0-1.1c-0.3,0.4-0.6,0.7-1,0.9s-0.9,0.3-1.5,0.3c-0.9,0-1.7-0.4-2.2-1.1c-0.5-0.8-0.8-1.7-0.8-2.9v-0.2
		c0-1.2,0.3-2.2,0.8-2.9c0.5-0.7,1.3-1.1,2.2-1.1c0.6,0,1,0.1,1.4,0.3c0.4,0.2,0.7,0.5,1,0.9v-4.4h0.9v11.2H175.3z M170.7,125.9
		c0,0.9,0.2,1.7,0.6,2.3c0.4,0.6,1,0.9,1.8,0.9c0.6,0,1.1-0.1,1.4-0.4c0.4-0.3,0.7-0.6,0.8-1V124c-0.2-0.4-0.4-0.8-0.8-1.1
		s-0.9-0.5-1.5-0.5c-0.8,0-1.4,0.3-1.8,0.9c-0.4,0.6-0.6,1.4-0.6,2.3V125.9z"/>
	<path d="M183.5,129.8c0-0.1-0.1-0.3-0.1-0.5s0-0.4-0.1-0.6c-0.3,0.3-0.6,0.6-1.1,0.9s-1,0.4-1.6,0.4c-0.8,0-1.4-0.2-1.9-0.6
		s-0.7-1-0.7-1.6c0-0.8,0.3-1.4,1-1.8s1.5-0.7,2.6-0.7h1.6v-0.9c0-0.6-0.2-1-0.5-1.3s-0.9-0.5-1.5-0.5c-0.6,0-1.1,0.2-1.5,0.5
		s-0.6,0.7-0.6,1.1l-0.9,0c0-0.6,0.3-1.1,0.8-1.6c0.6-0.5,1.3-0.7,2.2-0.7c0.8,0,1.5,0.2,2.1,0.6c0.5,0.4,0.8,1.1,0.8,1.9v3.8
		c0,0.3,0,0.6,0.1,0.9c0,0.3,0.1,0.5,0.2,0.7v0.1H183.5z M180.7,129.2c0.6,0,1.2-0.2,1.6-0.5c0.4-0.3,0.8-0.7,1-1.1v-1.8h-1.5
		c-0.9,0-1.6,0.2-2.1,0.5s-0.8,0.7-0.8,1.3c0,0.4,0.2,0.8,0.5,1.1C179.7,129,180.2,129.2,180.7,129.2z M181,120.6l1.4-2h1.1l-1.7,2
		H181z"/>
	<path d="M187.1,118.7l1.3,1.4l1.3-1.4h0.8v0.1l-1.7,1.9H188l-1.7-1.9v-0.1H187.1z M189.6,122.6c-0.6,0-1.1,0.2-1.4,0.5
		c-0.4,0.3-0.6,0.8-0.8,1.3v5.5h-0.9v-7.9h0.9l0,1.2c0.2-0.4,0.5-0.8,0.9-1c0.4-0.2,0.8-0.4,1.4-0.4c0.2,0,0.4,0,0.6,0.1l0,0.8
		c-0.1,0-0.2,0-0.3,0C189.8,122.6,189.7,122.6,189.6,122.6z"/>
	<path d="M196.3,127.8c0-0.3-0.1-0.6-0.4-0.9c-0.3-0.3-0.8-0.5-1.7-0.7s-1.6-0.4-2-0.8s-0.7-0.8-0.7-1.5c0-0.6,0.2-1.1,0.8-1.5
		c0.5-0.4,1.2-0.6,2-0.6c0.9,0,1.6,0.2,2.2,0.7c0.5,0.4,0.8,1,0.8,1.7h-0.9c0-0.4-0.2-0.8-0.5-1.1s-0.9-0.5-1.5-0.5
		c-0.7,0-1.2,0.1-1.5,0.4s-0.4,0.6-0.4,0.9c0,0.4,0.1,0.6,0.4,0.9c0.3,0.2,0.8,0.5,1.7,0.7c1,0.2,1.7,0.5,2.1,0.9
		c0.4,0.4,0.7,0.8,0.7,1.5c0,0.7-0.3,1.2-0.8,1.6c-0.5,0.4-1.2,0.6-2.1,0.6c-1,0-1.8-0.2-2.3-0.7c-0.5-0.5-0.8-1-0.8-1.7h0.9
		c0,0.6,0.3,1.1,0.8,1.3s1,0.3,1.5,0.3c0.7,0,1.2-0.1,1.5-0.4C196.1,128.5,196.3,128.2,196.3,127.8z"/>
	<path d="M204.3,129.8l-3.2-4l-1,1v3h-0.9v-11.2h0.9v7.2l0.8-0.9l3-3h1.1l-3.4,3.3l3.7,4.6H204.3z"/>
	<path d="M211.5,129.8c0-0.1-0.1-0.3-0.1-0.5s0-0.4-0.1-0.6c-0.3,0.3-0.6,0.6-1.1,0.9s-1,0.4-1.6,0.4c-0.8,0-1.4-0.2-1.9-0.6
		s-0.7-1-0.7-1.6c0-0.8,0.3-1.4,1-1.8s1.5-0.7,2.6-0.7h1.6v-0.9c0-0.6-0.2-1-0.5-1.3s-0.9-0.5-1.5-0.5c-0.6,0-1.1,0.2-1.5,0.5
		s-0.6,0.7-0.6,1.1l-0.9,0c0-0.6,0.3-1.1,0.8-1.6c0.6-0.5,1.3-0.7,2.2-0.7c0.8,0,1.5,0.2,2.1,0.6c0.5,0.4,0.8,1.1,0.8,1.9v3.8
		c0,0.3,0,0.6,0.1,0.9c0,0.3,0.1,0.5,0.2,0.7v0.1H211.5z M208.8,129.2c0.6,0,1.2-0.2,1.6-0.5c0.4-0.3,0.8-0.7,1-1.1v-1.8h-1.5
		c-0.9,0-1.6,0.2-2.1,0.5s-0.8,0.7-0.8,1.3c0,0.4,0.2,0.8,0.5,1.1C207.8,129,208.2,129.2,208.8,129.2z M209.1,120.6l1.4-2h1.1
		l-1.7,2H209.1z"/>
	<path d="M131.9,147.8l-3.2-4l-1,1v3h-0.9v-11.2h0.9v7.2l0.8-0.9l3-3h1.1l-3.4,3.3l3.7,4.6H131.9z"/>
	<path d="M137.2,140.6c-0.6,0-1.1,0.2-1.4,0.5c-0.4,0.3-0.6,0.8-0.8,1.3v5.5h-0.9v-7.9h0.9l0,1.2c0.2-0.4,0.5-0.8,0.9-1
		c0.4-0.2,0.8-0.4,1.4-0.4c0.2,0,0.4,0,0.6,0.1l0,0.8c-0.1,0-0.2,0-0.3,0C137.4,140.6,137.3,140.6,137.2,140.6z"/>
	<path d="M139.1,137.6c0-0.4,0.2-0.6,0.6-0.6c0.4,0,0.6,0.2,0.6,0.6c0,0.4-0.2,0.6-0.6,0.6C139.3,138.2,139.1,138,139.1,137.6z
		 M140.2,139.9v7.9h-0.9v-7.9H140.2z"/>
	<path d="M142.2,140.6v-0.8h5.8v0.6l-4.8,6.5h5.1v0.7h-6.2v-0.7l4.8-6.5H142.2z"/>
	<path d="M155.6,146.5c-0.3,0.4-0.6,0.7-1.1,1c-0.5,0.3-1,0.4-1.7,0.4c-1,0-1.9-0.4-2.5-1.1s-1-1.7-1-2.8v-0.3c0-1.2,0.3-2.2,1-2.9
		c0.7-0.7,1.5-1.1,2.4-1.1c1,0,1.8,0.3,2.3,1c0.5,0.7,0.8,1.5,0.8,2.6v0.5h-5.7v0.2c0,0.9,0.2,1.6,0.8,2.2c0.5,0.6,1.2,0.9,2,0.9
		c0.9,0,1.7-0.4,2.2-1.1L155.6,146.5z M152.7,140.5c-0.7,0-1.2,0.2-1.7,0.7c-0.4,0.5-0.7,1.1-0.8,1.9h4.7V143c0-0.7-0.2-1.3-0.6-1.8
		C154,140.7,153.4,140.5,152.7,140.5z"/>
</g>
<g>
	<rect x="238.1" y="98.6" class="st16" width="162.7" height="62.1"/>
	<path d="M246.2,108.1v1.7h-7.3v-1.5l3.4-3.7c0.5-0.6,0.9-1.1,1.1-1.4c0.2-0.4,0.3-0.7,0.3-1c0-0.5-0.1-0.8-0.4-1.1
		c-0.2-0.3-0.6-0.4-1-0.4c-0.5,0-0.9,0.2-1.2,0.5c-0.3,0.3-0.4,0.8-0.4,1.3h-2.1c0-1,0.3-1.8,1-2.5c0.7-0.7,1.6-1,2.7-1
		c1.1,0,2,0.3,2.6,0.8c0.6,0.5,0.9,1.3,0.9,2.2c0,0.7-0.2,1.4-0.6,2c-0.4,0.6-1,1.3-1.7,2.1l-1.9,2H246.2z"/>
	<path d="M254.7,103.5v1.9c0,1.6-0.3,2.8-1,3.5s-1.5,1.1-2.6,1.1c-1.1,0-1.9-0.4-2.6-1.1c-0.7-0.7-1-1.9-1-3.5v-1.9
		c0-1.6,0.3-2.8,1-3.5c0.7-0.7,1.5-1.1,2.6-1.1s1.9,0.4,2.6,1.1S254.7,101.9,254.7,103.5z M252.5,105.7v-2.4c0-0.9-0.1-1.6-0.4-2
		c-0.3-0.4-0.6-0.6-1.1-0.6c-0.5,0-0.8,0.2-1.1,0.6c-0.3,0.4-0.4,1-0.4,2v2.4c0,1,0.1,1.6,0.4,2c0.3,0.4,0.6,0.6,1.1,0.6
		c0.5,0,0.8-0.2,1.1-0.6C252.4,107.3,252.5,106.6,252.5,105.7z"/>
	<path d="M261.2,99.1v10.7h-2.1v-8.2l-2.5,0.8v-1.7l4.4-1.6H261.2z"/>
	<path d="M268,105.2h-1.1v-1.7h1.1c0.5,0,0.9-0.1,1.2-0.4c0.3-0.3,0.4-0.6,0.4-1.1c0-0.4-0.1-0.7-0.4-1c-0.2-0.3-0.6-0.4-1.1-0.4
		c-0.4,0-0.7,0.1-1,0.3c-0.3,0.2-0.4,0.5-0.4,0.9h-2.1c0-0.9,0.3-1.6,1-2.1c0.7-0.5,1.5-0.8,2.5-0.8c1.1,0,2,0.3,2.6,0.8
		c0.7,0.5,1,1.3,1,2.3c0,0.5-0.1,0.9-0.4,1.3c-0.3,0.4-0.7,0.7-1.2,1c0.6,0.2,1,0.5,1.3,1c0.3,0.4,0.4,0.9,0.4,1.5
		c0,1-0.4,1.8-1.1,2.3c-0.7,0.5-1.6,0.8-2.7,0.8c-0.6,0-1.2-0.1-1.7-0.3c-0.6-0.2-1-0.6-1.4-1c-0.4-0.5-0.5-1-0.5-1.7h2.1
		c0,0.4,0.1,0.7,0.4,1c0.3,0.3,0.7,0.4,1.1,0.4c0.5,0,0.9-0.1,1.2-0.4s0.4-0.6,0.4-1.1c0-0.6-0.2-1-0.5-1.2S268.5,105.2,268,105.2z"
		/>
	<path d="M281.3,103.7v1.7h-7.6v-1.7H281.3z"/>
	<path d="M290.1,108.1v1.7h-7.3v-1.5l3.4-3.7c0.5-0.6,0.9-1.1,1.1-1.4c0.2-0.4,0.3-0.7,0.3-1c0-0.5-0.1-0.8-0.4-1.1
		c-0.2-0.3-0.6-0.4-1-0.4c-0.5,0-0.9,0.2-1.2,0.5c-0.3,0.3-0.4,0.8-0.4,1.3h-2.1c0-1,0.3-1.8,1-2.5c0.7-0.7,1.6-1,2.7-1
		c1.1,0,2,0.3,2.6,0.8c0.6,0.5,0.9,1.3,0.9,2.2c0,0.7-0.2,1.4-0.6,2c-0.4,0.6-1,1.3-1.7,2.1l-1.9,2H290.1z"/>
	<path d="M298.6,103.5v1.9c0,1.6-0.3,2.8-1,3.5s-1.5,1.1-2.6,1.1c-1.1,0-1.9-0.4-2.6-1.1c-0.7-0.7-1-1.9-1-3.5v-1.9
		c0-1.6,0.3-2.8,1-3.5c0.7-0.7,1.5-1.1,2.6-1.1s1.9,0.4,2.6,1.1S298.6,101.9,298.6,103.5z M296.4,105.7v-2.4c0-0.9-0.1-1.6-0.4-2
		c-0.3-0.4-0.6-0.6-1.1-0.6c-0.5,0-0.8,0.2-1.1,0.6c-0.3,0.4-0.4,1-0.4,2v2.4c0,1,0.1,1.6,0.4,2c0.3,0.4,0.6,0.6,1.1,0.6
		c0.5,0,0.8-0.2,1.1-0.6C296.3,107.3,296.4,106.6,296.4,105.7z"/>
	<path d="M305.1,99.1v10.7H303v-8.2l-2.5,0.8v-1.7l4.4-1.6H305.1z"/>
	<path d="M315.8,99.1v1.2l-4.1,9.5h-2.2l4.1-9h-5.3v-1.7H315.8z"/>
	<path d="M243.1,125.5h-2.7v4.3h-0.9v-10.7h3.6c1.2,0,2.1,0.3,2.7,0.9s0.9,1.4,0.9,2.3c0,1-0.3,1.8-0.9,2.3
		C245.2,125.2,244.3,125.5,243.1,125.5z M240.4,119.9v4.8h2.7c0.9,0,1.6-0.2,2.1-0.7c0.4-0.5,0.6-1,0.6-1.7c0-0.7-0.2-1.2-0.6-1.7
		c-0.4-0.5-1.1-0.7-2.1-0.7H240.4z"/>
	<path d="M251.6,122.6c-0.6,0-1.1,0.2-1.4,0.5c-0.4,0.3-0.6,0.8-0.8,1.3v5.5h-0.9v-7.9h0.9l0,1.2c0.2-0.4,0.5-0.8,0.9-1
		c0.4-0.2,0.8-0.4,1.4-0.4c0.2,0,0.4,0,0.6,0.1l0,0.8c-0.1,0-0.2,0-0.3,0C251.8,122.6,251.7,122.6,251.6,122.6z"/>
	<path d="M253,126v-0.2c0-1.2,0.3-2.1,1-2.9c0.6-0.8,1.5-1.1,2.6-1.1c1.1,0,1.9,0.4,2.6,1.1c0.6,0.8,1,1.7,1,2.9v0.2
		c0,1.2-0.3,2.1-1,2.9c-0.6,0.8-1.5,1.1-2.6,1.1c-1.1,0-1.9-0.4-2.6-1.1S253,127.1,253,126z M253.8,125.7v0.2c0,0.9,0.2,1.6,0.7,2.3
		c0.5,0.6,1.1,1,2,1c0.9,0,1.5-0.3,2-1c0.5-0.6,0.7-1.4,0.7-2.3v-0.2c0-0.9-0.2-1.6-0.7-2.3s-1.1-1-2-1c-0.9,0-1.5,0.3-2,1
		C254.1,124.1,253.8,124.9,253.8,125.7z"/>
	<path d="M265.2,129.9c-0.6,0-1-0.1-1.5-0.3c-0.4-0.2-0.8-0.5-1-0.8v4.1h-0.9v-11h0.8l0,1.1c0.3-0.4,0.6-0.7,1-0.9
		c0.4-0.2,0.9-0.3,1.5-0.3c1,0,1.7,0.4,2.2,1.1c0.5,0.7,0.8,1.7,0.8,2.9v0.2c0,1.2-0.3,2.1-0.8,2.9
		C266.9,129.6,266.1,129.9,265.2,129.9z M265,122.5c-0.6,0-1.1,0.2-1.5,0.5s-0.6,0.7-0.8,1.1v3.8c0.2,0.4,0.5,0.7,0.8,1
		s0.9,0.4,1.4,0.4c0.8,0,1.4-0.3,1.8-0.9c0.4-0.6,0.6-1.4,0.6-2.3v-0.2c0-0.9-0.2-1.7-0.6-2.3C266.4,122.8,265.8,122.5,265,122.5z"
		/>
	<path d="M275.2,129.8c0-0.1-0.1-0.3-0.1-0.5s0-0.4-0.1-0.6c-0.3,0.3-0.6,0.6-1.1,0.9s-1,0.4-1.6,0.4c-0.8,0-1.4-0.2-1.9-0.6
		s-0.7-1-0.7-1.6c0-0.8,0.3-1.4,1-1.8s1.5-0.7,2.6-0.7h1.6v-0.9c0-0.6-0.2-1-0.5-1.3s-0.9-0.5-1.5-0.5c-0.6,0-1.1,0.2-1.5,0.5
		s-0.6,0.7-0.6,1.1l-0.9,0c0-0.6,0.3-1.1,0.8-1.6c0.6-0.5,1.3-0.7,2.2-0.7c0.8,0,1.5,0.2,2.1,0.6c0.5,0.4,0.8,1.1,0.8,1.9v3.8
		c0,0.3,0,0.6,0.1,0.9c0,0.3,0.1,0.5,0.2,0.7v0.1H275.2z M272.4,129.2c0.6,0,1.2-0.2,1.6-0.5c0.4-0.3,0.8-0.7,1-1.1v-1.8h-1.5
		c-0.9,0-1.6,0.2-2.1,0.5s-0.8,0.7-0.8,1.3c0,0.4,0.2,0.8,0.5,1.1C271.4,129,271.8,129.2,272.4,129.2z"/>
	<path d="M283.4,129.8l0-1.1c-0.3,0.4-0.6,0.7-1,0.9s-0.9,0.3-1.5,0.3c-0.9,0-1.7-0.4-2.2-1.1c-0.5-0.8-0.8-1.7-0.8-2.9v-0.2
		c0-1.2,0.3-2.2,0.8-2.9c0.5-0.7,1.3-1.1,2.2-1.1c0.6,0,1,0.1,1.4,0.3c0.4,0.2,0.7,0.5,1,0.9v-4.4h0.9v11.2H283.4z M278.7,125.9
		c0,0.9,0.2,1.7,0.6,2.3c0.4,0.6,1,0.9,1.8,0.9c0.6,0,1.1-0.1,1.4-0.4c0.4-0.3,0.7-0.6,0.8-1V124c-0.2-0.4-0.4-0.8-0.8-1.1
		s-0.9-0.5-1.5-0.5c-0.8,0-1.4,0.3-1.8,0.9c-0.4,0.6-0.6,1.4-0.6,2.3V125.9z"/>
	<path d="M293.1,129.2c0.6,0,1-0.2,1.5-0.5c0.4-0.3,0.7-0.8,0.7-1.4h0.8c0,0.8-0.4,1.4-0.9,1.9s-1.3,0.7-2.1,0.7
		c-1.1,0-2-0.4-2.5-1.1s-0.9-1.7-0.9-2.8v-0.3c0-1.1,0.3-2.1,0.9-2.8s1.4-1.1,2.5-1.1c0.8,0,1.6,0.3,2.1,0.8
		c0.6,0.5,0.9,1.2,0.9,2.1h-0.8c0-0.6-0.3-1.1-0.7-1.5c-0.4-0.4-0.9-0.6-1.5-0.6c-0.9,0-1.5,0.3-1.9,1s-0.6,1.4-0.6,2.2v0.3
		c0,0.8,0.2,1.6,0.6,2.2C291.6,128.9,292.2,129.2,293.1,129.2z"/>
	<path d="M303.8,128.5c-0.3,0.4-0.6,0.7-1.1,1c-0.5,0.3-1,0.4-1.7,0.4c-1,0-1.9-0.4-2.5-1.1s-1-1.7-1-2.8v-0.3c0-1.2,0.3-2.2,1-2.9
		c0.7-0.7,1.5-1.1,2.4-1.1c1,0,1.8,0.3,2.3,1c0.5,0.7,0.8,1.5,0.8,2.6v0.5h-5.7v0.2c0,0.9,0.2,1.6,0.8,2.2c0.5,0.6,1.2,0.9,2,0.9
		c0.9,0,1.7-0.4,2.2-1.1L303.8,128.5z M300.8,122.5c-0.7,0-1.2,0.2-1.7,0.7c-0.4,0.5-0.7,1.1-0.8,1.9h4.7V125c0-0.7-0.2-1.3-0.6-1.8
		C302.1,122.7,301.6,122.5,300.8,122.5z"/>
	<path d="M308.9,122.5c-0.6,0-1.1,0.2-1.5,0.6c-0.4,0.4-0.7,0.8-0.8,1.3v5.4h-0.9v-7.9h0.8l0,1.3c0.3-0.4,0.6-0.8,1.1-1.1
		c0.4-0.3,0.9-0.4,1.5-0.4c0.8,0,1.4,0.2,1.9,0.7c0.4,0.4,0.7,1.2,0.7,2.2v5.2h-0.9v-5.2c0-0.8-0.2-1.4-0.5-1.7
		C309.9,122.6,309.5,122.5,308.9,122.5z"/>
	<path d="M316.3,131.1c-0.1,0.2-0.2,0.5-0.4,0.8c-0.2,0.3-0.4,0.6-0.7,0.8s-0.7,0.3-1.2,0.3c-0.3,0-0.5,0-0.7-0.1v-0.7
		c0.1,0,0.1,0,0.2,0c0.1,0,0.2,0,0.2,0c0.5,0,0.8-0.1,1.1-0.4c0.3-0.2,0.5-0.6,0.6-1.1l0.4-1.1l-3-7.9h1l2.5,6.7l2.3-6.7h0.9
		L316.3,131.1z"/>
	<path d="M330.5,121.9l-3,7.9h-0.7l-3-7.9h0.9l2.4,6.7l2.4-6.7H330.5z"/>
	<path d="M340.8,129.8l0-1.1c-0.3,0.4-0.6,0.7-1,0.9s-0.9,0.3-1.5,0.3c-0.9,0-1.7-0.4-2.2-1.1c-0.5-0.8-0.8-1.7-0.8-2.9v-0.2
		c0-1.2,0.3-2.2,0.8-2.9c0.5-0.7,1.3-1.1,2.2-1.1c0.6,0,1,0.1,1.4,0.3c0.4,0.2,0.7,0.5,1,0.9v-4.4h0.9v11.2H340.8z M336.1,125.9
		c0,0.9,0.2,1.7,0.6,2.3c0.4,0.6,1,0.9,1.8,0.9c0.6,0,1.1-0.1,1.4-0.4c0.4-0.3,0.7-0.6,0.8-1V124c-0.2-0.4-0.4-0.8-0.8-1.1
		s-0.9-0.5-1.5-0.5c-0.8,0-1.4,0.3-1.8,0.9c-0.4,0.6-0.6,1.4-0.6,2.3V125.9z"/>
	<path d="M349,129.8l0-1c-0.2,0.4-0.6,0.6-1,0.8c-0.4,0.2-0.9,0.3-1.5,0.3c-0.8,0-1.4-0.2-1.9-0.7c-0.5-0.5-0.7-1.2-0.7-2.3v-5.1
		h0.9v5.1c0,0.8,0.2,1.4,0.5,1.7c0.4,0.3,0.8,0.5,1.3,0.5c0.7,0,1.2-0.1,1.6-0.4c0.4-0.3,0.6-0.7,0.8-1.1v-5.7h0.9v7.9H349z
		 M345.6,119.5c0-0.4,0.1-0.7,0.4-1c0.3-0.3,0.6-0.4,1-0.4c0.4,0,0.7,0.1,1,0.4c0.3,0.3,0.4,0.6,0.4,1s-0.1,0.7-0.4,1
		s-0.6,0.4-1,0.4c-0.4,0-0.7-0.1-1-0.4C345.7,120.3,345.6,119.9,345.6,119.5z M346.1,119.5c0,0.2,0.1,0.4,0.2,0.6
		c0.2,0.2,0.4,0.2,0.6,0.2c0.2,0,0.5-0.1,0.6-0.2c0.2-0.2,0.2-0.4,0.2-0.6c0-0.2-0.1-0.5-0.2-0.6c-0.2-0.2-0.4-0.3-0.6-0.3
		c-0.2,0-0.5,0.1-0.6,0.3C346.2,119.1,346.1,119.3,346.1,119.5z"/>
	<path d="M356.9,127.8c0-0.3-0.1-0.6-0.4-0.9c-0.3-0.3-0.8-0.5-1.7-0.7s-1.6-0.4-2-0.8s-0.7-0.8-0.7-1.5c0-0.6,0.2-1.1,0.8-1.5
		c0.5-0.4,1.2-0.6,2-0.6c0.9,0,1.6,0.2,2.2,0.7c0.5,0.4,0.8,1,0.8,1.7h-0.9c0-0.4-0.2-0.8-0.5-1.1s-0.9-0.5-1.5-0.5
		c-0.7,0-1.2,0.1-1.5,0.4s-0.4,0.6-0.4,0.9c0,0.4,0.1,0.6,0.4,0.9c0.3,0.2,0.8,0.5,1.7,0.7c1,0.2,1.7,0.5,2.1,0.9
		c0.4,0.4,0.7,0.8,0.7,1.5c0,0.7-0.3,1.2-0.8,1.6c-0.5,0.4-1.2,0.6-2.1,0.6c-1,0-1.8-0.2-2.3-0.7c-0.5-0.5-0.8-1-0.8-1.7h0.9
		c0,0.6,0.3,1.1,0.8,1.3s1,0.3,1.5,0.3c0.7,0,1.2-0.1,1.5-0.4C356.7,128.5,356.9,128.2,356.9,127.8z"/>
	<path d="M360.7,118.6v11.2h-0.9v-11.2H360.7z"/>
	<path d="M369,128.5c-0.3,0.4-0.6,0.7-1.1,1c-0.5,0.3-1,0.4-1.7,0.4c-1,0-1.9-0.4-2.5-1.1s-1-1.7-1-2.8v-0.3c0-1.2,0.3-2.2,1-2.9
		c0.7-0.7,1.5-1.1,2.4-1.1c1,0,1.8,0.3,2.3,1c0.5,0.7,0.8,1.5,0.8,2.6v0.5h-5.7v0.2c0,0.9,0.2,1.6,0.8,2.2c0.5,0.6,1.2,0.9,2,0.9
		c0.9,0,1.7-0.4,2.2-1.1L369,128.5z M366,122.5c-0.7,0-1.2,0.2-1.7,0.7c-0.4,0.5-0.7,1.1-0.8,1.9h4.7V125c0-0.7-0.2-1.3-0.6-1.8
		C367.3,122.7,366.8,122.5,366,122.5z"/>
	<path d="M376.1,129.8l0-1.1c-0.3,0.4-0.6,0.7-1,0.9s-0.9,0.3-1.5,0.3c-0.9,0-1.7-0.4-2.2-1.1c-0.5-0.8-0.8-1.7-0.8-2.9v-0.2
		c0-1.2,0.3-2.2,0.8-2.9c0.5-0.7,1.3-1.1,2.2-1.1c0.6,0,1,0.1,1.4,0.3c0.4,0.2,0.7,0.5,1,0.9v-4.4h0.9v11.2H376.1z M371.4,125.9
		c0,0.9,0.2,1.7,0.6,2.3c0.4,0.6,1,0.9,1.8,0.9c0.6,0,1.1-0.1,1.4-0.4c0.4-0.3,0.7-0.6,0.8-1V124c-0.2-0.4-0.4-0.8-0.8-1.1
		s-0.9-0.5-1.5-0.5c-0.8,0-1.4,0.3-1.8,0.9c-0.4,0.6-0.6,1.4-0.6,2.3V125.9z"/>
	<path d="M384.3,129.8l-3.2-4l-1,1v3h-0.9v-11.2h0.9v7.2l0.8-0.9l3-3h1.1l-3.4,3.3l3.7,4.6H384.3z"/>
	<path d="M391.7,129.8l0-1c-0.2,0.4-0.6,0.6-1,0.8c-0.4,0.2-0.9,0.3-1.5,0.3c-0.8,0-1.4-0.2-1.9-0.7c-0.5-0.5-0.7-1.2-0.7-2.3v-5.1
		h0.9v5.1c0,0.8,0.2,1.4,0.5,1.7c0.4,0.3,0.8,0.5,1.3,0.5c0.7,0,1.2-0.1,1.6-0.4c0.4-0.3,0.6-0.7,0.8-1.1v-5.7h0.9v7.9H391.7z"/>
	<path d="M242.6,147.9c-0.6,0-1-0.1-1.5-0.3c-0.4-0.2-0.8-0.5-1-0.8v4.1h-0.9v-11h0.8l0,1.1c0.3-0.4,0.6-0.7,1-0.9
		c0.4-0.2,0.9-0.3,1.5-0.3c1,0,1.7,0.4,2.2,1.1c0.5,0.7,0.8,1.7,0.8,2.9v0.2c0,1.2-0.3,2.1-0.8,2.9
		C244.3,147.6,243.6,147.9,242.6,147.9z M242.4,140.5c-0.6,0-1.1,0.2-1.5,0.5s-0.6,0.7-0.8,1.1v3.8c0.2,0.4,0.5,0.7,0.8,1
		s0.9,0.4,1.4,0.4c0.8,0,1.4-0.3,1.8-0.9c0.4-0.6,0.6-1.4,0.6-2.3v-0.2c0-0.9-0.2-1.7-0.6-2.3C243.8,140.8,243.2,140.5,242.4,140.5z
		"/>
	<path d="M248.2,136.7l1.3,1.4l1.3-1.4h0.8v0.1l-1.7,1.9h-0.6l-1.7-1.9v-0.1H248.2z M250.7,140.6c-0.6,0-1.1,0.2-1.4,0.5
		c-0.4,0.3-0.6,0.8-0.8,1.3v5.5h-0.9v-7.9h0.9l0,1.2c0.2-0.4,0.5-0.8,0.9-1c0.4-0.2,0.8-0.4,1.4-0.4c0.2,0,0.4,0,0.6,0.1l0,0.8
		c-0.1,0-0.2,0-0.3,0C250.9,140.6,250.8,140.6,250.7,140.6z"/>
	<path d="M258.4,146.5c-0.3,0.4-0.6,0.7-1.1,1c-0.5,0.3-1,0.4-1.7,0.4c-1,0-1.9-0.4-2.5-1.1s-1-1.7-1-2.8v-0.3c0-1.2,0.3-2.2,1-2.9
		c0.7-0.7,1.5-1.1,2.4-1.1c1,0,1.8,0.3,2.3,1c0.5,0.7,0.8,1.5,0.8,2.6v0.5h-5.7v0.2c0,0.9,0.2,1.6,0.8,2.2c0.5,0.6,1.2,0.9,2,0.9
		c0.9,0,1.7-0.4,2.2-1.1L258.4,146.5z M255.4,140.5c-0.7,0-1.2,0.2-1.7,0.7c-0.4,0.5-0.7,1.1-0.8,1.9h4.7V143c0-0.7-0.2-1.3-0.6-1.8
		C256.7,140.7,256.2,140.5,255.4,140.5z"/>
	<path d="M266.7,143.9c0,1.2-0.3,2.1-0.8,2.9c-0.5,0.8-1.3,1.1-2.2,1.1c-0.6,0-1.1-0.1-1.5-0.3c-0.4-0.2-0.8-0.5-1-0.9l0,1.1h-0.8
		v-11.2h0.9v4.5c0.3-0.4,0.6-0.7,1-0.9c0.4-0.2,0.9-0.3,1.5-0.3c1,0,1.7,0.4,2.2,1.1c0.5,0.7,0.8,1.7,0.8,2.9V143.9z M263.4,140.5
		c-0.7,0-1.2,0.2-1.5,0.5c-0.4,0.3-0.6,0.7-0.8,1.1v3.6c0.2,0.4,0.5,0.8,0.8,1.1s0.9,0.4,1.5,0.4c0.8,0,1.4-0.3,1.8-0.9
		c0.4-0.6,0.6-1.4,0.6-2.3v-0.2c0-0.9-0.2-1.7-0.5-2.3C264.9,140.8,264.3,140.5,263.4,140.5z"/>
	<path d="M270.9,149.1c-0.1,0.2-0.2,0.5-0.4,0.8c-0.2,0.3-0.4,0.6-0.7,0.8s-0.7,0.3-1.2,0.3c-0.3,0-0.5,0-0.7-0.1v-0.7
		c0.1,0,0.1,0,0.2,0c0.1,0,0.2,0,0.2,0c0.5,0,0.8-0.1,1.1-0.4c0.3-0.2,0.5-0.6,0.6-1.1l0.4-1.1l-3-7.9h1l2.5,6.7l2.3-6.7h0.9
		L270.9,149.1z"/>
	<path d="M278.8,147.8c-0.2,0.1-0.5,0.1-0.9,0.1c-0.5,0-0.9-0.1-1.2-0.4c-0.3-0.3-0.5-0.8-0.5-1.6v-5.3h-1.5v-0.7h1.5v-2h0.9v2h1.6
		v0.7H277v5.3c0,0.6,0.1,0.9,0.3,1.1c0.2,0.2,0.4,0.2,0.7,0.2c0.1,0,0.3,0,0.4,0c0.1,0,0.2,0,0.3-0.1L278.8,147.8z"/>
	<path d="M285.6,147.8l-3.2-4l-1,1v3h-0.9v-11.2h0.9v7.2l0.8-0.9l3-3h1.1l-3.4,3.3l3.7,4.6H285.6z"/>
	<path d="M292.9,147.8l0-1c-0.2,0.4-0.6,0.6-1,0.8c-0.4,0.2-0.9,0.3-1.5,0.3c-0.8,0-1.4-0.2-1.9-0.7c-0.5-0.5-0.7-1.2-0.7-2.3v-5.1
		h0.9v5.1c0,0.8,0.2,1.4,0.5,1.7c0.4,0.3,0.8,0.5,1.3,0.5c0.7,0,1.2-0.1,1.6-0.4c0.4-0.3,0.6-0.7,0.8-1.1v-5.7h0.9v7.9H292.9z"/>
	<path d="M303.1,147.9c-0.6,0-1-0.1-1.5-0.3c-0.4-0.2-0.8-0.5-1-0.8v4.1h-0.9v-11h0.8l0,1.1c0.3-0.4,0.6-0.7,1-0.9
		c0.4-0.2,0.9-0.3,1.5-0.3c1,0,1.7,0.4,2.2,1.1c0.5,0.7,0.8,1.7,0.8,2.9v0.2c0,1.2-0.3,2.1-0.8,2.9
		C304.8,147.6,304,147.9,303.1,147.9z M302.9,140.5c-0.6,0-1.1,0.2-1.5,0.5s-0.6,0.7-0.8,1.1v3.8c0.2,0.4,0.5,0.7,0.8,1
		s0.9,0.4,1.4,0.4c0.8,0,1.4-0.3,1.8-0.9c0.4-0.6,0.6-1.4,0.6-2.3v-0.2c0-0.9-0.2-1.7-0.6-2.3C304.3,140.8,303.7,140.5,302.9,140.5z
		"/>
	<path d="M307.5,144v-0.2c0-1.2,0.3-2.1,1-2.9c0.6-0.8,1.5-1.1,2.6-1.1c1.1,0,1.9,0.4,2.6,1.1c0.6,0.8,1,1.7,1,2.9v0.2
		c0,1.2-0.3,2.1-1,2.9c-0.6,0.8-1.5,1.1-2.6,1.1c-1.1,0-1.9-0.4-2.6-1.1S307.5,145.1,307.5,144z M308.4,143.7v0.2
		c0,0.9,0.2,1.6,0.7,2.3c0.5,0.6,1.1,1,2,1c0.9,0,1.5-0.3,2-1c0.5-0.6,0.7-1.4,0.7-2.3v-0.2c0-0.9-0.2-1.6-0.7-2.3s-1.1-1-2-1
		c-0.9,0-1.5,0.3-2,1C308.7,142.1,308.4,142.9,308.4,143.7z"/>
	<path d="M322.1,139.9l-3,7.9h-0.7l-3-7.9h0.9l2.4,6.7l2.4-6.7H322.1z"/>
	<path d="M322.9,144v-0.2c0-1.2,0.3-2.1,1-2.9c0.6-0.8,1.5-1.1,2.6-1.1c1.1,0,1.9,0.4,2.6,1.1c0.6,0.8,1,1.7,1,2.9v0.2
		c0,1.2-0.3,2.1-1,2.9c-0.6,0.8-1.5,1.1-2.6,1.1c-1.1,0-1.9-0.4-2.6-1.1S322.9,145.1,322.9,144z M323.8,143.7v0.2
		c0,0.9,0.2,1.6,0.7,2.3c0.5,0.6,1.1,1,2,1c0.9,0,1.5-0.3,2-1c0.5-0.6,0.7-1.4,0.7-2.3v-0.2c0-0.9-0.2-1.6-0.7-2.3s-1.1-1-2-1
		c-0.9,0-1.5,0.3-2,1C324.1,142.1,323.8,142.9,323.8,143.7z"/>
	<path d="M332.8,136.6v11.2h-0.9v-11.2H332.8z"/>
	<path d="M341.1,146.5c-0.3,0.4-0.6,0.7-1.1,1c-0.5,0.3-1,0.4-1.7,0.4c-1,0-1.9-0.4-2.5-1.1s-1-1.7-1-2.8v-0.3c0-1.2,0.3-2.2,1-2.9
		c0.7-0.7,1.5-1.1,2.4-1.1c1,0,1.8,0.3,2.3,1c0.5,0.7,0.8,1.5,0.8,2.6v0.5h-5.7v0.2c0,0.9,0.2,1.6,0.8,2.2c0.5,0.6,1.2,0.9,2,0.9
		c0.9,0,1.7-0.4,2.2-1.1L341.1,146.5z M338.1,140.5c-0.7,0-1.2,0.2-1.7,0.7c-0.4,0.5-0.7,1.1-0.8,1.9h4.7V143c0-0.7-0.2-1.3-0.6-1.8
		C339.4,140.7,338.9,140.5,338.1,140.5z"/>
	<path d="M346.2,140.5c-0.6,0-1.1,0.2-1.5,0.6c-0.4,0.4-0.7,0.8-0.8,1.3v5.4H343v-7.9h0.8l0,1.3c0.3-0.4,0.6-0.8,1.1-1.1
		c0.4-0.3,0.9-0.4,1.5-0.4c0.8,0,1.4,0.2,1.9,0.7c0.4,0.4,0.7,1.2,0.7,2.2v5.2h-0.9v-5.2c0-0.8-0.2-1.4-0.5-1.7
		C347.2,140.6,346.8,140.5,346.2,140.5z"/>
	<path d="M357.1,146.5c-0.3,0.4-0.6,0.7-1.1,1c-0.5,0.3-1,0.4-1.7,0.4c-1,0-1.9-0.4-2.5-1.1s-1-1.7-1-2.8v-0.3c0-1.2,0.3-2.2,1-2.9
		c0.7-0.7,1.5-1.1,2.4-1.1c1,0,1.8,0.3,2.3,1c0.5,0.7,0.8,1.5,0.8,2.6v0.5h-5.7v0.2c0,0.9,0.2,1.6,0.8,2.2c0.5,0.6,1.2,0.9,2,0.9
		c0.9,0,1.7-0.4,2.2-1.1L357.1,146.5z M354.1,140.5c-0.7,0-1.2,0.2-1.7,0.7c-0.4,0.5-0.7,1.1-0.8,1.9h4.7V143c0-0.7-0.2-1.3-0.6-1.8
		C355.4,140.7,354.9,140.5,354.1,140.5z"/>
	<path d="M364.1,147.8l-3.2-4l-1,1v3H359v-11.2h0.9v7.2l0.8-0.9l3-3h1.1l-3.4,3.3l3.7,4.6H364.1z"/>
</g>
<g>
	<rect x="69.8" y="411.9" class="st16" width="384.6" height="112"/>
	<path d="M384,421.5v1.7h-7.3v-1.5l3.4-3.7c0.5-0.6,0.9-1.1,1.1-1.4c0.2-0.4,0.3-0.7,0.3-1c0-0.5-0.1-0.8-0.4-1.1
		c-0.2-0.3-0.6-0.4-1-0.4c-0.5,0-0.9,0.2-1.2,0.5c-0.3,0.3-0.4,0.8-0.4,1.3h-2.1c0-1,0.3-1.8,1-2.5c0.7-0.7,1.6-1,2.7-1
		c1.1,0,2,0.3,2.6,0.8c0.6,0.5,0.9,1.3,0.9,2.2c0,0.7-0.2,1.4-0.6,2c-0.4,0.6-1,1.3-1.7,2.1l-1.9,2H384z"/>
	<path d="M392.5,416.9v1.9c0,1.6-0.3,2.8-1,3.5s-1.5,1.1-2.6,1.1c-1.1,0-1.9-0.4-2.6-1.1c-0.7-0.7-1-1.9-1-3.5v-1.9
		c0-1.6,0.3-2.8,1-3.5c0.7-0.7,1.5-1.1,2.6-1.1s1.9,0.4,2.6,1.1S392.5,415.3,392.5,416.9z M390.4,419v-2.4c0-0.9-0.1-1.6-0.4-2
		c-0.3-0.4-0.6-0.6-1.1-0.6c-0.5,0-0.8,0.2-1.1,0.6c-0.3,0.4-0.4,1-0.4,2v2.4c0,1,0.1,1.6,0.4,2c0.3,0.4,0.6,0.6,1.1,0.6
		c0.5,0,0.8-0.2,1.1-0.6C390.2,420.7,390.4,420,390.4,419z"/>
	<path d="M401.2,421.5v1.7h-7.3v-1.5l3.4-3.7c0.5-0.6,0.9-1.1,1.1-1.4c0.2-0.4,0.3-0.7,0.3-1c0-0.5-0.1-0.8-0.4-1.1
		c-0.2-0.3-0.6-0.4-1-0.4c-0.5,0-0.9,0.2-1.2,0.5c-0.3,0.3-0.4,0.8-0.4,1.3h-2.1c0-1,0.3-1.8,1-2.5c0.7-0.7,1.6-1,2.7-1
		c1.1,0,2,0.3,2.6,0.8c0.6,0.5,0.9,1.3,0.9,2.2c0,0.7-0.2,1.4-0.6,2c-0.4,0.6-1,1.3-1.7,2.1l-1.9,2H401.2z"/>
	<path d="M407.7,412.5v10.7h-2.1V415l-2.5,0.8v-1.7l4.4-1.6H407.7z"/>
	<path d="M419.1,417.1v1.7h-7.6v-1.7H419.1z"/>
	<path d="M427.9,421.5v1.7h-7.3v-1.5l3.4-3.7c0.5-0.6,0.9-1.1,1.1-1.4c0.2-0.4,0.3-0.7,0.3-1c0-0.5-0.1-0.8-0.4-1.1
		c-0.2-0.3-0.6-0.4-1-0.4c-0.5,0-0.9,0.2-1.2,0.5c-0.3,0.3-0.4,0.8-0.4,1.3h-2.1c0-1,0.3-1.8,1-2.5c0.7-0.7,1.6-1,2.7-1
		c1.1,0,2,0.3,2.6,0.8c0.6,0.5,0.9,1.3,0.9,2.2c0,0.7-0.2,1.4-0.6,2c-0.4,0.6-1,1.3-1.7,2.1l-1.9,2H427.9z"/>
	<path d="M436.4,416.9v1.9c0,1.6-0.3,2.8-1,3.5s-1.5,1.1-2.6,1.1c-1.1,0-1.9-0.4-2.6-1.1c-0.7-0.7-1-1.9-1-3.5v-1.9
		c0-1.6,0.3-2.8,1-3.5c0.7-0.7,1.5-1.1,2.6-1.1s1.9,0.4,2.6,1.1S436.4,415.3,436.4,416.9z M434.3,419v-2.4c0-0.9-0.1-1.6-0.4-2
		c-0.3-0.4-0.6-0.6-1.1-0.6c-0.5,0-0.8,0.2-1.1,0.6c-0.3,0.4-0.4,1-0.4,2v2.4c0,1,0.1,1.6,0.4,2c0.3,0.4,0.6,0.6,1.1,0.6
		c0.5,0,0.8-0.2,1.1-0.6C434.1,420.7,434.3,420,434.3,419z"/>
	<path d="M445.1,421.5v1.7h-7.3v-1.5l3.4-3.7c0.5-0.6,0.9-1.1,1.1-1.4c0.2-0.4,0.3-0.7,0.3-1c0-0.5-0.1-0.8-0.4-1.1
		c-0.2-0.3-0.6-0.4-1-0.4c-0.5,0-0.9,0.2-1.2,0.5c-0.3,0.3-0.4,0.8-0.4,1.3h-2.1c0-1,0.3-1.8,1-2.5c0.7-0.7,1.6-1,2.7-1
		c1.1,0,2,0.3,2.6,0.8c0.6,0.5,0.9,1.3,0.9,2.2c0,0.7-0.2,1.4-0.6,2c-0.4,0.6-1,1.3-1.7,2.1l-1.9,2H445.1z"/>
	<path d="M449.7,418.5h-1.1v-1.7h1.1c0.5,0,0.9-0.1,1.2-0.4c0.3-0.3,0.4-0.6,0.4-1.1c0-0.4-0.1-0.7-0.4-1c-0.2-0.3-0.6-0.4-1.1-0.4
		c-0.4,0-0.7,0.1-1,0.3c-0.3,0.2-0.4,0.5-0.4,0.9h-2.1c0-0.9,0.3-1.6,1-2.1c0.7-0.5,1.5-0.8,2.5-0.8c1.1,0,2,0.3,2.6,0.8
		c0.7,0.5,1,1.3,1,2.3c0,0.5-0.1,0.9-0.4,1.3c-0.3,0.4-0.7,0.7-1.2,1c0.6,0.2,1,0.5,1.3,1c0.3,0.4,0.4,0.9,0.4,1.5
		c0,1-0.4,1.8-1.1,2.3c-0.7,0.5-1.6,0.8-2.7,0.8c-0.6,0-1.2-0.1-1.7-0.3c-0.6-0.2-1-0.6-1.4-1c-0.4-0.5-0.5-1-0.5-1.7h2.1
		c0,0.4,0.1,0.7,0.4,1c0.3,0.3,0.7,0.4,1.1,0.4c0.5,0,0.9-0.1,1.2-0.4s0.4-0.6,0.4-1.1c0-0.6-0.2-1-0.5-1.2S450.2,418.5,449.7,418.5
		z"/>
	<path d="M141.5,438.8h-2.7v4.3h-0.9v-10.7h3.6c1.2,0,2.1,0.3,2.7,0.9s0.9,1.4,0.9,2.3c0,1-0.3,1.8-0.9,2.3
		C143.6,438.5,142.7,438.8,141.5,438.8z M138.8,433.3v4.8h2.7c0.9,0,1.6-0.2,2.1-0.7c0.4-0.5,0.6-1,0.6-1.7c0-0.7-0.2-1.2-0.6-1.7
		c-0.4-0.5-1.1-0.7-2.1-0.7H138.8z"/>
	<path d="M150,435.9c-0.6,0-1.1,0.2-1.4,0.5c-0.4,0.3-0.6,0.8-0.8,1.3v5.5h-0.9v-7.9h0.9l0,1.2c0.2-0.4,0.5-0.8,0.9-1
		c0.4-0.2,0.8-0.4,1.4-0.4c0.2,0,0.4,0,0.6,0.1l0,0.8c-0.1,0-0.2,0-0.3,0C150.2,435.9,150.1,435.9,150,435.9z"/>
	<path d="M157.1,443.2l0-1c-0.2,0.4-0.6,0.6-1,0.8c-0.4,0.2-0.9,0.3-1.5,0.3c-0.8,0-1.4-0.2-1.9-0.7c-0.5-0.5-0.7-1.2-0.7-2.3v-5.1
		h0.9v5.1c0,0.8,0.2,1.4,0.5,1.7c0.4,0.3,0.8,0.5,1.3,0.5c0.7,0,1.2-0.1,1.6-0.4c0.4-0.3,0.6-0.7,0.8-1.1v-5.7h0.9v7.9H157.1z"/>
	<path d="M165.4,443.2l0-1.1c-0.3,0.4-0.6,0.7-1,0.9s-0.9,0.3-1.5,0.3c-0.9,0-1.7-0.4-2.2-1.1c-0.5-0.8-0.8-1.7-0.8-2.9v-0.2
		c0-1.2,0.3-2.2,0.8-2.9c0.5-0.7,1.3-1.1,2.2-1.1c0.6,0,1,0.1,1.4,0.3c0.4,0.2,0.7,0.5,1,0.9v-4.4h0.9v11.2H165.4z M160.7,439.3
		c0,0.9,0.2,1.7,0.6,2.3c0.4,0.6,1,0.9,1.8,0.9c0.6,0,1.1-0.1,1.4-0.4c0.4-0.3,0.7-0.6,0.8-1v-3.7c-0.2-0.4-0.4-0.8-0.8-1.1
		s-0.9-0.5-1.5-0.5c-0.8,0-1.4,0.3-1.8,0.9c-0.4,0.6-0.6,1.4-0.6,2.3V439.3z"/>
	<path d="M173.6,443.2l-3.2-4l-1,1v3h-0.9v-11.2h0.9v7.2l0.8-0.9l3-3h1.1l-3.4,3.3l3.7,4.6H173.6z"/>
	<path d="M178.3,444.4c-0.1,0.2-0.2,0.5-0.4,0.8c-0.2,0.3-0.4,0.6-0.7,0.8s-0.7,0.3-1.2,0.3c-0.3,0-0.5,0-0.7-0.1v-0.7
		c0.1,0,0.1,0,0.2,0c0.1,0,0.2,0,0.2,0c0.5,0,0.8-0.1,1.1-0.4c0.3-0.2,0.5-0.6,0.6-1.1l0.4-1.1l-3-7.9h1l2.5,6.7l2.3-6.7h0.9
		L178.3,444.4z M178,434l1.4-2h1.1l-1.7,2H178z"/>
	<path d="M189.9,435.8c-0.6,0-1.1,0.2-1.5,0.6c-0.4,0.4-0.7,0.8-0.8,1.3v5.4h-0.9v-7.9h0.8l0,1.3c0.3-0.4,0.6-0.8,1.1-1.1
		c0.4-0.3,0.9-0.4,1.5-0.4c0.8,0,1.4,0.2,1.9,0.7c0.4,0.4,0.7,1.2,0.7,2.2v5.2h-0.9V438c0-0.8-0.2-1.4-0.5-1.7
		C190.9,436,190.5,435.8,189.9,435.8z"/>
	<path d="M199.9,443.2c0-0.1-0.1-0.3-0.1-0.5s0-0.4-0.1-0.6c-0.3,0.3-0.6,0.6-1.1,0.9s-1,0.4-1.6,0.4c-0.8,0-1.4-0.2-1.9-0.6
		s-0.7-1-0.7-1.6c0-0.8,0.3-1.4,1-1.8s1.5-0.7,2.6-0.7h1.6v-0.9c0-0.6-0.2-1-0.5-1.3s-0.9-0.5-1.5-0.5c-0.6,0-1.1,0.2-1.5,0.5
		s-0.6,0.7-0.6,1.1l-0.9,0c0-0.6,0.3-1.1,0.8-1.6c0.6-0.5,1.3-0.7,2.2-0.7c0.8,0,1.5,0.2,2.1,0.6c0.5,0.4,0.8,1.1,0.8,1.9v3.8
		c0,0.3,0,0.6,0.1,0.9c0,0.3,0.1,0.5,0.2,0.7v0.1H199.9z M197.2,442.5c0.6,0,1.2-0.2,1.6-0.5c0.4-0.3,0.8-0.7,1-1.1v-1.8h-1.5
		c-0.9,0-1.6,0.2-2.1,0.5s-0.8,0.7-0.8,1.3c0,0.4,0.2,0.8,0.5,1.1C196.2,442.4,196.6,442.5,197.2,442.5z M197.5,434l1.4-2h1.1
		l-1.7,2H197.5z"/>
	<path d="M206,435.9c-0.6,0-1.1,0.2-1.4,0.5c-0.4,0.3-0.6,0.8-0.8,1.3v5.5H203v-7.9h0.9l0,1.2c0.2-0.4,0.5-0.8,0.9-1
		c0.4-0.2,0.8-0.4,1.4-0.4c0.2,0,0.4,0,0.6,0.1l0,0.8c-0.1,0-0.2,0-0.3,0C206.2,435.9,206.1,435.9,206,435.9z"/>
	<path d="M213.1,443.2l0-1c-0.2,0.4-0.6,0.6-1,0.8c-0.4,0.2-0.9,0.3-1.5,0.3c-0.8,0-1.4-0.2-1.9-0.7c-0.5-0.5-0.7-1.2-0.7-2.3v-5.1
		h0.9v5.1c0,0.8,0.2,1.4,0.5,1.7c0.4,0.3,0.8,0.5,1.3,0.5c0.7,0,1.2-0.1,1.6-0.4c0.4-0.3,0.6-0.7,0.8-1.1v-5.7h0.9v7.9H213.1z
		 M209.7,432.9c0-0.4,0.1-0.7,0.4-1c0.3-0.3,0.6-0.4,1-0.4c0.4,0,0.7,0.1,1,0.4c0.3,0.3,0.4,0.6,0.4,1s-0.1,0.7-0.4,1
		s-0.6,0.4-1,0.4c-0.4,0-0.7-0.1-1-0.4C209.8,433.6,209.7,433.3,209.7,432.9z M210.2,432.9c0,0.2,0.1,0.4,0.2,0.6
		c0.2,0.2,0.4,0.2,0.6,0.2c0.2,0,0.5-0.1,0.6-0.2c0.2-0.2,0.2-0.4,0.2-0.6c0-0.2-0.1-0.5-0.2-0.6c-0.2-0.2-0.4-0.3-0.6-0.3
		c-0.2,0-0.5,0.1-0.6,0.3C210.3,432.5,210.2,432.7,210.2,432.9z"/>
	<path d="M221,441.1c0-0.3-0.1-0.6-0.4-0.9c-0.3-0.3-0.8-0.5-1.7-0.7s-1.6-0.4-2-0.8s-0.7-0.8-0.7-1.5c0-0.6,0.2-1.1,0.8-1.5
		c0.5-0.4,1.2-0.6,2-0.6c0.9,0,1.6,0.2,2.2,0.7c0.5,0.4,0.8,1,0.8,1.7H221c0-0.4-0.2-0.8-0.5-1.1s-0.9-0.5-1.5-0.5
		c-0.7,0-1.2,0.1-1.5,0.4s-0.4,0.6-0.4,0.9c0,0.4,0.1,0.6,0.4,0.9c0.3,0.2,0.8,0.5,1.7,0.7c1,0.2,1.7,0.5,2.1,0.9
		c0.4,0.4,0.7,0.8,0.7,1.5c0,0.7-0.3,1.2-0.8,1.6c-0.5,0.4-1.2,0.6-2.1,0.6c-1,0-1.8-0.2-2.3-0.7c-0.5-0.5-0.8-1-0.8-1.7h0.9
		c0,0.6,0.3,1.1,0.8,1.3s1,0.3,1.5,0.3c0.7,0,1.2-0.1,1.5-0.4C220.8,441.8,221,441.5,221,441.1z"/>
	<path d="M227,443.2c-0.2,0.1-0.5,0.1-0.9,0.1c-0.5,0-0.9-0.1-1.2-0.4c-0.3-0.3-0.5-0.8-0.5-1.6V436h-1.5v-0.7h1.5v-2h0.9v2h1.6v0.7
		h-1.6v5.3c0,0.6,0.1,0.9,0.3,1.1c0.2,0.2,0.4,0.2,0.7,0.2c0.1,0,0.3,0,0.4,0c0.1,0,0.2,0,0.3-0.1L227,443.2z"/>
	<path d="M235.3,442.6c0.6,0,1-0.2,1.5-0.5c0.4-0.3,0.7-0.8,0.7-1.4h0.8c0,0.8-0.4,1.4-0.9,1.9s-1.3,0.7-2.1,0.7
		c-1.1,0-2-0.4-2.5-1.1s-0.9-1.7-0.9-2.8V439c0-1.1,0.3-2.1,0.9-2.8s1.4-1.1,2.5-1.1c0.8,0,1.6,0.3,2.1,0.8c0.6,0.5,0.9,1.2,0.9,2.1
		h-0.8c0-0.6-0.3-1.1-0.7-1.5c-0.4-0.4-0.9-0.6-1.5-0.6c-0.9,0-1.5,0.3-1.9,1s-0.6,1.4-0.6,2.2v0.3c0,0.8,0.2,1.6,0.6,2.2
		C233.7,442.2,234.4,442.6,235.3,442.6z"/>
	<path d="M246,441.9c-0.3,0.4-0.6,0.7-1.1,1c-0.5,0.3-1,0.4-1.7,0.4c-1,0-1.9-0.4-2.5-1.1s-1-1.7-1-2.8v-0.3c0-1.2,0.3-2.2,1-2.9
		c0.7-0.7,1.5-1.1,2.4-1.1c1,0,1.8,0.3,2.3,1c0.5,0.7,0.8,1.5,0.8,2.6v0.5h-5.7v0.2c0,0.9,0.2,1.6,0.8,2.2c0.5,0.6,1.2,0.9,2,0.9
		c0.9,0,1.7-0.4,2.2-1.1L246,441.9z M243,435.8c-0.7,0-1.2,0.2-1.7,0.7c-0.4,0.5-0.7,1.1-0.8,1.9h4.7v-0.1c0-0.7-0.2-1.3-0.6-1.8
		C244.3,436.1,243.7,435.8,243,435.8z"/>
	<path d="M251.1,435.8c-0.6,0-1.1,0.2-1.5,0.6c-0.4,0.4-0.7,0.8-0.8,1.3v5.4h-0.9v-7.9h0.8l0,1.3c0.3-0.4,0.6-0.8,1.1-1.1
		c0.4-0.3,0.9-0.4,1.5-0.4c0.8,0,1.4,0.2,1.9,0.7c0.4,0.4,0.7,1.2,0.7,2.2v5.2h-0.9V438c0-0.8-0.2-1.4-0.5-1.7
		C252.1,436,251.6,435.8,251.1,435.8z"/>
	<path d="M258.5,444.4c-0.1,0.2-0.2,0.5-0.4,0.8c-0.2,0.3-0.4,0.6-0.7,0.8s-0.7,0.3-1.2,0.3c-0.3,0-0.5,0-0.7-0.1v-0.7
		c0.1,0,0.1,0,0.2,0c0.1,0,0.2,0,0.2,0c0.5,0,0.8-0.1,1.1-0.4c0.3-0.2,0.5-0.6,0.6-1.1l0.4-1.1l-3-7.9h1l2.5,6.7l2.3-6.7h0.9
		L258.5,444.4z"/>
	<path d="M272.7,435.2l-3,7.9H269l-3-7.9h0.9l2.4,6.7l2.4-6.7H272.7z"/>
	<path d="M283,443.2l0-1.1c-0.3,0.4-0.6,0.7-1,0.9s-0.9,0.3-1.5,0.3c-0.9,0-1.7-0.4-2.2-1.1c-0.5-0.8-0.8-1.7-0.8-2.9v-0.2
		c0-1.2,0.3-2.2,0.8-2.9c0.5-0.7,1.3-1.1,2.2-1.1c0.6,0,1,0.1,1.4,0.3c0.4,0.2,0.7,0.5,1,0.9v-4.4h0.9v11.2H283z M278.3,439.3
		c0,0.9,0.2,1.7,0.6,2.3c0.4,0.6,1,0.9,1.8,0.9c0.6,0,1.1-0.1,1.4-0.4c0.4-0.3,0.7-0.6,0.8-1v-3.7c-0.2-0.4-0.4-0.8-0.8-1.1
		s-0.9-0.5-1.5-0.5c-0.8,0-1.4,0.3-1.8,0.9c-0.4,0.6-0.6,1.4-0.6,2.3V439.3z"/>
	<path d="M291.2,443.2l0-1c-0.2,0.4-0.6,0.6-1,0.8c-0.4,0.2-0.9,0.3-1.5,0.3c-0.8,0-1.4-0.2-1.9-0.7c-0.5-0.5-0.7-1.2-0.7-2.3v-5.1
		h0.9v5.1c0,0.8,0.2,1.4,0.5,1.7c0.4,0.3,0.8,0.5,1.3,0.5c0.7,0,1.2-0.1,1.6-0.4c0.4-0.3,0.6-0.7,0.8-1.1v-5.7h0.9v7.9H291.2z
		 M287.7,432.9c0-0.4,0.1-0.7,0.4-1c0.3-0.3,0.6-0.4,1-0.4c0.4,0,0.7,0.1,1,0.4c0.3,0.3,0.4,0.6,0.4,1s-0.1,0.7-0.4,1
		s-0.6,0.4-1,0.4c-0.4,0-0.7-0.1-1-0.4C287.9,433.6,287.7,433.3,287.7,432.9z M288.3,432.9c0,0.2,0.1,0.4,0.2,0.6
		c0.2,0.2,0.4,0.2,0.6,0.2c0.2,0,0.5-0.1,0.6-0.2c0.2-0.2,0.2-0.4,0.2-0.6c0-0.2-0.1-0.5-0.2-0.6c-0.2-0.2-0.4-0.3-0.6-0.3
		c-0.2,0-0.5,0.1-0.6,0.3C288.4,432.5,288.3,432.7,288.3,432.9z"/>
	<path d="M299.1,441.1c0-0.3-0.1-0.6-0.4-0.9c-0.3-0.3-0.8-0.5-1.7-0.7s-1.6-0.4-2-0.8s-0.7-0.8-0.7-1.5c0-0.6,0.2-1.1,0.8-1.5
		c0.5-0.4,1.2-0.6,2-0.6c0.9,0,1.6,0.2,2.2,0.7c0.5,0.4,0.8,1,0.8,1.7H299c0-0.4-0.2-0.8-0.5-1.1s-0.9-0.5-1.5-0.5
		c-0.7,0-1.2,0.1-1.5,0.4s-0.4,0.6-0.4,0.9c0,0.4,0.1,0.6,0.4,0.9c0.3,0.2,0.8,0.5,1.7,0.7c1,0.2,1.7,0.5,2.1,0.9
		c0.4,0.4,0.7,0.8,0.7,1.5c0,0.7-0.3,1.2-0.8,1.6c-0.5,0.4-1.2,0.6-2.1,0.6c-1,0-1.8-0.2-2.3-0.7c-0.5-0.5-0.8-1-0.8-1.7h0.9
		c0,0.6,0.3,1.1,0.8,1.3s1,0.3,1.5,0.3c0.7,0,1.2-0.1,1.5-0.4C298.9,441.8,299.1,441.5,299.1,441.1z"/>
	<path d="M302.9,431.9v11.2H302v-11.2H302.9z"/>
	<path d="M311.2,441.9c-0.3,0.4-0.6,0.7-1.1,1c-0.5,0.3-1,0.4-1.7,0.4c-1,0-1.9-0.4-2.5-1.1s-1-1.7-1-2.8v-0.3c0-1.2,0.3-2.2,1-2.9
		c0.7-0.7,1.5-1.1,2.4-1.1c1,0,1.8,0.3,2.3,1c0.5,0.7,0.8,1.5,0.8,2.6v0.5h-5.7v0.2c0,0.9,0.2,1.6,0.8,2.2c0.5,0.6,1.2,0.9,2,0.9
		c0.9,0,1.7-0.4,2.2-1.1L311.2,441.9z M308.2,435.8c-0.7,0-1.2,0.2-1.7,0.7c-0.4,0.5-0.7,1.1-0.8,1.9h4.7v-0.1
		c0-0.7-0.2-1.3-0.6-1.8C309.5,436.1,308.9,435.8,308.2,435.8z"/>
	<path d="M318.3,443.2l0-1.1c-0.3,0.4-0.6,0.7-1,0.9s-0.9,0.3-1.5,0.3c-0.9,0-1.7-0.4-2.2-1.1c-0.5-0.8-0.8-1.7-0.8-2.9v-0.2
		c0-1.2,0.3-2.2,0.8-2.9c0.5-0.7,1.3-1.1,2.2-1.1c0.6,0,1,0.1,1.4,0.3c0.4,0.2,0.7,0.5,1,0.9v-4.4h0.9v11.2H318.3z M313.6,439.3
		c0,0.9,0.2,1.7,0.6,2.3c0.4,0.6,1,0.9,1.8,0.9c0.6,0,1.1-0.1,1.4-0.4c0.4-0.3,0.7-0.6,0.8-1v-3.7c-0.2-0.4-0.4-0.8-0.8-1.1
		s-0.9-0.5-1.5-0.5c-0.8,0-1.4,0.3-1.8,0.9c-0.4,0.6-0.6,1.4-0.6,2.3V439.3z"/>
	<path d="M326.5,443.2l-3.2-4l-1,1v3h-0.9v-11.2h0.9v7.2l0.8-0.9l3-3h1.1l-3.4,3.3l3.7,4.6H326.5z"/>
	<path d="M333.8,443.2l0-1c-0.2,0.4-0.6,0.6-1,0.8c-0.4,0.2-0.9,0.3-1.5,0.3c-0.8,0-1.4-0.2-1.9-0.7c-0.5-0.5-0.7-1.2-0.7-2.3v-5.1
		h0.9v5.1c0,0.8,0.2,1.4,0.5,1.7c0.4,0.3,0.8,0.5,1.3,0.5c0.7,0,1.2-0.1,1.6-0.4c0.4-0.3,0.6-0.7,0.8-1.1v-5.7h0.9v7.9H333.8z"/>
	<path d="M344,443.3c-0.6,0-1-0.1-1.5-0.3c-0.4-0.2-0.8-0.5-1-0.8v4.1h-0.9v-11h0.8l0,1.1c0.3-0.4,0.6-0.7,1-0.9
		c0.4-0.2,0.9-0.3,1.5-0.3c1,0,1.7,0.4,2.2,1.1c0.5,0.7,0.8,1.7,0.8,2.9v0.2c0,1.2-0.3,2.1-0.8,2.9
		C345.7,442.9,344.9,443.3,344,443.3z M343.8,435.9c-0.6,0-1.1,0.2-1.5,0.5s-0.6,0.7-0.8,1.1v3.8c0.2,0.4,0.5,0.7,0.8,1
		s0.9,0.4,1.4,0.4c0.8,0,1.4-0.3,1.8-0.9c0.4-0.6,0.6-1.4,0.6-2.3v-0.2c0-0.9-0.2-1.7-0.6-2.3C345.2,436.2,344.6,435.9,343.8,435.9z
		"/>
	<path d="M348.5,439.3v-0.2c0-1.2,0.3-2.1,1-2.9c0.6-0.8,1.5-1.1,2.6-1.1c1.1,0,1.9,0.4,2.6,1.1c0.6,0.8,1,1.7,1,2.9v0.2
		c0,1.2-0.3,2.1-1,2.9c-0.6,0.8-1.5,1.1-2.6,1.1c-1.1,0-1.9-0.4-2.6-1.1S348.5,440.5,348.5,439.3z M349.3,439.1v0.2
		c0,0.9,0.2,1.6,0.7,2.3c0.5,0.6,1.1,1,2,1c0.9,0,1.5-0.3,2-1c0.5-0.6,0.7-1.4,0.7-2.3v-0.2c0-0.9-0.2-1.6-0.7-2.3s-1.1-1-2-1
		c-0.9,0-1.5,0.3-2,1C349.6,437.5,349.3,438.2,349.3,439.1z"/>
	<path d="M362.4,443.2l-3.2-4l-1,1v3h-0.9v-11.2h0.9v7.2l0.8-0.9l3-3h1.1l-3.4,3.3l3.7,4.6H362.4z"/>
	<path d="M365.7,431.9v11.2h-0.9v-11.2H365.7z"/>
	<path d="M373.9,441.9c-0.3,0.4-0.6,0.7-1.1,1c-0.5,0.3-1,0.4-1.7,0.4c-1,0-1.9-0.4-2.5-1.1s-1-1.7-1-2.8v-0.3c0-1.2,0.3-2.2,1-2.9
		c0.7-0.7,1.5-1.1,2.4-1.1c1,0,1.8,0.3,2.3,1c0.5,0.7,0.8,1.5,0.8,2.6v0.5h-5.7v0.2c0,0.9,0.2,1.6,0.8,2.2c0.5,0.6,1.2,0.9,2,0.9
		c0.9,0,1.7-0.4,2.2-1.1L373.9,441.9z M371,435.8c-0.7,0-1.2,0.2-1.7,0.7c-0.4,0.5-0.7,1.1-0.8,1.9h4.7v-0.1c0-0.7-0.2-1.3-0.6-1.8
		C372.3,436.1,371.7,435.8,371,435.8z"/>
	<path d="M380.6,441.1c0-0.3-0.1-0.6-0.4-0.9c-0.3-0.3-0.8-0.5-1.7-0.7s-1.6-0.4-2-0.8s-0.7-0.8-0.7-1.5c0-0.6,0.2-1.1,0.8-1.5
		c0.5-0.4,1.2-0.6,2-0.6c0.9,0,1.6,0.2,2.2,0.7c0.5,0.4,0.8,1,0.8,1.7h-0.9c0-0.4-0.2-0.8-0.5-1.1s-0.9-0.5-1.5-0.5
		c-0.7,0-1.2,0.1-1.5,0.4s-0.4,0.6-0.4,0.9c0,0.4,0.1,0.6,0.4,0.9c0.3,0.2,0.8,0.5,1.7,0.7c1,0.2,1.7,0.5,2.1,0.9
		c0.4,0.4,0.7,0.8,0.7,1.5c0,0.7-0.3,1.2-0.8,1.6c-0.5,0.4-1.2,0.6-2.1,0.6c-1,0-1.8-0.2-2.3-0.7c-0.5-0.5-0.8-1-0.8-1.7h0.9
		c0,0.6,0.3,1.1,0.8,1.3s1,0.3,1.5,0.3c0.7,0,1.2-0.1,1.5-0.4C380.4,441.8,380.6,441.5,380.6,441.1z"/>
	<path d="M388.5,443.2l0-1c-0.2,0.4-0.6,0.6-1,0.8c-0.4,0.2-0.9,0.3-1.5,0.3c-0.8,0-1.4-0.2-1.9-0.7c-0.5-0.5-0.7-1.2-0.7-2.3v-5.1
		h0.9v5.1c0,0.8,0.2,1.4,0.5,1.7c0.4,0.3,0.8,0.5,1.3,0.5c0.7,0,1.2-0.1,1.6-0.4c0.4-0.3,0.6-0.7,0.8-1.1v-5.7h0.9v7.9H388.5z"/>
	<path d="M398.5,435.8c-0.7,0-1.2,0.2-1.5,0.6s-0.6,0.8-0.8,1.3v5.4h-0.9v-7.9h0.8l0,1.3c0.3-0.4,0.6-0.8,1-1
		c0.4-0.3,0.9-0.4,1.5-0.4c0.6,0,1.1,0.1,1.5,0.4c0.4,0.2,0.7,0.6,0.9,1.2c0.3-0.4,0.6-0.8,1.1-1.1s1-0.4,1.6-0.4
		c0.8,0,1.5,0.2,1.9,0.7c0.5,0.5,0.7,1.2,0.7,2.2v5.2h-0.9V438c0-0.8-0.2-1.4-0.5-1.7c-0.4-0.3-0.8-0.4-1.4-0.4
		c-0.7,0-1.3,0.2-1.7,0.7c-0.4,0.5-0.6,0.9-0.6,1.4v5.2h-0.9v-5.2c0-0.8-0.2-1.3-0.5-1.6S399,435.8,398.5,435.8z"/>
	<path d="M411.9,435.8c-0.6,0-1.1,0.2-1.5,0.6c-0.4,0.4-0.7,0.8-0.8,1.3v5.4h-0.9v-7.9h0.8l0,1.3c0.3-0.4,0.6-0.8,1.1-1.1
		c0.4-0.3,0.9-0.4,1.5-0.4c0.8,0,1.4,0.2,1.9,0.7c0.4,0.4,0.7,1.2,0.7,2.2v5.2h-0.9V438c0-0.8-0.2-1.4-0.5-1.7
		C412.9,436,412.4,435.8,411.9,435.8z"/>
	<path d="M416.4,439.3v-0.2c0-1.2,0.3-2.1,1-2.9c0.6-0.8,1.5-1.1,2.6-1.1c1.1,0,1.9,0.4,2.6,1.1c0.6,0.8,1,1.7,1,2.9v0.2
		c0,1.2-0.3,2.1-1,2.9c-0.6,0.8-1.5,1.1-2.6,1.1c-1.1,0-1.9-0.4-2.6-1.1S416.4,440.5,416.4,439.3z M417.3,439.1v0.2
		c0,0.9,0.2,1.6,0.7,2.3c0.5,0.6,1.1,1,2,1c0.9,0,1.5-0.3,2-1c0.5-0.6,0.7-1.4,0.7-2.3v-0.2c0-0.9-0.2-1.6-0.7-2.3s-1.1-1-2-1
		c-0.9,0-1.5,0.3-2,1C417.5,437.5,417.3,438.2,417.3,439.1z"/>
	<path d="M424.8,436v-0.8h5.8v0.6l-4.8,6.5h5.1v0.7h-6.2v-0.7l4.8-6.5H424.8z M426.5,432l1.3,1.4l1.3-1.4h0.8v0.1l-1.7,1.9h-0.6
		l-1.7-1.9V432H426.5z"/>
	<path d="M437.2,441.1c0-0.3-0.1-0.6-0.4-0.9c-0.3-0.3-0.8-0.5-1.7-0.7s-1.6-0.4-2-0.8s-0.7-0.8-0.7-1.5c0-0.6,0.2-1.1,0.8-1.5
		c0.5-0.4,1.2-0.6,2-0.6c0.9,0,1.6,0.2,2.2,0.7c0.5,0.4,0.8,1,0.8,1.7h-0.9c0-0.4-0.2-0.8-0.5-1.1s-0.9-0.5-1.5-0.5
		c-0.7,0-1.2,0.1-1.5,0.4s-0.4,0.6-0.4,0.9c0,0.4,0.1,0.6,0.4,0.9c0.3,0.2,0.8,0.5,1.7,0.7c1,0.2,1.7,0.5,2.1,0.9
		c0.4,0.4,0.7,0.8,0.7,1.5c0,0.7-0.3,1.2-0.8,1.6c-0.5,0.4-1.2,0.6-2.1,0.6c-1,0-1.8-0.2-2.3-0.7c-0.5-0.5-0.8-1-0.8-1.7h0.9
		c0,0.6,0.3,1.1,0.8,1.3s1,0.3,1.5,0.3c0.7,0,1.2-0.1,1.5-0.4C437,441.8,437.2,441.5,437.2,441.1z"/>
	<path d="M443.2,443.2c-0.2,0.1-0.5,0.1-0.9,0.1c-0.5,0-0.9-0.1-1.2-0.4c-0.3-0.3-0.5-0.8-0.5-1.6V436h-1.5v-0.7h1.5v-2h0.9v2h1.6
		v0.7h-1.6v5.3c0,0.6,0.1,0.9,0.3,1.1c0.2,0.2,0.4,0.2,0.7,0.2c0.1,0,0.3,0,0.4,0c0.1,0,0.2,0,0.3-0.1L443.2,443.2z"/>
	<path d="M450.7,435.2l-3,7.9H447l-3-7.9h0.9l2.4,6.7l2.4-6.7H450.7z"/>
	<path d="M452.1,434.1l1.4-2h1.1l-1.7,2H452.1z M453.1,435.2v7.9h-0.9v-7.9H453.1z"/>
	<path d="M101.1,463.3c-0.6,0-1-0.1-1.5-0.3c-0.4-0.2-0.8-0.5-1-0.8v4.1h-0.9v-11h0.8l0,1.1c0.3-0.4,0.6-0.7,1-0.9
		c0.4-0.2,0.9-0.3,1.5-0.3c1,0,1.7,0.4,2.2,1.1c0.5,0.7,0.8,1.7,0.8,2.9v0.2c0,1.2-0.3,2.1-0.8,2.9
		C102.8,462.9,102,463.3,101.1,463.3z M100.9,455.9c-0.6,0-1.1,0.2-1.5,0.5s-0.6,0.7-0.8,1.1v3.8c0.2,0.4,0.5,0.7,0.8,1
		s0.9,0.4,1.4,0.4c0.8,0,1.4-0.3,1.8-0.9c0.4-0.6,0.6-1.4,0.6-2.3v-0.2c0-0.9-0.2-1.7-0.6-2.3C102.3,456.2,101.7,455.9,100.9,455.9z
		"/>
	<path d="M105.5,459.3v-0.2c0-1.2,0.3-2.1,1-2.9c0.6-0.8,1.5-1.1,2.6-1.1c1.1,0,1.9,0.4,2.6,1.1c0.6,0.8,1,1.7,1,2.9v0.2
		c0,1.2-0.3,2.1-1,2.9c-0.6,0.8-1.5,1.1-2.6,1.1c-1.1,0-1.9-0.4-2.6-1.1S105.5,460.5,105.5,459.3z M106.4,459.1v0.2
		c0,0.9,0.2,1.6,0.7,2.3c0.5,0.6,1.1,1,2,1c0.9,0,1.5-0.3,2-1c0.5-0.6,0.7-1.4,0.7-2.3v-0.2c0-0.9-0.2-1.6-0.7-2.3s-1.1-1-2-1
		c-0.9,0-1.5,0.3-2,1C106.7,457.5,106.4,458.2,106.4,459.1z"/>
	<path d="M120.1,455.2l-3,7.9h-0.7l-3-7.9h0.9l2.4,6.7l2.4-6.7H120.1z"/>
	<path d="M120.9,459.3v-0.2c0-1.2,0.3-2.1,1-2.9c0.6-0.8,1.5-1.1,2.6-1.1c1.1,0,1.9,0.4,2.6,1.1c0.6,0.8,1,1.7,1,2.9v0.2
		c0,1.2-0.3,2.1-1,2.9c-0.6,0.8-1.5,1.1-2.6,1.1c-1.1,0-1.9-0.4-2.6-1.1S120.9,460.5,120.9,459.3z M121.8,459.1v0.2
		c0,0.9,0.2,1.6,0.7,2.3c0.5,0.6,1.1,1,2,1c0.9,0,1.5-0.3,2-1c0.5-0.6,0.7-1.4,0.7-2.3v-0.2c0-0.9-0.2-1.6-0.7-2.3s-1.1-1-2-1
		c-0.9,0-1.5,0.3-2,1C122.1,457.5,121.8,458.2,121.8,459.1z"/>
	<path d="M130.8,451.9v11.2h-0.9v-11.2H130.8z"/>
	<path d="M139.1,461.9c-0.3,0.4-0.6,0.7-1.1,1c-0.5,0.3-1,0.4-1.7,0.4c-1,0-1.9-0.4-2.5-1.1s-1-1.7-1-2.8v-0.3c0-1.2,0.3-2.2,1-2.9
		c0.7-0.7,1.5-1.1,2.4-1.1c1,0,1.8,0.3,2.3,1c0.5,0.7,0.8,1.5,0.8,2.6v0.5h-5.7v0.2c0,0.9,0.2,1.6,0.8,2.2c0.5,0.6,1.2,0.9,2,0.9
		c0.9,0,1.7-0.4,2.2-1.1L139.1,461.9z M136.1,455.8c-0.7,0-1.2,0.2-1.7,0.7c-0.4,0.5-0.7,1.1-0.8,1.9h4.7v-0.1
		c0-0.7-0.2-1.3-0.6-1.8C137.4,456.1,136.9,455.8,136.1,455.8z"/>
	<path d="M144.2,455.8c-0.6,0-1.1,0.2-1.5,0.6c-0.4,0.4-0.7,0.8-0.8,1.3v5.4H141v-7.9h0.8l0,1.3c0.3-0.4,0.6-0.8,1.1-1.1
		c0.4-0.3,0.9-0.4,1.5-0.4c0.8,0,1.4,0.2,1.9,0.7c0.4,0.4,0.7,1.2,0.7,2.2v5.2h-0.9V458c0-0.8-0.2-1.4-0.5-1.7
		C145.2,456,144.8,455.8,144.2,455.8z"/>
	<path d="M155.1,461.9c-0.3,0.4-0.6,0.7-1.1,1c-0.5,0.3-1,0.4-1.7,0.4c-1,0-1.9-0.4-2.5-1.1s-1-1.7-1-2.8v-0.3c0-1.2,0.3-2.2,1-2.9
		c0.7-0.7,1.5-1.1,2.4-1.1c1,0,1.8,0.3,2.3,1c0.5,0.7,0.8,1.5,0.8,2.6v0.5h-5.7v0.2c0,0.9,0.2,1.6,0.8,2.2c0.5,0.6,1.2,0.9,2,0.9
		c0.9,0,1.7-0.4,2.2-1.1L155.1,461.9z M152.1,455.8c-0.7,0-1.2,0.2-1.7,0.7c-0.4,0.5-0.7,1.1-0.8,1.9h4.7v-0.1
		c0-0.7-0.2-1.3-0.6-1.8C153.4,456.1,152.9,455.8,152.1,455.8z"/>
	<path d="M162.1,463.2l-3.2-4l-1,1v3H157v-11.2h0.9v7.2l0.8-0.9l3-3h1.1l-3.4,3.3l3.7,4.6H162.1z"/>
	<path d="M173.8,455.2l-3,7.9h-0.7l-3-7.9h0.9l2.4,6.7l2.4-6.7H173.8z"/>
	<path d="M178.4,459.3v-0.2c0-1.2,0.3-2.1,1-2.9c0.6-0.8,1.5-1.1,2.6-1.1c1.1,0,1.9,0.4,2.6,1.1c0.6,0.8,1,1.7,1,2.9v0.2
		c0,1.2-0.3,2.1-1,2.9c-0.6,0.8-1.5,1.1-2.6,1.1c-1.1,0-1.9-0.4-2.6-1.1S178.4,460.5,178.4,459.3z M179.2,459.1v0.2
		c0,0.9,0.2,1.6,0.7,2.3c0.5,0.6,1.1,1,2,1c0.9,0,1.5-0.3,2-1c0.5-0.6,0.7-1.4,0.7-2.3v-0.2c0-0.9-0.2-1.6-0.7-2.3s-1.1-1-2-1
		c-0.9,0-1.5,0.3-2,1C179.5,457.5,179.2,458.2,179.2,459.1z"/>
	<path d="M193.6,459.3c0,1.2-0.3,2.1-0.8,2.9c-0.5,0.8-1.3,1.1-2.2,1.1c-0.6,0-1.1-0.1-1.5-0.3c-0.4-0.2-0.8-0.5-1-0.9l0,1.1h-0.8
		v-11.2h0.9v4.5c0.3-0.4,0.6-0.7,1-0.9c0.4-0.2,0.9-0.3,1.5-0.3c1,0,1.7,0.4,2.2,1.1c0.5,0.7,0.8,1.7,0.8,2.9V459.3z M190.4,455.9
		c-0.7,0-1.2,0.2-1.5,0.5c-0.4,0.3-0.6,0.7-0.8,1.1v3.6c0.2,0.4,0.5,0.8,0.8,1.1s0.9,0.4,1.5,0.4c0.8,0,1.4-0.3,1.8-0.9
		c0.4-0.6,0.6-1.4,0.6-2.3v-0.2c0-0.9-0.2-1.7-0.5-2.3C191.8,456.2,191.2,455.9,190.4,455.9z"/>
	<path d="M201.4,461.9c-0.3,0.4-0.6,0.7-1.1,1c-0.5,0.3-1,0.4-1.7,0.4c-1,0-1.9-0.4-2.5-1.1s-1-1.7-1-2.8v-0.3c0-1.2,0.3-2.2,1-2.9
		c0.7-0.7,1.5-1.1,2.4-1.1c1,0,1.8,0.3,2.3,1c0.5,0.7,0.8,1.5,0.8,2.6v0.5H196v0.2c0,0.9,0.2,1.6,0.8,2.2c0.5,0.6,1.2,0.9,2,0.9
		c0.9,0,1.7-0.4,2.2-1.1L201.4,461.9z M198.5,455.8c-0.7,0-1.2,0.2-1.7,0.7c-0.4,0.5-0.7,1.1-0.8,1.9h4.7v-0.1
		c0-0.7-0.2-1.3-0.6-1.8C199.8,456.1,199.2,455.8,198.5,455.8z M197.3,452l1.3,1.4l1.3-1.4h0.8v0.1l-1.7,1.9h-0.6l-1.7-1.9V452
		H197.3z"/>
	<path d="M206.6,455.8c-0.6,0-1.1,0.2-1.5,0.6c-0.4,0.4-0.7,0.8-0.8,1.3v5.4h-0.9v-11.2h0.9v4.7c0.3-0.4,0.6-0.8,1.1-1.1
		s0.9-0.4,1.5-0.4c0.8,0,1.4,0.2,1.9,0.7c0.4,0.4,0.7,1.2,0.7,2.2v5.2h-0.9V458c0-0.8-0.2-1.4-0.5-1.7
		C207.6,456,207.1,455.8,206.6,455.8z"/>
	<path d="M216.7,463.2l0-1c-0.2,0.4-0.6,0.6-1,0.8c-0.4,0.2-0.9,0.3-1.5,0.3c-0.8,0-1.4-0.2-1.9-0.7c-0.5-0.5-0.7-1.2-0.7-2.3v-5.1
		h0.9v5.1c0,0.8,0.2,1.4,0.5,1.7c0.4,0.3,0.8,0.5,1.3,0.5c0.7,0,1.2-0.1,1.6-0.4c0.4-0.3,0.6-0.7,0.8-1.1v-5.7h0.9v7.9H216.7z"/>
	<path d="M228.5,463.2c0-0.1-0.1-0.3-0.1-0.5s0-0.4-0.1-0.6c-0.3,0.3-0.6,0.6-1.1,0.9s-1,0.4-1.6,0.4c-0.8,0-1.4-0.2-1.9-0.6
		s-0.7-1-0.7-1.6c0-0.8,0.3-1.4,1-1.8s1.5-0.7,2.6-0.7h1.6v-0.9c0-0.6-0.2-1-0.5-1.3s-0.9-0.5-1.5-0.5c-0.6,0-1.1,0.2-1.5,0.5
		s-0.6,0.7-0.6,1.1l-0.9,0c0-0.6,0.3-1.1,0.8-1.6c0.6-0.5,1.3-0.7,2.2-0.7c0.8,0,1.5,0.2,2.1,0.6c0.5,0.4,0.8,1.1,0.8,1.9v3.8
		c0,0.3,0,0.6,0.1,0.9c0,0.3,0.1,0.5,0.2,0.7v0.1H228.5z M225.7,462.5c0.6,0,1.2-0.2,1.6-0.5c0.4-0.3,0.8-0.7,1-1.1v-1.8h-1.5
		c-0.9,0-1.6,0.2-2.1,0.5s-0.8,0.7-0.8,1.3c0,0.4,0.2,0.8,0.5,1.1C224.7,462.4,225.1,462.5,225.7,462.5z"/>
	<path d="M238.4,455.8c-0.6,0-1.1,0.2-1.5,0.6c-0.4,0.4-0.7,0.8-0.8,1.3v5.4h-0.9v-7.9h0.8l0,1.3c0.3-0.4,0.6-0.8,1.1-1.1
		c0.4-0.3,0.9-0.4,1.5-0.4c0.8,0,1.4,0.2,1.9,0.7c0.4,0.4,0.7,1.2,0.7,2.2v5.2h-0.9V458c0-0.8-0.2-1.4-0.5-1.7
		C239.4,456,239,455.8,238.4,455.8z"/>
	<path d="M248.4,463.2c0-0.1-0.1-0.3-0.1-0.5s0-0.4-0.1-0.6c-0.3,0.3-0.6,0.6-1.1,0.9s-1,0.4-1.6,0.4c-0.8,0-1.4-0.2-1.9-0.6
		s-0.7-1-0.7-1.6c0-0.8,0.3-1.4,1-1.8s1.5-0.7,2.6-0.7h1.6v-0.9c0-0.6-0.2-1-0.5-1.3s-0.9-0.5-1.5-0.5c-0.6,0-1.1,0.2-1.5,0.5
		s-0.6,0.7-0.6,1.1l-0.9,0c0-0.6,0.3-1.1,0.8-1.6c0.6-0.5,1.3-0.7,2.2-0.7c0.8,0,1.5,0.2,2.1,0.6c0.5,0.4,0.8,1.1,0.8,1.9v3.8
		c0,0.3,0,0.6,0.1,0.9c0,0.3,0.1,0.5,0.2,0.7v0.1H248.4z M245.6,462.5c0.6,0,1.2-0.2,1.6-0.5c0.4-0.3,0.8-0.7,1-1.1v-1.8h-1.5
		c-0.9,0-1.6,0.2-2.1,0.5s-0.8,0.7-0.8,1.3c0,0.4,0.2,0.8,0.5,1.1C244.7,462.4,245.1,462.5,245.6,462.5z M246,454l1.4-2h1.1l-1.7,2
		H246z"/>
	<path d="M254.5,455.9c-0.6,0-1.1,0.2-1.4,0.5c-0.4,0.3-0.6,0.8-0.8,1.3v5.5h-0.9v-7.9h0.9l0,1.2c0.2-0.4,0.5-0.8,0.9-1
		c0.4-0.2,0.8-0.4,1.4-0.4c0.2,0,0.4,0,0.6,0.1l0,0.8c-0.1,0-0.2,0-0.3,0C254.7,455.9,254.6,455.9,254.5,455.9z"/>
	<path d="M261.6,463.2l0-1c-0.2,0.4-0.6,0.6-1,0.8c-0.4,0.2-0.9,0.3-1.5,0.3c-0.8,0-1.4-0.2-1.9-0.7c-0.5-0.5-0.7-1.2-0.7-2.3v-5.1
		h0.9v5.1c0,0.8,0.2,1.4,0.5,1.7c0.4,0.3,0.8,0.5,1.3,0.5c0.7,0,1.2-0.1,1.6-0.4c0.4-0.3,0.6-0.7,0.8-1.1v-5.7h0.9v7.9H261.6z
		 M258.1,452.9c0-0.4,0.1-0.7,0.4-1c0.3-0.3,0.6-0.4,1-0.4c0.4,0,0.7,0.1,1,0.4c0.3,0.3,0.4,0.6,0.4,1s-0.1,0.7-0.4,1
		s-0.6,0.4-1,0.4c-0.4,0-0.7-0.1-1-0.4C258.3,453.6,258.1,453.3,258.1,452.9z M258.7,452.9c0,0.2,0.1,0.4,0.2,0.6
		c0.2,0.2,0.4,0.2,0.6,0.2c0.2,0,0.5-0.1,0.6-0.2c0.2-0.2,0.2-0.4,0.2-0.6c0-0.2-0.1-0.5-0.2-0.6c-0.2-0.2-0.4-0.3-0.6-0.3
		c-0.2,0-0.5,0.1-0.6,0.3C258.8,452.5,258.7,452.7,258.7,452.9z"/>
	<path d="M269.5,461.1c0-0.3-0.1-0.6-0.4-0.9c-0.3-0.3-0.8-0.5-1.7-0.7s-1.6-0.4-2-0.8s-0.7-0.8-0.7-1.5c0-0.6,0.2-1.1,0.8-1.5
		c0.5-0.4,1.2-0.6,2-0.6c0.9,0,1.6,0.2,2.2,0.7c0.5,0.4,0.8,1,0.8,1.7h-0.9c0-0.4-0.2-0.8-0.5-1.1s-0.9-0.5-1.5-0.5
		c-0.7,0-1.2,0.1-1.5,0.4s-0.4,0.6-0.4,0.9c0,0.4,0.1,0.6,0.4,0.9c0.3,0.2,0.8,0.5,1.7,0.7c1,0.2,1.7,0.5,2.1,0.9
		c0.4,0.4,0.7,0.8,0.7,1.5c0,0.7-0.3,1.2-0.8,1.6c-0.5,0.4-1.2,0.6-2.1,0.6c-1,0-1.8-0.2-2.3-0.7c-0.5-0.5-0.8-1-0.8-1.7h0.9
		c0,0.6,0.3,1.1,0.8,1.3s1,0.3,1.5,0.3c0.7,0,1.2-0.1,1.5-0.4C269.3,461.8,269.5,461.5,269.5,461.1z"/>
	<path d="M275.5,463.2c-0.2,0.1-0.5,0.1-0.9,0.1c-0.5,0-0.9-0.1-1.2-0.4c-0.3-0.3-0.5-0.8-0.5-1.6V456h-1.5v-0.7h1.5v-2h0.9v2h1.6
		v0.7h-1.6v5.3c0,0.6,0.1,0.9,0.3,1.1c0.2,0.2,0.4,0.2,0.7,0.2c0.1,0,0.3,0,0.4,0c0.1,0,0.2,0,0.3-0.1L275.5,463.2z"/>
	<path d="M282.3,463.2l0-1c-0.2,0.4-0.6,0.6-1,0.8c-0.4,0.2-0.9,0.3-1.5,0.3c-0.8,0-1.4-0.2-1.9-0.7c-0.5-0.5-0.7-1.2-0.7-2.3v-5.1
		h0.9v5.1c0,0.8,0.2,1.4,0.5,1.7c0.4,0.3,0.8,0.5,1.3,0.5c0.7,0,1.2-0.1,1.6-0.4c0.4-0.3,0.6-0.7,0.8-1.1v-5.7h0.9v7.9H282.3z"/>
	<path d="M292.4,463.3c-0.6,0-1-0.1-1.5-0.3c-0.4-0.2-0.8-0.5-1-0.8v4.1H289v-11h0.8l0,1.1c0.3-0.4,0.6-0.7,1-0.9
		c0.4-0.2,0.9-0.3,1.5-0.3c1,0,1.7,0.4,2.2,1.1c0.5,0.7,0.8,1.7,0.8,2.9v0.2c0,1.2-0.3,2.1-0.8,2.9
		C294.1,462.9,293.4,463.3,292.4,463.3z M292.2,455.9c-0.6,0-1.1,0.2-1.5,0.5s-0.6,0.7-0.8,1.1v3.8c0.2,0.4,0.5,0.7,0.8,1
		s0.9,0.4,1.4,0.4c0.8,0,1.4-0.3,1.8-0.9c0.4-0.6,0.6-1.4,0.6-2.3v-0.2c0-0.9-0.2-1.7-0.6-2.3C293.6,456.2,293,455.9,292.2,455.9z"
		/>
	<path d="M296.9,459.3v-0.2c0-1.2,0.3-2.1,1-2.9c0.6-0.8,1.5-1.1,2.6-1.1c1.1,0,1.9,0.4,2.6,1.1c0.6,0.8,1,1.7,1,2.9v0.2
		c0,1.2-0.3,2.1-1,2.9c-0.6,0.8-1.5,1.1-2.6,1.1c-1.1,0-1.9-0.4-2.6-1.1S296.9,460.5,296.9,459.3z M297.8,459.1v0.2
		c0,0.9,0.2,1.6,0.7,2.3c0.5,0.6,1.1,1,2,1c0.9,0,1.5-0.3,2-1c0.5-0.6,0.7-1.4,0.7-2.3v-0.2c0-0.9-0.2-1.6-0.7-2.3s-1.1-1-2-1
		c-0.9,0-1.5,0.3-2,1C298,457.5,297.8,458.2,297.8,459.1z"/>
	<path d="M309.1,463.3c-0.6,0-1-0.1-1.5-0.3c-0.4-0.2-0.8-0.5-1-0.8v4.1h-0.9v-11h0.8l0,1.1c0.3-0.4,0.6-0.7,1-0.9
		c0.4-0.2,0.9-0.3,1.5-0.3c1,0,1.7,0.4,2.2,1.1c0.5,0.7,0.8,1.7,0.8,2.9v0.2c0,1.2-0.3,2.1-0.8,2.9
		C310.8,462.9,310.1,463.3,309.1,463.3z M308.9,455.9c-0.6,0-1.1,0.2-1.5,0.5s-0.6,0.7-0.8,1.1v3.8c0.2,0.4,0.5,0.7,0.8,1
		s0.9,0.4,1.4,0.4c0.8,0,1.4-0.3,1.8-0.9c0.4-0.6,0.6-1.4,0.6-2.3v-0.2c0-0.9-0.2-1.7-0.6-2.3C310.3,456.2,309.7,455.9,308.9,455.9z
		"/>
	<path d="M317.2,463.2c-0.2,0.1-0.5,0.1-0.9,0.1c-0.5,0-0.9-0.1-1.2-0.4c-0.3-0.3-0.5-0.8-0.5-1.6V456h-1.5v-0.7h1.5v-2h0.9v2h1.6
		v0.7h-1.6v5.3c0,0.6,0.1,0.9,0.3,1.1c0.2,0.2,0.4,0.2,0.7,0.2c0.1,0,0.3,0,0.4,0c0.1,0,0.2,0,0.3-0.1L317.2,463.2z"/>
	<path d="M323.9,463.2c0-0.1-0.1-0.3-0.1-0.5s0-0.4-0.1-0.6c-0.3,0.3-0.6,0.6-1.1,0.9s-1,0.4-1.6,0.4c-0.8,0-1.4-0.2-1.9-0.6
		s-0.7-1-0.7-1.6c0-0.8,0.3-1.4,1-1.8s1.5-0.7,2.6-0.7h1.6v-0.9c0-0.6-0.2-1-0.5-1.3s-0.9-0.5-1.5-0.5c-0.6,0-1.1,0.2-1.5,0.5
		s-0.6,0.7-0.6,1.1l-0.9,0c0-0.6,0.3-1.1,0.8-1.6c0.6-0.5,1.3-0.7,2.2-0.7c0.8,0,1.5,0.2,2.1,0.6c0.5,0.4,0.8,1.1,0.8,1.9v3.8
		c0,0.3,0,0.6,0.1,0.9c0,0.3,0.1,0.5,0.2,0.7v0.1H323.9z M321.2,462.5c0.6,0,1.2-0.2,1.6-0.5c0.4-0.3,0.8-0.7,1-1.1v-1.8h-1.5
		c-0.9,0-1.6,0.2-2.1,0.5s-0.8,0.7-0.8,1.3c0,0.4,0.2,0.8,0.5,1.1C320.2,462.4,320.6,462.5,321.2,462.5z M321.5,454l1.4-2h1.1
		l-1.7,2H321.5z"/>
	<path d="M332.6,455.2l-3,7.9H329l-3-7.9h0.9l2.4,6.7l2.4-6.7H332.6z"/>
	<path d="M339.1,463.2l-3.2-4l-1,1v3h-0.9v-11.2h0.9v7.2l0.8-0.9l3-3h1.1l-3.4,3.3l3.7,4.6H339.1z"/>
	<path d="M343.8,464.4c-0.1,0.2-0.2,0.5-0.4,0.8c-0.2,0.3-0.4,0.6-0.7,0.8s-0.7,0.3-1.2,0.3c-0.3,0-0.5,0-0.7-0.1v-0.7
		c0.1,0,0.1,0,0.2,0c0.1,0,0.2,0,0.2,0c0.5,0,0.8-0.1,1.1-0.4c0.3-0.2,0.5-0.6,0.6-1.1l0.4-1.1l-3-7.9h1l2.5,6.7l2.3-6.7h0.9
		L343.8,464.4z"/>
	<path d="M355.6,463.3c-0.6,0-1-0.1-1.5-0.3c-0.4-0.2-0.8-0.5-1-0.8v4.1h-0.9v-11h0.8l0,1.1c0.3-0.4,0.6-0.7,1-0.9
		c0.4-0.2,0.9-0.3,1.5-0.3c1,0,1.7,0.4,2.2,1.1c0.5,0.7,0.8,1.7,0.8,2.9v0.2c0,1.2-0.3,2.1-0.8,2.9
		C357.3,462.9,356.5,463.3,355.6,463.3z M355.3,455.9c-0.6,0-1.1,0.2-1.5,0.5s-0.6,0.7-0.8,1.1v3.8c0.2,0.4,0.5,0.7,0.8,1
		s0.9,0.4,1.4,0.4c0.8,0,1.4-0.3,1.8-0.9c0.4-0.6,0.6-1.4,0.6-2.3v-0.2c0-0.9-0.2-1.7-0.6-2.3C356.7,456.2,356.1,455.9,355.3,455.9z
		"/>
	<path d="M360,459.3v-0.2c0-1.2,0.3-2.1,1-2.9c0.6-0.8,1.5-1.1,2.6-1.1c1.1,0,1.9,0.4,2.6,1.1c0.6,0.8,1,1.7,1,2.9v0.2
		c0,1.2-0.3,2.1-1,2.9c-0.6,0.8-1.5,1.1-2.6,1.1c-1.1,0-1.9-0.4-2.6-1.1S360,460.5,360,459.3z M360.9,459.1v0.2
		c0,0.9,0.2,1.6,0.7,2.3c0.5,0.6,1.1,1,2,1c0.9,0,1.5-0.3,2-1c0.5-0.6,0.7-1.4,0.7-2.3v-0.2c0-0.9-0.2-1.6-0.7-2.3s-1.1-1-2-1
		c-0.9,0-1.5,0.3-2,1C361.1,457.5,360.9,458.2,360.9,459.1z"/>
	<path d="M375.9,463.3c-0.6,0-1-0.1-1.5-0.3c-0.4-0.2-0.8-0.5-1-0.8v4.1h-0.9v-11h0.8l0,1.1c0.3-0.4,0.6-0.7,1-0.9
		c0.4-0.2,0.9-0.3,1.5-0.3c1,0,1.7,0.4,2.2,1.1c0.5,0.7,0.8,1.7,0.8,2.9v0.2c0,1.2-0.3,2.1-0.8,2.9
		C377.6,462.9,376.9,463.3,375.9,463.3z M375.7,455.9c-0.6,0-1.1,0.2-1.5,0.5s-0.6,0.7-0.8,1.1v3.8c0.2,0.4,0.5,0.7,0.8,1
		s0.9,0.4,1.4,0.4c0.8,0,1.4-0.3,1.8-0.9c0.4-0.6,0.6-1.4,0.6-2.3v-0.2c0-0.9-0.2-1.7-0.6-2.3C377.1,456.2,376.5,455.9,375.7,455.9z
		"/>
	<path d="M380.4,459.3v-0.2c0-1.2,0.3-2.1,1-2.9c0.6-0.8,1.5-1.1,2.6-1.1c1.1,0,1.9,0.4,2.6,1.1c0.6,0.8,1,1.7,1,2.9v0.2
		c0,1.2-0.3,2.1-1,2.9c-0.6,0.8-1.5,1.1-2.6,1.1c-1.1,0-1.9-0.4-2.6-1.1S380.4,460.5,380.4,459.3z M381.3,459.1v0.2
		c0,0.9,0.2,1.6,0.7,2.3c0.5,0.6,1.1,1,2,1c0.9,0,1.5-0.3,2-1c0.5-0.6,0.7-1.4,0.7-2.3v-0.2c0-0.9-0.2-1.6-0.7-2.3s-1.1-1-2-1
		c-0.9,0-1.5,0.3-2,1C381.5,457.5,381.3,458.2,381.3,459.1z"/>
	<path d="M395,455.2l-3,7.9h-0.7l-3-7.9h0.9l2.4,6.7l2.4-6.7H395z"/>
	<path d="M395.8,459.3v-0.2c0-1.2,0.3-2.1,1-2.9c0.6-0.8,1.5-1.1,2.6-1.1c1.1,0,1.9,0.4,2.6,1.1c0.6,0.8,1,1.7,1,2.9v0.2
		c0,1.2-0.3,2.1-1,2.9c-0.6,0.8-1.5,1.1-2.6,1.1c-1.1,0-1.9-0.4-2.6-1.1S395.8,460.5,395.8,459.3z M396.7,459.1v0.2
		c0,0.9,0.2,1.6,0.7,2.3c0.5,0.6,1.1,1,2,1c0.9,0,1.5-0.3,2-1c0.5-0.6,0.7-1.4,0.7-2.3v-0.2c0-0.9-0.2-1.6-0.7-2.3s-1.1-1-2-1
		c-0.9,0-1.5,0.3-2,1C396.9,457.5,396.7,458.2,396.7,459.1z"/>
	<path d="M405.7,451.9v11.2h-0.9v-11.2H405.7z"/>
	<path d="M414,461.9c-0.3,0.4-0.6,0.7-1.1,1c-0.5,0.3-1,0.4-1.7,0.4c-1,0-1.9-0.4-2.5-1.1s-1-1.7-1-2.8v-0.3c0-1.2,0.3-2.2,1-2.9
		c0.7-0.7,1.5-1.1,2.4-1.1c1,0,1.8,0.3,2.3,1c0.5,0.7,0.8,1.5,0.8,2.6v0.5h-5.7v0.2c0,0.9,0.2,1.6,0.8,2.2c0.5,0.6,1.2,0.9,2,0.9
		c0.9,0,1.7-0.4,2.2-1.1L414,461.9z M411,455.8c-0.7,0-1.2,0.2-1.7,0.7c-0.4,0.5-0.7,1.1-0.8,1.9h4.7v-0.1c0-0.7-0.2-1.3-0.6-1.8
		C412.3,456.1,411.7,455.8,411,455.8z"/>
	<path d="M419.1,455.8c-0.6,0-1.1,0.2-1.5,0.6c-0.4,0.4-0.7,0.8-0.8,1.3v5.4h-0.9v-7.9h0.8l0,1.3c0.3-0.4,0.6-0.8,1.1-1.1
		c0.4-0.3,0.9-0.4,1.5-0.4c0.8,0,1.4,0.2,1.9,0.7c0.4,0.4,0.7,1.2,0.7,2.2v5.2h-0.9V458c0-0.8-0.2-1.4-0.5-1.7
		C420.1,456,419.6,455.8,419.1,455.8z"/>
	<path d="M429.2,463.2l-3.2-4l-1,1v3h-0.9v-11.2h0.9v7.2l0.8-0.9l3-3h1.1l-3.4,3.3l3.7,4.6H429.2z"/>
	<path d="M436.4,463.2c0-0.1-0.1-0.3-0.1-0.5s0-0.4-0.1-0.6c-0.3,0.3-0.6,0.6-1.1,0.9s-1,0.4-1.6,0.4c-0.8,0-1.4-0.2-1.9-0.6
		s-0.7-1-0.7-1.6c0-0.8,0.3-1.4,1-1.8s1.5-0.7,2.6-0.7h1.6v-0.9c0-0.6-0.2-1-0.5-1.3s-0.9-0.5-1.5-0.5c-0.6,0-1.1,0.2-1.5,0.5
		s-0.6,0.7-0.6,1.1l-0.9,0c0-0.6,0.3-1.1,0.8-1.6c0.6-0.5,1.3-0.7,2.2-0.7c0.8,0,1.5,0.2,2.1,0.6c0.5,0.4,0.8,1.1,0.8,1.9v3.8
		c0,0.3,0,0.6,0.1,0.9c0,0.3,0.1,0.5,0.2,0.7v0.1H436.4z M433.7,462.5c0.6,0,1.2-0.2,1.6-0.5c0.4-0.3,0.8-0.7,1-1.1v-1.8h-1.5
		c-0.9,0-1.6,0.2-2.1,0.5s-0.8,0.7-0.8,1.3c0,0.4,0.2,0.8,0.5,1.1C432.7,462.4,433.1,462.5,433.7,462.5z M434,454l1.4-2h1.1l-1.7,2
		H434z"/>
	<path d="M442.4,462.6c0.6,0,1-0.2,1.5-0.5c0.4-0.3,0.7-0.8,0.7-1.4h0.8c0,0.8-0.4,1.4-0.9,1.9s-1.3,0.7-2.1,0.7
		c-1.1,0-2-0.4-2.5-1.1s-0.9-1.7-0.9-2.8V459c0-1.1,0.3-2.1,0.9-2.8s1.4-1.1,2.5-1.1c0.8,0,1.6,0.3,2.1,0.8c0.6,0.5,0.9,1.2,0.9,2.1
		h-0.8c0-0.6-0.3-1.1-0.7-1.5c-0.4-0.4-0.9-0.6-1.5-0.6c-0.9,0-1.5,0.3-1.9,1s-0.6,1.4-0.6,2.2v0.3c0,0.8,0.2,1.6,0.6,2.2
		C440.8,462.2,441.5,462.6,442.4,462.6z"/>
	<path d="M450.4,455.8c-0.6,0-1.1,0.2-1.5,0.6c-0.4,0.4-0.7,0.8-0.8,1.3v5.4h-0.9v-11.2h0.9v4.7c0.3-0.4,0.6-0.8,1.1-1.1
		s0.9-0.4,1.5-0.4c0.8,0,1.4,0.2,1.9,0.7c0.4,0.4,0.7,1.2,0.7,2.2v5.2h-0.9V458c0-0.8-0.2-1.4-0.5-1.7
		C451.5,456,451,455.8,450.4,455.8z"/>
</g>
<path class="st22" d="M107.7,85.9v281.4"/>
<path class="st22" d="M184,85.9v281.4"/>
<path class="st22" d="M261,85.9v281.4"/>
<path class="st22" d="M338,85.9v281.4"/>
<path class="st22" d="M415.1,85.9v281.4"/>
<path class="st22" d="M492.1,85.9v281.4"/>
<path class="st22" d="M37.3,367.7h466"/>
<path class="st22" d="M37.3,317.1h466"/>
<path class="st22" d="M37.3,265.5h466"/>
<path class="st22" d="M37.3,214.8h466"/>
<path class="st22" d="M37.3,164.1h466"/>
<path class="st22" d="M37.3,113.5h466"/>
<path class="st23" d="M37.3,326.7l2.1-9.4l2.1-14.4l2.1,9.3l2.1-5.1l2.1,2.5l2.1,1.8l2.1,6l2.1-5.3l2.1-12.7l2.1,0.4l2.1-1.9l2.1,35
	l2.1-8l2.1,2.2l2.1-1l2.1,0.6l2.1,7.8l2.1,4.8l2.1,7.5l2.1,3.8l2.1,10.8l2.1,3.6l2.1-0.9l2.1,2l2.1,0.6l2.1,0.4L95,367l2.1,0
	l2.1,0.1l2.1,0l2.1,0.2l2.1-57l2.1,8.4l2.1-5.6l2.1-2.4l2.1-4.1l2.1-5.7l2.1-6.8l2.1,17.1l2.1-8l2.1,7.2l2.1,11.2l2.1,6.2l2.1-1
	l2.1,10.3l2.1,4.5l2.1-4.2l2.1-6.4l2.1-1.7l2.1,4.2l2.1-1.1l2.1-3.1l2.1,4l2.1-3l2.1,3.6l2.1,1.6l2.1-0.8l2.1-0.4l2.1,0.4l2.1-7.9
	l2.1,2.1l2.1-0.4l2.1,2.8l2.1-2.9l2.1-0.4l2.1,2l2.1-0.3l2.1,1.3l2.1-1.9l2.1-1.4l2.1-4.5l2.1,0.4l2.1,0.4l2.1,8.8l2.1,3.3l2.1-1.8
	l2.1,5.6l2.1,1.5l2.1,4.6l2.1,2.6l2.1-1.8l2.1-1.3l2.1,3.7l2.1-1.2l2.1,3.2l2.1-4.9l2.1,3.4l2.1-2.9l2.1,0.3l2.1-0.7l2.1,5.2
	l2.1-1.2l2.1,8.3l2.1-3.8l2.1,0.2l2.1,4.3l2.1-2.1l2.1-0.7l2.1-0.3l2.1-0.6l2.1-1.2l2.1,0.6l2.1,1.1l2.1-1.5l2.1-1.6l2.1-4l2.1,6.2
	l2.1-1.9l2.1,0.9l2.1-1.9l2.1-0.9l2.1-0.5l2.1,1.5l2.1-1.3l2.1-1.8l2.1-0.8l2.1,0.5h2.1l2.1,0.5l2.1-1.2l2.1,0.2l2.1-0.3l2.1-1.1
	l2.1-0.5l2.1-0.2l2.1-1.2l2.1,0.2l2.1,0.7l2.1,5.7l2.1,2.7l2.1-0.5l2.1-2.4l2.1,0.2l2.1,4.2l2.1,0.1l2.1-0.1l2.1-1.2l2.1-2.4
	l2.1,3.4l2.1-5.1l2.1,3.1l2.1,0.3l2.1,1.4l2.1,0.3l2.1-1l2.1-0.1l2.1-0.5l2.1-1.8l2.1-2.9l2.1-0.8l2.1-0.4l2.1-1.7l2.1-2.8l2.1-2.1
	l2.1-8.1l2.1-0.8l2.1-3.4l2.1-0.2l2.1-6.1l2.1-9.4l2.1-0.3l2.1,12.4l2.1-10.5l2.1-11.5l2.1,6.9l2.1,1.6l2.1,0.4l2.1-12.1l2.1,4.7
	l2.1-4.6l2.1-4.3l2.1,4.2l2.1,4.1l2.1-2.3l2.1,1l2.1,1.5l2.1,1.9l2.1,0.7l2.1,15.1l2.1-4.8l2.1-4.7l2.1-14.2l2.1,1.8l2.1-6.1
	l2.1,4.4l2.1,8.2l2.1-13.8l2.1-9.1l2.1-0.6l2.1-11l2.1-13.4l2.1-16l2.1-7.3l2.1-11.9l2.1,7.7l2.1-18.9l2.1-2.5l2.1,7.7l2.1-42.4
	l2.1-13.4l2.1-21.9l2.1,17.9l2.1,14.6l2.1-20.3l2.1,1.1l2.1-15.6l2.1,29.6l2.1-3.8l2.1,33.9l2.1-33.7l2.1-12l2.1-8.4l2.1-23.2
	l2.1-19.6l2.1,22.1l2.1,11.8l2.1,16.5l2.1-19.5"/>
</svg>
