<svg id="Layer_1" data-name="Layer 1" xmlns="http://www.w3.org/2000/svg" viewBox="0 0 740 391.468"><defs><style>.cls-1,.cls-2,.cls-3,.cls-5,.cls-9{fill:none;}.cls-1{stroke:#ccc;}.cls-1,.cls-5,.cls-9{stroke-miterlimit:10;}.cls-1,.cls-9{stroke-width:2px;}.cls-2{stroke:#666;stroke-width:0.664px;}.cls-2,.cls-3,.cls-9{stroke-linecap:square;}.cls-3{stroke:#808285;stroke-linejoin:round;stroke-width:0.3px;stroke-dasharray:5.688;}.cls-4{fill:#231f20;opacity:0.1;}.cls-5{stroke:#939598;}.cls-6{fill:#939598;}.cls-7{fill:#999;}.cls-8{fill:#fff;}.cls-9{stroke:#000;}</style></defs><line class="cls-1" x1="729.298" y1="233.582" x2="729.298" y2="355.013"/><path d="M60.812,377.534h-6.68v-.674l3.654-4.145a9.545,9.545,0,0,0,1.26-1.729,2.882,2.882,0,0,0,.351-1.325,2.15,2.15,0,0,0-.593-1.6,2.211,2.211,0,0,0-1.633-.59,2.3,2.3,0,0,0-1.739.688,2.465,2.465,0,0,0-.663,1.787H53.9a3.338,3.338,0,0,1,.407-1.64,2.911,2.911,0,0,1,1.157-1.161,3.429,3.429,0,0,1,1.71-.421,3.221,3.221,0,0,1,2.289.769,2.726,2.726,0,0,1,.824,2.094,3.549,3.549,0,0,1-.466,1.634,12.089,12.089,0,0,1-1.636,2.212l-2.974,3.361h5.6Z"/><path d="M68.874,373.089a5.9,5.9,0,0,1-.827,3.424,3.133,3.133,0,0,1-4.863.021,5.679,5.679,0,0,1-.865-3.336v-1.912a5.8,5.8,0,0,1,.835-3.405,3.162,3.162,0,0,1,4.857-.04,5.589,5.589,0,0,1,.863,3.292ZM68,371.177a5.2,5.2,0,0,0-.6-2.769,2.2,2.2,0,0,0-3.592-.022,5.035,5.035,0,0,0-.616,2.7v2.1a5.193,5.193,0,0,0,.62,2.79,2.005,2.005,0,0,0,1.8.966A1.975,1.975,0,0,0,67.384,376,5.217,5.217,0,0,0,68,373.228Z"/><path d="M74.837,377.534h-.879v-9.609L71.058,369v-.82l3.632-1.348h.147Z"/><path d="M81.019,371.726h.908a3.049,3.049,0,0,0,1.318-.267,2.024,2.024,0,0,0,.861-.732,1.954,1.954,0,0,0,.3-1.074,2.166,2.166,0,0,0-.579-1.6,2.25,2.25,0,0,0-1.663-.579,2.385,2.385,0,0,0-1.681.6,2.068,2.068,0,0,0-.655,1.593h-.879a2.846,2.846,0,0,1,.418-1.513,2.807,2.807,0,0,1,1.157-1.058,3.6,3.6,0,0,1,1.64-.373,3.183,3.183,0,0,1,2.285.791,2.842,2.842,0,0,1,.836,2.168A2.313,2.313,0,0,1,84.8,371.1a2.924,2.924,0,0,1-1.337.97,2.746,2.746,0,0,1,1.509.956,2.6,2.6,0,0,1,.512,1.616,2.873,2.873,0,0,1-.893,2.2,3.361,3.361,0,0,1-2.388.835,3.988,3.988,0,0,1-1.747-.381,2.822,2.822,0,0,1-1.666-2.658h.879a2.128,2.128,0,0,0,.71,1.658,2.616,2.616,0,0,0,1.824.64,2.513,2.513,0,0,0,1.769-.582,2.172,2.172,0,0,0,.634-1.687,2,2,0,0,0-.685-1.634,3.115,3.115,0,0,0-2.019-.563h-.878Z"/><path d="M136.3,377.535h-6.68v-.674l3.654-4.145a9.545,9.545,0,0,0,1.26-1.729,2.871,2.871,0,0,0,.352-1.325,2.147,2.147,0,0,0-.594-1.6,2.209,2.209,0,0,0-1.633-.59,2.3,2.3,0,0,0-1.739.688,2.469,2.469,0,0,0-.663,1.787h-.871a3.348,3.348,0,0,1,.406-1.64,2.917,2.917,0,0,1,1.157-1.161,3.432,3.432,0,0,1,1.71-.421,3.219,3.219,0,0,1,2.289.769,2.726,2.726,0,0,1,.824,2.094,3.559,3.559,0,0,1-.465,1.634,12.186,12.186,0,0,1-1.637,2.212L130.7,376.8h5.6Z"/><path d="M144.361,373.09a5.9,5.9,0,0,1-.827,3.424,3.133,3.133,0,0,1-4.863.021,5.674,5.674,0,0,1-.864-3.336v-1.912a5.789,5.789,0,0,1,.835-3.4,3.161,3.161,0,0,1,4.856-.04,5.574,5.574,0,0,1,.863,3.292Zm-.879-1.912a5.207,5.207,0,0,0-.6-2.769,2.206,2.206,0,0,0-3.593-.022,5.044,5.044,0,0,0-.615,2.7v2.1a5.2,5.2,0,0,0,.619,2.79,2.007,2.007,0,0,0,1.8.966,1.973,1.973,0,0,0,1.775-.944,5.208,5.208,0,0,0,.611-2.768Z"/><path d="M150.324,377.535h-.879v-9.609l-2.9,1.076v-.82l3.633-1.348h.146Z"/><path d="M155.151,372.071l.521-5.2H161v.813h-4.578l-.373,3.6a3.467,3.467,0,0,1,2.006-.586,2.969,2.969,0,0,1,2.3.938,3.562,3.562,0,0,1,.857,2.5,3.778,3.778,0,0,1-.835,2.615,3,3,0,0,1-2.352.93,3.249,3.249,0,0,1-2.256-.777,3.172,3.172,0,0,1-.988-2.175h.842a2.534,2.534,0,0,0,.74,1.652,2.376,2.376,0,0,0,1.662.559,2.084,2.084,0,0,0,1.726-.724,3.229,3.229,0,0,0,.582-2.066,2.79,2.79,0,0,0-.651-1.911,2.256,2.256,0,0,0-1.781-.74,3.391,3.391,0,0,0-1.084.157,2.963,2.963,0,0,0-.973.613Z"/><path d="M211.786,377.534h-6.68v-.674l3.655-4.145a9.645,9.645,0,0,0,1.26-1.729,2.882,2.882,0,0,0,.351-1.325,2.147,2.147,0,0,0-.594-1.6,2.207,2.207,0,0,0-1.632-.59,2.305,2.305,0,0,0-1.74.688,2.469,2.469,0,0,0-.663,1.787h-.871a3.348,3.348,0,0,1,.406-1.64,2.92,2.92,0,0,1,1.158-1.161,3.429,3.429,0,0,1,1.71-.421,3.221,3.221,0,0,1,2.289.769,2.729,2.729,0,0,1,.824,2.094,3.549,3.549,0,0,1-.466,1.634,12.1,12.1,0,0,1-1.637,2.212l-2.973,3.361h5.6Z"/><path d="M219.85,373.089a5.9,5.9,0,0,1-.828,3.424,3.133,3.133,0,0,1-4.863.021,5.687,5.687,0,0,1-.864-3.336v-1.912a5.789,5.789,0,0,1,.835-3.405,3.161,3.161,0,0,1,4.856-.04,5.581,5.581,0,0,1,.864,3.292Zm-.879-1.912a5.206,5.206,0,0,0-.6-2.769,2.206,2.206,0,0,0-3.593-.022,5.044,5.044,0,0,0-.615,2.7v2.1a5.2,5.2,0,0,0,.619,2.79,2.007,2.007,0,0,0,1.8.966,1.973,1.973,0,0,0,1.775-.944,5.207,5.207,0,0,0,.612-2.768Z"/><path d="M225.812,377.534h-.879v-9.609l-2.9,1.076v-.82l3.633-1.348h.147Z"/><path d="M236.614,367.376l-4.555,10.158h-.916l4.527-9.917h-6.065v-.747h7.009Z"/><path d="M287.272,377.534h-6.679v-.674l3.654-4.145a9.6,9.6,0,0,0,1.26-1.729,2.882,2.882,0,0,0,.351-1.325,2.15,2.15,0,0,0-.593-1.6,2.211,2.211,0,0,0-1.633-.59,2.3,2.3,0,0,0-1.739.688,2.466,2.466,0,0,0-.664,1.787h-.871a3.338,3.338,0,0,1,.407-1.64,2.911,2.911,0,0,1,1.157-1.161,3.429,3.429,0,0,1,1.71-.421,3.221,3.221,0,0,1,2.289.769,2.726,2.726,0,0,1,.824,2.094,3.549,3.549,0,0,1-.466,1.634,12.089,12.089,0,0,1-1.636,2.212l-2.974,3.361h5.6Z"/><path d="M295.336,373.089a5.9,5.9,0,0,1-.827,3.424,3.133,3.133,0,0,1-4.863.021,5.679,5.679,0,0,1-.865-3.336v-1.912a5.8,5.8,0,0,1,.835-3.405,3.162,3.162,0,0,1,4.857-.04,5.589,5.589,0,0,1,.863,3.292Zm-.879-1.912a5.2,5.2,0,0,0-.6-2.769,2.2,2.2,0,0,0-3.592-.022,5.035,5.035,0,0,0-.616,2.7v2.1a5.2,5.2,0,0,0,.619,2.79,2.008,2.008,0,0,0,1.8.966,1.975,1.975,0,0,0,1.776-.944,5.217,5.217,0,0,0,.611-2.768Z"/><path d="M301.3,377.534h-.879v-9.609l-2.9,1.076v-.82l3.632-1.348h.147Z"/><path d="M311,372.6a3.3,3.3,0,0,1-1.164,1.065,3.115,3.115,0,0,1-1.51.377,2.788,2.788,0,0,1-1.6-.469,3.05,3.05,0,0,1-1.077-1.3,4.268,4.268,0,0,1-.38-1.809,4.434,4.434,0,0,1,.406-1.918,3.187,3.187,0,0,1,1.135-1.345,3.279,3.279,0,0,1,4.178.645,5.016,5.016,0,0,1,.894,3.19v.791a6.558,6.558,0,0,1-1.231,4.336,4.652,4.652,0,0,1-3.757,1.449h-.161l.007-.761h.308a3.9,3.9,0,0,0,2.908-1.084A4.644,4.644,0,0,0,311,372.6Zm-2.564.68a2.579,2.579,0,0,0,1.579-.521,2.843,2.843,0,0,0,.993-1.356v-.5a4.1,4.1,0,0,0-.678-2.517,2.176,2.176,0,0,0-1.828-.895,2.088,2.088,0,0,0-1.706.837,3.279,3.279,0,0,0-.667,2.108,3.19,3.19,0,0,0,.641,2.034A2.019,2.019,0,0,0,308.438,373.278Z"/><path d="M362.76,377.534h-6.68v-.674l3.654-4.145a9.545,9.545,0,0,0,1.26-1.729,2.871,2.871,0,0,0,.352-1.325,2.151,2.151,0,0,0-.594-1.6,2.211,2.211,0,0,0-1.633-.59,2.3,2.3,0,0,0-1.739.688,2.469,2.469,0,0,0-.663,1.787h-.871a3.337,3.337,0,0,1,.406-1.64,2.911,2.911,0,0,1,1.157-1.161,3.429,3.429,0,0,1,1.71-.421,3.219,3.219,0,0,1,2.289.769,2.726,2.726,0,0,1,.824,2.094,3.559,3.559,0,0,1-.465,1.634,12.151,12.151,0,0,1-1.637,2.212l-2.974,3.361h5.6Z"/><path d="M370.822,373.089a5.9,5.9,0,0,1-.827,3.424,3.133,3.133,0,0,1-4.863.021,5.672,5.672,0,0,1-.864-3.336v-1.912a5.789,5.789,0,0,1,.835-3.405,3.161,3.161,0,0,1,4.856-.04,5.574,5.574,0,0,1,.863,3.292Zm-.879-1.912a5.207,5.207,0,0,0-.6-2.769,2.206,2.206,0,0,0-3.593-.022,5.035,5.035,0,0,0-.615,2.7v2.1a5.2,5.2,0,0,0,.619,2.79,2.007,2.007,0,0,0,1.8.966,1.973,1.973,0,0,0,1.775-.944,5.217,5.217,0,0,0,.611-2.768Z"/><path d="M379.386,377.534h-6.68v-.674l3.654-4.145a9.545,9.545,0,0,0,1.26-1.729,2.883,2.883,0,0,0,.352-1.325,2.151,2.151,0,0,0-.594-1.6,2.211,2.211,0,0,0-1.633-.59,2.3,2.3,0,0,0-1.739.688,2.465,2.465,0,0,0-.663,1.787h-.871a3.337,3.337,0,0,1,.406-1.64,2.911,2.911,0,0,1,1.157-1.161,3.429,3.429,0,0,1,1.71-.421,3.219,3.219,0,0,1,2.289.769,2.726,2.726,0,0,1,.824,2.094,3.559,3.559,0,0,1-.465,1.634,12.151,12.151,0,0,1-1.637,2.212l-2.974,3.361h5.6Z"/><path d="M385.1,377.534h-.879v-9.609l-2.9,1.076v-.82l3.633-1.348h.147Z"/><path d="M438.247,377.534h-6.68v-.674l3.655-4.145a9.58,9.58,0,0,0,1.259-1.729,2.871,2.871,0,0,0,.352-1.325,2.147,2.147,0,0,0-.594-1.6,2.207,2.207,0,0,0-1.633-.59,2.3,2.3,0,0,0-1.739.688,2.469,2.469,0,0,0-.663,1.787h-.871a3.348,3.348,0,0,1,.406-1.64,2.924,2.924,0,0,1,1.157-1.161,3.432,3.432,0,0,1,1.71-.421,3.222,3.222,0,0,1,2.29.769,2.729,2.729,0,0,1,.824,2.094,3.561,3.561,0,0,1-.466,1.634,12.151,12.151,0,0,1-1.637,2.212l-2.973,3.361h5.6Z"/><path d="M446.311,373.089a5.9,5.9,0,0,1-.828,3.424,3.133,3.133,0,0,1-4.863.021,5.687,5.687,0,0,1-.864-3.336v-1.912a5.789,5.789,0,0,1,.835-3.405,3.161,3.161,0,0,1,4.856-.04,5.581,5.581,0,0,1,.864,3.292Zm-.879-1.912a5.206,5.206,0,0,0-.6-2.769,2.206,2.206,0,0,0-3.593-.022,5.044,5.044,0,0,0-.615,2.7v2.1a5.2,5.2,0,0,0,.619,2.79,2.007,2.007,0,0,0,1.8.966A1.973,1.973,0,0,0,444.82,376a5.207,5.207,0,0,0,.612-2.768Z"/><path d="M454.873,377.534h-6.68v-.674l3.655-4.145a9.58,9.58,0,0,0,1.259-1.729,2.871,2.871,0,0,0,.352-1.325,2.147,2.147,0,0,0-.594-1.6,2.207,2.207,0,0,0-1.633-.59,2.3,2.3,0,0,0-1.739.688,2.469,2.469,0,0,0-.663,1.787h-.871a3.348,3.348,0,0,1,.406-1.64,2.917,2.917,0,0,1,1.157-1.161,3.432,3.432,0,0,1,1.71-.421,3.218,3.218,0,0,1,2.289.769,2.726,2.726,0,0,1,.825,2.094,3.561,3.561,0,0,1-.466,1.634,12.151,12.151,0,0,1-1.637,2.212l-2.973,3.361h5.6Z"/><path d="M458.453,371.726h.908a3.054,3.054,0,0,0,1.319-.267,2.024,2.024,0,0,0,.861-.732,1.962,1.962,0,0,0,.3-1.074,2.166,2.166,0,0,0-.579-1.6,2.252,2.252,0,0,0-1.663-.579,2.383,2.383,0,0,0-1.681.6,2.068,2.068,0,0,0-.655,1.593h-.879a2.846,2.846,0,0,1,.418-1.513,2.8,2.8,0,0,1,1.156-1.058,3.6,3.6,0,0,1,1.641-.373,3.186,3.186,0,0,1,2.285.791,2.842,2.842,0,0,1,.836,2.168,2.308,2.308,0,0,1-.488,1.417,2.921,2.921,0,0,1-1.336.97,2.74,2.74,0,0,1,1.508.956,2.6,2.6,0,0,1,.513,1.616,2.877,2.877,0,0,1-.893,2.2,3.361,3.361,0,0,1-2.388.835,3.988,3.988,0,0,1-1.747-.381,2.818,2.818,0,0,1-1.666-2.658h.879a2.128,2.128,0,0,0,.71,1.658,2.615,2.615,0,0,0,1.824.64,2.51,2.51,0,0,0,1.768-.582,2.172,2.172,0,0,0,.634-1.687,2,2,0,0,0-.684-1.634,3.115,3.115,0,0,0-2.019-.563h-.879Z"/><path d="M513.733,377.534h-6.679v-.674l3.654-4.145a9.645,9.645,0,0,0,1.26-1.729,2.882,2.882,0,0,0,.351-1.325,2.15,2.15,0,0,0-.593-1.6,2.211,2.211,0,0,0-1.633-.59,2.3,2.3,0,0,0-1.739.688,2.466,2.466,0,0,0-.664,1.787h-.871a3.338,3.338,0,0,1,.407-1.64,2.911,2.911,0,0,1,1.157-1.161,3.429,3.429,0,0,1,1.71-.421,3.221,3.221,0,0,1,2.289.769,2.726,2.726,0,0,1,.824,2.094,3.549,3.549,0,0,1-.466,1.634,12.089,12.089,0,0,1-1.636,2.212l-2.974,3.361h5.6Z"/><path d="M521.8,373.089a5.91,5.91,0,0,1-.827,3.424,3.134,3.134,0,0,1-4.864.021,5.687,5.687,0,0,1-.864-3.336v-1.912a5.8,5.8,0,0,1,.835-3.405,3.162,3.162,0,0,1,4.857-.04,5.589,5.589,0,0,1,.863,3.292Zm-.879-1.912a5.2,5.2,0,0,0-.6-2.769,2.2,2.2,0,0,0-3.592-.022,5.035,5.035,0,0,0-.616,2.7v2.1a5.2,5.2,0,0,0,.619,2.79,2.008,2.008,0,0,0,1.8.966,1.975,1.975,0,0,0,1.776-.944,5.217,5.217,0,0,0,.611-2.768Z"/><path d="M530.359,377.534H523.68v-.674l3.654-4.145a9.645,9.645,0,0,0,1.26-1.729,2.882,2.882,0,0,0,.351-1.325,2.15,2.15,0,0,0-.593-1.6,2.211,2.211,0,0,0-1.633-.59,2.305,2.305,0,0,0-1.74.688,2.469,2.469,0,0,0-.663,1.787h-.871a3.338,3.338,0,0,1,.407-1.64,2.911,2.911,0,0,1,1.157-1.161,3.429,3.429,0,0,1,1.71-.421,3.221,3.221,0,0,1,2.289.769,2.726,2.726,0,0,1,.824,2.094,3.549,3.549,0,0,1-.466,1.634,12.056,12.056,0,0,1-1.637,2.212l-2.973,3.361h5.6Z"/><path d="M532.585,372.07l.52-5.2h5.333v.813h-4.579l-.373,3.6a3.471,3.471,0,0,1,2.006-.586,2.971,2.971,0,0,1,2.3.938,3.567,3.567,0,0,1,.856,2.5,3.778,3.778,0,0,1-.835,2.615,2.994,2.994,0,0,1-2.351.93,3.245,3.245,0,0,1-2.256-.777,3.172,3.172,0,0,1-.988-2.175h.842a2.534,2.534,0,0,0,.74,1.652,2.376,2.376,0,0,0,1.662.559,2.081,2.081,0,0,0,1.725-.724,3.229,3.229,0,0,0,.583-2.066,2.786,2.786,0,0,0-.652-1.911,2.252,2.252,0,0,0-1.78-.74,3.386,3.386,0,0,0-1.084.157,2.966,2.966,0,0,0-.974.613Z"/><path d="M589.221,377.534h-6.68v-.674l3.654-4.145a9.545,9.545,0,0,0,1.26-1.729,2.883,2.883,0,0,0,.352-1.325,2.151,2.151,0,0,0-.594-1.6,2.211,2.211,0,0,0-1.633-.59,2.3,2.3,0,0,0-1.739.688,2.465,2.465,0,0,0-.663,1.787h-.871a3.337,3.337,0,0,1,.406-1.64,2.911,2.911,0,0,1,1.157-1.161,3.429,3.429,0,0,1,1.71-.421,3.219,3.219,0,0,1,2.289.769,2.726,2.726,0,0,1,.824,2.094,3.559,3.559,0,0,1-.465,1.634,12.151,12.151,0,0,1-1.637,2.212l-2.974,3.361h5.6Z"/><path d="M597.284,373.089a5.9,5.9,0,0,1-.827,3.424,3.133,3.133,0,0,1-4.863.021,5.679,5.679,0,0,1-.865-3.336v-1.912a5.8,5.8,0,0,1,.835-3.405,3.162,3.162,0,0,1,4.857-.04,5.574,5.574,0,0,1,.863,3.292Zm-.879-1.912a5.207,5.207,0,0,0-.6-2.769,2.206,2.206,0,0,0-3.593-.022,5.026,5.026,0,0,0-.615,2.7v2.1a5.2,5.2,0,0,0,.619,2.79,2.006,2.006,0,0,0,1.8.966,1.973,1.973,0,0,0,1.775-.944,5.217,5.217,0,0,0,.611-2.768Z"/><path d="M605.847,377.534h-6.68v-.674l3.654-4.145a9.545,9.545,0,0,0,1.26-1.729,2.883,2.883,0,0,0,.352-1.325,2.151,2.151,0,0,0-.594-1.6,2.211,2.211,0,0,0-1.633-.59,2.3,2.3,0,0,0-1.739.688,2.465,2.465,0,0,0-.663,1.787h-.871a3.337,3.337,0,0,1,.406-1.64,2.911,2.911,0,0,1,1.157-1.161,3.429,3.429,0,0,1,1.71-.421,3.219,3.219,0,0,1,2.289.769,2.726,2.726,0,0,1,.824,2.094,3.559,3.559,0,0,1-.465,1.634,12.151,12.151,0,0,1-1.637,2.212l-2.974,3.361h5.6Z"/><path d="M614.049,367.376l-4.556,10.158h-.916l4.527-9.917H607.04v-.747h7.009Z"/><path d="M664.707,377.533h-6.68v-.674l3.655-4.145a9.58,9.58,0,0,0,1.259-1.729,2.871,2.871,0,0,0,.352-1.325,2.147,2.147,0,0,0-.594-1.6,2.207,2.207,0,0,0-1.633-.59,2.3,2.3,0,0,0-1.739.688,2.469,2.469,0,0,0-.663,1.787h-.871a3.348,3.348,0,0,1,.406-1.64,2.924,2.924,0,0,1,1.157-1.161,3.432,3.432,0,0,1,1.71-.421,3.222,3.222,0,0,1,2.289.769,2.726,2.726,0,0,1,.825,2.094,3.561,3.561,0,0,1-.466,1.634,12.151,12.151,0,0,1-1.637,2.212l-2.973,3.361h5.6Z"/><path d="M672.77,373.088a5.9,5.9,0,0,1-.828,3.424,3.133,3.133,0,0,1-4.863.021,5.679,5.679,0,0,1-.864-3.336v-1.912a5.789,5.789,0,0,1,.835-3.405,3.161,3.161,0,0,1,4.856-.04,5.581,5.581,0,0,1,.864,3.292Zm-.879-1.912a5.206,5.206,0,0,0-.6-2.769,2.206,2.206,0,0,0-3.593-.022,5.044,5.044,0,0,0-.615,2.7v2.095a5.2,5.2,0,0,0,.619,2.79,2.007,2.007,0,0,0,1.8.966,1.973,1.973,0,0,0,1.775-.944,5.207,5.207,0,0,0,.612-2.768Z"/><path d="M681.333,377.533h-6.68v-.674l3.655-4.145a9.58,9.58,0,0,0,1.259-1.729,2.871,2.871,0,0,0,.352-1.325,2.147,2.147,0,0,0-.594-1.6,2.207,2.207,0,0,0-1.633-.59,2.3,2.3,0,0,0-1.739.688,2.469,2.469,0,0,0-.663,1.787h-.871a3.348,3.348,0,0,1,.406-1.64,2.924,2.924,0,0,1,1.157-1.161,3.432,3.432,0,0,1,1.71-.421,3.222,3.222,0,0,1,2.289.769,2.726,2.726,0,0,1,.825,2.094,3.561,3.561,0,0,1-.466,1.634,12.151,12.151,0,0,1-1.637,2.212l-2.974,3.361h5.6Z"/><path d="M688.438,372.6a3.307,3.307,0,0,1-1.165,1.065,3.108,3.108,0,0,1-1.509.377,2.791,2.791,0,0,1-1.6-.469,3.048,3.048,0,0,1-1.076-1.3,4.254,4.254,0,0,1-.381-1.809,4.448,4.448,0,0,1,.406-1.918,3.2,3.2,0,0,1,1.135-1.345,3.28,3.28,0,0,1,4.179.645,5.016,5.016,0,0,1,.893,3.19v.791a6.564,6.564,0,0,1-1.23,4.336,4.653,4.653,0,0,1-3.758,1.449h-.16l.007-.761h.307a3.9,3.9,0,0,0,2.909-1.084A4.649,4.649,0,0,0,688.438,372.6Zm-2.564.68a2.57,2.57,0,0,0,1.578-.521,2.83,2.83,0,0,0,.993-1.356v-.5a4.1,4.1,0,0,0-.677-2.517,2.179,2.179,0,0,0-1.829-.9,2.09,2.09,0,0,0-1.706.837,3.279,3.279,0,0,0-.667,2.108,3.184,3.184,0,0,0,.642,2.034A2.018,2.018,0,0,0,685.874,373.277Z"/><path class="cls-2" d="M44.312,355.013H729.778"/><path class="cls-3" d="M5.8,355.013h723.98"/><path class="cls-3" d="M5.8,303.75h723.98"/><path class="cls-3" d="M5.8,252.487h723.98"/><path class="cls-3" d="M5.8,201.224h723.98"/><path class="cls-3" d="M5.8,149.961h723.98"/><path class="cls-3" d="M5.8,98.7h723.98"/><path d="M12.5,347.091a5.894,5.894,0,0,1-.828,3.424,2.8,2.8,0,0,1-2.438,1.168,2.826,2.826,0,0,1-2.425-1.147,5.681,5.681,0,0,1-.864-3.336v-1.912a5.8,5.8,0,0,1,.834-3.405,2.82,2.82,0,0,1,2.44-1.157,2.834,2.834,0,0,1,2.418,1.117,5.582,5.582,0,0,1,.863,3.292Zm-.879-1.912a5.206,5.206,0,0,0-.6-2.769,1.993,1.993,0,0,0-1.8-.937,2,2,0,0,0-1.787.915,5.035,5.035,0,0,0-.616,2.7v2.095a5.2,5.2,0,0,0,.62,2.79,2,2,0,0,0,1.8.966A1.975,1.975,0,0,0,11.006,350a5.238,5.238,0,0,0,.611-2.769Z"/><path d="M12.5,295.589a5.894,5.894,0,0,1-.828,3.424,2.8,2.8,0,0,1-2.438,1.168,2.826,2.826,0,0,1-2.425-1.147,5.679,5.679,0,0,1-.864-3.336v-1.912a5.8,5.8,0,0,1,.834-3.405,2.82,2.82,0,0,1,2.44-1.157,2.834,2.834,0,0,1,2.418,1.117,5.582,5.582,0,0,1,.863,3.292Zm-.879-1.912a5.206,5.206,0,0,0-.6-2.769,1.993,1.993,0,0,0-1.8-.937,2,2,0,0,0-1.787.915,5.035,5.035,0,0,0-.616,2.7v2.1a5.2,5.2,0,0,0,.62,2.79,2,2,0,0,0,1.8.966,1.975,1.975,0,0,0,1.776-.944,5.236,5.236,0,0,0,.611-2.768Z"/><path d="M14.334,302.026l-.52-.38a3.189,3.189,0,0,0,.688-1.854v-1.135h.857v.916A3.152,3.152,0,0,1,14.334,302.026Z"/><path d="M17.842,294.57l.521-5.2H23.7v.813H19.117l-.373,3.6a3.464,3.464,0,0,1,2.006-.586,2.972,2.972,0,0,1,2.3.938,3.566,3.566,0,0,1,.855,2.5,3.778,3.778,0,0,1-.834,2.615,3,3,0,0,1-2.351.93,3.245,3.245,0,0,1-2.256-.777,3.167,3.167,0,0,1-.988-2.175h.841a2.525,2.525,0,0,0,.741,1.652,2.372,2.372,0,0,0,1.662.559,2.08,2.08,0,0,0,1.724-.724,3.223,3.223,0,0,0,.582-2.066,2.785,2.785,0,0,0-.65-1.911A2.256,2.256,0,0,0,20.6,294a3.4,3.4,0,0,0-1.084.157,2.963,2.963,0,0,0-.973.613Z"/><path d="M10.145,248.535H9.266v-9.609L6.365,240v-.82L10,237.834h.147Z"/><path d="M14.334,250.527l-.52-.381a3.183,3.183,0,0,0,.688-1.853v-1.135h.857v.916A3.152,3.152,0,0,1,14.334,250.527Z"/><path d="M23.68,244.09a5.9,5.9,0,0,1-.828,3.424,2.8,2.8,0,0,1-2.438,1.168,2.828,2.828,0,0,1-2.426-1.147,5.683,5.683,0,0,1-.863-3.335v-1.912a5.8,5.8,0,0,1,.834-3.406,2.822,2.822,0,0,1,2.439-1.157,2.833,2.833,0,0,1,2.418,1.117,5.581,5.581,0,0,1,.864,3.292Zm-.879-1.912a5.194,5.194,0,0,0-.6-2.768,1.992,1.992,0,0,0-1.8-.938,2,2,0,0,0-1.787.915,5.049,5.049,0,0,0-.615,2.7v2.095a5.2,5.2,0,0,0,.619,2.79,2.006,2.006,0,0,0,1.8.966A1.976,1.976,0,0,0,22.189,247a5.227,5.227,0,0,0,.612-2.769Z"/><path d="M10.145,197.034H9.266v-9.61l-2.9,1.076v-.82L10,186.333h.147Z"/><path d="M14.334,199.026l-.52-.381a3.188,3.188,0,0,0,.688-1.853v-1.135h.857v.916A3.153,3.153,0,0,1,14.334,199.026Z"/><path d="M17.842,191.57l.521-5.2H23.7v.812H19.117l-.373,3.6a3.464,3.464,0,0,1,2.006-.586,2.972,2.972,0,0,1,2.3.937,3.566,3.566,0,0,1,.855,2.5,3.778,3.778,0,0,1-.834,2.615,2.992,2.992,0,0,1-2.351.93,3.25,3.25,0,0,1-2.256-.776,3.169,3.169,0,0,1-.988-2.175h.841a2.522,2.522,0,0,0,.741,1.651,2.373,2.373,0,0,0,1.662.56,2.078,2.078,0,0,0,1.724-.725,3.22,3.22,0,0,0,.582-2.065,2.785,2.785,0,0,0-.65-1.911A2.256,2.256,0,0,0,20.6,191a3.367,3.367,0,0,0-1.084.157,2.942,2.942,0,0,0-.973.612Z"/><path d="M12.746,145.533H6.066v-.674l3.655-4.146a9.58,9.58,0,0,0,1.259-1.728,2.875,2.875,0,0,0,.352-1.326,2.148,2.148,0,0,0-.594-1.6,2.211,2.211,0,0,0-1.633-.59,2.306,2.306,0,0,0-1.74.689,2.471,2.471,0,0,0-.662,1.787H5.832a3.349,3.349,0,0,1,.406-1.641A2.924,2.924,0,0,1,7.4,135.143a3.44,3.44,0,0,1,1.71-.421,3.233,3.233,0,0,1,2.29.769,2.732,2.732,0,0,1,.824,2.095,3.56,3.56,0,0,1-.467,1.633,12.1,12.1,0,0,1-1.637,2.212l-2.972,3.362h5.6Z"/><path d="M14.334,147.525l-.52-.381a3.186,3.186,0,0,0,.688-1.853v-1.135h.857v.915A3.153,3.153,0,0,1,14.334,147.525Z"/><path d="M23.68,141.087a5.9,5.9,0,0,1-.828,3.424,2.8,2.8,0,0,1-2.438,1.168,2.83,2.83,0,0,1-2.426-1.146,5.689,5.689,0,0,1-.863-3.336v-1.912a5.793,5.793,0,0,1,.834-3.406,2.822,2.822,0,0,1,2.439-1.157,2.835,2.835,0,0,1,2.418,1.117,5.584,5.584,0,0,1,.864,3.292Zm-.879-1.912a5.194,5.194,0,0,0-.6-2.768,1.992,1.992,0,0,0-1.8-.938,2,2,0,0,0-1.787.916,5.041,5.041,0,0,0-.615,2.7v2.095a5.2,5.2,0,0,0,.619,2.791,2.006,2.006,0,0,0,1.8.966A1.975,1.975,0,0,0,22.189,144a5.227,5.227,0,0,0,.612-2.769Z"/><path d="M12.8,94.382H6.116v-.674l3.655-4.146a9.58,9.58,0,0,0,1.259-1.728,2.875,2.875,0,0,0,.352-1.326,2.148,2.148,0,0,0-.594-1.6,2.211,2.211,0,0,0-1.633-.59,2.3,2.3,0,0,0-1.739.689,2.469,2.469,0,0,0-.663,1.787H5.882a3.349,3.349,0,0,1,.406-1.641,2.924,2.924,0,0,1,1.157-1.161,3.443,3.443,0,0,1,1.71-.421,3.227,3.227,0,0,1,2.289.769,2.729,2.729,0,0,1,.825,2.095,3.554,3.554,0,0,1-.466,1.633,12.151,12.151,0,0,1-1.637,2.212L7.192,93.642h5.6Z"/><path d="M14.384,96.374l-.52-.381a3.187,3.187,0,0,0,.689-1.853V93.005h.856v.915A3.156,3.156,0,0,1,14.384,96.374Z"/><path d="M17.893,88.918l.52-5.2h5.332v.813H19.167l-.373,3.6a3.467,3.467,0,0,1,2.006-.586,2.969,2.969,0,0,1,2.3.938,3.562,3.562,0,0,1,.856,2.5,3.778,3.778,0,0,1-.835,2.615,3,3,0,0,1-2.351.93,3.245,3.245,0,0,1-2.256-.776,3.172,3.172,0,0,1-.989-2.175h.842a2.538,2.538,0,0,0,.74,1.652,2.379,2.379,0,0,0,1.663.56,2.081,2.081,0,0,0,1.725-.726A3.224,3.224,0,0,0,23.078,91a2.8,2.8,0,0,0-.651-1.912,2.255,2.255,0,0,0-1.781-.739,3.363,3.363,0,0,0-1.084.157,2.952,2.952,0,0,0-.973.612Z"/><path d="M30.2,86.457l.03,1.289a2.943,2.943,0,0,1,1.1-1.077,3.018,3.018,0,0,1,1.465-.358,2.223,2.223,0,0,1,2.381,1.538,2.964,2.964,0,0,1,1.135-1.139,3.144,3.144,0,0,1,1.568-.4q2.548,0,2.6,2.783v5.288H39.6V89.16a2.36,2.36,0,0,0-.458-1.575,1.862,1.862,0,0,0-1.468-.513,2.337,2.337,0,0,0-1.6.612,2.162,2.162,0,0,0-.724,1.454v5.244h-.879V89.094a2.172,2.172,0,0,0-.48-1.52,1.912,1.912,0,0,0-1.454-.5,2.206,2.206,0,0,0-1.421.473,2.772,2.772,0,0,0-.879,1.4v5.435h-.879V86.457Z"/><path d="M43.674,94.382H42.8V83.132h.879Z"/><path d="M45.7,90.346a4.783,4.783,0,0,1,.824-2.941,2.653,2.653,0,0,1,2.238-1.094,2.756,2.756,0,0,1,2.446,1.267V83.132h.871v11.25h-.82l-.036-1.055a2.831,2.831,0,0,1-2.476,1.2,2.641,2.641,0,0,1-2.208-1.1,4.8,4.8,0,0,1-.839-2.977Zm.887.154a4.138,4.138,0,0,0,.607,2.392,1.969,1.969,0,0,0,1.714.875,2.359,2.359,0,0,0,2.3-1.429v-3.72a2.341,2.341,0,0,0-2.285-1.546,1.988,1.988,0,0,0-1.721.868A4.419,4.419,0,0,0,46.59,90.5Z"/><path d="M54.31,93.854a.62.62,0,0,1,.164-.435.589.589,0,0,1,.458-.18.606.606,0,0,1,.462.18.619.619,0,0,1,.168.435.567.567,0,0,1-.168.421.631.631,0,0,1-.462.165.614.614,0,0,1-.458-.165A.567.567,0,0,1,54.31,93.854Z"/><path d="M67.99,90.5a4.768,4.768,0,0,1-.82,2.94,2.61,2.61,0,0,1-2.2,1.088,2.937,2.937,0,0,1-2.491-1.142v4.043H61.61V86.457h.814l.044,1.121a2.81,2.81,0,0,1,2.482-1.267,2.636,2.636,0,0,1,2.231,1.076,4.875,4.875,0,0,1,.809,2.988Zm-.879-.154a4.083,4.083,0,0,0-.622-2.4,2.009,2.009,0,0,0-1.736-.879,2.312,2.312,0,0,0-2.271,1.516v3.8a2.326,2.326,0,0,0,.9,1.04,2.593,2.593,0,0,0,1.384.359,1.986,1.986,0,0,0,1.724-.883A4.435,4.435,0,0,0,67.111,90.346Z"/><path d="M69.448,90.3a4.656,4.656,0,0,1,.444-2.058,3.324,3.324,0,0,1,3.087-1.933,3.261,3.261,0,0,1,2.563,1.109,4.278,4.278,0,0,1,.981,2.941v.183a4.7,4.7,0,0,1-.443,2.069,3.309,3.309,0,0,1-1.248,1.417,3.427,3.427,0,0,1-1.839.5,3.262,3.262,0,0,1-2.559-1.109,4.261,4.261,0,0,1-.986-2.941Zm.879.242a3.6,3.6,0,0,0,.736,2.333,2.491,2.491,0,0,0,3.853,0,3.719,3.719,0,0,0,.736-2.406V90.3a4.024,4.024,0,0,0-.338-1.662,2.7,2.7,0,0,0-.944-1.168,2.412,2.412,0,0,0-1.391-.414,2.344,2.344,0,0,0-1.913.919,3.722,3.722,0,0,0-.739,2.406Z"/><path d="M80.691,93.173l2.41-6.716H84l-2.959,7.925h-.711l-2.974-7.925h.9Z"/><path d="M84.844,90.3a4.656,4.656,0,0,1,.443-2.058,3.324,3.324,0,0,1,3.087-1.933,3.264,3.264,0,0,1,2.564,1.109,4.278,4.278,0,0,1,.981,2.941v.183a4.709,4.709,0,0,1-.443,2.069,3.309,3.309,0,0,1-1.248,1.417,3.432,3.432,0,0,1-1.839.5,3.264,3.264,0,0,1-2.56-1.109,4.265,4.265,0,0,1-.985-2.941Zm.879.242a3.6,3.6,0,0,0,.736,2.333,2.491,2.491,0,0,0,3.853,0,3.719,3.719,0,0,0,.736-2.406V90.3a4.024,4.024,0,0,0-.338-1.662,2.71,2.71,0,0,0-.944-1.168,2.417,2.417,0,0,0-1.392-.414,2.342,2.342,0,0,0-1.912.919,3.722,3.722,0,0,0-.739,2.406Z"/><path d="M94.709,94.382H93.83V83.132h.879Z"/><path d="M100.158,94.528a3.44,3.44,0,0,1-1.827-.5,3.4,3.4,0,0,1-1.27-1.387,4.329,4.329,0,0,1-.455-2v-.314a4.661,4.661,0,0,1,.444-2.059,3.53,3.53,0,0,1,1.233-1.439A3.05,3.05,0,0,1,100,86.311a2.859,2.859,0,0,1,2.288.985,3.991,3.991,0,0,1,.847,2.691v.491H97.479v.168a3.317,3.317,0,0,0,.772,2.246,2.457,2.457,0,0,0,1.944.9,2.856,2.856,0,0,0,1.242-.257,2.75,2.75,0,0,0,.977-.82l.55.417A3.2,3.2,0,0,1,100.158,94.528Zm-.16-7.47a2.19,2.19,0,0,0-1.667.725,3.342,3.342,0,0,0-.823,1.948h4.753v-.095a2.909,2.909,0,0,0-.652-1.861A2.022,2.022,0,0,0,100,87.058Z"/><path d="M105.674,86.457l.029,1.355a3.15,3.15,0,0,1,1.113-1.117,2.888,2.888,0,0,1,1.472-.384,2.38,2.38,0,0,1,1.9.717,3.236,3.236,0,0,1,.629,2.154v5.2h-.871V89.174a2.425,2.425,0,0,0-.451-1.582,1.765,1.765,0,0,0-1.417-.52,2.219,2.219,0,0,0-1.439.509,2.986,2.986,0,0,0-.927,1.374v5.427h-.871V86.457Z"/><path d="M116.147,94.528a3.443,3.443,0,0,1-1.827-.5,3.4,3.4,0,0,1-1.27-1.387,4.329,4.329,0,0,1-.454-2v-.314a4.66,4.66,0,0,1,.443-2.059,3.53,3.53,0,0,1,1.233-1.439,3.05,3.05,0,0,1,1.715-.523,2.859,2.859,0,0,1,2.288.985,3.991,3.991,0,0,1,.847,2.691v.491h-5.654v.168a3.322,3.322,0,0,0,.772,2.246,2.458,2.458,0,0,0,1.945.9,2.855,2.855,0,0,0,1.241-.257,2.75,2.75,0,0,0,.977-.82l.55.417A3.2,3.2,0,0,1,116.147,94.528Zm-.16-7.47a2.19,2.19,0,0,0-1.667.725,3.348,3.348,0,0,0-.823,1.948h4.753v-.095a2.909,2.909,0,0,0-.651-1.861A2.025,2.025,0,0,0,115.987,87.058Z"/><path d="M122.71,90.39l-1,.967v3.025h-.879V83.132h.879v7.2l.828-.894,3.031-2.981h1.107L123.31,89.8l3.655,4.585h-1.048Z"/><path d="M17.613,13.878v13.3h-2.64V23.908c.076-1.615.132-3.229.209-4.844l-.1-.038-1.2,3.5-.665,1.8h-2.66l-.665-1.8-1.2-3.5-.095.038c.057,1.615.133,3.229.191,4.844v3.268H6.177v-13.3H8.894l2.089,5.034c.266.665.722,1.824.874,2.317h.076c.152-.493.608-1.652.874-2.317L14.9,13.878Z"/><path d="M26.791,24.972H23.979l-.436,2.2H20.75l3.191-13.3h2.888l3.192,13.3H27.229Zm-.531-2.564-.3-1.52c-.172-.95-.4-2.565-.532-3.648h-.076c-.133,1.083-.342,2.7-.533,3.648l-.3,1.52Z"/><path d="M38.324,27.176l-1.672-4.237L34.98,27.176H32.017L35.151,20.3l-2.944-6.421h2.944l1.5,3.856,1.5-3.856H41.1L38.153,20.3l3.135,6.877Z"/><path d="M44.442,13.878h2.7v13.3h-2.7Z"/><path d="M62.833,13.878v13.3H60.192V23.908c.077-1.615.133-3.229.209-4.844l-.094-.038-1.2,3.5-.665,1.8H55.785l-.665-1.8-1.2-3.5-.095.038c.057,1.615.133,3.229.191,4.844v3.268H51.4v-13.3h2.717l2.09,5.034c.266.665.722,1.824.874,2.317h.075c.153-.493.609-1.652.874-2.317l2.09-5.034Z"/><path d="M72.011,24.972H69.2l-.436,2.2H65.97l3.191-13.3h2.888l3.191,13.3H72.448ZM71.08,12.605H69.3L71.08,10h2.147Zm.4,9.8-.3-1.52c-.172-.95-.4-2.565-.532-3.648h-.077c-.132,1.083-.341,2.7-.532,3.648l-.3,1.52Z"/><path d="M85.025,24.611v2.565H78.376v-13.3h2.7V24.611Z"/><path d="M88.218,13.878h2.66L93.4,19.653c.323.836.627,1.71.95,2.546l.057-.057a45.97,45.97,0,0,1-.38-5.187V13.878H96.69v13.3H94.031l-2.242-5.149-1.2-3.248-.058.057a54.052,54.052,0,0,1,.343,5.642v2.7h-2.66Z"/><path d="M100.948,13.878h2.7v13.3h-2.7ZM102.791,10h2.147l-2.147,2.6h-1.786Z"/><path d="M125.038,13.878v13.3H122.4V23.908c.077-1.615.133-3.229.209-4.844l-.094-.038-1.2,3.5-.665,1.8H117.99l-.665-1.8-1.2-3.5-.095.038c.057,1.615.133,3.229.191,4.844v3.268H113.6v-13.3h2.716l2.09,5.034c.266.665.722,1.824.874,2.317h.075c.153-.493.609-1.652.874-2.317l2.09-5.034Z"/><path d="M129.3,13.878h2.66l2.526,5.775c.323.836.627,1.71.95,2.546l.057-.057a45.97,45.97,0,0,1-.38-5.187V13.878h2.66v13.3h-2.66l-2.242-5.149-1.2-3.248-.058.057a54.052,54.052,0,0,1,.343,5.642v2.7H129.3Z"/><path d="M141.646,22.863V18.19c0-2.85,1.615-4.54,4.312-4.54s4.313,1.69,4.313,4.54v4.673c0,2.85-1.616,4.541-4.313,4.541S141.646,25.713,141.646,22.863Zm5.832,0V18.19c0-1.253-.513-1.919-1.52-1.919s-1.52.666-1.52,1.919v4.673c0,1.254.513,1.919,1.52,1.919S147.478,24.117,147.478,22.863Z"/><path d="M160.835,24.611v2.565h-7.618v-1.8l4.217-8.929H153.54V13.878h7.2v1.861l-4.178,8.872Zm-4.6-12.006L154.7,10h1.692l.835,1.273L158.042,10h1.69l-1.538,2.6Z"/><path d="M163.458,23.3h2.773c0,1.064.532,1.52,1.387,1.52a1.164,1.164,0,0,0,1.33-1.178c0-2.2-5.206-2.469-5.206-6.516,0-2.032,1.425-3.514,3.876-3.514a3.611,3.611,0,0,1,3.933,3.913h-2.775c0-.874-.4-1.311-1.177-1.311-.7,0-1.12.38-1.12.988,0,2.09,5.281,2.223,5.281,6.459,0,2.185-1.539,3.781-4.18,3.781A3.782,3.782,0,0,1,163.458,23.3Z"/><path d="M182.361,16.442h-2.6V27.176h-2.774V16.442h-2.6V13.878h7.978Z"/><path d="M184.6,13.878H187.4l1.2,6.288c.189.969.417,2.6.551,3.7h.075c.133-1.1.361-2.735.551-3.7l1.2-6.288h2.793l-3.154,13.3h-2.849Z"/><path d="M196.9,13.878h2.7v13.3h-2.7ZM198.739,10h2.147l-2.147,2.6h-1.786Z"/><path d="M214.471,24.972h-2.812l-.436,2.2H208.43l3.191-13.3h2.888l3.191,13.3h-2.792Zm-.532-2.564-.3-1.52c-.172-.95-.4-2.565-.532-3.648h-.077c-.132,1.083-.341,2.7-.532,3.648l-.3,1.52Z"/><path d="M227.486,24.611v2.565h-6.649v-13.3h2.7V24.611Z"/><path d="M230.3,22.863V18.19c0-2.85,1.615-4.54,4.312-4.54s4.313,1.69,4.313,4.54v4.673c0,2.85-1.615,4.541-4.313,4.541S230.3,25.713,230.3,22.863Zm5.832,0V18.19c0-1.253-.513-1.919-1.52-1.919s-1.519.666-1.519,1.919v4.673c0,1.254.512,1.919,1.519,1.919S236.131,24.117,236.131,22.863Z"/><path d="M246.2,22.142l-.74,1.2v3.838H242.8v-13.3h2.66v5.091l.684-1.482,1.861-3.609h3.078L247.7,19.691l3.951,7.485h-3.039Z"/><path d="M254.049,22.863V18.19c0-2.85,1.615-4.54,4.312-4.54s4.313,1.69,4.313,4.54v4.673c0,2.85-1.615,4.541-4.313,4.541S254.049,25.713,254.049,22.863Zm5.832,0V18.19c0-1.253-.513-1.919-1.52-1.919s-1.519.666-1.519,1.919v4.673c0,1.254.512,1.919,1.519,1.919S259.881,24.117,259.881,22.863Z"/><path d="M265.43,13.878h2.793l1.2,6.288c.189.969.417,2.6.551,3.7h.075c.134-1.1.361-2.735.552-3.7l1.2-6.288h2.793l-3.153,13.3h-2.85Z"/><path d="M282,24.972h-2.811l-.437,2.2h-2.793l3.191-13.3h2.888l3.192,13.3h-2.792Zm-.531-2.564-.3-1.52c-.172-.95-.4-2.565-.532-3.648h-.076c-.133,1.083-.342,2.7-.532,3.648l-.3,1.52Z"/><path d="M288.362,13.878h2.66l2.527,5.775c.322.836.627,1.71.949,2.546l.058-.057a45.737,45.737,0,0,1-.38-5.187V13.878h2.659v13.3h-2.659l-2.242-5.149-1.2-3.248-.057.057a54.041,54.041,0,0,1,.342,5.642v2.7h-2.66Z"/><path d="M303.049,23.224l-3.135-9.346h2.793l1.082,3.685c.134.437.438,1.482.57,2.128h.077c.151-.646.456-1.691.607-2.185l1.045-3.628h2.793l-3.135,9.346v3.952h-2.7ZM304.872,10h2.147l-2.147,2.6h-1.785Z"/><path d="M311.58,23.11V17.943c0-2.812,1.52-4.331,4.122-4.331,2.66,0,4.142,1.519,4.236,4.331h-2.7c-.076-1.215-.532-1.71-1.557-1.71-.818,0-1.292.532-1.292,1.71V23.11c0,1.14.456,1.672,1.292,1.672,1.045,0,1.519-.494,1.595-1.672h2.7c-.057,2.793-1.6,4.294-4.293,4.294C313.1,27.4,311.58,25.9,311.58,23.11Z"/><path d="M331.6,13.878v13.3h-2.716V21.762h-2.736v5.414h-2.716v-13.3h2.716V19.2h2.736V13.878Z"/><path d="M349.807,18.4c0,2.83-1.634,4.5-4.389,4.5h-1.159v4.275h-2.7v-13.3h3.856C348.173,13.878,349.807,15.549,349.807,18.4Zm-2.774,0c0-1.292-.57-1.957-1.653-1.957h-1.121v3.895h1.121C346.463,20.337,347.033,19.672,347.033,18.4Z"/><path d="M353.037,22.863V18.19c0-2.85,1.615-4.54,4.313-4.54s4.312,1.69,4.312,4.54v4.673c0,2.85-1.615,4.541-4.312,4.541S353.037,25.713,353.037,22.863Zm5.832,0V18.19c0-1.253-.513-1.919-1.519-1.919s-1.52.666-1.52,1.919v4.673c0,1.254.513,1.919,1.52,1.919S358.869,24.117,358.869,22.863Z"/><path d="M364.418,13.878h2.793l1.2,6.288c.19.969.417,2.6.551,3.7h.075c.134-1.1.362-2.735.552-3.7l1.2-6.288h2.793l-3.153,13.3h-2.85Z"/><path d="M376.331,22.863V18.19c0-2.85,1.615-4.54,4.313-4.54s4.312,1.69,4.312,4.54v4.673c0,2.85-1.615,4.541-4.312,4.541S376.331,25.713,376.331,22.863Zm5.832,0V18.19c0-1.253-.513-1.919-1.519-1.919s-1.52.666-1.52,1.919v4.673c0,1.254.513,1.919,1.52,1.919S382.163,24.117,382.163,22.863Z"/><path d="M395.482,24.611v2.565h-6.649v-13.3h2.7V24.611Z"/><path d="M405.723,24.611v2.565h-7.048v-13.3h6.858v2.564h-4.161V19.2h3.781v2.47h-3.781v2.944Z"/><path d="M409.467,13.878h2.66l2.526,5.775c.324.836.627,1.71.95,2.546l.057-.057a45.97,45.97,0,0,1-.38-5.187V13.878h2.659v13.3H415.28l-2.242-5.149-1.2-3.248-.058.057a54.052,54.052,0,0,1,.343,5.642v2.7h-2.66Z"/><path d="M429.244,24.611v2.565H422.2v-13.3h6.859v2.564h-4.161V19.2h3.781v2.47h-3.781v2.944Z"/><path d="M436.389,22.142l-.741,1.2v3.838h-2.66v-13.3h2.66v5.091l.684-1.482,1.861-3.609h3.078l-3.381,5.813,3.951,7.485H438.8Z"/><path d="M449.5,13.878h2.793l1.2,6.288c.19.969.417,2.6.551,3.7h.075c.134-1.1.362-2.735.552-3.7l1.2-6.288h2.793l-3.153,13.3h-2.85Z"/><path d="M466.314,27.613c1.463,0,2.28-.532,2.28-2.47V13.878h2.7V25.162c0,3-1.672,4.921-4.978,4.921Z"/><path d="M482.539,24.611v2.565h-7.048v-13.3h6.859v2.564h-4.162V19.2h3.782v2.47h-3.782v2.944Z"/><path d="M486.282,13.878h3.648c2.678,0,4.256,1.634,4.256,4.407v4.388c0,2.831-1.559,4.5-4.218,4.5h-3.686Zm3.686,10.733c.969,0,1.481-.665,1.481-1.938V18.285c0-1.216-.512-1.843-1.481-1.843h-.989v8.169Z"/><path d="M498.062,13.878h2.661l2.526,5.775c.323.836.627,1.71.949,2.546l.058-.057a45.737,45.737,0,0,1-.38-5.187V13.878h2.659v13.3h-2.659l-2.242-5.149-1.2-3.248-.058.057a54.052,54.052,0,0,1,.343,5.642v2.7h-2.661Z"/><path d="M510.412,22.863V18.19c0-2.85,1.615-4.54,4.313-4.54s4.312,1.69,4.312,4.54v4.673c0,2.85-1.615,4.541-4.312,4.541S510.412,25.713,510.412,22.863Zm5.832,0V18.19c0-1.253-.513-1.919-1.519-1.919s-1.52.666-1.52,1.919v4.673c0,1.254.513,1.919,1.52,1.919S516.244,24.117,516.244,22.863Z"/><path d="M530,16.442h-2.6V27.176h-2.773V16.442h-2.6V13.878H530Z"/><path d="M539.823,24.611v2.565h-6.649v-13.3h2.7V24.611Z"/><path d="M543.016,13.878h2.7v13.3h-2.7Z"/><path d="M548.849,13.878h2.793l1.2,6.288c.189.969.417,2.6.551,3.7h.075c.134-1.1.361-2.735.552-3.7l1.2-6.288h2.793l-3.153,13.3H552Z"/><path d="M563.1,23.224l-3.135-9.346h2.793l1.082,3.685c.134.437.437,1.482.57,2.128h.076c.152-.646.456-1.691.608-2.185l1.045-3.628h2.793L565.8,23.224v3.952h-2.7ZM564.922,10h2.146l-2.146,2.6h-1.785Z"/><path d="M571.63,23.11V17.943c0-2.812,1.519-4.331,4.122-4.331,2.66,0,4.142,1.519,4.236,4.331h-2.7c-.076-1.215-.532-1.71-1.558-1.71-.817,0-1.292.532-1.292,1.71V23.11c0,1.14.456,1.672,1.292,1.672,1.045,0,1.52-.494,1.6-1.672h2.7c-.056,2.793-1.595,4.294-4.293,4.294C573.149,27.4,571.63,25.9,571.63,23.11Z"/><path d="M591.654,13.878v13.3h-2.716V21.762H586.2v5.414h-2.717v-13.3H586.2V19.2h2.736V13.878Z"/><path d="M608.261,24.611v2.565h-6.65v-13.3h2.7V24.611Z"/><path d="M618.5,24.611v2.565h-7.048v-13.3h6.859v2.564H614.15V19.2h3.782v2.47H614.15v2.944Z"/><path d="M629.331,16.442h-2.6V27.176h-2.774V16.442h-2.6V13.878h7.978Z"/><path d="M639.553,24.611v2.565h-7.048v-13.3h6.858v2.564H635.2V19.2h3.781v2.47H635.2v2.944Z"/><path d="M642.917,23.11V17.943c0-2.812,1.52-4.331,4.122-4.331,2.66,0,4.142,1.519,4.236,4.331h-2.7c-.076-1.215-.532-1.71-1.557-1.71-.818,0-1.292.532-1.292,1.71V23.11c0,1.14.456,1.672,1.292,1.672,1.044,0,1.519-.494,1.6-1.672h2.7c-.056,2.793-1.6,4.294-4.292,4.294C644.437,27.4,642.917,25.9,642.917,23.11Z"/><path d="M662.941,13.878v13.3h-2.716V21.762h-2.736v5.414h-2.717v-13.3h2.717V19.2h2.736V13.878Z"/><rect class="cls-4" x="50.882" y="141.346" width="37.744" height="213.667"/><rect class="cls-4" x="88.625" y="145.269" width="37.744" height="209.744"/><rect class="cls-4" x="126.369" y="149.191" width="37.744" height="205.821"/><rect class="cls-4" x="164.112" y="153.114" width="37.744" height="201.899"/><rect class="cls-4" x="201.856" y="157.036" width="37.744" height="197.976"/><rect class="cls-4" x="239.599" y="160.959" width="37.744" height="194.054"/><rect class="cls-4" x="277.343" y="164.882" width="37.744" height="190.131"/><rect class="cls-4" x="315.087" y="168.804" width="37.744" height="186.209"/><rect class="cls-4" x="352.83" y="193.906" width="37.744" height="161.107"/><rect class="cls-4" x="390.574" y="198.315" width="37.744" height="156.698"/><rect class="cls-4" x="428.317" y="202.723" width="37.744" height="152.29"/><rect class="cls-4" x="466.061" y="207.131" width="37.744" height="147.881"/><rect class="cls-4" x="503.804" y="211.54" width="37.744" height="143.473"/><rect class="cls-4" x="541.548" y="215.948" width="37.743" height="139.065"/><rect class="cls-4" x="579.291" y="220.357" width="37.744" height="134.656"/><rect class="cls-4" x="617.035" y="224.765" width="37.744" height="130.248"/><rect class="cls-4" x="654.778" y="229.039" width="37.743" height="125.839"/><rect class="cls-4" x="692.522" y="233.582" width="37.744" height="121.431"/><line class="cls-1" x1="352.83" y1="193.906" x2="352.83" y2="355.013"/><line class="cls-1" x1="50.882" y1="141.346" x2="50.882" y2="355.013"/><path class="cls-5" d="M362.5,179.189c6.085-.356,35.847-3.832,35.847-37.843"/><polygon class="cls-6" points="366.171 182.908 366.785 182.117 362.887 179.098 366.182 175.43 365.437 174.762 361.424 179.23 366.171 182.908"/><path class="cls-7" d="M186.2,278.44h-4v4.216h-1.728v-9.947h6.32V274.1H182.2v2.958h4Z"/><path class="cls-7" d="M192.183,282.656a2.524,2.524,0,0,1-.192-.69,2.581,2.581,0,0,1-1.94.827,2.61,2.61,0,0,1-1.818-.636,2.034,2.034,0,0,1-.7-1.571,2.1,2.1,0,0,1,.878-1.814,4.256,4.256,0,0,1,2.511-.631h1.018v-.486a1.3,1.3,0,0,0-.322-.919,1.274,1.274,0,0,0-.976-.344,1.466,1.466,0,0,0-.93.283.877.877,0,0,0-.361.721h-1.66a1.84,1.84,0,0,1,.4-1.138,2.689,2.689,0,0,1,1.1-.83,3.853,3.853,0,0,1,1.547-.3,3.106,3.106,0,0,1,2.071.653,2.329,2.329,0,0,1,.792,1.834v3.334a3.774,3.774,0,0,0,.28,1.592v.116Zm-1.825-1.195a1.89,1.89,0,0,0,.926-.239,1.605,1.605,0,0,0,.653-.643v-1.393h-.9a2.454,2.454,0,0,0-1.388.321,1.04,1.04,0,0,0-.464.908.97.97,0,0,0,.318.762A1.23,1.23,0,0,0,190.358,281.461Zm.922-9.3h1.893l-1.893,2.07-1.332,0Z"/><path class="cls-7" d="M197.107,281.331h3.936v1.325h-6V281.57l3.75-4.966h-3.682v-1.34H200.9v1.052Z"/><path class="cls-7" d="M205.519,282.793a3.432,3.432,0,0,1-2.559-.994,3.605,3.605,0,0,1-.981-2.648v-.2a4.428,4.428,0,0,1,.427-1.977,3.254,3.254,0,0,1,1.2-1.357,3.173,3.173,0,0,1,1.722-.485,2.9,2.9,0,0,1,2.333.964,4.07,4.07,0,0,1,.823,2.725v.67h-4.83a2.219,2.219,0,0,0,.612,1.449,1.834,1.834,0,0,0,1.349.533,2.248,2.248,0,0,0,1.858-.923l.895.854a2.991,2.991,0,0,1-1.185,1.029A3.719,3.719,0,0,1,205.519,282.793Zm-.2-6.333a1.4,1.4,0,0,0-1.1.478,2.477,2.477,0,0,0-.536,1.333h3.163v-.124a2.018,2.018,0,0,0-.445-1.26A1.384,1.384,0,0,0,205.32,276.46Z"/><path class="cls-7" d="M215.24,282.656h-1.721v-9.947h1.721Z"/><path class="cls-7" d="M219.188,282.656h-1.721v-9.947h1.721Z"/><path class="cls-7" d="M223.138,282.656h-1.722v-9.947h1.722Z"/><path class="cls-7" d="M525.335,278.44h-4v4.216H519.6v-9.947h6.32V274.1h-4.592v2.958h4Z"/><path class="cls-7" d="M531.313,282.656a1.077,1.077,0,1,0-2.131.137,2.609,2.609,0,0,1-1.818-.636,2.034,2.034,0,0,1-.7-1.571,2.1,2.1,0,0,1,.878-1.814,4.256,4.256,0,0,1,2.511-.631h1.017v-.486a1.3,1.3,0,0,0-.321-.919,1.274,1.274,0,0,0-.976-.344,1.466,1.466,0,0,0-.93.283.877.877,0,0,0-.361.721h-1.661a1.841,1.841,0,0,1,.4-1.138,2.686,2.686,0,0,1,1.1-.83,3.861,3.861,0,0,1,1.548-.3,3.107,3.107,0,0,1,2.071.653,2.329,2.329,0,0,1,.792,1.834v3.334a3.774,3.774,0,0,0,.28,1.592v.116Zm-1.824-1.195a1.893,1.893,0,0,0,.926-.239,1.6,1.6,0,0,0,.652-.643v-1.393h-.894a2.454,2.454,0,0,0-1.388.321,1.04,1.04,0,0,0-.464.908.97.97,0,0,0,.318.762A1.23,1.23,0,0,0,529.489,281.461Zm.922-9.3H532.3l-1.893,2.07-1.332,0Z"/><path class="cls-7" d="M536.238,281.331h3.936v1.325h-6V281.57l3.75-4.966h-3.682v-1.34h5.786v1.052Z"/><path class="cls-7" d="M544.649,282.793a3.431,3.431,0,0,1-2.558-.994,3.605,3.605,0,0,1-.981-2.648v-.2a4.428,4.428,0,0,1,.427-1.977,3.254,3.254,0,0,1,1.2-1.357,3.173,3.173,0,0,1,1.722-.485,2.9,2.9,0,0,1,2.333.964,4.07,4.07,0,0,1,.823,2.725v.67h-4.83a2.219,2.219,0,0,0,.612,1.449,1.834,1.834,0,0,0,1.349.533,2.248,2.248,0,0,0,1.858-.923l.9.854a2.988,2.988,0,0,1-1.186,1.029A3.716,3.716,0,0,1,544.649,282.793Zm-.2-6.333a1.4,1.4,0,0,0-1.1.478,2.47,2.47,0,0,0-.536,1.333h3.163v-.124a2.018,2.018,0,0,0-.445-1.26A1.384,1.384,0,0,0,544.451,276.46Z"/><path class="cls-7" d="M554.371,282.656h-1.722v-9.947h1.722Z"/><path class="cls-7" d="M560,280.49l2.528-7.781h1.9l-3.58,9.947h-1.674l-3.567-9.947H557.5Z"/><rect class="cls-8" x="379.887" y="94.382" width="282.369" height="7.502"/><path d="M396.539,99.667l.059.227.066-.227,3.354-9.346h.99l-3.971,10.664h-.863L392.2,90.321h.983Z"/><path d="M405.115,101.132a3.444,3.444,0,0,1-1.828-.5,3.4,3.4,0,0,1-1.269-1.388,4.329,4.329,0,0,1-.456-2v-.315a4.667,4.667,0,0,1,.444-2.058,3.525,3.525,0,0,1,1.234-1.439,3.051,3.051,0,0,1,1.715-.524,2.858,2.858,0,0,1,2.287.985,3.992,3.992,0,0,1,.848,2.692v.491h-5.654v.168a3.314,3.314,0,0,0,.771,2.245,2.461,2.461,0,0,0,1.945.9,2.849,2.849,0,0,0,1.241-.256,2.756,2.756,0,0,0,.978-.821l.549.418A3.2,3.2,0,0,1,405.115,101.132Zm-.16-7.471a2.2,2.2,0,0,0-1.668.725,3.344,3.344,0,0,0-.822,1.948h4.752v-.095a2.9,2.9,0,0,0-.651-1.86A2.021,2.021,0,0,0,404.955,93.661Z"/><path d="M410.777,100.985H409.9V89.735h.879Z"/><path d="M415.041,96.994l-1,.966v3.025h-.879V89.735h.879v7.2l.828-.893,3.031-2.981H419L415.641,96.4l3.654,4.585h-1.047Z"/><path d="M425.506,100.985a4.082,4.082,0,0,1-.168-1.106,3.054,3.054,0,0,1-1.176.927,3.6,3.6,0,0,1-1.512.326,2.658,2.658,0,0,1-1.849-.637,2.071,2.071,0,0,1-.707-1.612,2.119,2.119,0,0,1,.963-1.831,4.628,4.628,0,0,1,2.683-.674h1.59v-.9a1.736,1.736,0,0,0-.523-1.337,2.169,2.169,0,0,0-1.528-.487,2.382,2.382,0,0,0-1.515.469,1.391,1.391,0,0,0-.6,1.127l-.879-.007a2.037,2.037,0,0,1,.879-1.637,3.39,3.39,0,0,1,2.162-.692,3.084,3.084,0,0,1,2.09.663,2.373,2.373,0,0,1,.787,1.849v3.75a4.668,4.668,0,0,0,.242,1.721v.088Zm-2.754-.63a2.939,2.939,0,0,0,1.57-.424A2.5,2.5,0,0,0,425.33,98.8V97.052h-1.566a3.925,3.925,0,0,0-2.051.48,1.438,1.438,0,0,0-.74,1.278,1.416,1.416,0,0,0,.494,1.106A1.862,1.862,0,0,0,422.752,100.355Zm1.728-10.62h1.063l-1.691,2.051-.77,0Z"/><path d="M432.391,100.985V90.321h3.15a4.1,4.1,0,0,1,2.6.707,2.515,2.515,0,0,1,.886,2.086,2.359,2.359,0,0,1-.451,1.44,2.466,2.466,0,0,1-1.234.875,2.584,2.584,0,0,1,2.066,2.555,2.771,2.771,0,0,1-.912,2.207,3.737,3.737,0,0,1-2.539.794Zm.9-5.881h2.461a2.769,2.769,0,0,0,1.748-.532,1.816,1.816,0,0,0,.619-1.486,1.787,1.787,0,0,0-.64-1.515,3.189,3.189,0,0,0-1.938-.488h-2.25Zm0,.762v4.358h2.7a2.708,2.708,0,0,0,1.836-.589A2.051,2.051,0,0,0,438.506,98a1.978,1.978,0,0,0-.647-1.561,2.608,2.608,0,0,0-1.791-.574Z"/><path d="M445.041,93.808a3.219,3.219,0,0,0-.594-.052,2.143,2.143,0,0,0-1.388.458,2.523,2.523,0,0,0-.809,1.329v5.442h-.871V93.061h.857l.014,1.259a2.331,2.331,0,0,1,2.234-1.406,1.445,1.445,0,0,1,.578.095Z"/><path d="M446.375,90.771a.589.589,0,0,1,.16-.418.576.576,0,0,1,.44-.171.574.574,0,0,1,.607.589.572.572,0,0,1-.164.416.6.6,0,0,1-.443.167.585.585,0,0,1-.44-.167A.577.577,0,0,1,446.375,90.771Zm1.031,10.214h-.879V93.061h.879Z"/><path d="M451.148,91.032v2.029h1.641v.717h-1.641v5.287a1.655,1.655,0,0,0,.239.982.92.92,0,0,0,.8.323,5.454,5.454,0,0,0,.711-.073l.037.711a2.854,2.854,0,0,1-.938.124,1.562,1.562,0,0,1-1.312-.524,2.462,2.462,0,0,1-.41-1.542V93.778h-1.458v-.717h1.458V91.032Z"/><path d="M459.607,100.985a4.247,4.247,0,0,1-.168-1.106,3.036,3.036,0,0,1-1.175.927,3.6,3.6,0,0,1-1.512.326,2.661,2.661,0,0,1-1.85-.637,2.081,2.081,0,0,1-.707-1.612,2.126,2.126,0,0,1,.963-1.831,4.634,4.634,0,0,1,2.686-.674h1.588v-.9a1.733,1.733,0,0,0-.524-1.337,2.158,2.158,0,0,0-1.527-.487,2.389,2.389,0,0,0-1.516.469,1.39,1.39,0,0,0-.6,1.127l-.879-.007a2.037,2.037,0,0,1,.879-1.637,3.382,3.382,0,0,1,2.16-.692,3.094,3.094,0,0,1,2.092.663,2.386,2.386,0,0,1,.787,1.849v3.75a4.676,4.676,0,0,0,.24,1.721v.088Zm-2.753-.63a2.948,2.948,0,0,0,1.572-.424,2.5,2.5,0,0,0,1.006-1.136V97.052h-1.567a3.928,3.928,0,0,0-2.051.48,1.438,1.438,0,0,0-.74,1.278,1.422,1.422,0,0,0,.494,1.106A1.863,1.863,0,0,0,456.854,100.355Zm1.728-10.62h1.063l-1.692,2.051-.769,0Z"/><path d="M463.475,93.061l.029,1.355a3.158,3.158,0,0,1,1.113-1.117,2.892,2.892,0,0,1,1.473-.385,2.373,2.373,0,0,1,1.9.718,3.236,3.236,0,0,1,.631,2.153v5.2h-.871V95.778A2.428,2.428,0,0,0,467.3,94.2a1.764,1.764,0,0,0-1.418-.52,2.219,2.219,0,0,0-1.439.509,2.974,2.974,0,0,0-.926,1.373v5.427h-.871V93.061Z"/><path d="M470.83,90.771a.589.589,0,0,1,.16-.418.576.576,0,0,1,.44-.171.574.574,0,0,1,.607.589.572.572,0,0,1-.164.416.6.6,0,0,1-.443.167.585.585,0,0,1-.44-.167A.577.577,0,0,1,470.83,90.771Zm1.031,10.214h-.879V93.061h.879Z"/><path d="M477.311,101.132a3.447,3.447,0,0,1-1.829-.5,3.4,3.4,0,0,1-1.269-1.388,4.328,4.328,0,0,1-.455-2v-.315a4.667,4.667,0,0,1,.443-2.058,3.52,3.52,0,0,1,1.235-1.439,3.046,3.046,0,0,1,1.714-.524,2.862,2.862,0,0,1,2.288.985,4,4,0,0,1,.847,2.692v.491h-5.654v.168A3.319,3.319,0,0,0,475.4,99.5a2.461,2.461,0,0,0,1.946.9,2.847,2.847,0,0,0,1.24-.256,2.756,2.756,0,0,0,.978-.821l.549.418A3.2,3.2,0,0,1,477.311,101.132Zm-.161-7.471a2.2,2.2,0,0,0-1.668.725,3.344,3.344,0,0,0-.822,1.948h4.752v-.095a2.9,2.9,0,0,0-.65-1.86A2.023,2.023,0,0,0,477.15,93.661Z"/><path d="M485.154,96.906a4.667,4.667,0,0,1,.444-2.058,3.327,3.327,0,0,1,3.088-1.934,3.259,3.259,0,0,1,2.562,1.109,4.282,4.282,0,0,1,.982,2.941v.183a4.713,4.713,0,0,1-.443,2.07,3.316,3.316,0,0,1-1.248,1.417,3.431,3.431,0,0,1-1.84.5,3.259,3.259,0,0,1-2.558-1.11,4.256,4.256,0,0,1-.987-2.94Zm.879.241a3.594,3.594,0,0,0,.737,2.333,2.491,2.491,0,0,0,3.853,0,3.719,3.719,0,0,0,.736-2.406v-.168a4.026,4.026,0,0,0-.338-1.663,2.7,2.7,0,0,0-.945-1.168,2.409,2.409,0,0,0-1.39-.414,2.345,2.345,0,0,0-1.913.919,3.716,3.716,0,0,0-.74,2.406Z"/><path d="M493.688,96.95a4.766,4.766,0,0,1,.824-2.941,2.65,2.65,0,0,1,2.236-1.095,2.756,2.756,0,0,1,2.447,1.267V89.735h.871v11.25h-.82l-.037-1.054a2.831,2.831,0,0,1-2.475,1.2,2.64,2.64,0,0,1-2.209-1.1,4.805,4.805,0,0,1-.837-2.977Zm.886.154a4.119,4.119,0,0,0,.608,2.391,1.962,1.962,0,0,0,1.713.875,2.359,2.359,0,0,0,2.3-1.428V95.221a2.342,2.342,0,0,0-2.285-1.545,1.989,1.989,0,0,0-1.721.868A4.417,4.417,0,0,0,494.574,97.1Z"/><path d="M505.3,100.392a2.315,2.315,0,0,0,1.535-.516,1.824,1.824,0,0,0,.67-1.337h.842a2.482,2.482,0,0,1-.454,1.322,2.854,2.854,0,0,1-1.109.934,3.348,3.348,0,0,1-1.484.337,3.059,3.059,0,0,1-2.471-1.084,4.376,4.376,0,0,1-.912-2.915v-.264a4.964,4.964,0,0,1,.41-2.073,3.155,3.155,0,0,1,1.176-1.391,3.239,3.239,0,0,1,1.789-.491,3.06,3.06,0,0,1,2.15.776,2.829,2.829,0,0,1,.905,2.044h-.842a2.12,2.12,0,0,0-2.213-2.073,2.187,2.187,0,0,0-1.842.857,3.889,3.889,0,0,0-.654,2.4v.257a3.8,3.8,0,0,0,.654,2.365A2.2,2.2,0,0,0,505.3,100.392Z"/><path d="M510.973,94.4a3.085,3.085,0,0,1,1.1-1.1,2.9,2.9,0,0,1,1.473-.388,2.373,2.373,0,0,1,1.9.718,3.236,3.236,0,0,1,.631,2.153v5.2h-.871V95.778a2.428,2.428,0,0,0-.451-1.582,1.764,1.764,0,0,0-1.418-.52,2.224,2.224,0,0,0-1.44.509,2.98,2.98,0,0,0-.925,1.373v5.427H510.1V89.735h.871Z"/><path d="M517.85,96.906a4.667,4.667,0,0,1,.443-2.058,3.327,3.327,0,0,1,3.088-1.934,3.258,3.258,0,0,1,2.562,1.109,4.277,4.277,0,0,1,.983,2.941v.183a4.714,4.714,0,0,1-.444,2.07,3.3,3.3,0,0,1-1.248,1.417,3.43,3.43,0,0,1-1.839.5,3.261,3.261,0,0,1-2.559-1.11,4.26,4.26,0,0,1-.986-2.94Zm.879.241a3.6,3.6,0,0,0,.736,2.333,2.491,2.491,0,0,0,3.853,0,3.713,3.713,0,0,0,.737-2.406v-.168a4.042,4.042,0,0,0-.338-1.663,2.7,2.7,0,0,0-.946-1.168,2.409,2.409,0,0,0-1.39-.414,2.343,2.343,0,0,0-1.912.919,3.716,3.716,0,0,0-.74,2.406Z"/><path d="M526.383,96.95a4.766,4.766,0,0,1,.824-2.941,2.65,2.65,0,0,1,2.236-1.095,2.758,2.758,0,0,1,2.448,1.267V89.735h.871v11.25h-.821l-.037-1.054a2.828,2.828,0,0,1-2.474,1.2,2.639,2.639,0,0,1-2.209-1.1,4.8,4.8,0,0,1-.838-2.977Zm.887.154a4.126,4.126,0,0,0,.607,2.391,1.963,1.963,0,0,0,1.713.875,2.361,2.361,0,0,0,2.3-1.428V95.221a2.344,2.344,0,0,0-2.286-1.545,1.986,1.986,0,0,0-1.72.868A4.417,4.417,0,0,0,527.27,97.1Z"/><path d="M538.137,101.132a3.434,3.434,0,0,1-1.826-.5,3.4,3.4,0,0,1-1.272-1.388,4.327,4.327,0,0,1-.453-2v-.315a4.639,4.639,0,0,1,.443-2.058,3.516,3.516,0,0,1,1.233-1.439,3.047,3.047,0,0,1,1.715-.524,2.867,2.867,0,0,1,2.289.985,4,4,0,0,1,.845,2.692v.491h-5.654v.168a3.32,3.32,0,0,0,.773,2.245,2.456,2.456,0,0,0,1.944.9,2.856,2.856,0,0,0,1.242-.256,2.754,2.754,0,0,0,.977-.821l.55.418A3.2,3.2,0,0,1,538.137,101.132Zm-.16-7.471a2.188,2.188,0,0,0-1.666.725,3.353,3.353,0,0,0-.825,1.948h4.754v-.095a2.912,2.912,0,0,0-.652-1.86A2.018,2.018,0,0,0,537.977,93.661Z"/><path d="M543.617,93.061l.029,1.289a2.931,2.931,0,0,1,1.1-1.077,3.018,3.018,0,0,1,1.465-.359,2.225,2.225,0,0,1,2.381,1.538,2.971,2.971,0,0,1,1.135-1.139,3.142,3.142,0,0,1,1.568-.4q2.548,0,2.6,2.783v5.288h-.879V95.763a2.371,2.371,0,0,0-.459-1.575,1.862,1.862,0,0,0-1.467-.512,2.339,2.339,0,0,0-1.6.611,2.158,2.158,0,0,0-.724,1.454v5.244h-.879V95.7a2.175,2.175,0,0,0-.481-1.519,1.9,1.9,0,0,0-1.453-.5,2.214,2.214,0,0,0-1.422.472,2.793,2.793,0,0,0-.879,1.4v5.434h-.879V93.061Z"/><path d="M560.336,100.246h5.15v.739h-6.234v-.644l4.805-6.519H559.4v-.761h5.766v.658Z"/><path d="M576.795,95.873h-4.988v4.351h5.734v.761h-6.635V90.321h6.6v.762h-5.7v4.028h4.988Z"/><path d="M586.785,90.321V97.6a3.707,3.707,0,0,1-.476,1.875,3.108,3.108,0,0,1-1.323,1.226,4.3,4.3,0,0,1-1.959.429,3.868,3.868,0,0,1-2.7-.919,3.379,3.379,0,0,1-1.051-2.546V90.321h.895v7.215a2.773,2.773,0,0,0,.769,2.091,3.29,3.29,0,0,0,4.17,0,2.773,2.773,0,0,0,.766-2.08V90.321Z"/><path d="M592.256,96.906a4.667,4.667,0,0,1,.443-2.058,3.327,3.327,0,0,1,3.088-1.934,3.261,3.261,0,0,1,2.563,1.109,4.282,4.282,0,0,1,.982,2.941v.183a4.713,4.713,0,0,1-.443,2.07,3.316,3.316,0,0,1-1.248,1.417,3.433,3.433,0,0,1-1.84.5,3.261,3.261,0,0,1-2.559-1.11,4.26,4.26,0,0,1-.986-2.94Zm.879.241a3.6,3.6,0,0,0,.736,2.333,2.492,2.492,0,0,0,3.854,0,3.719,3.719,0,0,0,.736-2.406v-.168a4.026,4.026,0,0,0-.338-1.663,2.7,2.7,0,0,0-.945-1.168,2.412,2.412,0,0,0-1.391-.414,2.343,2.343,0,0,0-1.912.919,3.716,3.716,0,0,0-.74,2.406Z"/><path d="M607.512,97.1a4.77,4.77,0,0,1-.821,2.94,2.609,2.609,0,0,1-2.2,1.088A2.932,2.932,0,0,1,602,99.989v4.043h-.871V93.061h.812l.045,1.12a2.811,2.811,0,0,1,2.483-1.267,2.635,2.635,0,0,1,2.23,1.077,4.88,4.88,0,0,1,.809,2.988Zm-.879-.154a4.083,4.083,0,0,0-.621-2.395,2.01,2.01,0,0,0-1.737-.879A2.314,2.314,0,0,0,602,95.192v3.8a2.326,2.326,0,0,0,.9,1.04,2.6,2.6,0,0,0,1.383.359,1.988,1.988,0,0,0,1.725-.882A4.429,4.429,0,0,0,606.633,96.95Z"/><path d="M614.551,99.982a2.848,2.848,0,0,1-2.528,1.15,2.447,2.447,0,0,1-1.925-.736,3.223,3.223,0,0,1-.674-2.179V93.061h.871v5.046q0,2.263,1.832,2.263a2.243,2.243,0,0,0,2.408-1.575V93.061h.879v7.924h-.85Z"/><path d="M622.439,98.971a1.252,1.252,0,0,0-.523-1.047,4.039,4.039,0,0,0-1.578-.619,7.154,7.154,0,0,1-1.639-.513,2.165,2.165,0,0,1-.863-.707,1.761,1.761,0,0,1-.281-1.01,1.884,1.884,0,0,1,.783-1.55,3.165,3.165,0,0,1,2.006-.611,3.266,3.266,0,0,1,2.129.655,2.11,2.11,0,0,1,.8,1.711H622.4a1.416,1.416,0,0,0-.583-1.157,2.623,2.623,0,0,0-2.855-.077,1.182,1.182,0,0,0-.523,1,1.08,1.08,0,0,0,.435.92,4.608,4.608,0,0,0,1.588.6,7.43,7.43,0,0,1,1.729.578,2.229,2.229,0,0,1,.853.74,2.032,2.032,0,0,1-.531,2.651,3.452,3.452,0,0,1-2.112.6,3.56,3.56,0,0,1-2.246-.67,2.061,2.061,0,0,1-.859-1.7h.879a1.525,1.525,0,0,0,.646,1.2,2.658,2.658,0,0,0,1.58.428,2.489,2.489,0,0,0,1.479-.4A1.211,1.211,0,0,0,622.439,98.971Z"/><path d="M626.65,91.032v2.029h1.641v.717H626.65v5.287a1.648,1.648,0,0,0,.239.982.919.919,0,0,0,.795.323,5.454,5.454,0,0,0,.711-.073l.037.711a2.854,2.854,0,0,1-.938.124,1.562,1.562,0,0,1-1.312-.524,2.461,2.461,0,0,1-.411-1.542V93.778h-1.457v-.717h1.457V91.032Z"/><path d="M630.057,90.771a.585.585,0,0,1,.16-.418.574.574,0,0,1,.439-.171.588.588,0,0,1,.444.171.577.577,0,0,1,.166.418.566.566,0,0,1-.166.416.6.6,0,0,1-.444.167.582.582,0,0,1-.439-.167A.573.573,0,0,1,630.057,90.771Zm1.033,10.214h-.879V93.061h.879Z"/><path d="M634.451,100.985h-.879V89.735h.879Z"/><path d="M641.834,100.985a4.082,4.082,0,0,1-.168-1.106,3.054,3.054,0,0,1-1.176.927,3.6,3.6,0,0,1-1.511.326,2.661,2.661,0,0,1-1.85-.637,2.071,2.071,0,0,1-.707-1.612,2.119,2.119,0,0,1,.963-1.831,4.628,4.628,0,0,1,2.683-.674h1.59v-.9a1.736,1.736,0,0,0-.523-1.337,2.169,2.169,0,0,0-1.528-.487,2.382,2.382,0,0,0-1.515.469,1.391,1.391,0,0,0-.6,1.127l-.879-.007a2.037,2.037,0,0,1,.879-1.637,3.39,3.39,0,0,1,2.162-.692,3.084,3.084,0,0,1,2.09.663,2.373,2.373,0,0,1,.787,1.849v3.75a4.668,4.668,0,0,0,.242,1.721v.088Zm-2.754-.63a2.939,2.939,0,0,0,1.57-.424,2.5,2.5,0,0,0,1.008-1.136V97.052h-1.566a3.925,3.925,0,0,0-2.051.48,1.438,1.438,0,0,0-.74,1.278,1.416,1.416,0,0,0,.494,1.106A1.862,1.862,0,0,0,639.08,100.355Z"/><path d="M394.48,107.032v2.029h1.641v.717H394.48v5.287a1.655,1.655,0,0,0,.239.982.92.92,0,0,0,.8.323,5.454,5.454,0,0,0,.711-.073l.037.711a2.854,2.854,0,0,1-.938.124,1.562,1.562,0,0,1-1.312-.524,2.462,2.462,0,0,1-.41-1.542v-5.288h-1.457v-.717H393.6v-2.029Z"/><path d="M402.939,116.985a4.247,4.247,0,0,1-.168-1.106,3.036,3.036,0,0,1-1.175.927,3.6,3.6,0,0,1-1.512.326,2.661,2.661,0,0,1-1.85-.637,2.081,2.081,0,0,1-.707-1.612,2.126,2.126,0,0,1,.963-1.831,4.634,4.634,0,0,1,2.686-.674h1.588v-.9a1.733,1.733,0,0,0-.524-1.337,2.158,2.158,0,0,0-1.527-.487,2.391,2.391,0,0,0-1.516.469,1.39,1.39,0,0,0-.6,1.127l-.879-.007a2.037,2.037,0,0,1,.879-1.637,3.382,3.382,0,0,1,2.16-.692,3.094,3.094,0,0,1,2.092.663,2.386,2.386,0,0,1,.787,1.849v3.75a4.676,4.676,0,0,0,.24,1.721v.088Zm-2.753-.63a2.948,2.948,0,0,0,1.572-.424,2.5,2.5,0,0,0,1.006-1.136v-1.743H401.2a3.928,3.928,0,0,0-2.051.48,1.438,1.438,0,0,0-.74,1.278,1.422,1.422,0,0,0,.494,1.106A1.863,1.863,0,0,0,400.186,116.355Z"/><path d="M407.855,112.994l-1,.966v3.025h-.879v-11.25h.879v7.2l.828-.893,3.031-2.981h1.1l-3.361,3.339,3.654,4.585h-1.047Z"/><path d="M416.24,117.132a3.444,3.444,0,0,1-1.828-.5,3.4,3.4,0,0,1-1.269-1.388,4.328,4.328,0,0,1-.455-2v-.315a4.667,4.667,0,0,1,.443-2.058,3.525,3.525,0,0,1,1.234-1.439,3.051,3.051,0,0,1,1.715-.524,2.858,2.858,0,0,1,2.287.985,3.992,3.992,0,0,1,.848,2.692v.491h-5.654v.168a3.314,3.314,0,0,0,.771,2.245,2.461,2.461,0,0,0,1.945.9,2.849,2.849,0,0,0,1.241-.256,2.756,2.756,0,0,0,.978-.821l.549.418A3.2,3.2,0,0,1,416.24,117.132Zm-.16-7.471a2.2,2.2,0,0,0-1.668.725,3.344,3.344,0,0,0-.822,1.948h4.752v-.095a2.9,2.9,0,0,0-.651-1.86A2.021,2.021,0,0,0,416.08,109.661Zm.973-3.926h1.062l-1.691,2.051-.77,0Z"/><path d="M430.662,111.873h-4.988v4.351h5.734v.761h-6.635V106.321h6.6v.762h-5.7v4.028h4.988Z"/><path d="M440.652,106.321V113.6a3.707,3.707,0,0,1-.476,1.875,3.111,3.111,0,0,1-1.322,1.226,4.3,4.3,0,0,1-1.959.429,3.869,3.869,0,0,1-2.7-.919,3.378,3.378,0,0,1-1.05-2.546v-7.346h.894v7.215a2.77,2.77,0,0,0,.77,2.091,3.29,3.29,0,0,0,4.17,0,2.777,2.777,0,0,0,.765-2.08v-7.222Z"/><path d="M452.7,111.873h-4.988v4.351h5.734v.761h-6.635V106.321h6.6v.762h-5.7v4.028H452.7Z"/><path d="M462.729,107.083h-3.655v9.9h-.9v-9.9h-3.647v-.762h8.2Z"/><path d="M470.367,114.363a1.728,1.728,0,0,0-.623-1.4,6.584,6.584,0,0,0-2.277-.982,7.993,7.993,0,0,1-2.418-1.014,2.46,2.46,0,0,1-.076-4.025,4.137,4.137,0,0,1,2.574-.765,4.273,4.273,0,0,1,1.9.41,3.115,3.115,0,0,1,1.3,1.143,3,3,0,0,1,.461,1.633H470.3a2.237,2.237,0,0,0-.746-1.759,2.907,2.907,0,0,0-2.008-.665,3.154,3.154,0,0,0-1.947.546,1.7,1.7,0,0,0-.727,1.427,1.613,1.613,0,0,0,.652,1.328,6.054,6.054,0,0,0,2.088.906,9.846,9.846,0,0,1,2.176.813,3.125,3.125,0,0,1,1.113,1.007,2.53,2.53,0,0,1,.373,1.385,2.412,2.412,0,0,1-1.007,2.021,4.29,4.29,0,0,1-2.655.762,5.206,5.206,0,0,1-2.07-.4,3.164,3.164,0,0,1-1.428-1.128,2.917,2.917,0,0,1-.486-1.663h.9a2.132,2.132,0,0,0,.842,1.78,3.567,3.567,0,0,0,2.242.652,3.327,3.327,0,0,0,2-.549A1.719,1.719,0,0,0,470.367,114.363Z"/><path d="M472.828,118.978l-.519-.381a3.194,3.194,0,0,0,.687-1.853v-1.136h.858v.916A3.155,3.155,0,0,1,472.828,118.978Z"/><path d="M485.9,113.1a4.77,4.77,0,0,1-.82,2.94,2.61,2.61,0,0,1-2.2,1.088,2.932,2.932,0,0,1-2.49-1.143v4.043h-.874V109.061h.815l.043,1.12a2.811,2.811,0,0,1,2.482-1.267,2.635,2.635,0,0,1,2.231,1.077,4.867,4.867,0,0,1,.81,2.988Zm-.879-.154a4.083,4.083,0,0,0-.623-2.395,2.009,2.009,0,0,0-1.736-.879,2.307,2.307,0,0,0-2.269,1.516v3.8a2.317,2.317,0,0,0,.9,1.04,2.6,2.6,0,0,0,1.385.359,1.989,1.989,0,0,0,1.724-.882A4.445,4.445,0,0,0,485.023,112.95Z"/><path d="M491.506,109.808a3.219,3.219,0,0,0-.594-.052,2.145,2.145,0,0,0-1.389.458,2.522,2.522,0,0,0-.808,1.329v5.442h-.871v-7.924h.857l.014,1.259a2.331,2.331,0,0,1,2.234-1.406,1.449,1.449,0,0,1,.578.095Z"/><path d="M492.26,112.906a4.667,4.667,0,0,1,.443-2.058,3.327,3.327,0,0,1,3.088-1.934,3.261,3.261,0,0,1,2.563,1.109,4.282,4.282,0,0,1,.982,2.941v.183a4.713,4.713,0,0,1-.443,2.07,3.316,3.316,0,0,1-1.248,1.417,3.436,3.436,0,0,1-1.84.5,3.261,3.261,0,0,1-2.559-1.11,4.26,4.26,0,0,1-.986-2.94Zm.879.241a3.6,3.6,0,0,0,.736,2.333,2.492,2.492,0,0,0,3.854,0,3.719,3.719,0,0,0,.736-2.406v-.168a4.026,4.026,0,0,0-.338-1.663,2.7,2.7,0,0,0-.945-1.168,2.414,2.414,0,0,0-1.391-.414,2.343,2.343,0,0,0-1.912.919,3.716,3.716,0,0,0-.74,2.406Z"/><path d="M502.506,107.032v2.029h1.64v.717h-1.64v5.287a1.656,1.656,0,0,0,.238.982.92.92,0,0,0,.795.323,5.422,5.422,0,0,0,.711-.073l.037.711a2.847,2.847,0,0,1-.937.124,1.564,1.564,0,0,1-1.313-.524,2.468,2.468,0,0,1-.41-1.542v-5.288H500.17v-.717h1.457v-2.029Z"/><path d="M505.334,112.906a4.639,4.639,0,0,1,.443-2.058,3.327,3.327,0,0,1,3.086-1.934,3.266,3.266,0,0,1,2.565,1.109,4.281,4.281,0,0,1,.98,2.941v.183a4.686,4.686,0,0,1-.443,2.07,3.3,3.3,0,0,1-1.248,1.417,3.426,3.426,0,0,1-1.838.5,3.263,3.263,0,0,1-2.561-1.11,4.269,4.269,0,0,1-.984-2.94Zm.879.241a3.588,3.588,0,0,0,.736,2.333,2.49,2.49,0,0,0,3.852,0,3.719,3.719,0,0,0,.736-2.406v-.168a4.026,4.026,0,0,0-.338-1.663,2.708,2.708,0,0,0-.943-1.168,2.416,2.416,0,0,0-1.393-.414,2.346,2.346,0,0,0-1.912.919,3.727,3.727,0,0,0-.738,2.406Z"/><path d="M517.514,112.95a4.779,4.779,0,0,1,.824-2.941,2.652,2.652,0,0,1,2.238-1.095,2.752,2.752,0,0,1,2.445,1.267v-4.446h.872v11.25h-.821l-.035-1.054a2.833,2.833,0,0,1-2.476,1.2,2.637,2.637,0,0,1-2.207-1.1,4.787,4.787,0,0,1-.84-2.977Zm.886.154a4.142,4.142,0,0,0,.608,2.391,1.966,1.966,0,0,0,1.715.875,2.357,2.357,0,0,0,2.3-1.428v-3.721a2.339,2.339,0,0,0-2.285-1.545,1.988,1.988,0,0,0-1.72.868A4.409,4.409,0,0,0,518.4,113.1Z"/><path d="M525.717,112.906a4.667,4.667,0,0,1,.443-2.058,3.327,3.327,0,0,1,3.088-1.934,3.261,3.261,0,0,1,2.563,1.109,4.282,4.282,0,0,1,.982,2.941v.183a4.713,4.713,0,0,1-.443,2.07,3.316,3.316,0,0,1-1.248,1.417,3.436,3.436,0,0,1-1.84.5,3.261,3.261,0,0,1-2.559-1.11,4.26,4.26,0,0,1-.986-2.94Zm.879.241a3.6,3.6,0,0,0,.736,2.333,2.492,2.492,0,0,0,3.854,0,3.719,3.719,0,0,0,.736-2.406v-.168a4.026,4.026,0,0,0-.338-1.663,2.7,2.7,0,0,0-.945-1.168,2.412,2.412,0,0,0-1.391-.414,2.343,2.343,0,0,0-1.912.919,3.716,3.716,0,0,0-.74,2.406Z"/><path d="M539.348,114.971a1.252,1.252,0,0,0-.524-1.047,4.033,4.033,0,0,0-1.578-.619,7.154,7.154,0,0,1-1.639-.513,2.179,2.179,0,0,1-.863-.707,1.768,1.768,0,0,1-.281-1.01,1.887,1.887,0,0,1,.783-1.55,3.169,3.169,0,0,1,2.006-.611,3.266,3.266,0,0,1,2.129.655,2.111,2.111,0,0,1,.8,1.711H539.3a1.418,1.418,0,0,0-.582-1.157,2.625,2.625,0,0,0-2.856-.077,1.185,1.185,0,0,0-.523,1,1.08,1.08,0,0,0,.435.92,4.617,4.617,0,0,0,1.588.6,7.43,7.43,0,0,1,1.729.578,2.221,2.221,0,0,1,.853.74,2.028,2.028,0,0,1-.531,2.651,3.451,3.451,0,0,1-2.111.6,3.556,3.556,0,0,1-2.246-.67,2.06,2.06,0,0,1-.86-1.7h.879a1.523,1.523,0,0,0,.647,1.2,2.654,2.654,0,0,0,1.58.428,2.488,2.488,0,0,0,1.478-.4A1.212,1.212,0,0,0,539.348,114.971Zm-1.963-7.712,1.26-1.421h.783v.088l-1.729,1.911h-.629l-1.728-1.919v-.08h.783Z"/><path d="M543.178,116.985H542.3v-11.25h.879Z"/><path d="M545.074,112.906a4.667,4.667,0,0,1,.444-2.058,3.327,3.327,0,0,1,3.087-1.934,3.26,3.26,0,0,1,2.563,1.109,4.282,4.282,0,0,1,.982,2.941v.183a4.713,4.713,0,0,1-.443,2.07,3.316,3.316,0,0,1-1.248,1.417,3.431,3.431,0,0,1-1.84.5,3.259,3.259,0,0,1-2.558-1.11,4.256,4.256,0,0,1-.987-2.94Zm.879.241a3.6,3.6,0,0,0,.736,2.333,2.492,2.492,0,0,0,3.854,0,3.719,3.719,0,0,0,.736-2.406v-.168a4.026,4.026,0,0,0-.338-1.663,2.7,2.7,0,0,0-.945-1.168,2.41,2.41,0,0,0-1.391-.414,2.345,2.345,0,0,0-1.912.919,3.716,3.716,0,0,0-.74,2.406Z"/><path d="M559.488,112.994l-1,.966v3.025h-.879v-11.25h.879v7.2l.828-.893,3.032-2.981h1.107l-3.363,3.339,3.656,4.585H562.7Z"/><path d="M567.875,117.132a3.444,3.444,0,0,1-1.828-.5,3.406,3.406,0,0,1-1.27-1.388,4.341,4.341,0,0,1-.455-2v-.315a4.667,4.667,0,0,1,.444-2.058A3.525,3.525,0,0,1,566,109.438a3.049,3.049,0,0,1,1.715-.524A2.86,2.86,0,0,1,570,109.9a4,4,0,0,1,.848,2.692v.491H565.2v.168a3.314,3.314,0,0,0,.772,2.245,2.459,2.459,0,0,0,1.945.9,2.841,2.841,0,0,0,1.24-.256,2.751,2.751,0,0,0,.979-.821l.549.418A3.2,3.2,0,0,1,567.875,117.132Zm-.16-7.471a2.2,2.2,0,0,0-1.668.725,3.338,3.338,0,0,0-.822,1.948h4.752v-.095a2.906,2.906,0,0,0-.651-1.86A2.021,2.021,0,0,0,567.715,109.661Z"/><path d="M580.949,114.971a1.254,1.254,0,0,0-.523-1.047,4.039,4.039,0,0,0-1.578-.619,7.154,7.154,0,0,1-1.639-.513,2.165,2.165,0,0,1-.863-.707,1.761,1.761,0,0,1-.282-1.01,1.885,1.885,0,0,1,.784-1.55,3.165,3.165,0,0,1,2.006-.611,3.265,3.265,0,0,1,2.128.655,2.108,2.108,0,0,1,.8,1.711H580.9a1.415,1.415,0,0,0-.582-1.157,2.623,2.623,0,0,0-2.855-.077,1.183,1.183,0,0,0-.524,1,1.08,1.08,0,0,0,.436.92,4.608,4.608,0,0,0,1.588.6,7.436,7.436,0,0,1,1.728.578,2.232,2.232,0,0,1,.854.74,2.032,2.032,0,0,1-.531,2.651,3.454,3.454,0,0,1-2.112.6,3.556,3.556,0,0,1-2.246-.67,2.061,2.061,0,0,1-.859-1.7h.879a1.525,1.525,0,0,0,.646,1.2,2.658,2.658,0,0,0,1.58.428,2.489,2.489,0,0,0,1.479-.4A1.211,1.211,0,0,0,580.949,114.971Z"/><path d="M585.682,112.994l-1,.966v3.025H583.8v-11.25h.879v7.2l.828-.893,3.031-2.981h1.106l-3.362,3.339,3.655,4.585h-1.047Z"/><path d="M590.66,112.906a4.667,4.667,0,0,1,.444-2.058,3.324,3.324,0,0,1,3.087-1.934,3.26,3.26,0,0,1,2.563,1.109,4.282,4.282,0,0,1,.982,2.941v.183a4.713,4.713,0,0,1-.443,2.07,3.316,3.316,0,0,1-1.248,1.417,3.431,3.431,0,0,1-1.84.5,3.262,3.262,0,0,1-2.559-1.11,4.26,4.26,0,0,1-.986-2.94Zm.879.241a3.6,3.6,0,0,0,.736,2.333,2.492,2.492,0,0,0,3.854,0,3.719,3.719,0,0,0,.736-2.406v-.168a4.026,4.026,0,0,0-.338-1.663,2.7,2.7,0,0,0-.945-1.168,2.41,2.41,0,0,0-1.391-.414,2.343,2.343,0,0,0-1.912.919,3.716,3.716,0,0,0-.74,2.406Z"/><path d="M601.428,112.994l-1,.966v3.025h-.879v-11.25h.879v7.2l.828-.893,3.031-2.981h1.106l-3.362,3.339,3.655,4.585h-1.047Z"/><path d="M606.406,112.906a4.667,4.667,0,0,1,.444-2.058,3.327,3.327,0,0,1,3.088-1.934,3.259,3.259,0,0,1,2.562,1.109,4.282,4.282,0,0,1,.982,2.941v.183a4.713,4.713,0,0,1-.443,2.07,3.316,3.316,0,0,1-1.248,1.417,3.431,3.431,0,0,1-1.84.5,3.259,3.259,0,0,1-2.558-1.11,4.256,4.256,0,0,1-.987-2.94Zm.879.241a3.6,3.6,0,0,0,.736,2.333,2.492,2.492,0,0,0,3.854,0,3.719,3.719,0,0,0,.736-2.406v-.168a4.026,4.026,0,0,0-.338-1.663,2.7,2.7,0,0,0-.945-1.168,2.409,2.409,0,0,0-1.39-.414,2.345,2.345,0,0,0-1.913.919,3.716,3.716,0,0,0-.74,2.406Z"/><path d="M617.65,115.777l2.409-6.716h.9L618,116.985h-.711l-2.975-7.924h.9Z"/><path d="M625.369,117.132a3.444,3.444,0,0,1-1.828-.5,3.406,3.406,0,0,1-1.27-1.388,4.341,4.341,0,0,1-.455-2v-.315a4.667,4.667,0,0,1,.444-2.058,3.525,3.525,0,0,1,1.234-1.439,3.049,3.049,0,0,1,1.715-.524,2.858,2.858,0,0,1,2.287.985,3.992,3.992,0,0,1,.848,2.692v.491h-5.655v.168a3.314,3.314,0,0,0,.772,2.245,2.461,2.461,0,0,0,1.945.9,2.841,2.841,0,0,0,1.24-.256,2.751,2.751,0,0,0,.979-.821l.549.418A3.2,3.2,0,0,1,625.369,117.132Zm-.16-7.471a2.2,2.2,0,0,0-1.668.725,3.338,3.338,0,0,0-.822,1.948h4.752v-.095a2.906,2.906,0,0,0-.651-1.86A2.021,2.021,0,0,0,625.209,109.661Zm.973-3.926h1.062l-1.691,2.051-.77,0Z"/><path d="M630.848,109.061l.029,1.289a2.924,2.924,0,0,1,1.1-1.077,3.012,3.012,0,0,1,1.464-.359,2.223,2.223,0,0,1,2.381,1.538,2.992,2.992,0,0,1,1.135-1.139,3.15,3.15,0,0,1,1.568-.4q2.55,0,2.6,2.783v5.288h-.879v-5.222a2.355,2.355,0,0,0-.457-1.575,1.869,1.869,0,0,0-1.469-.512,2.341,2.341,0,0,0-1.6.611,2.167,2.167,0,0,0-.725,1.454v5.244h-.879V111.7a2.169,2.169,0,0,0-.478-1.519,1.913,1.913,0,0,0-1.455-.5,2.206,2.206,0,0,0-1.42.472,2.753,2.753,0,0,0-.879,1.4v5.434h-.879v-7.924Z"/><path d="M648.441,115.982a2.847,2.847,0,0,1-2.527,1.15,2.449,2.449,0,0,1-1.926-.736,3.228,3.228,0,0,1-.674-2.179v-5.156h.872v5.046q0,2.263,1.832,2.263a2.244,2.244,0,0,0,2.408-1.575v-5.734h.879v7.924h-.85Z"/><path d="M397.865,130.971a1.254,1.254,0,0,0-.523-1.047,4.039,4.039,0,0,0-1.578-.619,7.154,7.154,0,0,1-1.639-.513,2.165,2.165,0,0,1-.863-.707,1.761,1.761,0,0,1-.282-1.01,1.885,1.885,0,0,1,.784-1.55,3.165,3.165,0,0,1,2.006-.611,3.265,3.265,0,0,1,2.128.655,2.108,2.108,0,0,1,.8,1.711h-.879a1.415,1.415,0,0,0-.582-1.157,2.623,2.623,0,0,0-2.855-.077,1.183,1.183,0,0,0-.524,1,1.08,1.08,0,0,0,.436.92,4.608,4.608,0,0,0,1.588.6,7.419,7.419,0,0,1,1.728.578,2.232,2.232,0,0,1,.854.74,2.032,2.032,0,0,1-.531,2.651,3.454,3.454,0,0,1-2.112.6,3.556,3.556,0,0,1-2.246-.67,2.061,2.061,0,0,1-.859-1.7h.879a1.525,1.525,0,0,0,.646,1.2,2.658,2.658,0,0,0,1.58.428,2.489,2.489,0,0,0,1.479-.4A1.211,1.211,0,0,0,397.865,130.971Z"/><path d="M401.549,125.061l.029,1.355a3.158,3.158,0,0,1,1.113-1.117,2.9,2.9,0,0,1,1.473-.385,2.375,2.375,0,0,1,1.9.718,3.231,3.231,0,0,1,.63,2.153v5.2h-.871v-5.207a2.428,2.428,0,0,0-.451-1.582,1.763,1.763,0,0,0-1.418-.52,2.221,2.221,0,0,0-1.439.509,2.981,2.981,0,0,0-.926,1.373v5.427h-.871v-7.924Z"/><path d="M410.375,121.823h1.063l-1.692,2.051-.769,0Zm-.453,11.162h-.879v-7.924h.879Z"/><path d="M412.873,132.246h5.148v.739h-6.232v-.644l4.805-6.519h-4.658v-.761H417.7v.658Zm2.022-9,1.259-1.42h.784v.087l-1.729,1.912h-.629l-1.728-1.919v-.08h.783Z"/><path d="M422.541,133.132a3.444,3.444,0,0,1-1.828-.5,3.406,3.406,0,0,1-1.27-1.388,4.341,4.341,0,0,1-.455-2v-.315a4.667,4.667,0,0,1,.444-2.058,3.525,3.525,0,0,1,1.234-1.439,3.049,3.049,0,0,1,1.715-.524,2.86,2.86,0,0,1,2.287.985,4,4,0,0,1,.848,2.692v.491h-5.655v.168a3.314,3.314,0,0,0,.772,2.245,2.459,2.459,0,0,0,1.945.9,2.841,2.841,0,0,0,1.24-.256,2.751,2.751,0,0,0,.979-.821l.549.418A3.2,3.2,0,0,1,422.541,133.132Zm-.16-7.471a2.2,2.2,0,0,0-1.668.725,3.338,3.338,0,0,0-.822,1.948h4.752v-.095a2.906,2.906,0,0,0-.651-1.86A2.021,2.021,0,0,0,422.381,125.661Z"/><path d="M428.057,125.061l.029,1.355A3.126,3.126,0,0,1,429.2,125.3a2.882,2.882,0,0,1,1.471-.385,2.379,2.379,0,0,1,1.9.718,3.236,3.236,0,0,1,.629,2.153v5.2h-.871v-5.207a2.417,2.417,0,0,0-.451-1.582,1.762,1.762,0,0,0-1.416-.52,2.217,2.217,0,0,0-1.439.509,2.985,2.985,0,0,0-.928,1.373v5.427h-.871v-7.924Z"/><path d="M436.881,121.823h1.062l-1.691,2.051-.77,0Zm-.453,11.162h-.879v-7.924h.879Z"/><path d="M443.246,125.061l.029,1.289a2.931,2.931,0,0,1,1.1-1.077,3.016,3.016,0,0,1,1.465-.359,2.223,2.223,0,0,1,2.381,1.538,2.985,2.985,0,0,1,1.135-1.139,3.147,3.147,0,0,1,1.568-.4q2.548,0,2.6,2.783v5.288h-.878v-5.222a2.36,2.36,0,0,0-.457-1.575,1.869,1.869,0,0,0-1.469-.512,2.343,2.343,0,0,0-1.6.611,2.166,2.166,0,0,0-.724,1.454v5.244h-.879V127.7a2.165,2.165,0,0,0-.479-1.519,1.912,1.912,0,0,0-1.455-.5,2.208,2.208,0,0,0-1.42.472,2.767,2.767,0,0,0-.879,1.4v5.434H442.4v-7.924Z"/><path d="M456.576,125.061l.029,1.355a3.152,3.152,0,0,1,1.114-1.117,2.889,2.889,0,0,1,1.472-.385,2.374,2.374,0,0,1,1.9.718,3.236,3.236,0,0,1,.631,2.153v5.2h-.871v-5.207a2.428,2.428,0,0,0-.452-1.582,1.76,1.76,0,0,0-1.417-.52,2.224,2.224,0,0,0-1.44.509,2.981,2.981,0,0,0-.926,1.373v5.427h-.871v-7.924Z"/><path d="M463.5,128.906a4.667,4.667,0,0,1,.443-2.058,3.327,3.327,0,0,1,3.088-1.934,3.26,3.26,0,0,1,2.563,1.109,4.282,4.282,0,0,1,.982,2.941v.183a4.713,4.713,0,0,1-.443,2.07,3.316,3.316,0,0,1-1.248,1.417,3.433,3.433,0,0,1-1.84.5,3.262,3.262,0,0,1-2.559-1.11,4.26,4.26,0,0,1-.986-2.94Zm.879.241a3.6,3.6,0,0,0,.736,2.333,2.492,2.492,0,0,0,3.854,0,3.719,3.719,0,0,0,.736-2.406v-.168a4.026,4.026,0,0,0-.338-1.663,2.7,2.7,0,0,0-.945-1.168,2.41,2.41,0,0,0-1.391-.414,2.343,2.343,0,0,0-1.912.919,3.716,3.716,0,0,0-.74,2.406Z"/><path d="M472.844,132.246h5.148v.739H471.76v-.644l4.8-6.519h-4.658v-.761h5.764v.658Zm2.021-9,1.26-1.42h.783v.087l-1.728,1.912h-.629l-1.729-1.919v-.08h.783Z"/><path d="M484.307,130.971a1.252,1.252,0,0,0-.524-1.047,4.033,4.033,0,0,0-1.578-.619,7.154,7.154,0,0,1-1.639-.513,2.179,2.179,0,0,1-.863-.707,1.768,1.768,0,0,1-.281-1.01,1.887,1.887,0,0,1,.783-1.55,3.167,3.167,0,0,1,2.006-.611,3.266,3.266,0,0,1,2.129.655,2.111,2.111,0,0,1,.8,1.711h-.879a1.418,1.418,0,0,0-.582-1.157,2.625,2.625,0,0,0-2.856-.077,1.185,1.185,0,0,0-.523,1,1.08,1.08,0,0,0,.435.92,4.617,4.617,0,0,0,1.588.6,7.43,7.43,0,0,1,1.729.578,2.221,2.221,0,0,1,.853.74,2.028,2.028,0,0,1-.531,2.651,3.451,3.451,0,0,1-2.111.6,3.556,3.556,0,0,1-2.246-.67,2.06,2.06,0,0,1-.86-1.7h.879a1.523,1.523,0,0,0,.647,1.2,2.654,2.654,0,0,0,1.58.428,2.488,2.488,0,0,0,1.478-.4A1.212,1.212,0,0,0,484.307,130.971Z"/><path d="M488.518,123.032v2.029h1.64v.717h-1.64v5.287a1.656,1.656,0,0,0,.238.982.92.92,0,0,0,.8.323,5.438,5.438,0,0,0,.711-.073l.037.711a2.854,2.854,0,0,1-.938.124,1.562,1.562,0,0,1-1.312-.524,2.462,2.462,0,0,1-.41-1.542v-5.288h-1.457v-.717h1.457v-2.029Z"/><path d="M494.443,131.777l2.411-6.716h.9l-2.959,7.924h-.711l-2.973-7.924h.9Z"/><path d="M500.609,121.823h1.063l-1.692,2.051-.769,0Zm-.453,11.162h-.879v-7.924h.879Z"/><path d="M511.178,132.985a4.163,4.163,0,0,1-.168-1.106,3.039,3.039,0,0,1-1.176.927,3.6,3.6,0,0,1-1.512.326,2.658,2.658,0,0,1-1.849-.637,2.077,2.077,0,0,1-.707-1.612,2.124,2.124,0,0,1,.963-1.831,4.63,4.63,0,0,1,2.685-.674H511v-.9a1.736,1.736,0,0,0-.523-1.337,2.162,2.162,0,0,0-1.528-.487,2.386,2.386,0,0,0-1.515.469,1.389,1.389,0,0,0-.6,1.127l-.879-.007a2.037,2.037,0,0,1,.879-1.637,3.384,3.384,0,0,1,2.16-.692,3.094,3.094,0,0,1,2.092.663,2.383,2.383,0,0,1,.787,1.849v3.75a4.676,4.676,0,0,0,.24,1.721v.088Zm-2.754-.63a2.946,2.946,0,0,0,1.572-.424A2.5,2.5,0,0,0,511,130.795v-1.743h-1.566a3.925,3.925,0,0,0-2.051.48,1.438,1.438,0,0,0-.74,1.278,1.422,1.422,0,0,0,.494,1.106A1.861,1.861,0,0,0,508.424,132.355Z"/><path d="M515.191,132.985h-.879v-11.25h.879Z"/><path d="M517.088,128.906a4.667,4.667,0,0,1,.443-2.058,3.327,3.327,0,0,1,3.088-1.934,3.261,3.261,0,0,1,2.563,1.109,4.282,4.282,0,0,1,.982,2.941v.183a4.713,4.713,0,0,1-.443,2.07,3.316,3.316,0,0,1-1.248,1.417,3.433,3.433,0,0,1-1.84.5,3.261,3.261,0,0,1-2.559-1.11,4.26,4.26,0,0,1-.986-2.94Zm.879.241a3.6,3.6,0,0,0,.736,2.333,2.492,2.492,0,0,0,3.854,0,3.719,3.719,0,0,0,.736-2.406v-.168a4.026,4.026,0,0,0-.338-1.663,2.7,2.7,0,0,0-.945-1.168,2.412,2.412,0,0,0-1.391-.414,2.343,2.343,0,0,0-1.912.919,3.716,3.716,0,0,0-.74,2.406Z"/><path d="M527.855,128.994l-1,.966v3.025h-.879v-11.25h.879v7.2l.828-.893,3.031-2.981h1.105l-3.361,3.339,3.654,4.585h-1.047Z"/><path d="M532.834,128.906a4.667,4.667,0,0,1,.443-2.058,3.327,3.327,0,0,1,3.088-1.934,3.261,3.261,0,0,1,2.563,1.109,4.282,4.282,0,0,1,.982,2.941v.183a4.713,4.713,0,0,1-.443,2.07,3.316,3.316,0,0,1-1.248,1.417,3.433,3.433,0,0,1-1.84.5,3.262,3.262,0,0,1-2.559-1.11,4.26,4.26,0,0,1-.986-2.94Zm.879.241a3.6,3.6,0,0,0,.736,2.333,2.492,2.492,0,0,0,3.854,0,3.719,3.719,0,0,0,.736-2.406v-.168a4.026,4.026,0,0,0-.338-1.663,2.7,2.7,0,0,0-.945-1.168,2.41,2.41,0,0,0-1.391-.414,2.343,2.343,0,0,0-1.912.919,3.716,3.716,0,0,0-.74,2.406Z"/><path d="M544.078,131.777l2.408-6.716h.9l-2.959,7.924h-.711l-2.975-7.924h.9Z"/><path d="M553.715,132.985a4.163,4.163,0,0,1-.168-1.106,3.039,3.039,0,0,1-1.176.927,3.6,3.6,0,0,1-1.512.326,2.658,2.658,0,0,1-1.849-.637,2.077,2.077,0,0,1-.707-1.612,2.124,2.124,0,0,1,.963-1.831,4.63,4.63,0,0,1,2.685-.674h1.588v-.9a1.736,1.736,0,0,0-.523-1.337,2.162,2.162,0,0,0-1.528-.487,2.386,2.386,0,0,0-1.515.469,1.389,1.389,0,0,0-.6,1.127l-.879-.007a2.037,2.037,0,0,1,.879-1.637,3.384,3.384,0,0,1,2.16-.692,3.094,3.094,0,0,1,2.092.663,2.383,2.383,0,0,1,.787,1.849v3.75a4.676,4.676,0,0,0,.24,1.721v.088Zm-2.754-.63a2.946,2.946,0,0,0,1.572-.424,2.5,2.5,0,0,0,1.006-1.136v-1.743h-1.566a3.925,3.925,0,0,0-2.051.48,1.438,1.438,0,0,0-.74,1.278,1.422,1.422,0,0,0,.494,1.106A1.862,1.862,0,0,0,550.961,132.355Z"/><path d="M557.584,125.061l.029,1.355a3.12,3.12,0,0,1,1.114-1.117,2.876,2.876,0,0,1,1.47-.385,2.381,2.381,0,0,1,1.9.718,3.236,3.236,0,0,1,.629,2.153v5.2h-.871v-5.207a2.417,2.417,0,0,0-.452-1.582,1.761,1.761,0,0,0-1.416-.52,2.217,2.217,0,0,0-1.439.509,2.985,2.985,0,0,0-.928,1.373v5.427h-.871v-7.924Z"/><path d="M567.5,131.726l2.314-6.665h.946l-3.383,9.272-.176.41a2.13,2.13,0,0,1-2.015,1.443,2.446,2.446,0,0,1-.674-.1l-.006-.725.453.044a1.632,1.632,0,0,0,1.045-.318,2.429,2.429,0,0,0,.676-1.095l.388-1.07-2.988-7.858h.959Zm.982-9.991h1.063l-1.693,2.051-.768,0Z"/><path d="M574.951,132.392a2.311,2.311,0,0,0,1.533-.516,1.819,1.819,0,0,0,.672-1.337H578a2.483,2.483,0,0,1-.455,1.322,2.84,2.84,0,0,1-1.109.934,3.335,3.335,0,0,1-1.483.337,3.058,3.058,0,0,1-2.472-1.084,4.382,4.382,0,0,1-.913-2.915v-.264a4.949,4.949,0,0,1,.411-2.073,3.166,3.166,0,0,1,1.175-1.391,3.248,3.248,0,0,1,1.791-.491,3.064,3.064,0,0,1,2.151.776,2.839,2.839,0,0,1,.9,2.044h-.842a2.123,2.123,0,0,0-2.213-2.073,2.184,2.184,0,0,0-1.841.857,3.87,3.87,0,0,0-.657,2.4v.257a3.781,3.781,0,0,0,.657,2.365A2.2,2.2,0,0,0,574.951,132.392Z"/><path d="M580.619,126.4a3.08,3.08,0,0,1,1.106-1.1,2.892,2.892,0,0,1,1.472-.388,2.374,2.374,0,0,1,1.9.718,3.236,3.236,0,0,1,.631,2.153v5.2h-.871v-5.207a2.428,2.428,0,0,0-.452-1.582,1.763,1.763,0,0,0-1.418-.52,2.221,2.221,0,0,0-1.439.509,2.981,2.981,0,0,0-.926,1.373v5.427h-.871v-11.25h.871Z"/><path d="M598,129.1a4.77,4.77,0,0,1-.82,2.94,2.612,2.612,0,0,1-2.2,1.088,2.932,2.932,0,0,1-2.49-1.143v4.043h-.871V125.061h.813l.045,1.12a2.809,2.809,0,0,1,2.482-1.267,2.635,2.635,0,0,1,2.23,1.077,4.873,4.873,0,0,1,.809,2.988Zm-.879-.154a4.083,4.083,0,0,0-.621-2.395,2.009,2.009,0,0,0-1.736-.879,2.314,2.314,0,0,0-2.272,1.516v3.8a2.322,2.322,0,0,0,.9,1.04,2.589,2.589,0,0,0,1.382.359,1.987,1.987,0,0,0,1.725-.882A4.429,4.429,0,0,0,597.119,128.95Z"/><path d="M599.457,128.906a4.667,4.667,0,0,1,.443-2.058,3.327,3.327,0,0,1,3.088-1.934,3.261,3.261,0,0,1,2.563,1.109,4.282,4.282,0,0,1,.982,2.941v.183a4.713,4.713,0,0,1-.443,2.07,3.316,3.316,0,0,1-1.248,1.417,3.433,3.433,0,0,1-1.84.5,3.262,3.262,0,0,1-2.559-1.11,4.26,4.26,0,0,1-.986-2.94Zm.879.241a3.6,3.6,0,0,0,.736,2.333,2.492,2.492,0,0,0,3.854,0,3.719,3.719,0,0,0,.736-2.406v-.168a4.026,4.026,0,0,0-.338-1.663,2.7,2.7,0,0,0-.945-1.168,2.41,2.41,0,0,0-1.391-.414,2.343,2.343,0,0,0-1.912.919,3.716,3.716,0,0,0-.74,2.406Z"/><path d="M610.7,131.777l2.41-6.716h.9l-2.959,7.924h-.711l-2.973-7.924h.9Z"/><path d="M614.852,128.906a4.667,4.667,0,0,1,.443-2.058,3.327,3.327,0,0,1,3.088-1.934,3.258,3.258,0,0,1,2.562,1.109,4.277,4.277,0,0,1,.983,2.941v.183a4.714,4.714,0,0,1-.444,2.07,3.316,3.316,0,0,1-1.248,1.417,3.431,3.431,0,0,1-1.84.5,3.26,3.26,0,0,1-2.558-1.11,4.26,4.26,0,0,1-.986-2.94Zm.878.241a3.6,3.6,0,0,0,.737,2.333,2.491,2.491,0,0,0,3.853,0,3.713,3.713,0,0,0,.737-2.406v-.168a4.042,4.042,0,0,0-.338-1.663,2.7,2.7,0,0,0-.946-1.168,2.409,2.409,0,0,0-1.39-.414,2.343,2.343,0,0,0-1.912.919,3.717,3.717,0,0,0-.741,2.406Z"/><path d="M624.717,132.985h-.879v-11.25h.879Z"/><path d="M630.166,133.132a3.444,3.444,0,0,1-1.828-.5,3.406,3.406,0,0,1-1.27-1.388,4.341,4.341,0,0,1-.455-2v-.315a4.667,4.667,0,0,1,.444-2.058,3.525,3.525,0,0,1,1.234-1.439,3.049,3.049,0,0,1,1.715-.524,2.86,2.86,0,0,1,2.287.985,4,4,0,0,1,.848,2.692v.491h-5.655v.168a3.314,3.314,0,0,0,.772,2.245,2.459,2.459,0,0,0,1.945.9,2.841,2.841,0,0,0,1.24-.256,2.751,2.751,0,0,0,.979-.821l.549.418A3.2,3.2,0,0,1,630.166,133.132Zm-.16-7.471a2.2,2.2,0,0,0-1.668.725,3.338,3.338,0,0,0-.822,1.948h4.752v-.095a2.906,2.906,0,0,0-.651-1.86A2.021,2.021,0,0,0,630.006,125.661Z"/><path d="M635.682,125.061l.029,1.355a3.158,3.158,0,0,1,1.113-1.117,2.9,2.9,0,0,1,1.473-.385,2.373,2.373,0,0,1,1.9.718,3.236,3.236,0,0,1,.631,2.153v5.2h-.871v-5.207a2.428,2.428,0,0,0-.451-1.582,1.764,1.764,0,0,0-1.418-.52,2.219,2.219,0,0,0-1.439.509,2.981,2.981,0,0,0-.926,1.373v5.427h-.871v-7.924Z"/><path d="M646.154,133.132a3.444,3.444,0,0,1-1.828-.5,3.4,3.4,0,0,1-1.269-1.388,4.328,4.328,0,0,1-.455-2v-.315a4.667,4.667,0,0,1,.443-2.058,3.525,3.525,0,0,1,1.234-1.439,3.051,3.051,0,0,1,1.715-.524,2.858,2.858,0,0,1,2.287.985,3.992,3.992,0,0,1,.848,2.692v.491h-5.654v.168a3.314,3.314,0,0,0,.771,2.245,2.461,2.461,0,0,0,1.945.9,2.849,2.849,0,0,0,1.241-.256,2.756,2.756,0,0,0,.978-.821l.549.418A3.2,3.2,0,0,1,646.154,133.132Zm-.16-7.471a2.2,2.2,0,0,0-1.668.725,3.344,3.344,0,0,0-.822,1.948h4.752v-.095a2.9,2.9,0,0,0-.651-1.86A2.021,2.021,0,0,0,645.994,125.661Z"/><path d="M652.719,128.994l-1,.966v3.025h-.879v-11.25h.879v7.2l.828-.893,3.031-2.981h1.106l-3.362,3.339,3.655,4.585h-1.047Z"/><path d="M658.1,132.458a.621.621,0,0,1,.164-.436.588.588,0,0,1,.457-.179.611.611,0,0,1,.463.179.62.62,0,0,1,.168.436.567.567,0,0,1-.168.421.638.638,0,0,1-.463.165.614.614,0,0,1-.457-.165A.567.567,0,0,1,658.1,132.458Z"/><polyline class="cls-9" points="729.298 233.582 692.522 233.582 692.522 229.173 654.778 229.173 654.778 224.765 617.035 224.765 617.035 220.357 579.291 220.357 579.291 215.948 541.548 215.948 541.548 211.54 503.804 211.54 503.804 207.131 466.061 207.131 466.061 202.723 428.317 202.723 428.317 198.315 390.574 198.315 390.574 193.906 352.83 193.906 352.83 168.804 315.087 168.804 315.087 164.882 277.343 164.882 277.343 160.959 239.6 160.959 239.6 157.036 201.856 157.036 201.856 153.114 164.112 153.114 164.112 149.191 126.369 149.191 126.369 145.269 88.626 145.269 88.626 141.346 50.882 141.346"/></svg>