<svg id="Layer_1" data-name="Layer 1" xmlns="http://www.w3.org/2000/svg" viewBox="0 0 740 467.681"><defs><style>.cls-1{fill:#87bbde;}.cls-1,.cls-11,.cls-5,.cls-7{stroke:#fff;}.cls-1,.cls-11,.cls-4,.cls-5,.cls-6,.cls-7{stroke-miterlimit:10;}.cls-1,.cls-11{stroke-width:1.107px;}.cls-2,.cls-3,.cls-4,.cls-6{fill:none;}.cls-2{stroke:#666;stroke-width:0.664px;}.cls-2,.cls-3{stroke-linecap:square;}.cls-3{stroke:#808285;stroke-linejoin:round;stroke-width:0.3px;stroke-dasharray:5.688;}.cls-4,.cls-6{stroke:#000;}.cls-4{stroke-width:2.214px;}.cls-5{fill:#e8e3e7;}.cls-6{stroke-width:2px;}.cls-7{fill:#97c1de;}.cls-8{fill:#999;}.cls-9{fill:#76b4de;}.cls-10{opacity:0.1;}</style></defs><path class="cls-1" d="M49.66,389.933H95v-206.5H49.66Z"/><path class="cls-1" d="M95,389.933h45.342V181.211H95Z"/><path class="cls-1" d="M140.343,389.933h45.341V167.991H140.343Z"/><path class="cls-1" d="M185.684,389.933h45.341V172.611H185.684Z"/><path class="cls-1" d="M231.025,389.933h45.341V197.223H231.025Z"/><path class="cls-1" d="M276.366,389.933h45.341V191.155H276.366Z"/><path class="cls-1" d="M321.707,389.933h45.341V194.683H321.707Z"/><path class="cls-1" d="M367.048,389.933H412.39V189.9H367.048Z"/><path class="cls-1" d="M412.39,389.933h45.341V188.817H412.39Z"/><path class="cls-1" d="M457.731,389.933h45.341V198.349H457.731Z"/><path class="cls-1" d="M503.072,389.933h45.341V199.214H503.072Z"/><path class="cls-1" d="M548.413,389.933h45.341V204.15H548.413Z"/><path class="cls-1" d="M593.754,389.933H639.1V203.422H593.754Z"/><path class="cls-1" d="M639.1,389.933h45.341V210.45H639.1Z"/><path class="cls-1" d="M684.437,389.933h45.341V226.052H684.437Z"/><path d="M63.731,412.729H57.052v-.674l3.654-4.146a9.6,9.6,0,0,0,1.26-1.728,2.885,2.885,0,0,0,.351-1.326,2.152,2.152,0,0,0-.593-1.6,2.211,2.211,0,0,0-1.633-.59,2.3,2.3,0,0,0-1.739.689,2.463,2.463,0,0,0-.664,1.787h-.871a3.339,3.339,0,0,1,.407-1.641,2.917,2.917,0,0,1,1.157-1.161,3.44,3.44,0,0,1,1.71-.421,3.221,3.221,0,0,1,2.289.77,2.722,2.722,0,0,1,.824,2.093,3.549,3.549,0,0,1-.466,1.634,12.089,12.089,0,0,1-1.636,2.212l-2.974,3.361h5.6Z"/><path d="M71.794,408.283a5.9,5.9,0,0,1-.827,3.424,3.134,3.134,0,0,1-4.863.022,5.681,5.681,0,0,1-.865-3.336V406.48a5.8,5.8,0,0,1,.835-3.405,3.162,3.162,0,0,1,4.857-.04,5.589,5.589,0,0,1,.863,3.292Zm-.879-1.912a5.193,5.193,0,0,0-.6-2.768,2.2,2.2,0,0,0-3.592-.023,5.037,5.037,0,0,0-.616,2.7v2.095a5.2,5.2,0,0,0,.619,2.79,2.009,2.009,0,0,0,1.8.967,1.976,1.976,0,0,0,1.776-.945,5.212,5.212,0,0,0,.611-2.768Z"/><path d="M80.107,408.283a5.9,5.9,0,0,1-.827,3.424,2.8,2.8,0,0,1-2.438,1.168,2.827,2.827,0,0,1-2.425-1.146,5.674,5.674,0,0,1-.864-3.336V406.48a5.791,5.791,0,0,1,.835-3.405,3.161,3.161,0,0,1,4.856-.04,5.574,5.574,0,0,1,.863,3.292Zm-.878-1.912a5.2,5.2,0,0,0-.6-2.768,2.205,2.205,0,0,0-3.593-.023,5.047,5.047,0,0,0-.615,2.7v2.095a5.2,5.2,0,0,0,.619,2.79,2.008,2.008,0,0,0,1.8.967,1.974,1.974,0,0,0,1.775-.945,5.2,5.2,0,0,0,.612-2.768Z"/><path d="M82.584,407.265l.52-5.2h5.333v.813H83.858l-.373,3.6a3.478,3.478,0,0,1,2.006-.585,2.97,2.97,0,0,1,2.3.937,3.567,3.567,0,0,1,.856,2.5,3.778,3.778,0,0,1-.835,2.615,2.994,2.994,0,0,1-2.351.93,3.25,3.25,0,0,1-2.256-.776,3.176,3.176,0,0,1-.988-2.175h.842a2.533,2.533,0,0,0,.74,1.651,2.376,2.376,0,0,0,1.662.56,2.082,2.082,0,0,0,1.726-.725,3.232,3.232,0,0,0,.582-2.065,2.784,2.784,0,0,0-.652-1.911,2.25,2.25,0,0,0-1.78-.741,3.362,3.362,0,0,0-1.084.158,2.945,2.945,0,0,0-.974.612Z"/><path d="M154.315,412.729h-6.679v-.674l3.654-4.146a9.6,9.6,0,0,0,1.26-1.728,2.885,2.885,0,0,0,.351-1.326,2.152,2.152,0,0,0-.593-1.6,2.211,2.211,0,0,0-1.633-.59,2.3,2.3,0,0,0-1.739.689,2.463,2.463,0,0,0-.664,1.787H147.4a3.339,3.339,0,0,1,.407-1.641,2.917,2.917,0,0,1,1.157-1.161,3.44,3.44,0,0,1,1.71-.421,3.221,3.221,0,0,1,2.289.77,2.722,2.722,0,0,1,.824,2.093,3.549,3.549,0,0,1-.466,1.634,12.089,12.089,0,0,1-1.636,2.212l-2.974,3.361h5.6Z"/><path d="M162.378,408.283a5.9,5.9,0,0,1-.827,3.424,3.134,3.134,0,0,1-4.863.022,5.681,5.681,0,0,1-.865-3.336V406.48a5.8,5.8,0,0,1,.835-3.405,3.162,3.162,0,0,1,4.857-.04,5.589,5.589,0,0,1,.863,3.292Zm-.879-1.912a5.193,5.193,0,0,0-.6-2.768,2.2,2.2,0,0,0-3.592-.023,5.037,5.037,0,0,0-.616,2.7v2.095a5.2,5.2,0,0,0,.619,2.79,2.009,2.009,0,0,0,1.8.967,1.976,1.976,0,0,0,1.776-.945,5.212,5.212,0,0,0,.611-2.768Z"/><path d="M170.691,408.283a5.9,5.9,0,0,1-.827,3.424,3.134,3.134,0,0,1-4.863.022,5.674,5.674,0,0,1-.864-3.336V406.48a5.791,5.791,0,0,1,.835-3.405,3.161,3.161,0,0,1,4.856-.04,5.574,5.574,0,0,1,.863,3.292Zm-.879-1.912a5.2,5.2,0,0,0-.6-2.768,2.205,2.205,0,0,0-3.593-.023,5.047,5.047,0,0,0-.615,2.7v2.095a5.2,5.2,0,0,0,.619,2.79,2.008,2.008,0,0,0,1.8.967,1.974,1.974,0,0,0,1.775-.945,5.2,5.2,0,0,0,.611-2.768Z"/><path d="M179.145,402.57l-4.556,10.159h-.916l4.527-9.917h-6.064v-.748h7.009Z"/><path d="M244.9,412.729h-6.68v-.674l3.655-4.146a9.58,9.58,0,0,0,1.259-1.728,2.875,2.875,0,0,0,.352-1.326,2.148,2.148,0,0,0-.594-1.6,2.207,2.207,0,0,0-1.633-.59,2.3,2.3,0,0,0-1.739.689,2.466,2.466,0,0,0-.663,1.787h-.871a3.349,3.349,0,0,1,.406-1.641,2.924,2.924,0,0,1,1.157-1.161,3.443,3.443,0,0,1,1.71-.421,3.218,3.218,0,0,1,2.289.77,2.723,2.723,0,0,1,.825,2.093,3.561,3.561,0,0,1-.466,1.634,12.151,12.151,0,0,1-1.637,2.212l-2.974,3.361h5.6Z"/><path d="M252.963,408.283a5.9,5.9,0,0,1-.827,3.424,3.134,3.134,0,0,1-4.863.022,5.674,5.674,0,0,1-.864-3.336V406.48a5.791,5.791,0,0,1,.835-3.405,3.161,3.161,0,0,1,4.856-.04,5.574,5.574,0,0,1,.863,3.292Zm-.879-1.912a5.2,5.2,0,0,0-.6-2.768,2.205,2.205,0,0,0-3.593-.023,5.047,5.047,0,0,0-.615,2.7v2.095a5.2,5.2,0,0,0,.619,2.79,2.008,2.008,0,0,0,1.8.967,1.974,1.974,0,0,0,1.775-.945,5.2,5.2,0,0,0,.611-2.768Z"/><path d="M261.276,408.283a5.908,5.908,0,0,1-.827,3.424,3.135,3.135,0,0,1-4.864.022,5.689,5.689,0,0,1-.864-3.336V406.48a5.8,5.8,0,0,1,.835-3.405,3.162,3.162,0,0,1,4.857-.04,5.589,5.589,0,0,1,.863,3.292Zm-.879-1.912a5.193,5.193,0,0,0-.6-2.768,2.2,2.2,0,0,0-3.592-.023,5.037,5.037,0,0,0-.616,2.7v2.095a5.2,5.2,0,0,0,.619,2.79,2.009,2.009,0,0,0,1.8.967,1.976,1.976,0,0,0,1.776-.945,5.212,5.212,0,0,0,.611-2.768Z"/><path d="M268.629,407.792a3.3,3.3,0,0,1-1.164,1.065,3.111,3.111,0,0,1-1.509.377,2.8,2.8,0,0,1-1.6-.468,3.06,3.06,0,0,1-1.076-1.3,4.261,4.261,0,0,1-.381-1.81,4.448,4.448,0,0,1,.406-1.918,3.207,3.207,0,0,1,1.135-1.345,3.28,3.28,0,0,1,4.179.645,5.022,5.022,0,0,1,.893,3.19v.791a6.562,6.562,0,0,1-1.23,4.336,4.653,4.653,0,0,1-3.758,1.45h-.16l.007-.762h.307a3.9,3.9,0,0,0,2.909-1.084A4.642,4.642,0,0,0,268.629,407.792Zm-2.563.681a2.571,2.571,0,0,0,1.578-.522,2.828,2.828,0,0,0,.993-1.355v-.5a4.1,4.1,0,0,0-.678-2.518,2.177,2.177,0,0,0-1.828-.894,2.087,2.087,0,0,0-1.706.837,3.274,3.274,0,0,0-.667,2.107,3.182,3.182,0,0,0,.642,2.034A2.019,2.019,0,0,0,266.066,408.473Z"/><path d="M335.484,412.729H328.8v-.674l3.654-4.146a9.545,9.545,0,0,0,1.26-1.728,2.875,2.875,0,0,0,.352-1.326,2.148,2.148,0,0,0-.594-1.6,2.207,2.207,0,0,0-1.633-.59,2.3,2.3,0,0,0-1.739.689,2.466,2.466,0,0,0-.663,1.787h-.871a3.349,3.349,0,0,1,.406-1.641,2.924,2.924,0,0,1,1.157-1.161,3.443,3.443,0,0,1,1.71-.421,3.218,3.218,0,0,1,2.289.77,2.723,2.723,0,0,1,.825,2.093,3.561,3.561,0,0,1-.466,1.634,12.151,12.151,0,0,1-1.637,2.212l-2.974,3.361h5.6Z"/><path d="M343.547,408.283a5.9,5.9,0,0,1-.827,3.424,3.134,3.134,0,0,1-4.863.022,5.674,5.674,0,0,1-.864-3.336V406.48a5.791,5.791,0,0,1,.835-3.405,3.161,3.161,0,0,1,4.856-.04,5.574,5.574,0,0,1,.863,3.292Zm-.879-1.912a5.2,5.2,0,0,0-.6-2.768,2.205,2.205,0,0,0-3.593-.023,5.047,5.047,0,0,0-.615,2.7v2.095a5.2,5.2,0,0,0,.619,2.79,2.008,2.008,0,0,0,1.8.967,1.974,1.974,0,0,0,1.775-.945,5.2,5.2,0,0,0,.611-2.768Z"/><path d="M349.509,412.729h-.879v-9.61l-2.9,1.076v-.82l3.633-1.348h.146Z"/><path d="M357.822,412.729h-.879v-9.61l-2.9,1.076v-.82l3.633-1.348h.147Z"/><path d="M426.068,412.729h-6.679v-.674l3.654-4.146a9.645,9.645,0,0,0,1.26-1.728,2.885,2.885,0,0,0,.351-1.326,2.152,2.152,0,0,0-.593-1.6,2.211,2.211,0,0,0-1.633-.59,2.306,2.306,0,0,0-1.74.689,2.466,2.466,0,0,0-.663,1.787h-.871a3.339,3.339,0,0,1,.407-1.641,2.917,2.917,0,0,1,1.157-1.161,3.44,3.44,0,0,1,1.71-.421,3.221,3.221,0,0,1,2.289.77,2.722,2.722,0,0,1,.824,2.093,3.549,3.549,0,0,1-.466,1.634,12.056,12.056,0,0,1-1.637,2.212l-2.973,3.361h5.6Z"/><path d="M434.131,408.283a5.908,5.908,0,0,1-.827,3.424,3.135,3.135,0,0,1-4.864.022,5.689,5.689,0,0,1-.864-3.336V406.48a5.791,5.791,0,0,1,.835-3.405,3.162,3.162,0,0,1,4.857-.04,5.589,5.589,0,0,1,.863,3.292Zm-.879-1.912a5.193,5.193,0,0,0-.6-2.768,2.205,2.205,0,0,0-3.593-.023,5.047,5.047,0,0,0-.615,2.7v2.095a5.2,5.2,0,0,0,.619,2.79,2.008,2.008,0,0,0,1.8.967,1.976,1.976,0,0,0,1.776-.945,5.212,5.212,0,0,0,.611-2.768Z"/><path d="M440.094,412.729h-.879v-9.61l-2.9,1.076v-.82l3.633-1.348h.147Z"/><path d="M446.275,406.92h.909a3.049,3.049,0,0,0,1.318-.267,2.017,2.017,0,0,0,.861-.732,1.953,1.953,0,0,0,.3-1.073,2.167,2.167,0,0,0-.579-1.6,2.25,2.25,0,0,0-1.663-.579,2.379,2.379,0,0,0-1.681.6,2.064,2.064,0,0,0-.655,1.592H444.2a2.845,2.845,0,0,1,.418-1.512,2.807,2.807,0,0,1,1.156-1.059,3.606,3.606,0,0,1,1.641-.373,3.189,3.189,0,0,1,2.285.791,2.842,2.842,0,0,1,.836,2.168,2.311,2.311,0,0,1-.487,1.417,2.919,2.919,0,0,1-1.337.971,2.741,2.741,0,0,1,1.509.956,2.6,2.6,0,0,1,.512,1.615,2.877,2.877,0,0,1-.893,2.2,3.356,3.356,0,0,1-2.388.835,3.988,3.988,0,0,1-1.747-.381,2.819,2.819,0,0,1-1.666-2.658h.879a2.127,2.127,0,0,0,.71,1.658,2.615,2.615,0,0,0,1.824.641,2.517,2.517,0,0,0,1.769-.582,2.178,2.178,0,0,0,.633-1.688,2,2,0,0,0-.684-1.634,3.115,3.115,0,0,0-2.019-.563h-.879Z"/><path d="M516.652,412.729h-6.679v-.674l3.654-4.146a9.645,9.645,0,0,0,1.26-1.728,2.885,2.885,0,0,0,.351-1.326,2.152,2.152,0,0,0-.593-1.6,2.211,2.211,0,0,0-1.633-.59,2.305,2.305,0,0,0-1.739.689,2.463,2.463,0,0,0-.664,1.787h-.871a3.339,3.339,0,0,1,.407-1.641,2.92,2.92,0,0,1,1.158-1.161,3.439,3.439,0,0,1,1.709-.421,3.22,3.22,0,0,1,2.289.77,2.722,2.722,0,0,1,.824,2.093,3.546,3.546,0,0,1-.465,1.634,12.1,12.1,0,0,1-1.637,2.212l-2.974,3.361h5.6Z"/><path d="M524.717,408.283a5.9,5.9,0,0,1-.828,3.424,2.8,2.8,0,0,1-2.438,1.168,2.83,2.83,0,0,1-2.426-1.146,5.689,5.689,0,0,1-.863-3.336V406.48a5.791,5.791,0,0,1,.834-3.405,3.163,3.163,0,0,1,4.858-.04,5.589,5.589,0,0,1,.863,3.292Zm-.879-1.912a5.192,5.192,0,0,0-.6-2.768,2.2,2.2,0,0,0-3.592-.023,5.047,5.047,0,0,0-.615,2.7v2.095a5.2,5.2,0,0,0,.619,2.79,2.006,2.006,0,0,0,1.8.967,1.978,1.978,0,0,0,1.776-.945,5.231,5.231,0,0,0,.611-2.768Z"/><path d="M530.678,412.729H529.8v-9.61l-2.9,1.076v-.82l3.633-1.348h.147Z"/><path d="M535.5,407.265l.521-5.2h5.332v.813h-4.578l-.373,3.6a3.476,3.476,0,0,1,2.006-.585,2.972,2.972,0,0,1,2.3.937,3.566,3.566,0,0,1,.855,2.5,3.778,3.778,0,0,1-.834,2.615,2.994,2.994,0,0,1-2.351.93,3.25,3.25,0,0,1-2.256-.776,3.171,3.171,0,0,1-.988-2.175h.841a2.529,2.529,0,0,0,.741,1.651,2.374,2.374,0,0,0,1.662.56,2.076,2.076,0,0,0,1.724-.725,3.22,3.22,0,0,0,.582-2.065,2.783,2.783,0,0,0-.65-1.911,2.252,2.252,0,0,0-1.781-.741,3.366,3.366,0,0,0-1.084.158,2.942,2.942,0,0,0-.973.612Z"/><path d="M607.237,412.729h-6.679v-.674l3.654-4.146a9.645,9.645,0,0,0,1.26-1.728,2.885,2.885,0,0,0,.351-1.326,2.148,2.148,0,0,0-.594-1.6,2.207,2.207,0,0,0-1.632-.59,2.306,2.306,0,0,0-1.74.689,2.466,2.466,0,0,0-.663,1.787h-.871a3.349,3.349,0,0,1,.406-1.641,2.926,2.926,0,0,1,1.158-1.161,3.44,3.44,0,0,1,1.71-.421,3.221,3.221,0,0,1,2.289.77,2.722,2.722,0,0,1,.824,2.093,3.549,3.549,0,0,1-.466,1.634,12.056,12.056,0,0,1-1.637,2.212l-2.973,3.361h5.6Z"/><path d="M615.3,408.283a5.908,5.908,0,0,1-.827,3.424,3.135,3.135,0,0,1-4.864.022,5.689,5.689,0,0,1-.864-3.336V406.48a5.791,5.791,0,0,1,.835-3.405,3.162,3.162,0,0,1,4.857-.04,5.589,5.589,0,0,1,.863,3.292Zm-.879-1.912a5.193,5.193,0,0,0-.6-2.768,2.205,2.205,0,0,0-3.593-.023,5.047,5.047,0,0,0-.615,2.7v2.095a5.2,5.2,0,0,0,.619,2.79,2.008,2.008,0,0,0,1.8.967,1.977,1.977,0,0,0,1.776-.945,5.212,5.212,0,0,0,.611-2.768Z"/><path d="M621.263,412.729h-.879v-9.61l-2.9,1.076v-.82l3.633-1.348h.147Z"/><path d="M632.065,402.57l-4.555,10.159h-.916l4.527-9.917h-6.064v-.748h7.008Z"/><path d="M697.822,412.728h-6.679v-.674l3.654-4.146a9.645,9.645,0,0,0,1.26-1.728,2.885,2.885,0,0,0,.351-1.326,2.148,2.148,0,0,0-.594-1.6,2.207,2.207,0,0,0-1.632-.59,2.306,2.306,0,0,0-1.74.689,2.468,2.468,0,0,0-.663,1.787h-.871a3.349,3.349,0,0,1,.406-1.641,2.926,2.926,0,0,1,1.158-1.161,3.44,3.44,0,0,1,1.71-.421,3.221,3.221,0,0,1,2.289.77,2.722,2.722,0,0,1,.824,2.093,3.549,3.549,0,0,1-.466,1.634,12.056,12.056,0,0,1-1.637,2.212l-2.973,3.361h5.6Z"/><path d="M705.885,408.282a5.908,5.908,0,0,1-.827,3.424,3.135,3.135,0,0,1-4.864.022,5.689,5.689,0,0,1-.864-3.336v-1.913a5.791,5.791,0,0,1,.835-3.4,3.161,3.161,0,0,1,4.856-.04,5.581,5.581,0,0,1,.864,3.292Zm-.879-1.912a5.193,5.193,0,0,0-.6-2.768,2.205,2.205,0,0,0-3.593-.023,5.047,5.047,0,0,0-.615,2.7v2.1a5.2,5.2,0,0,0,.619,2.79,2.006,2.006,0,0,0,1.8.967,1.977,1.977,0,0,0,1.776-.945,5.212,5.212,0,0,0,.611-2.768Z"/><path d="M711.848,412.728h-.879v-9.61l-2.9,1.076v-.82l3.633-1.348h.147Z"/><path d="M721.553,407.791a3.3,3.3,0,0,1-1.164,1.065,3.115,3.115,0,0,1-1.51.377,2.8,2.8,0,0,1-1.6-.468,3.061,3.061,0,0,1-1.076-1.3,4.261,4.261,0,0,1-.381-1.81,4.434,4.434,0,0,1,.407-1.918,3.2,3.2,0,0,1,1.134-1.345,3.28,3.28,0,0,1,4.179.645,5.016,5.016,0,0,1,.894,3.19v.791a6.562,6.562,0,0,1-1.231,4.336,4.653,4.653,0,0,1-3.758,1.45h-.16l.007-.762h.308a3.9,3.9,0,0,0,2.908-1.084A4.643,4.643,0,0,0,721.553,407.791Zm-2.564.681a2.569,2.569,0,0,0,1.578-.522,2.836,2.836,0,0,0,.994-1.355v-.5a4.1,4.1,0,0,0-.678-2.518,2.179,2.179,0,0,0-1.828-.894,2.084,2.084,0,0,0-1.706.837,3.268,3.268,0,0,0-.667,2.107,3.188,3.188,0,0,0,.641,2.034A2.02,2.02,0,0,0,718.989,408.472Z"/><path class="cls-2" d="M44.312,389.933H729.778"/><path class="cls-3" d="M5.8,389.933h723.98"/><path class="cls-3" d="M5.8,338.67h723.98"/><path class="cls-3" d="M5.8,287.407h723.98"/><path class="cls-3" d="M5.8,236.144h723.98"/><path class="cls-3" d="M5.8,184.881h723.98"/><path class="cls-3" d="M5.8,133.618h723.98"/><line class="cls-4" x1="95.002" y1="175.767" x2="49.66" y2="175.767"/><line class="cls-4" x1="140.342" y1="177.625" x2="95.002" y2="177.625"/><line class="cls-4" x1="185.684" y1="165.77" x2="140.342" y2="165.77"/><line class="cls-4" x1="231.025" y1="184.881" x2="185.684" y2="184.881"/><line class="cls-4" x1="276.366" y1="179.811" x2="231.025" y2="179.811"/><line class="cls-4" x1="321.707" y1="176.597" x2="276.366" y2="176.597"/><line class="cls-4" x1="367.048" y1="174.504" x2="321.707" y2="174.504"/><line class="cls-4" x1="412.39" y1="160.363" x2="367.048" y2="160.363"/><line class="cls-4" x1="457.731" y1="169.074" x2="412.39" y2="169.074"/><line class="cls-4" x1="503.072" y1="226.015" x2="457.731" y2="226.015"/><line class="cls-4" x1="548.413" y1="229.996" x2="503.072" y2="229.996"/><line class="cls-4" x1="593.754" y1="227.23" x2="548.413" y2="227.23"/><line class="cls-4" x1="639.096" y1="207.851" x2="593.754" y2="207.851"/><line class="cls-4" x1="684.437" y1="215.538" x2="639.096" y2="215.538"/><line class="cls-4" x1="729.778" y1="252" x2="684.437" y2="252"/><path d="M8.212,447.044l-2.22-.722.214-.675,2.22.823L8.4,444h.7l-.053,2.492,2.167-.848.221.675-2.227.768,1.491,1.967-.569.422-1.431-2.04L7.33,449.459l-.57-.408Z"/><path d="M16.541,453.041h6.013v.7H15.543v-.622l5.781-8.422H15.718V444H22.34v.583Z"/><path d="M28.749,453.737a3.739,3.739,0,0,1-.154-1.01,2.784,2.784,0,0,1-1.074.846,3.3,3.3,0,0,1-1.381.3,2.425,2.425,0,0,1-1.689-.582,1.9,1.9,0,0,1-.646-1.472,1.936,1.936,0,0,1,.88-1.672,4.218,4.218,0,0,1,2.451-.616h1.452v-.822a1.591,1.591,0,0,0-.478-1.222,1.98,1.98,0,0,0-1.395-.444,2.183,2.183,0,0,0-1.384.428,1.27,1.27,0,0,0-.549,1.03l-.8-.007a1.863,1.863,0,0,1,.8-1.5,3.093,3.093,0,0,1,1.973-.632,2.823,2.823,0,0,1,1.911.606,2.173,2.173,0,0,1,.718,1.689v3.425a4.252,4.252,0,0,0,.221,1.572v.08Zm-2.515-.575a2.681,2.681,0,0,0,1.434-.389,2.275,2.275,0,0,0,.92-1.036v-1.592H27.157a3.586,3.586,0,0,0-1.873.438,1.314,1.314,0,0,0-.676,1.167,1.3,1.3,0,0,0,.451,1.011A1.706,1.706,0,0,0,26.234,453.162Z"/><path d="M33.217,444.854l1.152-1.3h.715v.08l-1.579,1.746H32.93l-1.579-1.753v-.073h.716Zm1.647,2.328a2.932,2.932,0,0,0-.542-.047,1.954,1.954,0,0,0-1.268.418,2.276,2.276,0,0,0-.739,1.214v4.97h-.8V446.5H32.3l.014,1.15a2.128,2.128,0,0,1,2.04-1.284,1.33,1.33,0,0,1,.528.087Z"/><path d="M37.425,443.542h.97l-1.546,1.873-.7,0Zm-.415,10.2h-.8V446.5h.8Z"/><path d="M39.707,453.062h4.7v.675H38.716v-.589l4.389-5.954H38.85V446.5h5.265v.6Z"/><path d="M48.537,453.871a3.133,3.133,0,0,1-1.669-.455,3.1,3.1,0,0,1-1.161-1.268,3.945,3.945,0,0,1-.415-1.823v-.287a4.259,4.259,0,0,1,.405-1.88,3.207,3.207,0,0,1,1.127-1.314,2.772,2.772,0,0,1,1.565-.479,2.615,2.615,0,0,1,2.091.9,3.652,3.652,0,0,1,.772,2.459v.448H46.088v.153a3.035,3.035,0,0,0,.7,2.051,2.248,2.248,0,0,0,1.777.819,2.614,2.614,0,0,0,1.134-.234,2.5,2.5,0,0,0,.893-.749l.5.381A2.918,2.918,0,0,1,48.537,453.871Zm-.148-6.823a2,2,0,0,0-1.521.662,3.052,3.052,0,0,0-.753,1.779h4.342V449.4a2.661,2.661,0,0,0-.6-1.7A1.848,1.848,0,0,0,48.389,447.048Z"/><path d="M53.574,446.5l.026,1.237a2.86,2.86,0,0,1,1.017-1.019,2.634,2.634,0,0,1,1.344-.352,2.171,2.171,0,0,1,1.733.656,2.953,2.953,0,0,1,.575,1.966v4.75h-.8V448.98a2.212,2.212,0,0,0-.411-1.444,1.614,1.614,0,0,0-1.295-.475,2.023,2.023,0,0,0-1.314.465,2.727,2.727,0,0,0-.846,1.254v4.957h-.8V446.5Z"/><path d="M61.634,443.542h.97l-1.546,1.873-.7,0Zm-.415,10.2h-.8V446.5h.8Z"/><path d="M67.447,446.5l.027,1.178a2.682,2.682,0,0,1,1-.984,2.759,2.759,0,0,1,1.338-.328,2.031,2.031,0,0,1,2.174,1.406,2.718,2.718,0,0,1,1.037-1.042,2.882,2.882,0,0,1,1.432-.364q2.327,0,2.375,2.542v4.83h-.8v-4.769a2.165,2.165,0,0,0-.418-1.439,1.705,1.705,0,0,0-1.342-.468,2.132,2.132,0,0,0-1.458.558,1.974,1.974,0,0,0-.662,1.328v4.79h-.8v-4.83a1.98,1.98,0,0,0-.438-1.387,1.742,1.742,0,0,0-1.328-.459,2.018,2.018,0,0,0-1.3.431,2.529,2.529,0,0,0-.8,1.281v4.964h-.8V446.5Z"/><path d="M78.417,450.011a4.256,4.256,0,0,1,.406-1.88,3.038,3.038,0,0,1,2.819-1.766,2.978,2.978,0,0,1,2.342,1.014,3.9,3.9,0,0,1,.9,2.685v.167a4.29,4.29,0,0,1-.405,1.89,3.007,3.007,0,0,1-1.141,1.3,3.115,3.115,0,0,1-1.678.455,2.978,2.978,0,0,1-2.338-1.014,3.894,3.894,0,0,1-.9-2.685Zm.8.22a3.283,3.283,0,0,0,.673,2.131,2.275,2.275,0,0,0,3.519,0,3.391,3.391,0,0,0,.671-2.2v-.154a3.688,3.688,0,0,0-.307-1.519,2.47,2.47,0,0,0-.862-1.066,2.208,2.208,0,0,0-1.272-.378,2.138,2.138,0,0,0-1.746.839,3.4,3.4,0,0,0-.676,2.2Z"/><path d="M87.329,447.724a2.812,2.812,0,0,1,1.009-1,2.644,2.644,0,0,1,1.345-.355,2.172,2.172,0,0,1,1.733.656,2.958,2.958,0,0,1,.575,1.966v4.75h-.8V448.98a2.218,2.218,0,0,0-.411-1.444,1.616,1.616,0,0,0-1.3-.475,2.027,2.027,0,0,0-1.315.465,2.718,2.718,0,0,0-.845,1.254v4.957h-.8V443.462h.8Z"/><path d="M94.947,453.737h-.8V443.462h.8Z"/><path d="M101.69,453.737a3.746,3.746,0,0,1-.153-1.01,2.8,2.8,0,0,1-1.075.846,3.29,3.29,0,0,1-1.38.3,2.427,2.427,0,0,1-1.69-.582,1.894,1.894,0,0,1-.645-1.472,1.937,1.937,0,0,1,.879-1.672,4.221,4.221,0,0,1,2.452-.616h1.452v-.822a1.588,1.588,0,0,0-.479-1.222,1.979,1.979,0,0,0-1.394-.444,2.184,2.184,0,0,0-1.385.428,1.273,1.273,0,0,0-.549,1.03l-.8-.007a1.863,1.863,0,0,1,.8-1.5,3.1,3.1,0,0,1,1.974-.632,2.822,2.822,0,0,1,1.91.606,2.174,2.174,0,0,1,.719,1.689v3.425a4.255,4.255,0,0,0,.22,1.572v.08Zm-2.515-.575a2.687,2.687,0,0,0,1.435-.389,2.281,2.281,0,0,0,.92-1.036v-1.592H100.1a3.586,3.586,0,0,0-1.873.438,1.316,1.316,0,0,0-.676,1.167A1.3,1.3,0,0,0,98,452.761,1.707,1.707,0,0,0,99.175,453.162Z"/><path d="M112.125,451.9a1.145,1.145,0,0,0-.477-.957,3.707,3.707,0,0,0-1.442-.564,6.543,6.543,0,0,1-1.5-.469,2,2,0,0,1-.789-.645,1.615,1.615,0,0,1-.257-.923,1.724,1.724,0,0,1,.715-1.415,2.9,2.9,0,0,1,1.833-.559,2.973,2.973,0,0,1,1.944.6,1.922,1.922,0,0,1,.732,1.562h-.8a1.3,1.3,0,0,0-.531-1.057,2.405,2.405,0,0,0-2.609-.071,1.087,1.087,0,0,0-.479.914.985.985,0,0,0,.4.839,4.2,4.2,0,0,0,1.451.545,6.771,6.771,0,0,1,1.579.53,2.036,2.036,0,0,1,.779.674,1.859,1.859,0,0,1-.485,2.422,3.154,3.154,0,0,1-1.93.549,3.243,3.243,0,0,1-2.05-.612,1.884,1.884,0,0,1-.786-1.549h.8a1.392,1.392,0,0,0,.592,1.094,2.425,2.425,0,0,0,1.441.391,2.279,2.279,0,0,0,1.352-.368A1.1,1.1,0,0,0,112.125,451.9Z"/><path d="M116.983,452.634l2.2-6.135h.822l-2.7,7.238h-.649l-2.716-7.238h.823Z"/><path d="M124.034,453.871a3.133,3.133,0,0,1-1.669-.455,3.1,3.1,0,0,1-1.161-1.268,3.945,3.945,0,0,1-.415-1.823v-.287a4.259,4.259,0,0,1,.405-1.88,3.207,3.207,0,0,1,1.127-1.314,2.772,2.772,0,0,1,1.565-.479,2.615,2.615,0,0,1,2.091.9,3.652,3.652,0,0,1,.773,2.459v.448h-5.165v.153a3.031,3.031,0,0,0,.706,2.051,2.244,2.244,0,0,0,1.776.819,2.611,2.611,0,0,0,1.134-.234,2.5,2.5,0,0,0,.893-.749l.5.381A2.918,2.918,0,0,1,124.034,453.871Zm-.148-6.823a2,2,0,0,0-1.521.662,3.052,3.052,0,0,0-.753,1.779h4.342V449.4a2.661,2.661,0,0,0-.6-1.7A1.848,1.848,0,0,0,123.886,447.048Zm.89-3.586h.97l-1.545,1.873-.7,0Z"/><path d="M134.442,453.871a3.136,3.136,0,0,1-1.669-.455,3.1,3.1,0,0,1-1.161-1.268,3.945,3.945,0,0,1-.415-1.823v-.287a4.272,4.272,0,0,1,.405-1.88,3.222,3.222,0,0,1,1.127-1.314,2.772,2.772,0,0,1,1.565-.479,2.613,2.613,0,0,1,2.091.9,3.652,3.652,0,0,1,.773,2.459v.448h-5.164v.153a3.03,3.03,0,0,0,.705,2.051,2.244,2.244,0,0,0,1.776.819,2.611,2.611,0,0,0,1.134-.234,2.5,2.5,0,0,0,.893-.749l.5.381A2.917,2.917,0,0,1,134.442,453.871Zm-.148-6.823a2,2,0,0,0-1.521.662,3.052,3.052,0,0,0-.753,1.779h4.342V449.4a2.661,2.661,0,0,0-.6-1.7A1.848,1.848,0,0,0,134.294,447.048Z"/><path d="M139.446,446.5l.027,1.178a2.682,2.682,0,0,1,1-.984,2.759,2.759,0,0,1,1.338-.328,2.031,2.031,0,0,1,2.174,1.406,2.718,2.718,0,0,1,1.037-1.042,2.885,2.885,0,0,1,1.432-.364q2.327,0,2.375,2.542v4.83h-.8v-4.769a2.165,2.165,0,0,0-.418-1.439,1.705,1.705,0,0,0-1.342-.468,2.134,2.134,0,0,0-1.458.558,1.974,1.974,0,0,0-.662,1.328v4.79h-.8v-4.83a1.98,1.98,0,0,0-.438-1.387,1.742,1.742,0,0,0-1.328-.459,2.018,2.018,0,0,0-1.3.431,2.529,2.529,0,0,0-.8,1.281v4.964h-.8V446.5Z"/><path d="M150.811,444.408a.539.539,0,0,1,.147-.382.525.525,0,0,1,.4-.156.536.536,0,0,1,.405.156.53.53,0,0,1,.151.382.513.513,0,0,1-.151.379.537.537,0,0,1-.405.153.515.515,0,0,1-.548-.532Zm.942,9.329h-.8V446.5h.8Z"/><path d="M158.263,451.9a1.145,1.145,0,0,0-.477-.957,3.712,3.712,0,0,0-1.443-.564,6.549,6.549,0,0,1-1.495-.469,2,2,0,0,1-.789-.645,1.608,1.608,0,0,1-.258-.923,1.725,1.725,0,0,1,.716-1.415,2.9,2.9,0,0,1,1.833-.559,2.968,2.968,0,0,1,1.943.6,1.92,1.92,0,0,1,.733,1.562h-.8a1.3,1.3,0,0,0-.531-1.057,2.405,2.405,0,0,0-2.609-.071,1.087,1.087,0,0,0-.479.914.987.987,0,0,0,.4.839,4.2,4.2,0,0,0,1.452.545,6.771,6.771,0,0,1,1.579.53,2.043,2.043,0,0,1,.779.674,1.859,1.859,0,0,1-.485,2.422,3.156,3.156,0,0,1-1.93.549,3.241,3.241,0,0,1-2.05-.612,1.884,1.884,0,0,1-.786-1.549h.8a1.389,1.389,0,0,0,.592,1.094,2.422,2.422,0,0,0,1.441.391,2.279,2.279,0,0,0,1.352-.368A1.1,1.1,0,0,0,158.263,451.9Z"/><path d="M163.668,453.871a3.132,3.132,0,0,1-1.668-.455,3.1,3.1,0,0,1-1.162-1.268,3.958,3.958,0,0,1-.415-1.823v-.287a4.259,4.259,0,0,1,.406-1.88,3.207,3.207,0,0,1,1.127-1.314,2.77,2.77,0,0,1,1.565-.479,2.615,2.615,0,0,1,2.091.9,3.657,3.657,0,0,1,.772,2.459v.448H161.22v.153a3.035,3.035,0,0,0,.705,2.051,2.248,2.248,0,0,0,1.777.819,2.61,2.61,0,0,0,1.133-.234,2.5,2.5,0,0,0,.894-.749l.5.381A2.919,2.919,0,0,1,163.668,453.871Zm-.147-6.823a2,2,0,0,0-1.521.662,3.039,3.039,0,0,0-.753,1.779h4.341V449.4a2.655,2.655,0,0,0-.595-1.7A1.85,1.85,0,0,0,163.521,447.048Z"/><path d="M177.094,450.191a4.366,4.366,0,0,1-.749,2.687,2.388,2.388,0,0,1-2.007.993,2.678,2.678,0,0,1-2.274-1.044v3.693h-.8V446.5h.742l.04,1.023a2.572,2.572,0,0,1,2.268-1.157,2.406,2.406,0,0,1,2.037.984,4.452,4.452,0,0,1,.739,2.729Zm-.8-.14a3.725,3.725,0,0,0-.569-2.188,1.834,1.834,0,0,0-1.586-.8,2.116,2.116,0,0,0-2.073,1.384v3.473a2.123,2.123,0,0,0,.822.949,2.374,2.374,0,0,0,1.265.328,1.814,1.814,0,0,0,1.575-.806A4.052,4.052,0,0,0,176.292,450.051Z"/><path d="M178.424,450.011a4.256,4.256,0,0,1,.406-1.88,3.038,3.038,0,0,1,2.819-1.766,2.978,2.978,0,0,1,2.342,1.014,3.908,3.908,0,0,1,.9,2.685v.167a4.3,4.3,0,0,1-.405,1.89,3.013,3.013,0,0,1-1.141,1.3,3.115,3.115,0,0,1-1.678.455,2.978,2.978,0,0,1-2.338-1.014,3.894,3.894,0,0,1-.9-2.685Zm.8.22a3.283,3.283,0,0,0,.673,2.131,2.274,2.274,0,0,0,3.518,0,3.385,3.385,0,0,0,.672-2.2v-.154a3.688,3.688,0,0,0-.307-1.519,2.465,2.465,0,0,0-.863-1.066,2.2,2.2,0,0,0-1.271-.378,2.138,2.138,0,0,0-1.746.839,3.4,3.4,0,0,0-.676,2.2Z"/><path d="M188.258,450.092l-.916.883v2.762h-.8V443.462h.8v6.576l.756-.816,2.77-2.723h1.009l-3.07,3.051,3.338,4.187h-.957Z"/><path d="M196.594,447.182a2.925,2.925,0,0,0-.542-.047,1.949,1.949,0,0,0-1.267.418,2.283,2.283,0,0,0-.74,1.214v4.97h-.795V446.5h.782l.013,1.15a2.129,2.129,0,0,1,2.04-1.284,1.335,1.335,0,0,1,.529.087Z"/><path d="M200.273,452.587l2.114-6.088h.863l-3.09,8.469-.161.375a1.944,1.944,0,0,1-1.839,1.317,2.232,2.232,0,0,1-.617-.094l-.006-.662.415.04a1.476,1.476,0,0,0,.953-.291,2.206,2.206,0,0,0,.619-1l.354-.976-2.729-7.178h.877Zm.9-9.125h.97l-1.545,1.873-.7,0Z"/><path d="M205.732,444.646V446.5h1.5v.655h-1.5v4.829a1.512,1.512,0,0,0,.217.9.843.843,0,0,0,.726.294,4.915,4.915,0,0,0,.649-.067l.033.65a2.618,2.618,0,0,1-.857.113,1.429,1.429,0,0,1-1.2-.478,2.253,2.253,0,0,1-.374-1.409v-4.83H203.6V446.5h1.331v-1.853Z"/><path d="M213.464,444.646V446.5h1.5v.655h-1.5v4.829a1.519,1.519,0,0,0,.217.9.846.846,0,0,0,.727.294,4.9,4.9,0,0,0,.648-.067l.033.65a2.615,2.615,0,0,1-.856.113,1.427,1.427,0,0,1-1.2-.478,2.253,2.253,0,0,1-.374-1.409v-4.83h-1.331V446.5h1.331v-1.853Z"/><path d="M221.191,453.737a3.746,3.746,0,0,1-.153-1.01,2.8,2.8,0,0,1-1.075.846,3.29,3.29,0,0,1-1.38.3,2.427,2.427,0,0,1-1.69-.582,1.894,1.894,0,0,1-.645-1.472,1.937,1.937,0,0,1,.879-1.672,4.221,4.221,0,0,1,2.452-.616h1.452v-.822a1.588,1.588,0,0,0-.479-1.222,1.979,1.979,0,0,0-1.394-.444,2.184,2.184,0,0,0-1.385.428,1.273,1.273,0,0,0-.549,1.03l-.8-.007a1.863,1.863,0,0,1,.8-1.5,3.094,3.094,0,0,1,1.974-.632,2.822,2.822,0,0,1,1.91.606,2.174,2.174,0,0,1,.719,1.689v3.425a4.255,4.255,0,0,0,.22,1.572v.08Zm-2.515-.575a2.687,2.687,0,0,0,1.435-.389,2.281,2.281,0,0,0,.92-1.036v-1.592H219.6a3.586,3.586,0,0,0-1.873.438,1.316,1.316,0,0,0-.676,1.167,1.3,1.3,0,0,0,.451,1.011A1.707,1.707,0,0,0,218.676,453.162Z"/><path d="M225.679,450.092l-.916.883v2.762h-.8V443.462h.8v6.576l.756-.816,2.77-2.723H229.3l-3.07,3.051,3.338,4.187h-.957Z"/><path d="M233.339,453.871a3.136,3.136,0,0,1-1.669-.455,3.1,3.1,0,0,1-1.161-1.268,3.958,3.958,0,0,1-.415-1.823v-.287a4.259,4.259,0,0,1,.406-1.88,3.212,3.212,0,0,1,1.126-1.314,2.775,2.775,0,0,1,1.566-.479,2.615,2.615,0,0,1,2.091.9,3.657,3.657,0,0,1,.772,2.459v.448h-5.164v.153a3.03,3.03,0,0,0,.705,2.051,2.248,2.248,0,0,0,1.777.819,2.61,2.61,0,0,0,1.133-.234,2.511,2.511,0,0,0,.894-.749l.5.381A2.92,2.92,0,0,1,233.339,453.871Zm-.147-6.823a2,2,0,0,0-1.522.662,3.052,3.052,0,0,0-.753,1.779h4.342V449.4a2.655,2.655,0,0,0-.595-1.7A1.85,1.85,0,0,0,233.192,447.048Zm.89-3.586h.969l-1.545,1.873-.7,0Z"/><path d="M241.673,446.5l.028,1.178a2.668,2.668,0,0,1,1-.984,2.756,2.756,0,0,1,1.338-.328,2.029,2.029,0,0,1,2.173,1.406,2.725,2.725,0,0,1,1.037-1.042,2.888,2.888,0,0,1,1.432-.364q2.328,0,2.375,2.542v4.83h-.8v-4.769a2.16,2.16,0,0,0-.418-1.439,1.7,1.7,0,0,0-1.341-.468,2.13,2.13,0,0,0-1.458.558,1.971,1.971,0,0,0-.663,1.328v4.79h-.8v-4.83a1.98,1.98,0,0,0-.439-1.387,1.741,1.741,0,0,0-1.328-.459,2.02,2.02,0,0,0-1.3.431,2.528,2.528,0,0,0-.8,1.281v4.964h-.8V446.5Z"/><path d="M255.889,453.871a3.136,3.136,0,0,1-1.669-.455,3.1,3.1,0,0,1-1.161-1.268,3.958,3.958,0,0,1-.415-1.823v-.287a4.272,4.272,0,0,1,.405-1.88,3.222,3.222,0,0,1,1.127-1.314,2.775,2.775,0,0,1,1.566-.479,2.615,2.615,0,0,1,2.091.9,3.657,3.657,0,0,1,.772,2.459v.448h-5.164v.153a3.03,3.03,0,0,0,.7,2.051,2.246,2.246,0,0,0,1.776.819,2.611,2.611,0,0,0,1.134-.234,2.511,2.511,0,0,0,.894-.749l.5.381A2.92,2.92,0,0,1,255.889,453.871Zm-.147-6.823a2,2,0,0,0-1.522.662,3.052,3.052,0,0,0-.753,1.779h4.342V449.4a2.656,2.656,0,0,0-.6-1.7A1.848,1.848,0,0,0,255.742,447.048Z"/><path d="M260.692,453.062h4.7v.675H259.7v-.589l4.388-5.954h-4.255V446.5H265.1v.6Z"/><path d="M266.78,444.408a.543.543,0,0,1,.146-.382.529.529,0,0,1,.4-.156.524.524,0,0,1,.555.538.516.516,0,0,1-.15.379.539.539,0,0,1-.405.153.513.513,0,0,1-.548-.532Zm.942,9.329h-.8V446.5h.8Z"/><path d="M270.66,446.5l.026,1.237a2.86,2.86,0,0,1,1.017-1.019,2.634,2.634,0,0,1,1.344-.352,2.171,2.171,0,0,1,1.733.656,2.953,2.953,0,0,1,.575,1.966v4.75h-.8V448.98a2.218,2.218,0,0,0-.411-1.444,1.616,1.616,0,0,0-1.3-.475,2.023,2.023,0,0,0-1.314.465,2.72,2.72,0,0,0-.846,1.254v4.957h-.8V446.5Z"/><path d="M281.991,453.737a3.779,3.779,0,0,1-.154-1.01,2.784,2.784,0,0,1-1.074.846,3.291,3.291,0,0,1-1.381.3,2.427,2.427,0,0,1-1.689-.582,1.9,1.9,0,0,1-.646-1.472,1.936,1.936,0,0,1,.88-1.672,4.22,4.22,0,0,1,2.451-.616h1.453v-.822a1.591,1.591,0,0,0-.479-1.222,1.979,1.979,0,0,0-1.394-.444,2.184,2.184,0,0,0-1.385.428,1.273,1.273,0,0,0-.549,1.03l-.8-.007a1.863,1.863,0,0,1,.8-1.5,3.094,3.094,0,0,1,1.974-.632,2.822,2.822,0,0,1,1.91.606,2.17,2.17,0,0,1,.718,1.689v3.425a4.252,4.252,0,0,0,.221,1.572v.08Zm-2.515-.575a2.687,2.687,0,0,0,1.435-.389,2.281,2.281,0,0,0,.92-1.036v-1.592H280.4a3.586,3.586,0,0,0-1.873.438,1.316,1.316,0,0,0-.676,1.167,1.3,1.3,0,0,0,.451,1.011A1.707,1.707,0,0,0,279.476,453.162Zm1.578-9.7h.97l-1.545,1.873-.7,0Z"/><path d="M288.106,447.182a2.932,2.932,0,0,0-.542-.047,1.954,1.954,0,0,0-1.268.418,2.288,2.288,0,0,0-.739,1.214v4.97h-.8V446.5h.782l.014,1.15a2.129,2.129,0,0,1,2.04-1.284,1.327,1.327,0,0,1,.528.087Z"/><path d="M288.793,450.011a4.256,4.256,0,0,1,.406-1.88,3.038,3.038,0,0,1,2.819-1.766,2.978,2.978,0,0,1,2.342,1.014,3.9,3.9,0,0,1,.9,2.685v.167a4.29,4.29,0,0,1-.4,1.89,3.007,3.007,0,0,1-1.141,1.3,3.115,3.115,0,0,1-1.678.455,2.978,2.978,0,0,1-2.338-1.014,3.894,3.894,0,0,1-.9-2.685Zm.8.22a3.283,3.283,0,0,0,.673,2.131,2.275,2.275,0,0,0,3.519,0,3.391,3.391,0,0,0,.671-2.2v-.154a3.688,3.688,0,0,0-.307-1.519,2.47,2.47,0,0,0-.862-1.066,2.208,2.208,0,0,0-1.272-.378,2.138,2.138,0,0,0-1.746.839,3.4,3.4,0,0,0-.676,2.2Z"/><path d="M296.587,450.051a4.37,4.37,0,0,1,.752-2.686,2.423,2.423,0,0,1,2.044-1,2.519,2.519,0,0,1,2.235,1.157v-4.06h.8v10.275h-.749l-.034-.964a2.584,2.584,0,0,1-2.261,1.1,2.415,2.415,0,0,1-2.017-1.007,4.383,4.383,0,0,1-.766-2.719Zm.81.14a3.777,3.777,0,0,0,.555,2.185,1.794,1.794,0,0,0,1.565.8,2.157,2.157,0,0,0,2.1-1.3v-3.4a2.138,2.138,0,0,0-2.087-1.412,1.818,1.818,0,0,0-1.573.793A4.027,4.027,0,0,0,297.4,450.191Z"/><path d="M305.285,446.5l.026,1.237a2.86,2.86,0,0,1,1.017-1.019,2.634,2.634,0,0,1,1.344-.352,2.171,2.171,0,0,1,1.733.656,2.953,2.953,0,0,1,.575,1.966v4.75h-.8V448.98a2.218,2.218,0,0,0-.411-1.444,1.616,1.616,0,0,0-1.3-.475,2.023,2.023,0,0,0-1.314.465,2.72,2.72,0,0,0-.846,1.254v4.957h-.8V446.5Z"/><path d="M313.345,443.542h.97l-1.546,1.873-.7,0Zm-.415,10.2h-.8V446.5h.8Z"/><path d="M315.826,446.5l.027,1.178a2.682,2.682,0,0,1,1-.984,2.759,2.759,0,0,1,1.338-.328,2.031,2.031,0,0,1,2.174,1.406,2.711,2.711,0,0,1,1.037-1.042,2.881,2.881,0,0,1,1.431-.364q2.328,0,2.375,2.542v4.83h-.8v-4.769a2.165,2.165,0,0,0-.418-1.439,1.705,1.705,0,0,0-1.342-.468,2.132,2.132,0,0,0-1.458.558,1.97,1.97,0,0,0-.662,1.328v4.79h-.8v-4.83a1.98,1.98,0,0,0-.438-1.387,1.745,1.745,0,0,0-1.329-.459,2.017,2.017,0,0,0-1.3.431,2.529,2.529,0,0,0-.8,1.281v4.964h-.8V446.5Z"/><path d="M327.192,444.408a.543.543,0,0,1,.146-.382.529.529,0,0,1,.4-.156.537.537,0,0,1,.4.156.529.529,0,0,1,.15.382.512.512,0,0,1-.15.379.539.539,0,0,1-.4.153.513.513,0,0,1-.548-.532Zm.942,9.329h-.8V446.5h.8Z"/><path d="M335.36,450.092l-.916.883v2.762h-.8V443.462h.8v6.576l.756-.816,2.769-2.723h1.01l-3.07,3.051,3.338,4.187h-.957Z"/><path d="M343.7,447.182a2.932,2.932,0,0,0-.542-.047,1.954,1.954,0,0,0-1.268.418,2.282,2.282,0,0,0-.739,1.214v4.97h-.8V446.5h.782l.014,1.15a2.129,2.129,0,0,1,2.04-1.284,1.33,1.33,0,0,1,.528.087Z"/><path d="M347.635,453.871a3.136,3.136,0,0,1-1.669-.455,3.1,3.1,0,0,1-1.161-1.268,3.958,3.958,0,0,1-.415-1.823v-.287a4.272,4.272,0,0,1,.405-1.88,3.222,3.222,0,0,1,1.127-1.314,2.775,2.775,0,0,1,1.566-.479,2.615,2.615,0,0,1,2.091.9,3.657,3.657,0,0,1,.772,2.459v.448h-5.164v.153a3.03,3.03,0,0,0,.7,2.051,2.247,2.247,0,0,0,1.776.819,2.611,2.611,0,0,0,1.134-.234,2.511,2.511,0,0,0,.894-.749l.5.381A2.92,2.92,0,0,1,347.635,453.871Zm-.147-6.823a2,2,0,0,0-1.522.662,3.052,3.052,0,0,0-.753,1.779h4.342V449.4a2.656,2.656,0,0,0-.6-1.7A1.848,1.848,0,0,0,347.488,447.048Z"/><path d="M351.588,450.051a4.37,4.37,0,0,1,.752-2.686,2.423,2.423,0,0,1,2.044-1,2.519,2.519,0,0,1,2.235,1.157v-4.06h.8v10.275h-.749l-.034-.964a2.584,2.584,0,0,1-2.261,1.1,2.415,2.415,0,0,1-2.017-1.007,4.383,4.383,0,0,1-.766-2.719Zm.81.14a3.777,3.777,0,0,0,.555,2.185,1.794,1.794,0,0,0,1.565.8,2.157,2.157,0,0,0,2.1-1.3v-3.4a2.138,2.138,0,0,0-2.087-1.412,1.818,1.818,0,0,0-1.573.793A4.027,4.027,0,0,0,352.4,450.191Z"/><path d="M359.475,444.408a.539.539,0,0,1,.147-.382.525.525,0,0,1,.4-.156.536.536,0,0,1,.4.156.53.53,0,0,1,.151.382.513.513,0,0,1-.151.379.537.537,0,0,1-.4.153.515.515,0,0,1-.548-.532Zm.942,9.329h-.8V446.5h.8Z"/><path d="M363.836,444.646V446.5h1.5v.655h-1.5v4.829a1.519,1.519,0,0,0,.217.9.846.846,0,0,0,.727.294,4.9,4.9,0,0,0,.648-.067l.033.65a2.615,2.615,0,0,1-.856.113,1.427,1.427,0,0,1-1.2-.478,2.253,2.253,0,0,1-.374-1.409v-4.83H361.7V446.5h1.331v-1.853Z"/><path d="M369.289,452.587,371.4,446.5h.864l-3.091,8.469-.161.375a1.943,1.943,0,0,1-1.839,1.317,2.23,2.23,0,0,1-.616-.094l-.007-.662.415.04a1.475,1.475,0,0,0,.953-.291,2.2,2.2,0,0,0,.62-1l.354-.976-2.729-7.178h.877Z"/><path d="M382.654,450.191a4.359,4.359,0,0,1-.75,2.687,2.386,2.386,0,0,1-2.006.993,2.681,2.681,0,0,1-2.275-1.044v3.693h-.8V446.5h.742l.039,1.023a2.575,2.575,0,0,1,2.268-1.157,2.406,2.406,0,0,1,2.037.984,4.445,4.445,0,0,1,.74,2.729Zm-.8-.14a3.725,3.725,0,0,0-.569-2.188,1.834,1.834,0,0,0-1.586-.8,2.118,2.118,0,0,0-2.074,1.384v3.473a2.129,2.129,0,0,0,.822.949,2.378,2.378,0,0,0,1.266.328,1.812,1.812,0,0,0,1.574-.806A4.051,4.051,0,0,0,381.852,450.051Z"/><path d="M383.984,450.011a4.256,4.256,0,0,1,.407-1.88,3.035,3.035,0,0,1,2.818-1.766,2.976,2.976,0,0,1,2.342,1.014,3.908,3.908,0,0,1,.9,2.685v.167a4.3,4.3,0,0,1-.4,1.89,3.02,3.02,0,0,1-1.141,1.3,3.119,3.119,0,0,1-1.679.455,2.978,2.978,0,0,1-2.338-1.014,3.894,3.894,0,0,1-.9-2.685Zm.8.22a3.278,3.278,0,0,0,.674,2.131,2.274,2.274,0,0,0,3.518,0,3.385,3.385,0,0,0,.671-2.2v-.154a3.688,3.688,0,0,0-.306-1.519,2.46,2.46,0,0,0-.864-1.066,2.2,2.2,0,0,0-1.271-.378,2.139,2.139,0,0,0-1.746.839,3.409,3.409,0,0,0-.676,2.2Z"/><path d="M391.779,450.051a4.364,4.364,0,0,1,.752-2.686,2.423,2.423,0,0,1,2.043-1,2.518,2.518,0,0,1,2.235,1.157v-4.06h.8v10.275h-.75l-.033-.964a2.583,2.583,0,0,1-2.261,1.1,2.412,2.412,0,0,1-2.016-1.007,4.376,4.376,0,0,1-.766-2.719Zm.809.14a3.777,3.777,0,0,0,.555,2.185,1.8,1.8,0,0,0,1.566.8,2.155,2.155,0,0,0,2.1-1.3v-3.4a2.136,2.136,0,0,0-2.086-1.412,1.818,1.818,0,0,0-1.573.793A4.026,4.026,0,0,0,392.588,450.191Z"/><path d="M400.607,453.737h-.8V443.462h.8Z"/><path d="M405.586,453.871a3.142,3.142,0,0,1-1.67-.455,3.088,3.088,0,0,1-1.16-1.268,3.946,3.946,0,0,1-.416-1.823v-.287a4.273,4.273,0,0,1,.406-1.88,3.214,3.214,0,0,1,1.127-1.314,2.772,2.772,0,0,1,1.565-.479,2.615,2.615,0,0,1,2.091.9,3.657,3.657,0,0,1,.772,2.459v.448h-5.164v.153a3.03,3.03,0,0,0,.7,2.051,2.245,2.245,0,0,0,1.777.819,2.607,2.607,0,0,0,1.133-.234,2.5,2.5,0,0,0,.894-.749l.5.381A2.915,2.915,0,0,1,405.586,453.871Zm-.148-6.823a2,2,0,0,0-1.522.662,3.051,3.051,0,0,0-.752,1.779h4.342V449.4a2.667,2.667,0,0,0-.6-1.7A1.848,1.848,0,0,0,405.438,447.048Z"/><path d="M415.572,448.9l-1.371,1.352v3.485h-.822V444h.822v5.251l4.99-5.251h1.038l-4.081,4.335,4.395,5.405h-1Z"/><path d="M422.7,446.5v8.1a2.2,2.2,0,0,1-.482,1.532,1.821,1.821,0,0,1-1.418.528,2,2,0,0,1-.7-.126l.011-.656a2.136,2.136,0,0,0,.6.087q1.19,0,1.189-1.372V446.5Zm-.394-2.629a.518.518,0,0,1,.554.538.521.521,0,0,1-.146.379.538.538,0,0,1-.408.153.518.518,0,0,1-.4-.153.532.532,0,0,1-.144-.379.55.55,0,0,1,.144-.382A.516.516,0,0,1,422.3,443.87Z"/><path d="M424.516,450.011a4.256,4.256,0,0,1,.406-1.88,3.035,3.035,0,0,1,2.818-1.766,2.976,2.976,0,0,1,2.342,1.014,3.9,3.9,0,0,1,.9,2.685v.167a4.29,4.29,0,0,1-.4,1.89,3.017,3.017,0,0,1-1.14,1.3,3.125,3.125,0,0,1-1.68.455,2.979,2.979,0,0,1-2.338-1.014,3.894,3.894,0,0,1-.9-2.685Zm.8.22a3.278,3.278,0,0,0,.674,2.131,2.274,2.274,0,0,0,3.518,0,3.385,3.385,0,0,0,.672-2.2v-.154a3.688,3.688,0,0,0-.307-1.519,2.465,2.465,0,0,0-.863-1.066,2.2,2.2,0,0,0-1.272-.378,2.139,2.139,0,0,0-1.746.839,3.409,3.409,0,0,0-.676,2.2Zm3.219-6.769h.971l-1.547,1.873-.7,0Z"/><path d="M433.875,444.646V446.5h1.5v.655h-1.5v4.829a1.512,1.512,0,0,0,.217.9.845.845,0,0,0,.726.294,4.9,4.9,0,0,0,.649-.067l.033.65a2.609,2.609,0,0,1-.855.113,1.428,1.428,0,0,1-1.2-.478,2.253,2.253,0,0,1-.375-1.409v-4.83h-1.33V446.5h1.33v-1.853Z"/><path d="M441.367,451.9a1.146,1.146,0,0,0-.478-.957,3.7,3.7,0,0,0-1.442-.564,6.543,6.543,0,0,1-1.5-.469,2,2,0,0,1-.789-.645,1.608,1.608,0,0,1-.258-.923,1.726,1.726,0,0,1,.717-1.415,2.892,2.892,0,0,1,1.832-.559,2.966,2.966,0,0,1,1.943.6,1.92,1.92,0,0,1,.733,1.562h-.8a1.3,1.3,0,0,0-.531-1.057,2.405,2.405,0,0,0-2.609-.071,1.087,1.087,0,0,0-.479.914.987.987,0,0,0,.4.839,4.211,4.211,0,0,0,1.452.545,6.782,6.782,0,0,1,1.58.53,2.051,2.051,0,0,1,.779.674,1.858,1.858,0,0,1-.486,2.422,3.152,3.152,0,0,1-1.93.549,3.24,3.24,0,0,1-2.049-.612,1.882,1.882,0,0,1-.787-1.549h.8a1.389,1.389,0,0,0,.592,1.094,2.422,2.422,0,0,0,1.441.391,2.277,2.277,0,0,0,1.352-.368A1.1,1.1,0,0,0,441.367,451.9Z"/><path d="M445.689,450.092l-.916.883v2.762h-.8V443.462h.8v6.576l.756-.816,2.77-2.723h1.01l-3.071,3.051,3.338,4.187h-.957Z"/><path d="M453.348,453.871a3.105,3.105,0,0,1-2.83-1.723,3.957,3.957,0,0,1-.414-1.823v-.287a4.258,4.258,0,0,1,.4-1.88,3.214,3.214,0,0,1,1.127-1.314,2.775,2.775,0,0,1,1.566-.479,2.613,2.613,0,0,1,2.09.9,3.647,3.647,0,0,1,.773,2.459v.448H450.9v.153a3.035,3.035,0,0,0,.705,2.051,2.247,2.247,0,0,0,1.776.819,2.616,2.616,0,0,0,1.135-.234,2.5,2.5,0,0,0,.892-.749l.5.381A2.92,2.92,0,0,1,453.348,453.871Zm-.147-6.823a2,2,0,0,0-1.521.662,3.053,3.053,0,0,0-.754,1.779h4.342V449.4a2.656,2.656,0,0,0-.6-1.7A1.848,1.848,0,0,0,453.2,447.048Zm.889-3.586h.971l-1.545,1.873-.7,0Z"/><path d="M458.42,447.724a2.815,2.815,0,0,1,1.01-1,2.634,2.634,0,0,1,1.343-.355,2.17,2.17,0,0,1,1.733.656,2.953,2.953,0,0,1,.576,1.966v4.75h-.8V448.98a2.207,2.207,0,0,0-.41-1.444,1.616,1.616,0,0,0-1.3-.475,2.019,2.019,0,0,0-1.314.465,2.72,2.72,0,0,0-.846,1.254v4.957h-.8V443.462h.8Z"/><path d="M464.7,450.011a4.27,4.27,0,0,1,.406-1.88,3.038,3.038,0,0,1,2.819-1.766,2.976,2.976,0,0,1,2.342,1.014,3.908,3.908,0,0,1,.9,2.685v.167a4.3,4.3,0,0,1-.4,1.89,3.026,3.026,0,0,1-1.141,1.3,3.121,3.121,0,0,1-1.679.455,2.978,2.978,0,0,1-2.338-1.014,3.894,3.894,0,0,1-.9-2.685Zm.8.22a3.278,3.278,0,0,0,.674,2.131,2.273,2.273,0,0,0,3.517,0,3.38,3.38,0,0,0,.672-2.2v-.154a3.688,3.688,0,0,0-.306-1.519,2.467,2.467,0,0,0-.864-1.066,2.2,2.2,0,0,0-1.271-.378,2.139,2.139,0,0,0-1.746.839,3.409,3.409,0,0,0-.676,2.2Z"/><path d="M481.965,450.191a4.372,4.372,0,0,1-.748,2.687,2.39,2.39,0,0,1-2.008.993,2.675,2.675,0,0,1-2.273-1.044v3.693h-.8V446.5h.742l.041,1.023a2.567,2.567,0,0,1,2.267-1.157,2.408,2.408,0,0,1,2.038.984,4.458,4.458,0,0,1,.738,2.729Zm-.8-.14a3.725,3.725,0,0,0-.568-2.188,1.834,1.834,0,0,0-1.586-.8,2.111,2.111,0,0,0-2.072,1.384v3.473a2.111,2.111,0,0,0,.822.949,2.365,2.365,0,0,0,1.263.328,1.817,1.817,0,0,0,1.577-.806A4.053,4.053,0,0,0,481.162,450.051Z"/><path d="M487.084,447.182a2.943,2.943,0,0,0-.543-.047,1.954,1.954,0,0,0-1.268.418,2.287,2.287,0,0,0-.738,1.214v4.97h-.8V446.5h.783l.014,1.15a2.129,2.129,0,0,1,2.039-1.284,1.341,1.341,0,0,1,.53.087Z"/><path d="M487.771,450.011a4.256,4.256,0,0,1,.407-1.88A3.035,3.035,0,0,1,491,446.365a2.976,2.976,0,0,1,2.342,1.014,3.9,3.9,0,0,1,.9,2.685v.167a4.29,4.29,0,0,1-.4,1.89,3.013,3.013,0,0,1-1.141,1.3,3.119,3.119,0,0,1-1.679.455,2.978,2.978,0,0,1-2.338-1.014,3.894,3.894,0,0,1-.9-2.685Zm.8.22a3.278,3.278,0,0,0,.674,2.131,2.274,2.274,0,0,0,3.518,0,3.385,3.385,0,0,0,.672-2.2v-.154a3.688,3.688,0,0,0-.307-1.519,2.465,2.465,0,0,0-.863-1.066,2.2,2.2,0,0,0-1.272-.378,2.139,2.139,0,0,0-1.746.839,3.409,3.409,0,0,0-.676,2.2Z"/><path d="M497.131,444.646V446.5h1.5v.655h-1.5v4.829a1.512,1.512,0,0,0,.217.9.844.844,0,0,0,.726.294,4.9,4.9,0,0,0,.649-.067l.033.65a2.611,2.611,0,0,1-.856.113,1.427,1.427,0,0,1-1.2-.478,2.253,2.253,0,0,1-.375-1.409v-4.83H495V446.5h1.33v-1.853Z"/><path d="M499.713,450.011a4.269,4.269,0,0,1,.4-1.88,3.044,3.044,0,0,1,2.821-1.766,2.977,2.977,0,0,1,2.341,1.014,3.9,3.9,0,0,1,.9,2.685v.167a4.3,4.3,0,0,1-.406,1.89,3.013,3.013,0,0,1-1.141,1.3,3.115,3.115,0,0,1-1.678.455,2.979,2.979,0,0,1-2.338-1.014,3.9,3.9,0,0,1-.9-2.685Zm.8.22a3.283,3.283,0,0,0,.672,2.131,2.275,2.275,0,0,0,3.519,0,3.4,3.4,0,0,0,.672-2.2v-.154a3.689,3.689,0,0,0-.309-1.519,2.475,2.475,0,0,0-.861-1.066,2.209,2.209,0,0,0-1.271-.378,2.14,2.14,0,0,0-1.747.839,3.4,3.4,0,0,0-.675,2.2Z"/><path d="M509.547,450.092l-.916.883v2.762h-.8V443.462h.8v6.576l.756-.816,2.769-2.723h1.01l-3.07,3.051,3.338,4.187h-.957Z"/><path d="M514.094,450.011a4.256,4.256,0,0,1,.406-1.88,3.038,3.038,0,0,1,2.818-1.766,2.976,2.976,0,0,1,2.342,1.014,3.9,3.9,0,0,1,.9,2.685v.167a4.29,4.29,0,0,1-.4,1.89,3.017,3.017,0,0,1-1.14,1.3,3.125,3.125,0,0,1-1.68.455,2.979,2.979,0,0,1-2.338-1.014,3.9,3.9,0,0,1-.9-2.685Zm.8.22a3.278,3.278,0,0,0,.674,2.131,2.274,2.274,0,0,0,3.518,0,3.385,3.385,0,0,0,.672-2.2v-.154a3.688,3.688,0,0,0-.307-1.519,2.465,2.465,0,0,0-.863-1.066,2.2,2.2,0,0,0-1.272-.378,2.139,2.139,0,0,0-1.746.839,3.409,3.409,0,0,0-.676,2.2Z"/><path d="M523.105,453.737h-.8V443.462h.8Z"/><path d="M529.936,452.82a2.6,2.6,0,0,1-2.309,1.051,2.244,2.244,0,0,1-1.76-.673,2.956,2.956,0,0,1-.615-1.99V446.5h.8v4.609q0,2.067,1.672,2.067a2.05,2.05,0,0,0,2.2-1.438V446.5h.8v7.238h-.776Z"/><path d="M532.639,455.557l-.475-.348a2.929,2.929,0,0,0,.629-1.692v-1.038h.781v.836A2.88,2.88,0,0,1,532.639,455.557Z"/><path d="M540.479,450.092l-.917.883v2.762h-.8V443.462h.8v6.576l.756-.816,2.77-2.723h1.01l-3.071,3.051,3.338,4.187h-.957Z"/><path d="M546.713,444.646V446.5h1.5v.655h-1.5v4.829a1.512,1.512,0,0,0,.217.9.844.844,0,0,0,.726.294,4.9,4.9,0,0,0,.649-.067l.033.65a2.611,2.611,0,0,1-.856.113,1.427,1.427,0,0,1-1.2-.478,2.253,2.253,0,0,1-.375-1.409v-4.83h-1.33V446.5h1.33v-1.853Z"/><path d="M552.674,453.871a3.142,3.142,0,0,1-1.67-.455,3.088,3.088,0,0,1-1.16-1.268,3.933,3.933,0,0,1-.416-1.823v-.287a4.259,4.259,0,0,1,.406-1.88,3.214,3.214,0,0,1,1.127-1.314,2.769,2.769,0,0,1,1.564-.479,2.615,2.615,0,0,1,2.092.9,3.657,3.657,0,0,1,.772,2.459v.448h-5.164v.153a3.03,3.03,0,0,0,.7,2.051,2.245,2.245,0,0,0,1.777.819,2.607,2.607,0,0,0,1.133-.234,2.5,2.5,0,0,0,.894-.749l.5.381A2.916,2.916,0,0,1,552.674,453.871Zm-.149-6.823a2,2,0,0,0-1.521.662,3.051,3.051,0,0,0-.752,1.779h4.342V449.4a2.667,2.667,0,0,0-.6-1.7A1.849,1.849,0,0,0,552.525,447.048Z"/><path d="M560.293,447.182a2.943,2.943,0,0,0-.543-.047,1.954,1.954,0,0,0-1.268.418,2.287,2.287,0,0,0-.738,1.214v4.97h-.8V446.5h.783l.014,1.15a2.129,2.129,0,0,1,2.039-1.284,1.332,1.332,0,0,1,.529.087Z"/><path d="M564.232,453.871a3.105,3.105,0,0,1-2.83-1.723,3.97,3.97,0,0,1-.414-1.823v-.287a4.259,4.259,0,0,1,.4-1.88,3.214,3.214,0,0,1,1.127-1.314,2.773,2.773,0,0,1,1.566-.479,2.613,2.613,0,0,1,2.09.9,3.652,3.652,0,0,1,.773,2.459v.448h-5.164v.153a3.035,3.035,0,0,0,.705,2.051,2.247,2.247,0,0,0,1.776.819,2.614,2.614,0,0,0,1.134-.234,2.5,2.5,0,0,0,.893-.749l.5.381A2.92,2.92,0,0,1,564.232,453.871Zm-.146-6.823a2,2,0,0,0-1.522.662,3.046,3.046,0,0,0-.753,1.779h4.341V449.4a2.65,2.65,0,0,0-.6-1.7A1.849,1.849,0,0,0,564.086,447.048Zm.889-3.586h.97l-1.545,1.873-.7,0Z"/><path d="M572.6,446.5l.025,1.237a2.855,2.855,0,0,1,1.018-1.019,2.631,2.631,0,0,1,1.343-.352,2.17,2.17,0,0,1,1.733.656,2.953,2.953,0,0,1,.576,1.966v4.75h-.8V448.98a2.213,2.213,0,0,0-.41-1.444,1.617,1.617,0,0,0-1.3-.475,2.023,2.023,0,0,0-1.315.465,2.718,2.718,0,0,0-.845,1.254v4.957h-.8V446.5Z"/><path d="M582.168,453.871a3.142,3.142,0,0,1-1.67-.455,3.088,3.088,0,0,1-1.16-1.268,3.946,3.946,0,0,1-.416-1.823v-.287a4.273,4.273,0,0,1,.406-1.88,3.214,3.214,0,0,1,1.127-1.314,2.772,2.772,0,0,1,1.565-.479,2.615,2.615,0,0,1,2.091.9,3.657,3.657,0,0,1,.772,2.459v.448h-5.164v.153a3.03,3.03,0,0,0,.7,2.051,2.246,2.246,0,0,0,1.777.819,2.607,2.607,0,0,0,1.133-.234,2.514,2.514,0,0,0,.9-.749l.5.381A2.918,2.918,0,0,1,582.168,453.871Zm-.148-6.823a2,2,0,0,0-1.522.662,3.051,3.051,0,0,0-.752,1.779h4.342V449.4a2.667,2.667,0,0,0-.6-1.7A1.848,1.848,0,0,0,582.02,447.048Z"/><path d="M587.3,446.5v8.1a2.191,2.191,0,0,1-.483,1.532,1.821,1.821,0,0,1-1.418.528,2.006,2.006,0,0,1-.7-.126l.012-.656a2.124,2.124,0,0,0,.6.087q1.189,0,1.19-1.372V446.5Zm-.395-2.629a.52.52,0,0,1,.555.538.522.522,0,0,1-.147.379.537.537,0,0,1-.408.153.514.514,0,0,1-.4-.153.529.529,0,0,1-.145-.379.546.546,0,0,1,.145-.382A.512.512,0,0,1,586.91,443.87Z"/><path d="M593.9,451.9a1.146,1.146,0,0,0-.478-.957,3.694,3.694,0,0,0-1.442-.564,6.543,6.543,0,0,1-1.5-.469,2,2,0,0,1-.789-.645,1.608,1.608,0,0,1-.257-.923,1.725,1.725,0,0,1,.716-1.415,2.892,2.892,0,0,1,1.832-.559,2.971,2.971,0,0,1,1.944.6,1.922,1.922,0,0,1,.732,1.562h-.8a1.293,1.293,0,0,0-.531-1.057,2.405,2.405,0,0,0-2.609-.071,1.087,1.087,0,0,0-.479.914.985.985,0,0,0,.4.839,4.2,4.2,0,0,0,1.451.545,6.782,6.782,0,0,1,1.58.53,2.043,2.043,0,0,1,.779.674,1.858,1.858,0,0,1-.486,2.422,3.152,3.152,0,0,1-1.93.549,3.24,3.24,0,0,1-2.049-.612,1.882,1.882,0,0,1-.787-1.549h.8a1.392,1.392,0,0,0,.592,1.094,2.425,2.425,0,0,0,1.441.391,2.277,2.277,0,0,0,1.352-.368A1.1,1.1,0,0,0,593.9,451.9Z"/><path d="M596.061,450.011a4.255,4.255,0,0,1,.4-1.88,3.041,3.041,0,0,1,2.82-1.766,2.979,2.979,0,0,1,2.342,1.014,3.9,3.9,0,0,1,.9,2.685v.167a4.291,4.291,0,0,1-.406,1.89,3,3,0,0,1-1.14,1.3,3.118,3.118,0,0,1-1.678.455,2.979,2.979,0,0,1-2.338-1.014,3.894,3.894,0,0,1-.9-2.685Zm.8.22a3.288,3.288,0,0,0,.672,2.131,2.276,2.276,0,0,0,3.52,0,3.4,3.4,0,0,0,.672-2.2v-.154a3.689,3.689,0,0,0-.309-1.519,2.475,2.475,0,0,0-.861-1.066,2.21,2.21,0,0,0-1.272-.378,2.136,2.136,0,0,0-1.746.839,3.4,3.4,0,0,0-.676,2.2Z"/><path d="M608.83,452.82a2.6,2.6,0,0,1-2.307,1.051,2.238,2.238,0,0,1-1.759-.673,2.93,2.93,0,0,1-.616-1.99V446.5h.795v4.609q0,2.067,1.674,2.067a2.047,2.047,0,0,0,2.2-1.438V446.5h.8v7.238h-.775Z"/><path d="M617.287,452.634l2.2-6.135h.823l-2.7,7.238h-.648l-2.717-7.238h.824Z"/><path d="M624.631,450.051a4.373,4.373,0,0,1,.752-2.693,2.429,2.429,0,0,1,2.045-.993,2.521,2.521,0,0,1,2.248,1.178l.039-1.044h.75v7.091a3.07,3.07,0,0,1-.783,2.214,2.8,2.8,0,0,1-2.121.816,3.212,3.212,0,0,1-1.442-.338,2.8,2.8,0,0,1-1.08-.9l.449-.482a2.532,2.532,0,0,0,2.02,1.043,2.053,2.053,0,0,0,1.564-.591,2.358,2.358,0,0,0,.582-1.643V452.8a2.584,2.584,0,0,1-2.24,1.07,2.411,2.411,0,0,1-2.019-1,4.36,4.36,0,0,1-.764-2.709Zm.81.14a3.769,3.769,0,0,0,.555,2.185,1.793,1.793,0,0,0,1.565.8,2.139,2.139,0,0,0,2.093-1.324v-3.365a2.285,2.285,0,0,0-.808-1.06,2.188,2.188,0,0,0-1.272-.365,1.816,1.816,0,0,0-1.572.793A4.027,4.027,0,0,0,625.441,450.191Z"/><path d="M635.9,447.182a2.906,2.906,0,0,0-.541-.047,1.951,1.951,0,0,0-1.267.418,2.277,2.277,0,0,0-.74,1.214v4.97h-.795V446.5h.781l.014,1.15a2.128,2.128,0,0,1,2.041-1.284,1.328,1.328,0,0,1,.527.087Z"/><path d="M641.463,453.737a3.739,3.739,0,0,1-.154-1.01,2.787,2.787,0,0,1-1.075.846,3.284,3.284,0,0,1-1.38.3,2.431,2.431,0,0,1-1.69-.582,1.9,1.9,0,0,1-.644-1.472,1.936,1.936,0,0,1,.878-1.672,4.224,4.224,0,0,1,2.452-.616H641.3v-.822a1.588,1.588,0,0,0-.479-1.222,1.983,1.983,0,0,0-1.394-.444,2.182,2.182,0,0,0-1.385.428,1.27,1.27,0,0,0-.549,1.03l-.8-.007a1.863,1.863,0,0,1,.8-1.5,3.093,3.093,0,0,1,1.973-.632,2.822,2.822,0,0,1,1.91.606,2.171,2.171,0,0,1,.719,1.689v3.425a4.277,4.277,0,0,0,.22,1.572v.08Zm-2.516-.575a2.691,2.691,0,0,0,1.436-.389,2.292,2.292,0,0,0,.92-1.036v-1.592h-1.432a3.584,3.584,0,0,0-1.873.438,1.314,1.314,0,0,0-.676,1.167,1.3,1.3,0,0,0,.451,1.011A1.7,1.7,0,0,0,638.947,453.162Z"/><path d="M644.807,453.737v-6.583h-1.2V446.5h1.2v-.876a2.382,2.382,0,0,1,.566-1.706,2.065,2.065,0,0,1,1.574-.6,3.058,3.058,0,0,1,.85.114l-.061.663a3.081,3.081,0,0,0-.728-.08,1.311,1.311,0,0,0-1.031.412,1.7,1.7,0,0,0-.368,1.171v.9h1.727v.655h-1.727v6.583Z"/><path d="M653.424,452.82a2.6,2.6,0,0,1-2.309,1.051,2.245,2.245,0,0,1-1.76-.673,2.956,2.956,0,0,1-.615-1.99V446.5h.8v4.609q0,2.067,1.672,2.067a2.05,2.05,0,0,0,2.2-1.438V446.5h.8v7.238h-.775Z"/><path d="M660.152,453.062h4.7v.675h-5.693v-.589l4.389-5.954H659.3V446.5h5.264v.6Z"/><path d="M667.051,446.5l.025,1.237a2.871,2.871,0,0,1,1.018-1.019,2.632,2.632,0,0,1,1.344-.352,2.169,2.169,0,0,1,1.732.656,2.953,2.953,0,0,1,.576,1.966v4.75h-.8V448.98a2.207,2.207,0,0,0-.41-1.444,1.616,1.616,0,0,0-1.295-.475,2.021,2.021,0,0,0-1.314.465,2.72,2.72,0,0,0-.846,1.254v4.957h-.8V446.5Z"/><path d="M678.381,453.737a3.753,3.753,0,0,1-.152-1.01,2.8,2.8,0,0,1-1.075.846,3.3,3.3,0,0,1-1.381.3,2.423,2.423,0,0,1-1.689-.582,1.892,1.892,0,0,1-.646-1.472,1.934,1.934,0,0,1,.88-1.672,4.219,4.219,0,0,1,2.452-.616h1.451v-.822a1.588,1.588,0,0,0-.479-1.222,1.976,1.976,0,0,0-1.394-.444,2.186,2.186,0,0,0-1.385.428,1.275,1.275,0,0,0-.549,1.03l-.8-.007a1.863,1.863,0,0,1,.8-1.5,3.1,3.1,0,0,1,1.975-.632,2.822,2.822,0,0,1,1.91.606,2.177,2.177,0,0,1,.719,1.689v3.425a4.234,4.234,0,0,0,.22,1.572v.08Zm-2.514-.575a2.684,2.684,0,0,0,1.434-.389,2.269,2.269,0,0,0,.92-1.036v-1.592h-1.432a3.589,3.589,0,0,0-1.873.438,1.318,1.318,0,0,0-.676,1.167,1.3,1.3,0,0,0,.451,1.011A1.712,1.712,0,0,0,675.867,453.162Zm1.578-9.7h.969l-1.545,1.873-.7,0Z"/><path d="M681.68,453.062h4.7v.675h-5.692v-.589l4.389-5.954h-4.256V446.5h5.266v.6Z"/><path d="M687.264,450.011a4.256,4.256,0,0,1,.406-1.88,3.035,3.035,0,0,1,2.818-1.766,2.976,2.976,0,0,1,2.342,1.014,3.9,3.9,0,0,1,.9,2.685v.167a4.29,4.29,0,0,1-.4,1.89,3.017,3.017,0,0,1-1.14,1.3,3.125,3.125,0,0,1-1.68.455,2.979,2.979,0,0,1-2.338-1.014,3.894,3.894,0,0,1-.9-2.685Zm.8.22a3.278,3.278,0,0,0,.674,2.131,2.274,2.274,0,0,0,3.518,0,3.385,3.385,0,0,0,.672-2.2v-.154a3.688,3.688,0,0,0-.307-1.519,2.465,2.465,0,0,0-.863-1.066,2.2,2.2,0,0,0-1.272-.378,2.139,2.139,0,0,0-1.746.839,3.409,3.409,0,0,0-.676,2.2Z"/><path d="M698.725,447.182a2.943,2.943,0,0,0-.543-.047,1.954,1.954,0,0,0-1.268.418,2.275,2.275,0,0,0-.738,1.214v4.97h-.8V446.5h.783l.014,1.15a2.128,2.128,0,0,1,2.039-1.284,1.335,1.335,0,0,1,.529.087Z"/><path d="M700.752,446.5l.025,1.237a2.871,2.871,0,0,1,1.018-1.019,2.632,2.632,0,0,1,1.344-.352,2.169,2.169,0,0,1,1.732.656,2.953,2.953,0,0,1,.576,1.966v4.75h-.8V448.98a2.207,2.207,0,0,0-.41-1.444,1.616,1.616,0,0,0-1.295-.475,2.021,2.021,0,0,0-1.314.465,2.72,2.72,0,0,0-.846,1.254v4.957h-.8V446.5Z"/><path d="M710.316,453.871a3.105,3.105,0,0,1-2.83-1.723,3.97,3.97,0,0,1-.414-1.823v-.287a4.259,4.259,0,0,1,.4-1.88,3.214,3.214,0,0,1,1.127-1.314,2.773,2.773,0,0,1,1.566-.479,2.613,2.613,0,0,1,2.09.9,3.652,3.652,0,0,1,.773,2.459v.448h-5.164v.153a3.035,3.035,0,0,0,.7,2.051,2.247,2.247,0,0,0,1.776.819,2.614,2.614,0,0,0,1.134-.234,2.508,2.508,0,0,0,.893-.749l.5.381A2.92,2.92,0,0,1,710.316,453.871Zm-.146-6.823a2,2,0,0,0-1.522.662,3.046,3.046,0,0,0-.753,1.779h4.341V449.4a2.65,2.65,0,0,0-.6-1.7A1.849,1.849,0,0,0,710.17,447.048Zm.08-2.194,1.15-1.3h.715v.08l-1.578,1.746h-.574l-1.58-1.753v-.073h.717Z"/><path d="M715.354,446.5l.027,1.237a2.855,2.855,0,0,1,1.015-1.019,2.644,2.644,0,0,1,1.346-.352,2.172,2.172,0,0,1,1.733.656,2.953,2.953,0,0,1,.574,1.966v4.75h-.795V448.98a2.224,2.224,0,0,0-.412-1.444,1.614,1.614,0,0,0-1.295-.475,2.031,2.031,0,0,0-1.315.465,2.733,2.733,0,0,0-.845,1.254v4.957h-.795V446.5Z"/><path d="M724.92,453.871a3.105,3.105,0,0,1-2.83-1.723,3.957,3.957,0,0,1-.414-1.823v-.287a4.272,4.272,0,0,1,.4-1.88,3.229,3.229,0,0,1,1.127-1.314,2.775,2.775,0,0,1,1.566-.479,2.611,2.611,0,0,1,2.09.9,3.648,3.648,0,0,1,.774,2.459v.448h-5.164v.153a3.03,3.03,0,0,0,.705,2.051,2.244,2.244,0,0,0,1.775.819,2.616,2.616,0,0,0,1.135-.234,2.5,2.5,0,0,0,.892-.749l.5.381A2.919,2.919,0,0,1,724.92,453.871Zm-.147-6.823a2,2,0,0,0-1.521.662,3.053,3.053,0,0,0-.754,1.779h4.342V449.4a2.656,2.656,0,0,0-.6-1.7A1.848,1.848,0,0,0,724.773,447.048Zm.889-3.586h.971l-1.545,1.873-.7,0Z"/><path d="M729.121,453.256a.577.577,0,0,1,.15-.4.542.542,0,0,1,.418-.164.554.554,0,0,1,.422.164.568.568,0,0,1,.155.4.518.518,0,0,1-.155.384.581.581,0,0,1-.422.151.568.568,0,0,1-.418-.151A.525.525,0,0,1,729.121,453.256Z"/><rect class="cls-5" x="172.535" y="47.957" width="16.277" height="16.277"/><line class="cls-6" x1="172.939" y1="47.957" x2="188.428" y2="47.957"/><rect class="cls-7" x="6.567" y="47.957" width="16.277" height="16.277"/><line class="cls-7" x1="6.567" y1="47.957" x2="22.844" y2="47.957"/><path class="cls-8" d="M207.865,59.413h-4.131l-.863,2.483h-1.927l4.028-10.665h1.662L210.67,61.9h-1.933Zm-3.611-1.495h3.091L205.8,53.5Z"/><path class="cls-8" d="M213.6,61.9h-1.779V50.646H213.6Z"/><path class="cls-8" d="M215.2,57.86a4.663,4.663,0,0,1,.462-2.1,3.369,3.369,0,0,1,1.3-1.436,3.661,3.661,0,0,1,1.92-.5,3.462,3.462,0,0,1,2.6,1.033,4.063,4.063,0,0,1,1.08,2.739l.008.418a4.716,4.716,0,0,1-.451,2.094,3.326,3.326,0,0,1-1.289,1.429,3.682,3.682,0,0,1-1.938.505,3.435,3.435,0,0,1-2.684-1.117,4.278,4.278,0,0,1-1.007-2.977Zm1.78.154a3.2,3.2,0,0,0,.5,1.915,1.643,1.643,0,0,0,1.406.692,1.624,1.624,0,0,0,1.4-.7,3.532,3.532,0,0,0,.5-2.058,3.158,3.158,0,0,0-.515-1.9,1.652,1.652,0,0,0-1.4-.7,1.632,1.632,0,0,0-1.384.692A3.463,3.463,0,0,0,216.984,58.014Z"/><path class="cls-8" d="M226.652,58.5l-.791.813V61.9h-1.779V50.646h1.779v6.489l.556-.7,2.19-2.468h2.139l-2.944,3.3,3.259,4.622H229Z"/><path class="cls-8" d="M231.573,57.86a4.663,4.663,0,0,1,.462-2.1,3.365,3.365,0,0,1,1.3-1.436,3.655,3.655,0,0,1,1.919-.5,3.462,3.462,0,0,1,2.6,1.033,4.063,4.063,0,0,1,1.08,2.739l.008.418a4.7,4.7,0,0,1-.451,2.094,3.326,3.326,0,0,1-1.289,1.429,3.68,3.68,0,0,1-1.938.505,3.432,3.432,0,0,1-2.683-1.117,4.274,4.274,0,0,1-1.008-2.977Zm1.78.154a3.2,3.2,0,0,0,.5,1.915,1.644,1.644,0,0,0,1.406.692,1.623,1.623,0,0,0,1.4-.7,3.532,3.532,0,0,0,.5-2.058,3.151,3.151,0,0,0-.515-1.9,1.652,1.652,0,0,0-1.4-.7,1.633,1.633,0,0,0-1.384.692A3.463,3.463,0,0,0,233.353,58.014Z"/><path class="cls-8" d="M243.131,59.64l1.677-5.669h1.839L243.9,61.9h-1.545l-2.769-7.925h1.846Z"/><path class="cls-8" d="M252.381,61.9a2.775,2.775,0,0,1-.205-.74,2.993,2.993,0,0,1-4.027.2,2.177,2.177,0,0,1-.755-1.685,2.254,2.254,0,0,1,.941-1.945,4.566,4.566,0,0,1,2.692-.677h1.091v-.52a1.391,1.391,0,0,0-.344-.985,1.366,1.366,0,0,0-1.047-.37,1.568,1.568,0,0,0-1,.3.939.939,0,0,0-.389.773h-1.779a1.977,1.977,0,0,1,.432-1.22,2.879,2.879,0,0,1,1.175-.89,4.143,4.143,0,0,1,1.659-.322,3.331,3.331,0,0,1,2.219.7,2.5,2.5,0,0,1,.85,1.967v3.574a4.057,4.057,0,0,0,.3,1.707V61.9Zm-1.955-1.282a2.018,2.018,0,0,0,.992-.257,1.707,1.707,0,0,0,.7-.688V58.175h-.959a2.626,2.626,0,0,0-1.487.344,1.113,1.113,0,0,0-.5.974,1.044,1.044,0,0,0,.34.817A1.319,1.319,0,0,0,250.426,60.614Z"/><path class="cls-8" d="M257.414,53.971l.051.915a2.849,2.849,0,0,1,2.307-1.062q2.475,0,2.52,2.835V61.9h-1.78V56.761a1.629,1.629,0,0,0-.326-1.116,1.368,1.368,0,0,0-1.066-.363,1.715,1.715,0,0,0-1.6.974V61.9h-1.779V53.971Z"/><path class="cls-8" d="M267.594,62.042a3.681,3.681,0,0,1-2.743-1.065,3.868,3.868,0,0,1-1.052-2.839v-.22a4.771,4.771,0,0,1,.458-2.12,3.5,3.5,0,0,1,1.286-1.454,3.4,3.4,0,0,1,1.846-.52,3.111,3.111,0,0,1,2.5,1.033,4.368,4.368,0,0,1,.882,2.922V58.5h-5.178a2.385,2.385,0,0,0,.656,1.553,1.966,1.966,0,0,0,1.446.571,2.407,2.407,0,0,0,1.992-.989l.96.916a3.2,3.2,0,0,1-1.271,1.1A3.984,3.984,0,0,1,267.594,62.042Zm-.213-6.79a1.5,1.5,0,0,0-1.182.513,2.653,2.653,0,0,0-.575,1.428h3.39v-.131a2.168,2.168,0,0,0-.475-1.352A1.49,1.49,0,0,0,267.381,55.252Zm.4-4.606h2.029l-2.029,2.219-1.428,0Z"/><path class="cls-8" d="M282.829,58.014a4.723,4.723,0,0,1-.835,2.933,2.9,2.9,0,0,1-4.329.238v3.757h-1.78V53.971h1.641l.073.805a2.617,2.617,0,0,1,2.132-.952A2.7,2.7,0,0,1,282,54.9a4.844,4.844,0,0,1,.825,3Zm-1.773-.154a3.294,3.294,0,0,0-.473-1.882,1.532,1.532,0,0,0-1.35-.7,1.636,1.636,0,0,0-1.568.9V59.7a1.653,1.653,0,0,0,1.582.923,1.538,1.538,0,0,0,1.33-.684A3.648,3.648,0,0,0,281.056,57.86Z"/><path class="cls-8" d="M284,57.86a4.676,4.676,0,0,1,.462-2.1,3.377,3.377,0,0,1,1.3-1.436,3.661,3.661,0,0,1,1.92-.5,3.462,3.462,0,0,1,2.6,1.033,4.063,4.063,0,0,1,1.08,2.739l.008.418a4.7,4.7,0,0,1-.452,2.094,3.314,3.314,0,0,1-1.289,1.429,3.676,3.676,0,0,1-1.937.505,3.435,3.435,0,0,1-2.684-1.117A4.274,4.274,0,0,1,284,57.948Zm1.781.154a3.2,3.2,0,0,0,.5,1.915,1.643,1.643,0,0,0,1.406.692,1.625,1.625,0,0,0,1.4-.7,3.532,3.532,0,0,0,.5-2.058,3.158,3.158,0,0,0-.515-1.9,1.652,1.652,0,0,0-1.4-.7,1.635,1.635,0,0,0-1.385.692A3.471,3.471,0,0,0,285.781,58.014Z"/><path class="cls-8" d="M295.558,59.64l1.677-5.669h1.839L296.327,61.9h-1.545l-2.769-7.925h1.846Z"/><path class="cls-8" d="M299.74,57.86a4.663,4.663,0,0,1,.462-2.1,3.365,3.365,0,0,1,1.3-1.436,3.655,3.655,0,0,1,1.919-.5,3.462,3.462,0,0,1,2.6,1.033A4.063,4.063,0,0,1,307.1,57.6l.008.418a4.716,4.716,0,0,1-.451,2.094,3.326,3.326,0,0,1-1.289,1.429,3.68,3.68,0,0,1-1.938.505,3.432,3.432,0,0,1-2.683-1.117,4.274,4.274,0,0,1-1.008-2.977Zm1.78.154a3.2,3.2,0,0,0,.5,1.915,1.644,1.644,0,0,0,1.406.692,1.623,1.623,0,0,0,1.4-.7,3.532,3.532,0,0,0,.5-2.058,3.151,3.151,0,0,0-.515-1.9,1.652,1.652,0,0,0-1.4-.7,1.633,1.633,0,0,0-1.384.692A3.463,3.463,0,0,0,301.52,58.014Z"/><path class="cls-8" d="M310.506,61.9h-1.779V50.646h1.779Z"/><path class="cls-8" d="M315.934,62.042a3.681,3.681,0,0,1-2.743-1.065,3.868,3.868,0,0,1-1.052-2.839v-.22a4.758,4.758,0,0,1,.458-2.12,3.5,3.5,0,0,1,1.286-1.454,3.4,3.4,0,0,1,1.846-.52,3.111,3.111,0,0,1,2.5,1.033,4.368,4.368,0,0,1,.882,2.922V58.5h-5.178a2.389,2.389,0,0,0,.655,1.553,1.97,1.97,0,0,0,1.447.571,2.407,2.407,0,0,0,1.992-.989l.96.916a3.21,3.21,0,0,1-1.271,1.1A3.984,3.984,0,0,1,315.934,62.042Zm-.213-6.79a1.5,1.5,0,0,0-1.182.513,2.653,2.653,0,0,0-.576,1.428h3.391v-.131a2.162,2.162,0,0,0-.476-1.352A1.487,1.487,0,0,0,315.721,55.252Z"/><path class="cls-8" d="M322.145,53.971l.052.915a2.848,2.848,0,0,1,2.306-1.062q2.477,0,2.52,2.835V61.9h-1.779V56.761a1.629,1.629,0,0,0-.327-1.116,1.367,1.367,0,0,0-1.066-.363,1.713,1.713,0,0,0-1.6.974V61.9h-1.78V53.971Z"/><path class="cls-8" d="M331.411,58.5l-.791.813V61.9h-1.78V50.646h1.78v6.489l.556-.7,2.19-2.468H335.5l-2.943,3.3L335.82,61.9h-2.058Z"/><path class="cls-8" d="M339.437,59.347l1.611-5.376h1.9L339.8,63.1a2.558,2.558,0,0,1-2.461,2,3.192,3.192,0,0,1-.857-.132V63.58l.338.022a1.737,1.737,0,0,0,1.014-.245,1.637,1.637,0,0,0,.539-.823l.256-.681-2.784-7.882h1.919Z"/><path class="cls-8" d="M349.223,54.772l-2.234-.643.4-1.237,2.212.857-.109-2.518h1.31l-.109,2.561,2.175-.841.4,1.258-2.27.645L352.46,56.8l-1.061.776-1.318-2.109-1.305,2.043-1.068-.747Z"/><path class="cls-9" d="M44.439,56.842a6.545,6.545,0,0,1-.542,2.75,4.1,4.1,0,0,1-1.549,1.817,4.548,4.548,0,0,1-4.629,0,4.15,4.15,0,0,1-1.567-1.8,6.34,6.34,0,0,1-.561-2.7v-.6a6.5,6.5,0,0,1,.553-2.754,4.158,4.158,0,0,1,1.561-1.827,4.245,4.245,0,0,1,2.31-.634,4.289,4.289,0,0,1,2.311.626,4.1,4.1,0,0,1,1.556,1.8,6.466,6.466,0,0,1,.557,2.736Zm-1.853-.556a4.662,4.662,0,0,0-.67-2.718,2.366,2.366,0,0,0-3.78,0,4.577,4.577,0,0,0-.692,2.662v.615a4.626,4.626,0,0,0,.685,2.718,2.206,2.206,0,0,0,1.9.959,2.179,2.179,0,0,0,1.893-.937,4.728,4.728,0,0,0,.663-2.74Z"/><path class="cls-9" d="M48.907,59.64l1.676-5.669h1.839L49.675,61.9H48.13l-2.768-7.925h1.846Z"/><path class="cls-9" d="M56.927,62.042a3.681,3.681,0,0,1-2.743-1.065,3.867,3.867,0,0,1-1.052-2.838v-.22A4.775,4.775,0,0,1,53.59,55.8a3.486,3.486,0,0,1,1.286-1.453,3.392,3.392,0,0,1,1.846-.52,3.113,3.113,0,0,1,2.5,1.032,4.371,4.371,0,0,1,.882,2.923V58.5H54.927a2.382,2.382,0,0,0,.656,1.552,1.966,1.966,0,0,0,1.446.572,2.41,2.41,0,0,0,1.992-.989l.96.915a3.2,3.2,0,0,1-1.271,1.1A3.983,3.983,0,0,1,56.927,62.042Zm-.344-10.268,1.069-1.135h1.523v.073l-2.043,2.043h-1.1L54,50.705v-.066h1.509Zm.131,3.479a1.5,1.5,0,0,0-1.182.513,2.646,2.646,0,0,0-.575,1.428h3.39v-.132a2.168,2.168,0,0,0-.475-1.352A1.492,1.492,0,0,0,56.714,55.253Z"/><path class="cls-9" d="M63.562,51.774l1.069-1.135h1.524v.073l-2.044,2.043h-1.1l-2.029-2.05v-.066h1.509ZM65.634,55.6a4.395,4.395,0,0,0-.724-.058,1.633,1.633,0,0,0-1.649.937V61.9H61.482V53.971h1.7l.044.886a2.005,2.005,0,0,1,1.787-1.032,1.674,1.674,0,0,1,.63.1Z"/><path class="cls-9" d="M70.111,62.042a3.681,3.681,0,0,1-2.743-1.065,3.867,3.867,0,0,1-1.052-2.838v-.22a4.762,4.762,0,0,1,.458-2.121,3.479,3.479,0,0,1,1.286-1.453,3.392,3.392,0,0,1,1.846-.52,3.113,3.113,0,0,1,2.5,1.032,4.371,4.371,0,0,1,.882,2.923V58.5H68.111a2.381,2.381,0,0,0,.655,1.552,1.968,1.968,0,0,0,1.446.572,2.41,2.41,0,0,0,1.993-.989l.96.915a3.211,3.211,0,0,1-1.271,1.1A3.983,3.983,0,0,1,70.111,62.042ZM69.9,55.253a1.5,1.5,0,0,0-1.183.513,2.654,2.654,0,0,0-.575,1.428h3.391v-.132a2.168,2.168,0,0,0-.476-1.352A1.49,1.49,0,0,0,69.9,55.253Z"/><path class="cls-9" d="M76.321,53.971l.052.916a2.846,2.846,0,0,1,2.306-1.062q2.476,0,2.52,2.834V61.9h-1.78V56.762a1.632,1.632,0,0,0-.326-1.117,1.372,1.372,0,0,0-1.066-.363,1.717,1.717,0,0,0-1.6.974V61.9H74.644V53.971Z"/><path class="cls-9" d="M86.5,62.042a3.682,3.682,0,0,1-2.743-1.065,3.866,3.866,0,0,1-1.051-2.838v-.22a4.762,4.762,0,0,1,.458-2.121,3.473,3.473,0,0,1,1.286-1.453,3.388,3.388,0,0,1,1.845-.52,3.113,3.113,0,0,1,2.5,1.032,4.371,4.371,0,0,1,.882,2.923V58.5H84.5a2.382,2.382,0,0,0,.656,1.552,1.968,1.968,0,0,0,1.446.572,2.41,2.41,0,0,0,1.992-.989l.96.915a3.2,3.2,0,0,1-1.27,1.1A3.988,3.988,0,0,1,86.5,62.042Zm-.212-6.789a1.5,1.5,0,0,0-1.183.513,2.646,2.646,0,0,0-.575,1.428h3.39v-.132a2.168,2.168,0,0,0-.475-1.352A1.492,1.492,0,0,0,86.29,55.253Zm.4-4.607h2.029l-2.029,2.219-1.428,0Z"/><path class="cls-9" d="M98.287,62.042a3.685,3.685,0,0,1-2.744-1.065,3.866,3.866,0,0,1-1.051-2.838v-.22A4.762,4.762,0,0,1,94.95,55.8a3.473,3.473,0,0,1,1.286-1.453,3.392,3.392,0,0,1,1.846-.52,3.113,3.113,0,0,1,2.5,1.032,4.376,4.376,0,0,1,.881,2.923V58.5H96.287a2.376,2.376,0,0,0,.655,1.552,1.968,1.968,0,0,0,1.446.572,2.407,2.407,0,0,0,1.992-.989l.96.915a3.2,3.2,0,0,1-1.27,1.1A3.983,3.983,0,0,1,98.287,62.042Zm-.213-6.789a1.5,1.5,0,0,0-1.183.513,2.646,2.646,0,0,0-.575,1.428h3.391v-.132a2.174,2.174,0,0,0-.476-1.352A1.49,1.49,0,0,0,98.074,55.253Z"/><path class="cls-9" d="M104.52,53.971l.051.828a2.848,2.848,0,0,1,2.285-.974,2.192,2.192,0,0,1,2.176,1.216,2.806,2.806,0,0,1,2.431-1.216,2.47,2.47,0,0,1,1.952.725,3.2,3.2,0,0,1,.656,2.138V61.9h-1.78V56.74a1.579,1.579,0,0,0-.33-1.106,1.441,1.441,0,0,0-1.091-.352,1.483,1.483,0,0,0-.993.326,1.737,1.737,0,0,0-.539.853l.008,5.435h-1.779V56.681a1.271,1.271,0,0,0-1.429-1.4,1.566,1.566,0,0,0-1.516.872V61.9h-1.78V53.971Z"/><path class="cls-9" d="M115.9,51.913a.943.943,0,0,1,.26-.681.978.978,0,0,1,.743-.271.994.994,0,0,1,.747.271.938.938,0,0,1,.264.681.914.914,0,0,1-.264.67,1,1,0,0,1-.747.268.984.984,0,0,1-.743-.268A.918.918,0,0,1,115.9,51.913Zm1.889,9.983h-1.78V53.971h1.78Z"/><path class="cls-9" d="M124.169,59.743a.8.8,0,0,0-.391-.725,4.169,4.169,0,0,0-1.3-.44,6.7,6.7,0,0,1-1.516-.483,2.025,2.025,0,0,1-1.334-1.868,2.109,2.109,0,0,1,.866-1.714,3.411,3.411,0,0,1,2.2-.688,3.557,3.557,0,0,1,2.3.7,2.232,2.232,0,0,1,.875,1.824h-1.78a1.094,1.094,0,0,0-.381-.853,1.455,1.455,0,0,0-1.01-.341,1.571,1.571,0,0,0-.956.271.852.852,0,0,0-.37.725.721.721,0,0,0,.343.637,4.76,4.76,0,0,0,1.393.458,6.588,6.588,0,0,1,1.644.549,2.331,2.331,0,0,1,.886.765,1.953,1.953,0,0,1,.289,1.084,2.064,2.064,0,0,1-.885,1.732,3.778,3.778,0,0,1-2.323.663,4.106,4.106,0,0,1-1.736-.351,2.842,2.842,0,0,1-1.185-.967,2.277,2.277,0,0,1-.426-1.326h1.728a1.258,1.258,0,0,0,.477.971,1.849,1.849,0,0,0,1.164.34,1.8,1.8,0,0,0,1.07-.267A.828.828,0,0,0,124.169,59.743Z"/><path class="cls-9" d="M130.96,62.042a3.682,3.682,0,0,1-2.743-1.065,3.866,3.866,0,0,1-1.051-2.838v-.22a4.762,4.762,0,0,1,.458-2.121,3.473,3.473,0,0,1,1.286-1.453,3.388,3.388,0,0,1,1.845-.52,3.113,3.113,0,0,1,2.5,1.032,4.371,4.371,0,0,1,.882,2.923V58.5H128.96a2.382,2.382,0,0,0,.656,1.552,1.968,1.968,0,0,0,1.446.572,2.41,2.41,0,0,0,1.992-.989l.96.915a3.2,3.2,0,0,1-1.27,1.1A3.988,3.988,0,0,1,130.96,62.042Zm-.212-6.789a1.5,1.5,0,0,0-1.183.513,2.646,2.646,0,0,0-.575,1.428h3.39v-.132a2.168,2.168,0,0,0-.475-1.352A1.492,1.492,0,0,0,130.748,55.253Z"/><path d="M12.5,382.011a5.9,5.9,0,0,1-.828,3.424A2.8,2.8,0,0,1,9.23,386.6a2.825,2.825,0,0,1-2.425-1.147,5.689,5.689,0,0,1-.864-3.336v-1.912a5.789,5.789,0,0,1,.835-3.405,2.817,2.817,0,0,1,2.438-1.157,2.833,2.833,0,0,1,2.418,1.117,5.579,5.579,0,0,1,.864,3.292Zm-.879-1.912a5.206,5.206,0,0,0-.6-2.769,1.994,1.994,0,0,0-1.806-.937,2,2,0,0,0-1.787.915,5.044,5.044,0,0,0-.615,2.7v2.094a5.2,5.2,0,0,0,.619,2.791,2.007,2.007,0,0,0,1.8.966,1.973,1.973,0,0,0,1.775-.944,5.209,5.209,0,0,0,.612-2.769Z"/><path d="M12.5,330.509a5.9,5.9,0,0,1-.828,3.424A2.8,2.8,0,0,1,9.23,335.1a2.825,2.825,0,0,1-2.425-1.147,5.689,5.689,0,0,1-.864-3.336v-1.912a5.789,5.789,0,0,1,.835-3.405,2.817,2.817,0,0,1,2.438-1.157,2.833,2.833,0,0,1,2.418,1.117,5.581,5.581,0,0,1,.864,3.292Zm-.879-1.912a5.206,5.206,0,0,0-.6-2.769,1.994,1.994,0,0,0-1.806-.937,2,2,0,0,0-1.787.915,5.044,5.044,0,0,0-.615,2.7V330.6a5.2,5.2,0,0,0,.619,2.79,2.007,2.007,0,0,0,1.8.966,1.973,1.973,0,0,0,1.775-.944,5.209,5.209,0,0,0,.612-2.769Z"/><path d="M14.333,336.946l-.519-.381a3.183,3.183,0,0,0,.688-1.853v-1.135h.857v.916A3.153,3.153,0,0,1,14.333,336.946Z"/><path d="M17.842,329.49l.521-5.2H23.7v.813H19.117l-.373,3.6a3.467,3.467,0,0,1,2.006-.586,2.97,2.97,0,0,1,2.3.938,3.562,3.562,0,0,1,.857,2.5,3.783,3.783,0,0,1-.835,2.615,3,3,0,0,1-2.352.93,3.247,3.247,0,0,1-2.256-.777,3.172,3.172,0,0,1-.988-2.175h.842a2.534,2.534,0,0,0,.74,1.652,2.376,2.376,0,0,0,1.662.559,2.084,2.084,0,0,0,1.726-.724,3.235,3.235,0,0,0,.582-2.066,2.786,2.786,0,0,0-.652-1.911,2.252,2.252,0,0,0-1.78-.74,3.391,3.391,0,0,0-1.084.157,2.975,2.975,0,0,0-.973.612Z"/><path d="M10.145,283.455H9.266v-9.609l-2.9,1.076v-.82L10,272.754h.146Z"/><path d="M14.333,285.447l-.519-.381a3.183,3.183,0,0,0,.688-1.853v-1.135h.857v.916A3.153,3.153,0,0,1,14.333,285.447Z"/><path d="M23.679,279.01a5.9,5.9,0,0,1-.827,3.424,2.8,2.8,0,0,1-2.438,1.168,2.824,2.824,0,0,1-2.425-1.147,5.674,5.674,0,0,1-.864-3.336v-1.912a5.8,5.8,0,0,1,.834-3.4,2.819,2.819,0,0,1,2.439-1.157,2.834,2.834,0,0,1,2.418,1.117,5.574,5.574,0,0,1,.863,3.292ZM22.8,277.1a5.207,5.207,0,0,0-.6-2.769,2,2,0,0,0-1.806-.937,2,2,0,0,0-1.787.915,5.026,5.026,0,0,0-.615,2.7V279.1a5.2,5.2,0,0,0,.619,2.791,2.006,2.006,0,0,0,1.8.966,1.973,1.973,0,0,0,1.775-.944,5.219,5.219,0,0,0,.611-2.769Z"/><path d="M10.145,231.954H9.266v-9.61l-2.9,1.076v-.82L10,221.252h.146Z"/><path d="M14.333,233.946l-.519-.381a3.189,3.189,0,0,0,.688-1.854v-1.134h.857v.916A3.154,3.154,0,0,1,14.333,233.946Z"/><path d="M17.842,226.49l.521-5.2H23.7v.812H19.117l-.373,3.6a3.467,3.467,0,0,1,2.006-.586,2.969,2.969,0,0,1,2.3.937,3.562,3.562,0,0,1,.857,2.5,3.783,3.783,0,0,1-.835,2.615,2.994,2.994,0,0,1-2.352.93,3.251,3.251,0,0,1-2.256-.776,3.174,3.174,0,0,1-.988-2.175h.842a2.533,2.533,0,0,0,.74,1.651,2.376,2.376,0,0,0,1.662.56,2.082,2.082,0,0,0,1.726-.725,3.232,3.232,0,0,0,.582-2.065,2.786,2.786,0,0,0-.652-1.911,2.253,2.253,0,0,0-1.78-.741,3.362,3.362,0,0,0-1.084.158,2.942,2.942,0,0,0-.973.612Z"/><path d="M12.746,180.453H6.066v-.674l3.654-4.146a9.545,9.545,0,0,0,1.26-1.728,2.887,2.887,0,0,0,.352-1.326,2.152,2.152,0,0,0-.594-1.6,2.215,2.215,0,0,0-1.633-.59,2.3,2.3,0,0,0-1.739.689,2.464,2.464,0,0,0-.663,1.787H5.832a3.338,3.338,0,0,1,.406-1.641A2.917,2.917,0,0,1,7.4,170.063a3.44,3.44,0,0,1,1.71-.421,3.224,3.224,0,0,1,2.289.769,2.728,2.728,0,0,1,.824,2.095,3.545,3.545,0,0,1-.466,1.633,12.089,12.089,0,0,1-1.636,2.212l-2.974,3.362h5.6Z"/><path d="M14.333,182.445l-.519-.381a3.186,3.186,0,0,0,.688-1.853v-1.135h.857v.915A3.153,3.153,0,0,1,14.333,182.445Z"/><path d="M23.679,176.007a5.9,5.9,0,0,1-.827,3.424,2.8,2.8,0,0,1-2.438,1.168,2.825,2.825,0,0,1-2.425-1.146,5.674,5.674,0,0,1-.864-3.336v-1.912a5.8,5.8,0,0,1,.834-3.406,2.822,2.822,0,0,1,2.439-1.157,2.836,2.836,0,0,1,2.418,1.117,5.577,5.577,0,0,1,.863,3.292ZM22.8,174.1a5.205,5.205,0,0,0-.6-2.768,2,2,0,0,0-1.806-.938,2,2,0,0,0-1.787.916,5.022,5.022,0,0,0-.615,2.7V176.1a5.2,5.2,0,0,0,.619,2.791,2.006,2.006,0,0,0,1.8.966,1.975,1.975,0,0,0,1.775-.944,5.219,5.219,0,0,0,.611-2.769Z"/><path d="M12.8,129.3H6.116v-.674l3.655-4.146a9.58,9.58,0,0,0,1.259-1.728,2.875,2.875,0,0,0,.352-1.326,2.148,2.148,0,0,0-.594-1.6,2.211,2.211,0,0,0-1.633-.59,2.3,2.3,0,0,0-1.739.689,2.468,2.468,0,0,0-.663,1.787H5.882a3.349,3.349,0,0,1,.406-1.641,2.924,2.924,0,0,1,1.157-1.161,3.443,3.443,0,0,1,1.71-.421,3.227,3.227,0,0,1,2.289.769,2.729,2.729,0,0,1,.825,2.095,3.557,3.557,0,0,1-.466,1.633,12.151,12.151,0,0,1-1.637,2.212l-2.974,3.362h5.6Z"/><path d="M14.384,131.294l-.52-.381a3.187,3.187,0,0,0,.689-1.853v-1.135h.856v.915A3.156,3.156,0,0,1,14.384,131.294Z"/><path d="M17.893,123.838l.52-5.2h5.332v.813H19.167l-.373,3.6a3.467,3.467,0,0,1,2.006-.586,2.969,2.969,0,0,1,2.3.938,3.562,3.562,0,0,1,.856,2.5,3.778,3.778,0,0,1-.835,2.615,3,3,0,0,1-2.351.93,3.25,3.25,0,0,1-2.256-.776,3.172,3.172,0,0,1-.989-2.175h.842a2.533,2.533,0,0,0,.74,1.651,2.379,2.379,0,0,0,1.663.56,2.081,2.081,0,0,0,1.725-.725,3.224,3.224,0,0,0,.582-2.065,2.8,2.8,0,0,0-.651-1.912,2.255,2.255,0,0,0-1.781-.739,3.363,3.363,0,0,0-1.084.157,2.952,2.952,0,0,0-.973.612Z"/><path d="M30.2,121.377l.03,1.289a2.943,2.943,0,0,1,1.1-1.077,3.018,3.018,0,0,1,1.465-.359,2.224,2.224,0,0,1,2.381,1.539,2.964,2.964,0,0,1,1.135-1.139,3.145,3.145,0,0,1,1.568-.4q2.548,0,2.6,2.784V129.3H39.6V124.08a2.36,2.36,0,0,0-.458-1.575,1.862,1.862,0,0,0-1.468-.513,2.337,2.337,0,0,0-1.6.612,2.162,2.162,0,0,0-.724,1.454V129.3h-.879v-5.288a2.172,2.172,0,0,0-.48-1.52,1.912,1.912,0,0,0-1.454-.5,2.206,2.206,0,0,0-1.421.473,2.772,2.772,0,0,0-.879,1.4V129.3h-.879v-7.925Z"/><path d="M43.674,129.3H42.8v-11.25h.879Z"/><path d="M45.7,125.266a4.783,4.783,0,0,1,.824-2.941,2.654,2.654,0,0,1,2.238-1.095,2.756,2.756,0,0,1,2.446,1.268v-4.446h.871V129.3h-.82l-.036-1.055a2.831,2.831,0,0,1-2.476,1.2,2.641,2.641,0,0,1-2.208-1.1,4.8,4.8,0,0,1-.839-2.977Zm.887.154a4.138,4.138,0,0,0,.607,2.392,1.969,1.969,0,0,0,1.714.875,2.36,2.36,0,0,0,2.3-1.429v-3.72a2.341,2.341,0,0,0-2.285-1.546,1.988,1.988,0,0,0-1.721.868A4.417,4.417,0,0,0,46.59,125.42Z"/><path d="M54.31,128.774a.618.618,0,0,1,.164-.435.589.589,0,0,1,.458-.18.606.606,0,0,1,.462.18.617.617,0,0,1,.168.435.567.567,0,0,1-.168.421.631.631,0,0,1-.462.165.614.614,0,0,1-.458-.165A.567.567,0,0,1,54.31,128.774Z"/><path d="M62.98,119.348v2.029h1.641v.718H62.98v5.286a1.654,1.654,0,0,0,.239.983.921.921,0,0,0,.794.323,5.486,5.486,0,0,0,.711-.074l.037.712a2.885,2.885,0,0,1-.938.123,1.562,1.562,0,0,1-1.311-.523,2.462,2.462,0,0,1-.41-1.542V122.1H60.644v-.718H62.1v-2.029Z"/><path d="M71.536,128.3a2.847,2.847,0,0,1-2.527,1.15,2.449,2.449,0,0,1-1.926-.736,3.226,3.226,0,0,1-.674-2.179v-5.156h.871v5.046q0,2.263,1.832,2.264a2.244,2.244,0,0,0,2.409-1.575v-5.735H72.4V129.3h-.849Z"/><path d="M75.513,121.377l.029,1.355a3.15,3.15,0,0,1,1.113-1.117,2.889,2.889,0,0,1,1.472-.385,2.378,2.378,0,0,1,1.9.718,3.241,3.241,0,0,1,.63,2.154v5.2h-.871v-5.208a2.425,2.425,0,0,0-.451-1.582,1.766,1.766,0,0,0-1.417-.52,2.219,2.219,0,0,0-1.439.509,2.986,2.986,0,0,0-.927,1.374V129.3h-.871v-7.925Z"/><path d="M94.321,125.977a3.822,3.822,0,0,1-1.2,2.578,3.99,3.99,0,0,1-2.721.893,3.76,3.76,0,0,1-2.1-.593,3.865,3.865,0,0,1-1.41-1.681,5.989,5.989,0,0,1-.506-2.486V123.3a6.04,6.04,0,0,1,.5-2.519,3.826,3.826,0,0,1,1.432-1.7,3.9,3.9,0,0,1,2.15-.6,3.818,3.818,0,0,1,2.706.923,3.861,3.861,0,0,1,1.153,2.556h-.908a2.714,2.714,0,0,0-2.951-2.717,2.8,2.8,0,0,0-2.311,1.085,4.7,4.7,0,0,0-.861,3v1.305a4.739,4.739,0,0,0,.839,2.946,2.7,2.7,0,0,0,2.267,1.1,3,3,0,0,0,2.131-.678,3.24,3.24,0,0,0,.886-2.032Z"/><path d="M104.392,124.548a6.167,6.167,0,0,1-.509,2.586,3.893,3.893,0,0,1-1.454,1.714,3.985,3.985,0,0,1-2.183.6,3.784,3.784,0,0,1-3.017-1.337,5.339,5.339,0,0,1-1.15-3.607v-1.1a6.129,6.129,0,0,1,.516-2.582,3.839,3.839,0,0,1,3.636-2.333,3.991,3.991,0,0,1,2.172.593,3.9,3.9,0,0,1,1.453,1.678,6.036,6.036,0,0,1,.536,2.512Zm-.9-1.157a4.711,4.711,0,0,0-.872-3.017,3.133,3.133,0,0,0-4.757,0,4.747,4.747,0,0,0-.883,3.058v1.113a4.714,4.714,0,0,0,.879,3.007,3.137,3.137,0,0,0,4.776.014,4.836,4.836,0,0,0,.857-3.05Z"/><path d="M109.905,132.3h-4.073v-.568l2.152-2.391a5.194,5.194,0,0,0,.66-.882,1.472,1.472,0,0,0,.181-.7,1.109,1.109,0,0,0-.3-.8,1.031,1.031,0,0,0-.785-.311,1.22,1.22,0,0,0-.916.335,1.278,1.278,0,0,0-.326.933h-.79a1.828,1.828,0,0,1,.553-1.388,2.047,2.047,0,0,1,1.479-.53,1.971,1.971,0,0,1,1.371.455,1.554,1.554,0,0,1,.5,1.211,3.56,3.56,0,0,1-1.17,2.186l-1.665,1.806h3.121Z"/><path d="M118.084,129.448a3.44,3.44,0,0,1-1.827-.5,3.4,3.4,0,0,1-1.271-1.388,4.334,4.334,0,0,1-.454-2v-.315a4.659,4.659,0,0,1,.444-2.058,3.53,3.53,0,0,1,1.233-1.439,3.049,3.049,0,0,1,1.715-.524,2.861,2.861,0,0,1,2.288.986,4,4,0,0,1,.847,2.691v.491H115.4v.168a3.318,3.318,0,0,0,.773,2.246,2.455,2.455,0,0,0,1.944.9,2.849,2.849,0,0,0,1.241-.256,2.745,2.745,0,0,0,.978-.82l.55.417A3.2,3.2,0,0,1,118.084,129.448Zm-.16-7.47a2.19,2.19,0,0,0-1.667.725,3.339,3.339,0,0,0-.823,1.948h4.753v-.095a2.915,2.915,0,0,0-.652-1.861A2.022,2.022,0,0,0,117.924,121.978Z"/><path d="M123.563,121.377l.03,1.289a2.943,2.943,0,0,1,1.1-1.077,3.018,3.018,0,0,1,1.465-.359,2.224,2.224,0,0,1,2.381,1.539,2.964,2.964,0,0,1,1.135-1.139,3.148,3.148,0,0,1,1.568-.4q2.548,0,2.6,2.784V129.3h-.879V124.08a2.36,2.36,0,0,0-.458-1.575,1.862,1.862,0,0,0-1.468-.513,2.333,2.333,0,0,0-1.6.612,2.159,2.159,0,0,0-.725,1.454V129.3h-.879v-5.288a2.177,2.177,0,0,0-.479-1.52,1.914,1.914,0,0,0-1.455-.5,2.2,2.2,0,0,0-1.42.473,2.759,2.759,0,0,0-.879,1.4V129.3h-.879v-7.925Z"/><path d="M136.007,119.088a.591.591,0,0,1,.16-.419.577.577,0,0,1,.439-.17.591.591,0,0,1,.444.17.583.583,0,0,1,.165.419.567.567,0,0,1-.165.415.593.593,0,0,1-.444.167.561.561,0,0,1-.6-.582Zm1.032,10.214h-.879v-7.925h.879Z"/><path d="M144.166,127.288a1.252,1.252,0,0,0-.523-1.048,4.069,4.069,0,0,0-1.579-.619,7.019,7.019,0,0,1-1.637-.513,2.186,2.186,0,0,1-.865-.706,1.769,1.769,0,0,1-.281-1.011,1.886,1.886,0,0,1,.783-1.549,3.172,3.172,0,0,1,2.007-.612,3.259,3.259,0,0,1,2.128.656,2.106,2.106,0,0,1,.8,1.71h-.879a1.419,1.419,0,0,0-.582-1.157,2.63,2.63,0,0,0-2.856-.077,1.185,1.185,0,0,0-.524,1,1.08,1.08,0,0,0,.436.919,4.6,4.6,0,0,0,1.589.6,7.429,7.429,0,0,1,1.728.579,2.238,2.238,0,0,1,.854.739,2.035,2.035,0,0,1-.532,2.652,3.458,3.458,0,0,1-2.112.6,3.545,3.545,0,0,1-2.245-.67,2.062,2.062,0,0,1-.86-1.695h.878a1.524,1.524,0,0,0,.648,1.2,2.655,2.655,0,0,0,1.579.428,2.5,2.5,0,0,0,1.479-.4A1.21,1.21,0,0,0,144.166,127.288Z"/><path d="M148.436,118.14H149.5l-1.691,2.05-.77,0Zm-.455,11.162H147.1v-7.925h.878Z"/><path d="M153.877,130.217h-.8l4.453-11.579h.791Z"/><path d="M164.4,121.377l.03,1.289a2.943,2.943,0,0,1,1.1-1.077A3.018,3.018,0,0,1,167,121.23a2.224,2.224,0,0,1,2.381,1.539,2.964,2.964,0,0,1,1.135-1.139,3.145,3.145,0,0,1,1.568-.4q2.548,0,2.6,2.784V129.3H173.8V124.08a2.36,2.36,0,0,0-.458-1.575,1.862,1.862,0,0,0-1.468-.513,2.337,2.337,0,0,0-1.6.612,2.162,2.162,0,0,0-.724,1.454V129.3h-.879v-5.288a2.172,2.172,0,0,0-.48-1.52,1.91,1.91,0,0,0-1.454-.5,2.208,2.208,0,0,0-1.421.473,2.772,2.772,0,0,0-.879,1.4V129.3h-.878v-7.925Z"/><path d="M177.879,129.3H177v-11.25h.879Z"/><path d="M179.908,125.266a4.783,4.783,0,0,1,.824-2.941,2.654,2.654,0,0,1,2.238-1.095,2.756,2.756,0,0,1,2.446,1.268v-4.446h.871V129.3h-.82l-.036-1.055a2.831,2.831,0,0,1-2.476,1.2,2.641,2.641,0,0,1-2.208-1.1,4.8,4.8,0,0,1-.839-2.977Zm.887.154a4.138,4.138,0,0,0,.607,2.392,1.969,1.969,0,0,0,1.714.875,2.36,2.36,0,0,0,2.3-1.429v-3.72a2.341,2.341,0,0,0-2.285-1.546,1.989,1.989,0,0,0-1.721.868A4.417,4.417,0,0,0,180.8,125.42Z"/><path d="M188.515,128.774a.618.618,0,0,1,.164-.435.589.589,0,0,1,.458-.18.606.606,0,0,1,.462.18.617.617,0,0,1,.168.435.567.567,0,0,1-.168.421.631.631,0,0,1-.462.165.614.614,0,0,1-.458-.165A.567.567,0,0,1,188.515,128.774Z"/><path d="M202.2,125.42a4.768,4.768,0,0,1-.82,2.94,2.61,2.61,0,0,1-2.2,1.088,2.934,2.934,0,0,1-2.49-1.142v4.043h-.873V121.377h.814l.044,1.121a2.81,2.81,0,0,1,2.482-1.268,2.635,2.635,0,0,1,2.231,1.077,4.875,4.875,0,0,1,.809,2.988Zm-.879-.154a4.083,4.083,0,0,0-.622-2.4,2.009,2.009,0,0,0-1.736-.879,2.309,2.309,0,0,0-2.27,1.516v3.8a2.318,2.318,0,0,0,.9,1.04,2.6,2.6,0,0,0,1.384.358,1.985,1.985,0,0,0,1.724-.882A4.435,4.435,0,0,0,201.316,125.266Z"/><path d="M203.653,125.222a4.653,4.653,0,0,1,.444-2.058,3.327,3.327,0,0,1,3.087-1.934,3.262,3.262,0,0,1,2.563,1.11,4.278,4.278,0,0,1,.982,2.941v.183a4.7,4.7,0,0,1-.444,2.069,3.309,3.309,0,0,1-1.248,1.417,3.427,3.427,0,0,1-1.839.5,3.262,3.262,0,0,1-2.559-1.109,4.261,4.261,0,0,1-.986-2.941Zm.879.242a3.592,3.592,0,0,0,.737,2.333,2.491,2.491,0,0,0,3.852,0,3.721,3.721,0,0,0,.736-2.406v-.169a4.037,4.037,0,0,0-.337-1.662,2.706,2.706,0,0,0-.945-1.168,2.412,2.412,0,0,0-1.391-.414,2.346,2.346,0,0,0-1.913.918,3.726,3.726,0,0,0-.739,2.407Z"/><path d="M214.9,128.093l2.41-6.716h.9l-2.959,7.925h-.711l-2.974-7.925h.9Z"/><path d="M219.049,125.222a4.653,4.653,0,0,1,.443-2.058,3.327,3.327,0,0,1,3.087-1.934,3.264,3.264,0,0,1,2.564,1.11,4.278,4.278,0,0,1,.981,2.941v.183a4.7,4.7,0,0,1-.443,2.069,3.309,3.309,0,0,1-1.248,1.417,3.43,3.43,0,0,1-1.839.5,3.264,3.264,0,0,1-2.56-1.109,4.265,4.265,0,0,1-.985-2.941Zm.879.242a3.6,3.6,0,0,0,.736,2.333,2.492,2.492,0,0,0,3.853,0,3.721,3.721,0,0,0,.736-2.406v-.169a4.021,4.021,0,0,0-.338-1.662,2.7,2.7,0,0,0-.944-1.168,2.415,2.415,0,0,0-1.392-.414,2.344,2.344,0,0,0-1.912.918,3.726,3.726,0,0,0-.739,2.407Z"/><path d="M228.914,129.3h-.879v-11.25h.879Z"/><path d="M234.363,129.448a3.44,3.44,0,0,1-1.827-.5,3.392,3.392,0,0,1-1.27-1.388,4.322,4.322,0,0,1-.454-2v-.315a4.659,4.659,0,0,1,.443-2.058,3.53,3.53,0,0,1,1.233-1.439,3.051,3.051,0,0,1,1.715-.524,2.86,2.86,0,0,1,2.288.986,3.991,3.991,0,0,1,.847,2.691v.491h-5.654v.168a3.317,3.317,0,0,0,.772,2.246,2.456,2.456,0,0,0,1.944.9,2.856,2.856,0,0,0,1.242-.256,2.75,2.75,0,0,0,.977-.82l.55.417A3.2,3.2,0,0,1,234.363,129.448Zm-.16-7.47a2.19,2.19,0,0,0-1.667.725,3.346,3.346,0,0,0-.823,1.948h4.753v-.095a2.909,2.909,0,0,0-.652-1.861A2.022,2.022,0,0,0,234.2,121.978Z"/><path d="M239.879,121.377l.029,1.355a3.15,3.15,0,0,1,1.113-1.117,2.889,2.889,0,0,1,1.472-.385,2.381,2.381,0,0,1,1.9.718,3.241,3.241,0,0,1,.63,2.154v5.2h-.872v-5.208a2.419,2.419,0,0,0-.451-1.582,1.765,1.765,0,0,0-1.417-.52,2.219,2.219,0,0,0-1.439.509,2.986,2.986,0,0,0-.927,1.374V129.3h-.871v-7.925Z"/><path d="M250.352,129.448a3.444,3.444,0,0,1-1.828-.5,3.4,3.4,0,0,1-1.27-1.388,4.322,4.322,0,0,1-.454-2v-.315a4.659,4.659,0,0,1,.443-2.058,3.525,3.525,0,0,1,1.234-1.439,3.046,3.046,0,0,1,1.714-.524,2.86,2.86,0,0,1,2.288.986,3.991,3.991,0,0,1,.847,2.691v.491h-5.654v.168a3.322,3.322,0,0,0,.772,2.246,2.457,2.457,0,0,0,1.945.9,2.855,2.855,0,0,0,1.241-.256,2.75,2.75,0,0,0,.977-.82l.55.417A3.2,3.2,0,0,1,250.352,129.448Zm-.161-7.47a2.191,2.191,0,0,0-1.667.725,3.346,3.346,0,0,0-.823,1.948h4.753v-.095a2.909,2.909,0,0,0-.651-1.861A2.024,2.024,0,0,0,250.191,121.978Z"/><path d="M256.915,125.31l-1,.967V129.3h-.879v-11.25h.879v7.2l.828-.893,3.032-2.981h1.106l-3.362,3.34,3.655,4.585h-1.048Z"/><path d="M5.8,22.863V18.19c0-2.85,1.616-4.54,4.313-4.54s4.312,1.69,4.312,4.54v4.673c0,2.85-1.615,4.541-4.312,4.541S5.8,25.713,5.8,22.863Zm5.832,0V18.19c0-1.253-.512-1.919-1.519-1.919s-1.52.666-1.52,1.919v4.673c0,1.254.513,1.919,1.52,1.919S11.629,24.117,11.629,22.863Z"/><path d="M17.178,13.878h2.793l1.2,6.288c.19.969.417,2.6.551,3.7h.075c.134-1.1.362-2.735.552-3.7l1.2-6.288h2.793l-3.153,13.3H20.333Z"/><path d="M36.519,24.611v2.565H29.471v-13.3H36.33v2.564H32.168V19.2H35.95v2.47H32.168v2.944ZM32.036,12.605,30.5,10h1.69l.836,1.273L33.84,10h1.692l-1.539,2.6Z"/><path d="M43.911,22.711H42.96v4.465h-2.7v-13.3H44.12c2.64,0,4.2,1.634,4.2,4.426a4.191,4.191,0,0,1-1.843,3.838l2.508,5.034H46.039Zm-.988-10.106L41.384,10h1.691l.836,1.273L44.728,10h1.69l-1.539,2.6Zm.037,7.542h1.122c.95,0,1.462-.646,1.462-1.843,0-1.216-.512-1.862-1.462-1.862H42.96Z"/><path d="M59.205,24.611v2.565H52.157v-13.3h6.858v2.564H54.854V19.2h3.781v2.47H54.854v2.944Z"/><path d="M62.948,13.878h2.66l2.526,5.775c.324.836.627,1.71.949,2.546l.058-.057a45.97,45.97,0,0,1-.38-5.187V13.878H71.42v13.3H68.761l-2.242-5.149-1.2-3.248-.058.057a54.052,54.052,0,0,1,.343,5.642v2.7h-2.66Z"/><path d="M82.726,24.611v2.565H75.678v-13.3h6.859v2.564H78.375V19.2h3.782v2.47H78.375v2.944ZM79.667,12.605H77.882L79.667,10h2.147Z"/><path d="M99.217,24.611v2.565H92.169v-13.3h6.859v2.564H94.867V19.2h3.781v2.47H94.867v2.944Z"/><path d="M114.4,13.878v13.3h-2.641V23.908c.076-1.615.133-3.229.209-4.844l-.094-.038-1.2,3.5-.665,1.8H107.35l-.665-1.8-1.2-3.5-.095.038c.057,1.615.133,3.229.19,4.844v3.268h-2.622v-13.3h2.717l2.09,5.034c.266.665.722,1.824.874,2.317h.075c.153-.493.609-1.652.874-2.317l2.09-5.034Z"/><path d="M118.656,13.878h2.7v13.3h-2.7Z"/><path d="M124.792,23.3h2.774c0,1.064.531,1.52,1.387,1.52a1.164,1.164,0,0,0,1.33-1.178c0-2.2-5.206-2.469-5.206-6.516,0-2.032,1.424-3.514,3.876-3.514a3.61,3.61,0,0,1,3.932,3.913h-2.774c0-.874-.4-1.311-1.178-1.311-.7,0-1.12.38-1.12.988,0,2.09,5.281,2.223,5.281,6.459,0,2.185-1.539,3.781-4.179,3.781A3.783,3.783,0,0,1,124.792,23.3Z"/><path d="M143.468,24.611v2.565H136.42v-13.3h6.859v2.564h-4.161V19.2H142.9v2.47h-3.781v2.944Z"/><path d="M152.532,23.11V17.943c0-2.812,1.519-4.331,4.122-4.331,2.66,0,4.141,1.519,4.236,4.331h-2.7c-.076-1.215-.532-1.71-1.558-1.71-.817,0-1.292.532-1.292,1.71V23.11c0,1.14.456,1.672,1.292,1.672,1.045,0,1.52-.494,1.6-1.672h2.7c-.056,2.793-1.595,4.294-4.293,4.294C154.051,27.4,152.532,25.9,152.532,23.11Z"/><path d="M164.008,22.863V18.19c0-2.85,1.616-4.54,4.313-4.54s4.312,1.69,4.312,4.54v4.673c0,2.85-1.615,4.541-4.312,4.541S164.008,25.713,164.008,22.863Zm5.832,0V18.19c0-1.253-.512-1.919-1.519-1.919s-1.52.666-1.52,1.919v4.673c0,1.254.513,1.919,1.52,1.919S169.84,24.117,169.84,22.863Z"/><path d="M175.586,28.572c0-2.459,2.77-3.567,2.77-4.863a.609.609,0,0,0-.609-.675c-.4,0-.643.287-.665.808h-1.418c.066-1.473.808-2.226,2.06-2.226a1.974,1.974,0,0,1,2.127,2.016c0,1.983-2.681,3.3-2.681,4.475h2.714v1.4h-4.3Z"/><path d="M193.1,24.972h-2.811l-.437,2.2h-2.793l3.191-13.3h2.888l3.192,13.3h-2.792Zm-.531-2.564-.3-1.52c-.172-.95-.4-2.565-.532-3.648h-.076c-.133,1.083-.342,2.7-.532,3.648l-.3,1.52Z"/><path d="M210.085,24.972h-2.811l-.437,2.2h-2.793l3.192-13.3h2.888l3.191,13.3h-2.792Zm-.531-2.564-.3-1.52c-.171-.95-.4-2.565-.532-3.648h-.076c-.133,1.083-.342,2.7-.532,3.648l-.3,1.52Z"/><path d="M223.1,24.611v2.565h-6.649v-13.3h2.7V24.611Z"/><path d="M225.914,22.863V18.19c0-2.85,1.615-4.54,4.312-4.54s4.313,1.69,4.313,4.54v4.673c0,2.85-1.616,4.541-4.313,4.541S225.914,25.713,225.914,22.863Zm5.832,0V18.19c0-1.253-.513-1.919-1.52-1.919s-1.519.666-1.519,1.919v4.673c0,1.254.512,1.919,1.519,1.919S231.746,24.117,231.746,22.863Z"/><path d="M241.816,22.142l-.74,1.2v3.838h-2.66v-13.3h2.66v5.091l.683-1.482,1.862-3.609H246.7l-3.382,5.813,3.951,7.485h-3.039Z"/><path d="M249.664,22.863V18.19c0-2.85,1.615-4.54,4.312-4.54s4.313,1.69,4.313,4.54v4.673c0,2.85-1.616,4.541-4.313,4.541S249.664,25.713,249.664,22.863Zm5.832,0V18.19c0-1.253-.513-1.919-1.52-1.919s-1.519.666-1.519,1.919v4.673c0,1.254.512,1.919,1.519,1.919S255.5,24.117,255.5,22.863Z"/><path d="M261.044,13.878h2.793l1.2,6.288c.189.969.417,2.6.55,3.7h.076c.133-1.1.361-2.735.551-3.7l1.2-6.288H270.2l-3.154,13.3H264.2Z"/><path d="M277.612,24.972H274.8l-.436,2.2h-2.793l3.191-13.3h2.888l3.191,13.3h-2.792Zm-.531-2.564-.3-1.52c-.172-.95-.4-2.565-.532-3.648h-.077c-.132,1.083-.341,2.7-.532,3.648l-.3,1.52Z"/><path d="M283.977,13.878h2.66l2.527,5.775c.323.836.627,1.71.949,2.546l.057-.057a45.948,45.948,0,0,1-.379-5.187V13.878h2.659v13.3h-2.659l-2.243-5.149-1.2-3.248-.058.057a54.052,54.052,0,0,1,.343,5.642v2.7h-2.66Z"/><path d="M303.755,24.611v2.565h-7.047v-13.3h6.858v2.564H299.4V19.2h3.781v2.47H299.4v2.944ZM300.7,12.605h-1.785L300.7,10h2.146Z"/><path d="M321.444,18.4c0,2.83-1.634,4.5-4.389,4.5H315.9v4.275h-2.7v-13.3h3.856C319.81,13.878,321.444,15.549,321.444,18.4Zm-2.774,0c0-1.292-.57-1.957-1.653-1.957H315.9v3.895h1.121C318.1,20.337,318.67,19.672,318.67,18.4Z"/><path d="M324.674,22.863V18.19c0-2.85,1.616-4.54,4.313-4.54s4.312,1.69,4.312,4.54v4.673c0,2.85-1.615,4.541-4.312,4.541S324.674,25.713,324.674,22.863Zm5.832,0V18.19c0-1.253-.512-1.919-1.519-1.919s-1.52.666-1.52,1.919v4.673c0,1.254.513,1.919,1.52,1.919S330.506,24.117,330.506,22.863Z"/><path d="M336.055,13.878h2.793l1.2,6.288c.19.969.417,2.6.551,3.7h.075c.134-1.1.362-2.735.552-3.7l1.2-6.288h2.793l-3.153,13.3h-2.85Z"/><path d="M347.968,22.863V18.19c0-2.85,1.615-4.54,4.313-4.54s4.312,1.69,4.312,4.54v4.673c0,2.85-1.615,4.541-4.312,4.541S347.968,25.713,347.968,22.863Zm5.832,0V18.19c0-1.253-.512-1.919-1.519-1.919s-1.52.666-1.52,1.919v4.673c0,1.254.513,1.919,1.52,1.919S353.8,24.117,353.8,22.863Z"/><path d="M367.12,24.611v2.565h-6.65v-13.3h2.7V24.611Z"/><path d="M377.36,24.611v2.565h-7.048v-13.3h6.859v2.564H373.01V19.2h3.781v2.47H373.01v2.944Z"/><path d="M381.1,13.878h2.661l2.526,5.775c.323.836.627,1.71.949,2.546l.058-.057a45.737,45.737,0,0,1-.38-5.187V13.878h2.659v13.3h-2.659l-2.242-5.149-1.2-3.248-.057.057a54.052,54.052,0,0,1,.343,5.642v2.7H381.1Z"/><path d="M397.234,22.142l-.74,1.2v3.838h-2.66v-13.3h2.66v5.091l.684-1.482,1.861-3.609h3.078l-3.382,5.813,3.952,7.485h-3.04Z"/><path d="M408.1,23.224l-3.135-9.346h2.793l1.082,3.685c.134.437.437,1.482.57,2.128h.076c.152-.646.456-1.691.608-2.185l1.045-3.628h2.793L410.8,23.224v3.952h-2.7Z"/><path d="M421.593,13.878h2.793l1.2,6.288c.189.969.417,2.6.551,3.7h.075c.134-1.1.361-2.735.552-3.7l1.2-6.288h2.793l-3.153,13.3h-2.85Z"/><path d="M438.407,27.613c1.463,0,2.28-.532,2.28-2.47V13.878h2.7V25.162c0,3-1.672,4.921-4.978,4.921Z"/><path d="M454.632,24.611v2.565h-7.048v-13.3h6.858v2.564h-4.161V19.2h3.781v2.47h-3.781v2.944Z"/><path d="M458.376,13.878h3.647c2.679,0,4.256,1.634,4.256,4.407v4.388c0,2.831-1.558,4.5-4.217,4.5h-3.686Zm3.686,10.733c.968,0,1.481-.665,1.481-1.938V18.285c0-1.216-.513-1.843-1.481-1.843h-.989v8.169Z"/><path d="M470.156,13.878h2.66l2.527,5.775c.322.836.627,1.71.949,2.546l.058-.057a45.737,45.737,0,0,1-.38-5.187V13.878h2.659v13.3H475.97l-2.242-5.149-1.2-3.248-.057.057a54.041,54.041,0,0,1,.342,5.642v2.7h-2.66Z"/><path d="M482.506,22.863V18.19c0-2.85,1.615-4.54,4.312-4.54s4.313,1.69,4.313,4.54v4.673c0,2.85-1.615,4.541-4.313,4.541S482.506,25.713,482.506,22.863Zm5.832,0V18.19c0-1.253-.513-1.919-1.52-1.919s-1.519.666-1.519,1.919v4.673c0,1.254.513,1.919,1.519,1.919S488.338,24.117,488.338,22.863Z"/><path d="M502.094,16.442h-2.6V27.176h-2.773V16.442h-2.6V13.878h7.979Z"/><path d="M511.917,24.611v2.565h-6.649v-13.3h2.7V24.611Z"/><path d="M515.109,13.878h2.7v13.3h-2.7Z"/><path d="M520.942,13.878h2.793l1.2,6.288c.189.969.417,2.6.55,3.7h.076c.133-1.1.361-2.735.551-3.7l1.2-6.288H530.1l-3.154,13.3H524.1Z"/><path d="M535.192,23.224l-3.134-9.346h2.793l1.082,3.685c.133.437.437,1.482.57,2.128h.076c.151-.646.456-1.691.608-2.185l1.044-3.628h2.793l-3.134,9.346v3.952h-2.7ZM537.016,10h2.146l-2.146,2.6H535.23Z"/><path d="M543.724,23.11V17.943c0-2.812,1.519-4.331,4.122-4.331,2.66,0,4.141,1.519,4.236,4.331h-2.7c-.076-1.215-.532-1.71-1.558-1.71-.817,0-1.292.532-1.292,1.71V23.11c0,1.14.456,1.672,1.292,1.672,1.045,0,1.52-.494,1.6-1.672h2.7c-.057,2.793-1.6,4.294-4.293,4.294C545.243,27.4,543.724,25.9,543.724,23.11Z"/><path d="M563.748,13.878v13.3h-2.717V21.762H558.3v5.414h-2.717v-13.3H558.3V19.2h2.735V13.878Z"/><path d="M580.354,24.611v2.565h-6.649v-13.3h2.7V24.611Z"/><path d="M590.6,24.611v2.565h-7.048v-13.3h6.858v2.564h-4.161V19.2h3.781v2.47h-3.781v2.944Z"/><path d="M601.425,16.442h-2.6V27.176h-2.773V16.442h-2.6V13.878h7.979Z"/><path d="M611.646,24.611v2.565H604.6v-13.3h6.858v2.564H607.3V19.2h3.781v2.47H607.3v2.944Z"/><path d="M615.011,23.11V17.943c0-2.812,1.519-4.331,4.122-4.331,2.66,0,4.141,1.519,4.236,4.331h-2.7c-.076-1.215-.532-1.71-1.558-1.71-.817,0-1.292.532-1.292,1.71V23.11c0,1.14.456,1.672,1.292,1.672,1.045,0,1.52-.494,1.6-1.672h2.7c-.056,2.793-1.6,4.294-4.293,4.294C616.53,27.4,615.011,25.9,615.011,23.11Z"/><path d="M635.035,13.878v13.3h-2.717V21.762h-2.735v5.414h-2.717v-13.3h2.717V19.2h2.735V13.878Z"/><g class="cls-10"><g id="patch_47" data-name="patch 47"><path class="cls-11" d="M50.027,389.933H95.32V175.767H50.027Z"/></g><g id="patch_48" data-name="patch 48"><path class="cls-11" d="M95.32,389.933h45.292V177.625H95.32Z"/></g><g id="patch_49" data-name="patch 49"><path class="cls-11" d="M140.612,389.933H185.9V165.77H140.612Z"/></g><g id="patch_50" data-name="patch 50"><path class="cls-11" d="M185.9,389.933H231.2V183.766H185.9Z"/></g><g id="patch_51" data-name="patch 51"><path class="cls-11" d="M231.2,389.933h45.292V179.811H231.2Z"/></g><g id="patch_52" data-name="patch 52"><path class="cls-11" d="M276.488,389.933h45.293V176.6H276.488Z"/></g><g id="patch_53" data-name="patch 53"><path class="cls-11" d="M321.781,389.933h45.292V174.5H321.781Z"/></g><g id="patch_54" data-name="patch 54"><path class="cls-11" d="M367.073,389.933h45.292V160.363H367.073Z"/></g><g id="patch_55" data-name="patch 55"><path class="cls-11" d="M412.365,389.933h45.292V169.074H412.365Z"/></g><g id="patch_56" data-name="patch 56"><path class="cls-11" d="M457.657,389.933H502.95V226.015H457.657Z"/></g><g id="patch_57" data-name="patch 57"><path class="cls-11" d="M502.95,389.933h45.292V230H502.95Z"/></g><g id="patch_58" data-name="patch 58"><path class="cls-11" d="M548.242,389.933h45.292V227.23H548.242Z"/></g><g id="patch_59" data-name="patch 59"><path class="cls-11" d="M593.534,389.933h45.292V207.851H593.534Z"/></g><g id="patch_60" data-name="patch 60"><path class="cls-11" d="M638.826,389.933h45.292V215.538H638.826Z"/></g><g id="patch_61" data-name="patch 61"><path class="cls-11" d="M684.118,389.933h45.293V252H684.118Z"/></g></g></svg>