<svg id="Layer_1" data-name="Layer 1" xmlns="http://www.w3.org/2000/svg" viewBox="0 0 740 346.18"><defs><style>.cls-1{fill:#fff;}.cls-2,.cls-5{fill:#2e3d99;}.cls-3,.cls-4{fill:#ff4d4f;}.cls-4,.cls-5{opacity:0.8;}.cls-6{fill:#f2f2f2;}.cls-7{fill:#666;}.cls-8{fill:none;stroke:#b3b3b3;stroke-miterlimit:10;}.cls-9{fill:#b3b3b3;}.cls-10{fill:gray;}.cls-11{opacity:0.6;}</style></defs><rect class="cls-1" width="740" height="346.18"/><path d="M504.85,272l-1.36,0v3.52h-1v-10H505c2.64,0,3.9,1.28,3.9,3.12C508.88,270.86,507.33,272,504.85,272Zm.1-5.52h-1.46v4.59l1.42,0c1.89,0,2.92-.78,2.92-2.34S506.82,266.49,505,266.49Z"/><path d="M513.17,267.34h-1.12l-1.81-2.91H511l1.6,2.17h0l1.62-2.17H515Zm-1.54,8.21h-1v-7.33l1-.21v1.57a2.45,2.45,0,0,1,2.16-1.57,2.67,2.67,0,0,1,1.28.34l-.25.93a2.12,2.12,0,0,0-1.12-.32c-.77,0-1.49.57-2.07,1.88Z"/><path d="M516.85,266.54a.67.67,0,0,1-.67-.74.67.67,0,1,1,1.34,0A.67.67,0,0,1,516.85,266.54Zm-.5,9v-7.33l1-.21v7.54Z"/><path d="M526.45,268.06c2,0,3.28,1.57,3.28,3.79a3.63,3.63,0,0,1-3.62,3.91,4.63,4.63,0,0,1-1.79-.39v3.91h-1V268.19l1-.21v1A3.13,3.13,0,0,1,526.45,268.06Zm-2.13,6.23a3.1,3.1,0,0,0,1.84.57c1.57,0,2.55-1.26,2.55-3s-.93-2.9-2.42-2.9a3,3,0,0,0-2,.82Z"/><path d="M532.56,275.55h-1v-7.33l1-.21v1.57a2.45,2.45,0,0,1,2.16-1.57,2.67,2.67,0,0,1,1.28.34l-.25.93a2.12,2.12,0,0,0-1.12-.32c-.77,0-1.49.57-2.07,1.88Z"/><path d="M540.16,275.76a3.54,3.54,0,0,1-3.54-3.86,3.62,3.62,0,0,1,3.62-3.89c2,0,3.52,1.51,3.52,3.86A3.61,3.61,0,0,1,540.16,275.76Zm0-6.85c-1.55,0-2.57,1.23-2.57,3s1,3,2.59,3a2.66,2.66,0,0,0,2.58-3C542.79,270.11,541.75,268.91,540.19,268.91Z"/><path d="M550.53,264.76l1-.21v11h-1v-.69a3.16,3.16,0,0,1-2.13.9c-2,0-3.28-1.59-3.28-3.81a3.63,3.63,0,0,1,3.63-3.89,4.35,4.35,0,0,1,1.78.4Zm-1.82,4.2c-1.57,0-2.57,1.24-2.57,3s1,2.92,2.44,2.92a2.89,2.89,0,0,0,1.95-.82v-4.51A3,3,0,0,0,548.71,269Z"/><path d="M554.75,268.22V273c0,1.28.51,1.85,1.59,1.85a3.26,3.26,0,0,0,2.26-1v-5.55h1v7.33l-1,.21v-1.19a3.74,3.74,0,0,1-2.53,1.19,2.21,2.21,0,0,1-2.31-2.51v-5Z"/><path d="M562.88,271.9v3.65h-1V264.76l1-.21v7.05h0l3.3-3.38h1.25l-3.52,3.49,3.53,3.84h-1.26l-3.3-3.65Z"/><path d="M571.78,275.76c-2.21,0-3.59-1.59-3.59-3.86a3.61,3.61,0,0,1,3.6-3.89,4.16,4.16,0,0,1,2.29.62l-.25.9a3.71,3.71,0,0,0-2-.59c-1.58,0-2.57,1.18-2.57,2.93s1,3,2.59,3a3.76,3.76,0,0,0,2-.61l.21.91A4.31,4.31,0,0,1,571.78,275.76Z"/><path d="M575.94,275.55V268.3l1-.21v7.46Zm.76-8.29H576l1.89-2.87h1.28Z"/><path class="cls-2" d="M584.24,269.79l-1.86.51,0-1.62,3.77-1v7.86h-1.87Z"/><path class="cls-2" d="M589.17,273.21A1.71,1.71,0,0,1,590.8,275c0,1.4-1.25,2.42-2.53,3.19l-.83-.75c1-.71,1.62-1.32,1.62-1.86s-.31-.7-1.3-1.14A1.34,1.34,0,0,1,589.17,273.21Z"/><path class="cls-2" d="M595.41,275.79a4,4,0,1,1,4-4.05A3.8,3.8,0,0,1,595.41,275.79Zm0-6.53c-1.25,0-2.1,1-2.1,2.5a2.13,2.13,0,1,0,4.21,0C597.54,270.25,596.69,269.26,595.43,269.26Z"/><path class="cls-2" d="M606.58,272v3.55h-1.89V264.86l1.89-.26v6.85h0l2.64-3.28h2.26l-3.06,3.51,3.07,3.87h-2.25L606.61,272Z"/><path class="cls-2" d="M612,274.57a1.78,1.78,0,0,1,1.37-1.55,2.49,2.49,0,0,1-1.35-2.27c0-1.52,1.2-2.82,3.25-2.82a5.34,5.34,0,0,1,2.08.46l2-.17.08,1.65-1.41-.24a2.11,2.11,0,0,1,.33,1.15,2.83,2.83,0,0,1-3.09,2.69,3.67,3.67,0,0,1-1-.13c-.26.1-.58.34-.58.64s.34.58,1.52.58H616c2.11,0,3.31.59,3.31,2,0,1.74-2,3-4.3,3-2,0-3.51-.72-3.51-2.05,0-.77.56-1.46,1.67-1.64A1.46,1.46,0,0,1,612,274.57Zm1.17,2.53c0,.69.85,1.17,2.1,1.17s2.29-.48,2.29-1.25-.67-.85-2.05-.85c-.46,0-1.1,0-1.41-.06C613.58,276.3,613.18,276.65,613.18,277.1Zm2.12-4.86c.84,0,1.33-.61,1.33-1.54a1.33,1.33,0,0,0-1.41-1.49,1.37,1.37,0,0,0-1.36,1.55A1.36,1.36,0,0,0,615.3,272.24Z"/><path class="cls-2" d="M627.51,275.79a3.56,3.56,0,0,1-3.83-3.91,3.7,3.7,0,0,1,3.89-3.95,5,5,0,0,1,2.54.62l-.4,1.53a3.71,3.71,0,0,0-2-.6c-1.36,0-2.09.93-2.09,2.36a2.09,2.09,0,0,0,2.09,2.38,3.84,3.84,0,0,0,2-.57l.31,1.53A5.07,5.07,0,0,1,627.51,275.79Z"/><path class="cls-2" d="M633,272.27a2.05,2.05,0,0,0,2.2,2,4.51,4.51,0,0,0,2.31-.68l.24,1.57a5.69,5.69,0,0,1-2.67.61,3.66,3.66,0,0,1-3.94-3.86,3.73,3.73,0,0,1,3.81-4,2.78,2.78,0,0,1,3,3,4.78,4.78,0,0,1-.16,1.24l-4.83.06Zm3.21-1.17V271c0-1-.43-1.61-1.4-1.61a1.82,1.82,0,0,0-1.77,1.76Z"/><path class="cls-2" d="M648.8,275.55v-4.48c0-1.09-.43-1.47-1.21-1.47a2.35,2.35,0,0,0-1.54.65v5.3h-1.89v-4.48c0-1.09-.41-1.47-1.2-1.47a2.19,2.19,0,0,0-1.53.6v5.35h-1.89V268.2l1.89-.25v1a3.2,3.2,0,0,1,2.35-1.06,2.08,2.08,0,0,1,2,1.27,3.51,3.51,0,0,1,2.63-1.27c1.39,0,2.27,1,2.27,2.56v5.06Z"/><path class="cls-2" d="M654.06,272.27a2.06,2.06,0,0,0,2.21,2,4.51,4.51,0,0,0,2.31-.68l.24,1.57a5.73,5.73,0,0,1-2.68.61,3.66,3.66,0,0,1-3.93-3.86,3.73,3.73,0,0,1,3.81-4,2.78,2.78,0,0,1,3,3,5.25,5.25,0,0,1-.16,1.24l-4.84.06Zm3.22-1.17V271c0-1-.43-1.61-1.41-1.61a1.82,1.82,0,0,0-1.76,1.76Z"/><path class="cls-2" d="M665.43,275.55v-4.5c0-1.09-.44-1.45-1.29-1.45a2.49,2.49,0,0,0-1.63.68v5.27h-1.89V268.2l1.89-.25v1.17a3.36,3.36,0,0,1,2.43-1.19,2.26,2.26,0,0,1,2.37,2.55v5.07Z"/><path class="cls-2" d="M671.89,275.79c-1.65,0-2.51-.72-2.45-2.5l.11-3.47-1.15-.13.05-1.2,1.15-.37,0-1.63h1.83l0,1.73h2.09l0,1.55h-2.15l-.09,3.41a.86.86,0,0,0,1,1,3.68,3.68,0,0,0,1.16-.23l.25,1.54A5,5,0,0,1,671.89,275.79Z"/><path class="cls-2" d="M676.83,268.17v4.5c0,1.09.45,1.44,1.25,1.44a2.47,2.47,0,0,0,1.62-.64v-5.3h1.89v7.33l-1.89.26v-1.09a3.38,3.38,0,0,1-2.44,1.12,2.25,2.25,0,0,1-2.32-2.54v-5.08Z"/><path d="M505,294.77h-.9l-2.9-7.35h1.07l2.33,6.05,2.24-6.05h1Z"/><path d="M508.3,294.75V294l4.38-5.67h-4.23v-.88h5.41v.77l-4.37,5.68h4.37v.88Z"/><path d="M520.23,294.75V290c0-1.28-.51-1.85-1.62-1.85a3.26,3.26,0,0,0-2.22,1v5.55h-1v-7.33l1-.21v1.2a3.75,3.75,0,0,1,2.49-1.2,2.22,2.22,0,0,1,2.34,2.51v5Z"/><path d="M524,285.74a.68.68,0,0,1-.68-.74.68.68,0,1,1,1.35,0A.68.68,0,0,1,524,285.74Zm-.5,9v-7.33l1-.21v7.54Z"/><path d="M527.81,291.1v3.65h-1V284l1-.21v7.05h0l3.3-3.38h1.25l-3.52,3.49,3.53,3.84h-1.26l-3.3-3.65Z"/><path d="M537.6,293.87a2.83,2.83,0,0,1-2.14,1.09,2.12,2.12,0,0,1-2.32-2c0-1.32,1-2.41,4.45-2.6v-.44a1.52,1.52,0,0,0-1.73-1.74,4.5,4.5,0,0,0-2.4.88l-.23-.93a5.23,5.23,0,0,1,2.72-.88c1.7,0,2.65.77,2.63,2.63v3.52c0,.53.1.75.74.73l-.07.82c-1,.06-1.49-.32-1.6-1Zm0-2.88c-2.52.29-3.41.85-3.41,1.82a1.33,1.33,0,0,0,1.5,1.28,2.58,2.58,0,0,0,1.91-1Zm-1.65-4.53h-.74l1.89-2.87h1.28Z"/><path class="cls-3" d="M545.79,289l-1.85.51-.05-1.62,3.78-1v7.86h-1.88Z"/><path class="cls-3" d="M550.72,292.41a1.7,1.7,0,0,1,1.63,1.76c0,1.4-1.25,2.42-2.53,3.19l-.83-.75c1-.71,1.62-1.32,1.62-1.86s-.31-.7-1.3-1.14A1.35,1.35,0,0,1,550.72,292.41Z"/><path class="cls-3" d="M557,295a4,4,0,1,1,4-4.05A3.81,3.81,0,0,1,557,295Zm0-6.53c-1.25,0-2.1,1-2.1,2.5a2.13,2.13,0,1,0,4.21,0C559.09,289.45,558.24,288.46,557,288.46Z"/><path class="cls-3" d="M562,291.64l.05-1.42H569l.05,1.42Z"/><path class="cls-3" d="M571.9,289l-1.85.51,0-1.62,3.78-1v7.86H571.9Z"/><path class="cls-3" d="M576.83,292.41a1.71,1.71,0,0,1,1.64,1.76c0,1.4-1.25,2.42-2.53,3.19l-.84-.75c1-.71,1.62-1.32,1.62-1.86s-.3-.7-1.29-1.14A1.33,1.33,0,0,1,576.83,292.41Z"/><path class="cls-3" d="M579.6,294.75v-1.42c2.37-1.64,4.08-2.65,4.08-3.7,0-.64-.49-1.09-1.38-1.09a4.11,4.11,0,0,0-2.28.88L579.5,288a5.41,5.41,0,0,1,3.17-1c1.84,0,3,1,3,2.41s-1.34,2.52-3.42,3.81H586l0,1.62Z"/><path class="cls-3" d="M593.09,291.2v3.55H591.2V284.06l1.89-.26v6.85h0l2.64-3.28H598L595,290.88l3.08,3.87h-2.26l-2.66-3.55Z"/><path class="cls-3" d="M598.53,293.77a1.77,1.77,0,0,1,1.36-1.55,2.49,2.49,0,0,1-1.35-2.27c0-1.52,1.2-2.82,3.25-2.82a5.29,5.29,0,0,1,2.08.46l2-.17.08,1.65-1.41-.24a2.11,2.11,0,0,1,.34,1.15,2.83,2.83,0,0,1-3.09,2.69,3.73,3.73,0,0,1-1-.13c-.26.1-.58.34-.58.64s.34.58,1.52.58h.77c2.12,0,3.32.59,3.32,2,0,1.75-2,2.95-4.31,2.95-2,0-3.51-.72-3.51-2.05,0-.77.56-1.46,1.67-1.64A1.45,1.45,0,0,1,598.53,293.77Zm1.17,2.53c0,.69.85,1.17,2.09,1.17s2.29-.48,2.29-1.25-.67-.85-2.05-.85c-.46,0-1.1,0-1.4-.06C600.1,295.5,599.7,295.85,599.7,296.3Zm2.11-4.86c.85,0,1.33-.61,1.33-1.54a1.33,1.33,0,0,0-1.41-1.49,1.38,1.38,0,0,0-1.36,1.55A1.36,1.36,0,0,0,601.81,291.44Z"/><path class="cls-3" d="M612.05,291.47a2.06,2.06,0,0,0,2.21,2,4.5,4.5,0,0,0,2.3-.68l.24,1.57a5.69,5.69,0,0,1-2.67.61,3.66,3.66,0,0,1-3.94-3.86,3.73,3.73,0,0,1,3.81-4,2.78,2.78,0,0,1,3,3,4.78,4.78,0,0,1-.16,1.24l-4.83.06Zm3.22-1.17v-.13c0-1-.44-1.61-1.41-1.61a1.81,1.81,0,0,0-1.76,1.76Z"/><path class="cls-3" d="M627.88,294.75v-4.48c0-1.09-.44-1.47-1.22-1.47a2.35,2.35,0,0,0-1.54.65v5.3h-1.89v-4.48c0-1.09-.41-1.47-1.2-1.47a2.19,2.19,0,0,0-1.53.6v5.35h-1.89V287.4l1.89-.25v1a3.2,3.2,0,0,1,2.35-1.06,2.1,2.1,0,0,1,2,1.27,3.48,3.48,0,0,1,2.62-1.27c1.39,0,2.27,1,2.27,2.56v5.06Z"/><path class="cls-3" d="M632.66,286a1.14,1.14,0,1,1,1.16-1.14A1.06,1.06,0,0,1,632.66,286Zm-.95,8.72v-7.33l1.89-.27v7.6Z"/><path class="cls-3" d="M637.9,295a6.49,6.49,0,0,1-2.86-.69l.42-1.47a5.41,5.41,0,0,0,2.49.68c.74,0,1.22-.3,1.22-.81s-.62-.79-1.49-1c-1.39-.32-2.5-.89-2.5-2.28s1.17-2.31,3-2.31a6.56,6.56,0,0,1,2.69.59l-.42,1.48a5.65,5.65,0,0,0-2.32-.61c-.69,0-1.1.25-1.1.73s.62.76,1.49,1c1.4.34,2.51.89,2.51,2.33S639.79,295,637.9,295Z"/><path class="cls-3" d="M642.56,294.75v-7.3l1.89-.21v7.51Zm1.39-8.37H642.7l1.64-2.93h2.13Z"/><path class="cls-3" d="M657.57,287a4.62,4.62,0,0,0-2.62-.8c-2,0-3.25,1.34-3.25,3.52s1.26,3.6,3.28,3.6a4.89,4.89,0,0,0,2.73-.9l.37,1.8a6.65,6.65,0,0,1-3.18.78,4.84,4.84,0,0,1-5.17-5.22,4.93,4.93,0,0,1,5.22-5.26,7,7,0,0,1,3.23.78Z"/><path class="cls-3" d="M664.35,295a4.87,4.87,0,0,1-5.13-5.22,5,5,0,0,1,5.15-5.26,4.86,4.86,0,0,1,5.12,5.2A5,5,0,0,1,664.35,295Zm0-8.85c-1.9,0-3.14,1.44-3.14,3.57s1.25,3.65,3.21,3.65,3.15-1.46,3.15-3.59S666.27,286.14,664.32,286.14Z"/><path class="cls-3" d="M670.57,298.08v-.83c1.38-.95,2.38-1.54,2.38-2.16,0-.37-.29-.63-.81-.63a2.47,2.47,0,0,0-1.33.51l-.3-.85a3.13,3.13,0,0,1,1.85-.61c1.07,0,1.75.57,1.75,1.41s-.78,1.46-2,2.22h2.2v.94Z"/><path class="cls-3" d="M676.12,295a.82.82,0,0,1-.8-.83.8.8,0,0,1,1.6,0A.81.81,0,0,1,676.12,295Z"/><rect class="cls-4" x="497.78" y="130.43" width="75" height="50" rx="4"/><rect class="cls-5" x="497.78" y="40.45" width="150" height="50" rx="4"/><circle class="cls-6" cx="384.76" cy="65.45" r="45.45"/><path d="M195.58,72.32h-2L189,59.82h1.74l3.88,10.68,3.88-10.68h1.76Z"/><path d="M210.94,72.32H209.2L208,69H202.6l-1.18,3.28h-1.76l4.7-12.5h1.94Zm-5.62-10.74-2.16,5.92h4.3Zm.5-3h-1.2L206.74,55h2Z"/><path d="M216,68.16l-1.64,0v4.14h-1.7V59.82h3.46c3.42,0,5,1.7,5,4C221,66.68,219.08,68.12,216,68.16Zm0-6.76h-1.68v5.18l1.82,0c2.1,0,3.18-1,3.18-2.6S218.22,61.4,216,61.4Z"/><path d="M223.36,72.32V59.82h7.92V61.4h-6.22v3.86h5.18v1.58h-5.18v3.9h6.22v1.58Z"/><path d="M242.36,59.82H244V72.44h-1.84l-6.7-10.2V72.32h-1.66V59.82h1.88l6.66,10.08Z"/><path d="M247.18,72.32V59.82h7.92V61.4h-6.22v3.86h5.18v1.58h-5.18v3.9h6.22v1.58Z"/><path d="M266.56,62.1A5.86,5.86,0,0,0,263.14,61c-2.72,0-4.54,1.88-4.54,5s1.84,5.08,4.58,5.08a6,6,0,0,0,3.54-1.22l.28,1.7a7.56,7.56,0,0,1-3.86,1c-3.66,0-6.26-2.54-6.26-6.52s2.62-6.59,6.26-6.59a8,8,0,0,1,4,1Z"/><path class="cls-1" d="M505.39,62.63V61.37l4.79-5.63h-4.62V54.39H512v1.22l-4.79,5.67H512v1.35Z"/><path class="cls-1" d="M517.89,61.75a3,3,0,0,1-2.27,1.16A2.43,2.43,0,0,1,513,60.55c0-1.48,1.06-2.78,4.92-3v-.23c0-1.33-.53-1.87-1.86-1.87a5.11,5.11,0,0,0-2.66.92l-.29-1.34a5.8,5.8,0,0,1,3.09-1c2.24,0,3.23,1,3.19,3.2v3.46c0,.68.09.81.81.81l-.09,1.24c-1.33.11-1.92-.36-2.14-1.08Zm0-3.22c-2.45.32-3.35.83-3.35,1.84A1.29,1.29,0,0,0,516,61.64a2.61,2.61,0,0,0,1.9-.88Zm-1.43-5.26H515.4L517.31,50h1.8Z"/><path class="cls-1" d="M523.27,58.57v4.06h-1.48V50.5l1.48-.24v7.91h0l3.41-3.78h1.87L524.8,58.3l3.8,4.33h-1.89l-3.41-4.06Z"/><path class="cls-1" d="M530,62.63V50.5l1.48-.24V62.63Z"/><path class="cls-1" d="M538.24,61.75A2.93,2.93,0,0,1,536,62.91a2.43,2.43,0,0,1-2.63-2.36c0-1.48,1.06-2.78,4.91-3v-.23c0-1.33-.52-1.87-1.85-1.87a5.17,5.17,0,0,0-2.67.92l-.29-1.34a5.86,5.86,0,0,1,3.1-1c2.23,0,3.22,1,3.19,3.2v3.46c0,.68.09.81.81.81l-.09,1.24c-1.33.11-1.93-.36-2.14-1.08Zm0-3.22c-2.45.32-3.35.83-3.35,1.84a1.3,1.3,0,0,0,1.46,1.27,2.59,2.59,0,0,0,1.89-.88Z"/><path class="cls-1" d="M547.59,50.5l1.47-.24V62.63h-1.47v-.75a3.32,3.32,0,0,1-2.31,1c-2.32,0-3.67-1.88-3.67-4.36a4.19,4.19,0,0,1,4.19-4.43,6.51,6.51,0,0,1,1.79.27Zm-1.84,5c-1.67,0-2.61,1.37-2.61,3.06s.92,3,2.45,3a3,3,0,0,0,2-.8V56A2.9,2.9,0,0,0,545.75,55.45Z"/><path class="cls-1" d="M557,62.63V57.45c0-1.42-.53-1.91-1.71-1.91a3.32,3.32,0,0,0-2.16.9v6.19h-1.47V54.35l1.47-.23v1.24a3.92,3.92,0,0,1,2.69-1.24A2.53,2.53,0,0,1,558.44,57v5.67Z"/><path class="cls-1" d="M561,62.63V54.51l1.47-.23v8.35Zm1.15-9.36h-1.08L563,50h1.8Z"/><path class="cls-1" d="M571.22,62.92a5.8,5.8,0,0,1-2.88-.77l.38-1.35a4.8,4.8,0,0,0,2.54.77c.93,0,1.63-.43,1.63-1.17s-1-1.1-1.94-1.37c-1.17-.32-2.45-.9-2.45-2.41s1.3-2.5,3-2.5a6.1,6.1,0,0,1,2.67.61l-.38,1.35a5.41,5.41,0,0,0-2.36-.61c-.88,0-1.46.36-1.46,1s.88,1.06,1.91,1.33c1.21.32,2.5.9,2.5,2.46S573,62.92,571.22,62.92Z"/><path class="cls-1" d="M576.28,62.63V50.5l1.47-.24V62.63Z"/><path class="cls-1" d="M583.75,62.91c-2.34,0-4-1.73-4-4.4s1.69-4.41,4.07-4.41,4,1.75,4,4.41S586.07,62.91,583.75,62.91Zm0-7.48c-1.63,0-2.53,1.28-2.53,3.06s.95,3.08,2.57,3.08,2.54-1.26,2.54-3S585.39,55.43,583.76,55.43Z"/><path class="cls-1" d="M588.82,62.63V61.37l4.79-5.63H589V54.39h6.41v1.22l-4.79,5.67h4.79v1.35Zm4-9.36h-1.58l-2.07-3.37h1.08L592,52.19h0l1.78-2.29h1.08Z"/><path class="cls-1" d="M598.58,58.57v4.06H597.1V50.5l1.48-.24v7.91h0L602,54.39h1.87l-3.78,3.91,3.8,4.33H602l-3.41-4.06Z"/><path class="cls-1" d="M609.52,61.75a2.93,2.93,0,0,1-2.26,1.16,2.43,2.43,0,0,1-2.63-2.36c0-1.48,1.06-2.78,4.91-3v-.23c0-1.33-.52-1.87-1.85-1.87a5.17,5.17,0,0,0-2.67.92l-.29-1.34a5.84,5.84,0,0,1,3.1-1c2.23,0,3.22,1,3.19,3.2v3.46c0,.68.09.81.81.81l-.09,1.24c-1.33.11-1.93-.36-2.14-1.08Zm0-3.22c-2.45.32-3.35.83-3.35,1.84a1.3,1.3,0,0,0,1.46,1.27,2.59,2.59,0,0,0,1.89-.88Z"/><path class="cls-1" d="M514.56,71.43a5.33,5.33,0,0,0-3.08-1c-2.45,0-4.09,1.69-4.09,4.48s1.66,4.58,4.12,4.58a5.44,5.44,0,0,0,3.19-1.1L515,80a6.82,6.82,0,0,1-3.47.94c-3.3,0-5.64-2.29-5.64-5.87s2.36-5.93,5.64-5.93a7,7,0,0,1,3.56.94Z"/><path class="cls-1" d="M517.26,80.63V69.38h7.13V70.8h-5.6v3.48h4.66V75.7h-4.66v3.51h5.6v1.42Z"/><path class="cls-1" d="M536.37,71.27,533,80.47h-1.53L528,71.25l-.12,9.38h-1.5l.38-11.25h2l3.45,9.26,3.44-9.26h2L538,80.63h-1.55Z"/><path class="cls-1" d="M540.57,80.63V69.38h7.13V70.8h-5.6v3.48h4.66V75.7H542.1v3.51h5.6v1.42Z"/><path class="cls-1" d="M557.67,69.38h1.49V80.74h-1.65l-6-9.18v9.07H550V69.38h1.69l6,9.08Z"/><path class="cls-1" d="M566.38,70.82v9.81h-1.51V70.82h-4V69.38h9.4v1.44Z"/><path class="cls-1" d="M576.46,80.91c-2.83,0-4.39-1.75-4.39-4.45V69.38h1.51v6.84c0,2,1,3.24,3,3.24,1.75,0,2.83-1,2.83-3.13v-7h1.51V76.3C580.89,79.14,579.41,80.91,576.46,80.91Z"/><path class="cls-7" d="M358.36,63.54c-2.32,0-3.6-1.59-3.6-3.91a3.64,3.64,0,0,1,3.7-3.91,4.26,4.26,0,0,1,2.36.63l-.33,1.2a3.51,3.51,0,0,0-2-.61c-1.51,0-2.34,1-2.34,2.67s.93,2.71,2.3,2.71a3.84,3.84,0,0,0,2.12-.61l.24,1.22A4.65,4.65,0,0,1,358.36,63.54Z"/><path class="cls-7" d="M367.29,63.29V58.68c0-1.26-.48-1.69-1.44-1.69a3,3,0,0,0-2,.8v5.5h-1.32V52.51l1.32-.21v4.5a3.44,3.44,0,0,1,2.46-1.08,2.24,2.24,0,0,1,2.29,2.53v5Z"/><path class="cls-7" d="M371.65,59.85a2.38,2.38,0,0,0,2.42,2.47,4.05,4.05,0,0,0,2.19-.61l.25,1.22a4.84,4.84,0,0,1-2.47.61,3.6,3.6,0,0,1-3.71-3.83,3.68,3.68,0,0,1,3.61-4,2.61,2.61,0,0,1,2.8,2.87,4.67,4.67,0,0,1-.15,1.17l-4.94,0Zm3.83-1.05v-.12c0-1.08-.51-1.8-1.66-1.8a2.12,2.12,0,0,0-2.1,1.95Z"/><path class="cls-7" d="M387.64,63.29V58.72c0-1.28-.46-1.75-1.41-1.75a2.68,2.68,0,0,0-1.85.83v5.49h-1.32V58.72c0-1.28-.46-1.75-1.4-1.75a2.66,2.66,0,0,0-1.86.75v5.57h-1.31V55.93l1.31-.21v1a3.3,3.3,0,0,1,2.35-1,2,2,0,0,1,1.92,1.22,3.71,3.71,0,0,1,2.66-1.22c1.34,0,2.22,1,2.22,2.57v5Z"/><path class="cls-7" d="M391.81,54.35a.95.95,0,1,1,.87-1A.85.85,0,0,1,391.81,54.35Zm-.65,8.94V55.93l1.31-.21v7.57Z"/><path class="cls-7" d="M397.86,63.54c-2.32,0-3.6-1.59-3.6-3.91a3.64,3.64,0,0,1,3.7-3.91,4.3,4.3,0,0,1,2.37.63l-.34,1.2a3.49,3.49,0,0,0-2-.61c-1.51,0-2.34,1-2.34,2.67s.93,2.71,2.31,2.71a3.78,3.78,0,0,0,2.11-.61l.24,1.22A4.65,4.65,0,0,1,397.86,63.54Z"/><path class="cls-7" d="M403.35,59.68v3.61H402V52.51l1.31-.21v7h0l3-3.37h1.66l-3.36,3.48,3.38,3.85h-1.68l-3-3.61Z"/><path class="cls-7" d="M413.08,62.51a2.6,2.6,0,0,1-2,1,2.16,2.16,0,0,1-2.33-2.1c0-1.31.94-2.47,4.37-2.63v-.2c0-1.19-.47-1.67-1.65-1.67a4.57,4.57,0,0,0-2.37.82l-.26-1.19a5.12,5.12,0,0,1,2.75-.85c2,0,2.87.85,2.84,2.85v3.08c0,.6.08.72.72.72l-.08,1.1c-1.19.1-1.71-.32-1.91-1Zm0-2.86c-2.18.28-3,.73-3,1.63a1.16,1.16,0,0,0,1.29,1.14,2.34,2.34,0,0,0,1.69-.79ZM411.83,55h-1l1.7-2.9h1.6Z"/><path class="cls-7" d="M365.78,80.29h-1.32V72.93l1.32-.21V74a2.31,2.31,0,0,1,2-1.3,2.64,2.64,0,0,1,1.38.37l-.34,1.23A2.24,2.24,0,0,0,367.7,74c-.71,0-1.38.51-1.92,1.52Z"/><path class="cls-7" d="M371.25,76.85a2.38,2.38,0,0,0,2.41,2.47,4.11,4.11,0,0,0,2.2-.61l.24,1.22a4.84,4.84,0,0,1-2.47.61,3.6,3.6,0,0,1-3.71-3.83,3.69,3.69,0,0,1,3.62-4,2.62,2.62,0,0,1,2.8,2.87,4.66,4.66,0,0,1-.16,1.17l-4.93,0Zm3.82-1v-.12c0-1.08-.51-1.8-1.66-1.8a2.12,2.12,0,0,0-2.1,2Z"/><path class="cls-7" d="M381.82,79.51a2.6,2.6,0,0,1-2,1,2.16,2.16,0,0,1-2.34-2.1c0-1.31.95-2.47,4.37-2.63v-.2c0-1.19-.46-1.67-1.65-1.67a4.6,4.6,0,0,0-2.37.82l-.25-1.19a5.12,5.12,0,0,1,2.75-.85c2,0,2.86.85,2.83,2.85v3.08c0,.6.08.72.72.72l-.08,1.1c-1.18.1-1.71-.32-1.9-1Zm0-2.86c-2.18.28-3,.73-3,1.63a1.17,1.17,0,0,0,1.3,1.14,2.33,2.33,0,0,0,1.68-.79Z"/><path class="cls-7" d="M386.61,76.68v3.61h-1.32V69.51l1.32-.21v7h0l3-3.37h1.67L388,76.44l3.38,3.85h-1.69l-3-3.61Z"/><path class="cls-7" d="M395.55,80.54c-2.32,0-3.6-1.59-3.6-3.91a3.64,3.64,0,0,1,3.7-3.91,4.32,4.32,0,0,1,2.37.63l-.34,1.2a3.51,3.51,0,0,0-2-.61c-1.51,0-2.34,1-2.34,2.67s.93,2.71,2.31,2.71a3.81,3.81,0,0,0,2.11-.61l.24,1.22A4.65,4.65,0,0,1,395.55,80.54Z"/><path class="cls-7" d="M400.49,76.85a2.38,2.38,0,0,0,2.42,2.47,4.05,4.05,0,0,0,2.19-.61l.25,1.22a4.84,4.84,0,0,1-2.47.61,3.6,3.6,0,0,1-3.71-3.83,3.68,3.68,0,0,1,3.61-4,2.61,2.61,0,0,1,2.8,2.87,4.67,4.67,0,0,1-.15,1.17l-4.94,0Zm3.83-1v-.12c0-1.08-.51-1.8-1.66-1.8a2.12,2.12,0,0,0-2.1,2Z"/><circle class="cls-6" cx="222.64" cy="268.78" r="45.45"/><path class="cls-7" d="M195.63,273.08a5.12,5.12,0,0,1-2.56-.69l.34-1.2a4.23,4.23,0,0,0,2.25.69c.84,0,1.46-.38,1.46-1s-.86-1-1.73-1.22c-1-.29-2.18-.8-2.18-2.14a2.36,2.36,0,0,1,2.63-2.23,5.37,5.37,0,0,1,2.37.55l-.34,1.2a4.83,4.83,0,0,0-2.09-.55c-.79,0-1.3.32-1.3.92s.78.94,1.7,1.18,2.22.8,2.22,2.19A2.48,2.48,0,0,1,195.63,273.08Z"/><path class="cls-7" d="M203.49,265.25c2.06,0,3.26,1.67,3.26,3.88a3.72,3.72,0,0,1-3.73,3.93,6.75,6.75,0,0,1-1.58-.19v3.68h-1.31V265.46l1.31-.21v.91A3,3,0,0,1,203.49,265.25Zm-2.05,6.1a2.53,2.53,0,0,0,1.63.53c1.49,0,2.32-1.22,2.32-2.72s-.81-2.69-2.17-2.69a2.68,2.68,0,0,0-1.78.7Z"/><path class="cls-7" d="M212.29,272a2.61,2.61,0,0,1-2,1,2.16,2.16,0,0,1-2.34-2.09c0-1.32.95-2.47,4.37-2.63v-.21c0-1.18-.46-1.66-1.64-1.66a4.54,4.54,0,0,0-2.37.82L208,266.1a5.12,5.12,0,0,1,2.75-.85c2,0,2.87.85,2.84,2.85v3.07c0,.61.08.72.72.72l-.08,1.11c-1.19.1-1.72-.32-1.91-1Zm0-2.87c-2.17.29-3,.74-3,1.64a1.15,1.15,0,0,0,1.29,1.13,2.29,2.29,0,0,0,1.68-.78Z"/><path class="cls-7" d="M215.76,272.82V262l1.31-.2v11Z"/><path class="cls-7" d="M222.4,273.06c-2.08,0-3.54-1.53-3.54-3.9a3.6,3.6,0,0,1,3.62-3.92c2.1,0,3.52,1.55,3.52,3.92A3.6,3.6,0,0,1,222.4,273.06Zm0-6.64c-1.46,0-2.26,1.14-2.26,2.72s.85,2.74,2.29,2.74,2.25-1.12,2.25-2.71S223.86,266.42,222.42,266.42Z"/><path class="cls-7" d="M230.72,272.84H229.5l-2.89-7.35H228l2.15,5.7,2.05-5.7h1.39Z"/><path class="cls-7" d="M238.51,272a2.59,2.59,0,0,1-2,1,2.16,2.16,0,0,1-2.34-2.09c0-1.32.94-2.47,4.37-2.63v-.21c0-1.18-.47-1.66-1.65-1.66a4.6,4.6,0,0,0-2.37.82l-.26-1.19a5.16,5.16,0,0,1,2.76-.85c2,0,2.86.85,2.83,2.85v3.07c0,.61.08.72.72.72l-.08,1.11c-1.18.1-1.71-.32-1.9-1Zm0-2.87c-2.18.29-3,.74-3,1.64a1.16,1.16,0,0,0,1.3,1.13,2.32,2.32,0,0,0,1.68-.78Zm-1.27-4.67h-1l1.7-2.9h1.6Z"/><path class="cls-7" d="M246.74,272.82v-4.61c0-1.26-.48-1.69-1.52-1.69a2.92,2.92,0,0,0-1.92.8v5.5H242v-7.36l1.32-.21v1.11a3.45,3.45,0,0,1,2.38-1.11,2.25,2.25,0,0,1,2.37,2.53v5Z"/><path class="cls-7" d="M250.3,272.82V265.6l1.31-.2v7.42Zm1-8.32h-1l1.69-2.9h1.6Z"/><path d="M284.28,162v10.91H282.6V162h-4.38v-1.6h10.44V162Z"/><path d="M290.62,172.93V160.42h7.92V162h-6.22v3.86h5.18v1.58h-5.18v3.91h6.22v1.58Z"/><path d="M304.42,168.76l-1.64,0v4.14h-1.7V160.42h3.46c3.42,0,5,1.7,5,4C309.5,167.28,307.54,168.72,304.42,168.76Zm0-6.76h-1.68v5.18l1.82,0c2.1,0,3.18-1,3.18-2.6S306.68,162,304.46,162Z"/><path d="M311.82,172.93V160.42h1.7v10.91h6v1.6Z"/><path d="M326.62,173.23c-3.66,0-6.28-2.56-6.28-6.53a6.24,6.24,0,0,1,6.28-6.58c3.66,0,6.28,2.54,6.28,6.5A6.26,6.26,0,0,1,326.62,173.23Zm0-11.59c-2.66,0-4.52,2-4.52,5s1.86,5.09,4.6,5.09,4.54-2,4.54-5S329.32,161.64,326.58,161.64Z"/><line class="cls-8" x1="275.18" y1="65.45" x2="322.65" y2="65.45"/><polygon class="cls-9" points="321.19 70.43 329.82 65.45 321.19 60.46 321.19 70.43"/><line class="cls-8" x1="439.69" y1="65.45" x2="487.16" y2="65.45"/><polygon class="cls-9" points="485.7 70.43 494.33 65.45 485.7 60.46 485.7 70.43"/><path d="M72,319.33l5.3-6h2.14l-5.78,6.18,5.84,6.33H77.29L72,319.93h0v5.95h-1.7V313.37H72v6Z"/><path d="M85.89,320.92v5h-1.7v-5l-4.36-7.52h1.92l3.32,5.84,3.28-5.84h1.88Z"/><path d="M98.09,322.56c0-1.28-1-1.77-3-2.31-1.78-.48-3.74-1.24-3.74-3.66,0-2.1,1.7-3.52,4.18-3.52a7.32,7.32,0,0,1,3.94,1.1l-.6,1.48a6.25,6.25,0,0,0-3.32-1c-1.8,0-2.54.82-2.54,1.86,0,1.26,1.06,1.7,3,2.24,1.82.48,3.68,1.37,3.68,3.73,0,2.16-1.78,3.74-4.4,3.74A8,8,0,0,1,91.15,325l.56-1.54a6.4,6.4,0,0,0,3.66,1.2C97,324.66,98.09,323.8,98.09,322.56Z"/><path d="M102.19,325.88V313.37h1.7v10.91h6v1.6Z"/><path d="M112.11,325.88V313.37h1.68v12.51Zm1.36-13.75h-1.2l2.12-3.62h2Z"/><path d="M118.73,319.33l5.3-6h2.14l-5.78,6.18,5.84,6.33h-2.18l-5.32-5.95h0v5.95H117V313.37h1.7v6Z"/><path d="M58.68,223.38l-1.64,0v4.14h-1.7V215H58.8c3.42,0,5,1.7,5,4C63.76,221.9,61.8,223.34,58.68,223.38Zm0-6.76H57v5.18l1.82,0c2.1,0,3.18-1,3.18-2.6S60.94,216.62,58.72,216.62Z"/><path d="M75.28,227.54H73.54l-1.18-3.28H66.94l-1.18,3.28H64L68.7,215h1.94ZM69.66,216.8l-2.16,5.92h4.3Z"/><path d="M77,227.54V215h1.7v10.9h6v1.6Z"/><path d="M86.88,227.54V215h1.68v12.5Z"/><path d="M96.78,227.54h-2L90.2,215h1.74l3.88,10.68L99.7,215h1.76Z"/><path d="M108.56,227.84c-3.66,0-6.28-2.56-6.28-6.52a6.24,6.24,0,0,1,6.28-6.58c3.66,0,6.28,2.54,6.28,6.5A6.26,6.26,0,0,1,108.56,227.84Zm0-11.58c-2.66,0-4.52,2-4.52,5s1.86,5.08,4.6,5.08,4.54-2,4.54-5S111.26,216.26,108.52,216.26Z"/><path class="cls-1" d="M518,151.31a5.89,5.89,0,0,0-3.43-1.06c-2.72,0-4.54,1.88-4.54,5s1.84,5.08,4.58,5.08a6,6,0,0,0,3.55-1.22l.28,1.7a7.59,7.59,0,0,1-3.87,1c-3.66,0-6.26-2.54-6.26-6.52s2.62-6.58,6.26-6.58a7.91,7.91,0,0,1,4,1Z"/><path class="cls-1" d="M526.38,161.83c-3.67,0-6.29-2.56-6.29-6.52a6.24,6.24,0,0,1,6.29-6.58c3.66,0,6.28,2.54,6.28,6.5A6.26,6.26,0,0,1,526.38,161.83Zm0-11.58c-2.67,0-4.53,2-4.53,5s1.86,5.08,4.61,5.08,4.54-2,4.54-5S529.08,150.25,526.34,150.25Z"/><path class="cls-1" d="M534.11,166.19v-.83c1.63-1.21,3.11-2.12,3.11-3,0-.53-.41-.92-1.11-.92a2.77,2.77,0,0,0-1.65.67l-.34-.82a3.34,3.34,0,0,1,2.1-.75,1.79,1.79,0,0,1,2,1.71c0,1.27-1.16,2-2.67,3.06h2.92v.91Z"/><path class="cls-3" d="M522.93,124.55a3.52,3.52,0,1,1,3.39-3.52A3.29,3.29,0,0,1,522.93,124.55Zm0-5.94a2.43,2.43,0,1,0,2.24,2.42A2.23,2.23,0,0,0,522.93,118.61Z"/><path class="cls-3" d="M528.15,122.63a1.27,1.27,0,0,1,1.19,1.29c0,1.15-1,2-2.08,2.73l-.49-.49c1-.7,1.43-1.29,1.43-1.78s-.25-.57-1-.92A.91.91,0,0,1,528.15,122.63Z"/><path class="cls-3" d="M532.32,121.26a2.69,2.69,0,0,1,3,2.69,3,3,0,0,1-3.08,3,5.25,5.25,0,0,1-2.44-.6l.21-1.14a5,5,0,0,0,2.24.65,1.81,1.81,0,1,0-.08-3.62,5.17,5.17,0,0,0-1.72.24l-.31-.28.57-4.5h4.37l0,1.14h-3.48l-.34,2.48A7.75,7.75,0,0,1,532.32,121.26Z"/><path class="cls-3" d="M540.9,121.17v3.17h-1.15V114.9l1.15-.18v6.15h0l2.65-3H545l-2.94,3,3,3.38h-1.47l-2.65-3.17Z"/><path class="cls-3" d="M545.63,123.36a1.43,1.43,0,0,1,1.07-1.25,2.17,2.17,0,0,1-1.07-2,2.44,2.44,0,0,1,2.61-2.43,4.07,4.07,0,0,1,1.65.37l1.65-.16.05,1.14-1.24-.23a2.11,2.11,0,0,1,.44,1.32,2.42,2.42,0,0,1-2.57,2.35,2.76,2.76,0,0,1-.89-.15c-.27.1-.63.35-.63.67s.25.6,1.45.6h.59c1.92,0,2.8.59,2.8,1.73,0,1.41-1.52,2.46-3.46,2.46-1.69,0-3-.73-3-1.87a1.53,1.53,0,0,1,1.37-1.5A1.22,1.22,0,0,1,545.63,123.36Zm.6,2.32c0,.69.82,1.19,2,1.19s2.16-.51,2.16-1.3-.63-.87-1.92-.87c-.4,0-.88,0-1.16,0C546.7,124.83,546.23,125.21,546.23,125.68Zm2-4.1a1.47,1.47,0,0,0-.1-2.94,1.47,1.47,0,0,0,.1,2.94Z"/><rect class="cls-4" x="343.22" y="246.82" width="75" height="50" rx="4"/><path class="cls-1" d="M363.39,267.71a5.86,5.86,0,0,0-3.42-1.06c-2.72,0-4.54,1.88-4.54,5s1.84,5.08,4.58,5.08a6,6,0,0,0,3.54-1.22l.28,1.7a7.56,7.56,0,0,1-3.86,1c-3.66,0-6.26-2.54-6.26-6.52s2.62-6.58,6.26-6.58a7.88,7.88,0,0,1,4,1Z"/><path class="cls-1" d="M371.81,278.23c-3.66,0-6.28-2.56-6.28-6.52a6.24,6.24,0,0,1,6.28-6.58c3.66,0,6.28,2.54,6.28,6.5A6.26,6.26,0,0,1,371.81,278.23Zm0-11.58c-2.66,0-4.52,2-4.52,5s1.86,5.08,4.6,5.08,4.54-2,4.54-5S374.51,266.65,371.77,266.65Z"/><path class="cls-1" d="M379.55,282.59v-.83c1.63-1.21,3.11-2.12,3.11-3,0-.54-.41-.92-1.11-.92a2.79,2.79,0,0,0-1.65.66l-.34-.81a3.32,3.32,0,0,1,2.1-.75,1.78,1.78,0,0,1,2,1.7c0,1.27-1.15,2-2.67,3.07h2.93v.91Z"/><path class="cls-3" d="M368.36,241a3.52,3.52,0,1,1,3.39-3.52A3.29,3.29,0,0,1,368.36,241Zm0-5.94a2.43,2.43,0,0,0,0,4.84,2.43,2.43,0,0,0,0-4.84Z"/><path class="cls-3" d="M373.59,239a1.27,1.27,0,0,1,1.19,1.29c0,1.14-1,2-2.08,2.73l-.49-.49c1-.7,1.43-1.29,1.43-1.78s-.25-.58-1-.93A.9.9,0,0,1,373.59,239Z"/><path class="cls-3" d="M377.76,237.65a2.69,2.69,0,0,1,3,2.69,3,3,0,0,1-3.08,3,5.1,5.1,0,0,1-2.44-.6l.21-1.13a5.09,5.09,0,0,0,2.24.64,1.81,1.81,0,1,0-.08-3.61,5,5,0,0,0-1.73.24l-.3-.28.57-4.5h4.37l0,1.13H377.1l-.34,2.48C377,237.7,377.3,237.65,377.76,237.65Z"/><path class="cls-3" d="M386.34,237.57v3.17h-1.15v-9.45l1.15-.18v6.15h0l2.64-2.94h1.46l-2.94,3,3,3.38H389l-2.64-3.17Z"/><path class="cls-3" d="M391.07,239.75a1.41,1.41,0,0,1,1.07-1.24,2.17,2.17,0,0,1-1.07-2,2.43,2.43,0,0,1,2.61-2.42,4.08,4.08,0,0,1,1.65.36l1.65-.15,0,1.13-1.23-.22a2.1,2.1,0,0,1,.43,1.32,2.41,2.41,0,0,1-2.56,2.35,2.82,2.82,0,0,1-.9-.15c-.26.09-.62.35-.62.67s.25.6,1.45.6h.59c1.92,0,2.8.59,2.8,1.72,0,1.42-1.53,2.47-3.46,2.47-1.69,0-3-.73-3-1.88a1.53,1.53,0,0,1,1.37-1.5A1.2,1.2,0,0,1,391.07,239.75Zm.6,2.33c0,.69.81,1.19,2,1.19s2.16-.52,2.16-1.3-.63-.87-1.92-.87c-.4,0-.88,0-1.16-.06C392.14,241.23,391.67,241.6,391.67,242.08Zm2.05-4.1a1.48,1.48,0,0,0-.1-2.95,1.39,1.39,0,0,0-1.4,1.52A1.37,1.37,0,0,0,393.72,238Z"/><path class="cls-2" d="M559.32,27.91l-1.63.52,0-1.05,2.8-.93v6.84h-1.13Z"/><path class="cls-2" d="M563.11,31.58a1.26,1.26,0,0,1,1.19,1.29c0,1.15-1,2-2.07,2.73l-.49-.49c1-.7,1.43-1.29,1.43-1.78s-.25-.57-1-.92A.9.9,0,0,1,563.11,31.58Z"/><path class="cls-2" d="M568.35,33.5A3.29,3.29,0,0,1,565,30a3.39,3.39,0,1,1,6.77,0A3.3,3.3,0,0,1,568.35,33.5Zm0-5.94A2.23,2.23,0,0,0,566.12,30a2.24,2.24,0,1,0,4.47,0A2.24,2.24,0,0,0,568.35,27.56Z"/><path class="cls-2" d="M577.73,30.12v3.17h-1.15V23.85l1.15-.18v6.15h0l2.65-2.95h1.45l-2.94,3,3,3.38h-1.47l-2.65-3.17Z"/><path class="cls-2" d="M582.46,32.31a1.43,1.43,0,0,1,1.06-1.25,2.18,2.18,0,0,1-1.06-2,2.44,2.44,0,0,1,2.61-2.43,4.07,4.07,0,0,1,1.65.37l1.65-.16,0,1.14-1.23-.23a2.13,2.13,0,0,1,.44,1.32,2.42,2.42,0,0,1-2.57,2.35,2.72,2.72,0,0,1-.89-.15c-.27.1-.64.35-.64.67s.26.6,1.46.6h.59c1.92,0,2.8.59,2.8,1.73,0,1.41-1.52,2.46-3.46,2.46-1.69,0-3-.73-3-1.87a1.53,1.53,0,0,1,1.37-1.5A1.21,1.21,0,0,1,582.46,32.31Zm.6,2.32c0,.69.82,1.19,2,1.19s2.16-.51,2.16-1.3-.63-.87-1.92-.87c-.4,0-.88,0-1.16,0C583.52,33.78,583.06,34.16,583.06,34.63Zm2.05-4.1a1.47,1.47,0,0,0-.1-2.94,1.47,1.47,0,0,0,.1,2.94Z"/><line class="cls-8" x1="275.18" y1="268.78" x2="322.65" y2="268.78"/><polygon class="cls-9" points="321.19 273.76 329.82 268.78 321.19 263.79 321.19 273.76"/><path class="cls-8" d="M296.38,145.22c-2.63-23.35,6.05-41.6,27.17-54.54"/><polygon class="cls-9" points="324.8 95.8 329.82 87.19 319.85 87.14 324.8 95.8"/><path class="cls-8" d="M440.88,82.45c23.47,1,40.2,12.32,49.76,35.16"/><polygon class="cls-9" points="485.39 118.07 493.14 124.34 494.7 114.49 485.39 118.07"/><path class="cls-8" d="M267,234.94c17.82-10.48,28.9-25.07,30.77-44.82"/><polygon class="cls-9" points="302.62 191.81 298.05 182.95 292.66 191.34 302.62 191.81"/><path class="cls-8" d="M112.63,300.06c9.39-18.44,25.83-18,46-18.45"/><polygon class="cls-9" points="157.3 286.61 165.8 281.38 157.03 276.64 157.3 286.61"/><path class="cls-8" d="M112.63,231.77c9.39,18.44,25.84,21,46,22.07"/><polygon class="cls-9" points="156.93 258.74 165.8 254.18 157.42 248.78 156.93 258.74"/><path class="cls-10" d="M197.7,38.63a4.71,4.71,0,0,0-2.73-.84c-2.18,0-3.64,1.5-3.64,4s1.47,4.07,3.67,4.07a4.85,4.85,0,0,0,2.83-1l.22,1.36a6,6,0,0,1-3.08.83,4.84,4.84,0,0,1-5-5.22,4.89,4.89,0,0,1,5-5.26,6.29,6.29,0,0,1,3.16.83Z"/><path class="cls-10" d="M203.72,46a2.64,2.64,0,0,1-2,1A2.16,2.16,0,0,1,199.36,45c0-1.32.95-2.47,4.37-2.63v-.21c0-1.18-.46-1.66-1.65-1.66a4.62,4.62,0,0,0-2.36.81l-.26-1.18a5.12,5.12,0,0,1,2.75-.85c2,0,2.87.85,2.84,2.85v3.07c0,.61.08.72.72.72L205.69,47c-1.19.09-1.72-.32-1.91-1Zm0-2.87c-2.17.29-3,.74-3,1.64a1.15,1.15,0,0,0,1.29,1.13,2.31,2.31,0,0,0,1.68-.78Z"/><path class="cls-10" d="M214.53,38.63a4.71,4.71,0,0,0-2.73-.84c-2.18,0-3.64,1.5-3.64,4s1.48,4.07,3.67,4.07a4.85,4.85,0,0,0,2.83-1l.23,1.36a6.08,6.08,0,0,1-3.09.83,4.84,4.84,0,0,1-5-5.22,4.89,4.89,0,0,1,5-5.26,6.36,6.36,0,0,1,3.17.83Z"/><path class="cls-10" d="M221.27,47.05a4.87,4.87,0,0,1-5-5.22,5,5,0,0,1,5-5.26,4.85,4.85,0,0,1,5,5.2A5,5,0,0,1,221.27,47.05Zm0-9.26c-2.13,0-3.62,1.58-3.62,4s1.49,4.07,3.68,4.07,3.63-1.6,3.63-4S223.43,37.79,221.24,37.79Z"/><path class="cls-10" d="M230.91,50a1.91,1.91,0,0,1-2.14,1.85,3.35,3.35,0,0,1-1.58-.35l.14-.72a2.7,2.7,0,0,0,1.45.37c.78,0,1.33-.37,1.33-1.1s-.53-.95-1.27-1a3.74,3.74,0,0,0-.85.07v-.66c1-.23,1.88-.61,1.88-1.33,0-.56-.39-.87-1.05-.87a2.25,2.25,0,0,0-1.35.54l-.27-.65a2.7,2.7,0,0,1,1.7-.61c1.14,0,1.81.62,1.81,1.47a1.7,1.7,0,0,1-1.17,1.49A1.49,1.49,0,0,1,230.91,50Z"/><g class="cls-11"><path class="cls-1" d="M620.31,72.45a4.74,4.74,0,0,0-2.74-.84c-2.17,0-3.63,1.5-3.63,4s1.47,4.07,3.66,4.07a4.81,4.81,0,0,0,2.84-1l.22,1.36a6.05,6.05,0,0,1-3.09.83,4.84,4.84,0,0,1-5-5.21,4.9,4.9,0,0,1,5-5.27,6.3,6.3,0,0,1,3.17.83Z"/><path class="cls-1" d="M626.32,79.85a2.59,2.59,0,0,1-2,1A2.16,2.16,0,0,1,622,78.78c0-1.32.95-2.47,4.37-2.63v-.21c0-1.18-.46-1.66-1.65-1.66a4.6,4.6,0,0,0-2.37.82l-.25-1.19a5.12,5.12,0,0,1,2.75-.85c2,0,2.86.85,2.83,2.85V79c0,.6.08.72.72.72l-.08,1.1c-1.18.1-1.71-.32-1.9-1Zm0-2.87c-2.18.29-3,.74-3,1.64a1.16,1.16,0,0,0,1.3,1.13,2.32,2.32,0,0,0,1.68-.78Z"/><path class="cls-1" d="M634.42,80.87a4.86,4.86,0,0,1-5-5.21,5,5,0,0,1,5-5.27,4.85,4.85,0,0,1,5,5.2A5,5,0,0,1,634.42,80.87Zm0-9.26c-2.13,0-3.62,1.58-3.62,4s1.49,4.07,3.68,4.07,3.64-1.6,3.64-4S636.58,71.61,634.39,71.61Z"/></g><path class="cls-10" d="M75.43,301.82a4.87,4.87,0,0,1-5-5.22,5,5,0,0,1,5-5.27,4.85,4.85,0,0,1,5,5.2A5,5,0,0,1,75.43,301.82Zm0-9.27c-2.13,0-3.62,1.58-3.62,4s1.49,4.07,3.69,4.07,3.63-1.6,3.63-4S77.6,292.55,75.4,292.55Z"/><path class="cls-10" d="M81.62,304.9v-.66c1.31-1,2.49-1.7,2.49-2.42,0-.43-.33-.74-.89-.74a2.27,2.27,0,0,0-1.32.53l-.27-.65a2.64,2.64,0,0,1,1.68-.6,1.42,1.42,0,0,1,1.61,1.36c0,1-.92,1.58-2.13,2.46h2.34v.72Z"/></svg>