<?xml version="1.0" encoding="UTF-8"?>
<svg id="Layer_1" data-name="Layer 1" xmlns="http://www.w3.org/2000/svg" width="740" height="346.175" viewBox="0 0 740 346.175">
  <rect y="1.912" width="740" height="346.175" fill="#fff"/>
  <g>
    <path d="m470.64,298.985v5.01h-1.688v-12.797h4.72c1.4,0,2.497.357,3.291,1.072s1.191,1.661,1.191,2.839c0,1.242-.389,2.199-1.164,2.87-.777.671-1.889,1.006-3.336,1.006h-3.015Zm0-1.38h3.032c.902,0,1.594-.213,2.074-.639.48-.425.721-1.04.721-1.845,0-.763-.24-1.373-.721-1.831s-1.14-.695-1.978-.713h-3.129v5.027Z" fill="#1a1a1a"/>
    <path d="m482.4,291.989l1.318-1.494h1.406v.088l-2.232,2.408h-.993l-2.206-2.408v-.088h1.38l1.327,1.494Zm2.25,3.955c-.246-.041-.513-.062-.8-.062-1.066,0-1.79.454-2.171,1.362v6.75h-1.626v-9.51h1.582l.026,1.099c.533-.85,1.289-1.274,2.268-1.274.316,0,.557.041.721.123v1.512Z" fill="#1a1a1a"/>
    <path d="m486.153,291.963c0-.264.08-.486.241-.668s.4-.272.717-.272.557.091.721.272.246.404.246.668-.082.483-.246.659-.404.264-.721.264-.556-.088-.717-.264-.241-.396-.241-.659Zm1.758,12.032h-1.626v-9.51h1.626v9.51Z" fill="#1a1a1a"/>
    <path d="m503.001,299.346c0,1.447-.331,2.613-.993,3.498s-1.559,1.327-2.689,1.327c-1.154,0-2.062-.366-2.725-1.099v4.579h-1.626v-13.166h1.485l.079,1.055c.662-.82,1.582-1.23,2.76-1.23,1.143,0,2.046.431,2.711,1.292s.998,2.06.998,3.595v.149Zm-1.626-.185c0-1.072-.229-1.919-.686-2.54s-1.084-.932-1.881-.932c-.984,0-1.723.437-2.215,1.31v4.544c.486.867,1.23,1.301,2.232,1.301.779,0,1.398-.309,1.858-.927s.69-1.537.69-2.756Z" fill="#1a1a1a"/>
    <path d="m509.663,295.944c-.246-.041-.513-.062-.8-.062-1.066,0-1.79.454-2.171,1.362v6.75h-1.626v-9.51h1.582l.026,1.099c.533-.85,1.289-1.274,2.268-1.274.316,0,.557.041.721.123v1.512Z" fill="#1a1a1a"/>
    <path d="m510.551,299.152c0-.932.183-1.77.55-2.514.365-.744.875-1.318,1.529-1.723.652-.404,1.398-.606,2.236-.606,1.295,0,2.342.448,3.143,1.345.799.896,1.199,2.089,1.199,3.577v.114c0,.926-.178,1.757-.531,2.491-.355.736-.861,1.309-1.521,1.719-.658.41-1.416.615-2.271.615-1.289,0-2.334-.448-3.133-1.345-.801-.896-1.2-2.083-1.2-3.56v-.114Zm1.635.193c0,1.055.244,1.901.733,2.54s1.145.958,1.965.958c.826,0,1.482-.323,1.969-.972.486-.646.729-1.554.729-2.72,0-1.043-.248-1.888-.743-2.536-.495-.646-1.152-.971-1.973-.971-.803,0-1.45.319-1.942.958s-.738,1.553-.738,2.742Z" fill="#1a1a1a"/>
    <path d="m520.852,299.161c0-1.459.346-2.633,1.037-3.52.691-.889,1.597-1.332,2.716-1.332,1.113,0,1.995.381,2.646,1.143v-4.957h1.626v13.5h-1.494l-.079-1.02c-.65.797-1.556,1.195-2.716,1.195-1.102,0-2-.451-2.693-1.354-.695-.902-1.042-2.08-1.042-3.533v-.123Zm1.626.185c0,1.078.223,1.922.668,2.531s1.061.914,1.846.914c1.031,0,1.784-.463,2.259-1.389v-4.368c-.486-.896-1.233-1.345-2.241-1.345-.797,0-1.418.308-1.863.923s-.668,1.526-.668,2.733Z" fill="#1a1a1a"/>
    <path d="m537.27,303.055c-.633.744-1.562,1.116-2.786,1.116-1.014,0-1.786-.295-2.315-.883-.531-.59-.799-1.461-.805-2.615v-6.188h1.626v6.144c0,1.441.586,2.162,1.758,2.162,1.242,0,2.068-.463,2.479-1.389v-6.917h1.626v9.51h-1.547l-.035-.94Z" fill="#1a1a1a"/>
    <path d="m543.976,299.592l-1.02,1.063v3.34h-1.626v-13.5h1.626v8.165l.87-1.046,2.962-3.129h1.978l-3.7,3.973,4.131,5.537h-1.907l-3.313-4.403Z" fill="#1a1a1a"/>
    <path d="m554.083,302.844c.58,0,1.087-.176,1.521-.527s.674-.791.721-1.318h1.538c-.029.545-.217,1.063-.562,1.556s-.808.885-1.385,1.178-1.188.439-1.832.439c-1.295,0-2.324-.432-3.09-1.297-.764-.863-1.146-2.046-1.146-3.546v-.272c0-.926.17-1.749.51-2.47s.827-1.28,1.463-1.679,1.388-.598,2.255-.598c1.066,0,1.952.319,2.659.958.705.639,1.082,1.468,1.129,2.487h-1.538c-.047-.615-.28-1.121-.698-1.516-.42-.396-.937-.594-1.552-.594-.826,0-1.467.298-1.921.893s-.681,1.454-.681,2.579v.308c0,1.096.226,1.939.677,2.531s1.096.888,1.934.888Z" fill="#1a1a1a"/>
    <path d="m561.475,290.504h1.969l-2.355,2.584-1.31-.005,1.696-2.579Zm-.018,13.491h-1.635v-9.51h1.635v9.51Z" fill="#1a1a1a"/>
    <path d="m574.404,303.995h-2.54v-9.791l-3.032.94v-2.065l5.3-1.898h.272v12.814Z" fill="#2e3d99"/>
    <path d="m579.326,307.203l-1.327-.694.316-.571c.393-.715.595-1.427.606-2.136v-1.969h2.145l-.009,1.758c-.006.65-.17,1.307-.492,1.969s-.735,1.21-1.239,1.644Z" fill="#2e3d99"/>
    <path d="m591.569,298.704c0,1.77-.366,3.123-1.099,4.061s-1.805,1.406-3.217,1.406c-1.395,0-2.461-.46-3.199-1.38s-1.116-2.238-1.134-3.955v-2.355c0-1.787.37-3.144,1.112-4.069.74-.926,1.809-1.389,3.203-1.389s2.461.459,3.199,1.375c.738.918,1.116,2.234,1.134,3.951v2.355Zm-2.54-2.59c0-1.062-.145-1.834-.436-2.318-.289-.483-.742-.726-1.357-.726-.598,0-1.039.23-1.322.69-.285.461-.436,1.181-.453,2.16v3.114c0,1.044.142,1.819.426,2.327.284.507.74.761,1.367.761.621,0,1.069-.243,1.345-.73.275-.486.419-1.231.431-2.234v-3.044Z" fill="#2e3d99"/>
    <path d="m601.325,300.181l-.914.914v2.9h-2.54v-13.5h2.54v7.479l.492-.633,2.435-2.856h3.05l-3.437,3.964,3.735,5.546h-2.918l-2.443-3.814Z" fill="#2e3d99"/>
    <path d="m606.941,299.17c0-1.459.347-2.634,1.042-3.524.693-.891,1.63-1.336,2.808-1.336,1.043,0,1.854.357,2.435,1.072l.105-.896h2.303v9.193c0,.832-.189,1.556-.566,2.171-.379.615-.91,1.084-1.596,1.406s-1.488.483-2.408.483c-.697,0-1.377-.14-2.039-.418s-1.163-.637-1.503-1.076l1.125-1.547c.633.709,1.4,1.063,2.303,1.063.674,0,1.198-.181,1.573-.54.375-.361.562-.872.562-1.534v-.51c-.586.662-1.356.993-2.312.993-1.143,0-2.067-.446-2.772-1.34-.707-.894-1.06-2.079-1.06-3.556v-.105Zm2.54.189c0,.862.173,1.539.519,2.028.346.49.82.735,1.424.735.773,0,1.327-.29,1.661-.871v-4.006c-.34-.58-.888-.871-1.644-.871-.609,0-1.089.25-1.437.748-.35.499-.523,1.244-.523,2.236Z" fill="#2e3d99"/>
    <path d="m626.022,302.123c.469,0,.85-.129,1.143-.387s.445-.601.457-1.028h2.382c-.006.645-.182,1.234-.527,1.771-.346.535-.819.952-1.42,1.248-.601.295-1.264.443-1.99.443-1.359,0-2.432-.432-3.217-1.297-.785-.863-1.178-2.058-1.178-3.581v-.167c0-1.465.39-2.634,1.169-3.507s1.849-1.31,3.208-1.31c1.189,0,2.143.338,2.861,1.016.717.676,1.082,1.577,1.094,2.702h-2.382c-.012-.495-.164-.896-.457-1.206s-.68-.464-1.16-.464c-.592,0-1.039.216-1.341.646-.302.432-.452,1.132-.452,2.1v.265c0,.979.149,1.684.448,2.112s.753.643,1.362.643Z" fill="#2e3d99"/>
    <path d="m635.83,304.171c-1.395,0-2.53-.428-3.405-1.283-.877-.855-1.314-1.995-1.314-3.419v-.246c0-.955.185-1.809.554-2.562s.892-1.333,1.569-1.74c.676-.407,1.448-.611,2.315-.611,1.301,0,2.325.41,3.071,1.23.748.82,1.121,1.983,1.121,3.489v1.037h-6.056c.082.621.329,1.119.743,1.494.412.375.936.562,1.568.562.979,0,1.743-.354,2.294-1.063l1.248,1.397c-.381.539-.896.96-1.547,1.261-.65.302-1.371.453-2.162.453Zm-.29-7.813c-.504,0-.913.171-1.227.512-.313.342-.514.83-.602,1.466h3.533v-.203c-.012-.565-.164-1.002-.457-1.311-.293-.31-.709-.464-1.248-.464Z" fill="#2e3d99"/>
    <path d="m643.565,294.485l.079,1.063c.674-.826,1.585-1.239,2.733-1.239,1.225,0,2.065.483,2.522,1.45.668-.967,1.62-1.45,2.856-1.45,1.031,0,1.799.301,2.303.9.504.602.756,1.505.756,2.712v6.073h-2.549v-6.064c0-.539-.105-.933-.316-1.182s-.583-.374-1.116-.374c-.762,0-1.289.363-1.582,1.09l.009,6.53h-2.54v-6.056c0-.551-.108-.949-.325-1.195s-.586-.369-1.107-.369c-.721,0-1.242.299-1.564.896v6.724h-2.54v-9.51h2.382Z" fill="#2e3d99"/>
    <path d="m661.143,304.171c-1.395,0-2.53-.428-3.405-1.283-.877-.855-1.314-1.995-1.314-3.419v-.246c0-.955.185-1.809.554-2.562s.892-1.333,1.569-1.74c.676-.407,1.448-.611,2.315-.611,1.301,0,2.325.41,3.071,1.23.748.82,1.121,1.983,1.121,3.489v1.037h-6.056c.082.621.329,1.119.743,1.494.412.375.936.562,1.568.562.979,0,1.743-.354,2.294-1.063l1.248,1.397c-.381.539-.896.96-1.547,1.261-.65.302-1.371.453-2.162.453Zm-.29-7.813c-.504,0-.913.171-1.227.512-.313.342-.514.83-.602,1.466h3.533v-.203c-.012-.565-.164-1.002-.457-1.311-.293-.31-.709-.464-1.248-.464Z" fill="#2e3d99"/>
    <path d="m668.833,294.485l.079,1.099c.68-.85,1.591-1.274,2.733-1.274,1.008,0,1.758.296,2.25.888s.744,1.477.756,2.654v6.144h-2.54v-6.082c0-.539-.117-.93-.352-1.174-.234-.242-.624-.364-1.169-.364-.715,0-1.251.305-1.608.914v6.706h-2.54v-9.51h2.391Z" fill="#2e3d99"/>
    <path d="m679.617,292.147v2.338h1.626v1.863h-1.626v4.746c0,.352.067.604.202.756s.393.229.773.229c.281,0,.53-.021.747-.062v1.925c-.498.152-1.011.229-1.538.229-1.781,0-2.689-.899-2.725-2.698v-5.124h-1.389v-1.863h1.389v-2.338h2.54Z" fill="#2e3d99"/>
    <path d="m688.354,303.028c-.627.762-1.494,1.143-2.602,1.143-1.02,0-1.798-.293-2.333-.879-.537-.586-.811-1.444-.822-2.575v-6.231h2.54v6.15c0,.991.451,1.487,1.354,1.487.861,0,1.453-.299,1.775-.897v-6.74h2.549v9.51h-2.391l-.07-.967Z" fill="#2e3d99"/>
    <path d="m471.835,323.389l2.355-7.304h1.661l-3.41,9.51h-1.239l-3.445-9.51h1.661l2.417,7.304Z" fill="#1a1a1a"/>
    <path d="m478.946,324.268h5.563v1.327h-7.55v-1.195l5.247-6.97h-5.168v-1.345h7.207v1.151l-5.3,7.031Z" fill="#1a1a1a"/>
    <path d="m487.875,316.085l.053,1.195c.727-.914,1.676-1.371,2.848-1.371,2.01,0,3.023,1.134,3.041,3.401v6.284h-1.626v-6.293c-.006-.686-.162-1.192-.471-1.521-.307-.328-.786-.492-1.437-.492-.527,0-.99.141-1.389.422s-.709.65-.932,1.107v6.776h-1.626v-9.51h1.538Z" fill="#1a1a1a"/>
    <path d="m496.278,313.563c0-.264.08-.486.241-.668s.4-.272.717-.272.557.091.721.272.246.404.246.668-.082.483-.246.659-.404.264-.721.264-.556-.088-.717-.264-.241-.396-.241-.659Zm1.758,12.032h-1.626v-9.51h1.626v9.51Z" fill="#1a1a1a"/>
    <path d="m503.291,321.191l-1.02,1.063v3.34h-1.626v-13.5h1.626v8.165l.87-1.046,2.962-3.129h1.978l-3.7,3.973,4.131,5.537h-1.907l-3.313-4.403Z" fill="#1a1a1a"/>
    <path d="m515.631,325.595c-.094-.188-.17-.521-.229-1.002-.756.785-1.658,1.178-2.707,1.178-.938,0-1.707-.265-2.307-.795-.602-.53-.901-1.203-.901-2.018,0-.99.376-1.759,1.13-2.307.752-.548,1.812-.822,3.177-.822h1.582v-.747c0-.568-.17-1.021-.51-1.358-.34-.336-.841-.505-1.503-.505-.58,0-1.066.146-1.459.439s-.589.647-.589,1.063h-1.635c0-.475.168-.933.505-1.375s.794-.793,1.371-1.051,1.212-.387,1.903-.387c1.096,0,1.954.274,2.575.822s.943,1.302.967,2.263v4.377c0,.873.111,1.567.334,2.083v.141h-1.705Zm-2.698-1.239c.51,0,.993-.132,1.45-.396s.788-.606.993-1.028v-1.951h-1.274c-1.992,0-2.988.583-2.988,1.749,0,.51.17.908.51,1.195s.776.431,1.31.431Zm1.503-12.261h1.969l-2.355,2.584-1.31-.004,1.696-2.58Z" fill="#1a1a1a"/>
    <path d="m532.26,320.304c0,1.77-.366,3.123-1.099,4.061s-1.805,1.406-3.217,1.406c-1.395,0-2.461-.46-3.199-1.38s-1.116-2.238-1.134-3.955v-2.355c0-1.787.37-3.144,1.112-4.069.74-.926,1.809-1.389,3.203-1.389s2.461.459,3.199,1.375c.738.918,1.116,2.234,1.134,3.951v2.355Zm-2.54-2.59c0-1.062-.145-1.834-.436-2.318-.289-.483-.742-.726-1.357-.726-.598,0-1.039.23-1.322.69-.285.461-.436,1.181-.453,2.16v3.114c0,1.044.142,1.819.426,2.327.284.507.74.761,1.367.761.621,0,1.069-.243,1.345-.73.275-.486.419-1.231.431-2.234v-3.044Z" fill="#ff4d4f"/>
    <path d="m534.739,328.803l-1.327-.694.316-.571c.393-.715.595-1.427.606-2.136v-1.969h2.145l-.009,1.758c-.006.65-.17,1.307-.492,1.969s-.735,1.21-1.239,1.644Z" fill="#ff4d4f"/>
    <path d="m545.259,312.666v2.092h-.246c-1.148.018-2.073.316-2.772.896-.701.58-1.121,1.386-1.262,2.417.68-.691,1.538-1.037,2.575-1.037,1.113,0,1.998.398,2.654,1.195s.984,1.846.984,3.146c0,.832-.181,1.585-.54,2.259-.361.674-.871,1.198-1.529,1.573-.66.375-1.405.562-2.237.562-1.348,0-2.437-.469-3.265-1.406-.83-.938-1.244-2.188-1.244-3.753v-.914c0-1.389.262-2.614.787-3.679.523-1.062,1.276-1.886,2.258-2.469s2.12-.878,3.415-.884h.422Zm-2.479,6.416c-.41,0-.782.106-1.116.32-.334.213-.58.495-.738.847v.771c0,.849.167,1.511.501,1.987s.803.715,1.406.715c.545,0,.985-.215,1.323-.645.336-.43.505-.987.505-1.671,0-.696-.17-1.258-.51-1.685s-.797-.641-1.371-.641Z" fill="#ff4d4f"/>
    <path d="m556.738,321.78l-.914.914v2.9h-2.54v-13.5h2.54v7.479l.492-.633,2.435-2.856h3.05l-3.437,3.964,3.735,5.546h-2.918l-2.443-3.814Z" fill="#ff4d4f"/>
    <path d="m562.354,320.77c0-1.459.347-2.634,1.042-3.524.693-.891,1.63-1.336,2.808-1.336,1.043,0,1.854.357,2.435,1.072l.105-.896h2.303v9.193c0,.832-.189,1.556-.566,2.171-.379.615-.91,1.084-1.596,1.406s-1.488.483-2.408.483c-.697,0-1.377-.14-2.039-.418s-1.163-.637-1.503-1.076l1.125-1.547c.633.709,1.4,1.063,2.303,1.063.674,0,1.198-.181,1.573-.54.375-.361.562-.872.562-1.534v-.51c-.586.662-1.356.993-2.312.993-1.143,0-2.067-.446-2.772-1.34-.707-.894-1.06-2.079-1.06-3.556v-.105Zm2.54.189c0,.862.173,1.539.519,2.028.346.49.82.735,1.424.735.773,0,1.327-.29,1.661-.871v-4.006c-.34-.58-.888-.871-1.644-.871-.609,0-1.089.25-1.437.748-.35.499-.523,1.244-.523,2.236Z" fill="#ff4d4f"/>
    <path d="m581.857,325.771c-1.395,0-2.53-.428-3.405-1.283-.877-.855-1.314-1.995-1.314-3.419v-.246c0-.955.185-1.809.554-2.562s.892-1.333,1.569-1.74c.676-.407,1.448-.611,2.315-.611,1.301,0,2.325.41,3.071,1.23.748.82,1.121,1.983,1.121,3.489v1.037h-6.056c.082.621.329,1.119.743,1.494.412.375.936.562,1.568.562.979,0,1.743-.354,2.294-1.063l1.248,1.397c-.381.539-.896.96-1.547,1.261-.65.302-1.371.453-2.162.453Zm-.29-7.813c-.504,0-.913.171-1.227.512-.313.342-.514.83-.602,1.466h3.533v-.203c-.012-.565-.164-1.002-.457-1.311-.293-.31-.709-.464-1.248-.464Z" fill="#ff4d4f"/>
    <path d="m589.591,316.085l.079,1.063c.674-.826,1.585-1.239,2.733-1.239,1.225,0,2.065.483,2.522,1.45.668-.967,1.62-1.45,2.856-1.45,1.031,0,1.799.301,2.303.9.504.602.756,1.505.756,2.712v6.073h-2.549v-6.064c0-.539-.105-.933-.316-1.182s-.583-.374-1.116-.374c-.762,0-1.289.363-1.582,1.09l.009,6.53h-2.54v-6.056c0-.551-.108-.949-.325-1.195s-.586-.369-1.107-.369c-.721,0-1.242.299-1.564.896v6.724h-2.54v-9.51h2.382Z" fill="#ff4d4f"/>
    <path d="m602.775,313.624c0-.381.128-.694.382-.94.256-.246.603-.369,1.042-.369.434,0,.779.123,1.037.369s.387.56.387.94c0,.387-.131.703-.392.949s-.604.369-1.032.369-.772-.123-1.032-.369c-.262-.246-.392-.562-.392-.949Zm2.698,11.971h-2.549v-9.51h2.549v9.51Z" fill="#ff4d4f"/>
    <path d="m612.715,322.967c0-.311-.153-.555-.462-.733-.307-.179-.801-.339-1.48-.479-2.262-.475-3.393-1.436-3.393-2.883,0-.844.35-1.548,1.051-2.114.699-.564,1.615-.848,2.746-.848,1.207,0,2.172.284,2.896.853.723.568,1.085,1.307,1.085,2.215h-2.54c0-.363-.117-.663-.352-.901-.234-.236-.601-.355-1.099-.355-.428,0-.759.097-.993.29s-.352.439-.352.738c0,.281.133.509.4.681.266.174.716.323,1.349.449s1.166.268,1.6.426c1.342.492,2.013,1.345,2.013,2.558,0,.867-.372,1.569-1.116,2.104-.744.537-1.705.805-2.883.805-.797,0-1.505-.143-2.122-.426-.619-.284-1.104-.674-1.455-1.17-.352-.494-.527-1.029-.527-1.604h2.408c.023.451.19.797.501,1.037s.727.36,1.248.36c.486,0,.854-.093,1.103-.276.249-.186.374-.427.374-.726Z" fill="#ff4d4f"/>
    <path d="m619.562,325.595h-2.54v-9.51h2.54v9.51Zm-.747-13.368h2.769l-2.435,2.725h-2.065l1.731-2.725Z" fill="#ff4d4f"/>
    <path d="m636.446,321.332c-.1,1.377-.608,2.461-1.524,3.252-.918.791-2.126,1.187-3.626,1.187-1.641,0-2.931-.552-3.872-1.656-.939-1.104-1.41-2.621-1.41-4.549v-.782c0-1.23.217-2.314.65-3.252s1.053-1.657,1.859-2.157c.805-.502,1.741-.752,2.808-.752,1.477,0,2.666.396,3.568,1.187s1.424,1.901,1.564,3.331h-2.637c-.064-.826-.294-1.425-.69-1.797-.395-.372-.997-.559-1.806-.559-.879,0-1.537.315-1.974.945s-.66,1.606-.672,2.931v.967c0,1.383.209,2.394.629,3.032.418.639,1.079.958,1.981.958.814,0,1.422-.186,1.823-.558s.632-.948.69-1.728h2.637Z" fill="#ff4d4f"/>
    <path d="m648.689,319.486c0,1.26-.223,2.364-.668,3.313s-1.083,1.682-1.912,2.197-1.779.773-2.852.773c-1.061,0-2.007-.255-2.839-.765s-1.477-1.237-1.934-2.185c-.457-.945-.688-2.034-.694-3.265v-.633c0-1.26.227-2.368.682-3.327.453-.957,1.095-1.692,1.924-2.205s1.777-.77,2.844-.77,2.014.257,2.844.77c.828.513,1.47,1.248,1.924,2.205.454.959.682,2.064.682,3.318v.571Zm-2.672-.58c0-1.342-.24-2.361-.721-3.059s-1.166-1.046-2.057-1.046c-.885,0-1.567.345-2.048,1.033s-.724,1.697-.729,3.027v.624c0,1.307.24,2.32.721,3.041s1.172,1.081,2.074,1.081c.885,0,1.564-.348,2.039-1.041.475-.695.715-1.707.721-3.037v-.624Z" fill="#ff4d4f"/>
    <path d="m655.083,329.589h-5.114v-1.015l2.414-2.572c.331-.362.576-.678.735-.948.158-.27.238-.525.238-.769,0-.331-.084-.592-.251-.781-.168-.189-.407-.284-.718-.284-.335,0-.599.115-.792.346-.192.23-.289.534-.289.909h-1.486c0-.454.108-.869.325-1.245.218-.375.523-.67.92-.884.396-.213.846-.32,1.348-.32.769,0,1.366.185,1.791.554.426.369.638.89.638,1.562,0,.369-.096.745-.286,1.128-.191.383-.52.828-.984,1.337l-1.696,1.788h3.208v1.194Z" fill="#ff4d4f"/>
    <path d="m656.748,324.742c0-.281.084-.516.25-.703.168-.188.418-.281.752-.281s.587.094.76.281.26.422.26.703c0,.27-.087.495-.26.677s-.426.272-.76.272-.584-.091-.752-.272c-.166-.182-.25-.407-.25-.677Z" fill="#ff4d4f"/>
  </g>
  <rect x="519.378" y="182.435" width="71.254" height="50" fill="#ff4d4f" opacity=".8"/>
  <rect x="466.858" y="182.435" width="51.245" height="50" fill="#ff4d4f" opacity=".8"/>
  <rect x="466.803" y="40.447" width="204.98" height="50" fill="#2e3d99" opacity=".9"/>
  <circle cx="343.368" cy="65.447" r="45.447" fill="#f2f2f2"/>
  <g>
    <path d="m476.799,61.308h5.563v1.327h-7.55v-1.195l5.247-6.97h-5.168v-1.345h7.207v1.151l-5.3,7.031Z" fill="#fff"/>
    <path d="m490.062,62.635c-.094-.188-.17-.521-.229-1.002-.756.785-1.658,1.178-2.707,1.178-.938,0-1.706-.265-2.307-.795s-.901-1.203-.901-2.018c0-.99.377-1.759,1.13-2.307s1.812-.822,3.177-.822h1.582v-.747c0-.568-.17-1.021-.51-1.358s-.841-.505-1.503-.505c-.58,0-1.066.146-1.459.439s-.589.647-.589,1.063h-1.635c0-.475.169-.934.506-1.376s.794-.792,1.371-1.05,1.211-.387,1.902-.387c1.096,0,1.954.273,2.575.821s.943,1.303.967,2.264v4.377c0,.873.111,1.567.334,2.083v.141h-1.705Zm-2.698-1.239c.51,0,.993-.132,1.45-.396s.788-.606.993-1.028v-1.951h-1.274c-1.992,0-2.988.583-2.988,1.749,0,.51.17.908.51,1.195s.776.431,1.31.431Zm1.503-12.261h1.969l-2.355,2.584-1.31-.005,1.696-2.579Z" fill="#fff"/>
    <path d="m496.636,58.231l-1.02,1.063v3.34h-1.626v-13.5h1.626v8.165l.87-1.046,2.962-3.129h1.978l-3.7,3.973,4.131,5.537h-1.907l-3.313-4.403Z" fill="#fff"/>
    <path d="m504.871,62.635h-1.626v-13.5h1.626v13.5Z" fill="#fff"/>
    <path d="m513.344,62.635c-.094-.188-.17-.521-.229-1.002-.756.785-1.658,1.178-2.707,1.178-.938,0-1.706-.265-2.307-.795s-.901-1.203-.901-2.018c0-.99.377-1.759,1.13-2.307s1.812-.822,3.177-.822h1.582v-.747c0-.568-.17-1.021-.51-1.358s-.841-.505-1.503-.505c-.58,0-1.066.146-1.459.439s-.589.647-.589,1.063h-1.635c0-.475.169-.934.506-1.376s.794-.792,1.371-1.05,1.211-.387,1.902-.387c1.096,0,1.954.273,2.575.821s.943,1.303.967,2.264v4.377c0,.873.111,1.567.334,2.083v.141h-1.705Zm-2.698-1.239c.51,0,.993-.132,1.45-.396s.788-.606.993-1.028v-1.951h-1.274c-1.992,0-2.988.583-2.988,1.749,0,.51.17.908.51,1.195s.776.431,1.31.431Z" fill="#fff"/>
    <path d="m516.868,57.801c0-1.459.346-2.632,1.037-3.521.691-.888,1.597-1.331,2.716-1.331,1.113,0,1.995.381,2.646,1.143v-4.957h1.626v13.5h-1.494l-.079-1.02c-.65.797-1.556,1.195-2.716,1.195-1.102,0-1.999-.451-2.693-1.354s-1.042-2.08-1.042-3.533v-.123Zm1.626.185c0,1.078.223,1.922.668,2.531s1.061.914,1.846.914c1.031,0,1.784-.463,2.259-1.389v-4.368c-.486-.896-1.233-1.345-2.241-1.345-.797,0-1.418.308-1.863.923s-.668,1.526-.668,2.733Z" fill="#fff"/>
    <path d="m528.953,53.125l.053,1.195c.727-.914,1.676-1.371,2.848-1.371,2.01,0,3.023,1.134,3.041,3.401v6.284h-1.626v-6.293c-.006-.686-.162-1.192-.47-1.521s-.787-.492-1.438-.492c-.527,0-.99.141-1.389.422s-.709.65-.932,1.107v6.776h-1.626v-9.51h1.538Z" fill="#fff"/>
    <path d="m539.131,49.144h1.969l-2.355,2.584-1.31-.005,1.696-2.579Zm-.018,13.491h-1.635v-9.51h1.635v9.51Z" fill="#fff"/>
    <path d="m551.787,60.112c0-.439-.165-.78-.496-1.024-.331-.242-.908-.452-1.731-.628s-1.477-.387-1.96-.633-.841-.539-1.072-.879-.348-.744-.348-1.213c0-.779.33-1.438.989-1.978s1.501-.809,2.526-.809c1.078,0,1.953.278,2.624.835s1.006,1.269,1.006,2.136h-1.635c0-.445-.188-.829-.566-1.151s-.854-.483-1.429-.483c-.592,0-1.055.129-1.389.387s-.501.595-.501,1.011c0,.393.155.688.466.888s.872.39,1.684.571,1.469.398,1.973.65.878.556,1.121.909c.243.355.364.787.364,1.297,0,.85-.34,1.531-1.02,2.043-.68.514-1.562.77-2.646.77-.762,0-1.436-.135-2.021-.404s-1.044-.646-1.375-1.129c-.331-.484-.497-1.007-.497-1.569h1.626c.029.545.248.978.655,1.296.407.32.944.479,1.612.479.615,0,1.109-.124,1.481-.374.372-.248.558-.581.558-.997Z" fill="#fff"/>
    <path d="m557.298,62.635h-1.626v-13.5h1.626v13.5Z" fill="#fff"/>
    <path d="m559.469,57.792c0-.932.184-1.77.55-2.514s.876-1.318,1.529-1.723,1.398-.606,2.236-.606c1.295,0,2.342.448,3.143,1.345.799.896,1.199,2.089,1.199,3.577v.114c0,.926-.178,1.757-.531,2.491-.355.736-.861,1.309-1.521,1.719-.658.41-1.416.615-2.271.615-1.289,0-2.333-.448-3.133-1.345s-1.2-2.083-1.2-3.56v-.114Zm1.635.193c0,1.055.245,1.901.734,2.54s1.144.958,1.964.958c.826,0,1.482-.323,1.969-.972.486-.646.729-1.554.729-2.72,0-1.043-.248-1.888-.743-2.535-.494-.648-1.152-.972-1.973-.972-.803,0-1.45.319-1.942.958s-.738,1.553-.738,2.742Z" fill="#fff"/>
    <path d="m571.554,61.308h5.563v1.327h-7.55v-1.195l5.247-6.97h-5.168v-1.345h7.207v1.151l-5.3,7.031Zm1.749-10.679l1.318-1.494h1.406v.088l-2.232,2.408h-.993l-2.206-2.408v-.088h1.38l1.327,1.494Z" fill="#fff"/>
    <path d="m581.6,58.231l-1.02,1.063v3.34h-1.626v-13.5h1.626v8.165l.87-1.046,2.962-3.129h1.978l-3.7,3.973,4.131,5.537h-1.907l-3.313-4.403Z" fill="#fff"/>
    <path d="m593.94,62.635c-.094-.188-.17-.521-.229-1.002-.756.785-1.658,1.178-2.707,1.178-.938,0-1.707-.265-2.307-.795-.602-.53-.901-1.203-.901-2.018,0-.99.376-1.759,1.13-2.307.752-.548,1.812-.822,3.177-.822h1.582v-.747c0-.568-.17-1.021-.51-1.358s-.841-.505-1.503-.505c-.58,0-1.066.146-1.459.439s-.589.647-.589,1.063h-1.635c0-.475.168-.934.505-1.376s.794-.792,1.371-1.05,1.212-.387,1.903-.387c1.096,0,1.954.273,2.575.821s.943,1.303.967,2.264v4.377c0,.873.111,1.567.334,2.083v.141h-1.705Zm-2.698-1.239c.51,0,.993-.132,1.45-.396s.788-.606.993-1.028v-1.951h-1.274c-1.992,0-2.988.583-2.988,1.749,0,.51.17.908.51,1.195s.776.431,1.31.431Z" fill="#fff"/>
    <path d="m478.97,78.763c.469,0,.85-.129,1.143-.387s.445-.601.457-1.028h2.382c-.006.645-.182,1.234-.527,1.771-.346.535-.818.952-1.419,1.248-.601.295-1.265.443-1.991.443-1.359,0-2.432-.432-3.217-1.297-.785-.863-1.178-2.058-1.178-3.581v-.167c0-1.465.39-2.634,1.169-3.507s1.849-1.31,3.208-1.31c1.189,0,2.144.338,2.861,1.016.718.676,1.082,1.577,1.094,2.702h-2.382c-.012-.495-.164-.896-.457-1.206s-.68-.464-1.16-.464c-.592,0-1.038.216-1.34.646-.302.432-.453,1.132-.453,2.1v.265c0,.979.149,1.684.448,2.112s.753.643,1.362.643Z" fill="#fff"/>
    <path d="m488.779,80.811c-1.395,0-2.529-.428-3.405-1.283s-1.314-1.995-1.314-3.419v-.246c0-.955.185-1.809.554-2.562s.893-1.333,1.569-1.74,1.448-.611,2.315-.611c1.301,0,2.325.41,3.072,1.23s1.12,1.983,1.12,3.489v1.037h-6.056c.082.621.33,1.119.743,1.494s.936.562,1.568.562c.979,0,1.743-.354,2.294-1.063l1.248,1.397c-.381.539-.896.96-1.547,1.261-.65.302-1.371.453-2.162.453Zm-.29-7.813c-.504,0-.912.171-1.226.512-.313.342-.515.83-.603,1.466h3.533v-.203c-.012-.565-.164-1.002-.457-1.311-.293-.31-.709-.464-1.248-.464Z" fill="#fff"/>
    <path d="m496.513,71.125l.079,1.063c.674-.826,1.585-1.239,2.733-1.239,1.225,0,2.065.483,2.522,1.45.668-.967,1.62-1.45,2.856-1.45,1.031,0,1.799.301,2.303.9.504.602.756,1.505.756,2.712v6.073h-2.549v-6.064c0-.539-.105-.933-.316-1.182s-.583-.374-1.116-.374c-.762,0-1.289.363-1.582,1.09l.009,6.53h-2.54v-6.056c0-.551-.108-.949-.325-1.195s-.586-.369-1.107-.369c-.721,0-1.242.299-1.564.896v6.724h-2.54v-9.51h2.382Z" fill="#fff"/>
    <path d="m514.091,80.811c-1.395,0-2.529-.428-3.405-1.283s-1.314-1.995-1.314-3.419v-.246c0-.955.185-1.809.554-2.562s.893-1.333,1.569-1.74,1.448-.611,2.315-.611c1.301,0,2.325.41,3.072,1.23s1.12,1.983,1.12,3.489v1.037h-6.056c.082.621.33,1.119.743,1.494s.936.562,1.568.562c.979,0,1.743-.354,2.294-1.063l1.248,1.397c-.381.539-.896.96-1.547,1.261-.65.302-1.371.453-2.162.453Zm-.29-7.813c-.504,0-.912.171-1.226.512-.313.342-.515.83-.603,1.466h3.533v-.203c-.012-.565-.164-1.002-.457-1.311-.293-.31-.709-.464-1.248-.464Z" fill="#fff"/>
    <path d="m521.782,71.125l.079,1.099c.68-.85,1.591-1.274,2.733-1.274,1.008,0,1.758.296,2.25.888s.744,1.477.756,2.654v6.144h-2.54v-6.082c0-.539-.117-.93-.352-1.174-.234-.242-.624-.364-1.169-.364-.715,0-1.251.305-1.608.914v6.706h-2.54v-9.51h2.391Z" fill="#fff"/>
    <path d="m532.566,68.787v2.338h1.626v1.863h-1.626v4.746c0,.352.067.604.202.756s.393.229.773.229c.281,0,.53-.021.747-.062v1.925c-.498.152-1.011.229-1.538.229-1.781,0-2.689-.899-2.725-2.698v-5.124h-1.389v-1.863h1.389v-2.338h2.54Z" fill="#fff"/>
    <path d="m541.302,79.668c-.627.762-1.494,1.143-2.602,1.143-1.02,0-1.797-.293-2.333-.879s-.811-1.444-.822-2.575v-6.231h2.54v6.15c0,.991.451,1.487,1.354,1.487.861,0,1.453-.299,1.775-.897v-6.74h2.549v9.51h-2.391l-.07-.967Z" fill="#fff"/>
  </g>
  <g>
    <path d="m313.474,62.272c.516,0,.966-.156,1.352-.469.385-.312.599-.703.641-1.172h1.367c-.026.484-.193.945-.5,1.383-.308.438-.718.786-1.23,1.047-.514.261-1.057.391-1.629.391-1.151,0-2.066-.384-2.746-1.152s-1.02-1.819-1.02-3.152v-.242c0-.823.15-1.555.453-2.195.302-.641.735-1.138,1.301-1.492.564-.354,1.232-.531,2.004-.531.947,0,1.735.284,2.363.852.627.567.962,1.305,1.004,2.211h-1.367c-.042-.547-.249-.996-.621-1.348-.373-.352-.832-.527-1.379-.527-.734,0-1.304.265-1.707.793-.404.528-.605,1.293-.605,2.293v.273c0,.974.2,1.724.602,2.25.4.526.974.789,1.719.789Z" fill="#666"/>
    <path d="m319.904,55.865c.641-.786,1.474-1.18,2.5-1.18,1.786,0,2.688,1.008,2.703,3.023v5.586h-1.445v-5.594c-.006-.609-.145-1.06-.418-1.352s-.699-.438-1.277-.438c-.469,0-.881.125-1.234.375-.354.25-.631.578-.828.984v6.023h-1.445v-12h1.445v4.57Z" fill="#666"/>
    <path d="m330.779,63.451c-1.146,0-2.078-.376-2.797-1.129s-1.078-1.759-1.078-3.02v-.266c0-.839.16-1.587.48-2.246s.768-1.175,1.344-1.547c.575-.372,1.199-.559,1.871-.559,1.099,0,1.953.362,2.562,1.086s.914,1.761.914,3.109v.602h-5.727c.021.833.264,1.507.73,2.02.466.513,1.059.77,1.777.77.51,0,.942-.104,1.297-.312.354-.208.664-.484.93-.828l.883.688c-.709,1.089-1.771,1.633-3.188,1.633Zm-.18-7.578c-.584,0-1.073.212-1.469.637-.396.425-.641,1.02-.734,1.785h4.234v-.109c-.042-.734-.24-1.304-.594-1.707-.354-.403-.834-.605-1.438-.605Z" fill="#666"/>
    <path d="m337.107,54.842l.039.938c.619-.729,1.455-1.094,2.508-1.094,1.182,0,1.986.453,2.414,1.359.281-.406.646-.734,1.098-.984.45-.25.982-.375,1.598-.375,1.854,0,2.797.981,2.828,2.945v5.664h-1.445v-5.578c0-.604-.139-1.056-.414-1.355-.276-.3-.74-.449-1.391-.449-.537,0-.982.16-1.336.48-.354.32-.561.751-.617,1.293v5.609h-1.453v-5.539c0-1.229-.602-1.844-1.805-1.844-.948,0-1.597.403-1.945,1.211v6.172h-1.445v-8.453h1.367Z" fill="#666"/>
    <path d="m349.779,52.6c0-.234.071-.433.215-.594.143-.161.355-.242.637-.242s.494.081.641.242c.146.161.219.359.219.594s-.073.43-.219.586c-.146.156-.359.234-.641.234s-.494-.078-.637-.234c-.144-.156-.215-.352-.215-.586Zm1.562,10.695h-1.445v-8.453h1.445v8.453Z" fill="#666"/>
    <path d="m357.044,62.272c.516,0,.966-.156,1.352-.469.385-.312.599-.703.641-1.172h1.367c-.026.484-.193.945-.5,1.383-.308.438-.718.786-1.23,1.047-.514.261-1.057.391-1.629.391-1.151,0-2.066-.384-2.746-1.152s-1.02-1.819-1.02-3.152v-.242c0-.823.15-1.555.453-2.195.302-.641.735-1.138,1.301-1.492.564-.354,1.232-.531,2.004-.531.947,0,1.735.284,2.363.852.627.567.962,1.305,1.004,2.211h-1.367c-.042-.547-.249-.996-.621-1.348-.373-.352-.832-.527-1.379-.527-.734,0-1.304.265-1.707.793-.404.528-.605,1.293-.605,2.293v.273c0,.974.2,1.724.602,2.25.4.526.974.789,1.719.789Z" fill="#666"/>
    <path d="m364.388,59.381l-.906.945v2.969h-1.445v-12h1.445v7.258l.773-.93,2.633-2.781h1.758l-3.289,3.531,3.672,4.922h-1.695l-2.945-3.914Z" fill="#666"/>
    <path d="m375.357,63.295c-.084-.167-.151-.464-.203-.891-.672.698-1.475,1.047-2.406,1.047-.834,0-1.518-.235-2.051-.707-.534-.472-.801-1.069-.801-1.793,0-.88.334-1.563,1.004-2.051.669-.487,1.61-.73,2.824-.73h1.406v-.664c0-.505-.151-.907-.453-1.207-.303-.3-.748-.449-1.336-.449-.516,0-.948.13-1.297.391-.35.261-.523.575-.523.945h-1.453c0-.422.149-.829.449-1.223.299-.394.705-.704,1.219-.934.513-.229,1.076-.344,1.691-.344.974,0,1.736.243,2.289.73.552.487.838,1.157.859,2.012v3.891c0,.776.099,1.394.297,1.852v.125h-1.516Zm-2.398-1.102c.453,0,.883-.117,1.289-.352s.7-.539.883-.914v-1.734h-1.133c-1.771,0-2.656.519-2.656,1.555,0,.453.15.808.453,1.062.302.255.689.383,1.164.383Zm1.336-10.898h1.75l-2.094,2.297-1.164-.004,1.508-2.293Z" fill="#666"/>
    <path d="m324.923,73.139c-.219-.036-.456-.055-.711-.055-.948,0-1.592.403-1.93,1.211v6h-1.445v-8.453h1.406l.023.977c.474-.755,1.146-1.133,2.016-1.133.281,0,.494.036.641.109v1.344Z" fill="#666"/>
    <path d="m329.611,80.451c-1.146,0-2.078-.376-2.797-1.129s-1.078-1.759-1.078-3.02v-.266c0-.839.16-1.587.48-2.246s.768-1.175,1.344-1.547c.575-.372,1.199-.559,1.871-.559,1.099,0,1.953.362,2.562,1.086s.914,1.761.914,3.109v.602h-5.727c.021.833.264,1.507.73,2.02.466.513,1.059.77,1.777.77.51,0,.942-.104,1.297-.312.354-.208.664-.484.93-.828l.883.688c-.709,1.089-1.771,1.633-3.188,1.633Zm-.18-7.578c-.584,0-1.073.212-1.469.637-.396.425-.641,1.02-.734,1.785h4.234v-.109c-.042-.734-.24-1.304-.594-1.707-.354-.403-.834-.605-1.438-.605Z" fill="#666"/>
    <path d="m339.798,80.295c-.084-.167-.151-.464-.203-.891-.672.698-1.475,1.047-2.406,1.047-.834,0-1.518-.235-2.051-.707-.534-.472-.801-1.069-.801-1.793,0-.88.334-1.563,1.004-2.051.669-.487,1.61-.73,2.824-.73h1.406v-.664c0-.505-.151-.907-.453-1.207-.303-.3-.748-.449-1.336-.449-.516,0-.948.13-1.297.391-.35.261-.523.575-.523.945h-1.453c0-.422.149-.829.449-1.223.299-.394.705-.704,1.219-.934.513-.229,1.076-.344,1.691-.344.974,0,1.736.243,2.289.73.552.487.838,1.157.859,2.012v3.891c0,.776.099,1.394.297,1.852v.125h-1.516Zm-2.398-1.102c.453,0,.883-.117,1.289-.352s.7-.539.883-.914v-1.734h-1.133c-1.771,0-2.656.519-2.656,1.555,0,.453.15.808.453,1.062.302.255.689.383,1.164.383Z" fill="#666"/>
    <path d="m345.642,76.381l-.906.945v2.969h-1.445v-12h1.445v7.258l.773-.93,2.633-2.781h1.758l-3.289,3.531,3.672,4.922h-1.695l-2.945-3.914Z" fill="#666"/>
    <path d="m354.626,79.272c.516,0,.966-.156,1.352-.469.385-.312.599-.703.641-1.172h1.367c-.026.484-.193.945-.5,1.383-.308.438-.718.786-1.23,1.047-.514.261-1.057.391-1.629.391-1.151,0-2.066-.384-2.746-1.152s-1.02-1.819-1.02-3.152v-.242c0-.823.15-1.555.453-2.195.302-.641.735-1.138,1.301-1.492.564-.354,1.232-.531,2.004-.531.947,0,1.735.284,2.363.852.627.567.962,1.305,1.004,2.211h-1.367c-.042-.547-.249-.996-.621-1.348-.373-.352-.832-.527-1.379-.527-.734,0-1.304.265-1.707.793-.404.528-.605,1.293-.605,2.293v.273c0,.974.2,1.724.602,2.25.4.526.974.789,1.719.789Z" fill="#666"/>
    <path d="m363.118,80.451c-1.146,0-2.078-.376-2.797-1.129s-1.078-1.759-1.078-3.02v-.266c0-.839.16-1.587.48-2.246s.768-1.175,1.344-1.547c.575-.372,1.199-.559,1.871-.559,1.099,0,1.953.362,2.562,1.086s.914,1.761.914,3.109v.602h-5.727c.021.833.264,1.507.73,2.02.466.513,1.059.77,1.777.77.51,0,.942-.104,1.297-.312.354-.208.664-.484.93-.828l.883.688c-.709,1.089-1.771,1.633-3.188,1.633Zm-.18-7.578c-.584,0-1.073.212-1.469.637-.396.425-.641,1.02-.734,1.785h4.234v-.109c-.042-.734-.24-1.304-.594-1.707-.354-.403-.834-.605-1.438-.605Z" fill="#666"/>
  </g>
  <circle cx="215.69" cy="268.779" r="45.447" fill="#f2f2f2"/>
  <g>
    <path d="m187.737,270.581c0-.391-.147-.694-.441-.91s-.808-.402-1.539-.559-1.312-.344-1.742-.562-.747-.479-.953-.781-.309-.661-.309-1.078c0-.692.293-1.278.879-1.758s1.335-.719,2.246-.719c.958,0,1.735.247,2.332.742s.895,1.128.895,1.898h-1.453c0-.396-.168-.737-.504-1.023s-.759-.43-1.27-.43c-.526,0-.938.114-1.234.344s-.445.528-.445.898c0,.349.138.612.414.789s.774.347,1.496.508,1.306.354,1.754.578.78.493.996.809.324.699.324,1.152c0,.755-.302,1.36-.906,1.816s-1.388.684-2.352.684c-.677,0-1.276-.12-1.797-.359s-.929-.574-1.223-1.004-.441-.895-.441-1.395h1.445c.026.484.22.868.582,1.152s.84.426,1.434.426c.547,0,.985-.11,1.316-.332s.496-.517.496-.887Z" fill="#666"/>
    <path d="m198.205,268.69c0,1.286-.294,2.323-.883,3.109s-1.386,1.18-2.391,1.18c-1.026,0-1.833-.325-2.422-.977v4.07h-1.445v-11.703h1.32l.07.938c.589-.729,1.406-1.094,2.453-1.094,1.016,0,1.819.383,2.41,1.148s.887,1.831.887,3.195v.133Zm-1.445-.164c0-.953-.203-1.706-.609-2.258s-.964-.828-1.672-.828c-.875,0-1.531.388-1.969,1.164v4.039c.433.771,1.094,1.156,1.984,1.156.692,0,1.243-.274,1.652-.824s.613-1.366.613-2.449Z" fill="#666"/>
    <path d="m205.26,272.823c-.083-.167-.151-.464-.203-.891-.672.698-1.474,1.047-2.406,1.047-.833,0-1.517-.235-2.051-.707s-.801-1.069-.801-1.793c0-.88.335-1.563,1.004-2.051s1.61-.73,2.824-.73h1.406v-.664c0-.505-.151-.907-.453-1.207s-.747-.449-1.336-.449c-.516,0-.948.13-1.297.391s-.523.575-.523.945h-1.453c0-.422.149-.829.449-1.223s.706-.704,1.219-.934,1.077-.344,1.691-.344c.974,0,1.737.243,2.289.73s.839,1.157.859,2.012v3.891c0,.776.099,1.394.297,1.852v.125h-1.516Zm-2.398-1.102c.453,0,.883-.117,1.289-.352s.7-.539.883-.914v-1.734h-1.133c-1.771,0-2.656.519-2.656,1.555,0,.453.151.808.453,1.062s.69.383,1.164.383Z" fill="#666"/>
    <path d="m210.315,272.823h-1.445v-12h1.445v12Z" fill="#666"/>
    <path d="m212.244,268.519c0-.828.163-1.573.488-2.234s.778-1.172,1.359-1.531,1.243-.539,1.988-.539c1.151,0,2.082.398,2.793,1.195s1.066,1.856,1.066,3.18v.102c0,.823-.157,1.562-.473,2.215s-.766,1.163-1.352,1.527-1.259.547-2.02.547c-1.146,0-2.074-.398-2.785-1.195s-1.066-1.852-1.066-3.164v-.102Zm1.453.172c0,.938.218,1.69.652,2.258s1.017.852,1.746.852c.734,0,1.317-.288,1.75-.863s.648-1.382.648-2.418c0-.927-.22-1.679-.66-2.254s-1.024-.863-1.754-.863c-.714,0-1.289.284-1.727.852s-.656,1.38-.656,2.438Z" fill="#666"/>
    <path d="m224.424,270.862l2.094-6.492h1.477l-3.031,8.453h-1.102l-3.062-8.453h1.477l2.148,6.492Z" fill="#666"/>
    <path d="m234.487,272.823c-.083-.167-.151-.464-.203-.891-.672.698-1.474,1.047-2.406,1.047-.833,0-1.517-.235-2.051-.707s-.801-1.069-.801-1.793c0-.88.335-1.563,1.004-2.051s1.61-.73,2.824-.73h1.406v-.664c0-.505-.151-.907-.453-1.207s-.747-.449-1.336-.449c-.516,0-.948.13-1.297.391s-.523.575-.523.945h-1.453c0-.422.149-.829.449-1.223s.706-.704,1.219-.934,1.077-.344,1.691-.344c.974,0,1.737.243,2.289.73s.839,1.157.859,2.012v3.891c0,.776.099,1.394.297,1.852v.125h-1.516Zm-2.398-1.102c.453,0,.883-.117,1.289-.352s.7-.539.883-.914v-1.734h-1.133c-1.771,0-2.656.519-2.656,1.555,0,.453.151.808.453,1.062s.69.383,1.164.383Zm1.336-10.898h1.75l-2.094,2.297-1.164-.004,1.508-2.293Z" fill="#666"/>
    <path d="m239.338,264.37l.047,1.062c.646-.812,1.489-1.219,2.531-1.219,1.786,0,2.688,1.008,2.703,3.023v5.586h-1.445v-5.594c-.005-.609-.145-1.06-.418-1.352s-.699-.438-1.277-.438c-.469,0-.88.125-1.234.375s-.63.578-.828.984v6.023h-1.445v-8.453h1.367Z" fill="#666"/>
    <path d="m248.385,260.831h1.75l-2.094,2.297-1.164-.004,1.508-2.293Zm-.016,11.992h-1.453v-8.453h1.453v8.453Z" fill="#666"/>
  </g>
  <g>
    <line x1="233.793" y1="65.447" x2="281.255" y2="65.447" fill="none" stroke="#b3b3b3" stroke-miterlimit="10"/>
    <polygon points="279.796 70.433 288.431 65.447 279.796 60.46 279.796 70.433" fill="#b3b3b3"/>
  </g>
  <g>
    <line x1="398.304" y1="65.447" x2="445.766" y2="65.447" fill="none" stroke="#b3b3b3" stroke-miterlimit="10"/>
    <polygon points="444.307 70.433 452.942 65.447 444.307 60.46 444.307 70.433" fill="#b3b3b3"/>
  </g>
  <g>
    <path d="m536.041,217.209c-.1,1.377-.607,2.461-1.524,3.252s-2.126,1.187-3.626,1.187c-1.641,0-2.931-.552-3.871-1.656s-1.411-2.621-1.411-4.549v-.782c0-1.23.217-2.314.65-3.252s1.054-1.657,1.859-2.158,1.741-.751,2.808-.751c1.477,0,2.666.396,3.568,1.187s1.424,1.901,1.564,3.331h-2.637c-.064-.826-.294-1.426-.689-1.798s-.998-.558-1.807-.558c-.879,0-1.536.314-1.973.944s-.661,1.607-.673,2.932v.967c0,1.383.21,2.394.629,3.032s1.079.958,1.981.958c.814,0,1.423-.186,1.824-.558s.631-.948.689-1.728h2.637Z" fill="#fff"/>
    <path d="m548.284,215.363c0,1.26-.223,2.364-.668,3.313s-1.082,1.682-1.911,2.197-1.78.773-2.853.773c-1.061,0-2.007-.255-2.839-.765s-1.477-1.237-1.934-2.185c-.457-.945-.688-2.034-.694-3.265v-.633c0-1.26.228-2.369.682-3.327s1.096-1.693,1.925-2.206,1.776-.769,2.843-.769,2.015.256,2.844.769,1.471,1.248,1.925,2.206.681,2.064.681,3.318v.571Zm-2.672-.58c0-1.342-.24-2.361-.721-3.059s-1.166-1.046-2.057-1.046c-.885,0-1.567.344-2.048,1.032s-.724,1.698-.729,3.028v.624c0,1.307.24,2.32.721,3.041s1.172,1.081,2.074,1.081c.885,0,1.564-.348,2.039-1.041.475-.695.715-1.707.721-3.037v-.624Z" fill="#fff"/>
    <path d="m554.679,225.466h-5.113v-1.015l2.413-2.572c.331-.362.576-.678.735-.948.159-.27.238-.525.238-.769,0-.331-.084-.592-.251-.781-.168-.189-.406-.284-.718-.284-.335,0-.599.115-.791.346-.193.23-.29.534-.29.909h-1.485c0-.454.108-.869.325-1.245.217-.375.523-.67.92-.884.396-.213.845-.32,1.348-.32.769,0,1.365.185,1.79.554.426.369.639.89.639,1.562,0,.369-.096.745-.287,1.128s-.52.828-.984,1.337l-1.695,1.788h3.207v1.194Z" fill="#fff"/>
  </g>
  <g fill="none" opacity=".8">
    <path d="m532.677,245.157c0,1.481-.253,2.582-.759,3.302s-1.297,1.08-2.372,1.08c-1.062,0-1.849-.352-2.358-1.057-.511-.703-.775-1.755-.793-3.154v-1.688c0-1.463.253-2.55.759-3.261s1.299-1.066,2.379-1.066c1.07,0,1.859.343,2.365,1.029.506.686.766,1.743.779,3.175v1.641Zm-1.265-1.729c0-1.071-.15-1.852-.451-2.341-.301-.49-.777-.735-1.429-.735-.647,0-1.119.244-1.415.731-.297.488-.449,1.237-.458,2.249v2.023c0,1.075.156,1.869.468,2.383.312.512.785.769,1.419.769.624,0,1.088-.241,1.391-.725.304-.483.462-1.244.476-2.283v-2.071Z" fill="#ff4d4f"/>
    <path d="m534.386,251.385l-.718-.492c.428-.597.651-1.212.67-1.846v-1.142h1.237v.991c0,.46-.113.921-.339,1.381s-.509.829-.851,1.107Z" fill="#ff4d4f"/>
    <path d="m538.884,243.811h.95c.597-.009,1.066-.166,1.408-.472s.513-.718.513-1.237c0-1.166-.581-1.75-1.743-1.75-.547,0-.983.156-1.31.469-.325.312-.488.726-.488,1.24h-1.265c0-.788.288-1.443.864-1.965.577-.522,1.31-.783,2.198-.783.938,0,1.675.249,2.208.745.533.497.8,1.188.8,2.071,0,.433-.141.853-.421,1.258s-.662.709-1.145.909c.547.173.97.46,1.268.861.299.401.448.891.448,1.47,0,.894-.292,1.602-.875,2.126-.584.524-1.343.786-2.276.786s-1.694-.253-2.28-.759c-.585-.506-.878-1.174-.878-2.003h1.271c0,.524.171.943.513,1.258s.8.472,1.374.472c.61,0,1.077-.159,1.401-.479.323-.319.485-.777.485-1.374,0-.579-.178-1.023-.533-1.333s-.868-.47-1.538-.479h-.95v-1.032Z" fill="#ff4d4f"/>
    <path d="m545.488,244.412l.506-4.963h5.1v1.169h-4.026l-.301,2.714c.487-.287,1.041-.431,1.661-.431.906,0,1.627.3,2.16.899.533.599.8,1.409.8,2.43s-.277,1.833-.831,2.424c-.554.59-1.327.885-2.32.885-.88,0-1.598-.244-2.153-.731-.557-.487-.873-1.162-.95-2.023h1.196c.077.569.28.999.608,1.288.328.29.761.435,1.299.435.588,0,1.049-.2,1.384-.602s.503-.955.503-1.661c0-.665-.182-1.199-.544-1.604-.362-.402-.844-.604-1.445-.604-.552,0-.984.121-1.299.362l-.335.273-1.012-.26Z" fill="#ff4d4f"/>
    <path d="m558.428,245.978l-.793.827v2.598h-1.265v-10.5h1.265v6.351l.677-.813,2.304-2.434h1.538l-2.878,3.09,3.213,4.307h-1.483l-2.577-3.425Z" fill="#ff4d4f"/>
    <path d="m563.022,245.643c0-1.153.267-2.07.8-2.752.533-.681,1.239-1.021,2.119-1.021.902,0,1.606.319,2.112.957l.062-.82h1.155v7.219c0,.957-.284,1.711-.852,2.263s-1.329.827-2.286.827c-.533,0-1.056-.114-1.565-.342-.511-.228-.9-.54-1.169-.937l.656-.759c.542.67,1.205,1.005,1.989,1.005.615,0,1.095-.173,1.438-.52.345-.347.517-.834.517-1.463v-.636c-.506.583-1.196.875-2.071.875-.866,0-1.566-.349-2.103-1.046-.535-.697-.803-1.647-.803-2.851Zm1.271.144c0,.834.171,1.489.513,1.966.342.476.82.714,1.436.714.797,0,1.383-.362,1.757-1.087v-3.377c-.388-.706-.969-1.06-1.743-1.06-.615,0-1.097.239-1.442.718-.347.479-.52,1.188-.52,2.126Z" fill="#ff4d4f"/>
  </g>
  <g>
    <path d="m470.946,107.936h-1.271v-8.429l-2.55.937v-1.148l3.623-1.36h.198v10.001Z" fill="#2e3d99"/>
    <path d="m474.74,109.918l-.718-.492c.428-.597.651-1.212.67-1.846v-1.142h1.237v.991c0,.46-.113.921-.339,1.381s-.509.829-.851,1.107Z" fill="#2e3d99"/>
    <path d="m483.64,103.69c0,1.481-.253,2.582-.759,3.302s-1.297,1.08-2.372,1.08c-1.062,0-1.849-.352-2.358-1.057-.511-.703-.775-1.755-.793-3.154v-1.688c0-1.463.253-2.55.759-3.261s1.299-1.066,2.379-1.066c1.07,0,1.859.343,2.365,1.029.506.686.766,1.743.779,3.175v1.641Zm-1.265-1.729c0-1.071-.15-1.852-.451-2.341-.301-.49-.777-.735-1.429-.735-.647,0-1.119.244-1.415.731-.297.488-.449,1.237-.458,2.249v2.023c0,1.075.156,1.869.468,2.383.312.512.785.769,1.419.769.624,0,1.088-.241,1.391-.725.304-.483.462-1.244.476-2.283v-2.071Z" fill="#2e3d99"/>
    <path d="m490.92,104.511l-.793.827v2.598h-1.265v-10.5h1.265v6.351l.677-.813,2.304-2.434h1.538l-2.878,3.09,3.213,4.307h-1.483l-2.577-3.425Z" fill="#2e3d99"/>
    <path d="m495.514,104.176c0-1.153.267-2.07.8-2.752.533-.681,1.239-1.021,2.119-1.021.902,0,1.606.319,2.112.957l.062-.82h1.155v7.219c0,.957-.284,1.711-.852,2.263s-1.329.827-2.286.827c-.533,0-1.056-.114-1.565-.342-.511-.228-.9-.54-1.169-.937l.656-.759c.542.67,1.205,1.005,1.989,1.005.615,0,1.095-.173,1.438-.52.345-.347.517-.834.517-1.463v-.636c-.506.583-1.196.875-2.071.875-.866,0-1.566-.349-2.103-1.046-.535-.697-.803-1.647-.803-2.851Zm1.271.144c0,.834.171,1.489.513,1.966.342.476.82.714,1.436.714.797,0,1.383-.362,1.757-1.087v-3.377c-.388-.706-.969-1.06-1.743-1.06-.615,0-1.097.239-1.442.718-.347.479-.52,1.188-.52,2.126Z" fill="#2e3d99"/>
  </g>
  <g>
    <path d="m485.337,217.813c-.1,1.377-.608,2.461-1.525,3.252s-2.125,1.187-3.625,1.187c-1.641,0-2.932-.552-3.872-1.656s-1.41-2.621-1.41-4.549v-.782c0-1.23.217-2.314.65-3.252s1.053-1.656,1.858-2.157,1.742-.752,2.809-.752c1.477,0,2.666.396,3.568,1.187s1.424,1.901,1.564,3.331h-2.637c-.064-.826-.295-1.425-.69-1.797s-.997-.559-1.806-.559c-.879,0-1.537.315-1.974.945s-.66,1.606-.672,2.931v.967c0,1.383.209,2.394.628,3.032s1.08.958,1.982.958c.814,0,1.422-.186,1.823-.558s.632-.948.69-1.728h2.637Z" fill="#fff"/>
    <path d="m497.58,215.967c0,1.26-.223,2.364-.668,3.313s-1.083,1.682-1.912,2.197-1.779.773-2.852.773c-1.061,0-2.007-.255-2.839-.765s-1.477-1.237-1.934-2.185c-.457-.945-.688-2.034-.694-3.265v-.633c0-1.26.227-2.368.681-3.326s1.096-1.693,1.925-2.206,1.777-.77,2.844-.77,2.014.257,2.843.77,1.471,1.248,1.925,2.206.682,2.063.682,3.317v.571Zm-2.672-.58c0-1.342-.24-2.361-.721-3.059s-1.166-1.046-2.057-1.046c-.885,0-1.567.345-2.048,1.033s-.724,1.697-.729,3.027v.624c0,1.307.24,2.32.721,3.041s1.172,1.081,2.074,1.081c.885,0,1.564-.348,2.039-1.041.475-.695.715-1.707.721-3.037v-.624Z" fill="#fff"/>
    <path d="m503.975,226.069h-5.114v-1.015l2.414-2.572c.331-.362.576-.678.734-.948.159-.27.238-.525.238-.769,0-.331-.083-.592-.251-.781-.167-.189-.406-.284-.717-.284-.335,0-.599.115-.792.346s-.289.534-.289.909h-1.486c0-.454.108-.869.325-1.245.217-.375.523-.67.92-.884.396-.213.846-.32,1.348-.32.769,0,1.365.185,1.791.554.425.369.638.89.638,1.562,0,.369-.096.745-.287,1.128s-.519.828-.983,1.337l-1.696,1.788h3.208v1.194Z" fill="#fff"/>
  </g>
  <g fill="none" opacity=".8">
    <path d="m473.926,244.778c0,1.481-.253,2.582-.759,3.302s-1.296,1.08-2.372,1.08c-1.062,0-1.848-.352-2.358-1.057-.51-.703-.774-1.755-.793-3.154v-1.688c0-1.463.253-2.55.759-3.261s1.299-1.066,2.379-1.066c1.071,0,1.859.343,2.365,1.028.506.687.766,1.744.779,3.176v1.641Zm-1.265-1.729c0-1.071-.15-1.852-.451-2.342-.301-.489-.776-.734-1.429-.734-.646,0-1.118.243-1.415.731-.296.487-.448,1.237-.458,2.249v2.023c0,1.075.156,1.869.469,2.383.312.512.785.769,1.418.769.625,0,1.088-.241,1.392-.725.303-.483.461-1.244.475-2.283v-2.071Z" fill="#ff4d4f"/>
    <path d="m475.635,251.006l-.718-.492c.429-.597.652-1.212.67-1.846v-1.142h1.237v.991c0,.46-.112.921-.338,1.381s-.51.829-.852,1.107Z" fill="#ff4d4f"/>
    <path d="m484.816,249.023h-6.521v-.909l3.445-3.828c.511-.579.862-1.05,1.057-1.411.193-.363.29-.737.29-1.125,0-.52-.157-.946-.472-1.278-.314-.333-.733-.499-1.258-.499-.629,0-1.117.179-1.466.536-.349.358-.523.855-.523,1.494h-1.265c0-.916.295-1.657.886-2.222.59-.565,1.38-.848,2.368-.848.926,0,1.657.242,2.194.728.538.485.807,1.132.807,1.938,0,.979-.624,2.146-1.873,3.5l-2.666,2.892h4.997v1.032Z" fill="#ff4d4f"/>
    <path d="m486.737,244.033l.506-4.963h5.1v1.169h-4.026l-.301,2.714c.488-.287,1.042-.431,1.661-.431.907,0,1.627.3,2.16.899.533.599.8,1.409.8,2.43s-.276,1.833-.83,2.424c-.554.59-1.327.885-2.321.885-.879,0-1.597-.244-2.153-.731-.556-.487-.872-1.162-.95-2.023h1.196c.078.569.28.999.608,1.288.328.29.762.435,1.299.435.588,0,1.05-.2,1.385-.602s.502-.955.502-1.661c0-.665-.181-1.199-.543-1.604-.362-.402-.845-.604-1.446-.604-.551,0-.984.121-1.299.362l-.335.273-1.012-.26Z" fill="#ff4d4f"/>
    <path d="m499.677,245.599l-.793.827v2.598h-1.265v-10.5h1.265v6.351l.677-.813,2.304-2.434h1.538l-2.878,3.09,3.213,4.307h-1.483l-2.577-3.425Z" fill="#ff4d4f"/>
    <path d="m504.271,245.264c0-1.153.267-2.07.8-2.752.533-.681,1.24-1.021,2.119-1.021.902,0,1.606.319,2.112.957l.062-.82h1.155v7.219c0,.957-.283,1.711-.851,2.263s-1.33.827-2.287.827c-.533,0-1.055-.114-1.565-.342-.51-.228-.899-.54-1.169-.937l.656-.759c.543.67,1.206,1.005,1.989,1.005.615,0,1.095-.173,1.439-.52.344-.347.516-.834.516-1.463v-.636c-.506.583-1.196.875-2.071.875-.865,0-1.566-.349-2.102-1.046-.536-.697-.804-1.647-.804-2.851Zm1.271.144c0,.834.171,1.489.513,1.966.342.476.82.714,1.436.714.798,0,1.384-.362,1.757-1.087v-3.377c-.387-.706-.968-1.06-1.743-1.06-.615,0-1.096.239-1.442.718-.346.479-.52,1.188-.52,2.126Z" fill="#ff4d4f"/>
  </g>
  <g>
    <path d="m277.389,268.854c22.205,0,66.257,2.339,83.717-26.469,16.242-26.8,41.37-37.055,85.565-36.83" fill="none" stroke="#b3b3b3" stroke-miterlimit="10" stroke-width=".888"/>
    <polygon points="445.324 209.996 453.047 205.655 445.427 201.136 445.324 209.996" fill="#b3b3b3"/>
  </g>
  <g>
    <path d="m283.589,151.772c-7.442-18.101-6.102-33.543,7.193-48.541" fill="none" stroke="#b3b3b3" stroke-miterlimit="10"/>
    <polygon points="293.41 107.785 295.81 98.107 286.228 100.866 293.41 107.785" fill="#b3b3b3"/>
  </g>
  <g>
    <path d="m256.67,234.942c16.738-9.84,27.181-23.521,29.057-42.001" fill="none" stroke="#b3b3b3" stroke-miterlimit="10"/>
    <polygon points="290.56 194.649 286.023 185.769 280.6 194.137 290.56 194.649" fill="#b3b3b3"/>
  </g>
  <g>
    <path d="m98.425,300.06c9.393-18.442,25.835-17.988,45.994-18.449" fill="none" stroke="#b3b3b3" stroke-miterlimit="10"/>
    <polygon points="143.099 286.607 151.592 281.382 142.821 276.639 143.099 286.607" fill="#b3b3b3"/>
  </g>
  <g>
    <path d="m98.425,231.767c9.393,18.444,25.837,20.986,45.998,22.071" fill="none" stroke="#b3b3b3" stroke-miterlimit="10"/>
    <polygon points="142.723 258.737 151.592 254.179 143.211 248.776 142.723 258.737" fill="#b3b3b3"/>
  </g>
  <g>
    <path d="m156.036,45.897c-.141,1.203-.584,2.132-1.332,2.785-.747.653-1.74.98-2.98.98-1.344,0-2.42-.481-3.23-1.445-.81-.964-1.215-2.253-1.215-3.867v-1.094c0-1.058.189-1.987.566-2.789.378-.802.913-1.418,1.605-1.848.693-.43,1.495-.645,2.406-.645,1.209,0,2.178.337,2.906,1.012.729.675,1.154,1.608,1.273,2.801h-1.508c-.13-.909-.412-1.567-.848-1.975-.435-.407-1.043-.611-1.824-.611-.958,0-1.709.354-2.254,1.063-.544.709-.816,1.718-.816,3.026v1.102c0,1.236.258,2.219.773,2.948s1.237,1.095,2.164,1.095c.834,0,1.473-.188,1.918-.566s.741-1.035.887-1.973h1.508Z" fill="gray"/>
    <path d="m163.076,49.506c-.083-.167-.15-.464-.203-.891-.672.698-1.474,1.047-2.406,1.047-.833,0-1.517-.235-2.051-.707-.533-.472-.801-1.069-.801-1.793,0-.88.335-1.563,1.004-2.051.67-.487,1.611-.73,2.824-.73h1.406v-.664c0-.505-.15-.907-.453-1.207-.302-.3-.747-.449-1.336-.449-.516,0-.947.13-1.297.391-.349.261-.523.575-.523.945h-1.453c0-.422.15-.829.449-1.223.3-.394.706-.704,1.219-.934.514-.229,1.077-.344,1.691-.344.975,0,1.737.243,2.289.73.553.487.839,1.157.859,2.012v3.891c0,.776.1,1.394.297,1.852v.125h-1.516Zm-2.398-1.102c.453,0,.883-.117,1.289-.352s.701-.539.883-.914v-1.734h-1.133c-1.771,0-2.656.519-2.656,1.555,0,.453.151.808.453,1.062.303.255.69.383,1.164.383Z" fill="gray"/>
    <path d="m175.154,45.897c-.141,1.203-.584,2.132-1.332,2.785-.747.653-1.74.98-2.98.98-1.344,0-2.42-.481-3.23-1.445-.81-.964-1.215-2.253-1.215-3.867v-1.094c0-1.058.189-1.987.566-2.789.378-.802.913-1.418,1.605-1.848.693-.43,1.495-.645,2.406-.645,1.209,0,2.178.337,2.906,1.012.729.675,1.154,1.608,1.273,2.801h-1.508c-.13-.909-.412-1.567-.848-1.975-.435-.407-1.043-.611-1.824-.611-.958,0-1.709.354-2.254,1.063-.544.709-.816,1.718-.816,3.026v1.102c0,1.236.258,2.219.773,2.948s1.237,1.095,2.164,1.095c.834,0,1.473-.188,1.918-.566s.741-1.035.887-1.973h1.508Z" fill="gray"/>
    <path d="m185.951,44.186c0,1.114-.188,2.087-.562,2.918s-.906,1.465-1.594,1.902-1.489.656-2.406.656c-.896,0-1.689-.22-2.383-.66-.692-.44-1.23-1.067-1.613-1.883s-.579-1.759-.59-2.832v-.82c0-1.094.19-2.06.57-2.898.381-.839.918-1.48,1.613-1.926s1.491-.668,2.387-.668c.912,0,1.715.22,2.41.66s1.23,1.078,1.605,1.914.562,1.809.562,2.918v.719Zm-1.492-.734c0-1.349-.271-2.384-.812-3.105-.541-.722-1.299-1.082-2.273-1.082-.947,0-1.693.36-2.238,1.082-.544.722-.824,1.723-.84,3.004v.836c0,1.308.275,2.335.824,3.082.55.747,1.307,1.121,2.27,1.121.969,0,1.719-.353,2.25-1.059s.805-1.718.82-3.035v-.844Z" fill="gray"/>
    <path d="m188.658,49.108h.633c.397-.006.711-.111.938-.314.229-.203.342-.479.342-.824,0-.777-.387-1.166-1.161-1.166-.364,0-.655.104-.872.312s-.326.484-.326.827h-.842c0-.525.191-.962.576-1.31.384-.348.871-.521,1.464-.521.626,0,1.116.165,1.472.496s.532.791.532,1.381c0,.288-.093.567-.28.838-.187.27-.441.472-.763.605.364.115.646.307.845.574.199.267.299.594.299.979,0,.596-.194,1.067-.583,1.417s-.895.523-1.517.523-1.129-.168-1.52-.505c-.391-.338-.585-.782-.585-1.335h.847c0,.35.114.629.342.838.229.21.533.314.916.314.406,0,.718-.106.934-.318.215-.213.323-.519.323-.916,0-.386-.118-.682-.355-.888-.237-.207-.578-.313-1.024-.319h-.633v-.688Z" fill="gray"/>
  </g>
  <g fill="none" opacity=".6">
    <path d="m637.901,78.867c-.141,1.203-.585,2.132-1.332,2.785s-1.741.98-2.98.98c-1.344,0-2.421-.481-3.23-1.445s-1.215-2.253-1.215-3.867v-1.094c0-1.058.188-1.987.566-2.789s.913-1.418,1.605-1.848,1.495-.645,2.406-.645c1.208,0,2.177.337,2.906,1.012s1.153,1.608,1.273,2.801h-1.508c-.13-.909-.413-1.567-.848-1.975s-1.043-.611-1.824-.611c-.958,0-1.71.354-2.254,1.063s-.816,1.718-.816,3.026v1.102c0,1.236.258,2.219.773,2.948s1.237,1.095,2.164,1.095c.833,0,1.473-.188,1.918-.566s.741-1.035.887-1.973h1.508Z" fill="#fff"/>
    <path d="m644.94,82.477c-.083-.167-.151-.464-.203-.891-.672.698-1.474,1.047-2.406,1.047-.833,0-1.517-.235-2.051-.707s-.801-1.069-.801-1.793c0-.88.335-1.563,1.004-2.051s1.61-.73,2.824-.73h1.406v-.664c0-.505-.151-.907-.453-1.207s-.747-.449-1.336-.449c-.516,0-.948.13-1.297.391s-.523.575-.523.945h-1.453c0-.422.149-.829.449-1.223s.706-.704,1.219-.934,1.077-.344,1.691-.344c.974,0,1.737.243,2.289.73s.839,1.157.859,2.012v3.891c0,.776.099,1.394.297,1.852v.125h-1.516Zm-2.398-1.102c.453,0,.883-.117,1.289-.352s.7-.539.883-.914v-1.734h-1.133c-1.771,0-2.656.519-2.656,1.555,0,.453.151.808.453,1.062s.69.383,1.164.383Z" fill="#fff"/>
    <path d="m657.401,77.156c0,1.114-.188,2.087-.562,2.918s-.906,1.465-1.594,1.902-1.489.656-2.406.656c-.896,0-1.69-.22-2.383-.66s-1.23-1.067-1.613-1.883-.579-1.759-.59-2.832v-.82c0-1.094.19-2.06.57-2.898s.918-1.48,1.613-1.926,1.491-.668,2.387-.668c.911,0,1.715.22,2.41.66s1.23,1.078,1.605,1.914.562,1.809.562,2.918v.719Zm-1.492-.734c0-1.349-.271-2.384-.812-3.105s-1.3-1.082-2.273-1.082c-.948,0-1.694.36-2.238,1.082s-.824,1.723-.84,3.004v.836c0,1.308.274,2.335.824,3.082s1.306,1.121,2.27,1.121c.969,0,1.719-.353,2.25-1.059s.805-1.718.82-3.035v-.844Z" fill="#fff"/>
  </g>
  <g>
    <path d="m62.303,292.191c0,1.114-.188,2.087-.562,2.918s-.906,1.465-1.594,1.902-1.49.656-2.406.656c-.896,0-1.69-.22-2.383-.66-.693-.44-1.23-1.067-1.613-1.883s-.58-1.759-.59-2.832v-.82c0-1.094.189-2.06.57-2.898.38-.839.918-1.48,1.613-1.926s1.49-.668,2.387-.668c.911,0,1.715.22,2.41.66s1.23,1.078,1.605,1.914.562,1.809.562,2.918v.719Zm-1.492-.734c0-1.349-.271-2.384-.812-3.105-.542-.722-1.3-1.082-2.273-1.082-.948,0-1.694.36-2.238,1.082-.545.722-.824,1.723-.84,3.004v.836c0,1.308.274,2.335.824,3.082.549.747,1.306,1.121,2.27,1.121.969,0,1.719-.353,2.25-1.059s.805-1.718.82-3.035v-.844Z" fill="gray"/>
    <path d="m68.129,300.84h-4.346v-.605l2.296-2.551c.34-.386.574-.699.703-.94s.194-.491.194-.749c0-.347-.105-.631-.314-.853-.21-.222-.489-.332-.838-.332-.42,0-.745.119-.978.357s-.349.57-.349.995h-.842c0-.61.196-1.104.589-1.48.394-.376.92-.564,1.579-.564.616,0,1.104.162,1.462.485s.537.754.537,1.291c0,.652-.416,1.43-1.248,2.332l-1.776,1.927h3.33v.688Z" fill="gray"/>
  </g>
  <g>
    <path d="m151.154,65.81l1.767-6.407h2.654l-3.208,9.51h-2.426l-3.208-9.51h2.654l1.767,6.407Z" fill="#1a1a1a"/>
    <path d="m162.07,68.912c-.117-.229-.202-.513-.255-.853-.615.686-1.415,1.028-2.399,1.028-.932,0-1.704-.27-2.316-.809s-.918-1.219-.918-2.039c0-1.008.373-1.781,1.121-2.32.746-.539,1.826-.812,3.238-.817h1.169v-.545c0-.439-.113-.791-.339-1.055s-.581-.396-1.067-.396c-.428,0-.764.103-1.007.308s-.364.486-.364.844h-2.54c0-.551.17-1.061.51-1.529s.82-.836,1.441-1.103,1.318-.4,2.092-.4c1.172,0,2.102.295,2.791.883.688.59,1.032,1.417,1.032,2.483v4.122c.006.902.132,1.585.378,2.048v.149h-2.566Zm-2.101-1.767c.375,0,.721-.083,1.037-.251.316-.166.551-.391.703-.672v-1.635h-.949c-1.271,0-1.948.439-2.03,1.318l-.009.149c0,.316.111.577.334.782s.527.308.914.308Zm.967-11.733h2.769l-2.435,2.725h-2.065l1.731-2.725Z" fill="#1a1a1a"/>
    <path d="m174.77,64.245c0,1.465-.333,2.639-.997,3.521-.666.882-1.563,1.322-2.694,1.322-.961,0-1.737-.334-2.329-1.002v4.482h-2.54v-13.166h2.355l.088.932c.615-.738,1.418-1.107,2.408-1.107,1.172,0,2.083.434,2.733,1.301s.976,2.062.976,3.586v.132Zm-2.54-.185c0-.885-.157-1.567-.471-2.048s-.769-.721-1.366-.721c-.797,0-1.345.305-1.644.914v3.894c.311.627.864.94,1.661.94,1.213,0,1.819-.993,1.819-2.979Z" fill="#1a1a1a"/>
    <path d="m180.72,69.088c-1.395,0-2.53-.428-3.405-1.283-.877-.855-1.314-1.995-1.314-3.419v-.246c0-.955.185-1.809.554-2.562s.892-1.333,1.569-1.74c.676-.407,1.448-.611,2.315-.611,1.301,0,2.325.41,3.071,1.23.748.82,1.121,1.983,1.121,3.489v1.037h-6.056c.082.621.329,1.119.743,1.494.412.375.936.562,1.568.562.979,0,1.743-.354,2.294-1.063l1.248,1.397c-.381.539-.896.96-1.547,1.261-.65.302-1.371.453-2.162.453Zm-.29-7.813c-.504,0-.913.171-1.227.512-.313.342-.514.83-.602,1.466h3.533v-.203c-.012-.565-.164-1.002-.457-1.311-.293-.31-.709-.464-1.248-.464Z" fill="#1a1a1a"/>
    <path d="m188.41,59.402l.079,1.099c.68-.85,1.591-1.274,2.733-1.274,1.008,0,1.758.296,2.25.888s.744,1.477.756,2.654v6.144h-2.54v-6.082c0-.539-.117-.93-.352-1.174-.234-.242-.624-.364-1.169-.364-.715,0-1.251.305-1.608.914v6.706h-2.54v-9.51h2.391Z" fill="#1a1a1a"/>
    <path d="m200.531,69.088c-1.395,0-2.53-.428-3.405-1.283-.877-.855-1.314-1.995-1.314-3.419v-.246c0-.955.185-1.809.554-2.562s.892-1.333,1.569-1.74c.676-.407,1.448-.611,2.315-.611,1.301,0,2.325.41,3.071,1.23.748.82,1.121,1.983,1.121,3.489v1.037h-6.056c.082.621.329,1.119.743,1.494.412.375.936.562,1.568.562.979,0,1.743-.354,2.294-1.063l1.248,1.397c-.381.539-.896.96-1.547,1.261-.65.302-1.371.453-2.162.453Zm-.29-7.813c-.504,0-.913.171-1.227.512-.313.342-.514.83-.602,1.466h3.533v-.203c-.012-.565-.164-1.002-.457-1.311-.293-.31-.709-.464-1.248-.464Z" fill="#1a1a1a"/>
    <path d="m209.838,67.04c.469,0,.85-.129,1.143-.387s.445-.601.457-1.028h2.382c-.006.645-.182,1.234-.527,1.771-.346.535-.819.952-1.42,1.248-.601.295-1.264.443-1.99.443-1.359,0-2.432-.432-3.217-1.297-.785-.863-1.178-2.058-1.178-3.581v-.167c0-1.465.39-2.634,1.169-3.507s1.849-1.31,3.208-1.31c1.189,0,2.143.338,2.861,1.016.717.676,1.082,1.577,1.094,2.702h-2.382c-.012-.495-.164-.896-.457-1.206s-.68-.464-1.16-.464c-.592,0-1.039.216-1.341.646-.302.432-.452,1.132-.452,2.1v.265c0,.979.149,1.684.448,2.112s.753.643,1.362.643Z" fill="#1a1a1a"/>
  </g>
  <g>
    <path d="m272.599,161.724v2.338h1.626v1.863h-1.626v4.746c0,.352.067.604.202.756s.393.229.773.229c.281,0,.53-.021.747-.062v1.925c-.498.152-1.011.229-1.538.229-1.781,0-2.689-.899-2.725-2.698v-5.124h-1.389v-1.863h1.389v-2.338h2.54Z" fill="#1a1a1a"/>
    <path d="m280.017,173.747c-1.395,0-2.53-.428-3.405-1.283-.877-.855-1.314-1.995-1.314-3.419v-.246c0-.955.185-1.809.554-2.562s.892-1.333,1.569-1.74c.676-.407,1.448-.611,2.315-.611,1.301,0,2.325.41,3.071,1.23.748.82,1.121,1.983,1.121,3.489v1.037h-6.056c.082.621.329,1.119.743,1.494.412.375.936.562,1.568.562.979,0,1.743-.354,2.294-1.063l1.248,1.397c-.381.539-.896.96-1.547,1.261-.65.302-1.371.453-2.162.453Zm-.29-7.813c-.504,0-.913.171-1.227.512-.313.342-.514.83-.602,1.466h3.533v-.203c-.012-.565-.164-1.002-.457-1.311-.293-.31-.709-.464-1.248-.464Z" fill="#1a1a1a"/>
    <path d="m293.93,168.904c0,1.465-.333,2.639-.997,3.521-.666.882-1.563,1.322-2.694,1.322-.961,0-1.737-.334-2.329-1.002v4.482h-2.54v-13.166h2.355l.088.932c.615-.738,1.418-1.107,2.408-1.107,1.172,0,2.083.434,2.733,1.301s.976,2.062.976,3.586v.132Zm-2.54-.185c0-.885-.157-1.567-.471-2.048s-.769-.721-1.366-.721c-.797,0-1.345.305-1.644.914v3.894c.311.627.864.94,1.661.94,1.213,0,1.819-.993,1.819-2.979Z" fill="#1a1a1a"/>
    <path d="m298.184,173.571h-2.549v-13.5h2.549v13.5Z" fill="#1a1a1a"/>
    <path d="m299.88,168.729c0-.943.182-1.784.545-2.522s.886-1.31,1.568-1.714,1.476-.606,2.378-.606c1.283,0,2.33.393,3.142,1.178s1.265,1.852,1.358,3.199l.018.65c0,1.459-.407,2.63-1.222,3.512s-1.907,1.322-3.278,1.322-2.466-.439-3.282-1.318c-.818-.879-1.227-2.074-1.227-3.586v-.114Zm2.54.181c0,.903.17,1.595.51,2.072.34.479.826.718,1.459.718.615,0,1.096-.236,1.441-.709.346-.472.519-1.228.519-2.267,0-.886-.173-1.572-.519-2.06s-.832-.73-1.459-.73c-.621,0-1.102.242-1.441.727-.34.483-.51,1.233-.51,2.249Z" fill="#1a1a1a"/>
  </g>
  <g>
    <path d="m59.473,220.505c0,1.465-.333,2.639-.997,3.521-.666.882-1.563,1.322-2.694,1.322-.961,0-1.737-.334-2.329-1.002v4.482h-2.54v-13.166h2.355l.088.932c.615-.738,1.418-1.107,2.408-1.107,1.172,0,2.083.434,2.733,1.301s.976,2.062.976,3.586v.132Zm-2.54-.185c0-.885-.157-1.567-.471-2.048s-.769-.721-1.366-.721c-.797,0-1.345.305-1.644.914v3.894c.311.627.864.94,1.661.94,1.213,0,1.819-.993,1.819-2.979Z" fill="#1a1a1a"/>
    <path d="m66.557,225.172c-.117-.229-.202-.513-.255-.853-.615.686-1.415,1.028-2.399,1.028-.932,0-1.704-.27-2.316-.809s-.918-1.219-.918-2.039c0-1.008.373-1.781,1.121-2.32.746-.539,1.826-.812,3.238-.817h1.169v-.545c0-.439-.113-.791-.339-1.055s-.581-.396-1.067-.396c-.428,0-.764.103-1.007.308s-.364.486-.364.844h-2.54c0-.551.17-1.061.51-1.529s.82-.836,1.441-1.103,1.318-.4,2.092-.4c1.172,0,2.102.295,2.791.883.688.59,1.032,1.417,1.032,2.483v4.122c.006.902.132,1.585.378,2.048v.149h-2.566Zm-2.101-1.767c.375,0,.721-.083,1.037-.251.316-.166.551-.391.703-.672v-1.635h-.949c-1.271,0-1.948.439-2.03,1.318l-.009.149c0,.316.111.577.334.782s.527.308.914.308Z" fill="#1a1a1a"/>
    <path d="m73.377,225.172h-2.549v-13.5h2.549v13.5Z" fill="#1a1a1a"/>
    <path d="m75.451,213.201c0-.381.128-.694.382-.94.256-.246.603-.369,1.042-.369.434,0,.779.123,1.037.369s.387.56.387.94c0,.387-.131.703-.392.949s-.604.369-1.032.369-.772-.123-1.032-.369c-.262-.246-.392-.562-.392-.949Zm2.698,11.971h-2.549v-9.51h2.549v9.51Z" fill="#1a1a1a"/>
    <path d="m83.801,222.069l1.767-6.407h2.654l-3.208,9.51h-2.426l-3.208-9.51h2.654l1.767,6.407Z" fill="#1a1a1a"/>
    <path d="m88.811,220.329c0-.943.182-1.784.545-2.522s.886-1.31,1.568-1.714,1.476-.606,2.378-.606c1.283,0,2.33.393,3.142,1.178s1.265,1.852,1.358,3.199l.018.65c0,1.459-.407,2.63-1.222,3.512s-1.907,1.322-3.278,1.322-2.466-.439-3.282-1.318c-.818-.879-1.227-2.074-1.227-3.586v-.114Zm2.54.181c0,.903.17,1.595.51,2.072.34.479.826.718,1.459.718.615,0,1.096-.236,1.441-.709.346-.472.519-1.228.519-2.267,0-.886-.173-1.572-.519-2.06s-.832-.73-1.459-.73c-.621,0-1.102.242-1.441.727-.34.483-.51,1.233-.51,2.249Z" fill="#1a1a1a"/>
  </g>
  <g>
    <path d="m57.484,317.521l-.914.914v2.9h-2.54v-13.5h2.54v7.479l.492-.633,2.435-2.856h3.05l-3.437,3.964,3.735,5.546h-2.918l-2.443-3.814Z" fill="#1a1a1a"/>
    <path d="m67.196,317.74l1.758-5.915h2.725l-3.823,10.986-.211.501c-.568,1.242-1.506,1.863-2.812,1.863-.369,0-.744-.056-1.125-.167v-1.925l.387.009c.48,0,.84-.073,1.076-.22.238-.146.424-.39.559-.729l.299-.782-3.331-9.536h2.733l1.767,5.915Z" fill="#1a1a1a"/>
    <path d="m77.83,318.707c0-.311-.153-.555-.462-.733-.307-.179-.801-.339-1.48-.479-2.262-.475-3.393-1.436-3.393-2.883,0-.844.35-1.548,1.051-2.114.699-.564,1.615-.848,2.746-.848,1.207,0,2.172.284,2.896.853.723.568,1.085,1.307,1.085,2.215h-2.54c0-.363-.117-.663-.352-.901-.234-.236-.601-.355-1.099-.355-.428,0-.759.097-.993.29s-.352.439-.352.738c0,.281.133.509.4.681.266.174.716.323,1.349.449s1.166.268,1.6.426c1.342.492,2.013,1.345,2.013,2.558,0,.867-.372,1.569-1.116,2.104-.744.537-1.705.805-2.883.805-.797,0-1.505-.143-2.122-.426-.619-.284-1.104-.674-1.455-1.17-.352-.494-.527-1.029-.527-1.604h2.408c.023.451.19.797.501,1.037s.727.36,1.248.36c.486,0,.854-.093,1.103-.276.249-.186.374-.427.374-.726Z" fill="#1a1a1a"/>
    <path d="m84.616,321.335h-2.549v-13.5h2.549v13.5Z" fill="#1a1a1a"/>
    <path d="m89.45,321.335h-2.54v-9.51h2.54v9.51Zm-.747-13.368h2.769l-2.435,2.725h-2.065l1.731-2.725Z" fill="#1a1a1a"/>
    <path d="m95.092,317.521l-.914.914v2.9h-2.54v-13.5h2.54v7.479l.492-.633,2.435-2.856h3.05l-3.437,3.964,3.735,5.546h-2.918l-2.443-3.814Z" fill="#1a1a1a"/>
  </g>
  <g>
    <path d="m398.304,78.258h3.38c10.254,0,18.567,8.313,18.567,18.567v30.047c0,10.254,8.313,18.567,18.567,18.567h81.17c10.254,0,18.567,8.313,18.567,18.567v2.623" fill="none" stroke="#b3b3b3" stroke-miterlimit="10"/>
    <polygon points="534.067 165.316 538.555 173.088 543.042 165.316 534.067 165.316" fill="#b3b3b3"/>
  </g>
</svg>