<?xml version="1.0" encoding="utf-8"?>
<!-- Generator: Adobe Illustrator 27.6.1, SVG Export Plug-In . SVG Version: 6.00 Build 0)  -->
<svg version="1.1" id="Layer_1" xmlns="http://www.w3.org/2000/svg" xmlns:xlink="http://www.w3.org/1999/xlink" x="0px" y="0px"
	 viewBox="0 0 740 346.2" style="enable-background:new 0 0 740 346.2;" xml:space="preserve">
<style type="text/css">
	.st0{fill:#FFFFFF;}
	.st1{enable-background:new    ;}
	.st2{fill:#1A1A1A;}
	.st3{fill:#2E3D99;}
	.st4{fill:#FF4D4F;}
	.st5{opacity:0.8;fill:#FF4D4F;enable-background:new    ;}
	.st6{opacity:0.9;fill:#2E3D99;enable-background:new    ;}
	.st7{fill:#F2F2F2;}
	.st8{fill:#666666;}
	.st9{fill:none;stroke:#B3B3B3;stroke-miterlimit:10;}
	.st10{fill:#B3B3B3;}
	.st11{fill:none;stroke:#B3B3B3;stroke-width:0.89;stroke-miterlimit:10;}
	.st12{fill:#808080;}
</style>
<rect y="1.9" class="st0" width="740" height="346.2"/>
<g class="st1">
	<path class="st2" d="M470.6,299v5H469v-12.8h4.7c1.4,0,2.5,0.4,3.3,1.1s1.2,1.7,1.2,2.8c0,1.2-0.4,2.2-1.2,2.9s-1.9,1-3.3,1H470.6z
		 M470.6,297.6h3c0.9,0,1.6-0.2,2.1-0.6c0.5-0.4,0.7-1,0.7-1.8c0-0.8-0.2-1.4-0.7-1.8s-1.1-0.7-2-0.7h-3.1V297.6z"/>
	<path class="st2" d="M482.4,292l1.3-1.5h1.4v0.1l-2.2,2.4h-1l-2.2-2.4v-0.1h1.4L482.4,292z M484.7,295.9c-0.2,0-0.5-0.1-0.8-0.1
		c-1.1,0-1.8,0.5-2.2,1.4v6.8h-1.6v-9.5h1.6l0,1.1c0.5-0.8,1.3-1.3,2.3-1.3c0.3,0,0.6,0,0.7,0.1V295.9z"/>
	<path class="st2" d="M486.2,292c0-0.3,0.1-0.5,0.2-0.7s0.4-0.3,0.7-0.3s0.6,0.1,0.7,0.3s0.2,0.4,0.2,0.7s-0.1,0.5-0.2,0.7
		s-0.4,0.3-0.7,0.3s-0.6-0.1-0.7-0.3S486.2,292.2,486.2,292z M487.9,304h-1.6v-9.5h1.6V304z"/>
	<path class="st2" d="M503,299.4c0,1.4-0.3,2.6-1,3.5s-1.6,1.3-2.7,1.3c-1.2,0-2.1-0.4-2.7-1.1v4.6H495v-13.2h1.5l0.1,1.1
		c0.7-0.8,1.6-1.2,2.8-1.2c1.1,0,2,0.4,2.7,1.3s1,2.1,1,3.6V299.4z M501.4,299.2c0-1.1-0.2-1.9-0.7-2.5s-1.1-0.9-1.9-0.9
		c-1,0-1.7,0.4-2.2,1.3v4.5c0.5,0.9,1.2,1.3,2.2,1.3c0.8,0,1.4-0.3,1.9-0.9S501.4,300.4,501.4,299.2z"/>
</g>
<g class="st1">
	<path class="st2" d="M509.7,295.9c-0.2,0-0.5-0.1-0.8-0.1c-1.1,0-1.8,0.5-2.2,1.4v6.8h-1.6v-9.5h1.6l0,1.1c0.5-0.8,1.3-1.3,2.3-1.3
		c0.3,0,0.6,0,0.7,0.1V295.9z"/>
</g>
<g class="st1">
	<path class="st2" d="M510.5,299.2c0-0.9,0.2-1.8,0.5-2.5c0.4-0.7,0.9-1.3,1.5-1.7c0.7-0.4,1.4-0.6,2.2-0.6c1.3,0,2.3,0.4,3.1,1.3
		c0.8,0.9,1.2,2.1,1.2,3.6v0.1c0,0.9-0.2,1.8-0.5,2.5c-0.4,0.7-0.9,1.3-1.5,1.7c-0.7,0.4-1.4,0.6-2.3,0.6c-1.3,0-2.3-0.4-3.1-1.3
		c-0.8-0.9-1.2-2.1-1.2-3.6V299.2z M512.2,299.4c0,1.1,0.2,1.9,0.7,2.5c0.5,0.6,1.1,1,2,1c0.8,0,1.5-0.3,2-1
		c0.5-0.6,0.7-1.6,0.7-2.7c0-1-0.2-1.9-0.7-2.5c-0.5-0.6-1.2-1-2-1c-0.8,0-1.5,0.3-1.9,1S512.2,298.2,512.2,299.4z"/>
	<path class="st2" d="M520.9,299.2c0-1.5,0.3-2.6,1-3.5c0.7-0.9,1.6-1.3,2.7-1.3c1.1,0,2,0.4,2.6,1.1v-5h1.6V304h-1.5l-0.1-1
		c-0.7,0.8-1.6,1.2-2.7,1.2c-1.1,0-2-0.5-2.7-1.4c-0.7-0.9-1-2.1-1-3.5V299.2z M522.5,299.4c0,1.1,0.2,1.9,0.7,2.5s1.1,0.9,1.8,0.9
		c1,0,1.8-0.5,2.3-1.4V297c-0.5-0.9-1.2-1.3-2.2-1.3c-0.8,0-1.4,0.3-1.9,0.9S522.5,298.1,522.5,299.4z"/>
	<path class="st2" d="M537.3,303.1c-0.6,0.7-1.6,1.1-2.8,1.1c-1,0-1.8-0.3-2.3-0.9c-0.5-0.6-0.8-1.5-0.8-2.6v-6.2h1.6v6.1
		c0,1.4,0.6,2.2,1.8,2.2c1.2,0,2.1-0.5,2.5-1.4v-6.9h1.6v9.5h-1.5L537.3,303.1z"/>
</g>
<g class="st1">
	<path class="st2" d="M544,299.6l-1,1.1v3.3h-1.6v-13.5h1.6v8.2l0.9-1l3-3.1h2l-3.7,4l4.1,5.5h-1.9L544,299.6z"/>
</g>
<g class="st1">
	<path class="st2" d="M554.1,302.8c0.6,0,1.1-0.2,1.5-0.5s0.7-0.8,0.7-1.3h1.5c0,0.5-0.2,1.1-0.6,1.6s-0.8,0.9-1.4,1.2
		s-1.2,0.4-1.8,0.4c-1.3,0-2.3-0.4-3.1-1.3c-0.8-0.9-1.1-2-1.1-3.5v-0.3c0-0.9,0.2-1.7,0.5-2.5s0.8-1.3,1.5-1.7s1.4-0.6,2.3-0.6
		c1.1,0,2,0.3,2.7,1s1.1,1.5,1.1,2.5h-1.5c0-0.6-0.3-1.1-0.7-1.5c-0.4-0.4-0.9-0.6-1.6-0.6c-0.8,0-1.5,0.3-1.9,0.9s-0.7,1.5-0.7,2.6
		v0.3c0,1.1,0.2,1.9,0.7,2.5S553.2,302.8,554.1,302.8z"/>
	<path class="st2" d="M561.5,290.5h2l-2.4,2.6l-1.3,0L561.5,290.5z M561.5,304h-1.6v-9.5h1.6V304z"/>
</g>
<g class="st1">
</g>
<g class="st1">
	<path class="st3" d="M574.4,304h-2.5v-9.8l-3,0.9v-2.1l5.3-1.9h0.3V304z"/>
	<path class="st3" d="M579.3,307.2l-1.3-0.7l0.3-0.6c0.4-0.7,0.6-1.4,0.6-2.1v-2h2.1l0,1.8c0,0.7-0.2,1.3-0.5,2
		S579.8,306.8,579.3,307.2z"/>
	<path class="st3" d="M591.6,298.7c0,1.8-0.4,3.1-1.1,4.1s-1.8,1.4-3.2,1.4c-1.4,0-2.5-0.5-3.2-1.4s-1.1-2.2-1.1-4v-2.4
		c0-1.8,0.4-3.1,1.1-4.1s1.8-1.4,3.2-1.4s2.5,0.5,3.2,1.4c0.7,0.9,1.1,2.2,1.1,4V298.7z M589,296.1c0-1.1-0.1-1.8-0.4-2.3
		c-0.3-0.5-0.7-0.7-1.4-0.7c-0.6,0-1,0.2-1.3,0.7c-0.3,0.5-0.4,1.2-0.5,2.2v3.1c0,1,0.1,1.8,0.4,2.3c0.3,0.5,0.7,0.8,1.4,0.8
		c0.6,0,1.1-0.2,1.3-0.7c0.3-0.5,0.4-1.2,0.4-2.2V296.1z"/>
</g>
<g class="st1">
	<path class="st3" d="M601.3,300.2l-0.9,0.9v2.9h-2.5v-13.5h2.5v7.5l0.5-0.6l2.4-2.9h3l-3.4,4l3.7,5.5h-2.9L601.3,300.2z"/>
</g>
<g class="st1">
	<path class="st3" d="M606.9,299.2c0-1.5,0.3-2.6,1-3.5s1.6-1.3,2.8-1.3c1,0,1.9,0.4,2.4,1.1l0.1-0.9h2.3v9.2c0,0.8-0.2,1.6-0.6,2.2
		s-0.9,1.1-1.6,1.4s-1.5,0.5-2.4,0.5c-0.7,0-1.4-0.1-2-0.4s-1.2-0.6-1.5-1.1l1.1-1.5c0.6,0.7,1.4,1.1,2.3,1.1c0.7,0,1.2-0.2,1.6-0.5
		c0.4-0.4,0.6-0.9,0.6-1.5v-0.5c-0.6,0.7-1.4,1-2.3,1c-1.1,0-2.1-0.4-2.8-1.3s-1.1-2.1-1.1-3.6V299.2z M609.5,299.4
		c0,0.9,0.2,1.5,0.5,2c0.3,0.5,0.8,0.7,1.4,0.7c0.8,0,1.3-0.3,1.7-0.9v-4c-0.3-0.6-0.9-0.9-1.6-0.9c-0.6,0-1.1,0.2-1.4,0.7
		C609.7,297.6,609.5,298.4,609.5,299.4z"/>
	<path class="st3" d="M626,302.1c0.5,0,0.8-0.1,1.1-0.4s0.4-0.6,0.5-1h2.4c0,0.6-0.2,1.2-0.5,1.8c-0.3,0.5-0.8,1-1.4,1.2
		c-0.6,0.3-1.3,0.4-2,0.4c-1.4,0-2.4-0.4-3.2-1.3c-0.8-0.9-1.2-2.1-1.2-3.6v-0.2c0-1.5,0.4-2.6,1.2-3.5s1.8-1.3,3.2-1.3
		c1.2,0,2.1,0.3,2.9,1c0.7,0.7,1.1,1.6,1.1,2.7h-2.4c0-0.5-0.2-0.9-0.5-1.2s-0.7-0.5-1.2-0.5c-0.6,0-1,0.2-1.3,0.6
		c-0.3,0.4-0.5,1.1-0.5,2.1v0.3c0,1,0.1,1.7,0.4,2.1S625.4,302.1,626,302.1z"/>
	<path class="st3" d="M635.8,304.2c-1.4,0-2.5-0.4-3.4-1.3s-1.3-2-1.3-3.4v-0.2c0-1,0.2-1.8,0.6-2.6s0.9-1.3,1.6-1.7
		s1.4-0.6,2.3-0.6c1.3,0,2.3,0.4,3.1,1.2s1.1,2,1.1,3.5v1h-6.1c0.1,0.6,0.3,1.1,0.7,1.5s0.9,0.6,1.6,0.6c1,0,1.7-0.4,2.3-1.1
		l1.2,1.4c-0.4,0.5-0.9,1-1.5,1.3C637.3,304,636.6,304.2,635.8,304.2z M635.5,296.4c-0.5,0-0.9,0.2-1.2,0.5
		c-0.3,0.3-0.5,0.8-0.6,1.5h3.5v-0.2c0-0.6-0.2-1-0.5-1.3C636.5,296.5,636.1,296.4,635.5,296.4z"/>
	<path class="st3" d="M643.6,294.5l0.1,1.1c0.7-0.8,1.6-1.2,2.7-1.2c1.2,0,2.1,0.5,2.5,1.5c0.7-1,1.6-1.5,2.9-1.5
		c1,0,1.8,0.3,2.3,0.9c0.5,0.6,0.8,1.5,0.8,2.7v6.1h-2.5v-6.1c0-0.5-0.1-0.9-0.3-1.2s-0.6-0.4-1.1-0.4c-0.8,0-1.3,0.4-1.6,1.1l0,6.5
		h-2.5v-6.1c0-0.6-0.1-0.9-0.3-1.2s-0.6-0.4-1.1-0.4c-0.7,0-1.2,0.3-1.6,0.9v6.7h-2.5v-9.5H643.6z"/>
	<path class="st3" d="M661.1,304.2c-1.4,0-2.5-0.4-3.4-1.3s-1.3-2-1.3-3.4v-0.2c0-1,0.2-1.8,0.6-2.6s0.9-1.3,1.6-1.7
		s1.4-0.6,2.3-0.6c1.3,0,2.3,0.4,3.1,1.2s1.1,2,1.1,3.5v1H659c0.1,0.6,0.3,1.1,0.7,1.5s0.9,0.6,1.6,0.6c1,0,1.7-0.4,2.3-1.1l1.2,1.4
		c-0.4,0.5-0.9,1-1.5,1.3C662.7,304,661.9,304.2,661.1,304.2z M660.9,296.4c-0.5,0-0.9,0.2-1.2,0.5c-0.3,0.3-0.5,0.8-0.6,1.5h3.5
		v-0.2c0-0.6-0.2-1-0.5-1.3C661.8,296.5,661.4,296.4,660.9,296.4z"/>
	<path class="st3" d="M668.8,294.5l0.1,1.1c0.7-0.8,1.6-1.3,2.7-1.3c1,0,1.8,0.3,2.2,0.9s0.7,1.5,0.8,2.7v6.1h-2.5v-6.1
		c0-0.5-0.1-0.9-0.4-1.2c-0.2-0.2-0.6-0.4-1.2-0.4c-0.7,0-1.3,0.3-1.6,0.9v6.7h-2.5v-9.5H668.8z"/>
	<path class="st3" d="M679.6,292.2v2.3h1.6v1.9h-1.6v4.7c0,0.4,0.1,0.6,0.2,0.8s0.4,0.2,0.8,0.2c0.3,0,0.5,0,0.7-0.1v1.9
		c-0.5,0.2-1,0.2-1.5,0.2c-1.8,0-2.7-0.9-2.7-2.7v-5.1h-1.4v-1.9h1.4v-2.3H679.6z"/>
	<path class="st3" d="M688.4,303c-0.6,0.8-1.5,1.1-2.6,1.1c-1,0-1.8-0.3-2.3-0.9s-0.8-1.4-0.8-2.6v-6.2h2.5v6.2c0,1,0.5,1.5,1.4,1.5
		c0.9,0,1.5-0.3,1.8-0.9v-6.7h2.5v9.5h-2.4L688.4,303z"/>
</g>
<g class="st1">
</g>
<g class="st1">
	<path class="st2" d="M471.8,323.4l2.4-7.3h1.7l-3.4,9.5h-1.2l-3.4-9.5h1.7L471.8,323.4z"/>
	<path class="st2" d="M478.9,324.3h5.6v1.3H477v-1.2l5.2-7H477v-1.3h7.2v1.2L478.9,324.3z"/>
	<path class="st2" d="M487.9,316.1l0.1,1.2c0.7-0.9,1.7-1.4,2.8-1.4c2,0,3,1.1,3,3.4v6.3h-1.6v-6.3c0-0.7-0.2-1.2-0.5-1.5
		s-0.8-0.5-1.4-0.5c-0.5,0-1,0.1-1.4,0.4s-0.7,0.7-0.9,1.1v6.8h-1.6v-9.5H487.9z"/>
	<path class="st2" d="M496.3,313.6c0-0.3,0.1-0.5,0.2-0.7s0.4-0.3,0.7-0.3s0.6,0.1,0.7,0.3s0.2,0.4,0.2,0.7s-0.1,0.5-0.2,0.7
		s-0.4,0.3-0.7,0.3s-0.6-0.1-0.7-0.3S496.3,313.8,496.3,313.6z M498,325.6h-1.6v-9.5h1.6V325.6z"/>
	<path class="st2" d="M503.3,321.2l-1,1.1v3.3h-1.6v-13.5h1.6v8.2l0.9-1l3-3.1h2l-3.7,4l4.1,5.5h-1.9L503.3,321.2z"/>
	<path class="st2" d="M515.6,325.6c-0.1-0.2-0.2-0.5-0.2-1c-0.8,0.8-1.7,1.2-2.7,1.2c-0.9,0-1.7-0.3-2.3-0.8s-0.9-1.2-0.9-2
		c0-1,0.4-1.8,1.1-2.3s1.8-0.8,3.2-0.8h1.6v-0.7c0-0.6-0.2-1-0.5-1.4c-0.3-0.3-0.8-0.5-1.5-0.5c-0.6,0-1.1,0.1-1.5,0.4
		s-0.6,0.6-0.6,1.1h-1.6c0-0.5,0.2-0.9,0.5-1.4s0.8-0.8,1.4-1.1s1.2-0.4,1.9-0.4c1.1,0,2,0.3,2.6,0.8s0.9,1.3,1,2.3v4.4
		c0,0.9,0.1,1.6,0.3,2.1v0.1H515.6z M512.9,324.4c0.5,0,1-0.1,1.5-0.4s0.8-0.6,1-1v-2h-1.3c-2,0-3,0.6-3,1.7c0,0.5,0.2,0.9,0.5,1.2
		S512.4,324.4,512.9,324.4z M514.4,312.1h2l-2.4,2.6l-1.3,0L514.4,312.1z"/>
</g>
<g class="st1">
	<path class="st4" d="M532.3,320.3c0,1.8-0.4,3.1-1.1,4.1s-1.8,1.4-3.2,1.4c-1.4,0-2.5-0.5-3.2-1.4s-1.1-2.2-1.1-4v-2.4
		c0-1.8,0.4-3.1,1.1-4.1s1.8-1.4,3.2-1.4s2.5,0.5,3.2,1.4c0.7,0.9,1.1,2.2,1.1,4V320.3z M529.7,317.7c0-1.1-0.1-1.8-0.4-2.3
		c-0.3-0.5-0.7-0.7-1.4-0.7c-0.6,0-1,0.2-1.3,0.7c-0.3,0.5-0.4,1.2-0.5,2.2v3.1c0,1,0.1,1.8,0.4,2.3c0.3,0.5,0.7,0.8,1.4,0.8
		c0.6,0,1.1-0.2,1.3-0.7c0.3-0.5,0.4-1.2,0.4-2.2V317.7z"/>
	<path class="st4" d="M534.7,328.8l-1.3-0.7l0.3-0.6c0.4-0.7,0.6-1.4,0.6-2.1v-2h2.1l0,1.8c0,0.7-0.2,1.3-0.5,2
		S535.2,328.4,534.7,328.8z"/>
	<path class="st4" d="M545.3,312.7v2.1H545c-1.1,0-2.1,0.3-2.8,0.9s-1.1,1.4-1.3,2.4c0.7-0.7,1.5-1,2.6-1c1.1,0,2,0.4,2.7,1.2
		s1,1.8,1,3.1c0,0.8-0.2,1.6-0.5,2.3s-0.9,1.2-1.5,1.6s-1.4,0.6-2.2,0.6c-1.3,0-2.4-0.5-3.3-1.4s-1.2-2.2-1.2-3.8v-0.9
		c0-1.4,0.3-2.6,0.8-3.7c0.5-1.1,1.3-1.9,2.3-2.5s2.1-0.9,3.4-0.9H545.3z M542.8,319.1c-0.4,0-0.8,0.1-1.1,0.3
		c-0.3,0.2-0.6,0.5-0.7,0.8v0.8c0,0.8,0.2,1.5,0.5,2s0.8,0.7,1.4,0.7c0.5,0,1-0.2,1.3-0.6s0.5-1,0.5-1.7c0-0.7-0.2-1.3-0.5-1.7
		S543.4,319.1,542.8,319.1z"/>
</g>
<g class="st1">
	<path class="st4" d="M556.7,321.8l-0.9,0.9v2.9h-2.5v-13.5h2.5v7.5l0.5-0.6l2.4-2.9h3l-3.4,4l3.7,5.5h-2.9L556.7,321.8z"/>
</g>
<g class="st1">
	<path class="st4" d="M562.4,320.8c0-1.5,0.3-2.6,1-3.5c0.7-0.9,1.6-1.3,2.8-1.3c1,0,1.9,0.4,2.4,1.1l0.1-0.9h2.3v9.2
		c0,0.8-0.2,1.6-0.6,2.2c-0.4,0.6-0.9,1.1-1.6,1.4s-1.5,0.5-2.4,0.5c-0.7,0-1.4-0.1-2-0.4s-1.2-0.6-1.5-1.1l1.1-1.5
		c0.6,0.7,1.4,1.1,2.3,1.1c0.7,0,1.2-0.2,1.6-0.5c0.4-0.4,0.6-0.9,0.6-1.5v-0.5c-0.6,0.7-1.4,1-2.3,1c-1.1,0-2.1-0.4-2.8-1.3
		c-0.7-0.9-1.1-2.1-1.1-3.6V320.8z M564.9,321c0,0.9,0.2,1.5,0.5,2c0.3,0.5,0.8,0.7,1.4,0.7c0.8,0,1.3-0.3,1.7-0.9v-4
		c-0.3-0.6-0.9-0.9-1.6-0.9c-0.6,0-1.1,0.2-1.4,0.7C565.1,319.2,564.9,320,564.9,321z"/>
	<path class="st4" d="M581.9,325.8c-1.4,0-2.5-0.4-3.4-1.3c-0.9-0.9-1.3-2-1.3-3.4v-0.2c0-1,0.2-1.8,0.6-2.6s0.9-1.3,1.6-1.7
		c0.7-0.4,1.4-0.6,2.3-0.6c1.3,0,2.3,0.4,3.1,1.2c0.7,0.8,1.1,2,1.1,3.5v1h-6.1c0.1,0.6,0.3,1.1,0.7,1.5c0.4,0.4,0.9,0.6,1.6,0.6
		c1,0,1.7-0.4,2.3-1.1l1.2,1.4c-0.4,0.5-0.9,1-1.5,1.3C583.4,325.6,582.7,325.8,581.9,325.8z M581.6,318c-0.5,0-0.9,0.2-1.2,0.5
		c-0.3,0.3-0.5,0.8-0.6,1.5h3.5v-0.2c0-0.6-0.2-1-0.5-1.3C582.5,318.1,582.1,318,581.6,318z"/>
	<path class="st4" d="M589.6,316.1l0.1,1.1c0.7-0.8,1.6-1.2,2.7-1.2c1.2,0,2.1,0.5,2.5,1.5c0.7-1,1.6-1.5,2.9-1.5
		c1,0,1.8,0.3,2.3,0.9c0.5,0.6,0.8,1.5,0.8,2.7v6.1h-2.5v-6.1c0-0.5-0.1-0.9-0.3-1.2s-0.6-0.4-1.1-0.4c-0.8,0-1.3,0.4-1.6,1.1l0,6.5
		h-2.5v-6.1c0-0.6-0.1-0.9-0.3-1.2s-0.6-0.4-1.1-0.4c-0.7,0-1.2,0.3-1.6,0.9v6.7h-2.5v-9.5H589.6z"/>
	<path class="st4" d="M602.8,313.6c0-0.4,0.1-0.7,0.4-0.9c0.3-0.2,0.6-0.4,1-0.4c0.4,0,0.8,0.1,1,0.4s0.4,0.6,0.4,0.9
		c0,0.4-0.1,0.7-0.4,0.9c-0.3,0.2-0.6,0.4-1,0.4s-0.8-0.1-1-0.4C602.9,314.3,602.8,314,602.8,313.6z M605.5,325.6h-2.5v-9.5h2.5
		V325.6z"/>
	<path class="st4" d="M612.7,323c0-0.3-0.2-0.6-0.5-0.7c-0.3-0.2-0.8-0.3-1.5-0.5c-2.3-0.5-3.4-1.4-3.4-2.9c0-0.8,0.3-1.5,1.1-2.1
		c0.7-0.6,1.6-0.8,2.7-0.8c1.2,0,2.2,0.3,2.9,0.9c0.7,0.6,1.1,1.3,1.1,2.2h-2.5c0-0.4-0.1-0.7-0.4-0.9c-0.2-0.2-0.6-0.4-1.1-0.4
		c-0.4,0-0.8,0.1-1,0.3s-0.4,0.4-0.4,0.7c0,0.3,0.1,0.5,0.4,0.7c0.3,0.2,0.7,0.3,1.3,0.4s1.2,0.3,1.6,0.4c1.3,0.5,2,1.3,2,2.6
		c0,0.9-0.4,1.6-1.1,2.1c-0.7,0.5-1.7,0.8-2.9,0.8c-0.8,0-1.5-0.1-2.1-0.4c-0.6-0.3-1.1-0.7-1.5-1.2c-0.4-0.5-0.5-1-0.5-1.6h2.4
		c0,0.5,0.2,0.8,0.5,1s0.7,0.4,1.2,0.4c0.5,0,0.9-0.1,1.1-0.3C612.6,323.5,612.7,323.3,612.7,323z"/>
	<path class="st4" d="M619.6,325.6H617v-9.5h2.5V325.6z M618.8,312.2h2.8l-2.4,2.7h-2.1L618.8,312.2z"/>
	<path class="st4" d="M636.4,321.3c-0.1,1.4-0.6,2.5-1.5,3.3c-0.9,0.8-2.1,1.2-3.6,1.2c-1.6,0-2.9-0.6-3.9-1.7
		c-0.9-1.1-1.4-2.6-1.4-4.5v-0.8c0-1.2,0.2-2.3,0.7-3.3s1.1-1.7,1.9-2.2c0.8-0.5,1.7-0.8,2.8-0.8c1.5,0,2.7,0.4,3.6,1.2
		s1.4,1.9,1.6,3.3h-2.6c-0.1-0.8-0.3-1.4-0.7-1.8c-0.4-0.4-1-0.6-1.8-0.6c-0.9,0-1.5,0.3-2,0.9c-0.4,0.6-0.7,1.6-0.7,2.9v1
		c0,1.4,0.2,2.4,0.6,3c0.4,0.6,1.1,1,2,1c0.8,0,1.4-0.2,1.8-0.6c0.4-0.4,0.6-0.9,0.7-1.7H636.4z"/>
	<path class="st4" d="M648.7,319.5c0,1.3-0.2,2.4-0.7,3.3s-1.1,1.7-1.9,2.2c-0.8,0.5-1.8,0.8-2.9,0.8c-1.1,0-2-0.3-2.8-0.8
		s-1.5-1.2-1.9-2.2c-0.5-0.9-0.7-2-0.7-3.3v-0.6c0-1.3,0.2-2.4,0.7-3.3c0.5-1,1.1-1.7,1.9-2.2c0.8-0.5,1.8-0.8,2.8-0.8
		s2,0.3,2.8,0.8c0.8,0.5,1.5,1.2,1.9,2.2c0.5,1,0.7,2.1,0.7,3.3V319.5z M646,318.9c0-1.3-0.2-2.4-0.7-3.1s-1.2-1-2.1-1
		c-0.9,0-1.6,0.3-2,1s-0.7,1.7-0.7,3v0.6c0,1.3,0.2,2.3,0.7,3s1.2,1.1,2.1,1.1c0.9,0,1.6-0.3,2-1c0.5-0.7,0.7-1.7,0.7-3V318.9z"/>
</g>
<g class="st1">
	<path class="st4" d="M655.1,329.6H650v-1l2.4-2.6c0.3-0.4,0.6-0.7,0.7-0.9c0.2-0.3,0.2-0.5,0.2-0.8c0-0.3-0.1-0.6-0.2-0.8
		c-0.2-0.2-0.4-0.3-0.7-0.3c-0.3,0-0.6,0.1-0.8,0.3s-0.3,0.5-0.3,0.9h-1.5c0-0.5,0.1-0.9,0.3-1.2s0.5-0.7,0.9-0.9
		c0.4-0.2,0.8-0.3,1.3-0.3c0.8,0,1.4,0.2,1.8,0.6s0.6,0.9,0.6,1.6c0,0.4-0.1,0.7-0.3,1.1c-0.2,0.4-0.5,0.8-1,1.3l-1.7,1.8h3.2V329.6
		z"/>
</g>
<g class="st1">
	<path class="st4" d="M656.7,324.7c0-0.3,0.1-0.5,0.2-0.7s0.4-0.3,0.8-0.3s0.6,0.1,0.8,0.3s0.3,0.4,0.3,0.7c0,0.3-0.1,0.5-0.3,0.7
		s-0.4,0.3-0.8,0.3s-0.6-0.1-0.8-0.3S656.7,325,656.7,324.7z"/>
</g>
<rect x="518.1" y="130.7" class="st5" width="71.7" height="50"/>
<rect x="466.9" y="180.7" class="st5" width="51.2" height="50"/>
<rect x="466.8" y="40.5" class="st6" width="205" height="50"/>
<circle class="st7" cx="343.4" cy="65.4" r="45.5"/>
<g>
	<path class="st0" d="M476.8,61.3h5.6v1.3h-7.5v-1.2l5.2-7h-5.2v-1.3h7.2v1.2L476.8,61.3z"/>
	<path class="st0" d="M490.1,62.6c-0.1-0.2-0.2-0.5-0.2-1c-0.8,0.8-1.7,1.2-2.7,1.2c-0.9,0-1.7-0.3-2.3-0.8s-0.9-1.2-0.9-2
		c0-1,0.4-1.8,1.1-2.3s1.8-0.8,3.2-0.8h1.6v-0.8c0-0.6-0.2-1-0.5-1.4s-0.8-0.5-1.5-0.5c-0.6,0-1.1,0.2-1.5,0.4s-0.6,0.7-0.6,1.1
		h-1.6c0-0.5,0.2-0.9,0.5-1.4s0.8-0.8,1.4-1s1.2-0.4,1.9-0.4c1.1,0,2,0.3,2.6,0.8s0.9,1.3,1,2.3v4.4c0,0.9,0.1,1.6,0.3,2.1v0.1
		L490.1,62.6L490.1,62.6z M487.4,61.4c0.5,0,1-0.1,1.5-0.4s0.8-0.6,1-1v-2h-1.3c-2,0-3,0.6-3,1.8c0,0.5,0.2,0.9,0.5,1.2
		S486.8,61.4,487.4,61.4L487.4,61.4z M488.9,49.1h2l-2.4,2.6h-1.3L488.9,49.1L488.9,49.1z"/>
	<path class="st0" d="M496.6,58.2l-1,1.1v3.3H494V49.1h1.6v8.2l0.9-1l3-3.1h2l-3.7,4l4.1,5.5H500C500,62.6,496.6,58.2,496.6,58.2z"
		/>
	<path class="st0" d="M504.9,62.6h-1.6V49.1h1.6V62.6z"/>
	<path class="st0" d="M513.3,62.6c-0.1-0.2-0.2-0.5-0.2-1c-0.8,0.8-1.7,1.2-2.7,1.2c-0.9,0-1.7-0.3-2.3-0.8s-0.9-1.2-0.9-2
		c0-1,0.4-1.8,1.1-2.3s1.8-0.8,3.2-0.8h1.6v-0.8c0-0.6-0.2-1-0.5-1.4s-0.8-0.5-1.5-0.5c-0.6,0-1.1,0.2-1.5,0.4s-0.6,0.7-0.6,1.1
		h-1.6c0-0.5,0.2-0.9,0.5-1.4s0.8-0.8,1.4-1s1.2-0.4,1.9-0.4c1.1,0,1.9,0.3,2.6,0.8s0.9,1.3,1,2.3v4.4c0,0.9,0.1,1.6,0.3,2.1v0.1
		L513.3,62.6L513.3,62.6z M510.6,61.4c0.5,0,1-0.1,1.5-0.4s0.8-0.6,1-1v-2h-1.3c-2,0-3,0.6-3,1.8c0,0.5,0.2,0.9,0.5,1.2
		S510.1,61.4,510.6,61.4L510.6,61.4z"/>
	<path class="st0" d="M516.9,57.8c0-1.5,0.3-2.6,1-3.5s1.6-1.3,2.7-1.3s2,0.4,2.7,1.1v-5h1.6v13.5h-1.5l-0.1-1
		c-0.7,0.8-1.6,1.2-2.7,1.2s-2-0.5-2.7-1.3s-1-2.1-1-3.5L516.9,57.8L516.9,57.8z M518.5,58c0,1.1,0.2,1.9,0.7,2.5s1.1,0.9,1.8,0.9
		c1,0,1.8-0.5,2.3-1.4v-4.4c-0.5-0.9-1.2-1.3-2.2-1.3c-0.8,0-1.4,0.3-1.9,0.9S518.5,56.8,518.5,58L518.5,58z"/>
	<path class="st0" d="M529,53.1l0,1.2c0.7-0.9,1.7-1.4,2.8-1.4c2,0,3,1.1,3,3.4v6.3h-1.6v-6.3c0-0.7-0.2-1.2-0.5-1.5
		s-0.8-0.5-1.4-0.5c-0.5,0-1,0.1-1.4,0.4s-0.7,0.7-0.9,1.1v6.8h-1.6v-9.5L529,53.1L529,53.1z"/>
	<path class="st0" d="M539.1,49.1h2l-2.4,2.6h-1.3L539.1,49.1z M539.1,62.6h-1.6v-9.5h1.6V62.6z"/>
	<path class="st0" d="M551.8,60.1c0-0.4-0.2-0.8-0.5-1s-0.9-0.5-1.7-0.6s-1.5-0.4-2-0.6s-0.8-0.5-1.1-0.9s-0.3-0.7-0.3-1.2
		c0-0.8,0.3-1.4,1-2s1.5-0.8,2.5-0.8c1.1,0,2,0.3,2.6,0.8s1,1.3,1,2.1h-1.6c0-0.5-0.2-0.8-0.6-1.2s-0.8-0.5-1.4-0.5s-1,0.1-1.4,0.4
		s-0.5,0.6-0.5,1c0,0.4,0.2,0.7,0.5,0.9s0.9,0.4,1.7,0.6s1.5,0.4,2,0.7s0.9,0.6,1.1,0.9c0.2,0.4,0.4,0.8,0.4,1.3c0,0.8-0.3,1.5-1,2
		c-0.7,0.5-1.6,0.8-2.7,0.8c-0.8,0-1.4-0.1-2-0.4s-1-0.7-1.4-1.1c-0.3-0.5-0.5-1-0.5-1.6h1.6c0,0.5,0.2,1,0.7,1.3s0.9,0.5,1.6,0.5
		c0.6,0,1.1-0.1,1.5-0.4S551.8,60.5,551.8,60.1L551.8,60.1z"/>
	<path class="st0" d="M557.3,62.6h-1.6V49.1h1.6V62.6z"/>
	<path class="st0" d="M559.5,57.8c0-0.9,0.2-1.8,0.5-2.5s0.9-1.3,1.5-1.7s1.4-0.6,2.2-0.6c1.3,0,2.3,0.5,3.1,1.3
		c0.8,0.9,1.2,2.1,1.2,3.6V58c0,0.9-0.2,1.8-0.5,2.5c-0.4,0.7-0.9,1.3-1.5,1.7c-0.7,0.4-1.4,0.6-2.3,0.6c-1.3,0-2.3-0.5-3.1-1.3
		s-1.2-2.1-1.2-3.6L559.5,57.8L559.5,57.8z M561.1,58c0,1,0.2,1.9,0.7,2.5s1.1,1,2,1s1.5-0.3,2-1s0.7-1.5,0.7-2.7
		c0-1-0.2-1.9-0.7-2.5s-1.2-1-2-1s-1.5,0.3-1.9,1S561.1,56.8,561.1,58z"/>
	<path class="st0" d="M571.5,61.3h5.6v1.3h-7.5v-1.2l5.2-7h-5.2v-1.3h7.2v1.2L571.5,61.3L571.5,61.3z M573.3,50.6l1.3-1.5h1.4v0.1
		l-2.2,2.4h-1l-2.2-2.4v-0.1h1.4L573.3,50.6L573.3,50.6z"/>
	<path class="st0" d="M581.6,58.2l-1,1.1v3.3h-1.6V49.1h1.6v8.2l0.9-1l3-3.1h2l-3.7,4l4.1,5.5h-1.9
		C584.9,62.6,581.6,58.2,581.6,58.2z"/>
	<path class="st0" d="M593.9,62.6c-0.1-0.2-0.2-0.5-0.2-1c-0.8,0.8-1.7,1.2-2.7,1.2c-0.9,0-1.7-0.3-2.3-0.8c-0.6-0.5-0.9-1.2-0.9-2
		c0-1,0.4-1.8,1.1-2.3c0.8-0.5,1.8-0.8,3.2-0.8h1.6v-0.8c0-0.6-0.2-1-0.5-1.4s-0.8-0.5-1.5-0.5c-0.6,0-1.1,0.2-1.5,0.4
		s-0.6,0.7-0.6,1.1H588c0-0.5,0.2-0.9,0.5-1.4s0.8-0.8,1.4-1s1.2-0.4,1.9-0.4c1.1,0,2,0.3,2.6,0.8s0.9,1.3,1,2.3v4.4
		c0,0.9,0.1,1.6,0.3,2.1v0.1L593.9,62.6L593.9,62.6z M591.2,61.4c0.5,0,1-0.1,1.5-0.4s0.8-0.6,1-1v-2h-1.3c-2,0-3,0.6-3,1.8
		c0,0.5,0.2,0.9,0.5,1.2S590.7,61.4,591.2,61.4z"/>
	<path class="st0" d="M479,78.8c0.5,0,0.9-0.1,1.1-0.4s0.5-0.6,0.5-1h2.4c0,0.6-0.2,1.2-0.5,1.8c-0.4,0.5-0.8,0.9-1.4,1.2
		c-0.6,0.3-1.3,0.4-2,0.4c-1.4,0-2.4-0.4-3.2-1.3c-0.8-0.9-1.2-2.1-1.2-3.6v-0.2c0-1.5,0.4-2.6,1.2-3.5s1.9-1.3,3.2-1.3
		c1.2,0,2.1,0.3,2.9,1c0.7,0.7,1.1,1.6,1.1,2.7h-2.4c0-0.5-0.2-0.9-0.5-1.2s-0.7-0.5-1.2-0.5c-0.6,0-1,0.2-1.3,0.7s-0.5,1.1-0.5,2.1
		V76c0,1,0.1,1.7,0.5,2.1S478.4,78.7,479,78.8L479,78.8z"/>
	<path class="st0" d="M488.8,80.8c-1.4,0-2.5-0.4-3.4-1.3s-1.3-2-1.3-3.4v-0.2c0-1,0.2-1.8,0.5-2.6s0.9-1.3,1.6-1.7s1.5-0.6,2.3-0.6
		c1.3,0,2.3,0.4,3.1,1.2s1.1,2,1.1,3.5v1h-6.1c0.1,0.6,0.3,1.1,0.7,1.5s0.9,0.6,1.6,0.6c1,0,1.7-0.3,2.3-1.1l1.2,1.4
		c-0.4,0.5-0.9,1-1.5,1.3S489.6,80.8,488.8,80.8L488.8,80.8z M488.5,73c-0.5,0-0.9,0.2-1.2,0.5c-0.3,0.3-0.5,0.8-0.6,1.5h3.5v-0.2
		c0-0.6-0.2-1-0.5-1.3C489.4,73.2,489,73,488.5,73L488.5,73z"/>
	<path class="st0" d="M496.5,71.1l0.1,1.1c0.7-0.8,1.6-1.2,2.7-1.2c1.2,0,2.1,0.5,2.5,1.4c0.7-1,1.6-1.4,2.9-1.4
		c1,0,1.8,0.3,2.3,0.9s0.8,1.5,0.8,2.7v6.1h-2.5v-6.1c0-0.5-0.1-0.9-0.3-1.2s-0.6-0.4-1.1-0.4c-0.8,0-1.3,0.4-1.6,1.1v6.5h-2.5v-6.1
		c0-0.6-0.1-0.9-0.3-1.2s-0.6-0.4-1.1-0.4c-0.7,0-1.2,0.3-1.6,0.9v6.7h-2.5v-9.5L496.5,71.1L496.5,71.1z"/>
	<path class="st0" d="M514.1,80.8c-1.4,0-2.5-0.4-3.4-1.3s-1.3-2-1.3-3.4v-0.2c0-1,0.2-1.8,0.5-2.6s0.9-1.3,1.6-1.7
		c0.7-0.4,1.4-0.6,2.3-0.6c1.3,0,2.3,0.4,3.1,1.2s1.1,2,1.1,3.5v1h-6.1c0.1,0.6,0.3,1.1,0.7,1.5s0.9,0.6,1.6,0.6
		c1,0,1.7-0.3,2.3-1.1l1.2,1.4c-0.4,0.5-0.9,1-1.5,1.3C515.6,80.7,514.9,80.8,514.1,80.8L514.1,80.8z M513.8,73
		c-0.5,0-0.9,0.2-1.2,0.5c-0.3,0.3-0.5,0.8-0.6,1.5h3.5v-0.2c0-0.6-0.2-1-0.5-1.3C514.8,73.2,514.3,73,513.8,73L513.8,73z"/>
	<path class="st0" d="M521.8,71.1l0.1,1.1c0.7-0.8,1.6-1.3,2.7-1.3c1,0,1.8,0.3,2.2,0.9s0.7,1.5,0.8,2.7v6.1h-2.5v-6.1
		c0-0.5-0.1-0.9-0.3-1.2s-0.6-0.4-1.2-0.4c-0.7,0-1.2,0.3-1.6,0.9v6.7h-2.5v-9.5L521.8,71.1L521.8,71.1z"/>
	<path class="st0" d="M532.6,68.8v2.3h1.6V73h-1.6v4.8c0,0.3,0.1,0.6,0.2,0.8s0.4,0.2,0.8,0.2c0.3,0,0.5,0,0.8-0.1v1.9
		c-0.5,0.2-1,0.2-1.5,0.2c-1.8,0-2.7-0.9-2.7-2.7V73h-1.4v-1.9h1.4v-2.3L532.6,68.8L532.6,68.8z"/>
	<path class="st0" d="M541.3,79.7c-0.6,0.8-1.5,1.1-2.6,1.1c-1,0-1.8-0.3-2.3-0.9s-0.8-1.4-0.8-2.6v-6.2h2.5v6.2
		c0,1,0.5,1.5,1.3,1.5s1.5-0.3,1.8-0.9v-6.7h2.5v9.5h-2.4L541.3,79.7L541.3,79.7z"/>
</g>
<g class="st1">
	<path class="st8" d="M313.5,62.3c0.5,0,1-0.2,1.4-0.5c0.4-0.3,0.6-0.7,0.6-1.2h1.4c0,0.5-0.2,0.9-0.5,1.4c-0.3,0.4-0.7,0.8-1.2,1
		c-0.5,0.3-1.1,0.4-1.6,0.4c-1.2,0-2.1-0.4-2.7-1.2s-1-1.8-1-3.2v-0.2c0-0.8,0.2-1.6,0.5-2.2c0.3-0.6,0.7-1.1,1.3-1.5
		c0.6-0.4,1.2-0.5,2-0.5c0.9,0,1.7,0.3,2.4,0.9c0.6,0.6,1,1.3,1,2.2h-1.4c0-0.5-0.2-1-0.6-1.3c-0.4-0.4-0.8-0.5-1.4-0.5
		c-0.7,0-1.3,0.3-1.7,0.8c-0.4,0.5-0.6,1.3-0.6,2.3v0.3c0,1,0.2,1.7,0.6,2.2C312.2,62,312.7,62.3,313.5,62.3z"/>
	<path class="st8" d="M319.9,55.9c0.6-0.8,1.5-1.2,2.5-1.2c1.8,0,2.7,1,2.7,3v5.6h-1.4v-5.6c0-0.6-0.1-1.1-0.4-1.4s-0.7-0.4-1.3-0.4
		c-0.5,0-0.9,0.1-1.2,0.4c-0.4,0.2-0.6,0.6-0.8,1v6h-1.4v-12h1.4V55.9z"/>
	<path class="st8" d="M330.8,63.4c-1.1,0-2.1-0.4-2.8-1.1s-1.1-1.8-1.1-3V59c0-0.8,0.2-1.6,0.5-2.2s0.8-1.2,1.3-1.5
		c0.6-0.4,1.2-0.6,1.9-0.6c1.1,0,2,0.4,2.6,1.1s0.9,1.8,0.9,3.1v0.6h-5.7c0,0.8,0.3,1.5,0.7,2c0.5,0.5,1.1,0.8,1.8,0.8
		c0.5,0,0.9-0.1,1.3-0.3c0.4-0.2,0.7-0.5,0.9-0.8l0.9,0.7C333.3,62.9,332.2,63.4,330.8,63.4z M330.6,55.9c-0.6,0-1.1,0.2-1.5,0.6
		c-0.4,0.4-0.6,1-0.7,1.8h4.2v-0.1c0-0.7-0.2-1.3-0.6-1.7C331.7,56.1,331.2,55.9,330.6,55.9z"/>
	<path class="st8" d="M337.1,54.8l0,0.9c0.6-0.7,1.5-1.1,2.5-1.1c1.2,0,2,0.5,2.4,1.4c0.3-0.4,0.6-0.7,1.1-1c0.5-0.2,1-0.4,1.6-0.4
		c1.9,0,2.8,1,2.8,2.9v5.7h-1.4v-5.6c0-0.6-0.1-1.1-0.4-1.4c-0.3-0.3-0.7-0.4-1.4-0.4c-0.5,0-1,0.2-1.3,0.5
		c-0.4,0.3-0.6,0.8-0.6,1.3v5.6h-1.5v-5.5c0-1.2-0.6-1.8-1.8-1.8c-0.9,0-1.6,0.4-1.9,1.2v6.2h-1.4v-8.5H337.1z"/>
	<path class="st8" d="M349.8,52.6c0-0.2,0.1-0.4,0.2-0.6c0.1-0.2,0.4-0.2,0.6-0.2s0.5,0.1,0.6,0.2c0.1,0.2,0.2,0.4,0.2,0.6
		s-0.1,0.4-0.2,0.6c-0.1,0.2-0.4,0.2-0.6,0.2s-0.5-0.1-0.6-0.2C349.9,53,349.8,52.8,349.8,52.6z M351.3,63.3h-1.4v-8.5h1.4V63.3z"/>
	<path class="st8" d="M357,62.3c0.5,0,1-0.2,1.4-0.5c0.4-0.3,0.6-0.7,0.6-1.2h1.4c0,0.5-0.2,0.9-0.5,1.4c-0.3,0.4-0.7,0.8-1.2,1
		c-0.5,0.3-1.1,0.4-1.6,0.4c-1.2,0-2.1-0.4-2.7-1.2s-1-1.8-1-3.2v-0.2c0-0.8,0.2-1.6,0.5-2.2c0.3-0.6,0.7-1.1,1.3-1.5
		c0.6-0.4,1.2-0.5,2-0.5c0.9,0,1.7,0.3,2.4,0.9c0.6,0.6,1,1.3,1,2.2H359c0-0.5-0.2-1-0.6-1.3c-0.4-0.4-0.8-0.5-1.4-0.5
		c-0.7,0-1.3,0.3-1.7,0.8c-0.4,0.5-0.6,1.3-0.6,2.3v0.3c0,1,0.2,1.7,0.6,2.2C355.7,62,356.3,62.3,357,62.3z"/>
	<path class="st8" d="M364.4,59.4l-0.9,0.9v3H362v-12h1.4v7.3l0.8-0.9l2.6-2.8h1.8l-3.3,3.5l3.7,4.9h-1.7L364.4,59.4z"/>
	<path class="st8" d="M375.4,63.3c-0.1-0.2-0.2-0.5-0.2-0.9c-0.7,0.7-1.5,1-2.4,1c-0.8,0-1.5-0.2-2.1-0.7c-0.5-0.5-0.8-1.1-0.8-1.8
		c0-0.9,0.3-1.6,1-2.1c0.7-0.5,1.6-0.7,2.8-0.7h1.4v-0.7c0-0.5-0.2-0.9-0.5-1.2c-0.3-0.3-0.7-0.4-1.3-0.4c-0.5,0-0.9,0.1-1.3,0.4
		c-0.3,0.3-0.5,0.6-0.5,0.9h-1.5c0-0.4,0.1-0.8,0.4-1.2c0.3-0.4,0.7-0.7,1.2-0.9c0.5-0.2,1.1-0.3,1.7-0.3c1,0,1.7,0.2,2.3,0.7
		c0.6,0.5,0.8,1.2,0.9,2v3.9c0,0.8,0.1,1.4,0.3,1.9v0.1H375.4z M373,62.2c0.5,0,0.9-0.1,1.3-0.4s0.7-0.5,0.9-0.9v-1.7H374
		c-1.8,0-2.7,0.5-2.7,1.6c0,0.5,0.2,0.8,0.5,1.1C372.1,62.1,372.5,62.2,373,62.2z M374.3,51.3h1.8l-2.1,2.3l-1.2,0L374.3,51.3z"/>
</g>
<g class="st1">
	<path class="st8" d="M324.9,73.1c-0.2,0-0.5-0.1-0.7-0.1c-0.9,0-1.6,0.4-1.9,1.2v6h-1.4v-8.5h1.4l0,1c0.5-0.8,1.1-1.1,2-1.1
		c0.3,0,0.5,0,0.6,0.1V73.1z"/>
</g>
<g class="st1">
	<path class="st8" d="M329.6,80.4c-1.1,0-2.1-0.4-2.8-1.1s-1.1-1.8-1.1-3V76c0-0.8,0.2-1.6,0.5-2.2s0.8-1.2,1.3-1.5
		c0.6-0.4,1.2-0.6,1.9-0.6c1.1,0,2,0.4,2.6,1.1s0.9,1.8,0.9,3.1v0.6h-5.7c0,0.8,0.3,1.5,0.7,2c0.5,0.5,1.1,0.8,1.8,0.8
		c0.5,0,0.9-0.1,1.3-0.3c0.4-0.2,0.7-0.5,0.9-0.8l0.9,0.7C332.1,79.9,331,80.4,329.6,80.4z M329.4,72.9c-0.6,0-1.1,0.2-1.5,0.6
		c-0.4,0.4-0.6,1-0.7,1.8h4.2v-0.1c0-0.7-0.2-1.3-0.6-1.7C330.5,73.1,330,72.9,329.4,72.9z"/>
	<path class="st8" d="M339.8,80.3c-0.1-0.2-0.2-0.5-0.2-0.9c-0.7,0.7-1.5,1-2.4,1c-0.8,0-1.5-0.2-2.1-0.7c-0.5-0.5-0.8-1.1-0.8-1.8
		c0-0.9,0.3-1.6,1-2.1c0.7-0.5,1.6-0.7,2.8-0.7h1.4v-0.7c0-0.5-0.2-0.9-0.5-1.2c-0.3-0.3-0.7-0.4-1.3-0.4c-0.5,0-0.9,0.1-1.3,0.4
		c-0.3,0.3-0.5,0.6-0.5,0.9h-1.5c0-0.4,0.1-0.8,0.4-1.2c0.3-0.4,0.7-0.7,1.2-0.9c0.5-0.2,1.1-0.3,1.7-0.3c1,0,1.7,0.2,2.3,0.7
		c0.6,0.5,0.8,1.2,0.9,2v3.9c0,0.8,0.1,1.4,0.3,1.9v0.1H339.8z M337.4,79.2c0.5,0,0.9-0.1,1.3-0.4s0.7-0.5,0.9-0.9v-1.7h-1.1
		c-1.8,0-2.7,0.5-2.7,1.6c0,0.5,0.2,0.8,0.5,1.1C336.5,79.1,336.9,79.2,337.4,79.2z"/>
</g>
<g class="st1">
	<path class="st8" d="M345.6,76.4l-0.9,0.9v3h-1.4v-12h1.4v7.3l0.8-0.9l2.6-2.8h1.8l-3.3,3.5l3.7,4.9h-1.7L345.6,76.4z"/>
</g>
<g class="st1">
	<path class="st8" d="M354.6,79.3c0.5,0,1-0.2,1.4-0.5c0.4-0.3,0.6-0.7,0.6-1.2h1.4c0,0.5-0.2,0.9-0.5,1.4c-0.3,0.4-0.7,0.8-1.2,1
		c-0.5,0.3-1.1,0.4-1.6,0.4c-1.2,0-2.1-0.4-2.7-1.2s-1-1.8-1-3.2v-0.2c0-0.8,0.2-1.6,0.5-2.2c0.3-0.6,0.7-1.1,1.3-1.5
		c0.6-0.4,1.2-0.5,2-0.5c0.9,0,1.7,0.3,2.4,0.9c0.6,0.6,1,1.3,1,2.2h-1.4c0-0.5-0.2-1-0.6-1.3c-0.4-0.4-0.8-0.5-1.4-0.5
		c-0.7,0-1.3,0.3-1.7,0.8c-0.4,0.5-0.6,1.3-0.6,2.3v0.3c0,1,0.2,1.7,0.6,2.2C353.3,79,353.9,79.3,354.6,79.3z"/>
	<path class="st8" d="M363.1,80.4c-1.1,0-2.1-0.4-2.8-1.1s-1.1-1.8-1.1-3V76c0-0.8,0.2-1.6,0.5-2.2s0.8-1.2,1.3-1.5
		c0.6-0.4,1.2-0.6,1.9-0.6c1.1,0,2,0.4,2.6,1.1s0.9,1.8,0.9,3.1v0.6h-5.7c0,0.8,0.3,1.5,0.7,2c0.5,0.5,1.1,0.8,1.8,0.8
		c0.5,0,0.9-0.1,1.3-0.3c0.4-0.2,0.7-0.5,0.9-0.8l0.9,0.7C365.6,79.9,364.5,80.4,363.1,80.4z M362.9,72.9c-0.6,0-1.1,0.2-1.5,0.6
		c-0.4,0.4-0.6,1-0.7,1.8h4.2v-0.1c0-0.7-0.2-1.3-0.6-1.7C364,73.1,363.5,72.9,362.9,72.9z"/>
</g>
<circle class="st7" cx="215.7" cy="268.8" r="45.5"/>
<g class="st1">
	<path class="st8" d="M187.7,270.6c0-0.4-0.1-0.7-0.4-0.9c-0.3-0.2-0.8-0.4-1.5-0.6c-0.7-0.2-1.3-0.3-1.7-0.6s-0.7-0.5-1-0.8
		c-0.2-0.3-0.3-0.7-0.3-1.1c0-0.7,0.3-1.3,0.9-1.8s1.3-0.7,2.2-0.7c1,0,1.7,0.2,2.3,0.7c0.6,0.5,0.9,1.1,0.9,1.9h-1.5
		c0-0.4-0.2-0.7-0.5-1s-0.8-0.4-1.3-0.4c-0.5,0-0.9,0.1-1.2,0.3s-0.4,0.5-0.4,0.9c0,0.3,0.1,0.6,0.4,0.8c0.3,0.2,0.8,0.3,1.5,0.5
		c0.7,0.2,1.3,0.4,1.8,0.6c0.4,0.2,0.8,0.5,1,0.8c0.2,0.3,0.3,0.7,0.3,1.2c0,0.8-0.3,1.4-0.9,1.8c-0.6,0.5-1.4,0.7-2.4,0.7
		c-0.7,0-1.3-0.1-1.8-0.4c-0.5-0.2-0.9-0.6-1.2-1c-0.3-0.4-0.4-0.9-0.4-1.4h1.4c0,0.5,0.2,0.9,0.6,1.2c0.4,0.3,0.8,0.4,1.4,0.4
		c0.5,0,1-0.1,1.3-0.3C187.6,271.2,187.7,270.9,187.7,270.6z"/>
	<path class="st8" d="M198.2,268.7c0,1.3-0.3,2.3-0.9,3.1c-0.6,0.8-1.4,1.2-2.4,1.2c-1,0-1.8-0.3-2.4-1v4.1h-1.4v-11.7h1.3l0.1,0.9
		c0.6-0.7,1.4-1.1,2.5-1.1c1,0,1.8,0.4,2.4,1.1c0.6,0.8,0.9,1.8,0.9,3.2V268.7z M196.8,268.5c0-1-0.2-1.7-0.6-2.3s-1-0.8-1.7-0.8
		c-0.9,0-1.5,0.4-2,1.2v4c0.4,0.8,1.1,1.2,2,1.2c0.7,0,1.2-0.3,1.7-0.8C196.6,270.4,196.8,269.6,196.8,268.5z"/>
	<path class="st8" d="M205.3,272.8c-0.1-0.2-0.2-0.5-0.2-0.9c-0.7,0.7-1.5,1-2.4,1c-0.8,0-1.5-0.2-2.1-0.7c-0.5-0.5-0.8-1.1-0.8-1.8
		c0-0.9,0.3-1.6,1-2.1c0.7-0.5,1.6-0.7,2.8-0.7h1.4V267c0-0.5-0.2-0.9-0.5-1.2c-0.3-0.3-0.7-0.4-1.3-0.4c-0.5,0-0.9,0.1-1.3,0.4
		c-0.3,0.3-0.5,0.6-0.5,0.9H200c0-0.4,0.1-0.8,0.4-1.2c0.3-0.4,0.7-0.7,1.2-0.9c0.5-0.2,1.1-0.3,1.7-0.3c1,0,1.7,0.2,2.3,0.7
		c0.6,0.5,0.8,1.2,0.9,2v3.9c0,0.8,0.1,1.4,0.3,1.9v0.1H205.3z M202.9,271.7c0.5,0,0.9-0.1,1.3-0.4s0.7-0.5,0.9-0.9v-1.7h-1.1
		c-1.8,0-2.7,0.5-2.7,1.6c0,0.5,0.2,0.8,0.5,1.1C202,271.6,202.4,271.7,202.9,271.7z"/>
	<path class="st8" d="M210.3,272.8h-1.4v-12h1.4V272.8z"/>
</g>
<g class="st1">
	<path class="st8" d="M212.2,268.5c0-0.8,0.2-1.6,0.5-2.2c0.3-0.7,0.8-1.2,1.4-1.5c0.6-0.4,1.2-0.5,2-0.5c1.2,0,2.1,0.4,2.8,1.2
		s1.1,1.9,1.1,3.2v0.1c0,0.8-0.2,1.6-0.5,2.2c-0.3,0.7-0.8,1.2-1.4,1.5s-1.3,0.5-2,0.5c-1.1,0-2.1-0.4-2.8-1.2s-1.1-1.9-1.1-3.2
		V268.5z M213.7,268.7c0,0.9,0.2,1.7,0.7,2.3c0.4,0.6,1,0.9,1.7,0.9c0.7,0,1.3-0.3,1.8-0.9c0.4-0.6,0.6-1.4,0.6-2.4
		c0-0.9-0.2-1.7-0.7-2.3c-0.4-0.6-1-0.9-1.8-0.9c-0.7,0-1.3,0.3-1.7,0.9S213.7,267.6,213.7,268.7z"/>
	<path class="st8" d="M224.4,270.9l2.1-6.5h1.5l-3,8.5h-1.1l-3.1-8.5h1.5L224.4,270.9z"/>
</g>
<g class="st1">
	<path class="st8" d="M234.5,272.8c-0.1-0.2-0.2-0.5-0.2-0.9c-0.7,0.7-1.5,1-2.4,1c-0.8,0-1.5-0.2-2.1-0.7c-0.5-0.5-0.8-1.1-0.8-1.8
		c0-0.9,0.3-1.6,1-2.1c0.7-0.5,1.6-0.7,2.8-0.7h1.4V267c0-0.5-0.2-0.9-0.5-1.2c-0.3-0.3-0.7-0.4-1.3-0.4c-0.5,0-0.9,0.1-1.3,0.4
		c-0.3,0.3-0.5,0.6-0.5,0.9h-1.5c0-0.4,0.1-0.8,0.4-1.2c0.3-0.4,0.7-0.7,1.2-0.9c0.5-0.2,1.1-0.3,1.7-0.3c1,0,1.7,0.2,2.3,0.7
		c0.6,0.5,0.8,1.2,0.9,2v3.9c0,0.8,0.1,1.4,0.3,1.9v0.1H234.5z M232.1,271.7c0.5,0,0.9-0.1,1.3-0.4s0.7-0.5,0.9-0.9v-1.7h-1.1
		c-1.8,0-2.7,0.5-2.7,1.6c0,0.5,0.2,0.8,0.5,1.1C231.2,271.6,231.6,271.7,232.1,271.7z M233.4,260.8h1.8l-2.1,2.3l-1.2,0
		L233.4,260.8z"/>
	<path class="st8" d="M239.3,264.4l0,1.1c0.6-0.8,1.5-1.2,2.5-1.2c1.8,0,2.7,1,2.7,3v5.6h-1.4v-5.6c0-0.6-0.1-1.1-0.4-1.4
		s-0.7-0.4-1.3-0.4c-0.5,0-0.9,0.1-1.2,0.4c-0.4,0.2-0.6,0.6-0.8,1v6H238v-8.5H239.3z"/>
	<path class="st8" d="M248.4,260.8h1.8l-2.1,2.3l-1.2,0L248.4,260.8z M248.4,272.8h-1.5v-8.5h1.5V272.8z"/>
</g>
<g>
	<line class="st9" x1="233.8" y1="65.4" x2="281.3" y2="65.4"/>
	<polygon class="st10" points="279.8,70.4 288.4,65.4 279.8,60.5 	"/>
</g>
<g>
	<line class="st9" x1="398.3" y1="65.4" x2="445.8" y2="65.4"/>
	<polygon class="st10" points="444.3,70.4 452.9,65.4 444.3,60.5 	"/>
</g>
<g>
	<g class="st1">
		<path class="st0" d="M534.8,165.4c-0.1,1.4-0.6,2.5-1.5,3.3s-2.1,1.2-3.6,1.2c-1.6,0-2.9-0.6-3.9-1.7s-1.4-2.6-1.4-4.5v-0.8
			c0-1.2,0.2-2.3,0.7-3.3s1.1-1.7,1.9-2.2c0.8-0.5,1.7-0.8,2.8-0.8c1.5,0,2.7,0.4,3.6,1.2s1.4,1.9,1.6,3.3h-2.6
			c-0.1-0.8-0.3-1.4-0.7-1.8s-1-0.6-1.8-0.6c-0.9,0-1.5,0.3-2,0.9s-0.7,1.6-0.7,2.9v1c0,1.4,0.2,2.4,0.6,3s1.1,1,2,1
			c0.8,0,1.4-0.2,1.8-0.6s0.6-0.9,0.7-1.7H534.8z"/>
		<path class="st0" d="M547,163.6c0,1.3-0.2,2.4-0.7,3.3s-1.1,1.7-1.9,2.2s-1.8,0.8-2.9,0.8c-1.1,0-2-0.3-2.8-0.8s-1.5-1.2-1.9-2.2
			c-0.5-0.9-0.7-2-0.7-3.3V163c0-1.3,0.2-2.4,0.7-3.3c0.5-1,1.1-1.7,1.9-2.2s1.8-0.8,2.8-0.8s2,0.3,2.8,0.8s1.5,1.2,1.9,2.2
			c0.5,1,0.7,2.1,0.7,3.3V163.6z M544.3,163c0-1.3-0.2-2.4-0.7-3.1s-1.2-1-2.1-1c-0.9,0-1.6,0.3-2,1s-0.7,1.7-0.7,3v0.6
			c0,1.3,0.2,2.3,0.7,3s1.2,1.1,2.1,1.1c0.9,0,1.6-0.3,2-1c0.5-0.7,0.7-1.7,0.7-3V163z"/>
	</g>
	<g class="st1">
		<path class="st0" d="M553.4,173.7h-5.1v-1l2.4-2.6c0.3-0.4,0.6-0.7,0.7-0.9c0.2-0.3,0.2-0.5,0.2-0.8c0-0.3-0.1-0.6-0.2-0.8
			c-0.2-0.2-0.4-0.3-0.7-0.3c-0.3,0-0.6,0.1-0.8,0.3s-0.3,0.5-0.3,0.9h-1.5c0-0.5,0.1-0.9,0.3-1.2s0.5-0.7,0.9-0.9s0.8-0.3,1.3-0.3
			c0.8,0,1.4,0.2,1.8,0.6s0.6,0.9,0.6,1.6c0,0.4-0.1,0.7-0.3,1.1c-0.2,0.4-0.5,0.8-1,1.3l-1.7,1.8h3.2V173.7z"/>
	</g>
</g>
<g class="st1">
	<path class="st4" d="M531.4,193.4c0,1.5-0.3,2.6-0.8,3.3s-1.3,1.1-2.4,1.1c-1.1,0-1.8-0.4-2.4-1.1c-0.5-0.7-0.8-1.8-0.8-3.2v-1.7
		c0-1.5,0.3-2.5,0.8-3.3s1.3-1.1,2.4-1.1c1.1,0,1.9,0.3,2.4,1c0.5,0.7,0.8,1.7,0.8,3.2V193.4z M530.1,191.6c0-1.1-0.2-1.9-0.5-2.3
		c-0.3-0.5-0.8-0.7-1.4-0.7c-0.6,0-1.1,0.2-1.4,0.7c-0.3,0.5-0.4,1.2-0.5,2.2v2c0,1.1,0.2,1.9,0.5,2.4c0.3,0.5,0.8,0.8,1.4,0.8
		c0.6,0,1.1-0.2,1.4-0.7c0.3-0.5,0.5-1.2,0.5-2.3V191.6z"/>
	<path class="st4" d="M533.1,199.6l-0.7-0.5c0.4-0.6,0.7-1.2,0.7-1.8v-1.1h1.2v1c0,0.5-0.1,0.9-0.3,1.4S533.4,199.3,533.1,199.6z"/>
	<path class="st4" d="M537.6,192h1c0.6,0,1.1-0.2,1.4-0.5s0.5-0.7,0.5-1.2c0-1.2-0.6-1.8-1.7-1.8c-0.5,0-1,0.2-1.3,0.5
		c-0.3,0.3-0.5,0.7-0.5,1.2h-1.3c0-0.8,0.3-1.4,0.9-2c0.6-0.5,1.3-0.8,2.2-0.8c0.9,0,1.7,0.2,2.2,0.7s0.8,1.2,0.8,2.1
		c0,0.4-0.1,0.9-0.4,1.3s-0.7,0.7-1.1,0.9c0.5,0.2,1,0.5,1.3,0.9c0.3,0.4,0.4,0.9,0.4,1.5c0,0.9-0.3,1.6-0.9,2.1
		c-0.6,0.5-1.3,0.8-2.3,0.8c-0.9,0-1.7-0.3-2.3-0.8c-0.6-0.5-0.9-1.2-0.9-2h1.3c0,0.5,0.2,0.9,0.5,1.3s0.8,0.5,1.4,0.5
		c0.6,0,1.1-0.2,1.4-0.5c0.3-0.3,0.5-0.8,0.5-1.4c0-0.6-0.2-1-0.5-1.3s-0.9-0.5-1.5-0.5h-1V192z"/>
	<path class="st4" d="M544.2,192.6l0.5-5h5.1v1.2h-4l-0.3,2.7c0.5-0.3,1-0.4,1.7-0.4c0.9,0,1.6,0.3,2.2,0.9c0.5,0.6,0.8,1.4,0.8,2.4
		c0,1-0.3,1.8-0.8,2.4c-0.6,0.6-1.3,0.9-2.3,0.9c-0.9,0-1.6-0.2-2.2-0.7c-0.6-0.5-0.9-1.2-1-2h1.2c0.1,0.6,0.3,1,0.6,1.3
		c0.3,0.3,0.8,0.4,1.3,0.4c0.6,0,1-0.2,1.4-0.6s0.5-1,0.5-1.7c0-0.7-0.2-1.2-0.5-1.6c-0.4-0.4-0.8-0.6-1.4-0.6c-0.6,0-1,0.1-1.3,0.4
		l-0.3,0.3L544.2,192.6z"/>
</g>
<g class="st1">
	<path class="st4" d="M557.2,194.2l-0.8,0.8v2.6h-1.3v-10.5h1.3v6.4l0.7-0.8l2.3-2.4h1.5l-2.9,3.1l3.2,4.3h-1.5L557.2,194.2z"/>
</g>
<g class="st1">
	<path class="st4" d="M561.7,193.9c0-1.2,0.3-2.1,0.8-2.8c0.5-0.7,1.2-1,2.1-1c0.9,0,1.6,0.3,2.1,1l0.1-0.8h1.2v7.2
		c0,1-0.3,1.7-0.9,2.3s-1.3,0.8-2.3,0.8c-0.5,0-1.1-0.1-1.6-0.3c-0.5-0.2-0.9-0.5-1.2-0.9l0.7-0.8c0.5,0.7,1.2,1,2,1
		c0.6,0,1.1-0.2,1.4-0.5c0.3-0.3,0.5-0.8,0.5-1.5v-0.6c-0.5,0.6-1.2,0.9-2.1,0.9c-0.9,0-1.6-0.3-2.1-1
		C562,196,561.7,195.1,561.7,193.9z M563,194c0,0.8,0.2,1.5,0.5,2c0.3,0.5,0.8,0.7,1.4,0.7c0.8,0,1.4-0.4,1.8-1.1v-3.4
		c-0.4-0.7-1-1.1-1.7-1.1c-0.6,0-1.1,0.2-1.4,0.7C563.2,192.4,563,193.1,563,194z"/>
</g>
<g class="st1">
	<path class="st3" d="M470.9,107.9h-1.3v-8.4l-2.5,0.9v-1.1l3.6-1.4h0.2V107.9z"/>
	<path class="st3" d="M474.7,109.9l-0.7-0.5c0.4-0.6,0.7-1.2,0.7-1.8v-1.1h1.2v1c0,0.5-0.1,0.9-0.3,1.4S475.1,109.6,474.7,109.9z"/>
	<path class="st3" d="M483.6,103.7c0,1.5-0.3,2.6-0.8,3.3s-1.3,1.1-2.4,1.1c-1.1,0-1.8-0.4-2.4-1.1c-0.5-0.7-0.8-1.8-0.8-3.2v-1.7
		c0-1.5,0.3-2.5,0.8-3.3s1.3-1.1,2.4-1.1c1.1,0,1.9,0.3,2.4,1c0.5,0.7,0.8,1.7,0.8,3.2V103.7z M482.4,102c0-1.1-0.2-1.9-0.5-2.3
		c-0.3-0.5-0.8-0.7-1.4-0.7c-0.6,0-1.1,0.2-1.4,0.7c-0.3,0.5-0.4,1.2-0.5,2.2v2c0,1.1,0.2,1.9,0.5,2.4c0.3,0.5,0.8,0.8,1.4,0.8
		c0.6,0,1.1-0.2,1.4-0.7c0.3-0.5,0.5-1.2,0.5-2.3V102z"/>
</g>
<g class="st1">
	<path class="st3" d="M490.9,104.5l-0.8,0.8v2.6h-1.3V97.4h1.3v6.4l0.7-0.8l2.3-2.4h1.5l-2.9,3.1l3.2,4.3h-1.5L490.9,104.5z"/>
</g>
<g class="st1">
	<path class="st3" d="M495.5,104.2c0-1.2,0.3-2.1,0.8-2.8c0.5-0.7,1.2-1,2.1-1c0.9,0,1.6,0.3,2.1,1l0.1-0.8h1.2v7.2
		c0,1-0.3,1.7-0.9,2.3s-1.3,0.8-2.3,0.8c-0.5,0-1.1-0.1-1.6-0.3c-0.5-0.2-0.9-0.5-1.2-0.9l0.7-0.8c0.5,0.7,1.2,1,2,1
		c0.6,0,1.1-0.2,1.4-0.5c0.3-0.3,0.5-0.8,0.5-1.5v-0.6c-0.5,0.6-1.2,0.9-2.1,0.9c-0.9,0-1.6-0.3-2.1-1
		C495.8,106.3,495.5,105.4,495.5,104.2z M496.8,104.3c0,0.8,0.2,1.5,0.5,2c0.3,0.5,0.8,0.7,1.4,0.7c0.8,0,1.4-0.4,1.8-1.1v-3.4
		c-0.4-0.7-1-1.1-1.7-1.1c-0.6,0-1.1,0.2-1.4,0.7C497,102.7,496.8,103.4,496.8,104.3z"/>
</g>
<g>
	<g class="st1">
		<path class="st0" d="M485.3,217.8c-0.1,1.4-0.6,2.5-1.5,3.3s-2.1,1.2-3.6,1.2c-1.6,0-2.9-0.6-3.9-1.7s-1.4-2.6-1.4-4.5v-0.8
			c0-1.2,0.2-2.3,0.7-3.3s1.1-1.7,1.9-2.2c0.8-0.5,1.7-0.8,2.8-0.8c1.5,0,2.7,0.4,3.6,1.2s1.4,1.9,1.6,3.3h-2.6
			c-0.1-0.8-0.3-1.4-0.7-1.8s-1-0.6-1.8-0.6c-0.9,0-1.5,0.3-2,0.9s-0.7,1.6-0.7,2.9v1c0,1.4,0.2,2.4,0.6,3s1.1,1,2,1
			c0.8,0,1.4-0.2,1.8-0.6s0.6-0.9,0.7-1.7H485.3z"/>
		<path class="st0" d="M497.6,216c0,1.3-0.2,2.4-0.7,3.3s-1.1,1.7-1.9,2.2s-1.8,0.8-2.9,0.8c-1.1,0-2-0.3-2.8-0.8s-1.5-1.2-1.9-2.2
			c-0.5-0.9-0.7-2-0.7-3.3v-0.6c0-1.3,0.2-2.4,0.7-3.3c0.5-1,1.1-1.7,1.9-2.2s1.8-0.8,2.8-0.8s2,0.3,2.8,0.8s1.5,1.2,1.9,2.2
			c0.5,1,0.7,2.1,0.7,3.3V216z M494.9,215.4c0-1.3-0.2-2.4-0.7-3.1s-1.2-1-2.1-1c-0.9,0-1.6,0.3-2,1s-0.7,1.7-0.7,3v0.6
			c0,1.3,0.2,2.3,0.7,3s1.2,1.1,2.1,1.1c0.9,0,1.6-0.3,2-1c0.5-0.7,0.7-1.7,0.7-3V215.4z"/>
	</g>
	<g class="st1">
		<path class="st0" d="M503.9,226.1h-5.1v-1l2.4-2.6c0.3-0.4,0.6-0.7,0.7-0.9c0.2-0.3,0.2-0.5,0.2-0.8c0-0.3-0.1-0.6-0.2-0.8
			c-0.2-0.2-0.4-0.3-0.7-0.3c-0.3,0-0.6,0.1-0.8,0.3s-0.3,0.5-0.3,0.9h-1.5c0-0.5,0.1-0.9,0.3-1.2s0.5-0.7,0.9-0.9
			c0.4-0.2,0.8-0.3,1.3-0.3c0.8,0,1.4,0.2,1.8,0.5s0.6,0.9,0.6,1.6c0,0.4-0.1,0.7-0.3,1.1s-0.5,0.8-1,1.3l-1.7,1.8h3.2V226.1z"/>
	</g>
</g>
<g class="st1">
	<path class="st4" d="M473.9,244.8c0,1.5-0.3,2.6-0.8,3.3c-0.5,0.7-1.3,1.1-2.4,1.1c-1.1,0-1.8-0.4-2.4-1.1
		c-0.5-0.7-0.8-1.8-0.8-3.2v-1.7c0-1.5,0.3-2.6,0.8-3.3s1.3-1.1,2.4-1.1c1.1,0,1.9,0.3,2.4,1s0.8,1.7,0.8,3.2V244.8z M472.7,243
		c0-1.1-0.2-1.9-0.5-2.3c-0.3-0.5-0.8-0.7-1.4-0.7c-0.6,0-1.1,0.2-1.4,0.7c-0.3,0.5-0.4,1.2-0.5,2.2v2c0,1.1,0.2,1.9,0.5,2.4
		c0.3,0.5,0.8,0.8,1.4,0.8c0.6,0,1.1-0.2,1.4-0.7c0.3-0.5,0.5-1.2,0.5-2.3V243z"/>
	<path class="st4" d="M475.6,251l-0.7-0.5c0.4-0.6,0.7-1.2,0.7-1.8v-1.1h1.2v1c0,0.5-0.1,0.9-0.3,1.4
		C476.3,250.4,476,250.7,475.6,251z"/>
	<path class="st4" d="M484.8,249h-6.5v-0.9l3.4-3.8c0.5-0.6,0.9-1.1,1.1-1.4c0.2-0.4,0.3-0.7,0.3-1.1c0-0.5-0.2-0.9-0.5-1.3
		c-0.3-0.3-0.7-0.5-1.3-0.5c-0.6,0-1.1,0.2-1.5,0.5s-0.5,0.9-0.5,1.5h-1.3c0-0.9,0.3-1.7,0.9-2.2c0.6-0.6,1.4-0.8,2.4-0.8
		c0.9,0,1.7,0.2,2.2,0.7c0.5,0.5,0.8,1.1,0.8,1.9c0,1-0.6,2.1-1.9,3.5l-2.7,2.9h5V249z"/>
	<path class="st4" d="M486.7,244l0.5-5h5.1v1.2h-4l-0.3,2.7c0.5-0.3,1-0.4,1.7-0.4c0.9,0,1.6,0.3,2.2,0.9s0.8,1.4,0.8,2.4
		c0,1-0.3,1.8-0.8,2.4s-1.3,0.9-2.3,0.9c-0.9,0-1.6-0.2-2.2-0.7c-0.6-0.5-0.9-1.2-1-2h1.2c0.1,0.6,0.3,1,0.6,1.3
		c0.3,0.3,0.8,0.4,1.3,0.4c0.6,0,1-0.2,1.4-0.6c0.3-0.4,0.5-1,0.5-1.7c0-0.7-0.2-1.2-0.5-1.6c-0.4-0.4-0.8-0.6-1.4-0.6
		c-0.6,0-1,0.1-1.3,0.4l-0.3,0.3L486.7,244z"/>
</g>
<g class="st1">
	<path class="st4" d="M499.7,245.6l-0.8,0.8v2.6h-1.3v-10.5h1.3v6.4l0.7-0.8l2.3-2.4h1.5l-2.9,3.1l3.2,4.3h-1.5L499.7,245.6z"/>
</g>
<g class="st1">
	<path class="st4" d="M504.3,245.3c0-1.2,0.3-2.1,0.8-2.8c0.5-0.7,1.2-1,2.1-1c0.9,0,1.6,0.3,2.1,1l0.1-0.8h1.2v7.2
		c0,1-0.3,1.7-0.9,2.3c-0.6,0.6-1.3,0.8-2.3,0.8c-0.5,0-1.1-0.1-1.6-0.3c-0.5-0.2-0.9-0.5-1.2-0.9l0.7-0.8c0.5,0.7,1.2,1,2,1
		c0.6,0,1.1-0.2,1.4-0.5c0.3-0.3,0.5-0.8,0.5-1.5v-0.6c-0.5,0.6-1.2,0.9-2.1,0.9c-0.9,0-1.6-0.3-2.1-1
		C504.5,247.4,504.3,246.5,504.3,245.3z M505.5,245.4c0,0.8,0.2,1.5,0.5,2s0.8,0.7,1.4,0.7c0.8,0,1.4-0.4,1.8-1.1v-3.4
		c-0.4-0.7-1-1.1-1.7-1.1c-0.6,0-1.1,0.2-1.4,0.7C505.7,243.8,505.5,244.5,505.5,245.4z"/>
</g>
<g>
	<path class="st11" d="M277.4,268.9c22.2,0,66.3,2.3,83.7-26.5c16.2-26.8,41.4-37.1,85.6-36.8"/>
	<polygon class="st10" points="445.3,210 453,205.7 445.4,201.1 	"/>
</g>
<g>
	<path class="st9" d="M283.6,151.8c-7.4-18.1-6.1-33.5,7.2-48.5"/>
	<polygon class="st10" points="293.4,107.8 295.8,98.1 286.2,100.9 	"/>
</g>
<g>
	<path class="st9" d="M399.5,82.4c33.6-1,34.5,15,45.8,40.3c14.2,31.6,24.4,31.2,51.5,31"/>
	<polygon class="st10" points="495.4,158.7 504,153.7 495.3,148.7 	"/>
</g>
<g>
	<path class="st9" d="M256.7,234.9c16.7-9.8,27.2-23.5,29.1-42"/>
	<polygon class="st10" points="290.6,194.6 286,185.8 280.6,194.1 	"/>
</g>
<g>
	<path class="st9" d="M98.4,300.1c9.4-18.4,25.8-18,46-18.5"/>
	<polygon class="st10" points="143.1,286.6 151.6,281.4 142.8,276.6 	"/>
</g>
<g>
	<path class="st9" d="M98.4,231.8c9.4,18.4,25.8,21,46,22.1"/>
	<polygon class="st10" points="142.7,258.7 151.6,254.2 143.2,248.8 	"/>
</g>
<g class="st1">
	<path class="st12" d="M156,45.9c-0.1,1.2-0.6,2.1-1.3,2.8c-0.7,0.7-1.7,1-3,1c-1.3,0-2.4-0.5-3.2-1.4c-0.8-1-1.2-2.3-1.2-3.9v-1.1
		c0-1.1,0.2-2,0.6-2.8c0.4-0.8,0.9-1.4,1.6-1.8c0.7-0.4,1.5-0.6,2.4-0.6c1.2,0,2.2,0.3,2.9,1c0.7,0.7,1.2,1.6,1.3,2.8h-1.5
		c-0.1-0.9-0.4-1.6-0.8-2c-0.4-0.4-1-0.6-1.8-0.6c-1,0-1.7,0.4-2.3,1.1c-0.5,0.7-0.8,1.7-0.8,3v1.1c0,1.2,0.3,2.2,0.8,2.9
		s1.2,1.1,2.2,1.1c0.8,0,1.5-0.2,1.9-0.6s0.7-1,0.9-2H156z"/>
	<path class="st12" d="M163.1,49.5c-0.1-0.2-0.2-0.5-0.2-0.9c-0.7,0.7-1.5,1-2.4,1c-0.8,0-1.5-0.2-2.1-0.7c-0.5-0.5-0.8-1.1-0.8-1.8
		c0-0.9,0.3-1.6,1-2.1c0.7-0.5,1.6-0.7,2.8-0.7h1.4v-0.7c0-0.5-0.2-0.9-0.5-1.2c-0.3-0.3-0.7-0.4-1.3-0.4c-0.5,0-0.9,0.1-1.3,0.4
		c-0.3,0.3-0.5,0.6-0.5,0.9h-1.5c0-0.4,0.1-0.8,0.4-1.2c0.3-0.4,0.7-0.7,1.2-0.9c0.5-0.2,1.1-0.3,1.7-0.3c1,0,1.7,0.2,2.3,0.7
		c0.6,0.5,0.8,1.2,0.9,2v3.9c0,0.8,0.1,1.4,0.3,1.9v0.1H163.1z M160.7,48.4c0.5,0,0.9-0.1,1.3-0.4s0.7-0.5,0.9-0.9v-1.7h-1.1
		c-1.8,0-2.7,0.5-2.7,1.6c0,0.5,0.2,0.8,0.5,1.1C159.8,48.3,160.2,48.4,160.7,48.4z"/>
	<path class="st12" d="M175.2,45.9c-0.1,1.2-0.6,2.1-1.3,2.8c-0.7,0.7-1.7,1-3,1c-1.3,0-2.4-0.5-3.2-1.4c-0.8-1-1.2-2.3-1.2-3.9
		v-1.1c0-1.1,0.2-2,0.6-2.8c0.4-0.8,0.9-1.4,1.6-1.8c0.7-0.4,1.5-0.6,2.4-0.6c1.2,0,2.2,0.3,2.9,1c0.7,0.7,1.2,1.6,1.3,2.8h-1.5
		c-0.1-0.9-0.4-1.6-0.8-2c-0.4-0.4-1-0.6-1.8-0.6c-1,0-1.7,0.4-2.3,1.1c-0.5,0.7-0.8,1.7-0.8,3v1.1c0,1.2,0.3,2.2,0.8,2.9
		s1.2,1.1,2.2,1.1c0.8,0,1.5-0.2,1.9-0.6s0.7-1,0.9-2H175.2z"/>
	<path class="st12" d="M186,44.2c0,1.1-0.2,2.1-0.6,2.9s-0.9,1.5-1.6,1.9s-1.5,0.7-2.4,0.7c-0.9,0-1.7-0.2-2.4-0.7
		c-0.7-0.4-1.2-1.1-1.6-1.9s-0.6-1.8-0.6-2.8v-0.8c0-1.1,0.2-2.1,0.6-2.9c0.4-0.8,0.9-1.5,1.6-1.9s1.5-0.7,2.4-0.7
		c0.9,0,1.7,0.2,2.4,0.7s1.2,1.1,1.6,1.9s0.6,1.8,0.6,2.9V44.2z M184.5,43.5c0-1.3-0.3-2.4-0.8-3.1c-0.5-0.7-1.3-1.1-2.3-1.1
		c-0.9,0-1.7,0.4-2.2,1.1c-0.5,0.7-0.8,1.7-0.8,3v0.8c0,1.3,0.3,2.3,0.8,3.1c0.5,0.7,1.3,1.1,2.3,1.1c1,0,1.7-0.4,2.2-1.1
		s0.8-1.7,0.8-3V43.5z"/>
</g>
<g class="st1">
	<path class="st12" d="M188.6,49.1h0.6c0.4,0,0.7-0.1,0.9-0.3c0.2-0.2,0.3-0.5,0.3-0.8c0-0.8-0.4-1.2-1.2-1.2
		c-0.4,0-0.7,0.1-0.9,0.3c-0.2,0.2-0.3,0.5-0.3,0.8h-0.8c0-0.5,0.2-1,0.6-1.3c0.4-0.3,0.9-0.5,1.5-0.5c0.6,0,1.1,0.2,1.5,0.5
		c0.4,0.3,0.5,0.8,0.5,1.4c0,0.3-0.1,0.6-0.3,0.8c-0.2,0.3-0.4,0.5-0.8,0.6c0.4,0.1,0.6,0.3,0.8,0.6c0.2,0.3,0.3,0.6,0.3,1
		c0,0.6-0.2,1.1-0.6,1.4c-0.4,0.3-0.9,0.5-1.5,0.5c-0.6,0-1.1-0.2-1.5-0.5c-0.4-0.3-0.6-0.8-0.6-1.3h0.8c0,0.3,0.1,0.6,0.3,0.8
		s0.5,0.3,0.9,0.3c0.4,0,0.7-0.1,0.9-0.3s0.3-0.5,0.3-0.9c0-0.4-0.1-0.7-0.4-0.9c-0.2-0.2-0.6-0.3-1-0.3h-0.6V49.1z"/>
</g>
<g class="st1">
	<path class="st0" d="M637.9,78.9c-0.1,1.2-0.6,2.1-1.3,2.8s-1.7,1-3,1c-1.3,0-2.4-0.5-3.2-1.4s-1.2-2.3-1.2-3.9v-1.1
		c0-1.1,0.2-2,0.6-2.8s0.9-1.4,1.6-1.8s1.5-0.6,2.4-0.6c1.2,0,2.2,0.3,2.9,1s1.2,1.6,1.3,2.8h-1.5c-0.1-0.9-0.4-1.6-0.8-2
		s-1-0.6-1.8-0.6c-1,0-1.7,0.4-2.3,1.1s-0.8,1.7-0.8,3v1.1c0,1.2,0.3,2.2,0.8,2.9s1.2,1.1,2.2,1.1c0.8,0,1.5-0.2,1.9-0.6
		s0.7-1,0.9-2H637.9z"/>
	<path class="st0" d="M644.9,82.5c-0.1-0.2-0.2-0.5-0.2-0.9c-0.7,0.7-1.5,1-2.4,1c-0.8,0-1.5-0.2-2.1-0.7s-0.8-1.1-0.8-1.8
		c0-0.9,0.3-1.6,1-2.1s1.6-0.7,2.8-0.7h1.4v-0.7c0-0.5-0.2-0.9-0.5-1.2s-0.7-0.4-1.3-0.4c-0.5,0-0.9,0.1-1.3,0.4s-0.5,0.6-0.5,0.9
		h-1.5c0-0.4,0.1-0.8,0.4-1.2s0.7-0.7,1.2-0.9s1.1-0.3,1.7-0.3c1,0,1.7,0.2,2.3,0.7s0.8,1.2,0.9,2v3.9c0,0.8,0.1,1.4,0.3,1.9v0.1
		H644.9z M642.5,81.4c0.5,0,0.9-0.1,1.3-0.4s0.7-0.5,0.9-0.9v-1.7h-1.1c-1.8,0-2.7,0.5-2.7,1.6c0,0.5,0.2,0.8,0.5,1.1
		S642.1,81.4,642.5,81.4z"/>
	<path class="st0" d="M657.4,77.2c0,1.1-0.2,2.1-0.6,2.9s-0.9,1.5-1.6,1.9s-1.5,0.7-2.4,0.7c-0.9,0-1.7-0.2-2.4-0.7
		s-1.2-1.1-1.6-1.9s-0.6-1.8-0.6-2.8v-0.8c0-1.1,0.2-2.1,0.6-2.9s0.9-1.5,1.6-1.9s1.5-0.7,2.4-0.7c0.9,0,1.7,0.2,2.4,0.7
		s1.2,1.1,1.6,1.9s0.6,1.8,0.6,2.9V77.2z M655.9,76.4c0-1.3-0.3-2.4-0.8-3.1s-1.3-1.1-2.3-1.1c-0.9,0-1.7,0.4-2.2,1.1
		s-0.8,1.7-0.8,3v0.8c0,1.3,0.3,2.3,0.8,3.1s1.3,1.1,2.3,1.1c1,0,1.7-0.4,2.2-1.1s0.8-1.7,0.8-3V76.4z"/>
</g>
<g class="st1">
	<path class="st12" d="M62.3,292.2c0,1.1-0.2,2.1-0.6,2.9s-0.9,1.5-1.6,1.9s-1.5,0.7-2.4,0.7c-0.9,0-1.7-0.2-2.4-0.7
		c-0.7-0.4-1.2-1.1-1.6-1.9s-0.6-1.8-0.6-2.8v-0.8c0-1.1,0.2-2.1,0.6-2.9c0.4-0.8,0.9-1.5,1.6-1.9s1.5-0.7,2.4-0.7
		c0.9,0,1.7,0.2,2.4,0.7s1.2,1.1,1.6,1.9s0.6,1.8,0.6,2.9V292.2z M60.8,291.5c0-1.3-0.3-2.4-0.8-3.1c-0.5-0.7-1.3-1.1-2.3-1.1
		c-0.9,0-1.7,0.4-2.2,1.1c-0.5,0.7-0.8,1.7-0.8,3v0.8c0,1.3,0.3,2.3,0.8,3.1c0.5,0.7,1.3,1.1,2.3,1.1c1,0,1.7-0.4,2.2-1.1
		s0.8-1.7,0.8-3V291.5z"/>
</g>
<g class="st1">
	<path class="st12" d="M68.1,300.8h-4.3v-0.6l2.3-2.5c0.3-0.4,0.6-0.7,0.7-0.9s0.2-0.5,0.2-0.7c0-0.3-0.1-0.6-0.3-0.8
		c-0.2-0.2-0.5-0.3-0.8-0.3c-0.4,0-0.7,0.1-1,0.4c-0.2,0.2-0.3,0.6-0.3,1h-0.8c0-0.6,0.2-1.1,0.6-1.5c0.4-0.4,0.9-0.6,1.6-0.6
		c0.6,0,1.1,0.2,1.5,0.5c0.4,0.3,0.5,0.8,0.5,1.3c0,0.6-0.4,1.4-1.2,2.3l-1.8,1.9h3.3V300.8z"/>
</g>
<g class="st1">
	<path class="st2" d="M151.2,65.8l1.8-6.4h2.7l-3.2,9.5h-2.4l-3.2-9.5h2.7L151.2,65.8z"/>
</g>
<g class="st1">
	<path class="st2" d="M162.1,68.9c-0.1-0.2-0.2-0.5-0.3-0.9c-0.6,0.7-1.4,1-2.4,1c-0.9,0-1.7-0.3-2.3-0.8s-0.9-1.2-0.9-2
		c0-1,0.4-1.8,1.1-2.3s1.8-0.8,3.2-0.8h1.2v-0.5c0-0.4-0.1-0.8-0.3-1.1s-0.6-0.4-1.1-0.4c-0.4,0-0.8,0.1-1,0.3s-0.4,0.5-0.4,0.8
		h-2.5c0-0.6,0.2-1.1,0.5-1.5s0.8-0.8,1.4-1.1s1.3-0.4,2.1-0.4c1.2,0,2.1,0.3,2.8,0.9c0.7,0.6,1,1.4,1,2.5v4.1c0,0.9,0.1,1.6,0.4,2
		v0.1H162.1z M160,67.1c0.4,0,0.7-0.1,1-0.3c0.3-0.2,0.6-0.4,0.7-0.7v-1.6h-0.9c-1.3,0-1.9,0.4-2,1.3l0,0.1c0,0.3,0.1,0.6,0.3,0.8
		S159.6,67.1,160,67.1z M160.9,55.4h2.8l-2.4,2.7h-2.1L160.9,55.4z"/>
	<path class="st2" d="M174.8,64.2c0,1.5-0.3,2.6-1,3.5s-1.6,1.3-2.7,1.3c-1,0-1.7-0.3-2.3-1v4.5h-2.5V59.4h2.4l0.1,0.9
		c0.6-0.7,1.4-1.1,2.4-1.1c1.2,0,2.1,0.4,2.7,1.3s1,2.1,1,3.6V64.2z M172.2,64.1c0-0.9-0.2-1.6-0.5-2s-0.8-0.7-1.4-0.7
		c-0.8,0-1.3,0.3-1.6,0.9v3.9c0.3,0.6,0.9,0.9,1.7,0.9C171.6,67,172.2,66,172.2,64.1z"/>
	<path class="st2" d="M180.7,69.1c-1.4,0-2.5-0.4-3.4-1.3s-1.3-2-1.3-3.4v-0.2c0-1,0.2-1.8,0.6-2.6s0.9-1.3,1.6-1.7s1.4-0.6,2.3-0.6
		c1.3,0,2.3,0.4,3.1,1.2s1.1,2,1.1,3.5v1h-6.1c0.1,0.6,0.3,1.1,0.7,1.5s0.9,0.6,1.6,0.6c1,0,1.7-0.4,2.3-1.1l1.2,1.4
		c-0.4,0.5-0.9,1-1.5,1.3C182.2,68.9,181.5,69.1,180.7,69.1z M180.4,61.3c-0.5,0-0.9,0.2-1.2,0.5c-0.3,0.3-0.5,0.8-0.6,1.5h3.5V63
		c0-0.6-0.2-1-0.5-1.3C181.4,61.4,181,61.3,180.4,61.3z"/>
	<path class="st2" d="M188.4,59.4l0.1,1.1c0.7-0.8,1.6-1.3,2.7-1.3c1,0,1.8,0.3,2.2,0.9s0.7,1.5,0.8,2.7v6.1h-2.5v-6.1
		c0-0.5-0.1-0.9-0.4-1.2c-0.2-0.2-0.6-0.4-1.2-0.4c-0.7,0-1.3,0.3-1.6,0.9v6.7H186v-9.5H188.4z"/>
	<path class="st2" d="M200.5,69.1c-1.4,0-2.5-0.4-3.4-1.3s-1.3-2-1.3-3.4v-0.2c0-1,0.2-1.8,0.6-2.6s0.9-1.3,1.6-1.7s1.4-0.6,2.3-0.6
		c1.3,0,2.3,0.4,3.1,1.2s1.1,2,1.1,3.5v1h-6.1c0.1,0.6,0.3,1.1,0.7,1.5s0.9,0.6,1.6,0.6c1,0,1.7-0.4,2.3-1.1l1.2,1.4
		c-0.4,0.5-0.9,1-1.5,1.3C202,68.9,201.3,69.1,200.5,69.1z M200.2,61.3c-0.5,0-0.9,0.2-1.2,0.5c-0.3,0.3-0.5,0.8-0.6,1.5h3.5V63
		c0-0.6-0.2-1-0.5-1.3C201.2,61.4,200.8,61.3,200.2,61.3z"/>
	<path class="st2" d="M209.8,67c0.5,0,0.8-0.1,1.1-0.4s0.4-0.6,0.5-1h2.4c0,0.6-0.2,1.2-0.5,1.8c-0.3,0.5-0.8,1-1.4,1.2
		c-0.6,0.3-1.3,0.4-2,0.4c-1.4,0-2.4-0.4-3.2-1.3c-0.8-0.9-1.2-2.1-1.2-3.6V64c0-1.5,0.4-2.6,1.2-3.5s1.8-1.3,3.2-1.3
		c1.2,0,2.1,0.3,2.9,1c0.7,0.7,1.1,1.6,1.1,2.7h-2.4c0-0.5-0.2-0.9-0.5-1.2s-0.7-0.5-1.2-0.5c-0.6,0-1,0.2-1.3,0.6
		c-0.3,0.4-0.5,1.1-0.5,2.1v0.3c0,1,0.1,1.7,0.4,2.1S209.2,67,209.8,67z"/>
</g>
<g class="st1">
	<path class="st2" d="M272.6,161.7v2.3h1.6v1.9h-1.6v4.7c0,0.4,0.1,0.6,0.2,0.8s0.4,0.2,0.8,0.2c0.3,0,0.5,0,0.7-0.1v1.9
		c-0.5,0.2-1,0.2-1.5,0.2c-1.8,0-2.7-0.9-2.7-2.7v-5.1h-1.4v-1.9h1.4v-2.3H272.6z"/>
	<path class="st2" d="M280,173.7c-1.4,0-2.5-0.4-3.4-1.3s-1.3-2-1.3-3.4v-0.2c0-1,0.2-1.8,0.6-2.6s0.9-1.3,1.6-1.7s1.4-0.6,2.3-0.6
		c1.3,0,2.3,0.4,3.1,1.2s1.1,2,1.1,3.5v1h-6.1c0.1,0.6,0.3,1.1,0.7,1.5s0.9,0.6,1.6,0.6c1,0,1.7-0.4,2.3-1.1l1.2,1.4
		c-0.4,0.5-0.9,1-1.5,1.3C281.5,173.6,280.8,173.7,280,173.7z M279.7,165.9c-0.5,0-0.9,0.2-1.2,0.5c-0.3,0.3-0.5,0.8-0.6,1.5h3.5
		v-0.2c0-0.6-0.2-1-0.5-1.3C280.7,166.1,280.3,165.9,279.7,165.9z"/>
	<path class="st2" d="M293.9,168.9c0,1.5-0.3,2.6-1,3.5s-1.6,1.3-2.7,1.3c-1,0-1.7-0.3-2.3-1v4.5h-2.5v-13.2h2.4l0.1,0.9
		c0.6-0.7,1.4-1.1,2.4-1.1c1.2,0,2.1,0.4,2.7,1.3s1,2.1,1,3.6V168.9z M291.4,168.7c0-0.9-0.2-1.6-0.5-2s-0.8-0.7-1.4-0.7
		c-0.8,0-1.3,0.3-1.6,0.9v3.9c0.3,0.6,0.9,0.9,1.7,0.9C290.8,171.7,291.4,170.7,291.4,168.7z"/>
	<path class="st2" d="M298.2,173.6h-2.5v-13.5h2.5V173.6z"/>
	<path class="st2" d="M299.9,168.7c0-0.9,0.2-1.8,0.5-2.5s0.9-1.3,1.6-1.7s1.5-0.6,2.4-0.6c1.3,0,2.3,0.4,3.1,1.2s1.3,1.9,1.4,3.2
		l0,0.7c0,1.5-0.4,2.6-1.2,3.5s-1.9,1.3-3.3,1.3s-2.5-0.4-3.3-1.3s-1.2-2.1-1.2-3.6V168.7z M302.4,168.9c0,0.9,0.2,1.6,0.5,2.1
		c0.3,0.5,0.8,0.7,1.5,0.7c0.6,0,1.1-0.2,1.4-0.7c0.3-0.5,0.5-1.2,0.5-2.3c0-0.9-0.2-1.6-0.5-2.1s-0.8-0.7-1.5-0.7
		c-0.6,0-1.1,0.2-1.4,0.7C302.6,167.1,302.4,167.9,302.4,168.9z"/>
</g>
<g class="st1">
	<path class="st2" d="M59.5,220.5c0,1.5-0.3,2.6-1,3.5s-1.6,1.3-2.7,1.3c-1,0-1.7-0.3-2.3-1v4.5h-2.5v-13.2h2.4l0.1,0.9
		c0.6-0.7,1.4-1.1,2.4-1.1c1.2,0,2.1,0.4,2.7,1.3s1,2.1,1,3.6V220.5z M56.9,220.3c0-0.9-0.2-1.6-0.5-2s-0.8-0.7-1.4-0.7
		c-0.8,0-1.3,0.3-1.6,0.9v3.9c0.3,0.6,0.9,0.9,1.7,0.9C56.3,223.3,56.9,222.3,56.9,220.3z"/>
	<path class="st2" d="M66.6,225.2c-0.1-0.2-0.2-0.5-0.3-0.9c-0.6,0.7-1.4,1-2.4,1c-0.9,0-1.7-0.3-2.3-0.8s-0.9-1.2-0.9-2
		c0-1,0.4-1.8,1.1-2.3s1.8-0.8,3.2-0.8h1.2v-0.5c0-0.4-0.1-0.8-0.3-1.1s-0.6-0.4-1.1-0.4c-0.4,0-0.8,0.1-1,0.3s-0.4,0.5-0.4,0.8
		h-2.5c0-0.6,0.2-1.1,0.5-1.5s0.8-0.8,1.4-1.1s1.3-0.4,2.1-0.4c1.2,0,2.1,0.3,2.8,0.9c0.7,0.6,1,1.4,1,2.5v4.1c0,0.9,0.1,1.6,0.4,2
		v0.1H66.6z M64.5,223.4c0.4,0,0.7-0.1,1-0.3c0.3-0.2,0.6-0.4,0.7-0.7v-1.6h-0.9c-1.3,0-1.9,0.4-2,1.3l0,0.1c0,0.3,0.1,0.6,0.3,0.8
		S64.1,223.4,64.5,223.4z"/>
	<path class="st2" d="M73.4,225.2h-2.5v-13.5h2.5V225.2z"/>
	<path class="st2" d="M75.5,213.2c0-0.4,0.1-0.7,0.4-0.9s0.6-0.4,1-0.4c0.4,0,0.8,0.1,1,0.4s0.4,0.6,0.4,0.9c0,0.4-0.1,0.7-0.4,0.9
		s-0.6,0.4-1,0.4s-0.8-0.1-1-0.4S75.5,213.6,75.5,213.2z M78.2,225.2h-2.5v-9.5h2.5V225.2z"/>
</g>
<g class="st1">
	<path class="st2" d="M83.8,222.1l1.8-6.4h2.7l-3.2,9.5h-2.4l-3.2-9.5H82L83.8,222.1z"/>
</g>
<g class="st1">
	<path class="st2" d="M88.8,220.3c0-0.9,0.2-1.8,0.5-2.5s0.9-1.3,1.6-1.7s1.5-0.6,2.4-0.6c1.3,0,2.3,0.4,3.1,1.2s1.3,1.9,1.4,3.2
		l0,0.7c0,1.5-0.4,2.6-1.2,3.5s-1.9,1.3-3.3,1.3s-2.5-0.4-3.3-1.3s-1.2-2.1-1.2-3.6V220.3z M91.4,220.5c0,0.9,0.2,1.6,0.5,2.1
		c0.3,0.5,0.8,0.7,1.5,0.7c0.6,0,1.1-0.2,1.4-0.7c0.3-0.5,0.5-1.2,0.5-2.3c0-0.9-0.2-1.6-0.5-2.1s-0.8-0.7-1.5-0.7
		c-0.6,0-1.1,0.2-1.4,0.7C91.5,218.7,91.4,219.5,91.4,220.5z"/>
</g>
<g class="st1">
	<path class="st2" d="M57.5,317.5l-0.9,0.9v2.9H54v-13.5h2.5v7.5l0.5-0.6l2.4-2.9h3l-3.4,4l3.7,5.5h-2.9L57.5,317.5z"/>
	<path class="st2" d="M67.2,317.7l1.8-5.9h2.7l-3.8,11l-0.2,0.5c-0.6,1.2-1.5,1.9-2.8,1.9c-0.4,0-0.7-0.1-1.1-0.2v-1.9l0.4,0
		c0.5,0,0.8-0.1,1.1-0.2s0.4-0.4,0.6-0.7l0.3-0.8l-3.3-9.5h2.7L67.2,317.7z"/>
	<path class="st2" d="M77.8,318.7c0-0.3-0.2-0.6-0.5-0.7s-0.8-0.3-1.5-0.5c-2.3-0.5-3.4-1.4-3.4-2.9c0-0.8,0.4-1.5,1.1-2.1
		c0.7-0.6,1.6-0.8,2.7-0.8c1.2,0,2.2,0.3,2.9,0.9s1.1,1.3,1.1,2.2h-2.5c0-0.4-0.1-0.7-0.4-0.9c-0.2-0.2-0.6-0.4-1.1-0.4
		c-0.4,0-0.8,0.1-1,0.3s-0.4,0.4-0.4,0.7c0,0.3,0.1,0.5,0.4,0.7c0.3,0.2,0.7,0.3,1.3,0.4s1.2,0.3,1.6,0.4c1.3,0.5,2,1.3,2,2.6
		c0,0.9-0.4,1.6-1.1,2.1c-0.7,0.5-1.7,0.8-2.9,0.8c-0.8,0-1.5-0.1-2.1-0.4c-0.6-0.3-1.1-0.7-1.5-1.2c-0.4-0.5-0.5-1-0.5-1.6h2.4
		c0,0.5,0.2,0.8,0.5,1s0.7,0.4,1.2,0.4c0.5,0,0.9-0.1,1.1-0.3C77.7,319.2,77.8,319,77.8,318.7z"/>
	<path class="st2" d="M84.6,321.3h-2.5v-13.5h2.5V321.3z"/>
	<path class="st2" d="M89.4,321.3h-2.5v-9.5h2.5V321.3z M88.7,308h2.8l-2.4,2.7H87L88.7,308z"/>
	<path class="st2" d="M95.1,317.5l-0.9,0.9v2.9h-2.5v-13.5h2.5v7.5l0.5-0.6l2.4-2.9h3l-3.4,4l3.7,5.5h-2.9L95.1,317.5z"/>
</g>
</svg>
