<svg id="Layer_1" data-name="Layer 1" xmlns="http://www.w3.org/2000/svg" viewBox="0 0 740 346.18"><defs><style>.cls-1,.cls-14,.cls-15,.cls-24,.cls-41,.cls-42,.cls-43{font-size:16px;}.cls-1,.cls-15{font-family:FreightSansProBook-Regular, FreightSans Pro;}.cls-2{letter-spacing:-0.01em;}.cls-17,.cls-3,.cls-38,.cls-4,.cls-5,.cls-6,.cls-7{fill:#2e3d99;}.cls-10,.cls-11,.cls-12,.cls-13,.cls-14,.cls-3,.cls-4,.cls-5,.cls-6,.cls-7,.cls-8,.cls-9{font-family:FreightSansProSemibold-Regular, FreightSans Pro;}.cls-3,.cls-8{letter-spacing:-0.02em;}.cls-4,.cls-9{letter-spacing:-0.03em;}.cls-6{letter-spacing:-0.01em;}.cls-11,.cls-21,.cls-7{letter-spacing:-0.01em;}.cls-10,.cls-11,.cls-12,.cls-13,.cls-14,.cls-15,.cls-16,.cls-34,.cls-8,.cls-9{fill:#ff4d4f;}.cls-12,.cls-27{letter-spacing:-0.01em;}.cls-13{letter-spacing:-0.01em;}.cls-16,.cls-17{opacity:0.8;}.cls-18{fill:#f2f2f2;}.cls-19,.cls-31,.cls-33{font-size:20px;}.cls-19,.cls-22,.cls-24,.cls-31,.cls-33,.cls-34,.cls-38,.cls-41,.cls-42,.cls-43{font-family:FreightSansProMedium-Regular, FreightSans Pro;}.cls-20{letter-spacing:-0.03em;}.cls-22{font-size:18px;}.cls-22,.cls-31,.cls-33,.cls-42{fill:#fff;}.cls-23{letter-spacing:0em;}.cls-24{fill:#666;}.cls-25{letter-spacing:-0.01em;}.cls-26{letter-spacing:0em;}.cls-28{fill:none;stroke:#b3b3b3;stroke-miterlimit:10;}.cls-29{fill:#b3b3b3;}.cls-30{letter-spacing:-0.03em;}.cls-31{letter-spacing:-0.01em;}.cls-32{letter-spacing:0em;}.cls-34,.cls-38{font-size:14px;}.cls-35{letter-spacing:-0.03em;}.cls-36{letter-spacing:-0.01em;}.cls-37{letter-spacing:0em;}.cls-39{letter-spacing:-0.02em;}.cls-40{letter-spacing:-0.02em;}.cls-41,.cls-43{fill:gray;}.cls-42{opacity:0.6;}.cls-43{letter-spacing:0em;}</style></defs><text class="cls-1" transform="translate(501.19 275.55)">Při p<tspan class="cls-2" x="29.23" y="0">r</tspan><tspan x="34.77" y="0">odu</tspan><tspan class="cls-2" x="59.55" y="0">k</tspan><tspan x="66.33" y="0">cí </tspan><tspan class="cls-3" x="80.54" y="0">1</tspan><tspan class="cls-4" x="86.06" y="0">,</tspan><tspan class="cls-5" x="89.65" y="0">0 </tspan><tspan class="cls-6" x="102.5" y="0">k</tspan><tspan class="cls-5" x="110.24" y="0">g </tspan><tspan class="cls-7" x="121.92" y="0">c</tspan><tspan class="cls-5" x="129.36" y="0">ementu </tspan><tspan x="0" y="19.2">vzniká </tspan><tspan class="cls-8" x="42.1" y="19.2">1</tspan><tspan class="cls-9" x="47.62" y="19.2">,</tspan><tspan class="cls-10" x="51.2" y="19.2">0</tspan><tspan class="cls-11" x="60.4" y="19.2">-</tspan><tspan class="cls-8" x="65.78" y="19.2">1</tspan><tspan class="cls-10" x="71.29" y="19.2">,2 </tspan><tspan class="cls-12" x="86.58" y="19.2">k</tspan><tspan class="cls-10" x="94.32" y="19.2">g emisí </tspan><tspan class="cls-13" x="145.44" y="19.2">C</tspan><tspan class="cls-10" x="154.93" y="19.2">O</tspan></text><text class="cls-14" transform="translate(667.73 298.08) scale(0.58)">2</text><text class="cls-15" transform="translate(672.19 294.75)">.</text><rect class="cls-16" x="497.78" y="130.43" width="75" height="50" rx="4"/><rect class="cls-17" x="497.78" y="40.45" width="150" height="50" rx="4"/><circle class="cls-18" cx="384.76" cy="65.45" r="45.45"/><text class="cls-19" transform="translate(189 72.32)"><tspan class="cls-20">V</tspan><tspan x="10.56" y="0">ÁPEN</tspan><tspan class="cls-21" x="56.6" y="0">E</tspan><tspan x="66.96" y="0">C</tspan></text><text class="cls-22" transform="translate(505.02 62.63)">základní sl<tspan class="cls-23" x="74.01" y="0">o</tspan><tspan x="83.43" y="0">žka</tspan><tspan x="0" y="18">cEMENTU</tspan></text><text class="cls-24" transform="translate(354.1 63.29)">chemická<tspan class="cls-25"><tspan x="9.22" y="17">r</tspan><tspan class="cls-26" x="15.16" y="17">ea</tspan><tspan class="cls-27" x="30.06" y="17">k</tspan><tspan class="cls-21" x="37.19" y="17">c</tspan><tspan class="cls-26" x="44.41" y="17">e</tspan></tspan></text><circle class="cls-18" cx="222.64" cy="268.78" r="45.45"/><text class="cls-24" transform="translate(192.57 272.82)">spal<tspan class="cls-21" x="25.63" y="0">o</tspan><tspan class="cls-26" x="34" y="0">vání</tspan></text><text class="cls-19" transform="translate(277.84 172.93)">TEP<tspan class="cls-20" x="32.4" y="0">L</tspan><tspan x="41.58" y="0">O</tspan></text><line class="cls-28" x1="275.18" y1="65.45" x2="322.65" y2="65.45"/><polygon class="cls-29" points="321.19 70.43 329.82 65.45 321.19 60.46 321.19 70.43"/><line class="cls-28" x1="439.69" y1="65.45" x2="487.16" y2="65.45"/><polygon class="cls-29" points="485.7 70.43 494.33 65.45 485.7 60.46 485.7 70.43"/><text class="cls-19" transform="translate(68.67 325.88)">KYSLÍK</text><text class="cls-19" transform="translate(53.76 227.54)"><tspan class="cls-30">P</tspan><tspan x="10.14" y="0">ALI</tspan><tspan class="cls-21" x="36.44" y="0">V</tspan><tspan x="47.6" y="0">O</tspan></text><text class="cls-31" transform="translate(507.35 161.53)">C<tspan class="cls-32" x="11.82" y="0">O</tspan></text><text class="cls-33" transform="translate(533.57 166.19) scale(0.58)">2</text><text class="cls-34" transform="translate(518.89 124.34)"><tspan class="cls-35">0</tspan><tspan class="cls-36" x="7.73" y="0">,</tspan><tspan x="10.67" y="0">5 </tspan><tspan class="cls-36" x="19.87" y="0">k</tspan><tspan class="cls-37" x="26.11" y="0">g</tspan></text><rect class="cls-16" x="343.22" y="246.82" width="75" height="50" rx="4"/><text class="cls-31" transform="translate(352.79 277.93)">C<tspan class="cls-32" x="11.82" y="0">O</tspan></text><text class="cls-33" transform="translate(379.01 282.59) scale(0.58)">2</text><text class="cls-34" transform="translate(364.33 240.74)"><tspan class="cls-35">0</tspan><tspan class="cls-36" x="7.73" y="0">,</tspan><tspan x="10.67" y="0">5 </tspan><tspan class="cls-36" x="19.87" y="0">k</tspan><tspan class="cls-37" x="26.11" y="0">g</tspan></text><text class="cls-38" transform="translate(557.06 33.29)"><tspan class="cls-39">1</tspan><tspan class="cls-40" x="4.52" y="0">,</tspan><tspan class="cls-37" x="7.25" y="0">0 </tspan><tspan class="cls-27" x="18.52" y="0">k</tspan><tspan x="24.77" y="0">g</tspan></text><line class="cls-28" x1="275.18" y1="268.78" x2="322.65" y2="268.78"/><polygon class="cls-29" points="321.19 273.76 329.82 268.78 321.19 263.79 321.19 273.76"/><path class="cls-28" d="M296.38,145.22c-2.63-23.35,6.05-41.6,27.17-54.54"/><polygon class="cls-29" points="324.8 95.8 329.82 87.19 319.85 87.14 324.8 95.8"/><path class="cls-28" d="M440.88,82.45c23.47,1,40.2,12.32,49.76,35.16"/><polygon class="cls-29" points="485.39 118.07 493.14 124.34 494.7 114.49 485.39 118.07"/><path class="cls-28" d="M267,234.94c17.82-10.48,28.9-25.07,30.77-44.82"/><polygon class="cls-29" points="302.62 191.81 298.05 182.95 292.66 191.34 302.62 191.81"/><path class="cls-28" d="M112.63,300.06c9.39-18.44,25.83-18,46-18.45"/><polygon class="cls-29" points="157.3 286.61 165.8 281.38 157.03 276.64 157.3 286.61"/><path class="cls-28" d="M112.63,231.77c9.39,18.44,25.84,21,46,22.07"/><polygon class="cls-29" points="156.93 258.74 165.8 254.18 157.42 248.78 156.93 258.74"/><text class="cls-41" transform="translate(189.22 46.81)">Ca<tspan class="cls-27" x="16.83" y="0">C</tspan><tspan x="26.29" y="0">O</tspan></text><text class="cls-41" transform="translate(227.03 50.14) scale(0.58)">3</text><text class="cls-42" transform="translate(611.83 80.63)">CaO</text><text class="cls-41" transform="translate(69.67 301.58)">O</text><text class="cls-43" transform="translate(81.19 304.9) scale(0.58)">2</text><text/></svg>