<?xml version="1.0" encoding="UTF-8"?>
<svg id="Layer_1" data-name="Layer 1" xmlns="http://www.w3.org/2000/svg" width="740" height="346.18" viewBox="0 0 740 346.18">
  <rect y="1.91" width="740" height="346.18" fill="#fff"/>
  <text transform="translate(467.47 304)" font-size="18"><tspan x="0" y="0" fill="#1a1a1a" font-family="Roboto-Regular, Roboto">Při p</tspan><tspan x="36.37" y="0" fill="#1a1a1a" font-family="Roboto-Regular, Roboto" letter-spacing="0em">r</tspan><tspan x="42.28" y="0" fill="#1a1a1a" font-family="Roboto-Regular, Roboto">odu</tspan><tspan x="72.62" y="0" fill="#1a1a1a" font-family="Roboto-Regular, Roboto" letter-spacing="0em">k</tspan><tspan x="81.57" y="0" fill="#1a1a1a" font-family="Roboto-Regular, Roboto">cí</tspan><tspan x="95.44" y="0" font-family="Roboto-Regular, Roboto"> </tspan><tspan x="99.9" y="0" fill="#2e3d99" font-family="Roboto-Bold, Roboto" font-weight="700">1,0 </tspan><tspan x="129.43" y="0" fill="#2e3d99" font-family="Roboto-Bold, Roboto" font-weight="700" letter-spacing="0em">k</tspan><tspan x="138.87" y="0" fill="#2e3d99" font-family="Roboto-Bold, Roboto" font-weight="700">g cementu</tspan><tspan x="224.29" y="0" fill="#2e3d99" font-family="Roboto-Regular, Roboto"> </tspan><tspan x="0" y="21.6" fill="#1a1a1a" font-family="Roboto-Regular, Roboto">vzniká </tspan><tspan x="55.31" y="21.6" fill="#ff4d4f" font-family="Roboto-Bold, Roboto" font-weight="700">0,6 </tspan><tspan x="84.84" y="21.6" fill="#ff4d4f" font-family="Roboto-Bold, Roboto" font-weight="700" letter-spacing="0em">k</tspan><tspan x="94.28" y="21.6" fill="#ff4d4f" font-family="Roboto-Bold, Roboto" font-weight="700">g emisí CO</tspan></text>
  <text transform="translate(649.46 329.59) scale(.58)" fill="#ff4d4f" font-family="Roboto-Bold, Roboto" font-size="18" font-weight="700"><tspan x="0" y="0">2</tspan></text>
  <text transform="translate(655.48 325.59)" fill="#ff4d4f" font-family="Roboto-Regular, Roboto" font-size="18"><tspan x="0" y="0">.</tspan></text>
  <rect x="518.1" y="130.66" width="71.74" height="50" fill="#ff4d4f" opacity=".8"/>
  <rect x="466.86" y="180.66" width="51.25" height="50" fill="#ff4d4f" opacity=".8"/>
  <rect x="466.8" y="40.45" width="204.98" height="50" fill="#2e3d99" opacity=".9"/>
  <circle cx="343.37" cy="65.45" r="45.45" fill="#f2f2f2"/>
  <g>
    <path d="m476.8,61.31h5.56v1.33h-7.55v-1.2l5.25-6.97h-5.17v-1.34h7.21v1.15l-5.3,7.03Z" fill="#fff"/>
    <path d="m490.06,62.63c-.09-.19-.17-.52-.23-1-.76.79-1.66,1.18-2.71,1.18-.94,0-1.71-.26-2.31-.79s-.9-1.2-.9-2.02c0-.99.38-1.76,1.13-2.31s1.81-.82,3.18-.82h1.58v-.75c0-.57-.17-1.02-.51-1.36s-.84-.5-1.5-.5c-.58,0-1.07.15-1.46.44s-.59.65-.59,1.06h-1.63c0-.47.17-.93.51-1.38s.79-.79,1.37-1.05,1.21-.39,1.9-.39c1.1,0,1.95.27,2.58.82s.94,1.3.97,2.26v4.38c0,.87.11,1.57.33,2.08v.14h-1.71Zm-2.7-1.24c.51,0,.99-.13,1.45-.4s.79-.61.99-1.03v-1.95h-1.27c-1.99,0-2.99.58-2.99,1.75,0,.51.17.91.51,1.2s.78.43,1.31.43Zm1.5-12.26h1.97l-2.36,2.58h-1.31s1.7-2.58,1.7-2.58Z" fill="#fff"/>
    <path d="m496.64,58.23l-1.02,1.06v3.34h-1.63v-13.5h1.63v8.17l.87-1.05,2.96-3.13h1.98l-3.7,3.97,4.13,5.54h-1.91l-3.31-4.4Z" fill="#fff"/>
    <path d="m504.87,62.63h-1.63v-13.5h1.63v13.5Z" fill="#fff"/>
    <path d="m513.34,62.63c-.09-.19-.17-.52-.23-1-.76.79-1.66,1.18-2.71,1.18-.94,0-1.71-.26-2.31-.79s-.9-1.2-.9-2.02c0-.99.38-1.76,1.13-2.31s1.81-.82,3.18-.82h1.58v-.75c0-.57-.17-1.02-.51-1.36s-.84-.5-1.5-.5c-.58,0-1.07.15-1.46.44s-.59.65-.59,1.06h-1.63c0-.47.17-.93.51-1.38s.79-.79,1.37-1.05,1.21-.39,1.9-.39c1.1,0,1.95.27,2.58.82s.94,1.3.97,2.26v4.38c0,.87.11,1.57.33,2.08v.14h-1.71Zm-2.7-1.24c.51,0,.99-.13,1.45-.4s.79-.61.99-1.03v-1.95h-1.27c-1.99,0-2.99.58-2.99,1.75,0,.51.17.91.51,1.2s.78.43,1.31.43Z" fill="#fff"/>
    <path d="m516.87,57.8c0-1.46.35-2.63,1.04-3.52.69-.89,1.6-1.33,2.72-1.33s2,.38,2.65,1.14v-4.96h1.63v13.5h-1.49l-.08-1.02c-.65.8-1.56,1.2-2.72,1.2s-2-.45-2.69-1.35-1.04-2.08-1.04-3.53v-.12Zm1.63.18c0,1.08.22,1.92.67,2.53s1.06.91,1.85.91c1.03,0,1.78-.46,2.26-1.39v-4.37c-.49-.9-1.23-1.34-2.24-1.34-.8,0-1.42.31-1.86.92s-.67,1.53-.67,2.73Z" fill="#fff"/>
    <path d="m528.95,53.13l.05,1.2c.73-.91,1.68-1.37,2.85-1.37,2.01,0,3.02,1.13,3.04,3.4v6.28h-1.63v-6.29c0-.69-.16-1.19-.47-1.52s-.79-.49-1.44-.49c-.53,0-.99.14-1.39.42s-.71.65-.93,1.11v6.78h-1.63v-9.51h1.54Z" fill="#fff"/>
    <path d="m539.13,49.14h1.97l-2.36,2.58h-1.31s1.7-2.58,1.7-2.58Zm-.02,13.49h-1.63v-9.51h1.63v9.51Z" fill="#fff"/>
    <path d="m551.79,60.11c0-.44-.17-.78-.5-1.02-.33-.24-.91-.45-1.73-.63s-1.48-.39-1.96-.63-.84-.54-1.07-.88-.35-.74-.35-1.21c0-.78.33-1.44.99-1.98s1.5-.81,2.53-.81c1.08,0,1.95.28,2.62.83s1.01,1.27,1.01,2.14h-1.63c0-.45-.19-.83-.57-1.15s-.85-.48-1.43-.48-1.05.13-1.39.39-.5.59-.5,1.01c0,.39.16.69.47.89s.87.39,1.68.57,1.47.4,1.97.65.88.56,1.12.91c.24.36.36.79.36,1.3,0,.85-.34,1.53-1.02,2.04-.68.51-1.56.77-2.65.77-.76,0-1.44-.13-2.02-.4s-1.04-.65-1.38-1.13c-.33-.48-.5-1.01-.5-1.57h1.63c.03.54.25.98.66,1.3.41.32.94.48,1.61.48.62,0,1.11-.12,1.48-.37.37-.25.56-.58.56-1Z" fill="#fff"/>
    <path d="m557.3,62.63h-1.63v-13.5h1.63v13.5Z" fill="#fff"/>
    <path d="m559.47,57.79c0-.93.18-1.77.55-2.51s.88-1.32,1.53-1.72,1.4-.61,2.24-.61c1.29,0,2.34.45,3.14,1.34.8.9,1.2,2.09,1.2,3.58v.11c0,.93-.18,1.76-.53,2.49-.36.74-.86,1.31-1.52,1.72-.66.41-1.42.62-2.27.62-1.29,0-2.33-.45-3.13-1.34s-1.2-2.08-1.2-3.56v-.11Zm1.63.19c0,1.05.25,1.9.73,2.54s1.14.96,1.96.96,1.48-.32,1.97-.97c.49-.65.73-1.55.73-2.72,0-1.04-.25-1.89-.74-2.54-.49-.65-1.15-.97-1.97-.97s-1.45.32-1.94.96-.74,1.55-.74,2.74Z" fill="#fff"/>
    <path d="m571.55,61.31h5.56v1.33h-7.55v-1.2l5.25-6.97h-5.17v-1.34h7.21v1.15l-5.3,7.03Zm1.75-10.68l1.32-1.49h1.41v.09l-2.23,2.41h-.99l-2.21-2.41v-.09h1.38l1.33,1.49Z" fill="#fff"/>
    <path d="m581.6,58.23l-1.02,1.06v3.34h-1.63v-13.5h1.63v8.17l.87-1.05,2.96-3.13h1.98l-3.7,3.97,4.13,5.54h-1.91l-3.31-4.4Z" fill="#fff"/>
    <path d="m593.94,62.63c-.09-.19-.17-.52-.23-1-.76.79-1.66,1.18-2.71,1.18-.94,0-1.71-.26-2.31-.79-.6-.53-.9-1.2-.9-2.02,0-.99.38-1.76,1.13-2.31.75-.55,1.81-.82,3.18-.82h1.58v-.75c0-.57-.17-1.02-.51-1.36s-.84-.5-1.5-.5c-.58,0-1.07.15-1.46.44s-.59.65-.59,1.06h-1.63c0-.47.17-.93.5-1.38s.79-.79,1.37-1.05,1.21-.39,1.9-.39c1.1,0,1.95.27,2.58.82s.94,1.3.97,2.26v4.38c0,.87.11,1.57.33,2.08v.14h-1.71Zm-2.7-1.24c.51,0,.99-.13,1.45-.4s.79-.61.99-1.03v-1.95h-1.27c-1.99,0-2.99.58-2.99,1.75,0,.51.17.91.51,1.2s.78.43,1.31.43Z" fill="#fff"/>
    <path d="m478.97,78.76c.47,0,.85-.13,1.14-.39s.45-.6.46-1.03h2.38c0,.64-.18,1.23-.53,1.77-.35.54-.82.95-1.42,1.25-.6.29-1.26.44-1.99.44-1.36,0-2.43-.43-3.22-1.3-.79-.86-1.18-2.06-1.18-3.58v-.17c0-1.46.39-2.63,1.17-3.51s1.85-1.31,3.21-1.31c1.19,0,2.14.34,2.86,1.02.72.68,1.08,1.58,1.09,2.7h-2.38c-.01-.5-.16-.9-.46-1.21s-.68-.46-1.16-.46c-.59,0-1.04.22-1.34.65-.3.43-.45,1.13-.45,2.1v.26c0,.98.15,1.68.45,2.11s.75.64,1.36.64Z" fill="#fff"/>
    <path d="m488.78,80.81c-1.39,0-2.53-.43-3.41-1.28s-1.31-2-1.31-3.42v-.25c0-.96.18-1.81.55-2.56s.89-1.33,1.57-1.74,1.45-.61,2.32-.61c1.3,0,2.33.41,3.07,1.23s1.12,1.98,1.12,3.49v1.04h-6.06c.08.62.33,1.12.74,1.49s.94.56,1.57.56c.98,0,1.74-.35,2.29-1.06l1.25,1.4c-.38.54-.9.96-1.55,1.26-.65.3-1.37.45-2.16.45Zm-.29-7.81c-.5,0-.91.17-1.23.51-.31.34-.51.83-.6,1.47h3.53v-.2c-.01-.57-.16-1-.46-1.31-.29-.31-.71-.46-1.25-.46Z" fill="#fff"/>
    <path d="m496.51,71.13l.08,1.06c.67-.83,1.58-1.24,2.73-1.24,1.22,0,2.07.48,2.52,1.45.67-.97,1.62-1.45,2.86-1.45,1.03,0,1.8.3,2.3.9.5.6.76,1.5.76,2.71v6.07h-2.55v-6.06c0-.54-.11-.93-.32-1.18s-.58-.37-1.12-.37c-.76,0-1.29.36-1.58,1.09v6.53s-2.53,0-2.53,0v-6.06c0-.55-.11-.95-.33-1.2s-.59-.37-1.11-.37c-.72,0-1.24.3-1.56.9v6.72h-2.54v-9.51h2.38Z" fill="#fff"/>
    <path d="m514.09,80.81c-1.39,0-2.53-.43-3.41-1.28s-1.31-2-1.31-3.42v-.25c0-.96.18-1.81.55-2.56s.89-1.33,1.57-1.74,1.45-.61,2.32-.61c1.3,0,2.33.41,3.07,1.23s1.12,1.98,1.12,3.49v1.04h-6.06c.08.62.33,1.12.74,1.49s.94.56,1.57.56c.98,0,1.74-.35,2.29-1.06l1.25,1.4c-.38.54-.9.96-1.55,1.26-.65.3-1.37.45-2.16.45Zm-.29-7.81c-.5,0-.91.17-1.23.51-.31.34-.51.83-.6,1.47h3.53v-.2c-.01-.57-.16-1-.46-1.31-.29-.31-.71-.46-1.25-.46Z" fill="#fff"/>
    <path d="m521.78,71.13l.08,1.1c.68-.85,1.59-1.27,2.73-1.27,1.01,0,1.76.3,2.25.89s.74,1.48.76,2.65v6.14h-2.54v-6.08c0-.54-.12-.93-.35-1.17-.23-.24-.62-.36-1.17-.36-.71,0-1.25.3-1.61.91v6.71h-2.54v-9.51h2.39Z" fill="#fff"/>
    <path d="m532.57,68.79v2.34h1.63v1.86h-1.63v4.75c0,.35.07.6.2.76s.39.23.77.23c.28,0,.53-.02.75-.06v1.92c-.5.15-1.01.23-1.54.23-1.78,0-2.69-.9-2.72-2.7v-5.12h-1.39v-1.86h1.39v-2.34h2.54Z" fill="#fff"/>
    <path d="m541.3,79.67c-.63.76-1.49,1.14-2.6,1.14-1.02,0-1.8-.29-2.33-.88s-.81-1.44-.82-2.58v-6.23h2.54v6.15c0,.99.45,1.49,1.35,1.49s1.45-.3,1.78-.9v-6.74h2.55v9.51h-2.39l-.07-.97Z" fill="#fff"/>
  </g>
  <text transform="translate(308.99 63.29)" fill="#666" font-family="Roboto-Regular, Roboto" font-size="16"><tspan x="0" y="0">chemická</tspan><tspan x="10.75" y="17" letter-spacing="0em">r</tspan><tspan x="16.02" y="17">ea</tspan><tspan x="33.2" y="17" letter-spacing="0em">k</tspan><tspan x="41.15" y="17">ce</tspan></text>
  <circle cx="215.69" cy="268.78" r="45.45" fill="#f2f2f2"/>
  <text transform="translate(181.72 272.82)" fill="#666" font-family="Roboto-Regular, Roboto" font-size="16"><tspan x="0" y="0">spal</tspan><tspan x="29.81" y="0" letter-spacing="0em">ov</tspan><tspan x="46.45" y="0">ání</tspan></text>
  <g>
    <line x1="233.79" y1="65.45" x2="281.26" y2="65.45" fill="none" stroke="#b3b3b3" stroke-miterlimit="10"/>
    <polygon points="279.8 70.43 288.43 65.45 279.8 60.46 279.8 70.43" fill="#b3b3b3"/>
  </g>
  <g>
    <line x1="398.3" y1="65.45" x2="445.77" y2="65.45" fill="none" stroke="#b3b3b3" stroke-miterlimit="10"/>
    <polygon points="444.31 70.43 452.94 65.45 444.31 60.46 444.31 70.43" fill="#b3b3b3"/>
  </g>
  <g>
    <text transform="translate(523.58 169.69)" fill="#fff" font-family="Roboto-Bold, Roboto" font-size="18" font-weight="700"><tspan x="0" y="0">CO</tspan></text>
    <text transform="translate(547.78 173.69) scale(.58)" fill="#fff" font-family="Roboto-Bold, Roboto" font-size="18" font-weight="700"><tspan x="0" y="0">2</tspan></text>
  </g>
  <text transform="translate(524.33 197.62)" fill="#ff4d4f" font-family="Roboto-Regular, Roboto" font-size="14" opacity=".8"><tspan x="0" y="0">0,35 </tspan><tspan x="29.8" y="0" letter-spacing="0em">k</tspan><tspan x="36.76" y="0">g</tspan></text>
  <text transform="translate(465.96 107.94)" fill="#2e3d99" font-family="Roboto-Regular, Roboto" font-size="14"><tspan x="0" y="0">1,0 </tspan><tspan x="21.94" y="0" letter-spacing="0em">k</tspan><tspan x="28.9" y="0">g</tspan></text>
  <g>
    <text transform="translate(474.15 222.08)" fill="#fff" font-family="Roboto-Bold, Roboto" font-size="18" font-weight="700"><tspan x="0" y="0">CO</tspan></text>
    <text transform="translate(498.35 226.07) scale(.58)" fill="#fff" font-family="Roboto-Bold, Roboto" font-size="18" font-weight="700"><tspan x="0" y="0">2</tspan></text>
  </g>
  <text transform="translate(466.86 249.02)" fill="#ff4d4f" font-family="Roboto-Regular, Roboto" font-size="14" opacity=".8"><tspan x="0" y="0">0,25 </tspan><tspan x="29.8" y="0" letter-spacing="0em">k</tspan><tspan x="36.76" y="0">g</tspan></text>
  <g>
    <path d="m277.39,268.85c22.2,0,66.26,2.34,83.72-26.47,16.24-26.8,41.37-37.05,85.57-36.83" fill="none" stroke="#b3b3b3" stroke-miterlimit="10" stroke-width=".89"/>
    <polygon points="445.32 210 453.05 205.66 445.43 201.14 445.32 210" fill="#b3b3b3"/>
  </g>
  <g>
    <path d="m283.59,151.77c-7.44-18.1-6.1-33.54,7.19-48.54" fill="none" stroke="#b3b3b3" stroke-miterlimit="10"/>
    <polygon points="293.41 107.79 295.81 98.11 286.23 100.87 293.41 107.79" fill="#b3b3b3"/>
  </g>
  <g>
    <path d="m399.49,82.45c33.64-1.03,34.46,14.99,45.84,40.26,14.24,31.61,24.4,31.24,51.46,30.99" fill="none" stroke="#b3b3b3" stroke-miterlimit="10"/>
    <polygon points="495.37 158.7 503.98 153.66 495.31 148.73 495.37 158.7" fill="#b3b3b3"/>
  </g>
  <g>
    <path d="m256.67,234.94c16.74-9.84,27.18-23.52,29.06-42" fill="none" stroke="#b3b3b3" stroke-miterlimit="10"/>
    <polygon points="290.56 194.65 286.02 185.77 280.6 194.14 290.56 194.65" fill="#b3b3b3"/>
  </g>
  <g>
    <path d="m98.43,300.06c9.39-18.44,25.83-17.99,45.99-18.45" fill="none" stroke="#b3b3b3" stroke-miterlimit="10"/>
    <polygon points="143.1 286.61 151.59 281.38 142.82 276.64 143.1 286.61" fill="#b3b3b3"/>
  </g>
  <g>
    <path d="m98.43,231.77c9.39,18.44,25.84,20.99,46,22.07" fill="none" stroke="#b3b3b3" stroke-miterlimit="10"/>
    <polygon points="142.72 258.74 151.59 254.18 143.21 248.78 142.72 258.74" fill="#b3b3b3"/>
  </g>
  <text transform="translate(146.35 49.51)" fill="gray" font-family="Roboto-Regular, Roboto" font-size="16"><tspan x="0" y="0">CaCO</tspan></text>
  <text transform="translate(186.88 52.83) scale(.58)" fill="gray" font-family="Roboto-Regular, Roboto" font-size="16"><tspan x="0" y="0">3</tspan></text>
  <text transform="translate(628.21 82.48)" fill="#fff" font-family="Roboto-Regular, Roboto" font-size="16" opacity=".6"><tspan x="0" y="0">CaO</tspan></text>
  <text transform="translate(52.23 297.51)" fill="gray" font-family="Roboto-Regular, Roboto" font-size="16"><tspan x="0" y="0">O</tspan></text>
  <text transform="translate(63.23 300.84) scale(.58)" fill="gray" font-family="Roboto-Regular, Roboto" font-size="16"><tspan x="0" y="0">2</tspan></text>
  <text transform="translate(146.62 68.91)" fill="#1a1a1a" font-family="Roboto-Bold, Roboto" font-size="18" font-weight="700"><tspan x="0" y="0" letter-spacing="0em">v</tspan><tspan x="8.96" y="0">ápenec</tspan></text>
  <text transform="translate(268.58 173.57)" fill="#1a1a1a" font-family="Roboto-Bold, Roboto" font-size="18" font-weight="700"><tspan x="0" y="0">teplo</tspan></text>
  <text transform="translate(49.94 225.17)" fill="#1a1a1a" font-family="Roboto-Bold, Roboto" font-size="18" font-weight="700"><tspan x="0" y="0">pali</tspan><tspan x="29.33" y="0" letter-spacing="0em">v</tspan><tspan x="38.29" y="0">o</tspan></text>
  <text transform="translate(53.05 321.33)" fill="#1a1a1a" font-family="Roboto-Bold, Roboto" font-size="18" font-weight="700"><tspan x="0" y="0">kyslík</tspan></text>
</svg>