<svg id="Layer_1" data-name="Layer 1" xmlns="http://www.w3.org/2000/svg" viewBox="0 0 740 346.18"><defs><style>.cls-1,.cls-13{fill:#7365be;}.cls-1,.cls-10,.cls-11,.cls-2,.cls-5,.cls-6,.cls-7,.cls-8{stroke:#fff;stroke-miterlimit:10;}.cls-1,.cls-10,.cls-11,.cls-5,.cls-6,.cls-7,.cls-8{stroke-width:1.55px;}.cls-1,.cls-2{opacity:0.5;}.cls-14,.cls-2{fill:#3993dd;}.cls-2{stroke-width:1.63px;}.cls-3{fill:none;stroke:gray;stroke-linecap:round;stroke-linejoin:round;stroke-width:0.75px;}.cls-4{fill:gray;}.cls-5{fill:#f8c753;}.cls-5,.cls-6,.cls-7,.cls-8,.cls-9{opacity:0.16;}.cls-6{fill:#049587;}.cls-7{fill:#1fd0bf;}.cls-8{fill:navy;}.cls-10{fill:#ff4446;}.cls-11{fill:#a10015;}.cls-12{fill:#b3b3b3;}.cls-15{fill:#fff;}.cls-16{fill:#4d4d4d;}</style></defs><path class="cls-1" d="M335.29,210.92l-56.67,27.84a126.23,126.23,0,0,0,61.68,59.55L366,240.65A63.05,63.05,0,0,1,335.29,210.92Z"/><path class="cls-2" d="M292.62,105.13a126.27,126.27,0,0,0-22.38,44.33L331,166.59a63,63,0,0,1,11.25-22.48Z"/><path class="cls-3" d="M340,302.71c-3.51,4-9.17,6.16-17.19,5.06"/><polygon class="cls-4" points="325.67 304.97 326.11 305.58 323.13 307.77 325.54 310.58 324.97 311.07 322.04 307.65 325.67 304.97"/><path class="cls-3" d="M265.68,153.74a48.47,48.47,0,0,0-17.45-3.84"/><polygon class="cls-4" points="250.83 146.94 251.32 147.51 248.52 149.93 251.13 152.54 250.6 153.07 247.42 149.88 250.83 146.94"/><path class="cls-5" d="M365.57,59.6A126.57,126.57,0,0,1,392,56.81V120a63.46,63.46,0,0,0-13.19,1.39Z"/><path class="cls-6" d="M332.81,71.52A126.28,126.28,0,0,1,365.57,59.6l13.2,61.74a63.26,63.26,0,0,0-16.39,6Z"/><path class="cls-7" d="M292.62,105.13a126.26,126.26,0,0,1,40.19-33.61l29.57,55.78a63.13,63.13,0,0,0-20.09,16.81Z"/><path class="cls-8" d="M278.62,238.76a126.25,126.25,0,0,1-10.86-78.5l62.1,11.41a63.09,63.09,0,0,0,5.43,39.25Z"/><g class="cls-9"><path class="cls-10" d="M392,56.81a126.28,126.28,0,0,1,77.57,225.92l-38.79-49.82A63.14,63.14,0,0,0,392,120Z"/><path class="cls-11" d="M469.53,282.73a126.28,126.28,0,0,1-117.83,20l20.13-59.84a63.14,63.14,0,0,0,58.91-10Z"/></g><path class="cls-12" d="M463.74,319.05h-.59v-6.41l-1.93.72v-.55l2.42-.9h.1Z"/><path class="cls-12" d="M467,315.4l.35-3.46h3.55v.54H467.8l-.25,2.4a2.32,2.32,0,0,1,1.34-.39,2,2,0,0,1,1.54.63,2.36,2.36,0,0,1,.57,1.66,2.51,2.51,0,0,1-.56,1.74,2,2,0,0,1-1.57.62,2.16,2.16,0,0,1-1.5-.51,2.08,2.08,0,0,1-.66-1.45h.56a1.74,1.74,0,0,0,.49,1.1,1.6,1.6,0,0,0,1.11.37,1.39,1.39,0,0,0,1.15-.48,2.14,2.14,0,0,0,.39-1.38,1.84,1.84,0,0,0-.43-1.27,1.51,1.51,0,0,0-1.19-.5,2.18,2.18,0,0,0-.72.11,1.75,1.75,0,0,0-.65.41Z"/><path class="cls-12" d="M472.07,320.37l-.35-.25a2.11,2.11,0,0,0,.46-1.23v-.76h.57v.61A2.06,2.06,0,0,1,472.07,320.37Z"/><path class="cls-12" d="M478.39,312.27l-3,6.78h-.61l3-6.62h-4v-.49h4.67Z"/><path class="cls-12" d="M481.85,313.3a1.48,1.48,0,0,1,.39-1.05,1.33,1.33,0,0,1,1-.42,1.3,1.3,0,0,1,1,.42,1.52,1.52,0,0,1,.39,1.08v.35a1.5,1.5,0,0,1-.38,1,1.3,1.3,0,0,1-1,.42,1.36,1.36,0,0,1-1-.41,1.46,1.46,0,0,1-.4-1.08Zm.47.38a1.12,1.12,0,0,0,.26.75.84.84,0,0,0,.67.29.8.8,0,0,0,.66-.3,1.11,1.11,0,0,0,.25-.76v-.36a1.11,1.11,0,0,0-.25-.75.89.89,0,0,0-1.33,0,1.13,1.13,0,0,0-.26.78Zm1.12,4.78-.37-.24,3.47-5.56.37.24Zm2-1.16a1.48,1.48,0,0,1,.39-1.05,1.36,1.36,0,0,1,1-.41,1.32,1.32,0,0,1,1,.41,1.5,1.5,0,0,1,.4,1.09v.34a1.45,1.45,0,0,1-.39,1.05,1.29,1.29,0,0,1-1,.42,1.34,1.34,0,0,1-1-.41,1.49,1.49,0,0,1-.4-1.08Zm.47.38a1.08,1.08,0,0,0,.25.75.84.84,0,0,0,.68.3.8.8,0,0,0,.66-.3,1.12,1.12,0,0,0,.25-.77v-.36a1.12,1.12,0,0,0-.25-.76.85.85,0,0,0-.67-.28.82.82,0,0,0-.67.29,1.12,1.12,0,0,0-.25.77Z"/><path class="cls-13" d="M243.92,276.37h-1.69v-6.53l-2,.63v-1.38l3.53-1.27h.18Z"/><path class="cls-13" d="M252.54,276.37h-5.85v-1.16l2.76-2.95a6.41,6.41,0,0,0,.84-1.08,1.77,1.77,0,0,0,.28-.88,1.29,1.29,0,0,0-.29-.89,1,1,0,0,0-.82-.33,1.11,1.11,0,0,0-.91.4,1.56,1.56,0,0,0-.33,1h-1.7a2.9,2.9,0,0,1,.37-1.43,2.65,2.65,0,0,1,1.06-1,3.21,3.21,0,0,1,1.54-.36,3,3,0,0,1,2,.63,2.26,2.26,0,0,1,.72,1.79,2.86,2.86,0,0,1-.32,1.29,7.73,7.73,0,0,1-1.13,1.53l-1.94,2h3.67Z"/><path class="cls-13" d="M254.09,278.5l-.89-.46.21-.38a3,3,0,0,0,.41-1.42v-1.32h1.43v1.18a2.92,2.92,0,0,1-.33,1.31A3.26,3.26,0,0,1,254.09,278.5Z"/><path class="cls-13" d="M261.1,267.75v1.39h-.16a2.83,2.83,0,0,0-1.85.6,2.4,2.4,0,0,0-.84,1.61,2.29,2.29,0,0,1,1.71-.69,2.13,2.13,0,0,1,1.77.8,3.51,3.51,0,0,1,.3,3.6,2.58,2.58,0,0,1-1,1.05,3,3,0,0,1-1.49.37,2.78,2.78,0,0,1-2.18-.93,3.67,3.67,0,0,1-.83-2.51v-.61A5.48,5.48,0,0,1,257,270a3.79,3.79,0,0,1,1.5-1.64,4.4,4.4,0,0,1,2.28-.59ZM259.45,272a1.43,1.43,0,0,0-.75.22,1.33,1.33,0,0,0-.49.56v.52a2.23,2.23,0,0,0,.34,1.32,1.06,1.06,0,0,0,.93.48,1.1,1.1,0,0,0,.89-.43,1.8,1.8,0,0,0,.33-1.12,1.74,1.74,0,0,0-.34-1.12A1.11,1.11,0,0,0,259.45,272Z"/><path class="cls-13" d="M266.36,269.47a1.69,1.69,0,0,1,.51-1.27,1.82,1.82,0,0,1,1.33-.49,1.89,1.89,0,0,1,1.35.48,1.73,1.73,0,0,1,.51,1.31v.43a1.67,1.67,0,0,1-.51,1.27,1.88,1.88,0,0,1-1.34.48,1.84,1.84,0,0,1-1.34-.49,1.69,1.69,0,0,1-.51-1.3Zm1.12.46a.8.8,0,0,0,.2.56.73.73,0,0,0,.53.22.7.7,0,0,0,.53-.22.9.9,0,0,0,.19-.58v-.44a.84.84,0,0,0-.19-.56.67.67,0,0,0-.54-.22.69.69,0,0,0-.52.21.87.87,0,0,0-.2.6Zm1.07,5.8-.83-.45,4.17-6.67.82.45Zm1.88-1.46A1.68,1.68,0,0,1,271,273a1.88,1.88,0,0,1,1.34-.48,1.92,1.92,0,0,1,1.34.47,1.73,1.73,0,0,1,.51,1.32v.42a1.67,1.67,0,0,1-.5,1.27,1.86,1.86,0,0,1-1.34.48,1.91,1.91,0,0,1-1.36-.48,1.72,1.72,0,0,1-.51-1.29Zm1.13.46a.77.77,0,0,0,.21.55.7.7,0,0,0,.53.23c.47,0,.71-.26.71-.79v-.45a.76.76,0,0,0-.2-.56.68.68,0,0,0-.52-.22.7.7,0,0,0-.53.22.83.83,0,0,0-.2.58Z"/><path class="cls-12" d="M235.42,224h-.59v-6.41l-1.93.72v-.55l2.42-.89h.1Z"/><path class="cls-12" d="M242.53,221.06a4,4,0,0,1-.55,2.28,1.87,1.87,0,0,1-1.63.78,1.9,1.9,0,0,1-1.62-.77,3.82,3.82,0,0,1-.57-2.22v-1.28a3.88,3.88,0,0,1,.55-2.27,1.91,1.91,0,0,1,1.63-.77,1.88,1.88,0,0,1,1.61.75,3.74,3.74,0,0,1,.58,2.19Zm-.59-1.28a3.46,3.46,0,0,0-.4-1.85,1.47,1.47,0,0,0-2.39,0,3.37,3.37,0,0,0-.41,1.8v1.4a3.51,3.51,0,0,0,.41,1.86,1.34,1.34,0,0,0,1.2.64,1.31,1.31,0,0,0,1.18-.63,3.41,3.41,0,0,0,.41-1.84Z"/><path class="cls-12" d="M243.75,225.35l-.34-.26a2.16,2.16,0,0,0,.46-1.23v-.76h.57v.61A2.11,2.11,0,0,1,243.75,225.35Z"/><path class="cls-12" d="M250.15,224H245.7v-.45l2.43-2.76a5.75,5.75,0,0,0,.84-1.16,1.85,1.85,0,0,0,.24-.88,1.43,1.43,0,0,0-.4-1.07,1.48,1.48,0,0,0-1.09-.39,1.53,1.53,0,0,0-1.16.46,1.65,1.65,0,0,0-.44,1.19h-.58a2.23,2.23,0,0,1,.27-1.09,2,2,0,0,1,.77-.78,2.4,2.4,0,0,1,1.14-.28,2.18,2.18,0,0,1,1.53.51,1.82,1.82,0,0,1,.55,1.4,2.45,2.45,0,0,1-.31,1.09,8.09,8.09,0,0,1-1.09,1.47l-2,2.25h3.74Z"/><path class="cls-12" d="M253.53,218.28a1.46,1.46,0,0,1,.4-1.06,1.41,1.41,0,0,1,2,0,1.5,1.5,0,0,1,.4,1.09v.34a1.44,1.44,0,0,1-.39,1,1.3,1.3,0,0,1-1,.42,1.32,1.32,0,0,1-1-.41,1.5,1.5,0,0,1-.4-1.08Zm.48.37a1.11,1.11,0,0,0,.25.75.82.82,0,0,0,.67.29.86.86,0,0,0,.67-.29,1.2,1.2,0,0,0,.24-.77v-.36a1.11,1.11,0,0,0-.25-.75.85.85,0,0,0-.66-.29.82.82,0,0,0-.67.29,1.16,1.16,0,0,0-.25.78Zm1.11,4.78-.37-.24,3.48-5.55.36.23Zm2-1.15a1.42,1.42,0,0,1,.4-1.05,1.29,1.29,0,0,1,1-.42,1.36,1.36,0,0,1,1,.41,1.54,1.54,0,0,1,.4,1.09v.35a1.49,1.49,0,0,1-.4,1.05,1.32,1.32,0,0,1-1,.41,1.36,1.36,0,0,1-1-.41,1.53,1.53,0,0,1-.4-1.08Zm.47.37a1.18,1.18,0,0,0,.25.76.88.88,0,0,0,.68.29.86.86,0,0,0,.67-.29,1.21,1.21,0,0,0,.24-.78v-.36a1.08,1.08,0,0,0-.25-.75.86.86,0,0,0-.67-.29.83.83,0,0,0-.66.29,1.12,1.12,0,0,0-.26.77Z"/><path class="cls-14" d="M247.46,118.56l-3.3,7.58h-1.79l3.31-7.16h-4.25v-1.37h6Z"/><path class="cls-14" d="M249.05,128.28l-.88-.46.21-.38a3.09,3.09,0,0,0,.4-1.42V124.7h1.43v1.18a3.21,3.21,0,0,1-.33,1.31A3.39,3.39,0,0,1,249.05,128.28Z"/><path class="cls-14" d="M257.27,118.56l-3.3,7.58h-1.78l3.3-7.16h-4.24v-1.37h6Z"/><path class="cls-14" d="M261.32,119.25a1.69,1.69,0,0,1,.51-1.27,1.84,1.84,0,0,1,1.34-.49,1.88,1.88,0,0,1,1.34.48,1.73,1.73,0,0,1,.51,1.31v.43a1.67,1.67,0,0,1-.51,1.27,2.09,2.09,0,0,1-2.68,0,1.69,1.69,0,0,1-.51-1.3Zm1.13.46a.76.76,0,0,0,.2.56.69.69,0,0,0,.53.21.67.67,0,0,0,.52-.21.85.85,0,0,0,.19-.58v-.44a.79.79,0,0,0-.19-.56.67.67,0,0,0-.53-.22.71.71,0,0,0-.53.21.86.86,0,0,0-.19.6Zm1.06,5.8-.82-.45,4.16-6.67.83.45Zm1.89-1.46a1.67,1.67,0,0,1,.51-1.27,2.14,2.14,0,0,1,2.69,0,1.73,1.73,0,0,1,.51,1.32v.42a1.67,1.67,0,0,1-.51,1.27,1.85,1.85,0,0,1-1.34.48,1.89,1.89,0,0,1-1.35-.48,1.72,1.72,0,0,1-.51-1.29Zm1.12.46a.79.79,0,0,0,.21.55.72.72,0,0,0,.53.23c.48,0,.72-.26.72-.79v-.45a.8.8,0,0,0-.2-.56.75.75,0,0,0-1.06,0,.82.82,0,0,0-.2.58Z"/><path class="cls-12" d="M333.18,55.24h1.11v.49h-1.11v1.8h-.58v-1.8h-3.35V55.4l3.29-5h.64Zm-3.21,0h2.63V51.18l-.26.45Z"/><path class="cls-12" d="M335.1,58.86l-.34-.25a2.18,2.18,0,0,0,.46-1.24v-.76h.57v.61A2.09,2.09,0,0,1,335.1,58.86Z"/><path class="cls-12" d="M340.64,55.24h1.11v.49h-1.11v1.8h-.59v-1.8h-3.34V55.4l3.29-5h.64Zm-3.22,0h2.63V51.18l-.26.45Z"/><path class="cls-12" d="M344.89,51.79a1.48,1.48,0,0,1,.39-1,1.39,1.39,0,0,1,2,0,1.49,1.49,0,0,1,.4,1.08v.35a1.48,1.48,0,0,1-.39,1,1.29,1.29,0,0,1-1,.42,1.34,1.34,0,0,1-1-.41,1.5,1.5,0,0,1-.4-1.09Zm.47.37a1.08,1.08,0,0,0,.25.75.84.84,0,0,0,.68.3.83.83,0,0,0,.66-.3,1.18,1.18,0,0,0,.24-.77v-.35a1.08,1.08,0,0,0-.25-.75.83.83,0,0,0-.66-.3.88.88,0,0,0-.67.29,1.17,1.17,0,0,0-.25.79Zm1.11,4.78-.36-.23,3.47-5.56.36.23Zm2-1.15a1.47,1.47,0,0,1,.4-1,1.29,1.29,0,0,1,1-.42,1.33,1.33,0,0,1,1,.42,1.5,1.5,0,0,1,.4,1.08v.35a1.45,1.45,0,0,1-.4,1,1.28,1.28,0,0,1-1,.41,1.32,1.32,0,0,1-1-.41,1.5,1.5,0,0,1-.4-1.08Zm.47.38a1.17,1.17,0,0,0,.25.75.84.84,0,0,0,.68.29.82.82,0,0,0,.67-.29,1.21,1.21,0,0,0,.24-.78v-.35a1.09,1.09,0,0,0-.25-.76.91.91,0,0,0-1.33,0,1.13,1.13,0,0,0-.26.78Z"/><path class="cls-12" d="M291.25,75.21v.51h-.07a2.66,2.66,0,0,0-2,.75,3.1,3.1,0,0,0-.81,2.08,1.86,1.86,0,0,1,.74-.62,2.31,2.31,0,0,1,1-.23,1.87,1.87,0,0,1,1.49.65,2.51,2.51,0,0,1,.56,1.69,3,3,0,0,1-.26,1.25,2,2,0,0,1-1.85,1.18,2.11,2.11,0,0,1-1.66-.74,2.79,2.79,0,0,1-.64-1.91v-.59a4.52,4.52,0,0,1,.87-3,3.09,3.09,0,0,1,2.47-1.06Zm-1.21,3a1.81,1.81,0,0,0-1,.33,1.55,1.55,0,0,0-.64.84v.49a2.34,2.34,0,0,0,.47,1.52,1.55,1.55,0,0,0,1.24.58,1.35,1.35,0,0,0,1.11-.54,2.17,2.17,0,0,0,.42-1.37,2,2,0,0,0-.42-1.34A1.43,1.43,0,0,0,290,78.21Z"/><path class="cls-12" d="M293.32,83.7l-.35-.26a2.06,2.06,0,0,0,.46-1.23v-.76H294v.61A2.12,2.12,0,0,1,293.32,83.7Z"/><path class="cls-12" d="M299.64,75.6l-3,6.77H296l3-6.61h-4v-.5h4.67Z"/><path class="cls-12" d="M303.1,76.63a1.47,1.47,0,0,1,.39-1,1.4,1.4,0,0,1,2,0,1.51,1.51,0,0,1,.39,1.08V77a1.48,1.48,0,0,1-.39,1,1.28,1.28,0,0,1-1,.41,1.31,1.31,0,0,1-1-.41,1.46,1.46,0,0,1-.4-1.08Zm.47.37a1.13,1.13,0,0,0,.25.75.84.84,0,0,0,.68.29.79.79,0,0,0,.66-.29,1.13,1.13,0,0,0,.25-.77v-.35a1.13,1.13,0,0,0-.26-.76.9.9,0,0,0-1.32,0,1.17,1.17,0,0,0-.26.78Zm1.11,4.78-.36-.23L307.79,76l.37.23Zm2-1.15a1.45,1.45,0,0,1,.39-1,1.29,1.29,0,0,1,1-.42,1.31,1.31,0,0,1,1,.42,1.46,1.46,0,0,1,.4,1.08V81a1.48,1.48,0,0,1-.39,1,1.36,1.36,0,0,1-1,.41,1.28,1.28,0,0,1-1-.41,1.46,1.46,0,0,1-.4-1.08Zm.47.38a1.11,1.11,0,0,0,.25.75.81.81,0,0,0,.67.29.84.84,0,0,0,.67-.29A1.21,1.21,0,0,0,309,81v-.36a1.13,1.13,0,0,0-.25-.75.88.88,0,0,0-.68-.29.85.85,0,0,0-.66.29,1.12,1.12,0,0,0-.25.77Z"/><path class="cls-12" d="M510.36,98.76H511a2,2,0,0,0,.88-.18,1.29,1.29,0,0,0,.57-.48,1.34,1.34,0,0,0,.2-.72,1.44,1.44,0,0,0-.39-1.07,1.46,1.46,0,0,0-1.1-.38,1.57,1.57,0,0,0-1.12.4,1.35,1.35,0,0,0-.44,1.06H509a2,2,0,0,1,.28-1,1.86,1.86,0,0,1,.77-.7,2.37,2.37,0,0,1,1.1-.25,2.13,2.13,0,0,1,1.52.52,1.93,1.93,0,0,1,.56,1.45,1.55,1.55,0,0,1-.33.95A1.92,1.92,0,0,1,512,99a1.9,1.9,0,0,1,1,.64,1.78,1.78,0,0,1,.34,1.08,1.94,1.94,0,0,1-.6,1.47,2.23,2.23,0,0,1-1.59.55,2.63,2.63,0,0,1-1.16-.25,1.88,1.88,0,0,1-1.11-1.77h.58a1.42,1.42,0,0,0,.47,1.1,1.75,1.75,0,0,0,1.22.43,1.66,1.66,0,0,0,1.18-.39,1.46,1.46,0,0,0,.42-1.13,1.33,1.33,0,0,0-.45-1.08,2.11,2.11,0,0,0-1.35-.38h-.59Z"/><path class="cls-12" d="M518.26,99.34a2.11,2.11,0,0,1-.78.71,2.08,2.08,0,0,1-1,.26,1.87,1.87,0,0,1-1.07-.32,2,2,0,0,1-.71-.86,2.86,2.86,0,0,1-.26-1.21,3,3,0,0,1,.27-1.28,2.14,2.14,0,0,1,.76-.89,1.94,1.94,0,0,1,1.12-.32,2,2,0,0,1,1.67.75,3.38,3.38,0,0,1,.59,2.12v.53a4.35,4.35,0,0,1-.82,2.89,3.09,3.09,0,0,1-2.5,1h-.11v-.51h.21a2.6,2.6,0,0,0,1.94-.72A3.16,3.16,0,0,0,518.26,99.34Zm-1.71.46a1.72,1.72,0,0,0,1.05-.35,1.86,1.86,0,0,0,.66-.9v-.34a2.75,2.75,0,0,0-.45-1.68,1.45,1.45,0,0,0-1.22-.6,1.41,1.41,0,0,0-1.14.56A2.22,2.22,0,0,0,515,97.9a2.13,2.13,0,0,0,.42,1.35A1.35,1.35,0,0,0,516.55,99.8Z"/><path class="cls-12" d="M520.12,104l-.35-.25a2.11,2.11,0,0,0,.46-1.24v-.75h.57v.61A2.08,2.08,0,0,1,520.12,104Z"/><path class="cls-12" d="M522.46,99l.35-3.47h3.55v.55h-3.05l-.25,2.4a2.32,2.32,0,0,1,1.34-.39,2,2,0,0,1,1.53.62,2.4,2.4,0,0,1,.57,1.67,2.51,2.51,0,0,1-.55,1.74,2,2,0,0,1-1.57.62,2.17,2.17,0,0,1-1.51-.52,2.08,2.08,0,0,1-.65-1.45h.56a1.64,1.64,0,0,0,.49,1.1,1.57,1.57,0,0,0,1.11.38,1.39,1.39,0,0,0,1.15-.48,2.18,2.18,0,0,0,.39-1.38,1.88,1.88,0,0,0-.44-1.28,1.48,1.48,0,0,0-1.18-.49,2.29,2.29,0,0,0-.73.11,2,2,0,0,0-.65.4Z"/><path class="cls-12" d="M529.9,96.89a1.48,1.48,0,0,1,.39-1,1.33,1.33,0,0,1,1-.42,1.3,1.3,0,0,1,1,.42,1.52,1.52,0,0,1,.39,1.08v.35a1.51,1.51,0,0,1-.38,1,1.3,1.3,0,0,1-1,.42,1.36,1.36,0,0,1-1-.41,1.5,1.5,0,0,1-.4-1.09Zm.47.38a1.08,1.08,0,0,0,.26.74.82.82,0,0,0,.67.3A.8.8,0,0,0,532,98a1.12,1.12,0,0,0,.25-.76v-.36a1.11,1.11,0,0,0-.25-.75.89.89,0,0,0-1.33,0,1.13,1.13,0,0,0-.26.78Zm1.12,4.77-.37-.23,3.47-5.56.37.24Zm2-1.15a1.48,1.48,0,0,1,.39-1,1.32,1.32,0,0,1,1-.41,1.28,1.28,0,0,1,1,.41,1.48,1.48,0,0,1,.4,1.09v.34a1.47,1.47,0,0,1-.39,1,1.29,1.29,0,0,1-1,.42,1.31,1.31,0,0,1-1-.42,1.45,1.45,0,0,1-.4-1.07Zm.47.38a1.08,1.08,0,0,0,.25.75.84.84,0,0,0,.68.3.8.8,0,0,0,.66-.3,1.15,1.15,0,0,0,.25-.77v-.36a1.09,1.09,0,0,0-.25-.76.85.85,0,0,0-.67-.28.82.82,0,0,0-.67.29,1.12,1.12,0,0,0-.25.77Z"/><path class="cls-12" d="M369.46,45.7h.61a2,2,0,0,0,.88-.18,1.31,1.31,0,0,0,.57-.49,1.28,1.28,0,0,0,.2-.71,1.44,1.44,0,0,0-.39-1.07,1.47,1.47,0,0,0-1.11-.39,1.61,1.61,0,0,0-1.12.41,1.37,1.37,0,0,0-.43,1.06h-.59a1.85,1.85,0,0,1,.28-1,2,2,0,0,1,.77-.71,2.45,2.45,0,0,1,1.09-.24,2.13,2.13,0,0,1,1.53.52,1.91,1.91,0,0,1,.55,1.45,1.51,1.51,0,0,1-.32.94,1.92,1.92,0,0,1-.89.65,1.85,1.85,0,0,1,1,.64,1.77,1.77,0,0,1,.34,1.07,1.91,1.91,0,0,1-.6,1.47,2.25,2.25,0,0,1-1.59.56,2.63,2.63,0,0,1-1.16-.25A1.87,1.87,0,0,1,368,47.64h.59a1.43,1.43,0,0,0,.47,1.11,1.78,1.78,0,0,0,1.22.43,1.68,1.68,0,0,0,1.18-.39,1.47,1.47,0,0,0,.42-1.13,1.34,1.34,0,0,0-.46-1.09,2.06,2.06,0,0,0-1.34-.37h-.59Z"/><path class="cls-12" d="M373.68,50.9l-.35-.25a2.11,2.11,0,0,0,.46-1.24v-.76h.57v.61A2.12,2.12,0,0,1,373.68,50.9Z"/><path class="cls-12" d="M376.92,45.7h.6a2,2,0,0,0,.88-.18A1.34,1.34,0,0,0,379,45a1.28,1.28,0,0,0,.2-.71,1.44,1.44,0,0,0-.39-1.07,1.5,1.5,0,0,0-1.11-.39,1.58,1.58,0,0,0-1.12.41,1.38,1.38,0,0,0-.44,1.06h-.58a1.85,1.85,0,0,1,.28-1,1.89,1.89,0,0,1,.77-.71,2.45,2.45,0,0,1,1.09-.24,2.11,2.11,0,0,1,1.52.52,1.88,1.88,0,0,1,.56,1.45,1.57,1.57,0,0,1-.32.94,2,2,0,0,1-.89.65,1.82,1.82,0,0,1,1,.64,1.71,1.71,0,0,1,.34,1.07,1.94,1.94,0,0,1-.59,1.47,2.25,2.25,0,0,1-1.59.56,2.64,2.64,0,0,1-1.17-.25,2,2,0,0,1-.82-.71,2,2,0,0,1-.29-1.07H376a1.4,1.4,0,0,0,.47,1.11,1.76,1.76,0,0,0,1.22.43,1.7,1.7,0,0,0,1.18-.39,1.47,1.47,0,0,0,.42-1.13,1.37,1.37,0,0,0-.46-1.09,2.06,2.06,0,0,0-1.34-.37h-.59Z"/><path class="cls-12" d="M383.46,43.83a1.48,1.48,0,0,1,.39-1,1.4,1.4,0,0,1,2,0,1.52,1.52,0,0,1,.39,1.08v.35a1.48,1.48,0,0,1-.39,1,1.29,1.29,0,0,1-1,.42,1.34,1.34,0,0,1-1-.41,1.5,1.5,0,0,1-.4-1.09Zm.47.37a1.08,1.08,0,0,0,.25.75.85.85,0,0,0,.68.3.8.8,0,0,0,.66-.3,1.19,1.19,0,0,0,.25-.77v-.35a1.09,1.09,0,0,0-.26-.75.83.83,0,0,0-.66-.3.85.85,0,0,0-.66.29,1.17,1.17,0,0,0-.26.79ZM385,49l-.36-.23,3.47-5.56.37.24Zm2-1.15a1.48,1.48,0,0,1,.39-1,1.29,1.29,0,0,1,1-.42,1.31,1.31,0,0,1,1,.42,1.46,1.46,0,0,1,.4,1.08v.35a1.48,1.48,0,0,1-.39,1,1.4,1.4,0,0,1-2,0,1.48,1.48,0,0,1-.39-1.07Zm.47.38a1.1,1.1,0,0,0,.25.75.82.82,0,0,0,.67.3.83.83,0,0,0,.67-.3,1.21,1.21,0,0,0,.25-.78v-.35a1.14,1.14,0,0,0-.25-.76.88.88,0,0,0-.68-.29.85.85,0,0,0-.66.29,1.14,1.14,0,0,0-.25.78Z"/><path class="cls-12" d="M495.54,86h-3.32v2.9H496v.51h-4.43V82.26H496v.51h-3.79v2.68h3.32Z"/><path class="cls-12" d="M497.72,84.09l0,.9a2.21,2.21,0,0,1,.74-.75,2,2,0,0,1,1-.25,1.59,1.59,0,0,1,1.26.48,2.11,2.11,0,0,1,.42,1.43v3.47h-.58V85.9a1.6,1.6,0,0,0-.3-1.06,1.18,1.18,0,0,0-.95-.34,1.42,1.42,0,0,0-.95.34,1.93,1.93,0,0,0-.62.91v3.62h-.58V84.09Z"/><path class="cls-12" d="M504.71,89.47a2.3,2.3,0,0,1-1.22-.33,2.25,2.25,0,0,1-.85-.93,2.92,2.92,0,0,1-.3-1.33v-.21a3.17,3.17,0,0,1,.29-1.37,2.29,2.29,0,0,1,.83-1A2,2,0,0,1,504.6,84a1.91,1.91,0,0,1,1.52.65,2.66,2.66,0,0,1,.57,1.8v.33h-3.77v.11a2.24,2.24,0,0,0,.51,1.5,1.68,1.68,0,0,0,1.3.59,1.84,1.84,0,0,0,.83-.17,1.81,1.81,0,0,0,.65-.54l.37.27A2.13,2.13,0,0,1,504.71,89.47Zm-.11-5a1.46,1.46,0,0,0-1.11.48,2.19,2.19,0,0,0-.55,1.3h3.17v-.06a1.9,1.9,0,0,0-.44-1.24A1.34,1.34,0,0,0,504.6,84.49Z"/><path class="cls-12" d="M510.27,84.58a2.6,2.6,0,0,0-.4,0,1.38,1.38,0,0,0-.92.31,1.55,1.55,0,0,0-.54.88v3.63h-.58V84.09h.57v.84A1.54,1.54,0,0,1,509.9,84a1,1,0,0,1,.38.06Z"/><path class="cls-12" d="M510.86,86.68a3.24,3.24,0,0,1,.55-2A1.79,1.79,0,0,1,512.9,84a1.82,1.82,0,0,1,1.64.86l0-.76h.55v5.17a2.26,2.26,0,0,1-.57,1.62,2,2,0,0,1-1.55.59,2.38,2.38,0,0,1-1.05-.24,2.15,2.15,0,0,1-.79-.66l.33-.35A1.83,1.83,0,0,0,513,91a1.48,1.48,0,0,0,1.14-.43,1.7,1.7,0,0,0,.43-1.2v-.66a1.89,1.89,0,0,1-1.64.78,1.76,1.76,0,0,1-1.47-.74,3.16,3.16,0,0,1-.56-2Zm.59.1a2.76,2.76,0,0,0,.41,1.6A1.33,1.33,0,0,0,513,89a1.56,1.56,0,0,0,1.53-1V85.54a1.69,1.69,0,0,0-.59-.78,1.66,1.66,0,0,0-.93-.26,1.35,1.35,0,0,0-1.15.57A3,3,0,0,0,511.45,86.78Z"/><path class="cls-12" d="M518.69,89.47a2.3,2.3,0,0,1-1.22-.33,2.39,2.39,0,0,1-.85-.93,2.92,2.92,0,0,1-.3-1.33v-.21a3,3,0,0,1,.3-1.37,2.27,2.27,0,0,1,.82-1,2,2,0,0,1,1.14-.35,1.94,1.94,0,0,1,1.53.65,2.71,2.71,0,0,1,.56,1.8v.33H516.9v.11a2.19,2.19,0,0,0,.52,1.5,1.64,1.64,0,0,0,1.29.59,1.81,1.81,0,0,0,.83-.17,1.73,1.73,0,0,0,.65-.54l.37.27A2.12,2.12,0,0,1,518.69,89.47Zm-.11-5a1.46,1.46,0,0,0-1.11.48,2.25,2.25,0,0,0-.55,1.3h3.17v-.06a2,2,0,0,0-.43-1.24A1.37,1.37,0,0,0,518.58,84.49Z"/><path class="cls-12" d="M522.72,82.73v1.36h1.09v.47h-1.09v3.53a1.06,1.06,0,0,0,.16.65.59.59,0,0,0,.53.22l.47,0,0,.48a2,2,0,0,1-.62.08,1,1,0,0,1-.87-.35,1.6,1.6,0,0,1-.28-1V84.56h-1v-.47h1V82.73Z"/><path class="cls-12" d="M525,82.56a.37.37,0,0,1,.11-.28.38.38,0,0,1,.29-.11.4.4,0,0,1,.29.11.41.41,0,0,1,0,.56.4.4,0,0,1-.29.11.38.38,0,0,1-.29-.11A.37.37,0,0,1,525,82.56Zm.69,6.81h-.59V84.09h.59Z"/><path class="cls-12" d="M528.52,86.71l-.67.64v2h-.59v-7.5h.59v4.8l.55-.6,2-2h.74l-2.24,2.22,2.44,3.06h-.7Z"/><path class="cls-12" d="M535.5,89.37a2.82,2.82,0,0,1-.12-.74,2,2,0,0,1-.78.62,2.48,2.48,0,0,1-1,.22,1.72,1.72,0,0,1-1.23-.43,1.47,1.47,0,0,1,.17-2.29,3.08,3.08,0,0,1,1.79-.45h1.06v-.6a1.15,1.15,0,0,0-.35-.89,1.42,1.42,0,0,0-1-.33,1.64,1.64,0,0,0-1,.31.93.93,0,0,0-.4.76H532a1.37,1.37,0,0,1,.59-1.09A2.24,2.24,0,0,1,534,84a2.05,2.05,0,0,1,1.39.44,1.56,1.56,0,0,1,.53,1.23v2.5a3.06,3.06,0,0,0,.16,1.15v.06ZM533.66,89a2.06,2.06,0,0,0,1.05-.28,1.75,1.75,0,0,0,.67-.76V86.75h-1a2.51,2.51,0,0,0-1.36.32,1,1,0,0,0-.17,1.59A1.28,1.28,0,0,0,533.66,89Z"/><path class="cls-12" d="M453.37,305.78v-7.11h2a3.12,3.12,0,0,1,1.56.4,2.79,2.79,0,0,1,1.09,1.14,3.72,3.72,0,0,1,.38,1.69v.65a3.66,3.66,0,0,1-.38,1.69,2.79,2.79,0,0,1-1.09,1.14,3.15,3.15,0,0,1-1.61.4Zm.6-6.6v6.09h1.35a2.3,2.3,0,0,0,1.8-.74,2.9,2.9,0,0,0,.68-2v-.62a2.8,2.8,0,0,0-.67-2,2.27,2.27,0,0,0-1.76-.74Z"/><path class="cls-12" d="M459.46,303.06a3.2,3.2,0,0,1,.29-1.37,2.29,2.29,0,0,1,.84-.95,2.22,2.22,0,0,1,1.22-.34,2.2,2.2,0,0,1,1.71.74,2.83,2.83,0,0,1,.66,2v.12a3.11,3.11,0,0,1-.3,1.38,2.21,2.21,0,0,1-.83.95,2.31,2.31,0,0,1-1.23.33,2.2,2.2,0,0,1-1.71-.74,2.88,2.88,0,0,1-.65-2Zm.58.16a2.46,2.46,0,0,0,.49,1.56,1.6,1.6,0,0,0,1.29.61,1.57,1.57,0,0,0,1.28-.61,2.47,2.47,0,0,0,.49-1.61v-.11a2.72,2.72,0,0,0-.22-1.11,1.88,1.88,0,0,0-.63-.78,1.64,1.64,0,0,0-.93-.27,1.55,1.55,0,0,0-1.27.61,2.48,2.48,0,0,0-.5,1.61Z"/><path class="cls-12" d="M469.63,303.19a3.13,3.13,0,0,1-.55,2,1.72,1.72,0,0,1-1.46.73,1.93,1.93,0,0,1-1.66-.76v2.69h-.58V300.5h.54l0,.75a1.86,1.86,0,0,1,1.65-.85,1.76,1.76,0,0,1,1.49.72,3.25,3.25,0,0,1,.54,2Zm-.59-.1a2.81,2.81,0,0,0-.41-1.6,1.34,1.34,0,0,0-1.16-.58,1.54,1.54,0,0,0-1.51,1v2.53a1.54,1.54,0,0,0,.6.7,1.73,1.73,0,0,0,.92.24,1.33,1.33,0,0,0,1.15-.59A2.92,2.92,0,0,0,469,303.09Z"/><path class="cls-12" d="M473.36,301a1.61,1.61,0,0,0-.39,0,1.41,1.41,0,0,0-.93.31,1.7,1.7,0,0,0-.54.88v3.63h-.58V300.5h.57v.84a1.55,1.55,0,0,1,1.49-.94,1,1,0,0,1,.39.06Z"/><path class="cls-12" d="M477.43,305.78a2.75,2.75,0,0,1-.12-.74,1.91,1.91,0,0,1-.78.62,2.33,2.33,0,0,1-1,.22,1.72,1.72,0,0,1-1.23-.43,1.39,1.39,0,0,1-.47-1.07,1.41,1.41,0,0,1,.64-1.22,3.1,3.1,0,0,1,1.79-.45h1.06v-.6a1.15,1.15,0,0,0-.35-.89,1.42,1.42,0,0,0-1-.33,1.6,1.6,0,0,0-1,.32.94.94,0,0,0-.4.75H474a1.35,1.35,0,0,1,.58-1.09,2.3,2.3,0,0,1,1.44-.46,2.1,2.1,0,0,1,1.4.44,1.6,1.6,0,0,1,.52,1.24v2.5a3,3,0,0,0,.16,1.14v.06Zm-1.84-.42a2,2,0,0,0,1.05-.28,1.64,1.64,0,0,0,.67-.76v-1.16h-1.05a2.6,2.6,0,0,0-1.36.32,1,1,0,0,0-.5.85,1,1,0,0,0,.33.74A1.28,1.28,0,0,0,475.59,305.36Z"/><path class="cls-12" d="M481,305l1.61-4.48h.6l-2,5.28h-.48l-2-5.28h.6Z"/><path class="cls-12" d="M487.45,305.78a2.75,2.75,0,0,1-.12-.74,1.91,1.91,0,0,1-.78.62,2.33,2.33,0,0,1-1,.22,1.72,1.72,0,0,1-1.23-.43,1.39,1.39,0,0,1-.47-1.07,1.41,1.41,0,0,1,.64-1.22,3.1,3.1,0,0,1,1.79-.45h1.06v-.6a1.15,1.15,0,0,0-.35-.89,1.42,1.42,0,0,0-1-.33,1.58,1.58,0,0,0-1,.32.91.91,0,0,0-.4.75H484a1.35,1.35,0,0,1,.58-1.09,2.3,2.3,0,0,1,1.44-.46,2.1,2.1,0,0,1,1.4.44,1.6,1.6,0,0,1,.52,1.24v2.5a3,3,0,0,0,.16,1.14v.06Zm-1.84-.42a2,2,0,0,0,1.05-.28,1.64,1.64,0,0,0,.67-.76v-1.16h-1.05a2.6,2.6,0,0,0-1.36.32,1,1,0,0,0-.5.85,1,1,0,0,0,.33.74A1.28,1.28,0,0,0,485.61,305.36Z"/><path class="cls-12" d="M145.39,197a1.17,1.17,0,0,0-.41-.94,4.35,4.35,0,0,0-1.52-.65,5.46,5.46,0,0,1-1.61-.68,1.6,1.6,0,0,1-.72-1.36,1.58,1.58,0,0,1,.67-1.32,2.74,2.74,0,0,1,1.71-.51,2.89,2.89,0,0,1,1.27.27,2.15,2.15,0,0,1,.87.76,2.05,2.05,0,0,1,.3,1.09h-.6a1.48,1.48,0,0,0-.5-1.17,1.92,1.92,0,0,0-1.34-.44,2.15,2.15,0,0,0-1.3.36,1.14,1.14,0,0,0-.48,1,1.09,1.09,0,0,0,.44.89,4.08,4.08,0,0,0,1.39.6,6.89,6.89,0,0,1,1.45.54,2.11,2.11,0,0,1,.74.67,1.66,1.66,0,0,1,.25.93,1.6,1.6,0,0,1-.67,1.34,2.86,2.86,0,0,1-1.77.51,3.47,3.47,0,0,1-1.38-.27,2.16,2.16,0,0,1-1-.75,2,2,0,0,1-.32-1.11h.6a1.44,1.44,0,0,0,.56,1.19,2.39,2.39,0,0,0,1.5.43,2.25,2.25,0,0,0,1.33-.36A1.16,1.16,0,0,0,145.39,197Z"/><path class="cls-12" d="M151.4,196.17a3.23,3.23,0,0,1-.54,2,1.76,1.76,0,0,1-1.47.72,2,2,0,0,1-1.66-.76v2.7h-.58v-7.32h.54l0,.75a1.86,1.86,0,0,1,1.66-.85,1.75,1.75,0,0,1,1.48.72,3.25,3.25,0,0,1,.54,2Zm-.58-.11a2.68,2.68,0,0,0-.42-1.59,1.33,1.33,0,0,0-1.15-.59,1.55,1.55,0,0,0-1.52,1v2.54a1.56,1.56,0,0,0,.6.69,1.74,1.74,0,0,0,.93.24,1.34,1.34,0,0,0,1.15-.59A3,3,0,0,0,150.82,196.06Z"/><path class="cls-12" d="M156,198.75a2.81,2.81,0,0,1-.11-.73,2.17,2.17,0,0,1-.78.62,2.5,2.5,0,0,1-1,.21,1.81,1.81,0,0,1-1.24-.42,1.47,1.47,0,0,1,.18-2.3,3.05,3.05,0,0,1,1.79-.45h1.06v-.6a1.17,1.17,0,0,0-.35-.89,1.45,1.45,0,0,0-1-.32,1.56,1.56,0,0,0-1,.31.92.92,0,0,0-.4.75h-.59a1.38,1.38,0,0,1,.59-1.1,2.3,2.3,0,0,1,1.44-.46,2.07,2.07,0,0,1,1.39.44,1.61,1.61,0,0,1,.53,1.24v2.5a3.09,3.09,0,0,0,.16,1.15v.05Zm-1.83-.42a1.91,1.91,0,0,0,1-.28,1.66,1.66,0,0,0,.68-.76v-1.16h-1a2.74,2.74,0,0,0-1.37.32,1,1,0,0,0-.49.85.94.94,0,0,0,.33.74A1.23,1.23,0,0,0,154.2,198.33Z"/><path class="cls-12" d="M158.71,198.75h-.59v-7.5h.59Z"/><path class="cls-12" d="M160,196a3.09,3.09,0,0,1,.3-1.37,2.21,2.21,0,0,1,2.06-1.29,2.2,2.2,0,0,1,1.71.74,2.9,2.9,0,0,1,.65,2v.13a3,3,0,0,1-.3,1.37,2.14,2.14,0,0,1-.83,1,2.28,2.28,0,0,1-1.22.33,2.16,2.16,0,0,1-1.71-.74,2.82,2.82,0,0,1-.66-2Zm.59.17a2.36,2.36,0,0,0,.49,1.55,1.66,1.66,0,0,0,2.57,0,2.45,2.45,0,0,0,.49-1.6V196a2.64,2.64,0,0,0-.23-1.1,1.76,1.76,0,0,0-.63-.78,1.54,1.54,0,0,0-.92-.28,1.6,1.6,0,0,0-1.28.61,2.49,2.49,0,0,0-.49,1.61Z"/><path class="cls-12" d="M167.47,198l1.6-4.48h.61l-2,5.28h-.47l-2-5.28h.6Z"/><path class="cls-12" d="M173.89,198.75a3.32,3.32,0,0,1-.11-.73,2.17,2.17,0,0,1-.78.62,2.5,2.5,0,0,1-1,.21,1.77,1.77,0,0,1-1.23-.42,1.38,1.38,0,0,1-.47-1.08,1.41,1.41,0,0,1,.64-1.22,3.08,3.08,0,0,1,1.79-.45h1.06v-.6a1.17,1.17,0,0,0-.35-.89,1.44,1.44,0,0,0-1-.32,1.58,1.58,0,0,0-1,.31.92.92,0,0,0-.4.75h-.59a1.38,1.38,0,0,1,.59-1.1,2.3,2.3,0,0,1,1.44-.46,2.07,2.07,0,0,1,1.39.44,1.61,1.61,0,0,1,.53,1.24v2.5a3.09,3.09,0,0,0,.16,1.15v.05Zm-1.83-.42a2,2,0,0,0,1.05-.28,1.7,1.7,0,0,0,.67-.76v-1.16h-1.05a2.74,2.74,0,0,0-1.37.32,1,1,0,0,0-.49.85.94.94,0,0,0,.33.74A1.23,1.23,0,0,0,172.06,198.33Zm1.15-7.08h.71l-1.13,1.37h-.51Z"/><path class="cls-12" d="M176.47,193.47l0,.9a2.18,2.18,0,0,1,.74-.74,2,2,0,0,1,1-.26,1.59,1.59,0,0,1,1.26.48,2.13,2.13,0,0,1,.42,1.44v3.46h-.58v-3.47a1.57,1.57,0,0,0-.3-1.05,1.19,1.19,0,0,0-1-.35,1.47,1.47,0,0,0-1,.34,2,2,0,0,0-.61.92v3.61h-.58v-5.28Z"/><path class="cls-12" d="M182.36,191.31h.7l-1.12,1.37h-.52Zm-.31,7.44h-.58v-5.28h.58Z"/><path class="cls-12" d="M187.71,198l1.61-4.48h.6l-2,5.28h-.48l-2-5.28h.6Z"/><path class="cls-12" d="M193.07,196.06a3.23,3.23,0,0,1,.55-2,1.8,1.8,0,0,1,1.49-.73,1.84,1.84,0,0,1,1.64.85v-3h.58v7.5h-.55l0-.7a1.89,1.89,0,0,1-1.66.8,1.77,1.77,0,0,1-1.47-.73,3.22,3.22,0,0,1-.56-2Zm.59.11a2.75,2.75,0,0,0,.41,1.59,1.3,1.3,0,0,0,1.14.58,1.58,1.58,0,0,0,1.54-1v-2.48a1.57,1.57,0,0,0-1.53-1,1.33,1.33,0,0,0-1.15.58A3,3,0,0,0,193.66,196.17Z"/><path class="cls-12" d="M198.54,196a3.09,3.09,0,0,1,.3-1.37,2.26,2.26,0,0,1,.83-.95,2.32,2.32,0,0,1,1.23-.34,2.16,2.16,0,0,1,1.7.74,2.85,2.85,0,0,1,.66,2v.13a3,3,0,0,1-.3,1.37,2.14,2.14,0,0,1-.83,1,2.3,2.3,0,0,1-1.22.33,2.16,2.16,0,0,1-1.71-.74,2.82,2.82,0,0,1-.66-2Zm.59.17a2.36,2.36,0,0,0,.49,1.55,1.66,1.66,0,0,0,2.57,0,2.5,2.5,0,0,0,.49-1.6V196a2.64,2.64,0,0,0-.23-1.1,1.76,1.76,0,0,0-.63-.78,1.56,1.56,0,0,0-.92-.28,1.6,1.6,0,0,0-1.28.61,2.49,2.49,0,0,0-.49,1.61Z"/><path class="cls-12" d="M205,193.47l0,.86a1.94,1.94,0,0,1,.73-.72,2,2,0,0,1,1-.24,1.48,1.48,0,0,1,1.58,1,2,2,0,0,1,.76-.76,2.07,2.07,0,0,1,1-.27q1.71,0,1.74,1.86v3.52h-.59v-3.48a1.57,1.57,0,0,0-.3-1.05,1.28,1.28,0,0,0-1-.34,1.57,1.57,0,0,0-1.07.41,1.42,1.42,0,0,0-.48,1v3.49h-.59v-3.52a1.42,1.42,0,0,0-.32-1,1.24,1.24,0,0,0-1-.34,1.47,1.47,0,0,0-.94.32,1.83,1.83,0,0,0-.59.93v3.62h-.58v-5.28Z"/><path class="cls-12" d="M216.66,198.75a2.81,2.81,0,0,1-.11-.73,2.17,2.17,0,0,1-.78.62,2.5,2.5,0,0,1-1,.21,1.81,1.81,0,0,1-1.24-.42,1.47,1.47,0,0,1,.18-2.3,3.05,3.05,0,0,1,1.79-.45h1.06v-.6a1.17,1.17,0,0,0-.35-.89,1.45,1.45,0,0,0-1-.32,1.56,1.56,0,0,0-1,.31.92.92,0,0,0-.4.75h-.59a1.38,1.38,0,0,1,.59-1.1,2.3,2.3,0,0,1,1.44-.46,2.07,2.07,0,0,1,1.39.44,1.61,1.61,0,0,1,.53,1.24v2.5a3.09,3.09,0,0,0,.16,1.15v.05Zm-1.83-.42a1.91,1.91,0,0,0,1-.28,1.66,1.66,0,0,0,.68-.76v-1.16H215.5a2.74,2.74,0,0,0-1.37.32,1,1,0,0,0-.49.85.94.94,0,0,0,.33.74A1.21,1.21,0,0,0,214.83,198.33Zm1.15-7.08h.71l-1.13,1.37h-.51Z"/><path class="cls-12" d="M220.64,198.36a1.54,1.54,0,0,0,1-.35,1.23,1.23,0,0,0,.45-.89h.56a1.69,1.69,0,0,1-.3.88,2,2,0,0,1-.74.63,2.24,2.24,0,0,1-1,.22,2,2,0,0,1-1.65-.72,2.89,2.89,0,0,1-.61-1.94V196a3.33,3.33,0,0,1,.27-1.38,2.19,2.19,0,0,1,.79-.93,2.15,2.15,0,0,1,1.19-.33,2,2,0,0,1,1.43.52,1.9,1.9,0,0,1,.61,1.36h-.56a1.48,1.48,0,0,0-.45-1,1.45,1.45,0,0,0-1-.38,1.47,1.47,0,0,0-1.23.57A2.6,2.6,0,0,0,219,196v.18a2.53,2.53,0,0,0,.43,1.57A1.49,1.49,0,0,0,220.64,198.36Z"/><path class="cls-12" d="M224.39,193.47l0,.9a2.18,2.18,0,0,1,.74-.74,2,2,0,0,1,1-.26,1.59,1.59,0,0,1,1.26.48,2.13,2.13,0,0,1,.42,1.44v3.46h-.58v-3.47a1.57,1.57,0,0,0-.3-1.05,1.19,1.19,0,0,0-.95-.35,1.47,1.47,0,0,0-1,.34,2,2,0,0,0-.61.92v3.61h-.58v-5.28Z"/><path class="cls-12" d="M229,196a3.09,3.09,0,0,1,.29-1.37,2.35,2.35,0,0,1,.84-.95,2.28,2.28,0,0,1,1.22-.34,2.2,2.2,0,0,1,1.71.74,2.85,2.85,0,0,1,.65,2v.13a3.17,3.17,0,0,1-.29,1.37,2.27,2.27,0,0,1-.83,1,2.31,2.31,0,0,1-1.23.33,2.16,2.16,0,0,1-1.71-.74,2.81,2.81,0,0,1-.65-2Zm.58.17a2.42,2.42,0,0,0,.49,1.55,1.57,1.57,0,0,0,1.29.61,1.55,1.55,0,0,0,1.28-.61,2.45,2.45,0,0,0,.49-1.6V196a2.64,2.64,0,0,0-.22-1.1,1.76,1.76,0,0,0-.63-.78,1.65,1.65,0,0,0-2.2.33,2.5,2.5,0,0,0-.5,1.61Z"/><path class="cls-12" d="M238.09,197.41a.82.82,0,0,0-.35-.7,2.76,2.76,0,0,0-1.05-.41,4.71,4.71,0,0,1-1.09-.34,1.55,1.55,0,0,1-.58-.47,1.23,1.23,0,0,1-.18-.68,1.25,1.25,0,0,1,.52-1,2.12,2.12,0,0,1,1.34-.41,2.14,2.14,0,0,1,1.41.44,1.39,1.39,0,0,1,.54,1.14h-.59a1,1,0,0,0-.38-.77,1.51,1.51,0,0,0-1-.31,1.53,1.53,0,0,0-.93.26.79.79,0,0,0-.35.66.74.74,0,0,0,.29.62,3.5,3.5,0,0,0,1.06.4,5,5,0,0,1,1.16.38,1.51,1.51,0,0,1,.56.49,1.25,1.25,0,0,1,.19.7,1.27,1.27,0,0,1-.54,1.07,2.29,2.29,0,0,1-1.41.4,2.39,2.39,0,0,1-1.5-.45,1.36,1.36,0,0,1-.57-1.13h.59a1,1,0,0,0,.43.8,1.74,1.74,0,0,0,1,.29,1.66,1.66,0,0,0,1-.27A.81.81,0,0,0,238.09,197.41Z"/><path class="cls-12" d="M240.9,192.12v1.35H242V194H240.9v3.52a1.07,1.07,0,0,0,.16.66.62.62,0,0,0,.53.21,3.5,3.5,0,0,0,.47,0l0,.47a2.1,2.1,0,0,1-.63.08,1,1,0,0,1-.87-.35,1.64,1.64,0,0,1-.28-1V194h-1v-.48h1v-1.35Z"/><path class="cls-12" d="M245.25,198.85a2.33,2.33,0,0,1-1.22-.33,2.23,2.23,0,0,1-.84-.93,2.75,2.75,0,0,1-.31-1.33v-.21a3.09,3.09,0,0,1,.3-1.37,2.41,2.41,0,0,1,.82-1,2,2,0,0,1,1.14-.35,1.91,1.91,0,0,1,1.53.66,2.65,2.65,0,0,1,.56,1.79v.33h-3.77v.11a2.24,2.24,0,0,0,.52,1.5,1.64,1.64,0,0,0,1.3.6,1.94,1.94,0,0,0,.82-.17,2,2,0,0,0,.66-.55l.36.28A2.13,2.13,0,0,1,245.25,198.85Zm-.11-5a1.46,1.46,0,0,0-1.11.48,2.31,2.31,0,0,0-.55,1.3h3.17v-.06a1.92,1.92,0,0,0-.43-1.24A1.36,1.36,0,0,0,245.14,193.87Z"/><path class="cls-12" d="M250.32,198.36a1.57,1.57,0,0,0,1-.35,1.18,1.18,0,0,0,.44-.89h.57a1.61,1.61,0,0,1-.31.88,1.82,1.82,0,0,1-.74.63,2.18,2.18,0,0,1-1,.22,2,2,0,0,1-1.64-.72,2.89,2.89,0,0,1-.61-1.94V196a3.33,3.33,0,0,1,.27-1.38,2.09,2.09,0,0,1,2-1.26,2,2,0,0,1,1.43.52,1.9,1.9,0,0,1,.61,1.36h-.57a1.43,1.43,0,0,0-.44-1,1.47,1.47,0,0,0-1-.38,1.46,1.46,0,0,0-1.23.57,2.6,2.6,0,0,0-.44,1.6v.18a2.53,2.53,0,0,0,.44,1.57A1.46,1.46,0,0,0,250.32,198.36Z"/><path class="cls-12" d="M254.1,194.36a2.24,2.24,0,0,1,.74-.73,2,2,0,0,1,1-.26,1.59,1.59,0,0,1,1.27.48,2.25,2.25,0,0,1,.42,1.44v3.46h-.58v-3.47a1.68,1.68,0,0,0-.3-1.05,1.2,1.2,0,0,0-.95-.35,1.47,1.47,0,0,0-1,.34,2,2,0,0,0-.62.92v3.61h-.58v-7.5h.58Z"/><path class="cls-12" d="M258.89,200.08l-.35-.25a2.11,2.11,0,0,0,.46-1.24v-.75h.57v.61A2.08,2.08,0,0,1,258.89,200.08Z"/><path class="cls-12" d="M153.44,204a.39.39,0,0,1,.11-.28.37.37,0,0,1,.29-.12.41.41,0,0,1,.3.12.39.39,0,0,1,.11.28.37.37,0,0,1-.11.27.4.4,0,0,1-.3.11.36.36,0,0,1-.29-.11A.37.37,0,0,1,153.44,204Zm.69,6.8h-.59v-5.28h.59Z"/><path class="cls-12" d="M156.27,205.47l0,.9a2.18,2.18,0,0,1,.74-.74,2,2,0,0,1,1-.26,1.59,1.59,0,0,1,1.27.48,2.13,2.13,0,0,1,.42,1.44v3.46h-.58v-3.47a1.62,1.62,0,0,0-.3-1.05,1.19,1.19,0,0,0-.95-.35,1.47,1.47,0,0,0-1,.34,2,2,0,0,0-.61.92v3.61h-.58v-5.28Z"/><path class="cls-12" d="M164.37,209.41a.82.82,0,0,0-.35-.7,2.76,2.76,0,0,0-1.05-.41,4.71,4.71,0,0,1-1.09-.34,1.55,1.55,0,0,1-.58-.47,1.23,1.23,0,0,1-.18-.68,1.25,1.25,0,0,1,.52-1,2.12,2.12,0,0,1,1.34-.41,2.16,2.16,0,0,1,1.41.44,1.39,1.39,0,0,1,.54,1.14h-.59a.93.93,0,0,0-.39-.77,1.47,1.47,0,0,0-1-.31,1.53,1.53,0,0,0-.93.26.79.79,0,0,0-.35.66.74.74,0,0,0,.29.62,3.5,3.5,0,0,0,1.06.4,4.77,4.77,0,0,1,1.15.38,1.47,1.47,0,0,1,.57.49,1.25,1.25,0,0,1,.19.7,1.27,1.27,0,0,1-.54,1.07,2.29,2.29,0,0,1-1.41.4,2.37,2.37,0,0,1-1.5-.45,1.36,1.36,0,0,1-.57-1.13h.59a1,1,0,0,0,.43.8,1.74,1.74,0,0,0,1,.29,1.66,1.66,0,0,0,1-.27A.81.81,0,0,0,164.37,209.41Z"/><path class="cls-12" d="M167.18,204.12v1.35h1.09V206h-1.09v3.52a1.07,1.07,0,0,0,.16.66.61.61,0,0,0,.53.21,3.62,3.62,0,0,0,.47,0l0,.47a2.1,2.1,0,0,1-.63.08,1,1,0,0,1-.87-.35,1.58,1.58,0,0,1-.28-1V206h-1v-.48h1v-1.35Z"/><path class="cls-12" d="M169.45,204a.39.39,0,0,1,.11-.28.37.37,0,0,1,.29-.12.41.41,0,0,1,.3.12.39.39,0,0,1,.11.28.37.37,0,0,1-.11.27.4.4,0,0,1-.3.11.36.36,0,0,1-.29-.11A.37.37,0,0,1,169.45,204Zm.69,6.8h-.59v-5.28h.59Z"/><path class="cls-12" d="M172.63,204.12v1.35h1.1V206h-1.1v3.52a1.14,1.14,0,0,0,.16.66.64.64,0,0,0,.53.21,3.74,3.74,0,0,0,.48,0l0,.47a2,2,0,0,1-.62.08,1,1,0,0,1-.88-.35,1.65,1.65,0,0,1-.27-1V206h-1v-.48h1v-1.35Z"/><path class="cls-12" d="M178.34,210.09a1.91,1.91,0,0,1-1.69.76,1.62,1.62,0,0,1-1.28-.49,2.18,2.18,0,0,1-.45-1.45v-3.44h.58v3.37c0,1,.41,1.5,1.22,1.5a1.5,1.5,0,0,0,1.61-1.05v-3.82h.58v5.28h-.56Z"/><path class="cls-12" d="M182.39,210.36a1.56,1.56,0,0,0,1-.35,1.18,1.18,0,0,0,.44-.89h.57a1.61,1.61,0,0,1-.31.88,1.82,1.82,0,0,1-.74.63,2.17,2.17,0,0,1-1,.22,2,2,0,0,1-1.65-.72,2.89,2.89,0,0,1-.61-1.94V208a3.33,3.33,0,0,1,.27-1.38,2.19,2.19,0,0,1,.79-.93,2.13,2.13,0,0,1,1.19-.33,2,2,0,0,1,1.43.52,1.9,1.9,0,0,1,.61,1.36h-.57a1.43,1.43,0,0,0-.44-1,1.47,1.47,0,0,0-1-.38,1.46,1.46,0,0,0-1.23.57,2.6,2.6,0,0,0-.43,1.6v.18a2.53,2.53,0,0,0,.43,1.57A1.46,1.46,0,0,0,182.39,210.36Z"/><path class="cls-12" d="M186.53,203.31h.71l-1.13,1.37h-.51Zm-.3,7.44h-.59v-5.28h.59Z"/><path class="cls-12" d="M189.76,210.36a1.57,1.57,0,0,0,1-.35,1.18,1.18,0,0,0,.44-.89h.56a1.53,1.53,0,0,1-.3.88,1.82,1.82,0,0,1-.74.63,2.24,2.24,0,0,1-1,.22,2.06,2.06,0,0,1-1.65-.72,2.94,2.94,0,0,1-.6-1.94V208a3.33,3.33,0,0,1,.27-1.38,2.1,2.1,0,0,1,.78-.93,2.16,2.16,0,0,1,1.2-.33,2,2,0,0,1,1.43.52,1.86,1.86,0,0,1,.6,1.36h-.56a1.43,1.43,0,0,0-.44-1,1.49,1.49,0,0,0-1-.38,1.46,1.46,0,0,0-1.23.57,2.6,2.6,0,0,0-.44,1.6v.18a2.53,2.53,0,0,0,.44,1.57A1.46,1.46,0,0,0,189.76,210.36Z"/><path class="cls-12" d="M193.54,206.36a2.15,2.15,0,0,1,.74-.73,2,2,0,0,1,1-.26,1.59,1.59,0,0,1,1.27.48,2.25,2.25,0,0,1,.42,1.44v3.46h-.59v-3.47a1.57,1.57,0,0,0-.3-1.05,1.16,1.16,0,0,0-.94-.35,1.47,1.47,0,0,0-1,.34,2,2,0,0,0-.62.92v3.61H193v-7.5h.58Z"/><path class="cls-12" d="M204.22,210.75a2.74,2.74,0,0,1-.12-.73,2.09,2.09,0,0,1-.78.62,2.47,2.47,0,0,1-1,.21,1.77,1.77,0,0,1-1.23-.42,1.38,1.38,0,0,1-.47-1.08,1.41,1.41,0,0,1,.64-1.22,3.08,3.08,0,0,1,1.79-.45h1.06v-.6a1.17,1.17,0,0,0-.35-.89,1.42,1.42,0,0,0-1-.32,1.58,1.58,0,0,0-1,.31.92.92,0,0,0-.4.75h-.59a1.38,1.38,0,0,1,.59-1.1,2.3,2.3,0,0,1,1.44-.46,2.07,2.07,0,0,1,1.39.44,1.58,1.58,0,0,1,.53,1.24v2.5a3.09,3.09,0,0,0,.16,1.15v.05Zm-1.84-.42a2,2,0,0,0,1.05-.28,1.7,1.7,0,0,0,.67-.76v-1.16h-1a2.7,2.7,0,0,0-1.36.32,1,1,0,0,0-.5.85.94.94,0,0,0,.33.74A1.23,1.23,0,0,0,202.38,210.33Z"/><path class="cls-12" d="M209.05,210.26h3.44v.49h-4.16v-.43l3.21-4.34h-3.11v-.51h3.84v.44Z"/><path class="cls-12" d="M215.5,210.85a2.26,2.26,0,0,1-2.07-1.26,2.86,2.86,0,0,1-.3-1.33v-.21a3.09,3.09,0,0,1,.3-1.37,2.33,2.33,0,0,1,.82-1,2,2,0,0,1,1.14-.35,1.92,1.92,0,0,1,1.53.66,2.7,2.7,0,0,1,.56,1.79v.33h-3.77v.11a2.24,2.24,0,0,0,.52,1.5,1.62,1.62,0,0,0,1.29.6,2,2,0,0,0,.83-.17,1.86,1.86,0,0,0,.65-.55l.37.28A2.13,2.13,0,0,1,215.5,210.85Zm-.11-5a1.46,1.46,0,0,0-1.11.48,2.31,2.31,0,0,0-.55,1.3h3.17v-.06a1.92,1.92,0,0,0-.43-1.24A1.36,1.36,0,0,0,215.39,205.87Z"/><path class="cls-12" d="M219.15,205.47l0,.86a2,2,0,0,1,.73-.72,2,2,0,0,1,1-.24,1.5,1.5,0,0,1,1.59,1,2,2,0,0,1,.75-.76,2.11,2.11,0,0,1,1.05-.27c1.13,0,1.71.62,1.73,1.86v3.52h-.58v-3.48a1.62,1.62,0,0,0-.31-1.05,1.26,1.26,0,0,0-1-.34,1.54,1.54,0,0,0-1.06.41,1.42,1.42,0,0,0-.48,1v3.49H222v-3.52a1.42,1.42,0,0,0-.32-1,1.24,1.24,0,0,0-1-.34,1.49,1.49,0,0,0-1,.32,1.82,1.82,0,0,0-.58.93v3.62h-.59v-5.28Z"/><path class="cls-12" d="M229.53,210.85a2.26,2.26,0,0,1-2.07-1.26,2.86,2.86,0,0,1-.3-1.33v-.21a3.09,3.09,0,0,1,.3-1.37,2.33,2.33,0,0,1,.82-1,2,2,0,0,1,1.14-.35A1.92,1.92,0,0,1,231,206a2.7,2.7,0,0,1,.56,1.79v.33h-3.77v.11a2.19,2.19,0,0,0,.52,1.5,1.62,1.62,0,0,0,1.29.6,2,2,0,0,0,.83-.17,1.86,1.86,0,0,0,.65-.55l.37.28A2.13,2.13,0,0,1,229.53,210.85Zm-.11-5a1.46,1.46,0,0,0-1.11.48,2.31,2.31,0,0,0-.55,1.3h3.17v-.06a2,2,0,0,0-.43-1.24A1.37,1.37,0,0,0,229.42,205.87Zm.06-1.6.84-1h.52v.06l-1.15,1.28h-.42l-1.15-1.28v-.06h.52Z"/><path class="cls-12" d="M232.41,208.06a3.23,3.23,0,0,1,.55-2,1.8,1.8,0,0,1,1.5-.73,1.84,1.84,0,0,1,1.63.85v-3h.58v7.5h-.55l0-.7a1.88,1.88,0,0,1-1.65.8,1.78,1.78,0,0,1-1.48-.73,3.22,3.22,0,0,1-.56-2Zm.6.11a2.75,2.75,0,0,0,.4,1.59,1.3,1.3,0,0,0,1.14.58,1.58,1.58,0,0,0,1.54-1v-2.48a1.56,1.56,0,0,0-1.53-1,1.3,1.3,0,0,0-1.14.58A2.9,2.9,0,0,0,233,208.17Z"/><path class="cls-12" d="M240.25,210.85a2.33,2.33,0,0,1-1.22-.33,2.23,2.23,0,0,1-.84-.93,2.75,2.75,0,0,1-.31-1.33v-.21a3.09,3.09,0,0,1,.3-1.37,2.41,2.41,0,0,1,.82-1,2,2,0,0,1,1.14-.35,1.91,1.91,0,0,1,1.53.66,2.65,2.65,0,0,1,.56,1.79v.33h-3.77v.11a2.24,2.24,0,0,0,.52,1.5,1.64,1.64,0,0,0,1.3.6,1.94,1.94,0,0,0,.82-.17,2,2,0,0,0,.66-.55l.36.28A2.13,2.13,0,0,1,240.25,210.85Zm-.11-5a1.46,1.46,0,0,0-1.11.48,2.31,2.31,0,0,0-.55,1.3h3.17v-.06a1.92,1.92,0,0,0-.43-1.24A1.36,1.36,0,0,0,240.14,205.87Zm.06-1.6.84-1h.52v.06l-1.15,1.28H240l-1.15-1.28v-.06h.52Z"/><path class="cls-12" d="M244,210.75h-.59v-7.5H244Z"/><path class="cls-12" d="M248.78,209.41a.85.85,0,0,0-.35-.7,2.9,2.9,0,0,0-1.05-.41,4.81,4.81,0,0,1-1.1-.34,1.44,1.44,0,0,1-.57-.47,1.16,1.16,0,0,1-.19-.68,1.25,1.25,0,0,1,.52-1,2.14,2.14,0,0,1,1.34-.41,2.19,2.19,0,0,1,1.42.44,1.38,1.38,0,0,1,.53,1.14h-.58a.93.93,0,0,0-.39-.77,1.51,1.51,0,0,0-1-.31,1.57,1.57,0,0,0-.93.26.78.78,0,0,0-.34.66.72.72,0,0,0,.29.62,3.29,3.29,0,0,0,1.06.4,4.94,4.94,0,0,1,1.15.38,1.64,1.64,0,0,1,.57.49,1.33,1.33,0,0,1,.18.7,1.27,1.27,0,0,1-.54,1.07,2.29,2.29,0,0,1-1.41.4,2.34,2.34,0,0,1-1.49-.45,1.37,1.37,0,0,1-.58-1.13h.59a1,1,0,0,0,.43.8,1.79,1.79,0,0,0,1,.29,1.66,1.66,0,0,0,1-.27A.82.82,0,0,0,248.78,209.41Z"/><path class="cls-12" d="M251.58,204.12v1.35h1.1V206h-1.1v3.52a1.14,1.14,0,0,0,.16.66.64.64,0,0,0,.53.21,3.74,3.74,0,0,0,.48,0l0,.47a2,2,0,0,1-.62.08,1,1,0,0,1-.88-.35,1.65,1.65,0,0,1-.27-1V206h-1v-.48h1v-1.35Z"/><path class="cls-12" d="M255.53,210l1.61-4.48h.6l-2,5.28h-.47l-2-5.28h.6Z"/><path class="cls-12" d="M259.65,203.31h.7l-1.12,1.37h-.52Zm-.31,7.44h-.58v-5.28h.58Z"/><path class="cls-13" d="M120.33,257.84v3h-1.76v-8.53h3.33a3.78,3.78,0,0,1,1.69.35,2.54,2.54,0,0,1,1.12,1,2.78,2.78,0,0,1,.39,1.47,2.45,2.45,0,0,1-.85,2,3.62,3.62,0,0,1-2.38.72Zm0-1.42h1.57a1.53,1.53,0,0,0,1.06-.33,1.18,1.18,0,0,0,.37-.94,1.32,1.32,0,0,0-1.39-1.41h-1.61Z"/><path class="cls-13" d="M129.76,256.1a3.48,3.48,0,0,0-.61-.05,1.25,1.25,0,0,0-1.26.65v4.15H126.2v-6.34h1.6l0,.75a1.57,1.57,0,0,1,1.41-.87,1.84,1.84,0,0,1,.53.08Z"/><path class="cls-13" d="M134.37,260.2a2.1,2.1,0,0,1-1.73.77,2,2,0,0,1-1.56-.59,2.49,2.49,0,0,1-.54-1.72v-4.15h1.69v4.1q0,1,.9,1a1.23,1.23,0,0,0,1.19-.6v-4.49H136v6.34h-1.59ZM132,252.53a1.08,1.08,0,0,1,.38-.85,1.28,1.28,0,0,1,.92-.35,1.35,1.35,0,0,1,.93.34,1.12,1.12,0,0,1,.38.86,1.09,1.09,0,0,1-.37.84,1.37,1.37,0,0,1-.94.34,1.31,1.31,0,0,1-.93-.35A1.09,1.09,0,0,1,132,252.53Zm.67,0a.64.64,0,0,0,.17.44.6.6,0,0,0,.46.18.63.63,0,0,0,.47-.18.64.64,0,0,0,.17-.44.65.65,0,0,0-.18-.46.59.59,0,0,0-.46-.18.62.62,0,0,0-.46.18A.69.69,0,0,0,132.65,252.53Z"/><path class="cls-13" d="M138.88,254.51l.05.71a2.24,2.24,0,0,1,1.83-.83,1.69,1.69,0,0,1,1.68,1,2.16,2.16,0,0,1,1.9-1,1.9,1.9,0,0,1,1.54.6,2.79,2.79,0,0,1,.5,1.81v4.05h-1.7v-4a1.2,1.2,0,0,0-.21-.79.92.92,0,0,0-.74-.25,1.07,1.07,0,0,0-1.06.72v4.36H141v-4a1.24,1.24,0,0,0-.21-.8,1,1,0,0,0-.74-.24,1.09,1.09,0,0,0-1,.6v4.48h-1.7v-6.34Z"/><path class="cls-13" d="M150.05,258.45l1.17-3.94H153l-2.55,7.32-.14.34a2,2,0,0,1-1.88,1.24,2.9,2.9,0,0,1-.75-.11V262H148a1.38,1.38,0,0,0,.72-.15.93.93,0,0,0,.37-.48l.2-.52-2.22-6.36h1.82Z"/><path class="cls-13" d="M157.14,259.1a.54.54,0,0,0-.31-.49,3.25,3.25,0,0,0-1-.32c-1.5-.32-2.26-1-2.26-1.92a1.72,1.72,0,0,1,.7-1.41,2.82,2.82,0,0,1,1.83-.57A3,3,0,0,1,158,255a1.78,1.78,0,0,1,.73,1.48h-1.7a.78.78,0,0,0-.23-.6,1,1,0,0,0-.73-.24,1,1,0,0,0-.67.19.62.62,0,0,0-.23.49.53.53,0,0,0,.27.46,2.88,2.88,0,0,0,.9.3,7.58,7.58,0,0,1,1.06.28,1.75,1.75,0,0,1,1.34,1.71,1.65,1.65,0,0,1-.74,1.4,3.21,3.21,0,0,1-1.92.54,3.4,3.4,0,0,1-1.42-.29,2.43,2.43,0,0,1-1-.78,1.82,1.82,0,0,1-.35-1.07H155a.85.85,0,0,0,.33.69,1.34,1.34,0,0,0,.83.24,1.26,1.26,0,0,0,.74-.18A.58.58,0,0,0,157.14,259.1Z"/><path class="cls-13" d="M161.66,260.85H160v-9h1.7Z"/><path class="cls-13" d="M162.79,257.62a3.64,3.64,0,0,1,.37-1.68,2.62,2.62,0,0,1,1-1.14,3.06,3.06,0,0,1,1.59-.41,2.86,2.86,0,0,1,2.09.79,3.18,3.18,0,0,1,.91,2.13v.43a3.26,3.26,0,0,1-.82,2.34,2.82,2.82,0,0,1-2.18.89,2.85,2.85,0,0,1-2.19-.88,3.37,3.37,0,0,1-.82-2.39Zm1.7.12a2.34,2.34,0,0,0,.34,1.38,1.11,1.11,0,0,0,1,.48,1.13,1.13,0,0,0,1-.47,2.61,2.61,0,0,0,.34-1.51,2.39,2.39,0,0,0-.34-1.38,1.13,1.13,0,0,0-1-.48,1.09,1.09,0,0,0-1,.48A2.6,2.6,0,0,0,164.49,257.74Z"/><path class="cls-13" d="M172.13,258.78l1.17-4.27h1.77l-2.14,6.34h-1.61l-2.14-6.34H171Z"/><path class="cls-13" d="M178.66,261a3.11,3.11,0,0,1-2.27-.86,3,3,0,0,1-.88-2.28v-.16a3.91,3.91,0,0,1,.37-1.71,2.75,2.75,0,0,1,1.05-1.16,2.93,2.93,0,0,1,1.54-.41,2.62,2.62,0,0,1,2.05.82,3.33,3.33,0,0,1,.75,2.33v.69h-4a1.57,1.57,0,0,0,.49,1,1.52,1.52,0,0,0,1.05.38,1.84,1.84,0,0,0,1.53-.71l.83.93a2.52,2.52,0,0,1-1,.84A3.38,3.38,0,0,1,178.66,261Zm-.19-5.21a1.05,1.05,0,0,0-.82.34,1.77,1.77,0,0,0-.4,1h2.35v-.13a1.26,1.26,0,0,0-.3-.88A1.11,1.11,0,0,0,178.47,255.76Zm.15-3.91h1.84l-1.62,1.81h-1.38Z"/><path class="cls-13" d="M190.92,257.74a3.8,3.8,0,0,1-.66,2.34,2.14,2.14,0,0,1-1.8.89,2,2,0,0,1-1.55-.67v3h-1.69v-8.78h1.57l.06.62a2,2,0,0,1,1.6-.74,2.14,2.14,0,0,1,1.82.87,3.86,3.86,0,0,1,.65,2.39Zm-1.69-.13a2.47,2.47,0,0,0-.31-1.36,1,1,0,0,0-.91-.48,1.1,1.1,0,0,0-1.1.61V259a1.13,1.13,0,0,0,1.11.63C188.83,259.6,189.23,258.94,189.23,257.61Z"/><path class="cls-13" d="M195.53,256.1a3.45,3.45,0,0,0-.6-.05,1.23,1.23,0,0,0-1.26.65v4.15H192v-6.34h1.6l.05.75a1.57,1.57,0,0,1,1.41-.87,1.84,1.84,0,0,1,.53.08Z"/><path class="cls-13" d="M195.87,257.62a3.77,3.77,0,0,1,.37-1.68,2.62,2.62,0,0,1,1-1.14,3.08,3.08,0,0,1,1.59-.41,2.86,2.86,0,0,1,2.09.79,3.13,3.13,0,0,1,.91,2.13v.43a3.3,3.3,0,0,1-.81,2.34,3.15,3.15,0,0,1-4.38,0,3.41,3.41,0,0,1-.82-2.39Zm1.7.12a2.34,2.34,0,0,0,.34,1.38,1.11,1.11,0,0,0,1,.48,1.13,1.13,0,0,0,1-.47,2.61,2.61,0,0,0,.35-1.51,2.39,2.39,0,0,0-.35-1.38,1.12,1.12,0,0,0-1-.48,1.09,1.09,0,0,0-1,.48A2.6,2.6,0,0,0,197.57,257.74Z"/><path class="cls-13" d="M205.56,259.6a1.11,1.11,0,0,0,.76-.26.89.89,0,0,0,.31-.68h1.58a2.15,2.15,0,0,1-.35,1.18,2.37,2.37,0,0,1-.94.83,3,3,0,0,1-1.33.3,2.76,2.76,0,0,1-2.15-.87,3.44,3.44,0,0,1-.78-2.39v-.11a3.41,3.41,0,0,1,.78-2.34,2.72,2.72,0,0,1,2.14-.87,2.65,2.65,0,0,1,1.9.68,2.36,2.36,0,0,1,.73,1.8h-1.58a1.13,1.13,0,0,0-.31-.8,1,1,0,0,0-.77-.31,1,1,0,0,0-.9.43,2.49,2.49,0,0,0-.3,1.4v.17a2.5,2.5,0,0,0,.3,1.41A1,1,0,0,0,205.56,259.6Z"/><path class="cls-13" d="M212.1,261a3.11,3.11,0,0,1-2.27-.86,3,3,0,0,1-.88-2.28v-.16a3.91,3.91,0,0,1,.37-1.71,2.75,2.75,0,0,1,1.05-1.16,2.93,2.93,0,0,1,1.54-.41,2.62,2.62,0,0,1,2.05.82,3.33,3.33,0,0,1,.75,2.33v.69h-4a1.57,1.57,0,0,0,.49,1,1.52,1.52,0,0,0,1.05.38,1.84,1.84,0,0,0,1.53-.71l.83.93a2.52,2.52,0,0,1-1,.84A3.38,3.38,0,0,1,212.1,261Zm-.19-5.21a1.05,1.05,0,0,0-.82.34,1.77,1.77,0,0,0-.4,1H213v-.13a1.31,1.31,0,0,0-.3-.88A1.13,1.13,0,0,0,211.91,255.76Z"/><path class="cls-13" d="M219.1,259.1a.54.54,0,0,0-.31-.49,3.27,3.27,0,0,0-1-.32c-1.51-.32-2.27-1-2.27-1.92a1.74,1.74,0,0,1,.7-1.41,2.83,2.83,0,0,1,1.84-.57A3.06,3.06,0,0,1,220,255a1.8,1.8,0,0,1,.72,1.48H219a.78.78,0,0,0-.24-.6,1.24,1.24,0,0,0-1.39-.05.6.6,0,0,0-.24.49.53.53,0,0,0,.27.46,3.08,3.08,0,0,0,.9.3,7.76,7.76,0,0,1,1.07.28,1.76,1.76,0,0,1,1.34,1.71,1.66,1.66,0,0,1-.75,1.4,3.16,3.16,0,0,1-1.92.54,3.32,3.32,0,0,1-1.41-.29,2.3,2.3,0,0,1-1-.78,1.76,1.76,0,0,1-.35-1.07H217a.92.92,0,0,0,.33.69,1.35,1.35,0,0,0,.84.24,1.23,1.23,0,0,0,.73-.18A.56.56,0,0,0,219.1,259.1Z"/><path class="cls-13" d="M224.2,258.45l1.18-3.94h1.81l-2.55,7.32-.14.34a1.94,1.94,0,0,1-1.87,1.24,2.78,2.78,0,0,1-.75-.11V262h.26a1.32,1.32,0,0,0,.71-.15.94.94,0,0,0,.38-.48l.2-.52-2.23-6.36H223Z"/><path class="cls-13" d="M230.93,257.38a9,9,0,0,1,.35-2.56,6.7,6.7,0,0,1,1.06-2.14,3.85,3.85,0,0,1,1.51-1.3l.33.91a4.15,4.15,0,0,0-1.34,2,9,9,0,0,0-.48,3.09v.19a9.13,9.13,0,0,0,.48,3.1,4.11,4.11,0,0,0,1.34,2l-.33.89a3.92,3.92,0,0,1-1.49-1.26,6.52,6.52,0,0,1-1.05-2.09,8.79,8.79,0,0,1-.38-2.47Z"/><path class="cls-13" d="M237.43,258.78l1.18-4.27h1.77l-2.14,6.34h-1.61l-2.14-6.34h1.77Z"/><path class="cls-13" d="M243.49,258.45l1.18-3.94h1.81l-2.55,7.32-.14.34a1.94,1.94,0,0,1-1.87,1.24,2.78,2.78,0,0,1-.75-.11V262h.26a1.34,1.34,0,0,0,.71-.15.88.88,0,0,0,.37-.48l.2-.52-2.22-6.36h1.83Zm.37-6.6h1.85l-1.62,1.81h-1.38Z"/><path class="cls-13" d="M250.71,256.1a3.48,3.48,0,0,0-.61-.05,1.25,1.25,0,0,0-1.26.65v4.15h-1.69v-6.34h1.6l.05.75a1.57,1.57,0,0,1,1.41-.87,1.84,1.84,0,0,1,.53.08Z"/><path class="cls-13" d="M251.05,257.62a3.64,3.64,0,0,1,.37-1.68,2.62,2.62,0,0,1,1-1.14,3.06,3.06,0,0,1,1.59-.41,2.86,2.86,0,0,1,2.09.79,3.18,3.18,0,0,1,.91,2.13v.43a3.26,3.26,0,0,1-.82,2.34,2.82,2.82,0,0,1-2.18.89,2.85,2.85,0,0,1-2.19-.88,3.37,3.37,0,0,1-.82-2.39Zm1.7.12a2.34,2.34,0,0,0,.34,1.38,1.11,1.11,0,0,0,1,.48,1.13,1.13,0,0,0,1-.47,2.61,2.61,0,0,0,.34-1.51,2.39,2.39,0,0,0-.34-1.38,1.13,1.13,0,0,0-1-.48,1.09,1.09,0,0,0-1,.48A2.6,2.6,0,0,0,252.75,257.74Z"/><path class="cls-13" d="M263.81,257.74a3.79,3.79,0,0,1-.65,2.37,2.15,2.15,0,0,1-1.81.86,2,2,0,0,1-1.65-.8l-.08.68H258.1v-9h1.69v3.23a1.94,1.94,0,0,1,1.55-.69,2.17,2.17,0,0,1,1.81.85,3.85,3.85,0,0,1,.66,2.4Zm-1.69-.13a2.55,2.55,0,0,0-.3-1.4,1.05,1.05,0,0,0-.91-.44,1.13,1.13,0,0,0-1.12.66v2.5a1.14,1.14,0,0,0,1.13.67,1,1,0,0,0,1.08-.81A4.29,4.29,0,0,0,262.12,257.61Z"/><path class="cls-13" d="M268.53,260.85a1.93,1.93,0,0,1-.17-.57,2,2,0,0,1-1.6.69,2.24,2.24,0,0,1-1.54-.54,1.75,1.75,0,0,1-.62-1.36,1.79,1.79,0,0,1,.75-1.55,3.74,3.74,0,0,1,2.16-.55h.78v-.36a1,1,0,0,0-.23-.7.86.86,0,0,0-.71-.27,1,1,0,0,0-.67.21.7.7,0,0,0-.24.56h-1.69a1.71,1.71,0,0,1,.34-1,2.2,2.2,0,0,1,1-.73,3.45,3.45,0,0,1,1.39-.27,2.78,2.78,0,0,1,1.86.59,2.05,2.05,0,0,1,.69,1.66v2.74a3.07,3.07,0,0,0,.25,1.37v.1Zm-1.4-1.18a1.47,1.47,0,0,0,.69-.17,1.12,1.12,0,0,0,.47-.44V258h-.63c-.85,0-1.3.29-1.36.87v.1a.69.69,0,0,0,.22.53A.9.9,0,0,0,267.13,259.67Z"/><path class="cls-13" d="M274.21,257.51a8.6,8.6,0,0,1-.38,2.55,6.88,6.88,0,0,1-1.1,2.16,3.78,3.78,0,0,1-1.53,1.29l-.33-.89a4.08,4.08,0,0,0,1.32-1.94,8.9,8.9,0,0,0,.49-3v-.31a9.12,9.12,0,0,0-.47-3.09,4.28,4.28,0,0,0-1.34-2l.33-.9a4.08,4.08,0,0,1,1.51,1.25,6.86,6.86,0,0,1,1.09,2.12,8.39,8.39,0,0,1,.41,2.5Z"/><path class="cls-13" d="M202.11,310.85H201v-7.19l-2.17.8v-1l3.09-1.16h.17Z"/><path class="cls-13" d="M205.34,312.53l-.61-.42a2.85,2.85,0,0,0,.57-1.57v-1h1v.84a2.65,2.65,0,0,1-.28,1.18A2.82,2.82,0,0,1,205.34,312.53Z"/><path class="cls-13" d="M213.08,303l-3.51,7.88h-1.13l3.5-7.6h-4.59v-.89h5.73Z"/><path class="cls-13" d="M218.38,304.54l0,.7a2.34,2.34,0,0,1,1.87-.81,1.8,1.8,0,0,1,1.8,1,2.31,2.31,0,0,1,.82-.73,2.38,2.38,0,0,1,1.19-.28c1.38,0,2.09.73,2.11,2.19v4.23h-1.08v-4.16a1.42,1.42,0,0,0-.31-1,1.32,1.32,0,0,0-1-.34,1.43,1.43,0,0,0-1,.36,1.46,1.46,0,0,0-.46,1v4.19h-1.08v-4.13a1.21,1.21,0,0,0-1.35-1.38,1.44,1.44,0,0,0-1.45.9v4.61h-1.08v-6.31Z"/><path class="cls-13" d="M227.83,302.87a.63.63,0,0,1,.16-.44.62.62,0,0,1,.48-.18.6.6,0,0,1,.47.18.64.64,0,0,1,.17.44.62.62,0,0,1-.17.44.63.63,0,0,1-.47.17.65.65,0,0,1-.48-.17A.61.61,0,0,1,227.83,302.87Zm1.17,8h-1.08v-6.31H229Z"/><path class="cls-13" d="M231.89,310.85h-1.08v-9h1.08Z"/><path class="cls-13" d="M233.62,302.87a.63.63,0,0,1,.16-.44.62.62,0,0,1,.48-.18.6.6,0,0,1,.47.18.64.64,0,0,1,.17.44.62.62,0,0,1-.17.44.63.63,0,0,1-.47.17.65.65,0,0,1-.48-.17A.61.61,0,0,1,233.62,302.87Zm1.17,8h-1.08v-6.31h1.08Z"/><path class="cls-13" d="M236.22,307.64a3.76,3.76,0,0,1,.37-1.67,2.66,2.66,0,0,1,2.49-1.54,2.65,2.65,0,0,1,2.09.89,3.41,3.41,0,0,1,.79,2.37v.07a3.85,3.85,0,0,1-.35,1.66A2.71,2.71,0,0,1,239.1,311a2.66,2.66,0,0,1-2.08-.89,3.41,3.41,0,0,1-.8-2.36Zm1.09.12a2.75,2.75,0,0,0,.48,1.69,1.58,1.58,0,0,0,1.31.63,1.54,1.54,0,0,0,1.3-.64,3,3,0,0,0,.48-1.8,2.64,2.64,0,0,0-.49-1.68,1.57,1.57,0,0,0-1.31-.65,1.52,1.52,0,0,0-1.28.64A2.87,2.87,0,0,0,237.31,307.76Z"/><path class="cls-13" d="M244.33,304.54l0,.79a2.3,2.3,0,0,1,1.88-.9c1.34,0,2,.75,2,2.25v4.17h-1.08v-4.18a1.42,1.42,0,0,0-.31-1,1.23,1.23,0,0,0-.95-.33,1.52,1.52,0,0,0-.92.28,1.91,1.91,0,0,0-.62.73v4.5h-1.08v-6.31Z"/><path class="cls-13" d="M253.79,310.22a2.28,2.28,0,0,1-1.85.74,2,2,0,0,1-1.53-.58,2.53,2.53,0,0,1-.54-1.74v-4.1H251v4.07q0,1.44,1.17,1.44a1.62,1.62,0,0,0,1.64-.92v-4.59h1.08v6.31h-1Zm-.15-7.64a1.13,1.13,0,0,1-.37.85,1.26,1.26,0,0,1-.89.34,1.25,1.25,0,0,1-.89-.35,1.12,1.12,0,0,1-.36-.84,1.18,1.18,0,0,1,.36-.86,1.32,1.32,0,0,1,1.79,0A1.18,1.18,0,0,1,253.64,302.58Zm-1.93,0a.64.64,0,0,0,.19.47.66.66,0,0,0,.48.2.69.69,0,0,0,.48-.19.66.66,0,0,0,.2-.48.7.7,0,0,0-.2-.49.66.66,0,0,0-.48-.2.63.63,0,0,0-.48.21A.65.65,0,0,0,251.71,302.58Z"/><path class="cls-13" d="M260.89,303v1.52h1.17v.84h-1.17v3.91a.92.92,0,0,0,.15.57.7.7,0,0,0,.54.19,3.17,3.17,0,0,0,.51-.07v.87a3.43,3.43,0,0,1-.82.11,1.3,1.3,0,0,1-1.09-.44,1.84,1.84,0,0,1-.37-1.24v-3.9h-1.15v-.84h1.15V303Z"/><path class="cls-13" d="M267.21,310.22a2.26,2.26,0,0,1-1.84.74,2,2,0,0,1-1.54-.58,2.53,2.53,0,0,1-.53-1.74v-4.1h1.08v4.07c0,1,.38,1.44,1.16,1.44a1.62,1.62,0,0,0,1.64-.92v-4.59h1.08v6.31h-1Z"/><path class="cls-13" d="M270.92,304.54l0,.79a2.3,2.3,0,0,1,1.89-.9c1.33,0,2,.75,2,2.25v4.17h-1.08v-4.18a1.47,1.47,0,0,0-.31-1,1.25,1.25,0,0,0-1-.33,1.54,1.54,0,0,0-.92.28,1.89,1.89,0,0,0-.61.73v4.5H269.9v-6.31Z"/><path class="cls-13" d="M285.84,308.15a3.09,3.09,0,0,1-1,2.08,3.25,3.25,0,0,1-2.22.73,3,3,0,0,1-2.41-1.08,4.29,4.29,0,0,1-.91-2.88v-.82a4.81,4.81,0,0,1,.42-2.07,3.19,3.19,0,0,1,1.2-1.38,3.35,3.35,0,0,1,1.79-.48,3.06,3.06,0,0,1,2.17.75,3.13,3.13,0,0,1,.95,2.09h-1.12a2.45,2.45,0,0,0-.63-1.47,1.91,1.91,0,0,0-1.37-.46A2,2,0,0,0,281,304a3.71,3.71,0,0,0-.6,2.26V307a3.78,3.78,0,0,0,.57,2.2,1.88,1.88,0,0,0,1.62.82,2.12,2.12,0,0,0,1.43-.43,2.35,2.35,0,0,0,.66-1.47Z"/><path class="cls-13" d="M293.89,306.88a5.22,5.22,0,0,1-.42,2.17,3.11,3.11,0,0,1-1.19,1.42,3.5,3.5,0,0,1-3.57,0,3.37,3.37,0,0,1-1.2-1.4,5,5,0,0,1-.44-2.12v-.61a5.11,5.11,0,0,1,.43-2.16,3.2,3.2,0,0,1,1.2-1.43,3.16,3.16,0,0,1,1.78-.5,3.23,3.23,0,0,1,1.79.49,3.15,3.15,0,0,1,1.2,1.43,5.22,5.22,0,0,1,.42,2.17Zm-1.11-.55a3.77,3.77,0,0,0-.61-2.32,2.16,2.16,0,0,0-3.36,0,3.71,3.71,0,0,0-.63,2.25v.62a3.83,3.83,0,0,0,.62,2.3,2.16,2.16,0,0,0,3.37,0,3.8,3.8,0,0,0,.61-2.26Z"/><path class="cls-13" d="M298.28,312.82H295v-.57l1.64-1.8a3.69,3.69,0,0,0,.51-.66,1.1,1.1,0,0,0,.15-.53.85.85,0,0,0-.2-.58.69.69,0,0,0-.53-.21.78.78,0,0,0-.62.24,1,1,0,0,0-.22.67h-.83a1.58,1.58,0,0,1,.21-.81,1.36,1.36,0,0,1,.58-.56,1.81,1.81,0,0,1,.88-.2,1.69,1.69,0,0,1,1.14.36,1.24,1.24,0,0,1,.42,1,1.69,1.69,0,0,1-.21.77,4.29,4.29,0,0,1-.69.92l-1.21,1.3h2.3Z"/><path class="cls-13" d="M302,311a2.76,2.76,0,0,1-2.09-.84,3.14,3.14,0,0,1-.8-2.25v-.2a3.76,3.76,0,0,1,.36-1.67,2.77,2.77,0,0,1,1-1.16,2.48,2.48,0,0,1,1.39-.41,2.39,2.39,0,0,1,1.92.81,3.52,3.52,0,0,1,.68,2.31V308h-4.27a2.21,2.21,0,0,0,.54,1.51,1.72,1.72,0,0,0,1.33.57,1.89,1.89,0,0,0,1-.23,2.43,2.43,0,0,0,.7-.62l.66.51A2.65,2.65,0,0,1,302,311Zm-.14-5.65a1.42,1.42,0,0,0-1.09.48,2.26,2.26,0,0,0-.55,1.33h3.16V307a2.08,2.08,0,0,0-.44-1.28A1.38,1.38,0,0,0,301.83,305.31Z"/><path class="cls-13" d="M305.41,307.64a3.73,3.73,0,0,1,.68-2.35,2.42,2.42,0,0,1,3.6-.11l0-.64h1v8.73h-1.07v-3a2.27,2.27,0,0,1-1.74.7,2.15,2.15,0,0,1-1.82-.89,3.77,3.77,0,0,1-.68-2.35Zm1.08.12a2.75,2.75,0,0,0,.46,1.7,1.42,1.42,0,0,0,1.23.62,1.61,1.61,0,0,0,1.47-.85v-3.09a1.64,1.64,0,0,0-1.46-.83,1.48,1.48,0,0,0-1.24.62A3.05,3.05,0,0,0,306.49,307.76Z"/><path class="cls-13" d="M201.29,323.28a2.71,2.71,0,0,1-2.08-.85,3.1,3.1,0,0,1-.81-2.25V320a3.77,3.77,0,0,1,.36-1.68,2.81,2.81,0,0,1,1-1.15,2.52,2.52,0,0,1,1.4-.42,2.37,2.37,0,0,1,1.91.81,3.53,3.53,0,0,1,.68,2.32v.45h-4.27a2.28,2.28,0,0,0,.54,1.5,1.7,1.7,0,0,0,1.33.58,1.86,1.86,0,0,0,1-.24,2.49,2.49,0,0,0,.69-.61l.66.51A2.66,2.66,0,0,1,201.29,323.28Zm-.13-5.65a1.47,1.47,0,0,0-1.1.47,2.42,2.42,0,0,0-.55,1.33h3.16v-.08a2.05,2.05,0,0,0-.44-1.27A1.35,1.35,0,0,0,201.16,317.63Z"/><path class="cls-13" d="M206,316.86l0,.7a2.3,2.3,0,0,1,1.87-.82,1.8,1.8,0,0,1,1.8,1,2.34,2.34,0,0,1,2-1c1.38,0,2.08.73,2.11,2.2v4.22h-1.08V319a1.42,1.42,0,0,0-.31-1,1.38,1.38,0,0,0-1-.33,1.44,1.44,0,0,0-1,.35,1.42,1.42,0,0,0-.46,1v4.18h-1.09V319a1.19,1.19,0,0,0-1.34-1.37,1.44,1.44,0,0,0-1.45.9v4.6H205v-6.3Z"/><path class="cls-13" d="M215.46,315.19a.64.64,0,0,1,.16-.45.58.58,0,0,1,.47-.18.62.62,0,0,1,.48.18.64.64,0,0,1,.16.45.59.59,0,0,1-.16.43.62.62,0,0,1-.48.18.58.58,0,0,1-.47-.18A.59.59,0,0,1,215.46,315.19Zm1.16,8h-1.07v-6.3h1.07Z"/><path class="cls-13" d="M222,321.49a.8.8,0,0,0-.33-.68,3.23,3.23,0,0,0-1.15-.42,4.83,4.83,0,0,1-1.3-.42,1.75,1.75,0,0,1-.71-.58,1.4,1.4,0,0,1-.23-.8,1.62,1.62,0,0,1,.66-1.31,2.52,2.52,0,0,1,1.67-.54,2.68,2.68,0,0,1,1.74.55,1.79,1.79,0,0,1,.67,1.42H222a1,1,0,0,0-.37-.76,1.38,1.38,0,0,0-1-.32,1.48,1.48,0,0,0-.92.25.82.82,0,0,0-.33.67.65.65,0,0,0,.31.59,3.7,3.7,0,0,0,1.11.38,5.57,5.57,0,0,1,1.31.43,2,2,0,0,1,.74.6,1.52,1.52,0,0,1,.24.86,1.61,1.61,0,0,1-.67,1.36,2.84,2.84,0,0,1-1.75.51,3.11,3.11,0,0,1-1.34-.27,2.21,2.21,0,0,1-.92-.75,1.8,1.8,0,0,1-.32-1h1.07a1.12,1.12,0,0,0,.44.86,1.68,1.68,0,0,0,1.07.32,1.8,1.8,0,0,0,1-.25A.79.79,0,0,0,222,321.49Z"/><path class="cls-13" d="M225.68,314.22H227l-1.57,1.71h-.86Zm0,8.94h-1.08v-6.3h1.08Z"/><path class="cls-13" d="M231.41,322.28h3.69v.88h-5v-.79l3.47-4.62h-3.42v-.89h4.78v.76Z"/><path class="cls-13" d="M241.35,321.7l1.56-4.84H244l-2.26,6.3h-.82l-2.29-6.3h1.1Z"/><path class="cls-13" d="M247.11,321.58l1.46-4.72h1.16l-2.54,7.27c-.39,1.05-1,1.58-1.87,1.58l-.2,0-.4-.08v-.87l.29,0a1.41,1.41,0,0,0,.85-.22,1.64,1.64,0,0,0,.51-.81l.23-.64-2.24-6.23h1.17Zm.61-7.37H249l-1.56,1.72h-.87Z"/><path class="cls-13" d="M253.73,317.82a4.24,4.24,0,0,0-.53,0,1.42,1.42,0,0,0-1.43.91v4.47h-1.08v-6.3h1.05v.73a1.69,1.69,0,0,1,1.51-.85,1.1,1.1,0,0,1,.47.08Z"/><path class="cls-13" d="M254.32,320a3.66,3.66,0,0,1,.37-1.67,2.74,2.74,0,0,1,1-1.14,2.83,2.83,0,0,1,1.48-.4,2.66,2.66,0,0,1,2.08.89,3.4,3.4,0,0,1,.8,2.37v.08a3.84,3.84,0,0,1-.35,1.65,2.67,2.67,0,0,1-1,1.14,2.82,2.82,0,0,1-1.51.41,2.66,2.66,0,0,1-2.07-.89,3.42,3.42,0,0,1-.8-2.36Zm1.09.13a2.7,2.7,0,0,0,.48,1.68,1.64,1.64,0,0,0,2.61,0A3,3,0,0,0,259,320a2.68,2.68,0,0,0-.49-1.68,1.65,1.65,0,0,0-2.6,0A3,3,0,0,0,255.41,320.08Z"/><path class="cls-13" d="M266.75,320.08a3.7,3.7,0,0,1-.67,2.32,2.12,2.12,0,0,1-1.78.88,2.19,2.19,0,0,1-1.85-.85l-.05.73h-1v-9h1.08v3.34a2.17,2.17,0,0,1,1.8-.81,2.14,2.14,0,0,1,1.8.87,3.85,3.85,0,0,1,.66,2.38Zm-1.08-.12a2.85,2.85,0,0,0-.43-1.7,1.4,1.4,0,0,0-1.22-.6,1.58,1.58,0,0,0-1.53,1v2.72a1.62,1.62,0,0,0,1.54,1,1.41,1.41,0,0,0,1.21-.6A3.07,3.07,0,0,0,265.67,320Z"/><path class="cls-13" d="M270.1,321.58l1.47-4.72h1.15l-2.53,7.27c-.39,1.05-1,1.58-1.87,1.58l-.2,0-.41-.08v-.87l.3,0a1.43,1.43,0,0,0,.85-.22,1.63,1.63,0,0,0,.5-.81l.24-.64-2.25-6.23h1.18Z"/><path class="cls-13" d="M279.17,322.4a1.54,1.54,0,0,0,1-.35,1.24,1.24,0,0,0,.48-.88h1a2,2,0,0,1-.37,1,2.61,2.61,0,0,1-.92.78,2.7,2.7,0,0,1-1.21.29,2.61,2.61,0,0,1-2.05-.86,3.41,3.41,0,0,1-.76-2.35v-.18a3.73,3.73,0,0,1,.34-1.64,2.45,2.45,0,0,1,1-1.11,2.7,2.7,0,0,1,1.49-.4,2.49,2.49,0,0,1,1.76.64,2.24,2.24,0,0,1,.75,1.64h-1a1.47,1.47,0,0,0-.46-1,1.45,1.45,0,0,0-1-.39,1.48,1.48,0,0,0-1.27.59,2.77,2.77,0,0,0-.45,1.71v.2a2.71,2.71,0,0,0,.45,1.68A1.5,1.5,0,0,0,279.17,322.4Z"/><path class="cls-13" d="M285.5,323.28a2.74,2.74,0,0,1-2.09-.85,3.14,3.14,0,0,1-.8-2.25V320a3.77,3.77,0,0,1,.36-1.68,2.81,2.81,0,0,1,1-1.15,2.49,2.49,0,0,1,1.39-.42,2.35,2.35,0,0,1,1.91.81,3.47,3.47,0,0,1,.69,2.32v.45h-4.27a2.18,2.18,0,0,0,.54,1.5,1.7,1.7,0,0,0,1.33.58,1.8,1.8,0,0,0,1-.24,2.39,2.39,0,0,0,.7-.61l.65.51A2.64,2.64,0,0,1,285.5,323.28Zm-.14-5.65a1.44,1.44,0,0,0-1.09.47,2.29,2.29,0,0,0-.55,1.33h3.16v-.08a2.05,2.05,0,0,0-.44-1.27A1.38,1.38,0,0,0,285.36,317.63Z"/><path class="cls-13" d="M290.22,316.86l0,.7a2.3,2.3,0,0,1,1.86-.82,1.81,1.81,0,0,1,1.81,1,2.31,2.31,0,0,1,.81-.74,2.41,2.41,0,0,1,1.19-.28c1.39,0,2.09.73,2.11,2.2v4.22H297V319a1.47,1.47,0,0,0-.31-1,1.38,1.38,0,0,0-1-.33,1.49,1.49,0,0,0-1,.35,1.51,1.51,0,0,0-.46,1v4.18h-1.08V319a1.2,1.2,0,0,0-1.35-1.37,1.45,1.45,0,0,0-1.45.9v4.6H289.2v-6.3Z"/><path class="cls-13" d="M302.27,323.28a2.71,2.71,0,0,1-2.08-.85,3.1,3.1,0,0,1-.8-2.25V320a3.77,3.77,0,0,1,.35-1.68,2.83,2.83,0,0,1,1-1.15,2.47,2.47,0,0,1,1.39-.42,2.35,2.35,0,0,1,1.91.81,3.47,3.47,0,0,1,.68,2.32v.45h-4.27a2.24,2.24,0,0,0,.55,1.5,1.68,1.68,0,0,0,1.32.58,1.84,1.84,0,0,0,1-.24,2.49,2.49,0,0,0,.69-.61l.66.51A2.66,2.66,0,0,1,302.27,323.28Zm-.13-5.65a1.44,1.44,0,0,0-1.09.47,2.29,2.29,0,0,0-.55,1.33h3.15v-.08a2,2,0,0,0-.44-1.27A1.35,1.35,0,0,0,302.14,317.63Z"/><path class="cls-13" d="M307,316.86l0,.79a2.29,2.29,0,0,1,1.89-.91c1.33,0,2,.75,2,2.26v4.16h-1.08V319a1.52,1.52,0,0,0-.31-1,1.25,1.25,0,0,0-1-.32,1.54,1.54,0,0,0-.92.28,1.82,1.82,0,0,0-.61.73v4.49H306v-6.3Z"/><path class="cls-13" d="M314,315.33v1.53h1.18v.83H314v3.91a.88.88,0,0,0,.16.57.66.66,0,0,0,.54.19,2.41,2.41,0,0,0,.51-.07v.87a3,3,0,0,1-.83.12,1.36,1.36,0,0,1-1.09-.44,1.89,1.89,0,0,1-.36-1.24v-3.91H311.8v-.83H313v-1.53Z"/><path class="cls-13" d="M320.35,322.54a2.31,2.31,0,0,1-1.85.74,2,2,0,0,1-1.53-.59,2.57,2.57,0,0,1-.54-1.73v-4.1h1.08v4.07c0,1,.39,1.43,1.17,1.43a1.6,1.6,0,0,0,1.64-.92v-4.58h1.08v6.3h-1Z"/><path class="cls-14" d="M166.1,108.39a.93.93,0,0,0-.35-.77,4.93,4.93,0,0,0-1.27-.56,9.44,9.44,0,0,1-1.44-.58,2.37,2.37,0,0,1-1.46-2.12,2,2,0,0,1,.39-1.23,2.65,2.65,0,0,1,1.12-.85,4.32,4.32,0,0,1,1.64-.3,3.86,3.86,0,0,1,1.63.33,2.55,2.55,0,0,1,1.11.93,2.51,2.51,0,0,1,.4,1.38h-1.76a1.18,1.18,0,0,0-.37-.92,1.56,1.56,0,0,0-1-.32,1.63,1.63,0,0,0-1,.27.86.86,0,0,0-.36.72.83.83,0,0,0,.42.7,4.91,4.91,0,0,0,1.23.52,5.43,5.43,0,0,1,2.19,1.12,2.23,2.23,0,0,1,.69,1.67,2,2,0,0,1-.84,1.73,3.67,3.67,0,0,1-2.26.63,4.37,4.37,0,0,1-1.79-.36,2.84,2.84,0,0,1-1.23-1,2.51,2.51,0,0,1-.43-1.46h1.76c0,1,.57,1.42,1.69,1.42a1.63,1.63,0,0,0,1-.26A.84.84,0,0,0,166.1,108.39Z"/><path class="cls-14" d="M174.65,107.52a3.82,3.82,0,0,1-.66,2.34,2.15,2.15,0,0,1-1.8.88,2,2,0,0,1-1.55-.66v3h-1.7v-8.77h1.57l.06.62a2,2,0,0,1,1.61-.74A2.14,2.14,0,0,1,174,105a3.92,3.92,0,0,1,.65,2.39Zm-1.69-.13a2.46,2.46,0,0,0-.32-1.36,1,1,0,0,0-.91-.48,1.1,1.1,0,0,0-1.09.61v2.59a1.11,1.11,0,0,0,1.1.63C172.55,109.38,173,108.72,173,107.39Z"/><path class="cls-14" d="M179.37,110.63a2.41,2.41,0,0,1-.17-.57,2,2,0,0,1-1.6.68,2.29,2.29,0,0,1-1.54-.53,1.74,1.74,0,0,1-.61-1.36,1.8,1.8,0,0,1,.74-1.55,3.74,3.74,0,0,1,2.16-.55h.78v-.36a1,1,0,0,0-.22-.7.88.88,0,0,0-.71-.27,1,1,0,0,0-.68.21.7.7,0,0,0-.24.56h-1.69a1.67,1.67,0,0,1,.34-1,2.12,2.12,0,0,1,1-.73,3.45,3.45,0,0,1,1.39-.27,2.78,2.78,0,0,1,1.86.59,2,2,0,0,1,.69,1.65v2.75a3.21,3.21,0,0,0,.25,1.37v.1Zm-1.4-1.18a1.47,1.47,0,0,0,.69-.17,1,1,0,0,0,.47-.45v-1.09h-.63c-.85,0-1.3.3-1.35.88v.1a.69.69,0,0,0,.22.52A.87.87,0,0,0,178,109.45Z"/><path class="cls-14" d="M183.92,110.63h-1.7v-9h1.7Z"/><path class="cls-14" d="M185.05,107.4a3.77,3.77,0,0,1,.36-1.68,2.73,2.73,0,0,1,1.05-1.15,3.15,3.15,0,0,1,1.59-.4,2.86,2.86,0,0,1,2.09.79,3.18,3.18,0,0,1,.91,2.13v.43a3.29,3.29,0,0,1-.82,2.34,2.81,2.81,0,0,1-2.18.88,2.85,2.85,0,0,1-2.19-.87,3.38,3.38,0,0,1-.82-2.4Zm1.69.12a2.42,2.42,0,0,0,.34,1.38,1.23,1.23,0,0,0,1.94,0,2.61,2.61,0,0,0,.34-1.51A2.39,2.39,0,0,0,189,106a1.13,1.13,0,0,0-1-.48,1.12,1.12,0,0,0-1,.48A2.68,2.68,0,0,0,186.74,107.52Z"/><path class="cls-14" d="M194.39,108.56l1.17-4.27h1.77l-2.14,6.34h-1.61l-2.14-6.34h1.77Z"/><path class="cls-14" d="M201.66,110.63a2,2,0,0,1-.17-.57,2,2,0,0,1-1.6.68,2.29,2.29,0,0,1-1.54-.53,1.74,1.74,0,0,1-.61-1.36,1.8,1.8,0,0,1,.74-1.55,3.74,3.74,0,0,1,2.16-.55h.78v-.36a1,1,0,0,0-.22-.7.89.89,0,0,0-.72-.27,1,1,0,0,0-.67.21.7.7,0,0,0-.24.56h-1.69a1.67,1.67,0,0,1,.34-1,2.12,2.12,0,0,1,1-.73,3.45,3.45,0,0,1,1.39-.27,2.78,2.78,0,0,1,1.86.59,2,2,0,0,1,.69,1.65v2.75a3.21,3.21,0,0,0,.25,1.37v.1Zm-1.4-1.18a1.47,1.47,0,0,0,.69-.17,1.08,1.08,0,0,0,.47-.45v-1.09h-.63c-.85,0-1.3.3-1.35.88v.1a.66.66,0,0,0,.22.52A.85.85,0,0,0,200.26,109.45Zm.65-7.82h1.84l-1.62,1.81h-1.38Z"/><path class="cls-14" d="M206,104.29l.05.73a2.22,2.22,0,0,1,1.83-.85,1.86,1.86,0,0,1,1.5.59,2.85,2.85,0,0,1,.5,1.77v4.1h-1.69v-4.06a1.07,1.07,0,0,0-.24-.78,1,1,0,0,0-.78-.24,1.16,1.16,0,0,0-1.07.61v4.47h-1.69v-6.34Z"/><path class="cls-14" d="M213,110.63h-1.69v-6.34H213Zm-.5-8.91h1.85l-1.62,1.81h-1.38Z"/><path class="cls-14" d="M219.79,108.56l1.18-4.27h1.77l-2.14,6.34H219l-2.14-6.34h1.77Z"/><path class="cls-14" d="M232.18,107.52a3.76,3.76,0,0,1-.67,2.34,2.12,2.12,0,0,1-1.79.88,2,2,0,0,1-1.56-.66v3h-1.69v-8.77H228l.06.62a2,2,0,0,1,1.61-.74,2.15,2.15,0,0,1,1.82.87,3.92,3.92,0,0,1,.65,2.39Zm-1.7-.13a2.47,2.47,0,0,0-.31-1.36,1,1,0,0,0-.91-.48,1.11,1.11,0,0,0-1.1.61v2.59a1.13,1.13,0,0,0,1.11.63C230.08,109.38,230.48,108.72,230.48,107.39Z"/><path class="cls-14" d="M236.79,105.88a3.48,3.48,0,0,0-.61,0,1.25,1.25,0,0,0-1.26.65v4.15h-1.69v-6.34h1.6l0,.75a1.57,1.57,0,0,1,1.42-.87,1.77,1.77,0,0,1,.52.08Z"/><path class="cls-14" d="M241.4,110a2.12,2.12,0,0,1-1.73.76,2,2,0,0,1-1.56-.58,2.5,2.5,0,0,1-.55-1.72v-4.15h1.7v4.1q0,1,.9,1a1.22,1.22,0,0,0,1.18-.6v-4.49H243v6.34h-1.59Zm-2.4-7.67a1.12,1.12,0,0,1,.39-.86,1.41,1.41,0,0,1,1.84,0,1.09,1.09,0,0,1,.39.86,1.07,1.07,0,0,1-.38.83,1.46,1.46,0,0,1-1.87,0A1.12,1.12,0,0,1,239,102.31Zm.68,0a.6.6,0,0,0,.17.44.6.6,0,0,0,.46.18.59.59,0,0,0,.46-.18.6.6,0,0,0,.17-.44.64.64,0,0,0-.17-.46.6.6,0,0,0-.46-.18.62.62,0,0,0-.46.18A.69.69,0,0,0,239.68,102.31Z"/><path class="cls-14" d="M245.91,104.29l.05.71a2.24,2.24,0,0,1,1.82-.83,1.68,1.68,0,0,1,1.68,1,2.18,2.18,0,0,1,1.91-1,1.88,1.88,0,0,1,1.53.6,2.73,2.73,0,0,1,.51,1.81v4h-1.7v-4a1.17,1.17,0,0,0-.21-.78.93.93,0,0,0-.75-.25,1,1,0,0,0-1.05.72v4.36H248v-4a1.18,1.18,0,0,0-.22-.8,1,1,0,0,0-.74-.24,1.11,1.11,0,0,0-1,.59v4.49h-1.69v-6.34Z"/><path class="cls-14" d="M257.07,108.23l1.18-3.94h1.81l-2.55,7.32-.14.34a1.94,1.94,0,0,1-1.87,1.24,2.78,2.78,0,0,1-.75-.11v-1.29H255a1.32,1.32,0,0,0,.71-.15.94.94,0,0,0,.38-.48l.2-.53-2.23-6.35h1.83Z"/><path class="cls-14" d="M264.16,108.88a.55.55,0,0,0-.3-.49,3.46,3.46,0,0,0-1-.32c-1.51-.32-2.26-1-2.26-1.93a1.71,1.71,0,0,1,.7-1.4,2.8,2.8,0,0,1,1.83-.57,3,3,0,0,1,1.93.57,1.8,1.8,0,0,1,.72,1.48H264.1a.85.85,0,0,0-.23-.61,1,1,0,0,0-.74-.23,1,1,0,0,0-.66.19.59.59,0,0,0-.23.49.54.54,0,0,0,.26.46,3.08,3.08,0,0,0,.9.3,6.55,6.55,0,0,1,1.07.28,1.76,1.76,0,0,1,1.34,1.71,1.67,1.67,0,0,1-.74,1.4,3.21,3.21,0,0,1-1.93.53,3.32,3.32,0,0,1-1.41-.28,2.37,2.37,0,0,1-1-.78,1.85,1.85,0,0,1-.35-1.07H262a.89.89,0,0,0,.34.69,1.3,1.3,0,0,0,.83.24,1.28,1.28,0,0,0,.74-.18A.58.58,0,0,0,264.16,108.88Z"/><path class="cls-14" d="M268.69,110.63H267v-9h1.7Z"/><path class="cls-14" d="M273.88,110a2.13,2.13,0,0,1-1.74.76,2,2,0,0,1-1.55-.58,2.5,2.5,0,0,1-.55-1.72v-4.15h1.69v4.1c0,.66.31,1,.91,1a1.22,1.22,0,0,0,1.18-.6v-4.49h1.7v6.34h-1.59Z"/><path class="cls-14" d="M107.05,149.89H106V142.7l-2.17.8v-1l3.09-1.16h.17Z"/><path class="cls-14" d="M110.28,151.57l-.61-.42a2.85,2.85,0,0,0,.57-1.57v-1h1.05v.84a2.54,2.54,0,0,1-.29,1.18A2.67,2.67,0,0,1,110.28,151.57Z"/><path class="cls-14" d="M118,142l-3.51,7.88h-1.13l3.5-7.6h-4.59v-.89H118Z"/><path class="cls-14" d="M125.32,146.09h-5.84v-.88h5.84Z"/><path class="cls-14" d="M130.61,149.89h-1.08V142.7l-2.17.8v-1l3.08-1.16h.17Z"/><path class="cls-14" d="M133.85,151.57l-.62-.42a2.79,2.79,0,0,0,.58-1.57v-1h1.05v.84a2.93,2.93,0,0,1-1,2.12Z"/><path class="cls-14" d="M140.24,146.16a2.49,2.49,0,0,1-.8.64,2.15,2.15,0,0,1-1,.25,2.26,2.26,0,0,1-1.28-.36,2.3,2.3,0,0,1-.84-1,3.45,3.45,0,0,1-.3-1.45,3.64,3.64,0,0,1,.32-1.53,2.4,2.4,0,0,1,.92-1,2.64,2.64,0,0,1,1.39-.36,2.35,2.35,0,0,1,2,.94,4.1,4.1,0,0,1,.73,2.56v.32a5.48,5.48,0,0,1-1,3.61,3.78,3.78,0,0,1-3,1.17h-.21V149h.23a3,3,0,0,0,2.05-.7A3,3,0,0,0,140.24,146.16Zm-1.66,0a1.67,1.67,0,0,0,1-.33,2,2,0,0,0,.67-.83v-.43a2.94,2.94,0,0,0-.46-1.72,1.4,1.4,0,0,0-2.31-.12,2.23,2.23,0,0,0-.43,1.44,2.35,2.35,0,0,0,.42,1.43A1.32,1.32,0,0,0,138.58,146.16Z"/><path class="cls-14" d="M146.89,143.58l0,.7a2.32,2.32,0,0,1,1.87-.81,1.8,1.8,0,0,1,1.8,1,2.31,2.31,0,0,1,.82-.73,2.35,2.35,0,0,1,1.19-.28c1.38,0,2.08.73,2.11,2.19v4.23h-1.08v-4.16a1.42,1.42,0,0,0-.31-1,1.34,1.34,0,0,0-1-.34,1.4,1.4,0,0,0-1.45,1.32v4.19h-1.09v-4.13a1.2,1.2,0,0,0-1.34-1.38,1.44,1.44,0,0,0-1.45.9v4.61h-1.08v-6.31Z"/><path class="cls-14" d="M156.34,141.91a.63.63,0,0,1,.16-.44.58.58,0,0,1,.47-.18.62.62,0,0,1,.48.18.63.63,0,0,1,.16.44.61.61,0,0,1-.16.44.65.65,0,0,1-.48.17.57.57,0,0,1-.63-.61Zm1.16,8h-1.07v-6.31h1.07Z"/><path class="cls-14" d="M160.4,149.89h-1.08v-8.95h1.08Z"/><path class="cls-14" d="M162.13,141.91a.63.63,0,0,1,.16-.44.58.58,0,0,1,.47-.18.62.62,0,0,1,.48.18.63.63,0,0,1,.16.44.61.61,0,0,1-.16.44.65.65,0,0,1-.48.17.57.57,0,0,1-.63-.61Zm1.16,8h-1.08v-6.31h1.08Z"/><path class="cls-14" d="M164.73,146.68a3.63,3.63,0,0,1,.37-1.67,2.66,2.66,0,0,1,2.49-1.54,2.63,2.63,0,0,1,2.08.89,3.42,3.42,0,0,1,.8,2.37v.07a3.85,3.85,0,0,1-.35,1.66,2.7,2.7,0,0,1-1,1.13,2.74,2.74,0,0,1-1.51.41,2.66,2.66,0,0,1-2.07-.89,3.41,3.41,0,0,1-.8-2.36Zm1.08.12a2.76,2.76,0,0,0,.49,1.69,1.66,1.66,0,0,0,2.61,0,3,3,0,0,0,.48-1.8,2.64,2.64,0,0,0-.49-1.68,1.58,1.58,0,0,0-1.31-.65,1.55,1.55,0,0,0-1.29.64A2.93,2.93,0,0,0,165.81,146.8Z"/><path class="cls-14" d="M172.84,143.58l0,.79a2.32,2.32,0,0,1,1.89-.9c1.33,0,2,.75,2,2.25v4.17H175.7v-4.18a1.42,1.42,0,0,0-.31-1,1.25,1.25,0,0,0-1-.33,1.56,1.56,0,0,0-.92.28,2,2,0,0,0-.61.73v4.5h-1.08v-6.31Z"/><path class="cls-14" d="M182.29,149.26a2.26,2.26,0,0,1-1.84.74,2,2,0,0,1-1.54-.58,2.53,2.53,0,0,1-.53-1.74v-4.1h1.08v4.07c0,1,.38,1.44,1.16,1.44a1.62,1.62,0,0,0,1.64-.92v-4.59h1.08v6.31h-1Zm-.15-7.64a1.13,1.13,0,0,1-.36.85,1.28,1.28,0,0,1-.89.34,1.25,1.25,0,0,1-.9-.35,1.15,1.15,0,0,1-.35-.84,1.21,1.21,0,0,1,.35-.86,1.25,1.25,0,0,1,.9-.35,1.23,1.23,0,0,1,.89.35A1.18,1.18,0,0,1,182.14,141.62Zm-1.93,0a.68.68,0,0,0,.68.67.71.71,0,0,0,.48-.19.65.65,0,0,0,.19-.48.69.69,0,0,0-.19-.49.66.66,0,0,0-.48-.2.6.6,0,0,0-.48.21A.66.66,0,0,0,180.21,141.62Z"/><path class="cls-14" d="M189.39,142.06v1.52h1.18v.84h-1.18v3.91a.92.92,0,0,0,.16.57.7.7,0,0,0,.54.19,3.32,3.32,0,0,0,.51-.07v.87a3.44,3.44,0,0,1-.83.11,1.33,1.33,0,0,1-1.09-.44,1.89,1.89,0,0,1-.36-1.24v-3.9h-1.15v-.84h1.15v-1.52Z"/><path class="cls-14" d="M195.72,149.26a2.28,2.28,0,0,1-1.85.74,2,2,0,0,1-1.53-.58,2.58,2.58,0,0,1-.54-1.74v-4.1h1.08v4.07q0,1.44,1.17,1.44a1.62,1.62,0,0,0,1.64-.92v-4.59h1.08v6.31h-1Z"/><path class="cls-14" d="M199.42,143.58l0,.79a2.3,2.3,0,0,1,1.89-.9q2,0,2,2.25v4.17h-1.08v-4.18a1.38,1.38,0,0,0-.31-1,1.23,1.23,0,0,0-.95-.33,1.52,1.52,0,0,0-.92.28,2,2,0,0,0-.62.73v4.5H198.4v-6.31Z"/><path class="cls-14" d="M214.35,147.19a3.14,3.14,0,0,1-1,2.08,3.21,3.21,0,0,1-2.22.73,3,3,0,0,1-2.41-1.08,4.34,4.34,0,0,1-.9-2.88v-.82a4.81,4.81,0,0,1,.42-2.07,3.12,3.12,0,0,1,1.2-1.38,3.3,3.3,0,0,1,1.79-.48,3.1,3.1,0,0,1,2.17.75,3.17,3.17,0,0,1,.95,2.09h-1.13a2.34,2.34,0,0,0-.63-1.47,1.88,1.88,0,0,0-1.36-.46,2,2,0,0,0-1.68.79,3.7,3.7,0,0,0-.61,2.26v.82a3.77,3.77,0,0,0,.58,2.2,1.87,1.87,0,0,0,1.61.82,2.11,2.11,0,0,0,1.43-.43,2.3,2.3,0,0,0,.66-1.47Z"/><path class="cls-14" d="M222.4,145.92a5.22,5.22,0,0,1-.42,2.17,3.17,3.17,0,0,1-1.19,1.42,3.27,3.27,0,0,1-4.77-1.4,5,5,0,0,1-.44-2.12v-.61a5.27,5.27,0,0,1,.42-2.16,3.29,3.29,0,0,1,1.21-1.43,3.13,3.13,0,0,1,1.77-.5,3.28,3.28,0,0,1,1.8.49,3.15,3.15,0,0,1,1.2,1.43,5.25,5.25,0,0,1,.42,2.17Zm-1.11-.55a3.79,3.79,0,0,0-.61-2.31,2,2,0,0,0-1.7-.81,2,2,0,0,0-1.66.81,3.66,3.66,0,0,0-.63,2.24v.62a3.83,3.83,0,0,0,.61,2.3,2,2,0,0,0,1.7.83,2,2,0,0,0,1.67-.79,3.8,3.8,0,0,0,.62-2.26Z"/><path class="cls-14" d="M226.79,151.86h-3.33v-.57l1.65-1.8a4.24,4.24,0,0,0,.51-.66,1.1,1.1,0,0,0,.15-.53.85.85,0,0,0-.2-.58.7.7,0,0,0-.54-.21.81.81,0,0,0-.62.24,1,1,0,0,0-.22.67h-.82a1.57,1.57,0,0,1,.2-.81,1.39,1.39,0,0,1,.59-.56,1.79,1.79,0,0,1,.88-.2,1.69,1.69,0,0,1,1.14.36,1.27,1.27,0,0,1,.41,1,1.69,1.69,0,0,1-.21.77,4.2,4.2,0,0,1-.68.92l-1.21,1.3h2.3Z"/><path class="cls-14" d="M230.47,150a2.76,2.76,0,0,1-2.08-.84,3.1,3.1,0,0,1-.8-2.25v-.2a3.9,3.9,0,0,1,.35-1.67,2.79,2.79,0,0,1,1-1.16,2.48,2.48,0,0,1,1.39-.41,2.35,2.35,0,0,1,1.91.81,3.46,3.46,0,0,1,.68,2.31V147h-4.27a2.26,2.26,0,0,0,.55,1.51,1.72,1.72,0,0,0,1.32.57,1.93,1.93,0,0,0,1-.23,2.39,2.39,0,0,0,.69-.62l.66.51A2.63,2.63,0,0,1,230.47,150Zm-.13-5.65a1.42,1.42,0,0,0-1.09.48,2.26,2.26,0,0,0-.55,1.33h3.16v-.08a2.09,2.09,0,0,0-.45-1.28A1.35,1.35,0,0,0,230.34,144.35Z"/><path class="cls-14" d="M233.92,146.68a3.67,3.67,0,0,1,.68-2.35,2.41,2.41,0,0,1,3.59-.11l.05-.64h1v8.73h-1.08v-3a2.23,2.23,0,0,1-1.73.7,2.15,2.15,0,0,1-1.82-.89,3.71,3.71,0,0,1-.68-2.35Zm1.08.12a2.82,2.82,0,0,0,.45,1.7,1.45,1.45,0,0,0,1.23.62,1.6,1.6,0,0,0,1.47-.85v-3.09a1.61,1.61,0,0,0-1.45-.83,1.46,1.46,0,0,0-1.24.62A3.05,3.05,0,0,0,235,146.8Z"/><path class="cls-14" d="M119.22,164.32a2.74,2.74,0,0,1-2.09-.85,3.14,3.14,0,0,1-.8-2.25V161a3.77,3.77,0,0,1,.36-1.68,2.81,2.81,0,0,1,1-1.15,2.49,2.49,0,0,1,1.39-.42,2.35,2.35,0,0,1,1.91.81,3.47,3.47,0,0,1,.69,2.32v.45h-4.27a2.18,2.18,0,0,0,.54,1.5,1.7,1.7,0,0,0,1.33.58,1.8,1.8,0,0,0,1-.24,2.39,2.39,0,0,0,.7-.61l.65.51A2.64,2.64,0,0,1,119.22,164.32Zm-.14-5.65a1.44,1.44,0,0,0-1.09.47,2.29,2.29,0,0,0-.55,1.33h3.16v-.08a2.05,2.05,0,0,0-.44-1.27A1.38,1.38,0,0,0,119.08,158.67Z"/><path class="cls-14" d="M123.94,157.9l0,.7a2.3,2.3,0,0,1,1.86-.82,1.81,1.81,0,0,1,1.81,1,2.31,2.31,0,0,1,.81-.74,2.41,2.41,0,0,1,1.19-.28c1.39,0,2.09.73,2.11,2.2v4.22h-1.07V160a1.47,1.47,0,0,0-.31-1,1.4,1.4,0,0,0-1-.33,1.49,1.49,0,0,0-1,.35,1.51,1.51,0,0,0-.46,1v4.18h-1.08v-4.13a1.2,1.2,0,0,0-1.35-1.37,1.45,1.45,0,0,0-1.45.9v4.6h-1.07v-6.3Z"/><path class="cls-14" d="M133.38,156.23a.69.69,0,0,1,.16-.45.73.73,0,0,1,1,0,.64.64,0,0,1,.16.45.59.59,0,0,1-.16.43.73.73,0,0,1-1,0A.63.63,0,0,1,133.38,156.23Zm1.17,8h-1.08v-6.3h1.08Z"/><path class="cls-14" d="M139.94,162.53a.8.8,0,0,0-.33-.68,3.25,3.25,0,0,0-1.14-.42,4.83,4.83,0,0,1-1.3-.42,1.75,1.75,0,0,1-.71-.58,1.32,1.32,0,0,1-.23-.8,1.61,1.61,0,0,1,.65-1.31,2.57,2.57,0,0,1,1.68-.54,2.7,2.7,0,0,1,1.74.55,1.78,1.78,0,0,1,.66,1.42h-1.08a1,1,0,0,0-.38-.76,1.36,1.36,0,0,0-.94-.32,1.46,1.46,0,0,0-.92.25.8.8,0,0,0-.34.67.67.67,0,0,0,.31.59,3.91,3.91,0,0,0,1.12.38A5.74,5.74,0,0,1,140,161a2,2,0,0,1,.74.6,1.52,1.52,0,0,1,.24.86,1.59,1.59,0,0,1-.68,1.36,2.82,2.82,0,0,1-1.75.51,3.18,3.18,0,0,1-1.34-.27,2.18,2.18,0,0,1-.91-.75,1.81,1.81,0,0,1-.33-1h1.08a1.11,1.11,0,0,0,.43.86,1.7,1.7,0,0,0,1.07.32,1.75,1.75,0,0,0,1-.25A.76.76,0,0,0,139.94,162.53Z"/><path class="cls-14" d="M143.61,155.26h1.3L143.35,157h-.87Zm0,8.94h-1.09v-6.3h1.09Z"/><path class="cls-14" d="M149.34,163.32H153v.88h-5v-.79l3.48-4.62h-3.43v-.89h4.78v.76Z"/><path class="cls-14" d="M159.27,162.74l1.56-4.84h1.1l-2.26,6.3h-.82l-2.28-6.3h1.1Z"/><path class="cls-14" d="M165,162.62l1.47-4.72h1.15l-2.53,7.27c-.39,1.05-1,1.58-1.87,1.58l-.2,0-.41-.08v-.87l.29,0a1.44,1.44,0,0,0,.86-.22,1.63,1.63,0,0,0,.5-.81l.24-.64-2.25-6.23h1.18Zm.61-7.37H167L165.39,157h-.87Z"/><path class="cls-14" d="M171.66,158.86a4.24,4.24,0,0,0-.53,0,1.42,1.42,0,0,0-1.44.91v4.47h-1.08v-6.3h1l0,.73a1.66,1.66,0,0,1,1.5-.85,1.19,1.19,0,0,1,.48.08Z"/><path class="cls-14" d="M172.25,161a3.79,3.79,0,0,1,.36-1.67,2.69,2.69,0,0,1,1-1.14,2.8,2.8,0,0,1,1.48-.4,2.66,2.66,0,0,1,2.08.89A3.45,3.45,0,0,1,178,161v.08a3.7,3.7,0,0,1-.36,1.65,2.65,2.65,0,0,1-1,1.14,2.82,2.82,0,0,1-1.51.41,2.68,2.68,0,0,1-2.08-.89,3.42,3.42,0,0,1-.79-2.36Zm1.08.13a2.64,2.64,0,0,0,.49,1.68,1.54,1.54,0,0,0,1.3.64,1.57,1.57,0,0,0,1.31-.65,3,3,0,0,0,.48-1.8,2.75,2.75,0,0,0-.49-1.68,1.65,1.65,0,0,0-2.6,0A2.9,2.9,0,0,0,173.33,161.12Z"/><path class="cls-14" d="M184.67,161.12a3.76,3.76,0,0,1-.66,2.32,2.14,2.14,0,0,1-1.78.88,2.18,2.18,0,0,1-1.85-.85l0,.73h-1v-8.95h1.08v3.34a2.17,2.17,0,0,1,1.8-.81,2.14,2.14,0,0,1,1.8.87,3.91,3.91,0,0,1,.65,2.38ZM183.6,161a2.92,2.92,0,0,0-.43-1.7,1.4,1.4,0,0,0-1.22-.6,1.58,1.58,0,0,0-1.53,1v2.72a1.62,1.62,0,0,0,1.54,1,1.39,1.39,0,0,0,1.2-.6A3.06,3.06,0,0,0,183.6,161Z"/><path class="cls-14" d="M188,162.62l1.47-4.72h1.15l-2.53,7.27c-.4,1.05-1,1.58-1.87,1.58l-.21,0-.4-.08v-.87l.29,0a1.39,1.39,0,0,0,.85-.22,1.57,1.57,0,0,0,.51-.81l.24-.64-2.25-6.23h1.18Z"/><path class="cls-14" d="M197.09,163.44a1.57,1.57,0,0,0,1-.35,1.24,1.24,0,0,0,.48-.88h1a2,2,0,0,1-.38,1,2.57,2.57,0,0,1-.91.78,2.74,2.74,0,0,1-1.22.29,2.61,2.61,0,0,1-2.05-.86,3.46,3.46,0,0,1-.76-2.35v-.18a3.87,3.87,0,0,1,.34-1.64,2.57,2.57,0,0,1,1-1.11,2.71,2.71,0,0,1,1.5-.4,2.51,2.51,0,0,1,1.76.64,2.24,2.24,0,0,1,.75,1.64h-1a1.48,1.48,0,0,0-.47-1,1.43,1.43,0,0,0-1-.39,1.5,1.5,0,0,0-1.28.59,2.77,2.77,0,0,0-.45,1.71v.2a2.71,2.71,0,0,0,.45,1.68A1.53,1.53,0,0,0,197.09,163.44Z"/><path class="cls-14" d="M203.42,164.32a2.71,2.71,0,0,1-2.08-.85,3.1,3.1,0,0,1-.81-2.25V161a3.77,3.77,0,0,1,.36-1.68,2.88,2.88,0,0,1,1-1.15,2.52,2.52,0,0,1,1.4-.42,2.35,2.35,0,0,1,1.91.81,3.53,3.53,0,0,1,.68,2.32v.45h-4.27a2.24,2.24,0,0,0,.55,1.5,1.68,1.68,0,0,0,1.32.58,1.86,1.86,0,0,0,1-.24,2.49,2.49,0,0,0,.69-.61l.66.51A2.66,2.66,0,0,1,203.42,164.32Zm-.13-5.65a1.47,1.47,0,0,0-1.1.47,2.35,2.35,0,0,0-.54,1.33h3.15v-.08a2,2,0,0,0-.44-1.27A1.35,1.35,0,0,0,203.29,158.67Z"/><path class="cls-14" d="M208.14,157.9l0,.7a2.32,2.32,0,0,1,1.87-.82,1.8,1.8,0,0,1,1.8,1,2.34,2.34,0,0,1,.82-.74,2.38,2.38,0,0,1,1.19-.28c1.38,0,2.09.73,2.11,2.2v4.22h-1.08V160a1.42,1.42,0,0,0-.31-1,1.35,1.35,0,0,0-1-.33,1.38,1.38,0,0,0-1.46,1.32v4.18H211v-4.13a1.2,1.2,0,0,0-1.35-1.37,1.44,1.44,0,0,0-1.45.9v4.6h-1.08v-6.3Z"/><path class="cls-14" d="M220.2,164.32a2.75,2.75,0,0,1-2.09-.85,3.14,3.14,0,0,1-.8-2.25V161a3.77,3.77,0,0,1,.36-1.68,2.81,2.81,0,0,1,1-1.15,2.5,2.5,0,0,1,1.4-.42,2.37,2.37,0,0,1,1.91.81,3.53,3.53,0,0,1,.68,2.32v.45h-4.27a2.23,2.23,0,0,0,.54,1.5,1.7,1.7,0,0,0,1.33.58,1.8,1.8,0,0,0,1-.24,2.39,2.39,0,0,0,.7-.61l.66.51A2.66,2.66,0,0,1,220.2,164.32Zm-.13-5.65a1.47,1.47,0,0,0-1.1.47,2.35,2.35,0,0,0-.55,1.33h3.16v-.08a2.05,2.05,0,0,0-.44-1.27A1.36,1.36,0,0,0,220.07,158.67Z"/><path class="cls-14" d="M224.92,157.9l0,.79a2.29,2.29,0,0,1,1.89-.91c1.33,0,2,.75,2,2.26v4.16h-1.08V160a1.42,1.42,0,0,0-.31-1,1.27,1.27,0,0,0-.95-.32,1.52,1.52,0,0,0-.92.28,1.92,1.92,0,0,0-.62.73v4.49H223.9v-6.3Z"/><path class="cls-14" d="M232,156.37v1.53h1.18v.83H232v3.91a.83.83,0,0,0,.16.57.63.63,0,0,0,.53.19,2.26,2.26,0,0,0,.51-.07v.87a3,3,0,0,1-.82.12,1.34,1.34,0,0,1-1.09-.44,1.84,1.84,0,0,1-.37-1.24v-3.91h-1.15v-.83h1.15v-1.53Z"/><path class="cls-14" d="M238.27,163.58a2.29,2.29,0,0,1-1.84.74,2,2,0,0,1-1.54-.59,2.52,2.52,0,0,1-.53-1.73v-4.1h1.08V162c0,1,.39,1.43,1.16,1.43a1.62,1.62,0,0,0,1.65-.92V157.9h1.07v6.3h-1Z"/><path class="cls-12" d="M254.28,41.1a4.19,4.19,0,0,1-.34,1.72A2.54,2.54,0,0,1,253,44a2.65,2.65,0,0,1-1.46.4,2.5,2.5,0,0,1-2-.89,3.55,3.55,0,0,1-.77-2.4v-.73a4.11,4.11,0,0,1,.35-1.73,2.68,2.68,0,0,1,1-1.15,2.83,2.83,0,0,1,2.9,0,2.57,2.57,0,0,1,1,1.11,4,4,0,0,1,.36,1.68Zm-.6-.77a3.15,3.15,0,0,0-.59-2,2.1,2.1,0,0,0-3.17,0,3.16,3.16,0,0,0-.59,2v.74a3.13,3.13,0,0,0,.59,2,2.09,2.09,0,0,0,3.18,0,3.21,3.21,0,0,0,.58-2Z"/><path class="cls-12" d="M255.42,41.58a3.15,3.15,0,0,1,.55-2,1.75,1.75,0,0,1,1.49-.73,1.84,1.84,0,0,1,1.63.84v-3h.58v7.5h-.55l0-.71a1.86,1.86,0,0,1-1.65.8,1.75,1.75,0,0,1-1.47-.73,3.16,3.16,0,0,1-.56-2Zm.59.1a2.75,2.75,0,0,0,.4,1.59,1.33,1.33,0,0,0,1.15.59,1.56,1.56,0,0,0,1.53-1V40.42a1.57,1.57,0,0,0-1.52-1,1.34,1.34,0,0,0-1.15.58A3,3,0,0,0,256,41.68Z"/><path class="cls-12" d="M265.46,41.68a3.21,3.21,0,0,1-.55,2,1.73,1.73,0,0,1-1.46.72,1.93,1.93,0,0,1-1.66-.76v2.7h-.59V39h.55l0,.75a1.87,1.87,0,0,1,1.65-.84,1.78,1.78,0,0,1,1.49.71,3.28,3.28,0,0,1,.54,2Zm-.59-.1a2.76,2.76,0,0,0-.41-1.6,1.36,1.36,0,0,0-1.16-.59,1.61,1.61,0,0,0-.92.26,1.64,1.64,0,0,0-.59.75v2.54a1.56,1.56,0,0,0,.6.69,1.7,1.7,0,0,0,.92.24,1.32,1.32,0,0,0,1.15-.59A3,3,0,0,0,264.87,41.58Z"/><path class="cls-12" d="M270.09,44.27a2.9,2.9,0,0,1-.12-.74,2,2,0,0,1-.78.62,2.47,2.47,0,0,1-1,.21,1.77,1.77,0,0,1-1.23-.42,1.39,1.39,0,0,1-.47-1.07,1.42,1.42,0,0,1,.64-1.23,3.16,3.16,0,0,1,1.79-.44H270v-.6a1.19,1.19,0,0,0-.35-.9,1.47,1.47,0,0,0-1-.32,1.58,1.58,0,0,0-1,.31.92.92,0,0,0-.4.75h-.59a1.37,1.37,0,0,1,.59-1.09,2.24,2.24,0,0,1,1.44-.46,2,2,0,0,1,1.39.44,1.54,1.54,0,0,1,.53,1.23v2.5a3.09,3.09,0,0,0,.16,1.15v.06Zm-1.84-.42a2,2,0,0,0,1.05-.29,1.68,1.68,0,0,0,.67-.75V41.64h-1.05a2.7,2.7,0,0,0-1.36.32,1,1,0,0,0-.5.86.93.93,0,0,0,.33.73A1.23,1.23,0,0,0,268.25,43.85Z"/><path class="cls-12" d="M271.87,41.58a3.21,3.21,0,0,1,.55-2,1.77,1.77,0,0,1,1.49-.73,1.85,1.85,0,0,1,1.64.84v-3h.58v7.5h-.55l0-.71a1.86,1.86,0,0,1-1.65.8,1.76,1.76,0,0,1-1.47-.73,3.22,3.22,0,0,1-.56-2Zm.59.1a2.75,2.75,0,0,0,.41,1.59,1.31,1.31,0,0,0,1.14.59,1.59,1.59,0,0,0,1.54-1V40.42a1.59,1.59,0,0,0-1.53-1,1.36,1.36,0,0,0-1.15.58A3,3,0,0,0,272.46,41.68Z"/><path class="cls-12" d="M277.34,41.55a3,3,0,0,1,.3-1.37,2.14,2.14,0,0,1,.83-1,2.23,2.23,0,0,1,1.23-.34,2.13,2.13,0,0,1,1.7.74,2.82,2.82,0,0,1,.66,2v.12a3.11,3.11,0,0,1-.3,1.38,2.12,2.12,0,0,1-.83.94,2.3,2.3,0,0,1-1.22.33,2.16,2.16,0,0,1-1.71-.74,2.82,2.82,0,0,1-.66-2Zm.59.16a2.36,2.36,0,0,0,.49,1.55,1.66,1.66,0,0,0,2.57,0,2.5,2.5,0,0,0,.49-1.6v-.11a2.65,2.65,0,0,0-.23-1.11,1.76,1.76,0,0,0-.63-.78,1.64,1.64,0,0,0-.92-.28,1.58,1.58,0,0,0-1.28.62,2.46,2.46,0,0,0-.49,1.6Z"/><path class="cls-12" d="M284.84,43.46l1.6-4.48h.6l-2,5.29h-.47l-2-5.29h.6Z"/><path class="cls-12" d="M290,44.36a2.27,2.27,0,0,1-1.21-.33,2.22,2.22,0,0,1-.85-.92,2.92,2.92,0,0,1-.3-1.33v-.21a3.1,3.1,0,0,1,.29-1.38,2.38,2.38,0,0,1,.82-.95,2,2,0,0,1,1.15-.35,1.88,1.88,0,0,1,1.52.65,2.66,2.66,0,0,1,.57,1.8v.32H288.2v.12a2.21,2.21,0,0,0,.51,1.49,1.64,1.64,0,0,0,1.3.6,2,2,0,0,0,.83-.17,1.93,1.93,0,0,0,.65-.55l.36.28A2.13,2.13,0,0,1,290,44.36Zm-.1-5a1.47,1.47,0,0,0-1.11.49,2.13,2.13,0,0,0-.55,1.3h3.17V41.1a2,2,0,0,0-.44-1.24A1.34,1.34,0,0,0,289.88,39.38Zm.65-2.61h.7l-1.12,1.36h-.52Z"/><path class="cls-12" d="M296.12,39.88a2.07,2.07,0,0,1,.73-.74,2,2,0,0,1,1-.25,1.61,1.61,0,0,1,1.26.47,2.13,2.13,0,0,1,.42,1.44v3.47h-.58V40.8a1.58,1.58,0,0,0-.3-1.06,1.19,1.19,0,0,0-.95-.35,1.52,1.52,0,0,0-1,.34,2,2,0,0,0-.61.92v3.62h-.58v-7.5h.58Z"/><path class="cls-12" d="M300.7,41.55a3,3,0,0,1,.3-1.37,2.14,2.14,0,0,1,.83-1,2.22,2.22,0,0,1,1.22-.34,2.14,2.14,0,0,1,1.71.74,2.82,2.82,0,0,1,.66,2v.12a3.11,3.11,0,0,1-.3,1.38,2.12,2.12,0,0,1-.83.94,2.31,2.31,0,0,1-1.23.33,2.14,2.14,0,0,1-1.7-.74,2.82,2.82,0,0,1-.66-2Zm.59.16a2.36,2.36,0,0,0,.49,1.55,1.55,1.55,0,0,0,1.28.61,1.57,1.57,0,0,0,1.29-.61,2.5,2.5,0,0,0,.49-1.6v-.11a2.65,2.65,0,0,0-.23-1.11,1.76,1.76,0,0,0-.63-.78,1.65,1.65,0,0,0-.93-.28,1.56,1.56,0,0,0-1.27.62,2.46,2.46,0,0,0-.49,1.6Z"/><path class="cls-12" d="M309.79,42.92a.82.82,0,0,0-.35-.69,2.6,2.6,0,0,0-1.05-.42,4.55,4.55,0,0,1-1.09-.34,1.46,1.46,0,0,1-.58-.47,1.15,1.15,0,0,1-.19-.67,1.3,1.3,0,0,1,.52-1,2.13,2.13,0,0,1,1.34-.4,2.19,2.19,0,0,1,1.42.43,1.39,1.39,0,0,1,.54,1.14h-.59a1,1,0,0,0-.39-.77,1.55,1.55,0,0,0-1-.31,1.52,1.52,0,0,0-.92.26.77.77,0,0,0-.35.67.71.71,0,0,0,.29.61,3.07,3.07,0,0,0,1.06.4,5.46,5.46,0,0,1,1.15.38,1.48,1.48,0,0,1,.57.5,1.37,1.37,0,0,1-.35,1.76,2.31,2.31,0,0,1-1.41.4,2.35,2.35,0,0,1-1.5-.44,1.39,1.39,0,0,1-.57-1.13h.58a1,1,0,0,0,.43.8,1.8,1.8,0,0,0,1.06.28,1.65,1.65,0,0,0,1-.27A.81.81,0,0,0,309.79,42.92Z"/><path class="cls-12" d="M315.94,41.68a3.21,3.21,0,0,1-.55,2,1.75,1.75,0,0,1-1.47.72,2,2,0,0,1-1.66-.76v2.7h-.58V39h.54l0,.75a1.9,1.9,0,0,1,1.66-.84,1.78,1.78,0,0,1,1.49.71,3.28,3.28,0,0,1,.54,2Zm-.59-.1a2.69,2.69,0,0,0-.42-1.6,1.33,1.33,0,0,0-1.15-.59,1.66,1.66,0,0,0-.93.26,1.78,1.78,0,0,0-.59.75v2.54a1.56,1.56,0,0,0,.6.69,1.76,1.76,0,0,0,.93.24,1.32,1.32,0,0,0,1.15-.59A3,3,0,0,0,315.35,41.58Z"/><path class="cls-12" d="M316.91,41.55a3.17,3.17,0,0,1,.29-1.37,2.23,2.23,0,0,1,.84-1,2.2,2.2,0,0,1,1.22-.34,2.16,2.16,0,0,1,1.71.74,2.81,2.81,0,0,1,.65,2v.12a3.1,3.1,0,0,1-.29,1.38,2.24,2.24,0,0,1-.83.94,2.31,2.31,0,0,1-1.23.33,2.16,2.16,0,0,1-1.71-.74,2.86,2.86,0,0,1-.65-2Zm.58.16a2.42,2.42,0,0,0,.49,1.55,1.57,1.57,0,0,0,1.29.61,1.54,1.54,0,0,0,1.28-.61,2.45,2.45,0,0,0,.49-1.6v-.11a2.65,2.65,0,0,0-.22-1.11,1.76,1.76,0,0,0-.63-.78,1.65,1.65,0,0,0-.93-.28A1.56,1.56,0,0,0,318,40a2.47,2.47,0,0,0-.5,1.6Z"/><path class="cls-12" d="M322.6,41.58a3.21,3.21,0,0,1,.54-2,1.78,1.78,0,0,1,1.5-.73,1.85,1.85,0,0,1,1.63.84v-3h.58v7.5h-.55l0-.71a1.88,1.88,0,0,1-1.65.8,1.78,1.78,0,0,1-1.48-.73,3.22,3.22,0,0,1-.55-2Zm.59.1a2.75,2.75,0,0,0,.4,1.59,1.31,1.31,0,0,0,1.14.59,1.58,1.58,0,0,0,1.54-1V40.42a1.57,1.57,0,0,0-1.53-1,1.33,1.33,0,0,0-1.14.58A2.92,2.92,0,0,0,323.19,41.68Z"/><path class="cls-12" d="M331.72,44.27a3,3,0,0,1-.11-.74,2.15,2.15,0,0,1-.78.62,2.5,2.5,0,0,1-1,.21,1.81,1.81,0,0,1-1.24-.42,1.39,1.39,0,0,1-.47-1.07,1.43,1.43,0,0,1,.65-1.23,3.13,3.13,0,0,1,1.79-.44h1.05v-.6a1.18,1.18,0,0,0-.34-.9,1.5,1.5,0,0,0-1-.32,1.56,1.56,0,0,0-1,.31.92.92,0,0,0-.4.75h-.59a1.37,1.37,0,0,1,.59-1.09,2.24,2.24,0,0,1,1.44-.46,2,2,0,0,1,1.39.44,1.57,1.57,0,0,1,.53,1.23v2.5a3.09,3.09,0,0,0,.16,1.15v.06Zm-1.83-.42a1.91,1.91,0,0,0,1-.29,1.57,1.57,0,0,0,.67-.75V41.64h-1a2.74,2.74,0,0,0-1.37.32,1,1,0,0,0-.49.86.93.93,0,0,0,.33.73A1.22,1.22,0,0,0,329.89,43.85ZM331,36.77h.71l-1.13,1.36h-.51Z"/><path class="cls-12" d="M335,37.78l.84-.94h.53v0l-1.16,1.28h-.42l-1.15-1.28v0h.52Zm1.2,1.7a2.38,2.38,0,0,0-.39,0,1.48,1.48,0,0,0-.93.3,1.73,1.73,0,0,0-.54.89v3.63h-.58V39h.57v.84a1.56,1.56,0,0,1,1.49-.93,1,1,0,0,1,.39.06Z"/><path class="cls-12" d="M340.27,42.92a.79.79,0,0,0-.35-.69,2.6,2.6,0,0,0-1.05-.42,4.71,4.71,0,0,1-1.09-.34,1.46,1.46,0,0,1-.58-.47,1.23,1.23,0,0,1-.19-.67,1.28,1.28,0,0,1,.53-1,2.12,2.12,0,0,1,1.34-.4,2.16,2.16,0,0,1,1.41.43,1.39,1.39,0,0,1,.54,1.14h-.59a1,1,0,0,0-.39-.77,1.73,1.73,0,0,0-1.9,0,.8.8,0,0,0-.35.67.74.74,0,0,0,.29.61,3.25,3.25,0,0,0,1.06.4,5.26,5.26,0,0,1,1.15.38,1.41,1.41,0,0,1,.57.5,1.19,1.19,0,0,1,.19.69,1.25,1.25,0,0,1-.54,1.07,2.29,2.29,0,0,1-1.41.4,2.37,2.37,0,0,1-1.5-.44,1.39,1.39,0,0,1-.57-1.13h.59a1,1,0,0,0,.43.8,1.74,1.74,0,0,0,1.05.28,1.68,1.68,0,0,0,1-.27A.8.8,0,0,0,340.27,42.92Z"/><path class="cls-12" d="M343.08,37.63V39h1.09v.48h-1.09V43a1.06,1.06,0,0,0,.16.65.59.59,0,0,0,.53.22,4.18,4.18,0,0,0,.47,0l0,.47a1.86,1.86,0,0,1-.63.08,1,1,0,0,1-.87-.35,1.57,1.57,0,0,1-.28-1V39.46h-1V39h1V37.63Z"/><path class="cls-12" d="M347,43.46,348.64,39h.6l-2,5.29h-.47l-2-5.29h.6Z"/><path class="cls-12" d="M351.14,36.83h.71l-1.13,1.36h-.51Zm-.3,7.44h-.59V39h.59Z"/><path class="cls-12" d="M374.12,29.2h.6v5a2.23,2.23,0,0,1-.58,1.62,2.09,2.09,0,0,1-1.57.6,2.19,2.19,0,0,1-1.59-.55,2,2,0,0,1-.55-1.51h.6a1.54,1.54,0,0,0,.4,1.16,1.58,1.58,0,0,0,1.14.39,1.45,1.45,0,0,0,1.11-.45,1.73,1.73,0,0,0,.44-1.22Z"/><path class="cls-12" d="M376.31,29.5a.41.41,0,0,1,.11-.28.36.36,0,0,1,.29-.11.4.4,0,0,1,.3.11.41.41,0,0,1,0,.56.44.44,0,0,1-.3.11.4.4,0,0,1-.29-.11A.41.41,0,0,1,376.31,29.5Zm.69,6.81h-.59V31H377Z"/><path class="cls-12" d="M379.14,31l0,.91a2.13,2.13,0,0,1,.74-.75,2,2,0,0,1,1-.25,1.59,1.59,0,0,1,1.26.48,2.09,2.09,0,0,1,.42,1.43v3.47H382V32.84a1.58,1.58,0,0,0-.3-1.06,1.19,1.19,0,0,0-.95-.35,1.52,1.52,0,0,0-1,.34,2.07,2.07,0,0,0-.61.92v3.62h-.58V31Z"/><path class="cls-12" d="M386.12,36.41a2.31,2.31,0,0,1-2.06-1.26,2.92,2.92,0,0,1-.3-1.33v-.21a3,3,0,0,1,.29-1.37,2.34,2.34,0,0,1,.82-1,2,2,0,0,1,1.15-.35,1.91,1.91,0,0,1,1.52.65,2.66,2.66,0,0,1,.57,1.8v.33h-3.77v.11a2.19,2.19,0,0,0,.51,1.49,1.65,1.65,0,0,0,1.3.6,1.84,1.84,0,0,0,.83-.17,1.74,1.74,0,0,0,.65-.55l.36.28A2.12,2.12,0,0,1,386.12,36.41Zm-.1-5a1.46,1.46,0,0,0-1.11.48,2.13,2.13,0,0,0-.55,1.3h3.17v-.07a2,2,0,0,0-.44-1.24A1.33,1.33,0,0,0,386,31.43Zm.65-2.62h.7l-1.12,1.37h-.52Z"/><path class="cls-12" d="M257.77,68.6h4.39v.51H257v-.46l4.22-6.15h-4.09V62H262v.42Z"/><path class="cls-12" d="M265.29,69.2a2.3,2.3,0,0,1-1.22-.33,2.36,2.36,0,0,1-.85-.92,2.92,2.92,0,0,1-.3-1.33v-.21a3.11,3.11,0,0,1,.3-1.38,2.4,2.4,0,0,1,.82-1,2,2,0,0,1,1.14-.35,1.92,1.92,0,0,1,1.53.66,2.71,2.71,0,0,1,.56,1.8v.32H263.5v.12a2.23,2.23,0,0,0,.52,1.49,1.62,1.62,0,0,0,1.29.6,2,2,0,0,0,.83-.17,1.76,1.76,0,0,0,.65-.55l.37.28A2.13,2.13,0,0,1,265.29,69.2Zm-.11-5a1.44,1.44,0,0,0-1.11.49,2.25,2.25,0,0,0-.55,1.3h3.17v-.07a1.92,1.92,0,0,0-.43-1.24A1.36,1.36,0,0,0,265.18,64.22Z"/><path class="cls-12" d="M268.94,63.82l0,.86a2,2,0,0,1,.73-.72,2.15,2.15,0,0,1,1-.24,1.5,1.5,0,0,1,1.59,1A2,2,0,0,1,273,64a2.11,2.11,0,0,1,1.05-.27c1.13,0,1.71.62,1.73,1.86v3.53h-.58V65.62a1.62,1.62,0,0,0-.31-1.05,1.26,1.26,0,0,0-1-.34,1.59,1.59,0,0,0-1.06.41,1.44,1.44,0,0,0-.48,1v3.5h-.59V65.58a1.42,1.42,0,0,0-.32-1,1.24,1.24,0,0,0-1-.34,1.49,1.49,0,0,0-.95.32,1.82,1.82,0,0,0-.58.93v3.63h-.59V63.82Z"/><path class="cls-12" d="M279.32,69.2a2.3,2.3,0,0,1-1.22-.33,2.36,2.36,0,0,1-.85-.92,2.92,2.92,0,0,1-.3-1.33v-.21a3.11,3.11,0,0,1,.3-1.38,2.4,2.4,0,0,1,.82-1,2,2,0,0,1,1.14-.35,1.92,1.92,0,0,1,1.53.66,2.71,2.71,0,0,1,.56,1.8v.32h-3.77v.12a2.18,2.18,0,0,0,.52,1.49,1.62,1.62,0,0,0,1.29.6,2,2,0,0,0,.83-.17,1.76,1.76,0,0,0,.65-.55l.37.28A2.13,2.13,0,0,1,279.32,69.2Zm-.11-5a1.44,1.44,0,0,0-1.11.49,2.25,2.25,0,0,0-.55,1.3h3.17v-.07a2,2,0,0,0-.43-1.24A1.37,1.37,0,0,0,279.21,64.22Zm.06-1.6.84-.95h.52v.06L279.48,63h-.42l-1.15-1.28v-.06h.52Z"/><path class="cls-12" d="M282.2,66.42a3.21,3.21,0,0,1,.55-2,1.79,1.79,0,0,1,1.5-.74,1.86,1.86,0,0,1,1.63.85v-3h.58v7.5h-.55l0-.71a1.88,1.88,0,0,1-1.65.8,1.78,1.78,0,0,1-1.48-.73,3.22,3.22,0,0,1-.56-2Zm.6.1a2.75,2.75,0,0,0,.4,1.59,1.31,1.31,0,0,0,1.14.59,1.59,1.59,0,0,0,1.54-1V65.26a1.58,1.58,0,0,0-1.53-1,1.33,1.33,0,0,0-1.14.58A2.92,2.92,0,0,0,282.8,66.52Z"/><path class="cls-12" d="M290,69.2a2.33,2.33,0,0,1-1.22-.33A2.27,2.27,0,0,1,288,68a2.8,2.8,0,0,1-.31-1.33v-.21A3.11,3.11,0,0,1,288,65a2.48,2.48,0,0,1,.82-1,2,2,0,0,1,1.14-.35,1.91,1.91,0,0,1,1.53.66,2.66,2.66,0,0,1,.56,1.8v.32h-3.77v.12a2.23,2.23,0,0,0,.52,1.49,1.64,1.64,0,0,0,1.3.6,1.94,1.94,0,0,0,.82-.17,1.87,1.87,0,0,0,.66-.55l.36.28A2.13,2.13,0,0,1,290,69.2Zm-.11-5a1.44,1.44,0,0,0-1.11.49,2.25,2.25,0,0,0-.55,1.3h3.17v-.07A1.92,1.92,0,0,0,291,64.7,1.36,1.36,0,0,0,289.93,64.22Zm.06-1.6.84-.95h.52v.06L290.2,63h-.42l-1.15-1.28v-.06h.52Z"/><path class="cls-12" d="M293.82,69.11h-.59v-7.5h.59Z"/><path class="cls-12" d="M298.57,67.76a.85.85,0,0,0-.35-.7,2.9,2.9,0,0,0-1.05-.41,4.81,4.81,0,0,1-1.1-.34,1.44,1.44,0,0,1-.57-.47,1.15,1.15,0,0,1-.19-.67,1.26,1.26,0,0,1,.52-1,2.14,2.14,0,0,1,1.34-.41,2.19,2.19,0,0,1,1.42.44,1.38,1.38,0,0,1,.53,1.14h-.58a1,1,0,0,0-.39-.77,1.75,1.75,0,0,0-1.91,0,.79.79,0,0,0-.34.67.71.71,0,0,0,.29.61,3.07,3.07,0,0,0,1.06.4,5.46,5.46,0,0,1,1.15.38,1.56,1.56,0,0,1,.57.5,1.27,1.27,0,0,1,.18.69,1.25,1.25,0,0,1-.54,1.07,2.29,2.29,0,0,1-1.41.4,2.34,2.34,0,0,1-1.49-.44,1.4,1.4,0,0,1-.58-1.13h.59a1,1,0,0,0,.43.79,1.72,1.72,0,0,0,1.05.29,1.66,1.66,0,0,0,1-.27A.81.81,0,0,0,298.57,67.76Z"/><path class="cls-12" d="M301.37,62.47v1.35h1.1v.48h-1.1v3.53a1.13,1.13,0,0,0,.16.65.64.64,0,0,0,.53.22,4.3,4.3,0,0,0,.48,0l0,.47a1.76,1.76,0,0,1-.62.08,1,1,0,0,1-.88-.35,1.63,1.63,0,0,1-.27-1V64.3h-1v-.48h1V62.47Z"/><path class="cls-12" d="M305.32,68.3l1.61-4.48h.6l-2,5.29h-.47l-2-5.29h.6Z"/><path class="cls-12" d="M309.44,61.66h.7L309,63h-.52Zm-.31,7.45h-.58V63.82h.58Z"/><path class="cls-13" d="M365,241.08l-25,56.09q5.47,2.5,11.22,4.48l19.6-58.29Q367.79,242.36,365,241.08Z"/><path class="cls-13" d="M365,241.08l-25,56.09q5.47,2.5,11.22,4.48l19.6-58.29Q367.79,242.36,365,241.08Z"/><path class="cls-14" d="M331,165.66l-59.82-16.85q-1.49,5.26-2.51,10.7l61.15,11.24C330.17,169,330.58,167.34,331,165.66Z"/><path class="cls-14" d="M331,165.66l-59.82-16.85q-1.49,5.26-2.51,10.7l61.15,11.24C330.17,169,330.58,167.34,331,165.66Z"/><circle class="cls-15" cx="391.96" cy="182.77" r="64.07"/><path class="cls-16" d="M377.56,169.77H366.82v-2.13l5.07-5.4a12.41,12.41,0,0,0,1.54-2,3.2,3.2,0,0,0,.5-1.61,2.39,2.39,0,0,0-.52-1.64,1.92,1.92,0,0,0-1.51-.6,2,2,0,0,0-1.66.73,2.84,2.84,0,0,0-.61,1.91h-3.12a5.2,5.2,0,0,1,.68-2.62,4.87,4.87,0,0,1,1.94-1.85,5.82,5.82,0,0,1,2.82-.67,5.51,5.51,0,0,1,3.76,1.16,4.12,4.12,0,0,1,1.34,3.28,5.26,5.26,0,0,1-.6,2.36,12.86,12.86,0,0,1-2.07,2.81l-3.56,3.75h6.74Z"/><path class="cls-16" d="M380.39,173.69l-1.62-.85.39-.69a5.57,5.57,0,0,0,.74-2.62v-2.41h2.62v2.15a5.4,5.4,0,0,1-.6,2.41A6.07,6.07,0,0,1,380.39,173.69Z"/><path class="cls-16" d="M395.48,155.85l-6.05,13.92h-3.28l6.06-13.15h-7.78v-2.51h11.05Z"/><path class="cls-16" d="M402.91,157.12a3.08,3.08,0,0,1,.94-2.34,3.37,3.37,0,0,1,2.45-.89,3.43,3.43,0,0,1,2.47.88,3.15,3.15,0,0,1,.94,2.41V158a3,3,0,0,1-.94,2.33,3.42,3.42,0,0,1-2.45.89,3.46,3.46,0,0,1-2.47-.89,3.15,3.15,0,0,1-.94-2.39ZM405,158a1.44,1.44,0,0,0,.37,1,1.28,1.28,0,0,0,1,.39,1.22,1.22,0,0,0,1-.4,1.51,1.51,0,0,0,.35-1.06v-.8a1.47,1.47,0,0,0-.35-1,1.23,1.23,0,0,0-1-.4,1.27,1.27,0,0,0-1,.39,1.58,1.58,0,0,0-.36,1.1Zm2,10.65-1.52-.82,7.64-12.24,1.52.82Zm3.46-2.67a3,3,0,0,1,1-2.34,3.42,3.42,0,0,1,2.45-.89,3.48,3.48,0,0,1,2.46.88,3.13,3.13,0,0,1,.95,2.41v.78a3.07,3.07,0,0,1-.93,2.33,3.42,3.42,0,0,1-2.46.88,3.46,3.46,0,0,1-2.49-.89,3.11,3.11,0,0,1-.93-2.36Zm2.06.84a1.44,1.44,0,0,0,.39,1,1.26,1.26,0,0,0,1,.42c.87,0,1.31-.48,1.31-1.45v-.82a1.44,1.44,0,0,0-.37-1,1.39,1.39,0,0,0-1.93,0,1.53,1.53,0,0,0-.37,1.07Z"/><path class="cls-16" d="M350.57,181A4.82,4.82,0,0,0,350,181a1.25,1.25,0,0,0-1.26.65v4.15H347v-6.34h1.6l.05.75a1.57,1.57,0,0,1,1.41-.87,1.84,1.84,0,0,1,.53.08Z"/><path class="cls-16" d="M350.91,182.54a3.64,3.64,0,0,1,.37-1.68,2.67,2.67,0,0,1,1-1.14,3.08,3.08,0,0,1,1.59-.41,2.86,2.86,0,0,1,2.09.79,3.13,3.13,0,0,1,.91,2.13v.43a3.26,3.26,0,0,1-.82,2.34,2.82,2.82,0,0,1-2.18.89,2.88,2.88,0,0,1-2.19-.88,3.41,3.41,0,0,1-.82-2.39Zm1.7.12A2.34,2.34,0,0,0,353,184a1.11,1.11,0,0,0,1,.48,1.13,1.13,0,0,0,1-.47,2.61,2.61,0,0,0,.35-1.51,2.39,2.39,0,0,0-.35-1.38,1.12,1.12,0,0,0-1-.48,1.09,1.09,0,0,0-1,.48A2.6,2.6,0,0,0,352.61,182.66Z"/><path class="cls-16" d="M360.6,184.52a1.11,1.11,0,0,0,.76-.26.89.89,0,0,0,.31-.68h1.58a2.15,2.15,0,0,1-.35,1.18,2.3,2.3,0,0,1-.94.83,3,3,0,0,1-1.33.3,2.76,2.76,0,0,1-2.15-.87,3.42,3.42,0,0,1-.78-2.39v-.11a3.41,3.41,0,0,1,.78-2.34,2.72,2.72,0,0,1,2.14-.87,2.65,2.65,0,0,1,1.9.68,2.36,2.36,0,0,1,.73,1.8h-1.58a1.13,1.13,0,0,0-.31-.8,1,1,0,0,0-.77-.31,1,1,0,0,0-.9.43,2.51,2.51,0,0,0-.3,1.4v.17a2.5,2.5,0,0,0,.3,1.41A1,1,0,0,0,360.6,184.52Zm-.16-6.92.86-.84h1.44v.07L361,178.47H359.9l-1.77-1.65v-.06h1.45Z"/><path class="cls-16" d="M365.78,179.43l.05.73a2.23,2.23,0,0,1,1.82-.85,1.83,1.83,0,0,1,1.5.59,2.79,2.79,0,0,1,.51,1.77v4.1H368v-4.06a.86.86,0,0,0-1-1,1.15,1.15,0,0,0-1.07.61v4.47h-1.7v-6.34Z"/><path class="cls-16" d="M372.77,185.77h-1.69v-6.34h1.69Zm-.5-8.91h1.85l-1.63,1.81h-1.37Z"/><path class="cls-16" d="M376.86,184.52a1.14,1.14,0,0,0,.77-.26.92.92,0,0,0,.3-.68h1.59a2.23,2.23,0,0,1-.35,1.18,2.33,2.33,0,0,1-.95.83,2.92,2.92,0,0,1-1.33.3,2.74,2.74,0,0,1-2.14-.87,3.43,3.43,0,0,1-.79-2.39v-.11a3.41,3.41,0,0,1,.78-2.34,2.74,2.74,0,0,1,2.14-.87,2.67,2.67,0,0,1,1.91.68,2.39,2.39,0,0,1,.73,1.8h-1.59a1.17,1.17,0,0,0-.3-.8,1,1,0,0,0-.78-.31,1,1,0,0,0-.89.43,2.51,2.51,0,0,0-.3,1.4v.17a2.5,2.5,0,0,0,.3,1.41A1,1,0,0,0,376.86,184.52Z"/><path class="cls-16" d="M382.14,180.12a2.11,2.11,0,0,1,1.69-.81c1.38,0,2.07.8,2.09,2.4v4.06h-1.69v-4A1.21,1.21,0,0,0,384,181a1,1,0,0,0-.78-.26,1.15,1.15,0,0,0-1.08.57v4.51h-1.7v-9h1.7Z"/><path class="cls-16" d="M393.11,185.89a3.11,3.11,0,0,1-2.27-.86,3,3,0,0,1-.88-2.28v-.16a3.77,3.77,0,0,1,.37-1.71,2.69,2.69,0,0,1,1.05-1.16,2.93,2.93,0,0,1,1.54-.41,2.66,2.66,0,0,1,2.05.82,3.33,3.33,0,0,1,.74,2.33v.69h-4a1.59,1.59,0,0,0,.49,1,1.51,1.51,0,0,0,1.05.37,1.84,1.84,0,0,0,1.53-.71l.83.93a2.52,2.52,0,0,1-1,.84A3.3,3.3,0,0,1,393.11,185.89Zm-.2-5.21a1,1,0,0,0-.81.34,1.77,1.77,0,0,0-.41,1h2.36v-.14a1.27,1.27,0,0,0-.3-.87A1.1,1.1,0,0,0,392.91,180.68Z"/><path class="cls-16" d="M398.26,179.43l.06.71a2.21,2.21,0,0,1,1.82-.83,1.69,1.69,0,0,1,1.68,1,2.16,2.16,0,0,1,1.9-1,1.9,1.9,0,0,1,1.54.6,2.75,2.75,0,0,1,.5,1.81v4.05h-1.7v-4a1.2,1.2,0,0,0-.21-.79.92.92,0,0,0-.74-.25,1.06,1.06,0,0,0-1.06.73v4.35h-1.69v-4a1.23,1.23,0,0,0-.22-.8,1,1,0,0,0-.74-.24,1.09,1.09,0,0,0-1,.6v4.48h-1.69v-6.34Z"/><path class="cls-16" d="M407.05,177.79a.84.84,0,0,1,.26-.63,1.11,1.11,0,0,1,1.38,0,.84.84,0,0,1,.26.63.83.83,0,0,1-.26.63.93.93,0,0,1-.69.25,1,1,0,0,1-.69-.25A.83.83,0,0,1,407.05,177.79Zm1.8,8h-1.7v-6.34h1.7Z"/><path class="cls-16" d="M413.68,184a.54.54,0,0,0-.31-.49,3.25,3.25,0,0,0-1-.32c-1.5-.32-2.26-1-2.26-1.92a1.74,1.74,0,0,1,.7-1.41,2.82,2.82,0,0,1,1.83-.57,3,3,0,0,1,1.93.57,1.78,1.78,0,0,1,.73,1.48h-1.7a.78.78,0,0,0-.23-.6,1.24,1.24,0,0,0-1.39,0,.62.62,0,0,0-.24.49.53.53,0,0,0,.27.46,3.08,3.08,0,0,0,.9.3,7.58,7.58,0,0,1,1.06.28,1.76,1.76,0,0,1,1.35,1.71,1.66,1.66,0,0,1-.75,1.4,3.19,3.19,0,0,1-1.92.54,3.4,3.4,0,0,1-1.42-.29,2.43,2.43,0,0,1-1-.78,1.82,1.82,0,0,1-.35-1.07h1.61a.88.88,0,0,0,.33.69,1.34,1.34,0,0,0,.83.24,1.26,1.26,0,0,0,.74-.18A.56.56,0,0,0,413.68,184Z"/><path class="cls-16" d="M418.24,185.77h-1.69v-6.34h1.69Zm-.49-8.91h1.84L418,178.67h-1.38Z"/><path class="cls-16" d="M429.5,182.93a3,3,0,0,1-1,2.17,3.59,3.59,0,0,1-2.41.79,3.22,3.22,0,0,1-2.59-1.11,4.56,4.56,0,0,1-.94-3v-.52a5.09,5.09,0,0,1,.44-2.17,3.25,3.25,0,0,1,1.24-1.44,3.88,3.88,0,0,1,4.25.29,3.24,3.24,0,0,1,1,2.22h-1.76a1.75,1.75,0,0,0-.46-1.2,1.72,1.72,0,0,0-1.2-.37,1.5,1.5,0,0,0-1.32.63,3.49,3.49,0,0,0-.44,2v.64a3.86,3.86,0,0,0,.41,2,1.46,1.46,0,0,0,1.33.64,1.72,1.72,0,0,0,1.21-.37,1.67,1.67,0,0,0,.46-1.15Zm-3.43-7.19.86-.84h1.44V175l-1.77,1.65h-1.07L423.76,175v0h1.45Z"/><path class="cls-16" d="M433.81,182.65h-1.4v3.12h-1.76v-8.53h3.17a3.6,3.6,0,0,1,2.34.67,2.36,2.36,0,0,1,.82,1.91,2.63,2.63,0,0,1-.38,1.45,2.58,2.58,0,0,1-1.15.93l1.85,3.49v.08h-1.89Zm-1.4-1.43h1.42a1.46,1.46,0,0,0,1-.33,1.2,1.2,0,0,0,.37-.93,1.31,1.31,0,0,0-.34-1,1.44,1.44,0,0,0-1.06-.35h-1.41Z"/><path class="cls-16" d="M353.45,194.61a3.79,3.79,0,0,1-.66,2.33,2.11,2.11,0,0,1-1.78.87,2,2,0,0,1-1.55-.66v3h-1.68V191.4h1.56l.06.61a2,2,0,0,1,1.59-.73,2.17,2.17,0,0,1,1.82.86,3.91,3.91,0,0,1,.64,2.38Zm-1.68-.13a2.43,2.43,0,0,0-.31-1.35,1,1,0,0,0-.91-.48,1.11,1.11,0,0,0-1.09.6v2.58a1.12,1.12,0,0,0,1.1.63C351.37,196.46,351.77,195.8,351.77,194.48Z"/><path class="cls-16" d="M354.23,194.49a3.73,3.73,0,0,1,.36-1.67,2.67,2.67,0,0,1,1-1.14,3,3,0,0,1,1.58-.4,2.87,2.87,0,0,1,2.08.78,3.12,3.12,0,0,1,.9,2.12v.43a3.31,3.31,0,0,1-.81,2.33,3.14,3.14,0,0,1-4.34,0,3.31,3.31,0,0,1-.82-2.38Zm1.69.12a2.37,2.37,0,0,0,.33,1.37,1.22,1.22,0,0,0,1.93,0,2.66,2.66,0,0,0,.34-1.5,2.41,2.41,0,0,0-.34-1.37,1.13,1.13,0,0,0-1-.48,1.12,1.12,0,0,0-1,.48A2.67,2.67,0,0,0,355.92,194.61Z"/><path class="cls-16" d="M363.86,196.46a1.11,1.11,0,0,0,.76-.26.92.92,0,0,0,.3-.68h1.58a2.09,2.09,0,0,1-.35,1.17,2.3,2.3,0,0,1-.94.83,2.9,2.9,0,0,1-1.32.29,2.74,2.74,0,0,1-2.13-.85,3.43,3.43,0,0,1-.78-2.38v-.11a3.38,3.38,0,0,1,.77-2.32,2.72,2.72,0,0,1,2.13-.87,2.66,2.66,0,0,1,1.9.67,2.42,2.42,0,0,1,.72,1.79h-1.58a1.21,1.21,0,0,0-.3-.8,1.14,1.14,0,0,0-1.66.13,2.45,2.45,0,0,0-.3,1.39v.17a2.49,2.49,0,0,0,.3,1.4A1,1,0,0,0,363.86,196.46Z"/><path class="cls-16" d="M369.1,192.08a2.13,2.13,0,0,1,1.69-.8c1.36,0,2.06.79,2.08,2.38v4h-1.69v-4a1.14,1.14,0,0,0-.23-.8,1,1,0,0,0-.77-.26,1.16,1.16,0,0,0-1.08.57v4.48h-1.68v-8.95h1.68Z"/><path class="cls-16" d="M377.79,197.7a1.93,1.93,0,0,1-.17-.57,2,2,0,0,1-1.59.68,2.19,2.19,0,0,1-1.53-.53,1.72,1.72,0,0,1-.61-1.35,1.77,1.77,0,0,1,.74-1.54,3.61,3.61,0,0,1,2.15-.54h.77v-.36a1,1,0,0,0-.22-.7.87.87,0,0,0-.71-.26,1,1,0,0,0-.67.2.7.7,0,0,0-.24.56H374a1.69,1.69,0,0,1,.33-1,2.34,2.34,0,0,1,1-.74,3.59,3.59,0,0,1,1.39-.26,2.72,2.72,0,0,1,1.84.58,2.06,2.06,0,0,1,.69,1.65v2.73a3,3,0,0,0,.25,1.36v.1Zm-1.39-1.17a1.4,1.4,0,0,0,.68-.17,1.12,1.12,0,0,0,.47-.44v-1.09h-.63c-.84,0-1.29.29-1.34.88v.1a.65.65,0,0,0,.22.51A.85.85,0,0,0,376.4,196.53Zm.64-7.78h1.83l-1.61,1.81h-1.37Z"/><path class="cls-16" d="M382.47,196.34h3.08v1.36h-5.23v-1l3-3.92H380.4V191.4h5.05v1Z"/><path class="cls-16" d="M388.42,197.7h-1.68v-6.3h1.68Zm-.5-8.86h1.84l-1.61,1.8h-1.37Z"/><path class="cls-16" d="M394.77,196.34h3.09v1.36h-5.23v-1l3-3.92h-2.88V191.4h5.05v1Z"/><path class="cls-16" d="M404.24,195.64l1.17-4.24h1.76L405,197.7h-1.6l-2.13-6.3h1.76Z"/><path class="cls-16" d="M410.26,195.32l1.17-3.92h1.8l-2.53,7.28-.14.33a1.92,1.92,0,0,1-1.86,1.23,2.43,2.43,0,0,1-.75-.11v-1.27h.26a1.46,1.46,0,0,0,.71-.14,1,1,0,0,0,.37-.49l.2-.51-2.21-6.32h1.81Zm.37-6.57h1.84l-1.62,1.81h-1.37Z"/><path class="cls-16" d="M417.44,193a4.66,4.66,0,0,0-.61,0,1.24,1.24,0,0,0-1.25.64v4.13H413.9v-6.3h1.59l.05.75a1.54,1.54,0,0,1,1.4-.87,2.11,2.11,0,0,1,.52.07Z"/><path class="cls-16" d="M417.78,194.49a3.73,3.73,0,0,1,.36-1.67,2.67,2.67,0,0,1,1-1.14,3,3,0,0,1,1.57-.4,2.89,2.89,0,0,1,2.09.78,3.21,3.21,0,0,1,.9,2.12v.43a3.31,3.31,0,0,1-.81,2.33,3.15,3.15,0,0,1-4.35,0,3.35,3.35,0,0,1-.81-2.38Zm1.68.12a2.29,2.29,0,0,0,.34,1.37,1.11,1.11,0,0,0,1,.48,1.13,1.13,0,0,0,1-.47,2.58,2.58,0,0,0,.34-1.5,2.33,2.33,0,0,0-.34-1.37,1.12,1.12,0,0,0-1-.48,1.09,1.09,0,0,0-.95.48A2.58,2.58,0,0,0,419.46,194.61Z"/><path class="cls-16" d="M430.47,194.61a3.83,3.83,0,0,1-.65,2.36,2.15,2.15,0,0,1-1.81.84,2,2,0,0,1-1.63-.78l-.08.67h-1.51v-8.95h1.68V192a1.93,1.93,0,0,1,1.53-.68,2.15,2.15,0,0,1,1.81.85,3.79,3.79,0,0,1,.66,2.38Zm-1.69-.13a2.52,2.52,0,0,0-.3-1.39,1,1,0,0,0-.9-.44,1.11,1.11,0,0,0-1.11.66v2.48a1.13,1.13,0,0,0,1.12.67,1,1,0,0,0,1.07-.81A4.16,4.16,0,0,0,428.78,194.48Z"/><path class="cls-16" d="M433.79,195.32,435,191.4h1.8l-2.53,7.28-.14.33a1.93,1.93,0,0,1-1.87,1.23,2.42,2.42,0,0,1-.74-.11v-1.27h.25a1.5,1.5,0,0,0,.72-.14,1,1,0,0,0,.37-.49l.2-.51-2.21-6.32h1.81Z"/><path class="cls-16" d="M371.81,208.39a1.09,1.09,0,0,0,.75-.26.89.89,0,0,0,.31-.68h1.57a2.16,2.16,0,0,1-.34,1.17,2.33,2.33,0,0,1-1,.83,2.83,2.83,0,0,1-1.31.29,2.74,2.74,0,0,1-2.14-.85,3.43,3.43,0,0,1-.78-2.38v-.11a3.34,3.34,0,0,1,.78-2.32,3,3,0,0,1,4-.2,2.34,2.34,0,0,1,.72,1.79h-1.57a1.17,1.17,0,0,0-.31-.8,1,1,0,0,0-.77-.3,1,1,0,0,0-.88.43,2.45,2.45,0,0,0-.3,1.39v.17a2.59,2.59,0,0,0,.29,1.4A1,1,0,0,0,371.81,208.39Z"/><path class="cls-16" d="M378.31,209.74a3.08,3.08,0,0,1-2.26-.85,3,3,0,0,1-.87-2.26v-.16a3.73,3.73,0,0,1,.37-1.7,2.67,2.67,0,0,1,1-1.16,2.89,2.89,0,0,1,1.53-.4,2.64,2.64,0,0,1,2,.81,3.37,3.37,0,0,1,.74,2.32V207h-4a1.49,1.49,0,0,0,1.53,1.37,1.82,1.82,0,0,0,1.52-.71l.82.93a2.47,2.47,0,0,1-1,.83A3.36,3.36,0,0,1,378.31,209.74Zm-.2-5.17a1,1,0,0,0-.81.34,1.73,1.73,0,0,0-.4,1h2.34v-.14a1.21,1.21,0,0,0-.3-.87A1.1,1.1,0,0,0,378.11,204.57Z"/><path class="cls-16" d="M383.43,203.33l.05.7a2.23,2.23,0,0,1,1.82-.82,1.68,1.68,0,0,1,1.67,1,2.16,2.16,0,0,1,1.89-1,1.88,1.88,0,0,1,1.53.6,2.73,2.73,0,0,1,.5,1.79v4H389.2v-4a1.17,1.17,0,0,0-.21-.78.92.92,0,0,0-.74-.25,1.05,1.05,0,0,0-1.05.72v4.33h-1.69v-4a1.22,1.22,0,0,0-.21-.79,1,1,0,0,0-.74-.24,1.09,1.09,0,0,0-1,.59v4.46h-1.69v-6.3Z"/><path class="cls-16" d="M395.08,209.74a3.07,3.07,0,0,1-2.25-.85,3,3,0,0,1-.88-2.26v-.16a3.86,3.86,0,0,1,.37-1.7,2.73,2.73,0,0,1,1-1.16,2.92,2.92,0,0,1,1.54-.4,2.61,2.61,0,0,1,2,.81,3.32,3.32,0,0,1,.75,2.32V207h-4a1.56,1.56,0,0,0,.49,1,1.5,1.5,0,0,0,1,.38,1.81,1.81,0,0,0,1.52-.71l.83.93a2.47,2.47,0,0,1-1,.83A3.37,3.37,0,0,1,395.08,209.74Zm-.19-5.17a1,1,0,0,0-.81.34,1.73,1.73,0,0,0-.4,1H396v-.14a1.3,1.3,0,0,0-.3-.87A1.11,1.11,0,0,0,394.89,204.57Z"/><path class="cls-16" d="M400.18,203.33l.05.72a2.21,2.21,0,0,1,1.81-.84,1.82,1.82,0,0,1,1.49.59,2.73,2.73,0,0,1,.51,1.76v4.07h-1.69v-4a1.12,1.12,0,0,0-.23-.78,1,1,0,0,0-.77-.24,1.16,1.16,0,0,0-1.07.6v4.45H398.6v-6.3Z"/><path class="cls-16" d="M407.33,201.78v1.55h1.07v1.23h-1.07v3.15a.75.75,0,0,0,.13.5.67.67,0,0,0,.51.15,2.47,2.47,0,0,0,.5,0v1.27a3.5,3.5,0,0,1-1,.15,1.61,1.61,0,0,1-1.81-1.78v-3.4h-.92v-1.23h.92v-1.55Z"/><path class="cls-16" d="M413.12,209a2.13,2.13,0,0,1-1.73.75,2,2,0,0,1-1.54-.58,2.46,2.46,0,0,1-.55-1.7v-4.13H411v4.07q0,1,.9,1a1.22,1.22,0,0,0,1.18-.6v-4.46h1.69v6.3h-1.59Z"/></svg>