<svg id="Layer_1" data-name="Layer 1" xmlns="http://www.w3.org/2000/svg" viewBox="0 0 740 410.18"><defs><style>.cls-1,.cls-14{fill:#7365be;}.cls-1,.cls-10,.cls-11,.cls-2,.cls-5,.cls-6,.cls-7,.cls-8{stroke:#fff;stroke-miterlimit:10;}.cls-1,.cls-10,.cls-11,.cls-5,.cls-6,.cls-7,.cls-8{stroke-width:1.87px;}.cls-1,.cls-13,.cls-2{opacity:0.5;}.cls-15,.cls-2{fill:#3993dd;}.cls-2{stroke-width:1.97px;}.cls-3{fill:none;stroke:gray;stroke-linecap:round;stroke-linejoin:round;stroke-width:0.91px;}.cls-4{fill:gray;}.cls-5{fill:#f8c753;}.cls-5,.cls-6,.cls-7,.cls-8,.cls-9{opacity:0.16;}.cls-6{fill:#049587;}.cls-7{fill:#1fd0bf;}.cls-8{fill:navy;}.cls-10{fill:#ff4446;}.cls-11{fill:#a10015;}.cls-12{fill:#b3b3b3;}.cls-16{fill:#fff;}.cls-17{fill:#4d4d4d;}</style></defs><path class="cls-1" d="M334.58,247.92,266,281.63a152.86,152.86,0,0,0,74.71,72.12l31.15-69.83A76.47,76.47,0,0,1,334.58,247.92Z"/><path class="cls-2" d="M282.91,119.79a152.87,152.87,0,0,0-27.1,53.69l73.63,20.74A76.61,76.61,0,0,1,343.06,167Z"/><path class="cls-3" d="M340.34,359.08c-4.25,4.88-11.1,7.45-20.82,6.12"/><polygon class="cls-4" points="322.93 361.82 323.47 362.55 319.87 365.21 322.78 368.61 322.09 369.2 318.54 365.06 322.93 361.82"/><path class="cls-3" d="M250.28,178.66A59,59,0,0,0,229.15,174"/><polygon class="cls-4" points="232.29 170.43 232.89 171.11 229.5 174.04 232.66 177.21 232.02 177.85 228.16 173.99 232.29 170.43"/><path class="cls-5" d="M371.27,64.64a153.14,153.14,0,0,1,32-3.37v76.46a76.62,76.62,0,0,0-16,1.69Z"/><path class="cls-6" d="M331.58,79.08a153.29,153.29,0,0,1,39.69-14.44l16,74.78a76.74,76.74,0,0,0-19.84,7.22Z"/><path class="cls-7" d="M282.91,119.79a152.89,152.89,0,0,1,48.67-40.71l35.82,67.56A76.46,76.46,0,0,0,343.06,167Z"/><path class="cls-8" d="M266,281.63a153,153,0,0,1-13.15-95.07L328,200.38a76.49,76.49,0,0,0,6.57,47.54Z"/><g class="cls-9"><path class="cls-10" d="M403.22,61.27a152.94,152.94,0,0,1,93.95,273.61l-47-60.34a76.47,76.47,0,0,0-47-136.81Z"/><path class="cls-11" d="M497.17,334.88a153,153,0,0,1-142.71,24.28l24.38-72.48a76.46,76.46,0,0,0,71.35-12.14Z"/></g><path class="cls-12" d="M487.93,378.86h-.76v-8.32l-2.51.93v-.71l3.14-1.17h.13Z"/><path class="cls-12" d="M492.12,374.13l.45-4.51h4.62v.71h-4l-.32,3.12a3,3,0,0,1,1.74-.51,2.58,2.58,0,0,1,2,.81,3.14,3.14,0,0,1,.74,2.17,3.26,3.26,0,0,1-.72,2.26,2.59,2.59,0,0,1-2,.81,2.78,2.78,0,0,1-1.95-.67,2.75,2.75,0,0,1-.86-1.89h.73a2.15,2.15,0,0,0,.64,1.43,2,2,0,0,0,1.44.49,1.78,1.78,0,0,0,1.49-.63,2.77,2.77,0,0,0,.51-1.79,2.41,2.41,0,0,0-.57-1.66,2,2,0,0,0-1.54-.64,3,3,0,0,0-.94.14,2.58,2.58,0,0,0-.84.53Z"/><path class="cls-12" d="M498.77,380.59l-.45-.33a2.77,2.77,0,0,0,.59-1.6v-1h.75v.79A2.75,2.75,0,0,1,498.77,380.59Z"/><path class="cls-12" d="M507,370.06l-3.95,8.8h-.79l3.92-8.59h-5.26v-.65H507Z"/><path class="cls-12" d="M511.48,371.4A1.92,1.92,0,0,1,512,370a1.83,1.83,0,0,1,2.6,0,2,2,0,0,1,.51,1.41v.45a1.93,1.93,0,0,1-.5,1.35,1.68,1.68,0,0,1-1.3.55,1.74,1.74,0,0,1-1.3-.54,1.94,1.94,0,0,1-.52-1.41Zm.62.49a1.44,1.44,0,0,0,.33,1,1.09,1.09,0,0,0,.87.38,1.07,1.07,0,0,0,.86-.38,1.48,1.48,0,0,0,.32-1v-.46a1.45,1.45,0,0,0-.33-1,1.06,1.06,0,0,0-.86-.39,1.08,1.08,0,0,0-.86.39,1.48,1.48,0,0,0-.33,1Zm1.45,6.21-.48-.31,4.51-7.22.48.3Zm2.59-1.5a1.88,1.88,0,0,1,.51-1.37,1.7,1.7,0,0,1,1.29-.54,1.74,1.74,0,0,1,1.3.54,2,2,0,0,1,.51,1.41v.45a1.92,1.92,0,0,1-.51,1.37A1.7,1.7,0,0,1,518,379a1.74,1.74,0,0,1-1.3-.54,2,2,0,0,1-.51-1.4Zm.6.49a1.43,1.43,0,0,0,.33,1,1.2,1.2,0,0,0,1.75,0,1.57,1.57,0,0,0,.32-1v-.47a1.43,1.43,0,0,0-.33-1,1.2,1.2,0,0,0-1.74,0,1.45,1.45,0,0,0-.33,1Z"/><g class="cls-13"><path class="cls-14" d="M236,327.17h-1.18v-7.82l-2.37.86v-1.06l3.37-1.27H236Z"/><path class="cls-14" d="M245.52,327.17h-6.06v-.84l3.2-3.56a7.39,7.39,0,0,0,1-1.31,2.15,2.15,0,0,0,.27-1,1.68,1.68,0,0,0-.44-1.19,1.52,1.52,0,0,0-1.17-.46,1.8,1.8,0,0,0-1.36.5,1.9,1.9,0,0,0-.48,1.38h-1.18a2.74,2.74,0,0,1,.82-2.06,3.09,3.09,0,0,1,2.2-.79,2.94,2.94,0,0,1,2,.68,2.3,2.3,0,0,1,.75,1.8,5.29,5.29,0,0,1-1.74,3.25l-2.47,2.68h4.64Z"/><path class="cls-14" d="M246.84,329l-.66-.45a3.17,3.17,0,0,0,.62-1.72v-1.06H248v.92a2.85,2.85,0,0,1-.32,1.28A3,3,0,0,1,246.84,329Z"/><path class="cls-14" d="M253.92,317.92v1h-.22a3.12,3.12,0,0,0-2.18.81,3.45,3.45,0,0,0-.94,2.22,2.5,2.5,0,0,1,2-.84,2.39,2.39,0,0,1,1.93.85,3.29,3.29,0,0,1,.72,2.2,3.25,3.25,0,0,1-.78,2.28,2.66,2.66,0,0,1-2.08.86,2.63,2.63,0,0,1-2.15-1,4,4,0,0,1-.83-2.62v-.46a6.06,6.06,0,0,1,1.09-3.9,4,4,0,0,1,3.24-1.38Zm-1.54,4.17a2,2,0,0,0-1.82,1.27v.43a3,3,0,0,0,.52,1.84,1.55,1.55,0,0,0,1.28.7,1.51,1.51,0,0,0,1.25-.59,2.82,2.82,0,0,0,0-3.07A1.47,1.47,0,0,0,252.38,322.09Z"/><path class="cls-14" d="M259.73,319.71a1.92,1.92,0,0,1,3.26-1.37,1.93,1.93,0,0,1,.52,1.4v.46a1.82,1.82,0,0,1-.53,1.36,1.79,1.79,0,0,1-1.35.53,1.83,1.83,0,0,1-1.36-.53,1.88,1.88,0,0,1-.54-1.41Zm.87.48a1.23,1.23,0,0,0,.28.82,1,1,0,0,0,.75.32.92.92,0,0,0,.73-.31,1.26,1.26,0,0,0,.28-.85v-.47a1.25,1.25,0,0,0-.28-.82,1,1,0,0,0-1.48,0,1.3,1.3,0,0,0-.28.85Zm1.3,6.28-.67-.42,4.52-7.22.66.42Zm2.33-1.56a1.88,1.88,0,0,1,.53-1.37,1.82,1.82,0,0,1,1.36-.54,1.88,1.88,0,0,1,1.37.53A2,2,0,0,1,268,325v.45a1.89,1.89,0,0,1-.53,1.37,1.82,1.82,0,0,1-1.36.53,1.86,1.86,0,0,1-1.36-.52,1.91,1.91,0,0,1-.54-1.42Zm.87.49a1.23,1.23,0,0,0,.28.82.93.93,0,0,0,.75.32.9.9,0,0,0,.73-.31,1.24,1.24,0,0,0,.28-.86v-.47a1.23,1.23,0,0,0-.28-.82,1,1,0,0,0-1.47,0,1.22,1.22,0,0,0-.29.85Z"/></g><path class="cls-12" d="M211.41,263.78h-.76v-8.33l-2.51.93v-.71l3.14-1.17h.13Z"/><path class="cls-12" d="M220.65,259.92a5.19,5.19,0,0,1-.71,3,2.73,2.73,0,0,1-4.22,0A4.88,4.88,0,0,1,215,260v-1.66a5,5,0,0,1,.73-3,2.42,2.42,0,0,1,2.11-1,2.46,2.46,0,0,1,2.09,1,4.76,4.76,0,0,1,.75,2.86Zm-.76-1.65a4.46,4.46,0,0,0-.52-2.4,1.7,1.7,0,0,0-1.56-.82,1.73,1.73,0,0,0-1.55.8,4.35,4.35,0,0,0-.53,2.34V260a4.55,4.55,0,0,0,.53,2.42,1.74,1.74,0,0,0,1.56.84,1.7,1.7,0,0,0,1.54-.82,4.45,4.45,0,0,0,.53-2.4Z"/><path class="cls-12" d="M222.25,265.5l-.45-.33a2.75,2.75,0,0,0,.59-1.6v-1h.75v.79A2.74,2.74,0,0,1,222.25,265.5Z"/><path class="cls-12" d="M230.56,263.78h-5.79v-.59l3.17-3.59a8.17,8.17,0,0,0,1.09-1.5,2.43,2.43,0,0,0,.31-1.15,1.87,1.87,0,0,0-.52-1.39,1.91,1.91,0,0,0-1.41-.51,2,2,0,0,0-1.51.6,2.15,2.15,0,0,0-.57,1.55h-.76a2.93,2.93,0,0,1,.35-1.42,2.52,2.52,0,0,1,1-1,3,3,0,0,1,1.48-.36,2.8,2.8,0,0,1,2,.66,2.36,2.36,0,0,1,.71,1.82,3,3,0,0,1-.4,1.41,10.33,10.33,0,0,1-1.42,1.92l-2.57,2.91h4.85Z"/><path class="cls-12" d="M235,256.31a1.92,1.92,0,0,1,.51-1.37,1.83,1.83,0,0,1,2.6,0,2,2,0,0,1,.51,1.41v.45a1.89,1.89,0,0,1-.51,1.35,1.64,1.64,0,0,1-1.29.55,1.74,1.74,0,0,1-1.3-.54,1.9,1.9,0,0,1-.52-1.41Zm.62.49a1.47,1.47,0,0,0,.32,1,1.11,1.11,0,0,0,.88.38,1.07,1.07,0,0,0,.86-.38,1.48,1.48,0,0,0,.32-1v-.46a1.45,1.45,0,0,0-.33-1,1.06,1.06,0,0,0-.86-.38,1.07,1.07,0,0,0-.86.38,1.48,1.48,0,0,0-.33,1ZM237,263l-.47-.31,4.51-7.22.48.3Zm2.59-1.5a1.92,1.92,0,0,1,.51-1.37,1.73,1.73,0,0,1,1.3-.53,1.69,1.69,0,0,1,1.29.53,1.93,1.93,0,0,1,.52,1.41V262a1.92,1.92,0,0,1-.51,1.37,1.7,1.7,0,0,1-1.29.54,1.74,1.74,0,0,1-1.3-.54,2,2,0,0,1-.52-1.4Zm.61.49a1.43,1.43,0,0,0,.33,1,1.08,1.08,0,0,0,.88.38,1.11,1.11,0,0,0,.87-.38,1.55,1.55,0,0,0,.32-1v-.46a1.44,1.44,0,0,0-.33-1,1.13,1.13,0,0,0-.87-.37,1.11,1.11,0,0,0-.87.38,1.45,1.45,0,0,0-.33,1Z"/><g class="cls-13"><path class="cls-15" d="M231.9,136.65l-3.83,8.59h-1.23l3.82-8.28h-5v-1h6.24Z"/><path class="cls-15" d="M233.32,147.08l-.67-.46a3,3,0,0,0,.62-1.71v-1.06h1.15v.92a2.9,2.9,0,0,1-.31,1.28A3,3,0,0,1,233.32,147.08Z"/><path class="cls-15" d="M241.75,136.65l-3.82,8.59h-1.24l3.82-8.28h-5v-1h6.24Z"/><path class="cls-15" d="M246.2,137.77a1.89,1.89,0,0,1,.53-1.37,1.85,1.85,0,0,1,1.37-.54,1.81,1.81,0,0,1,1.36.54,2,2,0,0,1,.53,1.41v.45a1.92,1.92,0,0,1-3.25,1.37,1.91,1.91,0,0,1-.54-1.41Zm.88.49a1.2,1.2,0,0,0,.28.82.94.94,0,0,0,.75.32.9.9,0,0,0,.72-.32,1.19,1.19,0,0,0,.28-.85v-.46a1.23,1.23,0,0,0-.27-.82,1,1,0,0,0-1.49,0,1.26,1.26,0,0,0-.27.84Zm1.29,6.28-.66-.42,4.51-7.22.67.41ZM250.7,143a1.89,1.89,0,0,1,.53-1.37,2,2,0,0,1,2.73,0,1.88,1.88,0,0,1,.53,1.41v.45a1.82,1.82,0,0,1-.53,1.37,1.8,1.8,0,0,1-1.35.54,1.83,1.83,0,0,1-1.91-1.94Zm.88.49a1.21,1.21,0,0,0,.28.83,1,1,0,0,0,.75.32.93.93,0,0,0,.73-.32,1.26,1.26,0,0,0,.27-.85V143a1.17,1.17,0,0,0-.28-.82.89.89,0,0,0-.73-.32.94.94,0,0,0-.74.31,1.23,1.23,0,0,0-.28.85Z"/></g><path class="cls-12" d="M330.38,59.16h1.45v.64h-1.45v2.34h-.76V59.8h-4.35v-.43l4.28-6.47h.83Zm-4.17,0h3.41V53.88l-.33.58Z"/><path class="cls-12" d="M332.89,63.86l-.46-.33a2.7,2.7,0,0,0,.6-1.6v-1h.74v.8A2.71,2.71,0,0,1,332.89,63.86Z"/><path class="cls-12" d="M340.08,59.16h1.44v.64h-1.44v2.34h-.76V59.8H335v-.43l4.28-6.47h.83Zm-4.18,0h3.42V53.88l-.34.58Z"/><path class="cls-12" d="M345.6,54.67a1.94,1.94,0,0,1,.51-1.37,1.83,1.83,0,0,1,2.6,0,2,2,0,0,1,.51,1.41v.45a1.91,1.91,0,0,1-.51,1.36,1.67,1.67,0,0,1-1.29.54,1.76,1.76,0,0,1-1.3-.53,1.93,1.93,0,0,1-.52-1.41Zm.62.49a1.42,1.42,0,0,0,.32,1,1.08,1.08,0,0,0,.88.38,1,1,0,0,0,.86-.38,1.48,1.48,0,0,0,.32-1v-.46a1.45,1.45,0,0,0-.33-1,1.16,1.16,0,0,0-1.72,0,1.49,1.49,0,0,0-.33,1Zm1.44,6.21-.47-.3,4.51-7.23.48.31Zm2.59-1.5a1.9,1.9,0,0,1,.51-1.36,1.7,1.7,0,0,1,1.29-.54,1.73,1.73,0,0,1,1.3.53,1.94,1.94,0,0,1,.52,1.42v.45a1.9,1.9,0,0,1-.51,1.36,1.7,1.7,0,0,1-1.29.54,1.72,1.72,0,0,1-1.3-.54,1.93,1.93,0,0,1-.52-1.4Zm.61.49a1.43,1.43,0,0,0,.33,1,1.09,1.09,0,0,0,.88.39,1.05,1.05,0,0,0,.86-.39,1.5,1.5,0,0,0,.33-1v-.46a1.4,1.4,0,0,0-.33-1,1.11,1.11,0,0,0-.88-.38,1.1,1.1,0,0,0-.86.38,1.45,1.45,0,0,0-.33,1Z"/><path class="cls-12" d="M279.59,82.91v.66h-.09a3.49,3.49,0,0,0-2.61,1,4.15,4.15,0,0,0-1.05,2.72,2.57,2.57,0,0,1,1-.82,3,3,0,0,1,1.32-.29,2.43,2.43,0,0,1,1.94.84,3.27,3.27,0,0,1,.72,2.2,3.74,3.74,0,0,1-.34,1.63,2.51,2.51,0,0,1-1,1.12,2.61,2.61,0,0,1-1.44.41,2.7,2.7,0,0,1-2.15-1,3.66,3.66,0,0,1-.84-2.49v-.76a5.84,5.84,0,0,1,1.13-3.84,4,4,0,0,1,3.21-1.39ZM278,86.81a2.33,2.33,0,0,0-1.35.43,2.05,2.05,0,0,0-.83,1.09V89a3,3,0,0,0,.62,2,2,2,0,0,0,1.6.76,1.72,1.72,0,0,0,1.44-.7,2.78,2.78,0,0,0,.55-1.78,2.62,2.62,0,0,0-.55-1.75A1.82,1.82,0,0,0,278,86.81Z"/><path class="cls-12" d="M282.28,94l-.45-.33a2.78,2.78,0,0,0,.59-1.61V91h.75v.79A2.75,2.75,0,0,1,282.28,94Z"/><path class="cls-12" d="M290.5,83.42l-3.95,8.8h-.79l3.92-8.59h-5.26V83h6.08Z"/><path class="cls-12" d="M295,84.76a1.92,1.92,0,0,1,.51-1.37,1.83,1.83,0,0,1,2.6,0,2,2,0,0,1,.51,1.4v.45a1.9,1.9,0,0,1-.51,1.36,1.67,1.67,0,0,1-1.29.54,1.76,1.76,0,0,1-1.3-.53A1.93,1.93,0,0,1,295,85.2Zm.62.48a1.45,1.45,0,0,0,.32,1,1.09,1.09,0,0,0,.88.39,1.05,1.05,0,0,0,.86-.39,1.47,1.47,0,0,0,.32-1v-.47a1.43,1.43,0,0,0-.33-1,1.08,1.08,0,0,0-.86-.39,1.1,1.1,0,0,0-.86.38,1.53,1.53,0,0,0-.33,1Zm1.44,6.21-.47-.3,4.51-7.23.48.31Zm2.59-1.5a1.9,1.9,0,0,1,.51-1.36,1.72,1.72,0,0,1,1.3-.54,1.7,1.7,0,0,1,1.29.54,1.9,1.9,0,0,1,.52,1.41v.45a1.9,1.9,0,0,1-.51,1.36,1.7,1.7,0,0,1-1.29.54,1.76,1.76,0,0,1-1.3-.53,2,2,0,0,1-.52-1.4Zm.61.5a1.45,1.45,0,0,0,.33,1,1.11,1.11,0,0,0,.88.38,1.05,1.05,0,0,0,.86-.39,1.48,1.48,0,0,0,.33-1V90a1.42,1.42,0,0,0-.33-1,1.21,1.21,0,0,0-1.74,0,1.48,1.48,0,0,0-.33,1Z"/><path class="cls-12" d="M544.28,111.73h.79a2.73,2.73,0,0,0,1.14-.23,1.79,1.79,0,0,0,.74-.64,1.63,1.63,0,0,0,.26-.93,1.91,1.91,0,0,0-.5-1.39,2,2,0,0,0-1.44-.5,2.07,2.07,0,0,0-1.46.52,1.79,1.79,0,0,0-.57,1.38h-.76a2.51,2.51,0,0,1,.36-1.31,2.47,2.47,0,0,1,1-.91,3,3,0,0,1,1.42-.33,2.74,2.74,0,0,1,2,.69A2.46,2.46,0,0,1,548,110a2,2,0,0,1-.42,1.23,2.59,2.59,0,0,1-1.16.84,2.38,2.38,0,0,1,1.31.82,2.25,2.25,0,0,1,.44,1.4,2.46,2.46,0,0,1-.77,1.91,2.89,2.89,0,0,1-2.07.73,3.44,3.44,0,0,1-1.51-.33,2.46,2.46,0,0,1-1.45-2.31h.76a1.85,1.85,0,0,0,.62,1.44,2.28,2.28,0,0,0,1.58.56,2.14,2.14,0,0,0,1.53-.51,1.86,1.86,0,0,0,.55-1.46,1.76,1.76,0,0,0-.59-1.42,2.74,2.74,0,0,0-1.75-.49h-.76Z"/><path class="cls-12" d="M554.54,112.48a2.89,2.89,0,0,1-1,.93,2.79,2.79,0,0,1-1.31.32,2.41,2.41,0,0,1-1.39-.4,2.67,2.67,0,0,1-.93-1.13,3.67,3.67,0,0,1-.33-1.56,3.82,3.82,0,0,1,.35-1.67,2.73,2.73,0,0,1,1-1.16,2.82,2.82,0,0,1,3.62.56,4.32,4.32,0,0,1,.78,2.76v.69a5.67,5.67,0,0,1-1.07,3.75,4,4,0,0,1-3.25,1.26h-.14v-.66h.27a3.4,3.4,0,0,0,2.52-.94A4,4,0,0,0,554.54,112.48Zm-2.23.59a2.23,2.23,0,0,0,1.37-.45,2.4,2.4,0,0,0,.86-1.17V111a3.56,3.56,0,0,0-.58-2.18,1.89,1.89,0,0,0-1.59-.78,1.8,1.8,0,0,0-1.48.73,2.85,2.85,0,0,0-.57,1.82,2.77,2.77,0,0,0,.55,1.77A1.74,1.74,0,0,0,552.31,113.07Z"/><path class="cls-12" d="M557,118.49l-.45-.33a2.72,2.72,0,0,0,.6-1.61v-1h.74v.79A2.75,2.75,0,0,1,557,118.49Z"/><path class="cls-12" d="M560,112l.45-4.51h4.62v.7h-4l-.33,3.13a3,3,0,0,1,1.74-.51,2.55,2.55,0,0,1,2,.81,3.06,3.06,0,0,1,.75,2.17,3.23,3.23,0,0,1-.73,2.26,2.58,2.58,0,0,1-2,.81,2.86,2.86,0,0,1-2-.67,2.8,2.8,0,0,1-.86-1.89h.74a2.15,2.15,0,0,0,.64,1.43,2,2,0,0,0,1.44.49,1.78,1.78,0,0,0,1.49-.63,2.79,2.79,0,0,0,.51-1.79,2.41,2.41,0,0,0-.57-1.66,1.94,1.94,0,0,0-1.54-.64,3,3,0,0,0-.94.14,2.61,2.61,0,0,0-.85.53Z"/><path class="cls-12" d="M569.68,109.3a1.92,1.92,0,0,1,.51-1.37,1.82,1.82,0,0,1,2.59,0,2,2,0,0,1,.51,1.4v.45a1.89,1.89,0,0,1-.5,1.36,1.83,1.83,0,0,1-2.59,0,1.92,1.92,0,0,1-.52-1.41Zm.61.48a1.45,1.45,0,0,0,.33,1,1.11,1.11,0,0,0,.88.38,1.06,1.06,0,0,0,.86-.39,1.51,1.51,0,0,0,.32-1v-.47a1.43,1.43,0,0,0-.33-1,1.08,1.08,0,0,0-.87-.39,1.12,1.12,0,0,0-.86.38,1.53,1.53,0,0,0-.33,1Zm1.45,6.21-.48-.3,4.52-7.23.47.31Zm2.59-1.49a1.92,1.92,0,0,1,.51-1.37,1.7,1.7,0,0,1,1.29-.54,1.74,1.74,0,0,1,1.3.54,2,2,0,0,1,.52,1.41V115a1.92,1.92,0,0,1-.51,1.37,1.75,1.75,0,0,1-1.3.53,1.69,1.69,0,0,1-1.29-.53,1.93,1.93,0,0,1-.52-1.4Zm.61.49a1.5,1.5,0,0,0,.32,1,1.13,1.13,0,0,0,.88.38A1.06,1.06,0,0,0,577,116a1.52,1.52,0,0,0,.32-1v-.47a1.42,1.42,0,0,0-.33-1,1.07,1.07,0,0,0-.87-.37,1.09,1.09,0,0,0-.86.37,1.48,1.48,0,0,0-.33,1Z"/><path class="cls-12" d="M374.12,47.47h.79a2.52,2.52,0,0,0,1.14-.24,1.68,1.68,0,0,0,.75-.63,1.71,1.71,0,0,0,.26-.93,1.86,1.86,0,0,0-.51-1.39,1.91,1.91,0,0,0-1.44-.5,2,2,0,0,0-1.45.52,1.79,1.79,0,0,0-.57,1.38h-.76a2.46,2.46,0,0,1,1.36-2.23,3.18,3.18,0,0,1,1.42-.32,2.78,2.78,0,0,1,2,.69,2.45,2.45,0,0,1,.72,1.87,2,2,0,0,1-.42,1.23,2.5,2.5,0,0,1-1.16.84,2.42,2.42,0,0,1,1.31.83A2.29,2.29,0,0,1,378,50a2.51,2.51,0,0,1-.77,1.91,2.94,2.94,0,0,1-2.07.73,3.49,3.49,0,0,1-1.52-.33,2.47,2.47,0,0,1-1.06-.93,2.42,2.42,0,0,1-.38-1.38H373a1.82,1.82,0,0,0,.62,1.44,2.26,2.26,0,0,0,1.58.56,2.18,2.18,0,0,0,1.53-.51,1.87,1.87,0,0,0,.55-1.46,1.73,1.73,0,0,0-.6-1.42,2.69,2.69,0,0,0-1.74-.49h-.77Z"/><path class="cls-12" d="M379.6,54.23l-.45-.33a2.75,2.75,0,0,0,.6-1.61v-1h.74v.79A2.75,2.75,0,0,1,379.6,54.23Z"/><path class="cls-12" d="M383.82,47.47h.78a2.6,2.6,0,0,0,1.15-.24,1.66,1.66,0,0,0,1-1.56,1.89,1.89,0,0,0-.5-1.39,1.94,1.94,0,0,0-1.44-.5,2.07,2.07,0,0,0-1.46.52,1.79,1.79,0,0,0-.57,1.38H382a2.45,2.45,0,0,1,1.37-2.23,3.15,3.15,0,0,1,1.42-.32,2.74,2.74,0,0,1,2,.69,2.45,2.45,0,0,1,.72,1.87,2,2,0,0,1-.42,1.23,2.45,2.45,0,0,1-1.16.84,2.39,2.39,0,0,1,1.31.83,2.29,2.29,0,0,1,.44,1.4,2.47,2.47,0,0,1-.77,1.91,2.94,2.94,0,0,1-2.07.73,3.41,3.41,0,0,1-1.51-.33A2.46,2.46,0,0,1,381.88,50h.76a1.85,1.85,0,0,0,.62,1.44,2.28,2.28,0,0,0,1.58.56,2.14,2.14,0,0,0,1.53-.51,1.87,1.87,0,0,0,.55-1.46,1.76,1.76,0,0,0-.59-1.42,2.74,2.74,0,0,0-1.75-.49h-.76Z"/><path class="cls-12" d="M392.32,45a1.9,1.9,0,0,1,.51-1.36,1.8,1.8,0,0,1,2.59,0,2,2,0,0,1,.51,1.4v.45a1.91,1.91,0,0,1-.5,1.36,1.7,1.7,0,0,1-1.29.54,1.75,1.75,0,0,1-1.3-.53,1.93,1.93,0,0,1-.52-1.41Zm.61.49a1.43,1.43,0,0,0,.33,1,1.08,1.08,0,0,0,.88.38,1.06,1.06,0,0,0,.86-.38,1.54,1.54,0,0,0,.32-1V45a1.47,1.47,0,0,0-.33-1,1.1,1.1,0,0,0-.86-.38,1.12,1.12,0,0,0-.87.38,1.51,1.51,0,0,0-.33,1Zm1.45,6.21-.48-.3,4.52-7.23.47.31Zm2.59-1.5a1.9,1.9,0,0,1,.51-1.36,1.7,1.7,0,0,1,1.29-.54,1.74,1.74,0,0,1,1.3.54,1.94,1.94,0,0,1,.52,1.41v.45a1.9,1.9,0,0,1-.51,1.36,1.83,1.83,0,0,1-2.59,0,1.93,1.93,0,0,1-.52-1.4Zm.61.5a1.43,1.43,0,0,0,.33,1,1.07,1.07,0,0,0,.87.39,1.06,1.06,0,0,0,.87-.39,1.53,1.53,0,0,0,.32-1v-.46a1.4,1.4,0,0,0-.33-1,1.08,1.08,0,0,0-.87-.38,1.1,1.1,0,0,0-.86.38,1.45,1.45,0,0,0-.33,1Z"/><path class="cls-12" d="M529.1,96.27h-4.32V100h5v.66H524V91.45h5.72v.67h-4.94v3.49h4.32Z"/><path class="cls-12" d="M531.94,93.83,532,95a2.81,2.81,0,0,1,1-1,2.51,2.51,0,0,1,1.27-.33,2.08,2.08,0,0,1,1.65.62,2.8,2.8,0,0,1,.54,1.87v4.51h-.75V96.18a2.17,2.17,0,0,0-.39-1.37,1.54,1.54,0,0,0-1.23-.45,2,2,0,0,0-1.25.44A2.59,2.59,0,0,0,532,96v4.71h-.76V93.83Z"/><path class="cls-12" d="M541,100.82a2.94,2.94,0,0,1-2.69-1.63,3.76,3.76,0,0,1-.39-1.73v-.27a4,4,0,0,1,.38-1.79,3,3,0,0,1,1.07-1.24,2.59,2.59,0,0,1,1.49-.46,2.48,2.48,0,0,1,2,.86,3.42,3.42,0,0,1,.73,2.33v.42h-4.9v.15a2.92,2.92,0,0,0,.67,2,2.16,2.16,0,0,0,1.69.77,2.44,2.44,0,0,0,1.07-.22,2.34,2.34,0,0,0,.85-.71l.48.36A2.77,2.77,0,0,1,541,100.82Zm-.14-6.47a1.89,1.89,0,0,0-1.45.63,2.88,2.88,0,0,0-.71,1.69h4.12v-.09a2.5,2.5,0,0,0-.57-1.61A1.75,1.75,0,0,0,540.88,94.35Z"/><path class="cls-12" d="M548.25,94.48a3,3,0,0,0-.52,0,1.83,1.83,0,0,0-1.2.4,2.15,2.15,0,0,0-.7,1.15v4.72h-.76V93.83h.74l0,1.09a2,2,0,0,1,1.93-1.22,1.34,1.34,0,0,1,.5.08Z"/><path class="cls-12" d="M549,97.2a4.18,4.18,0,0,1,.71-2.56,2.34,2.34,0,0,1,1.94-.94,2.39,2.39,0,0,1,2.14,1.12l0-1h.71v6.73a2.9,2.9,0,0,1-.74,2.1,2.66,2.66,0,0,1-2,.77,3,3,0,0,1-1.37-.32,2.68,2.68,0,0,1-1-.85l.42-.46a2.42,2.42,0,0,0,1.92,1,2,2,0,0,0,1.48-.56,2.24,2.24,0,0,0,.56-1.56v-.86a2.46,2.46,0,0,1-2.13,1,2.28,2.28,0,0,1-1.92-.95A4.15,4.15,0,0,1,549,97.3Zm.77.13a3.62,3.62,0,0,0,.52,2.08,1.73,1.73,0,0,0,1.49.75,2,2,0,0,0,2-1.25v-3.2a2.19,2.19,0,0,0-.77-1,2.1,2.1,0,0,0-1.21-.35,1.73,1.73,0,0,0-1.49.75A3.91,3.91,0,0,0,549.79,97.33Z"/><path class="cls-12" d="M559.2,100.82a2.94,2.94,0,0,1-2.69-1.63,3.76,3.76,0,0,1-.39-1.73v-.27a4,4,0,0,1,.38-1.79,3,3,0,0,1,1.07-1.24,2.59,2.59,0,0,1,1.48-.46,2.49,2.49,0,0,1,2,.86,3.42,3.42,0,0,1,.73,2.33v.42h-4.9v.15a2.92,2.92,0,0,0,.67,2,2.16,2.16,0,0,0,1.69.77,2.44,2.44,0,0,0,1.07-.22,2.34,2.34,0,0,0,.85-.71l.48.36A2.77,2.77,0,0,1,559.2,100.82Zm-.15-6.47a1.89,1.89,0,0,0-1.44.63,2.88,2.88,0,0,0-.71,1.69H561v-.09a2.5,2.5,0,0,0-.57-1.61A1.76,1.76,0,0,0,559.05,94.35Z"/><path class="cls-12" d="M564.43,92.07v1.76h1.42v.62h-1.42V99a1.4,1.4,0,0,0,.21.85.8.8,0,0,0,.69.28,5,5,0,0,0,.61-.06l0,.62a2.46,2.46,0,0,1-.81.1,1.34,1.34,0,0,1-1.13-.45,2.12,2.12,0,0,1-.36-1.34V94.45h-1.26v-.62h1.26V92.07Z"/><path class="cls-12" d="M567.38,91.85a.53.53,0,0,1,.14-.37.5.5,0,0,1,.38-.15.5.5,0,0,1,.53.52.48.48,0,0,1-.14.35.53.53,0,0,1-.39.15.5.5,0,0,1-.38-.15A.48.48,0,0,1,567.38,91.85Zm.9,8.85h-.76V93.83h.76Z"/><path class="cls-12" d="M572,97.24l-.87.84v2.62h-.76V91h.76v6.24l.72-.78,2.63-2.58h1l-2.92,2.89,3.17,4h-.91Z"/><path class="cls-12" d="M581,100.7a3.93,3.93,0,0,1-.14-1,2.68,2.68,0,0,1-1,.8,3.08,3.08,0,0,1-1.31.28,2.27,2.27,0,0,1-1.6-.55,1.8,1.8,0,0,1-.62-1.4,1.83,1.83,0,0,1,.84-1.58,4,4,0,0,1,2.32-.59h1.38v-.78a1.49,1.49,0,0,0-.45-1.15,1.85,1.85,0,0,0-1.33-.43,2.09,2.09,0,0,0-1.31.41,1.2,1.2,0,0,0-.52,1h-.76a1.76,1.76,0,0,1,.76-1.42,2.93,2.93,0,0,1,1.87-.6,2.63,2.63,0,0,1,1.81.58,2,2,0,0,1,.69,1.6v3.25a4,4,0,0,0,.21,1.49v.08Zm-2.38-.55a2.5,2.5,0,0,0,1.36-.37,2.12,2.12,0,0,0,.87-1V97.29h-1.36a3.48,3.48,0,0,0-1.77.41,1.26,1.26,0,0,0-.65,1.11,1.24,1.24,0,0,0,.43,1A1.65,1.65,0,0,0,578.66,100.15Z"/><path class="cls-12" d="M477.68,362.8v-9.24h2.58a4,4,0,0,1,2,.52,3.46,3.46,0,0,1,1.4,1.48,4.6,4.6,0,0,1,.51,2.19v.85a4.72,4.72,0,0,1-.5,2.2,3.62,3.62,0,0,1-1.42,1.48,4.08,4.08,0,0,1-2.09.52Zm.78-8.58v7.92h1.75a3,3,0,0,0,2.34-1,3.72,3.72,0,0,0,.88-2.62v-.81a3.66,3.66,0,0,0-.87-2.56,2.94,2.94,0,0,0-2.29-1Z"/><path class="cls-12" d="M485.59,359.26a4,4,0,0,1,.39-1.78,2.82,2.82,0,0,1,1.08-1.23,2.89,2.89,0,0,1,1.59-.45,2.78,2.78,0,0,1,2.22,1,3.69,3.69,0,0,1,.85,2.55v.15a4,4,0,0,1-.38,1.8,2.86,2.86,0,0,1-1.08,1.22,3,3,0,0,1-1.6.44,2.78,2.78,0,0,1-2.21-1,3.69,3.69,0,0,1-.86-2.54Zm.76.21a3.13,3.13,0,0,0,.64,2,2.14,2.14,0,0,0,3.34,0,3.17,3.17,0,0,0,.64-2.08v-.15a3.6,3.6,0,0,0-.29-1.44,2.43,2.43,0,0,0-.82-1,2.1,2.1,0,0,0-1.21-.36,2,2,0,0,0-1.65.8,3.19,3.19,0,0,0-.65,2.08Z"/><path class="cls-12" d="M498.81,359.44a4.06,4.06,0,0,1-.71,2.54,2.26,2.26,0,0,1-1.9.95,2.55,2.55,0,0,1-2.16-1v3.5h-.75v-9.51h.7l0,1a2.43,2.43,0,0,1,2.15-1.1,2.29,2.29,0,0,1,1.93.94,4.2,4.2,0,0,1,.7,2.59Zm-.76-.14a3.51,3.51,0,0,0-.54-2.07,1.74,1.74,0,0,0-1.5-.77,2,2,0,0,0-2,1.32v3.29a1.92,1.92,0,0,0,.78.9,2.24,2.24,0,0,0,1.2.32,1.74,1.74,0,0,0,1.5-.77A3.91,3.91,0,0,0,498.05,359.3Z"/><path class="cls-12" d="M503.67,356.58a2.76,2.76,0,0,0-.51-.05,1.89,1.89,0,0,0-1.21.4,2.19,2.19,0,0,0-.7,1.15v4.72h-.75v-6.87h.74V357a2,2,0,0,1,1.94-1.22,1.15,1.15,0,0,1,.5.09Z"/><path class="cls-12" d="M509,362.8a4.39,4.39,0,0,1-.15-1,2.49,2.49,0,0,1-1,.8,3.14,3.14,0,0,1-1.32.29,2.29,2.29,0,0,1-1.6-.56,1.77,1.77,0,0,1-.61-1.39,1.84,1.84,0,0,1,.84-1.59,4,4,0,0,1,2.32-.58h1.38V358a1.5,1.5,0,0,0-.45-1.16,1.91,1.91,0,0,0-1.33-.42,2,2,0,0,0-1.31.4,1.2,1.2,0,0,0-.52,1h-.76a1.77,1.77,0,0,1,.76-1.42,2.91,2.91,0,0,1,1.87-.6,2.67,2.67,0,0,1,1.81.58,2.06,2.06,0,0,1,.68,1.6v3.25a4,4,0,0,0,.21,1.49v.08Zm-2.39-.55a2.62,2.62,0,0,0,1.37-.36,2.19,2.19,0,0,0,.87-1v-1.51h-1.36a3.41,3.41,0,0,0-1.78.42,1.25,1.25,0,0,0-.64,1.1,1.21,1.21,0,0,0,.43,1A1.59,1.59,0,0,0,506.56,362.25Z"/><path class="cls-12" d="M513.62,361.75l2.09-5.82h.78l-2.56,6.87h-.62l-2.58-6.87h.78Z"/><path class="cls-12" d="M522,362.8a3.43,3.43,0,0,1-.15-1,2.59,2.59,0,0,1-1,.8,3.09,3.09,0,0,1-1.31.29,2.29,2.29,0,0,1-1.6-.56,1.77,1.77,0,0,1-.61-1.39,1.83,1.83,0,0,1,.83-1.59,4,4,0,0,1,2.33-.58h1.37V358a1.5,1.5,0,0,0-.45-1.16,1.87,1.87,0,0,0-1.32-.42,2.09,2.09,0,0,0-1.32.4,1.23,1.23,0,0,0-.52,1h-.76a1.77,1.77,0,0,1,.76-1.42,2.93,2.93,0,0,1,1.87-.6,2.72,2.72,0,0,1,1.82.58,2.06,2.06,0,0,1,.68,1.6v3.25a4,4,0,0,0,.21,1.49v.08Zm-2.39-.55a2.58,2.58,0,0,0,1.36-.36,2.19,2.19,0,0,0,.87-1v-1.51h-1.35a3.41,3.41,0,0,0-1.78.42,1.23,1.23,0,0,0-.64,1.1,1.21,1.21,0,0,0,.43,1A1.56,1.56,0,0,0,519.59,362.25Z"/><path class="cls-12" d="M94.4,230.9a1.49,1.49,0,0,0-.54-1.21,5.72,5.72,0,0,0-2-.85,6.88,6.88,0,0,1-2.1-.88,2.1,2.1,0,0,1-.94-1.77,2.07,2.07,0,0,1,.87-1.72,4.08,4.08,0,0,1,3.88-.31,2.73,2.73,0,0,1,1.13,1,2.61,2.61,0,0,1,.4,1.42h-.79a1.94,1.94,0,0,0-.65-1.53,2.52,2.52,0,0,0-1.73-.57,2.71,2.71,0,0,0-1.69.47,1.49,1.49,0,0,0-.63,1.24,1.42,1.42,0,0,0,.56,1.15,5.27,5.27,0,0,0,1.81.78,8.91,8.91,0,0,1,1.89.71,2.56,2.56,0,0,1,1,.87,2.16,2.16,0,0,1,.33,1.2,2.07,2.07,0,0,1-.88,1.75,3.7,3.7,0,0,1-2.3.66,4.37,4.37,0,0,1-1.79-.35A2.79,2.79,0,0,1,89,232a2.55,2.55,0,0,1-.42-1.45h.78a1.84,1.84,0,0,0,.73,1.55,3.13,3.13,0,0,0,1.94.56,3,3,0,0,0,1.74-.47A1.51,1.51,0,0,0,94.4,230.9Z"/><path class="cls-12" d="M102.21,229.81a4.11,4.11,0,0,1-.71,2.55,2.25,2.25,0,0,1-1.9.94,2.55,2.55,0,0,1-2.16-1v3.51h-.76v-9.51h.71l0,1a2.43,2.43,0,0,1,2.15-1.1,2.29,2.29,0,0,1,1.93.93,4.24,4.24,0,0,1,.7,2.59Zm-.76-.13a3.54,3.54,0,0,0-.54-2.08,1.73,1.73,0,0,0-1.5-.76,2,2,0,0,0-1.2.34,2.09,2.09,0,0,0-.77,1v3.3a2,2,0,0,0,.78.9,2.23,2.23,0,0,0,1.2.31,1.73,1.73,0,0,0,1.5-.76A3.91,3.91,0,0,0,101.45,229.68Z"/><path class="cls-12" d="M108.23,233.18a3.93,3.93,0,0,1-.14-1,2.78,2.78,0,0,1-1,.8,3.12,3.12,0,0,1-1.31.28,2.31,2.31,0,0,1-1.61-.55,1.79,1.79,0,0,1-.61-1.4,1.83,1.83,0,0,1,.84-1.58,4,4,0,0,1,2.32-.59h1.38v-.78a1.53,1.53,0,0,0-.45-1.16,1.91,1.91,0,0,0-1.33-.42,2.05,2.05,0,0,0-1.31.41,1.19,1.19,0,0,0-.52,1h-.76a1.76,1.76,0,0,1,.76-1.42,2.91,2.91,0,0,1,1.87-.6,2.67,2.67,0,0,1,1.81.57,2.08,2.08,0,0,1,.68,1.61v3.25a4,4,0,0,0,.21,1.49v.08Zm-2.38-.55a2.53,2.53,0,0,0,1.36-.37,2.12,2.12,0,0,0,.87-1v-1.51h-1.36a3.42,3.42,0,0,0-1.78.41,1.27,1.27,0,0,0-.64,1.11,1.22,1.22,0,0,0,.43,1A1.65,1.65,0,0,0,105.85,232.63Z"/><path class="cls-12" d="M111.71,233.18H111v-9.75h.76Z"/><path class="cls-12" d="M113.35,229.64a4,4,0,0,1,.39-1.78,2.86,2.86,0,0,1,2.67-1.68,2.84,2.84,0,0,1,2.23,1,3.74,3.74,0,0,1,.85,2.55v.16a4,4,0,0,1-.39,1.79,2.88,2.88,0,0,1-1.08,1.23,3,3,0,0,1-1.59.43,2.83,2.83,0,0,1-2.22-1,3.69,3.69,0,0,1-.86-2.55Zm.77.21a3.15,3.15,0,0,0,.63,2,2.06,2.06,0,0,0,1.68.79,2,2,0,0,0,1.66-.79,3.19,3.19,0,0,0,.64-2.08v-.15a3.56,3.56,0,0,0-.29-1.44,2.37,2.37,0,0,0-.82-1,2.08,2.08,0,0,0-1.21-.36,2,2,0,0,0-1.65.79,3.24,3.24,0,0,0-.64,2.09Z"/><path class="cls-12" d="M123.1,232.13l2.09-5.82H126l-2.57,6.87h-.61l-2.58-6.87H121Z"/><path class="cls-12" d="M131.45,233.18a4.39,4.39,0,0,1-.15-1,2.67,2.67,0,0,1-1,.8,3.13,3.13,0,0,1-1.32.28,2.29,2.29,0,0,1-1.6-.55,1.79,1.79,0,0,1-.61-1.4,1.83,1.83,0,0,1,.84-1.58,4,4,0,0,1,2.32-.59h1.38v-.78a1.53,1.53,0,0,0-.45-1.16,1.91,1.91,0,0,0-1.33-.42,2.05,2.05,0,0,0-1.31.41,1.19,1.19,0,0,0-.52,1h-.76a1.76,1.76,0,0,1,.76-1.42,2.91,2.91,0,0,1,1.87-.6,2.67,2.67,0,0,1,1.81.57,2.08,2.08,0,0,1,.68,1.61v3.25a4,4,0,0,0,.21,1.49v.08Zm-2.39-.55a2.54,2.54,0,0,0,1.37-.37,2.12,2.12,0,0,0,.87-1v-1.51h-1.36a3.42,3.42,0,0,0-1.78.41,1.27,1.27,0,0,0-.64,1.11,1.22,1.22,0,0,0,.43,1A1.64,1.64,0,0,0,129.06,232.63Zm1.5-9.2h.92L130,225.2h-.67Z"/><path class="cls-12" d="M134.8,226.31l0,1.17a2.87,2.87,0,0,1,1-1,2.54,2.54,0,0,1,1.28-.33,2.06,2.06,0,0,1,1.64.62,2.8,2.8,0,0,1,.55,1.87v4.51h-.76v-4.52a2.05,2.05,0,0,0-.39-1.37,1.51,1.51,0,0,0-1.22-.45,2,2,0,0,0-1.25.44,2.59,2.59,0,0,0-.8,1.19v4.71h-.76v-6.87Z"/><path class="cls-12" d="M142.45,223.5h.92l-1.46,1.78h-.67Zm-.39,9.68h-.76v-6.87h.76Z"/><path class="cls-12" d="M149.41,232.13l2.09-5.82h.78l-2.56,6.87h-.62l-2.57-6.87h.78Z"/><path class="cls-12" d="M156.38,229.68a4.11,4.11,0,0,1,.72-2.55,2.3,2.3,0,0,1,1.94-.95,2.41,2.41,0,0,1,2.12,1.1v-3.85h.75v9.75h-.71l0-.92a2.44,2.44,0,0,1-2.15,1,2.3,2.3,0,0,1-1.91-1,4.2,4.2,0,0,1-.73-2.58Zm.77.13a3.56,3.56,0,0,0,.53,2.07,1.7,1.7,0,0,0,1.48.76,2.05,2.05,0,0,0,2-1.24v-3.22a2,2,0,0,0-2-1.34,1.74,1.74,0,0,0-1.5.75A3.87,3.87,0,0,0,157.15,229.81Z"/><path class="cls-12" d="M163.49,229.64a4,4,0,0,1,.39-1.78,2.86,2.86,0,0,1,2.67-1.68,2.84,2.84,0,0,1,2.23,1,3.74,3.74,0,0,1,.85,2.55v.16a4,4,0,0,1-.39,1.79,2.82,2.82,0,0,1-1.08,1.23,3,3,0,0,1-1.59.43,2.83,2.83,0,0,1-2.22-1,3.69,3.69,0,0,1-.86-2.55Zm.77.21a3.15,3.15,0,0,0,.63,2,2.06,2.06,0,0,0,1.68.79,2,2,0,0,0,1.66-.79,3.19,3.19,0,0,0,.64-2.08v-.15a3.56,3.56,0,0,0-.29-1.44,2.37,2.37,0,0,0-.82-1,2.08,2.08,0,0,0-1.21-.36,2,2,0,0,0-1.65.79,3.24,3.24,0,0,0-.64,2.09Z"/><path class="cls-12" d="M171.89,226.31l0,1.11a2.56,2.56,0,0,1,1-.93,2.6,2.6,0,0,1,1.27-.31,1.93,1.93,0,0,1,2.07,1.33,2.56,2.56,0,0,1,1-1,2.73,2.73,0,0,1,1.36-.35c1.47,0,2.22.8,2.25,2.41v4.59H180v-4.53a2.05,2.05,0,0,0-.4-1.37,1.63,1.63,0,0,0-1.27-.44,2,2,0,0,0-1.38.53,1.87,1.87,0,0,0-.63,1.26v4.55h-.76v-4.59a1.9,1.9,0,0,0-.42-1.31,1.65,1.65,0,0,0-1.26-.44,1.92,1.92,0,0,0-1.23.41,2.37,2.37,0,0,0-.76,1.22v4.71h-.76v-6.87Z"/><path class="cls-12" d="M187.05,233.18a3.85,3.85,0,0,1-.15-1,2.67,2.67,0,0,1-1,.8,3.13,3.13,0,0,1-1.32.28,2.29,2.29,0,0,1-1.6-.55,1.79,1.79,0,0,1-.61-1.4,1.85,1.85,0,0,1,.83-1.58,4,4,0,0,1,2.33-.59h1.38v-.78a1.5,1.5,0,0,0-.46-1.16,1.87,1.87,0,0,0-1.32-.42,2.05,2.05,0,0,0-1.31.41,1.19,1.19,0,0,0-.52,1h-.77a1.77,1.77,0,0,1,.77-1.42,2.91,2.91,0,0,1,1.87-.6,2.69,2.69,0,0,1,1.81.57,2.08,2.08,0,0,1,.68,1.61v3.25a4,4,0,0,0,.21,1.49v.08Zm-2.39-.55a2.5,2.5,0,0,0,1.36-.37,2.14,2.14,0,0,0,.88-1v-1.51h-1.36a3.42,3.42,0,0,0-1.78.41,1.25,1.25,0,0,0-.64,1.11,1.22,1.22,0,0,0,.43,1A1.62,1.62,0,0,0,184.66,232.63Zm1.5-9.2h.92l-1.47,1.77H185Z"/><path class="cls-12" d="M192.22,232.66a2,2,0,0,0,1.33-.45,1.58,1.58,0,0,0,.58-1.15h.73a2.07,2.07,0,0,1-.4,1.14,2.37,2.37,0,0,1-1,.81,3,3,0,0,1-1.28.29,2.66,2.66,0,0,1-2.15-.94,3.82,3.82,0,0,1-.79-2.52v-.23a4.25,4.25,0,0,1,.36-1.8,2.71,2.71,0,0,1,2.57-1.63,2.67,2.67,0,0,1,1.86.67,2.48,2.48,0,0,1,.79,1.77h-.73a1.92,1.92,0,0,0-.58-1.3,1.89,1.89,0,0,0-1.34-.49,1.92,1.92,0,0,0-1.6.74,3.43,3.43,0,0,0-.56,2.08v.22a3.38,3.38,0,0,0,.56,2.06A1.92,1.92,0,0,0,192.22,232.66Z"/><path class="cls-12" d="M197.1,226.31l0,1.17a2.81,2.81,0,0,1,1-1,2.51,2.51,0,0,1,1.27-.33,2.08,2.08,0,0,1,1.65.62,2.8,2.8,0,0,1,.54,1.87v4.51h-.75v-4.52a2.17,2.17,0,0,0-.39-1.37,1.54,1.54,0,0,0-1.23-.45,2,2,0,0,0-1.25.44,2.59,2.59,0,0,0-.8,1.19v4.71h-.76v-6.87Z"/><path class="cls-12" d="M203.1,229.64a4,4,0,0,1,.38-1.78,3,3,0,0,1,1.09-1.24,2.92,2.92,0,0,1,1.59-.44,2.83,2.83,0,0,1,2.22,1,3.69,3.69,0,0,1,.85,2.55v.16a4.16,4.16,0,0,1-.38,1.79,2.87,2.87,0,0,1-2.68,1.66,2.83,2.83,0,0,1-2.22-1,3.69,3.69,0,0,1-.85-2.55Zm.76.21a3.09,3.09,0,0,0,.64,2,2,2,0,0,0,1.67.79,2.05,2.05,0,0,0,1.67-.79,3.24,3.24,0,0,0,.63-2.08v-.15a3.4,3.4,0,0,0-.29-1.44,2.3,2.3,0,0,0-.82-1,2.07,2.07,0,0,0-1.2-.36,2,2,0,0,0-1.66.79,3.24,3.24,0,0,0-.64,2.09Z"/><path class="cls-12" d="M214.91,231.43a1.09,1.09,0,0,0-.45-.91,3.55,3.55,0,0,0-1.37-.53,6.11,6.11,0,0,1-1.42-.45,1.88,1.88,0,0,1-.75-.61,1.54,1.54,0,0,1-.24-.88,1.63,1.63,0,0,1,.67-1.34,2.79,2.79,0,0,1,1.74-.53,2.84,2.84,0,0,1,1.85.57,1.83,1.83,0,0,1,.69,1.48h-.76a1.23,1.23,0,0,0-.5-1,2,2,0,0,0-1.28-.4,2,2,0,0,0-1.2.33,1,1,0,0,0-.45.87.92.92,0,0,0,.37.79,4,4,0,0,0,1.38.52,7,7,0,0,1,1.5.5,2,2,0,0,1,.74.64,1.67,1.67,0,0,1,.24.91,1.63,1.63,0,0,1-.7,1.39,3,3,0,0,1-1.83.52,3.08,3.08,0,0,1-1.95-.58,1.81,1.81,0,0,1-.74-1.47h.76a1.33,1.33,0,0,0,.56,1,2.29,2.29,0,0,0,1.37.37,2.16,2.16,0,0,0,1.28-.35A1,1,0,0,0,214.91,231.43Z"/><path class="cls-12" d="M218.56,224.55v1.76H220v.62h-1.42v4.58a1.4,1.4,0,0,0,.21.85.77.77,0,0,0,.69.28,5,5,0,0,0,.61-.06l0,.62a2.54,2.54,0,0,1-.81.1,1.37,1.37,0,0,1-1.14-.45,2.19,2.19,0,0,1-.35-1.34v-4.58h-1.26v-.62h1.26v-1.76Z"/><path class="cls-12" d="M224.22,233.3a2.94,2.94,0,0,1-2.69-1.63,3.79,3.79,0,0,1-.39-1.73v-.27a4,4,0,0,1,.38-1.79,3.11,3.11,0,0,1,1.07-1.25,2.66,2.66,0,0,1,1.49-.45,2.47,2.47,0,0,1,2,.85,3.47,3.47,0,0,1,.73,2.34v.42h-4.9v.15a2.88,2.88,0,0,0,.67,1.94,2.14,2.14,0,0,0,1.69.78,2.25,2.25,0,0,0,1.92-.93l.48.36A2.77,2.77,0,0,1,224.22,233.3Zm-.14-6.47a1.91,1.91,0,0,0-1.45.63,2.85,2.85,0,0,0-.71,1.68H226v-.08a2.5,2.5,0,0,0-.57-1.61A1.72,1.72,0,0,0,224.08,226.83Z"/><path class="cls-12" d="M230.81,232.66a2,2,0,0,0,1.33-.45,1.54,1.54,0,0,0,.58-1.15h.73a2.14,2.14,0,0,1-.39,1.14,2.37,2.37,0,0,1-1,.81,3,3,0,0,1-1.29.29,2.64,2.64,0,0,1-2.14-.94,3.77,3.77,0,0,1-.79-2.52v-.23a4.41,4.41,0,0,1,.35-1.8,2.71,2.71,0,0,1,2.57-1.63,2.69,2.69,0,0,1,1.87.67,2.43,2.43,0,0,1,.78,1.77h-.73a1.83,1.83,0,0,0-1.92-1.79,1.9,1.9,0,0,0-1.59.74,3.36,3.36,0,0,0-.57,2.08v.22a3.32,3.32,0,0,0,.57,2.06A1.9,1.9,0,0,0,230.81,232.66Z"/><path class="cls-12" d="M235.72,227.47a2.65,2.65,0,0,1,1-.95,2.48,2.48,0,0,1,1.28-.34,2.08,2.08,0,0,1,1.64.62,2.86,2.86,0,0,1,.55,1.87v4.51h-.76v-4.52a2.05,2.05,0,0,0-.39-1.37,1.52,1.52,0,0,0-1.23-.45,1.92,1.92,0,0,0-1.24.44,2.61,2.61,0,0,0-.81,1.19v4.71H235v-9.75h.75Z"/><path class="cls-12" d="M241.94,234.9l-.45-.33a2.7,2.7,0,0,0,.6-1.6v-1h.74v.8A2.69,2.69,0,0,1,241.94,234.9Z"/><path class="cls-12" d="M104.86,239.92a.52.52,0,0,1,.14-.36.53.53,0,0,1,.91.36.46.46,0,0,1-.15.36.52.52,0,0,1-.9-.36Zm.9,8.86H105v-6.87h.77Z"/><path class="cls-12" d="M108.54,241.91l0,1.17a2.79,2.79,0,0,1,1-1,2.54,2.54,0,0,1,1.28-.33,2.08,2.08,0,0,1,1.64.62,2.86,2.86,0,0,1,.55,1.87v4.51h-.76v-4.52a2.05,2.05,0,0,0-.39-1.37,1.52,1.52,0,0,0-1.23-.45,1.92,1.92,0,0,0-1.24.44,2.61,2.61,0,0,0-.81,1.19v4.71h-.75v-6.87Z"/><path class="cls-12" d="M119.07,247a1.09,1.09,0,0,0-.45-.91,3.34,3.34,0,0,0-1.37-.53,6.11,6.11,0,0,1-1.42-.45,2,2,0,0,1-.75-.61,1.54,1.54,0,0,1-.24-.88,1.61,1.61,0,0,1,.68-1.34,2.75,2.75,0,0,1,1.74-.53,2.81,2.81,0,0,1,1.84.57,1.83,1.83,0,0,1,.7,1.48H119a1.2,1.2,0,0,0-.5-1,2,2,0,0,0-1.27-.4,2,2,0,0,0-1.21.33,1,1,0,0,0-.45.87.92.92,0,0,0,.38.79,4,4,0,0,0,1.38.52,7.06,7.06,0,0,1,1.49.5,1.89,1.89,0,0,1,.74.64,1.67,1.67,0,0,1,.24.91,1.64,1.64,0,0,1-.7,1.39,3,3,0,0,1-1.83.52,3,3,0,0,1-1.94-.58,1.79,1.79,0,0,1-.75-1.47h.76a1.33,1.33,0,0,0,.56,1,2.29,2.29,0,0,0,1.37.37,2.16,2.16,0,0,0,1.28-.35A1,1,0,0,0,119.07,247Z"/><path class="cls-12" d="M122.72,240.15v1.76h1.42v.62h-1.42v4.58a1.4,1.4,0,0,0,.21.85.8.8,0,0,0,.69.28,4.81,4.81,0,0,0,.61-.06l0,.62a2.46,2.46,0,0,1-.81.1,1.34,1.34,0,0,1-1.13-.45,2.12,2.12,0,0,1-.36-1.34v-4.58H120.7v-.62H122v-1.76Z"/><path class="cls-12" d="M125.67,239.92a.52.52,0,0,1,.14-.36.5.5,0,0,1,.38-.15.5.5,0,0,1,.53.51.49.49,0,0,1-.14.36.53.53,0,0,1-.39.15.5.5,0,0,1-.38-.15A.49.49,0,0,1,125.67,239.92Zm.9,8.86h-.76v-6.87h.76Z"/><path class="cls-12" d="M129.81,240.15v1.76h1.42v.62h-1.42v4.58a1.4,1.4,0,0,0,.21.85.8.8,0,0,0,.69.28,4.81,4.81,0,0,0,.61-.06l0,.62a2.46,2.46,0,0,1-.81.1,1.34,1.34,0,0,1-1.13-.45,2.12,2.12,0,0,1-.36-1.34v-4.58h-1.26v-.62h1.26v-1.76Z"/><path class="cls-12" d="M137.23,247.91a2.48,2.48,0,0,1-2.19,1,2.1,2.1,0,0,1-1.67-.64,2.78,2.78,0,0,1-.59-1.88v-4.47h.76v4.37c0,1.31.53,2,1.59,2a1.93,1.93,0,0,0,2.08-1.36v-5H138v6.87h-.74Z"/><path class="cls-12" d="M142.49,248.26a2,2,0,0,0,1.33-.45,1.54,1.54,0,0,0,.58-1.15h.73a2.14,2.14,0,0,1-.39,1.14,2.34,2.34,0,0,1-1,.81,2.9,2.9,0,0,1-1.28.29,2.63,2.63,0,0,1-2.14-.94,3.77,3.77,0,0,1-.79-2.52v-.23a4.41,4.41,0,0,1,.35-1.8,2.67,2.67,0,0,1,2.57-1.63,2.65,2.65,0,0,1,1.87.67,2.43,2.43,0,0,1,.78,1.77h-.73a1.83,1.83,0,0,0-1.92-1.79,1.9,1.9,0,0,0-1.59.74,3.36,3.36,0,0,0-.57,2.08v.22a3.32,3.32,0,0,0,.57,2.06A1.9,1.9,0,0,0,142.49,248.26Z"/><path class="cls-12" d="M147.88,239.1h.92l-1.47,1.78h-.66Zm-.4,9.68h-.76v-6.87h.76Z"/><path class="cls-12" d="M152.08,248.26a2,2,0,0,0,1.33-.45,1.54,1.54,0,0,0,.58-1.15h.73a2.14,2.14,0,0,1-.39,1.14,2.37,2.37,0,0,1-1,.81,3,3,0,0,1-1.29.29,2.64,2.64,0,0,1-2.14-.94,3.77,3.77,0,0,1-.79-2.52v-.23a4.41,4.41,0,0,1,.35-1.8,2.67,2.67,0,0,1,2.57-1.63,2.65,2.65,0,0,1,1.87.67,2.43,2.43,0,0,1,.78,1.77H154a1.83,1.83,0,0,0-1.92-1.79,1.9,1.9,0,0,0-1.59.74,3.36,3.36,0,0,0-.57,2.08v.22a3.32,3.32,0,0,0,.57,2.06A1.9,1.9,0,0,0,152.08,248.26Z"/><path class="cls-12" d="M157,243.07a2.65,2.65,0,0,1,1-.95,2.48,2.48,0,0,1,1.28-.34,2.08,2.08,0,0,1,1.64.62,2.86,2.86,0,0,1,.55,1.87v4.51h-.76v-4.52a2.05,2.05,0,0,0-.39-1.37,1.52,1.52,0,0,0-1.23-.45,1.92,1.92,0,0,0-1.24.44,2.61,2.61,0,0,0-.81,1.19v4.71h-.75V239H157Z"/><path class="cls-12" d="M170.87,248.78a3.85,3.85,0,0,1-.15-1,2.67,2.67,0,0,1-1,.8,3.13,3.13,0,0,1-1.32.28,2.29,2.29,0,0,1-1.6-.55,1.79,1.79,0,0,1-.61-1.4,1.84,1.84,0,0,1,.83-1.58,4,4,0,0,1,2.33-.59h1.38V244a1.49,1.49,0,0,0-.46-1.16,1.87,1.87,0,0,0-1.32-.42,2.05,2.05,0,0,0-1.31.41,1.19,1.19,0,0,0-.52,1h-.77a1.77,1.77,0,0,1,.77-1.42,2.91,2.91,0,0,1,1.87-.6,2.69,2.69,0,0,1,1.81.57,2.08,2.08,0,0,1,.68,1.61v3.25a4,4,0,0,0,.21,1.49v.08Zm-2.39-.55a2.56,2.56,0,0,0,1.37-.37,2.17,2.17,0,0,0,.87-1v-1.51h-1.36a3.33,3.33,0,0,0-1.78.41,1.25,1.25,0,0,0-.64,1.11,1.22,1.22,0,0,0,.43,1A1.62,1.62,0,0,0,168.48,248.23Z"/><path class="cls-12" d="M177.16,248.13h4.46v.65h-5.4v-.56l4.17-5.65h-4v-.66h5v.57Z"/><path class="cls-12" d="M185.54,248.9a3,3,0,0,1-1.58-.43,3,3,0,0,1-1.11-1.2,3.79,3.79,0,0,1-.39-1.73v-.27a4.16,4.16,0,0,1,.38-1.79,3.19,3.19,0,0,1,1.07-1.25,2.68,2.68,0,0,1,1.49-.45,2.47,2.47,0,0,1,2,.85,3.47,3.47,0,0,1,.74,2.34v.42h-4.9v.15a2.84,2.84,0,0,0,.67,1.94,2.1,2.1,0,0,0,1.68.78,2.45,2.45,0,0,0,1.08-.22,2.42,2.42,0,0,0,.84-.71l.48.36A2.77,2.77,0,0,1,185.54,248.9Zm-.14-6.47a1.89,1.89,0,0,0-1.44.63,2.86,2.86,0,0,0-.72,1.68h4.12v-.08a2.53,2.53,0,0,0-.56-1.61A1.75,1.75,0,0,0,185.4,242.43Z"/><path class="cls-12" d="M190.29,241.91l0,1.11a2.49,2.49,0,0,1,2.22-1.24,1.93,1.93,0,0,1,2.07,1.33,2.56,2.56,0,0,1,1-1,2.73,2.73,0,0,1,1.36-.35c1.47,0,2.22.8,2.25,2.41v4.59h-.76v-4.53a2.05,2.05,0,0,0-.4-1.37,1.63,1.63,0,0,0-1.27-.44,2,2,0,0,0-1.38.53,1.87,1.87,0,0,0-.63,1.26v4.55H194v-4.59a1.88,1.88,0,0,0-.42-1.32,1.64,1.64,0,0,0-1.26-.43,1.92,1.92,0,0,0-1.23.41,2.37,2.37,0,0,0-.76,1.22v4.71h-.76v-6.87Z"/><path class="cls-12" d="M203.78,248.9a2.94,2.94,0,0,1-2.69-1.63,3.79,3.79,0,0,1-.39-1.73v-.27a4.16,4.16,0,0,1,.38-1.79,3.11,3.11,0,0,1,1.07-1.25,2.66,2.66,0,0,1,1.49-.45,2.47,2.47,0,0,1,2,.85,3.47,3.47,0,0,1,.73,2.34v.42h-4.9v.15a2.89,2.89,0,0,0,.67,1.94,2.14,2.14,0,0,0,1.69.78,2.25,2.25,0,0,0,1.92-.93l.48.36A2.77,2.77,0,0,1,203.78,248.9Zm-.14-6.47a1.91,1.91,0,0,0-1.45.63,2.85,2.85,0,0,0-.71,1.68h4.12v-.08a2.48,2.48,0,0,0-.57-1.61A1.72,1.72,0,0,0,203.64,242.43Zm.07-2.08,1.09-1.24h.68v.08L204,240.85h-.55l-1.5-1.67v-.07h.68Z"/><path class="cls-12" d="M207.53,245.28a4.11,4.11,0,0,1,.71-2.55,2.31,2.31,0,0,1,1.94-.95,2.39,2.39,0,0,1,2.12,1.1V239h.76v9.75h-.71l0-.92a2.43,2.43,0,0,1-2.14,1,2.32,2.32,0,0,1-1.92-1,4.2,4.2,0,0,1-.72-2.58Zm.76.13a3.56,3.56,0,0,0,.53,2.07,1.7,1.7,0,0,0,1.49.76,2,2,0,0,0,2-1.24v-3.22a2,2,0,0,0-2-1.34,1.72,1.72,0,0,0-1.49.75A3.79,3.79,0,0,0,208.29,245.41Z"/><path class="cls-12" d="M217.72,248.9a2.94,2.94,0,0,1-2.69-1.63,3.79,3.79,0,0,1-.39-1.73v-.27a4,4,0,0,1,.38-1.79,3.11,3.11,0,0,1,1.07-1.25,2.66,2.66,0,0,1,1.49-.45,2.47,2.47,0,0,1,2,.85,3.47,3.47,0,0,1,.73,2.34v.42h-4.9v.15a2.89,2.89,0,0,0,.67,1.94,2.14,2.14,0,0,0,1.69.78,2.25,2.25,0,0,0,1.92-.93l.48.36A2.77,2.77,0,0,1,217.72,248.9Zm-.14-6.47a1.91,1.91,0,0,0-1.45.63,2.85,2.85,0,0,0-.71,1.68h4.12v-.08a2.48,2.48,0,0,0-.57-1.61A1.72,1.72,0,0,0,217.58,242.43Zm.07-2.08,1.09-1.24h.68v.08l-1.49,1.66h-.55l-1.5-1.67v-.07h.68Z"/><path class="cls-12" d="M222.62,248.78h-.76V239h.76Z"/><path class="cls-12" d="M228.8,247a1.07,1.07,0,0,0-.46-.91,3.29,3.29,0,0,0-1.36-.53,6,6,0,0,1-1.42-.45,1.88,1.88,0,0,1-.75-.61,1.55,1.55,0,0,1-.25-.88,1.64,1.64,0,0,1,.68-1.34,2.79,2.79,0,0,1,1.74-.53,2.84,2.84,0,0,1,1.85.57,1.83,1.83,0,0,1,.69,1.48h-.76a1.23,1.23,0,0,0-.5-1,2.29,2.29,0,0,0-2.48-.07,1,1,0,0,0-.45.87.92.92,0,0,0,.37.79,4.08,4.08,0,0,0,1.38.52,7,7,0,0,1,1.5.5,2,2,0,0,1,.74.64,1.67,1.67,0,0,1,.24.91,1.64,1.64,0,0,1-.7,1.39,3,3,0,0,1-1.83.52,3.08,3.08,0,0,1-1.95-.58,1.78,1.78,0,0,1-.74-1.47h.76a1.31,1.31,0,0,0,.56,1,2.27,2.27,0,0,0,1.37.37,2.18,2.18,0,0,0,1.28-.35A1,1,0,0,0,228.8,247Z"/><path class="cls-12" d="M232.45,240.15v1.76h1.42v.62h-1.42v4.58a1.48,1.48,0,0,0,.2.85.8.8,0,0,0,.69.28,4.93,4.93,0,0,0,.62-.06l0,.62a2.54,2.54,0,0,1-.81.1,1.37,1.37,0,0,1-1.14-.45,2.12,2.12,0,0,1-.35-1.34v-4.58h-1.27v-.62h1.27v-1.76Z"/><path class="cls-12" d="M237.58,247.73l2.09-5.82h.78l-2.56,6.87h-.62l-2.57-6.87h.78Z"/><path class="cls-12" d="M242.93,239.1h.92l-1.47,1.78h-.66Zm-.4,9.68h-.76v-6.87h.76Z"/><g class="cls-13"><path class="cls-14" d="M103.86,304.76v3.62h-1.22v-9.24h3.41a3.43,3.43,0,0,1,2.38.77,2.64,2.64,0,0,1,.86,2,2.58,2.58,0,0,1-.84,2.07,3.56,3.56,0,0,1-2.41.73Zm0-1h2.19a2.19,2.19,0,0,0,1.5-.46,1.66,1.66,0,0,0,.52-1.33,1.73,1.73,0,0,0-.52-1.32,2.09,2.09,0,0,0-1.43-.52h-2.26Z"/><path class="cls-14" d="M114,302.56a3.52,3.52,0,0,0-.58,0,1.56,1.56,0,0,0-1.57,1v4.88h-1.17v-6.87h1.14l0,.79a1.84,1.84,0,0,1,1.64-.92,1.18,1.18,0,0,1,.52.09Z"/><path class="cls-14" d="M119.3,307.7a2.49,2.49,0,0,1-2,.81,2.17,2.17,0,0,1-1.68-.64A2.83,2.83,0,0,1,115,306v-4.47h1.18V306c0,1,.42,1.56,1.27,1.56a1.78,1.78,0,0,0,1.79-1v-5h1.17v6.87h-1.12Zm-.17-8.33a1.2,1.2,0,0,1-.39.92,1.44,1.44,0,0,1-1.95,0,1.22,1.22,0,0,1-.39-.92,1.27,1.27,0,0,1,.39-.93,1.33,1.33,0,0,1,1-.39,1.31,1.31,0,0,1,1,.39A1.27,1.27,0,0,1,119.13,299.37Zm-2.1,0a.74.74,0,0,0,1.26.52.71.71,0,0,0,.22-.52.75.75,0,0,0-.22-.53.71.71,0,0,0-.52-.22.73.73,0,0,0-.53.22A.76.76,0,0,0,117,299.37Z"/><path class="cls-14" d="M123.33,301.51l0,.76a2.54,2.54,0,0,1,2-.89,2,2,0,0,1,2,1.11,2.63,2.63,0,0,1,.89-.8,2.69,2.69,0,0,1,1.3-.31c1.51,0,2.27.8,2.3,2.4v4.6h-1.18v-4.53a1.64,1.64,0,0,0-.33-1.11,1.5,1.5,0,0,0-1.13-.36,1.57,1.57,0,0,0-1.09.39,1.59,1.59,0,0,0-.5,1.05v4.56h-1.18v-4.5a1.31,1.31,0,0,0-1.47-1.5,1.58,1.58,0,0,0-1.58,1v5h-1.17v-6.87Z"/><path class="cls-14" d="M135.87,306.66l1.6-5.15h1.25L136,309.44q-.65,1.71-2,1.71l-.22,0-.44-.08v-.95l.32,0a1.56,1.56,0,0,0,.93-.24,1.71,1.71,0,0,0,.55-.88l.26-.7-2.45-6.79h1.28Z"/><path class="cls-14" d="M143.77,306.56a.85.85,0,0,0-.36-.74,3.45,3.45,0,0,0-1.25-.46,6,6,0,0,1-1.42-.45,2,2,0,0,1-.77-.64,1.48,1.48,0,0,1-.25-.87,1.79,1.79,0,0,1,.71-1.43,3.18,3.18,0,0,1,3.72,0,1.89,1.89,0,0,1,.73,1.54H143.7a1.07,1.07,0,0,0-.41-.83,1.5,1.5,0,0,0-1-.35,1.57,1.57,0,0,0-1,.28.86.86,0,0,0-.37.73.72.72,0,0,0,.34.64,4.18,4.18,0,0,0,1.22.41,6.36,6.36,0,0,1,1.42.47,2.1,2.1,0,0,1,.81.66,1.57,1.57,0,0,1,.26.93,1.75,1.75,0,0,1-.73,1.48,3.09,3.09,0,0,1-1.91.56,3.37,3.37,0,0,1-1.46-.3,2.31,2.31,0,0,1-1-.81,2,2,0,0,1-.36-1.13h1.18a1.21,1.21,0,0,0,.47.93,1.85,1.85,0,0,0,1.17.35,1.91,1.91,0,0,0,1.07-.27A.85.85,0,0,0,143.77,306.56Z"/><path class="cls-14" d="M147.75,308.38h-1.18v-9.75h1.18Z"/><path class="cls-14" d="M149.32,304.88a4.08,4.08,0,0,1,.39-1.81,2.93,2.93,0,0,1,2.72-1.69,2.88,2.88,0,0,1,2.27,1,3.7,3.7,0,0,1,.87,2.58V305a4.17,4.17,0,0,1-.38,1.8,3,3,0,0,1-1.1,1.24,3,3,0,0,1-1.64.45,2.91,2.91,0,0,1-2.27-1,3.73,3.73,0,0,1-.86-2.57Zm1.18.14a2.93,2.93,0,0,0,.53,1.84,1.69,1.69,0,0,0,1.42.69,1.71,1.71,0,0,0,1.42-.7,3.25,3.25,0,0,0,.53-2,2.93,2.93,0,0,0-.54-1.83,1.79,1.79,0,0,0-2.83,0A3.22,3.22,0,0,0,150.5,305Z"/><path class="cls-14" d="M159.21,306.78l1.7-5.27h1.2l-2.46,6.87h-.89l-2.49-6.87h1.2Z"/><path class="cls-14" d="M166,308.51a3,3,0,0,1-2.27-.92,3.43,3.43,0,0,1-.88-2.46v-.21a4.17,4.17,0,0,1,.39-1.83,3,3,0,0,1,1.1-1.25,2.66,2.66,0,0,1,1.52-.46,2.58,2.58,0,0,1,2.08.89,3.83,3.83,0,0,1,.74,2.52v.49H164a2.4,2.4,0,0,0,.59,1.64,1.86,1.86,0,0,0,1.45.63,2,2,0,0,0,1-.26,2.52,2.52,0,0,0,.75-.67l.72.56A2.89,2.89,0,0,1,166,308.51Zm-.14-6.16a1.55,1.55,0,0,0-1.2.52,2.44,2.44,0,0,0-.59,1.45h3.44v-.09a2.27,2.27,0,0,0-.49-1.39A1.44,1.44,0,0,0,165.87,302.35Zm.57-3.72h1.42l-1.7,1.86h-.95Z"/><path class="cls-14" d="M179.07,305a4.11,4.11,0,0,1-.72,2.53,2.29,2.29,0,0,1-1.94,1,2.53,2.53,0,0,1-2-.8V311h-1.17v-9.51h1.07l.06.76a2.42,2.42,0,0,1,2-.89,2.35,2.35,0,0,1,2,.94,4.13,4.13,0,0,1,.72,2.59Zm-1.18-.13a3,3,0,0,0-.49-1.84,1.59,1.59,0,0,0-1.36-.67,1.74,1.74,0,0,0-1.6.95v3.28a1.74,1.74,0,0,0,1.61.94,1.62,1.62,0,0,0,1.35-.67A3.34,3.34,0,0,0,177.89,304.89Z"/><path class="cls-14" d="M183.88,302.56a3.52,3.52,0,0,0-.58,0,1.56,1.56,0,0,0-1.57,1v4.88h-1.17v-6.87h1.14l0,.79a1.84,1.84,0,0,1,1.64-.92,1.18,1.18,0,0,1,.52.09Z"/><path class="cls-14" d="M184.52,304.88a4,4,0,0,1,.4-1.81,2.92,2.92,0,0,1,1.1-1.25,3,3,0,0,1,1.62-.44,2.91,2.91,0,0,1,2.27,1,3.74,3.74,0,0,1,.86,2.58V305a4.17,4.17,0,0,1-.38,1.8,2.89,2.89,0,0,1-1.1,1.24,3,3,0,0,1-1.64.45,2.87,2.87,0,0,1-2.26-1,3.69,3.69,0,0,1-.87-2.57Zm1.18.14a3,3,0,0,0,.53,1.84,1.8,1.8,0,0,0,2.84,0,3.25,3.25,0,0,0,.53-2,2.93,2.93,0,0,0-.54-1.83,1.79,1.79,0,0,0-2.83,0A3.22,3.22,0,0,0,185.7,305Z"/><path class="cls-14" d="M195,307.55a1.71,1.71,0,0,0,1.1-.38,1.35,1.35,0,0,0,.52-1h1.11a2.14,2.14,0,0,1-.41,1.13,2.69,2.69,0,0,1-1,.85,3,3,0,0,1-3.55-.62,3.74,3.74,0,0,1-.83-2.56v-.2a4,4,0,0,1,.37-1.78,2.73,2.73,0,0,1,1.06-1.21,3,3,0,0,1,1.62-.44,2.72,2.72,0,0,1,1.92.7,2.46,2.46,0,0,1,.82,1.79h-1.11a1.56,1.56,0,0,0-.51-1.09,1.54,1.54,0,0,0-1.12-.43,1.62,1.62,0,0,0-1.38.64,3,3,0,0,0-.5,1.87v.22a3,3,0,0,0,.49,1.83A1.68,1.68,0,0,0,195,307.55Z"/><path class="cls-14" d="M201.9,308.51a3,3,0,0,1-2.27-.92,3.39,3.39,0,0,1-.88-2.46v-.21a4.17,4.17,0,0,1,.39-1.83,3.09,3.09,0,0,1,1.09-1.25,2.71,2.71,0,0,1,1.52-.46,2.59,2.59,0,0,1,2.09.89,3.83,3.83,0,0,1,.74,2.52v.49h-4.65a2.4,2.4,0,0,0,.59,1.64,1.86,1.86,0,0,0,1.44.63,2.06,2.06,0,0,0,1.06-.26,2.64,2.64,0,0,0,.75-.67l.72.56A2.9,2.9,0,0,1,201.9,308.51Zm-.15-6.16a1.55,1.55,0,0,0-1.19.52,2.51,2.51,0,0,0-.6,1.45h3.44v-.09a2.21,2.21,0,0,0-.48-1.39A1.46,1.46,0,0,0,201.75,302.35Z"/><path class="cls-14" d="M209.94,306.56a.85.85,0,0,0-.36-.74,3.45,3.45,0,0,0-1.25-.46,6,6,0,0,1-1.42-.45,1.93,1.93,0,0,1-.77-.64,1.48,1.48,0,0,1-.25-.87,1.79,1.79,0,0,1,.71-1.43,3.18,3.18,0,0,1,3.72,0,1.92,1.92,0,0,1,.73,1.54h-1.18a1.07,1.07,0,0,0-.41-.83,1.52,1.52,0,0,0-1-.35,1.6,1.6,0,0,0-1,.28.87.87,0,0,0-.36.73.7.7,0,0,0,.34.64,4.21,4.21,0,0,0,1.21.41,6.46,6.46,0,0,1,1.43.47,2.1,2.1,0,0,1,.81.66,1.64,1.64,0,0,1,.26.93,1.75,1.75,0,0,1-.73,1.48,3.12,3.12,0,0,1-1.92.56,3.4,3.4,0,0,1-1.46-.3,2.34,2.34,0,0,1-1-.81,2,2,0,0,1-.36-1.13h1.18a1.21,1.21,0,0,0,.47.93,1.82,1.82,0,0,0,1.16.35,1.88,1.88,0,0,0,1.07-.27A.83.83,0,0,0,209.94,306.56Z"/><path class="cls-14" d="M214.89,306.66l1.6-5.15h1.25L215,309.44c-.42,1.14-1.1,1.71-2,1.71l-.23,0-.43-.08v-.95l.31,0a1.56,1.56,0,0,0,.93-.24,1.65,1.65,0,0,0,.55-.88l.26-.7-2.45-6.79h1.28Z"/><path class="cls-14" d="M222,304.63a9.69,9.69,0,0,1,.38-2.76,8.07,8.07,0,0,1,1.15-2.4,4.78,4.78,0,0,1,1.58-1.52l.24.77a5,5,0,0,0-1.52,2.17,9.2,9.2,0,0,0-.65,3.27v.54A9.45,9.45,0,0,0,224,309a4.79,4.79,0,0,0,1.28,1.68l-.24.72a5.07,5.07,0,0,1-1.62-1.57A8.89,8.89,0,0,1,222,304.63Z"/><path class="cls-14" d="M228.72,306.78l1.7-5.27h1.2l-2.46,6.87h-.9l-2.49-6.87H227Z"/><path class="cls-14" d="M235,306.66l1.6-5.15h1.25l-2.76,7.93q-.63,1.71-2,1.71l-.22,0-.44-.08v-.95l.32,0a1.56,1.56,0,0,0,.93-.24,1.71,1.71,0,0,0,.55-.88l.26-.7L232,301.51h1.28Zm.66-8h1.43l-1.7,1.86h-.95Z"/><path class="cls-14" d="M242.22,302.56a3.52,3.52,0,0,0-.58,0,1.54,1.54,0,0,0-1.56,1v4.88H238.9v-6.87H240l0,.79a1.84,1.84,0,0,1,1.64-.92,1.18,1.18,0,0,1,.52.09Z"/><path class="cls-14" d="M242.86,304.88a4,4,0,0,1,.4-1.81,2.92,2.92,0,0,1,1.1-1.25,3,3,0,0,1,1.62-.44,2.91,2.91,0,0,1,2.27,1,3.69,3.69,0,0,1,.86,2.58V305a4,4,0,0,1-.38,1.8,2.89,2.89,0,0,1-1.1,1.24,3,3,0,0,1-1.64.45,2.89,2.89,0,0,1-2.26-1,3.69,3.69,0,0,1-.87-2.57ZM244,305a3,3,0,0,0,.53,1.84,1.8,1.8,0,0,0,2.84,0,3.25,3.25,0,0,0,.53-2,2.93,2.93,0,0,0-.54-1.83,1.78,1.78,0,0,0-2.82,0A3.15,3.15,0,0,0,244,305Z"/><path class="cls-14" d="M256.4,305a4.11,4.11,0,0,1-.72,2.53,2.3,2.3,0,0,1-1.94,1,2.42,2.42,0,0,1-2-.92l-.05.79h-1.08v-9.75h1.17v3.64a2.39,2.39,0,0,1,2-.89,2.34,2.34,0,0,1,2,.95,4.24,4.24,0,0,1,.71,2.59Zm-1.17-.13a3.19,3.19,0,0,0-.47-1.86,1.53,1.53,0,0,0-1.33-.65,1.73,1.73,0,0,0-1.67,1.08v3a1.77,1.77,0,0,0,1.68,1.08,1.55,1.55,0,0,0,1.32-.65A3.43,3.43,0,0,0,255.23,304.89Z"/><path class="cls-14" d="M262.12,308.38a2.42,2.42,0,0,1-.16-.72,2.66,2.66,0,0,1-2,.85,2.46,2.46,0,0,1-1.67-.58,1.87,1.87,0,0,1-.65-1.46,1.94,1.94,0,0,1,.82-1.66,3.8,3.8,0,0,1,2.29-.6h1.15v-.53a1.36,1.36,0,0,0-.37-1,1.51,1.51,0,0,0-1.09-.36,1.7,1.7,0,0,0-1.05.32.93.93,0,0,0-.43.76h-1.18a1.59,1.59,0,0,1,.37-1,2.48,2.48,0,0,1,1-.76,3.42,3.42,0,0,1,1.37-.28,2.7,2.7,0,0,1,1.86.6,2.14,2.14,0,0,1,.7,1.63v3.16a3.91,3.91,0,0,0,.24,1.51v.1Zm-1.95-.9a2.07,2.07,0,0,0,1.05-.28,1.73,1.73,0,0,0,.72-.75v-1.4H261q-2.16,0-2.16,1.26a1,1,0,0,0,.37.86A1.38,1.38,0,0,0,260.17,307.48Z"/><path class="cls-14" d="M267.66,304.69a9.69,9.69,0,0,1-.37,2.71,8,8,0,0,1-1.13,2.4,5,5,0,0,1-1.61,1.56l-.25-.72a5,5,0,0,0,1.58-2.32,10.23,10.23,0,0,0,.6-3.5v-.2a10.24,10.24,0,0,0-.28-2.48,8.23,8.23,0,0,0-.77-2.06,4.86,4.86,0,0,0-1.13-1.41l.25-.72a5.05,5.05,0,0,1,1.6,1.55,8.36,8.36,0,0,1,1.14,2.39A10.13,10.13,0,0,1,267.66,304.69Z"/></g><path class="cls-14" d="M173.56,365.76l2.9-9.63h2.93l-4.45,12.8h-2.75l-4.44-12.8h2.93Z"/><path class="cls-14" d="M183.89,365.34l1.75-5.92h2.73l-3.83,11-.21.5a2.89,2.89,0,0,1-2.81,1.86,4,4,0,0,1-1.12-.16v-1.93h.38a2.08,2.08,0,0,0,1.08-.22,1.48,1.48,0,0,0,.56-.73l.3-.78-3.33-9.54h2.73Zm.55-9.91h2.77l-2.44,2.73h-2.06Z"/><path class="cls-14" d="M194.71,361.8a8.2,8.2,0,0,0-.91-.07,1.87,1.87,0,0,0-1.89,1v6.22h-2.54v-9.51h2.4l.07,1.14a2.34,2.34,0,0,1,2.12-1.31,2.56,2.56,0,0,1,.79.11Z"/><path class="cls-14" d="M195.22,364.09a5.53,5.53,0,0,1,.55-2.52,4,4,0,0,1,1.57-1.72,4.59,4.59,0,0,1,2.37-.6,4.37,4.37,0,0,1,3.15,1.17,4.74,4.74,0,0,1,1.35,3.2l0,.65a5,5,0,0,1-1.22,3.51,4.72,4.72,0,0,1-6.56,0,5.06,5.06,0,0,1-1.23-3.59Zm2.54.18a3.55,3.55,0,0,0,.51,2.07,1.83,1.83,0,0,0,2.9,0,3.86,3.86,0,0,0,.52-2.27,3.51,3.51,0,0,0-.52-2.06,1.69,1.69,0,0,0-1.46-.73,1.67,1.67,0,0,0-1.44.73A3.94,3.94,0,0,0,197.76,364.27Z"/><path class="cls-14" d="M214.37,364.26a5.76,5.76,0,0,1-1,3.57,3.24,3.24,0,0,1-2.72,1.28,3,3,0,0,1-2.47-1.19l-.12,1H205.8v-13.5h2.54v4.84a2.88,2.88,0,0,1,2.31-1,3.24,3.24,0,0,1,2.73,1.28,5.74,5.74,0,0,1,1,3.59Zm-2.54-.18a3.86,3.86,0,0,0-.46-2.11,1.55,1.55,0,0,0-1.36-.66,1.67,1.67,0,0,0-1.67,1v3.76a1.69,1.69,0,0,0,1.68,1,1.57,1.57,0,0,0,1.62-1.21A6.38,6.38,0,0,0,211.83,364.08Z"/><path class="cls-14" d="M221.44,368.93a2.67,2.67,0,0,1-.25-.85,3.11,3.11,0,0,1-2.4,1,3.36,3.36,0,0,1-2.32-.81,2.61,2.61,0,0,1-.92-2,2.7,2.7,0,0,1,1.12-2.32,5.57,5.57,0,0,1,3.24-.82h1.17v-.54a1.57,1.57,0,0,0-.34-1.06,1.33,1.33,0,0,0-1.07-.39,1.53,1.53,0,0,0-1,.3,1,1,0,0,0-.37.85h-2.54a2.56,2.56,0,0,1,.51-1.53,3.31,3.31,0,0,1,1.44-1.1,5.24,5.24,0,0,1,2.1-.4,4.15,4.15,0,0,1,2.79.88,3.12,3.12,0,0,1,1,2.48v4.12a4.52,4.52,0,0,0,.38,2v.15Zm-2.1-1.77a2.16,2.16,0,0,0,1-.25,1.62,1.62,0,0,0,.7-.67v-1.63h-1c-1.27,0-1.95.44-2,1.32v.15a1,1,0,0,0,.34.78A1.3,1.3,0,0,0,219.34,367.16Z"/><path class="cls-14" d="M234,367.06a1.64,1.64,0,0,0,1.14-.39,1.37,1.37,0,0,0,.46-1H238a3.29,3.29,0,0,1-.53,1.78,3.43,3.43,0,0,1-1.42,1.24,4.38,4.38,0,0,1-2,.45,4.09,4.09,0,0,1-3.21-1.3,5.1,5.1,0,0,1-1.18-3.58v-.17a5.05,5.05,0,0,1,1.17-3.5,4.57,4.57,0,0,1,6.07-.3A3.62,3.62,0,0,1,238,363h-2.38a1.75,1.75,0,0,0-.46-1.2,1.69,1.69,0,0,0-2.5.18,3.76,3.76,0,0,0-.45,2.1v.26a3.82,3.82,0,0,0,.45,2.12A1.53,1.53,0,0,0,234,367.06Z"/><path class="cls-14" d="M243.83,369.11a4.66,4.66,0,0,1-3.41-1.29,4.52,4.52,0,0,1-1.31-3.41v-.25a5.7,5.7,0,0,1,.55-2.56,4,4,0,0,1,1.57-1.74,4.39,4.39,0,0,1,2.32-.61,4,4,0,0,1,3.07,1.23,5,5,0,0,1,1.12,3.49v1h-6.06a2.35,2.35,0,0,0,.75,1.5,2.24,2.24,0,0,0,1.56.56,2.77,2.77,0,0,0,2.3-1.06l1.25,1.39a3.86,3.86,0,0,1-1.55,1.26A5,5,0,0,1,243.83,369.11Zm-.29-7.82a1.56,1.56,0,0,0-1.23.52,2.69,2.69,0,0,0-.6,1.46h3.53v-.2a1.84,1.84,0,0,0-.46-1.31A1.61,1.61,0,0,0,243.54,361.29Z"/><path class="cls-14" d="M251.56,359.42l.08,1.07a3.32,3.32,0,0,1,2.73-1.24,2.54,2.54,0,0,1,2.53,1.45,3.24,3.24,0,0,1,2.85-1.45,2.83,2.83,0,0,1,2.3.9,4.1,4.1,0,0,1,.76,2.71v6.07h-2.55v-6.06a1.79,1.79,0,0,0-.31-1.18,1.43,1.43,0,0,0-1.12-.38,1.58,1.58,0,0,0-1.58,1.09v6.53h-2.54v-6.05a1.79,1.79,0,0,0-.33-1.2,1.41,1.41,0,0,0-1.11-.37,1.64,1.64,0,0,0-1.56.9v6.72h-2.54v-9.51Z"/><path class="cls-14" d="M269.14,369.11a4.66,4.66,0,0,1-3.41-1.29,4.56,4.56,0,0,1-1.31-3.41v-.25a5.7,5.7,0,0,1,.55-2.56,4,4,0,0,1,1.57-1.74,4.39,4.39,0,0,1,2.32-.61,4,4,0,0,1,3.07,1.23,5,5,0,0,1,1.12,3.49v1H267a2.4,2.4,0,0,0,.75,1.5,2.25,2.25,0,0,0,1.57.56A2.77,2.77,0,0,0,271.6,366l1.25,1.39a3.8,3.8,0,0,1-1.55,1.26A5,5,0,0,1,269.14,369.11Zm-.29-7.82a1.59,1.59,0,0,0-1.23.52,2.69,2.69,0,0,0-.6,1.46h3.53v-.2a1.88,1.88,0,0,0-.45-1.31A1.65,1.65,0,0,0,268.85,361.29Z"/><path class="cls-14" d="M276.83,359.42l.08,1.1a3.31,3.31,0,0,1,2.73-1.27,2.76,2.76,0,0,1,2.25.88,4.17,4.17,0,0,1,.76,2.66v6.14h-2.54v-6.08a1.65,1.65,0,0,0-.35-1.17,1.56,1.56,0,0,0-1.17-.37,1.75,1.75,0,0,0-1.61.92v6.7h-2.54v-9.51Z"/><path class="cls-14" d="M287.61,357.08v2.34h1.63v1.86h-1.63V366a1.13,1.13,0,0,0,.21.76,1,1,0,0,0,.77.23,4.16,4.16,0,0,0,.75-.07v1.93a5.32,5.32,0,0,1-1.54.23,2.43,2.43,0,0,1-2.73-2.7v-5.13h-1.39v-1.86h1.39v-2.34Z"/><path class="cls-14" d="M296.35,368a3.16,3.16,0,0,1-2.6,1.15,3,3,0,0,1-2.33-.88,3.75,3.75,0,0,1-.83-2.58v-6.23h2.54v6.15c0,1,.45,1.49,1.36,1.49a1.82,1.82,0,0,0,1.77-.9v-6.74h2.55v9.51h-2.39Z"/><path class="cls-14" d="M300.85,360.49a1.29,1.29,0,0,1,.41-1,1.45,1.45,0,0,1,1-.38,1.5,1.5,0,0,1,1,.38,1.28,1.28,0,0,1,.4,1,1.27,1.27,0,0,1-.4,1,1.63,1.63,0,0,1-2.07,0A1.27,1.27,0,0,1,300.85,360.49Zm0,7.19a1.28,1.28,0,0,1,.41-1,1.45,1.45,0,0,1,1-.38,1.5,1.5,0,0,1,1,.38,1.27,1.27,0,0,1,.4,1,1.24,1.24,0,0,1-.4,1,1.6,1.6,0,0,1-2.07,0A1.24,1.24,0,0,1,300.85,367.68Z"/><path class="cls-14" d="M130.76,384.67a4.51,4.51,0,0,1-1.53,3.25,5.38,5.38,0,0,1-3.63,1.19,4.8,4.8,0,0,1-3.87-1.66,6.79,6.79,0,0,1-1.41-4.55v-.78a7.73,7.73,0,0,1,.65-3.25,4.94,4.94,0,0,1,1.86-2.16,5.22,5.22,0,0,1,2.81-.75,5.17,5.17,0,0,1,3.57,1.19,4.86,4.86,0,0,1,1.56,3.33h-2.63a2.72,2.72,0,0,0-.69-1.8,2.58,2.58,0,0,0-1.81-.56,2.23,2.23,0,0,0-2,.95A5.31,5.31,0,0,0,123,382v1a5.67,5.67,0,0,0,.63,3,2.21,2.21,0,0,0,2,.95,2.62,2.62,0,0,0,1.83-.55,2.56,2.56,0,0,0,.69-1.73Z"/><path class="cls-14" d="M143,382.82a7.69,7.69,0,0,1-.67,3.32,4.93,4.93,0,0,1-1.91,2.19,5.25,5.25,0,0,1-2.85.78,5.33,5.33,0,0,1-2.84-.77,5.09,5.09,0,0,1-1.94-2.18,7.7,7.7,0,0,1-.69-3.27v-.63a7.77,7.77,0,0,1,.68-3.33,5.06,5.06,0,0,1,1.93-2.2,5.62,5.62,0,0,1,5.68,0,5.13,5.13,0,0,1,1.93,2.2,7.75,7.75,0,0,1,.68,3.32Zm-2.67-.58a5.4,5.4,0,0,0-.72-3.06,2.37,2.37,0,0,0-2.06-1,2.34,2.34,0,0,0-2.05,1,5.37,5.37,0,0,0-.73,3v.62a5.44,5.44,0,0,0,.72,3,2.52,2.52,0,0,0,4.12,0,5.46,5.46,0,0,0,.72-3Z"/><path class="cls-14" d="M149.39,392.5h-5.11v-1l2.41-2.57a6.58,6.58,0,0,0,.74-.95,1.53,1.53,0,0,0,.24-.77,1.18,1.18,0,0,0-.25-.78.92.92,0,0,0-.72-.29,1,1,0,0,0-.79.35,1.33,1.33,0,0,0-.29.91h-1.49a2.43,2.43,0,0,1,.33-1.25,2.23,2.23,0,0,1,.92-.88,2.79,2.79,0,0,1,1.34-.32,2.63,2.63,0,0,1,1.79.55,2,2,0,0,1,.64,1.57,2.5,2.5,0,0,1-.28,1.12,6.29,6.29,0,0,1-1,1.34l-1.7,1.79h3.21Z"/><path class="cls-14" d="M158.17,386.88h4.65v2.05h-7.89v-1.55l4.47-5.91h-4.34v-2.05h7.62v1.5Z"/><path class="cls-14" d="M172.85,387.06a1.66,1.66,0,0,0,1.14-.39,1.4,1.4,0,0,0,.46-1h2.38a3.29,3.29,0,0,1-.53,1.78,3.5,3.5,0,0,1-1.42,1.24,4.38,4.38,0,0,1-2,.45,4.12,4.12,0,0,1-3.22-1.3,5.15,5.15,0,0,1-1.17-3.58v-.17a5.1,5.1,0,0,1,1.16-3.5,4.06,4.06,0,0,1,3.21-1.31,4,4,0,0,1,2.86,1,3.59,3.59,0,0,1,1.1,2.7h-2.38a1.8,1.8,0,0,0-.46-1.2,1.69,1.69,0,0,0-2.5.18A3.76,3.76,0,0,0,171,384v.26a3.83,3.83,0,0,0,.44,2.12A1.56,1.56,0,0,0,172.85,387.06Z"/><path class="cls-14" d="M180.76,380.46a3.16,3.16,0,0,1,2.54-1.21c2.06,0,3.1,1.19,3.13,3.59v6.09h-2.54v-6a1.75,1.75,0,0,0-.35-1.21,1.5,1.5,0,0,0-1.17-.39,1.72,1.72,0,0,0-1.61.86v6.76h-2.54v-13.5h2.54Z"/><path class="cls-14" d="M192.73,389.11a4.66,4.66,0,0,1-3.41-1.29,4.52,4.52,0,0,1-1.31-3.41v-.25a5.7,5.7,0,0,1,.55-2.56,4,4,0,0,1,1.57-1.74,4.39,4.39,0,0,1,2.32-.61,4,4,0,0,1,3.07,1.23,5,5,0,0,1,1.12,3.49v1h-6.06a2.35,2.35,0,0,0,.75,1.5,2.24,2.24,0,0,0,1.56.56,2.77,2.77,0,0,0,2.3-1.06l1.25,1.39a3.86,3.86,0,0,1-1.55,1.26A5,5,0,0,1,192.73,389.11Zm-.29-7.82a1.56,1.56,0,0,0-1.23.52,2.69,2.69,0,0,0-.6,1.46h3.53v-.2a1.84,1.84,0,0,0-.46-1.31A1.61,1.61,0,0,0,192.44,381.29Z"/><path class="cls-14" d="M200.46,379.42l.08,1.07a3.33,3.33,0,0,1,2.73-1.24,2.54,2.54,0,0,1,2.53,1.45,3.24,3.24,0,0,1,2.85-1.45,2.86,2.86,0,0,1,2.31.9,4.15,4.15,0,0,1,.75,2.71v6.07h-2.55v-6.06a1.79,1.79,0,0,0-.31-1.18,1.41,1.41,0,0,0-1.12-.38,1.58,1.58,0,0,0-1.58,1.09v6.53h-2.54v-6.05a1.79,1.79,0,0,0-.33-1.2,1.4,1.4,0,0,0-1.11-.37,1.64,1.64,0,0,0-1.56.9v6.72h-2.54v-9.51Z"/><path class="cls-14" d="M213.64,377A1.24,1.24,0,0,1,214,376a1.41,1.41,0,0,1,1-.37,1.44,1.44,0,0,1,1,.37,1.27,1.27,0,0,1,.38.94,1.25,1.25,0,0,1-.39,1,1.62,1.62,0,0,1-2.06,0A1.22,1.22,0,0,1,213.64,377Zm2.7,12h-2.55v-9.51h2.55Z"/><path class="cls-14" d="M222.39,387.06a1.64,1.64,0,0,0,1.14-.39,1.33,1.33,0,0,0,.46-1h2.38a3.2,3.2,0,0,1-.53,1.78,3.43,3.43,0,0,1-1.42,1.24,4.38,4.38,0,0,1-2,.45,4.09,4.09,0,0,1-3.21-1.3,5.1,5.1,0,0,1-1.18-3.58v-.17a5.05,5.05,0,0,1,1.17-3.5,4.06,4.06,0,0,1,3.21-1.31,4,4,0,0,1,2.86,1,3.62,3.62,0,0,1,1.09,2.7H224a1.7,1.7,0,0,0-.46-1.2,1.69,1.69,0,0,0-2.5.18,3.76,3.76,0,0,0-.45,2.1v.26a3.82,3.82,0,0,0,.45,2.12A1.54,1.54,0,0,0,222.39,387.06Z"/><path class="cls-14" d="M231.28,385.12l-.92.91v2.9h-2.54v-13.5h2.54v7.48l.49-.63,2.44-2.86h3.05l-3.44,4,3.74,5.54h-2.92Z"/><path class="cls-14" d="M241.64,389.11a4.66,4.66,0,0,1-3.41-1.29,4.56,4.56,0,0,1-1.31-3.41v-.25a5.7,5.7,0,0,1,.55-2.56,4,4,0,0,1,1.57-1.74,4.39,4.39,0,0,1,2.32-.61,4,4,0,0,1,3.07,1.23,5,5,0,0,1,1.12,3.49v1h-6.06a2.4,2.4,0,0,0,.75,1.5,2.24,2.24,0,0,0,1.56.56,2.77,2.77,0,0,0,2.3-1.06l1.25,1.39a3.8,3.8,0,0,1-1.55,1.26A5,5,0,0,1,241.64,389.11Zm-.29-7.82a1.56,1.56,0,0,0-1.23.52,2.69,2.69,0,0,0-.6,1.46h3.53v-.2a1.88,1.88,0,0,0-.45-1.31A1.65,1.65,0,0,0,241.35,381.29Zm.23-5.86h2.77l-2.44,2.73h-2.06Z"/><path class="cls-14" d="M256.82,381.8a8.36,8.36,0,0,0-.92-.07,1.87,1.87,0,0,0-1.89,1v6.22h-2.54v-9.51h2.4l.07,1.14a2.35,2.35,0,0,1,2.12-1.31,2.52,2.52,0,0,1,.79.11Z"/><path class="cls-14" d="M262.25,389.11a4.66,4.66,0,0,1-3.41-1.29,4.56,4.56,0,0,1-1.31-3.41v-.25a5.7,5.7,0,0,1,.55-2.56,4,4,0,0,1,1.57-1.74,4.39,4.39,0,0,1,2.32-.61,4,4,0,0,1,3.07,1.23,5,5,0,0,1,1.12,3.49v1H260.1a2.4,2.4,0,0,0,.75,1.5,2.25,2.25,0,0,0,1.57.56,2.77,2.77,0,0,0,2.29-1.06l1.25,1.39a3.8,3.8,0,0,1-1.55,1.26A5,5,0,0,1,262.25,389.11Zm-.29-7.82a1.57,1.57,0,0,0-1.23.52,2.69,2.69,0,0,0-.6,1.46h3.53v-.2a1.88,1.88,0,0,0-.45-1.31A1.65,1.65,0,0,0,262,381.29Z"/><path class="cls-14" d="M273.11,388.93a2.67,2.67,0,0,1-.25-.85,3.11,3.11,0,0,1-2.4,1,3.38,3.38,0,0,1-2.32-.81,2.61,2.61,0,0,1-.92-2,2.7,2.7,0,0,1,1.12-2.32,5.57,5.57,0,0,1,3.24-.82h1.17v-.54a1.57,1.57,0,0,0-.34-1.06,1.32,1.32,0,0,0-1.06-.39,1.54,1.54,0,0,0-1,.3,1.07,1.07,0,0,0-.37.85h-2.54a2.56,2.56,0,0,1,.51-1.53,3.28,3.28,0,0,1,1.45-1.1,5.16,5.16,0,0,1,2.09-.4,4.15,4.15,0,0,1,2.79.88,3.09,3.09,0,0,1,1,2.48v4.12a4.52,4.52,0,0,0,.38,2v.15Zm-2.1-1.77a2.16,2.16,0,0,0,1-.25,1.62,1.62,0,0,0,.7-.67v-1.63h-.95c-1.27,0-1.95.44-2,1.32v.15a1,1,0,0,0,.34.78A1.3,1.3,0,0,0,271,387.16Z"/><path class="cls-14" d="M280.71,385.12l-.92.91v2.9h-2.54v-13.5h2.54v7.48l.49-.63,2.44-2.86h3l-3.44,4,3.74,5.54h-2.92Z"/><path class="cls-14" d="M290.65,387.06a1.66,1.66,0,0,0,1.14-.39,1.4,1.4,0,0,0,.46-1h2.38a3.29,3.29,0,0,1-.53,1.78,3.5,3.5,0,0,1-1.42,1.24,4.38,4.38,0,0,1-2,.45,4.12,4.12,0,0,1-3.22-1.3,5.15,5.15,0,0,1-1.17-3.58v-.17a5,5,0,0,1,1.16-3.5,4.06,4.06,0,0,1,3.21-1.31,4,4,0,0,1,2.86,1,3.59,3.59,0,0,1,1.1,2.7h-2.38a1.8,1.8,0,0,0-.46-1.2,1.69,1.69,0,0,0-2.5.18,3.76,3.76,0,0,0-.45,2.1v.26a3.83,3.83,0,0,0,.44,2.12A1.56,1.56,0,0,0,290.65,387.06Z"/><path class="cls-14" d="M300.45,389.11a4.64,4.64,0,0,1-3.4-1.29,4.53,4.53,0,0,1-1.32-3.41v-.25a5.7,5.7,0,0,1,.56-2.56,4,4,0,0,1,1.57-1.74,4.36,4.36,0,0,1,2.31-.61,3.93,3.93,0,0,1,3.07,1.23,5,5,0,0,1,1.13,3.49v1h-6.06a2.39,2.39,0,0,0,.74,1.5,2.29,2.29,0,0,0,1.57.56,2.78,2.78,0,0,0,2.3-1.06l1.24,1.39a3.76,3.76,0,0,1-1.54,1.26A5,5,0,0,1,300.45,389.11Zm-.29-7.82a1.55,1.55,0,0,0-1.22.52,2.55,2.55,0,0,0-.6,1.46h3.53v-.2a1.84,1.84,0,0,0-.46-1.31A1.64,1.64,0,0,0,300.16,381.29Z"/><g class="cls-13"><path class="cls-15" d="M144.38,122.32a5.89,5.89,0,0,1-2.28-1.1,2.14,2.14,0,0,1-.71-1.63,2.23,2.23,0,0,1,.87-1.8,3.45,3.45,0,0,1,2.27-.72,3.89,3.89,0,0,1,1.7.37,2.86,2.86,0,0,1,1.15,1,2.52,2.52,0,0,1,.41,1.41h-1.22a1.68,1.68,0,0,0-.54-1.32,2.15,2.15,0,0,0-1.5-.48,2.21,2.21,0,0,0-1.41.4,1.33,1.33,0,0,0-.5,1.1,1.19,1.19,0,0,0,.48,1,4.59,4.59,0,0,0,1.63.71,7.59,7.59,0,0,1,1.8.72,2.68,2.68,0,0,1,1,.91,2.31,2.31,0,0,1,.31,1.22,2.16,2.16,0,0,1-.87,1.8,3.77,3.77,0,0,1-2.35.68,4.22,4.22,0,0,1-1.77-.37,3,3,0,0,1-1.28-1,2.48,2.48,0,0,1-.44-1.44h1.22a1.62,1.62,0,0,0,.62,1.33,2.61,2.61,0,0,0,1.65.48,2.4,2.4,0,0,0,1.48-.39,1.26,1.26,0,0,0,.52-1.07,1.23,1.23,0,0,0-.48-1A5.37,5.37,0,0,0,144.38,122.32Z"/><path class="cls-15" d="M155,123.09a4.09,4.09,0,0,1-.72,2.52,2.28,2.28,0,0,1-1.94,1,2.53,2.53,0,0,1-2-.79v3.3h-1.17v-9.5h1.07l.06.76a2.4,2.4,0,0,1,2-.89,2.34,2.34,0,0,1,2,.93A4.16,4.16,0,0,1,155,123Zm-1.17-.14a3,3,0,0,0-.5-1.83,1.59,1.59,0,0,0-1.36-.67,1.73,1.73,0,0,0-1.6.94v3.28a1.73,1.73,0,0,0,1.62.94,1.58,1.58,0,0,0,1.34-.67A3.31,3.31,0,0,0,153.82,123Z"/><path class="cls-15" d="M160.72,126.44a2.59,2.59,0,0,1-.16-.72,2.62,2.62,0,0,1-2,.85,2.43,2.43,0,0,1-1.66-.57,1.85,1.85,0,0,1-.65-1.46,2,2,0,0,1,.81-1.67,3.91,3.91,0,0,1,2.3-.59h1.14v-.54a1.3,1.3,0,0,0-.37-1,1.49,1.49,0,0,0-1.08-.37,1.73,1.73,0,0,0-1.06.32.94.94,0,0,0-.42.77h-1.18a1.63,1.63,0,0,1,.36-1,2.39,2.39,0,0,1,1-.76,3.29,3.29,0,0,1,1.37-.28A2.71,2.71,0,0,1,161,120a2.12,2.12,0,0,1,.7,1.64v3.16a3.85,3.85,0,0,0,.24,1.5v.1Zm-1.95-.89a2.08,2.08,0,0,0,1-.29,1.76,1.76,0,0,0,.72-.74v-1.41h-.92q-2.16,0-2.16,1.26a1.07,1.07,0,0,0,.37.87A1.44,1.44,0,0,0,158.77,125.55Z"/><path class="cls-15" d="M164.83,126.44h-1.17v-9.75h1.17Z"/><path class="cls-15" d="M166.4,123a4.12,4.12,0,0,1,.39-1.82,3,3,0,0,1,1.11-1.24,2.93,2.93,0,0,1,1.61-.44,2.87,2.87,0,0,1,2.27,1,3.73,3.73,0,0,1,.87,2.58v.09a4.16,4.16,0,0,1-.38,1.79,3,3,0,0,1-1.1,1.25,3.12,3.12,0,0,1-1.64.44,2.9,2.9,0,0,1-2.27-1,3.76,3.76,0,0,1-.86-2.57Zm1.18.14a2.88,2.88,0,0,0,.53,1.83,1.8,1.8,0,0,0,2.84,0,3.22,3.22,0,0,0,.53-2,2.94,2.94,0,0,0-.54-1.84,1.73,1.73,0,0,0-1.43-.7,1.67,1.67,0,0,0-1.4.7A3.22,3.22,0,0,0,167.58,123.09Z"/><path class="cls-15" d="M176.29,124.85l1.7-5.27h1.2l-2.46,6.86h-.89l-2.49-6.86h1.2Z"/><path class="cls-15" d="M184.47,126.44a2.5,2.5,0,0,1-.17-.72,2.59,2.59,0,0,1-2,.85,2.45,2.45,0,0,1-1.67-.57,1.88,1.88,0,0,1-.65-1.46,1.94,1.94,0,0,1,.82-1.67,3.88,3.88,0,0,1,2.29-.59h1.15v-.54a1.34,1.34,0,0,0-.37-1,1.51,1.51,0,0,0-1.09-.37,1.7,1.7,0,0,0-1.05.32,1,1,0,0,0-.43.77h-1.18a1.59,1.59,0,0,1,.37-1,2.39,2.39,0,0,1,1-.76,3.23,3.23,0,0,1,1.37-.28,2.75,2.75,0,0,1,1.86.59,2.16,2.16,0,0,1,.7,1.64v3.16a3.85,3.85,0,0,0,.24,1.5v.1Zm-1.95-.89a2.08,2.08,0,0,0,1-.29,1.76,1.76,0,0,0,.72-.74v-1.41h-.92q-2.16,0-2.16,1.26a1.07,1.07,0,0,0,.37.87A1.44,1.44,0,0,0,182.52,125.55Zm1.09-8.86H185l-1.7,1.87h-1Z"/><path class="cls-15" d="M188.41,119.58l0,.86a2.5,2.5,0,0,1,2.06-1c1.45,0,2.18.82,2.19,2.45v4.54h-1.17V121.9a1.62,1.62,0,0,0-.34-1.1,1.35,1.35,0,0,0-1-.35,1.69,1.69,0,0,0-1,.3,2.12,2.12,0,0,0-.68.8v4.89H187.3v-6.86Z"/><path class="cls-15" d="M195.76,116.7h1.42l-1.7,1.87h-.94Zm0,9.74h-1.18v-6.86h1.18Z"/><path class="cls-15" d="M203.17,124.85l1.7-5.27h1.2l-2.46,6.86h-.9l-2.49-6.86h1.2Z"/><path class="cls-15" d="M216.22,123.09a4.09,4.09,0,0,1-.72,2.52,2.28,2.28,0,0,1-1.94,1,2.53,2.53,0,0,1-2-.79v3.3h-1.17v-9.5h1.07l.06.76a2.4,2.4,0,0,1,2-.89,2.34,2.34,0,0,1,2,.93,4.16,4.16,0,0,1,.72,2.6Zm-1.17-.14a3,3,0,0,0-.5-1.83,1.59,1.59,0,0,0-1.36-.67,1.73,1.73,0,0,0-1.6.94v3.28a1.73,1.73,0,0,0,1.62.94,1.58,1.58,0,0,0,1.34-.67A3.31,3.31,0,0,0,215.05,123Z"/><path class="cls-15" d="M221,120.63a3.48,3.48,0,0,0-.58,0,1.53,1.53,0,0,0-1.56,1v4.87h-1.18v-6.86h1.14l0,.79a1.82,1.82,0,0,1,1.64-.92,1.18,1.18,0,0,1,.52.09Z"/><path class="cls-15" d="M226.35,125.76a2.49,2.49,0,0,1-2,.81,2.11,2.11,0,0,1-1.67-.64,2.69,2.69,0,0,1-.58-1.89v-4.46h1.17V124c0,1,.42,1.56,1.27,1.56a1.75,1.75,0,0,0,1.79-1v-5h1.17v6.86h-1.11Zm-.16-8.32a1.24,1.24,0,0,1-.4.92,1.46,1.46,0,0,1-1.94,0,1.23,1.23,0,0,1-.39-.92,1.28,1.28,0,0,1,.39-.94,1.3,1.3,0,0,1,1-.38,1.33,1.33,0,0,1,1,.38A1.28,1.28,0,0,1,226.19,117.44Zm-2.1,0a.74.74,0,0,0,1.25.52.69.69,0,0,0,.22-.52.72.72,0,0,0-.21-.53.71.71,0,0,0-.53-.22.69.69,0,0,0-.53.22A.73.73,0,0,0,224.09,117.44Z"/><path class="cls-15" d="M230.38,119.58l0,.76a2.53,2.53,0,0,1,2-.89,2,2,0,0,1,2,1.1,2.74,2.74,0,0,1,.89-.8,2.68,2.68,0,0,1,1.3-.3c1.51,0,2.28.8,2.3,2.39v4.6h-1.17v-4.53a1.59,1.59,0,0,0-.34-1.1,1.49,1.49,0,0,0-1.13-.36,1.61,1.61,0,0,0-1.09.38,1.68,1.68,0,0,0-.5,1.06v4.55h-1.18v-4.5a1.3,1.3,0,0,0-1.46-1.49,1.56,1.56,0,0,0-1.58,1v5h-1.18v-6.86Z"/><path class="cls-15" d="M242.92,124.72l1.6-5.14h1.25L243,127.5c-.42,1.15-1.1,1.72-2,1.72l-.23,0-.43-.08v-1l.31,0a1.56,1.56,0,0,0,.93-.24,1.69,1.69,0,0,0,.55-.88l.26-.7-2.45-6.79h1.28Z"/><path class="cls-15" d="M250.82,124.62a.87.87,0,0,0-.36-.74,3.4,3.4,0,0,0-1.25-.45,6,6,0,0,1-1.41-.46,2.12,2.12,0,0,1-.78-.63,1.59,1.59,0,0,1-.25-.88,1.78,1.78,0,0,1,.72-1.43,2.76,2.76,0,0,1,1.82-.58,2.9,2.9,0,0,1,1.9.6,1.92,1.92,0,0,1,.72,1.54h-1.18a1,1,0,0,0-.41-.83,1.53,1.53,0,0,0-1-.35,1.63,1.63,0,0,0-1,.28.89.89,0,0,0-.36.73.7.7,0,0,0,.33.64,4.24,4.24,0,0,0,1.22.42,5.88,5.88,0,0,1,1.42.47,2,2,0,0,1,.81.65,1.6,1.6,0,0,1,.27.94,1.76,1.76,0,0,1-.74,1.47,3.09,3.09,0,0,1-1.91.56,3.52,3.52,0,0,1-1.46-.29,2.43,2.43,0,0,1-1-.82,2,2,0,0,1-.36-1.13h1.17a1.25,1.25,0,0,0,.47.94,1.87,1.87,0,0,0,1.17.34,1.91,1.91,0,0,0,1.07-.27A.82.82,0,0,0,250.82,124.62Z"/><path class="cls-15" d="M254.8,126.44h-1.17v-9.75h1.17Z"/><path class="cls-15" d="M260.92,125.76a2.49,2.49,0,0,1-2,.81,2.11,2.11,0,0,1-1.67-.64,2.69,2.69,0,0,1-.58-1.89v-4.46h1.17V124c0,1,.42,1.56,1.27,1.56a1.75,1.75,0,0,0,1.79-1v-5h1.17v6.86H261Z"/></g><path class="cls-15" d="M88.08,170.82l2.9-9.63h2.94L89.46,174H86.71l-4.44-12.8H85.2Z"/><path class="cls-15" d="M98.41,170.39l1.76-5.91h2.72l-3.82,11-.21.51A2.91,2.91,0,0,1,96,177.83a4.06,4.06,0,0,1-1.12-.17v-1.92h.39a2.11,2.11,0,0,0,1.07-.22,1.42,1.42,0,0,0,.56-.73l.3-.79-3.33-9.53h2.73Zm.55-9.9h2.77l-2.43,2.72H97.23Z"/><path class="cls-15" d="M109.24,166.86a6.46,6.46,0,0,0-.92-.07,1.87,1.87,0,0,0-1.89,1V174h-2.54v-9.51h2.4l.07,1.13a2.36,2.36,0,0,1,2.12-1.31,2.52,2.52,0,0,1,.79.12Z"/><path class="cls-15" d="M109.75,169.15a5.7,5.7,0,0,1,.54-2.53,3.94,3.94,0,0,1,1.57-1.71,4.53,4.53,0,0,1,2.38-.61,4.35,4.35,0,0,1,3.14,1.18,4.77,4.77,0,0,1,1.36,3.2l0,.65a4.94,4.94,0,0,1-1.23,3.51,4.23,4.23,0,0,1-3.27,1.32,4.3,4.3,0,0,1-3.29-1.31,5.06,5.06,0,0,1-1.22-3.59Zm2.54.18a3.55,3.55,0,0,0,.51,2.07,1.67,1.67,0,0,0,1.46.72,1.7,1.7,0,0,0,1.44-.71,3.94,3.94,0,0,0,.52-2.27,3.56,3.56,0,0,0-.52-2.06,1.69,1.69,0,0,0-1.46-.73,1.65,1.65,0,0,0-1.44.73A3.94,3.94,0,0,0,112.29,169.33Z"/><path class="cls-15" d="M128.89,169.32a5.75,5.75,0,0,1-1,3.56,3.21,3.21,0,0,1-2.72,1.28,3,3,0,0,1-2.47-1.18l-.12,1h-2.28v-13.5h2.54v4.84a2.92,2.92,0,0,1,2.31-1,3.27,3.27,0,0,1,2.73,1.28,5.75,5.75,0,0,1,1,3.6Zm-2.54-.18a3.75,3.75,0,0,0-.46-2.11,1.54,1.54,0,0,0-1.36-.66,1.67,1.67,0,0,0-1.67,1v3.75a1.7,1.7,0,0,0,1.69,1,1.56,1.56,0,0,0,1.61-1.22A5.9,5.9,0,0,0,126.35,169.14Z"/><path class="cls-15" d="M136,174a3,3,0,0,1-.25-.85,3.1,3.1,0,0,1-2.4,1,3.44,3.44,0,0,1-2.32-.8,2.6,2.6,0,0,1-.91-2A2.67,2.67,0,0,1,131.2,169a5.44,5.44,0,0,1,3.23-.82h1.17v-.55a1.53,1.53,0,0,0-.34-1,1.33,1.33,0,0,0-1.06-.4,1.54,1.54,0,0,0-1,.31,1.06,1.06,0,0,0-.36.84h-2.54a2.51,2.51,0,0,1,.51-1.52,3.4,3.4,0,0,1,1.44-1.11,5.37,5.37,0,0,1,2.09-.4,4.15,4.15,0,0,1,2.79.89,3.07,3.07,0,0,1,1,2.48v4.12a4.55,4.55,0,0,0,.38,2.05V174Zm-2.1-1.77a2.16,2.16,0,0,0,1-.25,1.62,1.62,0,0,0,.7-.67v-1.64h-.95c-1.27,0-1.94.44-2,1.32v.15a1,1,0,0,0,.33.78A1.27,1.27,0,0,0,133.86,172.22Z"/><path class="cls-15" d="M148.54,172.12a1.64,1.64,0,0,0,1.14-.39,1.33,1.33,0,0,0,.46-1h2.38a3.22,3.22,0,0,1-.52,1.77,3.52,3.52,0,0,1-1.42,1.25,4.43,4.43,0,0,1-2,.44,4.14,4.14,0,0,1-3.22-1.29,5.12,5.12,0,0,1-1.18-3.58v-.17a5.08,5.08,0,0,1,1.17-3.51,4.1,4.1,0,0,1,3.21-1.31,4,4,0,0,1,2.86,1,3.57,3.57,0,0,1,1.09,2.7h-2.38a1.73,1.73,0,0,0-.46-1.21,1.51,1.51,0,0,0-1.16-.46,1.53,1.53,0,0,0-1.34.65,3.76,3.76,0,0,0-.45,2.1v.26a3.78,3.78,0,0,0,.45,2.11A1.55,1.55,0,0,0,148.54,172.12Z"/><path class="cls-15" d="M158.35,174.16a4.67,4.67,0,0,1-3.41-1.28,4.57,4.57,0,0,1-1.31-3.42v-.24a5.77,5.77,0,0,1,.55-2.57,4.15,4.15,0,0,1,1.57-1.74,4.49,4.49,0,0,1,2.32-.61,4,4,0,0,1,3.07,1.23,5,5,0,0,1,1.12,3.49v1h-6a2.29,2.29,0,0,0,.74,1.49,2.21,2.21,0,0,0,1.57.57,2.73,2.73,0,0,0,2.29-1.07l1.25,1.4a3.8,3.8,0,0,1-1.55,1.26A5.09,5.09,0,0,1,158.35,174.16Zm-.29-7.81a1.61,1.61,0,0,0-1.23.51,2.69,2.69,0,0,0-.6,1.47h3.53v-.21a1.9,1.9,0,0,0-.45-1.31A1.65,1.65,0,0,0,158.06,166.35Z"/><path class="cls-15" d="M166.08,164.48l.08,1.06a3.38,3.38,0,0,1,2.74-1.24,2.55,2.55,0,0,1,2.52,1.45,3.28,3.28,0,0,1,2.86-1.45,2.84,2.84,0,0,1,2.3.9,4.17,4.17,0,0,1,.75,2.71V174h-2.54v-6.07a1.81,1.81,0,0,0-.32-1.18,1.4,1.4,0,0,0-1.12-.37,1.58,1.58,0,0,0-1.58,1.09V174h-2.54v-6.06a1.75,1.75,0,0,0-.33-1.19,1.38,1.38,0,0,0-1.1-.37,1.66,1.66,0,0,0-1.57.89V174H163.7v-9.51Z"/><path class="cls-15" d="M183.66,174.16a4.63,4.63,0,0,1-3.4-1.28,4.53,4.53,0,0,1-1.32-3.42v-.24a5.78,5.78,0,0,1,.56-2.57,4.08,4.08,0,0,1,1.57-1.74,4.42,4.42,0,0,1,2.31-.61,3.93,3.93,0,0,1,3.07,1.23,5,5,0,0,1,1.12,3.49v1h-6a2.34,2.34,0,0,0,.74,1.49,2.23,2.23,0,0,0,1.57.57,2.73,2.73,0,0,0,2.29-1.07l1.25,1.4a3.8,3.8,0,0,1-1.55,1.26A5.09,5.09,0,0,1,183.66,174.16Zm-.29-7.81a1.58,1.58,0,0,0-1.22.51,2.62,2.62,0,0,0-.61,1.47h3.54v-.21a1.91,1.91,0,0,0-.46-1.31A1.63,1.63,0,0,0,183.37,166.35Z"/><path class="cls-15" d="M191.35,164.48l.08,1.1a3.33,3.33,0,0,1,2.74-1.28,2.79,2.79,0,0,1,2.25.89,4.14,4.14,0,0,1,.75,2.65V174h-2.54v-6.08a1.7,1.7,0,0,0-.35-1.18,1.58,1.58,0,0,0-1.17-.36,1.75,1.75,0,0,0-1.61.91V174H189v-9.51Z"/><path class="cls-15" d="M202.14,162.14v2.34h1.62v1.86h-1.62v4.75a1.09,1.09,0,0,0,.2.75,1,1,0,0,0,.77.23,4.22,4.22,0,0,0,.75-.06v1.93a5.31,5.31,0,0,1-1.54.22,2.42,2.42,0,0,1-2.72-2.69v-5.13h-1.39v-1.86h1.39v-2.34Z"/><path class="cls-15" d="M210.87,173a3.17,3.17,0,0,1-2.6,1.14,3,3,0,0,1-2.33-.88,3.7,3.7,0,0,1-.82-2.57v-6.23h2.54v6.15c0,1,.45,1.49,1.35,1.49a1.85,1.85,0,0,0,1.78-.9v-6.74h2.54V174h-2.39Z"/><path class="cls-15" d="M215.37,165.54a1.28,1.28,0,0,1,.41-1,1.59,1.59,0,0,1,2.06,0,1.28,1.28,0,0,1,.41,1,1.26,1.26,0,0,1-.41,1,1.59,1.59,0,0,1-2.06,0A1.26,1.26,0,0,1,215.37,165.54Zm0,7.2a1.28,1.28,0,0,1,.41-1,1.59,1.59,0,0,1,2.06,0,1.28,1.28,0,0,1,.41,1,1.26,1.26,0,0,1-.41,1,1.62,1.62,0,0,1-2.06,0A1.26,1.26,0,0,1,215.37,172.74Z"/><path class="cls-15" d="M98.6,189.73A4.56,4.56,0,0,1,97.08,193a5.38,5.38,0,0,1-3.63,1.18,4.82,4.82,0,0,1-3.87-1.65A6.81,6.81,0,0,1,88.17,188v-.78a7.77,7.77,0,0,1,.65-3.26,4.84,4.84,0,0,1,1.86-2.15,5.82,5.82,0,0,1,6.37.43,4.83,4.83,0,0,1,1.57,3.33H96a2.62,2.62,0,0,0-.69-1.79,2.49,2.49,0,0,0-1.8-.56,2.25,2.25,0,0,0-2,.94,5.34,5.34,0,0,0-.67,2.93v1a5.66,5.66,0,0,0,.63,3,2.2,2.2,0,0,0,2,1,2.54,2.54,0,0,0,1.82-.56,2.49,2.49,0,0,0,.7-1.72Z"/><path class="cls-15" d="M110.85,187.88a7.79,7.79,0,0,1-.67,3.31,5.1,5.1,0,0,1-1.92,2.2,5.2,5.2,0,0,1-2.85.77,5.34,5.34,0,0,1-2.84-.76,5.1,5.1,0,0,1-1.93-2.19A7.34,7.34,0,0,1,100,188v-.63a7.62,7.62,0,0,1,.68-3.33,5.07,5.07,0,0,1,1.92-2.21,5.71,5.71,0,0,1,5.69,0,5.07,5.07,0,0,1,1.92,2.21,7.58,7.58,0,0,1,.69,3.32Zm-2.68-.58a5.4,5.4,0,0,0-.72-3.06,2.55,2.55,0,0,0-4.1,0,5.29,5.29,0,0,0-.73,3v.62a5.44,5.44,0,0,0,.72,3,2.52,2.52,0,0,0,4.11,0,5.33,5.33,0,0,0,.72-3Z"/><path class="cls-15" d="M117.24,197.56h-5.11v-1l2.41-2.57a5.39,5.39,0,0,0,.73-.95,1.49,1.49,0,0,0,.24-.76,1.14,1.14,0,0,0-.25-.79.91.91,0,0,0-.72-.28,1,1,0,0,0-.79.35,1.38,1.38,0,0,0-.29.91H112a2.53,2.53,0,0,1,.32-1.25,2.36,2.36,0,0,1,.92-.88,2.75,2.75,0,0,1,1.35-.32,2.63,2.63,0,0,1,1.79.55,1.94,1.94,0,0,1,.64,1.56,2.53,2.53,0,0,1-.29,1.13,6.44,6.44,0,0,1-1,1.34l-1.7,1.79h3.21Z"/><path class="cls-15" d="M126,191.94h4.65V194h-7.89v-1.55l4.48-5.91H122.9v-2.05h7.62V186Z"/><path class="cls-15" d="M136.49,194.16a4.63,4.63,0,0,1-3.4-1.28,4.53,4.53,0,0,1-1.32-3.42v-.24a5.78,5.78,0,0,1,.56-2.57,4.06,4.06,0,0,1,1.56-1.74,4.49,4.49,0,0,1,2.32-.61,3.93,3.93,0,0,1,3.07,1.23A5,5,0,0,1,140.4,189v1h-6.05a2.34,2.34,0,0,0,.74,1.49,2.23,2.23,0,0,0,1.57.57,2.73,2.73,0,0,0,2.29-1.07l1.25,1.4a3.8,3.8,0,0,1-1.55,1.26A5.09,5.09,0,0,1,136.49,194.16Zm-.29-7.81a1.61,1.61,0,0,0-1.23.51,2.69,2.69,0,0,0-.6,1.47h3.54v-.21a2,2,0,0,0-.46-1.31A1.63,1.63,0,0,0,136.2,186.35Z"/><path class="cls-15" d="M149.24,191.94h4.65V194H146v-1.55l4.47-5.91h-4.34v-2.05h7.62V186Z"/><path class="cls-15" d="M161,194a2.66,2.66,0,0,1-.26-.85,3.07,3.07,0,0,1-2.4,1,3.44,3.44,0,0,1-2.32-.8,2.6,2.6,0,0,1-.91-2,2.67,2.67,0,0,1,1.12-2.32,5.45,5.45,0,0,1,3.24-.82h1.17v-.55a1.58,1.58,0,0,0-.34-1,1.35,1.35,0,0,0-1.07-.4,1.56,1.56,0,0,0-1,.31,1.06,1.06,0,0,0-.36.84h-2.54a2.51,2.51,0,0,1,.51-1.52,3.4,3.4,0,0,1,1.44-1.11,5.37,5.37,0,0,1,2.09-.4,4.15,4.15,0,0,1,2.79.89,3.07,3.07,0,0,1,1,2.48v4.12a4.7,4.7,0,0,0,.38,2.05V194Zm-2.11-1.77a2.13,2.13,0,0,0,1-.25,1.71,1.71,0,0,0,.71-.67v-1.64h-.95c-1.28,0-1.95.44-2,1.32v.15a1,1,0,0,0,.33.78A1.27,1.27,0,0,0,158.89,192.22Z"/><path class="cls-15" d="M167.61,185.52a3.18,3.18,0,0,1,2.54-1.22c2.07,0,3.11,1.2,3.14,3.6V194h-2.54v-6a1.78,1.78,0,0,0-.35-1.21,1.5,1.5,0,0,0-1.17-.39,1.75,1.75,0,0,0-1.62.86V194h-2.54v-13.5h2.54Z"/><path class="cls-15" d="M177.84,181.74l1.29-1.26h2.17v.1l-2.66,2.47H177l-2.66-2.49v-.08h2.17Zm2.71,5.12a6.33,6.33,0,0,0-.91-.07,1.87,1.87,0,0,0-1.89,1V194h-2.54v-9.51h2.4l.07,1.13a2.35,2.35,0,0,1,2.12-1.31,2.56,2.56,0,0,1,.79.12Z"/><path class="cls-15" d="M184.51,194H182v-9.51h2.54Zm-.74-13.37h2.77l-2.44,2.72H182Z"/><path class="cls-15" d="M190.26,190.89l1.77-6.41h2.65l-3.2,9.51h-2.43l-3.21-9.51h2.66Z"/><path class="cls-15" d="M201.18,194a2.94,2.94,0,0,1-.26-.85,3.07,3.07,0,0,1-2.4,1,3.4,3.4,0,0,1-2.31-.8,2.61,2.61,0,0,1-.92-2,2.67,2.67,0,0,1,1.12-2.32,5.49,5.49,0,0,1,3.24-.82h1.17v-.55a1.53,1.53,0,0,0-.34-1,1.35,1.35,0,0,0-1.07-.4,1.51,1.51,0,0,0-1,.31,1,1,0,0,0-.37.84H195.5a2.51,2.51,0,0,1,.51-1.52,3.4,3.4,0,0,1,1.44-1.11,5.37,5.37,0,0,1,2.09-.4,4.16,4.16,0,0,1,2.8.89,3.11,3.11,0,0,1,1,2.48v4.12a4.42,4.42,0,0,0,.38,2.05V194Zm-2.1-1.77a2.19,2.19,0,0,0,1-.25,1.68,1.68,0,0,0,.7-.67v-1.64h-.95c-1.27,0-2,.44-2,1.32v.15a1,1,0,0,0,.33.78A1.3,1.3,0,0,0,199.08,192.22Zm1-11.73h2.76l-2.43,2.72h-2.07Z"/><path class="cls-15" d="M207.66,184.48l.08,1.1a3.32,3.32,0,0,1,2.73-1.28,2.76,2.76,0,0,1,2.25.89,4.14,4.14,0,0,1,.75,2.65V194h-2.54v-6.08a1.65,1.65,0,0,0-.35-1.18,1.58,1.58,0,0,0-1.17-.36,1.73,1.73,0,0,0-1.6.91V194h-2.54v-9.51Z"/><path class="cls-15" d="M218.14,194H215.6v-9.51h2.54Zm-.75-13.37h2.77l-2.43,2.72h-2.07Z"/><path class="cls-12" d="M227.81,42a5.24,5.24,0,0,1-.44,2.24,3.31,3.31,0,0,1-1.26,1.49,3.39,3.39,0,0,1-1.89.52A3.27,3.27,0,0,1,221.61,45a4.6,4.6,0,0,1-1-3.13V41a5.3,5.3,0,0,1,.45-2.24,3.49,3.49,0,0,1,1.26-1.49,3.45,3.45,0,0,1,1.89-.53,3.38,3.38,0,0,1,1.88.52,3.32,3.32,0,0,1,1.26,1.45,5.14,5.14,0,0,1,.46,2.18ZM227,41a4.12,4.12,0,0,0-.75-2.62,2.51,2.51,0,0,0-2.07-.94,2.47,2.47,0,0,0-2.05,1,4.1,4.1,0,0,0-.77,2.65v1a4.07,4.07,0,0,0,.76,2.61,2.51,2.51,0,0,0,2.07,1,2.47,2.47,0,0,0,2.07-1,4.15,4.15,0,0,0,.74-2.64Z"/><path class="cls-12" d="M229.3,42.57A4.16,4.16,0,0,1,230,40a2.3,2.3,0,0,1,1.94-1,2.36,2.36,0,0,1,2.12,1.1V36.32h.76v9.75h-.71l0-.91a2.48,2.48,0,0,1-2.15,1,2.28,2.28,0,0,1-1.91-1,4.1,4.1,0,0,1-.73-2.58Zm.77.14a3.53,3.53,0,0,0,.53,2.07,1.68,1.68,0,0,0,1.48.76,2,2,0,0,0,2-1.24V41.08a2,2,0,0,0-2-1.34,1.73,1.73,0,0,0-1.49.75A3.87,3.87,0,0,0,230.07,42.71Z"/><path class="cls-12" d="M242.35,42.71a4.17,4.17,0,0,1-.71,2.55,2.28,2.28,0,0,1-1.9.94,2.55,2.55,0,0,1-2.16-1v3.5h-.76V39.2h.71l0,1a2.44,2.44,0,0,1,2.16-1.1,2.29,2.29,0,0,1,1.93.93,4.22,4.22,0,0,1,.7,2.59Zm-.76-.14a3.53,3.53,0,0,0-.54-2.07,1.73,1.73,0,0,0-1.5-.76,2,2,0,0,0-2,1.31v3.3a2,2,0,0,0,.78.9,2.33,2.33,0,0,0,1.2.31,1.71,1.71,0,0,0,1.49-.77A3.83,3.83,0,0,0,241.59,42.57Z"/><path class="cls-12" d="M248.37,46.07a3.31,3.31,0,0,1-.15-1,2.56,2.56,0,0,1-1,.81,3.08,3.08,0,0,1-1.31.28,2.29,2.29,0,0,1-1.6-.55,1.81,1.81,0,0,1-.61-1.4,1.85,1.85,0,0,1,.83-1.59,4,4,0,0,1,2.33-.58h1.38V41.3a1.52,1.52,0,0,0-.46-1.16,1.87,1.87,0,0,0-1.32-.42,2.09,2.09,0,0,0-1.32.4,1.24,1.24,0,0,0-.52,1h-.76a1.78,1.78,0,0,1,.76-1.42,3,3,0,0,1,1.88-.6,2.69,2.69,0,0,1,1.81.57,2.06,2.06,0,0,1,.68,1.6V44.5a4.05,4.05,0,0,0,.21,1.5v.07ZM246,45.53a2.59,2.59,0,0,0,1.36-.37,2.27,2.27,0,0,0,.88-1V42.66h-1.36a3.41,3.41,0,0,0-1.78.42,1.28,1.28,0,0,0-.21,2.07A1.61,1.61,0,0,0,246,45.53Z"/><path class="cls-12" d="M250.69,42.57a4.1,4.1,0,0,1,.72-2.54,2.27,2.27,0,0,1,1.94-1,2.38,2.38,0,0,1,2.12,1.1V36.32h.75v9.75h-.71l0-.91a2.47,2.47,0,0,1-2.15,1,2.28,2.28,0,0,1-1.91-1,4.1,4.1,0,0,1-.73-2.58Zm.77.14a3.6,3.6,0,0,0,.53,2.07,1.68,1.68,0,0,0,1.48.76,2.05,2.05,0,0,0,2-1.24V41.08a2,2,0,0,0-2-1.34,1.74,1.74,0,0,0-1.49.75A3.87,3.87,0,0,0,251.46,42.71Z"/><path class="cls-12" d="M257.8,42.54a4.16,4.16,0,0,1,.38-1.79,2.9,2.9,0,0,1,2.68-1.67,2.83,2.83,0,0,1,2.22,1,3.69,3.69,0,0,1,.85,2.55v.16a4.16,4.16,0,0,1-.38,1.79,2.84,2.84,0,0,1-2.68,1.66,2.83,2.83,0,0,1-2.22-1,3.74,3.74,0,0,1-.85-2.55Zm.76.21a3.15,3.15,0,0,0,.64,2,2.16,2.16,0,0,0,3.34,0,3.2,3.2,0,0,0,.64-2.09v-.14a3.53,3.53,0,0,0-.29-1.44,2.4,2.4,0,0,0-.82-1,2.1,2.1,0,0,0-1.21-.36,2,2,0,0,0-1.66.8,3.28,3.28,0,0,0-.64,2.09Z"/><path class="cls-12" d="M267.54,45l2.09-5.83h.78l-2.56,6.87h-.62l-2.57-6.87h.78Z"/><path class="cls-12" d="M274.24,46.2a3,3,0,0,1-1.59-.43,2.93,2.93,0,0,1-1.1-1.21,3.76,3.76,0,0,1-.39-1.73v-.27a4,4,0,0,1,.38-1.78,3,3,0,0,1,1.07-1.25,2.66,2.66,0,0,1,1.49-.45,2.47,2.47,0,0,1,2,.85,3.46,3.46,0,0,1,.73,2.33v.43h-4.9v.14a2.92,2.92,0,0,0,.67,2,2.14,2.14,0,0,0,1.69.78,2.59,2.59,0,0,0,1.07-.22,2.38,2.38,0,0,0,.85-.72l.48.37A2.79,2.79,0,0,1,274.24,46.2Zm-.14-6.48a1.89,1.89,0,0,0-1.45.63,2.88,2.88,0,0,0-.71,1.69h4.12V42a2.48,2.48,0,0,0-.57-1.61A1.73,1.73,0,0,0,274.1,39.72Zm.84-3.4h.92l-1.47,1.78h-.66Z"/><path class="cls-12" d="M282.21,40.37a2.68,2.68,0,0,1,1-1,2.53,2.53,0,0,1,1.27-.33,2.05,2.05,0,0,1,1.65.62,2.78,2.78,0,0,1,.54,1.87v4.5h-.75V41.56a2.17,2.17,0,0,0-.39-1.37,1.54,1.54,0,0,0-1.23-.45,1.89,1.89,0,0,0-1.25.44,2.54,2.54,0,0,0-.8,1.19v4.7h-.76V36.32h.76Z"/><path class="cls-12" d="M288.17,42.54a4.16,4.16,0,0,1,.38-1.79,2.9,2.9,0,0,1,2.68-1.67,2.83,2.83,0,0,1,2.22,1,3.69,3.69,0,0,1,.85,2.55v.16a4.16,4.16,0,0,1-.38,1.79,2.87,2.87,0,0,1-2.68,1.66,2.83,2.83,0,0,1-2.22-1,3.69,3.69,0,0,1-.85-2.55Zm.76.21a3.09,3.09,0,0,0,.64,2,2.16,2.16,0,0,0,3.34,0,3.25,3.25,0,0,0,.63-2.09v-.14a3.37,3.37,0,0,0-.29-1.44,2.26,2.26,0,0,0-.82-1,2.07,2.07,0,0,0-1.2-.36,2,2,0,0,0-1.66.8,3.22,3.22,0,0,0-.64,2.09Z"/><path class="cls-12" d="M300,44.33a1.09,1.09,0,0,0-.45-.91,3.54,3.54,0,0,0-1.37-.54,6.16,6.16,0,0,1-1.42-.44,2,2,0,0,1-.75-.61,1.59,1.59,0,0,1-.24-.88,1.61,1.61,0,0,1,.68-1.34,2.7,2.7,0,0,1,1.74-.53,2.81,2.81,0,0,1,1.84.57,1.82,1.82,0,0,1,.7,1.48h-.77a1.24,1.24,0,0,0-.5-1,2.27,2.27,0,0,0-2.48-.06,1,1,0,0,0-.45.86.94.94,0,0,0,.38.8,4,4,0,0,0,1.37.52,6,6,0,0,1,1.5.5,1.89,1.89,0,0,1,.74.64,1.77,1.77,0,0,1-.46,2.3,3,3,0,0,1-1.83.52,3.08,3.08,0,0,1-1.95-.58,1.81,1.81,0,0,1-.74-1.47h.76a1.35,1.35,0,0,0,.56,1,2.36,2.36,0,0,0,1.37.37,2.16,2.16,0,0,0,1.28-.35A1,1,0,0,0,300,44.33Z"/><path class="cls-12" d="M308,42.71a4.11,4.11,0,0,1-.71,2.55,2.28,2.28,0,0,1-1.9.94,2.55,2.55,0,0,1-2.16-1v3.5h-.76V39.2h.71l0,1a2.41,2.41,0,0,1,2.15-1.1,2.29,2.29,0,0,1,1.93.93,4.22,4.22,0,0,1,.7,2.59Zm-.76-.14a3.53,3.53,0,0,0-.54-2.07,1.73,1.73,0,0,0-1.5-.76,2,2,0,0,0-2,1.31v3.3a2,2,0,0,0,.78.9,2.33,2.33,0,0,0,1.2.31,1.74,1.74,0,0,0,1.5-.77A3.91,3.91,0,0,0,307.21,42.57Z"/><path class="cls-12" d="M309.24,42.54a4,4,0,0,1,.38-1.79,2.9,2.9,0,0,1,1.09-1.23,3.06,3.06,0,0,1,3.81.52,3.69,3.69,0,0,1,.85,2.55v.16a4,4,0,0,1-.39,1.79,2.82,2.82,0,0,1-1.08,1.23,2.91,2.91,0,0,1-1.59.43,2.83,2.83,0,0,1-2.22-1,3.69,3.69,0,0,1-.85-2.55Zm.76.21a3.09,3.09,0,0,0,.64,2,2.15,2.15,0,0,0,3.33,0,3.2,3.2,0,0,0,.64-2.09v-.14a3.37,3.37,0,0,0-.29-1.44,2.33,2.33,0,0,0-.82-1,2.07,2.07,0,0,0-1.2-.36,2,2,0,0,0-1.66.8,3.22,3.22,0,0,0-.64,2.09Z"/><path class="cls-12" d="M316.63,42.57a4.1,4.1,0,0,1,.72-2.54,2.27,2.27,0,0,1,1.93-1,2.36,2.36,0,0,1,2.12,1.1V36.32h.76v9.75h-.71l0-.91a2.47,2.47,0,0,1-2.15,1,2.28,2.28,0,0,1-1.91-1,4.1,4.1,0,0,1-.73-2.58Zm.77.14a3.53,3.53,0,0,0,.53,2.07,1.68,1.68,0,0,0,1.48.76,2,2,0,0,0,2-1.24V41.08a2,2,0,0,0-2-1.34,1.74,1.74,0,0,0-1.49.75A3.87,3.87,0,0,0,317.4,42.71Z"/><path class="cls-12" d="M328.5,46.07a3.31,3.31,0,0,1-.15-1,2.7,2.7,0,0,1-1,.81,3.08,3.08,0,0,1-1.31.28,2.27,2.27,0,0,1-1.6-.55,1.81,1.81,0,0,1-.62-1.4,1.84,1.84,0,0,1,.84-1.59,4,4,0,0,1,2.33-.58h1.37V41.3a1.51,1.51,0,0,0-.45-1.16,1.88,1.88,0,0,0-1.32-.42,2.09,2.09,0,0,0-1.32.4,1.22,1.22,0,0,0-.52,1H324a1.76,1.76,0,0,1,.76-1.42,2.93,2.93,0,0,1,1.87-.6,2.72,2.72,0,0,1,1.82.57,2.06,2.06,0,0,1,.68,1.6V44.5a4.05,4.05,0,0,0,.21,1.5v.07Zm-2.39-.54a2.59,2.59,0,0,0,1.36-.37,2.19,2.19,0,0,0,.87-1V42.66H327a3.38,3.38,0,0,0-1.77.42,1.29,1.29,0,0,0-.22,2.07A1.65,1.65,0,0,0,326.11,45.53Zm1.5-9.21h.92l-1.47,1.78h-.67Z"/><path class="cls-12" d="M332.73,37.64l1.1-1.23h.68v.08L333,38.14h-.55L331,36.48v-.07h.68Zm1.57,2.21a2.89,2.89,0,0,0-.52,0,1.88,1.88,0,0,0-1.2.39,2.18,2.18,0,0,0-.7,1.16v4.71h-.76V39.2h.74l0,1.1a2,2,0,0,1,1.93-1.22,1.21,1.21,0,0,1,.51.08Z"/><path class="cls-12" d="M339.61,44.33a1.09,1.09,0,0,0-.45-.91,3.54,3.54,0,0,0-1.37-.54,6.16,6.16,0,0,1-1.42-.44,1.88,1.88,0,0,1-.75-.61,1.59,1.59,0,0,1-.24-.88,1.63,1.63,0,0,1,.67-1.34,2.73,2.73,0,0,1,1.74-.53,2.82,2.82,0,0,1,1.85.57,1.81,1.81,0,0,1,.69,1.48h-.76a1.26,1.26,0,0,0-.5-1,2,2,0,0,0-1.28-.4,2,2,0,0,0-1.2.34,1,1,0,0,0-.45.86.93.93,0,0,0,.37.8,4.17,4.17,0,0,0,1.38.52,6,6,0,0,1,1.5.5,2,2,0,0,1,.74.64,1.77,1.77,0,0,1-.46,2.3,3,3,0,0,1-1.83.52,3.08,3.08,0,0,1-1.95-.58,1.81,1.81,0,0,1-.74-1.47h.76a1.35,1.35,0,0,0,.56,1,2.36,2.36,0,0,0,1.37.37,2.16,2.16,0,0,0,1.28-.35A1,1,0,0,0,339.61,44.33Z"/><path class="cls-12" d="M343.26,37.45V39.2h1.42v.63h-1.42v4.58a1.42,1.42,0,0,0,.21.85.77.77,0,0,0,.69.28,5,5,0,0,0,.61-.06l0,.61a2.51,2.51,0,0,1-.81.11,1.35,1.35,0,0,1-1.14-.46,2.15,2.15,0,0,1-.35-1.33V39.83h-1.26V39.2h1.26V37.45Z"/><path class="cls-12" d="M348.39,45l2.09-5.83h.78l-2.56,6.87h-.62l-2.57-6.87h.78Z"/><path class="cls-12" d="M353.74,36.4h.92l-1.47,1.78h-.66Zm-.39,9.67h-.77V39.2h.77Z"/><path class="cls-12" d="M382.55,27.07h.79v6.49a2.84,2.84,0,0,1-.76,2.09,2.66,2.66,0,0,1-2,.79,2.84,2.84,0,0,1-2.07-.71,2.62,2.62,0,0,1-.72-2h.78a2,2,0,0,0,.52,1.51,2.06,2.06,0,0,0,1.49.51,1.9,1.9,0,0,0,1.44-.59,2.22,2.22,0,0,0,.56-1.59Z"/><path class="cls-12" d="M385.4,27.46a.53.53,0,0,1,.14-.37.51.51,0,0,1,.39-.14.5.5,0,0,1,.38.14.53.53,0,0,1,.14.37.52.52,0,0,1-.14.36.54.54,0,0,1-.38.14.55.55,0,0,1-.39-.14A.52.52,0,0,1,385.4,27.46Zm.9,8.85h-.76V29.44h.76Z"/><path class="cls-12" d="M389.09,29.44l0,1.18a2.65,2.65,0,0,1,1-1,2.42,2.42,0,0,1,1.27-.34,2.06,2.06,0,0,1,1.65.63,2.81,2.81,0,0,1,.54,1.86v4.51h-.75V31.79a2.17,2.17,0,0,0-.39-1.37,1.54,1.54,0,0,0-1.23-.45,2,2,0,0,0-1.25.44,2.63,2.63,0,0,0-.8,1.2v4.7h-.76V29.44Z"/><path class="cls-12" d="M398.16,36.44a3,3,0,0,1-1.58-.44,2.85,2.85,0,0,1-1.1-1.2,3.77,3.77,0,0,1-.4-1.73V32.8a4,4,0,0,1,.39-1.79,3,3,0,0,1,1.07-1.24,2.59,2.59,0,0,1,1.48-.46,2.49,2.49,0,0,1,2,.86,3.44,3.44,0,0,1,.73,2.33v.43h-4.9v.14a2.87,2.87,0,0,0,.67,2,2.15,2.15,0,0,0,1.68.77,2.26,2.26,0,0,0,1.93-.93l.47.36A2.76,2.76,0,0,1,398.16,36.44ZM398,30a1.89,1.89,0,0,0-1.44.63,3,3,0,0,0-.72,1.69H400V32.2a2.55,2.55,0,0,0-.56-1.62A1.77,1.77,0,0,0,398,30Zm.85-3.4h.92l-1.47,1.78h-.66Z"/><path class="cls-12" d="M236.06,75.5h5.71v.66h-6.65v-.59l5.48-8h-5.32v-.66h6.29v.56Z"/><path class="cls-12" d="M245.84,76.28a3,3,0,0,1-1.58-.43,3,3,0,0,1-1.11-1.2,3.79,3.79,0,0,1-.39-1.73v-.27a4.16,4.16,0,0,1,.38-1.79,3,3,0,0,1,1.08-1.24,2.56,2.56,0,0,1,1.48-.46,2.51,2.51,0,0,1,2,.85,3.47,3.47,0,0,1,.74,2.34v.42h-4.9v.15a2.83,2.83,0,0,0,.67,1.94,2.1,2.1,0,0,0,1.68.78,2.45,2.45,0,0,0,1.08-.22,2.54,2.54,0,0,0,.85-.71l.47.36A2.77,2.77,0,0,1,245.84,76.28Zm-.14-6.47a1.89,1.89,0,0,0-1.44.63,2.88,2.88,0,0,0-.72,1.68h4.12V72a2.55,2.55,0,0,0-.56-1.61A1.77,1.77,0,0,0,245.7,69.81Z"/><path class="cls-12" d="M250.59,69.29l0,1.12a2.54,2.54,0,0,1,1-.94,2.57,2.57,0,0,1,1.27-.31,1.93,1.93,0,0,1,2.06,1.33,2.56,2.56,0,0,1,1-1,2.75,2.75,0,0,1,1.36-.35c1.47,0,2.22.8,2.25,2.41v4.59h-.76V71.63a2,2,0,0,0-.39-1.36,1.63,1.63,0,0,0-1.28-.45,2,2,0,0,0-1.38.53,1.87,1.87,0,0,0-.63,1.26v4.55h-.76V71.57a1.87,1.87,0,0,0-.42-1.31,1.65,1.65,0,0,0-1.26-.44,1.92,1.92,0,0,0-1.23.41,2.37,2.37,0,0,0-.76,1.22v4.71h-.76V69.29Z"/><path class="cls-12" d="M264.08,76.28a2.94,2.94,0,0,1-2.69-1.63,3.79,3.79,0,0,1-.39-1.73v-.27a4.16,4.16,0,0,1,.38-1.79,3.09,3.09,0,0,1,1.07-1.24,2.59,2.59,0,0,1,1.49-.46,2.51,2.51,0,0,1,2,.85,3.47,3.47,0,0,1,.73,2.34v.42h-4.9v.15a2.88,2.88,0,0,0,.67,1.94,2.14,2.14,0,0,0,1.69.78,2.44,2.44,0,0,0,1.07-.22,2.36,2.36,0,0,0,.85-.71l.48.36A2.77,2.77,0,0,1,264.08,76.28Zm-.14-6.47a1.92,1.92,0,0,0-1.45.63,2.88,2.88,0,0,0-.71,1.68h4.12V72a2.5,2.5,0,0,0-.57-1.61A1.75,1.75,0,0,0,263.94,69.81Zm.07-2.08,1.09-1.24h.68v.08l-1.49,1.66h-.55l-1.5-1.67v-.07h.68Z"/><path class="cls-12" d="M267.83,72.66a4.17,4.17,0,0,1,.71-2.55,2.31,2.31,0,0,1,1.94-1,2.39,2.39,0,0,1,2.12,1.1V66.41h.76v9.75h-.71l0-.92a2.43,2.43,0,0,1-2.14,1,2.32,2.32,0,0,1-1.92-1,4.2,4.2,0,0,1-.72-2.58Zm.77.13a3.56,3.56,0,0,0,.52,2.07,1.7,1.7,0,0,0,1.49.76,2,2,0,0,0,2-1.24V71.16a2,2,0,0,0-2-1.34,1.72,1.72,0,0,0-1.49.75A3.81,3.81,0,0,0,268.6,72.79Z"/><path class="cls-12" d="M278,76.28a2.94,2.94,0,0,1-2.69-1.63,3.79,3.79,0,0,1-.39-1.73v-.27a4.16,4.16,0,0,1,.38-1.79,3,3,0,0,1,1.07-1.24,2.59,2.59,0,0,1,1.49-.46,2.51,2.51,0,0,1,2,.85,3.47,3.47,0,0,1,.73,2.34v.42h-4.9v.15a2.88,2.88,0,0,0,.67,1.94,2.14,2.14,0,0,0,1.69.78,2.25,2.25,0,0,0,1.92-.93l.48.36A2.77,2.77,0,0,1,278,76.28Zm-.14-6.47a1.91,1.91,0,0,0-1.45.63,2.88,2.88,0,0,0-.71,1.68h4.12V72a2.5,2.5,0,0,0-.57-1.61A1.75,1.75,0,0,0,277.88,69.81Zm.07-2.08L279,66.49h.68v.08l-1.49,1.66h-.55l-1.5-1.67v-.07h.68Z"/><path class="cls-12" d="M282.92,76.16h-.76V66.41h.76Z"/><path class="cls-12" d="M289.1,74.41a1.07,1.07,0,0,0-.46-.91,3.43,3.43,0,0,0-1.36-.53,6,6,0,0,1-1.42-.45,1.8,1.8,0,0,1-.75-.61,1.55,1.55,0,0,1-.25-.88,1.64,1.64,0,0,1,.68-1.34,2.79,2.79,0,0,1,1.74-.53,2.84,2.84,0,0,1,1.85.57,1.83,1.83,0,0,1,.69,1.48h-.76a1.23,1.23,0,0,0-.5-1,2.29,2.29,0,0,0-2.48-.07,1,1,0,0,0-.45.87.92.92,0,0,0,.37.79,4,4,0,0,0,1.38.52,7,7,0,0,1,1.5.5,2,2,0,0,1,.74.64,1.67,1.67,0,0,1,.24.91,1.63,1.63,0,0,1-.7,1.39,3,3,0,0,1-1.83.52,3.08,3.08,0,0,1-1.95-.58,1.78,1.78,0,0,1-.74-1.47h.76a1.33,1.33,0,0,0,.56,1,2.27,2.27,0,0,0,1.37.37,2.11,2.11,0,0,0,1.28-.35A1,1,0,0,0,289.1,74.41Z"/><path class="cls-12" d="M292.75,67.53v1.76h1.42v.62h-1.42v4.58a1.48,1.48,0,0,0,.2.85.8.8,0,0,0,.69.28,4.93,4.93,0,0,0,.62-.06l0,.62a2.54,2.54,0,0,1-.81.1,1.37,1.37,0,0,1-1.14-.45,2.12,2.12,0,0,1-.35-1.34V69.91h-1.27v-.62H292V67.53Z"/><path class="cls-12" d="M297.88,75.11,300,69.29h.78l-2.56,6.87h-.62L295,69.29h.78Z"/><path class="cls-12" d="M303.23,66.48h.92l-1.47,1.78H302Zm-.39,9.68h-.77V69.29h.77Z"/><path class="cls-14" d="M370.52,284.44l-30.3,67.93q6.63,3,13.58,5.43l23.75-70.6Q373.95,286,370.52,284.44Z"/><path class="cls-14" d="M370.52,284.44l-30.3,67.93q6.63,3,13.58,5.43l23.75-70.6Q373.95,286,370.52,284.44Z"/><path class="cls-15" d="M329.44,193.1,257,172.69c-1.2,4.24-2.21,8.57-3,13L328,199.26C328.39,197.18,328.89,195.13,329.44,193.1Z"/><path class="cls-15" d="M329.44,193.1,257,172.69c-1.2,4.24-2.21,8.57-3,13L328,199.26C328.39,197.18,328.89,195.13,329.44,193.1Z"/><circle class="cls-16" cx="403.22" cy="213.82" r="77.59"/><path class="cls-17" d="M391.11,198.07h-13v-2.58l6.14-6.54a15.46,15.46,0,0,0,1.87-2.41,3.86,3.86,0,0,0,.6-1.95,2.9,2.9,0,0,0-.64-2,2.29,2.29,0,0,0-1.82-.72,2.47,2.47,0,0,0-2,.88,3.5,3.5,0,0,0-.74,2.31h-3.77a6.21,6.21,0,0,1,.82-3.16,5.77,5.77,0,0,1,2.34-2.25,7.15,7.15,0,0,1,3.43-.81,6.77,6.77,0,0,1,4.55,1.4,5,5,0,0,1,1.62,4,6.32,6.32,0,0,1-.73,2.86,16,16,0,0,1-2.5,3.4L383,195h8.15Z"/><path class="cls-17" d="M394.55,202.83l-2-1,.47-.85a6.84,6.84,0,0,0,.9-3.17v-2.91h3.18v2.6a6.88,6.88,0,0,1-.73,2.92A7.59,7.59,0,0,1,394.55,202.83Z"/><path class="cls-17" d="M412.82,181.21l-7.33,16.86h-4l7.34-15.93h-9.43v-3h13.39Z"/><path class="cls-17" d="M421.82,182.75a3.74,3.74,0,0,1,1.14-2.83,4.63,4.63,0,0,1,6,0,3.8,3.8,0,0,1,1.13,2.91v.94a3.67,3.67,0,0,1-1.13,2.82,4.1,4.1,0,0,1-3,1.07,4.21,4.21,0,0,1-3-1.07,3.8,3.8,0,0,1-1.14-2.9Zm2.5,1a1.73,1.73,0,0,0,.45,1.25,1.55,1.55,0,0,0,1.18.48,1.48,1.48,0,0,0,1.16-.48,1.85,1.85,0,0,0,.43-1.29v-1a1.8,1.8,0,0,0-.43-1.26,1.67,1.67,0,0,0-2.34,0,1.82,1.82,0,0,0-.45,1.32Zm2.37,12.89-1.83-1,9.26-14.82,1.83,1Zm4.2-3.23a3.71,3.71,0,0,1,1.14-2.83,4.67,4.67,0,0,1,6,0,3.78,3.78,0,0,1,1.14,2.92v.94a3.73,3.73,0,0,1-1.12,2.82,4.71,4.71,0,0,1-6,0,3.74,3.74,0,0,1-1.13-2.86Zm2.5,1a1.71,1.71,0,0,0,.47,1.22,1.52,1.52,0,0,0,1.17.51c1.06,0,1.59-.59,1.59-1.76v-1a1.81,1.81,0,0,0-.44-1.26,1.7,1.7,0,0,0-2.35,0,1.86,1.86,0,0,0-.44,1.3Z"/><path class="cls-17" d="M353.1,211.69a7.24,7.24,0,0,0-.74-.05,1.52,1.52,0,0,0-1.53.78v5h-2.05v-7.68h1.94l.06.92a1.89,1.89,0,0,1,1.71-1.06,2.25,2.25,0,0,1,.64.09Z"/><path class="cls-17" d="M353.51,213.54a4.63,4.63,0,0,1,.44-2,3.26,3.26,0,0,1,1.27-1.38,3.66,3.66,0,0,1,1.92-.49,3.5,3.5,0,0,1,2.53,1,3.82,3.82,0,0,1,1.1,2.58v.53a4,4,0,0,1-1,2.83,3.83,3.83,0,0,1-5.3,0,4.1,4.1,0,0,1-1-2.9Zm2.05.14a2.93,2.93,0,0,0,.41,1.68,1.38,1.38,0,0,0,1.18.58,1.35,1.35,0,0,0,1.16-.57,3.18,3.18,0,0,0,.42-1.84,2.85,2.85,0,0,0-.42-1.66,1.46,1.46,0,0,0-2.34,0A3.23,3.23,0,0,0,355.56,213.68Z"/><path class="cls-17" d="M365.24,215.94a1.32,1.32,0,0,0,.92-.32,1.06,1.06,0,0,0,.37-.83h1.92a2.55,2.55,0,0,1-.42,1.43,2.76,2.76,0,0,1-1.15,1,3.55,3.55,0,0,1-1.6.36,3.32,3.32,0,0,1-2.6-1.05,4.1,4.1,0,0,1-.95-2.89v-.13a4.06,4.06,0,0,1,.94-2.83,3.28,3.28,0,0,1,2.59-1.06,3.22,3.22,0,0,1,2.31.82,2.85,2.85,0,0,1,.88,2.18h-1.92a1.39,1.39,0,0,0-.37-1,1.22,1.22,0,0,0-.93-.38,1.27,1.27,0,0,0-1.09.52,3.09,3.09,0,0,0-.36,1.7v.21a3.11,3.11,0,0,0,.36,1.71A1.27,1.27,0,0,0,365.24,215.94Zm-.19-8.38,1-1h1.76v.08l-2.15,2H364.4l-2.15-2v-.07H364Z"/><path class="cls-17" d="M371.51,209.77l.07.89a2.66,2.66,0,0,1,2.2-1,2.23,2.23,0,0,1,1.82.72,3.31,3.31,0,0,1,.61,2.14v5h-2v-4.91a1.38,1.38,0,0,0-.28-.95,1.27,1.27,0,0,0-.95-.29,1.41,1.41,0,0,0-1.3.73v5.42h-2.05v-7.68Z"/><path class="cls-17" d="M380,217.45h-2.05v-7.68H380Zm-.6-10.79h2.23l-2,2.2H378Z"/><path class="cls-17" d="M384.94,215.94a1.32,1.32,0,0,0,.92-.32,1.06,1.06,0,0,0,.37-.83h1.92a2.55,2.55,0,0,1-.42,1.43,2.76,2.76,0,0,1-1.15,1,3.56,3.56,0,0,1-1.61.36,3.32,3.32,0,0,1-2.59-1.05,4.1,4.1,0,0,1-.95-2.89v-.13a4.06,4.06,0,0,1,.94-2.83,3.28,3.28,0,0,1,2.59-1.06,3.22,3.22,0,0,1,2.31.82,2.88,2.88,0,0,1,.88,2.18h-1.92a1.39,1.39,0,0,0-.37-1,1.22,1.22,0,0,0-.93-.38,1.27,1.27,0,0,0-1.09.52,3.09,3.09,0,0,0-.36,1.7v.21a3.11,3.11,0,0,0,.36,1.71A1.27,1.27,0,0,0,384.94,215.94Z"/><path class="cls-17" d="M391.33,210.61a2.52,2.52,0,0,1,2.05-1c1.66,0,2.51,1,2.53,2.9v4.92h-2.05v-4.86a1.49,1.49,0,0,0-.28-1,1.23,1.23,0,0,0-.95-.31,1.39,1.39,0,0,0-1.3.69v5.46h-2.05v-10.9h2.05Z"/><path class="cls-17" d="M404.61,217.59a3.73,3.73,0,0,1-2.75-1,3.67,3.67,0,0,1-1.06-2.76v-.19a4.6,4.6,0,0,1,.45-2.07,3.33,3.33,0,0,1,1.26-1.41,3.55,3.55,0,0,1,1.87-.49,3.19,3.19,0,0,1,2.48,1,4,4,0,0,1,.91,2.82v.84h-4.89a1.92,1.92,0,0,0,.6,1.2,1.77,1.77,0,0,0,1.27.46,2.22,2.22,0,0,0,1.85-.86l1,1.13a3.24,3.24,0,0,1-1.25,1A4.18,4.18,0,0,1,404.61,217.59Zm-.23-6.31a1.26,1.26,0,0,0-1,.42,2.07,2.07,0,0,0-.49,1.18h2.85v-.17a1.55,1.55,0,0,0-.36-1.05A1.34,1.34,0,0,0,404.38,211.28Z"/><path class="cls-17" d="M410.86,209.77l.06.86a2.69,2.69,0,0,1,2.21-1,2,2,0,0,1,2,1.17,2.64,2.64,0,0,1,2.31-1.17,2.29,2.29,0,0,1,1.86.73,3.31,3.31,0,0,1,.61,2.19v4.9h-2.06v-4.9a1.46,1.46,0,0,0-.25-1,1.16,1.16,0,0,0-.91-.3,1.27,1.27,0,0,0-1.27.88v5.27H413.4v-4.89a1.44,1.44,0,0,0-.26-1,1.16,1.16,0,0,0-.89-.29A1.33,1.33,0,0,0,411,212v5.43h-2.05v-7.68Z"/><path class="cls-17" d="M421.5,207.78a1,1,0,0,1,.31-.76,1.19,1.19,0,0,1,.84-.29,1.21,1.21,0,0,1,.84.29,1.09,1.09,0,0,1,0,1.53,1.3,1.3,0,0,1-1.66,0A1,1,0,0,1,421.5,207.78Zm2.18,9.67h-2.06v-7.68h2.06Z"/><path class="cls-17" d="M429.53,215.33a.68.68,0,0,0-.38-.6,4.13,4.13,0,0,0-1.19-.38c-1.83-.39-2.74-1.16-2.74-2.33a2.11,2.11,0,0,1,.85-1.71,3.43,3.43,0,0,1,2.21-.68,3.66,3.66,0,0,1,2.34.69,2.15,2.15,0,0,1,.88,1.79h-2.05a1,1,0,0,0-.29-.73,1.47,1.47,0,0,0-1.68,0,.72.72,0,0,0-.29.59.64.64,0,0,0,.32.55,3.33,3.33,0,0,0,1.09.36,8.52,8.52,0,0,1,1.3.35,2.11,2.11,0,0,1,1.62,2.06,2,2,0,0,1-.9,1.7,3.92,3.92,0,0,1-2.33.65,4,4,0,0,1-1.71-.34,2.94,2.94,0,0,1-1.18-.95A2.21,2.21,0,0,1,425,215h1.94a1.1,1.1,0,0,0,.41.84,1.61,1.61,0,0,0,1,.29,1.46,1.46,0,0,0,.89-.23A.68.68,0,0,0,429.53,215.33Z"/><path class="cls-17" d="M435.05,217.45H433v-7.68h2.05Zm-.6-10.79h2.24l-2,2.2h-1.67Z"/><path class="cls-17" d="M448.69,214a3.65,3.65,0,0,1-1.23,2.62,4.33,4.33,0,0,1-2.93,1,3.87,3.87,0,0,1-3.13-1.34,5.47,5.47,0,0,1-1.14-3.67V212a6.24,6.24,0,0,1,.53-2.63,4,4,0,0,1,1.5-1.74,4.26,4.26,0,0,1,2.27-.61,4.21,4.21,0,0,1,2.88,1,3.92,3.92,0,0,1,1.26,2.69h-2.13a2.14,2.14,0,0,0-.56-1.45,2,2,0,0,0-1.45-.45,1.82,1.82,0,0,0-1.6.76,4.32,4.32,0,0,0-.54,2.37v.78a4.57,4.57,0,0,0,.51,2.45,1.79,1.79,0,0,0,1.6.77,2.09,2.09,0,0,0,1.47-.45,2.05,2.05,0,0,0,.56-1.39Zm-4.15-8.71,1-1h1.75v.08l-2.14,2h-1.3l-2.14-2v-.07h1.75Z"/><path class="cls-17" d="M453.91,213.67h-1.7v3.78h-2.12V207.12h3.83a4.38,4.38,0,0,1,2.83.81,2.84,2.84,0,0,1,1,2.31,3.14,3.14,0,0,1-.46,1.76,3.09,3.09,0,0,1-1.38,1.13l2.23,4.22v.1h-2.28Zm-1.7-1.73h1.72a1.7,1.7,0,0,0,1.24-.41,1.42,1.42,0,0,0,.44-1.12,1.58,1.58,0,0,0-.41-1.15,1.73,1.73,0,0,0-1.28-.42h-1.71Z"/><path class="cls-17" d="M356.58,228.15a4.55,4.55,0,0,1-.8,2.83,2.57,2.57,0,0,1-2.16,1.06,2.38,2.38,0,0,1-1.87-.81v3.6h-2V224.26h1.89l.07.75a2.42,2.42,0,0,1,1.94-.89,2.57,2.57,0,0,1,2.19,1,4.69,4.69,0,0,1,.78,2.88Zm-2-.15a3,3,0,0,0-.37-1.64,1.22,1.22,0,0,0-1.1-.58,1.35,1.35,0,0,0-1.32.73v3.13a1.35,1.35,0,0,0,1.33.75C354.06,230.39,354.54,229.6,354.54,228Z"/><path class="cls-17" d="M357.53,228a4.38,4.38,0,0,1,.44-2,3.17,3.17,0,0,1,1.25-1.38,3.65,3.65,0,0,1,1.91-.49,3.51,3.51,0,0,1,2.53.95,3.81,3.81,0,0,1,1.09,2.57v.52a4,4,0,0,1-1,2.82,3.81,3.81,0,0,1-5.27,0,4.09,4.09,0,0,1-1-2.88Zm2,.15a2.79,2.79,0,0,0,.41,1.66,1.47,1.47,0,0,0,2.32,0,3.11,3.11,0,0,0,.42-1.82,2.81,2.81,0,0,0-.42-1.66,1.45,1.45,0,0,0-2.32,0A3.13,3.13,0,0,0,359.57,228.16Z"/><path class="cls-17" d="M369.19,230.39a1.33,1.33,0,0,0,.92-.31,1.05,1.05,0,0,0,.36-.82h1.92a2.73,2.73,0,0,1-1.57,2.42,3.51,3.51,0,0,1-1.59.36,3.33,3.33,0,0,1-2.59-1,4.13,4.13,0,0,1-.94-2.88V228a4.06,4.06,0,0,1,.94-2.82,3.26,3.26,0,0,1,2.57-1,3.19,3.19,0,0,1,2.3.82,2.9,2.9,0,0,1,.88,2.17h-1.92a1.38,1.38,0,0,0-.36-1,1.37,1.37,0,0,0-2,.15,3,3,0,0,0-.36,1.68v.21a3.07,3.07,0,0,0,.36,1.7A1.24,1.24,0,0,0,369.19,230.39Z"/><path class="cls-17" d="M375.54,225.1a2.55,2.55,0,0,1,2-1c1.65,0,2.49,1,2.52,2.89v4.89h-2v-4.84a1.48,1.48,0,0,0-.28-1,1.26,1.26,0,0,0-.94-.31,1.39,1.39,0,0,0-1.3.69v5.43h-2V221.06h2Z"/><path class="cls-17" d="M386.06,231.9a2.34,2.34,0,0,1-.21-.69,2.45,2.45,0,0,1-1.92.83,2.72,2.72,0,0,1-1.86-.65,2.1,2.1,0,0,1-.74-1.64,2.15,2.15,0,0,1,.9-1.86,4.51,4.51,0,0,1,2.6-.66h.94v-.43a1.26,1.26,0,0,0-.27-.85,1.08,1.08,0,0,0-.86-.32,1.21,1.21,0,0,0-.81.25.85.85,0,0,0-.29.68h-2a2.09,2.09,0,0,1,.41-1.23,2.71,2.71,0,0,1,1.16-.89,4.3,4.3,0,0,1,1.68-.32,3.36,3.36,0,0,1,2.24.71,2.49,2.49,0,0,1,.82,2v3.3a3.68,3.68,0,0,0,.31,1.65v.12Zm-1.69-1.42a1.78,1.78,0,0,0,.83-.2,1.36,1.36,0,0,0,.57-.54v-1.31H385c-1,0-1.57.35-1.63,1v.12a.8.8,0,0,0,.27.63A1,1,0,0,0,384.37,230.48Zm.78-9.42h2.22l-1.95,2.19h-1.66Z"/><path class="cls-17" d="M391.72,230.25h3.74v1.65h-6.34v-1.24l3.59-4.75h-3.48v-1.65h6.11v1.21Z"/><path class="cls-17" d="M398.93,231.9h-2v-7.64h2Zm-.6-10.73h2.23l-2,2.18h-1.66Z"/><path class="cls-17" d="M406.63,230.25h3.73v1.65H404v-1.24l3.59-4.75h-3.49v-1.65h6.12v1.21Z"/><path class="cls-17" d="M418.1,229.41l1.41-5.15h2.13l-2.57,7.64h-1.95l-2.57-7.64h2.13Z"/><path class="cls-17" d="M425.39,229l1.41-4.75H429l-3.07,8.82-.17.4a2.33,2.33,0,0,1-2.26,1.5,3.16,3.16,0,0,1-.9-.13V233.3h.31a1.64,1.64,0,0,0,.86-.18,1.18,1.18,0,0,0,.45-.58l.24-.63-2.67-7.66H424Zm.44-7.95h2.23l-2,2.19h-1.66Z"/><path class="cls-17" d="M434.08,226.18a5.22,5.22,0,0,0-.73-.06,1.5,1.5,0,0,0-1.52.78v5h-2v-7.64h1.93l0,.91a1.89,1.89,0,0,1,1.7-1,2.2,2.2,0,0,1,.64.09Z"/><path class="cls-17" d="M434.49,228a4.51,4.51,0,0,1,.44-2,3.13,3.13,0,0,1,1.26-1.38,3.59,3.59,0,0,1,1.9-.49,3.5,3.5,0,0,1,2.53.95,3.81,3.81,0,0,1,1.09,2.57v.52a4,4,0,0,1-1,2.82,3.81,3.81,0,0,1-5.27,0,4.09,4.09,0,0,1-1-2.88Zm2,.15a2.79,2.79,0,0,0,.41,1.66,1.35,1.35,0,0,0,1.17.57,1.38,1.38,0,0,0,1.16-.56,3.2,3.2,0,0,0,.41-1.82,2.89,2.89,0,0,0-.41-1.66,1.36,1.36,0,0,0-1.18-.58,1.32,1.32,0,0,0-1.15.58A3.13,3.13,0,0,0,436.53,228.16Z"/><path class="cls-17" d="M449.85,228.15a4.63,4.63,0,0,1-.78,2.86,2.57,2.57,0,0,1-2.18,1,2.41,2.41,0,0,1-2-.95l-.09.81H443V221.06h2V225a2.31,2.31,0,0,1,1.85-.83,2.6,2.6,0,0,1,2.19,1,4.62,4.62,0,0,1,.79,2.89Zm-2-.15a3.09,3.09,0,0,0-.37-1.69,1.24,1.24,0,0,0-1.09-.53,1.34,1.34,0,0,0-1.34.8v3a1.34,1.34,0,0,0,1.35.8,1.26,1.26,0,0,0,1.3-1A5,5,0,0,0,447.82,228Z"/><path class="cls-17" d="M453.88,229l1.41-4.75h2.19l-3.07,8.82-.17.4A2.32,2.32,0,0,1,452,235a3.23,3.23,0,0,1-.91-.13V233.3h.31a1.66,1.66,0,0,0,.87-.18,1.18,1.18,0,0,0,.45-.58l.24-.63-2.68-7.66h2.2Z"/><path class="cls-17" d="M378.81,244.84a1.31,1.31,0,0,0,.92-.31,1.06,1.06,0,0,0,.37-.82H382a2.74,2.74,0,0,1-.42,1.42,2.84,2.84,0,0,1-1.14,1,3.58,3.58,0,0,1-1.6.36,3.32,3.32,0,0,1-2.58-1,4.15,4.15,0,0,1-.95-2.88v-.13a4.06,4.06,0,0,1,.94-2.82,3.27,3.27,0,0,1,2.57-1.05,3.19,3.19,0,0,1,2.3.82,2.86,2.86,0,0,1,.88,2.17H380.1a1.39,1.39,0,0,0-.37-1,1.22,1.22,0,0,0-.93-.38,1.25,1.25,0,0,0-1.08.52,3.05,3.05,0,0,0-.36,1.69v.21a3.07,3.07,0,0,0,.36,1.7A1.24,1.24,0,0,0,378.81,244.84Z"/><path class="cls-17" d="M386.69,246.49a3.8,3.8,0,0,1-2.74-1,3.68,3.68,0,0,1-1.05-2.75v-.2a4.68,4.68,0,0,1,.44-2,3.3,3.3,0,0,1,1.26-1.4,3.49,3.49,0,0,1,1.86-.49,3.18,3.18,0,0,1,2.47,1,4,4,0,0,1,.9,2.8v.83H385a1.86,1.86,0,0,0,.59,1.2,1.8,1.8,0,0,0,1.26.45,2.18,2.18,0,0,0,1.84-.85l1,1.12a3,3,0,0,1-1.24,1A4,4,0,0,1,386.69,246.49Zm-.24-6.28a1.26,1.26,0,0,0-1,.42,2.1,2.1,0,0,0-.48,1.17h2.83v-.16a1.53,1.53,0,0,0-.36-1A1.33,1.33,0,0,0,386.45,240.21Z"/><path class="cls-17" d="M392.89,238.71l.07.86a2.66,2.66,0,0,1,2.19-1,2,2,0,0,1,2,1.17,2.61,2.61,0,0,1,2.29-1.17,2.29,2.29,0,0,1,1.85.72,3.37,3.37,0,0,1,.61,2.18v4.88h-2.05v-4.87a1.44,1.44,0,0,0-.26-.95,1.1,1.1,0,0,0-.89-.3,1.27,1.27,0,0,0-1.27.87v5.25h-2v-4.86a1.43,1.43,0,0,0-.26-1,1.14,1.14,0,0,0-.89-.3A1.33,1.33,0,0,0,393,241v5.4h-2v-7.64Z"/><path class="cls-17" d="M407,246.49a3.78,3.78,0,0,1-2.73-1,3.68,3.68,0,0,1-1-2.75v-.2a4.54,4.54,0,0,1,.44-2,3.3,3.3,0,0,1,1.26-1.4,3.49,3.49,0,0,1,1.86-.49,3.16,3.16,0,0,1,2.46,1,4,4,0,0,1,.9,2.8v.83h-4.86a1.92,1.92,0,0,0,.6,1.2,1.8,1.8,0,0,0,1.26.45A2.2,2.2,0,0,0,409,244l1,1.12a3,3,0,0,1-1.24,1A4,4,0,0,1,407,246.49Zm-.23-6.28a1.26,1.26,0,0,0-1,.42,2.18,2.18,0,0,0-.49,1.17h2.84v-.16a1.49,1.49,0,0,0-.37-1A1.3,1.3,0,0,0,406.77,240.21Z"/><path class="cls-17" d="M413.18,238.71l.06.88a2.68,2.68,0,0,1,2.19-1,2.23,2.23,0,0,1,1.81.71,3.32,3.32,0,0,1,.61,2.13v4.94h-2v-4.89a1.32,1.32,0,0,0-.28-.94,1.29,1.29,0,0,0-.94-.29,1.38,1.38,0,0,0-1.29.73v5.39h-2v-7.64Z"/><path class="cls-17" d="M421.83,236.84v1.87h1.31v1.5h-1.31V244a.88.88,0,0,0,.17.6.76.76,0,0,0,.62.19,3.64,3.64,0,0,0,.6-.05v1.54a4,4,0,0,1-1.24.19,1.94,1.94,0,0,1-2.18-2.17v-4.11h-1.12v-1.5h1.12v-1.87Z"/><path class="cls-17" d="M428.85,245.57a2.57,2.57,0,0,1-2.09.92,2.39,2.39,0,0,1-1.87-.71,3,3,0,0,1-.67-2.07v-5h2v4.94c0,.8.37,1.19,1.09,1.19a1.48,1.48,0,0,0,1.43-.72v-5.41h2v7.64H428.9Z"/></svg>