<svg id="Layer_1" data-name="Layer 1" xmlns="http://www.w3.org/2000/svg" viewBox="0 0 740 177.81"><defs><style>.cls-1{fill:#a63242;}.cls-2{fill:#ff4d4f;}.cls-3{fill:#4297dd;}.cls-4{fill:#2e3d99;}.cls-5{fill:#b3b3b3;}.cls-6{fill:#fff;}</style></defs><path class="cls-1" d="M205.93,78.47a4.38,4.38,0,0,1-1.43,3,4.84,4.84,0,0,1-3.31,1.09,4.71,4.71,0,0,1-2.55-.69,4.48,4.48,0,0,1-1.7-1.94,7.25,7.25,0,0,1-.62-2.93V75.88a7,7,0,0,1,.61-3,4.62,4.62,0,0,1,1.74-2,4.93,4.93,0,0,1,2.62-.7,4.7,4.7,0,0,1,3.22,1.08,4.6,4.6,0,0,1,1.42,3.07h-2.1a3,3,0,0,0-.76-1.88,2.51,2.51,0,0,0-1.78-.58,2.47,2.47,0,0,0-2.11,1,5,5,0,0,0-.75,2.94v1.07a5.26,5.26,0,0,0,.7,3,2.32,2.32,0,0,0,2.06,1,2.74,2.74,0,0,0,1.86-.55,2.92,2.92,0,0,0,.78-1.85Zm-4.79-10.29,1.21-1.28h1.72V67l-2.31,2.31h-1.25L198.21,67V66.9h1.71Z"/><path class="cls-1" d="M209.78,82.4h-2v-9h2Zm-.38-12.69h2.29l-2.29,2.51h-1.62Z"/><path class="cls-1" d="M213.94,73.42l.06,1a3.26,3.26,0,0,1,2.62-1.21c1.87,0,2.82,1.08,2.85,3.22V82.4h-2V76.58a1.86,1.86,0,0,0-.37-1.26,1.54,1.54,0,0,0-1.21-.41,1.93,1.93,0,0,0-1.82,1.1V82.4h-2v-9Z"/><path class="cls-1" d="M226.89,82.4a3.18,3.18,0,0,1-.23-.84,3.38,3.38,0,0,1-4.56.24,2.5,2.5,0,0,1-.86-1.91,2.56,2.56,0,0,1,1.07-2.21,5.19,5.19,0,0,1,3.05-.76h1.24v-.59A1.42,1.42,0,0,0,225,74.79a1.77,1.77,0,0,0-1.13.34,1.09,1.09,0,0,0-.44.88h-2a2.28,2.28,0,0,1,.49-1.38,3.25,3.25,0,0,1,1.33-1,4.78,4.78,0,0,1,1.88-.37,3.79,3.79,0,0,1,2.52.8,2.82,2.82,0,0,1,1,2.23v4a4.54,4.54,0,0,0,.34,1.93v.14ZM224.68,81a2.31,2.31,0,0,0,1.12-.29,2,2,0,0,0,.8-.78v-1.7h-1.09a2.91,2.91,0,0,0-1.69.4,1.26,1.26,0,0,0-.56,1.1,1.17,1.17,0,0,0,.38.92A1.52,1.52,0,0,0,224.68,81Z"/><path class="cls-2" d="M408.31,82.4h-2.09V70.32h2.09Z"/><path class="cls-2" d="M412.57,73.42l.05,1a3.26,3.26,0,0,1,2.62-1.21c1.87,0,2.82,1.08,2.86,3.22V82.4h-2V76.58a1.86,1.86,0,0,0-.37-1.26,1.54,1.54,0,0,0-1.21-.41,1.94,1.94,0,0,0-1.82,1.1V82.4h-2v-9Z"/><path class="cls-2" d="M419.77,77.84a5.35,5.35,0,0,1,1-3.33,3.11,3.11,0,0,1,2.59-1.26,2.93,2.93,0,0,1,2.3,1v-4.6h2V82.4h-1.83l-.09-.93a3,3,0,0,1-2.42,1.1,3.08,3.08,0,0,1-2.55-1.27A5.56,5.56,0,0,1,419.77,77.84Zm2,.18a3.7,3.7,0,0,0,.53,2.14,1.7,1.7,0,0,0,1.49.76,1.89,1.89,0,0,0,1.81-1.1V76a1.87,1.87,0,0,0-1.79-1.08,1.71,1.71,0,0,0-1.51.77A4.22,4.22,0,0,0,421.79,78Z"/><path class="cls-2" d="M429.75,71.09a1.08,1.08,0,0,1,.29-.77,1.31,1.31,0,0,1,1.69,0,1.13,1.13,0,0,1,0,1.53,1.34,1.34,0,0,1-1.69,0A1.09,1.09,0,0,1,429.75,71.09Zm2.14,11.31h-2v-9h2Z"/><path class="cls-2" d="M438,82.57a4.17,4.17,0,0,1-3.11-1.21,4.41,4.41,0,0,1-1.19-3.22v-.25a5.35,5.35,0,0,1,.52-2.4,4,4,0,0,1,1.46-1.65,3.86,3.86,0,0,1,2.09-.59,3.49,3.49,0,0,1,2.83,1.18,4.9,4.9,0,0,1,1,3.31v.81h-5.86a2.66,2.66,0,0,0,.74,1.76,2.23,2.23,0,0,0,1.64.65,2.77,2.77,0,0,0,2.26-1.12l1.08,1a3.57,3.57,0,0,1-1.44,1.25A4.44,4.44,0,0,1,438,82.57Zm-.24-7.7a1.72,1.72,0,0,0-1.34.58,3,3,0,0,0-.65,1.62h3.84v-.15a2.42,2.42,0,0,0-.54-1.53A1.69,1.69,0,0,0,437.8,74.87Z"/><path class="cls-3" d="M459.82,77.21h-5v3.72h5.8v1.68h-7.9V70.52h7.84v1.69h-5.74v3.34h5Z"/><path class="cls-3" d="M471.21,70.52V78.6A3.93,3.93,0,0,1,470,81.65a5.41,5.41,0,0,1-6.58,0,3.93,3.93,0,0,1-1.22-3.07V70.52h2.09V78.6a2.59,2.59,0,0,0,.62,1.86,2.41,2.41,0,0,0,1.81.63c1.61,0,2.42-.85,2.42-2.55v-8Z"/><path class="cls-3" d="M481.26,82.61h-8.13V81.22l4-4.39a10.63,10.63,0,0,0,1.24-1.62,2.71,2.71,0,0,0,.37-1.31,2,2,0,0,0-.49-1.4A1.69,1.69,0,0,0,477,72a1.94,1.94,0,0,0-1.52.6,2.35,2.35,0,0,0-.54,1.64h-2a3.9,3.9,0,0,1,.5-2,3.43,3.43,0,0,1,1.44-1.38,4.64,4.64,0,0,1,2.15-.49,4.11,4.11,0,0,1,2.78.89,3.08,3.08,0,0,1,1,2.44,4.14,4.14,0,0,1-.51,1.9,10.92,10.92,0,0,1-1.67,2.25l-3,3.17h5.62Z"/><path class="cls-3" d="M490.4,73.71a2.84,2.84,0,0,1-.45,1.58,3.24,3.24,0,0,1-1.25,1.09,3.42,3.42,0,0,1,1.46,1.2,3.06,3.06,0,0,1,.51,1.73,3.17,3.17,0,0,1-1.08,2.53,4.9,4.9,0,0,1-5.76,0,3.15,3.15,0,0,1-1.08-2.52,3.06,3.06,0,0,1,.51-1.74,3.35,3.35,0,0,1,1.45-1.19,3.18,3.18,0,0,1-1.23-1.09,2.84,2.84,0,0,1-.46-1.58,3.16,3.16,0,0,1,1-2.45,3.86,3.86,0,0,1,2.69-.91,3.9,3.9,0,0,1,2.7.91A3.15,3.15,0,0,1,490.4,73.71Zm-1.75,5.5a2,2,0,0,0-.53-1.45,1.88,1.88,0,0,0-1.42-.55,1.86,1.86,0,0,0-1.41.55,2,2,0,0,0-.52,1.45,2,2,0,0,0,3.37,1.44A2,2,0,0,0,488.65,79.21Zm-.26-5.43a1.9,1.9,0,0,0-.45-1.3,1.58,1.58,0,0,0-1.23-.51,1.55,1.55,0,0,0-1.22.49,2.16,2.16,0,0,0,0,2.64,1.59,1.59,0,0,0,1.23.49,1.57,1.57,0,0,0,1.22-.49A1.85,1.85,0,0,0,488.39,73.78Z"/><path class="cls-4" d="M513.3,70.52V78.6a3.93,3.93,0,0,1-1.23,3.05,5.41,5.41,0,0,1-6.58,0,3.93,3.93,0,0,1-1.22-3.07V70.52h2.09V78.6a2.59,2.59,0,0,0,.62,1.86,2.41,2.41,0,0,0,1.81.63c1.61,0,2.42-.85,2.42-2.55v-8Z"/><path class="cls-4" d="M521.86,79.49a1.48,1.48,0,0,0-.56-1.23,7.14,7.14,0,0,0-2-.87,9.64,9.64,0,0,1-2.33-1,3.09,3.09,0,0,1-1.65-2.7,3,3,0,0,1,1.19-2.41,4.86,4.86,0,0,1,3.1-1,5.23,5.23,0,0,1,2.25.47,3.77,3.77,0,0,1,1.55,1.32,3.47,3.47,0,0,1,.56,1.91h-2.09a1.9,1.9,0,0,0-.59-1.48,2.46,2.46,0,0,0-1.7-.54,2.58,2.58,0,0,0-1.6.44,1.46,1.46,0,0,0-.57,1.23,1.34,1.34,0,0,0,.62,1.11,7.25,7.25,0,0,0,2,.86,9.26,9.26,0,0,1,2.27,1,3.49,3.49,0,0,1,1.25,1.22,3.2,3.2,0,0,1,.4,1.63,2.89,2.89,0,0,1-1.16,2.4,5,5,0,0,1-3.14.89,6,6,0,0,1-2.41-.48A4.14,4.14,0,0,1,515.54,81a3.34,3.34,0,0,1-.61-2H517a2,2,0,0,0,.68,1.6,3,3,0,0,0,1.95.56,2.64,2.64,0,0,0,1.65-.44A1.44,1.44,0,0,0,521.86,79.49Z"/><path class="cls-4" d="M532.57,79.79h-4.68l-1,2.82h-2.19l4.57-12.09h1.88l4.58,12.09h-2.19Zm-4.09-1.69H532l-1.75-5Z"/><path class="cls-5" d="M577.47,76.88a7.46,7.46,0,0,1-.62,3.12,4.59,4.59,0,0,1-1.75,2,5.15,5.15,0,0,1-5.25,0,4.66,4.66,0,0,1-1.77-2,7.25,7.25,0,0,1-.64-3.07v-.68a7.33,7.33,0,0,1,.63-3.12,4.64,4.64,0,0,1,4.38-2.79,4.87,4.87,0,0,1,2.62.71,4.72,4.72,0,0,1,1.77,2,7.52,7.52,0,0,1,.63,3.1Zm-2.1-.63a5.32,5.32,0,0,0-.76-3.08,2.68,2.68,0,0,0-4.28,0,5.12,5.12,0,0,0-.79,3v.7a5.23,5.23,0,0,0,.78,3.08A2.5,2.5,0,0,0,572.47,81,2.47,2.47,0,0,0,574.62,80a5.35,5.35,0,0,0,.75-3.1Z"/><path class="cls-5" d="M584.4,80.17a.94.94,0,0,0-.44-.83,5.18,5.18,0,0,0-1.48-.5,7.6,7.6,0,0,1-1.72-.54,2.31,2.31,0,0,1-1.51-2.12,2.4,2.4,0,0,1,1-1.94,3.9,3.9,0,0,1,2.49-.78,4,4,0,0,1,2.61.8,2.51,2.51,0,0,1,1,2.06h-2a1.24,1.24,0,0,0-.43-1,1.7,1.7,0,0,0-1.15-.38,1.81,1.81,0,0,0-1.08.3,1,1,0,0,0-.42.83.81.81,0,0,0,.39.72,5.63,5.63,0,0,0,1.58.52,7.3,7.3,0,0,1,1.86.62,2.66,2.66,0,0,1,1,.87,2.3,2.3,0,0,1,.32,1.23,2.34,2.34,0,0,1-1,2,4.29,4.29,0,0,1-2.63.75,4.59,4.59,0,0,1-2-.4,3.17,3.17,0,0,1-1.34-1.09,2.57,2.57,0,0,1-.49-1.51h2a1.42,1.42,0,0,0,.54,1.1,2.07,2.07,0,0,0,1.32.39A2,2,0,0,0,584,81,.94.94,0,0,0,584.4,80.17Z"/><path class="cls-5" d="M590.67,71.44v2.18h1.58v1.5h-1.58v5a1.07,1.07,0,0,0,.2.74.93.93,0,0,0,.73.23,2.84,2.84,0,0,0,.7-.08v1.56a4.85,4.85,0,0,1-1.33.19c-1.54,0-2.32-.85-2.32-2.56V75.12h-1.48v-1.5h1.48V71.44Z"/><path class="cls-5" d="M599.16,82.6a2.84,2.84,0,0,1-.23-.83,3.15,3.15,0,0,1-2.36,1,3.2,3.2,0,0,1-2.21-.77,2.47,2.47,0,0,1-.85-1.91,2.54,2.54,0,0,1,1.06-2.2,5.11,5.11,0,0,1,3-.77h1.24v-.59a1.57,1.57,0,0,0-.39-1.12,1.55,1.55,0,0,0-1.19-.42,1.79,1.79,0,0,0-1.13.35,1.07,1.07,0,0,0-.44.87h-2a2.22,2.22,0,0,1,.49-1.38,3.27,3.27,0,0,1,1.33-1,4.74,4.74,0,0,1,1.88-.36,3.74,3.74,0,0,1,2.51.79,2.83,2.83,0,0,1,1,2.23v4a4.51,4.51,0,0,0,.34,1.93v.14Zm-2.22-1.45a2.24,2.24,0,0,0,1.13-.29,1.92,1.92,0,0,0,.79-.78V78.39h-1.09a2.94,2.94,0,0,0-1.68.39,1.26,1.26,0,0,0-.57,1.1,1.18,1.18,0,0,0,.39.93A1.49,1.49,0,0,0,596.94,81.15Z"/><path class="cls-5" d="M605.52,71.44v2.18h1.58v1.5h-1.58v5a1.13,1.13,0,0,0,.2.74.93.93,0,0,0,.73.23,2.84,2.84,0,0,0,.7-.08v1.56a4.85,4.85,0,0,1-1.33.19c-1.55,0-2.32-.85-2.32-2.56V75.12H602v-1.5h1.48V71.44Z"/><path class="cls-5" d="M610.51,73.62l.06,1a3.25,3.25,0,0,1,2.62-1.2q2.8,0,2.85,3.21V82.6h-2V76.79a1.89,1.89,0,0,0-.36-1.27,1.58,1.58,0,0,0-1.21-.41,2,2,0,0,0-1.82,1.1V82.6h-2v-9Z"/><path class="cls-5" d="M620.27,82.6h-2v-9h2Zm-.38-12.69h2.29l-2.29,2.52h-1.62Z"/><path class="cls-5" d="M631.83,80.17a.94.94,0,0,0-.44-.83,5.18,5.18,0,0,0-1.48-.5,7.6,7.6,0,0,1-1.72-.54,2.31,2.31,0,0,1-1.51-2.12,2.4,2.4,0,0,1,1-1.94,3.9,3.9,0,0,1,2.49-.78,4,4,0,0,1,2.61.8,2.51,2.51,0,0,1,1,2.06h-2a1.24,1.24,0,0,0-.43-1,1.7,1.7,0,0,0-1.15-.38,1.81,1.81,0,0,0-1.08.3,1,1,0,0,0-.42.83.81.81,0,0,0,.39.72,5.63,5.63,0,0,0,1.58.52,7.3,7.3,0,0,1,1.86.62,2.66,2.66,0,0,1,1,.87,2.3,2.3,0,0,1,.32,1.23,2.34,2.34,0,0,1-1,2,4.29,4.29,0,0,1-2.63.75,4.59,4.59,0,0,1-2-.4,3.23,3.23,0,0,1-1.34-1.09,2.63,2.63,0,0,1-.48-1.51h2a1.42,1.42,0,0,0,.54,1.1,2.52,2.52,0,0,0,2.54.09A1,1,0,0,0,631.83,80.17Z"/><path class="cls-5" d="M638.1,71.44v2.18h1.58v1.5H638.1v5a1.13,1.13,0,0,0,.2.74.93.93,0,0,0,.73.23,2.79,2.79,0,0,0,.7-.08v1.56a4.85,4.85,0,0,1-1.33.19c-1.55,0-2.32-.85-2.32-2.56V75.12H634.6v-1.5h1.48V71.44Z"/><path class="cls-5" d="M646.59,82.6a2.84,2.84,0,0,1-.23-.83,3.15,3.15,0,0,1-2.36,1,3.2,3.2,0,0,1-2.21-.77,2.47,2.47,0,0,1-.85-1.91,2.54,2.54,0,0,1,1.06-2.2,5.11,5.11,0,0,1,3-.77h1.24v-.59a1.57,1.57,0,0,0-.39-1.12,1.55,1.55,0,0,0-1.19-.42,1.79,1.79,0,0,0-1.13.35,1.07,1.07,0,0,0-.44.87h-2a2.22,2.22,0,0,1,.49-1.38,3.27,3.27,0,0,1,1.33-1,4.74,4.74,0,0,1,1.88-.36,3.78,3.78,0,0,1,2.52.79,2.85,2.85,0,0,1,1,2.23v4a4.51,4.51,0,0,0,.34,1.93v.14Zm-2.22-1.45a2.24,2.24,0,0,0,1.13-.29,1.92,1.92,0,0,0,.79-.78V78.39H645.2a3,3,0,0,0-1.68.39,1.26,1.26,0,0,0-.57,1.1,1.18,1.18,0,0,0,.39.93A1.49,1.49,0,0,0,644.37,81.15Zm1.12-11.3h2.3l-2.3,2.52h-1.62Z"/><path class="cls-5" d="M653,71.44v2.18h1.58v1.5H653v5a1.07,1.07,0,0,0,.2.74.93.93,0,0,0,.73.23,2.79,2.79,0,0,0,.7-.08v1.56a4.84,4.84,0,0,1-1.32.19c-1.55,0-2.33-.85-2.33-2.56V75.12h-1.48v-1.5h1.48V71.44Z"/><path class="cls-5" d="M659.21,79.72l1.83-6.1h2.15L659.62,84a2.9,2.9,0,0,1-2.79,2.26,3.65,3.65,0,0,1-1-.15V84.51l.38,0a1.91,1.91,0,0,0,1.15-.28,1.83,1.83,0,0,0,.61-.93l.29-.77-3.15-8.94h2.17Z"/><path d="M25.53,35.25l.07.27.08-.27L29.7,24h1.19L26.12,36.83h-1L20.32,24H21.5Z"/><path d="M41.29,28.22a3.92,3.92,0,0,0-.71-.06,2.54,2.54,0,0,0-1.66.55,3,3,0,0,0-1,1.59v6.53H36.9V27.32h1l0,1.52a2.78,2.78,0,0,1,2.68-1.69,1.84,1.84,0,0,1,.69.11Z"/><path d="M42.2,31.94a5.63,5.63,0,0,1,.53-2.47,4.17,4.17,0,0,1,1.5-1.71,4.06,4.06,0,0,1,2.21-.61,3.89,3.89,0,0,1,3.07,1.33A5.11,5.11,0,0,1,50.69,32v.22a5.68,5.68,0,0,1-.53,2.48,4,4,0,0,1-1.5,1.7,4.11,4.11,0,0,1-2.21.6,3.91,3.91,0,0,1-3.07-1.33,5.12,5.12,0,0,1-1.18-3.53Zm1.06.29a4.3,4.3,0,0,0,.88,2.8,3,3,0,0,0,4.62,0,4.45,4.45,0,0,0,.88-2.89v-.2a4.86,4.86,0,0,0-.4-2,3.3,3.3,0,0,0-1.13-1.4,2.92,2.92,0,0,0-1.67-.49,2.8,2.8,0,0,0-2.3,1.1A4.47,4.47,0,0,0,43.26,32Z"/><path d="M56.38,36.12a2.75,2.75,0,0,0,1.84-.62,2.19,2.19,0,0,0,.8-1.6h1a3,3,0,0,1-.54,1.58,3.49,3.49,0,0,1-1.33,1.13,4,4,0,0,1-1.78.4,3.67,3.67,0,0,1-3-1.3,5.26,5.26,0,0,1-1.09-3.5v-.32a5.9,5.9,0,0,1,.49-2.48,3.72,3.72,0,0,1,3.56-2.26,3.68,3.68,0,0,1,2.58.93A3.39,3.39,0,0,1,60,30.53H59a2.56,2.56,0,0,0-.8-1.8,2.6,2.6,0,0,0-1.85-.68,2.62,2.62,0,0,0-2.21,1A4.64,4.64,0,0,0,53.37,32v.3a4.5,4.5,0,0,0,.79,2.84A2.63,2.63,0,0,0,56.38,36.12Z"/><path d="M65.82,37a4.15,4.15,0,0,1-2.2-.6,4.07,4.07,0,0,1-1.52-1.66,5.24,5.24,0,0,1-.55-2.4V32a5.56,5.56,0,0,1,.54-2.47,4.15,4.15,0,0,1,1.48-1.72,3.62,3.62,0,0,1,2.05-.63,3.43,3.43,0,0,1,2.75,1.18,4.79,4.79,0,0,1,1,3.23v.59H62.6v.2a4,4,0,0,0,.93,2.7,3,3,0,0,0,2.33,1.07,3.36,3.36,0,0,0,1.49-.31,3.23,3.23,0,0,0,1.17-1l.66.5A3.82,3.82,0,0,1,65.82,37Zm-.2-9a2.64,2.64,0,0,0-2,.87,4,4,0,0,0-1,2.33h5.71v-.11a3.48,3.48,0,0,0-.78-2.23A2.42,2.42,0,0,0,65.62,28.05Z"/><path d="M83.66,36.83h-8V36l4.39-5A11.5,11.5,0,0,0,81.54,29,3.5,3.5,0,0,0,82,27.39a2.6,2.6,0,0,0-.71-1.92,2.64,2.64,0,0,0-2-.71,2.77,2.77,0,0,0-2.09.82,3,3,0,0,0-.79,2.15h-1a4,4,0,0,1,.49-2,3.44,3.44,0,0,1,1.39-1.39,4.08,4.08,0,0,1,2.05-.51,3.91,3.91,0,0,1,2.75.92,3.28,3.28,0,0,1,1,2.52,4.27,4.27,0,0,1-.55,2,14.38,14.38,0,0,1-2,2.65l-3.57,4h6.73Z"/><path d="M93.34,31.5a7.12,7.12,0,0,1-1,4.11,3.76,3.76,0,0,1-5.83,0,6.83,6.83,0,0,1-1-4V29.34a7,7,0,0,1,1-4.09,3.37,3.37,0,0,1,2.93-1.39,3.42,3.42,0,0,1,2.9,1.34,6.74,6.74,0,0,1,1,3.95Zm-1.06-2.29a6.24,6.24,0,0,0-.72-3.33,2.65,2.65,0,0,0-4.31,0,6.11,6.11,0,0,0-.74,3.24v2.51A6.18,6.18,0,0,0,87.26,35a2.58,2.58,0,0,0,4.29,0,6.33,6.33,0,0,0,.73-3.32Z"/><path d="M100.49,36.83H99.43V25.3L96,26.59v-1L100.31,24h.18Z"/><path d="M113.11,27.33a2.88,2.88,0,0,1-.58,1.78A3.41,3.41,0,0,1,111,30.27a3.78,3.78,0,0,1,1.78,1.22,3.07,3.07,0,0,1,.66,1.95,3.27,3.27,0,0,1-1.11,2.61,5,5,0,0,1-5.92,0,3.27,3.27,0,0,1-1.11-2.61,3.14,3.14,0,0,1,.64-1.94,3.53,3.53,0,0,1,1.76-1.23,3.27,3.27,0,0,1-1.52-1.16,3,3,0,0,1-.56-1.78,3.25,3.25,0,0,1,1-2.53,4.37,4.37,0,0,1,5.43,0A3.24,3.24,0,0,1,113.11,27.33Zm-.72,6.12a2.54,2.54,0,0,0-.85-2,3.49,3.49,0,0,0-4.35,0,2.53,2.53,0,0,0-.85,2,2.48,2.48,0,0,0,.82,1.95,3.72,3.72,0,0,0,4.4,0A2.46,2.46,0,0,0,112.39,33.45Zm-.33-6.13a2.47,2.47,0,0,0-.76-1.83,2.69,2.69,0,0,0-1.94-.73,2.65,2.65,0,0,0-1.94.71,2.42,2.42,0,0,0-.74,1.85,2.35,2.35,0,0,0,.74,1.82,2.77,2.77,0,0,0,2,.68,2.73,2.73,0,0,0,1.93-.69A2.35,2.35,0,0,0,112.06,27.32Z"/><path d="M125.78,34.42a1.53,1.53,0,0,0-.62-1.26,4.88,4.88,0,0,0-1.9-.74,8.57,8.57,0,0,1-2-.62,2.57,2.57,0,0,1-1-.85,2.05,2.05,0,0,1-.34-1.21,2.28,2.28,0,0,1,.94-1.86,3.8,3.8,0,0,1,2.41-.73,3.87,3.87,0,0,1,2.55.79,2.49,2.49,0,0,1,1,2h-1.06a1.69,1.69,0,0,0-.7-1.39,2.72,2.72,0,0,0-1.76-.55,2.75,2.75,0,0,0-1.67.46,1.42,1.42,0,0,0-.62,1.2,1.29,1.29,0,0,0,.52,1.1,5.57,5.57,0,0,0,1.91.72,8.5,8.5,0,0,1,2.07.69,2.77,2.77,0,0,1,1,.89,2.26,2.26,0,0,1,.33,1.25,2.29,2.29,0,0,1-1,1.93,4.18,4.18,0,0,1-2.54.72,4.28,4.28,0,0,1-2.69-.8,2.49,2.49,0,0,1-1-2h1.06a1.82,1.82,0,0,0,.78,1.44,3.2,3.2,0,0,0,1.89.51,3,3,0,0,0,1.78-.48A1.44,1.44,0,0,0,125.78,34.42Z"/><path d="M132.89,37a4.15,4.15,0,0,1-2.2-.6,4.07,4.07,0,0,1-1.52-1.66,5.11,5.11,0,0,1-.55-2.4V32a5.7,5.7,0,0,1,.53-2.47,4.24,4.24,0,0,1,1.49-1.72,3.62,3.62,0,0,1,2.05-.63,3.43,3.43,0,0,1,2.75,1.18,4.79,4.79,0,0,1,1,3.23v.59h-6.78v.2a4,4,0,0,0,.93,2.7,3,3,0,0,0,2.33,1.07,3.36,3.36,0,0,0,1.49-.31,3.23,3.23,0,0,0,1.17-1l.66.5A3.82,3.82,0,0,1,132.89,37Zm-.2-9a2.63,2.63,0,0,0-2,.87,4,4,0,0,0-1,2.33h5.71v-.11a3.48,3.48,0,0,0-.78-2.23A2.42,2.42,0,0,0,132.69,28.05Z"/><path d="M145.84,35.38l2.89-8.06h1.08l-3.55,9.51h-.85l-3.57-9.51h1.08Z"/><path d="M155.1,37a4.12,4.12,0,0,1-2.19-.6,4.07,4.07,0,0,1-1.52-1.66,5.11,5.11,0,0,1-.55-2.4V32a5.7,5.7,0,0,1,.53-2.47,4.29,4.29,0,0,1,1.48-1.72,3.67,3.67,0,0,1,2.06-.63,3.43,3.43,0,0,1,2.75,1.18,4.84,4.84,0,0,1,1,3.23v.59h-6.78v.2a4,4,0,0,0,.92,2.7,3,3,0,0,0,2.34,1.07,3.36,3.36,0,0,0,1.49-.31,3.23,3.23,0,0,0,1.17-1l.66.5A3.83,3.83,0,0,1,155.1,37Zm-.19-9a2.63,2.63,0,0,0-2,.87,4,4,0,0,0-1,2.33h5.71v-.11a3.48,3.48,0,0,0-.78-2.23A2.42,2.42,0,0,0,154.91,28.05Z"/><path d="M170.79,34.42a1.51,1.51,0,0,0-.63-1.26,4.76,4.76,0,0,0-1.89-.74,8.57,8.57,0,0,1-2-.62,2.51,2.51,0,0,1-1-.85,2.05,2.05,0,0,1-.34-1.21,2.26,2.26,0,0,1,.94-1.86,3.8,3.8,0,0,1,2.41-.73,3.87,3.87,0,0,1,2.55.79,2.51,2.51,0,0,1,1,2h-1a1.69,1.69,0,0,0-.7-1.39,2.72,2.72,0,0,0-1.76-.55,2.75,2.75,0,0,0-1.67.46,1.4,1.4,0,0,0-.62,1.2,1.29,1.29,0,0,0,.52,1.1,5.57,5.57,0,0,0,1.91.72,8.5,8.5,0,0,1,2.07.69,2.65,2.65,0,0,1,1,.89,2.18,2.18,0,0,1,.34,1.25,2.29,2.29,0,0,1-1,1.93,4.18,4.18,0,0,1-2.54.72,4.28,4.28,0,0,1-2.69-.8,2.49,2.49,0,0,1-1-2h1.06a1.82,1.82,0,0,0,.78,1.44,3.18,3.18,0,0,0,1.89.51,3,3,0,0,0,1.78-.48A1.44,1.44,0,0,0,170.79,34.42Z"/><path d="M177.17,35.38l2.9-8.06h1.08l-3.55,9.51h-.86l-3.56-9.51h1.08Z"/><path d="M186.44,37a4.15,4.15,0,0,1-2.2-.6,4.07,4.07,0,0,1-1.52-1.66,5.23,5.23,0,0,1-.54-2.4V32a5.56,5.56,0,0,1,.53-2.47,4.15,4.15,0,0,1,1.48-1.72,3.64,3.64,0,0,1,2.05-.63A3.43,3.43,0,0,1,189,28.33a4.79,4.79,0,0,1,1,3.23v.59h-6.79v.2a4,4,0,0,0,.93,2.7,3,3,0,0,0,2.33,1.07,3.36,3.36,0,0,0,1.49-.31,3.23,3.23,0,0,0,1.17-1l.66.5A3.82,3.82,0,0,1,186.44,37Zm-.2-9a2.64,2.64,0,0,0-2,.87,4,4,0,0,0-1,2.33H189v-.11a3.48,3.48,0,0,0-.78-2.23A2.42,2.42,0,0,0,186.24,28.05Zm.11-2.89,1.51-1.7h.94v.1l-2.07,2.3H186l-2.07-2.31v-.09h.94Z"/><path d="M193.69,24.89v2.43h2v.87h-2v6.34a2,2,0,0,0,.28,1.18,1.11,1.11,0,0,0,1,.39,6.42,6.42,0,0,0,.85-.09l0,.85a3.36,3.36,0,0,1-1.12.15,1.86,1.86,0,0,1-1.57-.63,2.94,2.94,0,0,1-.5-1.85V28.19h-1.75v-.87h1.75V24.89Z"/><path d="M201.52,37a4.11,4.11,0,0,1-3.72-2.26,5.23,5.23,0,0,1-.54-2.4V32a5.56,5.56,0,0,1,.53-2.47,4.22,4.22,0,0,1,1.48-1.72,3.65,3.65,0,0,1,2.06-.63,3.41,3.41,0,0,1,2.74,1.18,4.79,4.79,0,0,1,1,3.23v.59H198.3v.2a4,4,0,0,0,.93,2.7,3,3,0,0,0,2.33,1.07,3.16,3.16,0,0,0,2.67-1.29l.66.5A3.85,3.85,0,0,1,201.52,37Zm-.19-9a2.61,2.61,0,0,0-2,.87,3.9,3.9,0,0,0-1,2.33H204v-.11a3.48,3.48,0,0,0-.78-2.23A2.4,2.4,0,0,0,201.33,28.05Zm.1-2.89,1.51-1.7h.94v.1l-2.07,2.3h-.76L199,23.55v-.09h.94Z"/><path d="M214.47,35.38l2.9-8.06h1.08l-3.55,9.51H214l-3.56-9.51h1.08Z"/><path d="M223.18,35.32l2.78-8h1.14L223,38.45l-.21.49a2.54,2.54,0,0,1-2.41,1.74,3.09,3.09,0,0,1-.81-.13v-.87l.54,0a1.93,1.93,0,0,0,1.26-.38A2.84,2.84,0,0,0,222.2,38l.47-1.28-3.59-9.44h1.15Z"/><path d="M233.12,28.22a4.11,4.11,0,0,0-.72-.06,2.54,2.54,0,0,0-1.66.55,3,3,0,0,0-1,1.59v6.53h-1.05V27.32h1l0,1.52a2.78,2.78,0,0,1,2.68-1.69,1.84,1.84,0,0,1,.69.11Z"/><path d="M234,31.94a5.63,5.63,0,0,1,.53-2.47,4.12,4.12,0,0,1,1.51-1.71,4,4,0,0,1,2.2-.61,3.89,3.89,0,0,1,3.07,1.33A5.11,5.11,0,0,1,242.51,32v.22a5.68,5.68,0,0,1-.53,2.48,4,4,0,0,1-1.5,1.7,4.09,4.09,0,0,1-2.21.6,3.91,3.91,0,0,1-3.07-1.33A5.17,5.17,0,0,1,234,32.15Zm1.06.29A4.3,4.3,0,0,0,236,35a3,3,0,0,0,4.62,0,4.45,4.45,0,0,0,.89-2.89v-.2a4.87,4.87,0,0,0-.41-2,3.3,3.3,0,0,0-1.13-1.4,2.92,2.92,0,0,0-1.67-.49,2.81,2.81,0,0,0-2.3,1.1,4.47,4.47,0,0,0-.88,2.89Z"/><path d="M252.34,32.18a5.73,5.73,0,0,1-1,3.53,3.14,3.14,0,0,1-2.64,1.3,3.41,3.41,0,0,1-3-1.48l0,1.3h-1V23.33h1.05V28.7a3.32,3.32,0,0,1,3-1.55,3.18,3.18,0,0,1,2.67,1.29,5.81,5.81,0,0,1,1,3.58ZM251.28,32a4.91,4.91,0,0,0-.73-2.9,2.35,2.35,0,0,0-2.05-1,2.91,2.91,0,0,0-1.72.5A3,3,0,0,0,245.72,30V34.3a2.82,2.82,0,0,0,2.79,1.8,2.38,2.38,0,0,0,2-1A5.3,5.3,0,0,0,251.28,32Z"/><path d="M254.6,24.58a.68.68,0,0,1,.19-.5.73.73,0,0,1,1.26.5.7.7,0,0,1-.2.5.8.8,0,0,1-1.06,0A.69.69,0,0,1,254.6,24.58Zm1.24,12.25h-1.06V27.32h1.06Z"/><path d="M259.87,36.83h-1.05V23.33h1.05Z"/><path d="M265.74,35.32l2.78-8h1.13l-4.06,11.13-.21.49A2.56,2.56,0,0,1,263,40.68a3,3,0,0,1-.8-.13v-.87l.54,0a1.9,1.9,0,0,0,1.25-.38,2.92,2.92,0,0,0,.82-1.31l.46-1.28-3.58-9.44h1.15Z"/><path d="M282.47,32.27h1.59V34h-1.59v2.84h-2.14V34H274.8l-.06-1.3L280.26,24h2.21Zm-5.49,0h3.35V26.93l-.16.28Z"/><path d="M292.1,27.32l.06,1a3.42,3.42,0,0,1,2.74-1.17,2.63,2.63,0,0,1,2.61,1.46,3.39,3.39,0,0,1,2.92-1.46,3,3,0,0,1,2.34.87,3.78,3.78,0,0,1,.79,2.57v6.24h-2.13V30.65a1.9,1.9,0,0,0-.4-1.33,1.75,1.75,0,0,0-1.31-.42,1.78,1.78,0,0,0-1.19.39,2.09,2.09,0,0,0-.65,1v6.52h-2.13V30.58A1.53,1.53,0,0,0,294,28.9a1.9,1.9,0,0,0-1.82,1v6.89h-2.13V27.32Z"/><path d="M305.76,24.85a1.11,1.11,0,0,1,.31-.81,1.38,1.38,0,0,1,1.79,0,1.12,1.12,0,0,1,.32.81,1.1,1.1,0,0,1-.32.81,1.41,1.41,0,0,1-1.79,0A1.09,1.09,0,0,1,305.76,24.85Zm2.26,12h-2.13V27.32H308Z"/><path d="M312.62,36.83h-2.13V23.33h2.13Z"/><path d="M315,24.85a1.11,1.11,0,0,1,.31-.81,1.38,1.38,0,0,1,1.79,0,1.12,1.12,0,0,1,.32.81,1.1,1.1,0,0,1-.32.81,1.41,1.41,0,0,1-1.79,0A1.09,1.09,0,0,1,315,24.85Zm2.27,12h-2.14V27.32h2.14Z"/><path d="M325.23,36.83A3,3,0,0,1,325,36a3.59,3.59,0,0,1-4.83.24,2.59,2.59,0,0,1-.91-2,2.7,2.7,0,0,1,1.13-2.33A5.48,5.48,0,0,1,323.6,31h1.31V30.4a1.68,1.68,0,0,0-.41-1.18,1.64,1.64,0,0,0-1.26-.45,1.91,1.91,0,0,0-1.2.37,1.12,1.12,0,0,0-.46.93h-2.14A2.38,2.38,0,0,1,320,28.6a3.46,3.46,0,0,1,1.41-1.06,4.94,4.94,0,0,1,2-.39A4,4,0,0,1,326,28a2.94,2.94,0,0,1,1,2.36v4.29a4.8,4.8,0,0,0,.37,2v.15Zm-2.35-1.53a2.48,2.48,0,0,0,1.19-.31,2.1,2.1,0,0,0,.84-.83V32.37h-1.15a3.22,3.22,0,0,0-1.79.41,1.36,1.36,0,0,0-.59,1.17,1.25,1.25,0,0,0,.4,1A1.58,1.58,0,0,0,322.88,35.3Z"/><path d="M334.26,29.28a4.94,4.94,0,0,0-.87-.07,2,2,0,0,0-2,1.12v6.5h-2.13V27.32h2l.05,1.07a2.39,2.39,0,0,1,2.14-1.24,2.05,2.05,0,0,1,.76.12Z"/><path d="M335,32a5.65,5.65,0,0,1,1-3.53,3.26,3.26,0,0,1,2.74-1.33,3.11,3.11,0,0,1,2.44,1.05V23.33h2.13v13.5h-1.93l-.1-1A3.16,3.16,0,0,1,338.78,37a3.25,3.25,0,0,1-2.7-1.34A5.87,5.87,0,0,1,335,32Zm2.14.18a3.91,3.91,0,0,0,.56,2.27,1.81,1.81,0,0,0,1.58.81,2,2,0,0,0,1.92-1.17V30a2,2,0,0,0-1.9-1.14,1.83,1.83,0,0,0-1.6.82A4.45,4.45,0,0,0,337.18,32.19Z"/><path d="M348.93,33.78l1.93-6.46h2.28l-3.78,11c-.58,1.6-1.56,2.4-2.95,2.4a4,4,0,0,1-1-.16V38.86l.4,0a2.13,2.13,0,0,0,1.22-.29,2,2,0,0,0,.65-1l.3-.82-3.34-9.46h2.31Z"/><path d="M361.52,25v2.31h1.68v1.59h-1.68v5.31a1.17,1.17,0,0,0,.22.78,1,1,0,0,0,.77.24,3.91,3.91,0,0,0,.75-.08v1.65a5.51,5.51,0,0,1-1.41.2c-1.64,0-2.46-.91-2.46-2.72V28.91h-1.57V27.32h1.57V25Z"/><path d="M370.6,35.9A3.32,3.32,0,0,1,367.92,37a2.93,2.93,0,0,1-2.34-.91,3.83,3.83,0,0,1-.8-2.61V27.32h2.14v6.14c0,1.21.5,1.81,1.5,1.81a2.1,2.1,0,0,0,2.1-1.12V27.32h2.14v9.51h-2Z"/><path d="M376.82,27.32l.06,1.1a3.42,3.42,0,0,1,2.77-1.27q3,0,3,3.4v6.28h-2.14V30.67a2,2,0,0,0-.39-1.34,1.63,1.63,0,0,0-1.28-.43,2.05,2.05,0,0,0-1.92,1.17v6.76H374.8V27.32Z"/><path d="M393.24,35.3a1.91,1.91,0,0,0,1.32-.46,1.59,1.59,0,0,0,.56-1.15h2a3.14,3.14,0,0,1-.56,1.65,3.54,3.54,0,0,1-1.4,1.22,4.18,4.18,0,0,1-1.92.45,4,4,0,0,1-3.16-1.29,5.12,5.12,0,0,1-1.17-3.57v-.22a5.06,5.06,0,0,1,1.16-3.48,4,4,0,0,1,3.16-1.3,3.93,3.93,0,0,1,2.77,1,3.56,3.56,0,0,1,1.12,2.59h-2a1.92,1.92,0,0,0-.55-1.34,1.82,1.82,0,0,0-1.33-.53,1.86,1.86,0,0,0-1.6.75,3.86,3.86,0,0,0-.58,2.28v.35a3.93,3.93,0,0,0,.56,2.31A1.89,1.89,0,0,0,393.24,35.3Z"/><path d="M402.94,37a4.43,4.43,0,0,1-3.29-1.28,4.64,4.64,0,0,1-1.26-3.4v-.27a5.75,5.75,0,0,1,.54-2.54,4.26,4.26,0,0,1,1.55-1.75,4.12,4.12,0,0,1,2.21-.62,3.7,3.7,0,0,1,3,1.24,5.19,5.19,0,0,1,1.06,3.5v.87h-6.21a2.8,2.8,0,0,0,.79,1.86,2.31,2.31,0,0,0,1.73.68,2.88,2.88,0,0,0,2.39-1.18l1.15,1.1a3.82,3.82,0,0,1-1.52,1.32A4.84,4.84,0,0,1,402.94,37Zm-.26-8.15a1.81,1.81,0,0,0-1.42.62,3.19,3.19,0,0,0-.69,1.71h4.07V31a2.54,2.54,0,0,0-.57-1.62A1.81,1.81,0,0,0,402.68,28.86Z"/><path d="M410.42,27.32l.06,1a3.42,3.42,0,0,1,2.74-1.17,2.64,2.64,0,0,1,2.61,1.46,3.39,3.39,0,0,1,2.92-1.46,3,3,0,0,1,2.34.87,3.83,3.83,0,0,1,.79,2.57v6.24h-2.14V30.65a1.9,1.9,0,0,0-.39-1.33A1.75,1.75,0,0,0,418,28.9a1.78,1.78,0,0,0-1.19.39,2,2,0,0,0-.65,1v6.52h-2.14V30.58a1.52,1.52,0,0,0-1.71-1.68,1.9,1.9,0,0,0-1.82,1v6.89h-2.13V27.32Z"/><path d="M428.26,37A4.43,4.43,0,0,1,425,35.73a4.64,4.64,0,0,1-1.26-3.4v-.27a5.61,5.61,0,0,1,.55-2.54,4.17,4.17,0,0,1,1.54-1.75,4.12,4.12,0,0,1,2.21-.62,3.7,3.7,0,0,1,3,1.24,5.19,5.19,0,0,1,1.06,3.5v.87h-6.21a2.9,2.9,0,0,0,.79,1.86,2.33,2.33,0,0,0,1.73.68,2.88,2.88,0,0,0,2.39-1.18l1.16,1.1a3.92,3.92,0,0,1-1.53,1.32A4.84,4.84,0,0,1,428.26,37ZM428,28.86a1.8,1.8,0,0,0-1.42.62,3.19,3.19,0,0,0-.69,1.71H430V31a2.54,2.54,0,0,0-.57-1.62A1.78,1.78,0,0,0,428,28.86Z"/><path d="M435.71,27.32l.06,1.1a3.43,3.43,0,0,1,2.77-1.27q3,0,3,3.4v6.28h-2.14V30.67a2,2,0,0,0-.39-1.34,1.65,1.65,0,0,0-1.28-.43,2.05,2.05,0,0,0-1.92,1.17v6.76H433.7V27.32Z"/><path d="M446.42,25v2.31h1.68v1.59h-1.68v5.31a1.17,1.17,0,0,0,.21.78,1,1,0,0,0,.77.24,3.82,3.82,0,0,0,.75-.08v1.65a5.51,5.51,0,0,1-1.41.2c-1.64,0-2.46-.91-2.46-2.72V28.91h-1.56V27.32h1.56V25Z"/><path d="M455.49,35.9A3.31,3.31,0,0,1,452.82,37a2.94,2.94,0,0,1-2.35-.91,3.82,3.82,0,0,1-.79-2.61V27.32h2.13v6.14c0,1.21.51,1.81,1.51,1.81a2.12,2.12,0,0,0,2.1-1.12V27.32h2.13v9.51h-2Z"/><rect class="cls-1" x="20" y="90.92" width="385.17" height="50"/><rect class="cls-2" x="404.86" y="90.92" width="56.02" height="50"/><rect class="cls-5" x="509.91" y="90.92" width="210.09" height="50"/><rect class="cls-3" x="460.89" y="90.92" width="35.02" height="50"/><rect class="cls-4" x="495.9" y="90.92" width="14.01" height="50"/><path class="cls-6" d="M196.42,114.82l.61-6h6.19v1.42h-4.89l-.36,3.29a3.87,3.87,0,0,1,2-.52,3.32,3.32,0,0,1,2.62,1.09,4.27,4.27,0,0,1,1,3,4.11,4.11,0,0,1-1,2.94,3.66,3.66,0,0,1-2.82,1.08,3.82,3.82,0,0,1-2.61-.89A3.5,3.5,0,0,1,196,117.7h1.45a2.4,2.4,0,0,0,.74,1.57,2.29,2.29,0,0,0,1.57.53,2.07,2.07,0,0,0,1.68-.73,3,3,0,0,0,.62-2,2.81,2.81,0,0,0-.66-2,2.25,2.25,0,0,0-1.76-.73,2.49,2.49,0,0,0-1.58.44l-.4.33Z"/><path class="cls-6" d="M206,114.82l.62-6h6.19v1.42h-4.89l-.37,3.29a3.92,3.92,0,0,1,2-.52,3.35,3.35,0,0,1,2.63,1.09,4.31,4.31,0,0,1,1,3,4.11,4.11,0,0,1-1,2.94,3.66,3.66,0,0,1-2.82,1.08,3.85,3.85,0,0,1-2.62-.89,3.58,3.58,0,0,1-1.15-2.46H207a2.45,2.45,0,0,0,.74,1.57,2.32,2.32,0,0,0,1.58.53,2.1,2.1,0,0,0,1.68-.73,3,3,0,0,0,.61-2,2.81,2.81,0,0,0-.66-2,2.23,2.23,0,0,0-1.75-.73,2.49,2.49,0,0,0-1.58.44l-.41.33Z"/><path class="cls-6" d="M218.88,111.12a2.46,2.46,0,0,1,.69-1.79,2.6,2.6,0,0,1,3.57,0,2.55,2.55,0,0,1,.69,1.84v.59a2.38,2.38,0,0,1-2.46,2.48,2.4,2.4,0,0,1-2.49-2.54Zm1.15.64a1.59,1.59,0,0,0,.36,1.07,1.33,1.33,0,0,0,1.93,0,1.62,1.62,0,0,0,.36-1.12v-.6a1.62,1.62,0,0,0-.36-1.08,1.19,1.19,0,0,0-1-.42,1.21,1.21,0,0,0-1,.42,1.68,1.68,0,0,0-.35,1.11Zm1.69,8.21-.87-.55,5.9-9.44.87.54Zm3-2a2.47,2.47,0,0,1,.7-1.79,2.61,2.61,0,0,1,3.56,0,2.47,2.47,0,0,1,.7,1.85v.59a2.46,2.46,0,0,1-.69,1.79,2.42,2.42,0,0,1-1.77.7,2.46,2.46,0,0,1-1.79-.69,2.49,2.49,0,0,1-.71-1.85Zm1.15.64a1.56,1.56,0,0,0,.37,1.08,1.23,1.23,0,0,0,1,.42,1.19,1.19,0,0,0,1-.41,1.64,1.64,0,0,0,.36-1.12v-.61a1.6,1.6,0,0,0-.36-1.08,1.25,1.25,0,0,0-1-.41,1.22,1.22,0,0,0-1,.41,1.57,1.57,0,0,0-.37,1.11Z"/><path class="cls-6" d="M428.59,112.24a2.78,2.78,0,0,1-.48,1.61,3.25,3.25,0,0,1-1.29,1.11,3.48,3.48,0,0,1,1.5,1.19,3,3,0,0,1,.55,1.76,3.17,3.17,0,0,1-1.06,2.5,4.65,4.65,0,0,1-5.58,0,3.18,3.18,0,0,1-1.05-2.5,3,3,0,0,1,.54-1.76,3.27,3.27,0,0,1,1.48-1.2,3.17,3.17,0,0,1-1.27-1.1,2.87,2.87,0,0,1-.47-1.61,3.14,3.14,0,0,1,1-2.42,4.15,4.15,0,0,1,5.16,0A3.11,3.11,0,0,1,428.59,112.24Zm-1.26,5.64a2.22,2.22,0,0,0-.64-1.65,2.29,2.29,0,0,0-4,1.65,2.13,2.13,0,0,0,.61,1.62,2.33,2.33,0,0,0,1.69.59,2.37,2.37,0,0,0,1.7-.59A2.16,2.16,0,0,0,427.33,117.88ZM425,110.19a1.94,1.94,0,0,0-1.46.56,2.32,2.32,0,0,0,0,3,2.19,2.19,0,0,0,2.95,0,2.28,2.28,0,0,0,0-3A2,2,0,0,0,425,110.19Z"/><path class="cls-6" d="M434.88,111.41a2.46,2.46,0,0,1,.69-1.79,2.39,2.39,0,0,1,1.78-.7,2.35,2.35,0,0,1,1.79.71,2.5,2.5,0,0,1,.68,1.83v.59a2.43,2.43,0,0,1-.69,1.79,2.4,2.4,0,0,1-1.76.7,2.4,2.4,0,0,1-2.49-2.54Zm1.14.64a1.55,1.55,0,0,0,.37,1.07,1.33,1.33,0,0,0,1.93,0,1.61,1.61,0,0,0,.36-1.11v-.61a1.59,1.59,0,0,0-.36-1.07,1.31,1.31,0,0,0-1.94,0,1.64,1.64,0,0,0-.36,1.1Zm1.7,8.21-.88-.54,5.91-9.45.87.55Zm3-2.05a2.52,2.52,0,0,1,4.26-1.79,2.49,2.49,0,0,1,.7,1.85v.59a2.41,2.41,0,0,1-.7,1.79,2.37,2.37,0,0,1-1.77.7,2.44,2.44,0,0,1-1.78-.69,2.48,2.48,0,0,1-.71-1.85Zm1.15.65a1.57,1.57,0,0,0,.36,1.07,1.24,1.24,0,0,0,1,.42,1.19,1.19,0,0,0,1-.41,1.67,1.67,0,0,0,.35-1.12v-.61a1.56,1.56,0,0,0-.36-1.07,1.2,1.2,0,0,0-1-.42,1.22,1.22,0,0,0-1,.41,1.58,1.58,0,0,0-.37,1.11Z"/><path class="cls-6" d="M468.72,115.12l.62-6h6.19v1.42h-4.89l-.37,3.29a4,4,0,0,1,2-.52,3.35,3.35,0,0,1,2.63,1.09,4.31,4.31,0,0,1,1,2.95,4.16,4.16,0,0,1-1,3,3.69,3.69,0,0,1-2.82,1.07,3.8,3.8,0,0,1-2.62-.89,3.58,3.58,0,0,1-1.15-2.45h1.45a2.45,2.45,0,0,0,.74,1.56,2.32,2.32,0,0,0,1.58.53,2.1,2.1,0,0,0,1.68-.73,3,3,0,0,0,.61-2,2.81,2.81,0,0,0-.66-2,2.24,2.24,0,0,0-1.76-.73,2.55,2.55,0,0,0-1.57.44l-.41.33Z"/><path class="cls-6" d="M481.64,111.41a2.46,2.46,0,0,1,.69-1.79,2.63,2.63,0,0,1,3.57,0,2.55,2.55,0,0,1,.69,1.84v.59a2.43,2.43,0,0,1-.7,1.79,2.39,2.39,0,0,1-1.76.69,2.39,2.39,0,0,1-2.49-2.54Zm1.14.64a1.6,1.6,0,0,0,.37,1.07,1.33,1.33,0,0,0,1.93,0,1.61,1.61,0,0,0,.36-1.11v-.61a1.59,1.59,0,0,0-.36-1.07,1.17,1.17,0,0,0-1-.43,1.19,1.19,0,0,0-1,.43,1.64,1.64,0,0,0-.36,1.1Zm1.7,8.21-.87-.55,5.9-9.44.87.55Zm3-2.05a2.47,2.47,0,0,1,.7-1.79,2.61,2.61,0,0,1,3.56,0,2.47,2.47,0,0,1,.7,1.85v.59a2.46,2.46,0,0,1-.69,1.79,2.4,2.4,0,0,1-1.78.7,2.44,2.44,0,0,1-1.78-.69,2.49,2.49,0,0,1-.71-1.85Zm1.15.65a1.59,1.59,0,0,0,.36,1.07,1.24,1.24,0,0,0,1,.42,1.19,1.19,0,0,0,1-.41,1.64,1.64,0,0,0,.36-1.12v-.61a1.56,1.56,0,0,0-.37-1.08,1.22,1.22,0,0,0-1-.41,1.19,1.19,0,0,0-1,.41,1.57,1.57,0,0,0-.37,1.11Z"/><path class="cls-4" d="M501.4,158.06h-7.92V157l4.19-4.65A9.52,9.52,0,0,0,499,150.6a2.82,2.82,0,0,0,.35-1.37,2.16,2.16,0,0,0-.57-1.55,2,2,0,0,0-1.53-.61,2.4,2.4,0,0,0-1.78.65,2.52,2.52,0,0,0-.63,1.82h-1.54a3.57,3.57,0,0,1,1.08-2.7,3.94,3.94,0,0,1,2.87-1,3.83,3.83,0,0,1,2.67.89,3,3,0,0,1,1,2.35q0,1.78-2.28,4.25l-3.23,3.51h6.06Z"/><path class="cls-4" d="M507.11,148.3a2.46,2.46,0,0,1,.69-1.79,2.6,2.6,0,0,1,3.57,0,2.54,2.54,0,0,1,.68,1.84v.59a2.43,2.43,0,0,1-.69,1.79,2.39,2.39,0,0,1-1.76.69,2.39,2.39,0,0,1-2.49-2.54Zm1.14.64a1.55,1.55,0,0,0,.37,1.07,1.33,1.33,0,0,0,1.93,0,1.62,1.62,0,0,0,.36-1.12v-.6a1.62,1.62,0,0,0-.36-1.08,1.33,1.33,0,0,0-1.94,0,1.68,1.68,0,0,0-.36,1.11Zm1.69,8.21-.87-.55,5.9-9.44.88.54ZM513,155.1a2.46,2.46,0,0,1,.69-1.79,2.63,2.63,0,0,1,3.57,0,2.51,2.51,0,0,1,.7,1.85v.59a2.52,2.52,0,0,1-4.25,1.8,2.49,2.49,0,0,1-.71-1.85Zm1.15.64a1.6,1.6,0,0,0,.36,1.08,1.24,1.24,0,0,0,1,.42,1.22,1.22,0,0,0,1-.41,1.69,1.69,0,0,0,.35-1.12v-.62a1.59,1.59,0,0,0-.36-1.07,1.22,1.22,0,0,0-1-.41,1.19,1.19,0,0,0-1,.41,1.57,1.57,0,0,0-.37,1.11Z"/><path class="cls-6" d="M604.19,115.11h1.15a2.56,2.56,0,0,0,1.71-.58,1.92,1.92,0,0,0,.62-1.5,1.87,1.87,0,0,0-2.11-2.12,2.22,2.22,0,0,0-1.59.56,2,2,0,0,0-.6,1.51h-1.53a3.1,3.1,0,0,1,1-2.39,3.84,3.84,0,0,1,2.67-1,3.8,3.8,0,0,1,2.68.91,3.28,3.28,0,0,1,1,2.51,2.65,2.65,0,0,1-.51,1.53,3.19,3.19,0,0,1-1.39,1.11,3.05,3.05,0,0,1,1.54,1,2.93,2.93,0,0,1,.54,1.79,3.3,3.3,0,0,1-1.06,2.58,4.56,4.56,0,0,1-5.53,0,3,3,0,0,1-1.07-2.43h1.54a2,2,0,0,0,.63,1.53,2.36,2.36,0,0,0,1.66.57,2.31,2.31,0,0,0,1.7-.58,2.23,2.23,0,0,0,.59-1.67,2,2,0,0,0-.64-1.62,2.81,2.81,0,0,0-1.87-.58h-1.15Z"/><path class="cls-6" d="M619.08,116.74a7,7,0,0,1-.92,4,3.84,3.84,0,0,1-5.75,0,6.63,6.63,0,0,1-1-3.83v-2a6.89,6.89,0,0,1,.92-4,3.89,3.89,0,0,1,5.76,0,6.63,6.63,0,0,1,1,3.86Zm-1.54-2.1a5.55,5.55,0,0,0-.55-2.84,2.12,2.12,0,0,0-3.45,0,5.57,5.57,0,0,0-.56,2.73V117a5.74,5.74,0,0,0,.57,2.9,1.9,1.9,0,0,0,1.73.93,1.86,1.86,0,0,0,1.69-.88,5.54,5.54,0,0,0,.57-2.77Z"/><path class="cls-6" d="M625.12,112.14a2.47,2.47,0,0,1,.69-1.8,2.41,2.41,0,0,1,1.79-.7,2.33,2.33,0,0,1,1.78.71,2.51,2.51,0,0,1,.69,1.83v.59a2.5,2.5,0,0,1-4.24,1.79,2.46,2.46,0,0,1-.71-1.84Zm1.15.63a1.59,1.59,0,0,0,.36,1.07,1.24,1.24,0,0,0,1,.42,1.22,1.22,0,0,0,.95-.41,1.61,1.61,0,0,0,.36-1.11v-.61a1.64,1.64,0,0,0-.35-1.07,1.32,1.32,0,0,0-2,0,1.69,1.69,0,0,0-.35,1.1ZM628,121l-.87-.54L633,111l.87.55Zm3-2a2.46,2.46,0,0,1,.69-1.79,2.61,2.61,0,0,1,3.56,0A2.49,2.49,0,0,1,636,119v.59a2.44,2.44,0,0,1-.69,1.79,2.37,2.37,0,0,1-1.77.7,2.39,2.39,0,0,1-2.49-2.54Zm1.14.65a1.53,1.53,0,0,0,.37,1.07,1.23,1.23,0,0,0,1,.42,1.19,1.19,0,0,0,1-.41,1.62,1.62,0,0,0,.36-1.12v-.61a1.56,1.56,0,0,0-.36-1.07,1.22,1.22,0,0,0-1-.42,1.25,1.25,0,0,0-1,.41,1.6,1.6,0,0,0-.37,1.11Z"/></svg>