<?xml version="1.0" encoding="UTF-8"?><svg xmlns="http://www.w3.org/2000/svg" viewBox="0 0 291.87 189.99"><g style="isolation:isolate;"><g id="Layer_1"><g style="opacity:.05;"><path d="M43.12,85.58c3.71-12.62,11.94-30.78,30.53-43.4,18.59-12.62,42.02-10.46,63.66-14.58,39.83-7.6,64.03,1.96,92.53,47.02,10.29,16.27,16.19,19.62,13.9,32.65-4.38,24.91-29.39,33.68-43.77,38.61-15.73,5.39-32.33,21.87-44.8,25.34-17.18,4.79-49.16,3.01-66.73-.15-9.46-1.7-30.87-8.84-39.56-19.18-16.19-19.25-8.86-55.74-5.75-66.31Z" style="fill:#0d0d88;"/></g><g><g><path d="M116.8,158.89c-.56,.1-1.13,.19-1.7,.25h0c-.32,.03-.63,.1-.93,.18,0,0,0,0-.01,0h-.03c-.28,.09-.56,.16-.85,.21-.36,.07-.72,.13-1.08,.19h0c-.42,.06-.84,.11-1.26,.15-.49,.05-.97,.11-1.45,.18-.54,.08-1.08,.14-1.62,.2-.49,.05-.98,.11-1.46,.2h-.01c-.3,.06-.6,.12-.89,.21h-.01s-.03,0-.05,.01c-.24,.08-.49,.13-.74,.17h0c-.43,.07-.87,.11-1.31,.15-.59,.05-1.18,.14-1.76,.25h0c-.51,.1-1.02,.2-1.53,.28h0c-.56,.1-1.11,.21-1.66,.33h0c-.67,.14-1.34,.29-2.01,.44-.58,.13-1.15,.27-1.72,.43h0c-.52,.15-1.03,.29-1.55,.42-.5,.13-1,.26-1.51,.37h0c-.56,.12-1.12,.24-1.68,.34-.05-.18-.19-.33-.38-.38-.11-.03-.19-.15-.26-.25-.14-.2-.26-.42-.36-.64h0c-.19-.39-.39-.77-.6-1.15,.03-.07,.04-.14,.03-.22-.03-.19-.17-.33-.34-.37-.4-.75-.79-1.52-1.16-2.28h0c-.45-.93-.9-1.85-1.36-2.78h0c-.32-.66-.65-1.33-.94-2.01-.19-.47-.39-.93-.58-1.4h0c-.19-.46-.37-.92-.54-1.38-.2-.54-.4-1.08-.6-1.62-.31-.84-.62-1.69-.93-2.53-.28-.76-.55-1.53-.79-2.3-.2-.66-.42-1.31-.64-1.97-.28-.82-.56-1.64-.85-2.45h0c-.29-.81-.55-1.62-.8-2.45h0c-.2-.69-.4-1.38-.59-2.07-.21-.78-.44-1.56-.68-2.33-.27-.9-.55-1.8-.85-2.69h0c-.25-.76-.5-1.53-.75-2.29-.23-.73-.45-1.47-.66-2.21-.18-.65-.36-1.3-.53-1.95-.18-.7-.37-1.39-.57-2.09-.31-1.11-.6-2.22-.9-3.33-.52-1.98-1.03-3.96-1.54-5.94-.44-1.69-.88-3.38-1.28-5.08-.18-.77-.36-1.54-.54-2.32-.22-.96-.43-1.92-.64-2.88-.22-1-.43-2.01-.59-3.03-.1-.64-.2-1.29-.33-1.93h0c-.15-.77-.29-1.54-.42-2.31-.13-.73-.25-1.46-.41-2.18h0c-.11-.5-.21-1-.31-1.5h0c-.14-.71-.28-1.43-.41-2.14-.12-.7-.25-1.41-.39-2.11h0c-.13-.67-.26-1.34-.37-2.01h0c-.16-.94-.34-1.88-.52-2.82-.23-1.2-.46-2.39-.69-3.59-.2-1.03-.38-2.06-.53-3.1-.08-.57-.15-1.16-.29-1.73-.09-.37-.16-.75-.22-1.13-.12-.69-.21-1.38-.3-2.07-.12-.94-.25-1.87-.4-2.8-.13-.86-.26-1.72-.36-2.58-.08-.73-.19-1.45-.32-2.17h0c-.08-.47-.17-.95-.22-1.42-.07-.65-.14-1.3-.22-1.95h0c-.08-.76-.17-1.51-.3-2.26h0c-.11-.59-.23-1.17-.36-1.75h0c-.13-.57-.24-1.14-.32-1.71-.13-1.12-.11-2.27-.1-3.4,0-.05-.01-.11-.03-.15,.09-.01,.17-.05,.23-.12,.05-.06,.09-.14,.09-.22,.03,0,.06-.01,.09-.01,.37-.04,.74-.11,1.11-.19,.55-.11,1.1-.19,1.66-.24,.63-.07,1.26-.14,1.89-.24,.68-.1,1.36-.18,2.04-.26,.74-.08,1.48-.17,2.22-.26,.54-.07,1.09-.13,1.64-.17,.44-.03,.88-.07,1.32-.1,.75-.06,1.49-.16,2.23-.26,.91-.12,1.81-.23,2.72-.34,.82-.1,1.64-.21,2.46-.35,.83-.14,1.66-.27,2.49-.4,.71-.11,1.42-.22,2.13-.33,.9-.13,1.8-.26,2.7-.4,.74-.11,1.48-.23,2.23-.31,.55-.07,1.1-.17,1.65-.28,.9-.17,1.8-.33,2.7-.49,.75-.14,1.5-.27,2.26-.39,.5-.08,1-.16,1.49-.25,.56-.1,1.13-.19,1.7-.27h0c.6-.09,1.2-.16,1.81-.22,.57-.05,1.15-.08,1.73-.09,.61-.01,1.22-.05,1.83-.12h.02c.47-.06,.95-.12,1.41-.21,.42-.08,.84-.18,1.25-.29h0c.56-.14,1.12-.26,1.68-.36h0c.78-.14,1.56-.25,2.35-.34h0c.95-.11,1.89-.24,2.83-.38h0c.64-.1,1.29-.21,1.94-.27,.47-.04,.95-.1,1.42-.15h0c.71-.09,1.43-.17,2.14-.26,.78-.1,1.56-.19,2.34-.29,.74-.09,1.48-.18,2.21-.26,.98-.11,1.96-.25,2.94-.41,.88-.14,1.77-.28,2.65-.43h0c.59-.1,1.18-.2,1.77-.31,.64-.12,1.28-.22,1.92-.31,.72-.1,1.43-.21,2.15-.33h0c.67-.11,1.34-.22,2.01-.31,.65-.09,1.3-.2,1.95-.31,.83-.15,1.66-.27,2.5-.39,1.02-.15,2.04-.31,3.06-.5,.73-.14,1.47-.28,2.2-.42,.01,0,.03-.01,.04-.02-.04,.2-.06,.41-.09,.61-.05,.42-.08,.85-.08,1.27h0c0,.55,.04,1.1,.08,1.64,.08,.91,.12,1.82,.15,2.73,.04,1.03,.06,2.06,.05,3.08,0,.89,.01,1.78,.05,2.67,.03,.74,.07,1.49,.12,2.23,.05,.63,.11,1.26,.19,1.88,.07,.59,.14,1.17,.19,1.76h0c.08,.9,.17,1.8,.26,2.7,.13,1.29,.27,2.59,.42,3.88h0c.18,1.52,.34,3.03,.49,4.54,.14,1.33,.26,2.67,.35,4.01h0c.06,.85,.12,1.71,.19,2.56,.05,.51,.09,1.02,.12,1.53,.02,.49,.07,.98,.12,1.47,.06,.61,.13,1.21,.2,1.82h0c.07,.62,.14,1.25,.19,1.87,.06,.73,.14,1.46,.24,2.19,.09,.72,.18,1.44,.25,2.16,.08,.83,.2,1.65,.32,2.47,.1,.69,.21,1.38,.29,2.07h0c.07,.64,.1,1.29,.14,1.94,.03,.66,.06,1.32,.16,1.98,.11,.8,.28,1.59,.43,2.38,.19,.95,.38,1.9,.59,2.84h0c.16,.7,.31,1.4,.46,2.1,.19,.92,.43,1.82,.68,2.73h0c.23,.83,.45,1.66,.67,2.5,.21,.85,.45,1.69,.69,2.53,.25,.87,.5,1.75,.77,2.61h0c.18,.58,.36,1.16,.53,1.75,.17,.59,.33,1.18,.48,1.77,.16,.63,.33,1.25,.51,1.87,.2,.7,.39,1.39,.57,2.09h0c.2,.77,.4,1.53,.59,2.3,.16,.63,.31,1.26,.44,1.89,.13,.63,.28,1.26,.44,1.88h0c.15,.58,.3,1.16,.47,1.74h0c.15,.51,.32,1.02,.5,1.52,.18,.5,.37,1,.57,1.49h0c.21,.51,.41,1.03,.61,1.54,.17,.43,.33,.87,.46,1.31,.1,.34,.22,.68,.35,1.02h0c.17,.44,.4,1,.87,1.18,.23,.09,.5-.03,.59-.26,.08-.21,0-.46-.21-.56-.22-.12-.33-.46-.41-.68h0c-.12-.31-.23-.63-.32-.95-.13-.47-.3-.93-.46-1.38-.19-.53-.38-1.05-.59-1.57h0c-.19-.48-.37-.97-.55-1.46-.17-.48-.33-.97-.48-1.46h0c-.16-.57-.31-1.14-.46-1.71-.16-.61-.3-1.22-.43-1.84-.13-.65-.28-1.29-.43-1.93h0c-.19-.77-.38-1.55-.58-2.31h0c-.18-.71-.37-1.41-.57-2.12-.17-.61-.34-1.23-.49-1.84-.15-.6-.31-1.21-.48-1.8-.17-.59-.34-1.18-.52-1.77-.26-.86-.51-1.73-.75-2.6-.23-.83-.47-1.65-.65-2.49-.18-.86-.41-1.7-.64-2.55-.24-.88-.47-1.76-.65-2.66-.14-.71-.29-1.41-.45-2.12-.21-.93-.4-1.87-.59-2.81h0c-.15-.77-.32-1.54-.44-2.32h0c-.1-.63-.15-1.26-.21-1.89-.06-.66-.12-1.32-.19-1.97-.08-.71-.19-1.41-.29-2.11h0c-.12-.81-.24-1.61-.33-2.42-.08-.73-.17-1.46-.27-2.18h0c-.1-.71-.18-1.42-.24-2.14h0c-.05-.64-.12-1.27-.19-1.91-.07-.6-.14-1.2-.2-1.8-.05-.47-.09-.94-.11-1.42h0c-.02-.53-.07-1.05-.12-1.58h0c-.08-.84-.13-1.69-.18-2.53-.08-1.35-.19-2.7-.3-4.04h0c-.13-1.52-.28-3.04-.44-4.56-.14-1.29-.27-2.58-.4-3.88-.09-.89-.18-1.79-.25-2.68h0c-.05-.61-.11-1.21-.19-1.81-.08-.6-.14-1.21-.18-1.82-.05-.73-.09-1.46-.12-2.19h0c-.04-.87-.06-1.75-.06-2.62,0-1.04-.04-2.08-.09-3.12h0c-.04-.93-.1-1.86-.2-2.78h0v-.02c-.06-.52-.12-1.05-.16-1.57-.04-.41-.07-.82-.12-1.23h0c-.03-.3-.05-.63,.03-.93,.05-.18-.05-.36-.23-.41-.03,0-.06,0-.1,0-.08-.29-.35-.48-.64-.44-.65,.07-1.3,.21-1.94,.35,0-.05,.01-.1,0-.15-.08-.41-.26-.8-.5-1.15h0c-.18-.28-.44-.52-.77-.55-.02,0-.04-.01-.06-.02-.02,0-.04,0-.05,0-.28,.02-.57,.08-.85,.14-.39,.08-.78,.16-1.16,.25h0c-.4,.09-.8,.16-1.2,.21-.49,.07-.98,.15-1.46,.24h0c-.82,.15-1.65,.29-2.48,.43h0c-.82,.14-1.63,.28-2.46,.38-.66,.08-1.32,.14-1.98,.2-.82,.08-1.63,.17-2.45,.28-.93,.12-1.86,.24-2.79,.35h0c-.81,.1-1.61,.2-2.42,.31-.55,.08-1.1,.16-1.65,.25-.66,.1-1.32,.21-1.97,.31-1.1,.18-2.21,.34-3.31,.51-1.08,.17-2.17,.33-3.25,.53-1.09,.21-2.19,.39-3.29,.58-1.02,.17-2.04,.34-3.06,.55-.67,.14-1.34,.26-2.01,.37-.87,.15-1.74,.28-2.62,.41-.77,.11-1.53,.23-2.3,.37h0c-.57,.11-1.14,.2-1.72,.27h0c-.7,.09-1.39,.19-2.08,.3h0c-.79,.13-1.58,.24-2.37,.35h0c-.87,.12-1.74,.24-2.6,.37-.61,.09-1.22,.19-1.84,.25-.5,.04-.99,.12-1.48,.19-.77,.11-1.54,.19-2.32,.26-.74,.06-1.48,.13-2.21,.23-.62,.08-1.23,.16-1.85,.23-.69,.08-1.38,.16-2.07,.25-.71,.09-1.41,.18-2.12,.28-.72,.1-1.44,.22-2.16,.35-.91,.17-1.83,.3-2.75,.43h0c-.93,.13-1.86,.27-2.79,.41-.83,.13-1.66,.25-2.5,.38h0c-.91,.14-1.83,.27-2.75,.38-.75,.09-1.49,.17-2.24,.21-.48,.03-.97,.06-1.44,.13h0c-.57,.09-1.14,.17-1.72,.26-.56,.08-1.14,.15-1.69,.3h-.02c-.15-.14-.35-.21-.56-.16-.05,.01-.1,.04-.15,.07-.06,0-.12,0-.18,.02-.13,.05-.22,.15-.25,.28-.04,.2,.01,.37,.12,.5,.14,.62,.23,1.26,.23,1.9h0c0,.47,.02,.94,.04,1.41h0c.03,.54,.08,1.08,.14,1.62,.06,.51,.11,1.01,.14,1.52,.04,.56,.1,1.12,.17,1.67h0v.02c.07,.56,.16,1.11,.27,1.67h0v.03c.09,.39,.15,.79,.19,1.19h0c.04,.44,.06,.87,.07,1.31,.02,.52,.05,1.03,.09,1.55h0c.05,.61,.12,1.22,.19,1.82,.08,.67,.15,1.34,.19,2.01,.04,.57,.09,1.13,.16,1.7h0c.06,.43,.1,.85,.13,1.28,.04,.59,.11,1.18,.18,1.76,.1,.85,.15,1.71,.16,2.56,.02,.9,.05,1.79,.12,2.69,.05,.65,.11,1.3,.19,1.95h0c.08,.6,.17,1.19,.27,1.79h0c.13,.81,.26,1.62,.4,2.42,.14,.83,.29,1.65,.44,2.47h0c.17,.9,.31,1.81,.44,2.71h0c.16,1.13,.33,2.26,.49,3.39,.14,1,.3,2,.47,3,.12,.7,.24,1.41,.37,2.11,.13,.67,.25,1.35,.37,2.02,.17,.94,.36,1.88,.55,2.82,.17,.82,.33,1.64,.48,2.47h0c.13,.74,.26,1.49,.4,2.23,.19,1.07,.4,2.13,.61,3.2,.21,1.05,.42,2.11,.63,3.16,.15,.77,.31,1.53,.48,2.29h0c.13,.61,.26,1.23,.38,1.85,.12,.61,.24,1.23,.37,1.84,.23,1.11,.49,2.22,.75,3.32,.32,1.36,.63,2.72,.96,4.07,.3,1.24,.58,2.47,.85,3.71,.27,1.24,.58,2.47,.92,3.68,.31,1.08,.64,2.16,.98,3.24,.31,.96,.62,1.92,.93,2.88h0c.18,.56,.35,1.13,.57,1.68h0v.02c.14,.33,.25,.66,.35,1,.16,.5,.29,1,.42,1.51,.15,.57,.31,1.13,.52,1.68h0c.18,.49,.38,.97,.58,1.45h0c.19,.45,.37,.9,.53,1.35,.21,.59,.43,1.17,.65,1.76h0c.25,.68,.5,1.36,.73,2.05,.2,.6,.41,1.19,.64,1.78h0c.23,.58,.46,1.16,.69,1.74,.25,.62,.52,1.24,.8,1.85h0c.27,.59,.55,1.16,.84,1.72h0c.25,.5,.49,.98,.73,1.47,.25,.52,.52,1.09,.95,1.5,.17,.16,.44,.16,.6-.01,.15-.16,.16-.4,.02-.57-.31-.38-.51-.86-.69-1.31h0c-.21-.52-.44-1.02-.67-1.52h0c-.27-.57-.53-1.14-.78-1.71-.26-.6-.51-1.21-.75-1.83-.22-.58-.45-1.16-.68-1.74h0c-.22-.57-.43-1.14-.62-1.72-.23-.7-.48-1.4-.74-2.09-.21-.58-.43-1.16-.63-1.75-.16-.48-.34-.95-.53-1.41-.19-.47-.38-.94-.55-1.42-.19-.51-.34-1.03-.48-1.56-.14-.53-.28-1.05-.46-1.56h0c-.12-.37-.24-.72-.37-1.07h0c-.2-.54-.36-1.09-.54-1.64-.3-.96-.61-1.92-.93-2.88h0c-.35-1.06-.68-2.13-.99-3.2-.35-1.19-.65-2.4-.93-3.61-.28-1.24-.57-2.49-.87-3.73-.33-1.35-.65-2.71-.97-4.06h0c-.26-1.1-.52-2.21-.79-3.31-.15-.6-.28-1.2-.39-1.8h0c-.12-.63-.25-1.25-.39-1.87-.17-.76-.32-1.51-.48-2.27-.21-1.05-.42-2.1-.63-3.15-.21-1.06-.41-2.12-.6-3.18-.13-.74-.27-1.48-.4-2.23-.15-.83-.31-1.66-.48-2.49-.19-.93-.37-1.87-.54-2.81h0c-.12-.68-.25-1.35-.37-2.03-.13-.7-.25-1.4-.37-2.1h0c-.17-.99-.32-1.98-.46-2.98h0c-.16-1.13-.33-2.26-.49-3.39-.13-.92-.27-1.84-.44-2.75-.15-.82-.29-1.64-.42-2.46-.13-.8-.25-1.6-.37-2.4-.09-.59-.17-1.18-.24-1.77-.08-.63-.13-1.26-.18-1.89-.07-.87-.1-1.75-.12-2.63-.02-.89-.07-1.79-.2-2.67h0v-.02c-.09-.57-.17-1.14-.24-1.71-.05-.44-.11-.87-.17-1.31-.07-.54-.11-1.08-.14-1.62-.04-.69-.08-1.37-.13-2.06-.04-.6-.09-1.2-.13-1.79-.04-.5-.06-1-.08-1.5-.01-.46-.04-.92-.07-1.37-.04-.44-.09-.87-.16-1.31-.08-.54-.14-1.08-.2-1.62-.05-.54-.1-1.09-.14-1.63h0c-.04-.54-.1-1.07-.18-1.59h0v-.02c-.08-.5-.13-1-.16-1.51-.02-.46-.04-.91-.06-1.37h0c-.02-.6-.1-1.2-.21-1.79,.51-.09,1.03-.15,1.55-.21,.58-.07,1.16-.13,1.74-.21,.45-.06,.91-.09,1.36-.11,.77-.04,1.54-.11,2.31-.2,.93-.1,1.86-.22,2.78-.36,.84-.12,1.67-.24,2.5-.37,.93-.14,1.86-.27,2.79-.41h0c.93-.13,1.86-.27,2.79-.44,.7-.13,1.41-.24,2.12-.35,.7-.1,1.4-.19,2.1-.28h0c.69-.08,1.37-.17,2.06-.24,.62-.07,1.25-.15,1.87-.23h0c.72-.1,1.44-.17,2.16-.23,.79-.07,1.59-.16,2.38-.27,.48-.07,.96-.14,1.44-.2h0c.63-.08,1.25-.17,1.87-.26h0c.86-.13,1.72-.25,2.59-.35,.8-.1,1.6-.21,2.4-.33,.68-.1,1.37-.2,2.05-.28,.6-.07,1.19-.16,1.78-.26h0c.75-.13,1.51-.25,2.26-.36,.88-.13,1.76-.26,2.64-.41,.69-.12,1.37-.24,2.06-.39,1-.21,2.01-.38,3.01-.55,1.1-.19,2.21-.37,3.31-.59,1.06-.21,2.14-.37,3.21-.54,1.11-.17,2.22-.34,3.32-.51,.66-.1,1.31-.21,1.97-.31,.54-.09,1.09-.16,1.64-.24,.8-.11,1.6-.2,2.4-.3,.94-.11,1.87-.23,2.81-.35h0c.81-.11,1.61-.21,2.42-.31,.66-.08,1.32-.16,1.99-.24,.84-.1,1.67-.24,2.51-.39,.83-.14,1.66-.28,2.48-.43,.47-.08,.95-.16,1.43-.23,.42-.06,.85-.14,1.26-.23h0c.38-.09,.75-.16,1.13-.22,.19-.03,.39-.07,.59-.07,.03,.03,.05,.06,.07,.1h0c.16,.25,.3,.52,.37,.8,.01,.04,.04,.08,.06,.12-.78,.17-1.56,.33-2.35,.47-.84,.15-1.67,.29-2.51,.45h0c-.64,.12-1.27,.22-1.91,.32-.68,.1-1.36,.21-2.03,.32-.7,.11-1.41,.22-2.12,.3-.66,.08-1.32,.17-1.98,.28-.59,.1-1.17,.19-1.76,.29-.88,.15-1.76,.29-2.64,.42-.96,.15-1.92,.3-2.89,.4-.74,.08-1.49,.17-2.23,.26-.78,.1-1.56,.2-2.34,.3-.71,.09-1.42,.18-2.14,.27-.46,.05-.92,.11-1.39,.15-.68,.06-1.35,.17-2.02,.27-.93,.14-1.86,.27-2.79,.39-.81,.1-1.61,.22-2.41,.37h0c-.59,.11-1.17,.23-1.75,.39h0c-.39,.11-.79,.21-1.19,.29-.43,.09-.88,.13-1.32,.17-.58,.05-1.17,.08-1.75,.08-.6,0-1.21,.03-1.81,.08-.63,.05-1.25,.13-1.87,.21-.58,.08-1.16,.17-1.74,.27-.49,.08-.98,.16-1.47,.24-.76,.12-1.52,.26-2.29,.39-.9,.16-1.8,.33-2.7,.5h0c-.52,.1-1.04,.21-1.56,.27h0c-.76,.09-1.51,.21-2.26,.32-.9,.13-1.8,.27-2.7,.4-.71,.1-1.43,.21-2.14,.33-.83,.13-1.67,.26-2.5,.4-.8,.13-1.6,.25-2.4,.35-.91,.11-1.82,.23-2.73,.36h0c-.72,.1-1.45,.2-2.18,.27-.44,.04-.87,.08-1.31,.11-.56,.05-1.12,.12-1.68,.2h-.01c-.73,.11-1.46,.2-2.19,.28-.7,.08-1.39,.16-2.08,.28h-.01c-.61,.11-1.23,.2-1.84,.28-.58,.08-1.16,.17-1.74,.28h0c-.33,.07-.67,.14-1.01,.17-.23,.02-.47,.09-.66,.23-.03,.02-.07,.02-.09,.05,0,0,0,.01-.01,.02,0,0-.01,0-.01,0h0s-.05,.08-.07,.12c-.13,.21-.09,.45,.05,.64-.19,.04-.34,.19-.34,.39-.03,1.16-.08,2.34,0,3.5h0c.04,.61,.14,1.22,.26,1.81,.11,.58,.22,1.15,.32,1.73,.12,.72,.19,1.45,.26,2.18,.06,.66,.12,1.32,.2,1.97h0c.06,.51,.15,1,.24,1.49h0c.13,.7,.23,1.4,.31,2.11h0c.1,.88,.23,1.75,.37,2.62,.14,.92,.28,1.84,.39,2.77,.09,.71,.18,1.42,.31,2.13h0c.07,.4,.14,.79,.24,1.19,.13,.54,.2,1.09,.29,1.64,.17,1.05,.36,2.09,.56,3.14,.23,1.2,.46,2.4,.7,3.6,.18,.93,.36,1.86,.52,2.8,.12,.68,.24,1.36,.37,2.04,.14,.7,.27,1.39,.39,2.09,.13,.72,.26,1.44,.41,2.16h0c.1,.51,.2,1.02,.32,1.52,.16,.71,.26,1.42,.39,2.14h0c.13,.78,.26,1.56,.41,2.34,.12,.63,.22,1.26,.31,1.89,.16,1.04,.36,2.07,.58,3.09,.2,.97,.41,1.93,.63,2.9h0c.18,.78,.36,1.55,.55,2.33h0c.41,1.71,.86,3.4,1.29,5.1,.51,1.98,1.02,3.96,1.55,5.94h0c.3,1.12,.6,2.23,.91,3.35h0c.19,.69,.38,1.38,.56,2.07h0c.17,.66,.35,1.31,.53,1.97h0c.21,.76,.43,1.51,.67,2.25,.25,.77,.5,1.54,.75,2.3,.29,.88,.57,1.77,.84,2.67,.23,.77,.46,1.53,.67,2.31,.19,.7,.39,1.39,.6,2.09h0c.25,.84,.52,1.68,.82,2.5h0c.29,.81,.57,1.62,.85,2.43,.22,.64,.43,1.28,.63,1.93,.24,.79,.53,1.57,.81,2.35h0c.31,.85,.62,1.7,.94,2.54,.2,.54,.41,1.07,.61,1.61h0c.18,.48,.37,.95,.56,1.42,.19,.47,.39,.93,.58,1.4h0c.29,.7,.63,1.39,.96,2.07,.45,.92,.91,1.85,1.37,2.77h0c.32,.65,.65,1.3,.98,1.95-1.01,.14-2.03,.28-3.03,.51h-.02c-.25,.07-.52,.14-.78,.12h-.03c-.09-.08-.22-.12-.35-.09h0c-.08,.02-.16,.04-.24,.06-.05,.01-.1,.04-.15,.07-.03,.02-.06,.06-.08,.09,0,0-.01,.02-.02,.02,0,.01-.02,.02-.02,.03-.02,.04-.03,.07-.04,.11,0,.04,0,.09,0,.13,.04,.24,.23,.33,.43,.35h0c.14,.01,.28,.03,.42,.04,.34,.04,.69-.02,1.03-.09h0c1.08-.21,2.18-.36,3.28-.51,.21,.41,.41,.82,.59,1.24h0c.26,.6,.65,1.43,1.36,1.55,.11,.02,.21,0,.3-.04,.09,.12,.23,.2,.39,.18h0c.61-.06,1.21-.14,1.81-.25h0c.53-.09,1.06-.21,1.58-.33h0c.53-.13,1.06-.26,1.58-.41,.55-.15,1.11-.27,1.68-.39,.67-.14,1.34-.27,2.01-.41,.54-.11,1.09-.21,1.64-.31h0c.52-.09,1.04-.18,1.56-.27,.55-.1,1.11-.18,1.66-.23,.46-.04,.93-.09,1.39-.17h.01c.29-.05,.58-.11,.86-.18,.28-.06,.56-.11,.84-.16h0c.46-.08,.93-.13,1.4-.18,.56-.06,1.11-.13,1.66-.22h.01c.46-.08,.93-.14,1.39-.2,.44-.05,.87-.11,1.31-.17,.38-.06,.75-.11,1.13-.18,.31-.05,.62-.11,.93-.18h0c.27-.06,.53-.1,.81-.13h0c.6-.06,1.2-.16,1.79-.27,.34-.06,.57-.39,.5-.73-.06-.34-.38-.56-.72-.5Z" style="fill:#4d4d4d;"/><path d="M79.62,159.3c-.66,.3-1.44,.33-2.15,.33h0c-.48,0-.96,.01-1.44-.02-.63-.04-1.26-.16-1.88-.28-.05,0-.1,0-.15,0,.04-.08,.05-.18,.03-.27-.24-.91-.5-1.82-.8-2.72h0c-.18-.55-.38-1.1-.61-1.63-.16-.38-.33-.76-.46-1.14-.11-.32-.18-.64-.25-.97-.1-.47-.22-.94-.36-1.41h0c-.15-.52-.28-1.05-.4-1.57-.16-.69-.35-1.36-.56-2.04h0c-.2-.65-.39-1.3-.56-1.96-.13-.52-.27-1.04-.42-1.56h0c-.13-.48-.25-.97-.35-1.46-.12-.62-.26-1.23-.4-1.85h0c-.15-.65-.28-1.3-.38-1.95-.11-.69-.24-1.37-.38-2.05h0c-.13-.64-.26-1.27-.39-1.9-.17-.83-.31-1.66-.44-2.49-.14-.86-.28-1.73-.45-2.58h0v-.02c-.18-.9-.31-1.81-.43-2.72h0c-.15-1.11-.32-2.22-.5-3.32h0c-.18-1.12-.38-2.23-.59-3.33h0c-.23-1.22-.44-2.45-.63-3.68-.16-1.05-.33-2.1-.49-3.16-.14-.87-.29-1.74-.45-2.6-.16-.8-.31-1.61-.46-2.41-.19-1.01-.37-2.02-.54-3.03h0c-.2-1.2-.41-2.41-.61-3.61-.17-.98-.33-1.96-.48-2.94h0c-.14-.92-.25-1.85-.34-2.77-.09-.91-.19-1.82-.31-2.72h0c-.1-.74-.21-1.47-.33-2.2-.17-1.07-.35-2.14-.52-3.22-.26-1.6-.48-3.2-.67-4.81-.17-1.37-.33-2.74-.51-4.11-.09-.74-.19-1.48-.3-2.22h0c-.06-.38-.11-.75-.16-1.13-.04-.34-.05-.69-.07-1.04-.02-.45-.05-.91-.09-1.36-.06-.66-.11-1.32-.15-1.98-.06-.78-.11-1.56-.14-2.35-.03-.79-.09-1.57-.16-2.36h0c-.07-.76-.14-1.51-.23-2.26h0c-.09-.69-.18-1.37-.27-2.06h0c-.09-.68-.17-1.36-.24-2.04-.06-.58-.12-1.17-.18-1.75-.06-.56-.1-1.11-.13-1.67-.04-.71-.09-1.42-.15-2.13-.06-.74-.1-1.48-.11-2.22-.01-.65-.03-1.31-.07-1.96h0c-.03-.56-.06-1.12-.08-1.67h0c-.03-.83-.14-1.65-.26-2.47,.78,0,1.56-.01,2.33-.1h0c.77-.09,1.54-.19,2.31-.32h0c.6-.1,1.21-.2,1.81-.32h0c.57-.11,1.15-.2,1.73-.29,.73-.11,1.47-.2,2.21-.25,.7-.05,1.39-.12,2.08-.22h0c.52-.07,1.03-.14,1.55-.17,.5-.03,1-.04,1.5-.05h0c.61,0,1.22-.05,1.83-.13,.64-.08,1.27-.18,1.9-.29,.56-.1,1.13-.2,1.7-.3,.64-.11,1.28-.2,1.93-.27h0c.78-.1,1.56-.22,2.33-.38,.91-.2,1.82-.35,2.74-.5,1.34-.21,2.67-.46,4-.71,1.28-.24,2.55-.49,3.82-.76h0c1.27-.27,2.55-.49,3.83-.71,1.24-.21,2.48-.42,3.72-.63,.93-.16,1.87-.31,2.8-.46,.79-.12,1.57-.24,2.35-.37,.63-.11,1.25-.2,1.88-.29h0c.63-.09,1.25-.18,1.88-.26,1.24-.16,2.48-.35,3.72-.54,1.53-.23,3.06-.45,4.59-.64,.9-.11,1.81-.22,2.71-.34,.7-.09,1.4-.21,2.1-.33,.74-.13,1.48-.25,2.22-.38,.58-.1,1.15-.19,1.73-.29h0c.51-.09,1.01-.16,1.52-.22,.6-.08,1.2-.17,1.8-.26,.63-.1,1.26-.21,1.89-.34,.74-.15,1.49-.27,2.24-.38,.64-.1,1.28-.2,1.92-.29h0c.51-.08,1.03-.13,1.54-.18h0c.62-.06,1.23-.14,1.84-.27,.33-.07,.66-.14,1-.21,.21-.04,.43-.1,.64-.15,.19-.05,.39-.09,.59-.11,.02,.02,.04,.04,.05,.07h0c.25,.39,.42,.82,.57,1.26,.1,.29,.42,.45,.71,.35,.29-.1,.45-.42,.35-.71-.18-.52-.38-1.04-.69-1.5h0c-.23-.35-.6-.57-1.02-.54-.02,0-.03,0-.04,0h-.04c-.25,.04-.5,.11-.74,.2,0,0,0,0-.01,0-.01,0-.03,0-.04,.01-.13,.05-.28,.1-.42,.1-.37,0-.76,.1-1.12,.17-.57,.12-1.14,.19-1.72,.25h0c-.53,.05-1.07,.1-1.6,.18-.65,.09-1.29,.19-1.94,.29-.76,.12-1.52,.25-2.28,.41h-.01c-.61,.14-1.23,.25-1.85,.36-.58,.1-1.17,.18-1.75,.24-.53,.05-1.05,.12-1.57,.2-.58,.09-1.16,.18-1.74,.28-.74,.12-1.48,.25-2.23,.37-.68,.12-1.37,.23-2.06,.32-.9,.12-1.8,.24-2.7,.36h0c-1.54,.2-3.07,.43-4.61,.67h0c-1.23,.19-2.46,.38-3.7,.56-.63,.09-1.26,.18-1.89,.28-.63,.1-1.27,.2-1.9,.31h0c-.78,.13-1.56,.25-2.33,.37-.94,.14-1.88,.3-2.82,.46-1.24,.21-2.48,.42-3.72,.63-1.3,.22-2.59,.44-3.88,.71h0c-1.27,.26-2.54,.51-3.81,.75-1.32,.25-2.65,.5-3.97,.74h0c-.93,.17-1.85,.34-2.77,.55h0c-.74,.17-1.49,.29-2.24,.38-.66,.08-1.32,.17-1.98,.29h0c-.57,.1-1.13,.21-1.7,.32-.61,.12-1.23,.22-1.85,.3-.57,.07-1.15,.11-1.73,.12-.52,0-1.03,.02-1.55,.05h0c-.54,.04-1.08,.11-1.62,.18h0c-.67,.1-1.35,.17-2.02,.22-.76,.06-1.52,.15-2.28,.26h0c-.59,.09-1.18,.18-1.76,.3h0c-.59,.11-1.19,.21-1.79,.31-.75,.12-1.51,.22-2.26,.3h0c-1.15,.11-2.32,.14-3.47,.11-.23,0-.43,.18-.44,.41,0,.23,.17,.42,.4,.44,.13,0,.27,0,.4,0,0,.02,0,.04,0,.07,.11,.82,.2,1.64,.23,2.46h0c.01,.56,.03,1.11,.05,1.67,.02,.65,.04,1.29,.05,1.94,.01,.76,.07,1.52,.14,2.28h0c.07,.71,.13,1.41,.18,2.11,.03,.57,.08,1.14,.13,1.71,.06,.58,.11,1.16,.15,1.75,.06,.69,.12,1.38,.18,2.07,.06,.7,.13,1.39,.22,2.08,.09,.74,.16,1.47,.22,2.21h0c.06,.77,.12,1.54,.14,2.31,.03,.79,.07,1.59,.12,2.38,.04,.67,.09,1.34,.15,2.01h0c.04,.43,.06,.87,.08,1.3,.01,.37,.02,.74,.05,1.1,.03,.4,.09,.79,.15,1.18,.11,.73,.2,1.47,.3,2.2,.18,1.37,.35,2.74,.52,4.11,.2,1.62,.43,3.24,.7,4.85h0c.18,1.07,.37,2.14,.54,3.21,.12,.73,.23,1.45,.34,2.18,.13,.89,.23,1.78,.31,2.68,.09,.95,.2,1.89,.34,2.83,.15,.99,.31,1.97,.47,2.96,.2,1.2,.4,2.41,.6,3.61,.17,1.02,.35,2.04,.54,3.06,.15,.8,.31,1.61,.47,2.41h0c.17,.85,.32,1.71,.45,2.57h0c.16,1.05,.33,2.1,.49,3.15,.19,1.24,.4,2.48,.62,3.71h0c.2,1.1,.4,2.2,.57,3.31,.17,1.1,.33,2.2,.48,3.3,.13,.92,.25,1.85,.4,2.77,.14,.86,.27,1.73,.4,2.59,.13,.85,.26,1.7,.42,2.54h0c.12,.63,.23,1.26,.35,1.89h0c.12,.68,.25,1.35,.37,2.03h0c.12,.68,.27,1.35,.45,2.01h0v.03c.17,.6,.33,1.19,.47,1.8,.12,.51,.25,1.01,.4,1.51h0c.15,.52,.3,1.03,.44,1.54,.18,.67,.38,1.34,.59,2h0c.2,.65,.39,1.3,.54,1.96,.13,.55,.27,1.09,.44,1.62h0c.14,.45,.26,.89,.36,1.34,.08,.36,.17,.73,.29,1.08h0c.15,.42,.33,.82,.51,1.21,.23,.5,.44,1.01,.62,1.53h0c.31,.88,.61,1.77,.91,2.65,.07,.21,.29,.32,.5,.26,0,.02-.02,.04-.03,.07-.03,.18,.07,.36,.25,.42,.64,.2,1.29,.39,1.96,.48h.01c.5,.08,1.02,.09,1.52,.09h0c.86,0,1.78-.04,2.57-.4,.26-.12,.37-.42,.25-.67-.12-.26-.42-.37-.67-.25Z" style="fill:#4d4d4d;"/><path d="M83.92,103.28h0c.71-.18,1.42-.34,2.14-.49,.83-.18,1.66-.32,2.5-.45,.73-.11,1.47-.23,2.2-.39h0c.91-.2,1.78-.55,2.62-.93,.3-.14,.44-.49,.3-.8-.14-.3-.49-.44-.8-.3-.77,.35-1.56,.67-2.39,.85h0c-.7,.16-1.41,.27-2.12,.38h0c-.85,.14-1.71,.28-2.55,.45-.73,.15-1.46,.31-2.19,.49-.95,.24-1.9,.46-2.85,.68-.82,.19-1.65,.39-2.48,.51-.26,.04-.45,.28-.41,.55,.03,.22,.21,.39,.44,.41,.9,.08,1.84-.14,2.71-.32,.97-.2,1.93-.41,2.89-.65Z" style="fill:#4d4d4d;"/><path d="M80.58,113.8c1.25-.23,2.5-.43,3.76-.62h0c.89-.13,1.78-.28,2.66-.47,.67-.14,1.35-.29,2.02-.43,.63-.14,1.25-.29,1.87-.45,.61-.15,1.22-.29,1.83-.4h0c.53-.1,1.07-.18,1.61-.25,.71-.09,1.41-.22,2.11-.36h0c.72-.14,1.45-.27,2.17-.4,.97-.17,1.93-.39,2.89-.6h0c1.04-.23,2.08-.46,3.1-.73h0c.73-.2,1.45-.41,2.17-.65h0c.71-.24,1.43-.48,2.14-.73h0c.84-.3,1.68-.58,2.53-.85h0c1.28-.42,2.57-.79,3.87-1.16,1.13-.32,2.26-.63,3.38-.98h.01c.5-.16,.99-.31,1.49-.47h0c.33-.11,.66-.22,.99-.33h0c.52-.18,1.03-.4,1.53-.62,.61-.26,1.23-.52,1.85-.75,.43-.16,.88-.31,1.35-.37,.36-.05,.61-.38,.57-.74-.05-.36-.37-.61-.73-.57-.57,.07-1.12,.25-1.64,.46h-.02c-.63,.26-1.25,.54-1.86,.84h-.02c-.47,.23-.94,.46-1.43,.66-.31,.12-.62,.23-.93,.33-.49,.15-.98,.29-1.48,.43-1.13,.32-2.25,.62-3.38,.93-1.31,.36-2.63,.73-3.92,1.14-.86,.27-1.72,.55-2.57,.85-.7,.24-1.41,.48-2.11,.71-.7,.22-1.41,.43-2.12,.62-1.01,.27-2.03,.49-3.05,.72-.94,.21-1.89,.42-2.84,.58-.73,.13-1.46,.27-2.19,.41h0c-.68,.13-1.36,.26-2.04,.36h0c-.55,.08-1.11,.17-1.66,.27-.65,.11-1.29,.26-1.92,.42-.61,.16-1.22,.31-1.84,.46-.67,.16-1.34,.34-2.01,.51-.84,.22-1.7,.4-2.56,.54h0c-1.27,.21-2.54,.45-3.79,.79-.25,.07-.39,.32-.33,.56,.06,.23,.29,.38,.53,.33Z" style="fill:#4d4d4d;"/><path d="M140.67,103.87c.37-.31,.31-.89-.11-1.13-.22-.13-.48-.14-.72-.09-.38,.07-.76,.18-1.13,.3h0c-.54,.17-1.07,.34-1.6,.52h0c-.72,.24-1.45,.46-2.17,.67-.87,.25-1.73,.52-2.6,.79h-.01c-1.03,.33-2.07,.65-3.1,.97-.91,.28-1.82,.56-2.72,.88h0c-.42,.15-.85,.31-1.28,.42h0c-.65,.17-1.3,.34-1.95,.51-.84,.22-1.68,.44-2.52,.65-.85,.22-1.7,.46-2.54,.7h0c-.97,.28-1.95,.57-2.91,.87h0c-.94,.29-1.88,.56-2.82,.83-.94,.26-1.89,.51-2.84,.74-.95,.23-1.9,.44-2.86,.63-.97,.19-1.94,.39-2.91,.59h0c-.78,.16-1.56,.33-2.34,.51h-.01c-.89,.21-1.78,.41-2.67,.61h0c-.88,.2-1.76,.4-2.64,.6h0c-.82,.18-1.64,.35-2.47,.52-1.14,.24-2.29,.48-3.43,.73-1.07,.23-2.13,.49-3.18,.79h0c-.67,.19-1.34,.38-2.02,.54-.6,.14-1.2,.27-1.8,.41-.54,.12-1.1,.25-1.61,.47-.16,.07-.32,.15-.44,.28-.23,.26-.14,.64,.18,.77,.17,.07,.36,.02,.47-.12,.02,0,.04,0,.06-.01,.52-.1,1.04-.2,1.56-.3,.61-.12,1.22-.24,1.82-.37,.7-.16,1.39-.35,2.08-.54h0c1.03-.29,2.07-.53,3.12-.75,1.14-.24,2.28-.47,3.42-.7,.83-.16,1.66-.33,2.48-.5,.89-.19,1.78-.39,2.66-.59,.89-.2,1.78-.4,2.67-.59h0c.78-.17,1.56-.33,2.34-.49,.97-.2,1.94-.4,2.91-.59,.97-.2,1.94-.41,2.91-.65h0c.96-.23,1.92-.49,2.88-.77h0c.95-.28,1.9-.56,2.84-.86h0c.96-.31,1.92-.6,2.88-.88,.83-.24,1.67-.48,2.51-.7,.84-.22,1.68-.45,2.52-.67h0c.65-.18,1.31-.35,1.96-.54h0c.46-.13,.91-.29,1.36-.45,.88-.31,1.77-.58,2.67-.84,1.04-.31,2.08-.62,3.12-.92,.86-.26,1.73-.5,2.6-.74,.74-.21,1.48-.41,2.22-.62,.54-.15,1.07-.31,1.61-.47,.33-.1,.66-.2,.99-.26h.06c.18,.03,.37-.02,.51-.14Z" style="fill:#4d4d4d;"/><path d="M82.41,123.08c-.18,.09-.25,.3-.16,.48,.07,.15,.24,.23,.4,.19,.7-.16,1.4-.32,2.11-.46h0c.58-.12,1.15-.26,1.72-.4,.31-.08,.63-.16,.94-.23,.23-.06,.48-.1,.7-.17h0c.44-.1,.87-.22,1.31-.34,.45-.13,.91-.25,1.37-.36h0c.49-.12,.98-.24,1.47-.37h0c.62-.16,1.26-.29,1.89-.42,.82-.16,1.65-.32,2.47-.48,.74-.15,1.48-.29,2.22-.45h0c.83-.18,1.66-.41,2.47-.65,1.16-.34,2.32-.67,3.49-1.01,.99-.28,1.97-.56,2.96-.82,.65-.17,1.29-.34,1.94-.51,.79-.2,1.58-.43,2.37-.65h0c.79-.23,1.59-.45,2.39-.65,.77-.2,1.55-.35,2.33-.48,1.11-.19,2.21-.4,3.31-.63,.91-.18,1.82-.37,2.72-.58,.85-.2,1.7-.36,2.56-.53,.9-.17,1.8-.35,2.69-.58,.88-.23,1.75-.47,2.63-.71,.74-.2,1.48-.43,2.24-.56,.27-.05,.54-.08,.81-.05,.34,.04,.64-.21,.67-.54,.03-.28-.13-.54-.4-.64-.42-.15-.88-.15-1.31-.07h0c-.8,.15-1.59,.43-2.36,.68-.85,.28-1.7,.55-2.57,.79h0c-.87,.24-1.74,.44-2.62,.64-.84,.19-1.68,.39-2.54,.51-.92,.13-1.83,.29-2.75,.45-1.1,.19-2.2,.38-3.3,.57-.82,.14-1.63,.3-2.43,.52h-.01c-.81,.22-1.61,.46-2.41,.7-.77,.23-1.55,.46-2.33,.67-.64,.17-1.29,.34-1.94,.5-1.01,.25-2,.54-2.99,.84h0c-1.16,.35-2.32,.7-3.47,1.08h-.02c-.78,.26-1.57,.51-2.37,.68h0c-.73,.16-1.47,.3-2.2,.45-.82,.16-1.65,.32-2.47,.48-.66,.13-1.31,.26-1.96,.43-.48,.13-.97,.25-1.45,.37-.47,.12-.94,.24-1.41,.38-.41,.12-.83,.23-1.25,.33-.56,.13-1.12,.28-1.67,.43h0c-.56,.15-1.11,.3-1.67,.43h0c-.74,.17-1.45,.45-2.13,.78Z" style="fill:#4d4d4d;"/><path d="M83.93,128.48c.1-.02,.2-.07,.26-.15,.12-.03,.24-.04,.37-.04,.68-.04,1.36-.12,2.03-.21,.69-.08,1.39-.17,2.07-.31,.52-.1,1.04-.19,1.56-.27,.54-.08,1.08-.18,1.6-.33,.55-.15,1.1-.3,1.65-.46,.72-.2,1.45-.36,2.19-.49,.73-.13,1.46-.25,2.19-.36,.6-.09,1.19-.2,1.78-.36,.38-.1,.75-.2,1.13-.32,.26-.08,.53-.14,.8-.18h0c.18-.03,.34-.05,.52-.03,.35,.03,.67-.23,.7-.58,.03-.29-.15-.57-.42-.67-.33-.12-.7-.07-1.03-.01-.31,.06-.62,.13-.93,.23h-.03c-.36,.12-.72,.23-1.08,.33-.54,.15-1.08,.26-1.63,.36-.74,.12-1.47,.27-2.21,.41h-.01c-.77,.16-1.53,.33-2.28,.54h0c-.55,.16-1.09,.31-1.64,.46h0c-.48,.14-.98,.24-1.47,.32-.53,.09-1.07,.18-1.6,.29-.66,.13-1.33,.24-2,.34-.67,.1-1.33,.21-2,.32h0c-.41,.07-1.08,.24-.99,.8,.04,.23,.25,.39,.48,.35Z" style="fill:#4d4d4d;"/><path d="M127.86,125.9c.84-.21,1.69-.39,2.54-.57,.85-.18,1.7-.36,2.54-.55,.65-.15,1.29-.29,1.95-.42,.52-.1,1.05-.2,1.57-.27,.25-.04,.51-.07,.76-.11,.31-.04,.54-.33,.49-.65-.04-.31-.33-.53-.64-.5-.25,.03-.51,.06-.77,.09-.55,.06-1.11,.15-1.65,.25h0c-.66,.12-1.32,.25-1.98,.37-.85,.16-1.7,.33-2.54,.5h0c-.86,.17-1.73,.35-2.59,.56h0c-.95,.22-1.89,.48-2.83,.73-.81,.22-1.63,.44-2.43,.7h-.01c-.69,.23-1.36,.49-2.04,.75-.63,.25-1.25,.49-1.89,.71h0c-.55,.19-1.11,.35-1.68,.51h0c-.9,.25-1.81,.48-2.73,.69-1.08,.25-2.16,.5-3.25,.74-.89,.2-1.77,.39-2.66,.56h0c-.91,.18-1.81,.38-2.71,.58h0c-1.29,.3-2.57,.58-3.86,.87-1.13,.25-2.26,.5-3.4,.72h0c-.9,.18-1.79,.35-2.69,.53h0c-.95,.19-1.9,.39-2.85,.62h0c-1.02,.25-2.03,.48-3.05,.72-.44,.1-.87,.2-1.3,.32-.12,.03-.24,.07-.35,.12-.08,.03-.15,.09-.2,.16,0,0,0,0-.01,.01-.01,.01,0,.03-.02,.05-.04,.06-.06,.12-.07,.19,0,.01-.01,.02-.01,.03-.08,.1-.17,.18-.27,.27-.16,.15-.17,.4-.03,.56,.15,.16,.4,.17,.56,.03,.15-.14,.3-.28,.42-.44,.03-.03,.04-.07,.06-.11,.46-.11,.93-.17,1.4-.25,1.05-.16,2.09-.35,3.12-.59,.93-.22,1.87-.41,2.81-.58,.9-.17,1.8-.34,2.7-.52,1.14-.22,2.28-.46,3.42-.69h0c1.3-.27,2.59-.54,3.89-.83,.89-.2,1.78-.4,2.68-.58,.9-.18,1.79-.38,2.69-.58,1.09-.24,2.17-.5,3.26-.76h0c.92-.23,1.85-.46,2.76-.72,.58-.16,1.16-.32,1.73-.5,.66-.2,1.31-.43,1.96-.66,.66-.23,1.32-.47,1.99-.67h0c.8-.24,1.6-.45,2.41-.67,.93-.25,1.85-.5,2.79-.73h0Z" style="fill:#4d4d4d;"/><path d="M120.02,133.21c.53-.14,1.07-.28,1.61-.41,.65-.16,1.29-.35,1.92-.56h0c.49-.16,.97-.31,1.46-.45,.19-.05,.4-.13,.6-.15,.32-.03,.56-.31,.54-.63-.02-.29-.25-.52-.54-.54-.31-.02-.63,.08-.92,.16-.51,.14-1.01,.3-1.51,.47h-.01c-.61,.21-1.23,.41-1.85,.59-.52,.15-1.05,.29-1.58,.41h0c-.67,.15-1.35,.27-2.03,.38-1.17,.19-2.33,.44-3.49,.7-1.18,.26-2.36,.53-3.53,.84h0c-.88,.23-1.77,.46-2.65,.69h0c-.78,.2-1.56,.41-2.34,.65h-.02c-1.09,.34-2.17,.69-3.25,1.03-1.2,.38-2.39,.75-3.6,1.1-.86,.25-1.73,.48-2.6,.71h0c-.85,.22-1.7,.46-2.55,.7h0c-.78,.23-1.56,.44-2.35,.62-.83,.19-1.69,.37-2.48,.68-.22,.09-.33,.34-.24,.57,.08,.21,.3,.32,.52,.26,.8-.21,1.61-.4,2.42-.58,.8-.19,1.6-.39,2.4-.61,.84-.23,1.69-.44,2.54-.64,.88-.21,1.77-.43,2.65-.66,1.22-.32,2.44-.64,3.65-.96h0c1.1-.29,2.2-.58,3.3-.89,.77-.22,1.54-.42,2.31-.61,.89-.22,1.78-.46,2.66-.71h.01c1.14-.33,2.3-.6,3.46-.86,1.15-.26,2.29-.52,3.44-.78,.68-.16,1.37-.32,2.05-.5h.02Z" style="fill:#4d4d4d;"/><path d="M141.18,76.18h0c.1-.24,.19-.48,.28-.72h0v-.02c.09-.24,.18-.47,.27-.7,.08-.19,.15-.37,.23-.56h0c.13-.33,.23-.66,.34-.98h0c.12-.38,.25-.75,.4-1.11,.1-.26,.2-.52,.27-.79,.05-.18,.08-.36,.12-.55h0c.04-.23,.07-.45,.09-.68h0c.05-.44,.04-.88,.04-1.31,0-.54-.02-1.08-.07-1.62-.03-.37-.06-.73-.1-1.1-.03-.29-.08-.58-.14-.87-.05-.27-.11-.55-.17-.82-.06-.24-.11-.48-.15-.73-.04-.22-.09-.44-.16-.65h0v-.03c-.08-.22-.15-.43-.22-.65-.09-.28-.18-.56-.29-.83-.06-.16-.12-.33-.17-.5-.07-.26-.18-.51-.29-.75l-.03-.06c.11-.12,.14-.29,.07-.43-.19-.4-.41-.8-.62-1.19h0c-.14-.25-.28-.51-.41-.76-.1-.2-.2-.4-.28-.6h0c-.07-.16-.14-.32-.22-.47-.09-.17-.2-.33-.3-.49-.12-.19-.24-.39-.38-.57-.16-.22-.33-.42-.51-.62-.17-.19-.34-.38-.51-.56h0c-.14-.15-.29-.3-.44-.44h0c-.22-.21-.43-.43-.64-.65h0c-.2-.21-.4-.42-.61-.61h0c-.18-.17-.37-.32-.56-.48h0c-.18-.15-.36-.3-.55-.45h0c-.12-.1-.24-.2-.36-.3-.14-.12-.28-.24-.43-.35-.16-.12-.32-.24-.49-.35h0c-.21-.15-.43-.29-.65-.42-.31-.18-.63-.34-.95-.49h0c-.31-.15-.63-.29-.95-.43-.16-.07-.33-.14-.5-.19h0c-.15-.05-.3-.11-.45-.17h0c-.27-.1-.54-.2-.82-.29-.28-.09-.55-.18-.84-.26-.27-.08-.55-.15-.82-.23-.27-.08-.55-.15-.83-.21-.26-.06-.53-.11-.8-.16-.24-.04-.48-.08-.72-.09-.24-.02-.48-.04-.73-.06h0c-.41-.04-.82-.04-1.23-.04h0c-.36,0-.71,0-1.07,.04h-.03c-.19,.02-.38,.05-.57,.1,0,0-.02,0-.02,0-.02,0-.03,0-.05,.01-.09,.03-.19,.05-.28,.05-.14,0-.27,.02-.41,.04h-.02c-.12,.02-.25,.03-.37,.04h0c-.17,.01-.33,.04-.5,.07h0s-.04,0-.06,0c-.18,.04-.35,.09-.53,.15-.04,0-.09,0-.14,0-.39,.1-.77,.21-1.15,.34h0c-.26,.09-.52,.18-.78,.28-.29,.11-.58,.22-.86,.34-.31,.13-.62,.26-.94,.38-.27,.11-.54,.22-.81,.35h0c-.31,.16-.61,.35-.9,.54h0c-.3,.2-.6,.39-.89,.6h-.02c-.21,.16-.41,.32-.61,.48h0c-.24,.2-.49,.4-.74,.59-.36,.28-.7,.58-1.04,.89h0c-.24,.22-.49,.44-.71,.69h0s-.03,.03-.05,.05c-.11,.13-.23,.26-.34,.4-.12,.14-.24,.27-.37,.41-.17,.18-.32,.37-.46,.57h0c-.16,.22-.33,.44-.51,.65-.19,.23-.37,.47-.55,.71h-.01c-.13,.2-.26,.38-.39,.57h0c-.11,.17-.22,.34-.33,.51h0c-.13,.21-.25,.42-.35,.64-.13,.27-.25,.55-.37,.83-.12,.29-.24,.57-.37,.86-.13,.27-.24,.55-.35,.84-.11,.28-.21,.57-.3,.86h0c-.08,.25-.16,.5-.25,.74h0c-.08,.21-.15,.42-.22,.63h0v.02c-.07,.19-.12,.38-.16,.57h0v.02c-.05,.19-.09,.38-.12,.57h0c-.04,.2-.06,.39-.09,.58h0c-.02,.19-.03,.39-.04,.59h0c0,.27-.03,.53-.05,.79-.02,.28-.05,.56-.06,.83-.01,.25-.02,.49-.02,.74,0,.33,0,.66,0,.99h0c0,.24,0,.48,0,.72h0c0,.13,.02,.25,.04,.36h0v.02c.03,.15,.06,.3,.1,.44h0c.04,.17,.08,.33,.12,.49,.03,.15,.06,.3,.07,.46,.02,.18,.04,.36,.07,.53h0c.03,.18,.07,.37,.12,.55,.05,.18,.09,.36,.13,.54h0c.05,.23,.09,.46,.12,.69,.04,.24,.08,.48,.13,.72,.07,.29,.15,.57,.24,.85,.07,.23,.14,.45,.21,.68h0c.04,.14,.12,.28,.19,.41,.09,.15,.18,.29,.27,.44h0c.12,.18,.21,.38,.31,.57h0c.12,.24,.24,.48,.37,.72h0c.2,.36,.47,.68,.75,.99,.04,.1,.1,.18,.18,.25h0s.05,.07,.09,.09c.13,.09,.23,.25,.32,.37,.17,.24,.35,.48,.54,.71h0c.13,.16,.27,.33,.42,.48h0c.12,.12,.25,.23,.39,.33,.21,.16,.42,.33,.63,.5,.3,.24,.6,.49,.89,.74,.28,.23,.55,.47,.83,.7,.23,.19,.47,.38,.71,.56,.2,.15,.41,.3,.62,.44,.17,.11,.35,.22,.53,.32,.29,.16,.6,.29,.9,.41,.44,.18,.88,.35,1.33,.51h0c.38,.14,.77,.28,1.15,.42h0c.28,.11,.57,.21,.86,.31h0c.29,.1,.59,.19,.89,.27,.25,.07,.49,.14,.73,.21,.23,.07,.46,.13,.69,.19,.23,.06,.47,.1,.71,.14,.23,.04,.46,.06,.69,.09,.27,.03,.55,.04,.82,.04h0c.25,0,.5,0,.75,.01,.25,0,.5,.01,.75,.02,.23,0,.46,0,.69,.02,.34,.02,.68,.03,1.02,.03h0c.32,0,.64,.02,.96,0h0c.26-.02,.53-.07,.78-.12,.52-.1,1.03-.2,1.54-.31h0c.08-.02,.14-.05,.2-.09,.08,.03,.17,.04,.27,.03,.35-.04,.71-.08,1.06-.14h.03c.18-.04,.36-.08,.54-.14,.01,0,.02,0,.03,0,.02,0,.04-.01,.06-.02h0c.18-.07,.34-.18,.49-.3h0c.1-.09,.21-.17,.31-.25h0c.12-.09,.24-.17,.36-.24h0c.11-.07,.23-.14,.35-.2,.09-.04,.19-.08,.28-.11h0c.17-.05,.33-.12,.49-.21,.27-.14,.51-.35,.74-.54h0c.24-.2,.48-.4,.72-.59,.19-.15,.38-.3,.57-.45h0c.22-.17,.43-.34,.64-.52h0l.02-.02c.23-.2,.44-.41,.66-.62h0c.25-.26,.5-.52,.74-.79h0c.24-.27,.47-.55,.69-.83,.17-.22,.34-.43,.52-.65,.21-.26,.4-.55,.57-.84h0c.21-.35,.4-.71,.58-1.07h0c.15-.29,.3-.59,.45-.88,.08-.17,.17-.33,.26-.49,.08-.15,.16-.3,.22-.46Zm-5.42,5.78c-.21,.16-.41,.33-.62,.48h0c-.21,.15-.41,.31-.61,.48h0c-.23,.2-.47,.38-.71,.57-.19,.14-.38,.3-.58,.41-.09,.05-.19,.09-.29,.13h0s-.06,.02-.09,.04c-.05-.09-.12-.16-.21-.2-.32-.14-.65-.27-.99-.34h-.02c-.25-.05-.5-.08-.76-.1-.22-.02-.44-.04-.66-.08-.19-.04-.37-.07-.56-.11-.12-.02-.25-.04-.37-.09h0s-.08-.04-.12-.06c-.08-.05-.16-.12-.24-.18-.03-.02-.05-.05-.08-.07,0-.03-.03-.1-.03-.11h0c-.03-.14-.05-.28-.06-.42h0c-.02-.2-.05-.39-.09-.58h0c-.04-.19-.11-.36-.2-.53,0,0,0-.02,0-.03v-.03c-.07-.1-.15-.19-.22-.29-.03-.04-.05-.09-.09-.12h0c-.08-.08-.17-.14-.26-.2h0c-.12-.08-.25-.14-.38-.19h-.01c-.16-.07-.32-.12-.49-.13-.01,0-.02,0-.03,0-.01,0-.02,0-.03,0-.16,0-.32,.02-.47,.04h0c-.31,.03-.61,.09-.91,.15h-.01c-.3,.06-.61,.12-.91,.17-.29,.04-.59,.05-.89,.05-.31,0-.62,0-.93-.01-.15,0-.31,0-.47-.04-.08-.02-.16-.04-.24-.07-.1-.04-.24-.17-.34-.25h0c-.13-.11-.28-.23-.38-.37h0c-.07-.1-.14-.21-.21-.32-.14-.22-.29-.42-.45-.63h0c-.19-.25-.39-.5-.61-.72-.15-.15-.31-.31-.5-.42h0c-.18-.11-.39-.19-.59-.25-.17-.06-.34-.11-.52-.15h0c-.17-.04-.34-.04-.51-.04h0c-.2,0-.41,.02-.59,.12-.12,.06-.23,.15-.33,.26-.08,.09-.16,.2-.21,.31-.07,.14-.13,.29-.19,.44-.07,.17-.14,.35-.2,.52h0c-.05,.16-.09,.32-.12,.49-.03,.21-.04,.42-.04,.62h0c0,.25,0,.49,.02,.74,.01,.18,.03,.36,.07,.53,0,0,0,.01,0,.02v.02h0c.05,.2,.15,.4,.24,.59,.14,.29,.27,.58,.41,.88,.18,.38,.37,.74,.59,1.1h0v.03c.17,.26,.33,.53,.53,.76h0s.02,.04,.04,.05h0c.14,.15,.3,.26,.47,.36,.06,.03,.13,.06,.2,.09-.1-.03-.2-.06-.3-.09h0c-.28-.09-.55-.19-.82-.3-.39-.15-.78-.3-1.17-.44-.43-.16-.87-.32-1.29-.5-.28-.11-.55-.23-.82-.36-.16-.09-.32-.18-.47-.28h0c-.2-.13-.39-.27-.58-.41-.22-.17-.44-.34-.65-.53h0c-.27-.24-.55-.48-.83-.72-.3-.25-.61-.5-.93-.72h0l-.03-.02c-.23-.16-.45-.31-.68-.46h0c-.12-.08-.23-.15-.34-.24-.14-.11-.26-.25-.38-.38-.19-.21-.37-.42-.54-.64-.12-.16-.25-.32-.37-.49-.01-.02-.02-.03-.03-.05,0,0,0,0,0,0-.02-.12-.09-.22-.18-.28-.23-.26-.46-.53-.62-.83-.12-.22-.23-.45-.34-.68-.11-.23-.22-.45-.35-.66-.09-.13-.17-.27-.25-.41-.05-.08-.1-.17-.14-.26h0c-.08-.22-.15-.44-.22-.66-.09-.26-.18-.52-.24-.79-.05-.22-.09-.44-.12-.66-.04-.24-.07-.48-.12-.72-.04-.2-.08-.4-.13-.59-.04-.15-.07-.3-.1-.45,.11,.07,.24,.09,.36,.04,.19-.08,.39-.12,.59-.13,.12,0,.28-.03,.4-.02h0c.07,.01,.14,.04,.2,.07,.09,.04,.18,.1,.25,.17h0c.19,.17,.4,.32,.61,.45,.19,.12,.39,.25,.6,.35,.23,.11,.49,.16,.74,.2,.25,.04,.51,.08,.76,.1h0c.21,.02,.43,.03,.64,.04h0c.32,.01,.64,0,.97,0h0c.31,0,.62,0,.93-.01h0c.23,0,.46,0,.69,0,.17,0,.34,0,.5,.02,.16,.02,.32,.08,.48,.13,.18,.06,.35,.11,.53,.17,.08,.03,.15,.07,.22,.12,.14,.09,.26,.2,.38,.31,.12,.12,.25,.23,.35,.36h0c.06,.07,.11,.15,.15,.23,.04,.1,.06,.22,.08,.33,.03,.2,.04,.4,.04,.6,0,.23-.02,.47-.07,.69-.03,.16-.06,.32-.11,.48h0c-.04,.13-.13,.25-.2,.37-.1,.17-.21,.35-.33,.51-.1,.14-.2,.27-.31,.4-.13,.16-.26,.32-.38,.48-.12,.17-.22,.35-.3,.54h0c-.08,.18-.14,.37-.2,.56h0c-.07,.24-.12,.48-.15,.73h0c-.03,.21-.06,.42-.08,.63-.03,.25-.04,.51-.05,.77-.01,.31-.01,.62,.02,.93h0c.02,.14,.06,.32,.02,.45-.1,.29,.06,.6,.35,.7,.22,.07,.45,0,.6-.17,.26-.3,.22-.75,.16-1.12h0v-.02h0c-.04-.26-.06-.52-.07-.78,0-.23-.02-.46-.01-.69,0-.19,.03-.37,.06-.55,.03-.19,.06-.39,.12-.57,.05-.16,.1-.32,.17-.47,.05-.13,.12-.26,.2-.38,.09-.14,.19-.27,.3-.4,.12-.15,.24-.3,.35-.46h0c.13-.2,.24-.39,.36-.59h0c.1-.18,.22-.37,.28-.57,.06-.19,.09-.38,.12-.57h0v-.02c.05-.29,.07-.59,.06-.88h0v-.02c0-.23-.02-.46-.06-.69h0c-.03-.19-.07-.36-.14-.53,0,0,0-.02,0-.03h0c-.07-.17-.17-.32-.28-.46h0c-.13-.16-.28-.3-.43-.44-.16-.15-.32-.29-.5-.4h0c-.12-.08-.24-.15-.38-.21-.19-.08-.39-.14-.59-.2-.2-.06-.41-.13-.62-.16h-.02c-.2-.03-.41-.02-.62-.02h0c-.24,0-.48,0-.72,.01-.3,0-.61,0-.91,0-.31,0-.63,0-.94-.01h0c-.2,0-.39-.02-.59-.04-.24-.02-.47-.05-.71-.09-.17-.03-.36-.05-.52-.12-.18-.07-.35-.17-.51-.27h0c-.18-.11-.37-.22-.54-.35-.15-.11-.31-.2-.48-.26h-.01l-.03-.02c-.1-.03-.21-.05-.31-.06,0,0-.02,0-.03,0-.01,0-.03,0-.04,0-.16,0-.33,0-.49,0-.3,0-.59,.05-.87,.17-.06,.02-.1,.06-.14,.1-.01-.15-.03-.29-.05-.44-.02-.18-.06-.36-.1-.54h0c-.03-.12-.06-.25-.07-.37-.01-.09-.02-.18-.02-.27,0-.23,0-.47,0-.7,0-.33,0-.65,0-.98,0-.23,0-.47,.02-.7h0c.01-.27,.04-.53,.08-.8,.03-.28,.06-.56,.07-.84,0-.17,.02-.34,.04-.52,.02-.17,.05-.34,.08-.51,.04-.18,.08-.35,.12-.53,.05-.17,.1-.35,.16-.52,.07-.2,.15-.41,.23-.61h0c.1-.26,.19-.53,.28-.8,.08-.26,.17-.52,.26-.77,.17,.08,.38,.03,.49-.13,.02-.04,.04-.08,.05-.12,.02-.02,.05-.04,.07-.05,.13-.1,.27-.2,.42-.28,.14-.07,.29-.13,.44-.19,.13-.05,.26-.11,.4-.14,.07-.02,.14-.02,.21-.03,.01,.02,.02,.04,.03,.06,0,.04,0,.09-.01,.13-.01,.06-.04,.11-.07,.16-.1,.17-.25,.32-.37,.47-.19,.22-.37,.43-.55,.66h0c-.16,.2-.32,.4-.47,.61h0c-.12,.16-.24,.32-.33,.49-.12,.23-.11,.52,.11,.69,.06,.04,.12,.07,.19,.08,.13,.04,.26,.05,.39,.04h0c.2-.02,.39-.08,.57-.17,.17-.08,.33-.16,.5-.24h0c.14-.07,.28-.14,.42-.2,.11-.04,.22-.08,.33-.11,.13-.03,.27-.04,.4-.04h0c.06,0,.16-.01,.2,.01,.03,.01,.05,.04,.07,.06h0c.07,.1,.15,.2,.24,.3h0c.05,.06,.08,.13,.11,.2h0c.06,.19,.1,.38,.14,.58h0c.04,.21,.08,.42,.09,.63h0c0,.1,0,.21-.04,.31-.03,.1-.08,.2-.14,.29h0c-.06,.09-.14,.17-.23,.24-.12,.1-.26,.19-.39,.28-.2,.13-.41,.25-.62,.37-.24,.14-.48,.29-.71,.46h0c-.14,.11-.28,.22-.41,.35-.13,.13-.23,.28-.33,.43h0c-.12,.18-.23,.38-.33,.58-.11,.23-.21,.46-.3,.7h0c-.05,.16-.11,.32-.19,.45h0c-.05,.08-.13,.15-.2,.21h0c-.06,.05-.12,.1-.19,.14-.27-.06-.54,.09-.62,.36-.04,.14-.03,.28,.04,.41,.22,.39,.7,.49,1.08,.27h0c.15-.09,.29-.2,.42-.31h0c.14-.12,.25-.27,.35-.42,.01-.01,.03-.02,.04-.04l.02-.02c.12-.2,.21-.42,.29-.63,.08-.21,.17-.42,.27-.63,.07-.16,.16-.32,.25-.47,.06-.1,.12-.2,.19-.28,.09-.1,.19-.19,.29-.28,.17-.16,.36-.3,.55-.43h0c.21-.14,.42-.29,.62-.44,.15-.11,.29-.22,.43-.34h0l.02-.02c.14-.12,.26-.27,.36-.42h.01v-.02c.1-.15,.18-.32,.24-.49h0v-.02c.06-.19,.09-.39,.1-.59h0c0-.26-.03-.53-.08-.79h0c-.04-.24-.09-.48-.17-.71h0c-.06-.18-.15-.35-.27-.49-.07-.08-.14-.17-.2-.25h0c-.11-.15-.25-.27-.41-.35h0c-.2-.1-.43-.11-.65-.1h-.02c-.17,.01-.34,.05-.5,.1,0,0-.02,0-.03,0-.02,0-.04,0-.06,.02-.14,.05-.28,.1-.42,.16-.17,.07-.34,.15-.5,.23h0c-.07,.03-.14,.07-.2,.1,.08-.13,.17-.25,.25-.38h0c.16-.23,.32-.46,.48-.69h0c.13-.18,.26-.37,.36-.57h0v-.02c.06-.1,.1-.21,.12-.32h0c.02-.1,.03-.19,.03-.28h0c0-.12-.03-.24-.07-.35h0c-.09-.22-.3-.35-.54-.34-.12,0-.25,.01-.37,.04-.17,.04-.33,.1-.49,.16h0c-.17,.07-.34,.14-.49,.22h-.01c-.1,.06-.21,.11-.32,.16,.1-.23,.21-.46,.3-.7,.11-.27,.22-.54,.34-.8,.09-.2,.18-.4,.28-.59h0c.09-.17,.17-.33,.27-.49,.11-.18,.23-.34,.36-.51,.18-.23,.36-.46,.55-.68h0c.19-.23,.37-.46,.54-.7h0c.12-.17,.24-.33,.38-.47,.14-.14,.27-.28,.4-.43,.1-.12,.21-.23,.33-.33,.26-.22,.5-.45,.75-.68h0c.32-.29,.64-.58,.98-.85,.25-.2,.5-.4,.75-.6h0c.18-.15,.37-.28,.56-.41,.29-.2,.59-.39,.89-.57,.27-.17,.53-.35,.81-.49,.24-.12,.49-.24,.74-.35,.31-.14,.63-.29,.93-.44,.15-.07,.29-.14,.44-.21,0,.11,0,.23,.04,.34h0c.04,.13,.12,.25,.21,.34,0,0,0,.02,.01,.02,.02,.02,.04,.04,.06,.06,.07,.05,.15,.09,.23,.13,0,0,0,0,.01,.01,.03,.02,.05,.03,.08,.04,.12,.05,.25,.09,.38,.12,.04,.01,.08,.02,.13,.03-.05,.01-.09,.03-.14,.04-.18,.04-.36,.08-.54,.11-.22,.04-.44,.08-.65,.14-.17,.04-.34,.08-.5,.14h0c-.14,.05-.28,.12-.41,.2-.16,.09-.32,.19-.47,.3-.15,.12-.28,.27-.37,.44h0c-.08,.17-.12,.36-.11,.54,0,.13,.02,.26,.06,.39,.05,.14,.12,.27,.2,.39h0v.02c.15,.25,.34,.47,.53,.69,.15,.18,.31,.37,.5,.52h0s.03,.03,.04,.05c.1,.07,.21,.13,.32,.19h0s.02,.02,.04,.02c.12,.06,.25,.11,.38,.15h0c.13,.05,.27,.09,.41,.12h.02c.15,.04,.31,.06,.47,.07,.2,0,.41,0,.61,0,.23,0,.46,0,.68-.02,.21-.01,.43-.05,.63-.1h0c.22-.06,.43-.14,.63-.23h0c.18-.09,.36-.19,.51-.32h.02c.17-.16,.33-.32,.48-.49h0c.14-.16,.29-.31,.45-.45,.12-.1,.25-.19,.38-.27,.14-.08,.28-.14,.43-.19,.19-.07,.38-.12,.57-.16,.15-.03,.31-.07,.46-.08,.22-.02,.44-.06,.66-.1,.27-.05,.54-.08,.82-.09,.17,0,.34-.01,.5,0,.21,.02,.42,.01,.63,0,.24,0,.49-.01,.72-.1,0,0,.02,0,.02,0h0c.13-.06,.24-.13,.35-.22,0,0,.01,0,.02,0,.01,0,.02-.02,.03-.03,.11-.09,.22-.2,.31-.31,.07-.09,.15-.18,.21-.28h0c.03-.05,.04-.11,.04-.16,.04-.16,.04-.34,.04-.5,0-.19,0-.37,.01-.56h0c0-.07,.01-.15,.04-.21h0c.03-.09,.1-.18,.16-.26,.06-.09,.12-.18,.19-.25,.04-.04,.08-.07,.13-.1h0s.04-.02,.06-.03h0c.05,.06,.12,.1,.2,.12,.18,.04,.38,0,.49-.17h.03c.17,.08,.34,.15,.52,.2,.14,.04,.28,.11,.41,.16,.31,.13,.61,.27,.91,.41,.3,.14,.59,.29,.88,.46,.2,.12,.4,.25,.59,.38,.16,.11,.31,.22,.46,.34h0c.13,.1,.25,.2,.37,.3h0s.04,.03,.05,.04c-.21,0-.42-.01-.63,0h-.01c-.21,.02-.42,.05-.63,.08-.2,.03-.4,.08-.6,.14-.21,.06-.41,.16-.59,.27-.18,.11-.35,.23-.51,.37h0c-.17,.16-.33,.32-.48,.5h0c-.13,.16-.27,.32-.4,.48-.11,.13-.22,.26-.34,.38-.11,.11-.21,.21-.33,.31-.08,.07-.17,.12-.27,.17-.08,.03-.17,.06-.26,.07h0c-.19,.01-.38,0-.57,0h0c-.36-.01-.72-.02-1.08-.02-.44,0-.87,.02-1.3,.06-.32,.03-.64,.07-.97,.09-.22,.02-.43,.03-.65,.03-.22,0-.44,.01-.66,.03-.18,.02-.35,.03-.52,.08-.17,.05-.34,.13-.49,.21-.22,.11-.43,.24-.63,.38-.2,.14-.4,.3-.58,.46h0c-.13,.12-.27,.23-.4,.36-.15,.14-.28,.3-.41,.45h0c-.17,.2-.33,.4-.49,.6-.2,.26-.38,.54-.55,.82-.17,.28-.33,.56-.48,.86h0c-.09,.18-.17,.36-.24,.55-.06,.19-.12,.37-.17,.56h0c-.06,.23-.12,.47-.18,.7h0c-.06,.27-.1,.54-.13,.81h0c-.03,.27-.05,.54-.05,.82h0c0,.19,0,.38,.04,.57h0c.01,.07,.04,.12,.08,.18,.04,.07,.08,.13,.14,.19,.03,.04,.07,.08,.11,.1,.02,.01,.04,.02,.06,.03,.09,.04,.18,.05,.28,.06,0,0,.01,0,.02,0,.03,0,.05,.01,.08,.01,.13,0,.27,0,.4,0,.14,0,.28-.03,.41-.07,.01,0,.02,0,.03,0,.01,0,.03,0,.04-.01,.14-.05,.26-.12,.38-.2h0c.26-.19,.48-.44,.69-.66,.22-.23,.44-.46,.67-.68,.12-.11,.24-.21,.38-.3,.11-.07,.22-.14,.33-.19,.1-.04,.21-.08,.31-.11h0s.08-.01,.12-.02c.07,.04,.13,.1,.19,.15h0c.17,.15,.34,.3,.53,.41,.2,.11,.43,.13,.65,.14h.03c.2,.01,.41,0,.61,0h.04c.22-.02,.43-.07,.64-.13,.16-.05,.31-.1,.47-.16,.23-.09,.46-.22,.68-.34,.21-.11,.42-.23,.64-.32h0c.07-.03,.14-.04,.22-.05,.03,.1,.05,.21,.07,.31,.06,.27,.13,.54,.19,.8,.02,.11,.05,.22,.06,.33-.15,.03-.3,.04-.45,.04-.31,.01-.62,.03-.93,.04-.22,0-.45,.03-.67,.05h-.02c-.31,.03-.63,.05-.94,.05-.19,0-.42,.03-.61-.03h0c-.17-.05-.35-.08-.53-.09h0c-.28,0-.54,.1-.78,.23h0c-.18,.1-.36,.19-.55,.29h0c-.23,.12-.45,.28-.67,.43h0c-.27,.19-.53,.38-.78,.58h0c-.14,.12-.29,.24-.44,.34h0s-.09,.06-.15,.08c-.06,.03-.17,.03-.25,.04-.21,.03-.41,.07-.6,.16h0c-.16,.08-.32,.17-.46,.28-.15,.11-.29,.24-.42,.37-.15,.15-.29,.3-.42,.47-.15,.19-.28,.39-.4,.6h0c-.09,.17-.19,.33-.26,.51h0c-.07,.17-.12,.34-.16,.52-.04,.17-.09,.34-.11,.52-.04,.26-.03,.54-.04,.8,0,.31,0,.64,.08,.95,0,0,0,.01,0,.02v.02h0c.07,.24,.16,.46,.26,.69h0v.02h0c.1,.24,.23,.48,.39,.69h0v.03h.01c.09,.12,.2,.22,.31,.31,.01,.01,.02,.03,.03,.04l.03,.02c.17,.12,.36,.22,.54,.32h0c.21,.12,.42,.23,.63,.35,.23,.13,.48,.19,.74,.21,.24,.02,.48,.01,.72,0h.03c.23-.01,.46-.02,.68-.02,.24,0,.48,0,.72,0,.18,0,.36,0,.54,.03,.15,.02,.29,.07,.43,.11,.18,.06,.37,.12,.56,.15,.17,.02,.34,.03,.51,.03,.1,0,.2,0,.3,.02,.01,0,.07,.05,.1,.07,.06,.05,.11,.1,.16,.17,.05,.08,.08,.17,.11,.26h0c.04,.16,.08,.31,.11,.47,.04,.22,.1,.44,.15,.66h0c.05,.22,.11,.43,.17,.65h0c.05,.16,.09,.31,.12,.47h0c.03,.13,.06,.27,.09,.4,.05,.21,.18,.41,.28,.59,.16,.27,.33,.54,.51,.79,.13,.18,.25,.36,.38,.53,.14,.18,.35,.32,.54,.46h0c.14,.1,.29,.2,.43,.31h0c.1,.08,.2,.15,.3,.21h0c.14,.1,.3,.16,.46,.21h.01s.03,.02,.05,.03c.15,.05,.3,.1,.46,.16,.14,.05,.26,.15,.38,.24h0c.19,.14,.39,.3,.61,.37h0c.15,.05,.31,.06,.47,.05h0c.18-.02,.35-.1,.5-.21,.01,0,.02,0,.03-.02,.01,0,.02-.02,.03-.03h0c.12-.1,.21-.23,.3-.36h.01v-.02c.07-.1,.12-.22,.17-.33,0,0,.01-.01,.02-.02,0-.02,.02-.04,.02-.06h0c.05-.17,.07-.35,.09-.53h0c.01-.17,.03-.33,.03-.5,0-.17,.02-.34,.04-.51h0c.04-.35,.09-.7,.14-1.05h0c.05-.32,.09-.65,.18-.96,.05-.2,.12-.4,.18-.59,.11-.32,.25-.64,.38-.95,.14-.33,.29-.66,.42-1,.13-.32,.26-.65,.38-.98,.15-.4,.3-.81,.44-1.21h0c.09-.28,.19-.56,.29-.83h0c.09-.25,.15-.5,.21-.76h0c.05-.23,.11-.46,.14-.7h0c.03-.21,.04-.42,.04-.63h0c0-.27-.05-.54-.16-.79,0,0,0-.01,0-.02h0c-.06-.13-.12-.26-.17-.38-.03-.07-.03-.2-.03-.29h0c0-.1-.01-.22,.02-.32,.02-.07,.06-.14,.09-.2h0c.08-.13,.16-.25,.25-.37,.08-.11,.17-.22,.28-.31,.07-.06,.14-.12,.22-.16h0c.06-.03,.12-.04,.19-.05,.12-.02,.24-.02,.36-.02,.08,0,.17,0,.25,.02,.05,.01,.09,.03,.14,.05,.1,.04,.26,.18,.37,.26,.21,.16,.43,.32,.66,.44h0c.14,.07,.27,.15,.42,.21,.18,.08,.36,.14,.55,.19,.21,.06,.41,.12,.62,.18h0c.22,.06,.46,.1,.69,.12h0c.16,.01,.32,.03,.48,.05h0c.28,.04,.57,.06,.86,.03,.34-.04,.58-.34,.56-.67,0,.05,.02,.1,.02,.15,.04,.36,.07,.71,.1,1.07,.02,.2,.02,.41,.03,.61-.08-.07-.18-.1-.29-.11-.01,0-.02,0-.03-.01-.03,0-.05,0-.08,0-.17,.02-.33,.06-.49,.1h0c-.19,.05-.38,.12-.56,.19h0c-.16,.06-.31,.13-.45,.24-.09,.07-.18,.15-.25,.23-.11,.12-.2,.25-.3,.39h0c-.12,.18-.23,.37-.33,.55h0c-.08,.15-.16,.3-.22,.45-.06,.16-.1,.33-.13,.49-.04,.21-.07,.43-.09,.65h0c-.02,.22-.04,.44-.04,.66,0,.17,0,.33,.01,.5,.02,.18,.08,.36,.14,.53,.06,.17,.1,.34,.13,.51h0c.05,.34,.04,.69,.04,1.03h0c0,.6-.02,1.24-.21,1.82-.08,.25,.06,.53,.31,.61,.15,.05,.31,.01,.43-.08-.01,.02-.02,.04-.03,.06h0c-.15,.3-.29,.59-.44,.88h0c-.17,.34-.35,.68-.55,1.01-.14,.24-.29,.48-.47,.7-.18,.22-.36,.44-.53,.67-.21,.26-.43,.52-.65,.76h0c-.23,.25-.47,.5-.71,.74-.2,.19-.4,.38-.61,.55Zm-15.9-32.84c.08-.01,.16-.02,.24-.03,.19-.03,.38-.06,.57-.07,.16-.01,.32-.03,.48-.04,.14,0,.28-.02,.43-.04,.12-.01,.24-.02,.36-.03,.16,0,.32-.03,.47-.06h0c.15-.03,.31-.04,.46-.04h0c.35-.01,.7,0,1.04,0,.38,0,.77,0,1.15,.04,.25,.02,.49,.04,.74,.05h.01c.21,0,.41,.04,.61,.07h0c.26,.04,.51,.08,.76,.12,.26,.05,.52,.1,.78,.16,.28,.07,.55,.13,.83,.2,.06,.02,.13,.04,.19,.05-.02,.02-.04,.03-.06,.04-.12,.11-.22,.24-.31,.37-.1,.13-.2,.26-.26,.41,0,0,0,.01,0,.02-.05,.13-.08,.28-.09,.42h0c-.02,.21-.02,.43-.02,.64h0c0,.15,0,.3,.02,.45-.01,.02-.02,.03-.03,.05h0c-.06,.07-.12,.13-.19,.18-.08,.05-.17,.1-.25,.13-.15,.06-.34,.05-.49,.05-.18,0-.36,.02-.53,0h0c-.19-.02-.39-.02-.59-.02-.32,0-.63,.03-.94,.09-.2,.04-.4,.07-.6,.1-.18,.02-.36,.05-.53,.09-.22,.04-.44,.09-.65,.14-.21,.05-.41,.13-.6,.23-.18,.1-.36,.21-.52,.35-.19,.16-.36,.33-.53,.51-.13,.14-.27,.28-.42,.4h0c-.11,.09-.24,.16-.37,.22-.16,.08-.32,.14-.48,.19-.15,.05-.31,.08-.47,.1-.21,.02-.42,.03-.63,.04-.19,0-.39,0-.58,.01-.1,0-.21-.01-.3-.04-.11-.03-.23-.07-.34-.11-.1-.04-.19-.08-.28-.13-.07-.04-.14-.09-.2-.14h0c-.15-.14-.29-.31-.42-.47-.15-.18-.31-.36-.42-.56h0c-.04-.08-.1-.17-.13-.25-.02-.05-.02-.1-.02-.15,0-.04,0-.08,.02-.11h0c.03-.06,.08-.11,.13-.15,.1-.09,.21-.16,.33-.23,.1-.06,.21-.12,.31-.17,.12-.05,.26-.09,.39-.12,.2-.05,.4-.11,.6-.16,.2-.05,.4-.11,.59-.18,.14-.05,.28-.1,.41-.16,.1-.05,.21-.11,.3-.17,.1-.06,.19-.15,.26-.25,.04-.04,.07-.08,.08-.13,.07-.22-.03-.45-.22-.58h0c-.11-.07-.23-.12-.35-.17h0c-.12-.05-.23-.1-.34-.16h0c-.09-.05-.18-.1-.27-.15-.02-.01-.03-.02-.05-.04v-.02c.07-.11,.17-.2,.27-.29,.1-.09,.15-.2,.16-.33,.16-.05,.32-.1,.48-.15Zm22.38,19.64c0,.4,.01,.8-.04,1.19-.02,.21-.05,.42-.09,.63-.03,.16-.06,.31-.1,.47-.06,.23-.15,.45-.23,.66-.15,.38-.29,.76-.42,1.15-.11,.31-.21,.62-.34,.92h0c-.07,.18-.15,.36-.23,.54h0c-.11,.25-.21,.49-.31,.74-.09,.22-.18,.45-.28,.67-.05,.11-.1,.21-.16,.31,.18-.58,.22-1.21,.21-1.81h0c0-.4,0-.79-.06-1.18-.03-.23-.09-.47-.17-.69-.04-.11-.08-.23-.1-.35-.02-.12-.02-.24-.02-.35,0-.21,0-.41,0-.62h0c0-.19,0-.38,.02-.57,.01-.12,.02-.24,.05-.35h0c.03-.12,.09-.23,.15-.34,.08-.16,.18-.32,.28-.46h0c.07-.1,.15-.21,.23-.3h0c.05-.06,.11-.12,.17-.17,.08-.07,.17-.12,.27-.17,.13-.07,.27-.13,.42-.17,.06-.02,.12-.03,.18-.04,.11,.15,.31,.21,.48,.12,.03-.01,.05-.04,.07-.06,0,.08,0,.16,.01,.23Zm-6.27-15.36c.2,.18,.38,.37,.56,.57,.22,.23,.44,.46,.68,.68,.14,.13,.28,.26,.41,.4,.17,.18,.33,.36,.49,.55,.16,.18,.31,.35,.45,.54,.12,.17,.23,.35,.34,.52,.1,.15,.19,.31,.29,.47,.07,.12,.12,.24,.17,.37h0c.1,.22,.21,.44,.33,.65h0v.02h0c.15,.26,.3,.51,.45,.77h0c.1,.17,.21,.35,.31,.52h0s0,.01,0,.02h0s0,.06,0,.09c0,.11,.05,.21,.12,.28,.09,.18,.13,.4,.18,.59,.06,.23,.12,.45,.17,.68,.04,.2,.1,.4,.16,.6,.08,.27,.15,.54,.23,.81,.06,.23,.12,.46,.19,.68,.05,.19,.09,.38,.12,.57h0c.05,.26,.1,.51,.16,.77h0c.06,.26,.11,.52,.16,.78h0c.04,.18,.06,.37,.09,.56-.06-.28-.29-.49-.58-.51-.21-.01-.42-.04-.62-.07h0c-.2-.03-.4-.05-.59-.06-.16-.01-.32-.03-.48-.06h0c-.22-.04-.44-.08-.66-.11h0c-.14-.02-.28-.03-.42-.07-.11-.03-.21-.08-.31-.12-.19-.09-.36-.21-.53-.32-.17-.12-.35-.25-.54-.35-.09-.05-.19-.09-.29-.13-.18-.07-.37-.08-.56-.09-.18,0-.35,.01-.53,.04h-.03c-.17,.03-.35,.08-.51,.16h0c-.16,.08-.31,.18-.44,.3h0c-.17,.14-.33,.32-.46,.5-.11,.15-.22,.3-.32,.46h0c-.09,.14-.16,.29-.21,.45-.07,.22-.07,.45-.06,.67h0c0,.2,.01,.39,.04,.58,.03,.2,.09,.39,.18,.57h0c.04,.09,.05,.2,.05,.3h0c0,.15,0,.3-.03,.45h0c-.03,.2-.08,.4-.12,.6h0c-.05,.21-.1,.43-.18,.64-.1,.28-.19,.56-.29,.83-.14,.39-.28,.79-.43,1.18-.12,.32-.24,.63-.37,.95h0c-.13,.33-.27,.66-.4,.98h0c-.14,.35-.28,.68-.39,1.03h0c-.07,.23-.13,.46-.17,.69h0s0,.04-.01,.06c-.06,.36-.1,.72-.13,1.08-.03,.36-.07,.72-.1,1.08h0c-.02,.19-.03,.38-.03,.57h0s0,.04,0,.05c0,.14,0,.28-.01,.42h0c0,.07,0,.16-.04,.23-.04,.07-.08,.14-.13,.21-.02,.03-.05,.06-.08,.09-.02,0-.04,0-.06,0h0s-.21-.13-.29-.18c-.17-.12-.35-.23-.53-.35h0c-.17-.11-.35-.2-.53-.28-.1-.04-.2-.08-.29-.14-.06-.04-.11-.08-.16-.12h0c-.16-.15-.34-.27-.51-.4h0c-.11-.08-.24-.16-.34-.26-.14-.14-.26-.29-.39-.43-.17-.2-.34-.4-.47-.63-.05-.08-.09-.16-.14-.24,0-.01-.04-.1-.03-.07h0c-.03-.12-.05-.24-.08-.35h0c-.04-.19-.09-.37-.14-.56h0c-.06-.21-.12-.41-.17-.6-.05-.2-.11-.41-.15-.61-.04-.18-.09-.36-.15-.54h0v-.03c-.07-.18-.15-.35-.27-.5,0,0,0-.01,0-.02-.01-.02-.03-.04-.04-.05-.1-.12-.22-.21-.34-.31,0,0,0-.01-.01-.02l-.03-.02c-.14-.09-.28-.18-.44-.22-.17-.04-.35-.04-.53-.04h-.02c-.13,0-.27,0-.4-.01-.14-.01-.28-.05-.41-.08-.18-.05-.37-.09-.56-.11h-.02c-.21-.03-.42-.02-.63-.02h0s-.01,0-.02,0c-.23,0-.45,0-.68-.03-.25-.03-.5-.04-.76-.04-.22,0-.44,0-.66-.02h0c-.12,0-.23-.03-.33-.09-.21-.12-.42-.24-.62-.36h0c-.14-.08-.3-.16-.42-.26-.07-.06-.12-.14-.17-.21-.11-.15-.18-.32-.25-.49-.08-.19-.15-.38-.2-.58-.06-.22-.04-.46-.04-.69h0c0-.22,0-.45,.02-.67,.02-.14,.05-.28,.08-.42,.03-.13,.06-.27,.1-.4h0c.05-.13,.12-.26,.19-.39h0c.09-.17,.19-.34,.3-.5,.09-.13,.19-.26,.31-.38,.1-.1,.2-.2,.32-.29,.09-.07,.18-.13,.28-.18,.1-.05,.21-.07,.32-.08,.17-.02,.35-.04,.51-.11h0c.1-.04,.2-.1,.29-.16h0c.18-.12,.34-.25,.51-.38,.24-.19,.49-.37,.74-.55h0c.18-.13,.36-.26,.56-.35,.19-.09,.38-.19,.56-.29,.09-.05,.21-.12,.32-.12,.1,0,.21,.01,.31,.03,.28,.06,.58,.05,.86,.05,.33,0,.67,0,1-.03,.22-.01,.43-.02,.65-.03,.33-.01,.66-.07,.99-.13,.27-.05,.67-.09,.91-.29,.05-.03,.1-.07,.13-.13h0c.03-.05,.04-.11,.05-.17,.03-.09,.08-.18,.08-.28h0c.01-.18-.01-.37-.04-.55-.05-.28-.11-.56-.18-.84h0c-.06-.25-.11-.57-.27-.78-.16-.21-.43-.25-.68-.22h0c-.16,.02-.32,.07-.47,.14,0,0-.02,0-.03,0h-.02c-.24,.12-.47,.26-.7,.39h-.01c-.18,.12-.37,.24-.57,.32-.13,.05-.27,.1-.4,.14h0c-.14,.04-.29,.08-.44,.08-.18,0-.37-.01-.55-.03h0c-.1,0-.21-.02-.3-.06-.13-.08-.25-.2-.37-.3-.19-.17-.42-.37-.68-.4-.15-.01-.31,0-.46,.05h0c-.14,.04-.28,.09-.42,.15h-.01c-.17,.08-.32,.18-.47,.28h-.02c-.16,.12-.31,.26-.44,.4h-.01s-.02,.02-.03,.03c-.22,.25-.43,.5-.65,.75-.16,.19-.32,.43-.53,.57-.06,.04-.12,.07-.19,.09-.08,.02-.17,.02-.26,.02-.09,0-.18-.01-.27-.03,0-.1-.01-.2-.01-.29,0-.24,.02-.48,.04-.73,.02-.23,.06-.46,.11-.69,.05-.23,.11-.45,.17-.67,.05-.17,.09-.34,.15-.51,.06-.16,.13-.31,.2-.47,.12-.27,.27-.54,.41-.8,.14-.26,.29-.52,.46-.77h0c.14-.2,.28-.39,.43-.58,.11-.13,.22-.27,.34-.39,.12-.12,.24-.23,.37-.33,.17-.15,.34-.28,.52-.41,.17-.12,.34-.23,.52-.32h0c.12-.06,.24-.12,.36-.16,.12-.04,.25-.05,.38-.07,.19-.02,.38-.04,.58-.03,.24,0,.47,0,.7-.02h0c.33-.02,.66-.06,.99-.09,.41-.04,.81-.06,1.22-.06,.36,0,.71,0,1.07,0,.21,0,.41,0,.62-.02h.04c.16-.02,.31-.06,.46-.11h0c.18-.06,.35-.14,.5-.25,.15-.1,.29-.22,.42-.35,.14-.14,.28-.29,.4-.44h0c.13-.16,.26-.32,.39-.47h0c.11-.14,.24-.27,.38-.38,.13-.11,.27-.2,.41-.29,.14-.08,.29-.16,.44-.22,.15-.06,.31-.11,.46-.14,.18-.04,.37-.06,.55-.07h0c.29-.02,.59-.02,.89,0,.16,.01,.31-.08,.38-.22,.06,.05,.13,.1,.19,.16,.18,.15,.36,.3,.53,.46Zm-6.36,31.89c-.19,.03-.35,.15-.44,.31-.03,0-.05,0-.08,0h0c-.51,.1-1.01,.21-1.52,.3-.22,.04-.44,.09-.66,.11h0c-.3,.02-.59,.02-.89,.03-.33,0-.65,.01-.98,0-.24,0-.48-.01-.72,0h-.01c-.24,0-.48,0-.73,0-.26,0-.51,0-.77-.01-.25,0-.49-.01-.74-.04-.22-.02-.43-.05-.65-.08-.22-.03-.43-.07-.65-.11-.21-.04-.42-.09-.63-.15-.25-.07-.5-.14-.75-.21h0c-.15-.04-.3-.09-.44-.14,.08,.02,.17,.03,.25,.01,.16-.04,.25-.19,.22-.35-.02-.08-.07-.14-.13-.18-.04-.03-.11-.12-.14-.17h0c-.09-.12-.19-.25-.28-.37h0c-.16-.21-.27-.47-.39-.7-.18-.36-.36-.72-.52-1.09-.13-.29-.26-.58-.37-.87h0c-.05-.14-.12-.28-.15-.43-.03-.13-.03-.26-.04-.39-.02-.22-.02-.44-.03-.67,0-.16,0-.32,.01-.48,.01-.1,.04-.2,.07-.3h0c.05-.16,.11-.32,.17-.47,.05-.13,.1-.27,.16-.4,0-.02,.02-.04,.03-.05h0s.03-.03,.05-.04c.01,0,.14-.03,.19-.04h0c.11-.02,.22-.03,.32-.03,.12,0,.25,.05,.37,.08,.15,.04,.3,.08,.44,.15,.12,.06,.23,.17,.33,.26h0c.2,.19,.37,.4,.53,.62h0c.14,.19,.29,.38,.41,.58,.08,.12,.16,.24,.24,.35h0c.14,.19,.32,.36,.49,.51,.16,.15,.33,.31,.53,.42h0c.12,.07,.26,.11,.39,.15,.2,.05,.42,.06,.63,.06,.32,.01,.64,.02,.97,.02,.33,0,.65,0,.98-.02,.34-.02,.67-.07,1-.12,.28-.05,.56-.1,.84-.13h0c.13-.01,.26-.03,.38-.03,0,0,.11,.04,.15,.06,.09,.04,.17,.08,.25,.13,.04,.03,.08,.06,.12,.09,0,0,.06,.1,.07,.13,.05,.11,.09,.22,.11,.33h0c.03,.14,.05,.28,.05,.42,0,.19,.02,.37,.05,.56h0c.02,.16,.06,.33,.14,.48,.09,.16,.23,.29,.37,.4h0c.1,.08,.2,.15,.31,.22h0l.02,.02h0c.1,.06,.2,.11,.31,.15h0c.18,.07,.37,.11,.55,.14,.19,.04,.38,.07,.57,.09h0s.03,0,.04,0c.24,.03,.49,.04,.73,.06h.01c.24,.02,.48,.03,.72,.05h0c.11,0,.21,.03,.32,.06-.07,.04-.14,.09-.21,.13-.13,.09-.26,.19-.38,.29h0s-.09,.07-.14,.08h0c-.13,.04-.27,.05-.41,.07h0c-.36,.04-.71,.09-1.06,.14Z" style="fill:#4d4d4d;"/><path d="M118.23,59.09h0c.09-.16,.16-.34,.21-.51,.07-.25,.09-.51,.09-.77h0c0-.11,0-.22,.01-.32,0-.02,0-.04,0-.06v-.05c.05-.24-.1-.46-.33-.53,.05-.05,.07-.12,.07-.2,0-.15-.13-.26-.27-.27-.49-.01-.98-.02-1.47-.03h0c-.3-.01-.6,0-.9,.04-.25,.04-.5,.09-.75,.15-.18,.05-.36,.09-.54,.15h-.01c-.12,.04-.24,.08-.35,.12h0c-.13,.04-.25,.09-.37,.14-.1,.05-.2,.1-.29,.16-.14,.09-.25,.21-.35,.34-.16,.21-.29,.45-.4,.68h0c-.1,.2-.19,.4-.31,.58-.08,.12-.15,.24-.22,.36h0c-.09,.16-.16,.32-.22,.49-.07,.18-.13,.36-.14,.55,0,.27,.17,.5,.34,.68h0c.19,.2,.38,.4,.56,.6,.16,.18,.33,.35,.48,.54,.1,.12,.21,.22,.32,.32h0l.02,.02c.13,.11,.3,.17,.46,.21,0,0,.01,0,.02,0,.01,0,.03,0,.04,0,.1,.01,.2,.02,.3,.02h.01s.02,0,.03,0c.11,0,.21-.03,.31-.06h0c.16-.06,.3-.16,.44-.26h0c.18-.13,.34-.28,.5-.43h0c.14-.15,.29-.28,.44-.42,.15-.14,.3-.28,.44-.43,.13-.14,.27-.28,.41-.41,.18-.17,.36-.33,.55-.49,.19-.16,.38-.32,.54-.5,.12-.13,.22-.28,.31-.44Zm-3.64,2.49h0c-.07,.05-.15,.12-.23,.15h0s-.04,.01-.06,.01c-.07,0-.14-.02-.2-.03-.05-.01-.09-.03-.12-.06-.08-.07-.14-.15-.2-.24h0c-.15-.22-.34-.41-.52-.61-.19-.21-.38-.41-.58-.61h0s-.06-.07-.09-.11c.01-.08,.03-.17,.05-.25,.03-.12,.07-.24,.12-.35h0c.06-.11,.12-.22,.19-.33,.13-.21,.24-.43,.35-.64,.1-.19,.2-.39,.32-.56,.05-.06,.1-.14,.16-.18,.06-.05,.13-.08,.2-.12h0c.1-.05,.19-.1,.29-.15,.09-.05,.19-.08,.29-.11,.18-.05,.35-.1,.53-.15,.22-.06,.45-.12,.68-.16,.26-.05,.52-.07,.79-.08h0c.41,0,.81-.03,1.22-.04h0c-.21,.22-.19,.57-.19,.85,0,.19,0,.39-.02,.57-.02,.11-.05,.21-.1,.31-.05,.1-.11,.2-.18,.28-.13,.15-.29,.29-.44,.42-.2,.17-.39,.35-.56,.54h0l-.02,.02c-.14,.15-.27,.3-.41,.46h0c-.12,.14-.24,.27-.37,.39-.15,.14-.31,.29-.46,.43h0c-.13,.13-.28,.25-.43,.36h0Z" style="fill:#4d4d4d;"/><path d="M167.8,136.69h0v-.02h0c-.11-.2-.19-.41-.2-.63,0-.23-.2-.42-.44-.41-.21,0-.39,.17-.41,.38-.04,.38,.06,.76,.23,1.1h0c.24,.46,.48,.91,.75,1.35,.13,.21,.4,.28,.61,.16,.2-.12,.27-.37,.17-.58-.22-.46-.46-.9-.7-1.34Z" style="fill:#4d4d4d;"/><path d="M194.16,138.99s0,.03,0,.04c0,0,0,.01,0,.02,0,.07,.02,.14,.06,.2,0,.01,.02,.02,.03,.03s.02,.02,.03,.03c.06,.06,.14,.1,.22,.11h0s.09,0,.13,0c.14,0,.26-.08,.33-.19,.24-.15,.49-.29,.74-.43,.38-.21,.75-.42,1.13-.63h0c.29-.16,.58-.31,.89-.43,.26-.11,.53-.21,.79-.32h0c.22-.09,.44-.18,.65-.29,.14-.07,.27-.14,.41-.21h0c.18-.09,.38-.16,.57-.23,.22-.08,.43-.16,.65-.23,.23-.08,.45-.17,.67-.27h0c.23-.11,.46-.21,.7-.31,.34-.14,.67-.3,1-.46,.45-.22,.9-.44,1.35-.67,.3-.15,.6-.32,.92-.44h0c.32-.13,.69-.15,1.02-.17,.24-.02,.41-.23,.4-.46-.02-.23-.22-.41-.46-.4-.43,.03-.88,.06-1.29,.21h0c-.34,.13-.67,.3-.99,.47h0c-.44,.22-.89,.43-1.34,.64h0c-.32,.15-.65,.29-.97,.43h0c-.24,.1-.48,.2-.71,.31-.19,.09-.39,.17-.59,.23h0c-.23,.07-.45,.16-.68,.24h0c-.22,.08-.44,.17-.65,.27h0c-.15,.08-.3,.15-.44,.23h0c-.16,.09-.34,.16-.52,.22-.28,.1-.56,.21-.83,.33h-.02c-.33,.15-.63,.34-.93,.53h0l-.03,.02c-.37,.24-.73,.48-1.09,.73h0c-.21,.15-.44,.34-.68,.43h0l-.18,.07h-.03l-.02,.02s-.04,.02-.05,.03c-.01,0-.02,.02-.03,.03-.02,.02-.04,.04-.06,.06-.02,.02-.03,.04-.04,.06-.01,.02-.02,.04-.03,.07,0,.03-.01,.05-.02,.08Z" style="fill:#4d4d4d;"/><path d="M194.12,141.7s0,.01,0,.02c.02,.04,.04,.08,.07,.12,.02,.03,.05,.04,.08,.06,0,0,.01,0,.02,.01h.01s.01,0,.02,0c.07,.03,.15,.03,.22,0h0l.14-.05s.08-.04,.12-.07h.02c.18-.09,.37-.18,.55-.26,.19-.09,.38-.17,.58-.25,.27-.11,.54-.24,.8-.38,.28-.14,.57-.28,.85-.42h0c.22-.1,.44-.2,.67-.3,.33-.14,.66-.3,.99-.45,.57-.27,1.14-.56,1.71-.85,.51-.26,1.03-.53,1.55-.79,.31-.16,.63-.31,.95-.46,.29-.14,.59-.27,.9-.39h0c.29-.11,.58-.22,.88-.3h0c.46-.13,.91-.28,1.35-.44,.43-.15,.93-.31,1.28-.62,.18-.16,.19-.44,.03-.62-.14-.16-.38-.19-.56-.08-.32,.2-.71,.31-1.06,.43h0c-.43,.15-.87,.3-1.31,.42-.33,.1-.65,.2-.97,.33-.32,.13-.64,.26-.96,.41-.33,.15-.65,.31-.97,.46-.52,.26-1.04,.53-1.56,.8-.55,.29-1.11,.58-1.67,.86-.31,.16-.63,.31-.95,.45-.23,.1-.46,.21-.68,.32h-.01c-.29,.15-.57,.3-.86,.44-.25,.12-.49,.25-.74,.36-.21,.09-.41,.19-.61,.3-.17,.09-.34,.19-.5,.31h0s-.05,.03-.07,.05h-.01l-.18,.16s0,.01-.02,.02c-.04,.04-.07,.08-.1,.13,0,.02,0,.03-.01,.05-.01,.05-.02,.11,0,.17Z" style="fill:#4d4d4d;"/><path d="M184.03,127.4c.02,.26,.19,.51,.32,.71h0c.14,.22,.27,.44,.39,.67,.1,.21,.19,.42,.28,.63,.14,.37,.2,.76,.24,1.16,.03,.29,.29,.51,.58,.48,.27-.03,.48-.25,.48-.53,0-.51-.05-1.03-.22-1.51h0c-.09-.26-.2-.51-.32-.75h0c-.14-.29-.33-.56-.53-.81-.13-.16-.26-.34-.41-.48h0l-.06-.06s-.04-.02-.05-.03c-.03-.02-.05-.04-.08-.05-.03-.01-.06-.01-.1-.02-.02,0-.04-.01-.06-.01h0s-.07,.01-.1,.02c-.02,0-.04,0-.06,.02-.02,0-.04,.03-.06,.04-.03,.02-.06,.03-.08,.06h0s-.04,.07-.06,.1c0,.01-.02,.02-.02,.03h0s-.03,.09-.04,.13h0c-.02,.07-.02,.14-.01,.2Z" style="fill:#4d4d4d;"/><path d="M229.47,158.77c0-.3,0-.63-.08-.92h0c-.05-.19-.12-.37-.2-.54h0v-.02h0c-.08-.17-.18-.33-.31-.47,0,0,0-.01,0-.02,0-.01-.02-.02-.03-.03h0c-.05-.06-.12-.1-.18-.13-.07-.05-.14-.11-.21-.15-.02-.01-.03-.03-.05-.04h-.02c-.12-.06-.23-.12-.34-.18-.19-.11-.4-.19-.62-.24h0c-.23-.06-.47-.08-.71-.09-.22,0-.45,0-.67,0h0c-.16,0-.32,.01-.48,.02,0-.07,0-.14,0-.21,0-.27,0-.55,.03-.81,.03-.25,.05-.51,.06-.76h0c.01-.23,.03-.46,.06-.69,.03-.25,.06-.5,.1-.76,.03-.22,.06-.44,.11-.65h0c.07-.28,.12-.56,.17-.85,.07-.43,.09-.87,.09-1.31h0c0-.39-.02-.78-.11-1.15,0,0,0,0,0-.01v-.02c-.06-.21-.15-.41-.28-.58-.02-.03-.03-.06-.05-.08l-.03-.03h0c-.1-.1-.22-.17-.35-.23-.01,0-.02-.02-.03-.03-.01,0-.02-.01-.04-.02-.1-.05-.2-.11-.3-.17-.13-.09-.27-.17-.43-.22h-.03c-.11-.05-.23-.07-.34-.08h-.02c-.13-.01-.26-.03-.4-.05-.21-.03-.43-.04-.65-.05v-.02c0-.26,.01-.52-.03-.78-.03-.21-.13-.4-.24-.58h0l-.02-.04c-.12-.18-.26-.33-.44-.46h0l-.02-.03h0c-.11-.08-.23-.15-.36-.2-.01,0-.02-.02-.03-.02s-.02-.01-.04-.01h0c-.17-.06-.34-.1-.52-.14h-.03c-.22-.06-.45-.1-.67-.14h-.01c-.22-.04-.43-.07-.65-.11h0c-.2-.03-.39-.06-.59-.07-.09-.06-.21-.09-.32-.07h0c-.11,.03-.21,.06-.29,.12-.11,0-.22-.02-.33-.02-.22,0-.44,0-.66-.04-.46-.06-.95-.03-1.41-.03-.47,0-.94,.01-1.41,.03-.33,.02-.66,.07-.99,.12h0c-.48,.08-.95,.17-1.42,.27-.41,.09-.82,.17-1.24,.19-.52,.02-1.04,.02-1.57,.03-.59,0-1.18,0-1.76,0-.37,0-.75,0-1.12-.04h0c-.3-.02-.6-.02-.89-.02-.62,0-1.25,0-1.87,0-2.41,0-4.82,0-7.22,0-.6,0-1.2,0-1.79,0,.04-.01,.08-.02,.13-.04h.02c.3-.11,.6-.23,.89-.37h.02c.26-.14,.53-.25,.8-.34,.34-.12,.68-.22,1.02-.33,.32-.1,.63-.19,.95-.27,.28-.07,.56-.16,.83-.25,.26-.09,.53-.19,.79-.28h0c.34-.13,.67-.27,1-.42h0c.49-.22,.98-.42,1.48-.61,.5-.2,1.01-.4,1.5-.63h0c.38-.18,.76-.37,1.12-.57h.01c.33-.19,.67-.37,1.02-.54,.31-.15,.62-.3,.93-.45,.4-.19,.8-.38,1.2-.57,.35-.17,.71-.33,1.06-.51h0c.2-.11,.41-.21,.61-.31,.33-.16,.65-.34,.97-.52h0c.29-.17,.59-.34,.85-.56h0l.03-.03c.13-.11,.25-.23,.36-.36,0,0,.01,0,.01-.01v-.02c.08-.09,.15-.18,.2-.28,.03-.07,.05-.14,.06-.21,.03-.25-.09-.5-.3-.65h0s-.09-.09-.12-.13h0c-.09-.11-.18-.21-.28-.31h0c-.08-.07-.14-.16-.2-.24-.09-.11-.17-.22-.26-.33-.03-.05-.04-.08-.05-.14,0-.1-.01-.21-.01-.31,0-.06,.02-.11,.03-.17,.06-.2,.08-.42,.07-.63-.01-.34-.16-.68-.31-.98-.15-.31-.33-.63-.58-.87h0v-.02c-.18-.17-.37-.32-.57-.46-.1-.07-.21-.14-.29-.23h0c-.16-.17-.37-.29-.59-.35-.02,0-.03-.02-.05-.02h-.03s-.09-.03-.14-.04c-.01-.16-.01-.33-.01-.49h0c0-.25,0-.51-.02-.76h0c-.01-.17-.07-.33-.14-.48-.08-.18-.2-.34-.34-.48h0c-.18-.17-.4-.28-.63-.37-.11-.04-.23-.09-.33-.16h0c-.06-.04-.13-.07-.2-.11,0-.21-.04-.41-.1-.61h0c-.06-.2-.14-.4-.22-.59-.11-.26-.26-.5-.43-.73-.17-.22-.32-.45-.47-.68-.15-.23-.3-.45-.46-.66h0v-.02c-.11-.12-.19-.24-.27-.37h0c-.15-.24-.32-.46-.49-.68-.18-.22-.35-.46-.5-.7h0c-.15-.24-.29-.5-.4-.76h0c-.15-.34-.3-.69-.45-1.03-.12-.28-.24-.56-.36-.84h0c-.1-.24-.21-.46-.32-.69h0c-.1-.21-.2-.42-.29-.63-.12-.29-.25-.57-.38-.85h0c-.13-.3-.26-.6-.39-.9-.1-.25-.2-.51-.29-.76-.07-.21-.15-.44-.25-.64h0v-.02s-.01,0-.02-.01c-.16-.31-.41-.59-.63-.86-.02-.02-.04-.03-.06-.05,.07-.05,.14-.1,.21-.15h0l.02-.02c.3-.24,.54-.58,.55-.97,0-.01,0-.02,0-.03,0-.02,0-.04,0-.07-.01-.16-.05-.33-.12-.49-.01-.06-.03-.11-.07-.16h0c-.09-.11-.2-.2-.32-.29-.16-.12-.32-.24-.48-.36-.1-.08-.23-.16-.36-.22,0-.01,.01-.03,.01-.04,0-.06,0-.12,.01-.18,.1,.13,.26,.21,.44,.19,.25-.03,.44-.26,.43-.51,0-.14,.03-.27,.07-.4h0c.05-.14,.08-.29,.11-.43h0v-.04c.04-.2,.03-.41,.01-.61-.02-.23-.07-.46-.12-.68h0s0-.04,0-.05c-.06-.22-.13-.44-.23-.65h0v-.02c-.07-.14-.15-.28-.24-.41,0-.01,0-.02-.02-.03h-.01c-.08-.11-.18-.2-.28-.29h0l-.02-.02s-.04-.02-.05-.04c.07-.11,.09-.25,.05-.39h0c-.09-.3-.18-.61-.32-.89,0,0,0-.01,0-.02,0-.01-.01-.03-.02-.04h0v-.02c-.07-.11-.16-.21-.26-.31,0,0,0-.01,0-.02-.01-.01-.02-.03-.04-.04-.11-.1-.19-.22-.28-.34-.11-.16-.23-.31-.35-.46h0c-.11-.13-.23-.25-.37-.34-.16-.1-.35-.16-.54-.16h0c-.17,0-.34,.04-.51,.08-.25,.07-.48,.2-.71,.33-.24,.14-.48,.3-.71,.46-.22,.16-.44,.33-.66,.49-.19,.14-.38,.28-.58,.41h0c-.17,.11-.35,.21-.54,.3h0c-.19,.1-.39,.19-.58,.27-.36,.15-.72,.3-1.09,.45-.41,.17-.82,.34-1.23,.52-.28,.12-.56,.25-.85,.37-.29,.12-.57,.24-.86,.35-.36,.14-.73,.28-1.09,.43h0c-.41,.17-.81,.34-1.22,.51h0c-.49,.21-.98,.44-1.47,.66-.47,.22-.94,.44-1.41,.66h0c-.29,.14-.58,.28-.87,.4-.21,.09-.42,.16-.64,.23-.31,.09-.64,.16-.94,.28h0c-.27,.09-.55,.16-.81,.28h0c-.17,.08-.33,.19-.48,.3-.16,.12-.31,.26-.41,.44h0c-.03,.07-.05,.14-.06,.21-.04,.18-.06,.36-.05,.54h0c0,.23,.03,.46,.09,.67,0,0,0,.01,0,.02,0,.02,0,.03,.01,.05,.02,.05,.05,.1,.09,.14-.14,.01-.28,.02-.42,.03-.37,.04-.75,.2-.89,.54-.04,.08-.07,.16-.07,.25,0,.21,.02,.41,.04,.62,.03,.24,.08,.49,.17,.72h0c.07,.19,.16,.36,.26,.53h0c.11,.19,.24,.36,.4,.52,.16,.16,.33,.31,.51,.46,.17,.15,.34,.3,.5,.46,.15,.16,.31,.31,.49,.44,.15,.11,.32,.2,.49,.27,.24,.09,.51,.11,.77,.12h0s.09,.01,.14,.01c.01,.21,.01,.42,.01,.63,0,.39,.02,.77,.05,1.16h0v.03c.02,.28,.05,.57,.16,.84,0,.02,0,.04,0,.05l.02,.04c.08,.17,.2,.32,.34,.45,0,0,0,.01,.01,.01l.02,.02c.07,.06,.13,.12,.19,.19h0c.09,.11,.2,.2,.3,.29,0,0,0,.01,.01,.02,.01,.01,.03,.02,.04,.04,.02,.02,.04,.04,.06,.05-.08,.1-.16,.2-.26,.29h0c-.15,.14-.3,.26-.47,.38h0c-.23,.16-.46,.31-.7,.46-.36,.23-.74,.43-1.12,.63-.42,.22-.83,.44-1.24,.68h0c-.63,.36-1.25,.73-1.87,1.1-.66,.39-1.32,.78-2,1.12-.42,.21-.83,.43-1.23,.66h0c-.27,.16-.54,.31-.83,.44-.38,.17-.75,.36-1.12,.54h0c-.34,.18-.69,.35-1.04,.49-.23,.09-.46,.2-.69,.32h-.01c-.25,.14-.51,.25-.78,.36-.29,.11-.57,.24-.84,.38h-.01c-.23,.13-.45,.27-.66,.41h0s-.03,.02-.04,.02c-.19,.13-.39,.27-.56,.44-.05,.05-.1,.1-.16,.16h0s-.04,.05-.05,.08c0,.01-.02,.02-.02,.03h0v.02h0v.02c-.08-.1-.16-.2-.23-.3h0c-.11-.16-.23-.32-.39-.43-.06-.04-.12-.06-.19-.07-.16-.06-.34-.09-.51-.09-.2,0-.41,0-.6,.07-.07,.02-.13,.06-.18,.11-.12,.09-.23,.19-.31,.31h0c-.12,.17-.2,.36-.27,.55,0,0,0,.01-.01,.02h0c-.06,.2-.1,.39-.1,.59h0s0,.03,0,.03h0c0,.17,.02,.34,.04,.51h0v.03s.01,.08,.02,.11c-.12,.05-.25,.1-.37,.15-.28,.11-.57,.22-.86,.31-.35,.12-.69,.25-1.03,.37h0c-.38,.14-.77,.28-1.16,.41-.28,.09-.56,.18-.83,.29h0c-.25,.1-.5,.2-.75,.29h0c-.29,.11-.58,.22-.87,.35-.23,.1-.46,.19-.69,.28-.3,.12-.59,.24-.89,.36-.35,.15-.69,.3-1.03,.46h0c-.27,.13-.55,.27-.81,.42h0c-.25,.15-.52,.27-.78,.39-.39,.18-.78,.38-1.15,.6-.29,.16-.59,.33-.89,.47-.19,.08-.37,.16-.56,.23h0c-.2,.07-.39,.14-.59,.22-.2,.08-.4,.16-.59,.25h0c-.19,.08-.38,.18-.55,.28h0s-.03,.02-.05,.03c-.2,.12-.41,.23-.62,.34-.25,.13-.5,.26-.75,.4-.06,.03-.12,.06-.18,.09-.16-.1-.35-.14-.55-.07-.48,.18-.96,.35-1.43,.54-.39,.15-.77,.32-1.15,.49-.45,.2-.89,.41-1.34,.62-.42,.2-.85,.41-1.27,.61-.44,.21-.87,.43-1.31,.64-.4,.2-.8,.38-1.2,.55-.28,.11-.55,.23-.83,.33-.32,.12-.64,.23-.96,.33-.62,.21-1.23,.45-1.83,.69h0c-.71,.28-1.41,.57-2.11,.86h-.01c-.58,.25-1.17,.5-1.75,.74-.45,.18-.89,.37-1.33,.58h-.02c-.28,.14-.56,.28-.83,.43h-.02c-.37,.21-.75,.4-1.13,.59h0c-.43,.22-.87,.43-1.31,.62h0c-.39,.16-.78,.33-1.17,.5-.42,.18-.83,.36-1.25,.55h0c-.41,.18-.82,.38-1.22,.59-.45,.23-.91,.45-1.38,.66-.36,.16-.73,.32-1.08,.5h0c-.22,.11-.44,.23-.66,.35-.34,.19-.67,.4-.99,.61-.38,.25-.76,.51-1.13,.78-.32,.24-.64,.48-.96,.72-.3,.23-.58,.48-.83,.76-.23,.25-.44,.53-.56,.84h0c-.11,.28-.15,.58-.13,.88h0v.02h0c.02,.22,.05,.45,.13,.66h0v.04c.11,.25,.22,.5,.32,.75h0c.12,.27,.23,.55,.38,.8,.09,.15,.21,.27,.34,.39,.01,.01,.02,.03,.03,.05,.01,.01,.03,.03,.04,.04,.2,.16,.43,.26,.67,.35h0s.03,.01,.04,.02c.26,.09,.53,.16,.8,.22h.03c.27,.06,.54,.11,.81,.14h.02c.29,.04,.58,.06,.87,.06h.02c.32,0,.65-.06,.96-.13h.03c.25-.07,.51-.13,.76-.22h.02c.36-.13,.72-.27,1.09-.4,.36-.13,.72-.27,1.08-.39,.19-.06,.39-.13,.58-.2h0c.26-.1,.52-.21,.77-.32h0c.36-.16,.71-.33,1.06-.5,.27-.13,.55-.27,.83-.38h0c.27-.1,.53-.23,.79-.36h0c.28-.15,.57-.28,.87-.41,.29-.13,.58-.26,.86-.4,.24-.12,.49-.23,.73-.34,.3-.12,.59-.26,.88-.4,.77-.14,1.54-.31,2.3-.5h0c.66-.15,1.32-.32,1.97-.49,.58-.15,1.15-.3,1.72-.46,.45-.13,.91-.25,1.36-.36h0c.52-.12,1.03-.27,1.54-.41h0c.52-.15,1.04-.29,1.56-.43,.56-.15,1.11-.31,1.67-.47h0c.95-.29,1.91-.52,2.88-.76,1.03-.25,2.06-.5,3.1-.71h0c.72-.15,1.44-.3,2.16-.44h0c.65-.12,1.3-.26,1.95-.41h0c.67-.16,1.35-.31,2.02-.46h0c.7-.15,1.4-.31,2.09-.46,.8-.18,1.62-.31,2.43-.41,.84-.11,1.68-.23,2.51-.37h.01c.75-.13,1.49-.27,2.23-.42,.54-.11,1.09-.22,1.63-.33,.41-.08,.82-.18,1.23-.28h0c.32-.08,.65-.15,.98-.19,.2,.25,.56,.31,.82,.12,.1-.07,.17-.16,.22-.27,.03-.06,.03-.12,.05-.19,.14,.11,.28,.21,.44,.3h0c.27,.16,.62,.06,.77-.21,.15-.26,.07-.59-.18-.76-.55-.36-.99-.91-1.39-1.42h0c-.37-.47-.74-.95-1.08-1.44h0c-.33-.46-.66-.92-1.02-1.36h-.01c-.27-.35-.52-.69-.74-1.06-.11-.18-.21-.35-.32-.53,.11,.04,.24,.06,.36,.03,.06-.01,.18-.05,.23-.03h0c.21,.09,.44,.13,.66,.12h0c.2,0,.4-.04,.6-.09h0c.19-.06,.34-.16,.48-.3,.05-.04,.1-.08,.13-.14,.13-.21,.17-.47,.17-.71h0c0-.15-.03-.31-.05-.46,.01,0,.03,0,.04-.01,.43-.24,.91-.41,1.36-.59,.39-.15,.79-.28,1.2-.38,.38-.09,.75-.2,1.1-.35,.21-.09,.42-.17,.63-.25h0c.29-.1,.58-.17,.88-.25,.39-.1,.78-.21,1.16-.33h0c.38-.12,.76-.26,1.14-.39h0c.59-.21,1.19-.4,1.79-.58,.52-.16,1.04-.32,1.56-.47,.29-.08,.58-.17,.87-.27h0c.39-.13,.79-.24,1.18-.35,.37-.1,.74-.2,1.11-.28h0c.38-.08,.77-.14,1.16-.21,.42-.07,.85-.14,1.27-.23,.3-.06,.6-.12,.9-.17,.21-.03,.42-.07,.63-.08,.01,.02,.03,.05,.03,.06,.07,.17,.05,.45,.05,.64,0,.28,.01,.55,0,.83,0,.11-.02,.22-.06,.32-.06,.17-.09,.35-.09,.54h0c0,.34,.24,.62,.56,.72,0,0,.01,0,.02,0h0c.19,.05,.39,.07,.58,.07h0c.11,0,.22,0,.33,.02,.11,.02,.21,.05,.32,.09h0c.1,.03,.2,.07,.29,.13h0s.03,.02,.04,.03h0s.02,.06,.02,.1c0-.05-.04,.12-.05,.15-.06,.16-.12,.32-.19,.47-.16,.37-.32,.74-.44,1.13h0c-.09,.27-.16,.54-.21,.82-.03,.17-.05,.35-.06,.52h0c0,.2,.05,.4,.15,.58h0c.11,.19,.27,.35,.46,.47h0c.2,.13,.43,.23,.66,.32h.01c.13,.06,.27,.13,.36,.24,.04,.05,.14,.19,.14,.2h0c.03,.14,.02,.3,.02,.44,0,.23-.01,.46-.03,.69-.02,.19-.03,.38-.03,.57,0,.21,.02,.42,.14,.6h0c-.87,.01-1.75,.01-2.62,.02-.88,0-1.77-.03-2.65,.02h0c-.36,.02-.72,.03-1.08,.05-.35,.01-.72,.02-1.06,.08-.21,.04-.41,.1-.6,.17-.26,.09-.5,.22-.73,.35h0c-.19,.12-.38,.23-.54,.39,0,0-.01,0-.02,0l-.02,.02c-.1,.11-.19,.22-.28,.34h0l-.02,.03c-.1,.14-.18,.29-.23,.45,0,0,0,.01-.01,.02,0,.02-.01,.03-.02,.05-.03,.1-.03,.21-.03,.31-.14,0-.27-.02-.41-.03-.22-.01-.45-.03-.66,0h0c-.16,.03-.33,.07-.49,.12-.2,.05-.39,.12-.56,.23h0c-.16,.1-.31,.23-.45,.36h0c-.17,.15-.33,.31-.46,.49h0c-.11,.15-.2,.31-.29,.47h0c-.1,.19-.19,.39-.26,.6h0c-.09,.28-.16,.56-.21,.85h0c-.08,.38-.13,.75-.18,1.13-.05,.37-.07,.74-.07,1.11h0c0,.26,0,.52,.02,.78,.02,.31,.07,.62,.12,.93,.05,.34,.1,.69,.23,1h0c.12,.29,.29,.55,.46,.8-.02,0-.05,0-.07,.01h0c-.2,.04-.41,.09-.6,.17h0c-.16,.06-.31,.14-.46,.23h0c-.14,.09-.28,.18-.41,.29h0c-.18,.15-.35,.32-.51,.49h0c-.16,.18-.34,.37-.44,.6h0c-.07,.19-.09,.39-.08,.58h0v.02c.01,.23,.08,.46,.2,.66,.16,.25,.4,.45,.62,.64h0c.25,.21,.51,.4,.79,.56h.01l.02,.03c.23,.13,.46,.24,.71,.32h0c.3,.09,.6,.14,.91,.19h0c.38,.06,.75,.1,1.14,.1h0c.24,0,.48,0,.72,.03h0c.45,.05,.91,.04,1.37,.04h0c.51,0,1.02,0,1.52,.02,.36,.01,.71,.03,1.06,.06,.28,.02,.56,.04,.84,.05,.26,0,.52,.03,.78,.06h0c.36,.03,.72,.05,1.08,.04h0c.41,0,.82-.02,1.23-.03,.35-.02,.71-.03,1.06-.08h0c.32-.05,.64-.12,.96-.18,.3-.06,.61-.12,.92-.15h0c.33-.04,.67-.06,1-.08,.35-.02,.7-.05,1.05-.04h0c.24,0,.47,0,.71,.02h0c.32,.01,.64,.05,.96,.09,.33,.04,.67,.08,1.01,.08h0s.03,0,.05,0c.62,.01,1.23,0,1.85,0h0c.78,0,1.56,0,2.33,0,.43,0,.85,0,1.28-.02h0c.56-.02,1.12-.04,1.69-.06,.7-.02,1.41-.05,2.11-.08,.6-.03,1.2-.04,1.8-.03,.43,0,.87,0,1.3,0h0c.58,0,1.16,0,1.75,.02,.71,0,1.43,.02,2.14,.04,.42,.01,.84,.02,1.27,.03h0c.42,0,.83,.01,1.25,.01h0c.46,0,.92,.02,1.38,.06,.37,.03,.75,.06,1.12,.07,.26,.01,.52,.02,.77,.03h0c.57,.02,1.15,.01,1.72,.01h0c.65,0,1.31,0,1.96,.03,.53,.02,1.07,.03,1.6,.03,.42,0,.84,0,1.25-.02,.31-.02,.61-.08,.92-.15h0c.29-.06,.59-.13,.87-.22h.02c.19-.07,.37-.14,.55-.23h.02l.02-.02c.17-.09,.34-.2,.49-.32,.18-.13,.35-.28,.47-.47h0c.17-.3,.16-.69,.15-1.02Zm-87.98-6.47c.33-.15,.66-.3,1-.45h0c.27-.12,.54-.24,.81-.36h0c.58-.27,1.18-.52,1.77-.77h0c.67-.28,1.34-.56,2.01-.86h0c.44-.19,.87-.4,1.31-.61,.43-.21,.86-.41,1.3-.61,.4-.18,.81-.35,1.22-.51,.35-.13,.71-.26,1.07-.36,.53-.15,1.06-.33,1.58-.51h0c.51-.17,1.03-.34,1.53-.55h0c.44-.18,.88-.36,1.32-.53,.45-.18,.9-.36,1.35-.55h0c.38-.16,.76-.32,1.15-.47,.36-.14,.73-.29,1.08-.46,.42-.2,.85-.4,1.28-.59h0c.39-.18,.78-.35,1.16-.55h0c.27-.14,.55-.27,.82-.4h0c.34-.16,.68-.32,1.03-.47,.27-.12,.53-.24,.8-.36,.31-.14,.62-.29,.93-.44h0c.29-.14,.58-.28,.88-.4h0c.22-.09,.43-.19,.63-.31h.03v-.02s.08-.05,.11-.08c-.04,.15,0,.3,.05,.46,.03,.09,.09,.16,.16,.21,.07,.14,.15,.28,.22,.42,.22,.43,.5,.83,.79,1.21,.33,.44,.65,.89,.96,1.34h0c.35,.52,.73,1.02,1.12,1.51h0c.12,.15,.23,.29,.36,.44-.04,0-.09,0-.13,0,0,0,0,0-.01,0h-.02c-.43,.06-.85,.17-1.27,.3h-.03c-.38,.12-.76,.23-1.14,.32h0c-.54,.12-1.08,.23-1.62,.35-.73,.15-1.46,.28-2.19,.39-.83,.12-1.66,.24-2.49,.34-.85,.11-1.7,.25-2.54,.44h0c-.69,.16-1.39,.32-2.08,.46h0c-.68,.15-1.36,.3-2.04,.45h0c-.63,.14-1.27,.28-1.91,.39-.73,.14-1.46,.28-2.18,.43-1.05,.21-2.1,.46-3.14,.71-.98,.24-1.96,.48-2.93,.75h0c-.55,.16-1.1,.31-1.65,.45h0c-.53,.14-1.05,.29-1.57,.45h-.01c-.49,.15-.98,.3-1.48,.42h0c-.47,.12-.93,.25-1.4,.38h0c-.49,.14-.98,.28-1.47,.42,.19-.11,.38-.23,.57-.35h0c.2-.14,.4-.27,.61-.4,.16-.1,.33-.19,.5-.27,.24-.11,.48-.23,.72-.34h0c.36-.17,.72-.34,1.08-.51Zm26.82-11.67s0,.07,.01,.11c0,0,0,.01,0,.02-.04-.01-.08-.02-.12-.03,.01-.01,.03-.02,.04-.03,.02-.02,.04-.05,.06-.07Zm.42-.68c-.16,.05-.28,.16-.36,.3-.02-.05-.04-.09-.07-.13-.14-.16-.37-.2-.55-.08-.2,.13-.41,.25-.63,.36-.18,.09-.38,.16-.57,.23-.32,.11-.64,.24-.95,.38-.32,.14-.63,.27-.94,.41-.26,.12-.52,.23-.78,.34-.36,.15-.71,.31-1.06,.48-.29,.13-.58,.27-.86,.42h0c-.36,.2-.74,.36-1.12,.53-.43,.2-.86,.4-1.29,.6h0c-.33,.17-.67,.3-1.01,.44h0c-.39,.16-.78,.32-1.17,.49h-.01c-.43,.2-.87,.37-1.31,.55-.44,.17-.89,.35-1.33,.52-.49,.19-.98,.35-1.48,.52-.51,.17-1.03,.34-1.54,.49h0c-.39,.11-.77,.25-1.15,.39-.43,.16-.85,.34-1.27,.53h0c-.45,.2-.89,.41-1.33,.62-.42,.2-.84,.4-1.27,.59-.66,.29-1.33,.57-1.99,.84-.61,.25-1.22,.5-1.82,.77h0c-.26,.12-.52,.24-.79,.35h0c-.34,.15-.68,.3-1.02,.46h0c-.36,.17-.73,.34-1.09,.52h0c-.23,.12-.47,.23-.71,.34h0c-.2,.1-.4,.2-.59,.31-.23,.13-.45,.27-.67,.42-.18,.12-.36,.24-.55,.34h0c-.19,.1-.39,.2-.59,.3-.27,.13-.54,.26-.81,.39h0c-.41,.2-.81,.42-1.21,.65h0c-.44,.25-.88,.49-1.33,.71-.32,.16-.65,.31-.98,.45-.27,.11-.53,.24-.79,.37h0c-.27,.14-.55,.28-.82,.43-.29,.15-.58,.31-.87,.46-.23,.12-.46,.24-.7,.33h0c-.3,.13-.6,.27-.89,.42h0c-.33,.17-.67,.33-1.01,.47-.24,.1-.48,.2-.73,.28h0c-.18,.06-.37,.12-.56,.17-.38,.1-.76,.24-1.14,.37-.35,.12-.7,.25-1.06,.36h0c-.23,.07-.46,.11-.69,.15h0c-.26,.05-.52,.08-.78,.08-.24,0-.48-.02-.71-.06-.25-.04-.5-.09-.75-.15-.22-.05-.43-.13-.64-.22-.11-.05-.24-.1-.33-.18-.07-.07-.12-.14-.17-.22h0c-.13-.21-.22-.43-.33-.65-.1-.22-.21-.43-.28-.66h0c-.04-.12-.05-.25-.06-.38s0-.25,.05-.37c.07-.18,.19-.35,.32-.5,.19-.23,.41-.44,.64-.63,.31-.25,.62-.5,.93-.75,.33-.27,.68-.52,1.04-.76,.31-.2,.62-.4,.94-.59,.2-.12,.4-.24,.61-.34h0c.34-.17,.69-.33,1.03-.48,.48-.22,.96-.44,1.42-.68h0c.38-.2,.77-.39,1.16-.57,.41-.18,.82-.36,1.24-.54,.38-.17,.77-.33,1.16-.49,.47-.2,.93-.42,1.38-.64h0c.39-.19,.78-.38,1.16-.57,.27-.13,.54-.25,.81-.37,.43-.19,.87-.36,1.31-.52,.6-.22,1.2-.46,1.79-.7,.7-.28,1.4-.56,2.11-.83,.59-.23,1.19-.45,1.79-.66,.33-.11,.66-.22,.99-.35h0c.29-.11,.58-.24,.87-.37h.01c.43-.19,.85-.39,1.26-.6h0c.43-.22,.87-.43,1.3-.64,.42-.2,.84-.41,1.26-.61,.44-.21,.87-.41,1.31-.61h0c.36-.16,.72-.33,1.09-.47,.47-.19,.94-.36,1.41-.53,.09-.03,.16-.09,.22-.15,.17-.05,.33-.12,.49-.19h0c.25-.11,.5-.21,.75-.3,.25-.09,.5-.19,.73-.3,.17-.08,.34-.15,.51-.21h0c.21-.08,.41-.16,.61-.24h0c.17-.08,.35-.14,.53-.21h0c.22-.08,.43-.17,.64-.27h.02c.33-.16,.65-.35,.96-.53h0c.36-.21,.72-.41,1.09-.62,.26-.15,.53-.29,.8-.44h0c.25-.14,.51-.26,.77-.39h0c.32-.15,.65-.29,.98-.42,.29-.11,.58-.23,.88-.34h0c.24-.09,.48-.19,.72-.3h0c.27-.12,.54-.23,.82-.33,.26-.1,.52-.2,.77-.3,.25-.1,.51-.18,.76-.27,.4-.13,.8-.27,1.2-.42h0c.33-.13,.67-.25,1-.37h0c.3-.1,.59-.22,.88-.35h.02c.21-.1,.43-.19,.63-.3h0s.03-.01,.04-.02c.05-.03,.11-.06,.16-.09h0s.05-.05,.08-.07c.02-.02,.05-.04,.07-.07h0s.02-.04,.03-.06c-.01,.02,.02-.03,.02-.04,0,0,0-.02,0-.03,.01-.03,.02-.07,.03-.1,0-.03,.01-.06,.01-.08,0-.03,0-.06-.01-.1,0-.03-.01-.06-.02-.09-.01-.03-.03-.05-.05-.08-.01-.02-.02-.05-.04-.07,0-.04,0-.08-.01-.12h0c0-.15-.02-.31-.01-.46h0c0-.09,.03-.18,.06-.26,.04-.12,.1-.24,.17-.35,.01-.02,.03-.04,.04-.05,.06,0,.13-.01,.19-.02,.06,0,.13,0,.19,0,.04,.03,.07,.07,.1,.11,.1,.14,.19,.28,.3,.42,.1,.13,.18,.26,.27,.4,.12,.19,.23,.37,.35,.56,.08,.13,.16,.27,.22,.42,.06,.16,.1,.32,.14,.48h0c.08,.33,.19,.64,.31,.96h0c.13,.34,.25,.67,.36,1.01,.11,.31,.22,.61,.35,.92h0c.12,.3,.23,.61,.32,.92,.07,.25,.14,.5,.21,.75h0c.04,.15,.05,.31,.05,.47,0,.04,0,.09,0,.13-.09-.01-.18-.02-.27-.05-.11-.03-.21-.07-.31-.11h0c-.34-.15-.73-.12-1.08-.01Zm2.4-1.19c-.02-.08-.04-.17-.07-.25h0c-.1-.34-.22-.68-.36-1.01h0c-.12-.29-.23-.58-.34-.87-.12-.34-.24-.68-.36-1.02h0c-.1-.28-.2-.57-.27-.86-.05-.2-.1-.4-.17-.6-.08-.21-.19-.41-.31-.6h0c-.12-.18-.23-.36-.35-.54h0s.02,0,.02,0c.03,0,.05,0,.07,0,0,0,.01,0,.02,0h0l.22-.07h0c.09-.03,.15-.09,.2-.15,.13-.07,.26-.14,.39-.21,.22-.12,.44-.24,.67-.35,.25-.13,.51-.23,.77-.34,.29-.12,.58-.24,.87-.38,.2-.1,.41-.19,.61-.27,.38-.15,.75-.33,1.12-.5h0c.37-.18,.74-.35,1.12-.53,.31-.14,.61-.31,.91-.48,.39-.22,.78-.42,1.18-.62,.71-.35,1.39-.73,2.08-1.12h0c.63-.35,1.26-.71,1.89-1.06h0c.4-.23,.81-.44,1.22-.65,.4-.21,.8-.42,1.19-.66,.26-.15,.51-.31,.76-.48h0c.21-.14,.41-.29,.6-.46h0c.21-.18,.4-.38,.57-.59,.25-.32,.31-.74,.13-1.08-.03-.07-.07-.14-.13-.2-.11-.12-.23-.24-.36-.36-.06-.06-.12-.12-.18-.19-.09-.11-.19-.22-.3-.32h0s-.02-.03-.03-.05c.02,.05-.01-.08-.01-.09-.02-.13-.02-.26-.03-.39-.02-.37-.02-.73-.02-1.1,0-.26,0-.53-.03-.79,0,0,0,0,0-.01,0-.02,0-.04,0-.06-.03-.17-.08-.33-.15-.48h0c-.08-.18-.22-.32-.38-.43-.08-.07-.16-.12-.27-.15-.23-.06-.47-.05-.7-.05-.11,0-.26,.01-.36-.02-.06-.02-.11-.05-.16-.08-.12-.09-.23-.2-.33-.31-.19-.19-.39-.37-.59-.55h0c-.15-.13-.31-.26-.46-.39-.08-.07-.14-.15-.2-.24h0c-.07-.11-.13-.22-.18-.34h0c-.06-.14-.08-.29-.1-.43,0-.04,0-.08-.01-.12,.22-.04,.44-.07,.66-.1,.33-.04,.66-.09,.99-.14,.35-.06,.7-.13,1.04-.22,.3-.08,.61-.15,.91-.23,.34-.08,.68-.16,1.02-.24,.31-.07,.63-.15,.94-.23,.27-.07,.54-.15,.8-.23,.36-.11,.72-.23,1.08-.35,.36-.12,.72-.24,1.08-.38,.29-.11,.57-.22,.85-.34,.34-.15,.68-.31,1.01-.47,.39-.19,.78-.39,1.16-.6h0c.28-.16,.57-.32,.86-.46,.21-.11,.43-.21,.65-.31h0c.28-.13,.56-.26,.84-.4,.3-.15,.6-.3,.88-.47h0l.03-.02c.3-.18,.59-.35,.89-.53h0c.38-.23,.77-.45,1.16-.66,.27-.14,.57-.29,.81-.48,0,0,.02,0,.02,0,.09-.07,.19-.13,.29-.18,.2-.1,.28-.34,.18-.54-.06-.12-.18-.21-.32-.22-.14-.01-.28,0-.42,0h0s-.01,0-.02,0c-.02,0-.04,0-.05,0-.01,0-.02,0-.04,.01-.34,.03-.7,.25-.98,.41-.41,.22-.81,.44-1.21,.67-.29,.17-.58,.34-.88,.49h0c-.29,.15-.57,.29-.86,.43-.27,.13-.54,.26-.81,.38h0c-.23,.11-.47,.22-.7,.33-.3,.15-.6,.32-.9,.48h0c-.36,.2-.72,.39-1.09,.57-.33,.16-.66,.32-.99,.47-.25,.12-.51,.23-.77,.34-.34,.14-.69,.26-1.03,.38-.35,.12-.69,.24-1.04,.36-.25,.08-.51,.16-.76,.23-.3,.08-.6,.16-.89,.23h0c-.34,.08-.68,.17-1.01,.26h-.02c-.31,.09-.61,.18-.92,.26-.3,.09-.61,.14-.92,.19-.11,.01-.22,.02-.33,.03,0,0-.02-.02-.03-.04-.06-.09-.12-.2-.14-.3-.04-.15-.03-.31-.04-.46,0-.09,0-.19,.02-.28,.02-.02,.09-.08,.12-.11,.08-.07,.17-.14,.27-.18,.22-.1,.46-.16,.69-.23,.31-.1,.62-.19,.93-.28,.25-.07,.5-.16,.75-.26,.31-.13,.61-.27,.92-.41h0c.47-.22,.94-.43,1.41-.64,.48-.21,.97-.42,1.45-.63,.4-.17,.81-.34,1.21-.5,.35-.14,.71-.29,1.07-.42h0c.3-.12,.6-.24,.9-.36,.29-.12,.58-.25,.86-.37,.4-.18,.8-.34,1.2-.51,.36-.15,.73-.3,1.08-.47h.03c.2-.11,.41-.21,.61-.31,.21-.11,.42-.22,.62-.34h0c.23-.14,.45-.3,.66-.46,.22-.16,.43-.32,.65-.49,.2-.15,.4-.28,.61-.4h0c.15-.09,.31-.18,.47-.23,.07-.02,.15-.05,.23-.05h0s.03,0,.05,.01c.06,.03,.11,.07,.16,.12,.11,.11,.21,.24,.31,.36,.11,.14,.22,.29,.34,.43,.04,.05,.09,.11,.11,.18h0c.11,.26,.18,.53,.26,.79,0,.03,.03,.05,.04,.07-.02,.05-.03,.1-.02,.17,.02,.12,.09,.19,.18,.25,.01,.01,.03,.01,.04,.02,.07,.05,.13,.11,.19,.18,.07,.08,.15,.16,.21,.24,.06,.08,.1,.19,.14,.29h0c.07,.17,.11,.35,.14,.53,.03,.19,.05,.39,.04,.58,0,.13-.01,.27-.04,.4-.02,.11-.06,.22-.1,.33h0c-.07,.21-.1,.42-.1,.64-.03-.03-.05-.06-.08-.07-.02-.01-.05-.02-.08-.02-.05,0-.09,0-.14,0-.03,0-.05,.02-.07,.03-.02,0-.03,.02-.05,.03h-.02c-.21,.12-.42,.23-.63,.35-.37,.2-.74,.4-1.1,.61-.32,.19-.65,.37-.97,.56-.32,.19-.64,.39-.96,.59-.37,.24-.75,.46-1.13,.68-.41,.23-.82,.45-1.24,.67-.35,.18-.7,.36-1.05,.53-.25,.13-.5,.26-.75,.4h0c-.27,.16-.53,.31-.8,.47h0c-.24,.14-.49,.28-.75,.41-.18,.09-.37,.17-.57,.23h0c-.21,.07-.42,.13-.63,.18-.28,.07-.55,.14-.83,.2h0c-.27,.06-.55,.12-.82,.17-.22,.03-.44,.06-.66,.09-.27,.03-.53,.09-.79,.15-.18,.05-.38,.08-.55,.17h0l-.1,.05h0c-.22,.11-.31,.38-.2,.6s.38,.31,.6,.2l.1-.05s.07-.02,.09-.03c.09-.03,.19-.05,.29-.08h0c.22-.06,.44-.1,.67-.13h0c.23-.03,.45-.05,.68-.08,.31-.04,.61-.1,.91-.17,.29-.07,.58-.14,.86-.21,.22-.06,.45-.12,.67-.19,.23-.07,.46-.16,.68-.25,.28-.12,.56-.26,.83-.41,.28-.15,.55-.3,.82-.45,.23-.13,.47-.26,.71-.38h0c.35-.18,.7-.36,1.06-.54,.43-.22,.85-.45,1.27-.69h0c.39-.23,.78-.47,1.16-.73h.01c.3-.21,.6-.41,.91-.59,.32-.19,.64-.4,.96-.6,.36-.23,.71-.48,1.04-.76l.08-.07s-.01,.03-.01,.04h0s0,.03,0,.04c0,.07,.02,.13,.06,.18,0,0,0,.02,0,.02,.03,.04,.07,.06,.11,.08h0l.06,.03h0c-.06-.03,.03,.02,.04,.03,.08,.06,.16,.12,.24,.18,.16,.12,.32,.24,.5,.35h0s.02,.02,.03,.02c.04,.03,.07,.06,.11,.09,0,.05,0,.15,0,.2-.01,.14-.18,.25-.28,.32-.36,.26-.73,.5-1.11,.75-.37,.24-.74,.47-1.11,.7-.44,.26-.9,.51-1.35,.76-.42,.23-.84,.47-1.28,.64-.35,.14-.69,.33-1.02,.53-.33,.2-.66,.41-.99,.62h0c-.26,.17-.52,.34-.79,.49-.22,.13-.44,.25-.66,.35-.23,.11-.47,.21-.72,.29-.26,.09-.52,.16-.79,.23-.34,.09-.69,.16-1.03,.24-.44,.1-.88,.19-1.33,.28h0c-.41,.08-.83,.16-1.24,.21-.29,.04-.49,.3-.45,.59,.04,.29,.3,.49,.59,.45,.44-.06,.88-.15,1.31-.25h.02c.44-.11,.88-.22,1.33-.32,.35-.08,.7-.17,1.05-.25h0c.29-.07,.57-.15,.86-.24s.56-.19,.83-.32h0c.25-.11,.5-.24,.75-.36,.29-.15,.57-.31,.84-.48,.33-.2,.66-.41,.99-.63h.01c.28-.19,.57-.37,.87-.53,.44-.23,.88-.47,1.32-.7,.46-.25,.93-.5,1.38-.76,.38-.22,.74-.45,1.11-.69,.02,.05,.04,.1,.07,.14h0c.16,.21,.35,.45,.46,.67,.06,.18,.12,.36,.18,.53,.09,.28,.19,.55,.3,.83,.13,.32,.26,.63,.4,.94,.12,.27,.24,.55,.35,.82h0c.09,.24,.2,.48,.31,.71,.1,.21,.19,.42,.28,.63,.12,.29,.24,.57,.37,.86h0c.15,.35,.3,.7,.45,1.04h0c.14,.32,.31,.64,.5,.93h0c.18,.29,.38,.56,.59,.82h0c.14,.17,.28,.35,.39,.53h0c.1,.17,.22,.34,.34,.5h0c.15,.2,.28,.4,.42,.61h0c.17,.26,.34,.51,.54,.74h0v.02c.12,.14,.22,.29,.3,.45h0c.07,.15,.15,.31,.21,.47,.04,.1,.06,.2,.07,.3,0,.06,.01,.11,.02,.17-.41,.14-.8,.31-1.2,.48-.42,.18-.84,.35-1.26,.53-.27,.11-.53,.21-.81,.3-.27,.09-.55,.18-.83,.27h0c-.41,.13-.81,.29-1.2,.46-.42,.18-.84,.35-1.26,.53-.35,.14-.7,.28-1.05,.41-.42,.15-.83,.31-1.25,.47h0c-.36,.14-.72,.29-1.07,.43h0c-.28,.11-.56,.24-.83,.38-.24,.12-.49,.24-.73,.36h0c-.25,.12-.51,.23-.78,.33h0c-.22,.08-.45,.17-.66,.27h-.03c-.29,.14-.58,.29-.85,.44-.22,.12-.3,.4-.17,.62,.11,.2,.35,.28,.57,.2,.26-.1,.52-.21,.79-.27h0c.25-.05,.5-.14,.74-.23h0c.29-.11,.59-.23,.87-.36,.25-.12,.51-.25,.76-.38h0c.25-.13,.49-.24,.75-.35,.34-.15,.7-.28,1.05-.41h0c.41-.15,.81-.3,1.22-.44h0c.37-.13,.75-.27,1.11-.41,.43-.17,.85-.35,1.28-.52h0c.37-.15,.74-.31,1.11-.44,.28-.1,.57-.21,.85-.32,.28-.11,.55-.23,.82-.35h.03c.42-.21,.83-.44,1.24-.66h0c.16-.09,.33-.18,.49-.27h0c.09,.21,.32,.3,.52,.21h0c.17-.07,.3-.21,.38-.36h0s.04,.02,.06,.03c.05,.01,.07,0,.11,.03,.16,.08,.33,.14,.5,.2h.04c.06,.04,.18,.07,.22,.11h0s.07,.08,.09,.12c0,.01,.01,.03,.02,.04,0,.22,0,.45,0,.67,0,.29-.02,.6,.03,.89,.05,.34,.27,.61,.58,.75h0c.15,.07,.31,.13,.48,.17h0s.03,.03,.04,.03h0c.15,.14,.32,.26,.49,.37h.02c.13,.09,.25,.19,.36,.3,.15,.15,.26,.36,.36,.55,.07,.13,.17,.29,.18,.44,0,.07,0,.15-.03,.21-.05,.15-.08,.3-.09,.45,0,.16,0,.32,.02,.48h0v.02c.03,.26,.12,.5,.27,.71,.01,.02,.02,.05,.04,.07l.02,.03c.1,.11,.2,.23,.3,.35h0c.09,.11,.2,.2,.31,.29,0,.01,.01,.02,.02,.03,.03,.03,.06,.05,.09,.07,.06,.04,.1,.09,.15,.13,0,0,.02,.02,.03,.03-.01,.01-.03,.02-.04,.04h0c-.23,.18-.49,.32-.74,.46-.3,.17-.6,.33-.91,.48h0c-.22,.11-.44,.22-.66,.33-.33,.18-.67,.34-1,.5-.4,.19-.79,.38-1.19,.57-.32,.15-.64,.3-.95,.45-.36,.17-.71,.36-1.06,.54h0c-.35,.19-.71,.36-1.07,.53-.48,.22-.96,.41-1.45,.6h0c-.51,.2-1.02,.41-1.53,.63h0c-.31,.14-.62,.28-.94,.4-.25,.1-.5,.19-.75,.28-.25,.09-.51,.17-.76,.24-.33,.09-.65,.2-.97,.32h-.03c-.34,.13-.68,.25-1.02,.37h0c-.3,.11-.6,.23-.9,.36h0c-.27,.12-.54,.22-.81,.3h0c-.29,.09-.58,.17-.88,.23-.19,.04-.39,.08-.58,.08h0c-.06,0-.11,0-.17,0,0-.11,0-.22,.02-.33,.02-.25,.02-.51,.02-.76h0s0-.01,0-.02c0-.22,0-.46-.05-.68-.05-.23-.2-.44-.35-.62h0c-.21-.26-.49-.44-.79-.56h0c-.16-.06-.33-.13-.47-.23-.05-.03-.1-.07-.13-.12-.01-.02-.02-.04-.02-.06,0-.13,.01-.25,.03-.38,.02-.22,.08-.43,.15-.64h0c.12-.35,.26-.7,.41-1.04h0c.14-.31,.33-.68,.33-1.03,0-.19-.04-.38-.13-.55-.09-.17-.23-.32-.39-.43-.14-.1-.29-.17-.45-.24h0c-.15-.07-.31-.13-.47-.17h0c-.19-.05-.38-.06-.57-.06h-.02c.04-.15,.06-.3,.07-.46,0,0,0-.01,0-.02v-.03h0c0-.32-.04-.64-.08-.95-.04-.29-.08-.61-.21-.88,0-.01,0-.03,0-.04,0-.01-.01-.02-.02-.03h0c-.08-.14-.17-.28-.29-.38h0s-.02,0-.03-.02c-.04-.03-.09-.05-.13-.07-.12-.05-.24-.08-.36-.09h0c-.26-.02-.53,.02-.79,.06h0c-.31,.04-.62,.08-.93,.12h0c-.42,.05-.85,.11-1.27,.18-.4,.06-.8,.12-1.2,.2h0c-.4,.08-.79,.19-1.18,.3-.41,.11-.82,.23-1.23,.36-.28,.09-.56,.17-.84,.25-.53,.15-1.05,.31-1.58,.47-.61,.19-1.23,.38-1.83,.6h0c-.36,.13-.73,.27-1.1,.38-.38,.12-.75,.22-1.13,.33-.32,.09-.64,.17-.95,.29h-.02c-.22,.1-.44,.2-.66,.3h0c-.32,.15-.64,.27-.97,.39-.42,.15-.83,.31-1.24,.47h0c-.43,.17-.87,.35-1.28,.56Zm26.29,21.32c-.33-.04-.65-.09-.98-.14-.35-.05-.7-.11-1.06-.12h0c-.25-.01-.5-.02-.75-.02h0c-.37,0-.75,.02-1.12,.04-.35,.02-.7,.04-1.04,.07h0c-.34,.03-.68,.1-1.02,.16-.31,.06-.62,.12-.93,.17h0c-.31,.05-.62,.06-.93,.07h0c-.39,.02-.79,.03-1.18,.03h0c-.33,0-.66-.02-.99-.05h0c-.28-.03-.56-.05-.84-.06h0c-.26,0-.53-.03-.79-.06h0c-.37-.03-.74-.06-1.11-.07h0c-.52-.02-1.04-.03-1.56-.04h0c-.41,0-.83,0-1.24-.05h0c-.28-.04-.57-.05-.86-.05-.32,0-.63-.04-.95-.09-.25-.04-.51-.08-.75-.16h0c-.16-.05-.3-.13-.44-.22-.23-.14-.44-.31-.65-.49h0c-.12-.1-.27-.21-.35-.34-.01-.02-.02-.05-.02-.07,0-.03,0-.05,0-.07,0,0,.01-.02,.02-.02,.05-.07,.11-.13,.16-.19h0c.13-.14,.25-.28,.39-.42h0c.07-.07,.15-.13,.24-.19h0c.09-.06,.19-.11,.29-.16h0c.12-.06,.26-.09,.39-.13,.14-.04,.28-.07,.42-.07h0c.34-.02,.62-.23,.7-.55,.02-.07,.03-.14,.03-.21h0c-.03-.32-.23-.62-.4-.88-.13-.21-.27-.42-.36-.64h0c-.09-.24-.13-.5-.16-.75-.04-.28-.09-.56-.11-.84-.02-.23-.02-.47-.02-.7,0-.33,.02-.65,.06-.98,.04-.34,.09-.68,.17-1.02,.05-.24,.11-.49,.19-.72,.05-.15,.11-.29,.19-.43,.07-.13,.14-.25,.22-.37h0c.08-.11,.18-.21,.29-.3,.1-.09,.2-.18,.31-.25h0c.08-.05,.18-.07,.26-.1,.12-.03,.25-.07,.38-.09h0c.12-.02,.32,0,.46,0,.38,.01,.76,.03,1.14,.05,.3,.02,.55-.21,.57-.51,.01-.25-.15-.47-.39-.54,.01-.04,.02-.08,.04-.12h0c.03-.07,.08-.13,.13-.19,.07-.08,.14-.17,.23-.24h0c.12-.1,.27-.18,.4-.26,.18-.11,.37-.2,.57-.28,.15-.05,.3-.1,.45-.13h0c.3-.06,.61-.05,.91-.07,.37-.01,.73-.03,1.1-.05h0c.86-.05,1.74,0,2.6-.01,2.4,0,4.79,0,7.19,0,2.41,0,4.82,0,7.23,0,.66,0,1.32,0,1.99-.02,.27,0,.54,0,.81-.03h0c.36-.05,.73-.06,1.09-.06,.59,0,1.18,0,1.77,0,.53,0,1.07,0,1.6-.05h.02c.45-.04,.89-.09,1.33-.15,.48-.06,.96-.13,1.43-.21,.29-.05,.58-.1,.88-.11,.45-.02,.91,0,1.36,0,.42,0,.85,0,1.27,.05,.26,.04,.53,.04,.79,.04h.01c.25,0,.5,0,.75,.03,.21,.02,.46,.05,.67-.02,.08-.03,.14-.08,.18-.14,.15,.03,.3,.06,.45,.09,.2,.04,.41,.09,.61,.15h0c.14,.04,.29,.08,.42,.14h0c.07,.03,.14,.09,.2,.14h0c.08,.07,.15,.16,.2,.25,.05,.08,.09,.17,.11,.26,.03,.2,.02,.41,.02,.61h0c0,.46,.24,.86,.67,.98,.06,.03,.13,.05,.2,.05,.2,0,.41,.02,.6,.06,.16,.03,.32,.06,.48,.08h0s.07,.01,.1,.02c.08,.04,.15,.08,.23,.13,.13,.09,.26,.18,.4,.25,.03,.02,.06,.04,.08,.06,.04,.07,.07,.15,.09,.24,.07,.29,.06,.61,.06,.91h0c0,.38-.02,.76-.08,1.13-.04,.25-.09,.51-.15,.76h0c-.07,.26-.11,.53-.14,.79h0c-.03,.25-.06,.5-.09,.75-.03,.26-.05,.52-.06,.78h0c0,.23-.02,.46-.04,.69-.03,.31-.03,.62-.03,.93h0c0,.31-.03,.71,.15,.99h0c.18,.28,.51,.34,.82,.35,.22,0,.44,0,.66-.01h.01c.21-.01,.41-.02,.62-.02,.17,0,.33,0,.5,.03h0c.1,.02,.2,.05,.29,.1h0c.14,.08,.28,.16,.42,.24h0s.08,.04,.11,.08h0c.06,.07,.1,.17,.14,.25h0c.05,.12,.1,.24,.13,.36h0c.05,.2,.03,.44,.03,.64,0,.13,.02,.31-.02,.45-.04,.04-.1,.09-.14,.11-.11,.08-.22,.16-.33,.21-.13,.06-.27,.11-.41,.15h0c-.26,.08-.52,.13-.79,.18-.25,.05-.51,.1-.77,.12-.39,.03-.78,.02-1.17,.02-.52,0-1.03,0-1.54-.03h0c-.67-.03-1.34-.03-2.01-.03-.57,0-1.14,0-1.71,0-.25,0-.49,0-.74-.02-.36-.02-.72-.05-1.08-.08-.48-.04-.97-.07-1.45-.08-.41-.01-.83-.02-1.24-.03-.42,0-.84-.02-1.26-.03-.72-.02-1.44-.01-2.16,0h-.01c-.58,0-1.18,0-1.76,.05h0s-.03,0-.05,0c-.41,.04-.83,.03-1.24,.04h0c-.61,0-1.23,.02-1.84,.05h0c-.7,.04-1.4,.07-2.1,.11-.56,.03-1.12,.05-1.67,.1h-.03c-.41,.04-.82,.04-1.23,.05-.77,0-1.55,0-2.32,.01h0c-.59,0-1.2,.03-1.78-.03Z" style="fill:#4d4d4d;"/><path d="M185.5,148.49c0,.05,0,.1,.02,.16,0,.02,.02,.03,.03,.05,0,0,0,.01,0,.02,0,0,.01,0,.02,.01,.04,.04,.08,.08,.13,.1,.19,.1,.47,.1,.66,.12,.36,.04,.72,.06,1.08,.06,.4,0,.8-.01,1.21-.04,.34-.02,.68-.04,1.02-.06,.31-.02,.63-.02,.94-.02,.38,0,.76,0,1.14,0,.41,0,.83,0,1.24,0,.43,0,.85-.02,1.28-.04,.39-.02,.77-.05,1.16-.08,.54-.04,1.08-.05,1.63-.05,.54,0,1.08,0,1.61,.02,.28,.01,.56,.02,.85,.04,.3,.02,.61,.02,.92,.03h0c.38,0,.75,.02,1.13,.04,.27,.01,.54,.03,.81,.06,.3,.03,.6,.05,.89,.06h0c.31,.02,.62,.03,.93,.03h.02c.31,0,.62,.02,.93,.04,1.26,.08,2.53,.06,3.79,.06,1.28,0,2.57,0,3.85,.05,.47,.02,.94,.03,1.4,.05,.91,.03,1.83,.01,2.74,0h0c.96,0,1.92-.02,2.87,.03,.28,.02,.52-.2,.54-.48,.01-.25-.16-.48-.41-.53-.98-.19-2.01-.19-3-.19-.9,0-1.8,0-2.69-.05-.47-.02-.94-.04-1.41-.06-1.3-.05-2.6-.02-3.9,0-1.24,0-2.49,.05-3.73-.01-.32-.02-.65-.03-.97-.05h0c-.31-.01-.61-.03-.92-.05-.28-.02-.55-.03-.83-.07-.29-.04-.59-.05-.88-.07-.39-.02-.78-.03-1.18-.04h0c-.28,0-.57,0-.85-.03h0c-.29-.02-.58-.03-.88-.04h0c-.55-.02-1.11-.02-1.66-.02h0c-.57,0-1.14,.01-1.71,.06h-.01c-.38,.04-.76,.07-1.13,.1-.41,.03-.82,.05-1.23,.07-.4,.02-.81,.03-1.21,.03-.38,0-.77,0-1.15,.02h0c-.33,0-.65,.02-.98,.05h-.03c-.35,.04-.7,.09-1.05,.15h0c-.38,.06-.76,.12-1.14,.16h0c-.34,.03-.67,.06-1.01,.07,0-.01,0-.03,0-.04-.07-.21-.29-.32-.5-.25h0c-.23,.07-.4,.28-.39,.51h0Z" style="fill:#4d4d4d;"/><path d="M202.74,156.88h0c.65,0,1.31,0,1.96,.01h0c.51,0,1.01,.02,1.52,.04,.68,.03,1.36,.05,2.03,.06h0c.74,.02,1.48,.03,2.22,.03h0c.6,0,1.21,0,1.81,0h0c.48,0,.95,0,1.43,.01h0c.61,0,1.22,0,1.83,0h0c.69,0,1.38,0,2.07,.03,.48,.02,.97,.04,1.45,.05,.3,0,.61,0,.91-.01h.02s0,0,.01,0h0c.47,0,.95-.08,1.41-.15,.17-.03,.28-.18,.26-.35-.02-.16-.17-.27-.33-.26-.4,.04-.87,.11-1.26,0h0c-.3-.1-.62-.15-.93-.2-.49-.07-.99-.11-1.49-.13-.7-.03-1.41-.04-2.12-.04-.61,0-1.21,0-1.82-.01-.48,0-.96-.01-1.44-.02-.61,0-1.21,0-1.82,0-.73,0-1.47-.02-2.2-.03-.67-.02-1.34-.04-2.01-.07-.51-.02-1.03-.04-1.54-.05-.66-.01-1.32-.02-1.98-.03h0c-1.22-.01-2.45-.01-3.67-.01h0c-1.05,0-2.09,0-3.14,0-.44,0-.88,.01-1.32,.04h-.01c-.54,.03-1.09,.06-1.63,.1-.53,.04-1.06,.07-1.6,.09-.43,.01-.87,.04-1.3,.06h-.02c-.42,.03-.84,.05-1.26,.06-.33,.01-.65,.02-.98,.04h0c-.32,.02-.64,.05-.96,.08h-.02c-.42,.04-.84,.09-1.25,.15-.41,.06-.82,.11-1.24,.16-.27,.03-.54,.07-.81,.06h0c-.09,0-.21,0-.28-.06-.17-.14-.42-.11-.56,.06-.13,.15-.12,.38,.02,.52,.2,.21,.51,.25,.79,.25h0s.01,0,.02,0h.02c.3-.01,.6-.04,.9-.08,.41-.04,.82-.08,1.24-.11,.41-.03,.83-.06,1.24-.09h0c.32-.02,.64-.04,.95-.06h0c.32-.02,.63-.02,.95-.03,.43,0,.85-.02,1.28-.03,.43-.01,.86-.02,1.29-.01,.54,0,1.09,0,1.63-.02,.54-.01,1.08-.03,1.63-.04,.44-.01,.87-.02,1.31-.03,1.04-.02,2.08-.01,3.12,0,1.22,0,2.44,0,3.66,0Z" style="fill:#4d4d4d;"/></g><g style="mix-blend-mode:multiply; opacity:.25;"><path d="M118.13,55.25c-.54,0-1.14-.17-1.68-.71-.69-.69-.89-1.77-.5-2.66,.28-.67,.95-1.47,2.5-1.54-.05-.14-.08-.28-.1-.43-.09-.66,0-1.89,1.66-2.62,.63-.28,1.24-.37,1.82-.29,.24,.04,.47,.11,.68,.21,.11,0,.24,0,.37,0,.8,0,1.36,.02,1.75,.05,.26,.02,.48,.04,.68,.04,.5,.01,.96,.1,1.37,.25,1.57,.58,2.03,2,1.67,3.11-.45,1.34-1.7,1.63-2.18,1.74-.26,.06-.69,.17-1.28,.33-.54,.15-.94,.26-1.2,.36-.23,.08-.45,.17-.66,.28-.21,.1-.41,.21-.6,.32-.17,.1-.33,.21-.48,.33-.37,.28-.63,.45-.89,.58-.22,.11-.51,.21-.96,.32-.3,.08-.61,.13-.92,.16-.29,.1-.65,.19-1.05,.19Z" style="fill:#0000a5;"/></g><g style="mix-blend-mode:multiply; opacity:.25;"><path d="M130.02,79.64s-.06,0-.09,0c-.87-.05-1.58-.48-2.13-1.29-.21-.32-.35-.56-.45-.8-.05-.13-.1-.27-.14-.42h0c-.46-.56-.66-1.28-.56-2.03,.04-.27,.1-.57,.2-.85,.02-.05,.04-.13,.08-.22,0-.09,0-.19,.01-.28,0-.06,0-.13,.01-.19-.2-.03-.37-.09-.5-.14-.1-.04-.2-.09-.29-.14-.33,.06-.65,.09-.96,.07-1.09-.05-1.72-.54-2.07-.99-.2,.04-.37,.07-.53,.07-.12,0-.36,0-.71,0-.63-.02-1.17-.14-1.64-.39-.99-.51-1.56-1.57-1.45-2.69,.03-.31,.09-.6,.18-.88,.06-.37,.2-.75,.41-1.15,.16-.31,.38-.62,.63-.94,.27-.32,.57-.62,.92-.9,.33-.27,.71-.52,1.12-.74,.42-.22,.86-.41,1.32-.55h.01c.19-.12,.38-.22,.56-.31,.51-.23,1.04-.33,1.5-.33,.31,0,.65,.05,1.08,.13,.19,.04,.26,.03,.26,.04,.12,0,.23,0,.35-.02,.07,0,.13-.03,.2-.05,.2-.07,.46-.16,.79-.28,.01,0,.02,0,.03-.01,0-.04-.02-.07-.03-.11-.23-.78-.31-1.13-.34-1.33v-.08c-.62,.12-.99,.17-1.32,.15-.18,0-.5-.04-.95-.12-.21-.03-.39-.05-.59-.05-.15,0-.29,.01-.41,.03-.14,.03-.26,.05-.33,.07-.03,.01-.14,.07-.27,.14-.16,.08-.31,.18-.45,.28-.19,.15-.35,.28-.48,.39l-.27,.24c-1.03,.96-2.37,.8-3.17,.15-.88-.71-1.13-1.95-.62-2.95,.01-.02,.02-.04,.03-.05,.17-.34,.37-.6,.63-.86,.15-.24,.34-.48,.57-.73,.14-.15,.28-.31,.42-.48,.24-.28,.46-.51,.69-.7,.22-.2,.51-.4,.86-.62,.37-.22,.79-.43,1.29-.61,.46-.17,.8-.28,1.02-.33,.09-.02,.19-.06,.3-.1,.25-.1,.55-.21,.93-.33,.42-.14,.81-.25,1.17-.34,.45-.11,.93-.17,1.42-.18,.23,0,.41-.02,.53-.03,.21-.03,.48-.05,.81-.08,.28-.09,.56-.19,.9-.32,.25-.09,.47-.18,.67-.28,.08-.04,.15-.07,.21-.11,.02-.02,.06-.06,.1-.12,.23-.27,.48-.52,.72-.75,.26-.24,.55-.46,.84-.64,1.23-.77,2.3-.52,2.83-.3,1.09,.45,1.67,1.62,1.41,2.74,.56,.12,1.09,.44,1.44,.9,.24,.32,.42,.68,.63,1.26,.06,.16,.14,.33,.24,.49,.23,.38,.42,.72,.55,1.02,.16,.35,.29,.76,.41,1.25,.03,.12,.05,.22,.09,.3,.1,.22,.2,.45,.28,.7,.23,.24,.42,.5,.58,.77,.2,.33,.41,.7,.48,1.2,.11,.72-.14,1.48-.64,2.01-.31,.33-1,.85-2.13,.74-.49-.05-.96-.22-1.58-.57-.28-.16-.49-.28-.64-.36-.37-.2-.64-.4-.87-.63-.05,.14-.09,.26-.11,.35-.02,.11-.05,.23-.07,.35-.03,.11-.05,.21-.06,.3,0,.04-.01,.08-.02,.12l-.06,.39c-.12,.78-.6,1.41-1.25,1.75-.03,.27-.1,.56-.21,.86-.03,.09-.07,.18-.11,.28,.04,.17,.07,.33,.09,.5,.05,.37,.06,.75,.03,1.18-.04,.56-.11,.95-.26,1.3-.16,.38-.4,.72-.8,1.13-.06,.06-.11,.12-.17,.17,0,.06,0,.11,0,.17,0,.45-.04,.84-.11,1.2-.07,.38-.18,.74-.31,1.05-.05,.13-.12,.26-.18,.39,0,.08,.02,.14,.03,.18,.1,.51,.14,.86,.14,1.15,.01,.84-.32,1.6-.93,2.12-.48,.42-1.1,.66-1.73,.66Zm-7.08-17h0Zm18.05-1.51h0Z" style="fill:#0000a5;"/></g><g style="mix-blend-mode:multiply; opacity:.25;"><path d="M128.94,86.84s-.06,0-.09,0c-1.15-.04-2-.08-2.56-.12-.76-.05-1.88-.03-2.63-.07-.41-.02-.91-.07-1.47-.13-.41-.04-.68-.07-.81-.08h-.18c-.13,0-.25-.02-.38-.04-.62,.05-1.42-.11-2.2-.96-.22-.24-.44-.5-.63-.77-.24-.32-.44-.67-.61-1.03-.12-.27-.25-.58-.39-.94-.17-.46-.27-.8-.33-1.11-.05-.33-.07-.69-.06-1.15v-.5c.05-1.16,.92-2.16,2.06-2.32,1.04-.14,2.01,.4,2.46,1.3,.27,.3,.46,.68,.54,1.09,.02,.01,.05,.02,.07,.03,.24,.11,.48,.27,.71,.47,.05,0,.11,0,.18,0,.44,.02,.8,.03,1.06,.03,.07-.02,.1,0,.14-.02,.29-.09,.5-.15,.62-.18,.32-.08,.67-.12,1.27-.15,.59-.02,1.49-.05,2.27,.62,.38,.32,.65,.76,.79,1.24,.08,0,.17,0,.25,0,1.31,.05,2.33,1.15,2.28,2.47-.05,1.28-1.1,2.29-2.37,2.29Zm-9.46-8.7h0Z" style="fill:#0000a5;"/></g><g style="mix-blend-mode:multiply; opacity:.25;"><path d="M112.14,82.72c-.11,0-.22,0-.33-.03-.76-.12-1.39-.59-1.74-1.24-.16-.19-.3-.4-.41-.63-.04-.04-.08-.07-.13-.11-.19-.16-.46-.41-.85-.75-.45-.4-.85-.81-1.17-1.2-.31-.38-.54-.68-.69-.9-.15-.22-.3-.45-.44-.7-.19-.32-.34-.64-.46-.96-.13-.36-.23-.73-.26-1.08,0-.06-.01-.11-.02-.18-.16-.38-.22-.77-.2-1.11,.05-1.33,1.17-2.35,2.54-2.31,.42,.01,1.04,.18,1.54,.63,.72-.16,1.48-.1,2.22,.17,.04,.01,.07,.03,.1,.04,.44,.01,.82,.03,1.13,.06,.58,.06,.97,.15,1.31,.29,.34,.14,.64,.32,.91,.55,.3,.26,.55,.57,.79,.98,.31,.55,.46,1.14,.45,1.77,0,.59-.13,1.1-.37,1.55-.27,.5-.66,.88-1.13,1.11-.01,.08-.02,.16-.04,.25-.08,.57-.15,.97-.2,1.2-.06,.3-.12,.53-.18,.69l-.05,.15c-.32,1.01-1.29,1.75-2.33,1.75Zm-1.57-.79h0Zm-.81-1.01h0Zm.03-.55s0,.05,0,.08v-.04s0-.04,0-.05Zm6.25-4.58h0Zm-7.03-3.78h0Z" style="fill:#0000a5;"/></g></g></g></g></svg>