<?xml version="1.0" standalone="no"?>
<!DOCTYPE svg PUBLIC "-//W3C//DTD SVG 20010904//EN"
 "http://www.w3.org/TR/2001/REC-SVG-20010904/DTD/svg10.dtd">
<svg version="1.0" xmlns="http://www.w3.org/2000/svg"
 width="2386.000000pt" height="1491.000000pt" viewBox="0 0 2386.000000 1491.000000"
 preserveAspectRatio="xMidYMid meet">

<g transform="translate(0.000000,1491.000000) scale(0.100000,-0.100000)"
fill="#000000" stroke="none">
<path d="M18103 14280 c-42 -25 -52 -73 -29 -134 9 -23 23 -51 32 -62 14 -18
15 -18 7 6 -15 49 -8 94 23 140 17 25 34 51 38 58 11 19 -34 15 -71 -8z"/>
<path d="M17410 14230 c1 -45 38 -75 97 -78 46 -3 56 1 79 23 17 17 24 34 22
50 -3 25 -5 26 -100 28 l-98 3 0 -26z"/>
<path d="M17001 14206 c-22 -26 -33 -139 -21 -203 10 -57 10 -58 -16 -80 l-27
-21 -64 31 c-34 17 -63 37 -63 43 0 17 40 25 63 13 15 -9 18 -8 15 3 -7 20
-69 37 -98 26 -50 -19 -54 -67 -9 -109 31 -29 31 -29 7 -29 -31 0 -68 -27 -68
-49 0 -36 24 -43 122 -36 105 8 142 24 136 60 -3 15 2 26 15 35 17 10 23 8 41
-13 40 -48 103 -59 143 -25 8 6 39 10 72 9 54 -2 62 1 95 30 33 28 37 37 34
72 -4 53 -38 79 -113 85 -91 7 -153 -36 -125 -88 11 -21 13 -63 4 -73 -12 -12
-35 7 -60 49 -25 43 -25 45 -10 91 21 63 24 156 7 177 -17 20 -64 21 -80 2z
m284 -261 c0 -5 -15 -11 -32 -13 -25 -3 -33 1 -33 13 0 12 8 16 33 13 17 -2
32 -7 32 -13z"/>
<path d="M17430 14045 c-35 -26 -34 -28 13 -25 34 2 35 -17 2 -32 -14 -6 -24
-16 -23 -22 1 -6 -5 -31 -12 -55 -14 -43 -13 -44 14 -67 39 -34 87 -32 128 6
28 25 31 31 18 40 -8 5 -30 10 -47 10 -18 0 -33 2 -33 4 0 3 11 26 25 52 30
57 31 68 5 94 -26 26 -49 25 -90 -5z"/>
<path d="M17596 14045 c-76 -82 2 -215 126 -215 48 0 145 41 154 65 4 8 -1 26
-10 40 -23 35 -1 32 35 -4 17 -17 29 -40 29 -55 0 -24 23 -56 41 -56 5 0 19
10 30 21 40 40 8 123 -61 163 -49 29 -127 27 -151 -3 -25 -30 -24 -37 6 -67
14 -14 25 -27 25 -29 0 -9 -88 -5 -118 6 l-31 11 20 31 c24 40 24 79 1 100
-27 25 -69 21 -96 -8z"/>
<path d="M18030 14006 c0 -3 15 -38 34 -79 31 -69 51 -96 62 -85 9 10 -26 101
-51 133 -22 30 -45 45 -45 31z"/>
<path d="M18188 13773 c-23 -26 -39 -86 -47 -165 -5 -54 -10 -73 -25 -82 -14
-8 -20 -8 -23 1 -12 34 -51 78 -71 81 -16 3 -25 -4 -32 -23 -9 -24 -11 -25
-37 -12 -43 22 -92 28 -133 17 -31 -8 -41 -18 -53 -48 -8 -21 -22 -44 -30 -50
-12 -11 -19 -7 -37 23 -30 48 -57 58 -116 40 -46 -14 -48 -13 -76 10 -33 27
-64 31 -90 11 -13 -9 -30 -10 -65 -4 -26 4 -64 10 -84 13 -32 5 -37 10 -48 45
-15 51 -31 51 -31 0 0 -32 -4 -40 -18 -40 -23 0 -42 -19 -42 -41 0 -23 20 -35
30 -19 10 17 50 3 50 -18 0 -9 10 -33 21 -52 20 -32 23 -33 29 -15 4 11 5 35
2 53 l-5 32 58 0 c57 0 57 0 51 -26 -10 -39 2 -64 29 -64 19 0 26 7 31 28 12
57 14 59 36 30 22 -31 55 -36 120 -16 38 11 39 11 69 -25 31 -37 64 -48 86
-26 8 8 19 6 41 -5 71 -37 194 -7 208 50 7 29 6 29 45 5 l32 -19 -62 -31 c-33
-17 -61 -35 -61 -40 0 -25 163 -30 198 -5 13 9 24 14 26 13 1 -2 8 -33 14 -67
12 -71 25 -92 54 -92 67 0 81 71 42 225 -7 28 -3 27 64 -33 76 -68 113 -85
152 -70 33 12 100 58 100 69 0 5 -20 9 -44 9 -69 0 -78 7 -50 35 33 33 33 89
0 110 -13 9 -40 19 -59 22 -31 5 -41 1 -67 -25 -18 -18 -30 -41 -30 -56 0 -31
-5 -31 -50 -2 -32 22 -35 28 -46 102 -6 45 -7 92 -3 108 14 49 -22 74 -53 39z
m234 -248 c0 -5 -5 -11 -11 -13 -6 -2 -11 4 -11 13 0 9 5 15 11 13 6 -2 11 -8
11 -13z m-569 -22 c-7 -2 -21 -2 -30 0 -10 3 -4 5 12 5 17 0 24 -2 18 -5z
m297 -3 c0 -5 -2 -10 -4 -10 -3 0 -8 5 -11 10 -3 6 -1 10 4 10 6 0 11 -4 11
-10z"/>
<path d="M18448 13760 c-21 -16 -28 -30 -28 -56 0 -19 2 -34 5 -34 3 0 18 15
34 33 27 30 34 32 90 31 43 -1 61 3 61 11 0 16 -19 24 -83 31 -44 5 -56 3 -79
-16z"/>
<path d="M16267 13696 c-87 -43 -121 -94 -83 -125 12 -10 15 -7 18 15 3 32 42
59 101 69 l38 7 -22 -46 c-17 -33 -45 -63 -100 -106 -175 -135 -387 -327 -610
-549 -242 -242 -303 -317 -278 -347 11 -13 14 -11 26 18 8 18 58 76 111 128
145 141 273 253 721 628 41 34 80 61 87 58 28 -11 75 35 109 106 36 75 43 115
25 149 -15 27 -82 25 -143 -5z"/>
<path d="M18640 13583 c-30 -25 -32 -30 -26 -76 6 -57 9 -62 31 -54 9 4 15 19
15 40 0 31 14 57 32 57 4 0 8 -24 8 -53 0 -88 49 -112 124 -61 l39 27 17 -23
c10 -13 25 -36 34 -52 17 -27 17 -28 -6 -28 -13 0 -48 -12 -77 -26 -96 -48
-102 -133 -14 -200 84 -64 207 -51 245 26 57 112 -48 357 -168 394 -16 5 -33
-3 -64 -29 -23 -19 -46 -35 -51 -35 -4 0 -13 18 -19 41 -13 46 -41 79 -69 79
-11 0 -34 -12 -51 -27z m310 -257 c0 -2 5 -27 10 -56 11 -59 5 -70 -40 -70
-27 0 -70 25 -70 41 0 11 81 89 93 89 4 0 7 -2 7 -4z"/>
<path d="M16905 13591 c-66 -16 -100 -56 -98 -117 1 -19 8 -45 16 -58 24 -36
95 -66 156 -66 46 0 57 4 81 30 15 17 37 30 48 30 31 0 37 19 13 41 -12 11
-21 26 -21 34 0 8 -7 18 -16 23 -8 5 -21 20 -28 33 -19 40 -93 64 -151 50z
m113 -83 c13 -17 18 -60 9 -75 -10 -16 -78 -17 -112 -1 -29 13 -34 48 -9 72
19 19 97 22 112 4z"/>
<path d="M10324 12895 c-92 -20 -155 -58 -139 -85 8 -13 35 -13 35 -1 0 23
163 43 248 31 66 -9 133 -37 140 -57 3 -9 -78 -58 -150 -91 -5 -2 -8 10 -8 26
0 40 -9 62 -26 62 -21 0 -27 -61 -22 -222 4 -122 8 -152 22 -166 13 -13 20
-14 34 -6 19 13 21 41 10 170 l-7 81 41 6 c67 9 167 64 185 102 13 28 14 36 2
61 -41 85 -203 124 -365 89z"/>
<path d="M12904 12851 c-58 -45 -110 -90 -101 -91 4 0 39 21 77 46 38 26 81
47 95 47 29 0 23 11 -11 21 -14 4 -33 -3 -60 -23z"/>
<path d="M19232 12754 c-43 -30 -69 -208 -42 -280 14 -36 9 -38 -33 -14 -60
36 -96 42 -159 28 -31 -6 -55 -15 -52 -19 2 -4 -3 -20 -11 -35 -8 -16 -15 -37
-15 -46 0 -14 -9 -18 -42 -18 -24 0 -52 7 -62 15 -15 11 -16 15 -5 15 17 0 83
66 93 93 3 10 1 28 -5 39 -9 17 -17 19 -62 14 -29 -4 -93 -9 -144 -12 l-91 -6
-6 29 c-3 15 -10 57 -16 93 -14 85 -19 100 -32 100 -11 0 -5 -159 8 -207 5
-19 2 -23 -19 -23 -14 0 -35 -9 -48 -20 l-24 -19 47 -1 c46 0 47 -1 54 -34 3
-19 15 -42 25 -52 18 -17 19 -16 19 34 l0 52 46 0 c56 0 74 -16 74 -69 0 -33
7 -49 33 -78 30 -32 40 -36 97 -42 l63 -6 14 -47 c23 -82 82 -97 110 -30 8 20
13 52 11 72 l-3 36 56 -4 c49 -4 60 -1 79 18 18 18 21 30 17 62 l-5 40 34 -40
c60 -70 151 -99 221 -70 15 6 51 10 79 9 79 -4 142 38 147 98 1 12 2 21 4 21
2 0 14 -18 28 -40 14 -22 32 -40 40 -40 23 0 45 42 45 87 0 47 11 54 36 24 9
-10 31 -36 50 -56 32 -35 74 -114 74 -139 0 -6 -15 -20 -34 -30 -65 -35 -69
-108 -8 -156 58 -46 152 -9 152 60 0 21 13 47 40 82 23 28 39 56 37 62 -2 7
-23 10 -53 8 l-49 -3 -42 83 c-68 134 -125 188 -197 188 -20 0 -29 10 -50 55
-14 30 -29 55 -34 55 -5 0 -7 -24 -4 -53 4 -52 4 -52 -32 -69 -26 -13 -36 -24
-36 -41 0 -23 -2 -24 -39 -14 -53 14 -113 -4 -158 -49 -27 -27 -33 -41 -29
-59 6 -22 5 -23 -29 -12 -20 6 -53 26 -75 44 l-39 34 21 35 c26 44 28 141 3
202 -21 52 -44 67 -73 46z m37 -167 c1 -30 -3 -46 -9 -42 -5 3 -10 34 -9 68 1
74 17 51 18 -26z m-419 -92 c0 -4 -47 -75 -56 -84 -2 -2 -4 17 -4 42 0 46 1
47 30 47 17 0 30 -2 30 -5z m715 -76 c9 -9 -15 -14 -45 -9 -15 2 -30 18 -30
32 0 8 61 -11 75 -23z m-495 -1 l35 -22 -25 -7 c-41 -12 -46 -10 -58 16 -7 14
-12 28 -12 30 0 11 28 3 60 -17z m-72 -54 c5 -25 7 -57 3 -72 -7 -24 -9 -22
-19 26 -14 64 -15 92 -3 92 5 0 14 -21 19 -46z"/>
<path d="M14654 12695 c-3 -8 19 -63 50 -123 91 -180 116 -267 131 -452 6 -74
4 -91 -14 -130 -11 -25 -21 -56 -21 -69 0 -22 2 -23 52 -19 117 12 153 129
102 333 -41 161 -229 475 -286 475 -5 0 -11 -7 -14 -15z"/>
<path d="M17440 12665 c0 -8 8 -19 18 -24 20 -11 112 -26 112 -18 0 10 -92 57
-111 57 -11 0 -19 -7 -19 -15z"/>
<path d="M12133 12619 c-43 -21 -82 -71 -84 -105 0 -12 -6 -5 -14 16 -7 19
-11 45 -8 58 4 17 1 22 -14 22 -38 0 -56 -23 -51 -68 4 -48 -5 -54 -24 -15
-27 57 -154 101 -223 77 -30 -10 -43 -10 -71 2 -45 19 -67 18 -119 -6 -36 -17
-45 -26 -51 -54 -13 -70 20 -127 53 -93 8 7 16 31 20 53 3 21 10 45 16 52 12
15 51 16 77 2 19 -10 19 -12 3 -45 -15 -32 -15 -38 -1 -68 39 -83 182 -90 265
-15 l22 20 27 -21 c15 -11 35 -21 45 -21 21 0 49 36 49 63 0 15 4 14 23 -8 30
-36 97 -44 168 -21 50 17 52 16 73 -2 50 -46 116 -64 157 -42 25 14 24 27 -4
34 -12 3 -42 22 -65 42 -35 30 -42 41 -37 61 11 47 -74 103 -160 103 -16 0
-49 -9 -72 -21z m137 -78 c0 -12 -37 -21 -85 -21 -40 1 -40 1 -15 15 28 16
100 20 100 6z m-447 -28 c26 -8 47 -18 47 -23 0 -16 -68 -50 -101 -50 -37 0
-79 23 -79 43 0 7 7 23 16 35 17 24 26 24 117 -5z"/>
<path d="M10612 12617 c-30 -14 -62 -76 -62 -121 0 -68 77 -126 168 -126 77 0
134 58 134 139 0 46 -41 84 -113 105 -61 18 -95 19 -127 3z m67 -92 c82 -20
98 -31 75 -56 -26 -29 -95 -25 -133 7 -31 26 -42 64 -18 64 6 0 41 -7 76 -15z"/>
<path d="M11204 12618 c-39 -18 -58 -83 -26 -91 9 -3 -6 -5 -33 -6 -47 -1 -51
1 -62 29 -20 53 -151 93 -183 55 -18 -22 -4 -34 38 -28 28 4 44 0 65 -17 37
-29 20 -43 -42 -34 -34 5 -43 4 -39 -7 3 -8 14 -15 26 -17 27 -4 28 -14 2 -37
-25 -23 -26 -67 -2 -88 46 -41 141 -28 167 24 l16 29 -63 0 -63 0 30 25 c19
16 43 24 66 25 31 0 38 -4 43 -25 15 -60 160 -82 229 -35 65 45 89 127 48 164
-44 40 -166 59 -217 34z m132 -98 c26 -10 26 -11 9 -30 -21 -24 -72 -34 -115
-25 -28 6 -30 8 -14 19 10 8 15 20 11 30 -5 13 1 16 38 16 24 0 56 -5 71 -10z"/>
<path d="M12813 12608 c-23 -29 -53 -106 -53 -134 0 -41 40 -116 70 -131 35
-18 116 -16 156 3 33 16 89 72 80 81 -2 2 -39 -3 -82 -12 -84 -17 -118 -14
-128 10 -4 11 10 23 50 42 85 40 93 90 21 133 -36 22 -100 26 -114 8z"/>
<path d="M12509 12601 c-95 -30 -113 -88 -38 -127 34 -17 48 -14 24 6 -36 30
-8 50 70 50 62 0 73 -11 52 -55 -37 -79 -10 -111 52 -60 66 56 59 150 -13 180
-38 16 -104 18 -147 6z"/>
<path d="M16814 12576 c-32 -14 -44 -33 -44 -67 0 -26 13 -24 25 4 12 25 67
36 91 16 20 -17 18 -68 -3 -75 -31 -9 -47 -20 -51 -34 -3 -9 1 -11 12 -7 16 6
16 5 1 -15 -22 -33 -19 -75 6 -89 28 -15 95 -5 120 17 29 26 23 34 -26 34
l-46 0 23 31 c25 33 31 34 181 13 34 -4 47 -3 47 7 0 8 6 7 18 -4 25 -23 38
-21 76 8 43 33 64 32 71 -2 17 -84 59 -108 133 -79 26 11 67 20 92 21 25 1 55
2 66 3 12 1 36 16 54 32 24 22 36 28 45 20 15 -13 32 5 37 40 2 19 10 26 30
28 37 4 68 -29 68 -72 0 -32 21 -66 40 -66 5 0 21 11 36 24 l28 23 59 -56
c116 -112 148 -194 87 -226 -53 -27 -86 -20 -117 26 l-27 42 42 36 c23 20 42
40 42 44 0 12 -69 8 -105 -7 -73 -31 -69 -115 9 -193 105 -105 281 -40 278
103 -1 72 -38 127 -162 240 -25 22 -52 52 -62 65 l-16 24 -35 -33 -35 -34 -12
36 c-15 47 -53 76 -100 76 -39 0 -90 -31 -90 -55 0 -29 -31 -45 -84 -45 -51 0
-53 1 -49 24 11 55 -82 100 -121 60 -20 -20 -21 -83 -1 -111 14 -20 13 -22
-16 -32 -39 -14 -49 -8 -49 30 0 83 -59 120 -131 84 -29 -15 -31 -15 -60 10
-56 47 -159 28 -159 -29 0 -13 -7 -17 -32 -14 -21 2 -33 9 -34 18 -1 8 -2 25
-2 38 -1 13 -15 37 -31 53 -33 32 -67 37 -117 15z m325 -119 c8 -11 5 -13 -19
-9 -17 2 -30 8 -30 13 0 14 36 11 49 -4z"/>
<path d="M13343 12555 c-30 -21 -51 -83 -64 -189 -10 -85 -9 -102 10 -176 23
-92 65 -175 103 -203 31 -23 98 -40 98 -23 -1 11 -11 32 -78 159 -44 82 -65
186 -60 303 3 93 4 97 33 120 l30 24 -25 0 c-14 0 -35 -7 -47 -15z"/>
<path d="M16117 12499 c-43 -10 -77 -26 -77 -37 0 -4 22 -8 48 -8 27 -1 66
-11 87 -21 l37 -20 -33 -21 c-27 -17 -35 -18 -41 -8 -6 10 -66 15 -247 21
-279 8 -401 1 -434 -25 -21 -18 -21 -18 -3 -39 13 -14 26 -19 42 -15 12 3 80
-2 151 -12 76 -11 189 -18 279 -19 l150 0 -4 -24 c-5 -23 -3 -24 41 -18 51 7
149 53 184 86 88 83 -36 193 -180 160z"/>
<path d="M13580 12478 c-41 -15 -60 -39 -60 -75 0 -18 5 -33 10 -33 6 0 10 11
10 25 0 54 66 43 127 -20 46 -48 110 -156 119 -201 5 -27 2 -31 -51 -57 -32
-15 -59 -27 -60 -25 -2 2 -10 39 -19 82 -16 79 -42 138 -61 140 -17 2 -17 -59
1 -146 17 -83 19 -106 12 -143 -5 -32 90 -27 170 9 135 62 146 138 41 293 -82
123 -170 178 -239 151z"/>
<path d="M14009 12437 c-18 -12 -40 -34 -47 -47 -21 -40 -9 -135 27 -214 17
-37 28 -72 25 -77 -3 -5 1 -9 9 -9 21 0 27 24 20 75 l-6 45 47 0 47 0 28 -64
c35 -76 65 -102 96 -82 35 23 30 65 -24 187 -28 62 -51 114 -51 116 0 8 272 2
296 -7 l27 -11 -6 -85 c-4 -67 -10 -93 -27 -116 -27 -37 -23 -62 11 -66 33 -4
65 34 82 95 10 37 15 43 38 43 21 0 36 -12 69 -56 45 -60 83 -85 101 -67 23
23 -10 78 -99 165 -48 47 -102 93 -119 102 -18 9 -33 20 -33 24 0 5 -17 17
-37 28 -33 16 -60 19 -198 20 -101 0 -168 5 -182 12 -32 18 -56 15 -94 -11z
m77 -122 c13 -31 24 -57 24 -59 0 -2 -18 -6 -39 -8 -43 -4 -51 6 -51 64 0 75
33 77 66 3z m505 -68 c-15 -15 -31 2 -31 31 l1 27 20 -24 c12 -15 16 -28 10
-34z"/>
<path d="M14309 12315 c-10 -9 -1 -140 12 -187 l12 -43 10 38 c16 66 -10 216
-34 192z"/>
<path d="M11480 12124 c0 -24 63 -44 139 -44 108 0 130 16 61 44 -56 22 -200
23 -200 0z"/>
<path d="M15437 12044 c-22 -23 5 -58 166 -221 94 -97 209 -207 255 -245 l83
-70 -26 -20 c-22 -17 -24 -23 -13 -34 21 -21 111 -35 165 -25 47 9 73 31 73
60 0 29 -38 79 -92 121 -29 23 -55 46 -56 51 -5 14 -22 0 -22 -18 0 -9 15 -34
33 -57 51 -63 52 -66 18 -66 -26 0 -31 4 -31 23 0 27 -21 48 -105 105 -33 22
-121 95 -195 162 -74 68 -157 141 -184 164 -26 23 -51 49 -55 59 -4 10 -10 15
-14 11z"/>
<path d="M10746 12011 c-10 -11 -16 -27 -14 -37 4 -22 28 -31 28 -10 0 37 73
-5 91 -53 13 -32 -9 -51 -58 -51 -18 0 -33 -4 -33 -10 0 -5 9 -10 21 -10 20 0
19 -3 -10 -35 -61 -70 -28 -139 69 -145 85 -5 100 -1 145 41 25 23 45 38 45
34 0 -4 6 -2 14 4 11 9 12 18 3 42 -10 25 -8 36 8 67 11 20 25 35 30 33 6 -3
15 -25 21 -50 13 -49 37 -73 62 -63 10 3 37 27 63 54 50 53 69 60 70 26 1 -25
6 -60 14 -95 6 -25 40 -47 60 -39 19 7 28 75 16 126 -14 61 -52 94 -101 87
-21 -2 -54 -13 -74 -22 -20 -10 -38 -16 -39 -14 -1 2 -9 17 -17 34 -22 43 -62
55 -98 29 -43 -32 -74 -101 -68 -151 6 -50 1 -53 -96 -53 l-71 0 52 54 c35 38
51 63 51 81 0 97 -130 185 -184 126z"/>
<path d="M11529 11967 c-28 -15 -45 -31 -47 -45 -4 -25 12 -28 71 -11 56 15
64 2 24 -40 -19 -20 -36 -41 -38 -48 -6 -20 -31 2 -33 28 -1 33 -39 38 -60 7
-42 -60 8 -149 103 -183 104 -36 213 -7 250 68 19 39 20 40 21 15 0 -21 5 -28
19 -28 16 0 22 11 31 58 27 129 41 141 65 55 30 -108 41 -121 90 -109 33 9 42
58 21 129 -29 101 -116 147 -181 95 -32 -25 -55 -74 -55 -120 0 -32 -2 -33
-43 -35 -23 -2 -64 -8 -90 -14 -44 -10 -82 -3 -47 9 8 3 32 22 53 42 44 44 51
96 17 130 -29 29 -113 27 -171 -3z"/>
<path d="M12227 11963 c-4 -3 -7 -17 -7 -29 0 -51 -81 -51 -94 0 -13 53 -56
19 -56 -44 0 -63 58 -120 123 -120 21 0 37 -16 37 -36 0 -2 -15 -4 -32 -4 -77
-1 -148 -59 -148 -123 0 -75 66 -176 149 -229 35 -22 57 -28 99 -28 46 0 58 4
84 31 l31 30 -5 97 c-6 105 -43 235 -98 341 -16 31 -32 71 -35 89 -6 30 -30
43 -48 25z m43 -394 c5 -35 7 -65 5 -68 -8 -8 -70 47 -88 78 -14 24 -15 32 -5
35 7 3 27 9 43 14 17 5 31 8 33 7 2 -2 7 -31 12 -66z"/>
<path d="M16900 11681 c0 -94 -1 -99 -25 -115 -34 -22 -31 -47 10 -102 19 -25
35 -53 35 -63 0 -47 58 -73 91 -40 19 19 20 28 14 85 l-7 64 44 0 c59 0 74
-11 58 -40 -13 -25 -7 -84 11 -106 16 -19 44 -18 64 3 13 13 16 28 12 64 l-6
48 42 6 c23 4 62 5 87 3 43 -3 45 -4 51 -41 10 -63 78 -117 147 -117 33 0 116
50 132 79 12 24 13 24 -60 22 -30 0 -49 2 -42 5 21 10 44 64 38 90 -14 54
-136 75 -180 31 -13 -13 -25 -29 -27 -36 -3 -9 -13 -8 -41 4 -43 17 -88 19
-137 5 -28 -8 -39 -6 -64 12 -17 12 -57 29 -90 37 l-59 16 -18 55 c-24 77 -51
130 -67 130 -10 0 -13 -24 -13 -99z"/>
<path d="M17461 11694 c-42 -35 -39 -46 6 -27 20 8 67 16 103 17 72 1 87 17
25 28 -74 13 -102 9 -134 -18z"/>
<path d="M16460 11622 c-39 -19 -70 -71 -70 -117 0 -104 159 -174 251 -112 19
13 40 22 46 20 6 -2 14 4 17 14 3 10 15 24 26 31 23 14 24 13 92 -75 38 -48
52 -50 56 -5 3 26 -5 40 -43 81 l-46 49 27 21 c30 24 22 26 -25 10 -29 -10
-35 -9 -60 15 -25 24 -51 34 -51 20 0 -4 9 -21 20 -39 l20 -33 -25 -20 c-26
-21 -135 -40 -155 -27 -8 5 -4 16 13 34 33 35 47 64 47 96 0 20 -8 29 -35 41
-45 18 -62 18 -105 -4z m79 -74 c-30 -58 -51 -79 -65 -67 -19 15 -18 54 2 73
8 9 29 16 45 16 28 0 29 -2 18 -22z"/>
<path d="M17754 11562 c-34 -22 -46 -112 -19 -148 16 -22 16 -22 19 29 4 58
22 68 35 20 6 -22 20 -52 32 -67 28 -36 81 -36 113 -1 l24 26 31 -32 c29 -29
35 -31 95 -28 54 3 68 0 88 -17 13 -11 38 -27 55 -34 l33 -12 -24 -19 c-91
-72 17 -199 169 -199 77 0 99 9 120 50 20 39 19 66 -7 119 -43 89 -129 153
-223 165 -42 6 -53 12 -68 38 -16 28 -20 30 -55 24 -111 -20 -128 -19 -146 8
-22 35 -68 35 -109 0 l-31 -26 -19 39 c-11 21 -26 46 -35 56 -15 17 -58 23
-78 9z m601 -332 c3 -5 -1 -10 -10 -10 -9 0 -13 5 -10 10 3 6 8 10 10 10 2 0
7 -4 10 -10z"/>
<path d="M9893 11463 c-21 -14 -57 -41 -80 -60 -24 -19 -55 -36 -70 -39 -31
-5 -52 -28 -54 -56 -1 -10 -2 -24 -3 -30 -1 -7 10 -13 24 -14 14 -1 51 -17 82
-37 89 -58 120 -49 164 48 17 36 23 72 25 129 2 78 2 79 -24 82 -15 1 -42 -8
-64 -23z m17 -100 c-8 -47 -27 -83 -43 -83 -7 0 -25 10 -41 23 l-28 23 53 41
c29 23 56 40 60 37 3 -2 3 -21 -1 -41z"/>
<path d="M9684 11138 c-17 -18 -125 -152 -240 -298 -304 -387 -451 -574 -615
-781 -198 -251 -325 -421 -371 -496 -41 -67 -59 -123 -39 -123 6 0 11 6 11 13
0 7 36 55 81 107 80 94 303 375 473 598 197 257 449 577 604 766 114 139 162
206 160 220 -5 32 -30 30 -64 -6z"/>
<path d="M16355 9937 c-7 -27 51 -217 66 -217 6 0 7 9 3 23 -33 104 -44 197
-23 197 5 0 7 5 4 10 -12 19 -44 11 -50 -13z"/>
<path d="M7754 9888 c-17 -103 4 -305 31 -296 6 2 8 8 6 13 -2 6 -3 60 -2 120
3 173 -17 266 -35 163z"/>
<path d="M18334 9889 c-16 -18 -19 -37 -19 -129 0 -75 -4 -112 -14 -123 -9
-11 -11 -28 -7 -52 9 -49 26 -54 26 -8 1 52 18 22 22 -37 l3 -44 -50 -19 c-52
-20 -110 -18 -174 4 l-32 11 34 42 c62 76 73 119 38 150 -25 23 -98 23 -140 2
-58 -31 -83 -112 -53 -179 30 -67 105 -113 202 -124 71 -7 138 14 169 53 l20
25 6 -43 c5 -35 10 -82 14 -129 1 -11 30 -19 46 -13 39 15 42 107 8 257 -8 38
-12 71 -9 74 3 3 20 3 39 -1 31 -6 35 -11 41 -45 7 -48 37 -86 87 -111 65 -34
112 -25 178 36 23 20 41 43 41 50 0 17 5 18 -58 -6 -29 -11 -64 -20 -78 -20
-45 0 -94 35 -94 67 0 3 14 3 32 -1 64 -13 94 62 42 103 -37 29 -89 27 -119
-3 -22 -22 -31 -24 -79 -19 l-55 6 -10 49 c-16 70 -15 156 1 140 16 -16 28
-15 28 1 0 16 -41 57 -57 57 -5 0 -18 -9 -29 -21z m-224 -270 c0 -17 -42 -99
-51 -99 -12 0 -39 43 -39 62 0 9 10 24 22 32 26 19 68 21 68 5z"/>
<path d="M16465 9875 c15 -24 21 -54 25 -149 5 -118 6 -119 36 -145 17 -14 34
-36 38 -48 10 -31 66 -63 113 -63 22 0 67 -11 102 -25 114 -47 186 -33 218 42
l14 36 24 -36 c31 -44 79 -63 110 -43 26 17 40 49 55 129 10 48 14 56 26 47 7
-7 16 -28 20 -49 4 -20 13 -44 22 -53 17 -20 63 -23 94 -7 18 10 24 8 40 -12
26 -35 58 -143 58 -201 0 -39 -5 -54 -25 -73 -34 -35 -49 -31 -92 20 -20 25
-41 45 -46 45 -13 0 1 -115 18 -156 34 -83 183 -56 229 40 50 106 -33 374
-130 418 -25 12 -31 11 -96 -17 -13 -5 -22 4 -40 42 -25 53 -56 71 -102 59
-31 -8 -50 -44 -60 -118 -9 -57 -23 -61 -62 -15 -15 17 -31 32 -35 32 -5 0
-16 11 -25 24 -39 56 -200 85 -237 43 -20 -22 -22 -71 -4 -96 12 -16 14 -16
31 3 23 25 63 27 112 6 30 -12 34 -18 28 -37 -13 -44 -33 -47 -125 -19 -35 11
-80 22 -99 26 -86 16 -102 52 -54 125 21 32 24 43 15 54 -19 22 -54 2 -81 -46
-28 -49 -33 -42 -49 61 -13 84 -38 149 -67 171 -18 14 -18 14 1 -15z"/>
<path d="M15396 9823 c-6 -27 17 -209 27 -219 3 -3 1 -21 -4 -41 -10 -48 11
-100 46 -113 80 -30 183 17 234 107 8 15 12 14 36 -5 15 -12 33 -22 40 -22 7
0 16 -7 19 -15 11 -30 106 -65 175 -65 60 0 65 2 98 38 20 20 44 56 55 80 16
35 24 42 48 42 23 0 32 -7 49 -43 12 -24 21 -52 21 -63 0 -30 15 -46 41 -42
35 5 38 62 6 132 -30 65 -63 89 -121 89 -71 0 -123 -47 -136 -123 -5 -33 -8
-35 -45 -34 -22 0 -52 4 -68 7 l-28 8 26 22 c62 54 34 127 -49 127 -36 0 -48
-5 -65 -27 -12 -14 -24 -37 -27 -50 -5 -19 -9 -21 -21 -11 -43 35 -75 154 -49
181 20 19 20 27 2 27 -45 0 -63 -107 -31 -184 l15 -35 -51 -41 c-55 -43 -81
-53 -124 -48 -33 4 -55 32 -40 52 6 7 25 33 43 57 54 71 31 114 -31 59 l-35
-31 -16 70 c-9 39 -16 83 -16 100 0 39 -17 49 -24 14z"/>
<path d="M17365 9804 c-32 -16 -105 -83 -105 -96 0 -4 33 10 73 32 74 41 105
48 124 29 8 -8 13 -7 18 2 10 16 -30 49 -59 49 -11 0 -34 -7 -51 -16z"/>
<path d="M4217 9694 c-3 -41 -3 -158 0 -259 5 -161 4 -187 -10 -209 -22 -33
-21 -49 3 -71 11 -10 22 -34 26 -54 10 -60 14 -71 35 -82 36 -19 52 6 45 70
l-7 54 47 -7 c26 -3 76 -22 113 -43 126 -69 196 -103 229 -109 27 -6 32 -4 32
12 0 30 -57 121 -93 148 -58 44 -146 78 -233 90 l-83 11 31 50 c41 66 143 279
159 333 8 30 9 46 2 53 -7 7 -27 -20 -63 -88 -29 -54 -76 -134 -104 -177 l-50
-80 -7 35 c-4 19 -12 102 -18 184 -14 188 -19 215 -35 215 -9 0 -15 -23 -19
-76z"/>
<path d="M15182 9740 c-69 -50 -102 -141 -66 -181 9 -10 58 -34 110 -54 52
-20 94 -40 94 -45 0 -13 -71 -37 -133 -45 -31 -4 -57 -11 -57 -15 0 -16 73
-32 120 -28 26 3 64 15 84 27 29 19 36 29 36 55 0 42 -20 59 -105 91 -129 48
-133 58 -62 133 54 56 77 56 77 0 0 -54 19 -38 27 22 5 35 2 46 -12 57 -30 21
-69 15 -113 -17z"/>
<path d="M18740 9739 c0 -38 31 -91 68 -118 23 -17 27 -26 27 -74 0 -45 5 -60
25 -82 78 -83 199 -86 274 -7 27 29 30 30 42 14 10 -13 17 -15 31 -6 19 12 21
25 10 90 l-7 41 130 12 c133 12 160 17 160 31 0 14 -134 35 -218 33 l-84 -2 6
35 c6 29 4 34 -13 34 -11 0 -23 -6 -28 -12 -11 -18 -25 -106 -24 -153 1 -37
-3 -43 -48 -74 -44 -29 -54 -32 -91 -26 -24 4 -55 19 -73 34 -24 23 -29 33
-23 54 5 20 13 27 30 27 12 0 30 8 39 18 39 43 5 92 -49 71 -42 -15 -69 -4
-110 46 -44 54 -74 60 -74 14z"/>
<path d="M16340 9637 c0 -17 29 -57 40 -57 6 0 2 16 -7 35 -17 35 -33 46 -33
22z"/>
<path d="M6435 9620 c-6 -10 -23 -175 -25 -237 0 -19 -6 -23 -30 -23 -19 0
-30 -5 -30 -14 0 -7 14 -19 30 -26 l30 -12 0 -90 c0 -96 15 -149 48 -167 49
-26 70 14 48 90 -9 29 -16 74 -16 101 l0 48 80 0 80 0 1 -97 c0 -119 14 -164
52 -177 40 -14 62 3 61 45 -1 62 -26 234 -36 254 -17 32 -28 35 -118 35 -128
0 -130 2 -131 69 -1 135 -23 235 -44 201z"/>
<path d="M4809 9568 c-19 -67 -16 -320 4 -396 37 -140 83 -208 148 -218 45 -8
93 30 124 98 22 47 35 53 35 16 0 -37 40 -98 75 -115 34 -16 36 -16 63 4 34
25 36 64 4 78 -27 12 -50 70 -83 205 -12 52 -26 100 -31 107 -18 24 -36 0 -47
-61 -23 -132 -82 -256 -120 -256 -40 0 -91 112 -116 256 -18 106 -22 297 -6
302 17 6 3 22 -19 22 -14 0 -22 -12 -31 -42z"/>
<path d="M5153 9574 c-9 -24 9 -34 35 -20 l23 12 -26 12 c-21 10 -27 9 -32 -4z"/>
<path d="M6684 9570 c-8 -8 -7 -26 3 -63 7 -28 14 -70 14 -92 1 -33 3 -30 11
25 16 101 15 134 -2 138 -9 1 -20 -2 -26 -8z"/>
<path d="M7223 9393 c3 -93 11 -183 16 -202 14 -46 108 -136 157 -150 57 -16
112 -13 174 9 30 11 67 19 82 20 15 0 37 4 51 9 20 8 27 4 51 -26 16 -19 43
-41 62 -49 65 -27 116 23 60 60 -29 19 -77 86 -96 136 -7 19 -22 43 -32 53
-10 10 -18 22 -18 26 0 5 -13 14 -29 21 -89 37 -195 -79 -148 -162 16 -27 15
-28 -11 -35 -63 -17 -166 3 -187 37 -3 5 8 34 25 64 59 104 20 168 -57 91 -19
-19 -37 -34 -38 -33 -2 2 -10 59 -19 128 -20 155 -24 170 -38 170 -8 0 -9 -46
-5 -167z m465 -168 c4 -28 -21 -60 -42 -52 -19 7 -21 48 -4 65 18 18 42 10 46
-13z"/>
<path d="M14642 9425 c-158 -75 -254 -165 -177 -165 40 0 30 -16 -42 -64 -38
-25 -174 -129 -303 -232 -129 -102 -296 -230 -370 -284 -74 -54 -145 -108
-157 -120 -23 -21 -31 -50 -14 -50 15 0 241 139 391 241 80 54 237 170 350
258 l205 159 25 -30 c37 -44 62 -32 118 55 25 40 63 95 83 122 50 66 57 97 30
124 -29 29 -55 26 -139 -14z"/>
<path d="M5410 9357 c-14 -7 -35 -32 -48 -57 -21 -40 -23 -55 -19 -130 6 -106
25 -165 52 -165 18 0 19 6 17 120 -3 96 0 124 12 140 20 25 25 18 66 -90 36
-92 62 -125 100 -125 33 0 51 19 79 85 28 63 63 115 78 115 15 0 21 -20 32
-107 13 -103 48 -203 71 -203 13 0 21 15 34 65 22 86 20 163 -4 228 -29 78
-59 107 -110 107 -34 0 -48 -7 -85 -41 -25 -23 -55 -59 -67 -80 -12 -22 -24
-39 -27 -39 -3 0 -19 29 -34 64 -44 98 -96 138 -147 113z"/>
<path d="M6092 9354 c-39 -27 -65 -92 -70 -176 -4 -75 -4 -78 26 -108 36 -35
92 -41 132 -13 17 12 25 13 28 5 2 -7 15 -26 29 -42 18 -22 33 -30 58 -30 35
0 48 11 64 54 11 27 10 27 -18 21 -35 -7 -42 2 -65 90 -8 33 -24 66 -35 75
-11 8 -25 35 -31 60 -7 25 -19 53 -27 63 -20 21 -61 22 -91 1z m91 -99 c18
-25 18 -26 -10 -67 -39 -58 -58 -62 -49 -12 10 54 26 104 34 104 4 0 15 -12
25 -25z"/>
<path d="M6950 9318 c-72 -49 -106 -176 -65 -245 20 -34 72 -67 122 -78 96
-20 203 38 228 123 6 20 3 22 -29 22 -19 0 -63 -7 -98 -15 -75 -17 -117 -9
-136 26 -15 28 -9 81 13 115 19 29 45 31 45 4 0 -29 18 -24 26 7 15 58 -45 82
-106 41z"/>
<path d="M12801 9010 c-20 -44 -25 -75 -27 -155 l-3 -100 13 55 c7 30 21 78
30 106 10 29 16 72 14 100 l-3 49 -24 -55z"/>
<path d="M10673 8940 c-31 -13 -46 -45 -33 -70 14 -26 17 -25 16 3 l-1 22 185
0 c179 0 230 8 230 34 0 5 -10 11 -22 15 -35 9 -350 6 -375 -4z"/>
<path d="M9969 8864 c-10 -12 -5 -24 24 -67 20 -29 59 -77 87 -109 27 -31 50
-60 50 -65 0 -5 -27 -15 -60 -21 -41 -9 -71 -23 -96 -44 -34 -30 -64 -76 -64
-98 0 -21 163 -4 313 32 46 11 77 40 77 72 0 25 -94 122 -242 249 -65 57 -78
64 -89 51z"/>
<path d="M10736 8818 c-3 -13 -3 -40 1 -60 6 -38 6 -38 -30 -38 -39 0 -58 -17
-36 -31 8 -5 26 -9 41 -9 26 0 26 -1 33 -85 4 -47 3 -120 -3 -162 -5 -43 -6
-82 -1 -87 17 -19 38 4 45 50 7 46 -1 206 -13 253 l-6 24 97 -7 c53 -4 96 -4
96 -1 0 12 -106 55 -151 61 -46 6 -47 6 -53 51 -3 25 -3 49 0 54 3 5 1 9 -4 9
-5 0 -12 -10 -16 -22z"/>
<path d="M12233 8753 c-19 -45 -22 -196 -4 -259 16 -61 63 -118 115 -143 40
-20 50 -21 81 -11 20 7 34 17 32 23 -2 7 -25 24 -51 38 -26 14 -59 37 -73 51
l-25 25 23 44 c19 36 24 60 24 126 0 97 -20 136 -74 141 -28 3 -33 -1 -48 -35z
m67 -150 c0 -23 -4 -45 -10 -48 -6 -4 -10 17 -10 57 0 44 3 59 10 48 5 -8 10
-34 10 -57z"/>
<path d="M16169 8769 c-19 -36 12 -134 64 -204 26 -35 30 -8 7 41 -13 26 -25
68 -28 95 -4 40 -1 49 17 59 28 14 18 30 -19 30 -20 0 -33 -7 -41 -21z"/>
<path d="M12077 8764 c-16 -16 -8 -35 70 -162 21 -34 27 -20 8 17 -9 17 -19
57 -23 89 -6 47 -11 58 -27 60 -12 2 -24 0 -28 -4z"/>
<path d="M9825 8744 c-16 -3 -73 -11 -126 -19 -120 -19 -225 -19 -354 0 -142
21 -245 18 -445 -10 -107 -15 -221 -25 -293 -25 -65 0 -127 -5 -138 -10 -27
-15 -26 -83 2 -111 17 -17 29 -20 62 -15 23 3 78 10 121 15 76 8 97 18 108 52
6 17 415 12 528 -6 193 -30 328 -36 462 -20 68 8 153 15 190 15 80 0 97 6 109
36 11 32 -6 68 -40 84 -28 13 -136 21 -186 14z"/>
<path d="M11683 8734 c-3 -9 -3 -55 1 -102 19 -265 21 -271 70 -297 27 -15 46
-17 107 -11 41 4 102 8 136 9 50 2 66 7 88 27 l26 24 22 -28 c16 -20 30 -27
47 -24 35 4 35 26 -3 82 -17 27 -37 58 -44 70 -21 35 -45 46 -105 46 -80 0
-103 -25 -110 -120 l-3 -35 -60 -3 c-78 -3 -99 9 -63 37 23 19 48 83 48 125 0
27 -38 40 -65 22 -24 -16 -24 -16 -35 42 -6 31 -13 71 -16 87 -9 49 -15 65
-25 65 -5 0 -12 -7 -16 -16z m401 -262 c6 -10 -40 -46 -72 -56 -19 -6 -22 -4
-22 18 0 14 8 30 18 35 21 13 69 14 76 3z"/>
<path d="M11491 8706 c-9 -11 -6 -21 15 -45 35 -42 59 -42 50 1 -11 54 -40 74
-65 44z"/>
<path d="M15674 8675 c-8 -33 11 -178 32 -237 8 -23 24 -53 36 -65 35 -37 61
-30 104 30 l39 52 6 -66 c9 -83 22 -109 55 -109 25 0 25 1 18 63 -8 83 -23
148 -36 164 -21 26 -58 14 -103 -32 l-44 -46 -20 39 c-11 22 -30 80 -42 128
-25 101 -35 119 -45 79z"/>
<path d="M5735 8671 c-39 -8 -41 -46 -5 -72 27 -20 167 -41 176 -27 3 4 -21
25 -54 45 -33 21 -57 44 -55 51 5 13 -12 14 -62 3z"/>
<path d="M16341 8640 c-1 -66 26 -181 49 -212 11 -15 20 -35 20 -44 0 -9 7
-31 16 -50 31 -65 113 -83 177 -40 l35 24 24 -25 c72 -79 192 -67 254 24 19
29 21 30 33 12 28 -46 104 -42 136 8 l17 25 19 -30 c21 -35 66 -62 103 -62 13
0 39 12 56 26 17 15 33 24 35 22 3 -2 10 -40 16 -83 12 -92 4 -167 -22 -198
l-19 -22 -22 26 c-13 14 -35 41 -49 60 -15 18 -31 30 -35 26 -5 -5 -9 -37 -8
-71 2 -200 214 -223 270 -29 12 43 15 77 10 138 -6 78 -37 220 -57 257 -13 24
-46 23 -61 -2 -7 -11 -18 -20 -24 -20 -6 0 -30 -13 -54 -29 -65 -43 -95 -24
-116 74 -14 62 -35 56 -75 -22 -28 -57 -38 -68 -59 -68 -19 0 -27 7 -35 31 -5
17 -15 29 -22 27 -6 -2 -14 5 -18 17 -17 52 -150 77 -229 42 -38 -17 -50 -30
-67 -67 -22 -50 -79 -96 -110 -88 -24 7 -59 50 -59 74 0 10 14 40 30 66 38 59
40 103 7 103 -26 0 -56 -29 -79 -74 l-15 -28 -17 43 c-10 24 -26 76 -36 114
-19 69 -19 70 -19 25z m499 -239 c36 -10 36 -36 2 -71 -38 -37 -100 -42 -132
-10 -27 27 -25 44 6 69 27 21 74 26 124 12z"/>
<path d="M11317 8652 c-18 -20 -23 -82 -8 -82 5 0 11 12 13 28 6 54 74 30 80
-29 2 -19 -2 -25 -22 -27 -35 -5 -53 -22 -40 -37 6 -8 4 -25 -7 -53 -15 -38
-15 -43 1 -67 34 -52 142 -73 186 -37 26 21 35 89 10 83 -23 -5 -112 -2 -119
4 -3 3 9 19 26 36 l30 31 42 -22 c29 -14 47 -32 57 -56 16 -38 37 -41 42 -5 5
34 -23 68 -78 96 -28 14 -49 29 -49 33 4 26 -5 47 -37 82 -30 33 -43 40 -74
40 -23 0 -43 -7 -53 -18z"/>
<path d="M15961 8652 c-15 -28 -14 -76 3 -164 19 -96 46 -158 86 -191 41 -35
71 -34 114 4 l36 31 26 -21 c23 -18 54 -28 54 -17 0 2 -7 23 -15 46 -8 23 -15
59 -15 79 0 75 -38 82 -57 10 -6 -25 -23 -55 -37 -68 -24 -23 -26 -23 -50 -7
-14 9 -33 27 -42 41 -23 35 -63 160 -68 212 -6 56 -20 73 -35 45z"/>
<path d="M17170 8632 c-25 -16 -54 -39 -65 -52 -16 -18 -6 -15 53 16 72 38 74
38 103 22 32 -19 39 -10 12 14 -34 29 -57 29 -103 0z"/>
<path d="M18475 8619 c-44 -83 -22 -183 45 -206 21 -7 34 -17 31 -25 -14 -52
-13 -100 4 -118 65 -72 233 -23 292 84 10 19 11 19 38 -2 32 -25 63 -28 90 -8
17 12 22 12 44 -5 29 -23 69 -24 98 -4 20 14 24 13 51 -15 34 -34 41 -35 66
-17 17 13 16 17 -19 70 -20 30 -44 58 -52 61 -17 7 -42 -5 -67 -33 -26 -29
-41 -26 -56 9 -16 38 -44 39 -81 4 l-27 -26 -15 23 c-9 13 -27 61 -42 106 -23
73 -43 102 -59 86 -6 -6 1 -72 16 -151 11 -61 12 -60 -77 -112 -36 -22 -63
-30 -97 -30 -47 0 -48 1 -48 31 0 39 14 65 58 111 22 23 32 42 29 52 -9 23
-30 20 -73 -9 -42 -29 -85 -32 -105 -9 -9 11 -13 43 -13 90 0 41 -4 74 -8 74
-4 0 -15 -14 -23 -31z"/>
<path d="M12530 8613 c-33 -12 -79 -67 -90 -108 -13 -48 1 -115 24 -115 19 0
36 22 36 46 0 25 38 77 51 69 5 -4 9 -35 9 -70 0 -67 14 -95 49 -95 41 0 59
70 42 165 -15 85 -65 128 -121 108z"/>
<path d="M10970 8574 c-22 -57 0 -179 40 -222 42 -45 120 -19 157 51 l17 32
13 -55 c20 -91 28 -217 13 -235 -31 -38 -109 6 -111 62 0 15 -4 37 -8 48 -7
18 -10 17 -26 -14 -49 -96 58 -214 165 -182 53 16 70 50 70 141 0 95 -24 209
-64 300 -44 99 -55 99 -91 -2 -9 -26 -30 -62 -47 -80 l-31 -33 -18 40 c-10 22
-21 54 -23 70 -3 17 -8 47 -11 68 -7 44 -31 50 -45 11z"/>
<path d="M12724 8493 c1 -92 20 -107 24 -18 2 39 -2 67 -11 78 -11 16 -13 8
-13 -60z"/>
<path d="M14700 8550 c-17 -13 -21 -22 -14 -27 7 -5 19 -25 27 -45 l15 -36
-61 -5 c-34 -2 -163 -9 -287 -16 -311 -16 -350 -20 -350 -35 0 -17 318 -29
547 -20 l172 7 16 -56 c9 -30 22 -61 30 -67 24 -20 59 -7 75 26 16 33 81 64
133 64 35 0 57 25 57 64 0 67 -65 109 -210 136 -36 7 -69 17 -74 21 -16 15
-50 10 -76 -11z"/>
<path d="M4938 8528 c-44 -12 -88 -50 -88 -76 0 -10 7 -27 15 -38 15 -18 15
-18 9 9 -5 24 -2 29 30 42 19 8 48 15 64 15 28 0 82 -33 82 -50 0 -4 -20 -11
-45 -14 -36 -6 -45 -11 -45 -27 0 -15 7 -19 32 -19 l32 0 -34 -35 c-58 -60
-41 -133 37 -154 43 -12 83 0 133 39 62 49 54 61 -35 53 l-76 -6 36 54 c19 30
39 59 45 66 5 6 6 13 2 15 -4 2 -14 23 -22 48 -12 37 -23 49 -60 68 -48 24
-57 25 -112 10z"/>
<path d="M5800 8527 c-14 -7 -35 -32 -48 -57 -20 -38 -23 -56 -19 -118 4 -65
2 -74 -17 -87 -11 -8 -24 -15 -28 -15 -4 0 -26 36 -48 80 -55 109 -96 127
-156 69 l-32 -31 -20 46 c-44 98 -113 127 -153 64 -18 -30 -20 -44 -15 -137 5
-105 13 -128 39 -118 10 4 17 31 22 89 l8 83 14 -50 c38 -142 105 -173 155
-70 25 51 33 55 42 22 3 -12 22 -42 41 -65 28 -32 44 -42 66 -42 33 0 79 20
98 44 11 13 18 12 54 -12 36 -24 50 -27 122 -27 74 0 85 3 118 28 23 17 41 42
48 66 13 44 4 111 -15 111 -7 0 -44 -16 -82 -35 -45 -21 -78 -32 -92 -28 -12
3 -22 6 -22 7 0 0 7 19 15 41 20 57 18 90 -7 119 -29 31 -57 39 -88 23z"/>
<path d="M17920 8520 c-45 -45 -54 -133 -20 -188 41 -67 166 -93 245 -51 27
14 61 22 105 23 36 1 71 4 79 7 8 2 16 -3 18 -13 3 -11 -19 -34 -66 -69 -68
-50 -101 -95 -101 -137 0 -61 56 -142 117 -168 73 -31 154 -8 179 51 18 43 18
155 0 220 -23 85 -86 249 -98 256 -17 11 -48 -9 -48 -30 0 -24 -31 -51 -58
-51 -18 0 -22 6 -22 34 0 59 -57 56 -79 -4 -15 -45 -86 -75 -141 -60 -51 14
-80 42 -80 78 0 59 44 71 68 17 30 -68 47 -79 77 -49 16 16 16 49 -1 107 -13
43 -138 63 -174 27z m467 -422 c5 -66 3 -78 -11 -84 -39 -15 -109 38 -119 91
-4 25 3 40 46 94 l52 65 13 -45 c7 -24 16 -79 19 -121z"/>
<path d="M6215 8504 c-58 -30 -70 -74 -48 -184 17 -91 27 -112 48 -104 8 4 14
33 17 95 2 49 9 94 15 100 17 17 64 -13 103 -67 29 -41 34 -57 36 -107 1 -38
6 -62 15 -68 20 -13 25 -11 54 14 38 32 44 98 17 160 -39 87 -143 176 -207
177 -11 0 -33 -7 -50 -16z"/>
<path d="M6592 8494 c-27 -19 -55 -71 -77 -147 -30 -102 11 -165 101 -154 35
4 54 13 83 41 l38 37 35 -20 c19 -12 56 -24 81 -27 57 -8 59 0 18 72 -32 55
-66 83 -106 86 -15 2 -25 9 -25 18 0 26 -38 78 -69 95 -38 19 -51 19 -79 -1z
m87 -101 c11 -24 9 -30 -28 -67 l-41 -41 0 32 c0 45 28 113 44 107 8 -3 19
-17 25 -31z"/>
<path d="M15310 8450 c0 -65 58 -157 115 -184 53 -25 83 -21 121 20 31 32 35
34 50 20 18 -19 28 -20 55 -5 20 10 20 11 -5 34 -20 19 -26 34 -26 68 0 44
-19 75 -38 63 -5 -3 -17 -27 -27 -53 -22 -60 -61 -113 -82 -113 -9 0 -41 25
-71 56 -41 42 -53 61 -48 77 6 23 -9 47 -30 47 -9 0 -14 -11 -14 -30z"/>
<path d="M19253 8459 c-48 -18 -22 -57 57 -85 27 -10 50 -21 50 -24 0 -3 -16
-14 -36 -25 -42 -23 -69 -66 -51 -84 17 -17 97 -13 143 8 98 45 98 128 1 169
-15 7 -36 12 -47 12 -10 0 -25 6 -32 13 -19 19 -59 27 -85 16z"/>
<path d="M12391 8045 c-11 -15 -23 -42 -27 -60 -5 -30 -9 -33 -50 -38 -25 -2
-54 -13 -66 -23 -29 -27 -58 -92 -58 -136 l0 -36 -30 11 c-25 10 -30 16 -25
35 12 49 -36 82 -120 82 -72 0 -125 -61 -125 -145 0 -24 -5 -35 -14 -35 -27 0
-74 51 -90 97 -19 57 -21 159 -3 166 9 3 9 8 1 16 -6 6 -18 9 -26 6 -49 -19
-51 -179 -4 -260 38 -64 86 -85 186 -81 58 3 88 10 133 32 l57 28 15 -21 c33
-47 42 -51 117 -51 40 0 88 7 107 14 30 13 36 12 52 -2 27 -24 90 -29 132 -9
33 15 38 16 59 1 31 -22 49 -20 91 9 20 13 39 20 41 16 15 -23 76 -207 74
-220 -4 -21 -68 36 -85 76 -12 30 -15 32 -36 22 -93 -50 -36 -188 110 -263 42
-21 71 -20 109 3 42 25 58 74 45 132 -16 70 -108 280 -146 332 -30 40 -40 47
-68 47 -23 0 -41 -8 -57 -25 -27 -29 -33 -25 -50 28 -9 29 -17 37 -35 37 -20
0 -30 -11 -52 -57 -28 -58 -51 -73 -90 -59 -12 5 -11 13 11 52 31 56 25 72
-16 42 l-31 -22 7 27 c3 14 0 45 -8 69 -24 74 -27 96 -17 140 6 23 8 44 7 46
-2 2 -13 -9 -25 -23z m-41 -236 c0 -32 1 -62 3 -66 4 -13 -53 -15 -69 -2 -27
22 -9 124 24 132 35 7 42 -4 42 -64z m-277 -5 c11 -11 -5 -33 -38 -54 -58 -36
-77 -23 -55 34 8 22 16 26 48 26 21 0 41 -3 45 -6z"/>
<path d="M13751 8046 c-10 -12 -4 -23 30 -58 58 -59 149 -201 258 -402 109
-200 142 -253 229 -366 36 -46 65 -91 66 -99 1 -8 -18 -28 -41 -43 -48 -33
-55 -60 -20 -82 12 -8 67 -28 122 -46 119 -38 217 -40 255 -5 45 41 10 159
-80 269 -66 80 -95 84 -130 17 -36 -72 -41 -71 -113 21 -88 113 -127 176 -254
404 -115 208 -216 354 -267 385 -37 23 -40 23 -55 5z"/>
<path d="M10706 8020 c-63 -19 -99 -89 -62 -119 12 -10 13 -9 9 8 -4 14 3 24
26 35 47 25 96 21 120 -10 12 -15 21 -31 21 -36 0 -5 -26 -36 -57 -69 -46 -49
-57 -66 -57 -94 0 -62 60 -105 148 -105 43 0 60 5 84 25 l30 25 17 -26 c18
-27 70 -54 106 -54 36 0 89 31 105 61 l15 29 36 -24 c61 -42 65 -21 16 84 -14
30 -32 62 -39 70 -7 8 -12 19 -12 25 3 30 -134 75 -185 59 -28 -8 -67 -44 -67
-61 0 -7 -10 -13 -22 -13 -13 0 -33 -3 -45 -6 -22 -6 -22 -5 -12 25 22 64 -13
140 -77 167 -37 16 -56 16 -98 4z m450 -190 l32 0 -10 -42 c-12 -57 -42 -88
-85 -88 -29 0 -36 5 -49 35 -30 72 -12 110 46 101 19 -3 49 -6 66 -6z m-210
-107 c-11 -12 -135 -8 -148 5 -20 20 28 58 92 75 l55 13 3 -44 c2 -24 1 -46
-2 -49z"/>
<path d="M11444 8017 c-3 -9 -3 -67 0 -129 3 -62 7 -135 9 -163 3 -59 10 -73
45 -86 50 -19 229 42 225 76 -3 23 -63 28 -129 10 -35 -9 -67 -15 -69 -13 -10
9 26 105 45 123 24 22 26 60 4 69 -17 7 -54 -10 -54 -24 0 -6 -4 -10 -10 -10
-5 0 -10 15 -10 34 0 39 -17 95 -36 115 -11 13 -14 12 -20 -2z"/>
<path d="M11236 7985 c-38 -13 -105 -69 -95 -79 2 -3 43 10 89 29 47 19 102
35 123 35 38 0 50 13 21 24 -27 10 -97 6 -138 -9z"/>
<path d="M8257 7933 c-12 -11 -8 -46 12 -98 11 -27 45 -115 75 -195 31 -80 74
-212 96 -294 23 -82 108 -352 190 -600 166 -503 261 -808 350 -1114 65 -228
103 -343 207 -627 39 -104 92 -255 118 -335 27 -80 63 -179 81 -222 18 -42 42
-111 54 -155 12 -43 41 -127 65 -188 23 -60 46 -121 50 -134 l7 -24 -132 4
-133 4 -21 -28 c-19 -26 -19 -30 -6 -55 10 -17 46 -43 98 -70 51 -27 87 -52
94 -67 12 -26 59 -50 81 -42 14 5 81 -44 206 -150 51 -44 69 -53 100 -53 49 0
72 25 82 92 10 59 -4 298 -26 448 -12 81 -17 98 -40 117 -48 42 -91 26 -146
-54 l-32 -45 -29 68 c-16 38 -49 127 -74 198 -24 70 -61 167 -83 215 -21 47
-60 145 -86 216 -26 72 -91 247 -145 390 -54 143 -123 339 -154 435 -192 605
-314 983 -381 1175 -185 529 -214 623 -199 636 23 19 16 54 -32 161 -26 57
-57 130 -69 163 -39 103 -77 175 -107 206 -28 28 -57 37 -71 22z"/>
<path d="M6915 7590 c-15 -17 -17 -33 -11 -147 4 -70 9 -263 11 -428 3 -236 9
-351 30 -540 22 -203 28 -312 35 -705 7 -336 15 -526 30 -685 26 -279 38 -616
50 -1420 8 -576 18 -810 35 -866 4 -10 5 -19 3 -19 -2 0 -27 7 -55 14 -60 16
-88 12 -120 -17 -39 -35 -25 -89 28 -111 29 -12 29 -13 34 -112 6 -131 38
-284 63 -304 11 -8 22 -28 26 -43 7 -30 41 -49 74 -40 14 3 22 -1 26 -15 13
-40 47 -72 75 -72 58 0 75 59 49 169 -11 49 -10 51 20 85 38 44 76 109 92 159
11 34 14 37 50 37 30 0 43 6 59 26 45 57 11 116 -75 128 -27 4 -76 14 -110 22
l-60 15 -12 432 c-7 238 -12 551 -12 697 0 260 -25 1076 -35 1135 -11 66 -57
698 -70 978 -13 261 -24 373 -75 767 -6 41 -17 196 -25 344 -20 347 -42 493
-83 524 -21 16 -26 15 -47 -8z m257 -4999 c13 -5 32 -12 43 -16 19 -7 19 -8
-4 -16 -20 -8 -29 -5 -50 16 -27 27 -25 30 11 16z"/>
<path d="M13664 7466 c-3 -8 26 -118 64 -243 39 -125 83 -273 97 -328 43 -164
94 -312 157 -455 87 -196 116 -291 113 -369 l-2 -65 -39 -17 c-21 -9 -50 -31
-63 -49 -32 -44 -20 -77 37 -108 27 -15 42 -30 42 -43 0 -39 31 -80 73 -100
51 -22 86 -24 132 -5 33 14 36 14 65 -11 l31 -26 -6 25 c-5 17 -2 27 8 31 12
4 15 25 15 94 -1 48 -5 102 -10 118 -5 17 -13 67 -17 113 -12 122 -55 153
-132 97 l-34 -26 -8 33 c-4 18 -31 101 -59 183 -313 926 -366 1075 -403 1128
-23 36 -52 46 -61 23z m561 -1676 c8 -13 -15 -13 -35 0 -12 8 -11 10 7 10 12
0 25 -4 28 -10z"/>
<path d="M12367 7393 c-12 -12 -7 -43 7 -43 7 0 19 -7 26 -15 20 -24 22 -12 5
28 -15 36 -25 44 -38 30z"/>
<path d="M11676 7327 c-17 -13 -17 -15 8 -43 l26 -29 -12 29 c-10 23 -10 30 0
34 13 4 17 22 4 22 -5 0 -16 -6 -26 -13z"/>
<path d="M17816 7295 c-9 -25 -7 -119 4 -189 27 -166 29 -165 27 4 -1 99 -6
172 -13 184 -10 17 -12 17 -18 1z"/>
<path d="M18248 7278 c-2 -13 0 -108 4 -213 9 -219 17 -243 83 -275 23 -11 52
-20 66 -20 41 0 112 42 145 86 l31 41 31 -29 c34 -29 77 -37 112 -18 16 9 21
6 26 -15 6 -26 39 -55 61 -55 7 0 19 10 27 23 14 20 13 30 -3 94 -10 39 -22
76 -25 82 -12 19 -57 12 -88 -14 -16 -14 -33 -25 -38 -25 -12 0 -28 56 -35
125 -10 97 -13 105 -39 105 -34 0 -50 -42 -52 -138 -2 -72 -5 -87 -25 -109
-54 -57 -141 -80 -172 -45 -22 24 -22 24 8 68 40 58 30 114 -20 114 -19 0 -22
9 -32 99 -11 102 -24 141 -47 141 -8 0 -16 -10 -18 -22z"/>
<path d="M17307 7273 c-14 -14 -6 -47 25 -99 55 -91 66 -66 18 40 -30 68 -32
71 -43 59z"/>
<path d="M10650 7253 c-47 -24 -85 -99 -76 -148 9 -48 49 -91 90 -99 45 -9 93
11 138 58 l35 36 24 -26 c20 -22 107 -74 124 -74 14 0 1 29 -42 88 -27 36 -59
88 -73 116 -23 46 -29 51 -60 52 -19 1 -55 5 -80 8 -34 5 -54 3 -80 -11z m140
-62 c0 -49 -74 -113 -114 -98 -27 11 -21 72 10 96 35 28 104 29 104 2z"/>
<path d="M11280 7263 c-8 -3 -30 -19 -48 -37 -51 -48 -66 -114 -57 -250 15
-243 32 -311 78 -304 39 5 48 42 45 173 l-4 120 42 2 c61 2 102 27 124 74 17
40 18 40 24 14 8 -33 49 -53 71 -35 20 17 19 32 -6 63 -16 21 -18 31 -9 46 11
22 66 41 118 41 33 0 33 0 25 -37 -14 -69 -9 -104 21 -130 35 -30 61 -29 91 2
33 32 31 43 -7 47 -32 3 -33 4 -39 63 -8 77 -16 94 -46 101 -38 10 -136 -2
-172 -21 -18 -9 -38 -30 -45 -47 l-13 -30 -10 28 c-29 82 -120 140 -183 117z
m74 -114 c34 -40 33 -67 -1 -80 -31 -12 -53 -6 -53 16 0 18 -12 19 -28 3 -17
-17 -36 4 -28 29 9 29 44 63 66 63 10 0 30 -14 44 -31z m-99 -274 c5 -66 3
-86 -4 -73 -6 9 -13 65 -16 125 -6 132 11 89 20 -52z"/>
<path d="M11913 7236 c-37 -17 -62 -51 -69 -97 -7 -41 10 -89 30 -89 20 0 31
20 17 30 -15 9 -5 54 16 72 18 14 84 14 113 -2 29 -15 50 -62 50 -112 0 -24 4
-49 9 -56 16 -25 45 -8 59 32 24 74 -5 161 -70 209 -34 25 -113 32 -155 13z"/>
<path d="M15110 7190 c0 -19 11 -42 33 -66 l32 -37 0 -139 c0 -115 2 -138 14
-136 8 2 19 19 24 38 10 38 4 173 -8 204 -7 16 -5 17 16 10 13 -5 39 -9 58 -9
l35 0 3 -70 c7 -130 63 -210 129 -185 l26 10 -24 23 c-42 39 -53 89 -53 239 1
129 -1 138 -19 144 -20 7 -27 0 -58 -55 -26 -47 -66 -43 -127 14 -57 53 -81
58 -81 15z"/>
<path d="M18763 7213 c-22 -8 -14 -40 13 -58 32 -20 36 -17 28 23 -6 31 -19
42 -41 35z"/>
<path d="M16422 7183 c-17 -34 -34 -165 -31 -235 l4 -71 -30 -9 c-36 -9 -90
-1 -105 17 -7 9 -7 26 2 59 10 39 10 50 -5 80 -29 61 -99 59 -132 -4 -9 -17
-16 -54 -17 -81 0 -49 0 -50 -21 -36 -12 7 -32 33 -45 58 -19 37 -22 58 -21
127 1 45 -1 85 -4 89 -14 13 -36 -21 -47 -71 -10 -51 -11 -52 -44 -48 -74 9
-136 -65 -136 -162 0 -108 116 -143 193 -58 l19 21 46 -25 c32 -17 56 -24 76
-20 20 4 37 -1 59 -16 23 -17 50 -24 98 -26 l66 -4 34 40 33 40 29 -24 c39
-33 89 -32 120 2 l25 26 32 -23 c24 -18 45 -24 85 -24 48 0 58 4 89 34 19 18
44 56 56 82 58 137 -73 220 -204 130 -26 -18 -45 -38 -43 -44 2 -7 31 -18 65
-25 48 -11 62 -18 62 -32 0 -48 -58 -48 -87 0 -9 16 -24 32 -32 35 -19 8 -51
-29 -51 -59 0 -11 -5 -28 -10 -36 -9 -13 -15 -10 -39 16 -35 38 -76 193 -68
255 5 40 -6 52 -21 22z m-476 -181 c6 -4 16 -27 22 -52 13 -49 4 -64 -45 -77
-40 -10 -53 3 -53 52 0 61 40 102 76 77z"/>
<path d="M12242 7178 c-6 -6 -12 -35 -12 -63 0 -119 132 -225 230 -185 22 9
33 22 37 42 3 15 10 31 14 34 12 7 11 61 -1 69 -5 3 -14 24 -20 46 -22 82 -71
59 -68 -32 1 -32 -1 -62 -5 -65 -12 -12 -68 19 -92 51 -14 17 -28 49 -33 71
-8 40 -28 54 -50 32z"/>
<path d="M19622 7133 c-5 -10 -13 -40 -16 -66 -6 -38 -12 -50 -32 -57 -29 -12
-31 -38 -4 -73 18 -22 27 -57 16 -57 -3 0 -16 4 -30 10 -18 7 -26 17 -26 34 0
44 -84 90 -144 79 -28 -6 -70 -41 -98 -83 l-17 -25 0 28 c-1 30 -40 77 -65 77
-8 0 -38 -9 -65 -20 l-51 -20 -15 30 c-19 38 -57 48 -91 25 -25 -16 -74 -110
-74 -141 0 -16 32 -33 37 -18 2 5 13 25 24 44 20 33 23 34 33 16 19 -33 45
-56 64 -56 11 0 39 13 63 30 24 16 47 30 52 30 4 0 7 -28 7 -63 0 -50 4 -68
20 -85 30 -32 38 -28 51 23 l11 45 20 -25 c16 -21 28 -25 74 -25 34 0 53 -4
49 -10 -10 -17 15 -11 56 12 36 20 40 20 57 5 25 -23 69 -22 82 2 8 16 17 19
43 14 53 -8 71 17 63 89 -7 61 -3 68 35 48 10 -6 19 -21 19 -33 0 -39 27 -67
65 -67 19 0 37 5 40 10 9 15 25 2 25 -21 0 -33 55 -81 87 -77 48 5 52 45 14
122 -41 83 -59 94 -112 68 l-40 -20 -8 21 c-14 37 -48 59 -96 64 -36 5 -46 10
-49 27 -17 89 -22 101 -43 104 -13 2 -25 -4 -31 -15z m-134 -220 c3 -21 0 -23
-47 -23 -56 0 -60 4 -34 32 24 27 77 21 81 -9z"/>
<path d="M12618 7114 c-3 -3 1 -33 9 -67 9 -38 14 -107 13 -175 -1 -123 8
-152 45 -152 34 0 45 27 45 107 l0 68 61 0 c55 0 63 3 86 29 77 90 -77 239
-171 165 -26 -21 -28 -21 -41 -3 -8 11 -15 22 -15 27 0 8 -24 10 -32 1z m169
-86 c33 -30 29 -48 -9 -49 -72 -3 -88 9 -64 45 20 32 42 33 73 4z"/>
<path d="M13097 7079 c-9 -5 -24 -26 -32 -45 -16 -40 -26 -41 -95 -14 -74 29
-76 25 -15 -30 60 -54 100 -64 142 -35 20 14 23 12 54 -36 56 -87 68 -187 27
-213 -14 -8 -24 -4 -54 24 -48 46 -66 84 -62 128 2 34 0 37 -22 34 -35 -4 -70
-41 -70 -74 0 -66 62 -167 125 -204 79 -46 163 -24 201 52 28 58 26 165 -5
227 -34 69 -108 165 -142 182 -33 17 -29 17 -52 4z"/>
<path d="M15573 7035 c-12 -9 -25 -31 -29 -50 -3 -20 -10 -38 -15 -41 -16 -9
-10 -66 11 -99 55 -89 177 -79 224 19 25 54 21 107 -11 138 -50 48 -136 64
-180 33z m91 -85 c45 -17 29 -80 -20 -80 -25 0 -74 36 -74 54 0 33 44 45 94
26z"/>
<path d="M17016 7018 c-7 -13 -17 -41 -21 -62 -5 -33 -9 -37 -20 -25 -7 8 -22
30 -32 49 -23 41 -37 42 -41 4 -5 -36 23 -107 55 -138 45 -46 105 -30 123 32
14 50 13 135 -2 150 -19 19 -46 14 -62 -10z"/>
<path d="M17174 7023 c-22 -22 -44 -76 -44 -107 0 -14 10 -37 23 -51 26 -31
81 -36 138 -11 l36 15 33 -35 c40 -45 75 -44 75 2 l0 30 34 -23 c35 -24 49
-27 75 -17 25 9 18 27 -17 49 -42 27 -45 68 -5 73 35 4 71 -33 103 -104 27
-61 38 -70 60 -47 43 43 -19 178 -99 214 -50 23 -78 24 -121 3 -37 -17 -60
-61 -51 -98 l6 -24 -40 21 c-21 12 -41 32 -44 43 -3 12 -22 36 -41 53 -41 36
-93 42 -121 14z m110 -54 c34 -27 33 -34 -10 -47 -42 -13 -64 -7 -64 18 0 53
29 64 74 29z"/>
<path d="M17770 6953 c1 -5 14 -35 30 -68 25 -52 28 -56 29 -31 1 29 -36 106
-51 106 -4 0 -8 -3 -8 -7z"/>
<path d="M16107 6156 c-31 -65 -49 -188 -29 -200 7 -4 14 4 18 21 3 15 15 63
26 105 11 43 18 90 16 105 -3 25 -6 22 -31 -31z"/>
<path d="M14983 6193 c-22 -8 -26 -70 -14 -226 23 -289 47 -389 107 -436 63
-49 127 -15 181 97 l39 79 17 -42 c30 -72 77 -99 118 -67 l23 19 -26 89 c-15
49 -38 145 -53 214 -31 153 -42 187 -60 194 -45 17 -66 -30 -64 -142 0 -66 -6
-108 -25 -175 -26 -87 -67 -180 -85 -191 -27 -17 -47 54 -76 274 -39 291 -48
326 -82 313z"/>
<path d="M15814 6067 c-3 -9 -5 -95 -2 -190 3 -150 6 -177 22 -203 24 -36 46
-53 69 -54 19 0 18 15 -9 101 -21 68 -54 244 -54 292 0 50 -15 82 -26 54z"/>
<path d="M15453 6053 c-12 -30 15 -340 32 -373 30 -58 100 -52 142 12 l28 41
6 -45 c4 -25 12 -55 18 -67 14 -25 53 -28 72 -5 15 19 15 126 0 167 -28 73
-96 89 -156 36 -39 -34 -38 -35 -55 46 -38 179 -67 241 -87 188z"/>
<path d="M16283 5998 c-9 -11 -27 -111 -59 -329 -15 -95 142 -154 247 -92 27
16 29 16 51 -4 13 -11 33 -26 45 -32 30 -15 117 -14 157 3 42 17 103 71 122
107 31 61 8 134 -53 163 -44 21 -135 21 -180 0 -36 -18 -83 -71 -83 -95 -2
-57 -148 -112 -210 -79 -18 9 -18 11 2 52 12 24 32 58 46 76 20 26 23 37 15
50 -6 10 -20 17 -31 16 -18 0 -21 8 -27 72 -7 80 -23 115 -42 92z m452 -298
c9 -14 -12 -47 -40 -66 -29 -19 -83 -21 -114 -4 -18 9 -20 14 -10 26 34 41
147 71 164 44z"/>
<path d="M17155 5955 c-33 -18 -115 -94 -115 -108 0 -5 30 8 68 29 37 20 91
45 120 54 29 9 54 21 55 26 4 16 -96 15 -128 -1z"/>
<path d="M19806 5928 c-19 -49 -36 -147 -29 -165 5 -14 -125 -83 -157 -83
l-20 0 20 37 c11 21 20 50 20 65 0 33 -41 68 -80 68 -55 0 -110 -70 -110 -139
0 -31 -5 -35 -72 -46 -46 -9 -75 1 -83 25 -9 28 3 44 21 29 20 -16 28 -5 15
19 -13 24 -43 36 -71 27 -46 -14 -66 -119 -32 -161 9 -12 31 -29 49 -38 57
-29 106 -19 166 33 31 28 36 29 48 15 43 -53 150 -58 212 -11 19 15 45 43 58
63 l23 37 17 -41 c30 -70 89 -49 89 31 0 41 2 43 52 67 49 24 79 53 66 65 -3
3 -38 9 -77 12 l-71 6 -10 36 c-5 20 -10 48 -10 64 0 40 -16 33 -34 -15z"/>
<path d="M19247 5942 c-20 -21 -12 -36 40 -70 48 -34 51 -26 8 19 -26 26 -35
43 -27 46 14 5 17 23 4 23 -5 0 -16 -8 -25 -18z"/>
<path d="M17931 5904 c-24 -31 -33 -99 -29 -229 3 -93 5 -100 24 -103 38 -5
47 21 52 154 3 83 8 124 16 121 16 -5 24 -44 25 -124 1 -62 4 -76 28 -104 57
-67 161 -89 224 -46 44 29 79 82 79 119 0 48 45 108 82 108 24 0 24 -35 -2
-100 -11 -28 -20 -64 -20 -80 0 -38 36 -78 77 -86 27 -5 37 -1 63 24 39 39 39
61 0 69 -45 8 -42 48 5 70 40 19 47 38 11 31 -22 -5 -24 -2 -19 27 10 61 -39
125 -95 125 -39 0 -82 -39 -94 -84 l-12 -45 -27 24 c-59 49 -152 67 -211 41
-13 -6 -22 3 -42 43 -39 76 -96 95 -135 45z m295 -189 c31 -13 34 -17 24 -35
-27 -51 -98 -63 -142 -23 -58 52 29 96 118 58z"/>
<path d="M18670 5798 c1 -29 -4 -82 -10 -118 -8 -42 -9 -110 -5 -194 6 -106
11 -132 26 -147 24 -24 44 -24 69 1 18 18 20 29 15 88 -4 37 -8 77 -11 90 -4
18 0 22 20 22 42 0 77 22 96 61 11 20 31 50 45 68 23 26 34 31 70 31 86 0 120
-34 75 -75 -15 -14 -29 -16 -65 -12 -56 8 -51 -5 9 -28 38 -15 48 -15 72 -3
35 16 74 73 74 107 0 80 -130 137 -223 98 -18 -8 -38 -21 -45 -29 -11 -13 -17
-11 -48 18 -37 35 -70 42 -105 24 -16 -9 -21 -7 -28 14 -19 47 -32 41 -31 -16z
m110 -64 c17 -44 12 -92 -10 -104 -23 -12 -23 -12 -38 62 -6 32 -6 50 1 57 18
18 37 12 47 -15z"/>
<path d="M15991 5753 c1 -102 13 -137 22 -63 12 94 9 140 -8 140 -12 0 -15
-15 -14 -77z"/>
<path d="M16884 5819 c-12 -19 28 -221 48 -241 25 -25 55 -23 81 6 22 24 23
24 46 5 28 -23 79 -25 109 -3 22 15 22 14 22 -21 0 -58 -20 -122 -46 -146 -29
-27 -32 -79 -6 -102 10 -10 35 -17 56 -17 53 0 99 47 122 125 22 78 15 215
-15 274 -34 67 -73 65 -151 -5 l-38 -34 -6 35 c-12 62 -65 76 -117 29 -14 -12
-18 -8 -38 36 -24 52 -54 79 -67 59z"/>
<path d="M13005 3963 c-72 -91 -127 -212 -133 -293 -2 -38 -1 -85 3 -107 l8
-38 8 47 c4 25 36 108 72 185 56 119 107 243 107 258 0 18 -26 -3 -65 -52z"/>
<path d="M10428 3594 c-54 -31 -89 -84 -72 -111 16 -26 34 -28 32 -3 -6 47
108 89 161 60 29 -15 51 -68 51 -120 0 -50 -25 -55 -38 -7 -6 22 -14 32 -28
32 -18 0 -19 -9 -22 -156 l-2 -156 -39 10 c-30 8 -43 8 -55 -2 -35 -29 -15
-62 62 -100 34 -17 42 -27 42 -49 0 -56 61 -74 83 -24 12 26 14 27 102 28 137
1 175 29 175 127 -1 80 -54 162 -141 218 -49 32 -49 33 -49 87 0 66 -38 143
-85 172 -47 29 -118 26 -177 -6z m274 -311 c68 -57 97 -103 98 -155 0 -32 -4
-39 -25 -44 -27 -7 -161 -2 -168 6 -3 3 -8 46 -11 97 l-7 92 33 15 c44 19 42
20 80 -11z"/>
<path d="M11493 3487 c-29 -31 -43 -61 -52 -110 -5 -29 -12 -41 -22 -38 -8 2
-37 6 -65 9 -48 4 -53 2 -87 -32 -20 -20 -41 -54 -48 -78 -16 -56 -29 -70 -29
-32 0 46 -19 101 -37 108 -23 9 -55 -24 -88 -94 -16 -33 -32 -60 -36 -60 -8 0
-25 70 -35 143 -7 51 -20 68 -36 46 -15 -22 -1 -187 20 -228 30 -62 93 -52
122 20 17 39 30 27 30 -26 0 -55 15 -90 46 -104 29 -13 57 -4 50 16 -4 8 -9
27 -12 41 l-6 27 18 -25 c47 -64 111 -97 167 -86 18 3 56 24 85 46 50 38 54
39 75 25 24 -17 108 -20 123 -5 8 8 19 8 38 0 61 -23 131 -8 179 38 119 112
43 242 -142 242 -103 0 -155 -60 -131 -149 13 -48 24 -51 44 -13 26 50 51 65
97 58 23 -4 50 -11 61 -17 20 -11 20 -11 -2 -34 -34 -36 -68 -40 -97 -13 l-25
23 -19 -24 c-10 -13 -19 -29 -19 -36 0 -22 -26 -24 -61 -7 -39 20 -101 102
-81 109 18 7 15 27 -8 56 -26 33 -29 160 -4 195 22 31 12 37 -13 9z m-54 -264
c7 -27 23 -67 37 -90 l24 -41 -50 -7 c-57 -8 -86 -1 -117 28 -27 24 -30 74 -8
117 17 32 27 38 71 39 30 1 32 -2 43 -46z"/>
<path d="M12470 3343 c-28 -10 -52 -38 -78 -88 -21 -40 -26 -64 -27 -123 l0
-73 -43 90 c-26 54 -51 92 -62 96 -29 9 -63 -14 -109 -72 -23 -29 -46 -53 -52
-53 -26 0 -49 23 -65 65 -14 39 -15 49 -4 70 18 33 7 42 -25 21 -88 -58 -33
-240 78 -261 50 -10 85 1 117 35 l27 29 23 -24 c27 -29 79 -41 109 -26 18 10
25 7 52 -24 18 -20 44 -42 58 -49 68 -35 171 -27 216 18 22 22 22 22 47 3 30
-22 64 -16 73 13 3 10 -3 36 -13 57 -26 50 -43 134 -36 175 4 25 -2 18 -26
-31 -16 -35 -30 -68 -30 -72 0 -14 -69 -39 -107 -39 -51 0 -93 45 -93 99 0 28
4 41 14 41 32 0 35 93 4 114 -24 17 -25 17 -48 9z"/>
<path d="M11042 2821 c-45 -34 -62 -72 -62 -141 0 -36 4 -71 9 -79 14 -22 31
-3 31 34 0 19 12 71 26 115 14 45 24 83 22 85 -2 2 -14 -4 -26 -14z"/>
<path d="M11993 2604 c-26 -40 10 -83 60 -70 33 8 43 40 23 71 -22 33 -60 33
-83 -1z"/>
<path d="M10584 2553 c16 -88 58 -249 75 -289 26 -58 64 -69 98 -30 l23 27 26
-20 c45 -35 101 -23 153 33 14 14 28 26 31 26 12 0 69 -230 72 -290 4 -69 -10
-74 -81 -25 -28 20 -56 33 -61 30 -11 -7 16 -100 42 -143 39 -64 111 -79 188
-39 36 17 48 30 58 61 19 58 1 163 -53 308 -26 68 -54 157 -64 197 -10 41 -25
79 -33 85 -25 15 -46 0 -59 -44 -17 -57 -109 -139 -137 -122 -6 4 -14 39 -17
77 -9 102 -13 115 -35 115 -10 0 -21 -8 -25 -17 -49 -147 -62 -178 -70 -175
-5 2 -29 59 -51 126 -47 141 -50 146 -71 146 -12 0 -14 -7 -9 -37z"/>
<path d="M11351 2474 c-12 -15 -22 -43 -22 -63 -1 -20 -4 -49 -8 -66 l-7 -30
-45 45 c-24 25 -56 61 -71 80 -14 19 -29 32 -32 29 -10 -9 37 -133 67 -178 29
-44 87 -76 123 -67 32 8 62 43 74 85 13 47 13 147 0 172 -15 27 -55 24 -79 -7z"/>
<path d="M11655 2495 c-5 -2 -22 -6 -37 -9 -15 -4 -43 -20 -62 -37 -28 -24
-38 -43 -50 -99 -21 -93 -20 -113 9 -148 28 -33 99 -56 143 -46 75 18 158 89
188 160 22 53 18 111 -9 138 -31 30 -140 55 -182 41z m65 -123 c0 -19 -80 -84
-115 -93 -30 -9 -41 -8 -53 5 -14 13 -13 14 5 10 17 -5 23 1 33 30 6 20 19 40
28 46 20 11 102 13 102 2z"/>
<path d="M11974 2435 c-8 -19 1 -45 50 -161 65 -154 33 -297 -71 -311 -58 -8
-82 0 -142 48 -68 55 -81 49 -81 -38 0 -85 27 -130 95 -163 62 -30 171 -25
235 11 52 28 105 94 120 147 37 136 -26 318 -153 441 -41 39 -47 42 -53 26z"/>
<path d="M6743 1920 c-95 -20 -109 -54 -40 -95 55 -32 71 -32 32 0 l-30 24 53
1 c28 0 52 -4 52 -8 0 -5 14 -90 30 -190 17 -101 30 -187 30 -192 0 -14 -64
-12 -78 2 -19 19 -62 -6 -62 -37 0 -54 107 -86 220 -65 79 14 149 49 209 104
25 23 75 57 109 75 57 30 71 33 128 29 35 -2 67 -7 71 -12 4 -4 -9 -23 -29
-42 -34 -31 -44 -34 -96 -34 -32 0 -63 5 -70 12 -9 9 -12 9 -12 -3 0 -8 13
-28 30 -44 39 -38 127 -47 185 -19 83 39 124 153 73 201 -46 42 -193 58 -265
28 -20 -8 -37 -14 -38 -13 0 2 -9 30 -19 62 -25 81 -105 163 -191 196 -67 25
-218 36 -292 20z m237 -113 c58 -27 127 -99 139 -143 11 -39 1 -76 -27 -108
-21 -24 -102 -76 -118 -76 -6 0 -14 22 -18 51 -7 50 -57 257 -72 293 -6 17 -4
18 22 12 16 -4 49 -17 74 -29z"/>
<path d="M8525 1837 c-8 -19 -19 -63 -25 -99 l-12 -65 -44 5 c-70 8 -113 -32
-129 -122 l-8 -38 -24 41 c-15 26 -34 43 -51 47 -15 4 -42 20 -59 35 -42 36
-102 54 -139 42 -45 -15 -68 -55 -72 -127 -7 -113 30 -174 110 -183 55 -6 89
19 114 82 19 50 29 56 38 22 8 -35 42 -73 103 -118 72 -54 101 -63 151 -49 41
11 86 53 103 97 7 19 16 23 49 23 42 0 65 16 102 70 l17 25 0 -38 c2 -78 51
-128 107 -106 15 5 50 28 78 50 46 37 51 39 63 23 21 -28 15 -50 -22 -91 -66
-70 -133 -180 -140 -228 -25 -162 98 -262 235 -193 83 42 124 169 102 314 -15
96 -37 159 -75 217 -55 82 -121 95 -214 41 l-41 -24 -23 68 c-27 82 -35 94
-68 90 -18 -2 -38 -20 -69 -65 -24 -35 -47 -63 -52 -63 -4 0 -10 9 -13 20 -3
11 -11 19 -18 18 -27 -6 -52 91 -53 204 -1 60 -2 108 -4 108 -2 0 -9 -15 -17
-33z m-38 -239 c6 -7 17 -35 26 -63 l17 -50 -30 -27 c-34 -31 -65 -36 -74 -12
-10 25 -7 124 4 145 12 22 43 25 57 7z m-356 -18 c19 -10 18 -13 -12 -56 -17
-25 -36 -43 -42 -41 -7 2 -13 27 -15 55 -3 50 -2 52 23 52 15 0 35 -5 46 -10z"/>
<path d="M7730 1719 c-33 -14 -68 -47 -87 -83 -13 -25 -17 -27 -25 -13 -17 31
-27 18 -13 -17 8 -18 12 -36 8 -39 -11 -12 -22 -312 -12 -349 12 -46 33 -68
64 -68 40 0 48 31 42 151 l-6 107 52 7 c85 11 144 34 173 68 23 27 26 38 22
89 -5 61 -23 96 -70 131 -31 23 -111 32 -148 16z m86 -94 c17 -17 24 -34 22
-52 -3 -24 -11 -30 -58 -45 -80 -25 -108 -23 -116 6 -12 47 52 115 109 116 10
0 29 -11 43 -25z"/>
</g>
</svg>
