<?xml version="1.0" encoding="UTF-8"?><svg xmlns="http://www.w3.org/2000/svg" viewBox="0 0 291.87 189.99"><g style="isolation:isolate;"><g id="Layer_1"><g style="opacity:.05;"><path d="M54.38,63.69c22.16-37.37,94.4-49.7,136.08-23.62,16.94,10.6,46.18,17.27,62,38.12,8.94,11.78,4.58,44.76-2.31,57.99-23.7,45.54-139.63,41.44-171.78,26.04-29.26-14.02-43.63-65.4-23.99-98.53Z" style="fill:#0d0d88;"/></g><g><g style="mix-blend-mode:multiply; opacity:.25;"><path d="M56.02,148.33c-.17,0-.38-.01-.63-.04-.17-.02-.38-.02-.65-.02-.45,0-.84-.02-1.16-.05-.47-.05-.96-.17-1.47-.37-.42,.06-.76,.08-1.04,.07-.38-.02-.79-.07-1.25-.17-.56-.12-1.02-.28-1.41-.49-.35-.19-.65-.4-.9-.63-.14-.13-.35-.36-.63-.68-.28-.32-.54-.67-.78-1.05-.3-.46-.53-.95-.7-1.46-.19-.59-.27-1.3-.24-2.23,.03-.86,.14-1.59,.34-2.23,.16-.51,.31-.91,.43-1.21,.15-.35,.32-.68,.51-.99,.2-.33,.42-.62,.66-.89,.18-.2,.46-.49,.85-.87,.38-.37,.78-.73,1.18-1.05,.41-.33,.81-.62,1.19-.86,.39-.25,.75-.44,1.08-.58,.02,0,.04-.02,.06-.03,0-.44-.01-.98-.02-1.61,0-.87-.05-1.72-.12-2.53-.11-1.25-.13-1.64-.13-1.86,0-.23-.03-.91-.1-2.07-.07-1.23-.11-2.22-.14-2.97-.03-.78-.04-2.29-.05-4.63,0-2.95-.02-3.67-.02-3.84-.02-.32-.04-.64-.07-.96-.04-.44-.06-1.08-.06-1.99,0-1.18,.02-1.59,.04-1.82,.02-.24,.04-.61,.06-1.11,.03-.77,.04-1.38,.02-1.84-.04-1.31,.98-2.41,2.29-2.46,1.3-.03,2.41,.98,2.46,2.29,.02,.57,.01,1.31-.02,2.19-.02,.58-.05,1.01-.07,1.31-.02,.25-.03,.73-.03,1.44,0,.97,.02,1.38,.04,1.53,.04,.41,.07,.8,.08,1.19,.01,.26,.03,.97,.03,4.07,0,2.25,.02,3.75,.04,4.45,.03,.73,.08,1.7,.14,2.9,.07,1.28,.1,2.05,.1,2.29,0,.2,.04,.69,.11,1.47,.08,.94,.13,1.92,.14,2.91,0,.93,.02,1.66,.02,2.18,0,.77-.01,1.17-.08,1.5-.09,.46-.27,.87-.53,1.23,.02,0,.05,0,.07,0,.59-.02,1.07,.04,1.49,.19,.35,.12,.67,.28,.97,.48,.19,.13,.39,.3,.61,.51,.19-.07,.39-.11,.6-.13,1.32-.12,2.46,.86,2.57,2.17,.07,.84,0,1.65-.24,2.4-.15,.5-.37,.98-.65,1.44-.09,.15-.24,.42-.44,.88-.23,.52-.46,.98-.67,1.38-.23,.43-.48,.85-.75,1.24-.35,.5-.71,.9-1.1,1.21-.39,.32-1,.74-1.81,.8-.08,0-.16,0-.25,0Z" style="fill:#0000a5;"/></g><g style="mix-blend-mode:multiply; opacity:.3;"><path d="M166.05,128.87c-.25,0-.49-.03-.74-.09-.7-.18-1.3-.65-1.64-1.28-.38-.72-.41-1.53-.08-2.43,.03-.09,.05-.2,.05-.34,0-.29-.03-.65-.09-1.06-.07-.47-.12-.63-.13-.64,0-.02-.1-.25-.5-.94-.42-.72-.69-1.28-.85-1.76-.13-.4-.28-.9-.43-1.54-.17-.68-.24-1.06-.27-1.3-.22-.18-.46-.39-.7-.64-.09-.09-.42-.39-1.35-1.07-1.18-.86-1.55-1.19-1.79-1.48-.52-.62-.78-1.4-.73-2.19,.02-.47,.13-.93,.31-1.36,.15-.35,.38-.74,.73-1.2,.19-.26,.4-.55,.61-.88,.12-.19,.34-.57,.69-1.32,.39-.85,.52-1.2,.55-1.3,.09-.28,.19-.67,.3-1.15,.05-.23,.08-.4,.09-.51-.02-.02-.05-.05-.07-.08-.25-.26-.52-.51-.79-.73-.35-.29-.5-.37-.5-.37,0,0-.14-.07-.54-.19-.08-.02-.38-.1-1.07-.1s-1.04,.06-1.18,.1c-.23,.06-.48,.17-.76,.33-.51,.3-1.04,.59-1.58,.86-.57,.29-1.1,.53-1.6,.72-.65,.25-1.06,.37-1.43,.42-.51,.07-1.04,.01-1.57-.16-.68-.22-1.59-.83-2.01-2.42-.17-.66-.25-1.39-.24-2.17,0-.49,0-.87,0-1.14-.02-.31-.05-.79-.1-1.45-.04-.58-.11-1.09-.18-1.5-.11-.61-.18-1.3-.21-2.14-.02-.49-.04-.73-.05-.84-.02-.04-.04-.07-.07-.11-.2-.31-.38-.63-.55-.95-.19-.35-.37-.75-.53-1.18-.24-.05-.48-.11-.72-.18-.83-.25-1.39-.54-1.83-.93-.92-.84-1.03-1.79-1-2.28,.02-.4,.11-.81,.27-1.22,.2-.49,.51-.94,1-1.43,.47-.47,1.03-.84,1.66-1.1,.53-.22,1-.35,1.44-.41,.42-.06,.89-.06,1.46,0,.61,.05,1.24,.21,1.85,.46,.09,.04,.18,.07,.27,.05,.25,0,.73-.03,1.68-.14,.89-.1,1.15-.17,1.18-.18,0,0,.02,0,.06-.03,.1-.06,.21-.12,.32-.19-.08-.27-.14-.52-.18-.77-.14-.18-.26-.36-.36-.56-.2-.38-.36-.8-.49-1.3-.04-.13-.08-.26-.15-.38-.19-.36-.36-.71-.49-1.04-.22-.55-.33-1.17-.31-1.89,.01-.74,.21-1.5,.59-2.34,.33-.72,.74-1.38,1.22-1.95,.27-.32,.49-.6,.66-.83,0-.13,0-.27,0-.4h0c-.26-.23-.4-.32-.45-.35-.11-.06-.23-.12-.37-.16,.03,0-.21-.03-.86-.05-.67-.02-1.19-.03-1.57-.01-.37,.01-.81,.05-1.31,.11-.52,.06-1.04,.13-1.55,.22-.52,.09-1.23,.22-2.14,.41-.87,.18-1.48,.32-1.84,.41-.39,.11-.96,.25-1.7,.44-.78,.19-1.44,.33-2.03,.42-.5,.08-1.11,.18-1.82,.31-.67,.12-1.22,.23-1.64,.34-.36,.09-.71,.21-1.05,.35-.48,.2-.9,.37-1.25,.5-.16,.06-.33,.12-.52,.19,.19,.38,.4,.81,.64,1.28,.51,1.04,.71,1.75,.68,2.43-.02,.43-.11,.93-.29,1.56-.1,.38-.2,.79-.28,1.23-.07,.39-.09,.64-.08,.79,.12,.07,.32,.18,.56,.32,.43,.25,.64,.32,.69,.33,.37,.11,1.37,.42,1.87,1.43,.29,.58,.33,1.3,.11,1.92-.38,.98-1.19,1.41-1.83,1.75-.56,.29-1.06,.51-1.5,.65s-.83,.23-1.17,.28c-.27,.03-.67,.06-1.9,.02-.87-.03-1.52-.06-1.96-.1-.54-.05-1.14-.16-1.85-.34-.69-.18-1.21-.34-1.6-.5-.16-.06-.35-.12-.57-.18-.43-.1-.83-.22-1.18-.34-.46-.17-.96-.44-1.53-.83-.18-.12-.37-.21-.57-.27-.22-.06-.42-.08-.57-.09-.21,0-.3,.03-.3,.03h0s-.2,.08-.73,.43c-.66,.43-1.32,.78-1.96,1.04-.43,.17-.93,.4-1.47,.68-.73,.37-1.44,.66-2.12,.86-.68,.2-1.22,.32-1.67,.38-.19,.02-.31,.05-.38,.08-.18,.06-.46,.17-.8,.33-.41,.18-.8,.36-1.17,.55-.11,.06-.21,.11-.29,.15,0,.01,0,.03,0,.05,0,.14,0,.28,.03,.42,0,.02,.01,.07,.05,.16,.04,.08,.08,.16,.14,.24,.13,.16,.27,.33,.42,.48,.02,.02,.07,.07,.18,.17,.06,.03,.11,.05,.15,.08,.39,.2,.73,.45,1.02,.75,.19,.19,.35,.4,.49,.65,.35,.34,.61,.64,.8,.92,1.06,1.55,.48,2.77,.18,3.22-.5,.76-1.32,1.21-2.24,1.24-1.42,.08-2.58-.97-2.7-2.36-.01-.06-.03-.14-.05-.22l-.27-.23h0c-.47-.2-.94-.45-1.4-.74-.31-.2-.44-.26-.46-.26,0,0-.25-.09-1.16-.31-1.07-.25-1.92-.6-2.59-1.05-.25-.17-.53-.31-.84-.41-.12-.04-.5-.14-1.33-.16-.88-.02-1.15,.05-1.17,.06-.32,.1-.67,.23-1.05,.38-.55,.22-1.01,.38-1.4,.48-1.08,.27-1.96,.08-2.63-.58-.59-.58-.85-1.46-.67-2.26,.16-.7,.57-1.17,1.01-1.64,.35-.37,.84-.79,1.48-1.27,.25-.19,.5-.38,.74-.57-.1-.19-.19-.38-.27-.59-.23-.61-.34-1.22-.32-1.8,.01-.36,.05-.75,.12-1.21,.08-.54,.24-1.12,.47-1.72,.21-.54,.49-1.16,.88-1.9,.39-.74,.72-1.31,1.02-1.73,.25-.36,.38-.55,.41-.59,.17-.23,.37-.43,.6-.59,.01-.05,.02-.09,.04-.13,.21-.8,.47-1.35,.84-1.79,.34-.4,.76-.73,1.29-1.01,.05-.02,.09-.05,.15-.08-.07-.06-.14-.12-.21-.19-.07-.07-.15-.13-.24-.19,0,0-.14-.07-.67-.23-.41-.12-.81-.19-1.23-.19-.58-.01-1.21,0-1.89,.04-.7,.04-1.38,.09-2.04,.16-.62,.06-1.27,.16-1.93,.28-.69,.13-1.45,.29-2.29,.48-.83,.19-1.55,.37-2.14,.54-.57,.17-1.2,.39-1.87,.66-1.2,.49-1.81,.65-2.4,.62-1.03-.04-1.65-.53-1.98-.94-.43-.53-.63-1.29-.52-1.96s.47-1.17,.84-1.62c.29-.35,.62-.68,.98-.99,.36-.3,.79-.62,1.33-.96,.51-.32,.94-.56,1.28-.74,.3-.15,.76-.38,1.38-.67l1.94-.91c.75-.35,1.34-.62,1.76-.8,.5-.21,1.12-.42,1.88-.64,.55-.16,1.08-.36,1.57-.59,.6-.28,1.21-.57,1.83-.88,.61-.3,1.14-.58,1.61-.84,.52-.29,1.16-.61,1.9-.98,.69-.34,1.32-.66,1.9-.96,.82-.43,1.92-1.06,3.26-1.88,1.12-.69,2.58-.33,3.27,.79,.69,1.12,.33,2.58-.79,3.27-1.46,.89-2.62,1.56-3.55,2.05-.61,.32-1.28,.65-2,1.01-.27,.13-.52,.26-.75,.38,.1-.03,.21-.06,.32-.09,.55-.14,1.18-.3,1.91-.47,.74-.17,1.52-.34,2.35-.49,.8-.15,1.7-.31,2.68-.48,1-.17,2.06-.33,3.18-.48,1.11-.14,2.75-.33,4.93-.57,2.18-.23,4.32-.43,6.37-.58,2.1-.16,3.55-.24,4.43-.26,.8-.02,1.52-.04,2.14-.07,.4-.02,.88-.04,1.43-.07,.39-.69,1.08-1.15,2.07-1.4,.42-.1,.96-.2,1.67-.31,.66-.1,1.4-.19,2.23-.27,.82-.08,1.66-.14,2.54-.18,.86-.04,1.76-.07,2.69-.08,.92-.01,1.86,0,2.8,0,.94,.01,1.84,.03,2.7,.06,.84,.03,2.02,.05,3.55,.09,1.5,.03,2.64,.04,3.41,.04,.78,0,2.02-.04,3.71-.1,1.71-.06,3.45-.13,5.24-.22,1.81-.09,3.22-.16,4.22-.2,1-.04,2.02-.08,3.06-.11,1.04-.03,2.08-.05,3.12-.07,.58,0,1.45,0,2.63,.01,.45-.05,.92-.1,1.41-.15,.65-.06,1.3-.1,1.93-.13,.59-.03,1.7-.06,3.32-.11,1.61-.05,3.22-.08,4.84-.11,1.64-.03,2.74-.04,3.29-.03,.55,0,1.78,.04,3.72,.11,1.94,.06,3.36,.13,4.23,.18,.9,.06,1.86,.15,2.83,.27,.99,.12,1.78,.23,2.37,.33,.7,.12,1.28,.25,1.76,.42,.45,.15,.94,.36,1.45,.62,.15,.07,.64,.3,2.06,.78,1.27,.44,2.11,.76,2.62,1.01,.51,.25,1.07,.57,1.71,.97,.68,.44,1.19,.82,1.55,1.16,.21,.2,.43,.39,.69,.6,.21,.17,.39,.3,.55,.39,.25,.14,.54,.29,.9,.46,.43,.21,1.13,.56,2.08,1.07,.96,.51,1.88,1.03,2.71,1.56,.84,.53,1.43,.91,1.77,1.16,.32,.23,.81,.57,1.48,1.03,.7,.49,1.33,.93,1.88,1.33,.61,.44,1.07,.81,1.4,1.13,.36,.34,1.2,1.12,1.14,2.35-.04,.86-.67,2.46-2.91,2.4-.44-.02-.87-.07-1.27-.16-.44-.1-.93-.28-1.57-.56-.52-.23-1.15-.56-1.91-.99-.61-.34-1.18-.62-1.69-.84-.57-.24-1.14-.47-1.7-.68-.68-.25-.99-.35-1.11-.38-.1-.02-.39-.09-1.09-.18-.25-.03-.5-.06-.73-.08,.33,.44,.59,.85,.78,1.24,.1,.19,.18,.32,.24,.38,.17,.06,.36,.14,.56,.21,.47,.15,.9,.33,1.28,.53,.41,.22,.83,.51,1.25,.85,.48,.41,.82,.77,1.05,1.13,.25,.39,.42,.82,.53,1.28,.05,.22,.12,.58,.25,1.69,.1,.88,.15,1.11,.16,1.14,.12,.45,.16,.99,.12,1.62-.04,.59-.16,1.14-.35,1.65-.17,.44-.37,.85-.61,1.21-.08,.13-.15,.25-.21,.39-.03,.07-.1,.25-.19,.58-.09,.33-.17,.69-.24,1.07-.06,.32-.1,.71-.12,1.14-.03,.73-.09,1.27-.19,1.72-.06,.25-.18,.69-.59,1.94-.38,1.14-.45,1.43-.46,1.47,0,0-.04,.18-.04,.69,0,.31,.03,.59,.1,.84,.12,.47,.26,1.01,.4,1.62,.21,.88,.28,1.48,.23,2-.09,1.04-.66,1.9-1.56,2.38-.62,.33-1.36,.44-2.46,.36-.89-.06-1.61-.23-2.2-.5-.56-.25-1.1-.63-1.68-1.15-.37-.34-.62-.52-.76-.62-.37-.25-.78-.57-1.21-.94-.28-.24-.62-.49-1.01-.73-.54-.34-1-.66-1.37-.94-.42-.33-.84-.73-1.29-1.25-.29-.33-.6-.65-.93-.95-.55-.5-.97-1-1.3-1.53-.09-.15-.17-.27-.24-.36-.02,0-.12-.07-.24-.15-.2-.12-.41-.24-.64-.33-.31-.13-.74-.28-1.29-.45-.6-.19-1.19-.37-1.79-.53-.68-.19-1.21-.35-1.6-.48-.3-.1-.61-.2-.93-.28-.15-.04-.27-.07-.37-.08-.16,0-.46,0-.89,.01-.44,.01-1.03,.06-1.75,.13-.9,.09-1.83,.12-2.75,.07-1.23-.06-1.67-.12-1.94-.18-.37-.07-.74-.18-1.08-.31-.23-.09-.58-.23-1.07-.44-.35-.15-.73-.27-1.15-.37-.49-.12-1.07-.24-1.73-.36-.72-.13-1.16-.16-1.4-.16-.11,.01-.28,.02-.37,.05-.24,.1-.49,.2-.73,.3,.03,.1,.06,.2,.08,.31,.19,1.07-.44,2.17-1.43,2.62l-.55,.25c-.2,.09-.47,.19-.99,.34-.1,.16-.19,.32-.28,.47-.23,.4-.43,.77-.59,1.09-.12,.25-.22,.51-.29,.78-.08,.29-.14,.59-.17,.9-.02,.14-.03,.28-.04,.42,.33,.46,.52,1.02,.54,1.63,.02,.51-.06,1.01-.22,1.48-.12,.34-.33,.74-.93,1.65-.32,.49-.59,.93-.78,1.32-.28,.55-.64,1.18-1.11,1.91-.24,.38-.34,.58-.37,.66-.02,.18-.06,.6-.09,1.5-.03,.93-.07,1.64-.1,2.15-.05,.59-.14,1.22-.28,1.87-.14,.64-.31,1.26-.5,1.85-.16,.48-.33,.99-.5,1.55-.2,.65-.4,1.23-.61,1.74-.22,.54-.51,1.15-.87,1.82-.37,.68-.66,1.19-.91,1.55-.24,.36-.48,.69-.73,.98-.22,.28-.59,.69-1.11,1.25-.51,.55-1.03,1.07-1.55,1.55-.74,.68-1.07,.93-1.34,1.09-.5,.3-1.05,.45-1.6,.45Zm2.01-2.18h0Zm1.01-7.39c.02,.12,.04,.25,.05,.38,.08-.14,.15-.28,.21-.41-.09,.01-.18,.03-.26,.03Zm-3.27-4.69s.07,.04,.1,.06l-.25-.29s-.07-.02-.1-.03l.25,.26Zm-3.79-2.74s.07,.05,.1,.08c.9,.66,1.51,1.15,1.9,1.53,.17,.17,.3,.28,.38,.35,.04-.05,.07-.1,.11-.15-.14-.15-.24-.3-.31-.41-.47-.79-.45-1.75,.03-2.56-.43-.13-.81-.37-1.1-.69-.25,.51-.49,.93-.71,1.27-.14,.21-.27,.4-.4,.59Zm14.23-2.44h0Zm41.56-7.96h0Zm-109.44-4.38s0,.04,0,.07c0-.02,0-.05,0-.07Zm83.03-6.92l.12,.05c.1,.04,.2,.06,.3,.08,.02,0,.28,.04,1.25,.09,.34,.02,.68,.02,1.01,.01h-.03c-.08-.06-.17-.11-.26-.15-.46-.02-.92-.03-1.4-.05-.36-.01-.69-.02-1-.04Zm25.21-2.46c.51,.32,.85,.73,1.05,1.18,.06-.16,.12-.32,.19-.46,.16-.36,.35-.71,.56-1.03,.03-.05,.09-.15,.15-.32,.02-.04,.04-.13,.05-.29,0-.06,0-.11,0-.16-.06-.26-.14-.69-.26-1.71-.05-.44-.09-.76-.12-.98-.01-.01-.03-.02-.04-.03l-.04-.03c.05,.35,.02,.7-.09,1.04-.2,.63-.57,1.03-.98,1.28,.02,.56-.16,1.09-.47,1.51Zm2.02-1.04v0Zm-91.91-4.71h0Zm57.04-2.5s.05,.07,.08,.11c.3-.02,.61-.04,.91-.05,.1,0,.19-.01,.29-.02-.46-.01-.89-.03-1.29-.04Zm-54.47-.06c.07,.04,.14,.09,.21,.13,.02-.07,.04-.13,.05-.2,.03-.12,.06-.21,.07-.28-.04-.08-.08-.19-.15-.33-.03-.06-.06-.13-.09-.19-.03,0-.05,.02-.08,.03,.01,.06,.02,.12,.02,.19,.02,.22,0,.45-.03,.66Zm27-3.04s-.08,.09-.12,.14c-.21,.25-.39,.55-.54,.88-.05,.1-.08,.18-.1,.25,.2-.07,.44-.16,.72-.25-.02-.33,.03-.65,.13-.94-.03-.02-.06-.05-.09-.07Zm55.47,1.11h.08c-.05-.11-.08-.22-.12-.34,.02,.09,.03,.17,.03,.22,0,.04,0,.08,0,.12Zm-124.92-1.58h0Zm121.96-.56h0Zm-101.88-2.54c.22,.21,.41,.45,.56,.73,.16-.05,.33-.11,.5-.16,1.08-.35,2.38-.74,3.84-1.16,.43-.12,.93-.26,1.52-.43-1.04,.09-2.12,.23-3.22,.41-.87,.15-1.95,.35-3.2,.62Zm21.82-.17h0Zm-44.02-.09h0Zm71.53-3.98s.05,.05,.08,.07c.1,.09,.2,.18,.29,.27,.08-.11,.17-.21,.26-.32l.02-.02h-.66Z" style="fill:#c6c6c6;"/></g><g style="mix-blend-mode:multiply; opacity:.3;"><path d="M226.92,134.51c-.06,0-.11,0-.17,0-.26,0-.71-.05-1.33-.13-.64-.08-1.42-.26-2.39-.53-1.26-.36-1.73-.54-2-.65-.38-.16-.74-.36-1.09-.57-.38-.23-.72-.49-1.03-.77-.29-.26-.55-.54-.78-.83-.24-.3-.49-.68-.78-1.2-.18-.31-.38-.62-.6-.93-.18-.25-.4-.49-.64-.72-.2-.19-.41-.35-.62-.46-.29-.16-.66-.33-1.11-.5-.66-.25-1.16-.47-1.55-.68-.44-.23-.86-.5-1.23-.81-.35-.29-.66-.58-.94-.88-.31-.34-.57-.69-.77-1.05-.3-.52-.47-1.11-.51-1.74-.1-1.4,.58-2.2,.99-2.56,.45-.39,1.01-.66,1.61-.76,.3-.05,.67-.08,1.18-.11,.47-.02,1.06-.02,1.79,0,.77,.03,1.34,.07,1.79,.14,.72,.11,1.24,.29,1.67,.58,.32,.22,.61,.48,.86,.79,.06,.07,.12,.15,.19,.25,.05-.01,.11-.03,.18-.04,.37-.09,.84-.25,1.43-.47,.71-.27,1.29-.47,1.73-.61,.73-.23,1.22-.32,1.68-.29,.52,.03,1.03,.19,1.53,.48,.19,.11,.51,.31,.97,.59,1.12,.69,1.82,1.4,2.19,2.23,.17,.38,.23,.77,.2,1.16,.08,.05,.15,.1,.23,.15,.46,.31,.87,.63,1.23,.97,.41,.39,.75,.82,1.03,1.26,.4,.66,.6,1.36,.58,2.09,0,.42-.06,.85-.16,1.28-.1,.44-.26,.89-.46,1.34-.19,.41-.48,.9-.9,1.54-.53,.8-.94,1.28-1.38,1.61-.41,.3-.86,.52-1.34,.67-.41,.12-.84,.19-1.27,.19Zm0-4.75h0Zm.44-1.93c.05,.34,.04,.68-.04,1,.1-.18,.15-.28,.18-.33,.09-.18,.12-.31,.14-.39v-.03s-.05-.06-.09-.1c-.06-.05-.12-.11-.19-.16Z" style="fill:#c6c6c6;"/></g><g style="mix-blend-mode:multiply; opacity:.3;"><path d="M107.23,153.78c-.32,0-.63,0-.93-.02-.89-.04-1.6-.13-2.18-.29-.63-.18-1.08-.37-1.45-.6-.3-.2-.6-.43-.88-.7-.18-.17-.49-.49-.94-.96-.46-.47-.73-.72-.88-.84-.19-.16-.41-.32-.64-.46-.3-.18-.59-.35-.88-.51-.22-.11-.49-.24-.81-.39-.2,.04-.36,.05-.53,.05-.63,0-1.3-.27-1.75-.72-.48-.49-.75-1.15-.73-1.88,.02-1.42,1.17-2.55,2.59-2.52,.28,0,.55,.04,.89,.15,.29-.03,.6-.04,.94-.04h.02c.61,0,1.19,.02,1.71,.07,.68,.06,1.2,.17,1.63,.34,.34,.13,.75,.34,1.29,.65,.51,.3,1,.63,1.45,1,.28,.23,.57,.43,.87,.62,.31,.19,.43,.24,.44,.25,.11,.04,.25,.07,.4,.1,.18,.04,.45,.07,.8,.1,.4,.04,.78,.06,1.15,.07,.34,.01,.69,0,1.05-.02,.32-.02,.72-.08,1.2-.19,.66-.15,1.17-.25,1.53-.3,.33-.05,1.01-.15,2.02-.29,1.45-.2,1.97-.23,2.26-.23,.33,0,1.04,0,2.11,.04,.71,.02,1.15,.02,1.41,.01,.04-.36,.11-.68,.2-.98,.2-.68,.49-1.2,.89-1.61,.28-.28,.61-.53,.98-.74,.28-.16,.59-.3,.93-.43,.35-.14,.8-.26,1.47-.4,.51-.11,1.17-.25,1.99-.44,.98-.22,1.81-.34,2.52-.36,.54-.02,1.22-.05,2.02-.1,.91-.05,1.79-.06,2.63-.02,.82,.04,1.57,.11,2.21,.21,.75,.11,1.23,.21,1.59,.33,.3,.1,.71,.26,1.34,.54,1.05,.46,1.84,1.21,2.28,2.17,.55,1.19,.03,2.6-1.16,3.16-.22,.1-.45,.17-.68,.2,.09,.34,.12,.7,.07,1.06-.1,.8-.39,1.47-.85,1.99-.64,.71-1.54,.99-2.16,1.13-.47,.11-1.17,.27-2.1,.48-1.01,.23-1.68,.37-2.12,.43-.46,.07-.93,.11-1.38,.13-.28,0-.83,.01-2.38-.05-1.1-.05-2.33-.09-3.71-.14-1.35-.04-2.35-.07-2.99-.07-.61,0-1.3,.03-2.06,.08-.78,.05-1.4,.1-1.86,.15-.49,.05-1.24,.11-2.26,.19-.98,.08-2.17,.18-3.57,.31-1.44,.13-2.6,.22-3.44,.27-.53,.03-1.04,.04-1.54,.04Zm17.74-5.73h.02c.07-.46,.27-.89,.57-1.24-.33,.08-.45,.12-.47,.13,0,.07-.01,.15-.02,.24-.02,.32-.05,.61-.1,.87Zm-4.67-.91h0Z" style="fill:#c6c6c6;"/></g><g style="mix-blend-mode:multiply; opacity:.3;"><path d="M129.93,124.06c-.3,0-.61-.05-.9-.14-.68-.21-1.18-.67-1.96-1.55-.72-.81-.98-1.17-1.15-1.46-.36-.64-.47-1.36-.43-2.88,.02-.53,.02-.88,.02-1.1-.1-.17-.18-.33-.25-.47-.2-.39-.45-.88-.73-1.46-.24-.5-.46-.91-.65-1.24-.32-.53-.48-.85-.58-1.13l-.09-.25s-.02-.07-.03-.1c-.48-.28-.9-.66-1.24-1.13-.12-.17-.32-.39-.58-.68-.1-.11-.2-.23-.29-.35-.16,.09-.32,.17-.49,.24-.68,.32-1.43,.42-2.2,.34-2.37-.28-2.58-2.07-2.6-2.43-.02-.36,.03-.72,.16-1.23,.19-.71,.6-1.35,1.22-1.89l.07-.06c0-.09,.01-.21,.02-.36,.03-.88,.07-1.52,.11-1.96,.08-.73,.22-1.24,.46-1.67,.19-.35,.46-.68,.79-.97,.32-.28,.73-.53,1.33-.8,.72-.32,1.46-.45,2.23-.4,1.01,.07,1.86,.58,2.33,1.39,.22,.37,.4,.89,.37,1.55,.53-.05,1.25,.03,2.06,.53,.15,.09,.25,.13,.29,.15,.36,.14,.7,.31,1,.5,.51,.33,.9,.74,1.17,1.23,.15,.27,.24,.55,.3,.82,.5,.13,1.17,.31,2.02,.55,1.89,.52,2.45,.75,2.85,1,.63,.39,1.06,.86,1.31,1.43,.11,.25,.18,.5,.21,.77,.07,.02,.14,.04,.21,.06,.69,.21,1.28,.68,1.73,1.39,.45,.71,.63,1.49,.52,2.28-.08,.64-.34,1.25-.75,1.76-.26,.33-.6,.66-1.06,1.03-.29,.23-.67,.57-1.17,1.02-.57,.52-.72,.69-.73,.71-.02,.02-.08,.12-.15,.27-.01,.03-.13,.3-.5,1.45-.32,.99-.54,1.64-.71,2.04-.18,.43-.37,.81-.56,1.15-.22,.38-.45,.7-.68,.96-.4,.46-.84,.77-1.35,.95-.3,.11-.62,.16-.95,.16Zm-12.41-19.27h0Zm2.67-3.57l2.14,1.03-2.14-1.04h0Z" style="fill:#c6c6c6;"/></g><g style="mix-blend-mode:multiply; opacity:.3;"><path d="M131.03,136.24c-.28,0-.62,0-1.04-.02-.68-.03-1.18-.08-1.57-.17-1.67-.39-2.33-1.8-2.12-3,.01-.11,.04-.4,.06-.84,.05-.77,.17-1.47,.35-2.1,.17-.59,.34-1.07,.53-1.49,.25-.53,.51-.96,.83-1.31,.21-.24,.47-.5,.75-.74,.27-.23,.55-.45,.86-.66,.32-.22,.65-.42,.99-.59,.41-.2,.83-.36,1.25-.45,.71-.15,1.44-.08,2.1,.21,.97,.43,1.59,1.3,1.68,2.32,.52,.24,.95,.58,1.29,1.01,.44,.54,.69,1.23,.72,1.96,.01,.38-.02,.83-.11,1.47-.12,.85-.4,1.58-.82,2.18-.4,.58-.79,.97-1.23,1.24-.3,.19-.66,.35-1.07,.49-.38,.12-.86,.22-1.59,.33-.69,.1-1.19,.15-1.58,.16-.09,0-.19,0-.31,0Z" style="fill:#c6c6c6;"/></g><g style="mix-blend-mode:multiply; opacity:.3;"><path d="M163.62,153.74c-.22,0-.43-.01-.64-.04-.7-.08-1.33-.3-1.87-.65-.47-.3-.88-.68-1.22-1.12-.79-1.01-.66-1.96-.5-2.47-.56-1.01-.31-2.3,.63-3.03,.4-.31,.87-.57,1.44-.79,.15-.06,.43-.19,.89-.46,.52-.31,1.08-.62,1.69-.93,.58-.3,1.25-.63,2.01-.99,.78-.37,1.44-.67,1.98-.89,.61-.25,1.14-.43,1.62-.54,.57-.14,.99-.21,1.42-.18,1.81,.16,2.27,1.86,2.51,2.78,.27,1.02,.34,1.39,.37,1.62,.05,.4,.04,.8-.01,1.2-.03,.24-.1,.47-.19,.7,.05,0,.11,0,.17,0,.78,.03,1.9,.16,2.73,.97l.05,.05h0s.08,.05,.09,.05c.92,.55,1.37,1.66,1.08,2.7-.29,1.02-1.34,1.74-2.41,1.74h-.65c-.45,0-1.02-.07-1.75-.19-.65-.11-1.09-.18-1.31-.23-.44-.09-.89-.27-1.39-.54-.32-.17-.59-.33-.83-.46,.03,.02-.01,.01-.06,0-.24-.04-.52-.07-.85-.1-.08,.07-.18,.13-.27,.19-.57,.35-1.19,.66-1.81,.94-.52,.23-1.08,.41-1.67,.53-.42,.08-.84,.12-1.23,.12Zm-1.51-1.29h-.04s.03,0,.04,0Zm14.45-3.55l.04,.02-.04-.02Zm-1.09-.19h0Zm-4.39-2.34h0Z" style="fill:#c6c6c6;"/></g><g style="mix-blend-mode:multiply; opacity:.3;"><path d="M181.81,153.83c-1.29,0-2.35-1.03-2.38-2.33-.03-1.31,1.01-2.4,2.33-2.43l30.63-.66h.05c1.29,0,2.35,1.03,2.38,2.33,.03,1.31-1.01,2.4-2.33,2.43l-30.63,.66h-.05Z" style="fill:#c6c6c6;"/></g><path d="M227.69,74.37c-.34-.28-.77-.51-1.43-.79-.31-.13-.69-.32-1.12-.57-.55-.32-1.18-.66-1.9-1.03-.7-.36-1.39-.71-2.07-1.05-.63-.31-1.25-.64-1.86-.98-.64-.36-1.25-.7-1.83-1.04-.56-.32-1.06-.62-1.52-.91-.39-.25-.92-.54-1.6-.87-.21-.75-.83-1.56-2.02-1.75-.15-.03-.6-.08-1.34-.15-.26-.03-.52-.05-.77-.08-.06-.03-.11-.06-.17-.08-1.12-.56-1.92-.97-2.4-1.23-.57-.31-1.22-.61-1.94-.89-.57-.22-1.03-.41-1.37-.57-.35-.17-.53-.28-.6-.33-.04-.03-.09-.05-.14-.08,.13-.03,.26-.09,.36-.21,.1-.12,.16-.28,.15-.44-.01-.44-.37-.71-.76-.8-.28-.07-.58-.08-.88-.08h0c-.58,0-1.16,0-1.74,.04h-.01c-.83,.04-1.65,.08-2.48,.12-.85,.04-1.7,.08-2.56,.09-.62,0-1.24,0-1.86,0-.72-.01-1.44-.01-2.16-.01-.76,0-1.52,0-2.28,0-.59,0-1.17-.01-1.76,0-.9,.02-1.81,.06-2.71,.1-1.18,.05-2.36,.09-3.54,.11-.77,.02-1.53,.03-2.3,.01-.7-.01-1.4,0-2.09,0-.67,.01-1.35,.03-2.02,.06-.98,.05-1.96,.12-2.94,.19-.97,.07-1.93,.14-2.9,.17-.68,.02-1.35,.02-2.03,.02-.68,0-1.36,0-2.04,0h0c-.56,0-1.12,.02-1.68,.05-.51,.02-1.02,.03-1.53,.03h0c-.5,0-1-.02-1.5-.03-.08-.02-.15-.04-.23-.05-.44-.07-1.09-.12-2.06-.16-.86-.04-1.98-.07-3.36-.11-1.39-.04-3.03-.07-4.92-.09-.97-.01-2,0-3.06,0-.53-.02-1.06-.03-1.59-.04-2.55-.08-5.1-.16-7.66-.24-2.71-.08-5.42-.16-8.12-.23-1.42-.04-2.85-.08-4.27-.08h0c-1.08,0-2.17-.02-3.25,.03-.69,.03-1.38,.05-2.07,.07h0c-.67,.02-1.34,.03-2,.02-.94,0-1.89-.04-2.83-.06-1.38-.04-2.75-.07-4.13-.08-.86-.01-1.74-.06-2.59,.02h0s-.03,0-.04,0c-.18,.02-.36,.03-.54,.04-.1-.16-.2-.31-.33-.44-.5-.53-1.2-.83-1.98-.83-.47,0-.97,.12-1.92,.44-.64,.22-1.35,.47-2.13,.75-.83,.31-1.47,.56-1.96,.79-.48,.22-.95,.46-1.43,.72-.47,.26-1.09,.63-1.88,1.13-.77,.49-1.47,.96-2.11,1.41-.59,.41-1.04,.73-1.37,.95-.3,.2-.62,.4-.97,.6-.36,.21-.86,.48-1.51,.82-.75,.39-1.43,.78-2.01,1.15-.57,.37-1.12,.75-1.65,1.15-.52,.39-.97,.77-1.36,1.12-.5,.45-.89,.89-1.18,1.33-.31,.46-.52,.9-.66,1.35-.13,.42-.2,.85-.22,1.28-.03,.8,.21,1.55,.71,2.17,.58,.73,1.42,1.14,2.35,1.16,.6,0,1.24-.17,2.33-.64,.65-.28,1.28-.54,1.89-.76,.6-.22,1.54-.53,2.82-.92,1.29-.4,2.42-.73,3.41-1,.96-.26,1.62-.44,2.01-.53,.35-.08,.67-.14,.97-.19,.31-.05,.74-.1,1.29-.14,.55-.05,1.04-.08,1.47-.07,.42,0,.85,.03,1.26,.07,.57,.06,1.11,.09,1.59,.1,.51,.01,1.25-.03,2.23-.11,.94-.08,1.81-.16,2.6-.25,.77-.09,1.52-.18,2.24-.27,.75-.1,1.38-.19,1.89-.27,.47-.08,1.01-.17,1.61-.27,.63-.1,1.19-.2,1.66-.29,.44-.08,1.08-.19,1.92-.31,.87-.13,1.7-.25,2.49-.36,.83-.12,1.61-.25,2.33-.39,.79-.16,1.69-.41,2.74-.78,.88-.31,1.5-.52,1.86-.62,.18-.05,.67-.18,1.9-.44,.98-.2,1.9-.38,2.75-.53,.84-.14,1.7-.27,2.59-.38l.83-.11c1.77-.09,3.72-.15,5.79-.18,.91-.01,1.85-.03,2.74-.02,.49,.08,1.12,.18,1.88,.3,1.25,.19,1.85,.31,2.12,.37,.4,.09,.76,.18,1.05,.26,.49,.14,1.04,.23,1.67,.28,.49,.04,1.03,.07,1.63,.09,.64,.02,1.33,0,2.05-.05,.29-.02,.59-.05,.88-.08,.23,.09,.48,.15,.74,.17,.03,0,.15,0,.18,0l1.68,.06c1.12,.04,2.41,.09,3.86,.14,1.45,.06,2.92,.12,4.4,.18,.51,.02,1.06,.04,1.6,.07-.22,.17-.45,.33-.65,.51-.41,.36-.8,.77-1.14,1.2-.37,.46-.67,.96-.92,1.48-.27,.57-.44,1.13-.51,1.67-.07,.49-.08,.93-.04,1.35,.09,.92,.5,1.53,.81,1.87,.46,.5,1.04,.83,1.68,.95,.2,.04,.44,.06,.72,.04,.12,.03,.26,.05,.4,.06,.17,.02,.35,.02,.53,0,.29,.12,.61,.19,.93,.19,.18,0,.35-.02,.53-.06,.78-.18,1.39-.73,1.67-1.42,.95-.57,1.17-.72,1.39-.93,.68-.64,.96-1.69,.65-2.58-.1-.29-.25-.55-.44-.77,.04,0,.07-.01,.1-.02,.01,0,.12-.03,.13-.03l.21-.05c.12-.03,.33-.08,1.96-.62,.8-.26,1.51-.49,2.18-.7,.33,.11,.69,.23,1.09,.35,.7,.21,1.32,.39,1.85,.53,.45,.12,.96,.28,1.52,.47,.52,.18,1.02,.38,1.48,.61,.62,.31,1.26,.58,1.9,.81,.62,.22,1.3,.44,2.05,.64,.72,.2,1.49,.38,2.32,.57,.81,.18,1.91,.39,3.37,.65,1.42,.25,2.51,.44,3.27,.55,.78,.12,1.59,.23,2.44,.33,.85,.1,1.95,.21,3.3,.32,1.35,.11,2.9,.2,4.59,.26,1.64,.06,2.67,.09,3.09,.12,.38,.02,.77,.05,1.16,.08,.23,.02,.71,.09,1.66,.27,.81,.16,1.42,.28,1.83,.38,.46,.1,.89,.19,1.31,.27,.41,.07,1.01,.16,1.82,.27,.7,.09,1.53,.23,2.48,.42,1.06,.21,1.84,.34,2.39,.41,.58,.08,1.05,.12,1.42,.13,.06,0,.12,0,.18,0,.84,0,1.54-.23,2.07-.68,.98-.81,1.03-2.04,1.04-2.45,.06-1.47-.55-2.28-1.06-2.7Zm-128.27-7.07c-.8,.18-1.49,.32-2.06,.44,.36-.25,.75-.49,1.15-.75,.38-.24,.71-.44,.99-.61,.27,.31,.62,.54,1.01,.68-.38,.08-.75,.16-1.09,.24Z" style="fill:#c6c6c6; opacity:.4;"/><g><path d="M44.99,143.45h0c.05,.34,.16,.66,.28,.98,.12,.3,.25,.59,.41,.87h0c.15,.28,.33,.53,.52,.78h0c.21,.28,.43,.54,.67,.78h.01c.25,.27,.54,.5,.84,.7,.34,.23,.7,.43,1.06,.61,.29,.15,.59,.29,.9,.4,.17,.06,.34,.14,.5,.22,.34,.18,.74,.23,1.11,.27,.4,.04,.81,.09,1.21,.14,.28,.03,.56,.07,.83,.14h0c.27,.06,.54,.09,.82,.09h0c.36,0,.71-.06,1.06-.14h0c.45-.1,.88-.25,1.3-.43,.45-.19,.89-.41,1.31-.65,.38-.22,.75-.47,1.07-.78h0c.25-.24,.49-.49,.71-.76,.22-.26,.42-.53,.61-.82,.27-.41,.45-.86,.62-1.32,.17-.45,.33-.9,.48-1.35h0c.11-.34,.2-.68,.25-1.02h0v-.03c.05-.34,.07-.69,.07-1.04,0-.38-.02-.76-.12-1.12-.1-.39-.23-.78-.36-1.17-.12-.37-.25-.74-.43-1.09h0c-.18-.34-.45-.64-.7-.93-.28-.31-.58-.62-.95-.83h0c-.28-.16-.57-.32-.86-.47-.36-.19-.71-.39-1.06-.61-.32-.2-.64-.42-.93-.66-.26-.23-.56-.43-.9-.53,.27,0,.5-.23,.5-.5,0-3.3,0-6.59-.01-9.89,0-1.46,0-2.93-.03-4.39h0c-.02-.85-.06-1.7-.09-2.55-.05-1.12-.06-2.23-.06-3.35,0-.96,0-1.93-.05-2.89h0c-.03-.56-.07-1.11-.11-1.65-.04-.53-.1-1.06-.16-1.58-.13-1.07-.09-2.17-.09-3.24,0-1.16,0-2.32,.04-3.48,.02-.7,.05-1.41,.07-2.11,.05-1.33,.03-2.66,.03-3.99,0-1.43,0-2.87,.04-4.3,.03-.72,.06-1.45,.17-2.17,.12-.71,.2-1.43,.28-2.15h0c.07-.63,.15-1.25,.19-1.87h0c.04-.61,.02-1.22,.02-1.83,0-.61,0-1.22-.07-1.83-.04-.34-.11-.69-.2-1.02-.12-.43-.27-.84-.43-1.26-.15-.38-.31-.83-.63-1.09-.23-.19-.52-.28-.81-.27-.33,0-.65,.15-.93,.31-.3,.17-.59,.4-.77,.7-.19,.31-.33,.64-.47,.97-.19,.47-.35,.95-.48,1.43-.14,.53-.25,1.07-.34,1.62h0c-.07,.44-.14,.87-.17,1.31h0c-.06,.74-.04,1.48-.04,2.21,0,.94,0,1.88-.02,2.82h0c-.04,1.37-.02,2.74-.02,4.1,0,1.33,0,2.66,.04,4h0c.02,1.02,.02,2.03,.02,3.03,0,1,0,2.01,0,3.01,.01,1.51,.01,3.03,.02,4.55,0,1.35,.04,2.71,0,4.06-.02,.47-.04,.94-.06,1.41-.03,.59-.05,1.17-.05,1.76h0c0,.42,0,.83-.04,1.24-.07,.84-.03,1.7-.03,2.55,0,.93,0,1.86-.02,2.79-.02,.46-.03,.93-.05,1.39-.02,.6-.02,1.2-.01,1.8h0c0,.57,.01,1.12,0,1.68-.01,.45-.02,.9-.02,1.35h0c0,.89,0,1.76,0,2.64,0,.84,0,1.69,.05,2.54,.03,.46,.03,.92,.01,1.38v.25c-.11,.1-.17,.24-.13,.39v.03c-.32,.05-.64,.17-.92,.34h-.01c-.24,.15-.47,.3-.7,.45-.15,.1-.3,.19-.47,.26-.3,.13-.55,.35-.78,.57-.26,.25-.52,.5-.75,.78-.23,.27-.44,.56-.62,.86-.13,.23-.27,.45-.42,.66-.13,.19-.25,.4-.35,.61h0c-.12,.26-.19,.53-.26,.81-.07,.3-.13,.59-.16,.9-.06,.6-.04,1.21-.04,1.81,0,.6-.03,1.22,.05,1.82Zm4.24-8.43h0c.21-.16,.42-.29,.64-.42h0c.27-.16,.59-.28,.91-.24,.18,.02,.35-.09,.41-.26,.02-.03,.04-.06,.06-.09,0-.02,.02-.04,.02-.07,0-.03,0-.06,0-.09v-.03s0-.02,0-.02c0,0,0-.02,0-.03h0c0-.29-.02-.58-.03-.87-.02-.48-.04-.95-.07-1.43h0c-.06-.83-.04-1.67-.04-2.5,0-.87,0-1.75,.03-2.62,.01-.45,.03-.9,.05-1.35,.02-.56,.04-1.13,.04-1.69,0-.59,.03-1.17,.07-1.76,.04-.47,.07-.93,.1-1.4,.06-.94,.05-1.89,.05-2.83,0-.82-.04-1.65,.03-2.47,.04-.43,.04-.87,.05-1.3,.01-.57,.04-1.15,.08-1.72h0c.04-.48,.07-.95,.09-1.43,.07-1.36,.04-2.74,.04-4.1,0-1.52,.02-3.04,0-4.55h0c-.01-1-.02-2-.02-3,0-1.01,0-2.02,0-3.03,0-1.33,0-2.66,.01-4,0-1.36,0-2.71,.05-4.07,.03-.95,.05-1.89,.06-2.84,.01-.7,0-1.41,.07-2.11,.04-.41,.1-.82,.17-1.23,.08-.51,.18-1.02,.3-1.53,.1-.44,.22-.88,.38-1.3,.11-.29,.22-.58,.36-.86,.08-.15,.23-.26,.36-.35,.13-.09,.29-.19,.45-.2,.06,0,.11,0,.15,.04,.04,.03,.08,.12,.11,.17,.1,.17,.17,.35,.24,.52,.15,.38,.3,.76,.41,1.15,.08,.29,.14,.59,.18,.89,.07,.57,.06,1.15,.07,1.72,0,.59,.02,1.18-.02,1.76-.04,.61-.12,1.21-.2,1.81-.09,.7-.18,1.41-.31,2.11-.13,.75-.17,1.53-.2,2.29-.06,1.45-.07,2.89-.07,4.34,0,1.32,0,2.63-.06,3.95-.03,.71-.05,1.41-.08,2.12h0c-.04,1.17-.03,2.35-.03,3.52h0c0,1.11-.04,2.26,.12,3.36h0c.07,.52,.13,1.03,.18,1.55,.05,.53,.09,1.07,.11,1.6,.04,.95,.04,1.9,.04,2.85,0,1.13,.02,2.26,.07,3.39h0c.04,.85,.08,1.69,.1,2.53h0c.04,1.46,.03,2.91,.04,4.37,.01,3.3,.01,6.59,.01,9.89,0,.22,.14,.4,.34,.47-.3-.03-.58,.17-.64,.47-.06,.31,.13,.62,.44,.7,.18,.05,.35,.2,.48,.31h0c.34,.29,.72,.53,1.11,.73h0s.02,.01,.04,.02c.38,.2,.77,.39,1.16,.57,.28,.13,.55,.26,.82,.41,.27,.15,.5,.39,.71,.61,.2,.21,.43,.44,.57,.7,.16,.3,.26,.62,.37,.94,.13,.37,.25,.73,.36,1.1h0c.08,.28,.1,.57,.11,.86,0,.29,0,.59-.07,.88-.06,.3-.15,.58-.25,.87-.16,.45-.33,.89-.49,1.33-.14,.39-.3,.78-.52,1.13-.16,.25-.33,.49-.52,.72-.2,.24-.41,.46-.64,.67-.27,.25-.57,.45-.89,.64-.39,.22-.79,.42-1.2,.59-.37,.15-.74,.29-1.13,.37-.27,.06-.55,.11-.83,.11-.2,0-.41-.02-.6-.07-.31-.07-.62-.11-.93-.15h-.01c-.42-.05-.84-.07-1.26-.09-.24-.01-.55,0-.77-.12h0c-.2-.1-.4-.18-.61-.26h0c-.28-.1-.55-.23-.81-.35-.33-.16-.66-.33-.97-.54-.25-.17-.49-.36-.69-.58-.21-.23-.41-.47-.6-.72h0c-.16-.22-.32-.44-.45-.68-.14-.25-.25-.51-.35-.78-.1-.25-.19-.51-.23-.77-.08-.55-.05-1.13-.04-1.69,0-.57-.02-1.16,.03-1.73,.02-.26,.07-.51,.14-.76,.05-.22,.11-.44,.21-.65,.07-.16,.16-.31,.27-.46h0c.17-.23,.32-.48,.46-.72h0c.16-.26,.33-.52,.52-.75h0c.2-.26,.42-.5,.66-.73,.16-.16,.34-.34,.54-.46,.19-.11,.37-.23,.55-.35h0Z" style="fill:#4d4d4d;"/><path d="M68.65,138.44c-.14-.48-.29-.96-.47-1.43-.19-.49-.46-.95-.73-1.4-.3-.5-.61-.99-.98-1.44-.3-.36-.59-.73-.87-1.1-.25-.32-.5-.65-.8-.93-.23-.23-.5-.42-.77-.59-.22-.14-.42-.31-.6-.5-.26-.27-.52-.53-.79-.78h0c-.28-.27-.56-.53-.85-.78-.31-.27-.63-.51-.98-.73-.05-.03-.11-.07-.16-.1,.07-.08,.12-.18,.14-.29h0c.01-.1,.02-.19,.03-.28,.11,0,.23,0,.34-.01,.4-.03,.81-.07,1.21-.07,.28,0,.57,.04,.85,.09h0c.51,.08,1.04,.07,1.56,.07,.91,0,1.81-.03,2.72-.07,.34-.01,.6-.3,.58-.64-.01-.34-.3-.6-.64-.58h0c-.89,.05-1.78,.09-2.67,.11-.46,0-.93,.03-1.39-.03h0c-.33-.04-.67-.07-1-.06h-.02c-.44,0-.88,.07-1.32,.13-.05,0-.1,.02-.15,.02,.01-.25,.02-.49,0-.74h0c-.05-.67-.04-1.33-.04-2,0-.85,0-1.69-.03-2.54h0c0-.37,0-.74-.01-1.12,0,0,.02,0,.03,0,.6-.24,1.31-.27,1.95-.31,.27-.02,.47-.25,.46-.52-.02-.27-.25-.47-.52-.46-.62,.04-1.32,.1-1.92,.33,0-1.05,0-2.1,0-3.16h0c0-.66,0-1.31,0-1.97h.09c.27,0,.55-.01,.82-.03,.42-.02,.84-.03,1.26-.03,.38,0,.88-.01,1.22,.19,.29,.18,.67,.08,.84-.2,.17-.27,.1-.63-.16-.81-.54-.39-1.26-.46-1.91-.45-.44,0-.88,.03-1.31,.09h0s-.03,0-.05,0c-.25,.03-.55,.08-.8,.2,0-.78,0-1.56,.03-2.34,.02-.61,.04-1.23,.07-1.84,.02-.48,.04-.97,.06-1.45,0-.19,0-.38,0-.57,.11,.04,.24,.04,.35-.02,.46-.23,.96-.36,1.47-.43,.28-.04,.48-.31,.44-.59-.04-.28-.31-.48-.59-.44-.59,.09-1.16,.27-1.66,.6,0-.06,0-.11,0-.17,0-.66,.03-1.31,.07-1.97h0c.03-.51,.07-1.02,.13-1.52,.07-.56,.05-1.14,.05-1.7,0-.55,0-1.09,0-1.64,.81,.06,1.61,.12,2.42,.17,.31,.02,.59-.21,.61-.53,.02-.31-.21-.59-.53-.61-.02,0-.05,0-.07,0l-2.42,.14c0-.47,0-.94,0-1.41,0-1.77,0-3.54,0-5.31,.6-.08,1.2-.13,1.8-.16,.31-.02,.55-.28,.53-.59-.02-.31-.28-.55-.58-.53-.59,.03-1.17,.12-1.74,.25,0-.51,0-1.02,.03-1.53h0c.04-.93,.03-1.87,.04-2.8,0-.64,0-1.28,0-1.91h0s.03,0,.04,0c.03,0,.05,0,.08-.01,.01,0,.02,0,.03,0,.17-.03,.34-.07,.51-.1h.02c1.05-.26,2.07-.6,3.1-.92,.32-.1,.5-.44,.4-.76-.1-.32-.44-.5-.76-.4-1.03,.32-2.09,.62-3.08,1.05h-.02c-.11,.06-.21,.11-.32,.17l-.05-1.61c-.02-.62-.04-1.25-.03-1.87,0-.48-.02-.97-.05-1.45-.05-.71-.18-1.42-.32-2.12-.12-.58-.24-1.15-.33-1.73-.04-.28-.09-.57-.17-.85-.09-.31-.24-.61-.39-.9-.2-.37-.46-.72-.76-1.01-.34-.33-.74-.61-1.14-.87-.31-.2-.68-.49-1.06-.54-.36-.05-.74-.01-1.1,0-.42,.01-.85,.02-1.26,.11-.29,.06-.59,.07-.88,.09-.41,.02-.83,.06-1.24,.14-.47,.1-.92,.31-1.35,.53-.4,.21-.81,.43-1.16,.74-.28,.24-.51,.53-.73,.83-.26,.36-.48,.75-.68,1.14-.23,.45-.45,.91-.65,1.38-.19,.43-.37,.87-.49,1.33-.1,.38-.18,.75-.25,1.14-.08,.41-.14,.82-.15,1.24h0c-.02,.43-.07,.86-.12,1.28-.05,.41-.11,.82-.13,1.23-.03,.48-.04,.96-.06,1.44-.02,.68-.05,1.37-.09,2.05-.03,.55-.06,1.11-.06,1.66h0c0,.44-.01,.87-.03,1.3-.03,.65-.05,1.31-.07,1.96-.02,.66-.04,1.31-.07,1.97-.03,.7-.02,1.4-.02,2.1,0,1.58,0,3.15,0,4.73,0,1.56,0,3.11,.02,4.67,0,.63,0,1.27,.03,1.91h0v.02c.03,.44,.06,.87,.1,1.31h0c.05,.55,.09,1.08,.11,1.62,.03,.66,.05,1.33,.06,1.99,.01,.78,.03,1.55,.06,2.33h0v.02c.03,.82,.09,1.64,.16,2.46h0c.09,1.09,.12,2.18,.13,3.26,.01,.89,.04,1.78-.02,2.67-.02,.39-.04,.78-.05,1.18h0v.02c0,.52-.02,1.04-.04,1.56-.02,.52-.04,1.04-.03,1.56,.01,.36,0,.73,0,1.09,0,.41-.02,.82-.05,1.23h0c-.06,.68-.11,1.36-.15,2.04-.01,.22,.15,.41,.37,.42,.22,.01,.41-.15,.42-.37,.04-.67,.09-1.34,.18-2h0c.06-.43,.1-.86,.12-1.29,.02-.37,.04-.74,.05-1.12,.02-.5,.05-1.01,.08-1.51,.03-.53,.07-1.05,.09-1.58,.01-.38,.05-.76,.08-1.13,.09-.91,.08-1.84,.1-2.76,.01-1.12,0-2.25-.08-3.36h0c-.06-.8-.11-1.6-.12-2.4-.01-.77-.02-1.55-.03-2.32,0-.68-.02-1.37-.05-2.05-.03-.55-.06-1.1-.1-1.65h0c-.03-.42-.06-.85-.07-1.28-.02-.62,0-1.25,0-1.87,0-1.55,0-3.11,0-4.66,0-1.57,0-3.15,.02-4.72,0-.68,0-1.36,.03-2.04,.03-.66,.05-1.32,.08-1.98,.03-.65,.05-1.29,.08-1.94,.02-.45,.04-.91,.04-1.36,0-.53,.03-1.05,.07-1.58,.05-.7,.08-1.4,.1-2.1h0c.02-.47,.03-.93,.05-1.4,.02-.38,.08-.75,.13-1.12,.06-.47,.12-.93,.14-1.4,.02-.34,.06-.69,.13-1.03,.07-.35,.14-.71,.23-1.05,.09-.38,.24-.74,.4-1.1,.19-.44,.39-.88,.61-1.31,.17-.34,.35-.67,.57-.98,.15-.22,.32-.44,.51-.64,.23-.23,.55-.39,.83-.54,.32-.17,.65-.34,1-.43,.33-.08,.68-.12,1.02-.14,.36-.03,.72-.05,1.07-.13h.01c.32-.07,.67-.05,.99-.05,.28,0,.56,.01,.84,.02,.2,.07,.4,.23,.57,.34,.33,.21,.65,.43,.93,.7h0c.2,.2,.37,.43,.51,.67,.11,.2,.22,.41,.28,.63h0c.06,.23,.1,.46,.14,.69,.1,.6,.23,1.19,.35,1.79h0c.14,.65,.27,1.31,.34,1.97,.05,.45,.08,.89,.08,1.34,0,.64,.03,1.27,.06,1.91h0c.03,.63,.05,1.25,.1,1.86,.07,.86,.05,1.73,.05,2.59,0,.92,.02,1.84-.02,2.75-.03,.61-.04,1.22-.05,1.83-.03,2.03-.02,4.05-.02,6.08,0,1.29,0,2.58-.01,3.87,0,.53,.01,1.07-.03,1.6-.04,.52-.08,1.04-.11,1.57-.04,.68-.07,1.36-.07,2.03h0c0,.54,0,1.08,0,1.61,0,.47-.02,.94-.05,1.41-.04,.62-.06,1.24-.08,1.86-.06,1.79-.04,3.59-.05,5.39,0,1.75-.02,3.5,.01,5.26,.02,.84,.02,1.68,.01,2.52,0,.69-.02,1.39,.03,2.07h0c.02,.28,0,.56-.01,.84-.08,.01-.15,.02-.23,.04-.21,.04-.35,.24-.31,.46,.01,.07,.05,.14,.1,.19,0,0-.02,0-.03,0-.3,.12-.48,.44-.42,.76,.07,.37,.22,.74,.54,.96,.03,.02,.06,.05,.09,.07,.19,.1,.37,.22,.55,.34,.28,.17,.55,.37,.8,.58,.27,.24,.54,.48,.81,.73,.26,.25,.53,.49,.79,.74,.26,.25,.55,.48,.85,.67h0c.19,.13,.38,.26,.55,.42,.25,.23,.46,.5,.67,.77h0c.3,.38,.6,.75,.92,1.11h.01c.33,.4,.61,.82,.87,1.26,.24,.4,.48,.81,.68,1.23,.19,.41,.33,.85,.47,1.28,.14,.44,.27,.89,.34,1.35h0c.06,.4,.08,.8,.08,1.2,0,.35,0,.71-.02,1.06-.02,.28-.07,.56-.14,.83-.09,.4-.21,.78-.34,1.17-.15,.43-.31,.85-.51,1.26-.25,.52-.54,1.01-.84,1.5h0c-.31,.51-.62,1.01-.96,1.49-.24,.34-.49,.68-.76,1-.22,.27-.45,.53-.7,.78-.27,.28-.54,.56-.81,.84-.26,.28-.53,.55-.81,.8-.2,.18-.41,.37-.65,.51-.29,.17-.6,.31-.9,.45-.51,.23-1.04,.43-1.57,.61-.41,.14-.84,.31-1.27,.37-.43,.07-.86,.19-1.27,.32-.45,.14-.91,.25-1.38,.33-.62,.1-1.26,.08-1.88,.07-.62-.01-1.28-.02-1.88-.2-.48-.14-.98-.24-1.47-.31-.28-.04-.59-.07-.85-.19h0c-.25-.11-.51-.19-.77-.24h-.02c-.25-.05-.48-.15-.71-.26h0c-.36-.16-.71-.33-1.07-.49h0c-.31-.14-.62-.31-.89-.52-.26-.2-.51-.4-.75-.61-.24-.22-.5-.42-.77-.58h0c-.18-.11-.34-.23-.5-.38h0c-.29-.28-.55-.6-.81-.91-.26-.31-.53-.62-.75-.96-.18-.29-.33-.59-.48-.89h0c-.19-.37-.35-.76-.48-1.15-.17-.5-.27-1.03-.36-1.55-.1-.57-.17-1.16-.18-1.74,0-.72,.01-1.45,.03-2.17,.02-.63,.03-1.26,.08-1.88,.03-.32,.06-.64,.11-.97,.06-.42,.15-.83,.24-1.24,.14-.64,.33-1.27,.54-1.9,.18-.54,.35-1.1,.61-1.61,.2-.41,.44-.79,.69-1.17,.14-.22,.3-.47,.3-.74,0-.36-.3-.56-.63-.55-.22,.01-.39,.2-.38,.41,0,.08,.03,.15,.07,.21-.03,.03-.06,.07-.08,.1-.34,.38-.66,.79-.9,1.24-.3,.55-.5,1.16-.7,1.75-.22,.66-.42,1.32-.57,2h0c-.09,.44-.19,.88-.25,1.32h0c-.05,.34-.08,.68-.12,1.02-.06,.64-.09,1.29-.12,1.93-.04,.74-.07,1.47-.08,2.21,0,.65,.06,1.3,.16,1.93,.09,.59,.2,1.17,.39,1.74,.15,.45,.33,.89,.54,1.31h0c.17,.34,.34,.67,.54,.98h0c.25,.4,.55,.75,.85,1.1,.29,.34,.58,.69,.91,.99h0l.02,.02c.21,.19,.44,.35,.68,.5h0c.21,.13,.41,.29,.6,.46,.26,.24,.54,.46,.82,.67h0c.34,.26,.72,.47,1.11,.65h0c.35,.16,.71,.32,1.06,.49,.31,.15,.64,.28,.98,.35,.18,.04,.36,.09,.53,.17,.37,.17,.78,.23,1.18,.28,.44,.06,.88,.15,1.31,.27,.7,.2,1.46,.22,2.19,.23,.69,0,1.39,0,2.07-.12h.03c.5-.1,1-.24,1.49-.39h0c.38-.12,.75-.24,1.14-.31,.49-.09,.96-.26,1.43-.41,.57-.18,1.14-.39,1.68-.64h0c.34-.16,.69-.31,1.01-.5,.3-.18,.57-.4,.83-.64,.3-.27,.6-.56,.88-.86,.26-.27,.53-.55,.79-.81,.28-.28,.54-.57,.78-.87,.28-.34,.54-.7,.79-1.06h0c.35-.51,.68-1.04,.99-1.57h0c.31-.52,.61-1.05,.88-1.6,.22-.45,.4-.91,.57-1.37,.15-.42,.29-.84,.4-1.27,.08-.33,.15-.66,.18-.99,.04-.38,.05-.77,.05-1.16,0-.45,0-.91-.06-1.36-.06-.53-.2-1.05-.35-1.56Z" style="fill:#4d4d4d;"/><path d="M78.82,76.89c.5-.27,.96-.63,1.41-.98h0c.54-.41,1.11-.8,1.67-1.19,.54-.37,1.08-.74,1.6-1.14,.4-.3,.78-.62,1.16-.95,.41-.35,.84-.69,1.28-1,.58-.42,1.17-.82,1.77-1.22,.8-.54,1.61-1.07,2.42-1.59h0c.57-.37,1.15-.74,1.74-1.08,.34-.19,.68-.38,1.03-.55,.38-.19,.76-.38,1.14-.56h0c.52-.25,1.03-.54,1.53-.82h0c.36-.21,.74-.4,1.11-.6,.02,.04,.04,.08,.07,.11-.11,.08-.22,.16-.33,.24-.5,.37-1,.75-1.5,1.12-.5,.38-.97,.8-1.43,1.23-.44,.42-.89,.84-1.32,1.26h0c-.31,.3-.61,.62-.89,.97-.22,.28-.43,.58-.52,.92-.06,.21-.11,.42-.12,.63-.02,.39,.27,.7,.56,.92,.3,.23,.64,.39,1,.47,.28,.06,.56,.11,.84,.12,.4,.01,.81-.08,1.2-.17,.47-.1,.94-.22,1.4-.37,.35-.11,.7-.21,1.06-.28,.32-.07,.65-.11,.98-.12,.42-.02,.84,0,1.27,.02,.21,.01,.54,.01,.73,.14,.17,.12,.32,.28,.45,.45,.2,.26,.29,.62,.36,.93,.13,.61,.15,1.25,.14,1.87-.01,.52-.02,1.09-.19,1.59-.13,.38-.28,.76-.45,1.13-.18,.4-.35,.81-.51,1.23h0c-.15,.4-.28,.81-.41,1.21h0c-.11,.36-.22,.72-.29,1.08h0c-.1,.49-.13,.98-.16,1.47-.03,.52-.07,1.09,.07,1.6,.09,.33,.21,.65,.36,.95,.2,.41,.45,.8,.69,1.19,.25,.39,.48,.78,.69,1.18h0c.24,.47,.45,.95,.65,1.43h0c.21,.5,.43,1,.7,1.48h0c.21,.38,.46,.74,.71,1.08,.25,.34,.52,.68,.8,1h0c.16,.19,.33,.38,.48,.58,.23,.31,.61,.49,.96,.64,.36,.15,.7,.34,1.03,.54,.31,.19,.6,.41,.87,.66,.32,.3,.67,.57,1.03,.83,.36,.26,.7,.53,1.03,.83h0c.31,.28,.62,.55,.96,.78h0c.35,.24,.72,.44,1.1,.63h0c.3,.15,.6,.3,.86,.52,.3,.26,.64,.47,.98,.67,.27,.15,.51,.36,.69,.61h0c.2,.28,.42,.58,.71,.77,.36,.25,.86,.28,1.29,.3h0c.39,.02,.82,.06,1.2-.05,.14-.04,.27-.11,.39-.19,0,.21,0,.43-.03,.64-.03,.37-.12,.74-.25,1.09-.13,.34-.27,.67-.44,.99-.23,.42-.51,.81-.79,1.19-.35,.48-.69,.96-.99,1.47-.21,.35-.41,.7-.57,1.08-.17,.4-.23,.86-.26,1.29-.03,.44-.04,.9,.11,1.32,.11,.32,.3,.61,.54,.86,.25,.26,.57,.45,.9,.6,.35,.15,.7,.29,1.06,.4,.3,.1,.59,.22,.85,.39h0c.39,.25,.8,.46,1.21,.66h0c.31,.15,.64,.31,.89,.54,.23,.21,.42,.47,.58,.73,.17,.26,.35,.53,.46,.82h0c.08,.2,.12,.41,.14,.63,.06,.67,0,1.37-.02,2.04-.03,.79-.05,1.58-.13,2.36-.05,.48-.15,.96-.28,1.43h0c-.19,.67-.32,1.35-.43,2.04-.14,.87-.22,1.76-.27,2.64-.03,.67-.09,1.36,0,2.03,.07,.5,.18,1,.29,1.49h0c.1,.44,.18,.89,.35,1.31h0c.12,.3,.28,.58,.45,.85,.19,.3,.37,.61,.53,.93,.25,.48,.56,.92,.88,1.35h0c.29,.39,.59,.81,.96,1.13,.26,.22,.53,.43,.8,.62,.36,.26,.77,.45,1.2,.57h0c.2,.06,.42,.1,.6,.2,.24,.12,.51,.17,.78,.16,.09,0,.18-.03,.26-.07,.42-.15,.69-.58,.87-.97,.21-.45,.38-.93,.43-1.42,.06-.59-.03-1.2-.14-1.77-.09-.52-.18-1.04-.2-1.57-.01-.34-.02-.69-.01-1.03,0-.28,.06-.57,.12-.84,.06-.23,.13-.47,.26-.68,.31-.5,.74-.95,1.13-1.39h0c.54-.63,1.07-1.25,1.58-1.9h.01c.39-.51,.77-1.01,1.14-1.53h0c.28-.38,.56-.77,.87-1.12,.23-.27,.48-.53,.73-.78,.32-.32,.64-.65,.94-.98h0c.36-.4,.75-.78,1.14-1.15,.37-.34,.74-.72,.99-1.16h0c.15-.27,.27-.56,.36-.85h0c.14-.45,.16-.94,.19-1.41,.03-.48,.05-.95,.06-1.43,0-.12,.02-.26,.11-.35,.2-.23,.44-.42,.68-.61h0c.26-.2,.52-.4,.75-.64h0l.02-.02c.2-.22,.35-.48,.46-.75,.17-.4,.23-.84,.25-1.27,.02-.39,.04-.82-.09-1.2-.12-.36-.33-.69-.53-1-.21-.33-.42-.66-.62-1-.23-.38-.53-.72-.9-.97h0c-.39-.27-.83-.45-1.27-.6h0c-.5-.17-1.03-.27-1.55-.31h-.02c-.31-.02-.64-.05-.94-.12h0c-.16-.04-.31-.1-.45-.19h0c-.24-.16-.45-.34-.67-.52-.28-.24-.57-.47-.88-.67-.24-.15-.45-.34-.66-.53-.29-.28-.59-.56-.89-.83-.21-.19-.42-.4-.58-.63-.22-.32-.48-.61-.76-.88-.36-.36-.7-.73-1.04-1.1-.42-.46-.89-.9-1.42-1.24-.41-.26-.83-.51-1.28-.72-.35-.16-.7-.32-1.08-.41-.56-.13-1.16-.14-1.74-.17-.94-.05-1.88,.16-2.71,.61h0c-.37,.2-.5,.65-.3,1.02,.19,.35,.62,.49,.98,.33,.61-.28,1.29-.41,1.96-.37,.48,.02,.99,.02,1.45,.12,.27,.06,.53,.18,.77,.29,.38,.18,.75,.39,1.1,.61,.42,.27,.78,.61,1.12,.97,.36,.39,.73,.77,1.12,1.13h0l.02,.02c.2,.19,.41,.39,.56,.62,.22,.33,.51,.62,.81,.89h0c.29,.27,.58,.54,.87,.81,.27,.26,.56,.5,.88,.7h0c.26,.16,.5,.35,.73,.55h0c.26,.22,.52,.44,.81,.62h0c.26,.17,.55,.3,.86,.39,.4,.12,.81,.16,1.23,.2,.41,.04,.82,.12,1.21,.25,.31,.1,.62,.23,.89,.41,.19,.13,.34,.3,.45,.5,.21,.35,.43,.7,.66,1.03h0v.02c.16,.21,.32,.43,.41,.67h0c.07,.18,.04,.45,.04,.65,0,.25-.01,.53-.11,.76-.05,.12-.11,.24-.2,.34h0c-.18,.19-.4,.34-.61,.49-.32,.24-.63,.49-.9,.79-.32,.35-.46,.82-.46,1.29h0s0,.02,0,.03c0,.46,0,.92-.02,1.38,0,.34,0,.72-.1,1.05-.06,.21-.16,.41-.26,.6-.17,.31-.47,.58-.72,.82-.42,.39-.82,.79-1.21,1.21-.29,.31-.58,.63-.89,.93-.28,.27-.55,.56-.81,.86h0c-.33,.39-.64,.8-.94,1.22-.36,.49-.73,.97-1.12,1.44-.52,.63-1.05,1.24-1.58,1.86-.44,.5-.91,1-1.27,1.57h0c-.21,.33-.35,.71-.45,1.09-.1,.38-.16,.76-.17,1.15-.01,.38,0,.75,.04,1.13h0v.03c.05,.59,.17,1.18,.29,1.75,.1,.46,.21,.95,.19,1.42-.01,.35-.13,.69-.27,1h0c-.04,.1-.09,.19-.15,.28,0,0-.01,0-.02,0-.27-.16-.58-.24-.88-.32-.29-.08-.56-.21-.8-.38-.24-.17-.48-.35-.71-.55h0c-.3-.26-.53-.6-.76-.91-.28-.38-.55-.77-.77-1.19-.18-.34-.38-.68-.58-1.01h0c-.13-.21-.26-.42-.35-.64-.14-.35-.21-.75-.29-1.12-.1-.46-.2-.92-.27-1.39-.08-.58-.03-1.2,0-1.79,.03-.83,.11-1.67,.24-2.49h0c.1-.64,.22-1.28,.4-1.9,.15-.54,.26-1.08,.32-1.64,.08-.81,.1-1.63,.13-2.45h0c.02-.73,.07-1.47,0-2.2h0c-.04-.34-.11-.67-.23-.97-.15-.37-.36-.71-.57-1.04-.23-.35-.48-.71-.8-.99h0c-.34-.31-.76-.53-1.17-.73-.37-.18-.74-.37-1.08-.6-.35-.23-.74-.4-1.14-.53h0c-.32-.1-.64-.22-.95-.35h0c-.19-.08-.37-.19-.52-.33-.11-.11-.2-.25-.25-.4-.09-.26-.07-.57-.05-.84,.02-.3,.04-.63,.15-.91,.13-.33,.3-.63,.48-.93,.28-.48,.59-.95,.9-1.41,.29-.43,.59-.86,.82-1.33h0v-.02c.19-.37,.33-.76,.45-1.16,.13-.43,.19-.87,.2-1.32h0s0-.03,0-.04c0-.38-.01-.75-.07-1.13h0v-.03c-.03-.17-.09-.33-.17-.48,0-.04,.03-.08,.03-.12,0-.09,0-.18-.04-.26-.1-.32-.4-.53-.71-.65-.27-.11-.53-.28-.77-.44-.13-.09-.27-.19-.36-.32-.05-.27,0-.58,0-.84,.02-.48,.04-.98-.06-1.45-.08-.34-.21-.66-.42-.94h0v-.02c-.23-.29-.54-.52-.9-.61h0c-.13-.03-.26-.04-.39-.05,.02-.05,.04-.11,.07-.16,.15-.3,.28-.6,.4-.92h0v-.02c.08-.21,.14-.44,.17-.66,.02-.08,.03-.15,.02-.23-.04-.42-.36-.71-.72-.89h0c-.33-.18-.7-.26-1.08-.25-.41,0-.81,.09-1.21,.19-.38,.1-.77,.21-1.12,.4-.06,.03-.13,.05-.19,.07-.07-.23-.16-.47-.16-.71,0-.06,.02-.11,.05-.16,.04-.07,.13-.14,.19-.19,.17-.14,.34-.28,.52-.4,.37-.26,.74-.52,1.14-.74,.31-.17,.64-.29,.98-.4,.38-.12,.78-.16,1.18-.17,.27,0,.55-.02,.83,0,.09,.03,.17,.09,.25,.16h0c.15,.14,.27,.31,.35,.5,.05,.12,.11,.24,.13,.37v.07s.01,.07,.02,.1c0,.05,.01,.09,.03,.14,.02,.04,.04,.08,.06,.12,.02,.04,.04,.08,.07,.11,.03,.03,.07,.06,.1,.08,.04,.03,.07,.05,.11,.07,.04,.02,.09,.03,.13,.04,.03,0,.06,.03,.1,.03,.01,0,.03,0,.04,0,.01,0,.02,0,.03,0,.02,0,.04-.01,.06-.01,.06,0,.11-.01,.17-.03,.03-.01,.06-.02,.09-.04,.04-.02,.08-.04,.11-.07h.01v-.02s.05-.04,.07-.06c.03-.03,.05-.06,.07-.09,.01-.02,.02-.04,.03-.06,.01-.02,.02-.04,.03-.06v-.02l.05-.14h0c.02-.13,.04-.25,.05-.36,.05-.34,.2-.67,.32-.98,.18-.47,.38-.94,.59-1.39,.21-.45,.44-.89,.69-1.31,.22-.38,.45-.75,.71-1.09,.24-.31,.51-.59,.79-.85,.3-.28,.59-.57,.86-.88,.16-.19,.34-.36,.52-.53,.35-.31,.78-.55,1.17-.8,.52-.33,1.06-.66,1.61-.93,.62-.31,1.22-.67,1.81-1.04,.5-.31,1-.62,1.47-.97,.38-.28,.72-.62,1.05-.95,.32-.32,.67-.61,1.07-.83,.32-.18,.66-.35,1.01-.47,.3-.1,.61-.17,.93-.22h0c.44-.06,.9-.2,1.19-.55,.25-.3,.36-.69,.41-1.07h0c.07-.5-.07-1-.34-1.43-.22-.34-.49-.66-.8-.92h0s-.02-.03-.03-.04c-.13-.1-.21-.23-.24-.39-.06-.35-.18-.7-.39-.99-.23-.31-.56-.51-.94-.58-.44-.08-.88,.07-1.26,.29h0c-.18,.1-.39,.19-.6,.2-.11,0-.22-.12-.28-.2-.15-.17-.3-.36-.36-.57h0c-.1-.32-.25-.63-.49-.86,0,0,0-.02-.02-.02h0c-.17-.16-.35-.29-.55-.4,0,0-.01-.01-.02-.02h-.01c-.24-.13-.51-.19-.77-.21h0c-.18-.01-.37,.02-.54,.07,.03-.03,.06-.06,.09-.1,.25-.31,.51-.62,.69-.97,.19-.38,.22-.85,.26-1.27,.06-.71-.21-1.39-.78-1.84h0c-.29-.24-.6-.48-.92-.67h0l-.02-.02c-.32-.18-.68-.26-1.04-.29h-.01c-.4-.04-.81,0-1.2,.13h-.03c-.34,.13-.67,.27-.99,.44-.33,.18-.68,.32-1.04,.46-.34,.13-.69,.25-1.05,.33-.58,.13-1.19,.19-1.78,.26-.73,.09-1.46,.18-2.18,.28h-.01c-.46,.07-.93,.12-1.39,.14-.5,.02-1.01,0-1.51-.02h0c-.49-.02-.98-.05-1.47-.13-.42-.07-.82-.21-1.21-.38h0c-.52-.22-1.06-.4-1.61-.5-.55-.11-1.1-.18-1.66-.23h0c-.49-.05-.97-.13-1.44-.27-.53-.16-1.08-.29-1.62-.41-.49-.1-.99-.21-1.47-.33-.73-.17-1.5-.2-2.25-.23-.2,0-.39,0-.59,0,.09-.04,.18-.09,.27-.13,.42-.18,.84-.35,1.27-.51,.44-.16,.88-.33,1.31-.51,.41-.17,.82-.35,1.22-.55,.28-.15,.57-.29,.86-.41,.12-.05,.25-.1,.38-.12h0c.31,.1,.64-.07,.74-.39,.07-.23,0-.48-.19-.63-.4-.34-.98-.18-1.41,0-.32,.13-.64,.29-.95,.45h0c-.37,.19-.74,.36-1.12,.51-.42,.17-.84,.33-1.27,.49h0c-.45,.16-.89,.33-1.34,.52-.69,.29-1.36,.63-2.02,.97-.76,.39-1.51,.78-2.25,1.2-.48,.27-.96,.53-1.46,.76-.4,.18-.79,.37-1.18,.57-.36,.18-.72,.37-1.08,.56-.62,.34-1.22,.73-1.82,1.11-.82,.53-1.64,1.06-2.45,1.61h0c-.6,.41-1.2,.83-1.78,1.26h-.01c-.46,.35-.89,.72-1.31,1.1h0l-.02,.02c-.36,.32-.72,.65-1.08,.96-.48,.41-.99,.79-1.49,1.17h0c-.55,.42-1.11,.84-1.62,1.31h0l-.02,.02c-.41,.37-.82,.74-1.23,1.1-.16,.15-.17,.39-.03,.55,.12,.13,.32,.17,.48,.08Zm21.14-11.72c.66,.02,1.35,.03,2,.17,.5,.11,1.01,.21,1.51,.31,.51,.1,1.02,.22,1.51,.37h0c.55,.16,1.12,.26,1.69,.32,.51,.05,1.03,.12,1.54,.22,.46,.09,.92,.23,1.35,.41h0c.49,.2,.99,.37,1.51,.45h0c.53,.09,1.08,.12,1.62,.15,.54,.02,1.08,.04,1.62,.02,.51-.02,1.01-.06,1.52-.13,.73-.09,1.45-.18,2.18-.26,.64-.08,1.28-.14,1.91-.28,.43-.09,.84-.23,1.25-.39,.4-.16,.8-.33,1.18-.53h0c.25-.14,.52-.25,.79-.34,.21-.07,.44-.09,.67-.06,.16,.02,.34,.04,.48,.12,.28,.17,.53,.38,.78,.58,.2,.16,.28,.38,.26,.64-.02,.27-.05,.55-.13,.79-.13,.25-.33,.47-.5,.69-.26,.33-.57,.62-.92,.85h0c-.36,.24-.74,.46-1.13,.66-.35,.18-.71,.34-1.08,.46-.35,.12-.71,.25-1.04,.42h0c-.4,.2-.73,.54-.78,1,0,.01,0,.02,0,.03h0c-.02,.3,.04,.59,.14,.86h0c.09,.25,.2,.49,.34,.72h0v.02h0c.19,.29,.44,.54,.7,.77h0c.2,.18,.38,.38,.52,.61h0c.29,.49,.81,.73,1.36,.72h.02c.33,0,.7-.05,.97-.25,.07-.04,.13-.09,.18-.16h0c.06-.08,.09-.16,.11-.25,.05-.14,.08-.29,.09-.44,.03-.3,.04-.61,.06-.91,.02-.44,0-.91,.1-1.34,.03-.13,.08-.26,.15-.37,.15-.22,.37-.39,.57-.56,.23-.19,.47-.38,.74-.5,.1-.05,.23-.1,.34-.1,.08,0,.15,.02,.22,.06,.1,.05,.19,.12,.28,.2,.07,.07,.1,.19,.13,.28,.12,.41,.37,.78,.65,1.09h0c.34,.38,.8,.64,1.31,.63,.01,0,.02,0,.04,0h.04c.42-.04,.81-.19,1.17-.4h0c.09-.06,.26-.17,.37-.15,.06,.01,.11,.04,.16,.08,.09,.11,.13,.28,.15,.42h0c.08,.45,.3,.86,.64,1.17,.22,.2,.4,.43,.56,.68,.1,.16,.17,.35,.15,.54-.01,.11-.04,.22-.09,.31-.11,.07-.24,.1-.38,.11-.39,.05-.78,.13-1.16,.24-.45,.13-.88,.34-1.29,.56h0c-.52,.28-.99,.66-1.41,1.08h0c-.28,.28-.56,.57-.88,.81h0c-.44,.33-.91,.62-1.37,.91h0c-.55,.35-1.1,.69-1.68,.98-.6,.3-1.18,.65-1.74,1.02h0c-.45,.3-.92,.58-1.32,.94-.24,.21-.46,.43-.66,.67-.24,.27-.5,.53-.77,.78-.33,.32-.65,.65-.93,1.02h0c-.3,.4-.57,.82-.82,1.25-.27,.46-.52,.93-.75,1.42-.2,.42-.38,.86-.55,1.29-.02-.02-.03-.04-.04-.05-.27-.25-.58-.48-.95-.54-.36-.06-.74-.04-1.11-.04-.54,0-1.07,.07-1.59,.23-.43,.13-.85,.29-1.25,.5h0c-.45,.24-.88,.54-1.3,.84-.39,.28-.83,.58-1.09,1h0c-.18,.29-.28,.62-.27,.96,0,0,0,.02,0,.02h0c.01,.39,.13,.77,.26,1.14h0v.02c.09,.27,.22,.53,.42,.73,.24,.25,.59,.35,.93,.28,.01,0,.02,0,.03,0h.03c.28-.08,.55-.19,.8-.33,.25-.13,.54-.21,.82-.28,.29-.07,.58-.14,.88-.15,.1,0,.2,.02,.3,.05-.01,.03-.02,.06-.03,.09-.1,.27-.22,.53-.35,.79-.14,.28-.23,.59-.25,.9-.02,.07-.03,.14-.03,.22,.02,.56,.43,.97,.97,1.02,.02,0,.04,.01,.06,.01h.01c.16,0,.33,.02,.49,.06h0s.08,.06,.11,.09c.09,.12,.15,.27,.18,.43,.08,.35,.07,.74,.06,1.1,0,.43-.03,.9,.09,1.31h0c.13,.43,.53,.73,.9,.96h.02c.19,.14,.39,.25,.6,.36-.18,0-.37,0-.55,0-.23-.01-.48-.03-.69-.12-.15-.12-.27-.29-.37-.44h0c-.28-.4-.66-.72-1.09-.96h0c-.28-.16-.55-.33-.8-.54h0c-.33-.28-.72-.49-1.11-.68-.32-.16-.65-.33-.94-.53-.3-.21-.57-.45-.84-.69-.36-.33-.74-.63-1.15-.91h0c-.32-.23-.63-.46-.91-.72h0c-.32-.29-.68-.55-1.04-.79-.38-.25-.78-.46-1.2-.64-.13-.05-.25-.11-.37-.19-.02-.02-.05-.03-.07-.05l-.05-.05c-.16-.21-.33-.41-.5-.61-.26-.3-.5-.61-.74-.93-.23-.3-.44-.62-.62-.95-.24-.44-.44-.9-.64-1.36-.22-.51-.44-1.02-.69-1.51-.23-.44-.48-.86-.75-1.28h0c-.22-.35-.45-.7-.64-1.07-.12-.23-.21-.47-.28-.72-.1-.38-.06-.81-.03-1.2h0c.03-.43,.05-.87,.14-1.29,.07-.33,.17-.64,.27-.96,.12-.39,.26-.78,.4-1.16,.14-.39,.3-.77,.47-1.14,.19-.41,.36-.82,.5-1.24,.22-.63,.24-1.32,.25-1.98h0c.01-.72-.02-1.45-.18-2.16h0c-.11-.5-.28-1.01-.61-1.41h0v-.03c-.22-.24-.45-.47-.72-.65h-.02c-.38-.26-.87-.3-1.31-.31h-.03c-.46-.01-.91,0-1.37,.03h-.02c-.38,.03-.76,.08-1.14,.17h-.01c-.38,.09-.75,.21-1.13,.33h-.01c-.43,.15-.86,.27-1.3,.37h0c-.3,.07-.63,.16-.94,.15-.22,0-.44-.04-.66-.09-.22-.05-.43-.15-.61-.28-.06-.04-.11-.09-.16-.14,.01-.12,.03-.24,.06-.35,.05-.22,.2-.41,.33-.58,.24-.31,.51-.61,.79-.89,.43-.43,.85-.87,1.28-1.3,.42-.43,.84-.85,1.31-1.22,.49-.39,.98-.79,1.46-1.18,.33-.27,.69-.57,1.08-.76,.66-.16,1.34-.22,2.01-.19Zm22.68,9.02c-.2-.37-.47-.69-.78-.98-.16-.14-.33-.3-.45-.48-.09-.14-.15-.3-.21-.46-.02-.06-.04-.12-.05-.19h0c.28-.14,.57-.26,.87-.36,.43-.15,.85-.34,1.25-.55h0s.08-.05,.11-.07c-.17,.25-.28,.54-.35,.84-.11,.51-.11,1.05-.12,1.56h0c0,.22-.02,.45-.03,.67v.05s-.06,0-.09,0c-.06,0-.14,0-.17-.05Z" style="fill:#4d4d4d;"/><path d="M102.22,152.21h0v-.02h0c-.13-.24-.31-.45-.54-.6-.19-.13-.41-.22-.64-.27,0,0,0,0-.01,0h-.03c-.32-.08-.66-.11-.99-.15-.42-.05-.81-.22-1.16-.44h0c-.42-.26-.83-.54-1.19-.87-.45-.4-.96-.74-1.49-1.02-.46-.25-.91-.5-1.35-.77h0c-.43-.26-.89-.49-1.35-.7h0c-.36-.16-.72-.34-1.03-.57-.39-.28-.81-.53-1.23-.76h0c-.47-.27-.94-.54-1.41-.81h0c-.46-.28-.95-.53-1.45-.73h0c-.43-.18-.82-.43-1.18-.73-.4-.33-.81-.63-1.27-.87h0c-.45-.24-.87-.54-1.28-.85-.51-.38-.99-.78-1.45-1.21-.32-.3-.64-.6-.9-.96-.23-.31-.49-.61-.76-.88h0c-.24-.25-.49-.49-.78-.68h-.01c-.28-.19-.57-.36-.87-.52h-.01c-.23-.14-.48-.26-.68-.44-.18-.16-.33-.36-.48-.55-.25-.33-.45-.7-.64-1.07-.22-.43-.6-.99-1.17-.83-.21,.06-.33,.28-.27,.49,.05,.19,.23,.31,.42,.29h0c.1,.11,.16,.27,.21,.41,.17,.45,.36,.91,.64,1.31h0c.17,.25,.35,.5,.57,.72h0c.25,.25,.57,.44,.87,.61,.27,.16,.54,.32,.81,.5h0c.22,.15,.41,.35,.6,.54,.23,.24,.45,.5,.65,.77,.29,.41,.65,.78,1.02,1.13,.48,.47,1,.91,1.54,1.32,.46,.34,.92,.69,1.43,.95,.38,.2,.73,.47,1.06,.74,.45,.38,.94,.69,1.48,.92,.45,.19,.88,.41,1.29,.66h0c.47,.29,.95,.57,1.43,.85,.38,.22,.75,.44,1.1,.7,.39,.29,.82,.51,1.26,.71,.41,.19,.82,.4,1.21,.64,.46,.29,.94,.55,1.42,.81,.44,.24,.87,.51,1.25,.85h0c.43,.38,.89,.71,1.38,1.01,.5,.31,1.05,.55,1.63,.66,.29,.05,.58,.1,.87,.18,.08,.02,.16,.06,.23,.1,.06,.04,.12,.1,.16,.16,.21,.32,.34,.72,.48,1.09,.12,.33,.49,.49,.81,.37,.31-.12,.48-.45,.39-.77-.14-.47-.27-.96-.51-1.39Z" style="fill:#4d4d4d;"/><path d="M247.2,111.14c0-.65,0-1.31-.03-1.96-.03-.5-.07-1-.13-1.49-.06-.55-.06-1.11-.04-1.66,.02-.64,.04-1.29,.03-1.93h0c0-.55-.04-1.1-.14-1.63h0c-.09-.48-.19-.95-.31-1.42-.12-.5-.21-1-.28-1.51-.08-.56-.19-1.12-.33-1.66h0c-.11-.41-.21-.82-.29-1.23-.08-.38-.18-.75-.3-1.12h0c-.11-.32-.2-.65-.27-.97-.1-.45-.26-.89-.45-1.32-.15-.34-.29-.7-.4-1.06-.15-.51-.42-1-.69-1.46-.24-.41-.48-.81-.68-1.24h0c-.16-.35-.35-.68-.55-1.01h0c-.21-.35-.44-.67-.7-.98h-.01v-.02h0c-.23-.27-.44-.56-.63-.85-.23-.35-.47-.69-.72-1.02h0c-.21-.29-.44-.58-.7-.82h0c-.27-.25-.57-.47-.87-.69h0c-.34-.25-.67-.53-.96-.83-.39-.4-.81-.78-1.22-1.15h0c-.33-.3-.66-.64-.86-1.04-.24-.5-.53-.98-.84-1.45-.26-.4-.52-.8-.74-1.23-.19-.37-.42-.71-.69-1.02h0c-.33-.38-.72-.7-1.11-1-.46-.34-.87-.74-1.26-1.16-.52-.57-1.12-1.06-1.75-1.51h0c-.55-.39-1.1-.77-1.68-1.11h0c-.4-.24-.79-.51-1.16-.8-.36-.29-.73-.56-1.13-.79-.45-.27-.93-.49-1.41-.71h0c-.54-.25-1.06-.56-1.54-.91-.53-.39-1.1-.73-1.7-1h0c-.36-.16-.73-.33-1.04-.57-.46-.35-.96-.67-1.46-.98-.45-.29-.91-.57-1.34-.9-.29-.22-.59-.41-.91-.57-.34-.17-.68-.32-1.04-.44-.43-.15-.86-.32-1.28-.48-.57-.22-1.14-.42-1.73-.6-.47-.14-.94-.29-1.4-.46-.57-.21-1.15-.42-1.72-.62-.66-.23-1.31-.46-1.98-.66h-.01c-.43-.14-.87-.26-1.32-.35h-.01c-.17-.04-.36-.07-.51-.17-.06-.04-.13-.07-.2-.08-.19-.08-.39-.12-.6-.1,0,0-.02,0-.03,0-.03,0-.06,0-.09,0h-.02c-.44,.08-.88,.2-1.31,.32-.21,.06-.33,.28-.27,.49,.06,.21,.28,.33,.49,.27,.37-.1,.77-.21,1.15-.2,.07,0,.14,.03,.19,.08,.05,.05,.11,.09,.17,.12,.23,.18,.5,.3,.79,.36,.41,.09,.81,.22,1.21,.35,.65,.21,1.28,.45,1.92,.7,.57,.22,1.13,.44,1.7,.66,.48,.19,.97,.35,1.47,.5,.55,.17,1.1,.36,1.63,.57,.44,.17,.88,.34,1.33,.5,.3,.1,.6,.23,.89,.37,.25,.13,.49,.27,.71,.45,.45,.35,.94,.66,1.41,.97,.46,.3,.92,.6,1.35,.93,.24,.19,.51,.34,.79,.48-1.04-.04-2.07-.07-3.11-.12-.49-.02-1-.03-1.48-.1-.23-.04-.47-.09-.69-.18-.32-.12-.66-.21-1-.29-.51-.12-1.01-.32-1.5-.51-.73-.29-1.51-.46-2.29-.51-.72-.05-1.44-.05-2.15,0-.83,.06-1.66,.05-2.49,.02h0c-1.26-.04-2.51-.08-3.77-.11-.57-.02-1.14-.03-1.7-.07-.24-.02-.5-.01-.73-.07-.15-.04-.3-.1-.43-.21-.21-.17-.39-.38-.56-.58-.27-.31-.55-.6-.86-.88-.34-.3-.74-.54-1.19-.65h-.01c-.36-.09-.74-.1-1.11-.13-.69-.05-1.38-.07-2.07-.1-.7-.02-1.41-.04-2.12-.03-.41,0-.84,0-1.24,.1-.74,.18-1.45,.45-2.16,.71-.74,.27-1.5,.53-2.2,.89-.31,.16-.62,.31-.94,.42-.12,.04-.25,.07-.37,.07h0c-.14-.26-.33-.49-.56-.67h-.01c-.27-.21-.59-.31-.91-.34,0,0-.02,0-.03,0h-.03c-.29-.02-.59,.02-.86,.12,0,0-.02,0-.03,0h-.04c-.34,.14-.63,.37-.9,.6h0c-.31,.27-.6,.56-.87,.86-.15,.16-.32,.33-.53,.41-.43,.15-.87,.27-1.31,.39-.52,.14-1.04,.28-1.55,.44h0c-.42,.13-.85,.25-1.28,.35-.43,.11-.87,.16-1.32,.15-.14,0-.28-.02-.42-.04-.03-.1-.05-.22-.07-.31h0c-.05-.34-.11-.67-.21-1h0c-.07-.23-.19-.44-.35-.62-.04-.07-.1-.14-.17-.19-.29-.22-.67-.31-1.02-.38h-.01c-.57-.12-1.15-.15-1.72-.17-.67-.02-1.34,0-2.01,.11h0c-.63,.1-1.27,.17-1.91,.23-.6,.05-1.2,.11-1.8,.19-.49,.06-.97,.18-1.44,.33-.42,.14-.83,.29-1.22,.51-.36,.2-.71,.44-1.03,.7-.3,.24-.61,.48-.89,.74-.25,.23-.47,.49-.67,.77-.22,.31-.39,.64-.52,.99h0c-.1,.27-.21,.53-.32,.79-.12,.27-.2,.57-.18,.87h0c0,.1,.03,.18,.07,.26,.04,.15,.11,.28,.21,.4,.04,.08,.09,.15,.17,.21,.3,.24,.7,.33,1.07,.39h.01c.35,.06,.7,.13,1.05,.22,.11,.03,.22,.06,.33,.1,.02,0,.1,.06,.07,.03,.07,.07,.14,.28,.17,.39,.04,.12,.09,.24,.16,.36-.46,0-.94,.03-1.38,.19-.36,.13-.7,.31-1.02,.51-.37,.24-.7,.54-.99,.87h0c-.29,.32-.55,.68-.7,1.08h0c-.12,.33-.21,.66-.29,.99h0c-.08,.36-.16,.71-.22,1.06h0c-.01,.08-.02,.15-.03,.22-.16,.01-.31,.02-.47,.02-.57,0-1.2,.06-1.66,.44h0c-.22,.19-.45,.39-.62,.62-.25,.34-.33,.81-.41,1.21-.09,.42-.16,.85-.18,1.28h0c-.02,.5,.2,.96,.51,1.33h0c.24,.29,.46,.59,.67,.9,.1,.15,.21,.31,.33,.45-.44,.21-.89,.41-1.31,.66-.36,.22-.67,.52-.95,.84-.35,.39-.71,.78-1.07,1.16-.31,.33-.62,.66-.94,.98-.32,.32-.54,.74-.71,1.16-.16,.39-.33,.77-.51,1.15-.19,.4-.35,.81-.49,1.23-.2,.61-.29,1.25-.37,1.89-.09,.7-.16,1.41-.19,2.12-.02,.46-.03,.93,.04,1.39h0c.08,.48,.25,.94,.41,1.4,.2,.56,.43,1.11,.73,1.63h0v.03c.21,.33,.4,.67,.57,1.02,.14,.29,.33,.58,.57,.8,0,0,.01,.02,.02,.03l.02,.02h0c.22,.18,.46,.31,.73,.4h0c.36,.12,.75,.15,1.12,.17h0c.77,.04,1.56-.18,2.29-.39,.57-.16,1.16-.35,1.75-.45h0c.21-.04,.42-.05,.64-.04,.22,.01,.44,.12,.63,.22,.35,.18,.69,.39,1.01,.61,.31,.21,.63,.42,.98,.55h0c.06,.02,.13,.05,.17,.11,.08,.1,.12,.23,.16,.34,.08,.26,.18,.51,.3,.76,.15,.29,.2,.66,.26,.98,.11,.51,.16,1.04,.15,1.56,0,.55,.03,1.1,.17,1.64,0,0,0,0,0,.01v.03c.12,.45,.26,.9,.41,1.34h0v.02c.16,.45,.35,.89,.62,1.28h0v.02c.18,.24,.36,.49,.59,.69,0,0,0,.01,.01,.02,.01,.01,.02,.01,.02,.02,0,.07-.04,.16-.06,.23-.07,.21-.15,.41-.24,.61-.21,.48-.4,.97-.54,1.47h0c-.15,.52-.22,1.07-.26,1.61-.04,.56-.04,1.14,.16,1.67,.11,.31,.22,.62,.32,.93,.13,.41,.34,.78,.6,1.12,.22,.29,.36,.63,.46,.97h0c.12,.38,.22,.76,.28,1.15,.05,.3,.09,.61,.12,.91,.05,.44,0,.9-.02,1.35-.04,.6-.09,1.49,.54,1.83h0c.23,.12,.48,.2,.74,.22,.35,.03,.7-.08,1.03-.2h0c.45-.17,.91-.33,1.36-.48h0c.46-.15,.92-.3,1.35-.52h.02c.31-.16,.6-.35,.88-.55,.31-.22,.6-.45,.89-.7,.36-.32,.68-.69,.97-1.07,.27-.35,.54-.71,.78-1.09h0c.27-.43,.52-.87,.77-1.31,.27-.48,.56-.94,.9-1.37,.26-.32,.53-.64,.83-.92,.25-.23,.51-.46,.77-.68,.3-.25,.59-.51,.87-.79h0c.34-.34,.63-.74,.84-1.17h0v-.03c.18-.35,.33-.7,.44-1.07h0c.11-.37,.18-.74,.22-1.12,.04-.36,.1-.71,.19-1.06,.11-.46,.16-.94,.15-1.42,0-.31-.01-.62,.01-.93,.02-.26,.12-.52,.23-.76,.21-.49,.57-.93,.9-1.33,.42-.5,.83-1.01,1.25-1.51,.43-.53,.79-1.12,1.11-1.72h0c.33-.62,.65-1.24,.92-1.89h0c.18-.44,.36-.9,.47-1.36,.07-.31,.13-.62,.16-.94,.05-.62-.39-1.08-.96-1.25h-.01c-.31-.1-.61-.2-.91-.31-.29-.11-.58-.21-.88-.31-.06-.02-.14-.04-.18-.1-.14-.17-.32-.31-.5-.43,.22,.08,.44,.13,.67,.15h.02c.35,.04,.7,.07,1.05,.07h.04c.32,0,.64-.01,.95-.09h.02c.37-.1,.72-.27,1.06-.45h0c.41-.22,.81-.46,1.18-.73,.32-.23,.63-.48,.93-.73,.26-.22,.51-.46,.71-.74,.17-.23,.32-.48,.42-.75,.2-.51,.01-1.04-.42-1.36-.14-.1-.26-.21-.37-.34-.18-.22-.39-.41-.61-.59,.15-.07,.3-.13,.47-.16,.23-.04,.46-.06,.69-.06,.28,0,.57,.12,.82,.23,.27,.12,.57,.23,.81,.41h0c.24,.18,.44,.42,.63,.64,.22,.26,.42,.56,.54,.88,.17,.46,.42,.89,.72,1.28h0c.24,.32,.44,.66,.6,1.01,.21,.45,.47,.88,.82,1.23,.25,.25,.49,.51,.71,.78,.26,.32,.56,.62,.89,.87h.01c.24,.19,.46,.39,.67,.6,.25,.25,.48,.53,.7,.82,.27,.36,.61,.68,1.03,.84,0,0,.01,.01,.02,.01,.02,0,.04,.02,.06,.02,.28,.09,.57,.15,.86,.16h0c.4,.02,.79-.13,1.07-.41,.29-.29,.47-.7,.61-1.08,.14-.36,.28-.73,.4-1.1,.1-.31,.24-.6,.39-.88,.15-.28,.3-.56,.49-.81,.2-.27,.43-.52,.66-.76,.23-.24,.46-.48,.71-.7,.07-.06,.15-.13,.24-.16,.12-.03,.25-.02,.38-.02,.1,.03,.15,.08,.21,.19,.13,.22,.25,.46,.3,.71,.07,.36,.19,.7,.33,1.04,.18,.44,.49,.85,.94,1.04h0c.47,.2,1.03,.22,1.53,.23,.17,0,.35,.02,.52,.07,.02,0,.04,.02,.06,.03,.15,.23,.24,.5,.32,.76,.1,.34,.2,.67,.32,1,.1,.28,.23,.55,.38,.8,.39,.67,1.24,1.01,1.93,1.28,.39,.15,.82-.05,.97-.44,.11-.28,.03-.58-.16-.78,.02,0,.03,.02,.05,.02,.16,.04,.33,0,.49-.04,.15-.03,.24-.18,.21-.32,0-.02-.02-.04-.03-.06,.01,0,.02-.01,.03-.02,.27-.13,.57-.19,.86-.26,.43-.09,.88-.24,1.19-.56,.25-.26,.42-.59,.48-.94,.07-.36,.09-.73,.11-1.1,.02-.4,.01-.82-.12-1.21h0c-.07-.19-.12-.39-.16-.59-.04-.18-.04-.36-.03-.55,0-.15,.16-.29,.26-.38,.33-.31,.72-.55,1.11-.78,.5-.3,1-.62,1.47-.97,.38-.29,.75-.61,1.06-.98h0c.28-.35,.5-.74,.68-1.15h0c.26-.6,.34-1.26,.38-1.9,.03-.53,.09-1.1-.02-1.62-.08-.37-.27-.7-.49-1.01-.24-.33-.49-.65-.75-.97-.15-.18-.32-.38-.4-.6,.29,.16,.57,.35,.81,.58,.36,.34,.81,.58,1.31,.62h0c.3,.03,.64,.02,.92-.12,.06-.03,.12-.06,.18-.11,.29-.26,.35-.69,.39-1.05,.04-.42,.03-.84,0-1.26-.03-.3-.05-.6-.04-.91,0-.17,.05-.33,.12-.48,.08-.17,.18-.32,.31-.45,.29-.3,.65-.53,.99-.77,.33-.23,.66-.47,1-.69,.07-.05,.15-.09,.23-.11h0c.34-.09,.6-.35,.74-.68,.04-.09,.05-.18,.05-.27,.04-.43-.21-.86-.46-1.2-.35-.47-.74-.89-1.16-1.3-.28-.27-.59-.56-.81-.88-.27-.4-.7-.68-1.12-.9-.32-.17-.62-.38-.86-.66-.14-.16-.31-.34-.39-.53-.05-.13-.06-.26-.07-.4,.22-.07,.44-.12,.67-.15,.58-.07,1.18-.04,1.77-.03h0c.38,.01,.76,.01,1.14-.02,.23-.02,.47-.06,.67-.16,0,.02,.02,.04,.02,.06h0v.02c.19,.51,.32,1.04,.4,1.58,.08,.48,.15,.97,.29,1.44,.09,.32,.23,.63,.42,.91,.19,.29,.44,.54,.73,.72,.33,.21,.71,.32,1.1,.38,.36,.05,.72,.09,1.08,.1h0c.23,0,.48,0,.71-.05,.08,0,.16-.02,.24-.05,.39-.17,.56-.57,.66-.96,.08-.32,.13-.66,.11-1-.02-.34-.1-.67-.22-.99-.12-.3-.25-.59-.41-.88-.23-.41-.53-.78-.82-1.14,.63,0,1.26,.06,1.89,.16,.4,.06,.78-.22,.84-.62,.06-.4-.21-.77-.61-.84-.92-.15-1.86-.26-2.79-.2-.26,.02-.52,.05-.76,.16-.34,.15-.55,.47-.55,.83,0,.09,0,.19,.04,.28,.15,.43,.5,.81,.78,1.15,.25,.3,.51,.61,.71,.95,.13,.22,.24,.45,.33,.69h0c.07,.18,.13,.36,.14,.55,.01,.19,0,.38-.05,.56-.06,0-.11,0-.17,0-.31-.01-.62-.04-.92-.08h0c-.19-.03-.39-.07-.56-.17h0c-.13-.08-.24-.19-.32-.32-.11-.16-.19-.34-.25-.53h0c-.13-.41-.18-.84-.25-1.27-.1-.63-.24-1.25-.45-1.85-.14-.38-.27-.86-.58-1.15-.08-.07-.16-.12-.26-.15-.29-.13-.62-.09-.86,.12-.08,.06-.15,.13-.2,.22-.02,.04-.06,.07-.1,.1-.36,.08-.76,.06-1.12,.06-.65,0-1.32-.03-1.97,.06h0c-.37,.05-.73,.13-1.08,.27-.5,.21-.79,.68-.77,1.22h0c.01,.31,.06,.62,.17,.9h0c.14,.36,.39,.66,.64,.93h.01c.35,.4,.78,.7,1.24,.94h0c.23,.12,.5,.26,.65,.48h0c.27,.4,.63,.75,.98,1.08,.37,.35,.72,.73,1.02,1.14h0s.06,.1,.09,.14c-.12,.05-.23,.1-.34,.17-.36,.23-.7,.48-1.05,.73h0c-.4,.29-.83,.59-1.17,.94-.23,.24-.42,.52-.56,.83h0c-.14,.32-.21,.66-.22,1h0c0,.37,.03,.72,.08,1.08h0v.03c.05,.34,.07,.68,.06,1.02,0,.04,0,.1,0,.16-.04,0-.09,0-.13,0h0c-.22-.02-.41-.13-.57-.28-.34-.32-.73-.59-1.14-.81h0c-.36-.19-.81-.42-1.22-.29-.4,.13-.58,.52-.59,.91,0,.28,.04,.56,.13,.82,.12,.39,.38,.73,.63,1.03,.25,.3,.49,.6,.72,.91,.12,.16,.25,.35,.3,.55,.03,.13,.03,.27,.03,.41,0,.29-.01,.58-.03,.87-.03,.5-.08,1.03-.28,1.49-.14,.31-.3,.61-.52,.87-.25,.3-.55,.55-.86,.78-.43,.33-.89,.63-1.35,.91-.46,.28-.91,.58-1.3,.95h0c-.33,.31-.6,.71-.62,1.17h0c-.02,.28,0,.56,.04,.83,.04,.26,.11,.51,.2,.75,.08,.25,.08,.53,.08,.79,0,.32-.02,.65-.05,.97-.02,.15-.07,.28-.17,.39-.14,.16-.42,.22-.62,.26-.35,.08-.72,.18-1.04,.37,0,0-.02,0-.03,0-.02,0-.04,.02-.05,.03-.24,.16-.45,.39-.52,.67,0,0,0,0,0,.01v.02s0,.01,0,.02c0,.01,0,.02,0,.04-.02,.14,.01,.28,.09,.39-.03-.02-.05-.04-.08-.05-.31-.12-.61-.25-.89-.43-.08-.05-.22-.13-.27-.21-.1-.18-.19-.37-.27-.56-.11-.3-.21-.6-.3-.91-.13-.41-.29-.81-.52-1.16-.38-.59-1.12-.72-1.77-.73h-.02c-.31,0-.7,.03-1-.1-.08-.03-.13-.17-.16-.25-.1-.25-.19-.51-.24-.77-.08-.41-.24-.8-.44-1.17-.27-.5-.72-.9-1.31-.95-.31-.03-.62-.03-.93,.04-.33,.08-.63,.26-.89,.47-.29,.25-.56,.52-.83,.8-.27,.28-.54,.58-.78,.89-.24,.32-.43,.66-.61,1.02h0c-.18,.37-.34,.75-.45,1.14h0v.05c-.1,.34-.21,.67-.33,1-.06,.18-.14,.41-.27,.55-.14,0-.28-.05-.41-.1h0c-.15-.06-.26-.25-.34-.37-.24-.37-.52-.72-.83-1.04-.27-.28-.55-.54-.86-.77-.24-.18-.44-.39-.63-.62-.26-.3-.54-.59-.83-.85h0s-.02-.03-.04-.04c-.22-.19-.38-.46-.5-.72-.21-.45-.47-.88-.77-1.28-.21-.28-.39-.58-.51-.91-.19-.48-.47-.93-.81-1.32h-.01c-.27-.32-.55-.62-.87-.87-.34-.26-.74-.44-1.13-.6-.43-.18-.9-.34-1.37-.35h0c-.34,0-.67,.02-1,.09h-.02c-.34,.07-.68,.19-.99,.35-.46,.24-.79,.68-.78,1.21,0,.47,.26,.89,.62,1.18,.16,.14,.33,.28,.46,.44h0c.13,.15,.29,.28,.44,.41-.04,.07-.07,.15-.12,.22-.14,.19-.31,.35-.49,.5-.27,.23-.56,.45-.85,.67-.31,.23-.65,.44-.99,.61-.23,.12-.47,.25-.73,.31-.19,.04-.38,.04-.57,.03-.32-.02-.64-.05-.96-.09-.17-.02-.36-.05-.5-.15-.12-.09-.22-.2-.3-.33-.16-.27-.32-.54-.49-.8h0c-.16-.25-.27-.53-.34-.82h0c-.09-.36-.2-.73-.33-1.08h0c-.14-.37-.32-.72-.51-1.06h0v-.02c-.22-.37-.46-.72-.75-1.04h0l-.02-.03h0c-.31-.34-.69-.62-1.07-.88h-.02c-.38-.27-.74-.55-1.07-.86-.32-.3-.68-.61-1.1-.77-.22-.08-.46-.13-.69-.07-.41,.1-.68,.48-.67,.89,0,.38,.09,.76,.15,1.14,.08,.46,.17,.93,.31,1.37,.12,.38,.24,.75,.36,1.13,.18,.58,.39,1.15,.6,1.72h0c.18,.51,.37,1.02,.62,1.49,.17,.33,.39,.63,.64,.9,.26,.27,.56,.49,.89,.68h0l.02,.02c.39,.21,.8,.38,1.22,.53h0c.36,.13,.71,.28,1.03,.48,.17,.1,.36,.21,.5,.36h0c.23,.25,.53,.42,.85,.52,0,0,.01,0,.02,.01h.02c.27,.08,.54,.17,.8,.27,.29,.1,.58,.2,.88,.29-.02,.16-.05,.33-.08,.48h0c-.09,.39-.24,.77-.39,1.14-.24,.59-.54,1.16-.86,1.71-.29,.51-.6,1.03-.99,1.47-.43,.5-.85,1-1.27,1.5-.44,.53-.88,1.09-1.15,1.73h0c-.16,.39-.29,.8-.32,1.23,0,.01,0,.02,0,.03v.03c-.01,.37,.01,.75,.05,1.12,.04,.33,.01,.67-.06,1h0c-.09,.41-.15,.81-.19,1.23h0v.02c-.02,.28-.07,.55-.15,.82-.1,.3-.23,.59-.37,.87h0c-.15,.29-.35,.55-.59,.77-.26,.24-.52,.48-.8,.7-.29,.23-.58,.48-.86,.72-.37,.33-.7,.7-1,1.09h0c-.38,.49-.71,1.03-1,1.58h0v.02c-.23,.42-.45,.85-.7,1.25-.21,.34-.45,.67-.7,.99-.24,.32-.49,.63-.78,.89-.24,.22-.49,.43-.76,.62-.22,.16-.44,.3-.68,.41-.39,.18-.81,.31-1.21,.45-.48,.16-.95,.32-1.42,.5-.11,.04-.3,.12-.4,.11,0,0-.02,0-.03,0-.02-.19-.01-.38,0-.57h0c.03-.52,.07-1.05,.01-1.57h0c-.03-.32-.08-.65-.12-.97h0c-.07-.46-.19-.92-.32-1.36-.15-.49-.37-.97-.68-1.39h0c-.16-.22-.3-.45-.39-.71-.11-.33-.23-.65-.36-.97h0v-.03c-.15-.33-.13-.74-.11-1.09,.03-.45,.07-.9,.2-1.34,.13-.45,.3-.88,.49-1.31,.18-.42,.4-.89,.41-1.35h0c0-.39-.15-.76-.45-1h0c-.16-.13-.28-.32-.39-.49-.2-.3-.33-.63-.44-.97-.13-.42-.24-.84-.33-1.26-.09-.44-.11-.89-.11-1.34,0-.63-.05-1.26-.18-1.87h0c-.09-.43-.19-.89-.39-1.28,0-.01,0-.03-.01-.04l-.02-.04c-.1-.17-.18-.36-.25-.54-.1-.26-.23-.52-.4-.74h0c-.19-.24-.45-.4-.73-.51h-.03c-.25-.1-.49-.27-.71-.41h0c-.36-.24-.74-.47-1.13-.67h0c-.36-.19-.75-.34-1.16-.37h0c-.31-.02-.61,0-.92,.03-.64,.09-1.28,.29-1.91,.46-.58,.16-1.24,.36-1.85,.33-.25-.02-.53-.02-.77-.1h0c-.1-.03-.19-.08-.27-.15-.11-.1-.18-.26-.25-.39-.18-.38-.37-.76-.57-1.13-.25-.46-.45-.94-.62-1.44-.13-.37-.28-.75-.34-1.14-.06-.36-.04-.74-.02-1.11,.02-.66,.09-1.32,.18-1.98h0c.07-.54,.14-1.1,.3-1.62,.12-.36,.25-.72,.41-1.07,.18-.4,.35-.81,.52-1.22,.1-.26,.22-.52,.41-.73,.3-.33,.61-.66,.92-.98,.38-.39,.75-.78,1.11-1.19,.19-.22,.4-.44,.64-.61,.37-.25,.8-.43,1.2-.62h0c.45-.21,.92-.42,1.4-.56h0c.41-.11,.82-.24,1.23-.37,.46-.15,.91-.33,1.34-.57,.23-.13,.48-.2,.74-.2,.15,0,.39,0,.51,.05h0c.13,.06,.24,.19,.34,.28h0c.27,.27,.58,.51,.91,.71h0c.26,.17,.47,.39,.65,.64,.24,.32,.5,.66,.85,.87,.16,.1,.3,.23,.44,.37,.21,.21,.42,.42,.64,.61h.02v.02c.25,.22,.55,.4,.89,.44,0,0,.01,0,.02,0h.03c.23,.02,.47,0,.7-.03,.37-.05,.73-.18,1.07-.33,.16-.07,.34-.09,.51-.11,.32-.03,.65-.03,.98-.02,.55,.02,1.14,.03,1.67,.18,.55,.15,1.12,.2,1.69,.21h0c.52,.02,1.04,.02,1.55-.05h0c.42-.06,.86-.22,1.09-.61,.23-.39,.22-.93,.24-1.37,0-.39,.02-.87-.17-1.25-.03-.08-.07-.15-.13-.22-.26-.28-.64-.38-1.01-.38h-.01c-.38,0-.76,.07-1.14,.14h-.01c-.44,.08-.89,.1-1.34,.08-.24-.01-.53-.02-.77-.1-.02-.08-.02-.17-.02-.25,0-.34-.01-.75-.18-1.07-.03-.07-.07-.14-.13-.2-.06-.07-.14-.12-.22-.15-.18-.11-.37-.19-.59-.19-.23,0-.47,.04-.7,.09-.28,.06-.58,.03-.87,.01h0c-.16-.01-.32-.03-.48-.06-.02,0-.09-.03-.11-.03-.01-.02-.04-.05-.05-.06-.09-.11-.16-.23-.23-.35-.25-.42-.57-.79-.93-1.13-.37-.34-.79-.64-1.26-.81-.21-.08-.42-.16-.64-.24h0c-.07-.03-.15-.05-.22-.06-.03,0-.05,0-.08,0-.07,0-.13,0-.2,.01-.01,0-.03,0-.04,0-.07,.02-.15,.05-.22,.1h-.02s-.02,.02-.03,.03c-.07,.05-.12,.12-.16,.19h0c-.05,.09-.09,.18-.1,.27-.01,.08,0,.17,.02,.25,0,.02,0,.03,.01,.05,0,.03,.01,.07,.03,.1,.01,.03,.04,.06,.05,.08,.01,.02,.02,.04,.04,.06,.05,.07,.12,.13,.19,.17h0l.1,.06h0c.23,.14,.45,.3,.68,.44h0c.27,.18,.56,.37,.78,.62,.15,.16,.27,.34,.36,.54,.05,.11,.1,.24,.11,.37-.04-.02-.09-.05-.12-.08-.3-.23-.65-.41-.99-.57h0c-.25-.12-.52-.25-.73-.43-.27-.23-.54-.45-.82-.67-.34-.27-.68-.55-1.01-.84h0c-.4-.35-.9-.62-1.45-.62-.35,0-.71,.05-1.05,.16h0c-.31,.1-.6,.25-.86,.44-.28,.2-.52,.47-.68,.78-.17,.32-.31,.66-.45,.99h0c-.14,.36-.3,.7-.5,1.01-.13,.21-.28,.41-.48,.56-.05,.04-.1,.07-.15,.1,0,0-.02,0-.02-.01-.16-.14-.27-.35-.38-.52-.23-.36-.48-.7-.75-1.02-.09-.11-.21-.27-.2-.43h0c.02-.36,.09-.72,.16-1.07,.05-.24,.12-.53,.22-.72,.11-.13,.24-.24,.37-.35,.2-.16,.57-.16,.81-.16,.38,0,.88,0,1.23-.22,.08-.04,.16-.09,.22-.17h0c.06-.07,.09-.15,.11-.23,.1-.22,.17-.45,.21-.67,.07-.33,.14-.66,.23-.99,.07-.28,.16-.56,.26-.84,.1-.25,.28-.47,.45-.66,.22-.24,.46-.47,.73-.65,.24-.15,.49-.28,.75-.38,.36-.13,.78-.12,1.16-.11,.75,0,1.5-.09,2.24-.26h0c.73-.16,1.46-.34,2.17-.56h0c.5-.15,1.01-.3,1.49-.5h.02c.39-.17,.79-.45,.86-.9,.1-.61-.46-.93-.96-1.05-.12-.03-.23-.07-.32-.14-.02-.07-.03-.14-.03-.2-.02-.18-.02-.36-.01-.54h0c0-.55,0-1.11-.11-1.66h0c-.05-.26-.14-.53-.33-.73-.24-.26-.6-.36-.94-.26-.33,.09-.63,.26-.86,.51-.32,.33-.49,.8-.63,1.23h0c-.18,.56-.3,1.14-.38,1.72h0v.02c-.04,.31-.06,.69-.22,.97-.08,.14-.2,.24-.34,.33-.14,.09-.31,.15-.48,.15-.09,0-.19,0-.28-.01-.03-.06-.06-.13-.08-.2h0c-.11-.32-.24-.65-.48-.89h0s-.01,0-.02-.01c-.06-.06-.13-.1-.2-.13-.23-.15-.49-.26-.75-.33-.38-.1-.76-.19-1.15-.26-.12-.02-.3-.05-.42-.11,.01-.06,.04-.12,.06-.17h0c.14-.28,.26-.57,.38-.86,.1-.25,.21-.49,.37-.7h0c.14-.2,.3-.39,.48-.56,.25-.24,.52-.45,.79-.66,.27-.21,.56-.42,.86-.59,.31-.17,.64-.29,.97-.4,.39-.13,.79-.22,1.2-.27,.58-.08,1.16-.13,1.74-.18,.67-.06,1.34-.13,2-.23,.58-.09,1.17-.11,1.75-.09,.5,.02,1,.04,1.49,.14,.13,.03,.26,.06,.39,.1,.02,0,.04,.02,.06,.02,.02,.03,.04,.06,.05,.11,.08,.27,.13,.55,.17,.82,.06,.4,.16,.85,.47,1.14,.35,.32,.9,.33,1.35,.33h.02c.55,0,1.11-.08,1.64-.22h.01c.45-.12,.89-.24,1.33-.37,.5-.15,1.01-.29,1.52-.43,.47-.13,.95-.25,1.41-.42,.42-.15,.77-.43,1.06-.76h0c.24-.26,.5-.52,.77-.75,.14-.12,.3-.27,.48-.33,.12-.04,.25-.04,.37-.03,.08,0,.18,.03,.25,.08,.08,.06,.14,.15,.19,.24,.2,.38,.55,.65,.98,.71h.01c.36,.05,.72-.01,1.05-.13,.39-.13,.76-.31,1.13-.5h0c.65-.34,1.35-.59,2.03-.84,.66-.24,1.33-.51,2.01-.68,.3-.07,.63-.06,.94-.07,.68-.01,1.36,0,2.05,.02h0c.68,.02,1.35,.05,2.03,.09,.29,.02,.6,.02,.89,.09,.24,.06,.44,.19,.62,.35,.27,.24,.52,.49,.76,.75,.22,.24,.46,.48,.71,.69h0l.02,.02c.27,.21,.59,.36,.93,.45,.31,.08,.65,.09,.96,.11,.58,.04,1.17,.05,1.75,.07h0c1.25,.03,2.51,.07,3.76,.11,.88,.03,1.76,.04,2.63-.03h0c.66-.05,1.32-.05,1.97-.01,.66,.04,1.31,.17,1.93,.4,.54,.2,1.09,.38,1.66,.49h.04c.3,.06,.6,.12,.89,.2,.28,.08,.57,.14,.86,.17h.02c.53,.07,1.07,.06,1.6,.08,1.13,.02,2.26,.03,3.39,.04,.25,0,.46-.2,.46-.46,0-.05-.01-.09-.03-.13,.46,.22,.89,.48,1.3,.78h0c.55,.4,1.15,.76,1.77,1.04h0c.44,.2,.88,.41,1.3,.65,.34,.2,.66,.43,.97,.68,.41,.33,.85,.63,1.3,.91,.55,.33,1.08,.69,1.6,1.06,.55,.39,1.08,.83,1.55,1.33,.44,.47,.92,.92,1.44,1.3h0c.32,.25,.65,.5,.91,.8h0c.2,.23,.38,.49,.52,.77,.24,.46,.53,.9,.82,1.33h0c.28,.42,.55,.85,.78,1.3,.27,.55,.7,1.01,1.15,1.42,.4,.36,.79,.72,1.17,1.11,.34,.35,.71,.67,1.11,.96,.26,.19,.52,.39,.76,.61,.2,.19,.37,.42,.54,.65,.23,.32,.45,.64,.67,.97,.22,.34,.45,.67,.71,.99,.22,.27,.41,.55,.59,.84,.18,.29,.34,.59,.48,.89,.22,.46,.48,.9,.73,1.34,.21,.36,.44,.75,.56,1.16,.12,.41,.28,.81,.45,1.21h0c.15,.35,.28,.71,.37,1.08,.08,.37,.19,.74,.31,1.11,.11,.31,.19,.63,.25,.95,.09,.44,.19,.88,.31,1.31h0c.13,.5,.23,1,.3,1.51,.08,.55,.18,1.09,.32,1.63h0c.11,.46,.22,.91,.31,1.36,.09,.46,.12,.92,.13,1.39,0,.63,0,1.26-.03,1.88-.02,.62-.01,1.24,.08,1.85h0v.02c.07,.46,.12,.93,.15,1.4,.04,.62,.05,1.25,.04,1.87h0c0,.64-.05,1.29-.19,1.92-.11,.5-.23,1-.4,1.48-.13,.4-.25,.81-.35,1.22h0v.03c-.1,.43-.26,.85-.42,1.27-.18,.47-.35,.94-.49,1.43-.16,.54-.43,1.06-.68,1.57-.28,.55-.56,1.1-.87,1.63-.25,.43-.49,.86-.73,1.29-.32,.58-.66,1.14-1.01,1.7h0c-.34,.54-.7,1.07-1.1,1.57-.31,.38-.61,.77-.88,1.18-.32,.49-.69,.97-1.05,1.43-.38,.5-.77,1-1.17,1.48-.45,.54-.92,1.07-1.39,1.59-.53,.59-1.06,1.17-1.59,1.75-.41,.44-.81,.88-1.2,1.33-.45,.51-.91,1.01-1.38,1.5-.48,.5-.99,.99-1.53,1.43-.64,.52-1.25,1.08-1.84,1.66-.54,.52-1.08,1.05-1.62,1.57-.47,.46-.96,.9-1.45,1.33-.54,.48-1.09,.94-1.65,1.38-.46,.36-.91,.72-1.36,1.09h0c-.64,.54-1.25,1.11-1.86,1.68-.63,.58-1.25,1.16-1.89,1.73-.54,.48-1.05,.98-1.54,1.5-.44,.46-.88,.91-1.34,1.34-.29,.27-.6,.53-.93,.76-.45,.32-.87,.67-1.29,1.03-.45,.38-.9,.76-1.36,1.13-.42,.33-.82,.68-1.21,1.05-.03,.03-.07,.06-.1,.09h0c-.12,0-.23,.02-.33,.07-.08-.07-.17-.12-.29-.14h0c-1.25-.17-2.51-.29-3.77-.35h-.01c-.89-.04-1.78-.1-2.67-.19-.82-.08-1.64-.17-2.45-.27-.86-.11-1.72-.24-2.58-.37h0c-.91-.14-1.82-.26-2.73-.35-.96-.09-1.91-.18-2.87-.27-1.16-.11-2.32-.22-3.48-.33-2.35-.22-4.73-.26-7.09-.34-1.43-.05-2.86-.09-4.3-.13-.74-.02-1.49-.04-2.23-.03-.77,.01-1.53,.03-2.3,.06-.54,.02-1.09,.04-1.63,.04-.54,0-1.07,0-1.61,.02h0c-1.26,.03-2.51,.12-3.76,.21h0c-1.27,.09-2.54,.17-3.8,.3-.71,.07-1.42,.13-2.13,.17-.88,.05-1.76,.08-2.64,.11-2.11,.06-4.24-.04-6.35-.11-1.24-.04-2.48-.08-3.72-.11-.54-.01-1.08-.04-1.61-.03-.52,.01-1.03,.03-1.55,.06h0c-.81,.04-1.61,.06-2.42,.09-.74,.02-1.49,.04-2.23,.02-.82-.02-1.64-.02-2.46-.02-1.14,0-2.28-.02-3.42-.06-1.36-.05-2.72-.07-4.08-.08-1.17,0-2.33-.01-3.5,.01-.73,.02-1.46,.04-2.19,.11h0c-.53,.05-1.06,.07-1.58,.06-.7,0-1.41,0-2.11,.02-.7,.01-1.39,.03-2.09,.03h0c-.56,0-1.13,.03-1.69,.08h0c-.64,.05-1.29,.08-1.94,.09-.64,.01-1.27,.03-1.91,.07h0c-.77,.04-1.54,.06-2.31,.08-.7,.02-1.41,.02-2.11,.1h-.03c-.35,.04-.71,.06-1.06,.07-.51,0-1.03,.02-1.54,.04h0c-.66,.02-1.35,.07-2.01,0-.22-.02-.42,.13-.44,.35-.02,.16,.07,.32,.21,.4,.28,.15,.61,.19,.92,.22,.45,.04,.91,.04,1.36,.02,.5-.02,1-.03,1.49-.02,.39,.01,.78,0,1.17-.01,.69-.04,1.38-.03,2.06-.04,.79,0,1.57,0,2.36-.04h0c.62-.03,1.25-.04,1.87-.05,.67,0,1.34-.03,2.01-.08,.54-.04,1.08-.06,1.61-.06,.7,0,1.41-.01,2.11-.03,.69-.01,1.38-.02,2.07-.01,.57,0,1.14-.02,1.71-.07h0c.7-.06,1.41-.08,2.11-.1,1.15-.02,2.31-.02,3.46-.01,1.35,0,2.7,.03,4.05,.07,1.15,.03,2.31,.05,3.46,.03h.01c.8-.01,1.61-.03,2.41,0,.77,.03,1.53,.02,2.3,0,.82-.01,1.63-.03,2.44-.07,.51-.02,1.02-.05,1.53-.06,.52-.01,1.04,.02,1.55,.03,1.24,.03,2.48,.07,3.71,.11h0c2.14,.07,4.28,.17,6.42,.12,.89-.02,1.78-.04,2.67-.09,.72-.03,1.45-.08,2.17-.14,1.26-.1,2.52-.18,3.78-.27,1.23-.08,2.47-.18,3.71-.2,.52-.01,1.05-.02,1.57-.02,.56,0,1.12-.02,1.69-.04h0c.76-.03,1.51-.05,2.27-.06,.73-.01,1.45,.01,2.18,.03,1.43,.03,2.86,.08,4.28,.12,2.34,.07,4.7,.13,7.04,.28,1.16,.07,2.31,.17,3.47,.27h0c.95,.09,1.91,.18,2.86,.26h0c.89,.08,1.78,.2,2.67,.34,.87,.13,1.73,.25,2.6,.35h.01c.83,.09,1.66,.17,2.48,.25h0c.91,.09,1.81,.16,2.72,.21h0c1.23,.07,2.45,.19,3.67,.36,.06,0,.12,0,.18-.01,.23,.35,.68,.47,1.07,.3,.23-.1,.43-.28,.62-.45h0c.36-.34,.73-.67,1.11-.99,.46-.38,.92-.77,1.37-1.17h0c.38-.34,.77-.66,1.18-.96,.37-.27,.72-.56,1.06-.87h0c.48-.45,.93-.93,1.39-1.41h0c.47-.5,.94-.99,1.45-1.44,.65-.58,1.28-1.18,1.9-1.78,.58-.56,1.16-1.12,1.78-1.63,.44-.36,.89-.71,1.34-1.06,.59-.45,1.16-.93,1.73-1.42,.51-.45,1.02-.9,1.51-1.37,.55-.53,1.08-1.06,1.62-1.6,.55-.55,1.12-1.1,1.73-1.59,.58-.47,1.13-.99,1.66-1.52,.49-.5,.98-1,1.44-1.53,.39-.44,.78-.88,1.18-1.31,.54-.58,1.07-1.18,1.6-1.77h0c.48-.54,.96-1.08,1.42-1.64,.41-.5,.8-1.01,1.19-1.53h0c.37-.5,.75-1,1.08-1.52h0c.24-.39,.51-.74,.78-1.09,.43-.54,.81-1.11,1.18-1.69,.37-.58,.73-1.17,1.05-1.78h0c.23-.43,.45-.86,.69-1.28h0c.31-.56,.59-1.13,.87-1.7h0c.28-.58,.57-1.16,.74-1.78,.13-.45,.29-.89,.46-1.32,.18-.46,.36-.93,.48-1.41,.1-.38,.22-.76,.35-1.13,.19-.53,.33-1.07,.45-1.61,.16-.71,.22-1.45,.22-2.18h0Zm-82.45-36.68c-.29,.09-.59,.15-.89,.23,.2-.4,.28-.86,.34-1.3,.08-.51,.19-1.02,.35-1.51,.06-.19,.14-.44,.26-.61,.05,.36,.06,.73,.06,1.09,0,.51-.02,1.15,.31,1.57,.1,.12,.22,.21,.34,.29-.26,.08-.52,.16-.78,.24Zm11.48,23.7c-.2-.12-.39-.26-.55-.43-.15-.16-.28-.34-.39-.54-.22-.41-.36-.86-.52-1.29-.2-.55-.39-1.11-.57-1.67h0c-.12-.39-.25-.77-.38-1.16-.08-.23-.13-.47-.18-.71,.3,.24,.6,.49,.91,.71,.29,.2,.57,.42,.8,.69h0c.21,.25,.39,.53,.54,.81h0c.15,.28,.3,.57,.41,.87h0c.11,.3,.2,.61,.28,.92h0c.11,.44,.29,.87,.54,1.26h0c.16,.25,.31,.5,.46,.75,.14,.25,.34,.46,.55,.64-.3-.16-.62-.3-.94-.42-.33-.12-.67-.26-.97-.44Zm-4.33-10.76c.28-.05,.58-.09,.87-.1,.01,.15,.01,.3,0,.44,0,.2-.01,.43-.06,.64-.04,0-.07,.02-.11,.03-.43,.06-.88,.05-1.31,.03-.45-.01-.92-.04-1.36-.17-.64-.18-1.33-.21-2-.24-.68-.02-1.44-.03-2.07,.25h-.03c-.21,.11-.44,.21-.68,.24-.12,.02-.24,.02-.36,.02-.07-.02-.13-.06-.18-.12-.2-.19-.39-.38-.58-.57-.22-.23-.45-.44-.72-.6-.18-.11-.31-.33-.43-.49-.28-.39-.62-.74-1.03-1-.24-.15-.47-.33-.67-.53-.22-.22-.47-.44-.76-.58-.33-.15-.71-.17-1.07-.17h0c-.51,0-1,.14-1.44,.39h-.02c-.2,.12-.4,.22-.61,.31,.09-.18,.18-.37,.26-.56,.13-.3,.26-.61,.42-.9,.06-.12,.16-.23,.27-.31,.15-.11,.32-.2,.5-.26,.2-.07,.41-.09,.63-.09,.22,0,.43,.16,.59,.29,.35,.28,.7,.57,1.06,.84h0c.27,.21,.53,.42,.79,.64,.3,.26,.66,.45,1.02,.62,.26,.12,.52,.25,.75,.42,.26,.2,.56,.35,.88,.39,.36,.04,.72-.07,.98-.33,.14-.14,.23-.31,.3-.5,.32,.14,.69,.17,1.02,.2,.41,.03,.84,.05,1.24-.04,.07-.01,.14-.02,.22-.03,0,.09,.02,.18,.01,.27,0,.46,.11,.97,.47,1.27,.06,.07,.13,.12,.22,.16,.42,.19,.91,.22,1.35,.24,.55,.03,1.1,.01,1.65-.08Z" style="fill:#4d4d4d;"/><path d="M134.05,64.15c.15,.35,.5,.55,.84,.69,.31,.13,.64,.23,.97,.29,.25,.05,.5,.11,.74,.18,.16,.05,.32,.11,.45,.21,.1,.08,.18,.18,.23,.29,.1,.2,.18,.4,.24,.61,.07,.21,.08,.43,.08,.65,0,.38-.21,.78-.38,1.12-.22,.45-.44,.91-.62,1.37-.13,.33-.21,.69-.22,1.05,0,.34,.07,.69,.26,.98,.24,.37,.67,.53,1.09,.56h0c.39,.03,.78,.01,1.16-.03h0c.45-.05,.88-.18,1.29-.37,.39-.19,.76-.42,1.11-.66,.44-.31,.86-.63,1.28-.97,.35-.28,.7-.56,1.09-.78h0c.2-.11,.42-.19,.63-.27,.4-.15,.81-.29,1.22-.41h0c.71-.22,1.43-.44,2.12-.72h.01c.39-.16,.76-.35,1.13-.55,.38-.21,.73-.45,1.07-.72,.32-.25,.61-.53,.87-.84,.26-.33,.49-.68,.71-1.04,.17-.28,.35-.57,.55-.82,.08-.1,.17-.21,.25-.31,.02-.02,.02-.05,.04-.07,.02-.04,.05-.07,.06-.11v-.04s.03-.06,.03-.1c0-.03,.01-.07,.01-.1,0-.02,0-.04,0-.06,0-.03,0-.05-.02-.08,0-.04-.01-.07-.03-.1,0-.02-.02-.04-.03-.07,0-.02-.02-.04-.03-.05-.01-.02-.02-.04-.03-.06-.01-.02-.04-.03-.05-.05,0,0-.01-.02-.02-.03,0,0-.02,0-.03-.02,0,0,0-.01-.01-.02h0s-.01-.02-.02-.02c-.03-.02-.06-.03-.09-.04-.03-.02-.06-.04-.1-.05,0,0-.02,0-.02-.01-.04-.01-.07,0-.11-.01-.04,0-.07-.01-.11,0,0,0-.01,0-.02,0-.03,0-.06,.02-.1,.03h-.03s-.06,.02-.09,.03h-.02s-.05,.05-.08,.07c-.03,.02-.07,.04-.1,.07,0,0,0,.01-.01,.02h-.01s-.01,.02-.02,.03c-.08,.1-.17,.21-.25,.31-.24,.3-.45,.64-.65,.97h0c-.19,.31-.38,.62-.61,.91-.19,.24-.41,.45-.65,.65-.28,.23-.57,.44-.88,.62-.31,.18-.64,.34-.97,.47-.66,.26-1.35,.47-2.03,.68-.71,.22-1.47,.43-2.11,.8h0c-.44,.26-.85,.57-1.25,.9h0c-.39,.32-.79,.63-1.2,.93-.3,.21-.61,.4-.94,.57-.27,.13-.57,.22-.87,.25-.3,.04-.61,.05-.91,.03-.05,0-.1-.01-.14-.03-.03-.07-.04-.16-.04-.23,0-.21,.06-.42,.13-.61,.16-.44,.36-.88,.55-1.31,.22-.5,.44-1.05,.45-1.6,0-.35-.02-.7-.12-1.03-.08-.27-.17-.53-.29-.78-.14-.29-.34-.55-.59-.74-.25-.19-.53-.32-.82-.41-.29-.09-.58-.16-.87-.22h0c-.26-.05-.51-.12-.75-.22-.07-.03-.14-.06-.2-.1,0-.02,0-.03,0-.04-.01-.12,0-.23,0-.35h0c.01-.18,.04-.37,.15-.51h0c.13-.16,.28-.3,.46-.42h0c.24-.16,.5-.29,.77-.41,.26-.12,.54-.21,.83-.24,.17-.02,.34-.04,.51-.06,.02,0,.03-.01,.05-.02,.02,0,.03-.01,.05-.02,.02,0,.05-.02,.07-.03,.04-.02,.06-.04,.09-.07,.02-.02,.04-.05,.06-.08,.01-.02,.03-.03,.04-.05,.02-.04,.02-.09,.03-.13h0c0-.05,0-.1-.02-.15,0-.02-.03-.03-.04-.05-.02-.03-.03-.05-.06-.08-.02-.02-.03-.04-.05-.05-.05-.04-.1-.06-.16-.08-.17-.03-.34-.06-.51-.09-.12-.02-.23,.01-.32,.08-.31,.01-.63,.06-.93,.16h0c-.34,.11-.67,.25-.98,.43-.28,.17-.54,.38-.76,.63-.27,.32-.4,.73-.43,1.15h0c-.03,.33-.04,.7,.09,1.01Z" style="fill:#4d4d4d;"/><path d="M215.27,105c-.13-.14-.35-.18-.52-.08-.36,.21-.79,.32-1.19,.41h0c-.5,.11-.97,.31-1.42,.54-.36,.18-.73,.36-1.06,.58-.3,.2-.52,.49-.68,.8h0c-.14,.27-.27,.57-.28,.88-.01,.42,.28,.79,.55,1.08,.25,.28,.53,.56,.86,.75,.29,.16,.61,.25,.93,.31h.01c.33,.06,.7,.05,.99-.13,.01,0,.02,0,.04-.01,.01,0,.02-.02,.04-.02,.29-.22,.52-.54,.75-.82,.3-.38,.58-.79,.82-1.22,.24-.43,.39-.9,.46-1.39,.04-.31,.11-.71-.03-1.01-.02-.05-.04-.1-.08-.15-.01-.02-.03-.03-.04-.05h0s-.03-.02-.05-.03c.06-.14,.04-.32-.07-.44Zm-3.19,3.98c-.22-.13-.41-.33-.59-.52-.1-.1-.2-.22-.27-.35,0-.12,.09-.27,.14-.37,.07-.15,.16-.31,.3-.4,.3-.21,.63-.37,.95-.54,.39-.21,.79-.39,1.2-.52h0c.16-.05,.31-.1,.47-.15-.01,.14-.03,.27-.03,.41,0,.09,.02,.17,.06,.24-.06,.26-.14,.51-.27,.74h0c-.21,.38-.45,.75-.7,1.1-.11,.15-.21,.3-.33,.43-.03,.03-.08,.09-.11,.12-.08,.03-.18,0-.27,0-.19-.03-.39-.08-.56-.18Z" style="fill:#4d4d4d;"/><path d="M209.74,110.45h-.01c-.23-.24-.39-.53-.53-.81-.2-.4-.45-.79-.77-1.11h0v-.02c-.24-.22-.46-.45-.67-.68-.19-.21-.35-.44-.49-.69-.17-.31-.38-.59-.62-.85h0s-.02-.02-.03-.03c-.1-.11-.21-.23-.27-.37-.01-.03-.04-.08-.02-.12,.06-.15-.01-.33-.16-.39-.12-.05-.26-.01-.34,.09-.08,.09-.12,.19-.14,.3-.1-.04-.2-.07-.32-.06-.38,.03-.67,.36-.64,.75,.06,.84,.36,1.64,.79,2.36,.44,.72,.85,1.47,1.24,2.22,.29,.56,.56,1.14,.92,1.67h0c.19,.3,.43,.55,.69,.76h0l.03,.03c.28,.22,.58,.4,.9,.55h.02c.27,.13,.55,.24,.84,.28,0,0,.01,0,.02,0h.03c.27,.03,.54,.03,.81,.02h0s.02,0,.03,0c.37,0,.73-.05,1.09-.14h.03c.35-.1,.71-.29,.86-.62,.04-.07,.07-.15,.08-.24,.03-.32-.12-.62-.31-.87h0s-.02-.03-.03-.05c-.19-.23-.43-.43-.69-.58h0c-.22-.12-.47-.21-.72-.25h0c-.18-.03-.36-.1-.54-.16-.18-.07-.34-.18-.46-.33h0c-.19-.23-.4-.45-.61-.66h0Zm1.46,2.24c.13,.02,.25,.07,.37,.13,.08,.04,.13,.11,.19,.18-.23,.04-.46,.07-.69,.06-.22,0-.45,0-.67-.04-.17-.02-.34-.12-.49-.19-.22-.11-.43-.24-.62-.4-.17-.15-.32-.32-.44-.5-.32-.49-.57-1.03-.83-1.54-.4-.79-.82-1.57-1.28-2.32-.12-.2-.23-.41-.32-.63,.02,.04,.04,.07,.06,.1,.15,.32,.34,.63,.56,.9,.21,.26,.44,.51,.67,.75,.24,.26,.42,.57,.58,.89,.19,.39,.4,.78,.7,1.09,.19,.2,.37,.41,.55,.62,.24,.29,.54,.52,.89,.66,.25,.1,.51,.2,.78,.24Z" style="fill:#4d4d4d;"/><path d="M220.02,116.29c-.42,.18-.83,.38-1.23,.6h0c-.49,.28-.95,.6-1.41,.93-.51,.37-1.01,.75-1.48,1.16h0c-.37,.32-.74,.65-1.07,1.01-.43,.46-.89,.88-1.35,1.31-.5,.47-1.01,.94-1.48,1.44-.34,.36-.62,.78-.78,1.25-.18,.51-.25,1.07-.28,1.61h0c-.02,.46-.05,.94,.03,1.4h0c.04,.21,.05,.41,.05,.62,0,.13-.05,.26-.12,.37-.12,.19-.27,.37-.43,.54-.14,.14-.27,.3-.38,.48,0,0-.01,0-.01,.01-.04,.05-.07,.11-.09,.18h0c-.03,.09-.03,.18-.02,.26,0,.05,.02,.1,.04,.15,.01,.02,.02,.05,.03,.07,.11,.19,.32,.33,.55,.39,.23,.05,.47,.07,.7,.08,.51,.03,1.03,.03,1.53-.07,.68-.13,1.33-.37,1.98-.59,.59-.2,1.18-.42,1.79-.57,.31-.08,.63-.11,.94-.12h0c.27,0,.54,.05,.78,.17,.35,.18,.65,.45,.92,.72,.27,.26,.54,.53,.76,.84h0c.19,.26,.35,.53,.52,.8,.21,.35,.47,.69,.8,.95,.33,.25,.72,.4,1.12,.48,.3,.06,.61,.1,.92,.12h0c.3,.01,.59-.04,.87-.13h0c.39-.13,.74-.35,1.09-.56,.52-.32,1.03-.67,1.53-1.03,.61-.44,1.2-.91,1.77-1.41,.49-.43,.97-.87,1.37-1.39,.26-.33,.5-.69,.67-1.08,.22-.49,.25-1.07,.26-1.6,.02-.74-.14-1.48-.41-2.16-.21-.53-.39-1.07-.49-1.63-.1-.52-.13-1.05-.11-1.58,.01-.47,.04-.97-.07-1.44-.08-.38-.29-.71-.53-1.01-.27-.33-.57-.63-.9-.9h0c-.52-.43-1.16-.78-1.85-.7-.25,.03-.45,.18-.57,.39-.23,.23-.34,.62-.43,.89-.05,.18-.12,.37-.21,.54-.03,.05-.06,.13-.12,.17-.07,.05-.15,.08-.24,.06h0c-.03-.13-.03-.27-.02-.39,.01-.29,.01-.58-.04-.86-.03-.16-.03-.33-.02-.49,.02-.28-.02-.57-.18-.8-.03-.06-.08-.11-.13-.15-.31-.26-.8-.25-1.18-.27h0c-.63-.03-1.26,.12-1.85,.33-.53,.19-1.06,.38-1.58,.6Zm-8.32,12.63c.08-.1,.16-.2,.23-.31,.19-.3,.3-.64,.31-.99,0-.28-.02-.56-.06-.84-.06-.37-.03-.76,0-1.13,.02-.42,.06-.86,.2-1.27,.11-.31,.3-.59,.52-.83,.44-.48,.93-.93,1.41-1.38,.48-.44,.97-.89,1.41-1.36,.31-.33,.64-.63,.98-.93,.45-.39,.91-.75,1.39-1.1,.42-.3,.85-.6,1.3-.87,.35-.21,.72-.39,1.1-.55,.5-.21,1-.4,1.51-.58,.45-.16,.93-.28,1.41-.26,.12,0,.26,.01,.39,.03,0,.23,.02,.47,.07,.7,0,0,0,0,0,.01h0c.04,.21,.05,.41,.05,.61h0c0,.31,.02,.63,.16,.91,.16,.32,.47,.48,.82,.51h.02s.03,0,.05,0c.31,.01,.61-.09,.86-.27,.01,0,.03,0,.04-.02h.02c.36-.3,.52-.8,.64-1.23h0s.01-.05,.02-.06c.08,.02,.16,.03,.24,.02,.26-.03,.56,.21,.75,.36h0c.26,.2,.51,.42,.73,.67,.1,.11,.22,.24,.25,.39h0c.08,.34,.04,.73,.03,1.08-.02,.63,.02,1.26,.14,1.88h0c.13,.65,.33,1.27,.58,1.87h0c.21,.53,.34,1.08,.34,1.64,0,.35,.02,.76-.11,1.09h0c-.12,.3-.3,.57-.49,.82-.33,.45-.75,.84-1.17,1.2-.54,.47-1.1,.92-1.68,1.33-.47,.34-.95,.67-1.45,.97h0c-.27,.16-.54,.34-.84,.44-.13,.05-.27,.07-.42,.06-.25-.01-.5-.05-.74-.1-.2-.04-.41-.11-.57-.23-.2-.16-.36-.38-.49-.6-.18-.3-.37-.6-.57-.89-.26-.36-.58-.68-.9-1h0c-.37-.37-.78-.71-1.24-.94h0c-.43-.22-.9-.31-1.37-.3-.41,0-.82,.06-1.22,.16h0c-.64,.16-1.27,.4-1.89,.62-.59,.21-1.19,.44-1.81,.56-.29,.06-.6,.07-.9,.07Z" style="fill:#4d4d4d;"/><path d="M226.29,109.76c-.32-.14-.68-.18-1.03-.2-.4-.01-.82,.05-1.14,.3-.24,.19-.44,.42-.61,.67-.21,.33-.32,.71-.38,1.09-.05,.31-.1,.65-.02,.96h0c.08,.31,.33,.53,.58,.69,.43,.27,1,.35,1.49,.43,.58,.09,1.14,.27,1.66,.54,.41,.21,.83,.43,1.22,.68,.3,.2,.62,.36,.96,.49,.31,.12,.64,.2,.97,.23,.43,.03,.86-.13,1.06-.53,.12-.25,.17-.53,.18-.8,0-.44-.18-.89-.36-1.29h0c-.36-.82-.99-1.48-1.81-1.84-.32-.14-.7,0-.84,.32-.14,.32,0,.69,.31,.84,.53,.25,.92,.67,1.15,1.2h0c.1,.23,.26,.52,.27,.78h0s-.01,.1-.02,.15c-.18-.02-.36-.06-.53-.11h0c-.26-.09-.51-.21-.73-.36-.42-.27-.87-.51-1.32-.74-.62-.32-1.3-.53-1.99-.63h-.02c-.36-.05-.8-.08-1.12-.25-.05-.03-.1-.05-.14-.09-.03-.15,0-.38,.02-.54,.02-.24,.07-.49,.2-.7,.11-.17,.24-.32,.39-.44,.15-.11,.37-.12,.55-.13,.18,0,.36,0,.54,.03-.07,.06-.14,.12-.21,.18-.12,.1-.14,.28-.04,.4,.09,.11,.25,.14,.37,.07,.25-.15,.6-.32,.77-.58,0,0,.02-.01,.02-.02h0v-.02c.04-.05,.05-.11,.05-.16,.03-.27-.22-.5-.46-.61Z" style="fill:#4d4d4d;"/><path d="M178.46,144.77c-.25-.21-.53-.39-.8-.56-.35-.22-.74-.4-1.15-.46-.47-.06-.95-.03-1.41,0-.68,.05-1.35,.18-2.01,.34-.6,.15-1.19,.29-1.8,.41-.5,.11-.99,.23-1.47,.38-.39,.12-.78,.23-1.17,.33-.49,.13-.98,.26-1.46,.4-.43,.12-.87,.24-1.32,.28-.3,.03-.61,.02-.92,.02-.62,0-1.24-.02-1.86-.04-1.04-.04-2.09-.09-3.13-.05-.67,.03-1.34,.02-2.01,.02-.65,0-1.32-.02-1.97,.09h0c-.54,.09-1.07,.22-1.61,.35-.67,.17-1.34,.36-2,.57-.66,.21-1.31,.41-1.97,.61-.46,.14-.94,.29-1.42,.33-.63,.05-1.26,.01-1.89-.01-1.2-.05-2.4-.08-3.59-.1h-.02c-.97-.02-1.94-.06-2.91,0h0c-.5,.03-.99,.09-1.48,.18-.61,.12-1.23,.22-1.84,.32-.56,.09-1.13,.17-1.7,.23,.01-.18,.01-.35,.01-.52,0-.41,.01-.86-.15-1.25-.11-.27-.29-.51-.52-.69h0c-.26-.2-.56-.32-.87-.41h-.01c-.17-.05-.35-.12-.48-.24-.07-.06-.12-.15-.17-.22-.12-.19-.22-.39-.31-.59-.18-.39-.37-.86-.68-1.17h0c-.26-.26-.62-.36-.98-.35h0c-.34,0-.68,.1-.94,.32-.07,.06-.13,.13-.17,.21-.15,.19-.26,.41-.31,.65,0,0,0,.01,0,.02h0c-.03,.19-.08,.36-.14,.52-.07,.18-.17,.35-.27,.51-.07,.12-.16,.24-.27,.33h0c-.12,.09-.28,.14-.43,.18-.29,.09-.62,.08-.92,.06-.53-.03-1.06-.08-1.59-.14h0c-.59-.07-1.17-.17-1.74-.32-.51-.13-1.03-.25-1.56-.31-.61-.06-1.23-.08-1.84-.1-.95-.03-1.9-.03-2.85-.02-.98,.01-1.95,.02-2.93,.03-.74,0-1.47,0-2.21-.01h0c-.63-.02-1.26,.01-1.88,.08h0c-.72,.08-1.43,.19-2.15,.32h0c-.64,.12-1.28,.24-1.89,.46h-.01c-.36,.14-.73,.28-1.05,.5-.3,.2-.57,.49-.59,.86,0,0,0,.02,0,.03h0c0,.25,.07,.49,.22,.69,.05,.07,.11,.12,.18,.16,.15,.12,.32,.22,.5,.29h0s.02,.01,.04,.02c.31,.13,.64,.24,.96,.34,.48,.15,.95,.33,1.42,.51,.38,.15,.79,.29,1.15,.49,.13,.07,.24,.18,.35,.28-.03,0-.06,.01-.09,.02-.28,.04-.57,.06-.85,.08-1.04,.07-2.08,.07-3.12,.06h-1.96c-.1-.09-.23-.13-.36-.09-.1,.03-.21,.06-.31,.09h0s-.08,.03-.12,.06h0c-.05,.05-.09,.1-.12,.16,0,0,0,0-.01,.01h0s0,.03,0,.05c0,.03-.02,.06-.02,.09,0,.03,0,.05,0,.08,0,.02,0,.03,0,.05,0,.01,.01,.02,.02,.04,0,.01,0,.03,.01,.04,0,.01,.02,.02,.03,.03,.01,.02,.03,.04,.05,.05,.02,.02,.04,.04,.07,.06,.02,.01,.04,.02,.06,.03,.03,.01,.05,.02,.08,.03,.01,0,.02,0,.04,0,.07,.01,.15,.02,.23,.02,.77,.05,1.53,.1,2.3,.14,1.07,.07,2.15,.13,3.22,.04h.01c.48-.04,1.04-.04,1.49-.22,.29-.11,.53-.33,.61-.64,.09-.37-.12-.72-.37-.97-.2-.21-.42-.4-.66-.55-.4-.24-.86-.4-1.29-.58-.5-.2-.99-.4-1.51-.55-.27-.08-.54-.18-.8-.31-.02-.01-.04-.03-.07-.04,.22-.12,.45-.22,.68-.3,.55-.19,1.14-.29,1.71-.39,.69-.11,1.38-.22,2.07-.29,.57-.06,1.14-.08,1.72-.07,.75,.02,1.5,.02,2.25,.01h0c.98,0,1.96-.02,2.93-.02,.93,0,1.87,0,2.8,.02,.58,.02,1.17,.03,1.75,.09h0c.46,.05,.92,.15,1.36,.27,.63,.16,1.27,.28,1.91,.35h0c.55,.06,1.1,.1,1.65,.11h.03c.43,0,.86,0,1.28-.11,.29-.07,.58-.17,.83-.34,.24-.16,.43-.39,.6-.62,.16-.22,.3-.46,.41-.7,.11-.24,.19-.5,.24-.76,0-.03,.02-.1,.04-.12,.03-.02,.1-.02,.13-.02,.02,0,.04,0,.06,0,.02,.03,.08,.12,.09,.15,.11,.19,.21,.39,.31,.59,.21,.42,.45,.9,.83,1.2,0,0,0,.01,.01,.02l.04,.03c.28,.2,.59,.33,.92,.43,.15,.04,.33,.1,.45,.2h0c.06,.05,.11,.11,.14,.18,.09,.21,.06,.53,.05,.76,0,.22,.02,.56-.06,.74-.04,.08-.05,.17-.05,.26-.02,.34,.2,.65,.54,.76,.24,.07,.5,.07,.75,.05,.66-.04,1.31-.14,1.95-.25h0c.63-.11,1.25-.22,1.87-.34h0c.43-.09,.87-.14,1.3-.17,.93-.05,1.88,.02,2.81,.06,1.2,.05,2.39,.11,3.59,.16,.68,.03,1.38,.08,2.06,.02,.58-.05,1.15-.21,1.7-.37,.67-.2,1.34-.4,2-.61,.64-.2,1.28-.38,1.92-.55,.49-.13,.99-.25,1.5-.34,.56-.1,1.16-.08,1.73-.08,.69,0,1.39,0,2.08-.02h0c1.01-.04,2.02,0,3.03,.04h0c.63,.02,1.27,.04,1.9,.03,.35,0,.7,0,1.05-.05h.04c.51-.08,1.01-.21,1.51-.36h0c.48-.14,.95-.27,1.43-.39,.41-.11,.82-.22,1.23-.35,.45-.14,.91-.25,1.37-.35,.61-.13,1.22-.28,1.83-.43h0c.59-.15,1.2-.26,1.8-.31,.38-.03,.78-.07,1.16-.03,.23,.02,.44,.14,.64,.26,.23,.14,.46,.29,.68,.46,.25,.2,.54,.34,.84,.43,.6,.19,1.29,.19,1.92,.22,.65,.03,1.31,.08,1.96,.03,.44-.03,.88-.08,1.32-.13,.63-.08,1.28-.1,1.91-.12,.76-.02,1.51-.04,2.27-.05,.94-.02,1.89-.08,2.83-.14,.95-.07,1.9-.13,2.84-.2,.71-.05,1.41-.09,2.12-.12,.69-.02,1.38-.03,2.07,0,.9,.03,1.79,.09,2.69,.15,1.73,.13,3.46,.18,5.19,.24h0c.93,.03,1.86,.06,2.79,.11,.42,.02,.85,.03,1.27,.09,.34,.05,.67,.14,.99,.27,.4,.16,.79,.36,1.17,.56h0c.38,.2,.73,.45,1.04,.75,.24,.24,.45,.53,.59,.85,.05,.12,.1,.24,.15,.37-.02,0-.04,.02-.06,.02-.45,.17-.96,.21-1.43,.26-.72,.08-1.44,.15-2.16,.21-.53,.04-1.07,.08-1.58,.22-.39,.1-.76,.28-1.11,.48h0c-.32,.18-.63,.37-.91,.6-.29,.24-.52,.53-.74,.83-.24,.32-.46,.67-.59,1.05h0c-.12,.35-.15,.73,.01,1.05,.03,.07,.07,.14,.12,.2h0c.22,.24,.56,.31,.87,.36,.37,.05,.75,.07,1.12,.09,.65,.03,1.31,.06,1.94,.23,.36,.09,.72-.12,.82-.48,.08-.32-.08-.65-.38-.78-.72-.32-1.54-.39-2.32-.42h0c-.25,0-.51-.02-.76-.04,.08-.16,.18-.31,.28-.45,.15-.21,.31-.42,.51-.59,.22-.18,.47-.32,.71-.46,.26-.14,.53-.28,.81-.37,.43-.13,.9-.17,1.35-.22,.73-.08,1.46-.18,2.19-.28,.55-.08,1.16-.17,1.67-.43h0s.05-.02,.08-.04c.28-.16,.57-.39,.65-.71,.02-.07,.04-.14,.03-.21-.02-.31-.16-.61-.27-.89-.18-.45-.46-.85-.8-1.19-.38-.38-.82-.69-1.29-.94-.41-.22-.83-.43-1.27-.61-.39-.16-.78-.28-1.19-.38-.46-.11-.95-.12-1.41-.14-.94-.06-1.88-.09-2.82-.12-1.71-.06-3.42-.11-5.12-.29-.92-.1-1.83-.18-2.75-.21h0c-.72-.02-1.44-.02-2.16,0-.72,.03-1.44,.07-2.17,.13-.94,.07-1.89,.14-2.84,.2-.92,.06-1.84,.12-2.76,.13-.76,0-1.52,.03-2.28,.05-.68,.02-1.36,.05-2.04,.13h0c-.42,.05-.83,.1-1.25,.13-.6,.04-1.21,0-1.81-.02h0c-.36-.01-.72-.03-1.08-.07-.17-.02-.35-.03-.51-.08-.15-.05-.3-.11-.42-.21h0Z" style="fill:#4d4d4d;"/></g></g><line x1="105.29" y1="60.56" x2="204.12" y2="61.31" style="fill:none; stroke:#4d4d4d; stroke-miterlimit:10;"/></g></g></svg>