<?xml version="1.0" encoding="UTF-8"?>
<svg id="stroke" xmlns="http://www.w3.org/2000/svg" width="610" height="150" viewBox="0 0 610 150">
  <path d="m302.5,76.75h13c8.28,0,15,6.72,15,15v54h-43v-54c0-8.28,6.72-15,15-15Z" fill="#fff" stroke="#333" stroke-miterlimit="10" stroke-width="3"/>
  <g>
    <rect x="315.97" y="99.48" width="67.65" height="46" fill="#fff" stroke="#333" stroke-miterlimit="10" stroke-width="3"/>
    <line x1="325.41" y1="108.92" x2="325.41" y2="145.48" fill="#fff" stroke="#333" stroke-miterlimit="10" stroke-width="3"/>
  </g>
  <path d="m356.51,47.48v-.14c0-5.02,4.07-9.08,9.08-9.08h0c5.02,0,9.08,4.07,9.08,9.08v.14" fill="none" stroke="#333" stroke-miterlimit="10" stroke-width="3"/>
  <path d="m372.5,47.25h0c8.28,0,15,6.72,15,15v83h-30V62.25c0-8.28,6.72-15,15-15Z" fill="#fff" stroke="#333" stroke-miterlimit="10" stroke-width="3"/>
  <line x1="353.11" y1="72.75" x2="391.89" y2="72.75" fill="#fff" stroke="#333" stroke-miterlimit="10" stroke-width="3"/>
  <line x1="353.11" y1="78.75" x2="391.89" y2="78.75" fill="#fff" stroke="#333" stroke-miterlimit="10" stroke-width="3"/>
  <path d="m359.5,47.25h0c8.28,0,15,6.72,15,15v83h-30V62.25c0-8.28,6.72-15,15-15Z" fill="#fff" stroke="#333" stroke-miterlimit="10" stroke-width="3"/>
  <line x1="340.11" y1="72.75" x2="378.89" y2="72.75" fill="#fff" stroke="#333" stroke-miterlimit="10" stroke-width="3"/>
  <line x1="340.11" y1="78.75" x2="378.89" y2="78.75" fill="#fff" stroke="#333" stroke-miterlimit="10" stroke-width="3"/>
  <path d="m485.71,76.75h5.58c3.98,0,7.21,3.23,7.21,7.21v29.79h-20v-29.79c0-3.98,3.23-7.21,7.21-7.21Z" fill="none" stroke="#333" stroke-miterlimit="10" stroke-width="3"/>
  <path d="m189.28,143.25h-16.21c-11.08,0-20.07-8.99-20.07-20.07v-36.86c0-11.08,8.99-20.07,20.07-20.07h54.86c11.08,0,20.07,8.99,20.07,20.07v36.86c0,11.08-8.99,20.07-20.07,20.07h-15.22" fill="#fff" stroke="#333" stroke-miterlimit="10" stroke-width="3"/>
  <rect x="336" y="104.75" width="64.46" height="40.5" rx="10.74" ry="10.74" fill="#ddd4ff" stroke="#333" stroke-miterlimit="10" stroke-width="3"/>
  <g>
    <path d="m45.58,53.98v-.18c0-6.22,5.04-11.26,11.26-11.26h0c6.22,0,11.26,5.04,11.26,11.26v.18" fill="#e6e6e6" stroke="#333" stroke-miterlimit="10" stroke-width="3"/>
    <circle cx="56.84" cy="96.05" r="42.7" fill="#96d7eb"/>
    <circle cx="56.84" cy="95.93" r="42.7" fill="none" stroke="#333" stroke-miterlimit="10" stroke-width="3"/>
    <g id="white-lines">
      <path d="m68.56,63.85c9.19,3.35,16.86,10.66,20.34,20.62s2.03,20.34-3.02,28.67" fill="none" stroke="#fff" stroke-miterlimit="10" stroke-width="3"/>
      <path d="m45.95,127.53c-9.42-3.27-17.31-10.65-20.85-20.8s-2.02-20.45,3.09-28.79" fill="none" stroke="#fff" stroke-miterlimit="10" stroke-width="3"/>
    </g>
    <g>
      <path d="m62.69,107.13h-5.13v-10.67h-10v10.67h-5.13v-24.9h5.13v10.09h10v-10.09h5.13v24.9Z" fill="#333"/>
      <path d="m76.8,107.13h-10.6v-2.36l4.91-4.39c.64-.56,1.1-1.08,1.38-1.56.28-.48.42-.85.42-1.12,0-.96-.54-1.44-1.62-1.44-.57,0-1.02.18-1.36.54-.34.36-.5.81-.5,1.35h-3.52c0-1.32.49-2.43,1.46-3.33.97-.9,2.23-1.35,3.77-1.35,1.69,0,2.99.37,3.91,1.1.92.73,1.38,1.78,1.38,3.14,0,.8-.21,1.53-.62,2.19s-1.23,1.49-2.46,2.48l-2.53,1.97h6v2.8Z" fill="#333"/>
    </g>
    <line x1="105" y1="145.65" x2="4" y2="145.65" fill="none" stroke="#333" stroke-miterlimit="10" stroke-width="3"/>
    <line x1="16.98" y1="68.13" x2="98" y2="68.13" fill="none" stroke="#333" stroke-miterlimit="10" stroke-width="3"/>
    <line x1="16.98" y1="121.13" x2="98" y2="121.13" fill="none" stroke="#333" stroke-miterlimit="10" stroke-width="3"/>
    <polyline points="10.61 145.75 23.69 120.75 40.25 145.52 57.67 120.75 72.08 144.85 90.61 120.75 100 145.35" fill="none" stroke="#333" stroke-linejoin="bevel" stroke-width="3"/>
  </g>
  <g>
    <path d="m362.16,128.06c-.14,1.91-.84,3.42-2.12,4.52-1.27,1.1-2.95,1.65-5.04,1.65-2.28,0-4.07-.77-5.38-2.3-1.31-1.53-1.96-3.64-1.96-6.32v-1.09c0-1.71.3-3.21.9-4.52.6-1.3,1.46-2.3,2.58-3,1.12-.7,2.42-1.04,3.9-1.04,2.05,0,3.7.55,4.96,1.65,1.25,1.1,1.98,2.64,2.17,4.63h-3.66c-.09-1.15-.41-1.98-.96-2.5-.55-.52-1.39-.78-2.51-.78-1.22,0-2.13.44-2.74,1.31-.61.88-.92,2.23-.93,4.07v1.34c0,1.92.29,3.33.87,4.21.58.89,1.5,1.33,2.75,1.33,1.13,0,1.98-.26,2.53-.78.56-.52.88-1.32.96-2.4h3.66Z" fill="#333"/>
    <path d="m379.03,133.98h-3.66v-7.62h-7.14v7.62h-3.66v-17.77h3.66v7.2h7.14v-7.2h3.66v17.77Z" fill="#333"/>
    <path d="m388.16,130h1.07v2.04h-1.07v1.94h-2.5v-1.94h-4.22l-.15-1.65,4.36-6.04h2.51v5.65Zm-4.48,0h1.98v-2.59l-.17.27-1.81,2.32Z" fill="#333"/>
  </g>
  <path d="m532.86,15.64c-.09.26-.15.5-.24.75-.88,3.08-1.66,6.03,0,9.16" fill="none" stroke="#333" stroke-miterlimit="10" stroke-width="3"/>
  <path d="m524.78,6.25c4.17,8-3.57,13.95,0,20.72" fill="none" stroke="#333" stroke-miterlimit="10" stroke-width="3"/>
  <path d="m517.46,7.62c2.64,7.29-3.57,11.67,0,18.44" fill="none" stroke="#333" stroke-miterlimit="10" stroke-width="3"/>
  <g>
    <path d="m226.01,96.27s0-.03,0-.04c0-7.2-5.84-13.03-13.03-13.03-.63,0-1.24.06-1.84.15-3.1-4.58-8.34-7.59-14.28-7.59-9.31,0-16.88,7.39-17.19,16.63-7.66,2.31-13.23,9.41-13.23,17.82,0,10.28,8.34,18.62,18.62,18.62,3.29,0,6.37-.86,9.06-2.36,2.3,2.04,5.32,3.29,8.63,3.29s6.52-1.33,8.84-3.48c2.57,1.6,5.6,2.55,8.85,2.55,9.26,0,16.76-7.5,16.76-16.76,0-7.29-4.67-13.48-11.17-15.79Z" fill="#e6e6e6"/>
    <path d="m226.01,96.27s0-.03,0-.04c0-7.2-5.84-13.03-13.03-13.03-.63,0-1.24.06-1.84.15-3.1-4.58-8.34-7.59-14.28-7.59-9.31,0-16.88,7.39-17.19,16.63-7.66,2.31-13.23,9.41-13.23,17.82,0,10.28,8.34,18.62,18.62,18.62,3.29,0,6.37-.86,9.06-2.36,2.3,2.04,5.32,3.29,8.63,3.29s6.52-1.33,8.84-3.48c2.57,1.6,5.6,2.55,8.85,2.55,9.26,0,16.76-7.5,16.76-16.76,0-7.29-4.67-13.48-11.17-15.79Z" fill="none" stroke="#333" stroke-miterlimit="10" stroke-width="3"/>
  </g>
  <g>
    <path d="m195.47,109.02c-.13,1.78-.79,3.19-1.97,4.21s-2.75,1.54-4.69,1.54c-2.12,0-3.79-.72-5.01-2.14s-1.83-3.39-1.83-5.89v-1.01c0-1.59.28-3,.84-4.21.56-1.21,1.36-2.14,2.41-2.79,1.04-.65,2.25-.97,3.63-.97,1.91,0,3.45.51,4.62,1.54s1.84,2.46,2.03,4.31h-3.41c-.08-1.07-.38-1.84-.89-2.33s-1.29-.72-2.34-.72c-1.14,0-1.99.41-2.55,1.22s-.86,2.08-.87,3.79v1.25c0,1.79.27,3.1.81,3.93.54.83,1.4,1.24,2.57,1.24,1.05,0,1.84-.24,2.36-.72.52-.48.82-1.23.89-2.24h3.41Z" fill="#333"/>
    <path d="m211.31,106.64c0,1.63-.29,3.06-.86,4.29-.58,1.23-1.4,2.18-2.47,2.84-1.07.67-2.3,1-3.69,1s-2.6-.33-3.67-.99c-1.08-.66-1.91-1.6-2.5-2.83s-.89-2.63-.9-4.23v-.82c0-1.63.29-3.07.88-4.31.59-1.24,1.42-2.19,2.49-2.86,1.07-.66,2.3-1,3.68-1s2.61.33,3.68,1c1.07.66,1.9,1.62,2.49,2.86.59,1.24.88,2.67.88,4.29v.74Zm-3.46-.75c0-1.74-.31-3.06-.93-3.96-.62-.9-1.51-1.35-2.66-1.35s-2.03.45-2.65,1.34c-.62.89-.94,2.2-.94,3.92v.81c0,1.69.31,3,.93,3.94.62.93,1.52,1.4,2.68,1.4s2.03-.45,2.64-1.35c.61-.9.93-2.21.93-3.93v-.81Z" fill="#333"/>
    <path d="m220.2,114.54h-7.05v-1.57l3.27-2.92c.42-.37.73-.72.92-1.04.19-.32.28-.57.28-.74,0-.64-.36-.96-1.08-.96-.38,0-.68.12-.9.36-.22.24-.34.54-.34.9h-2.34c0-.88.32-1.62.97-2.22.65-.6,1.48-.9,2.51-.9,1.12,0,1.99.24,2.6.73.61.49.92,1.19.92,2.09,0,.53-.14,1.02-.41,1.46-.27.44-.82.99-1.64,1.65l-1.68,1.31h3.99v1.87Z" fill="#333"/>
  </g>
  <polyline points="505.52 145.48 518.46 41.16 530.92 41.16 543.85 145.48" fill="none" stroke="#333" stroke-miterlimit="10" stroke-width="3"/>
  <polyline points="518.35 43.08 532.29 53.29 516.44 61.66 535.72 73.84 514.16 86.15 537.86 98.24 510.93 114.17 541.22 125.35 506.22 145.48" fill="none" stroke="#333" stroke-linejoin="bevel" stroke-width="3"/>
  <line x1="493.8" y1="145.48" x2="555.39" y2="145.48" fill="none" stroke="#333" stroke-linejoin="bevel" stroke-width="3"/>
  <line x1="514.16" y1="33.51" x2="535.02" y2="33.51" fill="#fff" stroke="#333" stroke-miterlimit="10" stroke-width="3"/>
  <path d="m454.75,103.58v-9.45c0-1.32-1.07-2.38-2.38-2.38h-18.5c-1.32,0-2.38,1.07-2.38,2.38v25.71c0,7.11-5.76,12.87-12.87,12.87h-17.74" fill="none" stroke="#333" stroke-miterlimit="10" stroke-width="3"/>
  <path d="m400.88,119.72h11.98c3.11,0,5.64-2.52,5.64-5.64v-24.67c0-5.89,4.77-10.66,10.66-10.66h27.94c5.89,0,10.66,4.77,10.66,10.66v14.17" fill="none" stroke="#333" stroke-miterlimit="10" stroke-width="3"/>
  <g>
    <rect x="444.97" y="99.48" width="67.65" height="46" fill="#fff" stroke="#333" stroke-miterlimit="10" stroke-width="3"/>
    <line x1="454.41" y1="108.92" x2="454.41" y2="145.48" fill="#fff" stroke="#333" stroke-miterlimit="10" stroke-width="3"/>
    <line x1="463.96" y1="108.92" x2="463.96" y2="145.48" fill="#fff" stroke="#333" stroke-miterlimit="10" stroke-width="3"/>
    <line x1="473.5" y1="108.92" x2="473.5" y2="145.48" fill="#fff" stroke="#333" stroke-miterlimit="10" stroke-width="3"/>
    <line x1="483.05" y1="108.92" x2="483.05" y2="145.48" fill="#fff" stroke="#333" stroke-miterlimit="10" stroke-width="3"/>
    <line x1="492.6" y1="108.92" x2="492.6" y2="145.48" fill="#fff" stroke="#333" stroke-miterlimit="10" stroke-width="3"/>
    <line x1="502.15" y1="108.92" x2="502.15" y2="145.48" fill="#fff" stroke="#333" stroke-miterlimit="10" stroke-width="3"/>
  </g>
  <g>
    <line x1="200.5" y1="123.78" x2="200.5" y2="143.14" fill="none" stroke="#333" stroke-miterlimit="10" stroke-width="3"/>
    <polygon points="194.52 141.39 200.5 151.75 206.48 141.39 194.52 141.39" fill="#333"/>
  </g>
  <line x1="406.5" y1="116.75" x2="406.5" y2="135.75" fill="none" stroke="#333" stroke-miterlimit="10" stroke-width="3"/>
  <path d="m315.5,76.75v-40.74c0-7.18-5.82-13.01-13.01-13.01H67.95c-6.09,0-11.04,4.94-11.04,11.04v8.71" fill="none" stroke="#333" stroke-miterlimit="10" stroke-width="3"/>
  <g>
    <path d="m302.5,76.75v-31.42c0-5.35-4.33-9.68-9.68-9.68h-83.19c-5.35,0-9.68,4.33-9.68,9.68v12.31" fill="none" stroke="#333" stroke-miterlimit="10" stroke-width="3"/>
    <polygon points="193.96 55.89 199.95 66.25 205.93 55.89 193.96 55.89" fill="#333"/>
  </g>
</svg>