<?xml version="1.0" encoding="UTF-8"?>
<svg id="Layer_1" data-name="Layer 1" xmlns="http://www.w3.org/2000/svg" xmlns:xlink="http://www.w3.org/1999/xlink" viewBox="0 0 345.51046721 200">
  <defs>
    <style>
      .cls-1, .cls-2, .cls-3, .cls-4, .cls-5, .cls-6, .cls-7, .cls-8, .cls-9 {
        stroke: #004000;
        stroke-width: .75px;
      }

      .cls-1, .cls-2, .cls-5, .cls-7, .cls-8 {
        stroke-linecap: round;
      }

      .cls-1, .cls-2, .cls-7 {
        stroke-linejoin: round;
      }

      .cls-1, .cls-3, .cls-8 {
        fill: none;
      }

      .cls-2, .cls-9 {
        fill: #f2f4f7;
      }

      .cls-3, .cls-4, .cls-5, .cls-6, .cls-8, .cls-9 {
        stroke-miterlimit: 10;
      }

      .cls-4 {
        fill: url(#New_Gradient_Swatch_1);
      }

      .cls-10 {
        opacity: .24;
      }

      .cls-10, .cls-11, .cls-12, .cls-13, .cls-14 {
        stroke-width: 0px;
      }

      .cls-10, .cls-11, .cls-14 {
        fill: #00b0a0;
      }

      .cls-5 {
        fill: #fff;
      }

      .cls-11 {
        opacity: .52;
      }

      .cls-6 {
        fill: url(#linear-gradient);
      }

      .cls-7 {
        fill: #d9d29a;
      }

      .cls-12 {
        fill: #dcf8dc;
      }

      .cls-13 {
        fill: #004000;
      }
    </style>
    <linearGradient id="New_Gradient_Swatch_1" data-name="New Gradient Swatch 1" x1="526.90770243" y1="-1192.71849051" x2="600.07803908" y2="-1192.71849051" gradientTransform="translate(905.20840795 1170.61056058) rotate(-61.9753217)" gradientUnits="userSpaceOnUse">
      <stop offset="0" stop-color="#a4ee6e"/>
      <stop offset=".9989046" stop-color="#00b0a0"/>
    </linearGradient>
    <linearGradient id="linear-gradient" x1="280.88649316" y1="-909.55927559" x2="359.88482684" y2="-909.55927559" gradientTransform="translate(546.53300262 976.74741284) rotate(-45.6387841)" gradientUnits="userSpaceOnUse">
      <stop offset="0" stop-color="#a4ee6e"/>
      <stop offset="1" stop-color="#00b0a0"/>
    </linearGradient>
  </defs>
  <g>
    <polygon class="cls-14" points="104.77983702 73.46410243 108.16926723 63.66436006 115.45589975 70.19366016 121.05719249 78.73293104 104.77983702 73.46410243"/>
    <g>
      <g id="ruka">
        <path class="cls-5" d="M44.48951315,171.04787566s13.0461098-7.95046933,16.00591224-9.39371799c10.29170171-5.01840413,20.39194447-16.09358988,24.83001555-14.80155305,4.43807107,1.29203684,29.22863039,1.12542371,29.52589608-10.58105141.29726568-11.70647512,2.51504111-24.74870655-4.15359756-26.12582164-6.66863866-1.37711509-32.63911228-4.65258568-40.07009107.6641549-7.43097879,5.31674058-19.17228933,24.03389936-25.67861913,28.63329388-6.02368353,4.25820669-16.01911375,8.76709192-16.01911375,8.76709192-.69217298,10.14502841,10.89292953,22.12171026,15.55959765,22.83760338Z"/>
        <path class="cls-3" d="M81.27215764,120.57205388c1.94461685,4.17093366,10.90332381,3.40702456,10.90332381,3.40702456"/>
      </g>
      <g id="offset">
        <polyline id="offset-bg" class="cls-4" points="152.89666524 90.39741259 128.94432548 153.26671037 80.87778058 134.95401633 103.45528116 75.6933503"/>
        <g>
          <path class="cls-13" d="M107.323384,128.39781648l9.27832031,3.53515625-.53515625,1.40478516-7.87402344-3-.02099609.05419922.60449219,2.77294922-1.34130859-.51123047-.63134766-2.89208984.52001953-1.36376953Z"/>
          <path class="cls-13" d="M109.6749465,124.18541414l.51611328-1.35449219,6.58349609,2.5078125c.26269531.10058594.47509766.13623047.63623047.10742188.16113281-.02832031.28857422-.09667969.38378906-.20361328.09472656-.10791016.16992188-.23583984.2265625-.38330078.04150391-.10888672.06982422-.20703125.08642578-.29394531.01513672-.08789062.02734375-.15576172.03564453-.20410156l1.21191406.18115234c.00146484.09033203-.01171875.21337891-.03466797.37060547-.0234375.15722656-.07470703.34521484-.15527344.56347656-.12939453.359375-.31933594.66699219-.56933594.92480469-.25048828.25732422-.55078125.42822266-.90087891.51269531-.35107422.08447266-.73583984.046875-1.15576172-.11328125l-6.86425781-2.61523438ZM112.40248557,122.03892977l1.08691406.4140625-1.44824219,3.80126953-1.08691406-.4140625,1.44824219-3.80126953Z"/>
        </g>
        <path class="cls-12" d="M116.32892142,79.69913431c-3.00878861.91306824-5.58102417,3.14909367-6.78711735,6.31490131-2.06893401,5.43041145.65614473,11.50963166,6.08651591,13.57845444.23044258.08785181.46329119.15510481.69569444.22571474.04883521,4.14481293,2.58097966,8.03340309,6.68928445,9.59859771,5.36681141,2.04478006,11.37497078-.64833066,13.41963961-6.0151018l6.11744183-16.05681791"/>
        <g>
          <path class="cls-13" d="M125.29623159,89.76110917l-.68465432,1.79751035c-.41073901-.07695233-.79765236-.07697696-1.16116042-.00012302-.36392845.07680484-.69902622.21322498-1.00687666.40822322-.30700967.19509645-.57733316.440925-.80881946.7373108-.23200489.29717746-.42001425.63358333-.56323642,1.00973621-.25883588.68010746-.31828664,1.35324956-.18171533,2.01903349.13778335.66635162.4786225,1.27971964,1.02115808,1.84079752.54295597.56112699,1.29100597,1.02263534,2.24316192,1.38568801.96036722.36571626,1.83035823.52017402,2.6083897.46233611.77840275-.05736843,1.43930932-.29081237,1.98178073-.69958925.5429409-.40914817.94307897-.94917631,1.19930037-1.62149289.1415682-.37293712.22611753-.74656863.25243596-1.12146224.02589804-.37494271-.00899419-.73653228-.10499888-1.08565859-.09521302-.34860772-.25286428-.67340182-.47080273-.97455715-.21635513-.30011816-.49936183-.5585917-.84822842-.77490205l.69044149-1.79598214c.54287704.31737759,1.00589829.70553807,1.38686363,1.16507667.3817079.46047758.66633377.97140281.85466927,1.53329429.18744564.56221365.27381132,1.15438038.25647655,1.77704633-.01691439.62271505-.149536,1.25833436-.39707317,1.9073765-.38910536,1.02197926-.97935377,1.83978954-1.7690637,2.45362726-.79055069.61373951-1.72622823.97786646-2.80772607,1.09102148-1.08117566.11404489-2.2500044-.06850059-3.50648621-.54763646-1.25984488-.47952869-2.25473747-1.12242008-2.98304534-1.92805736-.72914863-.80573549-1.18460402-1.70009407-1.36537808-2.68423869-.18119445-.98419372-.07914149-1.98558489.30863208-3.00345852.23848165-.62623719.551229-1.1768991.9369809-1.65213302s.83309336-.86486796,1.34192617-1.16806136,1.06522572-.50282415,1.66702769-.59871737c.60185107-.09631361,1.23794776-.07357499,1.9100207.06799189Z"/>
          <path class="cls-13" d="M136.11386704,85.78680206c-.38905626,1.02155888-.97945198,1.84063031-1.77024819,2.45647174-.79121659.61579233-1.72746182.98113132-2.80967466,1.09675954s-2.25113978-.0660765-3.5077198-.5443716c-1.25974668-.48036946-2.25463927-1.12326084-2.98299624-1.92847774-.72919774-.80531511-1.18403633-1.70130612-1.36461398-2.68713227-.18010817-.98619743-.07687072-1.99043309.31218554-3.01199196M125.61527225,81.78733383c-.25878678.67968707-.31935138,1.35142072-.18295494,2.01505362.13644554.66321252.47490969,1.27502477,1.01628233,1.83511458.54090315.56046109,1.29132815,1.02352521,2.25169536,1.38924148.96031811.36613664,1.82956656.51965543,2.60470445.46105342.7771907-.05793612,1.43743137-.28932724,1.97978304-.6934308.54408231-.40432753.94572704-.94631029,1.20456292-1.62641775"/>
        </g>
        <polyline class="cls-3" points="91.47074381 134.95441849 85.64334751 132.73425938 87.86350662 126.90686308"/>
        <polyline class="cls-3" points="128.79938511 142.50287161 126.579226 148.33026791 120.7518297 146.11010879"/>
        <line class="cls-9" x1="96.09155499" y1="105.31015492" x2="137.02743462" y2="120.90616333"/>
      </g>
      <g id="offset-2" data-name="offset">
        <polygon class="cls-14" points="162.1328628 98.99056838 170.00236603 89.10293795 160.77434527 77.92303055 151.23175835 79.45664174 149.34070737 73.38359946 142.02376201 72.28253963 136.27370222 73.89016783 131.138352 69.53263317 122.50072674 66.37439542 162.1328628 98.99056838"/>
        <polyline id="offset-bg-2" data-name="offset-bg" class="cls-6" points="162.91097541 98.21198237 118.6911244 156.48491768 77.7161838 125.39148197 122.74038266 66.05857676"/>
        <g>
          <path class="cls-13" d="M104.93129416,126.57017977l7.91015625,6.00244141-.90820312,1.19775391-6.71289062-5.09423828-.03515625.04638672-.20068359,2.83056641-1.14355469-.86767578.20849609-2.95214844.88183594-1.16308594Z"/>
          <path class="cls-13" d="M108.37318869,123.18932039l.87646484-1.15478516,5.61181641,4.25878906c.22412109.16992188.41748047.26416016.58056641.28173828.16259766.01806641.30419922-.01171875.42626953-.08789062.12060547-.07617188.22900391-.17773438.32470703-.30419922.0703125-.09228516.125-.17822266.16503906-.2578125.03955078-.07910156.07080078-.14111328.09228516-.18554688l1.11181641.51513672c-.02441406.08691406-.07080078.20166016-.13769531.34570312-.06640625.14453125-.16894531.31054688-.30712891.49707031-.22558594.30859375-.49462891.55029297-.80664062.72753906-.31298828.17578125-.64892578.25585938-1.00878906.23876953-.35986328-.01806641-.71875-.16259766-1.07714844-.43408203l-5.8515625-4.44042969ZM111.5943801,121.89635164l.92626953.703125-2.45898438,3.24072266-.92626953-.703125,2.45898438-3.24072266Z"/>
        </g>
        <path class="cls-12" d="M154.27421051,78.96756009l-3.04241943.48901367-.85931396-2.76025391c-2.41546631-.67211914-5.01269531-.27490234-7.14056396,1.05810547-.22949219-.21166992-.46942139-.41601562-.72338867-.60864258-4.26977539-3.24023438-10.35778809-2.40551758-13.59790039,1.86450195-.77844238,1.02563477-1.31561279,2.15771484-1.63250732,3.32861328-3.14416504.0300293-6.24151611,1.45239258-8.28936768,4.15087891-3.51281738,4.62939453-2.60784912,11.22973633,2.0213623,14.74267578.19641113.14892578.40100098.27880859.60412598.41210938-1.11895752,3.9909668.21716309,8.43505859,3.71936035,11.09277344,4.57501221,3.47167969,11.09814453,2.57714844,14.56982422-1.99780273l15.19219971-20.02026367c2.74279785-3.61450195,2.31665039-8.64306641-.82141113-11.75170898Z"/>
        <polyline class="cls-3" points="87.88135483 128.37144305 82.91371668 124.6017978 86.68336192 119.63415964"/>
        <polyline class="cls-3" points="121.57967464 146.11488827 117.81002939 151.08252643 112.84239124 147.31288118"/>
        <line class="cls-9" x1="100.65390647" y1="101.22376941" x2="135.5502203" y2="127.70449825"/>
        <g>
          <path class="cls-13" d="M132.26771994,101.20396883l-.82226562,1.08349609c-.26269531-.13378906-.52539062-.2109375-.78710938-.23095703-.26220703-.01953125-.51660156.00585938-.76464844.07714844-.24755859.07128906-.47949219.18408203-.6953125.33935547-.21679688.15478516-.41113281.34619141-.58300781.57275391-.31103516.41015625-.48583984.85498047-.52490234,1.33447266-.03955078.47851562.0703125.96337891.32666016,1.45166016.25683594.48876953.67285156.95068359,1.24707031,1.38623047.57861328.43945312,1.13769531.71679688,1.67724609.83251953.5390625.11572266,1.03369141.08886719,1.48339844-.08056641.45019531-.16992188.82910156-.45703125,1.13623047-.86181641.17041016-.22460938.30175781-.46142578.39453125-.7109375.09228516-.24902344.14013672-.50146484.14453125-.75732422.00488281-.25537109-.03710938-.50683594-.125-.75439453-.08837891-.24755859-.22900391-.47900391-.42138672-.69482422l.82470703-1.08105469c.30664062.32324219.54199219.67822266.70996094,1.06640625.16650391.38720703.25878906.79101562.27441406,1.20996094.01611328.41845703-.04345703.83789062-.17919922,1.25683594-.13476562.41894531-.35205078.82421875-.64892578,1.21533203-.46728516.61572266-1.02929688,1.05371094-1.68847656,1.3125-.65771484.25927734-1.36523438.31982422-2.12158203.18212891-.75585938-.13769531-1.51269531-.49414062-2.26953125-1.06884766-.75927734-.57568359-1.30664062-1.20996094-1.64160156-1.90136719-.33447266-.69189453-.46484375-1.38916016-.39208984-2.09326172.07275391-.70361328.34082031-1.36279297.80664062-1.97607422.28613281-.37744141.60839844-.68896484.96435547-.93505859s.73730469-.42041016,1.14306641-.52539062c.40527344-.10449219.82177734-.12890625,1.24951172-.07470703.42773438.0546875.85498047.19628906,1.28271484.42578125Z"/>
          <path class="cls-13" d="M139.1749465,94.68443758c.75927734.57617188,1.30566406,1.21044922,1.64013672,1.90185547.33447266.69189453.46484375,1.39013672.39111328,2.09472656-.07275391.70556641-.34277344,1.36474609-.80810547,1.97802734-.46728516.61572266-1.03027344,1.05419922-1.68994141,1.31445312-.65917969.26074219-1.3671875.32177734-2.12451172.18554688-.75683594-.13671875-1.51416016-.4921875-2.27099609-1.06689453-.75927734-.57568359-1.30664062-1.21044922-1.64111328-1.90185547-.33447266-.69189453-.46484375-1.38964844-.39111328-2.09472656s.34277344-1.36572266.81054688-1.98144531c.46533203-.61328125,1.02880859-1.05029297,1.6875-1.31103516.65917969-.25976562,1.36621094-.32275391,2.12255859-.18652344.75634766.13574219,1.51464844.4921875,2.27392578,1.06787109ZM138.36830588,95.74742586c-.57910156-.43896484-1.13818359-.71630859-1.67626953-.83154297-.53808594-.11425781-1.03271484-.08789062-1.48291016.07910156-.44921875.16796875-.82958984.45507812-1.13867188.86230469-.31103516.40966797-.48583984.85351562-.52539062,1.33105469-.0390625.47753906.06933594.95996094.32421875,1.44726562.25585938.48730469.67333984.95117188,1.25244141,1.39013672.57861328.43945312,1.13720703.71630859,1.67529297.83154297.5390625.11474609,1.03271484.08935547,1.48144531-.07714844.44873047-.16699219.82958984-.45458984,1.140625-.86425781.30908203-.40722656.48339844-.85058594.5234375-1.32910156.04052734-.47802734-.06689453-.96142578-.32275391-1.44921875-.25585938-.48730469-.67285156-.95068359-1.25146484-1.39013672Z"/>
          <path class="cls-13" d="M145.21547385,97.7698868l-.45361328-.34375-.38964844-2.50683594c-.04394531-.26904297-.08837891-.49853516-.13378906-.68701172-.04492188-.18847656-.10302734-.34765625-.17431641-.47802734-.07128906-.13085938-.16748047-.2421875-.28955078-.33496094-.13671875-.10400391-.28125-.16210938-.43066406-.17382812-.14941406-.01123047-.29443359.01806641-.43408203.08935547-.13916016.0703125-.26318359.17480469-.36962891.31542969-.11279297.1484375-.18066406.30126953-.203125.45849609-.0234375.15673828-.00244141.30664062.06298828.44970703.06542969.14355469.17333984.27197266.32177734.38476562l-.45361328.59716797c-.25292969-.19189453-.42871094-.41748047-.52978516-.67626953-.10107422-.25976562-.12695312-.53076172-.07763672-.8125.04833984-.28222656.17089844-.55175781.36669922-.80957031.19726562-.26025391.42382812-.45117188.67773438-.57177734.25439453-.12060547.51269531-.16992188.77490234-.14746094.26318359.0234375.50585938.11865234.72802734.28759766.15429688.1171875.28271484.25976562.38623047.42822266.10400391.16992188.19238281.39355469.26513672.671875.07177734.27832031.14111328.64111328.20654297,1.08837891l.23632812,1.47851562.03027344.02246094,1.41650391-1.86669922.53710938.40722656-2.07080078,2.72949219Z"/>
          <path class="cls-13" d="M147.45424338,91.31334383c-.27636719.36474609-.59277344.61816406-.94824219.76220703-.35546875.14355469-.72998047.17822266-1.12255859.10400391s-.78076172-.25634766-1.1640625-.54736328c-.37890625-.28759766-.65917969-.61230469-.83984375-.97314453-.18164062-.36132812-.25634766-.73193359-.22363281-1.11035156.03271484-.37939453.17822266-.74121094.43847656-1.08447266.15869141-.20849609.34716797-.38378906.56494141-.52783203.21728516-.14355469.45947266-.23632812.72460938-.28076172.26611328-.04345703.55029297-.02099609.85351562.06738281.30419922.08886719.62304688.25976562.95898438.51513672l.25537109.19335938-2.23095703,2.93994141-.54003906-.40966797,1.6953125-2.234375c-.18896484-.14306641-.38574219-.23242188-.59130859-.26660156-.20556641-.03515625-.40380859-.01513672-.59375.05957031s-.35644531.20458984-.49755859.390625c-.15332031.20214844-.23779297.41552734-.25292969.640625-.015625.22509766.02539062.43847656.12207031.63867188.09716797.20214844.23730469.37207031.421875.51171875l.42138672.3203125c.24658203.1875.49072266.30371094.73046875.34765625.23925781.04394531.46435547.02148438.67431641-.06640625.20996094-.08886719.39501953-.23828125.5546875-.44824219.10351562-.13671875.17773438-.27587891.22412109-.41845703.04589844-.14208984.06054688-.28369141.04394531-.42529297s-.06640625-.27832031-.1484375-.40869141l.64013672-.58789062c.15917969.20654297.25976562.43652344.30371094.69140625.04345703.25439453.02587891.51806641-.05078125.79248047-.07763672.2734375-.21923828.54492188-.42382812.81445312Z"/>
          <path class="cls-13" d="M152.47377463,87.42418367l-1.96289062-1.48925781-.03320312.04345703c.04589844.10302734.08886719.23388672.12841797.39160156s.04345703.33544922.01171875.53417969c-.03173828.19824219-.1328125.41015625-.30322266.63476562-.2265625.29882812-.50488281.50634766-.83544922.62353516s-.68847656.13427734-1.07373047.05029297-.77832031-.27734375-1.17773438-.58056641c-.39941406-.30273438-.69091797-.62939453-.87304688-.97949219-.18212891-.34912109-.26025391-.69873047-.23339844-1.04785156.02685547-.34863281.15283203-.67138672.37792969-.96875.17431641-.22949219.35400391-.38476562.53613281-.46777344.18310547-.08203125.35400391-.12451172.51416016-.12597656.16064453-.00048828.29589844.00683594.40576172.02148438l.04589844-.06005859-.60009766-.45507812.53320312-.703125,5.08544922,3.85888672-.54589844.71972656ZM149.82143088,86.91441805c.15722656-.20703125.23486328-.42382812.234375-.65136719-.00146484-.22753906-.07128906-.45214844-.21044922-.67529297-.13964844-.22363281-.33935547-.43359375-.59912109-.63085938-.25683594-.19482422-.50927734-.32861328-.75732422-.40087891-.24951172-.07226562-.48144531-.07763672-.69726562-.01660156-.21582031.06152344-.40332031.19726562-.56298828.40771484-.16455078.21679688-.24511719.43945312-.24316406.66894531.00341797.22998047.07421875.45507812.21240234.67480469.13916016.22119141.33105469.42431641.57421875.60888672.24755859.1875.49804688.31933594.75097656.39501953.25341797.07617188.49316406.08496094.71777344.02685547.22509766-.05810547.41845703-.19384766.58056641-.40722656Z"/>
        </g>
      </g>
      <g id="palec">
        <path class="cls-5" d="M62.91542345,160.22939508s4.95133539.64655836,7.08052105.0205306c2.12918566-.62602776,14.45127871-6.64146879,18.71556445-10.11873124,7.06884487-5.76420772,6.95571522-8.79183606,13.14158238-15.51467721,6.29981381-6.84667912,13.32621451-12.99201394,15.27183571-15.27486985,3.85605135-4.52442113-2.5019049-11.86703262-9.1142203-8.06917961-10.75256672,6.17584995-18.15811436,19.82839942-33.97146913,19.00370858"/>
        <path class="cls-8" d="M111.58053136,121.89794465c1.53734834-1.35909433,2.47208619-2.39860028,3.53477695-3.51099633,2.06982899-2.16664121-1.48842216-8.5025262-6.42348678-4.79171034-.98899496.74365352-2.75056998,2.47515068-2.75056998,2.47515068,1.09454764,2.91435448,3.44002262,5.16569199,5.6392798,5.827556Z"/>
      </g>
    </g>
    <polygon class="cls-14" points="135.14747493 66.81553979 130.50830091 59.414732 139.33343346 53.8827243 143.98757552 63.68686134 135.14747493 66.81553979"/>
    <polygon class="cls-14" points="167.83968151 77.96121577 173.14957342 73.23761441 178.78225695 79.56942323 171.54618359 84.63027926 167.83968151 77.96121577"/>
    <polygon class="cls-14" points="153.35820712 62.12711606 159.58455836 56.58824603 166.18941335 64.01289163 157.70443191 69.94722472 153.35820712 62.12711606"/>
    <polygon class="cls-11" points="131.91121304 36.55853718 135.98989426 32.93020265 140.31652104 37.79384773 134.75828426 41.68123731 131.91121304 36.55853718"/>
    <polygon class="cls-11" points="178.88208211 59.55424463 181.83875429 56.92403277 184.9751644 60.44973221 180.94594928 63.26773538 178.88208211 59.55424463"/>
    <polygon class="cls-10" points="169.68185968 50.76229378 167.83968151 47.25996536 172.01605164 45.06325021 173.78263867 49.65181061 169.68185968 50.76229378"/>
    <polygon class="cls-10" points="153.35820712 28.32493041 154.89882419 24.6798757 159.24538904 26.5169927 156.81681225 30.79223902 153.35820712 28.32493041"/>
    <polygon class="cls-10" points="141.11674339 17.38078595 144.58403821 15.47348644 146.85840765 19.60808056 142.30365803 21.46009898 141.11674339 17.38078595"/>
    <polygon class="cls-10" points="179.09156036 36.93158009 180.80848832 33.36617924 185.0600695 35.41353911 182.42544239 39.56497938 179.09156036 36.93158009"/>
    <polygon class="cls-10" points="124.47100736 24.14987525 126.8633908 22.0216463 129.40120872 24.87445665 126.14098 27.15463643 124.47100736 24.14987525"/>
    <polygon class="cls-10" points="114.09066188 16.65892272 114.16798269 13.45784814 117.98512109 13.55004975 117.42655202 17.48912474 114.09066188 16.65892272"/>
    <polygon class="cls-14" points="119.10728395 60.46018615 115.09944274 64.16662119 110.67968459 59.38744965 116.16180186 55.39343113 119.10728395 60.46018615"/>
    <polygon class="cls-11" points="124.4723886 41.5011041 117.80347407 42.67369128 118.38449092 50.68910689 127.90681284 52.08303807 124.4723886 41.5011041"/>
    <polygon class="cls-11" points="157.68486993 46.0274163 154.38511511 41.04818385 148.10846055 44.34437238 150.3389992 52.53595832 157.68486993 46.0274163"/>
  </g>
  <polyline class="cls-7" points="79.52236218 96.65402384 78.67147914 82.36909142 81.54318737 79.0762146 80.9828186 77.29321906 78.46968296 78.98159373 77.93468738 69.999659 82.46023453 66.07298092 87.14718339 68.47955795 87.7585188 70.44192788 89.08312291 70.44192788 88.8283778 68.27586759 93.51537071 65.25258096 93.00588048 64.35306596 87.7585188 67.10411936 84.0395397 64.70970031 86.68870386 62.51897163 85.7207341 61.70385775 77.75064362 66.90976773 77.68835595 65.86435687 83.59801968 56.72031563 82.5451202 51.46383546 81.39037554 51.46383546 81.5160962 56.80048787 75.61911906 62.92494275 70.99754142 57.16980882 72.18624916 52.68650628 71.16735681 52.34696359 69.57104808 56.35469494 65.80110233 56.52437818 65.80110233 57.81506326 69.50312192 57.81506326 74.74819296 65.42984091 74.53062663 69.64637251 72.47495735 66.08513891 67.74840692 65.12571498 66.20865927 62.16233728 65.05391461 62.33219673 65.70749463 64.71128613 65.6992131 64.70970031 59.43295907 68.47955795 59.75179793 69.29467183 65.75017974 66.08513891 70.0867935 67.41141694 67.76250314 70.00794053 68.78989728 70.85706154 71.33541017 68.52977574 74.21848347 75.69611742 73.13721535 96.65402384"/>
  <polyline class="cls-1" points="78.46968296 78.98159373 76.47416489 80.45656015 76.97337541 82.6824819 75.41236902 83.33808904 75.91202542 86.097599 74.80822144 86.47968499"/>
  <polyline class="cls-1" points="74.53062663 69.64637251 75.78466343 70.72925125 74.89312944 72.46986522 76.29411142 74.29538719"/>
  <line class="cls-2" x1="49.06979766" y1="96.65402384" x2="95.27197238" y2="96.65402384"/>
</svg>