<?xml version="1.0" encoding="UTF-8"?>
<svg id="Layer_1" data-name="Layer 1" xmlns="http://www.w3.org/2000/svg" xmlns:xlink="http://www.w3.org/1999/xlink" viewBox="0 0 660 200">
  <defs>
    <style>
      .cls-1, .cls-2, .cls-3, .cls-4, .cls-5, .cls-6, .cls-7, .cls-8, .cls-9 {
        stroke: #004000;
        stroke-width: .75px;
      }

      .cls-1, .cls-2, .cls-5, .cls-7, .cls-8 {
        stroke-linecap: round;
      }

      .cls-1, .cls-2, .cls-7 {
        stroke-linejoin: round;
      }

      .cls-1, .cls-3, .cls-8 {
        fill: none;
      }

      .cls-2, .cls-9 {
        fill: #f2f4f7;
      }

      .cls-3, .cls-4, .cls-5, .cls-6, .cls-8, .cls-9 {
        stroke-miterlimit: 10;
      }

      .cls-4 {
        fill: url(#New_Gradient_Swatch_1);
      }

      .cls-10 {
        opacity: .24;
      }

      .cls-10, .cls-11, .cls-12, .cls-13, .cls-14 {
        stroke-width: 0px;
      }

      .cls-10, .cls-11, .cls-14 {
        fill: #00b0a0;
      }

      .cls-5 {
        fill: #fff;
      }

      .cls-11 {
        opacity: .52;
      }

      .cls-6 {
        fill: url(#linear-gradient);
      }

      .cls-7 {
        fill: #d9d29a;
      }

      .cls-12 {
        fill: #dcf8dc;
      }

      .cls-13 {
        fill: #004000;
      }
    </style>
    <linearGradient id="New_Gradient_Swatch_1" data-name="New Gradient Swatch 1" x1="45.18756732" y1="-421.94736748" x2="132.36739394" y2="-421.94736748" gradientTransform="translate(445.36504048 404.92921432) rotate(-61.9753217)" gradientUnits="userSpaceOnUse">
      <stop offset="0" stop-color="#a4ee6e"/>
      <stop offset=".9989046" stop-color="#00b0a0"/>
    </linearGradient>
    <linearGradient id="linear-gradient" x1=".12162919" y1="-280.06534265" x2="94.24530483" y2="-280.06534265" gradientTransform="translate(285.60540603 356.6128046) rotate(-45.6387841)" gradientUnits="userSpaceOnUse">
      <stop offset="0" stop-color="#a4ee6e"/>
      <stop offset="1" stop-color="#00b0a0"/>
    </linearGradient>
  </defs>
  <g>
    <polygon class="cls-14" points="99.92631431 81.45446154 103.96469861 69.77842067 112.64645939 77.55784711 119.3201984 87.73208148 99.92631431 81.45446154"/>
    <g>
      <g id="ruka">
        <path class="cls-5" d="M28.09256005,197.72202051s15.543971-9.47269849,19.07046923-11.19227741c12.26219274-5.97924818,24.29626902-19.17493399,29.58407122-17.63551854,5.28780219,1.53941546,34.82486274,1.34090191,35.17904412-12.6069425.35418138-13.94784441,2.99658109-29.48719447-4.94886223-31.12797761-7.94544332-1.64078314-38.88832934-5.54338864-47.74207353.7913167-8.85374419,6.33470533-22.84309375,28.63552739-30.59515189,34.11554068-7.17700246,5.07350024-19.08619836,10.44567497-19.08619836,10.44567497-.82469923,12.08743677,12.97853408,26.35722279,18.53870144,27.21018372Z"/>
        <path class="cls-3" d="M71.91775911,137.58189279c2.31694109,4.96951757,12.99091849,4.05934733,12.99091849,4.05934733"/>
      </g>
      <g id="offset">
        <polyline id="offset-bg" class="cls-4" points="157.25578598 101.62989207 128.71743392 176.53640106 71.44787302 154.71748421 98.3481536 84.11053027"/>
        <g>
          <path class="cls-13" d="M102.95691604,146.90660555l11.05566406,4.21191406-.63720703,1.67382812-9.38183594-3.57470703-.02490234.06494141.71972656,3.30322266-1.59863281-.60888672-.75146484-3.4453125.61865234-1.625Z"/>
          <path class="cls-13" d="M105.75965042,141.88756258l.61474609-1.61376953,7.84375,2.98828125c.3125.11914062.56542969.16162109.75732422.12744141.19335938-.03369141.34472656-.11474609.45751953-.24267578.11230469-.12792969.20263672-.28027344.27001953-.45703125.04931641-.12890625.08398438-.24609375.10205078-.35009766.01953125-.10400391.03466797-.18505859.04345703-.24316406l1.4453125.21630859c-.00048828.10742188-.01318359.25488281-.04199219.44140625-.02783203.1875-.08935547.41113281-.18554688.671875-.15380859.42724609-.38085938.79443359-.67773438,1.1015625-.29931641.30664062-.65625.50976562-1.07470703.61035156-.41650391.10107422-.87548828.05566406-1.37548828-.13476562l-8.17871094-3.11572266ZM109.00867386,139.32945711l1.29492188.49365234-1.72558594,4.52978516-1.29492188-.49365234,1.72558594-4.52978516Z"/>
        </g>
        <path class="cls-12" d="M113.68663334,88.88327797c-3.5848635,1.08788799-6.64958974,3.75203195-8.08660642,7.52397798-2.46506053,6.47014009.78177286,13.71331251,7.25186497,16.17824051.27456405.10467227.55199481.1848018.82889492.268931.0581854,4.93839565,3.07514452,9.57151108,7.97004203,11.43638423,6.39436294,2.43628196,13.55286891-.77246268,15.98901834-7.16677763l7.2887121-19.13112151"/>
        <g>
          <path class="cls-13" d="M124.37086116,100.87175942l-.81574102,2.14166899c-.48938077-.09168593-.95037412-.09171529-1.38348092-.00014657-.43360767.09151021-.83286462.2540499-1.19965736.48638329-.36579099.23245041-.68787172.5253463-.96367933.87847932-.27642549.35407626-.50043189.75489177-.67107596,1.20306441-.30839365.8103236-.37922709,1.61234822-.21650729,2.40560584.16416391.79393401.57026151,1.52473996,1.21667316,2.1932441.64691253.66856264,1.53818722,1.21843326,2.67264682,1.65099747,1.14424303.43573778,2.18080605.61976866,3.10780259.55085686.9274389-.06835242,1.71488533-.34649248,2.36122053-.83353545.64689457-.48748534,1.1236447-1.13090946,1.42892329-1.9319505.16867342-.44434117.26941092-.8895097.30076837-1.33618196.03085658-.44673076-.01071626-.87755175-.12510239-1.2935232-.1134429-.41535357-.3012787-.80233406-.56094454-1.16114983-.25777936-.35758-.59497167-.66554194-1.01063368-.92326794l.82263622-2.13984818c.64681849.378144,1.19849167.84062325,1.65239817,1.38814699.45479124.54864249.79391274,1.15739154,1.01830772,1.82686504.22333474.66985736.32623635,1.37540274.30558259,2.11728684-.02015289.74194261-.17816677,1.49926016-.47309841,2.27257055-.46360506,1.21765156-1.16686483,2.19204312-2.10777582,2.9234087-.94191274.73124857-2.0567389,1.16509274-3.34530471,1.29991289-1.28818195.13588039-2.68079938-.081616-4.17785231-.65248917-1.5010599-.5713412-2.68643867-1.33732318-3.55419132-2.29721106-.86875439-.96000488-1.41141312-2.02560099-1.62679892-3.19817394-.21588667-1.17263145-.09429424-2.36575305.36772403-3.57851289.28414232-.74613911.65676955-1.40223298,1.11637907-1.96845712s.99260079-1.0304591,1.59885681-1.39170314,1.26917816-.5990969,1.98620358-.71335023c.71708392-.1147542,1.47497027-.08766195,2.27572103.08100989Z"/>
          <path class="cls-13" d="M137.25968504,96.13651532c-.46354655,1.21715069-1.16698184,2.19304487-2.1091871,2.9267978-.94270613.73369443-2.05820868,1.16898271-3.34762639,1.30674958s-2.68215215-.07872777-4.17932209-.6485992c-1.5009429-.57234295-2.68632166-1.33832493-3.55413282-2.29771193-.8688129-.95950401-1.41073674-2.0270451-1.62588852-3.20162154-.21459241-1.1750188-.0915887-2.3715295.37195785-3.58868018M124.75098663,91.37129265c-.30833515.80982272-.38049569,1.61016922-.21798424,2.40086398.16256995.79019388.56583783,1.5191462,1.21086387,2.18647308.64446667.66776925,1.53857108,1.21949351,2.68281411,1.65523129,1.14418452.43623865,2.17986281.61915078,3.10341175.54932858.92599479-.06902881,1.71264783-.34472301,2.35884035-.82619788.64825451-.48174173,1.12679978-1.1274947,1.43519344-1.9378183"/>
        </g>
        <polyline class="cls-3" points="84.06900803 154.71796338 77.12587475 152.07272358 79.77111456 145.1295903"/>
        <polyline class="cls-3" points="128.54474268 163.711674 125.89950288 170.65480727 118.95636961 168.00956747"/>
        <line class="cls-9" x1="89.5745385" y1="119.39788864" x2="138.34816798" y2="137.9799722"/>
      </g>
      <g id="offset-2" data-name="offset">
        <polygon class="cls-14" points="168.26038345 111.86832838 177.63661375 100.08757206 166.64175864 86.76711416 155.27210926 88.59435678 153.01898997 81.35854514 144.30111251 80.04667193 137.45012291 81.96210315 131.33153767 76.7702572 121.04011759 73.00733042 168.26038345 111.86832838"/>
        <polyline id="offset-bg-2" data-name="offset-bg" class="cls-6" points="169.18747666 110.94067113 116.5011133 180.37077943 67.68094408 143.32406817 121.325659 72.63104384"/>
        <g>
          <path class="cls-13" d="M100.10633011,144.72789461l9.42480469,7.15185547-1.08251953,1.42675781-7.99804688-6.06884766-.04199219.05517578-.23828125,3.37207031-1.36230469-1.03369141.24755859-3.51806641,1.05078125-1.38525391Z"/>
          <path class="cls-13" d="M104.20740433,140.70006258l1.04394531-1.37597656,6.68652344,5.07421875c.26660156.20214844.49707031.31396484.69140625.3359375.19433594.02148438.36328125-.01367188.50732422-.10449219.14404297-.09130859.2734375-.21191406.38720703-.36230469.08398438-.11083984.14941406-.21337891.19726562-.30761719.04736328-.09472656.08447266-.16796875.10986328-.22119141l1.32470703.61425781c-.02978516.10302734-.08398438.24023438-.1640625.41210938-.07910156.171875-.20166016.36865234-.36572266.59179688-.26904297.3671875-.58935547.65527344-.96142578.86621094-.37304688.21044922-.7734375.30517578-1.20263672.28417969-.42822266-.02050781-.85595703-.19287109-1.28222656-.51660156l-6.97216797-5.29052734ZM108.04529495,139.15953523l1.10351562.83789062-2.9296875,3.86083984-1.10351562-.83789062,2.9296875-3.86083984Z"/>
        </g>
        <path class="cls-12" d="M158.89704056,88.01158602l-3.62493896.58276367-1.02380371-3.28881836c-2.88092041-.80175781-5.98822021-.34594727-8.52496338,1.24633789-.26855469-.24682617-.5480957-.48583984-.84460449-.7109375-5.08734131-3.86035156-12.34100342-2.8659668-16.20147705,2.22143555-.92749023,1.22216797-1.56750488,2.57104492-1.94506836,3.96630859-3.74621582.03564453-7.43658447,1.73022461-9.87646484,4.94555664-4.1854248,5.51538086-3.10717773,13.37963867,2.40838623,17.56518555.23406982.17749023.47772217.33227539.7197876.4909668-1.33325195,4.75537109.25872803,10.05004883,4.43145752,13.21655273,5.45098877,4.13647461,13.22302246,3.07080078,17.35943604-2.38012695l18.10095215-23.85351562c3.26794434-4.30639648,2.76019287-10.29785156-.97869873-14.00170898Z"/>
        <polyline class="cls-3" points="79.79238006 146.87458471 73.87361771 142.38318786 78.36501456 136.46442552"/>
        <polyline class="cls-3" points="119.94271711 168.01526205 115.45132026 173.93402439 109.53255792 169.44262755"/>
        <line class="cls-9" x1="95.01041633" y1="114.52910716" x2="136.58812021" y2="146.07994394"/>
        <g>
          <path class="cls-13" d="M132.67713089,114.50572664l-.97949219,1.29101562c-.31298828-.15917969-.62597656-.25097656-.93847656-.27490234-.31201172-.02441406-.61572266.00634766-.91064453.09130859s-.57128906.21923828-.82910156.40429688c-.25683594.18505859-.48876953.41259766-.69384766.68310547-.37060547.48828125-.57861328,1.01806641-.62548828,1.58886719-.04638672.57128906.08349609,1.14794922.38867188,1.72949219.30615234.58251953.80126953,1.13330078,1.48486328,1.65185547.69042969.52392578,1.35644531.85449219,1.99951172.9921875.64306641.13818359,1.23291016.10595703,1.76855469-.09619141.53564453-.20117188.98632812-.54394531,1.35302734-1.02685547.20263672-.26757812.359375-.54980469.46972656-.84619141.10986328-.29736328.16748047-.59765625.17285156-.90234375.00537109-.30517578-.04492188-.60449219-.14990234-.89941406-.10400391-.29394531-.27197266-.5703125-.50146484-.82763672l.98339844-1.28808594c.36376953.38476562.64550781.80859375.84472656,1.27099609.19921875.46142578.30859375.94238281.32763672,1.44091797.01904297.49951172-.05224609.99853516-.21386719,1.49755859s-.41894531.98193359-.77246094,1.44824219c-.55712891.73388672-1.22753906,1.25537109-2.01171875,1.56396484-.78417969.30957031-1.62695312.38134766-2.52832031.21679688s-1.80273438-.58837891-2.70556641-1.2734375c-.90429688-.68652344-1.55615234-1.44189453-1.95410156-2.265625-.39892578-.82421875-.55517578-1.65576172-.46777344-2.49365234.0859375-.83886719.40673828-1.62353516.96142578-2.35449219.34082031-.44970703.72363281-.82128906,1.1484375-1.11376953.42431641-.29345703.87841797-.50244141,1.36181641-.62597656.48388672-.12451172.98046875-.15429688,1.48925781-.08984375.50976562.06494141,1.01855469.234375,1.52832031.5078125Z"/>
          <path class="cls-13" d="M140.90564651,106.73766023c.90576172.6875,1.55761719,1.44238281,1.95556641,2.26660156.3984375.82373047.55419922,1.65625.46630859,2.49560547-.08740234.84033203-.40869141,1.62548828-.96337891,2.35644531-.55664062.73388672-1.22753906,1.25585938-2.01318359,1.56591797-.78515625.31103516-1.62890625.38427734-2.53173828.22119141-.90185547-.16308594-1.80371094-.58642578-2.70654297-1.27148438-.90429688-.68652344-1.55615234-1.44189453-1.95458984-2.265625-.3984375-.82421875-.55419922-1.65625-.46582031-2.49560547.08691406-.84033203.40917969-1.62695312.96582031-2.36083984.5546875-.73095703,1.22460938-1.25146484,2.01074219-1.56152344.78466797-.31103516,1.62792969-.38525391,2.52880859-.22314453.90087891.16162109,1.80371094.5859375,2.70800781,1.27246094ZM139.94470901,108.00377352c-.68896484-.52294922-1.35400391-.85253906-1.99609375-.99023438-.64208984-.13671875-1.23095703-.10546875-1.76611328.09472656-.53662109.19921875-.98876953.54150391-1.35742188,1.02685547-.37060547.48828125-.57910156,1.01708984-.62548828,1.5859375-.04785156.56835938.08154297,1.14355469.38623047,1.72412109.3046875.58154297.80175781,1.13330078,1.49072266,1.65625.69042969.52392578,1.35546875.85400391,1.99707031.99072266.64257812.13769531,1.22998047.10644531,1.76513672-.09179688s.98779297-.54150391,1.35839844-1.02978516c.36865234-.48535156.57666016-1.01318359.62451172-1.58300781.04785156-.5703125-.07958984-1.14550781-.38525391-1.72705078-.30419922-.58056641-.80126953-1.1328125-1.49169922-1.65673828Z"/>
          <path class="cls-13" d="M148.10291214,110.41392977l-.54052734-.41064453-.46337891-2.98583984c-.05322266-.32080078-.10546875-.59423828-.15966797-.81835938-.05371094-.22460938-.12304688-.41455078-.20800781-.57080078-.08447266-.15527344-.19921875-.28759766-.34423828-.39746094-.1640625-.12451172-.33496094-.19335938-.51318359-.20751953-.17871094-.01367188-.35107422.02148438-.51806641.10546875-.16650391.08349609-.31347656.20898438-.44042969.37646484-.13427734.17675781-.21435547.35888672-.2421875.54589844s-.00292969.36523438.07568359.53662109c.07763672.17041016.20556641.32324219.38232422.45703125l-.54003906.71191406c-.30029297-.22753906-.51025391-.49658203-.63134766-.80615234-.11962891-.30859375-.15039062-.63134766-.09179688-.96679688.05810547-.3359375.203125-.65820312.43652344-.96533203.23535156-.31005859.50537109-.53662109.80810547-.68066406.30322266-.14404297.61083984-.20214844.92431641-.17529297.3125.02734375.60107422.14111328.86669922.34228516.18359375.13916016.33642578.30908203.45996094.51074219.12353516.20117188.22900391.46826172.31494141.80029297.08691406.33154297.16845703.76367188.24609375,1.29589844l.28271484,1.76171875.03564453.02734375,1.6875-2.22412109.63964844.48535156-2.46728516,3.25195312Z"/>
          <path class="cls-13" d="M150.77088089,102.72105867c-.32958984.43408203-.70605469.73681641-1.12939453.90820312-.42382812.17089844-.86914062.21289062-1.33691406.125-.46826172-.08935547-.93017578-.30664062-1.38769531-.65332031-.45117188-.34277344-.78466797-.72900391-1.00048828-1.15917969-.21533203-.43017578-.30517578-.87207031-.26660156-1.32324219s.21240234-.88232422.52294922-1.29199219c.18896484-.24853516.41259766-.45751953.67236328-.62841797.25927734-.17089844.54785156-.28222656.86425781-.33447266.31640625-.05175781.65527344-.02539062,1.01660156.08007812.36181641.10546875.7421875.31005859,1.14208984.61328125l.30419922.23095703-2.65771484,3.50244141-.64257812-.48730469,2.02001953-2.66210938c-.22558594-.17138672-.46142578-.27783203-.70507812-.31835938-.24511719-.04101562-.48095703-.01757812-.70751953.07128906-.22753906.08789062-.42529297.24316406-.59375.46533203-.18261719.24072266-.28271484.49560547-.30078125.76318359-.01806641.26806641.03027344.52197266.14550781.76171875.11474609.23925781.28320312.44287109.50244141.609375l.50244141.38134766c.29394531.22314453.58398438.36083984.87011719.4140625.28515625.05175781.55273438.02587891.80371094-.07958984.25-.10546875.47070312-.28320312.66064453-.53417969.12353516-.16210938.21142578-.32861328.26660156-.49804688.0546875-.16894531.07275391-.33789062.05273438-.50683594-.01953125-.16845703-.07910156-.33105469-.17724609-.48730469l.76220703-.70068359c.18945312.24609375.31054688.52099609.36279297.82421875.05126953.30322266.03125.61767578-.06152344.94384766-.09228516.32617188-.26074219.64941406-.50439453.97070312Z"/>
          <path class="cls-13" d="M156.75134964,98.08775789l-2.33789062-1.77392578-.0390625.05175781c.05419922.12255859.10546875.27783203.15283203.46582031.046875.18798828.05175781.39990234.01318359.63623047-.03710938.23730469-.15722656.48925781-.36035156.75683594-.27001953.35595703-.60253906.60302734-.99658203.74267578-.39355469.14013672-.81982422.15966797-1.27929688.06005859-.45849609-.09960938-.92675781-.33056641-1.40283203-.69189453s-.82324219-.75048828-1.04052734-1.16699219-.30957031-.83251953-.27734375-1.24804688.18212891-.80078125.45068359-1.15429688c.20751953-.2734375.42041016-.45898438.63818359-.55761719.21728516-.09863281.421875-.14794922.61279297-.14941406.19140625-.00097656.3515625.00683594.48242188.02490234l.05419922-.07177734-.71386719-.54199219.63574219-.83740234,6.05859375,4.59765625-.65087891.85742188ZM153.59119339,97.47984773c.18701172-.24707031.28076172-.50488281.27978516-.77539062-.00146484-.27099609-.08496094-.53955078-.25097656-.80517578-.16601562-.26611328-.40332031-.51660156-.71289062-.75146484-.30566406-.23193359-.60693359-.39111328-.90283203-.47753906-.29638672-.08642578-.57373047-.09277344-.83105469-.02001953-.2578125.07275391-.48095703.23486328-.67089844.48535156-.19580078.2578125-.29248047.52392578-.2890625.79736328.00292969.27392578.08740234.54199219.25244141.8046875.16601562.26318359.39355469.50439453.68457031.72509766.29492188.22363281.59228516.38037109.89501953.47119141.30175781.08984375.58691406.10058594.85498047.03173828.26757812-.06982422.49804688-.23144531.69091797-.48583984Z"/>
        </g>
      </g>
      <g id="palec">
        <path class="cls-5" d="M50.04637001,184.83218969s5.89933818.77035105,8.43618638.02446147c2.53684819-.74588958,17.21817925-7.91307139,22.29892247-12.05610464,8.42227463-6.86784635,8.28748472-10.47515671,15.65772314-18.48518035,7.50600176-8.15757213,15.87770569-15.47951772,18.19584343-18.19945851,4.59434661-5.39068518-2.98092978-14.1391429-10.85926596-9.61413753-12.81129684,7.35830328-21.63474072,23.62482534-40.47578465,22.64223585"/>
        <path class="cls-8" d="M108.02909723,139.161644c1.8316953-1.61931206,2.94540186-2.85784604,4.21155971-4.18322596,2.46612686-2.58147514-1.77340152-10.13045442-7.65335366-5.70915068-1.17835196.88603645-3.27720528,2.94905308-3.27720528,2.94905308,1.30411418,3.47234863,4.09866333,6.15473637,6.71899923,6.94332355Z"/>
      </g>
    </g>
    <polygon class="cls-14" points="136.10826357 73.53293808 130.58085444 64.71514156 141.09568273 58.12395319 146.64092574 69.80523014 136.10826357 73.53293808"/>
    <polygon class="cls-14" points="175.05985286 86.81261048 181.38639825 81.18460921 188.09753826 88.72873187 179.47601689 94.75855997 175.05985286 86.81261048"/>
    <polygon class="cls-14" points="157.80569655 67.9468497 165.22417029 61.34748511 173.09361765 70.19368352 162.98406719 77.26422814 157.80569655 67.9468497"/>
    <polygon class="cls-11" points="132.25237383 37.4828068 137.11197593 33.15977661 142.26699625 38.95463494 135.64455688 43.58631992 132.25237383 37.4828068"/>
    <polygon class="cls-11" points="188.21647636 64.88136585 191.739245 61.74756293 195.47616493 65.94830711 190.67549992 69.30585662 188.21647636 64.88136585"/>
    <polygon class="cls-10" points="177.25474195 54.40607237 175.05985286 50.23317391 180.03584778 47.61586676 182.14067275 53.08297158 177.25474195 54.40607237"/>
    <polygon class="cls-10" points="157.80569655 27.67276023 159.64128642 23.32980853 164.82006224 25.51866742 161.92650027 30.61246977 157.80569655 27.67276023"/>
    <polygon class="cls-10" points="143.22043243 14.6332054 147.3515896 12.36072657 150.06141905 17.28694689 144.63459857 19.49356028 143.22043243 14.6332054"/>
    <polygon class="cls-10" points="188.46606216 37.92727403 190.51172013 33.67922705 195.57732631 36.11858275 192.43826279 41.06487465 188.46606216 37.92727403"/>
    <polygon class="cls-10" points="123.38763613 22.69833205 126.23807503 20.16262373 129.26179388 23.56164474 125.37734852 26.27839701 123.38763613 22.69833205"/>
    <polygon class="cls-10" points="111.01982754 13.77313131 111.1119525 9.95916597 115.65993573 10.06902088 114.99442076 14.76228717 111.01982754 13.77313131"/>
    <polygon class="cls-14" points="116.99695245 65.96076261 112.22175368 70.37684677 106.95577067 64.68263563 113.48751639 59.92390608 116.99695245 65.96076261"/>
    <polygon class="cls-11" points="123.38928183 43.37169767 115.44350983 44.76879316 116.13577053 54.31887281 127.48127489 55.97969172 123.38928183 43.37169767"/>
    <polygon class="cls-11" points="162.96075979 48.764636 159.02922051 42.83205947 151.55081216 46.75934965 154.2084188 56.51932992 162.96075979 48.764636"/>
  </g>
  <polyline class="cls-7" points="69.83294071 109.08441954 68.81914415 92.06443591 72.2406813 88.14109151 71.57302205 86.0167164 68.57871124 88.02835414 67.94128324 77.3267017 73.33331004 72.64820587 78.91764117 75.51555593 79.64602534 77.85364917 81.22424354 77.85364917 80.92072389 75.27286617 86.50510751 71.6707288 85.89806821 70.59898901 79.64602534 73.87677027 75.21499539 71.02390602 78.37137929 68.41373153 77.21807811 67.44255263 67.72200171 73.64520729 67.64778819 72.39963782 74.68894016 61.50484128 73.43444826 55.24193406 72.0586115 55.24193406 72.20840314 61.60036363 65.1823668 68.89743152 59.67592312 62.04039627 61.09222568 56.6987024 59.87825206 56.2941495 57.97630757 61.06921737 53.48455269 61.27138885 53.48455269 62.80919374 57.895376 62.80919374 64.14468965 71.88192767 63.88546718 76.90577353 61.43621111 72.66269168 55.80469614 71.51957255 53.97014214 67.98881452 52.59430537 68.19119594 53.37302247 71.02579547 53.36315533 71.02390602 45.89713884 75.51555593 46.27702389 76.48673482 53.42388025 72.66269168 58.59079971 74.24290429 55.82149127 77.33656884 57.04559446 78.34826601 60.0784816 75.57538861 63.51355983 84.11382719 62.22526772 109.08441954"/>
  <polyline class="cls-1" points="68.57871124 88.02835414 66.20112318 89.78572363 66.79591457 92.4378294 64.93603156 93.21896175 65.53135421 96.5068187 64.21621143 96.96206043"/>
  <polyline class="cls-1" points="63.88546718 76.90577353 65.37960696 78.19598464 64.31737626 80.26986364 65.98659594 82.44490746"/>
  <line class="cls-2" x1="33.54980444" y1="109.08441954" x2="88.59803527" y2="109.08441954"/>
</svg>