<?xml version="1.0" encoding="UTF-8"?>
<svg id="Layer_1" data-name="Layer 1" xmlns="http://www.w3.org/2000/svg" xmlns:xlink="http://www.w3.org/1999/xlink" viewBox="0 0 345.51046721 200">
  <defs>
    <style>
      .cls-1 {
        fill: url(#linear-gradient-10);
      }

      .cls-1, .cls-2, .cls-3, .cls-4, .cls-5, .cls-6, .cls-7, .cls-8 {
        stroke-width: 0px;
      }

      .cls-2 {
        fill: url(#linear-gradient-18);
      }

      .cls-3 {
        fill: url(#linear-gradient-14);
      }

      .cls-4 {
        fill: url(#linear-gradient-22);
      }

      .cls-9, .cls-10, .cls-11, .cls-12, .cls-13, .cls-14, .cls-15, .cls-16, .cls-17, .cls-18, .cls-19, .cls-20, .cls-21, .cls-22, .cls-23, .cls-24, .cls-25, .cls-26, .cls-27, .cls-28, .cls-29, .cls-30, .cls-31, .cls-32 {
        stroke: #004000;
        stroke-miterlimit: 10;
        stroke-width: .75px;
      }

      .cls-9, .cls-19 {
        fill: none;
      }

      .cls-10 {
        fill: url(#linear-gradient-5);
      }

      .cls-11 {
        fill: url(#linear-gradient-7);
      }

      .cls-12 {
        fill: url(#linear-gradient-4);
      }

      .cls-13 {
        fill: url(#linear-gradient-3);
      }

      .cls-14 {
        fill: url(#linear-gradient-9);
      }

      .cls-15 {
        fill: url(#linear-gradient-8);
      }

      .cls-16 {
        fill: #fff;
      }

      .cls-16, .cls-17, .cls-19 {
        stroke-linecap: round;
      }

      .cls-17 {
        fill: url(#linear-gradient-26);
      }

      .cls-5 {
        fill: url(#linear-gradient-2);
      }

      .cls-6 {
        fill: url(#linear-gradient-6);
      }

      .cls-18 {
        fill: url(#linear-gradient);
      }

      .cls-7 {
        fill: #f2f2f2;
      }

      .cls-8 {
        fill: #004000;
      }

      .cls-20 {
        fill: #e0ebc7;
      }

      .cls-21 {
        fill: url(#linear-gradient-12);
      }

      .cls-22 {
        fill: url(#linear-gradient-11);
      }

      .cls-23 {
        fill: url(#linear-gradient-20);
      }

      .cls-24 {
        fill: url(#linear-gradient-23);
      }

      .cls-25 {
        fill: url(#linear-gradient-19);
      }

      .cls-26 {
        fill: url(#linear-gradient-15);
      }

      .cls-27 {
        fill: url(#linear-gradient-21);
      }

      .cls-28 {
        fill: url(#linear-gradient-13);
      }

      .cls-29 {
        fill: url(#linear-gradient-17);
      }

      .cls-30 {
        fill: url(#linear-gradient-16);
      }

      .cls-31 {
        fill: url(#linear-gradient-25);
      }

      .cls-32 {
        fill: url(#linear-gradient-24);
      }
    </style>
    <linearGradient id="linear-gradient" x1="202.85305519" y1="262.00921414" x2="399.79037681" y2="262.00921414" gradientTransform="translate(-151.20377105 -192.73952774) rotate(7.39090644)" gradientUnits="userSpaceOnUse">
      <stop offset="0" stop-color="#c2a5a5"/>
      <stop offset="0" stop-color="#c2a5a5"/>
      <stop offset="0" stop-color="#c2a5a5"/>
      <stop offset="1" stop-color="#a5b5c2"/>
    </linearGradient>
    <linearGradient id="linear-gradient-2" x1="156.15177177" y1="131.21767717" x2="144.79490167" y2="159.04200892" gradientTransform="translate(-39.72725947 -42.01131109) rotate(.22238218)" xlink:href="#linear-gradient"/>
    <linearGradient id="linear-gradient-3" x1="103.69753857" y1="129.10037763" x2="103.53545785" y2="129.4974754" gradientTransform="translate(-.70869192 -7.59640562) rotate(.22238218)" xlink:href="#linear-gradient"/>
    <linearGradient id="linear-gradient-4" x1="105.06911428" y1="133.82303756" x2="104.69799243" y2="134.73228609" gradientTransform="translate(-.70869192 -7.59640562) rotate(.22238218)" xlink:href="#linear-gradient"/>
    <linearGradient id="linear-gradient-5" x1="110.21123769" y1="130.37125752" x2="109.71545274" y2="131.58593066" gradientTransform="translate(-.70869192 -7.59640562) rotate(.22238218)" xlink:href="#linear-gradient"/>
    <linearGradient id="linear-gradient-6" x1="135.24631611" y1="131.21767717" x2="123.88944601" y2="159.04200892" gradientTransform="translate(-39.72725947 -42.01131109) rotate(.22238218)" xlink:href="#linear-gradient"/>
    <linearGradient id="linear-gradient-7" x1="82.79208291" y1="129.10037763" x2="82.63000219" y2="129.4974754" gradientTransform="translate(-.70869192 -7.59640562) rotate(.22238218)" xlink:href="#linear-gradient"/>
    <linearGradient id="linear-gradient-8" x1="84.16365861" y1="133.82303756" x2="83.79253677" y2="134.73228609" gradientTransform="translate(-.70869192 -7.59640562) rotate(.22238218)" xlink:href="#linear-gradient"/>
    <linearGradient id="linear-gradient-9" x1="89.30578203" y1="130.37125752" x2="88.80999708" y2="131.58593066" gradientTransform="translate(-.70869192 -7.59640562) rotate(.22238218)" xlink:href="#linear-gradient"/>
    <linearGradient id="linear-gradient-10" x1="177.189416" y1="131.21767717" x2="165.8325459" y2="159.04200892" gradientTransform="translate(-39.72725947 -42.01131109) rotate(.22238218)" xlink:href="#linear-gradient"/>
    <linearGradient id="linear-gradient-11" x1="124.7351828" y1="129.10037763" x2="124.57310208" y2="129.4974754" gradientTransform="translate(-.70869192 -7.59640562) rotate(.22238218)" xlink:href="#linear-gradient"/>
    <linearGradient id="linear-gradient-12" x1="126.1067585" y1="133.82303756" x2="125.73563666" y2="134.73228609" gradientTransform="translate(-.70869192 -7.59640562) rotate(.22238218)" xlink:href="#linear-gradient"/>
    <linearGradient id="linear-gradient-13" x1="131.24888192" y1="130.37125752" x2="130.75309697" y2="131.58593066" gradientTransform="translate(-.70869192 -7.59640562) rotate(.22238218)" xlink:href="#linear-gradient"/>
    <linearGradient id="linear-gradient-14" x1="198.22706022" y1="131.21767717" x2="186.87019012" y2="159.04200892" gradientTransform="translate(-39.72725947 -42.01131109) rotate(.22238218)" xlink:href="#linear-gradient"/>
    <linearGradient id="linear-gradient-15" x1="145.77282703" y1="129.10037763" x2="145.61074631" y2="129.4974754" gradientTransform="translate(-.70869192 -7.59640562) rotate(.22238218)" xlink:href="#linear-gradient"/>
    <linearGradient id="linear-gradient-16" x1="147.14440273" y1="133.82303756" x2="146.77328088" y2="134.73228609" gradientTransform="translate(-.70869192 -7.59640562) rotate(.22238218)" xlink:href="#linear-gradient"/>
    <linearGradient id="linear-gradient-17" x1="152.28652615" y1="130.37125752" x2="151.7907412" y2="131.58593066" gradientTransform="translate(-.70869192 -7.59640562) rotate(.22238218)" xlink:href="#linear-gradient"/>
    <linearGradient id="linear-gradient-18" x1="219.26470445" y1="131.21767717" x2="207.90783435" y2="159.04200892" gradientTransform="translate(-39.72725947 -42.01131109) rotate(.22238218)" xlink:href="#linear-gradient"/>
    <linearGradient id="linear-gradient-19" x1="166.81047126" y1="129.10037763" x2="166.64839054" y2="129.4974754" gradientTransform="translate(-.70869192 -7.59640562) rotate(.22238218)" xlink:href="#linear-gradient"/>
    <linearGradient id="linear-gradient-20" x1="168.18204696" y1="133.82303756" x2="167.81092511" y2="134.73228609" gradientTransform="translate(-.70869192 -7.59640562) rotate(.22238218)" xlink:href="#linear-gradient"/>
    <linearGradient id="linear-gradient-21" x1="173.32417038" y1="130.37125752" x2="172.82838542" y2="131.58593066" gradientTransform="translate(-.70869192 -7.59640562) rotate(.22238218)" xlink:href="#linear-gradient"/>
    <linearGradient id="linear-gradient-22" x1="240.30234868" y1="131.21767717" x2="228.94547858" y2="159.04200892" gradientTransform="translate(-39.72725947 -42.01131109) rotate(.22238218)" xlink:href="#linear-gradient"/>
    <linearGradient id="linear-gradient-23" x1="187.84811548" y1="129.10037763" x2="187.68603476" y2="129.4974754" gradientTransform="translate(-.70869192 -7.59640562) rotate(.22238218)" xlink:href="#linear-gradient"/>
    <linearGradient id="linear-gradient-24" x1="189.21969119" y1="133.82303756" x2="188.84856934" y2="134.73228609" gradientTransform="translate(-.70869192 -7.59640562) rotate(.22238218)" xlink:href="#linear-gradient"/>
    <linearGradient id="linear-gradient-25" x1="194.3618146" y1="130.37125752" x2="193.86602965" y2="131.58593066" gradientTransform="translate(-.70869192 -7.59640562) rotate(.22238218)" xlink:href="#linear-gradient"/>
    <linearGradient id="linear-gradient-26" x1="148.85410329" y1="118.07176537" x2="132.87536462" y2="157.21967511" gradientTransform="translate(-.70869192 -7.59640562) rotate(.22238218)" xlink:href="#linear-gradient"/>
  </defs>
  <g id="ruka">
    <path class="cls-16" d="M250.24139376,146.20415476s-10.98088306-9.94881893-13.53776688-11.86251253c-8.89068989-6.65421568-16.49641052-19.04348419-20.95947808-18.62055186-4.46306756.42293233-28.04910784-4.2486714-26.20124288-15.45479128,1.84786496-11.20611988,2.10934542-24.03433911,8.71281886-24.13226672,6.60347344-.0979276,31.94014027,1.50941649,38.05129426,7.9270711,6.11115399,6.41765461,13.88906682,26.38567962,19.24995314,31.95164138,4.96321024,5.15307296,13.66441434,11.26796941,13.66441434,11.26796941-1.18741588,9.79051914-14.40403691,19.09097711-18.97999276,18.92344051Z"/>
    <path class="cls-9" d="M224.38957167,91.42316196c-2.61178956,3.61938137-11.00711091,1.26080816-11.00711091,1.26080816"/>
  </g>
  <g id="offset">
    <polygon id="offset-bg" class="cls-18" points="206.30490765 159.03797526 21.1912965 159.03797526 21.60688625 51.96366615 206.71770877 52.68214064 206.30490765 159.03797526"/>
    <path class="cls-7" d="M182.79401324,101.81033872c.07806396-.7946167.12341309-1.59887695.12658691-2.41339111.05444336-14.02508545-11.27099609-25.43878174-25.29608154-25.4932251-3.3626709-.01306152-6.57220459.63409424-9.51403809,1.80975342-5.01055908-6.52416992-12.87341309-10.74707031-21.73620605-10.78149414-15.20556641-.059021-27.57989502,12.21966553-27.63891602,27.4251709-.00250244.64038086.02484131,1.27362061.06542969,1.90325928-10.09588623,3.94561768-17.26873779,13.74249268-17.31335449,25.23986816-.05834961,15.02746582,12.07653809,27.25689697,27.10400391,27.31524658l65.76062012.25524902c12.92327881.0501709,23.44030762-10.38555908,23.49047852-23.30889893.03887939-10.01251221-6.21856689-18.57641602-15.04852295-21.95153809Z"/>
    <polyline class="cls-9" points="29.37679123 72.60060108 29.4271778 59.61933786 42.40844101 59.66972443"/>
    <polyline class="cls-9" points="42.0545029 150.85957251 29.07323968 150.80918594 29.12362625 137.82792272"/>
    <polyline class="cls-9" points="185.88279112 60.22659229 198.86405434 60.27697886 198.81366777 73.25824208"/>
    <g>
      <polyline class="cls-20" points="107.44550966 135.8359519 107.13452137 113.87859063 103.83791666 113.86579544 103.46533414 135.83628381"/>
      <g>
        <polygon class="cls-5" points="110.61609576 112.40372251 114.11249468 113.90567564 108.82038042 102.20328306 111.3443062 103.89475035 105.59296343 88.97281431 99.82355425 103.85007261 102.25006792 102.22360777 96.97779009 113.83914732 100.42688677 112.36417173 96.95380327 120.01578306 103.91541216 117.03873228 105.5225899 119.68161558 107.03790972 117.05356382 114.08850786 120.08231138 110.61609576 112.40372251"/>
        <polygon class="cls-9" points="110.61609576 112.40372251 114.11249468 113.90567564 108.82038042 102.20328306 111.3443062 103.89475035 105.59296343 88.97281431 99.82355425 103.85007261 102.25006792 102.22360777 96.97779009 113.83914732 100.42688677 112.36417173 96.95380327 120.01578306 103.91541216 117.03873228 105.5225899 119.68161558 107.03790972 117.05356382 114.08850786 120.08231138 110.61609576 112.40372251"/>
      </g>
      <line class="cls-13" x1="103.69231354" y1="122.45173655" x2="101.07305943" y2="121.86469128"/>
      <line class="cls-12" x1="104.98458244" y1="127.21749005" x2="102.21821514" y2="127.20675289"/>
      <line class="cls-10" x1="107.1484551" y1="124.09944246" x2="110.20485909" y2="123.84998518"/>
    </g>
    <g>
      <polyline class="cls-20" points="86.54021147 135.75481173 86.22922318 113.79745046 82.93261846 113.78465528 82.56003594 135.75514364"/>
      <g>
        <polygon class="cls-6" points="89.71082232 112.32260679 93.20716021 113.82455992 87.91510699 102.12216734 90.43903277 103.81363462 84.68768999 88.89169859 78.91828081 103.76889585 81.34479449 102.14243101 76.07251665 113.7580316 79.5215523 112.28305601 76.04852984 119.93466734 83.01007769 116.95755552 84.61731646 119.60049986 86.13257525 116.9724481 93.18323443 120.00119566 89.71082232 112.32260679"/>
        <polygon class="cls-9" points="89.71082232 112.32260679 93.20716021 113.82455992 87.91510699 102.12216734 90.43903277 103.81363462 84.68768999 88.89169859 78.91828081 103.76889585 81.34479449 102.14243101 76.07251665 113.7580316 79.5215523 112.28305601 76.04852984 119.93466734 83.01007769 116.95755552 84.61731646 119.60049986 86.13257525 116.9724481 93.18323443 120.00119566 89.71082232 112.32260679"/>
      </g>
      <line class="cls-11" x1="82.78701535" y1="122.37059638" x2="80.16776123" y2="121.78355111"/>
      <line class="cls-15" x1="84.07928424" y1="127.13634988" x2="81.31291694" y2="127.12561272"/>
      <line class="cls-14" x1="86.24315691" y1="124.01830229" x2="89.29956089" y2="123.76884501"/>
    </g>
    <g>
      <polyline class="cls-20" points="128.48299543 135.91760513 128.17200714 113.96024386 124.87540242 113.94744868 124.50281991 135.91793704"/>
      <g>
        <polygon class="cls-1" points="131.65357134 112.48538755 135.14997027 113.98734068 129.85791704 102.2849481 132.38184283 103.97641538 126.63043902 89.05447935 120.86102984 103.93173765 123.28754351 102.30521177 118.01526568 113.92081236 121.46436236 112.44583677 117.99127886 120.0974481 124.95288775 117.12039732 126.56006548 119.76328062 128.07538531 117.13522886 135.12598345 120.16397642 131.65357134 112.48538755"/>
        <polygon class="cls-9" points="131.65357134 112.48538755 135.14997027 113.98734068 129.85791704 102.2849481 132.38184283 103.97641538 126.63043902 89.05447935 120.86102984 103.93173765 123.28754351 102.30521177 118.01526568 113.92081236 121.46436236 112.44583677 117.99127886 120.0974481 124.95288775 117.12039732 126.56006548 119.76328062 128.07538531 117.13522886 135.12598345 120.16397642 131.65357134 112.48538755"/>
      </g>
      <line class="cls-22" x1="124.72979931" y1="122.53338978" x2="122.11054519" y2="121.94634451"/>
      <line class="cls-21" x1="126.0220682" y1="127.29914328" x2="123.2557009" y2="127.28840612"/>
      <line class="cls-28" x1="128.18594087" y1="124.18109569" x2="131.24234486" y2="123.93163841"/>
    </g>
    <g>
      <polyline class="cls-20" points="149.5204812 135.99925837 149.20949291 114.04189709 145.91288819 114.02910191 145.54030567 135.99959027"/>
      <g>
        <polygon class="cls-3" points="152.69104693 112.56705259 156.18744585 114.06900572 150.89539263 102.36661314 153.41931841 104.05808042 147.6679146 89.13614439 141.89856646 104.01334165 144.3250191 102.38687681 139.05274126 114.0024774 142.50183794 112.52750181 139.02881548 120.17911314 145.99036333 117.20200132 147.59754107 119.84494566 149.11286089 117.2168939 156.16345904 120.24564146 152.69104693 112.56705259"/>
        <polygon class="cls-9" points="152.69104693 112.56705259 156.18744585 114.06900572 150.89539263 102.36661314 153.41931841 104.05808042 147.6679146 89.13614439 141.89856646 104.01334165 144.3250191 102.38687681 139.05274126 114.0024774 142.50183794 112.52750181 139.02881548 120.17911314 145.99036333 117.20200132 147.59754107 119.84494566 149.11286089 117.2168939 156.16345904 120.24564146 152.69104693 112.56705259"/>
      </g>
      <line class="cls-26" x1="145.76728508" y1="122.61504301" x2="143.14803096" y2="122.02799774"/>
      <line class="cls-30" x1="147.05955397" y1="127.38079651" x2="144.29318667" y2="127.37005935"/>
      <line class="cls-29" x1="149.22342664" y1="124.26274892" x2="152.27983063" y2="124.01329164"/>
    </g>
    <g>
      <polyline class="cls-20" points="170.55796697 136.0809116 170.24697867 114.12355032 166.95037396 114.11075514 166.57779144 136.08124351"/>
      <g>
        <polygon class="cls-2" points="173.72858355 112.6486566 177.22492144 114.15060972 171.93286822 102.44827818 174.456794 104.13974546 168.70545122 89.21774839 162.93604204 104.09500669 165.36255572 102.46854185 160.09027788 114.08414244 163.53931353 112.60916685 160.06629107 120.26077818 167.02789995 117.28366636 168.63507769 119.92654966 170.15033648 117.29855894 177.20099566 120.3273065 173.72858355 112.6486566"/>
        <polygon class="cls-9" points="173.72858355 112.6486566 177.22492144 114.15060972 171.93286822 102.44827818 174.456794 104.13974546 168.70545122 89.21774839 162.93604204 104.09500669 165.36255572 102.46854185 160.09027788 114.08414244 163.53931353 112.60916685 160.06629107 120.26077818 167.02789995 117.28366636 168.63507769 119.92654966 170.15033648 117.29855894 177.20099566 120.3273065 173.72858355 112.6486566"/>
      </g>
      <line class="cls-25" x1="166.80477084" y1="122.69669624" x2="164.18551673" y2="122.10965097"/>
      <line class="cls-23" x1="168.09703974" y1="127.46244974" x2="165.33067244" y2="127.45171258"/>
      <line class="cls-27" x1="170.2609124" y1="124.34440215" x2="173.31731639" y2="124.09494487"/>
    </g>
    <g>
      <polyline class="cls-20" points="191.59545273 136.16256483 191.28446444 114.20520355 187.98785972 114.19240837 187.61527721 136.16289674"/>
      <g>
        <polygon class="cls-4" points="194.76605913 112.73032163 198.26245806 114.23227476 192.97040484 102.52994322 195.49426958 104.2214105 189.74292681 89.29941343 183.97351763 104.17667173 186.4000313 102.55020689 181.12775347 114.16580747 184.57678911 112.69083189 181.10376665 120.34244322 188.06537554 117.3653314 189.67255327 120.0082147 191.18781206 117.38016294 198.23847124 120.4089105 194.76605913 112.73032163"/>
        <polygon class="cls-9" points="194.76605913 112.73032163 198.26245806 114.23227476 192.97040484 102.52994322 195.49426958 104.2214105 189.74292681 89.29941343 183.97351763 104.17667173 186.4000313 102.55020689 181.12775347 114.16580747 184.57678911 112.69083189 181.10376665 120.34244322 188.06537554 117.3653314 189.67255327 120.0082147 191.18781206 117.38016294 198.23847124 120.4089105 194.76605913 112.73032163"/>
      </g>
      <line class="cls-24" x1="187.84225661" y1="122.77834947" x2="185.2230025" y2="122.1913042"/>
      <line class="cls-32" x1="189.1345255" y1="127.54410298" x2="186.3681582" y2="127.53336582"/>
      <line class="cls-31" x1="191.29839817" y1="124.42605538" x2="194.35480216" y2="124.1765981"/>
    </g>
    <line class="cls-17" x1="77.85001407" y1="135.73686254" x2="196.95661046" y2="136.19915345"/>
    <g>
      <path class="cls-8" d="M40.67006369,95.61373297l-.05126953,13.12597656-1.98632812-.0078125.04345703-11.13916016h-.07714844l-3.1484375,2.0390625.00732422-1.89746094,3.28369141-2.12792969,1.92871094.00732422Z"/>
      <path class="cls-8" d="M52.88734885,98.94283453l-.00634766,1.53808594-5.37695312-.02050781.00634766-1.53808594,5.37695312.02050781ZM48.96107932,96.56929938l1.91650391.00732422-.03613281,9.31201172c-.00146484.37207031.05273438.65136719.16357422.83740234.11035156.18652344.25390625.31298828.43115234.37988281.17675781.06689453.37011719.10058594.57958984.1015625.15380859.00048828.28857422-.00976562.40380859-.03076172.11523438-.02050781.20556641-.03710938.26953125-.05029297l.33984375,1.58447266c-.11132812.04248047-.26953125.0859375-.47460938.12988281-.20507812.04345703-.46191406.06738281-.76953125.07080078-.50439453.00634766-.97412109-.08544922-1.40869141-.27490234-.43554688-.18994141-.78710938-.48144531-1.05419922-.87597656-.26757812-.39404297-.40039062-.88818359-.3984375-1.48193359l.03759766-9.70947266Z"/>
    </g>
    <g>
      <path class="cls-8" d="M45.48402854,70.15377203c-.00488281,1.34570312-.25585938,2.50097656-.75195312,3.46582031-.49560547.96435547-1.17285156,1.70458984-2.03027344,2.22021484-.85742188.51611328-1.83007812.77148438-2.91748047.76757812-1.09179688-.00439453-2.06445312-.26757812-2.91796875-.79052734-.85400391-.52197266-1.52490234-1.26855469-2.01367188-2.23925781-.48876953-.97021484-.73046875-2.12646484-.72558594-3.46826172.00537109-1.34619141.25634766-2.50146484.75244141-3.46582031.49658203-.96484375,1.17285156-1.70458984,2.03125-2.22070312.85742188-.515625,1.83203125-.77148438,2.92382812-.76708984,1.08740234.00390625,2.05810547.26757812,2.91162109.79003906.85302734.52246094,1.52490234,1.26757812,2.01269531,2.23632812.48876953.96826172.73046875,2.12548828.72509766,3.47167969ZM43.60072775,70.14644781c.00390625-1.02587891-.15771484-1.89208984-.48486328-2.59667969-.32763672-.70507812-.77734375-1.24023438-1.34814453-1.60595703-.57080078-.36523438-1.21777344-.54980469-1.93994141-.55224609-.7265625-.00292969-1.37548828.17626953-1.94726562.53710938-.57177734.36132812-1.02441406.89306641-1.35742188,1.59521484-.33349609.70263672-.50195312,1.56689453-.50585938,2.59277344s.15771484,1.89160156.48583984,2.59619141c.32714844.70556641.77587891,1.24072266,1.34472656,1.60595703.56884766.36572266,1.21679688.54980469,1.94335938.55273438.72216797.00244141,1.37011719-.17675781,1.94384766-.53759766s1.02734375-.89257812,1.36083984-1.59521484c.33251953-.70263672.50097656-1.56640625.50488281-2.59228516Z"/>
      <path class="cls-8" d="M47.47670432,76.46480719l.04882812-12.60693359,7.81738281.03027344-.00634766,1.63769531-5.91552734-.02294922-.01464844,3.84082031,5.35546875.02050781-.00634766,1.63134766-5.35546875-.02050781-.02148438,5.49707031-1.90185547-.00732422Z"/>
      <path class="cls-8" d="M57.28676291,76.50289313l.04882812-12.60693359,7.81738281.03027344-.00634766,1.63769531-5.91552734-.02294922-.01464844,3.84082031,5.35546875.02050781-.00634766,1.63134766-5.35546875-.02050781-.02148438,5.49707031-1.90185547-.00732422Z"/>
      <path class="cls-8" d="M74.00893088,67.27242438c-.06298828-.58300781-.33251953-1.03613281-.80712891-1.36035156-.47509766-.32421875-1.07324219-.48779297-1.79541016-.49023438-.51708984-.00195312-.96484375.07714844-1.34277344.23779297-.37841797.16064453-.67138672.38134766-.87988281.66162109s-.31298828.59912109-.31445312.95605469c-.00097656.29980469.06835938.55810547.20947266.77636719.140625.21777344.32666016.40039062.55761719.546875.23144531.14697266.47998047.26855469.74707031.36621094.26611328.09765625.52197266.17724609.76806641.23974609l1.22998047.32519531c.40136719.10009766.81347656.23486328,1.23583984.40429688.421875.17041016.81298828.39355469,1.17333984.66992188.359375.27636719.65087891.61816406.87304688,1.02539062.22167969.40673828.33154297.89355469.32958984,1.45996094-.00292969.71386719-.18896484,1.34716797-.55810547,1.89990234-.36962891.55273438-.90283203.98779297-1.59960938,1.3046875-.69677734.31787109-1.53759766.47460938-2.52246094.47070312-.94384766-.00341797-1.75976562-.15673828-2.44824219-.45898438-.68798828-.30224609-1.2265625-.72998047-1.61425781-1.28369141-.38720703-.55322266-.60058594-1.20947266-.63867188-1.96875l1.90820312.00732422c.03515625.45507812.18261719.83447266.44189453,1.13671875.25927734.30322266.59326172.52783203,1.00097656.67529297s.85595703.22167969,1.34423828.22363281c.53759766.00195312,1.01660156-.08105469,1.43847656-.24951172.42089844-.16894531.75341797-.40527344.99707031-.71044922.24267578-.3046875.36523438-.66259766.36669922-1.07275391.00146484-.37353516-.10302734-.67919922-.31347656-.91845703-.21044922-.23876953-.49462891-.43652344-.85302734-.59423828-.35888672-.15722656-.76367188-.29638672-1.21435547-.41748047l-1.48779297-.41162109c-1.00830078-.27880859-1.80615234-.68652344-2.39306641-1.22216797s-.87841797-1.24267578-.875-2.12109375c.00292969-.7265625.20214844-1.359375.59814453-1.89941406.39599609-.54052734.93115234-.95947266,1.60546875-1.25878906s1.43408203-.44726562,2.27929688-.44384766c.85351562.00341797,1.60742188.15625,2.26025391.45849609.65380859.30175781,1.16845703.71533203,1.54345703,1.23974609.37548828.52490234.5703125,1.12597656.58398438,1.80322266l-1.83447266-.00732422Z"/>
      <path class="cls-8" d="M77.90443869,76.58297125l.04882812-12.60693359,7.90380859.03027344-.00634766,1.63769531-6.00195312-.02294922-.01464844,3.84082031,5.58935547.02148438-.00634766,1.63134766-5.58935547-.02148438-.01513672,3.85986328,6.07568359.0234375-.00634766,1.63720703-7.97753906-.03076172Z"/>
      <path class="cls-8" d="M87.4303176,65.65035406l.00634766-1.63769531,9.75683594.03808594-.00634766,1.63769531-3.93359375-.015625-.04248047,10.96923828-1.89599609-.00732422.04248047-10.96923828-3.92724609-.01513672Z"/>
    </g>
    <g>
      <path class="cls-8" d="M47.51479025,135.06246344l-2.20263672-.00878906c-.08251953-.47070312-.23876953-.88574219-.46777344-1.24414062-.22949219-.35839844-.51025391-.66308594-.84277344-.9140625-.33300781-.25048828-.70556641-.44042969-1.11669922-.56884766-.41162109-.12841797-.84765625-.19384766-1.30859375-.1953125-.83300781-.00341797-1.57861328.203125-2.23632812.61914062-.65869141.41650391-1.17871094,1.02832031-1.56054688,1.8359375-.38232422.80810547-.57470703,1.79589844-.57958984,2.96289062-.00439453,1.17626953.18066406,2.16992188.55664062,2.98046875.37548828.81103516.89160156,1.42529297,1.54931641,1.84179688.65722656.41650391,1.39746094.62646484,2.22119141.62988281.45605469.00146484.890625-.05859375,1.30322266-.18212891.41210938-.12304688.78564453-.30664062,1.12060547-.54980469.33447266-.24365234.61914062-.54199219.85351562-.89648438s.39697266-.76171875.48828125-1.22314453l2.20263672.015625c-.12060547.71044922-.35058594,1.36230469-.68896484,1.95605469-.33886719.59423828-.77148438,1.10546875-1.29785156,1.53369141-.52636719.42871094-1.12646484.75927734-1.79980469.9921875-.67382812.23291016-1.40869141.34765625-2.20361328.34423828-1.25195312-.00488281-2.36572266-.30664062-3.34277344-.90576172-.97607422-.59912109-1.74316406-1.45507812-2.30126953-2.56787109s-.83398438-2.43847656-.828125-3.97705078c.00634766-1.54345703.29345703-2.86865234.86230469-3.97460938.56933594-1.10595703,1.34423828-1.95458984,2.32519531-2.54589844s2.09521484-.88525391,3.34228516-.88037109c.76660156.00292969,1.48339844.11523438,2.1484375.33642578.6640625.22167969,1.26123047.54443359,1.79199219.96728516.53027344.42333984.96826172.9375,1.31396484,1.54394531.34570312.60595703.57861328,1.29736328.69775391,2.07470703Z"/>
      <path class="cls-8" d="M62.27602072,137.64644781c-.00585938,1.54345703-.29296875,2.86816406-.86230469,3.97460938-.56884766,1.10595703-1.34521484,1.95458984-2.32861328,2.54589844s-2.09912109.88476562-3.34570312.88037109c-1.25195312-.00488281-2.36669922-.30712891-3.34619141-.90625-.97851562-.59912109-1.74804688-1.45507812-2.30859375-2.56787109-.56005859-1.11279297-.83740234-2.43847656-.83154297-3.97705078.00634766-1.54345703.29345703-2.86865234.86230469-3.97460938.56933594-1.10595703,1.34570312-1.95458984,2.32861328-2.54589844.98388672-.59130859,2.10107422-.88476562,3.35302734-.87988281,1.24658203.00439453,2.35986328.30664062,3.33886719.90576172s1.74853516,1.45361328,2.30859375,2.56445312c.56054688,1.10986328.83789062,2.43701172.83154297,3.98046875ZM60.11635275,137.63814703c.00488281-1.17626953-.18115234-2.16845703-.55664062-2.97705078-.37597656-.80859375-.89111328-1.42285156-1.54589844-1.84179688s-1.39599609-.62988281-2.22412109-.6328125c-.83300781-.00341797-1.57763672.20166016-2.23339844.61572266s-1.17480469,1.02392578-1.55664062,1.82958984c-.38183594.80517578-.57470703,1.79638672-.57958984,2.97265625-.00439453,1.17626953.18066406,2.16845703.55664062,2.97753906.37548828.80859375.88964844,1.42236328,1.54199219,1.84130859.65283203.41894531,1.39550781.62988281,2.22851562.63330078.828125.00292969,1.57128906-.20214844,2.22900391-.61621094.65820312-.4140625,1.17822266-1.0234375,1.56054688-1.82910156.38134766-.80566406.57519531-1.796875.57958984-2.97314453Z"/>
      <path class="cls-8" d="M63.76527854,149.51168219l.00341797-.921875,2.86376953-2.94335938c.30566406-.31933594.55859375-.60058594.75830078-.84277344.20019531-.24169922.34960938-.47265625.44921875-.69140625.09960938-.21972656.14990234-.45214844.15087891-.69921875.00097656-.27978516-.06396484-.52246094-.19482422-.72705078-.13085938-.20507812-.31005859-.36328125-.53710938-.47558594-.22753906-.11181641-.48339844-.16845703-.76855469-.16943359-.30224609-.00097656-.56591797.05908203-.79150391.18212891-.22509766.12255859-.3984375.29589844-.52001953.52099609-.12207031.22412109-.18310547.48730469-.18408203.7890625l-1.21435547-.00488281c.00195312-.51318359.12158203-.9609375.35888672-1.34423828s.5625-.68017578.97460938-.89111328c.41259766-.21142578.88085938-.31542969,1.40478516-.31347656.52929688.00195312.99609375.10888672,1.39990234.31982422.40429688.21142578.71923828.49853516.94580078.85986328.22607422.36181641.33837891.76904297.33642578,1.22167969-.00097656.31298828-.06054688.61816406-.17822266.91699219-.11816406.29833984-.32128906.63037109-.61083984.99511719-.28955078.36572266-.69238281.80761719-1.20703125,1.32714844l-1.68164062,1.74609375v.06201172l3.79394531.01513672-.00439453,1.09033203-5.54736328-.02197266Z"/>
      <path class="cls-8" d="M73.80678244,145.06148688c-.69433594-.00244141-1.29101562-.15380859-1.79003906-.45410156-.49853516-.30029297-.8828125-.72216797-1.15136719-1.26611328-.26806641-.54394531-.40136719-1.18115234-.3984375-1.91259766.00244141-.72167969.140625-1.35742188.41357422-1.90673828.27246094-.54980469.65380859-.97802734,1.14257812-1.28515625s1.06103516-.45947266,1.71582031-.45703125c.39746094.00195312.78222656.06933594,1.15527344.20214844.37255859.13330078.70654297.34033203,1.00244141.62353516.29541016.28222656.52783203.64794922.69726562,1.09667969.16992188.44873047.25341797.99267578.25048828,1.63183594l-.00146484.48632812-5.60205078-.02148438.00390625-1.02783203,4.2578125.01660156c.00146484-.36083984-.07080078-.68164062-.21679688-.96191406-.14501953-.28027344-.35058594-.50244141-.61425781-.66552734s-.57324219-.24560547-.92773438-.24707031c-.38574219-.00146484-.72167969.09179688-1.00878906.27832031-.28662109.18701172-.5078125.43066406-.66308594.73144531-.15576172.30078125-.234375.62695312-.23583984.97851562l-.00341797.80322266c-.00146484.47119141.08007812.87207031.24609375,1.203125.16503906.33105469.39746094.58398438.69677734.75732422.29833984.17382812.64892578.26171875,1.04931641.26318359.26025391.00097656.49707031-.03515625.71191406-.109375.21386719-.07373047.39941406-.18554688.55615234-.33496094.15673828-.14892578.27685547-.33349609.36035156-.55371094l1.29736328.23925781c-.10546875.38183594-.29296875.71484375-.56152344,1s-.60449219.50537109-1.00732422.66113281c-.40283203.15625-.86083984.23291016-1.375.23095703Z"/>
      <path class="cls-8" d="M82.84828635,147.59713141l.01464844-3.73925781-.08251953-.00048828c-.08349609.14990234-.20263672.32080078-.35791016.51318359-.15527344.19140625-.36767578.359375-.63720703.50195312-.27001953.14257812-.61865234.21337891-1.046875.21142578-.56884766-.00195312-1.07568359-.14990234-1.51953125-.44384766s-.79101562-.71289062-1.04150391-1.25683594c-.24951172-.54394531-.37353516-1.19677734-.37060547-1.95800781.00292969-.76171875.13330078-1.41259766.390625-1.953125.2578125-.54052734.61035156-.95361328,1.05761719-1.23974609.44775391-.28515625.95458984-.42724609,1.52050781-.42529297.4375.00195312.78955078.07617188,1.05664062.22216797.26708984.14648438.47412109.31640625.62207031.50976562.14746094.19287109.26269531.36328125.34472656.51025391l.11474609.00048828.00439453-1.14257812,1.33935547.00537109-.03759766,9.68994141-1.37158203-.00537109ZM81.04555197,143.91549078c.39453125.00146484.72900391-.10253906,1.00390625-.31054688.27441406-.20849609.48388672-.49951172.62744141-.87158203.14355469-.37255859.21630859-.80712891.21826172-1.30273438.00195312-.48925781-.06689453-.91748047-.20605469-1.28515625-.13964844-.36767578-.34472656-.65429688-.61621094-.86035156-.27148438-.20556641-.60791016-.30957031-1.00830078-.31103516-.41308594-.00195312-.75732422.10400391-1.03320312.31689453-.27636719.21289062-.48486328.50439453-.62548828.87402344-.140625.36914062-.21142578.78662109-.21337891,1.25146484-.00195312.47119141.06689453.89501953.20605469,1.27197266s.34667969.67480469.62304688.89501953c.27587891.21972656.6171875.33007812,1.02392578.33203125Z"/>
    </g>
  </g>
  <g id="palec">
    <path class="cls-16" d="M234.65761474,132.54382531s-4.83451832-.28540829-6.74889416-1.26938236c-1.91437585-.98397407-12.55778797-8.95761579-15.98709651-13.04645204-5.68471522-6.77800477-5.02579336-9.6416373-9.69484258-17.17213288-4.75505535-7.66921094-10.32995624-14.80256441-11.76785246-17.33147591-2.84978477-5.0120818,4.54368259-10.84951068,10.15144748-6.0278323,9.11902449,7.84073586,13.68849828,22.19474968,28.90299078,24.28778846"/>
    <path class="cls-19" d="M195.27536875,87.16890577c-1.21712282-1.57458115-1.9183554-2.73501158-2.72821153-3.98817231-1.57737676-2.44081206,2.96572687-7.82885668,6.99152713-3.39542031.80677691.88846785,2.16971372,2.8586315,2.16971372,2.8586315-1.57323521,2.57706614-4.21745257,4.29479942-6.43302932,4.52496112Z"/>
  </g>
</svg>