<?xml version="1.0" encoding="UTF-8"?>
<svg id="Layer_1" data-name="Layer 1" xmlns="http://www.w3.org/2000/svg" xmlns:xlink="http://www.w3.org/1999/xlink" viewBox="0 0 660 250">
  <defs>
    <style>
      .cls-1 {
        fill: url(#New_Gradient_Swatch_1);
      }

      .cls-1, .cls-2, .cls-3, .cls-4, .cls-5 {
        stroke-width: 0px;
      }

      .cls-2 {
        fill: url(#linear-gradient);
      }

      .cls-6, .cls-7 {
        stroke-linejoin: bevel;
      }

      .cls-6, .cls-7, .cls-8, .cls-9, .cls-10, .cls-11 {
        stroke: #004000;
        stroke-width: .75px;
      }

      .cls-6, .cls-10, .cls-4 {
        fill: #e6e6e6;
      }

      .cls-7, .cls-8, .cls-11 {
        fill: none;
      }

      .cls-8, .cls-9, .cls-10, .cls-11 {
        stroke-miterlimit: 10;
      }

      .cls-9 {
        fill: #fff;
      }

      .cls-9, .cls-11 {
        stroke-linecap: round;
      }

      .cls-3 {
        fill: #dcf8dc;
      }

      .cls-5 {
        fill: #004000;
      }
    </style>
    <linearGradient id="linear-gradient" x1="-419.33174443" y1="-2245.59075711" x2="-210.64724395" y2="-2245.59075711" gradientTransform="translate(-1337.00718719 -1601.92430526) rotate(148.28060411)" gradientUnits="userSpaceOnUse">
      <stop offset="0" stop-color="#dcf8dc"/>
      <stop offset=".20954353" stop-color="#e6fae6"/>
      <stop offset=".66925241" stop-color="#f8fdf8"/>
      <stop offset="1" stop-color="#fff"/>
    </linearGradient>
    <linearGradient id="New_Gradient_Swatch_1" data-name="New Gradient Swatch 1" x1="132.88151716" y1="164.08780026" x2="190.04955569" y2="164.08780026" gradientTransform="translate(15.63670372 -99.05618643) rotate(10.58208518)" gradientUnits="userSpaceOnUse">
      <stop offset="0" stop-color="#a4ee6e"/>
      <stop offset=".9989046" stop-color="#00b0a0"/>
    </linearGradient>
  </defs>
  <circle class="cls-2" cx="111.57431365" cy="142.64093149" r="104.34225024"/>
  <rect class="cls-10" x="25.72934851" y="131.29936365" width="43.05950919" height="43.0595092"/>
  <path class="cls-10" d="M61.75292642,103.08714158c1.72044042,0,3.37365184.73048467,4.55584965,1.78772807l.03842495.03842495.01924181.01924181c.01924181.0096209.02886271.01924181.03842495.02886271,1.03806026.98033484,1.91274115.83619728,2.3836961.30751692v-17.03157989H25.72892097v43.05958423h43.05964289v-17.08924664c-.46139271-.54786351-1.30721089-.70168063-2.36445429.35562143l-.11533351.0960917c-1.19181872,1.11496882-2.78736338,1.79734898-4.55584965,1.79734898-3.69084832,0-6.68001602-2.98916769-6.68001602-6.68957826,0-3.69084832,2.98916769-6.68001602,6.68001602-6.68001602Z"/>
  <g>
    <path class="cls-4" d="M51.94501504,174.35886423c-.68762207-.44042969-.97747803-1.43475342.21270752-2.62493896h-.00915527c1.11218262-1.19421387,1.79779053-2.79101562,1.79779053-4.55163574,0-3.69329834-2.99395752-6.68725586-6.68725586-6.68725586s-6.68725586,2.99395752-6.68725586,6.68725586c0,1.76062012.68560791,3.35742188,1.79779053,4.55163574h-.00915527c1.19018555,1.19018555.90032959,2.18450928.21270752,2.62493896h-16.84381104v43.05950928h43.05950928v-43.05950928h-16.84387207Z"/>
    <path class="cls-7" d="M51.94501504,174.35886423c-.68762207-.44042969-.97747803-1.43475342.21270752-2.62493896h-.00915527c1.11218262-1.19421387,1.79779053-2.79101562,1.79779053-4.55163574,0-3.69329834-2.99395752-6.68725586-6.68725586-6.68725586s-6.68725586,2.99395752-6.68725586,6.68725586c0,1.76062012.68560791,3.35742188,1.79779053,4.55163574h-.00915527c1.19018555,1.19018555.90032959,2.18450928.21270752,2.62493896h-16.84381104v43.05950928h43.05950928v-43.05950928h-16.84387207Z"/>
  </g>
  <g>
    <path class="cls-4" d="M111.81366738,131.29685251v-17.0690918c-.5-.50878906-1.39538574-.61071777-2.44403076.43792725v-.00909424c-1.19421387,1.11218262-2.79101562,1.79779053-4.55163574,1.79779053-3.69329834,0-6.68725586-2.99401855-6.68725586-6.68731689,0-3.6932373,2.99395752-6.68725586,6.68725586-6.68725586,1.76062012,0,3.35742188.68560791,4.55163574,1.79779053v-.00909424c1.04864502,1.04864502,1.94403076.94665527,2.44403076.43792725v-17.0690918h-43.05950928v16.84381104c-.44042969.68762207-1.43475342.97753906-2.62493896-.21264648v.00915527c-1.19421387-1.11218262-2.79101562-1.79785156-4.55163574-1.79785156-3.69329834,0-6.68731689,2.99401855-6.68731689,6.68725586,0,3.69329834,2.99401855,6.68731689,6.68731689,6.68731689,1.76062012,0,3.35742188-.68566895,4.55163574-1.79785156v.00921631c1.19018555-1.19018555,2.18450928-.90032959,2.62493896-.21270752v16.84381104h17.0010376c.56378174.48596191.71813965,1.41308594-.37390137,2.50512695h.00915527c-1.11218262,1.19421387-1.79779053,2.79101562-1.79779053,4.55163574,0,3.69329834,2.99395752,6.68731689,6.68725586,6.68731689,3.69329834-.00006104,6.68725586-2.99401855,6.68725586-6.68731689,0-1.76062012-.68566895-3.35742188-1.79785156-4.55163574h.00921631c-1.09204102-1.09204102-.93774414-2.01916504-.3739624-2.50512695h17.00909424Z"/>
    <path class="cls-7" d="M111.81366738,131.29685251v-17.0690918c-.5-.50878906-1.39538574-.61071777-2.44403076.43792725v-.00909424c-1.19421387,1.11218262-2.79101562,1.79779053-4.55163574,1.79779053-3.69329834,0-6.68725586-2.99401855-6.68725586-6.68731689,0-3.6932373,2.99395752-6.68725586,6.68725586-6.68725586,1.76062012,0,3.35742188.68560791,4.55163574,1.79779053v-.00909424c1.04864502,1.04864502,1.94403076.94665527,2.44403076.43792725v-17.0690918h-43.05950928v16.84381104c-.44042969.68762207-1.43475342.97753906-2.62493896-.21264648v.00915527c-1.19421387-1.11218262-2.79101562-1.79785156-4.55163574-1.79785156-3.69329834,0-6.68731689,2.99401855-6.68731689,6.68725586,0,3.69329834,2.99401855,6.68731689,6.68731689,6.68731689,1.76062012,0,3.35742188-.68566895,4.55163574-1.79785156v.00921631c1.19018555-1.19018555,2.18450928-.90032959,2.62493896-.21270752v16.84381104h17.0010376c.56378174.48596191.71813965,1.41308594-.37390137,2.50512695h.00915527c-1.11218262,1.19421387-1.79779053,2.79101562-1.79779053,4.55163574,0,3.69329834,2.99395752,6.68731689,6.68725586,6.68731689,3.69329834-.00006104,6.68725586-2.99401855,6.68725586-6.68731689,0-1.76062012-.68566895-3.35742188-1.79785156-4.55163574h.00921631c-1.09204102-1.09204102-.93774414-2.01916504-.3739624-2.50512695h17.00909424Z"/>
  </g>
  <g>
    <path class="cls-4" d="M52.15772256,128.42972604h-.00915527c1.11218262-1.19421387,1.79779053-2.79101562,1.79779053-4.55163574,0-3.6932373-2.99395752-6.68725586-6.68725586-6.68725586s-6.68725586,2.99401855-6.68725586,6.68725586c0,1.76062012.68560791,3.35742188,1.79779053,4.55163574h-.00915527c1.61303711,1.61297607.5100708,2.86962891-.62139893,2.86962891h11.0401001c-1.1315918,0-2.23449707-1.25665283-.62145996-2.86962891Z"/>
    <path class="cls-7" d="M52.15772256,128.42972604h-.00915527c1.11218262-1.19421387,1.79779053-2.79101562,1.79779053-4.55163574,0-3.6932373-2.99395752-6.68725586-6.68725586-6.68725586s-6.68725586,2.99401855-6.68725586,6.68725586c0,1.76062012.68560791,3.35742188,1.79779053,4.55163574h-.00915527c1.61303711,1.61297607.5100708,2.86962891-.62139893,2.86962891h11.0401001c-1.1315918,0-2.23449707-1.25665283-.62145996-2.86962891Z"/>
  </g>
  <g>
    <path class="cls-4" d="M137.88239297,131.29935495c-.50311279.41357422-.7232666,1.14355469-.10571289,2.0256958,1.40014648,1.22576904,2.28869629,3.02154541,2.28869629,5.02856445,0,3.69329834-2.99395752,6.68725586-6.68725586,6.68725586s-6.68725586-2.99395752-6.68725586-6.68725586c0-1.99761963.8805542-3.7855835,2.26922607-5.01092529.63378906-.89025879.41607666-1.6270752-.08892822-2.04333496h-17.02276611v43.05950928h43.05950928v-43.05950928h-17.0255127Z"/>
    <path class="cls-8" d="M137.88239297,131.29935495c-.50311279.41357422-.7232666,1.14355469-.10571289,2.0256958,1.40014648,1.22576904,2.28869629,3.02154541,2.28869629,5.02856445,0,3.69329834-2.99395752,6.68725586-6.68725586,6.68725586s-6.68725586-2.99395752-6.68725586-6.68725586c0-1.99761963.8805542-3.7855835,2.26922607-5.01092529.63378906-.89025879.41607666-1.6270752-.08892822-2.04333496h-17.02276611v43.05950928h43.05950928v-43.05950928h-17.0255127Z"/>
  </g>
  <g>
    <path class="cls-4" d="M68.78888711,174.35886423v43.05950928h43.05950928v-43.05950928h-43.05950928ZM68.78882607,189.63462106c0,1.13153076-1.2565918,2.23443604-2.86956787.62145996v.00915527c-1.19421387-1.11218262-2.79101562-1.79785156-4.55163574-1.79785156-3.69329834,0-6.68731689,2.99401855-6.68731689,6.68731689,0,3.6932373,2.99401855,6.68725586,6.68731689,6.68725586,1.76062012,0,3.35742188-.68566895,4.55163574-1.79785156v.00921631c1.61297607-1.61303711,2.86962891-.51013184,2.86962891.62139893l-.00006104-5.52001953v-5.52008057Z"/>
    <path class="cls-7" d="M68.78888711,174.35886423v43.05950928h43.05950928v-43.05950928h-43.05950928ZM68.78882607,189.63462106c0,1.13153076-1.2565918,2.23443604-2.86956787.62145996v.00915527c-1.19421387-1.11218262-2.79101562-1.79785156-4.55163574-1.79785156-3.69329834,0-6.68731689,2.99401855-6.68731689,6.68731689,0,3.6932373,2.99401855,6.68725586,6.68731689,6.68725586,1.76062012,0,3.35742188-.68566895,4.55163574-1.79785156v.00921631c1.61297607-1.61303711,2.86962891-.51013184,2.86962891.62139893l-.00006104-5.52001953v-5.52008057Z"/>
  </g>
  <g>
    <path class="cls-4" d="M139.26520547,174.35886423c-1.1315918,0-2.23449707-1.25665283-.621521-2.86962891h-.00909424c1.11218262-1.19421387,1.79779053-2.79101562,1.79779053-4.55163574,0-3.6932373-2.99401855-6.68725586-6.68725586-6.68725586-3.69329834,0-6.68725586,2.99401855-6.68725586,6.68725586,0,1.76062012.68560791,3.35742188,1.79779053,4.55163574h-.00915527c1.61303711,1.61297607.5100708,2.86962891-.62145996,2.86962891h-16.37664795v15.96276855c-.38739014.7878418-1.43475342,1.20623779-2.70654297-.06555176v.00909424c-1.19421387-1.11218262-2.79101562-1.79779053-4.55163574-1.79779053-3.69329834,0-6.68725586,2.99401855-6.68725586,6.68731689,0,3.6932373,2.99395752,6.68725586,6.68725586,6.68725586,1.76062012,0,3.35742188-.68560791,4.55163574-1.79779053v.00915527c1.27178955-1.27185059,2.31915283-.85345459,2.70654297-.06561279v17.43066406h43.05950928v-43.05950928h-15.6427002Z"/>
    <path class="cls-7" d="M139.26520547,174.35886423c-1.1315918,0-2.23449707-1.25665283-.621521-2.86962891h-.00909424c1.11218262-1.19421387,1.79779053-2.79101562,1.79779053-4.55163574,0-3.6932373-2.99401855-6.68725586-6.68725586-6.68725586-3.69329834,0-6.68725586,2.99401855-6.68725586,6.68725586,0,1.76062012.68560791,3.35742188,1.79779053,4.55163574h-.00915527c1.61303711,1.61297607.5100708,2.86962891-.62145996,2.86962891h-16.37664795v15.96276855c-.38739014.7878418-1.43475342,1.20623779-2.70654297-.06555176v.00909424c-1.19421387-1.11218262-2.79101562-1.79779053-4.55163574-1.79779053-3.69329834,0-6.68725586,2.99401855-6.68725586,6.68731689,0,3.6932373,2.99395752,6.68725586,6.68725586,6.68725586,1.76062012,0,3.35742188-.68560791,4.55163574-1.79779053v.00915527c1.27178955-1.27185059,2.31915283-.85345459,2.70654297-.06561279v17.43066406h43.05950928v-43.05950928h-15.6427002Z"/>
  </g>
  <polygon class="cls-4" points="52.90148869 131.87533754 50.56196124 130.42778775 43.85430096 130.42778775 41.86137383 131.99766569 52.90148869 131.87533754"/>
  <path class="cls-6" d="M125.66951417,152.82674183c0,3.70041056-2.98916769,6.68957826-6.68963692,6.68957826-1.75892403,0-3.35441003-.68238016-4.54622875-1.79734898v.0096209c-1.15339377-1.15339377-2.12416637-.91310584-2.58550041-.26909197v16.89700457h-16.0128201c-1.12453106,0-2.22982031,1.25910637-.6150925,2.87383418h-.0096209c1.10528925,1.19187738,1.79734898,2.78736338,1.79734898,4.54628741,0,3.70041056-2.9987886,6.68957826-6.68963692,6.68957826-3.69078966,0-6.68957826-2.98916769-6.68957826-6.68957826,0-1.75892403.69200106-3.35441003,1.79734898-4.54628741h-.0096209c1.61472781-1.61472781.50937989-2.87383418-.61515116-2.87383418h-16.01276144v-16.79129196c-.42290909-.72086377-1.44172754-1.05730206-2.65278807.16337936v-.0096209c-1.19181872,1.11496882-2.79698429,1.79734898-4.55584965,1.79734898-3.69084832,0-6.68963692-2.98916769-6.68963692-6.68957826,0-3.69084832,2.9987886-6.68963692,6.68963692-6.68963692,1.75886536,0,3.36403093.69205973,4.55584965,1.80696988v-.0096209c1.21106052,1.21106052,2.22987897.88424313,2.65278807.16337936v-16.80091287h17.03157989c.49981765.42290909.71124287,1.16301467.07690856,2.0472578-1.38406079,1.22068143-2.26830392,3.0084095-2.26830392,5.00762145,0,3.69078966,2.9987886,6.68957826,6.68957826,6.68957826,3.69084832,0,6.68963692-2.9987886,6.68963692-6.68957826,0-2.00883286-.89386404-3.79656093-2.28754573-5.02686326-.61515116-.87462223-.40366729-1.60510691.08652946-2.028016h17.04120079v16.90668414c.46133404.64395521,1.43210664.88424313,2.58550041-.26915063v.0096209c1.19181872-1.11491015,2.78730472-1.80696988,4.54622875-1.80696988,3.70046923,0,6.68963692,2.9987886,6.68963692,6.68963692Z"/>
  <g>
    <g id="ruka">
      <path class="cls-9" d="M197.43894895,144.89600872s-7.5996924-9.07482834-9.41338536-10.86909767c-6.30649758-6.23895857-10.96822131-16.87531568-14.54612288-17.02935806-3.57790157-.15404239-21.72981102-6.43331497-19.04054092-15.09828914,2.6892701-8.66497417,4.30086625-18.78721184,9.53686631-18.14162152,5.23600006.64559032,25.10870275,4.69183159,29.24167867,10.43924233,4.13297593,5.74741074,8.10108094,22.39963374,11.7336362,27.39095234,3.36308856,4.62105743,9.57870291,10.41250822,9.57870291,10.41250822-2.01165376,7.61713946-13.48826203,13.5293006-17.09083494,12.89566351Z"/>
      <path class="cls-8" d="M182.98111702,98.7174648c-2.46301059,2.57799753-8.84789932-.20760987-8.84789932-.20760987"/>
    </g>
    <g>
      <g>
        <path class="cls-1" d="M152.51276406,108.250832l17.13421631,3.2010498,7.90765381-42.32720947-42.32720947-7.90759277-3.00830078,16.10253906c-.5791626.47766113-1.5513916.64904785-2.33172607.08398438-.93475342-1.67608643-2.57940674-2.94012451-4.61334229-3.32012939-3.63049316-.67822266-7.12335205,1.71502686-7.80163574,5.34545898-.67822266,3.63049316,1.71502686,7.12341309,5.34545898,7.80163574,1.90917969.35668945,3.77593994-.14196777,5.21966553-1.21734619,1.32891846-.38751221,2.13366699.15631104,2.39294434.8805542l-3.11065674,16.65045166,15.69134521,2.93151855c.70324707.52545166.92218018,1.6317749-.56158447,2.6484375.00311279.00061035.00585938.0010376.00897217.00164795-1.31262207.96960449-2.27978516,2.41339111-2.60308838,4.144104-.67822266,3.63043213,1.71502686,7.12335205,5.34545898,7.80157471,3.63049316.67828369,7.12335205-1.71496582,7.80163574-5.34545898.32330322-1.73065186-.05743408-3.42626953-.93139648-4.80438232.00317383.00061035.00585938.00109863.0090332.00170898-1.0166626-1.48376465-.41308594-2.43640137.43255615-2.67254639Z"/>
        <path class="cls-8" d="M152.51276406,108.250832l17.13421631,3.2010498,7.90765381-42.32720947-42.32720947-7.90759277-3.00830078,16.10253906c-.5791626.47766113-1.5513916.64904785-2.33172607.08398438-.93475342-1.67608643-2.57940674-2.94012451-4.61334229-3.32012939-3.63049316-.67822266-7.12335205,1.71502686-7.80163574,5.34545898-.67822266,3.63049316,1.71502686,7.12341309,5.34545898,7.80163574,1.90917969.35668945,3.77593994-.14196777,5.21966553-1.21734619,1.32891846-.38751221,2.13366699.15631104,2.39294434.8805542l-3.11065674,16.65045166,15.69134521,2.93151855c.70324707.52545166.92218018,1.6317749-.56158447,2.6484375.00311279.00061035.00585938.0010376.00897217.00164795-1.31262207.96960449-2.27978516,2.41339111-2.60308838,4.144104-.67822266,3.63043213,1.71502686,7.12335205,5.34545898,7.80157471,3.63049316.67828369,7.12335205-1.71496582,7.80163574-5.34545898.32330322-1.73065186-.05743408-3.42626953-.93139648-4.80438232.00317383.00061035.00585938.00109863.0090332.00170898-1.0166626-1.48376465-.41308594-2.43640137.43255615-2.67254639Z"/>
      </g>
      <path class="cls-3" d="M163.96961221,91.93692819c.06390381-.22247314.11981201-.44909668.16320801-.68127441.73986816-3.96026611-1.87078857-7.77044678-5.83105469-8.51031494-.95147705-.17773438-1.89300537-.15765381-2.78662109.02362061-1.07867432-2.10284424-3.07739258-3.70544434-5.58032227-4.17303467-4.29364014-.80212402-8.42449951,2.02825928-9.22662354,6.32183838-.03405762.18218994-.05249023.36340332-.0736084.5447998-3.05889893.59173584-5.59545898,2.98577881-6.20227051,6.23406982-.79272461,4.24334717,2.00445557,8.3258667,6.24780273,9.11859131l18.56884766,3.46905518c3.64910889.6817627,7.16003418-1.72381592,7.84173584-5.37298584.52813721-2.82678223-.80096436-5.56433105-3.12109375-6.97436523Z"/>
      <g>
        <path class="cls-5" d="M144.46863479,91.835868l-1.12988281-.2109375c.00195312-.24902344-.04003906-.47753906-.12402344-.68261719-.08398438-.20556641-.19921875-.38867188-.34716797-.54833984-.14697266-.16015625-.32177734-.29248047-.52001953-.39746094-.19921875-.10449219-.41650391-.17871094-.65283203-.22314453-.42773438-.08007812-.83056641-.04394531-1.20654297.10888672-.37744141.15185547-.70166016.41699219-.97363281.79589844-.27197266.37841797-.46337891.86767578-.57519531,1.46630859-.11279297.60400391-.11132812,1.13183594.00537109,1.58300781s.32373047.81494141.62207031,1.09082031c.29931641.27539062.66015625.45263672,1.08203125.53173828.234375.04345703.46289062.05322266.68603516.02880859.22363281-.02490234.43212891-.08398438.62744141-.17724609.19433594-.09326172.36865234-.22021484.52148438-.38037109.15429688-.15917969.27636719-.35351562.36669922-.58203125l1.12890625.21484375c-.12841797.35302734-.30712891.66650391-.53710938.94042969-.22998047.27246094-.5.49462891-.81054688.66503906-.31005859.17089844-.64941406.28417969-1.01757812.34033203-.3671875.05566406-.75585938.04589844-1.1640625-.03027344-.64160156-.12011719-1.18505859-.37939453-1.62988281-.77880859-.4453125-.39892578-.75878906-.91015625-.94042969-1.53369141-.18261719-.62402344-.20019531-1.33056641-.05273438-2.12011719.14794922-.79199219.42041016-1.44482422.81689453-1.95947266.39501953-.51416016.87255859-.87792969,1.43212891-1.08886719.55908203-.21142578,1.15917969-.2578125,1.79785156-.13818359.39355469.07373047.75097656.19824219,1.07177734.37451172.32080078.17578125.59667969.39746094.82910156.66503906.23291016.26660156.40917969.57177734.53027344.91552734.12060547.34375.17431641.72021484.16357422,1.13037109Z"/>
        <path class="cls-5" d="M152.00867386,94.58635628c-.14794922.79199219-.41943359,1.44482422-.81591797,1.95947266-.39501953.51464844-.87451172.87744141-1.43408203,1.08886719-.56005859.21142578-1.16113281.25683594-1.80078125.13769531-.64160156-.12011719-1.18603516-.37988281-1.63183594-.77929688-.44726562-.39941406-.76171875-.91113281-.94433594-1.53466797-.18359375-.62402344-.20214844-1.33056641-.0546875-2.12060547.14794922-.79199219.42041016-1.44482422.81689453-1.95947266.39501953-.51416016.87353516-.87744141,1.43408203-1.08837891.56005859-.2109375,1.16210938-.25683594,1.80371094-.13671875.63964844.11914062,1.18310547.37890625,1.62890625.77832031.44628906.39892578.76171875.91064453.94482422,1.53222656.18359375.62304688.20117188,1.33056641.05322266,2.12255859ZM150.90125198,94.37932503c.11279297-.60302734.109375-1.13037109-.00683594-1.58105469-.1171875-.45019531-.32373047-.81396484-.62109375-1.09033203-.296875-.27636719-.65771484-.45458984-1.08251953-.53417969-.42675781-.07958984-.82861328-.04394531-1.20458984.10742188-.37548828.15039062-.69921875.41503906-.96972656.79296875-.27246094.37744141-.46435547.86865234-.57714844,1.47167969-.11279297.60400391-.11132812,1.13085938.00683594,1.58105469.11621094.45019531.32226562.81347656.61816406,1.09033203.29589844.27587891.65771484.45410156,1.08447266.53369141.42480469.07958984.82568359.04394531,1.20263672-.10644531.37695312-.15136719.70117188-.41552734.97265625-.79345703.27050781-.37744141.46435547-.86767578.57714844-1.47167969Z"/>
        <path class="cls-5" d="M151.96375198,100.31780159l.08837891-.47314453,1.74609375-1.24316406c.18701172-.13476562.34375-.25537109.46875-.36132812.125-.10498047.22412109-.20947266.29589844-.3125.07080078-.10302734.11865234-.21826172.14208984-.34423828.02685547-.14404297.01708984-.27441406-.03173828-.39208984-.04785156-.1171875-.12451172-.21533203-.23095703-.29443359-.10644531-.07861328-.23291016-.13183594-.37841797-.15917969-.15429688-.02880859-.29638672-.02294922-.42333984.01904297-.12792969.04199219-.23242188.11474609-.31640625.21875-.08300781.10351562-.13867188.23339844-.16748047.38769531l-.62304688-.11621094c.04882812-.26269531.15136719-.48242188.30957031-.65625.15771484-.17480469.35253906-.296875.58447266-.36621094.23144531-.06982422.48193359-.07958984.75048828-.02929688.27148438.05078125.50146484.14941406.68847656.29589844.18701172.14599609.32177734.32324219.40429688.53027344.08251953.20654297.1015625.42626953.05810547.65820312-.03027344.16064453-.08886719.31201172-.17675781.45458984-.08837891.14208984-.22363281.29345703-.40722656.45410156-.18261719.15966797-.43115234.34863281-.74511719.56738281l-1.02636719.73876953-.00585938.03125,1.94628906.36376953-.10449219.56005859-2.84570312-.53173828Z"/>
        <path class="cls-5" d="M157.69031448,99.56584847c-.37988281-.07080078-.69189453-.21337891-.93505859-.42773438-.24267578-.21435547-.41064453-.48388672-.50390625-.80859375-.09277344-.32470703-.10205078-.68701172-.02734375-1.08740234.07373047-.39501953.21337891-.72949219.41796875-1.00292969s.45556641-.46972656.75390625-.58886719c.29931641-.11962891.62744141-.14550781.98583984-.07861328.21777344.04052734.42089844.11621094.61230469.22607422.19091797.11035156.35351562.2578125.48681641.44140625.13330078.18457031.22412109.40820312.27197266.67089844s.0390625.56884766-.02636719.91845703l-.04980469.26660156-3.06542969-.57275391.10546875-.5625,2.33007812.43554688c.03662109-.19726562.02832031-.38085938-.02197266-.54833984-.05224609-.16845703-.14208984-.31054688-.27001953-.42626953-.12890625-.11523438-.28955078-.19189453-.48388672-.22802734-.2109375-.03955078-.40429688-.02246094-.58056641.05175781-.17578125.07324219-.32080078.18457031-.43554688.33398438-.11572266.14892578-.19140625.31982422-.22705078.51220703l-.08203125.43945312c-.04833984.2578125-.04443359.48535156.01367188.68359375.05712891.19726562.15917969.35888672.30566406.484375s.32910156.20800781.54882812.24902344c.14160156.02636719.27490234.03076172.39990234.01123047.125-.01904297.23779297-.06103516.33837891-.12744141.10107422-.06591797.18554688-.15527344.25292969-.26757812l.68603516.26074219c-.09667969.19824219-.23144531.36230469-.40722656.49121094-.17675781.12939453-.38183594.21679688-.61767578.26220703-.23681641.04443359-.49462891.04101562-.77587891-.01171875Z"/>
        <path class="cls-5" d="M162.52820511,101.88567269l.38232422-2.04589844-.04589844-.00878906c-.06054688.07373047-.14306641.15527344-.24707031.24511719-.10449219.08935547-.23779297.15966797-.39892578.2109375-.16210938.05078125-.36035156.05517578-.59570312.01123047-.31054688-.05810547-.57275391-.18994141-.78710938-.39501953-.21337891-.20605469-.36083984-.46972656-.44433594-.79296875-.08300781-.32226562-.08447266-.69238281-.00683594-1.10888672.078125-.41699219.21386719-.76025391.40966797-1.03076172.1953125-.27001953.42871094-.4609375.70361328-.57226562.2734375-.11230469.56542969-.13867188.875-.08105469.23925781.04492188.42431641.12060547.55664062.22753906.13085938.10644531.22753906.22070312.2890625.34130859.06152344.12011719.10742188.22509766.13769531.31396484l.0625.01171875.11669922-.625.73339844.13671875-.99072266,5.30224609-.75-.14013672ZM161.9085762,99.68889534c.21582031.04052734.40917969.01757812.58105469-.06933594.171875-.08642578.31494141-.22460938.43017578-.41455078.11621094-.18945312.19970703-.41992188.25048828-.69091797.04980469-.26757812.05566406-.50927734.01513672-.72509766-.03857422-.21484375-.12158203-.39208984-.25097656-.53222656-.12792969-.13964844-.30175781-.23046875-.52050781-.27148438-.22558594-.04199219-.42431641-.01904297-.59716797.0703125-.17236328.08886719-.31542969.22753906-.43066406.41552734-.11279297.18847656-.19482422.40966797-.2421875.6640625-.04833984.2578125-.05224609.49707031-.01367188.71728516s.12255859.40429688.25146484.55224609c.12792969.14794922.30419922.24267578.52685547.28417969Z"/>
      </g>
      <g>
        <path class="cls-5" d="M144.34168167,70.02141487c-.13623047.72949219-.38720703,1.33105469-.75146484,1.8046875s-.8046875.80810547-1.32128906,1.00292969c-.51513672.19433594-1.06787109.23681641-1.65771484.12646484-.59082031-.11035156-1.09277344-.34960938-1.50439453-.71728516-.40917969-.36767578-.70019531-.83935547-.86865234-1.4140625-.16894531-.57421875-.18554688-1.22460938-.04980469-1.95214844.13623047-.72949219.38720703-1.33105469.75146484-1.8046875.36474609-.47363281.80566406-.80712891,1.3203125-1.00195312.51660156-.19482422,1.07080078-.23681641,1.66162109-.12646484.58984375.11035156,1.09033203.34912109,1.50048828.71728516.41113281.36767578.70166016.83789062.87011719,1.41113281.16894531.57373047.18554688,1.22509766.04931641,1.95410156ZM143.32117386,69.83049691c.10400391-.55566406.10253906-1.04052734-.00585938-1.45556641-.10742188-.41455078-.29882812-.74902344-.57128906-1.00390625-.27392578-.25488281-.60693359-.41894531-.99755859-.4921875-.39355469-.07324219-.76269531-.04052734-1.10888672.09863281-.34570312.13916016-.64355469.3828125-.89355469.73046875-.25097656.34765625-.42724609.79931641-.53125,1.35498047-.10351562.55615234-.10253906,1.04150391.00585938,1.45605469.10742188.41455078.29785156.74951172.56982422,1.00390625.27246094.25439453.60498047.41845703.99853516.49169922.390625.07324219.76025391.04052734,1.10791016-.09814453.34619141-.13916016.64501953-.38232422.89501953-.72998047.25097656-.34814453.42773438-.79980469.53125-1.35595703Z"/>
        <path class="cls-5" d="M144.98425979,73.67571175l1.27587891-6.83007812,4.23535156.79101562-.16601562.88769531-3.20507812-.59863281-.38867188,2.08056641,2.90234375.54199219-.16503906.88378906-2.90234375-.54199219-.55615234,2.97802734-1.03027344-.19238281Z"/>
        <path class="cls-5" d="M150.48718948,74.70354378l1.27587891-6.83007812,4.23535156.79101562-.16601562.88769531-3.20605469-.59863281-.38867188,2.08056641,2.90234375.54199219-.16503906.88378906-2.90234375-.54199219-.55615234,2.97802734-1.02929688-.19238281Z"/>
        <path class="cls-5" d="M160.65418167,71.39153206c.02392578-.32226562-.07763672-.59472656-.30175781-.81738281-.22558594-.22265625-.53417969-.37060547-.92578125-.44384766-.28027344-.05224609-.52978516-.05322266-.75146484-.00439453-.22021484.05029297-.40087891.140625-.54150391.27197266-.14111328.13134766-.22998047.29345703-.26611328.48681641-.03027344.16259766-.01806641.30957031.03662109.44189453.05419922.13183594.13671875.24951172.24755859.35205078.11132812.10205078.23486328.19335938.36865234.27246094.13476562.07861328.26660156.1484375.39404297.20605469l.63378906.29785156c.20751953.09423828.41796875.20800781.63037109.34228516.21142578.13378906.40087891.29345703.56933594.47900391.16748047.18554688.29101562.39941406.37109375.64257812.08105469.2421875.09228516.51708984.03515625.82373047-.07226562.38671875-.23632812.71191406-.49121094.97509766-.25537109.26318359-.58691406.44628906-.99609375.54882812-.41064453.10302734-.88183594.10449219-1.41503906.00488281-.51074219-.09570312-.93798828-.25927734-1.28173828-.49121094-.34277344-.23144531-.59228516-.51757812-.74755859-.85595703s-.20605469-.71533203-.15136719-1.13134766l1.03417969.19335938c-.02685547.25097656.01611328.47119141.12597656.66064453.11132812.19042969.27050781.34472656.47607422.46533203.20703125.12011719.44287109.20458984.70654297.25390625.29199219.0546875.55957031.05712891.80517578.0078125.24462891-.04980469.44873047-.14550781.61132812-.28613281.16064453-.14160156.26318359-.32275391.30517578-.54541016.03759766-.20214844.01074219-.37841797-.07910156-.52929688-.09130859-.14990234-.22558594-.28613281-.40429688-.40673828-.17871094-.12109375-.38427734-.23632812-.61621094-.34619141l-.76660156-.37109375c-.51904297-.25146484-.91064453-.55078125-1.17626953-.89990234-.26513672-.34814453-.35302734-.76025391-.26416016-1.23632812.07373047-.39355469.24414062-.71679688.51269531-.97070312.26806641-.25341797.59960938-.42773438.99511719-.52294922.39501953-.09521484.82128906-.10009766,1.27929688-.01464844.46289062.08642578.85595703.24365234,1.18017578.47216797.32519531.22851562.56298828.50390625.71435547.82519531.15185547.32177734.19775391.66699219.13769531,1.03515625l-.99414062-.18554688Z"/>
        <path class="cls-5" d="M162.03211136,76.86028206l1.27587891-6.83007812,4.28125.79980469-.16601562.88769531-3.25097656-.60742188-.38867188,2.08056641,3.02832031.56591797-.16503906.88378906-3.02832031-.56591797-.390625,2.09130859,3.29199219.61523438-.16552734.88671875-4.32226562-.80761719Z"/>
        <path class="cls-5" d="M168.46814651,71.91301644l.16601562-.88769531,5.28515625.98730469-.16601562.88769531-2.13085938-.39794922-1.10986328,5.94238281-1.02734375-.19189453,1.10986328-5.94238281-2.12695312-.39746094Z"/>
      </g>
    </g>
    <g id="palec">
      <path class="cls-9" d="M186.60343092,132.38027443s-3.79426443-.75522062-5.20135004-1.74345558-8.95602159-8.46316796-11.22187952-12.07414111c-3.75607996-5.98585801-2.92111276-8.1796762-5.79110646-14.64975899-2.92286037-6.58926483-6.55313445-12.84428284-7.41401496-15.00284026-1.70619-4.27807235,4.78340088-8.08760034,8.69280818-3.65819419,6.35725313,7.20284534,8.40127902,19.06142136,20.21120066,22.38361198"/>
      <path class="cls-11" d="M160.40911611,92.16310283c-.79068331-1.3792286-1.21849616-2.37425304-1.72210803-3.45454851-.98089725-2.10411813,3.20401554-5.8701664,5.90413903-1.92119808.54110913.79137966,1.40385767,2.49959622,1.40385767,2.49959622-1.52707723,1.86694322-3.8075174,2.93663063-5.58588867,2.87615036Z"/>
    </g>
  </g>
</svg>