<?xml version="1.0" encoding="UTF-8"?>
<svg id="Layer_1" data-name="Layer 1" xmlns="http://www.w3.org/2000/svg" xmlns:xlink="http://www.w3.org/1999/xlink" viewBox="0 0 660 200">
  <defs>
    <style>
      .cls-1 {
        fill: url(#New_Gradient_Swatch_1-3);
      }

      .cls-1, .cls-2, .cls-3, .cls-4, .cls-5, .cls-6, .cls-7, .cls-8, .cls-9, .cls-10, .cls-11, .cls-12, .cls-13, .cls-14 {
        stroke: #004000;
        stroke-miterlimit: 10;
        stroke-width: .75px;
      }

      .cls-2 {
        fill: url(#New_Gradient_Swatch_1-5);
      }

      .cls-15 {
        fill: url(#New_Gradient_Swatch_1-4);
      }

      .cls-15, .cls-16, .cls-17, .cls-18, .cls-19 {
        stroke-width: 0px;
      }

      .cls-16 {
        fill: url(#New_Gradient_Swatch_1-2);
      }

      .cls-3, .cls-11 {
        fill: none;
      }

      .cls-4 {
        fill: url(#New_Gradient_Swatch_1);
      }

      .cls-5 {
        fill: url(#linear-gradient-2);
      }

      .cls-6 {
        fill: url(#linear-gradient-4);
      }

      .cls-7 {
        fill: url(#linear-gradient-3);
      }

      .cls-8, .cls-10 {
        fill: #fff;
      }

      .cls-8, .cls-11 {
        stroke-linecap: round;
      }

      .cls-9 {
        fill: url(#linear-gradient);
      }

      .cls-17 {
        fill: #dcf8dc;
      }

      .cls-18 {
        fill: #e8811c;
      }

      .cls-19 {
        fill: #004000;
      }

      .cls-12 {
        fill: #e0ebc7;
      }

      .cls-13 {
        fill: #d9d29a;
      }

      .cls-14 {
        fill: #f2f4f7;
      }
    </style>
    <linearGradient id="New_Gradient_Swatch_1" data-name="New Gradient Swatch 1" x1="243.46928675" y1="242.31343406" x2="313.43080729" y2="242.31343406" gradientTransform="translate(-69.85565966 -100.94640528) rotate(7.16852425)" gradientUnits="userSpaceOnUse">
      <stop offset="0" stop-color="#a4ee6e"/>
      <stop offset=".9989046" stop-color="#00b0a0"/>
    </linearGradient>
    <linearGradient id="linear-gradient" x1="113.24275553" y1="131.86250484" x2="119.29353835" y2="131.86250484" gradientUnits="userSpaceOnUse">
      <stop offset="0" stop-color="#dcf8dc"/>
      <stop offset=".20954353" stop-color="#e6fae6"/>
      <stop offset=".66925241" stop-color="#f8fdf8"/>
      <stop offset="1" stop-color="#fff"/>
    </linearGradient>
    <linearGradient id="linear-gradient-2" y1="134.628806" y2="134.628806" xlink:href="#linear-gradient"/>
    <linearGradient id="New_Gradient_Swatch_1-2" data-name="New Gradient Swatch 1" x1="109.21850097" y1="56.90109994" x2="84.88933655" y2="116.50755276" gradientTransform="translate(-9.57878384 4.79260984)" xlink:href="#New_Gradient_Swatch_1"/>
    <linearGradient id="New_Gradient_Swatch_1-3" data-name="New Gradient Swatch 1" x1="33.28834639" y1="87.55895337" x2="77.27618376" y2="105.34127061" gradientTransform="matrix(1,0,0,1,0,0)" xlink:href="#New_Gradient_Swatch_1"/>
    <linearGradient id="linear-gradient-3" x1="172.67896145" y1="142.11468975" x2="172.67896145" y2="142.11468975" xlink:href="#linear-gradient"/>
    <linearGradient id="linear-gradient-4" x1="169.96299922" y1="142.11468975" x2="175.39492367" y2="142.11468975" xlink:href="#linear-gradient"/>
    <linearGradient id="New_Gradient_Swatch_1-4" data-name="New Gradient Swatch 1" x1="208.0085529" y1="56.90109994" x2="183.67938848" y2="116.50755276" gradientTransform="translate(-9.57878384 4.79260984)" xlink:href="#New_Gradient_Swatch_1"/>
    <linearGradient id="New_Gradient_Swatch_1-5" data-name="New Gradient Swatch 1" x1="132.07839833" y1="87.55895337" x2="176.06623569" y2="105.34127061" gradientTransform="matrix(1,0,0,1,0,0)" xlink:href="#New_Gradient_Swatch_1"/>
  </defs>
  <g id="ruka">
    <path class="cls-8" d="M250.58168983,191.45708612s-13.25351705-3.37658191-15.21829133-3.67848039c-6.83183127-1.04974882-14.63808433-5.62543387-16.96515752-4.08571654-2.32707318,1.53971733-16.64830552,5.88376068-18.91635369-.81160775-2.26804817-6.69536844-5.88248139-13.81680929-2.28475682-15.80507701,3.59772458-1.98826772,17.98266842-8.52794909,23.2187685-6.79384622,5.23610008,1.73410287,15.35711396,10.42135035,19.93168786,11.90752233,4.23522729,1.37592621,15.11367044,3.31487528,15.11367044,3.31487528"/>
    <path class="cls-3" d="M216.02794185,167.81657984c-.37401114,2.75277069-5.67539269,3.91693044-5.67539269,3.91693044"/>
  </g>
  <g id="palec">
    <g id="offset">
      <rect id="offset-bg" class="cls-4" x="143.31462312" y="155.20980341" width="65.73075524" height="38.02087371"/>
      <path class="cls-17" d="M200.99098621,172.27061158c.02178955-.22888184.03509521-.46032715.03509521-.69494629,0-4.00244141-3.24456787-7.24707031-7.24694824-7.24707031-.96160889,0-1.87738037.19140625-2.71697998.53149414-1.43701172-1.85668945-3.68115234-3.05712891-6.21075439-3.05712891-4.3392334,0-7.85687256,3.5177002-7.85687256,7.85693359,0,.18408203.01507568.36450195.02752686.54541016-2.87921143,1.13586426-4.91949463,3.93652344-4.91949463,7.21948242,0,4.28833008,3.47644043,7.76489258,7.76489258,7.76489258h18.76623535c3.68792725,0,6.6776123-2.98974609,6.6776123-6.67773438,0-2.85668945-1.79742432-5.28759766-4.3203125-6.24133301Z"/>
      <g>
        <path class="cls-19" d="M182.38416214,174.98715701h-1.10595703c-.04248047-.23632812-.12158203-.44433594-.23730469-.62402344-.11621094-.17919922-.2578125-.33154297-.42529297-.45703125-.16796875-.125-.35546875-.21972656-.56201172-.28369141-.20703125-.06347656-.42626953-.09570312-.65771484-.09570312-.41796875,0-.79199219.10546875-1.12158203.31542969-.33007812.21044922-.58984375.51904297-.78027344.92529297-.18994141.40673828-.28515625.90283203-.28515625,1.48876953,0,.59082031.09521484,1.08935547.28515625,1.49609375.19042969.40625.45117188.71337891.78173828.92138672.33105469.20800781.703125.31201172,1.11669922.31201172.22900391,0,.44726562-.03125.65380859-.09375.20703125-.06298828.39404297-.15576172.56201172-.27832031.16796875-.12304688.31005859-.2734375.42724609-.45214844.11669922-.17822266.19775391-.38330078.24267578-.61474609l1.10595703.00341797c-.05908203.35693359-.17333984.68457031-.34179688.98339844-.16943359.29931641-.38525391.55664062-.64892578.77294922s-.56445312.38330078-.90234375.50146484-.70654297.17724609-1.10595703.17724609c-.62841797,0-1.18847656-.14941406-1.68017578-.44824219-.49121094-.29882812-.87841797-.72705078-1.16064453-1.28515625-.28271484-.55761719-.42382812-1.22265625-.42382812-1.99560547,0-.77490234.14208984-1.44091797.42529297-1.99755859.28369141-.55615234.67138672-.98388672,1.16308594-1.28320312.49121094-.29882812,1.05029297-.44824219,1.67626953-.44824219.38525391,0,.74511719.05517578,1.07958984.16503906s.63525391.27050781.90234375.48193359c.26660156.21142578.48779297.46923828.66259766.77246094.17480469.30371094.29296875.65087891.35449219,1.04052734Z"/>
        <path class="cls-19" d="M190.00134964,176.25619998c0,.77539062-.14160156,1.44091797-.42529297,1.99755859s-.671875.984375-1.16455078,1.28320312-1.05224609.44824219-1.67822266.44824219c-.62890625,0-1.18945312-.14941406-1.68212891-.44824219s-.88085938-.72705078-1.16455078-1.28515625c-.28320312-.55761719-.42529297-1.22265625-.42529297-1.99560547,0-.77490234.14208984-1.44091797.42529297-1.99755859.28369141-.55615234.671875-.98388672,1.16455078-1.28320312.49267578-.29882812,1.05322266-.44824219,1.68212891-.44824219.62597656,0,1.18554688.14941406,1.67822266.44824219.49267578.29931641.88085938.72705078,1.16455078,1.28320312.28369141.55664062.42529297,1.22265625.42529297,1.99755859ZM188.91687698,176.25619998c0-.59082031-.09521484-1.08886719-.28564453-1.49414062-.18994141-.40527344-.45019531-.71240234-.77978516-.92138672-.32958984-.20947266-.70214844-.31396484-1.11816406-.31396484-.41845703,0-.79150391.10449219-1.12011719.31396484-.32861328.20898438-.58789062.51611328-.77832031.92138672-.18994141.40527344-.28515625.90332031-.28515625,1.49414062s.09521484,1.08886719.28515625,1.49414062c.19042969.40527344.44970703.71240234.77832031.921875.32861328.20898438.70166016.31347656,1.12011719.31347656.41601562,0,.78857422-.10449219,1.11816406-.31347656.32958984-.20947266.58984375-.51660156.77978516-.921875.19042969-.40527344.28564453-.90332031.28564453-1.49414062Z"/>
        <path class="cls-19" d="M190.97254104,181.68491092v-.46289062l1.43212891-1.48388672c.15283203-.16113281.27929688-.30273438.37890625-.42480469.10009766-.12158203.17480469-.23779297.22460938-.34814453.04931641-.11035156.07421875-.22705078.07421875-.35107422,0-.140625-.03320312-.26220703-.09912109-.36474609-.06640625-.10253906-.15625-.18212891-.27099609-.23779297-.11425781-.05566406-.24316406-.08349609-.38623047-.08349609-.15136719,0-.28369141.03076172-.39697266.09277344-.11279297.06201172-.19970703.14941406-.26025391.26269531-.06054688.11279297-.09082031.24511719-.09082031.39648438h-.60986328c0-.25732422.05957031-.48291016.17773438-.67578125.11865234-.19287109.28125-.34277344.48779297-.44921875.20654297-.10693359.44140625-.16015625.70458984-.16015625.26611328,0,.50048828.05273438.70361328.15771484.20361328.10546875.36230469.24902344.4765625.43017578s.17138672.38525391.17138672.61279297c0,.15673828-.02929688.31054688-.08789062.46044922-.05810547.15039062-.16015625.31738281-.3046875.50146484-.14453125.18359375-.34570312.40673828-.60351562.66845703l-.84082031.88037109v.03076172h1.90527344v.54785156h-2.78564453Z"/>
        <path class="cls-19" d="M196.25476761,179.96225467c-.37158203,0-.69140625-.08007812-.95947266-.23974609s-.47412109-.38476562-.61914062-.67578125c-.14501953-.29052734-.21777344-.63183594-.21777344-1.0234375,0-.38671875.07275391-.72753906.21777344-1.02197266.14501953-.29492188.34814453-.52539062.609375-.69091797s.56738281-.24804688.91796875-.24804688c.21289062,0,.41894531.03515625.61914062.10546875.19970703.07080078.37939453.18115234.53808594.33203125s.28417969.34619141.37597656.5859375c.09179688.24023438.13769531.53125.13769531.87353516v.26074219h-3.00048828v-.55078125h2.28027344c0-.19287109-.0390625-.36474609-.11767578-.51464844s-.18896484-.26806641-.33056641-.35498047-.30761719-.13037109-.49755859-.13037109c-.20654297,0-.38623047.05029297-.53955078.15136719-.15332031.10058594-.27099609.23144531-.35400391.39306641-.08251953.16113281-.12402344.33642578-.12402344.52441406v.43017578c0,.25244141.04443359.46679688.13378906.64404297.08935547.17675781.21435547.31152344.375.40429688.16064453.09228516.34814453.13867188.5625.13867188.13964844,0,.26660156-.02001953.38085938-.06005859.11474609-.04052734.21386719-.10058594.29736328-.18066406.08398438-.08056641.14746094-.1796875.19189453-.29736328l.6953125.125c-.05566406.20507812-.15527344.38378906-.29833984.53710938-.14355469.15332031-.32275391.27197266-.53808594.35644531-.21582031.08447266-.4609375.12646484-.73632812.12646484Z"/>
        <path class="cls-19" d="M201.24109573,181.30161013v-2.00292969h-.04443359c-.04443359.08056641-.10791016.171875-.19042969.27539062-.08300781.10302734-.19628906.19335938-.34033203.27001953-.14404297.07714844-.33105469.11572266-.56054688.11572266-.3046875,0-.57617188-.078125-.81445312-.23486328-.23828125-.15625-.42529297-.37988281-.56005859-.67089844-.13525391-.29052734-.203125-.64013672-.203125-1.04785156s.06835938-.75683594.20556641-1.046875c.13671875-.29003906.32470703-.51171875.56396484-.66601562.23876953-.15380859.51025391-.23095703.81298828-.23095703.234375,0,.42333984.0390625.56689453.11669922.14306641.07763672.25439453.16845703.33398438.27148438.07958984.10351562.14111328.19433594.18554688.27294922h.06152344v-.61181641h.71728516v5.18994141h-.734375ZM200.2679512,179.33334842c.2109375,0,.39013672-.05615234.53662109-.16845703s.25830078-.26806641.33447266-.46826172c.07617188-.19970703.11425781-.43261719.11425781-.69775391,0-.26220703-.03808594-.49169922-.11328125-.68798828-.07519531-.19677734-.18603516-.35009766-.33154297-.45947266-.14599609-.10986328-.32617188-.16503906-.54052734-.16503906-.22119141,0-.40576172.05761719-.55322266.17236328s-.25830078.27099609-.33300781.46923828c-.07421875.19824219-.11181641.421875-.11181641.67089844,0,.25244141.03759766.47900391.11328125.68066406.07519531.20166016.18701172.36083984.33544922.47802734.14794922.1171875.33105469.17578125.54931641.17578125Z"/>
      </g>
      <g>
        <path class="cls-19" d="M150.33093948,184.3597156c.64794922,0,1.20458984.11865234,1.66992188.35546875.46533203.23730469.82275391.56152344,1.07275391.97363281.25.41162109.375.87939453.375,1.40283203,0,.52587891-.125.99462891-.375,1.40625-.25.41210938-.60791016.73632812-1.07421875.97363281-.46630859.23681641-1.02246094.35546875-1.66845703.35546875-.64794922,0-1.20458984-.11865234-1.66992188-.35546875-.46484375-.23730469-.82275391-.56152344-1.07226562-.97363281-.25-.41162109-.375-.88037109-.375-1.40625,0-.5234375.125-.99121094.375-1.40283203.24951172-.41210938.60742188-.73632812,1.07226562-.97363281.46533203-.23681641,1.02197266-.35546875,1.66992188-.35546875ZM150.33093948,185.26645388c-.49365234,0-.91015625.07958984-1.24902344.23828125-.33886719.15917969-.59570312.37646484-.77050781.65234375-.17480469.27539062-.26220703.58691406-.26220703.93457031,0,.35009766.08740234.66210938.26220703.93652344.17480469.27490234.43164062.49169922.77050781.65039062.33886719.15917969.75537109.23876953,1.24902344.23876953.49414062,0,.91064453-.07958984,1.24902344-.23876953.33886719-.15869141.59570312-.37548828.77050781-.65039062.17480469-.27441406.26220703-.58642578.26220703-.93652344,0-.34765625-.08740234-.65917969-.26220703-.93457031-.17480469-.27587891-.43164062-.49316406-.77050781-.65234375-.33837891-.15869141-.75488281-.23828125-1.24902344-.23828125Z"/>
        <path class="cls-19" d="M153.36560745,183.22153201h-6.06884766v-3.76318359h.78808594v2.84765625h1.84912109v-2.578125h.78515625v2.578125h2.64648438v.91552734Z"/>
        <path class="cls-19" d="M153.36560745,178.33188357h-6.06884766v-3.76318359h.78808594v2.84765625h1.84912109v-2.578125h.78515625v2.578125h2.64648438v.91552734Z"/>
        <path class="cls-19" d="M148.89099808,170.13217654c-.28076172.03173828-.49853516.16210938-.65332031.39160156-.15527344.22900391-.23291016.51757812-.23291016.86523438,0,.24853516.0390625.46435547.1171875.64599609s.18457031.32226562.31982422.42236328c.13574219.09960938.2890625.14941406.4609375.14941406.14453125,0,.26855469-.03417969.37353516-.10205078.10449219-.06835938.19189453-.15820312.26220703-.27001953.0703125-.11132812.12841797-.23144531.17480469-.35986328s.08447266-.25195312.11425781-.37060547l.15380859-.59228516c.04736328-.19384766.11181641-.39257812.19287109-.59570312.08105469-.20361328.1875-.39208984.31982422-.56591797s.29638672-.31494141.4921875-.42236328c.1953125-.10791016.4296875-.16162109.70214844-.16162109.34375,0,.64892578.08837891.91552734.26513672s.47705078.43261719.63134766.76757812.23095703.73925781.23095703,1.21337891c0,.45458984-.07177734.84765625-.21630859,1.1796875-.14404297.33154297-.34912109.59130859-.61474609.77929688-.265625.1875-.58105469.29150391-.94677734.31103516v-.91845703c.21923828-.01806641.40136719-.08935547.546875-.21484375.14501953-.12548828.25292969-.28662109.32275391-.48339844.0703125-.19628906.10546875-.41210938.10546875-.64746094,0-.25878906-.04101562-.48925781-.12304688-.69189453-.08203125-.20214844-.19677734-.36181641-.34375-.47851562-.14746094-.11669922-.31982422-.17480469-.51708984-.17480469-.1796875,0-.32714844.05078125-.44189453.15283203-.11425781.1015625-.20898438.23876953-.28417969.41162109s-.14111328.36816406-.19873047.58544922l-.1953125.71728516c-.13232422.48583984-.32714844.87060547-.58398438,1.15380859-.25683594.28369141-.59667969.42529297-1.01953125.42529297-.34960938,0-.65478516-.09472656-.91552734-.28417969-.26074219-.18994141-.46386719-.44677734-.60888672-.77050781-.14550781-.32421875-.21777344-.68945312-.21777344-1.09667969,0-.41064453.07226562-.77392578.21630859-1.08886719s.34228516-.56347656.59423828-.74511719c.25195312-.18212891.54052734-.27685547.86669922-.28466797v.8828125Z"/>
        <path class="cls-19" d="M153.36560745,168.07260623h-6.06884766v-3.8046875h.78808594v2.88916016h1.84912109v-2.69042969h.78515625v2.69042969h1.85839844v-2.92480469h.78808594v3.84033203Z"/>
        <path class="cls-19" d="M148.08484573,163.34018435h-.78808594v-4.69677734h.78808594v1.89355469h5.28076172v.91259766h-5.28076172v1.890625Z"/>
      </g>
      <polyline class="cls-3" points="206.26714421 185.68840977 206.26714346 190.29790922 201.657644 190.29790847"/>
      <polyline class="cls-3" points="201.65764438 157.91742686 206.26714384 157.91742761 206.26714308 162.52692707"/>
      <line class="cls-14" x1="164.06229591" y1="157.91742664" x2="164.06229591" y2="172.20214381"/>
      <line class="cls-14" x1="164.06229591" y1="181.17856888" x2="164.06229591" y2="190.29794924"/>
      <g>
        <path class="cls-19" d="M164.46179886,173.93491092v5.1953125h-.78613281v-4.40917969h-.03076172l-1.24267578.81201172v-.75097656l1.29638672-.84716797h.76318359Z"/>
        <path class="cls-19" d="M168.87488479,175.23373904v.60888672h-2.12890625v-.60888672h2.12890625ZM167.31677933,174.30014529h.75878906v3.68603516c0,.14697266.02197266.25732422.06591797.33105469.04394531.07324219.10107422.12353516.17138672.14941406.06982422.02636719.14648438.03955078.22949219.03955078.06103516,0,.11425781-.00439453.15966797-.01269531.04589844-.00830078.08105469-.01513672.10644531-.02050781l.13720703.62695312c-.04394531.01660156-.10644531.03417969-.1875.05175781-.08154297.01806641-.18310547.02734375-.3046875.02929688-.19970703.00341797-.38574219-.03222656-.55810547-.10644531-.17236328-.07470703-.31201172-.18945312-.41845703-.34521484s-.16015625-.35107422-.16015625-.5859375v-3.84326172Z"/>
      </g>
    </g>
  </g>
  <g>
    <line class="cls-9" x1="113.24275553" y1="131.86250484" x2="119.29353835" y2="131.86250484"/>
    <line class="cls-5" x1="113.24275553" y1="134.628806" x2="119.29353835" y2="134.628806"/>
  </g>
  <path class="cls-8" d="M11.76294148,194.80520569s19.25154939-5.52323227,20.7515948-5.5631935c27.72401555-.73856819,38.52477947-9.34114555,42.46767092-12.15657722,4.82820015-3.4475886,2.49180582-7.45831879-1.06451618-5.69043926-3.851709,1.91471906-7.27380222,4.96889375-14.51814493,6.7755412-1.63926666.40881237-1.68876947.19420749,0,0,4.56326993-.52477334,18.34576897-8.9811512,20.72340214-10.28516183,4.81476041-2.64065074,3.2768327-8.83417817-1.5291066-5.66409413-5.76597075,3.80333806-18.45107978,9.43922552-19.93249311,9.59848064-1.87432199.20149366-1.69624113.62107666,0,0,14.41395437-5.27765212,21.45269936-10.51889668,23.50401948-12.10694383,3.27603272-2.53616897.73933445-8.37859161-4.35521477-4.91344145-4.89304581,3.32809396-18.67376627,9.01705962-20.26875298,9.27698777-1.59335536.25821491-1.66850118.53782309,0,0,1.66854213-.53615079,16.26781806-6.72412377,20.26875298-9.27698777,2.6656983-1.70089377.99010783-8.05864101-4.67109038-5.32275217-6.12285854,2.95899555-15.80916614,7.46493498-18.77781623,8.071404-2.96865009.60646902-5.9157521,1.34125477-8.10338827,1.5889207-2.18922658.25105148-1.3473696-1.10820315.18164328-2.0124109,1.52734057-.90416681,6.89253288-4.74753731,8.44908154-6.03355859,2.53665455-2.09578526,3.05607893-9.22587177-2.61338424-6.02658779-5.66942222,3.20095628-17.51176284,10.36148971-20.94634504,12.57737103-3.43290989,2.21584038-5.22232978,7.37594564-6.71130741,8.41872505-4.7305764,3.31297633-22.33415939,5.76837711-22.33415939,5.76837711"/>
  <g>
    <g>
      <polyline class="cls-12" points="79.27315084 133.28546619 79.14632773 114.67158346 72.74057651 114.67158346 72.74057651 133.31136596"/>
      <g>
        <polygon class="cls-16" points="86.54268299 119.63120728 98.84926258 124.06834107 84.78517566 97.95359498 90.07576404 100.20213014 81.31551013 81.02903443 85.46870838 83.7890442 75.93404041 59.33457642 66.55965076 83.7890442 70.53187976 81.1039856 61.9525951 100.20213014 66.96297107 98.03635865 53.17909656 124.06834107 65.45540271 119.56638795 61.9525951 127.36375123 72.80019031 122.67503053 76.01417957 127.91428834 79.01478992 122.66306764 90.07576404 127.36375123 86.54268299 119.63120728"/>
        <polygon class="cls-3" points="86.54268299 119.63120728 98.84926258 124.06834107 84.78517566 97.95359498 90.07576404 100.20213014 81.31551013 81.02903443 85.46870838 83.7890442 75.93404041 59.33457642 66.55965076 83.7890442 70.53187976 81.1039856 61.9525951 100.20213014 66.96297107 98.03635865 53.17909656 124.06834107 65.45540271 119.56638795 61.9525951 127.36375123 72.80019031 122.67503053 76.01417957 127.91428834 79.01478992 122.66306764 90.07576404 127.36375123 86.54268299 119.63120728"/>
      </g>
    </g>
    <g>
      <g>
        <polyline class="cls-12" points="54.62369084 133.24981414 54.00422175 116.05109449 47.76352738 116.05109449 47.41924173 133.24981414"/>
        <path class="cls-1" d="M70.95196065,89.53422935c1.08860203-1.76014334,1.72772756-3.82765174,1.72772756-6.04921864,0-6.36802949-5.16225445-11.53032571-11.53028394-11.53032571-.38376772,0-.76256447.02071936-1.13668265.05739598-3.05034143-5.02018478-8.57058972-8.37363045-14.87408007-8.37363045-9.60534647,0-17.39198399,7.78663752-17.39198399,17.39198399,0,1.90701689.3113335,3.74042991.87852607,5.45738006-3.14395453,2.24245336-5.20076907,5.91095031-5.20076907,10.06710422,0,4.93371486,2.89611585,9.1801818,7.07470181,11.16506339-.00522161.1478761-.02230673.29274455-.02230673.44195739,0,6.83037206,5.53720809,12.36762192,12.36762192,12.36762192,3.34396322,0,6.37254097-1.33289001,8.59857757-3.48904054.78428639.13083275,1.58436293.21538112,2.40582721.21538112,4.70225116,0,8.87072808-2.24270399,11.52752693-5.70601242,5.9112845-.92869534,10.43750461-6.03000311,10.43750461-12.20203411,0-4.00418406-1.91119418-7.55337759-4.86190722-9.8136262Z"/>
      </g>
      <path class="cls-3" d="M50.020629,74.42866612c3.22260122.25903439,6.26739951,2.04802676,8.00086106,5.06246819.61031661,1.06132361,1.00755512,2.18676933,1.20526261,3.32686578"/>
    </g>
    <line class="cls-10" x1="37.5635541" y1="133.31136596" x2="98.84926938" y2="133.31136596"/>
    <path class="cls-13" d="M63.34005686,124.37369616c-.07893903-.36276246-.12316568-.73840648-.12316568-1.12480771,0-2.51827479,1.76725795-4.62072417,4.12833266-5.14312743.62532005-4.82945044,4.75076-8.56103143,9.75054067-8.56103143,4.97706846,0,9.08806753,3.69759178,9.74217896,8.49513214.30536048-.0369723.61435943-.06183143.92968616-.06183143,4.23416474,0,7.66664523,3.43250309,7.66664523,7.66664523,0,4.23418734-3.43248049,7.66669043-7.66664523,7.66669043h-24.06284417c-2.47314417,0-4.47803278-2.00486601-4.47803278-4.47803278,0-2.35004629,1.81119081-4.27350996,4.11330419-4.45963703Z"/>
    <g>
      <polygon class="cls-19" points="79.09599007 115.48479673 80.77211802 115.99974423 79.11475986 116.33461248 79.09599007 115.48479673"/>
      <g>
        <path class="cls-18" d="M79.45747791,116.01218873c0-.74035645-.60021973-1.34057617-1.34063721-1.34057617-.73864746,0-1.33666992.59765625-1.33959961,1.33557129-.38977051.62487793-2.88830566,4.3236084-2.88830566,4.3236084,5.59844971.51977539,4.89910889-2.90026855,4.84197998-3.14550781.42633057-.2244873.7265625-.65783691.7265625-1.1730957Z"/>
        <path class="cls-3" d="M79.45747791,116.01218873c0-.74035645-.60021973-1.34057617-1.34063721-1.34057617-.73864746,0-1.33666992.59765625-1.33959961,1.33557129-.38977051.62487793-2.88830566,4.3236084-2.88830566,4.3236084,5.59844971.51977539,4.89910889-2.90026855,4.84197998-3.14550781.42633057-.2244873.7265625-.65783691.7265625-1.1730957Z"/>
      </g>
      <path class="cls-19" d="M78.72285861,115.76228c0,.19142442-.15518015.34660457-.34660457.34660457s-.34660457-.15518015-.34660457-.34660457c0-.19142442.15518015-.34660457.34660457-.34660457s.34660457.15518015.34660457.34660457Z"/>
    </g>
  </g>
  <line class="cls-7" x1="172.67896145" y1="139.39872752" x2="172.67896145" y2="144.83065197"/>
  <line class="cls-6" x1="175.39492367" y1="142.11468975" x2="169.96299922" y2="142.11468975"/>
  <g>
    <g>
      <polyline class="cls-12" points="178.06320278 133.28546619 177.93637967 114.67158346 171.53062844 114.67158346 171.53062844 133.31136596"/>
      <g>
        <polygon class="cls-15" points="185.33278308 119.63120728 197.63930164 124.06834107 183.57527576 97.95359498 188.86586414 100.20213014 180.10561023 81.02903443 184.25874744 83.7890442 174.72407947 59.33457642 165.34968982 83.7890442 169.32191883 81.1039856 160.74263416 100.20213014 165.75307117 98.03635865 151.96913562 124.06834107 164.24538074 119.56638795 160.74263416 127.36375123 171.59022937 122.67503053 174.80421863 127.91428834 177.80482898 122.66306764 188.86586414 127.36375123 185.33278308 119.63120728"/>
        <polygon class="cls-3" points="185.33278308 119.63120728 197.63930164 124.06834107 183.57527576 97.95359498 188.86586414 100.20213014 180.10561023 81.02903443 184.25874744 83.7890442 174.72407947 59.33457642 165.34968982 83.7890442 169.32191883 81.1039856 160.74263416 100.20213014 165.75307117 98.03635865 151.96913562 124.06834107 164.24538074 119.56638795 160.74263416 127.36375123 171.59022937 122.67503053 174.80421863 127.91428834 177.80482898 122.66306764 188.86586414 127.36375123 185.33278308 119.63120728"/>
      </g>
    </g>
    <g>
      <g>
        <polyline class="cls-12" points="153.41374277 133.24981414 152.79427368 116.05109449 146.55357932 116.05109449 146.20929366 133.24981414"/>
        <path class="cls-2" d="M169.74201259,89.53422935c1.08860203-1.76014334,1.72772756-3.82765174,1.72772756-6.04921864,0-6.36802949-5.16225445-11.53032571-11.53028394-11.53032571-.38376772,0-.76256447.02071936-1.13668265.05739598-3.05034143-5.02018478-8.57058972-8.37363045-14.87408007-8.37363045-9.60534647,0-17.39198399,7.78663752-17.39198399,17.39198399,0,1.90701689.3113335,3.74042991.87852607,5.45738006-3.14395453,2.24245336-5.20076907,5.91095031-5.20076907,10.06710422,0,4.93371486,2.89611585,9.1801818,7.07470181,11.16506339-.00522161.1478761-.02230673.29274455-.02230673.44195739,0,6.83037206,5.53720809,12.36762192,12.36762192,12.36762192,3.34396322,0,6.37254097-1.33289001,8.59857757-3.48904054.78428639.13083275,1.58436293.21538112,2.40582721.21538112,4.70225116,0,8.87072808-2.24270399,11.52752693-5.70601242,5.9112845-.92869534,10.43750461-6.03000311,10.43750461-12.20203411,0-4.00418406-1.91119418-7.55337759-4.86190722-9.8136262Z"/>
      </g>
      <path class="cls-3" d="M148.81068094,74.42866612c3.22260122.25903439,6.26739951,2.04802676,8.00086106,5.06246819.61031661,1.06132361,1.00755512,2.18676933,1.20526261,3.32686578"/>
    </g>
    <line class="cls-10" x1="136.35360604" y1="133.31136596" x2="197.63932132" y2="133.31136596"/>
    <path class="cls-13" d="M162.13010879,124.37369616c-.07893903-.36276246-.12316568-.73840648-.12316568-1.12480771,0-2.51827479,1.76725795-4.62072417,4.12833266-5.14312743.62532005-4.82945044,4.75076-8.56103143,9.75054067-8.56103143,4.97706846,0,9.08806753,3.69759178,9.74217896,8.49513214.30536048-.0369723.61435943-.06183143.92968616-.06183143,4.23416474,0,7.66664523,3.43250309,7.66664523,7.66664523,0,4.23418734-3.43248049,7.66669043-7.66664523,7.66669043h-24.06284417c-2.47314417,0-4.47803278-2.00486601-4.47803278-4.47803278,0-2.35004629,1.81119081-4.27350996,4.11330419-4.45963703Z"/>
    <g>
      <polygon class="cls-19" points="177.886042 115.48479673 179.56216996 115.99974423 177.90481179 116.33461248 177.886042 115.48479673"/>
      <g>
        <path class="cls-18" d="M178.24751697,116.01218873c0-.74035645-.60021973-1.34057617-1.34063721-1.34057617-.73864746,0-1.33666992.59765625-1.33959961,1.33557129-.38977051.62487793-2.88830566,4.3236084-2.88830566,4.3236084,5.59875488.51977539,4.89910889-2.90063477,4.84204102-3.14562988.42626953-.2244873.72650146-.65771484.72650146-1.17297363Z"/>
        <path class="cls-3" d="M178.24751697,116.01218873c0-.74035645-.60021973-1.34057617-1.34063721-1.34057617-.73864746,0-1.33666992.59765625-1.33959961,1.33557129-.38977051.62487793-2.88830566,4.3236084-2.88830566,4.3236084,5.59875488.51977539,4.89910889-2.90063477,4.84204102-3.14562988.42626953-.2244873.72650146-.65771484.72650146-1.17297363Z"/>
      </g>
      <path class="cls-19" d="M177.51291054,115.76228c0,.19142442-.15518015.34660457-.34660457.34660457s-.34660457-.15518015-.34660457-.34660457c0-.19142442.15518015-.34660457.34660457-.34660457s.34660457.15518015.34660457.34660457Z"/>
    </g>
  </g>
  <g>
    <path class="cls-8" d="M233.71312441,187.39068296s-2.73857039,1.25953632-4.07813867,1.27998666-9.52046367-1.2404239-12.60155372-2.48126283c-5.10747847-2.05692077-5.58452185-3.82256578-10.354672-6.59026959-4.8580186-2.81868624-10.0092901-5.10292309-11.53978107-6.07048687-3.03329948-1.91762694-.6831242-7.28927068,3.80898939-6.28415801,7.30481655,1.63445638,14.01923436,8.17858475,22.98769418,4.87092438"/>
    <path class="cls-11" d="M199.08347746,173.78889626c-1.12967811-.50815226-2.04502287-1.05574597-2.8568832-1.50669347-1.58128039-.87832158-.18130976-4.55517264,3.3283048-3.29983292.70333246.25157212,1.4454074.65740487,1.4454074.65740487-.10901741,1.87612039-.76753235,3.3736705-1.916829,4.14912153Z"/>
  </g>
</svg>