<?xml version="1.0" encoding="UTF-8"?>
<svg id="Layer_1" data-name="Layer 1" xmlns="http://www.w3.org/2000/svg" xmlns:xlink="http://www.w3.org/1999/xlink" viewBox="0 0 345.51046721 200">
  <defs>
    <style>
      .cls-1 {
        fill: url(#New_Gradient_Swatch_1-2);
      }

      .cls-1, .cls-2, .cls-3, .cls-4, .cls-5, .cls-6, .cls-7, .cls-8, .cls-9, .cls-10, .cls-11, .cls-12, .cls-13, .cls-14, .cls-15, .cls-16 {
        stroke: #004000;
        stroke-width: .75px;
      }

      .cls-1, .cls-3, .cls-4, .cls-5, .cls-6, .cls-7, .cls-8, .cls-9, .cls-10, .cls-11, .cls-12, .cls-13, .cls-14, .cls-15, .cls-16 {
        stroke-miterlimit: 10;
      }

      .cls-2 {
        stroke-linejoin: round;
      }

      .cls-2, .cls-3, .cls-6, .cls-7, .cls-10 {
        stroke-linecap: round;
      }

      .cls-2, .cls-4, .cls-10 {
        fill: none;
      }

      .cls-17 {
        fill: url(#New_Gradient_Swatch_1-3);
      }

      .cls-17, .cls-18, .cls-19, .cls-20, .cls-21, .cls-22 {
        stroke-width: 0px;
      }

      .cls-3 {
        fill: url(#linear-gradient);
      }

      .cls-5 {
        fill: url(#New_Gradient_Swatch_1);
      }

      .cls-6 {
        fill: #fff;
      }

      .cls-7 {
        fill: #e0ebc7;
      }

      .cls-8 {
        fill: #ebd167;
      }

      .cls-9 {
        fill: #e8b079;
      }

      .cls-18, .cls-16 {
        fill: #94d196;
      }

      .cls-19 {
        fill: #dcf8dc;
      }

      .cls-20 {
        fill: #d9d29a;
      }

      .cls-21, .cls-12 {
        fill: #8f684b;
      }

      .cls-22 {
        fill: #004000;
      }

      .cls-11 {
        fill: #9e8b6b;
      }

      .cls-13 {
        fill: #cce8cd;
      }

      .cls-14 {
        fill: #e0e0e0;
      }

      .cls-15 {
        fill: #d3e8a9;
      }
    </style>
    <linearGradient id="New_Gradient_Swatch_1" data-name="New Gradient Swatch 1" x1="182.05777176" y1="229.43830698" x2="379.54336122" y2="229.43830698" gradientTransform="translate(-136.39948273 -153.8073822) rotate(7.08867631)" gradientUnits="userSpaceOnUse">
      <stop offset="0" stop-color="#a4ee6e"/>
      <stop offset=".9989046" stop-color="#00b0a0"/>
    </linearGradient>
    <linearGradient id="linear-gradient" x1="156.83918476" y1="97.50221402" x2="190.31567423" y2="132.22186225" gradientTransform="translate(-31.57563811 27.68872659) rotate(-.07984787)" gradientUnits="userSpaceOnUse">
      <stop offset="0" stop-color="#d5f8ef"/>
      <stop offset=".09556568" stop-color="#daf8f1" stop-opacity=".85740705"/>
      <stop offset=".28341926" stop-color="#e5faf5" stop-opacity=".60023874"/>
      <stop offset=".46293751" stop-color="#eefcf8" stop-opacity=".38592767"/>
      <stop offset=".62913911" stop-color="#f5fdfb" stop-opacity=".21887868"/>
      <stop offset=".77916362" stop-color="#fafefd" stop-opacity=".09894146"/>
      <stop offset=".90775379" stop-color="#fdfefe" stop-opacity=".02598453"/>
      <stop offset="1" stop-color="#fff" stop-opacity="0"/>
    </linearGradient>
    <linearGradient id="New_Gradient_Swatch_1-2" data-name="New Gradient Swatch 1" x1="179.84414458" y1="72.16628445" x2="204.81894065" y2="82.26247861" gradientTransform="translate(-31.57563811 27.68872659) rotate(-.07984787)" xlink:href="#New_Gradient_Swatch_1"/>
    <linearGradient id="New_Gradient_Swatch_1-3" data-name="New Gradient Swatch 1" x1="192.10537939" y1="100.99713796" x2="177.93528233" y2="135.71387575" gradientTransform="translate(-70.59420566 -6.72617888) rotate(-.07984787)" xlink:href="#New_Gradient_Swatch_1"/>
  </defs>
  <g id="ruka">
    <path class="cls-6" d="M260.73606969,45.84324857s-13.1714368,6.87722589-15.85936774,8.61842569c-9.34636147,6.05442741-23.64214987,8.90920708-24.79349011,13.25481623-1.15134024,4.34560915-13.73356686,24.91345296-23.63471384,19.28511091-9.90114699-5.62834205-21.8790147-10.32729949-19.67893152-16.57376022,2.20008317-6.24646074,12.50717276-29.52494539,20.6661418-33.04653466,8.15896904-3.52158927,29.64453156-3.9076106,36.7418037-7.01899864,6.57078916-2.88058206,15.3439909-8.94395321,15.3439909-8.94395321,8.79862349,4.5156131,12.9605991,20.1780457,11.21456681,24.42489391Z"/>
    <path class="cls-4" d="M200.22503315,51.14863075c2.49846002,3.71350766-2.63465958,10.79301123-2.63465958,10.79301123"/>
  </g>
  <g>
    <g id="offset">
      <polygon id="offset-bg" class="cls-5" points="206.87294202 161.3717459 21.24656243 162.35091758 21.09692615 54.97781218 206.72430981 54.71911992 206.87294202 161.3717459"/>
      <g>
        <path class="cls-22" d="M40.67738791,99.75659271l.01806641,13.06103516-1.97705078.00244141-.01513672-11.08398438-.07617188.00048828-3.12255859,2.04541016-.00244141-1.88769531,3.25585938-2.13525391,1.91943359-.00244141Z"/>
        <path class="cls-22" d="M52.8521926,103.00463958l.00244141,1.53076172-5.35058594.00732422-.00244141-1.53076172,5.35058594-.00732422ZM48.93373557,100.66333099l1.90673828-.00244141.01269531,9.26660156c.00048828.36962891.05615234.64697266.16650391.83154297.11132812.18505859.25488281.31054688.43164062.37597656.17626953.06591797.36865234.09814453.57714844.09765625.15283203,0,.28710938-.01074219.40185547-.03222656s.20410156-.03857422.26757812-.05126953l.34667969,1.57470703c-.11083984.04248047-.26806641.08642578-.47216797.13134766-.20361328.04443359-.45849609.06933594-.76464844.07421875-.50195312.00927734-.96972656-.07910156-1.40380859-.265625s-.78466797-.47509766-1.05371094-.86621094c-.26806641-.390625-.40234375-.88134766-.40332031-1.47265625l-.01318359-9.66162109Z"/>
      </g>
      <g>
        <path class="cls-22" d="M45.33363791,74.39672943c.00146484,1.33984375-.24121094,2.49072266-.73046875,3.45263672-.48876953.96289062-1.15820312,1.70263672-2.00878906,2.22021484-.85107422.51806641-1.81738281.77734375-2.89941406.77929688-1.0859375.00146484-2.05517578-.25585938-2.90722656-.77099609-.85253906-.515625-1.52392578-1.25439453-2.015625-2.21728516-.49121094-.96337891-.73779297-2.11230469-.73925781-3.44775391-.00195312-1.33935547.24121094-2.49023438.72998047-3.45263672s1.15820312-1.70263672,2.00878906-2.22021484c.85107422-.51806641,1.81933594-.77734375,2.90527344-.77880859,1.08203125-.00195312,2.04931641.25537109,2.90136719.77050781.85253906.515625,1.52392578,1.25390625,2.015625,2.21435547.49169922.96142578.73779297,2.11132812.73974609,3.45068359ZM43.45961447,74.39965911c-.00146484-1.02050781-.16748047-1.88134766-.49707031-2.58105469s-.77929688-1.23046875-1.34960938-1.59082031-1.21484375-.54052734-1.93359375-.5390625c-.72265625.00097656-1.36767578.18212891-1.93457031.54443359s-1.01464844.89404297-1.34228516,1.59472656c-.328125.70068359-.49072266,1.56152344-.48925781,2.58203125.00146484,1.02099609.16650391,1.88183594.49658203,2.58154297.32958984.69970703.77880859,1.22998047,1.34667969,1.59033203.56787109.36083984,1.21337891.54101562,1.93603516.54003906.71875-.00146484,1.36279297-.18261719,1.93212891-.54541016.56933594-.36230469,1.01757812-.89355469,1.34521484-1.59423828s.49121094-1.56152344.48974609-2.58251953Z"/>
        <path class="cls-22" d="M47.34975119,80.66674896l-.01757812-12.54443359,7.77880859-.01123047.00195312,1.62939453-5.88623047.00830078.00537109,3.82177734,5.32910156-.00732422.00244141,1.62353516-5.32910156.00732422.0078125,5.46972656-1.89257812.00292969Z"/>
        <path class="cls-22" d="M57.11146994,80.65307708l-.01757812-12.54443359,7.77880859-.01074219.00195312,1.62939453-5.88623047.0078125.00537109,3.82177734,5.32910156-.00732422.00244141,1.62353516-5.32910156.00732422.0078125,5.46972656-1.89257812.00292969Z"/>
        <path class="cls-22" d="M73.70180197,71.38061614c-.06640625-.57958984-.33642578-1.02978516-.81054688-1.34912109-.47412109-.3203125-1.0703125-.47949219-1.7890625-.47851562-.51464844.00048828-.95947266.08203125-1.33496094.24365234-.37548828.16210938-.66601562.3828125-.87207031.66259766-.20605469.28027344-.30859375.59765625-.30810547.953125.00048828.29785156.07128906.55517578.21240234.77099609.14111328.21679688.32763672.39697266.55810547.54199219.23095703.14453125.47949219.26416016.74511719.36035156.26513672.09521484.52050781.17333984.76611328.234375l1.22558594.31689453c.39990234.09765625.81054688.22998047,1.23144531.39599609.42041016.16748047.81103516.38720703,1.17089844.66015625.359375.2734375.65087891.61181641.87402344,1.01611328.22314453.40380859.33496094.88769531.3359375,1.45117188.00097656.71044922-.18115234,1.34130859-.54541016,1.89306641-.36474609.55175781-.89306641.98779297-1.58447266,1.30712891-.69189453.31933594-1.52783203.47998047-2.5078125.48144531-.93945312.00146484-1.75195312-.14697266-2.43847656-.44384766-.68652344-.29736328-1.22412109-.72021484-1.61279297-1.26855469-.38867188-.54882812-.60400391-1.20117188-.64599609-1.95654297l1.89892578-.00244141c.03759766.453125.18603516.82958984.44580078,1.12939453s.59228516.52197266.99902344.66650391.85253906.21582031,1.33837891.21533203c.53515625-.00097656,1.01171875-.08642578,1.43066406-.25634766.41796875-.16992188.74755859-.40722656.98828125-.71191406.24023438-.3046875.36035156-.66064453.35986328-1.06933594-.00048828-.37158203-.10644531-.67578125-.31689453-.91210938-.2109375-.23632812-.49462891-.43212891-.85253906-.58691406-.35742188-.15478516-.76123047-.29052734-1.21044922-.40869141l-1.48242188-.40234375c-1.00537109-.27197266-1.80126953-.67333984-2.38720703-1.203125-.58740234-.52978516-.88134766-1.23242188-.88232422-2.10595703-.00146484-.72314453.19433594-1.35400391.58544922-1.89355469.39160156-.53955078.92138672-.95996094,1.59082031-1.26123047.66943359-.30078125,1.42431641-.45214844,2.265625-.453125.84912109-.00146484,1.60009766.14697266,2.25195312.44384766.65136719.29736328,1.16552734.70605469,1.54199219,1.22607422.37646484.52050781.57324219,1.1171875.59033203,1.79101562l-1.82519531.00244141Z"/>
        <path class="cls-22" d="M77.62709494,80.62426849l-.01757812-12.54443359,7.86474609-.01074219.00195312,1.62939453-5.97216797.00830078.00537109,3.82177734,5.56152344-.0078125.00244141,1.62353516-5.56152344.0078125.00537109,3.84033203,6.04541016-.00830078.00244141,1.62939453-7.93798828.01074219Z"/>
        <path class="cls-22" d="M87.04848166,69.69604583l-.00195312-1.62939453,9.70849609-.01318359.00195312,1.62939453-3.9140625.00537109.015625,10.91503906-1.88671875.00244141-.015625-10.91503906-3.90771484.00537109Z"/>
      </g>
      <path class="cls-19" d="M185.95166704,105.72938254c.081604-.87817383.12701416-1.7668457.12573242-2.66650391-.02160645-15.49243164-12.59820557-28.03417969-28.09063721-28.01245117-3.71447754.00512695-7.25592041.73864746-10.49865723,2.05444336-5.57269287-7.17749023-14.28265381-11.79626465-24.07269287-11.78271484-16.79632568.0234375-30.39349365,13.65869141-30.37011719,30.45507812.00097656.70727539.03485107,1.40661621.08337402,2.10192871-11.12890625,4.41711426-18.99499512,15.28051758-18.97729492,27.98083496.02313232,16.59960938,13.49859619,30.03759766,30.0982666,30.0144043l72.64068604-.10119629c14.27532959-.01989746,25.83166504-11.60852051,25.81176758-25.88391113-.01538086-11.05981445-6.97723389-20.4831543-16.75042725-24.15991211Z"/>
      <polyline class="cls-4" points="28.99751447 75.63081237 28.97937529 62.61332427 41.99686339 62.59518509"/>
      <polyline class="cls-4" points="42.12430008 154.03950306 29.10681198 154.05764224 29.0886728 141.04015414"/>
      <polyline class="cls-4" points="185.87158593 62.39467765 198.88907403 62.37653847 198.90721321 75.39402657"/>
      <g>
        <path class="cls-22" d="M47.6959426,138.97387786l-2.19140625.00292969c-.08496094-.46826172-.24267578-.87988281-.47265625-1.23535156s-.51074219-.65722656-.84375-.90478516-.70410156-.43457031-1.11425781-.56054688c-.40966797-.12597656-.84423828-.18847656-1.30273438-.1875-.82910156.00097656-1.56982422.21044922-2.22265625.62792969-.65234375.41796875-1.16699219,1.02929688-1.54248047,1.83544922-.37597656.80615234-.56298828,1.78955078-.56152344,2.95068359.00146484,1.17089844.19140625,2.15869141.56982422,2.96337891.37792969.8046875.89501953,1.41308594,1.55126953,1.82373047.65625.41113281,1.39404297.61621094,2.21337891.61523438.45410156-.00048828.88574219-.06347656,1.29541016-.18798828s.78027344-.30859375,1.11230469-.55273438c.33251953-.24414062.61425781-.54296875.84570312-.89648438.23095703-.35400391.39111328-.76074219.47900391-1.21972656l2.19140625.00390625c-.11621094.70751953-.34130859,1.35742188-.67480469,1.95019531-.33398438.59277344-.76171875,1.10400391-1.28320312,1.53320312s-1.11669922.76123047-1.78613281.99658203c-.66943359.23486328-1.39990234.35302734-2.19091797.35400391-1.24609375.00146484-2.35595703-.29296875-3.33056641-.88427734-.97509766-.59082031-1.74267578-1.43847656-2.30419922-2.54248047-.56103516-1.10449219-.84228516-2.42236328-.84472656-3.95361328-.00195312-1.53564453.27734375-2.85498047.83740234-3.95898438.56054688-1.10351562,1.32714844-1.95214844,2.30078125-2.54589844.97265625-.59326172,2.07958984-.89160156,3.32080078-.89306641.76318359-.00097656,1.47607422.10693359,2.13916016.32373047s1.25927734.53417969,1.7890625.95263672c.52929688.41845703.96777344.92822266,1.31542969,1.52929688.34716797.6015625.58251953,1.28808594.70507812,2.06054688Z"/>
        <path class="cls-22" d="M62.39760275,141.46801849c.00244141,1.53613281-.27685547,2.85546875-.83740234,3.95898438-.56005859,1.10351562-1.328125,1.95214844-2.30322266,2.54589844-.97607422.59375-2.08447266.89160156-3.32519531.89306641-1.24560547.00195312-2.35693359-.29296875-3.33349609-.88378906-.97753906-.59082031-1.74755859-1.43847656-2.31152344-2.54248047-.56298828-1.10498047-.84570312-2.42236328-.84814453-3.95361328-.00195312-1.53564453.27734375-2.85546875.83740234-3.95898438.56054688-1.10351562,1.328125-1.95214844,2.30419922-2.54589844.97509766-.59375,2.08544922-.89160156,3.33105469-.89355469,1.24072266-.00146484,2.35009766.29345703,3.32763672.88427734.9765625.59082031,1.74707031,1.4375,2.31054688,2.5390625.56347656,1.10253906.84619141,2.42138672.84814453,3.95703125ZM60.24818869,141.47094818c-.00146484-1.17041016-.19140625-2.15673828-.56933594-2.95947266-.37841797-.80273438-.89404297-1.41113281-1.54785156-1.82421875-.65380859-.41357422-1.39257812-.61962891-2.21679688-.61865234-.82861328.00146484-1.56835938.20947266-2.21875.625-.64990234.41503906-1.16357422,1.02441406-1.5390625,1.828125-.37597656.80371094-.56298828,1.79101562-.56152344,2.96142578.00146484,1.17089844.19140625,2.15722656.56982422,2.95947266.37792969.80273438.89306641,1.41113281,1.54443359,1.82421875.65136719.41357422,1.39160156.61962891,2.22021484.61816406.82421875-.00097656,1.5625-.20898438,2.21533203-.62451172.65234375-.41503906,1.16650391-1.02441406,1.54248047-1.828125.37548828-.80322266.5625-1.79052734.56103516-2.96142578Z"/>
        <path class="cls-22" d="M63.94203635,153.26684661l-.00146484-.91748047,2.83398438-2.94433594c.30224609-.31933594.55224609-.60058594.75-.84228516s.34521484-.47216797.44335938-.69042969c.09814453-.21875.14697266-.45068359.14648438-.69628906,0-.27832031-.06640625-.51953125-.19775391-.72265625-.13085938-.203125-.31054688-.35986328-.53710938-.47021484s-.48144531-.16503906-.765625-.16455078c-.30029297.00048828-.5625.06201172-.78613281.18505859-.22412109.12353516-.39550781.296875-.51513672.52099609-.12011719.22412109-.1796875.48583984-.17919922.78613281l-1.20800781.00195312c-.00097656-.51025391.11621094-.95703125.35058594-1.33935547.23388672-.3828125.55566406-.68017578.96484375-.89208984s.875-.31884766,1.39599609-.31933594c.52685547-.00097656.99169922.10302734,1.39453125.31152344.40332031.20800781.71826172.49169922.9453125.85009766.22705078.35888672.34082031.76318359.34130859,1.21337891.00048828.31152344-.05712891.61572266-.17236328.9140625-.11572266.29736328-.31640625.62890625-.60253906.99316406-.28613281.36523438-.68457031.80712891-1.19384766,1.32666016l-1.6640625,1.74707031v.06152344l3.77539062-.00537109.00146484,1.08496094-5.52001953.0078125Z"/>
        <path class="cls-22" d="M73.91029807,148.78588958c-.69091797.00097656-1.28515625-.14648438-1.78320312-.44287109-.49804688-.29589844-.88232422-.71386719-1.15234375-1.25390625-.27001953-.53955078-.40576172-1.17285156-.40673828-1.90039062-.00097656-.71826172.1328125-1.35205078.40136719-1.90039062.26855469-.54785156.64550781-.97607422,1.13085938-1.28417969.48486328-.30810547,1.05273438-.46289062,1.70410156-.46386719.39550781-.00048828.77929688.06445312,1.15087891.19482422.37109375.13037109.70507812.33544922,1.00097656.61523438.29541016.27929688.52880859.64208984.69970703,1.08789062s.25732422.98681641.2578125,1.62304688l.00097656.48388672-5.57470703.00732422-.00146484-1.02294922,4.23681641-.00585938c-.00048828-.35888672-.07373047-.67724609-.22070312-.95605469-.14648438-.27832031-.35107422-.49755859-.61474609-.65869141-.26318359-.16113281-.57128906-.24121094-.92480469-.24072266-.38330078.00048828-.71728516.09423828-1.00195312.28222656-.28417969.1875-.50292969.43164062-.65625.73144531-.15332031.30029297-.22949219.625-.22900391.97509766l.00146484.79882812c.00048828.46875.08349609.86767578.25,1.19580078.16650391.32861328.39892578.57861328.69726562.75.29882812.17138672.64746094.25683594,1.04589844.25634766.25878906-.00048828.49462891-.03759766.70751953-.11279297.21289062-.07470703.39697266-.18652344.55224609-.33642578.15478516-.14892578.2734375-.33300781.35498047-.55273438l1.29248047.23144531c-.10302734.38037109-.28710938.71337891-.55322266.99804688s-.59912109.50585938-.99951172.66308594c-.39941406.15722656-.85546875.23681641-1.36669922.23730469Z"/>
        <path class="cls-22" d="M82.91957541,151.26147552l-.00488281-3.72119141-.08203125.00048828c-.08203125.14941406-.20019531.31982422-.35351562.51220703-.15283203.19140625-.36376953.359375-.63183594.50244141-.26708984.14355469-.61425781.21582031-1.04003906.21630859-.56640625.00097656-1.07080078-.14404297-1.51416016-.43359375-.44335938-.29052734-.79052734-.70507812-1.04296875-1.24511719-.25146484-.54003906-.37792969-1.18896484-.37890625-1.94677734s.125-1.40673828.37841797-1.9453125c.25341797-.5390625.6015625-.95214844,1.04589844-1.23876953.44433594-.28710938.94726562-.43066406,1.51025391-.43164062.43554688-.00048828.78662109.07128906,1.05322266.21533203.26611328.14501953.47363281.3125.62109375.50439453.14794922.19091797.26318359.35986328.34570312.50585938l.11425781-.00048828-.00146484-1.13671875,1.33300781-.00146484.01318359,9.64257812-1.36523438.00146484ZM81.10707541,147.60717864c.39257812-.00097656.72460938-.10498047.99707031-.31396484.27197266-.20898438.47851562-.49951172.61914062-.87060547.14111328-.37158203.21142578-.80419922.2109375-1.29736328-.00097656-.48681641-.07128906-.91259766-.21191406-1.27783203s-.34619141-.64941406-.6171875-.85253906c-.27148438-.20410156-.60644531-.30566406-1.00488281-.3046875-.41113281.00048828-.75341797.10742188-1.02685547.32128906-.27392578.21289062-.47949219.50390625-.61767578.87255859s-.20654297.78417969-.20556641,1.24658203c.00048828.46875.07080078.89013672.21142578,1.26416016.14013672.37451172.34863281.66992188.62451172.88720703.27539062.21728516.61621094.32568359,1.02099609.32519531Z"/>
      </g>
    </g>
    <g>
      <g>
        <circle class="cls-8" cx="125.74339817" cy="86.64141925" r="5.7845229"/>
        <g>
          <g id="_Radial_Repeat_" data-name="&amp;lt;Radial Repeat&amp;gt;">
            <line class="cls-4" x1="119.90697457" y1="95.56457084" x2="121.72352008" y2="92.78704687"/>
          </g>
          <g id="_Radial_Repeat_-2" data-name="&amp;lt;Radial Repeat&amp;gt;">
            <line class="cls-4" x1="117.21317273" y1="93.03552622" x2="119.87013631" y2="91.04680263"/>
          </g>
          <g id="_Radial_Repeat_-3" data-name="&amp;lt;Radial Repeat&amp;gt;">
            <line class="cls-4" x1="115.54607827" y1="89.73692994" x2="118.72299092" y2="88.77687614"/>
          </g>
          <g id="_Radial_Repeat_-4" data-name="&amp;lt;Radial Repeat&amp;gt;">
            <line class="cls-4" x1="115.10712076" y1="86.0680704" x2="118.4207998" y2="86.25248294"/>
          </g>
          <g id="_Radial_Repeat_-5" data-name="&amp;lt;Radial Repeat&amp;gt;">
            <line class="cls-4" x1="115.95029735" y1="82.46933281" x2="119.00106426" y2="83.77596889"/>
          </g>
          <g id="_Radial_Repeat_-6" data-name="&amp;lt;Radial Repeat&amp;gt;">
            <line class="cls-4" x1="117.97316168" y1="79.37707592" x2="120.39304894" y2="81.64833595"/>
          </g>
          <g id="_Radial_Repeat_-7" data-name="&amp;lt;Radial Repeat&amp;gt;">
            <line class="cls-4" x1="120.93173332" y1="77.16243601" x2="122.42886685" y2="80.12437253"/>
          </g>
          <g id="_Radial_Repeat_-8" data-name="&amp;lt;Radial Repeat&amp;gt;">
            <line class="cls-4" x1="124.46947468" y1="76.09331341" x2="124.86327817" y2="79.38867319"/>
          </g>
          <g id="_Radial_Repeat_-9" data-name="&amp;lt;Radial Repeat&amp;gt;">
            <line class="cls-4" x1="128.15931139" y1="76.29916451" x2="127.40228617" y2="79.53047846"/>
          </g>
          <g id="_Radial_Repeat_-10" data-name="&amp;lt;Radial Repeat&amp;gt;">
            <line class="cls-4" x1="131.55619969" y1="77.75427863" x2="129.73965418" y2="80.53180261"/>
          </g>
          <g id="_Radial_Repeat_-11" data-name="&amp;lt;Radial Repeat&amp;gt;">
            <line class="cls-4" x1="134.25048981" y1="80.28344532" x2="131.59352623" y2="82.27216892"/>
          </g>
          <g id="_Radial_Repeat_-12" data-name="&amp;lt;Radial Repeat&amp;gt;">
            <line class="cls-4" x1="135.91758427" y1="83.5816754" x2="132.74067162" y2="84.5417292"/>
          </g>
          <g id="_Radial_Repeat_-13" data-name="&amp;lt;Radial Repeat&amp;gt;">
            <line class="cls-4" x1="136.35556521" y1="87.25077908" x2="133.04188618" y2="87.06636654"/>
          </g>
          <g id="_Radial_Repeat_-14" data-name="&amp;lt;Radial Repeat&amp;gt;">
            <line class="cls-4" x1="135.51299897" y1="90.84890631" x2="132.46223207" y2="89.54227023"/>
          </g>
          <g id="_Radial_Repeat_-15" data-name="&amp;lt;Radial Repeat&amp;gt;">
            <line class="cls-4" x1="133.49050086" y1="93.94152942" x2="131.0706136" y2="91.67026938"/>
          </g>
          <g id="_Radial_Repeat_-16" data-name="&amp;lt;Radial Repeat&amp;gt;">
            <line class="cls-4" x1="130.53144094" y1="96.15592518" x2="129.03430741" y2="93.19398867"/>
          </g>
          <g id="_Radial_Repeat_-17" data-name="&amp;lt;Radial Repeat&amp;gt;">
            <line class="cls-4" x1="126.99369958" y1="97.22504779" x2="126.59989609" y2="93.929688"/>
          </g>
          <g id="_Radial_Repeat_-18" data-name="&amp;lt;Radial Repeat&amp;gt;">
            <line class="cls-4" x1="123.304107" y1="97.01919668" x2="124.06113223" y2="93.78788273"/>
          </g>
        </g>
      </g>
      <path class="cls-10" d="M122.42776735,117.65963963c12.5725196-7.92352375,26.05464232-12.64340633,41.86327086-13.96548212,5.94934639-.49754391,17.00560957-.39056926,21.15552713.25252647"/>
      <path class="cls-2" d="M123.92211206,117.96491793c-10.81753753-5.25799955-18.86533874-11.53051406-44.99912462-8.39878516"/>
      <path class="cls-3" d="M130.96308473,156.11725334s19.24966049-25.22661516,3.3912983-26.29235797c-9.97746331-.67052383-13.10886021-8.80850121-13.11504729-13.24810282l3.49393891-.00486919c.00316392,2.27030774,2.15545118,6.61307018,11.18372792,6.60048828,14.0260728-.01954688,29.40307374,7.73648868,21.9297627,32.62734526"/>
      <g>
        <g>
          <polyline class="cls-7" points="160.51871271 125.5292119 160.15339086 115.76485473 156.61013713 115.76979265 156.42827185 125.53491238"/>
          <path class="cls-1" d="M169.75475854,100.69607192c.61667846-1.0002108.97791626-2.17457737.97615846-3.4359074-.00503867-3.61555029-2.94007558-6.54244167-6.55562587-6.537403-.21789024.00030365-.43294174.01236712-.64532429.03348688-1.73585218-2.84787639-4.87271456-4.74748078-8.45162172-4.74249317-5.45358862.00760018-9.8684151,4.43474892-9.86081492,9.88833754.00150892,1.08273925.17972415,2.12344238.50311531,3.09781942-1.78325598,1.27567629-2.94814256,3.36015137-2.94485403,5.71987403.00390377,2.80119528,1.65157972,5.20990306,4.02560906,6.33354495-.00284765.08396315-.01243337.16622804-.01231531.250946.00540449,3.87805265,3.153624,7.01753327,7.03170037,7.01212874,1.89858844-.00264589,3.6170571-.7618118,4.87921884-1.98776198.44539462.07366182.89971774.12103245,1.36611718.12038247,2.66977808-.00372063,5.03472279-1.28034987,6.54042237-3.24880063,3.3554912-.53195886,5.92128847-3.43188903,5.91640488-6.93615805-.00316829-2.27343935-1.09108754-4.28703834-2.76819033-5.5679958Z"/>
        </g>
        <path class="cls-4" d="M157.85870904,92.13620934c1.82988819.14452104,3.5600365,1.1578408,4.54662209,2.8679664.34735675.60210049.57378575,1.24077593.68693943,1.88792743"/>
        <path class="cls-4" d="M154.28989913,111.21095987c-1.49273535-1.06823139-2.4516352-2.82912354-2.41402537-4.8030704.01324166-.6949866.14893687-1.35888661.38602873-1.97158251"/>
      </g>
      <g>
        <polyline class="cls-7" points="109.84788317 135.71713908 109.75890867 124.875911 106.02799071 124.88111045 106.04312032 135.73752634"/>
        <g>
          <polygon class="cls-17" points="114.07080767 127.75855735 121.24219439 130.33289817 113.02960894 115.13428977 116.11286089 116.43958762 110.99500201 105.27967551 113.41620562 106.88380149 107.8430855 92.64844993 102.40296099 106.89906028 104.71436236 105.33216575 99.73297808 116.4622927 102.64948199 115.19691184 94.64240191 130.37000754 101.78882525 127.73792747 99.75501177 132.28223899 106.06922076 129.5424929 107.94538042 132.59144309 109.68878863 129.53053 116.13489458 132.25941184 114.07080767 127.75855735"/>
          <polygon class="cls-4" points="114.07080767 127.75855735 121.24219439 130.33289817 113.02960894 115.13428977 116.11286089 116.43958762 110.99500201 105.27967551 113.41620562 106.88380149 107.8430855 92.64844993 102.40296099 106.89906028 104.71436236 105.33216575 99.73297808 116.4622927 102.64948199 115.19691184 94.64240191 130.37000754 101.78882525 127.73792747 99.75501177 132.28223899 106.06922076 129.5424929 107.94538042 132.59144309 109.68878863 129.53053 116.13489458 132.25941184 114.07080767 127.75855735"/>
        </g>
      </g>
    </g>
    <g>
      <g>
        <g>
          <path class="cls-12" d="M182.84822009,124.69859339c-.00813364-.02428804-.30248606-1.79331624-2.52960835-1.56341834.00054175.5183859.10319401,1.52717152,1.13160544,2.06883244"/>
          <path class="cls-12" d="M184.2289691,124.4551628c.00806591-.02431062.7654547-1.36769083,2.58817286-1.28190961.07026366.73840461-.15177919,2.20578285-1.69843001,2.49953078"/>
          <g>
            <path class="cls-21" d="M184.43781206,124.55311301c-3.29553223-.25048828-4.72515869,2.49316406-4.82751465,2.63757324l.41070557,1.02514648s1.12432861.19006348,2.62219238-.23901367l-.1027832.0378418c.20605469,2.62243652-.92169189,3.87780762-.92169189,3.87780762l-6.97802734.37902832-5.97045898-.65246582-2.27227783,3.41967773s1.63684082,4.28857422-.97583008,6.35375977c.00006104.03076172.00744629,5.35424805.00744629,5.35424805l.98468018-.00146484.48571777-4.73937988s4.3057251-1.57531738,4.67004395-5.11437988c.50823975,2.38586426,4.86499023,3.2331543,8.2364502,2.93444824l.64489746,7.1151123.71783447-.00097656.35577393-7.39160156c.35546875-.0880127.67376709-.19580078.96154785-.31652832l.69842529,7.70544434.71783447-.00097656.42126465-8.75292969c6.06658936-4.375,1.29974365-12.11279297.11376953-13.63037109Z"/>
            <path class="cls-4" d="M184.43781206,124.55311301c-3.29553223-.25048828-4.72515869,2.49316406-4.82751465,2.63757324l.41070557,1.02514648s1.12432861.19006348,2.62219238-.23901367l-.1027832.0378418c.20605469,2.62243652-.92169189,3.87780762-.92169189,3.87780762l-6.97802734.37902832-5.97045898-.65246582-2.27227783,3.41967773s1.63684082,4.28857422-.97583008,6.35375977c.00006104.03076172.00744629,5.35424805.00744629,5.35424805l.98468018-.00146484.48571777-4.73937988s4.3057251-1.57531738,4.67004395-5.11437988c.50823975,2.38586426,4.86499023,3.2331543,8.2364502,2.93444824l.64489746,7.1151123.71783447-.00097656.35577393-7.39160156c.35546875-.0880127.67376709-.19580078.96154785-.31652832l.69842529,7.70544434.71783447-.00097656.42126465-8.75292969c6.06658936-4.375,1.29974365-12.11279297.11376953-13.63037109Z"/>
          </g>
          <polyline class="cls-4" points="183.64291884 124.58992338 185.43603841 122.05828235 189.45696386 120.5220195 190.46660024 117.11914746"/>
          <polyline class="cls-4" points="182.7901434 124.51751642 182.09668748 122.502292 177.80227253 119.84025263 177.61964431 118.45866199"/>
          <polyline class="cls-4" points="180.96920239 117.35383268 180.97169106 119.13959833 181.69703714 120.01729927 183.6903691 117.35004043"/>
          <line class="cls-4" x1="180.97559996" y1="121.94447325" x2="181.69692529" y2="119.93704343"/>
          <line class="cls-4" x1="188.06254038" y1="117.57602645" x2="189.67887352" y2="119.77409658"/>
          <polyline class="cls-4" points="184.22092292 118.6815415 186.05799825 119.93096579 185.43957455 122.10904307"/>
          <line class="cls-4" x1="187.03272042" y1="118.44554383" x2="186.05799825" y2="119.93096579"/>
        </g>
        <g>
          <path class="cls-18" d="M179.61102984,139.61097434c.17224121-.60961914.27001953-1.25048828.269104-1.91540527-.00543213-3.86853027-3.14593506-7.00036621-7.01452637-6.99499512-.80004883.0012207-1.56542969.14294434-2.28125.39086914-.72601318-.47558594-1.5914917-.75610352-2.52429199-.75488281-2.40264893.00341797-4.35028076,1.85253906-4.55841064,4.20043945-3.5145874.37988281-6.24884033,3.3572998-6.24377441,6.97192383.00537109,3.86865234,3.14587402,7.00036621,7.01446533,6.99499512,1.73394775-.00244141,3.31671143-.63806152,4.53851318-1.68334961.671875.38146973,1.43804932.61633301,2.26586914.6151123,1.52490234-.00219727,2.86517334-.75390625,3.70184326-1.89672852.722229.94140625,1.84747314,1.55773926,3.12573242,1.5559082,2.17877197-.00292969,3.94256592-1.77172852,3.93951416-3.95043945-.00213623-1.56030273-.91748047-2.89526367-2.23278809-3.53344727Z"/>
          <path class="cls-4" d="M179.61102984,139.61097434c.17224121-.60961914.27001953-1.25048828.269104-1.91540527-.00543213-3.86853027-3.14593506-7.00036621-7.01452637-6.99499512-.80004883.0012207-1.56542969.14294434-2.28125.39086914-.72601318-.47558594-1.5914917-.75610352-2.52429199-.75488281-2.40264893.00341797-4.35028076,1.85253906-4.55841064,4.20043945-3.5145874.37988281-6.24884033,3.3572998-6.24377441,6.97192383.00537109,3.86865234,3.14587402,7.00036621,7.01446533,6.99499512,1.73394775-.00244141,3.31671143-.63806152,4.53851318-1.68334961.671875.38146973,1.43804932.61633301,2.26586914.6151123,1.52490234-.00219727,2.86517334-.75390625,3.70184326-1.89672852.722229.94140625,1.84747314,1.55773926,3.12573242,1.5559082,2.17877197-.00292969,3.94256592-1.77172852,3.93951416-3.95043945-.00213623-1.56030273-.91748047-2.89526367-2.23278809-3.53344727Z"/>
        </g>
      </g>
      <path class="cls-11" d="M183.57692861,127.64738737s-.49574575.23060222-1.25335768.42280338"/>
      <circle class="cls-22" cx="182.95927565" cy="125.81452486" r=".36039364"/>
      <path class="cls-22" d="M179.73335311,127.16143923s.22870971-.35807725.41152358-.5825648c.43000038.50420221.16329023.86712905-.24032646,1.00993785-.06074926-.15968402-.17119713-.42737306-.17119713-.42737306Z"/>
    </g>
    <g>
      <path class="cls-14" d="M161.18401676,128.31388897c-1.33111283.00185505-1.10182402-1.96460744-.00462912-3.32167605,1.10097308,1.35400522,1.33574195,3.319821.00462912,3.32167605Z"/>
      <g>
        <path class="cls-21" d="M162.87775347,126.16798118c-.00134277-.93713379-.76202393-1.69567871-1.69909668-1.69433594-.93701172.00134277-1.69561768.76208496-1.69433594,1.69909668h0l3.39343262-.00476074Z"/>
        <path class="cls-4" d="M162.87775347,126.16798118c-.00134277-.93713379-.76202393-1.69567871-1.69909668-1.69433594-.93701172.00134277-1.69561768.76208496-1.69433594,1.69909668h0l3.39343262-.00476074Z"/>
      </g>
    </g>
    <g>
      <polygon class="cls-22" points="154.65561479 100.7009692 156.0198893 101.11802786 154.67184937 101.39235443 154.65561479 100.7009692"/>
      <g>
        <path class="cls-20" d="M154.95032427,101.1296511c-.00085449-.60241699-.48986816-1.08996582-1.09228516-1.0892334-.60089111.00085449-1.08673096.48754883-1.08831787,1.08813477-.31628418.50878906-2.34503174,3.52099609-2.34503174,3.52099609,4.55541992.41650391,3.98260498-2.36499023,3.93585205-2.56469727.34655762-.18310547.59039307-.53601074.58978271-.9552002Z"/>
        <path class="cls-4" d="M154.95032427,101.1296511c-.00085449-.60241699-.48986816-1.08996582-1.09228516-1.0892334-.60089111.00085449-1.08673096.48754883-1.08831787,1.08813477-.31628418.50878906-2.34503174,3.52099609-2.34503174,3.52099609,4.55541992.41650391,3.98260498-2.36499023,3.93585205-2.56469727.34655762-.18310547.59039307-.53601074.58978271-.9552002Z"/>
      </g>
      <circle class="cls-22" cx="154.07035521" cy="100.92754448" r=".28199629"/>
    </g>
    <g>
      <circle class="cls-9" cx="115.17425695" cy="142.16925763" r="1.65072041"/>
      <path class="cls-13" d="M124.15574339,143.29404117c-.13528022-.90157488-.97581735-1.52277945-1.87739224-1.38749923-.90157488.13528022-1.52277945.97581735-1.38749923,1.87739224.0601594.40093229.25979042.74641854.54223764.99458721.35269075.30988725.83451201.46803284,1.3351546.39291202.90157488-.13528022,1.52277945-.97581735,1.38749923-1.87739224Z"/>
      <circle class="cls-15" cx="119.23749791" cy="141.29142695" r="2.25419323"/>
      <path class="cls-16" d="M118.93761191,143.3566273c-.39018848,1.04131617-.29842877,2.55136967-.29730355,3.35877939"/>
      <path class="cls-16" d="M116.08060247,143.54752816c.72298207.82885985,1.13464555,1.58414162,1.13685543,3.16986142"/>
      <path class="cls-16" d="M120.35396038,146.71301852c-.00112521-.80740972.12694735-1.82205746.82500594-2.21935938"/>
    </g>
  </g>
  <g id="palec">
    <path class="cls-6" d="M242.4751213,55.76247554s-1.94667734,4.44918476-3.5369106,5.90864714c-1.59023326,1.45946238-12.7863036,8.70482756-17.8234204,10.51175367-8.34995575,2.9953153-10.81530016,1.38137914-19.52062992,3.15996188-8.86568613,1.81134509-17.51183065,4.57999896-20.39012568,5.05491298-5.70452948.94123812-8.6298752-8.04074768-2.14711881-11.64275337,10.5418853-5.85737433,25.6321336-5.173683,32.88252737-18.76075316"/>
    <path class="cls-10" d="M186.11649404,77.06217368c-1.90383724.59848234-3.23896955.85538228-4.69904705,1.18228521-2.84382895.63671689-6.33582395-5.50768996-.76745599-7.7561699,1.11590998-.45059903,3.44252173-1.04894593,3.44252173-1.04894593,1.87836775,2.37463753,2.57652387,5.45854859,2.02398132,7.62283062Z"/>
  </g>
</svg>