<?xml version="1.0" encoding="UTF-8"?>
<svg id="Layer_1" data-name="Layer 1" xmlns="http://www.w3.org/2000/svg" xmlns:xlink="http://www.w3.org/1999/xlink" viewBox="0 0 660 200">
  <defs>
    <style>
      .cls-1 {
        fill: url(#linear-gradient);
      }

      .cls-1, .cls-2, .cls-3, .cls-4, .cls-5, .cls-6 {
        stroke-width: 0px;
      }

      .cls-7, .cls-8, .cls-9, .cls-10, .cls-11, .cls-12, .cls-13 {
        stroke: #004000;
        stroke-width: .75px;
      }

      .cls-7, .cls-8, .cls-9, .cls-10, .cls-11, .cls-13 {
        stroke-miterlimit: 10;
      }

      .cls-7, .cls-10 {
        fill: none;
      }

      .cls-8 {
        fill: url(#New_Gradient_Swatch_1);
      }

      .cls-9, .cls-5, .cls-12 {
        fill: #fff;
      }

      .cls-10, .cls-12 {
        stroke-linecap: round;
      }

      .cls-2, .cls-13 {
        fill: #f2f4f7;
      }

      .cls-3 {
        fill: #dcf8dc;
      }

      .cls-4, .cls-11 {
        fill: #c2a5a5;
      }

      .cls-6 {
        fill: #004000;
      }

      .cls-12 {
        stroke-linejoin: bevel;
      }
    </style>
    <linearGradient id="New_Gradient_Swatch_1" data-name="New Gradient Swatch 1" x1="39.09236988" y1="218.31914275" x2="134.61179367" y2="218.31914275" gradientTransform="translate(-1.60754873 -76.1245434) rotate(7.16852425)" gradientUnits="userSpaceOnUse">
      <stop offset="0" stop-color="#a4ee6e"/>
      <stop offset=".9989046" stop-color="#00b0a0"/>
    </linearGradient>
    <linearGradient id="linear-gradient" x1="187.30599801" y1="183.72503717" x2="259.4738386" y2="136.85869351" gradientTransform="translate(-12.38094612 -5.30262956)" gradientUnits="userSpaceOnUse">
      <stop offset="0" stop-color="#c2a5a5"/>
      <stop offset="0" stop-color="#c2a5a5"/>
      <stop offset="0" stop-color="#c2a5a5"/>
      <stop offset="1" stop-color="#a5b5c2"/>
    </linearGradient>
  </defs>
  <g id="scales-left">
    <g>
      <line class="cls-2" x1="6.06544661" y1="190.3510598" x2="60.58518885" y2="68.5177929"/>
      <line class="cls-7" x1="6.06544518" y1="190.35108983" x2="60.58518623" y2="68.51783788"/>
    </g>
    <rect class="cls-12" x="6.06544661" y="190.3510598" width="109.03948449" height="5.35273408"/>
    <g id="offset">
      <rect id="offset-bg" class="cls-8" x="12.45044357" y="125.37099077" width="89.74310188" height="51.91042048" transform="translate(-9.02054787 3.73183378) rotate(-3.45698874)"/>
      <path class="cls-3" d="M97.37632393,154.77687108c-.23522949-3.89331055-2.88482666-7.05834961-6.40167236-8.15039062.01086426-.3137207.0098877-.63012695-.00939941-.94995117-.32952881-5.45458984-5.01843262-9.609375-10.47296143-9.27978516-1.31048584.07910156-2.54278564.41552734-3.65899658.94799805-2.11132812-2.41210938-5.26855469-3.86328125-8.71594238-3.6550293-5.91363525.35742188-10.41796875,5.44091797-10.06072998,11.35449219.01513672.25097656.05053711.49536133.08239746.7409668-3.83032227,1.78515625-6.38031006,5.77001953-6.11004639,10.24389648.35302734,5.84448242,5.3770752,10.29589844,11.22143555,9.94287109l25.57519531-1.54492188c5.02606201-.3034668,8.85430908-4.62402344,8.55072021-9.65014648Z"/>
      <g>
        <path class="cls-6" d="M65.84168167,151.85904166l-1.5078125.09082031c-.07666016-.31884766-.20214844-.59521484-.375-.83056641-.17236328-.23535156-.37792969-.43115234-.6171875-.58789062-.23876953-.15722656-.50195312-.27050781-.78857422-.34033203-.28710938-.06933594-.58886719-.09521484-.90478516-.07617188-.56982422.03417969-1.07080078.20849609-1.50244141.52246094-.43212891.31347656-.76074219.75488281-.98632812,1.32470703-.22607422.56933594-.31494141,1.25390625-.26660156,2.05224609.04833984.80517578.21923828,1.47705078.51220703,2.01513672.29248047.53857422.67236328.93603516,1.140625,1.19189453.46777344.25634766.98388672.3671875,1.54736328.33300781.3125-.01855469.60742188-.07910156.88378906-.18164062.27636719-.10205078.52441406-.24414062.74267578-.42529297.21826172-.18164062.39990234-.3984375.54541016-.65136719.14453125-.25244141.23779297-.53857422.27929688-.85839844l1.50830078-.0859375c-.05126953.49121094-.1796875.94775391-.38525391,1.36865234-.20605469.421875-.47998047.79003906-.8203125,1.10644531-.34179688.31640625-.73730469.56933594-1.18896484.75830078-.45068359.18847656-.94824219.29980469-1.4921875.33251953-.85693359.05175781-1.63232422-.10546875-2.32666016-.47265625-.69482422-.36669922-1.25732422-.91894531-1.68847656-1.65527344-.43017578-.73779297-.67724609-1.63232422-.74072266-2.68554688-.06396484-1.05615234.07421875-1.97558594.41455078-2.75732422.34082031-.78173828.83398438-1.39648438,1.47900391-1.84472656.64550781-.44775391,1.39501953-.69726562,2.24853516-.74902344.52490234-.03173828,1.01953125.01367188,1.48486328.13574219.46435547.12207031.88671875.31689453,1.26855469.58251953.38183594.26660156.70361328.59960938.96728516.99951172.26318359.39892578.45263672.86181641.56884766,1.38818359Z"/>
        <path class="cls-6" d="M76.32752151,152.96109244c.06347656,1.05664062-.07421875,1.97558594-.41552734,2.7578125-.34033203.78173828-.83447266,1.39648438-1.48095703,1.84423828-.64697266.44873047-1.39794922.69824219-2.25097656.75-.85644531.05126953-1.6328125-.10595703-2.32910156-.47314453-.69580078-.36669922-1.26025391-.91845703-1.69287109-1.65527344-.43212891-.73730469-.68017578-1.63183594-.74365234-2.68505859-.06396484-1.05615234.07470703-1.97558594.41503906-2.75732422.34082031-.78125.83496094-1.39648438,1.48095703-1.84472656.64746094-.44775391,1.39941406-.69775391,2.25585938-.74951172.85302734-.05126953,1.62841797.10644531,2.32421875.47265625.69628906.3671875,1.26074219.91845703,1.69287109,1.65332031.43261719.73486328.68017578,1.63085938.74414062,2.68701172ZM74.84949417,153.05044791c-.04882812-.8046875-.21972656-1.47607422-.51220703-2.01269531-.29296875-.53710938-.67236328-.93408203-1.13867188-1.19140625-.46630859-.2578125-.98339844-.37011719-1.55029297-.3359375-.56982422.03466797-1.06982422.20800781-1.50097656.52001953-.4296875.31201172-.75830078.75146484-.98388672,1.31982422-.22607422.56835938-.31445312,1.25537109-.265625,2.06005859.04833984.80517578.21875,1.47607422.51171875,2.01220703.29248047.53710938.67138672.93457031,1.13574219,1.19189453.46533203.25830078.98291016.37011719,1.55273438.33544922.56689453-.03417969,1.06640625-.20703125,1.49853516-.51953125.43164062-.31201172.76074219-.75195312.98681641-1.3203125.22558594-.56787109.31445312-1.25439453.26611328-2.05957031Z"/>
        <path class="cls-6" d="M78.09656448,160.27994009l-.03808594-.63037109,1.83007812-2.140625c.19482422-.23193359.35546875-.43554688.48144531-.61035156.12646484-.17382812.21875-.33837891.27685547-.49267578.05859375-.15429688.08251953-.31591797.07226562-.48486328-.01171875-.19189453-.06591797-.35449219-.16455078-.48876953-.09912109-.13476562-.22802734-.23486328-.38867188-.30175781-.16064453-.06640625-.33886719-.09423828-.53417969-.08203125-.20605469.01220703-.38330078.06494141-.53271484.15917969-.1484375.09375-.26025391.22021484-.33300781.37890625-.07373047.15917969-.10400391.34179688-.09179688.54833984l-.83056641.05029297c-.02099609-.35058594.04101562-.66259766.18652344-.93554688.14599609-.27246094.35546875-.49023438.62792969-.65283203.27294922-.16259766.58837891-.25439453.94726562-.27587891.36230469-.02197266.68603516.03027344.97216797.15722656.28564453.12744141.51367188.30908203.68408203.546875.17089844.23681641.265625.51074219.28417969.82080078.01269531.21386719-.01464844.42578125-.08105469.63525391-.06787109.20947266-.19238281.4453125-.375.70800781-.18164062.26220703-.4375.58251953-.76708984.9609375l-1.07373047,1.26855469.00292969.04248047,2.59667969-.15673828.04492188.74609375-3.796875.22949219Z"/>
        <path class="cls-6" d="M85.15418167,157.49722525c-.50683594.03076172-.94873047-.05175781-1.32714844-.24755859s-.67773438-.48535156-.89990234-.87011719c-.22119141-.38427734-.34814453-.84326172-.38037109-1.37646484-.03222656-.52685547.0390625-.99755859.21191406-1.41162109.17382812-.41357422.43115234-.74365234.77392578-.99072266.34277344-.24755859.75244141-.38525391,1.23046875-.4140625.29003906-.01757812.57421875.01367188.85253906.09277344.27832031.08007812.53173828.21533203.76123047.40820312.22851562.19238281.41552734.44824219.56054688.76757812.14453125.31933594.23095703.71289062.25927734,1.17919922l.02148438.35498047-4.08935547.24707031-.04541016-.75,3.10839844-.18798828c-.01611328-.26318359-.08398438-.49414062-.20361328-.69189453-.11914062-.19775391-.27929688-.34960938-.47949219-.45654297-.19970703-.10693359-.43017578-.15234375-.68945312-.13671875-.28125.01708984-.52197266.10009766-.72216797.25048828-.20019531.14990234-.35009766.33837891-.44970703.56494141-.10009766.22705078-.14111328.46875-.12597656.72460938l.03564453.58691406c.02099609.34375.09863281.6328125.23535156.86621094.13574219.23388672.31738281.40722656.54394531.52050781.22607422.11230469.48535156.16015625.77832031.14257812.18945312-.01171875.36132812-.04931641.51416016-.11376953.15283203-.06396484.28271484-.15380859.390625-.27099609.10693359-.11572266.18554688-.25585938.23632812-.42041016l.95800781.11328125c-.05908203.28369141-.18017578.53613281-.36230469.75634766-.18310547.22070312-.41796875.39746094-.70458984.53027344-.28662109.13232422-.61669922.21044922-.99267578.23291016Z"/>
        <path class="cls-6" d="M92.05994339,158.91177603l-.16455078-2.72949219-.06054688.00390625c-.05419922.11279297-.13232422.24316406-.23730469.390625-.10449219.14746094-.25097656.27978516-.44091797.39648438-.19042969.11669922-.44238281.18457031-.75439453.20361328-.41552734.02490234-.79150391-.05957031-1.12988281-.25292969-.33740234-.19335938-.61035156-.48291016-.81835938-.86767578-.20849609-.38574219-.32910156-.85595703-.36230469-1.41210938-.03369141-.55566406.03027344-1.03710938.19335938-1.44384766.16210938-.40625.40039062-.72412109.71337891-.95361328.31347656-.22949219.67626953-.35693359,1.08984375-.38183594.31884766-.01904297.57958984.01855469.78173828.11230469.20117188.09423828.36035156.20849609.47705078.34277344.1171875.13427734.20849609.25292969.27539062.35644531l.08398438-.00488281-.05029297-.83398438.97753906-.05859375.42724609,7.07275391-1.00097656.06005859ZM90.57166214,156.30923697c.28808594-.01708984.52734375-.10839844.71777344-.2734375.19042969-.16455078.32958984-.38671875.41699219-.66552734s.12011719-.59863281.09814453-.96044922c-.02148438-.35742188-.09130859-.66650391-.2109375-.92871094-.11865234-.26171875-.28222656-.4609375-.48974609-.59863281s-.45751953-.19726562-.75-.1796875c-.30175781.01855469-.54785156.11132812-.73925781.28027344-.19189453.16796875-.33007812.39013672-.41552734.66650391-.08496094.27587891-.1171875.58447266-.09716797.92382812.02099609.34375.09082031.64941406.20996094.91796875.11962891.26855469.28466797.4765625.49707031.62402344.21142578.14697266.46533203.21191406.76269531.19384766Z"/>
      </g>
      <g>
        <path class="cls-6" d="M22.92957229,167.27212759c.88330078-.05322266,1.65136719.06201172,2.3046875.34716797.65380859.28466797,1.16796875.69726562,1.54248047,1.23828125.375.54101562.58300781,1.16796875.62646484,1.88134766.04296875.71630859-.08837891,1.36523438-.39501953,1.94677734-.30712891.58203125-.76806641,1.05371094-1.38427734,1.41552734-.61572266.36132812-1.36376953.56884766-2.24414062.62207031-.88330078.05371094-1.65136719-.06298828-2.30517578-.34716797-.65332031-.28515625-1.16748047-.69775391-1.54199219-1.23876953-.37451172-.54052734-.58349609-1.16894531-.62646484-1.88525391-.04345703-.71337891.08886719-1.36083984.39501953-1.94287109.30712891-.58203125.76757812-1.05371094,1.38183594-1.41503906.61474609-.36181641,1.36328125-.56835938,2.24658203-.62207031ZM23.00427933,168.50747916c-.67333984.04101562-1.23388672.18408203-1.68261719.42822266-.44873047.24462891-.78076172.56201172-.99658203.95166016-.21533203.39013672-.30908203.82177734-.28027344,1.29589844.02880859.4765625.17333984.89453125.43457031,1.25488281.26074219.359375.62841797.63378906,1.10351562.82324219.47509766.18847656,1.04882812.26269531,1.72167969.22167969.67285156-.04052734,1.23388672-.18310547,1.68310547-.42724609.44824219-.24560547.78027344-.56201172.99658203-.95019531.21533203-.38916016.30859375-.82128906.27978516-1.29785156-.02880859-.47412109-.17285156-.89160156-.43408203-1.25292969-.26123047-.36083984-.62890625-.63623047-1.10351562-.82470703-.47558594-.18847656-1.04931641-.26318359-1.72216797-.22265625Z"/>
        <path class="cls-6" d="M26.9710762,165.47183463l-8.27099609.49951172-.30957031-5.12939453,1.07421875-.06494141.234375,3.88134766,2.52050781-.15234375-.21240234-3.51367188,1.0703125-.06445312.21240234,3.51367188,3.60595703-.21777344.07519531,1.24804688Z"/>
        <path class="cls-6" d="M26.56873245,158.80826041l-8.27099609.49951172-.31005859-5.12939453,1.07421875-.06494141.234375,3.88134766,2.52050781-.15234375-.21191406-3.51367188,1.0703125-.06445312.21191406,3.51367188,3.60595703-.21777344.07568359,1.24804688Z"/>
        <path class="cls-6" d="M19.79529495,148.00161978c-.37890625.06640625-.66503906.26171875-.85791016.58691406s-.27441406.72412109-.24560547,1.19824219c.02050781.33886719.09130859.62988281.21240234.87109375.12158203.24121094.27783203.42480469.47070312.54931641.19287109.125.40625.1796875.640625.16552734.19628906-.01171875.36376953-.06787109.5-.16992188.13769531-.1015625.24951172-.23095703.3359375-.38916016.08642578-.15771484.15576172-.32666016.20800781-.50537109.05273438-.17822266.09521484-.35009766.125-.51367188l.16162109-.82080078c.04833984-.26757812.11962891-.54345703.21337891-.82714844.09326172-.28417969.22363281-.55029297.38964844-.79785156.16601562-.24804688.37792969-.453125.63574219-.61621094.25732422-.16259766.57177734-.25537109.94335938-.27783203.46826172-.02832031.89208984.06689453,1.26953125.28564453.37841797.21972656.68652344.55078125.92382812.99511719.23730469.44335938.37597656.98828125.41503906,1.63427734.03759766.61914062-.02880859,1.16113281-.19775391,1.625-.16894531.46435547-.42675781.83496094-.77441406,1.11279297-.34570312.27783203-.76757812.4453125-1.26416016.50195312l-.07568359-1.25195312c.29736328-.04248047.54003906-.15478516.72753906-.33789062.1875-.18261719.32080078-.41113281.40039062-.68457031.07910156-.27392578.109375-.57080078.08984375-.89160156-.02099609-.35205078-.09570312-.66308594-.22460938-.93261719-.12841797-.26904297-.29736328-.47705078-.5078125-.62402344-.20996094-.14697266-.44970703-.21191406-.71923828-.19580078-.24462891.01464844-.44091797.09667969-.58886719.24414062-.14794922.14892578-.26611328.34375-.35351562.58496094-.08837891.24169922-.16259766.51318359-.22265625.81396484l-.20751953.99414062c-.140625.67285156-.37402344,1.21289062-.70019531,1.62060547-.32666016.40722656-.77832031.62890625-1.35498047.66357422-.47607422.02880859-.90039062-.07568359-1.27099609-.31201172-.37109375-.23779297-.66894531-.57080078-.89306641-1.00048828-.22509766-.42919922-.35400391-.92138672-.38720703-1.47607422-.03417969-.56005859.03417969-1.06054688.20507812-1.50244141.17041016-.44091797.41992188-.79541016.74804688-1.06445312.32861328-.26806641.71484375-.42138672,1.15771484-.45898438l.07275391,1.20361328Z"/>
        <path class="cls-6" d="M25.72400589,144.82632681l-8.27099609.49951172-.31347656-5.18554688,1.07421875-.06494141.23828125,3.9375,2.52050781-.15234375-.22167969-3.66650391,1.0703125-.06445312.22167969,3.66650391,2.53173828-.15283203-.24121094-3.98632812,1.07421875-.06445312.31640625,5.23388672Z"/>
        <path class="cls-6" d="M18.13758011,138.81167838l-1.07421875.06494141-.38671875-6.40136719,1.07421875-.06494141.15576172,2.58105469,7.19677734-.43457031.07519531,1.24365234-7.19677734.43457031.15576172,2.57666016Z"/>
      </g>
      <polyline class="cls-7" points="99.26978003 164.47836319 99.64926698 170.76032426 93.36730591 171.13981121"/>
      <polyline class="cls-7" points="90.70150647 127.01074145 96.98346754 126.6312545 97.36295449 132.91321557"/>
      <line class="cls-13" x1="39.46546326" y1="130.1058674" x2="40.64148649" y2="149.57349877"/>
      <line class="cls-13" x1="41.38049198" y1="161.80683406" x2="42.1312666" y2="174.23499298"/>
      <g>
        <path class="cls-6" d="M41.32849808,151.90103384l.42773438,7.08056641-1.07177734.06445312-.36279297-6.00878906-.04150391.00244141-1.62744141,1.20849609-.06201172-1.02294922,1.69726562-1.26171875,1.04052734-.0625Z"/>
        <path class="cls-6" d="M47.44959183,153.30777213l.05029297.83007812-2.90136719.17529297-.05029297-.83007812,2.90136719-.17529297ZM45.24939651,152.16372916l1.03417969-.0625.30322266,5.0234375c.01220703.20019531.05126953.34960938.1171875.44580078.06640625.09667969.14794922.16015625.24560547.18994141.09814453.02978516.20361328.04150391.31640625.03466797.08300781-.00537109.15527344-.01513672.21679688-.03027344.06103516-.015625.109375-.02783203.14306641-.03662109l.23828125.84277344c-.05859375.02636719-.14160156.05566406-.25097656.0859375-.10888672.03125-.24658203.05273438-.41259766.06542969-.27197266.02050781-.52832031-.01220703-.76904297-.09960938-.2421875-.08691406-.44140625-.23242188-.59912109-.43603516-.15869141-.203125-.24707031-.46484375-.26660156-.78515625l-.31640625-5.23779297Z"/>
      </g>
    </g>
    <line class="cls-10" x1="115.10493111" y1="190.35108983" x2="60.58518623" y2="68.51783788"/>
  </g>
  <g id="scales-right">
    <rect class="cls-12" x="159.05746589" y="190.3510598" width="109.03948449" height="5.35273408"/>
    <line class="cls-10" x1="268.0969355" y1="190.35108983" x2="213.57722115" y2="68.51783788"/>
    <g id="co2-cloud">
      <g>
        <path class="cls-1" d="M261.8250544,158.14234959c-.77178955-7.99902344-6.46112061-14.31958008-13.78265381-16.30810547-.00079346-.64697266-.02606201-1.29858398-.08947754-1.95556641-1.08117676-11.20629883-11.04217529-19.41430664-22.24847412-18.33300781-2.68615723.2590332-5.19287109,1.04003906-7.44787598,2.21435547-4.52526855-4.81298828-11.14672852-7.55786133-18.23132324-6.87426758-12.1494751,1.17211914-21.04833984,11.97143555-19.87615967,24.12084961.04937744.51171875.12200928,1.01538086.20489502,1.51513672-7.74731445,3.9609375-12.69061279,12.36083984-11.80426025,21.54736328,1.15844727,12.00732422,11.83135986,20.80200195,23.83856201,19.64355469,4.11547852-.39697266,7.85308838-1.91259766,10.94238281-4.21582031,3.68634033,5.00439453,9.60241699,8.265625,16.2947998,8.265625,7.45550537,0,13.95245361-4.04125977,17.4664917-10.04150391,2.44714355.83300781,5.09991455,1.18652344,7.84020996.92211914,10.32592773-.99633789,17.88916016-10.17480469,16.8928833-20.50073242Z"/>
        <path class="cls-7" d="M261.8250544,158.14234959c-.77178955-7.99902344-6.46112061-14.31958008-13.78265381-16.30810547-.00079346-.64697266-.02606201-1.29858398-.08947754-1.95556641-1.08117676-11.20629883-11.04217529-19.41430664-22.24847412-18.33300781-2.68615723.2590332-5.19287109,1.04003906-7.44787598,2.21435547-4.52526855-4.81298828-11.14672852-7.55786133-18.23132324-6.87426758-12.1494751,1.17211914-21.04833984,11.97143555-19.87615967,24.12084961.04937744.51171875.12200928,1.01538086.20489502,1.51513672-7.74731445,3.9609375-12.69061279,12.36083984-11.80426025,21.54736328,1.15844727,12.00732422,11.83135986,20.80200195,23.83856201,19.64355469,4.11547852-.39697266,7.85308838-1.91259766,10.94238281-4.21582031,3.68634033,5.00439453,9.60241699,8.265625,16.2947998,8.265625,7.45550537,0,13.95245361-4.04125977,17.4664917-10.04150391,2.44714355.83300781,5.09991455,1.18652344,7.84020996.92211914,10.32592773-.99633789,17.88916016-10.17480469,16.8928833-20.50073242Z"/>
      </g>
      <g id="co2-cloud3">
        <circle class="cls-11" cx="224.55456178" cy="120.30534229" r="17.24792606"/>
        <circle class="cls-4" cx="233.89813387" cy="134.73715592" r="9.71026091"/>
        <circle class="cls-11" cx="185.48711325" cy="99.5462747" r="6.06977058"/>
        <g>
          <path class="cls-5" d="M222.75330276,113.37661978v13.46582031h-2.03857422v-11.42724609h-.07861328l-3.22216797,2.10400391v-1.94628906l3.35986328-2.19628906h1.97949219Z"/>
          <path class="cls-5" d="M231.13660354,116.743319v1.57763672h-5.51660156v-1.57763672h5.51660156ZM227.09949417,114.32339713h1.96582031v9.55371094c0,.38134766.05664062.66748047.17089844.85791016.11376953.19091797.26171875.3203125.44384766.38818359.18164062.06787109.38037109.1015625.59521484.1015625.15771484,0,.29541016-.01074219.4140625-.03271484.11816406-.02197266.21044922-.03955078.27587891-.05273438l.35546875,1.62402344c-.11425781.04394531-.27636719.08886719-.48681641.13476562-.21044922.04638672-.47314453.07128906-.7890625.07568359-.51708984.00878906-.99951172-.08300781-1.44628906-.27587891-.44726562-.19287109-.80908203-.49121094-1.08496094-.89453125-.27636719-.40283203-.4140625-.90917969-.4140625-1.51855469v-9.96142578Z"/>
        </g>
      </g>
      <path class="cls-7" d="M188.76848774,132.75847262s2.64893131-10.55369991,15.16248999-8.45217373"/>
      <g>
        <path class="cls-5" d="M197.83679886,154.74966666h-2.88183594c-.11083984-.61572266-.31738281-1.15771484-.61914062-1.62548828-.30175781-.46826172-.67089844-.86523438-1.10839844-1.19189453-.43701172-.32617188-.92529297-.57275391-1.46386719-.73876953-.5390625-.16650391-1.11035156-.24951172-1.71386719-.24951172-1.08984375,0-2.06445312.27392578-2.92333984.82226562-.859375.54785156-1.53662109,1.3515625-2.03222656,2.41064453-.49609375,1.05957031-.74365234,2.35253906-.74365234,3.87988281,0,1.53955078.24755859,2.83886719.74365234,3.89794922.49560547,1.05957031,1.17431641,1.85986328,2.03662109,2.40185547s1.83203125.81298828,2.90966797.81298828c.59765625,0,1.16552734-.08154297,1.70458984-.24511719.53857422-.16308594,1.02685547-.40478516,1.46386719-.72509766.4375-.31982422.80859375-.71240234,1.11328125-1.17773438.3046875-.46484375.515625-.99902344.6328125-1.60253906l2.88183594.00927734c-.15380859.9296875-.45117188,1.78417969-.89111328,2.56347656-.44042969.77880859-1.00390625,1.45019531-1.69042969,2.01367188-.68701172.56347656-1.47021484.99902344-2.35107422,1.30712891-.88085938.30761719-1.84130859.46191406-2.88183594.46191406-1.63818359,0-3.09765625-.38964844-4.37890625-1.16845703-1.28076172-.77929688-2.2890625-1.89550781-3.02490234-3.34863281-.73632812-1.45361328-1.10400391-3.18701172-1.10400391-5.20068359,0-2.02001953.36962891-3.75488281,1.10839844-5.20556641.73925781-1.45019531,1.74902344-2.56445312,3.02978516-3.34375,1.28076172-.77880859,2.73730469-1.16845703,4.36962891-1.16845703,1.00341797,0,1.94091797.14306641,2.8125.4296875.87158203.28613281,1.65478516.70507812,2.35107422,1.25585938.69580078.55126953,1.27148438,1.22265625,1.72753906,2.01416016.45556641.79101562.76318359,1.69482422.92333984,2.7109375Z"/>
        <path class="cls-5" d="M217.68787308,158.05679556c0,2.02001953-.36962891,3.75488281-1.10839844,5.20507812-.73925781,1.45019531-1.75048828,2.56494141-3.03466797,3.34423828-1.28369141.77880859-2.7421875,1.16845703-4.37402344,1.16845703-1.63818359,0-3.09912109-.38964844-4.3828125-1.16845703-1.28417969-.77929688-2.29541016-1.89550781-3.03466797-3.34863281-.73876953-1.45361328-1.10839844-3.18701172-1.10839844-5.20068359,0-2.02001953.36962891-3.75488281,1.10839844-5.20556641.73925781-1.45019531,1.75048828-2.56445312,3.03466797-3.34375,1.28369141-.77880859,2.74462891-1.16845703,4.3828125-1.16845703,1.63183594,0,3.09033203.38964844,4.37402344,1.16845703,1.28417969.77929688,2.29541016,1.89355469,3.03466797,3.34375.73876953,1.45068359,1.10839844,3.18554688,1.10839844,5.20556641ZM214.86121292,158.05679556c0-1.53955078-.24804688-2.83740234-.74365234-3.89355469s-1.17285156-1.85693359-2.03222656-2.40185547c-.85888672-.54492188-1.83056641-.81738281-2.91455078-.81738281-1.08984375,0-2.06298828.27246094-2.91894531.81738281s-1.53173828,1.34570312-2.02734375,2.40185547c-.49609375,1.05615234-.74365234,2.35400391-.74365234,3.89355469s.24755859,2.83740234.74365234,3.89355469c.49560547,1.05615234,1.17138672,1.85644531,2.02734375,2.40185547.85595703.54492188,1.82910156.81738281,2.91894531.81738281,1.08398438,0,2.05566406-.27246094,2.91455078-.81738281.859375-.54541016,1.53662109-1.34570312,2.03222656-2.40185547s.74365234-2.35400391.74365234-3.89355469Z"/>
        <path class="cls-5" d="M220.21716995,172.20376822v-1.20654297l3.73193359-3.86669922c.3984375-.41992188.72802734-.78857422.98828125-1.10644531s.45507812-.62011719.58447266-.90771484c.12890625-.28710938.19384766-.59228516.19384766-.91552734,0-.36621094-.08642578-.68261719-.25878906-.95019531s-.40722656-.47412109-.70556641-.61962891c-.29785156-.14501953-.63330078-.21777344-1.00683594-.21777344-.39501953,0-.73974609.08056641-1.03417969.2421875s-.52050781.38964844-.67822266.68408203c-.15820312.29443359-.23730469.63916016-.23730469,1.03369141h-1.58837891c0-.67089844.15429688-1.25830078.46289062-1.76074219.30908203-.50292969.73242188-.89306641,1.27099609-1.17138672s1.15087891-.41748047,1.83642578-.41748047c.69287109,0,1.30419922.13720703,1.83398438.41210938.52929688.27441406.94287109.64794922,1.24121094,1.12011719.29785156.47216797.44677734,1.00439453.44677734,1.59667969,0,.40917969-.07617188.80957031-.22851562,1.20117188-.15283203.39111328-.41748047.82666016-.79443359,1.30566406-.37695312.47949219-.90136719,1.06005859-1.57275391,1.7421875l-2.19189453,2.29443359v.08056641h4.96533203v1.42724609h-7.25927734Z"/>
        <path class="cls-5" d="M233.98328323,167.71451041c-.96923828,0-1.80273438-.20849609-2.50048828-.62451172-.69824219-.41650391-1.23583984-1.00341797-1.61376953-1.76123047s-.56689453-1.64648438-.56689453-2.66699219c0-1.0078125.18896484-1.89550781.56689453-2.6640625s.90722656-1.36816406,1.58789062-1.79931641c.68115234-.43115234,1.47851562-.64697266,2.39208984-.64697266.5546875,0,1.09277344.09179688,1.61376953.27539062.52050781.18359375.98828125.47167969,1.40234375.86425781.4140625.39306641.74072266.90234375.97998047,1.52734375.23876953.62548828.35839844,1.38476562.35839844,2.27685547v.67871094h-7.81884766v-1.43457031h5.94238281c0-.50341797-.10205078-.95068359-.30712891-1.34130859s-.4921875-.69921875-.86132812-.92529297c-.36914062-.2265625-.80175781-.33984375-1.296875-.33984375-.53808594,0-1.00634766.13134766-1.40576172.39404297-.39892578.26269531-.70654297.60400391-.921875,1.02441406-.21582031.42089844-.32373047.87646484-.32373047,1.3671875v1.12109375c0,.65722656.11669922,1.21630859.34912109,1.67773438.23291016.4609375.55810547.81201172.9765625,1.05322266s.90722656.36181641,1.46679688.36181641c.36279297,0,.69335938-.05224609.9921875-.15673828s.55712891-.26171875.77490234-.47070312.38427734-.46777344.49951172-.77490234l1.8125.32666016c-.14501953.53369141-.40478516,1-.77832031,1.39892578-.37353516.39941406-.84082031.70898438-1.40234375.92871094s-1.20068359.33007812-1.91796875.33007812Z"/>
        <path class="cls-5" d="M246.97644729,171.2042565v-5.21875h-.11523438c-.11523438.20898438-.28076172.44824219-.49609375.71679688-.21582031.26904297-.51123047.50390625-.88720703.70458984-.37548828.20068359-.86230469.30078125-1.45996094.30078125-.79394531,0-1.50146484-.20361328-2.12255859-.61132812-.62158203-.40771484-1.10791016-.99023438-1.46044922-1.74804688-.35205078-.7578125-.52832031-1.66845703-.52832031-2.73144531s.17822266-1.97216797.53515625-2.72802734c.35595703-.75585938.84619141-1.33398438,1.46923828-1.73535156.62353516-.40136719,1.33007812-.60205078,2.11962891-.60205078.61083984,0,1.10253906.1015625,1.4765625.30419922.37304688.20263672.66357422.43847656.87060547.70751953s.36816406.50585938.48339844.7109375h.16015625v-1.59472656h1.87011719v13.52490234h-1.91503906ZM244.44080276,166.07486197c.55078125,0,1.01708984-.14599609,1.39892578-.43847656.38232422-.29248047.67285156-.69921875.87109375-1.22021484.19873047-.52050781.29785156-1.12695312.29785156-1.81835938,0-.68310547-.09814453-1.28076172-.29443359-1.79345703-.19677734-.51220703-.48486328-.91113281-.86474609-1.19726562s-.84960938-.42919922-1.40869141-.42919922c-.57617188,0-1.05664062.14941406-1.44091797.44824219s-.67333984.70654297-.86767578,1.22314453-.29150391,1.09960938-.29150391,1.74853516c0,.65722656.09814453,1.24853516.29443359,1.77392578.19677734.52490234.48779297.93994141.87451172,1.24511719.38623047.30566406.86328125.45800781,1.43115234.45800781Z"/>
      </g>
    </g>
    <g>
      <line class="cls-2" x1="159.05746589" y1="190.3510598" x2="213.57720814" y2="68.5177929"/>
      <line class="cls-7" x1="159.05746101" y1="190.35108983" x2="213.57722115" y2="68.51783788"/>
    </g>
    <circle id="co2-cloud1" class="cls-11" cx="184.01737845" cy="135.743404" r="11.68012073"/>
  </g>
  <g id="scales">
    <path class="cls-9" d="M133.27238498,60.21484769c-14.98650503,0-17.64424958-11.74941994-36.34359806-11.74941994-18.22713921,0-21.62949686,16.72578245-36.34359806,19.45290495l.69202597,3.14674464c13.18812443-2.0981107,20.31187487-13.60774657,35.12836779-13.60774657,15.16634309,0,20.02197072,7.25346843,36.50712625,7.25346843l.35967612-4.49595151Z"/>
    <path class="cls-9" d="M143.85021079,60.21484769c14.98650503,0,17.64424958-11.74941994,36.34359806-11.74941994,18.22713921,0,21.62949686,16.72578245,36.34359807,19.45290495l-.69202597,3.14674464c-13.18812443-2.0981107-20.31187488-13.60774657-35.12836779-13.60774657-15.16634309,0-20.02197072,7.25346844-36.50712625,7.25346844l-.35967612-4.49595151Z"/>
    <circle class="cls-9" cx="60.58518885" cy="68.5177929" r="5.45653972"/>
    <circle class="cls-9" cx="137.08119849" cy="61.6839466" r="8.65990517"/>
    <circle class="cls-9" cx="213.57720814" cy="68.5177929" r="5.45653972"/>
  </g>
</svg>