<?xml version="1.0" encoding="UTF-8"?>
<svg id="Layer_1" data-name="Layer 1" xmlns="http://www.w3.org/2000/svg" xmlns:xlink="http://www.w3.org/1999/xlink" viewBox="0 0 345.51046721 200">
  <defs>
    <style>
      .cls-1 {
        stroke-dasharray: 0 0 3.0417366 2.0278244;
      }

      .cls-1, .cls-2, .cls-3, .cls-4, .cls-5, .cls-6, .cls-7, .cls-8, .cls-9, .cls-10, .cls-11 {
        stroke: #004000;
        stroke-miterlimit: 10;
        stroke-width: .75px;
      }

      .cls-1, .cls-2, .cls-3, .cls-6, .cls-8, .cls-11 {
        fill: none;
      }

      .cls-2 {
        stroke-dasharray: 0 0 3.17594123 2.11729431;
      }

      .cls-4 {
        fill: url(#New_Gradient_Swatch_1);
      }

      .cls-5, .cls-7, .cls-12 {
        fill: #fff;
      }

      .cls-5, .cls-8 {
        stroke-linecap: round;
      }

      .cls-6 {
        stroke-dasharray: 0 0 3 2;
      }

      .cls-13 {
        fill: #94d196;
      }

      .cls-13, .cls-14, .cls-12, .cls-15 {
        stroke-width: 0px;
      }

      .cls-14 {
        fill: #dcf8dc;
      }

      .cls-15 {
        fill: #004000;
      }

      .cls-9 {
        fill: #c9de8f;
      }

      .cls-10 {
        fill: #f2f4f7;
      }

      .cls-11 {
        stroke-dasharray: 0 0 3.36777472 2.24518299;
      }
    </style>
    <linearGradient id="New_Gradient_Swatch_1" data-name="New Gradient Swatch 1" x1="152.76947414" y1="261.00459582" x2="267.81149164" y2="261.00459582" gradientTransform="translate(-43.21438016 -192.98193638) rotate(7.18997878)" gradientUnits="userSpaceOnUse">
      <stop offset="0" stop-color="#a4ee6e"/>
      <stop offset=".9989046" stop-color="#00b0a0"/>
    </linearGradient>
  </defs>
  <g>
    <polyline class="cls-12" points="153.63706312 151.88831771 154.43317743 177.18186065 144.02264763 177.18186065 144.67395089 155.10741071"/>
    <g>
      <line class="cls-3" x1="153.6370756" y1="151.88837441" x2="153.68425578" y2="153.38751992"/>
      <line class="cls-1" x1="153.74803752" y1="155.41437538" x2="154.35411662" y2="174.66913613"/>
      <polyline class="cls-3" points="154.38597697 175.68256386 154.43315714 177.18183144 152.93315714 177.18183144"/>
      <line class="cls-2" x1="150.81590861" y1="177.18183144" x2="146.58128947" y2="177.18183144"/>
      <polyline class="cls-3" points="145.52263468 177.18183144 144.02263468 177.18183144 144.06688517 175.68256386"/>
      <line class="cls-11" x1="144.13310832" y1="173.43830117" x2="144.59660929" y2="157.72882851"/>
      <line class="cls-3" x1="144.62969035" y1="156.6067582" x2="144.67394084" y2="155.10736855"/>
    </g>
  </g>
  <path class="cls-14" d="M183.93653993,129.37960634c0-8.79919604-7.13305506-15.93214348-15.93214348-15.93214348-2.87837396,0-5.5711488.77425348-7.90160443,2.10966316-1.43243352-.35085715-2.9213163-.55749695-4.46191283-.55749695-3.50388984,0-6.77111255.98003228-9.57549439,2.65489087-2.778229-4.66769163-7.85920022-7.80495727-13.68552764-7.80495727-8.79908841,0-15.93214348,7.13294744-15.93214348,15.93214348,0,6.35568046,3.73081693,11.82603854,9.11372979,14.38299076-.00672656.19049606-.02873585.37711763-.02873585.56933569,0,8.79898079,7.13310888,15.93214348,15.93214348,15.93214348,4.30774017,0,8.20919637-1.71704755,11.07680785-4.4946308,1.01032869.16854058,2.04099848.27745698,3.09922024.27745698,6.05750569,0,11.42739594-2.88908264,14.84992136-7.35056497,7.61499934-1.19635832,13.44573938-7.76793431,13.44573938-15.71883094Z"/>
  <path class="cls-6" d="M184.17108488,129.51535246c0-8.860356-7.18263429-16.04288192-16.04288192-16.04288192-2.89838048,0-5.60987179.77963503-7.95652556,2.12432665-1.44238984-.35329583-2.94162129-.5613719-4.49292594-.5613719-3.52824409,0-6.81817605.98684412-9.64205012,2.67334404-2.79753944-4.70013503-7.91382662-7.85920665-13.78065068-7.85920665-8.86024763,0-16.04288192,7.18252592-16.04288192,16.04288192,0,6.39985644,3.75674846,11.90823697,9.17707596,14.48296161-.00677331.19182013-.02893558.37973883-.02893558.57329293,0,8.86013925,7.18268848,16.04288192,16.04288192,16.04288192,4.33768168,0,8.26625546-1.72898211,11.15379864-4.52587132,1.01735111.16971205,2.05518471.27938548,3.12076178.27938548,6.09960917,0,11.50682354-2.90916359,14.95313768-7.40165603,7.66792838-1.20467376,13.53919574-7.82192635,13.53919574-15.82808672Z"/>
  <g id="ruka">
    <path class="cls-5" d="M25.76495364,39.55278602s13.90447993,6.59936299,16.75531568,8.29570551c9.9128073,5.89845152,24.82255079,8.28996356,26.18553849,12.74262684,1.3629877,4.45266329,15.19714341,25.24608489,25.22377298,19.03011135,10.02662957-6.21597354,22.23945153-11.55180735,19.7160212-17.93066611-2.52343033-6.37885876-14.10947263-30.06766531-22.69341757-33.39123114-8.58394495-3.32356583-30.83836016-2.87637176-38.30720133-5.81718987-6.91479482-2.72266518-16.2346904-8.65296264-16.2346904-8.65296264-8.9292865,5.02076295-12.61998634,21.39660498-10.64533906,25.72360606Z"/>
    <path class="cls-3" d="M88.60759609,42.6594955c-2.43974637,3.94223013,3.15243178,11.06775971,3.15243178,11.06775971"/>
  </g>
  <g id="offset">
    <rect id="offset-bg" class="cls-4" x="78.71269182" y="61.03014634" width="108.08511073" height="62.52005366"/>
    <path class="cls-14" d="M174.67143839,91.84406288c.04534912-.47412109.07305908-.95336914.07324219-1.43920898.00305176-8.28820801-6.71325684-15.00952148-15.00140381-15.01269531-1.99127197-.00073242-3.88781738.39489746-5.62677002,1.09851074-2.97442627-3.84606934-7.62072754-6.33361816-12.85900879-6.33557129-8.98571777-.00341797-16.27282715,7.27832031-16.27618408,16.26403809-.00012207.38122559.03094482.75476074.05657959,1.1295166-5.96313477,2.35009766-10.19036865,8.14819336-10.19293213,14.94628906-.0032959,8.88049316,7.1930542,16.08227539,16.0736084,16.08569336l38.86132812.0144043c7.63708496.00292969,13.83044434-6.18579102,13.83331299-13.82287598.00219727-5.91601562-3.71807861-10.95129395-8.94177246-12.92810059Z"/>
    <g>
      <path class="cls-15" d="M136.18715354,98.45270863l-2.19335938-.00048828c-.08398438-.46875-.24121094-.88183594-.47070312-1.23779297-.22998047-.35644531-.51074219-.65869141-.84326172-.90722656-.33300781-.24902344-.70458984-.43652344-1.11474609-.56298828-.41015625-.12695312-.84472656-.19042969-1.30419922-.19042969-.82958984-.00048828-1.57128906.20849609-2.22509766.625-.65429688.41748047-1.17041016,1.02832031-1.54736328,1.83447266-.37792969.80664062-.56738281,1.79052734-.56787109,2.95263672-.00048828,1.171875.18847656,2.16162109.56542969,2.96777344.37646484.80615234.89355469,1.41650391,1.54980469,1.82861328.65576172.41308594,1.39404297.61914062,2.21435547.61962891.45458984,0,.88671875-.06201172,1.29736328-.18554688.41015625-.12402344.78173828-.30810547,1.11474609-.55175781s.61523438-.54248047.84716797-.89648438c.23242188-.35351562.39306641-.75976562.48242188-1.21923828l2.19335938.00732422c-.1171875.70800781-.34375,1.35839844-.67871094,1.95117188-.3359375.59326172-.76464844,1.10351562-1.28710938,1.53271484-.5234375.42822266-1.11962891.75976562-1.79003906.99365234-.67041016.234375-1.40185547.35107422-2.19384766.35107422-1.24707031-.00048828-2.35791016-.29736328-3.33300781-.890625-.97412109-.59375-1.7421875-1.44335938-2.30175781-2.54980469s-.83886719-2.42578125-.83837891-3.95898438c.00048828-1.53710938.28222656-2.85791016.84521484-3.96191406.56298828-1.10351562,1.33203125-1.95166016,2.30712891-2.54443359.97509766-.59228516,2.08398438-.88818359,3.32617188-.88769531.76416016,0,1.47753906.109375,2.14111328.32714844.66308594.21875,1.25927734.53759766,1.7890625.95751953.52929688.41943359.96728516.93066406,1.31396484,1.53320312.34667969.60205078.58105469,1.29003906.70214844,2.06347656Z"/>
      <path class="cls-15" d="M151.29652854,100.97565785c-.00048828,1.53759766-.28222656,2.85839844-.84521484,3.96191406-.56298828,1.10400391-1.33300781,1.95166016-2.31103516,2.54443359-.97705078.59277344-2.08691406.88867188-3.32910156.88818359-1.24707031-.00048828-2.35888672-.29736328-3.33642578-.890625-.97705078-.59326172-1.74658203-1.44335938-2.30859375-2.54931641-.56201172-1.10693359-.84277344-2.42626953-.84228516-3.95947266.00048828-1.53710938.28222656-2.85791016.84521484-3.96142578.56298828-1.10400391,1.33300781-1.95166016,2.31054688-2.54492188.97802734-.59228516,2.08984375-.88818359,3.33691406-.88769531,1.2421875.00048828,2.35205078.29736328,3.32861328.89013672.97753906.59375,1.74707031,1.44238281,2.30908203,2.54638672.56201172,1.10449219.84277344,2.42529297.84228516,3.96240234ZM149.14467307,100.97468129c.00048828-1.17138672-.1875-2.15966797-.56445312-2.96337891-.37744141-.80419922-.89257812-1.4140625-1.54638672-1.82861328-.65380859-.41552734-1.39355469-.62304688-2.21826172-.62353516-.82958984-.00048828-1.5703125.20703125-2.22216797.62158203-.65136719.41455078-1.16650391,1.0234375-1.54345703,1.82763672-.37792969.80371094-.56738281,1.79199219-.56787109,2.96337891-.00048828,1.171875.18847656,2.16015625.56542969,2.96386719.37646484.80419922.89111328,1.41357422,1.54248047,1.82861328.65136719.41552734,1.39208984.62255859,2.22167969.62304688.82470703.00048828,1.56445312-.20654297,2.21875-.62109375.65380859-.41503906,1.16943359-1.0234375,1.54736328-1.82763672.37792969-.80371094.56640625-1.79199219.56689453-2.96386719Z"/>
      <path class="cls-15" d="M153.21742697,111.74470082l.00048828-.91845703,2.84179688-2.94140625c.30322266-.31982422.55371094-.60058594.75244141-.84228516.19824219-.2421875.34667969-.47216797.44482422-.69091797.09863281-.21826172.14794922-.45068359.14794922-.69628906,0-.27880859-.06542969-.52001953-.19677734-.72412109-.13085938-.20361328-.30957031-.36083984-.53613281-.47119141-.22705078-.11083984-.48242188-.16601562-.76660156-.16650391-.30078125,0-.56298828.06103516-.78710938.18408203s-.39697266.296875-.51708984.52050781-.18017578.48632812-.18017578.78662109l-1.20947266-.00048828c0-.51074219.11767578-.95751953.35302734-1.33984375.23486328-.38232422.55761719-.6796875.96728516-.89160156.41015625-.2109375.87646484-.31689453,1.3984375-.31689453.52734375.00048828.9921875.10498047,1.39550781.31445312.40283203.20898438.71777344.49316406.94482422.85253906.22607422.359375.33984375.76513672.33984375,1.21582031-.00048828.31152344-.05859375.61572266-.17480469.91357422s-.31787109.62939453-.60546875.99414062c-.28662109.36474609-.68554688.80664062-1.19726562,1.32568359l-1.66894531,1.74560547v.06152344l3.77978516.00146484-.00048828,1.08642578-5.52587891-.00244141Z"/>
      <path class="cls-15" d="M163.69740744,108.3311266c-.73779297,0-1.37207031-.15869141-1.90332031-.47558594s-.94042969-.76416016-1.22802734-1.34082031-.43066406-1.25341797-.43017578-2.03027344c0-.76708984.14404297-1.44287109.43164062-2.02783203.28808594-.58496094.69091797-1.04101562,1.20947266-1.36914062.51806641-.328125,1.12548828-.49169922,1.82128906-.49169922.42236328.00048828.83154297.0703125,1.22753906.20996094.39648438.14013672.75244141.359375,1.06738281.65869141.31542969.29882812.56347656.68701172.74560547,1.16308594.18164062.47607422.27246094,1.05371094.27246094,1.73242188l-.00048828.51708984-5.95166016-.00244141.00048828-1.09179688,4.5234375.00195312c0-.38378906-.07763672-.72412109-.23339844-1.02148438-.15625-.29785156-.37451172-.53271484-.65576172-.70458984-.28076172-.17236328-.60986328-.25878906-.98681641-.25927734-.40917969,0-.76611328.10009766-1.0703125.29980469-.30371094.19970703-.53759766.45947266-.70166016.77978516-.1640625.31982422-.24658203.66699219-.24658203,1.04052734l-.00048828.85302734c0,.50048828.08837891.92626953.26513672,1.27734375.17675781.35058594.42480469.61816406.74316406.80224609.31835938.18359375.69042969.27539062,1.11621094.27539062.27636719.00048828.52832031-.03955078.75537109-.11914062.22753906-.07958984.42431641-.19873047.58984375-.35839844.16601562-.15869141.29248047-.35498047.38037109-.58935547l1.37939453.24951172c-.11035156.40625-.30761719.76123047-.59277344,1.06445312-.28417969.30371094-.64013672.53955078-1.06738281.70654297s-.9140625.25048828-1.45996094.25Z"/>
      <path class="cls-15" d="M173.5865676,110.99177113l.00146484-3.97265625h-.08789062c-.08789062.15917969-.21435547.34130859-.37841797.54589844s-.38916016.38330078-.67480469.53564453c-.28613281.15283203-.65673828.22900391-1.11132812.22851562-.60449219,0-1.14306641-.15527344-1.61621094-.46582031-.47265625-.31005859-.84277344-.75439453-1.11083984-1.33105469s-.40136719-1.27001953-.40087891-2.07910156c0-.80908203.13623047-1.50146484.40722656-2.07666016.27197266-.57519531.64501953-1.01464844,1.11914062-1.3203125.47460938-.30517578,1.01269531-.45751953,1.61425781-.45751953.46435547.00048828.83886719.07763672,1.12304688.23193359s.50488281.33447266.66259766.5390625.28027344.38525391.36816406.54101562h.12207031l.00048828-1.21386719,1.42333984.00048828-.00390625,10.29492188-1.45751953-.00048828ZM171.65785666,107.08698598c.41894531,0,.77392578-.11132812,1.06494141-.33398438.29052734-.22216797.51171875-.53173828.66308594-.92822266s.22705078-.85791016.22753906-1.38427734c0-.52001953-.07519531-.97460938-.22412109-1.36474609-.14941406-.39013672-.36865234-.69384766-.65771484-.91210938-.2890625-.21777344-.64648438-.32666016-1.07177734-.32666016-.43896484-.00048828-.8046875.11328125-1.09765625.34082031-.29248047.22705078-.51269531.53759766-.66015625.93066406-.1484375.39306641-.22216797.83691406-.22216797,1.33056641-.00048828.50048828.07421875.95068359.22363281,1.35009766.14892578.39990234.37060547.71582031.66455078.94873047.29443359.23242188.65722656.34863281,1.08984375.34912109Z"/>
    </g>
    <g>
      <path class="cls-15" d="M90.24428244,108.94538441c1.06542969.00048828,1.98095703.19580078,2.74560547.58544922.76464844.390625,1.35253906.92431641,1.76318359,1.60205078.41113281.67724609.61572266,1.44628906.61572266,2.30712891-.00048828.86425781-.20605469,1.63476562-.6171875,2.31201172-.41162109.67724609-1,1.21044922-1.76708984,1.60009766s-1.68164062.58398438-2.74365234.58349609c-1.06542969-.00048828-1.98095703-.1953125-2.74560547-.58544922-.76464844-.390625-1.35253906-.92382812-1.76318359-1.6015625-.41113281-.67773438-.61621094-1.44824219-.61572266-2.3125,0-.86083984.20605469-1.62988281.6171875-2.30664062.41162109-.67724609.99951172-1.2109375,1.76464844-1.60058594.76513672-.38916016,1.68066406-.58398438,2.74609375-.58349609ZM90.24379416,110.43659535c-.81201172-.00048828-1.49658203.13037109-2.05371094.39160156s-.97998047.61816406-1.26757812,1.07177734c-.28759766.45263672-.43164062.96484375-.43164062,1.53662109-.00048828.57519531.14306641,1.08837891.43066406,1.54052734.28710938.45117188.70947266.80810547,1.26660156,1.06982422s1.24121094.39257812,2.05322266.39306641,1.49707031-.13037109,2.05419922-.39160156.97949219-.61816406,1.26757812-1.06884766c.28759766-.45166016.43115234-.96484375.43164062-1.54003906,0-.57177734-.14306641-1.08398438-.43066406-1.53710938-.28759766-.45410156-.70947266-.81103516-1.26660156-1.07275391s-1.24169922-.39257812-2.05371094-.39306641Z"/>
      <path class="cls-15" d="M95.2350051,107.07673207l-9.97949219-.00390625.00195312-6.18847656,1.29589844.00048828-.00146484,4.68261719,3.04101562.00146484.00146484-4.23925781,1.29101562.00048828-.00146484,4.23925781,4.3515625.00146484-.00048828,1.50585938Z"/>
      <path class="cls-15" d="M95.23793479,99.03620473l-9.97949219-.00390625.00244141-6.18847656,1.29589844.00048828-.00195312,4.68261719,3.04101562.00146484.00146484-4.23925781,1.29101562.00048828-.00146484,4.23925781,4.3515625.00146484-.00048828,1.50585938Z"/>
      <path class="cls-15" d="M87.88490744,85.5498766c-.46142578.05224609-.81933594.26660156-1.07470703.64306641-.25537109.37695312-.3828125.85107422-.3828125,1.42285156-.00048828.40917969.06347656.76318359.19189453,1.06201172.12792969.29882812.30322266.53125.52587891.69482422.22265625.1640625.47509766.24609375.7578125.24609375.23681641,0,.44189453-.05517578.61376953-.16748047.17236328-.11181641.31591797-.25976562.43115234-.44335938.11621094-.18359375.21191406-.38085938.28808594-.59228516.07666016-.2109375.13916016-.4140625.1875-.60888672l.25390625-.97412109c.078125-.31835938.18408203-.64501953.31738281-.97949219s.30859375-.64453125.52685547-.93066406c.21777344-.28564453.48730469-.51660156.80859375-.69384766.32177734-.17724609.70654297-.265625,1.15527344-.26513672.56494141,0,1.06689453.14599609,1.50537109.43652344.43847656.29101562.78417969.71191406,1.03759766,1.26269531s.37939453,1.21582031.37890625,1.99560547c0,.74707031-.11914062,1.39355469-.35595703,1.93896484-.23730469.54589844-.57470703.97265625-1.01171875,1.28125s-.95605469.47900391-1.55664062.51123047l.00048828-1.51074219c.36035156-.02929688.66015625-.14697266.89892578-.35302734s.41552734-.47070312.53173828-.79394531c.11523438-.32324219.17285156-.67822266.17285156-1.06445312.00048828-.42578125-.06689453-.80517578-.20166016-1.13818359-.13427734-.33300781-.32275391-.59521484-.56494141-.78710938-.24169922-.19189453-.52539062-.28759766-.85009766-.28759766-.29589844,0-.53759766.08300781-.72607422.25048828-.18847656.16699219-.34423828.39306641-.46826172.67724609-.12353516.28417969-.23242188.60498047-.32666016.96240234l-.32226562,1.17871094c-.21777344.79931641-.53808594,1.43164062-.9609375,1.89794922-.421875.46582031-.98095703.69873047-1.67626953.69824219-.57470703,0-1.07666016-.15576172-1.50537109-.46826172-.42919922-.31201172-.76220703-.73388672-1.00097656-1.26757812-.23828125-.53271484-.35791016-1.13330078-.35742188-1.80273438,0-.67578125.11914062-1.27246094.35644531-1.79101562.23730469-.51757812.56347656-.92578125.97753906-1.22460938.4140625-.29931641.88916016-.45458984,1.42529297-.46777344l-.00048828,1.45214844Z"/>
      <path class="cls-15" d="M95.24428244,82.16657582l-9.97949219-.00390625.00195312-6.25683594,1.29589844.00048828-.00146484,4.75097656,3.04101562.00146484.00146484-4.42480469,1.29101562.00048828-.00146484,4.42480469,3.05517578.00097656.00195312-4.80957031,1.29638672.00048828-.00244141,6.31542969Z"/>
      <path class="cls-15" d="M86.56361838,74.38141957l-1.29589844-.00048828.00292969-7.72363281,1.29589844.00048828-.00146484,3.11376953,8.68359375.00341797-.00048828,1.50097656-8.68359375-.00341797-.00097656,3.10888672Z"/>
    </g>
    <polyline class="cls-3" points="174.6597339 65.49814692 182.23941593 65.50098639 182.23657646 73.08066842"/>
    <line class="cls-3" x1="108.3704439" y1="66.66672884" x2="108.3704439" y2="117.37364398"/>
  </g>
  <g id="palec">
    <path class="cls-5" d="M45.05735431,49.10027305s2.19030444,4.52852738,3.89383567,5.97651086,13.5778642,8.5062489,18.86287745,10.1780407c8.76089011,2.77130511,11.24910435,1.00359731,20.3298818,2.50148563,9.24804975,1.52548015,18.30658508,4.0505004,21.30455735,4.42863786,5.94171931.74943543,8.61569196-8.66289664,1.76358618-12.13575991-11.14250003-5.64737036-26.73511761-4.34498402-34.77530273-18.12290045"/>
    <path class="cls-8" d="M104.23227849,68.92597224c1.99420375.54444395,3.38629243.75773689,4.9104678,1.03856414,2.96867395.54697415,6.34100225-5.9505784.48870156-8.05847537-1.17281056-.42242598-3.60461295-.950068-3.60461295-.950068-1.85066888,2.53195895-2.45177558,5.75155761-1.79455641,7.96997923Z"/>
  </g>
  <line class="cls-10" x1="105.34734672" y1="177.18186065" x2="186.48896849" y2="177.18186065"/>
  <path class="cls-7" d="M89.17613359,148.52036775h-9.03487638c0,6.00661211,3.75195126,11.12527967,9.03487638,13.17408591,5.28292512-2.04880624,9.03487638-7.1674738,9.03487638-13.17408591h-9.03487638Z"/>
  <path class="cls-7" d="M89.17613359,174.86853957h9.03487638c0-6.00661211-3.75195126-11.12527967-9.03487638-13.17408591-5.28292512,2.04880624-9.03487638,7.1674738-9.03487638,13.17408591h9.03487638Z"/>
  <rect class="cls-9" x="77.75457902" y="145.66012853" width="22.29353761" height="2.86023922"/>
  <rect class="cls-9" x="77.75457902" y="174.86853957" width="22.29353761" height="2.86023922"/>
  <path class="cls-13" d="M83.67685133,157.3442456l10.80813091.11576122s-1.9915174,2.788535-5.30884866,4.02699712c-2.6987109-.61611294-5.49928225-4.14275834-5.49928225-4.14275834Z"/>
  <path class="cls-13" d="M97.87286466,174.56508924h-17.3940774s3.56618025-4.29466574,8.46161665-6.12228321c3.9825289.90920727,8.93246074,6.12228321,8.93246074,6.12228321Z"/>
</svg>