<?xml version="1.0" encoding="UTF-8"?>
<svg id="Layer_1" data-name="Layer 1" xmlns="http://www.w3.org/2000/svg" xmlns:xlink="http://www.w3.org/1999/xlink" viewBox="0 0 660 200">
  <defs>
    <style>
      .cls-1 {
        stroke-dasharray: 0 0 2.9661355 1.97742367;
      }

      .cls-1, .cls-2, .cls-3, .cls-4, .cls-5, .cls-6, .cls-7, .cls-8, .cls-9, .cls-10, .cls-11 {
        stroke: #004000;
        stroke-miterlimit: 10;
        stroke-width: .75px;
      }

      .cls-1, .cls-2, .cls-3, .cls-6, .cls-7, .cls-9 {
        fill: none;
      }

      .cls-2 {
        stroke-dasharray: 0 0 2.81809664 1.87873113;
      }

      .cls-4 {
        fill: url(#New_Gradient_Swatch_1);
      }

      .cls-5, .cls-8, .cls-12 {
        fill: #fff;
      }

      .cls-5, .cls-9 {
        stroke-linecap: round;
      }

      .cls-6 {
        stroke-dasharray: 0 0 3 2;
      }

      .cls-7 {
        stroke-dasharray: 0 0 3.71487904 2.4765861;
      }

      .cls-13 {
        fill: #94d196;
      }

      .cls-13, .cls-14, .cls-12, .cls-15 {
        stroke-width: 0px;
      }

      .cls-14 {
        fill: #dcf8dc;
      }

      .cls-15 {
        fill: #004000;
      }

      .cls-10 {
        fill: #c9de8f;
      }

      .cls-11 {
        fill: #f2f4f7;
      }
    </style>
    <linearGradient id="New_Gradient_Swatch_1" data-name="New Gradient Swatch 1" x1="137.26716854" y1="162.38540465" x2="266.20547915" y2="162.38540465" gradientTransform="translate(-50.03498071 -84.42009722) rotate(7.18997878)" gradientUnits="userSpaceOnUse">
      <stop offset="0" stop-color="#a4ee6e"/>
      <stop offset=".9989046" stop-color="#00b0a0"/>
    </linearGradient>
  </defs>
  <g>
    <polyline class="cls-12" points="153.19509868 168.73486149 154.08737818 197.08369235 142.4193272 197.08369235 143.14930346 172.34279903"/>
    <g>
      <line class="cls-3" x1="153.19510003" y1="168.7348107" x2="153.2422802" y2="170.23407828"/>
      <line class="cls-2" x1="153.30139275" y1="172.1118859" x2="154.01063653" y2="194.6455773"/>
      <polyline class="cls-3" points="154.0401928 195.58442008 154.08737298 197.08368765 152.58737298 197.08368765"/>
      <line class="cls-7" x1="150.11079522" y1="197.08368765" x2="145.15762444" y2="197.08368765"/>
      <polyline class="cls-3" points="143.91932793 197.08368765 142.41932793 197.08368765 142.46356316 195.58429801"/>
      <line class="cls-1" x1="142.52188226" y1="193.60773551" x2="143.07591363" y2="174.83039176"/>
      <line class="cls-3" x1="143.10505791" y1="173.84211051" x2="143.1493084" y2="172.34284293"/>
    </g>
  </g>
  <path class="cls-14" d="M187.15454617,143.50725091c0-9.86207906-7.99467959-17.85663802-17.85663802-17.85663802-3.22606196,0-6.24410567.86777804-8.85606449,2.36449612-1.60546174-.39323831-3.27419143-.62483879-5.00088155-.62483879-3.9271359,0-7.58901688,1.09841351-10.73214898,2.97558363-3.11382016-5.23151702-8.80853814-8.74774302-15.33864628-8.74774302-9.86195844,0-17.85663802,7.99455896-17.85663802,17.85663802,0,7.12340342,4.18147424,13.25454355,10.21460635,16.1203582-.00753908.21350669-.03220694.42267087-.03220694.63810756,0,9.86183781,7.9947399,17.85663802,17.85663802,17.85663802,4.82808588,0,9.20081145-1.92445521,12.41481088-5.03755162,1.13236952.18889914,2.28753721.31097189,3.47358497.31097189,6.78921117,0,12.80774763-3.23806417,16.64369084-8.23846322,8.53483945-1.34087026,15.06989322-8.70624793,15.06989322-17.61755878Z"/>
  <path class="cls-6" d="M187.41742255,143.65939424c0-9.93062673-8.05024765-17.98075292-17.98075292-17.98075292-3.24848512,0-6.28750614.87380964-8.91761972,2.38093086-1.61662072-.39597156-3.29694913-.62918181-5.03564083-.62918181-3.95443197,0-7.64176533,1.10604818-10.80674418,2.99626581-3.13546318-5.26787937-8.86976303-8.80854535-15.44525954-8.80854535-9.93050526,0-17.98075292,8.05012619-17.98075292,17.98075292,0,7.17291557,4.21053812,13.34667098,10.2856043,16.23240485-.00759148.2149907-.0324308.4256087-.0324308.64254281,0,9.9303838,8.05030839,17.98075292,17.98075292,17.98075292,4.86164412,0,9.26476289-1.93783139,12.50110164-5.07256578,1.1402402.19021211,2.30343704.31313334,3.49772857.31313334,6.83640047,0,12.89676955-3.26057076,16.75937498-8.29572573,8.59416197-1.35019016,15.17463848-8.76676184,15.17463848-17.74001192Z"/>
  <g id="ruka">
    <path class="cls-5" d="M9.87690826,42.82996177s15.58404652,7.39652115,18.77924384,9.2977703c11.11020699,6.61094434,27.82094606,9.29133476,29.34857341,14.28184948,1.52762734,4.99051472,17.03285495,28.29564021,28.27063316,21.32881935,11.23777822-6.96682086,24.92582599-12.94718709,22.09758244-20.0965686-2.82824355-7.14938151-15.81380094-33.69963474-25.43462804-37.42466471-9.6208271-3.72502997-34.56342428-3.2238179-42.93445065-6.51986683-7.75005499-3.05154461-18.19573055-9.69818166-18.19573055-9.69818166-10.00788356,5.62723696-14.14439484,23.98116931-11.9312236,28.83084267Z"/>
    <path class="cls-3" d="M80.31051442,46.31194063c-2.73445114,4.41842471,3.5332241,12.40466979,3.5332241,12.40466979"/>
  </g>
  <g id="offset">
    <rect id="offset-bg" class="cls-4" x="69.22037302" y="66.90164111" width="121.14105683" height="70.07205083"/>
    <path class="cls-14" d="M176.77029534,101.43769156c.05078125-.53137207.08184814-1.06848145.08203125-1.61315918.003479-9.28930664-7.52416992-16.82250977-16.81347656-16.8260498-2.23175049-.00085449-4.35742188.44262695-6.30639648,1.23120117-3.3336792-4.31066895-8.54125977-7.09863281-14.41229248-7.10083008-10.07116699-.00378418-18.23852539,8.15734863-18.24224854,18.2286377-.00018311.42724609.03466797.84570312.06341553,1.26586914-6.68341064,2.63378906-11.42126465,9.13232422-11.4241333,16.75170898-.00372314,9.95324707,8.06188965,18.02490234,18.01513672,18.02868652l43.55554199.01623535c8.55957031.0032959,15.5010376-6.93310547,15.50421143-15.49255371.00250244-6.63061523-4.16705322-12.27404785-10.02178955-14.48974609Z"/>
    <g>
      <path class="cls-15" d="M133.63660354,108.8443102l-2.45898438-.00097656c-.09423828-.52490234-.27001953-.98730469-.52734375-1.38671875-.25732422-.39990234-.57226562-.73876953-.9453125-1.01708984s-.7890625-.48925781-1.24853516-.63085938c-.45996094-.14208984-.94726562-.21337891-1.46191406-.21337891-.9296875-.00048828-1.76123047.23291016-2.49462891.70019531-.73291016.46728516-1.31152344,1.15283203-1.734375,2.05664062-.42333984.90283203-.63525391,2.00634766-.63574219,3.30908203-.00048828,1.31347656.21044922,2.42236328.63330078,3.32617188.42236328.90380859,1.00097656,1.58691406,1.73681641,2.04931641.73535156.46240234,1.56298828.69433594,2.48242188.69482422.50927734,0,.99414062-.06933594,1.45410156-.20849609.45947266-.13916016.87597656-.34472656,1.24902344-.61816406.37304688-.27294922.68994141-.60791016.94970703-1.00439453.26025391-.39648438.44042969-.85205078.54052734-1.3671875l2.45898438.00878906c-.13232422.79345703-.38574219,1.52246094-.76171875,2.18652344-.37548828.66455078-.85693359,1.23730469-1.44238281,1.71728516-.5859375.48095703-1.25488281.85205078-2.00634766,1.11474609-.75146484.26220703-1.57080078.39306641-2.45849609.39306641-1.39794922-.00048828-2.64306641-.33300781-3.73535156-.99853516-1.09277344-.66503906-1.95263672-1.61767578-2.57958984-2.85742188-.62744141-1.24023438-.94091797-2.71923828-.94042969-4.4375.00048828-1.72314453.31689453-3.203125.94775391-4.43994141.63085938-1.23730469,1.49267578-2.18798828,2.5859375-2.85205078,1.09228516-.6640625,2.33544922-.99560547,3.72802734-.99511719.85595703,0,1.65527344.12255859,2.39892578.3671875.74316406.24414062,1.41162109.60205078,2.00488281,1.07226562.59375.47070312,1.08496094,1.04345703,1.47363281,1.71826172.38867188.67578125.65087891,1.44677734.78710938,2.31347656Z"/>
      <path class="cls-15" d="M150.57019729,111.67194691c-.00048828,1.72314453-.31591797,3.20361328-.94677734,4.44042969-.63134766,1.23730469-1.49462891,2.1875-2.58984375,2.8515625-1.09619141.66455078-2.33984375.99609375-3.73193359.99560547-1.39746094-.00048828-2.64404297-.33300781-3.73876953-.99853516-1.09570312-.66455078-1.95800781-1.6171875-2.58789062-2.85742188-.62988281-1.23974609-.94482422-2.71875-.94433594-4.43701172.00048828-1.72314453.31689453-3.203125.94775391-4.44042969.63085938-1.23681641,1.49365234-2.1875,2.58984375-2.85205078,1.09521484-.6640625,2.34228516-.99560547,3.73974609-.99511719,1.39208984.00048828,2.63525391.33300781,3.73095703.99804688,1.09472656.66503906,1.95751953,1.61669922,2.58789062,2.85400391.62988281,1.23779297.94384766,2.71777344.94335938,4.44091797ZM148.15906448,111.67097035c.00048828-1.31298828-.2109375-2.42041016-.63330078-3.32226562-.42285156-.90087891-1-1.58398438-1.73291016-2.04931641-.73242188-.46484375-1.56152344-.69775391-2.48583984-.69824219-.93017578,0-1.76025391.23193359-2.49072266.69628906-.73046875.46484375-1.30761719,1.14746094-1.73046875,2.04833984-.42333984.90136719-.63525391,2.00878906-.63574219,3.32177734-.00048828,1.31347656.21044922,2.42089844.63330078,3.32177734.42236328.90087891.99853516,1.58447266,1.72900391,2.04931641.72998047.46533203,1.56005859.69873047,2.49023438.69873047.92431641.00048828,1.75341797-.23193359,2.48632812-.69677734.73291016-.46435547,1.31103516-1.14746094,1.734375-2.04833984.42285156-.90039062.63525391-2.0078125.63574219-3.32128906Z"/>
      <path class="cls-15" d="M152.72400589,123.74177113l.00048828-1.02929688,3.18457031-3.29736328c.34033203-.35791016.62158203-.67285156.84375-.94335938.22216797-.27099609.38818359-.52929688.49902344-.77441406.11035156-.24462891.16503906-.50537109.16503906-.78076172,0-.3125-.07275391-.58300781-.21972656-.81103516s-.34765625-.40429688-.60205078-.52880859c-.25439453-.12402344-.54052734-.18603516-.85888672-.18603516-.33691406,0-.63134766.06835938-.88232422.20605469-.25097656.13818359-.44384766.33251953-.57861328.58349609-.13525391.25146484-.20263672.54541016-.20263672.88232422l-1.35546875-.00097656c0-.57275391.13183594-1.07324219.39550781-1.50195312s.62548828-.76171875,1.08496094-.99853516c.45947266-.23730469.98144531-.35644531,1.56640625-.35595703.59130859,0,1.11279297.11767578,1.56445312.35205078s.8046875.55322266,1.05859375.95605469.38134766.85693359.38085938,1.36230469c0,.34912109-.06542969.69091797-.19580078,1.02441406-.13037109.33398438-.35595703.70556641-.67773438,1.11376953-.32226562.40917969-.76953125.90429688-1.34228516,1.48583984l-1.87060547,1.95654297v.06933594l4.23583984.00146484-.00048828,1.21728516-6.19287109-.00244141Z"/>
      <path class="cls-15" d="M164.46961136,119.91608754c-.82714844,0-1.53808594-.17822266-2.13330078-.53320312-.59521484-.35546875-1.05419922-.85644531-1.37646484-1.50292969-.32177734-.64648438-.48291016-1.40527344-.48242188-2.27587891.00048828-.859375.16162109-1.61669922.484375-2.27197266.32226562-.65576172.77441406-1.16748047,1.35546875-1.53515625s1.26123047-.55126953,2.04052734-.55126953c.47314453.00048828.93212891.07910156,1.37646484.23583984s.84326172.40283203,1.19677734.73779297c.35253906.33544922.63134766.77001953.83544922,1.30371094.203125.53320312.30517578,1.18066406.3046875,1.94189453v.57910156l-6.67041016-.00244141.00048828-1.22363281,5.06982422.00195312c0-.4296875-.08740234-.81152344-.26171875-1.14453125-.17480469-.33349609-.41992188-.59716797-.73486328-.79003906s-.68408203-.28955078-1.10644531-.29003906c-.45898438,0-.85839844.11181641-1.19921875.33544922-.34033203.22412109-.60253906.515625-.78662109.87402344-.18457031.35888672-.27636719.74755859-.27636719,1.16650391l-.00048828.95605469c-.00048828.56103516.09863281,1.03808594.29736328,1.43164062.19824219.39306641.47558594.69287109.83251953.89892578s.77392578.30859375,1.25097656.30859375c.30957031.00048828.59179688-.04394531.84716797-.13330078.25488281-.08935547.47509766-.22265625.66064453-.40087891.18603516-.17871094.32861328-.39892578.42675781-.66113281l1.54638672.27929688c-.12451172.45507812-.34570312.85302734-.66455078,1.19335938-.31933594.34033203-.71777344.60449219-1.19677734.79199219-.47900391.18701172-1.02441406.28076172-1.63623047.28027344Z"/>
      <path class="cls-15" d="M175.55359573,122.89802113l.00146484-4.45263672h-.09863281c-.09814453.17822266-.23925781.38232422-.42333984.61181641-.18457031.22900391-.43652344.42919922-.75732422.60058594-.3203125.17089844-.73535156.25634766-1.24560547.25634766-.67724609,0-1.28076172-.17431641-1.81103516-.52246094-.52929688-.34814453-.94433594-.84521484-1.24511719-1.49169922-.29980469-.64697266-.45019531-1.42382812-.44970703-2.33056641.00048828-.90722656.15283203-1.68261719.45751953-2.32714844.30371094-.64453125.72216797-1.13818359,1.25390625-1.47998047.53173828-.34228516,1.13476562-.51318359,1.80859375-.51318359.52050781,0,.94042969.08740234,1.25927734.26025391.31835938.17285156.56640625.37402344.74267578.60400391.17675781.22949219.31396484.43164062.41210938.60644531h.13671875l.00048828-1.36035156,1.59521484.00048828-.00390625,11.53857422-1.63330078-.00048828ZM173.39148636,118.52106801c.46972656.00048828.86767578-.12451172,1.19384766-.37402344.32568359-.24951172.57373047-.59570312.74316406-1.04003906s.25488281-.96191406.25488281-1.55175781c.00048828-.58251953-.08349609-1.09277344-.25097656-1.52978516-.16699219-.43701172-.41308594-.77783203-.73730469-1.02197266s-.72460938-.36621094-1.20166016-.36669922c-.49169922,0-.90136719.12792969-1.22949219.38232422-.32763672.25488281-.57421875.60253906-.74072266,1.04345703-.16552734.44042969-.24853516.9375-.24902344,1.49121094,0,.56103516.08349609,1.06542969.25097656,1.51318359.16748047.44824219.41552734.80224609.74511719,1.06298828s.73681641.39111328,1.22119141.39111328Z"/>
    </g>
    <g>
      <path class="cls-15" d="M82.14490433,120.60505238c1.19384766.00048828,2.21972656.21972656,3.07714844.65673828.85693359.43701172,1.51611328,1.03564453,1.97607422,1.79492188.4609375.75927734.69042969,1.62158203.68994141,2.58642578,0,.96826172-.23046875,1.83203125-.69189453,2.59082031-.46044922.75927734-1.12060547,1.35693359-1.97998047,1.79345703s-1.88427734.65478516-3.07470703.65429688c-1.19433594-.00048828-2.22021484-.21923828-3.07763672-.65673828-.85742188-.43701172-1.51611328-1.03515625-1.9765625-1.79492188-.45996094-.75927734-.68994141-1.62304688-.68994141-2.59130859.00048828-.96484375.23144531-1.82714844.69189453-2.5859375.4609375-.75878906,1.12011719-1.35693359,1.97802734-1.79345703.85742188-.43603516,1.88330078-.65478516,3.07763672-.65429688ZM82.14441604,122.2764391c-.91064453,0-1.67773438.14599609-2.30224609.43896484-.625.29248047-1.09814453.69335938-1.42041016,1.20117188-.32275391.50732422-.48388672,1.08154297-.484375,1.72265625,0,.64453125.16064453,1.21972656.48291016,1.72607422s.79492188.90576172,1.41943359,1.19921875,1.39160156.44042969,2.30224609.44042969c.91015625.00048828,1.67724609-.14550781,2.30175781-.43896484.62451172-.29248047,1.09814453-.69189453,1.42041016-1.19824219.32226562-.50585938.48388672-1.08056641.48388672-1.72509766.00048828-.64111328-.16064453-1.21582031-.48242188-1.72363281-.32226562-.5078125-.79541016-.90869141-1.41943359-1.20214844-.62451172-.29296875-1.39160156-.43994141-2.30175781-.44042969Z"/>
      <path class="cls-15" d="M87.73816604,118.51032582l-11.18505859-.00439453.00244141-6.93603516,1.45263672.00048828-.00195312,5.24853516,3.40820312.00146484.00195312-4.75146484,1.44726562.00048828-.00195312,4.75146484,4.87695312.00195312-.00048828,1.6875Z"/>
      <path class="cls-15" d="M87.74158401,109.49909535l-11.18505859-.00439453.00244141-6.93603516,1.45263672.00048828-.00195312,5.24853516,3.40820312.00146484.00195312-4.75146484,1.44726562.00048828-.00195312,4.75146484,4.87695312.00195312-.00048828,1.6875Z"/>
      <path class="cls-15" d="M79.50037308,94.38386098c-.51708984.05810547-.91845703.29833984-1.20458984.72021484-.28564453.42236328-.42919922.95410156-.42919922,1.59472656-.00048828.45898438.07177734.85595703.21533203,1.19042969.14355469.33544922.33984375.59472656.58935547.77880859s.53271484.27587891.84912109.27587891c.26611328.00048828.49511719-.06201172.68847656-.18798828.19287109-.12548828.35400391-.29101562.48339844-.49707031.12939453-.20556641.23681641-.42675781.32226562-.66357422.0859375-.23583984.15576172-.46337891.21044922-.68212891l.28466797-1.09228516c.08789062-.35644531.20605469-.72265625.35546875-1.09765625s.34619141-.72265625.59033203-1.04248047c.24365234-.3203125.54589844-.58007812.90673828-.77832031.36083984-.19775391.79199219-.29736328,1.29443359-.29736328.63378906.00048828,1.19628906.16357422,1.68701172.48974609.49169922.32617188.87939453.79736328,1.16308594,1.41455078.28369141.61767578.42529297,1.36328125.42529297,2.23730469-.00048828.83740234-.13378906,1.56201172-.39941406,2.17285156-.26611328.61181641-.64404297,1.09082031-1.13378906,1.43652344-.48974609.34521484-1.07177734.53662109-1.74560547.57226562l.00097656-1.69287109c.40429688-.03222656.74023438-.1640625,1.0078125-.39550781.26757812-.23095703.46582031-.52783203.59570312-.88964844.12939453-.36230469.19384766-.76025391.19433594-1.19335938,0-.47705078-.07568359-.90185547-.22607422-1.27587891-.15087891-.37304688-.36230469-.66699219-.63378906-.88183594-.27099609-.21484375-.58886719-.32226562-.95263672-.32275391-.33154297,0-.60253906.09375-.81396484.28125-.2109375.18701172-.38574219.43994141-.52441406.75878906-.13867188.31835938-.26074219.67822266-.36621094,1.07861328l-.36083984,1.32177734c-.24462891.89501953-.60302734,1.60400391-1.07714844,2.12646484-.47314453.52197266-1.09960938.78320312-1.87841797.78271484-.64453125,0-1.20703125-.17529297-1.68798828-.52490234-.48046875-.34912109-.85400391-.82324219-1.12158203-1.42041016-.26708984-.59716797-.40087891-1.27050781-.40039062-2.02050781,0-.75732422.13330078-1.42626953.39892578-2.00732422.26660156-.58056641.63134766-1.03808594,1.09570312-1.37304688.46484375-.33496094.99707031-.50927734,1.59814453-.5234375l-.00097656,1.62744141Z"/>
      <path class="cls-15" d="M87.74841995,90.59138051l-11.18505859-.00439453.00292969-7.01220703,1.45263672.00048828-.00195312,5.32470703,3.40820312.00146484.00146484-4.95898438,1.44726562.00048828-.00146484,4.95898438,3.42431641.00146484.00195312-5.39013672,1.45263672.00048828-.00292969,7.07763672Z"/>
      <path class="cls-15" d="M78.01941604,81.86579457l-1.45263672-.00048828.00341797-8.65625,1.45263672.00048828-.00146484,3.48974609,9.73242188.00390625-.00048828,1.68212891-9.73242188-.00390625-.00146484,3.484375Z"/>
    </g>
    <polyline class="cls-3" points="176.75716508 71.90934577 185.25242113 71.91252823 185.24923868 80.40778428"/>
    <line class="cls-3" x1="102.46057979" y1="73.21908443" x2="102.46057979" y2="130.05104998"/>
  </g>
  <g id="palec">
    <path class="cls-5" d="M31.49969968,53.53072029s2.45487831,5.07554268,4.36418453,6.69843271,15.21797782,9.5337459,21.14138473,11.40747878c9.81914604,3.10605992,12.60791963,1.12482503,22.78559322,2.80364807,10.36515124,1.70974777,20.51789602,4.53977329,23.87800295,4.96358718,6.65943859.83996214,9.65640894-9.70931562,1.97661539-13.60167715-12.48843824-6.32953429-29.96453794-4.86982853-38.97592273-20.31202354"/>
    <path class="cls-9" d="M97.82255215,75.75122907c2.23508999.61020907,3.79533352.84926635,5.50361891,1.16401562,3.32726957.6130449,7.10695219-6.66936779.54773338-9.03188437-1.3144781-.47345216-4.04002567-1.06482975-4.04002567-1.06482975-2.07421709,2.83780236-2.74793339,6.44630664-2.01132662,8.93269851Z"/>
  </g>
  <line class="cls-11" x1="99.07231304" y1="197.08369235" x2="190.01529074" y2="197.08369235"/>
  <path class="cls-8" d="M80.94772737,164.96008609h-10.12622799c0,6.73216999,4.20516145,12.46913777,10.12622799,14.76542587,5.92106654-2.2962881,10.12622799-8.03325588,10.12622799-14.76542587h-10.12622799Z"/>
  <path class="cls-8" d="M80.94772737,194.49093783h10.12622799c0-6.73216999-4.20516145-12.46913777-10.12622799-14.76542587-5.92106654,2.2962881-10.12622799,8.03325588-10.12622799,14.76542587h10.12622799Z"/>
  <rect class="cls-10" x="68.14652672" y="161.75434943" width="24.98644529" height="3.20573666"/>
  <rect class="cls-10" x="68.14652672" y="194.49093783" width="24.98644529" height="3.20573666"/>
  <path class="cls-13" d="M74.78416923,174.84982835l12.1136796.12974438s-2.23207916,3.12537106-5.95012146,4.51343098c-3.02469682-.69053519-6.16355814-4.64317536-6.16355814-4.64317536Z"/>
  <path class="cls-13" d="M90.69496439,194.15083276h-19.49516362s3.99695057-4.81343215,9.48372238-6.86181338c4.4635913,1.01903332,10.01144123,6.86181338,10.01144123,6.86181338Z"/>
</svg>