<?xml version="1.0" encoding="utf-8" standalone="no"?>
<!DOCTYPE svg PUBLIC "-//W3C//DTD SVG 1.1//EN"
  "http://www.w3.org/Graphics/SVG/1.1/DTD/svg11.dtd">
<svg height="432pt" version="1.1" viewBox="0 0 648 432" width="648pt" xmlns="http://www.w3.org/2000/svg" xmlns:xlink="http://www.w3.org/1999/xlink">
 <metadata>
  <rdf:RDF xmlns:cc="http://creativecommons.org/ns#" xmlns:dc="http://purl.org/dc/elements/1.1/" xmlns:rdf="http://www.w3.org/1999/02/22-rdf-syntax-ns#">
   <cc:Work>
    <dc:type rdf:resource="http://purl.org/dc/dcmitype/StillImage"/>
    <dc:date>2021-11-05T13:28:26.645287</dc:date>
    <dc:format>image/svg+xml</dc:format>
    <dc:creator>
     <cc:Agent>
      <dc:title>Matplotlib v3.4.2, https://matplotlib.org/</dc:title>
     </cc:Agent>
    </dc:creator>
   </cc:Work>
  </rdf:RDF>
 </metadata>
 <defs>
  <style type="text/css">*{stroke-linecap:butt;stroke-linejoin:round;}</style>
 </defs>
 <g id="figure_1">
  <g id="patch_1">
   <path d="M 0 432 
L 648 432 
L 648 0 
L 0 0 
z
" style="fill:#ffffff;"/>
  </g>
  <g id="axes_1">
   <g id="patch_2">
    <path d="M 129.6 388.8 
L 622.08 388.8 
L 622.08 25.92 
L 129.6 25.92 
z
" style="fill:#ffffff;"/>
   </g>
   <g id="patch_3">
    <path clip-path="url(#pdcd190063e)" d="M 129.6 30.456 
L 203.704847 30.456 
L 203.704847 48.6 
L 129.6 48.6 
z
" style="fill:#3274a1;"/>
   </g>
   <g id="patch_4">
    <path clip-path="url(#pdcd190063e)" d="M 129.6 75.816 
L 354.683257 75.816 
L 354.683257 93.96 
L 129.6 93.96 
z
" style="fill:#3274a1;"/>
   </g>
   <g id="patch_5">
    <path clip-path="url(#pdcd190063e)" d="M 129.6 121.176 
L 294.069082 121.176 
L 294.069082 139.32 
L 129.6 139.32 
z
" style="fill:#3274a1;"/>
   </g>
   <g id="patch_6">
    <path clip-path="url(#pdcd190063e)" d="M 129.6 166.536 
L 193.668293 166.536 
L 193.668293 184.68 
L 129.6 184.68 
z
" style="fill:#3274a1;"/>
   </g>
   <g id="patch_7">
    <path clip-path="url(#pdcd190063e)" d="M 129.6 211.896 
L 256.673559 211.896 
L 256.673559 230.04 
L 129.6 230.04 
z
" style="fill:#3274a1;"/>
   </g>
   <g id="patch_8">
    <path clip-path="url(#pdcd190063e)" d="M 129.6 257.256 
L 166.659998 257.256 
L 166.659998 275.4 
L 129.6 275.4 
z
" style="fill:#3274a1;"/>
   </g>
   <g id="patch_9">
    <path clip-path="url(#pdcd190063e)" d="M 129.6 302.616 
L 158.767835 302.616 
L 158.767835 320.76 
L 129.6 320.76 
z
" style="fill:#3274a1;"/>
   </g>
   <g id="patch_10">
    <path clip-path="url(#pdcd190063e)" d="M 129.6 347.976 
L 281.801066 347.976 
L 281.801066 366.12 
L 129.6 366.12 
z
" style="fill:#3274a1;"/>
   </g>
   <g id="patch_11">
    <path clip-path="url(#pdcd190063e)" d="M 129.6 48.6 
L 598.628571 48.6 
L 598.628571 66.744 
L 129.6 66.744 
z
" style="fill:#e1812c;"/>
   </g>
   <g id="patch_12">
    <path clip-path="url(#pdcd190063e)" d="M 129.6 93.96 
L 244.215859 93.96 
L 244.215859 112.104 
L 129.6 112.104 
z
" style="fill:#e1812c;"/>
   </g>
   <g id="patch_13">
    <path clip-path="url(#pdcd190063e)" d="M 129.6 139.32 
L 220.060121 139.32 
L 220.060121 157.464 
L 129.6 157.464 
z
" style="fill:#e1812c;"/>
   </g>
   <g id="patch_14">
    <path clip-path="url(#pdcd190063e)" d="M 129.6 184.68 
L 194.619024 184.68 
L 194.619024 202.824 
L 129.6 202.824 
z
" style="fill:#e1812c;"/>
   </g>
   <g id="patch_15">
    <path clip-path="url(#pdcd190063e)" d="M 129.6 230.04 
L 193.077979 230.04 
L 193.077979 248.184 
L 129.6 248.184 
z
" style="fill:#e1812c;"/>
   </g>
   <g id="patch_16">
    <path clip-path="url(#pdcd190063e)" d="M 129.6 275.4 
L 177.183945 275.4 
L 177.183945 293.544 
L 129.6 293.544 
z
" style="fill:#e1812c;"/>
   </g>
   <g id="patch_17">
    <path clip-path="url(#pdcd190063e)" d="M 129.6 320.76 
L 161.919323 320.76 
L 161.919323 338.904 
L 129.6 338.904 
z
" style="fill:#e1812c;"/>
   </g>
   <g id="patch_18">
    <path clip-path="url(#pdcd190063e)" d="M 129.6 366.12 
L 363.384207 366.12 
L 363.384207 384.264 
L 129.6 384.264 
z
" style="fill:#e1812c;"/>
   </g>
   <g id="matplotlib.axis_1">
    <g id="xtick_1">
     <g id="line2d_1">
      <path clip-path="url(#pdcd190063e)" d="M 129.6 388.8 
L 129.6 25.92 
" style="fill:none;stroke:#000000;stroke-linecap:square;stroke-opacity:0.16;stroke-width:0.4;"/>
     </g>
     <g id="line2d_2">
      <defs>
       <path d="M 0 0 
L 0 4 
" id="m16f340b212" style="stroke:#666666;stroke-width:0.6;"/>
      </defs>
      <g>
       <use style="fill:#666666;stroke:#666666;stroke-width:0.6;" x="129.6" xlink:href="#m16f340b212" y="388.8"/>
      </g>
     </g>
     <g id="text_1">
      <!-- 0 -->
      <g style="fill:#666666;" transform="translate(126.736875 403.138594)scale(0.09 -0.09)">
       <defs>
        <path d="M 2034 4250 
Q 1547 4250 1301 3770 
Q 1056 3291 1056 2328 
Q 1056 1369 1301 889 
Q 1547 409 2034 409 
Q 2525 409 2770 889 
Q 3016 1369 3016 2328 
Q 3016 3291 2770 3770 
Q 2525 4250 2034 4250 
z
M 2034 4750 
Q 2819 4750 3233 4129 
Q 3647 3509 3647 2328 
Q 3647 1150 3233 529 
Q 2819 -91 2034 -91 
Q 1250 -91 836 529 
Q 422 1150 422 2328 
Q 422 3509 836 4129 
Q 1250 4750 2034 4750 
z
" id="DejaVuSans-30" transform="scale(0.015625)"/>
       </defs>
       <use xlink:href="#DejaVuSans-30"/>
      </g>
     </g>
    </g>
    <g id="xtick_2">
     <g id="line2d_3">
      <path clip-path="url(#pdcd190063e)" d="M 209.334931 388.8 
L 209.334931 25.92 
" style="fill:none;stroke:#000000;stroke-linecap:square;stroke-opacity:0.16;stroke-width:0.4;"/>
     </g>
     <g id="line2d_4">
      <g>
       <use style="fill:#666666;stroke:#666666;stroke-width:0.6;" x="209.334931" xlink:href="#m16f340b212" y="388.8"/>
      </g>
     </g>
     <g id="text_2">
      <!-- 5 -->
      <g style="fill:#666666;" transform="translate(206.471806 403.138594)scale(0.09 -0.09)">
       <defs>
        <path d="M 691 4666 
L 3169 4666 
L 3169 4134 
L 1269 4134 
L 1269 2991 
Q 1406 3038 1543 3061 
Q 1681 3084 1819 3084 
Q 2600 3084 3056 2656 
Q 3513 2228 3513 1497 
Q 3513 744 3044 326 
Q 2575 -91 1722 -91 
Q 1428 -91 1123 -41 
Q 819 9 494 109 
L 494 744 
Q 775 591 1075 516 
Q 1375 441 1709 441 
Q 2250 441 2565 725 
Q 2881 1009 2881 1497 
Q 2881 1984 2565 2268 
Q 2250 2553 1709 2553 
Q 1456 2553 1204 2497 
Q 953 2441 691 2322 
L 691 4666 
z
" id="DejaVuSans-35" transform="scale(0.015625)"/>
       </defs>
       <use xlink:href="#DejaVuSans-35"/>
      </g>
     </g>
    </g>
    <g id="xtick_3">
     <g id="line2d_5">
      <path clip-path="url(#pdcd190063e)" d="M 289.069861 388.8 
L 289.069861 25.92 
" style="fill:none;stroke:#000000;stroke-linecap:square;stroke-opacity:0.16;stroke-width:0.4;"/>
     </g>
     <g id="line2d_6">
      <g>
       <use style="fill:#666666;stroke:#666666;stroke-width:0.6;" x="289.069861" xlink:href="#m16f340b212" y="388.8"/>
      </g>
     </g>
     <g id="text_3">
      <!-- 10 -->
      <g style="fill:#666666;" transform="translate(283.343611 403.138594)scale(0.09 -0.09)">
       <defs>
        <path d="M 794 531 
L 1825 531 
L 1825 4091 
L 703 3866 
L 703 4441 
L 1819 4666 
L 2450 4666 
L 2450 531 
L 3481 531 
L 3481 0 
L 794 0 
L 794 531 
z
" id="DejaVuSans-31" transform="scale(0.015625)"/>
       </defs>
       <use xlink:href="#DejaVuSans-31"/>
       <use x="63.623047" xlink:href="#DejaVuSans-30"/>
      </g>
     </g>
    </g>
    <g id="xtick_4">
     <g id="line2d_7">
      <path clip-path="url(#pdcd190063e)" d="M 368.804792 388.8 
L 368.804792 25.92 
" style="fill:none;stroke:#000000;stroke-linecap:square;stroke-opacity:0.16;stroke-width:0.4;"/>
     </g>
     <g id="line2d_8">
      <g>
       <use style="fill:#666666;stroke:#666666;stroke-width:0.6;" x="368.804792" xlink:href="#m16f340b212" y="388.8"/>
      </g>
     </g>
     <g id="text_4">
      <!-- 15 -->
      <g style="fill:#666666;" transform="translate(363.078542 403.138594)scale(0.09 -0.09)">
       <use xlink:href="#DejaVuSans-31"/>
       <use x="63.623047" xlink:href="#DejaVuSans-35"/>
      </g>
     </g>
    </g>
    <g id="xtick_5">
     <g id="line2d_9">
      <path clip-path="url(#pdcd190063e)" d="M 448.539723 388.8 
L 448.539723 25.92 
" style="fill:none;stroke:#000000;stroke-linecap:square;stroke-opacity:0.16;stroke-width:0.4;"/>
     </g>
     <g id="line2d_10">
      <g>
       <use style="fill:#666666;stroke:#666666;stroke-width:0.6;" x="448.539723" xlink:href="#m16f340b212" y="388.8"/>
      </g>
     </g>
     <g id="text_5">
      <!-- 20 -->
      <g style="fill:#666666;" transform="translate(442.813473 403.138594)scale(0.09 -0.09)">
       <defs>
        <path d="M 1228 531 
L 3431 531 
L 3431 0 
L 469 0 
L 469 531 
Q 828 903 1448 1529 
Q 2069 2156 2228 2338 
Q 2531 2678 2651 2914 
Q 2772 3150 2772 3378 
Q 2772 3750 2511 3984 
Q 2250 4219 1831 4219 
Q 1534 4219 1204 4116 
Q 875 4013 500 3803 
L 500 4441 
Q 881 4594 1212 4672 
Q 1544 4750 1819 4750 
Q 2544 4750 2975 4387 
Q 3406 4025 3406 3419 
Q 3406 3131 3298 2873 
Q 3191 2616 2906 2266 
Q 2828 2175 2409 1742 
Q 1991 1309 1228 531 
z
" id="DejaVuSans-32" transform="scale(0.015625)"/>
       </defs>
       <use xlink:href="#DejaVuSans-32"/>
       <use x="63.623047" xlink:href="#DejaVuSans-30"/>
      </g>
     </g>
    </g>
    <g id="xtick_6">
     <g id="line2d_11">
      <path clip-path="url(#pdcd190063e)" d="M 528.274653 388.8 
L 528.274653 25.92 
" style="fill:none;stroke:#000000;stroke-linecap:square;stroke-opacity:0.16;stroke-width:0.4;"/>
     </g>
     <g id="line2d_12">
      <g>
       <use style="fill:#666666;stroke:#666666;stroke-width:0.6;" x="528.274653" xlink:href="#m16f340b212" y="388.8"/>
      </g>
     </g>
     <g id="text_6">
      <!-- 25 -->
      <g style="fill:#666666;" transform="translate(522.548403 403.138594)scale(0.09 -0.09)">
       <use xlink:href="#DejaVuSans-32"/>
       <use x="63.623047" xlink:href="#DejaVuSans-35"/>
      </g>
     </g>
    </g>
    <g id="xtick_7">
     <g id="line2d_13">
      <path clip-path="url(#pdcd190063e)" d="M 608.009584 388.8 
L 608.009584 25.92 
" style="fill:none;stroke:#000000;stroke-linecap:square;stroke-opacity:0.16;stroke-width:0.4;"/>
     </g>
     <g id="line2d_14">
      <g>
       <use style="fill:#666666;stroke:#666666;stroke-width:0.6;" x="608.009584" xlink:href="#m16f340b212" y="388.8"/>
      </g>
     </g>
     <g id="text_7">
      <!-- 30 -->
      <g style="fill:#666666;" transform="translate(602.283334 403.138594)scale(0.09 -0.09)">
       <defs>
        <path d="M 2597 2516 
Q 3050 2419 3304 2112 
Q 3559 1806 3559 1356 
Q 3559 666 3084 287 
Q 2609 -91 1734 -91 
Q 1441 -91 1130 -33 
Q 819 25 488 141 
L 488 750 
Q 750 597 1062 519 
Q 1375 441 1716 441 
Q 2309 441 2620 675 
Q 2931 909 2931 1356 
Q 2931 1769 2642 2001 
Q 2353 2234 1838 2234 
L 1294 2234 
L 1294 2753 
L 1863 2753 
Q 2328 2753 2575 2939 
Q 2822 3125 2822 3475 
Q 2822 3834 2567 4026 
Q 2313 4219 1838 4219 
Q 1578 4219 1281 4162 
Q 984 4106 628 3988 
L 628 4550 
Q 988 4650 1302 4700 
Q 1616 4750 1894 4750 
Q 2613 4750 3031 4423 
Q 3450 4097 3450 3541 
Q 3450 3153 3228 2886 
Q 3006 2619 2597 2516 
z
" id="DejaVuSans-33" transform="scale(0.015625)"/>
       </defs>
       <use xlink:href="#DejaVuSans-33"/>
       <use x="63.623047" xlink:href="#DejaVuSans-30"/>
      </g>
     </g>
    </g>
    <g id="text_8">
     <!-- Miliardy dolarů -->
     <g transform="translate(346.1225 415.794062)scale(0.08 -0.08)">
      <defs>
       <path d="M 628 4666 
L 1569 4666 
L 2759 1491 
L 3956 4666 
L 4897 4666 
L 4897 0 
L 4281 0 
L 4281 4097 
L 3078 897 
L 2444 897 
L 1241 4097 
L 1241 0 
L 628 0 
L 628 4666 
z
" id="DejaVuSans-4d" transform="scale(0.015625)"/>
       <path d="M 603 3500 
L 1178 3500 
L 1178 0 
L 603 0 
L 603 3500 
z
M 603 4863 
L 1178 4863 
L 1178 4134 
L 603 4134 
L 603 4863 
z
" id="DejaVuSans-69" transform="scale(0.015625)"/>
       <path d="M 603 4863 
L 1178 4863 
L 1178 0 
L 603 0 
L 603 4863 
z
" id="DejaVuSans-6c" transform="scale(0.015625)"/>
       <path d="M 2194 1759 
Q 1497 1759 1228 1600 
Q 959 1441 959 1056 
Q 959 750 1161 570 
Q 1363 391 1709 391 
Q 2188 391 2477 730 
Q 2766 1069 2766 1631 
L 2766 1759 
L 2194 1759 
z
M 3341 1997 
L 3341 0 
L 2766 0 
L 2766 531 
Q 2569 213 2275 61 
Q 1981 -91 1556 -91 
Q 1019 -91 701 211 
Q 384 513 384 1019 
Q 384 1609 779 1909 
Q 1175 2209 1959 2209 
L 2766 2209 
L 2766 2266 
Q 2766 2663 2505 2880 
Q 2244 3097 1772 3097 
Q 1472 3097 1187 3025 
Q 903 2953 641 2809 
L 641 3341 
Q 956 3463 1253 3523 
Q 1550 3584 1831 3584 
Q 2591 3584 2966 3190 
Q 3341 2797 3341 1997 
z
" id="DejaVuSans-61" transform="scale(0.015625)"/>
       <path d="M 2631 2963 
Q 2534 3019 2420 3045 
Q 2306 3072 2169 3072 
Q 1681 3072 1420 2755 
Q 1159 2438 1159 1844 
L 1159 0 
L 581 0 
L 581 3500 
L 1159 3500 
L 1159 2956 
Q 1341 3275 1631 3429 
Q 1922 3584 2338 3584 
Q 2397 3584 2469 3576 
Q 2541 3569 2628 3553 
L 2631 2963 
z
" id="DejaVuSans-72" transform="scale(0.015625)"/>
       <path d="M 2906 2969 
L 2906 4863 
L 3481 4863 
L 3481 0 
L 2906 0 
L 2906 525 
Q 2725 213 2448 61 
Q 2172 -91 1784 -91 
Q 1150 -91 751 415 
Q 353 922 353 1747 
Q 353 2572 751 3078 
Q 1150 3584 1784 3584 
Q 2172 3584 2448 3432 
Q 2725 3281 2906 2969 
z
M 947 1747 
Q 947 1113 1208 752 
Q 1469 391 1925 391 
Q 2381 391 2643 752 
Q 2906 1113 2906 1747 
Q 2906 2381 2643 2742 
Q 2381 3103 1925 3103 
Q 1469 3103 1208 2742 
Q 947 2381 947 1747 
z
" id="DejaVuSans-64" transform="scale(0.015625)"/>
       <path d="M 2059 -325 
Q 1816 -950 1584 -1140 
Q 1353 -1331 966 -1331 
L 506 -1331 
L 506 -850 
L 844 -850 
Q 1081 -850 1212 -737 
Q 1344 -625 1503 -206 
L 1606 56 
L 191 3500 
L 800 3500 
L 1894 763 
L 2988 3500 
L 3597 3500 
L 2059 -325 
z
" id="DejaVuSans-79" transform="scale(0.015625)"/>
       <path id="DejaVuSans-20" transform="scale(0.015625)"/>
       <path d="M 1959 3097 
Q 1497 3097 1228 2736 
Q 959 2375 959 1747 
Q 959 1119 1226 758 
Q 1494 397 1959 397 
Q 2419 397 2687 759 
Q 2956 1122 2956 1747 
Q 2956 2369 2687 2733 
Q 2419 3097 1959 3097 
z
M 1959 3584 
Q 2709 3584 3137 3096 
Q 3566 2609 3566 1747 
Q 3566 888 3137 398 
Q 2709 -91 1959 -91 
Q 1206 -91 779 398 
Q 353 888 353 1747 
Q 353 2609 779 3096 
Q 1206 3584 1959 3584 
z
" id="DejaVuSans-6f" transform="scale(0.015625)"/>
       <path d="M 544 1381 
L 544 3500 
L 1119 3500 
L 1119 1403 
Q 1119 906 1312 657 
Q 1506 409 1894 409 
Q 2359 409 2629 706 
Q 2900 1003 2900 1516 
L 2900 3500 
L 3475 3500 
L 3475 0 
L 2900 0 
L 2900 538 
Q 2691 219 2414 64 
Q 2138 -91 1772 -91 
Q 1169 -91 856 284 
Q 544 659 544 1381 
z
M 1991 3584 
L 1991 3584 
z
M 2459 4571 
Q 2459 4767 2321 4904 
Q 2184 5042 1984 5042 
Q 1781 5042 1645 4906 
Q 1509 4771 1509 4571 
Q 1509 4367 1645 4231 
Q 1781 4096 1984 4096 
Q 2184 4096 2321 4233 
Q 2459 4371 2459 4571 
z
M 2840 4571 
Q 2840 4211 2591 3961 
Q 2343 3711 1984 3711 
Q 1625 3711 1376 3961 
Q 1128 4211 1128 4571 
Q 1128 4930 1376 5178 
Q 1625 5427 1984 5427 
Q 2343 5427 2591 5178 
Q 2840 4930 2840 4571 
z
" id="DejaVuSans-16f" transform="scale(0.015625)"/>
      </defs>
      <use xlink:href="#DejaVuSans-4d"/>
      <use x="86.279297" xlink:href="#DejaVuSans-69"/>
      <use x="114.0625" xlink:href="#DejaVuSans-6c"/>
      <use x="141.845703" xlink:href="#DejaVuSans-69"/>
      <use x="169.628906" xlink:href="#DejaVuSans-61"/>
      <use x="230.908203" xlink:href="#DejaVuSans-72"/>
      <use x="270.271484" xlink:href="#DejaVuSans-64"/>
      <use x="333.748047" xlink:href="#DejaVuSans-79"/>
      <use x="392.927734" xlink:href="#DejaVuSans-20"/>
      <use x="424.714844" xlink:href="#DejaVuSans-64"/>
      <use x="488.191406" xlink:href="#DejaVuSans-6f"/>
      <use x="549.373047" xlink:href="#DejaVuSans-6c"/>
      <use x="577.15625" xlink:href="#DejaVuSans-61"/>
      <use x="638.435547" xlink:href="#DejaVuSans-72"/>
      <use x="679.548828" xlink:href="#DejaVuSans-16f"/>
     </g>
    </g>
   </g>
   <g id="matplotlib.axis_2">
    <g id="ytick_1">
     <g id="line2d_15">
      <defs>
       <path d="M 0 0 
L -4 0 
" id="mcc68ce9c62" style="stroke:#666666;stroke-width:0.6;"/>
      </defs>
      <g>
       <use style="fill:#666666;stroke:#666666;stroke-width:0.6;" x="129.6" xlink:href="#mcc68ce9c62" y="48.6"/>
      </g>
     </g>
     <g id="text_9">
      <!-- USA -->
      <g style="fill:#666666;" transform="translate(103.474219 52.019297)scale(0.09 -0.09)">
       <defs>
        <path d="M 556 4666 
L 1191 4666 
L 1191 1831 
Q 1191 1081 1462 751 
Q 1734 422 2344 422 
Q 2950 422 3222 751 
Q 3494 1081 3494 1831 
L 3494 4666 
L 4128 4666 
L 4128 1753 
Q 4128 841 3676 375 
Q 3225 -91 2344 -91 
Q 1459 -91 1007 375 
Q 556 841 556 1753 
L 556 4666 
z
" id="DejaVuSans-55" transform="scale(0.015625)"/>
        <path d="M 3425 4513 
L 3425 3897 
Q 3066 4069 2747 4153 
Q 2428 4238 2131 4238 
Q 1616 4238 1336 4038 
Q 1056 3838 1056 3469 
Q 1056 3159 1242 3001 
Q 1428 2844 1947 2747 
L 2328 2669 
Q 3034 2534 3370 2195 
Q 3706 1856 3706 1288 
Q 3706 609 3251 259 
Q 2797 -91 1919 -91 
Q 1588 -91 1214 -16 
Q 841 59 441 206 
L 441 856 
Q 825 641 1194 531 
Q 1563 422 1919 422 
Q 2459 422 2753 634 
Q 3047 847 3047 1241 
Q 3047 1584 2836 1778 
Q 2625 1972 2144 2069 
L 1759 2144 
Q 1053 2284 737 2584 
Q 422 2884 422 3419 
Q 422 4038 858 4394 
Q 1294 4750 2059 4750 
Q 2388 4750 2728 4690 
Q 3069 4631 3425 4513 
z
" id="DejaVuSans-53" transform="scale(0.015625)"/>
        <path d="M 2188 4044 
L 1331 1722 
L 3047 1722 
L 2188 4044 
z
M 1831 4666 
L 2547 4666 
L 4325 0 
L 3669 0 
L 3244 1197 
L 1141 1197 
L 716 0 
L 50 0 
L 1831 4666 
z
" id="DejaVuSans-41" transform="scale(0.015625)"/>
       </defs>
       <use xlink:href="#DejaVuSans-55"/>
       <use x="73.193359" xlink:href="#DejaVuSans-53"/>
       <use x="138.544922" xlink:href="#DejaVuSans-41"/>
      </g>
     </g>
    </g>
    <g id="ytick_2">
     <g id="line2d_16">
      <g>
       <use style="fill:#666666;stroke:#666666;stroke-width:0.6;" x="129.6" xlink:href="#mcc68ce9c62" y="93.96"/>
      </g>
     </g>
     <g id="text_10">
      <!-- Japonsko -->
      <g style="fill:#666666;" transform="translate(81.924844 97.379297)scale(0.09 -0.09)">
       <defs>
        <path d="M 628 4666 
L 1259 4666 
L 1259 325 
Q 1259 -519 939 -900 
Q 619 -1281 -91 -1281 
L -331 -1281 
L -331 -750 
L -134 -750 
Q 284 -750 456 -515 
Q 628 -281 628 325 
L 628 4666 
z
" id="DejaVuSans-4a" transform="scale(0.015625)"/>
        <path d="M 1159 525 
L 1159 -1331 
L 581 -1331 
L 581 3500 
L 1159 3500 
L 1159 2969 
Q 1341 3281 1617 3432 
Q 1894 3584 2278 3584 
Q 2916 3584 3314 3078 
Q 3713 2572 3713 1747 
Q 3713 922 3314 415 
Q 2916 -91 2278 -91 
Q 1894 -91 1617 61 
Q 1341 213 1159 525 
z
M 3116 1747 
Q 3116 2381 2855 2742 
Q 2594 3103 2138 3103 
Q 1681 3103 1420 2742 
Q 1159 2381 1159 1747 
Q 1159 1113 1420 752 
Q 1681 391 2138 391 
Q 2594 391 2855 752 
Q 3116 1113 3116 1747 
z
" id="DejaVuSans-70" transform="scale(0.015625)"/>
        <path d="M 3513 2113 
L 3513 0 
L 2938 0 
L 2938 2094 
Q 2938 2591 2744 2837 
Q 2550 3084 2163 3084 
Q 1697 3084 1428 2787 
Q 1159 2491 1159 1978 
L 1159 0 
L 581 0 
L 581 3500 
L 1159 3500 
L 1159 2956 
Q 1366 3272 1645 3428 
Q 1925 3584 2291 3584 
Q 2894 3584 3203 3211 
Q 3513 2838 3513 2113 
z
" id="DejaVuSans-6e" transform="scale(0.015625)"/>
        <path d="M 2834 3397 
L 2834 2853 
Q 2591 2978 2328 3040 
Q 2066 3103 1784 3103 
Q 1356 3103 1142 2972 
Q 928 2841 928 2578 
Q 928 2378 1081 2264 
Q 1234 2150 1697 2047 
L 1894 2003 
Q 2506 1872 2764 1633 
Q 3022 1394 3022 966 
Q 3022 478 2636 193 
Q 2250 -91 1575 -91 
Q 1294 -91 989 -36 
Q 684 19 347 128 
L 347 722 
Q 666 556 975 473 
Q 1284 391 1588 391 
Q 1994 391 2212 530 
Q 2431 669 2431 922 
Q 2431 1156 2273 1281 
Q 2116 1406 1581 1522 
L 1381 1569 
Q 847 1681 609 1914 
Q 372 2147 372 2553 
Q 372 3047 722 3315 
Q 1072 3584 1716 3584 
Q 2034 3584 2315 3537 
Q 2597 3491 2834 3397 
z
" id="DejaVuSans-73" transform="scale(0.015625)"/>
        <path d="M 581 4863 
L 1159 4863 
L 1159 1991 
L 2875 3500 
L 3609 3500 
L 1753 1863 
L 3688 0 
L 2938 0 
L 1159 1709 
L 1159 0 
L 581 0 
L 581 4863 
z
" id="DejaVuSans-6b" transform="scale(0.015625)"/>
       </defs>
       <use xlink:href="#DejaVuSans-4a"/>
       <use x="29.492188" xlink:href="#DejaVuSans-61"/>
       <use x="90.771484" xlink:href="#DejaVuSans-70"/>
       <use x="154.248047" xlink:href="#DejaVuSans-6f"/>
       <use x="215.429688" xlink:href="#DejaVuSans-6e"/>
       <use x="278.808594" xlink:href="#DejaVuSans-73"/>
       <use x="330.908203" xlink:href="#DejaVuSans-6b"/>
       <use x="385.193359" xlink:href="#DejaVuSans-6f"/>
      </g>
     </g>
    </g>
    <g id="ytick_3">
     <g id="line2d_17">
      <g>
       <use style="fill:#666666;stroke:#666666;stroke-width:0.6;" x="129.6" xlink:href="#mcc68ce9c62" y="139.32"/>
      </g>
     </g>
     <g id="text_11">
      <!-- Německo -->
      <g style="fill:#666666;" transform="translate(80.183906 142.739297)scale(0.09 -0.09)">
       <defs>
        <path d="M 628 4666 
L 1478 4666 
L 3547 763 
L 3547 4666 
L 4159 4666 
L 4159 0 
L 3309 0 
L 1241 3903 
L 1241 0 
L 628 0 
L 628 4666 
z
" id="DejaVuSans-4e" transform="scale(0.015625)"/>
        <path d="M 3597 1894 
L 3597 1613 
L 953 1613 
Q 991 1019 1311 708 
Q 1631 397 2203 397 
Q 2534 397 2845 478 
Q 3156 559 3463 722 
L 3463 178 
Q 3153 47 2828 -22 
Q 2503 -91 2169 -91 
Q 1331 -91 842 396 
Q 353 884 353 1716 
Q 353 2575 817 3079 
Q 1281 3584 2069 3584 
Q 2775 3584 3186 3129 
Q 3597 2675 3597 1894 
z
M 3022 2063 
Q 3016 2534 2758 2815 
Q 2500 3097 2075 3097 
Q 1594 3097 1305 2825 
Q 1016 2553 972 2059 
L 3022 2063 
z
M 1833 3944 
L 1067 5119 
L 1502 5119 
L 2064 4353 
L 2627 5119 
L 3061 5119 
L 2295 3944 
L 1833 3944 
z
" id="DejaVuSans-11b" transform="scale(0.015625)"/>
        <path d="M 3328 2828 
Q 3544 3216 3844 3400 
Q 4144 3584 4550 3584 
Q 5097 3584 5394 3201 
Q 5691 2819 5691 2113 
L 5691 0 
L 5113 0 
L 5113 2094 
Q 5113 2597 4934 2840 
Q 4756 3084 4391 3084 
Q 3944 3084 3684 2787 
Q 3425 2491 3425 1978 
L 3425 0 
L 2847 0 
L 2847 2094 
Q 2847 2600 2669 2842 
Q 2491 3084 2119 3084 
Q 1678 3084 1418 2786 
Q 1159 2488 1159 1978 
L 1159 0 
L 581 0 
L 581 3500 
L 1159 3500 
L 1159 2956 
Q 1356 3278 1631 3431 
Q 1906 3584 2284 3584 
Q 2666 3584 2933 3390 
Q 3200 3197 3328 2828 
z
" id="DejaVuSans-6d" transform="scale(0.015625)"/>
        <path d="M 3597 1894 
L 3597 1613 
L 953 1613 
Q 991 1019 1311 708 
Q 1631 397 2203 397 
Q 2534 397 2845 478 
Q 3156 559 3463 722 
L 3463 178 
Q 3153 47 2828 -22 
Q 2503 -91 2169 -91 
Q 1331 -91 842 396 
Q 353 884 353 1716 
Q 353 2575 817 3079 
Q 1281 3584 2069 3584 
Q 2775 3584 3186 3129 
Q 3597 2675 3597 1894 
z
M 3022 2063 
Q 3016 2534 2758 2815 
Q 2500 3097 2075 3097 
Q 1594 3097 1305 2825 
Q 1016 2553 972 2059 
L 3022 2063 
z
" id="DejaVuSans-65" transform="scale(0.015625)"/>
        <path d="M 3122 3366 
L 3122 2828 
Q 2878 2963 2633 3030 
Q 2388 3097 2138 3097 
Q 1578 3097 1268 2742 
Q 959 2388 959 1747 
Q 959 1106 1268 751 
Q 1578 397 2138 397 
Q 2388 397 2633 464 
Q 2878 531 3122 666 
L 3122 134 
Q 2881 22 2623 -34 
Q 2366 -91 2075 -91 
Q 1284 -91 818 406 
Q 353 903 353 1747 
Q 353 2603 823 3093 
Q 1294 3584 2113 3584 
Q 2378 3584 2631 3529 
Q 2884 3475 3122 3366 
z
" id="DejaVuSans-63" transform="scale(0.015625)"/>
       </defs>
       <use xlink:href="#DejaVuSans-4e"/>
       <use x="74.804688" xlink:href="#DejaVuSans-11b"/>
       <use x="136.328125" xlink:href="#DejaVuSans-6d"/>
       <use x="233.740234" xlink:href="#DejaVuSans-65"/>
       <use x="295.263672" xlink:href="#DejaVuSans-63"/>
       <use x="350.244141" xlink:href="#DejaVuSans-6b"/>
       <use x="404.529297" xlink:href="#DejaVuSans-6f"/>
      </g>
     </g>
    </g>
    <g id="ytick_4">
     <g id="line2d_18">
      <g>
       <use style="fill:#666666;stroke:#666666;stroke-width:0.6;" x="129.6" xlink:href="#mcc68ce9c62" y="184.68"/>
      </g>
     </g>
     <g id="text_12">
      <!-- Velká Británie -->
      <g style="fill:#666666;" transform="translate(60.012656 188.099297)scale(0.09 -0.09)">
       <defs>
        <path d="M 1831 0 
L 50 4666 
L 709 4666 
L 2188 738 
L 3669 4666 
L 4325 4666 
L 2547 0 
L 1831 0 
z
" id="DejaVuSans-56" transform="scale(0.015625)"/>
        <path d="M 2194 1759 
Q 1497 1759 1228 1600 
Q 959 1441 959 1056 
Q 959 750 1161 570 
Q 1363 391 1709 391 
Q 2188 391 2477 730 
Q 2766 1069 2766 1631 
L 2766 1759 
L 2194 1759 
z
M 3341 1997 
L 3341 0 
L 2766 0 
L 2766 531 
Q 2569 213 2275 61 
Q 1981 -91 1556 -91 
Q 1019 -91 701 211 
Q 384 513 384 1019 
Q 384 1609 779 1909 
Q 1175 2209 1959 2209 
L 2766 2209 
L 2766 2266 
Q 2766 2663 2505 2880 
Q 2244 3097 1772 3097 
Q 1472 3097 1187 3025 
Q 903 2953 641 2809 
L 641 3341 
Q 956 3463 1253 3523 
Q 1550 3584 1831 3584 
Q 2591 3584 2966 3190 
Q 3341 2797 3341 1997 
z
M 2290 5119 
L 2912 5119 
L 1894 3944 
L 1415 3944 
L 2290 5119 
z
" id="DejaVuSans-e1" transform="scale(0.015625)"/>
        <path d="M 1259 2228 
L 1259 519 
L 2272 519 
Q 2781 519 3026 730 
Q 3272 941 3272 1375 
Q 3272 1813 3026 2020 
Q 2781 2228 2272 2228 
L 1259 2228 
z
M 1259 4147 
L 1259 2741 
L 2194 2741 
Q 2656 2741 2882 2914 
Q 3109 3088 3109 3444 
Q 3109 3797 2882 3972 
Q 2656 4147 2194 4147 
L 1259 4147 
z
M 628 4666 
L 2241 4666 
Q 2963 4666 3353 4366 
Q 3744 4066 3744 3513 
Q 3744 3084 3544 2831 
Q 3344 2578 2956 2516 
Q 3422 2416 3680 2098 
Q 3938 1781 3938 1306 
Q 3938 681 3513 340 
Q 3088 0 2303 0 
L 628 0 
L 628 4666 
z
" id="DejaVuSans-42" transform="scale(0.015625)"/>
        <path d="M 1172 4494 
L 1172 3500 
L 2356 3500 
L 2356 3053 
L 1172 3053 
L 1172 1153 
Q 1172 725 1289 603 
Q 1406 481 1766 481 
L 2356 481 
L 2356 0 
L 1766 0 
Q 1100 0 847 248 
Q 594 497 594 1153 
L 594 3053 
L 172 3053 
L 172 3500 
L 594 3500 
L 594 4494 
L 1172 4494 
z
" id="DejaVuSans-74" transform="scale(0.015625)"/>
       </defs>
       <use xlink:href="#DejaVuSans-56"/>
       <use x="60.658203" xlink:href="#DejaVuSans-65"/>
       <use x="122.181641" xlink:href="#DejaVuSans-6c"/>
       <use x="149.964844" xlink:href="#DejaVuSans-6b"/>
       <use x="206.125" xlink:href="#DejaVuSans-e1"/>
       <use x="267.404297" xlink:href="#DejaVuSans-20"/>
       <use x="299.191406" xlink:href="#DejaVuSans-42"/>
       <use x="367.794922" xlink:href="#DejaVuSans-72"/>
       <use x="408.908203" xlink:href="#DejaVuSans-69"/>
       <use x="436.691406" xlink:href="#DejaVuSans-74"/>
       <use x="475.900391" xlink:href="#DejaVuSans-e1"/>
       <use x="537.179688" xlink:href="#DejaVuSans-6e"/>
       <use x="600.558594" xlink:href="#DejaVuSans-69"/>
       <use x="628.341797" xlink:href="#DejaVuSans-65"/>
      </g>
     </g>
    </g>
    <g id="ytick_5">
     <g id="line2d_19">
      <g>
       <use style="fill:#666666;stroke:#666666;stroke-width:0.6;" x="129.6" xlink:href="#mcc68ce9c62" y="230.04"/>
      </g>
     </g>
     <g id="text_13">
      <!-- Francie -->
      <g style="fill:#666666;" transform="translate(89.670469 233.459297)scale(0.09 -0.09)">
       <defs>
        <path d="M 628 4666 
L 3309 4666 
L 3309 4134 
L 1259 4134 
L 1259 2759 
L 3109 2759 
L 3109 2228 
L 1259 2228 
L 1259 0 
L 628 0 
L 628 4666 
z
" id="DejaVuSans-46" transform="scale(0.015625)"/>
       </defs>
       <use xlink:href="#DejaVuSans-46"/>
       <use x="50.269531" xlink:href="#DejaVuSans-72"/>
       <use x="91.382812" xlink:href="#DejaVuSans-61"/>
       <use x="152.662109" xlink:href="#DejaVuSans-6e"/>
       <use x="216.041016" xlink:href="#DejaVuSans-63"/>
       <use x="271.021484" xlink:href="#DejaVuSans-69"/>
       <use x="298.804688" xlink:href="#DejaVuSans-65"/>
      </g>
     </g>
    </g>
    <g id="ytick_6">
     <g id="line2d_20">
      <g>
       <use style="fill:#666666;stroke:#666666;stroke-width:0.6;" x="129.6" xlink:href="#mcc68ce9c62" y="275.4"/>
      </g>
     </g>
     <g id="text_14">
      <!-- Itálie -->
      <g style="fill:#666666;" transform="translate(99.862969 278.819297)scale(0.09 -0.09)">
       <defs>
        <path d="M 628 4666 
L 1259 4666 
L 1259 0 
L 628 0 
L 628 4666 
z
" id="DejaVuSans-49" transform="scale(0.015625)"/>
       </defs>
       <use xlink:href="#DejaVuSans-49"/>
       <use x="29.492188" xlink:href="#DejaVuSans-74"/>
       <use x="68.701172" xlink:href="#DejaVuSans-e1"/>
       <use x="129.980469" xlink:href="#DejaVuSans-6c"/>
       <use x="157.763672" xlink:href="#DejaVuSans-69"/>
       <use x="185.546875" xlink:href="#DejaVuSans-65"/>
      </g>
     </g>
    </g>
    <g id="ytick_7">
     <g id="line2d_21">
      <g>
       <use style="fill:#666666;stroke:#666666;stroke-width:0.6;" x="129.6" xlink:href="#mcc68ce9c62" y="320.76"/>
      </g>
     </g>
     <g id="text_15">
      <!-- Španělsko -->
      <g style="fill:#666666;" transform="translate(76.335 324.927422)scale(0.09 -0.09)">
       <defs>
        <path d="M 3425 4513 
L 3425 3897 
Q 3066 4069 2747 4153 
Q 2428 4238 2131 4238 
Q 1616 4238 1336 4038 
Q 1056 3838 1056 3469 
Q 1056 3159 1242 3001 
Q 1428 2844 1947 2747 
L 2328 2669 
Q 3034 2534 3370 2195 
Q 3706 1856 3706 1288 
Q 3706 609 3251 259 
Q 2797 -91 1919 -91 
Q 1588 -91 1214 -16 
Q 841 59 441 206 
L 441 856 
Q 825 641 1194 531 
Q 1563 422 1919 422 
Q 2459 422 2753 634 
Q 3047 847 3047 1241 
Q 3047 1584 2836 1778 
Q 2625 1972 2144 2069 
L 1759 2144 
Q 1053 2284 737 2584 
Q 422 2884 422 3419 
Q 422 4038 858 4394 
Q 1294 4750 2059 4750 
Q 2388 4750 2728 4690 
Q 3069 4631 3425 4513 
z
M 1738 5096 
L 1079 5927 
L 1513 5927 
L 2032 5371 
L 2551 5927 
L 2985 5927 
L 2326 5096 
L 1738 5096 
z
" id="DejaVuSans-160" transform="scale(0.015625)"/>
       </defs>
       <use xlink:href="#DejaVuSans-160"/>
       <use x="63.476562" xlink:href="#DejaVuSans-70"/>
       <use x="126.953125" xlink:href="#DejaVuSans-61"/>
       <use x="188.232422" xlink:href="#DejaVuSans-6e"/>
       <use x="251.611328" xlink:href="#DejaVuSans-11b"/>
       <use x="313.134766" xlink:href="#DejaVuSans-6c"/>
       <use x="340.917969" xlink:href="#DejaVuSans-73"/>
       <use x="393.017578" xlink:href="#DejaVuSans-6b"/>
       <use x="447.302734" xlink:href="#DejaVuSans-6f"/>
      </g>
     </g>
    </g>
    <g id="ytick_8">
     <g id="line2d_22">
      <g>
       <use style="fill:#666666;stroke:#666666;stroke-width:0.6;" x="129.6" xlink:href="#mcc68ce9c62" y="366.12"/>
      </g>
     </g>
     <g id="text_16">
      <!-- Ostatní rozvinuté země -->
      <g style="fill:#666666;" transform="translate(17.235937 369.539297)scale(0.09 -0.09)">
       <defs>
        <path d="M 2522 4238 
Q 1834 4238 1429 3725 
Q 1025 3213 1025 2328 
Q 1025 1447 1429 934 
Q 1834 422 2522 422 
Q 3209 422 3611 934 
Q 4013 1447 4013 2328 
Q 4013 3213 3611 3725 
Q 3209 4238 2522 4238 
z
M 2522 4750 
Q 3503 4750 4090 4092 
Q 4678 3434 4678 2328 
Q 4678 1225 4090 567 
Q 3503 -91 2522 -91 
Q 1538 -91 948 565 
Q 359 1222 359 2328 
Q 359 3434 948 4092 
Q 1538 4750 2522 4750 
z
" id="DejaVuSans-4f" transform="scale(0.015625)"/>
        <path d="M 1322 5119 
L 1944 5119 
L 926 3944 
L 447 3944 
L 1322 5119 
z
M 603 3500 
L 1178 3500 
L 1178 0 
L 603 0 
L 603 3500 
z
M 891 3584 
L 891 3584 
z
" id="DejaVuSans-ed" transform="scale(0.015625)"/>
        <path d="M 353 3500 
L 3084 3500 
L 3084 2975 
L 922 459 
L 3084 459 
L 3084 0 
L 275 0 
L 275 525 
L 2438 3041 
L 353 3041 
L 353 3500 
z
" id="DejaVuSans-7a" transform="scale(0.015625)"/>
        <path d="M 191 3500 
L 800 3500 
L 1894 563 
L 2988 3500 
L 3597 3500 
L 2284 0 
L 1503 0 
L 191 3500 
z
" id="DejaVuSans-76" transform="scale(0.015625)"/>
        <path d="M 544 1381 
L 544 3500 
L 1119 3500 
L 1119 1403 
Q 1119 906 1312 657 
Q 1506 409 1894 409 
Q 2359 409 2629 706 
Q 2900 1003 2900 1516 
L 2900 3500 
L 3475 3500 
L 3475 0 
L 2900 0 
L 2900 538 
Q 2691 219 2414 64 
Q 2138 -91 1772 -91 
Q 1169 -91 856 284 
Q 544 659 544 1381 
z
M 1991 3584 
L 1991 3584 
z
" id="DejaVuSans-75" transform="scale(0.015625)"/>
        <path d="M 3597 1894 
L 3597 1613 
L 953 1613 
Q 991 1019 1311 708 
Q 1631 397 2203 397 
Q 2534 397 2845 478 
Q 3156 559 3463 722 
L 3463 178 
Q 3153 47 2828 -22 
Q 2503 -91 2169 -91 
Q 1331 -91 842 396 
Q 353 884 353 1716 
Q 353 2575 817 3079 
Q 1281 3584 2069 3584 
Q 2775 3584 3186 3129 
Q 3597 2675 3597 1894 
z
M 3022 2063 
Q 3016 2534 2758 2815 
Q 2500 3097 2075 3097 
Q 1594 3097 1305 2825 
Q 1016 2553 972 2059 
L 3022 2063 
z
M 2466 5119 
L 3088 5119 
L 2070 3944 
L 1591 3944 
L 2466 5119 
z
" id="DejaVuSans-e9" transform="scale(0.015625)"/>
       </defs>
       <use xlink:href="#DejaVuSans-4f"/>
       <use x="78.710938" xlink:href="#DejaVuSans-73"/>
       <use x="130.810547" xlink:href="#DejaVuSans-74"/>
       <use x="170.019531" xlink:href="#DejaVuSans-61"/>
       <use x="231.298828" xlink:href="#DejaVuSans-74"/>
       <use x="270.507812" xlink:href="#DejaVuSans-6e"/>
       <use x="333.886719" xlink:href="#DejaVuSans-ed"/>
       <use x="361.669922" xlink:href="#DejaVuSans-20"/>
       <use x="393.457031" xlink:href="#DejaVuSans-72"/>
       <use x="432.320312" xlink:href="#DejaVuSans-6f"/>
       <use x="493.501953" xlink:href="#DejaVuSans-7a"/>
       <use x="545.992188" xlink:href="#DejaVuSans-76"/>
       <use x="605.171875" xlink:href="#DejaVuSans-69"/>
       <use x="632.955078" xlink:href="#DejaVuSans-6e"/>
       <use x="696.333984" xlink:href="#DejaVuSans-75"/>
       <use x="759.712891" xlink:href="#DejaVuSans-74"/>
       <use x="798.921875" xlink:href="#DejaVuSans-e9"/>
       <use x="860.445312" xlink:href="#DejaVuSans-20"/>
       <use x="892.232422" xlink:href="#DejaVuSans-7a"/>
       <use x="944.722656" xlink:href="#DejaVuSans-65"/>
       <use x="1006.246094" xlink:href="#DejaVuSans-6d"/>
       <use x="1103.658203" xlink:href="#DejaVuSans-11b"/>
      </g>
     </g>
    </g>
   </g>
   <g id="line2d_23">
    <path clip-path="url(#pdcd190063e)" style="fill:none;stroke:#424242;stroke-linecap:square;stroke-width:1.44;"/>
   </g>
   <g id="line2d_24">
    <path clip-path="url(#pdcd190063e)" style="fill:none;stroke:#424242;stroke-linecap:square;stroke-width:1.44;"/>
   </g>
   <g id="line2d_25">
    <path clip-path="url(#pdcd190063e)" style="fill:none;stroke:#424242;stroke-linecap:square;stroke-width:1.44;"/>
   </g>
   <g id="line2d_26">
    <path clip-path="url(#pdcd190063e)" style="fill:none;stroke:#424242;stroke-linecap:square;stroke-width:1.44;"/>
   </g>
   <g id="line2d_27">
    <path clip-path="url(#pdcd190063e)" style="fill:none;stroke:#424242;stroke-linecap:square;stroke-width:1.44;"/>
   </g>
   <g id="line2d_28">
    <path clip-path="url(#pdcd190063e)" style="fill:none;stroke:#424242;stroke-linecap:square;stroke-width:1.44;"/>
   </g>
   <g id="line2d_29">
    <path clip-path="url(#pdcd190063e)" style="fill:none;stroke:#424242;stroke-linecap:square;stroke-width:1.44;"/>
   </g>
   <g id="line2d_30">
    <path clip-path="url(#pdcd190063e)" style="fill:none;stroke:#424242;stroke-linecap:square;stroke-width:1.44;"/>
   </g>
   <g id="line2d_31">
    <path clip-path="url(#pdcd190063e)" style="fill:none;stroke:#424242;stroke-linecap:square;stroke-width:1.44;"/>
   </g>
   <g id="line2d_32">
    <path clip-path="url(#pdcd190063e)" style="fill:none;stroke:#424242;stroke-linecap:square;stroke-width:1.44;"/>
   </g>
   <g id="line2d_33">
    <path clip-path="url(#pdcd190063e)" style="fill:none;stroke:#424242;stroke-linecap:square;stroke-width:1.44;"/>
   </g>
   <g id="line2d_34">
    <path clip-path="url(#pdcd190063e)" style="fill:none;stroke:#424242;stroke-linecap:square;stroke-width:1.44;"/>
   </g>
   <g id="line2d_35">
    <path clip-path="url(#pdcd190063e)" style="fill:none;stroke:#424242;stroke-linecap:square;stroke-width:1.44;"/>
   </g>
   <g id="line2d_36">
    <path clip-path="url(#pdcd190063e)" style="fill:none;stroke:#424242;stroke-linecap:square;stroke-width:1.44;"/>
   </g>
   <g id="line2d_37">
    <path clip-path="url(#pdcd190063e)" style="fill:none;stroke:#424242;stroke-linecap:square;stroke-width:1.44;"/>
   </g>
   <g id="line2d_38">
    <path clip-path="url(#pdcd190063e)" style="fill:none;stroke:#424242;stroke-linecap:square;stroke-width:1.44;"/>
   </g>
   <g id="patch_19">
    <path d="M 129.6 388.8 
L 129.6 25.92 
" style="fill:none;stroke:#666666;stroke-linecap:square;stroke-linejoin:miter;stroke-width:0.6;"/>
   </g>
   <g id="patch_20">
    <path d="M 129.6 388.8 
L 622.08 388.8 
" style="fill:none;stroke:#666666;stroke-linecap:square;stroke-linejoin:miter;stroke-width:0.6;"/>
   </g>
   <g id="text_17">
    <!-- Klimatické finance v roce 2018 -->
    <g transform="translate(301.79925 19.92)scale(0.096 -0.096)">
     <defs>
      <path d="M 628 4666 
L 1259 4666 
L 1259 2694 
L 3353 4666 
L 4166 4666 
L 1850 2491 
L 4331 0 
L 3500 0 
L 1259 2247 
L 1259 0 
L 628 0 
L 628 4666 
z
" id="DejaVuSans-4b" transform="scale(0.015625)"/>
      <path d="M 2375 4863 
L 2375 4384 
L 1825 4384 
Q 1516 4384 1395 4259 
Q 1275 4134 1275 3809 
L 1275 3500 
L 2222 3500 
L 2222 3053 
L 1275 3053 
L 1275 0 
L 697 0 
L 697 3053 
L 147 3053 
L 147 3500 
L 697 3500 
L 697 3744 
Q 697 4328 969 4595 
Q 1241 4863 1831 4863 
L 2375 4863 
z
" id="DejaVuSans-66" transform="scale(0.015625)"/>
      <path d="M 2034 2216 
Q 1584 2216 1326 1975 
Q 1069 1734 1069 1313 
Q 1069 891 1326 650 
Q 1584 409 2034 409 
Q 2484 409 2743 651 
Q 3003 894 3003 1313 
Q 3003 1734 2745 1975 
Q 2488 2216 2034 2216 
z
M 1403 2484 
Q 997 2584 770 2862 
Q 544 3141 544 3541 
Q 544 4100 942 4425 
Q 1341 4750 2034 4750 
Q 2731 4750 3128 4425 
Q 3525 4100 3525 3541 
Q 3525 3141 3298 2862 
Q 3072 2584 2669 2484 
Q 3125 2378 3379 2068 
Q 3634 1759 3634 1313 
Q 3634 634 3220 271 
Q 2806 -91 2034 -91 
Q 1263 -91 848 271 
Q 434 634 434 1313 
Q 434 1759 690 2068 
Q 947 2378 1403 2484 
z
M 1172 3481 
Q 1172 3119 1398 2916 
Q 1625 2713 2034 2713 
Q 2441 2713 2670 2916 
Q 2900 3119 2900 3481 
Q 2900 3844 2670 4047 
Q 2441 4250 2034 4250 
Q 1625 4250 1398 4047 
Q 1172 3844 1172 3481 
z
" id="DejaVuSans-38" transform="scale(0.015625)"/>
     </defs>
     <use xlink:href="#DejaVuSans-4b"/>
     <use x="65.576172" xlink:href="#DejaVuSans-6c"/>
     <use x="93.359375" xlink:href="#DejaVuSans-69"/>
     <use x="121.142578" xlink:href="#DejaVuSans-6d"/>
     <use x="218.554688" xlink:href="#DejaVuSans-61"/>
     <use x="279.833984" xlink:href="#DejaVuSans-74"/>
     <use x="319.042969" xlink:href="#DejaVuSans-69"/>
     <use x="346.826172" xlink:href="#DejaVuSans-63"/>
     <use x="401.806641" xlink:href="#DejaVuSans-6b"/>
     <use x="456.091797" xlink:href="#DejaVuSans-e9"/>
     <use x="517.615234" xlink:href="#DejaVuSans-20"/>
     <use x="549.402344" xlink:href="#DejaVuSans-66"/>
     <use x="584.607422" xlink:href="#DejaVuSans-69"/>
     <use x="612.390625" xlink:href="#DejaVuSans-6e"/>
     <use x="675.769531" xlink:href="#DejaVuSans-61"/>
     <use x="737.048828" xlink:href="#DejaVuSans-6e"/>
     <use x="800.427734" xlink:href="#DejaVuSans-63"/>
     <use x="855.408203" xlink:href="#DejaVuSans-65"/>
     <use x="916.931641" xlink:href="#DejaVuSans-20"/>
     <use x="948.71875" xlink:href="#DejaVuSans-76"/>
     <use x="1007.898438" xlink:href="#DejaVuSans-20"/>
     <use x="1039.685547" xlink:href="#DejaVuSans-72"/>
     <use x="1078.548828" xlink:href="#DejaVuSans-6f"/>
     <use x="1139.730469" xlink:href="#DejaVuSans-63"/>
     <use x="1194.710938" xlink:href="#DejaVuSans-65"/>
     <use x="1256.234375" xlink:href="#DejaVuSans-20"/>
     <use x="1288.021484" xlink:href="#DejaVuSans-32"/>
     <use x="1351.644531" xlink:href="#DejaVuSans-30"/>
     <use x="1415.267578" xlink:href="#DejaVuSans-31"/>
     <use x="1478.890625" xlink:href="#DejaVuSans-38"/>
    </g>
   </g>
   <g id="legend_1">
    <g id="patch_21">
     <path d="M 488.4 384.8 
L 616.48 384.8 
Q 618.08 384.8 618.08 383.2 
L 618.08 349.475 
Q 618.08 347.875 616.48 347.875 
L 488.4 347.875 
Q 486.8 347.875 486.8 349.475 
L 486.8 383.2 
Q 486.8 384.8 488.4 384.8 
z
" style="fill:#f0f0f0;stroke:#ffffff;stroke-linejoin:miter;"/>
    </g>
    <g id="patch_22">
     <path d="M 494.8 362.27375 
L 510.8 362.27375 
L 510.8 356.67375 
L 494.8 356.67375 
z
" style="fill:#3274a1;"/>
    </g>
    <g id="text_18">
     <!-- Přispěno v roce 2018 -->
     <g transform="translate(517.2 362.27375)scale(0.08 -0.08)">
      <defs>
       <path d="M 1259 4147 
L 1259 2394 
L 2053 2394 
Q 2494 2394 2734 2622 
Q 2975 2850 2975 3272 
Q 2975 3691 2734 3919 
Q 2494 4147 2053 4147 
L 1259 4147 
z
M 628 4666 
L 2053 4666 
Q 2838 4666 3239 4311 
Q 3641 3956 3641 3272 
Q 3641 2581 3239 2228 
Q 2838 1875 2053 1875 
L 1259 1875 
L 1259 0 
L 628 0 
L 628 4666 
z
" id="DejaVuSans-50" transform="scale(0.015625)"/>
       <path d="M 2631 2963 
Q 2534 3019 2420 3045 
Q 2306 3072 2169 3072 
Q 1681 3072 1420 2755 
Q 1159 2438 1159 1844 
L 1159 0 
L 581 0 
L 581 3500 
L 1159 3500 
L 1159 2956 
Q 1341 3275 1631 3429 
Q 1922 3584 2338 3584 
Q 2397 3584 2469 3576 
Q 2541 3569 2628 3553 
L 2631 2963 
z
M 1457 3944 
L 691 5119 
L 1126 5119 
L 1688 4353 
L 2251 5119 
L 2685 5119 
L 1919 3944 
L 1457 3944 
z
" id="DejaVuSans-159" transform="scale(0.015625)"/>
      </defs>
      <use xlink:href="#DejaVuSans-50"/>
      <use x="58.552734" xlink:href="#DejaVuSans-159"/>
      <use x="99.666016" xlink:href="#DejaVuSans-69"/>
      <use x="127.449219" xlink:href="#DejaVuSans-73"/>
      <use x="179.548828" xlink:href="#DejaVuSans-70"/>
      <use x="243.025391" xlink:href="#DejaVuSans-11b"/>
      <use x="304.548828" xlink:href="#DejaVuSans-6e"/>
      <use x="367.927734" xlink:href="#DejaVuSans-6f"/>
      <use x="429.109375" xlink:href="#DejaVuSans-20"/>
      <use x="460.896484" xlink:href="#DejaVuSans-76"/>
      <use x="520.076172" xlink:href="#DejaVuSans-20"/>
      <use x="551.863281" xlink:href="#DejaVuSans-72"/>
      <use x="590.726562" xlink:href="#DejaVuSans-6f"/>
      <use x="651.908203" xlink:href="#DejaVuSans-63"/>
      <use x="706.888672" xlink:href="#DejaVuSans-65"/>
      <use x="768.412109" xlink:href="#DejaVuSans-20"/>
      <use x="800.199219" xlink:href="#DejaVuSans-32"/>
      <use x="863.822266" xlink:href="#DejaVuSans-30"/>
      <use x="927.445312" xlink:href="#DejaVuSans-31"/>
      <use x="991.068359" xlink:href="#DejaVuSans-38"/>
     </g>
    </g>
    <g id="patch_23">
     <path d="M 494.8 375.13625 
L 510.8 375.13625 
L 510.8 369.53625 
L 494.8 369.53625 
z
" style="fill:#e1812c;"/>
    </g>
    <g id="text_19">
     <!-- Férový podíl podle HDP -->
     <g transform="translate(517.2 375.13625)scale(0.08 -0.08)">
      <defs>
       <path d="M 2059 -325 
Q 1816 -950 1584 -1140 
Q 1353 -1331 966 -1331 
L 506 -1331 
L 506 -850 
L 844 -850 
Q 1081 -850 1212 -737 
Q 1344 -625 1503 -206 
L 1606 56 
L 191 3500 
L 800 3500 
L 1894 763 
L 2988 3500 
L 3597 3500 
L 2059 -325 
z
M 2330 5119 
L 2952 5119 
L 1934 3944 
L 1455 3944 
L 2330 5119 
z
" id="DejaVuSans-fd" transform="scale(0.015625)"/>
       <path d="M 628 4666 
L 1259 4666 
L 1259 2753 
L 3553 2753 
L 3553 4666 
L 4184 4666 
L 4184 0 
L 3553 0 
L 3553 2222 
L 1259 2222 
L 1259 0 
L 628 0 
L 628 4666 
z
" id="DejaVuSans-48" transform="scale(0.015625)"/>
       <path d="M 1259 4147 
L 1259 519 
L 2022 519 
Q 2988 519 3436 956 
Q 3884 1394 3884 2338 
Q 3884 3275 3436 3711 
Q 2988 4147 2022 4147 
L 1259 4147 
z
M 628 4666 
L 1925 4666 
Q 3281 4666 3915 4102 
Q 4550 3538 4550 2338 
Q 4550 1131 3912 565 
Q 3275 0 1925 0 
L 628 0 
L 628 4666 
z
" id="DejaVuSans-44" transform="scale(0.015625)"/>
      </defs>
      <use xlink:href="#DejaVuSans-46"/>
      <use x="52.019531" xlink:href="#DejaVuSans-e9"/>
      <use x="113.542969" xlink:href="#DejaVuSans-72"/>
      <use x="152.40625" xlink:href="#DejaVuSans-6f"/>
      <use x="213.587891" xlink:href="#DejaVuSans-76"/>
      <use x="272.767578" xlink:href="#DejaVuSans-fd"/>
      <use x="331.947266" xlink:href="#DejaVuSans-20"/>
      <use x="363.734375" xlink:href="#DejaVuSans-70"/>
      <use x="427.210938" xlink:href="#DejaVuSans-6f"/>
      <use x="488.392578" xlink:href="#DejaVuSans-64"/>
      <use x="551.869141" xlink:href="#DejaVuSans-ed"/>
      <use x="579.652344" xlink:href="#DejaVuSans-6c"/>
      <use x="607.435547" xlink:href="#DejaVuSans-20"/>
      <use x="639.222656" xlink:href="#DejaVuSans-70"/>
      <use x="702.699219" xlink:href="#DejaVuSans-6f"/>
      <use x="763.880859" xlink:href="#DejaVuSans-64"/>
      <use x="827.357422" xlink:href="#DejaVuSans-6c"/>
      <use x="855.140625" xlink:href="#DejaVuSans-65"/>
      <use x="916.664062" xlink:href="#DejaVuSans-20"/>
      <use x="948.451172" xlink:href="#DejaVuSans-48"/>
      <use x="1023.646484" xlink:href="#DejaVuSans-44"/>
      <use x="1100.648438" xlink:href="#DejaVuSans-50"/>
     </g>
    </g>
   </g>
  </g>
 </g>
 <defs>
  <clipPath id="pdcd190063e">
   <rect height="362.88" width="492.48" x="129.6" y="25.92"/>
  </clipPath>
 </defs>
</svg>
