<svg id="Layer_1" data-name="Layer 1" xmlns="http://www.w3.org/2000/svg" viewBox="0 0 520 225.9"><defs><style>.cls-1,.cls-9{opacity:0.8;}.cls-2,.cls-9{fill:#3892dc;}.cls-10,.cls-3{opacity:0.7;}.cls-10,.cls-4{fill:#b4bfca;}.cls-5{fill:#a4aeb8;}.cls-6{fill:#231f20;}.cls-7,.cls-8{fill:none;}.cls-7{stroke:#231f20;stroke-miterlimit:10;stroke-width:3px;}.cls-8{stroke:#808285;stroke-linecap:square;stroke-linejoin:round;stroke-width:0.3px;stroke-dasharray:5.69;}</style></defs><path d="M9.58,18.82,8.84,20v3.84H6.18V10.55H8.84v5.09l.68-1.48,1.86-3.61h3.08l-3.38,5.82L15,23.85H12Z"/><path d="M24.59,21.29v2.56H17.94V10.55h2.7V21.29Z"/><path d="M27.78,10.55h2.7v13.3h-2.7Z"/><path d="M46.17,10.55v13.3H43.53V20.58c.08-1.61.13-3.23.21-4.84l-.1,0-1.19,3.5L41.78,21H39.12l-.66-1.8-1.2-3.5-.09,0c0,1.61.13,3.23.19,4.84v3.27H34.73V10.55h2.72l2.09,5c.27.66.72,1.82.88,2.31h.07c.15-.49.61-1.65.87-2.31l2.09-5Z"/><path d="M55.35,21.65H52.54l-.44,2.2H49.31l3.19-13.3h2.89l3.19,13.3H55.79Zm-.53-2.57-.31-1.52c-.17-.95-.4-2.56-.53-3.65h-.07c-.14,1.09-.35,2.7-.54,3.65l-.3,1.52Z"/><path d="M68,13.12h-2.6V23.85H62.67V13.12H60.06V10.55h8Z"/><path d="M71.21,10.55h2.7v13.3h-2.7Z"/><path d="M77.79,19.78V14.62c0-2.81,1.52-4.33,4.12-4.33s4.14,1.52,4.24,4.33h-2.7c-.08-1.22-.53-1.71-1.56-1.71-.81,0-1.29.53-1.29,1.71v5.16c0,1.14.46,1.68,1.29,1.68,1,0,1.52-.5,1.6-1.68h2.7c-.06,2.8-1.6,4.3-4.3,4.3S77.79,22.58,77.79,19.78Z"/><path d="M93.05,18.82,92.3,20v3.84H89.64V10.55H92.3v5.09L93,14.16l1.86-3.61h3.08l-3.38,5.82,4,7.48h-3Z"/><path d="M108.45,21.29v2.56h-7V10.55h6.85v2.57H104.1v2.75h3.78v2.47H104.1v2.95Zm-3.06-12h-1.78l1.78-2.6h2.15Z"/><path d="M120.59,13.12v2.75h3.5v2.47h-3.5v5.51H117.9V10.55h6.57v2.57Z"/><path d="M128,10.55h2.69v13.3H128Z"/><path d="M134.94,10.55h2.66l2.53,5.78c.32.83.62,1.71,1,2.54l0-.05a48.21,48.21,0,0,1-.38-5.19V10.55h2.66v13.3h-2.66l-2.24-5.15-1.19-3.25-.06.06a53.69,53.69,0,0,1,.34,5.64v2.7h-2.66Z"/><path d="M152.59,21.65h-2.81l-.44,2.2h-2.79l3.19-13.3h2.89l3.19,13.3H153Zm-.53-2.57-.3-1.52c-.18-.95-.4-2.56-.54-3.65h-.07c-.14,1.09-.35,2.7-.54,3.65l-.3,1.52Z"/><path d="M159,10.55h2.66l2.52,5.78c.33.83.63,1.71,1,2.54l.06-.05a45.76,45.76,0,0,1-.38-5.19V10.55h2.66v13.3h-2.66l-2.24-5.15-1.2-3.25-.06.06a53.8,53.8,0,0,1,.35,5.64v2.7H159Z"/><path d="M171.31,19.78V14.62c0-2.81,1.52-4.33,4.12-4.33s4.14,1.52,4.23,4.33H177c-.08-1.22-.54-1.71-1.56-1.71-.82,0-1.29.53-1.29,1.71v5.16c0,1.14.45,1.68,1.29,1.68,1,0,1.52-.5,1.6-1.68h2.69c0,2.8-1.59,4.3-4.29,4.3S171.31,22.58,171.31,19.78Z"/><path d="M190.21,21.29v2.56h-7.05V10.55H190v2.57h-4.16v2.75h3.78v2.47h-3.78v2.95Z"/><path d="M207.9,15.07c0,2.83-1.64,4.51-4.39,4.51h-1.16v4.27h-2.7V10.55h3.86C206.26,10.55,207.9,12.22,207.9,15.07Zm-2.77,0c0-1.29-.58-2-1.66-2h-1.12V17h1.12C204.55,17,205.13,16.35,205.13,15.07Z"/><path d="M211.13,19.54V14.86c0-2.85,1.61-4.54,4.31-4.54s4.31,1.69,4.31,4.54v4.68c0,2.85-1.61,4.54-4.31,4.54S211.13,22.39,211.13,19.54Zm5.83,0V14.86c0-1.25-.51-1.91-1.52-1.91s-1.52.66-1.52,1.91v4.68c0,1.25.51,1.92,1.52,1.92S217,20.79,217,19.54Z"/><path d="M222.81,20h2.78c0,1.07.53,1.52,1.38,1.52s1.33-.51,1.33-1.17c0-2.21-5.2-2.47-5.2-6.52,0-2,1.42-3.51,3.87-3.51a3.61,3.61,0,0,1,3.94,3.91h-2.78c0-.87-.4-1.31-1.17-1.31s-1.12.38-1.12,1c0,2.09,5.28,2.22,5.28,6.46,0,2.18-1.54,3.78-4.18,3.78A3.79,3.79,0,0,1,222.81,20Z"/><path d="M237.84,18.82,237.1,20v3.84h-2.66V10.55h2.66v5.09l.69-1.48,1.86-3.61h3.08l-3.39,5.82,4,7.48h-3Z"/><path d="M248.71,19.9l-3.13-9.35h2.79l1.08,3.69c.14.43.44,1.48.57,2.13h.08c.15-.65.45-1.7.61-2.19l1-3.63h2.79l-3.13,9.35v4h-2.7Z"/><path d="M264.71,13.12H262.1V23.85h-2.77V13.12h-2.6V10.55h8Z"/><path d="M267.88,10.55h2.66l2.53,5.78c.32.83.63,1.71.95,2.54l.06-.05a45.76,45.76,0,0,1-.38-5.19V10.55h2.65v13.3H273.7l-2.25-5.15-1.19-3.25-.06.06a53.69,53.69,0,0,1,.34,5.64v2.7h-2.66Z"/><path d="M280.38,19.61V10.55h2.76v9.06c0,1.2.47,1.85,1.42,1.85s1.43-.65,1.43-1.85V10.55h2.75v9.06c0,2.8-1.56,4.47-4.18,4.47S280.38,22.41,280.38,19.61Z"/><path d="M299.86,13.12h-2.6V23.85h-2.78V13.12h-2.6V10.55h8Z"/><path d="M310.08,21.29v2.56H303V10.55h6.86v2.57h-4.16v2.75h3.78v2.47h-3.78v2.95ZM307,9.28h-1.78L307,6.68h2.15Z"/><path d="M327.54,19.78c-.06,2.8-1.6,4.3-4.29,4.3s-4.11-1.5-4.11-4.3V14.62c0-2.81,1.52-4.33,4.12-4.33s4.15,1.52,4.24,4.33h-2.7c-.07-1.22-.53-1.71-1.55-1.71-.82,0-1.3.53-1.3,1.71v5.16c0,1.14.46,1.68,1.3,1.68,1,0,1.52-.5,1.59-1.68Zm-5.32-10.5-1.54-2.6h1.69L323.21,8,324,6.68h1.7l-1.54,2.6Z"/><path d="M338.05,21.29v2.56H331V10.55h6.86v2.57H333.7v2.75h3.78v2.47H333.7v2.95Z"/><path d="M341,20h2.78c0,1.07.53,1.52,1.38,1.52s1.33-.51,1.33-1.17c0-2.21-5.2-2.47-5.2-6.52,0-2,1.42-3.51,3.87-3.51a3.61,3.61,0,0,1,3.94,3.91h-2.78c0-.87-.4-1.31-1.17-1.31s-1.12.38-1.12,1c0,2.09,5.28,2.22,5.28,6.46,0,2.18-1.54,3.78-4.18,3.78A3.79,3.79,0,0,1,341,20Z"/><path d="M356,18.82,355.26,20v3.84H352.6V10.55h2.66v5.09l.69-1.48,1.86-3.61h3.07l-3.38,5.82,3.95,7.48h-3Z"/><path d="M363.85,19.54V14.86c0-2.85,1.61-4.54,4.31-4.54s4.31,1.69,4.31,4.54v4.68c0,2.85-1.61,4.54-4.31,4.54S363.85,22.39,363.85,19.54Zm5.83,0V14.86c0-1.25-.51-1.91-1.52-1.91s-1.52.66-1.52,1.91v4.68c0,1.25.52,1.92,1.52,1.92S369.68,20.79,369.68,19.54Z"/><path d="M376.12,19.61V10.55h2.76v9.06c0,1.2.47,1.85,1.42,1.85s1.43-.65,1.43-1.85V10.55h2.75v9.06c0,2.8-1.56,4.47-4.18,4.47S376.12,22.41,376.12,19.61Z"/><path d="M397.86,19.39h-.95v4.46h-2.7V10.55h3.86c2.64,0,4.2,1.64,4.2,4.43a4.21,4.21,0,0,1-1.85,3.84l2.51,5H400Zm-.95-2.57H398c1,0,1.46-.64,1.46-1.84S399,13.12,398,13.12h-1.12Z"/><path d="M413.15,21.29v2.56h-7V10.55H413v2.57H408.8v2.75h3.78v2.47H408.8v2.95Z"/><path d="M425.14,15.07c0,2.83-1.63,4.51-4.39,4.51h-1.16v4.27H416.9V10.55h3.85C423.51,10.55,425.14,12.22,425.14,15.07Zm-2.77,0c0-1.29-.57-2-1.66-2h-1.12V17h1.12C421.8,17,422.37,16.35,422.37,15.07Z"/><path d="M428.35,19.61V10.55h2.76v9.06c0,1.2.47,1.85,1.42,1.85s1.43-.65,1.43-1.85V10.55h2.75v9.06c0,2.8-1.55,4.47-4.18,4.47S428.35,22.41,428.35,19.61Z"/><path d="M448.85,19.88a3.76,3.76,0,0,1-3.91,4h-4.2V10.55h4.14a3.49,3.49,0,0,1,3.52,3.78,3.82,3.82,0,0,1-1.12,2.72A3.22,3.22,0,0,1,448.85,19.88Zm-5.41-6.78v2.77h1.06c.76,0,1.16-.49,1.16-1.42s-.38-1.35-1.25-1.35Zm2.64,6.76c0-1-.55-1.46-1.56-1.46h-1.08v2.9h1C445.53,21.3,446.08,20.81,446.08,19.86Z"/><path d="M459,21.29v2.56h-6.65V10.55h2.7V21.29Z"/><path d="M462.19,10.55h2.7v13.3h-2.7Z"/><path d="M472.55,18.82,471.81,20v3.84h-2.66V10.55h2.66v5.09l.68-1.48,1.86-3.61h3.08l-3.38,5.82L478,23.85h-3Z"/><path d="M480.39,19.54V14.86c0-2.85,1.62-4.54,4.32-4.54S489,12,489,14.86v4.68c0,2.85-1.62,4.54-4.31,4.54S480.39,22.39,480.39,19.54Zm5.84,0V14.86c0-1.25-.52-1.91-1.52-1.91s-1.52.66-1.52,1.91v4.68c0,1.25.51,1.92,1.52,1.92S486.23,20.79,486.23,19.54Z"/><path d="M492.67,19.61V10.55h2.75v9.06c0,1.2.48,1.85,1.43,1.85s1.42-.65,1.42-1.85V10.55H501v9.06c0,2.8-1.56,4.47-4.18,4.47S492.67,22.41,492.67,19.61Z"/><path d="M5.06,33.35H7.85l1.2,6.29c.19,1,.41,2.6.55,3.7h.07c.14-1.1.36-2.73.55-3.7l1.2-6.29h2.79l-3.15,13.3H8.21Z"/><path d="M26.7,42.19h-.95v4.46h-2.7V33.35h3.86c2.64,0,4.19,1.64,4.19,4.43a4.2,4.2,0,0,1-1.84,3.84l2.51,5H28.83Zm-.95-2.57h1.12c.95,0,1.46-.65,1.46-1.84s-.51-1.86-1.46-1.86H25.75Z"/><path d="M34.56,42.34V37.66c0-2.85,1.62-4.54,4.32-4.54s4.31,1.69,4.31,4.54v4.68c0,2.85-1.62,4.54-4.31,4.54S34.56,45.19,34.56,42.34Zm5.84,0V37.66c0-1.25-.52-1.91-1.52-1.91s-1.52.66-1.52,1.91v4.68c0,1.25.51,1.92,1.52,1.92S40.4,43.59,40.4,42.34Z"/><path d="M46.69,42.58V37.42c0-2.81,1.52-4.33,4.12-4.33S55,34.61,55,37.42H52.35c-.08-1.22-.54-1.71-1.56-1.71-.82,0-1.29.53-1.29,1.71v5.16c0,1.14.45,1.68,1.29,1.68,1,0,1.52-.5,1.59-1.68h2.7c0,2.8-1.59,4.3-4.29,4.3S46.69,45.38,46.69,42.58Z"/><path d="M65.59,44.09v2.56H58.54V33.35H65.4v2.57H61.24v2.75H65v2.47H61.24v3Z"/><path d="M74.29,45.05c0-4.21,4.75-6.11,4.75-8.34a1,1,0,0,0-1-1.15c-.69,0-1.1.49-1.14,1.38H74.43c.11-2.52,1.38-3.82,3.53-3.82a3.39,3.39,0,0,1,3.65,3.46c0,3.4-4.6,5.66-4.6,7.68h4.65v2.39H74.29Z"/><path d="M84.89,42.83V37.21c0-2.55,1.43-4.05,3.82-4.05s3.84,1.5,3.84,4.05v5.62c0,2.53-1.42,4-3.84,4S84.89,45.36,84.89,42.83Zm5.15,0V37.23c0-1.09-.45-1.66-1.33-1.66s-1.31.57-1.31,1.66v5.62c0,1.06.44,1.62,1.31,1.62S90,43.91,90,42.85Z"/><path d="M100.07,33.35v13.3H97.51V36.79l-1.82,1V35.06l2.77-1.71Z"/><path d="M111.38,42.36V43a3.78,3.78,0,1,1-7.56,0v-.6a3.42,3.42,0,0,1,1.25-2.7,3.76,3.76,0,0,1-1-2.49v-.4a3.55,3.55,0,1,1,7.1,0v.4a3.65,3.65,0,0,1-1,2.47A3.43,3.43,0,0,1,111.38,42.36Zm-2.57,0c0-1-.41-1.39-1.21-1.39s-1.22.42-1.22,1.39V43c0,1,.42,1.4,1.22,1.4s1.21-.42,1.21-1.4Zm-2.24-5.13c0,.93.36,1.35,1,1.35s1-.42,1-1.35v-.36c0-.92-.36-1.28-1-1.28s-1,.36-1,1.28Z"/><g class="cls-1"><rect class="cls-2" x="6.78" y="73.96" width="16.28" height="16.28"/></g><path class="cls-2" d="M38,83.94v4H36.15V77.23h4.08a4.11,4.11,0,0,1,2.83.93,3.15,3.15,0,0,1,1,2.47,3,3,0,0,1-1,2.44,4.36,4.36,0,0,1-2.89.87Zm0-1.49h2.23a2.17,2.17,0,0,0,1.5-.47,1.7,1.7,0,0,0,.52-1.34,1.83,1.83,0,0,0-.52-1.38,2,2,0,0,0-1.45-.53H38Z"/><path class="cls-2" d="M45.13,83.86a4.76,4.76,0,0,1,.46-2.1,3.35,3.35,0,0,1,1.3-1.43,3.62,3.62,0,0,1,1.92-.5,3.43,3.43,0,0,1,2.6,1,4,4,0,0,1,1.08,2.74V84a4.73,4.73,0,0,1-.45,2.1,3.38,3.38,0,0,1-1.29,1.43,3.73,3.73,0,0,1-1.94.5,3.45,3.45,0,0,1-2.68-1.11,4.3,4.3,0,0,1-1-3Zm1.78.15a3.17,3.17,0,0,0,.51,1.92,1.77,1.77,0,0,0,2.81,0,3.58,3.58,0,0,0,.5-2.06,3.1,3.1,0,0,0-.52-1.9,1.73,1.73,0,0,0-2.79,0A3.46,3.46,0,0,0,46.91,84Z"/><path class="cls-2" d="M58.45,85.74a.8.8,0,0,0-.39-.72,4.18,4.18,0,0,0-1.3-.44,7,7,0,0,1-1.52-.48,2,2,0,0,1-1.33-1.87,2.1,2.1,0,0,1,.86-1.72,3.42,3.42,0,0,1,2.2-.68,3.52,3.52,0,0,1,2.29.7,2.21,2.21,0,0,1,.88,1.82H58.36A1.11,1.11,0,0,0,58,81.5a1.45,1.45,0,0,0-1-.34,1.6,1.6,0,0,0-1,.27.86.86,0,0,0-.37.72.72.72,0,0,0,.35.64,4.62,4.62,0,0,0,1.39.46A6.35,6.35,0,0,1,59,83.8a2.34,2.34,0,0,1,.89.76,2,2,0,0,1,.29,1.09,2.07,2.07,0,0,1-.89,1.73A3.78,3.78,0,0,1,57,88a4,4,0,0,1-1.74-.35,2.84,2.84,0,0,1-1.18-1,2.24,2.24,0,0,1-.43-1.32h1.73a1.26,1.26,0,0,0,.48,1,1.82,1.82,0,0,0,1.16.34,1.78,1.78,0,0,0,1.07-.27A.82.82,0,0,0,58.45,85.74Z"/><path class="cls-2" d="M64.32,84.5l-.79.81V87.9H61.75V76.65h1.78v6.49l.56-.7L66.28,80h2.14l-3,3.3,3.26,4.63H66.67Z"/><path class="cls-2" d="M72.35,85.35,74,80h1.9L72.71,89.1a2.57,2.57,0,0,1-2.46,2,3.14,3.14,0,0,1-.86-.14V89.58l.34,0a1.75,1.75,0,0,0,1-.24,1.63,1.63,0,0,0,.54-.83l.26-.68L68.75,80h1.92Z"/><path class="cls-2" d="M79.11,78.05V80h1.4v1.32h-1.4v4.42a1,1,0,0,0,.18.66.84.84,0,0,0,.64.2,2.68,2.68,0,0,0,.62-.07v1.37a4,4,0,0,1-1.17.17c-1.37,0-2-.75-2-2.26V81.29H76V80h1.3V78.05Z"/><path class="cls-2" d="M83.52,80l0,.92a2.84,2.84,0,0,1,2.31-1.06c1.65,0,2.49.94,2.52,2.83V87.9H86.62V82.76a1.6,1.6,0,0,0-.33-1.11,1.35,1.35,0,0,0-1.07-.37,1.72,1.72,0,0,0-1.6,1V87.9H81.84V80Z"/><path class="cls-2" d="M95,87.12a2.74,2.74,0,0,1-2.23.92,2.46,2.46,0,0,1-2-.75,3.21,3.21,0,0,1-.66-2.18V80H92v5.11c0,1,.42,1.51,1.25,1.51A1.76,1.76,0,0,0,95,85.66V80h1.78V87.9H95.05Z"/><path class="cls-2" d="M100.78,78.05V80h1.39v1.32h-1.39v4.42a1,1,0,0,0,.17.66.87.87,0,0,0,.65.2,2.68,2.68,0,0,0,.62-.07v1.37a4.14,4.14,0,0,1-1.17.17c-1.37,0-2-.75-2-2.26V81.29H97.69V80H99V78.05Z"/><path class="cls-2" d="M107,88A3.67,3.67,0,0,1,104.28,87a3.87,3.87,0,0,1-1-2.84v-.22a4.69,4.69,0,0,1,.46-2.12A3.41,3.41,0,0,1,105,80.35a3.38,3.38,0,0,1,1.85-.52,3.1,3.1,0,0,1,2.5,1,4.35,4.35,0,0,1,.88,2.92v.72H105a2.43,2.43,0,0,0,.66,1.55,2,2,0,0,0,1.44.57,2.43,2.43,0,0,0,2-1l1,.92a3.23,3.23,0,0,1-1.27,1.1A4,4,0,0,1,107,88Zm-.21-6.79a1.47,1.47,0,0,0-1.18.52,2.61,2.61,0,0,0-.58,1.42h3.39v-.13a2.18,2.18,0,0,0-.47-1.35A1.52,1.52,0,0,0,106.81,81.25Zm.4-4.6h2l-2,2.22h-1.43Z"/><path class="cls-2" d="M117.89,84.5l-.79.81V87.9h-1.78V76.65h1.78v6.49l.56-.7L119.85,80H122L119,83.27l3.26,4.63h-2.06Z"/><path class="cls-2" d="M125,87.9h-1.78V76.65H125Z"/><path class="cls-2" d="M127,77.91a1,1,0,0,1,.26-.68A1,1,0,0,1,128,77a1,1,0,0,1,.75.27.92.92,0,0,1,.26.68.88.88,0,0,1-.26.67,1,1,0,0,1-.75.27,1,1,0,0,1-.74-.27A.92.92,0,0,1,127,77.91Zm1.89,10h-1.78V80h1.78Z"/><path class="cls-2" d="M132.48,80l.05.83a2.86,2.86,0,0,1,2.29-1A2.18,2.18,0,0,1,137,81a2.81,2.81,0,0,1,2.43-1.21,2.49,2.49,0,0,1,2,.72,3.23,3.23,0,0,1,.65,2.14V87.9h-1.78V82.74a1.6,1.6,0,0,0-.33-1.11,1.76,1.76,0,0,0-2.08,0,1.69,1.69,0,0,0-.54.85V87.9h-1.78V82.68a1.27,1.27,0,0,0-1.43-1.4,1.58,1.58,0,0,0-1.52.87V87.9H130.8V80Z"/><path class="cls-2" d="M148.59,87.9a3.37,3.37,0,0,1-.2-.74,3,3,0,0,1-4,.2,2.17,2.17,0,0,1-.75-1.68,2.24,2.24,0,0,1,.94-2,4.55,4.55,0,0,1,2.69-.67h1.09v-.53a1.38,1.38,0,0,0-.34-1,1.36,1.36,0,0,0-1.05-.37,1.59,1.59,0,0,0-1,.3,1,1,0,0,0-.39.78h-1.77a2,2,0,0,1,.43-1.22,2.86,2.86,0,0,1,1.17-.89,4.06,4.06,0,0,1,1.66-.32,3.35,3.35,0,0,1,2.22.69,2.5,2.5,0,0,1,.85,2v3.58a4,4,0,0,0,.3,1.7v.13Zm-2-1.29a2,2,0,0,0,1-.25,1.72,1.72,0,0,0,.7-.69V84.18h-1a2.65,2.65,0,0,0-1.49.34,1.11,1.11,0,0,0-.49,1,1,1,0,0,0,.34.82A1.31,1.31,0,0,0,146.64,86.61Z"/><path class="cls-2" d="M154.21,78.05V80h1.39v1.32h-1.39v4.42a1,1,0,0,0,.17.66.87.87,0,0,0,.65.2,2.68,2.68,0,0,0,.62-.07v1.37a4.14,4.14,0,0,1-1.17.17c-1.37,0-2.06-.75-2.06-2.26V81.29h-1.3V80h1.3V78.05Z"/><path class="cls-2" d="M157,77.91a.92.92,0,0,1,.26-.68A1,1,0,0,1,158,77a1,1,0,0,1,.75.27,1,1,0,0,1,.26.68.92.92,0,0,1-.26.67,1,1,0,0,1-.75.27,1,1,0,0,1-.74-.27A.88.88,0,0,1,157,77.91Zm1.89,10h-1.78V80h1.78Z"/><path class="cls-2" d="M164.05,86.62a1.59,1.59,0,0,0,1.1-.39,1.29,1.29,0,0,0,.47-1h1.68a2.62,2.62,0,0,1-.46,1.39,3.12,3.12,0,0,1-1.17,1,3.51,3.51,0,0,1-1.6.37A3.41,3.41,0,0,1,161.43,87a4.28,4.28,0,0,1-1-3v-.18a4.18,4.18,0,0,1,1-2.9,3.34,3.34,0,0,1,2.63-1.08,3.27,3.27,0,0,1,2.31.82,3,3,0,0,1,.93,2.16h-1.68a1.65,1.65,0,0,0-.46-1.12,1.51,1.51,0,0,0-1.11-.44,1.58,1.58,0,0,0-1.34.63,3.18,3.18,0,0,0-.47,1.9v.29A3.24,3.24,0,0,0,162.7,86,1.57,1.57,0,0,0,164.05,86.62Z"/><path class="cls-2" d="M171.22,84.5l-.79.81V87.9h-1.78V76.65h1.78v6.49l.55-.7L173.17,80h2.14l-2.94,3.3,3.26,4.63h-2.06Z"/><path class="cls-2" d="M179.82,88A3.67,3.67,0,0,1,177.08,87,3.84,3.84,0,0,1,176,84.14v-.22a4.82,4.82,0,0,1,.46-2.12,3.44,3.44,0,0,1,1.29-1.45,3.34,3.34,0,0,1,1.84-.52,3.09,3.09,0,0,1,2.5,1,4.36,4.36,0,0,1,.89,2.92v.72h-5.18a2.37,2.37,0,0,0,.65,1.55,2,2,0,0,0,1.45.57,2.4,2.4,0,0,0,2-1l1,.92a3.23,3.23,0,0,1-1.27,1.1A4,4,0,0,1,179.82,88Zm-.21-6.79a1.49,1.49,0,0,0-1.19.52,2.6,2.6,0,0,0-.57,1.42h3.39v-.13a2.18,2.18,0,0,0-.48-1.35A1.5,1.5,0,0,0,179.61,81.25Zm.4-4.6h2l-2,2.22h-1.43Z"/><path class="cls-2" d="M188.74,87.9V81.29h-1.21V80h1.21v-.72a2.72,2.72,0,0,1,.73-2,2.8,2.8,0,0,1,2.05-.72,4.58,4.58,0,0,1,1,.13l-.05,1.4a3.37,3.37,0,0,0-.68-.06c-.85,0-1.27.43-1.27,1.31V80h1.61v1.32h-1.61V87.9Z"/><path class="cls-2" d="M193.43,77.91a1,1,0,0,1,.26-.68,1,1,0,0,1,.75-.27,1,1,0,0,1,.74.27.93.93,0,0,1,.27.68.89.89,0,0,1-.27.67,1,1,0,0,1-.74.27,1,1,0,0,1-.75-.27A.92.92,0,0,1,193.43,77.91Zm1.89,10h-1.78V80h1.78Z"/><path class="cls-2" d="M198.91,80l.05.92a2.86,2.86,0,0,1,2.31-1.06c1.65,0,2.49.94,2.52,2.83V87.9H202V82.76a1.6,1.6,0,0,0-.33-1.11,1.32,1.32,0,0,0-1.06-.37,1.73,1.73,0,0,0-1.61,1V87.9h-1.78V80Z"/><path class="cls-2" d="M210.34,87.9a2.82,2.82,0,0,1-.21-.74,2.76,2.76,0,0,1-2.08.88,2.79,2.79,0,0,1-2-.68,2.17,2.17,0,0,1-.75-1.68,2.24,2.24,0,0,1,.94-2,4.59,4.59,0,0,1,2.69-.67h1.09v-.53a1.38,1.38,0,0,0-.34-1,1.36,1.36,0,0,0-1-.37,1.56,1.56,0,0,0-1,.3,1,1,0,0,0-.39.78h-1.78A2,2,0,0,1,206,81a2.82,2.82,0,0,1,1.18-.89,4,4,0,0,1,1.65-.32,3.35,3.35,0,0,1,2.22.69,2.47,2.47,0,0,1,.85,2v3.58a4,4,0,0,0,.3,1.7v.13Zm-2-1.29a2,2,0,0,0,1-.25,1.66,1.66,0,0,0,.7-.69V84.18h-1a2.61,2.61,0,0,0-1.48.34,1.11,1.11,0,0,0-.5,1,1,1,0,0,0,.34.82A1.33,1.33,0,0,0,208.38,86.61Z"/><path class="cls-2" d="M215.37,80l0,.92a2.86,2.86,0,0,1,2.31-1.06c1.65,0,2.49.94,2.52,2.83V87.9h-1.78V82.76a1.6,1.6,0,0,0-.33-1.11,1.34,1.34,0,0,0-1.06-.37,1.72,1.72,0,0,0-1.61,1V87.9h-1.78V80Z"/><path class="cls-2" d="M225.32,86.62a1.59,1.59,0,0,0,1.1-.39,1.33,1.33,0,0,0,.47-1h1.68a2.71,2.71,0,0,1-.46,1.39,3.07,3.07,0,0,1-1.18,1,3.44,3.44,0,0,1-1.59.37A3.41,3.41,0,0,1,222.7,87a4.28,4.28,0,0,1-1-3v-.18a4.23,4.23,0,0,1,1-2.9,3.38,3.38,0,0,1,2.64-1.08,3.24,3.24,0,0,1,2.3.82,2.93,2.93,0,0,1,.94,2.16h-1.68a1.65,1.65,0,0,0-.46-1.12,1.54,1.54,0,0,0-1.11-.44,1.58,1.58,0,0,0-1.34.63,3.18,3.18,0,0,0-.47,1.9v.29A3.24,3.24,0,0,0,224,86,1.57,1.57,0,0,0,225.32,86.62Z"/><path class="cls-2" d="M233.4,88A3.67,3.67,0,0,1,230.66,87a3.87,3.87,0,0,1-1-2.84v-.22a4.69,4.69,0,0,1,.46-2.12,3.41,3.41,0,0,1,1.28-1.45,3.38,3.38,0,0,1,1.85-.52,3.1,3.1,0,0,1,2.5,1,4.35,4.35,0,0,1,.88,2.92v.72H231.4a2.38,2.38,0,0,0,.66,1.55,2,2,0,0,0,1.44.57,2.43,2.43,0,0,0,2-1l1,.92a3.3,3.3,0,0,1-1.27,1.1A4,4,0,0,1,233.4,88Zm-.21-6.79a1.47,1.47,0,0,0-1.18.52,2.61,2.61,0,0,0-.58,1.42h3.39v-.13a2.18,2.18,0,0,0-.47-1.35A1.52,1.52,0,0,0,233.19,81.25Z"/><g class="cls-3"><rect class="cls-4" x="6.78" y="106.82" width="16.28" height="16.28"/></g><path class="cls-5" d="M44.28,117.29A3.77,3.77,0,0,1,43,120a4.26,4.26,0,0,1-2.92,1,4.15,4.15,0,0,1-2.24-.6,4,4,0,0,1-1.5-1.72,6.14,6.14,0,0,1-.55-2.59v-1a6.35,6.35,0,0,1,.53-2.66,4,4,0,0,1,1.54-1.77,4.26,4.26,0,0,1,2.31-.63,4.1,4.1,0,0,1,2.84,1,4,4,0,0,1,1.25,2.71H42.44a2.64,2.64,0,0,0-.67-1.66,2.22,2.22,0,0,0-1.58-.51,2.16,2.16,0,0,0-1.86.88,4.43,4.43,0,0,0-.66,2.59v1a4.72,4.72,0,0,0,.62,2.64,2.07,2.07,0,0,0,1.81.91,2.42,2.42,0,0,0,1.64-.49,2.58,2.58,0,0,0,.7-1.64Z"/><path class="cls-5" d="M47.52,113.7a2.8,2.8,0,0,1,2.21-1c1.68,0,2.54,1,2.57,2.9v5.17H50.52v-5.11a1.56,1.56,0,0,0-.36-1.16,1.43,1.43,0,0,0-1-.34,1.72,1.72,0,0,0-1.6.95v5.66H45.74V109.51h1.78Z"/><path class="cls-5" d="M56.87,118.22l1.61-5.38h1.9L57.23,122a2.58,2.58,0,0,1-2.47,2,3.13,3.13,0,0,1-.85-.14v-1.38l.34,0a1.77,1.77,0,0,0,1-.24,1.63,1.63,0,0,0,.54-.83l.25-.68-2.78-7.88h1.92Z"/><path class="cls-5" d="M68.35,116.88a4.77,4.77,0,0,1-.82,2.94,2.69,2.69,0,0,1-2.27,1.09,2.58,2.58,0,0,1-2.17-1l-.08.85H61.39V109.51h1.78v4.09a2.62,2.62,0,0,1,2.08-.91,2.7,2.7,0,0,1,2.27,1.08,4.79,4.79,0,0,1,.83,3Zm-1.78-.15a3.35,3.35,0,0,0-.45-1.93,1.52,1.52,0,0,0-1.32-.65,1.67,1.67,0,0,0-1.63,1v3.27a1.67,1.67,0,0,0,1.64,1,1.51,1.51,0,0,0,1.29-.62,3.21,3.21,0,0,0,.47-1.88Z"/><path class="cls-5" d="M73.33,120.91a3.67,3.67,0,0,1-2.74-1.06,3.89,3.89,0,0,1-1-2.84v-.22a4.69,4.69,0,0,1,.46-2.12,3.39,3.39,0,0,1,3.13-2,3.11,3.11,0,0,1,2.5,1,4.34,4.34,0,0,1,.88,2.92v.72H71.33a2.38,2.38,0,0,0,.66,1.55,2,2,0,0,0,1.44.57,2.43,2.43,0,0,0,2-1l1,.92a3.3,3.3,0,0,1-1.27,1.1A4,4,0,0,1,73.33,120.91ZM73,110.64l1.07-1.13h1.52v.07l-2,2h-1.1l-2-2.05v-.06h1.51Zm.13,3.48a1.49,1.49,0,0,0-1.18.51,2.67,2.67,0,0,0-.58,1.43h3.39v-.13a2.19,2.19,0,0,0-.47-1.35A1.49,1.49,0,0,0,73.12,114.12Z"/><path class="cls-5" d="M79.75,112.84v8.63a2.55,2.55,0,0,1-.61,1.85,2.29,2.29,0,0,1-1.76.65,3.69,3.69,0,0,1-.95-.13v-1.41a2.48,2.48,0,0,0,.63.07c.59,0,.89-.32.91-1v-8.69Zm-1.94-2.06a1,1,0,0,1,.26-.68,1.18,1.18,0,0,1,1.5,0,1,1,0,0,1,.26.68.94.94,0,0,1-.26.67,1.18,1.18,0,0,1-1.5,0A.94.94,0,0,1,77.81,110.78Z"/><path class="cls-5" d="M83.56,120.76H81.78v-7.92h1.78Zm-.33-11.19h2l-2,2.21H81.8Z"/><path class="cls-5" d="M88.84,119.49A1.6,1.6,0,0,0,90,119.1a1.35,1.35,0,0,0,.47-1H92.1a2.57,2.57,0,0,1-.47,1.38,2.92,2.92,0,0,1-1.17,1,3.44,3.44,0,0,1-1.59.37,3.38,3.38,0,0,1-2.64-1.08,4.23,4.23,0,0,1-1-3v-.18a4.23,4.23,0,0,1,1-2.9,3.39,3.39,0,0,1,2.64-1.09,3.25,3.25,0,0,1,2.3.83,2.93,2.93,0,0,1,.94,2.16H90.42a1.64,1.64,0,0,0-.47-1.12,1.51,1.51,0,0,0-1.11-.44,1.56,1.56,0,0,0-1.33.63,3.16,3.16,0,0,0-.47,1.9v.28a3.29,3.29,0,0,0,.46,1.93A1.57,1.57,0,0,0,88.84,119.49Z"/><path class="cls-5" d="M95.36,120.76H93.58v-7.92h1.78ZM95,109.57h2l-2,2.21H93.59Z"/><path class="cls-5" d="M100.78,116.74a4.75,4.75,0,0,1,.85-2.94,2.73,2.73,0,0,1,2.28-1.11,2.62,2.62,0,0,1,2,.88v-4.06h1.78v11.25h-1.62l-.08-.82a2.63,2.63,0,0,1-2.13,1,2.72,2.72,0,0,1-2.26-1.12A4.91,4.91,0,0,1,100.78,116.74Zm1.78.16a3.29,3.29,0,0,0,.47,1.88,1.49,1.49,0,0,0,1.32.68,1.68,1.68,0,0,0,1.6-1V115.1a1.67,1.67,0,0,0-1.59-.95,1.52,1.52,0,0,0-1.33.69A3.67,3.67,0,0,0,102.56,116.9Z"/><path class="cls-5" d="M109.25,116.73a4.63,4.63,0,0,1,.46-2.1,3.35,3.35,0,0,1,1.3-1.43,3.58,3.58,0,0,1,1.92-.51,3.46,3.46,0,0,1,2.6,1,4,4,0,0,1,1.08,2.74v.41a4.76,4.76,0,0,1-.45,2.1,3.38,3.38,0,0,1-1.29,1.43,3.76,3.76,0,0,1-1.94.5,3.41,3.41,0,0,1-2.68-1.12,4.26,4.26,0,0,1-1-3Zm1.78.15a3.25,3.25,0,0,0,.5,1.92,1.66,1.66,0,0,0,1.41.69,1.61,1.61,0,0,0,1.4-.7,3.5,3.5,0,0,0,.5-2.06,3.2,3.2,0,0,0-.51-1.91,1.67,1.67,0,0,0-1.4-.7,1.63,1.63,0,0,0-1.39.69A3.49,3.49,0,0,0,111,116.88Z"/><path class="cls-5" d="M122.48,120.76v-6.6h-1.2v-1.32h1.2v-.73a2.72,2.72,0,0,1,.74-2,2.8,2.8,0,0,1,2-.72,4,4,0,0,1,1,.13l0,1.39a4.5,4.5,0,0,0-.68,0,1.14,1.14,0,0,0-1.28,1.31v.7h1.62v1.32h-1.62v6.6Z"/><path class="cls-5" d="M130.49,120.91a3.67,3.67,0,0,1-2.74-1.06,3.89,3.89,0,0,1-1-2.84v-.22a4.82,4.82,0,0,1,.45-2.12,3.53,3.53,0,0,1,1.29-1.46,3.46,3.46,0,0,1,1.85-.52,3.12,3.12,0,0,1,2.5,1,4.39,4.39,0,0,1,.88,2.92v.72h-5.18a2.33,2.33,0,0,0,.66,1.55,2,2,0,0,0,1.44.57,2.4,2.4,0,0,0,2-1l1,.92a3.16,3.16,0,0,1-1.27,1.1A4,4,0,0,1,130.49,120.91Zm-.21-6.79a1.51,1.51,0,0,0-1.19.51,2.67,2.67,0,0,0-.57,1.43h3.39v-.13a2.13,2.13,0,0,0-.48-1.35A1.45,1.45,0,0,0,130.28,114.12Zm.4-4.61h2l-2,2.22h-1.43Z"/><path class="cls-5" d="M139.2,114.47a4.4,4.4,0,0,0-.73-.06,1.63,1.63,0,0,0-1.64.93v5.42h-1.78v-7.92h1.7l0,.89a2,2,0,0,1,1.79-1,1.65,1.65,0,0,1,.63.11Z"/><path class="cls-5" d="M139.73,116.73a4.63,4.63,0,0,1,.46-2.1,3.39,3.39,0,0,1,1.29-1.43,3.63,3.63,0,0,1,1.92-.51,3.48,3.48,0,0,1,2.61,1,4.1,4.1,0,0,1,1.08,2.74v.41a4.76,4.76,0,0,1-.45,2.1,3.38,3.38,0,0,1-1.29,1.43,3.7,3.7,0,0,1-1.93.5,3.43,3.43,0,0,1-2.69-1.12,4.25,4.25,0,0,1-1-3Zm1.78.15a3.18,3.18,0,0,0,.5,1.92,1.66,1.66,0,0,0,1.41.69,1.61,1.61,0,0,0,1.4-.7,3.58,3.58,0,0,0,.5-2.06,3.2,3.2,0,0,0-.51-1.91,1.69,1.69,0,0,0-1.41-.7,1.63,1.63,0,0,0-1.38.69A3.49,3.49,0,0,0,141.51,116.88Z"/><path class="cls-5" d="M151.28,118.51l1.68-5.67h1.84l-2.75,7.92h-1.54l-2.77-7.92h1.84Z"/><path class="cls-5" d="M159.3,120.91a3.67,3.67,0,0,1-2.74-1.06,3.89,3.89,0,0,1-1.05-2.84v-.22a4.69,4.69,0,0,1,.46-2.12,3.39,3.39,0,0,1,3.13-2,3.11,3.11,0,0,1,2.5,1,4.34,4.34,0,0,1,.88,2.92v.72H157.3a2.43,2.43,0,0,0,.66,1.55,2,2,0,0,0,1.45.57,2.41,2.41,0,0,0,2-1l1,.92a3.23,3.23,0,0,1-1.27,1.1A4,4,0,0,1,159.3,120.91Zm-.21-6.79a1.49,1.49,0,0,0-1.18.51,2.75,2.75,0,0,0-.58,1.43h3.39v-.13a2.13,2.13,0,0,0-.47-1.35A1.49,1.49,0,0,0,159.09,114.12Zm.4-4.61h2l-2,2.22h-1.42Z"/><path class="cls-5" d="M165.62,113.7a2.78,2.78,0,0,1,2.2-1c1.69,0,2.55,1,2.57,2.9v5.17h-1.78v-5.11a1.61,1.61,0,0,0-.35-1.16,1.46,1.46,0,0,0-1-.34,1.71,1.71,0,0,0-1.59.95v5.66h-1.78V109.51h1.78Z"/><path class="cls-5" d="M171.86,116.73a4.63,4.63,0,0,1,.46-2.1,3.39,3.39,0,0,1,1.29-1.43,3.63,3.63,0,0,1,1.92-.51,3.48,3.48,0,0,1,2.61,1,4.1,4.1,0,0,1,1.08,2.74v.41a4.63,4.63,0,0,1-.46,2.1,3.35,3.35,0,0,1-1.28,1.43,3.76,3.76,0,0,1-1.94.5,3.44,3.44,0,0,1-2.69-1.12,4.25,4.25,0,0,1-1-3Zm1.78.15a3.25,3.25,0,0,0,.5,1.92,1.66,1.66,0,0,0,1.41.69,1.61,1.61,0,0,0,1.4-.7,3.5,3.5,0,0,0,.5-2.06,3.2,3.2,0,0,0-.51-1.91,1.69,1.69,0,0,0-1.41-.7,1.63,1.63,0,0,0-1.38.69A3.49,3.49,0,0,0,173.64,116.88Z"/><path class="cls-5" d="M191.41,116.88a4.71,4.71,0,0,1-.84,2.94,2.9,2.9,0,0,1-4.33.23v3.76h-1.78v-11h1.64l.08.81a2.6,2.6,0,0,1,2.13-1,2.7,2.7,0,0,1,2.27,1.08,4.84,4.84,0,0,1,.83,3Zm-1.78-.15a3.25,3.25,0,0,0-.47-1.88,1.51,1.51,0,0,0-1.35-.7,1.64,1.64,0,0,0-1.57.9v3.52a1.66,1.66,0,0,0,1.58.92,1.54,1.54,0,0,0,1.33-.68A3.65,3.65,0,0,0,189.63,116.73Z"/><path class="cls-5" d="M192.58,116.73a4.63,4.63,0,0,1,.46-2.1,3.35,3.35,0,0,1,1.3-1.43,3.58,3.58,0,0,1,1.92-.51,3.47,3.47,0,0,1,2.6,1,4.1,4.1,0,0,1,1.08,2.74v.41a4.76,4.76,0,0,1-.45,2.1,3.38,3.38,0,0,1-1.29,1.43,3.76,3.76,0,0,1-1.94.5,3.41,3.41,0,0,1-2.68-1.12,4.21,4.21,0,0,1-1-3Zm1.78.15a3.25,3.25,0,0,0,.5,1.92,1.66,1.66,0,0,0,1.41.69,1.61,1.61,0,0,0,1.4-.7,3.5,3.5,0,0,0,.5-2.06,3.2,3.2,0,0,0-.51-1.91,1.68,1.68,0,0,0-1.4-.7,1.63,1.63,0,0,0-1.39.69A3.49,3.49,0,0,0,194.36,116.88Z"/><path class="cls-5" d="M201.12,116.74a4.69,4.69,0,0,1,.85-2.94,2.7,2.7,0,0,1,2.27-1.11,2.62,2.62,0,0,1,2,.88v-4.06h1.78v11.25h-1.61l-.09-.82a2.6,2.6,0,0,1-2.13,1,2.69,2.69,0,0,1-2.25-1.12A4.85,4.85,0,0,1,201.12,116.74Zm1.78.16a3.29,3.29,0,0,0,.46,1.88,1.49,1.49,0,0,0,1.32.68,1.68,1.68,0,0,0,1.6-1V115.1a1.66,1.66,0,0,0-1.58-.95,1.5,1.5,0,0,0-1.33.69A3.59,3.59,0,0,0,202.9,116.9Z"/><path class="cls-5" d="M211.83,120.76h-1.78v-7.92h1.78Zm-.33-11.19h2l-2,2.21h-1.43Z"/><path class="cls-5" d="M215.75,120.76H214V109.51h1.78Z"/><path class="cls-5" d="M222.49,120a2.78,2.78,0,0,1-2.23.92,2.46,2.46,0,0,1-1.95-.75,3.24,3.24,0,0,1-.66-2.19v-5.13h1.78V118c0,1,.41,1.51,1.25,1.51a1.76,1.76,0,0,0,1.75-.93v-5.69h1.78v7.92h-1.68Z"/><path class="cls-6" d="M324,84.24h-4.29v4.52H317.8V78.1h6.78v1.49h-4.92v3.17H324Z"/><path class="cls-6" d="M329.21,88.91a3.68,3.68,0,0,1-2.74-1.07A3.84,3.84,0,0,1,325.41,85v-.22a4.85,4.85,0,0,1,.46-2.12,3.57,3.57,0,0,1,1.29-1.45,3.34,3.34,0,0,1,1.84-.52,3.12,3.12,0,0,1,2.51,1,4.41,4.41,0,0,1,.88,2.92v.72h-5.18a2.35,2.35,0,0,0,.65,1.55,2,2,0,0,0,1.45.58,2.4,2.4,0,0,0,2-1l1,.91a3.09,3.09,0,0,1-1.27,1.1A3.85,3.85,0,0,1,329.21,88.91ZM329,82.12a1.51,1.51,0,0,0-1.19.51,2.64,2.64,0,0,0-.57,1.43h3.39v-.13a2.19,2.19,0,0,0-.48-1.36A1.48,1.48,0,0,0,329,82.12Zm.4-4.61h2l-2,2.22H328Z"/><path class="cls-6" d="M337.92,82.46a4.4,4.4,0,0,0-.73-.06,1.66,1.66,0,0,0-1.65.94v5.42h-1.78V80.84h1.7l.05.88a2,2,0,0,1,1.79-1,1.58,1.58,0,0,1,.62.1Z"/><path class="cls-6" d="M338.44,84.72a4.62,4.62,0,0,1,.47-2.09,3.35,3.35,0,0,1,1.29-1.44,3.71,3.71,0,0,1,1.92-.5,3.47,3.47,0,0,1,2.61,1,4.12,4.12,0,0,1,1.08,2.74v.42a4.69,4.69,0,0,1-.45,2.09,3.32,3.32,0,0,1-1.29,1.43,3.64,3.64,0,0,1-1.93.51,3.46,3.46,0,0,1-2.69-1.12,4.29,4.29,0,0,1-1-3Zm1.78.16a3.16,3.16,0,0,0,.51,1.91,1.75,1.75,0,0,0,2.81,0,3.56,3.56,0,0,0,.5-2.06,3.1,3.1,0,0,0-.52-1.9,1.74,1.74,0,0,0-2.78,0A3.47,3.47,0,0,0,340.22,84.88Z"/><path class="cls-6" d="M350,86.5l1.68-5.66h1.84l-2.75,7.92h-1.54l-2.77-7.92h1.84Z"/><path class="cls-6" d="M357.4,86.21,359,80.84h1.9L357.76,90a2.56,2.56,0,0,1-2.46,2,3.1,3.1,0,0,1-.86-.13V90.44l.34,0a1.72,1.72,0,0,0,1-.25,1.6,1.6,0,0,0,.54-.82l.26-.68-2.79-7.88h1.92Zm.6-8.7h2l-2,2.22h-1.43Z"/><path class="cls-6" d="M372.6,84.88a4.7,4.7,0,0,1-.83,2.93,2.89,2.89,0,0,1-4.33.24v3.76h-1.78v-11h1.64l.08.8a2.62,2.62,0,0,1,2.13-1,2.7,2.7,0,0,1,2.27,1.08,4.84,4.84,0,0,1,.82,3Zm-1.77-.16a3.35,3.35,0,0,0-.47-1.88,1.54,1.54,0,0,0-1.35-.69,1.64,1.64,0,0,0-1.57.9v3.51a1.65,1.65,0,0,0,1.58.93,1.53,1.53,0,0,0,1.33-.69A3.65,3.65,0,0,0,370.83,84.72Z"/><path class="cls-6" d="M373.78,84.72a4.62,4.62,0,0,1,.46-2.09,3.42,3.42,0,0,1,1.29-1.44,3.71,3.71,0,0,1,1.92-.5,3.47,3.47,0,0,1,2.61,1,4.12,4.12,0,0,1,1.08,2.74v.42a4.56,4.56,0,0,1-.46,2.09,3.36,3.36,0,0,1-1.28,1.43,3.67,3.67,0,0,1-1.94.51,3.48,3.48,0,0,1-2.69-1.12,4.28,4.28,0,0,1-1-3Zm1.78.16a3.23,3.23,0,0,0,.5,1.91,1.64,1.64,0,0,0,1.41.7,1.62,1.62,0,0,0,1.4-.71,3.48,3.48,0,0,0,.5-2.06,3.17,3.17,0,0,0-.51-1.9,1.66,1.66,0,0,0-1.41-.7,1.63,1.63,0,0,0-1.38.69A3.47,3.47,0,0,0,375.56,84.88Z"/><path class="cls-6" d="M382.32,84.74a4.69,4.69,0,0,1,.85-2.94,2.7,2.7,0,0,1,2.27-1.11,2.59,2.59,0,0,1,2,.88V77.51h1.78V88.76h-1.61l-.09-.82a2.63,2.63,0,0,1-2.13,1,2.71,2.71,0,0,1-2.25-1.12A4.87,4.87,0,0,1,382.32,84.74Zm1.78.15a3.3,3.3,0,0,0,.46,1.89,1.51,1.51,0,0,0,1.32.68,1.69,1.69,0,0,0,1.6-1V83.1a1.64,1.64,0,0,0-1.58-.95,1.52,1.52,0,0,0-1.34.68A3.7,3.7,0,0,0,384.1,84.89Z"/><path class="cls-6" d="M393,88.76h-1.78V80.84H393Zm-.34-11.2h2l-2,2.22h-1.42Z"/><path class="cls-6" d="M397,88.76h-1.78V77.51H397Z"/><path class="cls-6" d="M409.56,84.88a4.76,4.76,0,0,1-.83,2.93,2.89,2.89,0,0,1-4.33.24v3.76h-1.78v-11h1.64l.07.8a2.65,2.65,0,0,1,2.13-1,2.71,2.71,0,0,1,2.28,1.08,4.84,4.84,0,0,1,.82,3Zm-1.77-.16a3.35,3.35,0,0,0-.47-1.88,1.55,1.55,0,0,0-1.35-.69,1.64,1.64,0,0,0-1.57.9v3.51a1.65,1.65,0,0,0,1.58.93,1.53,1.53,0,0,0,1.33-.69A3.65,3.65,0,0,0,407.79,84.72Z"/><path class="cls-6" d="M410.73,84.72a4.62,4.62,0,0,1,.47-2.09,3.29,3.29,0,0,1,1.29-1.44,3.71,3.71,0,0,1,1.92-.5,3.43,3.43,0,0,1,2.6,1,4,4,0,0,1,1.08,2.74v.42a4.69,4.69,0,0,1-.45,2.09,3.32,3.32,0,0,1-1.29,1.43,3.65,3.65,0,0,1-1.94.51,3.46,3.46,0,0,1-2.68-1.12,4.29,4.29,0,0,1-1-3Zm1.78.16a3.16,3.16,0,0,0,.51,1.91,1.75,1.75,0,0,0,2.81,0,3.56,3.56,0,0,0,.5-2.06,3.1,3.1,0,0,0-.52-1.9,1.74,1.74,0,0,0-2.78,0A3.4,3.4,0,0,0,412.51,84.88Z"/><path class="cls-6" d="M419.27,84.74a4.75,4.75,0,0,1,.85-2.94,2.73,2.73,0,0,1,2.28-1.11,2.59,2.59,0,0,1,2,.88V77.51h1.78V88.76h-1.61l-.09-.82a2.63,2.63,0,0,1-2.13,1,2.71,2.71,0,0,1-2.25-1.12A4.87,4.87,0,0,1,419.27,84.74Zm1.78.15a3.3,3.3,0,0,0,.47,1.89,1.51,1.51,0,0,0,1.32.68,1.69,1.69,0,0,0,1.6-1V83.1a1.65,1.65,0,0,0-1.58-.95,1.52,1.52,0,0,0-1.34.68A3.69,3.69,0,0,0,421.05,84.89Z"/><path class="cls-6" d="M430,88.76h-1.78V77.51H430Z"/><path class="cls-6" d="M435.4,88.91a3.7,3.7,0,0,1-2.75-1.07,3.87,3.87,0,0,1-1-2.84v-.22a4.72,4.72,0,0,1,.46-2.12,3.47,3.47,0,0,1,1.28-1.45,3.4,3.4,0,0,1,1.85-.52,3.1,3.1,0,0,1,2.5,1,4.35,4.35,0,0,1,.88,2.92v.72H433.4a2.35,2.35,0,0,0,.65,1.55,1.94,1.94,0,0,0,1.45.58,2.41,2.41,0,0,0,2-1l1,.91a3.15,3.15,0,0,1-1.27,1.1A3.88,3.88,0,0,1,435.4,88.91Zm-.22-6.79a1.49,1.49,0,0,0-1.18.51,2.72,2.72,0,0,0-.58,1.43h3.4v-.13a2.19,2.19,0,0,0-.48-1.36A1.5,1.5,0,0,0,435.18,82.12Z"/><path class="cls-6" d="M452.33,88.76h-1.85V84h-4.76v4.73h-1.86V78.1h1.86v4.43h4.76V78.1h1.85Z"/><path class="cls-6" d="M454.52,88.76V78.1h3.15a5,5,0,0,1,2.51.63,4.27,4.27,0,0,1,1.69,1.78,5.68,5.68,0,0,1,.6,2.65v.54a5.71,5.71,0,0,1-.6,2.67,4.31,4.31,0,0,1-1.72,1.77,5.24,5.24,0,0,1-2.56.62Zm1.85-9.17v7.69h1.21a2.78,2.78,0,0,0,2.24-.91,4,4,0,0,0,.79-2.62v-.59a4.08,4.08,0,0,0-.75-2.65,2.68,2.68,0,0,0-2.19-.92Z"/><path class="cls-6" d="M466.17,84.81v4h-1.85V78.1h4.08a4.14,4.14,0,0,1,2.84.93,3.13,3.13,0,0,1,1.05,2.46,3,3,0,0,1-1,2.44,4.35,4.35,0,0,1-2.88.88Zm0-1.5h2.23a2.2,2.2,0,0,0,1.51-.46,1.74,1.74,0,0,0,.52-1.35,1.87,1.87,0,0,0-.53-1.38,2.06,2.06,0,0,0-1.45-.53h-2.28Z"/><line class="cls-7" x1="304.28" y1="71.61" x2="304.28" y2="94.31"/><path d="M57.54,168.06a3.84,3.84,0,0,1-1.21,2.58,4,4,0,0,1-2.72.89,3.74,3.74,0,0,1-2.1-.6,3.91,3.91,0,0,1-1.41-1.68,5.9,5.9,0,0,1-.5-2.48v-1.39a6,6,0,0,1,.5-2.52,3.84,3.84,0,0,1,1.43-1.69,3.89,3.89,0,0,1,2.15-.6,3.56,3.56,0,0,1,3.86,3.48h-.91a2.72,2.72,0,0,0-3-2.72,2.77,2.77,0,0,0-2.31,1.09,4.66,4.66,0,0,0-.86,3v1.3a4.82,4.82,0,0,0,.83,2.95,2.72,2.72,0,0,0,2.27,1.1,3,3,0,0,0,2.13-.68,3.23,3.23,0,0,0,.89-2Zm-3.94-8.92,1.26-1.42h.78v.09l-1.73,1.91h-.63l-1.73-1.92v-.08h.79Z"/><path d="M62.59,171.53a3.49,3.49,0,0,1-1.83-.5,3.42,3.42,0,0,1-1.27-1.39,4.35,4.35,0,0,1-.45-2v-.32a4.75,4.75,0,0,1,.44-2.06,3.56,3.56,0,0,1,1.24-1.44,3.1,3.1,0,0,1,1.71-.52,2.85,2.85,0,0,1,2.29,1,4,4,0,0,1,.85,2.69v.49H59.91v.17a3.33,3.33,0,0,0,.77,2.24,2.47,2.47,0,0,0,2,.9,2.86,2.86,0,0,0,1.24-.26,2.76,2.76,0,0,0,1-.82l.55.42A3.21,3.21,0,0,1,62.59,171.53Zm-.16-7.47a2.22,2.22,0,0,0-1.67.72,3.41,3.41,0,0,0-.82,1.95h4.75v-.09a2.85,2.85,0,0,0-.65-1.86A2,2,0,0,0,62.43,164.06Z"/><path d="M72,169.37a1.25,1.25,0,0,0-.53-1.05,4.09,4.09,0,0,0-1.57-.62,7.28,7.28,0,0,1-1.64-.51,2.17,2.17,0,0,1-.87-.71,1.82,1.82,0,0,1-.28-1,1.88,1.88,0,0,1,.79-1.55,3.14,3.14,0,0,1,2-.61,3.23,3.23,0,0,1,2.13.66,2.07,2.07,0,0,1,.8,1.71H72a1.41,1.41,0,0,0-.58-1.16,2.63,2.63,0,0,0-2.85-.08,1.2,1.2,0,0,0-.53,1,1.08,1.08,0,0,0,.44.92A4.52,4.52,0,0,0,70,167a7,7,0,0,1,1.72.58,2.19,2.19,0,0,1,.86.74,2,2,0,0,1-.53,2.65,4.06,4.06,0,0,1-4.36-.07,2.08,2.08,0,0,1-.86-1.7h.88a1.51,1.51,0,0,0,.65,1.2,2.59,2.59,0,0,0,1.57.43,2.54,2.54,0,0,0,1.48-.4A1.21,1.21,0,0,0,72,169.37Z"/><path d="M76.75,167.39l-1,1v3h-.88V160.13h.88v7.2l.82-.89,3-3h1.1l-3.36,3.34L81,171.38H80Z"/><path d="M87.21,171.38a4.37,4.37,0,0,1-.16-1.1,3,3,0,0,1-1.18.92,3.54,3.54,0,0,1-1.51.33,2.64,2.64,0,0,1-1.85-.64,2.07,2.07,0,0,1-.71-1.61,2.11,2.11,0,0,1,1-1.83,4.6,4.6,0,0,1,2.68-.68H87v-.9a1.72,1.72,0,0,0-.52-1.33,2.15,2.15,0,0,0-1.53-.49,2.42,2.42,0,0,0-1.52.47,1.39,1.39,0,0,0-.6,1.13H82a2.06,2.06,0,0,1,.88-1.64,3.41,3.41,0,0,1,2.16-.69,3.08,3.08,0,0,1,2.09.66,2.38,2.38,0,0,1,.79,1.85v3.75a4.66,4.66,0,0,0,.24,1.72v.09Zm-2.75-.63a3,3,0,0,0,1.57-.42,2.53,2.53,0,0,0,1-1.14v-1.74H85.47a3.93,3.93,0,0,0-2,.48,1.45,1.45,0,0,0-.74,1.28,1.41,1.41,0,0,0,.5,1.1A1.81,1.81,0,0,0,84.46,170.75Zm1.73-10.62h1.06l-1.69,2.05h-.77Z"/><path d="M97.56,164.2a3.83,3.83,0,0,0-.6,0,2.15,2.15,0,0,0-1.38.46,2.52,2.52,0,0,0-.81,1.33v5.44h-.88v-7.92h.86l0,1.26A2.32,2.32,0,0,1,97,163.31a1.34,1.34,0,0,1,.58.1Z"/><path d="M101.87,171.53A3.49,3.49,0,0,1,100,171a3.42,3.42,0,0,1-1.27-1.39,4.35,4.35,0,0,1-.45-2v-.32a4.75,4.75,0,0,1,.44-2.06,3.56,3.56,0,0,1,1.24-1.44,3.1,3.1,0,0,1,1.71-.52,2.85,2.85,0,0,1,2.29,1,4,4,0,0,1,.85,2.69v.49H99.19v.17a3.33,3.33,0,0,0,.77,2.24,2.47,2.47,0,0,0,2,.9,2.86,2.86,0,0,0,1.24-.26,2.76,2.76,0,0,0,1-.82l.55.42A3.21,3.21,0,0,1,101.87,171.53Zm-.16-7.47a2.22,2.22,0,0,0-1.67.72,3.41,3.41,0,0,0-.82,1.95H104v-.09a2.85,2.85,0,0,0-.65-1.86A2,2,0,0,0,101.71,164.06Z"/><path d="M112.92,167.5a4.73,4.73,0,0,1-.82,2.94,2.59,2.59,0,0,1-2.19,1.09,2.92,2.92,0,0,1-2.49-1.14v4h-.88v-11h.82l0,1.12a2.8,2.8,0,0,1,2.48-1.27,2.63,2.63,0,0,1,2.23,1.08,4.85,4.85,0,0,1,.81,3Zm-.88-.15a4.07,4.07,0,0,0-.62-2.4,2,2,0,0,0-1.73-.88,2.3,2.3,0,0,0-2.27,1.52v3.8a2.3,2.3,0,0,0,.9,1,2.58,2.58,0,0,0,1.38.36,2,2,0,0,0,1.72-.88A4.38,4.38,0,0,0,112,167.35Z"/><path d="M120,170.38a2.85,2.85,0,0,1-2.53,1.15,2.45,2.45,0,0,1-1.92-.74,3.16,3.16,0,0,1-.67-2.18v-5.15h.87v5c0,1.51.61,2.27,1.83,2.27a2.25,2.25,0,0,0,2.41-1.58v-5.73h.88v7.92H120Z"/><path d="M129.48,167.5a4.73,4.73,0,0,1-.82,2.94,2.6,2.6,0,0,1-2.2,1.09A2.85,2.85,0,0,1,124,170.3l0,1.08h-.82V160.13H124v4.48a2.73,2.73,0,0,1,2.47-1.3,2.67,2.67,0,0,1,2.23,1.07,4.87,4.87,0,0,1,.81,3Zm-.88-.15a4.14,4.14,0,0,0-.6-2.42,2,2,0,0,0-1.72-.86,2.39,2.39,0,0,0-1.43.42,2.49,2.49,0,0,0-.88,1.21v3.57a2.34,2.34,0,0,0,2.33,1.5,2,2,0,0,0,1.69-.86A4.4,4.4,0,0,0,128.6,167.35Z"/><path d="M132.4,171.38h-.88V160.13h.88Z"/><path d="M134.73,161.17a.57.57,0,0,1,.16-.42.59.59,0,0,1,.44-.17.6.6,0,0,1,.44.17.57.57,0,0,1,.17.42.57.57,0,0,1-.17.41.6.6,0,0,1-.44.17.59.59,0,0,1-.44-.17A.56.56,0,0,1,134.73,161.17Zm1,10.21h-.88v-7.92h.88Z"/><path d="M140,167.39l-1,1v3h-.88V160.13H139v7.2l.83-.89,3-3H144l-3.37,3.34,3.66,4.58h-1.05Z"/><path d="M150.49,171.38a3.9,3.9,0,0,1-.17-1.1,3,3,0,0,1-1.18.92,3.54,3.54,0,0,1-1.51.33,2.64,2.64,0,0,1-1.85-.64,2.06,2.06,0,0,1-.7-1.61,2.12,2.12,0,0,1,1-1.83,4.62,4.62,0,0,1,2.68-.68h1.59v-.9a1.72,1.72,0,0,0-.52-1.33,2.15,2.15,0,0,0-1.53-.49,2.39,2.39,0,0,0-1.51.47,1.39,1.39,0,0,0-.6,1.13h-.88a2,2,0,0,1,.88-1.64,3.37,3.37,0,0,1,2.16-.69,3.1,3.1,0,0,1,2.09.66,2.37,2.37,0,0,1,.78,1.85v3.75a4.62,4.62,0,0,0,.25,1.72v.09Zm-2.76-.63a3,3,0,0,0,1.58-.42,2.51,2.51,0,0,0,1-1.14v-1.74h-1.56a3.9,3.9,0,0,0-2.05.48,1.43,1.43,0,0,0-.74,1.28,1.4,1.4,0,0,0,.49,1.1A1.83,1.83,0,0,0,147.73,170.75Z"/><path d="M167.38,199.35a5.92,5.92,0,0,1-.83,3.43,3.14,3.14,0,0,1-4.86,0,5.68,5.68,0,0,1-.87-3.34v-1.91a5.78,5.78,0,0,1,.84-3.41,3.17,3.17,0,0,1,4.85,0,5.6,5.6,0,0,1,.87,3.3Zm-.88-1.91a5.2,5.2,0,0,0-.6-2.77,2,2,0,0,0-1.81-.94,2,2,0,0,0-1.78.92,5,5,0,0,0-.62,2.7v2.1a5.24,5.24,0,0,0,.62,2.79,2.16,2.16,0,0,0,3.58,0,5.29,5.29,0,0,0,.61-2.77Z"/><path d="M233.77,203.8h-.88v-9.61l-2.9,1.07v-.82l3.63-1.34h.15Z"/><path d="M244.43,199.35a5.93,5.93,0,0,1-.82,3.43,3.15,3.15,0,0,1-4.87,0,5.69,5.69,0,0,1-.86-3.34v-1.91a5.85,5.85,0,0,1,.83-3.41,3.18,3.18,0,0,1,4.86,0,5.6,5.6,0,0,1,.86,3.3Zm-.88-1.91a5.21,5.21,0,0,0-.59-2.77,2.21,2.21,0,0,0-3.6,0,5,5,0,0,0-.61,2.7v2.1a5.24,5.24,0,0,0,.62,2.79,2,2,0,0,0,1.8,1,2,2,0,0,0,1.77-.94,5.1,5.1,0,0,0,.61-2.77Z"/><path d="M252.75,199.35a5.92,5.92,0,0,1-.83,3.43,3.14,3.14,0,0,1-4.86,0,5.68,5.68,0,0,1-.87-3.34v-1.91a5.78,5.78,0,0,1,.84-3.41,3.17,3.17,0,0,1,4.85,0,5.6,5.6,0,0,1,.87,3.3Zm-.88-1.91a5.2,5.2,0,0,0-.6-2.77,2,2,0,0,0-1.81-.94,2,2,0,0,0-1.78.92,5,5,0,0,0-.62,2.7v2.1a5.24,5.24,0,0,0,.62,2.79,2.16,2.16,0,0,0,3.58,0,5.29,5.29,0,0,0,.61-2.77Z"/><path d="M313.43,203.8h-6.68v-.68L310.4,199a9.36,9.36,0,0,0,1.26-1.73,2.84,2.84,0,0,0,.35-1.33,2.15,2.15,0,0,0-.59-1.6,2.23,2.23,0,0,0-1.63-.59,2.3,2.3,0,0,0-1.74.69,2.45,2.45,0,0,0-.67,1.79h-.87a3.35,3.35,0,0,1,.41-1.64,2.88,2.88,0,0,1,1.16-1.16,3.44,3.44,0,0,1,1.71-.42,3.21,3.21,0,0,1,2.29.77,2.75,2.75,0,0,1,.82,2.09,3.55,3.55,0,0,1-.47,1.63,12,12,0,0,1-1.63,2.21l-3,3.37h5.61Z"/><path d="M321.49,199.35a5.89,5.89,0,0,1-.83,3.42,2.79,2.79,0,0,1-2.44,1.17,2.83,2.83,0,0,1-2.42-1.14,5.76,5.76,0,0,1-.87-3.34v-1.91a5.78,5.78,0,0,1,.84-3.41,2.82,2.82,0,0,1,2.44-1.15,2.86,2.86,0,0,1,2.42,1.11,5.64,5.64,0,0,1,.86,3.29Zm-.88-1.91a5.2,5.2,0,0,0-.6-2.77,2.2,2.2,0,0,0-3.59,0,5,5,0,0,0-.61,2.7v2.1a5.25,5.25,0,0,0,.61,2.79,2,2,0,0,0,1.8,1,2,2,0,0,0,1.78-.94,5.19,5.19,0,0,0,.61-2.77Z"/><path d="M329.8,199.35a5.89,5.89,0,0,1-.82,3.42,3.14,3.14,0,0,1-4.87,0,5.69,5.69,0,0,1-.86-3.34v-1.91a5.85,5.85,0,0,1,.83-3.41,3.18,3.18,0,0,1,4.86,0,5.57,5.57,0,0,1,.86,3.29Zm-.88-1.91a5.21,5.21,0,0,0-.59-2.77,2.21,2.21,0,0,0-3.6,0,5,5,0,0,0-.61,2.7v2.1a5.24,5.24,0,0,0,.62,2.79,2,2,0,0,0,1.8,1,2,2,0,0,0,1.77-.94,5.1,5.1,0,0,0,.61-2.77Z"/><path d="M385.75,198h.91a3.05,3.05,0,0,0,1.32-.27,2.07,2.07,0,0,0,.86-.73,1.94,1.94,0,0,0,.3-1.07,2.2,2.2,0,0,0-.58-1.61,2.29,2.29,0,0,0-1.67-.58,2.36,2.36,0,0,0-1.68.61,2.07,2.07,0,0,0-.65,1.59h-.88a2.82,2.82,0,0,1,.42-1.51,2.74,2.74,0,0,1,1.15-1.06,3.59,3.59,0,0,1,1.64-.37,3.19,3.19,0,0,1,2.29.79,2.81,2.81,0,0,1,.83,2.16,2.32,2.32,0,0,1-.48,1.42,2.92,2.92,0,0,1-1.34,1,2.79,2.79,0,0,1,1.51,1,2.6,2.6,0,0,1,.51,1.61,2.9,2.9,0,0,1-.89,2.21,3.39,3.39,0,0,1-2.39.83,3.93,3.93,0,0,1-1.75-.38,2.79,2.79,0,0,1-1.66-2.66h.88a2.1,2.1,0,0,0,.71,1.66,2.59,2.59,0,0,0,1.82.64,2.5,2.5,0,0,0,1.77-.58,2.19,2.19,0,0,0,.63-1.69,2,2,0,0,0-.68-1.63,3.1,3.1,0,0,0-2-.56h-.88Z"/><path d="M398.55,199.35a5.89,5.89,0,0,1-.83,3.42,3.13,3.13,0,0,1-4.86,0,5.68,5.68,0,0,1-.87-3.34v-1.91a5.78,5.78,0,0,1,.84-3.41,3.17,3.17,0,0,1,4.85,0,5.56,5.56,0,0,1,.87,3.29Zm-.88-1.91a5.2,5.2,0,0,0-.6-2.77,2,2,0,0,0-1.81-.94,2,2,0,0,0-1.78.92,5,5,0,0,0-.62,2.7v2.1a5.24,5.24,0,0,0,.62,2.79,2.16,2.16,0,0,0,3.58,0,5.29,5.29,0,0,0,.61-2.77Z"/><path d="M406.86,199.35a5.89,5.89,0,0,1-.83,3.42,2.79,2.79,0,0,1-2.44,1.17,2.83,2.83,0,0,1-2.42-1.14,5.76,5.76,0,0,1-.87-3.34v-1.91a5.78,5.78,0,0,1,.84-3.41,2.82,2.82,0,0,1,2.44-1.15A2.86,2.86,0,0,1,406,194.1a5.64,5.64,0,0,1,.86,3.29Zm-.88-1.91a5.2,5.2,0,0,0-.6-2.77,2.2,2.2,0,0,0-3.59,0,5,5,0,0,0-.61,2.7v2.1a5.15,5.15,0,0,0,.62,2.79,2,2,0,0,0,1.79,1,2,2,0,0,0,1.78-.94,5.19,5.19,0,0,0,.61-2.77Z"/><path d="M423.55,198h.91a3.05,3.05,0,0,0,1.32-.27,2.07,2.07,0,0,0,.86-.73,1.94,1.94,0,0,0,.3-1.07,2.2,2.2,0,0,0-.58-1.61,2.29,2.29,0,0,0-1.67-.58,2.36,2.36,0,0,0-1.68.61,2.07,2.07,0,0,0-.65,1.59h-.88a2.82,2.82,0,0,1,.42-1.51,2.74,2.74,0,0,1,1.15-1.06,3.59,3.59,0,0,1,1.64-.37,3.19,3.19,0,0,1,2.29.79,2.82,2.82,0,0,1,.84,2.17,2.32,2.32,0,0,1-.49,1.41,2.92,2.92,0,0,1-1.34,1,2.76,2.76,0,0,1,1.51,1,2.6,2.6,0,0,1,.51,1.61,2.9,2.9,0,0,1-.89,2.21,3.39,3.39,0,0,1-2.39.83,3.93,3.93,0,0,1-1.75-.38,3,3,0,0,1-1.23-1.06,2.93,2.93,0,0,1-.43-1.6h.88a2.1,2.1,0,0,0,.71,1.66,2.59,2.59,0,0,0,1.82.64,2.5,2.5,0,0,0,1.77-.58,2.19,2.19,0,0,0,.63-1.69,2,2,0,0,0-.68-1.63,3.1,3.1,0,0,0-2-.56h-.88Z"/><path d="M430.51,198.33l.52-5.2h5.33V194h-4.58l-.37,3.6a3.48,3.48,0,0,1,2-.59,3,3,0,0,1,2.3.94,3.58,3.58,0,0,1,.85,2.5,3.75,3.75,0,0,1-.83,2.61,3,3,0,0,1-2.35.93,3.29,3.29,0,0,1-2.26-.77,3.26,3.26,0,0,1-1-2.18H431a2.5,2.5,0,0,0,.74,1.65,2.34,2.34,0,0,0,1.66.56,2.08,2.08,0,0,0,1.72-.72,3.23,3.23,0,0,0,.59-2.07,2.76,2.76,0,0,0-.66-1.91,2.24,2.24,0,0,0-1.78-.74,3.23,3.23,0,0,0-1.08.16,2.86,2.86,0,0,0-1,.61Z"/><path d="M444.66,199.35a5.92,5.92,0,0,1-.83,3.43,3.14,3.14,0,0,1-4.86,0,5.69,5.69,0,0,1-.86-3.34v-1.91a5.78,5.78,0,0,1,.83-3.41,2.82,2.82,0,0,1,2.44-1.15,2.86,2.86,0,0,1,2.42,1.11,5.68,5.68,0,0,1,.86,3.3Zm-.88-1.91a5.2,5.2,0,0,0-.6-2.77,2,2,0,0,0-1.8-.94,2,2,0,0,0-1.79.92,5,5,0,0,0-.61,2.7v2.1a5.15,5.15,0,0,0,.62,2.79,2,2,0,0,0,1.79,1,2,2,0,0,0,1.78-.94,5.19,5.19,0,0,0,.61-2.77Z"/><path d="M451.13,195.87l0,1.29a2.92,2.92,0,0,1,1.1-1.08,3.06,3.06,0,0,1,1.46-.35,2.22,2.22,0,0,1,2.38,1.53,3,3,0,0,1,1.14-1.14,3.17,3.17,0,0,1,1.56-.39c1.7,0,2.57.92,2.6,2.78v5.29h-.88v-5.23a2.34,2.34,0,0,0-.45-1.57,1.87,1.87,0,0,0-1.47-.51,2.34,2.34,0,0,0-1.6.61,2.18,2.18,0,0,0-.72,1.45v5.25h-.88v-5.29a2.21,2.21,0,0,0-.48-1.52,1.9,1.9,0,0,0-1.46-.5A2.19,2.19,0,0,0,452,197a2.78,2.78,0,0,0-.88,1.4v5.44h-.87v-7.93Z"/><path d="M463.57,193.58a.65.65,0,0,1,.16-.42.6.6,0,0,1,.44-.17.61.61,0,0,1,.45.17.6.6,0,0,1,.16.42.57.57,0,0,1-.16.42.61.61,0,0,1-.45.17.57.57,0,0,1-.6-.59Zm1,10.22h-.87v-7.93h.87Z"/><path d="M468,203.8h-.88V192.55H468Z"/><path d="M470.27,203.27a.63.63,0,0,1,.16-.44.59.59,0,0,1,.46-.18.6.6,0,0,1,.46.18.64.64,0,0,1,.17.44.57.57,0,0,1-.17.42.64.64,0,0,1-.46.17.62.62,0,0,1-.46-.17A.57.57,0,0,1,470.27,203.27Z"/><path d="M485.13,193.13v7.28a3.77,3.77,0,0,1-.48,1.88,3.06,3.06,0,0,1-1.32,1.22,4.25,4.25,0,0,1-2,.43,3.85,3.85,0,0,1-2.7-.92,3.33,3.33,0,0,1-1.05-2.54v-7.35h.89v7.22a2.79,2.79,0,0,0,.77,2.09,2.9,2.9,0,0,0,2.09.74,2.84,2.84,0,0,0,2.08-.75,2.76,2.76,0,0,0,.77-2.08v-7.22Z"/><path d="M493.67,201.17a1.71,1.71,0,0,0-.62-1.4,6.57,6.57,0,0,0-2.28-1,8.17,8.17,0,0,1-2.41-1,2.46,2.46,0,0,1-.08-4,4.13,4.13,0,0,1,2.57-.76,4.22,4.22,0,0,1,1.91.41,3.14,3.14,0,0,1,1.3,1.14,3.06,3.06,0,0,1,.46,1.63h-.91a2.25,2.25,0,0,0-.75-1.76,2.93,2.93,0,0,0-2-.66,3.17,3.17,0,0,0-1.94.54,1.7,1.7,0,0,0-.73,1.43,1.63,1.63,0,0,0,.65,1.33,6.1,6.1,0,0,0,2.09.9,10.39,10.39,0,0,1,2.18.82,3.13,3.13,0,0,1,1.11,1,2.5,2.5,0,0,1,.37,1.38,2.41,2.41,0,0,1-1,2,4.3,4.3,0,0,1-2.66.76,5.2,5.2,0,0,1-2.07-.4,3.15,3.15,0,0,1-1.43-1.13,2.94,2.94,0,0,1-.48-1.66h.9a2.13,2.13,0,0,0,.84,1.78,3.59,3.59,0,0,0,2.24.65,3.29,3.29,0,0,0,2-.55A1.71,1.71,0,0,0,493.67,201.17Z"/><path d="M496.52,203.8V193.13h3a4.65,4.65,0,0,1,2.36.6,4.18,4.18,0,0,1,1.62,1.71,5.36,5.36,0,0,1,.58,2.53v1a5.35,5.35,0,0,1-.58,2.54,4.08,4.08,0,0,1-1.63,1.71,4.76,4.76,0,0,1-2.41.6Zm.9-9.91V203h2a3.49,3.49,0,0,0,2.7-1.11,4.34,4.34,0,0,0,1-3V198a4.22,4.22,0,0,0-1-2.94,3.43,3.43,0,0,0-2.64-1.12Z"/><line class="cls-8" x1="164.1" y1="188.07" x2="164.1" y2="157.78"/><line class="cls-8" x1="241.16" y1="188.07" x2="241.16" y2="157.78"/><line class="cls-8" x1="318.21" y1="188.07" x2="318.21" y2="157.78"/><line class="cls-8" x1="395.27" y1="188.07" x2="395.27" y2="157.78"/><line class="cls-8" x1="433.8" y1="188.07" x2="433.8" y2="157.78"/><rect class="cls-9" x="164.1" y="157.78" width="6.48" height="18.43"/><rect class="cls-10" x="170.58" y="157.78" width="267.25" height="18.43"/><line class="cls-7" x1="437.83" y1="155.64" x2="437.83" y2="178.35"/></svg>