<svg id="Layer_1" data-name="Layer 1" xmlns="http://www.w3.org/2000/svg" viewBox="0 0 740 157.43"><defs><style>.cls-1,.cls-9{opacity:0.8;}.cls-2,.cls-9{fill:#3892dc;}.cls-10,.cls-3{opacity:0.7;}.cls-10,.cls-4{fill:#b4bfca;}.cls-5{fill:#a4aeb8;}.cls-6{fill:#231f20;}.cls-7,.cls-8{fill:none;}.cls-7{stroke:#231f20;stroke-miterlimit:10;stroke-width:3px;}.cls-8{stroke:#808285;stroke-linecap:square;stroke-linejoin:round;stroke-width:0.3px;stroke-dasharray:5.69;}</style></defs><g class="cls-1"><rect class="cls-2" x="7" y="47.64" width="16.28" height="16.28"/></g><path class="cls-2" d="M38.21,57.62v4H36.36V50.91h4.08a4.14,4.14,0,0,1,2.84.93,3.16,3.16,0,0,1,1,2.47,3,3,0,0,1-1,2.44,4.34,4.34,0,0,1-2.88.87Zm0-1.49h2.23A2.2,2.2,0,0,0,42,55.66a1.68,1.68,0,0,0,.52-1.34,1.84,1.84,0,0,0-.53-1.38,2,2,0,0,0-1.45-.53H38.21Z"/><path class="cls-2" d="M45.35,57.54a4.69,4.69,0,0,1,.46-2.1A3.39,3.39,0,0,1,47.1,54a3.62,3.62,0,0,1,1.92-.5,3.47,3.47,0,0,1,2.61,1,4.12,4.12,0,0,1,1.08,2.74v.42a4.69,4.69,0,0,1-.45,2.09A3.32,3.32,0,0,1,51,61.22a3.67,3.67,0,0,1-1.94.5,3.47,3.47,0,0,1-2.69-1.11,4.3,4.3,0,0,1-1-3Zm1.78.16a3.23,3.23,0,0,0,.5,1.91A1.66,1.66,0,0,0,49,60.3a1.61,1.61,0,0,0,1.4-.7,3.48,3.48,0,0,0,.5-2.06,3.17,3.17,0,0,0-.51-1.9A1.67,1.67,0,0,0,49,54.93a1.64,1.64,0,0,0-1.38.7A3.47,3.47,0,0,0,47.13,57.7Z"/><path class="cls-2" d="M58.66,59.42a.81.81,0,0,0-.39-.72,4.09,4.09,0,0,0-1.3-.44,7.08,7.08,0,0,1-1.51-.48,2,2,0,0,1-1.34-1.87A2.12,2.12,0,0,1,55,54.19a3.43,3.43,0,0,1,2.19-.68,3.55,3.55,0,0,1,2.3.7A2.24,2.24,0,0,1,60.35,56H58.57a1.08,1.08,0,0,0-.38-.85,1.44,1.44,0,0,0-1-.34,1.55,1.55,0,0,0-1,.27.85.85,0,0,0-.37.73.71.71,0,0,0,.34.63,4.62,4.62,0,0,0,1.39.46,6.59,6.59,0,0,1,1.65.55,2.24,2.24,0,0,1,.88.77,1.85,1.85,0,0,1,.29,1.08,2.06,2.06,0,0,1-.88,1.73,3.8,3.8,0,0,1-2.32.66,4,4,0,0,1-1.74-.35,2.85,2.85,0,0,1-1.19-1,2.33,2.33,0,0,1-.42-1.33h1.73a1.25,1.25,0,0,0,.47,1,1.85,1.85,0,0,0,1.17.34,1.8,1.8,0,0,0,1.07-.27A.82.82,0,0,0,58.66,59.42Z"/><path class="cls-2" d="M64.54,58.18l-.79.81v2.59H62V50.33h1.78v6.49l.55-.7,2.19-2.47h2.14L65.69,57,69,61.58H66.89Z"/><path class="cls-2" d="M72.56,59l1.62-5.38h1.89l-3.15,9.13a2.56,2.56,0,0,1-2.46,2,3.6,3.6,0,0,1-.86-.13V63.26l.34,0A1.79,1.79,0,0,0,71,63a1.73,1.73,0,0,0,.54-.82l.25-.68L69,53.65h1.92Z"/><path class="cls-2" d="M79.32,51.73v1.92h1.4V55h-1.4v4.42a1,1,0,0,0,.18.66.82.82,0,0,0,.64.2,2.7,2.7,0,0,0,.63-.07v1.38a4.5,4.5,0,0,1-1.17.16c-1.37,0-2.06-.75-2.06-2.26V55h-1.3V53.65h1.3V51.73Z"/><path class="cls-2" d="M83.73,53.65l.06.92a2.82,2.82,0,0,1,2.3-1.06c1.65,0,2.49.94,2.52,2.83v5.24H86.83V56.44a1.65,1.65,0,0,0-.32-1.11A1.36,1.36,0,0,0,85.44,55a1.71,1.71,0,0,0-1.6,1v5.64H82.06V53.65Z"/><path class="cls-2" d="M95.23,60.8a2.76,2.76,0,0,1-2.23.92,2.46,2.46,0,0,1-2-.75,3.16,3.16,0,0,1-.67-2.18V53.65h1.78v5.12q0,1.5,1.26,1.5a1.77,1.77,0,0,0,1.75-.93V53.65H97v7.93H95.27Z"/><path class="cls-2" d="M101,51.73v1.92h1.4V55H101v4.42a1,1,0,0,0,.18.66.81.81,0,0,0,.64.2,2.62,2.62,0,0,0,.62-.07v1.38a4.39,4.39,0,0,1-1.17.16c-1.37,0-2.05-.75-2.05-2.26V55h-1.3V53.65h1.3V51.73Z"/><path class="cls-2" d="M107.24,61.72a3.69,3.69,0,0,1-2.75-1.06,3.87,3.87,0,0,1-1-2.84V57.6a4.82,4.82,0,0,1,.46-2.12A3.44,3.44,0,0,1,105.19,54a3.34,3.34,0,0,1,1.84-.52,3.1,3.1,0,0,1,2.5,1,4.36,4.36,0,0,1,.89,2.92v.72h-5.18a2.37,2.37,0,0,0,.65,1.55,2,2,0,0,0,1.45.57,2.41,2.41,0,0,0,2-1l1,.92a3.23,3.23,0,0,1-1.27,1.1A4,4,0,0,1,107.24,61.72ZM107,54.93a1.52,1.52,0,0,0-1.18.52,2.64,2.64,0,0,0-.57,1.43h3.39v-.14a2.18,2.18,0,0,0-.48-1.35A1.51,1.51,0,0,0,107,54.93Zm.41-4.6h2l-2,2.22H106Z"/><path class="cls-2" d="M118.11,58.18l-.8.81v2.59h-1.77V50.33h1.77v6.49l.56-.7,2.19-2.47h2.14L119.26,57l3.26,4.62h-2.06Z"/><path class="cls-2" d="M125.25,61.58h-1.77V50.33h1.77Z"/><path class="cls-2" d="M127.2,51.59a.92.92,0,0,1,.26-.68,1,1,0,0,1,.74-.27,1,1,0,0,1,.75.27,1,1,0,0,1,0,1.36,1.05,1.05,0,0,1-.75.26,1,1,0,0,1-.74-.26A.92.92,0,0,1,127.2,51.59Zm1.88,10h-1.77V53.65h1.77Z"/><path class="cls-2" d="M132.7,53.65l.05.83a2.84,2.84,0,0,1,2.28-1,2.19,2.19,0,0,1,2.18,1.21,2.79,2.79,0,0,1,2.43-1.21,2.49,2.49,0,0,1,2,.72,3.18,3.18,0,0,1,.66,2.14v5.21h-1.78V56.42a1.56,1.56,0,0,0-.33-1.1,1.43,1.43,0,0,0-1.09-.36,1.49,1.49,0,0,0-1,.33,1.74,1.74,0,0,0-.53.85v5.44h-1.78V56.36a1.27,1.27,0,0,0-1.43-1.4,1.56,1.56,0,0,0-1.51.88v5.74H131V53.65Z"/><path class="cls-2" d="M148.81,61.58a2.7,2.7,0,0,1-.21-.74,3,3,0,0,1-4,.2,2.14,2.14,0,0,1-.76-1.68,2.28,2.28,0,0,1,.94-2,4.59,4.59,0,0,1,2.69-.67h1.1v-.52a1.41,1.41,0,0,0-.35-1,1.36,1.36,0,0,0-1-.37,1.52,1.52,0,0,0-1,.31.93.93,0,0,0-.39.77H144a2,2,0,0,1,.43-1.22,2.82,2.82,0,0,1,1.18-.89,4,4,0,0,1,1.66-.32,3.34,3.34,0,0,1,2.22.7,2.5,2.5,0,0,1,.85,2v3.58a4,4,0,0,0,.3,1.7v.13Zm-2-1.28a2,2,0,0,0,1-.26,1.72,1.72,0,0,0,.7-.69V57.86h-1a2.63,2.63,0,0,0-1.49.34,1.13,1.13,0,0,0-.5,1,1,1,0,0,0,.34.81A1.34,1.34,0,0,0,146.85,60.3Z"/><path class="cls-2" d="M154.42,51.73v1.92h1.4V55h-1.4v4.42a1,1,0,0,0,.18.66.81.81,0,0,0,.64.2,2.62,2.62,0,0,0,.62-.07v1.38a4.39,4.39,0,0,1-1.17.16c-1.37,0-2.05-.75-2.05-2.26V55h-1.3V53.65h1.3V51.73Z"/><path class="cls-2" d="M157.18,51.59a1,1,0,0,1,.26-.68,1.16,1.16,0,0,1,1.49,0,1,1,0,0,1,0,1.36,1.2,1.2,0,0,1-1.49,0A1,1,0,0,1,157.18,51.59Zm1.89,10h-1.78V53.65h1.78Z"/><path class="cls-2" d="M164.26,60.3a1.64,1.64,0,0,0,1.11-.38,1.35,1.35,0,0,0,.47-1h1.68a2.63,2.63,0,0,1-.47,1.38,3,3,0,0,1-1.17,1,3.44,3.44,0,0,1-1.59.37,3.37,3.37,0,0,1-2.64-1.07,4.28,4.28,0,0,1-1-3v-.18a4.23,4.23,0,0,1,1-2.9,3.36,3.36,0,0,1,2.64-1.08,3.24,3.24,0,0,1,2.3.82,2.93,2.93,0,0,1,.94,2.16h-1.68a1.66,1.66,0,0,0-.47-1.12,1.51,1.51,0,0,0-1.11-.44,1.56,1.56,0,0,0-1.33.63,3.25,3.25,0,0,0-.48,1.9v.29a3.23,3.23,0,0,0,.47,1.92A1.57,1.57,0,0,0,164.26,60.3Z"/><path class="cls-2" d="M171.43,58.18l-.79.81v2.59h-1.78V50.33h1.78v6.49l.56-.7,2.19-2.47h2.14L172.58,57l3.26,4.62h-2.05Z"/><path class="cls-2" d="M180,61.72a3.67,3.67,0,0,1-2.74-1.06,3.87,3.87,0,0,1-1-2.84V57.6a4.69,4.69,0,0,1,.46-2.12A3.41,3.41,0,0,1,178,54a3.38,3.38,0,0,1,1.85-.52,3.1,3.1,0,0,1,2.5,1,4.35,4.35,0,0,1,.88,2.92v.72H178a2.43,2.43,0,0,0,.66,1.55,2,2,0,0,0,1.45.57,2.41,2.41,0,0,0,2-1l1,.92a3.23,3.23,0,0,1-1.27,1.1A4,4,0,0,1,180,61.72Zm-.21-6.79a1.5,1.5,0,0,0-1.18.52,2.72,2.72,0,0,0-.58,1.43h3.39v-.14a2.18,2.18,0,0,0-.47-1.35A1.52,1.52,0,0,0,179.82,54.93Zm.4-4.6h2l-2,2.22H178.8Z"/><path class="cls-2" d="M189,61.58V55h-1.2V53.65H189v-.72a2.73,2.73,0,0,1,.74-2,2.78,2.78,0,0,1,2.05-.72,4,4,0,0,1,1,.14l0,1.39a3.44,3.44,0,0,0-.68-.06A1.15,1.15,0,0,0,190.73,53v.7h1.62V55h-1.62v6.61Z"/><path class="cls-2" d="M193.65,51.59a.92.92,0,0,1,.26-.68,1,1,0,0,1,.74-.27,1,1,0,0,1,.75.27,1,1,0,0,1,0,1.36,1.05,1.05,0,0,1-.75.26,1,1,0,0,1-.74-.26A.92.92,0,0,1,193.65,51.59Zm1.89,10h-1.78V53.65h1.78Z"/><path class="cls-2" d="M199.13,53.65l.05.92a2.82,2.82,0,0,1,2.3-1.06c1.66,0,2.5.94,2.52,2.83v5.24h-1.77V56.44a1.6,1.6,0,0,0-.33-1.11,1.35,1.35,0,0,0-1.07-.37,1.72,1.72,0,0,0-1.6,1v5.64h-1.78V53.65Z"/><path class="cls-2" d="M210.55,61.58a2.77,2.77,0,0,1-.2-.74,3,3,0,0,1-4,.2,2.18,2.18,0,0,1-.76-1.68,2.26,2.26,0,0,1,.95-2,4.55,4.55,0,0,1,2.69-.67h1.09v-.52a1.41,1.41,0,0,0-.35-1,1.32,1.32,0,0,0-1-.37,1.53,1.53,0,0,0-1,.31.93.93,0,0,0-.39.77h-1.78a2,2,0,0,1,.44-1.22,2.79,2.79,0,0,1,1.17-.89,4.06,4.06,0,0,1,1.66-.32,3.3,3.3,0,0,1,2.22.7,2.5,2.5,0,0,1,.85,2v3.58a4,4,0,0,0,.3,1.7v.13Zm-2-1.28a2,2,0,0,0,1-.26,1.72,1.72,0,0,0,.7-.69V57.86h-1a2.63,2.63,0,0,0-1.49.34,1.12,1.12,0,0,0-.49,1,1,1,0,0,0,.33.81A1.36,1.36,0,0,0,208.6,60.3Z"/><path class="cls-2" d="M215.58,53.65l.06.92a2.82,2.82,0,0,1,2.3-1.06c1.65,0,2.49.94,2.52,2.83v5.24h-1.78V56.44a1.65,1.65,0,0,0-.32-1.11,1.36,1.36,0,0,0-1.07-.37,1.71,1.71,0,0,0-1.6,1v5.64h-1.78V53.65Z"/><path class="cls-2" d="M225.53,60.3a1.66,1.66,0,0,0,1.11-.38,1.35,1.35,0,0,0,.47-1h1.67a2.61,2.61,0,0,1-.46,1.38,3.12,3.12,0,0,1-1.17,1,3.49,3.49,0,0,1-1.6.37,3.35,3.35,0,0,1-2.63-1.07,4.28,4.28,0,0,1-1-3v-.18a4.18,4.18,0,0,1,1-2.9,3.35,3.35,0,0,1,2.64-1.08,3.24,3.24,0,0,1,2.3.82,3,3,0,0,1,.93,2.16h-1.67a1.66,1.66,0,0,0-.47-1.12,1.51,1.51,0,0,0-1.11-.44,1.55,1.55,0,0,0-1.33.63,3.25,3.25,0,0,0-.48,1.9v.29a3.23,3.23,0,0,0,.47,1.92A1.57,1.57,0,0,0,225.53,60.3Z"/><path class="cls-2" d="M233.62,61.72a3.69,3.69,0,0,1-2.75-1.06,3.87,3.87,0,0,1-1.05-2.84V57.6a4.82,4.82,0,0,1,.46-2.12A3.44,3.44,0,0,1,231.57,54a3.34,3.34,0,0,1,1.84-.52,3.1,3.1,0,0,1,2.5,1,4.36,4.36,0,0,1,.89,2.92v.72h-5.18a2.37,2.37,0,0,0,.65,1.55,2,2,0,0,0,1.45.57,2.41,2.41,0,0,0,2-1l1,.92a3.23,3.23,0,0,1-1.27,1.1A4,4,0,0,1,233.62,61.72Zm-.22-6.79a1.52,1.52,0,0,0-1.18.52,2.64,2.64,0,0,0-.57,1.43H235v-.14a2.18,2.18,0,0,0-.48-1.35A1.51,1.51,0,0,0,233.4,54.93Z"/><g class="cls-3"><rect class="cls-4" x="270" y="47.64" width="16.28" height="16.28"/></g><path class="cls-5" d="M307.49,58.11a3.81,3.81,0,0,1-1.26,2.66,4.26,4.26,0,0,1-2.92.95,4.15,4.15,0,0,1-2.24-.6,3.94,3.94,0,0,1-1.5-1.72,6.12,6.12,0,0,1-.55-2.58v-1a6.35,6.35,0,0,1,.53-2.66,4,4,0,0,1,1.54-1.77,4.25,4.25,0,0,1,2.31-.62,4.15,4.15,0,0,1,2.84.95,4,4,0,0,1,1.25,2.71h-1.84a2.64,2.64,0,0,0-.67-1.66,2.22,2.22,0,0,0-1.58-.51,2.19,2.19,0,0,0-1.86.88,4.46,4.46,0,0,0-.66,2.6v.94a4.72,4.72,0,0,0,.62,2.64,2,2,0,0,0,1.81.91,2.36,2.36,0,0,0,1.64-.49,2.55,2.55,0,0,0,.7-1.63Z"/><path class="cls-5" d="M310.73,54.52a2.77,2.77,0,0,1,2.21-1c1.68,0,2.54,1,2.57,2.89v5.18h-1.78V56.47a1.58,1.58,0,0,0-.36-1.17,1.48,1.48,0,0,0-1-.34,1.71,1.71,0,0,0-1.6,1v5.66H309V50.33h1.78Z"/><path class="cls-5" d="M320.08,59l1.61-5.38h1.9l-3.15,9.13a2.57,2.57,0,0,1-2.46,2,3.52,3.52,0,0,1-.86-.13V63.26l.34,0a1.77,1.77,0,0,0,1-.24,1.6,1.6,0,0,0,.54-.82l.25-.68-2.78-7.89h1.92Z"/><path class="cls-5" d="M331.56,57.7a4.72,4.72,0,0,1-.82,2.93,2.69,2.69,0,0,1-2.27,1.09,2.58,2.58,0,0,1-2.17-1l-.08.86H324.6V50.33h1.78v4.08a2.61,2.61,0,0,1,2.08-.9,2.72,2.72,0,0,1,2.27,1.07,4.79,4.79,0,0,1,.83,3Zm-1.78-.16a3.37,3.37,0,0,0-.45-1.93A1.52,1.52,0,0,0,328,55a1.67,1.67,0,0,0-1.63,1v3.27a1.67,1.67,0,0,0,1.64,1,1.48,1.48,0,0,0,1.29-.62,3.19,3.19,0,0,0,.47-1.88Z"/><path class="cls-5" d="M336.54,61.72a3.67,3.67,0,0,1-2.74-1.06,3.87,3.87,0,0,1-1.05-2.84V57.6a4.69,4.69,0,0,1,.46-2.12A3.41,3.41,0,0,1,334.49,54a3.38,3.38,0,0,1,1.85-.52,3.1,3.1,0,0,1,2.5,1,4.35,4.35,0,0,1,.88,2.92v.72h-5.18a2.38,2.38,0,0,0,.66,1.55,2,2,0,0,0,1.44.57,2.43,2.43,0,0,0,2-1l1,.92a3.3,3.3,0,0,1-1.27,1.1A4,4,0,0,1,336.54,61.72Zm-.34-10.26,1.07-1.14h1.52v.07l-2,2h-1.1l-2-2v-.07h1.51Zm.13,3.47a1.5,1.5,0,0,0-1.18.52,2.64,2.64,0,0,0-.58,1.43H338v-.14a2.18,2.18,0,0,0-.47-1.35A1.52,1.52,0,0,0,336.33,54.93Z"/><path class="cls-5" d="M343,53.65v8.63a2.59,2.59,0,0,1-.61,1.86,2.33,2.33,0,0,1-1.76.64,3.3,3.3,0,0,1-.95-.13v-1.4a3.06,3.06,0,0,0,.63.06c.59,0,.89-.32.91-1v-8.7ZM341,51.59a1,1,0,0,1,.26-.68,1.18,1.18,0,0,1,1.5,0,1,1,0,0,1,0,1.36,1.21,1.21,0,0,1-1.5,0A1,1,0,0,1,341,51.59Z"/><path class="cls-5" d="M346.77,61.58H345V53.65h1.78Zm-.33-11.2h2l-2,2.22H345Z"/><path class="cls-5" d="M352.06,60.3a1.63,1.63,0,0,0,1.1-.38,1.35,1.35,0,0,0,.47-1h1.68a2.7,2.7,0,0,1-.46,1.38,3.07,3.07,0,0,1-1.18,1,3.44,3.44,0,0,1-1.59.37,3.37,3.37,0,0,1-2.64-1.07,4.28,4.28,0,0,1-1-3v-.18a4.23,4.23,0,0,1,1-2.9,3.38,3.38,0,0,1,2.64-1.08,3.24,3.24,0,0,1,2.3.82,2.93,2.93,0,0,1,.94,2.16h-1.68a1.66,1.66,0,0,0-.47-1.12,1.5,1.5,0,0,0-1.1-.44,1.57,1.57,0,0,0-1.34.63,3.18,3.18,0,0,0-.47,1.9v.29a3.24,3.24,0,0,0,.46,1.92A1.57,1.57,0,0,0,352.06,60.3Z"/><path class="cls-5" d="M358.57,61.58h-1.78V53.65h1.78Zm-.34-11.2h2l-2,2.22H356.8Z"/><path class="cls-5" d="M364,57.56a4.75,4.75,0,0,1,.85-2.94,2.73,2.73,0,0,1,2.28-1.11,2.59,2.59,0,0,1,2,.88V50.33h1.78V61.58h-1.62l-.08-.82a2.65,2.65,0,0,1-2.13,1,2.72,2.72,0,0,1-2.26-1.12A4.88,4.88,0,0,1,364,57.56Zm1.78.15a3.32,3.32,0,0,0,.47,1.89,1.5,1.5,0,0,0,1.32.67,1.68,1.68,0,0,0,1.6-1V55.92a1.67,1.67,0,0,0-1.59-1,1.52,1.52,0,0,0-1.33.69A3.69,3.69,0,0,0,365.77,57.71Z"/><path class="cls-5" d="M372.46,57.54a4.69,4.69,0,0,1,.46-2.1,3.35,3.35,0,0,1,1.3-1.43,3.57,3.57,0,0,1,1.92-.5,3.47,3.47,0,0,1,2.6,1,4,4,0,0,1,1.08,2.74v.42a4.69,4.69,0,0,1-.45,2.09,3.32,3.32,0,0,1-1.29,1.43,3.67,3.67,0,0,1-1.94.5,3.43,3.43,0,0,1-2.68-1.11,4.26,4.26,0,0,1-1-3Zm1.78.16a3.23,3.23,0,0,0,.5,1.91,1.66,1.66,0,0,0,1.41.69,1.61,1.61,0,0,0,1.4-.7,3.48,3.48,0,0,0,.5-2.06,3.17,3.17,0,0,0-.51-1.9,1.73,1.73,0,0,0-2.79,0A3.47,3.47,0,0,0,374.24,57.7Z"/><path class="cls-5" d="M385.7,61.58V55h-1.21V53.65h1.21v-.72a2.72,2.72,0,0,1,.73-2,2.8,2.8,0,0,1,2.05-.72,4,4,0,0,1,1,.14l0,1.39a3.44,3.44,0,0,0-.68-.06A1.15,1.15,0,0,0,387.47,53v.7h1.62V55h-1.62v6.61Z"/><path class="cls-5" d="M393.7,61.72A3.67,3.67,0,0,1,391,60.66a3.87,3.87,0,0,1-1-2.84V57.6a4.82,4.82,0,0,1,.45-2.12A3.5,3.5,0,0,1,391.65,54a3.38,3.38,0,0,1,1.85-.52,3.12,3.12,0,0,1,2.5,1,4.41,4.41,0,0,1,.88,2.92v.72H391.7a2.33,2.33,0,0,0,.66,1.55,2,2,0,0,0,1.44.57,2.4,2.4,0,0,0,2-1l1,.92a3.16,3.16,0,0,1-1.27,1.1A4,4,0,0,1,393.7,61.72Zm-.21-6.79a1.54,1.54,0,0,0-1.19.52,2.64,2.64,0,0,0-.57,1.43h3.39v-.14a2.18,2.18,0,0,0-.48-1.35A1.48,1.48,0,0,0,393.49,54.93Zm.4-4.6h2l-2,2.22h-1.43Z"/><path class="cls-5" d="M402.41,55.28a4.4,4.4,0,0,0-.73-.06,1.62,1.62,0,0,0-1.64.94v5.42h-1.78V53.65H400l.05.89a2,2,0,0,1,1.79-1,1.67,1.67,0,0,1,.63.1Z"/><path class="cls-5" d="M402.94,57.54a4.69,4.69,0,0,1,.46-2.1A3.32,3.32,0,0,1,404.69,54a3.62,3.62,0,0,1,1.92-.5,3.47,3.47,0,0,1,2.61,1,4.12,4.12,0,0,1,1.08,2.74v.42a4.69,4.69,0,0,1-.45,2.09,3.32,3.32,0,0,1-1.29,1.43,3.61,3.61,0,0,1-1.93.5,3.47,3.47,0,0,1-2.69-1.11,4.3,4.3,0,0,1-1-3Zm1.78.16a3.16,3.16,0,0,0,.5,1.91,1.66,1.66,0,0,0,1.41.69,1.61,1.61,0,0,0,1.4-.7,3.48,3.48,0,0,0,.5-2.06,3.17,3.17,0,0,0-.51-1.9,1.67,1.67,0,0,0-1.41-.71,1.64,1.64,0,0,0-1.38.7A3.47,3.47,0,0,0,404.72,57.7Z"/><path class="cls-5" d="M414.49,59.32l1.68-5.67H418l-2.75,7.93h-1.54L411,53.65h1.84Z"/><path class="cls-5" d="M422.51,61.72a3.67,3.67,0,0,1-2.74-1.06,3.87,3.87,0,0,1-1-2.84V57.6a4.69,4.69,0,0,1,.46-2.12A3.41,3.41,0,0,1,420.46,54a3.38,3.38,0,0,1,1.85-.52,3.1,3.1,0,0,1,2.5,1,4.35,4.35,0,0,1,.88,2.92v.72h-5.18a2.43,2.43,0,0,0,.66,1.55,2,2,0,0,0,1.45.57,2.41,2.41,0,0,0,2-1l1,.92a3.23,3.23,0,0,1-1.27,1.1A4,4,0,0,1,422.51,61.72Zm-.21-6.79a1.5,1.5,0,0,0-1.18.52,2.72,2.72,0,0,0-.58,1.43h3.39v-.14a2.18,2.18,0,0,0-.47-1.35A1.52,1.52,0,0,0,422.3,54.93Zm.4-4.6h2l-2,2.22h-1.42Z"/><path class="cls-5" d="M428.83,54.52a2.75,2.75,0,0,1,2.2-1c1.69,0,2.55,1,2.57,2.89v5.18h-1.78V56.47a1.62,1.62,0,0,0-.35-1.17,1.5,1.5,0,0,0-1.05-.34,1.7,1.7,0,0,0-1.59,1v5.66h-1.78V50.33h1.78Z"/><path class="cls-5" d="M435.07,57.54a4.69,4.69,0,0,1,.46-2.1A3.39,3.39,0,0,1,436.82,54a3.62,3.62,0,0,1,1.92-.5,3.47,3.47,0,0,1,2.61,1,4.12,4.12,0,0,1,1.08,2.74v.42a4.56,4.56,0,0,1-.46,2.09,3.24,3.24,0,0,1-1.28,1.43,3.67,3.67,0,0,1-1.94.5,3.47,3.47,0,0,1-2.69-1.11,4.3,4.3,0,0,1-1-3Zm1.78.16a3.23,3.23,0,0,0,.5,1.91,1.66,1.66,0,0,0,1.41.69,1.61,1.61,0,0,0,1.4-.7,3.48,3.48,0,0,0,.5-2.06,3.17,3.17,0,0,0-.51-1.9,1.67,1.67,0,0,0-1.41-.71,1.64,1.64,0,0,0-1.38.7A3.47,3.47,0,0,0,436.85,57.7Z"/><path class="cls-5" d="M454.62,57.7a4.7,4.7,0,0,1-.84,2.93,2.91,2.91,0,0,1-4.33.24v3.75h-1.78v-11h1.64l.08.81a2.59,2.59,0,0,1,2.13-1,2.7,2.7,0,0,1,2.27,1.08,4.84,4.84,0,0,1,.83,3Zm-1.78-.16a3.25,3.25,0,0,0-.47-1.88A1.54,1.54,0,0,0,451,55a1.64,1.64,0,0,0-1.57.9v3.52a1.64,1.64,0,0,0,1.58.92,1.52,1.52,0,0,0,1.33-.68A3.65,3.65,0,0,0,452.84,57.54Z"/><path class="cls-5" d="M455.79,57.54a4.69,4.69,0,0,1,.46-2.1A3.39,3.39,0,0,1,457.54,54a3.62,3.62,0,0,1,1.92-.5,3.47,3.47,0,0,1,2.61,1,4.08,4.08,0,0,1,1.08,2.74v.42a4.56,4.56,0,0,1-.46,2.09,3.24,3.24,0,0,1-1.28,1.43,3.67,3.67,0,0,1-1.94.5,3.47,3.47,0,0,1-2.69-1.11,4.3,4.3,0,0,1-1-3Zm1.78.16a3.23,3.23,0,0,0,.5,1.91,1.66,1.66,0,0,0,1.41.69,1.61,1.61,0,0,0,1.4-.7,3.48,3.48,0,0,0,.5-2.06,3.17,3.17,0,0,0-.51-1.9,1.67,1.67,0,0,0-1.41-.71,1.64,1.64,0,0,0-1.38.7A3.47,3.47,0,0,0,457.57,57.7Z"/><path class="cls-5" d="M464.33,57.56a4.69,4.69,0,0,1,.85-2.94,2.7,2.7,0,0,1,2.27-1.11,2.59,2.59,0,0,1,2,.88V50.33h1.78V61.58h-1.61l-.09-.82a2.62,2.62,0,0,1-2.13,1,2.69,2.69,0,0,1-2.25-1.12A4.82,4.82,0,0,1,464.33,57.56Zm1.78.15a3.32,3.32,0,0,0,.46,1.89,1.5,1.5,0,0,0,1.32.67,1.68,1.68,0,0,0,1.6-1V55.92a1.65,1.65,0,0,0-1.58-1,1.5,1.5,0,0,0-1.33.69A3.61,3.61,0,0,0,466.11,57.71Z"/><path class="cls-5" d="M475,61.58h-1.78V53.65H475Zm-.34-11.2h2l-2,2.22h-1.42Z"/><path class="cls-5" d="M479,61.58h-1.78V50.33H479Z"/><path class="cls-5" d="M485.7,60.8a2.74,2.74,0,0,1-2.23.92,2.46,2.46,0,0,1-2-.75,3.21,3.21,0,0,1-.66-2.18V53.65h1.78v5.12c0,1,.41,1.5,1.25,1.5a1.76,1.76,0,0,0,1.75-.93V53.65h1.78v7.93h-1.68Z"/><path d="M9.58,22.14l-.74,1.2v3.84H6.18V13.88H8.84V19l.68-1.48,1.86-3.61h3.08l-3.38,5.81L15,27.18H12Z"/><path d="M24.59,24.61v2.57H17.94V13.88h2.7V24.61Z"/><path d="M27.78,13.88h2.7v13.3h-2.7Z"/><path d="M46.17,13.88v13.3H43.53V23.91c.08-1.62.13-3.23.21-4.85l-.1,0-1.19,3.49-.67,1.81H39.12l-.66-1.81L37.26,19l-.09,0c0,1.62.13,3.23.19,4.85v3.27H34.73V13.88h2.72l2.09,5c.27.67.72,1.83.87,2.32h.08c.15-.49.61-1.65.87-2.32l2.09-5Z"/><path d="M55.35,25H52.54l-.44,2.21H49.31l3.19-13.3h2.89l3.19,13.3H55.79Zm-.53-2.56-.31-1.52c-.17-.95-.4-2.57-.53-3.65H53.9c-.13,1.08-.34,2.7-.53,3.65l-.3,1.52Z"/><path d="M68,16.44h-2.6V27.18H62.66V16.44h-2.6V13.88h8Z"/><path d="M71.21,13.88h2.7v13.3h-2.7Z"/><path d="M77.79,23.11V17.94c0-2.81,1.52-4.33,4.12-4.33s4.14,1.52,4.24,4.33h-2.7c-.08-1.21-.53-1.71-1.56-1.71-.82,0-1.29.54-1.29,1.71v5.17c0,1.14.46,1.67,1.29,1.67,1,0,1.52-.49,1.6-1.67h2.69c-.05,2.79-1.59,4.29-4.29,4.29S77.79,25.9,77.79,23.11Z"/><path d="M93,22.14l-.74,1.2v3.84H89.64V13.88H92.3V19L93,17.49l1.86-3.61h3.08l-3.38,5.81,4,7.49h-3Z"/><path d="M108.45,24.61v2.57h-7V13.88h6.86v2.56H104.1V19.2h3.78v2.47H104.1v2.94Zm-3.06-12h-1.78L105.39,10h2.15Z"/><path d="M120.59,16.44V19.2h3.5v2.47h-3.5v5.51H117.9V13.88h6.57v2.56Z"/><path d="M128,13.88h2.69v13.3H128Z"/><path d="M134.94,13.88h2.66l2.53,5.77c.32.84.62,1.71,1,2.55l0-.06a45.44,45.44,0,0,1-.38-5.18V13.88h2.66v13.3h-2.66L138.51,22l-1.2-3.25-.05.06a53.69,53.69,0,0,1,.34,5.64v2.7h-2.66Z"/><path d="M152.59,25h-2.81l-.44,2.21h-2.79l3.19-13.3h2.89l3.19,13.3H153Zm-.53-2.56-.31-1.52c-.17-.95-.4-2.57-.53-3.65h-.07c-.14,1.08-.35,2.7-.54,3.65l-.3,1.52Z"/><path d="M159,13.88h2.66l2.52,5.77c.33.84.63,1.71,1,2.55l.06-.06a45.44,45.44,0,0,1-.38-5.18V13.88h2.66v13.3h-2.66L162.53,22l-1.2-3.25-.06.06a53.8,53.8,0,0,1,.35,5.64v2.7H159Z"/><path d="M171.31,23.11V17.94c0-2.81,1.51-4.33,4.12-4.33s4.14,1.52,4.23,4.33H177c-.08-1.21-.54-1.71-1.56-1.71-.82,0-1.29.54-1.29,1.71v5.17c0,1.14.45,1.67,1.29,1.67,1,0,1.52-.49,1.59-1.67h2.7c-.06,2.79-1.59,4.29-4.29,4.29S171.31,25.9,171.31,23.11Z"/><path d="M190.21,24.61v2.57h-7.05V13.88H190v2.56h-4.16V19.2h3.78v2.47h-3.78v2.94Z"/><path d="M207.9,18.4c0,2.83-1.64,4.5-4.39,4.5h-1.16v4.28h-2.7V13.88h3.86C206.26,13.88,207.9,15.55,207.9,18.4Zm-2.78,0c0-1.29-.57-2-1.65-2h-1.12v3.9h1.12C204.55,20.34,205.12,19.67,205.12,18.4Z"/><path d="M211.13,22.86V18.19c0-2.85,1.61-4.54,4.31-4.54s4.31,1.69,4.31,4.54v4.67c0,2.85-1.61,4.54-4.31,4.54S211.13,25.71,211.13,22.86Zm5.83,0V18.19c0-1.25-.51-1.92-1.52-1.92s-1.52.67-1.52,1.92v4.67c0,1.26.51,1.92,1.52,1.92S217,24.12,217,22.86Z"/><path d="M222.81,23.3h2.78c0,1.06.53,1.52,1.38,1.52s1.33-.51,1.33-1.18c0-2.2-5.2-2.47-5.2-6.51,0-2,1.42-3.52,3.87-3.52a3.62,3.62,0,0,1,3.94,3.92h-2.78c0-.88-.4-1.32-1.18-1.32s-1.12.38-1.12,1c0,2.09,5.29,2.23,5.29,6.46,0,2.19-1.54,3.78-4.18,3.78A3.78,3.78,0,0,1,222.81,23.3Z"/><path d="M237.84,22.14l-.74,1.2v3.84h-2.66V13.88h2.66V19l.69-1.48,1.86-3.61h3.08l-3.39,5.81,3.95,7.49h-3Z"/><path d="M248.71,23.22l-3.13-9.34h2.79l1.08,3.68c.13.44.44,1.49.57,2.13h.08c.15-.64.45-1.69.6-2.18l1.05-3.63h2.79l-3.13,9.34v4h-2.7Z"/><path d="M264.71,16.44H262.1V27.18h-2.77V16.44h-2.6V13.88h8Z"/><path d="M267.88,13.88h2.66l2.53,5.77c.32.84.62,1.71.95,2.55l.05-.06a47.86,47.86,0,0,1-.38-5.18V13.88h2.66v13.3h-2.66L271.45,22l-1.19-3.25-.06.06a53.69,53.69,0,0,1,.34,5.64v2.7h-2.66Z"/><path d="M280.38,22.94V13.88h2.76v9.06c0,1.2.47,1.84,1.42,1.84s1.43-.64,1.43-1.84V13.88h2.75v9.06c0,2.79-1.56,4.46-4.18,4.46S280.38,25.73,280.38,22.94Z"/><path d="M299.86,16.44h-2.61V27.18h-2.77V16.44h-2.6V13.88h8Z"/><path d="M310.08,24.61v2.57H303V13.88h6.86v2.56h-4.16V19.2h3.78v2.47h-3.78v2.94Zm-3.06-12h-1.79L307,10h2.15Z"/><path d="M327.54,23.11c-.06,2.79-1.6,4.29-4.29,4.29s-4.11-1.5-4.11-4.29V17.94c0-2.81,1.52-4.33,4.12-4.33s4.15,1.52,4.24,4.33h-2.7c-.07-1.21-.53-1.71-1.55-1.71-.82,0-1.3.54-1.3,1.71v5.17c0,1.14.46,1.67,1.3,1.67,1,0,1.52-.49,1.59-1.67Zm-5.32-10.5L320.68,10h1.69l.84,1.28L324,10h1.7l-1.54,2.61Z"/><path d="M338.05,24.61v2.57H331V13.88h6.86v2.56H333.7V19.2h3.78v2.47H333.7v2.94Z"/><path d="M341,23.3h2.78c0,1.06.53,1.52,1.38,1.52s1.33-.51,1.33-1.18c0-2.2-5.2-2.47-5.2-6.51,0-2,1.42-3.52,3.87-3.52a3.62,3.62,0,0,1,3.94,3.92h-2.78c0-.88-.4-1.32-1.18-1.32s-1.12.38-1.12,1c0,2.09,5.29,2.23,5.29,6.46,0,2.19-1.54,3.78-4.18,3.78A3.78,3.78,0,0,1,341,23.3Z"/><path d="M356,22.14l-.74,1.2v3.84H352.6V13.88h2.66V19l.68-1.48,1.87-3.61h3.07l-3.38,5.81,3.95,7.49h-3Z"/><path d="M363.85,22.86V18.19c0-2.85,1.61-4.54,4.31-4.54s4.31,1.69,4.31,4.54v4.67c0,2.85-1.61,4.54-4.31,4.54S363.85,25.71,363.85,22.86Zm5.83,0V18.19c0-1.25-.51-1.92-1.52-1.92s-1.52.67-1.52,1.92v4.67c0,1.26.52,1.92,1.52,1.92S369.68,24.12,369.68,22.86Z"/><path d="M376.12,22.94V13.88h2.76v9.06c0,1.2.47,1.84,1.42,1.84s1.43-.64,1.43-1.84V13.88h2.75v9.06c0,2.79-1.56,4.46-4.18,4.46S376.12,25.73,376.12,22.94Z"/><path d="M397.86,22.71h-.95v4.47h-2.7V13.88h3.86c2.64,0,4.2,1.63,4.2,4.42a4.18,4.18,0,0,1-1.85,3.84l2.51,5H400Zm-.95-2.56H398c1,0,1.46-.65,1.46-1.85S399,16.44,398,16.44h-1.12Z"/><path d="M413.15,24.61v2.57h-7V13.88H413v2.56H408.8V19.2h3.78v2.47H408.8v2.94Z"/><path d="M425.14,18.4c0,2.83-1.63,4.5-4.39,4.5h-1.16v4.28H416.9V13.88h3.85C423.51,13.88,425.14,15.55,425.14,18.4Zm-2.77,0c0-1.29-.57-2-1.66-2h-1.12v3.9h1.12C421.8,20.34,422.37,19.67,422.37,18.4Z"/><path d="M428.35,22.94V13.88h2.76v9.06c0,1.2.47,1.84,1.42,1.84s1.43-.64,1.43-1.84V13.88h2.75v9.06c0,2.79-1.55,4.46-4.18,4.46S428.35,25.73,428.35,22.94Z"/><path d="M448.85,23.21a3.76,3.76,0,0,1-3.91,4h-4.2V13.88h4.14a3.49,3.49,0,0,1,3.52,3.78,3.82,3.82,0,0,1-1.12,2.72A3.22,3.22,0,0,1,448.85,23.21Zm-5.41-6.79V19.2h1.06c.76,0,1.16-.5,1.16-1.43s-.38-1.35-1.25-1.35Zm2.64,6.77c0-1-.55-1.47-1.56-1.47h-1.08v2.91h1C445.53,24.63,446.08,24.14,446.08,23.19Z"/><path d="M459,24.61v2.57h-6.65V13.88h2.7V24.61Z"/><path d="M462.19,13.88h2.7v13.3h-2.7Z"/><path d="M472.55,22.14l-.74,1.2v3.84h-2.66V13.88h2.66V19l.68-1.48,1.86-3.61h3.08l-3.38,5.81L478,27.18h-3Z"/><path d="M480.39,22.86V18.19c0-2.85,1.62-4.54,4.32-4.54S489,15.34,489,18.19v4.67c0,2.85-1.62,4.54-4.31,4.54S480.39,25.71,480.39,22.86Zm5.84,0V18.19c0-1.25-.52-1.92-1.52-1.92s-1.52.67-1.52,1.92v4.67c0,1.26.51,1.92,1.52,1.92S486.23,24.12,486.23,22.86Z"/><path d="M492.67,22.94V13.88h2.75v9.06c0,1.2.48,1.84,1.43,1.84s1.42-.64,1.42-1.84V13.88H501v9.06c0,2.79-1.56,4.46-4.18,4.46S492.67,25.73,492.67,22.94Z"/><path d="M509.64,13.88h2.79l1.2,6.29c.19,1,.41,2.6.55,3.7h.07c.14-1.1.36-2.73.55-3.7l1.2-6.29h2.79l-3.15,13.3h-2.85Z"/><path d="M531.28,22.71h-.95v4.47h-2.7V13.88h3.85c2.64,0,4.2,1.63,4.2,4.42a4.18,4.18,0,0,1-1.84,3.84l2.51,5h-3Zm-.95-2.56h1.12c.95,0,1.46-.65,1.46-1.85s-.51-1.86-1.46-1.86h-1.12Z"/><path d="M539.14,22.86V18.19c0-2.85,1.62-4.54,4.31-4.54s4.32,1.69,4.32,4.54v4.67c0,2.85-1.62,4.54-4.32,4.54S539.14,25.71,539.14,22.86Zm5.83,0V18.19c0-1.25-.51-1.92-1.52-1.92s-1.52.67-1.52,1.92v4.67c0,1.26.52,1.92,1.52,1.92S545,24.12,545,22.86Z"/><path d="M551.26,23.11V17.94c0-2.81,1.52-4.33,4.13-4.33s4.14,1.52,4.23,4.33h-2.7c-.07-1.21-.53-1.71-1.55-1.71-.82,0-1.29.54-1.29,1.71v5.17c0,1.14.45,1.67,1.29,1.67,1,0,1.52-.49,1.59-1.67h2.7c-.06,2.79-1.6,4.29-4.29,4.29S551.26,25.9,551.26,23.11Z"/><path d="M570.17,24.61v2.57h-7V13.88H570v2.56h-4.16V19.2h3.78v2.47h-3.78v2.94Z"/><path d="M578.87,25.58c0-4.22,4.75-6.12,4.75-8.34a1,1,0,0,0-1-1.16c-.69,0-1.11.5-1.14,1.39H579c.12-2.53,1.39-3.82,3.54-3.82a3.39,3.39,0,0,1,3.64,3.46c0,3.4-4.59,5.66-4.59,7.67h4.65v2.4h-7.37Z"/><path d="M589.47,23.36V17.73c0-2.54,1.43-4,3.82-4s3.84,1.5,3.84,4v5.63c0,2.52-1.43,4-3.84,4S589.47,25.88,589.47,23.36Zm5.15,0V17.75c0-1.08-.46-1.65-1.33-1.65s-1.31.57-1.31,1.65v5.63c0,1.06.44,1.61,1.31,1.61S594.62,24.44,594.62,23.38Z"/><path d="M604.65,13.88v13.3h-2.56V17.32l-1.83,1V15.59L603,13.88Z"/><path d="M616,22.88v.61a3.78,3.78,0,1,1-7.56,0v-.61a3.39,3.39,0,0,1,1.25-2.69,3.72,3.72,0,0,1-1-2.49v-.4a3.56,3.56,0,1,1,7.11,0v.4a3.64,3.64,0,0,1-1.05,2.47A3.38,3.38,0,0,1,616,22.88Zm-2.57,0c0-1-.42-1.38-1.21-1.38S611,21.93,611,22.9v.57c0,1,.42,1.41,1.22,1.41s1.21-.42,1.21-1.41Zm-2.24-5.13c0,.93.36,1.35,1,1.35s1-.42,1-1.35v-.36c0-.91-.36-1.27-1-1.27s-1,.36-1,1.27Z"/><path d="M57,103.15a3.83,3.83,0,0,1-1.2,2.58,4,4,0,0,1-2.73.89,3.68,3.68,0,0,1-2.09-.59,3.84,3.84,0,0,1-1.41-1.68,5.8,5.8,0,0,1-.51-2.49v-1.38a6.06,6.06,0,0,1,.5-2.52,3.87,3.87,0,0,1,1.43-1.7,4,4,0,0,1,2.15-.59,3.82,3.82,0,0,1,2.71.92A3.88,3.88,0,0,1,57,99.14H56a2.71,2.71,0,0,0-2.95-2.71,2.79,2.79,0,0,0-2.31,1.08,4.7,4.7,0,0,0-.86,3v1.31a4.71,4.71,0,0,0,.84,2.94,2.68,2.68,0,0,0,2.26,1.1,3,3,0,0,0,2.14-.68,3.25,3.25,0,0,0,.88-2ZM53,94.24l1.26-1.42h.78v.08l-1.73,1.92h-.63L51,92.9v-.08h.78Z"/><path d="M62,106.62a3.36,3.36,0,0,1-3.09-1.88,4.27,4.27,0,0,1-.46-2v-.31a4.72,4.72,0,0,1,.44-2.06,3.56,3.56,0,0,1,1.24-1.44,3,3,0,0,1,1.71-.52,2.85,2.85,0,0,1,2.29,1,4,4,0,0,1,.85,2.69v.49H59.32v.17A3.31,3.31,0,0,0,60.1,105a2.46,2.46,0,0,0,1.94.89,2.86,2.86,0,0,0,1.24-.25,2.78,2.78,0,0,0,1-.82l.55.42A3.21,3.21,0,0,1,62,106.62Zm-.16-7.47a2.16,2.16,0,0,0-1.66.73,3.3,3.3,0,0,0-.83,2h4.76v-.1a3,3,0,0,0-.66-1.86A2,2,0,0,0,61.84,99.15Z"/><path d="M71.43,104.46a1.26,1.26,0,0,0-.52-1,4,4,0,0,0-1.58-.62,6.75,6.75,0,0,1-1.64-.52,2.05,2.05,0,0,1-.86-.7,1.77,1.77,0,0,1-.29-1A1.9,1.9,0,0,1,67.33,99a3.14,3.14,0,0,1,2-.61,3.23,3.23,0,0,1,2.13.65,2.09,2.09,0,0,1,.8,1.71h-.87a1.44,1.44,0,0,0-.59-1.16,2.33,2.33,0,0,0-1.47-.46,2.26,2.26,0,0,0-1.38.39,1.18,1.18,0,0,0-.53,1,1.1,1.1,0,0,0,.44.92,4.77,4.77,0,0,0,1.59.59,7.8,7.8,0,0,1,1.73.58,2.31,2.31,0,0,1,.85.74A2,2,0,0,1,71.5,106a3.47,3.47,0,0,1-2.11.6,3.52,3.52,0,0,1-2.25-.67,2.06,2.06,0,0,1-.86-1.69h.88a1.52,1.52,0,0,0,.65,1.2,2.69,2.69,0,0,0,1.58.42,2.49,2.49,0,0,0,1.48-.4A1.22,1.22,0,0,0,71.43,104.46Z"/><path d="M76.16,102.48l-1,1v3h-.88V95.23h.88v7.2l.83-.9,3-3h1.1l-3.36,3.34,3.66,4.59h-1Z"/><path d="M86.63,106.48a3.91,3.91,0,0,1-.17-1.11,3.1,3.1,0,0,1-1.18.93,3.53,3.53,0,0,1-1.51.32,2.68,2.68,0,0,1-1.85-.63,2.1,2.1,0,0,1-.71-1.61,2.14,2.14,0,0,1,1-1.84,4.67,4.67,0,0,1,2.68-.67h1.59V101a1.74,1.74,0,0,0-.52-1.34,2.2,2.2,0,0,0-1.53-.49,2.44,2.44,0,0,0-1.52.47,1.41,1.41,0,0,0-.6,1.13h-.87a2,2,0,0,1,.87-1.63,3.42,3.42,0,0,1,2.17-.69,3.1,3.1,0,0,1,2.09.66,2.36,2.36,0,0,1,.78,1.85v3.75a4.66,4.66,0,0,0,.24,1.72v.09Zm-2.76-.63a2.87,2.87,0,0,0,1.57-.43,2.45,2.45,0,0,0,1-1.13v-1.75H84.88a4,4,0,0,0-2,.48,1.45,1.45,0,0,0-.74,1.28,1.43,1.43,0,0,0,.5,1.11A1.88,1.88,0,0,0,83.87,105.85ZM85.6,95.23h1.06l-1.69,2H84.2Z"/><path d="M97,99.3a3.83,3.83,0,0,0-.6,0,2.11,2.11,0,0,0-1.38.46,2.44,2.44,0,0,0-.81,1.33v5.44h-.87V98.55h.85l0,1.26a2.32,2.32,0,0,1,2.23-1.4,1.5,1.5,0,0,1,.58.09Z"/><path d="M101.28,106.62a3.36,3.36,0,0,1-3.09-1.88,4.27,4.27,0,0,1-.46-2v-.31a4.72,4.72,0,0,1,.44-2.06,3.56,3.56,0,0,1,1.24-1.44,3,3,0,0,1,1.71-.52,2.85,2.85,0,0,1,2.29,1,4,4,0,0,1,.85,2.69v.49H98.6v.17a3.31,3.31,0,0,0,.78,2.25,2.46,2.46,0,0,0,1.94.89,2.86,2.86,0,0,0,1.24-.25,2.78,2.78,0,0,0,1-.82l.55.42A3.21,3.21,0,0,1,101.28,106.62Zm-.16-7.47a2.16,2.16,0,0,0-1.66.73,3.3,3.3,0,0,0-.83,2h4.76v-.1a3,3,0,0,0-.66-1.86A2,2,0,0,0,101.12,99.15Z"/><path d="M112.33,102.6a4.77,4.77,0,0,1-.82,2.94,2.59,2.59,0,0,1-2.19,1.08,2.92,2.92,0,0,1-2.49-1.14v4H106v-11h.82l0,1.12a2.82,2.82,0,0,1,2.48-1.26,2.64,2.64,0,0,1,2.24,1.07,4.89,4.89,0,0,1,.8,3Zm-.87-.16a4,4,0,0,0-.63-2.39,2,2,0,0,0-1.73-.88,2.44,2.44,0,0,0-1.39.39,2.38,2.38,0,0,0-.88,1.12v3.8a2.25,2.25,0,0,0,.9,1,2.58,2.58,0,0,0,1.38.36,2,2,0,0,0,1.73-.88A4.46,4.46,0,0,0,111.46,102.44Z"/><path d="M119.37,105.47a2.83,2.83,0,0,1-2.52,1.15,2.45,2.45,0,0,1-1.93-.73,3.23,3.23,0,0,1-.67-2.18V98.55h.87v5c0,1.51.61,2.26,1.83,2.26a2.24,2.24,0,0,0,2.41-1.57V98.55h.88v7.93h-.85Z"/><path d="M128.89,102.6a4.77,4.77,0,0,1-.82,2.94,2.61,2.61,0,0,1-2.2,1.08,2.84,2.84,0,0,1-2.5-1.23l0,1.09h-.82V95.23h.87V99.7a2.76,2.76,0,0,1,2.48-1.29,2.64,2.64,0,0,1,2.22,1.07,4.84,4.84,0,0,1,.81,3Zm-.87-.16a4.18,4.18,0,0,0-.61-2.42,2,2,0,0,0-1.72-.85,2.43,2.43,0,0,0-1.42.41,2.49,2.49,0,0,0-.89,1.21v3.58a2.36,2.36,0,0,0,2.33,1.49,1.93,1.93,0,0,0,1.69-.86A4.37,4.37,0,0,0,128,102.44Z"/><path d="M131.81,106.48h-.88V95.23h.88Z"/><path d="M134.14,96.26a.61.61,0,0,1,1-.41.57.57,0,0,1,.17.41.57.57,0,0,1-.17.42.65.65,0,0,1-.88,0A.57.57,0,0,1,134.14,96.26Zm1,10.22h-.88V98.55h.88Z"/><path d="M139.44,102.48l-1,1v3h-.88V95.23h.88v7.2l.83-.9,3-3h1.11L140,101.89l3.65,4.59h-1.05Z"/><path d="M149.9,106.48a4.31,4.31,0,0,1-.17-1.11,3.14,3.14,0,0,1-1.17.93,3.58,3.58,0,0,1-1.52.32,2.65,2.65,0,0,1-1.84-.63,2.07,2.07,0,0,1-.71-1.61,2.13,2.13,0,0,1,1-1.84,4.71,4.71,0,0,1,2.69-.67h1.58V101a1.74,1.74,0,0,0-.52-1.34,2.2,2.2,0,0,0-1.53-.49,2.39,2.39,0,0,0-1.51.47,1.41,1.41,0,0,0-.6,1.13h-.88a2,2,0,0,1,.88-1.63,3.37,3.37,0,0,1,2.16-.69,3.1,3.1,0,0,1,2.09.66,2.4,2.4,0,0,1,.79,1.85v3.75a4.66,4.66,0,0,0,.24,1.72v.09Zm-2.75-.63a2.89,2.89,0,0,0,1.57-.43,2.48,2.48,0,0,0,1-1.13v-1.75h-1.56a3.9,3.9,0,0,0-2,.48,1.49,1.49,0,0,0-.25,2.39A1.89,1.89,0,0,0,147.15,105.85Z"/><path d="M166.79,134.45a5.91,5.91,0,0,1-.83,3.42,3.13,3.13,0,0,1-4.86,0,5.7,5.7,0,0,1-.87-3.33v-1.92a5.74,5.74,0,0,1,.84-3.4,3.15,3.15,0,0,1,4.85,0,5.54,5.54,0,0,1,.87,3.29Zm-.88-1.92a5.14,5.14,0,0,0-.6-2.76,2.2,2.2,0,0,0-3.59,0,5,5,0,0,0-.62,2.71v2.09a5.2,5.2,0,0,0,.62,2.79,2,2,0,0,0,1.8,1,2,2,0,0,0,1.78-1,5.29,5.29,0,0,0,.61-2.77Z"/><path d="M288.16,138.89h-.88v-9.61l-2.9,1.08v-.82l3.63-1.35h.15Z"/><path d="M298.82,134.45a5.84,5.84,0,0,1-.83,3.42,2.78,2.78,0,0,1-2.43,1.17,2.82,2.82,0,0,1-2.43-1.15,5.63,5.63,0,0,1-.86-3.33v-1.92a5.75,5.75,0,0,1,.83-3.4,3.16,3.16,0,0,1,4.86,0,5.62,5.62,0,0,1,.86,3.29Zm-.88-1.92a5.24,5.24,0,0,0-.59-2.76,2.21,2.21,0,0,0-3.6,0,5.05,5.05,0,0,0-.61,2.71v2.09a5.11,5.11,0,0,0,.62,2.79,2,2,0,0,0,1.8,1,2,2,0,0,0,1.77-1,5.19,5.19,0,0,0,.61-2.77Z"/><path d="M307.13,134.45a5.92,5.92,0,0,1-.82,3.42,3.14,3.14,0,0,1-4.87,0,5.63,5.63,0,0,1-.86-3.33v-1.92a5.82,5.82,0,0,1,.83-3.4,3.16,3.16,0,0,1,4.86,0,5.55,5.55,0,0,1,.86,3.29Zm-.87-1.92a5.14,5.14,0,0,0-.6-2.76,2.2,2.2,0,0,0-3.59,0,5,5,0,0,0-.62,2.71v2.09a5.2,5.2,0,0,0,.62,2.79,2,2,0,0,0,1.8,1,2,2,0,0,0,1.77-1,5.19,5.19,0,0,0,.62-2.77Z"/><path d="M422.79,138.89h-6.68v-.67l3.66-4.15a10,10,0,0,0,1.26-1.73,2.9,2.9,0,0,0,.35-1.32,2.13,2.13,0,0,0-.6-1.6,2.18,2.18,0,0,0-1.63-.59,2.3,2.3,0,0,0-1.74.69,2.46,2.46,0,0,0-.66,1.78h-.87a3.37,3.37,0,0,1,.4-1.64,2.94,2.94,0,0,1,1.16-1.16,3.44,3.44,0,0,1,1.71-.42,3.24,3.24,0,0,1,2.29.77,2.71,2.71,0,0,1,.82,2.09,3.56,3.56,0,0,1-.46,1.64,12.14,12.14,0,0,1-1.64,2.21l-3,3.36h5.6Z"/><path d="M430.85,134.45a5.92,5.92,0,0,1-.82,3.42,3.14,3.14,0,0,1-4.87,0,5.63,5.63,0,0,1-.86-3.33v-1.92a5.82,5.82,0,0,1,.83-3.4,3.16,3.16,0,0,1,4.86,0,5.55,5.55,0,0,1,.86,3.29Zm-.88-1.92a5.15,5.15,0,0,0-.59-2.76,2.2,2.2,0,0,0-3.59,0,5,5,0,0,0-.62,2.71v2.09a5.2,5.2,0,0,0,.62,2.79,2,2,0,0,0,1.8,1,2,2,0,0,0,1.77-1,5.1,5.1,0,0,0,.61-2.77Z"/><path d="M439.17,134.45a5.91,5.91,0,0,1-.83,3.42,3.13,3.13,0,0,1-4.86,0,5.7,5.7,0,0,1-.87-3.33v-1.92a5.74,5.74,0,0,1,.84-3.4,3.15,3.15,0,0,1,4.85,0,5.54,5.54,0,0,1,.87,3.29Zm-.88-1.92a5.14,5.14,0,0,0-.6-2.76,2.2,2.2,0,0,0-3.59,0,5,5,0,0,0-.62,2.71v2.09a5.2,5.2,0,0,0,.62,2.79,2,2,0,0,0,1.8,1,2,2,0,0,0,1.78-1,5.29,5.29,0,0,0,.61-2.77Z"/><path d="M550.09,133.08H551a3.2,3.2,0,0,0,1.32-.26,2,2,0,0,0,.86-.74,1.91,1.91,0,0,0,.3-1.07,2.18,2.18,0,0,0-.58-1.6,2.24,2.24,0,0,0-1.66-.58,2.41,2.41,0,0,0-1.69.6,2.09,2.09,0,0,0-.65,1.59H548a2.84,2.84,0,0,1,.42-1.51,2.87,2.87,0,0,1,1.15-1.06,3.77,3.77,0,0,1,1.65-.37,3.18,3.18,0,0,1,2.28.79,2.84,2.84,0,0,1,.84,2.17,2.37,2.37,0,0,1-.49,1.42,3,3,0,0,1-1.34,1,2.69,2.69,0,0,1,1.51.95,2.61,2.61,0,0,1,.51,1.62,2.84,2.84,0,0,1-.89,2.2,3.35,3.35,0,0,1-2.39.84,4,4,0,0,1-1.74-.38,3,3,0,0,1-1.24-1.07,2.91,2.91,0,0,1-.43-1.59h.88a2.11,2.11,0,0,0,.71,1.66,2.64,2.64,0,0,0,1.82.64,2.55,2.55,0,0,0,1.77-.58,2.19,2.19,0,0,0,.63-1.69,2,2,0,0,0-.68-1.64,3.16,3.16,0,0,0-2-.56h-.88Z"/><path d="M562.89,134.45a5.91,5.91,0,0,1-.83,3.42,3.13,3.13,0,0,1-4.86,0,5.7,5.7,0,0,1-.87-3.33v-1.92a5.74,5.74,0,0,1,.84-3.4,3.15,3.15,0,0,1,4.85,0,5.54,5.54,0,0,1,.87,3.29Zm-.88-1.92a5.14,5.14,0,0,0-.6-2.76,2.2,2.2,0,0,0-3.59,0,5,5,0,0,0-.62,2.71v2.09a5.2,5.2,0,0,0,.62,2.79,2.15,2.15,0,0,0,3.58,0,5.29,5.29,0,0,0,.61-2.77Z"/><path d="M571.2,134.45a5.84,5.84,0,0,1-.83,3.42,2.78,2.78,0,0,1-2.43,1.17,2.82,2.82,0,0,1-2.43-1.15,5.63,5.63,0,0,1-.86-3.33v-1.92a5.75,5.75,0,0,1,.83-3.4,3.16,3.16,0,0,1,4.86,0,5.62,5.62,0,0,1,.86,3.29Zm-.88-1.92a5.24,5.24,0,0,0-.59-2.76,2.21,2.21,0,0,0-3.6,0,5.05,5.05,0,0,0-.61,2.71v2.09a5.11,5.11,0,0,0,.62,2.79,2,2,0,0,0,1.8,1,2,2,0,0,0,1.77-1,5.19,5.19,0,0,0,.61-2.77Z"/><path d="M615.56,133.08h.91a3.2,3.2,0,0,0,1.32-.26,2.09,2.09,0,0,0,.86-.74,2,2,0,0,0,.29-1.07,2.14,2.14,0,0,0-.58-1.6,2.22,2.22,0,0,0-1.66-.58,2.4,2.4,0,0,0-1.68.6,2.05,2.05,0,0,0-.65,1.59h-.88a2.83,2.83,0,0,1,.41-1.51,2.9,2.9,0,0,1,1.16-1.06,3.69,3.69,0,0,1,1.64-.37,3.19,3.19,0,0,1,2.29.79,2.87,2.87,0,0,1,.83,2.17,2.31,2.31,0,0,1-.49,1.42,3,3,0,0,1-1.33,1,2.76,2.76,0,0,1,1.51.95A2.61,2.61,0,0,1,620,136a2.88,2.88,0,0,1-.89,2.2,3.37,3.37,0,0,1-2.39.84,4,4,0,0,1-1.75-.38,2.81,2.81,0,0,1-1.66-2.66h.87a2.15,2.15,0,0,0,.71,1.66,2.68,2.68,0,0,0,1.83.64,2.57,2.57,0,0,0,1.77-.58,2.19,2.19,0,0,0,.63-1.69,2,2,0,0,0-.68-1.64,3.16,3.16,0,0,0-2-.56h-.88Z"/><path d="M622.52,133.43l.52-5.2h5.33V129h-4.58l-.37,3.6a3.46,3.46,0,0,1,2-.58,3,3,0,0,1,2.3.93,3.58,3.58,0,0,1,.86,2.5,3.81,3.81,0,0,1-.83,2.62,3,3,0,0,1-2.36.93,3.23,3.23,0,0,1-2.25-.78,3.14,3.14,0,0,1-1-2.17H623a2.6,2.6,0,0,0,.74,1.65,2.4,2.4,0,0,0,1.66.56,2.07,2.07,0,0,0,1.73-.73,3.2,3.2,0,0,0,.58-2.06,2.8,2.8,0,0,0-.65-1.91,2.23,2.23,0,0,0-1.78-.74,3.48,3.48,0,0,0-1.08.15,2.94,2.94,0,0,0-1,.62Z"/><path d="M636.67,134.45a5.91,5.91,0,0,1-.83,3.42,3.13,3.13,0,0,1-4.86,0,5.63,5.63,0,0,1-.87-3.33v-1.92a5.74,5.74,0,0,1,.84-3.4,3.15,3.15,0,0,1,4.85,0,5.54,5.54,0,0,1,.87,3.29Zm-.88-1.92a5.14,5.14,0,0,0-.6-2.76,2.2,2.2,0,0,0-3.59,0,5,5,0,0,0-.62,2.71v2.09a5.2,5.2,0,0,0,.62,2.79,2.15,2.15,0,0,0,3.58,0,5.29,5.29,0,0,0,.61-2.77Z"/><path d="M643.13,131l0,1.29a3,3,0,0,1,1.1-1.08,3,3,0,0,1,1.47-.36,2.22,2.22,0,0,1,2.38,1.54,2.88,2.88,0,0,1,1.13-1.14,3.14,3.14,0,0,1,1.57-.4c1.7,0,2.57.93,2.6,2.78v5.29h-.88v-5.22a2.36,2.36,0,0,0-.46-1.58,1.86,1.86,0,0,0-1.46-.51,2.35,2.35,0,0,0-1.6.61,2.17,2.17,0,0,0-.73,1.46v5.24h-.88V133.6a2.13,2.13,0,0,0-.48-1.52,1.92,1.92,0,0,0-1.45-.5,2.25,2.25,0,0,0-1.42.47,2.78,2.78,0,0,0-.88,1.41v5.43h-.88V131Z"/><path d="M655.58,128.68a.57.57,0,0,1,.16-.42.55.55,0,0,1,.44-.17.57.57,0,0,1,.44.17.57.57,0,0,1,.17.42.57.57,0,0,1-.17.41.6.6,0,0,1-.44.17.59.59,0,0,1-.44-.17A.56.56,0,0,1,655.58,128.68Zm1,10.21h-.88V131h.88Z"/><path d="M660,138.89h-.88V127.64H660Z"/><path d="M662.27,138.36a.61.61,0,0,1,.17-.43.59.59,0,0,1,.46-.18.6.6,0,0,1,.63.61.56.56,0,0,1-.17.42.65.65,0,0,1-.46.17.62.62,0,0,1-.46-.17A.56.56,0,0,1,662.27,138.36Z"/><path d="M677.13,128.23v7.28a3.63,3.63,0,0,1-.47,1.87,3.23,3.23,0,0,1-1.33,1.23,4.34,4.34,0,0,1-2,.43,3.86,3.86,0,0,1-2.7-.92,3.34,3.34,0,0,1-1-2.55v-7.34h.89v7.21a2.77,2.77,0,0,0,.77,2.09,3.27,3.27,0,0,0,4.17,0,2.77,2.77,0,0,0,.76-2.08v-7.22Z"/><path d="M685.68,136.27a1.73,1.73,0,0,0-.62-1.4,6.37,6.37,0,0,0-2.28-1,8.22,8.22,0,0,1-2.42-1,2.46,2.46,0,0,1-.07-4,4.13,4.13,0,0,1,2.57-.77,4.31,4.31,0,0,1,1.9.41,3.08,3.08,0,0,1,1.3,1.14,3,3,0,0,1,.46,1.64h-.9a2.23,2.23,0,0,0-.75-1.76,2.89,2.89,0,0,0-2-.67,3.15,3.15,0,0,0-2,.55,1.71,1.71,0,0,0-.72,1.43,1.61,1.61,0,0,0,.65,1.32,5.82,5.82,0,0,0,2.09.91,9.8,9.8,0,0,1,2.17.81,3.08,3.08,0,0,1,1.12,1,2.58,2.58,0,0,1,.37,1.38,2.43,2.43,0,0,1-1,2,4.32,4.32,0,0,1-2.65.76,5.38,5.38,0,0,1-2.07-.4,3.16,3.16,0,0,1-1.43-1.13,3,3,0,0,1-.49-1.67h.9a2.1,2.1,0,0,0,.85,1.78,3.53,3.53,0,0,0,2.24.66,3.38,3.38,0,0,0,2-.55A1.74,1.74,0,0,0,685.68,136.27Z"/><path d="M688.53,138.89V128.23h3a4.71,4.71,0,0,1,2.35.59,4.05,4.05,0,0,1,1.62,1.71,5.41,5.41,0,0,1,.59,2.54v1a5.42,5.42,0,0,1-.58,2.53,4.14,4.14,0,0,1-1.63,1.71,4.79,4.79,0,0,1-2.41.6Zm.9-9.9v9.14h2a3.47,3.47,0,0,0,2.71-1.12,4.34,4.34,0,0,0,1-3v-.94a4.22,4.22,0,0,0-1-3,3.39,3.39,0,0,0-2.64-1.11Z"/><path class="cls-6" d="M565.79,57.06H561.5v4.52h-1.85V50.91h6.77v1.5H561.5v3.17h4.29Z"/><path class="cls-6" d="M571.05,61.72a3.67,3.67,0,0,1-2.74-1.06,3.87,3.87,0,0,1-1-2.84V57.6a4.82,4.82,0,0,1,.45-2.12A3.5,3.5,0,0,1,569,54a3.38,3.38,0,0,1,1.85-.52,3.12,3.12,0,0,1,2.5,1,4.41,4.41,0,0,1,.88,2.92v.72h-5.18a2.33,2.33,0,0,0,.66,1.55,2,2,0,0,0,1.44.57,2.4,2.4,0,0,0,2-1l1,.92a3.16,3.16,0,0,1-1.27,1.1A4,4,0,0,1,571.05,61.72Zm-.21-6.79a1.49,1.49,0,0,0-1.18.52,2.57,2.57,0,0,0-.58,1.43h3.39v-.14a2.24,2.24,0,0,0-.47-1.35A1.52,1.52,0,0,0,570.84,54.93Zm.4-4.6h2l-2,2.22h-1.43Z"/><path class="cls-6" d="M579.76,55.28a4.4,4.4,0,0,0-.73-.06,1.62,1.62,0,0,0-1.64.94v5.42h-1.78V53.65h1.7l0,.89a2,2,0,0,1,1.79-1,1.67,1.67,0,0,1,.63.1Z"/><path class="cls-6" d="M580.29,57.54a4.69,4.69,0,0,1,.46-2.1A3.39,3.39,0,0,1,582,54a3.62,3.62,0,0,1,1.92-.5,3.47,3.47,0,0,1,2.61,1,4.12,4.12,0,0,1,1.08,2.74v.42a4.69,4.69,0,0,1-.46,2.09,3.32,3.32,0,0,1-1.29,1.43,3.61,3.61,0,0,1-1.93.5,3.46,3.46,0,0,1-2.69-1.11,4.3,4.3,0,0,1-1-3Zm1.78.16a3.23,3.23,0,0,0,.5,1.91,1.66,1.66,0,0,0,1.41.69,1.61,1.61,0,0,0,1.4-.7,3.56,3.56,0,0,0,.5-2.06,3.17,3.17,0,0,0-.51-1.9,1.67,1.67,0,0,0-1.41-.71,1.64,1.64,0,0,0-1.38.7A3.47,3.47,0,0,0,582.07,57.7Z"/><path class="cls-6" d="M591.84,59.32l1.68-5.67h1.84l-2.75,7.93h-1.54l-2.77-7.93h1.84Z"/><path class="cls-6" d="M599.24,59l1.61-5.38h1.9l-3.15,9.13a2.56,2.56,0,0,1-2.46,2,3.52,3.52,0,0,1-.86-.13V63.26l.34,0a1.73,1.73,0,0,0,1-.24,1.6,1.6,0,0,0,.54-.82l.26-.68-2.78-7.89h1.91Zm.6-8.7h2l-2,2.22h-1.43Z"/><path class="cls-6" d="M614.45,57.7a4.7,4.7,0,0,1-.84,2.93,2.91,2.91,0,0,1-4.33.24v3.75H607.5v-11h1.64l.08.81a2.59,2.59,0,0,1,2.13-1,2.69,2.69,0,0,1,2.27,1.08,4.84,4.84,0,0,1,.83,3Zm-1.78-.16a3.25,3.25,0,0,0-.47-1.88,1.54,1.54,0,0,0-1.35-.7,1.64,1.64,0,0,0-1.57.9v3.52a1.64,1.64,0,0,0,1.58.92,1.52,1.52,0,0,0,1.33-.68A3.65,3.65,0,0,0,612.67,57.54Z"/><path class="cls-6" d="M615.62,57.54a4.69,4.69,0,0,1,.46-2.1,3.35,3.35,0,0,1,1.3-1.43,3.57,3.57,0,0,1,1.92-.5,3.47,3.47,0,0,1,2.6,1A4,4,0,0,1,623,57.28v.42a4.69,4.69,0,0,1-.45,2.09,3.32,3.32,0,0,1-1.29,1.43,3.67,3.67,0,0,1-1.94.5,3.43,3.43,0,0,1-2.68-1.11,4.26,4.26,0,0,1-1-3Zm1.78.16a3.23,3.23,0,0,0,.5,1.91,1.66,1.66,0,0,0,1.41.69,1.61,1.61,0,0,0,1.4-.7,3.48,3.48,0,0,0,.5-2.06,3.17,3.17,0,0,0-.51-1.9,1.73,1.73,0,0,0-2.79,0A3.47,3.47,0,0,0,617.4,57.7Z"/><path class="cls-6" d="M624.16,57.56a4.69,4.69,0,0,1,.85-2.94,2.71,2.71,0,0,1,2.28-1.11,2.58,2.58,0,0,1,2,.88V50.33h1.78V61.58h-1.61l-.09-.82a2.62,2.62,0,0,1-2.13,1A2.69,2.69,0,0,1,625,60.6,4.82,4.82,0,0,1,624.16,57.56Zm1.78.15a3.32,3.32,0,0,0,.46,1.89,1.5,1.5,0,0,0,1.32.67,1.68,1.68,0,0,0,1.6-1V55.92a1.65,1.65,0,0,0-1.58-1,1.5,1.5,0,0,0-1.33.69A3.61,3.61,0,0,0,625.94,57.71Z"/><path class="cls-6" d="M634.87,61.58h-1.78V53.65h1.78Zm-.33-11.2h2l-2,2.22h-1.43Z"/><path class="cls-6" d="M638.79,61.58H637V50.33h1.78Z"/><path class="cls-6" d="M651.4,57.7a4.7,4.7,0,0,1-.83,2.93,2.91,2.91,0,0,1-4.33.24v3.75h-1.78v-11h1.64l.07.81a2.62,2.62,0,0,1,2.14-1,2.7,2.7,0,0,1,2.27,1.08,4.84,4.84,0,0,1,.82,3Zm-1.77-.16a3.33,3.33,0,0,0-.47-1.88,1.56,1.56,0,0,0-1.35-.7,1.64,1.64,0,0,0-1.57.9v3.52a1.64,1.64,0,0,0,1.58.92,1.52,1.52,0,0,0,1.33-.68A3.65,3.65,0,0,0,649.63,57.54Z"/><path class="cls-6" d="M652.58,57.54a4.69,4.69,0,0,1,.46-2.1A3.32,3.32,0,0,1,654.33,54a3.62,3.62,0,0,1,1.92-.5,3.47,3.47,0,0,1,2.61,1,4.12,4.12,0,0,1,1.08,2.74v.42a4.69,4.69,0,0,1-.45,2.09,3.32,3.32,0,0,1-1.29,1.43,3.61,3.61,0,0,1-1.93.5,3.46,3.46,0,0,1-2.69-1.11,4.3,4.3,0,0,1-1-3Zm1.78.16a3.16,3.16,0,0,0,.5,1.91,1.66,1.66,0,0,0,1.41.69,1.62,1.62,0,0,0,1.4-.7,3.56,3.56,0,0,0,.5-2.06,3.17,3.17,0,0,0-.51-1.9,1.67,1.67,0,0,0-1.41-.71,1.64,1.64,0,0,0-1.38.7A3.47,3.47,0,0,0,654.36,57.7Z"/><path class="cls-6" d="M661.12,57.56a4.69,4.69,0,0,1,.85-2.94,2.7,2.7,0,0,1,2.27-1.11,2.59,2.59,0,0,1,2,.88V50.33h1.78V61.58h-1.61l-.09-.82a2.62,2.62,0,0,1-2.13,1A2.69,2.69,0,0,1,662,60.6,4.82,4.82,0,0,1,661.12,57.56Zm1.78.15a3.32,3.32,0,0,0,.46,1.89,1.5,1.5,0,0,0,1.32.67,1.68,1.68,0,0,0,1.6-1V55.92a1.65,1.65,0,0,0-1.58-1,1.5,1.5,0,0,0-1.33.69A3.61,3.61,0,0,0,662.9,57.71Z"/><path class="cls-6" d="M671.81,61.58H670V50.33h1.78Z"/><path class="cls-6" d="M677.24,61.72a3.69,3.69,0,0,1-2.75-1.06,3.87,3.87,0,0,1-1-2.84V57.6a4.82,4.82,0,0,1,.46-2.12A3.44,3.44,0,0,1,675.19,54a3.34,3.34,0,0,1,1.84-.52,3.1,3.1,0,0,1,2.5,1,4.35,4.35,0,0,1,.88,2.92v.72h-5.17a2.37,2.37,0,0,0,.65,1.55,2,2,0,0,0,1.45.57,2.41,2.41,0,0,0,2-1l1,.92a3.23,3.23,0,0,1-1.27,1.1A4,4,0,0,1,677.24,61.72ZM677,54.93a1.52,1.52,0,0,0-1.18.52,2.64,2.64,0,0,0-.57,1.43h3.39v-.14a2.18,2.18,0,0,0-.48-1.35A1.51,1.51,0,0,0,677,54.93Z"/><path class="cls-6" d="M694.17,61.58h-1.84V56.85h-4.77v4.73H685.7V50.91h1.86v4.44h4.77V50.91h1.84Z"/><path class="cls-6" d="M696.36,61.58V50.91h3.15a5,5,0,0,1,2.51.63,4.3,4.3,0,0,1,1.69,1.79,5.68,5.68,0,0,1,.6,2.65v.54a5.64,5.64,0,0,1-.6,2.66A4.28,4.28,0,0,1,702,61a5.24,5.24,0,0,1-2.56.62Zm1.85-9.17V60.1h1.21a2.81,2.81,0,0,0,2.24-.91,4,4,0,0,0,.79-2.62V56a4.1,4.1,0,0,0-.75-2.65,2.66,2.66,0,0,0-2.19-.91Z"/><path class="cls-6" d="M708,57.62v4h-1.85V50.91h4.08a4.14,4.14,0,0,1,2.84.93,3.16,3.16,0,0,1,1,2.47,3,3,0,0,1-1,2.44,4.34,4.34,0,0,1-2.88.87Zm0-1.49h2.23a2.2,2.2,0,0,0,1.51-.47,1.72,1.72,0,0,0,.52-1.34,1.84,1.84,0,0,0-.53-1.38,2,2,0,0,0-1.45-.53H708Z"/><line class="cls-7" x1="546.12" y1="44.42" x2="546.12" y2="67.13"/><line class="cls-8" x1="163.51" y1="123.17" x2="163.51" y2="92.88"/><line class="cls-8" x1="295.54" y1="123.17" x2="295.54" y2="92.88"/><line class="cls-8" x1="427.58" y1="123.17" x2="427.58" y2="92.88"/><line class="cls-8" x1="559.61" y1="123.17" x2="559.61" y2="92.88"/><line class="cls-8" x1="625.63" y1="123.17" x2="625.63" y2="92.88"/><rect class="cls-9" x="163.51" y="92.88" width="11.1" height="18.43"/><rect class="cls-10" x="174.61" y="92.88" width="457.93" height="18.43"/><line class="cls-7" x1="632.54" y1="90.74" x2="632.54" y2="113.45"/></svg>