<svg id="Layer_1" data-name="Layer 1" xmlns="http://www.w3.org/2000/svg" viewBox="0 0 520 431.89"><defs><style>.cls-1,.cls-15{fill:none;}.cls-1{stroke:#808285;stroke-linecap:square;stroke-linejoin:round;stroke-width:0.3px;stroke-dasharray:5.69;}.cls-2{fill:#fff;}.cls-3,.cls-8{fill:#3e77de;}.cls-3,.cls-7{opacity:0.9;}.cls-10,.cls-4{fill:#3892dc;}.cls-4,.cls-5,.cls-6,.cls-9{opacity:0.8;}.cls-11,.cls-5{fill:#ffb733;}.cls-13,.cls-6{fill:#b4bfca;}.cls-12{fill:#f5a005;}.cls-14{fill:#a4aeb8;}.cls-15{stroke:#ffb733;stroke-miterlimit:10;stroke-width:0.75px;}</style></defs><path d="M14.42,15.07c0,2.83-1.63,4.51-4.39,4.51H8.87v4.27H6.18V10.55H10C12.79,10.55,14.42,12.22,14.42,15.07Zm-2.77,0c0-1.29-.57-2-1.65-2H8.87V17H10C11.08,17,11.65,16.35,11.65,15.07Z"/><path d="M17.65,19.54V14.86c0-2.85,1.62-4.54,4.32-4.54s4.31,1.69,4.31,4.54v4.68c0,2.85-1.62,4.54-4.31,4.54S17.65,22.39,17.65,19.54Zm5.84,0V14.86C23.49,13.61,23,13,22,13s-1.52.66-1.52,1.91v4.68c0,1.25.51,1.92,1.52,1.92S23.49,20.79,23.49,19.54Z"/><path d="M29.34,20h2.77c0,1.07.53,1.52,1.39,1.52s1.33-.51,1.33-1.17c0-2.21-5.21-2.47-5.21-6.52,0-2,1.43-3.51,3.88-3.51a3.61,3.61,0,0,1,3.93,3.91H34.66c0-.87-.4-1.31-1.18-1.31s-1.12.38-1.12,1c0,2.09,5.28,2.22,5.28,6.46,0,2.18-1.54,3.78-4.18,3.78A3.78,3.78,0,0,1,29.34,20Z"/><path d="M44.37,18.82,43.63,20v3.84H41V10.55h2.66v5.09l.68-1.48,1.86-3.61h3.08l-3.38,5.81,4,7.49h-3Z"/><path d="M55.24,19.9,52.1,10.55h2.79L56,14.24c.13.43.43,1.48.57,2.12h.07c.15-.64.46-1.69.61-2.18l1-3.63h2.8L57.93,19.9v4H55.24Z"/><path d="M71.23,13.12h-2.6V23.85H65.86V13.12H63.25V10.55h8Z"/><path d="M74.41,10.55h2.66l2.52,5.78c.32.83.63,1.71,1,2.54l.06-.05a45.76,45.76,0,0,1-.38-5.19V10.55h2.66v13.3H80.22L78,18.7l-1.2-3.25-.06.06a53.8,53.8,0,0,1,.35,5.64v2.7H74.41Z"/><path d="M86.91,19.61V10.55h2.75v9.06c0,1.2.48,1.85,1.43,1.85s1.42-.65,1.42-1.85V10.55h2.76v9.06c0,2.8-1.56,4.47-4.18,4.47S86.91,22.41,86.91,19.61Z"/><path d="M106.38,13.12h-2.6V23.85H101V13.12H98.4V10.55h8Z"/><path d="M116.6,21.29v2.56h-7V10.55h6.85v2.57h-4.16v2.75H116v2.47h-3.78v2.95Zm-3.06-12h-1.78l1.78-2.6h2.15Z"/><path d="M129.45,18.82,128.71,20v3.84h-2.66V10.55h2.66v5.09l.68-1.48,1.86-3.61h3.08L131,16.36l4,7.49h-3Z"/><path d="M144.46,21.29v2.56h-6.65V10.55h2.7V21.29Z"/><path d="M147.65,10.55h2.7v13.3h-2.7Z"/><path d="M166,10.55v13.3H163.4V20.58c.08-1.61.13-3.23.21-4.84l-.1,0-1.19,3.5-.67,1.8H159l-.66-1.8-1.2-3.5-.09,0c.05,1.61.13,3.23.19,4.84v3.27H154.6V10.55h2.72l2.09,5c.27.66.72,1.82.87,2.31h.08c.15-.49.61-1.65.87-2.31l2.09-5Z"/><path d="M175.22,21.65h-2.81l-.44,2.2h-2.79l3.19-13.3h2.89l3.19,13.3h-2.79Zm-.53-2.57-.31-1.52c-.17-.95-.4-2.56-.53-3.65h-.08c-.13,1.09-.34,2.7-.53,3.65l-.3,1.52Z"/><path d="M187.91,13.12h-2.6V23.85h-2.78V13.12h-2.6V10.55h8Z"/><path d="M191.08,10.55h2.7v13.3h-2.7Z"/><path d="M197.66,19.78V14.62c0-2.81,1.52-4.33,4.12-4.33s4.14,1.52,4.24,4.33h-2.7c-.08-1.22-.53-1.71-1.56-1.71-.82,0-1.29.53-1.29,1.71v5.16c0,1.14.46,1.68,1.29,1.68,1.05,0,1.52-.5,1.6-1.68h2.69c-.05,2.8-1.59,4.3-4.29,4.3S197.66,22.58,197.66,19.78Z"/><path d="M212.91,18.82,212.17,20v3.84h-2.66V10.55h2.66v5.09l.69-1.48,1.86-3.61h3.08l-3.39,5.81,4,7.49h-3Z"/><path d="M228.32,21.29v2.56h-7V10.55h6.85v2.57H224v2.75h3.78v2.47H224v2.95Zm-3.06-12h-1.78l1.78-2.6h2.15Z"/><path d="M240.46,13.12v2.75H244v2.47h-3.5v5.51h-2.69V10.55h6.57v2.57Z"/><path d="M247.86,10.55h2.69v13.3h-2.69Z"/><path d="M254.81,10.55h2.66L260,16.33c.32.83.62,1.71.95,2.54l.05-.05a45.76,45.76,0,0,1-.38-5.19V10.55h2.66v13.3h-2.66l-2.24-5.15-1.2-3.25-.05.06a53.69,53.69,0,0,1,.34,5.64v2.7h-2.66Z"/><path d="M272.46,21.65h-2.81l-.44,2.2h-2.79l3.19-13.3h2.89l3.19,13.3H272.9Zm-.53-2.57-.31-1.52c-.17-.95-.39-2.56-.53-3.65H271c-.14,1.09-.35,2.7-.54,3.65l-.3,1.52Z"/><path d="M278.82,10.55h2.67L284,16.33c.32.83.63,1.71.95,2.54l.06-.05a45.76,45.76,0,0,1-.38-5.19V10.55h2.66v13.3h-2.66L282.4,18.7l-1.2-3.25-.06.06a53.8,53.8,0,0,1,.35,5.64v2.7h-2.67Z"/><path d="M291.18,19.78V14.62c0-2.81,1.52-4.33,4.12-4.33s4.14,1.52,4.23,4.33h-2.69c-.08-1.22-.54-1.71-1.56-1.71-.82,0-1.29.53-1.29,1.71v5.16c0,1.14.45,1.68,1.29,1.68,1,0,1.52-.5,1.59-1.68h2.7c-.05,2.8-1.59,4.3-4.29,4.3S291.18,22.58,291.18,19.78Z"/><path d="M310.08,21.29v2.56H303V10.55h6.86v2.57h-4.16v2.75h3.78v2.47h-3.78v2.95Z"/><path d="M318.4,10.55h2.79l1.2,6.29c.19,1,.42,2.6.55,3.7H323c.13-1.1.36-2.73.55-3.7l1.2-6.29h2.79l-3.15,13.3h-2.85Z"/><path d="M343,21.29v2.56h-6.65V10.55h2.7V21.29Z"/><path d="M353.28,21.29v2.56h-7V10.55h6.85v2.57h-4.16v2.75h3.78v2.47h-3.78v2.95Z"/><path d="M364.11,13.12h-2.6V23.85h-2.77V13.12h-2.6V10.55h8Z"/><path d="M374.34,21.29v2.56h-7V10.55h6.86v2.57H370v2.75h3.78v2.47H370v2.95Z"/><path d="M377.7,19.78V14.62c0-2.81,1.52-4.33,4.12-4.33s4.14,1.52,4.24,4.33h-2.7c-.08-1.22-.53-1.71-1.56-1.71-.81,0-1.29.53-1.29,1.71v5.16c0,1.14.46,1.68,1.29,1.68,1.05,0,1.52-.5,1.6-1.68h2.7c-.06,2.8-1.6,4.3-4.3,4.3S377.7,22.58,377.7,19.78Z"/><path d="M397.73,10.55v13.3H395V18.44h-2.74v5.41h-2.71V10.55h2.71v5.32H395V10.55Z"/><path d="M406.94,22.25c0-4.21,4.75-6.11,4.75-8.34a1,1,0,0,0-1-1.15c-.69,0-1.11.49-1.14,1.38h-2.44c.12-2.52,1.39-3.82,3.54-3.82a3.39,3.39,0,0,1,3.64,3.46c0,3.4-4.59,5.66-4.59,7.68h4.65v2.39h-7.37Z"/><path d="M417.54,20V14.41c0-2.55,1.43-4.05,3.82-4.05s3.84,1.5,3.84,4.05V20c0,2.53-1.43,4-3.84,4S417.54,22.56,417.54,20Zm5.15,0V14.43c0-1.09-.45-1.66-1.33-1.66s-1.31.57-1.31,1.66v5.62c0,1.06.44,1.62,1.31,1.62S422.69,21.11,422.69,20.05Z"/><path d="M432.72,10.55v13.3h-2.56V14l-1.83,1V12.26l2.78-1.71Z"/><path d="M443.4,19v.82c0,2.77-1,4.24-3.69,4.24-2.35,0-3.59-1.43-3.7-3.9h2.55c.07.92.36,1.39,1.14,1.39s1.12-.55,1.12-1.79v-.66c0-1.27-.46-1.58-1.35-1.58h-1.26V15.87l1.81-3h-3.55V10.55h6.65v1.69L441,15.66A3.2,3.2,0,0,1,443.4,19Z"/><path d="M446.56,16h6.64v2.2h-6.64Z"/><path d="M456.11,22.25c0-4.21,4.75-6.11,4.75-8.34a1,1,0,0,0-1-1.15c-.69,0-1.1.49-1.14,1.38h-2.43c.11-2.52,1.38-3.82,3.53-3.82a3.39,3.39,0,0,1,3.65,3.46c0,3.4-4.6,5.66-4.6,7.68h4.65v2.39h-7.37Z"/><path d="M466.71,20V14.41c0-2.55,1.43-4.05,3.82-4.05s3.84,1.5,3.84,4.05V20c0,2.53-1.42,4-3.84,4S466.71,22.56,466.71,20Zm5.15,0V14.43c0-1.09-.45-1.66-1.33-1.66s-1.31.57-1.31,1.66v5.62c0,1.06.44,1.62,1.31,1.62S471.86,21.11,471.86,20.05Z"/><path d="M481.89,10.55v13.3h-2.56V14l-1.82,1V12.26l2.77-1.71Z"/><path d="M493,14v6.42a3.7,3.7,0,0,1-7.39,0h2.52c.1.7.44,1.14,1.18,1.14a1,1,0,0,0,1.14-1.16V18.68a2.41,2.41,0,0,1-1.61.57,3.21,3.21,0,0,1-3.31-3.38V14A3.74,3.74,0,0,1,493,14Zm-2.55,1.69V14a1.08,1.08,0,0,0-1.18-1.18A1.09,1.09,0,0,0,488.11,14v1.67a1.19,1.19,0,1,0,2.37,0Z"/><line class="cls-1" x1="30.44" y1="328.37" x2="503.77" y2="328.37"/><line class="cls-1" x1="30.44" y1="264.66" x2="503.77" y2="264.66"/><line class="cls-1" x1="30.44" y1="200.8" x2="503.77" y2="200.8"/><line class="cls-1" x1="77.21" y1="137.1" x2="503.77" y2="137.1"/><line class="cls-1" x1="30.44" y1="392.08" x2="503.77" y2="392.08"/><path d="M21.92,392a5.92,5.92,0,0,1-.82,3.42,2.8,2.8,0,0,1-2.44,1.17,2.83,2.83,0,0,1-2.43-1.15,5.63,5.63,0,0,1-.86-3.33v-1.92a5.84,5.84,0,0,1,.83-3.4,2.83,2.83,0,0,1,2.44-1.16,2.82,2.82,0,0,1,2.42,1.12,5.47,5.47,0,0,1,.86,3.29Zm-.87-1.91a5.16,5.16,0,0,0-.6-2.77,2,2,0,0,0-1.81-.94,2,2,0,0,0-1.78.91,5.1,5.1,0,0,0-.62,2.71v2.09a5.2,5.2,0,0,0,.62,2.79,2,2,0,0,0,1.8,1,2,2,0,0,0,1.77-.95,5.17,5.17,0,0,0,.62-2.76Z"/><rect class="cls-2" x="38.57" y="183.29" width="69.96" height="37.77"/><rect class="cls-2" x="254.25" y="164.4" width="45.56" height="37.77"/><rect class="cls-2" x="383.35" y="117.82" width="45.29" height="20.92"/><path d="M13.46,133.56A2.43,2.43,0,0,1,13,135a2.86,2.86,0,0,1-1.27,1,3.14,3.14,0,0,1,1.48,1,2.52,2.52,0,0,1,.55,1.62,2.71,2.71,0,0,1-.93,2.17,3.61,3.61,0,0,1-2.46.8,3.66,3.66,0,0,1-2.47-.79A2.74,2.74,0,0,1,7,138.65,2.63,2.63,0,0,1,7.49,137,2.94,2.94,0,0,1,9,136a2.83,2.83,0,0,1-1.26-1,2.48,2.48,0,0,1-.47-1.48,2.73,2.73,0,0,1,.86-2.11,3.22,3.22,0,0,1,2.26-.78,3.18,3.18,0,0,1,2.26.79A2.7,2.7,0,0,1,13.46,133.56Zm-.59,5.1a2.1,2.1,0,0,0-.72-1.64,2.59,2.59,0,0,0-1.81-.64,2.61,2.61,0,0,0-1.81.63,2.1,2.1,0,0,0-.7,1.65,2,2,0,0,0,.68,1.62,2.68,2.68,0,0,0,1.84.6,2.64,2.64,0,0,0,1.83-.6A2.07,2.07,0,0,0,12.87,138.66Zm-.28-5.11A2,2,0,0,0,12,132a2.22,2.22,0,0,0-1.61-.62,2.27,2.27,0,0,0-1.62.59,2.06,2.06,0,0,0-.62,1.55,2,2,0,0,0,.62,1.51,2.33,2.33,0,0,0,1.63.57,2.31,2.31,0,0,0,1.61-.57A2,2,0,0,0,12.59,133.55Z"/><path d="M21.92,137a5.93,5.93,0,0,1-.82,3.43,2.83,2.83,0,0,1-2.44,1.16,2.83,2.83,0,0,1-2.43-1.14,5.69,5.69,0,0,1-.86-3.34v-1.91a5.88,5.88,0,0,1,.83-3.41,2.82,2.82,0,0,1,2.44-1.15,2.84,2.84,0,0,1,2.42,1.11,5.6,5.6,0,0,1,.86,3.3ZM21,135.12a5.21,5.21,0,0,0-.59-2.77,2,2,0,0,0-1.81-.94,2,2,0,0,0-1.78.92,4.94,4.94,0,0,0-.62,2.7v2.1a5.24,5.24,0,0,0,.62,2.79,2,2,0,0,0,1.8,1,2,2,0,0,0,1.77-.94,5.1,5.1,0,0,0,.61-2.77Z"/><path d="M28.39,133.55l0,1.29a2.89,2.89,0,0,1,1.1-1.07,3,3,0,0,1,1.46-.36,2.24,2.24,0,0,1,2.39,1.53,2.92,2.92,0,0,1,1.13-1.13,3.11,3.11,0,0,1,1.57-.4c1.7,0,2.56.92,2.6,2.78v5.29h-.88v-5.22a2.4,2.4,0,0,0-.46-1.58,1.87,1.87,0,0,0-1.47-.51,2.3,2.3,0,0,0-1.59.61,2.15,2.15,0,0,0-.73,1.45v5.25h-.88v-5.29a2.12,2.12,0,0,0-.48-1.52,1.92,1.92,0,0,0-1.45-.5,2.23,2.23,0,0,0-1.42.47,2.75,2.75,0,0,0-.88,1.4v5.44h-.88v-7.93Z"/><path d="M41.87,141.48H41V130.23h.88Z"/><path d="M43.9,137.44a4.77,4.77,0,0,1,.82-2.94A2.66,2.66,0,0,1,47,133.41a2.78,2.78,0,0,1,2.45,1.26v-4.44h.87v11.25h-.82l0-1.06a2.84,2.84,0,0,1-2.48,1.2,2.61,2.61,0,0,1-2.2-1.1,4.77,4.77,0,0,1-.84-3Zm.88.16a4.18,4.18,0,0,0,.61,2.39,2,2,0,0,0,1.72.87,2.37,2.37,0,0,0,2.3-1.42v-3.73a2.35,2.35,0,0,0-2.29-1.54,2,2,0,0,0-1.72.87A4.39,4.39,0,0,0,44.78,137.6Z"/><path d="M52.5,141a.6.6,0,0,1,.17-.43.59.59,0,0,1,.46-.18.62.62,0,0,1,.46.18.6.6,0,0,1,.17.43.57.57,0,0,1-.17.42.65.65,0,0,1-.46.17.62.62,0,0,1-.46-.17A.57.57,0,0,1,52.5,141Z"/><path d="M67.36,130.81v7.28a3.67,3.67,0,0,1-.47,1.88,3.26,3.26,0,0,1-1.32,1.23,4.41,4.41,0,0,1-2,.42,3.85,3.85,0,0,1-2.7-.91,3.37,3.37,0,0,1-1-2.55v-7.35h.89V138a2.79,2.79,0,0,0,.77,2.09,3.31,3.31,0,0,0,4.17,0,2.79,2.79,0,0,0,.76-2.08v-7.23Z"/><path d="M75.91,138.86a1.76,1.76,0,0,0-.62-1.41,6.66,6.66,0,0,0-2.28-1,8.25,8.25,0,0,1-2.42-1,2.47,2.47,0,0,1-.07-4,4.13,4.13,0,0,1,2.57-.76,4.18,4.18,0,0,1,1.9.41,3,3,0,0,1,1.3,1.14,3,3,0,0,1,.46,1.63h-.9a2.25,2.25,0,0,0-.75-1.76,2.93,2.93,0,0,0-2-.66,3.15,3.15,0,0,0-2,.55,1.7,1.7,0,0,0-.72,1.42,1.62,1.62,0,0,0,.65,1.33,6.19,6.19,0,0,0,2.09.91,9.61,9.61,0,0,1,2.17.81,3.08,3.08,0,0,1,1.12,1,2.5,2.5,0,0,1,.37,1.38,2.4,2.4,0,0,1-1,2,4.25,4.25,0,0,1-2.65.76,5.2,5.2,0,0,1-2.07-.4,3.15,3.15,0,0,1-1.43-1.13,2.92,2.92,0,0,1-.49-1.66h.9a2.14,2.14,0,0,0,.85,1.78,3.53,3.53,0,0,0,2.24.65,3.31,3.31,0,0,0,2-.55A1.71,1.71,0,0,0,75.91,138.86Z"/><path d="M78.76,141.48V130.81h3a4.59,4.59,0,0,1,2.35.6,4.05,4.05,0,0,1,1.62,1.71,5.38,5.38,0,0,1,.59,2.54v1a5.45,5.45,0,0,1-.58,2.53,4.14,4.14,0,0,1-1.63,1.71,4.79,4.79,0,0,1-2.41.6Zm.9-9.9v9.14h2a3.51,3.51,0,0,0,2.71-1.12,4.37,4.37,0,0,0,1-3v-.93a4.22,4.22,0,0,0-1-2.95,3.39,3.39,0,0,0-2.64-1.11Z"/><polyline class="cls-3" points="93.23 320.35 51.83 320.35 51.83 392.08 93.23 392.08 93.23 320.35"/><polyline class="cls-4" points="93.23 270.99 51.83 270.99 51.83 320.35 93.23 320.35 93.23 270.99"/><polygon class="cls-5" points="51.83 230.11 93.23 230.11 93.23 270.99 51.83 270.99 51.83 230.11 51.83 230.11"/><polyline class="cls-6" points="93.23 225.02 51.83 225.02 51.83 230.11 93.23 230.11 93.23 225.02"/><path d="M63.59,417H56.91v-.68l3.65-4.14a9.36,9.36,0,0,0,1.26-1.73,2.84,2.84,0,0,0,.35-1.33,2.14,2.14,0,0,0-.59-1.6A2.22,2.22,0,0,0,60,407a2.3,2.3,0,0,0-1.74.69,2.49,2.49,0,0,0-.67,1.79h-.87a3.35,3.35,0,0,1,.41-1.64,2.88,2.88,0,0,1,1.16-1.16,3.44,3.44,0,0,1,1.71-.42,3.25,3.25,0,0,1,2.29.76,2.79,2.79,0,0,1,.82,2.1,3.43,3.43,0,0,1-.47,1.63A12,12,0,0,1,61,412.93l-3,3.37h5.61Z"/><path d="M71.65,412.59a5.91,5.91,0,0,1-.83,3.42,2.79,2.79,0,0,1-2.44,1.17A2.83,2.83,0,0,1,66,416a5.69,5.69,0,0,1-.86-3.34v-1.91a5.78,5.78,0,0,1,.83-3.41,2.82,2.82,0,0,1,2.44-1.15,2.86,2.86,0,0,1,2.42,1.11,5.64,5.64,0,0,1,.86,3.29Zm-.88-1.91a5.18,5.18,0,0,0-.6-2.77,2,2,0,0,0-1.8-.94,2,2,0,0,0-1.79.92,5,5,0,0,0-.61,2.7v2.1a5.15,5.15,0,0,0,.62,2.79,2,2,0,0,0,1.79,1,2,2,0,0,0,1.78-.94,5.22,5.22,0,0,0,.61-2.77Z"/><path d="M77.61,417h-.88v-9.61l-2.9,1.07v-.82l3.64-1.35h.14Z"/><path d="M83.79,411.23h.91A3,3,0,0,0,86,411a2,2,0,0,0,.86-.73,2,2,0,0,0,.3-1.08,2.15,2.15,0,0,0-.58-1.6,2.28,2.28,0,0,0-1.66-.58,2.33,2.33,0,0,0-1.68.61,2,2,0,0,0-.66,1.59h-.88a2.82,2.82,0,0,1,.42-1.51,2.77,2.77,0,0,1,1.16-1.06,3.56,3.56,0,0,1,1.64-.37,3.16,3.16,0,0,1,2.28.79,2.82,2.82,0,0,1,.84,2.16,2.27,2.27,0,0,1-.49,1.42,2.87,2.87,0,0,1-1.34,1,2.76,2.76,0,0,1,1.51,1,2.61,2.61,0,0,1,.52,1.61,2.87,2.87,0,0,1-.9,2.21,3.37,3.37,0,0,1-2.39.83,3.89,3.89,0,0,1-1.74-.38,2.82,2.82,0,0,1-1.67-2.66h.88a2.15,2.15,0,0,0,.71,1.66,2.59,2.59,0,0,0,1.82.64,2.5,2.5,0,0,0,1.77-.58,2.16,2.16,0,0,0,.64-1.69,2,2,0,0,0-.69-1.63,3.08,3.08,0,0,0-2-.56h-.88Z"/><path d="M44.21,196.67l.58-5.38h5.73v1.54H46.27L46,195.38a3.22,3.22,0,0,1,1.67-.43,3,3,0,0,1,2.37,1,3.87,3.87,0,0,1,.84,2.62,3.57,3.57,0,0,1-.93,2.59,3.45,3.45,0,0,1-2.57,1,3.6,3.6,0,0,1-2.43-.83,3,3,0,0,1-1-2.19h1.73a1.87,1.87,0,0,0,.55,1.19,1.72,1.72,0,0,0,1.19.41,1.51,1.51,0,0,0,1.28-.59,2.55,2.55,0,0,0,.45-1.59,2.21,2.21,0,0,0-.5-1.54,1.77,1.77,0,0,0-1.39-.57,2.2,2.2,0,0,0-.82.13,2.24,2.24,0,0,0-.74.5Z"/><path d="M59.43,202H52.26v-1.23l3.56-3.87a9.18,9.18,0,0,0,1.09-1.43,2.33,2.33,0,0,0,.33-1.16,1.77,1.77,0,0,0-.43-1.23,1.51,1.51,0,0,0-1.16-.47,1.73,1.73,0,0,0-1.34.53,2.1,2.1,0,0,0-.47,1.44H52.06a3.53,3.53,0,0,1,.44-1.75,3.09,3.09,0,0,1,1.27-1.21,4,4,0,0,1,1.9-.44,3.62,3.62,0,0,1,2.45.78,2.71,2.71,0,0,1,.9,2.16,3.72,3.72,0,0,1-.45,1.68,9.69,9.69,0,0,1-1.48,2l-2.61,2.79h5Z"/><path d="M61.15,204.36l-.95-.57a5.65,5.65,0,0,0,.58-1.16,3.49,3.49,0,0,0,.16-1v-1.39h1.61v1.29a3.74,3.74,0,0,1-.39,1.55A3.92,3.92,0,0,1,61.15,204.36Z"/><path d="M70.1,198.15h1.33v1.43H70.1V202H68.32v-2.38h-4.6l0-1.08,4.6-7.21H70.1Zm-4.57,0h2.79V193.7l-.13.24Z"/><path d="M77.49,194l0,1.29a2.92,2.92,0,0,1,1.1-1.08,3,3,0,0,1,1.46-.36,2.23,2.23,0,0,1,2.38,1.54,3,3,0,0,1,1.14-1.14,3.18,3.18,0,0,1,1.56-.4c1.7,0,2.57.93,2.6,2.79V202h-.88v-5.23a2.34,2.34,0,0,0-.45-1.57,1.87,1.87,0,0,0-1.47-.51,2.34,2.34,0,0,0-1.6.61,2.18,2.18,0,0,0-.72,1.45V202h-.88v-5.29a2.21,2.21,0,0,0-.48-1.52,1.9,1.9,0,0,0-1.46-.5,2.19,2.19,0,0,0-1.42.47,2.78,2.78,0,0,0-.88,1.4V202h-.87V194Z"/><path d="M91,202h-.88V190.71H91Z"/><path d="M93,197.92a4.77,4.77,0,0,1,.83-2.94,2.65,2.65,0,0,1,2.23-1.1,2.77,2.77,0,0,1,2.45,1.27v-4.44h.87V202h-.82l0-1.06A2.85,2.85,0,0,1,96,202.1a2.66,2.66,0,0,1-2.21-1.1,4.81,4.81,0,0,1-.84-3Zm.89.15a4.09,4.09,0,0,0,.61,2.39,1.94,1.94,0,0,0,1.71.88,2.36,2.36,0,0,0,2.3-1.43v-3.72a2.34,2.34,0,0,0-2.28-1.54,2,2,0,0,0-1.73.86A4.44,4.44,0,0,0,93.88,198.07Z"/><path d="M101.6,201.43a.63.63,0,0,1,.16-.44.6.6,0,0,1,.46-.18.59.59,0,0,1,.46.18.64.64,0,0,1,.17.44.57.57,0,0,1-.17.42.61.61,0,0,1-.46.16.63.63,0,0,1-.46-.16A.57.57,0,0,1,101.6,201.43Z"/><path d="M54.06,217.36a2.36,2.36,0,0,0,1.54-.51,1.86,1.86,0,0,0,.67-1.34h.84a2.53,2.53,0,0,1-.46,1.32,2.67,2.67,0,0,1-1.11.93,3.25,3.25,0,0,1-1.48.34A3.07,3.07,0,0,1,51.59,217a4.38,4.38,0,0,1-.91-2.92v-.26a4.84,4.84,0,0,1,.41-2.07,3.09,3.09,0,0,1,1.17-1.39,3.23,3.23,0,0,1,1.79-.5,3,3,0,0,1,2.15.78,2.82,2.82,0,0,1,.91,2h-.84a2.28,2.28,0,0,0-4.06-1.21,3.91,3.91,0,0,0-.65,2.4v.26a3.81,3.81,0,0,0,.65,2.36A2.2,2.2,0,0,0,54.06,217.36Z"/><path d="M61.93,218.1a3.41,3.41,0,0,1-3.1-1.88,4.39,4.39,0,0,1-.45-2v-.32a4.57,4.57,0,0,1,.44-2.05,3.54,3.54,0,0,1,1.23-1.44,3.06,3.06,0,0,1,1.72-.53,2.87,2.87,0,0,1,2.29,1,4,4,0,0,1,.84,2.69v.49H59.25v.17a3.26,3.26,0,0,0,.77,2.24,2.44,2.44,0,0,0,1.94.9,2.91,2.91,0,0,0,1.25-.25,2.86,2.86,0,0,0,1-.82l.55.41A3.17,3.17,0,0,1,61.93,218.1Zm-.16-7.47a2.18,2.18,0,0,0-1.67.73,3.29,3.29,0,0,0-.82,1.94H64v-.09a2.89,2.89,0,0,0-.65-1.86A2,2,0,0,0,61.77,210.63Z"/><path d="M67.59,218h-.88V206.71h.88Z"/><path d="M71.85,214l-1,1v3H70V206.71h.88v7.19l.83-.89,3-3h1.1l-3.36,3.34L76.11,218h-1Z"/><path d="M80.24,218.1a3.41,3.41,0,0,1-3.1-1.88,4.39,4.39,0,0,1-.45-2v-.32a4.57,4.57,0,0,1,.44-2.05,3.54,3.54,0,0,1,1.23-1.44,3.06,3.06,0,0,1,1.72-.53,2.87,2.87,0,0,1,2.29,1,4,4,0,0,1,.84,2.69v.49H77.56v.17a3.31,3.31,0,0,0,.77,2.24,2.46,2.46,0,0,0,2,.9,2.89,2.89,0,0,0,1.24-.25,2.86,2.86,0,0,0,1-.82l.55.41A3.17,3.17,0,0,1,80.24,218.1Zm-.16-7.47a2.18,2.18,0,0,0-1.67.73,3.29,3.29,0,0,0-.82,1.94h4.75v-.09a2.89,2.89,0,0,0-.65-1.86A2,2,0,0,0,80.08,210.63Z"/><path d="M85.72,210l0,1.29a2.89,2.89,0,0,1,1.09-1.08,3,3,0,0,1,1.47-.36,2.23,2.23,0,0,1,2.38,1.54,3,3,0,0,1,1.13-1.14,3.24,3.24,0,0,1,1.57-.4c1.7,0,2.57.93,2.6,2.79V218h-.88v-5.23a2.34,2.34,0,0,0-.45-1.57,1.87,1.87,0,0,0-1.47-.51,2.32,2.32,0,0,0-1.6.61,2.14,2.14,0,0,0-.72,1.45V218H90v-5.29a2.21,2.21,0,0,0-.48-1.52,1.9,1.9,0,0,0-1.46-.5,2.19,2.19,0,0,0-1.42.47,2.78,2.78,0,0,0-.88,1.4V218h-.88V210Z"/><polyline class="cls-3" points="495.14 300.3 453.97 300.3 453.97 392.08 495.14 392.08 495.14 300.3"/><polyline class="cls-4" points="495.14 191.7 453.97 191.7 453.97 300.3 495.14 300.3 495.14 191.7"/><polygon class="cls-5" points="453.97 146.97 495.14 146.97 495.14 191.7 453.97 191.7 453.97 146.97 453.97 146.97"/><polyline class="cls-6" points="495.14 138.79 453.97 138.79 453.97 146.97 495.14 146.97 495.14 138.79"/><path d="M468,122.05l-4.26,9.68h-1.87l4.26-9.24h-5.52v-1.43H468Z"/><path d="M474.49,127.27a2.92,2.92,0,0,1-4.33,0,3.86,3.86,0,0,1-.84-2.59,4.33,4.33,0,0,1,.43-1.92,3.18,3.18,0,0,1,1.21-1.33,3.49,3.49,0,0,1,1.81-.47,3.08,3.08,0,0,1,2.56,1.2,5,5,0,0,1,.95,3.21v.5a6.55,6.55,0,0,1-1.31,4.4,4.89,4.89,0,0,1-3.89,1.54h-.21V130.3h.26a3.65,3.65,0,0,0,2.41-.76A3.17,3.17,0,0,0,474.49,127.27Zm-1.72-.45a1.77,1.77,0,0,0,1-.31,2,2,0,0,0,.72-.85V125a3.36,3.36,0,0,0-.48-1.9,1.45,1.45,0,0,0-1.25-.72,1.43,1.43,0,0,0-1.23.64,2.68,2.68,0,0,0-.46,1.6,2.65,2.65,0,0,0,.46,1.61A1.47,1.47,0,0,0,472.77,126.82Z"/><path d="M478.33,134.13l-1-.57a5.28,5.28,0,0,0,.59-1.16,3.49,3.49,0,0,0,.16-1V130h1.61v1.28a3.74,3.74,0,0,1-.39,1.55A3.92,3.92,0,0,1,478.33,134.13Z"/><path d="M486.8,121v1.47h-.22a3.58,3.58,0,0,0-2.39.82,3.47,3.47,0,0,0-1.06,2.27,2.89,2.89,0,0,1,2.19-.9,2.73,2.73,0,0,1,2.23,1,3.9,3.9,0,0,1,.82,2.57,3.68,3.68,0,0,1-1,2.64,3.3,3.3,0,0,1-2.51,1,3.2,3.2,0,0,1-2.58-1.18,4.58,4.58,0,0,1-1-3.09V127a6.55,6.55,0,0,1,1.37-4.4,4.9,4.9,0,0,1,3.93-1.59Zm-1.91,5.09a1.85,1.85,0,0,0-1.07.33,1.88,1.88,0,0,0-.72.88v.54a3.23,3.23,0,0,0,.5,1.89,1.53,1.53,0,0,0,1.29.7,1.49,1.49,0,0,0,1.25-.6,2.43,2.43,0,0,0,.46-1.56,2.47,2.47,0,0,0-.47-1.57A1.47,1.47,0,0,0,484.89,126.1Z"/><path d="M465.61,417h-6.68v-.68l3.66-4.14a10.42,10.42,0,0,0,1.26-1.73,3,3,0,0,0,.35-1.33,2.14,2.14,0,0,0-.6-1.6A2.22,2.22,0,0,0,462,407a2.3,2.3,0,0,0-1.74.69,2.49,2.49,0,0,0-.66,1.79h-.87a3.35,3.35,0,0,1,.4-1.64,2.88,2.88,0,0,1,1.16-1.16,3.44,3.44,0,0,1,1.71-.42,3.23,3.23,0,0,1,2.29.76,2.75,2.75,0,0,1,.82,2.1,3.52,3.52,0,0,1-.46,1.63,12.14,12.14,0,0,1-1.64,2.21l-3,3.37h5.6Z"/><path d="M473.67,412.59a5.92,5.92,0,0,1-.82,3.42,2.8,2.8,0,0,1-2.44,1.17A2.85,2.85,0,0,1,468,416a5.69,5.69,0,0,1-.86-3.34v-1.91a5.85,5.85,0,0,1,.83-3.41,3.18,3.18,0,0,1,4.86,0,5.5,5.5,0,0,1,.86,3.29Zm-.87-1.91a5.18,5.18,0,0,0-.6-2.77,2.2,2.2,0,0,0-3.59,0,5,5,0,0,0-.62,2.7v2.1a5.24,5.24,0,0,0,.62,2.79,2,2,0,0,0,1.8,1,2,2,0,0,0,1.77-.94,5.21,5.21,0,0,0,.62-2.77Z"/><path d="M479.64,417h-.88v-9.61l-2.9,1.07v-.82l3.63-1.35h.15Z"/><path d="M489.34,412.1a3.26,3.26,0,0,1-1.16,1.06,3.05,3.05,0,0,1-1.51.38,2.72,2.72,0,0,1-1.6-.47,3,3,0,0,1-1.08-1.29,4.2,4.2,0,0,1-.38-1.81,4.46,4.46,0,0,1,.4-1.92,3.22,3.22,0,0,1,1.14-1.35,3.08,3.08,0,0,1,1.68-.47,3,3,0,0,1,2.5,1.12,5,5,0,0,1,.89,3.19v.79a6.59,6.59,0,0,1-1.23,4.34,4.67,4.67,0,0,1-3.76,1.45h-.16v-.77h.31a3.89,3.89,0,0,0,2.91-1.08A4.63,4.63,0,0,0,489.34,412.1Zm-2.56.68a2.56,2.56,0,0,0,1.58-.52,2.89,2.89,0,0,0,1-1.36v-.5a4.13,4.13,0,0,0-.68-2.52,2.18,2.18,0,0,0-1.83-.89,2.09,2.09,0,0,0-1.7.83,3.61,3.61,0,0,0,0,4.15A2,2,0,0,0,486.78,412.78Z"/><polyline class="cls-3" points="428.64 290.12 387.47 290.12 387.47 392.08 428.64 392.08 428.64 290.12"/><polyline class="cls-4" points="428.64 195.71 387.47 195.71 387.47 290.12 428.64 290.12 428.64 195.71"/><polygon class="cls-5" points="387.47 149.28 428.64 149.28 428.64 195.71 387.47 195.71 387.47 149.28 387.47 149.28"/><polyline class="cls-6" points="428.64 142.65 387.47 142.65 387.47 149.28 428.64 149.28 428.64 142.65"/><path d="M401.52,125.91l-4.27,9.67h-1.86l4.25-9.23h-5.51v-1.43h7.39Z"/><path d="M409.66,127.73a2.49,2.49,0,0,1-.4,1.4,2.86,2.86,0,0,1-1.1,1,3,3,0,0,1,1.28,1.06,2.69,2.69,0,0,1,.45,1.52,2.8,2.8,0,0,1-.95,2.24,3.72,3.72,0,0,1-2.53.82,3.78,3.78,0,0,1-2.55-.83,2.81,2.81,0,0,1-.95-2.23,2.7,2.7,0,0,1,.45-1.53,2.84,2.84,0,0,1,1.28-1,2.75,2.75,0,0,1-1.09-1,2.49,2.49,0,0,1-.4-1.4,2.75,2.75,0,0,1,.88-2.16,3.93,3.93,0,0,1,4.75,0A2.75,2.75,0,0,1,409.66,127.73Zm-1.55,4.86a1.73,1.73,0,0,0-.47-1.28,1.83,1.83,0,0,0-2.49,0,1.76,1.76,0,0,0-.46,1.28,1.59,1.59,0,0,0,1.72,1.72,1.65,1.65,0,0,0,1.25-.46A1.7,1.7,0,0,0,408.11,132.59Zm-.22-4.79a1.69,1.69,0,0,0-.4-1.15,1.56,1.56,0,0,0-2.17,0,1.67,1.67,0,0,0-.39,1.17,1.62,1.62,0,0,0,.4,1.16,1.37,1.37,0,0,0,1.08.43,1.4,1.4,0,0,0,1.08-.43A1.67,1.67,0,0,0,407.89,127.8Z"/><path d="M411.83,138l-.95-.58a5.42,5.42,0,0,0,.58-1.16,3.43,3.43,0,0,0,.16-1v-1.39h1.61v1.28a3.74,3.74,0,0,1-.39,1.56A3.92,3.92,0,0,1,411.83,138Z"/><path d="M416.82,129.44h1.09a2,2,0,0,0,1.3-.43,1.5,1.5,0,0,0,.48-1.21,1.68,1.68,0,0,0-.4-1.18,1.61,1.61,0,0,0-1.22-.42,1.73,1.73,0,0,0-1.18.41,1.39,1.39,0,0,0-.46,1.08h-1.78a2.7,2.7,0,0,1,.43-1.49,2.92,2.92,0,0,1,1.22-1,4,4,0,0,1,1.75-.38,3.66,3.66,0,0,1,2.5.8,2.82,2.82,0,0,1,.92,2.23,2.34,2.34,0,0,1-.46,1.36,2.88,2.88,0,0,1-1.18,1,2.61,2.61,0,0,1,1.33.95,2.54,2.54,0,0,1,.46,1.53,2.89,2.89,0,0,1-1,2.29,3.81,3.81,0,0,1-2.59.85,3.76,3.76,0,0,1-2.52-.82,2.7,2.7,0,0,1-1-2.18h1.78a1.47,1.47,0,0,0,.48,1.14,1.8,1.8,0,0,0,1.27.44,1.86,1.86,0,0,0,1.3-.44,1.93,1.93,0,0,0,0-2.57,2.15,2.15,0,0,0-1.48-.46h-1.05Z"/><path d="M399.13,417h-6.68v-.68l3.66-4.14a10.42,10.42,0,0,0,1.26-1.73,3,3,0,0,0,.35-1.33,2.14,2.14,0,0,0-.6-1.6,2.22,2.22,0,0,0-1.63-.59,2.3,2.3,0,0,0-1.74.69,2.49,2.49,0,0,0-.66,1.79h-.87a3.35,3.35,0,0,1,.4-1.64,2.88,2.88,0,0,1,1.16-1.16,3.44,3.44,0,0,1,1.71-.42,3.23,3.23,0,0,1,2.29.76,2.75,2.75,0,0,1,.82,2.1,3.52,3.52,0,0,1-.46,1.63,12.14,12.14,0,0,1-1.64,2.21l-3,3.37h5.6Z"/><path d="M407.19,412.59a5.92,5.92,0,0,1-.82,3.42,2.8,2.8,0,0,1-2.44,1.17A2.85,2.85,0,0,1,401.5,416a5.69,5.69,0,0,1-.86-3.34v-1.91a5.85,5.85,0,0,1,.83-3.41,3.18,3.18,0,0,1,4.86,0,5.57,5.57,0,0,1,.86,3.29Zm-.87-1.91a5.18,5.18,0,0,0-.6-2.77,2.2,2.2,0,0,0-3.59,0,5,5,0,0,0-.62,2.7v2.1a5.24,5.24,0,0,0,.62,2.79,2,2,0,0,0,1.8,1,2,2,0,0,0,1.77-.94,5.21,5.21,0,0,0,.62-2.77Z"/><path d="M413.16,417h-.88v-9.61l-2.9,1.07v-.82l3.63-1.35h.15Z"/><path d="M423.67,409.12a2.45,2.45,0,0,1-.48,1.48,2.86,2.86,0,0,1-1.27,1,3.12,3.12,0,0,1,1.48,1,2.55,2.55,0,0,1,.55,1.63,2.71,2.71,0,0,1-.93,2.17,3.66,3.66,0,0,1-2.46.8,3.62,3.62,0,0,1-2.47-.8,2.7,2.7,0,0,1-.93-2.17,2.59,2.59,0,0,1,.54-1.62,2.94,2.94,0,0,1,1.46-1,2.83,2.83,0,0,1-1.26-1,2.51,2.51,0,0,1-.47-1.48,2.71,2.71,0,0,1,.86-2.11,3.22,3.22,0,0,1,2.26-.78,3.18,3.18,0,0,1,2.26.79A2.67,2.67,0,0,1,423.67,409.12Zm-.6,5.1a2.09,2.09,0,0,0-.71-1.64,2.9,2.9,0,0,0-3.62,0,2.1,2.1,0,0,0-.7,1.65,2,2,0,0,0,.68,1.62,3.11,3.11,0,0,0,3.67,0A2.06,2.06,0,0,0,423.07,414.22Zm-.27-5.11a2.06,2.06,0,0,0-.64-1.53,2.47,2.47,0,0,0-3.23,0,2,2,0,0,0-.62,1.55,2,2,0,0,0,.62,1.51,2.59,2.59,0,0,0,3.24,0A2,2,0,0,0,422.8,409.11Z"/><polyline class="cls-3" points="362.14 306 320.97 306 320.97 392.08 362.14 392.08 362.14 306"/><polyline class="cls-4" points="362.14 218.39 320.97 218.39 320.97 306 362.14 306 362.14 218.39"/><polygon class="cls-5" points="320.97 172.26 362.14 172.26 362.14 218.39 320.97 218.39 320.97 172.26 320.97 172.26"/><polyline class="cls-6" points="362.14 165.48 320.97 165.48 320.97 172.27 362.14 172.27 362.14 165.48"/><path d="M335,148.74l-4.27,9.67h-1.86l4.25-9.23h-5.51v-1.43H335Z"/><path d="M341.26,158.41h-1.77v-8.56l-2.61.89v-1.5l4.16-1.53h.22Z"/><path d="M345.34,160.82l-1-.58a5.42,5.42,0,0,0,.58-1.16,3.43,3.43,0,0,0,.16-1v-1.39h1.61V158a3.6,3.6,0,0,1-.39,1.56A4,4,0,0,1,345.34,160.82Z"/><path d="M353.08,158.41h-1.77v-8.56l-2.61.89v-1.5l4.16-1.53h.22Z"/><path d="M332.65,417H326v-.68l3.65-4.14a9.36,9.36,0,0,0,1.26-1.73,2.86,2.86,0,0,0,.36-1.33,2.14,2.14,0,0,0-.6-1.6A2.22,2.22,0,0,0,329,407a2.3,2.3,0,0,0-1.74.69,2.47,2.47,0,0,0-.66,1.79h-.87a3.35,3.35,0,0,1,.4-1.64,2.88,2.88,0,0,1,1.16-1.16,3.44,3.44,0,0,1,1.71-.43,3.24,3.24,0,0,1,2.29.77,2.75,2.75,0,0,1,.82,2.1,3.52,3.52,0,0,1-.46,1.63,12.14,12.14,0,0,1-1.64,2.21l-3,3.37h5.6Z"/><path d="M340.71,412.59a5.92,5.92,0,0,1-.82,3.42,3.14,3.14,0,0,1-4.87,0,5.69,5.69,0,0,1-.86-3.34v-1.91a5.85,5.85,0,0,1,.83-3.41,3.16,3.16,0,0,1,4.86,0,5.57,5.57,0,0,1,.86,3.29Zm-.88-1.91a5.19,5.19,0,0,0-.59-2.77,2.21,2.21,0,0,0-3.6,0,5,5,0,0,0-.61,2.7v2.09a5.2,5.2,0,0,0,.62,2.79,2,2,0,0,0,1.8,1,2,2,0,0,0,1.77-.94,5.13,5.13,0,0,0,.61-2.77Z"/><path d="M346.68,417h-.88v-9.61l-2.9,1.07v-.82l3.63-1.35h.15Z"/><path d="M357.48,406.88,352.92,417H352l4.52-9.92h-6.06v-.75h7Z"/><polyline class="cls-3" points="295.65 302.76 254.25 302.76 254.25 392.08 295.65 392.08 295.65 302.76"/><polyline class="cls-4" points="295.65 242.61 254.25 242.61 254.25 302.76 295.65 302.76 295.65 242.61"/><polygon class="cls-5" points="254.25 210.37 295.65 210.37 295.65 242.61 254.25 242.61 254.25 210.37 254.25 210.37"/><polyline class="cls-6" points="295.65 205.58 254.25 205.58 254.25 210.37 295.65 210.37 295.65 205.58"/><path d="M261.79,193.23l.57-5.37h5.73v1.53h-4.25l-.29,2.55a3.31,3.31,0,0,1,1.67-.42,3,3,0,0,1,2.37,1,3.89,3.89,0,0,1,.85,2.62,3.56,3.56,0,0,1-.94,2.59,3.44,3.44,0,0,1-2.57,1,3.56,3.56,0,0,1-2.43-.84,3,3,0,0,1-1-2.19h1.72a1.83,1.83,0,0,0,.55,1.19,1.69,1.69,0,0,0,1.19.41,1.53,1.53,0,0,0,1.28-.58,2.56,2.56,0,0,0,.46-1.6,2.22,2.22,0,0,0-.51-1.54,1.77,1.77,0,0,0-1.39-.57,2.43,2.43,0,0,0-.82.13,2.27,2.27,0,0,0-.73.5Z"/><path d="M276.55,190.67a2.46,2.46,0,0,1-.4,1.39,2.88,2.88,0,0,1-1.1,1,2.94,2.94,0,0,1,1.28,1.06,2.62,2.62,0,0,1,.46,1.52,2.78,2.78,0,0,1-1,2.23,3.72,3.72,0,0,1-2.53.83,3.78,3.78,0,0,1-2.55-.83,2.82,2.82,0,0,1-.95-2.23,2.75,2.75,0,0,1,.45-1.54,2.94,2.94,0,0,1,1.28-1,2.85,2.85,0,0,1-1.09-1,2.46,2.46,0,0,1-.4-1.39,2.75,2.75,0,0,1,.88-2.16,3.93,3.93,0,0,1,4.75,0A2.75,2.75,0,0,1,276.55,190.67ZM275,195.52a1.72,1.72,0,0,0-.47-1.27,1.63,1.63,0,0,0-1.25-.49,1.66,1.66,0,0,0-1.24.48,1.76,1.76,0,0,0-.46,1.28,1.72,1.72,0,0,0,.46,1.26,1.67,1.67,0,0,0,1.26.46,1.55,1.55,0,0,0,1.7-1.72Zm-.22-4.79a1.68,1.68,0,0,0-.4-1.14,1.4,1.4,0,0,0-1.09-.45,1.37,1.37,0,0,0-1.07.43,1.6,1.6,0,0,0-.4,1.16,1.65,1.65,0,0,0,.4,1.17,1.39,1.39,0,0,0,1.08.43,1.4,1.4,0,0,0,1.08-.43A1.65,1.65,0,0,0,274.78,190.73Z"/><path d="M278.73,200.92l-1-.57a5.42,5.42,0,0,0,.58-1.16,3.49,3.49,0,0,0,.16-1V196.8h1.61v1.28a3.46,3.46,0,0,1-.39,1.56A4,4,0,0,1,278.73,200.92Z"/><path d="M282.13,193.23l.58-5.37h5.73v1.53h-4.25l-.29,2.55a3.31,3.31,0,0,1,1.67-.42,3,3,0,0,1,2.37,1,3.89,3.89,0,0,1,.84,2.62,3.52,3.52,0,0,1-.94,2.59,3.42,3.42,0,0,1-2.57,1,3.55,3.55,0,0,1-2.42-.84,3,3,0,0,1-1.05-2.19h1.72a1.88,1.88,0,0,0,.56,1.19,1.67,1.67,0,0,0,1.19.41,1.55,1.55,0,0,0,1.28-.58,2.56,2.56,0,0,0,.45-1.6,2.26,2.26,0,0,0-.5-1.54,1.77,1.77,0,0,0-1.39-.57,2,2,0,0,0-1.56.63Z"/><path d="M266,417h-6.68v-.68l3.65-4.14a9.36,9.36,0,0,0,1.26-1.73,2.86,2.86,0,0,0,.36-1.33,2.14,2.14,0,0,0-.6-1.6,2.22,2.22,0,0,0-1.63-.59,2.3,2.3,0,0,0-1.74.69,2.49,2.49,0,0,0-.66,1.79H259a3.35,3.35,0,0,1,.4-1.64,2.88,2.88,0,0,1,1.16-1.16,3.44,3.44,0,0,1,1.71-.42,3.23,3.23,0,0,1,2.29.76,2.75,2.75,0,0,1,.82,2.1,3.52,3.52,0,0,1-.46,1.63,12.14,12.14,0,0,1-1.64,2.21l-3,3.37H266Z"/><path d="M274,412.59a5.92,5.92,0,0,1-.82,3.42,3.14,3.14,0,0,1-4.87,0,5.69,5.69,0,0,1-.86-3.34v-1.91a5.85,5.85,0,0,1,.83-3.41,3.18,3.18,0,0,1,4.86,0,5.57,5.57,0,0,1,.86,3.29Zm-.88-1.91a5.19,5.19,0,0,0-.59-2.77,2.21,2.21,0,0,0-3.6,0,5,5,0,0,0-.61,2.7v2.1a5.24,5.24,0,0,0,.62,2.79,2,2,0,0,0,1.8,1,2,2,0,0,0,1.77-.94,5.13,5.13,0,0,0,.61-2.77Z"/><path d="M280,417h-.88v-9.61l-2.9,1.07v-.82l3.63-1.35H280Z"/><path d="M289.38,406.29v.76h-.1a4,4,0,0,0-3,1.13,4.72,4.72,0,0,0-1.22,3.13,2.92,2.92,0,0,1,1.12-.94,3.47,3.47,0,0,1,1.53-.34,2.81,2.81,0,0,1,2.23,1,3.75,3.75,0,0,1,.83,2.54,4.39,4.39,0,0,1-.38,1.88,3,3,0,0,1-1.12,1.3,3,3,0,0,1-1.65.46,3.14,3.14,0,0,1-2.49-1.11,4.21,4.21,0,0,1-1-2.86v-.88a6.77,6.77,0,0,1,1.3-4.44,4.61,4.61,0,0,1,3.7-1.6Zm-1.82,4.51a2.69,2.69,0,0,0-1.56.49,2.38,2.38,0,0,0-1,1.25v.75a3.52,3.52,0,0,0,.71,2.27,2.31,2.31,0,0,0,1.86.88,2,2,0,0,0,1.66-.82,3.23,3.23,0,0,0,.63-2.05,3,3,0,0,0-.63-2A2.12,2.12,0,0,0,287.56,410.8Z"/><polyline class="cls-3" points="226.67 309.55 185.27 309.55 185.27 392.08 226.67 392.08 226.67 309.55"/><polyline class="cls-4" points="226.67 257.88 185.27 257.88 185.27 309.55 226.67 309.55 226.67 257.88"/><polyline class="cls-6" points="226.67 250.01 185.27 250.01 185.27 257.88 226.67 257.88 226.67 250.01"/><path d="M198.35,239.14h1.33v1.43h-1.33v2.37h-1.78v-2.37H192l-.06-1.08,4.6-7.21h1.84Zm-4.57,0h2.79v-4.45l-.13.23Z"/><path d="M206.88,239.14h1.32v1.43h-1.32v2.37H205.1v-2.37h-4.61l-.05-1.08,4.6-7.21h1.84Zm-4.57,0h2.79v-4.45l-.13.23Z"/><path d="M209.75,245.35l-1-.57a5.22,5.22,0,0,0,.58-1.17,3.38,3.38,0,0,0,.17-1v-1.39h1.6v1.29a3.45,3.45,0,0,1-.39,1.55A3.77,3.77,0,0,1,209.75,245.35Z"/><path d="M218.22,232.23v1.47H218a3.56,3.56,0,0,0-2.39.82,3.4,3.4,0,0,0-1.06,2.26,2.89,2.89,0,0,1,2.19-.9,2.75,2.75,0,0,1,2.23,1,3.93,3.93,0,0,1,.81,2.57,3.65,3.65,0,0,1-.95,2.63,3.29,3.29,0,0,1-2.51,1,3.2,3.2,0,0,1-2.59-1.18,4.64,4.64,0,0,1-1-3.09v-.61a6.52,6.52,0,0,1,1.36-4.39,4.9,4.9,0,0,1,3.93-1.59Zm-1.91,5.09a1.88,1.88,0,0,0-1.08.33,1.92,1.92,0,0,0-.71.88v.54A3.16,3.16,0,0,0,215,241a1.53,1.53,0,0,0,1.29.7,1.5,1.5,0,0,0,1.25-.6,2.43,2.43,0,0,0,.46-1.56,2.51,2.51,0,0,0-.47-1.57A1.48,1.48,0,0,0,216.31,237.32Z"/><path d="M197,417h-6.68v-.68l3.66-4.14a10.42,10.42,0,0,0,1.26-1.73,3,3,0,0,0,.35-1.33,2.14,2.14,0,0,0-.6-1.6,2.22,2.22,0,0,0-1.63-.59,2.3,2.3,0,0,0-1.74.69,2.49,2.49,0,0,0-.66,1.79h-.87a3.35,3.35,0,0,1,.4-1.64,2.88,2.88,0,0,1,1.16-1.16,3.44,3.44,0,0,1,1.71-.42,3.23,3.23,0,0,1,2.29.76,2.75,2.75,0,0,1,.82,2.1,3.52,3.52,0,0,1-.46,1.63,12.14,12.14,0,0,1-1.64,2.21l-3,3.37H197Z"/><path d="M205.05,412.59a5.92,5.92,0,0,1-.82,3.42,2.8,2.8,0,0,1-2.44,1.17,2.85,2.85,0,0,1-2.43-1.14,5.69,5.69,0,0,1-.86-3.34v-1.91a5.85,5.85,0,0,1,.83-3.41,3.18,3.18,0,0,1,4.86,0,5.57,5.57,0,0,1,.86,3.29Zm-.87-1.91a5.18,5.18,0,0,0-.6-2.77,2.2,2.2,0,0,0-3.59,0,5,5,0,0,0-.62,2.7v2.1a5.24,5.24,0,0,0,.62,2.79,2,2,0,0,0,1.8,1,2,2,0,0,0,1.77-.94,5.21,5.21,0,0,0,.62-2.77Z"/><path d="M211,417h-.88v-9.61l-2.9,1.07v-.82l3.63-1.35H211Z"/><path d="M215.84,411.57l.53-5.2h5.33v.81h-4.58l-.37,3.61a3.47,3.47,0,0,1,2-.59,3,3,0,0,1,2.3.94,3.58,3.58,0,0,1,.86,2.5,3.76,3.76,0,0,1-.84,2.61,3,3,0,0,1-2.35.93,3.25,3.25,0,0,1-2.25-.77,3.17,3.17,0,0,1-1-2.18h.84a2.5,2.5,0,0,0,.74,1.65,2.34,2.34,0,0,0,1.66.56,2.1,2.1,0,0,0,1.73-.72,3.23,3.23,0,0,0,.58-2.07,2.8,2.8,0,0,0-.65-1.91,2.27,2.27,0,0,0-1.78-.74,3.25,3.25,0,0,0-1.09.16,3,3,0,0,0-1,.61Z"/><polyline class="cls-3" points="159.95 318.5 118.55 318.5 118.55 392.08 159.95 392.08 159.95 318.5"/><polyline class="cls-4" points="159.95 253.4 118.55 253.4 118.55 318.5 159.95 318.5 159.95 253.4"/><polygon class="cls-5" points="118.55 200.19 159.95 200.19 159.95 253.4 118.55 253.4 118.55 200.19 118.55 200.19"/><polyline class="cls-6" points="159.95 195.09 118.55 195.09 118.55 200.19 159.95 200.19 159.95 195.09"/><path d="M131.15,177.32v1.47h-.22a3.48,3.48,0,0,0-2.39.82,3.43,3.43,0,0,0-1.06,2.26,2.89,2.89,0,0,1,2.19-.9,2.71,2.71,0,0,1,2.23,1,3.88,3.88,0,0,1,.82,2.57,3.66,3.66,0,0,1-1,2.63,3.31,3.31,0,0,1-2.51,1,3.25,3.25,0,0,1-2.59-1.18,4.66,4.66,0,0,1-1-3.09v-.61a6.55,6.55,0,0,1,1.37-4.4,4.89,4.89,0,0,1,3.93-1.58Zm-1.91,5.08a1.91,1.91,0,0,0-1.08.33,2,2,0,0,0-.71.88v.54A3.21,3.21,0,0,0,128,186a1.58,1.58,0,0,0,2.54.11,2.88,2.88,0,0,0,0-3.14A1.49,1.49,0,0,0,129.24,182.4Z"/><path d="M139,188h-1.77v-8.57l-2.62.89v-1.49l4.16-1.53H139Z"/><path d="M143,190.43l-1-.57a5,5,0,0,0,.58-1.16,3.51,3.51,0,0,0,.17-1v-1.38h1.6v1.28a3.46,3.46,0,0,1-.39,1.56A3.76,3.76,0,0,1,143,190.43Z"/><path d="M151.5,177.32v1.47h-.22a3.46,3.46,0,0,0-2.39.82,3.38,3.38,0,0,0-1.06,2.26A2.89,2.89,0,0,1,150,181a2.73,2.73,0,0,1,2.23,1,3.93,3.93,0,0,1,.81,2.57,3.69,3.69,0,0,1-.95,2.63,3.32,3.32,0,0,1-2.51,1A3.23,3.23,0,0,1,147,187a4.66,4.66,0,0,1-1-3.09v-.61a6.54,6.54,0,0,1,1.36-4.4,4.89,4.89,0,0,1,3.93-1.58Zm-1.92,5.08a1.88,1.88,0,0,0-1.07.33,2,2,0,0,0-.71.88v.54a3.14,3.14,0,0,0,.5,1.89,1.5,1.5,0,0,0,1.28.7,1.53,1.53,0,0,0,1.26-.59,2.47,2.47,0,0,0,.46-1.56,2.54,2.54,0,0,0-.47-1.58A1.51,1.51,0,0,0,149.58,182.4Z"/><path d="M130.29,417h-6.68v-.68l3.65-4.14a9.36,9.36,0,0,0,1.26-1.73,2.86,2.86,0,0,0,.36-1.33,2.14,2.14,0,0,0-.6-1.6,2.22,2.22,0,0,0-1.63-.59,2.3,2.3,0,0,0-1.74.69,2.49,2.49,0,0,0-.66,1.79h-.87a3.35,3.35,0,0,1,.4-1.64,2.88,2.88,0,0,1,1.16-1.16,3.44,3.44,0,0,1,1.71-.42,3.23,3.23,0,0,1,2.29.76,2.75,2.75,0,0,1,.82,2.1,3.52,3.52,0,0,1-.46,1.63,12.14,12.14,0,0,1-1.64,2.21l-3,3.37h5.6Z"/><path d="M138.35,412.59a5.84,5.84,0,0,1-.83,3.42,2.78,2.78,0,0,1-2.43,1.17,2.83,2.83,0,0,1-2.43-1.14,5.69,5.69,0,0,1-.86-3.34v-1.91a5.78,5.78,0,0,1,.83-3.41,3.18,3.18,0,0,1,4.86,0,5.57,5.57,0,0,1,.86,3.29Zm-.88-1.91a5.28,5.28,0,0,0-.59-2.77,2.21,2.21,0,0,0-3.6,0,5,5,0,0,0-.61,2.7v2.1a5.24,5.24,0,0,0,.62,2.79,2,2,0,0,0,1.8,1,2,2,0,0,0,1.77-.94,5.22,5.22,0,0,0,.61-2.77Z"/><path d="M144.32,417h-.88v-9.61l-2.9,1.07v-.82l3.63-1.35h.15Z"/><path d="M153.93,413.6h1.66v.74h-1.66V417h-.88v-2.7h-5v-.5l4.93-7.47h1Zm-4.82,0h3.94v-6.09l-.39.67Z"/><path d="M12.35,194.48v.76h-.1a4,4,0,0,0-3,1.13A4.72,4.72,0,0,0,8,199.5a3,3,0,0,1,1.12-.94,3.37,3.37,0,0,1,1.53-.34,2.83,2.83,0,0,1,2.24,1,3.81,3.81,0,0,1,.83,2.54,4.42,4.42,0,0,1-.39,1.88,3,3,0,0,1-1.12,1.3,3,3,0,0,1-1.65.46,3.14,3.14,0,0,1-2.49-1.11,4.22,4.22,0,0,1-1-2.87v-.87a6.77,6.77,0,0,1,1.3-4.44,4.61,4.61,0,0,1,3.7-1.6ZM10.53,199a2.7,2.7,0,0,0-1.56.5,2.38,2.38,0,0,0-1,1.25v.75a3.52,3.52,0,0,0,.71,2.27,2.3,2.3,0,0,0,1.86.87,2,2,0,0,0,1.66-.81,3.23,3.23,0,0,0,.63-2.05,3,3,0,0,0-.63-2A2.1,2.1,0,0,0,10.53,199Z"/><path d="M21.92,200.78a5.92,5.92,0,0,1-.82,3.42,2.81,2.81,0,0,1-2.44,1.17,2.82,2.82,0,0,1-2.43-1.15,5.63,5.63,0,0,1-.86-3.33V199a5.85,5.85,0,0,1,.83-3.41,2.83,2.83,0,0,1,2.44-1.16,2.85,2.85,0,0,1,2.42,1.12,5.57,5.57,0,0,1,.86,3.29ZM21,198.87a5.19,5.19,0,0,0-.59-2.77,2,2,0,0,0-1.81-.94,2,2,0,0,0-1.78.92,4.94,4.94,0,0,0-.62,2.7v2.09a5.2,5.2,0,0,0,.62,2.79,2,2,0,0,0,1.8,1,2,2,0,0,0,1.77-.94,5.13,5.13,0,0,0,.61-2.77Z"/><path d="M12.56,265.54h1.67v.74H12.56V269h-.87v-2.69h-5v-.5l4.94-7.47h1Zm-4.82,0h3.95v-6.1l-.39.68Z"/><path d="M21.92,264.53A5.92,5.92,0,0,1,21.1,268a2.81,2.81,0,0,1-2.44,1.17A2.82,2.82,0,0,1,16.23,268a5.67,5.67,0,0,1-.86-3.34v-1.91a5.82,5.82,0,0,1,.83-3.4,2.83,2.83,0,0,1,2.44-1.16,2.82,2.82,0,0,1,2.42,1.12,5.55,5.55,0,0,1,.86,3.29ZM21,262.61a5.21,5.21,0,0,0-.59-2.77,2,2,0,0,0-1.81-.93,2,2,0,0,0-1.78.91,5,5,0,0,0-.62,2.71v2.09a5.2,5.2,0,0,0,.62,2.79,2,2,0,0,0,1.8,1,2,2,0,0,0,1.77-.95,5.1,5.1,0,0,0,.61-2.77Z"/><path d="M13.86,332.72H7.18V332l3.66-4.14a10.42,10.42,0,0,0,1.26-1.73,3,3,0,0,0,.35-1.33,2.16,2.16,0,0,0-.6-1.6,2.22,2.22,0,0,0-1.63-.59,2.3,2.3,0,0,0-1.74.69,2.49,2.49,0,0,0-.66,1.79H7a3.35,3.35,0,0,1,.4-1.64,2.88,2.88,0,0,1,1.16-1.16,3.44,3.44,0,0,1,1.71-.42,3.19,3.19,0,0,1,2.29.77,2.71,2.71,0,0,1,.82,2.09,3.52,3.52,0,0,1-.46,1.63,12.14,12.14,0,0,1-1.64,2.21l-3,3.37h5.6Z"/><path d="M21.92,328.27a5.87,5.87,0,0,1-.82,3.42,2.81,2.81,0,0,1-2.44,1.17,2.83,2.83,0,0,1-2.43-1.14,5.69,5.69,0,0,1-.86-3.34v-1.91a5.85,5.85,0,0,1,.83-3.41,2.82,2.82,0,0,1,2.44-1.15A2.84,2.84,0,0,1,21.06,323a5.58,5.58,0,0,1,.86,3.3ZM21,326.36a5.21,5.21,0,0,0-.59-2.77,2,2,0,0,0-1.81-.94,2,2,0,0,0-1.78.92,4.94,4.94,0,0,0-.62,2.7v2.1a5.24,5.24,0,0,0,.62,2.79,2,2,0,0,0,1.8,1,2,2,0,0,0,1.77-.94,5.1,5.1,0,0,0,.61-2.77Z"/><g class="cls-7"><rect class="cls-8" x="5" y="50.96" width="16.28" height="16.28"/></g><path class="cls-8" d="M38.12,62.57l2.71-8.34h2L39,64.9h-1.8L33.41,54.23h2Z"/><path class="cls-8" d="M47.06,65A3.67,3.67,0,0,1,44.32,64a3.87,3.87,0,0,1-1-2.84v-.22a4.82,4.82,0,0,1,.45-2.12A3.59,3.59,0,0,1,45,57.34a3.46,3.46,0,0,1,1.85-.52,3.12,3.12,0,0,1,2.5,1,4.35,4.35,0,0,1,.88,2.92v.72H45.06a2.38,2.38,0,0,0,.66,1.55,2,2,0,0,0,1.44.57,2.43,2.43,0,0,0,2-1l1,.92a3.26,3.26,0,0,1-1.28,1.1A4,4,0,0,1,47.06,65Zm-.21-6.79a1.47,1.47,0,0,0-1.18.52,2.61,2.61,0,0,0-.58,1.42h3.39v-.13A2.24,2.24,0,0,0,48,58.71,1.52,1.52,0,0,0,46.85,58.25Z"/><path class="cls-8" d="M53.7,54.77l1.07-1.13h1.52v.07l-2,2h-1.1l-2-2.06v-.06h1.51Zm2.07,3.83a4.4,4.4,0,0,0-.73-.06,1.62,1.62,0,0,0-1.64.94V64.9H51.62V57h1.7l0,.89a2,2,0,0,1,1.79-1,1.65,1.65,0,0,1,.63.11Z"/><path class="cls-8" d="M60.24,65A3.68,3.68,0,0,1,57.5,64a3.87,3.87,0,0,1-1-2.84v-.22a4.69,4.69,0,0,1,.46-2.12,3.5,3.5,0,0,1,1.28-1.46A3.46,3.46,0,0,1,60,56.82a3.11,3.11,0,0,1,2.5,1,4.35,4.35,0,0,1,.88,2.92v.72H58.24a2.43,2.43,0,0,0,.66,1.55,2,2,0,0,0,1.45.57,2.41,2.41,0,0,0,2-1l1,.92A3.23,3.23,0,0,1,62,64.65,4,4,0,0,1,60.24,65ZM60,58.25a1.47,1.47,0,0,0-1.18.52,2.68,2.68,0,0,0-.58,1.42h3.39v-.13a2.12,2.12,0,0,0-.47-1.35A1.51,1.51,0,0,0,60,58.25Z"/><path class="cls-8" d="M66.66,57V65.6a2.63,2.63,0,0,1-.6,1.86,2.37,2.37,0,0,1-1.77.64,3.35,3.35,0,0,1-1-.13v-1.4a3.06,3.06,0,0,0,.63.06c.59,0,.9-.32.91-1V57Zm-1.93-2.06a.92.92,0,0,1,.26-.68,1,1,0,0,1,.74-.27,1,1,0,0,1,.75.27,1,1,0,0,1,.26.68.92.92,0,0,1-.26.67,1,1,0,0,1-.75.27,1,1,0,0,1-.74-.27A.88.88,0,0,1,64.73,54.91Z"/><path class="cls-8" d="M70.21,57l.05.92a2.86,2.86,0,0,1,2.31-1.07c1.65,0,2.49,1,2.52,2.84V64.9H73.31V59.76A1.65,1.65,0,0,0,73,58.65a1.36,1.36,0,0,0-1.07-.37,1.71,1.71,0,0,0-1.6,1V64.9H68.54V57Z"/><path class="cls-8" d="M80.39,65A3.68,3.68,0,0,1,77.65,64a3.87,3.87,0,0,1-1.05-2.84v-.22a4.69,4.69,0,0,1,.46-2.12,3.5,3.5,0,0,1,1.28-1.46,3.46,3.46,0,0,1,1.85-.52,3.11,3.11,0,0,1,2.5,1,4.35,4.35,0,0,1,.88,2.92v.72H78.39a2.43,2.43,0,0,0,.66,1.55,2,2,0,0,0,1.45.57,2.41,2.41,0,0,0,2-1l1,.92a3.23,3.23,0,0,1-1.27,1.1A4,4,0,0,1,80.39,65Zm-.21-6.79a1.47,1.47,0,0,0-1.18.52,2.68,2.68,0,0,0-.58,1.42h3.39v-.13a2.12,2.12,0,0,0-.47-1.35A1.52,1.52,0,0,0,80.18,58.25Zm.4-4.6h2l-2,2.22H79.16Z"/><path class="cls-8" d="M95.64,61A4.77,4.77,0,0,1,94.82,64,2.69,2.69,0,0,1,92.55,65a2.58,2.58,0,0,1-2.17-1l-.08.86H88.68V53.65h1.78v4.08a2.62,2.62,0,0,1,2.08-.91,2.73,2.73,0,0,1,2.28,1.08,4.85,4.85,0,0,1,.82,3Zm-1.78-.15a3.37,3.37,0,0,0-.45-1.93,1.51,1.51,0,0,0-1.32-.65,1.67,1.67,0,0,0-1.63,1v3.27a1.67,1.67,0,0,0,1.64,1A1.51,1.51,0,0,0,93.39,63a3.21,3.21,0,0,0,.47-1.88Z"/><path class="cls-8" d="M97.14,54.91a.92.92,0,0,1,.26-.68,1,1,0,0,1,.74-.27,1,1,0,0,1,.75.27,1,1,0,0,1,.26.68.92.92,0,0,1-.26.67,1,1,0,0,1-.75.27,1,1,0,0,1-.74-.27A.88.88,0,0,1,97.14,54.91ZM99,64.9H97.25V57H99Z"/><path class="cls-8" d="M102.86,64.9h-1.78V53.65h1.78Z"/><path class="cls-8" d="M109.53,64.9a2.82,2.82,0,0,1-.21-.74,3,3,0,0,1-4,.2,2.14,2.14,0,0,1-.76-1.68,2.27,2.27,0,0,1,.94-2,4.59,4.59,0,0,1,2.69-.68h1.1v-.52a1.38,1.38,0,0,0-.35-1,1.36,1.36,0,0,0-1-.37,1.58,1.58,0,0,0-1,.3,1,1,0,0,0-.39.78h-1.78a2,2,0,0,1,.43-1.22,2.82,2.82,0,0,1,1.18-.89,4,4,0,0,1,1.66-.33,3.39,3.39,0,0,1,2.22.7,2.54,2.54,0,0,1,.85,2v3.58a4,4,0,0,0,.3,1.7v.13Zm-2-1.29a2,2,0,0,0,1-.25,1.72,1.72,0,0,0,.7-.69V61.18h-1a2.63,2.63,0,0,0-1.49.34,1.11,1.11,0,0,0-.5,1,1.05,1.05,0,0,0,.34.82A1.33,1.33,0,0,0,107.57,63.61Z"/><path class="cls-8" d="M115.14,55.05V57h1.4v1.32h-1.4v4.42a1,1,0,0,0,.18.66.84.84,0,0,0,.64.2,2.62,2.62,0,0,0,.62-.07v1.37a4,4,0,0,1-1.17.17c-1.37,0-2-.75-2-2.26V58.29h-1.3V57h1.3V55.05Z"/><path class="cls-8" d="M121.39,65A3.69,3.69,0,0,1,118.64,64a3.87,3.87,0,0,1-1-2.84v-.22a4.82,4.82,0,0,1,.46-2.12,3.52,3.52,0,0,1,1.29-1.46,3.43,3.43,0,0,1,1.84-.52,3.11,3.11,0,0,1,2.5,1,4.36,4.36,0,0,1,.89,2.92v.72h-5.18a2.37,2.37,0,0,0,.65,1.55,2,2,0,0,0,1.45.57,2.41,2.41,0,0,0,2-1l1,.92a3.23,3.23,0,0,1-1.27,1.1A4,4,0,0,1,121.39,65Zm-.22-6.79a1.48,1.48,0,0,0-1.18.52,2.6,2.6,0,0,0-.57,1.42h3.39v-.13a2.18,2.18,0,0,0-.48-1.35A1.51,1.51,0,0,0,121.17,58.25Z"/><path class="cls-8" d="M130.1,58.6a4.4,4.4,0,0,0-.73-.06,1.64,1.64,0,0,0-1.65.94V64.9h-1.78V57h1.7l0,.89a2,2,0,0,1,1.78-1,1.58,1.58,0,0,1,.63.11Z"/><path class="cls-8" d="M135.74,64.9a2.82,2.82,0,0,1-.21-.74,3,3,0,0,1-4,.2,2.17,2.17,0,0,1-.75-1.68,2.24,2.24,0,0,1,.94-2,4.57,4.57,0,0,1,2.69-.68h1.09v-.52a1.38,1.38,0,0,0-.34-1,1.36,1.36,0,0,0-1-.37,1.59,1.59,0,0,0-1,.3.94.94,0,0,0-.38.78h-1.78a2,2,0,0,1,.43-1.22,2.86,2.86,0,0,1,1.17-.89,4.07,4.07,0,0,1,1.66-.33,3.35,3.35,0,0,1,2.22.7,2.5,2.5,0,0,1,.85,2v3.58a4,4,0,0,0,.3,1.7v.13Zm-2-1.29a2,2,0,0,0,1-.25,1.66,1.66,0,0,0,.7-.69V61.18h-1a2.59,2.59,0,0,0-1.48.34,1.09,1.09,0,0,0-.5,1,1,1,0,0,0,.34.82A1.33,1.33,0,0,0,133.78,63.61Zm1-10h2l-2,2.22h-1.43Z"/><path class="cls-8" d="M141,64.9h-1.78V53.65H141Z"/><path class="cls-8" d="M144.6,57l.05.92A2.85,2.85,0,0,1,147,56.82c1.65,0,2.49,1,2.52,2.84V64.9H147.7V59.76a1.6,1.6,0,0,0-.33-1.11,1.35,1.35,0,0,0-1.07-.37,1.72,1.72,0,0,0-1.6,1V64.9h-1.78V57Z"/><path class="cls-8" d="M153.2,64.9h-1.78V57h1.78Zm-.33-11.2h2l-2,2.22h-1.43Z"/><path class="cls-8" d="M160.87,63.48h4.21V64.9h-6.43V63.73l4-5.32h-3.94V57h6.2V58.1Z"/><path class="cls-8" d="M166.06,60.88a4.7,4.7,0,0,1,.85-3,2.71,2.71,0,0,1,2.28-1.11,2.6,2.6,0,0,1,2,.88V53.65H173V64.9h-1.61l-.09-.82a2.62,2.62,0,0,1-2.13,1,2.69,2.69,0,0,1-2.25-1.12A4.84,4.84,0,0,1,166.06,60.88Zm1.78.15a3.29,3.29,0,0,0,.46,1.88,1.49,1.49,0,0,0,1.32.68,1.68,1.68,0,0,0,1.6-1V59.23a1.66,1.66,0,0,0-1.58-.95,1.5,1.5,0,0,0-1.33.69A3.59,3.59,0,0,0,167.84,61Z"/><path class="cls-8" d="M179,58.6a4.4,4.4,0,0,0-.73-.06,1.64,1.64,0,0,0-1.65.94V64.9h-1.78V57h1.7l0,.89a2,2,0,0,1,1.78-1,1.58,1.58,0,0,1,.63.11Z"/><path class="cls-8" d="M179.53,60.86a4.63,4.63,0,0,1,.47-2.1,3.32,3.32,0,0,1,1.29-1.43,3.63,3.63,0,0,1,1.92-.51,3.48,3.48,0,0,1,2.61,1,4.12,4.12,0,0,1,1.08,2.74V61a4.73,4.73,0,0,1-.45,2.1,3.38,3.38,0,0,1-1.29,1.43,3.72,3.72,0,0,1-1.93.5,3.46,3.46,0,0,1-2.69-1.11,4.3,4.3,0,0,1-1-3Zm1.78.15a3.17,3.17,0,0,0,.51,1.92,1.66,1.66,0,0,0,1.41.69,1.62,1.62,0,0,0,1.4-.7,3.58,3.58,0,0,0,.5-2.06,3.08,3.08,0,0,0-.52-1.9,1.73,1.73,0,0,0-2.78,0A3.51,3.51,0,0,0,181.31,61Z"/><path class="cls-8" d="M190.26,57V65.6a2.63,2.63,0,0,1-.6,1.86,2.34,2.34,0,0,1-1.77.64A3.24,3.24,0,0,1,187,68v-1.4a2.93,2.93,0,0,0,.63.06q.88,0,.9-1V57Zm-1.93-2.06a1,1,0,0,1,.26-.68,1.16,1.16,0,0,1,1.49,0,.93.93,0,0,1,.27.68.89.89,0,0,1-.27.67,1.16,1.16,0,0,1-1.49,0A.92.92,0,0,1,188.33,54.91Z"/><path class="cls-8" d="M195.66,65A3.69,3.69,0,0,1,192.91,64a3.87,3.87,0,0,1-1-2.84v-.22a4.69,4.69,0,0,1,.46-2.12,3.39,3.39,0,0,1,3.13-2,3.11,3.11,0,0,1,2.5,1,4.35,4.35,0,0,1,.88,2.92v.72h-5.17a2.37,2.37,0,0,0,.65,1.55,2,2,0,0,0,1.45.57,2.41,2.41,0,0,0,2-1l1,.92a3.23,3.23,0,0,1-1.27,1.1A4,4,0,0,1,195.66,65Zm-.22-6.79a1.47,1.47,0,0,0-1.18.52,2.68,2.68,0,0,0-.58,1.42h3.39v-.13a2.12,2.12,0,0,0-.47-1.35A1.51,1.51,0,0,0,195.44,58.25Z"/><g class="cls-9"><rect class="cls-10" x="279.55" y="48.84" width="16.28" height="16.28"/></g><path class="cls-10" d="M312.67,60.46l2.71-8.35h2l-3.83,10.67h-1.8L308,52.11h2Z"/><path class="cls-10" d="M321.61,62.92a3.67,3.67,0,0,1-2.74-1.06A3.87,3.87,0,0,1,317.82,59V58.8a4.82,4.82,0,0,1,.45-2.12,3.5,3.5,0,0,1,1.29-1.45,3.38,3.38,0,0,1,1.85-.52,3.12,3.12,0,0,1,2.5,1,4.41,4.41,0,0,1,.88,2.92v.72h-5.18a2.33,2.33,0,0,0,.66,1.55,2,2,0,0,0,1.44.57,2.4,2.4,0,0,0,2-1l1,.92a3.16,3.16,0,0,1-1.27,1.1A4,4,0,0,1,321.61,62.92Zm-.21-6.79a1.47,1.47,0,0,0-1.18.52,2.53,2.53,0,0,0-.58,1.42H323v-.13a2.24,2.24,0,0,0-.47-1.35A1.52,1.52,0,0,0,321.4,56.13Z"/><path class="cls-10" d="M328.25,52.65l1.07-1.13h1.52v.07l-2,2h-1.1l-2-2v-.07h1.51Zm2.07,3.83a4.4,4.4,0,0,0-.73-.06,1.62,1.62,0,0,0-1.64.94v5.42h-1.78V54.85h1.7l0,.89a2,2,0,0,1,1.79-1,1.67,1.67,0,0,1,.63.1Z"/><path class="cls-10" d="M334.79,62.92a3.68,3.68,0,0,1-2.74-1.06A3.87,3.87,0,0,1,331,59V58.8a4.69,4.69,0,0,1,.46-2.12,3.41,3.41,0,0,1,1.28-1.45,3.38,3.38,0,0,1,1.85-.52,3.1,3.1,0,0,1,2.5,1,4.35,4.35,0,0,1,.88,2.92v.72h-5.18a2.43,2.43,0,0,0,.66,1.55,2,2,0,0,0,1.45.57,2.41,2.41,0,0,0,2-1l1,.92a3.23,3.23,0,0,1-1.27,1.1A4,4,0,0,1,334.79,62.92Zm-.21-6.79a1.47,1.47,0,0,0-1.18.52,2.68,2.68,0,0,0-.58,1.42h3.39v-.13a2.12,2.12,0,0,0-.47-1.35A1.52,1.52,0,0,0,334.58,56.13Z"/><path class="cls-10" d="M341.21,54.85v8.63a2.63,2.63,0,0,1-.6,1.86,2.37,2.37,0,0,1-1.77.64,3.35,3.35,0,0,1-.95-.13v-1.4a3.06,3.06,0,0,0,.63.06c.59,0,.9-.32.91-1v-8.7Zm-1.93-2.06a.92.92,0,0,1,.26-.68,1,1,0,0,1,.74-.27,1,1,0,0,1,.75.27,1,1,0,0,1,.26.68.92.92,0,0,1-.26.67,1,1,0,0,1-.75.27,1,1,0,0,1-.74-.27A.88.88,0,0,1,339.28,52.79Z"/><path class="cls-10" d="M344.76,54.85l.05.92a2.86,2.86,0,0,1,2.31-1.06c1.65,0,2.49.94,2.52,2.83v5.24h-1.78V57.64a1.6,1.6,0,0,0-.33-1.11,1.32,1.32,0,0,0-1.06-.37,1.71,1.71,0,0,0-1.6,1v5.64h-1.78V54.85Z"/><path class="cls-10" d="M354.94,62.92a3.68,3.68,0,0,1-2.74-1.06A3.87,3.87,0,0,1,351.15,59V58.8a4.69,4.69,0,0,1,.46-2.12,3.41,3.41,0,0,1,1.28-1.45,3.38,3.38,0,0,1,1.85-.52,3.1,3.1,0,0,1,2.5,1,4.35,4.35,0,0,1,.88,2.92v.72h-5.18a2.43,2.43,0,0,0,.66,1.55,2,2,0,0,0,1.45.57,2.41,2.41,0,0,0,2-1l1,.92a3.23,3.23,0,0,1-1.27,1.1A4,4,0,0,1,354.94,62.92Zm-.21-6.79a1.47,1.47,0,0,0-1.18.52,2.68,2.68,0,0,0-.58,1.42h3.39v-.13a2.18,2.18,0,0,0-.47-1.35A1.52,1.52,0,0,0,354.73,56.13Zm.4-4.6h2l-2,2.22h-1.42Z"/><path class="cls-10" d="M364.91,54.85l0,.83a2.86,2.86,0,0,1,2.29-1,2.18,2.18,0,0,1,2.17,1.21,2.82,2.82,0,0,1,2.44-1.21,2.49,2.49,0,0,1,1.95.72,3.23,3.23,0,0,1,.65,2.14v5.21h-1.78V57.62a1.6,1.6,0,0,0-.33-1.11,1.45,1.45,0,0,0-1.09-.35,1.48,1.48,0,0,0-1,.33,1.69,1.69,0,0,0-.54.85v5.44H368V57.56a1.27,1.27,0,0,0-1.43-1.4A1.58,1.58,0,0,0,365,57v5.75h-1.78V54.85Z"/><path class="cls-10" d="M381.09,62a2.73,2.73,0,0,1-2.22.92,2.5,2.5,0,0,1-2-.75,3.21,3.21,0,0,1-.66-2.18V54.85H378V60c0,1,.42,1.51,1.25,1.51a1.75,1.75,0,0,0,1.75-.93V54.85h1.78v7.93h-1.67Z"/><path class="cls-10" d="M386.52,62.78h-1.78V51.53h1.78Z"/><path class="cls-10" d="M390.69,52.93v1.92h1.39v1.32h-1.39v4.42a1,1,0,0,0,.18.66.84.84,0,0,0,.64.2,2.68,2.68,0,0,0,.62-.07v1.38a4.5,4.5,0,0,1-1.17.16c-1.37,0-2-.75-2-2.26V56.17H387.6V54.85h1.31V52.93Z"/><path class="cls-10" d="M393.45,52.79a.92.92,0,0,1,.26-.68,1,1,0,0,1,.74-.27,1,1,0,0,1,.75.27,1,1,0,0,1,.26.68.92.92,0,0,1-.26.67,1,1,0,0,1-.75.27,1,1,0,0,1-.74-.27A.88.88,0,0,1,393.45,52.79Zm1.89,10h-1.78V54.85h1.78Z"/><path class="cls-10" d="M399.17,62.78h-1.78V51.53h1.78Z"/><path class="cls-10" d="M405.84,62.78a2.7,2.7,0,0,1-.21-.74,3,3,0,0,1-4,.2,2.14,2.14,0,0,1-.76-1.68,2.28,2.28,0,0,1,.94-2,4.6,4.6,0,0,1,2.7-.67h1.09v-.52a1.41,1.41,0,0,0-.35-1,1.35,1.35,0,0,0-1-.37,1.59,1.59,0,0,0-1,.3,1,1,0,0,0-.39.78H401a2,2,0,0,1,.43-1.22,2.82,2.82,0,0,1,1.18-.89,4,4,0,0,1,1.66-.32,3.39,3.39,0,0,1,2.22.69,2.54,2.54,0,0,1,.85,2V61a4,4,0,0,0,.3,1.7v.13Zm-2-1.28a2,2,0,0,0,1-.26,1.72,1.72,0,0,0,.7-.69V59.06h-1a2.63,2.63,0,0,0-1.49.34,1.11,1.11,0,0,0-.5,1,1.05,1.05,0,0,0,.34.82A1.34,1.34,0,0,0,403.88,61.5Z"/><path class="cls-10" d="M411.45,52.93v1.92h1.4v1.32h-1.4v4.42a1,1,0,0,0,.18.66.84.84,0,0,0,.64.2,2.62,2.62,0,0,0,.62-.07v1.38a4.39,4.39,0,0,1-1.17.16c-1.37,0-2.05-.75-2.05-2.26V56.17h-1.3V54.85h1.3V52.93Z"/><path class="cls-10" d="M417.7,62.92A3.71,3.71,0,0,1,415,61.86,3.87,3.87,0,0,1,413.9,59V58.8a4.82,4.82,0,0,1,.46-2.12,3.44,3.44,0,0,1,1.29-1.45,3.34,3.34,0,0,1,1.84-.52,3.09,3.09,0,0,1,2.5,1,4.36,4.36,0,0,1,.89,2.92v.72H415.7a2.37,2.37,0,0,0,.65,1.55,2,2,0,0,0,1.45.57,2.4,2.4,0,0,0,2-1l1,.92a3.23,3.23,0,0,1-1.27,1.1A4,4,0,0,1,417.7,62.92Zm-.21-6.79a1.49,1.49,0,0,0-1.19.52,2.6,2.6,0,0,0-.57,1.42h3.39v-.13a2.18,2.18,0,0,0-.48-1.35A1.5,1.5,0,0,0,417.49,56.13Z"/><path class="cls-10" d="M426.41,56.48a4.4,4.4,0,0,0-.73-.06,1.64,1.64,0,0,0-1.65.94v5.42h-1.78V54.85H424l.05.89a2,2,0,0,1,1.78-1,1.6,1.6,0,0,1,.63.1Z"/><path class="cls-10" d="M432,62.78a3.22,3.22,0,0,1-.2-.74,3,3,0,0,1-4,.2,2.17,2.17,0,0,1-.75-1.68,2.26,2.26,0,0,1,.94-2,4.57,4.57,0,0,1,2.69-.67h1.09v-.52a1.4,1.4,0,0,0-.34-1,1.36,1.36,0,0,0-1.05-.37,1.59,1.59,0,0,0-1,.3.94.94,0,0,0-.38.78h-1.78a2,2,0,0,1,.43-1.22,2.86,2.86,0,0,1,1.17-.89,4.06,4.06,0,0,1,1.66-.32,3.35,3.35,0,0,1,2.22.69,2.5,2.5,0,0,1,.85,2V61a4,4,0,0,0,.3,1.7v.13Zm-2-1.28a2,2,0,0,0,1-.26,1.72,1.72,0,0,0,.7-.69V59.06h-1a2.59,2.59,0,0,0-1.48.34,1.09,1.09,0,0,0-.5,1,1,1,0,0,0,.34.82A1.34,1.34,0,0,0,430.09,61.5Zm1-10h2l-2,2.22h-1.43Z"/><path class="cls-10" d="M437.32,62.78h-1.78V51.53h1.78Z"/><path class="cls-10" d="M440.91,54.85l0,.92a2.84,2.84,0,0,1,2.31-1.06c1.65,0,2.49.94,2.52,2.83v5.24H444V57.64a1.6,1.6,0,0,0-.33-1.11,1.35,1.35,0,0,0-1.07-.37,1.72,1.72,0,0,0-1.6,1v5.64h-1.78V54.85Z"/><path class="cls-10" d="M449.51,62.78h-1.78V54.85h1.78Zm-.33-11.2h2l-2,2.22h-1.43Z"/><path class="cls-10" d="M457.18,61.36h4.21v1.42H455V61.61l4-5.32H455V54.85h6.2V56Z"/><path class="cls-10" d="M462.37,58.76a4.69,4.69,0,0,1,.85-2.94,2.7,2.7,0,0,1,2.27-1.11,2.61,2.61,0,0,1,2,.87v-4h1.78V62.78H467.7l-.09-.82a2.62,2.62,0,0,1-2.13,1,2.69,2.69,0,0,1-2.25-1.12A4.82,4.82,0,0,1,462.37,58.76Zm1.78.15a3.32,3.32,0,0,0,.46,1.89,1.5,1.5,0,0,0,1.32.67,1.68,1.68,0,0,0,1.6-1V57.12a1.65,1.65,0,0,0-1.58-1,1.5,1.5,0,0,0-1.33.69A3.59,3.59,0,0,0,464.15,58.91Z"/><path class="cls-10" d="M475.32,56.48a4.4,4.4,0,0,0-.73-.06,1.64,1.64,0,0,0-1.65.94v5.42h-1.78V54.85h1.7l.05.89a2,2,0,0,1,1.78-1,1.6,1.6,0,0,1,.63.1Z"/><path class="cls-10" d="M475.84,58.74a4.66,4.66,0,0,1,.47-2.1,3.26,3.26,0,0,1,1.29-1.43,3.62,3.62,0,0,1,1.92-.5,3.43,3.43,0,0,1,2.6,1,4,4,0,0,1,1.08,2.74v.42a4.72,4.72,0,0,1-.45,2.09,3.32,3.32,0,0,1-1.29,1.43,3.64,3.64,0,0,1-1.94.5,3.45,3.45,0,0,1-2.68-1.11,4.3,4.3,0,0,1-1-3Zm1.78.16a3.16,3.16,0,0,0,.51,1.91,1.65,1.65,0,0,0,1.4.69,1.63,1.63,0,0,0,1.41-.7,3.58,3.58,0,0,0,.5-2.06,3.1,3.1,0,0,0-.52-1.9,1.64,1.64,0,0,0-1.4-.71,1.61,1.61,0,0,0-1.38.7A3.4,3.4,0,0,0,477.62,58.9Z"/><path class="cls-10" d="M486.57,54.85v8.63a2.63,2.63,0,0,1-.6,1.86,2.34,2.34,0,0,1-1.77.64,3.24,3.24,0,0,1-.94-.13v-1.4a2.93,2.93,0,0,0,.63.06q.89,0,.9-1v-8.7Zm-1.93-2.06a1,1,0,0,1,.26-.68,1.16,1.16,0,0,1,1.49,0,.93.93,0,0,1,.27.68.89.89,0,0,1-.27.67,1.16,1.16,0,0,1-1.49,0A.92.92,0,0,1,484.64,52.79Z"/><path class="cls-10" d="M492,62.92a3.69,3.69,0,0,1-2.75-1.06A3.87,3.87,0,0,1,488.17,59V58.8a4.69,4.69,0,0,1,.46-2.12,3.41,3.41,0,0,1,3.13-2,3.1,3.1,0,0,1,2.5,1,4.35,4.35,0,0,1,.88,2.92v.72H490a2.37,2.37,0,0,0,.65,1.55,2,2,0,0,0,1.45.57,2.41,2.41,0,0,0,2-1l1,.92a3.23,3.23,0,0,1-1.27,1.1A4,4,0,0,1,492,62.92Zm-.22-6.79a1.47,1.47,0,0,0-1.18.52,2.68,2.68,0,0,0-.58,1.42h3.4v-.13a2.18,2.18,0,0,0-.48-1.35A1.51,1.51,0,0,0,491.75,56.13Z"/><g class="cls-9"><rect class="cls-11" x="5" y="83.82" width="16.28" height="16.28"/></g><g class="cls-9"><path class="cls-12" d="M36.21,93.81v4H34.36V87.1h4.08a4.14,4.14,0,0,1,2.84.93,3.13,3.13,0,0,1,1,2.46,3,3,0,0,1-1,2.45,4.33,4.33,0,0,1-2.88.87Zm0-1.49h2.23A2.2,2.2,0,0,0,40,91.85a1.7,1.7,0,0,0,.52-1.34,1.84,1.84,0,0,0-.53-1.38,2,2,0,0,0-1.45-.54H36.21Z"/><path class="cls-12" d="M47.92,91.47a4.2,4.2,0,0,0-.72-.06,1.63,1.63,0,0,0-1.65.93v5.42H43.77V89.84h1.7l.05.89a2,2,0,0,1,1.78-1,1.58,1.58,0,0,1,.63.11Z"/><path class="cls-12" d="M49.05,87.78a1,1,0,0,1,.26-.68,1,1,0,0,1,.75-.27,1,1,0,0,1,.74.27.93.93,0,0,1,.27.68.9.9,0,0,1-.27.67,1,1,0,0,1-.74.27,1,1,0,0,1-.75-.27A.94.94,0,0,1,49.05,87.78Zm1.89,10H49.16V89.84h1.78Z"/><path class="cls-12" d="M55.67,95.51l1.68-5.67h1.84l-2.75,7.92H54.9l-2.77-7.92H54Z"/><path class="cls-12" d="M64.92,97.76a3.07,3.07,0,0,1-.2-.74,2.75,2.75,0,0,1-2.08.89,2.81,2.81,0,0,1-2-.68,2.18,2.18,0,0,1-.75-1.68,2.24,2.24,0,0,1,.94-2,4.57,4.57,0,0,1,2.69-.68h1.09V92.4a1.24,1.24,0,0,0-1.39-1.35,1.59,1.59,0,0,0-1,.3.92.92,0,0,0-.38.77H60.11a2,2,0,0,1,.43-1.22A2.92,2.92,0,0,1,61.71,90a4.07,4.07,0,0,1,1.66-.33,3.35,3.35,0,0,1,2.22.7,2.49,2.49,0,0,1,.85,2v3.57a4.07,4.07,0,0,0,.3,1.71v.12Zm-2-1.28a2,2,0,0,0,1-.25,1.72,1.72,0,0,0,.7-.69V94h-1a2.59,2.59,0,0,0-1.48.35,1.09,1.09,0,0,0-.5,1,1,1,0,0,0,.34.82A1.31,1.31,0,0,0,63,96.48Zm1-10h2l-2,2.22H62.53Z"/><path class="cls-12" d="M70.54,87.91v1.93h1.39v1.32H70.54v4.42a1.07,1.07,0,0,0,.17.66.87.87,0,0,0,.65.2,3.37,3.37,0,0,0,.62-.07v1.37a4.53,4.53,0,0,1-1.17.17c-1.37,0-2-.75-2-2.26V91.16H67.45V89.84h1.31V87.91Z"/><path class="cls-12" d="M75,89.84l0,.92a2.83,2.83,0,0,1,2.3-1.07c1.65,0,2.49,1,2.52,2.84v5.23H78V92.63a1.68,1.68,0,0,0-.32-1.12,1.4,1.4,0,0,0-1.07-.36,1.72,1.72,0,0,0-1.6,1v5.64H73.27V89.84Z"/><path class="cls-12" d="M83.55,97.76H81.77V89.84h1.78Zm-.34-11.19h2l-2,2.21H81.79Z"/><path class="cls-12" d="M91.21,96.34h4.22v1.42H89V96.6l4-5.32h-4V89.84h6.21V91Z"/><path class="cls-12" d="M96.4,93.74a4.75,4.75,0,0,1,.85-2.94,2.73,2.73,0,0,1,2.28-1.11,2.62,2.62,0,0,1,2,.88V86.51h1.78V97.76h-1.61l-.09-.82a2.6,2.6,0,0,1-2.13,1,2.69,2.69,0,0,1-2.25-1.12A4.85,4.85,0,0,1,96.4,93.74Zm1.78.16a3.29,3.29,0,0,0,.47,1.88,1.51,1.51,0,0,0,1.32.68,1.68,1.68,0,0,0,1.6-1V92.1a1.67,1.67,0,0,0-1.58-.95,1.53,1.53,0,0,0-1.34.69A3.67,3.67,0,0,0,98.18,93.9Z"/><path class="cls-12" d="M109.35,91.47a4.2,4.2,0,0,0-.72-.06,1.63,1.63,0,0,0-1.65.93v5.42H105.2V89.84h1.7l0,.89a2,2,0,0,1,1.79-1,1.58,1.58,0,0,1,.63.11Z"/><path class="cls-12" d="M109.88,93.73a4.63,4.63,0,0,1,.46-2.1,3.43,3.43,0,0,1,1.3-1.44,3.69,3.69,0,0,1,1.92-.5,3.46,3.46,0,0,1,2.6,1,4,4,0,0,1,1.08,2.73v.42a4.76,4.76,0,0,1-.45,2.1,3.38,3.38,0,0,1-1.29,1.43,3.76,3.76,0,0,1-1.94.5,3.41,3.41,0,0,1-2.68-1.12,4.26,4.26,0,0,1-1-3Zm1.78.15a3.17,3.17,0,0,0,.51,1.92,1.77,1.77,0,0,0,2.81,0,3.58,3.58,0,0,0,.5-2.06,3.2,3.2,0,0,0-.52-1.91,1.75,1.75,0,0,0-2.79,0A3.49,3.49,0,0,0,111.66,93.88Z"/><path class="cls-12" d="M120.61,89.84v8.63a2.59,2.59,0,0,1-.6,1.85,2.33,2.33,0,0,1-1.77.64,3.75,3.75,0,0,1-.95-.12V99.43a2.48,2.48,0,0,0,.63.07c.59,0,.9-.32.91-1V89.84Zm-1.93-2.06a.92.92,0,0,1,.26-.68,1,1,0,0,1,.74-.27,1,1,0,0,1,.75.27,1,1,0,0,1,.26.68.94.94,0,0,1-.26.67,1,1,0,0,1-.75.27,1,1,0,0,1-.74-.27A.9.9,0,0,1,118.68,87.78Z"/><path class="cls-12" d="M126,97.91a3.67,3.67,0,0,1-2.74-1.06A3.89,3.89,0,0,1,122.21,94v-.22a4.69,4.69,0,0,1,.46-2.12,3.39,3.39,0,0,1,3.13-2,3.11,3.11,0,0,1,2.5,1,4.34,4.34,0,0,1,.88,2.92v.72H124a2.43,2.43,0,0,0,.66,1.55,2,2,0,0,0,1.44.57,2.43,2.43,0,0,0,2-1l1,.92a3.23,3.23,0,0,1-1.27,1.1A4,4,0,0,1,126,97.91Zm-.21-6.79a1.49,1.49,0,0,0-1.18.51,2.75,2.75,0,0,0-.58,1.43h3.39v-.13a2.13,2.13,0,0,0-.47-1.35A1.49,1.49,0,0,0,125.79,91.12Z"/></g><g class="cls-9"><rect class="cls-13" x="279.55" y="83.82" width="16.28" height="16.28"/></g><path class="cls-14" d="M315.14,93h-4.38v3.28h5.12v1.48h-7V87.1h6.92v1.49h-5.07v3h4.38Z"/><path class="cls-14" d="M320.07,92.45l1.5-2.61h2l-2.42,3.9,2.5,4h-2l-1.58-2.71-1.58,2.71h-2l2.51-4-2.42-3.9h2Z"/><path class="cls-14" d="M331.7,93.88a4.71,4.71,0,0,1-.83,2.94,2.9,2.9,0,0,1-4.33.23v3.76h-1.78v-11h1.64l.07.81a2.63,2.63,0,0,1,2.14-1,2.7,2.7,0,0,1,2.27,1.08,4.84,4.84,0,0,1,.82,3Zm-1.77-.15a3.33,3.33,0,0,0-.47-1.88,1.54,1.54,0,0,0-1.35-.7,1.64,1.64,0,0,0-1.57.9v3.52a1.66,1.66,0,0,0,1.58.92,1.54,1.54,0,0,0,1.33-.68A3.65,3.65,0,0,0,329.93,93.73Z"/><path class="cls-14" d="M332.87,93.73a4.63,4.63,0,0,1,.47-2.1,3.41,3.41,0,0,1,1.29-1.44,3.71,3.71,0,0,1,1.92-.5,3.48,3.48,0,0,1,2.61,1,4.1,4.1,0,0,1,1.08,2.73v.42a4.76,4.76,0,0,1-.45,2.1,3.38,3.38,0,0,1-1.29,1.43,3.7,3.7,0,0,1-1.93.5,3.43,3.43,0,0,1-2.69-1.12,4.26,4.26,0,0,1-1-3Zm1.79.15a3.18,3.18,0,0,0,.5,1.92,1.66,1.66,0,0,0,1.41.69,1.62,1.62,0,0,0,1.4-.7,3.58,3.58,0,0,0,.5-2.06,3.14,3.14,0,0,0-.52-1.91,1.66,1.66,0,0,0-1.4-.7,1.63,1.63,0,0,0-1.38.69A3.49,3.49,0,0,0,334.66,93.88Z"/><path class="cls-14" d="M345.9,91.47a4.4,4.4,0,0,0-.73-.06,1.63,1.63,0,0,0-1.64.93v5.42h-1.78V89.84h1.7l0,.89a2,2,0,0,1,1.79-1,1.65,1.65,0,0,1,.63.11Z"/><path class="cls-14" d="M349.62,87.91v1.93H351v1.32h-1.4v4.42a1,1,0,0,0,.18.66.84.84,0,0,0,.64.2,3.37,3.37,0,0,0,.62-.07v1.37a4.41,4.41,0,0,1-1.17.17c-1.37,0-2.05-.75-2.05-2.26V91.16h-1.31V89.84h1.31V87.91Z"/><path class="cls-14" d="M354,89.84l.05.92a2.85,2.85,0,0,1,2.31-1.07c1.65,0,2.49,1,2.52,2.84v5.23h-1.78V92.63a1.63,1.63,0,0,0-.33-1.12,1.38,1.38,0,0,0-1.07-.36,1.73,1.73,0,0,0-1.6,1v5.64h-1.78V89.84Z"/><path class="cls-14" d="M362.63,97.76h-1.78V89.84h1.78Zm-.33-11.19h2l-2,2.21h-1.43Z"/><path class="cls-14" d="M371,94.37l-.79.81v2.58H368.4V86.51h1.78V93l.55-.69,2.19-2.47h2.14l-2.94,3.3,3.26,4.62h-2.06Z"/><path class="cls-14" d="M380.37,91.47a4.2,4.2,0,0,0-.72-.06,1.63,1.63,0,0,0-1.65.93v5.42h-1.78V89.84h1.7l0,.89a2,2,0,0,1,1.79-1,1.65,1.65,0,0,1,.63.11Z"/><path class="cls-14" d="M384.85,97.91a3.67,3.67,0,0,1-2.74-1.06A3.9,3.9,0,0,1,381.05,94v-.22a4.82,4.82,0,0,1,.46-2.12,3.53,3.53,0,0,1,1.29-1.46,3.43,3.43,0,0,1,1.84-.52,3.13,3.13,0,0,1,2.51,1,4.39,4.39,0,0,1,.88,2.92v.72h-5.18a2.37,2.37,0,0,0,.65,1.55,2,2,0,0,0,1.45.57,2.4,2.4,0,0,0,2-1l1,.92a3.16,3.16,0,0,1-1.27,1.1A4,4,0,0,1,384.85,97.91Zm-.21-6.79a1.51,1.51,0,0,0-1.19.51,2.67,2.67,0,0,0-.57,1.43h3.39v-.13a2.13,2.13,0,0,0-.48-1.35A1.45,1.45,0,0,0,384.64,91.12Z"/><path class="cls-14" d="M389.07,93.74a4.75,4.75,0,0,1,.85-2.94,2.73,2.73,0,0,1,2.28-1.11,2.62,2.62,0,0,1,2,.88V86.51H396V97.76h-1.61l-.09-.82a2.6,2.6,0,0,1-2.13,1,2.69,2.69,0,0,1-2.25-1.12A4.85,4.85,0,0,1,389.07,93.74Zm1.78.16a3.29,3.29,0,0,0,.47,1.88,1.51,1.51,0,0,0,1.32.68,1.68,1.68,0,0,0,1.6-1V92.1a1.67,1.67,0,0,0-1.58-.95,1.53,1.53,0,0,0-1.34.69A3.67,3.67,0,0,0,390.85,93.9Z"/><path class="cls-14" d="M397.88,87.78a.92.92,0,0,1,.26-.68,1,1,0,0,1,.74-.27,1,1,0,0,1,.75.27,1,1,0,0,1,.26.68.94.94,0,0,1-.26.67,1,1,0,0,1-.75.27,1,1,0,0,1-.74-.27A.9.9,0,0,1,397.88,87.78Zm1.89,10H398V89.84h1.78Z"/><path class="cls-14" d="M403.94,87.91v1.93h1.39v1.32h-1.39v4.42a1,1,0,0,0,.17.66.87.87,0,0,0,.65.2,3.37,3.37,0,0,0,.62-.07v1.37a4.53,4.53,0,0,1-1.17.17c-1.37,0-2-.75-2-2.26V91.16h-1.31V89.84h1.31V87.91Z"/><path class="cls-14" d="M409.46,95.22l1.62-5.38H413L409.82,99a2.55,2.55,0,0,1-2.46,2,3,3,0,0,1-.85-.13V99.45l.33,0a1.79,1.79,0,0,0,1-.24,1.76,1.76,0,0,0,.54-.83l.25-.68-2.78-7.88h1.92Z"/><rect class="cls-2" x="166.6" y="181.3" width="78.25" height="37.77"/><path class="cls-12" d="M181.65,186.16a3.59,3.59,0,0,1-1.12,2.41,3.7,3.7,0,0,1-2.54.83,3.51,3.51,0,0,1-2-.55,3.59,3.59,0,0,1-1.32-1.57,5.82,5.82,0,0,1-.47-2.32v-1.29a5.6,5.6,0,0,1,.47-2.35,3.6,3.6,0,0,1,1.33-1.59,3.65,3.65,0,0,1,2-.55,3.5,3.5,0,0,1,2.52.86,3.59,3.59,0,0,1,1.08,2.38h-.84a2.54,2.54,0,0,0-2.76-2.53,2.64,2.64,0,0,0-2.16,1,4.44,4.44,0,0,0-.8,2.8v1.22a4.44,4.44,0,0,0,.78,2.75,2.54,2.54,0,0,0,2.12,1,2.81,2.81,0,0,0,2-.63,3.08,3.08,0,0,0,.83-1.9Z"/><path class="cls-12" d="M184.32,183.12a2.87,2.87,0,0,1,1-1,2.74,2.74,0,0,1,1.38-.37,2.21,2.21,0,0,1,1.76.67,3,3,0,0,1,.59,2v4.86h-.81v-4.86a2.27,2.27,0,0,0-.42-1.48,1.67,1.67,0,0,0-1.32-.49,2.07,2.07,0,0,0-1.35.48,2.72,2.72,0,0,0-.86,1.28v5.07h-.82v-10.5h.82Z"/><path class="cls-12" d="M193.53,188.09l2.16-6.22h.88l-3.15,8.66-.17.38a2,2,0,0,1-1.88,1.34,2.51,2.51,0,0,1-.63-.09v-.68l.42,0a1.58,1.58,0,0,0,1-.29,2.4,2.4,0,0,0,.63-1l.36-1-2.79-7.34h.9Z"/><path class="cls-12" d="M203.79,185.64a4.47,4.47,0,0,1-.76,2.75,2.44,2.44,0,0,1-2.06,1,2.67,2.67,0,0,1-2.34-1.14l0,1h-.77v-10.5h.82v4.17a2.59,2.59,0,0,1,2.31-1.21,2.47,2.47,0,0,1,2.07,1,4.46,4.46,0,0,1,.76,2.78Zm-.82-.14a3.93,3.93,0,0,0-.56-2.26,1.87,1.87,0,0,0-1.6-.8,2.26,2.26,0,0,0-1.34.39,2.36,2.36,0,0,0-.82,1.13v3.34a2.18,2.18,0,0,0,2.17,1.39,1.82,1.82,0,0,0,1.58-.8A4.11,4.11,0,0,0,203,185.5Z"/><path class="cls-12" d="M206.92,178.85h1l-1.58,1.91h-.72Zm-.42,10.42h-.82v-7.4h.82Z"/><path class="cls-12" d="M211.79,185.5a4.46,4.46,0,0,1,.77-2.74,2.46,2.46,0,0,1,2.09-1,2.56,2.56,0,0,1,2.28,1.19v-4.15h.82v10.5H217l0-1a2.65,2.65,0,0,1-2.31,1.12,2.47,2.47,0,0,1-2.07-1,4.47,4.47,0,0,1-.78-2.77Zm.83.14a3.87,3.87,0,0,0,.57,2.24,1.84,1.84,0,0,0,1.6.81,2.19,2.19,0,0,0,2.14-1.33v-3.47a2.19,2.19,0,0,0-2.13-1.45,1.85,1.85,0,0,0-1.61.82A4.1,4.1,0,0,0,212.62,185.64Z"/><path class="cls-12" d="M224.57,189.27a3.91,3.91,0,0,1-.16-1,2.77,2.77,0,0,1-1.1.87,3.37,3.37,0,0,1-1.41.3,2.45,2.45,0,0,1-1.72-.59,1.94,1.94,0,0,1-.66-1.5,2,2,0,0,1,.89-1.71,4.33,4.33,0,0,1,2.51-.63h1.49v-.84a1.61,1.61,0,0,0-.5-1.25,2,2,0,0,0-1.42-.46,2.27,2.27,0,0,0-1.42.44,1.3,1.3,0,0,0-.56,1h-.82a1.92,1.92,0,0,1,.82-1.53,3.18,3.18,0,0,1,2-.65,2.87,2.87,0,0,1,1.95.62,2.25,2.25,0,0,1,.74,1.73v3.5a4.43,4.43,0,0,0,.22,1.61v.08Zm-2.57-.59a2.67,2.67,0,0,0,1.46-.4,2.27,2.27,0,0,0,.95-1.06V185.6h-1.47A3.67,3.67,0,0,0,221,186a1.35,1.35,0,0,0-.69,1.2,1.31,1.31,0,0,0,.46,1A1.76,1.76,0,0,0,222,188.68Z"/><path class="cls-12" d="M228.67,180v1.89h1.53v.67h-1.53v4.94a1.51,1.51,0,0,0,.22.91.87.87,0,0,0,.74.3,4.55,4.55,0,0,0,.67-.07l0,.67a2.59,2.59,0,0,1-.87.11,1.49,1.49,0,0,1-1.23-.48,2.35,2.35,0,0,1-.38-1.44v-4.94h-1.36v-.67h1.36V180Z"/><path class="cls-12" d="M236.57,189.27a3.54,3.54,0,0,1-.16-1,2.77,2.77,0,0,1-1.1.87,3.37,3.37,0,0,1-1.41.3,2.47,2.47,0,0,1-1.73-.59,1.94,1.94,0,0,1-.66-1.5,2,2,0,0,1,.9-1.71,4.33,4.33,0,0,1,2.51-.63h1.48v-.84a1.61,1.61,0,0,0-.49-1.25,2,2,0,0,0-1.42-.46,2.27,2.27,0,0,0-1.42.44,1.3,1.3,0,0,0-.56,1h-.82a1.92,1.92,0,0,1,.82-1.53,3.18,3.18,0,0,1,2-.65,2.91,2.91,0,0,1,1.95.62,2.25,2.25,0,0,1,.74,1.73v3.5a4.43,4.43,0,0,0,.22,1.61v.08Zm-2.58-.59a2.7,2.7,0,0,0,1.47-.4,2.25,2.25,0,0,0,.94-1.06V185.6h-1.46A3.71,3.71,0,0,0,233,186a1.37,1.37,0,0,0-.69,1.2,1.32,1.32,0,0,0,.47,1A1.72,1.72,0,0,0,234,188.68Z"/><path class="cls-12" d="M178.54,200.64a4.47,4.47,0,0,1-.76,2.75,2.43,2.43,0,0,1-2.05,1,2.74,2.74,0,0,1-2.33-1.06v3.77h-.81V196.87h.76l0,1a2.62,2.62,0,0,1,2.32-1.19,2.47,2.47,0,0,1,2.08,1,4.58,4.58,0,0,1,.75,2.79Zm-.82-.14a3.76,3.76,0,0,0-.58-2.23,1.88,1.88,0,0,0-1.62-.83,2.19,2.19,0,0,0-2.12,1.42v3.55a2.28,2.28,0,0,0,.84,1,2.48,2.48,0,0,0,1.29.33,1.84,1.84,0,0,0,1.61-.82A4.12,4.12,0,0,0,177.72,200.5Z"/><path class="cls-12" d="M183.77,197.57a3.21,3.21,0,0,0-.55,0,2,2,0,0,0-1.3.43,2.34,2.34,0,0,0-.75,1.24v5.08h-.82v-7.4h.8l0,1.18a2.17,2.17,0,0,1,2.08-1.32,1.32,1.32,0,0,1,.54.09Z"/><path class="cls-12" d="M184.48,200.46a4.29,4.29,0,0,1,.41-1.92,3.16,3.16,0,0,1,1.17-1.33,3.1,3.1,0,0,1,1.71-.48,3,3,0,0,1,2.39,1,4,4,0,0,1,.92,2.74v.18a4.37,4.37,0,0,1-.42,1.93,3.05,3.05,0,0,1-1.16,1.32,3.19,3.19,0,0,1-1.72.46,3,3,0,0,1-2.38-1,4,4,0,0,1-.92-2.75Zm.82.23a3.33,3.33,0,0,0,.68,2.17,2.33,2.33,0,0,0,3.6,0,3.44,3.44,0,0,0,.69-2.24v-.16a3.74,3.74,0,0,0-.32-1.55,2.47,2.47,0,0,0-.88-1.09,2.24,2.24,0,0,0-1.3-.39,2.18,2.18,0,0,0-1.78.86,3.46,3.46,0,0,0-.69,2.24Z"/><path class="cls-12" d="M202.12,200.64a4.47,4.47,0,0,1-.77,2.75,2.42,2.42,0,0,1-2,1,2.73,2.73,0,0,1-2.32-1.06v3.77h-.82V196.87h.76l.05,1a2.61,2.61,0,0,1,2.31-1.19,2.45,2.45,0,0,1,2.08,1,4.51,4.51,0,0,1,.76,2.79Zm-.82-.14a3.76,3.76,0,0,0-.58-2.23,1.88,1.88,0,0,0-1.62-.83,2.19,2.19,0,0,0-2.12,1.42v3.55a2.22,2.22,0,0,0,.84,1,2.43,2.43,0,0,0,1.29.33,1.84,1.84,0,0,0,1.61-.82A4.12,4.12,0,0,0,201.3,200.5Z"/><path class="cls-12" d="M207.35,197.57a3.21,3.21,0,0,0-.55,0,2,2,0,0,0-1.3.43,2.41,2.41,0,0,0-.76,1.24v5.08h-.81v-7.4h.8v1.18a2.18,2.18,0,0,1,2.09-1.32,1.32,1.32,0,0,1,.54.09Z"/><path class="cls-12" d="M208.59,194.73a.53.53,0,0,1,.56-.55.57.57,0,0,1,.42.16.56.56,0,0,1,.15.39.53.53,0,0,1-.15.39.54.54,0,0,1-.42.16.53.53,0,0,1-.56-.55Zm1,9.54h-.82v-7.4h.82Z"/><path class="cls-12" d="M214.08,203.14l2.25-6.27h.84l-2.76,7.4h-.66l-2.78-7.4h.84Z"/><path class="cls-12" d="M223.08,204.27a3.91,3.91,0,0,1-.16-1,2.77,2.77,0,0,1-1.1.87,3.37,3.37,0,0,1-1.41.3,2.45,2.45,0,0,1-1.72-.59,1.94,1.94,0,0,1-.66-1.5,2,2,0,0,1,.89-1.71,4.33,4.33,0,0,1,2.51-.63h1.48v-.84a1.61,1.61,0,0,0-.49-1.25,2,2,0,0,0-1.42-.46,2.27,2.27,0,0,0-1.42.44,1.3,1.3,0,0,0-.56,1h-.82a1.92,1.92,0,0,1,.82-1.53,3.18,3.18,0,0,1,2-.65,2.87,2.87,0,0,1,2,.62,2.25,2.25,0,0,1,.74,1.73v3.5a4.43,4.43,0,0,0,.22,1.61v.08Zm-2.57-.59a2.67,2.67,0,0,0,1.46-.4,2.2,2.2,0,0,0,.94-1.06V200.6h-1.46a3.67,3.67,0,0,0-1.91.44,1.35,1.35,0,0,0-.69,1.2,1.31,1.31,0,0,0,.46,1A1.76,1.76,0,0,0,220.51,203.68Zm1.61-9.91h1l-1.58,1.91h-.71Z"/><path class="cls-12" d="M227.18,195v1.89h1.53v.67h-1.53v4.94a1.51,1.51,0,0,0,.22.91.87.87,0,0,0,.74.3,4.55,4.55,0,0,0,.67-.07l0,.67a2.59,2.59,0,0,1-.87.11,1.49,1.49,0,0,1-1.23-.48,2.35,2.35,0,0,1-.38-1.44v-4.94H225v-.67h1.36V195Z"/><path class="cls-12" d="M231.19,196.87l0,1.27a3,3,0,0,1,1-1,2.73,2.73,0,0,1,1.38-.36,2.25,2.25,0,0,1,1.77.67,3.11,3.11,0,0,1,.59,2v4.86h-.82v-4.86a2.22,2.22,0,0,0-.42-1.48,1.65,1.65,0,0,0-1.32-.49,2.09,2.09,0,0,0-1.35.48,2.88,2.88,0,0,0-.86,1.28v5.07h-.81v-7.4Z"/><path class="cls-12" d="M239.42,193.85h1l-1.58,1.91h-.71ZM239,204.27h-.82v-7.4H239Z"/><path class="cls-12" d="M188.79,218.58h4.8v.69h-5.82v-.6l4.49-6.09h-4.35v-.71h5.38v.61Z"/><path class="cls-12" d="M194.62,215.5a4.39,4.39,0,0,1,.77-2.74,2.45,2.45,0,0,1,2.09-1,2.59,2.59,0,0,1,2.28,1.19v-4.15h.81v10.5h-.76l0-1a2.62,2.62,0,0,1-2.31,1.12,2.46,2.46,0,0,1-2.06-1,4.47,4.47,0,0,1-.78-2.77Zm.82.14a3.87,3.87,0,0,0,.57,2.24,1.84,1.84,0,0,0,1.6.81,2.21,2.21,0,0,0,2.15-1.33v-3.47a2.2,2.2,0,0,0-2.13-1.45,1.84,1.84,0,0,0-1.61.82A4.09,4.09,0,0,0,195.44,215.64Z"/><path class="cls-12" d="M206.14,212.57a3.12,3.12,0,0,0-.55,0,2,2,0,0,0-1.3.43,2.34,2.34,0,0,0-.75,1.24v5.08h-.81v-7.4h.79l0,1.18a2.17,2.17,0,0,1,2.08-1.32,1.32,1.32,0,0,1,.54.09Z"/><path class="cls-12" d="M206.85,215.46a4.43,4.43,0,0,1,.41-1.92,3.23,3.23,0,0,1,1.17-1.33,3.1,3.1,0,0,1,1.71-.48,3,3,0,0,1,2.39,1,3.93,3.93,0,0,1,.92,2.74v.18a4.51,4.51,0,0,1-.41,1.93,3.14,3.14,0,0,1-1.17,1.32,3.17,3.17,0,0,1-1.71.46,3,3,0,0,1-2.39-1,4,4,0,0,1-.92-2.75Zm.82.23a3.39,3.39,0,0,0,.68,2.17,2.33,2.33,0,0,0,3.6,0,3.44,3.44,0,0,0,.69-2.24v-.16a3.74,3.74,0,0,0-.32-1.55,2.47,2.47,0,0,0-.88-1.09,2.24,2.24,0,0,0-1.3-.39,2.18,2.18,0,0,0-1.78.86,3.46,3.46,0,0,0-.69,2.24Z"/><path class="cls-12" d="M216,211.87v8.28a2.23,2.23,0,0,1-.49,1.56,1.86,1.86,0,0,1-1.45.54,2.18,2.18,0,0,1-.72-.12l0-.68a2,2,0,0,0,.61.09c.81,0,1.22-.46,1.22-1.4v-8.27Zm-.4-2.69a.55.55,0,0,1,.41.16.52.52,0,0,1,.15.39.49.49,0,0,1-.15.39.61.61,0,0,1-.82,0,.53.53,0,0,1-.15-.39.56.56,0,0,1,.15-.39A.55.55,0,0,1,215.62,209.18Z"/><path class="cls-12" d="M221.2,219.4a3.22,3.22,0,0,1-1.71-.46,3.19,3.19,0,0,1-1.19-1.3,4,4,0,0,1-.42-1.86v-.29a4.43,4.43,0,0,1,.41-1.92,3.33,3.33,0,0,1,1.16-1.35,2.87,2.87,0,0,1,1.6-.49,2.67,2.67,0,0,1,2.13.92,3.73,3.73,0,0,1,.79,2.52v.45h-5.28v.16a3.11,3.11,0,0,0,.72,2.1,2.34,2.34,0,0,0,1.82.83,2.67,2.67,0,0,0,1.16-.24,2.47,2.47,0,0,0,.91-.76l.51.39A3,3,0,0,1,221.2,219.4Zm-.15-7a2.05,2.05,0,0,0-1.56.68,3.13,3.13,0,0,0-.77,1.82h4.44v-.09a2.73,2.73,0,0,0-.61-1.74A1.88,1.88,0,0,0,221.05,212.43Z"/><path class="cls-2" d="M173.1,210.37s-9.4,35.63,9,47.51"/><path class="cls-15" d="M173.1,210.37s-9.17,34.75,8.31,47.05"/><polygon class="cls-11" points="177.6 258.33 177.53 257.58 181.21 257.21 180.57 253.57 181.31 253.44 182.08 257.88 177.6 258.33"/></svg>