<svg id="Layer_1" data-name="Layer 1" xmlns="http://www.w3.org/2000/svg" viewBox="0 0 740 442.35"><defs><style>.cls-1,.cls-7{opacity:0.8;}.cls-2,.cls-7{fill:#3892dc;}.cls-3,.cls-8{opacity:0.7;}.cls-4,.cls-8{fill:#b4bfca;}.cls-5{fill:#a4aeb8;}.cls-6,.cls-9{fill:none;}.cls-6{stroke:#808285;stroke-linecap:square;stroke-linejoin:round;stroke-width:0.3px;stroke-dasharray:5.69;}.cls-9{stroke:#231f20;stroke-miterlimit:10;stroke-width:3px;}.cls-10{fill:#231f20;}</style></defs><g class="cls-1"><rect class="cls-2" x="7" y="47.64" width="16.28" height="16.28"/></g><path class="cls-2" d="M38.21,57.62v4H36.36V50.91h4.08a4.14,4.14,0,0,1,2.84.93,3.16,3.16,0,0,1,1,2.47,3,3,0,0,1-1,2.44,4.33,4.33,0,0,1-2.88.87Zm0-1.49h2.23A2.2,2.2,0,0,0,42,55.66a1.7,1.7,0,0,0,.52-1.34,1.84,1.84,0,0,0-.53-1.38,2,2,0,0,0-1.45-.53H38.21Z"/><path class="cls-2" d="M45.35,57.54a4.69,4.69,0,0,1,.46-2.1A3.35,3.35,0,0,1,47.11,54a3.57,3.57,0,0,1,1.92-.5,3.47,3.47,0,0,1,2.6,1,4.08,4.08,0,0,1,1.08,2.74v.42a4.72,4.72,0,0,1-.45,2.09A3.32,3.32,0,0,1,51,61.22a3.67,3.67,0,0,1-1.94.5,3.43,3.43,0,0,1-2.68-1.11,4.26,4.26,0,0,1-1-3Zm1.78.16a3.23,3.23,0,0,0,.5,1.91A1.66,1.66,0,0,0,49,60.3a1.61,1.61,0,0,0,1.4-.7,3.5,3.5,0,0,0,.5-2.06,3.17,3.17,0,0,0-.51-1.9,1.73,1.73,0,0,0-2.79,0A3.47,3.47,0,0,0,47.13,57.7Z"/><path class="cls-2" d="M58.66,59.42a.8.8,0,0,0-.39-.72,4.09,4.09,0,0,0-1.3-.44,7.08,7.08,0,0,1-1.51-.48,2,2,0,0,1-1.34-1.87A2.11,2.11,0,0,1,55,54.19a3.43,3.43,0,0,1,2.19-.68,3.55,3.55,0,0,1,2.3.7A2.25,2.25,0,0,1,60.36,56H58.58a1.09,1.09,0,0,0-.39-.85,1.44,1.44,0,0,0-1-.34,1.55,1.55,0,0,0-1,.27.84.84,0,0,0-.37.72.71.71,0,0,0,.34.64,4.73,4.73,0,0,0,1.39.46,6.59,6.59,0,0,1,1.65.55,2.3,2.3,0,0,1,.88.76,1.91,1.91,0,0,1,.29,1.09,2.06,2.06,0,0,1-.88,1.73,3.8,3.8,0,0,1-2.32.66,4,4,0,0,1-1.74-.35,2.85,2.85,0,0,1-1.19-1,2.33,2.33,0,0,1-.42-1.33h1.73a1.25,1.25,0,0,0,.47,1,1.87,1.87,0,0,0,1.17.34,1.8,1.8,0,0,0,1.07-.27A.82.82,0,0,0,58.66,59.42Z"/><path class="cls-2" d="M64.54,58.18l-.79.81v2.59H62V50.33h1.78v6.49l.55-.7,2.19-2.47h2.14L65.69,57,69,61.58H66.89Z"/><path class="cls-2" d="M72.56,59l1.62-5.38h1.89l-3.15,9.13a2.56,2.56,0,0,1-2.46,2,3.45,3.45,0,0,1-.85-.13V63.26l.33,0a1.37,1.37,0,0,0,1.56-1.06l.25-.69L69,53.65h1.92Z"/><path class="cls-2" d="M79.33,51.73v1.92h1.39V55H79.33v4.42a1,1,0,0,0,.17.66.87.87,0,0,0,.65.2,2.68,2.68,0,0,0,.62-.07v1.38a4.5,4.5,0,0,1-1.17.16c-1.37,0-2.06-.75-2.06-2.26V55h-1.3V53.65h1.3V51.73Z"/><path class="cls-2" d="M83.73,53.65l.06.92a2.82,2.82,0,0,1,2.3-1.06c1.65,0,2.49.94,2.52,2.83v5.24H86.83V56.44a1.65,1.65,0,0,0-.32-1.11A1.36,1.36,0,0,0,85.44,55a1.71,1.71,0,0,0-1.6,1v5.64H82.06V53.65Z"/><path class="cls-2" d="M95.23,60.8a2.76,2.76,0,0,1-2.23.92,2.46,2.46,0,0,1-2-.75,3.21,3.21,0,0,1-.67-2.18V53.65h1.78v5.11c0,1,.42,1.51,1.26,1.51a1.77,1.77,0,0,0,1.75-.93V53.65H97v7.93H95.27Z"/><path class="cls-2" d="M101,51.73v1.92h1.4V55H101v4.42a1,1,0,0,0,.18.66.84.84,0,0,0,.64.2,2.62,2.62,0,0,0,.62-.07v1.38a4.39,4.39,0,0,1-1.17.16c-1.37,0-2.05-.75-2.05-2.26V55h-1.3V53.65h1.3V51.73Z"/><path class="cls-2" d="M107.24,61.72a3.67,3.67,0,0,1-2.74-1.06,3.84,3.84,0,0,1-1.06-2.84V57.6a4.82,4.82,0,0,1,.46-2.12A3.44,3.44,0,0,1,105.19,54a3.34,3.34,0,0,1,1.84-.52,3.09,3.09,0,0,1,2.5,1,4.36,4.36,0,0,1,.89,2.92v.72h-5.18a2.37,2.37,0,0,0,.65,1.55,2,2,0,0,0,1.45.57,2.4,2.4,0,0,0,2-1l1,.92a3.23,3.23,0,0,1-1.27,1.1A4,4,0,0,1,107.24,61.72ZM107,54.93a1.49,1.49,0,0,0-1.19.52,2.6,2.6,0,0,0-.57,1.42h3.39v-.13a2.18,2.18,0,0,0-.48-1.35A1.5,1.5,0,0,0,107,54.93Zm.4-4.6h2l-2,2.22H106Z"/><path class="cls-2" d="M118.11,58.18l-.79.81v2.59h-1.78V50.33h1.78v6.49l.55-.7,2.19-2.47h2.14L119.26,57l3.26,4.62h-2.06Z"/><path class="cls-2" d="M125.25,61.58h-1.77V50.33h1.77Z"/><path class="cls-2" d="M127.2,51.59a.92.92,0,0,1,.26-.68,1,1,0,0,1,.74-.27,1,1,0,0,1,.75.27,1,1,0,0,1,.26.68.92.92,0,0,1-.26.67,1,1,0,0,1-.75.27,1,1,0,0,1-.74-.27A.88.88,0,0,1,127.2,51.59Zm1.88,10h-1.77V53.65h1.77Z"/><path class="cls-2" d="M132.7,53.65l.05.83a2.84,2.84,0,0,1,2.28-1,2.19,2.19,0,0,1,2.18,1.21,2.79,2.79,0,0,1,2.43-1.21,2.49,2.49,0,0,1,2,.72,3.18,3.18,0,0,1,.66,2.14v5.21h-1.78V56.42a1.6,1.6,0,0,0-.33-1.11,1.47,1.47,0,0,0-1.09-.35,1.49,1.49,0,0,0-1,.33,1.74,1.74,0,0,0-.53.85v5.44h-1.78V56.36a1.27,1.27,0,0,0-1.42-1.4,1.57,1.57,0,0,0-1.52.87v5.75H131V53.65Z"/><path class="cls-2" d="M148.81,61.58a2.7,2.7,0,0,1-.21-.74,3,3,0,0,1-4,.2,2.14,2.14,0,0,1-.76-1.68,2.28,2.28,0,0,1,.94-2,4.59,4.59,0,0,1,2.69-.67h1.1v-.52a1.41,1.41,0,0,0-.35-1,1.35,1.35,0,0,0-1-.37,1.53,1.53,0,0,0-1,.31.92.92,0,0,0-.39.77H144a2,2,0,0,1,.43-1.22,2.82,2.82,0,0,1,1.18-.89,4,4,0,0,1,1.66-.32,3.34,3.34,0,0,1,2.22.7,2.5,2.5,0,0,1,.85,2v3.58a4,4,0,0,0,.3,1.7v.13Zm-2-1.28a2,2,0,0,0,1-.26,1.72,1.72,0,0,0,.7-.69V57.86h-1a2.63,2.63,0,0,0-1.49.34,1.11,1.11,0,0,0-.5,1,1.05,1.05,0,0,0,.34.82A1.34,1.34,0,0,0,146.85,60.3Z"/><path class="cls-2" d="M154.42,51.73v1.92h1.4V55h-1.4v4.42a1,1,0,0,0,.18.66.84.84,0,0,0,.64.2,2.62,2.62,0,0,0,.62-.07v1.38a4.39,4.39,0,0,1-1.17.16c-1.37,0-2.05-.75-2.05-2.26V55h-1.3V53.65h1.3V51.73Z"/><path class="cls-2" d="M157.18,51.59a1,1,0,0,1,.26-.68,1,1,0,0,1,.75-.27,1,1,0,0,1,.74.27.93.93,0,0,1,.27.68.89.89,0,0,1-.27.67,1,1,0,0,1-.74.27,1,1,0,0,1-.75-.27A.92.92,0,0,1,157.18,51.59Zm1.89,10h-1.78V53.65h1.78Z"/><path class="cls-2" d="M164.26,60.3a1.6,1.6,0,0,0,1.11-.39,1.31,1.31,0,0,0,.47-.95h1.68a2.63,2.63,0,0,1-.47,1.38,3,3,0,0,1-1.17,1,3.44,3.44,0,0,1-1.59.37,3.41,3.41,0,0,1-2.64-1.07,4.28,4.28,0,0,1-1-3v-.18a4.23,4.23,0,0,1,1-2.9,3.36,3.36,0,0,1,2.64-1.08,3.24,3.24,0,0,1,2.3.82,2.93,2.93,0,0,1,.94,2.16h-1.68a1.66,1.66,0,0,0-.47-1.12,1.51,1.51,0,0,0-1.11-.44,1.56,1.56,0,0,0-1.33.63,3.25,3.25,0,0,0-.48,1.9v.29a3.23,3.23,0,0,0,.47,1.92A1.57,1.57,0,0,0,164.26,60.3Z"/><path class="cls-2" d="M171.43,58.18l-.79.81v2.59h-1.78V50.33h1.78v6.49l.56-.7,2.19-2.47h2.14L172.58,57l3.26,4.62h-2.05Z"/><path class="cls-2" d="M180,61.72a3.68,3.68,0,0,1-2.74-1.06,3.87,3.87,0,0,1-1-2.84V57.6a4.69,4.69,0,0,1,.46-2.12A3.41,3.41,0,0,1,178,54a3.38,3.38,0,0,1,1.85-.52,3.1,3.1,0,0,1,2.5,1,4.35,4.35,0,0,1,.88,2.92v.72H178a2.43,2.43,0,0,0,.66,1.55,2,2,0,0,0,1.45.57,2.41,2.41,0,0,0,2-1l1,.92a3.23,3.23,0,0,1-1.27,1.1A4,4,0,0,1,180,61.72Zm-.21-6.79a1.47,1.47,0,0,0-1.18.52,2.68,2.68,0,0,0-.58,1.42h3.39v-.13a2.18,2.18,0,0,0-.47-1.35A1.52,1.52,0,0,0,179.82,54.93Zm.4-4.6h2l-2,2.22H178.8Z"/><path class="cls-2" d="M189,61.58V55h-1.2V53.65H189v-.72a2.73,2.73,0,0,1,.74-2,2.78,2.78,0,0,1,2.05-.72,4,4,0,0,1,1,.14l0,1.39a3.44,3.44,0,0,0-.68-.06A1.15,1.15,0,0,0,190.73,53v.7h1.62V55h-1.62v6.61Z"/><path class="cls-2" d="M193.65,51.59a1,1,0,0,1,.26-.68,1,1,0,0,1,.74-.27,1,1,0,0,1,.75.27.92.92,0,0,1,.26.68.88.88,0,0,1-.26.67,1,1,0,0,1-.75.27,1,1,0,0,1-.74-.27A.92.92,0,0,1,193.65,51.59Zm1.89,10h-1.78V53.65h1.78Z"/><path class="cls-2" d="M199.13,53.65l.05.92a2.83,2.83,0,0,1,2.31-1.06c1.65,0,2.49.94,2.51,2.83v5.24h-1.77V56.44a1.6,1.6,0,0,0-.33-1.11,1.35,1.35,0,0,0-1.07-.37,1.72,1.72,0,0,0-1.6,1v5.64h-1.78V53.65Z"/><path class="cls-2" d="M210.55,61.58a2.77,2.77,0,0,1-.2-.74,3,3,0,0,1-4,.2,2.17,2.17,0,0,1-.75-1.68,2.26,2.26,0,0,1,.94-2,4.55,4.55,0,0,1,2.69-.67h1.09v-.52a1.45,1.45,0,0,0-.34-1,1.36,1.36,0,0,0-1-.37,1.53,1.53,0,0,0-1,.31.92.92,0,0,0-.39.77h-1.78a2,2,0,0,1,.44-1.22,2.79,2.79,0,0,1,1.17-.89,4.06,4.06,0,0,1,1.66-.32,3.3,3.3,0,0,1,2.22.7,2.5,2.5,0,0,1,.85,2v3.58a4,4,0,0,0,.3,1.7v.13Zm-2-1.28a2,2,0,0,0,1-.26,1.72,1.72,0,0,0,.7-.69V57.86h-1a2.63,2.63,0,0,0-1.49.34,1.11,1.11,0,0,0-.49,1,1,1,0,0,0,.34.82A1.32,1.32,0,0,0,208.6,60.3Z"/><path class="cls-2" d="M215.58,53.65l.06.92a2.82,2.82,0,0,1,2.3-1.06c1.65,0,2.49.94,2.52,2.83v5.24h-1.78V56.44a1.65,1.65,0,0,0-.32-1.11,1.36,1.36,0,0,0-1.07-.37,1.71,1.71,0,0,0-1.6,1v5.64h-1.78V53.65Z"/><path class="cls-2" d="M225.53,60.3a1.62,1.62,0,0,0,1.11-.39,1.31,1.31,0,0,0,.47-.95h1.67a2.61,2.61,0,0,1-.46,1.38,3.12,3.12,0,0,1-1.17,1,3.49,3.49,0,0,1-1.6.37,3.4,3.4,0,0,1-2.63-1.07,4.28,4.28,0,0,1-1-3v-.18a4.18,4.18,0,0,1,1-2.9,3.35,3.35,0,0,1,2.64-1.08,3.24,3.24,0,0,1,2.3.82,3,3,0,0,1,.93,2.16h-1.67a1.66,1.66,0,0,0-.47-1.12,1.51,1.51,0,0,0-1.11-.44,1.55,1.55,0,0,0-1.33.63,3.25,3.25,0,0,0-.48,1.9v.29a3.23,3.23,0,0,0,.47,1.92A1.57,1.57,0,0,0,225.53,60.3Z"/><path class="cls-2" d="M233.62,61.72a3.71,3.71,0,0,1-2.75-1.06,3.87,3.87,0,0,1-1.05-2.84V57.6a4.82,4.82,0,0,1,.46-2.12A3.44,3.44,0,0,1,231.57,54a3.34,3.34,0,0,1,1.84-.52,3.09,3.09,0,0,1,2.5,1,4.36,4.36,0,0,1,.89,2.92v.72h-5.18a2.37,2.37,0,0,0,.65,1.55,2,2,0,0,0,1.45.57,2.4,2.4,0,0,0,2-1l1,.92a3.23,3.23,0,0,1-1.27,1.1A4,4,0,0,1,233.62,61.72Zm-.21-6.79a1.49,1.49,0,0,0-1.19.52,2.6,2.6,0,0,0-.57,1.42H235v-.13a2.18,2.18,0,0,0-.48-1.35A1.5,1.5,0,0,0,233.41,54.93Z"/><g class="cls-3"><rect class="cls-4" x="270" y="47.64" width="16.28" height="16.28"/></g><path class="cls-5" d="M307.49,58.11a3.81,3.81,0,0,1-1.26,2.66,4.26,4.26,0,0,1-2.92.95,4.15,4.15,0,0,1-2.24-.6,3.94,3.94,0,0,1-1.5-1.72,6.28,6.28,0,0,1-.55-2.58v-1a6.35,6.35,0,0,1,.53-2.66,4,4,0,0,1,1.54-1.77,4.25,4.25,0,0,1,2.31-.62,4.1,4.1,0,0,1,2.84.95,4,4,0,0,1,1.25,2.71h-1.84a2.64,2.64,0,0,0-.67-1.66,2.22,2.22,0,0,0-1.58-.51,2.19,2.19,0,0,0-1.86.88,4.46,4.46,0,0,0-.66,2.6v.94a4.72,4.72,0,0,0,.62,2.64,2,2,0,0,0,1.81.91,2.36,2.36,0,0,0,1.64-.49,2.55,2.55,0,0,0,.7-1.63Z"/><path class="cls-5" d="M310.73,54.52a2.77,2.77,0,0,1,2.21-1c1.68,0,2.54,1,2.57,2.89v5.18h-1.78V56.46a1.56,1.56,0,0,0-.36-1.16,1.48,1.48,0,0,0-1-.34,1.72,1.72,0,0,0-1.6,1v5.66H309V50.33h1.78Z"/><path class="cls-5" d="M320.08,59l1.61-5.38h1.9l-3.15,9.13a2.57,2.57,0,0,1-2.46,2,3.52,3.52,0,0,1-.86-.13V63.26l.34,0a1.77,1.77,0,0,0,1-.24,1.64,1.64,0,0,0,.54-.82l.25-.69-2.78-7.88h1.92Z"/><path class="cls-5" d="M331.56,57.7a4.74,4.74,0,0,1-.82,2.93,2.69,2.69,0,0,1-2.27,1.09,2.58,2.58,0,0,1-2.17-1l-.08.86H324.6V50.33h1.78v4.08a2.61,2.61,0,0,1,2.08-.9,2.73,2.73,0,0,1,2.28,1.07,4.85,4.85,0,0,1,.82,3Zm-1.78-.16a3.37,3.37,0,0,0-.45-1.93A1.51,1.51,0,0,0,328,55a1.67,1.67,0,0,0-1.63,1v3.27a1.67,1.67,0,0,0,1.64,1,1.48,1.48,0,0,0,1.29-.62,3.19,3.19,0,0,0,.47-1.88Z"/><path class="cls-5" d="M336.54,61.72a3.67,3.67,0,0,1-2.74-1.06,3.87,3.87,0,0,1-1.05-2.84V57.6a4.69,4.69,0,0,1,.46-2.12A3.41,3.41,0,0,1,334.49,54a3.38,3.38,0,0,1,1.85-.52,3.1,3.1,0,0,1,2.5,1,4.35,4.35,0,0,1,.88,2.92v.72h-5.18a2.43,2.43,0,0,0,.66,1.55,2,2,0,0,0,1.44.57,2.43,2.43,0,0,0,2-1l1,.92a3.23,3.23,0,0,1-1.27,1.1A4,4,0,0,1,336.54,61.72Zm-.34-10.26,1.07-1.14h1.52v.07l-2,2h-1.1l-2-2v-.07h1.51Zm.13,3.47a1.47,1.47,0,0,0-1.18.52,2.68,2.68,0,0,0-.58,1.42H338v-.13a2.18,2.18,0,0,0-.47-1.35A1.52,1.52,0,0,0,336.33,54.93Z"/><path class="cls-5" d="M343,53.65v8.63a2.59,2.59,0,0,1-.61,1.86,2.33,2.33,0,0,1-1.76.64,3.3,3.3,0,0,1-.95-.13v-1.4a3.06,3.06,0,0,0,.63.06c.59,0,.89-.32.91-1v-8.7ZM341,51.59a.92.92,0,0,1,.26-.68,1,1,0,0,1,.74-.27,1,1,0,0,1,.75.27,1,1,0,0,1,.26.68.92.92,0,0,1-.26.67,1,1,0,0,1-.75.27,1,1,0,0,1-.74-.27A.88.88,0,0,1,341,51.59Z"/><path class="cls-5" d="M346.77,61.58H345V53.65h1.78Zm-.33-11.2h2l-2,2.22H345Z"/><path class="cls-5" d="M352.06,60.3a1.59,1.59,0,0,0,1.1-.39,1.31,1.31,0,0,0,.47-.95h1.68a2.7,2.7,0,0,1-.46,1.38,3.07,3.07,0,0,1-1.18,1,3.44,3.44,0,0,1-1.59.37,3.41,3.41,0,0,1-2.64-1.07,4.28,4.28,0,0,1-1-3v-.18a4.23,4.23,0,0,1,1-2.9,3.38,3.38,0,0,1,2.64-1.08,3.24,3.24,0,0,1,2.3.82,2.93,2.93,0,0,1,.94,2.16h-1.68a1.66,1.66,0,0,0-.47-1.12,1.5,1.5,0,0,0-1.1-.44,1.57,1.57,0,0,0-1.34.63,3.18,3.18,0,0,0-.47,1.9v.29a3.24,3.24,0,0,0,.46,1.92A1.57,1.57,0,0,0,352.06,60.3Z"/><path class="cls-5" d="M358.57,61.58h-1.78V53.65h1.78Zm-.34-11.2h2l-2,2.22H356.8Z"/><path class="cls-5" d="M364,57.56a4.75,4.75,0,0,1,.85-2.94,2.73,2.73,0,0,1,2.28-1.11,2.61,2.61,0,0,1,2,.87V50.33h1.78V61.58h-1.61l-.09-.82a2.64,2.64,0,0,1-2.13,1,2.72,2.72,0,0,1-2.26-1.12A4.88,4.88,0,0,1,364,57.56Zm1.78.15a3.32,3.32,0,0,0,.47,1.89,1.5,1.5,0,0,0,1.32.67,1.68,1.68,0,0,0,1.6-1V55.92a1.66,1.66,0,0,0-1.58-1,1.52,1.52,0,0,0-1.34.69A3.67,3.67,0,0,0,365.77,57.71Z"/><path class="cls-5" d="M372.46,57.54a4.69,4.69,0,0,1,.46-2.1,3.35,3.35,0,0,1,1.3-1.43,3.57,3.57,0,0,1,1.92-.5,3.45,3.45,0,0,1,2.6,1,4,4,0,0,1,1.08,2.74v.42a4.72,4.72,0,0,1-.45,2.09,3.32,3.32,0,0,1-1.29,1.43,3.67,3.67,0,0,1-1.94.5,3.43,3.43,0,0,1-2.68-1.11,4.3,4.3,0,0,1-1-3Zm1.78.16a3.16,3.16,0,0,0,.51,1.91,1.76,1.76,0,0,0,2.8,0,3.5,3.5,0,0,0,.51-2.06,3.17,3.17,0,0,0-.52-1.9,1.73,1.73,0,0,0-2.79,0A3.47,3.47,0,0,0,374.24,57.7Z"/><path class="cls-5" d="M385.7,61.58V55h-1.21V53.65h1.21v-.72a2.72,2.72,0,0,1,.73-2,2.8,2.8,0,0,1,2.05-.72,4,4,0,0,1,1,.14l0,1.39a3.37,3.37,0,0,0-.68-.06A1.14,1.14,0,0,0,387.48,53v.7h1.61V55h-1.61v6.61Z"/><path class="cls-5" d="M393.7,61.72A3.67,3.67,0,0,1,391,60.66a3.87,3.87,0,0,1-1-2.84V57.6a4.82,4.82,0,0,1,.45-2.12A3.5,3.5,0,0,1,391.65,54a3.38,3.38,0,0,1,1.85-.52,3.12,3.12,0,0,1,2.5,1,4.41,4.41,0,0,1,.88,2.92v.72H391.7a2.33,2.33,0,0,0,.66,1.55,2,2,0,0,0,1.44.57,2.4,2.4,0,0,0,2-1l1,.92a3.16,3.16,0,0,1-1.27,1.1A4,4,0,0,1,393.7,61.72Zm-.21-6.79a1.47,1.47,0,0,0-1.18.52,2.53,2.53,0,0,0-.58,1.42h3.39v-.13a2.24,2.24,0,0,0-.47-1.35A1.52,1.52,0,0,0,393.49,54.93Zm.4-4.6h2l-2,2.22h-1.43Z"/><path class="cls-5" d="M402.41,55.28a4.4,4.4,0,0,0-.73-.06,1.62,1.62,0,0,0-1.64.94v5.42h-1.78V53.65H400l0,.89a2,2,0,0,1,1.79-1,1.67,1.67,0,0,1,.63.1Z"/><path class="cls-5" d="M402.94,57.54a4.69,4.69,0,0,1,.46-2.1A3.39,3.39,0,0,1,404.69,54a3.62,3.62,0,0,1,1.92-.5,3.47,3.47,0,0,1,2.61,1,4.12,4.12,0,0,1,1.08,2.74v.42a4.59,4.59,0,0,1-.46,2.09,3.36,3.36,0,0,1-1.28,1.43,3.67,3.67,0,0,1-1.94.5,3.47,3.47,0,0,1-2.69-1.11,4.3,4.3,0,0,1-1-3Zm1.78.16a3.23,3.23,0,0,0,.5,1.91,1.66,1.66,0,0,0,1.41.69,1.61,1.61,0,0,0,1.4-.7,3.5,3.5,0,0,0,.5-2.06,3.17,3.17,0,0,0-.51-1.9,1.67,1.67,0,0,0-1.41-.71,1.64,1.64,0,0,0-1.38.7A3.47,3.47,0,0,0,404.72,57.7Z"/><path class="cls-5" d="M414.49,59.32l1.68-5.67H418l-2.75,7.93h-1.54L411,53.65h1.84Z"/><path class="cls-5" d="M422.51,61.72a3.68,3.68,0,0,1-2.74-1.06,3.87,3.87,0,0,1-1-2.84V57.6a4.69,4.69,0,0,1,.46-2.12A3.41,3.41,0,0,1,420.46,54a3.38,3.38,0,0,1,1.85-.52,3.1,3.1,0,0,1,2.5,1,4.35,4.35,0,0,1,.88,2.92v.72h-5.18a2.43,2.43,0,0,0,.66,1.55,2,2,0,0,0,1.45.57,2.41,2.41,0,0,0,2-1l1,.92a3.23,3.23,0,0,1-1.27,1.1A4,4,0,0,1,422.51,61.72Zm-.21-6.79a1.47,1.47,0,0,0-1.18.52,2.68,2.68,0,0,0-.58,1.42h3.39v-.13a2.12,2.12,0,0,0-.47-1.35A1.52,1.52,0,0,0,422.3,54.93Zm.4-4.6h2l-2,2.22h-1.42Z"/><path class="cls-5" d="M428.83,54.52a2.75,2.75,0,0,1,2.2-1c1.69,0,2.55,1,2.57,2.89v5.18h-1.78V56.46a1.61,1.61,0,0,0-.35-1.16,1.5,1.5,0,0,0-1.05-.34,1.7,1.7,0,0,0-1.59,1v5.66h-1.78V50.33h1.78Z"/><path class="cls-5" d="M435.07,57.54a4.69,4.69,0,0,1,.46-2.1,3.35,3.35,0,0,1,1.3-1.43,3.57,3.57,0,0,1,1.92-.5,3.47,3.47,0,0,1,2.6,1,4.12,4.12,0,0,1,1.08,2.74v.42a4.72,4.72,0,0,1-.45,2.09,3.32,3.32,0,0,1-1.29,1.43,3.67,3.67,0,0,1-1.94.5,3.43,3.43,0,0,1-2.68-1.11,4.26,4.26,0,0,1-1-3Zm1.78.16a3.23,3.23,0,0,0,.5,1.91,1.66,1.66,0,0,0,1.41.69,1.61,1.61,0,0,0,1.4-.7,3.5,3.5,0,0,0,.5-2.06,3.17,3.17,0,0,0-.51-1.9,1.67,1.67,0,0,0-1.4-.71,1.64,1.64,0,0,0-1.39.7A3.47,3.47,0,0,0,436.85,57.7Z"/><path class="cls-5" d="M454.62,57.7a4.7,4.7,0,0,1-.84,2.93,2.91,2.91,0,0,1-4.33.24v3.75h-1.78v-11h1.64l.08.81a2.59,2.59,0,0,1,2.13-1,2.69,2.69,0,0,1,2.27,1.08,4.84,4.84,0,0,1,.83,3Zm-1.78-.16a3.25,3.25,0,0,0-.47-1.88A1.54,1.54,0,0,0,451,55a1.64,1.64,0,0,0-1.57.9v3.52a1.64,1.64,0,0,0,1.58.92,1.54,1.54,0,0,0,1.33-.68A3.65,3.65,0,0,0,452.84,57.54Z"/><path class="cls-5" d="M455.79,57.54a4.69,4.69,0,0,1,.46-2.1,3.35,3.35,0,0,1,1.3-1.43,3.57,3.57,0,0,1,1.92-.5,3.47,3.47,0,0,1,2.6,1,4,4,0,0,1,1.08,2.74v.42a4.72,4.72,0,0,1-.45,2.09,3.32,3.32,0,0,1-1.29,1.43,3.67,3.67,0,0,1-1.94.5,3.43,3.43,0,0,1-2.68-1.11,4.26,4.26,0,0,1-1-3Zm1.78.16a3.23,3.23,0,0,0,.5,1.91,1.66,1.66,0,0,0,1.41.69,1.61,1.61,0,0,0,1.4-.7,3.5,3.5,0,0,0,.5-2.06,3.17,3.17,0,0,0-.51-1.9,1.73,1.73,0,0,0-2.79,0A3.47,3.47,0,0,0,457.57,57.7Z"/><path class="cls-5" d="M464.33,57.56a4.69,4.69,0,0,1,.85-2.94,2.7,2.7,0,0,1,2.27-1.11,2.61,2.61,0,0,1,2,.87V50.33h1.78V61.58h-1.61l-.09-.82a2.62,2.62,0,0,1-2.13,1,2.69,2.69,0,0,1-2.25-1.12A4.82,4.82,0,0,1,464.33,57.56Zm1.78.15a3.32,3.32,0,0,0,.46,1.89,1.5,1.5,0,0,0,1.32.67,1.68,1.68,0,0,0,1.6-1V55.92a1.65,1.65,0,0,0-1.58-1,1.5,1.5,0,0,0-1.33.69A3.59,3.59,0,0,0,466.11,57.71Z"/><path class="cls-5" d="M475,61.58h-1.78V53.65H475Zm-.33-11.2h2l-2,2.22h-1.43Z"/><path class="cls-5" d="M479,61.58h-1.78V50.33H479Z"/><path class="cls-5" d="M485.7,60.8a2.74,2.74,0,0,1-2.23.92,2.46,2.46,0,0,1-2-.75,3.21,3.21,0,0,1-.66-2.18V53.65h1.78v5.11c0,1,.42,1.51,1.25,1.51a1.76,1.76,0,0,0,1.75-.93V53.65h1.78v7.93h-1.68Z"/><path d="M9.58,22.14l-.74,1.2v3.84H6.18V13.88H8.84V19l.68-1.48,1.86-3.61h3.08l-3.38,5.81L15,27.18H12Z"/><path d="M24.59,24.61v2.57H17.94V13.88h2.7V24.61Z"/><path d="M27.78,13.88h2.7v13.3h-2.7Z"/><path d="M46.17,13.88v13.3H43.53V23.91c.08-1.62.13-3.23.21-4.85l-.1,0-1.19,3.49-.67,1.81H39.12l-.66-1.81L37.26,19l-.09,0c0,1.62.13,3.23.19,4.85v3.27H34.73V13.88h2.72l2.09,5c.27.67.72,1.83.87,2.32h.08c.15-.49.61-1.65.87-2.32l2.09-5Z"/><path d="M55.35,25H52.54l-.44,2.21H49.31l3.19-13.3h2.89l3.19,13.3H55.79Zm-.53-2.56-.31-1.52c-.17-.95-.4-2.57-.53-3.65H53.9c-.13,1.08-.34,2.7-.53,3.65l-.3,1.52Z"/><path d="M68,16.44h-2.6V27.18H62.66V16.44h-2.6V13.88h8Z"/><path d="M71.21,13.88h2.7v13.3h-2.7Z"/><path d="M77.79,23.11V17.94c0-2.81,1.52-4.33,4.12-4.33s4.14,1.52,4.24,4.33h-2.7c-.08-1.21-.53-1.71-1.56-1.71-.82,0-1.29.54-1.29,1.71v5.17c0,1.14.46,1.67,1.29,1.67,1,0,1.52-.49,1.6-1.67h2.69c-.05,2.79-1.59,4.29-4.29,4.29S77.79,25.9,77.79,23.11Z"/><path d="M93,22.14l-.74,1.2v3.84H89.64V13.88H92.3V19L93,17.49l1.86-3.61h3.08l-3.38,5.81,4,7.49h-3Z"/><path d="M108.45,24.61v2.57h-7V13.88h6.86v2.56H104.1V19.2h3.78v2.47H104.1v2.94Zm-3.06-12h-1.78l1.78-2.6h2.15Z"/><path d="M120.59,16.44V19.2h3.5v2.47h-3.5v5.51H117.9V13.88h6.57v2.56Z"/><path d="M128,13.88h2.69v13.3H128Z"/><path d="M134.94,13.88h2.66l2.53,5.77c.32.84.62,1.71,1,2.55l0-.06a45.44,45.44,0,0,1-.38-5.18V13.88h2.66v13.3h-2.66L138.51,22l-1.2-3.25-.05.06a53.69,53.69,0,0,1,.34,5.64v2.7h-2.66Z"/><path d="M152.59,25h-2.81l-.44,2.21h-2.79l3.19-13.3h2.89l3.19,13.3H153Zm-.53-2.56-.31-1.52c-.17-.95-.4-2.57-.53-3.65h-.07c-.14,1.08-.35,2.7-.54,3.65l-.3,1.52Z"/><path d="M159,13.88h2.66l2.52,5.77c.33.84.63,1.71,1,2.55l.06-.06a45.44,45.44,0,0,1-.38-5.18V13.88h2.66v13.3h-2.66L162.53,22l-1.2-3.25-.06.06a53.8,53.8,0,0,1,.35,5.64v2.7H159Z"/><path d="M171.31,23.11V17.94c0-2.81,1.51-4.33,4.12-4.33s4.14,1.52,4.23,4.33H177c-.08-1.21-.54-1.71-1.56-1.71-.82,0-1.29.54-1.29,1.71v5.17c0,1.14.45,1.67,1.29,1.67,1,0,1.52-.49,1.59-1.67h2.7c-.06,2.79-1.59,4.29-4.29,4.29S171.31,25.9,171.31,23.11Z"/><path d="M190.21,24.61v2.57h-7.05V13.88H190v2.56h-4.16V19.2h3.78v2.47h-3.78v2.94Z"/><path d="M198.53,13.88h2.79l1.2,6.29c.19,1,.42,2.6.55,3.7h.08c.13-1.1.36-2.73.55-3.7l1.2-6.29h2.79l-3.15,13.3h-2.85Z"/><path d="M220.17,22.71h-.95v4.47h-2.7V13.88h3.86c2.64,0,4.2,1.63,4.2,4.42a4.2,4.2,0,0,1-1.84,3.84l2.5,5H222.3Zm-.95-2.56h1.12c.95,0,1.47-.65,1.47-1.85s-.52-1.86-1.47-1.86h-1.12Z"/><path d="M228,22.86V18.19c0-2.85,1.61-4.54,4.31-4.54s4.31,1.69,4.31,4.54v4.67c0,2.85-1.61,4.54-4.31,4.54S228,25.71,228,22.86Zm5.83,0V18.19c0-1.25-.51-1.92-1.52-1.92s-1.52.67-1.52,1.92v4.67c0,1.26.51,1.92,1.52,1.92S233.87,24.12,233.87,22.86Z"/><path d="M240.16,23.11V17.94c0-2.81,1.52-4.33,4.12-4.33s4.14,1.52,4.24,4.33h-2.7c-.07-1.21-.53-1.71-1.56-1.71-.81,0-1.29.54-1.29,1.71v5.17c0,1.14.46,1.67,1.29,1.67,1.05,0,1.52-.49,1.6-1.67h2.7c-.06,2.79-1.6,4.29-4.3,4.29S240.16,25.9,240.16,23.11Z"/><path d="M259.06,24.61v2.57h-7V13.88h6.85v2.56h-4.16V19.2h3.78v2.47h-3.78v2.94Z"/><path d="M267.77,25.58c0-4.22,4.75-6.12,4.75-8.34a1.05,1.05,0,0,0-1-1.16c-.68,0-1.1.5-1.14,1.39H267.9c.11-2.53,1.39-3.82,3.53-3.82a3.39,3.39,0,0,1,3.65,3.46c0,3.4-4.6,5.66-4.6,7.67h4.66v2.4h-7.37Z"/><path d="M278.37,23.36V17.73c0-2.54,1.42-4,3.82-4s3.83,1.5,3.83,4v5.63c0,2.52-1.42,4-3.83,4S278.37,25.88,278.37,23.36Zm5.15,0V17.75c0-1.08-.46-1.65-1.33-1.65s-1.31.57-1.31,1.65v5.63c0,1.06.43,1.61,1.31,1.61S283.52,24.44,283.52,23.38Z"/><path d="M293.55,13.88v13.3H291V17.32l-1.82,1V15.59l2.77-1.71Z"/><path d="M304.85,22.88v.61a3.78,3.78,0,1,1-7.56,0v-.61a3.4,3.4,0,0,1,1.26-2.69,3.72,3.72,0,0,1-1-2.49v-.4a3.56,3.56,0,1,1,7.11,0v.4a3.64,3.64,0,0,1-1.05,2.47A3.38,3.38,0,0,1,304.85,22.88Zm-2.56,0c0-1-.42-1.38-1.22-1.38s-1.21.41-1.21,1.38v.57c0,1,.42,1.41,1.21,1.41s1.22-.42,1.22-1.41Zm-2.24-5.13c0,.93.36,1.35,1,1.35s1-.42,1-1.35v-.36c0-.91-.36-1.27-1-1.27s-1,.36-1,1.27Z"/><line class="cls-6" x1="243.25" y1="394.66" x2="243.25" y2="89.88"/><line class="cls-6" x1="322.98" y1="394.66" x2="322.98" y2="89.88"/><line class="cls-6" x1="402.72" y1="394.66" x2="402.72" y2="89.88"/><line class="cls-6" x1="482.45" y1="394.66" x2="482.45" y2="89.88"/><line class="cls-6" x1="562.19" y1="394.66" x2="562.19" y2="89.88"/><line class="cls-6" x1="641.92" y1="394.66" x2="641.92" y2="89.88"/><line class="cls-6" x1="163.51" y1="394.66" x2="163.51" y2="89.88"/><path d="M132.37,95.81v7.28a3.67,3.67,0,0,1-.47,1.88,3.06,3.06,0,0,1-1.32,1.22,4.28,4.28,0,0,1-2,.43,3.81,3.81,0,0,1-2.7-.92,3.33,3.33,0,0,1-1-2.54V95.81h.89V103a2.79,2.79,0,0,0,.77,2.09,2.9,2.9,0,0,0,2.09.74,2.84,2.84,0,0,0,2.08-.75,2.76,2.76,0,0,0,.77-2.08V95.81Z"/><path d="M140.92,103.85a1.74,1.74,0,0,0-.62-1.4,6.76,6.76,0,0,0-2.28-1,8.25,8.25,0,0,1-2.42-1,2.47,2.47,0,0,1-.07-4,4.13,4.13,0,0,1,2.57-.76,4.18,4.18,0,0,1,1.9.41,3,3,0,0,1,1.3,1.14,3,3,0,0,1,.46,1.63h-.9a2.25,2.25,0,0,0-.75-1.76,2.93,2.93,0,0,0-2-.66,3.15,3.15,0,0,0-1.95.55,1.69,1.69,0,0,0-.72,1.42,1.63,1.63,0,0,0,.65,1.33,6.19,6.19,0,0,0,2.09.91,9.8,9.8,0,0,1,2.17.81,3.08,3.08,0,0,1,1.12,1,2.58,2.58,0,0,1,.37,1.38,2.42,2.42,0,0,1-1,2,4.25,4.25,0,0,1-2.65.76,5.2,5.2,0,0,1-2.07-.4,3.15,3.15,0,0,1-1.43-1.13,2.92,2.92,0,0,1-.49-1.66h.9a2.14,2.14,0,0,0,.85,1.78,3.53,3.53,0,0,0,2.24.65,3.31,3.31,0,0,0,2-.55A1.71,1.71,0,0,0,140.92,103.85Z"/><path d="M149.53,103.48h-4.84l-1.1,3h-1l4-10.67h.86l4,10.67h-.94Zm-4.57-.76h4.28l-2.14-5.81Z"/><path d="M166.79,414.45a5.91,5.91,0,0,1-.83,3.42,3.13,3.13,0,0,1-4.86,0,5.7,5.7,0,0,1-.87-3.33v-1.92a5.76,5.76,0,0,1,.84-3.4,3.15,3.15,0,0,1,4.85,0,5.54,5.54,0,0,1,.87,3.29Zm-.88-1.92a5.14,5.14,0,0,0-.6-2.76,2.2,2.2,0,0,0-3.59,0,5,5,0,0,0-.62,2.71v2.09a5.2,5.2,0,0,0,.62,2.79,2,2,0,0,0,1.8,1,2,2,0,0,0,1.78-.95,5.29,5.29,0,0,0,.61-2.77Z"/><path d="M240.69,413.43l.52-5.2h5.33V409H242l-.37,3.6a3.46,3.46,0,0,1,2-.58,3,3,0,0,1,2.3.93,3.58,3.58,0,0,1,.86,2.5,3.77,3.77,0,0,1-.84,2.62,3,3,0,0,1-2.35.93,3.23,3.23,0,0,1-2.25-.78,3.14,3.14,0,0,1-1-2.17h.84a2.55,2.55,0,0,0,.74,1.65,2.4,2.4,0,0,0,1.66.56,2.07,2.07,0,0,0,1.73-.73,3.2,3.2,0,0,0,.58-2.06,2.8,2.8,0,0,0-.65-1.91,2.24,2.24,0,0,0-1.78-.74,3.43,3.43,0,0,0-1.08.15,2.94,2.94,0,0,0-1,.62Z"/><path d="M319.75,418.89h-.88v-9.61l-2.9,1.08v-.82l3.63-1.35h.15Z"/><path d="M330.41,414.45a5.92,5.92,0,0,1-.82,3.42,3.14,3.14,0,0,1-4.87,0,5.63,5.63,0,0,1-.86-3.33v-1.92a5.84,5.84,0,0,1,.83-3.4,3.16,3.16,0,0,1,4.86,0,5.55,5.55,0,0,1,.86,3.29Zm-.87-1.92a5.14,5.14,0,0,0-.6-2.76,2.2,2.2,0,0,0-3.59,0,5,5,0,0,0-.62,2.71v2.09a5.2,5.2,0,0,0,.62,2.79,2,2,0,0,0,1.8,1,2,2,0,0,0,1.77-.95,5.19,5.19,0,0,0,.62-2.77Z"/><path d="M399.49,418.89h-.88v-9.61l-2.9,1.08v-.82l3.63-1.35h.15Z"/><path d="M404.31,413.43l.52-5.2h5.33V409h-4.57l-.38,3.6a3.47,3.47,0,0,1,2-.58,3,3,0,0,1,2.3.93,3.58,3.58,0,0,1,.86,2.5,3.77,3.77,0,0,1-.84,2.62,3,3,0,0,1-2.35.93,3.25,3.25,0,0,1-2.26-.78,3.18,3.18,0,0,1-1-2.17h.84a2.55,2.55,0,0,0,.74,1.65,2.38,2.38,0,0,0,1.66.56,2,2,0,0,0,1.72-.73,3.2,3.2,0,0,0,.59-2.06,2.8,2.8,0,0,0-.65-1.91,2.24,2.24,0,0,0-1.78-.74A3.54,3.54,0,0,0,406,413a2.91,2.91,0,0,0-1,.62Z"/><path d="M481.82,418.89h-6.68v-.67l3.66-4.15a10,10,0,0,0,1.26-1.73,2.9,2.9,0,0,0,.35-1.32,2.13,2.13,0,0,0-.6-1.6,2.18,2.18,0,0,0-1.63-.59,2.3,2.3,0,0,0-1.74.69,2.46,2.46,0,0,0-.66,1.78h-.87a3.37,3.37,0,0,1,.4-1.64,2.94,2.94,0,0,1,1.16-1.16,3.44,3.44,0,0,1,1.71-.42,3.24,3.24,0,0,1,2.29.77,2.71,2.71,0,0,1,.82,2.09,3.56,3.56,0,0,1-.46,1.64,12.14,12.14,0,0,1-1.64,2.21l-3,3.36h5.6Z"/><path d="M489.88,414.45a5.92,5.92,0,0,1-.82,3.42,3.14,3.14,0,0,1-4.87,0,5.63,5.63,0,0,1-.86-3.33v-1.92a5.84,5.84,0,0,1,.83-3.4,3.16,3.16,0,0,1,4.86,0,5.55,5.55,0,0,1,.86,3.29Zm-.88-1.92a5.15,5.15,0,0,0-.59-2.76,2.2,2.2,0,0,0-3.59,0,5,5,0,0,0-.62,2.71v2.09a5.2,5.2,0,0,0,.62,2.79,2,2,0,0,0,1.8,1,2,2,0,0,0,1.77-.95,5.1,5.1,0,0,0,.61-2.77Z"/><path d="M561.56,418.89h-6.68v-.67l3.65-4.15a9,9,0,0,0,1.26-1.73,2.78,2.78,0,0,0,.35-1.32,2.12,2.12,0,0,0-.59-1.6,2.19,2.19,0,0,0-1.63-.59,2.3,2.3,0,0,0-1.74.69,2.43,2.43,0,0,0-.67,1.78h-.87a3.38,3.38,0,0,1,.41-1.64,2.92,2.92,0,0,1,1.15-1.16,3.48,3.48,0,0,1,1.72-.42,3.23,3.23,0,0,1,2.28.77,2.72,2.72,0,0,1,.83,2.09,3.58,3.58,0,0,1-.47,1.64,12,12,0,0,1-1.63,2.21l-3,3.36h5.61Z"/><path d="M563.78,413.43l.52-5.2h5.33V409h-4.57l-.38,3.6a3.47,3.47,0,0,1,2-.58,3,3,0,0,1,2.3.93,3.58,3.58,0,0,1,.86,2.5,3.77,3.77,0,0,1-.84,2.62,3,3,0,0,1-2.35.93,3.25,3.25,0,0,1-2.26-.78,3.18,3.18,0,0,1-1-2.17h.84a2.55,2.55,0,0,0,.74,1.65,2.38,2.38,0,0,0,1.66.56,2,2,0,0,0,1.72-.73,3.2,3.2,0,0,0,.59-2.06,2.8,2.8,0,0,0-.65-1.91,2.24,2.24,0,0,0-1.78-.74,3.54,3.54,0,0,0-1.09.15,2.91,2.91,0,0,0-1,.62Z"/><path d="M636.56,413.08h.91a3.2,3.2,0,0,0,1.32-.26,2.09,2.09,0,0,0,.86-.74,2,2,0,0,0,.29-1.07,2.14,2.14,0,0,0-.58-1.6,2.22,2.22,0,0,0-1.66-.58,2.4,2.4,0,0,0-1.68.6,2.05,2.05,0,0,0-.65,1.59h-.88a2.83,2.83,0,0,1,.41-1.51,2.9,2.9,0,0,1,1.16-1.06,3.69,3.69,0,0,1,1.64-.37,3.19,3.19,0,0,1,2.29.79,2.87,2.87,0,0,1,.83,2.17,2.31,2.31,0,0,1-.49,1.42,3,3,0,0,1-1.33,1,2.76,2.76,0,0,1,1.51.95A2.61,2.61,0,0,1,641,416a2.88,2.88,0,0,1-.89,2.2,3.37,3.37,0,0,1-2.39.84,4,4,0,0,1-1.75-.38,2.81,2.81,0,0,1-1.66-2.66h.87a2.15,2.15,0,0,0,.71,1.66,2.68,2.68,0,0,0,1.83.64,2.57,2.57,0,0,0,1.77-.58,2.19,2.19,0,0,0,.63-1.69,2,2,0,0,0-.68-1.64,3.16,3.16,0,0,0-2-.56h-.88Z"/><path d="M649.35,414.45a5.92,5.92,0,0,1-.82,3.42,3.14,3.14,0,0,1-4.87,0,5.63,5.63,0,0,1-.86-3.33v-1.92a5.84,5.84,0,0,1,.83-3.4,3.16,3.16,0,0,1,4.86,0,5.55,5.55,0,0,1,.86,3.29Zm-.88-1.92a5.15,5.15,0,0,0-.59-2.76,2.2,2.2,0,0,0-3.59,0,5,5,0,0,0-.62,2.71v2.09a5.2,5.2,0,0,0,.62,2.79,2,2,0,0,0,1.8,1,2,2,0,0,0,1.77-.95,5.1,5.1,0,0,0,.61-2.77Z"/><path d="M655.82,411l0,1.29a2.92,2.92,0,0,1,1.1-1.08,3,3,0,0,1,1.46-.36,2.21,2.21,0,0,1,2.38,1.54,3,3,0,0,1,1.14-1.14,3.11,3.11,0,0,1,1.57-.4c1.7,0,2.56.93,2.6,2.78v5.29h-.88v-5.22a2.42,2.42,0,0,0-.46-1.58,1.87,1.87,0,0,0-1.47-.51,2.35,2.35,0,0,0-1.59.61,2.17,2.17,0,0,0-.73,1.46v5.24h-.88V413.6a2.13,2.13,0,0,0-.48-1.52,1.92,1.92,0,0,0-1.45-.5,2.23,2.23,0,0,0-1.42.47,2.78,2.78,0,0,0-.88,1.41v5.43H655V411Z"/><path d="M669.3,418.89h-.88V407.64h.88Z"/><path d="M671.33,414.86a4.82,4.82,0,0,1,.82-2.95,2.68,2.68,0,0,1,2.24-1.09,2.73,2.73,0,0,1,2.44,1.27v-4.45h.88v11.25h-.82l0-1.05a2.84,2.84,0,0,1-2.48,1.2,2.63,2.63,0,0,1-2.2-1.1,4.81,4.81,0,0,1-.84-3Zm.88.15a4.16,4.16,0,0,0,.61,2.39,2,2,0,0,0,1.72.88,2.35,2.35,0,0,0,2.29-1.43v-3.72a2.34,2.34,0,0,0-2.28-1.55,2,2,0,0,0-1.72.87A4.41,4.41,0,0,0,672.21,415Z"/><path d="M679.93,418.36a.61.61,0,0,1,.17-.43.59.59,0,0,1,.46-.18.6.6,0,0,1,.63.61.56.56,0,0,1-.17.42.61.61,0,0,1-.46.17.58.58,0,0,1-.46-.17A.56.56,0,0,1,679.93,418.36Z"/><path d="M694.79,408.23v7.28a3.63,3.63,0,0,1-.47,1.87,3.26,3.26,0,0,1-1.32,1.23,4.28,4.28,0,0,1-2,.43,3.86,3.86,0,0,1-2.7-.92,3.34,3.34,0,0,1-1.05-2.55v-7.34h.89v7.21a2.77,2.77,0,0,0,.77,2.09,3.27,3.27,0,0,0,4.17,0,2.77,2.77,0,0,0,.76-2.08v-7.22Z"/><path d="M703.34,416.27a1.73,1.73,0,0,0-.62-1.4,6.37,6.37,0,0,0-2.28-1,8.22,8.22,0,0,1-2.42-1,2.46,2.46,0,0,1-.07-4,4.13,4.13,0,0,1,2.57-.77,4.31,4.31,0,0,1,1.9.41,3.15,3.15,0,0,1,1.3,1.14,3,3,0,0,1,.46,1.64h-.9a2.23,2.23,0,0,0-.75-1.76,2.89,2.89,0,0,0-2-.67,3.15,3.15,0,0,0-1.95.55,1.71,1.71,0,0,0-.72,1.43,1.61,1.61,0,0,0,.65,1.32,5.82,5.82,0,0,0,2.09.91,9.8,9.8,0,0,1,2.17.81,3.08,3.08,0,0,1,1.12,1,2.58,2.58,0,0,1,.37,1.38,2.43,2.43,0,0,1-1,2,4.32,4.32,0,0,1-2.65.76,5.38,5.38,0,0,1-2.07-.4,3.16,3.16,0,0,1-1.43-1.13,3,3,0,0,1-.49-1.67h.9a2.12,2.12,0,0,0,.85,1.78,3.53,3.53,0,0,0,2.24.66,3.38,3.38,0,0,0,2-.55A1.74,1.74,0,0,0,703.34,416.27Z"/><path d="M706.19,418.89V408.23h3a4.71,4.71,0,0,1,2.35.59,4.05,4.05,0,0,1,1.62,1.71,5.41,5.41,0,0,1,.59,2.54v1a5.42,5.42,0,0,1-.58,2.53,4.14,4.14,0,0,1-1.63,1.71,4.79,4.79,0,0,1-2.41.6Zm.9-9.9v9.14h2a3.47,3.47,0,0,0,2.71-1.12,4.34,4.34,0,0,0,1-3v-.94a4.22,4.22,0,0,0-1-2.95,3.39,3.39,0,0,0-2.64-1.11Z"/><path d="M93.26,134.86h.91v7.49a3.32,3.32,0,0,1-.87,2.42,3.14,3.14,0,0,1-2.35.9,3.29,3.29,0,0,1-2.39-.81,3,3,0,0,1-.83-2.27h.9a2.29,2.29,0,0,0,.61,1.74,2.35,2.35,0,0,0,1.71.58,2.19,2.19,0,0,0,1.66-.67,2.59,2.59,0,0,0,.65-1.83Z"/><path d="M101.61,145.53a3.91,3.91,0,0,1-.17-1.11,3.1,3.1,0,0,1-1.18.93,3.69,3.69,0,0,1-1.51.32A2.68,2.68,0,0,1,96.9,145a2.21,2.21,0,0,1,.26-3.45,4.6,4.6,0,0,1,2.68-.67h1.59V140a1.74,1.74,0,0,0-.52-1.34,2.2,2.2,0,0,0-1.53-.49,2.42,2.42,0,0,0-1.52.47,1.41,1.41,0,0,0-.6,1.13h-.88a2,2,0,0,1,.88-1.63,3.41,3.41,0,0,1,2.16-.69,3.08,3.08,0,0,1,2.09.66,2.37,2.37,0,0,1,.79,1.85v3.75a4.69,4.69,0,0,0,.24,1.72v.09Zm-2.76-.63a3,3,0,0,0,1.57-.43,2.5,2.5,0,0,0,1-1.13v-1.75H99.86a3.93,3.93,0,0,0-2,.48,1.45,1.45,0,0,0-.74,1.28,1.43,1.43,0,0,0,.5,1.11A1.86,1.86,0,0,0,98.85,144.9Z"/><path d="M111,141.64a4.73,4.73,0,0,1-.82,2.94,2.61,2.61,0,0,1-2.2,1.09,3,3,0,0,1-2.49-1.14v4h-.87v-11h.81l0,1.12a2.82,2.82,0,0,1,2.48-1.26,2.62,2.62,0,0,1,2.23,1.07,4.89,4.89,0,0,1,.81,3Zm-.88-.15a4.09,4.09,0,0,0-.62-2.39,2,2,0,0,0-1.74-.88,2.3,2.3,0,0,0-2.27,1.51v3.8a2.3,2.3,0,0,0,.9,1,2.59,2.59,0,0,0,1.39.36,2,2,0,0,0,1.72-.88A4.46,4.46,0,0,0,110.13,141.49Z"/><path d="M112.47,141.45a4.72,4.72,0,0,1,.44-2.06,3.42,3.42,0,0,1,1.25-1.43,3.37,3.37,0,0,1,1.84-.5,3.28,3.28,0,0,1,2.56,1.1,4.26,4.26,0,0,1,1,2.94v.19a4.66,4.66,0,0,1-.44,2.07,3.31,3.31,0,0,1-1.25,1.41,3.37,3.37,0,0,1-1.84.5,3.27,3.27,0,0,1-2.56-1.11,4.3,4.3,0,0,1-1-2.94Zm.88.24a3.59,3.59,0,0,0,.73,2.33,2.5,2.5,0,0,0,3.86,0,3.71,3.71,0,0,0,.73-2.4v-.17a4,4,0,0,0-.34-1.67,2.66,2.66,0,0,0-.94-1.16,2.4,2.4,0,0,0-1.39-.42,2.34,2.34,0,0,0-1.91.92,3.69,3.69,0,0,0-.74,2.41Z"/><path d="M122.19,137.6l0,1.36a3.06,3.06,0,0,1,1.11-1.12,2.83,2.83,0,0,1,1.47-.38,2.38,2.38,0,0,1,1.9.71,3.31,3.31,0,0,1,.63,2.16v5.2h-.87v-5.21a2.46,2.46,0,0,0-.45-1.58,1.77,1.77,0,0,0-1.42-.52,2.23,2.23,0,0,0-1.44.51,2.94,2.94,0,0,0-.93,1.37v5.43h-.87V137.6Z"/><path d="M134.34,143.51a1.27,1.27,0,0,0-.53-1,4.1,4.1,0,0,0-1.57-.61,6.75,6.75,0,0,1-1.64-.52,2.15,2.15,0,0,1-.87-.7,1.93,1.93,0,0,1,.51-2.56,3.14,3.14,0,0,1,2-.61,3.23,3.23,0,0,1,2.13.65,2.09,2.09,0,0,1,.8,1.71h-.88a1.43,1.43,0,0,0-.58-1.16,2.35,2.35,0,0,0-1.47-.46,2.24,2.24,0,0,0-1.38.39,1.18,1.18,0,0,0-.53,1,1.1,1.1,0,0,0,.44.92,4.77,4.77,0,0,0,1.59.59,7.51,7.51,0,0,1,1.72.58,2.27,2.27,0,0,1,.86.74,2,2,0,0,1,.28,1.05,1.89,1.89,0,0,1-.81,1.6,4.06,4.06,0,0,1-4.36-.07,2.06,2.06,0,0,1-.86-1.69h.88a1.49,1.49,0,0,0,.65,1.19,2.59,2.59,0,0,0,1.57.43,2.47,2.47,0,0,0,1.48-.4A1.21,1.21,0,0,0,134.34,143.51Z"/><path d="M139.07,141.53l-1,1v3h-.88V134.28h.88v7.2l.82-.9,3-3H143l-3.36,3.34,3.65,4.59h-1Z"/><path d="M144.05,141.45a4.72,4.72,0,0,1,.44-2.06,3.44,3.44,0,0,1,1.26-1.43,3.36,3.36,0,0,1,1.83-.5,3.28,3.28,0,0,1,2.56,1.1,4.26,4.26,0,0,1,1,2.94v.19a4.66,4.66,0,0,1-.44,2.07,3.24,3.24,0,0,1-1.25,1.41,3.34,3.34,0,0,1-1.84.5,3.23,3.23,0,0,1-2.55-1.11,4.25,4.25,0,0,1-1-2.94Zm.88.24a3.59,3.59,0,0,0,.73,2.33,2.37,2.37,0,0,0,1.93.91,2.35,2.35,0,0,0,1.93-.91,3.71,3.71,0,0,0,.73-2.4v-.17a4.15,4.15,0,0,0-.33-1.67,2.68,2.68,0,0,0-.95-1.16,2.38,2.38,0,0,0-1.39-.42,2.34,2.34,0,0,0-1.91.92,3.69,3.69,0,0,0-.74,2.41Z"/><path d="M122.92,301.72H122V291.06h.9Z"/><path d="M127,291.77v2h1.64v.72H127v5.28a1.68,1.68,0,0,0,.24,1,.93.93,0,0,0,.79.32,7.1,7.1,0,0,0,.71-.07l0,.71a2.94,2.94,0,0,1-.94.12,1.55,1.55,0,0,1-1.31-.52,2.5,2.5,0,0,1-.41-1.54v-5.29h-1.46v-.72h1.46v-2Z"/><path d="M135.43,301.72a3.77,3.77,0,0,1-.17-1.1,3,3,0,0,1-1.18.92,3.54,3.54,0,0,1-1.51.33,2.64,2.64,0,0,1-1.85-.64,2.06,2.06,0,0,1-.7-1.61,2.12,2.12,0,0,1,1-1.83,4.62,4.62,0,0,1,2.68-.67h1.59v-.9a1.74,1.74,0,0,0-.52-1.34,2.2,2.2,0,0,0-1.53-.49,2.39,2.39,0,0,0-1.51.47,1.4,1.4,0,0,0-.61,1.13h-.87a2,2,0,0,1,.87-1.63,3.36,3.36,0,0,1,2.17-.7,3.05,3.05,0,0,1,2.09.67,2.34,2.34,0,0,1,.78,1.85v3.75a4.46,4.46,0,0,0,.25,1.72v.08Zm-2.76-.63a3,3,0,0,0,1.58-.42,2.48,2.48,0,0,0,1-1.13v-1.75h-1.56a4,4,0,0,0-2.06.48,1.48,1.48,0,0,0-.24,2.39A1.87,1.87,0,0,0,132.67,301.09Zm1.73-10.62h1.06l-1.69,2.06H133Z"/><path d="M139.44,301.72h-.88V290.47h.88Z"/><path d="M141.77,291.51a.57.57,0,0,1,.6-.59.59.59,0,0,1,.44.17.61.61,0,0,1,.17.42.59.59,0,0,1-.17.42.58.58,0,0,1-.44.16.6.6,0,0,1-.44-.16A.58.58,0,0,1,141.77,291.51Zm1,10.21h-.88V293.8h.88Z"/><path d="M148.25,301.87a3.41,3.41,0,0,1-3.09-1.88,4.27,4.27,0,0,1-.46-2v-.32a4.71,4.71,0,0,1,.44-2.05,3.56,3.56,0,0,1,1.24-1.44,3.05,3.05,0,0,1,1.71-.53,2.85,2.85,0,0,1,2.29,1,4,4,0,0,1,.85,2.69v.49h-5.66V298a3.27,3.27,0,0,0,.78,2.24,2.44,2.44,0,0,0,1.94.9,2.72,2.72,0,0,0,1.24-.26,2.68,2.68,0,0,0,1-.82l.55.42A3.19,3.19,0,0,1,148.25,301.87Zm-.16-7.47a2.18,2.18,0,0,0-1.66.72,3.36,3.36,0,0,0-.83,1.95h4.76V297a3,3,0,0,0-.66-1.86A2,2,0,0,0,148.09,294.4Z"/><path d="M91.25,338.15a1.73,1.73,0,0,0-.62-1.4,6.76,6.76,0,0,0-2.28-1,8,8,0,0,1-2.42-1,2.46,2.46,0,0,1-.08-4,4.16,4.16,0,0,1,2.58-.77,4.31,4.31,0,0,1,1.9.41,3.17,3.17,0,0,1,1.3,1.15,3,3,0,0,1,.46,1.63h-.91a2.26,2.26,0,0,0-.74-1.76,2.93,2.93,0,0,0-2-.66,3.18,3.18,0,0,0-2,.54,1.72,1.72,0,0,0-.72,1.43,1.62,1.62,0,0,0,.65,1.33,6,6,0,0,0,2.09.9,9.74,9.74,0,0,1,2.17.82,3.11,3.11,0,0,1,1.11,1,2.54,2.54,0,0,1,.38,1.39,2.42,2.42,0,0,1-1,2,4.27,4.27,0,0,1-2.65.76,5.13,5.13,0,0,1-2.07-.4A3.16,3.16,0,0,1,85,339.39a2.87,2.87,0,0,1-.49-1.66h.9a2.14,2.14,0,0,0,.84,1.78,3.62,3.62,0,0,0,2.25.65,3.31,3.31,0,0,0,2-.55A1.72,1.72,0,0,0,91.25,338.15Zm-2.8-9.5,1.26-1.43h.79v.09l-1.73,1.91h-.63l-1.73-1.91v-.09h.78Z"/><path d="M100.26,336.89a4.73,4.73,0,0,1-.82,2.94,2.59,2.59,0,0,1-2.19,1.09,2.92,2.92,0,0,1-2.49-1.14v4h-.88v-11h.82l0,1.12a2.82,2.82,0,0,1,2.48-1.27,2.62,2.62,0,0,1,2.23,1.08,4.81,4.81,0,0,1,.81,3Zm-.87-.15a4.07,4.07,0,0,0-.63-2.4,2,2,0,0,0-1.73-.88A2.3,2.3,0,0,0,94.76,335v3.8a2.3,2.3,0,0,0,.9,1,2.58,2.58,0,0,0,1.38.36,2,2,0,0,0,1.73-.88A4.46,4.46,0,0,0,99.39,336.74Z"/><path d="M107.21,340.77a3.77,3.77,0,0,1-.17-1.1,3,3,0,0,1-1.18.92,3.54,3.54,0,0,1-1.51.33,2.64,2.64,0,0,1-1.85-.64,2.06,2.06,0,0,1-.7-1.61,2.12,2.12,0,0,1,1-1.83,4.62,4.62,0,0,1,2.68-.67H107v-.9a1.73,1.73,0,0,0-.52-1.34,2.2,2.2,0,0,0-1.53-.49,2.39,2.39,0,0,0-1.51.47,1.39,1.39,0,0,0-.6,1.13H102a2,2,0,0,1,.88-1.63,3.32,3.32,0,0,1,2.16-.7,3.05,3.05,0,0,1,2.09.67,2.34,2.34,0,0,1,.78,1.85V339a4.66,4.66,0,0,0,.25,1.72v.08Zm-2.76-.63a3,3,0,0,0,1.58-.42,2.46,2.46,0,0,0,1-1.14v-1.74h-1.56a4,4,0,0,0-2.06.48,1.48,1.48,0,0,0-.24,2.39A1.87,1.87,0,0,0,104.45,340.14Z"/><path d="M111.08,332.85l0,1.35a3.13,3.13,0,0,1,1.12-1.11,2.84,2.84,0,0,1,1.47-.39,2.39,2.39,0,0,1,1.9.72,3.3,3.3,0,0,1,.63,2.15v5.2h-.87v-5.2a2.4,2.4,0,0,0-.46-1.58,1.73,1.73,0,0,0-1.41-.53A2.23,2.23,0,0,0,112,334a3,3,0,0,0-.93,1.38v5.42h-.87v-7.92Z"/><path d="M121.55,340.92a3.47,3.47,0,0,1-1.83-.5,3.39,3.39,0,0,1-1.27-1.38,4.39,4.39,0,0,1-.45-2v-.32a4.57,4.57,0,0,1,.44-2.05,3.62,3.62,0,0,1,1.23-1.44,3.06,3.06,0,0,1,1.72-.53,2.87,2.87,0,0,1,2.29,1,4,4,0,0,1,.84,2.69v.49h-5.65V337a3.31,3.31,0,0,0,.77,2.24,2.46,2.46,0,0,0,2,.9,2.75,2.75,0,0,0,1.24-.26,2.65,2.65,0,0,0,1-.82l.55.42A3.17,3.17,0,0,1,121.55,340.92Zm-.16-7.47a2.2,2.2,0,0,0-1.67.72,3.41,3.41,0,0,0-.82,1.95h4.75V336a2.89,2.89,0,0,0-.65-1.86A2,2,0,0,0,121.39,333.45Zm.09-2.4,1.26-1.42h.78v.08l-1.73,1.92h-.63l-1.73-1.92v-.08h.79Z"/><path d="M127.21,340.77h-.88V329.52h.88Z"/><path d="M134.34,338.76a1.27,1.27,0,0,0-.53-1.05,4.09,4.09,0,0,0-1.57-.62,6.8,6.8,0,0,1-1.64-.51,2.17,2.17,0,0,1-.87-.71,1.79,1.79,0,0,1-.28-1,1.88,1.88,0,0,1,.79-1.55,3.2,3.2,0,0,1,2-.61,3.23,3.23,0,0,1,2.13.66,2.09,2.09,0,0,1,.8,1.71h-.88a1.43,1.43,0,0,0-.58-1.16,2.63,2.63,0,0,0-2.85-.08,1.2,1.2,0,0,0-.53,1,1.07,1.07,0,0,0,.44.92,4.52,4.52,0,0,0,1.59.6,7,7,0,0,1,1.72.58,2.19,2.19,0,0,1,.86.74,2,2,0,0,1,.28,1.05,1.89,1.89,0,0,1-.81,1.6,4.06,4.06,0,0,1-4.36-.07,2.07,2.07,0,0,1-.86-1.69h.88a1.49,1.49,0,0,0,.65,1.19,2.59,2.59,0,0,0,1.57.43,2.47,2.47,0,0,0,1.48-.4A1.21,1.21,0,0,0,134.34,338.76Z"/><path d="M139.07,336.78l-1,1v3h-.88V329.52h.88v7.2l.82-.89,3-3H143l-3.36,3.34,3.65,4.58h-1Z"/><path d="M144.05,336.69a4.71,4.71,0,0,1,.44-2.05,3.44,3.44,0,0,1,1.26-1.43,3.36,3.36,0,0,1,1.83-.51,3.25,3.25,0,0,1,2.56,1.11,4.25,4.25,0,0,1,1,2.94v.19a4.69,4.69,0,0,1-.44,2.07,3.24,3.24,0,0,1-1.25,1.41,3.43,3.43,0,0,1-1.84.5,3.23,3.23,0,0,1-2.55-1.11,4.25,4.25,0,0,1-1-2.94Zm.88.25a3.61,3.61,0,0,0,.73,2.33,2.37,2.37,0,0,0,1.93.91,2.35,2.35,0,0,0,1.93-.91,3.72,3.72,0,0,0,.73-2.41v-.17a4.13,4.13,0,0,0-.33-1.66,2.77,2.77,0,0,0-.95-1.17,2.44,2.44,0,0,0-1.39-.41,2.34,2.34,0,0,0-1.91.92,3.67,3.67,0,0,0-.74,2.41Z"/><path d="M14.23,375.07a6.2,6.2,0,0,1-.51,2.59,3.9,3.9,0,0,1-1.46,1.71,4,4,0,0,1-2.18.6,3.81,3.81,0,0,1-3-1.34A5.36,5.36,0,0,1,5.91,375v-1.1a6.19,6.19,0,0,1,.52-2.58,4,4,0,0,1,1.46-1.73,3.91,3.91,0,0,1,2.18-.61,4,4,0,0,1,2.17.6,3.83,3.83,0,0,1,1.45,1.67,6.19,6.19,0,0,1,.54,2.52Zm-.9-1.16a4.63,4.63,0,0,0-.88-3,2.87,2.87,0,0,0-2.38-1.1,2.9,2.9,0,0,0-2.37,1.1A4.74,4.74,0,0,0,6.82,374v1.11a4.75,4.75,0,0,0,.87,3,2.9,2.9,0,0,0,2.39,1.11,2.87,2.87,0,0,0,2.39-1.1,4.83,4.83,0,0,0,.86-3Z"/><path d="M21,377.81a1.29,1.29,0,0,0-.52-1.05,4.15,4.15,0,0,0-1.58-.62,7.28,7.28,0,0,1-1.64-.51,2.07,2.07,0,0,1-.86-.71,1.72,1.72,0,0,1-.29-1,1.88,1.88,0,0,1,.79-1.55,3.2,3.2,0,0,1,2-.61,3.23,3.23,0,0,1,2.13.66,2.09,2.09,0,0,1,.8,1.71H21a1.42,1.42,0,0,0-.59-1.16,2.27,2.27,0,0,0-1.47-.46,2.32,2.32,0,0,0-1.38.38,1.2,1.2,0,0,0-.53,1,1.07,1.07,0,0,0,.44.92,4.52,4.52,0,0,0,1.59.6,7.31,7.31,0,0,1,1.73.58,2.23,2.23,0,0,1,.85.74,1.85,1.85,0,0,1,.28,1,1.89,1.89,0,0,1-.81,1.6A3.47,3.47,0,0,1,19,380a3.52,3.52,0,0,1-2.25-.67,2.08,2.08,0,0,1-.86-1.7h.88a1.49,1.49,0,0,0,.65,1.2,2.62,2.62,0,0,0,1.58.43,2.44,2.44,0,0,0,1.47-.4A1.21,1.21,0,0,0,21,377.81Z"/><path d="M25.25,369.87v2h1.64v.72H25.25v5.28a1.68,1.68,0,0,0,.24,1,.93.93,0,0,0,.79.32,7.1,7.1,0,0,0,.71-.07l0,.71a2.94,2.94,0,0,1-.94.12,1.57,1.57,0,0,1-1.31-.52,2.51,2.51,0,0,1-.41-1.55v-5.28H22.91v-.72h1.46v-2Z"/><path d="M33.71,379.82a4.22,4.22,0,0,1-.17-1.1,3,3,0,0,1-1.17.92,3.62,3.62,0,0,1-1.52.33,2.64,2.64,0,0,1-1.85-.64,2.06,2.06,0,0,1-.7-1.61,2.12,2.12,0,0,1,1-1.83,4.62,4.62,0,0,1,2.68-.67h1.59v-.9A1.73,1.73,0,0,0,33,373a2.15,2.15,0,0,0-1.53-.49A2.39,2.39,0,0,0,30,373a1.39,1.39,0,0,0-.6,1.13h-.88a2,2,0,0,1,.88-1.64,3.37,3.37,0,0,1,2.16-.69,3.05,3.05,0,0,1,2.09.67,2.38,2.38,0,0,1,.79,1.85V378a4.73,4.73,0,0,0,.24,1.72v.08ZM31,379.19a3,3,0,0,0,1.58-.42,2.46,2.46,0,0,0,1-1.14v-1.74H32a3.9,3.9,0,0,0-2,.48,1.43,1.43,0,0,0-.74,1.28,1.4,1.4,0,0,0,.49,1.1A1.83,1.83,0,0,0,31,379.19Z"/><path d="M38.1,369.87v2h1.65v.72H38.1v5.28a1.68,1.68,0,0,0,.24,1,1,1,0,0,0,.8.32c.14,0,.38,0,.71-.07l0,.71A2.91,2.91,0,0,1,39,380a1.55,1.55,0,0,1-1.31-.52,2.45,2.45,0,0,1-.41-1.55v-5.28H35.77v-.72h1.46v-2Z"/><path d="M42.4,371.9l0,1.35a3,3,0,0,1,1.11-1.11,2.84,2.84,0,0,1,1.47-.39,2.39,2.39,0,0,1,1.9.72,3.3,3.3,0,0,1,.63,2.15v5.2h-.87v-5.2a2.51,2.51,0,0,0-.45-1.59,1.8,1.8,0,0,0-1.42-.52,2.23,2.23,0,0,0-1.44.51,3,3,0,0,0-.93,1.38v5.42h-.87V371.9Z"/><path d="M51.22,368.66h1.06l-1.69,2h-.77Zm-.45,11.16h-.88V371.9h.88Z"/><path d="M60.45,372.65a2.76,2.76,0,0,0-.59,0,2.17,2.17,0,0,0-1.39.45,2.52,2.52,0,0,0-.81,1.33v5.44h-.87V371.9h.86v1.26a2.33,2.33,0,0,1,2.23-1.41,1.31,1.31,0,0,1,.58.1Z"/><path d="M61.2,375.74a4.57,4.57,0,0,1,.45-2.05,3.32,3.32,0,0,1,3.09-1.94,3.27,3.27,0,0,1,2.56,1.11,4.3,4.3,0,0,1,1,2.94V376a4.83,4.83,0,0,1-.44,2.07,3.37,3.37,0,0,1-1.25,1.41,3.45,3.45,0,0,1-1.84.5,3.27,3.27,0,0,1-2.56-1.11,4.25,4.25,0,0,1-1-2.94Zm.88.25a3.61,3.61,0,0,0,.74,2.33,2.49,2.49,0,0,0,3.85,0,3.73,3.73,0,0,0,.74-2.41v-.17a3.94,3.94,0,0,0-.34-1.66,2.75,2.75,0,0,0-.94-1.17,2.47,2.47,0,0,0-1.39-.41,2.36,2.36,0,0,0-1.92.92,3.72,3.72,0,0,0-.74,2.4Z"/><path d="M70.55,379.08H75.7v.74H69.47v-.64l4.8-6.52H69.61v-.76h5.77v.66Z"/><path d="M79.74,378.61l2.41-6.71h.9l-3,7.92h-.71l-3-7.92h.9Z"/><path d="M84.43,369.61a.58.58,0,0,1,.16-.42.61.61,0,0,1,1,.42.57.57,0,0,1-.17.41.65.65,0,0,1-.88,0A.56.56,0,0,1,84.43,369.61Zm1,10.21h-.88V371.9h.88Z"/><path d="M88.68,371.9l0,1.35a3.19,3.19,0,0,1,1.11-1.11,2.89,2.89,0,0,1,1.47-.39,2.37,2.37,0,0,1,1.9.72,3.19,3.19,0,0,1,.63,2.15v5.2H93v-5.2A2.51,2.51,0,0,0,92.5,373a1.8,1.8,0,0,0-1.42-.52,2.23,2.23,0,0,0-1.44.51,3,3,0,0,0-.93,1.38v5.42h-.87V371.9Z"/><path d="M101.18,378.82A2.85,2.85,0,0,1,98.65,380a2.42,2.42,0,0,1-1.92-.74,3.2,3.2,0,0,1-.68-2.17V371.9h.87v5c0,1.51.62,2.27,1.84,2.27a2.25,2.25,0,0,0,2.41-1.58V371.9H102v7.92h-.84Z"/><path d="M105.68,369.87v2h1.65v.72h-1.65v5.28a1.68,1.68,0,0,0,.24,1,1,1,0,0,0,.8.32c.14,0,.38,0,.71-.07l0,.71a2.91,2.91,0,0,1-.93.12,1.55,1.55,0,0,1-1.31-.52,2.45,2.45,0,0,1-.41-1.55v-5.28h-1.46v-.72h1.46v-2Z"/><path d="M112.21,380a3.49,3.49,0,0,1-1.83-.5,3.42,3.42,0,0,1-1.27-1.39,4.32,4.32,0,0,1-.45-2v-.32a4.71,4.71,0,0,1,.44-2,3.5,3.5,0,0,1,1.24-1.44,3,3,0,0,1,1.71-.53,2.85,2.85,0,0,1,2.29,1,4,4,0,0,1,.85,2.69v.49h-5.66v.17a3.33,3.33,0,0,0,.77,2.24,2.47,2.47,0,0,0,2,.9,2.72,2.72,0,0,0,1.24-.26,2.76,2.76,0,0,0,1-.82l.55.42A3.21,3.21,0,0,1,112.21,380Zm-.16-7.47a2.22,2.22,0,0,0-1.67.72,3.41,3.41,0,0,0-.82,1.95h4.75v-.09a2.89,2.89,0,0,0-.65-1.86A2,2,0,0,0,112.05,372.5Zm1-3.93h1.07l-1.7,2.05h-.77Z"/><path d="M125.29,377.81a1.27,1.27,0,0,0-.53-1.05,4.08,4.08,0,0,0-1.58-.62,7.18,7.18,0,0,1-1.63-.51,2.17,2.17,0,0,1-.87-.71,1.72,1.72,0,0,1-.28-1,1.9,1.9,0,0,1,.78-1.55,3.23,3.23,0,0,1,2-.61,3.27,3.27,0,0,1,2.13.66,2.12,2.12,0,0,1,.8,1.71h-.88a1.41,1.41,0,0,0-.58-1.16,2.29,2.29,0,0,0-1.47-.46,2.34,2.34,0,0,0-1.39.38,1.19,1.19,0,0,0-.52,1,1.06,1.06,0,0,0,.43.92,4.61,4.61,0,0,0,1.59.6A7.15,7.15,0,0,1,125,376a2.19,2.19,0,0,1,.86.74,1.93,1.93,0,0,1,.27,1,1.89,1.89,0,0,1-.81,1.6,3.43,3.43,0,0,1-2.11.6,3.51,3.51,0,0,1-2.24-.67,2,2,0,0,1-.86-1.7H121a1.51,1.51,0,0,0,.64,1.2,2.64,2.64,0,0,0,1.58.43,2.49,2.49,0,0,0,1.48-.4A1.21,1.21,0,0,0,125.29,377.81Z"/><path d="M129.5,369.87v2h1.64v.72H129.5v5.28a1.76,1.76,0,0,0,.23,1,1,1,0,0,0,.8.32c.14,0,.38,0,.71-.07l0,.71a3,3,0,0,1-.94.12,1.55,1.55,0,0,1-1.31-.52,2.45,2.45,0,0,1-.41-1.55v-5.28h-1.46v-.72h1.46v-2Z"/><path d="M138,379.82a4.3,4.3,0,0,1-.16-1.1,3,3,0,0,1-1.18.92,3.54,3.54,0,0,1-1.51.33,2.64,2.64,0,0,1-1.85-.64,2.07,2.07,0,0,1-.71-1.61,2.11,2.11,0,0,1,1-1.83,4.6,4.6,0,0,1,2.68-.67h1.59v-.9a1.73,1.73,0,0,0-.52-1.34,2.15,2.15,0,0,0-1.53-.49,2.42,2.42,0,0,0-1.52.47,1.39,1.39,0,0,0-.6,1.13h-.88a2.07,2.07,0,0,1,.88-1.64,3.41,3.41,0,0,1,2.16-.69,3,3,0,0,1,2.09.67,2.35,2.35,0,0,1,.79,1.85V378a4.73,4.73,0,0,0,.24,1.72v.08Zm-2.75-.63a3,3,0,0,0,1.57-.42,2.48,2.48,0,0,0,1-1.14v-1.74h-1.57a3.93,3.93,0,0,0-2.05.48,1.45,1.45,0,0,0-.74,1.28,1.41,1.41,0,0,0,.5,1.1A1.81,1.81,0,0,0,135.2,379.19Zm1.73-10.62H138l-1.69,2.05h-.77Z"/><path d="M142.35,369.87v2H144v.72h-1.64v5.28a1.68,1.68,0,0,0,.24,1,.93.93,0,0,0,.79.32,7.1,7.1,0,0,0,.71-.07l0,.71a2.94,2.94,0,0,1-.94.12,1.57,1.57,0,0,1-1.31-.52,2.51,2.51,0,0,1-.41-1.55v-5.28H140v-.72h1.46v-2Z"/><path d="M148.32,378.56l2.31-6.66h1l-3.39,9.27-.17.41a2.14,2.14,0,0,1-2,1.44,2.37,2.37,0,0,1-.67-.1v-.72l.46,0a1.63,1.63,0,0,0,1-.32,2.43,2.43,0,0,0,.68-1.09l.39-1.07-3-7.86h1Z"/><path d="M98.16,184.58h-.9l-6.13-9.13v9.13h-.91V173.91h.91L97.27,183v-9.13h.89Z"/><path d="M103.74,184.72a3.36,3.36,0,0,1-1.83-.5,3.39,3.39,0,0,1-1.27-1.38,4.39,4.39,0,0,1-.46-2v-.32a4.57,4.57,0,0,1,.45-2.05,3.47,3.47,0,0,1,1.23-1.44,3.06,3.06,0,0,1,1.72-.53,2.83,2.83,0,0,1,2.28,1,4,4,0,0,1,.85,2.69v.49h-5.65v.17a3.31,3.31,0,0,0,.77,2.25,2.46,2.46,0,0,0,1.94.89,2.83,2.83,0,0,0,1.24-.25,2.78,2.78,0,0,0,1-.82l.55.41A3.17,3.17,0,0,1,103.74,184.72Zm-.16-7.47a2.18,2.18,0,0,0-1.67.73,3.29,3.29,0,0,0-.82,2h4.75v-.1a3,3,0,0,0-.65-1.86A2,2,0,0,0,103.58,177.25Zm.08-2.4,1.26-1.42h.79v.09L104,175.43h-.63l-1.73-1.92v-.08h.78Z"/><path d="M109.22,176.65l0,1.29a2.89,2.89,0,0,1,1.09-1.08,3,3,0,0,1,1.47-.36,2.23,2.23,0,0,1,2.38,1.54,3,3,0,0,1,1.13-1.14,3.24,3.24,0,0,1,1.57-.4c1.7,0,2.57.93,2.6,2.79v5.29h-.88v-5.23a2.33,2.33,0,0,0-.46-1.57,1.86,1.86,0,0,0-1.46-.51,2.32,2.32,0,0,0-1.6.61,2.15,2.15,0,0,0-.73,1.45v5.25h-.87v-5.29a2.21,2.21,0,0,0-.48-1.52,1.9,1.9,0,0,0-1.46-.5,2.19,2.19,0,0,0-1.42.47,2.78,2.78,0,0,0-.88,1.4v5.44h-.88v-7.93Z"/><path d="M124.78,184.72a3.41,3.41,0,0,1-3.1-1.88,4.39,4.39,0,0,1-.45-2v-.32a4.57,4.57,0,0,1,.44-2.05A3.62,3.62,0,0,1,122.9,177a3.06,3.06,0,0,1,1.72-.53,2.87,2.87,0,0,1,2.29,1,4,4,0,0,1,.84,2.69v.49H122.1v.17a3.36,3.36,0,0,0,.77,2.25,2.5,2.5,0,0,0,1.95.89,2.58,2.58,0,0,0,2.22-1.07l.54.41A3.17,3.17,0,0,1,124.78,184.72Zm-.16-7.47A2.18,2.18,0,0,0,123,178a3.36,3.36,0,0,0-.82,2h4.75v-.1a2.89,2.89,0,0,0-.65-1.86A2,2,0,0,0,124.62,177.25Z"/><path d="M132.39,184a2.32,2.32,0,0,0,1.53-.51,1.79,1.79,0,0,0,.67-1.34h.85a2.53,2.53,0,0,1-.46,1.32,2.91,2.91,0,0,1-1.11.94,3.38,3.38,0,0,1-1.48.33,3.05,3.05,0,0,1-2.47-1.08,4.38,4.38,0,0,1-.92-2.92v-.26a5,5,0,0,1,.41-2.07,3.17,3.17,0,0,1,1.18-1.39,3.23,3.23,0,0,1,1.79-.5,3,3,0,0,1,2.15.78,2.86,2.86,0,0,1,.91,2h-.85a2.12,2.12,0,0,0-2.21-2.07,2.19,2.19,0,0,0-1.84.86,3.85,3.85,0,0,0-.66,2.4v.26a3.74,3.74,0,0,0,.66,2.36A2.19,2.19,0,0,0,132.39,184Z"/><path d="M139.07,180.58l-1,1v3h-.88V173.33h.88v7.19l.82-.89,3-3H143L139.67,180l3.65,4.59h-1Z"/><path d="M144.05,180.5a4.72,4.72,0,0,1,.44-2.06,3.44,3.44,0,0,1,1.26-1.43,3.36,3.36,0,0,1,1.83-.51,3.25,3.25,0,0,1,2.56,1.11,4.25,4.25,0,0,1,1,2.94v.19a4.69,4.69,0,0,1-.44,2.07,3.24,3.24,0,0,1-1.25,1.41,3.34,3.34,0,0,1-1.84.5,3.23,3.23,0,0,1-2.55-1.11,4.25,4.25,0,0,1-1-2.94Zm.88.24a3.59,3.59,0,0,0,.73,2.33,2.37,2.37,0,0,0,1.93.91,2.35,2.35,0,0,0,1.93-.91,3.72,3.72,0,0,0,.73-2.41v-.16a4.15,4.15,0,0,0-.33-1.67,2.68,2.68,0,0,0-.95-1.16,2.38,2.38,0,0,0-1.39-.42,2.34,2.34,0,0,0-1.91.92,3.69,3.69,0,0,0-.74,2.41Z"/><path d="M67.48,222.31l.06.22.07-.22L71,213h1l-4,10.67h-.86l-4-10.67h1Z"/><path d="M76.06,223.77a3.41,3.41,0,0,1-3.1-1.88,4.39,4.39,0,0,1-.45-2v-.32a4.57,4.57,0,0,1,.44-2,3.62,3.62,0,0,1,1.23-1.44,3.06,3.06,0,0,1,1.72-.53,2.87,2.87,0,0,1,2.29,1,4,4,0,0,1,.84,2.69v.49H73.38v.17a3.36,3.36,0,0,0,.77,2.25,2.48,2.48,0,0,0,1.95.89,2.89,2.89,0,0,0,1.24-.25,2.86,2.86,0,0,0,1-.82l.55.41A3.17,3.17,0,0,1,76.06,223.77Zm-.16-7.47a2.18,2.18,0,0,0-1.67.73,3.29,3.29,0,0,0-.82,1.95h4.75v-.1a2.89,2.89,0,0,0-.65-1.86A2,2,0,0,0,75.9,216.3Z"/><path d="M81.72,223.63h-.88V212.38h.88Z"/><path d="M86,219.63l-1,1v3H84.1V212.38H85v7.19l.83-.89,3-3H90L86.58,219l3.66,4.59h-1Z"/><path d="M96.45,223.63a4.31,4.31,0,0,1-.17-1.11,3.14,3.14,0,0,1-1.17.93,3.77,3.77,0,0,1-1.52.32,2.68,2.68,0,0,1-1.85-.63,2.1,2.1,0,0,1-.7-1.62,2.12,2.12,0,0,1,1-1.83,4.62,4.62,0,0,1,2.68-.67h1.59v-.9a1.74,1.74,0,0,0-.52-1.34,2.2,2.2,0,0,0-1.53-.49,2.39,2.39,0,0,0-1.51.47,1.41,1.41,0,0,0-.6,1.13h-.88a2,2,0,0,1,.88-1.63,3.32,3.32,0,0,1,2.16-.7,3.05,3.05,0,0,1,2.09.67,2.4,2.4,0,0,1,.79,1.85v3.75a4.69,4.69,0,0,0,.24,1.72v.09ZM93.7,223a3,3,0,0,0,1.57-.43,2.48,2.48,0,0,0,1-1.13v-1.75H94.71a3.9,3.9,0,0,0-2,.48,1.49,1.49,0,0,0-.25,2.39A1.89,1.89,0,0,0,93.7,223Zm1.72-10.62h1.07l-1.7,2.05H94Z"/><path d="M103.33,223.63V213h3.15a4.09,4.09,0,0,1,2.6.71,2.51,2.51,0,0,1,.89,2.08,2.33,2.33,0,0,1-.45,1.44,2.48,2.48,0,0,1-1.23.88,2.58,2.58,0,0,1,2.06,2.55,2.76,2.76,0,0,1-.91,2.21,3.75,3.75,0,0,1-2.54.8Zm.9-5.89h2.47a2.71,2.71,0,0,0,1.74-.53,2.1,2.1,0,0,0,0-3,3.22,3.22,0,0,0-1.94-.49h-2.25Zm0,.77v4.35h2.71a2.65,2.65,0,0,0,1.83-.59,2,2,0,0,0,.68-1.63,2,2,0,0,0-.65-1.56,2.62,2.62,0,0,0-1.79-.57Z"/><path d="M116,216.45a2.76,2.76,0,0,0-.59,0,2.17,2.17,0,0,0-1.39.45,2.52,2.52,0,0,0-.81,1.33v5.45h-.87V215.7h.86V217a2.34,2.34,0,0,1,2.24-1.41,1.46,1.46,0,0,1,.57.1Z"/><path d="M117.32,213.41a.6.6,0,0,1,.16-.42.57.57,0,0,1,.44-.17.57.57,0,0,1,.6.59.57.57,0,0,1-.16.42.6.6,0,0,1-.44.16.55.55,0,0,1-.6-.58Zm1,10.22h-.88V215.7h.88Z"/><path d="M122.09,213.67v2h1.64v.72h-1.64v5.28a1.66,1.66,0,0,0,.24,1,.93.93,0,0,0,.79.32,5,5,0,0,0,.71-.07l0,.71a2.94,2.94,0,0,1-.94.12,1.57,1.57,0,0,1-1.31-.52,2.48,2.48,0,0,1-.41-1.54v-5.29h-1.46v-.72h1.46v-2Z"/><path d="M130.55,223.63a4.31,4.31,0,0,1-.17-1.11,3.06,3.06,0,0,1-1.17.93,3.72,3.72,0,0,1-1.51.32,2.66,2.66,0,0,1-1.85-.63,2.07,2.07,0,0,1-.71-1.62,2.12,2.12,0,0,1,1-1.83,4.63,4.63,0,0,1,2.69-.67h1.58v-.9a1.74,1.74,0,0,0-.52-1.34,2.2,2.2,0,0,0-1.53-.49,2.39,2.39,0,0,0-1.51.47,1.41,1.41,0,0,0-.6,1.13h-.88a2,2,0,0,1,.88-1.63,3.32,3.32,0,0,1,2.16-.7,3.05,3.05,0,0,1,2.09.67,2.4,2.4,0,0,1,.79,1.85v3.75a4.69,4.69,0,0,0,.24,1.72v.09ZM127.8,223a3,3,0,0,0,1.57-.43,2.48,2.48,0,0,0,1-1.13v-1.75h-1.56a3.9,3.9,0,0,0-2,.48,1.49,1.49,0,0,0-.25,2.39A1.89,1.89,0,0,0,127.8,223Zm1.73-10.62h1.06l-1.69,2.05h-.77Z"/><path d="M134.42,215.7l0,1.36a3.14,3.14,0,0,1,1.11-1.12,2.86,2.86,0,0,1,1.47-.39,2.39,2.39,0,0,1,1.9.72,3.31,3.31,0,0,1,.63,2.16v5.2h-.87v-5.21a2.46,2.46,0,0,0-.45-1.58,1.77,1.77,0,0,0-1.42-.52,2.27,2.27,0,0,0-1.44.5,3,3,0,0,0-.93,1.38v5.43h-.87V215.7Z"/><path d="M141.77,213.41a.57.57,0,0,1,.6-.59.59.59,0,0,1,.44.17.61.61,0,0,1,.17.42.57.57,0,0,1-.17.42.58.58,0,0,1-.44.16.6.6,0,0,1-.44-.16A.57.57,0,0,1,141.77,213.41Zm1,10.22h-.88V215.7h.88Z"/><path d="M148.25,223.77a3.41,3.41,0,0,1-3.09-1.88,4.27,4.27,0,0,1-.46-2v-.32a4.71,4.71,0,0,1,.44-2,3.56,3.56,0,0,1,1.24-1.44,3.05,3.05,0,0,1,1.71-.53,2.85,2.85,0,0,1,2.29,1,4,4,0,0,1,.85,2.69v.49h-5.66v.17a3.31,3.31,0,0,0,.78,2.25,2.46,2.46,0,0,0,1.94.89,2.58,2.58,0,0,0,2.22-1.07l.55.41A3.19,3.19,0,0,1,148.25,223.77Zm-.16-7.47a2.16,2.16,0,0,0-1.66.73,3.3,3.3,0,0,0-.83,1.95h4.76v-.1a3,3,0,0,0-.66-1.86A2,2,0,0,0,148.09,216.3Z"/><path d="M110.9,257.69h-5v5H105V252h6.6v.76h-5.7v4.16h5Z"/><path d="M116.73,255.5a2.82,2.82,0,0,0-.59-.05,2.17,2.17,0,0,0-1.39.45,2.52,2.52,0,0,0-.81,1.33v5.45h-.87v-7.93h.85l0,1.26a2.33,2.33,0,0,1,2.23-1.41,1.48,1.48,0,0,1,.58.1Z"/><path d="M122.82,262.68a4.31,4.31,0,0,1-.17-1.11,3.06,3.06,0,0,1-1.17.93,3.72,3.72,0,0,1-1.51.32,2.66,2.66,0,0,1-1.85-.63,2.21,2.21,0,0,1,.25-3.45,4.65,4.65,0,0,1,2.69-.67h1.59v-.9a1.75,1.75,0,0,0-.53-1.34,2.19,2.19,0,0,0-1.52-.49,2.42,2.42,0,0,0-1.52.47,1.41,1.41,0,0,0-.6,1.13h-.88a2,2,0,0,1,.88-1.63,3.35,3.35,0,0,1,2.16-.7,3.05,3.05,0,0,1,2.09.67,2.4,2.4,0,0,1,.79,1.85v3.75a4.69,4.69,0,0,0,.24,1.72v.09Zm-2.75-.63a3,3,0,0,0,1.57-.43,2.5,2.5,0,0,0,1-1.13v-1.75h-1.57a3.9,3.9,0,0,0-2,.48,1.45,1.45,0,0,0-.74,1.28,1.44,1.44,0,0,0,.49,1.11A1.89,1.89,0,0,0,120.07,262.05Z"/><path d="M126.69,254.75l0,1.35a3.19,3.19,0,0,1,1.11-1.11,2.89,2.89,0,0,1,1.47-.39,2.37,2.37,0,0,1,1.9.72,3.2,3.2,0,0,1,.63,2.16v5.2H131v-5.21a2.4,2.4,0,0,0-.45-1.58,1.77,1.77,0,0,0-1.42-.52,2.27,2.27,0,0,0-1.44.5,3,3,0,0,0-.92,1.38v5.43h-.87v-7.93Z"/><path d="M137,262.08a2.32,2.32,0,0,0,1.53-.51,1.82,1.82,0,0,0,.67-1.34h.84a2.44,2.44,0,0,1-.45,1.32,2.8,2.8,0,0,1-1.11.93,3.28,3.28,0,0,1-1.48.34,3.09,3.09,0,0,1-2.48-1.08,4.43,4.43,0,0,1-.91-2.92v-.26a5,5,0,0,1,.41-2.07,3.17,3.17,0,0,1,1.18-1.39,3.21,3.21,0,0,1,1.79-.5,3.06,3.06,0,0,1,2.15.78,2.85,2.85,0,0,1,.9,2h-.84a2.14,2.14,0,0,0-.67-1.5,2.38,2.38,0,0,0-3.38.29,3.85,3.85,0,0,0-.66,2.4v.26a3.74,3.74,0,0,0,.66,2.36A2.18,2.18,0,0,0,137,262.08Z"/><path d="M141.77,252.46a.57.57,0,0,1,.6-.59.59.59,0,0,1,.44.17.61.61,0,0,1,.17.42.57.57,0,0,1-.17.42.58.58,0,0,1-.44.16.6.6,0,0,1-.44-.16A.57.57,0,0,1,141.77,252.46Zm1,10.22h-.88v-7.93h.88Z"/><path d="M148.25,262.82a3.4,3.4,0,0,1-1.83-.5,3.46,3.46,0,0,1-1.27-1.38,4.39,4.39,0,0,1-.45-2v-.32a4.71,4.71,0,0,1,.44-2.05,3.56,3.56,0,0,1,1.24-1.44,3,3,0,0,1,1.71-.53,2.85,2.85,0,0,1,2.29,1,4,4,0,0,1,.85,2.69v.49h-5.66v.17a3.36,3.36,0,0,0,.77,2.25,2.5,2.5,0,0,0,1.95.89,2.86,2.86,0,0,0,1.24-.25,3,3,0,0,0,1-.82l.55.41A3.19,3.19,0,0,1,148.25,262.82Zm-.16-7.47a2.19,2.19,0,0,0-1.67.73,3.35,3.35,0,0,0-.82,1.94h4.75v-.09a2.89,2.89,0,0,0-.65-1.86A2,2,0,0,0,148.09,255.35Z"/><rect class="cls-7" x="163.51" y="92.88" width="74.1" height="18.43"/><rect class="cls-8" x="237.62" y="92.88" width="394.92" height="18.43"/><rect class="cls-8" x="315.71" y="366.22" width="81.58" height="18.43"/><rect class="cls-8" x="199.83" y="288.13" width="11.26" height="18.43"/><rect class="cls-8" x="192.78" y="327.17" width="3.05" height="18.43"/><rect class="cls-8" x="226.99" y="210.03" width="3.25" height="18.43"/><rect class="cls-7" x="163.51" y="131.93" width="225.08" height="18.43"/><rect class="cls-7" x="163.51" y="170.98" width="164.47" height="18.43"/><rect class="cls-7" x="163.51" y="210.03" width="64.07" height="18.43"/><rect class="cls-7" x="163.51" y="249.08" width="127.07" height="18.43"/><rect class="cls-7" x="163.51" y="288.13" width="37.06" height="18.43"/><rect class="cls-7" x="163.51" y="327.17" width="29.17" height="18.43"/><rect class="cls-7" x="163.51" y="366.22" width="152.2" height="18.43"/><line class="cls-9" x1="632.54" y1="90.74" x2="632.54" y2="113.45"/><path class="cls-10" d="M565.79,57.06H561.5v4.52h-1.85V50.91h6.77v1.5H561.5v3.17h4.29Z"/><path class="cls-10" d="M571.05,61.72a3.67,3.67,0,0,1-2.74-1.06,3.87,3.87,0,0,1-1-2.84V57.6a4.82,4.82,0,0,1,.45-2.12A3.5,3.5,0,0,1,569,54a3.38,3.38,0,0,1,1.85-.52,3.12,3.12,0,0,1,2.5,1,4.41,4.41,0,0,1,.88,2.92v.72h-5.18a2.33,2.33,0,0,0,.66,1.55,2,2,0,0,0,1.44.57,2.4,2.4,0,0,0,2-1l1,.92a3.16,3.16,0,0,1-1.27,1.1A4,4,0,0,1,571.05,61.72Zm-.21-6.79a1.46,1.46,0,0,0-1.18.52,2.53,2.53,0,0,0-.58,1.42h3.39v-.13a2.24,2.24,0,0,0-.47-1.35A1.52,1.52,0,0,0,570.84,54.93Zm.4-4.6h2l-2,2.22h-1.43Z"/><path class="cls-10" d="M579.76,55.28a4.4,4.4,0,0,0-.73-.06,1.62,1.62,0,0,0-1.64.94v5.42h-1.78V53.65h1.7l0,.89a2,2,0,0,1,1.79-1,1.67,1.67,0,0,1,.63.1Z"/><path class="cls-10" d="M580.29,57.54a4.69,4.69,0,0,1,.46-2.1A3.39,3.39,0,0,1,582,54a3.62,3.62,0,0,1,1.92-.5,3.47,3.47,0,0,1,2.61,1,4.12,4.12,0,0,1,1.08,2.74v.42a4.72,4.72,0,0,1-.46,2.09,3.32,3.32,0,0,1-1.29,1.43,3.61,3.61,0,0,1-1.93.5,3.46,3.46,0,0,1-2.69-1.11,4.3,4.3,0,0,1-1-3Zm1.78.16a3.23,3.23,0,0,0,.5,1.91,1.66,1.66,0,0,0,1.41.69,1.61,1.61,0,0,0,1.4-.7,3.58,3.58,0,0,0,.5-2.06,3.17,3.17,0,0,0-.51-1.9,1.67,1.67,0,0,0-1.41-.71,1.64,1.64,0,0,0-1.38.7A3.47,3.47,0,0,0,582.07,57.7Z"/><path class="cls-10" d="M591.84,59.32l1.68-5.67h1.84l-2.75,7.93h-1.54l-2.77-7.93h1.84Z"/><path class="cls-10" d="M599.24,59l1.61-5.38h1.9l-3.15,9.13a2.56,2.56,0,0,1-2.46,2,3.52,3.52,0,0,1-.86-.13V63.26l.34,0a1.73,1.73,0,0,0,1-.24,1.64,1.64,0,0,0,.54-.82l.26-.69-2.78-7.88h1.91Zm.6-8.7h2l-2,2.22h-1.43Z"/><path class="cls-10" d="M614.45,57.7a4.7,4.7,0,0,1-.84,2.93,2.91,2.91,0,0,1-4.33.24v3.75H607.5v-11h1.64l.08.81a2.59,2.59,0,0,1,2.13-1,2.69,2.69,0,0,1,2.27,1.08,4.84,4.84,0,0,1,.83,3Zm-1.78-.16a3.25,3.25,0,0,0-.47-1.88,1.54,1.54,0,0,0-1.35-.7,1.64,1.64,0,0,0-1.57.9v3.52a1.64,1.64,0,0,0,1.58.92,1.54,1.54,0,0,0,1.33-.68A3.65,3.65,0,0,0,612.67,57.54Z"/><path class="cls-10" d="M615.62,57.54a4.69,4.69,0,0,1,.46-2.1,3.35,3.35,0,0,1,1.3-1.43,3.57,3.57,0,0,1,1.92-.5,3.47,3.47,0,0,1,2.6,1A4,4,0,0,1,623,57.28v.42a4.72,4.72,0,0,1-.45,2.09,3.32,3.32,0,0,1-1.29,1.43,3.67,3.67,0,0,1-1.94.5,3.43,3.43,0,0,1-2.68-1.11,4.26,4.26,0,0,1-1-3Zm1.78.16a3.23,3.23,0,0,0,.5,1.91,1.66,1.66,0,0,0,1.41.69,1.61,1.61,0,0,0,1.4-.7,3.5,3.5,0,0,0,.5-2.06,3.17,3.17,0,0,0-.51-1.9,1.73,1.73,0,0,0-2.79,0A3.47,3.47,0,0,0,617.4,57.7Z"/><path class="cls-10" d="M624.16,57.56a4.69,4.69,0,0,1,.85-2.94,2.71,2.71,0,0,1,2.28-1.11,2.6,2.6,0,0,1,2,.87V50.33h1.78V61.58h-1.61l-.09-.82a2.62,2.62,0,0,1-2.13,1A2.69,2.69,0,0,1,625,60.6,4.82,4.82,0,0,1,624.16,57.56Zm1.78.15a3.32,3.32,0,0,0,.46,1.89,1.5,1.5,0,0,0,1.32.67,1.68,1.68,0,0,0,1.6-1V55.92a1.65,1.65,0,0,0-1.58-1,1.5,1.5,0,0,0-1.33.69A3.59,3.59,0,0,0,625.94,57.71Z"/><path class="cls-10" d="M634.87,61.58h-1.78V53.65h1.78Zm-.33-11.2h2l-2,2.22h-1.43Z"/><path class="cls-10" d="M638.79,61.58H637V50.33h1.78Z"/><path class="cls-10" d="M651.4,57.7a4.7,4.7,0,0,1-.83,2.93,2.91,2.91,0,0,1-4.33.24v3.75h-1.78v-11h1.64l.07.81a2.62,2.62,0,0,1,2.14-1,2.7,2.7,0,0,1,2.27,1.08,4.84,4.84,0,0,1,.82,3Zm-1.77-.16a3.33,3.33,0,0,0-.47-1.88,1.56,1.56,0,0,0-1.35-.7,1.64,1.64,0,0,0-1.57.9v3.52a1.64,1.64,0,0,0,1.58.92,1.54,1.54,0,0,0,1.33-.68A3.65,3.65,0,0,0,649.63,57.54Z"/><path class="cls-10" d="M652.58,57.54a4.69,4.69,0,0,1,.46-2.1A3.32,3.32,0,0,1,654.33,54a3.62,3.62,0,0,1,1.92-.5,3.47,3.47,0,0,1,2.61,1,4.12,4.12,0,0,1,1.08,2.74v.42a4.72,4.72,0,0,1-.45,2.09,3.32,3.32,0,0,1-1.29,1.43,3.61,3.61,0,0,1-1.93.5,3.46,3.46,0,0,1-2.69-1.11,4.3,4.3,0,0,1-1-3Zm1.78.16a3.16,3.16,0,0,0,.5,1.91,1.66,1.66,0,0,0,1.41.69,1.62,1.62,0,0,0,1.4-.7,3.58,3.58,0,0,0,.5-2.06,3.17,3.17,0,0,0-.51-1.9,1.67,1.67,0,0,0-1.41-.71,1.64,1.64,0,0,0-1.38.7A3.47,3.47,0,0,0,654.36,57.7Z"/><path class="cls-10" d="M661.12,57.56a4.69,4.69,0,0,1,.85-2.94,2.7,2.7,0,0,1,2.27-1.11,2.61,2.61,0,0,1,2,.87V50.33h1.78V61.58h-1.61l-.09-.82a2.62,2.62,0,0,1-2.13,1A2.69,2.69,0,0,1,662,60.6,4.82,4.82,0,0,1,661.12,57.56Zm1.78.15a3.32,3.32,0,0,0,.46,1.89,1.5,1.5,0,0,0,1.32.67,1.68,1.68,0,0,0,1.6-1V55.92a1.65,1.65,0,0,0-1.58-1,1.5,1.5,0,0,0-1.33.69A3.59,3.59,0,0,0,662.9,57.71Z"/><path class="cls-10" d="M671.81,61.58H670V50.33h1.78Z"/><path class="cls-10" d="M677.24,61.72a3.69,3.69,0,0,1-2.75-1.06,3.87,3.87,0,0,1-1-2.84V57.6a4.82,4.82,0,0,1,.46-2.12A3.44,3.44,0,0,1,675.19,54a3.34,3.34,0,0,1,1.84-.52,3.1,3.1,0,0,1,2.5,1,4.35,4.35,0,0,1,.88,2.92v.72h-5.17a2.37,2.37,0,0,0,.65,1.55,2,2,0,0,0,1.45.57,2.41,2.41,0,0,0,2-1l1,.92a3.23,3.23,0,0,1-1.27,1.1A4,4,0,0,1,677.24,61.72ZM677,54.93a1.48,1.48,0,0,0-1.18.52,2.6,2.6,0,0,0-.57,1.42h3.39v-.13a2.18,2.18,0,0,0-.48-1.35A1.51,1.51,0,0,0,677,54.93Z"/><path class="cls-10" d="M694.17,61.58h-1.84V56.85h-4.77v4.73H685.7V50.91h1.86v4.44h4.77V50.91h1.84Z"/><path class="cls-10" d="M696.36,61.58V50.91h3.15a5,5,0,0,1,2.51.63,4.3,4.3,0,0,1,1.69,1.79,5.68,5.68,0,0,1,.6,2.65v.54a5.64,5.64,0,0,1-.6,2.66A4.2,4.2,0,0,1,702,61a5.14,5.14,0,0,1-2.56.63Zm1.85-9.17V60.1h1.21a2.81,2.81,0,0,0,2.24-.91,4,4,0,0,0,.79-2.62V56a4.1,4.1,0,0,0-.75-2.65,2.66,2.66,0,0,0-2.19-.91Z"/><path class="cls-10" d="M708,57.62v4h-1.85V50.91h4.08a4.14,4.14,0,0,1,2.84.93,3.16,3.16,0,0,1,1,2.47,3,3,0,0,1-1,2.44,4.34,4.34,0,0,1-2.88.87Zm0-1.49h2.23a2.2,2.2,0,0,0,1.51-.47,1.73,1.73,0,0,0,.52-1.34,1.84,1.84,0,0,0-.53-1.38,2,2,0,0,0-1.45-.53H708Z"/><line class="cls-9" x1="546.12" y1="44.42" x2="546.12" y2="67.13"/><line class="cls-9" x1="211.1" y1="285.99" x2="211.1" y2="308.69"/><line class="cls-9" x1="195.83" y1="325.04" x2="195.83" y2="347.74"/><line class="cls-9" x1="397.3" y1="364.09" x2="397.3" y2="386.79"/><line class="cls-9" x1="226.99" y1="246.94" x2="226.99" y2="269.65"/><line class="cls-9" x1="230.24" y1="207.89" x2="230.24" y2="230.6"/><line class="cls-9" x1="255.58" y1="168.84" x2="255.58" y2="191.55"/><line class="cls-9" x1="278.13" y1="129.79" x2="278.13" y2="152.5"/></svg>