<svg id="Layer_1" data-name="Layer 1" xmlns="http://www.w3.org/2000/svg" viewBox="0 0 520 451.8"><defs><style>.cls-1,.cls-9{opacity:0.8;}.cls-2,.cls-9{fill:#3892dc;}.cls-10,.cls-3{opacity:0.7;}.cls-10,.cls-4{fill:#b4bfca;}.cls-5{fill:#a4aeb8;}.cls-6{fill:#231f20;}.cls-7,.cls-8{fill:none;}.cls-7{stroke:#231f20;stroke-miterlimit:10;stroke-width:3px;}.cls-8{stroke:#808285;stroke-linecap:square;stroke-linejoin:round;stroke-width:0.3px;stroke-dasharray:5.69;}</style></defs><path d="M9.58,18.82,8.84,20v3.84H6.18V10.55H8.84v5.09l.68-1.48,1.86-3.61h3.08l-3.38,5.82L15,23.85H12Z"/><path d="M24.59,21.29v2.56H17.94V10.55h2.7V21.29Z"/><path d="M27.78,10.55h2.7v13.3h-2.7Z"/><path d="M46.17,10.55v13.3H43.53V20.58c.08-1.61.13-3.23.21-4.84l-.1,0-1.19,3.5L41.78,21H39.12l-.66-1.8-1.2-3.5-.09,0c0,1.61.13,3.23.19,4.84v3.27H34.73V10.55h2.72l2.09,5c.27.66.72,1.82.88,2.31h.07c.15-.49.61-1.65.87-2.31l2.09-5Z"/><path d="M55.35,21.65H52.54l-.44,2.2H49.31l3.19-13.3h2.89l3.19,13.3H55.79Zm-.53-2.57-.31-1.52c-.17-.95-.4-2.56-.53-3.65h-.07c-.14,1.09-.35,2.7-.54,3.65l-.3,1.52Z"/><path d="M68,13.12h-2.6V23.85H62.67V13.12H60.06V10.55h8Z"/><path d="M71.21,10.55h2.7v13.3h-2.7Z"/><path d="M77.79,19.78V14.62c0-2.81,1.52-4.33,4.12-4.33s4.14,1.52,4.24,4.33h-2.7c-.08-1.22-.53-1.71-1.56-1.71-.81,0-1.29.53-1.29,1.71v5.16c0,1.14.46,1.68,1.29,1.68,1,0,1.52-.5,1.6-1.68h2.7c-.06,2.8-1.6,4.3-4.3,4.3S77.79,22.58,77.79,19.78Z"/><path d="M93.05,18.82,92.3,20v3.84H89.64V10.55H92.3v5.09L93,14.16l1.86-3.61h3.08l-3.38,5.82,4,7.48h-3Z"/><path d="M108.45,21.29v2.56h-7V10.55h6.85v2.57H104.1v2.75h3.78v2.47H104.1v2.95Zm-3.06-12h-1.78l1.78-2.6h2.15Z"/><path d="M120.59,13.12v2.75h3.5v2.47h-3.5v5.51H117.9V10.55h6.57v2.57Z"/><path d="M128,10.55h2.69v13.3H128Z"/><path d="M134.94,10.55h2.66l2.53,5.78c.32.83.62,1.71,1,2.54l0-.05a48.21,48.21,0,0,1-.38-5.19V10.55h2.66v13.3h-2.66l-2.24-5.15-1.19-3.25-.06.06a53.69,53.69,0,0,1,.34,5.64v2.7h-2.66Z"/><path d="M152.59,21.65h-2.81l-.44,2.2h-2.79l3.19-13.3h2.89l3.19,13.3H153Zm-.53-2.57-.3-1.52c-.18-.95-.4-2.56-.54-3.65h-.07c-.14,1.09-.35,2.7-.54,3.65l-.3,1.52Z"/><path d="M159,10.55h2.66l2.52,5.78c.33.83.63,1.71,1,2.54l.06-.05a45.76,45.76,0,0,1-.38-5.19V10.55h2.66v13.3h-2.66l-2.24-5.15-1.2-3.25-.06.06a53.8,53.8,0,0,1,.35,5.64v2.7H159Z"/><path d="M171.31,19.78V14.62c0-2.81,1.52-4.33,4.12-4.33s4.14,1.52,4.23,4.33H177c-.08-1.22-.54-1.71-1.56-1.71-.82,0-1.29.53-1.29,1.71v5.16c0,1.14.45,1.68,1.29,1.68,1,0,1.52-.5,1.6-1.68h2.69c0,2.8-1.59,4.3-4.29,4.3S171.31,22.58,171.31,19.78Z"/><path d="M190.21,21.29v2.56h-7.05V10.55H190v2.57h-4.16v2.75h3.78v2.47h-3.78v2.95Z"/><path d="M198.53,10.55h2.8l1.19,6.29c.19,1,.42,2.6.55,3.7h.08c.13-1.1.36-2.73.55-3.7l1.2-6.29h2.79l-3.15,13.3h-2.85Z"/><path d="M220.17,19.39h-.95v4.46h-2.69V10.55h3.85c2.64,0,4.2,1.64,4.2,4.43a4.2,4.2,0,0,1-1.84,3.84l2.51,5H222.3Zm-.95-2.57h1.12c.95,0,1.47-.64,1.47-1.84s-.52-1.86-1.47-1.86h-1.12Z"/><path d="M228,19.54V14.86c0-2.85,1.61-4.54,4.31-4.54s4.31,1.69,4.31,4.54v4.68c0,2.85-1.61,4.54-4.31,4.54S228,22.39,228,19.54Zm5.83,0V14.86c0-1.25-.51-1.91-1.52-1.91s-1.52.66-1.52,1.91v4.68c0,1.25.51,1.92,1.52,1.92S233.87,20.79,233.87,19.54Z"/><path d="M240.16,19.78V14.62c0-2.81,1.52-4.33,4.12-4.33s4.14,1.52,4.24,4.33h-2.7c-.07-1.22-.53-1.71-1.56-1.71-.81,0-1.29.53-1.29,1.71v5.16c0,1.14.46,1.68,1.29,1.68,1.05,0,1.52-.5,1.6-1.68h2.7c-.06,2.8-1.6,4.3-4.3,4.3S240.16,22.58,240.16,19.78Z"/><path d="M259.06,21.29v2.56h-7V10.55h6.86v2.57h-4.17v2.75h3.79v2.47h-3.79v2.95Z"/><path d="M267.77,22.25c0-4.21,4.75-6.11,4.75-8.34a1,1,0,0,0-1-1.15c-.68,0-1.1.49-1.14,1.38H267.9c.11-2.52,1.39-3.82,3.53-3.82a3.39,3.39,0,0,1,3.65,3.46c0,3.4-4.6,5.66-4.6,7.68h4.66v2.39h-7.37Z"/><path d="M278.37,20V14.41c0-2.55,1.42-4.05,3.82-4.05s3.84,1.5,3.84,4.05V20c0,2.53-1.43,4-3.84,4S278.37,22.56,278.37,20Zm5.15,0V14.43c0-1.09-.46-1.66-1.33-1.66s-1.31.57-1.31,1.66v5.62c0,1.06.43,1.62,1.31,1.62S283.52,21.11,283.52,20.05Z"/><path d="M293.55,10.55v13.3H291V14l-1.83,1V12.26l2.78-1.71Z"/><path d="M304.85,19.56v.6a3.78,3.78,0,1,1-7.56,0v-.6a3.42,3.42,0,0,1,1.26-2.7,3.72,3.72,0,0,1-1-2.49V14a3.56,3.56,0,1,1,7.11,0v.4a3.62,3.62,0,0,1-1.05,2.47A3.4,3.4,0,0,1,304.85,19.56Zm-2.56,0c0-1-.42-1.39-1.22-1.39s-1.21.42-1.21,1.39v.57c0,1,.42,1.4,1.21,1.4s1.22-.42,1.22-1.4Zm-2.24-5.13c0,.93.36,1.35,1,1.35s1-.42,1-1.35v-.36c0-.92-.36-1.28-1-1.28s-1,.36-1,1.28Z"/><g class="cls-1"><rect class="cls-2" x="6.78" y="50.96" width="16.28" height="16.28"/></g><path class="cls-2" d="M38,60.94v4H36.15V54.23h4.08a4.11,4.11,0,0,1,2.83.93,3.15,3.15,0,0,1,1,2.47,3,3,0,0,1-1,2.44,4.36,4.36,0,0,1-2.89.87Zm0-1.49h2.23a2.17,2.17,0,0,0,1.5-.47,1.7,1.7,0,0,0,.52-1.34,1.83,1.83,0,0,0-.52-1.38,2,2,0,0,0-1.45-.53H38Z"/><path class="cls-2" d="M45.13,60.86a4.76,4.76,0,0,1,.46-2.1,3.35,3.35,0,0,1,1.3-1.43,3.62,3.62,0,0,1,1.92-.5,3.43,3.43,0,0,1,2.6,1,4,4,0,0,1,1.08,2.74V61a4.73,4.73,0,0,1-.45,2.1,3.38,3.38,0,0,1-1.29,1.43,3.73,3.73,0,0,1-1.94.5,3.45,3.45,0,0,1-2.68-1.11,4.3,4.3,0,0,1-1-3Zm1.78.15a3.17,3.17,0,0,0,.51,1.92,1.77,1.77,0,0,0,2.81,0,3.58,3.58,0,0,0,.5-2.06,3.1,3.1,0,0,0-.52-1.9,1.73,1.73,0,0,0-2.79,0A3.46,3.46,0,0,0,46.91,61Z"/><path class="cls-2" d="M58.45,62.74a.8.8,0,0,0-.39-.72,4.18,4.18,0,0,0-1.3-.44,7,7,0,0,1-1.52-.48,2,2,0,0,1-1.33-1.87,2.1,2.1,0,0,1,.86-1.72,3.42,3.42,0,0,1,2.2-.68,3.52,3.52,0,0,1,2.29.7,2.21,2.21,0,0,1,.88,1.82H58.36A1.11,1.11,0,0,0,58,58.5a1.45,1.45,0,0,0-1-.34,1.6,1.6,0,0,0-1,.27.86.86,0,0,0-.37.72.72.72,0,0,0,.35.64,4.62,4.62,0,0,0,1.39.46A6.35,6.35,0,0,1,59,60.8a2.34,2.34,0,0,1,.89.76,2,2,0,0,1,.29,1.09,2.07,2.07,0,0,1-.89,1.73A3.78,3.78,0,0,1,57,65a4,4,0,0,1-1.74-.35,2.84,2.84,0,0,1-1.18-1,2.24,2.24,0,0,1-.43-1.32h1.73a1.26,1.26,0,0,0,.48,1,1.82,1.82,0,0,0,1.16.34,1.78,1.78,0,0,0,1.07-.27A.82.82,0,0,0,58.45,62.74Z"/><path class="cls-2" d="M64.32,61.5l-.79.81V64.9H61.75V53.65h1.78v6.49l.56-.7L66.28,57h2.14l-3,3.3,3.26,4.63H66.67Z"/><path class="cls-2" d="M72.35,62.35,74,57h1.9L72.71,66.1a2.57,2.57,0,0,1-2.46,2,3.14,3.14,0,0,1-.86-.14V66.58l.34,0a1.75,1.75,0,0,0,1-.24,1.63,1.63,0,0,0,.54-.83l.26-.68L68.75,57h1.92Z"/><path class="cls-2" d="M79.11,55.05V57h1.4v1.32h-1.4v4.42a1,1,0,0,0,.18.66.84.84,0,0,0,.64.2,2.68,2.68,0,0,0,.62-.07v1.37a4,4,0,0,1-1.17.17c-1.37,0-2-.75-2-2.26V58.29H76V57h1.3V55.05Z"/><path class="cls-2" d="M83.52,57l0,.92a2.84,2.84,0,0,1,2.31-1.06c1.65,0,2.49.94,2.52,2.83V64.9H86.62V59.76a1.6,1.6,0,0,0-.33-1.11,1.35,1.35,0,0,0-1.07-.37,1.72,1.72,0,0,0-1.6,1V64.9H81.84V57Z"/><path class="cls-2" d="M95,64.12a2.74,2.74,0,0,1-2.23.92,2.46,2.46,0,0,1-2-.75,3.21,3.21,0,0,1-.66-2.18V57H92v5.11c0,1,.42,1.51,1.25,1.51A1.76,1.76,0,0,0,95,62.66V57h1.78V64.9H95.05Z"/><path class="cls-2" d="M100.78,55.05V57h1.39v1.32h-1.39v4.42a1,1,0,0,0,.17.66.87.87,0,0,0,.65.2,2.68,2.68,0,0,0,.62-.07v1.37a4.14,4.14,0,0,1-1.17.17c-1.37,0-2-.75-2-2.26V58.29H97.69V57H99V55.05Z"/><path class="cls-2" d="M107,65A3.67,3.67,0,0,1,104.28,64a3.87,3.87,0,0,1-1-2.84v-.22a4.69,4.69,0,0,1,.46-2.12A3.41,3.41,0,0,1,105,57.35a3.38,3.38,0,0,1,1.85-.52,3.1,3.1,0,0,1,2.5,1,4.35,4.35,0,0,1,.88,2.92v.72H105a2.43,2.43,0,0,0,.66,1.55,2,2,0,0,0,1.44.57,2.43,2.43,0,0,0,2-1l1,.92a3.23,3.23,0,0,1-1.27,1.1A4,4,0,0,1,107,65Zm-.21-6.79a1.47,1.47,0,0,0-1.18.52,2.61,2.61,0,0,0-.58,1.42h3.39v-.13a2.18,2.18,0,0,0-.47-1.35A1.52,1.52,0,0,0,106.81,58.25Zm.4-4.6h2l-2,2.22h-1.43Z"/><path class="cls-2" d="M117.89,61.5l-.79.81V64.9h-1.78V53.65h1.78v6.49l.56-.7L119.85,57H122L119,60.27l3.26,4.63h-2.06Z"/><path class="cls-2" d="M125,64.9h-1.78V53.65H125Z"/><path class="cls-2" d="M127,54.91a1,1,0,0,1,.26-.68A1,1,0,0,1,128,54a1,1,0,0,1,.75.27.92.92,0,0,1,.26.68.88.88,0,0,1-.26.67,1,1,0,0,1-.75.27,1,1,0,0,1-.74-.27A.92.92,0,0,1,127,54.91Zm1.89,10h-1.78V57h1.78Z"/><path class="cls-2" d="M132.48,57l.05.83a2.86,2.86,0,0,1,2.29-1A2.18,2.18,0,0,1,137,58a2.81,2.81,0,0,1,2.43-1.21,2.49,2.49,0,0,1,2,.72,3.23,3.23,0,0,1,.65,2.14V64.9h-1.78V59.74a1.6,1.6,0,0,0-.33-1.11,1.76,1.76,0,0,0-2.08,0,1.69,1.69,0,0,0-.54.85V64.9h-1.78V59.68a1.27,1.27,0,0,0-1.43-1.4,1.58,1.58,0,0,0-1.52.87V64.9H130.8V57Z"/><path class="cls-2" d="M148.59,64.9a3.37,3.37,0,0,1-.2-.74,3,3,0,0,1-4,.2,2.17,2.17,0,0,1-.75-1.68,2.24,2.24,0,0,1,.94-2,4.55,4.55,0,0,1,2.69-.67h1.09v-.52a1.39,1.39,0,0,0-.34-1,1.36,1.36,0,0,0-1.05-.37,1.59,1.59,0,0,0-1,.3,1,1,0,0,0-.39.78h-1.77a2,2,0,0,1,.43-1.22,2.86,2.86,0,0,1,1.17-.89,4.06,4.06,0,0,1,1.66-.32,3.35,3.35,0,0,1,2.22.69,2.5,2.5,0,0,1,.85,2v3.58a4,4,0,0,0,.3,1.7v.13Zm-2-1.29a2,2,0,0,0,1-.25,1.72,1.72,0,0,0,.7-.69V61.18h-1a2.65,2.65,0,0,0-1.49.34,1.11,1.11,0,0,0-.49,1,1,1,0,0,0,.34.82A1.31,1.31,0,0,0,146.64,63.61Z"/><path class="cls-2" d="M154.21,55.05V57h1.39v1.32h-1.39v4.42a1,1,0,0,0,.17.66.87.87,0,0,0,.65.2,2.68,2.68,0,0,0,.62-.07v1.37a4.14,4.14,0,0,1-1.17.17c-1.37,0-2.06-.75-2.06-2.26V58.29h-1.3V57h1.3V55.05Z"/><path class="cls-2" d="M157,54.91a.92.92,0,0,1,.26-.68A1,1,0,0,1,158,54a1,1,0,0,1,.75.27,1,1,0,0,1,.26.68.92.92,0,0,1-.26.67,1,1,0,0,1-.75.27,1,1,0,0,1-.74-.27A.88.88,0,0,1,157,54.91Zm1.89,10h-1.78V57h1.78Z"/><path class="cls-2" d="M164.05,63.62a1.59,1.59,0,0,0,1.1-.39,1.29,1.29,0,0,0,.47-1h1.68a2.62,2.62,0,0,1-.46,1.39,3.12,3.12,0,0,1-1.17,1,3.51,3.51,0,0,1-1.6.37A3.41,3.41,0,0,1,161.43,64a4.28,4.28,0,0,1-1-3v-.18a4.18,4.18,0,0,1,1-2.9,3.34,3.34,0,0,1,2.63-1.08,3.27,3.27,0,0,1,2.31.82,3,3,0,0,1,.93,2.16h-1.68a1.65,1.65,0,0,0-.46-1.12,1.51,1.51,0,0,0-1.11-.44,1.58,1.58,0,0,0-1.34.63,3.18,3.18,0,0,0-.47,1.9v.29A3.24,3.24,0,0,0,162.7,63,1.57,1.57,0,0,0,164.05,63.62Z"/><path class="cls-2" d="M171.22,61.5l-.79.81V64.9h-1.78V53.65h1.78v6.49l.55-.7L173.17,57h2.14l-2.94,3.3,3.26,4.63h-2.06Z"/><path class="cls-2" d="M179.82,65A3.67,3.67,0,0,1,177.08,64,3.84,3.84,0,0,1,176,61.14v-.22a4.82,4.82,0,0,1,.46-2.12,3.44,3.44,0,0,1,1.29-1.45,3.34,3.34,0,0,1,1.84-.52,3.09,3.09,0,0,1,2.5,1,4.36,4.36,0,0,1,.89,2.92v.72h-5.18a2.37,2.37,0,0,0,.65,1.55,2,2,0,0,0,1.45.57,2.4,2.4,0,0,0,2-1l1,.92a3.23,3.23,0,0,1-1.27,1.1A4,4,0,0,1,179.82,65Zm-.21-6.79a1.49,1.49,0,0,0-1.19.52,2.6,2.6,0,0,0-.57,1.42h3.39v-.13a2.18,2.18,0,0,0-.48-1.35A1.5,1.5,0,0,0,179.61,58.25Zm.4-4.6h2l-2,2.22h-1.43Z"/><path class="cls-2" d="M188.74,64.9V58.29h-1.21V57h1.21v-.72a2.72,2.72,0,0,1,.73-2,2.8,2.8,0,0,1,2.05-.72,4.58,4.58,0,0,1,1,.13l-.05,1.4a3.37,3.37,0,0,0-.68-.06c-.85,0-1.27.43-1.27,1.31V57h1.61v1.32h-1.61V64.9Z"/><path class="cls-2" d="M193.43,54.91a1,1,0,0,1,.26-.68,1,1,0,0,1,.75-.27,1,1,0,0,1,.74.27.93.93,0,0,1,.27.68.89.89,0,0,1-.27.67,1,1,0,0,1-.74.27,1,1,0,0,1-.75-.27A.92.92,0,0,1,193.43,54.91Zm1.89,10h-1.78V57h1.78Z"/><path class="cls-2" d="M198.91,57l.05.92a2.86,2.86,0,0,1,2.31-1.06c1.65,0,2.49.94,2.52,2.83V64.9H202V59.76a1.6,1.6,0,0,0-.33-1.11,1.32,1.32,0,0,0-1.06-.37,1.73,1.73,0,0,0-1.61,1V64.9h-1.78V57Z"/><path class="cls-2" d="M210.34,64.9a2.82,2.82,0,0,1-.21-.74,2.76,2.76,0,0,1-2.08.88,2.79,2.79,0,0,1-2-.68,2.17,2.17,0,0,1-.75-1.68,2.24,2.24,0,0,1,.94-2,4.59,4.59,0,0,1,2.69-.67h1.09v-.52a1.39,1.39,0,0,0-.34-1,1.36,1.36,0,0,0-1-.37,1.56,1.56,0,0,0-1,.3,1,1,0,0,0-.39.78h-1.78A2,2,0,0,1,206,58a2.82,2.82,0,0,1,1.18-.89,4,4,0,0,1,1.65-.32,3.35,3.35,0,0,1,2.22.69,2.47,2.47,0,0,1,.85,2v3.58a4,4,0,0,0,.3,1.7v.13Zm-2-1.29a2,2,0,0,0,1-.25,1.66,1.66,0,0,0,.7-.69V61.18h-1a2.61,2.61,0,0,0-1.48.34,1.11,1.11,0,0,0-.5,1,1,1,0,0,0,.34.82A1.33,1.33,0,0,0,208.38,63.61Z"/><path class="cls-2" d="M215.37,57l0,.92a2.86,2.86,0,0,1,2.31-1.06c1.65,0,2.49.94,2.52,2.83V64.9h-1.78V59.76a1.6,1.6,0,0,0-.33-1.11,1.34,1.34,0,0,0-1.06-.37,1.72,1.72,0,0,0-1.61,1V64.9h-1.78V57Z"/><path class="cls-2" d="M225.32,63.62a1.59,1.59,0,0,0,1.1-.39,1.33,1.33,0,0,0,.47-1h1.68a2.71,2.71,0,0,1-.46,1.39,3.07,3.07,0,0,1-1.18,1,3.44,3.44,0,0,1-1.59.37A3.41,3.41,0,0,1,222.7,64a4.28,4.28,0,0,1-1-3v-.18a4.23,4.23,0,0,1,1-2.9,3.38,3.38,0,0,1,2.64-1.08,3.24,3.24,0,0,1,2.3.82,2.93,2.93,0,0,1,.94,2.16h-1.68a1.65,1.65,0,0,0-.46-1.12,1.54,1.54,0,0,0-1.11-.44,1.58,1.58,0,0,0-1.34.63,3.18,3.18,0,0,0-.47,1.9v.29A3.24,3.24,0,0,0,224,63,1.57,1.57,0,0,0,225.32,63.62Z"/><path class="cls-2" d="M233.4,65A3.67,3.67,0,0,1,230.66,64a3.87,3.87,0,0,1-1-2.84v-.22a4.69,4.69,0,0,1,.46-2.12,3.41,3.41,0,0,1,1.28-1.45,3.38,3.38,0,0,1,1.85-.52,3.1,3.1,0,0,1,2.5,1,4.35,4.35,0,0,1,.88,2.92v.72H231.4a2.38,2.38,0,0,0,.66,1.55,2,2,0,0,0,1.44.57,2.43,2.43,0,0,0,2-1l1,.92a3.3,3.3,0,0,1-1.27,1.1A4,4,0,0,1,233.4,65Zm-.21-6.79a1.47,1.47,0,0,0-1.18.52,2.61,2.61,0,0,0-.58,1.42h3.39v-.13a2.18,2.18,0,0,0-.47-1.35A1.52,1.52,0,0,0,233.19,58.25Z"/><g class="cls-3"><rect class="cls-4" x="6.78" y="83.82" width="16.28" height="16.28"/></g><path class="cls-5" d="M44.28,94.29A3.77,3.77,0,0,1,43,97a4.26,4.26,0,0,1-2.92,1,4.15,4.15,0,0,1-2.24-.6,4,4,0,0,1-1.5-1.72A6.14,6.14,0,0,1,35.81,93V92a6.35,6.35,0,0,1,.53-2.66,4,4,0,0,1,1.54-1.77A4.26,4.26,0,0,1,40.19,87a4.1,4.1,0,0,1,2.84,1,4,4,0,0,1,1.25,2.71H42.44A2.64,2.64,0,0,0,41.77,89a2.22,2.22,0,0,0-1.58-.51,2.16,2.16,0,0,0-1.86.88,4.43,4.43,0,0,0-.66,2.59v1a4.72,4.72,0,0,0,.62,2.64,2.07,2.07,0,0,0,1.81.91,2.42,2.42,0,0,0,1.64-.49,2.58,2.58,0,0,0,.7-1.64Z"/><path class="cls-5" d="M47.52,90.7a2.8,2.8,0,0,1,2.21-1c1.68,0,2.54,1,2.57,2.9v5.17H50.52V92.65a1.56,1.56,0,0,0-.36-1.16,1.43,1.43,0,0,0-1-.34,1.72,1.72,0,0,0-1.6.95v5.66H45.74V86.51h1.78Z"/><path class="cls-5" d="M56.87,95.22l1.61-5.38h1.9L57.23,99a2.58,2.58,0,0,1-2.47,2,3.13,3.13,0,0,1-.85-.14V99.45l.34,0a1.77,1.77,0,0,0,1-.24,1.63,1.63,0,0,0,.54-.83l.25-.68-2.78-7.88h1.92Z"/><path class="cls-5" d="M68.35,93.88a4.77,4.77,0,0,1-.82,2.94,2.69,2.69,0,0,1-2.27,1.09,2.58,2.58,0,0,1-2.17-1l-.08.85H61.39V86.51h1.78V90.6a2.62,2.62,0,0,1,2.08-.91,2.7,2.7,0,0,1,2.27,1.08,4.79,4.79,0,0,1,.83,3Zm-1.78-.15a3.35,3.35,0,0,0-.45-1.93,1.52,1.52,0,0,0-1.32-.65,1.67,1.67,0,0,0-1.63,1v3.27a1.67,1.67,0,0,0,1.64,1,1.51,1.51,0,0,0,1.29-.62A3.21,3.21,0,0,0,66.57,94Z"/><path class="cls-5" d="M73.33,97.91a3.67,3.67,0,0,1-2.74-1.06,3.89,3.89,0,0,1-1-2.84v-.22A4.69,4.69,0,0,1,70,91.67a3.39,3.39,0,0,1,3.13-2,3.11,3.11,0,0,1,2.5,1,4.34,4.34,0,0,1,.88,2.92v.72H71.33A2.38,2.38,0,0,0,72,95.92a2,2,0,0,0,1.44.57,2.43,2.43,0,0,0,2-1l1,.92a3.3,3.3,0,0,1-1.27,1.1A4,4,0,0,1,73.33,97.91ZM73,87.64l1.07-1.13h1.52v.07l-2,2h-1.1l-2-2.05v-.06h1.51Zm.13,3.48a1.49,1.49,0,0,0-1.18.51,2.67,2.67,0,0,0-.58,1.43h3.39v-.13a2.19,2.19,0,0,0-.47-1.35A1.49,1.49,0,0,0,73.12,91.12Z"/><path class="cls-5" d="M79.75,89.84v8.63a2.55,2.55,0,0,1-.61,1.85,2.29,2.29,0,0,1-1.76.65,3.69,3.69,0,0,1-.95-.13V99.43a2.48,2.48,0,0,0,.63.07c.59,0,.89-.32.91-1V89.84Zm-1.94-2.06a1,1,0,0,1,.26-.68,1.18,1.18,0,0,1,1.5,0,1,1,0,0,1,.26.68.94.94,0,0,1-.26.67,1.18,1.18,0,0,1-1.5,0A.94.94,0,0,1,77.81,87.78Z"/><path class="cls-5" d="M83.56,97.76H81.78V89.84h1.78Zm-.33-11.19h2l-2,2.22H81.8Z"/><path class="cls-5" d="M88.84,96.49A1.6,1.6,0,0,0,90,96.1a1.35,1.35,0,0,0,.47-1H92.1a2.57,2.57,0,0,1-.47,1.38,2.92,2.92,0,0,1-1.17,1,3.44,3.44,0,0,1-1.59.37,3.38,3.38,0,0,1-2.64-1.08,4.23,4.23,0,0,1-1-3v-.18a4.23,4.23,0,0,1,1-2.9,3.39,3.39,0,0,1,2.64-1.09,3.25,3.25,0,0,1,2.3.83,2.93,2.93,0,0,1,.94,2.16H90.42A1.64,1.64,0,0,0,90,91.56a1.51,1.51,0,0,0-1.11-.44,1.56,1.56,0,0,0-1.33.63,3.16,3.16,0,0,0-.47,1.9v.28a3.29,3.29,0,0,0,.46,1.93A1.57,1.57,0,0,0,88.84,96.49Z"/><path class="cls-5" d="M95.36,97.76H93.58V89.84h1.78ZM95,86.57h2l-2,2.22H93.59Z"/><path class="cls-5" d="M100.78,93.74a4.75,4.75,0,0,1,.85-2.94,2.73,2.73,0,0,1,2.28-1.11,2.62,2.62,0,0,1,2,.88V86.51h1.78V97.76h-1.62l-.08-.82a2.63,2.63,0,0,1-2.13,1,2.72,2.72,0,0,1-2.26-1.12A4.91,4.91,0,0,1,100.78,93.74Zm1.78.16a3.29,3.29,0,0,0,.47,1.88,1.49,1.49,0,0,0,1.32.68,1.68,1.68,0,0,0,1.6-1V92.1a1.67,1.67,0,0,0-1.59-.95,1.52,1.52,0,0,0-1.33.69A3.67,3.67,0,0,0,102.56,93.9Z"/><path class="cls-5" d="M109.25,93.73a4.63,4.63,0,0,1,.46-2.1A3.35,3.35,0,0,1,111,90.2a3.58,3.58,0,0,1,1.92-.51,3.46,3.46,0,0,1,2.6,1,4,4,0,0,1,1.08,2.74v.41a4.76,4.76,0,0,1-.45,2.1,3.38,3.38,0,0,1-1.29,1.43,3.76,3.76,0,0,1-1.94.5,3.41,3.41,0,0,1-2.68-1.12,4.26,4.26,0,0,1-1-3Zm1.78.15a3.25,3.25,0,0,0,.5,1.92,1.66,1.66,0,0,0,1.41.69,1.61,1.61,0,0,0,1.4-.7,3.5,3.5,0,0,0,.5-2.06,3.2,3.2,0,0,0-.51-1.91,1.67,1.67,0,0,0-1.4-.7,1.63,1.63,0,0,0-1.39.69A3.49,3.49,0,0,0,111,93.88Z"/><path class="cls-5" d="M122.48,97.76v-6.6h-1.2V89.84h1.2v-.73a2.72,2.72,0,0,1,.74-2,2.8,2.8,0,0,1,2-.72,4,4,0,0,1,1,.13l0,1.39a4.5,4.5,0,0,0-.68,0,1.14,1.14,0,0,0-1.28,1.31v.7h1.62v1.32h-1.62v6.6Z"/><path class="cls-5" d="M130.49,97.91a3.67,3.67,0,0,1-2.74-1.06,3.89,3.89,0,0,1-1-2.84v-.22a4.82,4.82,0,0,1,.45-2.12,3.53,3.53,0,0,1,1.29-1.46,3.46,3.46,0,0,1,1.85-.52,3.12,3.12,0,0,1,2.5,1,4.39,4.39,0,0,1,.88,2.92v.72h-5.18a2.33,2.33,0,0,0,.66,1.55,2,2,0,0,0,1.44.57,2.4,2.4,0,0,0,2-1l1,.92a3.16,3.16,0,0,1-1.27,1.1A4,4,0,0,1,130.49,97.91Zm-.21-6.79a1.51,1.51,0,0,0-1.19.51,2.67,2.67,0,0,0-.57,1.43h3.39v-.13a2.13,2.13,0,0,0-.48-1.35A1.45,1.45,0,0,0,130.28,91.12Zm.4-4.61h2l-2,2.22h-1.43Z"/><path class="cls-5" d="M139.2,91.47a4.4,4.4,0,0,0-.73-.06,1.63,1.63,0,0,0-1.64.93v5.42h-1.78V89.84h1.7l0,.89a2,2,0,0,1,1.79-1,1.65,1.65,0,0,1,.63.11Z"/><path class="cls-5" d="M139.73,93.73a4.63,4.63,0,0,1,.46-2.1,3.39,3.39,0,0,1,1.29-1.43,3.63,3.63,0,0,1,1.92-.51,3.48,3.48,0,0,1,2.61,1,4.1,4.1,0,0,1,1.08,2.74v.41a4.76,4.76,0,0,1-.45,2.1,3.38,3.38,0,0,1-1.29,1.43,3.7,3.7,0,0,1-1.93.5,3.43,3.43,0,0,1-2.69-1.12,4.25,4.25,0,0,1-1-3Zm1.78.15a3.18,3.18,0,0,0,.5,1.92,1.66,1.66,0,0,0,1.41.69,1.61,1.61,0,0,0,1.4-.7,3.58,3.58,0,0,0,.5-2.06,3.2,3.2,0,0,0-.51-1.91,1.69,1.69,0,0,0-1.41-.7,1.63,1.63,0,0,0-1.38.69A3.49,3.49,0,0,0,141.51,93.88Z"/><path class="cls-5" d="M151.28,95.51,153,89.84h1.84l-2.75,7.92h-1.54l-2.77-7.92h1.84Z"/><path class="cls-5" d="M159.3,97.91a3.67,3.67,0,0,1-2.74-1.06A3.89,3.89,0,0,1,155.51,94v-.22a4.69,4.69,0,0,1,.46-2.12,3.39,3.39,0,0,1,3.13-2,3.11,3.11,0,0,1,2.5,1,4.34,4.34,0,0,1,.88,2.92v.72H157.3a2.43,2.43,0,0,0,.66,1.55,2,2,0,0,0,1.45.57,2.41,2.41,0,0,0,2-1l1,.92a3.23,3.23,0,0,1-1.27,1.1A4,4,0,0,1,159.3,97.91Zm-.21-6.79a1.49,1.49,0,0,0-1.18.51,2.75,2.75,0,0,0-.58,1.43h3.39v-.13a2.13,2.13,0,0,0-.47-1.35A1.49,1.49,0,0,0,159.09,91.12Zm.4-4.61h2l-2,2.22h-1.42Z"/><path class="cls-5" d="M165.62,90.7a2.78,2.78,0,0,1,2.2-1c1.69,0,2.55,1,2.57,2.9v5.17h-1.78V92.65a1.61,1.61,0,0,0-.35-1.16,1.46,1.46,0,0,0-1-.34,1.71,1.71,0,0,0-1.59.95v5.66h-1.78V86.51h1.78Z"/><path class="cls-5" d="M171.86,93.73a4.63,4.63,0,0,1,.46-2.1,3.39,3.39,0,0,1,1.29-1.43,3.63,3.63,0,0,1,1.92-.51,3.48,3.48,0,0,1,2.61,1,4.1,4.1,0,0,1,1.08,2.74v.41a4.63,4.63,0,0,1-.46,2.1,3.35,3.35,0,0,1-1.28,1.43,3.76,3.76,0,0,1-1.94.5,3.44,3.44,0,0,1-2.69-1.12,4.25,4.25,0,0,1-1-3Zm1.78.15a3.25,3.25,0,0,0,.5,1.92,1.66,1.66,0,0,0,1.41.69,1.61,1.61,0,0,0,1.4-.7,3.5,3.5,0,0,0,.5-2.06,3.2,3.2,0,0,0-.51-1.91,1.69,1.69,0,0,0-1.41-.7,1.63,1.63,0,0,0-1.38.69A3.49,3.49,0,0,0,173.64,93.88Z"/><path class="cls-5" d="M191.41,93.88a4.71,4.71,0,0,1-.84,2.94,2.9,2.9,0,0,1-4.33.23v3.76h-1.78v-11h1.64l.08.81a2.6,2.6,0,0,1,2.13-1,2.7,2.7,0,0,1,2.27,1.08,4.84,4.84,0,0,1,.83,3Zm-1.78-.15a3.25,3.25,0,0,0-.47-1.88,1.51,1.51,0,0,0-1.35-.7,1.64,1.64,0,0,0-1.57.9v3.52a1.66,1.66,0,0,0,1.58.92,1.54,1.54,0,0,0,1.33-.68A3.65,3.65,0,0,0,189.63,93.73Z"/><path class="cls-5" d="M192.58,93.73a4.63,4.63,0,0,1,.46-2.1,3.35,3.35,0,0,1,1.3-1.43,3.58,3.58,0,0,1,1.92-.51,3.47,3.47,0,0,1,2.6,1,4.1,4.1,0,0,1,1.08,2.74v.41a4.76,4.76,0,0,1-.45,2.1,3.38,3.38,0,0,1-1.29,1.43,3.76,3.76,0,0,1-1.94.5,3.41,3.41,0,0,1-2.68-1.12,4.21,4.21,0,0,1-1-3Zm1.78.15a3.25,3.25,0,0,0,.5,1.92,1.66,1.66,0,0,0,1.41.69,1.61,1.61,0,0,0,1.4-.7,3.5,3.5,0,0,0,.5-2.06,3.2,3.2,0,0,0-.51-1.91,1.68,1.68,0,0,0-1.4-.7,1.63,1.63,0,0,0-1.39.69A3.49,3.49,0,0,0,194.36,93.88Z"/><path class="cls-5" d="M201.12,93.74A4.69,4.69,0,0,1,202,90.8a2.7,2.7,0,0,1,2.27-1.11,2.62,2.62,0,0,1,2,.88V86.51h1.78V97.76h-1.61l-.09-.82a2.6,2.6,0,0,1-2.13,1A2.69,2.69,0,0,1,202,96.79,4.85,4.85,0,0,1,201.12,93.74Zm1.78.16a3.29,3.29,0,0,0,.46,1.88,1.49,1.49,0,0,0,1.32.68,1.68,1.68,0,0,0,1.6-1V92.1a1.66,1.66,0,0,0-1.58-.95,1.5,1.5,0,0,0-1.33.69A3.59,3.59,0,0,0,202.9,93.9Z"/><path class="cls-5" d="M211.83,97.76h-1.78V89.84h1.78Zm-.33-11.19h2l-2,2.22h-1.43Z"/><path class="cls-5" d="M215.75,97.76H214V86.51h1.78Z"/><path class="cls-5" d="M222.49,97a2.78,2.78,0,0,1-2.23.92,2.46,2.46,0,0,1-1.95-.75,3.24,3.24,0,0,1-.66-2.19V89.84h1.78V95c0,1,.41,1.51,1.25,1.51a1.76,1.76,0,0,0,1.75-.93V89.84h1.78v7.92h-1.68Z"/><path class="cls-6" d="M324,61.24h-4.29v4.52H317.8V55.1h6.78v1.49h-4.92v3.17H324Z"/><path class="cls-6" d="M329.21,65.91a3.68,3.68,0,0,1-2.74-1.07A3.84,3.84,0,0,1,325.41,62v-.22a4.85,4.85,0,0,1,.46-2.12,3.57,3.57,0,0,1,1.29-1.45,3.34,3.34,0,0,1,1.84-.52,3.12,3.12,0,0,1,2.51,1,4.41,4.41,0,0,1,.88,2.92v.72h-5.18a2.35,2.35,0,0,0,.65,1.55,2,2,0,0,0,1.45.58,2.4,2.4,0,0,0,2-1l1,.91a3.09,3.09,0,0,1-1.27,1.1A3.85,3.85,0,0,1,329.21,65.91ZM329,59.12a1.51,1.51,0,0,0-1.19.51,2.64,2.64,0,0,0-.57,1.43h3.39v-.13a2.19,2.19,0,0,0-.48-1.36A1.48,1.48,0,0,0,329,59.12Zm.4-4.61h2l-2,2.22H328Z"/><path class="cls-6" d="M337.92,59.46a4.4,4.4,0,0,0-.73-.06,1.66,1.66,0,0,0-1.65.94v5.42h-1.78V57.84h1.7l.05.88a2,2,0,0,1,1.79-1,1.58,1.58,0,0,1,.62.1Z"/><path class="cls-6" d="M338.44,61.72a4.62,4.62,0,0,1,.47-2.09,3.35,3.35,0,0,1,1.29-1.44,3.71,3.71,0,0,1,1.92-.5,3.47,3.47,0,0,1,2.61,1,4.12,4.12,0,0,1,1.08,2.74v.42a4.69,4.69,0,0,1-.45,2.09,3.32,3.32,0,0,1-1.29,1.43,3.64,3.64,0,0,1-1.93.51,3.46,3.46,0,0,1-2.69-1.12,4.29,4.29,0,0,1-1-3Zm1.78.16a3.16,3.16,0,0,0,.51,1.91,1.75,1.75,0,0,0,2.81,0,3.56,3.56,0,0,0,.5-2.06,3.1,3.1,0,0,0-.52-1.9,1.74,1.74,0,0,0-2.78,0A3.47,3.47,0,0,0,340.22,61.88Z"/><path class="cls-6" d="M350,63.5l1.68-5.66h1.84l-2.75,7.92h-1.54l-2.77-7.92h1.84Z"/><path class="cls-6" d="M357.4,63.21,359,57.84h1.9L357.76,67a2.56,2.56,0,0,1-2.46,2,3.1,3.1,0,0,1-.86-.13V67.44l.34,0a1.72,1.72,0,0,0,1-.25,1.6,1.6,0,0,0,.54-.82l.26-.68-2.79-7.88h1.92Zm.6-8.7h2l-2,2.22h-1.43Z"/><path class="cls-6" d="M372.6,61.88a4.7,4.7,0,0,1-.83,2.93,2.89,2.89,0,0,1-4.33.24v3.76h-1.78v-11h1.64l.08.8a2.62,2.62,0,0,1,2.13-1,2.7,2.7,0,0,1,2.27,1.08,4.84,4.84,0,0,1,.82,3Zm-1.77-.16a3.35,3.35,0,0,0-.47-1.88,1.54,1.54,0,0,0-1.35-.69,1.64,1.64,0,0,0-1.57.9v3.51a1.65,1.65,0,0,0,1.58.93,1.53,1.53,0,0,0,1.33-.69A3.65,3.65,0,0,0,370.83,61.72Z"/><path class="cls-6" d="M373.78,61.72a4.62,4.62,0,0,1,.46-2.09,3.42,3.42,0,0,1,1.29-1.44,3.71,3.71,0,0,1,1.92-.5,3.47,3.47,0,0,1,2.61,1,4.12,4.12,0,0,1,1.08,2.74v.42a4.56,4.56,0,0,1-.46,2.09,3.36,3.36,0,0,1-1.28,1.43,3.67,3.67,0,0,1-1.94.51,3.48,3.48,0,0,1-2.69-1.12,4.28,4.28,0,0,1-1-3Zm1.78.16a3.23,3.23,0,0,0,.5,1.91,1.64,1.64,0,0,0,1.41.7,1.62,1.62,0,0,0,1.4-.71,3.48,3.48,0,0,0,.5-2.06,3.17,3.17,0,0,0-.51-1.9,1.66,1.66,0,0,0-1.41-.7,1.63,1.63,0,0,0-1.38.69A3.47,3.47,0,0,0,375.56,61.88Z"/><path class="cls-6" d="M382.32,61.74a4.69,4.69,0,0,1,.85-2.94,2.7,2.7,0,0,1,2.27-1.11,2.59,2.59,0,0,1,2,.88V54.51h1.78V65.76h-1.61l-.09-.82a2.63,2.63,0,0,1-2.13,1,2.71,2.71,0,0,1-2.25-1.12A4.87,4.87,0,0,1,382.32,61.74Zm1.78.15a3.3,3.3,0,0,0,.46,1.89,1.51,1.51,0,0,0,1.32.68,1.69,1.69,0,0,0,1.6-1V60.1a1.64,1.64,0,0,0-1.58-1,1.52,1.52,0,0,0-1.34.68A3.7,3.7,0,0,0,384.1,61.89Z"/><path class="cls-6" d="M393,65.76h-1.78V57.84H393Zm-.34-11.2h2l-2,2.22h-1.42Z"/><path class="cls-6" d="M397,65.76h-1.78V54.51H397Z"/><path class="cls-6" d="M409.56,61.88a4.76,4.76,0,0,1-.83,2.93,2.89,2.89,0,0,1-4.33.24v3.76h-1.78v-11h1.64l.07.8a2.65,2.65,0,0,1,2.13-1,2.71,2.71,0,0,1,2.28,1.08,4.84,4.84,0,0,1,.82,3Zm-1.77-.16a3.35,3.35,0,0,0-.47-1.88,1.55,1.55,0,0,0-1.35-.69,1.64,1.64,0,0,0-1.57.9v3.51a1.65,1.65,0,0,0,1.58.93,1.53,1.53,0,0,0,1.33-.69A3.65,3.65,0,0,0,407.79,61.72Z"/><path class="cls-6" d="M410.73,61.72a4.62,4.62,0,0,1,.47-2.09,3.29,3.29,0,0,1,1.29-1.44,3.71,3.71,0,0,1,1.92-.5,3.43,3.43,0,0,1,2.6,1,4,4,0,0,1,1.08,2.74v.42a4.69,4.69,0,0,1-.45,2.09,3.32,3.32,0,0,1-1.29,1.43,3.65,3.65,0,0,1-1.94.51,3.46,3.46,0,0,1-2.68-1.12,4.29,4.29,0,0,1-1-3Zm1.78.16a3.16,3.16,0,0,0,.51,1.91,1.75,1.75,0,0,0,2.81,0,3.56,3.56,0,0,0,.5-2.06,3.1,3.1,0,0,0-.52-1.9,1.74,1.74,0,0,0-2.78,0A3.4,3.4,0,0,0,412.51,61.88Z"/><path class="cls-6" d="M419.27,61.74a4.75,4.75,0,0,1,.85-2.94,2.73,2.73,0,0,1,2.28-1.11,2.59,2.59,0,0,1,2,.88V54.51h1.78V65.76h-1.61l-.09-.82a2.63,2.63,0,0,1-2.13,1,2.71,2.71,0,0,1-2.25-1.12A4.87,4.87,0,0,1,419.27,61.74Zm1.78.15a3.3,3.3,0,0,0,.47,1.89,1.51,1.51,0,0,0,1.32.68,1.69,1.69,0,0,0,1.6-1V60.1a1.65,1.65,0,0,0-1.58-1,1.52,1.52,0,0,0-1.34.68A3.69,3.69,0,0,0,421.05,61.89Z"/><path class="cls-6" d="M430,65.76h-1.78V54.51H430Z"/><path class="cls-6" d="M435.4,65.91a3.7,3.7,0,0,1-2.75-1.07,3.87,3.87,0,0,1-1-2.84v-.22a4.72,4.72,0,0,1,.46-2.12,3.47,3.47,0,0,1,1.28-1.45,3.4,3.4,0,0,1,1.85-.52,3.1,3.1,0,0,1,2.5,1,4.35,4.35,0,0,1,.88,2.92v.72H433.4a2.35,2.35,0,0,0,.65,1.55,1.94,1.94,0,0,0,1.45.58,2.41,2.41,0,0,0,2-1l1,.91a3.15,3.15,0,0,1-1.27,1.1A3.88,3.88,0,0,1,435.4,65.91Zm-.22-6.79a1.49,1.49,0,0,0-1.18.51,2.72,2.72,0,0,0-.58,1.43h3.4v-.13a2.19,2.19,0,0,0-.48-1.36A1.5,1.5,0,0,0,435.18,59.12Z"/><path class="cls-6" d="M452.33,65.76h-1.85V61h-4.76v4.73h-1.86V55.1h1.86v4.43h4.76V55.1h1.85Z"/><path class="cls-6" d="M454.52,65.76V55.1h3.15a5,5,0,0,1,2.51.63,4.27,4.27,0,0,1,1.69,1.78,5.68,5.68,0,0,1,.6,2.65v.54a5.71,5.71,0,0,1-.6,2.67,4.31,4.31,0,0,1-1.72,1.77,5.24,5.24,0,0,1-2.56.62Zm1.85-9.17v7.69h1.21a2.78,2.78,0,0,0,2.24-.91,4,4,0,0,0,.79-2.62v-.59a4.08,4.08,0,0,0-.75-2.65,2.68,2.68,0,0,0-2.19-.92Z"/><path class="cls-6" d="M466.17,61.81v4h-1.85V55.1h4.08a4.14,4.14,0,0,1,2.84.93,3.13,3.13,0,0,1,1.05,2.46,3,3,0,0,1-1,2.44,4.35,4.35,0,0,1-2.88.88Zm0-1.5h2.23a2.2,2.2,0,0,0,1.51-.46,1.74,1.74,0,0,0,.52-1.35,1.87,1.87,0,0,0-.53-1.38,2.06,2.06,0,0,0-1.45-.53h-2.28Z"/><line class="cls-7" x1="304.28" y1="48.61" x2="304.28" y2="71.31"/><line class="cls-8" x1="210.15" y1="423.68" x2="210.15" y2="118.89"/><line class="cls-8" x1="256.78" y1="423.68" x2="256.78" y2="118.89"/><line class="cls-8" x1="303.42" y1="423.68" x2="303.42" y2="118.89"/><line class="cls-8" x1="350.05" y1="423.68" x2="350.05" y2="118.89"/><line class="cls-8" x1="396.68" y1="423.68" x2="396.68" y2="118.89"/><line class="cls-8" x1="443.32" y1="423.68" x2="443.32" y2="118.89"/><line class="cls-8" x1="163.51" y1="423.68" x2="163.51" y2="118.89"/><path d="M132.38,124.83v7.28a3.8,3.8,0,0,1-.48,1.88,3.06,3.06,0,0,1-1.32,1.22,4.25,4.25,0,0,1-2,.43,3.89,3.89,0,0,1-2.7-.92,3.33,3.33,0,0,1-1-2.54v-7.35h.89V132a2.81,2.81,0,0,0,.77,2.1,2.9,2.9,0,0,0,2.09.74,2.84,2.84,0,0,0,2.08-.75,2.78,2.78,0,0,0,.77-2.08v-7.22Z"/><path d="M140.92,132.87a1.73,1.73,0,0,0-.62-1.4,6.47,6.47,0,0,0-2.28-1,7.77,7.77,0,0,1-2.41-1,2.36,2.36,0,0,1-1.09-2,2.39,2.39,0,0,1,1-2,4.13,4.13,0,0,1,2.57-.77,4.31,4.31,0,0,1,1.9.41,3.11,3.11,0,0,1,1.3,1.15,3,3,0,0,1,.46,1.63h-.9a2.23,2.23,0,0,0-.75-1.76,2.93,2.93,0,0,0-2-.66,3.17,3.17,0,0,0-1.94.54,1.7,1.7,0,0,0-.73,1.43,1.64,1.64,0,0,0,.65,1.33,6.1,6.1,0,0,0,2.09.9,9.55,9.55,0,0,1,2.17.82,3.06,3.06,0,0,1,1.12,1,2.53,2.53,0,0,1,.37,1.39,2.39,2.39,0,0,1-1,2,4.25,4.25,0,0,1-2.65.76,5.2,5.2,0,0,1-2.07-.4,3.22,3.22,0,0,1-1.43-1.13,3,3,0,0,1-.49-1.66h.91a2.14,2.14,0,0,0,.84,1.78,3.59,3.59,0,0,0,2.24.65,3.29,3.29,0,0,0,2-.55A1.72,1.72,0,0,0,140.92,132.87Z"/><path d="M149.53,132.5h-4.84l-1.1,3h-1l4-10.66h.86l4,10.66h-.93Zm-4.56-.76h4.27l-2.14-5.81Z"/><path d="M166.79,438.46a5.92,5.92,0,0,1-.83,3.43,3.14,3.14,0,0,1-4.86,0,5.69,5.69,0,0,1-.86-3.34v-1.91a5.8,5.8,0,0,1,.83-3.41,2.82,2.82,0,0,1,2.44-1.15,2.86,2.86,0,0,1,2.42,1.11,5.68,5.68,0,0,1,.86,3.3Zm-.88-1.91a5.2,5.2,0,0,0-.6-2.77,2,2,0,0,0-1.8-.94,2,2,0,0,0-1.79.92,5,5,0,0,0-.61,2.7v2.1a5.15,5.15,0,0,0,.62,2.79,2,2,0,0,0,1.79,1,2,2,0,0,0,1.78-.94,5.19,5.19,0,0,0,.61-2.77Z"/><path d="M207.59,437.44l.52-5.2h5.33v.82h-4.58l-.37,3.6a3.47,3.47,0,0,1,2-.59,3,3,0,0,1,2.31.94,3.58,3.58,0,0,1,.85,2.5,3.8,3.8,0,0,1-.83,2.61,3,3,0,0,1-2.36.93,3.24,3.24,0,0,1-2.25-.77,3.15,3.15,0,0,1-1-2.18h.84a2.55,2.55,0,0,0,.74,1.65,2.35,2.35,0,0,0,1.66.56,2.09,2.09,0,0,0,1.73-.72,3.21,3.21,0,0,0,.58-2.07,2.82,2.82,0,0,0-.65-1.91,2.26,2.26,0,0,0-1.78-.74,3.46,3.46,0,0,0-1.08.16,3.06,3.06,0,0,0-1,.61Z"/><path d="M253.55,442.91h-.88V433.3l-2.9,1.07v-.82l3.63-1.34h.15Z"/><path d="M264.21,438.46a5.93,5.93,0,0,1-.82,3.43,3.15,3.15,0,0,1-4.87,0,5.69,5.69,0,0,1-.86-3.34v-1.91a5.88,5.88,0,0,1,.83-3.41,3.18,3.18,0,0,1,4.86,0,5.6,5.6,0,0,1,.86,3.3Zm-.87-1.91a5.2,5.2,0,0,0-.6-2.77,2,2,0,0,0-1.81-.94,2,2,0,0,0-1.78.92,5,5,0,0,0-.62,2.7v2.1a5.24,5.24,0,0,0,.62,2.79,2,2,0,0,0,1.8,1,2,2,0,0,0,1.77-.94,5.19,5.19,0,0,0,.62-2.77Z"/><path d="M300.19,442.91h-.88V433.3l-2.9,1.07v-.82l3.63-1.34h.15Z"/><path d="M305,437.44l.52-5.2h5.33v.82h-4.57l-.38,3.6a3.48,3.48,0,0,1,2-.59,3,3,0,0,1,2.3.94,3.58,3.58,0,0,1,.86,2.5,3.76,3.76,0,0,1-.84,2.61,3,3,0,0,1-2.35.93,3.25,3.25,0,0,1-2.26-.77,3.18,3.18,0,0,1-1-2.18h.84a2.5,2.5,0,0,0,.74,1.65,2.34,2.34,0,0,0,1.66.56,2.1,2.1,0,0,0,1.73-.72,3.27,3.27,0,0,0,.58-2.07,2.82,2.82,0,0,0-.65-1.91,2.27,2.27,0,0,0-1.78-.74,3.53,3.53,0,0,0-1.09.16,3,3,0,0,0-1,.61Z"/><path d="M349.42,442.91h-6.68v-.68l3.66-4.14a10.42,10.42,0,0,0,1.26-1.73A2.94,2.94,0,0,0,348,435a2.16,2.16,0,0,0-.6-1.6,2.22,2.22,0,0,0-1.63-.59,2.3,2.3,0,0,0-1.74.69,2.49,2.49,0,0,0-.66,1.79h-.87a3.35,3.35,0,0,1,.4-1.64,2.94,2.94,0,0,1,1.16-1.16,3.44,3.44,0,0,1,1.71-.42,3.19,3.19,0,0,1,2.29.77,2.71,2.71,0,0,1,.82,2.09,3.52,3.52,0,0,1-.46,1.63,12.5,12.5,0,0,1-1.64,2.22l-3,3.36h5.6Z"/><path d="M357.48,438.46a5.93,5.93,0,0,1-.82,3.43,3.15,3.15,0,0,1-4.87,0,5.69,5.69,0,0,1-.86-3.34v-1.91a5.88,5.88,0,0,1,.83-3.41,3.18,3.18,0,0,1,4.86,0,5.6,5.6,0,0,1,.86,3.3Zm-.88-1.91a5.21,5.21,0,0,0-.59-2.77,2,2,0,0,0-1.81-.94,2,2,0,0,0-1.78.92,4.94,4.94,0,0,0-.62,2.7v2.1a5.24,5.24,0,0,0,.62,2.79,2,2,0,0,0,1.8,1,2,2,0,0,0,1.77-.94,5.1,5.1,0,0,0,.61-2.77Z"/><path d="M396.05,442.91h-6.67v-.68l3.65-4.14a10.42,10.42,0,0,0,1.26-1.73,2.94,2.94,0,0,0,.35-1.33,2.19,2.19,0,0,0-.59-1.6,2.24,2.24,0,0,0-1.64-.59,2.33,2.33,0,0,0-1.74.69,2.49,2.49,0,0,0-.66,1.79h-.87a3.35,3.35,0,0,1,.41-1.64,2.92,2.92,0,0,1,1.15-1.16,3.44,3.44,0,0,1,1.71-.42,3.19,3.19,0,0,1,2.29.77,2.72,2.72,0,0,1,.83,2.09,3.55,3.55,0,0,1-.47,1.63,12,12,0,0,1-1.64,2.22l-3,3.36h5.6Z"/><path d="M398.28,437.44l.52-5.2h5.33v.82h-4.58l-.37,3.6a3.48,3.48,0,0,1,2-.59,3,3,0,0,1,2.3.94,3.58,3.58,0,0,1,.85,2.5,3.75,3.75,0,0,1-.83,2.61,3,3,0,0,1-2.35.93,3,3,0,0,1-3.25-2.95h.85a2.5,2.5,0,0,0,.74,1.65,2.34,2.34,0,0,0,1.66.56,2.07,2.07,0,0,0,1.72-.72,3.21,3.21,0,0,0,.59-2.07,2.77,2.77,0,0,0-.66-1.91,2.24,2.24,0,0,0-1.78-.74A3.51,3.51,0,0,0,400,437a3,3,0,0,0-1,.61Z"/><path d="M437.72,437.1h.91a3.05,3.05,0,0,0,1.32-.27,2.07,2.07,0,0,0,.86-.73,1.94,1.94,0,0,0,.3-1.07,2.2,2.2,0,0,0-.58-1.61,2.29,2.29,0,0,0-1.67-.58,2.41,2.41,0,0,0-1.68.61,2.07,2.07,0,0,0-.65,1.59h-.88a2.84,2.84,0,0,1,.42-1.51,2.74,2.74,0,0,1,1.15-1.06,3.59,3.59,0,0,1,1.64-.37,3.19,3.19,0,0,1,2.29.79,2.83,2.83,0,0,1,.83,2.17,2.31,2.31,0,0,1-.48,1.41,2.85,2.85,0,0,1-1.34,1,2.79,2.79,0,0,1,1.51,1,2.61,2.61,0,0,1,.51,1.62,2.89,2.89,0,0,1-.89,2.2,3.35,3.35,0,0,1-2.39.83,3.93,3.93,0,0,1-1.75-.38,2.79,2.79,0,0,1-1.66-2.65h.88a2.09,2.09,0,0,0,.71,1.65,2.59,2.59,0,0,0,1.82.64,2.5,2.5,0,0,0,1.77-.58,2.19,2.19,0,0,0,.63-1.69,2,2,0,0,0-.68-1.63,3.16,3.16,0,0,0-2-.56h-.88Z"/><path d="M450.52,438.46a5.92,5.92,0,0,1-.83,3.43,3.14,3.14,0,0,1-4.86,0,5.68,5.68,0,0,1-.87-3.34v-1.91a5.8,5.8,0,0,1,.84-3.41,3.17,3.17,0,0,1,4.85,0,5.6,5.6,0,0,1,.87,3.3Zm-.88-1.91a5.2,5.2,0,0,0-.6-2.77,2,2,0,0,0-1.81-.94,2,2,0,0,0-1.78.92,5,5,0,0,0-.62,2.7v2.1a5.24,5.24,0,0,0,.62,2.79,2.16,2.16,0,0,0,3.58,0,5.29,5.29,0,0,0,.61-2.77Z"/><path d="M457,435l0,1.29a3,3,0,0,1,1.1-1.07,3,3,0,0,1,1.47-.36,2.22,2.22,0,0,1,2.38,1.53,2.92,2.92,0,0,1,1.13-1.13,3.14,3.14,0,0,1,1.57-.4c1.7,0,2.57.92,2.6,2.78v5.29h-.88v-5.22a2.35,2.35,0,0,0-.46-1.58,1.86,1.86,0,0,0-1.46-.51,2.31,2.31,0,0,0-1.6.61,2.15,2.15,0,0,0-.73,1.45v5.25h-.88v-5.29a2.12,2.12,0,0,0-.48-1.52,1.92,1.92,0,0,0-1.45-.5,2.25,2.25,0,0,0-1.42.47,2.75,2.75,0,0,0-.88,1.4v5.44h-.88V435Z"/><path d="M470.46,442.91h-.88V431.66h.88Z"/><path d="M472.49,438.87a4.77,4.77,0,0,1,.82-2.94,2.66,2.66,0,0,1,2.24-1.09A2.76,2.76,0,0,1,478,436.1v-4.44h.87v11.25h-.82l0-1.06a2.82,2.82,0,0,1-2.47,1.2,2.62,2.62,0,0,1-2.21-1.1,4.77,4.77,0,0,1-.84-3Zm.89.16a4.19,4.19,0,0,0,.6,2.39,2,2,0,0,0,1.72.87,2.36,2.36,0,0,0,2.3-1.42v-3.73a2.35,2.35,0,0,0-2.29-1.54,2,2,0,0,0-1.72.87A4.4,4.4,0,0,0,473.38,439Z"/><path d="M481.1,442.38a.58.58,0,0,1,.62-.61.6.6,0,0,1,.46.18.6.6,0,0,1,.17.43.57.57,0,0,1-.17.42.64.64,0,0,1-.46.17.62.62,0,0,1-.46-.17A.57.57,0,0,1,481.1,442.38Z"/><path d="M496,432.24v7.28a3.77,3.77,0,0,1-.48,1.88,3.14,3.14,0,0,1-1.32,1.23,4.38,4.38,0,0,1-2,.42,3.89,3.89,0,0,1-2.7-.91,3.37,3.37,0,0,1-1.05-2.55v-7.35h.89v7.22a2.79,2.79,0,0,0,.77,2.09,3.31,3.31,0,0,0,4.17,0,2.79,2.79,0,0,0,.77-2.08v-7.23Z"/><path d="M504.5,440.29a1.73,1.73,0,0,0-.62-1.41,6.57,6.57,0,0,0-2.28-1,8,8,0,0,1-2.41-1,2.46,2.46,0,0,1-.08-4,4.13,4.13,0,0,1,2.57-.76,4.22,4.22,0,0,1,1.91.41,3.05,3.05,0,0,1,1.29,1.14,3,3,0,0,1,.47,1.63h-.91a2.25,2.25,0,0,0-.75-1.76,2.93,2.93,0,0,0-2-.66,3.1,3.1,0,0,0-1.94.55,1.68,1.68,0,0,0-.73,1.42,1.62,1.62,0,0,0,.65,1.33,6.29,6.29,0,0,0,2.09.91,9.92,9.92,0,0,1,2.18.81,3.13,3.13,0,0,1,1.11,1,2.5,2.5,0,0,1,.37,1.38,2.39,2.39,0,0,1-1,2,4.3,4.3,0,0,1-2.66.76,5.2,5.2,0,0,1-2.07-.4,3.15,3.15,0,0,1-1.43-1.13,2.92,2.92,0,0,1-.48-1.66h.9a2.13,2.13,0,0,0,.84,1.78,3.53,3.53,0,0,0,2.24.65,3.29,3.29,0,0,0,2-.55A1.71,1.71,0,0,0,504.5,440.29Z"/><path d="M507.35,442.91V432.24h3a4.59,4.59,0,0,1,2.35.6,4.14,4.14,0,0,1,1.63,1.71,5.37,5.37,0,0,1,.58,2.54v1a5.33,5.33,0,0,1-.58,2.53,4.14,4.14,0,0,1-1.63,1.71,4.76,4.76,0,0,1-2.41.6Zm.9-9.9v9.14h2A3.51,3.51,0,0,0,513,441a4.32,4.32,0,0,0,1-3v-.93a4.22,4.22,0,0,0-1-2.95,3.39,3.39,0,0,0-2.64-1.11Z"/><path d="M93.26,163.88h.91v7.49a3.34,3.34,0,0,1-.87,2.42,3.14,3.14,0,0,1-2.35.9,3.29,3.29,0,0,1-2.39-.81,3.06,3.06,0,0,1-.83-2.27h.9a2.29,2.29,0,0,0,.61,1.74,2.39,2.39,0,0,0,1.71.58,2.19,2.19,0,0,0,1.66-.68,2.57,2.57,0,0,0,.65-1.83Z"/><path d="M101.61,174.54a3.83,3.83,0,0,1-.17-1.1,3,3,0,0,1-1.18.92,3.54,3.54,0,0,1-1.51.33,2.64,2.64,0,0,1-1.85-.64,2.07,2.07,0,0,1-.71-1.61,2.13,2.13,0,0,1,1-1.83,4.6,4.6,0,0,1,2.68-.67h1.59V169a1.73,1.73,0,0,0-.52-1.34,2.15,2.15,0,0,0-1.53-.49,2.42,2.42,0,0,0-1.52.47,1.39,1.39,0,0,0-.6,1.13h-.88a2.07,2.07,0,0,1,.88-1.64,3.41,3.41,0,0,1,2.16-.69,3.06,3.06,0,0,1,2.1.67,2.34,2.34,0,0,1,.78,1.84v3.75a4.76,4.76,0,0,0,.24,1.73v.08Zm-2.76-.63a3,3,0,0,0,1.57-.42,2.42,2.42,0,0,0,1-1.14v-1.74H99.86a4,4,0,0,0-2,.48,1.45,1.45,0,0,0-.74,1.28,1.41,1.41,0,0,0,.5,1.1A1.83,1.83,0,0,0,98.85,173.91Z"/><path d="M111,170.66a4.73,4.73,0,0,1-.82,2.94,2.61,2.61,0,0,1-2.2,1.09,3,3,0,0,1-2.49-1.14v4h-.87v-11h.81l0,1.12a2.8,2.8,0,0,1,2.48-1.27,2.63,2.63,0,0,1,2.23,1.08,4.87,4.87,0,0,1,.81,3Zm-.88-.15a4.14,4.14,0,0,0-.62-2.4,2,2,0,0,0-1.74-.88,2.41,2.41,0,0,0-1.38.39,2.48,2.48,0,0,0-.89,1.13v3.8a2.3,2.3,0,0,0,.9,1,2.62,2.62,0,0,0,1.39.36,2,2,0,0,0,1.72-.88A4.38,4.38,0,0,0,110.13,170.51Z"/><path d="M112.47,170.46a4.71,4.71,0,0,1,.44-2.05,3.49,3.49,0,0,1,1.25-1.43,3.4,3.4,0,0,1,1.84-.51,3.25,3.25,0,0,1,2.56,1.11,4.25,4.25,0,0,1,1,2.94v.19a4.61,4.61,0,0,1-.44,2.06,3.22,3.22,0,0,1-1.25,1.42,3.45,3.45,0,0,1-1.84.5,3.27,3.27,0,0,1-2.56-1.11,4.3,4.3,0,0,1-1-2.94Zm.88.25a3.61,3.61,0,0,0,.73,2.33,2.5,2.5,0,0,0,3.86,0,3.72,3.72,0,0,0,.73-2.41v-.17a4.1,4.1,0,0,0-.33-1.66,2.77,2.77,0,0,0-1-1.17,2.44,2.44,0,0,0-1.39-.41,2.34,2.34,0,0,0-1.91.92,3.66,3.66,0,0,0-.74,2.4Z"/><path d="M122.19,166.62l0,1.35a3.11,3.11,0,0,1,1.11-1.11,2.84,2.84,0,0,1,1.47-.39,2.39,2.39,0,0,1,1.9.72,3.3,3.3,0,0,1,.63,2.15v5.2h-.87v-5.2a2.51,2.51,0,0,0-.45-1.59,1.8,1.8,0,0,0-1.42-.52,2.23,2.23,0,0,0-1.44.51,3,3,0,0,0-.93,1.38v5.42h-.87v-7.92Z"/><path d="M134.34,172.53a1.29,1.29,0,0,0-.52-1.05,4.15,4.15,0,0,0-1.58-.62,7.28,7.28,0,0,1-1.64-.51,2.07,2.07,0,0,1-.86-.71,1.72,1.72,0,0,1-.29-1,1.88,1.88,0,0,1,.79-1.55,3.2,3.2,0,0,1,2-.61,3.23,3.23,0,0,1,2.13.66,2.08,2.08,0,0,1,.8,1.71h-.87a1.42,1.42,0,0,0-.59-1.16,2.27,2.27,0,0,0-1.47-.46,2.32,2.32,0,0,0-1.38.38,1.2,1.2,0,0,0-.53,1,1.07,1.07,0,0,0,.44.92,4.52,4.52,0,0,0,1.59.6,7.31,7.31,0,0,1,1.73.58,2.23,2.23,0,0,1,.85.74,1.84,1.84,0,0,1,.28,1,1.91,1.91,0,0,1-.81,1.61,3.47,3.47,0,0,1-2.11.6,3.52,3.52,0,0,1-2.25-.67,2.08,2.08,0,0,1-.86-1.7h.88a1.49,1.49,0,0,0,.65,1.2,2.62,2.62,0,0,0,1.58.43,2.44,2.44,0,0,0,1.47-.4A1.21,1.21,0,0,0,134.34,172.53Z"/><path d="M139.07,170.55l-1,1v3h-.88V163.29h.88v7.2l.82-.89,3-3H143L139.67,170l3.66,4.58h-1.05Z"/><path d="M144.05,170.46a4.71,4.71,0,0,1,.44-2.05,3.44,3.44,0,0,1,1.26-1.43,3.36,3.36,0,0,1,1.83-.51,3.24,3.24,0,0,1,2.56,1.11,4.25,4.25,0,0,1,1,2.94v.19a4.62,4.62,0,0,1-.45,2.06,3.22,3.22,0,0,1-1.25,1.42,3.42,3.42,0,0,1-1.83.5,3.25,3.25,0,0,1-2.56-1.11,4.25,4.25,0,0,1-1-2.94Zm.88.25a3.56,3.56,0,0,0,.74,2.33,2.49,2.49,0,0,0,3.85,0,3.73,3.73,0,0,0,.74-2.41v-.17a4.1,4.1,0,0,0-.34-1.66,2.77,2.77,0,0,0-.95-1.17,2.44,2.44,0,0,0-1.39-.41,2.34,2.34,0,0,0-1.91.92,3.72,3.72,0,0,0-.74,2.4Z"/><path d="M122.92,330.74H122V320.08h.9Z"/><path d="M127,320.79v2h1.64v.71H127v5.29a1.63,1.63,0,0,0,.24,1,.91.91,0,0,0,.79.33,5.37,5.37,0,0,0,.71-.08l0,.71a2.65,2.65,0,0,1-.94.13,1.57,1.57,0,0,1-1.31-.53,2.48,2.48,0,0,1-.41-1.54v-5.29h-1.46v-.71h1.46v-2Z"/><path d="M135.43,330.74a4.3,4.3,0,0,1-.17-1.1,3,3,0,0,1-1.17.92,3.62,3.62,0,0,1-1.52.33,2.64,2.64,0,0,1-1.85-.64,2.06,2.06,0,0,1-.7-1.61,2.12,2.12,0,0,1,1-1.83,4.62,4.62,0,0,1,2.68-.68h1.59v-.9a1.72,1.72,0,0,0-.52-1.33,2.15,2.15,0,0,0-1.53-.49,2.39,2.39,0,0,0-1.51.47,1.39,1.39,0,0,0-.6,1.13h-.88a2,2,0,0,1,.88-1.64,3.37,3.37,0,0,1,2.16-.69,3.1,3.1,0,0,1,2.09.66,2.4,2.4,0,0,1,.79,1.85v3.75a4.66,4.66,0,0,0,.24,1.72v.09Zm-2.76-.63a3,3,0,0,0,1.58-.42,2.51,2.51,0,0,0,1-1.14v-1.74h-1.56a3.9,3.9,0,0,0-2.05.48,1.42,1.42,0,0,0-.74,1.28,1.4,1.4,0,0,0,.49,1.1A1.83,1.83,0,0,0,132.67,330.11Zm1.73-10.62h1.07l-1.7,2.05H133Z"/><path d="M139.44,330.74h-.88V319.49h.88Z"/><path d="M141.77,320.53a.62.62,0,0,1,1-.42.57.57,0,0,1,.16.42.56.56,0,0,1-.16.41.61.61,0,0,1-.45.17.57.57,0,0,1-.6-.58Zm1,10.21h-.87v-7.92h.87Z"/><path d="M148.25,330.89a3.43,3.43,0,0,1-1.82-.5,3.29,3.29,0,0,1-1.27-1.39,4.23,4.23,0,0,1-.46-2v-.32a4.62,4.62,0,0,1,.45-2.06,3.47,3.47,0,0,1,1.23-1.44,3.12,3.12,0,0,1,1.71-.52,2.85,2.85,0,0,1,2.29,1,4,4,0,0,1,.85,2.69v.49h-5.66V327a3.3,3.3,0,0,0,.78,2.24,2.44,2.44,0,0,0,1.94.9,2.86,2.86,0,0,0,1.24-.26,2.68,2.68,0,0,0,1-.82l.55.42A3.2,3.2,0,0,1,148.25,330.89Zm-.16-7.47a2.18,2.18,0,0,0-1.66.72,3.42,3.42,0,0,0-.83,1.95h4.76V326a2.9,2.9,0,0,0-.65-1.86A2,2,0,0,0,148.09,323.42Z"/><path d="M91.25,367.17a1.73,1.73,0,0,0-.62-1.4,6.37,6.37,0,0,0-2.28-1,8.22,8.22,0,0,1-2.42-1,2.41,2.41,0,0,1-1.08-2,2.36,2.36,0,0,1,1-2,4.11,4.11,0,0,1,2.57-.77,4.31,4.31,0,0,1,1.9.41,3.08,3.08,0,0,1,1.3,1.14,3,3,0,0,1,.46,1.64h-.91a2.23,2.23,0,0,0-.74-1.76,2.89,2.89,0,0,0-2-.67,3.12,3.12,0,0,0-2,.55,1.71,1.71,0,0,0-.72,1.43,1.58,1.58,0,0,0,.65,1.32,5.82,5.82,0,0,0,2.09.91,9.8,9.8,0,0,1,2.17.81,3.16,3.16,0,0,1,1.12,1,2.58,2.58,0,0,1,.37,1.38,2.43,2.43,0,0,1-1,2,4.34,4.34,0,0,1-2.65.76,5.3,5.3,0,0,1-2.07-.4A3.16,3.16,0,0,1,85,368.41a2.9,2.9,0,0,1-.49-1.67h.9a2.1,2.1,0,0,0,.85,1.78,3.51,3.51,0,0,0,2.24.66,3.38,3.38,0,0,0,2-.55A1.74,1.74,0,0,0,91.25,367.17Zm-2.8-9.51,1.26-1.42h.79v.09l-1.73,1.91h-.63l-1.73-1.92v-.08h.78Z"/><path d="M100.27,365.91a4.84,4.84,0,0,1-.82,2.94,2.61,2.61,0,0,1-2.2,1.09,2.9,2.9,0,0,1-2.49-1.15v4h-.87v-11h.81l0,1.12a2.81,2.81,0,0,1,2.49-1.27,2.64,2.64,0,0,1,2.23,1.08,4.85,4.85,0,0,1,.81,3Zm-.88-.15a4,4,0,0,0-.63-2.4,2,2,0,0,0-1.73-.88,2.44,2.44,0,0,0-1.39.39,2.41,2.41,0,0,0-.88,1.13v3.8a2.36,2.36,0,0,0,.9,1,2.58,2.58,0,0,0,1.38.36,2,2,0,0,0,1.73-.88A4.48,4.48,0,0,0,99.39,365.76Z"/><path d="M107.21,369.79a4.3,4.3,0,0,1-.17-1.1,3.12,3.12,0,0,1-1.17.92,3.62,3.62,0,0,1-1.52.33,2.68,2.68,0,0,1-1.85-.64,2.08,2.08,0,0,1-.7-1.61,2.12,2.12,0,0,1,1-1.83,4.62,4.62,0,0,1,2.68-.68H107v-.9a1.72,1.72,0,0,0-.52-1.33,2.15,2.15,0,0,0-1.53-.49,2.39,2.39,0,0,0-1.51.47,1.39,1.39,0,0,0-.6,1.13H102a2,2,0,0,1,.88-1.64,3.37,3.37,0,0,1,2.16-.69,3.1,3.1,0,0,1,2.09.66,2.4,2.4,0,0,1,.79,1.85V368a4.66,4.66,0,0,0,.24,1.72v.09Zm-2.75-.63a3,3,0,0,0,1.57-.42,2.51,2.51,0,0,0,1-1.14v-1.74h-1.56a3.9,3.9,0,0,0-2,.48,1.42,1.42,0,0,0-.74,1.28,1.4,1.4,0,0,0,.49,1.1A1.89,1.89,0,0,0,104.46,369.16Z"/><path d="M111.08,361.87l0,1.35a3.06,3.06,0,0,1,1.11-1.12,2.93,2.93,0,0,1,1.47-.38,2.39,2.39,0,0,1,1.9.72,3.28,3.28,0,0,1,.63,2.15v5.2h-.87v-5.21a2.5,2.5,0,0,0-.45-1.58,1.8,1.8,0,0,0-1.42-.52A2.23,2.23,0,0,0,112,363a3,3,0,0,0-.93,1.37v5.43h-.87v-7.92Z"/><path d="M121.55,369.94a3.4,3.4,0,0,1-3.1-1.89,4.35,4.35,0,0,1-.45-2v-.32a4.75,4.75,0,0,1,.44-2.06,3.62,3.62,0,0,1,1.23-1.44,3,3,0,0,1,1.72-.52,2.89,2.89,0,0,1,2.29,1,4,4,0,0,1,.84,2.7v.49h-5.65v.17a3.35,3.35,0,0,0,.77,2.24,2.47,2.47,0,0,0,2,.9,2.86,2.86,0,0,0,1.24-.26,2.76,2.76,0,0,0,1-.82l.55.42A3.21,3.21,0,0,1,121.55,369.94Zm-.16-7.47a2.2,2.2,0,0,0-1.67.72,3.41,3.41,0,0,0-.82,1.95h4.75V365a2.89,2.89,0,0,0-.65-1.86A2,2,0,0,0,121.39,362.47Zm.09-2.41,1.26-1.42h.78v.09l-1.73,1.91h-.63l-1.73-1.92v-.08h.79Z"/><path d="M127.21,369.79h-.88V358.54h.88Z"/><path d="M134.34,367.78a1.26,1.26,0,0,0-.52-1,4.15,4.15,0,0,0-1.58-.62,7.28,7.28,0,0,1-1.64-.51,2.07,2.07,0,0,1-.86-.71,1.74,1.74,0,0,1-.29-1,1.88,1.88,0,0,1,.79-1.55,3.14,3.14,0,0,1,2-.61,3.28,3.28,0,0,1,2.13.65,2.1,2.1,0,0,1,.8,1.72h-.87a1.42,1.42,0,0,0-.59-1.16,2.63,2.63,0,0,0-2.85-.08,1.2,1.2,0,0,0-.53,1,1.08,1.08,0,0,0,.44.92,4.52,4.52,0,0,0,1.59.6,7.31,7.31,0,0,1,1.73.58,2.23,2.23,0,0,1,.85.74,1.82,1.82,0,0,1,.28,1,1.91,1.91,0,0,1-.81,1.61,3.47,3.47,0,0,1-2.11.6,3.59,3.59,0,0,1-2.25-.67,2.08,2.08,0,0,1-.86-1.7h.88a1.52,1.52,0,0,0,.65,1.2,2.69,2.69,0,0,0,1.58.43,2.44,2.44,0,0,0,1.47-.41A1.18,1.18,0,0,0,134.34,367.78Z"/><path d="M139.07,365.8l-1,1v3h-.88V358.54h.88v7.2l.82-.89,3-3H143l-3.36,3.34,3.66,4.58h-1.05Z"/><path d="M144.05,365.71a4.75,4.75,0,0,1,.44-2.06,3.42,3.42,0,0,1,1.26-1.42,3.36,3.36,0,0,1,1.83-.51,3.24,3.24,0,0,1,2.56,1.11,4.25,4.25,0,0,1,1,2.94V366a4.63,4.63,0,0,1-.45,2.07,3.27,3.27,0,0,1-1.25,1.42,3.42,3.42,0,0,1-1.83.5,3.25,3.25,0,0,1-2.56-1.11,4.25,4.25,0,0,1-1-2.94Zm.88.24a3.57,3.57,0,0,0,.74,2.34,2.49,2.49,0,0,0,3.85,0,3.73,3.73,0,0,0,.74-2.41v-.17a4.1,4.1,0,0,0-.34-1.66,2.77,2.77,0,0,0-.95-1.17,2.37,2.37,0,0,0-1.39-.41,2.32,2.32,0,0,0-1.91.92,3.72,3.72,0,0,0-.74,2.4Z"/><path d="M14.23,404.09a6.12,6.12,0,0,1-.51,2.58,3.91,3.91,0,0,1-1.45,1.72,4,4,0,0,1-2.19.6,3.78,3.78,0,0,1-3-1.34A5.32,5.32,0,0,1,5.92,404v-1.1a6.19,6.19,0,0,1,.51-2.58,4,4,0,0,1,1.46-1.73,4,4,0,0,1,2.18-.6,4,4,0,0,1,2.17.59,3.91,3.91,0,0,1,1.45,1.68,6,6,0,0,1,.54,2.51Zm-.9-1.16a4.74,4.74,0,0,0-.87-3,2.91,2.91,0,0,0-2.39-1.09,2.9,2.9,0,0,0-2.37,1.1A4.73,4.73,0,0,0,6.82,403v1.12a4.68,4.68,0,0,0,.88,3,2.87,2.87,0,0,0,2.38,1.11,2.86,2.86,0,0,0,2.39-1.09,4.85,4.85,0,0,0,.86-3.05Z"/><path d="M21,406.83a1.24,1.24,0,0,0-.52-1.05,4.15,4.15,0,0,0-1.58-.62,7.46,7.46,0,0,1-1.64-.51,2.22,2.22,0,0,1-.86-.71,1.74,1.74,0,0,1-.28-1,1.9,1.9,0,0,1,.78-1.55,3.15,3.15,0,0,1,2-.61,3.27,3.27,0,0,1,2.12.65,2.11,2.11,0,0,1,.81,1.72H21a1.42,1.42,0,0,0-.59-1.16,2.24,2.24,0,0,0-1.46-.46,2.27,2.27,0,0,0-1.39.38,1.2,1.2,0,0,0-.53,1,1.08,1.08,0,0,0,.44.92,4.52,4.52,0,0,0,1.59.6,7.88,7.88,0,0,1,1.73.57,2.25,2.25,0,0,1,.85.75,1.82,1.82,0,0,1,.28,1,1.91,1.91,0,0,1-.81,1.61A3.45,3.45,0,0,1,19,409a3.61,3.61,0,0,1-2.25-.67,2.08,2.08,0,0,1-.86-1.7h.88a1.52,1.52,0,0,0,.65,1.2,2.69,2.69,0,0,0,1.58.43,2.49,2.49,0,0,0,1.48-.41A1.2,1.2,0,0,0,21,406.83Z"/><path d="M25.25,398.89v2h1.64v.71H25.25v5.29a1.63,1.63,0,0,0,.24,1,.91.91,0,0,0,.79.33,5.66,5.66,0,0,0,.72-.08l0,.71a2.65,2.65,0,0,1-.94.13,1.57,1.57,0,0,1-1.31-.53,2.48,2.48,0,0,1-.41-1.54v-5.29H22.92v-.71h1.45v-2Z"/><path d="M33.71,408.84a4.3,4.3,0,0,1-.17-1.1,3.12,3.12,0,0,1-1.17.92,3.58,3.58,0,0,1-1.52.33,2.66,2.66,0,0,1-1.84-.64,2.05,2.05,0,0,1-.71-1.61,2.12,2.12,0,0,1,1-1.83,4.63,4.63,0,0,1,2.69-.68h1.58v-.9A1.72,1.72,0,0,0,33,402a2.15,2.15,0,0,0-1.53-.49A2.39,2.39,0,0,0,30,402a1.39,1.39,0,0,0-.6,1.13h-.88a2,2,0,0,1,.88-1.64,3.37,3.37,0,0,1,2.16-.69,3.1,3.1,0,0,1,2.09.66,2.4,2.4,0,0,1,.79,1.85V407a4.66,4.66,0,0,0,.24,1.72v.09ZM31,408.21a3,3,0,0,0,1.57-.42,2.56,2.56,0,0,0,1-1.14v-1.74H32a3.9,3.9,0,0,0-2,.48,1.48,1.48,0,0,0-.25,2.38A1.89,1.89,0,0,0,31,408.21Z"/><path d="M38.11,398.89v2h1.64v.71H38.11v5.29a1.63,1.63,0,0,0,.23,1,.93.93,0,0,0,.8.33,5.75,5.75,0,0,0,.71-.08l0,.71A2.69,2.69,0,0,1,39,409a1.56,1.56,0,0,1-1.31-.53,2.42,2.42,0,0,1-.41-1.54v-5.29H35.77v-.71h1.46v-2Z"/><path d="M42.4,400.92l0,1.35a3.14,3.14,0,0,1,1.11-1.12,2.93,2.93,0,0,1,1.47-.38,2.39,2.39,0,0,1,1.9.72,3.28,3.28,0,0,1,.63,2.15v5.2h-.87v-5.21a2.5,2.5,0,0,0-.45-1.58,1.77,1.77,0,0,0-1.42-.52,2.23,2.23,0,0,0-1.44.51,3,3,0,0,0-.93,1.37v5.43h-.87v-7.92Z"/><path d="M51.22,397.68h1.06l-1.69,2.05h-.77Zm-.45,11.16h-.88v-7.92h.88Z"/><path d="M60.45,401.66a3.61,3.61,0,0,0-.59-.05,2.12,2.12,0,0,0-1.39.46,2.48,2.48,0,0,0-.81,1.33v5.44h-.87v-7.92h.86v1.26a2.34,2.34,0,0,1,2.24-1.41,1.48,1.48,0,0,1,.57.09Z"/><path d="M61.21,404.76a4.61,4.61,0,0,1,.44-2.06,3.33,3.33,0,0,1,1.25-1.42,3.37,3.37,0,0,1,1.84-.51,3.25,3.25,0,0,1,2.56,1.11,4.3,4.3,0,0,1,1,2.94V405a4.76,4.76,0,0,1-.44,2.07,3.33,3.33,0,0,1-1.25,1.42,3.45,3.45,0,0,1-1.84.5,3.27,3.27,0,0,1-2.56-1.11,4.25,4.25,0,0,1-1-2.94Zm.88.24a3.62,3.62,0,0,0,.73,2.34,2.49,2.49,0,0,0,3.85,0,3.73,3.73,0,0,0,.74-2.41v-.17a3.94,3.94,0,0,0-.34-1.66,2.75,2.75,0,0,0-.94-1.17,2.39,2.39,0,0,0-1.39-.41,2.35,2.35,0,0,0-1.92.92,3.71,3.71,0,0,0-.73,2.4Z"/><path d="M70.55,408.1H75.7v.74H69.47v-.64l4.8-6.52H69.61v-.76h5.77v.65Z"/><path d="M79.74,407.63l2.41-6.71h.9l-3,7.92h-.71l-3-7.92h.91Z"/><path d="M84.43,398.63A.57.57,0,0,1,85,398a.58.58,0,0,1,.61.59.53.53,0,0,1-.17.41.57.57,0,0,1-.44.17.6.6,0,0,1-.44-.17A.56.56,0,0,1,84.43,398.63Zm1,10.21h-.87v-7.92h.87Z"/><path d="M88.68,400.92l0,1.35a3.22,3.22,0,0,1,1.11-1.12,3,3,0,0,1,1.47-.38,2.37,2.37,0,0,1,1.9.72,3.17,3.17,0,0,1,.63,2.15v5.2H93v-5.21a2.44,2.44,0,0,0-.45-1.58,1.77,1.77,0,0,0-1.42-.52,2.23,2.23,0,0,0-1.44.51,3.05,3.05,0,0,0-.92,1.37v5.43h-.88v-7.92Z"/><path d="M101.18,407.84A2.87,2.87,0,0,1,98.65,409a2.45,2.45,0,0,1-1.92-.74,3.23,3.23,0,0,1-.68-2.18v-5.15h.88v5c0,1.51.61,2.27,1.83,2.27a2.25,2.25,0,0,0,2.41-1.58v-5.73h.88v7.92h-.85Z"/><path d="M105.69,398.89v2h1.64v.71h-1.64v5.29a1.63,1.63,0,0,0,.23,1,.93.93,0,0,0,.8.33,5.75,5.75,0,0,0,.71-.08l0,.71a2.69,2.69,0,0,1-.94.13,1.56,1.56,0,0,1-1.31-.53,2.42,2.42,0,0,1-.41-1.54v-5.29h-1.46v-.71h1.46v-2Z"/><path d="M112.21,409a3.4,3.4,0,0,1-3.1-1.89,4.35,4.35,0,0,1-.45-2v-.32a4.75,4.75,0,0,1,.44-2.06,3.56,3.56,0,0,1,1.24-1.44,3,3,0,0,1,1.71-.52,2.88,2.88,0,0,1,2.29,1,4,4,0,0,1,.85,2.7v.49h-5.66v.17a3.35,3.35,0,0,0,.77,2.24,2.47,2.47,0,0,0,2,.9,2.86,2.86,0,0,0,1.24-.26,2.76,2.76,0,0,0,1-.82l.55.42A3.21,3.21,0,0,1,112.21,409Zm-.16-7.47a2.22,2.22,0,0,0-1.67.72,3.38,3.38,0,0,0-.82,1.95h4.75v-.1a2.89,2.89,0,0,0-.65-1.86A2,2,0,0,0,112.05,401.52Zm1-3.93h1.06l-1.69,2.05h-.77Z"/><path d="M125.29,406.83a1.25,1.25,0,0,0-.53-1.05,4.08,4.08,0,0,0-1.58-.62,7.35,7.35,0,0,1-1.63-.51,2.26,2.26,0,0,1-.87-.71,1.82,1.82,0,0,1-.28-1,1.9,1.9,0,0,1,.78-1.55,3.19,3.19,0,0,1,2-.61,3.3,3.3,0,0,1,2.13.65,2.13,2.13,0,0,1,.8,1.72h-.88a1.41,1.41,0,0,0-.58-1.16,2.65,2.65,0,0,0-2.86-.08,1.19,1.19,0,0,0-.52,1,1.06,1.06,0,0,0,.44.92,4.54,4.54,0,0,0,1.58.6A7.69,7.69,0,0,1,125,405a2.29,2.29,0,0,1,.86.75,2,2,0,0,1-.53,2.65,3.48,3.48,0,0,1-2.12.6,3.57,3.57,0,0,1-2.24-.67,2,2,0,0,1-.86-1.7H121a1.54,1.54,0,0,0,.64,1.2,2.71,2.71,0,0,0,1.58.43,2.47,2.47,0,0,0,1.48-.41A1.18,1.18,0,0,0,125.29,406.83Z"/><path d="M129.5,398.89v2h1.64v.71H129.5v5.29a1.63,1.63,0,0,0,.24,1,.89.89,0,0,0,.79.33,5.55,5.55,0,0,0,.71-.08l0,.71a2.69,2.69,0,0,1-.94.13,1.56,1.56,0,0,1-1.31-.53,2.48,2.48,0,0,1-.41-1.54v-5.29h-1.46v-.71h1.46v-2Z"/><path d="M138,408.84a3.9,3.9,0,0,1-.17-1.1,3.07,3.07,0,0,1-1.18.92,3.54,3.54,0,0,1-1.51.33,2.68,2.68,0,0,1-1.85-.64,2.09,2.09,0,0,1-.71-1.61,2.13,2.13,0,0,1,1-1.83,4.6,4.6,0,0,1,2.68-.68h1.59v-.9a1.72,1.72,0,0,0-.52-1.33,2.15,2.15,0,0,0-1.53-.49,2.42,2.42,0,0,0-1.52.47,1.39,1.39,0,0,0-.6,1.13h-.88a2.06,2.06,0,0,1,.88-1.64,3.41,3.41,0,0,1,2.16-.69,3.13,3.13,0,0,1,2.1.66,2.36,2.36,0,0,1,.78,1.85V407a4.66,4.66,0,0,0,.24,1.72v.09Zm-2.76-.63a3,3,0,0,0,1.57-.42,2.52,2.52,0,0,0,1-1.14v-1.74h-1.57a4,4,0,0,0-2.05.48,1.44,1.44,0,0,0-.74,1.27,1.42,1.42,0,0,0,.5,1.11A1.86,1.86,0,0,0,135.2,408.21Zm1.73-10.62H138l-1.69,2.05h-.77Z"/><path d="M142.35,398.89v2H144v.71h-1.64v5.29a1.63,1.63,0,0,0,.24,1,.91.91,0,0,0,.79.33,5.37,5.37,0,0,0,.71-.08l0,.71a2.65,2.65,0,0,1-.94.13,1.57,1.57,0,0,1-1.31-.53,2.48,2.48,0,0,1-.41-1.54v-5.29H140v-.71h1.46v-2Z"/><path d="M148.32,407.58l2.31-6.66h1l-3.38,9.27-.18.41a2.13,2.13,0,0,1-2,1.44,2.43,2.43,0,0,1-.68-.1v-.73l.46.05a1.61,1.61,0,0,0,1-.32,2.42,2.42,0,0,0,.68-1.1l.39-1.07-3-7.85h1Z"/><path d="M98.16,213.59h-.9l-6.13-9.12v9.12h-.91V202.93h.91l6.14,9.13v-9.13h.89Z"/><path d="M103.74,213.74a3.47,3.47,0,0,1-1.83-.5,3.36,3.36,0,0,1-1.27-1.39,4.35,4.35,0,0,1-.45-2v-.32a4.61,4.61,0,0,1,.44-2.06,3.54,3.54,0,0,1,1.23-1.44,3.13,3.13,0,0,1,1.72-.52,2.87,2.87,0,0,1,2.29,1,4,4,0,0,1,.84,2.69v.49h-5.65v.17a3.28,3.28,0,0,0,.77,2.24,2.44,2.44,0,0,0,1.94.9,2.91,2.91,0,0,0,1.25-.26,2.65,2.65,0,0,0,1-.82l.55.42A3.2,3.2,0,0,1,103.74,213.74Zm-.16-7.47a2.2,2.2,0,0,0-1.67.72,3.35,3.35,0,0,0-.82,1.95h4.75v-.09a2.85,2.85,0,0,0-.65-1.86A2,2,0,0,0,103.58,206.27Zm.09-2.4,1.25-1.42h.79v.08L104,204.44h-.63l-1.73-1.91v-.08h.79Z"/><path d="M109.22,205.67l0,1.29a2.89,2.89,0,0,1,1.09-1.08,3,3,0,0,1,1.47-.36,2.22,2.22,0,0,1,2.38,1.54,3,3,0,0,1,1.13-1.14,3.14,3.14,0,0,1,1.57-.4c1.7,0,2.57.93,2.6,2.78v5.29h-.88v-5.22a2.32,2.32,0,0,0-.45-1.57,1.84,1.84,0,0,0-1.47-.52,2.37,2.37,0,0,0-1.6.61,2.16,2.16,0,0,0-.72,1.46v5.24h-.88V208.3a2.2,2.2,0,0,0-.48-1.51,1.9,1.9,0,0,0-1.46-.51,2.2,2.2,0,0,0-1.42.48,2.78,2.78,0,0,0-.88,1.4v5.43h-.88v-7.92Z"/><path d="M124.78,213.74a3.49,3.49,0,0,1-1.83-.5,3.42,3.42,0,0,1-1.27-1.39,4.35,4.35,0,0,1-.45-2v-.32a4.75,4.75,0,0,1,.44-2.06,3.56,3.56,0,0,1,1.24-1.44,3.1,3.1,0,0,1,1.71-.52,2.87,2.87,0,0,1,2.29,1,4,4,0,0,1,.85,2.69v.49H122.1v.17a3.33,3.33,0,0,0,.77,2.24,2.47,2.47,0,0,0,1.95.9,2.86,2.86,0,0,0,1.24-.26,2.76,2.76,0,0,0,1-.82l.55.42A3.21,3.21,0,0,1,124.78,213.74Zm-.16-7.47A2.22,2.22,0,0,0,123,207a3.41,3.41,0,0,0-.82,1.95h4.75v-.09a2.85,2.85,0,0,0-.65-1.86A2,2,0,0,0,124.62,206.27Z"/><path d="M132.39,213a2.27,2.27,0,0,0,1.53-.52,1.77,1.77,0,0,0,.67-1.33h.85a2.53,2.53,0,0,1-.46,1.32,2.8,2.8,0,0,1-1.11.93,3.25,3.25,0,0,1-1.48.34,3.07,3.07,0,0,1-2.47-1.08,4.4,4.4,0,0,1-.91-2.92v-.26a4.89,4.89,0,0,1,.41-2.08,3.14,3.14,0,0,1,1.17-1.39,3.31,3.31,0,0,1,1.79-.49,3,3,0,0,1,2.15.78,2.82,2.82,0,0,1,.91,2h-.85a2.12,2.12,0,0,0-2.21-2.07,2.17,2.17,0,0,0-1.84.86,3.85,3.85,0,0,0-.66,2.4v.25a3.79,3.79,0,0,0,.66,2.37A2.19,2.19,0,0,0,132.39,213Z"/><path d="M139.07,209.6l-1,1v3h-.88V202.34h.88v7.2l.82-.89,3-3H143L139.67,209l3.66,4.58h-1.05Z"/><path d="M144.05,209.51a4.78,4.78,0,0,1,.44-2.06,3.42,3.42,0,0,1,1.26-1.42,3.36,3.36,0,0,1,1.83-.51,3.24,3.24,0,0,1,2.56,1.11,4.25,4.25,0,0,1,1,2.94v.18a4.63,4.63,0,0,1-.45,2.07,3.22,3.22,0,0,1-1.25,1.42,3.42,3.42,0,0,1-1.83.5,3.25,3.25,0,0,1-2.56-1.11,4.25,4.25,0,0,1-1-2.94Zm.88.24a3.57,3.57,0,0,0,.74,2.34,2.49,2.49,0,0,0,3.85,0,3.73,3.73,0,0,0,.74-2.41v-.17a4.1,4.1,0,0,0-.34-1.66,2.77,2.77,0,0,0-.95-1.17,2.44,2.44,0,0,0-1.39-.41,2.34,2.34,0,0,0-1.91.92,3.72,3.72,0,0,0-.74,2.4Z"/><path d="M67.48,251.32l.06.23.07-.23L71,242h1l-4,10.66h-.86l-4-10.66h1Z"/><path d="M76.06,252.79a3.49,3.49,0,0,1-1.83-.5A3.36,3.36,0,0,1,73,250.9a4.35,4.35,0,0,1-.45-2v-.32a4.75,4.75,0,0,1,.44-2.06,3.62,3.62,0,0,1,1.23-1.44,3.13,3.13,0,0,1,1.72-.52,2.87,2.87,0,0,1,2.29,1,4,4,0,0,1,.84,2.69v.49H73.38v.17a3.33,3.33,0,0,0,.77,2.24,2.47,2.47,0,0,0,1.95.9,2.86,2.86,0,0,0,1.24-.26,2.76,2.76,0,0,0,1-.82l.55.42A3.21,3.21,0,0,1,76.06,252.79Zm-.16-7.47a2.2,2.2,0,0,0-1.67.72,3.41,3.41,0,0,0-.82,2h4.75v-.09a2.85,2.85,0,0,0-.65-1.86A2,2,0,0,0,75.9,245.32Z"/><path d="M81.72,252.64h-.88V241.39h.88Z"/><path d="M86,248.65l-1,1v3H84.1V241.39H85v7.2l.83-.89,3-3H90l-3.37,3.34,3.66,4.58h-1Z"/><path d="M96.45,252.64a4.22,4.22,0,0,1-.17-1.1,3,3,0,0,1-1.17.92,3.58,3.58,0,0,1-1.52.33,2.61,2.61,0,0,1-1.84-.64,2,2,0,0,1-.71-1.61,2.12,2.12,0,0,1,1-1.83,4.63,4.63,0,0,1,2.69-.67h1.58v-.91a1.72,1.72,0,0,0-.52-1.33,2.15,2.15,0,0,0-1.53-.49,2.39,2.39,0,0,0-1.51.47,1.39,1.39,0,0,0-.6,1.13h-.88a2,2,0,0,1,.88-1.64,3.37,3.37,0,0,1,2.16-.69,3.1,3.1,0,0,1,2.09.66,2.41,2.41,0,0,1,.79,1.85v3.75a4.66,4.66,0,0,0,.24,1.72v.09ZM93.7,252a3,3,0,0,0,1.57-.42,2.51,2.51,0,0,0,1-1.14v-1.74H94.71a3.9,3.9,0,0,0-2,.48,1.43,1.43,0,0,0-.74,1.28,1.4,1.4,0,0,0,.49,1.1A1.84,1.84,0,0,0,93.7,252Zm1.72-10.62h1.07l-1.69,2.05H94Z"/><path d="M103.34,252.64V242h3.14a4.08,4.08,0,0,1,2.61.71,2.52,2.52,0,0,1,.88,2.08,2.37,2.37,0,0,1-.45,1.44,2.48,2.48,0,0,1-1.23.88,2.49,2.49,0,0,1,1.49.91,2.54,2.54,0,0,1,.57,1.64,2.77,2.77,0,0,1-.91,2.21,3.73,3.73,0,0,1-2.54.79Zm.9-5.88h2.46a2.71,2.71,0,0,0,1.74-.53,1.8,1.8,0,0,0,.62-1.49,1.76,1.76,0,0,0-.64-1.51,3.15,3.15,0,0,0-1.94-.49h-2.24Zm0,.76v4.36h2.7a2.7,2.7,0,0,0,1.83-.59,2,2,0,0,0,.68-1.63,2,2,0,0,0-.65-1.56,2.57,2.57,0,0,0-1.79-.58Z"/><path d="M116,245.46a3.61,3.61,0,0,0-.59-.05,2.17,2.17,0,0,0-1.39.46,2.52,2.52,0,0,0-.81,1.33v5.44h-.87v-7.92h.86V246a2.34,2.34,0,0,1,2.24-1.41,1.37,1.37,0,0,1,.58.1Z"/><path d="M117.32,242.43a.57.57,0,0,1,.16-.42.59.59,0,0,1,.44-.17.6.6,0,0,1,.44.17.57.57,0,0,1,.17.42.57.57,0,0,1-.17.41.6.6,0,0,1-.44.17.59.59,0,0,1-.44-.17A.56.56,0,0,1,117.32,242.43Zm1,10.21h-.88v-7.92h.88Z"/><path d="M122.09,242.69v2h1.64v.72h-1.64v5.28a1.63,1.63,0,0,0,.24,1,.91.91,0,0,0,.79.33,5.66,5.66,0,0,0,.72-.08l0,.72a2.94,2.94,0,0,1-.94.12,1.6,1.6,0,0,1-1.31-.52,2.51,2.51,0,0,1-.41-1.55v-5.28h-1.45v-.72h1.45v-2Z"/><path d="M130.55,252.64a4.22,4.22,0,0,1-.17-1.1,3,3,0,0,1-1.17.92,3.57,3.57,0,0,1-1.51.33,2.62,2.62,0,0,1-1.85-.64,2.07,2.07,0,0,1-.71-1.61,2.12,2.12,0,0,1,1-1.83,4.65,4.65,0,0,1,2.69-.67h1.59v-.91a1.72,1.72,0,0,0-.53-1.33,2.14,2.14,0,0,0-1.52-.49,2.4,2.4,0,0,0-1.52.47,1.39,1.39,0,0,0-.6,1.13h-.88a2,2,0,0,1,.88-1.64,3.39,3.39,0,0,1,2.16-.69,3.1,3.1,0,0,1,2.09.66,2.41,2.41,0,0,1,.79,1.85v3.75a4.66,4.66,0,0,0,.24,1.72v.09ZM127.8,252a3,3,0,0,0,1.57-.42,2.53,2.53,0,0,0,1-1.14v-1.74h-1.57a3.9,3.9,0,0,0-2,.48,1.43,1.43,0,0,0-.74,1.28,1.4,1.4,0,0,0,.49,1.1A1.84,1.84,0,0,0,127.8,252Zm1.73-10.62h1.06l-1.69,2.05h-.77Z"/><path d="M134.42,244.72l0,1.35a3.1,3.1,0,0,1,1.11-1.11,2.89,2.89,0,0,1,1.47-.39,2.37,2.37,0,0,1,1.9.72,3.19,3.19,0,0,1,.63,2.15v5.2h-.87v-5.2a2.51,2.51,0,0,0-.45-1.59,1.8,1.8,0,0,0-1.42-.52,2.23,2.23,0,0,0-1.44.51,3,3,0,0,0-.92,1.37v5.43h-.88v-7.92Z"/><path d="M141.77,242.43a.62.62,0,0,1,1-.42.57.57,0,0,1,.16.42.56.56,0,0,1-.16.41.61.61,0,0,1-.45.17.57.57,0,0,1-.6-.58Zm1,10.21h-.87v-7.92h.87Z"/><path d="M148.25,252.79a3.43,3.43,0,0,1-1.82-.5,3.29,3.29,0,0,1-1.27-1.39,4.23,4.23,0,0,1-.46-2v-.32a4.62,4.62,0,0,1,.45-2.06,3.47,3.47,0,0,1,1.23-1.44,3.12,3.12,0,0,1,1.71-.52,2.85,2.85,0,0,1,2.29,1,4,4,0,0,1,.85,2.69v.49h-5.66v.17a3.29,3.29,0,0,0,.78,2.24,2.44,2.44,0,0,0,1.94.9,2.86,2.86,0,0,0,1.24-.26,2.68,2.68,0,0,0,1-.82l.55.42A3.2,3.2,0,0,1,148.25,252.79Zm-.16-7.47a2.18,2.18,0,0,0-1.66.72,3.42,3.42,0,0,0-.83,2h4.76v-.09a2.9,2.9,0,0,0-.65-1.86A2,2,0,0,0,148.09,245.32Z"/><path d="M110.9,286.7h-5v5H105V281h6.6v.76h-5.7v4.15h5Z"/><path d="M116.73,284.51a3.61,3.61,0,0,0-.59-.05,2.17,2.17,0,0,0-1.39.46,2.52,2.52,0,0,0-.81,1.33v5.44h-.87v-7.92h.86V285a2.33,2.33,0,0,1,2.23-1.41,1.31,1.31,0,0,1,.58.1Z"/><path d="M122.82,291.69a4.3,4.3,0,0,1-.16-1.1,3,3,0,0,1-1.18.92,3.57,3.57,0,0,1-1.51.33,2.64,2.64,0,0,1-1.85-.64,2.07,2.07,0,0,1-.71-1.61,2.12,2.12,0,0,1,1-1.83,4.65,4.65,0,0,1,2.69-.68h1.59v-.9a1.72,1.72,0,0,0-.53-1.33,2.11,2.11,0,0,0-1.52-.49,2.42,2.42,0,0,0-1.52.47,1.39,1.39,0,0,0-.6,1.13h-.88a2,2,0,0,1,.88-1.64,3.41,3.41,0,0,1,2.16-.69,3.1,3.1,0,0,1,2.09.66,2.38,2.38,0,0,1,.79,1.85v3.75a4.66,4.66,0,0,0,.24,1.72v.09Zm-2.75-.63a3,3,0,0,0,1.57-.42,2.53,2.53,0,0,0,1-1.14v-1.74h-1.57a3.93,3.93,0,0,0-2,.48,1.45,1.45,0,0,0-.74,1.28,1.43,1.43,0,0,0,.49,1.1A1.84,1.84,0,0,0,120.07,291.06Z"/><path d="M126.69,283.77l0,1.35a3.1,3.1,0,0,1,1.11-1.11,2.9,2.9,0,0,1,1.48-.39,2.35,2.35,0,0,1,1.89.72,3.19,3.19,0,0,1,.63,2.15v5.2H131v-5.2a2.39,2.39,0,0,0-.45-1.59,1.78,1.78,0,0,0-1.42-.52,2.23,2.23,0,0,0-1.44.51,3.05,3.05,0,0,0-.92,1.37v5.43h-.87v-7.92Z"/><path d="M137,291.1a2.27,2.27,0,0,0,1.53-.52,1.8,1.8,0,0,0,.67-1.33h.84a2.44,2.44,0,0,1-.45,1.32,2.8,2.8,0,0,1-1.11.93,3.28,3.28,0,0,1-1.48.34,3.06,3.06,0,0,1-2.48-1.09,4.41,4.41,0,0,1-.91-2.91v-.26a5,5,0,0,1,.41-2.08,3.23,3.23,0,0,1,1.18-1.39,3.31,3.31,0,0,1,1.79-.49,3.06,3.06,0,0,1,2.15.78,2.83,2.83,0,0,1,.9,2h-.84a2.14,2.14,0,0,0-.67-1.5,2.38,2.38,0,0,0-3.38.29,3.85,3.85,0,0,0-.66,2.4v.25a3.79,3.79,0,0,0,.66,2.37A2.18,2.18,0,0,0,137,291.1Z"/><path d="M141.77,281.48a.62.62,0,0,1,1-.42.57.57,0,0,1,.16.42.56.56,0,0,1-.16.41.61.61,0,0,1-.45.17.57.57,0,0,1-.6-.58Zm1,10.21h-.87v-7.92h.87Z"/><path d="M148.25,291.84a3.43,3.43,0,0,1-1.82-.5,3.29,3.29,0,0,1-1.27-1.39,4.23,4.23,0,0,1-.46-2v-.32a4.75,4.75,0,0,1,.44-2.06,3.56,3.56,0,0,1,1.24-1.44,3.12,3.12,0,0,1,1.71-.52,2.85,2.85,0,0,1,2.29,1,4,4,0,0,1,.85,2.69v.49h-5.66V288a3.29,3.29,0,0,0,.78,2.24,2.44,2.44,0,0,0,1.94.9,2.86,2.86,0,0,0,1.24-.26,2.68,2.68,0,0,0,1-.82l.55.42A3.21,3.21,0,0,1,148.25,291.84Zm-.16-7.47a2.18,2.18,0,0,0-1.66.72,3.36,3.36,0,0,0-.83,2h4.76V287a2.91,2.91,0,0,0-.66-1.86A2,2,0,0,0,148.09,284.37Z"/><rect class="cls-9" x="163.51" y="121.89" width="43.34" height="18.43"/><rect class="cls-10" x="206.85" y="121.89" width="230.98" height="18.43"/><rect class="cls-10" x="252.53" y="395.24" width="47.72" height="18.43"/><rect class="cls-10" x="184.76" y="317.14" width="6.59" height="18.43"/><rect class="cls-10" x="180.63" y="356.19" width="1.78" height="18.43"/><rect class="cls-10" x="200.64" y="239.04" width="1.9" height="18.43"/><rect class="cls-9" x="163.51" y="160.94" width="131.64" height="18.43"/><rect class="cls-9" x="163.51" y="199.99" width="96.19" height="18.43"/><rect class="cls-9" x="163.51" y="239.04" width="37.47" height="18.43"/><rect class="cls-9" x="163.51" y="278.09" width="74.32" height="18.43"/><rect class="cls-9" x="163.51" y="317.14" width="21.68" height="18.43"/><rect class="cls-9" x="163.51" y="356.19" width="17.06" height="18.43"/><rect class="cls-9" x="163.51" y="395.24" width="89.02" height="18.43"/><line class="cls-7" x1="437.83" y1="119.76" x2="437.83" y2="142.46"/><line class="cls-7" x1="191.34" y1="315" x2="191.34" y2="337.71"/><line class="cls-7" x1="182.42" y1="354.05" x2="182.42" y2="376.76"/><line class="cls-7" x1="300.25" y1="393.1" x2="300.25" y2="415.81"/><line class="cls-7" x1="200.64" y1="275.95" x2="200.64" y2="298.66"/><line class="cls-7" x1="202.54" y1="236.9" x2="202.54" y2="259.61"/><line class="cls-7" x1="217.36" y1="197.86" x2="217.36" y2="220.56"/><line class="cls-7" x1="230.55" y1="158.81" x2="230.55" y2="181.51"/></svg>