<?xml version="1.0" encoding="utf-8" ?>
<svg xmlns="http://www.w3.org/2000/svg" xmlns:xlink="http://www.w3.org/1999/xlink" width="64" height="64">
	<path fill="#14B8A6" d="M64 32Q64 32.785553 63.961452 33.570164Q63.922909 34.354774 63.845913 35.136547Q63.768913 35.91832 63.653648 36.69537Q63.53838 37.472424 63.385124 38.242886Q63.231869 39.013348 63.040993 39.77536Q62.850121 40.537376 62.622086 41.289108Q62.394051 42.040833 62.129402 42.780468Q61.864754 43.520103 61.564137 44.245865Q61.263519 44.971619 60.92765 45.681755Q60.591782 46.391891 60.221474 47.08469Q59.851166 47.777489 59.447308 48.451279Q59.043449 49.125069 58.607018 49.778236Q58.170586 50.431404 57.702633 51.06237Q57.23468 51.693336 56.736328 52.300583Q56.237976 52.907822 55.71043 53.48988Q55.182884 54.071938 54.627411 54.627411Q54.071938 55.182884 53.489883 55.71043Q52.907822 56.237976 52.300583 56.736328Q51.693336 57.23468 51.06237 57.702633Q50.431404 58.170586 49.778236 58.607018Q49.125069 59.043449 48.451279 59.447308Q47.777489 59.851166 47.084694 60.221478Q46.391891 60.591782 45.681755 60.927654Q44.971619 61.263519 44.245865 61.56414Q43.520103 61.864761 42.780472 62.129406Q42.040833 62.394051 41.289108 62.622089Q40.537376 62.850121 39.77536 63.040997Q39.013348 63.231873 38.242886 63.385124Q37.472424 63.53838 36.695374 63.653645Q35.91832 63.768913 35.136551 63.845913Q34.354774 63.922909 33.570164 63.961456Q32.785553 64 32 64Q31.214443 64 30.429834 63.961452Q29.645226 63.922909 28.863453 63.845913Q28.081676 63.768913 27.304623 63.653648Q26.527569 63.53838 25.757109 63.385124Q24.986647 63.231869 24.224632 63.040993Q23.46262 62.850121 22.71089 62.622086Q21.959158 62.394051 21.219522 62.129402Q20.479885 61.864754 19.754128 61.564137Q19.028368 61.263519 18.318233 60.92765Q17.608101 60.591782 16.915302 60.221474Q16.222504 59.851166 15.548711 59.447308Q14.874917 59.043449 14.221751 58.607018Q13.568585 58.170586 12.937622 57.702633Q12.306658 57.23468 11.699415 56.736328Q11.092173 56.237976 10.510114 55.71043Q9.9280548 55.182884 9.3725824 54.627411Q8.8171101 54.071938 8.2895641 53.489883Q7.7620168 52.907822 7.2636657 52.300583Q6.7653141 51.693336 6.2973585 51.06237Q5.8294034 50.431404 5.392972 49.778236Q4.9565401 49.125069 4.5526838 48.451279Q4.1488276 47.777489 3.7785194 47.084694Q3.4082108 46.391891 3.0723422 45.681755Q2.7364738 44.971619 2.4358547 44.245865Q2.1352355 43.520103 1.8705897 42.780472Q1.6059439 42.040833 1.3779092 41.289108Q1.1498743 40.537376 0.95899981 39.77536Q0.7681253 39.013348 0.61487097 38.242886Q0.46161661 37.472424 0.34635165 36.695374Q0.23108667 35.91832 0.15408874 35.136551Q0.077090792 34.354774 0.038545396 33.570164Q0 32.785553 0 32Q0 31.214443 0.038545396 30.429834Q0.077090792 29.645226 0.15408874 28.863453Q0.23108667 28.081676 0.34635162 27.304623Q0.46161661 26.527569 0.61487097 25.757109Q0.7681253 24.986647 0.95899975 24.224632Q1.1498743 23.46262 1.3779092 22.71089Q1.6059439 21.959158 1.8705897 21.219522Q2.1352355 20.479885 2.4358547 19.754128Q2.7364738 19.028368 3.0723422 18.318233Q3.4082105 17.608101 3.7785192 16.915302Q4.1488276 16.222504 4.5526838 15.548711Q4.9565401 14.874917 5.392972 14.221751Q5.8294034 13.568585 6.2973585 12.937622Q6.7653136 12.306658 7.2636652 11.699415Q7.7620163 11.092173 8.2895632 10.510114Q8.8171101 9.9280548 9.3725824 9.3725824Q9.9280548 8.8171101 10.510114 8.2895641Q11.092173 7.7620168 11.699415 7.2636657Q12.306658 6.7653141 12.937622 6.2973585Q13.568586 5.8294034 14.221752 5.392972Q14.874918 4.9565401 15.548711 4.5526838Q16.222504 4.1488276 16.915302 3.7785194Q17.608101 3.4082108 18.318233 3.0723422Q19.028368 2.7364738 19.754128 2.4358547Q20.479885 2.1352355 21.219521 1.8705897Q21.959158 1.6059439 22.71089 1.3779092Q23.46262 1.1498743 24.224632 0.95899981Q24.986647 0.7681253 25.757109 0.61487097Q26.527569 0.46161661 27.304623 0.34635165Q28.081676 0.23108667 28.863453 0.15408874Q29.645226 0.077090792 30.429836 0.038545396Q31.214443 0 32 0Q32.785553 0 33.570164 0.038545396Q34.354774 0.077090792 35.136547 0.15408874Q35.91832 0.23108667 36.69537 0.34635162Q37.472424 0.46161661 38.242886 0.61487097Q39.013348 0.7681253 39.77536 0.95899975Q40.537376 1.1498743 41.289108 1.3779092Q42.040833 1.6059439 42.780468 1.8705897Q43.520103 2.1352355 44.245865 2.4358547Q44.971619 2.7364738 45.681755 3.0723422Q46.391891 3.4082105 47.08469 3.7785192Q47.777489 4.1488276 48.451279 4.5526838Q49.125069 4.9565401 49.778236 5.392972Q50.431404 5.8294034 51.06237 6.2973585Q51.693336 6.7653136 52.300583 7.2636652Q52.907822 7.7620163 53.48988 8.2895632Q54.071938 8.8171101 54.627411 9.3725824Q55.182884 9.9280548 55.71043 10.510114Q56.237976 11.092173 56.736328 11.699415Q57.23468 12.306658 57.702633 12.937622Q58.170586 13.568586 58.607018 14.221752Q59.043449 14.874918 59.447308 15.548711Q59.851166 16.222504 60.221478 16.915302Q60.591782 17.608101 60.927654 18.318233Q61.263519 19.028368 61.56414 19.754128Q61.864761 20.479885 62.129406 21.219521Q62.394051 21.959158 62.622089 22.71089Q62.850121 23.46262 63.040997 24.224632Q63.231873 24.986647 63.385124 25.757109Q63.53838 26.527569 63.653645 27.304623Q63.768913 28.081676 63.845913 28.863453Q63.922909 29.645226 63.961456 30.429836Q64 31.214443 64 32Z"/>
	<path fill="none" stroke="white" stroke-width="2" stroke-miterlimit="10" transform="translate(17 17)" d="M30 15Q30 15.368229 29.98193 15.736015Q29.963863 16.103802 29.927771 16.470257Q29.891678 16.836714 29.837646 17.200958Q29.783615 17.565201 29.711777 17.926353Q29.639938 18.287506 29.550465 18.644701Q29.460995 19.001896 29.354103 19.354269Q29.247211 19.706642 29.123158 20.053345Q28.999104 20.400049 28.858189 20.740248Q28.717274 21.080448 28.559835 21.413324Q28.402399 21.746201 28.228817 22.07095Q28.055233 22.395699 27.865925 22.711538Q27.676617 23.027378 27.47204 23.333549Q27.267464 23.639721 27.048109 23.935486Q26.828756 24.231251 26.595156 24.515896Q26.361553 24.800541 26.114265 25.07338Q25.866978 25.34622 25.6066 25.606598Q25.346222 25.866974 25.073381 26.114262Q24.800541 26.361549 24.515896 26.595154Q24.231251 26.828754 23.935486 27.048109Q23.639721 27.267464 23.333549 27.47204Q23.027378 27.676617 22.711538 27.865925Q22.395699 28.055233 22.07095 28.228817Q21.746201 28.402399 21.413324 28.559837Q21.080448 28.717274 20.74025 28.858189Q20.400051 28.999104 20.053345 29.123156Q19.706642 29.24721 19.354269 29.354101Q19.001896 29.460993 18.644701 29.550467Q18.287506 29.639938 17.926353 29.711777Q17.565201 29.783615 17.200958 29.837646Q16.836716 29.891678 16.470259 29.927771Q16.103802 29.963863 15.736015 29.98193Q15.368229 30 15 30Q14.631771 30 14.263985 29.98193Q13.896199 29.963863 13.529743 29.927771Q13.163286 29.891678 12.799043 29.837646Q12.434798 29.783615 12.073645 29.711777Q11.71249 29.639938 11.355297 29.550465Q10.998103 29.460995 10.64573 29.354103Q10.293356 29.247211 9.9466515 29.123158Q9.599947 28.999104 9.2597475 28.858189Q8.919548 28.717274 8.5866728 28.559835Q8.2537975 28.402399 7.9290481 28.228817Q7.6042986 28.055233 7.2884579 27.865925Q6.9726171 27.676617 6.6664457 27.47204Q6.3602743 27.267464 6.0645099 27.048109Q5.7687454 26.828756 5.4841008 26.595156Q5.1994553 26.361553 4.9266152 26.114265Q4.6537752 25.866978 4.3933978 25.6066Q4.1330204 25.346222 3.8857327 25.073381Q3.6384449 24.800541 3.4048429 24.515896Q3.1712403 24.231251 2.9518862 23.935486Q2.7325325 23.639721 2.5279553 23.333549Q2.3233781 23.027378 2.1340704 22.711538Q1.9447627 22.395699 1.7711809 22.07095Q1.5975988 21.746201 1.4401605 21.413324Q1.2827221 21.080448 1.1418068 20.74025Q1.0008916 20.400051 0.87683886 20.053345Q0.75278616 19.706642 0.64589489 19.354269Q0.53900355 19.001896 0.44953114 18.644701Q0.3600587 18.287506 0.28822073 17.926353Q0.21638277 17.565201 0.16235231 17.200958Q0.10832187 16.836716 0.072229087 16.470259Q0.036136307 16.103802 0.018068153 15.736015Q0 15.368229 0 15Q0 14.631771 0.018068153 14.263985Q0.036136307 13.896199 0.072229087 13.529743Q0.10832187 13.163286 0.16235232 12.799043Q0.21638277 12.434798 0.28822073 12.073645Q0.3600587 11.71249 0.44953111 11.355297Q0.53900355 10.998103 0.64589489 10.64573Q0.75278616 10.293356 0.87683886 9.9466515Q1.0008916 9.599947 1.1418068 9.2597475Q1.2827221 8.919548 1.4401604 8.5866728Q1.5975988 8.2537975 1.7711809 7.9290481Q1.9447629 7.6042986 2.1340706 7.2884579Q2.3233781 6.9726171 2.5279555 6.6664457Q2.7325325 6.3602743 2.9518867 6.0645099Q3.1712406 5.7687454 3.4048429 5.4841008Q3.6384449 5.1994553 3.8857327 4.9266152Q4.1330204 4.6537752 4.3933978 4.3933978Q4.6537752 4.1330204 4.9266152 3.8857327Q5.1994553 3.6384449 5.4841003 3.4048429Q5.7687454 3.1712403 6.0645099 2.9518862Q6.3602743 2.7325325 6.6664457 2.5279553Q6.9726171 2.3233781 7.2884579 2.1340704Q7.6042986 1.9447627 7.9290485 1.7711809Q8.2537975 1.5975988 8.5866728 1.4401605Q8.919548 1.2827221 9.2597475 1.1418068Q9.599947 1.0008916 9.9466515 0.87683886Q10.293356 0.75278616 10.645729 0.64589489Q10.998102 0.53900355 11.355297 0.44953114Q11.71249 0.3600587 12.073645 0.28822073Q12.434798 0.21638277 12.799042 0.16235231Q13.163286 0.10832187 13.529743 0.072229087Q13.896199 0.036136307 14.263985 0.018068153Q14.631771 0 15 0Q15.368229 0 15.736015 0.018068153Q16.103802 0.036136307 16.470257 0.072229087Q16.836714 0.10832187 17.200958 0.16235232Q17.565201 0.21638277 17.926353 0.28822073Q18.287506 0.3600587 18.644701 0.44953111Q19.001896 0.53900355 19.354269 0.64589489Q19.706642 0.75278616 20.053345 0.87683886Q20.400049 1.0008916 20.740248 1.1418068Q21.080448 1.2827221 21.413324 1.4401604Q21.746201 1.5975988 22.07095 1.7711809Q22.395699 1.9447629 22.711538 2.1340706Q23.027378 2.3233781 23.333549 2.5279555Q23.639721 2.7325325 23.935486 2.9518867Q24.231251 3.1712406 24.515896 3.4048429Q24.800541 3.6384449 25.07338 3.8857327Q25.34622 4.1330204 25.606598 4.3933978Q25.866974 4.6537752 26.114262 4.9266152Q26.361549 5.1994553 26.595154 5.4841003Q26.828754 5.7687454 27.048109 6.0645099Q27.267464 6.3602743 27.47204 6.6664457Q27.676617 6.9726171 27.865925 7.2884579Q28.055233 7.6042986 28.228817 7.9290485Q28.402399 8.2537975 28.559837 8.5866728Q28.717274 8.919548 28.858189 9.2597475Q28.999104 9.599947 29.123156 9.9466515Q29.24721 10.293356 29.354101 10.645729Q29.460993 10.998102 29.550467 11.355297Q29.639938 11.71249 29.711777 12.073645Q29.783615 12.434798 29.837646 12.799042Q29.891678 13.163286 29.927771 13.529743Q29.963863 13.896199 29.98193 14.263985Q30 14.631771 30 15Z"/>
	<path fill="none" stroke="white" stroke-width="2" stroke-linecap="round" stroke-linejoin="round" transform="translate(28.25 26)" d="M0 2.25L5.2498498 7.4994001M9.75 0L2.25 7.5" fill-rule="evenodd"/>
</svg>
