<?xml version="1.0" encoding="utf-8" ?>
<svg xmlns="http://www.w3.org/2000/svg" xmlns:xlink="http://www.w3.org/1999/xlink" width="64" height="64">
	<path fill="#14B8A6" d="M64 32Q64 32.785553 63.961452 33.570164Q63.922909 34.354774 63.845913 35.136547Q63.768913 35.91832 63.653648 36.69537Q63.53838 37.472424 63.385124 38.242886Q63.231869 39.013348 63.040993 39.77536Q62.850121 40.537376 62.622086 41.289108Q62.394051 42.040833 62.129402 42.780468Q61.864754 43.520103 61.564137 44.245865Q61.263519 44.971619 60.92765 45.681755Q60.591782 46.391891 60.221474 47.08469Q59.851166 47.777489 59.447308 48.451279Q59.043449 49.125069 58.607018 49.778236Q58.170586 50.431404 57.702633 51.06237Q57.23468 51.693336 56.736328 52.300583Q56.237976 52.907822 55.71043 53.48988Q55.182884 54.071938 54.627411 54.627411Q54.071938 55.182884 53.489883 55.71043Q52.907822 56.237976 52.300583 56.736328Q51.693336 57.23468 51.06237 57.702633Q50.431404 58.170586 49.778236 58.607018Q49.125069 59.043449 48.451279 59.447308Q47.777489 59.851166 47.084694 60.221478Q46.391891 60.591782 45.681755 60.927654Q44.971619 61.263519 44.245865 61.56414Q43.520103 61.864761 42.780472 62.129406Q42.040833 62.394051 41.289108 62.622089Q40.537376 62.850121 39.77536 63.040997Q39.013348 63.231873 38.242886 63.385124Q37.472424 63.53838 36.695374 63.653645Q35.91832 63.768913 35.136551 63.845913Q34.354774 63.922909 33.570164 63.961456Q32.785553 64 32 64Q31.214443 64 30.429834 63.961452Q29.645226 63.922909 28.863453 63.845913Q28.081676 63.768913 27.304623 63.653648Q26.527569 63.53838 25.757109 63.385124Q24.986647 63.231869 24.224632 63.040993Q23.46262 62.850121 22.71089 62.622086Q21.959158 62.394051 21.219522 62.129402Q20.479885 61.864754 19.754128 61.564137Q19.028368 61.263519 18.318233 60.92765Q17.608101 60.591782 16.915302 60.221474Q16.222504 59.851166 15.548711 59.447308Q14.874917 59.043449 14.221751 58.607018Q13.568585 58.170586 12.937622 57.702633Q12.306658 57.23468 11.699415 56.736328Q11.092173 56.237976 10.510114 55.71043Q9.9280548 55.182884 9.3725824 54.627411Q8.8171101 54.071938 8.2895641 53.489883Q7.7620168 52.907822 7.2636657 52.300583Q6.7653141 51.693336 6.2973585 51.06237Q5.8294034 50.431404 5.392972 49.778236Q4.9565401 49.125069 4.5526838 48.451279Q4.1488276 47.777489 3.7785194 47.084694Q3.4082108 46.391891 3.0723422 45.681755Q2.7364738 44.971619 2.4358547 44.245865Q2.1352355 43.520103 1.8705897 42.780472Q1.6059439 42.040833 1.3779092 41.289108Q1.1498743 40.537376 0.95899981 39.77536Q0.7681253 39.013348 0.61487097 38.242886Q0.46161661 37.472424 0.34635165 36.695374Q0.23108667 35.91832 0.15408874 35.136551Q0.077090792 34.354774 0.038545396 33.570164Q0 32.785553 0 32Q0 31.214443 0.038545396 30.429834Q0.077090792 29.645226 0.15408874 28.863453Q0.23108667 28.081676 0.34635162 27.304623Q0.46161661 26.527569 0.61487097 25.757109Q0.7681253 24.986647 0.95899975 24.224632Q1.1498743 23.46262 1.3779092 22.71089Q1.6059439 21.959158 1.8705897 21.219522Q2.1352355 20.479885 2.4358547 19.754128Q2.7364738 19.028368 3.0723422 18.318233Q3.4082105 17.608101 3.7785192 16.915302Q4.1488276 16.222504 4.5526838 15.548711Q4.9565401 14.874917 5.392972 14.221751Q5.8294034 13.568585 6.2973585 12.937622Q6.7653136 12.306658 7.2636652 11.699415Q7.7620163 11.092173 8.2895632 10.510114Q8.8171101 9.9280548 9.3725824 9.3725824Q9.9280548 8.8171101 10.510114 8.2895641Q11.092173 7.7620168 11.699415 7.2636657Q12.306658 6.7653141 12.937622 6.2973585Q13.568586 5.8294034 14.221752 5.392972Q14.874918 4.9565401 15.548711 4.5526838Q16.222504 4.1488276 16.915302 3.7785194Q17.608101 3.4082108 18.318233 3.0723422Q19.028368 2.7364738 19.754128 2.4358547Q20.479885 2.1352355 21.219521 1.8705897Q21.959158 1.6059439 22.71089 1.3779092Q23.46262 1.1498743 24.224632 0.95899981Q24.986647 0.7681253 25.757109 0.61487097Q26.527569 0.46161661 27.304623 0.34635165Q28.081676 0.23108667 28.863453 0.15408874Q29.645226 0.077090792 30.429836 0.038545396Q31.214443 0 32 0Q32.785553 0 33.570164 0.038545396Q34.354774 0.077090792 35.136547 0.15408874Q35.91832 0.23108667 36.69537 0.34635162Q37.472424 0.46161661 38.242886 0.61487097Q39.013348 0.7681253 39.77536 0.95899975Q40.537376 1.1498743 41.289108 1.3779092Q42.040833 1.6059439 42.780468 1.8705897Q43.520103 2.1352355 44.245865 2.4358547Q44.971619 2.7364738 45.681755 3.0723422Q46.391891 3.4082105 47.08469 3.7785192Q47.777489 4.1488276 48.451279 4.5526838Q49.125069 4.9565401 49.778236 5.392972Q50.431404 5.8294034 51.06237 6.2973585Q51.693336 6.7653136 52.300583 7.2636652Q52.907822 7.7620163 53.48988 8.2895632Q54.071938 8.8171101 54.627411 9.3725824Q55.182884 9.9280548 55.71043 10.510114Q56.237976 11.092173 56.736328 11.699415Q57.23468 12.306658 57.702633 12.937622Q58.170586 13.568586 58.607018 14.221752Q59.043449 14.874918 59.447308 15.548711Q59.851166 16.222504 60.221478 16.915302Q60.591782 17.608101 60.927654 18.318233Q61.263519 19.028368 61.56414 19.754128Q61.864761 20.479885 62.129406 21.219521Q62.394051 21.959158 62.622089 22.71089Q62.850121 23.46262 63.040997 24.224632Q63.231873 24.986647 63.385124 25.757109Q63.53838 26.527569 63.653645 27.304623Q63.768913 28.081676 63.845913 28.863453Q63.922909 29.645226 63.961456 30.429836Q64 31.214443 64 32Z"/>
	<path fill="none" stroke="white" stroke-width="2" stroke-linecap="round" stroke-miterlimit="10" transform="translate(41.5 23)" d="M4.1609979 18C5.2849474 18 6.178947 17.292749 6.9817462 16.30365C8.6248455 14.2791 5.9269471 12.6612 4.8980975 11.8689C3.8519981 11.0634 2.6840985 10.6071 1.4999992 10.5M0 7.5C2.071049 7.5 3.7499981 5.8210649 3.7499981 3.75C3.7499981 1.6789351 2.071049 0 0 0" fill-rule="evenodd"/>
	<path fill="none" stroke="white" stroke-width="2" stroke-linecap="round" stroke-miterlimit="10" transform="translate(16 23)" d="M3.3389349 18C2.2149856 18 1.3210011 17.292749 0.51832139 16.30365C-1.1248692 14.2791 1.5730009 12.6612 2.6019704 11.8689C3.6479497 11.0634 4.8158641 10.6071 6 10.5M6.7499933 7.5C4.6789293 7.5 2.9999952 5.8210649 2.9999952 3.75C2.9999952 1.6789351 4.6789293 0 6.7499933 0" fill-rule="evenodd"/>
	<path fill="none" stroke="white" stroke-width="2" stroke-linecap="round" stroke-linejoin="round" transform="translate(22.75 35)" d="M3.8756945 1.6668C2.3430402 2.6145 -1.6755177 4.5496502 0.77204609 6.9710999C1.9676654 8.1540003 3.2992747 9 4.9734387 9L14.526588 9C16.200739 9 17.532288 8.1540003 18.727936 6.9710999C21.175486 4.5496502 17.156988 2.6145 15.624289 1.6668C12.03014 -0.55559999 7.4698424 -0.55559999 3.8756945 1.6668Z" fill-rule="evenodd"/>
	<path fill="none" stroke="white" stroke-width="2" stroke-miterlimit="10" transform="translate(27.25 20)" d="M10.5 5.25C10.5 8.1494999 8.1494961 10.5 5.2499971 10.5C2.3504987 10.5 0 8.1494999 0 5.25C0 2.3505001 2.3504987 0 5.2499971 0C8.1494961 0 10.5 2.3505001 10.5 5.25Z" fill-rule="evenodd"/>
</svg>
