<?xml version="1.0" encoding="UTF-8"?>
<svg id="Layer_1" data-name="Layer 1" xmlns="http://www.w3.org/2000/svg" width="100" height="100" viewBox="0 0 100 100">
  <path d="m25.82,78.7l8.09-8.51V26.05c.03-5.77,3.12-11.21,8.07-14.19,4.95-2.98,11.2-3.17,16.31-.5,5.12,2.67,8.53,7.91,8.91,13.67v.18s.15.12.15.12c2.25,2,4.4,4.17,6.39,6.45,4.75,5.49,7.15,10.26,7.15,14.18s-2.41,8.7-7.15,14.18c-2.15,2.47-4.49,4.81-6.96,6.94-.58.49-1.43.49-2.01,0-2.46-2.13-4.79-4.47-6.93-6.94-4.74-5.49-7.15-10.26-7.15-14.18s2.41-8.69,7.15-14.18c1.9-2.19,3.96-4.27,6.11-6.2l.16-.14-.02-.22c-.33-4.66-3.11-8.9-7.26-11.06-4.15-2.16-9.21-2.01-13.22.4-4.01,2.41-6.53,6.81-6.58,11.48v24.86l9.59,9.38c.61.6.63,1.59.02,2.21-.6.61-1.59.62-2.21.02l-7.42-7.25v31.01c-.04.81-.72,1.46-1.56,1.46s-1.52-.65-1.56-1.49v-11.54l-5.82,6.12c-.29.33-.69.52-1.11.53-.45,0-.84-.14-1.14-.43-.31-.29-.48-.7-.49-1.11,0-.42.17-.83.46-1.13ZM63.48,30.32c-.91.91-2.1,2.14-3.27,3.51l-.11.13c-4.11,4.78-6.28,8.93-6.28,12.02,0,6.59,9.72,15.8,11.67,17.57l.3.28.3-.28c1.85-1.7,3.63-3.53,5.29-5.43,4.18-4.83,6.39-9.03,6.39-12.14,0-5.23-6.05-12.05-9.66-15.65l-.76-.76v12.15c-.04.81-.73,1.46-1.56,1.46s-1.52-.65-1.56-1.49v-12.14l-.76.77Z" fill="#929497"/>
</svg>