<?xml version="1.0" encoding="UTF-8"?>
<svg id="Layer_1" data-name="Layer 1" xmlns="http://www.w3.org/2000/svg" width="100" height="100" viewBox="0 0 100 100">
  <path d="m56.06,72.64c-.61-.62-1.25-1.26-1.86-1.93-.94-1.04-1.78-2.14-2.58-3.22-.81,1.08-1.64,2.19-2.58,3.22-.61.67-1.24,1.31-1.86,1.93-.77.78-1.49,1.51-2.16,2.29-1.96,2.27-2.9,4.41-2.8,6.37.23,4.15,4.59,7.7,8.21,8.01.13,0,.27,0,.4,0,.24,0,.48.02.72,0,.02,0,.04,0,.06,0s.04,0,.06,0c.2,0,.4,0,.6,0,.18,0,.36,0,.54-.01,3.61-.32,7.96-3.87,8.19-8.01.11-1.96-.83-4.1-2.8-6.37-.68-.78-1.4-1.51-2.16-2.29Z" fill="#e0516c"/>
  <path d="m45.36,20.98c-.45,0-.9.19-1.2.55l-.16,1.85s2.74,4.71,2.32,12.72c-.2,3.76-2.16,8.39-3.3,10.79-1.09-.84-2.41-1.98-3.04-3-.54-.88-1.09-2.08-1.56-3.4-.98-2.76-1.52-5.62-1.38-7.49.06-.8-.49-1.52-1.28-1.67-.1-.02-.21-.03-.31-.03-.68,0-1.29.43-1.51,1.09-2.07,6.3-4.61,12.55-5.33,14.31l-.08.22c-1.31,2.4-5.61,11.12-5.61,16.89v.5s0,.24,0,.24l.06,1.15.02.27.04.47c1.31,14.4,12.87,25.37,27.17,26.05h0l1.14.03h.26s.22,0,.22,0h.31s.88-.03.88-.03h.02c15.16-.75,27.27-13.32,27.27-28.68,0-.96-1.15-9.32-2.78-14.38-1.76-5.48-5.97-12.38-6.14-12.66-.29-.48-.8-.76-1.35-.76-.09,0-.19,0-.28.03-.65.11-1.15.61-1.28,1.26l-.38,1.92c-.49,2.5-1.32,4.9-2.47,7.15-1.08-3.79-2.92-9.54-4.9-12.64-5.59-8.76-14.39-12.47-14.77-12.63-.2-.08-.4-.12-.61-.12" fill="#fff"/>
  <path d="m71.4,36.77h0c-.34-.56-.99-.85-1.64-.74-.65.12-1.15.62-1.28,1.26l-.38,1.92c-.49,2.5-1.32,4.9-2.47,7.15-1.08-3.79-2.92-9.54-4.9-12.64-5.59-8.76-14.39-12.47-14.77-12.63-.64-.26-1.36-.09-1.81.43-.45.52-.51,1.27-.16,1.85.03.05,2.74,4.7,2.32,12.72-.2,3.76-2.16,8.39-3.3,10.79-1.09-.84-2.41-1.98-3.04-3-.54-.88-1.09-2.08-1.56-3.4-.99-2.76-1.52-5.62-1.38-7.49.06-.8-.49-1.52-1.28-1.67-.79-.15-1.57.3-1.82,1.06-2.08,6.31-4.6,12.55-5.33,14.32-.03.07-.06.14-.08.21-1.31,2.4-5.61,11.12-5.61,16.89v.5c0,.08,0,.16,0,.24,0,.4.02.77.06,1.15l.02.27c.01.18.02.35.04.46,1.3,14.4,12.87,25.37,27.17,26.06,0,0,0,0,0,0,.38.03.76.03,1.14.03.09,0,.17,0,.26,0,.07,0,.14,0,.22,0,.1,0,.21,0,.31,0,.29,0,.59,0,.88-.03,0,0,.02,0,.02,0,15.16-.75,27.27-13.32,27.27-28.67,0-.96-1.15-9.32-2.78-14.38-1.77-5.48-5.97-12.37-6.15-12.67Zm-18.56,52.54c-.18,0-.36,0-.54.01-.2,0-.4.02-.6,0-.02,0-.04,0-.06,0s-.04,0-.06,0c-.24,0-.48,0-.72,0-.13,0-.27,0-.4,0-3.62-.31-7.98-3.86-8.21-8.01-.11-1.96.83-4.1,2.8-6.37.68-.78,1.4-1.51,2.16-2.29.61-.62,1.25-1.26,1.86-1.93.94-1.04,1.78-2.14,2.58-3.22.81,1.08,1.64,2.19,2.58,3.22.61.67,1.24,1.31,1.86,1.93.77.78,1.49,1.51,2.16,2.29,1.96,2.27,2.9,4.41,2.8,6.37-.23,4.14-4.57,7.69-8.19,8.01Zm9.31-2.25h0c1.16-1.62,1.94-3.52,2.05-5.59.15-2.81-1.05-5.71-3.56-8.62-.75-.86-1.54-1.67-2.31-2.45-.62-.63-1.2-1.21-1.76-1.83-.93-1.03-1.76-2.15-2.64-3.33-.34-.46-.69-.92-1.04-1.38-.6-.79-1.92-.79-2.52,0-.35.46-.69.92-1.04,1.38-.88,1.18-1.71,2.3-2.64,3.33-.56.62-1.14,1.21-1.76,1.83-.77.78-1.56,1.58-2.31,2.45-2.52,2.91-3.72,5.82-3.56,8.62.12,2.1.91,4.02,2.1,5.66-8.19-3.65-14.09-11.49-14.96-21.04-.01-.1-.02-.2-.02-.31,0-.11-.01-.23-.03-.39-.02-.26-.05-.53-.04-.8,0-.12,0-.24,0-.36v-.42c0-4.78,3.89-12.99,5.3-15.58.05-.08.09-.16.12-.25l.02-.06c.49-1.2,1.8-4.42,3.24-8.34.19.66.4,1.32.63,1.97.54,1.54,1.18,2.92,1.85,4,1.53,2.47,5.08,4.78,5.48,5.03.37.24.83.31,1.25.2.43-.11.79-.39,1-.78.17-.31,4.17-7.72,4.48-13.75.22-4.3-.37-7.76-1.07-10.22,2.84,1.81,6.75,4.87,9.63,9.39,2.76,4.33,5.46,15.28,5.48,15.39.15.62.66,1.09,1.3,1.19.64.1,1.27-.19,1.6-.74l.89-1.44c1.51-2.45,2.64-5.08,3.4-7.83,1.3,2.42,2.91,5.66,3.8,8.41,1.53,4.76,2.6,12.53,2.63,13.4,0,10.33-6.17,19.24-15.01,23.25Z" fill="#929497"/>
</svg>