<?xml version="1.0" encoding="UTF-8"?>
<svg id="Layer_1" data-name="Layer 1" xmlns="http://www.w3.org/2000/svg" width="100" height="100" viewBox="0 0 100 100">
  <path d="m92.07,72.02c-.08-.4-.3-.74-.63-.97-6.99-4.86-13.4-4.83-19.06.06h-.01c-3.52,2.71-7.05,4.09-10.5,4.12-.02,0-.06,0-.11,0-3.5,0-7.08-1.4-10.65-4.15-.05-.04-.1-.07-.15-.1-9.03-5.28-17.09-5.26-24.64.07-.08.05-.14.11-.2.17-2.63,2.62-5.13,3.89-7.64,3.89h-.08c-2.48-.03-4.94-1.3-7.51-3.89-.59-.58-1.53-.57-2.1.03-.57.6-.56,1.57.02,2.15,3.11,3.12,6.32,4.72,9.56,4.76h.11c3.24,0,6.47-1.56,9.58-4.64,3.24-2.26,6.6-3.39,10.12-3.39s7.26,1.14,11.2,3.43c4.1,3.14,8.26,4.72,12.38,4.72h.14c4.11-.03,8.24-1.63,12.28-4.75l.09-.07c4.58-3.99,9.66-3.96,15.51.1.32.22.73.31,1.12.23.39-.08.72-.31.94-.64.22-.34.3-.74.23-1.14Z" fill="#929497"/>
  <path d="m91.45,84.64c-6.99-4.85-13.4-4.83-19.06.06h-.01c-3.51,2.71-7.04,4.09-10.5,4.12-.02,0-.06,0-.11,0-3.5,0-7.08-1.4-10.65-4.15-.05-.03-.1-.07-.15-.1-9.03-5.29-17.09-5.27-24.64.06-.08.05-.14.11-.2.17-2.64,2.62-5.14,3.89-7.64,3.89-.04,0-.07,0-.11,0-2.46-.03-4.91-1.3-7.48-3.89-.59-.58-1.53-.57-2.1.03-.53.56-.56,1.47-.06,2.06l.09.11c3.09,3.11,6.31,4.71,9.55,4.75h.11c3.24,0,6.46-1.56,9.58-4.64,3.24-2.26,6.6-3.39,10.12-3.39s7.26,1.14,11.2,3.43c4.1,3.14,8.26,4.72,12.38,4.72h.14c4.11-.04,8.25-1.64,12.3-4.76l.06-.06c4.59-3.99,9.67-3.95,15.51.1.33.23.7.31,1.12.23.38-.08.72-.3.94-.64.46-.69.28-1.64-.4-2.11Z" fill="#929497"/>
  <path d="m91.44,57.44c-3.73-2.59-7.31-3.8-10.58-3.62l-.3.02v-23.12l9.25,6.11c.33.22.73.29,1.11.21.39-.09.72-.32.93-.66.22-.35.29-.75.21-1.15-.08-.4-.31-.74-.65-.96L51.04,7.61c-.49-.32-1.12-.32-1.61,0L9.05,34.27c-.69.45-.89,1.4-.45,2.1.22.34.55.58.94.67.38.09.78.01,1.11-.21l9.25-6.11v30.66l-.25.04c-.42.06-.85.1-1.26.1h0c-2.48-.03-4.94-1.3-7.51-3.89-.59-.58-1.53-.58-2.1.03-.28.29-.43.67-.42,1.08,0,.41.16.79.44,1.07,3.11,3.12,6.32,4.72,9.56,4.76h.12c3.24,0,6.46-1.56,9.57-4.64,3.24-2.26,6.6-3.39,10.12-3.39s7.26,1.15,11.2,3.43c4.1,3.14,8.26,4.72,12.39,4.72h.13c4.11-.04,8.25-1.64,12.3-4.76l.07-.06c4.58-3.99,9.66-3.96,15.5.1.33.23.71.31,1.12.23.38-.08.72-.3.94-.64.46-.69.28-1.64-.4-2.12Zm-42.69-1.27l-.41-.19c-3.21-1.53-6.35-2.37-9.32-2.51h-.28v-8.99h10.01v11.7Zm12.98,5.46h-.3c-3.15-.09-6.38-1.31-9.59-3.62l-.12-.09v-13.45h10.01v17.16Zm15.87-7.2l-.19.07c-1.72.61-3.41,1.62-5.01,3-2.46,1.89-4.92,3.14-7.34,3.73l-.36.09v-18.37c0-.84-.67-1.53-1.48-1.53h-25.96c-.82,0-1.49.69-1.49,1.53v10.65l-.25.03c-3.15.45-6.25,1.73-9.19,3.81-.08.05-.14.1-.2.17-.95.94-1.89,1.72-2.8,2.31l-.44.29v-31.45l.13-.09,27.22-17.98.16.1,27.2,17.96v25.67Z" fill="#929497"/>
</svg>