<?xml version="1.0" encoding="UTF-8"?>
<svg id="Layer_1" data-name="Layer 1" xmlns="http://www.w3.org/2000/svg" width="100" height="100" viewBox="0 0 100 100">
  <path d="m46.3,11.96c-1.56-.9-3.34-1.38-5.15-1.38s-3.59.47-5.14,1.38c-3.18,1.83-5.15,5.25-5.15,8.91v44.62l-.36.34c-3.83,3.6-5.58,8.84-4.69,14.03.9,5.18,4.33,9.52,9.16,11.62,4.84,2.09,10.34,1.61,14.74-1.28,4.39-2.89,7.02-7.76,7.02-13.01,0-4.28-1.78-8.42-4.92-11.34l-.36-.34V20.87c0-3.67-1.97-7.08-5.14-8.91Zm7.4,64.3c.26,3.48-.96,6.93-3.33,9.48-2.37,2.55-5.73,4.02-9.22,4.02s-6.85-1.46-9.22-4.02c-2.37-2.55-3.58-6.01-3.33-9.48.26-3.48,1.97-6.72,4.69-8.9l.56-.45V20.87c0-2.6,1.4-5.03,3.65-6.33,2.25-1.3,5.05-1.3,7.31,0,2.25,1.3,3.65,3.73,3.65,6.33v46.04l.56.45c2.72,2.18,4.42,5.42,4.69,8.9Z" fill="#929497"/>
  <path d="m35.46,74.32c-.48,1.75-.11,3.67,1,5.13,1.11,1.45,2.86,2.32,4.68,2.32s3.58-.87,4.69-2.32c1.1-1.45,1.48-3.37,1-5.13-.48-1.76-1.78-3.22-3.48-3.91l-.72-.29V23.07c0-.53-.29-1.03-.75-1.29h0c-.22-.13-.48-.2-.75-.2s-.52.07-.75.2c-.46.27-.75.76-.75,1.29v47.05l-.72.29c-1.69.68-2.99,2.15-3.47,3.91Z" fill="#929497"/>
  <path d="m86.18,28.21c.39-.59.23-1.42-.37-1.83-3.34-2.26-5.87-1.22-7.4.05-1.04.78-2.07,1.17-3.06,1.18-1.02,0-2.06-.42-3.29-1.32-3.25-1.85-6.34-1.84-9.13.08l-.22.18c-1.42,1.37-2.53,1.37-3.96-.03-.52-.5-1.36-.49-1.87.03-.49.5-.47,1.31.05,1.91,1.19,1.16,2.45,1.75,3.82,1.77,1.28,0,2.57-.57,3.63-1.62,1-.68,2.01-1.02,3.06-1.02s2.06.31,3.17.93c1.58,1.18,3.17,1.75,4.77,1.75,1.59-.01,3.13-.6,4.71-1.8.83-.7,2.08-1.33,4.22.11.29.19.64.27,1.02.19.33-.07.62-.27.84-.58Z" fill="#929497"/>
  <path d="m86.18,36c.39-.6.23-1.42-.37-1.83-3.34-2.26-5.87-1.22-7.4.06-1.04.78-2.07,1.17-3.06,1.18-1.02,0-2.06-.42-3.29-1.32-3.25-1.85-6.34-1.84-9.13.08l-.22.18c-1.42,1.36-2.53,1.36-3.96-.03-.52-.5-1.36-.49-1.87.03-.49.5-.47,1.31.05,1.91,1.19,1.16,2.45,1.75,3.82,1.77,1.28,0,2.57-.57,3.63-1.62,1-.69,2.01-1.02,3.06-1.02s2.06.31,3.17.94c1.6,1.19,3.14,1.75,4.77,1.75,1.59-.01,3.14-.6,4.71-1.79.83-.7,2.08-1.33,4.22.11.29.19.64.27,1.01.19.33-.06.63-.26.84-.57Z" fill="#929497"/>
</svg>