<?xml version="1.0" encoding="UTF-8"?>
<svg id="Layer_1" data-name="Layer 1" xmlns="http://www.w3.org/2000/svg" width="100" height="100" viewBox="0 0 100 100">
  <path d="m52.33,75.81c6.57,0,12.73-1.7,17.83-4.9,7.57-4.75,12.4-12.2,13.25-20.43.79-7.71-2.06-15.31-7.84-20.87-15.17-14.58-42.78-16.88-61.54-5.12-.7.45-.92,1.38-.47,2.09.44.71,1.38.93,2.09.48,17.64-11.08,43.58-8.96,57.82,4.73,5.1,4.9,7.62,11.6,6.93,18.37-.75,7.3-5.07,13.92-11.85,18.17-11.09,6.96-27.39,5.63-36.34-2.96-3.12-3-4.64-6.62-4.27-10.19.41-3.95,3.03-7.62,7.36-10.35,6.91-4.32,17.04-3.51,22.59,1.83.28.27.66.42,1.05.42.44-.01.81-.17,1.08-.46.29-.3.44-.68.44-1.08,0-.41-.17-.79-.46-1.07-3.71-3.56-9.14-5.42-14.61-5.42-4.11,0-8.25,1.05-11.69,3.2-5.15,3.23-8.26,7.71-8.77,12.62-.46,4.52,1.38,9.02,5.19,12.68,5.45,5.24,13.55,8.25,22.22,8.25Z" fill="#929497"/>
  <path d="m21.3,74.48c8.36,8.04,20.8,12.65,34.11,12.65,9.95,0,19.69-2.68,27.43-7.54.7-.45.91-1.38.47-2.08-.21-.35-.55-.59-.95-.68-.39-.09-.8-.02-1.14.19-17.66,11.08-43.59,8.95-57.82-4.73-5.1-4.9-7.62-11.59-6.93-18.37.75-7.3,5.07-13.92,11.85-18.17,11.09-6.96,27.39-5.64,36.33,2.96,3.12,3,4.64,6.61,4.27,10.18-.41,3.95-3.03,7.63-7.37,10.35-6.91,4.33-17.04,3.51-22.59-1.82-.29-.29-.72-.44-1.07-.43-.41,0-.79.17-1.07.46-.28.29-.44.68-.43,1.08,0,.41.17.78.46,1.06,6.5,6.24,18.29,7.24,26.3,2.21,5.15-3.23,8.27-7.71,8.77-12.62.46-4.52-1.38-9.02-5.19-12.68-9.88-9.51-27.85-11-40.05-3.35-7.57,4.75-12.4,12.2-13.25,20.43-.75,7.22,1.77,14.49,6.91,19.93l.29.3h-.01s.66.64.66.64Z" fill="#929497"/>
</svg>