<?xml version="1.0" encoding="UTF-8"?>
<svg xmlns="http://www.w3.org/2000/svg" viewBox="0 0 440 157.37460973">
  <defs>
    <style>
      .cls-1, .cls-2, .cls-3 {
        stroke: #fff;
        stroke-miterlimit: 10;
        stroke-width: .5px;
      }

      .cls-1, .cls-4 {
        fill: #807676;
      }

      .cls-2, .cls-5 {
        fill: #8c9c99;
      }

      .cls-3, .cls-6 {
        fill: #9aadbf;
      }

      .cls-7, .cls-8, .cls-6, .cls-5, .cls-4, .cls-9 {
        stroke-width: 0px;
      }

      .cls-8 {
        fill: #5f6875;
      }

      .cls-9 {
        fill: #fff;
      }
    </style>
  </defs>
  <g id="Layer_1" data-name="Layer 1">
    <g>
      <path class="cls-7" d="M9.1760028,15.17265458v2.2265625H3.05686217V5.85283037h5.95410156v2.22705078h-3.61230469v2.39160156h3.28320312v2.14404297h-3.28320312v2.55712891h3.77734375Z"/>
      <path class="cls-7" d="M22.35861999,5.85283037v11.54638672h-2.29296875v-2.83691406c.06542969-1.40234375.11523438-2.80419922.18164062-4.20654297l-.08300781-.03271484-1.0390625,3.03515625-.57714844,1.56689453h-2.30957031l-.57714844-1.56689453-1.0390625-3.03515625-.08300781.03271484c.04980469,1.40234375.11621094,2.80419922.16503906,4.20654297v2.83691406h-2.27636719V5.85283037h2.359375l1.81445312,4.37109375c.23046875.57714844.62695312,1.58349609.75878906,2.01220703h.06542969c.13183594-.42871094.52832031-1.43505859.75878906-2.01220703l1.81445312-4.37109375h2.359375Z"/>
      <path class="cls-7" d="M28.39963561,5.85283037v11.54638672h-2.34179688V5.85283037h2.34179688Z"/>
      <path class="cls-7" d="M31.3869403,14.03447099h2.40820312c0,.92333984.46191406,1.31933594,1.20410156,1.31933594.77539062,0,1.15527344-.4453125,1.15527344-1.02246094,0-1.91357422-4.51953125-2.14453125-4.51953125-5.65771484,0-1.76513672,1.23632812-3.05175781,3.36425781-3.05175781s3.41503906,1.27001953,3.41503906,3.39794922h-2.40820312c0-.75878906-.34667969-1.13818359-1.0234375-1.13818359-.61035156,0-.97265625.33007812-.97265625.85791016,0,1.81445312,4.58496094,1.9296875,4.58496094,5.60791016,0,1.89697266-1.3359375,3.28271484-3.62890625,3.28271484-2.19335938,0-3.57910156-1.27001953-3.57910156-3.59570312Z"/>
      <path class="cls-7" d="M47.60471374,15.17265458v2.2265625h-6.12011719V5.85283037h5.95507812v2.22705078h-3.61230469v2.39160156h3.28222656v2.14404297h-3.28222656v2.55712891h3.77734375Z"/>
      <path class="cls-7" d="M55.09690124,14.03447099h2.40820312c0,.92333984.46191406,1.31933594,1.20410156,1.31933594.77539062,0,1.15527344-.4453125,1.15527344-1.02246094,0-1.91357422-4.51953125-2.14453125-4.51953125-5.65771484,0-1.76513672,1.23632812-3.05175781,3.36425781-3.05175781s3.41503906,1.27001953,3.41503906,3.39794922h-2.40820312c0-.75878906-.34667969-1.13818359-1.0234375-1.13818359-.61035156,0-.97265625.33007812-.97265625.85791016,0,1.81445312,4.58496094,1.9296875,4.58496094,5.60791016,0,1.89697266-1.3359375,3.28271484-3.62890625,3.28271484-2.19335938,0-3.57910156-1.27001953-3.57910156-3.59570312Z"/>
      <path class="cls-7" d="M68.14768249,13.02812333l-.64355469,1.0390625v3.33203125h-2.30957031V5.85283037h2.30957031v4.42089844l.59375-1.28662109,1.6171875-3.13427734h2.671875l-2.93652344,5.04736328,3.43164062,6.49902344h-2.63964844l-2.09472656-4.37109375Z"/>
      <path class="cls-7" d="M81.18186217,15.17265458v2.2265625h-5.7734375V5.85283037h2.34277344v9.31982422h3.43066406Z"/>
      <path class="cls-7" d="M90.07541686,15.17265458v2.2265625h-6.12011719V5.85283037h5.95507812v2.22705078h-3.61230469v2.39160156h3.28222656v2.14404297h-3.28222656v2.55712891h3.77734375Z"/>
      <path class="cls-7" d="M100.6838153,5.85283037v11.54638672h-2.30859375l-1.94726562-4.47021484-1.0390625-2.8203125-.04882812.04931641c.18066406,1.45166016.296875,3.61230469.296875,4.89892578v2.34228516h-2.30957031V5.85283037h2.30957031l2.19335938,5.01464844c.28027344.72558594.54492188,1.484375.82519531,2.20996094l.04882812-.04931641c-.19726562-1.45166016-.32910156-3.43115234-.32910156-4.50292969v-2.67236328h2.30859375Z"/>
      <path class="cls-7" d="M106.72483092,5.85283037v11.54638672h-2.34277344V5.85283037h2.34277344ZM105.98264342,2.48808427h1.86425781l-1.86425781,2.25976562h-1.55078125l1.55078125-2.25976562Z"/>
      <path class="cls-7" d="M113.37326842,13.02812333l-.64257812,1.0390625v3.33203125h-2.30957031V5.85283037h2.30957031v4.42089844l.59375-1.28662109,1.61621094-3.13427734h2.671875l-2.93554688,5.04736328,3.43066406,6.49902344h-2.63867188l-2.09570312-4.37109375Z"/>
      <path class="cls-7" d="M120.18967467,13.65507646v-4.05810547c0-2.47412109,1.40136719-3.94189453,3.74414062-3.94189453,2.34179688,0,3.74414062,1.46777344,3.74414062,3.94189453v4.05810547c0,2.47412109-1.40234375,3.94189453-3.74414062,3.94189453-2.34277344,0-3.74414062-1.46777344-3.74414062-3.94189453ZM125.25315124,13.65507646v-4.05810547c0-1.08837891-.4453125-1.66552734-1.31933594-1.66552734s-1.31933594.57714844-1.31933594,1.66552734v4.05810547c0,1.08837891.4453125,1.66601562,1.31933594,1.66601562s1.31933594-.57763672,1.31933594-1.66601562Z"/>
      <path class="cls-7" d="M130.07248717,5.85283037h2.42480469l1.0390625,5.45996094c.16503906.84130859.36328125,2.25976562.47851562,3.21630859h.06640625c.11523438-.95654297.31347656-2.375.47851562-3.21630859l1.0390625-5.45996094h2.42480469l-2.73828125,11.54638672h-2.47460938l-2.73828125-11.54638672Z"/>
      <path class="cls-7" d="M142.44748717,13.96806474l-2.72167969-8.11523438h2.42480469l.93945312,3.20019531c.11621094.37939453.37988281,1.28662109.49511719,1.84716797h.06640625c.13183594-.56054688.39550781-1.46777344.52734375-1.89697266l.90722656-3.15039062h2.42480469l-2.72167969,8.11523438v3.43115234h-2.34179688v-3.43115234ZM144.03049499,2.48808427h1.86425781l-1.86425781,2.25976562h-1.55078125l1.55078125-2.25976562Z"/>
      <path class="cls-7" d="M149.8556903,13.86943193v-4.48681641c0-2.44091797,1.31933594-3.76074219,3.57910156-3.76074219,2.30957031,0,3.59667969,1.31982422,3.67871094,3.76074219h-2.34179688c-.06640625-1.05566406-.46191406-1.484375-1.35253906-1.484375-.70996094,0-1.12207031.46191406-1.12207031,1.484375v4.48681641c0,.98974609.39550781,1.45166016,1.12207031,1.45166016.90722656,0,1.31933594-.42919922,1.38476562-1.45166016h2.34277344c-.04980469,2.42480469-1.38574219,3.72753906-3.72753906,3.72753906-2.24414062,0-3.56347656-1.30273438-3.56347656-3.72753906Z"/>
      <path class="cls-7" d="M167.24436217,5.85283037v11.54638672h-2.35839844v-4.70117188h-2.37597656v4.70117188h-2.35839844V5.85283037h2.35839844v4.61865234h2.37597656v-4.61865234h2.35839844Z"/>
      <path class="cls-7" d="M183.0510028,9.77861162c0,2.45751953-1.41894531,3.90917969-3.81054688,3.90917969h-1.00585938v3.71142578h-2.34277344V5.85283037h3.34863281c2.39160156,0,3.81054688,1.45166016,3.81054688,3.92578125ZM180.64279967,9.77861162c0-1.12158203-.49511719-1.69873047-1.43554688-1.69873047h-.97265625v3.38134766h.97265625c.94042969,0,1.43554688-.57763672,1.43554688-1.68261719Z"/>
      <path class="cls-7" d="M191.76389342,15.17265458v2.2265625h-5.7734375V5.85283037h2.34179688v9.31982422h3.43164062Z"/>
      <path class="cls-7" d="M194.85080749,13.96806474l-2.72167969-8.11523438h2.42480469l.93945312,3.20019531c.11621094.37939453.37988281,1.28662109.49511719,1.84716797h.06640625c.13183594-.56054688.39550781-1.46777344.52734375-1.89697266l.90722656-3.15039062h2.42480469l-2.72167969,8.11523438v3.43115234h-2.34179688v-3.43115234Z"/>
      <path class="cls-7" d="M209.94553405,5.85283037v11.54638672h-2.30859375l-1.94726562-4.47021484-1.0390625-2.8203125-.04882812.04931641c.18066406,1.45166016.296875,3.61230469.296875,4.89892578v2.34228516h-2.30957031V5.85283037h2.30957031l2.19335938,5.01464844c.28027344.72558594.54492188,1.484375.82519531,2.20996094l.04882812-.04931641c-.19726562-1.45166016-.32910156-3.43115234-.32910156-4.50292969v-2.67236328h2.30859375Z"/>
      <path class="cls-7" d="M213.44553405,13.6877913v-7.83496094h2.44140625v7.83496094c0,1.05566406.41210938,1.63330078,1.23730469,1.63330078.82421875,0,1.23730469-.57763672,1.23730469-1.63330078v-7.83496094h2.44140625v7.83496094c0,2.44140625-1.36914062,3.90917969-3.67871094,3.90917969s-3.67871094-1.46777344-3.67871094-3.90917969ZM217.18967467,1.87773271c.90722656,0,1.51757812.59375,1.51757812,1.45166016,0,.890625-.61035156,1.484375-1.51757812,1.484375s-1.51660156-.59375-1.51660156-1.484375c0-.85791016.609375-1.45166016,1.51660156-1.45166016ZM217.18967467,3.88993974c.33007812,0,.54492188-.21435547.54492188-.54443359,0-.32958984-.21484375-.54394531-.54492188-.54394531-.32910156,0-.54394531.21435547-.54394531.54394531,0,.33007812.21484375.54443359.54394531.54443359Z"/>
      <path class="cls-7" d="M235.0588153,15.17265458v2.2265625h-6.61425781v-1.56689453l3.66210938-7.75244141h-3.38183594v-2.22705078h6.25195312v1.61669922l-3.62890625,7.703125h3.7109375Z"/>
      <path class="cls-7" d="M244.16623717,15.17265458v2.2265625h-6.11914062V5.85283037h5.95410156v2.22705078h-3.61230469v2.39160156h3.28320312v2.14404297h-3.28320312v2.55712891h3.77734375Z"/>
      <path class="cls-7" d="M258.17502624,15.17265458v2.2265625h-6.61425781v-1.56689453l3.66210938-7.75244141h-3.38183594v-2.22705078h6.25195312v1.61669922l-3.62890625,7.703125h3.7109375Z"/>
      <path class="cls-7" d="M267.28244811,15.17265458v2.2265625h-6.11914062V5.85283037h5.95410156v2.22705078h-3.61230469v2.39160156h3.28320312v2.14404297h-3.28320312v2.55712891h3.77734375Z"/>
      <path class="cls-7" d="M280.4650653,5.85283037v11.54638672h-2.29296875v-2.83691406c.06640625-1.40234375.11621094-2.80419922.18164062-4.20654297l-.08203125-.03271484-1.0390625,3.03515625-.578125,1.56689453h-2.30859375l-.57714844-1.56689453-1.04003906-3.03515625-.08203125.03271484c.04980469,1.40234375.11523438,2.80419922.16503906,4.20654297v2.83691406h-2.27636719V5.85283037h2.35839844l1.81445312,4.37109375c.23144531.57714844.62695312,1.58349609.75878906,2.01220703h.06640625c.13183594-.42871094.52734375-1.43505859.75878906-2.01220703l1.81445312-4.37109375h2.35839844Z"/>
      <path class="cls-7" d="M290.28342467,15.17265458v2.2265625h-6.11914062V5.85283037h5.95410156v2.22705078h-3.61230469v2.39160156h3.28320312v2.14404297h-3.28320312v2.55712891h3.77734375ZM286.20920592,4.7478499l-1.3359375-2.25976562h1.46875l.72558594,1.10498047.70898438-1.10498047h1.46777344l-1.3359375,2.25976562h-1.69921875Z"/>
      <path class="cls-7" d="M293.5353778,5.85283037h3.16699219c2.32617188,0,3.6953125,1.41845703,3.6953125,3.82666016v3.81054688c0,2.45751953-1.35253906,3.90917969-3.66210938,3.90917969h-3.20019531V5.85283037ZM296.73557311,15.17265458c.84179688,0,1.28710938-.57763672,1.28710938-1.68261719v-3.81054688c0-1.05566406-.4453125-1.59960938-1.28710938-1.59960938h-.85742188v7.09277344h.85742188Z"/>
      <path class="cls-7" d="M309.88498717,15.17265458v2.2265625h-6.11914062V5.85283037h5.95410156v2.22705078h-3.61230469v2.39160156h3.28320312v2.14404297h-3.28320312v2.55712891h3.77734375ZM305.81076842,4.7478499l-1.3359375-2.25976562h1.46875l.72558594,1.10498047.70898438-1.10498047h1.46777344l-1.3359375,2.25976562h-1.69921875Z"/>
      <path class="cls-7" d="M318.9103778,15.17265458v2.2265625h-5.7734375V5.85283037h2.34277344v9.31982422h3.43066406Z"/>
      <path class="cls-7" d="M320.71115905,14.03447099h2.40820312c0,.92333984.46191406,1.31933594,1.20410156,1.31933594.77539062,0,1.15527344-.4453125,1.15527344-1.02246094,0-1.91357422-4.51953125-2.14453125-4.51953125-5.65771484,0-1.76513672,1.23632812-3.05175781,3.36425781-3.05175781s3.41503906,1.27001953,3.41503906,3.39794922h-2.40820312c0-.75878906-.34667969-1.13818359-1.0234375-1.13818359-.61035156,0-.97265625.33007812-.97265625.85791016,0,1.81445312,4.58496094,1.9296875,4.58496094,5.60791016,0,1.89697266-1.3359375,3.28271484-3.62890625,3.28271484-2.19335938,0-3.57910156-1.27001953-3.57910156-3.59570312Z"/>
      <path class="cls-7" d="M337.12619811,8.07988115h-2.25976562v9.31933594h-2.40820312v-9.31933594h-2.25976562v-2.22705078h6.92773438v2.22705078Z"/>
      <path class="cls-7" d="M339.07541686,5.85283037h2.42480469l1.0390625,5.45996094c.16503906.84130859.36328125,2.25976562.47851562,3.21630859h.06640625c.11523438-.95654297.31347656-2.375.47851562-3.21630859l1.0390625-5.45996094h2.42480469l-2.73828125,11.54638672h-2.47460938l-2.73828125-11.54638672Z"/>
      <path class="cls-7" d="M352.09299499,5.85283037v11.54638672h-2.34277344V5.85283037h2.34277344ZM351.35080749,2.48808427h1.86425781l-1.86425781,2.25976562h-1.55078125l1.55078125-2.25976562Z"/>
      <path class="cls-7" d="M365.93674499,16.68974443V6.54570146c0-1.50097656.97363281-2.58984375,2.39160156-2.67236328v.94042969c-.84082031.06591797-1.40136719.72558594-1.40136719,1.73193359v10.14404297c0,1.00634766.56054688,1.66601562,1.40136719,1.74853516v.94042969c-1.41796875-.08251953-2.39160156-1.17138672-2.39160156-2.68896484Z"/>
      <path class="cls-7" d="M377.6994403,14.26542802c-.16503906,2.11132812-1.3359375,3.33154297-3.23242188,3.33154297-1.84765625,0-3.15136719-1.23681641-3.15136719-3.46386719v-5.01416016c0-2.22705078,1.27050781-3.46386719,3.08496094-3.46386719,1.87988281,0,3.08496094,1.1875,3.20019531,3.33203125h-.99023438c-.11523438-1.63330078-.90722656-2.40869141-2.20996094-2.40869141-1.23730469,0-2.09472656.82519531-2.09472656,2.54052734v5.01416016c0,1.71582031.890625,2.54052734,2.16113281,2.54052734,1.31933594,0,2.078125-.80859375,2.24316406-2.40820312h.98925781ZM373.79026061,4.71464677l-1.3359375-1.86376953h.92382812l.94042969,1.15478516.93945312-1.15478516h.92382812l-1.3359375,1.86376953h-1.05566406Z"/>
      <path class="cls-7" d="M383.49240905,12.8962874h-1.27050781v4.50292969h-1.02246094V5.85283037h2.63867188c2.12792969,0,3.29882812,1.23730469,3.29882812,3.38134766,0,2.01269531-.95605469,3.29931641-2.54003906,3.59619141l2.83691406,4.56884766h-1.1875l-2.75390625-4.50292969ZM382.22190124,11.93925615h1.59960938c1.50097656,0,2.27636719-.93994141,2.27636719-2.63916016,0-1.64941406-.77539062-2.49072266-2.25976562-2.49072266h-1.61621094v5.12988281Z"/>
      <path class="cls-7" d="M391.49533874,16.11259599l-.75878906,3.43115234h-.69335938l.34667969-3.43115234h1.10546875Z"/>
      <path class="cls-7" d="M399.59690124,16.57451005c0-3.92578125,4.453125-5.45996094,4.453125-8.28027344,0-.95703125-.62695312-1.68261719-1.71484375-1.68261719-1.00683594,0-1.64941406.65966797-1.68261719,1.96289062h-.99023438c.09960938-1.73193359,1.12207031-2.88671875,2.67285156-2.88671875,1.66601562,0,2.70507812,1.15478516,2.70507812,2.60644531,0,3.29882812-4.45410156,4.83300781-4.45410156,8.18115234h4.56933594v.92382812h-5.55859375v-.82470703Z"/>
      <path class="cls-7" d="M408.3244403,14.56230302v-5.85595703c0-1.81445312,1.12207031-3.01855469,2.8046875-3.01855469s2.80371094,1.20410156,2.80371094,3.01855469v5.85595703c0,1.79785156-1.12109375,3.00195312-2.80371094,3.00195312s-2.8046875-1.20410156-2.8046875-3.00195312ZM412.96018249,14.56230302v-5.85595703c0-1.30273438-.67675781-2.06152344-1.83105469-2.06152344-1.15527344,0-1.83105469.75878906-1.83105469,2.06152344v5.85595703c0,1.28662109.67578125,2.04541016,1.83105469,2.04541016,1.15429688,0,1.83105469-.75878906,1.83105469-2.04541016Z"/>
      <path class="cls-7" d="M417.06955749,16.57451005c0-3.92578125,4.45410156-5.45996094,4.45410156-8.28027344,0-.95703125-.62695312-1.68261719-1.71582031-1.68261719-1.00585938,0-1.64941406.65966797-1.68261719,1.96289062h-.98925781c.09863281-1.73193359,1.12109375-2.88671875,2.671875-2.88671875,1.66601562,0,2.70507812,1.15478516,2.70507812,2.60644531,0,3.29882812-4.453125,4.83300781-4.453125,8.18115234h4.56835938v.92382812h-5.55859375v-.82470703Z"/>
      <path class="cls-7" d="M425.36936217,16.57451005c0-3.92578125,4.45410156-5.45996094,4.45410156-8.28027344,0-.95703125-.62695312-1.68261719-1.71582031-1.68261719-1.00585938,0-1.64941406.65966797-1.68261719,1.96289062h-.98925781c.09863281-1.73193359,1.12109375-2.88671875,2.671875-2.88671875,1.66601562,0,2.70507812,1.15478516,2.70507812,2.60644531,0,3.29882812-4.453125,4.83300781-4.453125,8.18115234h4.56835938v.92382812h-5.55859375v-.82470703Z"/>
      <path class="cls-7" d="M434.01486999,18.43827958c.84179688-.08251953,1.40234375-.7421875,1.40234375-1.74853516V6.54570146c0-1.00634766-.56054688-1.66601562-1.40234375-1.73193359v-.94042969c1.41894531.08251953,2.39257812,1.17138672,2.39257812,2.67236328v10.14404297c0,1.51757812-.97363281,2.60644531-2.39257812,2.68896484v-.94042969Z"/>
    </g>
    <rect class="cls-3" x="367.88761871" y="50.88687648" width="70.03321325" height="30"/>
    <rect class="cls-2" x="184.5744796" y="50.88687648" width=".81596002" height="30"/>
    <rect class="cls-1" x=".88642649" y="50.88687648" width="6.55707588" height="30"/>
    <g>
      <path class="cls-4" d="M22.70822936,66.4040999c0,1.48144531-.25292969,2.58203125-.75878906,3.30175781s-1.296875,1.08007812-2.37207031,1.08007812c-1.06152344,0-1.84765625-.3515625-2.35839844-1.05664062-.51074219-.703125-.77441406-1.75488281-.79296875-3.15429688v-1.68847656c0-1.46289062.25292969-2.54980469.75878906-3.26074219s1.29882812-1.06640625,2.37890625-1.06640625c1.07128906,0,1.859375.34277344,2.36523438,1.02929688.50585938.68554688.765625,1.74414062.77929688,3.17480469v1.640625ZM21.44358092,64.67460771c0-1.07128906-.15039062-1.8515625-.45117188-2.34179688-.30078125-.48925781-.77734375-.734375-1.42871094-.734375-.64746094,0-1.11914062.24414062-1.41503906.73144531s-.44921875,1.23730469-.45800781,2.24902344v2.0234375c0,1.07519531.15625,1.86914062.46875,2.3828125.31152344.51171875.78417969.76855469,1.41796875.76855469.62402344,0,1.08789062-.24121094,1.390625-.72460938.30371094-.48339844.46191406-1.24414062.47558594-2.28320312v-2.07128906Z"/>
      <path class="cls-4" d="M24.41721374,72.63163896l-.71777344-.4921875c.42871094-.59667969.65136719-1.21191406.66992188-1.84570312v-1.14160156h1.23730469v.99121094c0,.45996094-.11328125.92089844-.33789062,1.38085938-.2265625.45996094-.50976562.82910156-.8515625,1.10742188Z"/>
      <path class="cls-4" d="M31.23264342,70.64921708h-1.27148438v-8.42871094l-2.54980469.93652344v-1.1484375l3.62304688-1.36035156h.19824219v10.00097656Z"/>
      <path class="cls-4" d="M40.27658874,67.30644365h1.38085938v1.03222656h-1.38085938v2.31054688h-1.27148438v-2.31054688h-4.53222656v-.74511719l4.45703125-6.89746094h1.34667969v6.61035156ZM35.90842467,67.30644365h3.09667969v-4.88085938l-.15039062.2734375-2.94628906,4.60742188Z"/>
      <path class="cls-4" d="M48.28830749,60.69609208l3.25390625,8.12109375,3.25390625-8.12109375h1.70214844v9.953125h-1.3125v-3.87597656l.12304688-4.18359375-3.26757812,8.05957031h-1.00488281l-3.26074219-8.0390625.12988281,4.16308594v3.87597656h-1.3125v-9.953125h1.6953125Z"/>
      <path class="cls-4" d="M60.33322936,61.46171708v1.79101562h1.38085938v.97753906h-1.38085938v4.59277344c0,.296875.06152344.51855469.18457031.66699219s.33300781.22265625.62890625.22265625c.14550781,0,.34667969-.02734375.6015625-.08203125v1.01953125c-.33300781.09082031-.65625.13574219-.97070312.13574219-.56542969,0-.99121094-.17089844-1.27832031-.51269531s-.43066406-.82714844-.43066406-1.45605469v-4.58691406h-1.34667969v-.97753906h1.34667969v-1.79101562h1.26464844Z"/>
    </g>
    <g>
      <path class="cls-8" d="M2.14328795,105.67704912l2.25585938-2.296875-2.2421875-2.29003906.81347656-.84082031,2.24902344,2.29003906,2.24902344-2.29003906.81347656.84082031-2.2421875,2.29003906,2.25585938,2.296875-.81347656.84082031-2.26269531-2.30371094-2.26269531,2.30371094-.81347656-.84082031Z"/>
      <path class="cls-8" d="M19.81418639,107.92607255h-6.52148438v-.90917969l3.4453125-3.828125c.51074219-.57910156.86230469-1.04980469,1.05566406-1.41113281.19433594-.36328125.29101562-.73730469.29101562-1.125,0-.51953125-.15722656-.9453125-.47167969-1.27832031s-.73339844-.49902344-1.2578125-.49902344c-.62890625,0-1.11816406.17871094-1.46582031.53710938-.34960938.35742188-.5234375.85546875-.5234375,1.49316406h-1.26464844c0-.91601562.29492188-1.65625.88574219-2.22167969.58984375-.56542969,1.37890625-.84765625,2.36816406-.84765625.92480469,0,1.65625.2421875,2.19433594.72851562.53808594.484375.80664062,1.13085938.80664062,1.9375,0,.97949219-.62402344,2.14648438-1.87304688,3.5l-2.66601562,2.89160156h4.99707031v1.03222656Z"/>
      <path class="cls-8" d="M27.19016295,100.5706038c0,.49707031-.13085938.93847656-.39257812,1.32617188-.26269531.38769531-.6171875.69042969-1.06347656.90917969.51953125.22363281.93066406.54882812,1.23339844.97753906.30371094.42871094.45507812.9140625.45507812,1.45605469,0,.86132812-.29101562,1.546875-.87109375,2.05761719-.58203125.51074219-1.34570312.765625-2.29394531.765625-.95703125,0-1.72363281-.25585938-2.29980469-.76953125-.57714844-.51171875-.86523438-1.19726562-.86523438-2.05371094,0-.53808594.14648438-1.0234375.44140625-1.45605469.29296875-.43261719.70019531-.76074219,1.21972656-.984375-.44238281-.21875-.79101562-.52148438-1.04589844-.90917969s-.3828125-.82714844-.3828125-1.31933594c0-.83886719.26855469-1.50390625.80664062-1.99609375s1.24609375-.73828125,2.12597656-.73828125c.875,0,1.58300781.24609375,2.12207031.73828125.54101562.4921875.81054688,1.15722656.81054688,1.99609375ZM26.15793639,105.21220537c0-.55566406-.17675781-1.00976562-.53027344-1.36035156-.35253906-.35058594-.81445312-.52636719-1.38378906-.52636719s-1.02636719.17285156-1.37011719.51953125c-.34472656.34667969-.51660156.80175781-.51660156,1.3671875s.16699219,1.00976562.50292969,1.33300781c.33398438.32324219.80078125.48535156,1.39746094.48535156.59277344,0,1.05761719-.16308594,1.39453125-.48925781.33691406-.32519531.50585938-.76855469.50585938-1.32910156ZM24.25754577,98.8752913c-.49707031,0-.89941406.15429688-1.20605469.4609375-.30859375.30859375-.46191406.7265625-.46191406,1.25488281,0,.50585938.15136719.91503906.45410156,1.22753906.30371094.31152344.70800781.46777344,1.21386719.46777344s.91015625-.15625,1.21386719-.46777344c.30273438-.3125.45410156-.72167969.45410156-1.22753906s-.15722656-.91796875-.47167969-1.23730469-.71289062-.47851562-1.19628906-.47851562Z"/>
      <path class="cls-8" d="M32.56320983,103.88603349c0-1.03027344.13769531-2.01855469.41308594-2.96679688.27636719-.94824219.6875-1.80957031,1.234375-2.58398438s1.11425781-1.32128906,1.70214844-1.640625l.25976562.83398438c-.66503906.51074219-1.2109375,1.29003906-1.63769531,2.33789062-.42578125,1.04785156-.65917969,2.22167969-.70019531,3.52050781l-.00683594.58105469c0,1.75878906.32128906,3.28613281.96386719,4.58007812.38769531.77441406.84765625,1.38085938,1.38085938,1.81835938l-.25976562.77246094c-.60644531-.33691406-1.18457031-.90234375-1.73632812-1.6953125-1.07519531-1.54980469-1.61328125-3.40234375-1.61328125-5.55761719Z"/>
      <path class="cls-8" d="M44.94309264,106.62040849c-.33691406.48339844-.80761719.84472656-1.41210938,1.08300781-.60351562.24023438-1.30664062.359375-2.10839844.359375-.81152344,0-1.53125-.19042969-2.16015625-.5703125-.62890625-.38085938-1.11523438-.921875-1.45996094-1.62402344-.34375-.70214844-.52050781-1.515625-.52929688-2.44042969v-.86816406c0-1.49902344.34960938-2.66113281,1.04882812-3.48632812.70019531-.82519531,1.68359375-1.23730469,2.95019531-1.23730469,1.0390625,0,1.875.265625,2.50878906.796875.63378906.53027344,1.02050781,1.28320312,1.16210938,2.25878906h-1.3125c-.24609375-1.32128906-1.03027344-1.98242188-2.3515625-1.98242188-.87988281,0-1.54589844.30957031-2,.92675781-.453125.61816406-.68164062,1.51367188-.68652344,2.68554688v.81445312c0,1.1171875.25488281,2.00585938.765625,2.66503906s1.20117188.98828125,2.07128906.98828125c.4921875,0,.92285156-.0546875,1.29199219-.1640625.36914062-.10839844.67480469-.29296875.91601562-.55175781v-2.23046875h-2.30371094v-1.07324219h3.609375v3.65039062Z"/>
      <path class="cls-8" d="M49.27707702,104.78837724l.19140625,1.3125.28027344-1.18261719,1.96875-6.9453125h1.10742188l1.92089844,6.9453125.2734375,1.203125.21191406-1.33984375,1.54492188-6.80859375h1.31933594l-2.41308594,9.953125h-1.19628906l-2.05078125-7.25292969-.15722656-.75878906-.15722656.75878906-2.12597656,7.25292969h-1.19628906l-2.40625-9.953125h1.3125l1.57226562,6.81542969Z"/>
      <path class="cls-8" d="M60.86399108,104.02958818v3.89648438h-1.3125v-9.953125h3.67089844c1.08886719,0,1.94238281.27832031,2.56054688.83398438.6171875.55566406.92578125,1.29199219.92578125,2.20800781,0,.96582031-.30175781,1.70996094-.90625,2.23144531-.60351562.52246094-1.46777344.78320312-2.59375.78320312h-2.34472656ZM60.86399108,102.95634599h2.35839844c.70214844,0,1.23925781-.16503906,1.61328125-.49609375s.56054688-.80957031.56054688-1.43457031c0-.59375-.18652344-1.06835938-.56054688-1.42480469s-.88671875-.54101562-1.53808594-.5546875h-2.43359375v3.91015625Z"/>
      <path class="cls-8" d="M73.71555358,104.50126787l-.79296875.82714844v2.59765625h-1.26464844v-10.5h1.26464844v6.35058594l.67675781-.81347656,2.30371094-2.43359375h1.53808594l-2.87792969,3.08984375,3.21289062,4.30664062h-1.48339844l-2.57714844-3.42480469Z"/>
      <path class="cls-8" d="M78.41184264,104.15947099c0-.72460938.14257812-1.37597656.42675781-1.95507812.28515625-.57910156.68164062-1.02539062,1.18945312-1.33984375.50878906-.31445312,1.08886719-.47167969,1.74023438-.47167969,1.00683594,0,1.82226562.34863281,2.44335938,1.04589844.62304688.69726562.93359375,1.625.93359375,2.78222656v.08886719c0,.71972656-.13769531,1.36621094-.4140625,1.93847656-.27539062.57128906-.66992188,1.01660156-1.18164062,1.3359375-.51367188.31933594-1.10253906.47851562-1.76757812.47851562-1.00292969,0-1.81445312-.34863281-2.4375-1.04589844-.62109375-.69726562-.93261719-1.62011719-.93261719-2.76855469v-.08886719ZM79.68332702,104.30986162c0,.8203125.19042969,1.47851562.57128906,1.97558594.37988281.49707031.88964844.74511719,1.52734375.74511719.64257812,0,1.15332031-.25195312,1.53125-.75488281.37792969-.50390625.56738281-1.20898438.56738281-2.11621094,0-.81152344-.19238281-1.46875-.57714844-1.97167969-.38574219-.50390625-.89746094-.75585938-1.53515625-.75585938-.62402344,0-1.12792969.24804688-1.51074219.74511719s-.57421875,1.20800781-.57421875,2.1328125Z"/>
      <path class="cls-8" d="M89.80051452,108.0627913c-1.00292969,0-1.81835938-.32910156-2.44726562-.98828125-.62890625-.65820312-.94335938-1.5390625-.94335938-2.64160156v-.23242188c0-.73339844.13964844-1.38867188.42089844-1.96582031.27929688-.57617188.671875-1.02734375,1.17578125-1.35351562.50292969-.32519531,1.04882812-.48828125,1.63671875-.48828125.96191406,0,1.70898438.31640625,2.2421875.95019531s.79980469,1.54003906.79980469,2.72070312v.52636719h-5.01074219c.01855469.72949219.23144531,1.31835938.63867188,1.76757812.40820312.44824219.92675781.67285156,1.55566406.67285156.44628906,0,.82519531-.09082031,1.13476562-.2734375s.58105469-.42382812.81347656-.72460938l.77246094.6015625c-.62011719.95214844-1.54980469,1.42871094-2.7890625,1.42871094ZM89.64328795,101.43193193c-.51074219,0-.93847656.18554688-1.28515625.55664062-.34667969.37207031-.56054688.89257812-.64257812,1.5625h3.70507812v-.09570312c-.03613281-.64257812-.20996094-1.140625-.51953125-1.49414062-.30957031-.35253906-.72949219-.52929688-1.2578125-.52929688Z"/>
      <path class="cls-8" d="M94.77024108,107.92607255v-6.41894531h-1.16894531v-.97753906h1.16894531v-.75878906c0-.79296875.21191406-1.40625.63574219-1.83886719s1.0234375-.64941406,1.79785156-.64941406c.29199219,0,.58105469.03808594.86816406.11523438l-.06835938,1.01953125c-.21386719-.04101562-.44238281-.06152344-.68359375-.06152344-.41015625,0-.7265625.12011719-.95019531.36035156-.22363281.23925781-.33496094.58398438-.33496094,1.03125v.78222656h1.57910156v.97753906h-1.57910156v6.41894531h-1.26464844Z"/>
      <path class="cls-8" d="M99.01535827,98.56767412c0-.20507812.0625-.37792969.18847656-.51953125.125-.14160156.31054688-.21191406.55664062-.21191406s.43261719.0703125.56054688.21191406.19140625.31445312.19140625.51953125-.06347656.37597656-.19140625.51269531-.31445312.20507812-.56054688.20507812-.43164062-.06835938-.55664062-.20507812c-.12597656-.13671875-.18847656-.30761719-.18847656-.51269531ZM100.38254577,107.92607255h-1.26464844v-7.39648438h1.26464844v7.39648438Z"/>
      <path class="cls-8" d="M105.37278014,107.03056474c.45117188,0,.84570312-.13671875,1.18261719-.41015625s.52441406-.61523438.56054688-1.02539062h1.19628906c-.02246094.42382812-.16894531.82714844-.4375,1.20996094s-.62792969.68847656-1.07617188.91601562c-.44921875.22753906-.92480469.34179688-1.42578125.34179688-1.00683594,0-1.80859375-.3359375-2.40234375-1.0078125-.59570312-.67285156-.89257812-1.59179688-.89257812-2.75878906v-.21191406c0-.71972656.13183594-1.36035156.39648438-1.92089844s.64355469-.99609375,1.13867188-1.30566406c.49414062-.30957031,1.078125-.46484375,1.75292969-.46484375.82910156,0,1.51855469.24804688,2.06738281.74511719.54980469.49707031.84277344,1.14160156.87890625,1.93457031h-1.19628906c-.03613281-.47851562-.21777344-.87109375-.54394531-1.1796875-.32519531-.30664062-.72753906-.4609375-1.20605469-.4609375-.64257812,0-1.140625.23144531-1.49316406.69335938-.35351562.46289062-.53027344,1.13183594-.53027344,2.00683594v.23925781c0,.85253906.17578125,1.50878906.52636719,1.96875s.85253906.69042969,1.50390625.69042969Z"/>
      <path class="cls-8" d="M109.7409442,98.56767412c0-.20507812.0625-.37792969.18847656-.51953125.125-.14160156.31054688-.21191406.55664062-.21191406s.43261719.0703125.56054688.21191406.19140625.31445312.19140625.51953125-.06347656.37597656-.19140625.51269531-.31445312.20507812-.56054688.20507812-.43164062-.06835938-.55664062-.20507812c-.12597656-.13671875-.18847656-.30761719-.18847656-.51269531ZM111.1081317,107.92607255h-1.26464844v-7.39648438h1.26464844v7.39648438Z"/>
      <path class="cls-8" d="M116.20090514,108.0627913c-1.00292969,0-1.81835938-.32910156-2.44726562-.98828125-.62890625-.65820312-.94335938-1.5390625-.94335938-2.64160156v-.23242188c0-.73339844.13964844-1.38867188.42089844-1.96582031.27929688-.57617188.671875-1.02734375,1.17578125-1.35351562.50292969-.32519531,1.04882812-.48828125,1.63671875-.48828125.96191406,0,1.70898438.31640625,2.2421875.95019531s.79980469,1.54003906.79980469,2.72070312v.52636719h-5.01074219c.01855469.72949219.23144531,1.31835938.63867188,1.76757812.40820312.44824219.92675781.67285156,1.55566406.67285156.44628906,0,.82519531-.09082031,1.13476562-.2734375s.58105469-.42382812.81347656-.72460938l.77246094.6015625c-.62011719.95214844-1.54980469,1.42871094-2.7890625,1.42871094ZM116.04367858,101.43193193c-.51074219,0-.93847656.18554688-1.28515625.55664062-.34667969.37207031-.56054688.89257812-.64257812,1.5625h3.70507812v-.09570312c-.03613281-.64257812-.20996094-1.140625-.51953125-1.49414062-.30957031-.35253906-.72949219-.52929688-1.2578125-.52929688Z"/>
      <path class="cls-8" d="M121.74485045,100.52958818l.04101562.9296875c.56542969-.7109375,1.30371094-1.06640625,2.21484375-1.06640625,1.56347656,0,2.3515625.88183594,2.36523438,2.64550781v4.88769531h-1.26464844v-4.89453125c-.00488281-.53320312-.12695312-.92773438-.36523438-1.18261719-.24023438-.25488281-.61230469-.3828125-1.11816406-.3828125-.41015625,0-.77050781.109375-1.08007812.328125s-.55175781.50585938-.72460938.86132812v5.27050781h-1.26464844v-7.39648438h1.19628906Z"/>
      <path class="cls-8" d="M129.98899108,98.73857255v1.79101562h1.38085938v.97753906h-1.38085938v4.59277344c0,.296875.06152344.51855469.18457031.66699219s.33300781.22265625.62890625.22265625c.14550781,0,.34667969-.02734375.6015625-.08203125v1.01953125c-.33300781.09082031-.65625.13574219-.97070312.13574219-.56542969,0-.99121094-.17089844-1.27832031-.51269531s-.43066406-.82714844-.43066406-1.45605469v-4.58691406h-1.34667969v-.97753906h1.34667969v-1.79101562h1.26464844Z"/>
      <path class="cls-8" d="M135.76535827,103.95439287c0,1.01660156-.13378906,1.99023438-.39941406,2.92285156-.26757812.93164062-.67480469,1.79199219-1.22460938,2.58007812-.54882812.78808594-1.12402344,1.34863281-1.72558594,1.68164062l-.26660156-.77246094c.70214844-.53808594,1.265625-1.37304688,1.69140625-2.50488281.42675781-1.1328125.64453125-2.38964844.65332031-3.77050781v-.21875c0-.95703125-.10058594-1.84667969-.30078125-2.66894531-.20019531-.82324219-.47949219-1.56054688-.83691406-2.21191406-.35839844-.65136719-.76074219-1.16015625-1.20703125-1.52441406l.26660156-.77246094c.6015625.33300781,1.17480469.88867188,1.71972656,1.66796875.54394531.77929688.95214844,1.63867188,1.22265625,2.57714844.27148438.93847656.40722656,1.94335938.40722656,3.01464844Z"/>
    </g>
    <g>
      <path class="cls-8" d="M188.41672545,105.67704912l2.25585938-2.296875-2.2421875-2.29003906.81347656-.84082031,2.24902344,2.29003906,2.24902344-2.29003906.81347656.84082031-2.2421875,2.29003906,2.25585938,2.296875-.81347656.84082031-2.26269531-2.30371094-2.26269531,2.30371094-.81347656-.84082031Z"/>
      <path class="cls-8" d="M206.08762389,107.92607255h-6.52148438v-.90917969l3.4453125-3.828125c.51074219-.57910156.86230469-1.04980469,1.05566406-1.41113281.19433594-.36328125.29101562-.73730469.29101562-1.125,0-.51953125-.15722656-.9453125-.47167969-1.27832031s-.73339844-.49902344-1.2578125-.49902344c-.62890625,0-1.11816406.17871094-1.46582031.53710938-.34960938.35742188-.5234375.85546875-.5234375,1.49316406h-1.26464844c0-.91601562.29492188-1.65625.88574219-2.22167969.58984375-.56542969,1.37890625-.84765625,2.36816406-.84765625.92480469,0,1.65625.2421875,2.19433594.72851562.53808594.484375.80664062,1.13085938.80664062,1.9375,0,.97949219-.62402344,2.14648438-1.87304688,3.5l-2.66601562,2.89160156h4.99707031v1.03222656Z"/>
      <path class="cls-8" d="M212.39035827,97.96611162v1.07324219h-.23242188c-.984375.01855469-1.76855469.30957031-2.3515625.875s-.92089844,1.36035156-1.01171875,2.38574219c.52441406-.6015625,1.23925781-.90234375,2.14648438-.90234375.86621094,0,1.55761719.30566406,2.07519531.91601562.51660156.61035156.77539062,1.39941406.77539062,2.36523438,0,1.02539062-.27929688,1.84570312-.83789062,2.4609375-.55761719.61523438-1.30664062.92285156-2.24511719.92285156-.95214844,0-1.72460938-.36523438-2.31738281-1.09765625-.59277344-.73046875-.88867188-1.67285156-.88867188-2.82617188v-.48535156c0-1.83203125.390625-3.23242188,1.171875-4.20019531.78222656-.96875,1.9453125-1.46484375,3.49023438-1.48730469h.22558594ZM210.72922545,102.45048662c-.43261719,0-.83203125.12988281-1.19628906.38964844s-.6171875.5859375-.75878906.97753906v.46484375c0,.8203125.18457031,1.48144531.55371094,1.98242188s.82910156.75195312,1.38085938.75195312c.56933594,0,1.01757812-.20996094,1.34277344-.62890625.32617188-.41894531.48925781-.96875.48925781-1.64746094,0-.68359375-.16503906-1.23632812-.49511719-1.65820312-.33105469-.42089844-.76953125-.63183594-1.31640625-.63183594Z"/>
      <path class="cls-8" d="M215.86985045,102.93583818l.50585938-4.96289062h5.09960938v1.16894531h-4.02636719l-.30078125,2.71386719c.48730469-.28710938,1.04101562-.43066406,1.66113281-.43066406.90722656,0,1.62695312.29980469,2.16015625.89941406.53320312.59863281.79980469,1.40917969.79980469,2.4296875,0,1.02539062-.27636719,1.83300781-.83105469,2.42382812-.55273438.58984375-1.32714844.88476562-2.3203125.88476562-.87988281,0-1.59765625-.24414062-2.15332031-.73144531s-.87304688-1.16210938-.95019531-2.0234375h1.19628906c.07714844.56933594.28027344.99902344.60839844,1.28808594.328125.29003906.76074219.43457031,1.29882812.43457031.58789062,0,1.04882812-.20019531,1.38476562-.6015625.33398438-.40136719.50195312-.95507812.50195312-1.66113281,0-.66503906-.18164062-1.19921875-.54296875-1.60351562-.36328125-.40234375-.84472656-.60449219-1.44628906-.60449219-.55175781,0-.984375.12109375-1.29882812.36230469l-.33496094.2734375-1.01171875-.25976562Z"/>
    </g>
    <g>
      <path class="cls-8" d="M370.94895202,105.67704912l2.25585938-2.296875-2.2421875-2.29003906.81347656-.84082031,2.24902344,2.29003906,2.24902344-2.29003906.81347656.84082031-2.2421875,2.29003906,2.25585938,2.296875-.81347656.84082031-2.26269531-2.30371094-2.26269531,2.30371094-.81347656-.84082031Z"/>
      <path class="cls-8" d="M386.25461608,107.92607255h-1.27148438v-8.42871094l-2.54980469.93652344v-1.1484375l3.62304688-1.36035156h.19824219v10.00097656Z"/>
    </g>
    <g>
      <path class="cls-5" d="M196.65793639,66.4040999c0,1.48144531-.25292969,2.58203125-.75878906,3.30175781s-1.296875,1.08007812-2.37207031,1.08007812c-1.06152344,0-1.84765625-.3515625-2.35839844-1.05664062-.51074219-.703125-.77441406-1.75488281-.79296875-3.15429688v-1.68847656c0-1.46289062.25292969-2.54980469.75878906-3.26074219s1.29882812-1.06640625,2.37890625-1.06640625c1.07128906,0,1.859375.34277344,2.36523438,1.02929688.50585938.68554688.765625,1.74414062.77929688,3.17480469v1.640625ZM195.39328795,64.67460771c0-1.07128906-.15039062-1.8515625-.45117188-2.34179688-.30078125-.48925781-.77734375-.734375-1.42871094-.734375-.64746094,0-1.11914062.24414062-1.41503906.73144531s-.44921875,1.23730469-.45800781,2.24902344v2.0234375c0,1.07519531.15625,1.86914062.46875,2.3828125.31152344.51171875.78417969.76855469,1.41796875.76855469.62402344,0,1.08789062-.24121094,1.390625-.72460938.30371094-.48339844.46191406-1.24414062.47558594-2.28320312v-2.07128906Z"/>
      <path class="cls-5" d="M198.36692077,72.63163896l-.71777344-.4921875c.42871094-.59667969.65136719-1.21191406.66992188-1.84570312v-1.14160156h1.23730469v.99121094c0,.45996094-.11328125.92089844-.33789062,1.38085938-.2265625.45996094-.50976562.82910156-.8515625,1.10742188Z"/>
      <path class="cls-5" d="M207.26731139,66.4040999c0,1.48144531-.25292969,2.58203125-.75878906,3.30175781s-1.296875,1.08007812-2.37207031,1.08007812c-1.06152344,0-1.84765625-.3515625-2.35839844-1.05664062-.51074219-.703125-.77441406-1.75488281-.79296875-3.15429688v-1.68847656c0-1.46289062.25292969-2.54980469.75878906-3.26074219s1.29882812-1.06640625,2.37890625-1.06640625c1.07128906,0,1.859375.34277344,2.36523438,1.02929688.50585938.68554688.765625,1.74414062.77929688,3.17480469v1.640625ZM206.00266295,64.67460771c0-1.07128906-.15039062-1.8515625-.45117188-2.34179688-.30078125-.48925781-.77734375-.734375-1.42871094-.734375-.64746094,0-1.11914062.24414062-1.41503906.73144531s-.44921875,1.23730469-.45800781,2.24902344v2.0234375c0,1.07519531.15625,1.86914062.46875,2.3828125.31152344.51171875.78417969.76855469,1.41796875.76855469.62402344,0,1.08789062-.24121094,1.390625-.72460938.30371094-.48339844.46191406-1.24414062.47558594-2.28320312v-2.07128906Z"/>
      <path class="cls-5" d="M213.04367858,70.64921708h-1.27148438v-8.42871094l-2.54980469.93652344v-1.1484375l3.62304688-1.36035156h.19824219v10.00097656Z"/>
      <path class="cls-5" d="M217.32981139,65.65898271l.50585938-4.96289062h5.09960938v1.16894531h-4.02636719l-.30078125,2.71386719c.48730469-.28710938,1.04101562-.43066406,1.66113281-.43066406.90722656,0,1.62695312.29980469,2.16015625.89941406.53320312.59863281.79980469,1.40917969.79980469,2.4296875,0,1.02539062-.27636719,1.83300781-.83105469,2.42382812-.55273438.58984375-1.32714844.88476562-2.3203125.88476562-.87988281,0-1.59765625-.24414062-2.15332031-.73144531s-.87304688-1.16210938-.95019531-2.0234375h1.19628906c.07714844.56933594.28027344.99902344.60839844,1.28808594.328125.29003906.76074219.43457031,1.29882812.43457031.58789062,0,1.04882812-.20019531,1.38476562-.6015625.33398438-.40136719.50195312-.95507812.50195312-1.66113281,0-.66503906-.18164062-1.19921875-.54296875-1.60351562-.36328125-.40234375-.84472656-.60449219-1.44628906-.60449219-.55175781,0-.984375.12109375-1.29882812.36230469l-.33496094.2734375-1.01171875-.25976562Z"/>
      <path class="cls-5" d="M230.09934264,60.69609208l3.25390625,8.12109375,3.25390625-8.12109375h1.70214844v9.953125h-1.3125v-3.87597656l.12304688-4.18359375-3.26757812,8.05957031h-1.00488281l-3.26074219-8.0390625.12988281,4.16308594v3.87597656h-1.3125v-9.953125h1.6953125Z"/>
      <path class="cls-5" d="M242.14426452,61.46171708v1.79101562h1.38085938v.97753906h-1.38085938v4.59277344c0,.296875.06152344.51855469.18457031.66699219s.33300781.22265625.62890625.22265625c.14550781,0,.34667969-.02734375.6015625-.08203125v1.01953125c-.33300781.09082031-.65625.13574219-.97070312.13574219-.56542969,0-.99121094-.17089844-1.27832031-.51269531s-.43066406-.82714844-.43066406-1.45605469v-4.58691406h-1.34667969v-.97753906h1.34667969v-1.79101562h1.26464844Z"/>
    </g>
    <g>
      <path class="cls-9" d="M380.51291686,70.11064287h-1.27148438v-8.42871094l-2.54980469.93652344v-1.1484375l3.62304688-1.36035156h.19824219v10.00097656Z"/>
      <path class="cls-9" d="M384.30686217,72.09306474l-.71777344-.4921875c.42871094-.59667969.65136719-1.21191406.66992188-1.84570312v-1.14160156h1.23730469v.99121094c0,.45996094-.11328125.92089844-.33789062,1.38085938-.2265625.45996094-.50976562.82910156-.8515625,1.10742188Z"/>
      <path class="cls-9" d="M387.54709655,65.12040849l.50585938-4.96289062h5.09960938v1.16894531h-4.02636719l-.30078125,2.71386719c.48730469-.28710938,1.04101562-.43066406,1.66113281-.43066406.90722656,0,1.62695312.29980469,2.16015625.89941406.53320312.59863281.79980469,1.40917969.79980469,2.4296875,0,1.02539062-.27636719,1.83300781-.83105469,2.42382812-.55273438.58984375-1.32714844.88476562-2.3203125.88476562-.87988281,0-1.59765625-.24414062-2.15332031-.73144531s-.87304688-1.16210938-.95019531-2.0234375h1.19628906c.07714844.56933594.28027344.99902344.60839844,1.28808594.328125.29003906.76074219.43457031,1.29882812.43457031.58789062,0,1.04882812-.20019531,1.38476562-.6015625.33398438-.40136719.50195312-.95507812.50195312-1.66113281,0-.66503906-.18164062-1.19921875-.54296875-1.60351562-.36328125-.40234375-.84472656-.60449219-1.44628906-.60449219-.55175781,0-.984375.12109375-1.29882812.36230469l-.33496094.2734375-1.01171875-.25976562Z"/>
      <path class="cls-9" d="M401.34885436,70.11064287h-6.52148438v-.90917969l3.4453125-3.828125c.51074219-.57910156.86230469-1.04980469,1.05566406-1.41113281.19433594-.36328125.29101562-.73730469.29101562-1.125,0-.51953125-.15722656-.9453125-.47167969-1.27832031s-.73339844-.49902344-1.2578125-.49902344c-.62890625,0-1.11816406.17871094-1.46582031.53710938-.34960938.35742188-.5234375.85546875-.5234375,1.49316406h-1.26464844c0-.91601562.29492188-1.65625.88574219-2.22167969.58984375-.56542969,1.37890625-.84765625,2.36816406-.84765625.92480469,0,1.65625.2421875,2.19433594.72851562.53808594.484375.80664062,1.13085938.80664062,1.9375,0,.97949219-.62402344,2.14648438-1.87304688,3.5l-2.66601562,2.89160156h4.99707031v1.03222656Z"/>
      <path class="cls-9" d="M408.17795592,60.15751787l3.25390625,8.12109375,3.25390625-8.12109375h1.70214844v9.953125h-1.3125v-3.87597656l.12304688-4.18359375-3.26757812,8.05957031h-1.00488281l-3.26074219-8.0390625.12988281,4.16308594v3.87597656h-1.3125v-9.953125h1.6953125Z"/>
      <path class="cls-9" d="M420.2228778,60.92314287v1.79101562h1.38085938v.97753906h-1.38085938v4.59277344c0,.296875.06152344.51855469.18457031.66699219s.33300781.22265625.62890625.22265625c.14550781,0,.34667969-.02734375.6015625-.08203125v1.01953125c-.33300781.09082031-.65625.13574219-.97070312.13574219-.56542969,0-.99121094-.17089844-1.27832031-.51269531s-.43066406-.82714844-.43066406-1.45605469v-4.58691406h-1.34667969v-.97753906h1.34667969v-1.79101562h1.26464844Z"/>
    </g>
    <g>
      <path class="cls-4" d="M4.45481139,31.27714677l2.55664062,7.21875,2.54296875-7.21875h2.69335938v9.953125h-2.05761719v-2.72070312l.20507812-4.69628906-2.68652344,7.41699219h-1.40820312l-2.6796875-7.41015625.20507812,4.68945312v2.72070312H1.77512389v-9.953125h2.6796875Z"/>
      <path class="cls-4" d="M17.31320983,41.36699052c-1.08496094,0-1.96777344-.33300781-2.64941406-.99804688-.68066406-.66503906-1.02148438-1.55175781-1.02148438-2.65917969v-.19140625c0-.74316406.14355469-1.40722656.43066406-1.99316406.28710938-.58496094.69433594-1.03613281,1.21972656-1.35351562.52734375-.31640625,1.12695312-.47460938,1.80175781-.47460938,1.01171875,0,1.80761719.31933594,2.38964844.95703125.58007812.63769531.87109375,1.54296875.87109375,2.71386719v.80664062h-4.70996094c.06347656.48339844.25683594.87011719.57714844,1.16210938.32226562.29199219.72851562.4375,1.22070312.4375.76074219,0,1.35546875-.27539062,1.78417969-.82714844l.97070312,1.08691406c-.29589844.41894531-.69726562.74609375-1.203125.98144531-.50585938.234375-1.06640625.3515625-1.68164062.3515625ZM17.08762389,35.28984208c-.39160156,0-.70996094.1328125-.953125.3984375-.24414062.265625-.40039062.64550781-.46875,1.13964844h2.74804688v-.15820312c-.00878906-.43945312-.12792969-.77929688-.35546875-1.01953125s-.55175781-.36035156-.97070312-.36035156Z"/>
      <path class="cls-4" d="M23.84153014,32.01542802v1.81835938h1.26464844v1.44921875h-1.26464844v3.69140625c0,.2734375.05273438.46972656.15722656.58789062s.30566406.17773438.6015625.17773438c.21875,0,.41210938-.015625.58105469-.04785156v1.49707031c-.38769531.11816406-.78613281.17773438-1.19628906.17773438-1.38574219,0-2.09179688-.69921875-2.11914062-2.09863281v-3.98535156h-1.08007812v-1.44921875h1.08007812v-1.81835938h1.97558594Z"/>
      <path class="cls-4" d="M30.49289733,41.23027177c-.09082031-.17773438-.15722656-.3984375-.19824219-.66308594-.47851562.53320312-1.10058594.79980469-1.86621094.79980469-.72460938,0-1.32519531-.20996094-1.80078125-.62890625-.4765625-.41894531-.71484375-.94824219-.71484375-1.5859375,0-.78417969.29101562-1.38574219.87109375-1.8046875.58203125-.41894531,1.42089844-.63085938,2.51953125-.63574219h.90917969v-.42382812c0-.34179688-.08789062-.61523438-.26269531-.8203125-.17578125-.20507812-.453125-.30761719-.83105469-.30761719-.33300781,0-.59375.08007812-.78222656.23925781-.18945312.15917969-.28417969.37792969-.28417969.65625h-1.97558594c0-.42871094.13183594-.82519531.39648438-1.18945312s.63769531-.65039062,1.12109375-.85839844c.48339844-.20703125,1.02539062-.31054688,1.62695312-.31054688.91113281,0,1.63476562.22851562,2.16992188.6875.53613281.45703125.80371094,1.1015625.80371094,1.93066406v3.20605469c.00488281.70214844.10253906,1.23242188.29394531,1.59277344v.11621094h-1.99609375ZM28.85910827,39.85624833c.29199219,0,.56054688-.06542969.80664062-.19433594.24609375-.13085938.42871094-.3046875.546875-.5234375v-1.27148438h-.73828125c-.98925781,0-1.515625.34179688-1.57910156,1.02539062l-.00683594.11621094c0,.24609375.08691406.44921875.25976562.60839844s.41015625.23925781.7109375.23925781Z"/>
      <path class="cls-4" d="M35.53098327,33.8337874l.06152344.85449219c.52832031-.66113281,1.23730469-.99121094,2.12597656-.99121094.78417969,0,1.3671875.23046875,1.75.69042969s.57910156,1.1484375.58789062,2.06445312v4.77832031h-1.97558594v-4.73046875c0-.41894531-.09082031-.72363281-.2734375-.91210938-.18261719-.18945312-.48535156-.28417969-.90917969-.28417969-.55566406,0-.97265625.23730469-1.25097656.7109375v5.21582031h-1.97558594v-7.39648438h1.859375Z"/>
    </g>
    <g>
      <path class="cls-5" d="M193.63889342,38.22880693c0,.97949219-.17285156,1.83886719-.51953125,2.57714844s-.84179688,1.30761719-1.48632812,1.70898438c-.64550781.40136719-1.38476562.6015625-2.21875.6015625-.82519531,0-1.56054688-.19824219-2.20800781-.59472656s-1.1484375-.96289062-1.50390625-1.69824219c-.35546875-.73632812-.53515625-1.58300781-.54003906-2.54003906v-.4921875c0-.97949219.17675781-1.84277344.52929688-2.58691406.35351562-.74609375.85253906-1.31738281,1.49804688-1.71679688.64453125-.3984375,1.38183594-.59765625,2.2109375-.59765625s1.56640625.19921875,2.2109375.59765625c.64550781.39941406,1.14453125.97070312,1.49804688,1.71679688.35253906.74414062.52929688,1.60449219.52929688,2.58007812v.44433594ZM191.56076842,37.77763505c0-1.04394531-.18652344-1.83691406-.56054688-2.37890625s-.90722656-.81347656-1.59960938-.81347656c-.68847656,0-1.21875.26757812-1.59277344.80273438-.37402344.53613281-.5625,1.32128906-.56738281,2.35546875v.48535156c0,1.01660156.18652344,1.8046875.56054688,2.36523438s.91113281.84082031,1.61328125.84082031c.68847656,0,1.21679688-.26953125,1.5859375-.81054688.36914062-.5390625.55566406-1.32714844.56054688-2.36132812v-.48535156Z"/>
      <path class="cls-5" d="M197.81565124,37.79130693l1.24414062-2.20800781h2.11230469l-2.10546875,3.62304688,2.19433594,3.7734375h-2.11914062l-1.31933594-2.32421875-1.3125,2.32421875h-2.12597656l2.19433594-3.7734375-2.09863281-3.62304688h2.11914062l1.21679688,2.20800781Z"/>
      <path class="cls-5" d="M202.10861999,33.66923662c0-.29589844.09863281-.54003906.29785156-.73144531.19726562-.19140625.46777344-.28710938.80957031-.28710938.33691406,0,.60644531.09570312.80664062.28710938s.30078125.43554688.30078125.73144531c0,.30078125-.1015625.546875-.30371094.73828125-.203125.19140625-.47070312.28710938-.80371094.28710938s-.60058594-.09570312-.80371094-.28710938c-.20214844-.19140625-.30371094-.4375-.30371094-.73828125ZM204.2072528,42.97978349h-1.98242188v-7.39648438h1.98242188v7.39648438Z"/>
      <path class="cls-5" d="M205.52658874,39.2268538c0-1.15332031.25878906-2.07128906.77539062-2.75488281.51757812-.68359375,1.22558594-1.02539062,2.12304688-1.02539062.71972656,0,1.31445312.26855469,1.78417969.80664062v-3.7734375h1.98242188v10.5h-1.78417969l-.09570312-.78613281c-.4921875.61523438-1.12597656.92285156-1.90039062.92285156-.87011719,0-1.56835938-.34277344-2.09570312-1.02929688-.52539062-.68554688-.7890625-1.63867188-.7890625-2.86035156ZM207.50217467,39.37431474c0,.69335938.12109375,1.22558594.36230469,1.59472656.24121094.37011719.59277344.5546875,1.05273438.5546875.61035156,0,1.04101562-.2578125,1.29199219-.7734375v-2.92382812c-.24609375-.515625-.671875-.7734375-1.27832031-.7734375-.95214844,0-1.42871094.7734375-1.42871094,2.32128906Z"/>
      <path class="cls-5" d="M216.90158874,39.2268538c0-1.15332031.25878906-2.07128906.77539062-2.75488281.51757812-.68359375,1.22558594-1.02539062,2.12304688-1.02539062.71972656,0,1.31445312.26855469,1.78417969.80664062v-3.7734375h1.98242188v10.5h-1.78417969l-.09570312-.78613281c-.4921875.61523438-1.12597656.92285156-1.90039062.92285156-.87011719,0-1.56835938-.34277344-2.09570312-1.02929688-.52539062-.68554688-.7890625-1.63867188-.7890625-2.86035156ZM218.87717467,39.37431474c0,.69335938.12109375,1.22558594.36230469,1.59472656.24121094.37011719.59277344.5546875,1.05273438.5546875.61035156,0,1.04101562-.2578125,1.29199219-.7734375v-2.92382812c-.24609375-.515625-.671875-.7734375-1.27832031-.7734375-.95214844,0-1.42871094.7734375-1.42871094,2.32128906Z"/>
      <path class="cls-5" d="M229.5275653,42.22783037c-.48730469.59277344-1.16210938.88867188-2.0234375.88867188-.79296875,0-1.39746094-.22753906-1.81542969-.68359375-.41601562-.45605469-.62988281-1.12304688-.63867188-2.00292969v-4.84667969h1.97558594v4.78417969c0,.77050781.35058594,1.15625,1.05273438,1.15625.66992188,0,1.12988281-.23242188,1.38085938-.69824219v-5.2421875h1.98242188v7.39648438h-1.859375l-.0546875-.75195312Z"/>
      <path class="cls-5" d="M236.93772155,40.93583818c0-.24121094-.12011719-.43164062-.35839844-.57128906-.24023438-.13867188-.62402344-.26269531-1.15234375-.37207031-1.75878906-.36914062-2.63867188-1.11621094-2.63867188-2.2421875,0-.65625.27246094-1.20410156.81640625-1.64355469.54492188-.44042969,1.25683594-.66015625,2.13671875-.66015625.93847656,0,1.68945312.22070312,2.25195312.66308594.56347656.44238281.84472656,1.01660156.84472656,1.72265625h-1.97558594c0-.28222656-.09082031-.51660156-.2734375-.70019531-.18261719-.18554688-.46679688-.27734375-.85449219-.27734375-.33300781,0-.58984375.07519531-.77246094.22558594s-.2734375.34179688-.2734375.57421875c0,.21875.10351562.39550781.31054688.53027344.20800781.13378906.55761719.25,1.04980469.34765625.4921875.09863281.90722656.20898438,1.24414062.33203125,1.04394531.3828125,1.56542969,1.04589844,1.56542969,1.98925781,0,.67480469-.2890625,1.21972656-.86816406,1.63769531-.57910156.41601562-1.32617188.625-2.2421875.625-.62011719,0-1.16992188-.11035156-1.65136719-.33203125-.48046875-.22070312-.85742188-.5234375-1.13085938-.90820312-.2734375-.38574219-.41015625-.80175781-.41015625-1.24804688h1.87304688c.01855469.35058594.1484375.62011719.38964844.80664062s.56542969.28027344.97070312.28027344c.37792969,0,.6640625-.07128906.85839844-.21582031.19335938-.14257812.29003906-.33105469.29003906-.56347656Z"/>
      <path class="cls-5" d="M241.94846374,35.58329912l.06152344.85449219c.52832031-.66113281,1.23730469-.99121094,2.12597656-.99121094.78417969,0,1.3671875.23046875,1.75.69042969s.57910156,1.1484375.58789062,2.06445312v4.77832031h-1.97558594v-4.73046875c0-.41894531-.09082031-.72363281-.2734375-.91210938-.18261719-.18945312-.48535156-.28417969-.90917969-.28417969-.55566406,0-.97265625.23730469-1.25097656.7109375v5.21582031h-1.97558594v-7.39648438h1.859375Z"/>
      <path class="cls-5" d="M250.73264342,40.18388505l1.3671875-4.60058594h2.11914062l-2.97363281,8.54492188-.1640625.38964844c-.44238281.96582031-1.17089844,1.44921875-2.1875,1.44921875-.28710938,0-.57910156-.04296875-.875-.12988281v-1.49707031l.30078125.00683594c.37402344,0,.65234375-.05664062.83789062-.17089844.18359375-.11425781.32910156-.30273438.43359375-.56738281l.23242188-.60839844-2.59082031-7.41699219h2.12597656l1.37402344,4.60058594ZM251.16330749,32.47978349h2.15332031l-1.89355469,2.11914062h-1.60644531l1.34667969-2.11914062Z"/>
    </g>
    <g>
      <path class="cls-6" d="M368.93674499,36.47929521c0,.97949219-.17285156,1.83886719-.51953125,2.57714844s-.84179688,1.30761719-1.48632812,1.70898438c-.64550781.40136719-1.38476562.6015625-2.21875.6015625-.82519531,0-1.56054688-.19824219-2.20800781-.59472656s-1.1484375-.96289062-1.50390625-1.69824219c-.35546875-.73632812-.53515625-1.58300781-.54003906-2.54003906v-.4921875c0-.97949219.17675781-1.84277344.52929688-2.58691406.35351562-.74609375.85253906-1.31738281,1.49804688-1.71679688.64453125-.3984375,1.38183594-.59765625,2.2109375-.59765625s1.56640625.19921875,2.2109375.59765625c.64550781.39941406,1.14453125.97070312,1.49804688,1.71679688.35253906.74414062.52929688,1.60449219.52929688,2.58007812v.44433594ZM366.85861999,36.02812333c0-1.04394531-.18652344-1.83691406-.56054688-2.37890625s-.90722656-.81347656-1.59960938-.81347656c-.68847656,0-1.21875.26757812-1.59277344.80273438-.37402344.53613281-.5625,1.32128906-.56738281,2.35546875v.48535156c0,1.01660156.18652344,1.8046875.56054688,2.36523438s.91113281.84082031,1.61328125.84082031c.68847656,0,1.21679688-.26953125,1.5859375-.81054688.36914062-.5390625.55566406-1.32714844.56054688-2.36132812v-.48535156Z"/>
      <path class="cls-6" d="M373.1135028,36.04179521l1.24414062-2.20800781h2.11230469l-2.10546875,3.62304688,2.19433594,3.7734375h-2.11914062l-1.31933594-2.32421875-1.3125,2.32421875h-2.12597656l2.19433594-3.7734375-2.09863281-3.62304688h2.11914062l1.21679688,2.20800781Z"/>
      <path class="cls-6" d="M377.40647155,31.9197249c0-.29589844.09863281-.54003906.29785156-.73144531.19726562-.19140625.46777344-.28710938.80957031-.28710938.33691406,0,.60644531.09570312.80664062.28710938s.30078125.43554688.30078125.73144531c0,.30078125-.1015625.546875-.30371094.73828125-.203125.19140625-.47070312.28710938-.80371094.28710938s-.60058594-.09570312-.80371094-.28710938c-.20214844-.19140625-.30371094-.4375-.30371094-.73828125ZM379.50510436,41.23027177h-1.98242188v-7.39648438h1.98242188v7.39648438Z"/>
      <path class="cls-6" d="M380.8244403,37.47734208c0-1.15332031.25878906-2.07128906.77539062-2.75488281.51757812-.68359375,1.22558594-1.02539062,2.12304688-1.02539062.71972656,0,1.31445312.26855469,1.78417969.80664062v-3.7734375h1.98242188v10.5h-1.78417969l-.09570312-.78613281c-.4921875.61523438-1.12597656.92285156-1.90039062.92285156-.87011719,0-1.56835938-.34277344-2.09570312-1.02929688-.52539062-.68554688-.7890625-1.63867188-.7890625-2.86035156ZM382.80002624,37.62480302c0,.69335938.12109375,1.22558594.36230469,1.59472656.24121094.37011719.59277344.5546875,1.05273438.5546875.61035156,0,1.04101562-.2578125,1.29199219-.7734375v-2.92382812c-.24609375-.515625-.671875-.7734375-1.27832031-.7734375-.95214844,0-1.42871094.7734375-1.42871094,2.32128906Z"/>
      <path class="cls-6" d="M396.93674499,40.47831865c-.48730469.59277344-1.16210938.88867188-2.0234375.88867188-.79296875,0-1.39746094-.22753906-1.81542969-.68359375-.41601562-.45605469-.62988281-1.12304688-.63867188-2.00292969v-4.84667969h1.97558594v4.78417969c0,.77050781.35058594,1.15625,1.05273438,1.15625.66992188,0,1.12988281-.23242188,1.38085938-.69824219v-5.2421875h1.98242188v7.39648438h-1.859375l-.0546875-.75195312Z"/>
      <path class="cls-6" d="M402.26877624,34.64042802c.52441406-.62890625,1.18261719-.94335938,1.97558594-.94335938,1.60449219,0,2.41796875.93164062,2.44042969,2.79589844v4.73730469h-1.97558594v-4.68261719c0-.42382812-.09082031-.73730469-.2734375-.94042969-.18261719-.20214844-.48535156-.30371094-.90917969-.30371094-.57910156,0-.99804688.22363281-1.2578125.66992188v5.25683594h-1.97558594v-10.5h1.97558594v3.91015625Z"/>
      <path class="cls-6" d="M410.25998717,41.23027177h-1.98242188v-10.5h1.98242188v10.5Z"/>
      <path class="cls-6" d="M411.87326842,31.9197249c0-.29589844.09863281-.54003906.29785156-.73144531.19726562-.19140625.46777344-.28710938.80957031-.28710938.33691406,0,.60644531.09570312.80664062.28710938s.30078125.43554688.30078125.73144531c0,.30078125-.1015625.546875-.30371094.73828125-.203125.19140625-.47070312.28710938-.80371094.28710938s-.60058594-.09570312-.80371094-.28710938c-.20214844-.19140625-.30371094-.4375-.30371094-.73828125ZM413.97190124,41.23027177h-1.98242188v-7.39648438h1.98242188v7.39648438Z"/>
      <path class="cls-6" d="M418.67502624,39.77421708c.36425781,0,.66113281-.10058594.88867188-.30078125s.34667969-.46679688.35546875-.79980469h1.85253906c-.00488281.50097656-.14160156.9609375-.41015625,1.37695312-.26855469.41796875-.63671875.74121094-1.10351562.97070312-.46777344.23046875-.98339844.34570312-1.54882812.34570312-1.05761719,0-1.89160156-.3359375-2.50195312-1.0078125-.61035156-.67285156-.91601562-1.6015625-.91601562-2.78613281v-.12988281c0-1.13964844.30273438-2.04882812.90917969-2.72753906s1.4375-1.01855469,2.49511719-1.01855469c.92480469,0,1.66699219.26367188,2.22460938.7890625.55859375.52734375.84277344,1.22753906.8515625,2.10253906h-1.85253906c-.00878906-.38476562-.12792969-.69726562-.35546875-.93847656-.22753906-.24023438-.52832031-.36035156-.90234375-.36035156-.45996094,0-.80761719.16796875-1.04199219.50292969-.23535156.3359375-.35253906.87988281-.35253906,1.6328125v.20605469c0,.76171875.11621094,1.30957031.34863281,1.64257812s.5859375.5,1.05957031.5ZM418.49045592,31.7009749l.99804688-.97753906h1.68847656v.07519531l-2.06445312,1.92089844h-1.25097656l-2.06445312-1.93457031v-.06152344h1.68847656l1.00488281.97753906Z"/>
      <path class="cls-6" d="M422.88596374,31.9197249c0-.29589844.09863281-.54003906.29785156-.73144531.19726562-.19140625.46777344-.28710938.80957031-.28710938.33691406,0,.60644531.09570312.80664062.28710938s.30078125.43554688.30078125.73144531c0,.30078125-.1015625.546875-.30371094.73828125-.203125.19140625-.47070312.28710938-.80371094.28710938s-.60058594-.09570312-.80371094-.28710938c-.20214844-.19140625-.30371094-.4375-.30371094-.73828125ZM424.98459655,41.23027177h-1.98242188v-7.39648438h1.98242188v7.39648438Z"/>
      <path class="cls-6" d="M428.97678405,32.01542802v1.81835938h1.26464844v1.44921875h-1.26464844v3.69140625c0,.2734375.05273438.46972656.15722656.58789062s.30566406.17773438.6015625.17773438c.21875,0,.41210938-.015625.58105469-.04785156v1.49707031c-.38769531.11816406-.78613281.17773438-1.19628906.17773438-1.38574219,0-2.09179688-.69921875-2.11914062-2.09863281v-3.98535156h-1.08007812v-1.44921875h1.08007812v-1.81835938h1.97558594Z"/>
      <path class="cls-6" d="M434.10373717,38.43437333l1.3671875-4.60058594h2.11914062l-2.97363281,8.54492188-.1640625.38964844c-.44238281.96582031-1.17089844,1.44921875-2.1875,1.44921875-.28710938,0-.57910156-.04296875-.875-.12988281v-1.49707031l.30078125.00683594c.37402344,0,.65234375-.05664062.83789062-.17089844.18359375-.11425781.32910156-.30273438.43359375-.56738281l.23242188-.60839844-2.59082031-7.41699219h2.12597656l1.37402344,4.60058594ZM434.53440124,30.73027177h2.15332031l-1.89355469,2.11914062h-1.60644531l1.34667969-2.11914062Z"/>
    </g>
  </g>
  <g id="_Layer_" data-name="&amp;lt;Layer&amp;gt;">
    <rect class="cls-1" x=".88642649" y="125.86358327" width="183.68805311" height="30"/>
    <rect class="cls-2" x="184.5744796" y="125.86358327" width="183.3131391" height="30"/>
    <rect class="cls-3" x="367.88761871" y="125.86358327" width="70.03322127" height="30"/>
    <g>
      <path class="cls-9" d="M11.98752624,143.49052568h1.38085938v1.03222656h-1.38085938v2.31054688h-1.27148438v-2.31054688h-4.53222656v-.74511719l4.45703125-6.89746094h1.34667969v6.61035156ZM7.61936217,143.49052568h3.09667969v-4.88085938l-.15039062.2734375-2.94628906,4.60742188Z"/>
      <path class="cls-9" d="M14.59885436,148.81572099l-.71777344-.4921875c.42871094-.59667969.65136719-1.21191406.66992188-1.84570312v-1.14160156h1.23730469v.99121094c0,.45996094-.11328125.92089844-.33789062,1.38085938-.2265625.45996094-.50976562.82910156-.8515625,1.10742188Z"/>
      <path class="cls-9" d="M23.49924499,142.58818193c0,1.48144531-.25292969,2.58203125-.75878906,3.30175781s-1.296875,1.08007812-2.37207031,1.08007812c-1.06152344,0-1.84765625-.3515625-2.35839844-1.05664062-.51074219-.703125-.77441406-1.75488281-.79296875-3.15429688v-1.68847656c0-1.46289062.25292969-2.54980469.75878906-3.26074219s1.29882812-1.06640625,2.37890625-1.06640625c1.07128906,0,1.859375.34277344,2.36523438,1.02929688.50585938.68554688.765625,1.74414062.77929688,3.17480469v1.640625ZM22.23459655,140.85868974c0-1.07128906-.15039062-1.8515625-.45117188-2.34179688-.30078125-.48925781-.77734375-.734375-1.42871094-.734375-.64746094,0-1.11914062.24414062-1.41503906.73144531s-.44921875,1.23730469-.45800781,2.24902344v2.0234375c0,1.07519531.15625,1.86914062.46875,2.3828125.31152344.51171875.78417969.76855469,1.41796875.76855469.62402344,0,1.08789062-.24121094,1.390625-.72460938.30371094-.48339844.46191406-1.24414062.47558594-2.28320312v-2.07128906Z"/>
      <path class="cls-9" d="M30.0822528,136.87333818v1.07324219h-.23242188c-.984375.01855469-1.76855469.30957031-2.3515625.875s-.92089844,1.36035156-1.01171875,2.38574219c.52441406-.6015625,1.23925781-.90234375,2.14648438-.90234375.86621094,0,1.55761719.30566406,2.07519531.91601562.51660156.61035156.77539062,1.39941406.77539062,2.36523438,0,1.02539062-.27929688,1.84570312-.83789062,2.4609375-.55761719.61523438-1.30664062.92285156-2.24511719.92285156-.95214844,0-1.72460938-.36523438-2.31738281-1.09765625-.59277344-.73046875-.88867188-1.67285156-.88867188-2.82617188v-.48535156c0-1.83203125.390625-3.23242188,1.171875-4.20019531.78222656-.96875,1.9453125-1.46484375,3.49023438-1.48730469h.22558594ZM28.42111999,141.35771318c-.43261719,0-.83203125.12988281-1.19628906.38964844s-.6171875.5859375-.75878906.97753906v.46484375c0,.8203125.18457031,1.48144531.55371094,1.98242188s.82910156.75195312,1.38085938.75195312c.56933594,0,1.01757812-.20996094,1.34277344-.62890625.32617188-.41894531.48925781-.96875.48925781-1.64746094,0-.68359375-.16503906-1.23632812-.49511719-1.65820312-.33105469-.42089844-.76953125-.63183594-1.31640625-.63183594Z"/>
      <path class="cls-9" d="M38.46994811,136.88017412l3.25390625,8.12109375,3.25390625-8.12109375h1.70214844v9.953125h-1.3125v-3.87597656l.12304688-4.18359375-3.26757812,8.05957031h-1.00488281l-3.26074219-8.0390625.12988281,4.16308594v3.87597656h-1.3125v-9.953125h1.6953125Z"/>
      <path class="cls-9" d="M50.51486999,137.64579912v1.79101562h1.38085938v.97753906h-1.38085938v4.59277344c0,.296875.06152344.51855469.18457031.66699219s.33300781.22265625.62890625.22265625c.14550781,0,.34667969-.02734375.6015625-.08203125v1.01953125c-.33300781.09082031-.65625.13574219-.97070312.13574219-.56542969,0-.99121094-.17089844-1.27832031-.51269531s-.43066406-.82714844-.43066406-1.45605469v-4.58691406h-1.34667969v-.97753906h1.34667969v-1.79101562h1.26464844Z"/>
      <path class="cls-9" d="M64.35764342,143.67509599c-.12304688,1.05273438-.51171875,1.86523438-1.16601562,2.4375-.65332031.57128906-1.52246094.85742188-2.60742188.85742188-1.17578125,0-2.11816406-.421875-2.82617188-1.26464844-.70898438-.84277344-1.06347656-1.97070312-1.06347656-3.38378906v-.95703125c0-.92480469.16503906-1.73828125.49511719-2.44042969.33105469-.70214844.79882812-1.24121094,1.40527344-1.61621094.60644531-.37695312,1.30761719-.56445312,2.10546875-.56445312,1.05761719,0,1.90527344.29492188,2.54296875.88476562.63769531.59082031,1.00976562,1.40722656,1.11425781,2.45117188h-1.31933594c-.11425781-.79492188-.36132812-1.37109375-.74121094-1.72753906-.38085938-.35644531-.91308594-.53515625-1.59667969-.53515625-.83886719,0-1.49609375.31054688-1.97167969.93066406-.4765625.62011719-.71484375,1.50292969-.71484375,2.64746094v.96484375c0,1.08105469.22558594,1.94042969.67675781,2.57910156s1.08203125.95800781,1.89355469.95800781c.72949219,0,1.2890625-.16503906,1.67773438-.49511719.390625-.33105469.6484375-.90625.77636719-1.7265625h1.31933594Z"/>
      <path class="cls-9" d="M73.80490905,142.17802568c0,.97558594-.1640625,1.82617188-.4921875,2.55371094-.328125.7265625-.79296875,1.28125-1.39453125,1.6640625s-1.30371094.57421875-2.10546875.57421875c-.78417969,0-1.47851562-.19238281-2.08496094-.578125-.60644531-.38476562-1.07617188-.93359375-1.41210938-1.64648438-.33398438-.71386719-.50683594-1.54003906-.515625-2.47851562v-.71777344c0-.95703125.16601562-1.80273438.49902344-2.53613281s.80371094-1.29492188,1.41113281-1.68554688c.609375-.38867188,1.3046875-.58398438,2.08886719-.58398438.79785156,0,1.50097656.19238281,2.10839844.578125.609375.38476562,1.07714844.94335938,1.40527344,1.67382812.328125.73242188.4921875,1.58300781.4921875,2.55371094v.62890625ZM72.49924499,141.53544755c0-1.18066406-.23730469-2.0859375-.7109375-2.71777344-.47363281-.63085938-1.13671875-.94628906-1.98925781-.94628906-.82910156,0-1.48242188.31542969-1.95800781.94628906-.4765625.63183594-.72167969,1.5078125-.73535156,2.62890625v.73144531c0,1.14355469.24023438,2.04296875.72167969,2.69628906.48046875.65429688,1.14257812.98144531,1.98535156.98144531.84765625,0,1.50390625-.30859375,1.96875-.92675781.46484375-.6171875.70410156-1.50195312.71777344-2.65527344v-.73828125Z"/>
      <path class="cls-9" d="M78.95432311,149.49540849h-3.90136719v-.66601562l1.93261719-2.10742188c.27929688-.31152344.47753906-.57128906.59570312-.77929688.11816406-.20898438.17773438-.41796875.17773438-.62792969,0-.27636719-.078125-.49902344-.23339844-.66992188-.15527344-.16992188-.36425781-.25488281-.62792969-.25488281-.31347656,0-.55664062.09570312-.72851562.28710938-.17285156.19140625-.25976562.453125-.25976562.78515625h-.96777344c0-.35351562.08007812-.671875.24023438-.95410156.16113281-.28320312.390625-.50292969.68945312-.66015625.29980469-.15625.64453125-.23535156,1.03417969-.23535156.56347656,0,1.0078125.14160156,1.33398438.42480469.32519531.28320312.48828125.67382812.48828125,1.17382812,0,.2890625-.08203125.59277344-.24511719.91015625-.1640625.31835938-.43164062.67871094-.80371094,1.08203125l-1.41894531,1.51855469h2.69433594v.7734375Z"/>
      <path class="cls-9" d="M83.28342467,146.97001787c-1.00292969,0-1.81835938-.32910156-2.44726562-.98828125-.62890625-.65820312-.94335938-1.5390625-.94335938-2.64160156v-.23242188c0-.73339844.13964844-1.38867188.42089844-1.96582031.27929688-.57617188.671875-1.02734375,1.17578125-1.35351562.50292969-.32519531,1.04882812-.48828125,1.63671875-.48828125.96191406,0,1.70898438.31640625,2.2421875.95019531s.79980469,1.54003906.79980469,2.72070312v.52636719h-5.01074219c.01855469.72949219.23144531,1.31835938.63867188,1.76757812.40820312.44824219.92675781.67285156,1.55566406.67285156.44628906,0,.82519531-.09082031,1.13476562-.2734375s.58105469-.42382812.81347656-.72460938l.77246094.6015625c-.62011719.95214844-1.54980469,1.42871094-2.7890625,1.42871094ZM83.12619811,140.33915849c-.51074219,0-.93847656.18554688-1.28515625.55664062-.34667969.37207031-.56054688.89257812-.64257812,1.5625h3.70507812v-.09570312c-.03613281-.64257812-.20996094-1.140625-.51953125-1.49414062-.30957031-.35253906-.72949219-.52929688-1.2578125-.52929688Z"/>
      <path class="cls-9" d="M87.32346374,143.07353349c0-1.16210938.26660156-2.08203125.79980469-2.7578125.53320312-.67773438,1.24902344-1.015625,2.14648438-1.015625.875,0,1.56542969.29394531,2.07128906.88183594l.0546875-.74511719h1.16210938v10.24023438h-1.26464844v-3.52734375c-.51074219.546875-1.18945312.8203125-2.03710938.8203125-.89355469,0-1.60546875-.34765625-2.13671875-1.04296875-.53027344-.69433594-.79589844-1.61621094-.79589844-2.76464844v-.08886719ZM88.58811217,143.21708818c0,.84765625.17871094,1.51269531.53710938,1.99609375.35742188.48339844.83886719.72460938,1.4453125.72460938.75195312,0,1.32617188-.33300781,1.72265625-.99804688v-3.62304688c-.40136719-.65136719-.97070312-.97753906-1.70898438-.97753906-.61035156,0-1.09570312.2421875-1.45605469.72851562-.36035156.484375-.54003906,1.20117188-.54003906,2.14941406Z"/>
    </g>
    <g>
      <path class="cls-9" d="M194.58274108,143.49052568h1.38085938v1.03222656h-1.38085938v2.31054688h-1.27148438v-2.31054688h-4.53222656v-.74511719l4.45703125-6.89746094h1.34667969v6.61035156ZM190.21457702,143.49052568h3.09667969v-4.88085938l-.15039062.2734375-2.94628906,4.60742188Z"/>
      <path class="cls-9" d="M197.1940692,148.81572099l-.71777344-.4921875c.42871094-.59667969.65136719-1.21191406.66992188-1.84570312v-1.14160156h1.23730469v.99121094c0,.45996094-.11328125.92089844-.33789062,1.38085938-.2265625.45996094-.50976562.82910156-.8515625,1.10742188Z"/>
      <path class="cls-9" d="M206.09445983,142.58818193c0,1.48144531-.25292969,2.58203125-.75878906,3.30175781s-1.296875,1.08007812-2.37207031,1.08007812c-1.06152344,0-1.84765625-.3515625-2.35839844-1.05664062-.51074219-.703125-.77441406-1.75488281-.79296875-3.15429688v-1.68847656c0-1.46289062.25292969-2.54980469.75878906-3.26074219s1.29882812-1.06640625,2.37890625-1.06640625c1.07128906,0,1.859375.34277344,2.36523438,1.02929688.50585938.68554688.765625,1.74414062.77929688,3.17480469v1.640625ZM204.82981139,140.85868974c0-1.07128906-.15039062-1.8515625-.45117188-2.34179688-.30078125-.48925781-.77734375-.734375-1.42871094-.734375-.64746094,0-1.11914062.24414062-1.41503906.73144531s-.44921875,1.23730469-.45800781,2.24902344v2.0234375c0,1.07519531.15625,1.86914062.46875,2.3828125.31152344.51171875.78417969.76855469,1.41796875.76855469.62402344,0,1.08789062-.24121094,1.390625-.72460938.30371094-.48339844.46191406-1.24414062.47558594-2.28320312v-2.07128906Z"/>
      <path class="cls-9" d="M214.23606139,146.83329912h-6.52148438v-.90917969l3.4453125-3.828125c.51074219-.57910156.86230469-1.04980469,1.05566406-1.41113281.19433594-.36328125.29101562-.73730469.29101562-1.125,0-.51953125-.15722656-.9453125-.47167969-1.27832031s-.73339844-.49902344-1.2578125-.49902344c-.62890625,0-1.11816406.17871094-1.46582031.53710938-.34960938.35742188-.5234375.85546875-.5234375,1.49316406h-1.26464844c0-.91601562.29492188-1.65625.88574219-2.22167969.58984375-.56542969,1.37890625-.84765625,2.36816406-.84765625.92480469,0,1.65625.2421875,2.19433594.72851562.53808594.484375.80664062,1.13085938.80664062,1.9375,0,.97949219-.62402344,2.14648438-1.87304688,3.5l-2.66601562,2.89160156h4.99707031v1.03222656Z"/>
      <path class="cls-9" d="M221.06516295,136.88017412l3.25390625,8.12109375,3.25390625-8.12109375h1.70214844v9.953125h-1.3125v-3.87597656l.12304688-4.18359375-3.26757812,8.05957031h-1.00488281l-3.26074219-8.0390625.12988281,4.16308594v3.87597656h-1.3125v-9.953125h1.6953125Z"/>
      <path class="cls-9" d="M233.11008483,137.64579912v1.79101562h1.38085938v.97753906h-1.38085938v4.59277344c0,.296875.06152344.51855469.18457031.66699219s.33300781.22265625.62890625.22265625c.14550781,0,.34667969-.02734375.6015625-.08203125v1.01953125c-.33300781.09082031-.65625.13574219-.97070312.13574219-.56542969,0-.99121094-.17089844-1.27832031-.51269531s-.43066406-.82714844-.43066406-1.45605469v-4.58691406h-1.34667969v-.97753906h1.34667969v-1.79101562h1.26464844Z"/>
      <path class="cls-9" d="M246.95285827,143.67509599c-.12304688,1.05273438-.51171875,1.86523438-1.16601562,2.4375-.65332031.57128906-1.52246094.85742188-2.60742188.85742188-1.17578125,0-2.11816406-.421875-2.82617188-1.26464844-.70898438-.84277344-1.06347656-1.97070312-1.06347656-3.38378906v-.95703125c0-.92480469.16503906-1.73828125.49511719-2.44042969.33105469-.70214844.79882812-1.24121094,1.40527344-1.61621094.60644531-.37695312,1.30761719-.56445312,2.10546875-.56445312,1.05761719,0,1.90527344.29492188,2.54296875.88476562.63769531.59082031,1.00976562,1.40722656,1.11425781,2.45117188h-1.31933594c-.11425781-.79492188-.36132812-1.37109375-.74121094-1.72753906-.38085938-.35644531-.91308594-.53515625-1.59667969-.53515625-.83886719,0-1.49609375.31054688-1.97167969.93066406-.4765625.62011719-.71484375,1.50292969-.71484375,2.64746094v.96484375c0,1.08105469.22558594,1.94042969.67675781,2.57910156s1.08203125.95800781,1.89355469.95800781c.72949219,0,1.2890625-.16503906,1.67773438-.49511719.390625-.33105469.6484375-.90625.77636719-1.7265625h1.31933594Z"/>
      <path class="cls-9" d="M256.40012389,142.17802568c0,.97558594-.1640625,1.82617188-.4921875,2.55371094-.328125.7265625-.79296875,1.28125-1.39453125,1.6640625s-1.30371094.57421875-2.10546875.57421875c-.78417969,0-1.47851562-.19238281-2.08496094-.578125-.60644531-.38476562-1.07617188-.93359375-1.41210938-1.64648438-.33398438-.71386719-.50683594-1.54003906-.515625-2.47851562v-.71777344c0-.95703125.16601562-1.80273438.49902344-2.53613281s.80371094-1.29492188,1.41113281-1.68554688c.609375-.38867188,1.3046875-.58398438,2.08886719-.58398438.79785156,0,1.50097656.19238281,2.10839844.578125.609375.38476562,1.07714844.94335938,1.40527344,1.67382812.328125.73242188.4921875,1.58300781.4921875,2.55371094v.62890625ZM255.09445983,141.53544755c0-1.18066406-.23730469-2.0859375-.7109375-2.71777344-.47363281-.63085938-1.13671875-.94628906-1.98925781-.94628906-.82910156,0-1.48242188.31542969-1.95800781.94628906-.4765625.63183594-.72167969,1.5078125-.73535156,2.62890625v.73144531c0,1.14355469.24023438,2.04296875.72167969,2.69628906.48046875.65429688,1.14257812.98144531,1.98535156.98144531.84765625,0,1.50390625-.30859375,1.96875-.92675781.46484375-.6171875.70410156-1.50195312.71777344-2.65527344v-.73828125Z"/>
      <path class="cls-9" d="M261.54953795,149.49540849h-3.90136719v-.66601562l1.93261719-2.10742188c.27929688-.31152344.47753906-.57128906.59570312-.77929688.11816406-.20898438.17773438-.41796875.17773438-.62792969,0-.27636719-.078125-.49902344-.23339844-.66992188-.15527344-.16992188-.36425781-.25488281-.62792969-.25488281-.31347656,0-.55664062.09570312-.72851562.28710938-.17285156.19140625-.25976562.453125-.25976562.78515625h-.96777344c0-.35351562.08007812-.671875.24023438-.95410156.16113281-.28320312.390625-.50292969.68945312-.66015625.29980469-.15625.64453125-.23535156,1.03417969-.23535156.56347656,0,1.0078125.14160156,1.33398438.42480469.32519531.28320312.48828125.67382812.48828125,1.17382812,0,.2890625-.08203125.59277344-.24511719.91015625-.1640625.31835938-.43164062.67871094-.80371094,1.08203125l-1.41894531,1.51855469h2.69433594v.7734375Z"/>
      <path class="cls-9" d="M265.87863952,146.97001787c-1.00292969,0-1.81835938-.32910156-2.44726562-.98828125-.62890625-.65820312-.94335938-1.5390625-.94335938-2.64160156v-.23242188c0-.73339844.13964844-1.38867188.42089844-1.96582031.27929688-.57617188.671875-1.02734375,1.17578125-1.35351562.50292969-.32519531,1.04882812-.48828125,1.63671875-.48828125.96191406,0,1.70898438.31640625,2.2421875.95019531s.79980469,1.54003906.79980469,2.72070312v.52636719h-5.01074219c.01855469.72949219.23144531,1.31835938.63867188,1.76757812.40820312.44824219.92675781.67285156,1.55566406.67285156.44628906,0,.82519531-.09082031,1.13476562-.2734375s.58105469-.42382812.81347656-.72460938l.77246094.6015625c-.62011719.95214844-1.54980469,1.42871094-2.7890625,1.42871094ZM265.72141295,140.33915849c-.51074219,0-.93847656.18554688-1.28515625.55664062-.34667969.37207031-.56054688.89257812-.64257812,1.5625h3.70507812v-.09570312c-.03613281-.64257812-.20996094-1.140625-.51953125-1.49414062-.30957031-.35253906-.72949219-.52929688-1.2578125-.52929688Z"/>
      <path class="cls-9" d="M269.91867858,143.07353349c0-1.16210938.26660156-2.08203125.79980469-2.7578125.53320312-.67773438,1.24902344-1.015625,2.14648438-1.015625.875,0,1.56542969.29394531,2.07128906.88183594l.0546875-.74511719h1.16210938v10.24023438h-1.26464844v-3.52734375c-.51074219.546875-1.18945312.8203125-2.03710938.8203125-.89355469,0-1.60546875-.34765625-2.13671875-1.04296875-.53027344-.69433594-.79589844-1.61621094-.79589844-2.76464844v-.08886719ZM271.18332702,143.21708818c0,.84765625.17871094,1.51269531.53710938,1.99609375.35742188.48339844.83886719.72460938,1.4453125.72460938.75195312,0,1.32617188-.33300781,1.72265625-.99804688v-3.62304688c-.40136719-.65136719-.97070312-.97753906-1.70898438-.97753906-.61035156,0-1.09570312.2421875-1.45605469.72851562-.36035156.484375-.54003906,1.20117188-.54003906,2.14941406Z"/>
    </g>
    <g>
      <path class="cls-9" d="M378.6681903,146.51298662h-1.27148438v-8.42871094l-2.54980469.93652344v-1.1484375l3.62304688-1.36035156h.19824219v10.00097656Z"/>
      <path class="cls-9" d="M382.46213561,148.49540849l-.71777344-.4921875c.42871094-.59667969.65136719-1.21191406.66992188-1.84570312v-1.14160156h1.23730469v.99121094c0,.45996094-.11328125.92089844-.33789062,1.38085938-.2265625.45996094-.50976562.82910156-.8515625,1.10742188Z"/>
      <path class="cls-9" d="M385.70236999,141.52275224l.50585938-4.96289062h5.09960938v1.16894531h-4.02636719l-.30078125,2.71386719c.48730469-.28710938,1.04101562-.43066406,1.66113281-.43066406.90722656,0,1.62695312.29980469,2.16015625.89941406.53320312.59863281.79980469,1.40917969.79980469,2.4296875,0,1.02539062-.27636719,1.83300781-.83105469,2.42382812-.55273438.58984375-1.32714844.88476562-2.3203125.88476562-.87988281,0-1.59765625-.24414062-2.15332031-.73144531s-.87304688-1.16210938-.95019531-2.0234375h1.19628906c.07714844.56933594.28027344.99902344.60839844,1.28808594.328125.29003906.76074219.43457031,1.29882812.43457031.58789062,0,1.04882812-.20019531,1.38476562-.6015625.33398438-.40136719.50195312-.95507812.50195312-1.66113281,0-.66503906-.18164062-1.19921875-.54296875-1.60351562-.36328125-.40234375-.84472656-.60449219-1.44628906-.60449219-.55175781,0-.984375.12109375-1.29882812.36230469l-.33496094.2734375-1.01171875-.25976562Z"/>
      <path class="cls-9" d="M399.5041278,146.51298662h-6.52148438v-.90917969l3.4453125-3.828125c.51074219-.57910156.86230469-1.04980469,1.05566406-1.41113281.19433594-.36328125.29101562-.73730469.29101562-1.125,0-.51953125-.15722656-.9453125-.47167969-1.27832031s-.73339844-.49902344-1.2578125-.49902344c-.62890625,0-1.11816406.17871094-1.46582031.53710938-.34960938.35742188-.5234375.85546875-.5234375,1.49316406h-1.26464844c0-.91601562.29492188-1.65625.88574219-2.22167969.58984375-.56542969,1.37890625-.84765625,2.36816406-.84765625.92480469,0,1.65625.2421875,2.19433594.72851562.53808594.484375.80664062,1.13085938.80664062,1.9375,0,.97949219-.62402344,2.14648438-1.87304688,3.5l-2.66601562,2.89160156h4.99707031v1.03222656Z"/>
      <path class="cls-9" d="M406.33322936,136.55986162l3.25390625,8.12109375,3.25390625-8.12109375h1.70214844v9.953125h-1.3125v-3.87597656l.12304688-4.18359375-3.26757812,8.05957031h-1.00488281l-3.26074219-8.0390625.12988281,4.16308594v3.87597656h-1.3125v-9.953125h1.6953125Z"/>
      <path class="cls-9" d="M418.37815124,137.32548662v1.79101562h1.38085938v.97753906h-1.38085938v4.59277344c0,.296875.06152344.51855469.18457031.66699219s.33300781.22265625.62890625.22265625c.14550781,0,.34667969-.02734375.6015625-.08203125v1.01953125c-.33300781.09082031-.65625.13574219-.97070312.13574219-.56542969,0-.99121094-.17089844-1.27832031-.51269531s-.43066406-.82714844-.43066406-1.45605469v-4.58691406h-1.34667969v-.97753906h1.34667969v-1.79101562h1.26464844Z"/>
    </g>
  </g>
</svg>