<?xml version="1.0" encoding="UTF-8"?><svg xmlns="http://www.w3.org/2000/svg" viewBox="0 0 440 388.62"><defs><style>.h,.i,.j,.k{fill:none;}.h,.k,.l,.m{stroke-linecap:round;stroke-width:.75px;}.h,.l,.m{stroke:#666c80;stroke-linejoin:round;}.n,.l{fill:#fff;}.o{fill:#a1abb3;}.p{fill:#666c80;}.q{fill:#cacde3;}.r{fill:#3e4d59;}.s{fill:#959cc7;}.t{fill:#5b6872;}.u{fill:#2b3990;}.v{fill:#4c5c68;}.w{fill:#606060;}.x{fill:#606bac;}.i{stroke:#b8c3cc;stroke-width:.47px;}.i,.j,.k{stroke-miterlimit:10;}.j{stroke:#606060;}.y{opacity:.7;}.k{stroke:#4c5c68;}.m{fill:#eff0f2;}</style></defs><g id="a"><rect class="n" x="-.52" width="440" height="388.62"/></g><g id="g"><path class="i" d="m6.08,317.9h315.03"/><path class="i" d="m6.08,271.07h315.03"/><path class="i" d="m6.08,224.24h315.03"/><path class="i" d="m6.08,177.41h315.03"/><path class="i" d="m6.08,130.58h315.03"/><rect class="q" x="63.95" y="119.18" width="50" height="158.93"/><rect class="s" x="63.95" y="278.11" width="50" height="29.49"/><rect class="x" x="63.95" y="307.6" width="50" height="10.3"/><rect class="q" x="161.73" y="129.24" width="50" height="147.23"/><rect class="s" x="161.73" y="276.47" width="50" height="28.55"/><rect class="x" x="161.73" y="305.03" width="50" height="12.87"/><rect class="q" x="259.5" y="173.01" width="50" height="113.99"/><rect class="s" x="259.5" y="287" width="50" height="21.54"/><rect class="x" x="259.5" y="308.54" width="50" height="9.36"/><path class="o" d="m6.68,123.4l4.14-6.41h1.25v6.13h1.29v.96h-1.29v2.15h-1.17v-2.15h-4.21v-.69Zm1.33-.27h2.88v-4.54l-.15.26-2.74,4.28Z"/><path class="o" d="m20.22,120.88v1.41c0,1.52-.26,2.57-.78,3.17-.52.6-1.23.9-2.13.9s-1.59-.3-2.13-.9c-.53-.6-.8-1.66-.8-3.17v-1.41c0-1.51.26-2.56.79-3.14s1.24-.87,2.12-.87,1.61.29,2.14.87c.53.58.79,1.63.79,3.14Zm-1.18,1.6v-1.8c0-1.04-.15-1.78-.44-2.21s-.73-.65-1.3-.65-.99.22-1.29.65c-.3.43-.45,1.17-.45,2.21v1.8c0,1.03.15,1.78.45,2.23.3.46.73.69,1.29.69s1.01-.23,1.3-.69c.29-.46.44-1.2.44-2.23Z"/><path class="o" d="m29.51,126.24l-.06-.74c-.47.58-1.12.86-1.96.86s-1.46-.33-1.96-.99c-.5-.66-.75-1.49-.75-2.49v-.13c0-1.05.25-1.9.75-2.54.5-.64,1.15-.96,1.97-.96s1.44.27,1.9.81v-3.57h1.18v9.75h-1.08Zm-3.54-3.36c0,.68.14,1.27.43,1.75.29.49.75.73,1.38.73.41,0,.74-.09,1-.28.26-.19.47-.43.62-.72v-3.16c-.15-.28-.36-.52-.62-.7-.26-.18-.59-.28-.99-.28-.64,0-1.1.25-1.39.75-.29.5-.44,1.09-.44,1.77v.13Z"/><path class="o" d="m35.26,120.23c-.38,0-.71.1-1,.3s-.51.47-.68.79v4.91h-1.17v-6.87h1.11l.04.86c.52-.66,1.2-.98,2.05-.98.68,0,1.21.19,1.61.57.4.38.59,1.02.59,1.92v4.5h-1.18v-4.51c0-.54-.12-.92-.35-1.15-.23-.23-.57-.34-1.02-.34Z"/><path class="o" d="m39.64,118.36l1.23-1.87h1.42l-1.7,1.87h-.95Zm1.21,1v6.87h-1.17v-6.87h1.17Z"/><path class="o" d="m6.7,135.94v-.97h5.21v.83l-3.82,5.07h4.01v.96h-5.45v-.86l3.78-5.03h-3.73Z"/><path class="o" d="m17.67,141.84c-.08-.17-.13-.41-.17-.72-.22.23-.5.43-.83.6s-.71.25-1.13.25c-.7,0-1.27-.2-1.69-.59s-.63-.88-.63-1.45c0-.74.28-1.3.84-1.68s1.31-.57,2.25-.57h1.16v-.55c0-.41-.12-.73-.36-.97-.24-.24-.6-.37-1.08-.37-.44,0-.8.11-1.08.33-.27.22-.41.47-.41.76h-1.17c0-.49.25-.95.74-1.38s1.16-.65,1.99-.65c.74,0,1.36.19,1.83.57s.72.96.72,1.73v3.2c0,.23.02.47.06.73.04.26.1.48.18.67v.1h-1.23Zm-1.95-.9c.42,0,.79-.11,1.1-.32.31-.21.53-.45.66-.71v-1.42h-.97c-1.4,0-2.1.42-2.1,1.27,0,.33.11.6.33.83s.55.34.98.34Z"/><path class="o" d="m26.47,135.97c-.4,0-.73.09-.99.27s-.45.42-.58.72v4.88h-1.17v-6.87h1.14l.03.79c.17-.28.39-.5.66-.67.27-.17.59-.25.97-.25.22,0,.39.03.52.09v1.09c-.18-.03-.37-.05-.58-.05Z"/><path class="o" d="m27.69,138.48v-.15c0-1,.28-1.83.84-2.49.56-.67,1.32-1,2.28-1s1.73.33,2.29,1c.56.67.84,1.5.84,2.49v.15c0,1-.28,1.82-.84,2.49-.56.67-1.32,1-2.28,1s-1.73-.33-2.29-1c-.56-.66-.84-1.49-.84-2.49Zm1.17-.15v.15c0,.68.16,1.27.49,1.77.32.5.81.75,1.47.75s1.13-.25,1.45-.75c.33-.5.49-1.09.49-1.77v-.15c0-.67-.16-1.26-.49-1.77-.33-.51-.81-.76-1.47-.76s-1.13.25-1.46.76c-.32.5-.49,1.09-.49,1.77Z"/><path class="o" d="m39.72,141.84l-2.38-3.19-.74.77v2.42h-1.18v-9.75h1.18v5.89l.63-.75,2.13-2.26h1.43l-2.68,2.86,2.99,4.01h-1.38Z"/><path class="o" d="m12.91,309.65v1.41c0,1.52-.26,2.57-.78,3.17-.52.6-1.23.9-2.13.9s-1.59-.3-2.13-.9c-.53-.6-.8-1.66-.8-3.17v-1.41c0-1.51.26-2.56.79-3.14s1.24-.87,2.12-.87,1.61.29,2.14.87c.53.58.79,1.63.79,3.14Zm-1.18,1.6v-1.8c0-1.04-.15-1.78-.44-2.21s-.73-.65-1.3-.65-.99.22-1.29.65c-.3.43-.45,1.17-.45,2.21v1.8c0,1.03.15,1.78.45,2.23.3.46.73.69,1.29.69s1.01-.23,1.3-.69c.29-.46.44-1.2.44-2.23Z"/><path class="o" d="m10.97,256.61v9.29h-1.17v-7.83l-2.37.86v-1.06l3.36-1.27h.18Z"/><path class="o" d="m20.22,260.55v1.41c0,1.51-.26,2.57-.78,3.17-.52.6-1.23.9-2.13.9s-1.59-.3-2.13-.9c-.53-.6-.8-1.66-.8-3.17v-1.41c0-1.51.26-2.56.79-3.14.53-.58,1.24-.87,2.12-.87s1.61.29,2.14.87c.53.58.79,1.63.79,3.14Zm-1.18,1.6v-1.8c0-1.04-.15-1.78-.44-2.21s-.73-.65-1.3-.65-.99.22-1.29.65c-.3.43-.45,1.17-.45,2.21v1.8c0,1.03.15,1.78.45,2.23.3.46.73.69,1.29.69s1.01-.23,1.3-.69c.29-.46.44-1.2.44-2.23Z"/><path class="o" d="m13.17,218.88v.96h-6.05v-.84l3.03-3.37c.56-.62.94-1.11,1.13-1.47.19-.36.29-.72.29-1.08,0-.45-.14-.84-.42-1.16-.28-.32-.68-.48-1.19-.48-.62,0-1.08.18-1.38.53-.3.35-.46.8-.46,1.35h-1.17c0-.78.26-1.45.77-2.01s1.26-.84,2.25-.84c.87,0,1.55.23,2.05.68.49.45.74,1.05.74,1.79,0,.55-.17,1.1-.51,1.65-.34.55-.75,1.09-1.22,1.6l-2.48,2.68h4.63Z"/><path class="o" d="m20.22,214.49v1.41c0,1.52-.26,2.57-.78,3.17-.52.6-1.23.9-2.13.9s-1.59-.3-2.13-.9c-.53-.6-.8-1.66-.8-3.17v-1.41c0-1.51.26-2.56.79-3.14s1.24-.87,2.12-.87,1.61.29,2.14.87c.53.58.79,1.63.79,3.14Zm-1.18,1.6v-1.8c0-1.04-.15-1.78-.44-2.21s-.73-.65-1.3-.65-.99.22-1.29.65c-.3.43-.45,1.17-.45,2.21v1.8c0,1.03.15,1.78.45,2.23.3.46.73.69,1.29.69s1.01-.23,1.3-.69c.29-.46.44-1.2.44-2.23Z"/><path class="o" d="m9.66,169.56h-.84v-.96h.84c.61,0,1.07-.15,1.37-.45s.45-.68.45-1.13c0-1.08-.54-1.62-1.61-1.62-.5,0-.9.14-1.21.43-.31.29-.46.67-.46,1.15h-1.17c0-.71.26-1.31.78-1.8.52-.5,1.21-.74,2.07-.74s1.51.22,2.02.66c.51.44.77,1.09.77,1.95,0,.34-.12.71-.35,1.1-.23.39-.6.69-1.11.91.61.2,1.03.51,1.26.92s.34.83.34,1.25c0,.86-.28,1.53-.84,2s-1.25.7-2.09.7-1.49-.22-2.07-.67c-.58-.45-.86-1.08-.86-1.9h1.17c0,.49.16.88.47,1.17.32.29.74.44,1.29.44s.96-.14,1.28-.43.47-.71.47-1.29-.18-1-.53-1.27c-.36-.27-.83-.41-1.43-.41Z"/><path class="o" d="m20.22,168.44v1.41c0,1.52-.26,2.57-.78,3.17-.52.6-1.23.9-2.13.9s-1.59-.3-2.13-.9-.8-1.66-.8-3.17v-1.41c0-1.51.26-2.56.79-3.14.53-.58,1.24-.87,2.12-.87s1.61.29,2.14.87c.53.58.79,1.63.79,3.14Zm-1.18,1.6v-1.8c0-1.04-.15-1.78-.44-2.21s-.73-.65-1.3-.65-.99.22-1.29.65c-.3.43-.45,1.17-.45,2.21v1.8c0,1.03.15,1.78.45,2.23.3.46.73.69,1.29.69s1.01-.23,1.3-.69c.29-.46.44-1.2.44-2.23Z"/><path d="m2.09,11.1h2.5l1.07,5.63c.17.87.37,2.33.49,3.31h.07c.12-.99.32-2.45.49-3.31l1.07-5.63h2.5l-2.82,11.9h-2.55l-2.82-11.9Z"/><path d="m14.84,19.46l-2.8-8.36h2.5l.97,3.3c.12.39.39,1.33.51,1.9h.07c.14-.58.41-1.51.54-1.96l.94-3.25h2.5l-2.81,8.36v3.54h-2.41v-3.54Zm1.63-11.83h1.92l-1.92,2.33h-1.6l1.6-2.33Z"/><path d="m21.76,23.39c1.31,0,2.04-.48,2.04-2.21v-10.08h2.41v10.1c0,2.69-1.5,4.4-4.45,4.4v-2.21Z"/><path d="m29.97,11.1h2.41v11.9h-2.41v-11.9Z"/><path d="m46.42,11.1v11.9h-2.36v-2.92c.07-1.44.12-2.89.19-4.33l-.09-.03-1.07,3.13-.59,1.61h-2.38l-.59-1.61-1.07-3.13-.08.03c.05,1.44.12,2.89.17,4.33v2.92h-2.35v-11.9h2.43l1.87,4.5c.24.59.65,1.63.78,2.07h.07c.14-.44.54-1.48.78-2.07l1.87-4.5h2.43Z"/><path d="m56.54,20.7v2.29h-6.31v-11.9h6.14v2.29h-3.72v2.46h3.38v2.21h-3.38v2.63h3.89Z"/><path d="m67.06,19.36c-.05,2.5-1.43,3.84-3.84,3.84s-3.67-1.34-3.67-3.84v-4.62c0-2.52,1.36-3.88,3.69-3.88s3.71,1.36,3.79,3.88h-2.41c-.07-1.09-.48-1.53-1.39-1.53-.73,0-1.16.48-1.16,1.53v4.62c0,1.02.41,1.5,1.16,1.5.93,0,1.36-.44,1.43-1.5h2.41Zm-4.76-9.4l-1.38-2.33h1.51l.75,1.14.73-1.14h1.51l-1.38,2.33h-1.75Z"/><path d="m70.15,11.1h2.38l2.26,5.17c.29.75.56,1.53.85,2.28l.05-.05c-.2-1.5-.34-3.54-.34-4.64v-2.75h2.38v11.9h-2.38l-2.01-4.61-1.07-2.91-.05.05c.19,1.5.31,3.72.31,5.05v2.41h-2.38v-11.9Z"/><path d="m87.85,20.7v2.29h-6.31v-11.9h6.14v2.29h-3.72v2.46h3.38v2.21h-3.38v2.63h3.89Zm-4.01-10.74l-1.38-2.33h1.51l.75,1.14.73-1.14h1.51l-1.38,2.33h-1.75Z"/><path d="m95.96,19.36v-4.62c0-2.52,1.36-3.88,3.69-3.88s3.71,1.36,3.79,3.88h-2.41c-.07-1.09-.48-1.53-1.39-1.53-.73,0-1.16.48-1.16,1.53v4.62c0,1.02.41,1.5,1.16,1.5.93,0,1.36-.44,1.43-1.5h2.41c-.05,2.5-1.43,3.84-3.84,3.84s-3.67-1.34-3.67-3.84Z"/><path d="m113.88,11.1v11.9h-2.43v-4.84h-2.45v4.84h-2.43v-11.9h2.43v4.76h2.45v-4.76h2.43Z"/><path d="m123.63,20.7v2.29h-5.95v-11.9h2.41v9.6h3.54Z"/><path d="m130.89,21.03h-2.52l-.39,1.97h-2.5l2.86-11.9h2.58l2.86,11.9h-2.5l-.39-1.97Zm-.48-2.29l-.27-1.36c-.15-.85-.36-2.29-.48-3.26h-.07c-.12.97-.31,2.41-.48,3.26l-.27,1.36h1.56Z"/><path d="m136.59,11.1h3.26c2.4,0,3.81,1.46,3.81,3.94v3.93c0,2.53-1.39,4.03-3.77,4.03h-3.3v-11.9Zm3.3,9.6c.87,0,1.33-.59,1.33-1.73v-3.93c0-1.09-.46-1.65-1.33-1.65h-.88v7.31h.88Z"/><path d="m147.13,11.1h2.38l2.26,5.17c.29.75.56,1.53.85,2.28l.05-.05c-.2-1.5-.34-3.54-.34-4.64v-2.75h2.38v11.9h-2.38l-2.01-4.61-1.07-2.91-.05.05c.19,1.5.31,3.72.31,5.05v2.41h-2.38v-11.9Z"/><path d="m160.27,19.46l-2.8-8.36h2.5l.97,3.3c.12.39.39,1.33.51,1.9h.07c.14-.58.41-1.51.54-1.96l.94-3.25h2.5l-2.81,8.36v3.54h-2.41v-3.54Zm1.63-11.83h1.92l-1.92,2.33h-1.6l1.6-2.33Z"/><path d="m167.9,19.36v-4.62c0-2.52,1.36-3.88,3.69-3.88s3.71,1.36,3.79,3.88h-2.41c-.07-1.09-.48-1.53-1.39-1.53-.73,0-1.16.48-1.16,1.53v4.62c0,1.02.41,1.5,1.16,1.5.93,0,1.36-.44,1.43-1.5h2.41c-.05,2.5-1.43,3.84-3.84,3.84s-3.67-1.34-3.67-3.84Z"/><path d="m185.82,11.1v11.9h-2.43v-4.84h-2.45v4.84h-2.43v-11.9h2.43v4.76h2.45v-4.76h2.43Z"/><path d="m194.73,11.1h3.26c2.4,0,3.81,1.46,3.81,3.94v3.93c0,2.53-1.39,4.03-3.77,4.03h-3.3v-11.9Zm3.3,9.6c.87,0,1.33-.59,1.33-1.73v-3.93c0-1.09-.46-1.65-1.33-1.65h-.88v7.31h.88Z"/><path d="m205.27,11.1h2.38l2.26,5.17c.29.75.56,1.53.85,2.28l.05-.05c-.2-1.5-.34-3.54-.34-4.64v-2.75h2.38v11.9h-2.38l-2.01-4.61-1.07-2.91-.05.05c.19,1.5.31,3.72.31,5.05v2.41h-2.38v-11.9Z"/><path d="m216.66,11.1h2.41v11.9h-2.41v-11.9Zm1.65-3.47h1.92l-1.92,2.33h-1.6l1.6-2.33Z"/><path d="m227.78,19.21v-8.11h2.46v8.11c0,1.07.43,1.65,1.27,1.65s1.27-.58,1.27-1.65v-8.11h2.46v8.11c0,2.5-1.39,3.99-3.74,3.99s-3.74-1.5-3.74-3.99Z"/><path d="m246.12,19.44c0,2.12-1.46,3.55-3.5,3.55h-3.76v-11.9h3.71c1.84,0,3.14,1.36,3.14,3.38,0,.9-.37,1.85-1,2.43.88.51,1.41,1.46,1.41,2.53Zm-4.84-6.07v2.48h.95c.68,0,1.04-.44,1.04-1.27s-.34-1.21-1.12-1.21h-.87Zm2.36,6.05c0-.87-.49-1.31-1.39-1.31h-.97v2.6h.92c.95,0,1.44-.44,1.44-1.29Z"/><path d="m250.67,19.46l-2.8-8.36h2.5l.97,3.3c.12.39.39,1.33.51,1.9h.07c.14-.58.41-1.51.54-1.96l.94-3.25h2.5l-2.81,8.36v3.54h-2.41v-3.54Zm1.63-11.83h1.92l-1.92,2.33h-1.6l1.6-2.33Z"/><path d="m257.64,11.1h2.5l1.07,5.63c.17.87.37,2.33.49,3.31h.07c.12-.99.32-2.45.49-3.31l1.07-5.63h2.5l-2.82,11.9h-2.55l-2.82-11.9Z"/><path d="m272.47,21.03h-2.52l-.39,1.97h-2.5l2.86-11.9h2.58l2.86,11.9h-2.5l-.39-1.97Zm-.83-11.07h-1.6l1.6-2.33h1.92l-1.92,2.33Zm.36,8.77l-.27-1.36c-.15-.85-.36-2.29-.48-3.26h-.07c-.12.97-.31,2.41-.48,3.26l-.27,1.36h1.56Z"/><path class="p" d="m6.86,39.85h-2.35v3.9h-1.32v-9.95h3.67c1.13,0,2,.29,2.59.85s.9,1.3.9,2.18c0,.96-.3,1.7-.9,2.23s-1.46.79-2.59.79Zm-2.35-4.97v3.9h2.35c.77,0,1.33-.18,1.67-.54s.51-.82.51-1.39c0-.51-.17-.97-.51-1.37s-.89-.6-1.67-.6h-2.35Z"/><path class="p" d="m14.78,37.44c-.43,0-.79.1-1.07.29-.28.19-.49.45-.62.78v5.25h-1.26v-7.4h1.23l.03.85c.19-.3.42-.54.71-.72s.64-.27,1.04-.27c.24,0,.42.03.56.1v1.18c-.19-.04-.4-.05-.62-.05Z"/><path class="p" d="m21.16,43.75l-.03-.73c-.23.27-.52.49-.88.64-.36.15-.78.23-1.29.23-.72,0-1.31-.21-1.76-.64s-.67-1.13-.67-2.12v-4.77h1.26v4.79c0,.67.14,1.11.42,1.34.28.23.59.34.94.34.52,0,.93-.1,1.24-.29s.54-.46.69-.78v-5.39h1.27v7.4h-1.21Zm-3.14-9.71c0-.39.14-.73.42-1s.63-.42,1.05-.42.76.14,1.05.42.42.61.42,1-.14.73-.42,1-.63.4-1.05.4-.77-.13-1.05-.4-.42-.6-.42-1Zm.68,0c0,.2.07.38.22.54.15.16.34.24.57.24s.42-.08.57-.24c.15-.16.22-.34.22-.55s-.07-.4-.22-.56c-.15-.16-.34-.24-.57-.24s-.42.08-.57.24c-.15.16-.22.35-.22.56Z"/><path class="p" d="m27.25,37.29c-.45,0-.81.1-1.09.29s-.48.44-.62.76v5.42h-1.27v-7.4h1.2l.03.81c.53-.63,1.26-.94,2.19-.94.47,0,.9.09,1.27.28.37.19.66.49.85.91.25-.36.57-.64.96-.86s.86-.33,1.39-.33c.79,0,1.4.21,1.84.64s.65,1.1.65,2.04v4.86h-1.27v-4.87c0-.62-.14-1.04-.43-1.26-.28-.22-.67-.33-1.15-.33-.51,0-.91.15-1.2.46-.29.3-.46.67-.51,1.1v4.91h-1.26v-4.87c0-.58-.14-.99-.43-1.23-.29-.24-.67-.37-1.15-.37Z"/><path class="p" d="m42.42,42.46c-.24.36-.58.69-1.03.99-.44.29-1.03.44-1.76.44-1.03,0-1.85-.33-2.47-1s-.93-1.53-.93-2.57v-.29c0-.81.15-1.49.46-2.06.31-.57.71-1,1.2-1.3.49-.3,1.02-.45,1.57-.45,1.06,0,1.83.35,2.31,1.04.49.69.73,1.55.73,2.59v.57h-5c.02.68.22,1.26.6,1.73.39.48.92.71,1.59.71.45,0,.82-.09,1.13-.27s.58-.43.81-.73l.77.61Zm-3.99-9.2l1.03,1.16,1.03-1.16h1.09v.07l-1.74,1.87h-.78l-1.71-1.87v-.07h1.07Zm1.05,4c-.5,0-.93.18-1.27.55s-.56.89-.65,1.57h3.7v-.1c-.03-.49-.17-.95-.43-1.38s-.7-.64-1.35-.64Z"/><path class="p" d="m46.95,37.44c-.43,0-.79.1-1.07.29-.28.19-.49.45-.62.78v5.25h-1.26v-7.4h1.23l.03.85c.19-.3.42-.54.71-.72s.64-.27,1.04-.27c.24,0,.42.03.56.1v1.18c-.19-.04-.4-.05-.62-.05Z"/><path class="p" d="m51.81,37.29c-.41,0-.76.11-1.07.33s-.55.5-.73.85v5.28h-1.26v-7.4h1.2l.04.92c.56-.71,1.3-1.06,2.21-1.06.73,0,1.31.21,1.73.62s.64,1.1.64,2.07v4.85h-1.27v-4.86c0-.58-.13-.99-.38-1.24s-.62-.37-1.1-.37Z"/><path class="p" d="m58.99,44.89c-.09.24-.22.51-.4.8-.17.29-.4.54-.69.74s-.66.31-1.1.31c-.1,0-.23-.01-.39-.04-.15-.02-.26-.05-.32-.07v-1.03c.09.02.21.03.33.03.43,0,.76-.09,1-.26.24-.18.44-.49.59-.95l.27-.75-2.64-7.31h1.38l1.85,5.54,1.72-5.54h1.35l-2.97,8.54Zm-.71-9.63l1.33-2.01h1.52l-1.83,2.01h-1.02Z"/><path class="p" d="m69.94,43.89c-.89,0-1.59-.29-2.11-.85v3.56h-1.27v-10.24h1.16l.06.81c.52-.63,1.23-.95,2.14-.95s1.65.35,2.15,1.04.75,1.6.75,2.73v.14c0,1.08-.25,1.98-.75,2.69s-1.21,1.07-2.12,1.07Zm-.39-6.6c-.43,0-.78.1-1.06.29-.28.19-.5.44-.66.73v3.54c.17.29.39.53.67.72.28.19.63.28,1.07.28.68,0,1.18-.27,1.5-.81s.48-1.17.48-1.91v-.14c0-.73-.16-1.37-.48-1.9-.32-.54-.82-.8-1.51-.8Z"/><path class="p" d="m74.09,40.14v-.16c0-1.07.3-1.96.9-2.68.6-.72,1.42-1.08,2.45-1.08s1.87.36,2.47,1.08c.6.72.91,1.61.91,2.68v.16c0,1.07-.3,1.96-.91,2.68s-1.42,1.07-2.46,1.07-1.86-.36-2.46-1.07-.91-1.61-.91-2.68Zm1.26-.16v.16c0,.73.17,1.37.52,1.91s.88.81,1.58.81,1.21-.27,1.57-.81.53-1.17.53-1.91v-.16c0-.72-.18-1.36-.53-1.9-.35-.54-.88-.82-1.58-.82s-1.22.27-1.57.82c-.35.54-.52,1.18-.52,1.9Z"/><path class="p" d="m85.37,42.85c.45,0,.85-.13,1.19-.4s.53-.61.56-1.03h1.2c-.03.66-.33,1.24-.91,1.73-.57.5-1.25.74-2.04.74-1.11,0-1.94-.37-2.48-1.1s-.81-1.6-.81-2.59v-.29c0-.99.27-1.86.81-2.59s1.37-1.1,2.48-1.1c.87,0,1.57.26,2.1.77.53.51.82,1.15.85,1.91h-1.2c-.03-.46-.2-.84-.52-1.16s-.72-.48-1.23-.48-.93.13-1.22.4-.5.6-.62,1-.18.82-.18,1.25v.29c0,.43.06.85.18,1.26s.32.74.62,1c.29.26.7.39,1.23.39Zm-1.32-9.59l1.03,1.16,1.03-1.16h1.09v.07l-1.74,1.87h-.78l-1.71-1.87v-.07h1.07Z"/><path class="p" d="m95.59,42.46c-.24.36-.58.69-1.03.99-.44.29-1.03.44-1.76.44-1.03,0-1.85-.33-2.47-1s-.93-1.53-.93-2.57v-.29c0-.81.15-1.49.46-2.06.31-.57.71-1,1.2-1.3.49-.3,1.02-.45,1.57-.45,1.06,0,1.83.35,2.31,1.04.49.69.73,1.55.73,2.59v.57h-5c.02.68.22,1.26.6,1.73.39.48.92.71,1.59.71.45,0,.82-.09,1.13-.27s.58-.43.81-.73l.77.61Zm-2.95-5.2c-.5,0-.93.18-1.27.55s-.56.89-.65,1.57h3.7v-.1c-.03-.49-.17-.95-.43-1.38s-.7-.64-1.35-.64Z"/><path class="p" d="m100.29,43.75c-.1.03-.23.06-.39.09-.16.03-.36.04-.58.04-.47,0-.87-.14-1.2-.43s-.5-.8-.5-1.54v-4.59h-1.35v-.97h1.35v-1.8h1.26v1.8h1.38v.97h-1.38v4.59c0,.38.08.62.25.72s.35.16.57.16c.1,0,.22-.01.33-.03.12-.02.2-.04.26-.05v1.03Z"/><path class="p" d="m109.99,43.75l-.06-.79c-.51.62-1.21.93-2.11.93s-1.57-.36-2.11-1.07-.8-1.61-.8-2.69v-.14c0-1.13.27-2.04.8-2.73s1.24-1.04,2.12-1.04,1.55.29,2.05.88v-3.84h1.27v10.5h-1.16Zm-3.81-3.62c0,.73.15,1.36.46,1.89.31.53.81.79,1.49.79.44,0,.8-.1,1.08-.3s.5-.46.67-.77v-3.4c-.16-.31-.39-.56-.67-.76-.28-.2-.64-.3-1.07-.3-.69,0-1.19.27-1.5.8-.31.54-.47,1.17-.47,1.9v.14Z"/><path class="p" d="m116.18,37.29c-.41,0-.76.11-1.07.33s-.55.5-.73.85v5.28h-1.26v-7.4h1.2l.04.92c.56-.71,1.3-1.06,2.21-1.06.73,0,1.31.21,1.73.62s.64,1.1.64,2.07v4.85h-1.27v-4.86c0-.58-.13-.99-.38-1.24s-.62-.37-1.1-.37Z"/><path class="p" d="m120.9,35.28l1.33-2.01h1.52l-1.83,2.01h-1.02Zm1.31,1.08v7.4h-1.26v-7.4h1.26Z"/><path class="p" d="m133.35,36.36l-2.66,7.4h-.96l-2.68-7.4h1.3l1.88,5.67,1.83-5.67h1.29Z"/><path class="p" d="m140.99,37.44c-.43,0-.79.1-1.07.29-.28.19-.49.45-.62.78v5.25h-1.26v-7.4h1.23l.03.85c.19-.3.42-.54.71-.72s.64-.27,1.04-.27c.24,0,.42.03.56.1v1.18c-.19-.04-.4-.05-.62-.05Z"/><path class="p" d="m142.31,40.14v-.16c0-1.07.3-1.96.9-2.68.6-.72,1.42-1.08,2.45-1.08s1.87.36,2.47,1.08c.6.72.91,1.61.91,2.68v.16c0,1.07-.3,1.96-.91,2.68s-1.42,1.07-2.46,1.07-1.86-.36-2.46-1.07-.91-1.61-.91-2.68Zm1.26-.16v.16c0,.73.17,1.37.52,1.91s.88.81,1.58.81,1.21-.27,1.57-.81.53-1.17.53-1.91v-.16c0-.72-.18-1.36-.53-1.9-.35-.54-.88-.82-1.58-.82s-1.22.27-1.57.82c-.35.54-.52,1.18-.52,1.9Z"/><path class="p" d="m153.59,42.85c.45,0,.85-.13,1.19-.4s.53-.61.56-1.03h1.2c-.03.66-.33,1.24-.91,1.73-.57.5-1.25.74-2.04.74-1.11,0-1.94-.37-2.48-1.1s-.81-1.6-.81-2.59v-.29c0-.99.27-1.86.81-2.59s1.37-1.1,2.48-1.1c.87,0,1.57.26,2.1.77.53.51.82,1.15.85,1.91h-1.2c-.03-.46-.2-.84-.52-1.16s-.72-.48-1.23-.48-.93.13-1.22.4-.5.6-.62,1-.18.82-.18,1.25v.29c0,.43.06.85.18,1.26s.32.74.62,1c.29.26.7.39,1.23.39Z"/><path class="p" d="m163.81,42.46c-.24.36-.58.69-1.03.99-.44.29-1.03.44-1.76.44-1.03,0-1.85-.33-2.47-1s-.93-1.53-.93-2.57v-.29c0-.81.15-1.49.46-2.06.31-.57.71-1,1.2-1.3.49-.3,1.02-.45,1.57-.45,1.06,0,1.83.35,2.31,1.04.49.69.73,1.55.73,2.59v.57h-5c.02.68.22,1.26.6,1.73.39.48.92.71,1.59.71.45,0,.82-.09,1.13-.27s.58-.43.81-.73l.77.61Zm-2.95-5.2c-.5,0-.93.18-1.27.55s-.56.89-.65,1.57h3.7v-.1c-.03-.49-.17-.95-.43-1.38s-.7-.64-1.35-.64Z"/><path class="p" d="m166.53,42.25v1.02c0,.42-.1.85-.31,1.32-.21.46-.5.85-.88,1.16l-.72-.5c.21-.3.38-.61.5-.93.12-.32.18-.66.18-1.03v-1.04h1.24Z"/><path class="p" d="m177.17,36.36l-2.66,7.4h-.96l-2.68-7.4h1.3l1.88,5.67,1.83-5.67h1.29Z"/><path class="p" d="m184.15,42.46c-.24.36-.58.69-1.03.99-.44.29-1.03.44-1.76.44-1.03,0-1.85-.33-2.47-1s-.93-1.53-.93-2.57v-.29c0-.81.15-1.49.46-2.06.31-.57.71-1,1.2-1.3.49-.3,1.02-.45,1.57-.45,1.06,0,1.83.35,2.31,1.04.49.69.73,1.55.73,2.59v.57h-5c.02.68.22,1.26.6,1.73.39.48.92.71,1.59.71.45,0,.82-.09,1.13-.27s.58-.43.81-.73l.77.61Zm-2.95-5.2c-.5,0-.93.18-1.27.55s-.56.89-.65,1.57h3.7v-.1c-.03-.49-.17-.95-.43-1.38s-.7-.64-1.35-.64Z"/><path class="p" d="m193.83,43.75l-2.56-3.43-.8.83v2.6h-1.27v-10.5h1.27v6.34l.68-.81,2.3-2.43h1.54l-2.88,3.08,3.22,4.31h-1.49Z"/><path class="p" d="m199.42,43.75c-.1.03-.23.06-.39.09-.16.03-.36.04-.58.04-.47,0-.87-.14-1.2-.43s-.5-.8-.5-1.54v-4.59h-1.35v-.97h1.35v-1.8h1.26v1.8h1.38v.97h-1.38v4.59c0,.38.08.62.25.72s.35.16.57.16c.1,0,.22-.01.33-.03.12-.02.2-.04.26-.05v1.03Z"/><path class="p" d="m206.72,42.46c-.24.36-.58.69-1.03.99-.44.29-1.03.44-1.76.44-1.03,0-1.85-.33-2.47-1s-.93-1.53-.93-2.57v-.29c0-.81.15-1.49.46-2.06.31-.57.71-1,1.2-1.3.49-.3,1.02-.45,1.57-.45,1.06,0,1.83.35,2.31,1.04.49.69.73,1.55.73,2.59v.57h-5c.02.68.22,1.26.6,1.73.39.48.92.71,1.59.71.45,0,.82-.09,1.13-.27s.58-.43.81-.73l.77.61Zm-2.95-5.2c-.5,0-.93.18-1.27.55s-.56.89-.65,1.57h3.7v-.1c-.03-.49-.17-.95-.43-1.38s-.7-.64-1.35-.64Z"/><path class="p" d="m211.25,37.44c-.43,0-.79.1-1.07.29-.28.19-.49.45-.62.78v5.25h-1.26v-7.4h1.23l.03.85c.19-.3.42-.54.71-.72s.64-.27,1.04-.27c.24,0,.42.03.56.1v1.18c-.19-.04-.4-.05-.62-.05Z"/><path class="p" d="m215.68,44.89c-.09.24-.22.51-.4.8-.17.29-.4.54-.69.74s-.66.31-1.1.31c-.1,0-.23-.01-.39-.04-.15-.02-.26-.05-.32-.07v-1.03c.09.02.21.03.33.03.43,0,.76-.09,1-.26.24-.18.44-.49.59-.95l.27-.75-2.64-7.31h1.38l1.85,5.54,1.72-5.54h1.35l-2.97,8.54Zm-.71-9.63l1.33-2.01h1.52l-1.83,2.01h-1.02Z"/><path class="p" d="m222.66,42.85c.45,0,.85-.13,1.19-.4s.53-.61.56-1.03h1.2c-.03.66-.33,1.24-.91,1.73-.57.5-1.25.74-2.04.74-1.11,0-1.94-.37-2.48-1.1s-.81-1.6-.81-2.59v-.29c0-.99.27-1.86.81-2.59s1.37-1.1,2.48-1.1c.87,0,1.57.26,2.1.77.53.51.82,1.15.85,1.91h-1.2c-.03-.46-.2-.84-.52-1.16s-.72-.48-1.23-.48-.93.13-1.22.4-.5.6-.62,1-.18.82-.18,1.25v.29c0,.43.06.85.18,1.26s.32.74.62,1c.29.26.7.39,1.23.39Z"/><path class="p" d="m230.09,37.29c-.41,0-.76.11-1.07.33s-.55.5-.73.85v5.28h-1.26v-10.5h1.26v3.99c.56-.68,1.29-1.02,2.18-1.02.73,0,1.31.21,1.73.62s.64,1.1.64,2.07v4.85h-1.27v-4.86c0-.58-.13-.99-.38-1.24s-.62-.37-1.1-.37Z"/><path class="p" d="m244.47,40.14c0,1.08-.25,1.98-.75,2.69s-1.21,1.07-2.13,1.07-1.65-.33-2.16-.99l-.07.85h-1.16v-10.5h1.27v3.9c.5-.62,1.2-.94,2.11-.94s1.64.35,2.14,1.04.75,1.6.75,2.73v.14Zm-3.21-2.85c-.46,0-.83.11-1.12.33-.29.22-.51.49-.67.82v3.22c.16.33.39.6.68.83s.67.33,1.12.33c.68,0,1.17-.26,1.47-.79.3-.53.45-1.16.45-1.89v-.14c0-.73-.14-1.37-.43-1.9-.28-.54-.79-.8-1.51-.8Z"/><path class="p" d="m248.52,44.89c-.09.24-.22.51-.4.8-.17.29-.4.54-.69.74s-.66.31-1.1.31c-.1,0-.23-.01-.39-.04-.15-.02-.26-.05-.32-.07v-1.03c.09.02.21.03.33.03.43,0,.76-.09,1-.26.24-.18.44-.49.59-.95l.27-.75-2.64-7.31h1.38l1.85,5.54,1.72-5.54h1.35l-2.97,8.54Z"/><path class="p" d="m253.99,33.25v10.5h-1.27v-10.5h1.27Z"/><path class="p" d="m255.69,40.14v-.16c0-1.07.3-1.96.9-2.68.6-.72,1.42-1.08,2.45-1.08s1.87.36,2.47,1.08c.6.72.91,1.61.91,2.68v.16c0,1.07-.3,1.96-.91,2.68s-1.42,1.07-2.46,1.07-1.86-.36-2.46-1.07-.91-1.61-.91-2.68Zm1.26-.16v.16c0,.73.17,1.37.52,1.91s.88.81,1.58.81,1.21-.27,1.57-.81.53-1.17.53-1.91v-.16c0-.72-.18-1.36-.53-1.9-.35-.54-.88-.82-1.58-.82s-1.22.27-1.57.82c-.35.54-.52,1.18-.52,1.9Z"/><path class="p" d="m267.15,40.14v-.16c0-1.07.3-1.96.9-2.68.6-.72,1.42-1.08,2.45-1.08s1.87.36,2.47,1.08c.6.72.91,1.61.91,2.68v.16c0,1.07-.3,1.96-.91,2.68s-1.42,1.07-2.46,1.07-1.86-.36-2.46-1.07-.91-1.61-.91-2.68Zm1.26-.16v.16c0,.73.17,1.37.52,1.91s.88.81,1.58.81,1.21-.27,1.57-.81.53-1.17.53-1.91v-.16c0-.72-.18-1.36-.53-1.9-.35-.54-.88-.82-1.58-.82s-1.22.27-1.57.82c-.35.54-.52,1.18-.52,1.9Z"/><path class="p" d="m284.5,36.36l-2.66,7.4h-.96l-2.68-7.4h1.3l1.88,5.67,1.83-5.67h1.29Z"/><path class="p" d="m285.78,35.28l1.33-2.01h1.52l-1.83,2.01h-1.02Zm1.31,1.08v7.4h-1.26v-7.4h1.26Z"/><path class="p" d="m292.14,42.85c.45,0,.85-.13,1.19-.4s.53-.61.56-1.03h1.2c-.03.66-.33,1.24-.91,1.73-.57.5-1.25.74-2.04.74-1.11,0-1.94-.37-2.48-1.1s-.81-1.6-.81-2.59v-.29c0-.99.27-1.86.81-2.59s1.37-1.1,2.48-1.1c.87,0,1.57.26,2.1.77.53.51.82,1.15.85,1.91h-1.2c-.03-.46-.2-.84-.52-1.16s-.72-.48-1.23-.48-.93.13-1.22.4-.5.6-.62,1-.18.82-.18,1.25v.29c0,.43.06.85.18,1.26s.32.74.62,1c.29.26.7.39,1.23.39Z"/><path class="p" d="m302.36,42.46c-.24.36-.58.69-1.03.99-.44.29-1.03.44-1.76.44-1.03,0-1.85-.33-2.47-1s-.93-1.53-.93-2.57v-.29c0-.81.15-1.49.46-2.06.31-.57.71-1,1.2-1.3.49-.3,1.02-.45,1.57-.45,1.06,0,1.83.35,2.31,1.04.49.69.73,1.55.73,2.59v.57h-5c.02.68.22,1.26.6,1.73.39.48.92.71,1.59.71.45,0,.82-.09,1.13-.27s.58-.43.81-.73l.77.61Zm-2.95-5.2c-.5,0-.93.18-1.27.55s-.56.89-.65,1.57h3.7v-.1c-.03-.49-.17-.95-.43-1.38s-.7-.64-1.35-.64Z"/><path class="p" d="m310.48,37.29c-.41,0-.76.11-1.07.33s-.55.5-.73.85v5.28h-1.26v-7.4h1.2l.04.92c.56-.71,1.3-1.06,2.21-1.06.73,0,1.31.21,1.73.62s.64,1.1.64,2.07v4.85h-1.27v-4.86c0-.58-.13-.99-.38-1.24s-.62-.37-1.1-.37Z"/><path class="p" d="m320.99,42.46c-.24.36-.58.69-1.03.99-.44.29-1.03.44-1.76.44-1.03,0-1.85-.33-2.47-1s-.93-1.53-.93-2.57v-.29c0-.81.15-1.49.46-2.06.31-.57.71-1,1.2-1.3.49-.3,1.02-.45,1.57-.45,1.06,0,1.83.35,2.31,1.04.49.69.73,1.55.73,2.59v.57h-5c.02.68.22,1.26.6,1.73.39.48.92.71,1.59.71.45,0,.82-.09,1.13-.27s.58-.43.81-.73l.77.61Zm-2.95-5.2c-.5,0-.93.18-1.27.55s-.56.89-.65,1.57h3.7v-.1c-.03-.49-.17-.95-.43-1.38s-.7-.64-1.35-.64Z"/><path class="p" d="m322.26,37.4v-1.05h5.61v.9l-4.12,5.46h4.31v1.04h-5.87v-.93l4.07-5.42h-4.02Zm1.82-4.14l1.03,1.16,1.03-1.16h1.09v.07l-1.74,1.87h-.78l-1.71-1.87v-.07h1.07Z"/><path class="p" d="m334.45,39.02l-1.01-.26.5-4.96h5.11v1.17h-4.03l-.3,2.71c.18-.1.41-.2.69-.29s.6-.14.97-.14c.92,0,1.64.3,2.17.91.53.6.8,1.41.8,2.43,0,.95-.26,1.74-.78,2.37-.52.63-1.31.94-2.37.94-.81,0-1.5-.23-2.09-.68-.59-.45-.93-1.15-1.02-2.08h1.2c.16,1.14.8,1.72,1.91,1.72.6,0,1.06-.2,1.39-.61s.49-.96.49-1.65c0-.62-.17-1.15-.52-1.58-.34-.43-.83-.64-1.47-.64-.42,0-.75.06-.96.17s-.44.27-.66.46Z"/><path class="p" d="m342.86,35.43c0-.49.17-.91.52-1.25.34-.35.75-.52,1.23-.52s.88.17,1.21.52c.33.35.5.77.5,1.25s-.17.9-.5,1.24-.74.51-1.21.51-.88-.17-1.23-.51-.52-.76-.52-1.24Zm.85,0c0,.25.09.46.26.63s.39.25.63.25.45-.08.62-.25.25-.38.25-.63-.08-.47-.25-.64-.37-.26-.62-.26-.46.09-.63.26-.26.39-.26.64Z"/><path class="p" d="m354.35,40.59h1.31c-.1.94-.46,1.73-1.07,2.36s-1.51.94-2.71.94-2.11-.42-2.82-1.26c-.71-.84-1.07-1.96-1.07-3.35v-.99c0-1.39.36-2.51,1.08-3.36s1.69-1.26,2.92-1.26c1.13,0,1.99.31,2.6.93s.96,1.42,1.06,2.4h-1.31c-.1-.69-.32-1.24-.67-1.64-.35-.4-.9-.61-1.67-.61-.88,0-1.55.32-2,.97s-.68,1.5-.68,2.56v1c0,.98.21,1.82.62,2.5.41.69,1.06,1.04,1.95,1.04.84,0,1.43-.2,1.77-.59s.57-.94.69-1.64Z"/><path class="p" d="m363.7,42.85c.45,0,.85-.13,1.19-.4.34-.27.53-.61.56-1.03h1.2c-.03.66-.33,1.24-.91,1.73-.57.5-1.25.74-2.04.74-1.11,0-1.94-.37-2.48-1.1-.54-.73-.81-1.6-.81-2.59v-.29c0-.99.27-1.86.81-2.59.54-.73,1.37-1.1,2.48-1.1.87,0,1.57.26,2.1.77.53.51.82,1.15.85,1.91h-1.2c-.03-.46-.2-.84-.52-1.16-.31-.32-.72-.48-1.23-.48s-.93.13-1.22.4c-.29.26-.5.6-.62,1-.12.41-.18.82-.18,1.25v.29c0,.43.06.85.18,1.26s.32.74.62,1c.29.26.7.39,1.23.39Z"/><path class="p" d="m371.13,37.29c-.41,0-.76.11-1.07.33s-.55.5-.73.85v5.28h-1.26v-10.5h1.26v3.99c.56-.68,1.29-1.02,2.18-1.02.73,0,1.31.21,1.73.62.43.41.64,1.1.64,2.07v4.85h-1.27v-4.86c0-.58-.13-.99-.38-1.24-.25-.25-.62-.37-1.1-.37Z"/><path class="p" d="m377.15,33.25v10.5h-1.27v-10.5h1.27Z"/><path class="p" d="m383.75,43.75c-.08-.18-.14-.44-.18-.78-.24.25-.53.47-.89.65-.36.18-.76.27-1.22.27-.76,0-1.36-.21-1.82-.64s-.68-.94-.68-1.56c0-.79.3-1.4.9-1.81.6-.41,1.41-.62,2.43-.62h1.25v-.59c0-.44-.13-.79-.39-1.05-.26-.26-.65-.39-1.17-.39-.48,0-.86.12-1.16.35-.29.23-.44.51-.44.82h-1.26c0-.53.27-1.03.8-1.49s1.25-.7,2.14-.7c.8,0,1.46.21,1.98.62s.77,1.03.77,1.86v3.45c0,.25.02.51.06.79.04.28.11.52.2.72v.11h-1.32Zm-2.1-.97c.46,0,.85-.11,1.19-.34.34-.23.57-.48.71-.76v-1.52h-1.05c-1.51,0-2.26.46-2.26,1.37,0,.35.12.65.36.89.24.24.59.37,1.06.37Z"/><path class="p" d="m391.57,43.75l-.06-.79c-.51.62-1.21.93-2.11.93s-1.57-.36-2.11-1.07c-.54-.71-.8-1.61-.8-2.69v-.14c0-1.13.27-2.04.8-2.73.54-.69,1.24-1.04,2.12-1.04s1.55.29,2.05.88v-3.84h1.27v10.5h-1.16Zm-3.81-3.62c0,.73.16,1.36.46,1.89.31.53.81.79,1.49.79.44,0,.8-.1,1.08-.3s.5-.46.67-.77v-3.4c-.16-.31-.39-.56-.67-.76-.28-.2-.64-.3-1.07-.3-.69,0-1.19.27-1.5.8-.31.54-.47,1.17-.47,1.9v.14Z"/><path class="p" d="m397.76,37.29c-.41,0-.76.11-1.07.33s-.55.5-.73.85v5.28h-1.26v-7.4h1.2l.04.92c.56-.71,1.3-1.06,2.21-1.06.73,0,1.31.21,1.73.62.43.41.64,1.1.64,2.07v4.85h-1.27v-4.86c0-.58-.13-.99-.38-1.24-.25-.25-.62-.37-1.1-.37Z"/><path class="p" d="m408.27,42.46c-.24.36-.58.69-1.03.99-.44.29-1.03.44-1.76.44-1.03,0-1.85-.33-2.47-1-.62-.67-.93-1.53-.93-2.57v-.29c0-.81.15-1.49.46-2.06.31-.57.71-1,1.2-1.3.49-.3,1.02-.45,1.57-.45,1.06,0,1.83.35,2.31,1.04.48.69.73,1.55.73,2.59v.57h-5c.02.68.22,1.26.6,1.73.39.48.92.71,1.59.71.45,0,.83-.09,1.13-.27s.58-.43.81-.73l.77.61Zm-3.99-9.2l1.03,1.16,1.03-1.16h1.09v.07l-1.74,1.87h-.78l-1.71-1.87v-.07h1.07Zm1.05,4c-.5,0-.92.18-1.27.55s-.56.89-.65,1.57h3.7v-.1c-.03-.49-.17-.95-.43-1.38-.25-.43-.7-.64-1.35-.64Z"/><path class="p" d="m409.88,36.36h1.27v8.28c0,1.4-.64,2.11-1.93,2.11-.28,0-.54-.04-.79-.12v-1.02c.18.04.37.06.59.06.28,0,.49-.08.64-.23.15-.16.22-.42.22-.8v-8.28Zm-.13-1.96c0-.21.06-.38.19-.52s.31-.21.55-.21.43.07.56.21.19.31.19.52-.06.36-.19.5c-.13.14-.31.21-.56.21s-.43-.07-.55-.21c-.13-.14-.19-.31-.19-.5Z"/><path class="p" d="m413.2,34.39c0-.21.06-.38.19-.52.13-.14.31-.21.56-.21s.43.07.56.21c.13.14.19.31.19.52s-.07.36-.19.5c-.13.14-.32.21-.56.21s-.43-.07-.56-.21c-.12-.14-.19-.31-.19-.5Zm1.37,1.96v7.4h-1.27v-7.4h1.27Z"/><path class="p" d="m2.66,56.94v-.16c0-1.07.3-1.96.9-2.68.6-.72,1.42-1.08,2.45-1.08s1.87.36,2.47,1.08c.6.72.91,1.61.91,2.68v.16c0,1.07-.3,1.96-.91,2.68s-1.42,1.07-2.46,1.07-1.86-.36-2.46-1.07-.91-1.61-.91-2.68Zm1.26-.16v.16c0,.73.17,1.37.52,1.91s.88.81,1.58.81,1.21-.27,1.57-.81.53-1.17.53-1.91v-.16c0-.72-.18-1.36-.53-1.9-.35-.54-.88-.82-1.58-.82s-1.22.27-1.57.82c-.35.54-.52,1.18-.52,1.9Z"/><path class="p" d="m14.36,60.69c-.89,0-1.59-.29-2.11-.85v3.56h-1.27v-10.24h1.16l.06.81c.52-.63,1.23-.95,2.14-.95s1.65.35,2.15,1.04.75,1.6.75,2.73v.14c0,1.08-.25,1.98-.75,2.69s-1.21,1.07-2.12,1.07Zm-.39-6.6c-.43,0-.78.1-1.06.29-.28.19-.5.44-.66.73v3.54c.17.29.39.53.67.72.28.19.63.28,1.07.28.68,0,1.18-.27,1.5-.81s.48-1.17.48-1.91v-.14c0-.73-.16-1.37-.48-1.9-.32-.54-.82-.8-1.51-.8Z"/><path class="p" d="m21.8,54.24c-.43,0-.79.1-1.07.29-.28.19-.49.45-.62.78v5.25h-1.26v-7.4h1.23l.03.85c.19-.3.42-.54.71-.72s.64-.27,1.04-.27c.24,0,.42.03.56.1v1.18c-.19-.04-.4-.05-.62-.05Z"/><path class="p" d="m23.12,56.94v-.16c0-1.07.3-1.96.9-2.68.6-.72,1.42-1.08,2.45-1.08s1.87.36,2.47,1.08c.6.72.91,1.61.91,2.68v.16c0,1.07-.3,1.96-.91,2.68s-1.42,1.07-2.46,1.07-1.86-.36-2.46-1.07-.91-1.61-.91-2.68Zm1.26-.16v.16c0,.73.17,1.37.52,1.91s.88.81,1.58.81,1.21-.27,1.57-.81.53-1.17.53-1.91v-.16c0-.72-.18-1.36-.53-1.9-.35-.54-.88-.82-1.58-.82s-1.22.27-1.57.82c-.35.54-.52,1.18-.52,1.9Z"/><path class="p" d="m34.57,60.55c-.1.03-.23.06-.39.09-.16.03-.36.04-.58.04-.47,0-.87-.14-1.2-.43s-.5-.8-.5-1.54v-4.59h-1.35v-.97h1.35v-1.8h1.26v1.8h1.38v.97h-1.38v4.59c0,.38.08.62.25.72s.35.16.57.16c.1,0,.22-.01.33-.03.12-.02.2-.04.26-.05v1.03Z"/><path class="p" d="m36.02,51.19c0-.21.06-.38.19-.52s.31-.21.56-.21.43.07.56.21.19.31.19.52-.06.36-.19.5c-.13.14-.32.21-.56.21s-.43-.07-.56-.21c-.13-.14-.19-.31-.19-.5Zm1.37,1.96v7.4h-1.27v-7.4h1.27Z"/><path class="p" d="m45.96,54.09c-.41,0-.76.11-1.07.33s-.55.5-.73.85v5.28h-1.26v-7.4h1.2l.04.92c.56-.71,1.3-1.06,2.21-1.06.73,0,1.31.21,1.73.62s.64,1.1.64,2.07v4.85h-1.27v-4.86c0-.58-.13-.99-.38-1.24s-.62-.37-1.1-.37Z"/><path class="p" d="m50.29,56.94v-.16c0-1.07.3-1.96.9-2.68.6-.72,1.42-1.08,2.45-1.08s1.87.36,2.47,1.08c.6.72.91,1.61.91,2.68v.16c0,1.07-.3,1.96-.91,2.68s-1.42,1.07-2.46,1.07-1.86-.36-2.46-1.07-.91-1.61-.91-2.68Zm1.26-.16v.16c0,.73.17,1.37.52,1.91s.88.81,1.58.81,1.21-.27,1.57-.81.53-1.17.53-1.91v-.16c0-.72-.18-1.36-.53-1.9-.35-.54-.88-.82-1.58-.82s-1.22.27-1.57.82c-.35.54-.52,1.18-.52,1.9Z"/><path class="p" d="m61.56,54.24c-.43,0-.79.1-1.07.29-.28.19-.49.45-.62.78v5.25h-1.26v-7.4h1.23l.03.85c.19-.3.42-.54.71-.72s.64-.27,1.04-.27c.24,0,.42.03.56.1v1.18c-.19-.04-.4-.05-.62-.05Z"/><path class="p" d="m66.31,54.09c-.45,0-.81.1-1.09.29s-.48.44-.62.76v5.42h-1.27v-7.4h1.2l.03.81c.53-.63,1.26-.94,2.19-.94.47,0,.9.09,1.27.28.37.19.66.49.85.91.25-.36.57-.64.96-.86s.86-.33,1.39-.33c.79,0,1.4.21,1.84.64s.65,1.1.65,2.04v4.86h-1.27v-4.87c0-.62-.14-1.04-.43-1.26-.28-.22-.67-.33-1.15-.33-.51,0-.91.15-1.2.46-.29.3-.46.67-.51,1.1v4.91h-1.26v-4.87c0-.58-.14-.99-.43-1.23-.29-.24-.67-.37-1.15-.37Z"/><path class="p" d="m80.2,60.55c-.08-.18-.14-.44-.18-.78-.24.25-.53.47-.89.65-.36.18-.76.27-1.22.27-.76,0-1.36-.21-1.82-.64s-.68-.94-.68-1.56c0-.79.3-1.4.9-1.81.6-.41,1.41-.62,2.43-.62h1.25v-.59c0-.44-.13-.79-.39-1.05-.26-.26-.65-.39-1.17-.39-.48,0-.86.12-1.16.35-.29.23-.44.51-.44.82h-1.26c0-.53.27-1.03.8-1.49s1.25-.7,2.14-.7c.8,0,1.46.21,1.98.62s.77,1.03.77,1.86v3.45c0,.25.02.51.06.79s.11.52.19.72v.11h-1.32Zm-2.1-.97c.46,0,.85-.11,1.19-.34s.57-.48.71-.76v-1.52h-1.05c-1.51,0-2.26.46-2.26,1.37,0,.35.12.65.36.89.24.24.59.37,1.06.37Zm-.15-7.52l1.33-2.01h1.52l-1.83,2.01h-1.02Z"/><path class="p" d="m84.62,50.05v10.5h-1.27v-10.5h1.27Z"/><path class="p" d="m91.24,60.55l-.03-.73c-.23.27-.52.49-.88.64-.36.15-.78.23-1.29.23-.72,0-1.31-.21-1.76-.64s-.67-1.13-.67-2.12v-4.77h1.26v4.79c0,.67.14,1.11.42,1.34.28.23.59.34.94.34.52,0,.93-.1,1.24-.29s.54-.46.69-.78v-5.39h1.27v7.4h-1.21Z"/><path class="p" d="m97.54,54.2v-1.05h5.61v.9l-4.12,5.46h4.31v1.04h-5.87v-.93l4.07-5.42h-4.02Z"/><path class="p" d="m107.92,56.94v-.16c0-1.07.3-1.96.9-2.68.6-.72,1.42-1.08,2.45-1.08s1.87.36,2.47,1.08c.6.72.91,1.61.91,2.68v.16c0,1.07-.3,1.96-.91,2.68s-1.42,1.07-2.46,1.07-1.86-.36-2.46-1.07-.91-1.61-.91-2.68Zm1.26-.16v.16c0,.73.17,1.37.52,1.91s.88.81,1.58.81,1.21-.27,1.57-.81.53-1.17.53-1.91v-.16c0-.72-.18-1.36-.53-1.9-.35-.54-.88-.82-1.58-.82s-1.22.27-1.57.82c-.35.54-.52,1.18-.52,1.9Z"/><path class="p" d="m122.5,56.94c0,1.08-.25,1.98-.75,2.69s-1.21,1.07-2.13,1.07-1.65-.33-2.16-.99l-.07.85h-1.16v-10.5h1.27v3.9c.5-.62,1.2-.94,2.11-.94s1.64.35,2.14,1.04.75,1.6.75,2.73v.14Zm-3.21-2.85c-.46,0-.83.11-1.12.33-.29.22-.51.49-.67.82v3.22c.16.33.39.6.68.83s.67.33,1.12.33c.68,0,1.17-.26,1.47-.79.3-.53.45-1.16.45-1.89v-.14c0-.73-.14-1.37-.43-1.9-.28-.54-.79-.8-1.51-.8Z"/><path class="p" d="m128.88,60.55l-.06-.79c-.51.62-1.21.93-2.11.93s-1.57-.36-2.11-1.07-.8-1.61-.8-2.69v-.14c0-1.13.27-2.04.8-2.73s1.24-1.04,2.12-1.04,1.55.29,2.05.88v-3.84h1.27v10.5h-1.16Zm-3.81-3.62c0,.73.15,1.36.46,1.89.31.53.81.79,1.49.79.44,0,.8-.1,1.08-.3s.5-.46.67-.77v-3.4c-.16-.31-.39-.56-.67-.76-.28-.2-.64-.3-1.07-.3-.69,0-1.19.27-1.5.8-.31.54-.47,1.17-.47,1.9v.14Z"/><path class="p" d="m131.66,56.94v-.16c0-1.07.3-1.96.9-2.68.6-.72,1.42-1.08,2.45-1.08s1.87.36,2.47,1.08c.6.72.91,1.61.91,2.68v.16c0,1.07-.3,1.96-.91,2.68s-1.42,1.07-2.46,1.07-1.86-.36-2.46-1.07-.91-1.61-.91-2.68Zm1.26-.16v.16c0,.73.17,1.37.52,1.91s.88.81,1.58.81,1.21-.27,1.57-.81.53-1.17.53-1.91v-.16c0-.72-.18-1.36-.53-1.9-.35-.54-.88-.82-1.58-.82s-1.22.27-1.57.82c-.35.54-.52,1.18-.52,1.9Z"/><path class="p" d="m146.25,56.94c0,1.08-.25,1.98-.75,2.69s-1.21,1.07-2.13,1.07-1.65-.33-2.16-.99l-.07.85h-1.16v-10.5h1.27v3.9c.5-.62,1.2-.94,2.11-.94s1.64.35,2.14,1.04.75,1.6.75,2.73v.14Zm-3.21-2.85c-.46,0-.83.11-1.12.33-.29.22-.51.49-.67.82v3.22c.16.33.39.6.68.83s.67.33,1.12.33c.68,0,1.17-.26,1.47-.79.3-.53.45-1.16.45-1.89v-.14c0-.73-.14-1.37-.43-1.9-.28-.54-.79-.8-1.51-.8Z"/><path class="p" d="m147.91,52.08l1.33-2.01h1.52l-1.83,2.01h-1.02Zm1.31,1.08v7.4h-1.26v-7.4h1.26Z"/><path class="p" d="m158.8,50.54v10.01h-1.26v-8.43l-2.55.93v-1.14l3.62-1.37h.2Z"/><path class="p" d="m168.63,54.95c0,.65-.06,1.3-.17,1.96-.11.66-.33,1.26-.65,1.82-.32.55-.8,1-1.43,1.34s-1.46.51-2.49.51h-.13v-1.07h.13c.92,0,1.62-.16,2.11-.47s.83-.73,1.03-1.23c.19-.51.3-1.05.32-1.62-.26.31-.58.57-.95.77s-.77.29-1.2.29c-.66,0-1.19-.16-1.61-.49s-.73-.75-.93-1.25c-.2-.51-.3-1.03-.3-1.58,0-.95.26-1.76.78-2.43.52-.67,1.29-1.01,2.31-1.01.76,0,1.37.2,1.84.59s.81.9,1.02,1.51.32,1.26.32,1.93v.46Zm-5.02-1.11c0,.59.15,1.13.45,1.61s.75.72,1.36.72c.43,0,.83-.13,1.18-.39s.61-.58.78-.96v-.5c0-.91-.19-1.6-.58-2.08s-.83-.72-1.34-.72c-.59,0-1.04.22-1.36.67-.32.44-.48,1-.48,1.66Z"/><path class="p" d="m176.75,57.31c0,.94-.26,1.74-.79,2.4s-1.29.98-2.3.98c-.72,0-1.31-.19-1.78-.57-.47-.38-.83-.86-1.06-1.45-.23-.59-.35-1.19-.35-1.8v-.59c0-.93.13-1.84.39-2.71s.74-1.58,1.43-2.14c.69-.56,1.67-.84,2.95-.84h.11v1.07h-.11c-.81,0-1.46.16-1.95.46s-.86.71-1.1,1.21c-.24.5-.38,1.02-.43,1.59.27-.31.59-.54.96-.68.37-.14.76-.22,1.18-.22.66,0,1.2.16,1.62.48s.73.73.93,1.23c.2.5.3,1.03.3,1.57Zm-5.02-.4c0,.88.2,1.56.59,2.03s.84.7,1.34.7c.58,0,1.04-.21,1.36-.64.32-.43.48-.97.48-1.64,0-.59-.15-1.12-.44-1.59s-.75-.7-1.37-.7c-.44,0-.84.13-1.2.4s-.61.59-.75.96v.48Z"/><path class="p" d="m182.41,50.54v10.01h-1.26v-8.43l-2.55.93v-1.14l3.62-1.37h.2Z"/><path class="p" d="m193.24,55.06v1.04h-6.85v-1.04h6.85Z"/><path class="p" d="m199.46,50.54v10.01h-1.26v-8.43l-2.55.93v-1.14l3.62-1.37h.2Z"/><path class="p" d="m209.29,54.95c0,.65-.06,1.3-.17,1.96-.11.66-.33,1.26-.65,1.82-.32.55-.8,1-1.43,1.34s-1.46.51-2.49.51h-.13v-1.07h.13c.92,0,1.62-.16,2.11-.47s.83-.73,1.03-1.23c.19-.51.3-1.05.32-1.62-.26.31-.58.57-.95.77s-.77.29-1.2.29c-.66,0-1.19-.16-1.61-.49s-.73-.75-.93-1.25c-.2-.51-.3-1.03-.3-1.58,0-.95.26-1.76.78-2.43.52-.67,1.29-1.01,2.31-1.01.76,0,1.37.2,1.84.59s.81.9,1.02,1.51.32,1.26.32,1.93v.46Zm-5.02-1.11c0,.59.15,1.13.45,1.61s.75.72,1.36.72c.43,0,.83-.13,1.18-.39s.61-.58.78-.96v-.5c0-.91-.19-1.6-.58-2.08s-.83-.72-1.34-.72c-.59,0-1.04.22-1.36.67-.32.44-.48,1-.48,1.66Z"/><path class="p" d="m217.31,57.86c0,.91-.3,1.61-.91,2.1s-1.36.73-2.25.73-1.64-.24-2.25-.73-.91-1.19-.91-2.1c0-.56.15-1.05.45-1.47.3-.43.7-.75,1.21-.97-.44-.21-.79-.52-1.05-.91s-.39-.83-.39-1.32c0-.87.28-1.54.83-2.02s1.25-.71,2.1-.71,1.56.24,2.11.71.83,1.15.83,2.02c0,.49-.13.93-.4,1.32-.26.39-.62.69-1.06.91.52.22.93.54,1.23.97s.46.92.46,1.47Zm-1.27-.03c0-.56-.18-1.01-.53-1.36s-.81-.53-1.38-.53-1.04.18-1.38.53-.51.8-.51,1.36.17,1.02.51,1.34.8.48,1.39.48,1.05-.16,1.39-.48.51-.77.51-1.34Zm-.23-4.62c0-.5-.15-.91-.46-1.23-.31-.32-.71-.48-1.21-.48s-.9.15-1.2.46c-.31.31-.46.72-.46,1.25s.15.93.46,1.24.71.46,1.21.46.9-.16,1.21-.46.46-.72.46-1.24Z"/><path class="p" d="m225.16,54.78v1.52c0,1.63-.28,2.77-.84,3.42s-1.33.97-2.29.97-1.72-.32-2.29-.97-.86-1.79-.86-3.42v-1.52c0-1.63.28-2.75.85-3.38.57-.63,1.33-.94,2.28-.94s1.73.31,2.3.94c.57.63.85,1.75.85,3.38Zm-1.27,1.72v-1.93c0-1.12-.16-1.91-.48-2.38s-.79-.7-1.4-.7-1.06.23-1.38.7-.48,1.26-.48,2.38v1.93c0,1.11.16,1.91.49,2.41s.79.74,1.39.74,1.09-.25,1.4-.74.47-1.29.47-2.41Z"/><path class="p" d="m226.94,59.88c0-.21.07-.4.2-.54.13-.15.33-.22.58-.22s.45.07.58.22c.13.15.2.33.2.54s-.07.39-.2.53-.33.22-.58.22-.45-.07-.58-.22-.2-.32-.2-.53Z"/><path class="r" d="m174.3,119.06l3.85-6.09h1.85v5.76h1.05v1.48h-1.05v2h-1.83v-2h-3.79l-.08-1.16Zm1.82-.32h2.05v-3.28l-.13.22-1.92,3.06Z"/><path class="r" d="m188.26,116.78v1.61c0,1.39-.29,2.4-.86,3.02s-1.32.93-2.25.93-1.69-.31-2.26-.93c-.58-.62-.87-1.63-.87-3.02v-1.61c0-1.39.29-2.39.86-3.01.57-.62,1.33-.93,2.26-.93s1.68.31,2.26.93c.58.62.86,1.62.86,3.01Zm-1.83,1.85v-2.11c0-.82-.11-1.39-.34-1.72-.22-.32-.54-.49-.95-.49s-.72.16-.95.49c-.22.32-.34.9-.34,1.72v2.11c0,.83.11,1.4.34,1.73.23.33.54.5.96.5s.72-.17.94-.5c.22-.33.33-.91.33-1.73Z"/><path class="r" d="m191.3,120.65v1.25c0,.48-.12.96-.36,1.44-.24.48-.53.88-.9,1.19l-.95-.5c.16-.29.31-.59.45-.89.14-.31.21-.69.21-1.15v-1.34h1.55Z"/><path class="r" d="m195.52,118.21h-.98v-1.44h.98c.46,0,.81-.12,1.03-.35.23-.23.34-.54.34-.93,0-.34-.1-.62-.31-.85-.21-.22-.52-.33-.94-.33-.33,0-.63.09-.87.28-.25.19-.37.44-.37.77h-1.83c0-.76.29-1.37.88-1.83.59-.46,1.3-.69,2.15-.69.94,0,1.69.22,2.27.67.58.45.87,1.1.87,1.96,0,.4-.12.78-.37,1.14-.25.36-.59.65-1.04.85.52.18.9.46,1.16.83.26.37.39.81.39,1.32,0,.87-.31,1.54-.94,2.01-.62.47-1.4.71-2.34.71-.52,0-1.02-.1-1.5-.29-.48-.19-.87-.48-1.18-.87-.31-.39-.46-.89-.46-1.5h1.84c0,.34.13.63.38.85.26.22.58.33.97.33.44,0,.78-.12,1.02-.35.25-.23.37-.54.37-.92,0-.49-.14-.84-.41-1.06s-.64-.32-1.1-.32Z"/><path class="r" d="m275.2,160.84h-.98v-1.44h.98c.46,0,.81-.12,1.03-.35.23-.23.34-.54.34-.93,0-.34-.1-.62-.31-.85-.21-.22-.52-.33-.94-.33-.33,0-.63.09-.87.28-.25.19-.37.44-.37.77h-1.83c0-.76.29-1.37.88-1.83.59-.46,1.3-.69,2.15-.69.93,0,1.69.22,2.27.67.58.45.87,1.1.87,1.96,0,.4-.12.78-.37,1.14-.25.36-.59.65-1.04.85.52.18.9.46,1.16.83.26.37.39.81.39,1.32,0,.87-.31,1.54-.94,2.01s-1.4.71-2.34.71c-.52,0-1.02-.1-1.5-.29-.48-.19-.87-.48-1.18-.87-.31-.39-.46-.89-.46-1.5h1.84c0,.34.13.63.38.85.26.22.58.33.97.33.44,0,.78-.12,1.02-.35.25-.23.37-.54.37-.92,0-.49-.13-.84-.41-1.06-.27-.21-.64-.32-1.1-.32Z"/><path class="r" d="m286.03,159.4v1.61c0,1.39-.29,2.4-.86,3.02s-1.32.93-2.25.93-1.68-.31-2.26-.93c-.58-.62-.87-1.63-.87-3.02v-1.61c0-1.39.29-2.39.86-3.01.57-.62,1.33-.93,2.26-.93s1.68.31,2.26.93c.58.62.86,1.62.86,3.01Zm-1.83,1.85v-2.11c0-.82-.11-1.39-.34-1.72-.22-.32-.54-.49-.95-.49s-.72.16-.95.49c-.22.32-.34.9-.34,1.72v2.11c0,.83.11,1.4.34,1.73s.54.5.96.5.72-.17.94-.5c.22-.33.33-.91.33-1.73Z"/><path class="r" d="m289.08,163.27v1.25c0,.48-.12.96-.36,1.44-.24.48-.53.88-.9,1.19l-.95-.5c.16-.29.31-.59.45-.9.14-.31.21-.69.21-1.15v-1.34h1.55Z"/><path class="r" d="m296.6,159.87c0,1.52-.39,2.74-1.17,3.67-.78.93-1.96,1.39-3.54,1.39h-.15v-1.54h.12c.93,0,1.63-.19,2.09-.58.46-.39.72-.95.8-1.68-.22.21-.47.38-.76.51s-.6.2-.92.2c-.87,0-1.53-.3-2-.89-.46-.59-.7-1.34-.7-2.22s.28-1.67.84-2.31c.56-.64,1.31-.96,2.26-.96s1.71.35,2.28,1.04c.57.69.85,1.6.85,2.74v.63Zm-4.41-1.16c0,.47.11.88.32,1.22s.55.51.99.51c.3,0,.56-.08.77-.23.22-.15.38-.34.48-.56v-.74c0-.66-.12-1.15-.38-1.47-.25-.32-.56-.49-.93-.49-.4,0-.71.18-.93.54-.22.36-.33.77-.33,1.22Z"/><path class="r" d="m74.91,88.31l3.85-6.09h1.85v5.76h1.05v1.48h-1.05v2h-1.83v-2h-3.79l-.08-1.16Zm1.82-.32h2.05v-3.28l-.13.22-1.92,3.06Z"/><path class="r" d="m88.98,89.98v1.48h-6.33v-1.26l2.99-3.19c.45-.5.77-.91.94-1.23.17-.32.26-.62.26-.89,0-.41-.1-.73-.31-.97-.21-.24-.5-.36-.89-.36-.44,0-.77.15-1,.44s-.35.67-.35,1.12h-1.83c0-.83.29-1.55.86-2.15s1.36-.9,2.35-.9,1.71.23,2.23.7c.52.47.77,1.11.77,1.92,0,.62-.19,1.21-.56,1.76-.37.56-.87,1.15-1.48,1.79l-1.64,1.72h3.97Z"/><path class="r" d="m91.91,89.9v1.25c0,.48-.12.96-.36,1.44-.24.48-.53.88-.9,1.19l-.95-.5c.16-.29.31-.59.45-.9.14-.31.21-.69.21-1.15v-1.34h1.55Z"/><path class="r" d="m95.02,87.27l-1.46-.36.53-4.7h5.18v1.52h-3.67l-.23,1.99c.12-.07.31-.14.55-.23.25-.08.52-.12.83-.12.9,0,1.59.27,2.08.82.49.55.74,1.31.74,2.29,0,.82-.25,1.54-.76,2.16s-1.29.93-2.36.93c-.8,0-1.52-.24-2.15-.71s-.96-1.14-.98-1.99h1.82c.08.82.51,1.23,1.3,1.23.46,0,.79-.17.99-.5.2-.33.3-.74.3-1.22s-.12-.88-.36-1.18c-.24-.3-.62-.45-1.12-.45-.33,0-.59.05-.77.16-.18.11-.33.22-.46.35Z"/><path class="w" d="m41.45,97.38c-.32,0-.6.09-.84.26-.24.17-.44.4-.58.67v4.15h-.99v-5.81h.94l.03.73c.44-.56,1.02-.83,1.74-.83.57,0,1.03.16,1.36.48s.5.86.5,1.63v3.81h-1v-3.82c0-.45-.1-.78-.3-.97-.2-.19-.49-.29-.86-.29Z"/><path class="w" d="m49.71,101.44c-.19.29-.46.55-.81.78-.35.23-.81.35-1.38.35-.81,0-1.46-.26-1.94-.79-.49-.53-.73-1.2-.73-2.02v-.23c0-.63.12-1.17.36-1.62.24-.45.56-.79.94-1.02.39-.23.8-.35,1.24-.35.83,0,1.44.27,1.82.81.38.54.57,1.22.57,2.03v.45h-3.93c.01.53.17.99.48,1.36.3.37.72.56,1.25.56.35,0,.65-.07.89-.21.24-.14.46-.33.64-.57l.6.48Zm-2.31-4.09c-.39,0-.73.14-1,.43-.27.29-.44.7-.51,1.24h2.91v-.08c-.03-.39-.14-.75-.34-1.08-.2-.34-.55-.5-1.06-.5Z"/><path class="w" d="m50.68,99.62v-.12c0-.84.24-1.54.71-2.11.47-.56,1.12-.85,1.93-.85s1.47.28,1.94.85c.47.56.71,1.27.71,2.11v.12c0,.84-.24,1.54-.71,2.11-.47.56-1.12.84-1.93.84s-1.46-.28-1.94-.84c-.47-.56-.71-1.26-.71-2.11Zm.99-.12v.12c0,.58.14,1.08.41,1.5.27.42.69.63,1.24.63s.95-.21,1.23-.63c.28-.42.41-.92.41-1.5v-.12c0-.57-.14-1.07-.41-1.5-.28-.43-.69-.64-1.24-.64s-.96.21-1.23.64c-.27.43-.41.93-.41,1.5Z"/><path class="w" d="m62.14,99.62c0,.85-.2,1.55-.59,2.11-.39.56-.95.84-1.67.84s-1.3-.26-1.7-.78l-.05.67h-.91v-8.25h1v3.07c.39-.49.95-.74,1.65-.74s1.29.27,1.68.82c.39.54.59,1.26.59,2.15v.11Zm-2.52-2.24c-.36,0-.66.09-.88.26-.23.17-.4.39-.53.64v2.53c.13.26.31.47.54.65.23.18.52.26.88.26.54,0,.92-.21,1.16-.62.23-.41.35-.91.35-1.48v-.11c0-.58-.11-1.08-.33-1.5-.22-.42-.62-.63-1.18-.63Z"/><path class="w" d="m67.71,96.65l-2.09,5.81h-.76l-2.11-5.81h1.02l1.48,4.45,1.44-4.45h1.02Z"/><path class="w" d="m70.64,103.36c-.07.19-.17.4-.31.63-.14.23-.32.42-.54.58s-.52.24-.87.24c-.08,0-.18,0-.3-.03-.12-.02-.21-.04-.25-.06v-.81c.07.01.16.02.26.02.34,0,.6-.07.79-.21.19-.14.35-.39.47-.74l.21-.59-2.07-5.75h1.08l1.46,4.35,1.35-4.35h1.06l-2.33,6.71Z"/><path class="w" d="m77.51,102.46l-2.01-2.7-.63.65v2.05h-1v-8.25h1v4.98l.53-.63,1.8-1.91h1.21l-2.27,2.42,2.53,3.39h-1.17Z"/><path class="w" d="m80.52,94.21v8.25h-1v-8.25h1Z"/><path class="w" d="m86.71,101.44c-.19.29-.46.55-.81.78-.35.23-.81.35-1.38.35-.81,0-1.46-.26-1.94-.79-.49-.53-.73-1.2-.73-2.02v-.23c0-.63.12-1.17.36-1.62.24-.45.56-.79.94-1.02.39-.23.8-.35,1.24-.35.83,0,1.44.27,1.82.81.38.54.57,1.22.57,2.03v.45h-3.93c.01.53.17.99.48,1.36.3.37.72.56,1.25.56.35,0,.65-.07.89-.21.24-.14.46-.33.64-.57l.6.48Zm-2.31-4.09c-.39,0-.73.14-1,.43-.27.29-.44.7-.51,1.24h2.91v-.08c-.03-.39-.14-.75-.34-1.08-.2-.34-.55-.5-1.06-.5Z"/><path class="w" d="m93,101.75c.35,0,.67-.11.93-.32s.41-.48.44-.81h.95c-.02.52-.26.97-.71,1.36-.45.39-.99.58-1.6.58-.87,0-1.52-.29-1.95-.86-.42-.58-.64-1.25-.64-2.04v-.23c0-.78.21-1.46.64-2.04.42-.58,1.07-.86,1.95-.86.68,0,1.23.2,1.65.6.42.4.64.9.67,1.5h-.95c-.02-.36-.16-.66-.41-.91s-.57-.38-.96-.38-.73.1-.96.31c-.23.21-.39.47-.49.79-.1.32-.14.65-.14.98v.23c0,.34.05.67.14.99.09.32.25.58.49.79.23.21.55.31.96.31Z"/><path class="w" d="m98.85,97.38c-.32,0-.6.09-.84.26-.24.17-.43.4-.57.67v4.15h-.99v-8.25h.99v3.13c.44-.53,1.01-.8,1.71-.8.57,0,1.03.16,1.36.48.33.32.5.86.5,1.63v3.81h-1v-3.82c0-.45-.1-.78-.3-.97-.2-.19-.49-.29-.86-.29Z"/><path class="w" d="m103.57,94.21v8.25h-1v-8.25h1Z"/><path class="w" d="m108.76,102.46c-.06-.14-.11-.34-.14-.61-.19.2-.42.37-.7.51-.28.14-.6.21-.96.21-.59,0-1.07-.17-1.43-.5-.36-.33-.54-.74-.54-1.22,0-.62.24-1.1.71-1.42.47-.32,1.11-.49,1.91-.49h.98v-.46c0-.34-.1-.62-.31-.82-.21-.21-.51-.31-.92-.31-.38,0-.68.09-.91.28-.23.18-.35.4-.35.64h-.99c0-.42.21-.81.63-1.17s.98-.55,1.68-.55c.63,0,1.15.16,1.55.48.41.32.61.81.61,1.46v2.71c0,.19.02.4.05.62s.08.41.15.56v.09h-1.04Zm-1.65-.76c.36,0,.67-.09.93-.27.26-.18.45-.38.56-.6v-1.2h-.82c-1.19,0-1.78.36-1.78,1.07,0,.28.09.51.28.7.19.19.46.29.83.29Z"/><path class="w" d="m114.9,102.46l-.05-.62c-.4.49-.95.73-1.66.73s-1.24-.28-1.66-.84c-.42-.56-.63-1.26-.63-2.11v-.11c0-.89.21-1.6.63-2.15.42-.54.98-.82,1.67-.82s1.22.23,1.61.69v-3.02h1v8.25h-.91Zm-3-2.84c0,.58.12,1.07.37,1.48.24.41.63.62,1.17.62.35,0,.63-.08.85-.24.22-.16.39-.36.53-.61v-2.67c-.13-.24-.3-.44-.52-.59-.22-.16-.5-.23-.84-.23-.54,0-.93.21-1.18.63-.25.42-.37.92-.37,1.5v.11Z"/><path class="w" d="m119.77,97.38c-.32,0-.6.09-.84.26-.24.17-.44.4-.58.67v4.15h-.99v-5.81h.94l.03.73c.44-.56,1.02-.83,1.74-.83.57,0,1.03.16,1.36.48s.5.86.5,1.63v3.81h-1v-3.82c0-.45-.1-.78-.3-.97-.2-.19-.49-.29-.86-.29Z"/><path class="w" d="m125.41,103.36c-.07.19-.18.4-.31.63-.14.23-.32.42-.54.58-.23.16-.52.24-.87.24-.08,0-.18,0-.3-.03-.12-.02-.21-.04-.26-.06v-.81c.07.01.16.02.26.02.34,0,.6-.07.79-.21.19-.14.35-.39.47-.74l.21-.59-2.07-5.75h1.08l1.46,4.35,1.35-4.35h1.06l-2.33,6.71Zm-.56-7.57l1.04-1.58h1.2l-1.44,1.58h-.8Z"/><path class="w" d="m130.89,101.75c.35,0,.67-.11.93-.32s.41-.48.44-.81h.95c-.02.52-.26.97-.71,1.36-.45.39-.99.58-1.6.58-.87,0-1.52-.29-1.95-.86-.42-.58-.64-1.25-.64-2.04v-.23c0-.78.21-1.46.64-2.04.42-.58,1.07-.86,1.95-.86.68,0,1.23.2,1.65.6.42.4.64.9.67,1.5h-.95c-.02-.36-.16-.66-.41-.91s-.57-.38-.96-.38-.73.1-.96.31c-.23.21-.39.47-.49.79-.1.32-.14.65-.14.98v.23c0,.34.05.67.14.99.09.32.25.58.49.79.23.21.55.31.96.31Z"/><path class="w" d="m136.74,97.38c-.32,0-.6.09-.84.26-.24.17-.43.4-.57.67v4.15h-.99v-8.25h.99v3.13c.44-.53,1.01-.8,1.71-.8.57,0,1.03.16,1.36.48.33.32.5.86.5,1.63v3.81h-1v-3.82c0-.45-.1-.78-.3-.97-.2-.19-.49-.29-.86-.29Z"/><path class="w" d="m70.81,113.46l-.05-.62c-.4.49-.95.73-1.66.73s-1.24-.28-1.66-.84-.63-1.26-.63-2.11v-.11c0-.89.21-1.6.63-2.15s.98-.82,1.67-.82,1.22.23,1.61.69v-3.02h1v8.25h-.91Zm-3-2.84c0,.58.12,1.07.37,1.48.24.41.63.62,1.17.62.35,0,.63-.08.85-.24.22-.16.39-.36.53-.61v-2.67c-.13-.24-.3-.44-.52-.59-.22-.16-.5-.23-.84-.23-.54,0-.93.21-1.18.63-.25.42-.37.92-.37,1.5v.11Z"/><path class="w" d="m75.68,108.38c-.32,0-.6.09-.84.26-.24.17-.43.4-.57.67v4.15h-.99v-5.81h.94l.03.73c.44-.56,1.02-.83,1.73-.83.57,0,1.03.16,1.36.48.33.32.5.86.5,1.63v3.81h-1v-3.82c0-.45-.1-.78-.3-.97-.2-.19-.49-.29-.86-.29Z"/><path class="w" d="m79.39,106.8l1.04-1.58h1.2l-1.44,1.58h-.8Zm1.03.85v5.81h-.99v-5.81h.99Z"/><path class="w" d="m87.11,108.5c-.34,0-.62.08-.84.23-.22.15-.38.35-.49.61v4.12h-.99v-5.81h.97l.02.67c.15-.24.33-.42.56-.56s.5-.21.82-.21c.19,0,.33.02.44.08v.92c-.15-.03-.31-.04-.49-.04Z"/><path class="w" d="m88.15,110.62v-.12c0-.84.24-1.54.71-2.11.47-.56,1.12-.85,1.93-.85s1.47.28,1.94.85c.47.56.71,1.27.71,2.11v.12c0,.84-.24,1.54-.71,2.11-.47.56-1.12.84-1.93.84s-1.46-.28-1.94-.84c-.47-.56-.71-1.26-.71-2.11Zm.99-.12v.12c0,.58.14,1.08.41,1.5.27.42.69.63,1.24.63s.95-.21,1.23-.63c.28-.42.41-.92.41-1.5v-.12c0-.57-.14-1.07-.41-1.5-.28-.43-.69-.64-1.24-.64s-.96.21-1.23.64c-.27.43-.41.93-.41,1.5Z"/><path class="w" d="m97.01,112.75c.35,0,.67-.11.93-.32s.41-.48.44-.81h.95c-.02.52-.26.97-.71,1.36-.45.39-.99.58-1.6.58-.87,0-1.52-.29-1.95-.86-.42-.58-.64-1.25-.64-2.04v-.23c0-.78.21-1.46.64-2.04.42-.58,1.07-.86,1.95-.86.68,0,1.23.2,1.65.6.42.4.64.9.67,1.5h-.95c-.02-.36-.16-.66-.41-.91s-.57-.38-.96-.38-.73.1-.96.31c-.23.21-.39.47-.49.79-.1.32-.14.65-.14.98v.23c0,.34.05.67.14.99.09.32.25.58.49.79.23.21.55.31.96.31Zm-1.04-7.54l.81.91.81-.91h.86v.05l-1.36,1.47h-.61l-1.34-1.47v-.05h.84Z"/><path class="w" d="m102.86,108.38c-.32,0-.6.09-.84.26-.24.17-.43.4-.57.67v4.15h-.99v-5.81h.94l.03.73c.44-.56,1.02-.83,1.73-.83.57,0,1.03.16,1.36.48.33.32.5.86.5,1.63v3.81h-1v-3.82c0-.45-.1-.78-.3-.97-.2-.19-.49-.29-.86-.29Z"/><path class="w" d="m111.12,112.44c-.19.29-.46.55-.81.78-.35.23-.81.35-1.38.35-.81,0-1.46-.26-1.94-.79s-.73-1.2-.73-2.02v-.23c0-.63.12-1.17.36-1.62.24-.45.56-.79.94-1.02.39-.23.8-.35,1.24-.35.83,0,1.44.27,1.82.81.38.54.57,1.22.57,2.03v.45h-3.93c.01.53.17.99.47,1.36.3.37.72.56,1.25.56.35,0,.65-.07.89-.21.24-.14.46-.33.64-.57l.6.48Zm-3.14-7.23l.81.91.81-.91h.86v.05l-1.36,1.47h-.61l-1.34-1.47v-.05h.84Zm.82,3.14c-.39,0-.73.14-1,.43-.27.29-.44.7-.51,1.24h2.91v-.08c-.02-.39-.14-.75-.34-1.08-.2-.34-.55-.5-1.06-.5Z"/><path class="u" d="m126.75,306.92v1.14h-5.74v-.98l2.78-3.02c.47-.52.79-.93.96-1.25s.25-.61.25-.9c0-.39-.11-.71-.33-.97s-.53-.38-.94-.38c-.48,0-.85.15-1.09.44s-.36.67-.36,1.13h-1.42c0-.75.25-1.38.76-1.92s1.22-.8,2.14-.8c.85,0,1.51.21,1.98.64s.7.99.7,1.71c0,.53-.16,1.05-.49,1.56s-.74,1.03-1.24,1.56l-1.9,2.04h3.97Z"/><path class="u" d="m129.24,306.68v1.01c0,.4-.1.81-.3,1.24s-.47.78-.81,1.05l-.77-.45c.16-.26.3-.53.42-.81s.18-.61.18-.97v-1.06h1.28Z"/><path class="u" d="m136.22,306.92v1.14h-5.74v-.98l2.78-3.02c.47-.52.79-.93.96-1.25s.25-.61.25-.9c0-.39-.11-.71-.33-.97s-.53-.38-.94-.38c-.48,0-.85.15-1.09.44s-.36.67-.36,1.13h-1.42c0-.75.25-1.38.76-1.92s1.22-.8,2.14-.8c.85,0,1.51.21,1.98.64s.7.99.7,1.71c0,.53-.16,1.05-.49,1.56s-.74,1.03-1.24,1.56l-1.9,2.04h3.97Z"/><path class="u" d="m144.37,308.06l-.06-.66c-.42.52-.99.77-1.71.77-.76,0-1.37-.31-1.82-.92s-.67-1.38-.67-2.3v-.12c0-.96.22-1.75.67-2.34s1.06-.89,1.83-.89c.67,0,1.21.23,1.63.7v-3.24h1.42v9h-1.29Zm-2.84-3.1c0,.57.11,1.05.33,1.45s.59.6,1.1.6c.32,0,.58-.07.79-.22s.37-.33.49-.57v-2.7c-.12-.23-.29-.42-.49-.55s-.46-.21-.77-.21c-.52,0-.89.2-1.11.61s-.34.89-.34,1.46v.12Z"/><path class="u" d="m149.84,302.76c-.57,0-.99.26-1.28.77v4.52h-1.42v-6.34h1.34l.05.73c.46-.56,1.08-.84,1.83-.84.61,0,1.1.18,1.47.53s.55.96.55,1.82v4.1h-1.42v-4.11c0-.44-.09-.74-.28-.92s-.47-.26-.83-.26Z"/><path class="u" d="m155.37,301.72v6.34h-1.42v-6.34h1.42Zm-1.42-.85l1.14-1.77h1.62l-1.62,1.77h-1.14Z"/><path class="u" d="m225.6,306.46v1.14h-5.74v-.98l2.78-3.02c.47-.52.79-.93.96-1.25s.25-.61.25-.9c0-.39-.11-.71-.33-.97s-.53-.38-.94-.38c-.48,0-.85.15-1.09.44s-.36.67-.36,1.13h-1.42c0-.75.25-1.38.76-1.92s1.22-.8,2.14-.8c.85,0,1.51.21,1.98.64s.7.99.7,1.71c0,.53-.16,1.05-.49,1.56s-.74,1.03-1.24,1.56l-1.9,2.04h3.97Z"/><path class="u" d="m228.09,306.22v1.01c0,.4-.1.81-.3,1.24s-.47.78-.81,1.05l-.77-.45c.16-.26.3-.53.42-.81s.18-.61.18-.97v-1.06h1.28Z"/><path class="u" d="m234.88,305.27c0,.79-.27,1.4-.8,1.82s-1.2.63-1.99.63-1.46-.21-2-.63-.81-1.02-.81-1.81c0-.47.12-.89.37-1.25s.58-.63,1-.83c-.37-.19-.66-.45-.87-.77s-.32-.7-.32-1.11c0-.75.25-1.34.74-1.75s1.11-.62,1.87-.62,1.38.21,1.87.62.74.99.74,1.75c0,.41-.11.79-.32,1.11s-.51.59-.87.77c.42.2.76.47,1.01.83s.38.77.38,1.25Zm-1.42-.08c0-.42-.13-.76-.38-1.02s-.58-.39-1-.39-.75.13-1,.39-.37.6-.37,1.02.12.77.37,1.01.58.37,1.01.37.76-.12,1-.37.36-.58.36-1.01Zm-.19-3.83c0-.38-.11-.68-.32-.92s-.5-.35-.86-.35-.65.11-.86.34-.32.54-.32.93.11.69.32.93.5.35.87.35.65-.12.86-.35.32-.54.32-.93Z"/><path class="u" d="m243.22,307.6l-.06-.66c-.42.52-.99.77-1.71.77-.76,0-1.37-.31-1.82-.92s-.67-1.38-.67-2.3v-.12c0-.96.22-1.75.67-2.34s1.06-.89,1.83-.89c.67,0,1.21.23,1.63.7v-3.24h1.42v9h-1.29Zm-2.84-3.1c0,.57.11,1.05.33,1.45s.59.6,1.1.6c.32,0,.58-.07.79-.22s.37-.33.49-.57v-2.7c-.12-.23-.29-.42-.49-.55s-.46-.21-.77-.21c-.52,0-.89.2-1.11.61s-.34.89-.34,1.46v.12Z"/><path class="u" d="m248.69,302.3c-.57,0-.99.26-1.28.77v4.52h-1.42v-6.34h1.34l.05.73c.46-.56,1.08-.84,1.83-.84.61,0,1.1.18,1.47.53s.55.96.55,1.82v4.1h-1.42v-4.11c0-.44-.09-.74-.28-.92s-.47-.26-.83-.26Z"/><path class="u" d="m254.21,301.26v6.34h-1.42v-6.34h1.42Zm-1.42-.85l1.14-1.77h1.62l-1.62,1.77h-1.14Z"/><path class="t" d="m345.26,289.18h-2.02v3.35h-1.13v-8.53h3.15c.97,0,1.71.24,2.22.73s.77,1.11.77,1.87c0,.82-.26,1.46-.77,1.91s-1.25.67-2.22.67Zm-2.02-4.26v3.34h2.02c.66,0,1.14-.15,1.43-.46s.43-.71.43-1.19c0-.44-.14-.83-.43-1.17s-.77-.52-1.43-.52h-2.02Z"/><path class="t" d="m352.06,287.11c-.37,0-.68.08-.91.25s-.42.39-.53.67v4.5h-1.08v-6.34h1.05l.02.73c.16-.26.36-.46.61-.62s.55-.23.89-.23c.2,0,.36.03.48.08v1.01c-.17-.03-.34-.05-.53-.05Z"/><path class="t" d="m357.52,292.52l-.02-.63c-.2.23-.45.42-.75.55s-.67.2-1.1.2c-.62,0-1.12-.18-1.51-.55s-.57-.97-.57-1.82v-4.09h1.08v4.1c0,.57.12.95.36,1.15s.51.29.81.29c.44,0,.79-.08,1.06-.25s.46-.39.59-.67v-4.62h1.09v6.34h-1.04Zm-2.7-8.32c0-.34.12-.62.36-.86s.54-.36.9-.36.65.12.9.36.36.53.36.86-.12.63-.36.86-.54.34-.9.34-.66-.11-.9-.34-.36-.51-.36-.86Zm.58,0c0,.17.06.33.19.47s.29.21.49.21.36-.07.49-.2.19-.29.19-.47-.06-.34-.19-.48-.29-.21-.49-.21-.36.07-.49.21-.19.3-.19.48Z"/><path class="t" d="m362.74,286.98c-.39,0-.7.08-.93.25s-.41.38-.53.65v4.65h-1.09v-6.34h1.03l.03.69c.46-.54,1.08-.81,1.88-.81.41,0,.77.08,1.09.24s.56.42.73.78c.21-.3.49-.55.82-.74s.74-.28,1.19-.28c.68,0,1.2.18,1.57.54s.55.95.55,1.75v4.17h-1.09v-4.18c0-.53-.12-.89-.37-1.08s-.57-.28-.99-.28c-.44,0-.78.13-1.03.39s-.39.58-.43.95v4.21h-1.08v-4.17c0-.5-.12-.85-.37-1.06s-.57-.31-.98-.31Z"/><path class="t" d="m375.75,291.42c-.21.31-.5.59-.88.85s-.88.38-1.51.38c-.88,0-1.59-.29-2.12-.86s-.79-1.31-.79-2.2v-.25c0-.69.13-1.28.4-1.77s.61-.86,1.03-1.11.87-.38,1.35-.38c.91,0,1.57.3,1.98.89s.62,1.33.62,2.22v.49h-4.29c.02.58.19,1.08.52,1.49s.78.61,1.36.61c.38,0,.71-.08.97-.23s.5-.37.7-.63l.66.52Zm-3.42-7.89l.88,1,.88-1h.94v.06l-1.49,1.61h-.67l-1.46-1.61v-.06h.91Zm.9,3.43c-.43,0-.79.16-1.09.47s-.48.76-.56,1.35h3.17v-.08c-.03-.42-.15-.82-.37-1.18s-.6-.55-1.16-.55Z"/><path class="t" d="m379.62,287.11c-.37,0-.68.08-.91.25s-.42.39-.53.67v4.5h-1.08v-6.34h1.05l.02.73c.16-.26.36-.46.61-.62s.55-.23.89-.23c.2,0,.36.03.48.08v1.01c-.17-.03-.34-.05-.53-.05Z"/><path class="t" d="m383.79,286.98c-.35,0-.65.09-.92.28s-.47.43-.63.73v4.53h-1.08v-6.34h1.03l.04.79c.48-.61,1.11-.91,1.89-.91.62,0,1.12.18,1.49.53s.55.94.55,1.78v4.15h-1.09v-4.17c0-.5-.11-.85-.33-1.06s-.53-.32-.94-.32Z"/><path class="t" d="m392.8,291.42c-.21.31-.5.59-.88.85s-.88.38-1.51.38c-.88,0-1.59-.29-2.12-.86s-.79-1.31-.79-2.2v-.25c0-.69.13-1.28.4-1.77s.61-.86,1.03-1.11.87-.38,1.35-.38c.91,0,1.57.3,1.98.89s.62,1.33.62,2.22v.49h-4.29c.02.58.19,1.08.52,1.49s.78.61,1.36.61c.38,0,.71-.08.97-.23s.5-.37.7-.63l.66.52Zm-3.42-7.89l.88,1,.88-1h.94v.06l-1.49,1.61h-.67l-1.46-1.61v-.06h.91Zm.9,3.43c-.43,0-.79.16-1.09.47s-.48.76-.56,1.35h3.17v-.08c-.03-.42-.15-.82-.37-1.18s-.6-.55-1.16-.55Z"/><path class="u" d="m347.51,304.38v1.14h-5.74v-.98l2.78-3.02c.47-.52.79-.93.96-1.25s.25-.61.25-.9c0-.39-.11-.71-.33-.97s-.53-.38-.94-.38c-.48,0-.85.15-1.09.44s-.36.67-.36,1.13h-1.42c0-.75.25-1.38.76-1.92s1.22-.8,2.14-.8c.85,0,1.51.21,1.98.64s.7.99.7,1.71c0,.53-.16,1.05-.49,1.56s-.74,1.03-1.24,1.56l-1.9,2.04h3.97Z"/><path class="u" d="m355.67,305.52l-.06-.66c-.42.52-.99.77-1.71.77-.76,0-1.37-.31-1.82-.92s-.67-1.38-.67-2.3v-.12c0-.96.22-1.75.67-2.34s1.06-.89,1.83-.89c.67,0,1.21.23,1.63.7v-3.24h1.42v9h-1.29Zm-2.84-3.1c0,.57.11,1.05.33,1.45s.59.6,1.1.6c.32,0,.58-.07.79-.22s.37-.33.49-.57v-2.7c-.12-.23-.29-.42-.49-.55s-.46-.21-.77-.21c-.52,0-.89.2-1.11.61s-.34.89-.34,1.46v.12Z"/><path class="u" d="m361.13,300.23c-.57,0-.99.26-1.28.77v4.52h-1.42v-6.34h1.34l.05.73c.46-.56,1.08-.84,1.83-.84.61,0,1.1.18,1.47.53s.55.96.55,1.82v4.1h-1.42v-4.11c0-.44-.09-.74-.28-.92s-.47-.26-.83-.26Z"/><path class="u" d="m367.62,306.49c-.08.21-.19.44-.34.69s-.35.46-.61.64-.6.27-1.01.27c-.12,0-.24-.01-.36-.03s-.23-.04-.32-.07v-1.1s.08,0,.14.01.1,0,.13,0c.35,0,.62-.06.8-.19s.33-.35.43-.67l.21-.55-2.23-6.31h1.54l1.34,4.31,1.29-4.31h1.52l-2.53,7.3Z"/><path class="u" d="m379,299.18l-2.2,6.34h-1.24l-2.21-6.34h1.47l1.37,4.53,1.34-4.53h1.47Z"/><path class="u" d="m385.62,300.44c-.66,0-1.1.25-1.32.75v4.34h-1.42v-6.34h1.36l.04.71c.16-.26.35-.46.59-.61s.52-.22.84-.22c.19,0,.36.03.5.08v1.34c-.21-.03-.4-.05-.59-.05Z"/><path class="u" d="m386.63,302.42v-.12c0-.92.26-1.69.78-2.3s1.24-.93,2.16-.93,1.65.31,2.17.93.78,1.38.78,2.3v.12c0,.92-.26,1.69-.78,2.3s-1.24.92-2.17.92-1.65-.31-2.17-.92-.78-1.38-.78-2.3Zm1.42-.12v.12c0,.57.12,1.06.37,1.47s.63.61,1.17.61.91-.2,1.15-.61.37-.9.37-1.47v-.12c0-.56-.12-1.05-.37-1.46s-.63-.62-1.16-.62-.91.21-1.16.62-.37.9-.37,1.46Z"/><path class="u" d="m396.33,304.5c.34,0,.63-.1.87-.3s.37-.46.39-.77h1.34c-.02.61-.28,1.14-.78,1.57s-1.1.65-1.81.65c-.98,0-1.7-.31-2.17-.94s-.71-1.37-.71-2.24v-.21c0-.87.24-1.61.71-2.24s1.2-.94,2.17-.94c.77,0,1.38.22,1.85.67s.71,1.02.73,1.72h-1.34c-.02-.34-.14-.63-.36-.88s-.52-.37-.91-.37c-.58,0-.96.21-1.16.64s-.29.89-.29,1.4v.21c0,.51.1.98.29,1.4s.58.64,1.17.64Z"/><path class="u" d="m405.24,304.45c-.2.3-.5.57-.9.82s-.91.38-1.54.38c-.94,0-1.68-.29-2.22-.88s-.81-1.31-.81-2.19v-.24c0-1,.28-1.79.83-2.38s1.23-.88,2.04-.88c.92,0,1.6.29,2.05.88s.67,1.34.67,2.25v.6h-4.14c.04.49.2.89.5,1.22s.69.48,1.19.48c.34,0,.65-.07.91-.21s.49-.33.68-.58l.77.73Zm-2.61-4.24c-.39,0-.71.14-.94.41s-.39.65-.46,1.14h2.71v-.11c-.02-.37-.12-.7-.31-1s-.52-.44-.99-.44Z"/><path class="t" d="m341.98,312.18h1.09v7.1c0,1.2-.55,1.8-1.66,1.8-.24,0-.47-.03-.67-.1v-.87c.15.04.32.05.5.05.24,0,.42-.07.55-.2s.19-.36.19-.69v-7.1Zm-.11-1.68c0-.18.05-.32.16-.45s.27-.18.47-.18.37.06.48.18.16.27.16.45-.05.31-.16.43-.27.18-.48.18-.37-.06-.47-.18-.16-.26-.16-.43Z"/><path class="t" d="m348.52,316.84c0-.23-.09-.44-.26-.63s-.57-.34-1.2-.47c-.71-.15-1.26-.36-1.67-.63s-.61-.67-.61-1.2.21-.93.64-1.3,1-.55,1.71-.55c.76,0,1.35.19,1.78.58s.64.85.64,1.4h-1.08c0-.26-.12-.51-.35-.74s-.56-.35-.98-.35c-.45,0-.77.1-.97.29s-.29.41-.29.64.09.42.28.57.58.28,1.18.41c.78.18,1.35.41,1.72.7s.56.68.56,1.2c0,.56-.22,1.01-.67,1.36s-1.04.52-1.78.52c-.84,0-1.48-.21-1.93-.64s-.67-.91-.67-1.43h1.09c.02.45.2.76.52.93s.65.25.99.25c.44,0,.78-.09,1.01-.26s.35-.39.35-.65Z"/><path class="t" d="m350.73,315.43v-.13c0-.92.26-1.68.77-2.3s1.22-.92,2.1-.92,1.6.31,2.12.92.78,1.38.78,2.3v.13c0,.92-.26,1.68-.78,2.3s-1.22.92-2.11.92-1.59-.31-2.11-.92-.78-1.38-.78-2.3Zm1.08-.13v.13c0,.63.15,1.17.45,1.63s.75.69,1.36.69,1.04-.23,1.34-.69.45-1.01.45-1.63v-.13c0-.62-.15-1.17-.45-1.63s-.75-.7-1.35-.7-1.05.23-1.34.7-.45,1.01-.45,1.63Z"/><path class="t" d="m361.79,318.52l-.02-.63c-.2.23-.45.42-.75.55s-.67.2-1.1.2c-.62,0-1.12-.18-1.51-.55s-.57-.97-.57-1.82v-4.09h1.08v4.1c0,.57.12.95.36,1.15s.51.29.81.29c.44,0,.79-.08,1.06-.25s.46-.39.59-.67v-4.62h1.09v6.34h-1.04Z"/><path class="t" d="m369.99,317.75c.39,0,.73-.12,1.02-.35s.45-.53.48-.88h1.03c-.03.57-.29,1.06-.78,1.49s-1.07.64-1.75.64c-.95,0-1.66-.31-2.12-.94s-.69-1.37-.69-2.22v-.25c0-.85.23-1.59.69-2.22s1.17-.94,2.12-.94c.74,0,1.34.22,1.8.66s.7.99.73,1.64h-1.03c-.03-.39-.17-.72-.44-1s-.62-.41-1.05-.41-.79.11-1.05.34-.43.51-.53.86-.16.71-.16,1.07v.25c0,.37.05.73.15,1.08s.28.63.53.86.6.34,1.05.34Z"/><path class="t" d="m376.37,312.98c-.35,0-.65.09-.92.28s-.47.43-.63.73v4.53h-1.08v-9h1.08v3.42c.48-.58,1.1-.87,1.87-.87.62,0,1.12.18,1.49.53s.55.94.55,1.78v4.15h-1.09v-4.17c0-.5-.11-.85-.33-1.06s-.53-.32-.94-.32Z"/><path class="t" d="m381.52,309.52v9h-1.09v-9h1.09Z"/><path class="t" d="m387.18,318.52c-.07-.15-.12-.38-.15-.67-.2.21-.46.4-.76.55s-.65.23-1.04.23c-.65,0-1.17-.18-1.56-.54s-.59-.81-.59-1.34c0-.68.26-1.2.77-1.55s1.21-.53,2.08-.53h1.07v-.5c0-.38-.11-.67-.34-.9s-.56-.34-1-.34c-.41,0-.74.1-.99.3s-.38.43-.38.7h-1.08c0-.45.23-.88.69-1.28s1.07-.6,1.83-.6c.69,0,1.25.18,1.69.53s.66.88.66,1.59v2.95c0,.21.02.44.06.67s.09.44.17.62v.09h-1.13Zm-1.8-.83c.39,0,.73-.1,1.02-.29s.49-.41.61-.65v-1.31h-.9c-1.29,0-1.94.39-1.94,1.17,0,.3.1.56.3.76s.51.31.91.31Z"/><path class="t" d="m393.88,318.52l-.05-.68c-.43.53-1.04.8-1.81.8s-1.35-.3-1.81-.91-.69-1.38-.69-2.3v-.12c0-.97.23-1.75.69-2.34s1.07-.89,1.82-.89,1.33.25,1.76.75v-3.29h1.09v9h-1Zm-3.27-3.1c0,.63.13,1.17.4,1.62s.69.68,1.28.68c.38,0,.69-.09.93-.26s.43-.39.57-.66v-2.92c-.14-.26-.33-.48-.57-.65s-.55-.25-.92-.25c-.59,0-1.02.23-1.29.69s-.4,1-.4,1.63v.12Z"/><path class="t" d="m399.19,312.98c-.35,0-.65.09-.92.28s-.47.43-.63.73v4.53h-1.08v-6.34h1.03l.04.79c.48-.61,1.11-.91,1.89-.91.62,0,1.12.18,1.49.53s.55.94.55,1.78v4.15h-1.09v-4.17c0-.5-.11-.85-.33-1.06s-.53-.32-.94-.32Z"/><path class="t" d="m408.2,317.42c-.21.31-.5.59-.88.85s-.88.38-1.51.38c-.88,0-1.59-.29-2.12-.86s-.79-1.31-.79-2.2v-.25c0-.69.13-1.28.4-1.77s.61-.86,1.03-1.11.87-.38,1.35-.38c.91,0,1.57.3,1.98.89s.62,1.33.62,2.22v.49h-4.29c.02.58.19,1.08.52,1.49s.78.61,1.36.61c.38,0,.71-.08.97-.23s.5-.37.7-.63l.66.52Zm-3.42-7.89l.88,1,.88-1h.94v.06l-1.49,1.61h-.67l-1.46-1.61v-.06h.91Zm.9,3.43c-.43,0-.79.16-1.09.47s-.48.76-.56,1.35h3.17v-.08c-.03-.42-.15-.82-.37-1.18s-.6-.55-1.16-.55Z"/><path class="t" d="m409.58,312.18h1.09v7.1c0,1.2-.55,1.8-1.66,1.8-.24,0-.47-.03-.67-.1v-.87c.15.04.32.05.5.05.24,0,.42-.07.55-.2s.19-.36.19-.69v-7.1Zm-.11-1.68c0-.18.05-.32.16-.45s.27-.18.47-.18.37.06.48.18.16.27.16.45-.05.31-.16.43-.27.18-.48.18-.37-.06-.47-.18-.16-.26-.16-.43Z"/><path class="t" d="m416.11,316.84c0-.23-.09-.44-.26-.63s-.57-.34-1.2-.47c-.71-.15-1.26-.36-1.67-.63s-.61-.67-.61-1.2.21-.93.64-1.3,1-.55,1.71-.55c.76,0,1.35.19,1.78.58s.64.85.64,1.4h-1.08c0-.26-.12-.51-.35-.74s-.56-.35-.98-.35c-.45,0-.77.1-.97.29s-.29.41-.29.64.09.42.28.57.58.28,1.18.41c.78.18,1.35.41,1.72.7s.56.68.56,1.2c0,.56-.22,1.01-.67,1.36s-1.04.52-1.78.52c-.84,0-1.48-.21-1.93-.64s-.67-.91-.67-1.43h1.09c.02.45.2.76.52.93s.65.25.99.25c.44,0,.78-.09,1.01-.26s.35-.39.35-.65Zm-2.12-7.31l.88,1,.88-1h.94v.06l-1.49,1.61h-.67l-1.46-1.61v-.06h.91Z"/><path class="t" d="m418.67,311.26l1.14-1.72h1.31l-1.57,1.72h-.87Zm1.12.93v6.34h-1.08v-6.34h1.08Z"/><path class="t" d="m341.67,328.43v-.13c0-.92.26-1.68.77-2.3s1.22-.92,2.1-.92,1.6.31,2.12.92.78,1.38.78,2.3v.13c0,.92-.26,1.68-.78,2.3s-1.22.92-2.11.92-1.59-.31-2.11-.92-.78-1.38-.78-2.3Zm1.08-.13v.13c0,.63.15,1.17.45,1.63s.75.69,1.36.69,1.04-.23,1.34-.69.45-1.01.45-1.63v-.13c0-.62-.15-1.17-.45-1.63s-.75-.7-1.35-.7-1.05.23-1.34.7-.45,1.01-.45,1.63Z"/><path class="t" d="m356.54,325.18l-2.28,6.34h-.83l-2.3-6.34h1.11l1.61,4.86,1.57-4.86h1.11Z"/><path class="t" d="m357.64,324.26l1.14-1.72h1.31l-1.57,1.72h-.87Zm1.12.93v6.34h-1.08v-6.34h1.08Z"/><path class="t" d="m363.09,330.75c.39,0,.73-.12,1.02-.35s.45-.53.48-.88h1.03c-.03.57-.29,1.06-.78,1.49s-1.07.64-1.75.64c-.95,0-1.66-.31-2.12-.94s-.69-1.37-.69-2.22v-.25c0-.85.23-1.59.69-2.22s1.17-.94,2.12-.94c.74,0,1.34.22,1.8.66s.7.99.73,1.64h-1.03c-.03-.39-.17-.72-.44-1s-.62-.41-1.05-.41-.79.11-1.05.34-.43.51-.53.86-.16.71-.16,1.07v.25c0,.37.05.73.15,1.08s.28.63.53.86.6.34,1.05.34Z"/><path class="t" d="m371.85,330.42c-.21.31-.5.59-.88.85s-.88.38-1.51.38c-.88,0-1.59-.29-2.12-.86s-.79-1.31-.79-2.2v-.25c0-.69.13-1.28.4-1.77s.61-.86,1.03-1.11.87-.38,1.35-.38c.91,0,1.57.3,1.98.89s.62,1.33.62,2.22v.49h-4.29c.02.58.19,1.08.52,1.49s.78.61,1.36.61c.38,0,.71-.08.97-.23s.5-.37.7-.63l.66.52Zm-2.53-4.46c-.43,0-.79.16-1.09.47s-.48.76-.56,1.35h3.17v-.08c-.03-.42-.15-.82-.37-1.18s-.6-.55-1.16-.55Z"/><path class="t" d="m378.81,325.98c-.35,0-.65.09-.92.28s-.47.43-.63.73v4.53h-1.08v-6.34h1.03l.04.79c.48-.61,1.11-.91,1.89-.91.62,0,1.12.18,1.49.53s.55.94.55,1.78v4.15h-1.09v-4.17c0-.5-.11-.85-.33-1.06s-.53-.32-.94-.32Z"/><path class="t" d="m387.82,330.42c-.21.31-.5.59-.88.85s-.88.38-1.51.38c-.88,0-1.59-.29-2.12-.86s-.79-1.31-.79-2.2v-.25c0-.69.13-1.28.4-1.77s.61-.86,1.03-1.11.87-.38,1.35-.38c.91,0,1.57.3,1.98.89s.62,1.33.62,2.22v.49h-4.29c.02.58.19,1.08.52,1.49s.78.61,1.36.61c.38,0,.71-.08.97-.23s.5-.37.7-.63l.66.52Zm-2.53-4.46c-.43,0-.79.16-1.09.47s-.48.76-.56,1.35h3.17v-.08c-.03-.42-.15-.82-.37-1.18s-.6-.55-1.16-.55Z"/><path class="t" d="m388.91,326.08v-.9h4.81v.77l-3.53,4.68h3.7v.89h-5.03v-.8l3.49-4.65h-3.45Zm1.56-3.55l.88,1,.88-1h.94v.06l-1.49,1.61h-.67l-1.46-1.61v-.06h.91Z"/><path class="t" d="m401.54,322.95v8.58h-1.08v-7.22l-2.19.8v-.98l3.1-1.17h.17Z"/><path class="t" d="m410.08,326.58v1.3c0,1.4-.24,2.38-.72,2.93s-1.14.83-1.97.83-1.47-.28-1.96-.83-.74-1.53-.74-2.93v-1.3c0-1.39.24-2.36.73-2.9s1.14-.81,1.96-.81,1.49.27,1.97.81.73,1.5.73,2.9Zm-1.09,1.48v-1.66c0-.96-.14-1.64-.41-2.04s-.67-.6-1.2-.6-.91.2-1.19.6-.41,1.08-.41,2.04v1.66c0,.95.14,1.64.42,2.06s.68.63,1.19.63.93-.21,1.2-.63.4-1.11.4-2.06Z"/><path class="t" d="m413.3,324.39c0-.42.15-.78.44-1.08s.65-.45,1.05-.45.75.15,1.04.45.43.66.43,1.08-.14.77-.43,1.07-.63.44-1.04.44-.76-.15-1.05-.44-.44-.65-.44-1.07Zm.73,0c0,.21.08.39.23.54s.33.22.54.22.39-.07.53-.22.21-.32.21-.54-.07-.4-.21-.55-.32-.22-.53-.22-.39.07-.54.22-.23.33-.23.55Z"/><path class="t" d="m423.16,328.81h1.12c-.09.81-.39,1.48-.91,2.02s-1.3.81-2.32.81-1.8-.36-2.41-1.08-.91-1.68-.91-2.87v-.85c0-1.2.31-2.15.92-2.88s1.45-1.08,2.5-1.08c.96,0,1.71.27,2.23.8s.82,1.22.91,2.06h-1.12c-.09-.59-.28-1.06-.57-1.41s-.78-.52-1.44-.52c-.75,0-1.33.28-1.72.83s-.59,1.29-.59,2.19v.86c0,.84.18,1.56.53,2.15s.91.89,1.67.89c.72,0,1.23-.17,1.52-.5s.49-.8.59-1.41Z"/><path class="t" d="m341.67,341.43v-.13c0-.92.26-1.68.77-2.3s1.22-.92,2.1-.92,1.6.31,2.12.92.78,1.38.78,2.3v.13c0,.92-.26,1.68-.78,2.3s-1.22.92-2.11.92-1.59-.31-2.11-.92-.78-1.38-.78-2.3Zm1.08-.13v.13c0,.63.15,1.17.45,1.63s.75.69,1.36.69,1.04-.23,1.34-.69.45-1.01.45-1.63v-.13c0-.62-.15-1.17-.45-1.63s-.75-.7-1.35-.7-1.05.23-1.34.7-.45,1.01-.45,1.63Z"/><path class="t" d="m351.69,344.64c-.76,0-1.37-.24-1.81-.73v3.05h-1.09v-8.78h1l.05.7c.45-.54,1.06-.81,1.83-.81s1.41.3,1.84.89.64,1.38.64,2.34v.12c0,.93-.21,1.69-.64,2.3s-1.03.91-1.82.91Zm-.33-5.66c-.37,0-.67.08-.91.25s-.43.37-.57.62v3.04c.14.25.33.46.57.62s.54.24.92.24c.59,0,1.01-.23,1.29-.69s.41-1.01.41-1.63v-.12c0-.63-.14-1.17-.41-1.63s-.7-.69-1.3-.69Z"/><path class="t" d="m358.07,339.11c-.37,0-.68.08-.91.25s-.42.39-.53.67v4.5h-1.08v-6.34h1.05l.02.73c.16-.26.36-.46.61-.62s.55-.23.89-.23c.2,0,.36.03.48.08v1.01c-.17-.03-.34-.05-.53-.05Z"/><path class="t" d="m359.2,341.43v-.13c0-.92.26-1.68.77-2.3s1.22-.92,2.1-.92,1.6.31,2.12.92.78,1.38.78,2.3v.13c0,.92-.26,1.68-.78,2.3s-1.22.92-2.11.92-1.59-.31-2.11-.92-.78-1.38-.78-2.3Zm1.08-.13v.13c0,.63.15,1.17.45,1.63s.75.69,1.36.69,1.04-.23,1.34-.69.45-1.01.45-1.63v-.13c0-.62-.15-1.17-.45-1.63s-.75-.7-1.35-.7-1.05.23-1.34.7-.45,1.01-.45,1.63Z"/><path class="t" d="m369.01,344.52c-.09.03-.2.05-.34.08s-.31.04-.5.04c-.4,0-.75-.12-1.03-.37s-.43-.69-.43-1.32v-3.93h-1.16v-.83h1.16v-1.54h1.08v1.54h1.18v.83h-1.18v3.94c0,.32.07.53.21.62s.3.13.49.13c.09,0,.18,0,.28-.03s.17-.03.23-.04v.88Z"/><path class="t" d="m370.26,336.5c0-.18.05-.32.16-.45s.27-.18.48-.18.37.06.48.18.17.27.17.45-.06.31-.17.43-.27.18-.48.18-.37-.06-.48-.18-.16-.26-.16-.43Zm1.17,1.68v6.34h-1.09v-6.34h1.09Z"/><path class="t" d="m378.78,338.98c-.35,0-.65.09-.92.28s-.47.43-.63.73v4.53h-1.08v-6.34h1.03l.04.79c.48-.61,1.11-.91,1.89-.91.62,0,1.12.18,1.49.53s.55.94.55,1.78v4.15h-1.09v-4.17c0-.5-.11-.85-.33-1.06s-.53-.32-.94-.32Z"/><path class="t" d="m382.49,341.43v-.13c0-.92.26-1.68.77-2.3s1.22-.92,2.1-.92,1.6.31,2.12.92.78,1.38.78,2.3v.13c0,.92-.26,1.68-.78,2.3s-1.22.92-2.11.92-1.59-.31-2.11-.92-.78-1.38-.78-2.3Zm1.08-.13v.13c0,.63.15,1.17.45,1.63s.75.69,1.36.69,1.04-.23,1.34-.69.45-1.01.45-1.63v-.13c0-.62-.15-1.17-.45-1.63s-.75-.7-1.35-.7-1.05.23-1.34.7-.45,1.01-.45,1.63Z"/><path class="t" d="m392.15,339.11c-.37,0-.68.08-.91.25s-.42.39-.53.67v4.5h-1.08v-6.34h1.05l.02.73c.16-.26.36-.46.61-.62s.55-.23.89-.23c.2,0,.36.03.48.08v1.01c-.17-.03-.34-.05-.53-.05Z"/><path class="t" d="m396.22,338.98c-.39,0-.7.08-.93.25s-.41.38-.53.65v4.65h-1.09v-6.34h1.03l.03.69c.46-.54,1.08-.81,1.88-.81.41,0,.77.08,1.09.24s.56.42.73.78c.21-.3.49-.55.82-.74s.74-.28,1.19-.28c.68,0,1.2.18,1.57.54s.55.95.55,1.75v4.17h-1.09v-4.18c0-.53-.12-.89-.37-1.08s-.57-.28-.99-.28c-.44,0-.78.13-1.03.39s-.39.58-.43.95v4.21h-1.08v-4.17c0-.5-.12-.85-.37-1.06s-.57-.31-.98-.31Z"/><path class="t" d="m408.12,344.52c-.07-.15-.12-.38-.15-.67-.2.21-.46.4-.76.55s-.65.23-1.04.23c-.65,0-1.17-.18-1.56-.54s-.59-.81-.59-1.34c0-.68.26-1.2.77-1.55s1.21-.53,2.08-.53h1.07v-.5c0-.38-.11-.67-.34-.9s-.56-.34-1-.34c-.41,0-.74.1-.99.3s-.38.43-.38.7h-1.08c0-.45.23-.88.69-1.28s1.07-.6,1.83-.6c.69,0,1.25.18,1.69.53s.66.88.66,1.59v2.95c0,.21.02.44.06.67s.09.44.17.62v.09h-1.13Zm-1.8-.83c.39,0,.73-.1,1.02-.29s.49-.41.61-.65v-1.31h-.9c-1.29,0-1.94.39-1.94,1.17,0,.3.1.56.3.76s.51.31.91.31Zm-.13-6.45l1.14-1.72h1.31l-1.57,1.72h-.87Z"/><path class="t" d="m411.92,335.52v9h-1.09v-9h1.09Z"/><path class="t" d="m417.59,344.52l-.02-.63c-.2.23-.45.42-.75.55s-.67.2-1.1.2c-.62,0-1.12-.18-1.51-.55s-.57-.97-.57-1.82v-4.09h1.08v4.1c0,.57.12.95.36,1.15s.51.29.81.29c.44,0,.79-.08,1.06-.25s.46-.39.59-.67v-4.62h1.09v6.34h-1.04Z"/><path class="v" d="m418.57,76.69v.82h-4.48v-.82h4.48Z"/><path class="v" d="m421.38,77.28l-.79-.2.39-3.89h4.01v.92h-3.17l-.24,2.13c.14-.08.32-.16.55-.23.22-.07.47-.11.76-.11.72,0,1.29.24,1.71.71.42.47.63,1.11.63,1.91,0,.75-.2,1.37-.61,1.86-.41.49-1.03.74-1.86.74-.63,0-1.18-.18-1.64-.53-.46-.36-.73-.9-.8-1.63h.95c.13.9.62,1.35,1.5,1.35.47,0,.83-.16,1.09-.48s.39-.75.39-1.29c0-.49-.14-.9-.41-1.24-.27-.33-.66-.5-1.16-.5-.33,0-.59.04-.76.13s-.35.21-.52.37Z"/><path class="v" d="m427.99,74.46c0-.38.14-.71.41-.99.27-.27.59-.41.96-.41s.69.14.95.41c.26.27.4.6.4.99s-.13.71-.4.98c-.26.27-.58.4-.95.4s-.69-.13-.96-.4c-.27-.27-.41-.59-.41-.98Zm.67,0c0,.2.07.36.21.49.14.13.3.2.5.2s.36-.07.49-.2c.13-.13.2-.3.2-.49s-.07-.37-.2-.5c-.13-.14-.29-.2-.49-.2s-.36.07-.5.2c-.14.14-.21.3-.21.5Z"/><path class="v" d="m437.02,78.51h1.03c-.08.74-.36,1.36-.84,1.85s-1.19.74-2.13.74-1.65-.33-2.21-.99c-.56-.66-.84-1.54-.84-2.63v-.78c0-1.1.28-1.97.85-2.64.56-.66,1.33-.99,2.3-.99.88,0,1.56.24,2.04.73s.75,1.12.83,1.89h-1.03c-.08-.54-.25-.98-.53-1.29-.27-.32-.71-.48-1.32-.48-.69,0-1.22.25-1.57.76s-.54,1.18-.54,2.01v.79c0,.77.16,1.43.49,1.97.33.54.84.81,1.53.81.66,0,1.12-.15,1.39-.46.27-.31.45-.74.54-1.29Z"/><rect class="q" x="395.71" y="26.42" width="10" height="68.18" transform="translate(461.22 -340.21) rotate(90)"/><rect class="s" x="341.17" y="40.05" width="10" height="40.91" transform="translate(406.68 -285.66) rotate(90)"/><rect class="x" x="297.73" y="37.53" width="10" height="45.96" transform="translate(363.24 -242.22) rotate(90)"/><line class="k" x1="434.8" y1="55.51" x2="434.8" y2="69.51"/><path class="v" d="m359.32,76.69v.82h-4.48v-.82h4.48Z"/><path class="v" d="m365.8,78.88c0,.72-.24,1.27-.72,1.65-.48.38-1.07.57-1.77.57s-1.29-.19-1.77-.57c-.48-.38-.72-.93-.72-1.65,0-.44.12-.82.35-1.16.24-.33.55-.59.95-.76-.35-.17-.62-.41-.83-.71-.2-.31-.3-.65-.3-1.04,0-.68.22-1.21.65-1.58.43-.37.99-.56,1.65-.56s1.22.19,1.66.56c.43.37.65.9.65,1.58,0,.39-.1.73-.31,1.04-.21.31-.49.54-.83.71.4.17.73.43.97.76.24.34.36.72.36,1.15Zm-1-.02c0-.44-.14-.79-.42-1.07s-.64-.41-1.08-.41-.82.14-1.08.41c-.27.28-.4.63-.4,1.07s.13.8.4,1.05c.27.25.63.38,1.09.38s.83-.13,1.09-.38c.27-.25.4-.6.4-1.05Zm-.18-3.63c0-.39-.12-.71-.37-.96-.24-.25-.56-.38-.95-.38s-.71.12-.95.36c-.24.24-.36.57-.36.98s.12.73.36.97c.24.24.56.37.95.37s.71-.12.95-.37c.24-.24.36-.57.36-.97Z"/><path class="v" d="m368.74,74.46c0-.38.13-.71.41-.99.27-.27.59-.41.96-.41s.69.14.95.41c.26.27.4.6.4.99s-.13.71-.4.98c-.26.27-.58.4-.95.4s-.69-.13-.96-.4-.41-.59-.41-.98Zm.67,0c0,.2.07.36.21.49.14.13.3.2.5.2s.36-.07.49-.2.2-.3.2-.49-.07-.37-.2-.5-.29-.2-.49-.2-.36.07-.5.2c-.14.14-.21.3-.21.5Z"/><path class="v" d="m377.78,78.51h1.03c-.08.74-.36,1.36-.84,1.85-.48.49-1.19.74-2.13.74s-1.65-.33-2.21-.99c-.56-.66-.84-1.54-.84-2.63v-.78c0-1.1.28-1.97.85-2.64.56-.66,1.33-.99,2.3-.99.88,0,1.57.24,2.04.73.48.49.75,1.12.83,1.89h-1.03c-.08-.54-.25-.98-.53-1.29-.27-.32-.71-.48-1.32-.48-.69,0-1.22.25-1.57.76-.36.51-.54,1.18-.54,2.01v.79c0,.77.16,1.43.49,1.97.33.54.84.81,1.53.81.66,0,1.12-.15,1.39-.46s.45-.74.54-1.29Z"/><line class="k" x1="366.62" y1="55.51" x2="366.62" y2="69.51"/><path class="v" d="m315.32,76.69v.82h-4.48v-.82h4.48Z"/><path class="v" d="m320.14,73.14v7.86h-.99v-6.62l-2,.73v-.9l2.84-1.07h.16Z"/><path class="v" d="m327.97,76.47v1.19c0,1.28-.22,2.18-.66,2.69-.44.51-1.04.76-1.8.76s-1.35-.25-1.8-.76-.68-1.4-.68-2.69v-1.19c0-1.28.22-2.16.67-2.66.45-.49,1.05-.74,1.79-.74s1.36.25,1.81.74c.45.49.67,1.38.67,2.66Zm-1,1.35v-1.52c0-.88-.13-1.5-.38-1.87s-.62-.55-1.1-.55-.83.18-1.09.55c-.25.37-.38.99-.38,1.87v1.52c0,.87.13,1.5.38,1.89.26.39.62.58,1.09.58s.85-.19,1.1-.58c.25-.39.37-1.02.37-1.89Z"/><path class="v" d="m330.92,74.46c0-.38.14-.71.41-.99.27-.27.59-.41.96-.41s.69.14.95.41c.26.27.4.6.4.99s-.13.71-.4.98c-.26.27-.58.4-.95.4s-.69-.13-.96-.4c-.27-.27-.41-.59-.41-.98Zm.67,0c0,.2.07.36.21.49.14.13.3.2.5.2s.36-.07.49-.2c.13-.13.2-.3.2-.49s-.07-.37-.2-.5c-.13-.14-.29-.2-.49-.2s-.36.07-.5.2c-.14.14-.21.3-.21.5Z"/><path class="v" d="m339.96,78.51h1.03c-.08.74-.36,1.36-.84,1.85s-1.19.74-2.13.74-1.65-.33-2.21-.99c-.56-.66-.84-1.54-.84-2.63v-.78c0-1.1.28-1.97.85-2.64.56-.66,1.33-.99,2.3-.99.88,0,1.56.24,2.04.73s.75,1.12.83,1.89h-1.03c-.08-.54-.25-.98-.53-1.29-.27-.32-.71-.48-1.32-.48-.69,0-1.22.25-1.57.76s-.54,1.18-.54,2.01v.79c0,.77.16,1.43.49,1.97.33.54.84.81,1.53.81.66,0,1.12-.15,1.39-.46.27-.31.45-.74.54-1.29Z"/><line class="k" x1="325.71" y1="55.51" x2="325.71" y2="69.51"/><path class="j" d="m113.95,313.29c2.76-.06,6.42-3.43,6.42-3.43"/><path class="j" d="m211.73,311.84c3.77,0,6.42-3.43,6.42-3.43"/><path class="j" d="m309.5,312.66c10.78,0,18.84-10.11,26.95-10.11"/><g class="y"><path class="h" d="m111.39,376.19v-6.41c0-.86-.69-1.55-1.55-1.55s-1.55.69-1.55,1.55v6.41c-1.29.59-2.2,1.89-2.2,3.4,0,2.07,1.68,3.75,3.75,3.75s3.75-1.68,3.75-3.75c0-1.51-.9-2.81-2.2-3.4Zm-1.51,4.66c-.72,0-1.3-.58-1.3-1.3s.58-1.3,1.3-1.3,1.3.58,1.3,1.3-.58,1.3-1.3,1.3Z"/><line class="h" x1="112.92" y1="370.78" x2="115.13" y2="370.78"/><line class="h" x1="112.92" y1="372.86" x2="114.32" y2="372.86"/><path class="p" d="m123.93,375.26c-.52,0-.91.24-1.17.71v4.15h-1.31v-5.81h1.23l.04.67c.43-.52.99-.77,1.68-.77.56,0,1.01.16,1.35.49s.5.88.5,1.67v3.76h-1.31v-3.77c0-.4-.09-.68-.26-.84-.17-.16-.43-.24-.77-.24Z"/><path class="p" d="m132.38,379.13c-.19.27-.46.52-.82.75-.36.23-.84.34-1.42.34-.86,0-1.54-.27-2.04-.81s-.74-1.21-.74-2v-.22c0-.92.25-1.65.76-2.19.51-.54,1.13-.81,1.87-.81.85,0,1.47.27,1.88.81.41.54.61,1.22.61,2.06v.55h-3.8c.04.45.19.82.45,1.11.27.29.63.44,1.09.44.31,0,.59-.06.83-.19.24-.13.45-.3.62-.53l.7.67Zm-2.39-3.88c-.36,0-.65.13-.86.38s-.36.6-.42,1.04h2.48v-.1c-.02-.34-.11-.65-.28-.92-.17-.27-.47-.41-.91-.41Z"/><path class="p" d="m133.54,374.3h1.31v6.33c0,1.22-.58,1.83-1.74,1.83-.24,0-.48-.03-.7-.09v-1.03c.16.03.32.04.47.04.44,0,.66-.25.66-.76v-6.33Zm-.11-1.51c0-.2.07-.37.2-.5s.31-.2.54-.2.41.07.54.2.2.3.2.5-.07.37-.2.5-.31.2-.54.2-.41-.07-.54-.2-.2-.3-.2-.5Z"/><path class="p" d="m140.88,374.3l-2.01,5.81h-1.13l-2.03-5.81h1.35l1.26,4.15,1.22-4.15h1.35Z"/><path class="p" d="m143.99,381c-.07.19-.17.4-.31.63-.13.23-.32.43-.56.59-.24.16-.55.24-.93.24-.11,0-.22,0-.33-.03-.11-.02-.21-.04-.3-.06v-1.01s.07,0,.13.01c.05,0,.09,0,.12,0,.32,0,.57-.06.74-.17.17-.12.3-.32.4-.61l.19-.5-2.04-5.78h1.41l1.23,3.95,1.18-3.95h1.39l-2.31,6.69Z"/><path class="p" d="m150.31,378.54c0-.19-.08-.35-.23-.49s-.49-.26-1.02-.37c-.62-.13-1.12-.33-1.51-.59-.38-.26-.58-.64-.58-1.12s.2-.89.6-1.24c.4-.35.95-.52,1.64-.52.73,0,1.3.18,1.71.53.41.35.62.79.62,1.32h-1.31c0-.23-.09-.43-.26-.6-.17-.18-.43-.27-.77-.27s-.57.07-.73.22-.24.32-.24.51.08.34.24.46c.16.11.48.22.95.32.67.15,1.2.35,1.58.61.38.26.57.65.57,1.17s-.21.94-.64,1.27-1,.49-1.71.49c-.8,0-1.41-.2-1.83-.61s-.63-.85-.63-1.33h1.27c.01.36.15.61.39.75.25.14.52.21.8.21.34,0,.61-.07.79-.2.18-.13.27-.3.27-.51Zm-1.77-6.68l.79.83.78-.83h1.12v.06l-1.5,1.49h-.81l-1.49-1.5v-.05h1.11Z"/><path class="p" d="m155.99,378.54c0-.19-.08-.35-.23-.49s-.49-.26-1.02-.37c-.62-.13-1.12-.33-1.51-.59-.38-.26-.58-.64-.58-1.12s.2-.89.6-1.24c.4-.35.95-.52,1.64-.52.73,0,1.3.18,1.71.53.41.35.62.79.62,1.32h-1.31c0-.23-.09-.43-.26-.6-.17-.18-.43-.27-.77-.27s-.57.07-.73.22-.24.32-.24.51.08.34.24.46c.16.11.48.22.95.32.67.15,1.2.35,1.58.61.38.26.57.65.57,1.17s-.21.94-.64,1.27-1,.49-1.71.49c-.8,0-1.41-.2-1.83-.61s-.63-.85-.63-1.33h1.27c.01.36.15.61.39.75.25.14.52.21.8.21.34,0,.61-.07.79-.2.18-.13.27-.3.27-.51Zm-1.77-6.68l.79.83.78-.83h1.12v.06l-1.5,1.49h-.81l-1.49-1.5v-.05h1.11Z"/><path class="p" d="m159.82,374.3v5.81h-1.31v-5.81h1.31Zm-1.3-.78l1.05-1.62h1.49l-1.49,1.62h-1.05Z"/><path class="p" d="m167.88,380.12l-.05-.62c-.4.49-.95.73-1.66.73s-1.24-.28-1.66-.84c-.42-.56-.63-1.26-.63-2.11v-.11c0-.89.21-1.6.63-2.15.42-.54.98-.82,1.67-.82s1.22.23,1.61.69v-3.02h1v8.25h-.91Zm-3-2.84c0,.58.12,1.07.37,1.48.24.41.63.62,1.17.62.35,0,.63-.08.85-.24s.39-.36.53-.61v-2.67c-.13-.24-.3-.44-.52-.59-.22-.16-.5-.23-.84-.23-.54,0-.93.21-1.18.63-.25.42-.37.92-.37,1.5v.11Z"/><path class="p" d="m174.93,379.1c-.19.29-.46.55-.81.78-.35.23-.81.35-1.38.35-.81,0-1.46-.26-1.94-.79-.49-.53-.73-1.2-.73-2.02v-.23c0-.63.12-1.17.36-1.62.24-.45.56-.79.94-1.02.39-.23.8-.35,1.24-.35.83,0,1.44.27,1.82.81.38.54.57,1.22.57,2.03v.45h-3.93c.01.53.17.99.48,1.36.3.37.72.56,1.25.56.35,0,.65-.07.89-.21s.46-.33.64-.57l.6.48Zm-2.31-4.09c-.39,0-.73.14-1,.43s-.44.7-.51,1.24h2.91v-.08c-.02-.39-.14-.75-.34-1.08-.2-.34-.55-.5-1.06-.5Z"/><path class="p" d="m178.58,375.03c-.32,0-.6.09-.84.26s-.44.4-.57.67v4.15h-.99v-5.81h.94l.03.73c.44-.56,1.02-.83,1.73-.83.57,0,1.03.16,1.36.48.33.32.5.86.5,1.63v3.81h-1v-3.82c0-.45-.1-.78-.3-.97-.2-.19-.49-.29-.86-.29Z"/><path class="p" d="m184.66,375.03c-.32,0-.6.09-.84.26s-.44.4-.57.67v4.15h-.99v-5.81h.94l.03.73c.44-.56,1.02-.83,1.73-.83.57,0,1.03.16,1.36.48.33.32.5.86.5,1.63v3.81h-1v-3.82c0-.45-.1-.78-.3-.97-.2-.19-.49-.29-.86-.29Z"/><path class="p" d="m188.37,373.46l1.04-1.58h1.2l-1.44,1.58h-.8Zm1.03.85v5.81h-.99v-5.81h.99Z"/><path class="p" d="m196.23,380.12c-.08.02-.18.05-.31.07-.13.02-.28.04-.46.04-.37,0-.68-.11-.95-.34s-.39-.63-.39-1.21v-3.6h-1.06v-.76h1.06v-1.41h.99v1.41h1.08v.76h-1.08v3.61c0,.3.06.49.19.57s.28.12.45.12c.08,0,.17,0,.26-.02.09-.02.16-.03.21-.04v.81Z"/><path class="p" d="m201.97,379.1c-.19.29-.46.55-.81.78-.35.23-.81.35-1.38.35-.81,0-1.46-.26-1.94-.79-.49-.53-.73-1.2-.73-2.02v-.23c0-.63.12-1.17.36-1.62.24-.45.56-.79.94-1.02.39-.23.8-.35,1.24-.35.83,0,1.44.27,1.82.81.38.54.57,1.22.57,2.03v.45h-3.93c.01.53.17.99.48,1.36.3.37.72.56,1.25.56.35,0,.65-.07.89-.21s.46-.33.64-.57l.6.48Zm-2.31-4.09c-.39,0-.73.14-1,.43s-.44.7-.51,1.24h2.91v-.08c-.02-.39-.14-.75-.34-1.08-.2-.34-.55-.5-1.06-.5Z"/><path class="p" d="m205.86,380.22c-.7,0-1.25-.22-1.66-.67v2.8h-1v-8.05h.91l.05.64c.41-.5.97-.75,1.68-.75s1.3.27,1.69.82.59,1.26.59,2.15v.11c0,.85-.2,1.55-.59,2.11-.39.56-.95.84-1.67.84Zm-.31-5.19c-.34,0-.61.08-.83.23-.22.15-.39.34-.52.57v2.78c.13.23.31.42.52.57.22.15.5.22.84.22.54,0,.93-.21,1.18-.63.25-.42.37-.92.37-1.5v-.11c0-.58-.12-1.08-.37-1.5-.25-.42-.65-.63-1.19-.63Z"/><path class="p" d="m210.46,371.87v8.25h-1v-8.25h1Z"/><path class="p" d="m211.79,377.27v-.12c0-.84.24-1.54.71-2.11.47-.56,1.12-.85,1.93-.85s1.47.28,1.94.85c.47.56.71,1.27.71,2.11v.12c0,.84-.24,1.54-.71,2.11-.47.56-1.12.84-1.93.84s-1.46-.28-1.94-.84c-.47-.56-.71-1.26-.71-2.11Zm.99-.12v.12c0,.58.14,1.08.41,1.5.27.42.69.63,1.24.63s.95-.21,1.23-.63.41-.92.41-1.5v-.12c0-.57-.14-1.07-.41-1.5-.28-.43-.69-.64-1.24-.64s-.96.21-1.23.64c-.27.43-.41.93-.41,1.5Z"/><path class="p" d="m220.79,380.12c-.08.02-.18.05-.31.07-.13.02-.28.04-.46.04-.37,0-.68-.11-.95-.34s-.39-.63-.39-1.21v-3.6h-1.06v-.76h1.06v-1.41h.99v1.41h1.08v.76h-1.08v3.61c0,.3.06.49.19.57s.28.12.45.12c.08,0,.17,0,.26-.02.09-.02.16-.03.21-.04v.81Z"/><path class="p" d="m223.91,381.01c-.07.19-.18.4-.31.63-.14.23-.32.42-.54.58-.23.16-.52.24-.87.24-.08,0-.18,0-.3-.03-.12-.02-.21-.04-.26-.06v-.81c.07.01.16.02.26.02.34,0,.6-.07.79-.21.19-.14.35-.39.47-.74l.21-.59-2.07-5.75h1.08l1.46,4.35,1.35-4.35h1.06l-2.33,6.71Z"/></g><g class="y"><path class="p" d="m28.11,378.63c0,.73-.24,1.29-.71,1.68-.47.39-1.1.58-1.88.58h-2.74v-7.82h2.56c.8,0,1.43.17,1.88.5.45.33.67.86.67,1.59,0,.36-.1.68-.31.96-.21.28-.49.5-.85.65.44.12.78.35,1.01.69.23.34.35.73.35,1.17Zm-4.29-4.72v2.48h1.56c.44,0,.8-.11,1.07-.33s.41-.53.41-.92c0-.82-.5-1.22-1.51-1.22h-1.53Zm3.25,4.73c0-.44-.12-.78-.36-1.03-.24-.25-.62-.38-1.15-.38h-1.75v2.81h1.7c.49,0,.87-.13,1.14-.38.27-.25.41-.59.41-1.02Z"/><path class="p" d="m31.81,375.92c-.34,0-.62.08-.84.23-.22.15-.38.35-.49.61v4.12h-.99v-5.81h.97l.02.67c.15-.24.33-.42.56-.56.23-.14.5-.21.82-.21.19,0,.33.02.44.08v.92c-.15-.03-.31-.04-.49-.04Z"/><path class="p" d="m35.63,375.8c-.32,0-.6.09-.84.26s-.44.4-.57.67v4.15h-.99v-5.81h.94l.03.73c.44-.56,1.02-.83,1.73-.83.57,0,1.03.16,1.36.48.33.32.5.86.5,1.63v3.81h-1v-3.82c0-.45-.1-.78-.3-.97-.2-.19-.49-.29-.86-.29Z"/><path class="p" d="m39.03,378.04v-.12c0-.84.24-1.54.71-2.11.47-.56,1.12-.85,1.93-.85s1.47.28,1.94.85c.47.56.71,1.27.71,2.11v.12c0,.84-.24,1.54-.71,2.11-.47.56-1.12.84-1.93.84s-1.46-.28-1.94-.84c-.47-.56-.71-1.26-.71-2.11Zm.99-.12v.12c0,.58.14,1.08.41,1.5.27.42.69.63,1.24.63s.95-.21,1.23-.63.41-.92.41-1.5v-.12c0-.57-.14-1.07-.41-1.5-.28-.43-.69-.64-1.24-.64s-.96.21-1.23.64c-.27.43-.41.93-.41,1.5Z"/><path class="p" d="m48.19,377.15v.82h-2.62v-.82h2.62Z"/><path class="p" d="m48.1,373.91v-.85h6.04v.85h-2.51v6.97h-1.02v-6.97h-2.51Z"/><path class="p" d="m58.24,380.88l-.02-.57c-.18.21-.41.38-.69.5-.28.12-.62.18-1.01.18-.57,0-1.03-.17-1.38-.5s-.53-.89-.53-1.67v-3.75h.99v3.76c0,.52.11.87.33,1.05.22.18.47.27.74.27.4,0,.73-.08.97-.23s.42-.36.54-.61v-4.23h1v5.81h-.95Z"/><path class="p" d="m61.32,372.64l.81.91.81-.91h.86v.05l-1.36,1.47h-.61l-1.34-1.47v-.05h.84Zm1.7,3.28c-.34,0-.62.08-.84.23-.22.15-.38.35-.49.61v4.12h-.99v-5.81h.97l.02.67c.15-.24.33-.42.56-.56.23-.14.5-.21.82-.21.19,0,.33.02.44.08v.92c-.15-.03-.31-.04-.49-.04Z"/><path class="p" d="m67.8,380.88c-.06-.14-.11-.34-.14-.61-.19.2-.42.37-.7.51-.28.14-.6.21-.96.21-.59,0-1.07-.17-1.43-.5s-.54-.74-.54-1.22c0-.62.24-1.1.71-1.42.47-.32,1.11-.49,1.91-.49h.98v-.46c0-.34-.1-.62-.31-.82-.21-.21-.51-.31-.92-.31-.38,0-.68.09-.91.28-.23.18-.35.4-.35.64h-.99c0-.42.21-.81.63-1.17s.98-.55,1.68-.55c.63,0,1.15.16,1.55.48s.61.81.61,1.46v2.71c0,.19.02.4.05.62.03.22.09.41.15.56v.09h-1.04Zm-1.65-.76c.36,0,.67-.09.93-.27.26-.18.45-.38.56-.6v-1.2h-.82c-1.19,0-1.78.36-1.78,1.07,0,.28.09.51.28.7.19.19.46.29.83.29Z"/><path class="p" d="m72.61,375.8c-.32,0-.6.09-.84.26s-.44.4-.57.67v4.15h-.99v-5.81h.94l.03.73c.44-.56,1.02-.83,1.73-.83.57,0,1.03.16,1.36.48.33.32.5.86.5,1.63v3.81h-1v-3.82c0-.45-.1-.78-.3-.97-.2-.19-.49-.29-.86-.29Z"/><path class="p" d="m78.26,381.78c-.07.19-.18.4-.31.63-.14.23-.32.42-.54.58-.23.16-.52.24-.87.24-.08,0-.18,0-.3-.03-.12-.02-.21-.04-.26-.06v-.81c.07.01.16.02.26.02.34,0,.6-.07.79-.21.19-.14.35-.39.47-.74l.21-.59-2.07-5.75h1.08l1.46,4.35,1.35-4.35h1.06l-2.33,6.71Z"/><path class="h" d="m11.15,370.53c-2.8,0-5.07,2.27-5.07,5.07s5.07,9.03,5.07,9.03c0,0,5.06-6.24,5.06-9.03s-2.27-5.07-5.06-5.07Zm0,7.21c-1.3,0-2.35-1.05-2.35-2.35s1.05-2.35,2.35-2.35,2.35,1.05,2.35,2.35-1.05,2.35-2.35,2.35Z"/></g><g class="y"><path class="p" d="m270.27,375.86c-.34,0-.62.08-.84.23-.22.15-.38.35-.49.61v4.12h-.99v-5.81h.97l.02.67c.15-.24.33-.42.56-.56.23-.14.5-.21.82-.21.19,0,.33.02.44.08v.92c-.15-.03-.31-.04-.49-.04Z"/><path class="p" d="m276.17,379.81c-.19.29-.46.55-.81.78-.35.23-.81.35-1.38.35-.81,0-1.46-.26-1.94-.79-.49-.53-.73-1.2-.73-2.02v-.23c0-.63.12-1.17.36-1.62.24-.45.56-.79.94-1.02.39-.23.8-.35,1.24-.35.83,0,1.44.27,1.82.81.38.54.57,1.22.57,2.03v.45h-3.93c.01.53.17.99.48,1.36.3.37.72.56,1.25.56.35,0,.65-.07.89-.21s.46-.33.64-.57l.6.48Zm-2.31-4.09c-.39,0-.73.14-1,.43s-.44.7-.51,1.24h2.91v-.08c-.02-.39-.14-.75-.34-1.08-.2-.34-.55-.5-1.06-.5Z"/><path class="p" d="m280.13,375.78h-1.24v5.05h-.99v-5.05h-.92v-.76h.92v-.61c0-.63.17-1.11.51-1.44.34-.33.8-.5,1.4-.5.22,0,.45.03.69.09l-.05.81c-.15-.03-.33-.05-.54-.05-.67,0-1.01.36-1.01,1.09v.61h1.24v.76Z"/><path class="p" d="m285.7,379.81c-.19.29-.46.55-.81.78-.35.23-.81.35-1.38.35-.81,0-1.46-.26-1.94-.79-.49-.53-.73-1.2-.73-2.02v-.23c0-.63.12-1.17.36-1.62.24-.45.56-.79.94-1.02.39-.23.8-.35,1.24-.35.83,0,1.44.27,1.82.81.38.54.57,1.22.57,2.03v.45h-3.93c.01.53.17.99.48,1.36.3.37.72.56,1.25.56.35,0,.65-.07.89-.21s.46-.33.64-.57l.6.48Zm-2.31-4.09c-.39,0-.73.14-1,.43s-.44.7-.51,1.24h2.91v-.08c-.02-.39-.14-.75-.34-1.08-.2-.34-.55-.5-1.06-.5Z"/><path class="p" d="m289.26,375.86c-.34,0-.62.08-.84.23-.22.15-.38.35-.49.61v4.12h-.99v-5.81h.97l.02.67c.15-.24.33-.42.56-.56.23-.14.5-.21.82-.21.19,0,.33.02.44.08v.92c-.15-.03-.31-.04-.49-.04Z"/><path class="p" d="m295.16,379.81c-.19.29-.46.55-.81.78-.35.23-.81.35-1.38.35-.81,0-1.46-.26-1.94-.79-.49-.53-.73-1.2-.73-2.02v-.23c0-.63.12-1.17.36-1.62.24-.45.56-.79.94-1.02.39-.23.8-.35,1.24-.35.83,0,1.44.27,1.82.81.38.54.57,1.22.57,2.03v.45h-3.93c.01.53.17.99.48,1.36.3.37.72.56,1.25.56.35,0,.65-.07.89-.21s.46-.33.64-.57l.6.48Zm-2.31-4.09c-.39,0-.73.14-1,.43s-.44.7-.51,1.24h2.91v-.08c-.02-.39-.14-.75-.34-1.08-.2-.34-.55-.5-1.06-.5Z"/><path class="p" d="m298.81,375.75c-.32,0-.6.09-.84.26s-.44.4-.57.67v4.15h-.99v-5.81h.94l.03.73c.44-.56,1.02-.83,1.73-.83.57,0,1.03.16,1.36.48.33.32.5.86.5,1.63v3.81h-1v-3.82c0-.45-.1-.78-.3-.97-.2-.19-.49-.29-.86-.29Z"/><path class="p" d="m304.8,380.12c.35,0,.67-.11.93-.32.27-.21.41-.48.44-.81h.95c-.02.52-.26.97-.71,1.36-.45.39-.98.58-1.6.58-.87,0-1.52-.29-1.95-.86-.42-.58-.64-1.25-.64-2.04v-.23c0-.78.21-1.46.64-2.04.42-.58,1.07-.86,1.95-.86.68,0,1.23.2,1.65.6.42.4.64.9.67,1.5h-.95c-.02-.36-.16-.66-.41-.91-.25-.25-.57-.38-.96-.38s-.73.1-.96.31c-.23.21-.39.47-.49.79-.1.32-.14.65-.14.98v.23c0,.34.05.67.14.99s.25.58.49.79c.23.21.55.31.96.31Zm-1.04-7.54l.81.91.81-.91h.86v.05l-1.36,1.47h-.61l-1.34-1.47v-.05h.84Z"/><path class="p" d="m310.64,375.75c-.32,0-.6.09-.84.26s-.44.4-.57.67v4.15h-.99v-5.81h.94l.03.73c.44-.56,1.02-.83,1.73-.83.57,0,1.03.16,1.36.48.33.32.5.86.5,1.63v3.81h-1v-3.82c0-.45-.1-.78-.3-.97-.2-.19-.49-.29-.86-.29Z"/><path class="p" d="m314.35,374.17l1.04-1.58h1.2l-1.44,1.58h-.8Zm1.03.85v5.81h-.99v-5.81h.99Z"/><path class="p" d="m319.49,377.99v-.12c0-.84.24-1.54.71-2.11.47-.56,1.12-.85,1.93-.85s1.47.28,1.94.85c.47.56.71,1.27.71,2.11v.12c0,.84-.24,1.54-.71,2.11-.47.56-1.12.84-1.93.84s-1.46-.28-1.94-.84c-.47-.56-.71-1.26-.71-2.11Zm.99-.12v.12c0,.58.14,1.08.41,1.5.27.42.69.63,1.24.63s.95-.21,1.23-.63.41-.92.41-1.5v-.12c0-.57-.14-1.07-.41-1.5-.28-.43-.69-.64-1.24-.64s-.96.21-1.23.64c-.27.43-.41.93-.41,1.5Z"/><path class="p" d="m330.95,377.99c0,.85-.2,1.55-.59,2.11s-.95.84-1.67.84-1.3-.26-1.7-.78l-.05.67h-.91v-8.25h1v3.07c.39-.49.95-.74,1.65-.74s1.29.27,1.68.82c.39.54.59,1.26.59,2.15v.11Zm-2.52-2.24c-.36,0-.66.09-.88.26-.23.17-.4.39-.53.64v2.53c.13.26.31.47.54.65s.52.26.88.26c.54,0,.92-.21,1.16-.62.23-.41.35-.91.35-1.48v-.11c0-.58-.11-1.08-.34-1.5-.22-.42-.62-.63-1.18-.63Z"/><path class="p" d="m335.95,380.83l-.05-.62c-.4.49-.95.73-1.66.73s-1.24-.28-1.66-.84c-.42-.56-.63-1.26-.63-2.11v-.11c0-.89.21-1.6.63-2.15.42-.54.98-.82,1.67-.82s1.22.23,1.61.69v-3.02h1v8.25h-.91Zm-3-2.84c0,.58.12,1.07.37,1.48.24.41.63.62,1.17.62.35,0,.63-.08.85-.24s.39-.36.53-.61v-2.67c-.13-.24-.3-.44-.52-.59-.22-.16-.5-.23-.84-.23-.54,0-.93.21-1.18.63-.25.42-.37.92-.37,1.5v.11Z"/><path class="p" d="m338.15,377.99v-.12c0-.84.24-1.54.71-2.11.47-.56,1.12-.85,1.93-.85s1.47.28,1.94.85c.47.56.71,1.27.71,2.11v.12c0,.84-.24,1.54-.71,2.11-.47.56-1.12.84-1.93.84s-1.46-.28-1.94-.84c-.47-.56-.71-1.26-.71-2.11Zm.99-.12v.12c0,.58.14,1.08.41,1.5.27.42.69.63,1.24.63s.95-.21,1.23-.63.41-.92.41-1.5v-.12c0-.57-.14-1.07-.41-1.5-.28-.43-.69-.64-1.24-.64s-.96.21-1.23.64c-.27.43-.41.93-.41,1.5Z"/><path class="p" d="m349.6,377.99c0,.85-.2,1.55-.59,2.11s-.95.84-1.67.84-1.3-.26-1.7-.78l-.05.67h-.91v-8.25h1v3.07c.39-.49.95-.74,1.65-.74s1.29.27,1.68.82c.39.54.59,1.26.59,2.15v.11Zm-2.52-2.24c-.36,0-.66.09-.88.26-.23.17-.4.39-.53.64v2.53c.13.26.31.47.54.65s.52.26.88.26c.54,0,.92-.21,1.16-.62.23-.41.35-.91.35-1.48v-.11c0-.58-.11-1.08-.34-1.5-.22-.42-.62-.63-1.18-.63Z"/><path class="p" d="m350.91,374.17l1.04-1.58h1.2l-1.44,1.58h-.8Zm1.03.85v5.81h-.99v-5.81h.99Z"/><path class="p" d="m359.68,372.98v7.85h-1.31v-6.28l-1.92.66v-1.1l3.06-1.12h.17Z"/><path class="p" d="m367.41,376.5c0,.75-.11,1.46-.34,2.12-.22.66-.62,1.2-1.17,1.62-.56.41-1.34.62-2.35.62h-.11v-1.08h.1c.93,0,1.58-.21,1.95-.64.36-.43.57-.96.61-1.59-.2.21-.43.38-.69.5-.26.13-.54.19-.85.19-.76,0-1.32-.26-1.69-.79-.37-.53-.56-1.14-.56-1.82,0-.75.22-1.39.66-1.93s1.06-.8,1.86-.8c.86,0,1.5.31,1.93.94.43.63.64,1.37.64,2.24v.42Zm-3.81-.91c0,.43.1.8.3,1.14.2.33.51.5.93.5.28,0,.54-.08.77-.24.23-.16.4-.36.51-.6v-.51c0-.63-.13-1.1-.38-1.43-.26-.32-.55-.49-.89-.49-.39,0-.69.16-.91.48-.21.32-.32.71-.32,1.16Z"/><path class="p" d="m373.85,378.27c0,.75-.22,1.38-.66,1.9-.44.52-1.07.77-1.87.77-.57,0-1.04-.14-1.43-.43-.39-.29-.69-.66-.89-1.13-.2-.47-.3-.97-.3-1.51v-.51c0-.77.13-1.49.38-2.16s.66-1.2,1.22-1.61c.57-.41,1.32-.61,2.26-.61h.15v1.07h-.09c-.85,0-1.48.22-1.88.66s-.64.97-.71,1.6c.41-.43.94-.65,1.6-.65.76,0,1.32.27,1.69.8.36.53.54,1.14.54,1.82Zm-3.86-.28c0,.63.13,1.1.39,1.42.26.32.56.48.92.48.39,0,.7-.15.93-.45.22-.3.34-.68.34-1.14,0-.43-.11-.81-.32-1.13-.21-.32-.53-.48-.94-.48-.3,0-.57.09-.81.26-.23.17-.4.38-.5.62v.4Z"/><path class="p" d="m378.43,372.98v7.85h-1.31v-6.28l-1.92.66v-1.1l3.06-1.12h.17Z"/><path class="p" d="m386.87,376.43v1.05h-5.47v-1.05h5.47Z"/><path class="p" d="m391.78,372.98v7.85h-1.31v-6.28l-1.92.66v-1.1l3.06-1.12h.17Z"/><path class="p" d="m399.51,376.5c0,.75-.11,1.46-.34,2.12-.22.66-.62,1.2-1.17,1.62-.56.41-1.34.62-2.35.62h-.11v-1.08h.1c.93,0,1.58-.21,1.95-.64.36-.43.57-.96.61-1.59-.2.21-.43.38-.69.5-.26.13-.54.19-.85.19-.76,0-1.32-.26-1.69-.79-.37-.53-.56-1.14-.56-1.82,0-.75.22-1.39.66-1.93s1.06-.8,1.86-.8c.86,0,1.5.31,1.93.94.43.63.64,1.37.64,2.24v.42Zm-3.81-.91c0,.43.1.8.3,1.14.2.33.51.5.93.5.28,0,.54-.08.77-.24.23-.16.4-.36.51-.6v-.51c0-.63-.13-1.1-.38-1.43-.26-.32-.55-.49-.89-.49-.39,0-.69.16-.91.48-.21.32-.32.71-.32,1.16Z"/><path class="p" d="m405.84,378.7c0,.73-.24,1.28-.73,1.67-.49.38-1.1.57-1.82.57s-1.34-.19-1.83-.58c-.49-.39-.74-.94-.74-1.66,0-.43.11-.81.34-1.14.23-.33.53-.58.92-.76-.34-.17-.6-.41-.8-.71-.2-.3-.29-.64-.29-1.02,0-.69.22-1.22.67-1.6.45-.38,1.02-.56,1.72-.56s1.27.19,1.72.56c.45.38.67.91.67,1.6,0,.38-.1.72-.3,1.02s-.46.54-.8.71c.39.18.69.43.92.76.23.33.34.71.34,1.14Zm-1.31-.07c0-.39-.12-.7-.35-.94-.23-.24-.54-.36-.92-.36s-.69.12-.91.36c-.23.24-.34.55-.34.94s.11.7.34.93c.23.22.53.34.92.34s.7-.11.92-.34c.22-.22.33-.53.33-.93Zm-.17-3.51c0-.34-.1-.62-.29-.84-.2-.22-.46-.32-.79-.32s-.59.1-.79.31c-.2.21-.3.49-.3.85s.1.63.29.85c.2.21.46.32.8.32s.6-.11.79-.32.29-.5.29-.85Z"/><path class="p" d="m412.09,376.27v1.26c0,1.24-.23,2.12-.7,2.63-.46.52-1.08.77-1.86.77s-1.39-.26-1.86-.77-.71-1.39-.71-2.63v-1.26c0-1.24.23-2.11.7-2.62s1.09-.75,1.85-.75,1.39.25,1.86.75c.47.5.7,1.37.7,2.62Zm-1.3,1.45v-1.65c0-.79-.11-1.34-.33-1.65-.22-.31-.53-.47-.93-.47s-.71.16-.92.47c-.22.31-.33.86-.33,1.65v1.65c0,.79.11,1.35.33,1.68.22.33.53.49.93.49s.71-.16.93-.49c.21-.33.32-.89.32-1.68Z"/><rect class="h" x="250.09" y="372.27" width="11.9" height="11.65" rx="2" ry="2"/><line class="h" x1="250.09" y1="375.33" x2="261.98" y2="375.33"/><line class="h" x1="252.81" y1="371.01" x2="252.81" y2="373"/><line class="h" x1="256.03" y1="371.01" x2="256.03" y2="373"/><line class="h" x1="259.26" y1="371.01" x2="259.26" y2="373"/><rect class="h" x="252.4" y="377.58" width=".81" height=".81"/><rect class="h" x="252.4" y="380.83" width=".81" height=".81"/><rect class="h" x="255.62" y="377.57" width=".82" height=".82"/><circle class="l" cx="259.78" cy="381.73" r="3.74"/><polyline class="m" points="258.02 382.08 259.2 383.26 261.55 380.92"/></g><path class="p" d="m258.32,340.12v.96h-6.05v-.84l3.03-3.37c.56-.62.94-1.11,1.13-1.47.19-.36.29-.72.29-1.08,0-.45-.14-.84-.42-1.16-.28-.32-.68-.48-1.19-.48-.62,0-1.08.18-1.38.53s-.46.8-.46,1.35h-1.17c0-.78.26-1.45.77-2.01s1.26-.84,2.25-.84c.87,0,1.55.23,2.05.68.49.45.74,1.05.74,1.79,0,.55-.17,1.1-.51,1.65-.34.55-.75,1.09-1.22,1.6l-2.48,2.69h4.63Z"/><path class="p" d="m265.37,335.72v1.41c0,1.52-.26,2.57-.78,3.17-.52.6-1.23.9-2.13.9s-1.59-.3-2.13-.9-.8-1.66-.8-3.17v-1.41c0-1.51.26-2.56.79-3.14.53-.58,1.24-.87,2.12-.87s1.61.29,2.14.87c.53.58.79,1.63.79,3.14Zm-1.18,1.6v-1.8c0-1.04-.15-1.78-.44-2.21s-.73-.65-1.3-.65-.99.22-1.29.65c-.3.43-.45,1.17-.45,2.21v1.8c0,1.03.15,1.78.45,2.23.3.46.73.69,1.29.69s1.01-.23,1.3-.69c.29-.46.44-1.2.44-2.23Z"/><path class="p" d="m272.67,335.72v1.41c0,1.52-.26,2.57-.78,3.17-.52.6-1.23.9-2.13.9s-1.59-.3-2.13-.9-.8-1.66-.8-3.17v-1.41c0-1.51.26-2.56.79-3.14.53-.58,1.24-.87,2.12-.87s1.61.29,2.14.87c.53.58.79,1.63.79,3.14Zm-1.18,1.6v-1.8c0-1.04-.15-1.78-.44-2.21s-.73-.65-1.3-.65-.99.22-1.29.65c-.3.43-.45,1.17-.45,2.21v1.8c0,1.03.15,1.78.45,2.23.3.46.73.69,1.29.69s1.01-.23,1.3-.69c.29-.46.44-1.2.44-2.23Z"/><path class="p" d="m278.04,331.79v9.29h-1.17v-7.83l-2.37.86v-1.06l3.36-1.27h.18Z"/><path class="p" d="m288.1,335.98v.96h-6.36v-.96h6.36Z"/><path class="p" d="m296.07,340.12v.96h-6.05v-.84l3.03-3.37c.56-.62.94-1.11,1.13-1.47.19-.36.29-.72.29-1.08,0-.45-.14-.84-.42-1.16-.28-.32-.68-.48-1.19-.48-.62,0-1.08.18-1.38.53s-.46.8-.46,1.35h-1.17c0-.78.26-1.45.77-2.01s1.26-.84,2.25-.84c.87,0,1.55.23,2.05.68.49.45.74,1.05.74,1.79,0,.55-.17,1.1-.51,1.65-.34.55-.75,1.09-1.22,1.6l-2.48,2.69h4.63Z"/><path class="p" d="m303.12,335.72v1.41c0,1.52-.26,2.57-.78,3.17-.52.6-1.23.9-2.13.9s-1.59-.3-2.13-.9-.8-1.66-.8-3.17v-1.41c0-1.51.26-2.56.79-3.14.53-.58,1.24-.87,2.12-.87s1.61.29,2.14.87c.53.58.79,1.63.79,3.14Zm-1.18,1.6v-1.8c0-1.04-.15-1.78-.44-2.21s-.73-.65-1.3-.65-.99.22-1.29.65c-.3.43-.45,1.17-.45,2.21v1.8c0,1.03.15,1.78.45,2.23.3.46.73.69,1.29.69s1.01-.23,1.3-.69c.29-.46.44-1.2.44-2.23Z"/><path class="p" d="m310.68,340.12v.96h-6.05v-.84l3.03-3.37c.56-.62.94-1.11,1.13-1.47.19-.36.29-.72.29-1.08,0-.45-.14-.84-.42-1.16-.28-.32-.68-.48-1.19-.48-.62,0-1.08.18-1.38.53s-.46.8-.46,1.35h-1.17c0-.78.26-1.45.77-2.01s1.26-.84,2.25-.84c.87,0,1.55.23,2.05.68.49.45.74,1.05.74,1.79,0,.55-.17,1.1-.51,1.65-.34.55-.75,1.09-1.22,1.6l-2.48,2.69h4.63Z"/><path class="p" d="m317.74,335.72v1.41c0,1.52-.26,2.57-.78,3.17-.52.6-1.23.9-2.13.9s-1.59-.3-2.13-.9-.8-1.66-.8-3.17v-1.41c0-1.51.26-2.56.79-3.14.53-.58,1.24-.87,2.12-.87s1.61.29,2.14.87c.53.58.79,1.63.79,3.14Zm-1.18,1.6v-1.8c0-1.04-.15-1.78-.44-2.21s-.73-.65-1.3-.65-.99.22-1.29.65c-.3.43-.45,1.17-.45,2.21v1.8c0,1.03.15,1.78.45,2.23.3.46.73.69,1.29.69s1.01-.23,1.3-.69c.29-.46.44-1.2.44-2.23Z"/><path class="p" d="m157.86,331.79v9.29h-1.17v-7.83l-2.37.86v-1.06l3.36-1.27h.18Z"/><path class="p" d="m166.99,335.88c0,.6-.05,1.21-.16,1.82-.1.61-.3,1.17-.6,1.69-.3.51-.74.93-1.32,1.24s-1.35.47-2.31.47h-.12v-1h.12c.85,0,1.5-.15,1.96-.44s.78-.67.96-1.15c.18-.47.28-.97.3-1.51-.25.29-.54.53-.88.71s-.72.27-1.12.27c-.61,0-1.11-.15-1.5-.46s-.68-.69-.86-1.16c-.19-.47-.28-.96-.28-1.46,0-.88.24-1.63.73-2.26.48-.62,1.2-.94,2.14-.94.7,0,1.27.18,1.7.55.43.36.75.83.95,1.4.2.57.29,1.17.29,1.79v.43Zm-4.66-1.03c0,.55.14,1.05.42,1.5.28.45.7.67,1.26.67.4,0,.77-.12,1.09-.36.33-.24.57-.54.72-.9v-.46c0-.84-.18-1.49-.54-1.94-.36-.45-.77-.67-1.24-.67-.55,0-.97.21-1.27.62-.3.41-.45.93-.45,1.54Z"/><path class="p" d="m174.44,338.58c0,.85-.28,1.5-.85,1.95-.56.45-1.26.68-2.09.68s-1.53-.23-2.09-.68c-.57-.45-.85-1.1-.85-1.95,0-.52.14-.97.42-1.37.28-.4.65-.69,1.13-.9-.41-.2-.74-.48-.97-.84-.24-.36-.36-.77-.36-1.23,0-.81.26-1.43.77-1.87.51-.44,1.17-.66,1.95-.66s1.44.22,1.96.66c.51.44.77,1.06.77,1.87,0,.46-.12.87-.37,1.23-.25.36-.57.64-.98.84.48.2.86.5,1.14.9s.43.85.43,1.36Zm-1.18-.03c0-.52-.16-.94-.49-1.26-.33-.33-.75-.49-1.28-.49s-.96.16-1.28.49c-.32.33-.47.75-.47,1.26s.16.95.47,1.24c.31.3.75.44,1.29.44s.98-.15,1.29-.44.47-.71.47-1.24Zm-.21-4.29c0-.46-.14-.84-.43-1.14-.29-.3-.66-.45-1.12-.45s-.83.14-1.12.43c-.28.29-.43.67-.43,1.16s.14.86.43,1.15.66.43,1.12.43.83-.14,1.12-.43c.29-.29.43-.67.43-1.15Z"/><path class="p" d="m179.78,331.79v9.29h-1.17v-7.83l-2.37.86v-1.06l3.36-1.27h.18Z"/><path class="p" d="m189.84,335.98v.96h-6.36v-.96h6.36Z"/><path class="p" d="m197.82,340.12v.96h-6.05v-.84l3.03-3.37c.56-.62.94-1.11,1.13-1.47.19-.36.29-.72.29-1.08,0-.45-.14-.84-.42-1.16-.28-.32-.68-.48-1.19-.48-.62,0-1.08.18-1.38.53s-.46.8-.46,1.35h-1.17c0-.78.26-1.45.77-2.01s1.26-.84,2.25-.84c.87,0,1.55.23,2.05.68.49.45.74,1.05.74,1.79,0,.55-.17,1.1-.51,1.65-.34.55-.75,1.09-1.22,1.6l-2.48,2.69h4.63Z"/><path class="p" d="m204.87,335.72v1.41c0,1.52-.26,2.57-.78,3.17-.52.6-1.23.9-2.13.9s-1.59-.3-2.13-.9-.8-1.66-.8-3.17v-1.41c0-1.51.26-2.56.79-3.14.53-.58,1.24-.87,2.12-.87s1.61.29,2.14.87c.53.58.79,1.63.79,3.14Zm-1.18,1.6v-1.8c0-1.04-.15-1.78-.44-2.21s-.73-.65-1.3-.65-.99.22-1.29.65c-.3.43-.45,1.17-.45,2.21v1.8c0,1.03.15,1.78.45,2.23.3.46.73.69,1.29.69s1.01-.23,1.3-.69c.29-.46.44-1.2.44-2.23Z"/><path class="p" d="m212.17,335.72v1.41c0,1.52-.26,2.57-.78,3.17-.52.6-1.23.9-2.13.9s-1.59-.3-2.13-.9-.8-1.66-.8-3.17v-1.41c0-1.51.26-2.56.79-3.14.53-.58,1.24-.87,2.12-.87s1.61.29,2.14.87c.53.58.79,1.63.79,3.14Zm-1.18,1.6v-1.8c0-1.04-.15-1.78-.44-2.21s-.73-.65-1.3-.65-.99.22-1.29.65c-.3.43-.45,1.17-.45,2.21v1.8c0,1.03.15,1.78.45,2.23.3.46.73.69,1.29.69s1.01-.23,1.3-.69c.29-.46.44-1.2.44-2.23Z"/><path class="p" d="m219.48,335.72v1.41c0,1.52-.26,2.57-.78,3.17-.52.6-1.23.9-2.13.9s-1.59-.3-2.13-.9-.8-1.66-.8-3.17v-1.41c0-1.51.26-2.56.79-3.14.53-.58,1.24-.87,2.12-.87s1.61.29,2.14.87c.53.58.79,1.63.79,3.14Zm-1.18,1.6v-1.8c0-1.04-.15-1.78-.44-2.21s-.73-.65-1.3-.65-.99.22-1.29.65c-.3.43-.45,1.17-.45,2.21v1.8c0,1.03.15,1.78.45,2.23.3.46.73.69,1.29.69s1.01-.23,1.3-.69c.29-.46.44-1.2.44-2.23Z"/><path class="p" d="m60.09,331.79v9.29h-1.17v-7.83l-2.37.86v-1.06l3.36-1.27h.18Z"/><path class="p" d="m69.22,335.88c0,.6-.05,1.21-.16,1.82-.1.61-.3,1.17-.6,1.69-.3.51-.74.93-1.32,1.24s-1.35.47-2.31.47h-.12v-1h.12c.85,0,1.5-.15,1.96-.44s.78-.67.96-1.15c.18-.47.28-.97.3-1.51-.25.29-.54.53-.88.71s-.72.27-1.12.27c-.61,0-1.11-.15-1.5-.46s-.68-.69-.86-1.16c-.19-.47-.28-.96-.28-1.46,0-.88.24-1.63.73-2.26.48-.62,1.2-.94,2.14-.94.7,0,1.27.18,1.7.55.43.36.75.83.95,1.4.2.57.29,1.17.29,1.79v.43Zm-4.66-1.03c0,.55.14,1.05.42,1.5.28.45.7.67,1.26.67.4,0,.77-.12,1.09-.36.33-.24.57-.54.72-.9v-.46c0-.84-.18-1.49-.54-1.94-.36-.45-.77-.67-1.24-.67-.55,0-.97.21-1.27.62-.3.41-.45.93-.45,1.54Z"/><path class="p" d="m76.76,338.07c0,.88-.24,1.62-.73,2.23-.49.61-1.2.91-2.14.91-.66,0-1.22-.18-1.66-.53-.44-.35-.77-.8-.99-1.35-.22-.54-.33-1.1-.33-1.67v-.55c0-.87.12-1.71.36-2.51.24-.81.68-1.47,1.32-1.99.64-.52,1.55-.78,2.74-.78h.1v1h-.1c-.75,0-1.35.14-1.81.43s-.8.66-1.02,1.12c-.22.46-.36.95-.4,1.48.25-.29.55-.5.89-.63.34-.13.71-.2,1.1-.2.61,0,1.12.15,1.51.44.39.3.68.68.87,1.15.19.47.28.95.28,1.46Zm-4.66-.37c0,.82.18,1.45.55,1.89.37.44.78.65,1.24.65.54,0,.96-.2,1.26-.59.3-.4.45-.9.45-1.52,0-.55-.14-1.04-.41-1.48s-.7-.65-1.27-.65c-.41,0-.78.12-1.12.37s-.57.54-.7.9v.44Z"/><path class="p" d="m82.01,331.79v9.29h-1.17v-7.83l-2.37.86v-1.06l3.36-1.27h.18Z"/><path class="p" d="m92.07,335.98v.96h-6.36v-.96h6.36Z"/><path class="p" d="m97.85,331.79v9.29h-1.17v-7.83l-2.37.86v-1.06l3.36-1.27h.18Z"/><path class="p" d="m106.97,335.88c0,.6-.05,1.21-.16,1.82-.1.61-.3,1.17-.6,1.69-.3.51-.74.93-1.32,1.24s-1.35.47-2.31.47h-.12v-1h.12c.85,0,1.5-.15,1.96-.44s.78-.67.96-1.15c.18-.47.28-.97.3-1.51-.25.29-.54.53-.88.71s-.72.27-1.12.27c-.61,0-1.11-.15-1.5-.46s-.68-.69-.86-1.16c-.19-.47-.28-.96-.28-1.46,0-.88.24-1.63.73-2.26.48-.62,1.2-.94,2.14-.94.7,0,1.27.18,1.7.55.43.36.75.83.95,1.4.2.57.29,1.17.29,1.79v.43Zm-4.66-1.03c0,.55.14,1.05.42,1.5.28.45.7.67,1.26.67.4,0,.77-.12,1.09-.36.33-.24.57-.54.72-.9v-.46c0-.84-.18-1.49-.54-1.94-.36-.45-.77-.67-1.24-.67-.55,0-.97.21-1.27.62-.3.41-.45.93-.45,1.54Z"/><path class="p" d="m114.42,338.58c0,.85-.28,1.5-.85,1.95-.56.45-1.26.68-2.09.68s-1.53-.23-2.09-.68c-.57-.45-.85-1.1-.85-1.95,0-.52.14-.97.42-1.37.28-.4.65-.69,1.13-.9-.41-.2-.74-.48-.97-.84-.24-.36-.36-.77-.36-1.23,0-.81.26-1.43.77-1.87.51-.44,1.17-.66,1.95-.66s1.44.22,1.96.66c.51.44.77,1.06.77,1.87,0,.46-.12.87-.37,1.23-.25.36-.57.64-.98.84.48.2.86.5,1.14.9s.43.85.43,1.36Zm-1.18-.03c0-.52-.16-.94-.49-1.26-.33-.33-.75-.49-1.28-.49s-.96.16-1.28.49c-.32.33-.47.75-.47,1.26s.16.95.47,1.24c.31.3.75.44,1.29.44s.98-.15,1.29-.44.47-.71.47-1.24Zm-.21-4.29c0-.46-.14-.84-.43-1.14-.29-.3-.66-.45-1.12-.45s-.83.14-1.12.43c-.28.29-.43.67-.43,1.16s.14.86.43,1.15.66.43,1.12.43.83-.14,1.12-.43c.29-.29.43-.67.43-1.15Z"/><path class="p" d="m121.71,335.72v1.41c0,1.52-.26,2.57-.78,3.17-.52.6-1.23.9-2.13.9s-1.59-.3-2.13-.9-.8-1.66-.8-3.17v-1.41c0-1.51.26-2.56.79-3.14.53-.58,1.24-.87,2.12-.87s1.61.29,2.14.87c.53.58.79,1.63.79,3.14Zm-1.18,1.6v-1.8c0-1.04-.15-1.78-.44-2.21s-.73-.65-1.3-.65-.99.22-1.29.65c-.3.43-.45,1.17-.45,2.21v1.8c0,1.03.15,1.78.45,2.23.3.46.73.69,1.29.69s1.01-.23,1.3-.69c.29-.46.44-1.2.44-2.23Z"/></g></svg>