<?xml version="1.0" encoding="UTF-8"?><svg xmlns="http://www.w3.org/2000/svg" viewBox="0 0 660 280"><defs><style>.h{fill:#f2f2f2;}.h,.i{stroke:#1a1a1a;}.h,.j,.k{stroke-miterlimit:10;}.h,.l{stroke-width:1.25px;}.m{fill:#e9ebf4;}.n{fill:#fff;}.o{fill:#fceae9;}.p{fill:#666c80;}.q{fill:#cacde3;}.r{fill:#3e4d59;}.i{stroke-width:1.2px;}.i,.l,.s,.t{stroke-linejoin:round;}.j{stroke:#666c80;}.j,.l,.s,.t,.k{fill:none;}.j,.k{stroke-linecap:round;}.l{stroke:#231f20;}.s{stroke:#bcbec0;stroke-width:.75px;}.s,.t{mix-blend-mode:multiply;}.u{isolation:isolate;}.t{stroke:#939598;}.k{stroke:#4c5c68;stroke-dasharray:0 0 4 6;stroke-width:1.5px;}.v{fill:#ee9f92;}.v,.w,.x,.y{opacity:.9;}.w{fill:#959cc7;}.x{fill:#1a1a1a;}.y{fill:#f7cfc9;}</style></defs><g class="u"><g id="f"><polygon class="x" points="127.72 242.95 110.03 242.95 110.03 243.8 92.33 243.8 92.33 244.94 74.65 244.94 74.65 245.51 145.29 245.51 145.29 239.26 127.72 239.26 127.72 242.95"/></g><g id="g"><rect class="n" width="660" height="280"/><rect class="h" x="2.03" y="36.4" width="143.37" height="209.3"/><rect class="h" x="499.26" y="36.4" width="150.33" height="209.3"/><path class="r" d="m518.87,63.16c0,1.61-.54,2.83-1.63,3.66s-2.46,1.25-4.11,1.25-3.03-.42-4.13-1.25-1.66-2.05-1.66-3.66c0-.95.24-1.77.73-2.48s1.14-1.26,1.96-1.65c-.72-.38-1.29-.88-1.7-1.53s-.62-1.38-.62-2.2c0-1.55.51-2.73,1.52-3.55s2.3-1.23,3.87-1.23,2.88.41,3.9,1.23,1.52,2,1.52,3.55c0,.83-.21,1.56-.63,2.2s-.99,1.15-1.71,1.54c.82.39,1.47.94,1.96,1.64s.73,1.53.73,2.47Zm-3.39-.25c0-.77-.22-1.37-.66-1.8s-1.01-.66-1.72-.66-1.28.22-1.72.66-.65,1.04-.65,1.8.22,1.35.65,1.78,1.01.64,1.74.64,1.29-.21,1.72-.64.64-1.02.64-1.78Zm-.35-7.44c0-.66-.18-1.2-.53-1.61s-.85-.61-1.49-.61-1.12.2-1.47.59-.53.94-.53,1.62.18,1.21.53,1.63.85.62,1.49.62,1.13-.21,1.48-.62.52-.96.52-1.63Z"/><path class="r" d="m524.5,64.95v2.31c-.01.88-.23,1.77-.66,2.66s-.99,1.62-1.66,2.2l-1.76-.93c.29-.53.56-1.08.83-1.65s.39-1.28.39-2.12v-2.47h2.86Z"/><path class="r" d="m532.3,60.45h-1.8v-2.66h1.8c.85,0,1.49-.21,1.9-.64s.63-1,.63-1.72c0-.63-.19-1.15-.57-1.56s-.96-.62-1.74-.62c-.62,0-1.15.17-1.61.52s-.69.82-.69,1.42h-3.39c0-1.41.54-2.54,1.63-3.39s2.41-1.28,3.96-1.28c1.73,0,3.12.41,4.19,1.24s1.6,2.03,1.6,3.63c0,.73-.23,1.44-.68,2.1s-1.09,1.19-1.92,1.58c.95.34,1.67.85,2.14,1.54s.71,1.5.71,2.43c0,1.6-.58,2.84-1.73,3.71s-2.59,1.31-4.32,1.31c-.96,0-1.88-.18-2.77-.53s-1.61-.89-2.18-1.61-.85-1.65-.85-2.77h3.4c0,.63.24,1.15.71,1.56s1.07.62,1.79.62c.8,0,1.43-.21,1.89-.64s.68-1,.68-1.7c0-.91-.25-1.56-.75-1.95s-1.18-.59-2.04-.59Z"/><path class="r" d="m555.45,67.83l-.11-1.36c-.87,1.06-2.07,1.59-3.62,1.59s-2.7-.61-3.62-1.83-1.38-2.75-1.38-4.61v-.25c0-1.94.46-3.5,1.38-4.69s2.13-1.78,3.64-1.78,2.66.5,3.52,1.5v-6.59h2.18v18h-1.99Zm-6.54-6.2c0,1.26.27,2.34.8,3.24s1.38,1.35,2.55,1.35c.76,0,1.38-.17,1.85-.52s.86-.79,1.15-1.32v-5.84c-.28-.52-.66-.96-1.14-1.29s-1.09-.51-1.83-.51c-1.18,0-2.04.46-2.57,1.38s-.8,2.01-.8,3.26v.25Z"/><path class="r" d="m566.07,56.75c-.7,0-1.31.19-1.84.56s-.95.86-1.25,1.46v9.06h-2.17v-12.68h2.05l.07,1.58c.96-1.21,2.22-1.82,3.79-1.82,1.25,0,2.24.35,2.97,1.05s1.1,1.89,1.1,3.55v8.31h-2.18v-8.33c0-.99-.22-1.7-.65-2.12s-1.06-.63-1.88-.63Z"/><path class="r" d="m574.17,53.3l2.27-3.45h2.61l-3.14,3.45h-1.75Zm2.24,1.85v12.68h-2.17v-12.68h2.17Z"/><path class="r" d="m591.02,57.01c-.74,0-1.35.17-1.83.5s-.83.78-1.07,1.33v9h-2.17v-12.68h2.11l.05,1.45c.32-.52.73-.93,1.22-1.23s1.09-.46,1.79-.46c.41,0,.73.05.96.16v2.02c-.33-.06-.68-.09-1.07-.09Z"/><path class="r" d="m593.28,61.63v-.27c0-1.84.52-3.37,1.55-4.6s2.43-1.85,4.21-1.85,3.2.62,4.24,1.85,1.55,2.76,1.55,4.6v.27c0,1.84-.52,3.37-1.55,4.59s-2.44,1.84-4.21,1.84-3.19-.61-4.22-1.84-1.55-2.76-1.55-4.59Zm2.17-.27v.27c0,1.26.3,2.35.9,3.27s1.5,1.38,2.71,1.38,2.08-.46,2.68-1.38.9-2.01.9-3.27v-.27c0-1.24-.3-2.33-.9-3.26s-1.5-1.4-2.71-1.4-2.09.47-2.69,1.4-.9,2.02-.9,3.26Z"/><path class="r" d="m612.62,66.29c.77,0,1.45-.23,2.03-.69s.9-1.05.96-1.77h2.06c-.05,1.13-.57,2.12-1.56,2.97s-2.15,1.27-3.49,1.27c-1.91,0-3.32-.63-4.25-1.89s-1.39-2.74-1.39-4.44v-.49c0-1.7.46-3.18,1.39-4.44s2.34-1.89,4.25-1.89c1.48,0,2.68.44,3.6,1.32s1.4,1.97,1.45,3.28h-2.06c-.05-.78-.35-1.45-.88-1.99s-1.24-.82-2.1-.82-1.59.23-2.09.68-.86,1.03-1.07,1.72-.31,1.41-.31,2.14v.49c0,.74.1,1.46.3,2.16s.56,1.27,1.06,1.72,1.21.67,2.1.67Zm-2.26-16.44l1.77,1.99,1.77-1.99h1.88v.12l-2.98,3.21h-1.34l-2.93-3.21v-.12h1.83Z"/><path class="r" d="m625.37,56.75c-.7,0-1.31.19-1.84.56s-.95.86-1.25,1.46v9.06h-2.17v-12.68h2.05l.07,1.58c.96-1.21,2.22-1.82,3.79-1.82,1.25,0,2.24.35,2.97,1.05s1.1,1.89,1.1,3.55v8.31h-2.18v-8.33c0-.99-.22-1.7-.65-2.12s-1.06-.63-1.88-.63Z"/><path class="r" d="m643.39,65.62c-.41.62-1,1.19-1.76,1.69s-1.76.76-3.01.76c-1.77,0-3.18-.57-4.24-1.72s-1.59-2.62-1.59-4.41v-.49c0-1.38.26-2.56.79-3.53s1.21-1.71,2.06-2.23,1.74-.77,2.7-.77c1.81,0,3.13.59,3.97,1.78s1.25,2.66,1.25,4.44v.97h-8.58c.03,1.16.38,2.15,1.04,2.97s1.57,1.22,2.72,1.22c.77,0,1.41-.16,1.95-.47s1-.73,1.39-1.25l1.31,1.04Zm-6.84-15.77l1.77,1.99,1.77-1.99h1.88v.12l-2.98,3.21h-1.34l-2.93-3.21v-.12h1.83Zm1.79,6.86c-.86,0-1.59.31-2.18.94s-.96,1.52-1.11,2.7h6.34v-.16c-.05-.84-.3-1.63-.73-2.37s-1.21-1.1-2.31-1.1Z"/><path class="r" d="m19.91,63.78v-11.81h3.52v11.81c0,1.7-.55,3.04-1.64,4.02s-2.45,1.46-4.08,1.46-3.04-.43-4.12-1.28-1.61-2.19-1.61-3.99h3.53c0,.91.2,1.55.6,1.9s.93.53,1.61.53,1.21-.23,1.61-.69.6-1.11.6-1.96Z"/><path class="r" d="m37,66.97c-.41.58-1.02,1.11-1.85,1.58s-1.86.71-3.09.71c-1.98,0-3.52-.6-4.63-1.8s-1.66-2.65-1.66-4.34v-.46c0-1.91.53-3.48,1.6-4.71s2.51-1.84,4.32-1.84,3.21.57,4.16,1.71,1.43,2.65,1.43,4.52v1.44h-8.07c.12.82.44,1.48.97,1.99s1.23.76,2.1.76c1.29,0,2.31-.47,3.06-1.42l1.68,1.85Zm-5.34-8.12c-.72,0-1.27.24-1.66.73s-.64,1.12-.76,1.9h4.71v-.26c-.02-.68-.21-1.24-.57-1.69s-.94-.67-1.72-.67Z"/><path class="r" d="m44.65,58.86c-.96,0-1.68.41-2.14,1.22v8.95h-3.39v-12.68h3.18l.12,1.45c.91-1.12,2.12-1.69,3.64-1.69,1.2,0,2.17.36,2.91,1.08s1.1,1.97,1.1,3.76v8.07h-3.4v-8.09c0-.81-.17-1.36-.52-1.65s-.85-.43-1.49-.43Z"/><path class="r" d="m70.15,66.3v2.73h-11.68v-2.32l5.52-5.88c.84-.92,1.41-1.68,1.73-2.28s.48-1.15.48-1.65c0-.76-.19-1.36-.57-1.79s-.92-.66-1.63-.66c-.8,0-1.42.27-1.85.82s-.64,1.23-.64,2.06h-3.39c0-1.54.53-2.86,1.59-3.96s2.51-1.65,4.34-1.65,3.16.43,4.11,1.29,1.43,2.04,1.43,3.54c0,1.14-.34,2.22-1.03,3.25s-1.6,2.13-2.73,3.31l-3.02,3.18h7.34Z"/><path class="r" d="m75.57,66.15v2.31c-.01.88-.23,1.77-.66,2.66s-.99,1.62-1.66,2.2l-1.76-.93c.29-.53.56-1.08.83-1.65s.39-1.28.39-2.12v-2.47h2.86Z"/><path class="r" d="m89.58,59v2.96c0,2.57-.53,4.43-1.58,5.58s-2.44,1.72-4.16,1.72-3.11-.57-4.18-1.72-1.6-3.01-1.6-5.58v-2.96c0-2.56.53-4.41,1.59-5.55s2.45-1.71,4.17-1.71,3.11.57,4.17,1.71,1.59,2.99,1.59,5.55Zm-3.39,3.42v-3.89c0-1.52-.21-2.57-.62-3.17s-1-.9-1.76-.9-1.33.3-1.75.9-.62,1.65-.62,3.17v3.89c0,1.52.21,2.59.63,3.2s1.01.91,1.76.91,1.33-.3,1.74-.91.62-1.68.62-3.2Z"/><path class="r" d="m105.83,69.03l-.16-1.35c-.39.49-.85.88-1.39,1.16s-1.15.42-1.86.42c-1.57,0-2.79-.61-3.66-1.83s-1.3-2.75-1.3-4.59v-.25c0-1.93.43-3.49,1.3-4.69s2.09-1.79,3.68-1.79c1.23,0,2.25.46,3.05,1.37v-6.46h3.4v18h-3.06Zm-4.97-6.19c0,1.02.18,1.88.54,2.6s.98,1.07,1.88,1.07c1.03,0,1.77-.44,2.21-1.31v-5.03c-.43-.88-1.16-1.31-2.19-1.31-.88,0-1.51.36-1.88,1.08s-.56,1.61-.56,2.65v.25Z"/><path class="r" d="m116.99,58.86c-.96,0-1.68.41-2.14,1.22v8.95h-3.39v-12.68h3.18l.12,1.45c.91-1.12,2.12-1.69,3.64-1.69,1.2,0,2.17.36,2.91,1.08s1.1,1.97,1.1,3.76v8.07h-3.4v-8.09c0-.81-.17-1.36-.52-1.65s-.85-.43-1.49-.43Z"/><path class="r" d="m128.63,56.35v12.68h-3.4v-12.68h3.4Zm-3.3-1.52l2.3-3.62h3.69l-3.25,3.62h-2.74Z"/><path class="r" d="m18.22,82.21c-.74,0-1.35.17-1.83.5s-.83.78-1.07,1.33v9h-2.17v-12.68h2.11l.05,1.45c.32-.52.73-.93,1.22-1.23s1.09-.46,1.79-.46c.41,0,.73.05.96.16v2.02c-.33-.06-.68-.09-1.07-.09Z"/><path class="r" d="m20.48,86.83v-.27c0-1.84.52-3.37,1.55-4.6s2.43-1.85,4.21-1.85,3.2.62,4.24,1.85,1.55,2.76,1.55,4.6v.27c0,1.84-.52,3.37-1.55,4.59s-2.44,1.84-4.21,1.84-3.19-.61-4.22-1.84-1.55-2.76-1.55-4.59Zm2.17-.27v.27c0,1.26.3,2.35.9,3.27s1.5,1.38,2.71,1.38,2.08-.46,2.68-1.38.9-2.01.9-3.27v-.27c0-1.24-.3-2.33-.9-3.26s-1.5-1.4-2.71-1.4-2.09.47-2.69,1.4-.9,2.02-.9,3.26Z"/><path class="r" d="m39.81,91.49c.77,0,1.45-.23,2.03-.69s.9-1.05.96-1.77h2.06c-.05,1.13-.57,2.12-1.56,2.97s-2.15,1.27-3.49,1.27c-1.91,0-3.32-.63-4.25-1.89s-1.39-2.74-1.39-4.44v-.49c0-1.7.46-3.18,1.39-4.44s2.34-1.89,4.25-1.89c1.48,0,2.68.44,3.6,1.32s1.4,1.97,1.45,3.28h-2.06c-.05-.78-.35-1.45-.88-1.99s-1.24-.82-2.1-.82-1.59.23-2.09.68-.86,1.03-1.07,1.72-.31,1.41-.31,2.14v.49c0,.74.1,1.46.3,2.16s.56,1.27,1.06,1.72,1.21.67,2.1.67Zm-2.26-16.44l1.77,1.99,1.77-1.99h1.88v.12l-2.98,3.21h-1.34l-2.93-3.21v-.12h1.83Z"/><path class="r" d="m52.56,81.95c-.7,0-1.31.19-1.84.56s-.95.86-1.25,1.46v9.06h-2.17v-12.68h2.05l.07,1.58c.96-1.21,2.22-1.82,3.79-1.82,1.25,0,2.24.35,2.97,1.05s1.1,1.89,1.1,3.55v8.31h-2.18v-8.33c0-.99-.22-1.7-.65-2.12s-1.06-.63-1.88-.63Z"/><path class="r" d="m70.59,90.82c-.41.62-1,1.19-1.76,1.69s-1.76.76-3.01.76c-1.77,0-3.18-.57-4.24-1.72s-1.59-2.62-1.59-4.41v-.49c0-1.38.26-2.56.79-3.53s1.21-1.71,2.06-2.23,1.74-.77,2.7-.77c1.81,0,3.13.59,3.97,1.78s1.25,2.66,1.25,4.44v.97h-8.58c.03,1.16.38,2.15,1.04,2.97s1.57,1.22,2.72,1.22c.77,0,1.41-.16,1.95-.47s1-.73,1.39-1.25l1.31,1.04Zm-6.84-15.77l1.77,1.99,1.77-1.99h1.88v.12l-2.98,3.21h-1.34l-2.93-3.21v-.12h1.83Zm1.79,6.86c-.86,0-1.59.31-2.18.94s-.96,1.52-1.11,2.7h6.34v-.16c-.05-.84-.3-1.63-.73-2.37s-1.21-1.1-2.31-1.1Z"/><path class="r" d="m79.29,80.35h2.18v14.19c0,2.41-1.11,3.61-3.32,3.61-.48,0-.93-.07-1.35-.2v-1.75c.3.07.63.11,1.01.11.48,0,.84-.13,1.1-.4s.38-.72.38-1.37v-14.19Zm-.22-3.36c0-.35.11-.65.33-.89s.54-.36.95-.36.74.12.96.36.33.54.33.89-.11.62-.33.86-.54.36-.96.36-.73-.12-.95-.36-.33-.53-.33-.86Z"/><path class="r" d="m95.01,90.82c-.41.62-1,1.19-1.76,1.69s-1.76.76-3.01.76c-1.77,0-3.18-.57-4.24-1.72s-1.59-2.62-1.59-4.41v-.49c0-1.38.26-2.56.79-3.53s1.21-1.71,2.06-2.23,1.74-.77,2.7-.77c1.81,0,3.13.59,3.97,1.78s1.25,2.66,1.25,4.44v.97h-8.58c.03,1.16.38,2.15,1.04,2.97s1.57,1.22,2.72,1.22c.77,0,1.41-.16,1.95-.47s1-.73,1.39-1.25l1.31,1.04Zm-5.05-8.92c-.86,0-1.59.31-2.18.94s-.96,1.52-1.11,2.7h6.34v-.16c-.05-.84-.3-1.63-.73-2.37s-1.21-1.1-2.31-1.1Z"/><path class="r" d="m18.23,115.49c.77,0,1.45-.23,2.03-.69s.9-1.05.96-1.77h2.06c-.05,1.13-.57,2.12-1.56,2.97s-2.15,1.27-3.49,1.27c-1.91,0-3.32-.63-4.25-1.89s-1.39-2.74-1.39-4.44v-.49c0-1.7.46-3.18,1.39-4.44s2.34-1.89,4.25-1.89c1.48,0,2.68.44,3.6,1.32s1.4,1.97,1.45,3.28h-2.06c-.05-.78-.35-1.45-.88-1.99s-1.24-.82-2.1-.82-1.59.23-2.09.68-.86,1.03-1.07,1.72-.31,1.41-.31,2.14v.49c0,.74.1,1.46.3,2.16s.56,1.27,1.06,1.72,1.21.67,2.1.67Z"/><path class="r" d="m30.98,105.95c-.7,0-1.31.19-1.84.56s-.95.86-1.25,1.46v9.06h-2.17v-18h2.17v6.83c.96-1.16,2.21-1.75,3.74-1.75,1.25,0,2.24.35,2.97,1.05s1.1,1.89,1.1,3.55v8.31h-2.18v-8.33c0-.99-.22-1.7-.65-2.12s-1.06-.63-1.88-.63Z"/><path class="r" d="m41.29,99.03v18h-2.18v-18h2.18Z"/><path class="r" d="m52.6,117.03c-.14-.3-.24-.75-.3-1.34-.41.43-.91.8-1.52,1.11s-1.3.46-2.09.46c-1.3,0-2.34-.36-3.12-1.09s-1.17-1.62-1.17-2.67c0-1.36.52-2.39,1.55-3.1s2.42-1.06,4.16-1.06h2.14v-1.01c0-.75-.22-1.35-.67-1.8s-1.12-.67-2-.67c-.82,0-1.48.2-1.99.6s-.76.87-.76,1.4h-2.17c0-.91.46-1.76,1.37-2.55s2.14-1.2,3.67-1.2c1.38,0,2.5.35,3.39,1.05s1.32,1.77,1.32,3.19v5.91c0,.42.04.87.11,1.35s.19.89.33,1.23v.19h-2.26Zm-3.6-1.66c.78,0,1.46-.2,2.03-.59s.98-.82,1.21-1.3v-2.61h-1.79c-2.59,0-3.88.78-3.88,2.34,0,.6.2,1.11.61,1.53s1.01.63,1.82.63Z"/><path class="r" d="m66,117.03l-.11-1.36c-.87,1.06-2.07,1.59-3.62,1.59s-2.7-.61-3.62-1.83-1.38-2.75-1.38-4.61v-.25c0-1.94.46-3.5,1.38-4.69s2.13-1.78,3.64-1.78,2.66.5,3.52,1.5v-6.59h2.18v18h-1.99Zm-6.54-6.2c0,1.26.27,2.34.8,3.24s1.38,1.35,2.55,1.35c.76,0,1.38-.17,1.85-.52s.86-.79,1.15-1.32v-5.84c-.28-.52-.66-.96-1.14-1.29s-1.09-.51-1.83-.51c-1.18,0-2.04.46-2.57,1.38s-.8,2.01-.8,3.26v.25Z"/><path class="r" d="m76.62,105.95c-.7,0-1.31.19-1.84.56s-.95.86-1.25,1.46v9.06h-2.17v-12.68h2.05l.07,1.58c.96-1.21,2.22-1.82,3.79-1.82,1.25,0,2.24.35,2.97,1.05s1.1,1.89,1.1,3.55v8.31h-2.18v-8.33c0-.99-.22-1.7-.65-2.12s-1.06-.63-1.88-.63Z"/><path class="r" d="m94.65,114.82c-.41.62-1,1.19-1.76,1.69s-1.76.76-3.01.76c-1.77,0-3.18-.57-4.24-1.72s-1.59-2.62-1.59-4.41v-.49c0-1.38.26-2.56.79-3.53s1.21-1.71,2.06-2.23,1.74-.77,2.7-.77c1.81,0,3.13.59,3.97,1.78s1.25,2.66,1.25,4.44v.97h-8.58c.03,1.16.38,2.15,1.04,2.97s1.57,1.22,2.72,1.22c.77,0,1.41-.16,1.95-.47s1-.73,1.39-1.25l1.31,1.04Zm-6.84-15.77l1.77,1.99,1.77-1.99h1.88v.12l-2.98,3.21h-1.34l-2.93-3.21v-.12h1.83Zm1.79,6.86c-.86,0-1.59.31-2.18.94s-.96,1.52-1.11,2.7h6.34v-.16c-.05-.84-.3-1.63-.73-2.37s-1.21-1.1-2.31-1.1Z"/><path class="r" d="m97.4,104.35h2.18v14.19c0,2.41-1.11,3.61-3.32,3.61-.48,0-.93-.07-1.35-.2v-1.75c.3.07.63.11,1.01.11.48,0,.84-.13,1.1-.4s.38-.72.38-1.37v-14.19Zm-.22-3.36c0-.35.11-.65.33-.89s.54-.36.95-.36.74.12.96.36.33.54.33.89-.11.62-.33.86-.54.36-.96.36-.73-.12-.95-.36-.33-.53-.33-.86Z"/><path class="r" d="m110.47,113.67c0-.47-.17-.89-.52-1.26s-1.15-.68-2.4-.93c-1.41-.3-2.53-.72-3.35-1.27s-1.22-1.34-1.22-2.39.43-1.87,1.28-2.6,1.99-1.1,3.42-1.1c1.52,0,2.7.39,3.55,1.16s1.28,1.71,1.28,2.8h-2.17c0-.52-.23-1.02-.69-1.48s-1.12-.7-1.97-.7c-.9,0-1.54.2-1.93.59s-.59.82-.59,1.28.19.85.56,1.13,1.16.56,2.36.83c1.55.36,2.7.82,3.45,1.39s1.11,1.37,1.11,2.39c0,1.12-.45,2.02-1.34,2.72s-2.08,1.04-3.56,1.04c-1.68,0-2.96-.43-3.86-1.29s-1.34-1.81-1.34-2.86h2.18c.05.9.39,1.52,1.04,1.86s1.3.51,1.97.51c.88,0,1.56-.17,2.03-.52s.7-.78.7-1.3Zm-4.23-14.62l1.77,1.99,1.77-1.99h1.88v.12l-2.98,3.21h-1.34l-2.93-3.21v-.12h1.83Z"/><path class="r" d="m115.58,102.5l2.27-3.45h2.61l-3.14,3.45h-1.75Zm2.24,1.85v12.68h-2.17v-12.68h2.17Z"/><path class="r" d="m12.58,134.83v-.27c0-1.84.52-3.37,1.55-4.6s2.43-1.85,4.21-1.85,3.2.62,4.24,1.85,1.55,2.76,1.55,4.6v.27c0,1.84-.52,3.37-1.55,4.59s-2.44,1.84-4.21,1.84-3.19-.61-4.22-1.84-1.55-2.76-1.55-4.59Zm2.17-.27v.27c0,1.26.3,2.35.9,3.27s1.5,1.38,2.71,1.38,2.08-.46,2.68-1.38.9-2.01.9-3.27v-.27c0-1.24-.3-2.33-.9-3.26s-1.5-1.4-2.71-1.4-2.09.47-2.69,1.4-.9,2.02-.9,3.26Z"/><path class="r" d="m42.33,128.35l-4.56,12.68h-1.65l-4.59-12.68h2.23l3.22,9.71,3.14-9.71h2.21Z"/><path class="r" d="m44.52,126.5l2.27-3.45h2.61l-3.14,3.45h-1.75Zm2.24,1.85v12.68h-2.17v-12.68h2.17Z"/><path class="r" d="m55.43,139.49c.77,0,1.45-.23,2.03-.69s.9-1.05.96-1.77h2.06c-.05,1.13-.57,2.12-1.56,2.97s-2.15,1.27-3.49,1.27c-1.91,0-3.32-.63-4.25-1.89s-1.39-2.74-1.39-4.44v-.49c0-1.7.46-3.18,1.39-4.44s2.34-1.89,4.25-1.89c1.48,0,2.68.44,3.6,1.32s1.4,1.97,1.45,3.28h-2.06c-.05-.78-.35-1.45-.88-1.99s-1.24-.82-2.1-.82-1.59.23-2.09.68-.86,1.03-1.07,1.72-.31,1.41-.31,2.14v.49c0,.74.1,1.46.3,2.16s.56,1.27,1.06,1.72,1.21.67,2.1.67Z"/><path class="r" d="m72.95,138.82c-.41.62-1,1.19-1.76,1.69s-1.76.76-3.01.76c-1.77,0-3.18-.57-4.24-1.72s-1.59-2.62-1.59-4.41v-.49c0-1.38.26-2.56.79-3.53s1.21-1.71,2.06-2.23,1.74-.77,2.7-.77c1.81,0,3.13.59,3.97,1.78s1.25,2.66,1.25,4.44v.97h-8.58c.03,1.16.38,2.15,1.04,2.97s1.57,1.22,2.72,1.22c.77,0,1.41-.16,1.95-.47s1-.73,1.39-1.25l1.31,1.04Zm-5.05-8.92c-.86,0-1.59.31-2.18.94s-.96,1.52-1.11,2.7h6.34v-.16c-.05-.84-.3-1.63-.73-2.37s-1.21-1.1-2.31-1.1Z"/><path class="r" d="m86.86,129.95c-.7,0-1.31.19-1.84.56s-.95.86-1.25,1.46v9.06h-2.17v-12.68h2.05l.07,1.58c.96-1.21,2.22-1.82,3.79-1.82,1.25,0,2.24.35,2.97,1.05s1.1,1.89,1.1,3.55v8.31h-2.18v-8.33c0-.99-.22-1.7-.65-2.12s-1.06-.63-1.88-.63Z"/><path class="r" d="m104.89,138.82c-.41.62-1,1.19-1.76,1.69s-1.76.76-3.01.76c-1.77,0-3.18-.57-4.24-1.72s-1.59-2.62-1.59-4.41v-.49c0-1.38.26-2.56.79-3.53s1.21-1.71,2.06-2.23,1.74-.77,2.7-.77c1.81,0,3.13.59,3.97,1.78s1.25,2.66,1.25,4.44v.97h-8.58c.03,1.16.38,2.15,1.04,2.97s1.57,1.22,2.72,1.22c.77,0,1.41-.16,1.95-.47s1-.73,1.39-1.25l1.31,1.04Zm-5.05-8.92c-.86,0-1.59.31-2.18.94s-.96,1.52-1.11,2.7h6.34v-.16c-.05-.84-.3-1.63-.73-2.37s-1.21-1.1-2.31-1.1Z"/><path class="r" d="m107.07,130.15v-1.79h9.62v1.54l-7.05,9.36h7.39v1.78h-10.05v-1.59l6.98-9.29h-6.89Zm3.12-7.1l1.77,1.99,1.77-1.99h1.88v.12l-2.98,3.21h-1.34l-2.93-3.21v-.12h1.83Z"/><path class="r" d="m20.04,147.88v17.16h-2.17v-14.45l-4.37,1.59v-1.96l6.2-2.34h.34Z"/><path class="r" d="m37.12,155.14v2.6c0,2.8-.48,4.75-1.45,5.86s-2.28,1.66-3.93,1.66-2.94-.55-3.93-1.66-1.48-3.06-1.48-5.86v-2.6c0-2.79.49-4.72,1.46-5.79s2.28-1.61,3.91-1.61,2.97.54,3.94,1.61,1.46,3.01,1.46,5.79Zm-2.18,2.95v-3.32c0-1.92-.27-3.28-.82-4.08s-1.35-1.2-2.4-1.2-1.82.4-2.37,1.2-.83,2.16-.83,4.08v3.32c0,1.91.28,3.28.84,4.12s1.35,1.27,2.38,1.27,1.86-.42,2.4-1.27.8-2.22.8-4.12Z"/><path class="r" d="m45.97,150.77c0-.84.29-1.55.88-2.15s1.29-.9,2.1-.9,1.51.3,2.08.9.86,1.31.86,2.15-.29,1.55-.86,2.13-1.27.88-2.08.88-1.51-.29-2.1-.88-.88-1.3-.88-2.13Zm1.45,0c0,.43.15.79.45,1.08s.66.43,1.08.43.78-.14,1.06-.43.43-.65.43-1.08-.14-.8-.43-1.1-.64-.45-1.06-.45-.78.15-1.08.45-.45.66-.45,1.1Z"/><path class="r" d="m65.68,159.61h2.25c-.17,1.62-.78,2.96-1.83,4.04s-2.59,1.62-4.64,1.62-3.61-.72-4.83-2.16-1.83-3.36-1.83-5.75v-1.7c0-2.39.62-4.31,1.85-5.75s2.9-2.17,5.01-2.17c1.93,0,3.41.53,4.45,1.59s1.64,2.43,1.82,4.11h-2.25c-.17-1.19-.55-2.13-1.15-2.82s-1.55-1.04-2.87-1.04c-1.51,0-2.65.55-3.43,1.66s-1.17,2.57-1.17,4.38v1.72c0,1.68.36,3.11,1.07,4.29s1.82,1.78,3.34,1.78c1.44,0,2.45-.34,3.04-1.01s.98-1.61,1.18-2.81Z"/><path class="r" d="m81.88,153.95c-.7,0-1.31.19-1.84.56s-.95.86-1.25,1.46v9.06h-2.17v-12.68h2.05l.07,1.58c.96-1.21,2.22-1.82,3.79-1.82,1.25,0,2.24.35,2.97,1.05s1.1,1.89,1.1,3.55v8.31h-2.18v-8.33c0-.99-.22-1.7-.65-2.12s-1.06-.63-1.88-.63Z"/><path class="r" d="m99.91,162.82c-.41.62-1,1.19-1.76,1.69s-1.76.76-3.01.76c-1.77,0-3.18-.57-4.24-1.72s-1.59-2.62-1.59-4.41v-.49c0-1.38.26-2.56.79-3.53s1.21-1.71,2.06-2.23,1.74-.77,2.7-.77c1.81,0,3.13.59,3.97,1.78s1.25,2.66,1.25,4.44v.97h-8.58c.03,1.16.38,2.15,1.04,2.97s1.57,1.22,2.72,1.22c.77,0,1.41-.16,1.95-.47s1-.73,1.39-1.25l1.31,1.04Zm-5.05-8.92c-.86,0-1.59.31-2.18.94s-.96,1.52-1.11,2.7h6.34v-.16c-.05-.84-.3-1.63-.73-2.37s-1.21-1.1-2.31-1.1Z"/><path class="r" d="m102.09,154.15v-1.79h9.62v1.54l-7.05,9.36h7.39v1.78h-10.05v-1.59l6.98-9.29h-6.89Zm3.12-7.1l1.77,1.99,1.77-1.99h1.88v.12l-2.98,3.21h-1.34l-2.93-3.21v-.12h1.83Z"/><path class="r" d="m18.41,177.95c-.7,0-1.31.19-1.84.56s-.95.86-1.25,1.46v9.06h-2.17v-12.68h2.05l.07,1.58c.96-1.21,2.22-1.82,3.79-1.82,1.25,0,2.24.35,2.97,1.05s1.1,1.89,1.1,3.55v8.31h-2.18v-8.33c0-.99-.22-1.7-.65-2.12s-1.06-.63-1.88-.63Z"/><path class="r" d="m25.83,182.83v-.27c0-1.84.52-3.37,1.55-4.6s2.43-1.85,4.21-1.85,3.2.62,4.24,1.85,1.55,2.76,1.55,4.6v.27c0,1.84-.52,3.37-1.55,4.59s-2.44,1.84-4.21,1.84-3.19-.61-4.22-1.84-1.55-2.76-1.55-4.59Zm2.17-.27v.27c0,1.26.3,2.35.9,3.27s1.5,1.38,2.71,1.38,2.08-.46,2.68-1.38.9-2.01.9-3.27v-.27c0-1.24-.3-2.33-.9-3.26s-1.5-1.4-2.71-1.4-2.09.47-2.69,1.4-.9,2.02-.9,3.26Z"/><path class="r" d="m45.16,178.21c-.74,0-1.35.17-1.83.5s-.83.78-1.07,1.33v9h-2.17v-12.68h2.11l.05,1.45c.32-.52.73-.93,1.22-1.23s1.09-.46,1.79-.46c.41,0,.73.05.96.16v2.02c-.33-.06-.68-.09-1.07-.09Z"/><path class="r" d="m53.3,177.95c-.77,0-1.39.16-1.86.49s-.82.76-1.05,1.3v9.29h-2.18v-12.68h2.06l.06,1.38c.91-1.08,2.16-1.62,3.75-1.62.81,0,1.54.16,2.17.49s1.12.84,1.46,1.55c.42-.61.97-1.1,1.65-1.48s1.47-.56,2.38-.56c1.36,0,2.41.36,3.15,1.09s1.11,1.89,1.11,3.49v8.33h-2.18v-8.36c0-1.06-.24-1.78-.73-2.16s-1.15-.57-1.97-.57c-.88,0-1.56.26-2.06.78s-.79,1.15-.87,1.89v8.41h-2.17v-8.34c0-.99-.25-1.7-.74-2.12s-1.15-.63-1.97-.63Z"/><path class="r" d="m77.1,189.03c-.14-.3-.24-.75-.3-1.34-.41.43-.91.8-1.52,1.11s-1.3.46-2.09.46c-1.3,0-2.34-.36-3.12-1.09s-1.17-1.62-1.17-2.67c0-1.36.52-2.39,1.55-3.1s2.42-1.06,4.16-1.06h2.14v-1.01c0-.75-.22-1.35-.67-1.8s-1.12-.67-2-.67c-.82,0-1.48.2-1.99.6s-.76.87-.76,1.4h-2.17c0-.91.46-1.76,1.37-2.55s2.14-1.2,3.67-1.2c1.38,0,2.5.35,3.39,1.05s1.32,1.77,1.32,3.19v5.91c0,.42.04.87.11,1.35s.19.89.33,1.23v.19h-2.26Zm-3.6-1.66c.78,0,1.46-.2,2.03-.59s.98-.82,1.21-1.3v-2.61h-1.79c-2.59,0-3.88.78-3.88,2.34,0,.6.2,1.11.61,1.53s1.01.63,1.82.63Zm-.26-12.89l2.27-3.45h2.61l-3.14,3.45h-1.75Z"/><path class="r" d="m84.68,171.03v18h-2.18v-18h2.18Z"/><path class="r" d="m126.28,265.95v2.07h-7.59v-2.07h7.59Z"/><path class="r" d="m134.44,260.44v12.81h-2.54v-9.8l-3.02.94v-2.06l5.29-1.9h.27Z"/><path class="r" d="m147.21,265.74v2.22c0,1.93-.4,3.32-1.19,4.18s-1.83,1.29-3.12,1.29-2.33-.43-3.13-1.29-1.2-2.26-1.2-4.18v-2.22c0-1.92.4-3.31,1.19-4.17s1.84-1.28,3.12-1.28,2.33.43,3.13,1.28,1.2,2.24,1.2,4.17Zm-2.54,2.57v-2.92c0-1.14-.16-1.93-.47-2.38-.31-.45-.75-.67-1.32-.67s-1,.22-1.31.67c-.31.45-.47,1.24-.47,2.38v2.92c0,1.14.16,1.94.47,2.4s.75.69,1.32.69,1-.23,1.31-.69.46-1.26.46-2.4Z"/><path class="r" d="m151.85,262.71c0-.66.23-1.23.7-1.71s1.03-.72,1.69-.72,1.2.24,1.66.72.69,1.05.69,1.71-.23,1.22-.69,1.69-1.01.69-1.66.69-1.22-.23-1.69-.69-.7-1.03-.7-1.69Zm1.28,0c0,.31.11.57.33.78.22.21.48.31.78.31s.55-.1.76-.31c.21-.21.31-.47.31-.78s-.1-.59-.31-.8c-.21-.21-.46-.32-.76-.32s-.56.11-.78.32c-.22.21-.33.48-.33.8Z"/><path class="r" d="m166.29,269h2.64c-.09,1.3-.58,2.37-1.46,3.19-.89.83-2.12,1.24-3.69,1.24s-2.93-.55-3.88-1.66-1.42-2.6-1.42-4.5v-.83c0-1.89.48-3.39,1.45-4.5.97-1.11,2.26-1.67,3.87-1.67s2.82.43,3.67,1.28c.85.85,1.34,1.94,1.46,3.25h-2.64c-.06-.76-.27-1.35-.64-1.75-.37-.41-.99-.61-1.86-.61-1.76,0-2.64,1.33-2.64,3.99v.85c0,1.32.2,2.32.6,2.99s1.07,1,2.01,1c.83,0,1.44-.19,1.83-.57.39-.38.62-.95.68-1.71Z"/><path class="p" d="m37.72,266.2v1.34h-7.34v-1.34h7.34Z"/><path class="p" d="m45.6,260.39v12.87h-1.63v-10.84l-3.28,1.2v-1.47l4.65-1.76h.25Z"/><path class="p" d="m52.43,267.17l-1.3-.33.64-6.37h6.57v1.5h-5.19l-.39,3.48c.23-.13.53-.26.89-.38s.77-.18,1.24-.18c1.18,0,2.11.39,2.79,1.16.68.78,1.02,1.82,1.02,3.12,0,1.22-.33,2.24-1,3.04-.67.81-1.68,1.21-3.05,1.21-1.04,0-1.93-.29-2.69-.88-.76-.58-1.19-1.47-1.31-2.67h1.55c.21,1.47,1.02,2.21,2.45,2.21.77,0,1.36-.26,1.78-.78s.63-1.23.63-2.12c0-.8-.22-1.48-.66-2.03s-1.07-.82-1.89-.82c-.54,0-.96.07-1.24.22s-.57.35-.85.6Z"/><path class="p" d="m63.24,262.56c0-.63.22-1.17.66-1.61.44-.45.97-.67,1.58-.67s1.13.22,1.56.67c.43.45.65.99.65,1.61s-.22,1.16-.65,1.6-.95.66-1.56.66-1.14-.22-1.58-.66-.66-.97-.66-1.6Zm1.09,0c0,.32.11.59.34.81s.5.33.81.33.58-.11.8-.33.32-.49.32-.81-.11-.6-.32-.83-.48-.33-.8-.33-.59.11-.81.33-.34.5-.34.83Z"/><path class="p" d="m78.02,269.19h1.69c-.13,1.21-.59,2.22-1.37,3.03s-1.95,1.21-3.48,1.21-2.71-.54-3.62-1.62c-.91-1.08-1.37-2.52-1.37-4.31v-1.27c0-1.79.46-3.23,1.38-4.32s2.18-1.63,3.76-1.63c1.45,0,2.56.4,3.34,1.2s1.23,1.83,1.36,3.08h-1.69c-.13-.89-.42-1.59-.86-2.11-.45-.52-1.16-.78-2.15-.78-1.13,0-1.99.42-2.58,1.25s-.88,1.93-.88,3.29v1.29c0,1.26.27,2.33.8,3.22.53.89,1.37,1.33,2.5,1.33,1.08,0,1.84-.25,2.28-.76s.74-1.21.88-2.11Z"/><path class="p" d="m220.25,266.2v1.34h-7.34v-1.34h7.34Z"/><path class="p" d="m224.85,267.17l-1.3-.33.64-6.37h6.57v1.5h-5.19l-.39,3.48c.23-.13.53-.26.89-.38s.77-.18,1.24-.18c1.18,0,2.11.39,2.79,1.16.68.78,1.02,1.82,1.02,3.12,0,1.22-.33,2.24-1,3.04-.67.81-1.68,1.21-3.05,1.21-1.04,0-1.93-.29-2.69-.88-.76-.58-1.19-1.47-1.31-2.67h1.55c.21,1.47,1.02,2.21,2.45,2.21.77,0,1.36-.26,1.78-.78s.63-1.23.63-2.12c0-.8-.22-1.48-.66-2.03s-1.07-.82-1.89-.82c-.54,0-.96.07-1.24.22s-.57.35-.85.6Z"/><path class="p" d="m235.66,262.56c0-.63.22-1.17.66-1.61.44-.45.97-.67,1.58-.67s1.13.22,1.56.67c.43.45.65.99.65,1.61s-.22,1.16-.65,1.6-.95.66-1.56.66-1.14-.22-1.58-.66-.66-.97-.66-1.6Zm1.09,0c0,.32.11.59.34.81s.5.33.81.33.58-.11.8-.33.32-.49.32-.81-.11-.6-.32-.83-.48-.33-.8-.33-.59.11-.81.33-.34.5-.34.83Z"/><path class="p" d="m250.44,269.19h1.69c-.13,1.21-.59,2.22-1.37,3.03s-1.95,1.21-3.48,1.21-2.71-.54-3.62-1.62c-.91-1.08-1.37-2.52-1.37-4.31v-1.27c0-1.79.46-3.23,1.38-4.32s2.18-1.63,3.76-1.63c1.45,0,2.56.4,3.34,1.2s1.23,1.83,1.36,3.08h-1.69c-.13-.89-.42-1.59-.86-2.11-.45-.52-1.16-.78-2.15-.78-1.13,0-1.99.42-2.58,1.25s-.88,1.93-.88,3.29v1.29c0,1.26.27,2.33.8,3.22.53.89,1.37,1.33,2.5,1.33,1.08,0,1.84-.25,2.28-.76s.74-1.21.88-2.11Z"/><path class="p" d="m399.81,267.92h-3.57v4.05h-1.63v-4.05h-3.58v-1.53h3.58v-3.74h1.63v3.74h3.57v1.53Z"/><path class="p" d="m403.69,267.17l-1.3-.33.64-6.37h6.57v1.5h-5.19l-.39,3.48c.23-.13.53-.26.89-.38s.77-.18,1.24-.18c1.18,0,2.11.39,2.79,1.16.68.78,1.02,1.82,1.02,3.12,0,1.22-.33,2.24-1,3.04-.67.81-1.68,1.21-3.05,1.21-1.04,0-1.93-.29-2.69-.88-.76-.58-1.19-1.47-1.31-2.67h1.55c.21,1.47,1.02,2.21,2.45,2.21.77,0,1.36-.26,1.78-.78s.63-1.23.63-2.12c0-.8-.22-1.48-.66-2.03s-1.07-.82-1.89-.82c-.54,0-.96.07-1.24.22s-.57.35-.85.6Z"/><path class="p" d="m414.5,262.56c0-.63.22-1.17.66-1.61.44-.45.97-.67,1.58-.67s1.13.22,1.56.67c.43.45.65.99.65,1.61s-.21,1.16-.65,1.6-.95.66-1.56.66-1.13-.22-1.58-.66-.66-.97-.66-1.6Zm1.09,0c0,.32.11.59.34.81s.5.33.81.33.58-.11.8-.33.32-.49.32-.81-.11-.6-.32-.83-.48-.33-.8-.33-.59.11-.81.33-.34.5-.34.83Z"/><path class="p" d="m429.28,269.19h1.69c-.13,1.21-.59,2.22-1.37,3.03s-1.95,1.21-3.48,1.21-2.71-.54-3.62-1.62c-.91-1.08-1.37-2.52-1.37-4.31v-1.27c0-1.79.46-3.23,1.38-4.32s2.17-1.63,3.76-1.63c1.45,0,2.56.4,3.34,1.2s1.23,1.83,1.36,3.08h-1.69c-.13-.89-.42-1.59-.86-2.11-.45-.52-1.16-.78-2.15-.78-1.13,0-1.99.42-2.58,1.25s-.88,1.93-.88,3.29v1.29c0,1.26.27,2.33.8,3.22.53.89,1.37,1.33,2.5,1.33,1.08,0,1.84-.25,2.28-.76s.74-1.21.88-2.11Z"/><path class="r" d="m483.62,268.38h-3.17v3.59h-2.41v-3.59h-3.19v-2.29h3.19v-3.43h2.41v3.43h3.17v2.29Z"/><path class="r" d="m491.22,260.44v12.81h-2.54v-9.8l-3.02.94v-2.06l5.29-1.9h.27Z"/><path class="r" d="m503.99,265.74v2.22c0,1.93-.4,3.32-1.19,4.18s-1.83,1.29-3.12,1.29-2.33-.43-3.13-1.29-1.2-2.26-1.2-4.18v-2.22c0-1.92.4-3.31,1.19-4.17s1.83-1.28,3.12-1.28,2.33.43,3.13,1.28,1.2,2.24,1.2,4.17Zm-2.54,2.57v-2.92c0-1.14-.16-1.93-.47-2.38-.31-.45-.75-.67-1.32-.67s-1,.22-1.31.67c-.31.45-.47,1.24-.47,2.38v2.92c0,1.14.16,1.94.47,2.4s.75.69,1.32.69,1-.23,1.31-.69.46-1.26.46-2.4Z"/><path class="r" d="m508.63,262.71c0-.66.23-1.23.7-1.71s1.03-.72,1.69-.72,1.2.24,1.66.72.69,1.05.69,1.71-.23,1.22-.69,1.69-1.01.69-1.66.69-1.22-.23-1.69-.69-.7-1.03-.7-1.69Zm1.28,0c0,.31.11.57.33.78.22.21.48.31.78.31s.55-.1.76-.31c.21-.21.31-.47.31-.78s-.1-.59-.31-.8c-.21-.21-.46-.32-.76-.32s-.56.11-.78.32c-.22.21-.33.48-.33.8Z"/><path class="r" d="m523.07,269h2.64c-.09,1.3-.58,2.37-1.46,3.19-.89.83-2.12,1.24-3.69,1.24s-2.93-.55-3.88-1.66-1.42-2.6-1.42-4.5v-.83c0-1.89.48-3.39,1.45-4.5.97-1.11,2.26-1.67,3.87-1.67s2.82.43,3.67,1.28c.85.85,1.34,1.94,1.46,3.25h-2.64c-.06-.76-.27-1.35-.64-1.75-.37-.41-.99-.61-1.86-.61-1.76,0-2.64,1.33-2.64,3.99v.85c0,1.32.2,2.32.6,2.99s1.07,1,2.01,1c.83,0,1.44-.19,1.83-.57.39-.38.62-.95.68-1.71Z"/><path class="p" d="m560.77,267.92h-3.57v4.05h-1.63v-4.05h-3.58v-1.53h3.58v-3.74h1.63v3.74h3.57v1.53Z"/><path class="p" d="m567.93,260.39v12.87h-1.63v-10.84l-3.28,1.2v-1.47l4.65-1.76h.25Z"/><path class="p" d="m574.76,267.17l-1.3-.33.64-6.37h6.57v1.5h-5.19l-.39,3.48c.23-.13.53-.26.89-.38s.78-.18,1.24-.18c1.18,0,2.11.39,2.79,1.16.68.78,1.02,1.82,1.02,3.12,0,1.22-.33,2.24-1,3.04-.67.81-1.68,1.21-3.05,1.21-1.04,0-1.93-.29-2.69-.88-.76-.58-1.19-1.47-1.31-2.67h1.55c.21,1.47,1.02,2.21,2.45,2.21.77,0,1.36-.26,1.78-.78s.63-1.23.63-2.12c0-.8-.22-1.48-.66-2.03s-1.07-.82-1.89-.82c-.54,0-.96.07-1.24.22s-.57.35-.85.6Z"/><path class="p" d="m585.57,262.56c0-.63.22-1.17.66-1.61.44-.45.97-.67,1.58-.67s1.13.22,1.56.67c.43.45.65.99.65,1.61s-.22,1.16-.65,1.6-.95.66-1.56.66-1.14-.22-1.58-.66-.66-.97-.66-1.6Zm1.09,0c0,.32.11.59.34.81s.5.33.81.33.58-.11.79-.33.32-.49.32-.81-.11-.6-.32-.83-.48-.33-.79-.33-.59.11-.81.33-.34.5-.34.83Z"/><path class="p" d="m600.36,269.19h1.69c-.13,1.21-.59,2.22-1.37,3.03s-1.95,1.21-3.48,1.21-2.71-.54-3.62-1.62c-.91-1.08-1.37-2.52-1.37-4.31v-1.27c0-1.79.46-3.23,1.38-4.32s2.18-1.63,3.76-1.63c1.45,0,2.56.4,3.34,1.2s1.23,1.83,1.36,3.08h-1.69c-.13-.89-.42-1.59-.86-2.11-.45-.52-1.16-.78-2.15-.78-1.13,0-1.99.42-2.58,1.25s-.88,1.93-.88,3.29v1.29c0,1.26.27,2.33.8,3.22.53.89,1.37,1.33,2.5,1.33,1.08,0,1.84-.25,2.28-.76s.74-1.21.88-2.11Z"/><circle class="r" cx="322.08" cy="269.42" r="2.5"/><polygon class="v" points="499.22 209.4 481.53 209.4 481.53 188.35 463.83 188.35 463.83 245.51 499.26 245.51 499.26 222.76 499.22 222.76 499.22 209.4"/><polygon class="o" points="393.08 97.9 393.08 96.2 375.39 96.2 375.39 66.9 357.7 66.9 357.7 63.2 340.01 63.2 340.01 76 322.31 76 322.31 79.7 322.27 79.7 322.27 245.51 410.77 245.51 410.77 114.4 410.77 97.9 393.08 97.9"/><polygon class="y" points="446.15 168.43 446.15 144.55 428.46 144.55 428.46 114.4 410.77 114.4 410.77 245.51 463.83 245.51 463.83 188.35 463.83 168.43 446.15 168.43"/><polygon class="i" points="605.37 245.22 605.37 244.66 587.67 244.66 587.67 245.22 569.99 245.22 569.99 241.82 552.29 241.82 552.29 239.54 534.6 239.54 534.6 232.42 516.92 232.42 516.92 222.76 499.26 222.76 499.26 245.51 623.06 245.51 623.06 245.22 605.37 245.22"/><polygon class="m" points="304.63 101.32 286.94 101.32 286.94 122.37 269.24 122.37 269.24 140.28 251.56 140.28 251.56 159.62 233.86 159.62 233.86 179.81 233.78 179.81 233.78 245.51 322.27 245.51 322.27 79.7 304.63 79.7 304.63 101.32"/><polygon class="q" points="216.17 201.71 198.49 201.71 198.49 216.5 180.79 216.5 180.79 229.59 180.71 229.59 180.71 245.51 233.78 245.51 233.78 179.81 216.17 179.81 216.17 201.71"/><polygon class="w" points="163.1 234.99 145.4 234.99 145.4 239.26 145.29 239.26 145.29 245.51 180.71 245.51 180.71 229.59 163.1 229.59 163.1 234.99"/><polygon class="i" points="127.72 242.95 110.03 242.95 110.03 243.8 92.33 243.8 92.33 244.94 74.65 244.94 74.65 245.51 145.29 245.51 145.29 239.26 127.72 239.26 127.72 242.95"/><polyline class="s" points="30.42 245.51 39.27 245.51 39.27 245.51 56.95 245.51 56.95 245.22 74.65 245.22 74.65 245.22 92.33 245.22 92.33 244.37 110.03 244.37 110.03 240.96 127.72 240.96 127.72 239.26 145.4 239.26 145.4 232.42 163.1 232.42 163.1 222.19 180.79 222.19 180.79 205.98 198.49 205.98 198.49 182.09 216.17 182.09 216.17 154.5 233.86 154.5 233.86 121.51 251.56 121.51 251.56 106.15 269.24 106.15 269.24 80.56 286.94 80.56 286.94 68.04 304.63 68.04 304.63 52.11 322.31 52.11 322.31 54.67 340.01 54.67 340.01 82.26 357.7 82.26 357.7 60.93 375.39 60.93 375.39 98.76 393.08 98.76 393.08 130.61 410.77 130.61 410.77 166.17 428.46 166.17 428.46 188.07 446.15 188.07 446.15 203.7 463.83 203.7 463.83 219.35 481.53 219.35 481.53 230.44 499.22 230.44 499.22 234.99 516.92 234.99 516.92 242.67 534.6 242.67 534.6 244.66 552.29 244.66 552.29 244.94 569.99 244.94 569.99 244.94 587.67 244.94 587.67 245.51 605.37 245.51 605.37 245.51 623.06 245.51 623.06 245.51 640.74 245.51 640.74 245.51 649.59 245.51"/><polyline class="t" points="30.42 245.22 39.27 245.22 39.27 244.94 56.95 244.94 56.95 244.94 74.65 244.94 74.65 244.09 92.33 244.09 92.33 242.95 110.03 242.95 110.03 241.25 127.72 241.25 127.72 239.26 145.4 239.26 145.4 231.3 163.1 231.3 163.1 224.75 180.79 224.75 180.79 209.11 198.49 209.11 198.49 185.79 216.17 185.79 216.17 163.32 233.86 163.32 233.86 130.04 251.56 130.04 251.56 108.71 269.24 108.71 269.24 108.43 286.94 108.43 286.94 74.01 304.63 74.01 304.63 69.75 322.31 69.75 322.31 58.94 340.01 58.94 340.01 67.76 357.7 67.76 357.7 106.43 375.39 106.43 375.39 105.01 393.08 105.01 393.08 120.09 410.77 120.09 410.77 136.86 428.46 136.86 428.46 156.78 446.15 156.78 446.15 188.35 463.83 188.35 463.83 206.83 481.53 206.83 481.53 220.77 499.22 220.77 499.22 234.13 516.92 234.13 516.92 238.12 534.6 238.12 534.6 241.53 552.29 241.53 552.29 244.09 569.99 244.09 569.99 245.22 587.67 245.22 587.67 245.51 605.37 245.51 605.37 245.51 623.06 245.51 623.06 245.51 640.74 245.51 640.74 245.51 649.59 245.51"/><polyline class="l" points="30.42 245.22 39.27 245.22 39.27 245.51 56.95 245.51 56.95 245.51 74.65 245.51 74.65 244.94 92.33 244.94 92.33 243.8 110.03 243.8 110.03 242.95 127.72 242.95 127.72 239.26 145.4 239.26 145.4 234.99 163.1 234.99 163.1 229.59 180.79 229.59 180.79 216.5 198.49 216.5 198.49 201.71 216.17 201.71 216.17 179.81 233.86 179.81 233.86 159.62 251.56 159.62 251.56 140.28 269.24 140.28 269.24 122.37 286.94 122.37 286.94 101.32 304.63 101.32 304.63 79.7 322.31 79.7 322.31 76 340.01 76 340.01 63.2 357.7 63.2 357.7 66.9 375.39 66.9 375.39 96.2 393.08 96.2 393.08 97.9 410.77 97.9 410.77 114.4 428.46 114.4 428.46 144.55 446.15 144.55 446.15 168.43 463.83 168.43 463.83 188.35 481.53 188.35 481.53 209.4 499.22 209.4 499.22 222.76 516.92 222.76 516.92 232.42 534.6 232.42 534.6 239.54 552.29 239.54 552.29 241.82 569.99 241.82 569.99 245.22 587.67 245.22 587.67 244.66 605.37 244.66 605.37 245.22 623.06 245.22 623.06 245.51 640.74 245.51 640.74 245.22 649.59 245.22"/><line class="j" x1="56.95" y1="250.49" x2="56.95" y2="254.49"/><line class="j" x1="145.4" y1="250.49" x2="145.4" y2="254.49"/><line class="j" x1="233.86" y1="250.49" x2="233.86" y2="254.49"/><line class="j" x1="322.31" y1="250.49" x2="322.31" y2="254.49"/><line class="j" x1="410.77" y1="250.49" x2="410.77" y2="254.49"/><line class="j" x1="499.22" y1="250.49" x2="499.22" y2="254.49"/><line class="j" x1="587.67" y1="250.49" x2="587.67" y2="254.49"/><line class="k" x1="322.31" y1="246.89" x2="322.31" y2="35.21"/></g></g></svg>