<?xml version="1.0" encoding="UTF-8"?><svg id="g" xmlns="http://www.w3.org/2000/svg" viewBox="0 0 660 280"><defs><style>.h{fill:rgba(62,77,89,.1);}.h,.i,.j{stroke:#3e4d59;}.h,.j,.k,.l{stroke-linejoin:round;}.m{stroke:#1a1a1a;}.m,.i{fill:#f2f2f2;stroke-width:1.25px;}.m,.i,.n,.o{stroke-miterlimit:10;}.p{fill:#fff;}.q{fill:#666c80;}.r,.j{fill:#3e4d59;}.n{stroke:#666c80;}.n,.o{stroke-linecap:round;}.n,.o,.k,.l{fill:none;}.o{stroke:#fff;stroke-dasharray:0 0 4 6;stroke-width:1.5px;}.k{stroke:#939598;}.k,.l{stroke-width:.25px;}.l{stroke:#231f20;}</style></defs><rect class="p" x="0" width="660" height="280"/><rect class="i" x="233.86" y="35.21" width="176.91" height="209.3"/><path class="q" d="m126.45,266.2v1.34h-7.34v-1.34h7.34Z"/><path class="q" d="m134.34,260.39v12.87h-1.63v-10.84l-3.28,1.2v-1.47l4.65-1.76h.25Z"/><path class="q" d="m147.14,265.84v1.95c0,2.1-.36,3.56-1.09,4.39s-1.71,1.25-2.95,1.25-2.21-.42-2.94-1.25-1.11-2.3-1.11-4.39v-1.95c0-2.09.37-3.54,1.1-4.35s1.71-1.21,2.94-1.21,2.23.4,2.96,1.21,1.09,2.25,1.09,4.35Zm-1.63,2.21v-2.49c0-1.44-.21-2.46-.62-3.06s-1.01-.9-1.8-.9-1.37.3-1.78.9-.62,1.62-.62,3.06v2.49c0,1.43.21,2.46.63,3.09s1.02.95,1.79.95,1.4-.32,1.8-.95.6-1.66.6-3.09Z"/><path class="q" d="m151.98,262.56c0-.63.22-1.17.66-1.61.44-.45.97-.67,1.58-.67s1.13.22,1.56.67c.43.45.65.99.65,1.61s-.22,1.16-.65,1.6-.95.66-1.56.66-1.14-.22-1.58-.66-.66-.97-.66-1.6Zm1.09,0c0,.32.11.59.34.81s.5.33.81.33.58-.11.8-.33.32-.49.32-.81-.11-.6-.32-.83-.48-.33-.8-.33-.59.11-.81.33-.34.5-.34.83Z"/><path class="q" d="m166.76,269.19h1.69c-.13,1.21-.59,2.22-1.37,3.03s-1.95,1.21-3.48,1.21-2.71-.54-3.62-1.62c-.91-1.08-1.37-2.52-1.37-4.31v-1.27c0-1.79.46-3.23,1.38-4.32s2.18-1.63,3.76-1.63c1.45,0,2.56.4,3.34,1.2s1.23,1.83,1.36,3.08h-1.69c-.13-.89-.42-1.59-.86-2.11-.45-.52-1.16-.78-2.15-.78-1.13,0-1.99.42-2.58,1.25s-.88,1.93-.88,3.29v1.29c0,1.26.27,2.33.8,3.22.53.89,1.37,1.33,2.5,1.33,1.08,0,1.84-.25,2.28-.76s.74-1.21.88-2.11Z"/><path class="q" d="m37.72,266.2v1.34h-7.34v-1.34h7.34Z"/><path class="q" d="m45.6,260.39v12.87h-1.63v-10.84l-3.28,1.2v-1.47l4.65-1.76h.25Z"/><path class="q" d="m52.43,267.17l-1.3-.33.64-6.37h6.57v1.5h-5.19l-.39,3.48c.23-.13.53-.26.89-.38s.77-.18,1.24-.18c1.18,0,2.11.39,2.79,1.16.68.78,1.02,1.82,1.02,3.12,0,1.22-.33,2.24-1,3.04-.67.81-1.68,1.21-3.05,1.21-1.04,0-1.93-.29-2.69-.88-.76-.58-1.19-1.47-1.31-2.67h1.55c.21,1.47,1.02,2.21,2.45,2.21.77,0,1.36-.26,1.78-.78s.63-1.23.63-2.12c0-.8-.22-1.48-.66-2.03s-1.07-.82-1.89-.82c-.54,0-.96.07-1.24.22s-.57.35-.85.6Z"/><path class="q" d="m63.24,262.56c0-.63.22-1.17.66-1.61.44-.45.97-.67,1.58-.67s1.13.22,1.56.67c.43.45.65.99.65,1.61s-.22,1.16-.65,1.6-.95.66-1.56.66-1.14-.22-1.58-.66-.66-.97-.66-1.6Zm1.09,0c0,.32.11.59.34.81s.5.33.81.33.58-.11.8-.33.32-.49.32-.81-.11-.6-.32-.83-.48-.33-.8-.33-.59.11-.81.33-.34.5-.34.83Z"/><path class="q" d="m78.02,269.19h1.69c-.13,1.21-.59,2.22-1.37,3.03s-1.95,1.21-3.48,1.21-2.71-.54-3.62-1.62c-.91-1.08-1.37-2.52-1.37-4.31v-1.27c0-1.79.46-3.23,1.38-4.32s2.18-1.63,3.76-1.63c1.45,0,2.56.4,3.34,1.2s1.23,1.83,1.36,3.08h-1.69c-.13-.89-.42-1.59-.86-2.11-.45-.52-1.16-.78-2.15-.78-1.13,0-1.99.42-2.58,1.25s-.88,1.93-.88,3.29v1.29c0,1.26.27,2.33.8,3.22.53.89,1.37,1.33,2.5,1.33,1.08,0,1.84-.25,2.28-.76s.74-1.21.88-2.11Z"/><path class="r" d="m220.18,265.95v2.07h-7.59v-2.07h7.59Z"/><path class="r" d="m224.58,267.46l-2.02-.49.73-6.5h7.17v2.11h-5.08l-.32,2.76c.17-.09.42-.2.76-.31.34-.11.72-.17,1.15-.17,1.24,0,2.2.38,2.88,1.13s1.02,1.81,1.02,3.16c0,1.14-.35,2.14-1.05,3s-1.79,1.29-3.26,1.29c-1.11,0-2.1-.33-2.98-.98s-1.33-1.58-1.36-2.76h2.51c.11,1.13.71,1.7,1.8,1.7.64,0,1.1-.23,1.38-.69.28-.46.42-1.02.42-1.69s-.17-1.22-.5-1.63c-.33-.41-.85-.62-1.56-.62-.46,0-.82.07-1.07.22-.25.15-.46.31-.63.48Z"/><path class="r" d="m235.42,262.71c0-.66.23-1.23.7-1.71s1.03-.72,1.69-.72,1.2.24,1.66.72.69,1.05.69,1.71-.23,1.22-.69,1.69-1.01.69-1.66.69-1.22-.23-1.69-.69-.7-1.03-.7-1.69Zm1.28,0c0,.31.11.57.33.78.22.21.48.31.78.31s.55-.1.76-.31c.21-.21.31-.47.31-.78s-.1-.59-.31-.8c-.21-.21-.46-.32-.76-.32s-.56.11-.78.32c-.22.21-.33.48-.33.8Z"/><path class="r" d="m249.86,269h2.64c-.09,1.3-.58,2.37-1.46,3.19-.89.83-2.12,1.24-3.69,1.24s-2.93-.55-3.88-1.66-1.42-2.6-1.42-4.5v-.83c0-1.89.48-3.39,1.45-4.5.97-1.11,2.26-1.67,3.87-1.67s2.82.43,3.67,1.28c.85.85,1.34,1.94,1.46,3.25h-2.64c-.06-.76-.27-1.35-.64-1.75-.37-.41-.99-.61-1.86-.61-1.76,0-2.64,1.33-2.64,3.99v.85c0,1.32.2,2.32.6,2.99s1.07,1,2.01,1c.83,0,1.44-.19,1.83-.57.39-.38.62-.95.68-1.71Z"/><path class="r" d="m399.54,268.38h-3.17v3.59h-2.41v-3.59h-3.19v-2.29h3.19v-3.43h2.41v3.43h3.17v2.29Z"/><path class="r" d="m403.37,267.46l-2.02-.49.73-6.5h7.17v2.11h-5.08l-.32,2.76c.17-.09.42-.2.76-.31.34-.11.72-.17,1.15-.17,1.24,0,2.2.38,2.88,1.13s1.02,1.81,1.02,3.16c0,1.14-.35,2.14-1.05,3s-1.79,1.29-3.26,1.29c-1.11,0-2.1-.33-2.98-.98s-1.33-1.58-1.36-2.76h2.51c.11,1.13.71,1.7,1.8,1.7.64,0,1.1-.23,1.38-.69.28-.46.42-1.02.42-1.69s-.17-1.22-.5-1.63c-.33-.41-.85-.62-1.56-.62-.46,0-.82.07-1.07.22-.25.15-.46.31-.63.48Z"/><path class="r" d="m414.22,262.71c0-.66.23-1.23.7-1.71s1.03-.72,1.69-.72,1.2.24,1.66.72.69,1.05.69,1.71-.23,1.22-.69,1.69-1.01.69-1.66.69-1.22-.23-1.69-.69-.7-1.03-.7-1.69Zm1.28,0c0,.31.11.57.33.78.22.21.48.31.78.31s.55-.1.76-.31c.21-.21.31-.47.31-.78s-.1-.59-.31-.8c-.21-.21-.46-.32-.76-.32s-.56.11-.78.32c-.22.21-.33.48-.33.8Z"/><path class="r" d="m428.66,269h2.64c-.09,1.3-.58,2.37-1.46,3.19-.89.83-2.12,1.24-3.69,1.24s-2.93-.55-3.88-1.66-1.42-2.6-1.42-4.5v-.83c0-1.89.48-3.39,1.45-4.5.97-1.11,2.26-1.67,3.87-1.67s2.82.43,3.67,1.28c.85.85,1.34,1.94,1.46,3.25h-2.64c-.06-.76-.27-1.35-.64-1.75-.37-.41-.99-.61-1.86-.61-1.76,0-2.64,1.33-2.64,3.99v.85c0,1.32.2,2.32.6,2.99s1.07,1,2.01,1c.83,0,1.44-.19,1.83-.57.39-.38.62-.95.68-1.71Z"/><path class="q" d="m484.01,267.92h-3.57v4.05h-1.63v-4.05h-3.58v-1.53h3.58v-3.74h1.63v3.74h3.57v1.53Z"/><path class="q" d="m491.17,260.39v12.87h-1.63v-10.84l-3.28,1.2v-1.47l4.65-1.76h.25Z"/><path class="q" d="m503.98,265.84v1.95c0,2.1-.36,3.56-1.09,4.39s-1.71,1.25-2.95,1.25-2.21-.42-2.94-1.25-1.11-2.3-1.11-4.39v-1.95c0-2.09.37-3.54,1.1-4.35s1.71-1.21,2.94-1.21,2.23.4,2.96,1.21,1.09,2.25,1.09,4.35Zm-1.63,2.21v-2.49c0-1.44-.21-2.46-.62-3.06s-1.01-.9-1.8-.9-1.37.3-1.78.9-.62,1.62-.62,3.06v2.49c0,1.43.21,2.46.63,3.09s1.02.95,1.79.95,1.4-.32,1.8-.95.6-1.66.6-3.09Z"/><path class="q" d="m508.81,262.56c0-.63.22-1.17.66-1.61.44-.45.97-.67,1.58-.67s1.13.22,1.56.67c.43.45.65.99.65,1.61s-.22,1.16-.65,1.6-.95.66-1.56.66-1.14-.22-1.58-.66-.66-.97-.66-1.6Zm1.09,0c0,.32.11.59.34.81s.5.33.81.33.58-.11.79-.33.32-.49.32-.81-.11-.6-.32-.83-.48-.33-.79-.33-.59.11-.81.33-.34.5-.34.83Z"/><path class="q" d="m523.6,269.19h1.69c-.13,1.21-.59,2.22-1.37,3.03s-1.95,1.21-3.48,1.21-2.71-.54-3.62-1.62c-.91-1.08-1.37-2.52-1.37-4.31v-1.27c0-1.79.46-3.23,1.38-4.32s2.18-1.63,3.76-1.63c1.45,0,2.56.4,3.34,1.2s1.23,1.83,1.36,3.08h-1.69c-.13-.89-.42-1.59-.86-2.11-.45-.52-1.16-.78-2.15-.78-1.13,0-1.99.42-2.58,1.25s-.88,1.93-.88,3.29v1.29c0,1.26.27,2.33.8,3.22.53.89,1.37,1.33,2.5,1.33,1.08,0,1.84-.25,2.28-.76s.74-1.21.88-2.11Z"/><path class="q" d="m560.77,267.92h-3.57v4.05h-1.63v-4.05h-3.58v-1.53h3.58v-3.74h1.63v3.74h3.57v1.53Z"/><path class="q" d="m567.93,260.39v12.87h-1.63v-10.84l-3.28,1.2v-1.47l4.65-1.76h.25Z"/><path class="q" d="m574.76,267.17l-1.3-.33.64-6.37h6.57v1.5h-5.19l-.39,3.48c.23-.13.53-.26.89-.38s.78-.18,1.24-.18c1.18,0,2.11.39,2.79,1.16.68.78,1.02,1.82,1.02,3.12,0,1.22-.33,2.24-1,3.04-.67.81-1.68,1.21-3.05,1.21-1.04,0-1.93-.29-2.69-.88-.76-.58-1.19-1.47-1.31-2.67h1.55c.21,1.47,1.02,2.21,2.45,2.21.77,0,1.36-.26,1.78-.78s.63-1.23.63-2.12c0-.8-.22-1.48-.66-2.03s-1.07-.82-1.89-.82c-.54,0-.96.07-1.24.22s-.57.35-.85.6Z"/><path class="q" d="m585.57,262.56c0-.63.22-1.17.66-1.61.44-.45.97-.67,1.58-.67s1.13.22,1.56.67c.43.45.65.99.65,1.61s-.22,1.16-.65,1.6-.95.66-1.56.66-1.14-.22-1.58-.66-.66-.97-.66-1.6Zm1.09,0c0,.32.11.59.34.81s.5.33.81.33.58-.11.79-.33.32-.49.32-.81-.11-.6-.32-.83-.48-.33-.79-.33-.59.11-.81.33-.34.5-.34.83Z"/><path class="q" d="m600.36,269.19h1.69c-.13,1.21-.59,2.22-1.37,3.03s-1.95,1.21-3.48,1.21-2.71-.54-3.62-1.62c-.91-1.08-1.37-2.52-1.37-4.31v-1.27c0-1.79.46-3.23,1.38-4.32s2.18-1.63,3.76-1.63c1.45,0,2.56.4,3.34,1.2s1.23,1.83,1.36,3.08h-1.69c-.13-.89-.42-1.59-.86-2.11-.45-.52-1.16-.78-2.15-.78-1.13,0-1.99.42-2.58,1.25s-.88,1.93-.88,3.29v1.29c0,1.26.27,2.33.8,3.22.53.89,1.37,1.33,2.5,1.33,1.08,0,1.84-.25,2.28-.76s.74-1.21.88-2.11Z"/><circle class="r" cx="322.08" cy="269.42" r="2.5"/><line class="m" x1="411.07" y1="44.38" x2="421.5" y2="44.38"/><path class="r" d="m440.53,35.27v1.89l-6.6,15.18h-3.57l6.6-14.33h-8.48v-2.73h12.06Z"/><path class="r" d="m454.3,35.27v1.89l-6.6,15.18h-3.57l6.6-14.33h-8.48v-2.73h12.06Z"/><path class="r" d="m462.39,39.45v-.9c0-.97.32-1.8.95-2.49s1.55-1.04,2.75-1.04,2.15.35,2.77,1.04.93,1.52.93,2.49v.9c0,.95-.31,1.78-.93,2.47s-1.54,1.04-2.75,1.04-2.13-.35-2.77-1.04-.96-1.51-.96-2.47Zm2.26-.9v.9c0,.41.12.77.36,1.08s.61.47,1.11.47.84-.16,1.08-.47.35-.67.35-1.08v-.9c0-.41-.12-.78-.36-1.1s-.6-.47-1.1-.47-.85.16-1.08.47-.36.68-.36,1.1Zm10.46-.83l-8.33,13.34-1.65-.89,8.33-13.34,1.65.89Zm-4.57,11.33v-.9c0-.96.32-1.79.96-2.48s1.56-1.04,2.76-1.04,2.14.35,2.77,1.04.94,1.52.94,2.48v.9c0,.96-.31,1.79-.94,2.48s-1.54,1.04-2.74,1.04-2.14-.35-2.78-1.04-.96-1.52-.96-2.48Zm2.26-.9v.9c0,.41.13.77.4,1.08s.62.47,1.08.47c.55,0,.93-.16,1.13-.47s.3-.68.3-1.08v-.9c0-.41-.12-.78-.36-1.09s-.61-.47-1.09-.47-.86.16-1.1.47-.36.68-.36,1.09Z"/><path class="r" d="m494.8,52.33l-.11-1.36c-.87,1.06-2.07,1.59-3.62,1.59s-2.7-.61-3.62-1.83-1.38-2.75-1.38-4.61v-.25c0-1.94.46-3.5,1.38-4.69s2.13-1.78,3.64-1.78,2.66.5,3.52,1.5v-6.59h2.18v18h-1.99Zm-6.54-6.2c0,1.26.27,2.34.8,3.24s1.38,1.35,2.55,1.35c.76,0,1.38-.17,1.85-.52s.86-.79,1.15-1.32v-5.84c-.28-.52-.66-.96-1.14-1.29s-1.09-.51-1.83-.51c-1.18,0-2.04.46-2.57,1.38s-.8,2.01-.8,3.26v.25Z"/><path class="r" d="m505.42,41.24c-.7,0-1.31.19-1.84.56s-.95.86-1.25,1.46v9.06h-2.17v-12.68h2.05l.07,1.58c.96-1.21,2.22-1.82,3.79-1.82,1.25,0,2.24.35,2.97,1.05s1.1,1.89,1.1,3.55v8.31h-2.18v-8.33c0-.99-.22-1.7-.65-2.12s-1.06-.63-1.88-.63Z"/><path class="r" d="m513.52,37.8l2.27-3.45h2.61l-3.14,3.45h-1.75Zm2.24,1.85v12.68h-2.17v-12.68h2.17Z"/><path class="r" d="m534.84,39.65l-4.56,12.68h-1.65l-4.59-12.68h2.23l3.22,9.71,3.14-9.71h2.21Z"/><path class="r" d="m547.94,41.5c-.74,0-1.35.17-1.83.5s-.83.78-1.07,1.33v9h-2.17v-12.68h2.11l.05,1.45c.32-.52.73-.93,1.22-1.23s1.09-.46,1.79-.46c.41,0,.73.05.96.16v2.02c-.33-.06-.68-.09-1.07-.09Z"/><path class="r" d="m550.21,46.13v-.27c0-1.84.52-3.37,1.55-4.6s2.43-1.85,4.21-1.85,3.2.62,4.24,1.85,1.55,2.76,1.55,4.6v.27c0,1.84-.52,3.37-1.55,4.59s-2.44,1.84-4.21,1.84-3.19-.61-4.22-1.84-1.55-2.76-1.55-4.59Zm2.17-.27v.27c0,1.26.3,2.35.9,3.27s1.5,1.38,2.71,1.38,2.08-.46,2.68-1.38.9-2.01.9-3.27v-.27c0-1.24-.3-2.33-.9-3.26s-1.5-1.4-2.71-1.4-2.09.47-2.69,1.4-.9,2.02-.9,3.26Z"/><path class="r" d="m569.54,50.78c.77,0,1.45-.23,2.03-.69s.9-1.05.96-1.77h2.06c-.05,1.13-.57,2.12-1.56,2.97s-2.15,1.27-3.49,1.27c-1.91,0-3.32-.63-4.25-1.89s-1.39-2.74-1.39-4.44v-.49c0-1.7.46-3.18,1.39-4.44s2.34-1.89,4.25-1.89c1.48,0,2.68.44,3.6,1.32s1.4,1.97,1.45,3.28h-2.06c-.05-.78-.35-1.45-.88-1.99s-1.24-.82-2.1-.82-1.59.23-2.09.68-.86,1.03-1.07,1.72-.31,1.41-.31,2.14v.49c0,.74.1,1.46.3,2.16s.56,1.27,1.06,1.72,1.21.67,2.1.67Z"/><path class="r" d="m587.06,50.11c-.41.62-1,1.19-1.76,1.69s-1.76.76-3.01.76c-1.77,0-3.18-.57-4.24-1.72s-1.59-2.62-1.59-4.41v-.49c0-1.38.26-2.56.79-3.53s1.21-1.71,2.06-2.23,1.74-.77,2.7-.77c1.81,0,3.13.59,3.97,1.78s1.25,2.66,1.25,4.44v.97h-8.58c.03,1.16.38,2.15,1.04,2.97s1.57,1.22,2.72,1.22c.77,0,1.41-.16,1.95-.47s1-.73,1.39-1.25l1.31,1.04Zm-5.05-8.92c-.86,0-1.59.31-2.18.94s-.96,1.52-1.11,2.7h6.34v-.16c-.05-.84-.3-1.63-.73-2.37s-1.21-1.1-2.31-1.1Z"/><path class="r" d="m434.48,65.24c-.77,0-1.39.16-1.86.49s-.82.76-1.05,1.3v9.29h-2.18v-12.68h2.06l.06,1.38c.91-1.08,2.16-1.62,3.75-1.62.81,0,1.54.16,2.17.49s1.12.84,1.46,1.55c.42-.61.97-1.1,1.65-1.48s1.47-.56,2.38-.56c1.36,0,2.41.36,3.15,1.09s1.11,1.89,1.11,3.49v8.33h-2.18v-8.36c0-1.06-.24-1.78-.73-2.16s-1.15-.57-1.97-.57c-.88,0-1.56.26-2.06.78s-.79,1.15-.87,1.89v8.41h-2.17v-8.34c0-.99-.25-1.7-.74-2.12s-1.15-.63-1.97-.63Z"/><path class="r" d="m458.28,76.33c-.14-.3-.24-.75-.3-1.34-.41.43-.91.8-1.52,1.11s-1.3.46-2.09.46c-1.3,0-2.34-.36-3.12-1.09s-1.17-1.62-1.17-2.67c0-1.36.52-2.39,1.55-3.1s2.42-1.06,4.16-1.06h2.14v-1.01c0-.75-.22-1.35-.67-1.8s-1.12-.67-2-.67c-.82,0-1.48.2-1.99.6s-.76.87-.76,1.4h-2.17c0-.91.46-1.76,1.37-2.55s2.14-1.2,3.67-1.2c1.38,0,2.5.35,3.39,1.05s1.32,1.77,1.32,3.19v5.91c0,.42.04.87.11,1.35s.19.89.33,1.23v.19h-2.26Zm-3.6-1.66c.78,0,1.46-.2,2.03-.59s.98-.82,1.21-1.3v-2.61h-1.79c-2.59,0-3.88.78-3.88,2.34,0,.6.2,1.11.61,1.53s1.01.63,1.82.63Zm-.26-12.89l2.27-3.45h2.61l-3.14,3.45h-1.75Z"/><path class="r" d="m474.83,76.33c-.17.05-.4.11-.67.16s-.61.08-1,.08c-.8,0-1.49-.25-2.06-.74s-.86-1.38-.86-2.65v-7.86h-2.32v-1.66h2.32v-3.08h2.17v3.08h2.37v1.66h-2.37v7.88c0,.65.14,1.06.42,1.24s.61.27.97.27c.18,0,.37-.02.57-.05s.35-.06.45-.09v1.77Z"/><path class="r" d="m487.35,74.11c-.41.62-1,1.19-1.76,1.69s-1.76.76-3.01.76c-1.77,0-3.18-.57-4.24-1.72s-1.59-2.62-1.59-4.41v-.49c0-1.38.26-2.56.79-3.53s1.21-1.71,2.06-2.23,1.74-.77,2.7-.77c1.81,0,3.13.59,3.97,1.78s1.25,2.66,1.25,4.44v.97h-8.58c.03,1.16.38,2.15,1.04,2.97s1.57,1.22,2.72,1.22c.77,0,1.41-.16,1.95-.47s1-.73,1.39-1.25l1.31,1.04Zm-5.05-8.92c-.86,0-1.59.31-2.18.94s-.96,1.52-1.11,2.7h6.34v-.16c-.05-.84-.3-1.63-.73-2.37s-1.21-1.1-2.31-1.1Z"/><path class="r" d="m495.83,76.56c-1.52,0-2.73-.49-3.62-1.46v6.11h-2.18v-17.55h1.99l.11,1.39c.89-1.09,2.11-1.63,3.67-1.63s2.83.59,3.68,1.78,1.28,2.75,1.28,4.69v.25c0,1.85-.43,3.39-1.28,4.61s-2.07,1.83-3.64,1.83Zm-.67-11.32c-.73,0-1.34.17-1.82.5s-.86.75-1.14,1.25v6.07c.29.5.67.91,1.14,1.24s1.08.49,1.83.49c1.17,0,2.03-.46,2.57-1.38s.81-2.01.81-3.27v-.25c0-1.26-.27-2.35-.81-3.26s-1.41-1.38-2.6-1.38Z"/><path class="r" d="m505.87,58.33v18h-2.18v-18h2.18Z"/><path class="r" d="m508.78,70.13v-.27c0-1.84.52-3.37,1.55-4.6s2.43-1.85,4.21-1.85,3.2.62,4.24,1.85,1.55,2.76,1.55,4.6v.27c0,1.84-.52,3.37-1.55,4.59s-2.44,1.84-4.21,1.84-3.19-.61-4.22-1.84-1.55-2.76-1.55-4.59Zm2.17-.27v.27c0,1.26.3,2.35.9,3.27s1.5,1.38,2.71,1.38,2.08-.46,2.68-1.38.9-2.01.9-3.27v-.27c0-1.24-.3-2.33-.9-3.26s-1.5-1.4-2.71-1.4-2.09.47-2.69,1.4-.9,2.02-.9,3.26Z"/><path class="r" d="m528.41,76.33c-.17.05-.4.11-.67.16s-.61.08-1,.08c-.8,0-1.49-.25-2.06-.74s-.86-1.38-.86-2.65v-7.86h-2.32v-1.66h2.32v-3.08h2.17v3.08h2.37v1.66h-2.37v7.88c0,.65.14,1.06.42,1.24s.61.27.97.27c.18,0,.37-.02.57-.05s.35-.06.45-.09v1.77Z"/><path class="r" d="m538.76,76.33l-.05-1.25c-.39.47-.89.83-1.5,1.1s-1.34.39-2.2.39c-1.24,0-2.25-.37-3.01-1.1s-1.15-1.95-1.15-3.63v-8.18h2.17v8.2c0,1.14.24,1.9.72,2.29s1.02.58,1.61.58c.88,0,1.59-.17,2.12-.5s.93-.78,1.18-1.34v-9.23h2.18v12.68h-2.07Z"/><path class="r" d="m560.81,70.13c0,1.85-.43,3.39-1.29,4.61s-2.07,1.83-3.64,1.83-2.84-.57-3.7-1.7l-.12,1.46h-1.99v-18h2.18v6.69c.86-1.07,2.06-1.61,3.61-1.61s2.82.59,3.67,1.78,1.28,2.75,1.28,4.69v.25Zm-5.5-4.89c-.79,0-1.43.19-1.92.57s-.88.85-1.15,1.4v5.52c.28.56.67,1.04,1.17,1.42s1.14.57,1.92.57c1.17,0,2.01-.45,2.53-1.35s.77-1.98.77-3.24v-.25c0-1.26-.24-2.35-.73-3.26s-1.35-1.38-2.58-1.38Z"/><path class="r" d="m565.91,58.33v18h-2.18v-18h2.18Z"/><path class="r" d="m569.5,61.8l2.27-3.45h2.61l-3.14,3.45h-1.75Zm2.24,1.85v12.68h-2.17v-12.68h2.17Z"/><path class="r" d="m574.82,65.44v-1.79h9.62v1.54l-7.05,9.36h7.39v1.78h-10.05v-1.59l6.98-9.29h-6.89Z"/><path class="r" d="m595.18,76.33l-4.39-5.88-1.37,1.42v4.46h-2.18v-18h2.18v10.88l1.16-1.38,3.94-4.17h2.65l-4.95,5.29,5.52,7.39h-2.55Z"/><path class="r" d="m598.83,70.13v-.27c0-1.84.52-3.37,1.55-4.6s2.43-1.85,4.21-1.85,3.2.62,4.24,1.85,1.55,2.76,1.55,4.6v.27c0,1.84-.52,3.37-1.55,4.59s-2.44,1.84-4.21,1.84-3.19-.61-4.22-1.84-1.55-2.76-1.55-4.59Zm2.17-.27v.27c0,1.26.3,2.35.9,3.27s1.5,1.38,2.71,1.38,2.08-.46,2.68-1.38.9-2.01.9-3.27v-.27c0-1.24-.3-2.33-.9-3.26s-1.5-1.4-2.71-1.4-2.09.47-2.69,1.4-.9,2.02-.9,3.26Z"/><path class="r" d="m620.95,76.33l-.05-1.25c-.39.47-.89.83-1.5,1.1s-1.34.39-2.2.39c-1.24,0-2.25-.37-3.01-1.1s-1.15-1.95-1.15-3.63v-8.18h2.17v8.2c0,1.14.24,1.9.72,2.29s1.02.58,1.61.58c.88,0,1.59-.17,2.12-.5s.93-.78,1.18-1.34v-9.23h2.18v12.68h-2.07Z"/><path class="r" d="m434.67,89.24c-.7,0-1.31.19-1.84.56s-.95.86-1.25,1.46v9.06h-2.17v-12.68h2.05l.07,1.58c.96-1.21,2.22-1.82,3.79-1.82,1.25,0,2.24.35,2.97,1.05s1.1,1.89,1.1,3.55v8.31h-2.18v-8.33c0-.99-.22-1.7-.65-2.12s-1.06-.63-1.88-.63Z"/><path class="r" d="m442.09,94.13v-.27c0-1.84.52-3.37,1.55-4.6s2.43-1.85,4.21-1.85,3.2.62,4.24,1.85,1.55,2.76,1.55,4.6v.27c0,1.84-.52,3.37-1.55,4.59s-2.44,1.84-4.21,1.84-3.19-.61-4.22-1.84-1.55-2.76-1.55-4.59Zm2.17-.27v.27c0,1.26.3,2.35.9,3.27s1.5,1.38,2.71,1.38,2.08-.46,2.68-1.38.9-2.01.9-3.27v-.27c0-1.24-.3-2.33-.9-3.26s-1.5-1.4-2.71-1.4-2.09.47-2.69,1.4-.9,2.02-.9,3.26Z"/><path class="r" d="m461.41,89.5c-.74,0-1.35.17-1.83.5s-.83.78-1.07,1.33v9h-2.17v-12.68h2.11l.05,1.45c.32-.52.73-.93,1.22-1.23s1.09-.46,1.79-.46c.41,0,.73.05.96.16v2.02c-.33-.06-.68-.09-1.07-.09Z"/><path class="r" d="m469.56,89.24c-.77,0-1.39.16-1.86.49s-.82.76-1.05,1.3v9.29h-2.18v-12.68h2.06l.06,1.38c.91-1.08,2.16-1.62,3.75-1.62.81,0,1.54.16,2.17.49s1.12.84,1.46,1.55c.42-.61.97-1.1,1.65-1.48s1.47-.56,2.38-.56c1.36,0,2.41.36,3.15,1.09s1.11,1.89,1.11,3.49v8.33h-2.18v-8.36c0-1.06-.24-1.78-.73-2.16s-1.15-.57-1.97-.57c-.88,0-1.56.26-2.06.78s-.79,1.15-.87,1.89v8.41h-2.17v-8.34c0-.99-.25-1.7-.74-2.12s-1.15-.63-1.97-.63Z"/><path class="r" d="m493.36,100.33c-.14-.3-.24-.75-.3-1.34-.41.43-.91.8-1.52,1.11s-1.3.46-2.09.46c-1.3,0-2.34-.36-3.12-1.09s-1.17-1.62-1.17-2.67c0-1.36.52-2.39,1.55-3.1s2.42-1.06,4.16-1.06h2.14v-1.01c0-.75-.22-1.35-.67-1.8s-1.12-.67-2-.67c-.82,0-1.48.2-1.99.6s-.76.87-.76,1.4h-2.17c0-.91.46-1.76,1.37-2.55s2.14-1.2,3.67-1.2c1.38,0,2.5.35,3.39,1.05s1.32,1.77,1.32,3.19v5.91c0,.42.04.87.11,1.35s.19.89.33,1.23v.19h-2.26Zm-3.6-1.66c.78,0,1.46-.2,2.03-.59s.98-.82,1.21-1.3v-2.61h-1.79c-2.59,0-3.88.78-3.88,2.34,0,.6.2,1.11.61,1.53s1.01.63,1.82.63Zm-.26-12.89l2.27-3.45h2.61l-3.14,3.45h-1.75Z"/><path class="r" d="m500.94,82.33v18h-2.18v-18h2.18Z"/><path class="r" d="m512.28,100.33l-.05-1.25c-.39.47-.89.83-1.5,1.1s-1.34.39-2.2.39c-1.24,0-2.25-.37-3.01-1.1s-1.15-1.95-1.15-3.63v-8.18h2.17v8.2c0,1.14.24,1.9.72,2.29s1.02.58,1.61.58c.88,0,1.59-.17,2.12-.5s.93-.78,1.18-1.34v-9.23h2.18v12.68h-2.07Z"/><path class="r" d="m529.39,100.56c-1.52,0-2.73-.49-3.62-1.46v6.11h-2.18v-17.55h1.99l.11,1.39c.89-1.09,2.11-1.63,3.67-1.63s2.83.59,3.68,1.78,1.28,2.75,1.28,4.69v.25c0,1.85-.43,3.39-1.28,4.61s-2.07,1.83-3.64,1.83Zm-.67-11.32c-.73,0-1.34.17-1.82.5s-.86.75-1.14,1.25v6.07c.29.5.67.91,1.14,1.24s1.08.49,1.83.49c1.17,0,2.03-.46,2.57-1.38s.81-2.01.81-3.27v-.25c0-1.26-.27-2.35-.81-3.26s-1.41-1.38-2.6-1.38Z"/><path class="r" d="m542.14,89.5c-.74,0-1.35.17-1.83.5s-.83.78-1.07,1.33v9h-2.17v-12.68h2.11l.05,1.45c.32-.52.73-.93,1.22-1.23s1.09-.46,1.79-.46c.41,0,.73.05.96.16v2.02c-.33-.06-.68-.09-1.07-.09Z"/><path class="r" d="m544.41,94.13v-.27c0-1.84.52-3.37,1.55-4.6s2.43-1.85,4.21-1.85,3.2.62,4.24,1.85,1.55,2.76,1.55,4.6v.27c0,1.84-.52,3.37-1.55,4.59s-2.44,1.84-4.21,1.84-3.19-.61-4.22-1.84-1.55-2.76-1.55-4.59Zm2.17-.27v.27c0,1.26.3,2.35.9,3.27s1.5,1.38,2.71,1.38,2.08-.46,2.68-1.38.9-2.01.9-3.27v-.27c0-1.24-.3-2.33-.9-3.26s-1.5-1.4-2.71-1.4-2.09.47-2.69,1.4-.9,2.02-.9,3.26Z"/><path class="r" d="m572.8,100.33l-.11-1.36c-.87,1.06-2.07,1.59-3.62,1.59s-2.7-.61-3.62-1.83-1.38-2.75-1.38-4.61v-.25c0-1.94.46-3.5,1.38-4.69s2.13-1.78,3.64-1.78,2.66.5,3.52,1.5v-6.59h2.18v18h-1.99Zm-6.54-6.2c0,1.26.27,2.34.8,3.24s1.38,1.35,2.55,1.35c.76,0,1.38-.17,1.85-.52s.86-.79,1.15-1.32v-5.84c-.28-.52-.66-.96-1.14-1.29s-1.09-.51-1.83-.51c-1.18,0-2.04.46-2.57,1.38s-.8,2.01-.8,3.26v.25Z"/><path class="r" d="m585.98,100.33c-.14-.3-.24-.75-.3-1.34-.41.43-.91.8-1.52,1.11s-1.3.46-2.09.46c-1.3,0-2.34-.36-3.12-1.09s-1.17-1.62-1.17-2.67c0-1.36.52-2.39,1.55-3.1s2.42-1.06,4.16-1.06h2.14v-1.01c0-.75-.22-1.35-.67-1.8s-1.12-.67-2-.67c-.82,0-1.48.2-1.99.6s-.76.87-.76,1.4h-2.17c0-.91.46-1.76,1.37-2.55s2.14-1.2,3.67-1.2c1.38,0,2.5.35,3.39,1.05s1.32,1.77,1.32,3.19v5.91c0,.42.04.87.11,1.35s.19.89.33,1.23v.19h-2.26Zm-3.6-1.66c.78,0,1.46-.2,2.03-.59s.98-.82,1.21-1.3v-2.61h-1.79c-2.59,0-3.88.78-3.88,2.34,0,.6.2,1.11.61,1.53s1.01.63,1.82.63Z"/><path class="r" d="m596.47,89.24c-.7,0-1.31.19-1.84.56s-.95.86-1.25,1.46v9.06h-2.17v-12.68h2.05l.07,1.58c.96-1.21,2.22-1.82,3.79-1.82,1.25,0,2.24.35,2.97,1.05s1.1,1.89,1.1,3.55v8.31h-2.18v-8.33c0-.99-.22-1.7-.65-2.12s-1.06-.63-1.88-.63Z"/><path class="r" d="m608.79,102.29c-.16.41-.38.87-.68,1.37s-.69.92-1.19,1.27-1.13.53-1.89.53c-.18,0-.4-.02-.66-.06s-.45-.08-.56-.12v-1.76c.16.03.36.05.57.05.73,0,1.31-.15,1.72-.45s.75-.84,1.02-1.62l.47-1.29-4.52-12.54h2.37l3.18,9.49,2.94-9.49h2.32l-5.09,14.64Zm-1.22-16.51l2.27-3.45h2.61l-3.14,3.45h-1.75Z"/><path class="r" d="m629.95,100.33l-.11-1.36c-.87,1.06-2.07,1.59-3.62,1.59s-2.7-.61-3.62-1.83-1.38-2.75-1.38-4.61v-.25c0-1.94.46-3.5,1.38-4.69s2.13-1.78,3.64-1.78,2.66.5,3.52,1.5v-6.59h2.18v18h-1.99Zm-6.54-6.2c0,1.26.27,2.34.8,3.24s1.38,1.35,2.55,1.35c.76,0,1.38-.17,1.85-.52s.86-.79,1.15-1.32v-5.84c-.28-.52-.66-.96-1.14-1.29s-1.09-.51-1.83-.51c-1.18,0-2.04.46-2.57,1.38s-.8,2.01-.8,3.26v.25Z"/><path class="r" d="m645.34,98.11c-.41.62-1,1.19-1.76,1.69s-1.76.76-3.01.76c-1.77,0-3.18-.57-4.24-1.72s-1.59-2.62-1.59-4.41v-.49c0-1.38.26-2.56.79-3.53s1.21-1.71,2.06-2.23,1.74-.77,2.7-.77c1.81,0,3.13.59,3.97,1.78s1.25,2.66,1.25,4.44v.97h-8.58c.03,1.16.38,2.15,1.04,2.97s1.57,1.22,2.72,1.22c.77,0,1.41-.16,1.95-.47s1-.73,1.39-1.25l1.31,1.04Zm-5.05-8.92c-.86,0-1.59.31-2.18.94s-.96,1.52-1.11,2.7h6.34v-.16c-.05-.84-.3-1.63-.73-2.37s-1.21-1.1-2.31-1.1Z"/><path class="r" d="m653.3,89.24c-.7,0-1.31.19-1.84.56s-.95.86-1.25,1.46v9.06h-2.17v-12.68h2.05l.07,1.58c.96-1.21,2.22-1.82,3.79-1.82,1.25,0,2.24.35,2.97,1.05s1.1,1.89,1.1,3.55v8.31h-2.18v-8.33c0-.99-.22-1.7-.65-2.12s-1.06-.63-1.88-.63Z"/><path class="r" d="m38.68,214.11v15.73h-1.99v-13.25l-4.01,1.46v-1.79l5.68-2.15h.31Z"/><path class="r" d="m54.13,221.03c0,1.02-.09,2.04-.26,3.08-.18,1.04-.52,1.99-1.02,2.86s-1.25,1.57-2.24,2.1c-.99.53-2.29.79-3.91.79h-.2v-1.69h.2c1.44,0,2.55-.25,3.32-.74s1.31-1.14,1.62-1.94c.3-.8.47-1.65.51-2.55-.42.49-.91.9-1.49,1.2-.58.31-1.21.46-1.89.46-1.03,0-1.88-.26-2.54-.77-.66-.52-1.15-1.17-1.46-1.97-.32-.8-.47-1.62-.47-2.48,0-1.49.41-2.76,1.23-3.82.82-1.06,2.03-1.58,3.63-1.58,1.19,0,2.15.31,2.88.92.73.62,1.27,1.41,1.6,2.37s.5,1.98.5,3.03v.72Zm-7.88-1.75c0,.93.23,1.78.7,2.54.47.76,1.18,1.14,2.13,1.14.68,0,1.3-.2,1.85-.61.55-.41.96-.91,1.22-1.51v-.78c0-1.42-.3-2.52-.91-3.28-.61-.76-1.31-1.14-2.1-1.14-.92,0-1.64.35-2.14,1.05s-.76,1.57-.76,2.6Z"/><path class="r" d="m66.89,224.73c0,1.48-.41,2.74-1.24,3.77s-2.03,1.55-3.61,1.55c-1.12,0-2.06-.3-2.8-.9-.75-.6-1.3-1.36-1.67-2.28-.37-.92-.55-1.86-.55-2.83v-.93c0-1.47.21-2.89.62-4.25.41-1.37,1.16-2.49,2.24-3.37,1.08-.88,2.63-1.32,4.64-1.32h.17v1.69h-.17c-1.27,0-2.29.24-3.06.73-.77.49-1.35,1.12-1.72,1.9-.38.78-.6,1.61-.68,2.5.43-.49.93-.84,1.51-1.07.58-.23,1.19-.34,1.85-.34,1.04,0,1.89.25,2.55.75.66.5,1.15,1.15,1.47,1.94.31.79.47,1.61.47,2.47Zm-7.88-.62c0,1.39.31,2.45.93,3.19.62.74,1.32,1.11,2.1,1.11.92,0,1.63-.33,2.13-1,.5-.67.76-1.53.76-2.57,0-.93-.23-1.77-.7-2.5-.47-.74-1.18-1.11-2.15-1.11-.69,0-1.33.21-1.89.62-.57.42-.96.92-1.18,1.51v.75Z"/><path class="r" d="m75.78,214.11v15.73h-1.99v-13.25l-4.01,1.46v-1.79l5.68-2.15h.31Z"/><path class="r" d="m92.8,221.21v1.63h-10.76v-1.63h10.76Z"/><path class="r" d="m102.58,214.11v15.73h-1.99v-13.25l-4.01,1.46v-1.79l5.68-2.15h.31Z"/><path class="r" d="m118.02,221.03c0,1.02-.09,2.04-.26,3.08-.18,1.04-.52,1.99-1.02,2.86s-1.25,1.57-2.24,2.1c-.99.53-2.29.79-3.91.79h-.2v-1.69h.2c1.44,0,2.55-.25,3.32-.74s1.31-1.14,1.62-1.94c.3-.8.47-1.65.51-2.55-.42.49-.91.9-1.49,1.2-.58.31-1.21.46-1.89.46-1.03,0-1.88-.26-2.54-.77-.66-.52-1.15-1.17-1.46-1.97-.32-.8-.47-1.62-.47-2.48,0-1.49.41-2.76,1.23-3.82.82-1.06,2.03-1.58,3.63-1.58,1.19,0,2.15.31,2.88.92.73.62,1.27,1.41,1.6,2.37s.5,1.98.5,3.03v.72Zm-7.88-1.75c0,.93.23,1.78.7,2.54.47.76,1.18,1.14,2.13,1.14.68,0,1.3-.2,1.85-.61.55-.41.96-.91,1.22-1.51v-.78c0-1.42-.3-2.52-.91-3.28-.61-.76-1.31-1.14-2.1-1.14-.92,0-1.64.35-2.14,1.05s-.76,1.57-.76,2.6Z"/><path class="r" d="m130.63,225.6c0,1.43-.48,2.53-1.43,3.3-.96.77-2.14,1.15-3.54,1.15s-2.58-.38-3.54-1.15c-.96-.77-1.43-1.87-1.43-3.3,0-.87.23-1.65.7-2.31.47-.67,1.1-1.18,1.91-1.52-.69-.34-1.24-.81-1.65-1.43-.4-.62-.61-1.31-.61-2.07,0-1.37.44-2.42,1.31-3.17.87-.74,1.97-1.12,3.3-1.12s2.44.37,3.31,1.12c.87.75,1.31,1.8,1.31,3.17,0,.77-.21,1.47-.62,2.08-.42.61-.97,1.09-1.67,1.42.81.34,1.45.85,1.93,1.53.48.67.72,1.44.72,2.31Zm-2-.04c0-.87-.28-1.59-.83-2.14-.56-.55-1.28-.83-2.16-.83s-1.63.28-2.16.83c-.53.55-.8,1.26-.8,2.14s.27,1.6.8,2.11c.53.5,1.26.75,2.19.75s1.65-.25,2.18-.75c.53-.5.79-1.2.79-2.11Zm-.35-7.26c0-.78-.24-1.42-.73-1.93-.49-.5-1.12-.76-1.9-.76s-1.41.24-1.89.73c-.48.48-.72,1.14-.72,1.96s.24,1.46.72,1.94c.48.49,1.11.73,1.9.73s1.41-.24,1.9-.73c.48-.49.73-1.13.73-1.94Z"/><path class="r" d="m142.96,220.77v2.38c0,2.56-.44,4.35-1.33,5.37-.88,1.02-2.09,1.53-3.6,1.53s-2.7-.51-3.6-1.53c-.9-1.02-1.35-2.81-1.35-5.37v-2.38c0-2.56.45-4.33,1.34-5.31.9-.98,2.09-1.48,3.59-1.48s2.72.49,3.61,1.48c.89.98,1.34,2.76,1.34,5.31Zm-2,2.71v-3.04c0-1.76-.25-3.01-.75-3.74-.5-.73-1.24-1.1-2.2-1.1s-1.67.37-2.18,1.1-.76,1.98-.76,3.74v3.04c0,1.75.26,3.01.77,3.78.51.77,1.24,1.16,2.19,1.16s1.71-.39,2.2-1.16c.49-.77.74-2.03.74-3.78Z"/><polyline class="k" points="30.42 245.22 39.27 245.22 39.27 244.94 56.95 244.94 56.95 244.94 74.65 244.94 74.65 244.09 92.33 244.09 92.33 242.95 110.03 242.95 110.03 241.25 127.72 241.25 127.72 239.26 145.4 239.26 145.4 231.3 163.1 231.3 163.1 224.75 180.79 224.75 180.79 209.11 198.49 209.11 198.49 185.79 216.17 185.79 216.17 163.32 233.86 163.32 233.86 130.04 251.56 130.04 251.56 108.71 269.24 108.71 269.24 108.43 286.94 108.43 286.94 74.01 304.63 74.01 304.63 69.75 322.31 69.75 322.31 58.94 340.01 58.94 340.01 67.76 357.7 67.76 357.7 106.43 375.39 106.43 375.39 105.01 393.08 105.01 393.08 120.09 410.77 120.09 410.77 136.86 428.46 136.86 428.46 156.78 446.15 156.78 446.15 188.35 463.83 188.35 463.83 206.83 481.53 206.83 481.53 220.77 499.22 220.77 499.22 234.13 516.92 234.13 516.92 238.12 534.6 238.12 534.6 241.53 552.29 241.53 552.29 244.09 569.99 244.09 569.99 245.22 587.67 245.22 587.67 245.51 605.37 245.51 605.37 245.51 623.06 245.51 623.06 245.51 640.74 245.51 640.74 245.51 649.59 245.51"/><polyline class="l" points="30.42 245.22 39.27 245.22 39.27 245.51 56.95 245.51 56.95 245.51 74.65 245.51 74.65 244.94 92.33 244.94 92.33 243.8 110.03 243.8 110.03 242.95 127.72 242.95 127.72 239.26 145.4 239.26 145.4 234.99 163.1 234.99 163.1 229.59 180.79 229.59 180.79 216.5 198.49 216.5 198.49 201.71 216.17 201.71 216.17 179.81 233.86 179.81 233.86 159.62 251.56 159.62 251.56 140.28 269.24 140.28 269.24 122.37 286.94 122.37 286.94 101.32 304.63 101.32 304.63 79.7 322.31 79.7 322.31 76 340.01 76 340.01 63.2 357.7 63.2 357.7 66.9 375.39 66.9 375.39 96.2 393.08 96.2 393.08 97.9 410.77 97.9 410.77 114.4 428.46 114.4 428.46 144.55 446.15 144.55 446.15 168.43 463.83 168.43 463.83 188.35 481.53 188.35 481.53 209.4 499.22 209.4 499.22 222.76 516.92 222.76 516.92 232.42 534.6 232.42 534.6 239.54 552.29 239.54 552.29 241.82 569.99 241.82 569.99 245.22 587.67 245.22 587.67 244.66 605.37 244.66 605.37 245.22 623.06 245.22 623.06 245.51 640.74 245.51 640.74 245.22 649.59 245.22"/><line class="n" x1="56.95" y1="250.49" x2="56.95" y2="254.49"/><line class="n" x1="145.4" y1="250.49" x2="145.4" y2="254.49"/><line class="n" x1="233.86" y1="250.49" x2="233.86" y2="254.49"/><line class="n" x1="322.31" y1="250.49" x2="322.31" y2="254.49"/><line class="n" x1="410.77" y1="250.49" x2="410.77" y2="254.49"/><line class="n" x1="499.22" y1="250.49" x2="499.22" y2="254.49"/><line class="n" x1="587.67" y1="250.49" x2="587.67" y2="254.49"/><polygon class="h" points="569.99 244.94 552.29 244.94 552.29 244.66 534.6 244.66 534.6 242.67 516.92 242.67 516.92 234.99 499.22 234.99 499.22 230.44 481.53 230.44 481.53 219.35 463.83 219.35 463.83 203.7 446.15 203.7 446.15 188.07 428.46 188.07 428.46 166.17 411.07 166.17 411.07 244.51 233.86 244.51 233.86 154.5 216.17 154.5 216.17 182.09 198.49 182.09 198.49 205.98 180.79 205.98 180.79 222.19 163.1 222.19 163.1 232.42 145.4 232.42 145.4 239.26 127.72 239.26 127.72 240.96 110.03 240.96 110.03 244.37 92.33 244.37 92.33 245.22 74.65 245.22 56.95 245.22 56.95 245.51 587.67 245.51 587.67 244.94 569.99 244.94"/><polygon class="j" points="411.07 244.51 411.07 166.17 410.77 166.17 410.77 130.61 393.08 130.61 393.08 98.76 375.39 98.76 375.39 60.93 357.7 60.93 357.7 82.26 340.01 82.26 340.01 54.67 322.31 54.67 322.31 52.11 304.63 52.11 304.63 68.04 286.94 68.04 286.94 80.56 269.24 80.56 269.24 106.15 251.56 106.15 251.56 121.51 233.86 121.51 233.86 154.5 233.86 244.51 411.07 244.51"/><line class="o" x1="322.31" y1="246.89" x2="322.31" y2="38.42"/></svg>