<?xml version="1.0" encoding="UTF-8"?>
<svg xmlns="http://www.w3.org/2000/svg" viewBox="0 0 660 280">
  <defs>
    <style>
      .cls-1 {
        fill: #f2f2f2;
        stroke: #1a1a1a;
      }

      .cls-1, .cls-2, .cls-3 {
        stroke-miterlimit: 10;
      }

      .cls-1, .cls-4 {
        stroke-width: 1.25px;
      }

      .cls-5 {
        fill: #e9ebf4;
      }

      .cls-6 {
        fill: #fff;
      }

      .cls-7 {
        fill: #f0f;
      }

      .cls-8 {
        fill: #fceae9;
      }

      .cls-9 {
        fill: #cacde3;
      }

      .cls-10 {
        fill: #3e4d59;
      }

      .cls-11 {
        fill: #606060;
      }

      .cls-2 {
        stroke: #606060;
      }

      .cls-2, .cls-4, .cls-12, .cls-13, .cls-3 {
        fill: none;
      }

      .cls-2, .cls-3 {
        stroke-linecap: round;
      }

      .cls-4 {
        stroke: #231f20;
      }

      .cls-4, .cls-12, .cls-13 {
        stroke-linejoin: round;
      }

      .cls-12 {
        stroke: #bcbec0;
        stroke-width: .75px;
      }

      .cls-12, .cls-13 {
        mix-blend-mode: multiply;
      }

      .cls-14 {
        opacity: .4;
      }

      .cls-15 {
        opacity: .5;
      }

      .cls-16 {
        isolation: isolate;
      }

      .cls-13 {
        stroke: #939598;
      }

      .cls-3 {
        stroke: #4c5c68;
        stroke-dasharray: 0 0 4 6;
        stroke-width: 1.5px;
      }

      .cls-17 {
        fill: #ee9f92;
      }

      .cls-17, .cls-18, .cls-19, .cls-20 {
        opacity: .9;
      }

      .cls-18 {
        fill: #959cc7;
      }

      .cls-19 {
        fill: #1a1a1a;
      }

      .cls-20 {
        fill: #f7cfc9;
      }
    </style>
  </defs>
  <g class="cls-16">
    <g id="Layer_7" data-name="Layer 7">
      <path class="cls-12" d="m30.42,244.51h26.75v-.13h35.67v.13h17.84v-.39h17.84v-1.43h17.84v-.65h35.67v-1.69h17.84v-4.04h17.84v-5.99h17.84v-10.16h17.84v-14.19h17.84v-31.13h17.84v-31.91h17.84v-33.73h17.84v-24.88h17.84v-28h17.84v5.6h17.84v-9.25h17.84v-1.82h17.84v14.07h17.84v43.24h17.84v33.08h17.84v32.95h17.84v26.31h17.84v17.97h17.84v11.85h17.84v9.64h17.84v1.82h17.83v1.69h17.84v.52h17.84v.39h17.84v.13h26.75"/>
      <path class="cls-13" d="m30.42,244.39h26.75v-.13h17.84v-.65h17.84v.39h17.84v-1.43h17.84v.65h17.84v-.52h17.84v-1.17h17.84v-2.48h17.84v-1.95h17.84v-2.34h17.84v-12.63h17.84v-14.98h17.84v-17.84h17.84v-27.09h17.84v-33.47h17.84v-24.61h17.84v-30.87h17.84v-4.82h17.84v-17.32h17.84v1.95h17.84v21.36h17.84v17.06h17.84v29.95h17.84v31.91h17.84v32.17h17.84v18.88h17.84v17.06h17.84v9.9h17.84v5.99h17.83v4.17h17.84v1.82h17.84v1.17h17.84v-.13h17.84v-.13h8.92"/>
      <path class="cls-4" d="m30.42,244.51h62.43v-.26h17.84v-.13h17.84v-.13h17.84v-.52h17.84v-.91h35.67v-2.09h17.84v-3h17.84v-4.56h17.84v-8.86h17.84v-11.2h17.84v-25.79h17.84v-27.22h17.84v-29.56h17.84v-23.31h17.84v-24.74h17.84v-20.32h17.84v-2.6h17.84v-10.42h17.84v12.76h17.84v23.83h17.84v32.17h17.84v34.9h17.84v31.13h17.84v21.36h17.84v18.75h17.84v8.47h17.83v6.12h17.84v4.69h17.84v.78h17.84v.52h26.75"/>
      <rect class="cls-6" width="660" height="284.29"/>
      <rect class="cls-1" x="30.42" y="35.21" width="169.38" height="209.3"/>
      <rect class="cls-1" x="556.6" y="35.21" width="98.1" height="209.3"/>
      <g>
        <path class="cls-7" d="m577.83,56.62l3.2-5.88h4.04l-4.97,8.46,5.1,8.6h-4.09l-3.28-5.98-3.28,5.98h-4.09l5.1-8.6-4.97-8.46h4.04l3.2,5.88Z"/>
        <path class="cls-7" d="m592.86,58.42l3.55-7.69h3.84l-5.6,10.88v6.19h-3.57v-6.19l-5.6-10.88h3.86l3.53,7.69Z"/>
        <path class="cls-10" d="m607.38,61.35c0-1.95.46-3.51,1.38-4.69s2.13-1.78,3.62-1.78,2.66.51,3.53,1.52v-6.61h2.17v18h-1.99l-.11-1.36c-.87,1.06-2.07,1.59-3.62,1.59s-2.67-.6-3.59-1.8-1.39-2.77-1.39-4.71v-.16Zm2.17.25c0,1.44.3,2.56.89,3.38s1.41,1.22,2.46,1.22c1.38,0,2.38-.62,3.01-1.85v-5.82c-.65-1.2-1.64-1.79-2.99-1.79-1.06,0-1.89.41-2.48,1.23s-.89,2.04-.89,3.64Z"/>
        <path class="cls-10" d="m623.49,55.12l.07,1.59c.97-1.22,2.23-1.83,3.8-1.83,2.68,0,4.03,1.51,4.05,4.54v8.38h-2.17v-8.39c0-.91-.22-1.59-.63-2.03s-1.05-.66-1.92-.66c-.7,0-1.32.19-1.85.56s-.95.87-1.24,1.48v9.04h-2.17v-12.68h2.05Z"/>
        <path class="cls-10" d="m637.06,49.81h2.62l-3.14,3.45h-1.75s2.26-3.45,2.26-3.45Zm-.02,17.99h-2.18v-12.68h2.18v12.68Z"/>
        <path class="cls-10" d="m577.97,81.06c-.33-.05-.68-.08-1.07-.08-1.42,0-2.39.61-2.89,1.82v9h-2.17v-12.68h2.11l.04,1.46c.71-1.13,1.72-1.7,3.02-1.7.42,0,.74.05.96.16v2.02Z"/>
        <path class="cls-10" d="m579.16,85.34c0-1.24.24-2.36.73-3.35s1.17-1.76,2.04-2.3,1.87-.81,2.98-.81c1.73,0,3.12.6,4.19,1.79s1.6,2.79,1.6,4.77v.15c0,1.23-.24,2.34-.71,3.32s-1.15,1.74-2.03,2.29-1.89.82-3.03.82c-1.72,0-3.11-.6-4.18-1.79s-1.6-2.78-1.6-4.75v-.15Zm2.18.26c0,1.41.33,2.54.98,3.39s1.53,1.28,2.62,1.28,1.98-.43,2.62-1.29.97-2.07.97-3.63c0-1.39-.33-2.52-.99-3.38s-1.54-1.29-2.63-1.29-1.93.43-2.59,1.28-.98,2.07-.98,3.66Z"/>
        <path class="cls-10" d="m598.5,90.26c.77,0,1.45-.23,2.03-.7s.9-1.05.96-1.76h2.05c-.04.73-.29,1.42-.75,2.07s-1.08,1.18-1.85,1.57-1.58.59-2.44.59c-1.73,0-3.1-.58-4.12-1.73s-1.53-2.73-1.53-4.73v-.36c0-1.23.23-2.33.68-3.29s1.1-1.71,1.95-2.24,1.85-.8,3.01-.8c1.42,0,2.6.43,3.54,1.28s1.44,1.96,1.51,3.32h-2.05c-.06-.82-.37-1.49-.93-2.02s-1.25-.79-2.07-.79c-1.1,0-1.96.4-2.56,1.19s-.91,1.94-.91,3.44v.41c0,1.46.3,2.59.9,3.38s1.46,1.18,2.58,1.18Zm-.5-14.47l1.76-1.99h1.88v.12l-2.98,3.21h-1.32l-2.94-3.21v-.12h1.84l1.77,1.99Z"/>
        <path class="cls-10" d="m608.03,79.12l.07,1.59c.97-1.22,2.23-1.83,3.8-1.83,2.68,0,4.03,1.51,4.05,4.54v8.38h-2.17v-8.39c0-.91-.22-1.59-.63-2.03s-1.05-.66-1.92-.66c-.7,0-1.32.19-1.85.56s-.95.87-1.24,1.48v9.04h-2.17v-12.68h2.05Z"/>
        <path class="cls-10" d="m624.48,92.03c-1.72,0-3.12-.56-4.2-1.69s-1.62-2.64-1.62-4.53v-.4c0-1.26.24-2.38.72-3.37s1.15-1.76,2.02-2.32,1.8-.84,2.81-.84c1.65,0,2.93.54,3.84,1.63s1.37,2.64,1.37,4.66v.9h-8.59c.03,1.25.4,2.26,1.1,3.03s1.59,1.15,2.67,1.15c.77,0,1.41-.16,1.95-.47s1-.73,1.39-1.24l1.32,1.03c-1.06,1.63-2.66,2.45-4.78,2.45Zm-.29-16.24l1.76-1.99h1.88v.12l-2.98,3.21h-1.32l-2.94-3.21v-.12h1.84l1.77,1.99Zm.02,4.88c-.88,0-1.61.32-2.2.96s-.96,1.53-1.1,2.68h6.35v-.16c-.06-1.1-.36-1.96-.89-2.56s-1.25-.91-2.16-.91Z"/>
      </g>
      <g>
        <path class="cls-10" d="m48.29,50.73h3.52v11.81c0,1.09-.24,2.04-.72,2.88s-1.16,1.47-2.03,1.93-1.86.68-2.96.68c-1.8,0-3.21-.46-4.22-1.38s-1.51-2.22-1.51-3.9h3.54c0,.84.18,1.45.53,1.85s.91.6,1.66.6c.67,0,1.21-.23,1.61-.69s.6-1.12.6-1.97v-11.81Z"/>
        <path class="cls-10" d="m60.43,68.03c-1.86,0-3.37-.57-4.54-1.71s-1.75-2.66-1.75-4.56v-.33c0-1.27.25-2.41.74-3.42s1.19-1.78,2.09-2.32,1.93-.81,3.09-.81c1.73,0,3.1.55,4.1,1.64s1.49,2.64,1.49,4.65v1.38h-8.07c.11.83.44,1.49.99,1.99s1.25.75,2.09.75c1.3,0,2.32-.47,3.06-1.42l1.66,1.86c-.51.72-1.2,1.28-2.06,1.68s-1.83.6-2.88.6Zm-.39-10.42c-.67,0-1.22.23-1.63.68-.42.46-.69,1.11-.8,1.95h4.71v-.27c-.02-.75-.22-1.34-.61-1.75s-.95-.62-1.66-.62Z"/>
        <path class="cls-10" d="m70.68,55.12l.11,1.46c.91-1.13,2.12-1.7,3.64-1.7,1.34,0,2.34.39,3,1.18s.99,1.97,1.01,3.54v8.19h-3.39v-8.11c0-.72-.16-1.24-.47-1.56s-.83-.49-1.56-.49c-.95,0-1.67.41-2.14,1.22v8.94h-3.39v-12.68h3.19Z"/>
        <path class="cls-10" d="m93.31,56.62l3.2-5.88h4.04l-4.97,8.46,5.1,8.6h-4.09l-3.28-5.98-3.28,5.98h-4.09l5.1-8.6-4.97-8.46h4.04l3.2,5.88Z"/>
        <path class="cls-10" d="m108.33,58.42l3.55-7.69h3.84l-5.6,10.88v6.19h-3.57v-6.19l-5.6-10.88h3.86l3.53,7.69Z"/>
        <path class="cls-10" d="m122.51,61.36c0-1.98.44-3.55,1.33-4.72s2.1-1.76,3.64-1.76c1.23,0,2.25.46,3.06,1.38v-6.47h3.4v18h-3.06l-.16-1.35c-.84,1.05-1.93,1.58-3.26,1.58-1.49,0-2.69-.59-3.59-1.76s-1.35-2.81-1.35-4.9Zm3.39.25c0,1.19.21,2.1.62,2.74s1.02.95,1.8.95c1.05,0,1.79-.44,2.21-1.33v-5.01c-.42-.88-1.15-1.33-2.19-1.33-1.63,0-2.45,1.33-2.45,3.98Z"/>
        <path class="cls-10" d="m139.68,55.12l.11,1.46c.91-1.13,2.12-1.7,3.64-1.7,1.34,0,2.34.39,3,1.18s.99,1.97,1.01,3.54v8.19h-3.39v-8.11c0-.72-.16-1.24-.47-1.56s-.83-.49-1.56-.49c-.95,0-1.67.41-2.14,1.22v8.94h-3.39v-12.68h3.19Z"/>
        <path class="cls-10" d="m153.66,67.8h-3.39v-12.68h3.39v12.68Zm-1-17.82h3.69l-3.25,3.63h-2.75l2.31-3.63Z"/>
        <path class="cls-10" d="m47.65,81.06c-.33-.05-.68-.08-1.07-.08-1.42,0-2.39.61-2.89,1.82v9h-2.17v-12.68h2.11l.04,1.46c.71-1.13,1.72-1.7,3.02-1.7.42,0,.74.05.96.16v2.02Z"/>
        <path class="cls-10" d="m48.84,85.34c0-1.24.24-2.36.73-3.35s1.17-1.76,2.04-2.3,1.87-.81,2.98-.81c1.73,0,3.12.6,4.19,1.79s1.6,2.79,1.6,4.77v.15c0,1.23-.24,2.34-.71,3.32s-1.15,1.74-2.03,2.29-1.89.82-3.03.82c-1.72,0-3.11-.6-4.18-1.79s-1.6-2.78-1.6-4.75v-.15Zm2.18.26c0,1.41.33,2.54.98,3.39s1.53,1.28,2.62,1.28,1.98-.43,2.62-1.29.97-2.07.97-3.63c0-1.39-.33-2.52-.99-3.38s-1.54-1.29-2.63-1.29-1.93.43-2.59,1.28-.98,2.07-.98,3.66Z"/>
        <path class="cls-10" d="m68.18,90.26c.77,0,1.45-.23,2.03-.7s.9-1.05.96-1.76h2.05c-.04.73-.29,1.42-.75,2.07s-1.08,1.18-1.85,1.57-1.58.59-2.44.59c-1.73,0-3.1-.58-4.12-1.73s-1.53-2.73-1.53-4.73v-.36c0-1.23.23-2.33.68-3.29s1.1-1.71,1.95-2.24,1.85-.8,3.01-.8c1.42,0,2.6.43,3.54,1.28s1.44,1.96,1.51,3.32h-2.05c-.06-.82-.37-1.49-.93-2.02s-1.25-.79-2.07-.79c-1.1,0-1.96.4-2.56,1.19s-.91,1.94-.91,3.44v.41c0,1.46.3,2.59.9,3.38s1.46,1.18,2.58,1.18Zm-.5-14.47l1.76-1.99h1.88v.12l-2.98,3.21h-1.32l-2.94-3.21v-.12h1.84l1.77,1.99Z"/>
        <path class="cls-10" d="m77.71,79.12l.07,1.59c.97-1.22,2.23-1.83,3.8-1.83,2.68,0,4.03,1.51,4.05,4.54v8.38h-2.17v-8.39c0-.91-.22-1.59-.63-2.03s-1.05-.66-1.92-.66c-.7,0-1.32.19-1.85.56s-.95.87-1.24,1.48v9.04h-2.17v-12.68h2.05Z"/>
        <path class="cls-10" d="m94.17,92.03c-1.72,0-3.12-.56-4.2-1.69s-1.62-2.64-1.62-4.53v-.4c0-1.26.24-2.38.72-3.37s1.15-1.76,2.02-2.32,1.8-.84,2.81-.84c1.65,0,2.93.54,3.84,1.63s1.37,2.64,1.37,4.66v.9h-8.59c.03,1.25.4,2.26,1.1,3.03s1.59,1.15,2.67,1.15c.77,0,1.41-.16,1.95-.47s1-.73,1.39-1.24l1.32,1.03c-1.06,1.63-2.66,2.45-4.78,2.45Zm-.29-16.24l1.76-1.99h1.88v.12l-2.98,3.21h-1.32l-2.94-3.21v-.12h1.84l1.77,1.99Zm.02,4.88c-.88,0-1.61.32-2.2.96s-.96,1.53-1.1,2.68h6.35v-.16c-.06-1.1-.36-1.96-.89-2.56s-1.25-.91-2.16-.91Z"/>
        <path class="cls-10" d="m109.8,79.12v14.14c0,2.44-1.11,3.66-3.32,3.66-.48,0-.92-.07-1.32-.21v-1.72c.25.06.58.09.98.09.48,0,.85-.13,1.11-.39s.38-.72.38-1.37v-14.2h2.17Zm-2.39-3.36c0-.34.11-.64.32-.88s.53-.37.94-.37.74.12.96.36.33.54.33.89-.11.64-.33.88-.54.35-.96.35-.74-.12-.95-.35-.32-.53-.32-.88Z"/>
        <path class="cls-10" d="m118.55,92.03c-1.72,0-3.12-.56-4.2-1.69s-1.62-2.64-1.62-4.53v-.4c0-1.26.24-2.38.72-3.37s1.15-1.76,2.02-2.32,1.8-.84,2.81-.84c1.65,0,2.93.54,3.84,1.63s1.37,2.64,1.37,4.66v.9h-8.59c.03,1.25.4,2.26,1.1,3.03s1.59,1.15,2.67,1.15c.77,0,1.41-.16,1.95-.47s1-.73,1.39-1.24l1.32,1.03c-1.06,1.63-2.66,2.45-4.78,2.45Zm-.27-11.37c-.88,0-1.61.32-2.2.96s-.96,1.53-1.1,2.68h6.35v-.16c-.06-1.1-.36-1.96-.89-2.56s-1.25-.91-2.16-.91Z"/>
        <path class="cls-10" d="m46.61,114.26c.77,0,1.45-.23,2.03-.7s.9-1.05.96-1.76h2.05c-.04.73-.29,1.42-.75,2.07s-1.08,1.18-1.85,1.57-1.58.59-2.44.59c-1.73,0-3.1-.58-4.12-1.73s-1.53-2.73-1.53-4.73v-.36c0-1.23.23-2.33.68-3.29s1.1-1.71,1.95-2.24,1.85-.8,3.01-.8c1.42,0,2.6.43,3.54,1.28s1.44,1.96,1.51,3.32h-2.05c-.06-.82-.37-1.49-.93-2.02s-1.25-.79-2.07-.79c-1.1,0-1.96.4-2.56,1.19s-.91,1.94-.91,3.44v.41c0,1.46.3,2.59.9,3.38s1.46,1.18,2.58,1.18Z"/>
        <path class="cls-10" d="m56.26,104.65c.96-1.18,2.21-1.77,3.75-1.77,2.68,0,4.03,1.51,4.05,4.54v8.38h-2.17v-8.39c0-.91-.22-1.59-.63-2.03s-1.05-.66-1.92-.66c-.7,0-1.32.19-1.85.56s-.95.87-1.24,1.48v9.04h-2.17v-18h2.17v6.86Z"/>
        <path class="cls-10" d="m69.66,115.8h-2.17v-18h2.17v18Z"/>
        <path class="cls-10" d="m80.96,115.8c-.12-.25-.23-.7-.3-1.34-1.01,1.05-2.21,1.57-3.61,1.57-1.25,0-2.28-.35-3.08-1.06s-1.2-1.6-1.2-2.69c0-1.32.5-2.35,1.51-3.08s2.42-1.1,4.24-1.1h2.11v-1c0-.76-.23-1.36-.68-1.81s-1.12-.67-2-.67c-.77,0-1.42.2-1.95.59s-.79.86-.79,1.42h-2.18c0-.63.22-1.24.67-1.83s1.06-1.06,1.83-1.4,1.62-.52,2.54-.52c1.46,0,2.61.37,3.43,1.1s1.26,1.74,1.29,3.02v5.84c0,1.16.15,2.09.45,2.78v.19h-2.27Zm-3.6-1.65c.68,0,1.32-.18,1.93-.53s1.05-.81,1.32-1.37v-2.6h-1.7c-2.66,0-3.98.78-3.98,2.33,0,.68.23,1.21.68,1.59s1.04.57,1.75.57Z"/>
        <path class="cls-10" d="m85.66,109.35c0-1.95.46-3.51,1.38-4.69s2.13-1.78,3.62-1.78,2.66.51,3.53,1.52v-6.61h2.17v18h-1.99l-.11-1.36c-.87,1.06-2.07,1.59-3.62,1.59s-2.67-.6-3.59-1.8-1.39-2.77-1.39-4.71v-.16Zm2.17.25c0,1.44.3,2.56.89,3.38s1.41,1.22,2.46,1.22c1.38,0,2.38-.62,3.01-1.85v-5.82c-.65-1.2-1.64-1.79-2.99-1.79-1.06,0-1.89.41-2.48,1.23s-.89,2.04-.89,3.64Z"/>
        <path class="cls-10" d="m101.77,103.12l.07,1.59c.97-1.22,2.23-1.83,3.8-1.83,2.68,0,4.03,1.51,4.05,4.54v8.38h-2.17v-8.39c0-.91-.22-1.59-.63-2.03s-1.05-.66-1.92-.66c-.7,0-1.32.19-1.85.56s-.95.87-1.24,1.48v9.04h-2.17v-12.68h2.05Z"/>
        <path class="cls-10" d="m118.22,116.03c-1.72,0-3.12-.56-4.2-1.69s-1.62-2.64-1.62-4.53v-.4c0-1.26.24-2.38.72-3.37s1.15-1.76,2.02-2.32,1.8-.84,2.81-.84c1.65,0,2.93.54,3.84,1.63s1.37,2.64,1.37,4.66v.9h-8.59c.03,1.25.4,2.26,1.1,3.03s1.59,1.15,2.67,1.15c.77,0,1.41-.16,1.95-.47s1-.73,1.39-1.24l1.32,1.03c-1.06,1.63-2.66,2.45-4.78,2.45Zm-.29-16.24l1.76-1.99h1.88v.12l-2.98,3.21h-1.32l-2.94-3.21v-.12h1.84l1.77,1.99Zm.02,4.88c-.88,0-1.61.32-2.2.96s-.96,1.53-1.1,2.68h6.35v-.16c-.06-1.1-.36-1.96-.89-2.56s-1.25-.91-2.16-.91Z"/>
        <path class="cls-10" d="m127.92,103.12v14.14c0,2.44-1.11,3.66-3.32,3.66-.48,0-.92-.07-1.32-.21v-1.72c.25.06.58.09.98.09.48,0,.85-.13,1.11-.39s.38-.72.38-1.37v-14.2h2.17Zm-2.39-3.36c0-.34.11-.64.32-.88s.53-.37.94-.37.74.12.96.36.33.54.33.89-.11.64-.33.88-.54.35-.96.35-.74-.12-.95-.35-.32-.53-.32-.88Z"/>
        <path class="cls-10" d="m138.79,112.43c0-.59-.22-1.04-.66-1.37s-1.21-.6-2.31-.84-1.97-.52-2.61-.84-1.12-.72-1.43-1.17-.46-.99-.46-1.62c0-1.04.44-1.92,1.32-2.64s2-1.08,3.37-1.08c1.44,0,2.6.37,3.5,1.11s1.34,1.69,1.34,2.85h-2.18c0-.59-.25-1.11-.76-1.54s-1.14-.64-1.9-.64-1.41.17-1.85.52-.67.79-.67,1.35c0,.52.21.92.62,1.18s1.16.52,2.24.76,1.96.53,2.63.87,1.17.74,1.49,1.21.49,1.05.49,1.73c0,1.13-.45,2.04-1.36,2.72s-2.08,1.03-3.53,1.03c-1.02,0-1.91-.18-2.7-.54s-1.39-.86-1.83-1.51-.66-1.34-.66-2.09h2.17c.04.73.33,1.3.87,1.73s1.26.64,2.15.64c.82,0,1.48-.17,1.97-.5s.74-.78.74-1.33Zm-2.45-12.64l1.76-1.99h1.88v.12l-2.98,3.21h-1.32l-2.94-3.21v-.12h1.84l1.77,1.99Z"/>
        <path class="cls-10" d="m146.16,97.81h2.62l-3.14,3.45h-1.75s2.26-3.45,2.26-3.45Zm-.02,17.99h-2.18v-12.68h2.18v12.68Z"/>
        <path class="cls-10" d="m155.08,109.34c0-1.24.24-2.36.73-3.35s1.17-1.76,2.04-2.3,1.87-.81,2.98-.81c1.73,0,3.12.6,4.19,1.79s1.6,2.79,1.6,4.77v.15c0,1.23-.24,2.34-.71,3.32s-1.15,1.74-2.03,2.29-1.89.82-3.03.82c-1.72,0-3.11-.6-4.18-1.79s-1.6-2.78-1.6-4.75v-.15Zm2.18.26c0,1.41.33,2.54.98,3.39s1.53,1.28,2.62,1.28,1.98-.43,2.62-1.29.97-2.07.97-3.63c0-1.39-.33-2.52-.99-3.38s-1.54-1.29-2.63-1.29-1.93.43-2.59,1.28-.98,2.07-.98,3.66Z"/>
        <path class="cls-10" d="m45.71,136.86l3.14-9.74h2.21l-4.55,12.68h-1.65l-4.59-12.68h2.21l3.22,9.74Z"/>
        <path class="cls-10" d="m55.53,121.81h2.62l-3.14,3.45h-1.75s2.26-3.45,2.26-3.45Zm-.02,17.99h-2.18v-12.68h2.18v12.68Z"/>
        <path class="cls-10" d="m64.17,138.26c.77,0,1.45-.23,2.03-.7s.9-1.05.96-1.76h2.05c-.04.73-.29,1.42-.75,2.07s-1.08,1.18-1.85,1.57-1.58.59-2.44.59c-1.73,0-3.1-.58-4.12-1.73s-1.53-2.73-1.53-4.73v-.36c0-1.23.23-2.33.68-3.29s1.1-1.71,1.95-2.24,1.85-.8,3.01-.8c1.42,0,2.6.43,3.54,1.28s1.44,1.96,1.51,3.32h-2.05c-.06-.82-.37-1.49-.93-2.02s-1.25-.79-2.07-.79c-1.1,0-1.96.4-2.56,1.19s-.91,1.94-.91,3.44v.41c0,1.46.3,2.59.9,3.38s1.46,1.18,2.58,1.18Z"/>
        <path class="cls-10" d="m76.9,140.03c-1.72,0-3.12-.56-4.2-1.69s-1.62-2.64-1.62-4.53v-.4c0-1.26.24-2.38.72-3.37s1.15-1.76,2.02-2.32,1.8-.84,2.81-.84c1.65,0,2.93.54,3.84,1.63s1.37,2.64,1.37,4.66v.9h-8.59c.03,1.25.4,2.26,1.1,3.03s1.59,1.15,2.67,1.15c.77,0,1.41-.16,1.95-.47s1-.73,1.39-1.24l1.32,1.03c-1.06,1.63-2.66,2.45-4.78,2.45Zm-.27-11.37c-.88,0-1.61.32-2.2.96s-.96,1.53-1.1,2.68h6.35v-.16c-.06-1.1-.36-1.96-.89-2.56s-1.25-.91-2.16-.91Z"/>
        <path class="cls-10" d="m92.35,127.12l.07,1.59c.97-1.22,2.23-1.83,3.8-1.83,2.68,0,4.03,1.51,4.05,4.54v8.38h-2.17v-8.39c0-.91-.22-1.59-.63-2.03s-1.05-.66-1.92-.66c-.7,0-1.32.19-1.85.56s-.95.87-1.24,1.48v9.04h-2.17v-12.68h2.05Z"/>
        <path class="cls-10" d="m108.8,140.03c-1.72,0-3.12-.56-4.2-1.69s-1.62-2.64-1.62-4.53v-.4c0-1.26.24-2.38.72-3.37s1.15-1.76,2.02-2.32,1.8-.84,2.81-.84c1.65,0,2.93.54,3.84,1.63s1.37,2.64,1.37,4.66v.9h-8.59c.03,1.25.4,2.26,1.1,3.03s1.59,1.15,2.67,1.15c.77,0,1.41-.16,1.95-.47s1-.73,1.39-1.24l1.32,1.03c-1.06,1.63-2.66,2.45-4.78,2.45Zm-.27-11.37c-.88,0-1.61.32-2.2.96s-.96,1.53-1.1,2.68h6.35v-.16c-.06-1.1-.36-1.96-.89-2.56s-1.25-.91-2.16-.91Z"/>
        <path class="cls-10" d="m118.29,138.03h7.42v1.77h-10.07v-1.59l7-9.29h-6.89v-1.79h9.61v1.54l-7.07,9.38Zm2.33-14.24l1.76-1.99h1.88v.12l-2.98,3.21h-1.32l-2.94-3.21v-.12h1.84l1.77,1.99Z"/>
        <path class="cls-10" d="m140.99,139.8h-2.18v-14.45l-4.37,1.61v-1.97l6.21-2.33h.34v17.14Z"/>
        <path class="cls-10" d="m158.04,132.52c0,2.54-.43,4.43-1.3,5.66s-2.22,1.85-4.07,1.85-3.17-.6-4.04-1.81-1.33-3.01-1.36-5.41v-2.89c0-2.51.43-4.37,1.3-5.59s2.23-1.83,4.08-1.83,3.19.59,4.05,1.76,1.31,2.99,1.34,5.44v2.81Zm-2.17-2.96c0-1.84-.26-3.17-.77-4.01s-1.33-1.26-2.45-1.26-1.92.42-2.43,1.25-.77,2.12-.79,3.86v3.47c0,1.84.27,3.21.8,4.08s1.35,1.32,2.43,1.32,1.87-.41,2.38-1.24.79-2.13.81-3.91v-3.55Z"/>
        <path class="cls-10" d="m166.87,125.55c0-.81.29-1.52.87-2.13s1.29-.91,2.12-.91,1.51.3,2.08.91.86,1.32.86,2.14-.29,1.54-.86,2.12-1.27.88-2.08.88-1.52-.29-2.11-.88-.88-1.29-.88-2.12Zm2.99,1.5c.42,0,.78-.14,1.07-.41s.43-.64.43-1.08-.14-.82-.43-1.11c-.29-.29-.64-.44-1.07-.44s-.79.15-1.08.46c-.29.31-.44.67-.44,1.09s.15.77.44,1.06.65.43,1.08.43Z"/>
        <path class="cls-10" d="m188.84,134.38c-.21,1.8-.88,3.2-2,4.18s-2.61,1.47-4.47,1.47c-2.02,0-3.63-.72-4.85-2.17s-1.82-3.38-1.82-5.8v-1.64c0-1.59.28-2.98.85-4.18s1.37-2.13,2.41-2.77,2.24-.97,3.61-.97c1.81,0,3.27.51,4.36,1.52s1.73,2.41,1.91,4.2h-2.26c-.2-1.36-.62-2.35-1.27-2.96s-1.56-.92-2.74-.92c-1.44,0-2.56.53-3.38,1.6s-1.22,2.58-1.22,4.54v1.65c0,1.85.39,3.33,1.16,4.42s1.86,1.64,3.25,1.64c1.25,0,2.21-.28,2.88-.85s1.11-1.55,1.33-2.96h2.26Z"/>
        <path class="cls-10" d="m43.58,151.12l.07,1.59c.97-1.22,2.23-1.83,3.8-1.83,2.68,0,4.03,1.51,4.05,4.54v8.38h-2.17v-8.39c0-.91-.22-1.59-.63-2.03s-1.05-.66-1.92-.66c-.7,0-1.32.19-1.85.56s-.95.87-1.24,1.48v9.04h-2.17v-12.68h2.05Z"/>
        <path class="cls-10" d="m60.03,164.03c-1.72,0-3.12-.56-4.2-1.69s-1.62-2.64-1.62-4.53v-.4c0-1.26.24-2.38.72-3.37s1.15-1.76,2.02-2.32,1.8-.84,2.81-.84c1.65,0,2.93.54,3.84,1.63s1.37,2.64,1.37,4.66v.9h-8.59c.03,1.25.4,2.26,1.1,3.03s1.59,1.15,2.67,1.15c.77,0,1.41-.16,1.95-.47s1-.73,1.39-1.24l1.32,1.03c-1.06,1.63-2.66,2.45-4.78,2.45Zm-.27-11.37c-.88,0-1.61.32-2.2.96s-.96,1.53-1.1,2.68h6.35v-.16c-.06-1.1-.36-1.96-.89-2.56s-1.25-.91-2.16-.91Z"/>
        <path class="cls-10" d="m69.52,162.03h7.42v1.77h-10.07v-1.59l7-9.29h-6.89v-1.79h9.61v1.54l-7.07,9.38Zm2.33-14.24l1.76-1.99h1.88v.12l-2.98,3.21h-1.32l-2.94-3.21v-.12h1.84l1.77,1.99Z"/>
        <path class="cls-10" d="m87.37,151.12l.07,1.59c.97-1.22,2.23-1.83,3.8-1.83,2.68,0,4.03,1.51,4.05,4.54v8.38h-2.17v-8.39c0-.91-.22-1.59-.63-2.03s-1.05-.66-1.92-.66c-.7,0-1.32.19-1.85.56s-.95.87-1.24,1.48v9.04h-2.17v-12.68h2.05Z"/>
        <path class="cls-10" d="m97.99,157.34c0-1.24.24-2.36.73-3.35s1.17-1.76,2.04-2.3,1.87-.81,2.98-.81c1.73,0,3.12.6,4.19,1.79s1.6,2.79,1.6,4.77v.15c0,1.23-.24,2.34-.71,3.32s-1.15,1.74-2.03,2.29-1.89.82-3.03.82c-1.72,0-3.11-.6-4.18-1.79s-1.6-2.78-1.6-4.75v-.15Zm2.18.26c0,1.41.33,2.54.98,3.39s1.53,1.28,2.62,1.28,1.98-.43,2.62-1.29.97-2.07.97-3.63c0-1.39-.33-2.52-.99-3.38s-1.54-1.29-2.63-1.29-1.93.43-2.59,1.28-.98,2.07-.98,3.66Z"/>
        <path class="cls-10" d="m118.38,153.06c-.33-.05-.68-.08-1.07-.08-1.42,0-2.39.61-2.89,1.82v9h-2.17v-12.68h2.11l.04,1.46c.71-1.13,1.72-1.7,3.02-1.7.42,0,.74.05.96.16v2.02Z"/>
        <path class="cls-10" d="m122.41,151.12l.06,1.41c.93-1.09,2.18-1.64,3.76-1.64,1.77,0,2.98.68,3.62,2.04.42-.61.97-1.1,1.65-1.48s1.47-.56,2.4-.56c2.78,0,4.2,1.47,4.24,4.42v8.5h-2.17v-8.37c0-.91-.21-1.58-.62-2.03s-1.11-.67-2.09-.67c-.8,0-1.47.24-2,.72s-.84,1.13-.93,1.94v8.41h-2.18v-8.31c0-1.84-.9-2.77-2.71-2.77-1.42,0-2.39.61-2.92,1.82v9.26h-2.17v-12.68h2.05Z"/>
        <path class="cls-10" d="m149.23,163.8c-.12-.25-.23-.7-.3-1.34-1.01,1.05-2.21,1.57-3.61,1.57-1.25,0-2.28-.35-3.08-1.06s-1.2-1.6-1.2-2.69c0-1.32.5-2.35,1.51-3.08s2.42-1.1,4.24-1.1h2.11v-1c0-.76-.23-1.36-.68-1.81s-1.12-.67-2-.67c-.77,0-1.42.2-1.95.59s-.79.86-.79,1.42h-2.18c0-.63.22-1.24.67-1.83s1.06-1.06,1.83-1.4,1.62-.52,2.54-.52c1.46,0,2.61.37,3.43,1.1s1.26,1.74,1.29,3.02v5.84c0,1.16.15,2.09.45,2.78v.19h-2.27Zm-3.6-1.65c.68,0,1.32-.18,1.93-.53s1.05-.81,1.32-1.37v-2.6h-1.7c-2.66,0-3.98.78-3.98,2.33,0,.68.23,1.21.68,1.59s1.04.57,1.75.57Zm2-16.35h2.62l-3.14,3.45h-1.75s2.26-3.45,2.26-3.45Z"/>
        <path class="cls-10" d="m156.81,163.8h-2.17v-18h2.17v18Z"/>
      </g>
      <g class="cls-15">
        <polygon class="cls-18" points="235.54 237.48 217.7 237.48 217.7 240.48 199.95 240.48 199.95 244.51 235.63 244.51 235.63 232.92 235.54 232.92 235.54 237.48"/>
      </g>
      <g class="cls-14">
        <polygon class="cls-8" points="449.58 85.5 449.58 61.67 431.74 61.67 431.74 48.9 413.9 48.9 413.9 59.32 396.07 59.32 396.07 61.92 378.28 61.92 378.28 244.51 467.41 244.51 467.41 117.67 467.41 85.5 449.58 85.5"/>
      </g>
      <g class="cls-14">
        <polygon class="cls-20" points="503.09 183.7 503.09 152.57 485.25 152.57 485.25 117.67 467.41 117.67 467.41 244.51 520.92 244.51 520.92 205.05 520.92 183.7 503.09 183.7"/>
      </g>
      <g class="cls-14">
        <polygon class="cls-17" points="538.76 223.81 538.76 205.05 520.92 205.05 520.92 244.51 556.6 244.51 556.6 232.27 556.6 223.81 538.76 223.81"/>
      </g>
      <polygon class="cls-19" points="627.94 243.86 610.1 243.86 610.1 243.08 592.26 243.08 592.26 238.39 574.43 238.39 574.43 232.27 556.6 232.27 556.6 244.51 654.69 244.51 654.69 244.39 627.94 244.39 627.94 243.86"/>
      <g class="cls-14">
        <polygon class="cls-5" points="378.23 82.24 360.39 82.24 360.39 106.99 342.56 106.99 342.56 130.3 324.72 130.3 324.72 159.86 306.88 159.86 306.88 187.08 289.14 187.08 289.14 244.51 378.28 244.51 378.28 61.92 378.23 61.92 378.23 82.24"/>
      </g>
      <g class="cls-14">
        <polygon class="cls-9" points="289.05 212.87 271.21 212.87 271.21 224.07 253.37 224.07 253.37 232.92 235.63 232.92 235.63 244.51 289.14 244.51 289.14 187.08 289.05 187.08 289.05 212.87"/>
      </g>
      <polygon class="cls-19" points="199.86 242.56 164.19 242.56 164.19 243.47 146.35 243.47 146.35 243.99 128.52 243.99 128.52 244.12 110.68 244.12 110.68 244.25 92.84 244.25 92.84 244.51 199.95 244.51 199.95 240.48 199.86 240.48 199.86 242.56"/>
      <g>
        <line class="cls-2" x1="111.05" y1="250.49" x2="111.05" y2="254.49"/>
        <line class="cls-2" x1="200.18" y1="250.49" x2="200.18" y2="254.49"/>
        <line class="cls-2" x1="289.3" y1="250.49" x2="289.3" y2="254.49"/>
        <line class="cls-2" x1="378.42" y1="250.49" x2="378.42" y2="254.49"/>
        <line class="cls-2" x1="467.54" y1="250.49" x2="467.54" y2="254.49"/>
        <line class="cls-2" x1="556.66" y1="250.49" x2="556.66" y2="254.49"/>
        <line class="cls-2" x1="645.79" y1="250.49" x2="645.79" y2="254.49"/>
      </g>
      <line class="cls-3" x1="378.28" y1="246.89" x2="378.28" y2="35.21"/>
      <g>
        <g>
          <path class="cls-11" d="m182.62,268.02h-7.58v-2.07h7.58v2.07Z"/>
          <path class="cls-11" d="m190.78,273.26h-2.54v-9.79l-3.03.94v-2.07l5.3-1.9h.27v12.81Z"/>
          <path class="cls-11" d="m203.55,267.97c0,1.77-.37,3.12-1.1,4.06s-1.8,1.41-3.22,1.41-2.46-.46-3.2-1.38-1.12-2.24-1.13-3.96v-2.36c0-1.79.37-3.14,1.11-4.07s1.81-1.39,3.2-1.39,2.46.46,3.2,1.38c.74.92,1.12,2.23,1.13,3.95v2.36Zm-2.54-2.59c0-1.06-.15-1.83-.44-2.32-.29-.48-.74-.73-1.36-.73s-1.04.23-1.32.69c-.28.46-.44,1.18-.45,2.16v3.11c0,1.04.14,1.82.43,2.33.28.51.74.76,1.37.76s1.07-.24,1.34-.73c.28-.49.42-1.23.43-2.23v-3.04Z"/>
          <path class="cls-11" d="m208.19,262.71c0-.67.24-1.24.71-1.71s1.03-.71,1.68-.71,1.19.24,1.66.71c.47.47.7,1.04.7,1.72s-.23,1.24-.7,1.7-1.02.69-1.66.69-1.19-.23-1.67-.69-.72-1.03-.72-1.7Zm2.39,1.09c.31,0,.57-.1.77-.31.2-.21.3-.47.3-.78s-.1-.57-.3-.79-.46-.33-.77-.33-.57.11-.78.33-.32.49-.32.79.11.56.32.77.47.32.78.32Z"/>
          <path class="cls-11" d="m225.26,269c-.1,1.38-.61,2.46-1.52,3.25s-2.13,1.19-3.63,1.19c-1.64,0-2.93-.55-3.87-1.66s-1.41-2.62-1.41-4.55v-.78c0-1.23.22-2.31.65-3.25s1.05-1.66,1.86-2.16c.81-.5,1.74-.75,2.81-.75,1.48,0,2.67.4,3.57,1.19s1.42,1.9,1.56,3.33h-2.64c-.06-.83-.29-1.42-.69-1.8s-1-.56-1.81-.56c-.88,0-1.54.32-1.97.95s-.66,1.61-.67,2.93v.97c0,1.38.21,2.39.63,3.03s1.08.96,1.98.96c.81,0,1.42-.19,1.82-.56s.63-.95.69-1.73h2.64Z"/>
        </g>
        <g>
          <path class="cls-11" d="m94.07,267.54h-7.34v-1.33h7.34v1.33Z"/>
          <path class="cls-11" d="m101.95,273.26h-1.63v-10.84l-3.28,1.2v-1.48l4.66-1.75h.25v12.86Z"/>
          <path class="cls-11" d="m107.46,266.84l.65-6.38h6.56v1.5h-5.18l-.39,3.49c.63-.37,1.34-.55,2.14-.55,1.17,0,2.09.39,2.78,1.16.69.77,1.03,1.81,1.03,3.12s-.36,2.36-1.07,3.12c-.71.76-1.71,1.14-2.98,1.14-1.13,0-2.05-.31-2.77-.94s-1.12-1.49-1.22-2.6h1.54c.1.73.36,1.29.78,1.66s.98.56,1.67.56c.76,0,1.35-.26,1.78-.77s.65-1.23.65-2.14c0-.86-.23-1.54-.7-2.06-.47-.52-1.09-.78-1.86-.78-.71,0-1.27.16-1.67.47l-.43.35-1.3-.33Z"/>
          <path class="cls-11" d="m119.56,262.57c0-.61.22-1.14.65-1.6s.97-.69,1.59-.69,1.13.23,1.56.68.65.99.65,1.6-.22,1.15-.65,1.59-.95.66-1.56.66-1.14-.22-1.58-.66-.66-.97-.66-1.59Zm2.24,1.12c.32,0,.58-.1.8-.31s.33-.48.33-.81-.11-.62-.33-.84-.48-.33-.8-.33-.59.12-.81.35-.33.5-.33.82.11.58.33.8.49.32.81.32Z"/>
          <path class="cls-11" d="m136.03,269.2c-.16,1.35-.66,2.4-1.5,3.13-.84.74-1.96,1.1-3.35,1.1-1.51,0-2.72-.54-3.63-1.63s-1.37-2.53-1.37-4.35v-1.23c0-1.19.21-2.24.64-3.14s1.03-1.59,1.81-2.08c.78-.48,1.68-.72,2.71-.72,1.36,0,2.45.38,3.27,1.14s1.3,1.81,1.43,3.15h-1.7c-.15-1.02-.46-1.76-.95-2.22-.49-.46-1.17-.69-2.05-.69-1.08,0-1.92.4-2.54,1.2s-.92,1.93-.92,3.4v1.24c0,1.39.29,2.5.87,3.32s1.39,1.23,2.43,1.23c.94,0,1.66-.21,2.16-.64.5-.42.83-1.16,1-2.22h1.7Z"/>
        </g>
        <g>
          <path class="cls-11" d="m276.6,267.54h-7.34v-1.33h7.34v1.33Z"/>
          <path class="cls-11" d="m279.88,266.84l.65-6.38h6.56v1.5h-5.18l-.39,3.49c.63-.37,1.34-.55,2.14-.55,1.17,0,2.09.39,2.78,1.16.69.77,1.03,1.81,1.03,3.12s-.36,2.36-1.07,3.12c-.71.76-1.71,1.14-2.98,1.14-1.13,0-2.05-.31-2.77-.94s-1.12-1.49-1.22-2.6h1.54c.1.73.36,1.29.78,1.66s.98.56,1.67.56c.76,0,1.35-.26,1.78-.77s.65-1.23.65-2.14c0-.86-.23-1.54-.7-2.06-.47-.52-1.09-.78-1.86-.78-.71,0-1.27.16-1.67.47l-.43.35-1.3-.33Z"/>
          <path class="cls-11" d="m291.98,262.57c0-.61.22-1.14.66-1.6s.96-.69,1.59-.69,1.13.23,1.56.68.65.99.65,1.6-.21,1.15-.65,1.59-.95.66-1.56.66-1.14-.22-1.58-.66-.66-.97-.66-1.59Zm2.24,1.12c.32,0,.58-.1.8-.31s.33-.48.33-.81-.11-.62-.33-.84-.48-.33-.8-.33-.59.12-.81.35-.33.5-.33.82.11.58.33.8.49.32.81.32Z"/>
          <path class="cls-11" d="m308.46,269.2c-.16,1.35-.66,2.4-1.5,3.13-.84.74-1.96,1.1-3.35,1.1-1.51,0-2.72-.54-3.63-1.63s-1.37-2.53-1.37-4.35v-1.23c0-1.19.21-2.24.64-3.14s1.03-1.59,1.81-2.08c.78-.48,1.68-.72,2.71-.72,1.36,0,2.45.38,3.27,1.14s1.3,1.81,1.43,3.15h-1.7c-.15-1.02-.46-1.76-.95-2.22-.49-.46-1.17-.69-2.05-.69-1.08,0-1.92.4-2.54,1.2s-.92,1.93-.92,3.4v1.24c0,1.39.29,2.5.87,3.32s1.39,1.23,2.43,1.23c.94,0,1.66-.21,2.16-.64.5-.42.83-1.16,1-2.22h1.7Z"/>
        </g>
        <g>
          <path class="cls-11" d="m452.6,266.39h3.57v1.54h-3.57v4.04h-1.63v-4.04h-3.57v-1.54h3.57v-3.74h1.63v3.74Z"/>
          <path class="cls-11" d="m458.72,266.84l.65-6.38h6.56v1.5h-5.18l-.39,3.49c.63-.37,1.34-.55,2.14-.55,1.17,0,2.09.39,2.78,1.16.69.77,1.03,1.81,1.03,3.12s-.36,2.36-1.07,3.12c-.71.76-1.71,1.14-2.98,1.14-1.13,0-2.05-.31-2.77-.94s-1.12-1.49-1.22-2.6h1.54c.1.73.36,1.29.78,1.66s.98.56,1.67.56c.76,0,1.35-.26,1.78-.77s.65-1.23.65-2.14c0-.86-.23-1.54-.7-2.06-.47-.52-1.08-.78-1.86-.78-.71,0-1.27.16-1.67.47l-.43.35-1.3-.33Z"/>
          <path class="cls-11" d="m470.82,262.57c0-.61.22-1.14.65-1.6s.97-.69,1.59-.69,1.13.23,1.56.68.65.99.65,1.6-.22,1.15-.65,1.59-.95.66-1.56.66-1.14-.22-1.58-.66-.66-.97-.66-1.59Zm2.24,1.12c.32,0,.58-.1.8-.31s.33-.48.33-.81-.11-.62-.33-.84-.48-.33-.8-.33-.59.12-.81.35-.33.5-.33.82.11.58.33.8.49.32.81.32Z"/>
          <path class="cls-11" d="m487.3,269.2c-.16,1.35-.66,2.4-1.5,3.13-.84.74-1.96,1.1-3.35,1.1-1.51,0-2.72-.54-3.63-1.63s-1.37-2.53-1.37-4.35v-1.23c0-1.19.21-2.24.64-3.14s1.03-1.59,1.81-2.08c.78-.48,1.68-.72,2.71-.72,1.36,0,2.45.38,3.27,1.14s1.3,1.81,1.43,3.15h-1.7c-.15-1.02-.46-1.76-.95-2.22-.49-.46-1.17-.69-2.05-.69-1.08,0-1.92.4-2.54,1.2s-.92,1.93-.92,3.4v1.24c0,1.39.29,2.5.87,3.32s1.39,1.23,2.43,1.23c.94,0,1.66-.21,2.16-.64.5-.42.83-1.16,1-2.22h1.7Z"/>
        </g>
        <g>
          <path class="cls-11" d="m536.8,266.1h3.17v2.29h-3.17v3.59h-2.42v-3.59h-3.18v-2.29h3.18v-3.44h2.42v3.44Z"/>
          <path class="cls-11" d="m547.57,273.26h-2.54v-9.79l-3.03.94v-2.07l5.3-1.9h.27v12.81Z"/>
          <path class="cls-11" d="m560.34,267.97c0,1.77-.37,3.12-1.1,4.06s-1.8,1.41-3.22,1.41-2.46-.46-3.2-1.38-1.12-2.24-1.13-3.96v-2.36c0-1.79.37-3.14,1.11-4.07s1.81-1.39,3.2-1.39,2.46.46,3.2,1.38c.74.92,1.12,2.23,1.13,3.95v2.36Zm-2.54-2.59c0-1.06-.14-1.83-.43-2.32-.29-.48-.74-.73-1.36-.73s-1.04.23-1.32.69c-.28.46-.44,1.18-.45,2.16v3.11c0,1.04.14,1.82.43,2.33.28.51.74.76,1.37.76s1.07-.24,1.34-.73c.28-.49.42-1.23.43-2.23v-3.04Z"/>
          <path class="cls-11" d="m564.97,262.71c0-.67.24-1.24.71-1.71s1.03-.71,1.68-.71,1.19.24,1.66.71c.47.47.7,1.04.7,1.72s-.23,1.24-.7,1.7-1.02.69-1.66.69-1.19-.23-1.67-.69-.72-1.03-.72-1.7Zm2.39,1.09c.31,0,.57-.1.77-.31.2-.21.3-.47.3-.78s-.1-.57-.3-.79-.46-.33-.77-.33-.57.11-.78.33-.32.49-.32.79.11.56.32.77.47.32.78.32Z"/>
          <path class="cls-11" d="m582.04,269c-.1,1.38-.61,2.46-1.52,3.25s-2.13,1.19-3.63,1.19c-1.64,0-2.93-.55-3.87-1.66s-1.41-2.62-1.41-4.55v-.78c0-1.23.22-2.31.65-3.25s1.05-1.66,1.86-2.16c.81-.5,1.74-.75,2.81-.75,1.48,0,2.67.4,3.57,1.19s1.42,1.9,1.56,3.33h-2.64c-.06-.83-.29-1.42-.69-1.8s-1-.56-1.81-.56c-.88,0-1.54.32-1.97.95s-.66,1.61-.67,2.93v.97c0,1.38.21,2.39.63,3.03s1.08.96,1.98.96c.81,0,1.42-.19,1.82-.56s.63-.95.69-1.73h2.64Z"/>
        </g>
        <g>
          <path class="cls-11" d="m613.56,266.39h3.57v1.54h-3.57v4.04h-1.63v-4.04h-3.57v-1.54h3.57v-3.74h1.63v3.74Z"/>
          <path class="cls-11" d="m624.28,273.26h-1.63v-10.84l-3.28,1.2v-1.48l4.66-1.75h.25v12.86Z"/>
          <path class="cls-11" d="m629.79,266.84l.65-6.38h6.56v1.5h-5.18l-.39,3.49c.63-.37,1.34-.55,2.14-.55,1.17,0,2.09.39,2.78,1.16.69.77,1.03,1.81,1.03,3.12s-.36,2.36-1.07,3.12c-.71.76-1.71,1.14-2.98,1.14-1.13,0-2.05-.31-2.77-.94s-1.12-1.49-1.22-2.6h1.54c.1.73.36,1.29.78,1.66s.98.56,1.67.56c.76,0,1.35-.26,1.78-.77s.65-1.23.65-2.14c0-.86-.23-1.54-.7-2.06-.47-.52-1.08-.78-1.86-.78-.71,0-1.27.16-1.67.47l-.43.35-1.3-.33Z"/>
          <path class="cls-11" d="m641.89,262.57c0-.61.22-1.14.65-1.6s.97-.69,1.59-.69,1.13.23,1.56.68.65.99.65,1.6-.22,1.15-.65,1.59-.95.66-1.56.66-1.14-.22-1.58-.66-.66-.97-.66-1.59Zm2.24,1.12c.32,0,.58-.1.8-.31s.33-.48.33-.81-.11-.62-.33-.84-.48-.33-.8-.33-.59.12-.81.35-.33.5-.33.82.11.58.33.8.49.32.81.32Z"/>
          <path class="cls-11" d="m658.37,269.2c-.16,1.35-.66,2.4-1.5,3.13-.84.74-1.96,1.1-3.35,1.1-1.51,0-2.72-.54-3.63-1.63s-1.37-2.53-1.37-4.35v-1.23c0-1.19.21-2.24.64-3.14s1.03-1.59,1.81-2.08c.78-.48,1.68-.72,2.71-.72,1.36,0,2.45.38,3.27,1.14s1.3,1.81,1.43,3.15h-1.7c-.15-1.02-.46-1.76-.95-2.22-.49-.46-1.17-.69-2.05-.69-1.08,0-1.92.4-2.54,1.2s-.92,1.93-.92,3.4v1.24c0,1.39.29,2.5.87,3.32s1.39,1.23,2.43,1.23c.94,0,1.66-.21,2.16-.64.5-.42.83-1.16,1-2.22h1.7Z"/>
        </g>
      </g>
    </g>
  </g>
</svg>