<?xml version="1.0" encoding="UTF-8"?>
<svg xmlns="http://www.w3.org/2000/svg" xmlns:xlink="http://www.w3.org/1999/xlink" viewBox="0 0 660 324.38">
  <defs>
    <style>
      .cls-1 {
        stroke: #000;
      }

      .cls-1, .cls-2, .cls-3, .cls-4, .cls-5, .cls-6, .cls-7 {
        fill: none;
      }

      .cls-1, .cls-3, .cls-4, .cls-7 {
        stroke-miterlimit: 10;
      }

      .cls-1, .cls-3, .cls-7 {
        stroke-linecap: round;
      }

      .cls-1, .cls-7 {
        stroke-dasharray: 0 0 4 6;
        stroke-width: 3px;
      }

      .cls-8 {
        fill: #e9ebf4;
      }

      .cls-9 {
        fill: #fff;
      }

      .cls-10 {
        fill: #f0f;
      }

      .cls-11 {
        fill: #fceae9;
      }

      .cls-12 {
        fill: #999;
      }

      .cls-13 {
        fill: #cacde3;
      }

      .cls-14 {
        fill: #1a1a1a;
      }

      .cls-15 {
        fill: #606060;
      }

      .cls-2 {
        mix-blend-mode: multiply;
        opacity: 0;
        stroke: #939598;
      }

      .cls-2, .cls-5, .cls-6 {
        stroke-linejoin: round;
      }

      .cls-3 {
        stroke: #606060;
      }

      .cls-4 {
        stroke: #1a1a1a;
        stroke-width: 2px;
      }

      .cls-5, .cls-6 {
        stroke-width: 1.25px;
      }

      .cls-5, .cls-7 {
        stroke: #999;
      }

      .cls-6 {
        stroke: #231f20;
      }

      .cls-16 {
        opacity: .4;
      }

      .cls-17 {
        isolation: isolate;
      }

      .cls-18 {
        fill: #e6625c;
      }

      .cls-18, .cls-19, .cls-20, .cls-21, .cls-22 {
        opacity: .9;
      }

      .cls-19 {
        fill: #ee9f92;
      }

      .cls-20 {
        fill: #606bac;
      }

      .cls-21 {
        fill: #959cc7;
      }

      .cls-22 {
        fill: #f7cfc9;
      }
    </style>
    <symbol id="New_Symbol" data-name="New Symbol" viewBox="0 0 573.93 20.28">
      <g>
        <g>
          <path class="cls-15" d="m97.55,9.68h-7.34v-1.33h7.34v1.33Z"/>
          <path class="cls-15" d="m105.43,15.4h-1.63V4.56l-3.28,1.2v-1.48l4.66-1.75h.25v12.86Z"/>
          <path class="cls-15" d="m118.22,9.94c0,1.9-.33,3.32-.98,4.25s-1.67,1.39-3.05,1.39-2.38-.45-3.03-1.36c-.66-.91-1-2.26-1.02-4.06v-2.17c0-1.88.33-3.28.98-4.19s1.67-1.37,3.06-1.37,2.39.44,3.04,1.32c.65.88.98,2.24,1,4.08v2.11Zm-1.63-2.22c0-1.38-.19-2.38-.58-3.01s-1-.95-1.84-.95-1.44.31-1.82.94-.58,1.59-.59,2.89v2.6c0,1.38.2,2.4.6,3.06.4.66,1.01.99,1.82.99s1.4-.31,1.79-.93.59-1.6.61-2.94v-2.66Z"/>
          <path class="cls-15" d="m123.04,4.71c0-.61.22-1.14.65-1.6s.97-.69,1.59-.69,1.13.23,1.56.68.65.99.65,1.6-.22,1.15-.65,1.59-.95.66-1.56.66-1.14-.22-1.58-.66-.66-.97-.66-1.59Zm2.24,1.12c.32,0,.58-.1.8-.31s.33-.48.33-.81-.11-.62-.33-.84-.48-.33-.8-.33-.59.12-.81.35-.33.5-.33.82.11.58.33.8.49.32.81.32Z"/>
          <path class="cls-15" d="m139.52,11.34c-.16,1.35-.66,2.4-1.5,3.13-.84.74-1.96,1.1-3.35,1.1-1.51,0-2.72-.54-3.63-1.63s-1.37-2.53-1.37-4.35v-1.23c0-1.19.21-2.24.64-3.14s1.03-1.59,1.81-2.08c.78-.48,1.68-.72,2.71-.72,1.36,0,2.45.38,3.27,1.14s1.3,1.81,1.43,3.15h-1.7c-.15-1.02-.46-1.76-.95-2.22-.49-.46-1.17-.69-2.05-.69-1.08,0-1.92.4-2.54,1.2s-.92,1.93-.92,3.4v1.24c0,1.39.29,2.5.87,3.32s1.39,1.23,2.43,1.23c.94,0,1.66-.21,2.16-.64.5-.42.83-1.16,1-2.22h1.7Z"/>
        </g>
        <g>
          <path class="cls-15" d="m8.82,9.68H1.48v-1.33h7.34v1.33Z"/>
          <path class="cls-15" d="m16.69,15.4h-1.63V4.56l-3.28,1.2v-1.48l4.66-1.75h.25v12.86Z"/>
          <path class="cls-15" d="m22.2,8.98l.65-6.38h6.56v1.5h-5.18l-.39,3.49c.63-.37,1.34-.55,2.14-.55,1.17,0,2.09.39,2.78,1.16.69.77,1.03,1.81,1.03,3.12s-.36,2.36-1.07,3.12c-.71.76-1.71,1.14-2.98,1.14-1.13,0-2.05-.31-2.77-.94s-1.12-1.49-1.22-2.6h1.54c.1.73.36,1.29.78,1.66s.98.56,1.67.56c.76,0,1.35-.26,1.78-.77s.65-1.23.65-2.14c0-.86-.23-1.54-.7-2.06-.47-.52-1.09-.78-1.86-.78-.71,0-1.27.16-1.67.47l-.43.35-1.3-.33Z"/>
          <path class="cls-15" d="m34.3,4.71c0-.61.22-1.14.65-1.6s.97-.69,1.59-.69,1.13.23,1.56.68.65.99.65,1.6-.22,1.15-.65,1.59-.95.66-1.56.66-1.14-.22-1.58-.66-.66-.97-.66-1.59Zm2.24,1.12c.32,0,.58-.1.8-.31s.33-.48.33-.81-.11-.62-.33-.84-.48-.33-.8-.33-.59.12-.81.35-.33.5-.33.82.11.58.33.8.49.32.81.32Z"/>
          <path class="cls-15" d="m50.78,11.34c-.16,1.35-.66,2.4-1.5,3.13-.84.74-1.96,1.1-3.35,1.1-1.51,0-2.72-.54-3.63-1.63s-1.37-2.53-1.37-4.35v-1.23c0-1.19.21-2.24.64-3.14s1.03-1.59,1.81-2.08c.78-.48,1.68-.72,2.71-.72,1.36,0,2.45.38,3.27,1.14s1.3,1.81,1.43,3.15h-1.7c-.15-1.02-.46-1.76-.95-2.22-.49-.46-1.17-.69-2.05-.69-1.08,0-1.92.4-2.54,1.2s-.92,1.93-.92,3.4v1.24c0,1.39.29,2.5.87,3.32s1.39,1.23,2.43,1.23c.94,0,1.66-.21,2.16-.64.5-.42.83-1.16,1-2.22h1.7Z"/>
        </g>
        <g>
          <path class="cls-15" d="m191.35,9.68h-7.34v-1.33h7.34v1.33Z"/>
          <path class="cls-15" d="m194.62,8.98l.65-6.38h6.56v1.5h-5.18l-.39,3.49c.63-.37,1.34-.55,2.14-.55,1.17,0,2.09.39,2.78,1.16.69.77,1.03,1.81,1.03,3.12s-.36,2.36-1.07,3.12c-.71.76-1.71,1.14-2.98,1.14-1.13,0-2.05-.31-2.77-.94s-1.12-1.49-1.22-2.6h1.54c.1.73.36,1.29.78,1.66s.98.56,1.67.56c.76,0,1.35-.26,1.78-.77s.65-1.23.65-2.14c0-.86-.23-1.54-.7-2.06-.47-.52-1.09-.78-1.86-.78-.71,0-1.27.16-1.67.47l-.43.35-1.3-.33Z"/>
          <path class="cls-15" d="m206.72,4.71c0-.61.22-1.14.65-1.6s.97-.69,1.59-.69,1.13.23,1.56.68.65.99.65,1.6-.22,1.15-.65,1.59-.95.66-1.56.66-1.14-.22-1.58-.66-.66-.97-.66-1.59Zm2.24,1.12c.32,0,.58-.1.8-.31s.33-.48.33-.81-.11-.62-.33-.84-.48-.33-.8-.33-.59.12-.81.35-.33.5-.33.82.11.58.33.8.49.32.81.32Z"/>
          <path class="cls-15" d="m223.2,11.34c-.16,1.35-.66,2.4-1.5,3.13-.84.74-1.96,1.1-3.35,1.1-1.51,0-2.72-.54-3.63-1.63s-1.37-2.53-1.37-4.35v-1.23c0-1.19.21-2.24.64-3.14s1.03-1.59,1.81-2.08c.78-.48,1.68-.72,2.71-.72,1.36,0,2.45.38,3.27,1.14s1.3,1.81,1.43,3.15h-1.7c-.15-1.02-.46-1.76-.95-2.22-.49-.46-1.17-.69-2.05-.69-1.08,0-1.92.4-2.54,1.2s-.92,1.93-.92,3.4v1.24c0,1.39.29,2.5.87,3.32s1.39,1.23,2.43,1.23c.94,0,1.66-.21,2.16-.64.5-.42.83-1.16,1-2.22h1.7Z"/>
        </g>
        <g>
          <path class="cls-15" d="m367.34,8.53h3.57v1.54h-3.57v4.04h-1.63v-4.04h-3.57v-1.54h3.57v-3.74h1.63v3.74Z"/>
          <path class="cls-15" d="m373.47,8.98l.65-6.38h6.56v1.5h-5.18l-.39,3.49c.63-.37,1.34-.55,2.14-.55,1.17,0,2.09.39,2.78,1.16.69.77,1.03,1.81,1.03,3.12s-.36,2.36-1.07,3.12c-.71.76-1.71,1.14-2.98,1.14-1.13,0-2.05-.31-2.77-.94s-1.12-1.49-1.22-2.6h1.54c.1.73.36,1.29.78,1.66s.98.56,1.67.56c.76,0,1.35-.26,1.78-.77s.65-1.23.65-2.14c0-.86-.23-1.54-.7-2.06-.47-.52-1.09-.78-1.86-.78-.71,0-1.27.16-1.67.47l-.43.35-1.3-.33Z"/>
          <path class="cls-15" d="m385.56,4.71c0-.61.22-1.14.65-1.6s.97-.69,1.59-.69,1.13.23,1.56.68.65.99.65,1.6-.22,1.15-.65,1.59-.95.66-1.56.66-1.14-.22-1.58-.66-.66-.97-.66-1.59Zm2.24,1.12c.32,0,.58-.1.8-.31s.33-.48.33-.81-.11-.62-.33-.84-.48-.33-.8-.33-.59.12-.81.35-.33.5-.33.82.11.58.33.8.49.32.81.32Z"/>
          <path class="cls-15" d="m402.04,11.34c-.16,1.35-.66,2.4-1.5,3.13-.84.74-1.96,1.1-3.35,1.1-1.51,0-2.72-.54-3.63-1.63s-1.37-2.53-1.37-4.35v-1.23c0-1.19.21-2.24.64-3.14s1.03-1.59,1.81-2.08c.78-.48,1.68-.72,2.71-.72,1.36,0,2.45.38,3.27,1.14s1.3,1.81,1.43,3.15h-1.7c-.15-1.02-.46-1.76-.95-2.22-.49-.46-1.17-.69-2.05-.69-1.08,0-1.92.4-2.54,1.2s-.92,1.93-.92,3.4v1.24c0,1.39.29,2.5.87,3.32s1.39,1.23,2.43,1.23c.94,0,1.66-.21,2.16-.64.5-.42.83-1.16,1-2.22h1.7Z"/>
        </g>
        <g>
          <path class="cls-15" d="m451.54,8.53h3.57v1.54h-3.57v4.04h-1.63v-4.04h-3.57v-1.54h3.57v-3.74h1.63v3.74Z"/>
          <path class="cls-15" d="m462.26,15.4h-1.63V4.56l-3.28,1.2v-1.48l4.66-1.75h.25v12.86Z"/>
          <path class="cls-15" d="m475.05,9.94c0,1.9-.33,3.32-.98,4.25s-1.67,1.39-3.05,1.39-2.38-.45-3.03-1.36c-.66-.91-1-2.26-1.02-4.06v-2.17c0-1.88.33-3.28.98-4.19s1.67-1.37,3.06-1.37,2.39.44,3.04,1.32c.65.88.98,2.24,1,4.08v2.11Zm-1.63-2.22c0-1.38-.19-2.38-.58-3.01s-1-.95-1.84-.95-1.44.31-1.82.94-.58,1.59-.59,2.89v2.6c0,1.38.2,2.4.6,3.06.4.66,1.01.99,1.82.99s1.4-.31,1.79-.93.59-1.6.61-2.94v-2.66Z"/>
          <path class="cls-15" d="m479.87,4.71c0-.61.22-1.14.65-1.6s.97-.69,1.59-.69,1.13.23,1.56.68.65.99.65,1.6-.22,1.15-.65,1.59-.95.66-1.56.66-1.14-.22-1.58-.66-.66-.97-.66-1.59Zm2.24,1.12c.32,0,.58-.1.8-.31s.33-.48.33-.81-.11-.62-.33-.84-.48-.33-.8-.33-.59.12-.81.35-.33.5-.33.82.11.58.33.8.49.32.81.32Z"/>
          <path class="cls-15" d="m496.35,11.34c-.16,1.35-.66,2.4-1.5,3.13-.84.74-1.96,1.1-3.35,1.1-1.51,0-2.72-.54-3.63-1.63s-1.37-2.53-1.37-4.35v-1.23c0-1.19.21-2.24.64-3.14s1.03-1.59,1.81-2.08c.78-.48,1.68-.72,2.71-.72,1.36,0,2.45.38,3.27,1.14s1.3,1.81,1.43,3.15h-1.7c-.15-1.02-.46-1.76-.95-2.22-.49-.46-1.17-.69-2.05-.69-1.08,0-1.92.4-2.54,1.2s-.92,1.93-.92,3.4v1.24c0,1.39.29,2.5.87,3.32s1.39,1.23,2.43,1.23c.94,0,1.66-.21,2.16-.64.5-.42.83-1.16,1-2.22h1.7Z"/>
        </g>
        <g>
          <path class="cls-15" d="m528.3,8.53h3.57v1.54h-3.57v4.04h-1.63v-4.04h-3.57v-1.54h3.57v-3.74h1.63v3.74Z"/>
          <path class="cls-15" d="m539.02,15.4h-1.63V4.56l-3.28,1.2v-1.48l4.66-1.75h.25v12.86Z"/>
          <path class="cls-15" d="m544.53,8.98l.65-6.38h6.56v1.5h-5.18l-.39,3.49c.63-.37,1.34-.55,2.14-.55,1.17,0,2.09.39,2.78,1.16.69.77,1.03,1.81,1.03,3.12s-.36,2.36-1.07,3.12c-.71.76-1.71,1.14-2.98,1.14-1.13,0-2.05-.31-2.77-.94s-1.12-1.49-1.22-2.6h1.54c.1.73.36,1.29.78,1.66s.98.56,1.67.56c.76,0,1.35-.26,1.78-.77s.65-1.23.65-2.14c0-.86-.23-1.54-.7-2.06-.47-.52-1.09-.78-1.86-.78-.71,0-1.27.16-1.67.47l-.43.35-1.3-.33Z"/>
          <path class="cls-15" d="m556.63,4.71c0-.61.22-1.14.65-1.6s.97-.69,1.59-.69,1.13.23,1.56.68.65.99.65,1.6-.22,1.15-.65,1.59-.95.66-1.56.66-1.14-.22-1.58-.66-.66-.97-.66-1.59Zm2.24,1.12c.32,0,.58-.1.8-.31s.33-.48.33-.81-.11-.62-.33-.84-.48-.33-.8-.33-.59.12-.81.35-.33.5-.33.82.11.58.33.8.49.32.81.32Z"/>
          <path class="cls-15" d="m573.11,11.34c-.16,1.35-.66,2.4-1.5,3.13-.84.74-1.96,1.1-3.35,1.1-1.51,0-2.72-.54-3.63-1.63s-1.37-2.53-1.37-4.35v-1.23c0-1.19.21-2.24.64-3.14s1.03-1.59,1.81-2.08c.78-.48,1.68-.72,2.71-.72,1.36,0,2.45.38,3.27,1.14s1.3,1.81,1.43,3.15h-1.7c-.15-1.02-.46-1.76-.95-2.22-.49-.46-1.17-.69-2.05-.69-1.08,0-1.92.4-2.54,1.2s-.92,1.93-.92,3.4v1.24c0,1.39.29,2.5.87,3.32s1.39,1.23,2.43,1.23c.94,0,1.66-.21,2.16-.64.5-.42.83-1.16,1-2.22h1.7Z"/>
        </g>
      </g>
    </symbol>
  </defs>
  <g class="cls-17">
    <g id="Layer_7" data-name="Layer 7">
      <rect class="cls-9" x="0" width="660" height="324.38"/>
      <g class="cls-16">
        <polygon class="cls-21" points="235.54 277.57 217.7 277.57 217.7 280.56 199.95 280.56 199.95 284.6 235.63 284.6 235.63 273.01 235.54 273.01 235.54 277.57"/>
      </g>
      <g class="cls-16">
        <polygon class="cls-11" points="449.58 125.59 449.58 101.75 431.74 101.75 431.74 88.99 413.9 88.99 413.9 99.41 396.07 99.41 396.07 102.01 378.28 102.01 378.28 284.6 467.41 284.6 467.41 157.75 467.41 125.59 449.58 125.59"/>
      </g>
      <g class="cls-16">
        <polygon class="cls-22" points="503.09 223.78 503.09 192.66 485.25 192.66 485.25 157.75 467.41 157.75 467.41 284.6 520.92 284.6 520.92 245.14 520.92 223.78 503.09 223.78"/>
      </g>
      <g class="cls-16">
        <polygon class="cls-19" points="538.76 263.9 538.76 245.14 520.92 245.14 520.92 284.6 556.6 284.6 556.6 272.36 556.6 263.9 538.76 263.9"/>
      </g>
      <g class="cls-16">
        <polygon class="cls-18" points="627.94 283.95 610.1 283.95 610.1 283.17 592.26 283.17 592.26 278.48 574.43 278.48 574.43 272.36 556.6 272.36 556.6 284.6 654.69 284.6 654.69 284.47 627.94 284.47 627.94 283.95"/>
      </g>
      <g class="cls-16">
        <polygon class="cls-8" points="378.23 122.33 360.39 122.33 360.39 147.07 342.56 147.07 342.56 170.39 324.72 170.39 324.72 199.95 306.88 199.95 306.88 227.17 289.14 227.17 289.14 284.6 378.28 284.6 378.28 102.01 378.23 102.01 378.23 122.33"/>
      </g>
      <g class="cls-16">
        <polygon class="cls-13" points="289.05 252.95 271.21 252.95 271.21 264.15 253.37 264.15 253.37 273.01 235.63 273.01 235.63 284.6 289.14 284.6 289.14 227.17 289.05 227.17 289.05 252.95"/>
      </g>
      <g class="cls-16">
        <polygon class="cls-20" points="199.86 282.65 164.19 282.65 164.19 283.56 146.35 283.56 146.35 284.08 128.52 284.08 128.52 284.21 110.68 284.21 110.68 284.34 92.84 284.34 92.84 284.6 199.95 284.6 199.95 280.56 199.86 280.56 199.86 282.65"/>
      </g>
      <g>
        <line class="cls-3" x1="111.05" y1="290.58" x2="111.05" y2="294.58"/>
        <line class="cls-3" x1="200.18" y1="290.58" x2="200.18" y2="294.58"/>
        <line class="cls-3" x1="289.3" y1="290.58" x2="289.3" y2="294.58"/>
        <line class="cls-3" x1="378.42" y1="290.58" x2="378.42" y2="294.58"/>
        <line class="cls-3" x1="467.54" y1="290.58" x2="467.54" y2="294.58"/>
        <line class="cls-3" x1="556.66" y1="290.58" x2="556.66" y2="294.58"/>
        <line class="cls-3" x1="645.79" y1="290.58" x2="645.79" y2="294.58"/>
      </g>
      <path class="cls-5" d="m30.42,284.6h26.75v-.13h35.67v.13h17.84v-.39h17.84v-1.43h17.84v-.65h35.67v-1.69h17.84v-4.04h17.84v-5.99h17.84v-10.16h17.84v-14.19h17.84v-31.13h17.84v-31.91h17.84v-33.73h17.84v-24.88h17.84v-28h17.84v5.6h17.84v-9.25h17.84v-1.82h17.84v14.07h17.84v43.24h17.84v33.08h17.84v32.95h17.84v26.31h17.84v17.97h17.84v11.85h17.84v9.64h17.84v1.82h17.83v1.69h17.84v.52h17.84v.39h17.84v.13h26.75"/>
      <path class="cls-2" d="m30.42,284.47h26.75v-.13h17.84v-.65h17.84v.39h17.84v-1.43h17.84v.65h17.84v-.52h17.84v-1.17h17.84v-2.48h17.84v-1.95h17.84v-2.34h17.84v-12.63h17.84v-14.98h17.84v-17.84h17.84v-27.09h17.84v-33.47h17.84v-24.61h17.84v-30.87h17.84v-4.82h17.84v-17.32h17.84v1.95h17.84v21.36h17.84v17.06h17.84v29.95h17.84v31.91h17.84v32.17h17.84v18.88h17.84v17.06h17.84v9.9h17.84v5.99h17.83v4.17h17.84v1.82h17.84v1.17h17.84v-.13h17.84v-.13h8.92"/>
      <path class="cls-6" d="m30.42,284.6h62.43v-.26h17.84v-.13h17.84v-.13h17.84v-.52h17.84v-.91h35.67v-2.09h17.84v-3h17.84v-4.56h17.84v-8.86h17.84v-11.2h17.84v-25.79h17.84v-27.22h17.84v-29.56h17.84v-23.31h17.84v-24.74h17.84v-20.32h17.84v-2.6h17.84v-10.42h17.84v12.76h17.84v23.83h17.84v32.17h17.84v34.9h17.84v31.13h17.84v21.36h17.84v18.75h17.84v8.47h17.83v6.12h17.84v4.69h17.84v.78h17.84v.52h26.75"/>
      <use width="573.93" height="20.28" transform="translate(85.26 297.95)" xlink:href="#New_Symbol"/>
      <g>
        <path class="cls-15" d="m197.2,62.98c0,1.93-.44,3.48-1.32,4.66s-2.08,1.77-3.59,1.77-2.75-.49-3.63-1.46v6.11h-2.17v-17.55h1.98l.11,1.41c.88-1.09,2.11-1.64,3.68-1.64s2.73.57,3.62,1.72,1.33,2.75,1.33,4.79v.2Zm-2.17-.25c0-1.43-.3-2.56-.91-3.39s-1.45-1.24-2.51-1.24c-1.31,0-2.3.58-2.95,1.75v6.06c.65,1.16,1.64,1.73,2.98,1.73,1.04,0,1.87-.41,2.48-1.24s.92-2.05.92-3.67Z"/>
        <path class="cls-15" d="m206.08,58.44c-.33-.05-.68-.08-1.07-.08-1.42,0-2.39.61-2.89,1.82v9h-2.17v-12.68h2.11l.04,1.46c.71-1.13,1.72-1.7,3.02-1.7.42,0,.74.05.96.16v2.02Z"/>
        <path class="cls-15" d="m215.9,67.92c-.84.99-2.08,1.49-3.71,1.49-1.35,0-2.38-.39-3.09-1.18s-1.06-1.95-1.07-3.49v-8.25h2.17v8.19c0,1.92.78,2.88,2.34,2.88,1.66,0,2.76-.62,3.3-1.85v-9.22h2.17v12.68h-2.06l-.05-1.25Zm-.3-15.38c0,.68-.24,1.25-.73,1.71s-1.08.69-1.79.69-1.32-.23-1.8-.69-.72-1.03-.72-1.7.24-1.25.72-1.72,1.08-.71,1.8-.71,1.32.24,1.8.71.72,1.05.72,1.72Zm-3.88,0c0,.37.13.68.39.95s.58.4.97.4.7-.13.96-.39.4-.58.4-.96-.13-.71-.39-.98-.58-.4-.97-.4-.71.14-.97.41-.39.6-.39.97Z"/>
        <path class="cls-15" d="m223.34,56.5l.06,1.41c.93-1.09,2.18-1.64,3.76-1.64,1.77,0,2.98.68,3.62,2.04.42-.61.97-1.1,1.65-1.48s1.47-.56,2.4-.56c2.78,0,4.2,1.47,4.24,4.42v8.5h-2.17v-8.37c0-.91-.21-1.58-.62-2.03s-1.11-.67-2.09-.67c-.8,0-1.47.24-2,.72s-.84,1.13-.93,1.94v8.41h-2.18v-8.31c0-1.84-.9-2.77-2.71-2.77-1.42,0-2.39.61-2.92,1.82v9.26h-2.17v-12.68h2.05Z"/>
        <path class="cls-15" d="m247.6,69.41c-1.72,0-3.12-.56-4.2-1.69s-1.62-2.64-1.62-4.53v-.4c0-1.26.24-2.38.72-3.37s1.15-1.76,2.02-2.32,1.8-.84,2.81-.84c1.65,0,2.93.54,3.84,1.63s1.37,2.64,1.37,4.66v.9h-8.59c.03,1.25.4,2.26,1.1,3.03s1.59,1.15,2.67,1.15c.77,0,1.41-.16,1.95-.47s1-.73,1.39-1.24l1.32,1.03c-1.06,1.63-2.66,2.45-4.78,2.45Zm-.29-16.24l1.76-1.99h1.88v.12l-2.98,3.21h-1.32l-2.94-3.21v-.12h1.84l1.77,1.99Zm.02,4.88c-.88,0-1.61.32-2.2.96s-.96,1.53-1.1,2.68h6.35v-.16c-.06-1.1-.36-1.96-.89-2.56s-1.25-.91-2.16-.91Z"/>
        <path class="cls-15" d="m261.18,58.44c-.33-.05-.68-.08-1.07-.08-1.42,0-2.39.61-2.89,1.82v9h-2.17v-12.68h2.11l.04,1.46c.71-1.13,1.72-1.7,3.02-1.7.42,0,.74.05.96.16v2.02Z"/>
        <path class="cls-15" d="m265.23,56.5l.07,1.59c.97-1.22,2.23-1.83,3.8-1.83,2.68,0,4.03,1.51,4.05,4.54v8.38h-2.17v-8.39c0-.91-.22-1.59-.63-2.03s-1.05-.66-1.92-.66c-.7,0-1.32.19-1.85.56s-.95.87-1.24,1.48v9.04h-2.17v-12.68h2.05Z"/>
        <path class="cls-15" d="m284.25,69.18c-.12-.25-.23-.7-.3-1.34-1.01,1.05-2.21,1.57-3.61,1.57-1.25,0-2.28-.35-3.08-1.06s-1.2-1.6-1.2-2.69c0-1.32.5-2.35,1.51-3.08s2.42-1.1,4.24-1.1h2.11v-1c0-.76-.23-1.36-.68-1.81s-1.12-.67-2-.67c-.77,0-1.42.2-1.95.59s-.79.86-.79,1.42h-2.18c0-.63.22-1.24.67-1.83s1.06-1.06,1.83-1.4,1.62-.52,2.54-.52c1.46,0,2.61.37,3.43,1.1s1.26,1.74,1.29,3.02v5.84c0,1.16.15,2.09.45,2.78v.19h-2.27Zm-3.6-1.65c.68,0,1.32-.18,1.93-.53s1.05-.81,1.32-1.37v-2.6h-1.7c-2.66,0-3.98.78-3.98,2.33,0,.68.23,1.21.68,1.59s1.04.57,1.75.57Zm2-16.35h2.62l-3.14,3.45h-1.75s2.26-3.45,2.26-3.45Z"/>
        <path class="cls-15" d="m301.54,58.44c-.33-.05-.68-.08-1.07-.08-1.42,0-2.39.61-2.89,1.82v9h-2.17v-12.68h2.11l.04,1.46c.71-1.13,1.72-1.7,3.02-1.7.42,0,.74.05.96.16v2.02Z"/>
        <path class="cls-15" d="m302.73,62.72c0-1.24.24-2.36.73-3.35s1.17-1.76,2.04-2.3,1.87-.81,2.98-.81c1.73,0,3.12.6,4.19,1.79s1.6,2.79,1.6,4.77v.15c0,1.23-.24,2.34-.71,3.32s-1.15,1.74-2.03,2.29-1.89.82-3.03.82c-1.72,0-3.11-.6-4.18-1.79s-1.6-2.78-1.6-4.75v-.15Zm2.18.26c0,1.41.33,2.54.98,3.39s1.53,1.28,2.62,1.28,1.98-.43,2.62-1.29.97-2.07.97-3.63c0-1.39-.33-2.52-.99-3.38s-1.54-1.29-2.63-1.29-1.93.43-2.59,1.28-.98,2.07-.98,3.66Z"/>
        <path class="cls-15" d="m322.07,67.64c.77,0,1.45-.23,2.03-.7s.9-1.05.96-1.76h2.05c-.04.73-.29,1.42-.75,2.07s-1.08,1.18-1.85,1.57-1.58.59-2.44.59c-1.73,0-3.1-.58-4.12-1.73s-1.53-2.73-1.53-4.73v-.36c0-1.23.23-2.33.68-3.29s1.1-1.71,1.95-2.24,1.85-.8,3.01-.8c1.42,0,2.6.43,3.54,1.28s1.44,1.96,1.51,3.32h-2.05c-.06-.82-.37-1.49-.93-2.02s-1.25-.79-2.07-.79c-1.1,0-1.96.4-2.56,1.19s-.91,1.94-.91,3.44v.41c0,1.46.3,2.59.9,3.38s1.46,1.18,2.58,1.18Zm-.5-14.47l1.76-1.99h1.88v.12l-2.98,3.21h-1.32l-2.94-3.21v-.12h1.84l1.77,1.99Z"/>
        <path class="cls-15" d="m331.6,56.5l.07,1.59c.97-1.22,2.23-1.83,3.8-1.83,2.68,0,4.03,1.51,4.05,4.54v8.38h-2.17v-8.39c0-.91-.22-1.59-.63-2.03s-1.05-.66-1.92-.66c-.7,0-1.32.19-1.85.56s-.95.87-1.24,1.48v9.04h-2.17v-12.68h2.05Z"/>
        <path class="cls-15" d="m345.17,51.19h2.62l-3.14,3.45h-1.75s2.26-3.45,2.26-3.45Zm-.02,17.99h-2.18v-12.68h2.18v12.68Z"/>
        <path class="cls-15" d="m147.73,79.43v3.07h2.37v1.68h-2.37v7.87c0,.51.11.89.32,1.14.21.25.57.38,1.08.38.25,0,.59-.05,1.03-.14v1.75c-.57.15-1.12.23-1.66.23-.97,0-1.7-.29-2.19-.88s-.74-1.42-.74-2.5v-7.86h-2.31v-1.68h2.31v-3.07h2.17Z"/>
        <path class="cls-15" d="m157.89,95.41c-1.72,0-3.12-.56-4.2-1.69s-1.62-2.64-1.62-4.53v-.4c0-1.26.24-2.38.72-3.37s1.15-1.76,2.02-2.32,1.8-.84,2.81-.84c1.65,0,2.93.54,3.84,1.63s1.37,2.64,1.37,4.66v.9h-8.59c.03,1.25.4,2.26,1.1,3.03s1.59,1.15,2.67,1.15c.77,0,1.41-.16,1.95-.47s1-.73,1.39-1.24l1.32,1.03c-1.06,1.63-2.66,2.45-4.78,2.45Zm-.27-11.37c-.88,0-1.61.32-2.2.96s-.96,1.53-1.1,2.68h6.35v-.16c-.06-1.1-.36-1.96-.89-2.56s-1.25-.91-2.16-.91Z"/>
        <path class="cls-15" d="m176.06,88.98c0,1.93-.44,3.48-1.32,4.66s-2.08,1.77-3.59,1.77-2.75-.49-3.63-1.46v6.11h-2.17v-17.55h1.98l.11,1.41c.88-1.09,2.11-1.64,3.68-1.64s2.73.57,3.62,1.72,1.33,2.75,1.33,4.79v.2Zm-2.17-.25c0-1.43-.3-2.56-.91-3.39s-1.45-1.24-2.51-1.24c-1.31,0-2.3.58-2.95,1.75v6.06c.65,1.16,1.64,1.73,2.98,1.73,1.04,0,1.87-.41,2.48-1.24s.92-2.05.92-3.67Z"/>
        <path class="cls-15" d="m181.17,95.18h-2.17v-18h2.17v18Z"/>
        <path class="cls-15" d="m184.06,88.72c0-1.24.24-2.36.73-3.35s1.17-1.76,2.04-2.3,1.87-.81,2.98-.81c1.73,0,3.12.6,4.19,1.79s1.6,2.79,1.6,4.77v.15c0,1.23-.24,2.34-.71,3.32s-1.15,1.74-2.03,2.29-1.89.82-3.03.82c-1.72,0-3.11-.6-4.18-1.79s-1.6-2.78-1.6-4.75v-.15Zm2.18.26c0,1.41.33,2.54.98,3.39s1.53,1.28,2.62,1.28,1.98-.43,2.62-1.29.97-2.07.97-3.63c0-1.39-.33-2.52-.99-3.38s-1.54-1.29-2.63-1.29-1.93.43-2.59,1.28-.98,2.07-.98,3.66Z"/>
        <path class="cls-15" d="m201.27,79.43v3.07h2.37v1.68h-2.37v7.87c0,.51.11.89.32,1.14.21.25.57.38,1.08.38.25,0,.59-.05,1.03-.14v1.75c-.57.15-1.12.23-1.66.23-.97,0-1.7-.29-2.19-.88s-.74-1.42-.74-2.5v-7.86h-2.31v-1.68h2.31v-3.07h2.17Z"/>
        <path class="cls-15" d="m213.99,95.18c-.12-.25-.23-.7-.3-1.34-1.01,1.05-2.21,1.57-3.61,1.57-1.25,0-2.28-.35-3.08-1.06s-1.2-1.6-1.2-2.69c0-1.32.5-2.35,1.51-3.08s2.42-1.1,4.24-1.1h2.11v-1c0-.76-.23-1.36-.68-1.81s-1.12-.67-2-.67c-.77,0-1.42.2-1.95.59s-.79.86-.79,1.42h-2.18c0-.63.22-1.24.67-1.83s1.06-1.06,1.83-1.4,1.62-.52,2.54-.52c1.46,0,2.61.37,3.43,1.1s1.26,1.74,1.29,3.02v5.84c0,1.16.15,2.09.45,2.78v.19h-2.27Zm-3.6-1.65c.68,0,1.32-.18,1.93-.53s1.05-.81,1.32-1.37v-2.6h-1.7c-2.66,0-3.98.78-3.98,2.33,0,.68.23,1.21.68,1.59s1.04.57,1.75.57Z"/>
        <path class="cls-15" d="m232.06,95.18h-2.18v-14.45l-4.37,1.61v-1.97l6.21-2.33h.34v17.14Z"/>
        <path class="cls-15" d="m246.72,87.68c-.45.54-.99.97-1.62,1.3s-1.32.49-2.07.49c-.98,0-1.84-.24-2.57-.73s-1.29-1.17-1.69-2.04-.6-1.85-.6-2.91c0-1.14.22-2.17.65-3.08s1.05-1.61,1.85-2.1,1.73-.73,2.79-.73c1.69,0,3.02.63,3.99,1.89s1.46,2.98,1.46,5.16v.63c0,3.32-.66,5.74-1.97,7.27s-3.29,2.31-5.94,2.35h-.42v-1.84h.46c1.79-.03,3.16-.5,4.12-1.4s1.48-2.33,1.57-4.27Zm-3.34,0c.73,0,1.4-.22,2.01-.67s1.06-1,1.34-1.65v-.87c0-1.42-.31-2.58-.93-3.47s-1.4-1.34-2.34-1.34-1.72.37-2.3,1.1-.87,1.69-.87,2.89.28,2.12.84,2.88,1.31,1.13,2.24,1.13Z"/>
        <path class="cls-15" d="m260.4,78.1v1.84h-.4c-1.69.03-3.03.53-4.03,1.5s-1.58,2.33-1.73,4.09c.9-1.03,2.12-1.55,3.68-1.55s2.67.52,3.56,1.57,1.33,2.4,1.33,4.05c0,1.76-.48,3.16-1.44,4.22s-2.24,1.58-3.85,1.58-2.96-.63-3.97-1.88-1.52-2.87-1.52-4.85v-.83c0-3.14.67-5.54,2.01-7.2s3.33-2.51,5.98-2.55h.39Zm-2.85,7.69c-.74,0-1.43.22-2.05.67s-1.06,1-1.3,1.68v.8c0,1.41.32,2.54.95,3.4s1.42,1.29,2.37,1.29,1.74-.36,2.3-1.08.84-1.66.84-2.82-.28-2.12-.85-2.84-1.32-1.08-2.26-1.08Z"/>
        <path class="cls-15" d="m272.49,95.18h-2.18v-14.45l-4.37,1.61v-1.97l6.21-2.33h.34v17.14Z"/>
        <path class="cls-15" d="m291.06,87.55h-11.74v-1.77h11.74v1.77Z"/>
        <path class="cls-15" d="m301.72,95.18h-2.18v-14.45l-4.37,1.61v-1.97l6.21-2.33h.34v17.14Z"/>
        <path class="cls-15" d="m316.38,87.68c-.45.54-.99.97-1.62,1.3s-1.32.49-2.07.49c-.98,0-1.84-.24-2.57-.73s-1.29-1.17-1.69-2.04-.6-1.85-.6-2.91c0-1.14.22-2.17.65-3.08s1.05-1.61,1.85-2.1,1.73-.73,2.79-.73c1.69,0,3.02.63,3.99,1.89s1.46,2.98,1.46,5.16v.63c0,3.32-.66,5.74-1.97,7.27s-3.29,2.31-5.94,2.35h-.42v-1.84h.46c1.79-.03,3.16-.5,4.12-1.4s1.48-2.33,1.57-4.27Zm-3.34,0c.73,0,1.4-.22,2.01-.67s1.06-1,1.34-1.65v-.87c0-1.42-.31-2.58-.93-3.47s-1.4-1.34-2.34-1.34-1.72.37-2.3,1.1-.87,1.69-.87,2.89.28,2.12.84,2.88,1.31,1.13,2.24,1.13Z"/>
        <path class="cls-15" d="m331.89,82.57c0,.85-.22,1.61-.67,2.27s-1.06,1.18-1.82,1.56c.89.38,1.6.94,2.12,1.68s.78,1.57.78,2.5c0,1.48-.5,2.65-1.49,3.53s-2.31,1.31-3.93,1.31-2.96-.44-3.94-1.32-1.48-2.05-1.48-3.52c0-.92.25-1.75.76-2.5s1.2-1.3,2.09-1.69c-.76-.38-1.36-.89-1.79-1.56s-.66-1.42-.66-2.26c0-1.44.46-2.58,1.38-3.42s2.14-1.27,3.64-1.27,2.71.42,3.64,1.27,1.39,1.98,1.39,3.42Zm-1.77,7.96c0-.95-.3-1.73-.91-2.33s-1.4-.9-2.37-.9-1.76.3-2.35.89-.88,1.38-.88,2.34.29,1.73.86,2.29,1.37.83,2.4.83,1.81-.28,2.39-.84.87-1.32.87-2.28Zm-3.26-10.86c-.85,0-1.54.26-2.07.79s-.79,1.24-.79,2.15.26,1.57.78,2.1,1.21.8,2.08.8,1.56-.27,2.08-.8.78-1.24.78-2.1-.27-1.57-.81-2.12-1.22-.82-2.05-.82Z"/>
        <path class="cls-15" d="m345.72,87.9c0,2.54-.43,4.43-1.3,5.66s-2.22,1.85-4.07,1.85-3.17-.6-4.04-1.81-1.33-3.01-1.36-5.41v-2.89c0-2.51.43-4.37,1.3-5.59s2.23-1.83,4.08-1.83,3.19.59,4.05,1.76,1.31,2.99,1.34,5.44v2.81Zm-2.17-2.96c0-1.84-.26-3.17-.77-4.01s-1.33-1.26-2.45-1.26-1.92.42-2.43,1.25-.77,2.12-.79,3.86v3.47c0,1.84.27,3.21.8,4.08s1.35,1.32,2.43,1.32,1.87-.41,2.38-1.24.79-2.13.81-3.91v-3.55Z"/>
      </g>
      <g>
        <path class="cls-14" d="m453.98,63.12c0,1.93-.44,3.48-1.32,4.66s-2.08,1.77-3.59,1.77-2.75-.49-3.63-1.46v6.11h-2.17v-17.55h1.98l.11,1.41c.88-1.09,2.11-1.64,3.68-1.64s2.73.57,3.62,1.72,1.33,2.75,1.33,4.79v.2Zm-2.17-.25c0-1.43-.3-2.56-.91-3.39s-1.45-1.24-2.51-1.24c-1.31,0-2.3.58-2.95,1.75v6.06c.65,1.16,1.64,1.73,2.98,1.73,1.04,0,1.87-.41,2.48-1.24s.92-2.05.92-3.67Z"/>
        <path class="cls-14" d="m462.87,58.58c-.33-.05-.68-.08-1.07-.08-1.42,0-2.39.61-2.89,1.82v9h-2.17v-12.68h2.11l.04,1.46c.71-1.13,1.72-1.7,3.02-1.7.42,0,.74.05.96.16v2.02Z"/>
        <path class="cls-14" d="m472.69,68.06c-.84.99-2.08,1.49-3.71,1.49-1.35,0-2.38-.39-3.09-1.18s-1.06-1.95-1.07-3.49v-8.25h2.17v8.19c0,1.92.78,2.88,2.34,2.88,1.66,0,2.76-.62,3.3-1.85v-9.22h2.17v12.68h-2.06l-.05-1.25Zm-.3-15.38c0,.68-.24,1.25-.73,1.71s-1.08.69-1.79.69-1.32-.23-1.8-.69-.72-1.03-.72-1.7.24-1.25.72-1.72,1.08-.71,1.8-.71,1.32.24,1.8.71.72,1.05.72,1.72Zm-3.88,0c0,.37.13.68.39.95s.58.4.97.4.7-.13.96-.39.4-.58.4-.96-.13-.71-.39-.98-.58-.4-.97-.4-.71.14-.97.41-.39.6-.39.97Z"/>
        <path class="cls-14" d="m480.13,56.64l.06,1.41c.93-1.09,2.18-1.64,3.76-1.64,1.77,0,2.98.68,3.62,2.04.42-.61.97-1.1,1.65-1.48s1.47-.56,2.4-.56c2.78,0,4.2,1.47,4.24,4.42v8.5h-2.17v-8.37c0-.91-.21-1.58-.62-2.03s-1.11-.67-2.09-.67c-.8,0-1.47.24-2,.72s-.84,1.13-.93,1.94v8.41h-2.18v-8.31c0-1.84-.9-2.77-2.71-2.77-1.42,0-2.39.61-2.92,1.82v9.26h-2.17v-12.68h2.05Z"/>
        <path class="cls-14" d="m504.39,69.55c-1.72,0-3.12-.56-4.2-1.69s-1.62-2.64-1.62-4.53v-.4c0-1.26.24-2.38.72-3.37s1.15-1.76,2.02-2.32,1.8-.84,2.81-.84c1.65,0,2.93.54,3.84,1.63s1.37,2.64,1.37,4.66v.9h-8.59c.03,1.25.4,2.26,1.1,3.03s1.59,1.15,2.67,1.15c.77,0,1.41-.16,1.95-.47s1-.73,1.39-1.24l1.32,1.03c-1.06,1.63-2.66,2.45-4.78,2.45Zm-.29-16.24l1.76-1.99h1.88v.12l-2.98,3.21h-1.32l-2.94-3.21v-.12h1.84l1.77,1.99Zm.02,4.88c-.88,0-1.61.32-2.2.96s-.96,1.53-1.1,2.68h6.35v-.16c-.06-1.1-.36-1.96-.89-2.56s-1.25-.91-2.16-.91Z"/>
        <path class="cls-14" d="m517.97,58.58c-.33-.05-.68-.08-1.07-.08-1.42,0-2.39.61-2.89,1.82v9h-2.17v-12.68h2.11l.04,1.46c.71-1.13,1.72-1.7,3.02-1.7.42,0,.74.05.96.16v2.02Z"/>
        <path class="cls-14" d="m522.01,56.64l.07,1.59c.97-1.22,2.23-1.83,3.8-1.83,2.68,0,4.03,1.51,4.05,4.54v8.38h-2.17v-8.39c0-.91-.22-1.59-.63-2.03s-1.05-.66-1.92-.66c-.7,0-1.32.19-1.85.56s-.95.87-1.24,1.48v9.04h-2.17v-12.68h2.05Z"/>
        <path class="cls-14" d="m541.03,69.32c-.12-.25-.23-.7-.3-1.34-1.01,1.05-2.21,1.57-3.61,1.57-1.25,0-2.28-.35-3.08-1.06s-1.2-1.6-1.2-2.69c0-1.32.5-2.35,1.51-3.08s2.42-1.1,4.24-1.1h2.11v-1c0-.76-.23-1.36-.68-1.81s-1.12-.67-2-.67c-.77,0-1.42.2-1.95.59s-.79.86-.79,1.42h-2.18c0-.63.22-1.24.67-1.83s1.06-1.06,1.83-1.4,1.62-.52,2.54-.52c1.46,0,2.61.37,3.43,1.1s1.26,1.74,1.29,3.02v5.84c0,1.16.15,2.09.45,2.78v.19h-2.27Zm-3.6-1.65c.68,0,1.32-.18,1.93-.53s1.05-.81,1.32-1.37v-2.6h-1.7c-2.66,0-3.98.78-3.98,2.33,0,.68.23,1.21.68,1.59s1.04.57,1.75.57Zm2-16.35h2.62l-3.14,3.45h-1.75s2.26-3.45,2.26-3.45Z"/>
        <path class="cls-14" d="m558.33,58.58c-.33-.05-.68-.08-1.07-.08-1.42,0-2.39.61-2.89,1.82v9h-2.17v-12.68h2.11l.04,1.46c.71-1.13,1.72-1.7,3.02-1.7.42,0,.74.05.96.16v2.02Z"/>
        <path class="cls-14" d="m559.51,62.86c0-1.24.24-2.36.73-3.35s1.17-1.76,2.04-2.3,1.87-.81,2.98-.81c1.73,0,3.12.6,4.19,1.79s1.6,2.79,1.6,4.77v.15c0,1.23-.24,2.34-.71,3.32s-1.15,1.74-2.03,2.29-1.89.82-3.03.82c-1.72,0-3.11-.6-4.18-1.79s-1.6-2.78-1.6-4.75v-.15Zm2.18.26c0,1.41.33,2.54.98,3.39s1.53,1.28,2.62,1.28,1.98-.43,2.62-1.29.97-2.07.97-3.63c0-1.39-.33-2.52-.99-3.38s-1.54-1.29-2.63-1.29-1.93.43-2.59,1.28-.98,2.07-.98,3.66Z"/>
        <path class="cls-14" d="m578.86,67.78c.77,0,1.45-.23,2.03-.7s.9-1.05.96-1.76h2.05c-.04.73-.29,1.42-.75,2.07s-1.08,1.18-1.85,1.57-1.58.59-2.44.59c-1.73,0-3.1-.58-4.12-1.73s-1.53-2.73-1.53-4.73v-.36c0-1.23.23-2.33.68-3.29s1.1-1.71,1.95-2.24,1.85-.8,3.01-.8c1.42,0,2.6.43,3.54,1.28s1.44,1.96,1.51,3.32h-2.05c-.06-.82-.37-1.49-.93-2.02s-1.25-.79-2.07-.79c-1.1,0-1.96.4-2.56,1.19s-.91,1.94-.91,3.44v.41c0,1.46.3,2.59.9,3.38s1.46,1.18,2.58,1.18Zm-.5-14.47l1.76-1.99h1.88v.12l-2.98,3.21h-1.32l-2.94-3.21v-.12h1.84l1.77,1.99Z"/>
        <path class="cls-14" d="m588.39,56.64l.07,1.59c.97-1.22,2.23-1.83,3.8-1.83,2.68,0,4.03,1.51,4.05,4.54v8.38h-2.17v-8.39c0-.91-.22-1.59-.63-2.03s-1.05-.66-1.92-.66c-.7,0-1.32.19-1.85.56s-.95.87-1.24,1.48v9.04h-2.17v-12.68h2.05Z"/>
        <path class="cls-14" d="m601.96,51.33h2.62l-3.14,3.45h-1.75s2.26-3.45,2.26-3.45Zm-.02,17.99h-2.18v-12.68h2.18v12.68Z"/>
        <path class="cls-14" d="m446.21,79.57v3.07h2.37v1.68h-2.37v7.87c0,.51.11.89.32,1.14.21.25.57.38,1.08.38.25,0,.59-.05,1.03-.14v1.75c-.57.15-1.12.23-1.66.23-.97,0-1.7-.29-2.19-.88s-.74-1.42-.74-2.5v-7.86h-2.31v-1.68h2.31v-3.07h2.17Z"/>
        <path class="cls-14" d="m456.37,95.55c-1.72,0-3.12-.56-4.2-1.69s-1.62-2.64-1.62-4.53v-.4c0-1.26.24-2.38.72-3.37s1.15-1.76,2.02-2.32,1.8-.84,2.81-.84c1.65,0,2.93.54,3.84,1.63s1.37,2.64,1.37,4.66v.9h-8.59c.03,1.25.4,2.26,1.1,3.03s1.59,1.15,2.67,1.15c.77,0,1.41-.16,1.95-.47s1-.73,1.39-1.24l1.32,1.03c-1.06,1.63-2.66,2.45-4.78,2.45Zm-.27-11.37c-.88,0-1.61.32-2.2.96s-.96,1.53-1.1,2.68h6.35v-.16c-.06-1.1-.36-1.96-.89-2.56s-1.25-.91-2.16-.91Z"/>
        <path class="cls-14" d="m474.54,89.12c0,1.93-.44,3.48-1.32,4.66s-2.08,1.77-3.59,1.77-2.75-.49-3.63-1.46v6.11h-2.17v-17.55h1.98l.11,1.41c.88-1.09,2.11-1.64,3.68-1.64s2.73.57,3.62,1.72,1.33,2.75,1.33,4.79v.2Zm-2.17-.25c0-1.43-.3-2.56-.91-3.39s-1.45-1.24-2.51-1.24c-1.31,0-2.3.58-2.95,1.75v6.06c.65,1.16,1.64,1.73,2.98,1.73,1.04,0,1.87-.41,2.48-1.24s.92-2.05.92-3.67Z"/>
        <path class="cls-14" d="m479.65,95.32h-2.17v-18h2.17v18Z"/>
        <path class="cls-14" d="m482.54,88.86c0-1.24.24-2.36.73-3.35s1.17-1.76,2.04-2.3,1.87-.81,2.98-.81c1.73,0,3.12.6,4.19,1.79s1.6,2.79,1.6,4.77v.15c0,1.23-.24,2.34-.71,3.32s-1.15,1.74-2.03,2.29-1.89.82-3.03.82c-1.72,0-3.11-.6-4.18-1.79s-1.6-2.78-1.6-4.75v-.15Zm2.18.26c0,1.41.33,2.54.98,3.39s1.53,1.28,2.62,1.28,1.98-.43,2.62-1.29.97-2.07.97-3.63c0-1.39-.33-2.52-.99-3.38s-1.54-1.29-2.63-1.29-1.93.43-2.59,1.28-.98,2.07-.98,3.66Z"/>
        <path class="cls-14" d="m499.74,79.57v3.07h2.37v1.68h-2.37v7.87c0,.51.11.89.32,1.14.21.25.57.38,1.08.38.25,0,.59-.05,1.03-.14v1.75c-.57.15-1.12.23-1.66.23-.97,0-1.7-.29-2.19-.88s-.74-1.42-.74-2.5v-7.86h-2.31v-1.68h2.31v-3.07h2.17Z"/>
        <path class="cls-14" d="m512.47,95.32c-.12-.25-.23-.7-.3-1.34-1.01,1.05-2.21,1.57-3.61,1.57-1.25,0-2.28-.35-3.08-1.06s-1.2-1.6-1.2-2.69c0-1.32.5-2.35,1.51-3.08s2.42-1.1,4.24-1.1h2.11v-1c0-.76-.23-1.36-.68-1.81s-1.12-.67-2-.67c-.77,0-1.42.2-1.95.59s-.79.86-.79,1.42h-2.18c0-.63.22-1.24.67-1.83s1.06-1.06,1.83-1.4,1.62-.52,2.54-.52c1.46,0,2.61.37,3.43,1.1s1.26,1.74,1.29,3.02v5.84c0,1.16.15,2.09.45,2.78v.19h-2.27Zm-3.6-1.65c.68,0,1.32-.18,1.93-.53s1.05-.81,1.32-1.37v-2.6h-1.7c-2.66,0-3.98.78-3.98,2.33,0,.68.23,1.21.68,1.59s1.04.57,1.75.57Z"/>
        <path class="cls-14" d="m534.6,95.32h-11.18v-1.56l5.91-6.56c.88-.99,1.48-1.8,1.81-2.42s.5-1.26.5-1.93c0-.89-.27-1.62-.81-2.19s-1.26-.86-2.16-.86c-1.08,0-1.92.31-2.51.92s-.9,1.47-.9,2.56h-2.17c0-1.57.51-2.84,1.52-3.81s2.37-1.45,4.06-1.45c1.59,0,2.84.42,3.76,1.25s1.38,1.94,1.38,3.32c0,1.68-1.07,3.68-3.21,6l-4.57,4.96h8.57v1.77Z"/>
        <path class="cls-14" d="m547.59,88.04c0,2.54-.43,4.43-1.3,5.66s-2.22,1.85-4.07,1.85-3.17-.6-4.04-1.81-1.33-3.01-1.36-5.41v-2.89c0-2.51.43-4.37,1.3-5.59s2.23-1.83,4.08-1.83,3.19.59,4.05,1.76,1.31,2.99,1.34,5.44v2.81Zm-2.17-2.96c0-1.84-.26-3.17-.77-4.01s-1.33-1.26-2.45-1.26-1.92.42-2.43,1.25-.77,2.12-.79,3.86v3.47c0,1.84.27,3.21.8,4.08s1.35,1.32,2.43,1.32,1.87-.41,2.38-1.24.79-2.13.81-3.91v-3.55Z"/>
        <path class="cls-14" d="m561.07,88.04c0,2.54-.43,4.43-1.3,5.66s-2.22,1.85-4.07,1.85-3.17-.6-4.04-1.81-1.33-3.01-1.36-5.41v-2.89c0-2.51.43-4.37,1.3-5.59s2.23-1.83,4.08-1.83,3.19.59,4.05,1.76,1.31,2.99,1.34,5.44v2.81Zm-2.17-2.96c0-1.84-.26-3.17-.77-4.01s-1.33-1.26-2.45-1.26-1.92.42-2.43,1.25-.77,2.12-.79,3.86v3.47c0,1.84.27,3.21.8,4.08s1.35,1.32,2.43,1.32,1.87-.41,2.38-1.24.79-2.13.81-3.91v-3.55Z"/>
        <path class="cls-14" d="m574.55,88.04c0,2.54-.43,4.43-1.3,5.66s-2.22,1.85-4.07,1.85-3.17-.6-4.04-1.81-1.33-3.01-1.36-5.41v-2.89c0-2.51.43-4.37,1.3-5.59s2.23-1.83,4.08-1.83,3.19.59,4.05,1.76,1.31,2.99,1.34,5.44v2.81Zm-2.17-2.96c0-1.84-.26-3.17-.77-4.01s-1.33-1.26-2.45-1.26-1.92.42-2.43,1.25-.77,2.12-.79,3.86v3.47c0,1.84.27,3.21.8,4.08s1.35,1.32,2.43,1.32,1.87-.41,2.38-1.24.79-2.13.81-3.91v-3.55Z"/>
        <path class="cls-14" d="m589.54,87.69h-11.74v-1.77h11.74v1.77Z"/>
        <path class="cls-14" d="m604.25,95.32h-11.18v-1.56l5.91-6.56c.88-.99,1.48-1.8,1.81-2.42s.5-1.26.5-1.93c0-.89-.27-1.62-.81-2.19s-1.26-.86-2.16-.86c-1.08,0-1.92.31-2.51.92s-.9,1.47-.9,2.56h-2.17c0-1.57.51-2.84,1.52-3.81s2.37-1.45,4.06-1.45c1.59,0,2.84.42,3.76,1.25s1.38,1.94,1.38,3.32c0,1.68-1.07,3.68-3.21,6l-4.57,4.96h8.57v1.77Z"/>
        <path class="cls-14" d="m617.25,88.04c0,2.54-.43,4.43-1.3,5.66s-2.22,1.85-4.07,1.85-3.17-.6-4.04-1.81-1.33-3.01-1.36-5.41v-2.89c0-2.51.43-4.37,1.3-5.59s2.23-1.83,4.08-1.83,3.19.59,4.05,1.76,1.31,2.99,1.34,5.44v2.81Zm-2.17-2.96c0-1.84-.26-3.17-.77-4.01s-1.33-1.26-2.45-1.26-1.92.42-2.43,1.25-.77,2.12-.79,3.86v3.47c0,1.84.27,3.21.8,4.08s1.35,1.32,2.43,1.32,1.87-.41,2.38-1.24.79-2.13.81-3.91v-3.55Z"/>
        <path class="cls-14" d="m631.21,95.32h-11.18v-1.56l5.91-6.56c.88-.99,1.48-1.8,1.81-2.42s.5-1.26.5-1.93c0-.89-.27-1.62-.81-2.19s-1.26-.86-2.16-.86c-1.08,0-1.92.31-2.51.92s-.9,1.47-.9,2.56h-2.17c0-1.57.51-2.84,1.52-3.81s2.37-1.45,4.06-1.45c1.59,0,2.84.42,3.76,1.25s1.38,1.94,1.38,3.32c0,1.68-1.07,3.68-3.21,6l-4.57,4.96h8.57v1.77Z"/>
        <path class="cls-14" d="m644.2,88.04c0,2.54-.43,4.43-1.3,5.66s-2.22,1.85-4.07,1.85-3.17-.6-4.04-1.81-1.33-3.01-1.36-5.41v-2.89c0-2.51.43-4.37,1.3-5.59s2.23-1.83,4.08-1.83,3.19.59,4.05,1.76,1.31,2.99,1.34,5.44v2.81Zm-2.17-2.96c0-1.84-.26-3.17-.77-4.01s-1.33-1.26-2.45-1.26-1.92.42-2.43,1.25-.77,2.12-.79,3.86v3.47c0,1.84.27,3.21.8,4.08s1.35,1.32,2.43,1.32,1.87-.41,2.38-1.24.79-2.13.81-3.91v-3.55Z"/>
      </g>
      <g>
        <path class="cls-10" d="m375.72,18.51h4.23v3.06h-4.23v4.78h-3.22v-4.78h-4.24v-3.06h4.24v-4.58h3.22v4.58Z"/>
        <path class="cls-10" d="m393.54,28.06h-11.7v-2.32l5.52-5.88c.76-.83,1.32-1.55,1.68-2.17s.54-1.2.54-1.76c0-.76-.19-1.35-.57-1.79s-.93-.65-1.64-.65c-.77,0-1.37.26-1.81.79s-.66,1.22-.66,2.08h-3.4c0-1.04.25-1.99.74-2.85s1.2-1.53,2.1-2.02,1.93-.73,3.08-.73c1.76,0,3.12.42,4.1,1.27s1.46,2.04,1.46,3.57c0,.84-.22,1.7-.66,2.58s-1.19,1.89-2.25,3.06l-3.88,4.09h7.34v2.73Z"/>
        <path class="cls-10" d="m399.51,14c0-.89.32-1.65.95-2.29s1.38-.95,2.24-.95,1.59.31,2.21.94.93,1.39.93,2.29-.31,1.65-.93,2.27-1.36.92-2.21.92-1.59-.31-2.23-.92-.96-1.37-.96-2.27Zm3.19,1.45c.41,0,.76-.14,1.03-.42s.4-.62.4-1.04-.13-.76-.4-1.05-.61-.45-1.03-.45-.76.15-1.04.45-.42.65-.42,1.05.14.75.43,1.03.63.42,1.04.42Z"/>
        <path class="cls-10" d="m422.27,22.38c-.13,1.84-.81,3.28-2.03,4.34s-2.83,1.58-4.83,1.58c-2.19,0-3.91-.74-5.16-2.21s-1.88-3.49-1.88-6.06v-1.04c0-1.64.29-3.09.87-4.34s1.4-2.21,2.48-2.88,2.32-1,3.74-1c1.97,0,3.55.53,4.76,1.58s1.9,2.54,2.09,4.44h-3.52c-.09-1.1-.39-1.9-.92-2.4s-1.33-.74-2.41-.74c-1.17,0-2.05.42-2.63,1.26s-.88,2.14-.9,3.91v1.29c0,1.84.28,3.19.84,4.04s1.44,1.28,2.64,1.28c1.09,0,1.9-.25,2.43-.74s.84-1.26.92-2.3h3.52Z"/>
      </g>
      <line class="cls-1" x1="413.83" y1="295.03" x2="413.83" y2="71.05"/>
      <circle cx="413.83" cy="71.05" r="6"/>
      <line class="cls-7" x1="378.24" y1="295.03" x2="378.24" y2="71.05"/>
      <circle class="cls-12" cx="378.24" cy="71.05" r="6"/>
      <g>
        <path class="cls-4" d="m380.74,50.17c6.42-10.53,23.72-9.82,30.19-.49"/>
        <polygon class="cls-14" points="400.08 50.25 400.3 48.26 410.1 49.34 410.46 39.48 412.46 39.55 412.02 51.56 400.08 50.25"/>
      </g>
    </g>
  </g>
</svg>