<?xml version="1.0" encoding="UTF-8"?>
<svg id="Layer_7" data-name="Layer 7" xmlns="http://www.w3.org/2000/svg" viewBox="0 0 660 280">
  <defs>
    <style>
      .cls-1 {
        fill: rgba(62, 77, 89, .1);
      }

      .cls-1, .cls-2 {
        stroke: #3e4d59;
      }

      .cls-1, .cls-3, .cls-4 {
        stroke-linejoin: round;
      }

      .cls-5 {
        stroke: #1a1a1a;
      }

      .cls-5, .cls-2 {
        fill: #f2f2f2;
        stroke-width: 1.25px;
      }

      .cls-5, .cls-2, .cls-6, .cls-7 {
        stroke-miterlimit: 10;
      }

      .cls-8 {
        fill: #fff;
      }

      .cls-9 {
        fill: #f0f;
      }

      .cls-10 {
        fill: #3e4d59;
      }

      .cls-11 {
        fill: #606060;
      }

      .cls-6 {
        stroke: #606060;
      }

      .cls-6, .cls-7 {
        stroke-linecap: round;
      }

      .cls-6, .cls-7, .cls-3, .cls-4 {
        fill: none;
      }

      .cls-7 {
        stroke: #fff;
        stroke-dasharray: 0 0 4 6;
        stroke-width: 1.5px;
      }

      .cls-3 {
        stroke: #939598;
      }

      .cls-3, .cls-4 {
        stroke-width: .25px;
      }

      .cls-4 {
        stroke: #231f20;
      }
    </style>
  </defs>
  <rect class="cls-8" x="0" width="660" height="284.29"/>
  <rect class="cls-2" x="289.14" y="35.21" width="178.4" height="209.3"/>
  <g>
    <g>
      <path class="cls-11" d="m182.81,267.54h-7.34v-1.33h7.34v1.33Z"/>
      <path class="cls-11" d="m190.69,273.26h-1.63v-10.84l-3.28,1.2v-1.48l4.66-1.75h.25v12.86Z"/>
      <path class="cls-11" d="m203.48,267.8c0,1.9-.33,3.32-.98,4.25s-1.67,1.39-3.05,1.39-2.38-.45-3.03-1.36c-.66-.91-1-2.26-1.02-4.06v-2.17c0-1.88.33-3.28.98-4.19s1.67-1.37,3.06-1.37,2.39.44,3.04,1.32c.65.88.98,2.24,1,4.08v2.11Zm-1.63-2.22c0-1.38-.19-2.38-.58-3.01s-1-.95-1.84-.95-1.44.31-1.82.94-.58,1.59-.59,2.89v2.6c0,1.38.2,2.4.6,3.06.4.66,1.01.99,1.82.99s1.4-.31,1.79-.93.59-1.6.61-2.94v-2.66Z"/>
      <path class="cls-11" d="m208.29,262.57c0-.61.22-1.14.65-1.6s.97-.69,1.59-.69,1.13.23,1.56.68.65.99.65,1.6-.22,1.15-.65,1.59-.95.66-1.56.66-1.14-.22-1.58-.66-.66-.97-.66-1.59Zm2.24,1.12c.32,0,.58-.1.8-.31s.33-.48.33-.81-.11-.62-.33-.84-.48-.33-.8-.33-.59.12-.81.35-.33.5-.33.82.11.58.33.8.49.32.81.32Z"/>
      <path class="cls-11" d="m224.77,269.2c-.16,1.35-.66,2.4-1.5,3.13-.84.74-1.96,1.1-3.35,1.1-1.51,0-2.72-.54-3.63-1.63s-1.37-2.53-1.37-4.35v-1.23c0-1.19.21-2.24.64-3.14s1.03-1.59,1.81-2.08c.78-.48,1.68-.72,2.71-.72,1.36,0,2.45.38,3.27,1.14s1.3,1.81,1.43,3.15h-1.7c-.15-1.02-.46-1.76-.95-2.22-.49-.46-1.17-.69-2.05-.69-1.08,0-1.92.4-2.54,1.2s-.92,1.93-.92,3.4v1.24c0,1.39.29,2.5.87,3.32s1.39,1.23,2.43,1.23c.94,0,1.66-.21,2.16-.64.5-.42.83-1.16,1-2.22h1.7Z"/>
    </g>
    <g>
      <path class="cls-11" d="m94.07,267.54h-7.34v-1.33h7.34v1.33Z"/>
      <path class="cls-11" d="m101.95,273.26h-1.63v-10.84l-3.28,1.2v-1.48l4.66-1.75h.25v12.86Z"/>
      <path class="cls-11" d="m107.46,266.84l.65-6.38h6.56v1.5h-5.18l-.39,3.49c.63-.37,1.34-.55,2.14-.55,1.17,0,2.09.39,2.78,1.16.69.77,1.03,1.81,1.03,3.12s-.36,2.36-1.07,3.12c-.71.76-1.71,1.14-2.98,1.14-1.13,0-2.05-.31-2.77-.94s-1.12-1.49-1.22-2.6h1.54c.1.73.36,1.29.78,1.66s.98.56,1.67.56c.76,0,1.35-.26,1.78-.77s.65-1.23.65-2.14c0-.86-.23-1.54-.7-2.06-.47-.52-1.09-.78-1.86-.78-.71,0-1.27.16-1.67.47l-.43.35-1.3-.33Z"/>
      <path class="cls-11" d="m119.56,262.57c0-.61.22-1.14.65-1.6s.97-.69,1.59-.69,1.13.23,1.56.68.65.99.65,1.6-.22,1.15-.65,1.59-.95.66-1.56.66-1.14-.22-1.58-.66-.66-.97-.66-1.59Zm2.24,1.12c.32,0,.58-.1.8-.31s.33-.48.33-.81-.11-.62-.33-.84-.48-.33-.8-.33-.59.12-.81.35-.33.5-.33.82.11.58.33.8.49.32.81.32Z"/>
      <path class="cls-11" d="m136.03,269.2c-.16,1.35-.66,2.4-1.5,3.13-.84.74-1.96,1.1-3.35,1.1-1.51,0-2.72-.54-3.63-1.63s-1.37-2.53-1.37-4.35v-1.23c0-1.19.21-2.24.64-3.14s1.03-1.59,1.81-2.08c.78-.48,1.68-.72,2.71-.72,1.36,0,2.45.38,3.27,1.14s1.3,1.81,1.43,3.15h-1.7c-.15-1.02-.46-1.76-.95-2.22-.49-.46-1.17-.69-2.05-.69-1.08,0-1.92.4-2.54,1.2s-.92,1.93-.92,3.4v1.24c0,1.39.29,2.5.87,3.32s1.39,1.23,2.43,1.23c.94,0,1.66-.21,2.16-.64.5-.42.83-1.16,1-2.22h1.7Z"/>
    </g>
    <g>
      <path class="cls-11" d="m276.52,268.02h-7.58v-2.07h7.58v2.07Z"/>
      <path class="cls-11" d="m278.89,266.97l.74-6.5h7.17v2.12h-5.09l-.32,2.75c.6-.32,1.25-.48,1.92-.48,1.22,0,2.17.38,2.87,1.13s1.04,1.81,1.04,3.17c0,.83-.17,1.57-.52,2.22s-.85,1.16-1.5,1.52c-.65.36-1.42.54-2.3.54-.77,0-1.49-.16-2.15-.47-.66-.31-1.19-.75-1.57-1.32s-.59-1.22-.61-1.94h2.51c.05.53.24.95.56,1.24.32.3.74.44,1.25.44.57,0,1.02-.21,1.33-.62.31-.41.47-1,.47-1.75s-.18-1.28-.54-1.67-.86-.58-1.52-.58c-.6,0-1.09.16-1.47.47l-.25.23-2.02-.5Z"/>
      <path class="cls-11" d="m291.76,262.71c0-.67.24-1.24.71-1.71s1.03-.71,1.68-.71,1.19.24,1.66.71c.47.47.7,1.04.7,1.72s-.23,1.24-.7,1.7-1.02.69-1.66.69-1.19-.23-1.67-.69-.72-1.03-.72-1.7Zm2.39,1.09c.31,0,.57-.1.77-.31.2-.21.3-.47.3-.78s-.1-.57-.3-.79-.46-.33-.77-.33-.57.11-.78.33-.32.49-.32.79.11.56.32.77.47.32.78.32Z"/>
      <path class="cls-11" d="m308.83,269c-.1,1.38-.61,2.46-1.53,3.25s-2.12,1.19-3.62,1.19c-1.64,0-2.93-.55-3.87-1.66s-1.41-2.62-1.41-4.55v-.78c0-1.23.22-2.31.65-3.25s1.05-1.66,1.86-2.16c.81-.5,1.74-.75,2.81-.75,1.48,0,2.67.4,3.57,1.19s1.42,1.9,1.56,3.33h-2.64c-.06-.83-.29-1.42-.69-1.8s-1-.56-1.81-.56c-.88,0-1.54.32-1.97.95s-.66,1.61-.67,2.93v.97c0,1.38.21,2.39.63,3.03s1.08.96,1.98.96c.81,0,1.42-.19,1.82-.56s.63-.95.69-1.73h2.64Z"/>
    </g>
    <g>
      <path class="cls-11" d="m452.71,266.1h3.17v2.29h-3.17v3.59h-2.42v-3.59h-3.18v-2.29h3.18v-3.44h2.42v3.44Z"/>
      <path class="cls-11" d="m457.69,266.97l.74-6.5h7.17v2.12h-5.09l-.32,2.75c.6-.32,1.25-.48,1.92-.48,1.22,0,2.17.38,2.87,1.13s1.04,1.81,1.04,3.17c0,.83-.17,1.57-.52,2.22s-.85,1.16-1.5,1.52c-.65.36-1.42.54-2.3.54-.77,0-1.49-.16-2.15-.47-.66-.31-1.19-.75-1.57-1.32s-.59-1.22-.61-1.94h2.51c.05.53.24.95.56,1.24.32.3.74.44,1.25.44.57,0,1.02-.21,1.33-.62.31-.41.47-1,.47-1.75s-.18-1.28-.54-1.67-.86-.58-1.52-.58c-.6,0-1.09.16-1.47.47l-.25.23-2.02-.5Z"/>
      <path class="cls-11" d="m470.56,262.71c0-.67.24-1.24.71-1.71s1.03-.71,1.68-.71,1.19.24,1.66.71c.47.47.7,1.04.7,1.72s-.23,1.24-.7,1.7-1.02.69-1.66.69-1.19-.23-1.67-.69-.72-1.03-.72-1.7Zm2.39,1.09c.31,0,.57-.1.77-.31.2-.21.3-.47.3-.78s-.1-.57-.3-.79-.46-.33-.77-.33-.57.11-.78.33-.32.49-.32.79.11.56.32.77.47.32.78.32Z"/>
      <path class="cls-11" d="m487.62,269c-.1,1.38-.61,2.46-1.53,3.25s-2.12,1.19-3.62,1.19c-1.64,0-2.93-.55-3.87-1.66s-1.41-2.62-1.41-4.55v-.78c0-1.23.22-2.31.65-3.25s1.05-1.66,1.86-2.16c.81-.5,1.74-.75,2.81-.75,1.48,0,2.67.4,3.57,1.19s1.42,1.9,1.56,3.33h-2.64c-.06-.83-.29-1.42-.69-1.8s-1-.56-1.81-.56c-.88,0-1.54.32-1.97.95s-.66,1.61-.67,2.93v.97c0,1.38.21,2.39.63,3.03s1.08.96,1.98.96c.81,0,1.42-.19,1.82-.56s.63-.95.69-1.73h2.64Z"/>
    </g>
    <g>
      <path class="cls-11" d="m536.8,266.39h3.57v1.54h-3.57v4.04h-1.63v-4.04h-3.57v-1.54h3.57v-3.74h1.63v3.74Z"/>
      <path class="cls-11" d="m547.52,273.26h-1.63v-10.84l-3.28,1.2v-1.48l4.66-1.75h.25v12.86Z"/>
      <path class="cls-11" d="m560.31,267.8c0,1.9-.33,3.32-.98,4.25s-1.67,1.39-3.05,1.39-2.38-.45-3.03-1.36c-.66-.91-1-2.26-1.02-4.06v-2.17c0-1.88.33-3.28.98-4.19s1.67-1.37,3.06-1.37,2.39.44,3.04,1.32c.65.88.98,2.24,1,4.08v2.11Zm-1.63-2.22c0-1.38-.19-2.38-.58-3.01s-1-.95-1.84-.95-1.44.31-1.82.94-.58,1.59-.59,2.89v2.6c0,1.38.2,2.4.6,3.06.4.66,1.01.99,1.82.99s1.4-.31,1.79-.93.59-1.6.61-2.94v-2.66Z"/>
      <path class="cls-11" d="m565.13,262.57c0-.61.22-1.14.65-1.6s.97-.69,1.59-.69,1.13.23,1.56.68.65.99.65,1.6-.22,1.15-.65,1.59-.95.66-1.56.66-1.14-.22-1.58-.66-.66-.97-.66-1.59Zm2.24,1.12c.32,0,.58-.1.8-.31s.33-.48.33-.81-.11-.62-.33-.84-.48-.33-.8-.33-.59.12-.81.35-.33.5-.33.82.11.58.33.8.49.32.81.32Z"/>
      <path class="cls-11" d="m581.6,269.2c-.16,1.35-.66,2.4-1.5,3.13-.84.74-1.96,1.1-3.35,1.1-1.51,0-2.72-.54-3.63-1.63s-1.37-2.53-1.37-4.35v-1.23c0-1.19.21-2.24.64-3.14s1.03-1.59,1.81-2.08c.78-.48,1.68-.72,2.71-.72,1.36,0,2.45.38,3.27,1.14s1.3,1.81,1.43,3.15h-1.7c-.15-1.02-.46-1.76-.95-2.22-.49-.46-1.17-.69-2.05-.69-1.08,0-1.92.4-2.54,1.2s-.92,1.93-.92,3.4v1.24c0,1.39.29,2.5.87,3.32s1.39,1.23,2.43,1.23c.94,0,1.66-.21,2.16-.64.5-.42.83-1.16,1-2.22h1.7Z"/>
    </g>
    <g>
      <path class="cls-11" d="m613.56,266.39h3.57v1.54h-3.57v4.04h-1.63v-4.04h-3.57v-1.54h3.57v-3.74h1.63v3.74Z"/>
      <path class="cls-11" d="m624.28,273.26h-1.63v-10.84l-3.28,1.2v-1.48l4.66-1.75h.25v12.86Z"/>
      <path class="cls-11" d="m629.79,266.84l.65-6.38h6.56v1.5h-5.18l-.39,3.49c.63-.37,1.34-.55,2.14-.55,1.17,0,2.09.39,2.78,1.16.69.77,1.03,1.81,1.03,3.12s-.36,2.36-1.07,3.12c-.71.76-1.71,1.14-2.98,1.14-1.13,0-2.05-.31-2.77-.94s-1.12-1.49-1.22-2.6h1.54c.1.73.36,1.29.78,1.66s.98.56,1.67.56c.76,0,1.35-.26,1.78-.77s.65-1.23.65-2.14c0-.86-.23-1.54-.7-2.06-.47-.52-1.08-.78-1.86-.78-.71,0-1.27.16-1.67.47l-.43.35-1.3-.33Z"/>
      <path class="cls-11" d="m641.89,262.57c0-.61.22-1.14.65-1.6s.97-.69,1.59-.69,1.13.23,1.56.68.65.99.65,1.6-.22,1.15-.65,1.59-.95.66-1.56.66-1.14-.22-1.58-.66-.66-.97-.66-1.59Zm2.24,1.12c.32,0,.58-.1.8-.31s.33-.48.33-.81-.11-.62-.33-.84-.48-.33-.8-.33-.59.12-.81.35-.33.5-.33.82.11.58.33.8.49.32.81.32Z"/>
      <path class="cls-11" d="m658.37,269.2c-.16,1.35-.66,2.4-1.5,3.13-.84.74-1.96,1.1-3.35,1.1-1.51,0-2.72-.54-3.63-1.63s-1.37-2.53-1.37-4.35v-1.23c0-1.19.21-2.24.64-3.14s1.03-1.59,1.81-2.08c.78-.48,1.68-.72,2.71-.72,1.36,0,2.45.38,3.27,1.14s1.3,1.81,1.43,3.15h-1.7c-.15-1.02-.46-1.76-.95-2.22-.49-.46-1.17-.69-2.05-.69-1.08,0-1.92.4-2.54,1.2s-.92,1.93-.92,3.4v1.24c0,1.39.29,2.5.87,3.32s1.39,1.23,2.43,1.23c.94,0,1.66-.21,2.16-.64.5-.42.83-1.16,1-2.22h1.7Z"/>
    </g>
  </g>
  <g>
    <line class="cls-6" x1="111.05" y1="250.49" x2="111.05" y2="254.49"/>
    <line class="cls-6" x1="200.18" y1="250.49" x2="200.18" y2="254.49"/>
    <line class="cls-6" x1="289.3" y1="250.49" x2="289.3" y2="254.49"/>
    <line class="cls-6" x1="378.42" y1="250.49" x2="378.42" y2="254.49"/>
    <line class="cls-6" x1="467.54" y1="250.49" x2="467.54" y2="254.49"/>
    <line class="cls-6" x1="556.66" y1="250.49" x2="556.66" y2="254.49"/>
    <line class="cls-6" x1="645.79" y1="250.49" x2="645.79" y2="254.49"/>
  </g>
  <circle class="cls-10" cx="378.42" cy="269.42" r="2.5"/>
  <line class="cls-5" x1="467.54" y1="44.38" x2="487.97" y2="44.38"/>
  <g>
    <path class="cls-9" d="m506.45,13.46c0,.83-.21,1.56-.62,2.2s-.98,1.15-1.71,1.54c.83.4,1.48.95,1.97,1.65s.73,1.52.73,2.47c0,1.52-.52,2.71-1.55,3.59s-2.43,1.32-4.21,1.32-3.18-.44-4.22-1.32-1.56-2.08-1.56-3.59c0-.95.24-1.77.73-2.47s1.14-1.25,1.96-1.64c-.73-.38-1.29-.89-1.71-1.54s-.62-1.38-.62-2.2c0-1.45.48-2.61,1.45-3.47s2.29-1.29,3.95-1.29,2.97.43,3.94,1.28,1.46,2.02,1.46,3.49Zm-3.04,7.61c0-.74-.21-1.34-.64-1.78s-1.01-.67-1.73-.67-1.29.22-1.72.66-.64,1.04-.64,1.79.21,1.31.63,1.76,1.01.67,1.76.67,1.31-.21,1.73-.64.63-1.02.63-1.78Zm-.35-7.44c0-.66-.18-1.2-.53-1.6s-.85-.6-1.49-.6-1.12.2-1.48.59-.53.93-.53,1.62.18,1.23.53,1.64.85.62,1.49.62,1.13-.21,1.48-.62.52-.96.52-1.64Z"/>
    <path class="cls-9" d="m520.58,18.93c0,2.36-.49,4.16-1.46,5.41s-2.41,1.88-4.29,1.88-3.28-.61-4.27-1.84-1.49-2.98-1.51-5.27v-3.14c0-2.38.49-4.19,1.48-5.43s2.41-1.85,4.27-1.85,3.28.61,4.27,1.83,1.49,2.98,1.51,5.27v3.14Zm-3.39-3.45c0-1.42-.19-2.45-.58-3.09s-.99-.97-1.81-.97-1.38.31-1.76.92-.58,1.57-.6,2.88v4.15c0,1.39.19,2.43.57,3.1s.99,1.01,1.82,1.01,1.43-.32,1.79-.97c.37-.65.56-1.64.57-2.98v-4.06Z"/>
    <path class="cls-9" d="m528.8,12.21c0-1.05.34-1.9,1.02-2.55s1.57-.98,2.67-.98,2.02.32,2.7.97,1.02,1.52,1.02,2.62v.84c0,1.05-.34,1.9-1.02,2.54s-1.57.96-2.67.96-2.01-.32-2.69-.97-1.03-1.51-1.03-2.61v-.83Zm2.25.9c0,.47.13.85.4,1.13s.62.43,1.06.43.79-.14,1.04-.43.39-.68.39-1.16v-.87c0-.47-.13-.85-.39-1.14s-.61-.43-1.07-.43c-.43,0-.78.14-1.04.43s-.4.68-.4,1.19v.86Zm2.13,11.6l-1.65-.89,8.33-13.34,1.65.89-8.33,13.34Zm3.77-2.91c0-1.05.34-1.9,1.03-2.55s1.58-.97,2.67-.97,2.01.32,2.69.96,1.03,1.51,1.03,2.63v.84c0,1.05-.34,1.89-1.01,2.54s-1.57.97-2.68.97-2.03-.32-2.71-.97-1.02-1.51-1.02-2.58v-.87Zm2.25.91c0,.43.14.8.42,1.1s.63.46,1.05.46c.95,0,1.43-.53,1.43-1.58v-.89c0-.47-.13-.85-.4-1.13s-.62-.43-1.05-.43-.79.14-1.05.43-.4.67-.4,1.17v.88Z"/>
    <path class="cls-10" d="m495.28,43.54c0-1.95.46-3.51,1.38-4.69s2.13-1.78,3.62-1.78,2.66.51,3.53,1.52v-6.61h2.17v18h-1.99l-.11-1.36c-.87,1.06-2.07,1.59-3.62,1.59s-2.67-.6-3.59-1.8-1.39-2.77-1.39-4.71v-.16Zm2.17.25c0,1.44.3,2.56.89,3.38s1.41,1.22,2.46,1.22c1.38,0,2.38-.62,3.01-1.85v-5.82c-.65-1.2-1.64-1.79-2.99-1.79-1.06,0-1.89.41-2.48,1.23s-.89,2.04-.89,3.64Z"/>
    <path class="cls-10" d="m511.39,37.31l.07,1.59c.97-1.22,2.23-1.83,3.8-1.83,2.68,0,4.03,1.51,4.05,4.54v8.38h-2.17v-8.39c0-.91-.22-1.59-.63-2.03s-1.05-.66-1.92-.66c-.7,0-1.32.19-1.85.56s-.95.87-1.24,1.48v9.04h-2.17v-12.68h2.05Z"/>
    <path class="cls-10" d="m524.96,32h2.62l-3.14,3.45h-1.75s2.26-3.45,2.26-3.45Zm-.02,17.99h-2.18v-12.68h2.18v12.68Z"/>
    <path class="cls-10" d="m538.64,47.05l3.14-9.74h2.21l-4.55,12.68h-1.65l-4.59-12.68h2.21l3.22,9.74Z"/>
    <path class="cls-10" d="m558.15,39.25c-.33-.05-.68-.08-1.07-.08-1.42,0-2.39.61-2.89,1.82v9h-2.17v-12.68h2.11l.04,1.46c.71-1.13,1.72-1.7,3.02-1.7.42,0,.74.05.96.16v2.02Z"/>
    <path class="cls-10" d="m559.34,43.53c0-1.24.24-2.36.73-3.35s1.17-1.76,2.04-2.3,1.87-.81,2.98-.81c1.73,0,3.12.6,4.19,1.79s1.6,2.79,1.6,4.77v.15c0,1.23-.24,2.34-.71,3.32s-1.15,1.74-2.03,2.29-1.89.82-3.03.82c-1.72,0-3.11-.6-4.18-1.79s-1.6-2.78-1.6-4.75v-.15Zm2.18.26c0,1.41.33,2.54.98,3.39s1.53,1.28,2.62,1.28,1.98-.43,2.62-1.29.97-2.07.97-3.63c0-1.39-.33-2.52-.99-3.38s-1.54-1.29-2.63-1.29-1.93.43-2.59,1.28-.98,2.07-.98,3.66Z"/>
    <path class="cls-10" d="m578.68,48.45c.77,0,1.45-.23,2.03-.7s.9-1.05.96-1.76h2.05c-.04.73-.29,1.42-.75,2.07s-1.08,1.18-1.85,1.57-1.58.59-2.44.59c-1.73,0-3.1-.58-4.12-1.73s-1.53-2.73-1.53-4.73v-.36c0-1.23.23-2.33.68-3.29s1.1-1.71,1.95-2.24,1.85-.8,3.01-.8c1.42,0,2.6.43,3.54,1.28s1.44,1.96,1.51,3.32h-2.05c-.06-.82-.37-1.49-.93-2.02s-1.25-.79-2.07-.79c-1.1,0-1.96.4-2.56,1.19s-.91,1.94-.91,3.44v.41c0,1.46.3,2.59.9,3.38s1.46,1.18,2.58,1.18Z"/>
    <path class="cls-10" d="m591.42,50.22c-1.72,0-3.12-.56-4.2-1.69s-1.62-2.64-1.62-4.53v-.4c0-1.26.24-2.38.72-3.37s1.15-1.76,2.02-2.32,1.8-.84,2.81-.84c1.65,0,2.93.54,3.84,1.63s1.37,2.64,1.37,4.66v.9h-8.59c.03,1.25.4,2.26,1.1,3.03s1.59,1.15,2.67,1.15c.77,0,1.41-.16,1.95-.47s1-.73,1.39-1.24l1.32,1.03c-1.06,1.63-2.66,2.45-4.78,2.45Zm-.27-11.37c-.88,0-1.61.32-2.2.96s-.96,1.53-1.1,2.68h6.35v-.16c-.06-1.1-.36-1.96-.89-2.56s-1.25-.91-2.16-.91Z"/>
    <path class="cls-10" d="m606.85,37.31l.06,1.41c.93-1.09,2.18-1.64,3.76-1.64,1.77,0,2.98.68,3.62,2.04.42-.61.97-1.1,1.65-1.48s1.47-.56,2.4-.56c2.78,0,4.2,1.47,4.24,4.42v8.5h-2.17v-8.37c0-.91-.21-1.58-.62-2.03s-1.11-.67-2.09-.67c-.8,0-1.47.24-2,.72s-.84,1.13-.93,1.94v8.41h-2.18v-8.31c0-1.84-.9-2.77-2.71-2.77-1.42,0-2.39.61-2.92,1.82v9.26h-2.17v-12.68h2.05Z"/>
    <path class="cls-10" d="m633.68,49.99c-.12-.25-.23-.7-.3-1.34-1.01,1.05-2.21,1.57-3.61,1.57-1.25,0-2.28-.35-3.08-1.06s-1.2-1.6-1.2-2.69c0-1.32.5-2.35,1.51-3.08s2.42-1.1,4.24-1.1h2.11v-1c0-.76-.23-1.36-.68-1.81s-1.12-.67-2-.67c-.77,0-1.42.2-1.95.59s-.79.86-.79,1.42h-2.18c0-.63.22-1.24.67-1.83s1.06-1.06,1.83-1.4,1.62-.52,2.54-.52c1.46,0,2.61.37,3.43,1.1s1.26,1.74,1.29,3.02v5.84c0,1.16.15,2.09.45,2.78v.19h-2.27Zm-3.6-1.65c.68,0,1.32-.18,1.93-.53s1.05-.81,1.32-1.37v-2.6h-1.7c-2.66,0-3.98.78-3.98,2.33,0,.68.23,1.21.68,1.59s1.04.57,1.75.57Zm2-16.35h2.62l-3.14,3.45h-1.75s2.26-3.45,2.26-3.45Z"/>
    <path class="cls-10" d="m498.75,58.24v3.07h2.37v1.68h-2.37v7.87c0,.51.11.89.32,1.14.21.25.57.38,1.08.38.25,0,.59-.05,1.03-.14v1.75c-.57.16-1.12.23-1.66.23-.97,0-1.7-.29-2.19-.88s-.74-1.42-.74-2.5v-7.86h-2.31v-1.68h2.31v-3.07h2.17Z"/>
    <path class="cls-10" d="m508.91,74.22c-1.72,0-3.12-.56-4.2-1.69s-1.62-2.64-1.62-4.53v-.4c0-1.26.24-2.38.72-3.37s1.15-1.76,2.02-2.32,1.8-.84,2.81-.84c1.65,0,2.93.54,3.84,1.63s1.37,2.64,1.37,4.66v.9h-8.59c.03,1.25.4,2.26,1.1,3.03s1.59,1.15,2.67,1.15c.77,0,1.41-.16,1.95-.47s1-.73,1.39-1.24l1.32,1.03c-1.06,1.63-2.66,2.45-4.78,2.45Zm-.27-11.37c-.88,0-1.61.32-2.2.96s-.96,1.53-1.1,2.68h6.35v-.16c-.06-1.1-.36-1.96-.89-2.56s-1.25-.91-2.16-.91Z"/>
    <path class="cls-10" d="m527.07,67.79c0,1.93-.44,3.48-1.32,4.66s-2.08,1.77-3.59,1.77-2.75-.49-3.63-1.46v6.11h-2.17v-17.55h1.98l.11,1.41c.88-1.09,2.11-1.64,3.68-1.64s2.73.57,3.62,1.72,1.33,2.75,1.33,4.79v.2Zm-2.17-.25c0-1.43-.3-2.56-.91-3.39s-1.45-1.24-2.51-1.24c-1.31,0-2.3.58-2.95,1.75v6.06c.65,1.16,1.64,1.73,2.98,1.73,1.04,0,1.87-.41,2.48-1.24s.92-2.05.92-3.67Z"/>
    <path class="cls-10" d="m532.18,73.99h-2.17v-18h2.17v18Z"/>
    <path class="cls-10" d="m535.08,67.53c0-1.24.24-2.36.73-3.35s1.17-1.76,2.04-2.3,1.87-.81,2.98-.81c1.73,0,3.12.6,4.19,1.79s1.6,2.79,1.6,4.77v.15c0,1.23-.24,2.34-.71,3.32s-1.15,1.74-2.03,2.29-1.89.82-3.03.82c-1.72,0-3.11-.6-4.18-1.79s-1.6-2.78-1.6-4.75v-.15Zm2.18.26c0,1.41.33,2.54.98,3.39s1.53,1.28,2.62,1.28,1.98-.43,2.62-1.29.97-2.07.97-3.63c0-1.39-.33-2.52-.99-3.38s-1.54-1.29-2.63-1.29-1.93.43-2.59,1.28-.98,2.07-.98,3.66Z"/>
    <path class="cls-10" d="m552.28,58.24v3.07h2.37v1.68h-2.37v7.87c0,.51.11.89.32,1.14.21.25.57.38,1.08.38.25,0,.59-.05,1.03-.14v1.75c-.57.16-1.12.23-1.66.23-.97,0-1.7-.29-2.19-.88s-.74-1.42-.74-2.5v-7.86h-2.31v-1.68h2.31v-3.07h2.17Z"/>
    <path class="cls-10" d="m565.01,72.73c-.84.99-2.08,1.49-3.71,1.49-1.35,0-2.38-.39-3.09-1.18s-1.06-1.95-1.07-3.49v-8.25h2.17v8.19c0,1.92.78,2.88,2.34,2.88,1.66,0,2.76-.62,3.3-1.85v-9.22h2.17v12.68h-2.06l-.05-1.25Z"/>
    <path class="cls-10" d="m587.09,67.79c0,1.94-.45,3.49-1.34,4.67s-2.09,1.76-3.59,1.76c-1.6,0-2.84-.57-3.71-1.7l-.11,1.46h-1.99v-18h2.17v6.71c.88-1.09,2.08-1.63,3.62-1.63s2.75.58,3.63,1.75,1.32,2.76,1.32,4.78v.19Zm-2.17-.25c0-1.48-.29-2.62-.86-3.42s-1.39-1.21-2.46-1.21c-1.43,0-2.46.66-3.08,1.99v5.48c.66,1.33,1.7,1.99,3.11,1.99,1.04,0,1.85-.4,2.43-1.21s.87-2.02.87-3.63Z"/>
    <path class="cls-10" d="m592.17,73.99h-2.17v-18h2.17v18Z"/>
    <path class="cls-10" d="m598.02,56h2.62l-3.14,3.45h-1.75s2.26-3.45,2.26-3.45Zm-.02,17.99h-2.18v-12.68h2.18v12.68Z"/>
    <path class="cls-10" d="m603.61,72.22h7.42v1.77h-10.07v-1.59l7-9.29h-6.89v-1.79h9.61v1.54l-7.07,9.38Z"/>
    <path class="cls-10" d="m617,68.12l-1.36,1.42v4.45h-2.17v-18h2.17v10.89l1.16-1.39,3.95-4.17h2.64l-4.93,5.3,5.51,7.38h-2.54l-4.42-5.87Z"/>
    <path class="cls-10" d="m625.05,67.53c0-1.24.24-2.36.73-3.35s1.17-1.76,2.04-2.3,1.87-.81,2.98-.81c1.73,0,3.12.6,4.19,1.79s1.6,2.79,1.6,4.77v.15c0,1.23-.24,2.34-.71,3.32s-1.15,1.74-2.03,2.29-1.89.82-3.03.82c-1.72,0-3.11-.6-4.18-1.79s-1.6-2.78-1.6-4.75v-.15Zm2.18.26c0,1.41.33,2.54.98,3.39s1.53,1.28,2.62,1.28,1.98-.43,2.62-1.29.97-2.07.97-3.63c0-1.39-.33-2.52-.99-3.38s-1.54-1.29-2.63-1.29-1.93.43-2.59,1.28-.98,2.07-.98,3.66Z"/>
    <path class="cls-10" d="m647.14,72.73c-.84.99-2.08,1.49-3.71,1.49-1.35,0-2.38-.39-3.09-1.18s-1.06-1.95-1.07-3.49v-8.25h2.17v8.19c0,1.92.78,2.88,2.34,2.88,1.66,0,2.76-.62,3.3-1.85v-9.22h2.17v12.68h-2.06l-.05-1.25Z"/>
    <path class="cls-10" d="m497.86,85.31l.07,1.59c.97-1.22,2.23-1.83,3.8-1.83,2.68,0,4.03,1.51,4.05,4.54v8.38h-2.17v-8.39c0-.91-.22-1.59-.63-2.03s-1.05-.66-1.92-.66c-.7,0-1.32.19-1.85.56s-.95.87-1.24,1.48v9.04h-2.17v-12.68h2.05Z"/>
    <path class="cls-10" d="m508.48,91.53c0-1.24.24-2.36.73-3.35s1.17-1.76,2.04-2.3,1.87-.81,2.98-.81c1.73,0,3.12.6,4.19,1.79s1.6,2.79,1.6,4.77v.15c0,1.23-.24,2.34-.71,3.32s-1.15,1.74-2.03,2.29-1.89.82-3.03.82c-1.72,0-3.11-.6-4.18-1.79s-1.6-2.78-1.6-4.75v-.15Zm2.18.26c0,1.41.33,2.54.98,3.39s1.53,1.28,2.62,1.28,1.98-.43,2.62-1.29.97-2.07.97-3.63c0-1.39-.33-2.52-.99-3.38s-1.54-1.29-2.63-1.29-1.93.43-2.59,1.28-.98,2.07-.98,3.66Z"/>
    <path class="cls-10" d="m528.87,87.25c-.33-.05-.68-.08-1.07-.08-1.42,0-2.39.61-2.89,1.82v9h-2.17v-12.68h2.11l.04,1.46c.71-1.13,1.72-1.7,3.02-1.7.42,0,.74.05.96.16v2.02Z"/>
    <path class="cls-10" d="m532.9,85.31l.06,1.41c.93-1.09,2.18-1.64,3.76-1.64,1.77,0,2.98.68,3.62,2.04.42-.61.97-1.1,1.65-1.48s1.47-.56,2.4-.56c2.78,0,4.2,1.47,4.24,4.42v8.5h-2.17v-8.37c0-.91-.21-1.58-.62-2.03s-1.11-.67-2.09-.67c-.8,0-1.47.24-2,.72s-.84,1.13-.93,1.94v8.41h-2.18v-8.31c0-1.84-.9-2.77-2.71-2.77-1.42,0-2.39.61-2.92,1.82v9.26h-2.17v-12.68h2.05Z"/>
    <path class="cls-10" d="m559.72,97.99c-.12-.25-.23-.7-.3-1.34-1.01,1.05-2.21,1.57-3.61,1.57-1.25,0-2.28-.35-3.08-1.06s-1.2-1.6-1.2-2.69c0-1.32.5-2.35,1.51-3.08s2.42-1.1,4.24-1.1h2.11v-1c0-.76-.23-1.36-.68-1.81s-1.12-.67-2-.67c-.77,0-1.42.2-1.95.59s-.79.86-.79,1.42h-2.18c0-.63.22-1.24.67-1.83s1.06-1.06,1.83-1.4,1.62-.52,2.54-.52c1.46,0,2.61.37,3.43,1.1s1.26,1.74,1.29,3.02v5.84c0,1.16.15,2.09.45,2.78v.19h-2.27Zm-3.6-1.65c.68,0,1.32-.18,1.93-.53s1.05-.81,1.32-1.37v-2.6h-1.7c-2.66,0-3.98.78-3.98,2.33,0,.68.23,1.21.68,1.59s1.04.57,1.75.57Zm2-16.35h2.62l-3.14,3.45h-1.75s2.26-3.45,2.26-3.45Z"/>
    <path class="cls-10" d="m567.3,97.99h-2.17v-18h2.17v18Z"/>
    <path class="cls-10" d="m578.6,96.73c-.84.99-2.08,1.49-3.71,1.49-1.35,0-2.38-.39-3.09-1.18s-1.06-1.95-1.07-3.49v-8.25h2.17v8.19c0,1.92.78,2.88,2.34,2.88,1.66,0,2.76-.62,3.3-1.85v-9.22h2.17v12.68h-2.06l-.05-1.25Z"/>
    <path class="cls-10" d="m600.66,91.79c0,1.93-.44,3.48-1.32,4.66s-2.08,1.77-3.59,1.77-2.75-.49-3.63-1.46v6.11h-2.17v-17.55h1.98l.11,1.41c.88-1.09,2.11-1.64,3.68-1.64s2.73.57,3.62,1.72,1.33,2.75,1.33,4.79v.2Zm-2.17-.25c0-1.43-.3-2.56-.91-3.39s-1.45-1.24-2.51-1.24c-1.31,0-2.3.58-2.95,1.75v6.06c.65,1.16,1.64,1.73,2.98,1.73,1.04,0,1.87-.41,2.48-1.24s.92-2.05.92-3.67Z"/>
    <path class="cls-10" d="m609.54,87.25c-.33-.05-.68-.08-1.07-.08-1.42,0-2.39.61-2.89,1.82v9h-2.17v-12.68h2.11l.04,1.46c.71-1.13,1.72-1.7,3.02-1.7.42,0,.74.05.96.16v2.02Z"/>
    <path class="cls-10" d="m610.72,91.53c0-1.24.24-2.36.73-3.35s1.17-1.76,2.04-2.3,1.87-.81,2.98-.81c1.73,0,3.12.6,4.19,1.79s1.6,2.79,1.6,4.77v.15c0,1.23-.24,2.34-.71,3.32s-1.15,1.74-2.03,2.29-1.89.82-3.03.82c-1.72,0-3.11-.6-4.18-1.79s-1.6-2.78-1.6-4.75v-.15Zm2.18.26c0,1.41.33,2.54.98,3.39s1.53,1.28,2.62,1.28,1.98-.43,2.62-1.29.97-2.07.97-3.63c0-1.39-.33-2.52-.99-3.38s-1.54-1.29-2.63-1.29-1.93.43-2.59,1.28-.98,2.07-.98,3.66Z"/>
    <path class="cls-10" d="m495.28,115.54c0-1.95.46-3.51,1.38-4.69s2.13-1.78,3.62-1.78,2.66.51,3.53,1.52v-6.61h2.17v18h-1.99l-.11-1.36c-.87,1.06-2.07,1.59-3.62,1.59s-2.67-.6-3.59-1.8-1.39-2.77-1.39-4.71v-.16Zm2.17.25c0,1.44.3,2.56.89,3.38s1.41,1.22,2.46,1.22c1.38,0,2.38-.62,3.01-1.85v-5.82c-.65-1.2-1.64-1.79-2.99-1.79-1.06,0-1.89.41-2.48,1.23s-.89,2.04-.89,3.64Z"/>
    <path class="cls-10" d="m517.17,121.99c-.12-.25-.23-.7-.3-1.34-1.01,1.05-2.21,1.57-3.61,1.57-1.25,0-2.28-.35-3.08-1.06s-1.2-1.6-1.2-2.69c0-1.32.5-2.35,1.51-3.08s2.42-1.1,4.24-1.1h2.11v-1c0-.76-.23-1.36-.68-1.81s-1.12-.67-2-.67c-.77,0-1.42.2-1.95.59s-.79.86-.79,1.42h-2.18c0-.63.22-1.24.67-1.83s1.06-1.06,1.83-1.4,1.62-.52,2.54-.52c1.46,0,2.61.37,3.43,1.1s1.26,1.74,1.29,3.02v5.84c0,1.16.15,2.09.45,2.78v.19h-2.27Zm-3.6-1.65c.68,0,1.32-.18,1.93-.53s1.05-.81,1.32-1.37v-2.6h-1.7c-2.66,0-3.98.78-3.98,2.33,0,.68.23,1.21.68,1.59s1.04.57,1.75.57Z"/>
    <path class="cls-10" d="m524.45,109.31l.07,1.59c.97-1.22,2.23-1.83,3.8-1.83,2.68,0,4.03,1.51,4.05,4.54v8.38h-2.17v-8.39c0-.91-.22-1.59-.63-2.03s-1.05-.66-1.92-.66c-.7,0-1.32.19-1.85.56s-.95.87-1.24,1.48v9.04h-2.17v-12.68h2.05Z"/>
    <path class="cls-10" d="m539.79,118.81l2.95-9.5h2.32l-5.1,14.64c-.79,2.11-2.04,3.16-3.76,3.16l-.41-.04-.81-.15v-1.76l.59.05c.73,0,1.31-.15,1.72-.45s.75-.84,1.01-1.63l.48-1.29-4.52-12.54h2.37l3.16,9.5Zm1.23-14.82h2.62l-3.14,3.45h-1.75s2.26-3.45,2.26-3.45Z"/>
    <path class="cls-10" d="m552.41,115.54c0-1.95.46-3.51,1.38-4.69s2.13-1.78,3.62-1.78,2.66.51,3.53,1.52v-6.61h2.17v18h-1.99l-.11-1.36c-.87,1.06-2.07,1.59-3.62,1.59s-2.67-.6-3.59-1.8-1.39-2.77-1.39-4.71v-.16Zm2.17.25c0,1.44.3,2.56.89,3.38s1.41,1.22,2.46,1.22c1.38,0,2.38-.62,3.01-1.85v-5.82c-.65-1.2-1.64-1.79-2.99-1.79-1.06,0-1.89.41-2.48,1.23s-.89,2.04-.89,3.64Z"/>
    <path class="cls-10" d="m571.73,122.22c-1.72,0-3.12-.56-4.2-1.69s-1.62-2.64-1.62-4.53v-.4c0-1.26.24-2.38.72-3.37s1.15-1.76,2.02-2.32,1.8-.84,2.81-.84c1.65,0,2.93.54,3.84,1.63s1.37,2.64,1.37,4.66v.9h-8.59c.03,1.25.4,2.26,1.1,3.03s1.59,1.15,2.67,1.15c.77,0,1.41-.16,1.95-.47s1-.73,1.39-1.24l1.32,1.03c-1.06,1.63-2.66,2.45-4.78,2.45Zm-.27-11.37c-.88,0-1.61.32-2.2.96s-.96,1.53-1.1,2.68h6.35v-.16c-.06-1.1-.36-1.96-.89-2.56s-1.25-.91-2.16-.91Z"/>
    <path class="cls-10" d="m581.24,109.31l.07,1.59c.97-1.22,2.23-1.83,3.8-1.83,2.68,0,4.03,1.51,4.05,4.54v8.38h-2.17v-8.39c0-.91-.22-1.59-.63-2.03s-1.05-.66-1.92-.66c-.7,0-1.32.19-1.85.56s-.95.87-1.24,1.48v9.04h-2.17v-12.68h2.05Z"/>
  </g>
  <g>
    <path class="cls-10" d="m38.68,229.84h-2v-13.25l-4.01,1.47v-1.8l5.69-2.14h.31v15.72Z"/>
    <path class="cls-10" d="m52.12,222.96c-.42.49-.91.89-1.49,1.19-.58.3-1.21.45-1.9.45-.9,0-1.69-.22-2.36-.67-.67-.44-1.19-1.07-1.55-1.87s-.55-1.7-.55-2.67c0-1.05.2-1.99.6-2.83s.96-1.48,1.69-1.92c.73-.44,1.58-.67,2.56-.67,1.55,0,2.77.58,3.66,1.73.89,1.16,1.34,2.73,1.34,4.73v.58c0,3.04-.6,5.27-1.8,6.67-1.2,1.4-3.02,2.12-5.45,2.15h-.39v-1.69h.42c1.64-.03,2.9-.46,3.78-1.28.88-.83,1.36-2.13,1.44-3.92Zm-3.06,0c.67,0,1.28-.2,1.84-.61.56-.41.97-.91,1.23-1.51v-.79c0-1.3-.28-2.36-.85-3.18-.57-.82-1.28-1.22-2.15-1.22s-1.58.33-2.11,1c-.53.67-.79,1.55-.79,2.65s.26,1.95.77,2.64c.51.69,1.2,1.04,2.06,1.04Z"/>
    <path class="cls-10" d="m64.66,214.19v1.69h-.37c-1.55.03-2.78.49-3.7,1.38-.92.89-1.45,2.14-1.59,3.75.82-.95,1.95-1.42,3.37-1.42s2.45.48,3.26,1.44c.81.96,1.22,2.2,1.22,3.72,0,1.61-.44,2.9-1.32,3.87-.88.97-2.05,1.45-3.53,1.45s-2.71-.57-3.64-1.72c-.93-1.15-1.4-2.63-1.4-4.44v-.76c0-2.88.61-5.08,1.84-6.6,1.23-1.52,3.06-2.3,5.48-2.34h.35Zm-2.61,7.05c-.68,0-1.31.2-1.88.61-.57.41-.97.92-1.19,1.54v.73c0,1.29.29,2.33.87,3.12.58.79,1.3,1.18,2.17,1.18s1.6-.33,2.11-.99c.51-.66.77-1.52.77-2.59s-.26-1.94-.78-2.6c-.52-.66-1.21-.99-2.07-.99Z"/>
    <path class="cls-10" d="m75.74,229.84h-2v-13.25l-4.01,1.47v-1.8l5.69-2.14h.31v15.72Z"/>
    <path class="cls-10" d="m92.77,222.84h-10.76v-1.62h10.76v1.62Z"/>
    <path class="cls-10" d="m102.53,229.84h-2v-13.25l-4.01,1.47v-1.8l5.69-2.14h.31v15.72Z"/>
    <path class="cls-10" d="m115.97,222.96c-.42.49-.91.89-1.49,1.19-.58.3-1.21.45-1.9.45-.9,0-1.69-.22-2.36-.67-.67-.44-1.19-1.07-1.55-1.87s-.55-1.7-.55-2.67c0-1.05.2-1.99.6-2.83s.96-1.48,1.69-1.92c.73-.44,1.58-.67,2.56-.67,1.55,0,2.77.58,3.66,1.73.89,1.16,1.34,2.73,1.34,4.73v.58c0,3.04-.6,5.27-1.8,6.67-1.2,1.4-3.02,2.12-5.45,2.15h-.39v-1.69h.42c1.64-.03,2.9-.46,3.78-1.28.88-.83,1.36-2.13,1.44-3.92Zm-3.06,0c.67,0,1.28-.2,1.84-.61.56-.41.97-.91,1.23-1.51v-.79c0-1.3-.28-2.36-.85-3.18-.57-.82-1.28-1.22-2.15-1.22s-1.58.33-2.11,1c-.53.67-.79,1.55-.79,2.65s.26,1.95.77,2.64c.51.69,1.2,1.04,2.06,1.04Z"/>
    <path class="cls-10" d="m130.2,218.28c0,.78-.21,1.48-.62,2.08-.41.61-.97,1.08-1.67,1.43.82.35,1.46.86,1.94,1.54.48.67.71,1.44.71,2.29,0,1.35-.46,2.43-1.37,3.23-.91.8-2.11,1.2-3.6,1.2s-2.71-.4-3.61-1.21c-.91-.81-1.36-1.88-1.36-3.23,0-.84.23-1.61.69-2.29.46-.68,1.1-1.2,1.92-1.55-.69-.34-1.24-.82-1.64-1.43-.4-.61-.6-1.3-.6-2.07,0-1.32.42-2.36,1.27-3.14.84-.77,1.96-1.16,3.34-1.16s2.49.39,3.34,1.16,1.27,1.82,1.27,3.14Zm-1.62,7.29c0-.87-.28-1.59-.83-2.14-.56-.55-1.28-.83-2.18-.83s-1.61.27-2.15.82c-.54.54-.81,1.26-.81,2.15s.26,1.59.79,2.09c.53.51,1.26.76,2.2.76s1.66-.26,2.19-.77c.53-.51.79-1.21.79-2.09Zm-2.99-9.96c-.78,0-1.41.24-1.9.73s-.73,1.14-.73,1.97.24,1.44.71,1.93c.48.49,1.11.74,1.91.74s1.43-.25,1.91-.74c.48-.49.71-1.13.71-1.93s-.25-1.44-.74-1.94c-.49-.5-1.12-.75-1.88-.75Z"/>
    <path class="cls-10" d="m142.87,223.17c0,2.33-.4,4.06-1.19,5.19-.79,1.13-2.04,1.7-3.73,1.7s-2.9-.55-3.71-1.66c-.8-1.11-1.22-2.76-1.25-4.96v-2.65c0-2.3.4-4.01,1.19-5.12s2.04-1.68,3.74-1.68,2.92.54,3.72,1.62c.79,1.08,1.2,2.74,1.22,4.99v2.58Zm-1.99-2.72c0-1.68-.24-2.91-.71-3.68-.47-.77-1.22-1.15-2.25-1.15s-1.76.38-2.22,1.15c-.47.77-.71,1.94-.72,3.53v3.18c0,1.69.25,2.94.74,3.74.49.81,1.23,1.21,2.23,1.21s1.71-.38,2.19-1.14c.48-.76.73-1.96.75-3.59v-3.25Z"/>
  </g>
  <polygon class="cls-10" points="467.41 141.24 449.58 141.24 449.58 108.16 431.74 108.16 431.74 64.92 413.9 64.92 413.9 50.86 396.07 50.86 396.07 52.68 378.23 52.68 378.23 61.92 360.39 61.92 360.39 56.32 342.56 56.32 342.56 84.32 324.72 84.32 324.72 109.2 306.88 109.2 306.88 142.93 289.14 142.93 289.14 244.51 467.54 244.51 467.54 174.19 467.41 174.19 467.41 141.24"/>
  <path class="cls-3" d="m30.42,244.39h26.75v-.13h17.84v-.65h17.84v.39h17.84v-1.43h17.84v.65h17.84v-.52h17.84v-1.17h17.84v-2.48h17.84v-1.95h17.84v-2.34h17.84v-12.63h17.84v-14.98h17.84v-17.84h17.84v-27.09h17.84v-33.47h17.84v-24.61h17.84v-30.87h17.84v-4.82h17.84v-17.32h17.84v1.95h17.84v21.36h17.84v17.06h17.84v29.95h17.84v31.91h17.84v32.17h17.84v18.88h17.84v17.06h17.84v9.9h17.84v5.99h17.83v4.17h17.84v1.82h17.84v1.17h17.84v-.13h17.84v-.13h8.92"/>
  <path class="cls-4" d="m30.42,244.51h62.43v-.26h17.84v-.13h17.84v-.13h17.84v-.52h17.84v-.91h35.67v-2.09h17.84v-3h17.84v-4.56h17.84v-8.86h17.84v-11.2h17.84v-25.79h17.84v-27.22h17.84v-29.56h17.84v-23.31h17.84v-24.74h17.84v-20.32h17.84v-2.6h17.84v-10.42h17.84v12.76h17.84v23.83h17.84v32.17h17.84v34.9h17.84v31.13h17.84v21.36h17.84v18.75h17.84v8.47h17.83v6.12h17.84v4.69h17.84v.78h17.84v.52h26.75"/>
  <line class="cls-7" x1="378.28" y1="246.89" x2="378.28" y2="38.42"/>
  <path class="cls-1" d="m30.42,244.51h26.75v-.13h35.67v.13h17.84v-.39h17.84v-1.43h17.84v-.65h35.67v-1.69h17.84v-4.04h17.84v-5.99h17.84v-10.16h17.84v-14.19h17.84v-31.13h17.84v-31.91h17.84v-33.73h17.84v-24.88h17.84v-28h17.84v5.6h17.84v-9.25h17.84v-1.82h17.84v14.07h17.84v43.24h17.84v33.08h17.84v32.95h17.84v26.31h17.84v17.97h17.84v11.85h17.84v9.64h17.84v1.82h17.83v1.69h17.84v.52h17.84v.39h17.84v.13h26.75"/>
</svg>