<?xml version="1.0" encoding="UTF-8"?><svg id="g" xmlns="http://www.w3.org/2000/svg" viewBox="0 0 660 324.38"><defs><style>.h{stroke:#000;}.h,.i,.j,.k,.l,.m{fill:none;}.h,.i,.j,.m{stroke-miterlimit:10;}.h,.i,.m{stroke-linecap:round;}.h,.m{stroke-dasharray:0 0 4 6;stroke-width:3px;}.n{fill:#e9ebf4;}.o{fill:#fff;}.p{fill:#fceae9;}.q{fill:#999;}.r{fill:#666c80;}.s{fill:#cacde3;}.t{fill:#3e4d59;}.u{fill:#1a1a1a;}.v{fill:#606060;}.w{fill:#606bac;}.i{stroke:#666c80;}.j{stroke:#1a1a1a;stroke-width:2px;}.k,.l{stroke-linejoin:round;stroke-width:1.25px;}.k,.m{stroke:#999;}.l{stroke:#231f20;}.x{opacity:.4;}.y{fill:#e6625c;}.y,.z,.aa,.ab{opacity:.9;}.z{fill:#ee9f92;}.aa{fill:#959cc7;}.ab{fill:#f7cfc9;}</style></defs><rect class="o" x="0" width="660" height="324.38"/><path class="r" d="m126.45,305.44v1.34h-7.34v-1.34h7.34Z"/><path class="r" d="m134.34,299.63v12.87h-1.63v-10.84l-3.28,1.2v-1.47l4.65-1.76h.25Z"/><path class="r" d="m147.14,305.08v1.95c0,2.1-.36,3.56-1.09,4.39s-1.71,1.25-2.95,1.25-2.21-.42-2.94-1.25-1.11-2.3-1.11-4.39v-1.95c0-2.09.37-3.54,1.1-4.35s1.71-1.21,2.94-1.21,2.23.4,2.96,1.21,1.09,2.25,1.09,4.35Zm-1.63,2.21v-2.49c0-1.44-.21-2.46-.62-3.06s-1.01-.9-1.8-.9-1.37.3-1.78.9-.62,1.62-.62,3.06v2.49c0,1.43.21,2.46.63,3.09s1.02.95,1.79.95,1.4-.32,1.8-.95.6-1.66.6-3.09Z"/><path class="r" d="m151.98,301.8c0-.63.22-1.17.66-1.61.44-.45.97-.67,1.58-.67s1.13.22,1.56.67c.43.45.65.99.65,1.61s-.22,1.16-.65,1.6-.95.66-1.56.66-1.14-.22-1.58-.66-.66-.97-.66-1.6Zm1.09,0c0,.32.11.59.34.81s.5.33.81.33.58-.11.8-.33.32-.49.32-.81-.11-.6-.32-.83-.48-.33-.8-.33-.59.11-.81.33-.34.5-.34.83Z"/><path class="r" d="m166.76,308.43h1.69c-.13,1.21-.59,2.22-1.37,3.03s-1.95,1.21-3.48,1.21-2.71-.54-3.62-1.62c-.91-1.08-1.37-2.52-1.37-4.31v-1.27c0-1.79.46-3.23,1.38-4.32s2.18-1.63,3.76-1.63c1.45,0,2.56.4,3.34,1.2s1.23,1.83,1.36,3.08h-1.69c-.13-.89-.42-1.59-.86-2.11-.45-.52-1.16-.78-2.15-.78-1.13,0-1.99.42-2.58,1.25s-.88,1.93-.88,3.29v1.29c0,1.26.27,2.33.8,3.22.53.89,1.37,1.33,2.5,1.33,1.08,0,1.84-.25,2.28-.76s.74-1.21.88-2.11Z"/><path class="r" d="m37.72,305.44v1.34h-7.34v-1.34h7.34Z"/><path class="r" d="m45.6,299.63v12.87h-1.63v-10.84l-3.28,1.2v-1.47l4.65-1.76h.25Z"/><path class="r" d="m52.43,306.41l-1.3-.33.64-6.37h6.57v1.5h-5.19l-.39,3.48c.23-.13.53-.26.89-.38s.77-.18,1.24-.18c1.18,0,2.11.39,2.79,1.16.68.78,1.02,1.82,1.02,3.12,0,1.22-.33,2.24-1,3.04-.67.81-1.68,1.21-3.05,1.21-1.04,0-1.93-.29-2.69-.88-.76-.58-1.19-1.47-1.31-2.67h1.55c.21,1.47,1.02,2.21,2.45,2.21.77,0,1.36-.26,1.78-.78s.63-1.23.63-2.12c0-.8-.22-1.48-.66-2.03s-1.07-.82-1.89-.82c-.54,0-.96.07-1.24.22s-.57.35-.85.6Z"/><path class="r" d="m63.24,301.8c0-.63.22-1.17.66-1.61.44-.45.97-.67,1.58-.67s1.13.22,1.56.67c.43.45.65.99.65,1.61s-.22,1.16-.65,1.6-.95.66-1.56.66-1.14-.22-1.58-.66-.66-.97-.66-1.6Zm1.09,0c0,.32.11.59.34.81s.5.33.81.33.58-.11.8-.33.32-.49.32-.81-.11-.6-.32-.83-.48-.33-.8-.33-.59.11-.81.33-.34.5-.34.83Z"/><path class="r" d="m78.02,308.43h1.69c-.13,1.21-.59,2.22-1.37,3.03s-1.95,1.21-3.48,1.21-2.71-.54-3.62-1.62c-.91-1.08-1.37-2.52-1.37-4.31v-1.27c0-1.79.46-3.23,1.38-4.32s2.18-1.63,3.76-1.63c1.45,0,2.56.4,3.34,1.2s1.23,1.83,1.36,3.08h-1.69c-.13-.89-.42-1.59-.86-2.11-.45-.52-1.16-.78-2.15-.78-1.13,0-1.99.42-2.58,1.25s-.88,1.93-.88,3.29v1.29c0,1.26.27,2.33.8,3.22.53.89,1.37,1.33,2.5,1.33,1.08,0,1.84-.25,2.28-.76s.74-1.21.88-2.11Z"/><path class="r" d="m220.25,305.44v1.34h-7.34v-1.34h7.34Z"/><path class="r" d="m224.85,306.41l-1.3-.33.64-6.37h6.57v1.5h-5.19l-.39,3.48c.23-.13.53-.26.89-.38s.77-.18,1.24-.18c1.18,0,2.11.39,2.79,1.16.68.78,1.02,1.82,1.02,3.12,0,1.22-.33,2.24-1,3.04-.67.81-1.68,1.21-3.05,1.21-1.04,0-1.93-.29-2.69-.88-.76-.58-1.19-1.47-1.31-2.67h1.55c.21,1.47,1.02,2.21,2.45,2.21.77,0,1.36-.26,1.78-.78s.63-1.23.63-2.12c0-.8-.22-1.48-.66-2.03s-1.07-.82-1.89-.82c-.54,0-.96.07-1.24.22s-.57.35-.85.6Z"/><path class="r" d="m235.66,301.8c0-.63.22-1.17.66-1.61.44-.45.97-.67,1.58-.67s1.13.22,1.56.67c.43.45.65.99.65,1.61s-.22,1.16-.65,1.6-.95.66-1.56.66-1.14-.22-1.58-.66-.66-.97-.66-1.6Zm1.09,0c0,.32.11.59.34.81s.5.33.81.33.58-.11.8-.33.32-.49.32-.81-.11-.6-.32-.83-.48-.33-.8-.33-.59.11-.81.33-.34.5-.34.83Z"/><path class="r" d="m250.44,308.43h1.69c-.13,1.21-.59,2.22-1.37,3.03s-1.95,1.21-3.48,1.21-2.71-.54-3.62-1.62c-.91-1.08-1.37-2.52-1.37-4.31v-1.27c0-1.79.46-3.23,1.38-4.32s2.18-1.63,3.76-1.63c1.45,0,2.56.4,3.34,1.2s1.23,1.83,1.36,3.08h-1.69c-.13-.89-.42-1.59-.86-2.11-.45-.52-1.16-.78-2.15-.78-1.13,0-1.99.42-2.58,1.25s-.88,1.93-.88,3.29v1.29c0,1.26.27,2.33.8,3.22.53.89,1.37,1.33,2.5,1.33,1.08,0,1.84-.25,2.28-.76s.74-1.21.88-2.11Z"/><path class="r" d="m399.81,307.16h-3.57v4.05h-1.63v-4.05h-3.58v-1.53h3.58v-3.74h1.63v3.74h3.57v1.53Z"/><path class="r" d="m403.69,306.41l-1.3-.33.64-6.37h6.57v1.5h-5.19l-.39,3.48c.23-.13.53-.26.89-.38s.77-.18,1.24-.18c1.18,0,2.11.39,2.79,1.16.68.78,1.02,1.82,1.02,3.12,0,1.22-.33,2.24-1,3.04-.67.81-1.68,1.21-3.05,1.21-1.04,0-1.93-.29-2.69-.88-.76-.58-1.19-1.47-1.31-2.67h1.55c.21,1.47,1.02,2.21,2.45,2.21.77,0,1.36-.26,1.78-.78s.63-1.23.63-2.12c0-.8-.22-1.48-.66-2.03s-1.07-.82-1.89-.82c-.54,0-.96.07-1.24.22s-.57.35-.85.6Z"/><path class="r" d="m414.5,301.8c0-.63.22-1.17.66-1.61.44-.45.97-.67,1.58-.67s1.13.22,1.56.67c.43.45.65.99.65,1.61s-.21,1.16-.65,1.6-.95.66-1.56.66-1.13-.22-1.58-.66-.66-.97-.66-1.6Zm1.09,0c0,.32.11.59.34.81s.5.33.81.33.58-.11.8-.33.32-.49.32-.81-.11-.6-.32-.83-.48-.33-.8-.33-.59.11-.81.33-.34.5-.34.83Z"/><path class="r" d="m429.28,308.43h1.69c-.13,1.21-.59,2.22-1.37,3.03s-1.95,1.21-3.48,1.21-2.71-.54-3.62-1.62c-.91-1.08-1.37-2.52-1.37-4.31v-1.27c0-1.79.46-3.23,1.38-4.32s2.17-1.63,3.76-1.63c1.45,0,2.56.4,3.34,1.2s1.23,1.83,1.36,3.08h-1.69c-.13-.89-.42-1.59-.86-2.11-.45-.52-1.16-.78-2.15-.78-1.13,0-1.99.42-2.58,1.25s-.88,1.93-.88,3.29v1.29c0,1.26.27,2.33.8,3.22.53.89,1.37,1.33,2.5,1.33,1.08,0,1.84-.25,2.28-.76s.74-1.21.88-2.11Z"/><path class="r" d="m484.01,307.16h-3.57v4.05h-1.63v-4.05h-3.58v-1.53h3.58v-3.74h1.63v3.74h3.57v1.53Z"/><path class="r" d="m491.17,299.63v12.87h-1.63v-10.84l-3.28,1.2v-1.47l4.65-1.76h.25Z"/><path class="r" d="m503.98,305.08v1.95c0,2.1-.36,3.56-1.09,4.39s-1.71,1.25-2.95,1.25-2.21-.42-2.94-1.25-1.11-2.3-1.11-4.39v-1.95c0-2.09.37-3.54,1.1-4.35s1.71-1.21,2.94-1.21,2.23.4,2.96,1.21,1.09,2.25,1.09,4.35Zm-1.63,2.21v-2.49c0-1.44-.21-2.46-.62-3.06s-1.01-.9-1.8-.9-1.37.3-1.78.9-.62,1.62-.62,3.06v2.49c0,1.43.21,2.46.63,3.09s1.02.95,1.79.95,1.4-.32,1.8-.95.6-1.66.6-3.09Z"/><path class="r" d="m508.81,301.8c0-.63.22-1.17.66-1.61.44-.45.97-.67,1.58-.67s1.13.22,1.56.67c.43.45.65.99.65,1.61s-.22,1.16-.65,1.6-.95.66-1.56.66-1.14-.22-1.58-.66-.66-.97-.66-1.6Zm1.09,0c0,.32.11.59.34.81s.5.33.81.33.58-.11.79-.33.32-.49.32-.81-.11-.6-.32-.83-.48-.33-.79-.33-.59.11-.81.33-.34.5-.34.83Z"/><path class="r" d="m523.6,308.43h1.69c-.13,1.21-.59,2.22-1.37,3.03s-1.95,1.21-3.48,1.21-2.71-.54-3.62-1.62c-.91-1.08-1.37-2.52-1.37-4.31v-1.27c0-1.79.46-3.23,1.38-4.32s2.18-1.63,3.76-1.63c1.45,0,2.56.4,3.34,1.2s1.23,1.83,1.36,3.08h-1.69c-.13-.89-.42-1.59-.86-2.11-.45-.52-1.16-.78-2.15-.78-1.13,0-1.99.42-2.58,1.25s-.88,1.93-.88,3.29v1.29c0,1.26.27,2.33.8,3.22.53.89,1.37,1.33,2.5,1.33,1.08,0,1.84-.25,2.28-.76s.74-1.21.88-2.11Z"/><path class="r" d="m560.77,307.16h-3.57v4.05h-1.63v-4.05h-3.58v-1.53h3.58v-3.74h1.63v3.74h3.57v1.53Z"/><path class="r" d="m567.93,299.63v12.87h-1.63v-10.84l-3.28,1.2v-1.47l4.65-1.76h.25Z"/><path class="r" d="m574.76,306.41l-1.3-.33.64-6.37h6.57v1.5h-5.19l-.39,3.48c.23-.13.53-.26.89-.38s.78-.18,1.24-.18c1.18,0,2.11.39,2.79,1.16.68.78,1.02,1.82,1.02,3.12,0,1.22-.33,2.24-1,3.04-.67.81-1.68,1.21-3.05,1.21-1.04,0-1.93-.29-2.69-.88-.76-.58-1.19-1.47-1.31-2.67h1.55c.21,1.47,1.02,2.21,2.45,2.21.77,0,1.36-.26,1.78-.78s.63-1.23.63-2.12c0-.8-.22-1.48-.66-2.03s-1.07-.82-1.89-.82c-.54,0-.96.07-1.24.22s-.57.35-.85.6Z"/><path class="r" d="m585.57,301.8c0-.63.22-1.17.66-1.61.44-.45.97-.67,1.58-.67s1.13.22,1.56.67c.43.45.65.99.65,1.61s-.22,1.16-.65,1.6-.95.66-1.56.66-1.14-.22-1.58-.66-.66-.97-.66-1.6Zm1.09,0c0,.32.11.59.34.81s.5.33.81.33.58-.11.79-.33.32-.49.32-.81-.11-.6-.32-.83-.48-.33-.79-.33-.59.11-.81.33-.34.5-.34.83Z"/><path class="r" d="m600.36,308.43h1.69c-.13,1.21-.59,2.22-1.37,3.03s-1.95,1.21-3.48,1.21-2.71-.54-3.62-1.62c-.91-1.08-1.37-2.52-1.37-4.31v-1.27c0-1.79.46-3.23,1.38-4.32s2.18-1.63,3.76-1.63c1.45,0,2.56.4,3.34,1.2s1.23,1.83,1.36,3.08h-1.69c-.13-.89-.42-1.59-.86-2.11-.45-.52-1.16-.78-2.15-.78-1.13,0-1.99.42-2.58,1.25s-.88,1.93-.88,3.29v1.29c0,1.26.27,2.33.8,3.22.53.89,1.37,1.33,2.5,1.33,1.08,0,1.84-.25,2.28-.76s.74-1.21.88-2.11Z"/><circle class="t" cx="322.08" cy="308.66" r="2.5"/><g class="x"><polygon class="z" points="499.22 248.63 481.53 248.63 481.53 227.58 463.83 227.58 463.83 284.75 499.26 284.75 499.26 262 499.22 262 499.22 248.63"/><polygon class="p" points="393.08 137.14 393.08 135.44 375.39 135.44 375.39 106.14 357.7 106.14 357.7 102.44 340.01 102.44 340.01 115.24 322.31 115.24 322.31 118.94 322.27 118.94 322.27 284.75 410.77 284.75 410.77 153.63 410.77 137.14 393.08 137.14"/><polygon class="ab" points="446.15 207.67 446.15 183.78 428.46 183.78 428.46 153.63 410.77 153.63 410.77 284.75 463.83 284.75 463.83 227.58 463.83 207.67 446.15 207.67"/><polygon class="y" points="605.37 284.46 605.37 283.9 587.67 283.9 587.67 284.46 569.99 284.46 569.99 281.05 552.29 281.05 552.29 278.78 534.6 278.78 534.6 271.66 516.92 271.66 516.92 262 499.26 262 499.26 284.75 623.06 284.75 623.06 284.46 605.37 284.46"/><polygon class="n" points="304.63 140.56 286.94 140.56 286.94 161.61 269.24 161.61 269.24 179.52 251.56 179.52 251.56 198.86 233.86 198.86 233.86 219.05 233.78 219.05 233.78 284.75 322.27 284.75 322.27 118.94 304.63 118.94 304.63 140.56"/><polygon class="s" points="216.17 240.95 198.49 240.95 198.49 255.74 180.79 255.74 180.79 268.82 180.71 268.82 180.71 284.75 233.78 284.75 233.78 219.05 216.17 219.05 216.17 240.95"/><polygon class="aa" points="163.1 274.23 145.4 274.23 145.4 278.5 145.29 278.5 145.29 284.75 180.71 284.75 180.71 268.82 163.1 268.82 163.1 274.23"/><polygon class="w" points="127.72 282.19 110.03 282.19 110.03 283.04 92.33 283.04 92.33 284.18 74.65 284.18 74.65 284.75 145.29 284.75 145.29 278.5 127.72 278.5 127.72 282.19"/></g><polyline class="k" points="30.42 284.75 39.27 284.75 39.27 284.75 56.95 284.75 56.95 284.46 74.65 284.46 74.65 284.46 92.33 284.46 92.33 283.61 110.03 283.61 110.03 280.19 127.72 280.19 127.72 278.5 145.4 278.5 145.4 271.66 163.1 271.66 163.1 261.43 180.79 261.43 180.79 245.22 198.49 245.22 198.49 221.33 216.17 221.33 216.17 193.74 233.86 193.74 233.86 160.75 251.56 160.75 251.56 145.39 269.24 145.39 269.24 119.79 286.94 119.79 286.94 107.28 304.63 107.28 304.63 91.35 322.31 91.35 322.31 93.91 340.01 93.91 340.01 121.5 357.7 121.5 357.7 100.17 375.39 100.17 375.39 138 393.08 138 393.08 169.85 410.77 169.85 410.77 205.4 428.46 205.4 428.46 227.3 446.15 227.3 446.15 242.94 463.83 242.94 463.83 258.58 481.53 258.58 481.53 269.67 499.22 269.67 499.22 274.23 516.92 274.23 516.92 281.9 534.6 281.9 534.6 283.9 552.29 283.9 552.29 284.18 569.99 284.18 569.99 284.18 587.67 284.18 587.67 284.75 605.37 284.75 605.37 284.75 623.06 284.75 623.06 284.75 640.74 284.75 640.74 284.75 649.59 284.75"/><polyline class="l" points="30.42 284.46 39.27 284.46 39.27 284.75 56.95 284.75 56.95 284.75 74.65 284.75 74.65 284.18 92.33 284.18 92.33 283.04 110.03 283.04 110.03 282.19 127.72 282.19 127.72 278.5 145.4 278.5 145.4 274.23 163.1 274.23 163.1 268.82 180.79 268.82 180.79 255.74 198.49 255.74 198.49 240.95 216.17 240.95 216.17 219.05 233.86 219.05 233.86 198.86 251.56 198.86 251.56 179.52 269.24 179.52 269.24 161.61 286.94 161.61 286.94 140.56 304.63 140.56 304.63 118.94 322.31 118.94 322.31 115.24 340.01 115.24 340.01 102.44 357.7 102.44 357.7 106.14 375.39 106.14 375.39 135.44 393.08 135.44 393.08 137.14 410.77 137.14 410.77 153.63 428.46 153.63 428.46 183.78 446.15 183.78 446.15 207.67 463.83 207.67 463.83 227.58 481.53 227.58 481.53 248.63 499.22 248.63 499.22 262 516.92 262 516.92 271.66 534.6 271.66 534.6 278.78 552.29 278.78 552.29 281.05 569.99 281.05 569.99 284.46 587.67 284.46 587.67 283.9 605.37 283.9 605.37 284.46 623.06 284.46 623.06 284.75 640.74 284.75 640.74 284.46 649.59 284.46"/><line class="i" x1="56.95" y1="289.72" x2="56.95" y2="293.72"/><line class="i" x1="145.4" y1="289.72" x2="145.4" y2="293.72"/><line class="i" x1="233.86" y1="289.72" x2="233.86" y2="293.72"/><line class="i" x1="322.31" y1="289.72" x2="322.31" y2="293.72"/><line class="i" x1="410.77" y1="289.72" x2="410.77" y2="293.72"/><line class="i" x1="499.22" y1="289.72" x2="499.22" y2="293.72"/><line class="i" x1="587.67" y1="289.72" x2="587.67" y2="293.72"/><path class="v" d="m135.51,62.49h-4.03v6.69h-2.26v-17.06h6.29c1.94,0,3.42.49,4.45,1.46s1.54,2.22,1.54,3.74c0,1.65-.51,2.92-1.54,3.82s-2.51,1.35-4.45,1.35Zm-4.03-8.52v6.68h4.03c1.33,0,2.28-.31,2.86-.93s.87-1.41.87-2.38c0-.88-.29-1.66-.87-2.34s-1.53-1.03-2.86-1.03h-4.03Z"/><path class="v" d="m149.09,58.36c-.74,0-1.35.17-1.83.5s-.83.78-1.07,1.33v9h-2.17v-12.68h2.11l.05,1.45c.32-.52.73-.93,1.22-1.23s1.09-.46,1.79-.46c.41,0,.73.05.96.16v2.02c-.33-.06-.68-.09-1.07-.09Z"/><path class="v" d="m160.03,69.18l-.05-1.25c-.39.47-.89.83-1.5,1.1s-1.34.39-2.2.39c-1.24,0-2.25-.37-3.01-1.1s-1.15-1.95-1.15-3.63v-8.18h2.17v8.2c0,1.14.24,1.9.72,2.29s1.02.58,1.61.58c.88,0,1.59-.17,2.12-.5s.93-.78,1.18-1.34v-9.23h2.18v12.68h-2.07Zm-5.39-16.64c0-.67.24-1.25.72-1.72s1.08-.71,1.8-.71,1.31.24,1.79.71.73,1.05.73,1.72-.24,1.26-.73,1.71-1.08.68-1.79.68-1.32-.23-1.8-.68-.72-1.02-.72-1.71Zm1.16,0c0,.34.13.65.38.93s.58.42.98.42.72-.13.98-.4.38-.58.38-.94-.13-.69-.38-.97-.58-.42-.98-.42-.72.14-.98.42-.38.6-.38.97Z"/><path class="v" d="m170.47,58.1c-.77,0-1.39.16-1.86.49s-.82.76-1.05,1.3v9.29h-2.18v-12.68h2.06l.06,1.38c.91-1.08,2.16-1.62,3.75-1.62.81,0,1.54.16,2.17.49s1.12.84,1.46,1.55c.42-.61.97-1.1,1.65-1.48s1.47-.56,2.38-.56c1.36,0,2.41.36,3.15,1.09s1.11,1.89,1.11,3.49v8.33h-2.18v-8.36c0-1.06-.24-1.78-.73-2.16s-1.15-.57-1.97-.57c-.88,0-1.56.26-2.06.78s-.79,1.15-.87,1.89v8.41h-2.17v-8.34c0-.99-.25-1.7-.74-2.12s-1.15-.63-1.97-.63Z"/><path class="v" d="m196.47,66.97c-.41.62-1,1.19-1.76,1.69s-1.76.76-3.01.76c-1.77,0-3.18-.57-4.24-1.72s-1.59-2.62-1.59-4.41v-.49c0-1.38.26-2.56.79-3.53s1.21-1.71,2.06-2.23,1.74-.77,2.7-.77c1.81,0,3.13.59,3.97,1.78s1.25,2.66,1.25,4.44v.97h-8.58c.03,1.16.38,2.15,1.04,2.97s1.57,1.22,2.72,1.22c.77,0,1.41-.16,1.95-.47s1-.73,1.39-1.25l1.31,1.04Zm-6.84-15.77l1.77,1.99,1.77-1.99h1.88v.12l-2.98,3.21h-1.34l-2.93-3.21v-.12h1.83Zm1.79,6.86c-.86,0-1.59.31-2.18.94s-.96,1.52-1.11,2.7h6.34v-.16c-.05-.84-.3-1.63-.73-2.37s-1.21-1.1-2.31-1.1Z"/><path class="v" d="m204.23,58.36c-.74,0-1.35.17-1.83.5s-.83.78-1.07,1.33v9h-2.17v-12.68h2.11l.05,1.45c.32-.52.73-.93,1.22-1.23s1.09-.46,1.79-.46c.41,0,.73.05.96.16v2.02c-.33-.06-.68-.09-1.07-.09Z"/><path class="v" d="m212.56,58.1c-.7,0-1.31.19-1.84.56s-.95.86-1.25,1.46v9.06h-2.17v-12.68h2.05l.07,1.58c.96-1.21,2.22-1.82,3.79-1.82,1.25,0,2.24.35,2.97,1.05s1.1,1.89,1.1,3.55v8.31h-2.18v-8.33c0-.99-.22-1.7-.65-2.12s-1.06-.63-1.88-.63Z"/><path class="v" d="m228.38,69.18c-.14-.3-.24-.75-.3-1.34-.41.43-.91.8-1.52,1.11s-1.3.46-2.09.46c-1.3,0-2.34-.36-3.12-1.09s-1.17-1.62-1.17-2.67c0-1.36.52-2.39,1.55-3.1s2.42-1.06,4.16-1.06h2.14v-1.01c0-.75-.22-1.35-.67-1.8s-1.12-.67-2-.67c-.82,0-1.48.2-1.99.6s-.76.87-.76,1.4h-2.17c0-.91.46-1.76,1.37-2.55s2.14-1.2,3.67-1.2c1.38,0,2.5.35,3.39,1.05s1.32,1.77,1.32,3.19v5.91c0,.42.04.87.11,1.35s.19.89.33,1.23v.19h-2.26Zm-3.6-1.66c.78,0,1.46-.2,2.03-.59s.98-.82,1.21-1.3v-2.61h-1.79c-2.59,0-3.88.78-3.88,2.34,0,.6.2,1.11.61,1.53s1.01.63,1.82.63Zm-.26-12.89l2.27-3.45h2.61l-3.14,3.45h-1.75Z"/><path class="v" d="m244.62,58.36c-.74,0-1.35.17-1.83.5s-.83.78-1.07,1.33v9h-2.17v-12.68h2.11l.05,1.45c.32-.52.73-.93,1.22-1.23s1.09-.46,1.79-.46c.41,0,.73.05.96.16v2.02c-.33-.06-.68-.09-1.07-.09Z"/><path class="v" d="m246.88,62.99v-.27c0-1.84.52-3.37,1.55-4.6s2.43-1.85,4.21-1.85,3.2.62,4.24,1.85,1.55,2.76,1.55,4.6v.27c0,1.84-.52,3.37-1.55,4.59s-2.44,1.84-4.21,1.84-3.19-.61-4.22-1.84-1.55-2.76-1.55-4.59Zm2.17-.27v.27c0,1.26.3,2.35.9,3.27s1.5,1.38,2.71,1.38,2.08-.46,2.68-1.38.9-2.01.9-3.27v-.27c0-1.24-.3-2.33-.9-3.26s-1.5-1.4-2.71-1.4-2.09.47-2.69,1.4-.9,2.02-.9,3.26Z"/><path class="v" d="m266.22,67.64c.77,0,1.45-.23,2.03-.69s.9-1.05.96-1.77h2.06c-.05,1.13-.57,2.12-1.56,2.97s-2.15,1.27-3.49,1.27c-1.91,0-3.32-.63-4.25-1.89s-1.39-2.74-1.39-4.44v-.49c0-1.7.46-3.18,1.39-4.44s2.34-1.89,4.25-1.89c1.48,0,2.68.44,3.6,1.32s1.4,1.97,1.45,3.28h-2.06c-.05-.78-.35-1.45-.88-1.99s-1.24-.82-2.1-.82-1.59.23-2.09.68-.86,1.03-1.07,1.72-.31,1.41-.31,2.14v.49c0,.74.1,1.46.3,2.16s.56,1.27,1.06,1.72,1.21.67,2.1.67Zm-2.26-16.44l1.77,1.99,1.77-1.99h1.88v.12l-2.98,3.21h-1.34l-2.93-3.21v-.12h1.83Z"/><path class="v" d="m278.97,58.1c-.7,0-1.31.19-1.84.56-.53.38-.95.86-1.25,1.46v9.06h-2.17v-12.68h2.05l.07,1.58c.96-1.21,2.22-1.82,3.78-1.82,1.25,0,2.24.35,2.97,1.05s1.1,1.89,1.1,3.55v8.31h-2.18v-8.33c0-.99-.22-1.7-.65-2.12s-1.06-.63-1.88-.63Z"/><path class="v" d="m287.07,54.65l2.27-3.45h2.61l-3.14,3.45h-1.75Zm2.24,1.85v12.68h-2.17v-12.68h2.17Z"/><path class="v" d="m94.18,95.18c-.17.05-.4.11-.67.16s-.61.08-1,.08c-.8,0-1.49-.25-2.06-.74s-.86-1.38-.86-2.65v-7.86h-2.32v-1.66h2.32v-3.08h2.17v3.08h2.37v1.66h-2.37v7.88c0,.65.14,1.06.42,1.24s.61.27.97.27c.18,0,.37-.02.57-.05s.35-.06.45-.09v1.77Z"/><path class="v" d="m106.69,92.97c-.41.62-1,1.19-1.76,1.69s-1.76.76-3.01.76c-1.77,0-3.18-.57-4.24-1.72s-1.59-2.62-1.59-4.41v-.49c0-1.38.26-2.56.79-3.53s1.21-1.71,2.06-2.23,1.74-.77,2.7-.77c1.81,0,3.13.59,3.97,1.78s1.25,2.66,1.25,4.44v.97h-8.58c.03,1.16.38,2.15,1.04,2.97s1.57,1.22,2.72,1.22c.77,0,1.41-.16,1.95-.47s1-.73,1.39-1.25l1.31,1.04Zm-5.05-8.92c-.86,0-1.59.31-2.18.94s-.96,1.52-1.11,2.7h6.34v-.16c-.05-.84-.3-1.63-.73-2.37s-1.21-1.1-2.31-1.1Z"/><path class="v" d="m115.18,95.42c-1.52,0-2.73-.49-3.62-1.46v6.11h-2.18v-17.55h1.99l.11,1.39c.89-1.09,2.11-1.63,3.67-1.63s2.83.59,3.68,1.78,1.28,2.75,1.28,4.69v.25c0,1.85-.43,3.39-1.28,4.61s-2.07,1.83-3.64,1.83Zm-.67-11.32c-.73,0-1.34.17-1.82.5s-.86.75-1.14,1.25v6.07c.29.5.67.91,1.14,1.24s1.08.49,1.83.49c1.17,0,2.03-.46,2.57-1.38s.81-2.01.81-3.27v-.25c0-1.26-.27-2.35-.81-3.26s-1.41-1.38-2.6-1.38Z"/><path class="v" d="m125.22,77.18v18h-2.18v-18h2.18Z"/><path class="v" d="m128.13,88.99v-.27c0-1.84.52-3.37,1.55-4.6s2.43-1.85,4.21-1.85,3.2.62,4.24,1.85,1.55,2.76,1.55,4.6v.27c0,1.84-.52,3.37-1.55,4.59s-2.44,1.84-4.21,1.84-3.19-.61-4.22-1.84-1.55-2.76-1.55-4.59Zm2.17-.27v.27c0,1.26.3,2.35.9,3.27s1.5,1.38,2.71,1.38,2.08-.46,2.68-1.38.9-2.01.9-3.27v-.27c0-1.24-.3-2.33-.9-3.26s-1.5-1.4-2.71-1.4-2.09.47-2.69,1.4-.9,2.02-.9,3.26Z"/><path class="v" d="m147.76,95.18c-.17.05-.4.11-.67.16s-.61.08-1,.08c-.8,0-1.49-.25-2.06-.74s-.86-1.38-.86-2.65v-7.86h-2.32v-1.66h2.32v-3.08h2.17v3.08h2.37v1.66h-2.37v7.88c0,.65.14,1.06.42,1.24s.61.27.97.27c.18,0,.37-.02.57-.05s.35-.06.45-.09v1.77Z"/><path class="v" d="m158.07,95.18c-.14-.3-.24-.75-.3-1.34-.41.43-.91.8-1.52,1.11s-1.3.46-2.09.46c-1.3,0-2.34-.36-3.12-1.09s-1.17-1.62-1.17-2.67c0-1.36.52-2.39,1.55-3.1s2.42-1.06,4.16-1.06h2.14v-1.01c0-.75-.22-1.35-.67-1.8s-1.12-.67-2-.67c-.82,0-1.48.2-1.99.6s-.76.87-.76,1.4h-2.17c0-.91.46-1.76,1.37-2.55s2.14-1.2,3.67-1.2c1.38,0,2.5.35,3.39,1.05s1.32,1.77,1.32,3.19v5.91c0,.42.04.87.11,1.35s.19.89.33,1.23v.19h-2.26Zm-3.6-1.66c.78,0,1.46-.2,2.03-.59s.98-.82,1.21-1.3v-2.61h-1.79c-2.59,0-3.88.78-3.88,2.34,0,.6.2,1.11.61,1.53s1.01.63,1.82.63Z"/><path class="v" d="m176.14,78.03v17.16h-2.17v-14.45l-4.37,1.59v-1.96l6.2-2.34h.34Z"/><path class="v" d="m192.99,85.58c0,1.11-.1,2.23-.29,3.36s-.56,2.17-1.11,3.12-1.37,1.71-2.44,2.29-2.5.87-4.27.87h-.22v-1.84h.22c1.57,0,2.78-.27,3.62-.81s1.43-1.24,1.76-2.12.52-1.8.56-2.78c-.45.54-1,.98-1.63,1.31s-1.32.5-2.06.5c-1.12,0-2.05-.28-2.77-.84s-1.25-1.28-1.59-2.15-.52-1.77-.52-2.7c0-1.62.45-3.01,1.34-4.17s2.21-1.73,3.96-1.73c1.3,0,2.35.34,3.15,1.01s1.38,1.54,1.75,2.59.54,2.16.54,3.3v.79Zm-8.6-1.91c0,1.02.26,1.94.77,2.77s1.29,1.24,2.33,1.24c.74,0,1.42-.22,2.02-.67s1.05-1,1.33-1.65v-.86c0-1.55-.33-2.75-.99-3.57s-1.42-1.24-2.29-1.24c-1.01,0-1.79.38-2.34,1.14s-.83,1.71-.83,2.84Z"/><path class="v" d="m206.91,89.62c0,1.62-.45,2.99-1.35,4.11s-2.22,1.69-3.94,1.69c-1.23,0-2.25-.33-3.06-.98s-1.42-1.48-1.82-2.48-.6-2.03-.6-3.09v-1.02c0-1.6.22-3.15.67-4.64s1.26-2.72,2.44-3.67,2.87-1.44,5.06-1.44h.19v1.84h-.19c-1.38,0-2.5.27-3.34.8s-1.47,1.22-1.88,2.07-.66,1.76-.74,2.72c.47-.53,1.02-.92,1.65-1.17s1.3-.37,2.02-.37c1.13,0,2.06.27,2.78.82s1.26,1.25,1.6,2.12.52,1.76.52,2.69Zm-8.6-.68c0,1.52.34,2.68,1.01,3.48s1.44,1.21,2.29,1.21c1,0,1.78-.37,2.33-1.1s.83-1.67.83-2.81c0-1.02-.25-1.93-.76-2.73s-1.29-1.21-2.34-1.21c-.76,0-1.45.23-2.06.68s-1.05,1-1.29,1.65v.82Z"/><path class="v" d="m216.6,78.03v17.16h-2.17v-14.45l-4.37,1.59v-1.96l6.2-2.34h.34Z"/><path class="v" d="m235.17,85.77v1.78h-11.74v-1.78h11.74Z"/><path class="v" d="m245.84,78.03v17.16h-2.17v-14.45l-4.37,1.59v-1.96l6.2-2.34h.34Z"/><path class="v" d="m262.69,85.58c0,1.11-.1,2.23-.29,3.36s-.56,2.17-1.11,3.12-1.37,1.71-2.44,2.29-2.5.87-4.27.87h-.22v-1.84h.22c1.57,0,2.78-.27,3.62-.81s1.43-1.24,1.76-2.12.52-1.8.56-2.78c-.45.54-1,.98-1.63,1.31s-1.32.5-2.06.5c-1.12,0-2.05-.28-2.77-.84s-1.25-1.28-1.59-2.15-.52-1.77-.52-2.7c0-1.62.45-3.01,1.34-4.17s2.21-1.73,3.96-1.73c1.3,0,2.35.34,3.15,1.01s1.38,1.54,1.75,2.59.54,2.16.54,3.3v.79Zm-8.6-1.91c0,1.02.26,1.94.77,2.77s1.29,1.24,2.33,1.24c.74,0,1.42-.22,2.02-.67s1.05-1,1.33-1.65v-.86c0-1.55-.33-2.75-.99-3.57s-1.42-1.24-2.29-1.24c-1.01,0-1.79.38-2.34,1.14s-.83,1.71-.83,2.84Z"/><path class="v" d="m276.44,90.57c0,1.56-.52,2.76-1.56,3.6s-2.33,1.25-3.86,1.25-2.82-.42-3.86-1.25-1.56-2.04-1.56-3.6c0-.95.26-1.79.77-2.53s1.21-1.28,2.08-1.66c-.76-.37-1.36-.89-1.8-1.56s-.66-1.43-.66-2.26c0-1.49.47-2.64,1.42-3.46s2.15-1.22,3.6-1.22,2.67.41,3.62,1.22,1.42,1.96,1.42,3.46c0,.84-.23,1.6-.68,2.27s-1.06,1.19-1.82,1.55c.88.38,1.59.93,2.11,1.66s.79,1.57.79,2.52Zm-2.18-.05c0-.95-.3-1.73-.91-2.33s-1.39-.9-2.36-.9-1.78.3-2.36.9-.87,1.38-.87,2.33.29,1.75.87,2.3,1.38.82,2.38.82,1.8-.27,2.38-.82.87-1.31.87-2.3Zm-.39-7.92c0-.85-.27-1.55-.8-2.1s-1.22-.83-2.07-.83-1.54.26-2.06.79-.79,1.24-.79,2.14.26,1.59.79,2.12,1.21.8,2.07.8,1.54-.27,2.07-.8.79-1.24.79-2.12Z"/><path class="v" d="m289.89,85.29v2.6c0,2.8-.48,4.75-1.45,5.86s-2.28,1.66-3.93,1.66-2.94-.55-3.93-1.66-1.48-3.06-1.48-5.86v-2.6c0-2.79.49-4.72,1.46-5.79s2.28-1.61,3.91-1.61,2.97.54,3.94,1.61,1.46,3.01,1.46,5.79Zm-2.18,2.95v-3.32c0-1.92-.27-3.28-.82-4.08s-1.35-1.2-2.4-1.2-1.82.4-2.37,1.2-.83,2.16-.83,4.08v3.32c0,1.91.28,3.28.84,4.12s1.35,1.27,2.38,1.27,1.86-.42,2.4-1.27.8-2.22.8-4.12Z"/><path class="u" d="m394.07,62.49h-4.03v6.69h-2.26v-17.06h6.29c1.94,0,3.42.49,4.45,1.46s1.54,2.22,1.54,3.74c0,1.65-.51,2.92-1.54,3.82s-2.51,1.35-4.45,1.35Zm-4.03-8.52v6.68h4.03c1.33,0,2.28-.31,2.86-.93s.87-1.41.87-2.38c0-.88-.29-1.66-.87-2.34s-1.53-1.03-2.86-1.03h-4.03Z"/><path class="u" d="m407.66,58.36c-.74,0-1.35.17-1.83.5s-.83.78-1.07,1.33v9h-2.17v-12.68h2.11l.05,1.45c.32-.52.73-.93,1.22-1.23s1.09-.46,1.79-.46c.41,0,.73.05.96.16v2.02c-.33-.06-.68-.09-1.07-.09Z"/><path class="u" d="m418.59,69.18l-.05-1.25c-.39.47-.89.83-1.5,1.1s-1.34.39-2.2.39c-1.24,0-2.25-.37-3.01-1.1s-1.15-1.95-1.15-3.63v-8.18h2.17v8.2c0,1.14.24,1.9.72,2.29s1.02.58,1.61.58c.88,0,1.59-.17,2.12-.5s.93-.78,1.18-1.34v-9.23h2.18v12.68h-2.07Zm-5.39-16.64c0-.67.24-1.25.72-1.72s1.08-.71,1.8-.71,1.31.24,1.79.71.73,1.05.73,1.72-.24,1.26-.73,1.71-1.08.68-1.79.68-1.32-.23-1.8-.68-.72-1.02-.72-1.71Zm1.16,0c0,.34.13.65.38.93s.58.42.98.42.72-.13.98-.4.38-.58.38-.94-.13-.69-.38-.97-.58-.42-.98-.42-.72.14-.98.42-.38.6-.38.97Z"/><path class="u" d="m429.03,58.1c-.77,0-1.39.16-1.86.49s-.82.76-1.05,1.3v9.29h-2.18v-12.68h2.06l.06,1.38c.91-1.08,2.16-1.62,3.75-1.62.81,0,1.54.16,2.17.49s1.12.84,1.46,1.55c.42-.61.97-1.1,1.65-1.48s1.47-.56,2.38-.56c1.36,0,2.41.36,3.15,1.09s1.11,1.89,1.11,3.49v8.33h-2.18v-8.36c0-1.06-.24-1.78-.73-2.16s-1.15-.57-1.97-.57c-.88,0-1.56.26-2.06.78s-.79,1.15-.87,1.89v8.41h-2.17v-8.34c0-.99-.25-1.7-.74-2.12s-1.15-.63-1.97-.63Z"/><path class="u" d="m455.03,66.97c-.41.62-1,1.19-1.76,1.69s-1.76.76-3.01.76c-1.77,0-3.18-.57-4.24-1.72s-1.59-2.62-1.59-4.41v-.49c0-1.38.26-2.56.79-3.53s1.21-1.71,2.06-2.23,1.74-.77,2.7-.77c1.81,0,3.13.59,3.97,1.78s1.25,2.66,1.25,4.44v.97h-8.58c.03,1.16.38,2.15,1.04,2.97s1.57,1.22,2.72,1.22c.77,0,1.41-.16,1.95-.47s1-.73,1.39-1.25l1.31,1.04Zm-6.84-15.77l1.77,1.99,1.77-1.99h1.88v.12l-2.98,3.21h-1.34l-2.93-3.21v-.12h1.83Zm1.79,6.86c-.86,0-1.59.31-2.18.94s-.96,1.52-1.11,2.7h6.34v-.16c-.05-.84-.3-1.63-.73-2.37s-1.21-1.1-2.31-1.1Z"/><path class="u" d="m462.79,58.36c-.74,0-1.35.17-1.83.5s-.83.78-1.07,1.33v9h-2.17v-12.68h2.11l.05,1.45c.32-.52.73-.93,1.22-1.23s1.09-.46,1.79-.46c.41,0,.73.05.96.16v2.02c-.33-.06-.68-.09-1.07-.09Z"/><path class="u" d="m471.12,58.1c-.7,0-1.31.19-1.84.56s-.95.86-1.25,1.46v9.06h-2.17v-12.68h2.05l.07,1.58c.96-1.21,2.22-1.82,3.79-1.82,1.25,0,2.24.35,2.97,1.05s1.1,1.89,1.1,3.55v8.31h-2.18v-8.33c0-.99-.22-1.7-.65-2.12s-1.06-.63-1.88-.63Z"/><path class="u" d="m486.94,69.18c-.14-.3-.24-.75-.3-1.34-.41.43-.91.8-1.52,1.11s-1.3.46-2.09.46c-1.3,0-2.34-.36-3.12-1.09s-1.17-1.62-1.17-2.67c0-1.36.52-2.39,1.55-3.1s2.42-1.06,4.16-1.06h2.14v-1.01c0-.75-.22-1.35-.67-1.8s-1.12-.67-2-.67c-.82,0-1.48.2-1.99.6s-.76.87-.76,1.4h-2.17c0-.91.46-1.76,1.37-2.55s2.14-1.2,3.67-1.2c1.38,0,2.5.35,3.39,1.05s1.32,1.77,1.32,3.19v5.91c0,.42.04.87.11,1.35s.19.89.33,1.23v.19h-2.26Zm-3.6-1.66c.78,0,1.46-.2,2.03-.59s.98-.82,1.21-1.3v-2.61h-1.79c-2.59,0-3.88.78-3.88,2.34,0,.6.2,1.11.61,1.53s1.01.63,1.82.63Zm-.26-12.89l2.27-3.45h2.61l-3.14,3.45h-1.75Z"/><path class="u" d="m503.19,58.36c-.74,0-1.35.17-1.83.5s-.83.78-1.07,1.33v9h-2.17v-12.68h2.11l.05,1.45c.32-.52.73-.93,1.22-1.23s1.09-.46,1.79-.46c.41,0,.73.05.96.16v2.02c-.33-.06-.68-.09-1.07-.09Z"/><path class="u" d="m505.45,62.99v-.27c0-1.84.52-3.37,1.55-4.6s2.43-1.85,4.21-1.85,3.2.62,4.24,1.85,1.55,2.76,1.55,4.6v.27c0,1.84-.52,3.37-1.55,4.59s-2.44,1.84-4.21,1.84-3.19-.61-4.22-1.84-1.55-2.76-1.55-4.59Zm2.17-.27v.27c0,1.26.3,2.35.9,3.27s1.5,1.38,2.71,1.38,2.08-.46,2.68-1.38.9-2.01.9-3.27v-.27c0-1.24-.3-2.33-.9-3.26s-1.5-1.4-2.71-1.4-2.09.47-2.69,1.4-.9,2.02-.9,3.26Z"/><path class="u" d="m524.78,67.64c.77,0,1.45-.23,2.03-.69s.9-1.05.96-1.77h2.06c-.05,1.13-.57,2.12-1.56,2.97s-2.15,1.27-3.49,1.27c-1.91,0-3.32-.63-4.25-1.89s-1.39-2.74-1.39-4.44v-.49c0-1.7.46-3.18,1.39-4.44s2.34-1.89,4.25-1.89c1.48,0,2.68.44,3.6,1.32s1.4,1.97,1.45,3.28h-2.06c-.05-.78-.35-1.45-.88-1.99s-1.24-.82-2.1-.82-1.59.23-2.09.68-.86,1.03-1.07,1.72-.31,1.41-.31,2.14v.49c0,.74.1,1.46.3,2.16s.56,1.27,1.06,1.72,1.21.67,2.1.67Zm-2.26-16.44l1.77,1.99,1.77-1.99h1.88v.12l-2.98,3.21h-1.34l-2.93-3.21v-.12h1.83Z"/><path class="u" d="m537.53,58.1c-.7,0-1.31.19-1.84.56s-.95.86-1.25,1.46v9.06h-2.17v-12.68h2.05l.07,1.58c.96-1.21,2.22-1.82,3.79-1.82,1.25,0,2.24.35,2.97,1.05s1.1,1.89,1.1,3.55v8.31h-2.18v-8.33c0-.99-.22-1.7-.65-2.12s-1.06-.63-1.88-.63Z"/><path class="u" d="m545.63,54.65l2.27-3.45h2.61l-3.14,3.45h-1.75Zm2.24,1.85v12.68h-2.17v-12.68h2.17Z"/><path class="u" d="m392.82,95.18c-.17.05-.4.11-.67.16s-.61.08-1,.08c-.8,0-1.49-.25-2.06-.74s-.86-1.38-.86-2.65v-7.86h-2.32v-1.66h2.32v-3.08h2.17v3.08h2.37v1.66h-2.37v7.88c0,.65.14,1.06.42,1.24s.61.27.97.27c.18,0,.37-.02.57-.05s.35-.06.45-.09v1.77Z"/><path class="u" d="m405.34,92.97c-.41.62-1,1.19-1.76,1.69s-1.76.76-3.01.76c-1.77,0-3.18-.57-4.24-1.72s-1.59-2.62-1.59-4.41v-.49c0-1.38.26-2.56.79-3.53s1.21-1.71,2.06-2.23,1.74-.77,2.7-.77c1.81,0,3.13.59,3.97,1.78s1.25,2.66,1.25,4.44v.97h-8.58c.03,1.16.38,2.15,1.04,2.97s1.57,1.22,2.72,1.22c.77,0,1.41-.16,1.95-.47s1-.73,1.39-1.25l1.31,1.04Zm-5.05-8.92c-.86,0-1.59.31-2.18.94s-.96,1.52-1.11,2.7h6.34v-.16c-.05-.84-.3-1.63-.73-2.37s-1.21-1.1-2.31-1.1Z"/><path class="u" d="m413.82,95.42c-1.52,0-2.73-.49-3.62-1.46v6.11h-2.18v-17.55h1.99l.11,1.39c.89-1.09,2.11-1.63,3.67-1.63s2.83.59,3.68,1.78,1.28,2.75,1.28,4.69v.25c0,1.85-.43,3.39-1.28,4.61s-2.07,1.83-3.64,1.83Zm-.67-11.32c-.73,0-1.34.17-1.82.5s-.86.75-1.14,1.25v6.07c.29.5.67.91,1.14,1.24s1.08.49,1.83.49c1.17,0,2.03-.46,2.57-1.38s.81-2.01.81-3.27v-.25c0-1.26-.27-2.35-.81-3.26s-1.41-1.38-2.6-1.38Z"/><path class="u" d="m423.86,77.18v18h-2.18v-18h2.18Z"/><path class="u" d="m426.77,88.99v-.27c0-1.84.52-3.37,1.55-4.6s2.43-1.85,4.21-1.85,3.2.62,4.24,1.85,1.55,2.76,1.55,4.6v.27c0,1.84-.52,3.37-1.55,4.59s-2.44,1.84-4.21,1.84-3.19-.61-4.22-1.84-1.55-2.76-1.55-4.59Zm2.17-.27v.27c0,1.26.3,2.35.9,3.27s1.5,1.38,2.71,1.38,2.08-.46,2.68-1.38.9-2.01.9-3.27v-.27c0-1.24-.3-2.33-.9-3.26s-1.5-1.4-2.71-1.4-2.09.47-2.69,1.4-.9,2.02-.9,3.26Z"/><path class="u" d="m446.4,95.18c-.17.05-.4.11-.67.16s-.61.08-1,.08c-.8,0-1.49-.25-2.06-.74s-.86-1.38-.86-2.65v-7.86h-2.32v-1.66h2.32v-3.08h2.17v3.08h2.37v1.66h-2.37v7.88c0,.65.14,1.06.42,1.24s.61.27.97.27c.18,0,.37-.02.57-.05s.35-.06.45-.09v1.77Z"/><path class="u" d="m456.71,95.18c-.14-.3-.24-.75-.3-1.34-.41.43-.91.8-1.52,1.11s-1.3.46-2.09.46c-1.3,0-2.34-.36-3.12-1.09s-1.17-1.62-1.17-2.67c0-1.36.52-2.39,1.55-3.1s2.42-1.06,4.16-1.06h2.14v-1.01c0-.75-.22-1.35-.67-1.8s-1.12-.67-2-.67c-.82,0-1.48.2-1.99.6s-.76.87-.76,1.4h-2.17c0-.91.46-1.76,1.37-2.55s2.14-1.2,3.67-1.2c1.38,0,2.5.35,3.39,1.05s1.32,1.77,1.32,3.19v5.91c0,.42.04.87.11,1.35s.19.89.33,1.23v.19h-2.26Zm-3.6-1.66c.78,0,1.46-.2,2.03-.59s.98-.82,1.21-1.3v-2.61h-1.79c-2.59,0-3.88.78-3.88,2.34,0,.6.2,1.11.61,1.53s1.01.63,1.82.63Z"/><path class="u" d="m478.84,93.4v1.78h-11.17v-1.56l5.59-6.22c1.03-1.15,1.73-2.05,2.09-2.71s.54-1.32.54-1.99c0-.84-.26-1.55-.78-2.14s-1.25-.89-2.2-.89c-1.14,0-1.99.32-2.55.97s-.84,1.48-.84,2.5h-2.17c0-1.44.47-2.67,1.42-3.7s2.33-1.55,4.15-1.55c1.61,0,2.87.42,3.78,1.25s1.37,1.94,1.37,3.3c0,1.01-.31,2.02-.94,3.05s-1.38,2.01-2.26,2.95l-4.57,4.96h8.55Z"/><path class="u" d="m491.85,85.29v2.6c0,2.8-.48,4.75-1.45,5.86s-2.28,1.66-3.93,1.66-2.94-.55-3.93-1.66-1.48-3.06-1.48-5.86v-2.6c0-2.79.49-4.72,1.46-5.79s2.28-1.61,3.91-1.61,2.97.54,3.94,1.61,1.46,3.01,1.46,5.79Zm-2.18,2.95v-3.32c0-1.92-.27-3.28-.82-4.08s-1.35-1.2-2.4-1.2-1.82.4-2.37,1.2-.83,2.16-.83,4.08v3.32c0,1.91.28,3.28.84,4.12s1.35,1.27,2.38,1.27,1.86-.42,2.4-1.27.8-2.22.8-4.12Z"/><path class="u" d="m505.34,85.29v2.6c0,2.8-.48,4.75-1.45,5.86s-2.28,1.66-3.93,1.66-2.94-.55-3.93-1.66-1.48-3.06-1.48-5.86v-2.6c0-2.79.49-4.72,1.46-5.79s2.28-1.61,3.91-1.61,2.97.54,3.94,1.61,1.46,3.01,1.46,5.79Zm-2.18,2.95v-3.32c0-1.92-.27-3.28-.82-4.08s-1.35-1.2-2.4-1.2-1.82.4-2.37,1.2-.83,2.16-.83,4.08v3.32c0,1.91.28,3.28.84,4.12s1.35,1.27,2.38,1.27,1.86-.42,2.4-1.27.8-2.22.8-4.12Z"/><path class="u" d="m515.25,78.03v17.16h-2.17v-14.45l-4.37,1.59v-1.96l6.2-2.34h.34Z"/><path class="u" d="m533.82,85.77v1.78h-11.74v-1.78h11.74Z"/><path class="u" d="m548.54,93.4v1.78h-11.17v-1.56l5.59-6.22c1.03-1.15,1.73-2.05,2.09-2.71s.54-1.32.54-1.99c0-.84-.26-1.55-.78-2.14s-1.25-.89-2.2-.89c-1.14,0-1.99.32-2.55.97s-.84,1.48-.84,2.5h-2.17c0-1.44.47-2.67,1.42-3.7s2.33-1.55,4.15-1.55c1.61,0,2.87.42,3.78,1.25s1.37,1.94,1.37,3.3c0,1.01-.31,2.02-.94,3.05s-1.38,2.01-2.26,2.95l-4.57,4.96h8.55Z"/><path class="u" d="m561.56,85.29v2.6c0,2.8-.48,4.75-1.45,5.86s-2.28,1.66-3.93,1.66-2.94-.55-3.93-1.66-1.48-3.06-1.48-5.86v-2.6c0-2.79.49-4.72,1.46-5.79s2.28-1.61,3.91-1.61,2.97.54,3.94,1.61,1.46,3.01,1.46,5.79Zm-2.18,2.95v-3.32c0-1.92-.27-3.28-.82-4.08s-1.35-1.2-2.4-1.2-1.82.4-2.37,1.2-.83,2.16-.83,4.08v3.32c0,1.91.28,3.28.84,4.12s1.35,1.27,2.38,1.27,1.86-.42,2.4-1.27.8-2.22.8-4.12Z"/><path class="u" d="m575.52,93.4v1.78h-11.17v-1.56l5.59-6.22c1.03-1.15,1.73-2.05,2.09-2.71s.54-1.32.54-1.99c0-.84-.26-1.55-.78-2.14s-1.25-.89-2.2-.89c-1.14,0-1.99.32-2.55.97s-.84,1.48-.84,2.5h-2.17c0-1.44.47-2.67,1.42-3.7s2.33-1.55,4.15-1.55c1.61,0,2.87.42,3.78,1.25s1.37,1.94,1.37,3.3c0,1.01-.31,2.02-.94,3.05s-1.38,2.01-2.26,2.95l-4.57,4.96h8.55Z"/><path class="u" d="m588.53,85.29v2.6c0,2.8-.48,4.75-1.45,5.86s-2.28,1.66-3.93,1.66-2.94-.55-3.93-1.66-1.48-3.06-1.48-5.86v-2.6c0-2.79.49-4.72,1.46-5.79s2.28-1.61,3.91-1.61,2.97.54,3.94,1.61,1.46,3.01,1.46,5.79Zm-2.18,2.95v-3.32c0-1.92-.27-3.28-.82-4.08s-1.35-1.2-2.4-1.2-1.82.4-2.37,1.2-.83,2.16-.83,4.08v3.32c0,1.91.28,3.28.84,4.12s1.35,1.27,2.38,1.27,1.86-.42,2.4-1.27.8-2.22.8-4.12Z"/><path class="u" d="m313.46,21.56h-4.23v4.79h-3.21v-4.79h-4.25v-3.06h4.25v-4.57h3.21v4.57h4.23v3.06Z"/><path class="u" d="m323.58,10.98v17.09h-3.39v-13.07l-4.03,1.25v-2.74l7.05-2.53h.36Z"/><path class="u" d="m332.47,25.18v2.31c-.01.88-.23,1.77-.66,2.66s-.99,1.62-1.66,2.2l-1.76-.93c.29-.53.56-1.08.83-1.65s.39-1.28.39-2.12v-2.47h2.86Z"/><path class="u" d="m340.26,20.68h-1.8v-2.66h1.8c.85,0,1.49-.21,1.9-.64s.63-1,.63-1.72c0-.63-.19-1.15-.57-1.56s-.96-.62-1.74-.62c-.62,0-1.15.17-1.61.52s-.69.82-.69,1.42h-3.39c0-1.41.54-2.54,1.63-3.39s2.41-1.28,3.96-1.28c1.73,0,3.12.41,4.19,1.24s1.6,2.03,1.6,3.63c0,.73-.23,1.44-.68,2.1s-1.09,1.19-1.92,1.58c.95.34,1.67.85,2.14,1.54s.71,1.5.71,2.43c0,1.6-.58,2.84-1.73,3.71s-2.59,1.31-4.32,1.31c-.96,0-1.88-.18-2.77-.53s-1.61-.89-2.18-1.61-.85-1.65-.85-2.77h3.4c0,.63.24,1.15.71,1.56s1.07.62,1.79.62c.8,0,1.43-.21,1.89-.64s.68-1,.68-1.7c0-.91-.25-1.56-.75-1.95s-1.18-.59-2.04-.59Z"/><path class="u" d="m352.67,14c0-.88.31-1.64.94-2.28s1.38-.96,2.25-.96,1.6.32,2.21.96.92,1.4.92,2.28-.31,1.63-.92,2.25-1.35.93-2.21.93-1.62-.31-2.25-.93-.94-1.37-.94-2.25Zm1.71,0c0,.41.15.76.44,1.04s.64.42,1.04.42.73-.14,1.01-.42.41-.62.41-1.04-.14-.79-.41-1.07-.61-.43-1.01-.43-.74.14-1.04.43-.44.64-.44,1.07Z"/><path class="u" d="m371.93,22.38h3.52c-.12,1.73-.77,3.15-1.95,4.26s-2.82,1.66-4.92,1.66-3.91-.74-5.17-2.21-1.89-3.47-1.89-5.99v-1.11c0-2.52.64-4.53,1.93-6.01s3.01-2.22,5.16-2.22,3.77.57,4.9,1.71,1.78,2.58,1.95,4.33h-3.52c-.08-1.02-.36-1.79-.85-2.34s-1.31-.81-2.48-.81c-2.34,0-3.52,1.77-3.52,5.32v1.14c0,1.77.27,3.09.8,3.98s1.43,1.34,2.68,1.34c1.11,0,1.92-.25,2.44-.76s.82-1.26.91-2.28Z"/><line class="h" x1="345.63" y1="295.03" x2="345.63" y2="71.05"/><circle cx="345.63" cy="71.05" r="6"/><line class="m" x1="322.41" y1="295.03" x2="322.41" y2="71.05"/><circle class="q" cx="322.41" cy="71.05" r="6"/><path class="j" d="m318.62,51.73c6.42-10.53,23.72-9.82,30.19-.49"/><polygon class="u" points="337.97 51.81 338.18 49.82 347.99 50.89 348.34 41.04 350.34 41.11 349.91 53.12 337.97 51.81"/></svg>