<?xml version="1.0" encoding="UTF-8"?>
<svg id="Layer_7" data-name="Layer 7" xmlns="http://www.w3.org/2000/svg" viewBox="0 0 660 280">
  <defs>
    <style>
      .cls-1 {
        fill: #fff;
      }

      .cls-2 {
        fill: #f0f;
      }

      .cls-3 {
        fill: #5b6872;
      }

      .cls-4 {
        fill: #606060;
      }

      .cls-5 {
        fill: none;
        stroke: #606060;
        stroke-linecap: round;
        stroke-miterlimit: 10;
      }

      .cls-6, .cls-7 {
        opacity: .2;
      }

      .cls-6, .cls-8, .cls-9 {
        fill: #2b3990;
      }

      .cls-7, .cls-10, .cls-11 {
        fill: #de2d26;
      }

      .cls-8, .cls-10 {
        opacity: .7;
      }

      .cls-9, .cls-11 {
        opacity: .4;
      }
    </style>
  </defs>
  <polyline class="cls-1" points="660 284.29 0 284.29 0 0 660 0"/>
  <g>
    <g>
      <path class="cls-4" d="m182.81,267.54h-7.34v-1.33h7.34v1.33Z"/>
      <path class="cls-4" d="m190.69,273.26h-1.63v-10.84l-3.28,1.2v-1.48l4.66-1.75h.25v12.86Z"/>
      <path class="cls-4" d="m203.48,267.8c0,1.9-.33,3.32-.98,4.25s-1.67,1.39-3.05,1.39-2.38-.45-3.03-1.36c-.66-.91-1-2.26-1.02-4.06v-2.17c0-1.88.33-3.28.98-4.19s1.67-1.37,3.06-1.37,2.39.44,3.04,1.32c.65.88.98,2.24,1,4.08v2.11Zm-1.63-2.22c0-1.38-.19-2.38-.58-3.01s-1-.95-1.84-.95-1.44.31-1.82.94-.58,1.59-.59,2.89v2.6c0,1.38.2,2.4.6,3.06.4.66,1.01.99,1.82.99s1.4-.31,1.79-.93.59-1.6.61-2.94v-2.66Z"/>
      <path class="cls-4" d="m208.29,262.57c0-.61.22-1.14.65-1.6s.97-.69,1.59-.69,1.13.23,1.56.68.65.99.65,1.6-.22,1.15-.65,1.59-.95.66-1.56.66-1.14-.22-1.58-.66-.66-.97-.66-1.59Zm2.24,1.12c.32,0,.58-.1.8-.31s.33-.48.33-.81-.11-.62-.33-.84-.48-.33-.8-.33-.59.12-.81.35-.33.5-.33.82.11.58.33.8.49.32.81.32Z"/>
      <path class="cls-4" d="m224.77,269.2c-.16,1.35-.66,2.4-1.5,3.13-.84.74-1.96,1.1-3.35,1.1-1.51,0-2.72-.54-3.63-1.63s-1.37-2.53-1.37-4.35v-1.23c0-1.19.21-2.24.64-3.14s1.03-1.59,1.81-2.08c.78-.48,1.68-.72,2.71-.72,1.36,0,2.45.38,3.27,1.14s1.3,1.81,1.43,3.15h-1.7c-.15-1.02-.46-1.76-.95-2.22-.49-.46-1.17-.69-2.05-.69-1.08,0-1.92.4-2.54,1.2s-.92,1.93-.92,3.4v1.24c0,1.39.29,2.5.87,3.32s1.39,1.23,2.43,1.23c.94,0,1.66-.21,2.16-.64.5-.42.83-1.16,1-2.22h1.7Z"/>
    </g>
    <g>
      <path class="cls-4" d="m94.07,267.54h-7.34v-1.33h7.34v1.33Z"/>
      <path class="cls-4" d="m101.95,273.26h-1.63v-10.84l-3.28,1.2v-1.48l4.66-1.75h.25v12.86Z"/>
      <path class="cls-4" d="m107.46,266.84l.65-6.38h6.56v1.5h-5.18l-.39,3.49c.63-.37,1.34-.55,2.14-.55,1.17,0,2.09.39,2.78,1.16.69.77,1.03,1.81,1.03,3.12s-.36,2.36-1.07,3.12c-.71.76-1.71,1.14-2.98,1.14-1.13,0-2.05-.31-2.77-.94s-1.12-1.49-1.22-2.6h1.54c.1.73.36,1.29.78,1.66s.98.56,1.67.56c.76,0,1.35-.26,1.78-.77s.65-1.23.65-2.14c0-.86-.23-1.54-.7-2.06-.47-.52-1.09-.78-1.86-.78-.71,0-1.27.16-1.67.47l-.43.35-1.3-.33Z"/>
      <path class="cls-4" d="m119.56,262.57c0-.61.22-1.14.65-1.6s.97-.69,1.59-.69,1.13.23,1.56.68.65.99.65,1.6-.22,1.15-.65,1.59-.95.66-1.56.66-1.14-.22-1.58-.66-.66-.97-.66-1.59Zm2.24,1.12c.32,0,.58-.1.8-.31s.33-.48.33-.81-.11-.62-.33-.84-.48-.33-.8-.33-.59.12-.81.35-.33.5-.33.82.11.58.33.8.49.32.81.32Z"/>
      <path class="cls-4" d="m136.03,269.2c-.16,1.35-.66,2.4-1.5,3.13-.84.74-1.96,1.1-3.35,1.1-1.51,0-2.72-.54-3.63-1.63s-1.37-2.53-1.37-4.35v-1.23c0-1.19.21-2.24.64-3.14s1.03-1.59,1.81-2.08c.78-.48,1.68-.72,2.71-.72,1.36,0,2.45.38,3.27,1.14s1.3,1.81,1.43,3.15h-1.7c-.15-1.02-.46-1.76-.95-2.22-.49-.46-1.17-.69-2.05-.69-1.08,0-1.92.4-2.54,1.2s-.92,1.93-.92,3.4v1.24c0,1.39.29,2.5.87,3.32s1.39,1.23,2.43,1.23c.94,0,1.66-.21,2.16-.64.5-.42.83-1.16,1-2.22h1.7Z"/>
    </g>
    <g>
      <path class="cls-4" d="m276.52,268.02h-7.58v-2.07h7.58v2.07Z"/>
      <path class="cls-4" d="m278.89,266.97l.74-6.5h7.17v2.12h-5.09l-.32,2.75c.6-.32,1.25-.48,1.92-.48,1.22,0,2.17.38,2.87,1.13s1.04,1.81,1.04,3.17c0,.83-.17,1.57-.52,2.22s-.85,1.16-1.5,1.52c-.65.36-1.42.54-2.3.54-.77,0-1.49-.16-2.15-.47-.66-.31-1.19-.75-1.57-1.32s-.59-1.22-.61-1.94h2.51c.05.53.24.95.56,1.24.32.3.74.44,1.25.44.57,0,1.02-.21,1.33-.62.31-.41.47-1,.47-1.75s-.18-1.28-.54-1.67-.86-.58-1.52-.58c-.6,0-1.09.16-1.47.47l-.25.23-2.02-.5Z"/>
      <path class="cls-4" d="m291.76,262.71c0-.67.24-1.24.71-1.71s1.03-.71,1.68-.71,1.19.24,1.66.71c.47.47.7,1.04.7,1.72s-.23,1.24-.7,1.7-1.02.69-1.66.69-1.19-.23-1.67-.69-.72-1.03-.72-1.7Zm2.39,1.09c.31,0,.57-.1.77-.31.2-.21.3-.47.3-.78s-.1-.57-.3-.79-.46-.33-.77-.33-.57.11-.78.33-.32.49-.32.79.11.56.32.77.47.32.78.32Z"/>
      <path class="cls-4" d="m308.83,269c-.1,1.38-.61,2.46-1.53,3.25s-2.12,1.19-3.62,1.19c-1.64,0-2.93-.55-3.87-1.66s-1.41-2.62-1.41-4.55v-.78c0-1.23.22-2.31.65-3.25s1.05-1.66,1.86-2.16c.81-.5,1.74-.75,2.81-.75,1.48,0,2.67.4,3.57,1.19s1.42,1.9,1.56,3.33h-2.64c-.06-.83-.29-1.42-.69-1.8s-1-.56-1.81-.56c-.88,0-1.54.32-1.97.95s-.66,1.61-.67,2.93v.97c0,1.38.21,2.39.63,3.03s1.08.96,1.98.96c.81,0,1.42-.19,1.82-.56s.63-.95.69-1.73h2.64Z"/>
    </g>
    <g>
      <path class="cls-4" d="m452.71,266.1h3.17v2.29h-3.17v3.59h-2.42v-3.59h-3.18v-2.29h3.18v-3.44h2.42v3.44Z"/>
      <path class="cls-4" d="m457.69,266.97l.74-6.5h7.17v2.12h-5.09l-.32,2.75c.6-.32,1.25-.48,1.92-.48,1.22,0,2.17.38,2.87,1.13s1.04,1.81,1.04,3.17c0,.83-.17,1.57-.52,2.22s-.85,1.16-1.5,1.52c-.65.36-1.42.54-2.3.54-.77,0-1.49-.16-2.15-.47-.66-.31-1.19-.75-1.57-1.32s-.59-1.22-.61-1.94h2.51c.05.53.24.95.56,1.24.32.3.74.44,1.25.44.57,0,1.02-.21,1.33-.62.31-.41.47-1,.47-1.75s-.18-1.28-.54-1.67-.86-.58-1.52-.58c-.6,0-1.09.16-1.47.47l-.25.23-2.02-.5Z"/>
      <path class="cls-4" d="m470.56,262.71c0-.67.24-1.24.71-1.71s1.03-.71,1.68-.71,1.19.24,1.66.71c.47.47.7,1.04.7,1.72s-.23,1.24-.7,1.7-1.02.69-1.66.69-1.19-.23-1.67-.69-.72-1.03-.72-1.7Zm2.39,1.09c.31,0,.57-.1.77-.31.2-.21.3-.47.3-.78s-.1-.57-.3-.79-.46-.33-.77-.33-.57.11-.78.33-.32.49-.32.79.11.56.32.77.47.32.78.32Z"/>
      <path class="cls-4" d="m487.62,269c-.1,1.38-.61,2.46-1.53,3.25s-2.12,1.19-3.62,1.19c-1.64,0-2.93-.55-3.87-1.66s-1.41-2.62-1.41-4.55v-.78c0-1.23.22-2.31.65-3.25s1.05-1.66,1.86-2.16c.81-.5,1.74-.75,2.81-.75,1.48,0,2.67.4,3.57,1.19s1.42,1.9,1.56,3.33h-2.64c-.06-.83-.29-1.42-.69-1.8s-1-.56-1.81-.56c-.88,0-1.54.32-1.97.95s-.66,1.61-.67,2.93v.97c0,1.38.21,2.39.63,3.03s1.08.96,1.98.96c.81,0,1.42-.19,1.82-.56s.63-.95.69-1.73h2.64Z"/>
    </g>
    <g>
      <path class="cls-4" d="m536.8,266.39h3.57v1.54h-3.57v4.04h-1.63v-4.04h-3.57v-1.54h3.57v-3.74h1.63v3.74Z"/>
      <path class="cls-4" d="m547.52,273.26h-1.63v-10.84l-3.28,1.2v-1.48l4.66-1.75h.25v12.86Z"/>
      <path class="cls-4" d="m560.31,267.8c0,1.9-.33,3.32-.98,4.25s-1.67,1.39-3.05,1.39-2.38-.45-3.03-1.36c-.66-.91-1-2.26-1.02-4.06v-2.17c0-1.88.33-3.28.98-4.19s1.67-1.37,3.06-1.37,2.39.44,3.04,1.32c.65.88.98,2.24,1,4.08v2.11Zm-1.63-2.22c0-1.38-.19-2.38-.58-3.01s-1-.95-1.84-.95-1.44.31-1.82.94-.58,1.59-.59,2.89v2.6c0,1.38.2,2.4.6,3.06.4.66,1.01.99,1.82.99s1.4-.31,1.79-.93.59-1.6.61-2.94v-2.66Z"/>
      <path class="cls-4" d="m565.13,262.57c0-.61.22-1.14.65-1.6s.97-.69,1.59-.69,1.13.23,1.56.68.65.99.65,1.6-.22,1.15-.65,1.59-.95.66-1.56.66-1.14-.22-1.58-.66-.66-.97-.66-1.59Zm2.24,1.12c.32,0,.58-.1.8-.31s.33-.48.33-.81-.11-.62-.33-.84-.48-.33-.8-.33-.59.12-.81.35-.33.5-.33.82.11.58.33.8.49.32.81.32Z"/>
      <path class="cls-4" d="m581.6,269.2c-.16,1.35-.66,2.4-1.5,3.13-.84.74-1.96,1.1-3.35,1.1-1.51,0-2.72-.54-3.63-1.63s-1.37-2.53-1.37-4.35v-1.23c0-1.19.21-2.24.64-3.14s1.03-1.59,1.81-2.08c.78-.48,1.68-.72,2.71-.72,1.36,0,2.45.38,3.27,1.14s1.3,1.81,1.43,3.15h-1.7c-.15-1.02-.46-1.76-.95-2.22-.49-.46-1.17-.69-2.05-.69-1.08,0-1.92.4-2.54,1.2s-.92,1.93-.92,3.4v1.24c0,1.39.29,2.5.87,3.32s1.39,1.23,2.43,1.23c.94,0,1.66-.21,2.16-.64.5-.42.83-1.16,1-2.22h1.7Z"/>
    </g>
    <g>
      <path class="cls-4" d="m613.56,266.39h3.57v1.54h-3.57v4.04h-1.63v-4.04h-3.57v-1.54h3.57v-3.74h1.63v3.74Z"/>
      <path class="cls-4" d="m624.28,273.26h-1.63v-10.84l-3.28,1.2v-1.48l4.66-1.75h.25v12.86Z"/>
      <path class="cls-4" d="m629.79,266.84l.65-6.38h6.56v1.5h-5.18l-.39,3.49c.63-.37,1.34-.55,2.14-.55,1.17,0,2.09.39,2.78,1.16.69.77,1.03,1.81,1.03,3.12s-.36,2.36-1.07,3.12c-.71.76-1.71,1.14-2.98,1.14-1.13,0-2.05-.31-2.77-.94s-1.12-1.49-1.22-2.6h1.54c.1.73.36,1.29.78,1.66s.98.56,1.67.56c.76,0,1.35-.26,1.78-.77s.65-1.23.65-2.14c0-.86-.23-1.54-.7-2.06-.47-.52-1.08-.78-1.86-.78-.71,0-1.27.16-1.67.47l-.43.35-1.3-.33Z"/>
      <path class="cls-4" d="m641.89,262.57c0-.61.22-1.14.65-1.6s.97-.69,1.59-.69,1.13.23,1.56.68.65.99.65,1.6-.22,1.15-.65,1.59-.95.66-1.56.66-1.14-.22-1.58-.66-.66-.97-.66-1.59Zm2.24,1.12c.32,0,.58-.1.8-.31s.33-.48.33-.81-.11-.62-.33-.84-.48-.33-.8-.33-.59.12-.81.35-.33.5-.33.82.11.58.33.8.49.32.81.32Z"/>
      <path class="cls-4" d="m658.37,269.2c-.16,1.35-.66,2.4-1.5,3.13-.84.74-1.96,1.1-3.35,1.1-1.51,0-2.72-.54-3.63-1.63s-1.37-2.53-1.37-4.35v-1.23c0-1.19.21-2.24.64-3.14s1.03-1.59,1.81-2.08c.78-.48,1.68-.72,2.71-.72,1.36,0,2.45.38,3.27,1.14s1.3,1.81,1.43,3.15h-1.7c-.15-1.02-.46-1.76-.95-2.22-.49-.46-1.17-.69-2.05-.69-1.08,0-1.92.4-2.54,1.2s-.92,1.93-.92,3.4v1.24c0,1.39.29,2.5.87,3.32s1.39,1.23,2.43,1.23c.94,0,1.66-.21,2.16-.64.5-.42.83-1.16,1-2.22h1.7Z"/>
    </g>
  </g>
  <g>
    <line class="cls-5" x1="111.05" y1="250.49" x2="111.05" y2="254.49"/>
    <line class="cls-5" x1="200.18" y1="250.49" x2="200.18" y2="254.49"/>
    <line class="cls-5" x1="289.3" y1="250.49" x2="289.3" y2="254.49"/>
    <line class="cls-5" x1="378.42" y1="250.49" x2="378.42" y2="254.49"/>
    <line class="cls-5" x1="467.54" y1="250.49" x2="467.54" y2="254.49"/>
    <line class="cls-5" x1="556.66" y1="250.49" x2="556.66" y2="254.49"/>
    <line class="cls-5" x1="645.79" y1="250.49" x2="645.79" y2="254.49"/>
  </g>
  <g>
    <rect class="cls-1" x="32.09" y="146.72" width="257.21" height="100.13"/>
    <g>
      <rect class="cls-8" x="76.19" y="246.61" width="17.76" height=".18"/>
      <rect class="cls-8" x="93.95" y="246.61" width="17.76" height=".18"/>
      <rect class="cls-8" x="129.47" y="246.26" width="17.76" height=".52"/>
      <rect class="cls-8" x="147.23" y="246.09" width="17.76" height=".7"/>
      <rect class="cls-8" x="164.99" y="245.74" width="17.76" height="1.05"/>
      <rect class="cls-8" x="182.75" y="244.17" width="17.76" height="2.62"/>
      <rect class="cls-9" x="200.5" y="243.12" width="17.76" height="3.66"/>
      <rect class="cls-9" x="218.26" y="241.72" width="17.76" height="5.07"/>
      <rect class="cls-6" x="236.02" y="237.71" width="17.76" height="9.08"/>
      <rect class="cls-6" x="253.78" y="229.15" width="17.76" height="17.64"/>
      <rect class="cls-6" x="271.54" y="215.71" width="17.76" height="31.08"/>
    </g>
  </g>
  <g>
    <rect class="cls-1" x="32.09" y="63" width="257.21" height="100.13"/>
    <g>
      <rect class="cls-8" x="58.43" y="162.89" width="17.76" height=".18"/>
      <rect class="cls-8" x="76.19" y="162.72" width="17.76" height=".35"/>
      <rect class="cls-8" x="93.95" y="161.84" width="17.76" height="1.22"/>
      <rect class="cls-8" x="111.71" y="162.89" width="17.76" height=".18"/>
      <rect class="cls-8" x="129.47" y="162.19" width="17.76" height=".87"/>
      <rect class="cls-8" x="147.23" y="162.36" width="17.76" height=".7"/>
      <rect class="cls-8" x="164.99" y="160.27" width="17.76" height="2.79"/>
      <rect class="cls-8" x="182.75" y="159.57" width="17.76" height="3.5"/>
      <rect class="cls-9" x="200.5" y="158" width="17.76" height="5.07"/>
      <rect class="cls-9" x="218.26" y="153.81" width="17.76" height="9.25"/>
      <rect class="cls-6" x="236.02" y="144.21" width="17.76" height="18.86"/>
      <rect class="cls-6" x="253.78" y="134.78" width="17.76" height="28.28"/>
      <rect class="cls-6" x="271.54" y="117.67" width="17.76" height="45.39"/>
    </g>
  </g>
  <g>
    <rect class="cls-1" x="32.09" width="257.21" height="78.34"/>
    <g>
      <rect class="cls-8" x="93.95" y="78.11" width="17.76" height=".18"/>
      <rect class="cls-8" x="111.71" y="78.11" width="17.76" height=".18"/>
      <rect class="cls-8" x="129.47" y="76.53" width="17.76" height="1.75"/>
      <rect class="cls-8" x="147.23" y="77.41" width="17.76" height=".87"/>
      <rect class="cls-8" x="164.99" y="76.89" width="17.76" height="1.4"/>
      <rect class="cls-8" x="182.75" y="74.96" width="17.76" height="3.32"/>
      <rect class="cls-9" x="200.5" y="72.35" width="17.76" height="5.93"/>
      <rect class="cls-9" x="218.26" y="68.16" width="17.76" height="10.13"/>
      <rect class="cls-6" x="236.02" y="55.93" width="17.76" height="22.35"/>
      <rect class="cls-6" x="253.78" y="37.6" width="17.76" height="40.68"/>
      <rect class="cls-6" x="271.54" y="19.61" width="17.76" height="58.67"/>
    </g>
  </g>
  <g>
    <path class="cls-2" d="m142.95,52.26h1.8c.86,0,1.5-.21,1.91-.64s.62-1,.62-1.71-.21-1.22-.62-1.61-.97-.57-1.69-.57c-.65,0-1.19.18-1.63.53s-.66.82-.66,1.39h-3.39c0-.89.24-1.69.72-2.4s1.15-1.26,2.02-1.66,1.81-.6,2.85-.6c1.8,0,3.22.43,4.24,1.29s1.54,2.05,1.54,3.57c0,.78-.24,1.5-.71,2.16s-1.1,1.16-1.88,1.51c.96.34,1.68.86,2.15,1.55s.71,1.5.71,2.44c0,1.52-.55,2.73-1.66,3.64s-2.57,1.37-4.39,1.37c-1.7,0-3.1-.45-4.18-1.35s-1.62-2.09-1.62-3.56h3.39c0,.64.24,1.16.72,1.57s1.07.61,1.78.61c.8,0,1.44-.21,1.89-.64s.69-.99.69-1.69c0-1.7-.94-2.55-2.81-2.55h-1.79v-2.65Z"/>
    <path class="cls-2" d="m156.72,52.26h1.8c.86,0,1.5-.21,1.91-.64s.62-1,.62-1.71-.21-1.22-.62-1.61-.97-.57-1.69-.57c-.65,0-1.19.18-1.63.53s-.66.82-.66,1.39h-3.39c0-.89.24-1.69.72-2.4s1.15-1.26,2.02-1.66,1.81-.6,2.85-.6c1.8,0,3.22.43,4.24,1.29s1.54,2.05,1.54,3.57c0,.78-.24,1.5-.71,2.16s-1.1,1.16-1.88,1.51c.96.34,1.68.86,2.15,1.55s.71,1.5.71,2.44c0,1.52-.55,2.73-1.66,3.64s-2.57,1.37-4.39,1.37c-1.7,0-3.1-.45-4.18-1.35s-1.62-2.09-1.62-3.56h3.39c0,.64.24,1.16.72,1.57s1.07.61,1.78.61c.8,0,1.44-.21,1.89-.64s.69-.99.69-1.69c0-1.7-.94-2.55-2.81-2.55h-1.79v-2.65Z"/>
    <path class="cls-2" d="m172.97,55.85c0-1.95.46-3.51,1.38-4.69s2.13-1.78,3.62-1.78,2.66.51,3.53,1.52v-6.61h2.17v18h-1.99l-.11-1.36c-.87,1.06-2.07,1.59-3.62,1.59s-2.67-.6-3.59-1.8-1.39-2.77-1.39-4.71v-.16Zm2.17.25c0,1.44.3,2.56.89,3.38s1.41,1.22,2.46,1.22c1.38,0,2.38-.62,3.01-1.85v-5.82c-.65-1.2-1.64-1.79-2.99-1.79-1.06,0-1.89.41-2.48,1.23s-.89,2.04-.89,3.64Z"/>
    <path class="cls-2" d="m189.09,49.62l.07,1.59c.97-1.22,2.23-1.83,3.8-1.83,2.68,0,4.03,1.51,4.05,4.54v8.38h-2.17v-8.39c0-.91-.22-1.59-.63-2.03s-1.05-.66-1.92-.66c-.7,0-1.32.19-1.85.56s-.95.87-1.24,1.48v9.04h-2.17v-12.68h2.05Z"/>
    <path class="cls-2" d="m202.66,44.31h2.62l-3.14,3.45h-1.75s2.26-3.45,2.26-3.45Zm-.02,17.99h-2.18v-12.68h2.18v12.68Z"/>
  </g>
  <g>
    <path class="cls-2" d="m151.2,140.92h-11.7v-2.32l5.52-5.88c.76-.83,1.32-1.55,1.68-2.17s.54-1.2.54-1.76c0-.76-.19-1.35-.57-1.79s-.93-.65-1.64-.65c-.77,0-1.37.26-1.81.79s-.66,1.22-.66,2.08h-3.4c0-1.04.25-1.99.74-2.85s1.2-1.53,2.1-2.02,1.93-.73,3.08-.73c1.76,0,3.12.42,4.1,1.27s1.46,2.04,1.46,3.57c0,.84-.22,1.7-.66,2.58s-1.19,1.89-2.25,3.06l-3.88,4.09h7.34v2.73Z"/>
    <path class="cls-2" d="m162.46,123.68v2.79h-.33c-1.53.02-2.76.42-3.7,1.2s-1.49,1.85-1.68,3.22c.91-.92,2.05-1.38,3.43-1.38,1.48,0,2.66.53,3.54,1.59s1.31,2.46,1.31,4.2c0,1.11-.24,2.11-.72,3.01s-1.16,1.6-2.04,2.1-1.87.75-2.98.75c-1.8,0-3.25-.62-4.35-1.88s-1.66-2.92-1.66-5v-1.22c0-1.85.35-3.49,1.05-4.9s1.7-2.52,3.01-3.29,2.83-1.17,4.55-1.18h.56Zm-3.3,8.55c-.55,0-1.04.14-1.49.43-.45.28-.77.66-.98,1.13v1.03c0,1.13.22,2.01.67,2.65.45.64,1.07.95,1.88.95.73,0,1.31-.29,1.76-.86.45-.57.67-1.32.67-2.23s-.23-1.68-.68-2.25c-.45-.57-1.06-.85-1.83-.85Z"/>
    <path class="cls-2" d="m172.97,134.48c0-1.95.46-3.51,1.38-4.69s2.13-1.78,3.62-1.78,2.66.51,3.53,1.52v-6.61h2.17v18h-1.99l-.11-1.36c-.87,1.06-2.07,1.59-3.62,1.59s-2.67-.6-3.59-1.8-1.39-2.77-1.39-4.71v-.16Zm2.17.25c0,1.44.3,2.56.89,3.38s1.41,1.22,2.46,1.22c1.38,0,2.38-.62,3.01-1.85v-5.82c-.65-1.2-1.64-1.79-2.99-1.79-1.06,0-1.89.41-2.48,1.23s-.89,2.04-.89,3.64Z"/>
    <path class="cls-2" d="m189.09,128.24l.07,1.59c.97-1.22,2.23-1.83,3.8-1.83,2.68,0,4.03,1.51,4.05,4.54v8.38h-2.17v-8.39c0-.91-.22-1.59-.63-2.03s-1.05-.66-1.92-.66c-.7,0-1.32.19-1.85.56s-.95.87-1.24,1.48v9.04h-2.17v-12.68h2.05Z"/>
    <path class="cls-2" d="m202.66,122.93h2.62l-3.14,3.45h-1.75s2.26-3.45,2.26-3.45Zm-.02,17.99h-2.18v-12.68h2.18v12.68Z"/>
  </g>
  <g>
    <path class="cls-2" d="m147.73,218.43h-3.39v-13.05l-4.04,1.25v-2.75l7.07-2.53h.36v17.09Z"/>
    <path class="cls-2" d="m162.46,201.2v2.79h-.33c-1.53.02-2.76.42-3.7,1.2s-1.49,1.85-1.68,3.22c.91-.92,2.05-1.38,3.43-1.38,1.48,0,2.66.53,3.54,1.59s1.31,2.46,1.31,4.2c0,1.11-.24,2.11-.72,3.01s-1.16,1.6-2.04,2.1-1.87.75-2.98.75c-1.8,0-3.25-.62-4.35-1.88s-1.66-2.92-1.66-5v-1.22c0-1.85.35-3.49,1.05-4.9s1.7-2.52,3.01-3.29,2.83-1.17,4.55-1.18h.56Zm-3.3,8.55c-.55,0-1.04.14-1.49.43-.45.28-.77.66-.98,1.13v1.03c0,1.13.22,2.01.67,2.65.45.64,1.07.95,1.88.95.73,0,1.31-.29,1.76-.86.45-.57.67-1.32.67-2.23s-.23-1.68-.68-2.25c-.45-.57-1.06-.85-1.83-.85Z"/>
    <path class="cls-2" d="m172.97,211.99c0-1.95.46-3.51,1.38-4.69s2.13-1.78,3.62-1.78,2.66.51,3.53,1.52v-6.61h2.17v18h-1.99l-.11-1.36c-.87,1.06-2.07,1.59-3.62,1.59s-2.67-.6-3.59-1.8-1.39-2.77-1.39-4.71v-.16Zm2.17.25c0,1.44.3,2.56.89,3.38s1.41,1.22,2.46,1.22c1.38,0,2.38-.62,3.01-1.85v-5.82c-.65-1.2-1.64-1.79-2.99-1.79-1.06,0-1.89.41-2.48,1.23s-.89,2.04-.89,3.64Z"/>
    <path class="cls-2" d="m189.09,205.75l.07,1.59c.97-1.22,2.23-1.83,3.8-1.83,2.68,0,4.03,1.51,4.05,4.54v8.38h-2.17v-8.39c0-.91-.22-1.59-.63-2.03s-1.05-.66-1.92-.66c-.7,0-1.32.19-1.85.56s-.95.87-1.24,1.48v9.04h-2.17v-12.68h2.05Z"/>
    <path class="cls-2" d="m202.66,200.45h2.62l-3.14,3.45h-1.75s2.26-3.45,2.26-3.45Zm-.02,17.99h-2.18v-12.68h2.18v12.68Z"/>
  </g>
  <g>
    <path class="cls-3" d="m326.5,62.3h-2.18v-14.45l-4.37,1.61v-1.97l6.21-2.33h.34v17.14Z"/>
    <path class="cls-3" d="m341.16,54.8c-.45.54-.99.97-1.62,1.3s-1.32.49-2.07.49c-.98,0-1.84-.24-2.57-.73s-1.29-1.17-1.69-2.04-.6-1.85-.6-2.91c0-1.14.22-2.17.65-3.08s1.05-1.61,1.85-2.1,1.73-.73,2.79-.73c1.69,0,3.02.63,3.99,1.89s1.46,2.98,1.46,5.16v.63c0,3.32-.66,5.74-1.97,7.27s-3.29,2.31-5.94,2.35h-.42v-1.84h.46c1.79-.03,3.16-.5,4.12-1.4s1.48-2.33,1.57-4.27Zm-3.34,0c.73,0,1.4-.22,2.01-.67s1.06-1,1.34-1.65v-.87c0-1.42-.31-2.58-.93-3.47s-1.4-1.34-2.34-1.34-1.72.37-2.3,1.1-.87,1.69-.87,2.89.28,2.12.84,2.88,1.31,1.13,2.24,1.13Z"/>
    <path class="cls-3" d="m354.83,45.22v1.84h-.4c-1.69.03-3.03.53-4.03,1.5s-1.58,2.33-1.73,4.09c.9-1.03,2.12-1.55,3.68-1.55s2.67.52,3.56,1.57,1.33,2.4,1.33,4.05c0,1.76-.48,3.16-1.44,4.22s-2.24,1.58-3.85,1.58-2.96-.63-3.97-1.88-1.52-2.87-1.52-4.85v-.83c0-3.14.67-5.54,2.01-7.2s3.33-2.51,5.98-2.55h.39Zm-2.85,7.69c-.74,0-1.43.22-2.05.67s-1.06,1-1.3,1.68v.8c0,1.41.32,2.54.95,3.4s1.42,1.29,2.37,1.29,1.74-.36,2.3-1.08.84-1.66.84-2.82-.28-2.12-.85-2.84-1.32-1.08-2.26-1.08Z"/>
    <path class="cls-3" d="m366.93,62.3h-2.18v-14.45l-4.37,1.61v-1.97l6.21-2.33h.34v17.14Z"/>
    <path class="cls-3" d="m385.5,54.67h-11.74v-1.77h11.74v1.77Z"/>
    <path class="cls-3" d="m396.15,62.3h-2.18v-14.45l-4.37,1.61v-1.97l6.21-2.33h.34v17.14Z"/>
    <path class="cls-3" d="m410.81,54.8c-.45.54-.99.97-1.62,1.3s-1.32.49-2.07.49c-.98,0-1.84-.24-2.57-.73s-1.29-1.17-1.69-2.04-.6-1.85-.6-2.91c0-1.14.22-2.17.65-3.08s1.05-1.61,1.85-2.1,1.73-.73,2.79-.73c1.69,0,3.02.63,3.99,1.89s1.46,2.98,1.46,5.16v.63c0,3.32-.66,5.74-1.97,7.27s-3.29,2.31-5.94,2.35h-.42v-1.84h.46c1.79-.03,3.16-.5,4.12-1.4s1.48-2.33,1.57-4.27Zm-3.34,0c.73,0,1.4-.22,2.01-.67s1.06-1,1.34-1.65v-.87c0-1.42-.31-2.58-.93-3.47s-1.4-1.34-2.34-1.34-1.72.37-2.3,1.1-.87,1.69-.87,2.89.28,2.12.84,2.88,1.31,1.13,2.24,1.13Z"/>
    <path class="cls-3" d="m426.33,49.69c0,.85-.22,1.61-.67,2.27s-1.06,1.18-1.82,1.56c.89.38,1.6.94,2.12,1.68s.78,1.57.78,2.5c0,1.48-.5,2.65-1.49,3.53s-2.31,1.31-3.93,1.31-2.96-.44-3.94-1.32-1.48-2.05-1.48-3.52c0-.92.25-1.75.76-2.5s1.2-1.3,2.09-1.69c-.76-.38-1.36-.89-1.79-1.56s-.66-1.42-.66-2.26c0-1.44.46-2.58,1.38-3.42s2.14-1.27,3.64-1.27,2.71.42,3.64,1.27,1.39,1.98,1.39,3.42Zm-1.77,7.96c0-.95-.3-1.73-.91-2.33s-1.4-.9-2.37-.9-1.76.3-2.35.89-.88,1.38-.88,2.34.29,1.73.86,2.29,1.37.83,2.4.83,1.81-.28,2.39-.84.87-1.32.87-2.28Zm-3.26-10.86c-.85,0-1.54.26-2.07.79s-.79,1.24-.79,2.15.26,1.57.78,2.1,1.21.8,2.08.8,1.56-.27,2.08-.8.78-1.24.78-2.1-.27-1.57-.81-2.12-1.22-.82-2.05-.82Z"/>
    <path class="cls-3" d="m440.16,55.02c0,2.54-.43,4.43-1.3,5.66s-2.22,1.85-4.07,1.85-3.17-.6-4.04-1.81-1.33-3.01-1.36-5.41v-2.89c0-2.51.43-4.37,1.3-5.59s2.23-1.83,4.08-1.83,3.19.59,4.05,1.76,1.31,2.99,1.34,5.44v2.81Zm-2.17-2.96c0-1.84-.26-3.17-.77-4.01s-1.33-1.26-2.45-1.26-1.92.42-2.43,1.25-.77,2.12-.79,3.86v3.47c0,1.84.27,3.21.8,4.08s1.35,1.32,2.43,1.32,1.87-.41,2.38-1.24.79-2.13.81-3.91v-3.55Z"/>
  </g>
  <g>
    <path class="cls-3" d="m326.5,140.92h-2.18v-14.45l-4.37,1.61v-1.97l6.21-2.33h.34v17.14Z"/>
    <path class="cls-3" d="m341.16,133.42c-.45.54-.99.97-1.62,1.3s-1.32.49-2.07.49c-.98,0-1.84-.24-2.57-.73s-1.29-1.17-1.69-2.04-.6-1.85-.6-2.91c0-1.14.22-2.17.65-3.08s1.05-1.61,1.85-2.1,1.73-.73,2.79-.73c1.69,0,3.02.63,3.99,1.89s1.46,2.98,1.46,5.16v.63c0,3.32-.66,5.74-1.97,7.27s-3.29,2.31-5.94,2.35h-.42v-1.84h.46c1.79-.03,3.16-.5,4.12-1.4s1.48-2.33,1.57-4.27Zm-3.34,0c.73,0,1.4-.22,2.01-.67s1.06-1,1.34-1.65v-.87c0-1.42-.31-2.58-.93-3.47s-1.4-1.34-2.34-1.34-1.72.37-2.3,1.1-.87,1.69-.87,2.89.28,2.12.84,2.88,1.31,1.13,2.24,1.13Z"/>
    <path class="cls-3" d="m356.67,128.31c0,.85-.22,1.61-.67,2.27s-1.06,1.18-1.82,1.56c.89.38,1.6.94,2.12,1.68s.78,1.57.78,2.5c0,1.48-.5,2.65-1.49,3.53s-2.31,1.31-3.93,1.31-2.96-.44-3.94-1.32-1.48-2.05-1.48-3.52c0-.92.25-1.75.76-2.5s1.2-1.3,2.09-1.69c-.76-.38-1.36-.89-1.79-1.56s-.66-1.42-.66-2.26c0-1.44.46-2.58,1.38-3.42s2.14-1.27,3.64-1.27,2.71.42,3.64,1.27,1.39,1.98,1.39,3.42Zm-1.77,7.96c0-.95-.3-1.73-.91-2.33s-1.4-.9-2.37-.9-1.76.3-2.35.89-.88,1.38-.88,2.34.29,1.73.86,2.29,1.37.83,2.4.83,1.81-.28,2.39-.84.87-1.32.87-2.28Zm-3.26-10.86c-.85,0-1.54.26-2.07.79s-.79,1.24-.79,2.15.26,1.57.78,2.1,1.21.8,2.08.8,1.56-.27,2.08-.8.78-1.24.78-2.1-.27-1.57-.81-2.12-1.22-.82-2.05-.82Z"/>
    <path class="cls-3" d="m366.93,140.92h-2.18v-14.45l-4.37,1.61v-1.97l6.21-2.33h.34v17.14Z"/>
    <path class="cls-3" d="m385.5,133.29h-11.74v-1.77h11.74v1.77Z"/>
    <path class="cls-3" d="m400.21,140.92h-11.18v-1.56l5.91-6.56c.88-.99,1.48-1.8,1.81-2.42s.5-1.26.5-1.93c0-.89-.27-1.62-.81-2.19s-1.26-.86-2.16-.86c-1.08,0-1.92.31-2.51.92s-.9,1.47-.9,2.56h-2.17c0-1.57.51-2.84,1.52-3.81s2.37-1.45,4.06-1.45c1.59,0,2.84.42,3.76,1.25s1.38,1.94,1.38,3.32c0,1.68-1.07,3.68-3.21,6l-4.57,4.96h8.57v1.77Z"/>
    <path class="cls-3" d="m413.2,133.64c0,2.54-.43,4.43-1.3,5.66s-2.22,1.85-4.07,1.85-3.17-.6-4.04-1.81-1.33-3.01-1.36-5.41v-2.89c0-2.51.43-4.37,1.3-5.59s2.23-1.83,4.08-1.83,3.19.59,4.05,1.76,1.31,2.99,1.34,5.44v2.81Zm-2.17-2.96c0-1.84-.26-3.17-.77-4.01s-1.33-1.26-2.45-1.26-1.92.42-2.43,1.25-.77,2.12-.79,3.86v3.47c0,1.84.27,3.21.8,4.08s1.35,1.32,2.43,1.32,1.87-.41,2.38-1.24.79-2.13.81-3.91v-3.55Z"/>
    <path class="cls-3" d="m426.68,133.64c0,2.54-.43,4.43-1.3,5.66s-2.22,1.85-4.07,1.85-3.17-.6-4.04-1.81-1.33-3.01-1.36-5.41v-2.89c0-2.51.43-4.37,1.3-5.59s2.23-1.83,4.08-1.83,3.19.59,4.05,1.76,1.31,2.99,1.34,5.44v2.81Zm-2.17-2.96c0-1.84-.26-3.17-.77-4.01s-1.33-1.26-2.45-1.26-1.92.42-2.43,1.25-.77,2.12-.79,3.86v3.47c0,1.84.27,3.21.8,4.08s1.35,1.32,2.43,1.32,1.87-.41,2.38-1.24.79-2.13.81-3.91v-3.55Z"/>
    <path class="cls-3" d="m440.16,133.64c0,2.54-.43,4.43-1.3,5.66s-2.22,1.85-4.07,1.85-3.17-.6-4.04-1.81-1.33-3.01-1.36-5.41v-2.89c0-2.51.43-4.37,1.3-5.59s2.23-1.83,4.08-1.83,3.19.59,4.05,1.76,1.31,2.99,1.34,5.44v2.81Zm-2.17-2.96c0-1.84-.26-3.17-.77-4.01s-1.33-1.26-2.45-1.26-1.92.42-2.43,1.25-.77,2.12-.79,3.86v3.47c0,1.84.27,3.21.8,4.08s1.35,1.32,2.43,1.32,1.87-.41,2.38-1.24.79-2.13.81-3.91v-3.55Z"/>
  </g>
  <g>
    <path class="cls-3" d="m330.55,218.43h-11.18v-1.56l5.91-6.56c.88-.99,1.48-1.8,1.81-2.42s.5-1.26.5-1.93c0-.89-.27-1.62-.81-2.19s-1.26-.86-2.16-.86c-1.08,0-1.92.31-2.51.92s-.9,1.47-.9,2.56h-2.17c0-1.57.51-2.84,1.52-3.81s2.37-1.45,4.06-1.45c1.59,0,2.84.42,3.76,1.25s1.38,1.94,1.38,3.32c0,1.68-1.07,3.68-3.21,6l-4.57,4.96h8.57v1.77Z"/>
    <path class="cls-3" d="m343.55,211.16c0,2.54-.43,4.43-1.3,5.66s-2.22,1.85-4.07,1.85-3.17-.6-4.04-1.81-1.33-3.01-1.36-5.41v-2.89c0-2.51.43-4.37,1.3-5.59s2.23-1.83,4.08-1.83,3.19.59,4.05,1.76,1.31,2.99,1.34,5.44v2.81Zm-2.17-2.96c0-1.84-.26-3.17-.77-4.01s-1.33-1.26-2.45-1.26-1.92.42-2.43,1.25-.77,2.12-.79,3.86v3.47c0,1.84.27,3.21.8,4.08s1.35,1.32,2.43,1.32,1.87-.41,2.38-1.24.79-2.13.81-3.91v-3.55Z"/>
    <path class="cls-3" d="m357.02,211.16c0,2.54-.43,4.43-1.3,5.66s-2.22,1.85-4.07,1.85-3.17-.6-4.04-1.81-1.33-3.01-1.36-5.41v-2.89c0-2.51.43-4.37,1.3-5.59s2.23-1.83,4.08-1.83,3.19.59,4.05,1.76,1.31,2.99,1.34,5.44v2.81Zm-2.17-2.96c0-1.84-.26-3.17-.77-4.01s-1.33-1.26-2.45-1.26-1.92.42-2.43,1.25-.77,2.12-.79,3.86v3.47c0,1.84.27,3.21.8,4.08s1.35,1.32,2.43,1.32,1.87-.41,2.38-1.24.79-2.13.81-3.91v-3.55Z"/>
    <path class="cls-3" d="m366.93,218.43h-2.18v-14.45l-4.37,1.61v-1.97l6.21-2.33h.34v17.14Z"/>
    <path class="cls-3" d="m385.5,210.8h-11.74v-1.77h11.74v1.77Z"/>
    <path class="cls-3" d="m400.21,218.43h-11.18v-1.56l5.91-6.56c.88-.99,1.48-1.8,1.81-2.42s.5-1.26.5-1.93c0-.89-.27-1.62-.81-2.19s-1.26-.86-2.16-.86c-1.08,0-1.92.31-2.51.92s-.9,1.47-.9,2.56h-2.17c0-1.57.51-2.84,1.52-3.81s2.37-1.45,4.06-1.45c1.59,0,2.84.42,3.76,1.25s1.38,1.94,1.38,3.32c0,1.68-1.07,3.68-3.21,6l-4.57,4.96h8.57v1.77Z"/>
    <path class="cls-3" d="m413.2,211.16c0,2.54-.43,4.43-1.3,5.66s-2.22,1.85-4.07,1.85-3.17-.6-4.04-1.81-1.33-3.01-1.36-5.41v-2.89c0-2.51.43-4.37,1.3-5.59s2.23-1.83,4.08-1.83,3.19.59,4.05,1.76,1.31,2.99,1.34,5.44v2.81Zm-2.17-2.96c0-1.84-.26-3.17-.77-4.01s-1.33-1.26-2.45-1.26-1.92.42-2.43,1.25-.77,2.12-.79,3.86v3.47c0,1.84.27,3.21.8,4.08s1.35,1.32,2.43,1.32,1.87-.41,2.38-1.24.79-2.13.81-3.91v-3.55Z"/>
    <path class="cls-3" d="m427.16,218.43h-11.18v-1.56l5.91-6.56c.88-.99,1.48-1.8,1.81-2.42s.5-1.26.5-1.93c0-.89-.27-1.62-.81-2.19s-1.26-.86-2.16-.86c-1.08,0-1.92.31-2.51.92s-.9,1.47-.9,2.56h-2.17c0-1.57.51-2.84,1.52-3.81s2.37-1.45,4.06-1.45c1.59,0,2.84.42,3.76,1.25s1.38,1.94,1.38,3.32c0,1.68-1.07,3.68-3.21,6l-4.57,4.96h8.57v1.77Z"/>
    <path class="cls-3" d="m440.16,211.16c0,2.54-.43,4.43-1.3,5.66s-2.22,1.85-4.07,1.85-3.17-.6-4.04-1.81-1.33-3.01-1.36-5.41v-2.89c0-2.51.43-4.37,1.3-5.59s2.23-1.83,4.08-1.83,3.19.59,4.05,1.76,1.31,2.99,1.34,5.44v2.81Zm-2.17-2.96c0-1.84-.26-3.17-.77-4.01s-1.33-1.26-2.45-1.26-1.92.42-2.43,1.25-.77,2.12-.79,3.86v3.47c0,1.84.27,3.21.8,4.08s1.35,1.32,2.43,1.32,1.87-.41,2.38-1.24.79-2.13.81-3.91v-3.55Z"/>
  </g>
  <g>
    <rect class="cls-1" x="467.41" width="192.59" height="78.34"/>
    <g>
      <rect class="cls-7" x="467.41" y="30.86" width="18.03" height="47.44"/>
      <rect class="cls-7" x="485.44" y="50.74" width="18.03" height="27.55"/>
      <rect class="cls-7" x="503.47" y="62.24" width="18.03" height="16.06"/>
      <rect class="cls-11" x="521.5" y="69.02" width="18.03" height="9.28"/>
      <rect class="cls-11" x="539.52" y="74.91" width="18.03" height="3.39"/>
      <rect class="cls-10" x="557.55" y="77.27" width="18.03" height="1.03"/>
      <rect class="cls-10" x="593.61" y="77.86" width="18.03" height=".44"/>
    </g>
  </g>
  <g>
    <rect class="cls-1" x="467.41" y="78.34" width="192.59" height="84.49"/>
    <g>
      <rect class="cls-7" x="467.41" y="100.66" width="18.03" height="62.47"/>
      <rect class="cls-7" x="485.44" y="121.87" width="18.03" height="41.25"/>
      <rect class="cls-7" x="503.47" y="136.17" width="18.03" height="26.96"/>
      <rect class="cls-11" x="521.5" y="148.39" width="18.03" height="14.73"/>
      <rect class="cls-11" x="539.52" y="155.32" width="18.03" height="7.81"/>
      <rect class="cls-10" x="557.55" y="160.03" width="18.03" height="3.09"/>
      <rect class="cls-10" x="575.58" y="161.36" width="18.03" height="1.77"/>
      <rect class="cls-10" x="593.61" y="161.95" width="18.03" height="1.18"/>
    </g>
  </g>
  <g>
    <polyline class="cls-1" points="467.41 246.85 467.41 162.21 660 162.21"/>
    <g>
      <rect class="cls-7" x="467.41" y="172.29" width="18.03" height="74.55"/>
      <rect class="cls-7" x="485.44" y="188.65" width="18.03" height="58.2"/>
      <rect class="cls-7" x="503.47" y="206.33" width="18.03" height="40.51"/>
      <rect class="cls-11" x="521.5" y="222.53" width="18.03" height="24.31"/>
      <rect class="cls-11" x="539.52" y="230.93" width="18.03" height="15.91"/>
      <rect class="cls-10" x="557.55" y="239.47" width="18.03" height="7.37"/>
      <rect class="cls-10" x="575.58" y="243.45" width="18.03" height="3.39"/>
      <rect class="cls-10" x="593.61" y="245.51" width="18.03" height="1.33"/>
      <rect class="cls-10" x="611.63" y="246.7" width="18.03" height=".15"/>
      <rect class="cls-10" x="629.66" y="246.7" width="18.03" height=".15"/>
    </g>
  </g>
  <g>
    <path class="cls-2" d="m576.56,62.3h-11.7v-2.32l5.52-5.88c.76-.83,1.32-1.55,1.68-2.17s.54-1.2.54-1.76c0-.76-.19-1.35-.57-1.79s-.93-.65-1.64-.65c-.77,0-1.37.26-1.81.79s-.66,1.22-.66,2.08h-3.4c0-1.04.25-1.99.74-2.85s1.2-1.53,2.1-2.02,1.93-.73,3.08-.73c1.76,0,3.12.42,4.1,1.27s1.46,2.04,1.46,3.57c0,.84-.22,1.7-.66,2.58s-1.19,1.89-2.25,3.06l-3.88,4.09h7.34v2.73Z"/>
    <path class="cls-2" d="m587.82,45.06v2.79h-.33c-1.53.02-2.76.42-3.7,1.2s-1.49,1.85-1.68,3.22c.91-.92,2.05-1.38,3.43-1.38,1.48,0,2.66.53,3.54,1.59s1.31,2.46,1.31,4.2c0,1.11-.24,2.11-.72,3.01s-1.16,1.6-2.04,2.1-1.87.75-2.98.75c-1.8,0-3.25-.62-4.35-1.88s-1.66-2.92-1.66-5v-1.22c0-1.85.35-3.49,1.05-4.9s1.7-2.52,3.01-3.29,2.83-1.17,4.55-1.18h.56Zm-3.3,8.55c-.55,0-1.04.14-1.49.43-.45.28-.77.66-.98,1.13v1.03c0,1.13.22,2.01.67,2.65.45.64,1.07.95,1.88.95.73,0,1.31-.29,1.76-.86.45-.57.67-1.32.67-2.23s-.23-1.68-.68-2.25c-.45-.57-1.06-.85-1.83-.85Z"/>
    <path class="cls-2" d="m598.34,55.85c0-1.95.46-3.51,1.38-4.69s2.13-1.78,3.62-1.78,2.66.51,3.53,1.52v-6.61h2.17v18h-1.99l-.11-1.36c-.87,1.06-2.07,1.59-3.62,1.59s-2.67-.6-3.59-1.8-1.39-2.77-1.39-4.71v-.16Zm2.17.25c0,1.44.3,2.56.89,3.38s1.41,1.22,2.46,1.22c1.38,0,2.38-.62,3.01-1.85v-5.82c-.65-1.2-1.64-1.79-2.99-1.79-1.06,0-1.89.41-2.48,1.23s-.89,2.04-.89,3.64Z"/>
    <path class="cls-2" d="m614.45,49.62l.07,1.59c.97-1.22,2.23-1.83,3.8-1.83,2.68,0,4.03,1.51,4.05,4.54v8.38h-2.17v-8.39c0-.91-.22-1.59-.63-2.03s-1.05-.66-1.92-.66c-.7,0-1.32.19-1.85.56s-.95.87-1.24,1.48v9.04h-2.17v-12.68h2.05Z"/>
    <path class="cls-2" d="m628.02,44.31h2.62l-3.14,3.45h-1.75s2.26-3.45,2.26-3.45Zm-.02,17.99h-2.18v-12.68h2.18v12.68Z"/>
  </g>
  <g>
    <path class="cls-2" d="m574.89,134.5h1.93v2.73h-1.93v3.69h-3.39v-3.69h-7l-.15-2.13,7.11-11.24h3.42v10.64Zm-7.16,0h3.77v-6.02l-.22.39-3.55,5.64Z"/>
    <path class="cls-2" d="m590.33,140.92h-11.7v-2.32l5.52-5.88c.76-.83,1.32-1.55,1.68-2.17s.54-1.2.54-1.76c0-.76-.19-1.35-.57-1.79s-.93-.65-1.64-.65c-.77,0-1.37.26-1.81.79s-.66,1.22-.66,2.08h-3.4c0-1.04.25-1.99.74-2.85s1.2-1.53,2.1-2.02,1.93-.73,3.08-.73c1.76,0,3.12.42,4.1,1.27s1.46,2.04,1.46,3.57c0,.84-.22,1.7-.66,2.58s-1.19,1.89-2.25,3.06l-3.88,4.09h7.34v2.73Z"/>
    <path class="cls-2" d="m598.33,134.48c0-1.95.46-3.51,1.38-4.69s2.13-1.78,3.62-1.78,2.66.51,3.53,1.52v-6.61h2.17v18h-1.99l-.11-1.36c-.87,1.06-2.07,1.59-3.62,1.59s-2.67-.6-3.59-1.8-1.39-2.77-1.39-4.71v-.16Zm2.17.25c0,1.44.3,2.56.89,3.38s1.41,1.22,2.46,1.22c1.38,0,2.38-.62,3.01-1.85v-5.82c-.65-1.2-1.64-1.79-2.99-1.79-1.06,0-1.89.41-2.48,1.23s-.89,2.04-.89,3.64Z"/>
    <path class="cls-2" d="m614.45,128.24l.07,1.59c.97-1.22,2.23-1.83,3.8-1.83,2.68,0,4.03,1.51,4.05,4.54v8.38h-2.17v-8.39c0-.91-.22-1.59-.63-2.03s-1.05-.66-1.92-.66c-.7,0-1.32.19-1.85.56s-.95.87-1.24,1.48v9.04h-2.17v-12.68h2.05Z"/>
    <path class="cls-2" d="m628.02,122.93h2.62l-3.14,3.45h-1.75s2.26-3.45,2.26-3.45Zm-.02,17.99h-2.18v-12.68h2.18v12.68Z"/>
  </g>
  <g>
    <path class="cls-2" d="m574.05,201.2v2.79h-.33c-1.53.02-2.76.42-3.7,1.2s-1.49,1.85-1.68,3.22c.91-.92,2.05-1.38,3.43-1.38,1.48,0,2.66.53,3.54,1.59s1.31,2.46,1.31,4.2c0,1.11-.24,2.11-.72,3.01s-1.16,1.6-2.04,2.1-1.87.75-2.98.75c-1.8,0-3.25-.62-4.35-1.88s-1.66-2.92-1.66-5v-1.22c0-1.85.35-3.49,1.05-4.9s1.7-2.52,3.01-3.29,2.83-1.17,4.55-1.18h.56Zm-3.3,8.55c-.55,0-1.04.14-1.49.43-.45.28-.77.66-.98,1.13v1.03c0,1.13.22,2.01.67,2.65.45.64,1.07.95,1.88.95.73,0,1.31-.29,1.76-.86.45-.57.67-1.32.67-2.23s-.23-1.68-.68-2.25c-.45-.57-1.06-.85-1.83-.85Z"/>
    <path class="cls-2" d="m590.24,203.26l-6.6,15.17h-3.57l6.61-14.33h-8.48v-2.73h12.05v1.89Z"/>
    <path class="cls-2" d="m598.34,211.99c0-1.95.46-3.51,1.38-4.69s2.13-1.78,3.62-1.78,2.66.51,3.53,1.52v-6.61h2.17v18h-1.99l-.11-1.36c-.87,1.06-2.07,1.59-3.62,1.59s-2.67-.6-3.59-1.8-1.39-2.77-1.39-4.71v-.16Zm2.17.25c0,1.44.3,2.56.89,3.38s1.41,1.22,2.46,1.22c1.38,0,2.38-.62,3.01-1.85v-5.82c-.65-1.2-1.64-1.79-2.99-1.79-1.06,0-1.89.41-2.48,1.23s-.89,2.04-.89,3.64Z"/>
    <path class="cls-2" d="m614.45,205.75l.07,1.59c.97-1.22,2.23-1.83,3.8-1.83,2.68,0,4.03,1.51,4.05,4.54v8.38h-2.17v-8.39c0-.91-.22-1.59-.63-2.03s-1.05-.66-1.92-.66c-.7,0-1.32.19-1.85.56s-.95.87-1.24,1.48v9.04h-2.17v-12.68h2.05Z"/>
    <path class="cls-2" d="m628.02,200.45h2.62l-3.14,3.45h-1.75s2.26-3.45,2.26-3.45Zm-.02,17.99h-2.18v-12.68h2.18v12.68Z"/>
  </g>
</svg>