<?xml version="1.0" encoding="UTF-8"?>
<svg id="Layer_7" data-name="Layer 7" xmlns="http://www.w3.org/2000/svg" viewBox="0 0 440 122.83">
  <defs>
    <style>
      .cls-1 {
        fill: #eff0f2;
      }

      .cls-1, .cls-2, .cls-3 {
        stroke: #666c80;
        stroke-linecap: round;
        stroke-linejoin: round;
      }

      .cls-2 {
        fill: #fff;
      }

      .cls-3 {
        fill: none;
      }

      .cls-4 {
        opacity: .1;
      }

      .cls-4, .cls-5 {
        fill: #666c80;
      }
    </style>
  </defs>
  <circle class="cls-4" cx="51.87" cy="53.64" r="19.97"/>
  <circle class="cls-4" cx="164.41" cy="53.64" r="19.97"/>
  <circle class="cls-4" cx="275.95" cy="53.64" r="19.97"/>
  <circle class="cls-4" cx="387.64" cy="53.64" r="19.97"/>
  <g>
    <path class="cls-5" d="m243.79,95.07l.02.47c.31-.36.73-.55,1.25-.55.59,0,.99.23,1.21.68.14-.2.32-.37.55-.49s.49-.19.8-.19c.93,0,1.4.49,1.41,1.47v2.83h-.72v-2.79c0-.3-.07-.53-.21-.68s-.37-.22-.7-.22c-.27,0-.49.08-.67.24s-.28.38-.31.65v2.8h-.73v-2.77c0-.61-.3-.92-.9-.92-.47,0-.8.2-.97.61v3.09h-.72v-4.23h.68Z"/>
    <path class="cls-5" d="m250.12,93.95c0-.12.04-.22.11-.3s.18-.12.32-.12.25.04.32.12.11.18.11.3-.04.21-.11.29-.18.12-.32.12-.25-.04-.32-.12-.11-.18-.11-.29Zm.78,5.35h-.72v-4.23h.72v4.23Z"/>
    <path class="cls-5" d="m252.74,95.07l.02.53c.32-.41.74-.61,1.27-.61.89,0,1.34.5,1.35,1.51v2.79h-.72v-2.8c0-.3-.07-.53-.21-.68s-.35-.22-.64-.22c-.23,0-.44.06-.62.19s-.31.29-.41.49v3.01h-.72v-4.23h.68Z"/>
    <path class="cls-5" d="m258.6,99.78h-.62l2.38-6.18h.62l-2.37,6.18Z"/>
    <path class="cls-5" d="m264.41,95.07l.02.47c.31-.36.73-.55,1.25-.55.59,0,.99.23,1.21.68.14-.2.32-.37.55-.49s.49-.19.8-.19c.93,0,1.4.49,1.41,1.47v2.83h-.72v-2.79c0-.3-.07-.53-.21-.68s-.37-.22-.7-.22c-.27,0-.49.08-.67.24s-.28.38-.31.65v2.8h-.73v-2.77c0-.61-.3-.92-.9-.92-.47,0-.8.2-.97.61v3.09h-.72v-4.23h.68Z"/>
    <path class="cls-5" d="m273.35,99.29c-.04-.08-.08-.23-.1-.45-.34.35-.74.52-1.2.52-.42,0-.76-.12-1.03-.35s-.4-.53-.4-.9c0-.44.17-.78.5-1.03s.81-.37,1.41-.37h.7v-.33c0-.25-.08-.45-.23-.6s-.37-.22-.67-.22c-.26,0-.47.06-.65.2s-.26.29-.26.47h-.73c0-.21.07-.41.22-.61s.35-.35.61-.47.54-.17.85-.17c.49,0,.87.12,1.14.37s.42.58.43,1.01v1.95c0,.39.05.7.15.93v.06h-.76Zm-1.2-.55c.23,0,.44-.06.64-.18s.35-.27.44-.46v-.87h-.57c-.89,0-1.33.26-1.33.78,0,.23.08.4.23.53s.35.19.58.19Z"/>
    <path class="cls-5" d="m276.51,96.61l.94-1.54h.84l-1.38,2.09,1.43,2.14h-.84l-.98-1.58-.98,1.58h-.84l1.43-2.14-1.38-2.09h.84l.93,1.54Z"/>
    <path class="cls-5" d="m281.19,99.78h-.62l2.38-6.18h.62l-2.37,6.18Z"/>
    <path class="cls-5" d="m289.89,97.23c0,.64-.15,1.16-.44,1.55s-.69.59-1.2.59-.92-.16-1.21-.49v2.04h-.72v-5.85h.66l.04.47c.29-.36.7-.55,1.23-.55s.91.19,1.21.57.44.92.44,1.6v.07Zm-.72-.08c0-.48-.1-.85-.3-1.13s-.48-.41-.84-.41c-.44,0-.77.19-.98.58v2.02c.22.39.55.58.99.58.35,0,.62-.14.83-.41s.31-.68.31-1.22Z"/>
    <path class="cls-5" d="m292.85,95.72c-.11-.02-.23-.03-.36-.03-.47,0-.8.2-.96.61v3h-.72v-4.23h.7v.49c.25-.38.58-.57,1.02-.57.14,0,.25.02.32.05v.67Z"/>
    <path class="cls-5" d="m296.12,98.88c-.28.33-.69.5-1.24.5-.45,0-.79-.13-1.03-.39s-.35-.65-.36-1.16v-2.75h.72v2.73c0,.64.26.96.78.96.55,0,.92-.21,1.1-.62v-3.07h.72v4.23h-.69l-.02-.42Zm-.1-5.12c0,.23-.08.42-.24.57s-.36.23-.6.23-.44-.08-.6-.23-.24-.34-.24-.57.08-.42.24-.57.36-.24.6-.24.44.08.6.24.24.35.24.57Zm-1.29,0c0,.12.04.23.13.32s.19.13.32.13.23-.04.32-.13.13-.19.13-.32-.04-.24-.13-.33-.19-.13-.32-.13-.24.05-.32.14-.13.2-.13.32Z"/>
    <path class="cls-5" d="m298.6,95.07l.02.47c.31-.36.73-.55,1.25-.55.59,0,.99.23,1.21.68.14-.2.32-.37.55-.49s.49-.19.8-.19c.93,0,1.4.49,1.41,1.47v2.83h-.72v-2.79c0-.3-.07-.53-.21-.68s-.37-.22-.7-.22c-.27,0-.49.08-.67.24s-.28.38-.31.65v2.8h-.73v-2.77c0-.61-.3-.92-.9-.92-.47,0-.8.2-.97.61v3.09h-.72v-4.23h.68Z"/>
    <path class="cls-5" d="m306.69,99.37c-.57,0-1.04-.19-1.4-.56s-.54-.88-.54-1.51v-.13c0-.42.08-.79.24-1.12s.38-.59.67-.77.6-.28.94-.28c.55,0,.98.18,1.28.54s.46.88.46,1.55v.3h-2.86c.01.42.13.75.37,1.01s.53.38.89.38c.26,0,.47-.05.65-.16s.33-.24.46-.41l.44.34c-.35.54-.89.82-1.59.82Zm-.1-5.41l.59-.66h.62v.04l-.99,1.07h-.44l-.98-1.07v-.04h.61l.59.66Zm0,1.62c-.29,0-.54.11-.73.32s-.32.51-.37.89h2.12v-.05c-.02-.37-.12-.65-.3-.85s-.42-.3-.72-.3Z"/>
    <path class="cls-5" d="m311.22,95.72c-.11-.02-.23-.03-.36-.03-.47,0-.8.2-.96.61v3h-.72v-4.23h.7v.49c.25-.38.58-.57,1.02-.57.14,0,.25.02.32.05v.67Z"/>
  </g>
  <g>
    <path class="cls-5" d="m22.2,86.11c0-.3-.11-.53-.32-.69s-.59-.33-1.14-.49c-.55-.17-.99-.35-1.31-.55-.62-.39-.93-.9-.93-1.53,0-.55.22-1,.67-1.36.45-.36,1.03-.53,1.75-.53.48,0,.9.09,1.27.26.37.17.66.42.88.75.21.32.32.68.32,1.08h-1.18c0-.36-.11-.63-.33-.84s-.54-.3-.96-.3c-.39,0-.69.08-.9.25-.21.17-.32.4-.32.69,0,.25.12.46.35.63.23.17.61.33,1.14.49s.96.34,1.28.54.56.43.71.69c.15.26.23.57.23.92,0,.57-.22,1.02-.65,1.36s-1.03.5-1.77.5c-.49,0-.95-.09-1.36-.27-.41-.18-.74-.44-.97-.76s-.34-.7-.34-1.12h1.19c0,.39.13.69.38.9.26.21.62.32,1.1.32.41,0,.72-.08.93-.25.21-.17.31-.39.31-.66Z"/>
    <path class="cls-5" d="m26.97,83.83c-.15-.02-.3-.04-.46-.04-.52,0-.87.2-1.05.6v3.47h-1.14v-5.07h1.09l.03.57c.27-.44.66-.66,1.14-.66.16,0,.3.02.4.07v1.07Z"/>
    <path class="cls-5" d="m27.31,85.28c0-.5.1-.94.3-1.34s.47-.7.83-.92c.36-.21.77-.32,1.23-.32.68,0,1.24.22,1.67.66.43.44.66,1.03.69,1.75v.27c0,.5-.09.95-.28,1.34-.19.39-.47.7-.83.91-.36.22-.77.32-1.24.32-.72,0-1.29-.24-1.72-.71s-.64-1.11-.64-1.91v-.06Zm1.14.1c0,.52.11.93.32,1.23.22.3.52.44.9.44s.68-.15.9-.45c.21-.3.32-.74.32-1.32,0-.51-.11-.92-.33-1.22-.22-.3-.52-.45-.9-.45s-.67.15-.89.44-.33.74-.33,1.32Z"/>
    <path class="cls-5" d="m34.71,86.42l1.07-3.63h1.18l-1.76,5.07h-.99l-1.77-5.07h1.18l1.09,3.63Z"/>
    <path class="cls-5" d="m38.72,82.79l.03.59c.38-.45.87-.68,1.48-.68,1.06,0,1.59.6,1.61,1.81v3.35h-1.14v-3.29c0-.32-.07-.56-.21-.71-.14-.15-.37-.23-.68-.23-.46,0-.8.21-1.03.62v3.61h-1.14v-5.07h1.07Z"/>
    <path class="cls-5" d="m46.04,87.87c-.05-.1-.09-.25-.13-.47-.36.38-.81.57-1.33.57s-.92-.15-1.25-.44-.48-.65-.48-1.08c0-.54.2-.96.6-1.24.4-.29.98-.43,1.72-.43h.7v-.33c0-.26-.07-.47-.22-.63-.15-.16-.37-.24-.67-.24-.26,0-.47.06-.64.19-.17.13-.25.29-.25.49h-1.14c0-.28.09-.54.28-.78.18-.24.44-.43.75-.57.32-.14.67-.21,1.06-.21.59,0,1.07.15,1.42.45.35.3.53.72.54,1.26v2.29c0,.46.06.82.19,1.09v.08h-1.16Zm-1.25-.82c.23,0,.44-.05.64-.16.2-.11.35-.26.45-.44v-.96h-.61c-.42,0-.74.07-.95.22-.21.15-.32.35-.32.62,0,.22.07.39.22.52.15.13.34.19.58.19Zm.63-6.38h1.3l-1.3,1.42h-.91s.91-1.42.91-1.42Z"/>
    <path class="cls-5" d="m49.99,86.42l1.07-3.63h1.18l-1.76,5.07h-.99l-1.77-5.07h1.18l1.09,3.63Z"/>
    <path class="cls-5" d="m55.91,87.87c-.05-.1-.09-.25-.13-.47-.36.38-.81.57-1.33.57s-.92-.15-1.25-.44-.48-.65-.48-1.08c0-.54.2-.96.6-1.24.4-.29.98-.43,1.72-.43h.7v-.33c0-.26-.07-.47-.22-.63-.15-.16-.37-.24-.67-.24-.26,0-.47.06-.64.19-.17.13-.25.29-.25.49h-1.14c0-.28.09-.54.28-.78.18-.24.44-.43.75-.57.32-.14.67-.21,1.06-.21.59,0,1.07.15,1.42.45.35.3.53.72.54,1.26v2.29c0,.46.06.82.19,1.09v.08h-1.16Zm-1.25-.82c.23,0,.44-.05.64-.16.2-.11.35-.26.45-.44v-.96h-.61c-.42,0-.74.07-.95.22-.21.15-.32.35-.32.62,0,.22.07.39.22.52.15.13.34.19.58.19Z"/>
    <path class="cls-5" d="m59.13,82.79l.03.59c.38-.45.87-.68,1.48-.68,1.06,0,1.59.6,1.61,1.81v3.35h-1.14v-3.29c0-.32-.07-.56-.21-.71-.14-.15-.37-.23-.68-.23-.46,0-.8.21-1.03.62v3.61h-1.14v-5.07h1.07Z"/>
    <path class="cls-5" d="m65.19,86.23l1.03-3.44h1.21l-2.02,5.84c-.31.85-.83,1.28-1.57,1.28-.17,0-.35-.03-.55-.08v-.89h.22c.29.01.5-.04.65-.14.15-.1.26-.28.34-.53l.16-.44-1.78-5.04h1.23l1.07,3.44Zm.38-5.57h1.3l-1.3,1.42h-.91s.91-1.42.91-1.42Z"/>
    <path class="cls-5" d="m70.26,85.29c0-.78.18-1.41.54-1.88.36-.47.85-.71,1.46-.71.54,0,.97.19,1.3.56v-2.6h1.14v7.2h-1.03l-.06-.52c-.34.41-.8.62-1.36.62s-1.07-.24-1.44-.72-.55-1.13-.55-1.95Zm1.14.1c0,.52.1.92.3,1.21.2.29.48.43.85.43.47,0,.81-.21,1.02-.62v-2.17c-.21-.41-.55-.61-1.01-.61-.37,0-.65.15-.85.44-.2.29-.3.73-.3,1.32Z"/>
    <path class="cls-5" d="m78.13,87.96c-.72,0-1.31-.23-1.76-.68-.45-.45-.67-1.06-.67-1.82v-.14c0-.51.1-.96.29-1.36s.47-.71.82-.93c.35-.22.75-.33,1.18-.33.69,0,1.22.22,1.6.66.38.44.56,1.06.56,1.87v.46h-3.31c.03.42.17.75.42.99s.55.37.93.37c.52,0,.95-.21,1.27-.63l.61.59c-.2.3-.47.54-.81.71-.34.17-.72.25-1.14.25Zm-.14-4.35c-.31,0-.56.11-.76.33-.19.22-.31.52-.37.91h2.17v-.08c-.02-.38-.13-.67-.3-.86s-.42-.29-.74-.29Z"/>
    <path class="cls-5" d="m82.1,82.79l.03.59c.38-.45.87-.68,1.48-.68,1.06,0,1.59.6,1.61,1.81v3.35h-1.14v-3.29c0-.32-.07-.56-.21-.71-.14-.15-.37-.23-.68-.23-.46,0-.8.21-1.03.62v3.61h-1.14v-5.07h1.07Z"/>
  </g>
  <g>
    <path class="cls-5" d="m138.3,81.04l1.97,5.23,1.96-5.23h1.53v6.83h-1.18v-2.25l.12-3.01-2.02,5.26h-.85l-2.01-5.25.12,3v2.25h-1.18v-6.83h1.54Z"/>
    <path class="cls-5" d="m146.28,87.87h-1.14v-5.07h1.14v5.07Zm-.22-7.17h1.3l-1.3,1.42h-.91s.91-1.42.91-1.42Z"/>
    <path class="cls-5" d="m150.42,86.49c0-.2-.08-.36-.25-.46-.17-.11-.44-.2-.83-.28-.39-.08-.71-.18-.97-.31-.57-.28-.85-.67-.85-1.2,0-.44.18-.8.55-1.1.37-.29.84-.44,1.41-.44.61,0,1.1.15,1.47.45.37.3.56.69.56,1.17h-1.14c0-.22-.08-.4-.24-.55-.16-.15-.38-.22-.65-.22-.25,0-.45.06-.61.17-.16.12-.24.27-.24.46,0,.17.07.31.22.41.15.1.44.19.89.29.45.1.8.22,1.05.35.25.14.44.3.57.49s.19.42.19.69c0,.46-.19.83-.57,1.11-.38.28-.87.42-1.49.42-.42,0-.79-.08-1.11-.23s-.58-.36-.76-.62-.27-.55-.27-.85h1.11c.02.27.12.48.3.62.19.15.44.22.75.22s.53-.06.68-.17c.16-.11.23-.26.23-.45Z"/>
    <path class="cls-5" d="m153.96,81.56v1.23h.9v.84h-.9v2.83c0,.19.04.33.12.42.08.09.21.13.41.13.13,0,.26-.02.4-.05v.88c-.26.07-.51.11-.75.11-.88,0-1.31-.48-1.31-1.45v-2.87h-.83v-.84h.83v-1.23h1.14Z"/>
    <path class="cls-5" d="m155.37,85.28c0-.5.1-.94.3-1.34s.47-.7.83-.92c.36-.21.77-.32,1.23-.32.68,0,1.24.22,1.67.66.43.44.66,1.03.69,1.75v.27c0,.5-.09.95-.28,1.34-.19.39-.47.7-.83.91-.36.22-.77.32-1.24.32-.72,0-1.29-.24-1.72-.71s-.64-1.11-.64-1.91v-.06Zm1.14.1c0,.52.11.93.32,1.23.22.3.52.44.9.44s.68-.15.9-.45c.21-.3.32-.74.32-1.32,0-.51-.11-.92-.33-1.22-.22-.3-.52-.45-.9-.45s-.67.15-.89.44-.33.74-.33,1.32Z"/>
    <path class="cls-5" d="m164.51,82.79l.03.53c.36-.42.84-.62,1.46-.62.68,0,1.14.26,1.39.78.37-.52.89-.78,1.56-.78.56,0,.98.15,1.25.46.27.31.41.77.42,1.37v3.33h-1.14v-3.3c0-.32-.07-.56-.21-.71s-.37-.23-.7-.23c-.26,0-.47.07-.64.21-.16.14-.28.32-.34.55v3.48s-1.13,0-1.13,0v-3.34c-.02-.6-.32-.9-.91-.9-.46,0-.78.19-.97.56v3.67h-1.14v-5.07h1.07Z"/>
    <path class="cls-5" d="m174.03,87.96c-.72,0-1.31-.23-1.76-.68-.45-.45-.67-1.06-.67-1.82v-.14c0-.51.1-.96.29-1.36s.47-.71.82-.93c.35-.22.75-.33,1.18-.33.69,0,1.22.22,1.6.66.38.44.56,1.06.56,1.87v.46h-3.31c.03.42.17.75.42.99s.55.37.93.37c.52,0,.95-.21,1.27-.63l.61.59c-.2.3-.47.54-.81.71-.34.17-.72.25-1.14.25Zm-.22-6.57l.68-.73h.98v.05l-1.31,1.31h-.7l-1.3-1.31v-.04h.97l.68.73Zm.08,2.23c-.31,0-.56.11-.76.33-.19.22-.31.52-.37.91h2.17v-.08c-.02-.38-.13-.67-.3-.86s-.42-.29-.74-.29Z"/>
    <path class="cls-5" d="m178.28,81.39l.68-.73h.98v.05l-1.31,1.31h-.7l-1.3-1.31v-.04h.97l.68.73Zm1.33,2.45c-.15-.02-.3-.04-.46-.04-.52,0-.87.2-1.05.6v3.47h-1.14v-5.07h1.09l.03.57c.27-.44.66-.66,1.14-.66.16,0,.3.02.4.07v1.07Z"/>
    <path class="cls-5" d="m182.56,87.96c-.72,0-1.31-.23-1.76-.68-.45-.45-.67-1.06-.67-1.82v-.14c0-.51.1-.96.29-1.36s.47-.71.82-.93c.35-.22.75-.33,1.18-.33.69,0,1.22.22,1.6.66.38.44.56,1.06.56,1.87v.46h-3.31c.03.42.17.75.42.99s.55.37.93.37c.52,0,.95-.21,1.27-.63l.61.59c-.2.3-.47.54-.81.71-.34.17-.72.25-1.14.25Zm-.14-4.35c-.31,0-.56.11-.76.33-.19.22-.31.52-.37.91h2.17v-.08c-.02-.38-.13-.67-.3-.86s-.42-.29-.74-.29Z"/>
    <path class="cls-5" d="m186.53,82.79l.03.59c.38-.45.87-.68,1.48-.68,1.06,0,1.59.6,1.61,1.81v3.35h-1.14v-3.29c0-.32-.07-.56-.21-.71-.14-.15-.37-.23-.68-.23-.46,0-.8.21-1.03.62v3.61h-1.14v-5.07h1.07Z"/>
    <path class="cls-5" d="m192.04,87.87h-1.14v-5.07h1.14v5.07Zm-.22-7.17h1.3l-1.3,1.42h-.91s.91-1.42.91-1.42Z"/>
  </g>
  <g>
    <path class="cls-5" d="m352.23,85.24h-1.32v2.62h-1.19v-6.83h2.4c.79,0,1.4.18,1.82.53.43.35.64.86.64,1.53,0,.46-.11.84-.33,1.15s-.53.54-.92.71l1.53,2.84v.06h-1.27l-1.37-2.62Zm-1.32-.96h1.22c.4,0,.71-.1.94-.3.22-.2.34-.48.34-.83s-.1-.65-.31-.85c-.21-.2-.52-.3-.93-.31h-1.25v2.29Z"/>
    <path class="cls-5" d="m357.84,87.96c-.72,0-1.31-.23-1.76-.68-.45-.45-.67-1.06-.67-1.82v-.14c0-.51.1-.96.29-1.36s.47-.71.82-.93c.35-.22.75-.33,1.18-.33.69,0,1.22.22,1.6.66.38.44.56,1.06.56,1.87v.46h-3.31c.03.42.17.75.42.99s.55.37.93.37c.52,0,.95-.21,1.27-.63l.61.59c-.2.3-.47.54-.81.71-.34.17-.72.25-1.14.25Zm-.14-4.35c-.31,0-.56.11-.76.33-.19.22-.31.52-.37.91h2.17v-.08c-.02-.38-.13-.67-.3-.86s-.42-.29-.74-.29Z"/>
    <path class="cls-5" d="m361.16,87.87v-4.23h-.77v-.84h.77v-.46c0-.56.16-1,.47-1.3.31-.31.75-.46,1.31-.46.2,0,.41.03.64.08l-.03.89c-.12-.03-.27-.04-.44-.04-.54,0-.82.28-.82.84v.45h1.03v.84h-1.03v4.23h-1.14Z"/>
    <path class="cls-5" d="m366.39,87.96c-.72,0-1.31-.23-1.76-.68-.45-.45-.67-1.06-.67-1.82v-.14c0-.51.1-.96.29-1.36s.47-.71.82-.93c.35-.22.75-.33,1.18-.33.69,0,1.22.22,1.6.66.38.44.56,1.06.56,1.87v.46h-3.31c.03.42.17.75.42.99s.55.37.93.37c.52,0,.95-.21,1.27-.63l.61.59c-.2.3-.47.54-.81.71-.34.17-.72.25-1.14.25Zm-.14-4.35c-.31,0-.56.11-.76.33-.19.22-.31.52-.37.91h2.17v-.08c-.02-.38-.13-.67-.3-.86s-.42-.29-.74-.29Z"/>
    <path class="cls-5" d="m371.97,83.83c-.15-.02-.3-.04-.46-.04-.52,0-.87.2-1.05.6v3.47h-1.14v-5.07h1.09l.03.57c.27-.44.66-.66,1.14-.66.16,0,.3.02.4.07v1.07Z"/>
    <path class="cls-5" d="m374.92,87.96c-.72,0-1.31-.23-1.76-.68-.45-.45-.67-1.06-.67-1.82v-.14c0-.51.1-.96.29-1.36s.47-.71.82-.93c.35-.22.75-.33,1.18-.33.69,0,1.22.22,1.6.66.38.44.56,1.06.56,1.87v.46h-3.31c.03.42.17.75.42.99s.55.37.93.37c.52,0,.95-.21,1.27-.63l.61.59c-.2.3-.47.54-.81.71-.34.17-.72.25-1.14.25Zm-.14-4.35c-.31,0-.56.11-.76.33-.19.22-.31.52-.37.91h2.17v-.08c-.02-.38-.13-.67-.3-.86s-.42-.29-.74-.29Z"/>
    <path class="cls-5" d="m378.89,82.79l.03.59c.38-.45.87-.68,1.48-.68,1.06,0,1.59.6,1.61,1.81v3.35h-1.14v-3.29c0-.32-.07-.56-.21-.71-.14-.15-.37-.23-.68-.23-.46,0-.8.21-1.03.62v3.61h-1.14v-5.07h1.07Z"/>
    <path class="cls-5" d="m385.26,87.05c.28,0,.52-.08.71-.25s.29-.37.3-.61h1.07c-.01.32-.11.61-.3.88s-.43.49-.75.65c-.32.16-.66.24-1.02.24-.71,0-1.27-.23-1.69-.69s-.62-1.09-.62-1.9v-.12c0-.77.21-1.39.62-1.85.41-.46.97-.7,1.69-.7.6,0,1.09.18,1.47.53.38.35.58.81.6,1.39h-1.07c-.01-.29-.11-.53-.3-.72s-.42-.28-.71-.28c-.37,0-.65.13-.85.4-.2.27-.3.67-.3,1.22v.18c0,.55.1.96.3,1.23.2.27.48.41.86.41Zm-.18-5.66l.68-.73h.98v.05l-1.31,1.31h-.7l-1.3-1.31v-.04h.97l.68.73Z"/>
    <path class="cls-5" d="m389.26,82.79l.03.59c.38-.45.87-.68,1.48-.68,1.06,0,1.59.6,1.61,1.81v3.35h-1.14v-3.29c0-.32-.07-.56-.21-.71-.14-.15-.37-.23-.68-.23-.46,0-.8.21-1.03.62v3.61h-1.14v-5.07h1.07Z"/>
    <path class="cls-5" d="m394.77,87.87h-1.14v-5.07h1.14v5.07Zm-.22-7.17h1.3l-1.3,1.42h-.91s.91-1.42.91-1.42Z"/>
    <path class="cls-5" d="m398.24,85.28c0-.5.1-.94.3-1.34s.47-.7.83-.92c.36-.21.77-.32,1.23-.32.68,0,1.24.22,1.67.66.43.44.66,1.03.69,1.75v.27c0,.5-.09.95-.28,1.34-.19.39-.47.7-.83.91-.36.22-.77.32-1.24.32-.72,0-1.29-.24-1.72-.71s-.64-1.11-.64-1.91v-.06Zm1.14.1c0,.52.11.93.32,1.23.22.3.52.44.9.44s.68-.15.9-.45c.21-.3.32-.74.32-1.32,0-.51-.11-.92-.33-1.22-.22-.3-.52-.45-.9-.45s-.67.15-.89.44-.33.74-.33,1.32Z"/>
    <path class="cls-5" d="m408.37,85.38c0,.79-.18,1.41-.53,1.88-.35.47-.83.7-1.45.7s-1.06-.21-1.39-.64l-.06.55h-1.03v-7.2h1.14v2.62c.33-.39.77-.58,1.33-.58.62,0,1.1.23,1.46.69.35.46.53,1.1.53,1.93v.07Zm-1.14-.1c0-.55-.1-.96-.29-1.24-.19-.27-.47-.41-.84-.41-.49,0-.84.22-1.04.65v2.09c.2.44.55.66,1.05.66.36,0,.63-.13.82-.4s.29-.67.3-1.2v-.15Z"/>
    <path class="cls-5" d="m409.11,85.29c0-.78.18-1.41.54-1.88.36-.47.85-.71,1.46-.71.54,0,.97.19,1.3.56v-2.6h1.14v7.2h-1.03l-.06-.52c-.34.41-.8.62-1.36.62s-1.07-.24-1.44-.72-.55-1.13-.55-1.95Zm1.14.1c0,.52.1.92.3,1.21.2.29.48.43.85.43.47,0,.81-.21,1.02-.62v-2.17c-.21-.41-.55-.61-1.01-.61-.37,0-.65.15-.85.44-.2.29-.3.73-.3,1.32Z"/>
    <path class="cls-5" d="m414.53,85.28c0-.5.1-.94.3-1.34s.47-.7.83-.92c.36-.21.77-.32,1.23-.32.68,0,1.24.22,1.67.66.43.44.66,1.03.69,1.75v.27c0,.5-.09.95-.28,1.34-.19.39-.47.7-.83.91-.36.22-.77.32-1.24.32-.72,0-1.29-.24-1.72-.71s-.64-1.11-.64-1.91v-.06Zm1.14.1c0,.52.11.93.32,1.23.22.3.52.44.9.44s.68-.15.9-.45c.21-.3.32-.74.32-1.32,0-.51-.11-.92-.33-1.22-.22-.3-.52-.45-.9-.45s-.67.15-.89.44-.33.74-.33,1.32Z"/>
    <path class="cls-5" d="m424.66,85.38c0,.79-.18,1.41-.53,1.88-.35.47-.83.7-1.45.7s-1.06-.21-1.39-.64l-.06.55h-1.03v-7.2h1.14v2.62c.33-.39.77-.58,1.33-.58.62,0,1.1.23,1.46.69.35.46.53,1.1.53,1.93v.07Zm-1.14-.1c0-.55-.1-.96-.29-1.24-.19-.27-.47-.41-.84-.41-.49,0-.84.22-1.04.65v2.09c.2.44.55.66,1.05.66.36,0,.63-.13.82-.4s.29-.67.3-1.2v-.15Z"/>
    <path class="cls-5" d="m426.84,87.87h-1.14v-5.07h1.14v5.07Zm-.22-7.17h1.3l-1.3,1.42h-.91s.91-1.42.91-1.42Z"/>
  </g>
  <g>
    <path class="cls-5" d="m7.94,13.17v3.06h-1.03v-7.82h2.88c.86,0,1.53.22,2.01.66.48.44.73,1.02.73,1.73,0,.76-.24,1.34-.71,1.75-.47.41-1.15.62-2.04.62h-1.84Zm0-.84h1.85c.55,0,.97-.13,1.27-.39.29-.26.44-.64.44-1.13s-.15-.84-.44-1.12-.7-.43-1.21-.44h-1.91v3.07Z"/>
    <path class="cls-5" d="m16.5,11.31c-.15-.02-.31-.04-.49-.04-.65,0-1.09.28-1.33.83v4.12h-.99v-5.81h.97l.02.67c.33-.52.79-.78,1.39-.78.19,0,.34.02.44.08v.92Z"/>
    <path class="cls-5" d="m17.04,13.27c0-.57.11-1.08.34-1.54.22-.45.54-.81.93-1.05.4-.25.85-.37,1.37-.37.79,0,1.43.27,1.92.82.49.55.73,1.28.73,2.19v.07c0,.57-.11,1.07-.33,1.52-.22.45-.53.8-.93,1.05-.4.25-.87.38-1.39.38-.79,0-1.43-.27-1.92-.82-.49-.55-.73-1.27-.73-2.18v-.07Zm1,.12c0,.64.15,1.16.45,1.55.3.39.7.59,1.2.59s.91-.2,1.2-.59c.3-.4.45-.95.45-1.66,0-.64-.15-1.15-.45-1.55-.3-.4-.7-.59-1.21-.59s-.89.2-1.19.59-.45.95-.45,1.68Z"/>
    <path class="cls-5" d="m29.89,15.65c-.39.45-.95.68-1.7.68-.62,0-1.09-.18-1.42-.54-.32-.36-.49-.89-.49-1.6v-3.78h.99v3.75c0,.88.36,1.32,1.07,1.32.76,0,1.26-.28,1.51-.85v-4.23h.99v5.81h-.95l-.02-.57Z"/>
    <path class="cls-5" d="m35.17,11.31c-.15-.02-.31-.04-.49-.04-.65,0-1.09.28-1.33.83v4.12h-.99v-5.81h.97l.02.67c.33-.52.79-.78,1.39-.78.19,0,.34.02.44.08v.92Z"/>
    <path class="cls-5" d="m38.42,15.52c.35,0,.66-.11.93-.32s.41-.48.44-.81h.94c-.02.33-.13.65-.34.95s-.49.54-.85.72c-.35.18-.73.27-1.12.27-.79,0-1.42-.26-1.89-.79-.47-.53-.7-1.25-.7-2.17v-.17c0-.57.1-1.07.31-1.51s.51-.78.89-1.03c.39-.24.85-.37,1.38-.37.65,0,1.19.2,1.62.59.43.39.66.9.69,1.52h-.94c-.03-.38-.17-.68-.43-.93-.26-.24-.57-.36-.95-.36-.5,0-.9.18-1.17.54-.28.36-.42.89-.42,1.58v.19c0,.67.14,1.19.41,1.55s.67.54,1.18.54Zm-.23-6.63l.81-.91h.86v.05l-1.36,1.47h-.61l-1.35-1.47v-.05h.84l.81.91Z"/>
    <path class="cls-5" d="m44.25,16.34c-.79,0-1.43-.26-1.92-.78-.49-.52-.74-1.21-.74-2.08v-.18c0-.58.11-1.09.33-1.54.22-.45.53-.81.92-1.06.4-.26.82-.38,1.29-.38.76,0,1.34.25,1.76.75s.63,1.21.63,2.14v.41h-3.94c.01.57.18,1.04.5,1.39.32.35.73.53,1.22.53.35,0,.65-.07.89-.21s.46-.33.64-.57l.61.47c-.49.75-1.22,1.12-2.19,1.12Zm-.12-5.21c-.4,0-.74.15-1.01.44-.27.29-.44.7-.5,1.23h2.91v-.08c-.03-.5-.16-.9-.41-1.17-.24-.28-.57-.42-.99-.42Z"/>
    <path class="cls-5" d="m48.61,10.42l.03.73c.44-.56,1.02-.84,1.74-.84,1.23,0,1.85.69,1.86,2.08v3.84h-.99v-3.85c0-.42-.1-.73-.29-.93-.19-.2-.48-.3-.88-.3-.32,0-.6.09-.85.26s-.43.4-.57.68v4.14h-.99v-5.81h.94Z"/>
    <path class="cls-5" d="m54.83,7.98h1.2l-1.44,1.58h-.8s1.04-1.58,1.04-1.58Zm-.01,8.24h-1v-5.81h1v5.81Z"/>
    <path class="cls-5" d="m61.1,14.88l1.44-4.46h1.02l-2.08,5.81h-.76l-2.11-5.81h1.02l1.48,4.46Z"/>
    <path class="cls-5" d="m66.41,14.77l1.35-4.36h1.06l-2.34,6.71c-.36.97-.94,1.45-1.72,1.45l-.19-.02-.37-.07v-.81l.27.02c.34,0,.6-.07.79-.2.19-.14.34-.38.46-.75l.22-.59-2.07-5.75h1.08l1.45,4.36Zm.56-6.79h1.2l-1.44,1.58h-.8s1.04-1.58,1.04-1.58Z"/>
    <path class="cls-5" d="m70.74,10.42v6.48c0,1.12-.51,1.68-1.52,1.68-.22,0-.42-.03-.61-.1v-.79c.11.03.27.04.45.04.22,0,.39-.06.51-.18.12-.12.17-.33.17-.63v-6.51h.99Zm-1.1-1.54c0-.16.05-.29.15-.41.1-.11.24-.17.43-.17s.34.06.44.17.15.25.15.41-.05.3-.15.4-.25.16-.44.16-.34-.05-.44-.16-.15-.24-.15-.4Z"/>
    <path class="cls-5" d="m72.35,8.87c0-.16.05-.3.15-.41.1-.11.24-.17.44-.17s.34.06.44.17.15.25.15.41-.05.3-.15.4-.25.16-.44.16-.34-.05-.44-.16c-.1-.11-.15-.24-.15-.4Zm1.07,7.35h-.99v-5.81h.99v5.81Z"/>
    <path class="cls-5" d="m75.94,10.42l.03.64c.43-.5,1-.75,1.72-.75.81,0,1.37.31,1.66.93.19-.28.44-.5.75-.68.31-.17.68-.26,1.1-.26,1.27,0,1.92.67,1.94,2.02v3.89h-.99v-3.83c0-.42-.09-.73-.28-.93-.19-.21-.51-.31-.96-.31-.37,0-.67.11-.92.33-.24.22-.38.52-.42.89v3.86h-1v-3.81c0-.85-.41-1.27-1.24-1.27-.65,0-1.1.28-1.34.83v4.24h-.99v-5.81h.94Z"/>
    <path class="cls-5" d="m87.06,16.34c-.79,0-1.43-.26-1.92-.78-.49-.52-.74-1.21-.74-2.08v-.18c0-.58.11-1.09.33-1.54.22-.45.53-.81.92-1.06.4-.26.82-.38,1.29-.38.76,0,1.34.25,1.76.75s.63,1.21.63,2.14v.41h-3.94c.01.57.18,1.04.5,1.39.32.35.73.53,1.22.53.35,0,.65-.07.89-.21s.46-.33.64-.57l.61.47c-.49.75-1.22,1.12-2.19,1.12Zm-.12-5.21c-.4,0-.74.15-1.01.44-.27.29-.44.7-.5,1.23h2.91v-.08c-.03-.5-.16-.9-.41-1.17-.24-.28-.57-.42-.99-.42Z"/>
    <path class="cls-5" d="m92.81,15.52c.35,0,.66-.11.93-.32s.41-.48.44-.81h.94c-.02.33-.13.65-.34.95s-.49.54-.85.72c-.35.18-.73.27-1.12.27-.79,0-1.42-.26-1.89-.79-.47-.53-.7-1.25-.7-2.17v-.17c0-.57.1-1.07.31-1.51s.51-.78.89-1.03c.39-.24.85-.37,1.38-.37.65,0,1.19.2,1.62.59.43.39.66.9.69,1.52h-.94c-.03-.38-.17-.68-.43-.93-.26-.24-.57-.36-.95-.36-.5,0-.9.18-1.17.54-.28.36-.42.89-.42,1.58v.19c0,.67.14,1.19.41,1.55s.67.54,1.18.54Zm-.23-6.63l.81-.91h.86v.05l-1.36,1.47h-.61l-1.35-1.47v-.05h.84l.81.91Z"/>
    <path class="cls-5" d="m97.18,10.42l.03.73c.44-.56,1.02-.84,1.74-.84,1.23,0,1.85.69,1.86,2.08v3.84h-.99v-3.85c0-.42-.1-.73-.29-.93-.19-.2-.48-.3-.88-.3-.32,0-.6.09-.85.26s-.43.4-.57.68v4.14h-.99v-5.81h.94Z"/>
    <path class="cls-5" d="m104.72,16.34c-.79,0-1.43-.26-1.92-.78-.49-.52-.74-1.21-.74-2.08v-.18c0-.58.11-1.09.33-1.54.22-.45.53-.81.92-1.06.4-.26.82-.38,1.29-.38.76,0,1.34.25,1.76.75s.63,1.21.63,2.14v.41h-3.94c.01.57.18,1.04.5,1.39.32.35.73.53,1.22.53.35,0,.65-.07.89-.21s.46-.33.64-.57l.61.47c-.49.75-1.22,1.12-2.19,1.12Zm-.13-7.44l.81-.91h.86v.05l-1.36,1.47h-.61l-1.35-1.47v-.05h.84l.81.91Zm.01,2.23c-.4,0-.74.15-1.01.44-.27.29-.44.7-.5,1.23h2.91v-.08c-.03-.5-.16-.9-.41-1.17-.24-.28-.57-.42-.99-.42Z"/>
    <path class="cls-5" d="m112.2,9.01v1.41h1.08v.77h-1.08v3.61c0,.23.05.41.15.52.1.12.26.17.49.17.11,0,.27-.02.47-.06v.8c-.26.07-.52.11-.76.11-.44,0-.78-.13-1-.4s-.34-.65-.34-1.14v-3.6h-1.06v-.77h1.06v-1.41h.99Z"/>
    <path class="cls-5" d="m116.86,16.34c-.79,0-1.43-.26-1.92-.78-.49-.52-.74-1.21-.74-2.08v-.18c0-.58.11-1.09.33-1.54.22-.45.53-.81.92-1.06.4-.26.82-.38,1.29-.38.76,0,1.34.25,1.76.75s.63,1.21.63,2.14v.41h-3.94c.01.57.18,1.04.5,1.39.32.35.73.53,1.22.53.35,0,.65-.07.89-.21s.46-.33.64-.57l.61.47c-.49.75-1.22,1.12-2.19,1.12Zm-.12-5.21c-.4,0-.74.15-1.01.44-.27.29-.44.7-.5,1.23h2.91v-.08c-.03-.5-.16-.9-.41-1.17-.24-.28-.57-.42-.99-.42Z"/>
    <path class="cls-5" d="m125.19,13.39c0,.88-.2,1.6-.61,2.14s-.95.81-1.64.81-1.26-.22-1.67-.67v2.8h-.99v-8.05h.91l.05.64c.4-.5.97-.75,1.69-.75s1.25.26,1.66.79c.41.53.61,1.26.61,2.2v.09Zm-.99-.11c0-.66-.14-1.17-.42-1.55s-.66-.57-1.15-.57c-.6,0-1.05.27-1.35.8v2.78c.3.53.75.79,1.36.79.48,0,.85-.19,1.14-.57.28-.38.42-.94.42-1.68Z"/>
    <path class="cls-5" d="m127.53,16.23h-.99V7.98h.99v8.25Z"/>
    <path class="cls-5" d="m131.02,14.77l1.35-4.36h1.06l-2.34,6.71c-.36.97-.94,1.45-1.72,1.45l-.19-.02-.37-.07v-.81l.27.02c.34,0,.6-.07.79-.2.19-.14.34-.38.46-.75l.22-.59-2.07-5.75h1.08l1.45,4.36Zm.56-6.79h1.2l-1.44,1.58h-.8s1.04-1.58,1.04-1.58Z"/>
    <path class="cls-5" d="m136.65,15.52c.35,0,.66-.11.93-.32s.41-.48.44-.81h.94c-.02.33-.13.65-.34.95s-.49.54-.85.72c-.35.18-.73.27-1.12.27-.79,0-1.42-.26-1.89-.79-.47-.53-.7-1.25-.7-2.17v-.17c0-.57.1-1.07.31-1.51s.51-.78.89-1.03c.39-.24.85-.37,1.38-.37.65,0,1.19.2,1.62.59.43.39.66.9.69,1.52h-.94c-.03-.38-.17-.68-.43-.93-.26-.24-.57-.36-.95-.36-.5,0-.9.18-1.17.54-.28.36-.42.89-.42,1.58v.19c0,.67.14,1.19.41,1.55s.67.54,1.18.54Z"/>
    <path class="cls-5" d="m141.07,11.12c.44-.54,1.01-.81,1.72-.81,1.23,0,1.85.69,1.86,2.08v3.84h-.99v-3.85c0-.42-.1-.73-.29-.93-.19-.2-.48-.3-.88-.3-.32,0-.6.09-.85.26s-.43.4-.57.68v4.14h-.99V7.98h.99v3.14Z"/>
    <path class="cls-5" d="m151.19,15.52c.35,0,.66-.11.93-.32s.41-.48.44-.81h.94c-.02.33-.13.65-.34.95s-.49.54-.85.72c-.35.18-.73.27-1.12.27-.79,0-1.42-.26-1.89-.79-.47-.53-.7-1.25-.7-2.17v-.17c0-.57.1-1.07.31-1.51s.51-.78.89-1.03c.39-.24.85-.37,1.38-.37.65,0,1.19.2,1.62.59.43.39.66.9.69,1.52h-.94c-.03-.38-.17-.68-.43-.93-.26-.24-.57-.36-.95-.36-.5,0-.9.18-1.17.54-.28.36-.42.89-.42,1.58v.19c0,.67.14,1.19.41,1.55s.67.54,1.18.54Zm-.23-6.63l.81-.91h.86v.05l-1.36,1.47h-.61l-1.35-1.47v-.05h.84l.81.91Z"/>
    <path class="cls-5" d="m154.62,8.87c0-.16.05-.3.15-.41.1-.11.24-.17.44-.17s.34.06.44.17.15.25.15.41-.05.3-.15.4-.25.16-.44.16-.34-.05-.44-.16c-.1-.11-.15-.24-.15-.4Zm1.07,7.35h-.99v-5.81h.99v5.81Z"/>
    <path class="cls-5" d="m162.34,15.52c.35,0,.66-.11.93-.32s.41-.48.44-.81h.94c-.02.33-.13.65-.34.95s-.49.54-.85.72c-.35.18-.73.27-1.12.27-.79,0-1.42-.26-1.89-.79-.47-.53-.7-1.25-.7-2.17v-.17c0-.57.1-1.07.31-1.51s.51-.78.89-1.03c.39-.24.85-.37,1.38-.37.65,0,1.19.2,1.62.59.43.39.66.9.69,1.52h-.94c-.03-.38-.17-.68-.43-.93-.26-.24-.57-.36-.95-.36-.5,0-.9.18-1.17.54-.28.36-.42.89-.42,1.58v.19c0,.67.14,1.19.41,1.55s.67.54,1.18.54Z"/>
    <path class="cls-5" d="m166.76,11.12c.44-.54,1.01-.81,1.72-.81,1.23,0,1.85.69,1.86,2.08v3.84h-.99v-3.85c0-.42-.1-.73-.29-.93-.19-.2-.48-.3-.88-.3-.32,0-.6.09-.85.26s-.43.4-.57.68v4.14h-.99V7.98h.99v3.14Z"/>
    <path class="cls-5" d="m172.91,16.23h-.99V7.98h.99v8.25Z"/>
    <path class="cls-5" d="m178.09,16.23c-.06-.11-.1-.32-.14-.61-.46.48-1.01.72-1.65.72-.57,0-1.04-.16-1.41-.49-.37-.32-.55-.73-.55-1.23,0-.6.23-1.08.69-1.41.46-.33,1.11-.5,1.94-.5h.97v-.46c0-.35-.1-.62-.31-.83-.21-.21-.51-.31-.92-.31-.35,0-.65.09-.89.27s-.36.4-.36.65h-1c0-.29.1-.57.31-.84.21-.27.48-.48.84-.64.35-.16.74-.24,1.16-.24.67,0,1.19.17,1.57.5.38.33.58.8.59,1.38v2.67c0,.53.07.96.2,1.27v.09h-1.04Zm-1.65-.76c.31,0,.61-.08.89-.24s.48-.37.61-.63v-1.19h-.78c-1.22,0-1.83.36-1.83,1.07,0,.31.1.56.31.73s.47.26.8.26Z"/>
    <path class="cls-5" d="m180.24,13.27c0-.89.21-1.61.63-2.15.42-.54.98-.81,1.66-.81s1.22.23,1.62.7v-3.03h.99v8.25h-.91l-.05-.62c-.4.49-.95.73-1.66.73s-1.22-.28-1.65-.83c-.42-.55-.64-1.27-.64-2.16v-.08Zm.99.11c0,.66.14,1.17.41,1.55s.65.56,1.13.56c.63,0,1.09-.28,1.38-.85v-2.67c-.3-.55-.75-.82-1.37-.82-.49,0-.87.19-1.14.56s-.41.93-.41,1.67Z"/>
    <path class="cls-5" d="m187.62,10.42l.03.73c.44-.56,1.02-.84,1.74-.84,1.23,0,1.85.69,1.86,2.08v3.84h-.99v-3.85c0-.42-.1-.73-.29-.93-.19-.2-.48-.3-.88-.3-.32,0-.6.09-.85.26s-.43.4-.57.68v4.14h-.99v-5.81h.94Z"/>
    <path class="cls-5" d="m194.66,14.77l1.35-4.36h1.06l-2.34,6.71c-.36.97-.94,1.45-1.72,1.45l-.19-.02-.37-.07v-.81l.27.02c.34,0,.6-.07.79-.2.19-.14.34-.38.46-.75l.22-.59-2.07-5.75h1.08l1.45,4.36Zm.56-6.79h1.2l-1.44,1.58h-.8s1.04-1.58,1.04-1.58Z"/>
    <path class="cls-5" d="m200.29,15.52c.35,0,.66-.11.93-.32s.41-.48.44-.81h.94c-.02.33-.13.65-.34.95s-.49.54-.85.72c-.35.18-.73.27-1.12.27-.79,0-1.42-.26-1.89-.79-.47-.53-.7-1.25-.7-2.17v-.17c0-.57.1-1.07.31-1.51s.51-.78.89-1.03c.39-.24.85-.37,1.38-.37.65,0,1.19.2,1.62.59.43.39.66.9.69,1.52h-.94c-.03-.38-.17-.68-.43-.93-.26-.24-.57-.36-.95-.36-.5,0-.9.18-1.17.54-.28.36-.42.89-.42,1.58v.19c0,.67.14,1.19.41,1.55s.67.54,1.18.54Z"/>
    <path class="cls-5" d="m204.71,11.12c.44-.54,1.01-.81,1.72-.81,1.23,0,1.85.69,1.86,2.08v3.84h-.99v-3.85c0-.42-.1-.73-.29-.93-.19-.2-.48-.3-.88-.3-.32,0-.6.09-.85.26s-.43.4-.57.68v4.14h-.99V7.98h.99v3.14Z"/>
    <path class="cls-5" d="m212.26,13.27c0-.89.21-1.61.63-2.15.42-.54.98-.81,1.66-.81s1.22.23,1.62.7v-3.03h.99v8.25h-.91l-.05-.62c-.4.49-.95.73-1.66.73s-1.22-.28-1.65-.83c-.42-.55-.64-1.27-.64-2.16v-.08Zm.99.11c0,.66.14,1.17.41,1.55s.65.56,1.13.56c.63,0,1.09-.28,1.38-.85v-2.67c-.3-.55-.75-.82-1.37-.82-.49,0-.87.19-1.14.56s-.41.93-.41,1.67Z"/>
    <path class="cls-5" d="m219.64,10.42l.03.73c.44-.56,1.02-.84,1.74-.84,1.23,0,1.85.69,1.86,2.08v3.84h-.99v-3.85c0-.42-.1-.73-.29-.93-.19-.2-.48-.3-.88-.3-.32,0-.6.09-.85.26s-.43.4-.57.68v4.14h-.99v-5.81h.94Z"/>
    <path class="cls-5" d="m225.86,7.98h1.2l-1.44,1.58h-.8s1.04-1.58,1.04-1.58Zm-.01,8.24h-1v-5.81h1v5.81Z"/>
    <path class="cls-5" d="m235.12,13.39c0,.88-.2,1.6-.61,2.14s-.95.81-1.64.81-1.26-.22-1.67-.67v2.8h-.99v-8.05h.91l.05.64c.4-.5.97-.75,1.69-.75s1.25.26,1.66.79c.41.53.61,1.26.61,2.2v.09Zm-.99-.11c0-.66-.14-1.17-.42-1.55s-.66-.57-1.15-.57c-.6,0-1.05.27-1.35.8v2.78c.3.53.75.79,1.36.79.48,0,.85-.19,1.14-.57.28-.38.42-.94.42-1.68Z"/>
    <path class="cls-5" d="m236.12,13.27c0-.57.11-1.08.34-1.54.22-.45.54-.81.93-1.05.4-.25.85-.37,1.37-.37.79,0,1.43.27,1.92.82.49.55.73,1.28.73,2.19v.07c0,.57-.11,1.07-.33,1.52-.22.45-.53.8-.93,1.05-.4.25-.87.38-1.39.38-.79,0-1.43-.27-1.92-.82-.49-.55-.73-1.27-.73-2.18v-.07Zm1,.12c0,.64.15,1.16.45,1.55.3.39.7.59,1.2.59s.91-.2,1.2-.59c.3-.4.45-.95.45-1.66,0-.64-.15-1.15-.45-1.55-.3-.4-.7-.59-1.21-.59s-.89.2-1.19.59-.45.95-.45,1.68Z"/>
    <path class="cls-5" d="m244.01,9.01v1.41h1.08v.77h-1.08v3.61c0,.23.05.41.15.52.1.12.26.17.49.17.11,0,.27-.02.47-.06v.8c-.26.07-.52.11-.76.11-.44,0-.78-.13-1-.4s-.34-.65-.34-1.14v-3.6h-1.06v-.77h1.06v-1.41h.99Z"/>
    <path class="cls-5" d="m247.68,8.89l.81-.91h.86v.05l-1.36,1.47h-.61l-1.35-1.47v-.05h.84l.81.91Zm1.38,2.42c-.15-.02-.31-.04-.49-.04-.65,0-1.09.28-1.33.83v4.12h-.99v-5.81h.97l.02.67c.33-.52.79-.78,1.39-.78.19,0,.34.02.44.08v.92Z"/>
    <path class="cls-5" d="m252.38,16.34c-.79,0-1.43-.26-1.92-.78-.49-.52-.74-1.21-.74-2.08v-.18c0-.58.11-1.09.33-1.54.22-.45.53-.81.92-1.06.4-.26.82-.38,1.29-.38.76,0,1.34.25,1.76.75s.63,1.21.63,2.14v.41h-3.94c.01.57.18,1.04.5,1.39.32.35.73.53,1.22.53.35,0,.65-.07.89-.21s.46-.33.64-.57l.61.47c-.49.75-1.22,1.12-2.19,1.12Zm-.12-5.21c-.4,0-.74.15-1.01.44-.27.29-.44.7-.5,1.23h2.91v-.08c-.03-.5-.16-.9-.41-1.17-.24-.28-.57-.42-.99-.42Z"/>
    <path class="cls-5" d="m260.72,13.39c0,.89-.2,1.6-.61,2.14-.41.54-.96.81-1.64.81-.73,0-1.3-.26-1.7-.78l-.05.67h-.91V7.98h.99v3.08c.4-.5.95-.75,1.66-.75s1.26.27,1.66.8c.4.53.6,1.26.6,2.19v.09Zm-.99-.11c0-.68-.13-1.2-.39-1.57s-.64-.55-1.13-.55c-.66,0-1.13.3-1.41.91v2.51c.3.61.78.91,1.42.91.48,0,.85-.18,1.11-.55s.4-.92.4-1.67Z"/>
    <path class="cls-5" d="m265.56,15.65c-.39.45-.95.68-1.7.68-.62,0-1.09-.18-1.42-.54-.32-.36-.49-.89-.49-1.6v-3.78h.99v3.75c0,.88.36,1.32,1.07,1.32.76,0,1.26-.28,1.51-.85v-4.23h.99v5.81h-.95l-.02-.57Z"/>
    <path class="cls-5" d="m269.06,10.42v6.48c0,1.12-.51,1.68-1.52,1.68-.22,0-.42-.03-.61-.1v-.79c.11.03.27.04.45.04.22,0,.39-.06.51-.18.12-.12.17-.33.17-.63v-6.51h.99Zm-1.1-1.54c0-.16.05-.29.15-.41.1-.11.24-.17.43-.17s.34.06.44.17.15.25.15.41-.05.3-.15.4-.25.16-.44.16-.34-.05-.44-.16-.15-.24-.15-.4Z"/>
    <path class="cls-5" d="m273.07,16.34c-.79,0-1.43-.26-1.92-.78-.49-.52-.74-1.21-.74-2.08v-.18c0-.58.11-1.09.33-1.54.22-.45.53-.81.92-1.06.4-.26.82-.38,1.29-.38.76,0,1.34.25,1.76.75s.63,1.21.63,2.14v.41h-3.94c.01.57.18,1.04.5,1.39.32.35.73.53,1.22.53.35,0,.65-.07.89-.21s.46-.33.64-.57l.61.47c-.49.75-1.22,1.12-2.19,1.12Zm-.12-5.21c-.4,0-.74.15-1.01.44-.27.29-.44.7-.5,1.23h2.91v-.08c-.03-.5-.16-.9-.41-1.17-.24-.28-.57-.42-.99-.42Z"/>
    <path class="cls-5" d="m277.42,10.42l.03.64c.43-.5,1-.75,1.72-.75.81,0,1.37.31,1.66.93.19-.28.44-.5.75-.68.31-.17.68-.26,1.1-.26,1.27,0,1.92.67,1.94,2.02v3.89h-.99v-3.83c0-.42-.09-.73-.28-.93-.19-.21-.51-.31-.96-.31-.37,0-.67.11-.92.33-.24.22-.38.52-.42.89v3.86h-1v-3.81c0-.85-.41-1.27-1.24-1.27-.65,0-1.1.28-1.34.83v4.24h-.99v-5.81h.94Z"/>
    <path class="cls-5" d="m288.54,16.34c-.79,0-1.43-.26-1.92-.78-.49-.52-.74-1.21-.74-2.08v-.18c0-.58.11-1.09.33-1.54.22-.45.53-.81.92-1.06.4-.26.82-.38,1.29-.38.76,0,1.34.25,1.76.75s.63,1.21.63,2.14v.41h-3.94c.01.57.18,1.04.5,1.39.32.35.73.53,1.22.53.35,0,.65-.07.89-.21s.46-.33.64-.57l.61.47c-.49.75-1.22,1.12-2.19,1.12Zm-.12-5.21c-.4,0-.74.15-1.01.44-.27.29-.44.7-.5,1.23h2.91v-.08c-.03-.5-.16-.9-.41-1.17-.24-.28-.57-.42-.99-.42Z"/>
    <path class="cls-5" d="m295.62,10.42l.03.73c.44-.56,1.02-.84,1.74-.84,1.23,0,1.85.69,1.86,2.08v3.84h-.99v-3.85c0-.42-.1-.73-.29-.93-.19-.2-.48-.3-.88-.3-.32,0-.6.09-.85.26s-.43.4-.57.68v4.14h-.99v-5.81h.94Z"/>
    <path class="cls-5" d="m304.34,16.23c-.06-.11-.1-.32-.14-.61-.46.48-1.01.72-1.65.72-.57,0-1.04-.16-1.41-.49-.37-.32-.55-.73-.55-1.23,0-.6.23-1.08.69-1.41.46-.33,1.11-.5,1.94-.5h.97v-.46c0-.35-.1-.62-.31-.83-.21-.21-.51-.31-.92-.31-.35,0-.65.09-.89.27s-.36.4-.36.65h-1c0-.29.1-.57.31-.84.21-.27.48-.48.84-.64.35-.16.74-.24,1.16-.24.67,0,1.19.17,1.57.5.38.33.58.8.59,1.38v2.67c0,.53.07.96.2,1.27v.09h-1.04Zm-1.65-.76c.31,0,.61-.08.89-.24s.48-.37.61-.63v-1.19h-.78c-1.22,0-1.83.36-1.83,1.07,0,.31.1.56.31.73s.47.26.8.26Zm.92-7.49h1.2l-1.44,1.58h-.8s1.04-1.58,1.04-1.58Z"/>
    <path class="cls-5" d="m310.12,14.69c0-.27-.1-.48-.3-.63-.2-.15-.55-.28-1.06-.38-.5-.11-.9-.24-1.2-.39-.29-.15-.51-.33-.66-.54-.14-.21-.21-.45-.21-.74,0-.48.2-.88.6-1.21.4-.33.92-.49,1.54-.49.66,0,1.19.17,1.6.51.41.34.61.78.61,1.31h-1c0-.27-.12-.51-.35-.7-.23-.2-.52-.3-.87-.3s-.64.08-.85.24-.31.36-.31.62c0,.24.09.42.28.54s.53.24,1.03.35c.5.11.9.24,1.21.4s.54.34.68.56c.15.22.22.48.22.79,0,.52-.21.94-.62,1.25-.42.31-.95.47-1.62.47-.47,0-.88-.08-1.24-.25s-.64-.39-.84-.69c-.2-.29-.3-.61-.3-.96h.99c.02.33.15.6.4.79.25.19.58.29.99.29.38,0,.68-.08.91-.23.23-.15.34-.36.34-.61Z"/>
    <path class="cls-5" d="m313.49,16.23h-.99V7.98h.99v8.25Z"/>
    <path class="cls-5" d="m317.49,16.34c-.79,0-1.43-.26-1.92-.78-.49-.52-.74-1.21-.74-2.08v-.18c0-.58.11-1.09.33-1.54.22-.45.53-.81.92-1.06.4-.26.82-.38,1.29-.38.76,0,1.34.25,1.76.75s.63,1.21.63,2.14v.41h-3.94c.01.57.18,1.04.5,1.39.32.35.73.53,1.22.53.35,0,.65-.07.89-.21s.46-.33.64-.57l.61.47c-.49.75-1.22,1.12-2.19,1.12Zm-.12-5.21c-.4,0-.74.15-1.01.44-.27.29-.44.7-.5,1.23h2.91v-.08c-.03-.5-.16-.9-.41-1.17-.24-.28-.57-.42-.99-.42Z"/>
    <path class="cls-5" d="m320.66,13.27c0-.89.21-1.61.63-2.15.42-.54.98-.81,1.66-.81s1.22.23,1.62.7v-3.03h.99v8.25h-.91l-.05-.62c-.4.49-.95.73-1.66.73s-1.22-.28-1.65-.83c-.42-.55-.64-1.27-.64-2.16v-.08Zm.99.11c0,.66.14,1.17.41,1.55s.65.56,1.13.56c.63,0,1.09-.28,1.38-.85v-2.67c-.3-.55-.75-.82-1.37-.82-.49,0-.87.19-1.14.56s-.41.93-.41,1.67Z"/>
    <path class="cls-5" d="m330.69,15.65c-.39.45-.95.68-1.7.68-.62,0-1.09-.18-1.42-.54-.32-.36-.49-.89-.49-1.6v-3.78h.99v3.75c0,.88.36,1.32,1.07,1.32.76,0,1.26-.28,1.51-.85v-4.23h.99v5.81h-.95l-.02-.57Z"/>
    <path class="cls-5" d="m334.2,10.42v6.48c0,1.12-.51,1.68-1.52,1.68-.22,0-.42-.03-.61-.1v-.79c.11.03.27.04.45.04.22,0,.39-.06.51-.18.12-.12.17-.33.17-.63v-6.51h.99Zm-1.1-1.54c0-.16.05-.29.15-.41.1-.11.24-.17.43-.17s.34.06.44.17.15.25.15.41-.05.3-.15.4-.25.16-.44.16-.34-.05-.44-.16-.15-.24-.15-.4Z"/>
    <path class="cls-5" d="m336.89,7.98h1.2l-1.44,1.58h-.8s1.04-1.58,1.04-1.58Zm-.01,8.24h-1v-5.81h1v5.81Z"/>
    <path class="cls-5" d="m340.85,15.52c.35,0,.66-.11.93-.32s.41-.48.44-.81h.94c-.02.33-.13.65-.34.95s-.49.54-.85.72c-.35.18-.73.27-1.12.27-.79,0-1.42-.26-1.89-.79-.47-.53-.7-1.25-.7-2.17v-.17c0-.57.1-1.07.31-1.51s.51-.78.89-1.03c.39-.24.85-.37,1.38-.37.65,0,1.19.2,1.62.59.43.39.66.9.69,1.52h-.94c-.03-.38-.17-.68-.43-.93-.26-.24-.57-.36-.95-.36-.5,0-.9.18-1.17.54-.28.36-.42.89-.42,1.58v.19c0,.67.14,1.19.41,1.55s.67.54,1.18.54Z"/>
    <path class="cls-5" d="m345.36,7.98h1.2l-1.44,1.58h-.8s1.04-1.58,1.04-1.58Zm-.01,8.24h-1v-5.81h1v5.81Z"/>
    <path class="cls-5" d="m350.65,15.42h3.4v.81h-4.61v-.73l3.21-4.26h-3.16v-.82h4.4v.7l-3.24,4.3Z"/>
    <path class="cls-5" d="m358.75,16.23c-.06-.11-.1-.32-.14-.61-.46.48-1.01.72-1.65.72-.57,0-1.04-.16-1.41-.49-.37-.32-.55-.73-.55-1.23,0-.6.23-1.08.69-1.41.46-.33,1.11-.5,1.94-.5h.97v-.46c0-.35-.1-.62-.31-.83-.21-.21-.51-.31-.92-.31-.35,0-.65.09-.89.27s-.36.4-.36.65h-1c0-.29.1-.57.31-.84.21-.27.48-.48.84-.64.35-.16.74-.24,1.16-.24.67,0,1.19.17,1.57.5.38.33.58.8.59,1.38v2.67c0,.53.07.96.2,1.27v.09h-1.04Zm-1.65-.76c.31,0,.61-.08.89-.24s.48-.37.61-.63v-1.19h-.78c-1.22,0-1.83.36-1.83,1.07,0,.31.1.56.31.73s.47.26.8.26Z"/>
    <path class="cls-5" d="m363.96,11.31c-.15-.02-.31-.04-.49-.04-.65,0-1.09.28-1.33.83v4.12h-.99v-5.81h.97l.02.67c.33-.52.79-.78,1.39-.78.19,0,.34.02.44.08v.92Z"/>
    <path class="cls-5" d="m368.46,16.23c-.06-.11-.1-.32-.14-.61-.46.48-1.01.72-1.65.72-.57,0-1.04-.16-1.41-.49-.37-.32-.55-.73-.55-1.23,0-.6.23-1.08.69-1.41.46-.33,1.11-.5,1.94-.5h.97v-.46c0-.35-.1-.62-.31-.83-.21-.21-.51-.31-.92-.31-.35,0-.65.09-.89.27s-.36.4-.36.65h-1c0-.29.1-.57.31-.84.21-.27.48-.48.84-.64.35-.16.74-.24,1.16-.24.67,0,1.19.17,1.57.5.38.33.58.8.59,1.38v2.67c0,.53.07.96.2,1.27v.09h-1.04Zm-1.65-.76c.31,0,.61-.08.89-.24s.48-.37.61-.63v-1.19h-.78c-1.22,0-1.83.36-1.83,1.07,0,.31.1.56.31.73s.47.26.8.26Zm.92-7.49h1.2l-1.44,1.58h-.8s1.04-1.58,1.04-1.58Z"/>
    <path class="cls-5" d="m371.79,10.42l.03.64c.43-.5,1-.75,1.72-.75.81,0,1.37.31,1.66.93.19-.28.44-.5.75-.68.31-.17.68-.26,1.1-.26,1.27,0,1.92.67,1.94,2.02v3.89h-.99v-3.83c0-.42-.09-.73-.28-.93-.19-.21-.51-.31-.96-.31-.37,0-.67.11-.92.33-.24.22-.38.52-.42.89v3.86h-1v-3.81c0-.85-.41-1.27-1.24-1.27-.65,0-1.1.28-1.34.83v4.24h-.99v-5.81h.94Z"/>
    <path class="cls-5" d="m380.23,13.27c0-.57.11-1.08.34-1.54.22-.45.54-.81.93-1.05.4-.25.85-.37,1.37-.37.79,0,1.43.27,1.92.82.49.55.73,1.28.73,2.19v.07c0,.57-.11,1.07-.33,1.52-.22.45-.53.8-.93,1.05-.4.25-.87.38-1.39.38-.79,0-1.43-.27-1.92-.82-.49-.55-.73-1.27-.73-2.18v-.07Zm1,.12c0,.64.15,1.16.45,1.55.3.39.7.59,1.2.59s.91-.2,1.2-.59c.3-.4.45-.95.45-1.66,0-.64-.15-1.15-.45-1.55-.3-.4-.7-.59-1.21-.59s-.89.2-1.19.59-.45.95-.45,1.68Z"/>
    <path class="cls-5" d="m388.61,14.88l1.44-4.46h1.02l-2.08,5.81h-.76l-2.11-5.81h1.02l1.48,4.46Z"/>
    <path class="cls-5" d="m395.6,16.23c-.06-.11-.1-.32-.14-.61-.46.48-1.01.72-1.65.72-.57,0-1.04-.16-1.41-.49-.37-.32-.55-.73-.55-1.23,0-.6.23-1.08.69-1.41.46-.33,1.11-.5,1.94-.5h.97v-.46c0-.35-.1-.62-.31-.83-.21-.21-.51-.31-.92-.31-.35,0-.65.09-.89.27s-.36.4-.36.65h-1c0-.29.1-.57.31-.84.21-.27.48-.48.84-.64.35-.16.74-.24,1.16-.24.67,0,1.19.17,1.57.5.38.33.58.8.59,1.38v2.67c0,.53.07.96.2,1.27v.09h-1.04Zm-1.65-.76c.31,0,.61-.08.89-.24s.48-.37.61-.63v-1.19h-.78c-1.22,0-1.83.36-1.83,1.07,0,.31.1.56.31.73s.47.26.8.26Zm.92-7.49h1.2l-1.44,1.58h-.8s1.04-1.58,1.04-1.58Z"/>
    <path class="cls-5" d="m398.94,10.42l.03.73c.44-.56,1.02-.84,1.74-.84,1.23,0,1.85.69,1.86,2.08v3.84h-.99v-3.85c0-.42-.1-.73-.29-.93-.19-.2-.48-.3-.88-.3-.32,0-.6.09-.85.26s-.43.4-.57.68v4.14h-.99v-5.81h.94Z"/>
    <path class="cls-5" d="m405.16,7.98h1.2l-1.44,1.58h-.8s1.04-1.58,1.04-1.58Zm-.01,8.24h-1v-5.81h1v5.81Z"/>
  </g>
  <g>
    <path class="cls-5" d="m234.69,85.33v2.53h-1.19v-6.83h2.61c.76,0,1.37.2,1.82.6s.67.92.67,1.58-.22,1.19-.66,1.56c-.44.37-1.05.56-1.84.56h-1.41Zm0-.96h1.42c.42,0,.74-.1.97-.3.22-.2.33-.49.33-.86s-.11-.66-.34-.88-.53-.33-.93-.34h-1.46v2.38Z"/>
    <path class="cls-5" d="m239.26,85.28c0-.5.1-.94.3-1.34s.47-.7.83-.92c.36-.21.77-.32,1.23-.32.68,0,1.24.22,1.67.66.43.44.66,1.03.69,1.75v.27c0,.5-.09.95-.28,1.34-.19.39-.47.7-.83.91-.36.22-.77.32-1.24.32-.72,0-1.29-.24-1.72-.71s-.64-1.11-.64-1.91v-.06Zm1.14.1c0,.52.11.93.32,1.23.22.3.52.44.9.44s.68-.15.9-.45c.21-.3.32-.74.32-1.32,0-.51-.11-.92-.33-1.22-.22-.3-.52-.45-.9-.45s-.67.15-.89.44-.33.74-.33,1.32Z"/>
    <path class="cls-5" d="m247.59,83.83c-.15-.02-.3-.04-.46-.04-.52,0-.87.2-1.05.6v3.47h-1.14v-5.07h1.09l.03.57c.27-.44.66-.66,1.14-.66.16,0,.3.02.4.07v1.07Z"/>
    <path class="cls-5" d="m247.93,85.28c0-.5.1-.94.3-1.34s.47-.7.83-.92c.36-.21.77-.32,1.23-.32.68,0,1.24.22,1.67.66.43.44.66,1.03.69,1.75v.27c0,.5-.09.95-.28,1.34-.19.39-.47.7-.83.91-.36.22-.77.32-1.24.32-.72,0-1.29-.24-1.72-.71s-.64-1.11-.64-1.91v-.06Zm1.14.1c0,.52.11.93.32,1.23.22.3.52.44.9.44s.68-.15.9-.45c.21-.3.32-.74.32-1.32,0-.51-.11-.92-.33-1.22-.22-.3-.52-.45-.9-.45s-.67.15-.89.44-.33.74-.33,1.32Z"/>
    <path class="cls-5" d="m255.33,86.42l1.07-3.63h1.18l-1.76,5.07h-.99l-1.77-5.07h1.18l1.09,3.63Z"/>
    <path class="cls-5" d="m259.34,82.79l.03.59c.38-.45.87-.68,1.48-.68,1.06,0,1.59.6,1.61,1.81v3.35h-1.14v-3.29c0-.32-.07-.56-.21-.71-.14-.15-.37-.23-.68-.23-.46,0-.8.21-1.03.62v3.61h-1.14v-5.07h1.07Z"/>
    <path class="cls-5" d="m266.66,87.87c-.05-.1-.09-.25-.13-.47-.36.38-.81.57-1.33.57s-.92-.15-1.25-.44-.48-.65-.48-1.08c0-.54.2-.96.6-1.24.4-.29.98-.43,1.72-.43h.7v-.33c0-.26-.07-.47-.22-.63-.15-.16-.37-.24-.67-.24-.26,0-.47.06-.64.19-.17.13-.25.29-.25.49h-1.14c0-.28.09-.54.28-.78.18-.24.44-.43.75-.57.32-.14.67-.21,1.06-.21.59,0,1.07.15,1.42.45.35.3.53.72.54,1.26v2.29c0,.46.06.82.19,1.09v.08h-1.16Zm-1.25-.82c.23,0,.44-.05.64-.16.2-.11.35-.26.45-.44v-.96h-.61c-.42,0-.74.07-.95.22-.21.15-.32.35-.32.62,0,.22.07.39.22.52.15.13.34.19.58.19Zm.63-6.38h1.3l-1.3,1.42h-.91s.91-1.42.91-1.42Z"/>
    <path class="cls-5" d="m270.61,86.42l1.07-3.63h1.18l-1.76,5.07h-.99l-1.77-5.07h1.18l1.09,3.63Z"/>
    <path class="cls-5" d="m276.53,87.87c-.05-.1-.09-.25-.13-.47-.36.38-.81.57-1.33.57s-.92-.15-1.25-.44-.48-.65-.48-1.08c0-.54.2-.96.6-1.24.4-.29.98-.43,1.72-.43h.7v-.33c0-.26-.07-.47-.22-.63-.15-.16-.37-.24-.67-.24-.26,0-.47.06-.64.19-.17.13-.25.29-.25.49h-1.14c0-.28.09-.54.28-.78.18-.24.44-.43.75-.57.32-.14.67-.21,1.06-.21.59,0,1.07.15,1.42.45.35.3.53.72.54,1.26v2.29c0,.46.06.82.19,1.09v.08h-1.16Zm-1.25-.82c.23,0,.44-.05.64-.16.2-.11.35-.26.45-.44v-.96h-.61c-.42,0-.74.07-.95.22-.21.15-.32.35-.32.62,0,.22.07.39.22.52.15.13.34.19.58.19Z"/>
    <path class="cls-5" d="m279.75,82.79l.03.59c.38-.45.87-.68,1.48-.68,1.06,0,1.59.6,1.61,1.81v3.35h-1.14v-3.29c0-.32-.07-.56-.21-.71-.14-.15-.37-.23-.68-.23-.46,0-.8.21-1.03.62v3.61h-1.14v-5.07h1.07Z"/>
    <path class="cls-5" d="m287.06,87.87c-.05-.1-.09-.25-.13-.47-.36.38-.81.57-1.33.57s-.92-.15-1.25-.44-.48-.65-.48-1.08c0-.54.2-.96.6-1.24.4-.29.98-.43,1.72-.43h.7v-.33c0-.26-.07-.47-.22-.63-.15-.16-.37-.24-.67-.24-.26,0-.47.06-.64.19-.17.13-.25.29-.25.49h-1.14c0-.28.09-.54.28-.78.18-.24.44-.43.75-.57.32-.14.67-.21,1.06-.21.59,0,1.07.15,1.42.45.35.3.53.72.54,1.26v2.29c0,.46.06.82.19,1.09v.08h-1.16Zm-1.25-.82c.23,0,.44-.05.64-.16.2-.11.35-.26.45-.44v-.96h-.61c-.42,0-.74.07-.95.22-.21.15-.32.35-.32.62,0,.22.07.39.22.52.15.13.34.19.58.19Zm.63-6.38h1.3l-1.3,1.42h-.91s.91-1.42.91-1.42Z"/>
    <path class="cls-5" d="m293.04,81.56v1.23h.9v.84h-.9v2.83c0,.19.04.33.12.42.08.09.21.13.41.13.13,0,.26-.02.4-.05v.88c-.26.07-.51.11-.75.11-.88,0-1.31-.48-1.31-1.45v-2.87h-.83v-.84h.83v-1.23h1.14Z"/>
    <path class="cls-5" d="m297.04,87.96c-.72,0-1.31-.23-1.76-.68-.45-.45-.67-1.06-.67-1.82v-.14c0-.51.1-.96.29-1.36s.47-.71.82-.93c.35-.22.75-.33,1.18-.33.69,0,1.22.22,1.6.66.38.44.56,1.06.56,1.87v.46h-3.31c.03.42.17.75.42.99s.55.37.93.37c.52,0,.95-.21,1.27-.63l.61.59c-.2.3-.47.54-.81.71-.34.17-.72.25-1.14.25Zm-.14-4.35c-.31,0-.56.11-.76.33-.19.22-.31.52-.37.91h2.17v-.08c-.02-.38-.13-.67-.3-.86s-.42-.29-.74-.29Z"/>
    <path class="cls-5" d="m304.4,85.38c0,.78-.18,1.41-.53,1.88-.36.47-.83.7-1.43.7-.56,0-1-.18-1.34-.55v2.4h-1.14v-7.02h1.05l.05.52c.33-.41.79-.61,1.36-.61.62,0,1.1.23,1.46.69s.53,1.1.53,1.92v.07Zm-1.13-.1c0-.51-.1-.91-.3-1.2s-.49-.45-.86-.45c-.47,0-.8.19-1,.58v2.25c.21.39.54.59,1.01.59.36,0,.65-.15.85-.44s.31-.74.31-1.33Z"/>
    <path class="cls-5" d="m306.58,87.87h-1.14v-7.2h1.14v7.2Z"/>
    <path class="cls-5" d="m307.6,85.28c0-.5.1-.94.3-1.34s.47-.7.83-.92c.36-.21.77-.32,1.23-.32.68,0,1.24.22,1.67.66.43.44.66,1.03.69,1.75v.27c0,.5-.09.95-.28,1.34-.19.39-.47.7-.83.91-.36.22-.77.32-1.24.32-.72,0-1.29-.24-1.72-.71s-.64-1.11-.64-1.91v-.06Zm1.14.1c0,.52.11.93.32,1.23.22.3.52.44.9.44s.68-.15.9-.45c.21-.3.32-.74.32-1.32,0-.51-.11-.92-.33-1.22-.22-.3-.52-.45-.9-.45s-.67.15-.89.44-.33.74-.33,1.32Z"/>
    <path class="cls-5" d="m314.71,81.56v1.23h.9v.84h-.9v2.83c0,.19.04.33.12.42.08.09.21.13.41.13.13,0,.26-.02.4-.05v.88c-.26.07-.51.11-.75.11-.88,0-1.31-.48-1.31-1.45v-2.87h-.83v-.84h.83v-1.23h1.14Z"/>
    <path class="cls-5" d="m319.5,87.87c-.05-.1-.09-.25-.13-.47-.36.38-.81.57-1.33.57s-.92-.15-1.25-.44-.48-.65-.48-1.08c0-.54.2-.96.6-1.24.4-.29.98-.43,1.72-.43h.7v-.33c0-.26-.07-.47-.22-.63-.15-.16-.37-.24-.67-.24-.26,0-.47.06-.64.19-.17.13-.25.29-.25.49h-1.14c0-.28.09-.54.28-.78.18-.24.44-.43.75-.57.32-.14.67-.21,1.06-.21.59,0,1.07.15,1.42.45.35.3.53.72.54,1.26v2.29c0,.46.06.82.19,1.09v.08h-1.16Zm-1.25-.82c.23,0,.44-.05.64-.16.2-.11.35-.26.45-.44v-.96h-.61c-.42,0-.74.07-.95.22-.21.15-.32.35-.32.62,0,.22.07.39.22.52.15.13.34.19.58.19Z"/>
  </g>
  <g>
    <path class="cls-3" d="m278.16,54.27v-10.01c0-1.34-1.08-2.42-2.42-2.42s-2.42,1.08-2.42,2.42v10.01c-2.02.92-3.43,2.95-3.43,5.32,0,3.23,2.62,5.85,5.85,5.85s5.85-2.62,5.85-5.85c0-2.37-1.41-4.39-3.43-5.32Z"/>
    <circle class="cls-3" cx="275.81" cy="59.52" r="2.03"/>
    <line class="cls-3" x1="280.56" y1="45.84" x2="284" y2="45.84"/>
    <line class="cls-3" x1="280.56" y1="49.08" x2="282.74" y2="49.08"/>
  </g>
  <g>
    <circle class="cls-3" cx="51.87" cy="53.64" r="7.91"/>
    <polyline class="cls-3" points="51.87 49.06 51.87 53.64 54.9 56.21"/>
  </g>
  <g>
    <path class="cls-3" d="m172.32,50.8c0,4.37-7.91,14.12-7.91,14.12,0,0-7.91-9.74-7.91-14.12s3.54-7.91,7.91-7.91,7.91,3.54,7.91,7.91Z"/>
    <circle class="cls-3" cx="164.41" cy="50.49" r="3.66"/>
  </g>
  <g>
    <rect class="cls-3" x="378.99" y="44.31" width="18.59" height="18.2" rx="2" ry="2"/>
    <line class="cls-3" x1="378.99" y1="49.09" x2="397.58" y2="49.09"/>
    <g>
      <line class="cls-3" x1="383.24" y1="42.35" x2="383.24" y2="45.45"/>
      <line class="cls-3" x1="388.28" y1="42.35" x2="388.28" y2="45.45"/>
      <line class="cls-3" x1="393.33" y1="42.35" x2="393.33" y2="45.45"/>
    </g>
    <rect class="cls-3" x="382.61" y="52.6" width="1.26" height="1.26"/>
    <rect class="cls-3" x="382.61" y="57.68" width="1.26" height="1.26"/>
    <rect class="cls-3" x="387.64" y="52.59" width="1.29" height="1.29"/>
    <g>
      <circle class="cls-1" cx="394.13" cy="59.09" r="5.85"/>
      <polyline class="cls-2" points="391.38 59.64 393.23 61.49 396.9 57.82"/>
    </g>
  </g>
</svg>