<?xml version="1.0" encoding="UTF-8"?><svg xmlns="http://www.w3.org/2000/svg" viewBox="0 0 660 290"><defs><style>.h,.i,.j,.k,.l{fill:none;}.h,.i,.k,.l,.m,.n{stroke-linecap:round;}.h,.l,.m,.n{stroke-width:.75px;}.h,.m,.n{stroke:#666c80;stroke-linejoin:round;}.o,.p{fill:#fbc6be;}.q,.m{fill:#fff;}.r{fill:#e6625c;}.s{fill:#666c80;}.t{fill:#bdc1dc;}.u{fill:#3e4d59;}.v{fill:#5b6872;}.w{fill:#4c5c68;}.x{fill:#606bac;}.i{stroke:#606060;}.i,.p,.j,.k,.l{stroke-miterlimit:10;}.p,.j{stroke:#3e4d59;}.k{stroke:#4c5c68;stroke-dasharray:0 0 4 6;stroke-width:1.5px;}.l{stroke:#8ea5b3;}.n{fill:#eff0f2;}</style></defs><g id="a"><rect class="q" x="-.53" y=".76" width="660" height="290"/><line class="i" x1="6.95" y1="203.55" x2="6.95" y2="208.55"/><line class="i" x1="166.95" y1="203.55" x2="166.95" y2="208.55"/><line class="i" x1="326.95" y1="203.55" x2="326.95" y2="208.55"/><line class="i" x1="486.95" y1="203.55" x2="486.95" y2="208.55"/><line class="i" x1="646.95" y1="203.55" x2="646.95" y2="208.55"/><line class="l" y1="167.24" x2="660" y2="167.24"/><circle class="t" cx="43" cy="167.24" r="6.62"/><path class="q" d="m43,160.74c3.58,0,6.5,2.92,6.5,6.5s-2.92,6.5-6.5,6.5-6.5-2.92-6.5-6.5,2.92-6.5,6.5-6.5m0-.25c-3.73,0-6.75,3.02-6.75,6.75s3.02,6.75,6.75,6.75,6.75-3.02,6.75-6.75-3.02-6.75-6.75-6.75h0Z"/><circle class="t" cx="57.3" cy="167.24" r="6.62"/><path class="q" d="m57.3,160.74c3.58,0,6.5,2.92,6.5,6.5s-2.92,6.5-6.5,6.5-6.5-2.92-6.5-6.5,2.92-6.5,6.5-6.5m0-.25c-3.73,0-6.75,3.02-6.75,6.75s3.02,6.75,6.75,6.75,6.75-3.02,6.75-6.75-3.02-6.75-6.75-6.75h0Z"/><circle class="t" cx="84.06" cy="174.38" r="6.62"/><path class="q" d="m84.06,167.88c3.58,0,6.5,2.92,6.5,6.5s-2.92,6.5-6.5,6.5-6.5-2.92-6.5-6.5,2.92-6.5,6.5-6.5m0-.25c-3.73,0-6.75,3.02-6.75,6.75s3.02,6.75,6.75,6.75,6.75-3.02,6.75-6.75-3.02-6.75-6.75-6.75h0Z"/><circle class="t" cx="83.43" cy="160.1" r="6.62"/><path class="q" d="m83.43,153.6c3.58,0,6.5,2.92,6.5,6.5s-2.92,6.5-6.5,6.5-6.5-2.92-6.5-6.5,2.92-6.5,6.5-6.5m0-.25c-3.73,0-6.75,3.02-6.75,6.75s3.02,6.75,6.75,6.75,6.75-3.02,6.75-6.75-3.02-6.75-6.75-6.75h0Z"/><circle class="t" cx="108.78" cy="169.17" r="6.62"/><path class="q" d="m108.78,162.67c3.58,0,6.5,2.92,6.5,6.5s-2.92,6.5-6.5,6.5-6.5-2.92-6.5-6.5,2.92-6.5,6.5-6.5m0-.25c-3.73,0-6.75,3.02-6.75,6.75s3.02,6.75,6.75,6.75,6.75-3.02,6.75-6.75-3.02-6.75-6.75-6.75h0Z"/><circle class="t" cx="120.15" cy="160.5" r="6.62"/><path class="q" d="m120.15,154c3.58,0,6.5,2.92,6.5,6.5s-2.92,6.5-6.5,6.5-6.5-2.92-6.5-6.5,2.92-6.5,6.5-6.5m0-.25c-3.73,0-6.75,3.02-6.75,6.75s3.02,6.75,6.75,6.75,6.75-3.02,6.75-6.75-3.02-6.75-6.75-6.75h0Z"/><circle class="t" cx="121.97" cy="174.68" r="6.62"/><path class="q" d="m121.97,168.18c3.58,0,6.5,2.92,6.5,6.5s-2.92,6.5-6.5,6.5-6.5-2.92-6.5-6.5,2.92-6.5,6.5-6.5m0-.25c-3.73,0-6.75,3.02-6.75,6.75s3.02,6.75,6.75,6.75,6.75-3.02,6.75-6.75-3.02-6.75-6.75-6.75h0Z"/><circle class="t" cx="133.34" cy="166.01" r="6.62"/><path class="q" d="m133.34,159.51c3.58,0,6.5,2.92,6.5,6.5s-2.92,6.5-6.5,6.5-6.5-2.92-6.5-6.5,2.92-6.5,6.5-6.5m0-.25c-3.73,0-6.75,3.02-6.75,6.75s3.02,6.75,6.75,6.75,6.75-3.02,6.75-6.75-3.02-6.75-6.75-6.75h0Z"/><circle class="t" cx="146.58" cy="160.61" r="6.62"/><path class="q" d="m146.58,154.11c3.58,0,6.5,2.92,6.5,6.5s-2.92,6.5-6.5,6.5-6.5-2.92-6.5-6.5,2.92-6.5,6.5-6.5m0-.25c-3.73,0-6.75,3.02-6.75,6.75s3.02,6.75,6.75,6.75,6.75-3.02,6.75-6.75-3.02-6.75-6.75-6.75h0Z"/><circle class="t" cx="151.73" cy="173.95" r="6.62"/><path class="q" d="m151.73,167.45c3.58,0,6.5,2.92,6.5,6.5s-2.92,6.5-6.5,6.5-6.5-2.92-6.5-6.5,2.92-6.5,6.5-6.5m0-.25c-3.73,0-6.75,3.02-6.75,6.75s3.02,6.75,6.75,6.75,6.75-3.02,6.75-6.75-3.02-6.75-6.75-6.75h0Z"/><circle class="t" cx="179.06" cy="165.55" r="6.62"/><path class="q" d="m179.06,159.05c3.58,0,6.5,2.92,6.5,6.5s-2.92,6.5-6.5,6.5-6.5-2.92-6.5-6.5,2.92-6.5,6.5-6.5m0-.25c-3.73,0-6.75,3.02-6.75,6.75s3.02,6.75,6.75,6.75,6.75-3.02,6.75-6.75-3.02-6.75-6.75-6.75h0Z"/><circle class="t" cx="165.32" cy="169.51" r="6.62"/><path class="q" d="m165.32,163.01c3.58,0,6.5,2.92,6.5,6.5s-2.92,6.5-6.5,6.5-6.5-2.92-6.5-6.5,2.92-6.5,6.5-6.5m0-.25c-3.73,0-6.75,3.02-6.75,6.75s3.02,6.75,6.75,6.75,6.75-3.02,6.75-6.75-3.02-6.75-6.75-6.75h0Z"/><circle class="t" cx="168.76" cy="155.63" r="6.62"/><path class="q" d="m168.76,149.13c3.58,0,6.5,2.92,6.5,6.5s-2.92,6.5-6.5,6.5-6.5-2.92-6.5-6.5,2.92-6.5,6.5-6.5m0-.25c-3.73,0-6.75,3.02-6.75,6.75s3.02,6.75,6.75,6.75,6.75-3.02,6.75-6.75-3.02-6.75-6.75-6.75h0Z"/><circle class="t" cx="175.62" cy="179.43" r="6.62"/><path class="q" d="m175.62,172.93c3.58,0,6.5,2.92,6.5,6.5s-2.92,6.5-6.5,6.5-6.5-2.92-6.5-6.5,2.92-6.5,6.5-6.5m0-.25c-3.73,0-6.75,3.02-6.75,6.75s3.02,6.75,6.75,6.75,6.75-3.02,6.75-6.75-3.02-6.75-6.75-6.75h0Z"/><circle class="t" cx="182.5" cy="151.67" r="6.62"/><path class="q" d="m182.5,145.17c3.58,0,6.5,2.92,6.5,6.5s-2.92,6.5-6.5,6.5-6.5-2.92-6.5-6.5,2.92-6.5,6.5-6.5m0-.25c-3.73,0-6.75,3.02-6.75,6.75s3.02,6.75,6.75,6.75,6.75-3.02,6.75-6.75-3.02-6.75-6.75-6.75h0Z"/><circle class="t" cx="192.8" cy="161.58" r="6.62"/><path class="q" d="m192.8,155.08c3.58,0,6.5,2.92,6.5,6.5s-2.92,6.5-6.5,6.5-6.5-2.92-6.5-6.5,2.92-6.5,6.5-6.5m0-.25c-3.73,0-6.75,3.02-6.75,6.75s3.02,6.75,6.75,6.75,6.75-3.02,6.75-6.75-3.02-6.75-6.75-6.75h0Z"/><circle class="t" cx="189.36" cy="175.46" r="6.62"/><path class="q" d="m189.36,168.96c3.58,0,6.5,2.92,6.5,6.5s-2.92,6.5-6.5,6.5-6.5-2.92-6.5-6.5,2.92-6.5,6.5-6.5m0-.25c-3.73,0-6.75,3.02-6.75,6.75s3.02,6.75,6.75,6.75,6.75-3.02,6.75-6.75-3.02-6.75-6.75-6.75h0Z"/><circle class="t" cx="199.66" cy="185.38" r="6.62"/><path class="q" d="m199.66,178.88c3.58,0,6.5,2.92,6.5,6.5s-2.92,6.5-6.5,6.5-6.5-2.92-6.5-6.5,2.92-6.5,6.5-6.5m0-.25c-3.73,0-6.75,3.02-6.75,6.75s3.02,6.75,6.75,6.75,6.75-3.02,6.75-6.75-3.02-6.75-6.75-6.75h0Z"/><circle class="t" cx="203.1" cy="171.5" r="6.62"/><path class="q" d="m203.1,165c3.58,0,6.5,2.92,6.5,6.5s-2.92,6.5-6.5,6.5-6.5-2.92-6.5-6.5,2.92-6.5,6.5-6.5m0-.25c-3.73,0-6.75,3.02-6.75,6.75s3.02,6.75,6.75,6.75,6.75-3.02,6.75-6.75-3.02-6.75-6.75-6.75h0Z"/><circle class="t" cx="216.87" cy="167.66" r="6.62"/><path class="q" d="m216.87,161.16c3.58,0,6.5,2.92,6.5,6.5s-2.92,6.5-6.5,6.5-6.5-2.92-6.5-6.5,2.92-6.5,6.5-6.5m0-.25c-3.73,0-6.75,3.02-6.75,6.75s3.02,6.75,6.75,6.75,6.75-3.02,6.75-6.75-3.02-6.75-6.75-6.75h0Z"/><circle class="t" cx="206.66" cy="157.65" r="6.62"/><path class="q" d="m206.66,151.15c3.58,0,6.5,2.92,6.5,6.5s-2.92,6.5-6.5,6.5-6.5-2.92-6.5-6.5,2.92-6.5,6.5-6.5m0-.25c-3.73,0-6.75,3.02-6.75,6.75s3.02,6.75,6.75,6.75,6.75-3.02,6.75-6.75-3.02-6.75-6.75-6.75h0Z"/><circle class="t" cx="230.65" cy="163.82" r="6.62"/><path class="q" d="m230.65,157.32c3.58,0,6.5,2.92,6.5,6.5s-2.92,6.5-6.5,6.5-6.5-2.92-6.5-6.5,2.92-6.5,6.5-6.5m0-.25c-3.73,0-6.75,3.02-6.75,6.75s3.02,6.75,6.75,6.75,6.75-3.02,6.75-6.75-3.02-6.75-6.75-6.75h0Z"/><circle class="t" cx="220.44" cy="153.81" r="6.62"/><path class="q" d="m220.44,147.31c3.58,0,6.5,2.92,6.5,6.5s-2.92,6.5-6.5,6.5-6.5-2.92-6.5-6.5,2.92-6.5,6.5-6.5m0-.25c-3.73,0-6.75,3.02-6.75,6.75s3.02,6.75,6.75,6.75,6.75-3.02,6.75-6.75-3.02-6.75-6.75-6.75h0Z"/><circle class="t" cx="226.85" cy="177.9" r="6.62"/><path class="q" d="m226.85,171.4c3.58,0,6.5,2.92,6.5,6.5s-2.92,6.5-6.5,6.5-6.5-2.92-6.5-6.5,2.92-6.5,6.5-6.5m0-.25c-3.73,0-6.75,3.02-6.75,6.75s3.02,6.75,6.75,6.75,6.75-3.02,6.75-6.75-3.02-6.75-6.75-6.75h0Z"/><circle class="t" cx="240.63" cy="174.06" r="6.62"/><path class="q" d="m240.63,167.56c3.58,0,6.5,2.92,6.5,6.5s-2.92,6.5-6.5,6.5-6.5-2.92-6.5-6.5,2.92-6.5,6.5-6.5m0-.25c-3.73,0-6.75,3.02-6.75,6.75s3.02,6.75,6.75,6.75,6.75-3.02,6.75-6.75-3.02-6.75-6.75-6.75h0Z"/><circle class="t" cx="250.47" cy="163.69" r="6.62"/><path class="q" d="m250.47,157.19c3.58,0,6.5,2.92,6.5,6.5s-2.92,6.5-6.5,6.5-6.5-2.92-6.5-6.5,2.92-6.5,6.5-6.5m0-.25c-3.73,0-6.75,3.02-6.75,6.75s3.02,6.75,6.75,6.75,6.75-3.02,6.75-6.75-3.02-6.75-6.75-6.75h0Z"/><circle class="o" cx="270.76" cy="154.02" r="6.62"/><path class="q" d="m270.76,147.52c3.58,0,6.5,2.92,6.5,6.5s-2.92,6.5-6.5,6.5-6.5-2.92-6.5-6.5,2.92-6.5,6.5-6.5m0-.25c-3.73,0-6.75,3.02-6.75,6.75s3.02,6.75,6.75,6.75,6.75-3.02,6.75-6.75-3.02-6.75-6.75-6.75h0Z"/><circle class="o" cx="267.15" cy="167.86" r="6.62"/><path class="q" d="m267.15,161.36c3.58,0,6.5,2.92,6.5,6.5s-2.92,6.5-6.5,6.5-6.5-2.92-6.5-6.5,2.92-6.5,6.5-6.5m0-.25c-3.73,0-6.75,3.02-6.75,6.75s3.02,6.75,6.75,6.75,6.75-3.02,6.75-6.75-3.02-6.75-6.75-6.75h0Z"/><circle class="o" cx="277.33" cy="177.9" r="6.62"/><path class="q" d="m277.33,171.4c3.58,0,6.5,2.92,6.5,6.5s-2.92,6.5-6.5,6.5-6.5-2.92-6.5-6.5,2.92-6.5,6.5-6.5m0-.25c-3.73,0-6.75,3.02-6.75,6.75s3.02,6.75,6.75,6.75,6.75-3.02,6.75-6.75-3.02-6.75-6.75-6.75h0Z"/><circle class="o" cx="280.94" cy="164.06" r="6.62"/><path class="q" d="m280.94,157.56c3.58,0,6.5,2.92,6.5,6.5s-2.92,6.5-6.5,6.5-6.5-2.92-6.5-6.5,2.92-6.5,6.5-6.5m0-.25c-3.73,0-6.75,3.02-6.75,6.75s3.02,6.75,6.75,6.75,6.75-3.02,6.75-6.75-3.02-6.75-6.75-6.75h0Z"/><circle class="o" cx="291.12" cy="174.11" r="6.62"/><path class="q" d="m291.12,167.61c3.58,0,6.5,2.92,6.5,6.5s-2.92,6.5-6.5,6.5-6.5-2.92-6.5-6.5,2.92-6.5,6.5-6.5m0-.25c-3.73,0-6.75,3.02-6.75,6.75s3.02,6.75,6.75,6.75,6.75-3.02,6.75-6.75-3.02-6.75-6.75-6.75h0Z"/><circle class="o" cx="298.16" cy="161.66" r="6.62"/><path class="q" d="m298.16,155.16c3.58,0,6.5,2.92,6.5,6.5s-2.92,6.5-6.5,6.5-6.5-2.92-6.5-6.5,2.92-6.5,6.5-6.5m0-.25c-3.73,0-6.75,3.02-6.75,6.75s3.02,6.75,6.75,6.75,6.75-3.02,6.75-6.75-3.02-6.75-6.75-6.75h0Z"/><circle class="o" cx="305.42" cy="173.99" r="6.62"/><path class="q" d="m305.42,167.49c3.58,0,6.5,2.92,6.5,6.5s-2.92,6.5-6.5,6.5-6.5-2.92-6.5-6.5,2.92-6.5,6.5-6.5m0-.25c-3.73,0-6.75,3.02-6.75,6.75s3.02,6.75,6.75,6.75,6.75-3.02,6.75-6.75-3.02-6.75-6.75-6.75h0Z"/><circle class="o" cx="312.46" cy="161.54" r="6.62"/><path class="q" d="m312.46,155.04c3.58,0,6.5,2.92,6.5,6.5s-2.92,6.5-6.5,6.5-6.5-2.92-6.5-6.5,2.92-6.5,6.5-6.5m0-.25c-3.73,0-6.75,3.02-6.75,6.75s3.02,6.75,6.75,6.75,6.75-3.02,6.75-6.75-3.02-6.75-6.75-6.75h0Z"/><circle class="o" cx="319.71" cy="173.87" r="6.62"/><path class="q" d="m319.71,167.37c3.58,0,6.5,2.92,6.5,6.5s-2.92,6.5-6.5,6.5-6.5-2.92-6.5-6.5,2.92-6.5,6.5-6.5m0-.25c-3.73,0-6.75,3.02-6.75,6.75s3.02,6.75,6.75,6.75,6.75-3.02,6.75-6.75-3.02-6.75-6.75-6.75h0Z"/><circle class="o" cx="329.55" cy="163.49" r="6.62"/><path class="q" d="m329.55,156.99c3.58,0,6.5,2.92,6.5,6.5s-2.92,6.5-6.5,6.5-6.5-2.92-6.5-6.5,2.92-6.5,6.5-6.5m0-.25c-3.73,0-6.75,3.02-6.75,6.75s3.02,6.75,6.75,6.75,6.75-3.02,6.75-6.75-3.02-6.75-6.75-6.75h0Z"/><circle class="o" cx="333.62" cy="177.2" r="6.62"/><path class="q" d="m333.62,170.7c3.58,0,6.5,2.92,6.5,6.5s-2.92,6.5-6.5,6.5-6.5-2.92-6.5-6.5,2.92-6.5,6.5-6.5m0-.25c-3.73,0-6.75,3.02-6.75,6.75s3.02,6.75,6.75,6.75,6.75-3.02,6.75-6.75-3.02-6.75-6.75-6.75h0Z"/><circle class="o" cx="340.47" cy="154.25" r="6.62"/><path class="q" d="m340.47,147.75c3.58,0,6.5,2.92,6.5,6.5s-2.92,6.5-6.5,6.5-6.5-2.92-6.5-6.5,2.92-6.5,6.5-6.5m0-.25c-3.73,0-6.75,3.02-6.75,6.75s3.02,6.75,6.75,6.75,6.75-3.02,6.75-6.75-3.02-6.75-6.75-6.75h0Z"/><circle class="o" cx="344.53" cy="167.96" r="6.62"/><path class="q" d="m344.53,161.46c3.58,0,6.5,2.92,6.5,6.5s-2.92,6.5-6.5,6.5-6.5-2.92-6.5-6.5,2.92-6.5,6.5-6.5m0-.25c-3.73,0-6.75,3.02-6.75,6.75s3.02,6.75,6.75,6.75,6.75-3.02,6.75-6.75-3.02-6.75-6.75-6.75h0Z"/><circle class="o" cx="356.69" cy="175.49" r="6.62"/><path class="q" d="m356.69,168.99c3.58,0,6.5,2.92,6.5,6.5s-2.92,6.5-6.5,6.5-6.5-2.92-6.5-6.5,2.92-6.5,6.5-6.5m0-.25c-3.73,0-6.75,3.02-6.75,6.75s3.02,6.75,6.75,6.75,6.75-3.02,6.75-6.75-3.02-6.75-6.75-6.75h0Z"/><circle class="o" cx="357.13" cy="161.19" r="6.62"/><path class="q" d="m357.13,154.69c3.58,0,6.5,2.92,6.5,6.5s-2.92,6.5-6.5,6.5-6.5-2.92-6.5-6.5,2.92-6.5,6.5-6.5m0-.25c-3.73,0-6.75,3.02-6.75,6.75s3.02,6.75,6.75,6.75,6.75-3.02,6.75-6.75-3.02-6.75-6.75-6.75h0Z"/><circle class="o" cx="369.29" cy="168.72" r="6.62"/><path class="q" d="m369.29,162.22c3.58,0,6.5,2.92,6.5,6.5s-2.92,6.5-6.5,6.5-6.5-2.92-6.5-6.5,2.92-6.5,6.5-6.5m0-.25c-3.73,0-6.75,3.02-6.75,6.75s3.02,6.75,6.75,6.75,6.75-3.02,6.75-6.75-3.02-6.75-6.75-6.75h0Z"/><circle class="o" cx="382.71" cy="163.79" r="6.62"/><path class="q" d="m382.71,157.29c3.58,0,6.5,2.92,6.5,6.5s-2.92,6.5-6.5,6.5-6.5-2.92-6.5-6.5,2.92-6.5,6.5-6.5m0-.25c-3.73,0-6.75,3.02-6.75,6.75s3.02,6.75,6.75,6.75,6.75-3.02,6.75-6.75-3.02-6.75-6.75-6.75h0Z"/><circle class="o" cx="394.2" cy="172.3" r="6.62"/><path class="q" d="m394.2,165.8c3.58,0,6.5,2.92,6.5,6.5s-2.92,6.5-6.5,6.5-6.5-2.92-6.5-6.5,2.92-6.5,6.5-6.5m0-.25c-3.73,0-6.75,3.02-6.75,6.75s3.02,6.75,6.75,6.75,6.75-3.02,6.75-6.75-3.02-6.75-6.75-6.75h0Z"/><circle class="o" cx="403.15" cy="161.15" r="6.62"/><path class="q" d="m403.15,154.65c3.58,0,6.5,2.92,6.5,6.5s-2.92,6.5-6.5,6.5-6.5-2.92-6.5-6.5,2.92-6.5,6.5-6.5m0-.25c-3.73,0-6.75,3.02-6.75,6.75s3.02,6.75,6.75,6.75,6.75-3.02,6.75-6.75-3.02-6.75-6.75-6.75h0Z"/><circle class="o" cx="410.49" cy="173.42" r="6.62"/><path class="q" d="m410.49,166.92c3.58,0,6.5,2.92,6.5,6.5s-2.92,6.5-6.5,6.5-6.5-2.92-6.5-6.5,2.92-6.5,6.5-6.5m0-.25c-3.73,0-6.75,3.02-6.75,6.75s3.02,6.75,6.75,6.75,6.75-3.02,6.75-6.75-3.02-6.75-6.75-6.75h0Z"/><circle class="o" cx="417.45" cy="160.92" r="6.62"/><path class="q" d="m417.45,154.42c3.58,0,6.5,2.92,6.5,6.5s-2.92,6.5-6.5,6.5-6.5-2.92-6.5-6.5,2.92-6.5,6.5-6.5m0-.25c-3.73,0-6.75,3.02-6.75,6.75s3.02,6.75,6.75,6.75,6.75-3.02,6.75-6.75-3.02-6.75-6.75-6.75h0Z"/><circle class="o" cx="424.79" cy="173.2" r="6.62"/><path class="q" d="m424.79,166.7c3.58,0,6.5,2.92,6.5,6.5s-2.92,6.5-6.5,6.5-6.5-2.92-6.5-6.5,2.92-6.5,6.5-6.5m0-.25c-3.73,0-6.75,3.02-6.75,6.75s3.02,6.75,6.75,6.75,6.75-3.02,6.75-6.75-3.02-6.75-6.75-6.75h0Z"/><circle class="o" cx="431.75" cy="160.7" r="6.62"/><path class="q" d="m431.75,154.2c3.58,0,6.5,2.92,6.5,6.5s-2.92,6.5-6.5,6.5-6.5-2.92-6.5-6.5,2.92-6.5,6.5-6.5m0-.25c-3.73,0-6.75,3.02-6.75,6.75s3.02,6.75,6.75,6.75,6.75-3.02,6.75-6.75-3.02-6.75-6.75-6.75h0Z"/><circle class="o" cx="439.09" cy="172.97" r="6.62"/><path class="q" d="m439.09,166.47c3.58,0,6.5,2.92,6.5,6.5s-2.92,6.5-6.5,6.5-6.5-2.92-6.5-6.5,2.92-6.5,6.5-6.5m0-.25c-3.73,0-6.75,3.02-6.75,6.75s3.02,6.75,6.75,6.75,6.75-3.02,6.75-6.75-3.02-6.75-6.75-6.75h0Z"/><circle class="o" cx="446.05" cy="160.48" r="6.62"/><path class="q" d="m446.05,153.98c3.58,0,6.5,2.92,6.5,6.5s-2.92,6.5-6.5,6.5-6.5-2.92-6.5-6.5,2.92-6.5,6.5-6.5m0-.25c-3.73,0-6.75,3.02-6.75,6.75s3.02,6.75,6.75,6.75,6.75-3.02,6.75-6.75-3.02-6.75-6.75-6.75h0Z"/><circle class="o" cx="453.39" cy="172.75" r="6.62"/><path class="q" d="m453.39,166.25c3.58,0,6.5,2.92,6.5,6.5s-2.92,6.5-6.5,6.5-6.5-2.92-6.5-6.5,2.92-6.5,6.5-6.5m0-.25c-3.73,0-6.75,3.02-6.75,6.75s3.02,6.75,6.75,6.75,6.75-3.02,6.75-6.75-3.02-6.75-6.75-6.75h0Z"/><circle class="o" cx="466.22" cy="166.44" r="6.62"/><path class="q" d="m466.22,159.94c3.58,0,6.5,2.92,6.5,6.5s-2.92,6.5-6.5,6.5-6.5-2.92-6.5-6.5,2.92-6.5,6.5-6.5m0-.25c-3.73,0-6.75,3.02-6.75,6.75s3.02,6.75,6.75,6.75,6.75-3.02,6.75-6.75-3.02-6.75-6.75-6.75h0Z"/><circle class="o" cx="487.03" cy="167.22" r="6.62"/><path class="q" d="m487.03,160.72c3.58,0,6.5,2.92,6.5,6.5s-2.92,6.5-6.5,6.5-6.5-2.92-6.5-6.5,2.92-6.5,6.5-6.5m0-.25c-3.73,0-6.75,3.02-6.75,6.75s3.02,6.75,6.75,6.75,6.75-3.02,6.75-6.75-3.02-6.75-6.75-6.75h0Z"/><circle class="o" cx="501.33" cy="167.34" r="6.62"/><path class="q" d="m501.33,160.84c3.58,0,6.5,2.92,6.5,6.5s-2.92,6.5-6.5,6.5-6.5-2.92-6.5-6.5,2.92-6.5,6.5-6.5m0-.25c-3.73,0-6.75,3.02-6.75,6.75s3.02,6.75,6.75,6.75,6.75-3.02,6.75-6.75-3.02-6.75-6.75-6.75h0Z"/><circle class="o" cx="515.62" cy="166.68" r="6.62"/><path class="q" d="m515.62,160.18c3.58,0,6.5,2.92,6.5,6.5s-2.92,6.5-6.5,6.5-6.5-2.92-6.5-6.5,2.92-6.5,6.5-6.5m0-.25c-3.73,0-6.75,3.02-6.75,6.75s3.02,6.75,6.75,6.75,6.75-3.02,6.75-6.75-3.02-6.75-6.75-6.75h0Z"/><circle class="o" cx="529.82" cy="168.33" r="6.62"/><path class="q" d="m529.82,161.83c3.58,0,6.5,2.92,6.5,6.5s-2.92,6.5-6.5,6.5-6.5-2.92-6.5-6.5,2.92-6.5,6.5-6.5m0-.25c-3.73,0-6.75,3.02-6.75,6.75s3.02,6.75,6.75,6.75,6.75-3.02,6.75-6.75-3.02-6.75-6.75-6.75h0Z"/><circle class="o" cx="544.01" cy="166.54" r="6.62"/><path class="q" d="m544.01,160.04c3.58,0,6.5,2.92,6.5,6.5s-2.92,6.5-6.5,6.5-6.5-2.92-6.5-6.5,2.92-6.5,6.5-6.5m0-.25c-3.73,0-6.75,3.02-6.75,6.75s3.02,6.75,6.75,6.75,6.75-3.02,6.75-6.75-3.02-6.75-6.75-6.75h0Z"/><circle class="p" cx="558.29" cy="167.32" r="6.75"/><circle class="o" cx="586.15" cy="167.24" r="6.62"/><path class="q" d="m586.15,160.74c3.58,0,6.5,2.92,6.5,6.5s-2.92,6.5-6.5,6.5-6.5-2.92-6.5-6.5,2.92-6.5,6.5-6.5m0-.25c-3.73,0-6.75,3.02-6.75,6.75s3.02,6.75,6.75,6.75,6.75-3.02,6.75-6.75-3.02-6.75-6.75-6.75h0Z"/><circle class="o" cx="637.35" cy="167.24" r="6.62"/><path class="q" d="m637.35,160.74c3.58,0,6.5,2.92,6.5,6.5s-2.92,6.5-6.5,6.5-6.5-2.92-6.5-6.5,2.92-6.5,6.5-6.5m0-.25c-3.73,0-6.75,3.02-6.75,6.75s3.02,6.75,6.75,6.75,6.75-3.02,6.75-6.75-3.02-6.75-6.75-6.75h0Z"/></g><g id="g"><path d="m9.43,13.39h-2.33v9.6h-2.48v-9.6h-2.33v-2.29h7.14v2.29Z"/><path d="m18.24,20.7v2.29h-6.31v-11.9h6.14v2.29h-3.72v2.46h3.38v2.21h-3.38v2.63h3.89Z"/><path d="m28.62,15.15c0,2.53-1.46,4.03-3.93,4.03h-1.04v3.82h-2.41v-11.9h3.45c2.46,0,3.93,1.5,3.93,4.05Zm-2.48,0c0-1.16-.51-1.75-1.48-1.75h-1v3.48h1c.97,0,1.48-.59,1.48-1.73Z"/><path d="m37.26,20.7v2.29h-5.95v-11.9h2.41v9.6h3.54Z"/><path d="m39.43,19.14v-4.18c0-2.55,1.44-4.06,3.86-4.06s3.86,1.51,3.86,4.06v4.18c0,2.55-1.44,4.06-3.86,4.06s-3.86-1.51-3.86-4.06Zm5.22,0v-4.18c0-1.12-.46-1.72-1.36-1.72s-1.36.59-1.36,1.72v4.18c0,1.12.46,1.72,1.36,1.72s1.36-.6,1.36-1.72Z"/><path d="m56.62,13.39h-2.33v9.6h-2.48v-9.6h-2.33v-2.29h7.14v2.29Z"/><path d="m63.01,21.03h-2.52l-.39,1.97h-2.5l2.86-11.9h2.58l2.86,11.9h-2.5l-.39-1.97Zm-.48-2.29l-.27-1.36c-.15-.85-.36-2.29-.48-3.26h-.07c-.12.97-.31,2.41-.48,3.26l-.27,1.36h1.56Z"/><path d="m73.13,11.1h2.38l2.26,5.17c.29.75.56,1.53.85,2.28l.05-.05c-.2-1.5-.34-3.54-.34-4.64v-2.75h2.38v11.9h-2.38l-2.01-4.61-1.07-2.91-.05.05c.19,1.5.31,3.72.31,5.05v2.41h-2.38v-11.9Z"/><path d="m88.58,21.03h-2.52l-.39,1.97h-2.5l2.86-11.9h2.58l2.86,11.9h-2.5l-.39-1.97Zm-.48-2.29l-.27-1.36c-.15-.85-.36-2.29-.48-3.26h-.07c-.12.97-.31,2.41-.48,3.26l-.27,1.36h1.56Z"/><path d="m104.65,20.7v2.29h-5.95v-11.9h2.41v9.6h3.54Z"/><path d="m113.47,20.7v2.29h-6.31v-11.9h6.14v2.29h-3.72v2.46h3.38v2.21h-3.38v2.63h3.89Z"/><path d="m122.82,13.39h-2.33v9.6h-2.48v-9.6h-2.33v-2.29h7.14v2.29Z"/><path d="m125.32,11.1h2.38l2.26,5.17c.29.75.56,1.53.85,2.28l.05-.05c-.2-1.5-.34-3.54-.34-4.64v-2.75h2.38v11.9h-2.38l-2.01-4.61-1.07-2.91-.05.05c.19,1.5.31,3.72.31,5.05v2.41h-2.38v-11.9Z"/><path d="m136.37,11.1h2.41v11.9h-2.41v-11.9Zm1.65-3.47h1.92l-1.92,2.33h-1.6l1.6-2.33Z"/><path d="m146.28,19.53h2.48c0,.95.48,1.36,1.24,1.36s1.19-.46,1.19-1.05c0-1.97-4.66-2.21-4.66-5.83,0-1.82,1.28-3.14,3.47-3.14s3.52,1.31,3.52,3.5h-2.48c0-.78-.36-1.17-1.05-1.17-.63,0-1,.34-1,.88,0,1.87,4.73,1.99,4.73,5.78,0,1.95-1.38,3.38-3.74,3.38s-3.69-1.31-3.69-3.71Z"/><path d="m162.29,20.7v2.29h-5.95v-11.9h2.41v9.6h3.54Z"/><path d="m164.16,19.21v-8.11h2.46v8.11c0,1.07.43,1.65,1.28,1.65s1.27-.58,1.27-1.65v-8.11h2.46v8.11c0,2.5-1.39,3.99-3.74,3.99s-3.74-1.5-3.74-3.99Z"/><path d="m174.91,11.1h2.38l2.26,5.17c.29.75.56,1.53.85,2.28l.05-.05c-.2-1.5-.34-3.54-.34-4.64v-2.75h2.38v11.9h-2.38l-2.01-4.61-1.07-2.91-.05.05c.19,1.5.31,3.72.31,5.05v2.41h-2.38v-11.9Z"/><path d="m185.62,19.14v-4.18c0-2.55,1.44-4.06,3.86-4.06s3.86,1.51,3.86,4.06v4.18c0,2.55-1.44,4.06-3.86,4.06s-3.86-1.51-3.86-4.06Zm5.22,0v-4.18c0-1.12-.46-1.72-1.36-1.72s-1.36.59-1.36,1.72v4.18c0,1.12.46,1.72,1.36,1.72s1.36-.6,1.36-1.72Z"/><path d="m195.46,11.1h2.5l1.07,5.63c.17.87.37,2.33.49,3.31h.07c.12-.99.32-2.45.49-3.31l1.07-5.63h2.5l-2.82,11.9h-2.55l-2.82-11.9Z"/><path d="m209.38,19h-.85v3.99h-2.41v-11.9h3.45c2.36,0,3.76,1.46,3.76,3.96,0,1.61-.59,2.8-1.65,3.43l2.24,4.5h-2.63l-1.9-3.99Zm-.85-2.29h1c.85,0,1.31-.58,1.31-1.65s-.46-1.67-1.31-1.67h-1v3.31Z"/><path d="m220.82,21.03h-2.52l-.39,1.97h-2.5l2.86-11.9h2.58l2.86,11.9h-2.5l-.39-1.97Zm-.48-2.29l-.27-1.36c-.15-.85-.36-2.29-.48-3.26h-.07c-.12.97-.31,2.41-.48,3.26l-.27,1.36h1.56Z"/><path d="m231.84,13.39h-2.33v9.6h-2.48v-9.6h-2.33v-2.29h7.14v2.29Z"/><path d="m236.26,19.46l-2.8-8.36h2.5l.97,3.3c.12.39.39,1.33.51,1.9h.07c.14-.58.41-1.51.54-1.96l.94-3.25h2.5l-2.81,8.36v3.54h-2.41v-3.54Z"/><path class="w" d="m155.16,220.06h-2.58v2.93h-1.17v-2.93h-2.58v-1.1h2.58v-2.7h1.17v2.7h2.58v1.1Z"/><path class="w" d="m162.53,222.95v.96h-6.05v-.84l3.03-3.37c.56-.62.94-1.11,1.13-1.47.2-.36.29-.72.29-1.08,0-.45-.14-.84-.42-1.16s-.68-.48-1.19-.48c-.62,0-1.08.18-1.38.53-.3.35-.46.8-.46,1.35h-1.17c0-.78.26-1.45.77-2.01.51-.56,1.26-.84,2.25-.84.87,0,1.55.23,2.05.68.49.45.74,1.05.74,1.79,0,.55-.17,1.1-.51,1.65-.34.55-.75,1.09-1.22,1.6l-2.48,2.69h4.63Z"/><path class="w" d="m169.59,218.56v1.41c0,1.51-.26,2.57-.78,3.17s-1.23.9-2.13.9-1.59-.3-2.13-.9-.8-1.66-.8-3.17v-1.41c0-1.51.26-2.56.79-3.14.53-.58,1.24-.87,2.12-.87s1.61.29,2.14.87c.53.58.79,1.63.79,3.14Zm-1.18,1.6v-1.8c0-1.04-.15-1.78-.44-2.21-.3-.43-.73-.65-1.3-.65s-.99.21-1.29.65c-.3.43-.45,1.17-.45,2.21v1.8c0,1.03.15,1.78.45,2.23.3.46.73.69,1.29.69s1.01-.23,1.3-.69c.29-.46.44-1.2.44-2.23Z"/><path class="w" d="m173.08,216.19c0-.45.16-.84.48-1.17.32-.32.7-.49,1.14-.49s.82.16,1.13.49c.31.32.47.71.47,1.17s-.16.84-.47,1.15c-.31.32-.69.48-1.13.48s-.82-.16-1.14-.48c-.32-.32-.48-.7-.48-1.15Zm.79,0c0,.23.08.43.25.58.16.16.36.23.59.23s.42-.08.57-.23c.15-.16.23-.35.23-.58s-.08-.44-.23-.6c-.15-.16-.35-.24-.57-.24s-.42.08-.59.24c-.16.16-.25.36-.25.6Z"/><path class="w" d="m183.76,220.97h1.22c-.09.88-.42,1.61-.99,2.19-.57.58-1.4.88-2.51.88s-1.96-.39-2.62-1.17c-.66-.78-.99-1.82-.99-3.11v-.92c0-1.29.33-2.33,1-3.12.67-.78,1.57-1.17,2.71-1.17,1.04,0,1.85.29,2.41.86.56.58.89,1.32.98,2.23h-1.22c-.09-.64-.3-1.15-.62-1.53-.32-.37-.84-.56-1.55-.56-.82,0-1.44.3-1.86.9-.42.6-.63,1.39-.63,2.37v.93c0,.91.19,1.69.58,2.33.38.64.99.96,1.81.96s1.33-.18,1.65-.55c.32-.36.53-.87.64-1.52Z"/><path class="w" d="m8.36,220.06h-2.58v2.93h-1.17v-2.93h-2.58v-1.1h2.58v-2.7h1.17v2.7h2.58v1.1Z"/><path class="w" d="m13.53,214.62v9.29h-1.17v-7.83l-2.37.86v-1.06l3.36-1.27h.18Z"/><path class="w" d="m18.46,219.52l-.94-.24.46-4.6h4.74v1.09h-3.75l-.28,2.51c.17-.1.38-.19.64-.27.26-.08.56-.13.9-.13.85,0,1.52.28,2.02.84.49.56.74,1.31.74,2.26,0,.88-.24,1.62-.72,2.2s-1.22.87-2.2.87c-.75,0-1.4-.21-1.94-.63s-.86-1.06-.95-1.93h1.12c.15,1.06.74,1.59,1.77,1.59.55,0,.98-.19,1.29-.56.3-.38.46-.89.46-1.53,0-.58-.16-1.07-.48-1.46s-.78-.59-1.37-.59c-.39,0-.69.05-.89.16-.2.11-.41.25-.62.43Z"/><path class="w" d="m26.27,216.19c0-.45.16-.84.48-1.17.32-.32.7-.49,1.14-.49s.82.16,1.13.49c.31.32.47.71.47,1.17s-.16.84-.47,1.15c-.31.32-.69.48-1.13.48s-.82-.16-1.14-.48c-.32-.32-.48-.7-.48-1.15Zm.79,0c0,.23.08.43.24.58.16.16.36.23.59.23s.42-.08.57-.23c.16-.16.23-.35.23-.58s-.08-.44-.23-.6c-.15-.16-.35-.24-.57-.24s-.42.08-.59.24c-.16.16-.24.36-.24.6Z"/><path class="w" d="m36.95,220.97h1.22c-.09.88-.42,1.61-.99,2.19-.57.58-1.41.88-2.51.88s-1.96-.39-2.62-1.17c-.66-.78-.99-1.82-.99-3.11v-.92c0-1.29.33-2.33,1-3.12.67-.78,1.57-1.17,2.71-1.17,1.05,0,1.85.29,2.41.86.56.58.89,1.32.98,2.23h-1.22c-.09-.64-.3-1.15-.62-1.53-.32-.37-.84-.56-1.56-.56-.82,0-1.44.3-1.86.9-.42.6-.63,1.39-.63,2.37v.93c0,.91.19,1.69.58,2.33.39.64.99.96,1.81.96.78,0,1.33-.18,1.65-.55.32-.36.53-.87.64-1.52Z"/><path class="w" d="m319.41,220.06h-2.58v2.93h-1.17v-2.93h-2.58v-1.1h2.58v-2.7h1.17v2.7h2.58v1.1Z"/><path class="w" d="m326.78,222.95v.96h-6.05v-.84l3.03-3.37c.56-.62.94-1.11,1.13-1.47s.29-.72.29-1.08c0-.45-.14-.84-.42-1.16-.28-.32-.68-.48-1.19-.48-.62,0-1.08.18-1.38.53-.3.35-.46.8-.46,1.35h-1.17c0-.78.26-1.45.77-2.01s1.26-.84,2.25-.84c.87,0,1.55.23,2.05.68.49.45.74,1.05.74,1.79,0,.55-.17,1.1-.51,1.65-.34.55-.75,1.09-1.22,1.6l-2.48,2.69h4.63Z"/><path class="w" d="m329.52,219.52l-.94-.24.46-4.6h4.74v1.09h-3.75l-.28,2.51c.17-.1.38-.19.64-.27.26-.08.56-.13.9-.13.85,0,1.52.28,2.02.84.49.56.74,1.31.74,2.26,0,.88-.24,1.62-.72,2.2s-1.22.87-2.2.87c-.75,0-1.4-.21-1.94-.63s-.86-1.06-.95-1.93h1.12c.15,1.06.74,1.59,1.77,1.59.55,0,.98-.19,1.29-.56.3-.38.46-.89.46-1.53,0-.58-.16-1.07-.48-1.46-.32-.4-.78-.59-1.37-.59-.39,0-.69.05-.9.16-.2.11-.41.25-.62.43Z"/><path class="w" d="m337.33,216.19c0-.45.16-.84.48-1.17.32-.32.7-.49,1.14-.49s.82.16,1.13.49c.31.32.47.71.47,1.17s-.16.84-.47,1.15c-.31.32-.69.48-1.13.48s-.82-.16-1.14-.48c-.32-.32-.48-.7-.48-1.15Zm.79,0c0,.23.08.43.24.58.16.16.36.23.59.23s.42-.08.57-.23c.15-.16.23-.35.23-.58s-.08-.44-.23-.6c-.15-.16-.35-.24-.57-.24s-.42.08-.59.24c-.16.16-.24.36-.24.6Z"/><path class="w" d="m348,220.97h1.22c-.09.88-.42,1.61-.99,2.19s-1.4.88-2.51.88-1.96-.39-2.62-1.17c-.66-.78-.99-1.82-.99-3.11v-.92c0-1.29.33-2.33,1-3.12.67-.78,1.57-1.17,2.71-1.17,1.05,0,1.85.29,2.41.86s.89,1.32.98,2.23h-1.22c-.09-.64-.3-1.15-.62-1.53-.32-.37-.84-.56-1.56-.56-.82,0-1.44.3-1.86.9s-.63,1.39-.63,2.37v.93c0,.91.19,1.69.58,2.33.39.64.99.96,1.81.96s1.33-.18,1.65-.55c.32-.36.53-.87.64-1.52Z"/><path class="w" d="m475.16,220.06h-2.58v2.93h-1.17v-2.93h-2.58v-1.1h2.58v-2.7h1.17v2.7h2.58v1.1Z"/><path class="w" d="m479.03,219.68h-.84v-.96h.84c.61,0,1.07-.15,1.37-.45s.45-.68.45-1.13c0-1.08-.54-1.62-1.61-1.62-.5,0-.9.14-1.21.43-.31.29-.46.67-.46,1.15h-1.17c0-.71.26-1.31.78-1.8.52-.49,1.21-.74,2.07-.74s1.51.22,2.02.66c.51.44.77,1.09.77,1.95,0,.34-.12.71-.35,1.1-.23.39-.6.69-1.11.91.61.2,1.03.51,1.26.92.22.42.34.83.34,1.25,0,.86-.28,1.53-.84,2-.56.47-1.25.71-2.09.71s-1.49-.22-2.07-.67-.86-1.08-.86-1.9h1.17c0,.49.16.88.47,1.17.32.29.74.44,1.29.44s.96-.14,1.28-.43c.31-.28.47-.71.47-1.29s-.18-1-.53-1.27c-.36-.27-.83-.41-1.43-.41Z"/><path class="w" d="m489.59,218.56v1.41c0,1.51-.26,2.57-.78,3.17-.52.6-1.23.9-2.13.9s-1.59-.3-2.13-.9-.8-1.66-.8-3.17v-1.41c0-1.51.26-2.56.79-3.14s1.24-.87,2.12-.87,1.61.29,2.14.87c.53.58.79,1.63.79,3.14Zm-1.18,1.6v-1.8c0-1.04-.15-1.78-.44-2.21s-.73-.65-1.3-.65-.99.21-1.29.65c-.3.43-.45,1.17-.45,2.21v1.8c0,1.03.15,1.78.45,2.23.3.46.73.69,1.29.69s1.01-.23,1.3-.69c.29-.46.44-1.2.44-2.23Z"/><path class="w" d="m493.08,216.19c0-.45.16-.84.48-1.17.32-.32.7-.49,1.14-.49s.82.16,1.13.49c.31.32.47.71.47,1.17s-.16.84-.47,1.15c-.31.32-.69.48-1.13.48s-.82-.16-1.14-.48c-.32-.32-.48-.7-.48-1.15Zm.79,0c0,.23.08.43.24.58.16.16.36.23.59.23s.42-.08.57-.23c.15-.16.23-.35.23-.58s-.08-.44-.23-.6c-.15-.16-.35-.24-.57-.24s-.42.08-.59.24c-.16.16-.24.36-.24.6Z"/><path class="w" d="m503.76,220.97h1.22c-.09.88-.42,1.61-.99,2.19s-1.4.88-2.51.88-1.96-.39-2.62-1.17c-.66-.78-.99-1.82-.99-3.11v-.92c0-1.29.33-2.33,1-3.12.67-.78,1.57-1.17,2.71-1.17,1.05,0,1.85.29,2.41.86s.89,1.32.98,2.23h-1.22c-.09-.64-.3-1.15-.62-1.53-.32-.37-.84-.56-1.56-.56-.82,0-1.44.3-1.86.9s-.63,1.39-.63,2.37v.93c0,.91.19,1.69.58,2.33.39.64.99.96,1.81.96s1.33-.18,1.65-.55c.32-.36.53-.87.64-1.52Z"/><path class="w" d="m628.02,220.06h-2.58v2.93h-1.17v-2.93h-2.58v-1.1h2.58v-2.7h1.17v2.7h2.58v1.1Z"/><path class="w" d="m631.89,219.68h-.84v-.96h.84c.61,0,1.07-.15,1.37-.45s.45-.68.45-1.13c0-1.08-.54-1.62-1.61-1.62-.5,0-.9.14-1.21.43-.31.29-.46.67-.46,1.15h-1.17c0-.71.26-1.31.78-1.8.52-.49,1.21-.74,2.07-.74s1.51.22,2.02.66c.51.44.77,1.09.77,1.95,0,.34-.12.71-.35,1.1-.23.39-.6.69-1.11.91.61.2,1.03.51,1.26.92.22.42.34.83.34,1.25,0,.86-.28,1.53-.84,2-.56.47-1.25.71-2.09.71s-1.49-.22-2.07-.67-.86-1.08-.86-1.9h1.17c0,.49.16.88.47,1.17.32.29.74.44,1.29.44s.96-.14,1.28-.43c.31-.28.47-.71.47-1.29s-.18-1-.53-1.27c-.36-.27-.83-.41-1.43-.41Z"/><path class="w" d="m638.13,219.52l-.94-.24.46-4.6h4.74v1.09h-3.75l-.28,2.51c.17-.1.38-.19.64-.27.26-.08.56-.13.9-.13.85,0,1.52.28,2.02.84.49.56.74,1.31.74,2.26,0,.88-.24,1.62-.72,2.2s-1.22.87-2.2.87c-.75,0-1.4-.21-1.94-.63s-.86-1.06-.95-1.93h1.12c.15,1.06.74,1.59,1.77,1.59.55,0,.98-.19,1.29-.56.3-.38.46-.89.46-1.53,0-.58-.16-1.07-.48-1.46-.32-.4-.78-.59-1.37-.59-.39,0-.69.05-.9.16-.2.11-.41.25-.62.43Z"/><path class="w" d="m645.94,216.19c0-.45.16-.84.48-1.17.32-.32.7-.49,1.14-.49s.82.16,1.13.49c.31.32.47.71.47,1.17s-.16.84-.47,1.15c-.31.32-.69.48-1.13.48s-.82-.16-1.14-.48c-.32-.32-.48-.7-.48-1.15Zm.79,0c0,.23.08.43.24.58.16.16.36.23.59.23s.42-.08.57-.23c.15-.16.23-.35.23-.58s-.08-.44-.23-.6c-.15-.16-.35-.24-.57-.24s-.42.08-.59.24c-.16.16-.24.36-.24.6Z"/><path class="w" d="m656.61,220.97h1.22c-.09.88-.42,1.61-.99,2.19s-1.4.88-2.51.88-1.96-.39-2.62-1.17c-.66-.78-.99-1.82-.99-3.11v-.92c0-1.29.33-2.33,1-3.12.67-.78,1.57-1.17,2.71-1.17,1.05,0,1.85.29,2.41.86s.89,1.32.98,2.23h-1.22c-.09-.64-.3-1.15-.62-1.53-.32-.37-.84-.56-1.56-.56-.82,0-1.44.3-1.86.9s-.63,1.39-.63,2.37v.93c0,.91.19,1.69.58,2.33.39.64.99.96,1.81.96s1.33-.18,1.65-.55c.32-.36.53-.87.64-1.52Z"/><line class="k" x1="257.83" y1="207.84" x2="257.83" y2="123.4"/><path class="w" d="m246.63,220.39h-2.29v2.6h-1.74v-2.6h-2.3v-1.66h2.3v-2.48h1.74v2.48h2.29v1.66Z"/><path class="w" d="m254,222.44v1.48h-6.33v-1.26l2.99-3.19c.45-.5.77-.91.94-1.23.17-.32.26-.62.26-.89,0-.41-.1-.73-.31-.97-.21-.24-.5-.36-.89-.36-.44,0-.77.15-1,.44-.23.3-.35.67-.35,1.12h-1.83c0-.83.29-1.55.86-2.15.57-.6,1.36-.89,2.35-.89s1.71.23,2.23.7.77,1.11.77,1.92c0,.62-.19,1.21-.56,1.76s-.87,1.15-1.48,1.79l-1.64,1.72h3.97Z"/><path class="w" d="m261.45,222.44v1.48h-6.33v-1.26l2.99-3.19c.45-.5.77-.91.94-1.23.17-.32.26-.62.26-.89,0-.41-.1-.73-.31-.97-.21-.24-.5-.36-.89-.36-.44,0-.77.15-1,.44-.23.3-.35.67-.35,1.12h-1.83c0-.83.29-1.55.86-2.15.57-.6,1.36-.89,2.35-.89s1.71.23,2.23.7.77,1.11.77,1.92c0,.62-.19,1.21-.56,1.76s-.87,1.15-1.48,1.79l-1.64,1.72h3.97Z"/><path class="w" d="m264.39,222.35v1.25c0,.48-.12.96-.36,1.44-.24.48-.53.88-.9,1.19l-.95-.5c.16-.29.31-.59.45-.9.14-.31.21-.69.21-1.15v-1.34h1.55Z"/><path class="w" d="m271.97,221.38c0,.87-.29,1.53-.89,1.98-.59.45-1.33.68-2.22.68s-1.64-.23-2.24-.68c-.6-.45-.9-1.11-.9-1.98,0-.51.13-.96.4-1.34.26-.38.62-.68,1.06-.89-.39-.2-.7-.48-.92-.83-.22-.35-.34-.75-.34-1.19,0-.84.27-1.48.83-1.92s1.25-.67,2.09-.67,1.56.22,2.11.67c.55.44.82,1.09.82,1.92,0,.45-.11.85-.34,1.19-.23.35-.53.62-.92.83.44.21.8.51,1.06.89s.39.83.39,1.34Zm-1.83-.13c0-.42-.12-.74-.36-.98s-.55-.36-.93-.36-.7.12-.93.36c-.24.24-.35.56-.35.98s.12.73.35.96c.23.23.55.35.94.35s.7-.12.93-.35c.23-.23.35-.55.35-.96Zm-.19-4.03c0-.36-.1-.65-.29-.87-.19-.22-.46-.33-.81-.33s-.6.11-.8.32c-.19.21-.29.51-.29.88s.1.66.29.88c.19.22.46.34.81.34s.61-.11.8-.34c.19-.22.28-.52.28-.88Z"/><path class="w" d="m275.33,216.3c0-.48.17-.89.51-1.23s.74-.52,1.22-.52.86.17,1.2.52c.33.34.5.76.5,1.23s-.17.88-.5,1.22c-.33.33-.73.5-1.2.5s-.88-.17-1.22-.5-.51-.74-.51-1.22Zm.93,0c0,.22.08.41.24.56.16.15.35.23.56.23s.4-.08.55-.23.22-.34.22-.56-.07-.43-.22-.58-.33-.23-.55-.23-.4.08-.56.23c-.16.15-.24.35-.24.58Z"/><path class="w" d="m285.76,220.84h1.9c-.06.94-.42,1.71-1.06,2.31-.64.6-1.53.9-2.66.9s-2.12-.4-2.8-1.2-1.02-1.88-1.02-3.25v-.6c0-1.37.35-2.45,1.05-3.25s1.63-1.2,2.79-1.2,2.04.31,2.65.92c.61.62.96,1.4,1.05,2.35h-1.9c-.04-.55-.2-.97-.46-1.27-.26-.29-.71-.44-1.34-.44-1.27,0-1.9.96-1.9,2.88v.62c0,.96.15,1.68.44,2.16.29.48.77.72,1.45.72.6,0,1.04-.14,1.32-.41.28-.27.45-.68.49-1.23Z"/><circle class="h" cx="104.16" cy="41.72" r="5.06"/><polyline class="h" points="104.16 38.79 104.16 41.72 106.1 43.36"/><path class="s" d="m120.67,44.82v.82h-5.12v-.71l2.56-2.85c.47-.53.79-.94.96-1.24.16-.3.25-.61.25-.91,0-.38-.12-.71-.36-.98-.24-.27-.57-.41-1.01-.41-.52,0-.91.15-1.17.45s-.39.68-.39,1.14h-.99c0-.66.22-1.22.65-1.7s1.07-.71,1.9-.71c.74,0,1.31.19,1.73.57.42.38.63.89.63,1.51,0,.46-.14.93-.43,1.4-.29.47-.63.92-1.03,1.35l-2.09,2.27h3.92Z"/><path class="s" d="m124.99,37.78v7.86h-.99v-6.62l-2,.73v-.9l2.84-1.07h.16Z"/><path class="s" d="m128.03,45.11c0-.17.05-.31.16-.43.11-.12.26-.17.46-.17s.35.06.46.17c.11.12.16.26.16.43s-.05.3-.16.42c-.11.11-.26.17-.46.17s-.35-.06-.46-.17c-.11-.11-.16-.25-.16-.42Z"/><path class="s" d="m135.97,44.93c.35,0,.67-.11.93-.32.27-.21.41-.48.44-.81h.95c-.02.52-.26.97-.71,1.36-.45.39-.98.58-1.6.58-.87,0-1.52-.29-1.95-.86-.42-.58-.64-1.25-.64-2.04v-.23c0-.78.21-1.46.64-2.04.42-.58,1.07-.86,1.95-.86.68,0,1.23.2,1.65.6.42.4.64.9.67,1.5h-.95c-.02-.36-.16-.66-.41-.91-.25-.25-.57-.38-.96-.38s-.73.1-.96.31c-.23.21-.39.47-.49.79-.1.32-.14.65-.14.98v.23c0,.34.05.67.14.99s.25.58.49.79c.23.21.55.31.96.31Zm-1.04-7.54l.81.91.81-.91h.86v.05l-1.36,1.47h-.61l-1.34-1.47v-.05h.84Z"/><path class="s" d="m144,44.62c-.19.29-.46.55-.81.78-.35.23-.81.35-1.38.35-.81,0-1.46-.26-1.94-.79-.49-.53-.73-1.2-.73-2.02v-.23c0-.63.12-1.17.36-1.62.24-.45.56-.79.94-1.02.39-.23.8-.35,1.24-.35.83,0,1.44.27,1.82.81.38.54.57,1.22.57,2.03v.45h-3.93c.01.53.17.99.48,1.36.3.37.72.56,1.25.56.35,0,.65-.07.89-.21s.46-.33.64-.57l.6.48Zm-2.31-4.09c-.39,0-.73.14-1,.43s-.44.7-.51,1.24h2.91v-.08c-.02-.39-.14-.75-.34-1.08-.2-.34-.55-.5-1.06-.5Z"/><path class="s" d="m147.56,40.68c-.34,0-.62.08-.84.23-.22.15-.38.35-.49.61v4.12h-.99v-5.81h.97l.02.67c.15-.24.33-.42.56-.56.23-.14.5-.21.82-.21.19,0,.33.02.44.08v.92c-.15-.03-.31-.04-.49-.04Z"/><path class="s" d="m153.43,39.83l-2.09,5.81h-.76l-2.11-5.81h1.02l1.48,4.45,1.44-4.45h1.02Z"/><path class="s" d="m158.92,44.62c-.19.29-.46.55-.81.78-.35.23-.81.35-1.38.35-.81,0-1.46-.26-1.94-.79-.49-.53-.73-1.2-.73-2.02v-.23c0-.63.12-1.17.36-1.62.24-.45.56-.79.94-1.02.39-.23.8-.35,1.24-.35.83,0,1.44.27,1.82.81.38.54.57,1.22.57,2.03v.45h-3.93c.01.53.17.99.48,1.36.3.37.72.56,1.25.56.35,0,.65-.07.89-.21s.46-.33.64-.57l.6.48Zm-2.31-4.09c-.39,0-.73.14-1,.43s-.44.7-.51,1.24h2.91v-.08c-.02-.39-.14-.75-.34-1.08-.2-.34-.55-.5-1.06-.5Z"/><path class="s" d="m162.56,40.56c-.32,0-.6.09-.84.26s-.44.4-.57.67v4.15h-.99v-5.81h.94l.03.73c.44-.56,1.02-.83,1.73-.83.57,0,1.03.16,1.36.48.33.32.5.86.5,1.63v3.81h-1v-3.82c0-.45-.1-.78-.3-.97-.2-.19-.49-.29-.86-.29Z"/><path class="s" d="m173.33,39.83l-2.09,5.81h-.76l-2.11-5.81h1.02l1.48,4.45,1.44-4.45h1.02Z"/><path class="s" d="m178.09,37.39v8.25h-1v-8.25h1Z"/><path class="s" d="m184.28,44.62c-.19.29-.46.55-.81.78-.35.23-.81.35-1.38.35-.81,0-1.46-.26-1.94-.79-.49-.53-.73-1.2-.73-2.02v-.23c0-.63.12-1.17.36-1.62.24-.45.56-.79.94-1.02.39-.23.8-.35,1.24-.35.83,0,1.44.27,1.82.81.38.54.57,1.22.57,2.03v.45h-3.93c.01.53.17.99.48,1.36.3.37.72.56,1.25.56.35,0,.65-.07.89-.21s.46-.33.64-.57l.6.48Zm-2.31-4.09c-.39,0-.73.14-1,.43s-.44.7-.51,1.24h2.91v-.08c-.02-.39-.14-.75-.34-1.08-.2-.34-.55-.5-1.06-.5Z"/><path class="s" d="m187.98,45.64c-.08.02-.18.05-.31.07-.13.02-.28.04-.46.04-.37,0-.68-.11-.95-.34s-.39-.63-.39-1.21v-3.6h-1.06v-.76h1.06v-1.41h.99v1.41h1.08v.76h-1.08v3.61c0,.3.06.49.19.57s.28.12.45.12c.08,0,.17,0,.26-.02.09-.02.16-.03.21-.04v.81Z"/><path class="s" d="m193.72,44.62c-.19.29-.46.55-.81.78-.35.23-.81.35-1.38.35-.81,0-1.46-.26-1.94-.79-.49-.53-.73-1.2-.73-2.02v-.23c0-.63.12-1.17.36-1.62.24-.45.56-.79.94-1.02.39-.23.8-.35,1.24-.35.83,0,1.44.27,1.82.81.38.54.57,1.22.57,2.03v.45h-3.93c.01.53.17.99.48,1.36.3.37.72.56,1.25.56.35,0,.65-.07.89-.21s.46-.33.64-.57l.6.48Zm-2.31-4.09c-.39,0-.73.14-1,.43s-.44.7-.51,1.24h2.91v-.08c-.02-.39-.14-.75-.34-1.08-.2-.34-.55-.5-1.06-.5Z"/><path class="s" d="m197.28,44.93c.35,0,.67-.11.93-.32.27-.21.41-.48.44-.81h.95c-.02.52-.26.97-.71,1.36-.45.39-.98.58-1.6.58-.87,0-1.52-.29-1.95-.86-.42-.58-.64-1.25-.64-2.04v-.23c0-.78.21-1.46.64-2.04.42-.58,1.07-.86,1.95-.86.68,0,1.23.2,1.65.6.42.4.64.9.67,1.5h-.95c-.02-.36-.16-.66-.41-.91-.25-.25-.57-.38-.96-.38s-.73.1-.96.31c-.23.21-.39.47-.49.79-.1.32-.14.65-.14.98v.23c0,.34.05.67.14.99s.25.58.49.79c.23.21.55.31.96.31Z"/><path class="s" d="m203.12,40.56c-.32,0-.6.09-.84.26s-.44.4-.57.67v4.15h-.99v-8.25h.99v3.13c.44-.53,1.01-.8,1.71-.8.57,0,1.03.16,1.36.48.33.32.5.86.5,1.63v3.81h-1v-3.82c0-.45-.1-.78-.3-.97-.2-.19-.49-.29-.86-.29Z"/><path class="s" d="m212.86,37.79v7.85h-1.31v-6.28l-1.92.66v-1.1l3.06-1.12h.17Z"/><path class="s" d="m220.59,41.32c0,.75-.11,1.46-.34,2.12-.22.66-.62,1.2-1.17,1.62-.56.41-1.34.62-2.35.62h-.11v-1.08h.1c.93,0,1.58-.21,1.95-.64.36-.43.57-.96.61-1.59-.2.21-.43.38-.69.5-.26.13-.54.19-.85.19-.76,0-1.32-.26-1.69-.79-.37-.53-.56-1.14-.56-1.82,0-.75.22-1.39.66-1.93s1.06-.8,1.86-.8c.86,0,1.5.31,1.93.94.43.63.64,1.37.64,2.24v.42Zm-3.81-.91c0,.43.1.8.3,1.14.2.33.51.5.93.5.28,0,.54-.08.77-.24.23-.16.4-.36.51-.6v-.51c0-.63-.13-1.1-.38-1.43-.26-.32-.55-.49-.89-.49-.39,0-.69.16-.91.48-.21.32-.32.71-.32,1.16Z"/><path class="s" d="m227.04,43.08c0,.75-.22,1.38-.66,1.9-.44.52-1.07.77-1.87.77-.57,0-1.04-.14-1.43-.43-.39-.29-.69-.66-.89-1.13-.2-.47-.3-.97-.3-1.51v-.51c0-.77.13-1.49.38-2.16s.66-1.2,1.22-1.61c.57-.41,1.32-.61,2.26-.61h.15v1.07h-.09c-.85,0-1.48.22-1.88.66s-.64.97-.71,1.6c.41-.43.94-.65,1.6-.65.76,0,1.32.27,1.69.8.36.53.54,1.14.54,1.82Zm-3.86-.28c0,.63.13,1.1.39,1.42.26.32.56.48.92.48.39,0,.7-.15.93-.45.22-.3.34-.68.34-1.14,0-.43-.11-.81-.32-1.13-.21-.32-.53-.48-.94-.48-.3,0-.57.09-.81.26-.23.17-.4.38-.5.62v.4Z"/><path class="s" d="m231.62,37.79v7.85h-1.31v-6.28l-1.92.66v-1.1l3.06-1.12h.17Z"/><path class="s" d="m240.05,41.25v1.05h-5.47v-1.05h5.47Z"/><path class="s" d="m246.69,44.59v1.05h-5.26v-.9l2.55-2.77c.43-.48.72-.86.88-1.14.15-.28.23-.56.23-.82,0-.36-.1-.65-.3-.89-.2-.23-.49-.35-.86-.35-.44,0-.78.14-1,.41-.22.27-.33.61-.33,1.03h-1.31c0-.68.23-1.27.69-1.76s1.12-.73,1.96-.73c.78,0,1.38.2,1.81.59.43.39.64.91.64,1.56,0,.49-.15.96-.45,1.43-.3.47-.68.95-1.14,1.43l-1.75,1.87h3.64Z"/><path class="s" d="m252.78,41.08v1.26c0,1.24-.23,2.12-.7,2.63-.46.52-1.08.77-1.86.77s-1.39-.26-1.86-.77-.71-1.39-.71-2.63v-1.26c0-1.24.23-2.11.7-2.62s1.09-.75,1.85-.75,1.39.25,1.86.75c.47.5.7,1.37.7,2.62Zm-1.3,1.45v-1.65c0-.79-.11-1.34-.33-1.65-.22-.31-.53-.47-.93-.47s-.71.16-.92.47c-.22.31-.33.86-.33,1.65v1.65c0,.79.11,1.35.33,1.68.22.33.53.49.93.49s.71-.16.93-.49c.21-.33.32-.89.32-1.68Z"/><path class="s" d="m259.19,44.59v1.05h-5.26v-.9l2.55-2.77c.43-.48.72-.86.88-1.14.15-.28.23-.56.23-.82,0-.36-.1-.65-.3-.89-.2-.23-.49-.35-.86-.35-.44,0-.78.14-1,.41-.22.27-.33.61-.33,1.03h-1.31c0-.68.23-1.27.69-1.76s1.12-.73,1.96-.73c.78,0,1.38.2,1.81.59.43.39.64.91.64,1.56,0,.49-.15.96-.45,1.43-.3.47-.68.95-1.14,1.43l-1.75,1.87h3.64Z"/><path class="s" d="m265.45,44.59v1.05h-5.26v-.9l2.55-2.77c.43-.48.72-.86.88-1.14.15-.28.23-.56.23-.82,0-.36-.1-.65-.3-.89-.2-.23-.49-.35-.86-.35-.44,0-.78.14-1,.41-.22.27-.33.61-.33,1.03h-1.31c0-.68.23-1.27.69-1.76s1.12-.73,1.96-.73c.78,0,1.38.2,1.81.59.43.39.64.91.64,1.56,0,.49-.15.96-.45,1.43-.3.47-.68.95-1.14,1.43l-1.75,1.87h3.64Z"/><path class="h" d="m289.13,41.48v-6.41c0-.86-.69-1.55-1.55-1.55s-1.55.69-1.55,1.55v6.41c-1.29.59-2.2,1.89-2.2,3.4,0,2.07,1.68,3.75,3.75,3.75s3.75-1.68,3.75-3.75c0-1.51-.9-2.81-2.2-3.4Zm-1.51,4.66c-.72,0-1.3-.58-1.3-1.3s.58-1.3,1.3-1.3,1.3.58,1.3,1.3-.58,1.3-1.3,1.3Z"/><line class="h" x1="290.66" y1="36.08" x2="292.87" y2="36.08"/><line class="h" x1="290.66" y1="38.15" x2="292.06" y2="38.15"/><path class="s" d="m301.67,40.55c-.52,0-.91.24-1.17.71v4.15h-1.31v-5.81h1.23l.04.67c.43-.52.99-.77,1.68-.77.56,0,1.01.16,1.35.49s.5.88.5,1.67v3.76h-1.31v-3.77c0-.4-.09-.68-.26-.84-.17-.16-.43-.24-.77-.24Z"/><path class="s" d="m310.13,44.42c-.19.27-.46.52-.82.75-.36.23-.84.34-1.42.34-.86,0-1.54-.27-2.04-.81s-.74-1.21-.74-2v-.22c0-.92.25-1.65.76-2.19.51-.54,1.13-.81,1.87-.81.85,0,1.47.27,1.88.81.41.54.61,1.22.61,2.06v.55h-3.8c.04.45.19.82.45,1.11.27.29.63.44,1.09.44.31,0,.59-.06.83-.19.24-.13.45-.3.62-.53l.7.67Zm-2.39-3.88c-.36,0-.65.13-.86.38s-.36.6-.42,1.04h2.48v-.1c-.02-.34-.11-.65-.28-.92-.17-.27-.47-.41-.91-.41Z"/><path class="s" d="m311.29,39.6h1.31v6.33c0,1.22-.58,1.83-1.74,1.83-.24,0-.48-.03-.7-.09v-1.03c.16.03.32.04.47.04.44,0,.66-.25.66-.76v-6.33Zm-.11-1.51c0-.2.07-.37.2-.5s.31-.2.54-.2.41.07.54.2.2.3.2.5-.07.37-.2.5-.31.2-.54.2-.41-.07-.54-.2-.2-.3-.2-.5Z"/><path class="s" d="m318.62,39.6l-2.01,5.81h-1.13l-2.03-5.81h1.35l1.26,4.15,1.22-4.15h1.35Z"/><path class="s" d="m321.73,46.29c-.07.19-.17.4-.31.63-.13.23-.32.43-.56.59-.24.16-.55.24-.93.24-.11,0-.22,0-.33-.03-.11-.02-.21-.04-.3-.06v-1.01s.07,0,.13.01c.05,0,.09,0,.12,0,.32,0,.57-.06.74-.17.17-.12.3-.32.4-.61l.19-.5-2.04-5.78h1.41l1.23,3.95,1.18-3.95h1.39l-2.31,6.69Z"/><path class="s" d="m328.05,43.83c0-.19-.08-.35-.23-.49s-.49-.26-1.02-.37c-.62-.13-1.12-.33-1.51-.59-.38-.26-.58-.64-.58-1.12s.2-.89.6-1.24c.4-.35.95-.52,1.64-.52.73,0,1.3.18,1.71.53.41.35.62.79.62,1.32h-1.31c0-.23-.09-.43-.26-.6-.17-.18-.43-.27-.77-.27s-.57.07-.73.22-.24.32-.24.51.08.34.24.46c.16.11.48.22.95.32.67.15,1.2.35,1.58.61.38.26.57.65.57,1.17s-.21.94-.64,1.27-1,.49-1.71.49c-.8,0-1.41-.2-1.83-.61s-.63-.85-.63-1.33h1.27c.01.36.15.61.39.75.25.14.52.21.8.21.34,0,.61-.07.79-.2.18-.13.27-.3.27-.51Zm-1.77-6.68l.79.83.78-.83h1.12v.06l-1.5,1.49h-.81l-1.49-1.5v-.05h1.11Z"/><path class="s" d="m333.73,43.83c0-.19-.08-.35-.23-.49s-.49-.26-1.02-.37c-.62-.13-1.12-.33-1.51-.59-.38-.26-.58-.64-.58-1.12s.2-.89.6-1.24c.4-.35.95-.52,1.64-.52.73,0,1.3.18,1.71.53.41.35.62.79.62,1.32h-1.31c0-.23-.09-.43-.26-.6-.17-.18-.43-.27-.77-.27s-.57.07-.73.22-.24.32-.24.51.08.34.24.46c.16.11.48.22.95.32.67.15,1.2.35,1.58.61.38.26.57.65.57,1.17s-.21.94-.64,1.27-1,.49-1.71.49c-.8,0-1.41-.2-1.83-.61s-.63-.85-.63-1.33h1.27c.01.36.15.61.39.75.25.14.52.21.8.21.34,0,.61-.07.79-.2.18-.13.27-.3.27-.51Zm-1.77-6.68l.79.83.78-.83h1.12v.06l-1.5,1.49h-.81l-1.49-1.5v-.05h1.11Z"/><path class="s" d="m337.56,39.6v5.81h-1.31v-5.81h1.31Zm-1.3-.78l1.05-1.62h1.49l-1.49,1.62h-1.05Z"/><path class="s" d="m345.62,45.41l-.05-.62c-.4.49-.95.73-1.66.73s-1.24-.28-1.66-.84c-.42-.56-.63-1.26-.63-2.11v-.11c0-.89.21-1.6.63-2.15.42-.54.98-.82,1.67-.82s1.22.23,1.61.69v-3.02h1v8.25h-.91Zm-3-2.84c0,.58.12,1.07.37,1.48.24.41.63.62,1.17.62.35,0,.63-.08.85-.24s.39-.36.53-.61v-2.67c-.13-.24-.3-.44-.52-.59-.22-.16-.5-.23-.84-.23-.54,0-.93.21-1.18.63-.25.42-.37.92-.37,1.5v.11Z"/><path class="s" d="m352.68,44.39c-.19.29-.46.55-.81.78-.35.23-.81.35-1.38.35-.81,0-1.46-.26-1.94-.79-.49-.53-.73-1.2-.73-2.02v-.23c0-.63.12-1.17.36-1.62.24-.45.56-.79.94-1.02.39-.23.8-.35,1.24-.35.83,0,1.44.27,1.82.81.38.54.57,1.22.57,2.03v.45h-3.93c.01.53.17.99.48,1.36.3.37.72.56,1.25.56.35,0,.65-.07.89-.21s.46-.33.64-.57l.6.48Zm-2.31-4.09c-.39,0-.73.14-1,.43s-.44.7-.51,1.24h2.91v-.08c-.02-.39-.14-.75-.34-1.08-.2-.34-.55-.5-1.06-.5Z"/><path class="s" d="m356.32,40.33c-.32,0-.6.09-.84.26s-.44.4-.57.67v4.15h-.99v-5.81h.94l.03.73c.44-.56,1.02-.83,1.73-.83.57,0,1.03.16,1.36.48.33.32.5.86.5,1.63v3.81h-1v-3.82c0-.45-.1-.78-.3-.97-.2-.19-.49-.29-.86-.29Z"/><path class="s" d="m362.4,40.33c-.32,0-.6.09-.84.26s-.44.4-.57.67v4.15h-.99v-5.81h.94l.03.73c.44-.56,1.02-.83,1.73-.83.57,0,1.03.16,1.36.48.33.32.5.86.5,1.63v3.81h-1v-3.82c0-.45-.1-.78-.3-.97-.2-.19-.49-.29-.86-.29Z"/><path class="s" d="m366.11,38.75l1.04-1.58h1.2l-1.44,1.58h-.8Zm1.03.85v5.81h-.99v-5.81h.99Z"/><path class="s" d="m373.97,45.41c-.08.02-.18.05-.31.07-.13.02-.28.04-.46.04-.37,0-.68-.11-.95-.34s-.39-.63-.39-1.21v-3.6h-1.06v-.76h1.06v-1.41h.99v1.41h1.08v.76h-1.08v3.61c0,.3.06.49.19.57s.28.12.45.12c.08,0,.17,0,.26-.02.09-.02.16-.03.21-.04v.81Z"/><path class="s" d="m379.71,44.39c-.19.29-.46.55-.81.78-.35.23-.81.35-1.38.35-.81,0-1.46-.26-1.94-.79-.49-.53-.73-1.2-.73-2.02v-.23c0-.63.12-1.17.36-1.62.24-.45.56-.79.94-1.02.39-.23.8-.35,1.24-.35.83,0,1.44.27,1.82.81.38.54.57,1.22.57,2.03v.45h-3.93c.01.53.17.99.48,1.36.3.37.72.56,1.25.56.35,0,.65-.07.89-.21s.46-.33.64-.57l.6.48Zm-2.31-4.09c-.39,0-.73.14-1,.43s-.44.7-.51,1.24h2.91v-.08c-.02-.39-.14-.75-.34-1.08-.2-.34-.55-.5-1.06-.5Z"/><path class="s" d="m383.6,45.51c-.7,0-1.25-.22-1.66-.67v2.8h-1v-8.05h.91l.05.64c.41-.5.97-.75,1.68-.75s1.3.27,1.69.82.59,1.26.59,2.15v.11c0,.85-.2,1.55-.59,2.11-.39.56-.95.84-1.67.84Zm-.31-5.19c-.34,0-.61.08-.83.23-.22.15-.39.34-.52.57v2.78c.13.23.31.42.52.57.22.15.5.22.84.22.54,0,.93-.21,1.18-.63.25-.42.37-.92.37-1.5v-.11c0-.58-.12-1.08-.37-1.5-.25-.42-.65-.63-1.19-.63Z"/><path class="s" d="m388.2,37.16v8.25h-1v-8.25h1Z"/><path class="s" d="m389.53,42.57v-.12c0-.84.24-1.54.71-2.11.47-.56,1.12-.85,1.93-.85s1.47.28,1.94.85c.47.56.71,1.27.71,2.11v.12c0,.84-.24,1.54-.71,2.11-.47.56-1.12.84-1.93.84s-1.46-.28-1.94-.84c-.47-.56-.71-1.26-.71-2.11Zm.99-.12v.12c0,.58.14,1.08.41,1.5.27.42.69.63,1.24.63s.95-.21,1.23-.63.41-.92.41-1.5v-.12c0-.57-.14-1.07-.41-1.5-.28-.43-.69-.64-1.24-.64s-.96.21-1.23.64c-.27.43-.41.93-.41,1.5Z"/><path class="s" d="m398.53,45.41c-.08.02-.18.05-.31.07-.13.02-.28.04-.46.04-.37,0-.68-.11-.95-.34s-.39-.63-.39-1.21v-3.6h-1.06v-.76h1.06v-1.41h.99v1.41h1.08v.76h-1.08v3.61c0,.3.06.49.19.57s.28.12.45.12c.08,0,.17,0,.26-.02.09-.02.16-.03.21-.04v.81Z"/><path class="s" d="m401.65,46.3c-.07.19-.18.4-.31.63-.14.23-.32.42-.54.58-.23.16-.52.24-.87.24-.08,0-.18,0-.3-.03-.12-.02-.21-.04-.26-.06v-.81c.07.01.16.02.26.02.34,0,.6-.07.79-.21.19-.14.35-.39.47-.74l.21-.59-2.07-5.75h1.08l1.46,4.35,1.35-4.35h1.06l-2.33,6.71Z"/><path class="s" d="m26.52,42.74c0,.75-.24,1.32-.72,1.7-.48.39-1.14.58-1.98.58h-2.87v-7.82h2.67c.85,0,1.52.17,2,.51s.72.88.72,1.61c0,.35-.1.68-.29.96-.19.29-.48.51-.85.66.45.12.78.34,1,.68.22.33.32.71.32,1.11Zm-4.22-4.45v2.2h1.33c.43,0,.76-.1.99-.29.24-.19.35-.46.35-.81,0-.73-.45-1.1-1.36-1.1h-1.32Zm2.87,4.44c0-.38-.1-.69-.3-.91-.2-.22-.53-.33-1-.33h-1.57v2.44h1.51c.44,0,.78-.11,1.01-.33s.34-.51.34-.87Z"/><path class="s" d="m30.27,40.36c-.6,0-1.01.23-1.21.69v3.97h-1.3v-5.81h1.25l.03.66c.14-.24.32-.42.54-.56s.47-.2.77-.2c.18,0,.33.02.46.07v1.23c-.19-.03-.37-.04-.54-.04Z"/><path class="s" d="m34.09,40.17c-.52,0-.91.24-1.17.71v4.15h-1.31v-5.81h1.23l.04.67c.43-.52.99-.77,1.68-.77.56,0,1.01.16,1.35.49s.5.88.5,1.67v3.76h-1.31v-3.77c0-.4-.09-.68-.26-.84-.17-.16-.43-.24-.77-.24Z"/><path class="s" d="m37.5,42.18v-.11c0-.84.24-1.54.71-2.11s1.14-.85,1.98-.85,1.52.28,1.99.85.71,1.27.71,2.11v.11c0,.85-.24,1.55-.71,2.11-.47.56-1.14.84-1.98.84s-1.52-.28-1.99-.84-.71-1.27-.71-2.11Zm1.3-.11v.11c0,.52.11.97.34,1.35.22.37.58.56,1.07.56s.83-.19,1.06-.56c.22-.37.34-.82.34-1.35v-.11c0-.51-.11-.96-.34-1.34-.22-.38-.58-.57-1.07-.57s-.84.19-1.06.57c-.22.38-.34.83-.34,1.34Z"/><path class="s" d="m46.71,41.29v.82h-2.62v-.82h2.62Z"/><path class="s" d="m46.62,38.05v-.85h6.04v.85h-2.51v6.97h-1.02v-6.97h-2.51Z"/><path class="s" d="m56.77,45.02l-.02-.57c-.18.21-.41.38-.69.5-.28.12-.62.18-1.01.18-.57,0-1.03-.17-1.38-.5s-.53-.89-.53-1.67v-3.75h.99v3.76c0,.52.11.87.33,1.05.22.18.47.27.74.27.4,0,.73-.08.97-.23s.42-.36.54-.61v-4.23h1v5.81h-.95Z"/><path class="s" d="m59.84,36.78l.81.91.81-.91h.86v.05l-1.36,1.47h-.61l-1.34-1.47v-.05h.84Zm1.7,3.28c-.34,0-.62.08-.84.23-.22.15-.38.35-.49.61v4.12h-.99v-5.81h.97l.02.67c.15-.24.33-.42.56-.56.23-.14.5-.21.82-.21.19,0,.33.02.44.08v.92c-.15-.03-.31-.04-.49-.04Z"/><path class="s" d="m66.33,45.02c-.06-.14-.11-.34-.14-.61-.19.2-.42.37-.7.51-.28.14-.6.21-.96.21-.59,0-1.07-.17-1.43-.5s-.54-.74-.54-1.22c0-.62.24-1.1.71-1.42.47-.32,1.11-.49,1.91-.49h.98v-.46c0-.34-.1-.62-.31-.82-.21-.21-.51-.31-.92-.31-.38,0-.68.09-.91.28-.23.18-.35.4-.35.64h-.99c0-.42.21-.81.63-1.17s.98-.55,1.68-.55c.63,0,1.15.16,1.55.48s.61.81.61,1.46v2.71c0,.19.02.4.05.62.03.22.09.41.15.56v.09h-1.04Zm-1.65-.76c.36,0,.67-.09.93-.27.26-.18.45-.38.56-.6v-1.2h-.82c-1.19,0-1.78.36-1.78,1.07,0,.28.09.51.28.7.19.19.46.29.83.29Z"/><path class="s" d="m71.13,39.94c-.32,0-.6.09-.84.26s-.44.4-.57.67v4.15h-.99v-5.81h.94l.03.73c.44-.56,1.02-.83,1.73-.83.57,0,1.03.16,1.36.48.33.32.5.86.5,1.63v3.81h-1v-3.82c0-.45-.1-.78-.3-.97-.2-.19-.49-.29-.86-.29Z"/><path class="s" d="m76.78,45.92c-.07.19-.18.4-.31.63-.14.23-.32.42-.54.58-.23.16-.52.24-.87.24-.08,0-.18,0-.3-.03-.12-.02-.21-.04-.26-.06v-.81c.07.01.16.02.26.02.34,0,.6-.07.79-.21.19-.14.35-.39.47-.74l.21-.59-2.07-5.75h1.08l1.46,4.35,1.35-4.35h1.06l-2.33,6.71Z"/><path class="h" d="m9.41,34.67c-2.8,0-5.07,2.27-5.07,5.07s5.07,9.03,5.07,9.03c0,0,5.06-6.24,5.06-9.03s-2.27-5.07-5.06-5.07Zm0,7.21c-1.3,0-2.35-1.05-2.35-2.35s1.05-2.35,2.35-2.35,2.35,1.05,2.35,2.35-1.05,2.35-2.35,2.35Z"/><path class="r" d="m374.9,252.55c0-.35-.12-.63-.37-.85-.25-.22-.77-.46-1.58-.72-.91-.29-1.69-.67-2.34-1.13s-.98-1.13-.98-1.99.34-1.51,1.03-2.02c.69-.51,1.57-.77,2.65-.77s1.99.29,2.65.87c.67.58,1,1.31,1,2.2h-2.05c0-.42-.13-.76-.4-1.03-.27-.27-.68-.4-1.23-.4s-.94.11-1.2.34c-.26.23-.39.5-.39.82s.17.6.51.82c.34.22.83.43,1.47.62,1.09.33,1.91.75,2.47,1.25.56.5.84,1.16.84,1.98,0,.87-.33,1.55-.98,2.03s-1.53.73-2.62.73c-.66,0-1.3-.12-1.91-.35s-1.12-.59-1.52-1.07c-.4-.48-.59-1.1-.59-1.85h2.06c0,.61.18,1.03.54,1.28s.84.37,1.43.37c.53,0,.92-.11,1.17-.32.25-.21.38-.48.38-.8Z"/><path class="r" d="m380.3,244.67v10.5h-1.98v-10.5h1.98Z"/><path class="r" d="m386.42,255.17l-.05-.76c-.48.6-1.16.9-2.02.9-.73,0-1.32-.21-1.77-.64-.45-.43-.68-1.13-.68-2.11v-4.79h1.98v4.8c0,.41.1.7.29.87.2.17.45.26.75.26.36,0,.65-.06.88-.19.22-.13.39-.3.51-.52v-5.22h1.98v7.4h-1.86Z"/><path class="r" d="m392.96,249.23c-.56,0-.98.24-1.25.71v5.22h-1.98v-7.4h1.85l.07.85c.53-.66,1.24-.98,2.13-.98.7,0,1.27.21,1.7.63.43.42.64,1.15.64,2.19v4.71h-1.98v-4.72c0-.47-.1-.79-.3-.96-.2-.17-.49-.25-.87-.25Z"/><path class="r" d="m397.3,251.54v-.14c0-1.08.3-1.97.92-2.69.61-.72,1.47-1.08,2.58-1.08s1.99.36,2.6,1.08c.61.72.91,1.61.91,2.69v.14c0,1.08-.3,1.97-.91,2.69-.61.72-1.47,1.07-2.58,1.07s-1.99-.36-2.6-1.07c-.61-.71-.92-1.61-.92-2.69Zm1.98-.14v.14c0,.6.12,1.11.34,1.54.23.42.63.63,1.19.63s.94-.21,1.17-.63c.23-.42.35-.93.35-1.54v-.14c0-.59-.12-1.1-.35-1.53-.23-.43-.62-.65-1.19-.65s-.95.22-1.18.65c-.23.43-.34.94-.34,1.53Z"/><path class="r" d="m411.63,247.77l-2.5,7.4h-1.88l-2.5-7.4h2.07l1.37,4.97,1.37-4.97h2.06Z"/><path class="r" d="m415.95,249.56c-.74,0-1.23.25-1.46.76v4.85h-1.98v-7.4h1.87l.06.88c.39-.68.94-1.02,1.65-1.02.25,0,.45.03.61.09l-.02,1.89c-.1,0-.22-.02-.35-.03-.13-.01-.26-.02-.37-.02Z"/><path class="r" d="m421.7,255.17c-.08-.17-.15-.39-.2-.66-.2.22-.45.41-.75.56-.3.16-.68.24-1.12.24-.71,0-1.3-.21-1.78-.62-.48-.42-.72-.95-.72-1.59,0-.77.29-1.38.86-1.8.57-.43,1.42-.64,2.55-.64h.88v-.43c0-.34-.09-.61-.26-.82-.17-.2-.45-.3-.83-.3-.71,0-1.06.3-1.06.89h-1.98c0-.64.28-1.2.85-1.66.57-.46,1.33-.69,2.29-.69.85,0,1.56.22,2.12.65.56.43.84,1.08.84,1.95v3.13c0,.42.02.76.08,1.02.05.26.12.48.22.67v.12h-2Zm-1.63-1.37c.33,0,.62-.07.85-.22.24-.15.4-.31.5-.49v-1.29h-.81c-.52,0-.91.11-1.15.33-.24.22-.36.49-.36.82,0,.25.08.45.26.61.17.16.41.24.71.24Z"/><path class="r" d="m428.62,255.12c-.16.05-.34.1-.54.13-.19.03-.41.05-.65.05-.65,0-1.16-.17-1.54-.51-.38-.34-.57-.9-.57-1.68v-3.9h-1.09v-1.44h1.09v-1.83h1.98v1.83h1.26v1.44h-1.26v3.7c0,.31.06.52.19.62.13.1.32.15.57.15.12,0,.23,0,.32-.02.1-.01.18-.02.25-.04v1.5Z"/><path class="r" d="m432.93,256.27c-.09.25-.21.52-.38.81-.17.29-.41.55-.73.75-.32.21-.73.31-1.25.31-.18,0-.33-.01-.46-.03-.12-.02-.26-.05-.42-.1v-1.5s.1,0,.15,0h.16c.39,0,.67-.06.86-.19.19-.13.33-.33.42-.6l.22-.57-2.59-7.41h2.13l1.37,4.61,1.37-4.61h2.11l-2.96,8.5Z"/><path class="r" d="m444.17,253.12c0-.21-.1-.39-.29-.53-.19-.14-.6-.28-1.22-.41-.76-.16-1.38-.41-1.88-.76s-.75-.84-.75-1.48.26-1.15.78-1.61c.52-.46,1.24-.69,2.16-.69s1.72.23,2.27.68c.55.45.83,1.02.83,1.71h-1.98c0-.28-.09-.52-.27-.7-.18-.19-.47-.28-.85-.28-.33,0-.58.08-.77.23-.18.15-.28.34-.28.57,0,.21.1.39.3.53.2.14.56.26,1.08.36.8.16,1.47.4,2,.73.53.33.79.86.79,1.59,0,.65-.28,1.19-.84,1.62-.56.43-1.32.64-2.27.64-1.04,0-1.83-.27-2.37-.8-.55-.53-.82-1.1-.82-1.7h1.88c.02.39.16.67.43.83.27.17.58.25.93.25.77,0,1.15-.26,1.15-.78Z"/><path class="r" d="m454.56,255.12c-.16.05-.34.1-.54.13-.19.03-.41.05-.65.05-.65,0-1.16-.17-1.54-.51-.38-.34-.57-.9-.57-1.68v-3.9h-1.09v-1.44h1.09v-1.83h1.98v1.83h1.26v1.44h-1.26v3.7c0,.31.06.52.19.62.13.1.32.15.57.15.12,0,.23,0,.32-.02.1-.01.18-.02.25-.04v1.5Z"/><path class="r" d="m461.88,253.96c-.24.34-.6.65-1.08.92-.48.28-1.08.42-1.8.42-1.15,0-2.05-.35-2.7-1.05-.65-.7-.97-1.54-.97-2.53v-.27c0-1.12.31-2.03.93-2.75.62-.71,1.46-1.07,2.52-1.07s1.87.33,2.43,1c.56.67.83,1.54.83,2.64v.84h-4.71c.07.48.26.87.57,1.16.31.29.72.44,1.22.44.75,0,1.35-.28,1.78-.83l.98,1.08Zm-3.12-4.74c-.42,0-.74.14-.97.42-.23.28-.38.65-.44,1.11h2.75v-.15c0-.4-.12-.73-.33-.99-.21-.26-.55-.39-1-.39Z"/><path class="r" d="m466.95,255.3c-.74,0-1.34-.26-1.81-.79v3.49h-1.98v-10.24h1.84l.08.72c.47-.57,1.09-.85,1.86-.85.94,0,1.66.34,2.15,1.03.5.69.74,1.6.74,2.72v.14c0,1.08-.25,1.97-.74,2.69-.49.72-1.2,1.08-2.13,1.08Zm-.53-6.07c-.62,0-1.04.24-1.28.72v3.03c.25.49.68.73,1.29.73.51,0,.88-.21,1.09-.64.21-.43.32-.94.32-1.54v-.14c0-.61-.11-1.12-.33-1.53-.22-.41-.59-.62-1.1-.62Z"/><path class="r" d="m473.13,244.67v10.5h-1.98v-10.5h1.98Z"/><path class="r" d="m474.44,251.54v-.14c0-1.08.3-1.97.92-2.69.61-.72,1.47-1.08,2.58-1.08s1.99.36,2.6,1.08c.61.72.91,1.61.91,2.69v.14c0,1.08-.3,1.97-.91,2.69-.61.72-1.47,1.07-2.58,1.07s-1.99-.36-2.6-1.07c-.61-.71-.92-1.61-.92-2.69Zm1.98-.14v.14c0,.6.12,1.11.34,1.54.23.42.63.63,1.19.63s.94-.21,1.17-.63c.23-.42.35-.93.35-1.54v-.14c0-.59-.12-1.1-.35-1.53-.23-.43-.62-.65-1.19-.65s-.95.22-1.18.65c-.23.43-.34.94-.34,1.53Z"/><path class="r" d="m486.37,255.12c-.16.05-.34.1-.54.13-.19.03-.41.05-.65.05-.65,0-1.16-.17-1.54-.51-.38-.34-.57-.9-.57-1.68v-3.9h-1.09v-1.44h1.09v-1.83h1.98v1.83h1.26v1.44h-1.26v3.7c0,.31.06.52.19.62.13.1.32.15.57.15.12,0,.23,0,.32-.02.1-.01.18-.02.25-.04v1.5Z"/><path class="r" d="m486.88,251.54v-.14c0-1.08.3-1.97.92-2.69.61-.72,1.47-1.08,2.58-1.08s1.99.36,2.6,1.08c.61.72.91,1.61.91,2.69v.14c0,1.08-.3,1.97-.91,2.69-.61.72-1.47,1.07-2.58,1.07s-1.99-.36-2.6-1.07c-.61-.71-.92-1.61-.92-2.69Zm1.98-.14v.14c0,.6.12,1.11.34,1.54.23.42.63.63,1.19.63s.94-.21,1.17-.63c.23-.42.35-.93.35-1.54v-.14c0-.59-.12-1.1-.35-1.53-.23-.43-.62-.65-1.19-.65s-.95.22-1.18.65c-.23.43-.34.94-.34,1.53Z"/><path class="r" d="m499.6,255.17l-.05-.76c-.48.6-1.16.9-2.02.9-.73,0-1.32-.21-1.77-.64-.45-.43-.68-1.13-.68-2.11v-4.79h1.98v4.8c0,.41.1.7.29.87.2.17.45.26.75.26.36,0,.65-.06.88-.19.22-.13.39-.3.51-.52v-5.22h1.98v7.4h-1.86Z"/><path class="r" d="m512.64,247.77l-2.5,7.4h-1.88l-2.5-7.4h2.07l1.37,4.97,1.37-4.97h2.06Z"/><path class="r" d="m516.8,256.27c-.09.25-.21.52-.38.81-.17.29-.41.55-.73.75-.32.21-.73.31-1.25.31-.18,0-.33-.01-.46-.03-.12-.02-.26-.05-.42-.1v-1.5s.1,0,.15,0h.16c.39,0,.67-.06.86-.19.19-.13.33-.33.42-.6l.22-.57-2.59-7.41h2.13l1.37,4.61,1.37-4.61h2.11l-2.96,8.5Z"/><path class="r" d="m524.56,253.12c0-.21-.1-.39-.29-.53-.19-.14-.6-.28-1.22-.41-.76-.16-1.38-.41-1.88-.76s-.75-.84-.75-1.48.26-1.15.78-1.61c.52-.46,1.24-.69,2.16-.69s1.72.23,2.27.68c.55.45.83,1.02.83,1.71h-1.98c0-.28-.09-.52-.27-.7-.18-.19-.47-.28-.85-.28-.33,0-.58.08-.77.23-.18.15-.28.34-.28.57,0,.21.1.39.3.53.2.14.56.26,1.08.36.8.16,1.47.4,2,.73.53.33.79.86.79,1.59,0,.65-.28,1.19-.84,1.62-.56.43-1.32.64-2.27.64-1.04,0-1.83-.27-2.37-.8-.55-.53-.82-1.1-.82-1.7h1.88c.02.39.16.67.43.83.27.17.58.25.93.25.77,0,1.15-.26,1.15-.78Zm-2.15-8.46l1,.97,1-.97h1.68v.07l-2.06,1.93h-1.24l-2.06-1.93v-.06h1.68Z"/><path class="r" d="m531.76,253.12c0-.21-.1-.39-.29-.53-.19-.14-.6-.28-1.22-.41-.76-.16-1.38-.41-1.88-.76s-.75-.84-.75-1.48.26-1.15.78-1.61c.52-.46,1.24-.69,2.16-.69s1.72.23,2.27.68c.55.45.83,1.02.83,1.71h-1.98c0-.28-.09-.52-.27-.7-.18-.19-.47-.28-.85-.28-.33,0-.58.08-.77.23-.18.15-.28.34-.28.57,0,.21.1.39.3.53.2.14.56.26,1.08.36.8.16,1.47.4,2,.73.53.33.79.86.79,1.59,0,.65-.28,1.19-.84,1.62-.56.43-1.32.64-2.27.64-1.04,0-1.83-.27-2.37-.8-.55-.53-.82-1.1-.82-1.7h1.88c.02.39.16.67.43.83.27.17.58.25.93.25.77,0,1.15-.26,1.15-.78Zm-2.15-8.46l1,.97,1-.97h1.68v.07l-2.06,1.93h-1.24l-2.06-1.93v-.06h1.68Z"/><path class="r" d="m537.1,247.77v7.4h-1.98v-7.4h1.98Zm-1.93-.89l1.34-2.11h2.15l-1.89,2.11h-1.6Z"/><path class="r" d="m392.37,265.5c-.41,0-.76.11-1.07.33-.31.22-.55.5-.73.85v5.28h-1.26v-7.4h1.2l.04.92c.56-.71,1.3-1.06,2.21-1.06.73,0,1.31.21,1.73.62.43.41.64,1.1.64,2.07v4.85h-1.27v-4.86c0-.58-.13-.99-.38-1.24s-.62-.37-1.1-.37Z"/><path class="r" d="m402.88,270.67c-.24.37-.58.69-1.03.99-.44.29-1.03.44-1.76.44-1.03,0-1.85-.33-2.47-1-.62-.67-.93-1.53-.93-2.57v-.29c0-.81.15-1.49.46-2.06s.71-1,1.2-1.3c.49-.3,1.02-.45,1.57-.45,1.06,0,1.83.35,2.31,1.04s.73,1.55.73,2.59v.57h-5c.02.68.22,1.26.6,1.73.39.48.92.71,1.59.71.45,0,.82-.09,1.13-.27.31-.18.58-.43.81-.73l.77.61Zm-2.95-5.2c-.5,0-.93.18-1.27.55-.35.37-.56.89-.65,1.57h3.7v-.1c-.03-.49-.17-.95-.43-1.38-.25-.43-.7-.64-1.35-.64Z"/><path class="r" d="m404.15,265.62v-1.05h5.61v.9l-4.12,5.46h4.31v1.04h-5.87v-.93l4.07-5.42h-4.02Zm1.82-4.14l1.03,1.16,1.03-1.16h1.09v.07l-1.74,1.87h-.78l-1.71-1.87v-.07h1.07Z"/><path class="r" d="m418.25,272.1c-.89,0-1.59-.28-2.11-.85v3.56h-1.27v-10.24h1.16l.06.81c.52-.63,1.23-.95,2.14-.95s1.65.35,2.15,1.04c.5.69.75,1.6.75,2.73v.14c0,1.08-.25,1.98-.75,2.69s-1.21,1.07-2.12,1.07Zm-.39-6.6c-.43,0-.78.1-1.06.29-.28.19-.5.44-.66.73v3.54c.17.29.39.53.67.72.28.19.63.28,1.07.28.68,0,1.18-.27,1.5-.81.32-.54.48-1.17.48-1.91v-.14c0-.73-.16-1.37-.48-1.9-.32-.54-.82-.8-1.51-.8Z"/><path class="r" d="m425.69,265.65c-.43,0-.79.1-1.07.29-.28.19-.49.45-.62.78v5.25h-1.26v-7.4h1.23l.03.85c.19-.3.42-.54.71-.72.29-.18.64-.27,1.04-.27.24,0,.42.03.56.1v1.18c-.19-.04-.4-.05-.62-.05Z"/><path class="r" d="m432.07,271.97l-.03-.73c-.23.27-.52.49-.88.64-.36.15-.78.23-1.29.23-.72,0-1.31-.21-1.76-.64-.45-.43-.67-1.13-.67-2.12v-4.77h1.26v4.79c0,.67.14,1.11.42,1.34s.59.34.94.34c.51,0,.93-.1,1.24-.29.31-.2.54-.46.69-.78v-5.39h1.27v7.4h-1.21Zm-3.14-9.71c0-.39.14-.73.42-1,.28-.28.63-.42,1.05-.42s.76.14,1.05.42c.28.28.42.61.42,1s-.14.73-.42,1c-.28.26-.63.4-1.05.4s-.77-.13-1.05-.4c-.28-.26-.42-.6-.42-1Zm.68,0c0,.2.07.38.22.54.15.16.34.24.57.24s.42-.08.57-.24c.15-.16.22-.34.22-.55s-.07-.4-.22-.56c-.15-.16-.34-.24-.57-.24s-.42.08-.57.24c-.15.16-.22.35-.22.56Z"/><path class="r" d="m438.16,265.5c-.45,0-.81.1-1.09.29s-.48.44-.62.76v5.42h-1.27v-7.4h1.2l.03.81c.53-.63,1.26-.94,2.19-.94.47,0,.9.09,1.27.28.37.19.66.49.85.91.25-.36.57-.64.96-.86.39-.22.86-.33,1.39-.33.79,0,1.4.21,1.83.64s.65,1.1.65,2.04v4.86h-1.27v-4.87c0-.62-.14-1.04-.43-1.26-.28-.22-.67-.33-1.15-.33-.51,0-.91.15-1.2.46-.29.3-.46.67-.51,1.1v4.91h-1.26v-4.87c0-.58-.14-.99-.43-1.23-.29-.24-.67-.37-1.15-.37Z"/><path class="r" d="m453.33,270.67c-.24.37-.58.69-1.03.99-.44.29-1.03.44-1.76.44-1.03,0-1.85-.33-2.47-1-.62-.67-.93-1.53-.93-2.57v-.29c0-.81.15-1.49.46-2.06s.71-1,1.2-1.3c.49-.3,1.02-.45,1.57-.45,1.06,0,1.83.35,2.31,1.04s.73,1.55.73,2.59v.57h-5c.02.68.22,1.26.6,1.73.39.48.92.71,1.59.71.45,0,.82-.09,1.13-.27.31-.18.58-.43.81-.73l.77.61Zm-3.99-9.2l1.03,1.16,1.03-1.16h1.09v.07l-1.74,1.87h-.78l-1.71-1.87v-.07h1.07Zm1.05,4c-.5,0-.93.18-1.27.55-.35.37-.56.89-.65,1.57h3.7v-.1c-.03-.49-.17-.95-.43-1.38-.25-.43-.7-.64-1.35-.64Z"/><path class="r" d="m457.85,265.65c-.43,0-.79.1-1.07.29-.28.19-.49.45-.62.78v5.25h-1.26v-7.4h1.23l.03.85c.19-.3.42-.54.71-.72.29-.18.64-.27,1.04-.27.24,0,.42.03.56.1v1.18c-.19-.04-.4-.05-.62-.05Z"/><path class="r" d="m467.13,261.96v10.01h-1.26v-8.43l-2.55.93v-1.14l3.62-1.37h.2Z"/><path class="r" d="m476.96,266.36c0,.65-.06,1.3-.17,1.96-.11.66-.33,1.26-.65,1.82s-.8,1-1.42,1.34c-.63.34-1.46.51-2.49.51h-.13v-1.07h.13c.92,0,1.62-.16,2.11-.47s.83-.73,1.03-1.23c.19-.51.3-1.05.33-1.62-.26.31-.58.57-.95.77-.37.2-.77.29-1.2.29-.66,0-1.19-.16-1.61-.49-.42-.33-.73-.75-.93-1.25-.2-.51-.3-1.03-.3-1.58,0-.95.26-1.76.78-2.43.52-.67,1.29-1.01,2.31-1.01.76,0,1.37.2,1.83.59.47.39.81.9,1.02,1.51s.32,1.26.32,1.93v.46Zm-5.02-1.11c0,.59.15,1.13.45,1.61.3.48.75.72,1.36.72.43,0,.83-.13,1.18-.39.35-.26.61-.58.78-.96v-.5c0-.91-.19-1.6-.58-2.08-.38-.48-.83-.72-1.34-.72-.59,0-1.04.22-1.36.67s-.48,1-.48,1.66Z"/><path class="r" d="m485.09,268.72c0,.94-.26,1.74-.79,2.4s-1.29.98-2.3.98c-.72,0-1.31-.19-1.78-.57-.47-.38-.83-.86-1.06-1.45-.23-.59-.35-1.19-.35-1.8v-.59c0-.93.13-1.84.39-2.71.26-.87.74-1.58,1.43-2.14.69-.56,1.67-.84,2.95-.84h.11v1.07h-.11c-.81,0-1.46.16-1.95.46-.49.31-.86.71-1.1,1.21-.24.49-.38,1.02-.43,1.59.27-.31.59-.54.96-.68.37-.14.76-.22,1.18-.22.66,0,1.2.16,1.62.48.42.32.73.73.93,1.23.2.5.3,1.03.3,1.57Zm-5.02-.4c0,.88.2,1.56.59,2.03.39.47.84.7,1.34.7.58,0,1.04-.21,1.36-.64.32-.43.48-.97.48-1.64,0-.59-.15-1.12-.44-1.59-.3-.47-.75-.7-1.37-.7-.44,0-.84.13-1.2.4-.36.26-.61.59-.75.96v.48Z"/><path class="r" d="m490.74,261.96v10.01h-1.26v-8.43l-2.55.93v-1.14l3.62-1.37h.2Z"/><path class="r" d="m501.57,266.48v1.04h-6.85v-1.04h6.85Z"/><path class="r" d="m509.91,269.27c0,.91-.3,1.61-.91,2.1-.61.49-1.36.73-2.25.73s-1.64-.24-2.25-.73c-.61-.49-.91-1.19-.91-2.1,0-.56.15-1.05.45-1.47.3-.43.7-.75,1.21-.97-.44-.21-.79-.52-1.05-.91-.26-.39-.39-.83-.39-1.32,0-.87.28-1.54.83-2.02.55-.47,1.25-.71,2.1-.71s1.55.24,2.11.71c.55.47.83,1.15.83,2.02,0,.49-.13.93-.4,1.32-.26.39-.62.69-1.06.91.51.22.92.54,1.23.97.3.43.46.92.46,1.47Zm-1.27-.03c0-.56-.18-1.01-.53-1.36-.35-.35-.81-.53-1.38-.53s-1.04.18-1.38.53c-.34.35-.51.8-.51,1.36s.17,1.02.51,1.34c.34.32.8.48,1.39.48s1.05-.16,1.39-.48c.34-.32.51-.77.51-1.34Zm-.23-4.62c0-.5-.16-.91-.46-1.23-.31-.32-.71-.48-1.21-.48s-.9.15-1.2.46c-.31.31-.46.72-.46,1.25s.15.93.46,1.24c.3.31.71.46,1.21.46s.9-.15,1.21-.46c.31-.31.46-.72.46-1.24Z"/><path class="r" d="m517.75,266.2v1.52c0,1.63-.28,2.77-.84,3.42-.56.65-1.33.97-2.29.97s-1.72-.32-2.29-.97c-.57-.65-.86-1.79-.86-3.42v-1.52c0-1.63.28-2.75.85-3.38.57-.63,1.33-.94,2.28-.94s1.73.31,2.3.94c.57.63.85,1.75.85,3.38Zm-1.27,1.72v-1.93c0-1.12-.16-1.91-.48-2.38-.32-.46-.79-.7-1.4-.7s-1.06.23-1.38.7-.48,1.26-.48,2.38v1.93c0,1.11.16,1.91.49,2.41.33.49.79.74,1.39.74s1.09-.25,1.4-.74c.31-.49.47-1.29.47-2.41Z"/><path class="x" d="m67.76,252.55c0-.35-.12-.63-.37-.85-.25-.22-.77-.46-1.58-.72-.91-.29-1.69-.67-2.34-1.13s-.98-1.13-.98-1.99.34-1.51,1.03-2.02c.69-.51,1.57-.77,2.65-.77s1.99.29,2.65.87c.67.58,1,1.31,1,2.2h-2.05c0-.42-.13-.76-.4-1.03-.27-.27-.68-.4-1.23-.4s-.94.11-1.2.34-.39.5-.39.82.17.6.51.82.83.43,1.47.62c1.09.33,1.91.75,2.47,1.25.56.5.84,1.16.84,1.98,0,.87-.33,1.55-.98,2.03s-1.53.73-2.62.73c-.66,0-1.3-.12-1.91-.35s-1.12-.59-1.52-1.07c-.4-.48-.59-1.1-.59-1.85h2.06c0,.61.18,1.03.54,1.28s.84.37,1.43.37c.53,0,.92-.11,1.17-.32.25-.21.38-.48.38-.8Z"/><path class="x" d="m73.16,244.67v10.5h-1.98v-10.5h1.98Z"/><path class="x" d="m79.27,255.17l-.05-.76c-.48.6-1.16.9-2.02.9-.73,0-1.32-.21-1.77-.64-.45-.43-.68-1.13-.68-2.11v-4.79h1.98v4.8c0,.41.1.7.29.87s.45.26.75.26c.36,0,.65-.06.88-.19.22-.13.39-.3.51-.52v-5.22h1.98v7.4h-1.86Z"/><path class="x" d="m85.82,249.23c-.56,0-.98.24-1.25.71v5.22h-1.98v-7.4h1.85l.07.85c.53-.66,1.24-.98,2.13-.98.7,0,1.27.21,1.7.63.43.42.64,1.15.64,2.19v4.71h-1.98v-4.72c0-.47-.1-.79-.3-.96-.2-.17-.49-.25-.87-.25Z"/><path class="x" d="m90.16,251.54v-.14c0-1.08.31-1.97.92-2.69s1.47-1.08,2.58-1.08,1.99.36,2.6,1.08.91,1.61.91,2.69v.14c0,1.08-.3,1.97-.91,2.69-.61.72-1.47,1.07-2.58,1.07s-1.99-.36-2.6-1.07c-.61-.71-.92-1.61-.92-2.69Zm1.98-.14v.14c0,.6.12,1.11.35,1.54.23.42.63.63,1.19.63s.94-.21,1.17-.63c.23-.42.35-.93.35-1.54v-.14c0-.59-.12-1.1-.35-1.53s-.63-.65-1.19-.65-.95.22-1.18.65-.34.94-.34,1.53Z"/><path class="x" d="m104.48,247.77l-2.5,7.4h-1.88l-2.5-7.4h2.07l1.37,4.97,1.37-4.97h2.06Z"/><path class="x" d="m108.8,249.56c-.74,0-1.23.25-1.46.76v4.85h-1.98v-7.4h1.87l.06.88c.39-.68.94-1.02,1.65-1.02.25,0,.45.03.61.09l-.02,1.89c-.1,0-.22-.02-.35-.03s-.26-.02-.37-.02Z"/><path class="x" d="m114.55,255.17c-.08-.17-.15-.39-.2-.66-.2.22-.45.41-.75.56s-.68.24-1.12.24c-.71,0-1.3-.21-1.78-.62s-.72-.95-.72-1.59c0-.77.29-1.38.86-1.8.57-.43,1.42-.64,2.55-.64h.88v-.43c0-.34-.09-.61-.26-.82-.18-.2-.45-.3-.83-.3-.71,0-1.06.3-1.06.89h-1.98c0-.64.28-1.2.85-1.66.57-.46,1.33-.69,2.29-.69.85,0,1.56.22,2.12.65.56.43.84,1.08.84,1.95v3.13c0,.42.02.76.08,1.02s.12.48.22.67v.12h-2Zm-1.63-1.37c.33,0,.62-.07.85-.22.23-.15.4-.31.5-.49v-1.29h-.81c-.52,0-.91.11-1.15.33-.24.22-.36.49-.36.82,0,.25.09.45.26.61.17.16.41.24.71.24Z"/><path class="x" d="m121.48,255.12c-.16.05-.34.1-.54.13s-.41.05-.65.05c-.65,0-1.16-.17-1.54-.51-.38-.34-.57-.9-.57-1.68v-3.9h-1.09v-1.44h1.09v-1.83h1.98v1.83h1.26v1.44h-1.26v3.7c0,.31.06.52.19.62.13.1.32.15.57.15.12,0,.23,0,.32-.02.1-.01.18-.02.25-.04v1.5Z"/><path class="x" d="m125.79,256.27c-.09.25-.21.52-.38.81s-.41.55-.73.75c-.32.21-.73.31-1.25.31-.18,0-.33-.01-.46-.03-.12-.02-.26-.05-.42-.1v-1.5s.1,0,.15,0h.16c.39,0,.67-.06.86-.19.19-.13.33-.33.42-.6l.22-.57-2.59-7.41h2.13l1.37,4.61,1.37-4.61h2.11l-2.96,8.5Z"/><path class="x" d="m137.03,253.12c0-.21-.1-.39-.29-.53s-.6-.28-1.22-.41c-.76-.16-1.38-.41-1.88-.76s-.75-.84-.75-1.48.26-1.15.78-1.61,1.24-.69,2.16-.69,1.72.23,2.27.68.83,1.02.83,1.71h-1.98c0-.28-.09-.52-.27-.7-.18-.19-.47-.28-.85-.28-.33,0-.58.08-.77.23-.18.15-.28.34-.28.57,0,.21.1.39.3.53s.56.26,1.08.36c.8.16,1.47.4,2,.73s.79.86.79,1.59c0,.65-.28,1.19-.84,1.62-.56.43-1.32.64-2.27.64-1.03,0-1.83-.27-2.37-.8-.55-.53-.82-1.1-.82-1.7h1.88c.02.39.16.67.43.83.27.17.58.25.93.25.77,0,1.15-.26,1.15-.78Z"/><path class="x" d="m147.42,255.12c-.16.05-.34.1-.54.13s-.41.05-.65.05c-.65,0-1.16-.17-1.54-.51-.38-.34-.57-.9-.57-1.68v-3.9h-1.09v-1.44h1.09v-1.83h1.98v1.83h1.26v1.44h-1.26v3.7c0,.31.06.52.19.62.13.1.32.15.57.15.12,0,.23,0,.32-.02.1-.01.18-.02.25-.04v1.5Z"/><path class="x" d="m154.74,253.96c-.24.34-.6.65-1.08.92-.48.28-1.08.42-1.8.42-1.15,0-2.05-.35-2.7-1.05-.65-.7-.97-1.54-.97-2.53v-.27c0-1.12.31-2.03.93-2.75.62-.71,1.46-1.07,2.52-1.07s1.87.33,2.43,1c.56.67.83,1.54.83,2.64v.84h-4.71c.07.48.26.87.57,1.16s.72.44,1.22.44c.75,0,1.35-.28,1.78-.83l.98,1.08Zm-3.12-4.74c-.42,0-.74.14-.97.42-.23.28-.38.65-.44,1.11h2.75v-.15c0-.4-.12-.73-.33-.99-.21-.26-.55-.39-1-.39Z"/><path class="x" d="m159.81,255.3c-.74,0-1.34-.26-1.81-.79v3.49h-1.98v-10.24h1.84l.08.72c.47-.57,1.09-.85,1.86-.85.94,0,1.66.34,2.15,1.03.49.69.74,1.6.74,2.72v.14c0,1.08-.25,1.97-.74,2.69-.49.72-1.2,1.08-2.13,1.08Zm-.53-6.07c-.62,0-1.04.24-1.28.72v3.03c.25.49.68.73,1.29.73.52,0,.88-.21,1.09-.64.21-.43.32-.94.32-1.54v-.14c0-.61-.11-1.12-.33-1.53-.22-.41-.59-.62-1.1-.62Z"/><path class="x" d="m165.99,244.67v10.5h-1.98v-10.5h1.98Z"/><path class="x" d="m167.3,251.54v-.14c0-1.08.31-1.97.92-2.69s1.47-1.08,2.58-1.08,1.99.36,2.6,1.08.91,1.61.91,2.69v.14c0,1.08-.3,1.97-.91,2.69-.61.72-1.47,1.07-2.58,1.07s-1.99-.36-2.6-1.07c-.61-.71-.92-1.61-.92-2.69Zm1.98-.14v.14c0,.6.12,1.11.35,1.54.23.42.63.63,1.19.63s.94-.21,1.17-.63c.23-.42.35-.93.35-1.54v-.14c0-.59-.12-1.1-.35-1.53s-.63-.65-1.19-.65-.95.22-1.18.65-.34.94-.34,1.53Z"/><path class="x" d="m179.23,255.12c-.16.05-.34.1-.54.13s-.41.05-.65.05c-.65,0-1.16-.17-1.54-.51-.38-.34-.57-.9-.57-1.68v-3.9h-1.09v-1.44h1.09v-1.83h1.98v1.83h1.26v1.44h-1.26v3.7c0,.31.06.52.19.62.13.1.32.15.57.15.12,0,.23,0,.32-.02.1-.01.18-.02.25-.04v1.5Z"/><path class="x" d="m179.74,251.54v-.14c0-1.08.31-1.97.92-2.69s1.47-1.08,2.58-1.08,1.99.36,2.6,1.08.91,1.61.91,2.69v.14c0,1.08-.3,1.97-.91,2.69-.61.72-1.47,1.07-2.58,1.07s-1.99-.36-2.6-1.07c-.61-.71-.92-1.61-.92-2.69Zm1.98-.14v.14c0,.6.12,1.11.35,1.54.23.42.63.63,1.19.63s.94-.21,1.17-.63c.23-.42.35-.93.35-1.54v-.14c0-.59-.12-1.1-.35-1.53s-.63-.65-1.19-.65-.95.22-1.18.65-.34.94-.34,1.53Z"/><path class="x" d="m192.46,255.17l-.05-.76c-.48.6-1.16.9-2.02.9-.73,0-1.32-.21-1.77-.64-.45-.43-.68-1.13-.68-2.11v-4.79h1.98v4.8c0,.41.1.7.29.87s.45.26.75.26c.36,0,.65-.06.88-.19.22-.13.39-.3.51-.52v-5.22h1.98v7.4h-1.86Z"/><path class="x" d="m202.48,249.23c-.56,0-.98.24-1.25.71v5.22h-1.98v-7.4h1.85l.07.85c.53-.66,1.24-.98,2.13-.98.7,0,1.27.21,1.7.63.43.42.64,1.15.64,2.19v4.71h-1.98v-4.72c0-.47-.1-.79-.3-.96-.2-.17-.49-.25-.87-.25Z"/><path class="x" d="m207.12,245.86c0-.3.1-.54.3-.73.2-.19.47-.29.81-.29s.61.1.81.29c.2.19.3.44.3.73s-.1.53-.3.73c-.2.19-.47.29-.81.29s-.61-.1-.81-.29c-.2-.19-.3-.44-.3-.73Zm2.11,1.91v7.4h-1.98v-7.4h1.98Z"/><path class="x" d="m210.7,249.36v-1.59h5.93v1.16l-3.51,4.64h3.62v1.59h-6.14v-1.2l3.49-4.6h-3.38Zm1.95-4.7l1,.97,1-.97h1.68v.07l-2.06,1.93h-1.24l-2.06-1.93v-.06h1.68Z"/><path class="x" d="m221.98,253.12c0-.21-.1-.39-.29-.53s-.6-.28-1.22-.41c-.76-.16-1.38-.41-1.88-.76s-.75-.84-.75-1.48.26-1.15.78-1.61,1.24-.69,2.16-.69,1.72.23,2.27.68.83,1.02.83,1.71h-1.98c0-.28-.09-.52-.27-.7-.18-.19-.47-.28-.85-.28-.33,0-.58.08-.77.23-.18.15-.28.34-.28.57,0,.21.1.39.3.53s.56.26,1.08.36c.8.16,1.47.4,2,.73s.79.86.79,1.59c0,.65-.28,1.19-.84,1.62-.56.43-1.32.64-2.27.64-1.03,0-1.83-.27-2.37-.8-.55-.53-.82-1.1-.82-1.7h1.88c.02.39.16.67.43.83.27.17.58.25.93.25.77,0,1.15-.26,1.15-.78Zm-2.15-8.46l1,.97,1-.97h1.68v.07l-2.06,1.93h-1.24l-2.06-1.93v-.06h1.68Z"/><path class="x" d="m227.32,247.77v7.4h-1.98v-7.4h1.98Zm-1.93-.89l1.34-2.11h2.15l-1.89,2.11h-1.6Z"/><path class="x" d="m83.91,265.5c-.41,0-.76.11-1.07.33s-.55.5-.73.85v5.28h-1.26v-7.4h1.2l.04.92c.56-.71,1.3-1.06,2.21-1.06.73,0,1.31.21,1.73.62s.64,1.1.64,2.07v4.85h-1.27v-4.86c0-.58-.13-.99-.38-1.24s-.62-.37-1.1-.37Z"/><path class="x" d="m94.42,270.67c-.24.37-.58.69-1.03.99s-1.03.44-1.76.44c-1.03,0-1.85-.33-2.47-1s-.93-1.53-.93-2.57v-.29c0-.81.15-1.49.46-2.06s.71-1,1.2-1.3c.49-.3,1.02-.45,1.57-.45,1.06,0,1.83.35,2.31,1.04s.73,1.55.73,2.59v.57h-5c.02.68.22,1.26.6,1.73.39.48.92.71,1.59.71.45,0,.82-.09,1.13-.27.31-.18.58-.43.81-.73l.77.61Zm-2.95-5.2c-.5,0-.93.18-1.27.55-.35.37-.56.89-.65,1.57h3.7v-.1c-.03-.49-.17-.95-.43-1.38-.25-.43-.7-.64-1.35-.64Z"/><path class="x" d="m95.69,265.62v-1.05h5.61v.9l-4.12,5.46h4.31v1.04h-5.87v-.93l4.07-5.42h-4.02Zm1.82-4.14l1.03,1.16,1.03-1.16h1.09v.07l-1.74,1.87h-.78l-1.71-1.87v-.07h1.07Z"/><path class="x" d="m109.79,272.1c-.89,0-1.59-.28-2.11-.85v3.56h-1.27v-10.24h1.16l.06.81c.52-.63,1.23-.95,2.14-.95s1.65.35,2.15,1.04c.5.69.75,1.6.75,2.73v.14c0,1.08-.25,1.98-.75,2.69s-1.21,1.07-2.12,1.07Zm-.39-6.6c-.43,0-.78.1-1.06.29-.28.19-.5.44-.66.73v3.54c.17.29.39.53.67.72.28.19.63.28,1.07.28.68,0,1.18-.27,1.5-.81.32-.54.48-1.17.48-1.91v-.14c0-.73-.16-1.37-.48-1.9-.32-.54-.82-.8-1.51-.8Z"/><path class="x" d="m117.23,265.65c-.43,0-.79.1-1.07.29-.28.19-.49.45-.62.78v5.25h-1.26v-7.4h1.23l.03.85c.19-.3.42-.54.71-.72s.64-.27,1.04-.27c.24,0,.42.03.56.1v1.18c-.19-.04-.4-.05-.62-.05Z"/><path class="x" d="m123.6,271.97l-.03-.73c-.23.27-.52.49-.88.64-.36.15-.78.23-1.29.23-.72,0-1.31-.21-1.76-.64-.45-.43-.67-1.13-.67-2.12v-4.77h1.26v4.79c0,.67.14,1.11.42,1.34s.59.34.94.34c.52,0,.93-.1,1.24-.29.31-.2.54-.46.69-.78v-5.39h1.27v7.4h-1.21Zm-3.14-9.71c0-.39.14-.73.42-1,.28-.28.63-.42,1.05-.42s.76.14,1.05.42c.28.28.42.61.42,1s-.14.73-.42,1c-.28.26-.63.4-1.05.4s-.77-.13-1.05-.4c-.28-.26-.42-.6-.42-1Zm.68,0c0,.2.07.38.22.54.15.16.34.24.57.24s.42-.08.57-.24.22-.34.22-.55-.07-.4-.22-.56c-.15-.16-.34-.24-.57-.24s-.42.08-.57.24c-.15.16-.22.35-.22.56Z"/><path class="x" d="m129.7,265.5c-.45,0-.81.1-1.09.29s-.48.44-.62.76v5.42h-1.27v-7.4h1.2l.03.81c.53-.63,1.26-.94,2.19-.94.47,0,.9.09,1.27.28.37.19.66.49.85.91.25-.36.57-.64.96-.86s.86-.33,1.39-.33c.79,0,1.4.21,1.84.64s.65,1.1.65,2.04v4.86h-1.27v-4.87c0-.62-.14-1.04-.43-1.26-.28-.22-.67-.33-1.15-.33-.51,0-.91.15-1.2.46-.29.3-.46.67-.51,1.1v4.91h-1.26v-4.87c0-.58-.14-.99-.43-1.23-.29-.24-.67-.37-1.15-.37Z"/><path class="x" d="m144.86,270.67c-.24.37-.58.69-1.03.99s-1.03.44-1.76.44c-1.03,0-1.85-.33-2.47-1s-.93-1.53-.93-2.57v-.29c0-.81.15-1.49.46-2.06s.71-1,1.2-1.3c.49-.3,1.02-.45,1.57-.45,1.06,0,1.83.35,2.31,1.04s.73,1.55.73,2.59v.57h-5c.02.68.22,1.26.6,1.73.39.48.92.71,1.59.71.45,0,.82-.09,1.13-.27.31-.18.58-.43.81-.73l.77.61Zm-3.99-9.2l1.03,1.16,1.03-1.16h1.09v.07l-1.74,1.87h-.78l-1.71-1.87v-.07h1.07Zm1.05,4c-.5,0-.93.18-1.27.55-.35.37-.56.89-.65,1.57h3.7v-.1c-.03-.49-.17-.95-.43-1.38-.25-.43-.7-.64-1.35-.64Z"/><path class="x" d="m149.39,265.65c-.43,0-.79.1-1.07.29-.28.19-.49.45-.62.78v5.25h-1.26v-7.4h1.23l.03.85c.19-.3.42-.54.71-.72s.64-.27,1.04-.27c.24,0,.42.03.56.1v1.18c-.19-.04-.4-.05-.62-.05Z"/><path class="x" d="m158.67,261.96v10.01h-1.26v-8.43l-2.55.93v-1.14l3.62-1.37h.2Z"/><path class="x" d="m168.5,266.36c0,.65-.06,1.3-.17,1.96-.11.66-.33,1.26-.65,1.82s-.8,1-1.43,1.34c-.63.34-1.46.51-2.49.51h-.13v-1.07h.13c.92,0,1.62-.16,2.11-.47s.83-.73,1.03-1.23c.19-.51.3-1.05.32-1.62-.26.31-.58.57-.95.77-.37.2-.77.29-1.2.29-.66,0-1.19-.16-1.61-.49s-.73-.75-.93-1.25c-.2-.51-.3-1.03-.3-1.58,0-.95.26-1.76.78-2.43.52-.67,1.29-1.01,2.31-1.01.76,0,1.37.2,1.84.59.47.39.81.9,1.02,1.51s.32,1.26.32,1.93v.46Zm-5.02-1.11c0,.59.15,1.13.45,1.61.3.48.75.72,1.36.72.43,0,.83-.13,1.18-.39s.61-.58.78-.96v-.5c0-.91-.19-1.6-.58-2.08-.39-.48-.83-.72-1.34-.72-.59,0-1.04.22-1.36.67s-.48,1-.48,1.66Z"/><path class="x" d="m176.62,268.72c0,.94-.26,1.74-.79,2.4s-1.29.98-2.3.98c-.72,0-1.31-.19-1.78-.57-.47-.38-.83-.86-1.06-1.45-.23-.59-.35-1.19-.35-1.8v-.59c0-.93.13-1.84.39-2.71.26-.87.74-1.58,1.43-2.14.69-.56,1.67-.84,2.95-.84h.11v1.07h-.11c-.81,0-1.46.16-1.95.46-.49.31-.86.71-1.1,1.21-.24.49-.38,1.02-.43,1.59.27-.31.59-.54.96-.68s.76-.22,1.18-.22c.66,0,1.2.16,1.62.48.42.32.73.73.93,1.23.2.5.3,1.03.3,1.57Zm-5.02-.4c0,.88.2,1.56.59,2.03.39.47.84.7,1.34.7.58,0,1.04-.21,1.36-.64.32-.43.48-.97.48-1.64,0-.59-.15-1.12-.44-1.59-.3-.47-.75-.7-1.37-.7-.44,0-.84.13-1.2.4-.36.26-.61.59-.75.96v.48Z"/><path class="x" d="m182.28,261.96v10.01h-1.26v-8.43l-2.55.93v-1.14l3.62-1.37h.2Z"/><path class="x" d="m193.11,266.48v1.04h-6.85v-1.04h6.85Z"/><path class="x" d="m201.45,269.27c0,.91-.3,1.61-.91,2.1-.61.49-1.36.73-2.25.73s-1.64-.24-2.25-.73c-.61-.49-.91-1.19-.91-2.1,0-.56.15-1.05.45-1.47.3-.43.7-.75,1.21-.97-.44-.21-.79-.52-1.05-.91-.26-.39-.39-.83-.39-1.32,0-.87.28-1.54.83-2.02.55-.47,1.25-.71,2.1-.71s1.56.24,2.11.71c.55.47.83,1.15.83,2.02,0,.49-.13.93-.4,1.32s-.62.69-1.06.91c.52.22.93.54,1.23.97.31.43.46.92.46,1.47Zm-1.27-.03c0-.56-.18-1.01-.53-1.36-.35-.35-.81-.53-1.38-.53s-1.04.18-1.38.53c-.34.35-.51.8-.51,1.36s.17,1.02.51,1.34c.34.32.8.48,1.39.48s1.05-.16,1.39-.48c.34-.32.51-.77.51-1.34Zm-.23-4.62c0-.5-.15-.91-.46-1.23s-.71-.48-1.21-.48-.9.15-1.2.46-.46.72-.46,1.25.15.93.46,1.24c.31.31.71.46,1.21.46s.9-.15,1.21-.46c.31-.31.46-.72.46-1.24Z"/><path class="x" d="m209.29,266.2v1.52c0,1.63-.28,2.77-.84,3.42-.56.65-1.33.97-2.29.97s-1.72-.32-2.29-.97c-.57-.65-.86-1.79-.86-3.42v-1.52c0-1.63.28-2.75.85-3.38.57-.63,1.33-.94,2.28-.94s1.73.31,2.3.94c.57.63.85,1.75.85,3.38Zm-1.27,1.72v-1.93c0-1.12-.16-1.91-.48-2.38s-.79-.7-1.4-.7-1.06.23-1.38.7-.48,1.26-.48,2.38v1.93c0,1.11.16,1.91.49,2.41s.79.74,1.39.74,1.09-.25,1.4-.74.47-1.29.47-2.41Z"/><path class="u" d="m168.31,96.7h-2.08v3.7h-1.72v-9.95h3.81c1.15,0,2.04.3,2.68.9s.95,1.35.95,2.27c0,.96-.32,1.72-.95,2.27s-1.52.82-2.68.82Zm-2.08-4.87v3.48h2.08c.67,0,1.15-.16,1.45-.47s.44-.72.44-1.22c0-.46-.15-.88-.44-1.24s-.78-.55-1.45-.55h-2.08Z"/><path class="u" d="m176.49,94.47c-.77,0-1.29.29-1.54.88v5.06h-1.65v-7.4h1.59l.04.83c.18-.3.41-.54.69-.71s.6-.26.98-.26c.22,0,.42.03.59.09v1.57c-.24-.04-.46-.05-.68-.05Z"/><path class="u" d="m182.73,100.4l-.04-.72c-.48.57-1.18.86-2.08.86-.72,0-1.31-.21-1.76-.64s-.68-1.13-.68-2.11v-4.78h1.66v4.79c0,.53.12.9.35,1.09s.51.29.82.29c.42,0,.77-.08,1.03-.23s.46-.36.59-.62v-5.32h1.66v7.4h-1.57Zm-2.99-9.72c0-.39.14-.73.43-1s.65-.42,1.08-.42.79.14,1.08.42.44.61.44,1-.15.72-.44.99-.65.4-1.08.4-.79-.13-1.08-.4-.43-.6-.43-.99Zm.75,0c0,.2.07.38.21.53s.33.23.55.23.41-.08.56-.23.22-.33.22-.53-.07-.39-.22-.55-.33-.23-.56-.23-.41.08-.55.23-.21.34-.21.55Z"/><path class="u" d="m189.07,94.22c-.36,0-.65.07-.88.22s-.41.35-.54.6v5.36h-1.65v-7.4h1.56l.05.77c.52-.61,1.24-.91,2.14-.91.45,0,.85.09,1.21.27s.63.47.82.86c.25-.34.56-.62.94-.82s.82-.31,1.34-.31c.76,0,1.35.21,1.78.64s.65,1.13.65,2.11v4.79h-1.66v-4.8c0-.55-.12-.91-.36-1.1s-.56-.28-.97-.28c-.38,0-.69.1-.93.31s-.4.47-.5.8v5.07h-1.66v-4.79c0-.52-.12-.88-.36-1.09s-.56-.31-.97-.31Z"/><path class="u" d="m204.28,99.14c-.24.35-.59.67-1.05.96s-1.06.44-1.8.44c-1.1,0-1.96-.34-2.59-1.03s-.94-1.53-.94-2.55v-.28c0-1.17.32-2.09.97-2.78s1.44-1.03,2.38-1.03c1.08,0,1.87.34,2.39,1.03s.78,1.56.78,2.62v.7h-4.83c.05.57.24,1.04.58,1.42s.8.56,1.38.56c.4,0,.75-.08,1.06-.24s.57-.39.79-.67l.9.85Zm-4.17-9.26l1,1.06,1-1.06h1.42v.08l-1.91,1.9h-1.03l-1.9-1.91v-.07h1.41Zm1.13,4.31c-.46,0-.82.16-1.1.48s-.46.76-.54,1.33h3.16v-.12c-.02-.43-.14-.82-.36-1.17s-.6-.52-1.16-.52Z"/><path class="u" d="m208.89,94.47c-.77,0-1.29.29-1.54.88v5.06h-1.65v-7.4h1.59l.04.83c.18-.3.41-.54.69-.71s.6-.26.98-.26c.22,0,.42.03.59.09v1.57c-.24-.04-.46-.05-.68-.05Z"/><path class="u" d="m213.74,94.22c-.66,0-1.16.3-1.49.9v5.28h-1.66v-7.4h1.57l.05.85c.54-.66,1.26-.98,2.14-.98.72,0,1.29.21,1.72.62s.64,1.12.64,2.13v4.79h-1.66v-4.8c0-.51-.11-.87-.33-1.07s-.55-.31-.97-.31Z"/><path class="u" d="m222.82,100.4c-.08-.17-.15-.4-.19-.7-.21.23-.48.42-.81.59s-.7.25-1.14.25c-.74,0-1.34-.21-1.81-.64s-.7-.95-.7-1.58c0-.79.29-1.39.88-1.81s1.42-.63,2.48-.63h1.05v-.49c0-.39-.11-.7-.32-.93s-.54-.35-.97-.35c-.4,0-.71.1-.95.29s-.35.44-.35.72h-1.65c0-.58.27-1.11.82-1.57s1.29-.7,2.23-.7c.83,0,1.51.21,2.05.64s.81,1.06.81,1.91v3.28c0,.67.09,1.2.28,1.59v.12h-1.7Zm-1.83-1.2c.38,0,.71-.09.99-.28s.47-.39.59-.61v-1.39h-.9c-1.24,0-1.86.41-1.86,1.24,0,.3.1.54.3.75s.49.3.88.3Zm-.42-7.24l1.33-2.06h1.89l-1.89,2.06h-1.33Z"/><path class="u" d="m232.9,100.37c-.13.05-.29.08-.46.12s-.39.05-.63.05c-.55,0-1.01-.16-1.37-.47s-.54-.85-.54-1.61v-4.23h-1.22v-1.22h1.22v-1.8h1.65v1.8h1.31v1.22h-1.31v4.14c0,.33.07.55.22.65s.33.15.56.15c.11,0,.22,0,.33-.02s.19-.03.25-.04v1.29Z"/><path class="u" d="m240.23,99.14c-.24.35-.59.67-1.05.96s-1.06.44-1.8.44c-1.1,0-1.96-.34-2.59-1.03s-.94-1.53-.94-2.55v-.28c0-1.17.32-2.09.97-2.78s1.44-1.03,2.38-1.03c1.08,0,1.87.34,2.39,1.03s.78,1.56.78,2.62v.7h-4.83c.05.57.24,1.04.58,1.42s.8.56,1.38.56c.4,0,.75-.08,1.06-.24s.57-.39.79-.67l.9.85Zm-3.04-4.94c-.46,0-.82.16-1.1.48s-.46.76-.54,1.33h3.16v-.12c-.02-.43-.14-.82-.36-1.17s-.6-.52-1.16-.52Z"/><path class="u" d="m245.24,100.54c-.81,0-1.46-.27-1.95-.8v3.51h-1.65v-10.24h1.52l.07.75c.5-.59,1.16-.88,2-.88.94,0,1.66.35,2.15,1.04s.74,1.6.74,2.73v.14c0,1.08-.25,1.97-.75,2.69s-1.21,1.07-2.13,1.07Zm-.48-6.32c-.36,0-.67.08-.91.23s-.43.36-.56.63v3.26c.14.26.32.47.56.63s.54.24.92.24c.59,0,1.02-.24,1.29-.72s.4-1.05.4-1.71v-.14c0-.67-.13-1.23-.4-1.71s-.7-.71-1.3-.71Z"/><path class="u" d="m251.29,89.9v10.5h-1.66v-10.5h1.66Z"/><path class="u" d="m252.8,96.78v-.14c0-1.07.3-1.97.91-2.69s1.45-1.08,2.52-1.08,1.93.36,2.54,1.08.91,1.62.91,2.69v.14c0,1.08-.3,1.97-.91,2.69s-1.45,1.07-2.53,1.07-1.93-.36-2.54-1.07-.91-1.61-.91-2.69Zm1.65-.14v.14c0,.67.14,1.24.43,1.71s.74.71,1.36.71,1.06-.24,1.34-.71.43-1.05.43-1.71v-.14c0-.65-.14-1.22-.43-1.71s-.74-.73-1.36-.73-1.07.24-1.35.73-.43,1.05-.43,1.71Z"/><path class="u" d="m264.51,100.37c-.13.05-.29.08-.46.12s-.39.05-.63.05c-.55,0-1.01-.16-1.37-.47s-.54-.85-.54-1.61v-4.23h-1.22v-1.22h1.22v-1.8h1.65v1.8h1.31v1.22h-1.31v4.14c0,.33.07.55.22.65s.33.15.56.15c.11,0,.22,0,.33-.02s.19-.03.25-.04v1.29Z"/><path class="u" d="m270.16,100.4c-.08-.17-.15-.4-.19-.7-.21.23-.48.42-.81.59s-.7.25-1.14.25c-.74,0-1.34-.21-1.81-.64s-.7-.95-.7-1.58c0-.79.29-1.39.88-1.81s1.42-.63,2.48-.63h1.05v-.49c0-.39-.11-.7-.32-.93s-.54-.35-.97-.35c-.4,0-.71.1-.95.29s-.35.44-.35.72h-1.65c0-.58.27-1.11.82-1.57s1.29-.7,2.23-.7c.83,0,1.51.21,2.05.64s.81,1.06.81,1.91v3.28c0,.67.09,1.2.28,1.59v.12h-1.7Zm-1.83-1.2c.38,0,.71-.09.99-.28s.47-.39.59-.61v-1.39h-.9c-1.24,0-1.86.41-1.86,1.24,0,.3.1.54.3.75s.49.3.88.3Z"/><path class="v" d="m279.99,93.93c-.41,0-.76.11-1.07.33s-.55.5-.73.85v5.28h-1.26v-7.4h1.2l.04.92c.56-.71,1.3-1.06,2.21-1.06.73,0,1.31.21,1.73.62s.64,1.1.64,2.07v4.85h-1.27v-4.86c0-.58-.13-.99-.38-1.24s-.62-.37-1.1-.37Z"/><path class="v" d="m289.21,100.4c-.08-.18-.14-.44-.18-.78-.24.25-.53.47-.89.65s-.76.27-1.22.27c-.76,0-1.36-.21-1.82-.64s-.68-.94-.68-1.56c0-.79.3-1.4.9-1.81s1.41-.62,2.43-.62h1.25v-.59c0-.44-.13-.79-.39-1.05s-.65-.39-1.17-.39c-.48,0-.86.12-1.16.35s-.44.51-.44.82h-1.26c0-.53.27-1.03.8-1.49s1.25-.7,2.14-.7c.8,0,1.46.21,1.98.62s.77,1.03.77,1.86v3.45c0,.25.02.51.06.79s.11.52.19.72v.11h-1.32Zm-2.1-.97c.46,0,.85-.11,1.19-.34s.57-.48.71-.76v-1.52h-1.05c-1.51,0-2.26.46-2.26,1.37,0,.35.12.65.36.89s.59.37,1.06.37Z"/><path class="v" d="m300.04,98.44c0-.27-.1-.52-.3-.73s-.67-.4-1.4-.54c-.82-.17-1.48-.42-1.95-.74s-.71-.78-.71-1.39.25-1.09.75-1.52,1.16-.64,1.99-.64c.88,0,1.57.23,2.07.68s.75,1,.75,1.63h-1.26c0-.31-.13-.59-.4-.86s-.65-.41-1.15-.41c-.52,0-.9.11-1.13.34s-.34.48-.34.75.11.49.33.66.68.33,1.37.48c.91.21,1.58.48,2.01.81s.65.8.65,1.39c0,.65-.26,1.18-.78,1.59s-1.21.61-2.07.61c-.98,0-1.73-.25-2.25-.75s-.78-1.06-.78-1.67h1.27c.03.52.23.89.6,1.08s.76.3,1.15.3c.52,0,.91-.1,1.18-.3s.41-.45.41-.76Z"/><path class="v" d="m304.33,89.9v10.5h-1.27v-10.5h1.27Z"/><path class="v" d="m310.95,100.4l-.03-.73c-.23.27-.52.49-.88.64s-.78.23-1.29.23c-.72,0-1.31-.21-1.76-.64s-.67-1.13-.67-2.12v-4.77h1.26v4.79c0,.67.14,1.11.42,1.34s.59.34.94.34c.52,0,.93-.1,1.24-.29s.54-.46.69-.78v-5.39h1.27v7.4h-1.21Z"/><path class="v" d="m317.15,93.93c-.41,0-.76.11-1.07.33s-.55.5-.73.85v5.28h-1.26v-7.4h1.2l.04.92c.56-.71,1.3-1.06,2.21-1.06.73,0,1.31.21,1.73.62s.64,1.1.64,2.07v4.85h-1.27v-4.86c0-.58-.13-.99-.38-1.24s-.62-.37-1.1-.37Z"/><path class="v" d="m321.48,96.78v-.16c0-1.07.3-1.97.9-2.68s1.42-1.08,2.45-1.08,1.87.36,2.47,1.08.91,1.61.91,2.68v.16c0,1.07-.3,1.96-.91,2.68s-1.42,1.07-2.46,1.07-1.86-.36-2.46-1.07-.91-1.61-.91-2.68Zm1.26-.16v.16c0,.73.17,1.37.52,1.91s.88.81,1.58.81,1.21-.27,1.57-.81.53-1.17.53-1.91v-.16c0-.72-.18-1.36-.53-1.9s-.88-.82-1.58-.82-1.22.27-1.57.82-.52,1.18-.52,1.9Z"/><path class="v" d="m335.26,93l-2.66,7.4h-.96l-2.68-7.4h1.3l1.88,5.67,1.83-5.67h1.29Z"/><path class="v" d="m339.43,94.08c-.43,0-.79.1-1.07.29s-.49.45-.62.78v5.25h-1.26v-7.4h1.23l.03.85c.19-.3.42-.54.71-.72s.64-.27,1.04-.27c.24,0,.42.03.56.1v1.18c-.19-.04-.4-.05-.62-.05Z"/><path class="v" d="m345.51,100.4c-.08-.18-.14-.44-.18-.78-.24.25-.53.47-.89.65s-.76.27-1.22.27c-.76,0-1.36-.21-1.82-.64s-.68-.94-.68-1.56c0-.79.3-1.4.9-1.81s1.41-.62,2.43-.62h1.25v-.59c0-.44-.13-.79-.39-1.05s-.65-.39-1.17-.39c-.48,0-.86.12-1.16.35s-.44.51-.44.82h-1.26c0-.53.27-1.03.8-1.49s1.25-.7,2.14-.7c.8,0,1.46.21,1.98.62s.77,1.03.77,1.86v3.45c0,.25.02.51.06.79s.11.52.19.72v.11h-1.32Zm-2.1-.97c.46,0,.85-.11,1.19-.34s.57-.48.71-.76v-1.52h-1.05c-1.51,0-2.26.46-2.26,1.37,0,.35.12.65.36.89s.59.37,1.06.37Z"/><path class="v" d="m351.69,100.4c-.1.03-.23.06-.39.09s-.36.04-.58.04c-.47,0-.87-.14-1.2-.43s-.5-.8-.5-1.54v-4.59h-1.35v-.97h1.35v-1.8h1.26v1.8h1.38v.97h-1.38v4.59c0,.38.08.62.25.72s.35.16.57.16c.1,0,.22-.01.33-.03s.2-.04.26-.05v1.03Z"/><path class="v" d="m199.9,107l-2.66,7.4h-.96l-2.68-7.4h1.3l1.88,5.67,1.83-5.67h1.29Z"/><path class="v" d="m204.26,110.78v-.16c0-1.07.3-1.97.9-2.68s1.42-1.08,2.45-1.08,1.87.36,2.47,1.08.91,1.61.91,2.68v.16c0,1.07-.3,1.96-.91,2.68s-1.42,1.07-2.46,1.07-1.86-.36-2.46-1.07-.91-1.61-.91-2.68Zm1.26-.16v.16c0,.73.17,1.37.52,1.91s.88.81,1.58.81,1.21-.27,1.57-.81.53-1.17.53-1.91v-.16c0-.72-.18-1.36-.53-1.9s-.88-.82-1.58-.82-1.22.27-1.57.82-.52,1.18-.52,1.9Z"/><path class="v" d="m218.84,110.78c0,1.08-.25,1.98-.75,2.69s-1.21,1.07-2.13,1.07-1.65-.33-2.16-.99l-.07.85h-1.16v-10.5h1.27v3.9c.5-.62,1.2-.94,2.11-.94s1.64.35,2.14,1.04.75,1.6.75,2.73v.14Zm-3.21-2.85c-.46,0-.83.11-1.12.33s-.51.49-.67.82v3.22c.16.33.39.6.68.83s.67.33,1.12.33c.68,0,1.17-.26,1.47-.79s.45-1.16.45-1.89v-.14c0-.73-.14-1.37-.43-1.9s-.79-.8-1.51-.8Z"/><path class="v" d="m225.21,114.4l-.06-.79c-.51.62-1.21.93-2.11.93s-1.57-.36-2.11-1.07-.8-1.61-.8-2.69v-.14c0-1.13.27-2.04.8-2.73s1.24-1.04,2.12-1.04,1.55.29,2.05.88v-3.84h1.27v10.5h-1.16Zm-3.81-3.62c0,.73.15,1.36.46,1.89s.81.79,1.49.79c.44,0,.8-.1,1.08-.3s.5-.46.67-.77v-3.4c-.16-.31-.39-.56-.67-.76s-.64-.3-1.07-.3c-.69,0-1.19.27-1.5.8s-.47,1.17-.47,1.9v.14Z"/><path class="v" d="m228,110.78v-.16c0-1.07.3-1.97.9-2.68s1.42-1.08,2.45-1.08,1.87.36,2.47,1.08.91,1.61.91,2.68v.16c0,1.07-.3,1.96-.91,2.68s-1.42,1.07-2.46,1.07-1.86-.36-2.46-1.07-.91-1.61-.91-2.68Zm1.26-.16v.16c0,.73.17,1.37.52,1.91s.88.81,1.58.81,1.21-.27,1.57-.81.53-1.17.53-1.91v-.16c0-.72-.18-1.36-.53-1.9s-.88-.82-1.58-.82-1.22.27-1.57.82-.52,1.18-.52,1.9Z"/><path class="v" d="m242.58,110.78c0,1.08-.25,1.98-.75,2.69s-1.21,1.07-2.13,1.07-1.65-.33-2.16-.99l-.07.85h-1.16v-10.5h1.27v3.9c.5-.62,1.2-.94,2.11-.94s1.64.35,2.14,1.04.75,1.6.75,2.73v.14Zm-3.21-2.85c-.46,0-.83.11-1.12.33s-.51.49-.67.82v3.22c.16.33.39.6.68.83s.67.33,1.12.33c.68,0,1.17-.26,1.47-.79s.45-1.16.45-1.89v-.14c0-.73-.14-1.37-.43-1.9s-.79-.8-1.51-.8Z"/><path class="v" d="m244.24,105.92l1.33-2.01h1.52l-1.83,2.01h-1.02Zm1.31,1.08v7.4h-1.26v-7.4h1.26Z"/><path class="v" d="m255.14,104.39v10.01h-1.26v-8.43l-2.55.93v-1.14l3.62-1.37h.2Z"/><path class="v" d="m264.97,108.8c0,.65-.06,1.3-.17,1.96s-.33,1.26-.65,1.82-.8,1-1.43,1.34-1.46.51-2.49.51h-.13v-1.07h.13c.92,0,1.62-.16,2.11-.47s.83-.73,1.03-1.23.3-1.05.32-1.62c-.26.31-.58.57-.95.77s-.77.29-1.2.29c-.66,0-1.19-.16-1.61-.49s-.73-.75-.93-1.25-.3-1.03-.3-1.58c0-.95.26-1.76.78-2.43s1.29-1.01,2.31-1.01c.76,0,1.37.2,1.84.59s.81.9,1.02,1.51.32,1.26.32,1.93v.46Zm-5.02-1.11c0,.59.15,1.13.45,1.61s.75.72,1.36.72c.43,0,.83-.13,1.18-.39s.61-.58.78-.96v-.5c0-.91-.19-1.6-.58-2.08s-.83-.72-1.34-.72c-.59,0-1.04.22-1.36.67s-.48,1-.48,1.66Z"/><path class="v" d="m273.09,111.15c0,.94-.26,1.74-.79,2.4s-1.29.98-2.3.98c-.72,0-1.31-.19-1.78-.57s-.83-.86-1.06-1.45-.35-1.19-.35-1.8v-.59c0-.93.13-1.84.39-2.71s.74-1.58,1.43-2.14,1.67-.84,2.95-.84h.11v1.07h-.11c-.81,0-1.46.15-1.95.46s-.86.71-1.1,1.21-.38,1.02-.43,1.59c.27-.31.59-.54.96-.68s.76-.22,1.18-.22c.66,0,1.2.16,1.62.48s.73.73.93,1.23.3,1.03.3,1.57Zm-5.02-.4c0,.88.2,1.56.59,2.03s.84.7,1.34.7c.58,0,1.04-.21,1.36-.64s.48-.97.48-1.64c0-.59-.15-1.12-.44-1.59s-.75-.7-1.37-.7c-.44,0-.84.13-1.2.4s-.61.59-.75.96v.48Z"/><path class="v" d="m278.74,104.39v10.01h-1.26v-8.43l-2.55.93v-1.14l3.62-1.37h.2Z"/><path class="v" d="m289.57,108.91v1.04h-6.85v-1.04h6.85Z"/><path class="v" d="m295.8,104.39v10.01h-1.26v-8.43l-2.55.93v-1.14l3.62-1.37h.2Z"/><path class="v" d="m305.63,108.8c0,.65-.06,1.3-.17,1.96s-.33,1.26-.65,1.82-.8,1-1.43,1.34-1.46.51-2.49.51h-.13v-1.07h.13c.92,0,1.62-.16,2.11-.47s.83-.73,1.03-1.23.3-1.05.32-1.62c-.26.31-.58.57-.95.77s-.77.29-1.2.29c-.66,0-1.19-.16-1.61-.49s-.73-.75-.93-1.25-.3-1.03-.3-1.58c0-.95.26-1.76.78-2.43s1.29-1.01,2.31-1.01c.76,0,1.37.2,1.84.59s.81.9,1.02,1.51.32,1.26.32,1.93v.46Zm-5.02-1.11c0,.59.15,1.13.45,1.61s.75.72,1.36.72c.43,0,.83-.13,1.18-.39s.61-.58.78-.96v-.5c0-.91-.19-1.6-.58-2.08s-.83-.72-1.34-.72c-.59,0-1.04.22-1.36.67s-.48,1-.48,1.66Z"/><path class="v" d="m313.65,111.71c0,.91-.3,1.61-.91,2.1s-1.36.73-2.25.73-1.64-.24-2.25-.73-.91-1.19-.91-2.1c0-.56.15-1.05.45-1.47s.7-.75,1.21-.97c-.44-.21-.79-.52-1.05-.91s-.39-.83-.39-1.32c0-.87.28-1.54.83-2.02s1.25-.71,2.1-.71,1.56.24,2.11.71.83,1.15.83,2.02c0,.49-.13.93-.4,1.32s-.62.69-1.06.91c.52.22.93.54,1.23.97s.46.92.46,1.47Zm-1.27-.03c0-.56-.18-1.01-.53-1.36s-.81-.53-1.38-.53-1.04.18-1.38.53-.51.8-.51,1.36.17,1.02.51,1.34.8.48,1.39.48,1.05-.16,1.39-.48.51-.77.51-1.34Zm-.23-4.62c0-.5-.15-.91-.46-1.23s-.71-.48-1.21-.48-.9.15-1.2.46-.46.72-.46,1.25.15.93.46,1.24.71.46,1.21.46.9-.15,1.21-.46.46-.72.46-1.24Z"/><path class="v" d="m321.49,108.63v1.52c0,1.63-.28,2.77-.84,3.42s-1.33.97-2.29.97-1.72-.32-2.29-.97-.86-1.79-.86-3.42v-1.52c0-1.63.28-2.75.85-3.38s1.33-.94,2.28-.94,1.73.31,2.3.94.85,1.75.85,3.38Zm-1.27,1.72v-1.93c0-1.12-.16-1.91-.48-2.38s-.79-.7-1.4-.7-1.06.23-1.38.7-.48,1.26-.48,2.38v1.93c0,1.11.16,1.91.49,2.41s.79.74,1.39.74,1.09-.25,1.4-.74.47-1.29.47-2.41Z"/><path class="u" d="m576.76,124.19h-.9v-1.33h.9c.43,0,.74-.11.95-.32s.31-.5.31-.86c0-.32-.09-.58-.28-.78s-.48-.31-.87-.31c-.31,0-.58.09-.81.26s-.34.41-.34.71h-1.69c0-.7.27-1.27.81-1.69s1.2-.64,1.98-.64c.86,0,1.56.21,2.09.62s.8,1.02.8,1.81c0,.37-.11.72-.34,1.05s-.55.6-.96.79c.48.17.83.42,1.07.77s.36.75.36,1.22c0,.8-.29,1.42-.86,1.86s-1.3.66-2.16.66c-.48,0-.94-.09-1.39-.26s-.81-.44-1.09-.81-.42-.82-.42-1.39h1.7c0,.32.12.58.35.78s.53.31.89.31c.4,0,.72-.11.94-.32s.34-.5.34-.85c0-.45-.12-.78-.38-.98s-.59-.3-1.02-.3Z"/><path class="u" d="m586.86,126.51v1.37h-5.84v-1.16l2.76-2.94c.42-.46.71-.84.87-1.14s.24-.57.24-.82c0-.38-.09-.68-.28-.9s-.46-.33-.82-.33c-.4,0-.71.14-.92.41s-.32.62-.32,1.03h-1.69c0-.77.26-1.43.79-1.98s1.25-.83,2.17-.83,1.58.22,2.06.65.71,1.02.71,1.77c0,.57-.17,1.11-.52,1.63s-.8,1.07-1.37,1.66l-1.51,1.59h3.67Z"/><path class="u" d="m589.56,126.44v1.15c0,.44-.11.88-.33,1.33s-.49.81-.83,1.1l-.88-.46c.14-.27.28-.54.41-.83s.2-.64.2-1.06v-1.24h1.43Z"/><path class="u" d="m594.94,119.33v8.54h-1.69v-6.53l-2.02.63v-1.37l3.53-1.27h.18Z"/><path class="u" d="m600.87,120.85c0-.44.16-.82.47-1.14s.69-.48,1.12-.48.8.16,1.1.48.46.7.46,1.14-.15.82-.46,1.12-.67.46-1.1.46-.81-.15-1.12-.46-.47-.68-.47-1.12Zm.86,0c0,.21.07.38.22.52s.32.21.52.21.37-.07.5-.21.21-.31.21-.52-.07-.39-.21-.54-.3-.21-.5-.21-.37.07-.52.21-.22.32-.22.54Z"/><path class="u" d="m610.49,125.04h1.76c-.06.87-.38,1.58-.98,2.13s-1.41.83-2.46.83-1.96-.37-2.58-1.1-.94-1.74-.94-3v-.56c0-1.26.32-2.26.97-3s1.5-1.11,2.58-1.11,1.88.28,2.45.85.89,1.29.97,2.17h-1.76c-.04-.51-.18-.9-.42-1.17s-.66-.41-1.24-.41c-1.17,0-1.76.89-1.76,2.66v.57c0,.88.13,1.55.4,1.99s.71.67,1.34.67c.55,0,.96-.13,1.22-.38s.41-.63.45-1.14Z"/><path class="u" d="m579.14,134.54l-2.28,6.34h-.83l-2.3-6.34h1.11l1.61,4.86,1.57-4.86h1.11Z"/><path class="u" d="m585.69,135.46c-.37,0-.68.08-.91.25s-.42.39-.53.67v4.5h-1.08v-6.34h1.05l.02.73c.16-.26.36-.46.61-.62s.55-.23.89-.23c.2,0,.36.03.48.08v1.01c-.17-.03-.34-.05-.53-.05Z"/><path class="u" d="m586.82,137.78v-.13c0-.92.26-1.68.77-2.3s1.22-.92,2.1-.92,1.6.31,2.12.92.78,1.38.78,2.3v.13c0,.92-.26,1.68-.78,2.3s-1.22.92-2.11.92-1.59-.31-2.11-.92-.78-1.38-.78-2.3Zm1.08-.13v.13c0,.63.15,1.17.45,1.63s.75.69,1.36.69,1.04-.23,1.34-.69.45-1.01.45-1.63v-.13c0-.62-.15-1.17-.45-1.63s-.75-.7-1.35-.7-1.05.23-1.34.7-.45,1.01-.45,1.63Z"/><path class="u" d="m596.49,140.1c.39,0,.73-.12,1.02-.35s.45-.53.48-.88h1.03c-.03.57-.29,1.06-.78,1.49s-1.07.64-1.75.64c-.95,0-1.66-.31-2.12-.94s-.69-1.37-.69-2.22v-.25c0-.85.23-1.59.69-2.22s1.17-.94,2.12-.94c.74,0,1.34.22,1.8.66s.7.99.73,1.64h-1.03c-.03-.39-.17-.72-.44-1s-.62-.41-1.05-.41-.79.11-1.05.34-.43.51-.53.86-.16.71-.16,1.07v.25c0,.37.05.73.15,1.08s.28.63.53.86.6.34,1.05.34Z"/><path class="u" d="m605.25,139.77c-.21.31-.5.59-.88.85s-.88.38-1.51.38c-.88,0-1.59-.29-2.12-.86s-.79-1.31-.79-2.2v-.25c0-.69.13-1.28.4-1.77s.61-.86,1.03-1.11.87-.38,1.35-.38c.91,0,1.57.3,1.98.89s.62,1.33.62,2.22v.49h-4.29c.02.58.19,1.08.52,1.49s.78.61,1.36.61c.38,0,.71-.08.97-.23s.5-.37.7-.63l.66.52Zm-2.53-4.46c-.43,0-.79.16-1.09.47s-.48.76-.56,1.35h3.17v-.08c-.03-.42-.15-.82-.37-1.18s-.6-.55-1.16-.55Z"/><path class="u" d="m615.05,139.99v.89h-5.58v-.78l2.79-3.11c.52-.57.86-1.03,1.04-1.36s.27-.66.27-.99c0-.42-.13-.78-.39-1.07s-.63-.45-1.1-.45c-.57,0-1,.16-1.28.49s-.42.74-.42,1.25h-1.08c0-.72.24-1.34.71-1.85s1.16-.77,2.07-.77c.8,0,1.43.21,1.89.63s.68.97.68,1.65c0,.5-.16,1.01-.47,1.52s-.69,1-1.13,1.48l-2.29,2.48h4.28Z"/><path class="u" d="m621.56,135.93v1.3c0,1.4-.24,2.38-.72,2.93s-1.14.83-1.97.83-1.47-.28-1.96-.83-.74-1.53-.74-2.93v-1.3c0-1.39.24-2.36.73-2.9s1.14-.81,1.96-.81,1.49.27,1.97.81.73,1.5.73,2.9Zm-1.09,1.48v-1.66c0-.96-.14-1.64-.41-2.04s-.67-.6-1.2-.6-.91.2-1.19.6-.41,1.08-.41,2.04v1.66c0,.95.14,1.64.42,2.06s.68.63,1.19.63.93-.21,1.2-.63.4-1.11.4-2.06Z"/><path class="u" d="m628.53,139.99v.89h-5.58v-.78l2.79-3.11c.52-.57.86-1.03,1.04-1.36s.27-.66.27-.99c0-.42-.13-.78-.39-1.07s-.63-.45-1.1-.45c-.57,0-1,.16-1.28.49s-.42.74-.42,1.25h-1.08c0-.72.24-1.34.71-1.85s1.16-.77,2.07-.77c.8,0,1.43.21,1.89.63s.68.97.68,1.65c0,.5-.16,1.01-.47,1.52s-.69,1-1.13,1.48l-2.29,2.48h4.28Z"/><path class="u" d="m633.25,132.3v8.58h-1.08v-7.22l-2.19.8v-.98l3.1-1.17h.17Z"/><path class="j" d="m570.28,138.92c-8.9,3.06-11.99,12-11.99,20.76"/><path class="s" d="m441.58,39.5c-.34,0-.62.08-.84.23-.22.15-.38.35-.49.61v4.12h-.99v-5.81h.97l.02.67c.15-.24.33-.42.56-.56s.5-.21.82-.21c.19,0,.33.02.44.08v.92c-.15-.03-.31-.04-.49-.04Z"/><path class="s" d="m447.48,43.45c-.19.29-.46.55-.81.78-.35.23-.81.35-1.38.35-.81,0-1.46-.26-1.94-.79s-.73-1.2-.73-2.02v-.23c0-.63.12-1.17.36-1.62.24-.45.56-.79.94-1.02.39-.23.8-.35,1.24-.35.83,0,1.44.27,1.82.81.38.54.57,1.22.57,2.03v.45h-3.93c.01.53.17.99.47,1.36.3.37.72.56,1.25.56.35,0,.65-.07.89-.21.24-.14.46-.33.64-.57l.6.48Zm-2.32-4.09c-.39,0-.73.14-1,.43-.27.29-.44.7-.51,1.24h2.91v-.08c-.02-.39-.14-.75-.34-1.08-.2-.34-.55-.5-1.06-.5Z"/><path class="s" d="m451.43,39.42h-1.24v5.05h-.99v-5.05h-.92v-.76h.92v-.61c0-.63.17-1.11.51-1.44.34-.33.8-.5,1.4-.5.22,0,.45.03.69.09l-.05.81c-.15-.03-.33-.05-.54-.05-.67,0-1.01.36-1.01,1.09v.61h1.24v.76Z"/><path class="s" d="m457.01,43.45c-.19.29-.46.55-.81.78-.35.23-.81.35-1.38.35-.81,0-1.46-.26-1.94-.79s-.73-1.2-.73-2.02v-.23c0-.63.12-1.17.36-1.62.24-.45.56-.79.94-1.02.39-.23.8-.35,1.24-.35.83,0,1.44.27,1.82.81.38.54.57,1.22.57,2.03v.45h-3.93c.01.53.17.99.47,1.36.3.37.72.56,1.25.56.35,0,.65-.07.89-.21.24-.14.46-.33.64-.57l.6.48Zm-2.32-4.09c-.39,0-.73.14-1,.43-.27.29-.44.7-.51,1.24h2.91v-.08c-.02-.39-.14-.75-.34-1.08-.2-.34-.55-.5-1.06-.5Z"/><path class="s" d="m460.56,39.5c-.34,0-.62.08-.84.23-.22.15-.38.35-.49.61v4.12h-.99v-5.81h.97l.02.67c.15-.24.33-.42.56-.56.23-.14.5-.21.82-.21.19,0,.33.02.44.08v.92c-.15-.03-.31-.04-.49-.04Z"/><path class="s" d="m466.47,43.45c-.19.29-.46.55-.81.78-.35.23-.81.35-1.38.35-.81,0-1.46-.26-1.94-.79-.49-.53-.73-1.2-.73-2.02v-.23c0-.63.12-1.17.36-1.62.24-.45.56-.79.94-1.02.39-.23.8-.35,1.24-.35.83,0,1.44.27,1.82.81.38.54.57,1.22.57,2.03v.45h-3.93c.01.53.17.99.48,1.36.3.37.72.56,1.25.56.35,0,.65-.07.89-.21.24-.14.46-.33.64-.57l.6.48Zm-2.31-4.09c-.39,0-.73.14-1,.43-.27.29-.44.7-.51,1.24h2.91v-.08c-.03-.39-.14-.75-.34-1.08-.2-.34-.55-.5-1.06-.5Z"/><path class="s" d="m470.11,39.39c-.32,0-.6.09-.84.26-.24.17-.43.4-.57.67v4.15h-.99v-5.81h.94l.03.73c.44-.56,1.02-.83,1.73-.83.57,0,1.03.16,1.36.48.33.32.5.86.5,1.63v3.81h-1v-3.82c0-.45-.1-.78-.3-.97-.2-.19-.49-.29-.86-.29Z"/><path class="s" d="m476.1,43.76c.35,0,.67-.11.93-.32.27-.21.41-.48.44-.81h.95c-.03.52-.26.97-.71,1.36-.45.39-.98.58-1.6.58-.87,0-1.52-.29-1.95-.86-.42-.58-.64-1.25-.64-2.04v-.23c0-.78.21-1.46.64-2.04.42-.58,1.07-.86,1.95-.86.68,0,1.23.2,1.65.6.42.4.64.9.67,1.5h-.95c-.03-.36-.16-.66-.41-.91-.25-.25-.57-.38-.96-.38s-.73.1-.96.31c-.23.21-.39.47-.49.79s-.14.65-.14.98v.23c0,.34.05.67.14.99.09.32.25.58.49.79.23.21.55.31.96.31Zm-1.04-7.54l.81.91.81-.91h.86v.05l-1.36,1.47h-.61l-1.34-1.47v-.05h.84Z"/><path class="s" d="m481.95,39.39c-.32,0-.6.09-.84.26-.24.17-.44.4-.58.67v4.15h-.99v-5.81h.94l.03.73c.44-.56,1.02-.83,1.74-.83.57,0,1.03.16,1.36.48s.5.86.5,1.63v3.81h-1v-3.82c0-.45-.1-.78-.3-.97-.2-.19-.49-.29-.86-.29Z"/><path class="s" d="m485.66,37.81l1.04-1.58h1.2l-1.44,1.58h-.8Zm1.03.85v5.81h-.99v-5.81h.99Z"/><path class="s" d="m490.8,41.63v-.12c0-.84.24-1.54.71-2.11.47-.56,1.12-.85,1.93-.85s1.47.28,1.94.85c.47.56.71,1.27.71,2.11v.12c0,.84-.24,1.54-.71,2.11s-1.12.84-1.93.84-1.46-.28-1.94-.84-.71-1.26-.71-2.11Zm.99-.12v.12c0,.58.14,1.08.41,1.5.27.42.69.63,1.24.63s.95-.21,1.23-.63c.28-.42.41-.92.41-1.5v-.12c0-.57-.14-1.07-.41-1.5-.28-.43-.69-.64-1.24-.64s-.96.21-1.23.64c-.27.43-.41.93-.41,1.5Z"/><path class="s" d="m502.25,41.63c0,.85-.2,1.55-.59,2.11-.39.56-.95.84-1.67.84s-1.3-.26-1.7-.78l-.05.67h-.91v-8.25h1v3.07c.39-.49.95-.74,1.65-.74s1.29.27,1.68.82c.39.54.59,1.26.59,2.15v.11Zm-2.52-2.24c-.36,0-.66.09-.88.26-.23.17-.4.39-.53.64v2.53c.13.26.31.47.54.65.23.18.52.26.88.26.54,0,.92-.21,1.16-.62.24-.41.35-.91.35-1.48v-.11c0-.58-.11-1.08-.34-1.5-.22-.42-.62-.63-1.18-.63Z"/><path class="s" d="m507.26,44.47l-.05-.62c-.4.49-.95.73-1.66.73s-1.24-.28-1.66-.84-.63-1.26-.63-2.11v-.11c0-.89.21-1.6.63-2.15s.98-.82,1.67-.82,1.22.23,1.61.69v-3.02h1v8.25h-.91Zm-3-2.84c0,.58.12,1.07.37,1.48.24.41.63.62,1.17.62.35,0,.63-.08.85-.24.22-.16.39-.36.53-.61v-2.67c-.13-.24-.3-.44-.52-.59-.22-.16-.5-.23-.84-.23-.54,0-.93.21-1.18.63-.25.42-.37.92-.37,1.5v.11Z"/><path class="s" d="m509.45,41.63v-.12c0-.84.24-1.54.71-2.11.47-.56,1.12-.85,1.93-.85s1.47.28,1.94.85c.47.56.71,1.27.71,2.11v.12c0,.84-.24,1.54-.71,2.11-.47.56-1.12.84-1.93.84s-1.46-.28-1.94-.84c-.47-.56-.71-1.26-.71-2.11Zm.99-.12v.12c0,.58.14,1.08.41,1.5.27.42.69.63,1.24.63s.95-.21,1.23-.63c.28-.42.41-.92.41-1.5v-.12c0-.57-.14-1.07-.41-1.5-.28-.43-.69-.64-1.24-.64s-.96.21-1.23.64c-.27.43-.41.93-.41,1.5Z"/><path class="s" d="m520.91,41.63c0,.85-.2,1.55-.59,2.11-.39.56-.95.84-1.67.84s-1.3-.26-1.7-.78l-.05.67h-.91v-8.25h1v3.07c.39-.49.95-.74,1.65-.74s1.29.27,1.68.82c.39.54.59,1.26.59,2.15v.11Zm-2.52-2.24c-.36,0-.66.09-.88.26-.23.17-.4.39-.53.64v2.53c.13.26.31.47.54.65.23.18.52.26.88.26.54,0,.92-.21,1.16-.62.23-.41.35-.91.35-1.48v-.11c0-.58-.11-1.08-.33-1.5-.22-.42-.62-.63-1.18-.63Z"/><path class="s" d="m522.21,37.81l1.04-1.58h1.2l-1.44,1.58h-.8Zm1.03.85v5.81h-.99v-5.81h.99Z"/><path class="s" d="m530.98,36.62v7.85h-1.3v-6.28l-1.92.66v-1.1l3.06-1.12h.17Z"/><path class="s" d="m538.71,40.14c0,.75-.11,1.46-.34,2.12-.22.66-.62,1.2-1.17,1.62-.56.41-1.34.62-2.35.62h-.11v-1.08h.1c.93,0,1.58-.21,1.95-.64.36-.43.57-.96.61-1.59-.2.21-.43.38-.69.5-.26.13-.54.19-.85.19-.76,0-1.32-.26-1.7-.79-.37-.53-.56-1.14-.56-1.82,0-.75.22-1.39.66-1.93s1.06-.8,1.86-.8c.86,0,1.5.31,1.93.94.43.63.64,1.37.64,2.24v.42Zm-3.81-.91c0,.43.1.8.3,1.14.2.33.51.5.93.5.28,0,.54-.08.77-.24.23-.16.4-.36.51-.6v-.51c0-.63-.13-1.1-.38-1.43-.26-.32-.55-.49-.89-.49-.39,0-.69.16-.91.48-.21.32-.32.71-.32,1.16Z"/><path class="s" d="m545.16,41.91c0,.75-.22,1.38-.66,1.9-.44.52-1.07.77-1.87.77-.57,0-1.04-.14-1.43-.43-.39-.29-.69-.66-.89-1.13-.2-.47-.3-.97-.3-1.51v-.51c0-.77.13-1.49.38-2.16.25-.67.66-1.2,1.22-1.61.57-.41,1.32-.61,2.26-.61h.15v1.07h-.09c-.85,0-1.47.22-1.88.66-.4.44-.64.97-.71,1.6.41-.43.94-.65,1.6-.65.76,0,1.33.27,1.69.8.36.53.54,1.14.54,1.82Zm-3.86-.28c0,.63.13,1.1.39,1.42.26.32.56.48.92.48.39,0,.7-.15.93-.45s.34-.68.34-1.14c0-.43-.11-.81-.32-1.13-.21-.32-.53-.48-.94-.48-.3,0-.57.09-.81.26s-.4.38-.5.62v.4Z"/><path class="s" d="m549.74,36.62v7.85h-1.3v-6.28l-1.92.66v-1.1l3.06-1.12h.17Z"/><path class="s" d="m558.17,40.07v1.05h-5.46v-1.05h5.46Z"/><path class="s" d="m563.09,36.62v7.85h-1.31v-6.28l-1.92.66v-1.1l3.06-1.12h.17Z"/><path class="s" d="m570.82,40.14c0,.75-.11,1.46-.33,2.12-.22.66-.62,1.2-1.17,1.62-.56.41-1.34.62-2.35.62h-.11v-1.08h.1c.93,0,1.58-.21,1.95-.64s.57-.96.61-1.59c-.2.21-.43.38-.69.5-.26.13-.54.19-.85.19-.76,0-1.32-.26-1.69-.79-.37-.53-.56-1.14-.56-1.82,0-.75.22-1.39.66-1.93s1.06-.8,1.86-.8c.86,0,1.5.31,1.93.94.43.63.64,1.37.64,2.24v.42Zm-3.81-.91c0,.43.1.8.3,1.14.2.33.51.5.93.5.28,0,.54-.08.77-.24.23-.16.4-.36.51-.6v-.51c0-.63-.13-1.1-.38-1.43-.26-.32-.55-.49-.89-.49-.39,0-.69.16-.91.48-.21.32-.32.71-.32,1.16Z"/><path class="s" d="m577.15,42.33c0,.73-.24,1.28-.73,1.67-.49.38-1.1.57-1.82.57s-1.34-.19-1.83-.58c-.49-.39-.74-.94-.74-1.66,0-.43.11-.81.34-1.14s.53-.58.92-.76c-.34-.17-.6-.41-.8-.71-.2-.3-.29-.64-.29-1.02,0-.69.22-1.22.67-1.6s1.02-.56,1.72-.56,1.27.19,1.72.56c.45.38.67.91.67,1.6,0,.38-.1.72-.3,1.02-.2.3-.46.54-.8.71.39.18.69.43.92.76.23.33.34.71.34,1.14Zm-1.31-.07c0-.39-.12-.7-.35-.94-.23-.24-.54-.36-.92-.36s-.69.12-.91.36c-.23.24-.34.55-.34.94s.11.7.34.93c.23.22.53.34.92.34s.7-.11.92-.34c.22-.22.33-.53.33-.93Zm-.17-3.51c0-.34-.1-.62-.29-.84-.2-.22-.46-.32-.79-.32s-.59.1-.79.31c-.2.21-.3.49-.3.85s.1.63.29.85.46.32.8.32.6-.11.79-.32.29-.5.29-.85Z"/><path class="s" d="m583.4,39.91v1.26c0,1.24-.23,2.12-.7,2.63-.46.52-1.08.77-1.86.77s-1.39-.26-1.86-.77-.71-1.39-.71-2.63v-1.26c0-1.24.23-2.11.7-2.62.47-.5,1.09-.75,1.85-.75s1.39.25,1.86.75c.47.5.7,1.37.7,2.62Zm-1.3,1.45v-1.65c0-.79-.11-1.34-.33-1.65-.22-.31-.53-.47-.93-.47s-.71.16-.92.47c-.22.31-.33.86-.33,1.65v1.65c0,.79.11,1.35.33,1.68.22.33.53.49.93.49s.71-.16.93-.49c.21-.33.32-.89.32-1.68Z"/><rect class="h" x="421.39" y="35.91" width="11.9" height="11.65" rx="2" ry="2"/><line class="h" x1="421.39" y1="38.97" x2="433.29" y2="38.97"/><line class="h" x1="424.11" y1="34.65" x2="424.11" y2="36.64"/><line class="h" x1="427.34" y1="34.65" x2="427.34" y2="36.64"/><line class="h" x1="430.57" y1="34.65" x2="430.57" y2="36.64"/><rect class="h" x="423.71" y="41.22" width=".81" height=".81"/><rect class="h" x="423.71" y="44.47" width=".81" height=".81"/><rect class="h" x="426.93" y="41.21" width=".82" height=".82"/><circle class="m" cx="431.08" cy="45.37" r="3.74"/><polyline class="n" points="429.32 45.72 430.51 46.9 432.85 44.56"/></g></svg>