<?xml version="1.0" encoding="UTF-8"?>
<svg xmlns="http://www.w3.org/2000/svg" viewBox="0 0 660 290">
  <defs>
    <style>
      .cls-1, .cls-2, .cls-3, .cls-4, .cls-5 {
        fill: none;
      }

      .cls-1, .cls-2, .cls-3, .cls-4, .cls-5, .cls-6, .cls-7 {
        stroke-linecap: round;
      }

      .cls-1, .cls-3, .cls-6, .cls-7 {
        stroke: #666c80;
      }

      .cls-1, .cls-4, .cls-8, .cls-6, .cls-7 {
        stroke-width: .75px;
      }

      .cls-1, .cls-6, .cls-7 {
        stroke-linejoin: round;
      }

      .cls-2 {
        stroke: #4c5c68;
        stroke-dasharray: 0 0 4 6;
        stroke-width: 1.25px;
      }

      .cls-2, .cls-3, .cls-9, .cls-10, .cls-11, .cls-12, .cls-13, .cls-14, .cls-15, .cls-4, .cls-5, .cls-8 {
        stroke-miterlimit: 10;
      }

      .cls-16 {
        opacity: .1;
      }

      .cls-17 {
        fill: #f7cfc9;
      }

      .cls-18 {
        fill: #e9ebf4;
      }

      .cls-19 {
        fill: #ee9f92;
      }

      .cls-20 {
        fill: #ee725f;
      }

      .cls-21 {
        fill: #fceae9;
      }

      .cls-22, .cls-12 {
        fill: #e6625c;
      }

      .cls-23, .cls-10 {
        fill: #666c80;
      }

      .cls-24 {
        fill: #cacde3;
      }

      .cls-25 {
        fill: #3e4d59;
      }

      .cls-26 {
        fill: #959cc7;
      }

      .cls-27 {
        fill: #5b6872;
      }

      .cls-28 {
        fill: #4c5c68;
      }

      .cls-29 {
        fill: #606bac;
      }

      .cls-9 {
        fill: #f5c5bd;
      }

      .cls-9, .cls-10, .cls-11, .cls-12, .cls-13, .cls-14, .cls-15 {
        stroke: #fff;
        stroke-width: .25px;
      }

      .cls-11 {
        fill: #8f96c4;
      }

      .cls-13 {
        fill: #fae0df;
      }

      .cls-14 {
        fill: #bfc3dd;
      }

      .cls-15 {
        fill: #dfe1ee;
      }

      .cls-4 {
        stroke-dasharray: 0 0 1 3;
      }

      .cls-4, .cls-5, .cls-8 {
        stroke: #606060;
      }

      .cls-5 {
        opacity: .5;
        stroke-width: .5px;
      }

      .cls-8 {
        fill: #ee998c;
      }

      .cls-6 {
        fill: #fff;
      }

      .cls-7 {
        fill: #eff0f2;
      }
    </style>
  </defs>
  <g id="Isolation_Mode-3" data-name="Isolation Mode">
    <g>
      <rect class="cls-17" x="487.82" y="208.14" width="7" height="91.79" transform="translate(745.36 -237.28) rotate(90)"/>
      <rect class="cls-19" x="561.25" y="226.5" width="7" height="55.07" transform="translate(818.79 -310.72) rotate(90)"/>
      <rect class="cls-22" x="622.64" y="220.18" width="7" height="67.71" transform="translate(880.18 -372.11) rotate(90)"/>
      <rect class="cls-21" x="368.5" y="180.61" width="7" height="146.86" transform="translate(626.03 -117.96) rotate(90)"/>
      <rect class="cls-24" x="102.31" y="208.14" width="7" height="91.79" transform="translate(359.84 148.23) rotate(90)"/>
      <rect class="cls-26" x="28.88" y="226.5" width="7" height="55.07" transform="translate(286.41 221.66) rotate(90)"/>
      <rect class="cls-29" x="-1.08" y="251.62" width="7" height="4.84" transform="translate(256.46 251.62) rotate(90)"/>
      <rect class="cls-18" x="221.63" y="180.61" width="7" height="146.86" transform="translate(479.17 28.9) rotate(90)"/>
    </g>
    <line class="cls-4" x1="550.29" y1="173.98" x2="550.29" y2="250.23"/>
  </g>
  <g id="Layer_7" data-name="Layer 7">
    <g>
      <path d="m9.43,13.39h-2.33v9.6h-2.48v-9.6h-2.33v-2.29h7.14v2.29Z"/>
      <path d="m18.57,20.7v2.29h-6.31v-11.9h6.14v2.29h-3.72v2.46h3.38v2.21h-3.38v2.63h3.89Z"/>
      <path d="m29.3,15.14c0,2.53-1.46,4.03-3.93,4.03h-1.04v3.83h-2.41v-11.9h3.45c2.46,0,3.93,1.5,3.93,4.05Zm-2.48,0c0-1.16-.51-1.75-1.48-1.75h-1v3.48h1c.97,0,1.48-.59,1.48-1.73Z"/>
      <path d="m38.28,20.7v2.29h-5.95v-11.9h2.41v9.6h3.54Z"/>
      <path d="m40.79,19.14v-4.18c0-2.55,1.45-4.06,3.86-4.06s3.86,1.51,3.86,4.06v4.18c0,2.55-1.45,4.06-3.86,4.06s-3.86-1.51-3.86-4.06Zm5.22,0v-4.18c0-1.12-.46-1.72-1.36-1.72s-1.36.59-1.36,1.72v4.18c0,1.12.46,1.72,1.36,1.72s1.36-.6,1.36-1.72Z"/>
      <path d="m58.32,13.39h-2.33v9.6h-2.48v-9.6h-2.33v-2.29h7.14v2.29Z"/>
      <path d="m65.05,21.03h-2.52l-.39,1.97h-2.5l2.86-11.9h2.58l2.86,11.9h-2.5l-.39-1.97Zm-.48-2.29l-.27-1.36c-.15-.85-.36-2.29-.48-3.26h-.07c-.12.97-.31,2.41-.48,3.26l-.27,1.36h1.56Z"/>
      <path d="m74.84,11.1h2.5l1.07,5.63c.17.87.37,2.33.49,3.31h.07c.12-.99.32-2.45.49-3.31l1.07-5.63h2.5l-2.82,11.9h-2.55l-2.82-11.9Z"/>
      <path d="m96.89,20.7v2.29h-5.95v-11.9h2.41v9.6h3.54Z"/>
      <path d="m106.05,20.7v2.29h-6.31v-11.9h6.14v2.29h-3.72v2.46h3.38v2.21h-3.38v2.63h3.89Z"/>
      <path d="m115.74,13.39h-2.33v9.6h-2.48v-9.6h-2.33v-2.29h7.14v2.29Z"/>
      <path d="m118.58,11.1h2.38l2.26,5.17c.29.75.56,1.53.85,2.28l.05-.05c-.2-1.5-.34-3.54-.34-4.64v-2.75h2.38v11.9h-2.38l-2.01-4.61-1.07-2.91-.05.05c.19,1.5.31,3.72.31,5.05v2.41h-2.38v-11.9Z"/>
      <path d="m129.97,11.1h2.41v11.9h-2.41v-11.9Zm1.65-3.47h1.92l-1.92,2.33h-1.6l1.6-2.33Z"/>
      <path d="m140.56,19.53h2.48c0,.95.48,1.36,1.24,1.36s1.19-.46,1.19-1.05c0-1.97-4.66-2.21-4.66-5.83,0-1.82,1.27-3.14,3.47-3.14s3.52,1.31,3.52,3.5h-2.48c0-.78-.36-1.17-1.05-1.17-.63,0-1,.34-1,.88,0,1.87,4.73,1.99,4.73,5.78,0,1.95-1.38,3.38-3.74,3.38s-3.69-1.31-3.69-3.71Z"/>
      <path d="m156.92,20.7v2.29h-5.95v-11.9h2.41v9.6h3.54Z"/>
      <path d="m159.13,19.21v-8.11h2.46v8.11c0,1.07.42,1.65,1.27,1.65s1.28-.58,1.28-1.65v-8.11h2.46v8.11c0,2.5-1.39,4-3.74,4s-3.74-1.5-3.74-4Z"/>
      <path d="m170.21,11.1h2.38l2.26,5.17c.29.75.56,1.53.85,2.28l.05-.05c-.2-1.5-.34-3.54-.34-4.64v-2.75h2.38v11.9h-2.38l-2.01-4.61-1.07-2.91-.05.05c.19,1.5.31,3.72.31,5.05v2.41h-2.38v-11.9Z"/>
      <path d="m181.26,19.14v-4.18c0-2.55,1.45-4.06,3.86-4.06s3.86,1.51,3.86,4.06v4.18c0,2.55-1.45,4.06-3.86,4.06s-3.86-1.51-3.86-4.06Zm5.22,0v-4.18c0-1.12-.46-1.72-1.36-1.72s-1.36.59-1.36,1.72v4.18c0,1.12.46,1.72,1.36,1.72s1.36-.6,1.36-1.72Z"/>
      <path d="m191.45,11.1h2.5l1.07,5.63c.17.87.37,2.33.49,3.31h.07c.12-.99.32-2.45.49-3.31l1.07-5.63h2.5l-2.82,11.9h-2.55l-2.82-11.9Z"/>
      <path d="m205.71,19h-.85v4h-2.41v-11.9h3.45c2.36,0,3.76,1.46,3.76,3.96,0,1.62-.6,2.8-1.65,3.43l2.24,4.5h-2.63l-1.9-4Zm-.85-2.29h1c.85,0,1.31-.58,1.31-1.65s-.46-1.67-1.31-1.67h-1v3.31Z"/>
      <path d="m217.49,21.03h-2.52l-.39,1.97h-2.5l2.86-11.9h2.58l2.86,11.9h-2.5l-.39-1.97Zm-.48-2.29l-.27-1.36c-.15-.85-.36-2.29-.48-3.26h-.07c-.12.97-.31,2.41-.48,3.26l-.27,1.36h1.56Z"/>
      <path d="m228.84,13.39h-2.33v9.6h-2.48v-9.6h-2.33v-2.29h7.14v2.29Z"/>
      <path d="m236.95,11.1h2.38l2.26,5.17c.29.75.56,1.53.85,2.28l.05-.05c-.2-1.5-.34-3.54-.34-4.64v-2.75h2.38v11.9h-2.38l-2.01-4.61-1.07-2.91-.05.05c.19,1.5.31,3.72.31,5.05v2.41h-2.38v-11.9Z"/>
      <path d="m252.75,21.03h-2.52l-.39,1.97h-2.5l2.86-11.9h2.58l2.86,11.9h-2.5l-.39-1.97Zm-.48-2.29l-.27-1.36c-.15-.85-.36-2.29-.48-3.26h-.07c-.12.97-.31,2.41-.48,3.26l-.27,1.36h1.56Z"/>
      <path d="m269.49,20.7v2.29h-5.95v-11.9h2.41v9.6h3.54Z"/>
      <path d="m272.67,19.46l-2.8-8.36h2.5l.97,3.3c.12.39.39,1.33.51,1.9h.07c.14-.58.41-1.51.54-1.96l.94-3.25h2.5l-2.8,8.36v3.54h-2.41v-3.54Z"/>
      <path d="m279.79,19.53h2.48c0,.95.48,1.36,1.24,1.36s1.19-.46,1.19-1.05c0-1.97-4.66-2.21-4.66-5.83,0-1.82,1.28-3.14,3.47-3.14s3.52,1.31,3.52,3.5h-2.48c0-.78-.36-1.17-1.05-1.17-.63,0-1,.34-1,.88,0,1.87,4.72,1.99,4.72,5.78,0,1.95-1.38,3.38-3.74,3.38s-3.69-1.31-3.69-3.71Z"/>
      <path d="m296.5,20.7v2.29h-6.31v-11.9h6.14v2.29h-3.72v2.46h3.38v2.21h-3.38v2.63h3.89Zm-2.74-10.74h-1.6l1.6-2.33h1.92l-1.92,2.33Z"/>
      <path d="m312.26,11.1v11.9h-2.43v-4.84h-2.45v4.84h-2.43v-11.9h2.43v4.76h2.45v-4.76h2.43Z"/>
      <path d="m315.73,19.14v-4.18c0-2.55,1.44-4.06,3.86-4.06s3.86,1.51,3.86,4.06v4.18c0,2.55-1.44,4.06-3.86,4.06s-3.86-1.51-3.86-4.06Zm5.22,0v-4.18c0-1.12-.46-1.72-1.36-1.72s-1.36.59-1.36,1.72v4.18c0,1.12.46,1.72,1.36,1.72s1.36-.6,1.36-1.72Z"/>
      <path d="m330.18,19h-.85v4h-2.41v-11.9h3.45c2.36,0,3.76,1.46,3.76,3.96,0,1.62-.59,2.8-1.65,3.43l2.24,4.5h-2.63l-1.9-4Zm-.88-9.04l-1.38-2.33h1.51l.75,1.14.73-1.14h1.51l-1.38,2.33h-1.75Zm.03,6.75h1c.85,0,1.31-.58,1.31-1.65s-.46-1.67-1.31-1.67h-1v3.31Z"/>
      <path d="m343.87,20.7v2.29h-6.31v-11.9h6.14v2.29h-3.72v2.46h3.38v2.21h-3.38v2.63h3.89Z"/>
    </g>
    <g>
      <path class="cls-23" d="m10.84,218.96h2.58v1.11h-2.58v2.92h-1.18v-2.92h-2.58v-1.11h2.58v-2.7h1.18v2.7Z"/>
      <path class="cls-23" d="m15.27,219.28l.47-4.61h4.74v1.09h-3.74l-.28,2.52c.45-.27.97-.4,1.54-.4.84,0,1.51.28,2.01.83s.74,1.31.74,2.26-.26,1.7-.77,2.25c-.51.55-1.23.82-2.16.82-.82,0-1.48-.23-2-.68-.52-.45-.81-1.08-.88-1.88h1.11c.07.53.26.93.57,1.2s.71.4,1.21.4c.55,0,.97-.19,1.29-.56.31-.37.47-.89.47-1.54,0-.62-.17-1.11-.5-1.49-.34-.38-.78-.56-1.34-.56-.51,0-.91.11-1.21.34l-.31.25-.94-.24Z"/>
      <path class="cls-23" d="m24,216.2c0-.44.16-.83.47-1.16.32-.33.7-.5,1.15-.5s.82.16,1.13.49c.31.33.47.71.47,1.16s-.16.83-.47,1.15c-.31.32-.69.48-1.13.48s-.83-.16-1.14-.48c-.32-.32-.48-.7-.48-1.15Zm1.62.81c.23,0,.42-.08.58-.22.16-.15.24-.34.24-.58s-.08-.45-.24-.6c-.16-.16-.35-.24-.58-.24s-.43.08-.59.25c-.16.17-.24.36-.24.59s.08.42.24.58c.16.16.35.23.59.23Z"/>
      <path class="cls-23" d="m35.91,220.98c-.11.98-.48,1.73-1.08,2.26-.61.53-1.42.8-2.42.8-1.09,0-1.97-.39-2.62-1.17-.66-.78-.99-1.83-.99-3.14v-.89c0-.86.15-1.61.46-2.27.31-.65.74-1.15,1.3-1.5.56-.35,1.21-.52,1.96-.52.98,0,1.77.27,2.36.82.59.55.94,1.31,1.04,2.28h-1.23c-.11-.74-.33-1.27-.69-1.6s-.85-.5-1.48-.5c-.78,0-1.39.29-1.83.86s-.66,1.4-.66,2.46v.9c0,1,.21,1.8.63,2.4s1,.89,1.76.89c.68,0,1.2-.15,1.56-.46.36-.31.6-.84.72-1.6h1.23Z"/>
    </g>
    <g>
      <path class="cls-23" d="m155.9,218.96h2.58v1.11h-2.58v2.92h-1.18v-2.92h-2.58v-1.11h2.58v-2.7h1.18v2.7Z"/>
      <path class="cls-23" d="m163.65,223.91h-1.18v-7.83l-2.37.87v-1.07l3.36-1.26h.18v9.29Z"/>
      <path class="cls-23" d="m172.88,219.97c0,1.38-.23,2.4-.7,3.07s-1.2,1-2.2,1-1.72-.33-2.19-.98c-.47-.65-.72-1.63-.74-2.93v-1.57c0-1.36.23-2.37.7-3.03s1.21-.99,2.21-.99,1.73.32,2.2.96.71,1.62.72,2.95v1.52Zm-1.17-1.61c0-.99-.14-1.72-.42-2.17s-.72-.68-1.33-.68-1.04.23-1.31.68c-.28.45-.42,1.15-.43,2.09v1.88c0,1,.15,1.74.43,2.21.29.48.73.71,1.32.71s1.01-.22,1.29-.67c.28-.45.43-1.16.44-2.12v-1.92Z"/>
      <path class="cls-23" d="m176.36,216.2c0-.44.16-.83.47-1.16s.7-.5,1.15-.5.82.16,1.13.49c.31.33.47.71.47,1.16s-.16.83-.47,1.15c-.31.32-.69.48-1.13.48s-.83-.16-1.14-.48c-.32-.32-.48-.7-.48-1.15Zm1.62.81c.23,0,.42-.08.58-.22.16-.15.23-.34.23-.58s-.08-.45-.23-.6c-.16-.16-.35-.24-.58-.24s-.43.08-.59.25c-.16.17-.24.36-.24.59s.08.42.24.58c.16.16.35.23.59.23Z"/>
      <path class="cls-23" d="m188.26,220.98c-.11.98-.47,1.73-1.08,2.26s-1.41.8-2.42.8c-1.09,0-1.97-.39-2.62-1.17-.66-.78-.99-1.83-.99-3.14v-.89c0-.86.15-1.61.46-2.27.31-.65.74-1.15,1.3-1.5.56-.35,1.21-.52,1.96-.52.98,0,1.77.27,2.36.82.59.55.94,1.31,1.03,2.28h-1.22c-.11-.74-.34-1.27-.69-1.6-.35-.33-.85-.5-1.48-.5-.78,0-1.39.29-1.83.86-.44.58-.66,1.4-.66,2.46v.9c0,1,.21,1.8.63,2.4s1,.89,1.76.89c.68,0,1.2-.15,1.56-.46.36-.31.6-.84.72-1.6h1.22Z"/>
    </g>
    <g>
      <path class="cls-23" d="m449.82,218.96h2.58v1.11h-2.58v2.92h-1.18v-2.92h-2.58v-1.11h2.58v-2.7h1.18v2.7Z"/>
      <path class="cls-23" d="m459.76,223.91h-6.06v-.84l3.2-3.55c.47-.54.8-.97.98-1.31.18-.34.27-.68.27-1.04,0-.48-.15-.88-.44-1.19-.29-.31-.68-.46-1.17-.46-.58,0-1.04.17-1.36.5-.32.33-.49.79-.49,1.39h-1.17c0-.85.27-1.54.82-2.06.55-.52,1.28-.79,2.2-.79.86,0,1.54.23,2.04.68.5.45.75,1.05.75,1.8,0,.91-.58,1.99-1.74,3.25l-2.48,2.68h4.64v.96Z"/>
      <path class="cls-23" d="m466.8,219.97c0,1.38-.23,2.4-.7,3.07s-1.2,1-2.2,1-1.72-.33-2.19-.98c-.47-.65-.72-1.63-.74-2.93v-1.57c0-1.36.23-2.37.7-3.03s1.21-.99,2.21-.99,1.73.32,2.2.96.71,1.62.72,2.95v1.52Zm-1.17-1.61c0-.99-.14-1.72-.42-2.17s-.72-.68-1.33-.68-1.04.23-1.31.68c-.27.45-.42,1.15-.43,2.09v1.88c0,1,.15,1.74.43,2.21.29.48.73.71,1.32.71s1.01-.22,1.29-.67c.28-.45.43-1.16.44-2.12v-1.92Z"/>
      <path class="cls-23" d="m470.28,216.2c0-.44.16-.83.47-1.16.32-.33.7-.5,1.15-.5s.82.16,1.13.49c.31.33.47.71.47,1.16s-.16.83-.47,1.15c-.31.32-.69.48-1.13.48s-.83-.16-1.14-.48c-.32-.32-.48-.7-.48-1.15Zm1.62.81c.23,0,.42-.08.58-.22s.23-.34.23-.58-.08-.45-.23-.6-.35-.24-.58-.24-.43.08-.59.25c-.16.17-.24.36-.24.59s.08.42.24.58c.16.16.35.23.59.23Z"/>
      <path class="cls-23" d="m482.18,220.98c-.11.98-.48,1.73-1.08,2.26-.61.53-1.41.8-2.42.8-1.09,0-1.97-.39-2.62-1.17-.66-.78-.99-1.83-.99-3.14v-.89c0-.86.15-1.61.46-2.27.31-.65.74-1.15,1.3-1.5.56-.35,1.21-.52,1.96-.52.98,0,1.77.27,2.36.82s.94,1.31,1.03,2.28h-1.23c-.11-.74-.34-1.27-.69-1.6-.35-.33-.85-.5-1.48-.5-.78,0-1.39.29-1.83.86-.44.58-.66,1.4-.66,2.46v.9c0,1,.21,1.8.63,2.4s1,.89,1.76.89c.68,0,1.2-.15,1.56-.46.36-.31.6-.84.72-1.6h1.23Z"/>
    </g>
    <g>
      <path class="cls-23" d="m596.36,218.96h2.58v1.11h-2.58v2.92h-1.18v-2.92h-2.58v-1.11h2.58v-2.7h1.18v2.7Z"/>
      <path class="cls-23" d="m606.3,223.91h-6.06v-.84l3.2-3.55c.47-.54.8-.97.98-1.31.18-.34.27-.68.27-1.04,0-.48-.15-.88-.44-1.19-.29-.31-.68-.46-1.17-.46-.58,0-1.04.17-1.36.5-.32.33-.49.79-.49,1.39h-1.17c0-.85.27-1.54.82-2.06.55-.52,1.28-.79,2.2-.79.86,0,1.54.23,2.04.68.5.45.75,1.05.75,1.8,0,.91-.58,1.99-1.74,3.25l-2.48,2.68h4.64v.96Z"/>
      <path class="cls-23" d="m608.08,219.28l.47-4.61h4.74v1.09h-3.74l-.28,2.52c.45-.27.97-.4,1.54-.4.84,0,1.51.28,2.01.83s.74,1.31.74,2.26-.26,1.7-.77,2.25c-.51.55-1.23.82-2.16.82-.82,0-1.48-.23-2-.68-.52-.45-.81-1.08-.88-1.88h1.11c.07.53.26.93.56,1.2s.71.4,1.21.4c.55,0,.97-.19,1.29-.56.31-.37.47-.89.47-1.54,0-.62-.17-1.11-.5-1.49-.34-.38-.78-.56-1.34-.56-.51,0-.91.11-1.21.34l-.31.25-.94-.24Z"/>
      <path class="cls-23" d="m616.82,216.2c0-.44.16-.83.47-1.16.32-.33.7-.5,1.15-.5s.82.16,1.13.49c.31.33.47.71.47,1.16s-.16.83-.47,1.15c-.31.32-.69.48-1.13.48s-.83-.16-1.14-.48c-.32-.32-.48-.7-.48-1.15Zm1.62.81c.23,0,.42-.08.58-.22s.23-.34.23-.58-.08-.45-.23-.6-.35-.24-.58-.24-.43.08-.59.25c-.16.17-.24.36-.24.59s.08.42.24.58c.16.16.35.23.59.23Z"/>
      <path class="cls-23" d="m628.72,220.98c-.11.98-.48,1.73-1.08,2.26-.61.53-1.41.8-2.42.8-1.09,0-1.97-.39-2.62-1.17-.66-.78-.99-1.83-.99-3.14v-.89c0-.86.15-1.61.46-2.27.31-.65.74-1.15,1.3-1.5.56-.35,1.21-.52,1.96-.52.98,0,1.77.27,2.36.82s.94,1.31,1.03,2.28h-1.23c-.11-.74-.34-1.27-.69-1.6-.35-.33-.85-.5-1.48-.5-.78,0-1.39.29-1.83.86-.44.58-.66,1.4-.66,2.46v.9c0,1,.21,1.8.63,2.4s1,.89,1.76.89c.68,0,1.2-.15,1.56-.46.36-.31.6-.84.72-1.6h1.23Z"/>
    </g>
    <line class="cls-5" y1="167.22" x2="660.47" y2="167.22"/>
    <line class="cls-2" x1="298.56" y1="207.84" x2="298.56" y2="123.4"/>
    <g>
      <path class="cls-28" d="m280.7,218.74h2.29v1.66h-2.29v2.59h-1.75v-2.59h-2.3v-1.66h2.3v-2.48h1.75v2.48Z"/>
      <path class="cls-28" d="m288.47,223.91h-1.83v-7.07l-2.19.68v-1.49l3.83-1.37h.2v9.25Z"/>
      <path class="cls-28" d="m296.9,220.44h1.05v1.48h-1.05v2h-1.83v-2h-3.79l-.08-1.15,3.85-6.09h1.85v5.76Zm-3.88,0h2.04v-3.26l-.12.21-1.92,3.05Z"/>
      <path class="cls-28" d="m299.49,226.23l-.96-.5.23-.41c.28-.52.43-1.03.44-1.54v-1.42h1.55v1.27c-.01.47-.13.94-.36,1.42s-.53.87-.9,1.19Z"/>
      <path class="cls-28" d="m307.54,220.44h1.05v1.48h-1.05v2h-1.83v-2h-3.79l-.08-1.15,3.85-6.09h1.85v5.76Zm-3.88,0h2.04v-3.26l-.12.21-1.92,3.05Z"/>
      <path class="cls-28" d="m311.68,216.3c0-.48.17-.89.51-1.24.34-.34.75-.51,1.21-.51s.86.17,1.2.51c.34.34.5.75.5,1.24s-.17.9-.5,1.23c-.34.33-.73.5-1.2.5s-.86-.17-1.21-.5-.52-.74-.52-1.23Zm1.73.79c.22,0,.41-.08.56-.23.15-.15.22-.34.22-.56s-.07-.41-.22-.57c-.15-.16-.33-.24-.56-.24s-.41.08-.56.24-.23.35-.23.57.08.41.23.56c.15.15.34.23.56.23Z"/>
      <path class="cls-28" d="m324,220.84c-.07.99-.44,1.78-1.1,2.35-.66.57-1.54.86-2.62.86-1.19,0-2.12-.4-2.8-1.2-.68-.8-1.02-1.89-1.02-3.29v-.57c0-.89.16-1.67.47-2.35.31-.68.76-1.2,1.34-1.56.58-.36,1.26-.54,2.03-.54,1.07,0,1.93.29,2.58.86.65.57,1.03,1.37,1.13,2.41h-1.9c-.05-.6-.21-1.03-.5-1.3-.29-.27-.72-.4-1.3-.4-.63,0-1.11.23-1.43.68-.31.46-.48,1.16-.49,2.12v.7c0,1,.15,1.73.45,2.19.3.46.78.69,1.43.69.59,0,1.03-.13,1.32-.4.29-.27.46-.68.5-1.25h1.9Z"/>
    </g>
    <g>
      <path class="cls-23" d="m432.8,271.82h2.58v1.11h-2.58v2.92h-1.18v-2.92h-2.58v-1.11h2.58v-2.7h1.18v2.7Z"/>
      <path class="cls-23" d="m437.23,272.14l.47-4.61h4.74v1.09h-3.74l-.28,2.52c.45-.27.97-.4,1.54-.4.84,0,1.51.28,2.01.83.5.56.74,1.31.74,2.26s-.26,1.7-.77,2.25c-.51.55-1.23.82-2.16.82-.82,0-1.48-.23-2-.68s-.81-1.08-.88-1.88h1.11c.07.53.26.93.56,1.2.3.27.71.4,1.21.4.55,0,.97-.19,1.29-.56.31-.37.47-.89.47-1.54,0-.62-.17-1.11-.5-1.49-.34-.38-.78-.56-1.34-.56-.51,0-.91.11-1.21.34l-.31.25-.94-.24Z"/>
      <path class="cls-23" d="m445.96,269.06c0-.44.16-.83.47-1.16.32-.33.7-.5,1.15-.5s.82.16,1.13.49c.31.33.47.71.47,1.16s-.16.83-.47,1.15c-.31.32-.69.48-1.13.48s-.83-.16-1.14-.48-.48-.7-.48-1.15Zm1.62.81c.23,0,.42-.07.58-.22.16-.15.23-.34.23-.58s-.08-.45-.23-.6c-.16-.16-.35-.24-.58-.24s-.43.08-.59.25c-.16.17-.24.36-.24.59s.08.42.24.58c.16.16.35.23.59.23Z"/>
      <path class="cls-23" d="m457.87,273.85c-.11.98-.48,1.73-1.08,2.26-.61.53-1.41.8-2.42.8-1.09,0-1.97-.39-2.62-1.17-.66-.78-.99-1.83-.99-3.14v-.89c0-.86.15-1.61.46-2.27.31-.65.74-1.15,1.3-1.5.56-.35,1.21-.52,1.96-.52.98,0,1.77.27,2.36.82.59.55.94,1.31,1.03,2.28h-1.23c-.11-.74-.34-1.27-.69-1.6-.35-.33-.85-.5-1.48-.5-.78,0-1.39.29-1.83.86-.44.58-.66,1.4-.66,2.46v.9c0,1,.21,1.8.63,2.4.42.59,1,.89,1.76.89.68,0,1.2-.15,1.56-.46.36-.31.6-.84.72-1.6h1.23Z"/>
    </g>
    <g>
      <path class="cls-23" d="m260.19,268.83h-2.88v7.95h-1.59v-7.95h-2.86v-1.29h7.33v1.29Z"/>
      <path class="cls-23" d="m264.28,276.9c-.98,0-1.77-.31-2.38-.92-.61-.62-.91-1.44-.91-2.46v-.19c0-.69.13-1.3.4-1.84.26-.54.64-.96,1.11-1.26s1.01-.45,1.6-.45c.94,0,1.66.3,2.17.9.51.6.77,1.44.77,2.53v.62h-4.49c.05.57.24,1.02.57,1.35.33.33.75.5,1.25.5.71,0,1.28-.29,1.73-.86l.83.79c-.27.41-.64.73-1.1.96-.46.23-.97.34-1.55.34Zm-.18-5.88c-.42,0-.76.15-1.03.44-.26.3-.43.71-.5,1.24h2.94v-.11c-.03-.52-.17-.91-.41-1.17-.24-.26-.58-.4-1-.4Z"/>
      <path class="cls-23" d="m274.25,273.41c0,1.06-.24,1.91-.72,2.54-.48.63-1.13.95-1.94.95-.75,0-1.36-.25-1.81-.74v3.26h-1.54v-9.51h1.42l.06.7c.45-.55,1.07-.83,1.85-.83.84,0,1.49.31,1.97.94.48.62.71,1.49.71,2.6v.1Zm-1.54-.13c0-.69-.14-1.23-.41-1.63-.27-.4-.66-.6-1.17-.6-.63,0-1.08.26-1.36.78v3.05c.28.53.74.8,1.37.8.49,0,.88-.2,1.15-.59.28-.4.42-1,.42-1.8Z"/>
      <path class="cls-23" d="m277.19,276.78h-1.54v-9.75h1.54v9.75Z"/>
      <path class="cls-23" d="m278.58,273.28c0-.67.13-1.28.4-1.82.27-.54.64-.95,1.12-1.24.48-.29,1.04-.43,1.66-.43.93,0,1.68.3,2.26.9.58.6.89,1.39.94,2.37v.36c0,.68-.12,1.28-.38,1.82-.26.53-.63.95-1.12,1.24-.48.29-1.04.44-1.68.44-.97,0-1.74-.32-2.33-.97-.58-.65-.87-1.51-.87-2.58v-.08Zm1.54.13c0,.71.15,1.26.44,1.66.29.4.7.6,1.22.6s.93-.2,1.22-.61c.29-.41.44-1,.44-1.78,0-.69-.15-1.24-.45-1.65-.3-.41-.7-.61-1.22-.61s-.9.2-1.2.6c-.3.4-.44,1-.44,1.79Z"/>
      <path class="cls-23" d="m288.2,268.24v1.67h1.21v1.14h-1.21v3.83c0,.26.05.45.16.57.1.12.29.17.56.17.18,0,.36-.02.54-.06v1.19c-.35.1-.69.15-1.02.15-1.19,0-1.78-.65-1.78-1.96v-3.89h-1.13v-1.14h1.13v-1.67h1.54Z"/>
      <path class="cls-23" d="m292.03,269.91l.04.79c.51-.61,1.17-.92,2-.92,1.43,0,2.16.82,2.18,2.46v4.54h-1.54v-4.45c0-.44-.09-.76-.28-.97-.19-.21-.5-.31-.92-.31-.62,0-1.09.28-1.39.84v4.89h-1.54v-6.87h1.45Z"/>
      <path class="cls-23" d="m299.48,276.78h-1.54v-6.87h1.54v6.87Zm-.29-9.71h1.76l-1.76,1.92h-1.24s1.24-1.92,1.24-1.92Z"/>
      <path class="cls-23" d="m305.91,269.91l.04.79c.51-.61,1.17-.92,2-.92,1.43,0,2.16.82,2.18,2.46v4.54h-1.54v-4.45c0-.44-.09-.76-.28-.97-.19-.21-.5-.31-.92-.31-.62,0-1.09.28-1.39.84v4.89h-1.54v-6.87h1.45Z"/>
      <path class="cls-23" d="m311.42,273.28c0-.67.13-1.28.4-1.82.27-.54.64-.95,1.12-1.24.48-.29,1.04-.43,1.66-.43.93,0,1.68.3,2.26.9.58.6.89,1.39.94,2.37v.36c0,.68-.12,1.28-.38,1.82-.26.53-.63.95-1.12,1.24-.48.29-1.04.44-1.68.44-.97,0-1.74-.32-2.33-.97-.58-.65-.87-1.51-.87-2.58v-.08Zm1.54.13c0,.71.15,1.26.44,1.66.29.4.7.6,1.22.6s.93-.2,1.22-.61c.29-.41.44-1,.44-1.78,0-.69-.15-1.24-.45-1.65-.3-.41-.7-.61-1.22-.61s-.9.2-1.2.6c-.3.4-.44,1-.44,1.79Z"/>
      <path class="cls-23" d="m322.7,271.32c-.2-.03-.41-.05-.63-.05-.71,0-1.18.27-1.43.81v4.7h-1.54v-6.87h1.47l.04.77c.37-.6.89-.9,1.55-.9.22,0,.4.03.55.09v1.45Z"/>
      <path class="cls-23" d="m325.13,269.91l.04.72c.48-.56,1.14-.84,1.98-.84.92,0,1.55.35,1.89,1.05.5-.7,1.2-1.05,2.11-1.05.76,0,1.32.21,1.69.63.37.42.56,1.04.57,1.85v4.51h-1.54v-4.47c0-.44-.1-.76-.29-.96s-.51-.3-.95-.3c-.35,0-.64.09-.86.28-.22.19-.38.43-.47.74v4.71s-1.54,0-1.54,0v-4.52c-.02-.81-.43-1.21-1.24-1.21-.62,0-1.06.25-1.31.76v4.98h-1.54v-6.87h1.45Z"/>
      <path class="cls-23" d="m339.09,276.78c-.07-.13-.13-.34-.18-.64-.49.51-1.09.77-1.8.77s-1.25-.2-1.69-.59-.65-.88-.65-1.46c0-.73.27-1.29.82-1.69.54-.39,1.32-.59,2.33-.59h.95v-.45c0-.36-.1-.64-.3-.85-.2-.21-.5-.32-.91-.32-.35,0-.64.09-.86.26-.22.18-.34.4-.34.67h-1.54c0-.38.12-.73.37-1.06.25-.33.59-.59,1.02-.77.43-.19.91-.28,1.44-.28.8,0,1.45.2,1.92.61.48.4.72.97.74,1.7v3.1c0,.62.09,1.11.26,1.48v.11h-1.57Zm-1.69-1.11c.3,0,.59-.07.86-.22.27-.15.47-.35.61-.6v-1.29h-.83c-.57,0-1,.1-1.29.3s-.43.48-.43.84c0,.3.1.53.3.71.2.18.46.26.79.26Zm.86-8.64h1.76l-1.76,1.92h-1.24s1.24-1.92,1.24-1.92Z"/>
      <path class="cls-23" d="m343.66,276.78h-1.54v-9.75h1.54v9.75Z"/>
    </g>
    <g>
      <path class="cls-23" d="m526.52,271.82h2.58v1.11h-2.58v2.92h-1.18v-2.92h-2.58v-1.11h2.58v-2.7h1.18v2.7Z"/>
      <path class="cls-23" d="m536.01,269.95c0,.46-.12.87-.37,1.23s-.57.64-.99.84c.48.21.86.51,1.15.91.28.4.42.85.42,1.35,0,.8-.27,1.44-.81,1.91-.54.47-1.25.71-2.13.71s-1.6-.24-2.14-.71c-.54-.48-.8-1.11-.8-1.91,0-.5.14-.95.41-1.35.27-.4.65-.71,1.13-.91-.41-.2-.73-.48-.97-.84-.24-.36-.36-.77-.36-1.23,0-.78.25-1.4.75-1.85.5-.46,1.16-.69,1.97-.69s1.47.23,1.97.69c.5.46.75,1.07.75,1.85Zm-.96,4.31c0-.52-.16-.94-.49-1.26-.33-.33-.76-.49-1.29-.49s-.95.16-1.27.48-.48.74-.48,1.27.16.94.47,1.24c.31.3.74.45,1.3.45s.98-.15,1.29-.45c.31-.3.47-.71.47-1.23Zm-1.76-5.88c-.46,0-.83.14-1.12.43s-.43.67-.43,1.16.14.85.42,1.14c.28.29.66.44,1.13.44s.85-.15,1.13-.44c.28-.29.42-.67.42-1.14s-.15-.85-.44-1.15-.66-.44-1.11-.44Z"/>
      <path class="cls-23" d="m539.68,269.06c0-.44.16-.83.47-1.16.32-.33.7-.5,1.15-.5s.82.16,1.13.49c.31.33.47.71.47,1.16s-.16.83-.47,1.15c-.31.32-.69.48-1.13.48s-.83-.16-1.14-.48-.48-.7-.48-1.15Zm1.62.81c.23,0,.42-.07.58-.22.16-.15.24-.34.24-.58s-.08-.45-.24-.6c-.16-.16-.35-.24-.58-.24s-.43.08-.59.25c-.16.17-.24.36-.24.59s.08.42.24.58c.16.16.35.23.59.23Z"/>
      <path class="cls-23" d="m551.58,273.85c-.11.98-.48,1.73-1.08,2.26-.61.53-1.42.8-2.42.8-1.09,0-1.97-.39-2.62-1.17s-.99-1.83-.99-3.14v-.89c0-.86.15-1.61.46-2.27.31-.65.74-1.15,1.3-1.5.56-.35,1.21-.52,1.96-.52.98,0,1.77.27,2.36.82.59.55.94,1.31,1.04,2.28h-1.23c-.11-.74-.33-1.27-.69-1.6s-.85-.5-1.48-.5c-.78,0-1.39.29-1.83.86-.44.58-.66,1.4-.66,2.46v.9c0,1,.21,1.8.63,2.4.42.59,1,.89,1.76.89.68,0,1.2-.15,1.56-.46.36-.31.6-.84.72-1.6h1.23Z"/>
    </g>
    <g>
      <path class="cls-23" d="m577.94,271.82h2.58v1.11h-2.58v2.92h-1.18v-2.92h-2.58v-1.11h2.58v-2.7h1.18v2.7Z"/>
      <path class="cls-23" d="m585.68,276.78h-1.18v-7.83l-2.37.87v-1.07l3.36-1.26h.18v9.29Z"/>
      <path class="cls-23" d="m594.92,272.84c0,1.38-.23,2.4-.7,3.07s-1.2,1-2.2,1-1.72-.33-2.19-.98c-.47-.65-.72-1.63-.74-2.93v-1.57c0-1.36.23-2.37.7-3.03s1.21-.99,2.21-.99,1.73.32,2.2.96c.47.64.71,1.62.72,2.95v1.52Zm-1.17-1.61c0-.99-.14-1.72-.42-2.17-.28-.46-.72-.68-1.33-.68s-1.04.23-1.31.68-.42,1.15-.43,2.09v1.88c0,1,.15,1.74.43,2.21.29.48.73.71,1.32.71s1.01-.22,1.29-.67c.28-.45.43-1.16.44-2.12v-1.92Z"/>
      <path class="cls-23" d="m598.4,269.06c0-.44.16-.83.47-1.16.32-.33.7-.5,1.15-.5s.82.16,1.13.49c.31.33.47.71.47,1.16s-.16.83-.47,1.15c-.31.32-.69.48-1.13.48s-.83-.16-1.14-.48-.48-.7-.48-1.15Zm1.62.81c.23,0,.42-.07.58-.22.16-.15.23-.34.23-.58s-.08-.45-.23-.6c-.16-.16-.35-.24-.58-.24s-.43.08-.59.25c-.16.17-.24.36-.24.59s.08.42.24.58c.16.16.35.23.59.23Z"/>
      <path class="cls-23" d="m610.3,273.85c-.11.98-.48,1.73-1.08,2.26-.61.53-1.41.8-2.42.8-1.09,0-1.97-.39-2.62-1.17-.66-.78-.99-1.83-.99-3.14v-.89c0-.86.15-1.61.46-2.27.31-.65.74-1.15,1.3-1.5.56-.35,1.21-.52,1.96-.52.98,0,1.77.27,2.36.82.59.55.94,1.31,1.03,2.28h-1.23c-.11-.74-.34-1.27-.69-1.6-.35-.33-.85-.5-1.48-.5-.78,0-1.39.29-1.83.86-.44.58-.66,1.4-.66,2.46v.9c0,1,.21,1.8.63,2.4.42.59,1,.89,1.76.89.68,0,1.2-.15,1.56-.46.36-.31.6-.84.72-1.6h1.23Z"/>
    </g>
    <g>
      <line class="cls-3" x1="445.43" y1="250.54" x2="445.43" y2="262.43"/>
      <line class="cls-3" x1="537.22" y1="250.54" x2="537.22" y2="262.43"/>
      <line class="cls-3" x1="592.29" y1="250.54" x2="592.29" y2="262.43"/>
      <line class="cls-3" x1="151.7" y1="250.54" x2="151.7" y2="262.43"/>
      <line class="cls-3" x1="59.91" y1="250.54" x2="59.91" y2="262.43"/>
      <line class="cls-3" x1="4.84" y1="250.54" x2="4.84" y2="262.43"/>
      <line class="cls-3" x1="298.56" y1="250.54" x2="298.56" y2="262.43"/>
    </g>
    <g>
      <line class="cls-3" x1="21.54" y1="204.05" x2="21.54" y2="208.05"/>
      <line class="cls-3" x1="168.42" y1="204.05" x2="168.42" y2="208.05"/>
      <g class="cls-16">
        <line class="cls-3" x1="315.29" y1="204.05" x2="315.29" y2="208.05"/>
      </g>
      <line class="cls-3" x1="609.04" y1="204.05" x2="609.04" y2="208.05"/>
      <line class="cls-3" x1="462.17" y1="204.05" x2="462.17" y2="208.05"/>
    </g>
    <circle class="cls-11" cx="42.11" cy="167.23" r="6.75"/>
    <circle class="cls-14" cx="68.54" cy="167.23" r="6.75"/>
    <circle class="cls-14" cx="99.28" cy="167.24" r="6.75"/>
    <circle class="cls-14" cx="113.58" cy="167.22" r="6.75"/>
    <circle class="cls-14" cx="127.88" cy="167.24" r="6.75"/>
    <circle class="cls-14" cx="152.94" cy="157.83" r="6.75"/>
    <circle class="cls-15" cx="163.26" cy="139.01" r="6.75"/>
    <circle class="cls-15" cx="161.72" cy="180.78" r="6.75"/>
    <circle class="cls-15" cx="164.99" cy="166.86" r="6.75"/>
    <circle class="cls-15" cx="168.25" cy="152.93" r="6.75"/>
    <circle class="cls-15" cx="175.41" cy="176.64" r="6.75"/>
    <circle class="cls-15" cx="178.68" cy="162.72" r="6.75"/>
    <circle class="cls-15" cx="189.1" cy="172.51" r="6.75"/>
    <circle class="cls-15" cx="203.4" cy="172.84" r="6.75"/>
    <circle class="cls-15" cx="196.54" cy="160.3" r="6.75"/>
    <circle class="cls-15" cx="210.83" cy="160.63" r="6.75"/>
    <circle class="cls-15" cx="218.19" cy="172.89" r="6.75"/>
    <circle class="cls-15" cx="225.13" cy="160.39" r="6.75"/>
    <circle class="cls-15" cx="235.4" cy="170.34" r="6.75"/>
    <circle class="cls-15" cx="248.75" cy="175.47" r="6.75"/>
    <circle class="cls-15" cx="246.52" cy="161.34" r="6.75"/>
    <circle class="cls-15" cx="262.88" cy="173.3" r="6.75"/>
    <circle class="cls-15" cx="266.87" cy="159.56" r="6.75"/>
    <circle class="cls-15" cx="278.28" cy="168.18" r="6.75"/>
    <g>
      <path class="cls-13" d="m300.31,153.22c-3.73,0-6.75,3.02-6.75,6.75s3.02,6.75,6.75,6.75,6.75-3.02,6.75-6.75-3.02-6.75-6.75-6.75"/>
      <path class="cls-13" d="m305.73,166.45c-3.73,0-6.75,3.02-6.75,6.75s3.02,6.75,6.75,6.75,6.75-3.02,6.75-6.75-3.02-6.75-6.75-6.75"/>
      <path class="cls-13" d="m314.52,154.85c-3.73,0-6.75,3.02-6.75,6.75s3.02,6.75,6.75,6.75,6.75-3.02,6.75-6.75-3.02-6.75-6.75-6.75"/>
      <path class="cls-13" d="m319.94,168.08c-3.73,0-6.75,3.02-6.75,6.75s3.02,6.75,6.75,6.75,6.75-3.02,6.75-6.75-3.02-6.75-6.75-6.75"/>
      <path class="cls-13" d="m328.69,156.76c-3.73,0-6.75,3.02-6.75,6.75s3.02,6.75,6.75,6.75,6.75-3.02,6.75-6.75-3.02-6.75-6.75-6.75"/>
      <path class="cls-13" d="m334.11,170c-3.73,0-6.75,3.02-6.75,6.75s3.02,6.75,6.75,6.75,6.75-3.02,6.75-6.75-3.02-6.75-6.75-6.75"/>
      <path class="cls-13" d="m342.86,158.68c-3.73,0-6.75,3.02-6.75,6.75s3.02,6.75,6.75,6.75,6.75-3.02,6.75-6.75-3.02-6.75-6.75-6.75"/>
      <path class="cls-13" d="m350.66,146.7c-3.73,0-6.75,3.02-6.75,6.75s3.02,6.75,6.75,6.75,6.75-3.02,6.75-6.75-3.02-6.75-6.75-6.75"/>
      <path class="cls-13" d="m354.71,166.69c-3.73,0-6.75,3.02-6.75,6.75s3.02,6.75,6.75,6.75,6.75-3.02,6.75-6.75-3.02-6.75-6.75-6.75"/>
      <path class="cls-13" d="m362.5,154.7c-3.73,0-6.75,3.02-6.75,6.75s3.02,6.75,6.75,6.75,6.75-3.02,6.75-6.75-3.02-6.75-6.75-6.75"/>
      <path class="cls-13" d="m381.17,175.29c-3.73,0-6.75,3.02-6.75,6.75s3.02,6.75,6.75,6.75,6.75-3.02,6.75-6.75-3.02-6.75-6.75-6.75"/>
      <path class="cls-13" d="m375.37,148.46c-3.73,0-6.75,3.02-6.75,6.75s3.02,6.75,6.75,6.75,6.75-3.02,6.75-6.75-3.02-6.75-6.75-6.75"/>
      <path class="cls-13" d="m369.33,167.27c-3.73,0-6.75,3.02-6.75,6.75s3.02,6.75,6.75,6.75,6.75-3.02,6.75-6.75-3.02-6.75-6.75-6.75"/>
      <path class="cls-13" d="m382.2,161.03c-3.73,0-6.75,3.02-6.75,6.75s3.02,6.75,6.75,6.75,6.75-3.02,6.75-6.75-3.02-6.75-6.75-6.75"/>
      <path class="cls-13" d="m388.24,142.23c-3.73,0-6.75,3.02-6.75,6.75s3.02,6.75,6.75,6.75,6.75-3.02,6.75-6.75-3.02-6.75-6.75-6.75"/>
      <path class="cls-13" d="m394.03,169.05c-3.73,0-6.75,3.02-6.75,6.75s3.02,6.75,6.75,6.75,6.75-3.02,6.75-6.75-3.02-6.75-6.75-6.75"/>
      <path class="cls-13" d="m395.06,154.79c-3.73,0-6.75,3.02-6.75,6.75s3.02,6.75,6.75,6.75,6.75-3.02,6.75-6.75-3.02-6.75-6.75-6.75"/>
      <path class="cls-13" d="m405.87,177.07c-3.73,0-6.75,3.02-6.75,6.75s3.02,6.75,6.75,6.75,6.75-3.02,6.75-6.75-3.02-6.75-6.75-6.75"/>
      <path class="cls-13" d="m406.9,162.81c-3.73,0-6.75,3.02-6.75,6.75s3.02,6.75,6.75,6.75,6.75-3.02,6.75-6.75-3.02-6.75-6.75-6.75"/>
      <path class="cls-13" d="m409.13,148.69c-3.73,0-6.75,3.02-6.75,6.75s3.02,6.75,6.75,6.75,6.75-3.02,6.75-6.75-3.02-6.75-6.75-6.75"/>
      <path class="cls-13" d="m418.74,170.83c-3.73,0-6.75,3.02-6.75,6.75s3.02,6.75,6.75,6.75,6.75-3.02,6.75-6.75-3.02-6.75-6.75-6.75"/>
      <path class="cls-13" d="m420.97,156.71c-3.73,0-6.75,3.02-6.75,6.75s3.02,6.75,6.75,6.75,6.75-3.02,6.75-6.75-3.02-6.75-6.75-6.75"/>
      <path class="cls-13" d="m433.96,162.67c-3.73,0-6.75,3.02-6.75,6.75s3.02,6.75,6.75,6.75,6.75-3.02,6.75-6.75-3.02-6.75-6.75-6.75"/>
    </g>
    <circle class="cls-9" cx="447.59" cy="165.1" r="6.75"/>
    <circle class="cls-9" cx="460.69" cy="159.35" r="6.75"/>
    <circle class="cls-9" cx="459.11" cy="173.57" r="6.75"/>
    <circle class="cls-9" cx="472.21" cy="167.83" r="6.75"/>
    <circle class="cls-9" cx="486.26" cy="170.48" r="6.75"/>
    <circle class="cls-9" cx="496.1" cy="160.1" r="6.75"/>
    <circle class="cls-9" cx="503.47" cy="172.35" r="6.75"/>
    <circle class="cls-9" cx="516.79" cy="167.16" r="6.75"/>
    <circle class="cls-9" cx="531.09" cy="167.25" r="6.75"/>
    <circle class="cls-8" cx="550.29" cy="167.23" r="6.75"/>
    <circle class="cls-12" cx="617.79" cy="152.69" r="6.75"/>
    <circle class="cls-12" cx="606.33" cy="179.01" r="6.75"/>
    <circle class="cls-12" cx="615.46" cy="167.23" r="6.75"/>
    <circle class="cls-12" cx="629.76" cy="173.04" r="6.75"/>
    <circle class="cls-12" cx="640.61" cy="162.67" r="6.75"/>
    <g>
      <path class="cls-25" d="m213.19,96.99c0,1.14-.26,2.06-.78,2.74s-1.22,1.02-2.09,1.02c-.81,0-1.46-.27-1.95-.8v3.51h-1.66v-10.24h1.53l.07.75c.49-.59,1.15-.89,1.99-.89.9,0,1.61.34,2.12,1.01s.77,1.61.77,2.8v.1Zm-1.65-.14c0-.74-.15-1.32-.44-1.76s-.71-.65-1.26-.65c-.68,0-1.17.28-1.46.84v3.28c.3.57.79.86,1.48.86.53,0,.94-.21,1.24-.64s.45-1.07.45-1.94Z"/>
      <path class="cls-25" d="m218.47,94.74c-.22-.04-.44-.05-.68-.05-.76,0-1.27.29-1.54.88v5.06h-1.66v-7.4h1.59l.04.83c.4-.64.96-.96,1.67-.96.24,0,.43.03.59.1v1.56Z"/>
      <path class="cls-25" d="m224,99.89c-.49.57-1.18.86-2.08.86-.8,0-1.41-.23-1.82-.7s-.62-1.15-.62-2.04v-4.79h1.66v4.77c0,.94.39,1.41,1.17,1.41s1.35-.29,1.63-.87v-5.31h1.66v7.4h-1.57l-.04-.72Zm-1.44-10.42c.42,0,.78.14,1.07.42s.44.61.44,1-.14.72-.43.99-.65.41-1.08.41-.81-.14-1.09-.41-.43-.6-.43-.99.14-.72.43-1,.65-.42,1.08-.42Zm-.77,1.42c0,.21.08.4.23.54s.33.22.54.22.4-.07.54-.22.22-.33.22-.55-.07-.39-.22-.54-.33-.23-.55-.23-.41.08-.55.23-.22.33-.22.54Z"/>
      <path class="cls-25" d="m228.86,93.22l.05.77c.52-.61,1.23-.91,2.13-.91.99,0,1.67.38,2.03,1.13.54-.76,1.29-1.13,2.27-1.13.82,0,1.42.23,1.82.68s.6,1.12.61,2v4.86h-1.66v-4.81c0-.47-.1-.81-.31-1.03s-.54-.33-1.02-.33c-.38,0-.69.1-.93.3s-.41.47-.5.8v5.07s-1.65,0-1.65,0v-4.87c-.02-.87-.47-1.31-1.33-1.31-.67,0-1.14.27-1.42.81v5.36h-1.66v-7.4h1.57Z"/>
      <path class="cls-25" d="m242.74,100.75c-1.05,0-1.91-.33-2.56-.99s-.98-1.55-.98-2.65v-.21c0-.74.14-1.4.43-1.98s.68-1.03,1.2-1.36,1.09-.49,1.72-.49c1.01,0,1.79.32,2.33.96s.82,1.55.82,2.73v.67h-4.83c.05.61.25,1.09.61,1.45s.81.53,1.35.53c.76,0,1.38-.31,1.86-.92l.9.85c-.3.44-.69.79-1.19,1.03s-1.05.37-1.66.37Zm-.32-9.58l1-1.06h1.42v.07l-1.91,1.91h-1.03l-1.89-1.91v-.06h1.41l1,1.06Zm.12,3.25c-.46,0-.82.16-1.1.48s-.46.76-.54,1.33h3.17v-.12c-.04-.56-.18-.98-.44-1.26s-.62-.43-1.08-.43Z"/>
      <path class="cls-25" d="m250.87,94.74c-.22-.04-.44-.05-.68-.05-.76,0-1.27.29-1.54.88v5.06h-1.66v-7.4h1.59l.04.83c.4-.64.96-.96,1.67-.96.24,0,.43.03.59.1v1.56Z"/>
      <path class="cls-25" d="m253.46,93.22l.05.85c.55-.66,1.26-.99,2.15-.99,1.54,0,2.32.88,2.35,2.65v4.89h-1.66v-4.79c0-.47-.1-.82-.3-1.04s-.53-.34-.99-.34c-.67,0-1.17.3-1.5.91v5.26h-1.66v-7.4h1.57Z"/>
      <path class="cls-25" d="m264.12,100.62c-.07-.14-.14-.37-.19-.69-.53.55-1.18.83-1.94.83s-1.35-.21-1.82-.64-.7-.95-.7-1.57c0-.79.29-1.39.88-1.81s1.42-.63,2.51-.63h1.02v-.49c0-.38-.11-.69-.32-.92s-.54-.35-.98-.35c-.38,0-.69.09-.93.28s-.36.43-.36.72h-1.66c0-.41.13-.79.4-1.14s.63-.63,1.1-.83.98-.3,1.55-.3c.87,0,1.56.22,2.07.65s.78,1.05.79,1.84v3.34c0,.67.09,1.2.28,1.59v.12h-1.7Zm-1.83-1.2c.33,0,.64-.08.93-.24s.51-.37.65-.64v-1.39h-.9c-.62,0-1.08.11-1.39.32s-.46.52-.46.91c0,.32.11.57.32.76s.5.28.85.28Zm.92-9.3h1.89l-1.89,2.07h-1.33s1.33-2.07,1.33-2.07Z"/>
      <path class="cls-25" d="m272.84,91.42v1.8h1.31v1.23h-1.31v4.13c0,.28.06.49.17.61s.31.19.6.19c.19,0,.39-.02.58-.07v1.29c-.38.1-.74.16-1.09.16-1.28,0-1.91-.7-1.91-2.11v-4.19h-1.22v-1.23h1.22v-1.8h1.66Z"/>
      <path class="cls-25" d="m278.68,100.75c-1.05,0-1.91-.33-2.56-.99s-.98-1.55-.98-2.65v-.21c0-.74.14-1.4.43-1.98s.68-1.03,1.2-1.36,1.09-.49,1.72-.49c1.01,0,1.79.32,2.33.96s.82,1.55.82,2.73v.67h-4.83c.05.61.25,1.09.61,1.45s.81.53,1.35.53c.76,0,1.38-.31,1.86-.92l.9.85c-.3.44-.69.79-1.19,1.03s-1.05.37-1.66.37Zm-.2-6.34c-.46,0-.82.16-1.1.48s-.46.76-.54,1.33h3.17v-.12c-.04-.56-.18-.98-.44-1.26s-.62-.43-1.08-.43Z"/>
      <path class="cls-25" d="m289.41,96.99c0,1.14-.26,2.06-.78,2.74s-1.22,1.02-2.09,1.02c-.81,0-1.46-.27-1.95-.8v3.51h-1.66v-10.24h1.53l.07.75c.49-.59,1.15-.89,1.99-.89.9,0,1.61.34,2.12,1.01s.77,1.61.77,2.8v.1Zm-1.65-.14c0-.74-.15-1.32-.44-1.76s-.71-.65-1.26-.65c-.68,0-1.17.28-1.46.84v3.28c.3.57.79.86,1.48.86.53,0,.94-.21,1.24-.64s.45-1.07.45-1.94Z"/>
      <path class="cls-25" d="m292.58,100.62h-1.66v-10.5h1.66v10.5Z"/>
      <path class="cls-25" d="m294.08,96.85c0-.72.14-1.38.43-1.96s.69-1.03,1.21-1.34,1.12-.47,1.79-.47c1,0,1.81.32,2.43.96s.96,1.49,1.01,2.56v.39c0,.73-.13,1.38-.41,1.96s-.68,1.02-1.2,1.33-1.12.47-1.81.47c-1.04,0-1.88-.35-2.51-1.04s-.94-1.62-.94-2.78v-.08Zm1.66.14c0,.76.16,1.36.47,1.79s.75.65,1.31.65,1-.22,1.31-.66.47-1.08.47-1.92c0-.75-.16-1.34-.48-1.78s-.76-.66-1.31-.66-.97.22-1.29.65-.48,1.07-.48,1.93Z"/>
      <path class="cls-25" d="m304.44,91.42v1.8h1.31v1.23h-1.31v4.13c0,.28.06.49.17.61s.31.19.6.19c.19,0,.39-.02.58-.07v1.29c-.38.1-.74.16-1.09.16-1.28,0-1.91-.7-1.91-2.11v-4.19h-1.22v-1.23h1.22v-1.8h1.66Z"/>
      <path class="cls-25" d="m311.43,100.62c-.07-.14-.14-.37-.19-.69-.53.55-1.18.83-1.94.83s-1.35-.21-1.82-.64-.7-.95-.7-1.57c0-.79.29-1.39.88-1.81s1.42-.63,2.51-.63h1.02v-.49c0-.38-.11-.69-.32-.92s-.54-.35-.98-.35c-.38,0-.69.09-.93.28s-.36.43-.36.72h-1.66c0-.41.13-.79.4-1.14s.63-.63,1.1-.83.98-.3,1.55-.3c.87,0,1.56.22,2.07.65s.78,1.05.79,1.84v3.34c0,.67.09,1.2.28,1.59v.12h-1.7Zm-1.83-1.2c.33,0,.64-.08.93-.24s.51-.37.65-.64v-1.39h-.9c-.62,0-1.08.11-1.39.32s-.46.52-.46.91c0,.32.11.57.32.76s.5.28.85.28Z"/>
      <path class="cls-27" d="m319.36,93.22l.04.93c.56-.71,1.3-1.07,2.21-1.07,1.56,0,2.35.88,2.37,2.65v4.89h-1.26v-4.89c0-.53-.13-.93-.37-1.18s-.61-.38-1.12-.38c-.41,0-.77.11-1.08.33s-.55.51-.72.86v5.27h-1.26v-7.4h1.2Z"/>
      <path class="cls-27" d="m330.45,100.62c-.07-.15-.13-.41-.18-.78-.59.61-1.29.92-2.11.92-.73,0-1.33-.21-1.79-.62s-.7-.94-.7-1.57c0-.77.29-1.37.88-1.79s1.41-.64,2.47-.64h1.23v-.58c0-.44-.13-.79-.4-1.06s-.65-.39-1.17-.39c-.45,0-.83.11-1.13.34s-.46.5-.46.83h-1.27c0-.37.13-.73.39-1.07s.62-.62,1.07-.82.94-.3,1.48-.3c.85,0,1.52.21,2,.64s.73,1.01.75,1.76v3.4c0,.68.09,1.22.26,1.62v.11h-1.33Zm-2.1-.96c.4,0,.77-.1,1.13-.31s.61-.47.77-.8v-1.52h-.99c-1.55,0-2.32.45-2.32,1.36,0,.4.13.71.4.93s.6.33,1.02.33Z"/>
      <path class="cls-27" d="m341.27,98.65c0-.34-.13-.61-.39-.8s-.71-.35-1.35-.49-1.15-.3-1.52-.49-.65-.42-.83-.68-.27-.58-.27-.94c0-.61.26-1.12.77-1.54s1.17-.63,1.97-.63c.84,0,1.52.22,2.04.65s.78.99.78,1.66h-1.27c0-.35-.15-.65-.44-.9s-.66-.38-1.11-.38-.82.1-1.08.3-.39.46-.39.79c0,.31.12.54.36.69s.68.3,1.31.44,1.14.31,1.53.51.68.43.87.71.28.61.28,1.01c0,.66-.26,1.19-.79,1.59s-1.21.6-2.06.6c-.59,0-1.12-.1-1.57-.31s-.81-.5-1.07-.88-.39-.78-.39-1.22h1.26c.02.42.19.76.51,1.01s.73.37,1.25.37c.48,0,.86-.1,1.15-.29s.43-.45.43-.78Z"/>
      <path class="cls-27" d="m345.56,100.62h-1.26v-10.5h1.26v10.5Z"/>
      <path class="cls-27" d="m352.15,99.88c-.49.58-1.21.87-2.17.87-.79,0-1.39-.23-1.8-.69s-.62-1.14-.63-2.03v-4.81h1.26v4.78c0,1.12.46,1.68,1.37,1.68.97,0,1.61-.36,1.93-1.08v-5.38h1.26v7.4h-1.2l-.03-.73Z"/>
      <path class="cls-27" d="m356.5,93.22l.04.93c.56-.71,1.3-1.07,2.21-1.07,1.56,0,2.35.88,2.37,2.65v4.89h-1.26v-4.89c0-.53-.13-.93-.37-1.18s-.61-.38-1.12-.38c-.41,0-.77.11-1.08.33s-.55.51-.72.86v5.27h-1.26v-7.4h1.2Z"/>
      <path class="cls-27" d="m362.69,96.85c0-.72.14-1.38.43-1.96s.68-1.03,1.19-1.34,1.09-.47,1.74-.47c1.01,0,1.82.35,2.44,1.05s.93,1.62.93,2.78v.09c0,.72-.14,1.37-.41,1.94s-.67,1.02-1.18,1.34-1.1.48-1.77.48c-1,0-1.81-.35-2.44-1.05s-.93-1.62-.93-2.77v-.09Zm1.27.15c0,.82.19,1.48.57,1.98s.89.75,1.53.75,1.15-.25,1.53-.76.57-1.21.57-2.12c0-.81-.19-1.47-.58-1.97s-.9-.76-1.53-.76-1.13.25-1.51.75-.57,1.21-.57,2.13Z"/>
      <path class="cls-27" d="m373.35,98.9l1.83-5.68h1.29l-2.65,7.4h-.96l-2.68-7.4h1.29l1.88,5.68Z"/>
      <path class="cls-27" d="m381.26,94.35c-.19-.03-.4-.05-.62-.05-.83,0-1.39.35-1.69,1.06v5.25h-1.26v-7.4h1.23l.02.85c.41-.66,1-.99,1.76-.99.25,0,.43.03.56.1v1.18Z"/>
      <path class="cls-27" d="m386.72,100.62c-.07-.15-.13-.41-.18-.78-.59.61-1.29.92-2.11.92-.73,0-1.33-.21-1.79-.62s-.7-.94-.7-1.57c0-.77.29-1.37.88-1.79s1.41-.64,2.47-.64h1.23v-.58c0-.44-.13-.79-.4-1.06s-.65-.39-1.17-.39c-.45,0-.83.11-1.13.34s-.46.5-.46.83h-1.27c0-.37.13-.73.39-1.07s.62-.62,1.07-.82.94-.3,1.48-.3c.85,0,1.52.21,2,.64s.73,1.01.75,1.76v3.4c0,.68.09,1.22.26,1.62v.11h-1.33Zm-2.1-.96c.4,0,.77-.1,1.13-.31s.61-.47.77-.8v-1.52h-.99c-1.55,0-2.32.45-2.32,1.36,0,.4.13.71.4.93s.6.33,1.02.33Z"/>
      <path class="cls-27" d="m391.48,91.43v1.79h1.38v.98h-1.38v4.59c0,.3.06.52.18.67.12.15.33.22.63.22.15,0,.35-.03.6-.08v1.02c-.33.09-.66.14-.97.14-.56,0-.99-.17-1.28-.51s-.43-.83-.43-1.46v-4.59h-1.35v-.98h1.35v-1.79h1.26Z"/>
      <path class="cls-27" d="m238.61,112.9l1.83-5.68h1.29l-2.65,7.4h-.96l-2.68-7.4h1.29l1.88,5.68Z"/>
      <path class="cls-27" d="m246.08,110.85c0-.72.14-1.38.43-1.96s.68-1.03,1.19-1.34,1.09-.47,1.74-.47c1.01,0,1.82.35,2.44,1.05s.93,1.62.93,2.78v.09c0,.72-.14,1.37-.41,1.94s-.67,1.02-1.18,1.34-1.1.48-1.77.48c-1,0-1.81-.35-2.44-1.05s-.93-1.62-.93-2.77v-.09Zm1.27.15c0,.82.19,1.48.57,1.98s.89.75,1.53.75,1.15-.25,1.53-.76.57-1.21.57-2.12c0-.81-.19-1.47-.58-1.97s-.9-.76-1.53-.76-1.13.25-1.51.75-.57,1.21-.57,2.13Z"/>
      <path class="cls-27" d="m260.66,111c0,1.13-.26,2.04-.78,2.72s-1.22,1.03-2.09,1.03c-.93,0-1.66-.33-2.17-.99l-.06.85h-1.16v-10.5h1.26v3.92c.51-.63,1.21-.95,2.11-.95s1.6.34,2.12,1.02.77,1.61.77,2.79v.11Zm-1.26-.14c0-.86-.17-1.53-.5-2s-.81-.7-1.44-.7c-.83,0-1.43.39-1.8,1.16v3.2c.39.77.99,1.16,1.81,1.16.61,0,1.08-.23,1.42-.7s.51-1.18.51-2.12Z"/>
      <path class="cls-27" d="m261.95,110.86c0-1.13.27-2.05.81-2.74s1.24-1.04,2.11-1.04,1.55.3,2.06.89v-3.86h1.26v10.5h-1.16l-.06-.79c-.51.62-1.21.93-2.11.93s-1.56-.35-2.1-1.05-.81-1.62-.81-2.75v-.1Zm1.26.14c0,.84.17,1.49.52,1.97s.82.71,1.44.71c.8,0,1.39-.36,1.76-1.08v-3.4c-.38-.7-.96-1.05-1.74-1.05-.62,0-1.1.24-1.45.72s-.52,1.19-.52,2.13Z"/>
      <path class="cls-27" d="m269.82,110.85c0-.72.14-1.38.43-1.96s.68-1.03,1.19-1.34,1.09-.47,1.74-.47c1.01,0,1.82.35,2.44,1.05s.93,1.62.93,2.78v.09c0,.72-.14,1.37-.41,1.94s-.67,1.02-1.18,1.34-1.1.48-1.77.48c-1,0-1.81-.35-2.44-1.05s-.93-1.62-.93-2.77v-.09Zm1.27.15c0,.82.19,1.48.57,1.98s.89.75,1.53.75,1.15-.25,1.53-.76.57-1.21.57-2.12c0-.81-.19-1.47-.58-1.97s-.9-.76-1.53-.76-1.13.25-1.51.75-.57,1.21-.57,2.13Z"/>
      <path class="cls-27" d="m284.4,111c0,1.13-.26,2.04-.78,2.72s-1.22,1.03-2.09,1.03c-.93,0-1.66-.33-2.17-.99l-.06.85h-1.16v-10.5h1.26v3.92c.51-.63,1.21-.95,2.11-.95s1.6.34,2.12,1.02.77,1.61.77,2.79v.11Zm-1.26-.14c0-.86-.17-1.53-.5-2s-.81-.7-1.44-.7c-.83,0-1.43.39-1.8,1.16v3.2c.39.77.99,1.16,1.81,1.16.61,0,1.08-.23,1.42-.7s.51-1.18.51-2.12Z"/>
      <path class="cls-27" d="m287.38,104.12h1.53l-1.83,2.01h-1.02s1.32-2.01,1.32-2.01Zm-.01,10.49h-1.27v-7.4h1.27v7.4Z"/>
      <path class="cls-27" d="m296.94,114.62h-1.27v-8.43l-2.55.94v-1.15l3.62-1.36h.2v10Z"/>
      <path class="cls-27" d="m305.49,110.24c-.26.31-.58.57-.95.76s-.77.29-1.21.29c-.57,0-1.07-.14-1.5-.42s-.76-.68-.99-1.19-.35-1.08-.35-1.7c0-.67.13-1.26.38-1.8s.61-.94,1.08-1.22,1.01-.42,1.63-.42c.98,0,1.76.37,2.33,1.1s.85,1.74.85,3.01v.37c0,1.94-.38,3.35-1.15,4.24s-1.92,1.35-3.47,1.37h-.25v-1.07h.27c1.04-.02,1.85-.29,2.41-.82.56-.52.87-1.36.92-2.49Zm-1.95,0c.42,0,.81-.13,1.17-.39s.62-.58.78-.96v-.51c0-.83-.18-1.5-.54-2.02s-.82-.78-1.37-.78-1,.21-1.34.64-.51.99-.51,1.69.16,1.24.49,1.68.76.66,1.31.66Z"/>
      <path class="cls-27" d="m313.47,104.66v1.07h-.23c-.98.02-1.77.31-2.35.88s-.92,1.36-1.01,2.39c.52-.6,1.24-.9,2.15-.9s1.56.31,2.07.92.78,1.4.78,2.37c0,1.03-.28,1.85-.84,2.46s-1.31.92-2.25.92-1.73-.37-2.32-1.1-.89-1.67-.89-2.83v-.49c0-1.83.39-3.23,1.17-4.2s1.94-1.46,3.49-1.49h.23Zm-1.66,4.48c-.43,0-.83.13-1.2.39s-.62.59-.76.98v.46c0,.82.18,1.48.55,1.98s.83.75,1.38.75,1.02-.21,1.34-.63.49-.97.49-1.65-.17-1.24-.5-1.66-.77-.63-1.32-.63Z"/>
      <path class="cls-27" d="m320.53,114.62h-1.27v-8.43l-2.55.94v-1.15l3.62-1.36h.2v10Z"/>
      <path class="cls-27" d="m331.36,110.16h-6.85v-1.03h6.85v1.03Z"/>
      <path class="cls-27" d="m337.57,114.62h-1.27v-8.43l-2.55.94v-1.15l3.62-1.36h.2v10Z"/>
      <path class="cls-27" d="m346.13,110.24c-.26.31-.58.57-.95.76s-.77.29-1.21.29c-.57,0-1.07-.14-1.5-.42s-.76-.68-.99-1.19-.35-1.08-.35-1.7c0-.67.13-1.26.38-1.8s.61-.94,1.08-1.22,1.01-.42,1.63-.42c.98,0,1.76.37,2.33,1.1s.85,1.74.85,3.01v.37c0,1.94-.38,3.35-1.15,4.24s-1.92,1.35-3.47,1.37h-.25v-1.07h.27c1.04-.02,1.85-.29,2.41-.82.56-.52.87-1.36.92-2.49Zm-1.95,0c.42,0,.81-.13,1.17-.39s.62-.58.78-.96v-.51c0-.83-.18-1.5-.54-2.02s-.82-.78-1.37-.78-1,.21-1.34.64-.51.99-.51,1.69.16,1.24.49,1.68.76.66,1.31.66Z"/>
      <path class="cls-27" d="m355.18,107.26c0,.5-.13.94-.39,1.33s-.62.69-1.06.91c.52.22.93.55,1.23.98s.45.91.45,1.46c0,.86-.29,1.55-.87,2.06s-1.35.77-2.29.77-1.72-.26-2.3-.77-.86-1.2-.86-2.05c0-.54.15-1.02.44-1.46s.7-.76,1.22-.98c-.44-.22-.79-.52-1.05-.91s-.38-.83-.38-1.32c0-.84.27-1.5.81-2s1.25-.74,2.13-.74,1.58.25,2.12.74.81,1.16.81,2Zm-1.03,4.64c0-.56-.18-1.01-.53-1.36s-.81-.53-1.38-.53-1.03.17-1.37.52-.52.8-.52,1.37.17,1.01.5,1.33.8.49,1.4.49,1.06-.16,1.39-.49.51-.77.51-1.33Zm-1.9-6.34c-.5,0-.9.15-1.21.46s-.46.73-.46,1.25.15.92.45,1.23.71.47,1.21.47.91-.16,1.21-.47.45-.72.45-1.23-.16-.92-.47-1.24-.71-.48-1.2-.48Z"/>
      <path class="cls-27" d="m363.24,110.37c0,1.48-.25,2.58-.76,3.3s-1.3,1.08-2.37,1.08-1.85-.35-2.36-1.06-.77-1.76-.79-3.15v-1.69c0-1.46.25-2.55.76-3.26s1.3-1.07,2.38-1.07,1.86.34,2.37,1.03.77,1.74.78,3.18v1.64Zm-1.26-1.73c0-1.07-.15-1.85-.45-2.34s-.78-.73-1.43-.73-1.12.24-1.42.73-.45,1.24-.46,2.25v2.02c0,1.08.16,1.87.47,2.38s.79.77,1.42.77,1.09-.24,1.39-.72.46-1.24.48-2.28v-2.07Z"/>
    </g>
    <g>
      <path class="cls-25" d="m548.37,96.19h-5.85v-1.16l2.76-2.94c.38-.41.66-.78.84-1.08s.27-.6.27-.88c0-.38-.1-.68-.29-.89s-.46-.33-.82-.33c-.38,0-.68.13-.91.4s-.33.61-.33,1.04h-1.7c0-.52.12-.99.37-1.42s.6-.77,1.05-1.01.97-.37,1.54-.37c.88,0,1.56.21,2.05.63s.73,1.02.73,1.79c0,.42-.11.85-.33,1.29s-.59.95-1.12,1.53l-1.94,2.04h3.67v1.37Z"/>
      <path class="cls-25" d="m551.13,91.18h.9c.43,0,.75-.11.96-.32s.31-.5.31-.86-.1-.61-.31-.8-.49-.29-.85-.29c-.32,0-.6.09-.81.27s-.33.41-.33.69h-1.69c0-.45.12-.84.36-1.2s.58-.63,1.01-.83.91-.3,1.43-.3c.9,0,1.61.22,2.12.65s.77,1.03.77,1.78c0,.39-.12.75-.36,1.08s-.55.58-.94.76c.48.17.84.43,1.08.77s.35.75.35,1.22c0,.76-.28,1.37-.83,1.82s-1.28.69-2.19.69c-.85,0-1.55-.22-2.09-.67s-.81-1.04-.81-1.78h1.69c0,.32.12.58.36.79s.54.3.89.3c.4,0,.72-.11.95-.32s.34-.5.34-.85c0-.85-.47-1.28-1.41-1.28h-.9v-1.32Z"/>
      <path class="cls-25" d="m556.8,98.33l-.88-.46.21-.38c.26-.48.4-.95.4-1.42v-1.31h1.43v1.17c0,.43-.12.87-.33,1.31s-.49.81-.83,1.1Z"/>
      <path class="cls-25" d="m564.96,92.66c0,1.18-.24,2.08-.73,2.71s-1.2.94-2.14.94-1.64-.31-2.13-.92-.74-1.49-.76-2.64v-1.57c0-1.19.25-2.1.74-2.71s1.21-.93,2.14-.93,1.64.31,2.13.92.74,1.49.76,2.63v1.57Zm-1.69-1.73c0-.71-.1-1.22-.29-1.55s-.5-.48-.91-.48-.69.15-.88.46-.29.79-.3,1.44v2.08c0,.7.09,1.21.28,1.55s.49.51.91.51.71-.16.9-.49c.18-.32.28-.82.29-1.49v-2.03Z"/>
      <path class="cls-25" d="m569.25,89.16c0-.45.16-.83.47-1.14s.69-.47,1.12-.47.79.16,1.1.47.47.7.47,1.15-.16.83-.47,1.13-.68.46-1.1.46-.79-.15-1.11-.46-.48-.68-.48-1.13Zm1.59.73c.21,0,.38-.07.51-.21s.2-.31.2-.52-.07-.38-.2-.53-.31-.22-.51-.22-.38.07-.52.22-.21.32-.21.53.07.38.21.52.32.21.52.21Z"/>
      <path class="cls-25" d="m580.63,93.35c-.07.92-.41,1.64-1.02,2.17s-1.42.79-2.42.79c-1.09,0-1.95-.37-2.58-1.1s-.94-1.75-.94-3.03v-.52c0-.82.14-1.54.43-2.17s.7-1.1,1.24-1.44,1.16-.5,1.87-.5c.98,0,1.78.26,2.38.79s.95,1.27,1.04,2.22h-1.76c-.04-.55-.2-.95-.46-1.2s-.67-.37-1.2-.37c-.59,0-1.02.21-1.32.63s-.44,1.07-.45,1.95v.64c0,.92.14,1.6.42,2.02s.72.64,1.32.64c.54,0,.95-.12,1.22-.37s.42-.63.46-1.15h1.76Z"/>
      <path class="cls-25" d="m544.85,106.72l1.57-4.87h1.11l-2.27,6.34h-.83l-2.3-6.34h1.11l1.61,4.87Z"/>
      <path class="cls-25" d="m554.61,102.82c-.16-.03-.34-.04-.53-.04-.71,0-1.19.3-1.45.91v4.5h-1.08v-6.34h1.05l.02.73c.36-.57.86-.85,1.51-.85.21,0,.37.03.48.08v1.01Z"/>
      <path class="cls-25" d="m555.2,104.96c0-.62.12-1.18.37-1.68s.58-.88,1.02-1.15.93-.4,1.49-.4c.86,0,1.56.3,2.09.9s.8,1.39.8,2.38v.08c0,.62-.12,1.17-.35,1.66s-.57.87-1.01,1.15-.94.41-1.51.41c-.86,0-1.56-.3-2.09-.9s-.8-1.39-.8-2.37v-.08Zm1.09.13c0,.7.16,1.27.49,1.69s.76.64,1.31.64.99-.22,1.31-.65.49-1.04.49-1.81c0-.7-.17-1.26-.5-1.69s-.77-.65-1.32-.65-.97.21-1.29.64-.49,1.04-.49,1.83Z"/>
      <path class="cls-25" d="m564.87,107.42c.39,0,.72-.12,1.01-.35s.45-.53.48-.88h1.03c-.02.36-.14.71-.38,1.04s-.54.59-.92.79-.79.29-1.22.29c-.86,0-1.55-.29-2.06-.86s-.76-1.36-.76-2.36v-.18c0-.62.11-1.17.34-1.65s.55-.85.98-1.12.92-.4,1.5-.4c.71,0,1.3.21,1.77.64s.72.98.75,1.66h-1.03c-.03-.41-.19-.75-.47-1.01s-.62-.4-1.03-.4c-.55,0-.98.2-1.28.59s-.45.97-.45,1.72v.21c0,.73.15,1.29.45,1.69s.73.59,1.29.59Z"/>
      <path class="cls-25" d="m571.24,108.31c-.86,0-1.56-.28-2.1-.85s-.81-1.32-.81-2.26v-.2c0-.63.12-1.19.36-1.68s.58-.88,1.01-1.16.9-.42,1.4-.42c.82,0,1.46.27,1.92.81s.69,1.32.69,2.33v.45h-4.29c.02.62.2,1.13.55,1.51s.79.58,1.33.58c.38,0,.71-.08.97-.23s.5-.36.7-.62l.66.52c-.53.82-1.33,1.22-2.39,1.22Zm-.13-5.68c-.44,0-.8.16-1.1.48s-.48.76-.55,1.34h3.18v-.08c-.03-.55-.18-.98-.45-1.28s-.62-.45-1.08-.45Z"/>
      <path class="cls-25" d="m583.42,108.19h-5.59v-.78l2.95-3.28c.44-.5.74-.9.91-1.21s.25-.63.25-.96c0-.45-.13-.81-.4-1.1s-.63-.43-1.08-.43c-.54,0-.96.15-1.26.46s-.45.73-.45,1.28h-1.08c0-.79.25-1.42.76-1.9s1.18-.73,2.03-.73c.79,0,1.42.21,1.88.62s.69.97.69,1.66c0,.84-.54,1.84-1.61,3l-2.29,2.48h4.28v.88Z"/>
      <path class="cls-25" d="m589.92,104.55c0,1.27-.22,2.21-.65,2.83s-1.11.93-2.03.93-1.58-.3-2.02-.91-.66-1.5-.68-2.7v-1.45c0-1.25.22-2.19.65-2.79s1.11-.91,2.04-.91,1.59.29,2.03.88.66,1.5.67,2.72v1.41Zm-1.08-1.48c0-.92-.13-1.59-.39-2.01s-.67-.63-1.22-.63-.96.21-1.21.63-.38,1.06-.39,1.93v1.73c0,.92.13,1.6.4,2.04s.67.66,1.22.66.93-.21,1.19-.62.4-1.07.41-1.96v-1.78Z"/>
      <path class="cls-25" d="m594.87,108.19h-1.09v-7.22l-2.19.8v-.98l3.11-1.17h.17v8.57Z"/>
      <path class="cls-25" d="m603.22,101.89c0,.43-.11.8-.34,1.14s-.53.59-.91.78c.45.19.8.47,1.06.84s.39.78.39,1.25c0,.74-.25,1.33-.75,1.76s-1.15.66-1.97.66-1.48-.22-1.97-.66-.74-1.03-.74-1.76c0-.46.13-.88.38-1.25s.6-.65,1.05-.84c-.38-.19-.68-.45-.9-.78s-.33-.71-.33-1.13c0-.72.23-1.29.69-1.71s1.07-.63,1.82-.63,1.36.21,1.82.63.69.99.69,1.71Zm-.88,3.98c0-.48-.15-.87-.45-1.17s-.7-.45-1.19-.45-.88.15-1.17.45-.44.69-.44,1.17.14.87.43,1.14.69.42,1.2.42.91-.14,1.2-.42.43-.66.43-1.14Zm-1.63-5.43c-.43,0-.77.13-1.03.4s-.4.62-.4,1.08.13.78.39,1.05.61.4,1.04.4.78-.13,1.04-.4.39-.62.39-1.05-.13-.79-.4-1.06-.61-.41-1.03-.41Z"/>
      <path class="cls-20" d="m544.23,112.32v1.54h1.18v.84h-1.18v3.94c0,.25.05.44.16.57.11.13.29.19.54.19.12,0,.3-.02.52-.07v.87c-.29.08-.56.12-.83.12-.48,0-.85-.15-1.1-.44s-.37-.71-.37-1.25v-3.93h-1.15v-.84h1.15v-1.54h1.08Z"/>
      <path class="cls-20" d="m546.7,119.62c0-.19.06-.34.17-.47s.28-.19.5-.19.39.06.51.19.17.28.17.47-.06.33-.17.45-.28.18-.51.18-.39-.06-.5-.18-.17-.27-.17-.45Z"/>
      <path class="cls-20" d="m550.96,113.85v7.07c0,1.22-.55,1.83-1.66,1.83-.24,0-.46-.04-.66-.1v-.86c.12.03.29.05.49.05.24,0,.43-.07.55-.2s.19-.36.19-.68v-7.1h1.08Zm-1.2-1.68c0-.17.05-.32.16-.44s.26-.18.47-.18.37.06.48.18.16.27.16.45-.05.32-.16.44-.27.18-.48.18-.37-.06-.47-.18-.16-.26-.16-.44Z"/>
      <path class="cls-20" d="m552.73,119.62c0-.19.06-.34.17-.47s.28-.19.5-.19.39.06.51.19.17.28.17.47-.06.33-.17.45-.28.18-.51.18-.39-.06-.5-.18-.17-.27-.17-.45Z"/>
      <path class="cls-20" d="m558.47,116.96c0-.62.12-1.18.37-1.68s.59-.88,1.04-1.15.96-.4,1.54-.4c.86,0,1.55.28,2.08.83s.82,1.28.86,2.19v.33c0,.62-.11,1.18-.35,1.68s-.58.87-1.03,1.14-.96.4-1.55.4c-.89,0-1.61-.3-2.15-.89s-.81-1.39-.81-2.38v-.07Zm1.42.12c0,.65.13,1.16.4,1.53s.64.55,1.12.55.85-.19,1.12-.56.4-.92.4-1.65c0-.64-.14-1.15-.41-1.52s-.65-.56-1.12-.56-.83.18-1.11.55-.41.92-.41,1.66Z"/>
      <path class="cls-20" d="m573.84,113.91c0,.42-.11.79-.32,1.12s-.51.58-.88.77c.45.21.79.49,1.03.85s.36.77.36,1.22c0,.75-.25,1.34-.76,1.78s-1.18.66-2.03.66-1.53-.22-2.04-.66-.76-1.04-.76-1.78c0-.46.12-.87.36-1.23s.58-.64,1.02-.84c-.37-.19-.66-.44-.87-.77s-.32-.7-.32-1.12c0-.73.23-1.3.7-1.73s1.1-.64,1.9-.64,1.44.21,1.9.64.7,1,.7,1.73Zm-1.24,3.88c0-.42-.13-.76-.38-1.02s-.58-.39-1-.39-.75.13-.99.39-.37.6-.37,1.03.12.75.37,1,.58.38,1.01.38.76-.12,1-.36.36-.58.36-1.01Zm-.18-3.83c0-.37-.11-.68-.32-.92s-.5-.36-.87-.36-.65.11-.86.34-.32.54-.32.93.11.7.32.93.5.35.86.35.65-.12.86-.35.32-.54.32-.93Z"/>
      <path class="cls-20" d="m575.58,122.11l-.77-.46c.23-.36.38-.67.47-.93s.13-.53.13-.81v-1.11h1.28v1.03c0,.41-.11.83-.32,1.25s-.47.76-.79,1.03Z"/>
      <path class="cls-20" d="m582.36,111.62v1.18h-.18c-.8.01-1.43.23-1.91.66s-.76,1.03-.85,1.81c.46-.48,1.04-.72,1.75-.72.75,0,1.35.27,1.78.8s.65,1.22.65,2.06-.25,1.57-.76,2.11-1.18.81-2.01.81-1.54-.31-2.07-.94-.79-1.45-.79-2.47v-.49c0-1.5.36-2.67,1.09-3.52s1.78-1.27,3.14-1.27h.15Zm-1.53,4.07c-.31,0-.6.09-.86.26s-.45.41-.57.7v.43c0,.63.13,1.14.4,1.51s.61.56,1.03.56.76-.16,1-.47.37-.73.37-1.25-.12-.94-.38-1.26-.58-.49-1-.49Z"/>
      <path class="cls-20" d="m589.39,111.54c.41,0,.77.15,1.07.46s.45.68.45,1.11-.15.8-.45,1.1-.66.45-1.08.45-.79-.15-1.09-.45-.45-.67-.45-1.1.15-.8.46-1.11.67-.46,1.09-.46Zm0,2.3c.21,0,.38-.07.51-.21s.2-.31.2-.52-.07-.38-.2-.53-.31-.22-.51-.22-.38.07-.52.22-.21.32-.21.53.07.38.21.52.32.21.52.21Z"/>
      <path class="cls-20" d="m599.03,117.41c-.09.91-.42,1.62-1.01,2.13s-1.37.76-2.34.76c-.68,0-1.28-.16-1.8-.48s-.92-.78-1.2-1.37-.43-1.28-.44-2.07v-.8c0-.8.14-1.51.43-2.13s.69-1.09,1.23-1.42,1.15-.5,1.85-.5c.94,0,1.7.25,2.27.76s.91,1.23,1,2.17h-1.48c-.07-.61-.25-1.06-.54-1.33s-.71-.41-1.26-.41c-.64,0-1.14.24-1.49.71s-.52,1.16-.53,2.07v.76c0,.92.17,1.63.5,2.11s.81.73,1.45.73c.58,0,1.02-.13,1.31-.39s.48-.7.56-1.31h1.48Z"/>
      <path class="cls-20" d="m605.44,118.39l1.34-4.54h1.47l-2.2,6.34h-1.24l-2.21-6.34h1.48l1.36,4.54Z"/>
      <path class="cls-20" d="m610.68,120.19h-1.42v-6.34h1.42v6.34Zm-.27-8.96h1.62l-1.62,1.78h-1.14s1.14-1.78,1.14-1.78Z"/>
      <path class="cls-20" d="m614.9,119.17c.36,0,.65-.1.88-.31s.36-.46.38-.77h1.34c-.02.39-.14.76-.37,1.1s-.54.61-.94.81-.82.3-1.28.3c-.89,0-1.59-.29-2.11-.86s-.78-1.37-.78-2.38v-.15c0-.96.26-1.74.77-2.32s1.22-.87,2.11-.87c.75,0,1.37.22,1.84.66s.72,1.02.75,1.73h-1.34c-.02-.36-.14-.66-.37-.9s-.53-.35-.89-.35c-.46,0-.82.17-1.07.5s-.38.84-.38,1.52v.23c0,.69.12,1.2.37,1.54s.61.51,1.08.51Z"/>
      <path class="cls-20" d="m621.37,120.31c-.9,0-1.63-.28-2.19-.85s-.84-1.33-.84-2.27v-.18c0-.63.12-1.2.37-1.7s.59-.89,1.03-1.16.93-.42,1.48-.42c.86,0,1.53.28,2,.83s.71,1.33.71,2.34v.57h-4.14c.04.52.22.94.52,1.24s.69.46,1.16.46c.65,0,1.18-.26,1.59-.79l.77.73c-.25.38-.59.67-1.02.88s-.9.31-1.43.31Zm-.17-5.43c-.39,0-.71.14-.95.41s-.39.65-.46,1.14h2.71v-.11c-.03-.48-.16-.84-.38-1.08s-.53-.37-.93-.37Z"/>
      <path class="cls-20" d="m542.47,128.96c0-.62.12-1.18.37-1.68s.58-.88,1.02-1.15.93-.4,1.49-.4c.86,0,1.56.3,2.09.9s.8,1.39.8,2.38v.08c0,.62-.12,1.17-.35,1.66s-.57.87-1.01,1.15-.94.41-1.51.41c-.86,0-1.56-.3-2.09-.9s-.8-1.39-.8-2.37v-.08Zm1.09.13c0,.7.16,1.27.49,1.69s.76.64,1.31.64.99-.22,1.31-.65.49-1.04.49-1.81c0-.7-.17-1.26-.5-1.69s-.77-.65-1.32-.65-.97.21-1.29.64-.49,1.04-.49,1.83Z"/>
      <path class="cls-20" d="m554.96,129.09c0,.96-.22,1.74-.66,2.33s-1.04.88-1.79.88-1.38-.24-1.82-.73v3.05h-1.08v-8.78h.99l.05.7c.44-.55,1.05-.82,1.84-.82s1.36.29,1.81.86.67,1.37.67,2.4v.1Zm-1.08-.12c0-.71-.15-1.28-.46-1.69s-.72-.62-1.25-.62c-.66,0-1.15.29-1.48.87v3.03c.32.58.82.87,1.49.87.52,0,.93-.21,1.24-.62s.46-1.02.46-1.84Z"/>
      <path class="cls-20" d="m559.4,126.82c-.16-.03-.34-.04-.53-.04-.71,0-1.19.3-1.45.91v4.5h-1.08v-6.34h1.05l.02.73c.36-.57.86-.85,1.51-.85.21,0,.37.03.48.08v1.01Z"/>
      <path class="cls-20" d="m559.99,128.96c0-.62.12-1.18.37-1.68s.58-.88,1.02-1.15.93-.4,1.49-.4c.86,0,1.56.3,2.09.9s.8,1.39.8,2.38v.08c0,.62-.12,1.17-.35,1.66s-.57.87-1.01,1.15-.94.41-1.51.41c-.86,0-1.56-.3-2.09-.9s-.8-1.39-.8-2.37v-.08Zm1.09.13c0,.7.16,1.27.49,1.69s.76.64,1.31.64.99-.22,1.31-.65.49-1.04.49-1.81c0-.7-.17-1.26-.5-1.69s-.77-.65-1.32-.65-.97.21-1.29.64-.49,1.04-.49,1.83Z"/>
      <path class="cls-20" d="m568.59,124.32v1.54h1.18v.84h-1.18v3.94c0,.25.05.44.16.57.11.13.29.19.54.19.12,0,.3-.02.52-.07v.87c-.29.08-.56.12-.83.12-.48,0-.85-.15-1.1-.44s-.37-.71-.37-1.25v-3.93h-1.15v-.84h1.15v-1.54h1.08Z"/>
      <path class="cls-20" d="m571.05,124.17c0-.18.05-.32.16-.45s.27-.18.48-.18.37.06.48.18.16.27.16.45-.05.32-.16.44-.27.18-.48.18-.37-.06-.48-.18-.16-.26-.16-.44Zm1.17,8.02h-1.08v-6.34h1.08v6.34Z"/>
      <path class="cls-20" d="m577.95,125.85l.04.8c.48-.61,1.12-.91,1.9-.91,1.34,0,2.02.76,2.03,2.27v4.19h-1.08v-4.2c0-.46-.11-.79-.31-1.01s-.52-.33-.96-.33c-.35,0-.66.09-.93.28s-.47.43-.62.74v4.52h-1.08v-6.34h1.03Z"/>
      <path class="cls-20" d="m583.26,128.96c0-.62.12-1.18.37-1.68s.58-.88,1.02-1.15.93-.4,1.49-.4c.86,0,1.56.3,2.09.9s.8,1.39.8,2.38v.08c0,.62-.12,1.17-.35,1.66s-.57.87-1.01,1.15-.94.41-1.51.41c-.86,0-1.56-.3-2.09-.9s-.8-1.39-.8-2.37v-.08Zm1.09.13c0,.7.16,1.27.49,1.69s.76.64,1.31.64.99-.22,1.31-.65.49-1.04.49-1.81c0-.7-.17-1.26-.5-1.69s-.77-.65-1.32-.65-.97.21-1.29.64-.49,1.04-.49,1.83Z"/>
      <path class="cls-20" d="m593.45,126.82c-.16-.03-.34-.04-.53-.04-.71,0-1.19.3-1.45.91v4.5h-1.08v-6.34h1.05l.02.73c.36-.57.86-.85,1.51-.85.21,0,.37.03.48.08v1.01Z"/>
      <path class="cls-20" d="m595.47,125.85l.03.7c.46-.55,1.09-.82,1.88-.82.89,0,1.49.34,1.81,1.02.21-.3.49-.55.82-.74s.74-.28,1.2-.28c1.39,0,2.1.74,2.12,2.21v4.25h-1.08v-4.18c0-.45-.1-.79-.31-1.02s-.55-.34-1.04-.34c-.4,0-.74.12-1,.36s-.42.56-.46.97v4.21h-1.09v-4.15c0-.92-.45-1.38-1.35-1.38-.71,0-1.2.3-1.46.91v4.63h-1.08v-6.34h1.03Z"/>
      <path class="cls-20" d="m608.88,132.19c-.06-.12-.11-.35-.15-.67-.5.52-1.11.79-1.8.79-.62,0-1.14-.18-1.54-.53s-.6-.8-.6-1.34c0-.66.25-1.17.75-1.54s1.21-.55,2.12-.55h1.05v-.5c0-.38-.11-.68-.34-.91s-.56-.34-1-.34c-.39,0-.71.1-.97.29s-.39.43-.39.71h-1.09c0-.32.11-.62.34-.92s.53-.53.91-.7.81-.26,1.27-.26c.73,0,1.3.18,1.72.55s.63.87.64,1.51v2.92c0,.58.07,1.04.22,1.39v.09h-1.14Zm-1.8-.83c.34,0,.66-.09.97-.26s.53-.4.66-.69v-1.3h-.85c-1.33,0-1.99.39-1.99,1.17,0,.34.11.61.34.8s.52.29.87.29Zm1-8.17h1.31l-1.57,1.72h-.87s1.13-1.72,1.13-1.72Z"/>
      <path class="cls-20" d="m612.67,132.19h-1.08v-9h1.08v9Z"/>
      <path class="cls-20" d="m618.32,131.56c-.42.5-1.04.74-1.86.74-.68,0-1.19-.2-1.54-.59s-.53-.97-.54-1.74v-4.12h1.08v4.1c0,.96.39,1.44,1.17,1.44.83,0,1.38-.31,1.65-.93v-4.61h1.08v6.34h-1.03l-.02-.63Z"/>
    </g>
    <g>
      <path class="cls-23" d="m143.08,272.65h-5.3v-.96h5.3v.96Z"/>
      <path class="cls-23" d="m145.46,272.14l.47-4.61h4.74v1.09h-3.74l-.28,2.52c.45-.27.97-.4,1.54-.4.84,0,1.51.28,2.01.83.5.56.74,1.31.74,2.26s-.26,1.7-.77,2.25c-.51.55-1.23.82-2.16.82-.82,0-1.48-.23-2-.68s-.81-1.08-.88-1.88h1.11c.07.53.26.93.56,1.2.3.27.71.4,1.21.4.55,0,.97-.19,1.29-.56.31-.37.47-.89.47-1.54,0-.62-.17-1.11-.5-1.49-.34-.38-.78-.56-1.34-.56-.51,0-.91.11-1.21.34l-.31.25-.94-.24Z"/>
      <path class="cls-23" d="m154.19,269.06c0-.44.16-.83.47-1.16.32-.33.7-.5,1.15-.5s.82.16,1.13.49c.31.33.47.71.47,1.16s-.16.83-.47,1.15c-.31.32-.69.48-1.13.48s-.83-.16-1.14-.48-.48-.7-.48-1.15Zm1.62.81c.23,0,.42-.07.58-.22.16-.15.23-.34.23-.58s-.08-.45-.23-.6c-.16-.16-.35-.24-.58-.24s-.43.08-.59.25c-.16.17-.24.36-.24.59s.08.42.24.58c.16.16.35.23.59.23Z"/>
      <path class="cls-23" d="m166.1,273.85c-.11.98-.48,1.73-1.08,2.26-.61.53-1.41.8-2.42.8-1.09,0-1.97-.39-2.62-1.17-.66-.78-.99-1.83-.99-3.14v-.89c0-.86.15-1.61.46-2.27.31-.65.74-1.15,1.3-1.5.56-.35,1.21-.52,1.96-.52.98,0,1.77.27,2.36.82.59.55.94,1.31,1.03,2.28h-1.23c-.11-.74-.34-1.27-.69-1.6-.35-.33-.85-.5-1.48-.5-.78,0-1.39.29-1.83.86-.44.58-.66,1.4-.66,2.46v.9c0,1,.21,1.8.63,2.4.42.59,1,.89,1.76.89.68,0,1.2-.15,1.56-.46.36-.31.6-.84.72-1.6h1.23Z"/>
    </g>
    <g>
      <path class="cls-23" d="m55.29,272.65h-5.3v-.96h5.3v.96Z"/>
      <path class="cls-23" d="m62.73,269.95c0,.46-.12.87-.37,1.23s-.57.64-.99.84c.48.21.86.51,1.15.91.28.4.42.85.42,1.35,0,.8-.27,1.44-.81,1.91-.54.47-1.25.71-2.13.71s-1.6-.24-2.14-.71c-.54-.48-.8-1.11-.8-1.91,0-.5.14-.95.41-1.35.27-.4.65-.71,1.13-.91-.41-.2-.73-.48-.97-.84-.24-.36-.36-.77-.36-1.23,0-.78.25-1.4.75-1.85.5-.46,1.16-.69,1.97-.69s1.47.23,1.97.69c.5.46.75,1.07.75,1.85Zm-.96,4.31c0-.52-.16-.94-.49-1.26-.33-.33-.76-.49-1.29-.49s-.95.16-1.27.48-.48.74-.48,1.27.16.94.47,1.24c.31.3.74.45,1.3.45s.98-.15,1.29-.45c.31-.3.47-.71.47-1.23Zm-1.76-5.88c-.46,0-.83.14-1.12.43s-.43.67-.43,1.16.14.85.42,1.14c.28.29.66.44,1.13.44s.85-.15,1.13-.44c.28-.29.42-.67.42-1.14s-.15-.85-.44-1.15-.66-.44-1.11-.44Z"/>
      <path class="cls-23" d="m66.4,269.06c0-.44.16-.83.47-1.16.32-.33.7-.5,1.15-.5s.82.16,1.13.49c.31.33.47.71.47,1.16s-.16.83-.47,1.15c-.31.32-.69.48-1.13.48s-.83-.16-1.14-.48-.48-.7-.48-1.15Zm1.62.81c.23,0,.42-.07.58-.22.16-.15.24-.34.24-.58s-.08-.45-.24-.6c-.16-.16-.35-.24-.58-.24s-.43.08-.59.25c-.16.17-.24.36-.24.59s.08.42.24.58c.16.16.35.23.59.23Z"/>
      <path class="cls-23" d="m78.31,273.85c-.11.98-.48,1.73-1.08,2.26-.61.53-1.42.8-2.42.8-1.09,0-1.97-.39-2.62-1.17s-.99-1.83-.99-3.14v-.89c0-.86.15-1.61.46-2.27.31-.65.74-1.15,1.3-1.5.56-.35,1.21-.52,1.96-.52.98,0,1.77.27,2.36.82.59.55.94,1.31,1.04,2.28h-1.23c-.11-.74-.33-1.27-.69-1.6s-.85-.5-1.48-.5c-.78,0-1.39.29-1.83.86-.44.58-.66,1.4-.66,2.46v.9c0,1,.21,1.8.63,2.4.42.59,1,.89,1.76.89.68,0,1.2-.15,1.56-.46.36-.31.6-.84.72-1.6h1.23Z"/>
    </g>
    <g>
      <path class="cls-23" d="m4.82,272.65H-.48v-.96h5.3v.96Z"/>
      <path class="cls-23" d="m10.52,276.78h-1.18v-7.83l-2.37.87v-1.07l3.36-1.26h.18v9.29Z"/>
      <path class="cls-23" d="m19.75,272.84c0,1.38-.23,2.4-.7,3.07s-1.2,1-2.2,1-1.72-.33-2.19-.98c-.47-.65-.72-1.63-.74-2.93v-1.57c0-1.36.23-2.37.7-3.03s1.21-.99,2.21-.99,1.73.32,2.2.96c.47.64.71,1.62.72,2.95v1.52Zm-1.17-1.61c0-.99-.14-1.72-.42-2.17-.28-.46-.72-.68-1.33-.68s-1.04.23-1.31.68-.42,1.15-.43,2.09v1.88c0,1,.15,1.74.43,2.21.29.48.73.71,1.32.71s1.01-.22,1.29-.67c.28-.45.43-1.16.44-2.12v-1.92Z"/>
      <path class="cls-23" d="m23.23,269.06c0-.44.16-.83.47-1.16.32-.33.7-.5,1.15-.5s.82.16,1.13.49c.31.33.47.71.47,1.16s-.16.83-.47,1.15c-.31.32-.69.48-1.13.48s-.83-.16-1.14-.48-.48-.7-.48-1.15Zm1.62.81c.23,0,.42-.07.58-.22.16-.15.23-.34.23-.58s-.08-.45-.23-.6c-.16-.16-.35-.24-.58-.24s-.43.08-.59.25c-.16.17-.24.36-.24.59s.08.42.24.58c.16.16.35.23.59.23Z"/>
      <path class="cls-23" d="m35.14,273.85c-.11.98-.48,1.73-1.08,2.26-.61.53-1.41.8-2.42.8-1.09,0-1.97-.39-2.62-1.17-.66-.78-.99-1.83-.99-3.14v-.89c0-.86.15-1.61.46-2.27.31-.65.74-1.15,1.3-1.5.56-.35,1.21-.52,1.96-.52.98,0,1.77.27,2.36.82.59.55.94,1.31,1.03,2.28h-1.23c-.11-.74-.34-1.27-.69-1.6-.35-.33-.85-.5-1.48-.5-.78,0-1.39.29-1.83.86-.44.58-.66,1.4-.66,2.46v.9c0,1,.21,1.8.63,2.4.42.59,1,.89,1.76.89.68,0,1.2-.15,1.56-.46.36-.31.6-.84.72-1.6h1.23Z"/>
    </g>
    <g>
      <g>
        <circle class="cls-1" cx="90.91" cy="41.72" r="5.06"/>
        <polyline class="cls-1" points="90.91 38.79 90.91 41.72 92.85 43.36"/>
      </g>
      <g>
        <path class="cls-23" d="m107.42,45.64h-5.12v-.71l2.71-3.01c.4-.45.68-.82.83-1.11.15-.29.23-.58.23-.88,0-.41-.12-.74-.37-1s-.58-.39-.99-.39c-.49,0-.88.14-1.15.42-.27.28-.41.67-.41,1.17h-.99c0-.72.23-1.3.7-1.75.46-.44,1.08-.67,1.86-.67.73,0,1.3.19,1.72.57.42.38.63.89.63,1.52,0,.77-.49,1.69-1.47,2.75l-2.09,2.27h3.93v.81Z"/>
        <path class="cls-23" d="m111.74,45.64h-1v-6.62l-2,.74v-.9l2.85-1.07h.16v7.86Z"/>
        <path class="cls-23" d="m114.77,45.12c0-.17.05-.31.15-.43.1-.11.25-.17.46-.17s.36.06.46.17c.11.11.16.26.16.43s-.05.3-.16.41c-.11.11-.26.17-.46.17s-.36-.06-.46-.17c-.1-.11-.15-.25-.15-.41Z"/>
        <path class="cls-23" d="m122.7,44.94c.35,0,.66-.11.93-.32.27-.21.41-.48.44-.81h.94c-.02.33-.13.65-.34.95-.21.3-.49.54-.85.72-.35.18-.73.27-1.12.27-.79,0-1.42-.26-1.89-.79-.47-.53-.7-1.25-.7-2.17v-.17c0-.57.1-1.07.31-1.51.21-.44.51-.78.89-1.03.39-.24.85-.37,1.38-.37.65,0,1.19.2,1.62.59s.66.9.69,1.52h-.94c-.03-.38-.17-.68-.43-.93-.26-.24-.57-.36-.95-.36-.5,0-.9.18-1.17.54-.28.36-.42.89-.42,1.58v.19c0,.67.14,1.19.41,1.55.28.36.67.54,1.18.54Zm-.23-6.63l.81-.91h.86v.05l-1.36,1.47h-.61l-1.35-1.47v-.05h.84l.81.91Z"/>
        <path class="cls-23" d="m128.54,45.75c-.79,0-1.43-.26-1.92-.78-.49-.52-.74-1.21-.74-2.08v-.18c0-.58.11-1.09.33-1.54.22-.45.53-.81.92-1.06.4-.26.82-.38,1.29-.38.75,0,1.34.25,1.76.75s.63,1.21.63,2.14v.41h-3.94c.01.57.18,1.04.5,1.39.32.35.73.53,1.22.53.35,0,.65-.07.89-.21.24-.14.46-.33.64-.57l.61.47c-.49.75-1.22,1.12-2.19,1.12Zm-.12-5.21c-.4,0-.74.15-1.01.44-.27.29-.44.7-.5,1.23h2.91v-.08c-.03-.5-.17-.9-.41-1.17-.24-.28-.57-.42-.99-.42Z"/>
        <path class="cls-23" d="m134.76,40.72c-.15-.02-.31-.04-.49-.04-.65,0-1.09.28-1.33.83v4.12h-.99v-5.81h.97l.02.67c.33-.52.79-.78,1.39-.78.19,0,.34.02.44.08v.92Z"/>
        <path class="cls-23" d="m137.69,44.29l1.44-4.46h1.02l-2.08,5.81h-.76l-2.11-5.81h1.02l1.48,4.46Z"/>
        <path class="cls-23" d="m143.51,45.75c-.79,0-1.43-.26-1.92-.78-.49-.52-.74-1.21-.74-2.08v-.18c0-.58.11-1.09.33-1.54.22-.45.53-.81.92-1.06.4-.26.82-.38,1.29-.38.75,0,1.34.25,1.76.75s.63,1.21.63,2.14v.41h-3.94c.01.57.18,1.04.5,1.39.32.35.73.53,1.22.53.35,0,.65-.07.89-.21.24-.14.46-.33.64-.57l.61.47c-.49.75-1.22,1.12-2.19,1.12Zm-.12-5.21c-.4,0-.74.15-1.01.44-.27.29-.44.7-.5,1.23h2.91v-.08c-.03-.5-.17-.9-.41-1.17-.24-.28-.57-.42-.99-.42Z"/>
        <path class="cls-23" d="m147.87,39.83l.03.73c.44-.56,1.02-.84,1.74-.84,1.23,0,1.85.69,1.86,2.08v3.84h-.99v-3.85c0-.42-.1-.73-.29-.93-.19-.2-.48-.3-.88-.3-.32,0-.61.09-.85.26-.24.17-.43.4-.57.68v4.14h-.99v-5.81h.94Z"/>
        <path class="cls-23" d="m157.64,44.29l1.44-4.46h1.02l-2.08,5.81h-.76l-2.11-5.81h1.02l1.48,4.46Z"/>
        <path class="cls-23" d="m164.85,45.64h-.99v-8.25h.99v8.25Z"/>
        <path class="cls-23" d="m168.85,45.75c-.79,0-1.43-.26-1.92-.78-.49-.52-.74-1.21-.74-2.08v-.18c0-.58.11-1.09.33-1.54.22-.45.53-.81.92-1.06.4-.26.82-.38,1.29-.38.75,0,1.34.25,1.76.75s.63,1.21.63,2.14v.41h-3.94c.01.57.18,1.04.5,1.39.32.35.73.53,1.22.53.35,0,.65-.07.89-.21.24-.14.46-.33.64-.57l.61.47c-.49.75-1.22,1.12-2.19,1.12Zm-.12-5.21c-.4,0-.74.15-1.01.44-.27.29-.44.7-.5,1.23h2.91v-.08c-.03-.5-.17-.9-.41-1.17-.24-.28-.57-.42-.99-.42Z"/>
        <path class="cls-23" d="m173.62,38.42v1.41h1.08v.77h-1.08v3.61c0,.23.05.41.14.52.1.12.26.17.49.17.12,0,.27-.02.47-.06v.8c-.26.07-.52.11-.76.11-.44,0-.78-.13-1-.4s-.34-.65-.34-1.14v-3.6h-1.06v-.77h1.06v-1.41h.99Z"/>
        <path class="cls-23" d="m178.27,45.75c-.79,0-1.43-.26-1.92-.78-.49-.52-.74-1.21-.74-2.08v-.18c0-.58.11-1.09.33-1.54.22-.45.53-.81.92-1.06.4-.26.82-.38,1.29-.38.75,0,1.34.25,1.76.75s.63,1.21.63,2.14v.41h-3.94c.01.57.18,1.04.5,1.39.32.35.73.53,1.22.53.35,0,.65-.07.89-.21.24-.14.46-.33.64-.57l.61.47c-.49.75-1.22,1.12-2.19,1.12Zm-.12-5.21c-.4,0-.74.15-1.01.44-.27.29-.44.7-.5,1.23h2.91v-.08c-.03-.5-.17-.9-.41-1.17-.24-.28-.57-.42-.99-.42Z"/>
        <path class="cls-23" d="m184.02,44.94c.35,0,.66-.11.93-.32.26-.21.41-.48.44-.81h.94c-.02.33-.13.65-.34.95-.21.3-.49.54-.85.72s-.73.27-1.12.27c-.79,0-1.42-.26-1.89-.79-.47-.53-.7-1.25-.7-2.17v-.17c0-.57.1-1.07.31-1.51.21-.44.51-.78.89-1.03s.85-.37,1.38-.37c.65,0,1.19.2,1.62.59.43.39.66.9.69,1.52h-.94c-.03-.38-.17-.68-.43-.93-.26-.24-.57-.36-.95-.36-.5,0-.9.18-1.17.54-.28.36-.42.89-.42,1.58v.19c0,.67.14,1.19.41,1.55.28.36.67.54,1.18.54Z"/>
        <path class="cls-23" d="m188.44,40.53c.44-.54,1.01-.81,1.72-.81,1.23,0,1.85.69,1.86,2.08v3.84h-.99v-3.85c0-.42-.1-.73-.29-.93-.19-.2-.48-.3-.88-.3-.32,0-.61.09-.85.26-.24.17-.43.4-.57.68v4.14h-.99v-8.25h.99v3.14Z"/>
        <path class="cls-23" d="m199.6,45.64h-1.3v-6.28l-1.92.65v-1.1l3.05-1.12h.17v7.85Z"/>
        <path class="cls-23" d="m206.02,42.37c-.44.46-.95.69-1.53.69-.69,0-1.24-.24-1.64-.72-.41-.48-.61-1.11-.61-1.9,0-.52.1-.98.31-1.4.21-.42.5-.74.89-.98.38-.23.83-.35,1.33-.35.79,0,1.41.29,1.87.88s.69,1.37.69,2.36v.37c0,1.41-.32,2.49-.96,3.23-.64.74-1.59,1.12-2.85,1.13h-.16v-1.08h.19c.77-.01,1.36-.2,1.77-.56.41-.36.64-.92.69-1.67Zm-1.26-.33c.26,0,.51-.08.74-.23.23-.15.41-.36.53-.62v-.51c0-.58-.12-1.04-.35-1.39s-.54-.53-.92-.53-.68.15-.9.46c-.22.31-.34.7-.34,1.17s.11.89.34,1.19.53.45.9.45Z"/>
        <path class="cls-23" d="m212.63,37.78v1.08h-.16c-.73.01-1.31.21-1.75.6-.44.39-.7.94-.78,1.66.42-.44.95-.66,1.61-.66.69,0,1.24.24,1.64.73s.6,1.12.6,1.89-.23,1.44-.7,1.93c-.47.49-1.08.74-1.84.74s-1.41-.29-1.9-.86c-.49-.58-.73-1.33-.73-2.27v-.45c0-1.37.33-2.45,1-3.22s1.63-1.17,2.88-1.17h.13Zm-1.4,3.73c-.29,0-.55.08-.79.24s-.41.38-.52.64v.4c0,.58.12,1.04.37,1.38.24.34.56.51.95.51s.69-.15.92-.44.34-.67.34-1.14-.12-.86-.34-1.15c-.23-.3-.53-.45-.91-.45Z"/>
        <path class="cls-23" d="m218.35,45.64h-1.3v-6.28l-1.92.65v-1.1l3.05-1.12h.17v7.85Z"/>
        <path class="cls-23" d="m226.8,42.3h-5.47v-1.05h5.47v1.05Z"/>
        <path class="cls-23" d="m233.42,45.64h-5.26v-.9l2.6-2.84c.38-.42.64-.77.8-1.05.16-.28.24-.56.24-.85,0-.37-.1-.67-.31-.9-.21-.23-.49-.34-.85-.34-.42,0-.75.13-.98.39-.23.26-.35.61-.35,1.06h-1.3c0-.48.11-.91.32-1.29.22-.38.53-.68.93-.89.4-.21.87-.32,1.39-.32.76,0,1.36.19,1.8.57.44.38.66.91.66,1.58,0,.39-.11.8-.33,1.23-.22.43-.58.91-1.08,1.46l-1.91,2.05h3.63v1.04Z"/>
        <path class="cls-23" d="m239.51,42.35c0,1.12-.21,1.97-.63,2.54-.42.57-1.06.86-1.92.86s-1.48-.28-1.91-.83c-.43-.56-.65-1.38-.66-2.47v-1.35c0-1.12.21-1.97.63-2.53s1.06-.84,1.93-.84,1.49.27,1.91.82c.42.55.64,1.37.65,2.46v1.35Zm-1.3-1.46c0-.73-.1-1.27-.3-1.61-.2-.34-.52-.51-.96-.51s-.74.16-.94.49c-.2.32-.31.83-.32,1.52v1.77c0,.73.1,1.27.31,1.63s.52.54.96.54.73-.17.93-.5c.2-.33.31-.85.32-1.55v-1.77Z"/>
        <path class="cls-23" d="m245.93,45.64h-5.26v-.9l2.6-2.84c.38-.42.64-.77.8-1.05.16-.28.24-.56.24-.85,0-.37-.1-.67-.31-.9-.21-.23-.49-.34-.85-.34-.42,0-.75.13-.98.39-.23.26-.35.61-.35,1.06h-1.3c0-.48.11-.91.32-1.29.22-.38.53-.68.93-.89.4-.21.87-.32,1.39-.32.76,0,1.36.19,1.8.57.44.38.66.91.66,1.58,0,.39-.11.8-.33,1.23-.22.43-.58.91-1.08,1.46l-1.91,2.05h3.63v1.04Z"/>
        <path class="cls-23" d="m252.18,45.64h-5.26v-.9l2.6-2.84c.38-.42.64-.77.8-1.05.16-.28.24-.56.24-.85,0-.37-.1-.67-.31-.9-.21-.23-.49-.34-.85-.34-.42,0-.75.13-.98.39-.23.26-.35.61-.35,1.06h-1.3c0-.48.11-.91.32-1.29.22-.38.53-.68.93-.89.4-.21.87-.32,1.39-.32.76,0,1.36.19,1.8.57.44.38.66.91.66,1.58,0,.39-.11.8-.33,1.23-.22.43-.58.91-1.08,1.46l-1.91,2.05h3.63v1.04Z"/>
      </g>
    </g>
    <g>
      <g>
        <path class="cls-1" d="m275.88,41.48v-6.41c0-.86-.69-1.55-1.55-1.55s-1.55.69-1.55,1.55v6.41c-1.29.59-2.2,1.89-2.2,3.4,0,2.07,1.68,3.75,3.75,3.75s3.75-1.68,3.75-3.75c0-1.51-.9-2.81-2.2-3.4Zm-1.51,4.66c-.72,0-1.3-.58-1.3-1.3s.58-1.3,1.3-1.3,1.3.58,1.3,1.3-.58,1.3-1.3,1.3Z"/>
        <line class="cls-1" x1="277.41" y1="36.08" x2="279.62" y2="36.08"/>
        <line class="cls-1" x1="277.41" y1="38.15" x2="278.81" y2="38.15"/>
      </g>
      <g>
        <path class="cls-23" d="m287.19,39.6l.04.61c.41-.48.97-.71,1.68-.71.78,0,1.31.3,1.6.89.42-.59,1.02-.89,1.78-.89.64,0,1.12.18,1.43.53.31.35.47.88.48,1.57v3.82h-1.31v-3.78c0-.37-.08-.64-.24-.81s-.43-.26-.8-.26c-.3,0-.54.08-.73.24-.19.16-.32.37-.4.63v3.99s-1.3,0-1.3,0v-3.82c-.02-.68-.37-1.03-1.05-1.03-.52,0-.89.21-1.11.64v4.21h-1.31v-5.81h1.23Z"/>
        <path class="cls-23" d="m299,45.41c-.06-.11-.11-.29-.15-.54-.42.43-.92.65-1.53.65s-1.06-.17-1.43-.5-.55-.74-.55-1.24c0-.62.23-1.09.69-1.43.46-.33,1.12-.5,1.97-.5h.8v-.38c0-.3-.08-.54-.25-.72-.17-.18-.42-.27-.77-.27-.3,0-.54.07-.73.22-.19.15-.28.34-.28.57h-1.31c0-.32.11-.62.32-.89.21-.28.5-.49.86-.65.36-.16.77-.24,1.22-.24.68,0,1.22.17,1.63.51.4.34.61.82.62,1.44v2.62c0,.52.07.94.22,1.25v.09h-1.33Zm-1.43-.94c.26,0,.5-.06.73-.19.23-.13.4-.29.51-.5v-1.1h-.7c-.48,0-.85.08-1.09.25s-.37.41-.37.71c0,.25.08.45.25.6.17.15.39.22.67.22Z"/>
        <path class="cls-23" d="m303.57,41.51l1.11-1.91h1.45l-1.78,2.86,1.84,2.95h-1.44l-1.16-1.99-1.15,1.99h-1.45l1.84-2.95-1.77-2.86h1.44l1.08,1.91Z"/>
        <path class="cls-23" d="m307.02,38.09c0-.2.06-.37.19-.5.13-.13.31-.2.54-.2s.42.07.55.2.19.3.19.5-.06.36-.19.49c-.13.13-.31.2-.55.2s-.42-.07-.54-.2c-.13-.13-.19-.29-.19-.49Zm1.39,7.32h-1.31v-5.81h1.31v5.81Z"/>
        <path class="cls-23" d="m311.05,39.6l.04.61c.41-.48.97-.71,1.68-.71.78,0,1.31.3,1.6.89.42-.59,1.02-.89,1.78-.89.64,0,1.12.18,1.43.53.31.35.47.88.48,1.57v3.82h-1.31v-3.78c0-.37-.08-.64-.24-.81s-.43-.26-.8-.26c-.3,0-.54.08-.73.24-.19.16-.32.37-.4.63v3.99s-1.3,0-1.3,0v-3.82c-.02-.68-.37-1.03-1.05-1.03-.52,0-.89.21-1.11.64v4.21h-1.31v-5.81h1.23Z"/>
        <path class="cls-23" d="m322.87,45.41c-.06-.11-.11-.29-.15-.54-.42.43-.92.65-1.53.65s-1.06-.17-1.43-.5-.55-.74-.55-1.24c0-.62.23-1.09.69-1.43.46-.33,1.12-.5,1.97-.5h.8v-.38c0-.3-.08-.54-.25-.72-.17-.18-.42-.27-.77-.27-.3,0-.54.07-.73.22-.19.15-.28.34-.28.57h-1.31c0-.32.11-.62.32-.89.21-.28.5-.49.86-.65.36-.16.77-.24,1.22-.24.68,0,1.22.17,1.63.51.4.34.61.82.62,1.44v2.62c0,.52.07.94.22,1.25v.09h-1.33Zm-1.43-.94c.26,0,.5-.06.73-.19.23-.13.4-.29.51-.5v-1.1h-.7c-.48,0-.85.08-1.09.25s-.37.41-.37.71c0,.25.08.45.25.6.17.15.39.22.67.22Zm.73-7.31h1.49l-1.49,1.63h-1.05s1.05-1.63,1.05-1.63Z"/>
        <path class="cls-23" d="m326.73,45.41h-1.31v-8.25h1.31v8.25Z"/>
        <path class="cls-23" d="m329.37,39.6l.04.67c.43-.52.99-.78,1.69-.78,1.21,0,1.83.69,1.85,2.08v3.84h-1.31v-3.77c0-.37-.08-.64-.24-.82-.16-.18-.42-.27-.78-.27-.53,0-.92.24-1.18.71v4.14h-1.31v-5.81h1.23Z"/>
        <path class="cls-23" d="m335.68,45.41h-1.31v-5.81h1.31v5.81Zm-.25-8.21h1.49l-1.49,1.63h-1.05s1.05-1.63,1.05-1.63Z"/>
        <path class="cls-23" d="m339.74,42.45c0-.89.21-1.61.63-2.15.42-.54.98-.81,1.66-.81s1.22.23,1.62.7v-3.03h.99v8.25h-.91l-.05-.62c-.4.49-.95.73-1.66.73s-1.22-.28-1.65-.83c-.42-.55-.64-1.27-.64-2.16v-.08Zm.99.11c0,.66.14,1.17.41,1.55s.65.56,1.13.56c.63,0,1.09-.28,1.38-.85v-2.67c-.3-.55-.75-.82-1.37-.82-.49,0-.87.19-1.14.56s-.41.93-.41,1.67Z"/>
        <path class="cls-23" d="m348.6,45.51c-.79,0-1.43-.26-1.92-.78-.49-.52-.74-1.21-.74-2.08v-.18c0-.58.11-1.09.33-1.54.22-.45.53-.81.92-1.06.4-.26.82-.38,1.29-.38.76,0,1.34.25,1.76.75s.63,1.21.63,2.14v.41h-3.94c.01.57.18,1.04.5,1.39.32.35.73.53,1.22.53.35,0,.65-.07.89-.21s.46-.33.64-.57l.61.47c-.49.75-1.22,1.12-2.19,1.12Zm-.12-5.21c-.4,0-.74.15-1.01.44-.27.29-.44.7-.5,1.23h2.91v-.08c-.03-.5-.16-.9-.41-1.17-.24-.28-.57-.42-.99-.42Z"/>
        <path class="cls-23" d="m352.96,39.6l.03.73c.44-.56,1.02-.84,1.74-.84,1.23,0,1.85.69,1.86,2.08v3.84h-.99v-3.85c0-.42-.1-.73-.29-.93-.19-.2-.48-.3-.88-.3-.32,0-.6.09-.85.26s-.43.4-.57.68v4.14h-.99v-5.81h.94Z"/>
        <path class="cls-23" d="m359.03,39.6l.03.73c.44-.56,1.02-.84,1.74-.84,1.23,0,1.85.69,1.86,2.08v3.84h-.99v-3.85c0-.42-.1-.73-.29-.93-.19-.2-.48-.3-.88-.3-.32,0-.6.09-.85.26s-.43.4-.57.68v4.14h-.99v-5.81h.94Z"/>
        <path class="cls-23" d="m365.25,37.16h1.2l-1.44,1.58h-.8s1.04-1.58,1.04-1.58Zm-.01,8.24h-1v-5.81h1v5.81Z"/>
        <path class="cls-23" d="m370.94,38.19v1.41h1.08v.77h-1.08v3.61c0,.23.05.41.15.52.1.12.26.17.49.17.11,0,.27-.02.47-.06v.8c-.26.07-.52.11-.76.11-.44,0-.78-.13-1-.4s-.34-.65-.34-1.14v-3.6h-1.06v-.77h1.06v-1.41h.99Z"/>
        <path class="cls-23" d="m375.6,45.51c-.79,0-1.43-.26-1.92-.78-.49-.52-.74-1.21-.74-2.08v-.18c0-.58.11-1.09.33-1.54.22-.45.53-.81.92-1.06.4-.26.82-.38,1.29-.38.76,0,1.34.25,1.76.75s.63,1.21.63,2.14v.41h-3.94c.01.57.18,1.04.5,1.39.32.35.73.53,1.22.53.35,0,.65-.07.89-.21s.46-.33.64-.57l.61.47c-.49.75-1.22,1.12-2.19,1.12Zm-.12-5.21c-.4,0-.74.15-1.01.44-.27.29-.44.7-.5,1.23h2.91v-.08c-.03-.5-.16-.9-.41-1.17-.24-.28-.57-.42-.99-.42Z"/>
        <path class="cls-23" d="m383.93,42.57c0,.88-.2,1.6-.61,2.14s-.95.81-1.64.81-1.26-.22-1.67-.67v2.8h-.99v-8.05h.91l.05.64c.4-.5.97-.75,1.69-.75s1.25.26,1.66.79c.41.53.61,1.26.61,2.2v.09Zm-.99-.11c0-.66-.14-1.17-.42-1.55s-.66-.57-1.15-.57c-.6,0-1.05.27-1.35.8v2.78c.3.53.75.79,1.36.79.48,0,.85-.19,1.14-.57.28-.38.42-.94.42-1.68Z"/>
        <path class="cls-23" d="m386.27,45.41h-.99v-8.25h.99v8.25Z"/>
        <path class="cls-23" d="m387.59,42.45c0-.57.11-1.08.34-1.54.22-.45.54-.81.93-1.05.4-.25.85-.37,1.37-.37.79,0,1.43.27,1.92.82.49.55.73,1.28.73,2.19v.07c0,.57-.11,1.07-.33,1.52-.22.45-.53.8-.93,1.05-.4.25-.87.38-1.39.38-.79,0-1.43-.27-1.92-.82-.49-.55-.73-1.27-.73-2.18v-.07Zm1,.12c0,.64.15,1.16.45,1.55.3.39.7.59,1.2.59s.91-.2,1.2-.59c.3-.4.45-.95.45-1.66,0-.64-.15-1.15-.45-1.55-.3-.4-.7-.59-1.21-.59s-.89.2-1.19.59-.45.95-.45,1.68Z"/>
        <path class="cls-23" d="m395.48,38.19v1.41h1.08v.77h-1.08v3.61c0,.23.05.41.15.52.1.12.26.17.49.17.11,0,.27-.02.47-.06v.8c-.26.07-.52.11-.76.11-.44,0-.78-.13-1-.4s-.34-.65-.34-1.14v-3.6h-1.06v-.77h1.06v-1.41h.99Z"/>
        <path class="cls-23" d="m399.63,43.95l1.35-4.36h1.06l-2.34,6.71c-.36.97-.94,1.45-1.72,1.45l-.19-.02-.37-.07v-.81l.27.02c.34,0,.6-.07.79-.2.19-.14.34-.38.46-.75l.22-.59-2.07-5.75h1.08l1.45,4.36Z"/>
      </g>
    </g>
    <g>
      <g>
        <path class="cls-23" d="m22.3,43.94h3.55v1.08h-4.91v-7.82h1.36v6.74Z"/>
        <path class="cls-23" d="m28.8,43.15l1.18-3.94h1.39l-2.31,6.69c-.35.98-.96,1.47-1.8,1.47-.19,0-.4-.03-.63-.1v-1.01l.25.02c.33,0,.58-.06.74-.18.17-.12.3-.32.4-.6l.19-.5-2.04-5.78h1.41l1.23,3.94Z"/>
        <path class="cls-23" d="m35.37,43.44c0-.23-.1-.41-.29-.53s-.51-.23-.95-.32c-.44-.09-.81-.21-1.11-.35-.65-.31-.98-.77-.98-1.37,0-.5.21-.92.63-1.26.42-.34.96-.5,1.61-.5.7,0,1.26.17,1.68.52.43.34.64.79.64,1.34h-1.31c0-.25-.09-.46-.28-.63-.19-.17-.43-.25-.74-.25-.29,0-.52.07-.7.2-.18.13-.27.31-.27.53,0,.2.08.36.25.47.17.11.51.22,1.02.34.51.11.91.25,1.21.4.29.16.51.34.65.56.14.22.21.48.21.79,0,.52-.22.95-.65,1.27-.43.32-1,.49-1.7.49-.48,0-.9-.09-1.27-.26-.37-.17-.66-.41-.87-.71-.21-.3-.31-.62-.31-.97h1.27c.02.31.13.55.35.71.21.17.5.25.85.25s.61-.07.78-.2c.18-.13.27-.3.27-.51Z"/>
        <path class="cls-23" d="m41.27,45.02c-.06-.11-.11-.29-.15-.54-.42.43-.92.65-1.53.65s-1.06-.17-1.43-.5c-.37-.33-.55-.74-.55-1.24,0-.62.23-1.09.69-1.43.46-.33,1.12-.5,1.97-.5h.8v-.38c0-.3-.08-.54-.25-.72-.17-.18-.42-.27-.77-.27-.3,0-.54.07-.73.22-.19.15-.29.34-.29.57h-1.3c0-.32.11-.62.32-.89.21-.28.5-.49.86-.65s.77-.24,1.22-.24c.68,0,1.22.17,1.63.51.41.34.61.82.62,1.44v2.62c0,.52.07.94.22,1.25v.09h-1.33Zm-1.43-.94c.26,0,.5-.06.73-.19.23-.13.4-.29.51-.5v-1.1h-.7c-.48,0-.85.08-1.09.25-.24.17-.37.41-.37.71,0,.25.08.45.25.6.17.15.39.22.67.22Zm.73-7.31h1.49l-1.49,1.63h-1.05s1.05-1.63,1.05-1.63Z"/>
        <path class="cls-23" d="m47.77,39.84c.43-.49.96-.74,1.62-.74,1.24,0,1.87.71,1.88,2.12v3.8h-1.3v-3.75c0-.4-.09-.68-.26-.85-.17-.17-.43-.25-.77-.25-.52,0-.91.23-1.17.7v4.15h-1.3v-8.25h1.3v3.07Z"/>
        <path class="cls-23" d="m52.35,42.06c0-.57.11-1.08.34-1.54.23-.46.54-.81.95-1.05.41-.25.88-.37,1.41-.37.78,0,1.42.25,1.91.76.49.5.75,1.17.79,2.01v.31c0,.57-.1,1.08-.33,1.54-.22.45-.54.8-.95,1.05s-.88.37-1.42.37c-.82,0-1.48-.27-1.97-.82-.49-.55-.74-1.27-.74-2.18v-.06Zm1.31.11c0,.6.12,1.07.37,1.4.25.34.59.51,1.03.51s.78-.17,1.03-.52c.25-.34.37-.85.37-1.51,0-.59-.13-1.05-.38-1.4-.25-.34-.6-.52-1.03-.52s-.76.17-1.01.51c-.25.34-.38.84-.38,1.52Z"/>
        <path class="cls-23" d="m61.9,40.4c-.17-.03-.35-.04-.53-.04-.6,0-1,.23-1.21.69v3.97h-1.3v-5.81h1.25l.03.65c.31-.5.75-.76,1.31-.76.19,0,.34.02.46.08v1.22Z"/>
        <path class="cls-23" d="m66.03,45.02c-.06-.11-.11-.29-.15-.54-.42.43-.92.65-1.53.65s-1.06-.17-1.43-.5c-.37-.33-.55-.74-.55-1.24,0-.62.23-1.09.69-1.43.46-.33,1.12-.5,1.97-.5h.8v-.38c0-.3-.08-.54-.25-.72-.17-.18-.42-.27-.77-.27-.3,0-.54.07-.73.22-.19.15-.28.34-.28.57h-1.31c0-.32.11-.62.32-.89.21-.28.5-.49.86-.65.36-.16.77-.24,1.22-.24.68,0,1.22.17,1.63.51.4.34.61.82.62,1.44v2.62c0,.52.07.94.22,1.25v.09h-1.33Zm-1.43-.94c.26,0,.5-.06.73-.19s.4-.29.51-.5v-1.1h-.7c-.48,0-.85.08-1.09.25-.24.17-.37.41-.37.71,0,.25.08.45.25.6.17.15.39.22.67.22Z"/>
      </g>
      <path class="cls-1" d="m9.41,34.67c-2.8,0-5.07,2.27-5.07,5.07s5.07,9.03,5.07,9.03c0,0,5.06-6.24,5.06-9.03s-2.27-5.07-5.06-5.07Zm0,7.21c-1.3,0-2.35-1.05-2.35-2.35s1.05-2.35,2.35-2.35,2.35,1.05,2.35,2.35-1.05,2.35-2.35,2.35Z"/>
    </g>
    <g>
      <g>
        <path class="cls-23" d="m440.85,39.55c-.15-.02-.31-.04-.49-.04-.65,0-1.09.28-1.33.83v4.12h-.99v-5.81h.97l.02.67c.33-.52.79-.78,1.39-.78.19,0,.34.02.44.08v.92Z"/>
        <path class="cls-23" d="m444.17,44.57c-.79,0-1.43-.26-1.92-.78-.49-.52-.74-1.21-.74-2.08v-.18c0-.58.11-1.09.33-1.54.22-.45.53-.81.92-1.06.4-.26.82-.38,1.29-.38.76,0,1.34.25,1.76.75s.63,1.21.63,2.14v.41h-3.94c.01.57.18,1.04.5,1.39.32.35.73.53,1.22.53.35,0,.65-.07.89-.21s.46-.33.64-.57l.61.47c-.49.75-1.22,1.12-2.19,1.12Zm-.12-5.21c-.4,0-.74.15-1.01.44-.27.29-.44.7-.5,1.23h2.91v-.08c-.03-.5-.16-.9-.41-1.17-.24-.28-.57-.42-.99-.42Z"/>
        <path class="cls-23" d="m448.07,44.47v-5.04h-.92v-.77h.92v-.6c0-.62.17-1.1.5-1.44s.8-.51,1.41-.51c.23,0,.46.03.68.09l-.05.8c-.17-.03-.35-.05-.54-.05-.32,0-.57.09-.75.28-.18.19-.26.46-.26.81v.61h1.24v.77h-1.24v5.04h-.99Z"/>
        <path class="cls-23" d="m453.82,44.57c-.79,0-1.43-.26-1.92-.78-.49-.52-.74-1.21-.74-2.08v-.18c0-.58.11-1.09.33-1.54.22-.45.53-.81.92-1.06.4-.26.82-.38,1.29-.38.76,0,1.34.25,1.76.75s.63,1.21.63,2.14v.41h-3.94c.01.57.18,1.04.5,1.39.32.35.73.53,1.22.53.35,0,.65-.07.89-.21s.46-.33.64-.57l.61.47c-.49.75-1.22,1.12-2.19,1.12Zm-.12-5.21c-.4,0-.74.15-1.01.44-.27.29-.44.7-.5,1.23h2.91v-.08c-.03-.5-.16-.9-.41-1.17-.24-.28-.57-.42-.99-.42Z"/>
        <path class="cls-23" d="m460.04,39.55c-.15-.02-.31-.04-.49-.04-.65,0-1.09.28-1.33.83v4.12h-.99v-5.81h.97l.02.67c.33-.52.79-.78,1.39-.78.19,0,.34.02.44.08v.92Z"/>
        <path class="cls-23" d="m463.37,44.57c-.79,0-1.43-.26-1.92-.78-.49-.52-.74-1.21-.74-2.08v-.18c0-.58.11-1.09.33-1.54.22-.45.53-.81.92-1.06.4-.26.82-.38,1.29-.38.76,0,1.34.25,1.76.75s.63,1.21.63,2.14v.41h-3.94c.01.57.18,1.04.5,1.39.32.35.73.53,1.22.53.35,0,.65-.07.89-.21s.46-.33.64-.57l.61.47c-.49.75-1.22,1.12-2.19,1.12Zm-.12-5.21c-.4,0-.74.15-1.01.44-.27.29-.44.7-.5,1.23h2.91v-.08c-.03-.5-.16-.9-.41-1.17-.24-.28-.57-.42-.99-.42Z"/>
        <path class="cls-23" d="m467.72,38.66l.03.73c.44-.56,1.02-.84,1.74-.84,1.23,0,1.85.69,1.86,2.08v3.84h-.99v-3.85c0-.42-.1-.73-.29-.93-.19-.2-.48-.3-.88-.3-.32,0-.6.09-.85.26s-.43.4-.57.68v4.14h-.99v-5.81h.94Z"/>
        <path class="cls-23" d="m475.18,43.76c.35,0,.66-.11.93-.32s.41-.48.44-.81h.94c-.02.33-.13.65-.34.95s-.49.54-.85.72c-.35.18-.73.27-1.12.27-.79,0-1.42-.26-1.89-.79-.47-.53-.7-1.25-.7-2.17v-.17c0-.57.1-1.07.31-1.51s.51-.78.89-1.03c.39-.24.85-.37,1.38-.37.65,0,1.19.2,1.62.59.43.39.66.9.69,1.52h-.94c-.03-.38-.17-.68-.43-.93-.26-.24-.57-.36-.95-.36-.5,0-.9.18-1.17.54-.28.36-.42.89-.42,1.58v.19c0,.67.14,1.19.41,1.55s.67.54,1.18.54Zm-.23-6.63l.81-.91h.86v.05l-1.36,1.47h-.61l-1.35-1.47v-.05h.84l.81.91Z"/>
        <path class="cls-23" d="m479.55,38.66l.03.73c.44-.56,1.02-.84,1.74-.84,1.23,0,1.85.69,1.86,2.08v3.84h-.99v-3.85c0-.42-.1-.73-.29-.93-.19-.2-.48-.3-.88-.3-.32,0-.6.09-.85.26s-.43.4-.57.68v4.14h-.99v-5.81h.94Z"/>
        <path class="cls-23" d="m485.77,36.22h1.2l-1.44,1.58h-.8s1.04-1.58,1.04-1.58Zm-.01,8.24h-1v-5.81h1v5.81Z"/>
        <path class="cls-23" d="m489.86,41.51c0-.57.11-1.08.34-1.54.22-.45.54-.81.93-1.05.4-.25.85-.37,1.37-.37.79,0,1.43.27,1.92.82.49.55.73,1.28.73,2.19v.07c0,.57-.11,1.07-.33,1.52-.22.45-.53.8-.93,1.05-.4.25-.87.38-1.39.38-.79,0-1.43-.27-1.92-.82-.49-.55-.73-1.27-.73-2.18v-.07Zm1,.12c0,.64.15,1.16.45,1.55.3.39.7.59,1.2.59s.91-.2,1.2-.59c.3-.4.45-.95.45-1.66,0-.64-.15-1.15-.45-1.55-.3-.4-.7-.59-1.21-.59s-.89.2-1.19.59-.45.95-.45,1.68Z"/>
        <path class="cls-23" d="m501.31,41.63c0,.89-.2,1.6-.61,2.14-.41.54-.96.81-1.64.81-.73,0-1.3-.26-1.7-.78l-.05.67h-.91v-8.25h.99v3.08c.4-.5.95-.75,1.66-.75s1.26.27,1.66.8c.4.53.6,1.26.6,2.19v.09Zm-.99-.11c0-.68-.13-1.2-.39-1.57s-.64-.55-1.13-.55c-.66,0-1.13.3-1.41.91v2.51c.3.61.78.91,1.42.91.48,0,.85-.18,1.11-.55s.4-.92.4-1.67Z"/>
        <path class="cls-23" d="m502.32,41.51c0-.89.21-1.61.63-2.15.42-.54.98-.81,1.66-.81s1.22.23,1.62.7v-3.03h.99v8.25h-.91l-.05-.62c-.4.49-.95.73-1.66.73s-1.22-.28-1.65-.83c-.42-.55-.64-1.27-.64-2.16v-.08Zm.99.11c0,.66.14,1.17.41,1.55s.65.56,1.13.56c.63,0,1.09-.28,1.38-.85v-2.67c-.3-.55-.75-.82-1.37-.82-.49,0-.87.19-1.14.56s-.41.93-.41,1.67Z"/>
        <path class="cls-23" d="m508.5,41.51c0-.57.11-1.08.34-1.54.22-.45.54-.81.93-1.05.4-.25.85-.37,1.37-.37.79,0,1.43.27,1.92.82.49.55.73,1.28.73,2.19v.07c0,.57-.11,1.07-.33,1.52-.22.45-.53.8-.93,1.05-.4.25-.87.38-1.39.38-.79,0-1.43-.27-1.92-.82-.49-.55-.73-1.27-.73-2.18v-.07Zm1,.12c0,.64.15,1.16.45,1.55.3.39.7.59,1.2.59s.91-.2,1.2-.59c.3-.4.45-.95.45-1.66,0-.64-.15-1.15-.45-1.55-.3-.4-.7-.59-1.21-.59s-.89.2-1.19.59-.45.95-.45,1.68Z"/>
        <path class="cls-23" d="m519.96,41.63c0,.89-.2,1.6-.61,2.14-.41.54-.96.81-1.64.81-.73,0-1.3-.26-1.7-.78l-.05.67h-.91v-8.25h.99v3.08c.4-.5.95-.75,1.66-.75s1.26.27,1.66.8c.4.53.6,1.26.6,2.19v.09Zm-.99-.11c0-.68-.13-1.2-.39-1.57s-.64-.55-1.13-.55c-.66,0-1.13.3-1.41.91v2.51c.3.61.78.91,1.42.91.48,0,.85-.18,1.11-.55s.4-.92.4-1.67Z"/>
        <path class="cls-23" d="m522.3,36.22h1.2l-1.44,1.58h-.8s1.04-1.58,1.04-1.58Zm-.01,8.24h-1v-5.81h1v5.81Z"/>
        <path class="cls-23" d="m530.02,44.47h-1.3v-6.28l-1.92.65v-1.1l3.05-1.12h.17v7.85Z"/>
        <path class="cls-23" d="m536.44,41.2c-.44.46-.95.69-1.53.69-.69,0-1.24-.24-1.64-.72-.41-.48-.61-1.11-.61-1.9,0-.52.1-.98.31-1.4s.5-.74.89-.98.83-.35,1.33-.35c.79,0,1.41.29,1.87.88s.69,1.37.69,2.36v.37c0,1.41-.32,2.49-.96,3.23s-1.59,1.12-2.85,1.13h-.16v-1.08h.19c.77-.01,1.36-.2,1.77-.56.41-.36.64-.92.69-1.67Zm-1.26-.33c.26,0,.51-.08.74-.23s.41-.36.53-.62v-.51c0-.58-.12-1.04-.35-1.39s-.54-.53-.92-.53-.68.15-.9.46c-.22.31-.34.7-.34,1.17s.11.89.34,1.19.53.45.9.45Z"/>
        <path class="cls-23" d="m543.05,36.61v1.08h-.16c-.73.01-1.31.21-1.75.6s-.7.94-.78,1.66c.42-.44.95-.66,1.61-.66.69,0,1.24.24,1.64.73.4.49.6,1.12.6,1.89s-.23,1.44-.7,1.93c-.47.49-1.08.74-1.84.74s-1.41-.29-1.9-.86c-.49-.58-.73-1.33-.73-2.27v-.45c0-1.37.33-2.45,1-3.22.67-.78,1.63-1.17,2.88-1.17h.13Zm-1.4,3.73c-.29,0-.55.08-.79.24-.24.16-.41.38-.52.64v.4c0,.58.12,1.04.37,1.38.24.34.56.51.95.51s.69-.15.92-.44.34-.67.34-1.14-.11-.86-.34-1.15-.53-.45-.91-.45Z"/>
        <path class="cls-23" d="m548.78,44.47h-1.3v-6.28l-1.92.65v-1.1l3.05-1.12h.17v7.85Z"/>
        <path class="cls-23" d="m557.22,41.13h-5.47v-1.05h5.47v1.05Z"/>
        <path class="cls-23" d="m562.12,44.47h-1.3v-6.28l-1.92.65v-1.1l3.05-1.12h.17v7.85Z"/>
        <path class="cls-23" d="m568.54,41.2c-.44.46-.95.69-1.53.69-.69,0-1.24-.24-1.64-.72-.41-.48-.61-1.11-.61-1.9,0-.52.1-.98.31-1.4s.5-.74.89-.98.83-.35,1.33-.35c.79,0,1.41.29,1.87.88s.69,1.37.69,2.36v.37c0,1.41-.32,2.49-.96,3.23s-1.59,1.12-2.85,1.13h-.16v-1.08h.19c.77-.01,1.36-.2,1.77-.56.41-.36.64-.92.69-1.67Zm-1.26-.33c.26,0,.51-.08.74-.23s.41-.36.53-.62v-.51c0-.58-.12-1.04-.35-1.39s-.54-.53-.92-.53-.68.15-.9.46c-.22.31-.34.7-.34,1.17s.11.89.34,1.19.53.45.9.45Z"/>
        <path class="cls-23" d="m576.02,38.71c0,.38-.1.72-.3,1.02-.2.3-.47.53-.81.71.41.19.72.45.94.78.22.33.33.7.33,1.12,0,.69-.23,1.23-.7,1.64-.47.4-1.08.6-1.86.6s-1.4-.2-1.87-.61c-.47-.4-.7-.95-.7-1.63,0-.42.11-.79.33-1.13s.53-.59.93-.77c-.34-.17-.6-.41-.8-.71-.19-.3-.29-.64-.29-1.02,0-.67.21-1.19.64-1.58s1.01-.59,1.74-.59,1.32.2,1.75.59.64.92.64,1.58Zm-1.13,3.56c0-.39-.12-.7-.35-.94-.23-.24-.54-.36-.92-.36s-.68.12-.91.35c-.23.24-.34.55-.34.94s.11.69.34.92c.22.23.53.34.93.34s.7-.11.92-.33c.22-.22.33-.53.33-.93Zm-.17-3.51c0-.34-.1-.62-.3-.84-.2-.22-.46-.33-.79-.33s-.6.1-.79.31c-.19.21-.29.5-.29.86s.1.64.29.85c.19.21.46.32.79.32s.6-.11.79-.32c.2-.21.29-.5.29-.85Z"/>
        <path class="cls-23" d="m582.44,41.17c0,1.12-.21,1.97-.63,2.54-.42.57-1.06.86-1.92.86s-1.48-.28-1.91-.83c-.43-.56-.65-1.38-.66-2.47v-1.35c0-1.12.21-1.97.63-2.53.42-.56,1.06-.84,1.93-.84s1.49.27,1.91.82c.42.55.64,1.37.65,2.46v1.35Zm-1.31-1.46c0-.73-.1-1.27-.3-1.61-.2-.34-.52-.51-.96-.51s-.74.16-.94.49c-.2.32-.31.83-.32,1.52v1.77c0,.73.1,1.27.31,1.63s.52.54.96.54.73-.17.93-.5c.2-.33.31-.85.32-1.55v-1.77Z"/>
      </g>
      <g>
        <rect class="cls-1" x="420.18" y="35.91" width="11.9" height="11.65" rx="2" ry="2"/>
        <line class="cls-1" x1="420.18" y1="38.97" x2="432.07" y2="38.97"/>
        <g>
          <line class="cls-1" x1="422.9" y1="34.65" x2="422.9" y2="36.64"/>
          <line class="cls-1" x1="426.13" y1="34.65" x2="426.13" y2="36.64"/>
          <line class="cls-1" x1="429.35" y1="34.65" x2="429.35" y2="36.64"/>
        </g>
        <rect class="cls-1" x="422.49" y="41.22" width=".81" height=".81"/>
        <rect class="cls-1" x="422.49" y="44.47" width=".81" height=".81"/>
        <rect class="cls-1" x="425.71" y="41.21" width=".82" height=".82"/>
        <g>
          <circle class="cls-6" cx="429.87" cy="45.37" r="3.74"/>
          <polyline class="cls-7" points="428.11 45.72 429.29 46.9 431.64 44.56"/>
        </g>
      </g>
    </g>
    <g>
      <path class="cls-23" d="m9.03,200.01h-1.36l-3.49-5.55v5.55h-1.36v-7.82h1.36l3.5,5.57v-5.57h1.35v7.82Z"/>
      <path class="cls-23" d="m13.98,200.01c-.06-.11-.11-.29-.15-.54-.42.43-.92.65-1.53.65s-1.06-.17-1.43-.5-.55-.74-.55-1.24c0-.62.23-1.09.69-1.43.46-.33,1.12-.5,1.97-.5h.8v-.38c0-.3-.08-.54-.25-.72-.17-.18-.42-.27-.77-.27-.3,0-.54.07-.73.22-.19.15-.28.34-.28.57h-1.31c0-.32.11-.62.32-.89.21-.28.5-.49.86-.65.36-.16.77-.24,1.22-.24.68,0,1.22.17,1.63.51.4.34.61.82.62,1.44v2.62c0,.52.07.94.22,1.25v.09h-1.33Zm-1.43-.94c.26,0,.5-.06.73-.19.23-.13.4-.29.51-.5v-1.1h-.7c-.48,0-.85.08-1.09.25s-.37.41-.37.71c0,.25.08.45.25.6.17.15.39.22.67.22Z"/>
      <path class="cls-23" d="m17.69,194.2l.04.61c.41-.48.97-.71,1.68-.71.78,0,1.31.3,1.6.89.42-.59,1.02-.89,1.78-.89.64,0,1.12.18,1.43.53.31.35.47.88.48,1.57v3.82h-1.31v-3.78c0-.37-.08-.64-.24-.81s-.43-.26-.8-.26c-.3,0-.54.08-.73.24-.19.16-.32.37-.4.63v3.99s-1.3,0-1.3,0v-3.82c-.02-.68-.37-1.03-1.05-1.03-.52,0-.89.21-1.11.64v4.21h-1.31v-5.81h1.23Z"/>
      <path class="cls-23" d="m28.59,200.11c-.83,0-1.5-.26-2.01-.78-.51-.52-.77-1.21-.77-2.08v-.16c0-.58.11-1.1.34-1.56.22-.46.54-.81.94-1.07s.86-.38,1.35-.38c.79,0,1.4.25,1.83.76.43.5.65,1.22.65,2.14v.53h-3.8c.04.48.2.86.48,1.14.28.28.63.42,1.06.42.6,0,1.08-.24,1.46-.73l.7.67c-.23.35-.54.62-.93.81-.39.19-.82.29-1.31.29Zm-.25-7.53l.78-.83h1.12v.05l-1.5,1.5h-.81l-1.49-1.5v-.05h1.11l.78.83Zm.1,2.55c-.36,0-.65.13-.87.38-.22.25-.36.6-.42,1.05h2.49v-.1c-.03-.44-.15-.77-.35-.99-.2-.22-.49-.34-.85-.34Z"/>
      <path class="cls-23" d="m33.46,192.58l.78-.83h1.12v.05l-1.5,1.5h-.81l-1.49-1.5v-.05h1.11l.78.83Zm1.52,2.8c-.17-.03-.35-.04-.53-.04-.6,0-1,.23-1.21.69v3.97h-1.31v-5.81h1.25l.03.65c.31-.5.75-.76,1.31-.76.19,0,.34.02.46.08v1.22Z"/>
      <path class="cls-23" d="m38.36,200.11c-.83,0-1.5-.26-2.01-.78-.51-.52-.77-1.21-.77-2.08v-.16c0-.58.11-1.1.34-1.56.22-.46.54-.81.94-1.07s.86-.38,1.35-.38c.79,0,1.4.25,1.83.76.43.5.65,1.22.65,2.14v.53h-3.8c.04.48.2.86.48,1.14.28.28.63.42,1.06.42.6,0,1.08-.24,1.46-.73l.7.67c-.23.35-.54.62-.93.81-.39.19-.82.29-1.31.29Zm-.16-4.98c-.36,0-.65.13-.87.38-.22.25-.36.6-.42,1.05h2.49v-.1c-.03-.44-.15-.77-.35-.99-.2-.22-.49-.34-.85-.34Z"/>
      <path class="cls-23" d="m42.92,194.2l.04.67c.43-.52.99-.78,1.69-.78,1.21,0,1.83.69,1.85,2.08v3.84h-1.31v-3.77c0-.37-.08-.64-.24-.82-.16-.18-.42-.27-.78-.27-.53,0-.92.24-1.18.71v4.14h-1.31v-5.81h1.23Z"/>
      <path class="cls-23" d="m51.3,200.01c-.06-.11-.11-.29-.15-.54-.42.43-.92.65-1.53.65s-1.06-.17-1.43-.5-.55-.74-.55-1.24c0-.62.23-1.09.69-1.43.46-.33,1.12-.5,1.97-.5h.8v-.38c0-.3-.08-.54-.25-.72-.17-.18-.42-.27-.77-.27-.3,0-.54.07-.73.22-.19.15-.28.34-.28.57h-1.31c0-.32.11-.62.32-.89.21-.28.5-.49.86-.65.36-.16.77-.24,1.22-.24.68,0,1.22.17,1.63.51.4.34.61.82.62,1.44v2.62c0,.52.07.94.22,1.25v.09h-1.33Zm-1.43-.94c.26,0,.5-.06.73-.19.23-.13.4-.29.51-.5v-1.1h-.7c-.48,0-.85.08-1.09.25s-.37.41-.37.71c0,.25.08.45.25.6.17.15.39.22.67.22Zm.73-7.31h1.49l-1.49,1.63h-1.05s1.05-1.63,1.05-1.63Z"/>
      <path class="cls-23" d="m58.15,192.78v1.41h1.03v.97h-1.03v3.24c0,.22.04.38.13.48.09.1.24.15.47.15.15,0,.3-.02.46-.05v1.01c-.3.08-.58.12-.86.12-1,0-1.5-.55-1.5-1.66v-3.29h-.96v-.97h.96v-1.41h1.31Z"/>
      <path class="cls-23" d="m62.73,200.11c-.83,0-1.5-.26-2.01-.78-.51-.52-.77-1.21-.77-2.08v-.16c0-.58.11-1.1.34-1.56.22-.46.54-.81.94-1.07s.86-.38,1.35-.38c.79,0,1.4.25,1.83.76.43.5.65,1.22.65,2.14v.53h-3.8c.04.48.2.86.48,1.14.28.28.63.42,1.06.42.6,0,1.08-.24,1.46-.73l.7.67c-.23.35-.54.62-.93.81-.39.19-.82.29-1.31.29Zm-.16-4.98c-.36,0-.65.13-.87.38-.22.25-.36.6-.42,1.05h2.49v-.1c-.03-.44-.15-.77-.35-.99-.2-.22-.49-.34-.85-.34Z"/>
      <path class="cls-23" d="m71.16,197.16c0,.9-.2,1.62-.61,2.15-.41.54-.96.8-1.64.8-.64,0-1.15-.21-1.53-.63v2.76h-1.31v-8.05h1.2l.05.59c.38-.47.9-.7,1.56-.7.71,0,1.27.26,1.67.79.4.53.6,1.26.6,2.2v.08Zm-1.3-.11c0-.58-.12-1.04-.35-1.38-.23-.34-.56-.51-.99-.51-.53,0-.92.22-1.15.66v2.58c.24.45.62.68,1.16.68.42,0,.74-.17.98-.5.23-.33.35-.84.35-1.52Z"/>
      <path class="cls-23" d="m73.66,200.01h-1.31v-8.25h1.31v8.25Z"/>
      <path class="cls-23" d="m74.83,197.05c0-.57.11-1.08.34-1.54.23-.46.54-.81.95-1.05.41-.25.88-.37,1.41-.37.78,0,1.42.25,1.91.76.49.5.75,1.17.79,2.01v.31c0,.57-.1,1.08-.33,1.54-.22.45-.54.8-.95,1.05-.41.25-.88.37-1.42.37-.82,0-1.48-.27-1.97-.82-.49-.55-.74-1.27-.74-2.18v-.06Zm1.31.11c0,.6.12,1.07.37,1.4.25.34.59.51,1.03.51s.78-.17,1.03-.52c.25-.34.37-.85.37-1.51,0-.59-.13-1.05-.38-1.4-.25-.34-.6-.52-1.03-.52s-.76.17-1.02.51c-.25.34-.38.84-.38,1.52Z"/>
      <path class="cls-23" d="m82.98,192.78v1.41h1.03v.97h-1.03v3.24c0,.22.04.38.13.48.09.1.24.15.47.15.15,0,.3-.02.46-.05v1.01c-.3.08-.58.12-.86.12-1,0-1.5-.55-1.5-1.66v-3.29h-.96v-.97h.96v-1.41h1.31Z"/>
      <path class="cls-23" d="m88.47,200.01c-.06-.11-.11-.29-.15-.54-.42.43-.92.65-1.53.65s-1.06-.17-1.43-.5-.55-.74-.55-1.24c0-.62.23-1.09.69-1.43.46-.33,1.12-.5,1.97-.5h.8v-.38c0-.3-.08-.54-.25-.72-.17-.18-.42-.27-.77-.27-.3,0-.54.07-.73.22-.19.15-.28.34-.28.57h-1.31c0-.32.11-.62.32-.89.21-.28.5-.49.86-.65.36-.16.77-.24,1.22-.24.68,0,1.22.17,1.63.51.4.34.61.82.62,1.44v2.62c0,.52.07.94.22,1.25v.09h-1.33Zm-1.43-.94c.26,0,.5-.06.73-.19.23-.13.4-.29.51-.5v-1.1h-.7c-.48,0-.85.08-1.09.25s-.37.41-.37.71c0,.25.08.45.25.6.17.15.39.22.67.22Z"/>
    </g>
    <line class="cls-3" y1="204.05" x2="660" y2="204.05"/>
    <g>
      <path class="cls-23" d="m8.48,239.46h-2.44v6.72h-1.35v-6.72h-2.42v-1.1h6.2v1.1Z"/>
      <path class="cls-23" d="m11.94,246.3c-.83,0-1.5-.26-2.01-.78-.51-.52-.77-1.21-.77-2.08v-.16c0-.58.11-1.1.34-1.55.22-.46.54-.81.94-1.07.4-.25.86-.38,1.35-.38.79,0,1.4.25,1.83.76.43.5.65,1.22.65,2.14v.53h-3.8c.04.48.2.86.48,1.14.28.28.63.42,1.06.42.6,0,1.08-.24,1.46-.73l.7.67c-.23.35-.54.62-.93.81-.39.19-.82.29-1.31.29Zm-.16-4.98c-.36,0-.65.13-.87.38-.22.25-.36.6-.42,1.05h2.49v-.1c-.03-.44-.15-.77-.35-.99s-.49-.34-.85-.34Z"/>
      <path class="cls-23" d="m20.37,243.34c0,.9-.2,1.62-.61,2.15-.41.54-.96.8-1.64.8-.64,0-1.15-.21-1.53-.63v2.76h-1.31v-8.05h1.2l.05.59c.38-.47.9-.7,1.56-.7.71,0,1.27.26,1.67.79.4.53.6,1.26.6,2.2v.08Zm-1.3-.11c0-.58-.12-1.04-.35-1.38-.23-.34-.56-.51-.99-.51-.53,0-.92.22-1.15.66v2.58c.24.45.62.68,1.16.68.42,0,.74-.17.98-.5.23-.33.35-.84.35-1.52Z"/>
      <path class="cls-23" d="m22.86,246.19h-1.31v-8.25h1.31v8.25Z"/>
      <path class="cls-23" d="m24.04,243.23c0-.57.11-1.08.34-1.54.23-.46.54-.81.95-1.05.41-.25.88-.37,1.41-.37.78,0,1.42.25,1.91.76.49.5.75,1.17.79,2.01v.31c0,.57-.1,1.08-.33,1.54-.22.45-.54.8-.95,1.05-.41.25-.88.37-1.42.37-.82,0-1.48-.27-1.97-.82-.49-.55-.74-1.27-.74-2.18v-.06Zm1.31.11c0,.6.12,1.07.37,1.4.25.34.59.51,1.03.51s.78-.17,1.03-.52c.25-.34.37-.85.37-1.51,0-.59-.13-1.05-.38-1.4-.25-.34-.6-.52-1.03-.52s-.76.17-1.02.51c-.25.34-.38.84-.38,1.52Z"/>
      <path class="cls-23" d="m32.18,238.96v1.41h1.03v.97h-1.03v3.24c0,.22.04.38.13.48.09.1.24.15.47.15.15,0,.3-.02.46-.05v1.01c-.3.08-.58.12-.86.12-1,0-1.5-.55-1.5-1.66v-3.29h-.96v-.97h.96v-1.41h1.31Z"/>
      <path class="cls-23" d="m35.41,240.38l.04.67c.43-.52.99-.78,1.69-.78,1.21,0,1.83.69,1.85,2.08v3.84h-1.31v-3.77c0-.37-.08-.64-.24-.82-.16-.18-.42-.27-.78-.27-.53,0-.92.24-1.18.71v4.14h-1.31v-5.81h1.23Z"/>
      <path class="cls-23" d="m41.73,246.19h-1.31v-5.81h1.31v5.81Zm-.25-8.21h1.49l-1.49,1.63h-1.05s1.05-1.63,1.05-1.63Z"/>
      <path class="cls-23" d="m45.71,243.23c0-.57.11-1.08.34-1.54.23-.46.54-.81.95-1.05.41-.25.88-.37,1.41-.37.78,0,1.42.25,1.91.76.49.5.75,1.17.79,2.01v.31c0,.57-.1,1.08-.33,1.54-.22.45-.54.8-.95,1.05-.41.25-.88.37-1.42.37-.82,0-1.48-.27-1.97-.82-.49-.55-.74-1.27-.74-2.18v-.06Zm1.31.11c0,.6.12,1.07.37,1.4.25.34.59.51,1.03.51s.78-.17,1.03-.52c.25-.34.37-.85.37-1.51,0-.59-.13-1.05-.38-1.4-.25-.34-.6-.52-1.03-.52s-.76.17-1.02.51c-.25.34-.38.84-.38,1.52Z"/>
      <path class="cls-23" d="m51.97,243.24c0-.89.21-1.61.62-2.16.42-.54.97-.81,1.67-.81.62,0,1.11.21,1.49.64v-2.98h1.31v8.25h-1.18l-.06-.6c-.39.47-.91.71-1.56.71s-1.23-.27-1.65-.82c-.42-.55-.63-1.29-.63-2.23Zm1.31.11c0,.59.11,1.05.34,1.38.23.33.55.5.97.5.53,0,.92-.24,1.17-.71v-2.48c-.24-.46-.63-.7-1.16-.7-.42,0-.75.17-.98.5-.23.33-.34.84-.34,1.51Z"/>
      <path class="cls-23" d="m60.81,245.25c.33,0,.6-.09.81-.29.21-.19.33-.42.34-.7h1.23c-.01.36-.13.7-.34,1.01-.21.31-.5.56-.86.74s-.75.27-1.17.27c-.81,0-1.46-.26-1.93-.79s-.71-1.25-.71-2.18v-.13c0-.88.24-1.59.71-2.12.47-.53,1.12-.8,1.93-.8.69,0,1.25.2,1.69.6.44.4.66.93.69,1.59h-1.23c-.01-.33-.13-.61-.34-.82-.21-.21-.48-.32-.81-.32-.42,0-.75.15-.98.46-.23.31-.35.77-.35,1.39v.21c0,.63.11,1.1.34,1.41.23.31.56.46.99.46Z"/>
      <path class="cls-23" d="m65.47,241.01c.43-.49.96-.74,1.62-.74,1.24,0,1.87.71,1.89,2.12v3.8h-1.31v-3.75c0-.4-.09-.68-.26-.85-.17-.17-.43-.25-.77-.25-.52,0-.91.23-1.17.7v4.15h-1.31v-8.25h1.31v3.07Z"/>
      <path class="cls-23" d="m72.32,244.32l1.18-3.94h1.39l-2.31,6.69c-.35.98-.96,1.47-1.8,1.47-.19,0-.4-.03-.63-.1v-1.01l.25.02c.33,0,.58-.06.74-.18.17-.12.3-.32.4-.6l.19-.5-2.04-5.78h1.41l1.23,3.94Z"/>
      <path class="cls-23" d="m77.03,246.19h-1.31v-8.25h1.31v8.25Z"/>
      <path class="cls-23" d="m80.34,243.7l-.58.6v1.9h-1.31v-8.25h1.31v4.76l.41-.51,1.61-1.81h1.57l-2.16,2.42,2.39,3.39h-1.51l-1.72-2.49Z"/>
      <path class="cls-23" d="m87.66,246.19c-.06-.11-.11-.29-.15-.54-.42.43-.92.65-1.53.65s-1.06-.17-1.43-.5-.55-.74-.55-1.24c0-.62.23-1.09.69-1.43.46-.33,1.12-.5,1.97-.5h.8v-.38c0-.3-.08-.54-.25-.72s-.42-.27-.77-.27c-.3,0-.54.07-.73.22-.19.15-.28.34-.28.57h-1.31c0-.32.11-.62.32-.89s.5-.5.86-.65c.36-.16.77-.24,1.22-.24.68,0,1.22.17,1.63.51s.61.82.62,1.44v2.62c0,.52.07.94.22,1.25v.09h-1.33Zm-1.43-.94c.26,0,.5-.06.73-.19.23-.13.4-.29.51-.5v-1.1h-.7c-.48,0-.85.08-1.09.25-.24.17-.37.41-.37.71,0,.25.08.45.25.6.17.15.39.22.67.22Z"/>
    </g>
    <line class="cls-3" y1="250.23" x2="660" y2="250.23"/>
    <line class="cls-4" x1="550.29" y1="160.48" x2="550.29" y2="137.03"/>
    <circle class="cls-10" cx="550.29" cy="204.05" r="2.5"/>
    <circle class="cls-10" cx="550.29" cy="250.54" r="2.5"/>
  </g>
</svg>