<?xml version="1.0" encoding="UTF-8"?><svg xmlns="http://www.w3.org/2000/svg" viewBox="0 0 660 290"><defs><style>.h,.i,.j,.k,.l{fill:none;}.h,.i,.j,.k,.l,.m,.n{stroke-linecap:round;}.h,.j,.m,.n{stroke:#666c80;}.h,.k,.o,.m,.n{stroke-width:.75px;}.h,.m,.n{stroke-linejoin:round;}.i{stroke:#4c5c68;stroke-dasharray:0 0 4 6;stroke-width:1.25px;}.i,.j,.p,.q,.r,.s,.t,.u,.v,.k,.l,.o{stroke-miterlimit:10;}.w{opacity:.1;}.x{fill:#f7cfc9;}.y{fill:#e9ebf4;}.z{fill:#ee9f92;}.aa,.m{fill:#fff;}.ab{fill:#ee725f;}.ac{fill:#fceae9;}.ad,.s{fill:#e6625c;}.ae,.q{fill:#666c80;}.af{fill:#cacde3;}.ag{fill:#3e4d59;}.ah{fill:#959cc7;}.ai{fill:#5b6872;}.aj{fill:#4c5c68;}.ak{fill:#606bac;}.p{fill:#f5c5bd;}.p,.q,.r,.s,.t,.u,.v{stroke:#fff;stroke-width:.25px;}.r{fill:#8f96c4;}.t{fill:#fae0df;}.u{fill:#bfc3dd;}.v{fill:#dfe1ee;}.k{stroke-dasharray:0 0 1 3;}.k,.l,.o{stroke:#606060;}.l{opacity:.5;stroke-width:.5px;}.o{fill:#ee998c;}.n{fill:#eff0f2;}</style></defs><g id="a"><rect class="aa" width="660" height="290"/></g><g id="f"><rect class="x" x="487.82" y="208.14" width="7" height="91.79" transform="translate(745.36 -237.28) rotate(90)"/><rect class="z" x="561.25" y="226.5" width="7" height="55.07" transform="translate(818.79 -310.72) rotate(90)"/><rect class="ad" x="622.64" y="220.18" width="7" height="67.71" transform="translate(880.18 -372.11) rotate(90)"/><rect class="ac" x="368.5" y="180.61" width="7" height="146.86" transform="translate(626.03 -117.96) rotate(90)"/><rect class="af" x="102.31" y="208.14" width="7" height="91.79" transform="translate(359.84 148.23) rotate(90)"/><rect class="ah" x="28.88" y="226.5" width="7" height="55.07" transform="translate(286.41 221.66) rotate(90)"/><rect class="ak" x="-1.08" y="251.62" width="7" height="4.84" transform="translate(256.46 251.62) rotate(90)"/><rect class="y" x="221.63" y="180.61" width="7" height="146.86" transform="translate(479.17 28.9) rotate(90)"/><line class="k" x1="550.29" y1="173.98" x2="550.29" y2="250.23"/></g><g id="g"><path d="m9.43,13.39h-2.33v9.6h-2.48v-9.6h-2.33v-2.29h7.14v2.29Z"/><path d="m18.57,20.7v2.29h-6.31v-11.9h6.14v2.29h-3.72v2.46h3.38v2.21h-3.38v2.63h3.89Z"/><path d="m29.3,15.14c0,2.53-1.46,4.03-3.93,4.03h-1.04v3.83h-2.41v-11.9h3.45c2.46,0,3.93,1.5,3.93,4.05Zm-2.48,0c0-1.16-.51-1.75-1.48-1.75h-1v3.48h1c.97,0,1.48-.59,1.48-1.73Z"/><path d="m38.28,20.7v2.29h-5.95v-11.9h2.41v9.6h3.54Z"/><path d="m40.79,19.14v-4.18c0-2.55,1.45-4.06,3.86-4.06s3.86,1.51,3.86,4.06v4.18c0,2.55-1.45,4.06-3.86,4.06s-3.86-1.51-3.86-4.06Zm5.22,0v-4.18c0-1.12-.46-1.72-1.36-1.72s-1.36.59-1.36,1.72v4.18c0,1.12.46,1.72,1.36,1.72s1.36-.6,1.36-1.72Z"/><path d="m58.32,13.39h-2.33v9.6h-2.48v-9.6h-2.33v-2.29h7.14v2.29Z"/><path d="m65.05,21.03h-2.52l-.39,1.97h-2.5l2.86-11.9h2.58l2.86,11.9h-2.5l-.39-1.97Zm-.48-2.29l-.27-1.36c-.15-.85-.36-2.29-.48-3.26h-.07c-.12.97-.31,2.41-.48,3.26l-.27,1.36h1.56Z"/><path d="m75.85,11.1h2.38l2.26,5.17c.29.75.56,1.53.85,2.28l.05-.05c-.2-1.5-.34-3.54-.34-4.64v-2.75h2.38v11.9h-2.38l-2.01-4.61-1.07-2.91-.05.05c.19,1.5.31,3.72.31,5.05v2.41h-2.38v-11.9Z"/><path d="m91.64,21.03h-2.52l-.39,1.97h-2.5l2.86-11.9h2.58l2.86,11.9h-2.5l-.39-1.97Zm-.48-2.29l-.27-1.36c-.15-.85-.36-2.29-.48-3.26h-.07c-.12.97-.31,2.41-.48,3.26l-.27,1.36h1.56Z"/><path d="m108.38,20.7v2.29h-5.95v-11.9h2.41v9.6h3.54Z"/><path d="m117.55,20.7v2.29h-6.31v-11.9h6.14v2.29h-3.72v2.46h3.38v2.21h-3.38v2.63h3.89Z"/><path d="m127.24,13.39h-2.33v9.6h-2.48v-9.6h-2.33v-2.29h7.14v2.29Z"/><path d="m130.08,11.1h2.38l2.26,5.17c.29.75.56,1.53.85,2.28l.05-.05c-.2-1.5-.34-3.54-.34-4.64v-2.75h2.38v11.9h-2.38l-2.01-4.61-1.07-2.91-.05.05c.19,1.5.31,3.72.31,5.05v2.41h-2.38v-11.9Z"/><path d="m141.47,11.1h2.41v11.9h-2.41v-11.9Zm1.65-3.47h1.92l-1.92,2.33h-1.6l1.6-2.33Z"/><path d="m152.06,19.53h2.48c0,.95.48,1.36,1.24,1.36s1.19-.46,1.19-1.05c0-1.97-4.66-2.21-4.66-5.83,0-1.82,1.27-3.14,3.47-3.14s3.52,1.31,3.52,3.5h-2.48c0-.78-.36-1.17-1.05-1.17-.63,0-1,.34-1,.88,0,1.87,4.73,1.99,4.73,5.78,0,1.95-1.38,3.38-3.74,3.38s-3.69-1.31-3.69-3.71Z"/><path d="m168.41,20.7v2.29h-5.95v-11.9h2.41v9.6h3.54Z"/><path d="m170.62,19.21v-8.11h2.46v8.11c0,1.07.42,1.65,1.27,1.65s1.28-.58,1.28-1.65v-8.11h2.46v8.11c0,2.5-1.39,4-3.74,4s-3.74-1.5-3.74-4Z"/><path d="m181.7,11.1h2.38l2.26,5.17c.29.75.56,1.53.85,2.28l.05-.05c-.2-1.5-.34-3.54-.34-4.64v-2.75h2.38v11.9h-2.38l-2.01-4.61-1.07-2.91-.05.05c.19,1.5.31,3.72.31,5.05v2.41h-2.38v-11.9Z"/><path d="m192.75,19.14v-4.18c0-2.55,1.44-4.06,3.86-4.06s3.86,1.51,3.86,4.06v4.18c0,2.55-1.44,4.06-3.86,4.06s-3.86-1.51-3.86-4.06Zm5.22,0v-4.18c0-1.12-.46-1.72-1.36-1.72s-1.36.59-1.36,1.72v4.18c0,1.12.46,1.72,1.36,1.72s1.36-.6,1.36-1.72Z"/><path d="m202.94,11.1h2.5l1.07,5.63c.17.87.37,2.33.49,3.31h.07c.12-.99.32-2.45.49-3.31l1.07-5.63h2.5l-2.82,11.9h-2.55l-2.82-11.9Z"/><path d="m217.2,19h-.85v4h-2.41v-11.9h3.45c2.36,0,3.76,1.46,3.76,3.96,0,1.62-.59,2.8-1.65,3.43l2.24,4.5h-2.63l-1.9-4Zm-.85-2.29h1c.85,0,1.31-.58,1.31-1.65s-.46-1.67-1.31-1.67h-1v3.31Z"/><path d="m228.98,21.03h-2.52l-.39,1.97h-2.5l2.86-11.9h2.58l2.86,11.9h-2.5l-.39-1.97Zm-.48-2.29l-.27-1.36c-.15-.85-.36-2.29-.48-3.26h-.07c-.12.97-.31,2.41-.48,3.26l-.27,1.36h1.56Z"/><path d="m240.34,13.39h-2.33v9.6h-2.48v-9.6h-2.33v-2.29h7.14v2.29Z"/><path d="m245.1,19.46l-2.8-8.36h2.5l.97,3.3c.12.39.39,1.33.51,1.9h.07c.14-.58.41-1.51.54-1.96l.93-3.25h2.5l-2.8,8.36v3.54h-2.41v-3.54Z"/><path d="m258.17,11.1h2.38l2.26,5.17c.29.75.56,1.53.85,2.28l.05-.05c-.2-1.5-.34-3.54-.34-4.64v-2.75h2.38v11.9h-2.38l-2.01-4.61-1.07-2.91-.05.05c.19,1.5.31,3.72.31,5.05v2.41h-2.38v-11.9Z"/><path d="m273.96,21.03h-2.52l-.39,1.97h-2.5l2.86-11.9h2.58l2.86,11.9h-2.5l-.39-1.97Zm-.48-2.29l-.27-1.36c-.15-.85-.36-2.29-.48-3.26h-.07c-.12.97-.31,2.41-.48,3.26l-.27,1.36h1.56Z"/><path d="m290.71,20.7v2.29h-5.95v-11.9h2.41v9.6h3.54Z"/><path d="m293.89,19.46l-2.8-8.36h2.5l.97,3.3c.12.39.39,1.33.51,1.9h.07c.14-.58.41-1.51.54-1.96l.93-3.25h2.5l-2.8,8.36v3.54h-2.41v-3.54Z"/><path d="m301.01,19.53h2.48c0,.95.48,1.36,1.24,1.36s1.19-.46,1.19-1.05c0-1.97-4.66-2.21-4.66-5.83,0-1.82,1.27-3.14,3.47-3.14s3.52,1.31,3.52,3.5h-2.48c0-.78-.36-1.17-1.05-1.17-.63,0-1,.34-1,.88,0,1.87,4.73,1.99,4.73,5.78,0,1.95-1.38,3.38-3.74,3.38s-3.69-1.31-3.69-3.71Z"/><path d="m317.72,20.7v2.29h-6.31v-11.9h6.14v2.29h-3.72v2.46h3.38v2.21h-3.38v2.63h3.89Zm-2.74-10.74h-1.6l1.6-2.33h1.92l-1.92,2.33Z"/><path d="m333.48,11.1v11.9h-2.43v-4.84h-2.45v4.84h-2.43v-11.9h2.43v4.76h2.45v-4.76h2.43Z"/><path d="m336.95,19.14v-4.18c0-2.55,1.45-4.06,3.86-4.06s3.86,1.51,3.86,4.06v4.18c0,2.55-1.45,4.06-3.86,4.06s-3.86-1.51-3.86-4.06Zm5.22,0v-4.18c0-1.12-.46-1.72-1.36-1.72s-1.36.59-1.36,1.72v4.18c0,1.12.46,1.72,1.36,1.72s1.36-.6,1.36-1.72Z"/><path d="m351.4,19h-.85v4h-2.41v-11.9h3.45c2.36,0,3.76,1.46,3.76,3.96,0,1.62-.59,2.8-1.65,3.43l2.24,4.5h-2.63l-1.9-4Zm-.88-9.04l-1.38-2.33h1.51l.75,1.14.73-1.14h1.51l-1.38,2.33h-1.75Zm.03,6.75h1c.85,0,1.31-.58,1.31-1.65s-.46-1.67-1.31-1.67h-1v3.31Z"/><path d="m365.08,20.7v2.29h-6.31v-11.9h6.14v2.29h-3.72v2.46h3.38v2.21h-3.38v2.63h3.89Z"/><path class="ae" d="m13.41,220.06h-2.58v2.93h-1.17v-2.93h-2.58v-1.1h2.58v-2.7h1.17v2.7h2.58v1.1Z"/><path class="ae" d="m16.21,219.52l-.94-.24.46-4.6h4.74v1.09h-3.75l-.28,2.51c.17-.1.38-.19.64-.27.26-.08.56-.13.9-.13.85,0,1.52.28,2.02.84.49.56.74,1.31.74,2.26,0,.88-.24,1.62-.72,2.2s-1.22.87-2.2.87c-.75,0-1.4-.21-1.94-.63s-.86-1.06-.95-1.93h1.12c.15,1.06.74,1.59,1.77,1.59.55,0,.98-.19,1.29-.56.3-.38.46-.89.46-1.53,0-.58-.16-1.07-.48-1.46s-.78-.59-1.37-.59c-.39,0-.69.05-.89.16-.2.11-.41.25-.62.43Z"/><path class="ae" d="m24.02,216.19c0-.45.16-.84.48-1.17.32-.32.7-.49,1.14-.49s.82.16,1.13.49c.31.32.47.71.47,1.17s-.16.84-.47,1.15c-.31.32-.69.48-1.13.48s-.82-.16-1.14-.48c-.32-.32-.48-.7-.48-1.15Zm.79,0c0,.23.08.43.24.58.16.16.36.23.59.23s.42-.08.57-.23c.16-.16.23-.35.23-.58s-.08-.44-.23-.6c-.15-.16-.35-.24-.57-.24s-.42.08-.59.24c-.16.16-.24.36-.24.6Z"/><path class="ae" d="m34.7,220.97h1.22c-.09.88-.42,1.61-.99,2.19-.57.58-1.41.88-2.51.88s-1.96-.39-2.62-1.17c-.66-.78-.99-1.82-.99-3.11v-.92c0-1.29.33-2.33,1-3.12.67-.78,1.57-1.17,2.71-1.17,1.05,0,1.85.29,2.41.86.56.58.89,1.32.98,2.23h-1.22c-.09-.64-.3-1.15-.62-1.53-.32-.37-.84-.56-1.56-.56-.82,0-1.44.3-1.86.9-.42.6-.63,1.39-.63,2.37v.93c0,.91.19,1.69.58,2.33.39.64.99.96,1.81.96.78,0,1.33-.18,1.65-.55.32-.36.53-.87.64-1.52Z"/><path class="ae" d="m158.47,220.06h-2.58v2.93h-1.17v-2.93h-2.58v-1.1h2.58v-2.7h1.17v2.7h2.58v1.1Z"/><path class="ae" d="m163.64,214.62v9.29h-1.17v-7.83l-2.37.86v-1.06l3.36-1.27h.18Z"/><path class="ae" d="m172.89,218.56v1.41c0,1.51-.26,2.57-.78,3.17s-1.23.9-2.13.9-1.59-.3-2.13-.9-.8-1.66-.8-3.17v-1.41c0-1.51.26-2.56.79-3.14.53-.58,1.24-.87,2.12-.87s1.61.29,2.14.87c.53.58.79,1.63.79,3.14Zm-1.18,1.6v-1.8c0-1.04-.15-1.78-.44-2.21-.3-.43-.73-.65-1.3-.65s-.99.21-1.29.65c-.3.43-.45,1.17-.45,2.21v1.8c0,1.03.15,1.78.45,2.23.3.46.73.69,1.29.69s1.01-.23,1.3-.69c.29-.46.44-1.2.44-2.23Z"/><path class="ae" d="m176.38,216.19c0-.45.16-.84.48-1.17.32-.32.7-.49,1.14-.49s.82.16,1.13.49c.31.32.47.71.47,1.17s-.16.84-.47,1.15c-.31.32-.69.48-1.13.48s-.82-.16-1.14-.48c-.32-.32-.48-.7-.48-1.15Zm.79,0c0,.23.08.43.25.58.16.16.36.23.59.23s.42-.08.57-.23c.15-.16.23-.35.23-.58s-.08-.44-.23-.6c-.15-.16-.35-.24-.57-.24s-.42.08-.59.24c-.16.16-.25.36-.25.6Z"/><path class="ae" d="m187.06,220.97h1.22c-.09.88-.42,1.61-.99,2.19-.57.58-1.4.88-2.51.88s-1.96-.39-2.62-1.17c-.66-.78-.99-1.82-.99-3.11v-.92c0-1.29.33-2.33,1-3.12.67-.78,1.57-1.17,2.71-1.17,1.04,0,1.85.29,2.41.86.56.58.89,1.32.98,2.23h-1.22c-.09-.64-.3-1.15-.62-1.53-.32-.37-.84-.56-1.55-.56-.82,0-1.44.3-1.86.9-.42.6-.63,1.39-.63,2.37v.93c0,.91.19,1.69.58,2.33.38.64.99.96,1.81.96s1.33-.18,1.65-.55c.32-.36.53-.87.64-1.52Z"/><path class="ae" d="m452.38,220.06h-2.58v2.93h-1.17v-2.93h-2.58v-1.1h2.58v-2.7h1.17v2.7h2.58v1.1Z"/><path class="ae" d="m459.75,222.95v.96h-6.05v-.84l3.03-3.37c.56-.62.94-1.11,1.13-1.47s.29-.72.29-1.08c0-.45-.14-.84-.42-1.16-.28-.32-.68-.48-1.19-.48-.62,0-1.08.18-1.38.53-.3.35-.46.8-.46,1.35h-1.17c0-.78.26-1.45.77-2.01s1.26-.84,2.25-.84c.87,0,1.55.23,2.05.68.49.45.74,1.05.74,1.79,0,.55-.17,1.1-.51,1.65-.34.55-.75,1.09-1.22,1.6l-2.48,2.69h4.63Z"/><path class="ae" d="m466.81,218.56v1.41c0,1.51-.26,2.57-.78,3.17-.52.6-1.23.9-2.13.9s-1.59-.3-2.13-.9-.8-1.66-.8-3.17v-1.41c0-1.51.26-2.56.79-3.14s1.24-.87,2.12-.87,1.61.29,2.14.87c.53.58.79,1.63.79,3.14Zm-1.18,1.6v-1.8c0-1.04-.15-1.78-.44-2.21s-.73-.65-1.3-.65-.99.21-1.29.65c-.3.43-.45,1.17-.45,2.21v1.8c0,1.03.15,1.78.45,2.23.3.46.73.69,1.29.69s1.01-.23,1.3-.69c.29-.46.44-1.2.44-2.23Z"/><path class="ae" d="m470.3,216.19c0-.45.16-.84.48-1.17.32-.32.7-.49,1.14-.49s.82.16,1.13.49c.31.32.47.71.47,1.17s-.16.84-.47,1.15c-.31.32-.69.48-1.13.48s-.82-.16-1.14-.48c-.32-.32-.48-.7-.48-1.15Zm.79,0c0,.23.08.43.24.58.16.16.36.23.59.23s.42-.08.57-.23c.15-.16.23-.35.23-.58s-.08-.44-.23-.6c-.15-.16-.35-.24-.57-.24s-.42.08-.59.24c-.16.16-.24.36-.24.6Z"/><path class="ae" d="m480.97,220.97h1.22c-.09.88-.42,1.61-.99,2.19s-1.4.88-2.51.88-1.96-.39-2.62-1.17c-.66-.78-.99-1.82-.99-3.11v-.92c0-1.29.33-2.33,1-3.12.67-.78,1.57-1.17,2.71-1.17,1.05,0,1.85.29,2.41.86s.89,1.32.98,2.23h-1.22c-.09-.64-.3-1.15-.62-1.53-.32-.37-.84-.56-1.56-.56-.82,0-1.44.3-1.86.9s-.63,1.39-.63,2.37v.93c0,.91.19,1.69.58,2.33.39.64.99.96,1.81.96s1.33-.18,1.65-.55c.32-.36.53-.87.64-1.52Z"/><path class="ae" d="m598.92,220.06h-2.58v2.93h-1.17v-2.93h-2.58v-1.1h2.58v-2.7h1.17v2.7h2.58v1.1Z"/><path class="ae" d="m606.29,222.95v.96h-6.05v-.84l3.03-3.37c.56-.62.94-1.11,1.13-1.47s.29-.72.29-1.08c0-.45-.14-.84-.42-1.16-.28-.32-.68-.48-1.19-.48-.62,0-1.08.18-1.38.53-.3.35-.46.8-.46,1.35h-1.17c0-.78.26-1.45.77-2.01s1.26-.84,2.25-.84c.87,0,1.55.23,2.05.68.49.45.74,1.05.74,1.79,0,.55-.17,1.1-.51,1.65-.34.55-.75,1.09-1.22,1.6l-2.48,2.69h4.63Z"/><path class="ae" d="m609.03,219.52l-.94-.24.46-4.6h4.74v1.09h-3.75l-.28,2.51c.17-.1.38-.19.64-.27.26-.08.56-.13.9-.13.85,0,1.52.28,2.02.84.49.56.74,1.31.74,2.26,0,.88-.24,1.62-.72,2.2s-1.22.87-2.2.87c-.75,0-1.4-.21-1.94-.63s-.86-1.06-.95-1.93h1.12c.15,1.06.74,1.59,1.77,1.59.55,0,.98-.19,1.29-.56.3-.38.46-.89.46-1.53,0-.58-.16-1.07-.48-1.46-.32-.4-.78-.59-1.37-.59-.39,0-.69.05-.9.16-.2.11-.41.25-.62.43Z"/><path class="ae" d="m616.84,216.19c0-.45.16-.84.48-1.17.32-.32.7-.49,1.14-.49s.82.16,1.13.49c.31.32.47.71.47,1.17s-.16.84-.47,1.15c-.31.32-.69.48-1.13.48s-.82-.16-1.14-.48c-.32-.32-.48-.7-.48-1.15Zm.79,0c0,.23.08.43.24.58.16.16.36.23.59.23s.42-.08.57-.23c.15-.16.23-.35.23-.58s-.08-.44-.23-.6c-.15-.16-.35-.24-.57-.24s-.42.08-.59.24c-.16.16-.24.36-.24.6Z"/><path class="ae" d="m627.51,220.97h1.22c-.09.88-.42,1.61-.99,2.19s-1.4.88-2.51.88-1.96-.39-2.62-1.17c-.66-.78-.99-1.82-.99-3.11v-.92c0-1.29.33-2.33,1-3.12.67-.78,1.57-1.17,2.71-1.17,1.05,0,1.85.29,2.41.86s.89,1.32.98,2.23h-1.22c-.09-.64-.3-1.15-.62-1.53-.32-.37-.84-.56-1.56-.56-.82,0-1.44.3-1.86.9s-.63,1.39-.63,2.37v.93c0,.91.19,1.69.58,2.33.39.64.99.96,1.81.96s1.33-.18,1.65-.55c.32-.36.53-.87.64-1.52Z"/><line class="l" y1="167.22" x2="660.47" y2="167.22"/><line class="i" x1="298.56" y1="207.84" x2="298.56" y2="123.4"/><path class="aj" d="m282.98,220.39h-2.29v2.6h-1.74v-2.6h-2.3v-1.66h2.3v-2.48h1.74v2.48h2.29v1.66Z"/><path class="aj" d="m288.46,214.66v9.25h-1.83v-7.08l-2.18.68v-1.49l3.82-1.37h.2Z"/><path class="aj" d="m291.19,220.76l3.85-6.09h1.85v5.76h1.05v1.48h-1.05v2h-1.83v-2h-3.79l-.08-1.15Zm1.82-.32h2.05v-3.28l-.13.22-1.92,3.06Z"/><path class="aj" d="m300.73,222.35v1.25c0,.48-.12.96-.36,1.44-.24.48-.53.88-.9,1.19l-.95-.5c.16-.29.31-.59.45-.9.14-.31.21-.69.21-1.15v-1.34h1.55Z"/><path class="aj" d="m301.83,220.76l3.85-6.09h1.85v5.76h1.05v1.48h-1.05v2h-1.83v-2h-3.79l-.08-1.15Zm1.82-.32h2.05v-3.28l-.13.22-1.92,3.06Z"/><path class="aj" d="m311.68,216.3c0-.48.17-.89.51-1.23s.74-.52,1.22-.52.86.17,1.2.52c.33.34.5.76.5,1.23s-.17.88-.5,1.22c-.33.33-.73.5-1.2.5s-.88-.17-1.22-.5-.51-.74-.51-1.22Zm.93,0c0,.22.08.41.24.56.16.15.35.23.56.23s.4-.08.55-.23.22-.34.22-.56-.07-.43-.22-.58-.33-.23-.55-.23-.4.08-.56.23c-.16.15-.24.35-.24.58Z"/><path class="aj" d="m322.11,220.84h1.9c-.06.94-.42,1.71-1.06,2.31-.64.6-1.53.9-2.66.9s-2.12-.4-2.8-1.2-1.02-1.88-1.02-3.25v-.6c0-1.37.35-2.45,1.05-3.25s1.63-1.2,2.79-1.2,2.04.31,2.65.92c.61.62.96,1.4,1.05,2.35h-1.9c-.04-.55-.2-.97-.46-1.27-.26-.29-.71-.44-1.34-.44-1.27,0-1.9.96-1.9,2.88v.62c0,.96.15,1.68.44,2.16.29.48.77.72,1.45.72.6,0,1.04-.14,1.32-.41.28-.27.45-.68.49-1.23Z"/><path class="ae" d="m435.37,272.92h-2.58v2.93h-1.17v-2.93h-2.58v-1.1h2.58v-2.7h1.17v2.7h2.58v1.1Z"/><path class="ae" d="m438.17,272.38l-.94-.24.46-4.6h4.74v1.09h-3.75l-.28,2.51c.17-.1.38-.19.64-.27.26-.08.56-.13.9-.13.85,0,1.52.28,2.02.84.49.56.74,1.31.74,2.26,0,.88-.24,1.62-.72,2.2-.48.58-1.22.87-2.2.87-.75,0-1.4-.21-1.94-.63-.55-.42-.86-1.06-.95-1.93h1.12c.15,1.06.74,1.59,1.77,1.59.55,0,.98-.19,1.29-.56s.46-.89.46-1.53c0-.58-.16-1.07-.48-1.46-.32-.4-.78-.59-1.37-.59-.39,0-.69.05-.9.16s-.41.25-.62.43Z"/><path class="ae" d="m445.98,269.05c0-.45.16-.84.48-1.16.32-.32.7-.49,1.14-.49s.82.16,1.13.49c.31.32.47.71.47,1.16s-.16.84-.47,1.16c-.31.32-.69.48-1.13.48s-.82-.16-1.14-.48c-.32-.32-.48-.7-.48-1.16Zm.79,0c0,.23.08.43.24.58.16.16.36.23.59.23s.42-.08.57-.23c.15-.16.23-.35.23-.58s-.08-.44-.23-.6c-.15-.16-.35-.24-.57-.24s-.42.08-.59.24c-.16.16-.24.36-.24.6Z"/><path class="ae" d="m456.66,273.84h1.22c-.09.88-.42,1.61-.99,2.19s-1.4.88-2.51.88-1.96-.39-2.62-1.17c-.66-.78-.99-1.82-.99-3.11v-.92c0-1.29.33-2.33,1-3.12.67-.78,1.57-1.17,2.71-1.17,1.05,0,1.85.29,2.41.86s.89,1.32.98,2.23h-1.22c-.09-.64-.3-1.15-.62-1.53-.32-.37-.84-.56-1.56-.56-.82,0-1.44.3-1.86.9s-.63,1.39-.63,2.37v.93c0,.91.19,1.69.58,2.33.39.64.99.96,1.81.96s1.33-.18,1.65-.55c.32-.36.53-.87.64-1.52Z"/><path class="ae" d="m253.12,268.82v-1.29h7.33v1.29h-2.88v7.95h-1.6v-7.95h-2.86Z"/><path class="ae" d="m266.63,275.61c-.22.32-.54.62-.97.89-.43.27-.99.41-1.67.41-1.02,0-1.82-.32-2.41-.95s-.88-1.42-.88-2.37v-.26c0-1.08.3-1.94.9-2.58.6-.64,1.33-.96,2.21-.96,1,0,1.74.32,2.22.95.48.63.72,1.45.72,2.44v.65h-4.49c.04.53.22.97.54,1.32.31.35.74.52,1.29.52.37,0,.7-.08.98-.23.28-.15.53-.36.74-.63l.83.79Zm-2.82-4.59c-.42,0-.76.15-1.02.44s-.43.71-.5,1.23h2.93v-.11c-.02-.4-.13-.76-.34-1.08-.2-.32-.56-.48-1.07-.48Z"/><path class="ae" d="m271.28,276.9c-.75,0-1.35-.25-1.81-.74v3.26h-1.54v-9.51h1.42l.06.69c.46-.55,1.08-.82,1.85-.82.87,0,1.54.32,2,.96.46.64.69,1.49.69,2.53v.13c0,1-.23,1.83-.69,2.49s-1.12,1-1.98,1Zm-.44-5.87c-.34,0-.62.07-.84.21-.22.14-.4.33-.52.58v3.03c.13.24.3.44.52.58s.51.22.86.22c.55,0,.95-.22,1.19-.67.25-.45.37-.97.37-1.58v-.13c0-.62-.12-1.15-.37-1.58-.25-.44-.65-.66-1.2-.66Z"/><path class="ae" d="m276.89,267.03v9.75h-1.54v-9.75h1.54Z"/><path class="ae" d="m278.3,273.41v-.13c0-.99.28-1.83.84-2.49s1.34-1,2.34-1,1.79.33,2.35,1,.84,1.5.84,2.49v.13c0,1-.28,1.83-.84,2.49-.56.66-1.34,1-2.35,1s-1.79-.33-2.35-1-.84-1.5-.84-2.49Zm1.54-.13v.13c0,.62.13,1.15.4,1.59.26.44.69.66,1.27.66s.98-.22,1.25-.66c.26-.44.4-.97.4-1.59v-.13c0-.6-.13-1.13-.4-1.58-.26-.45-.68-.68-1.26-.68s-.99.23-1.25.68c-.26.45-.4.98-.4,1.58Z"/><path class="ae" d="m289.17,276.75c-.12.04-.27.08-.43.11s-.36.04-.58.04c-.51,0-.94-.15-1.27-.43-.34-.29-.5-.79-.5-1.5v-3.93h-1.14v-1.14h1.14v-1.67h1.54v1.67h1.21v1.14h-1.21v3.84c0,.31.07.51.2.6.13.09.31.14.52.14.1,0,.2,0,.3-.02.1-.01.18-.03.23-.04v1.19Z"/><path class="ae" d="m293.22,271.04c-.61,0-1.07.28-1.38.84v4.9h-1.54v-6.87h1.45l.05.79c.5-.61,1.17-.91,1.99-.91.66,0,1.2.19,1.59.58s.6,1.04.6,1.97v4.44h-1.54v-4.46c0-.47-.1-.81-.31-1-.21-.19-.51-.29-.9-.29Z"/><path class="ae" d="m299.21,269.91v6.87h-1.54v-6.87h1.54Zm-1.54-.92l1.24-1.92h1.76l-1.76,1.92h-1.24Z"/><path class="ae" d="m307.11,271.04c-.61,0-1.07.28-1.38.84v4.9h-1.54v-6.87h1.45l.05.79c.5-.61,1.17-.91,1.99-.91.66,0,1.2.19,1.59.58s.6,1.04.6,1.97v4.44h-1.54v-4.46c0-.47-.1-.81-.31-1-.21-.19-.51-.29-.9-.29Z"/><path class="ae" d="m311.15,273.41v-.13c0-.99.28-1.83.84-2.49s1.34-1,2.34-1,1.79.33,2.35,1,.84,1.5.84,2.49v.13c0,1-.28,1.83-.84,2.49-.56.66-1.34,1-2.35,1s-1.79-.33-2.35-1-.84-1.5-.84-2.49Zm1.54-.13v.13c0,.62.13,1.15.4,1.59.26.44.69.66,1.27.66s.98-.22,1.25-.66c.26-.44.4-.97.4-1.59v-.13c0-.6-.13-1.13-.4-1.58-.26-.45-.68-.68-1.26-.68s-.99.23-1.25.68c-.26.45-.4.98-.4,1.58Z"/><path class="ae" d="m321.8,271.27c-.72,0-1.19.27-1.43.81v4.7h-1.54v-6.87h1.47l.04.77c.17-.28.38-.5.64-.66s.56-.24.91-.24c.21,0,.39.03.55.08v1.45c-.22-.03-.43-.05-.63-.05Z"/><path class="ae" d="m326.26,271.04c-.33,0-.6.07-.82.21-.22.14-.38.32-.5.56v4.98h-1.54v-6.87h1.45l.04.72c.49-.56,1.15-.84,1.99-.84.42,0,.79.08,1.12.25.33.17.58.43.76.8.23-.32.52-.57.87-.76s.77-.29,1.24-.29c.7,0,1.25.2,1.66.59s.6,1.05.6,1.96v4.45h-1.54v-4.46c0-.51-.11-.85-.33-1.02-.22-.17-.52-.26-.9-.26-.35,0-.64.1-.86.29-.22.19-.38.44-.46.74v4.71h-1.54v-4.44c0-.48-.11-.82-.33-1.01s-.52-.29-.9-.29Z"/><path class="ae" d="m338.83,276.78c-.08-.16-.14-.37-.18-.65-.2.21-.45.39-.75.55s-.65.23-1.06.23c-.69,0-1.25-.2-1.68-.59s-.65-.88-.65-1.47c0-.73.27-1.29.82-1.68s1.31-.58,2.3-.58h.97v-.45c0-.36-.1-.65-.3-.86-.2-.21-.5-.32-.9-.32-.37,0-.66.09-.88.27-.22.18-.33.4-.33.67h-1.54c0-.54.25-1.03.76-1.46.51-.43,1.2-.65,2.07-.65.77,0,1.41.2,1.91.59.5.39.75.98.75,1.77v3.05c0,.62.09,1.11.26,1.48v.11h-1.57Zm-1.69-1.11c.36,0,.66-.09.92-.26.26-.17.44-.36.55-.57v-1.29h-.83c-1.15,0-1.73.38-1.73,1.15,0,.27.09.51.28.69s.46.28.81.28Zm-.39-6.72l1.24-1.92h1.76l-1.76,1.92h-1.24Z"/><path class="ae" d="m343.4,267.03v9.75h-1.54v-9.75h1.54Z"/><path class="ae" d="m529.08,272.92h-2.58v2.93h-1.17v-2.93h-2.58v-1.1h2.58v-2.7h1.17v2.7h2.58v1.1Z"/><path class="ae" d="m536.22,274.28c0,.85-.28,1.5-.85,1.95-.56.45-1.26.68-2.09.68s-1.53-.23-2.09-.68c-.57-.45-.85-1.1-.85-1.95,0-.52.14-.97.42-1.37.28-.4.65-.69,1.13-.9-.41-.2-.74-.48-.97-.84-.24-.36-.36-.77-.36-1.23,0-.81.26-1.43.77-1.87.51-.44,1.17-.66,1.95-.66s1.44.22,1.96.66c.51.44.77,1.06.77,1.87,0,.46-.12.87-.37,1.23-.25.36-.57.64-.98.84.48.2.86.5,1.14.9.28.4.43.85.43,1.36Zm-1.18-.03c0-.52-.16-.94-.49-1.26s-.75-.49-1.28-.49-.96.16-1.28.49c-.32.33-.47.75-.47,1.26s.16.95.47,1.24c.31.3.75.44,1.29.44s.98-.15,1.29-.44c.31-.3.47-.71.47-1.24Zm-.21-4.29c0-.46-.14-.84-.43-1.14-.29-.3-.66-.45-1.12-.45s-.83.14-1.12.43c-.28.29-.43.67-.43,1.16s.14.86.43,1.15c.28.29.66.43,1.12.43s.83-.14,1.12-.43c.29-.29.43-.67.43-1.15Z"/><path class="ae" d="m539.69,269.05c0-.45.16-.84.48-1.16.32-.32.7-.49,1.14-.49s.82.16,1.13.49c.31.32.47.71.47,1.16s-.16.84-.47,1.16c-.31.32-.69.48-1.13.48s-.82-.16-1.14-.48c-.32-.32-.48-.7-.48-1.16Zm.79,0c0,.23.08.43.24.58s.36.23.59.23.42-.08.57-.23c.16-.16.23-.35.23-.58s-.08-.44-.23-.6c-.15-.16-.35-.24-.57-.24s-.42.08-.59.24-.24.36-.24.6Z"/><path class="ae" d="m550.37,273.84h1.22c-.09.88-.42,1.61-.99,2.19-.57.58-1.41.88-2.51.88s-1.96-.39-2.62-1.17c-.66-.78-.99-1.82-.99-3.11v-.92c0-1.29.33-2.33,1-3.12.67-.78,1.57-1.17,2.71-1.17,1.05,0,1.85.29,2.41.86.56.58.89,1.32.98,2.23h-1.22c-.09-.64-.3-1.15-.62-1.53-.32-.37-.84-.56-1.56-.56-.82,0-1.44.3-1.86.9-.42.6-.63,1.39-.63,2.37v.93c0,.91.19,1.69.58,2.33.39.64.99.96,1.81.96.78,0,1.33-.18,1.65-.55.32-.36.53-.87.64-1.52Z"/><path class="ae" d="m580.5,272.92h-2.58v2.93h-1.17v-2.93h-2.58v-1.1h2.58v-2.7h1.17v2.7h2.58v1.1Z"/><path class="ae" d="m585.68,267.48v9.29h-1.17v-7.83l-2.37.86v-1.06l3.36-1.27h.18Z"/><path class="ae" d="m594.93,271.42v1.41c0,1.52-.26,2.57-.78,3.17-.52.6-1.23.9-2.13.9s-1.59-.3-2.13-.9-.8-1.66-.8-3.17v-1.41c0-1.51.26-2.56.79-3.14.53-.58,1.24-.87,2.12-.87s1.61.29,2.14.87c.53.58.79,1.63.79,3.14Zm-1.18,1.6v-1.8c0-1.04-.15-1.78-.44-2.21s-.73-.65-1.3-.65-.99.22-1.29.65c-.3.43-.45,1.17-.45,2.21v1.8c0,1.03.15,1.78.45,2.23.3.46.73.69,1.29.69s1.01-.23,1.3-.69c.29-.46.44-1.2.44-2.23Z"/><path class="ae" d="m598.42,269.05c0-.45.16-.84.48-1.16.32-.32.7-.49,1.14-.49s.82.16,1.13.49c.31.32.47.71.47,1.16s-.16.84-.47,1.16c-.31.32-.69.48-1.13.48s-.82-.16-1.14-.48c-.32-.32-.48-.7-.48-1.16Zm.79,0c0,.23.08.43.24.58.16.16.36.23.59.23s.42-.08.57-.23c.15-.16.23-.35.23-.58s-.08-.44-.23-.6c-.15-.16-.35-.24-.57-.24s-.42.08-.59.24c-.16.16-.24.36-.24.6Z"/><path class="ae" d="m609.1,273.84h1.22c-.09.88-.42,1.61-.99,2.19s-1.4.88-2.51.88-1.96-.39-2.62-1.17c-.66-.78-.99-1.82-.99-3.11v-.92c0-1.29.33-2.33,1-3.12.67-.78,1.57-1.17,2.71-1.17,1.05,0,1.85.29,2.41.86s.89,1.32.98,2.23h-1.22c-.09-.64-.3-1.15-.62-1.53-.32-.37-.84-.56-1.56-.56-.82,0-1.44.3-1.86.9s-.63,1.39-.63,2.37v.93c0,.91.19,1.69.58,2.33.39.64.99.96,1.81.96s1.33-.18,1.65-.55c.32-.36.53-.87.64-1.52Z"/><line class="j" x1="445.43" y1="250.54" x2="445.43" y2="262.43"/><line class="j" x1="537.22" y1="250.54" x2="537.22" y2="262.43"/><line class="j" x1="592.29" y1="250.54" x2="592.29" y2="262.43"/><line class="j" x1="151.7" y1="250.54" x2="151.7" y2="262.43"/><line class="j" x1="59.91" y1="250.54" x2="59.91" y2="262.43"/><line class="j" x1="4.84" y1="250.54" x2="4.84" y2="262.43"/><line class="j" x1="298.56" y1="250.54" x2="298.56" y2="262.43"/><line class="j" x1="21.54" y1="204.05" x2="21.54" y2="208.05"/><line class="j" x1="168.42" y1="204.05" x2="168.42" y2="208.05"/><g class="w"><line class="j" x1="315.29" y1="204.05" x2="315.29" y2="208.05"/></g><line class="j" x1="609.04" y1="204.05" x2="609.04" y2="208.05"/><line class="j" x1="462.17" y1="204.05" x2="462.17" y2="208.05"/><circle class="r" cx="42.11" cy="167.23" r="6.75"/><circle class="u" cx="68.54" cy="167.23" r="6.75"/><circle class="u" cx="99.28" cy="167.24" r="6.75"/><circle class="u" cx="113.58" cy="167.22" r="6.75"/><circle class="u" cx="127.88" cy="167.24" r="6.75"/><circle class="u" cx="152.94" cy="157.83" r="6.75"/><circle class="v" cx="163.26" cy="139.01" r="6.75"/><circle class="v" cx="161.72" cy="180.78" r="6.75"/><circle class="v" cx="164.99" cy="166.86" r="6.75"/><circle class="v" cx="168.25" cy="152.93" r="6.75"/><circle class="v" cx="175.41" cy="176.64" r="6.75"/><circle class="v" cx="178.68" cy="162.72" r="6.75"/><circle class="v" cx="189.1" cy="172.51" r="6.75"/><circle class="v" cx="203.4" cy="172.84" r="6.75"/><circle class="v" cx="196.54" cy="160.3" r="6.75"/><circle class="v" cx="210.83" cy="160.63" r="6.75"/><circle class="v" cx="218.19" cy="172.89" r="6.75"/><circle class="v" cx="225.13" cy="160.39" r="6.75"/><circle class="v" cx="235.4" cy="170.34" r="6.75"/><circle class="v" cx="248.75" cy="175.47" r="6.75"/><circle class="v" cx="246.52" cy="161.34" r="6.75"/><circle class="v" cx="262.88" cy="173.3" r="6.75"/><circle class="v" cx="266.87" cy="159.56" r="6.75"/><circle class="v" cx="278.28" cy="168.18" r="6.75"/><path class="t" d="m300.31,153.22c-3.73,0-6.75,3.02-6.75,6.75s3.02,6.75,6.75,6.75,6.75-3.02,6.75-6.75-3.02-6.75-6.75-6.75"/><path class="t" d="m305.73,166.45c-3.73,0-6.75,3.02-6.75,6.75s3.02,6.75,6.75,6.75,6.75-3.02,6.75-6.75-3.02-6.75-6.75-6.75"/><path class="t" d="m314.52,154.85c-3.73,0-6.75,3.02-6.75,6.75s3.02,6.75,6.75,6.75,6.75-3.02,6.75-6.75-3.02-6.75-6.75-6.75"/><path class="t" d="m319.94,168.08c-3.73,0-6.75,3.02-6.75,6.75s3.02,6.75,6.75,6.75,6.75-3.02,6.75-6.75-3.02-6.75-6.75-6.75"/><path class="t" d="m328.69,156.76c-3.73,0-6.75,3.02-6.75,6.75s3.02,6.75,6.75,6.75,6.75-3.02,6.75-6.75-3.02-6.75-6.75-6.75"/><path class="t" d="m334.11,170c-3.73,0-6.75,3.02-6.75,6.75s3.02,6.75,6.75,6.75,6.75-3.02,6.75-6.75-3.02-6.75-6.75-6.75"/><path class="t" d="m342.86,158.68c-3.73,0-6.75,3.02-6.75,6.75s3.02,6.75,6.75,6.75,6.75-3.02,6.75-6.75-3.02-6.75-6.75-6.75"/><path class="t" d="m350.66,146.7c-3.73,0-6.75,3.02-6.75,6.75s3.02,6.75,6.75,6.75,6.75-3.02,6.75-6.75-3.02-6.75-6.75-6.75"/><path class="t" d="m354.71,166.69c-3.73,0-6.75,3.02-6.75,6.75s3.02,6.75,6.75,6.75,6.75-3.02,6.75-6.75-3.02-6.75-6.75-6.75"/><path class="t" d="m362.5,154.7c-3.73,0-6.75,3.02-6.75,6.75s3.02,6.75,6.75,6.75,6.75-3.02,6.75-6.75-3.02-6.75-6.75-6.75"/><path class="t" d="m381.17,175.29c-3.73,0-6.75,3.02-6.75,6.75s3.02,6.75,6.75,6.75,6.75-3.02,6.75-6.75-3.02-6.75-6.75-6.75"/><path class="t" d="m375.37,148.46c-3.73,0-6.75,3.02-6.75,6.75s3.02,6.75,6.75,6.75,6.75-3.02,6.75-6.75-3.02-6.75-6.75-6.75"/><path class="t" d="m369.33,167.27c-3.73,0-6.75,3.02-6.75,6.75s3.02,6.75,6.75,6.75,6.75-3.02,6.75-6.75-3.02-6.75-6.75-6.75"/><path class="t" d="m382.2,161.03c-3.73,0-6.75,3.02-6.75,6.75s3.02,6.75,6.75,6.75,6.75-3.02,6.75-6.75-3.02-6.75-6.75-6.75"/><path class="t" d="m388.24,142.23c-3.73,0-6.75,3.02-6.75,6.75s3.02,6.75,6.75,6.75,6.75-3.02,6.75-6.75-3.02-6.75-6.75-6.75"/><path class="t" d="m394.03,169.05c-3.73,0-6.75,3.02-6.75,6.75s3.02,6.75,6.75,6.75,6.75-3.02,6.75-6.75-3.02-6.75-6.75-6.75"/><path class="t" d="m395.06,154.79c-3.73,0-6.75,3.02-6.75,6.75s3.02,6.75,6.75,6.75,6.75-3.02,6.75-6.75-3.02-6.75-6.75-6.75"/><path class="t" d="m405.87,177.07c-3.73,0-6.75,3.02-6.75,6.75s3.02,6.75,6.75,6.75,6.75-3.02,6.75-6.75-3.02-6.75-6.75-6.75"/><path class="t" d="m406.9,162.81c-3.73,0-6.75,3.02-6.75,6.75s3.02,6.75,6.75,6.75,6.75-3.02,6.75-6.75-3.02-6.75-6.75-6.75"/><path class="t" d="m409.13,148.69c-3.73,0-6.75,3.02-6.75,6.75s3.02,6.75,6.75,6.75,6.75-3.02,6.75-6.75-3.02-6.75-6.75-6.75"/><path class="t" d="m418.74,170.83c-3.73,0-6.75,3.02-6.75,6.75s3.02,6.75,6.75,6.75,6.75-3.02,6.75-6.75-3.02-6.75-6.75-6.75"/><path class="t" d="m420.97,156.71c-3.73,0-6.75,3.02-6.75,6.75s3.02,6.75,6.75,6.75,6.75-3.02,6.75-6.75-3.02-6.75-6.75-6.75"/><path class="t" d="m433.96,162.67c-3.73,0-6.75,3.02-6.75,6.75s3.02,6.75,6.75,6.75,6.75-3.02,6.75-6.75-3.02-6.75-6.75-6.75"/><circle class="p" cx="447.59" cy="165.1" r="6.75"/><circle class="p" cx="460.69" cy="159.35" r="6.75"/><circle class="p" cx="459.11" cy="173.57" r="6.75"/><circle class="p" cx="472.21" cy="167.83" r="6.75"/><circle class="p" cx="486.26" cy="170.48" r="6.75"/><circle class="p" cx="496.1" cy="160.1" r="6.75"/><circle class="p" cx="503.47" cy="172.35" r="6.75"/><circle class="p" cx="516.79" cy="167.16" r="6.75"/><circle class="p" cx="531.09" cy="167.25" r="6.75"/><circle class="o" cx="550.29" cy="167.23" r="6.75"/><circle class="s" cx="617.79" cy="152.69" r="6.75"/><circle class="s" cx="606.33" cy="179.01" r="6.75"/><circle class="s" cx="615.46" cy="167.23" r="6.75"/><circle class="s" cx="629.76" cy="173.04" r="6.75"/><circle class="s" cx="640.61" cy="162.67" r="6.75"/><path class="ag" d="m210.11,96.92h-2.08v3.7h-1.72v-9.95h3.81c1.15,0,2.04.3,2.68.9s.95,1.35.95,2.27c0,.96-.32,1.72-.95,2.27s-1.52.82-2.68.82Zm-2.08-4.87v3.48h2.08c.67,0,1.15-.16,1.45-.47s.44-.72.44-1.22c0-.46-.15-.88-.44-1.24s-.78-.55-1.45-.55h-2.08Z"/><path class="ag" d="m218.29,94.68c-.77,0-1.29.29-1.54.88v5.06h-1.65v-7.4h1.59l.04.83c.18-.3.41-.54.69-.71s.6-.26.98-.26c.22,0,.42.03.59.09v1.57c-.24-.04-.46-.05-.68-.05Z"/><path class="ag" d="m224.53,100.62l-.04-.72c-.48.57-1.18.86-2.08.86-.72,0-1.31-.21-1.76-.64s-.68-1.13-.68-2.11v-4.78h1.66v4.79c0,.53.12.9.35,1.09s.51.29.82.29c.42,0,.77-.08,1.03-.23s.46-.36.59-.62v-5.32h1.66v7.4h-1.57Zm-2.99-9.72c0-.39.14-.73.43-1s.65-.42,1.08-.42.79.14,1.08.42.44.61.44,1-.15.72-.44.99-.65.4-1.08.4-.79-.13-1.08-.4-.43-.6-.43-.99Zm.75,0c0,.2.07.38.21.53s.33.23.55.23.41-.08.56-.23.22-.33.22-.53-.07-.39-.22-.55-.33-.23-.56-.23-.41.08-.55.23-.21.34-.21.55Z"/><path class="ag" d="m230.87,94.44c-.36,0-.65.07-.88.22s-.41.35-.54.6v5.36h-1.65v-7.4h1.56l.05.77c.52-.61,1.24-.91,2.14-.91.45,0,.85.09,1.21.27s.63.47.82.86c.25-.34.56-.62.94-.82s.82-.31,1.34-.31c.76,0,1.35.21,1.78.64s.65,1.13.65,2.11v4.79h-1.66v-4.8c0-.55-.12-.91-.36-1.1s-.56-.28-.97-.28c-.38,0-.69.1-.93.31s-.4.47-.5.8v5.07h-1.66v-4.79c0-.52-.12-.88-.36-1.09s-.56-.31-.97-.31Z"/><path class="ag" d="m246.09,99.36c-.24.35-.59.67-1.05.96s-1.06.44-1.8.44c-1.1,0-1.96-.34-2.59-1.03s-.94-1.53-.94-2.55v-.28c0-1.17.32-2.09.97-2.78s1.44-1.03,2.38-1.03c1.08,0,1.87.34,2.39,1.03s.78,1.56.78,2.62v.7h-4.83c.05.57.24,1.04.58,1.42s.8.56,1.38.56c.4,0,.75-.08,1.06-.24s.57-.39.79-.67l.9.85Zm-4.17-9.26l1,1.06,1-1.06h1.42v.08l-1.91,1.9h-1.03l-1.9-1.91v-.07h1.41Zm1.13,4.31c-.46,0-.82.16-1.1.48s-.46.76-.54,1.33h3.16v-.12c-.02-.43-.14-.82-.36-1.17s-.6-.52-1.16-.52Z"/><path class="ag" d="m250.69,94.68c-.77,0-1.29.29-1.54.88v5.06h-1.65v-7.4h1.59l.04.83c.18-.3.41-.54.69-.71s.6-.26.98-.26c.22,0,.42.03.59.09v1.57c-.24-.04-.46-.05-.68-.05Z"/><path class="ag" d="m255.55,94.44c-.66,0-1.16.3-1.49.9v5.28h-1.66v-7.4h1.57l.05.85c.54-.66,1.26-.98,2.14-.98.72,0,1.29.21,1.72.62s.64,1.12.64,2.13v4.79h-1.66v-4.8c0-.51-.11-.87-.33-1.07s-.55-.31-.97-.31Z"/><path class="ag" d="m264.62,100.62c-.08-.17-.15-.4-.19-.7-.21.23-.48.42-.81.59s-.7.25-1.14.25c-.74,0-1.34-.21-1.81-.64s-.7-.95-.7-1.58c0-.79.29-1.39.88-1.81s1.42-.63,2.48-.63h1.05v-.49c0-.39-.11-.7-.32-.93s-.54-.35-.97-.35c-.4,0-.71.1-.95.29s-.35.44-.35.72h-1.65c0-.58.27-1.11.82-1.57s1.29-.7,2.23-.7c.83,0,1.51.21,2.05.64s.81,1.06.81,1.91v3.28c0,.67.09,1.2.28,1.59v.12h-1.7Zm-1.83-1.2c.38,0,.71-.09.99-.28s.47-.39.59-.61v-1.39h-.9c-1.24,0-1.86.41-1.86,1.24,0,.3.1.54.3.75s.49.3.88.3Zm-.42-7.24l1.33-2.06h1.89l-1.89,2.06h-1.33Z"/><path class="ag" d="m274.7,100.59c-.13.05-.29.08-.46.12s-.39.05-.63.05c-.55,0-1.01-.16-1.37-.47s-.54-.85-.54-1.61v-4.23h-1.22v-1.22h1.22v-1.8h1.65v1.8h1.31v1.22h-1.31v4.14c0,.33.07.55.22.65s.33.15.56.15c.11,0,.22,0,.33-.02s.19-.03.25-.04v1.29Z"/><path class="ag" d="m282.04,99.36c-.24.35-.59.67-1.05.96s-1.06.44-1.8.44c-1.1,0-1.96-.34-2.59-1.03s-.94-1.53-.94-2.55v-.28c0-1.17.32-2.09.97-2.78s1.44-1.03,2.38-1.03c1.08,0,1.87.34,2.39,1.03s.78,1.56.78,2.62v.7h-4.83c.05.57.24,1.04.58,1.42s.8.56,1.38.56c.4,0,.75-.08,1.06-.24s.57-.39.79-.67l.9.85Zm-3.04-4.94c-.46,0-.82.16-1.1.48s-.46.76-.54,1.33h3.16v-.12c-.02-.43-.14-.82-.36-1.17s-.6-.52-1.16-.52Z"/><path class="ag" d="m287.05,100.75c-.81,0-1.46-.27-1.95-.8v3.51h-1.65v-10.24h1.52l.07.75c.5-.59,1.16-.88,2-.88.94,0,1.66.35,2.15,1.04s.74,1.6.74,2.73v.14c0,1.08-.25,1.97-.75,2.69s-1.21,1.07-2.13,1.07Zm-.48-6.32c-.36,0-.67.08-.91.23s-.43.36-.56.63v3.26c.14.26.32.47.56.63s.54.24.92.24c.59,0,1.02-.24,1.29-.72s.4-1.05.4-1.71v-.14c0-.67-.13-1.23-.4-1.71s-.7-.71-1.3-.71Z"/><path class="ag" d="m293.09,90.12v10.5h-1.66v-10.5h1.66Z"/><path class="ag" d="m294.6,96.99v-.14c0-1.07.3-1.97.91-2.69s1.45-1.08,2.52-1.08,1.93.36,2.54,1.08.91,1.62.91,2.69v.14c0,1.08-.3,1.97-.91,2.69s-1.45,1.07-2.53,1.07-1.93-.36-2.54-1.07-.91-1.61-.91-2.69Zm1.65-.14v.14c0,.67.14,1.24.43,1.71s.74.71,1.36.71,1.06-.24,1.34-.71.43-1.05.43-1.71v-.14c0-.65-.14-1.22-.43-1.71s-.74-.73-1.36-.73-1.07.24-1.35.73-.43,1.05-.43,1.71Z"/><path class="ag" d="m306.31,100.59c-.13.05-.29.08-.46.12s-.39.05-.63.05c-.55,0-1.01-.16-1.37-.47s-.54-.85-.54-1.61v-4.23h-1.22v-1.22h1.22v-1.8h1.65v1.8h1.31v1.22h-1.31v4.14c0,.33.07.55.22.65s.33.15.56.15c.11,0,.22,0,.33-.02s.19-.03.25-.04v1.29Z"/><path class="ag" d="m311.96,100.62c-.08-.17-.15-.4-.19-.7-.21.23-.48.42-.81.59s-.7.25-1.14.25c-.74,0-1.34-.21-1.81-.64s-.7-.95-.7-1.58c0-.79.29-1.39.88-1.81s1.42-.63,2.48-.63h1.05v-.49c0-.39-.11-.7-.32-.93s-.54-.35-.97-.35c-.4,0-.71.1-.95.29s-.35.44-.35.72h-1.65c0-.58.27-1.11.82-1.57s1.29-.7,2.23-.7c.83,0,1.51.21,2.05.64s.81,1.06.81,1.91v3.28c0,.67.09,1.2.28,1.59v.12h-1.7Zm-1.83-1.2c.38,0,.71-.09.99-.28s.47-.39.59-.61v-1.39h-.9c-1.24,0-1.86.41-1.86,1.24,0,.3.1.54.3.75s.49.3.88.3Z"/><path class="ai" d="m321.77,94.15c-.41,0-.76.11-1.07.33s-.55.5-.73.85v5.28h-1.26v-7.4h1.2l.04.92c.56-.71,1.3-1.06,2.21-1.06.73,0,1.31.21,1.73.62s.64,1.1.64,2.07v4.85h-1.27v-4.86c0-.58-.13-.99-.38-1.24s-.62-.37-1.1-.37Z"/><path class="ai" d="m331,100.62c-.08-.18-.14-.44-.18-.78-.24.25-.53.47-.89.65s-.76.27-1.22.27c-.76,0-1.36-.21-1.82-.64s-.68-.94-.68-1.56c0-.79.3-1.4.9-1.81s1.41-.62,2.43-.62h1.25v-.59c0-.44-.13-.79-.39-1.05s-.65-.39-1.17-.39c-.48,0-.86.12-1.16.35s-.44.51-.44.82h-1.26c0-.53.27-1.03.8-1.49s1.25-.7,2.14-.7c.8,0,1.46.21,1.98.62s.77,1.03.77,1.86v3.45c0,.25.02.51.06.79s.11.52.19.72v.11h-1.32Zm-2.1-.97c.46,0,.85-.11,1.19-.34s.57-.48.71-.76v-1.52h-1.05c-1.51,0-2.26.46-2.26,1.37,0,.35.12.65.36.89s.59.37,1.06.37Z"/><path class="ai" d="m341.83,98.65c0-.27-.1-.52-.3-.73s-.67-.4-1.4-.54c-.82-.17-1.48-.42-1.95-.74s-.71-.78-.71-1.39.25-1.09.75-1.52,1.16-.64,1.99-.64c.88,0,1.57.23,2.07.68s.75,1,.75,1.63h-1.26c0-.31-.13-.59-.4-.86s-.65-.41-1.15-.41c-.52,0-.9.11-1.13.34s-.34.48-.34.75.11.49.33.66.68.33,1.37.48c.91.21,1.58.48,2.01.81s.65.8.65,1.39c0,.65-.26,1.18-.78,1.59s-1.21.61-2.07.61c-.98,0-1.73-.25-2.25-.75s-.78-1.06-.78-1.67h1.27c.03.52.23.89.6,1.08s.76.3,1.15.3c.52,0,.91-.1,1.18-.3s.41-.45.41-.76Z"/><path class="ai" d="m346.12,90.12v10.5h-1.27v-10.5h1.27Z"/><path class="ai" d="m352.74,100.62l-.03-.73c-.23.27-.52.49-.88.64s-.78.23-1.29.23c-.72,0-1.31-.21-1.76-.64s-.67-1.13-.67-2.12v-4.77h1.26v4.79c0,.67.14,1.11.42,1.34s.59.34.94.34c.52,0,.93-.1,1.24-.29s.54-.46.69-.78v-5.39h1.27v7.4h-1.21Z"/><path class="ai" d="m358.94,94.15c-.41,0-.76.11-1.07.33s-.55.5-.73.85v5.28h-1.26v-7.4h1.2l.04.92c.56-.71,1.3-1.06,2.21-1.06.73,0,1.31.21,1.73.62s.64,1.1.64,2.07v4.85h-1.27v-4.86c0-.58-.13-.99-.38-1.24s-.62-.37-1.1-.37Z"/><path class="ai" d="m363.27,97v-.16c0-1.07.3-1.97.9-2.68s1.42-1.08,2.45-1.08,1.87.36,2.47,1.08.91,1.61.91,2.68v.16c0,1.07-.3,1.96-.91,2.68s-1.42,1.07-2.46,1.07-1.86-.36-2.46-1.07-.91-1.61-.91-2.68Zm1.26-.16v.16c0,.73.17,1.37.52,1.91s.88.81,1.58.81,1.21-.27,1.57-.81.53-1.17.53-1.91v-.16c0-.72-.18-1.36-.53-1.9s-.88-.82-1.58-.82-1.22.27-1.57.82-.52,1.18-.52,1.9Z"/><path class="ai" d="m377.05,93.22l-2.66,7.4h-.96l-2.68-7.4h1.3l1.88,5.67,1.83-5.67h1.29Z"/><path class="ai" d="m381.22,94.3c-.43,0-.79.1-1.07.29s-.49.45-.62.78v5.25h-1.26v-7.4h1.23l.03.85c.19-.3.42-.54.71-.72s.64-.27,1.04-.27c.24,0,.42.03.56.1v1.18c-.19-.04-.4-.05-.62-.05Z"/><path class="ai" d="m387.3,100.62c-.08-.18-.14-.44-.18-.78-.24.25-.53.47-.89.65s-.76.27-1.22.27c-.76,0-1.36-.21-1.82-.64s-.68-.94-.68-1.56c0-.79.3-1.4.9-1.81s1.41-.62,2.43-.62h1.25v-.59c0-.44-.13-.79-.39-1.05s-.65-.39-1.17-.39c-.48,0-.86.12-1.16.35s-.44.51-.44.82h-1.26c0-.53.27-1.03.8-1.49s1.25-.7,2.14-.7c.8,0,1.46.21,1.98.62s.77,1.03.77,1.86v3.45c0,.25.02.51.06.79s.11.52.19.72v.11h-1.32Zm-2.1-.97c.46,0,.85-.11,1.19-.34s.57-.48.71-.76v-1.52h-1.05c-1.51,0-2.26.46-2.26,1.37,0,.35.12.65.36.89s.59.37,1.06.37Z"/><path class="ai" d="m393.48,100.62c-.1.03-.23.06-.39.09s-.36.04-.58.04c-.47,0-.87-.14-1.2-.43s-.5-.8-.5-1.54v-4.59h-1.35v-.97h1.35v-1.8h1.26v1.8h1.38v.97h-1.38v4.59c0,.38.08.62.25.72s.35.16.57.16c.1,0,.22-.01.33-.03s.2-.04.26-.05v1.03Z"/><path class="ai" d="m241.7,107.22l-2.66,7.4h-.96l-2.68-7.4h1.3l1.88,5.67,1.83-5.67h1.29Z"/><path class="ai" d="m246.05,111v-.16c0-1.07.3-1.97.9-2.68s1.42-1.08,2.45-1.08,1.87.36,2.47,1.08.91,1.61.91,2.68v.16c0,1.07-.3,1.96-.91,2.68s-1.42,1.07-2.46,1.07-1.86-.36-2.46-1.07-.91-1.61-.91-2.68Zm1.26-.16v.16c0,.73.17,1.37.52,1.91s.88.81,1.58.81,1.21-.27,1.57-.81.53-1.17.53-1.91v-.16c0-.72-.18-1.36-.53-1.9s-.88-.82-1.58-.82-1.22.27-1.57.82-.52,1.18-.52,1.9Z"/><path class="ai" d="m260.63,111c0,1.08-.25,1.98-.75,2.69s-1.21,1.07-2.13,1.07-1.65-.33-2.16-.99l-.07.85h-1.16v-10.5h1.27v3.9c.5-.62,1.2-.94,2.11-.94s1.64.35,2.14,1.04.75,1.6.75,2.73v.14Zm-3.21-2.85c-.46,0-.83.11-1.12.33s-.51.49-.67.82v3.22c.16.33.39.6.68.83s.67.33,1.12.33c.68,0,1.17-.26,1.47-.79s.45-1.16.45-1.89v-.14c0-.73-.14-1.37-.43-1.9s-.79-.8-1.51-.8Z"/><path class="ai" d="m267,114.62l-.06-.79c-.51.62-1.21.93-2.11.93s-1.57-.36-2.11-1.07-.8-1.61-.8-2.69v-.14c0-1.13.27-2.04.8-2.73s1.24-1.04,2.12-1.04,1.55.29,2.05.88v-3.84h1.27v10.5h-1.16Zm-3.81-3.62c0,.73.15,1.36.46,1.89s.81.79,1.49.79c.44,0,.8-.1,1.08-.3s.5-.46.67-.77v-3.4c-.16-.31-.39-.56-.67-.76s-.64-.3-1.07-.3c-.69,0-1.19.27-1.5.8s-.47,1.17-.47,1.9v.14Z"/><path class="ai" d="m269.79,111v-.16c0-1.07.3-1.97.9-2.68s1.42-1.08,2.45-1.08,1.87.36,2.47,1.08.91,1.61.91,2.68v.16c0,1.07-.3,1.96-.91,2.68s-1.42,1.07-2.46,1.07-1.86-.36-2.46-1.07-.91-1.61-.91-2.68Zm1.26-.16v.16c0,.73.17,1.37.52,1.91s.88.81,1.58.81,1.21-.27,1.57-.81.53-1.17.53-1.91v-.16c0-.72-.18-1.36-.53-1.9s-.88-.82-1.58-.82-1.22.27-1.57.82-.52,1.18-.52,1.9Z"/><path class="ai" d="m284.37,111c0,1.08-.25,1.98-.75,2.69s-1.21,1.07-2.13,1.07-1.65-.33-2.16-.99l-.07.85h-1.16v-10.5h1.27v3.9c.5-.62,1.2-.94,2.11-.94s1.64.35,2.14,1.04.75,1.6.75,2.73v.14Zm-3.21-2.85c-.46,0-.83.11-1.12.33s-.51.49-.67.82v3.22c.16.33.39.6.68.83s.67.33,1.12.33c.68,0,1.17-.26,1.47-.79s.45-1.16.45-1.89v-.14c0-.73-.14-1.37-.43-1.9s-.79-.8-1.51-.8Z"/><path class="ai" d="m286.03,106.14l1.33-2.01h1.52l-1.83,2.01h-1.02Zm1.31,1.08v7.4h-1.26v-7.4h1.26Z"/><path class="ai" d="m296.93,104.61v10.01h-1.26v-8.43l-2.55.93v-1.14l3.62-1.37h.2Z"/><path class="ai" d="m306.76,109.01c0,.65-.06,1.3-.17,1.96s-.33,1.26-.65,1.82-.8,1-1.43,1.34-1.46.51-2.49.51h-.13v-1.07h.13c.92,0,1.62-.16,2.11-.47s.83-.73,1.03-1.23.3-1.05.32-1.62c-.26.31-.58.57-.95.77s-.77.29-1.2.29c-.66,0-1.19-.16-1.61-.49s-.73-.75-.93-1.25-.3-1.03-.3-1.58c0-.95.26-1.76.78-2.43s1.29-1.01,2.31-1.01c.76,0,1.37.2,1.84.59s.81.9,1.02,1.51.32,1.26.32,1.93v.46Zm-5.02-1.11c0,.59.15,1.13.45,1.61s.75.72,1.36.72c.43,0,.83-.13,1.18-.39s.61-.58.78-.96v-.5c0-.91-.19-1.6-.58-2.08s-.83-.72-1.34-.72c-.59,0-1.04.22-1.36.67s-.48,1-.48,1.66Z"/><path class="ai" d="m314.88,111.37c0,.94-.26,1.74-.79,2.4s-1.29.98-2.3.98c-.72,0-1.31-.19-1.78-.57s-.83-.86-1.06-1.45-.35-1.19-.35-1.8v-.59c0-.93.13-1.84.39-2.71s.74-1.58,1.43-2.14,1.67-.84,2.95-.84h.11v1.07h-.11c-.81,0-1.46.15-1.95.46s-.86.71-1.1,1.21-.38,1.02-.43,1.59c.27-.31.59-.54.96-.68s.76-.22,1.18-.22c.66,0,1.2.16,1.62.48s.73.73.93,1.23.3,1.03.3,1.57Zm-5.02-.4c0,.88.2,1.56.59,2.03s.84.7,1.34.7c.58,0,1.04-.21,1.36-.64s.48-.97.48-1.64c0-.59-.15-1.12-.44-1.59s-.75-.7-1.37-.7c-.44,0-.84.13-1.2.4s-.61.59-.75.96v.48Z"/><path class="ai" d="m320.54,104.61v10.01h-1.26v-8.43l-2.55.93v-1.14l3.62-1.37h.2Z"/><path class="ai" d="m331.37,109.13v1.04h-6.85v-1.04h6.85Z"/><path class="ai" d="m337.59,104.61v10.01h-1.26v-8.43l-2.55.93v-1.14l3.62-1.37h.2Z"/><path class="ai" d="m347.42,109.01c0,.65-.06,1.3-.17,1.96s-.33,1.26-.65,1.82-.8,1-1.43,1.34-1.46.51-2.49.51h-.13v-1.07h.13c.92,0,1.62-.16,2.11-.47s.83-.73,1.03-1.23.3-1.05.32-1.62c-.26.31-.58.57-.95.77s-.77.29-1.2.29c-.66,0-1.19-.16-1.61-.49s-.73-.75-.93-1.25-.3-1.03-.3-1.58c0-.95.26-1.76.78-2.43s1.29-1.01,2.31-1.01c.76,0,1.37.2,1.84.59s.81.9,1.02,1.51.32,1.26.32,1.93v.46Zm-5.02-1.11c0,.59.15,1.13.45,1.61s.75.72,1.36.72c.43,0,.83-.13,1.18-.39s.61-.58.78-.96v-.5c0-.91-.19-1.6-.58-2.08s-.83-.72-1.34-.72c-.59,0-1.04.22-1.36.67s-.48,1-.48,1.66Z"/><path class="ai" d="m355.44,111.92c0,.91-.3,1.61-.91,2.1s-1.36.73-2.25.73-1.64-.24-2.25-.73-.91-1.19-.91-2.1c0-.56.15-1.05.45-1.47s.7-.75,1.21-.97c-.44-.21-.79-.52-1.05-.91s-.39-.83-.39-1.32c0-.87.28-1.54.83-2.02s1.25-.71,2.1-.71,1.56.24,2.11.71.83,1.15.83,2.02c0,.49-.13.93-.4,1.32s-.62.69-1.06.91c.52.22.93.54,1.23.97s.46.92.46,1.47Zm-1.27-.03c0-.56-.18-1.01-.53-1.36s-.81-.53-1.38-.53-1.04.18-1.38.53-.51.8-.51,1.36.17,1.02.51,1.34.8.48,1.39.48,1.05-.16,1.39-.48.51-.77.51-1.34Zm-.23-4.62c0-.5-.15-.91-.46-1.23s-.71-.48-1.21-.48-.9.15-1.2.46-.46.72-.46,1.25.15.93.46,1.24.71.46,1.21.46.9-.15,1.21-.46.46-.72.46-1.24Z"/><path class="ai" d="m363.29,108.85v1.52c0,1.63-.28,2.77-.84,3.42s-1.33.97-2.29.97-1.72-.32-2.29-.97-.86-1.79-.86-3.42v-1.52c0-1.63.28-2.75.85-3.38s1.33-.94,2.28-.94,1.73.31,2.3.94.85,1.75.85,3.38Zm-1.27,1.72v-1.93c0-1.12-.16-1.91-.48-2.38s-.79-.7-1.4-.7-1.06.23-1.38.7-.48,1.26-.48,2.38v1.93c0,1.11.16,1.91.49,2.41s.79.74,1.39.74,1.09-.25,1.4-.74.47-1.29.47-2.41Z"/><path class="ag" d="m548.37,94.83v1.37h-5.84v-1.16l2.76-2.94c.42-.46.71-.84.87-1.14s.24-.57.24-.82c0-.38-.09-.68-.28-.9s-.46-.33-.82-.33c-.4,0-.71.14-.92.41s-.32.62-.32,1.03h-1.69c0-.77.26-1.43.79-1.98s1.25-.83,2.17-.83,1.58.22,2.06.65.71,1.02.71,1.77c0,.57-.17,1.11-.52,1.63s-.8,1.07-1.37,1.66l-1.51,1.59h3.67Z"/><path class="ag" d="m552.03,92.5h-.9v-1.33h.9c.43,0,.74-.11.95-.32s.31-.5.31-.86c0-.32-.09-.58-.28-.78s-.48-.31-.87-.31c-.31,0-.58.09-.81.26s-.34.41-.34.71h-1.69c0-.7.27-1.27.81-1.69s1.2-.64,1.98-.64c.86,0,1.56.21,2.09.62s.8,1.02.8,1.81c0,.37-.11.72-.34,1.05s-.55.6-.96.79c.48.17.83.42,1.07.77s.36.75.36,1.22c0,.8-.29,1.42-.86,1.86s-1.3.66-2.16.66c-.48,0-.94-.09-1.39-.26s-.81-.44-1.09-.81-.42-.82-.42-1.39h1.7c0,.32.12.58.35.78s.53.31.89.31c.4,0,.72-.11.94-.32s.34-.5.34-.85c0-.45-.12-.78-.38-.98s-.59-.3-1.02-.3Z"/><path class="ag" d="m557.96,94.75v1.15c0,.44-.11.88-.33,1.33s-.49.81-.83,1.1l-.88-.46c.14-.27.28-.54.41-.83s.2-.64.2-1.06v-1.24h1.43Z"/><path class="ag" d="m564.97,91.18v1.48c0,1.29-.26,2.21-.79,2.79s-1.22.86-2.08.86-1.56-.29-2.09-.86-.8-1.5-.8-2.79v-1.48c0-1.28.26-2.21.79-2.78s1.22-.86,2.08-.86,1.55.29,2.09.86.8,1.5.8,2.78Zm-1.69,1.71v-1.95c0-.76-.1-1.29-.31-1.58s-.5-.45-.88-.45-.67.15-.87.45-.31.83-.31,1.58v1.95c0,.76.1,1.29.31,1.6s.5.46.88.46.67-.15.87-.46.31-.84.31-1.6Z"/><path class="ag" d="m569.26,89.16c0-.44.16-.82.47-1.14s.69-.48,1.12-.48.8.16,1.1.48.46.7.46,1.14-.15.82-.46,1.12-.67.46-1.1.46-.81-.15-1.12-.46-.47-.68-.47-1.12Zm.86,0c0,.21.07.38.22.52s.32.21.52.21.37-.07.5-.21.21-.31.21-.52-.07-.39-.21-.54-.3-.21-.5-.21-.37.07-.52.21-.22.32-.22.54Z"/><path class="ag" d="m578.89,93.35h1.76c-.06.87-.38,1.58-.98,2.13s-1.41.83-2.46.83-1.96-.37-2.58-1.1-.94-1.74-.94-3v-.56c0-1.26.32-2.26.97-3s1.5-1.11,2.58-1.11,1.88.28,2.45.85.89,1.29.97,2.17h-1.76c-.04-.51-.18-.9-.42-1.17s-.66-.41-1.24-.41c-1.17,0-1.76.89-1.76,2.66v.57c0,.88.13,1.55.4,1.99s.71.67,1.34.67c.55,0,.96-.13,1.22-.38s.41-.63.45-1.14Z"/><path class="ag" d="m547.53,101.85l-2.28,6.34h-.83l-2.3-6.34h1.11l1.61,4.86,1.57-4.86h1.11Z"/><path class="ag" d="m554.09,102.78c-.37,0-.68.08-.91.25s-.42.39-.53.67v4.5h-1.08v-6.34h1.05l.02.73c.16-.26.36-.46.61-.62s.55-.23.89-.23c.2,0,.36.03.48.08v1.01c-.17-.03-.34-.05-.53-.05Z"/><path class="ag" d="m555.22,105.09v-.13c0-.92.26-1.68.77-2.3s1.22-.92,2.1-.92,1.6.31,2.12.92.78,1.38.78,2.3v.13c0,.92-.26,1.68-.78,2.3s-1.22.92-2.11.92-1.59-.31-2.11-.92-.78-1.38-.78-2.3Zm1.08-.13v.13c0,.63.15,1.17.45,1.63s.75.69,1.36.69,1.04-.23,1.34-.69.45-1.01.45-1.63v-.13c0-.62-.15-1.17-.45-1.63s-.75-.7-1.35-.7-1.05.23-1.34.7-.45,1.01-.45,1.63Z"/><path class="ag" d="m564.88,107.42c.39,0,.73-.12,1.02-.35s.45-.53.48-.88h1.03c-.03.57-.29,1.06-.78,1.49s-1.07.64-1.75.64c-.95,0-1.66-.31-2.12-.94s-.69-1.37-.69-2.22v-.25c0-.85.23-1.59.69-2.22s1.17-.94,2.12-.94c.74,0,1.34.22,1.8.66s.7.99.73,1.64h-1.03c-.03-.39-.17-.72-.44-1s-.62-.41-1.05-.41-.79.11-1.05.34-.43.51-.53.86-.16.71-.16,1.07v.25c0,.37.05.73.15,1.08s.28.63.53.86.6.34,1.05.34Z"/><path class="ag" d="m573.64,107.08c-.21.31-.5.59-.88.85s-.88.38-1.51.38c-.88,0-1.59-.29-2.12-.86s-.79-1.31-.79-2.2v-.25c0-.69.13-1.28.4-1.77s.61-.86,1.03-1.11.87-.38,1.35-.38c.91,0,1.57.3,1.98.89s.62,1.33.62,2.22v.49h-4.29c.02.58.19,1.08.52,1.49s.78.61,1.36.61c.38,0,.71-.08.97-.23s.5-.37.7-.63l.66.52Zm-2.53-4.46c-.43,0-.79.16-1.09.47s-.48.76-.56,1.35h3.17v-.08c-.03-.42-.15-.82-.37-1.18s-.6-.55-1.16-.55Z"/><path class="ag" d="m583.44,107.3v.89h-5.58v-.78l2.79-3.11c.52-.57.86-1.03,1.04-1.36s.27-.66.27-.99c0-.42-.13-.78-.39-1.07s-.63-.45-1.1-.45c-.57,0-1,.16-1.28.49s-.42.74-.42,1.25h-1.08c0-.72.24-1.34.71-1.85s1.16-.77,2.07-.77c.8,0,1.43.21,1.89.63s.68.97.68,1.65c0,.5-.16,1.01-.47,1.52s-.69,1-1.13,1.48l-2.29,2.48h4.28Z"/><path class="ag" d="m589.95,103.25v1.3c0,1.4-.24,2.38-.72,2.93s-1.14.83-1.97.83-1.47-.28-1.96-.83-.74-1.53-.74-2.93v-1.3c0-1.39.24-2.36.73-2.9s1.14-.81,1.96-.81,1.49.27,1.97.81.73,1.5.73,2.9Zm-1.09,1.48v-1.66c0-.96-.14-1.64-.41-2.04s-.67-.6-1.2-.6-.91.2-1.19.6-.41,1.08-.41,2.04v1.66c0,.95.14,1.64.42,2.06s.68.63,1.19.63.93-.21,1.2-.63.4-1.11.4-2.06Z"/><path class="ag" d="m594.9,99.61v8.58h-1.08v-7.22l-2.19.8v-.98l3.1-1.17h.17Z"/><path class="ag" d="m603.46,105.88c0,.78-.26,1.38-.78,1.8s-1.17.63-1.93.63-1.41-.21-1.93-.63-.78-1.02-.78-1.8c0-.48.13-.9.38-1.26s.6-.64,1.04-.83c-.38-.18-.68-.44-.9-.78s-.33-.71-.33-1.13c0-.75.24-1.32.71-1.73s1.08-.61,1.8-.61,1.33.2,1.81.61.71.98.71,1.73c0,.42-.11.8-.34,1.13s-.53.59-.91.78c.44.19.79.46,1.05.83s.39.79.39,1.26Zm-1.09-.02c0-.48-.15-.87-.45-1.17s-.7-.45-1.18-.45-.89.15-1.18.45-.44.69-.44,1.17.15.88.44,1.15.69.41,1.19.41.9-.14,1.19-.41.43-.66.43-1.15Zm-.19-3.96c0-.43-.13-.78-.4-1.05s-.61-.41-1.04-.41-.77.13-1.03.4-.39.62-.39,1.07.13.79.39,1.06.61.4,1.04.4.77-.13,1.03-.4.4-.62.4-1.06Z"/><path class="ab" d="m545.45,120.19c-.09.03-.2.05-.34.08s-.31.04-.5.04c-.4,0-.75-.12-1.03-.37s-.43-.69-.43-1.32v-3.93h-1.16v-.83h1.16v-1.54h1.08v1.54h1.18v.83h-1.18v3.94c0,.32.07.53.21.62s.3.13.49.13c.09,0,.18,0,.28-.03s.17-.03.23-.04v.88Z"/><path class="ab" d="m546.72,113.85h1.09v7.1c0,1.2-.55,1.8-1.66,1.8-.24,0-.47-.03-.67-.1v-.87c.15.04.32.05.5.05.24,0,.42-.07.55-.2s.19-.36.19-.69v-7.1Zm-.11-1.68c0-.18.05-.32.16-.45s.27-.18.47-.18.37.06.48.18.16.27.16.45-.05.31-.16.43-.27.18-.48.18-.37-.06-.47-.18-.16-.26-.16-.43Z"/><path class="ab" d="m549.58,119.62c0-.18.06-.34.17-.47s.28-.19.5-.19.39.06.5.19.17.28.17.47-.06.33-.17.46-.28.19-.5.19-.39-.06-.5-.19-.17-.28-.17-.46Z"/><path class="ab" d="m555.35,117.09v-.12c0-.92.26-1.69.78-2.3s1.24-.93,2.16-.93,1.65.31,2.17.93.78,1.38.78,2.3v.12c0,.92-.26,1.69-.78,2.3s-1.24.92-2.17.92-1.65-.31-2.17-.92-.78-1.38-.78-2.3Zm1.42-.12v.12c0,.57.12,1.06.37,1.47s.63.61,1.17.61.91-.2,1.15-.61.37-.9.37-1.47v-.12c0-.56-.12-1.05-.37-1.46s-.63-.62-1.16-.62-.91.21-1.16.62-.37.9-.37,1.46Z"/><path class="ab" d="m570.9,117.87c0,.79-.27,1.4-.8,1.82s-1.2.63-1.99.63-1.46-.21-2-.63-.81-1.02-.81-1.81c0-.47.12-.89.37-1.25s.58-.63,1-.83c-.37-.19-.66-.45-.87-.77s-.32-.7-.32-1.11c0-.75.25-1.34.74-1.75s1.11-.62,1.87-.62,1.38.21,1.87.62.74.99.74,1.75c0,.41-.11.79-.32,1.11s-.51.59-.87.77c.42.2.76.47,1.01.83s.38.77.38,1.25Zm-1.42-.08c0-.42-.13-.76-.38-1.02s-.58-.39-1-.39-.75.13-1,.39-.37.6-.37,1.02.12.77.37,1.01.58.37,1.01.37.76-.12,1-.37.36-.58.36-1.01Zm-.19-3.83c0-.38-.11-.68-.32-.92s-.5-.35-.86-.35-.65.11-.86.34-.32.54-.32.93.11.69.32.93.5.35.87.35.65-.12.86-.35.32-.54.32-.93Z"/><path class="ab" d="m573.56,118.81v1.01c0,.4-.1.81-.3,1.24s-.47.78-.81,1.05l-.77-.45c.16-.26.3-.53.42-.81s.18-.61.18-.97v-1.06h1.28Z"/><path class="ab" d="m580.48,117.4c0,.82-.24,1.51-.72,2.07s-1.16.84-2.04.84c-.62,0-1.14-.16-1.56-.47s-.75-.72-.97-1.23-.33-1.06-.33-1.65v-.56c0-.84.14-1.63.41-2.36s.72-1.31,1.34-1.76,1.44-.67,2.47-.67h.16v1.17h-.1c-.93,0-1.61.24-2.05.72s-.7,1.06-.77,1.74c.45-.47,1.03-.71,1.75-.71.83,0,1.45.29,1.84.87s.59,1.24.59,1.98Zm-4.21-.31c0,.68.14,1.2.42,1.55s.62.52,1,.52c.43,0,.77-.16,1.01-.49s.37-.74.37-1.24c0-.47-.12-.88-.35-1.23s-.57-.52-1.02-.52c-.33,0-.63.09-.88.28s-.44.41-.55.68v.44Z"/><path class="ab" d="m584.71,113.11c0-.43.15-.8.46-1.11s.67-.47,1.1-.47.78.16,1.08.47.45.68.45,1.11-.15.8-.45,1.1-.66.45-1.08.45-.79-.15-1.1-.45-.46-.67-.46-1.1Zm.81,0c0,.21.07.38.22.52s.32.21.52.21.37-.07.5-.21.21-.31.21-.52-.07-.39-.21-.54-.3-.21-.5-.21-.37.07-.52.21-.22.32-.22.54Z"/><path class="ab" d="m594.43,117.41h1.48c-.07.83-.39,1.52-.94,2.07s-1.35.83-2.4.83-1.89-.37-2.51-1.1-.93-1.71-.93-2.94v-.69c0-1.23.32-2.21.95-2.94s1.49-1.1,2.56-1.1,1.8.28,2.34.83.85,1.25.94,2.11h-1.48c-.06-.54-.23-.97-.49-1.28s-.7-.46-1.31-.46c-.68,0-1.18.25-1.51.74s-.5,1.19-.5,2.09v.7c0,.85.15,1.54.45,2.06s.8.78,1.49.78c.64,0,1.09-.15,1.36-.44s.44-.71.51-1.26Z"/><path class="ab" d="m603.03,120.17c-.11.04-.25.07-.4.1s-.33.04-.54.04c-.47,0-.86-.13-1.17-.4s-.47-.73-.47-1.38v-3.63h-1.05v-1.05h1.05v-1.54h1.42v1.54h1.12v1.05h-1.12v3.54c0,.29.06.47.18.55s.28.13.48.13c.09,0,.19,0,.28-.02s.17-.03.22-.04v1.1Z"/><path class="ab" d="m609.32,119.11c-.2.3-.5.57-.9.82s-.91.38-1.54.38c-.94,0-1.68-.29-2.22-.88s-.81-1.31-.81-2.19v-.24c0-1,.28-1.79.83-2.38s1.23-.88,2.04-.88c.92,0,1.6.29,2.05.88s.67,1.34.67,2.25v.6h-4.14c.04.49.2.89.5,1.22s.69.48,1.19.48c.34,0,.65-.07.91-.21s.49-.33.68-.58l.77.73Zm-2.61-4.24c-.39,0-.71.14-.94.41s-.39.65-.46,1.14h2.71v-.11c-.02-.37-.12-.7-.31-1s-.52-.44-.99-.44Z"/><path class="ab" d="m613.61,120.31c-.69,0-1.25-.23-1.67-.69v3.01h-1.42v-8.78h1.31l.06.64c.43-.5,1-.76,1.71-.76.8,0,1.42.3,1.84.89s.64,1.37.64,2.34v.12c0,.92-.21,1.69-.64,2.3s-1.04.92-1.83.92Zm-.41-5.41c-.31,0-.57.07-.78.2s-.37.31-.48.54v2.79c.12.22.28.4.48.54s.47.21.79.21c.51,0,.88-.21,1.1-.62s.34-.9.34-1.46v-.12c0-.57-.11-1.06-.34-1.46s-.6-.61-1.11-.61Z"/><path class="ab" d="m618.79,111.19v9h-1.42v-9h1.42Z"/><path class="ab" d="m625.58,119.11c-.2.3-.5.57-.9.82s-.91.38-1.54.38c-.94,0-1.68-.29-2.22-.88s-.81-1.31-.81-2.19v-.24c0-1,.28-1.79.83-2.38s1.23-.88,2.04-.88c.92,0,1.6.29,2.05.88s.67,1.34.67,2.25v.6h-4.14c.04.49.2.89.5,1.22s.69.48,1.19.48c.34,0,.65-.07.91-.21s.49-.33.68-.58l.77.73Zm-2.61-4.24c-.39,0-.71.14-.94.41s-.39.65-.46,1.14h2.71v-.11c-.02-.37-.12-.7-.31-1s-.52-.44-.99-.44Z"/><path class="ab" d="m626.85,113.85h1.42v6.9c0,1.33-.63,2-1.9,2-.27,0-.52-.03-.76-.1v-1.12c.18.03.35.05.52.05.48,0,.72-.28.72-.83v-6.9Zm-.12-1.65c0-.22.07-.4.21-.54s.34-.21.59-.21.45.07.59.21.21.32.21.54-.07.4-.21.54-.34.21-.59.21-.45-.07-.59-.21-.21-.32-.21-.54Z"/><path class="ab" d="m629.79,112.2c0-.22.07-.4.21-.54s.34-.21.59-.21.45.07.59.21.21.32.21.54-.07.4-.21.54-.34.21-.59.21-.45-.07-.59-.21-.21-.32-.21-.54Zm1.51,1.65v6.34h-1.42v-6.34h1.42Z"/><path class="ab" d="m542.48,129.09v-.13c0-.92.26-1.68.77-2.3s1.22-.92,2.1-.92,1.6.31,2.12.92.78,1.38.78,2.3v.13c0,.92-.26,1.68-.78,2.3s-1.22.92-2.11.92-1.59-.31-2.11-.92-.78-1.38-.78-2.3Zm1.08-.13v.13c0,.63.15,1.17.45,1.63s.75.69,1.36.69,1.04-.23,1.34-.69.45-1.01.45-1.63v-.13c0-.62-.15-1.17-.45-1.63s-.75-.7-1.35-.7-1.05.23-1.34.7-.45,1.01-.45,1.63Z"/><path class="ab" d="m552.5,132.31c-.76,0-1.37-.24-1.81-.73v3.05h-1.09v-8.78h1l.05.7c.45-.54,1.06-.81,1.83-.81s1.41.3,1.84.89.64,1.38.64,2.34v.12c0,.93-.21,1.69-.64,2.3s-1.03.91-1.82.91Zm-.33-5.66c-.37,0-.67.08-.91.25s-.43.37-.57.62v3.04c.14.25.33.46.57.62s.54.24.92.24c.59,0,1.01-.23,1.29-.69s.41-1.01.41-1.63v-.12c0-.63-.14-1.17-.41-1.63s-.7-.69-1.3-.69Z"/><path class="ab" d="m558.88,126.78c-.37,0-.68.08-.91.25s-.42.39-.53.67v4.5h-1.08v-6.34h1.05l.02.73c.16-.26.36-.46.61-.62s.55-.23.89-.23c.2,0,.36.03.48.08v1.01c-.17-.03-.34-.05-.53-.05Z"/><path class="ab" d="m560.01,129.09v-.13c0-.92.26-1.68.77-2.3s1.22-.92,2.1-.92,1.6.31,2.12.92.78,1.38.78,2.3v.13c0,.92-.26,1.68-.78,2.3s-1.22.92-2.11.92-1.59-.31-2.11-.92-.78-1.38-.78-2.3Zm1.08-.13v.13c0,.63.15,1.17.45,1.63s.75.69,1.36.69,1.04-.23,1.34-.69.45-1.01.45-1.63v-.13c0-.62-.15-1.17-.45-1.63s-.75-.7-1.35-.7-1.05.23-1.34.7-.45,1.01-.45,1.63Z"/><path class="ab" d="m569.82,132.19c-.09.03-.2.05-.34.08s-.31.04-.5.04c-.4,0-.75-.12-1.03-.37s-.43-.69-.43-1.32v-3.93h-1.16v-.83h1.16v-1.54h1.08v1.54h1.18v.83h-1.18v3.94c0,.32.07.53.21.62s.3.13.49.13c.09,0,.18,0,.28-.03s.17-.03.23-.04v.88Z"/><path class="ab" d="m571.07,124.17c0-.18.05-.32.16-.45s.27-.18.48-.18.37.06.48.18.17.27.17.45-.06.31-.17.43-.27.18-.48.18-.37-.06-.48-.18-.16-.26-.16-.43Zm1.17,1.68v6.34h-1.09v-6.34h1.09Z"/><path class="ab" d="m579.59,126.65c-.35,0-.65.09-.92.28s-.47.43-.63.73v4.53h-1.08v-6.34h1.03l.04.79c.48-.61,1.11-.91,1.89-.91.62,0,1.12.18,1.49.53s.55.94.55,1.78v4.15h-1.09v-4.17c0-.5-.11-.85-.33-1.06s-.53-.32-.94-.32Z"/><path class="ab" d="m583.3,129.09v-.13c0-.92.26-1.68.77-2.3s1.22-.92,2.1-.92,1.6.31,2.12.92.78,1.38.78,2.3v.13c0,.92-.26,1.68-.78,2.3s-1.22.92-2.11.92-1.59-.31-2.11-.92-.78-1.38-.78-2.3Zm1.08-.13v.13c0,.63.15,1.17.45,1.63s.75.69,1.36.69,1.04-.23,1.34-.69.45-1.01.45-1.63v-.13c0-.62-.15-1.17-.45-1.63s-.75-.7-1.35-.7-1.05.23-1.34.7-.45,1.01-.45,1.63Z"/><path class="ab" d="m592.96,126.78c-.37,0-.68.08-.91.25s-.42.39-.53.67v4.5h-1.08v-6.34h1.05l.02.73c.16-.26.36-.46.61-.62s.55-.23.89-.23c.2,0,.36.03.48.08v1.01c-.17-.03-.34-.05-.53-.05Z"/><path class="ab" d="m597.03,126.65c-.39,0-.7.08-.93.25s-.41.38-.53.65v4.65h-1.09v-6.34h1.03l.03.69c.46-.54,1.08-.81,1.88-.81.41,0,.77.08,1.09.24s.56.42.73.78c.21-.3.49-.55.82-.74s.74-.28,1.19-.28c.68,0,1.2.18,1.57.54s.55.95.55,1.75v4.17h-1.09v-4.18c0-.53-.12-.89-.37-1.08s-.57-.28-.99-.28c-.44,0-.78.13-1.03.39s-.39.58-.43.95v4.21h-1.08v-4.17c0-.5-.12-.85-.37-1.06s-.57-.31-.98-.31Z"/><path class="ab" d="m608.93,132.19c-.07-.15-.12-.38-.15-.67-.2.21-.46.4-.76.55s-.65.23-1.04.23c-.65,0-1.17-.18-1.56-.54s-.59-.81-.59-1.34c0-.68.26-1.2.77-1.55s1.21-.53,2.08-.53h1.07v-.5c0-.38-.11-.67-.34-.9s-.56-.34-1-.34c-.41,0-.74.1-.99.3s-.38.43-.38.7h-1.08c0-.45.23-.88.69-1.28s1.07-.6,1.83-.6c.69,0,1.25.18,1.69.53s.66.88.66,1.59v2.95c0,.21.02.44.06.67s.09.44.17.62v.09h-1.13Zm-1.8-.83c.39,0,.73-.1,1.02-.29s.49-.41.61-.65v-1.31h-.9c-1.29,0-1.94.39-1.94,1.17,0,.3.1.56.3.76s.51.31.91.31Zm-.13-6.45l1.14-1.72h1.31l-1.57,1.72h-.87Z"/><path class="ab" d="m612.73,123.19v9h-1.09v-9h1.09Z"/><path class="ab" d="m618.4,132.19l-.02-.63c-.2.23-.45.42-.75.55s-.67.2-1.1.2c-.62,0-1.12-.18-1.51-.55s-.57-.97-.57-1.82v-4.09h1.08v4.1c0,.57.12.95.36,1.15s.51.29.81.29c.44,0,.79-.08,1.06-.25s.46-.39.59-.67v-4.62h1.09v6.34h-1.04Z"/><path class="ae" d="m143.08,271.68v.96h-5.3v-.96h5.3Z"/><path class="ae" d="m146.4,272.38l-.94-.24.46-4.6h4.74v1.09h-3.75l-.28,2.51c.17-.1.38-.19.64-.27.26-.08.56-.13.9-.13.85,0,1.52.28,2.02.84.49.56.74,1.31.74,2.26,0,.88-.24,1.62-.72,2.2-.48.58-1.22.87-2.2.87-.75,0-1.4-.21-1.94-.63-.55-.42-.86-1.06-.95-1.93h1.12c.15,1.06.74,1.59,1.77,1.59.55,0,.98-.19,1.29-.56s.46-.89.46-1.53c0-.58-.16-1.07-.48-1.46-.32-.4-.78-.59-1.37-.59-.39,0-.69.05-.9.16s-.41.25-.62.43Z"/><path class="ae" d="m154.21,269.05c0-.45.16-.84.48-1.16.32-.32.7-.49,1.14-.49s.82.16,1.13.49c.31.32.47.71.47,1.16s-.16.84-.47,1.16c-.31.32-.69.48-1.13.48s-.82-.16-1.14-.48c-.32-.32-.48-.7-.48-1.16Zm.79,0c0,.23.08.43.24.58.16.16.36.23.59.23s.42-.08.57-.23c.15-.16.23-.35.23-.58s-.08-.44-.23-.6c-.15-.16-.35-.24-.57-.24s-.42.08-.59.24c-.16.16-.24.36-.24.6Z"/><path class="ae" d="m164.88,273.84h1.22c-.09.88-.42,1.61-.99,2.19s-1.4.88-2.51.88-1.96-.39-2.62-1.17c-.66-.78-.99-1.82-.99-3.11v-.92c0-1.29.33-2.33,1-3.12.67-.78,1.57-1.17,2.71-1.17,1.05,0,1.85.29,2.41.86s.89,1.32.98,2.23h-1.22c-.09-.64-.3-1.15-.62-1.53-.32-.37-.84-.56-1.56-.56-.82,0-1.44.3-1.86.9s-.63,1.39-.63,2.37v.93c0,.91.19,1.69.58,2.33.39.64.99.96,1.81.96s1.33-.18,1.65-.55c.32-.36.53-.87.64-1.52Z"/><path class="ae" d="m55.29,271.68v.96h-5.3v-.96h5.3Z"/><path class="ae" d="m62.94,274.28c0,.85-.28,1.5-.85,1.95-.56.45-1.26.68-2.09.68s-1.53-.23-2.09-.68c-.57-.45-.85-1.1-.85-1.95,0-.52.14-.97.42-1.37.28-.4.65-.69,1.13-.9-.41-.2-.74-.48-.97-.84s-.36-.77-.36-1.23c0-.81.26-1.43.77-1.87.51-.44,1.17-.66,1.95-.66s1.44.22,1.96.66c.51.44.77,1.06.77,1.87,0,.46-.12.87-.37,1.23-.25.36-.57.64-.98.84.48.2.86.5,1.14.9.28.4.42.85.42,1.36Zm-1.18-.03c0-.52-.16-.94-.49-1.26-.33-.33-.75-.49-1.28-.49s-.96.16-1.28.49-.47.75-.47,1.26.16.95.47,1.24.75.44,1.29.44.98-.15,1.29-.44c.31-.3.47-.71.47-1.24Zm-.21-4.29c0-.46-.14-.84-.43-1.14-.29-.3-.66-.45-1.12-.45s-.83.14-1.12.43c-.28.29-.42.67-.42,1.16s.14.86.42,1.15c.28.29.66.43,1.12.43s.83-.14,1.12-.43c.29-.29.43-.67.43-1.15Z"/><path class="ae" d="m66.42,269.05c0-.45.16-.84.48-1.16.32-.32.7-.49,1.14-.49s.82.16,1.13.49c.31.32.47.71.47,1.16s-.16.84-.47,1.16c-.31.32-.69.48-1.13.48s-.82-.16-1.14-.48-.48-.7-.48-1.16Zm.79,0c0,.23.08.43.25.58.16.16.36.23.59.23s.42-.08.57-.23.23-.35.23-.58-.08-.44-.23-.6-.35-.24-.57-.24-.42.08-.59.24c-.16.16-.25.36-.25.6Z"/><path class="ae" d="m77.09,273.84h1.22c-.09.88-.42,1.61-.99,2.19-.57.58-1.4.88-2.51.88s-1.96-.39-2.62-1.17c-.66-.78-.99-1.82-.99-3.11v-.92c0-1.29.33-2.33,1-3.12.67-.78,1.57-1.17,2.71-1.17,1.04,0,1.85.29,2.41.86.56.58.89,1.32.98,2.23h-1.22c-.09-.64-.3-1.15-.62-1.53-.32-.37-.84-.56-1.55-.56-.82,0-1.44.3-1.86.9-.42.6-.63,1.39-.63,2.37v.93c0,.91.19,1.69.58,2.33.38.64.99.96,1.81.96s1.33-.18,1.65-.55.53-.87.64-1.52Z"/><path class="ae" d="m4.82,271.68v.96H-.49v-.96h5.3Z"/><path class="ae" d="m10.51,267.48v9.29h-1.17v-7.83l-2.37.86v-1.06l3.36-1.27h.18Z"/><path class="ae" d="m19.76,271.42v1.41c0,1.52-.26,2.57-.78,3.17-.52.6-1.23.9-2.13.9s-1.59-.3-2.13-.9-.8-1.66-.8-3.17v-1.41c0-1.51.26-2.56.79-3.14.53-.58,1.24-.87,2.12-.87s1.61.29,2.14.87c.53.58.79,1.63.79,3.14Zm-1.18,1.6v-1.8c0-1.04-.15-1.78-.44-2.21s-.73-.65-1.3-.65-.99.22-1.29.65c-.3.43-.45,1.17-.45,2.21v1.8c0,1.03.15,1.78.45,2.23.3.46.73.69,1.29.69s1.01-.23,1.3-.69c.29-.46.44-1.2.44-2.23Z"/><path class="ae" d="m23.25,269.05c0-.45.16-.84.48-1.16.32-.32.7-.49,1.14-.49s.82.16,1.13.49c.31.32.47.71.47,1.16s-.16.84-.47,1.16c-.31.32-.69.48-1.13.48s-.82-.16-1.14-.48c-.32-.32-.48-.7-.48-1.16Zm.79,0c0,.23.08.43.24.58.16.16.36.23.59.23s.42-.08.57-.23c.15-.16.23-.35.23-.58s-.08-.44-.23-.6c-.15-.16-.35-.24-.57-.24s-.42.08-.59.24c-.16.16-.24.36-.24.6Z"/><path class="ae" d="m33.93,273.84h1.22c-.09.88-.42,1.61-.99,2.19s-1.4.88-2.51.88-1.96-.39-2.62-1.17c-.66-.78-.99-1.82-.99-3.11v-.92c0-1.29.33-2.33,1-3.12.67-.78,1.57-1.17,2.71-1.17,1.05,0,1.85.29,2.41.86s.89,1.32.98,2.23h-1.22c-.09-.64-.3-1.15-.62-1.53-.32-.37-.84-.56-1.56-.56-.82,0-1.44.3-1.86.9s-.63,1.39-.63,2.37v.93c0,.91.19,1.69.58,2.33.39.64.99.96,1.81.96s1.33-.18,1.65-.55c.32-.36.53-.87.64-1.52Z"/><circle class="h" cx="90.91" cy="41.72" r="5.06"/><polyline class="h" points="90.91 38.79 90.91 41.72 92.85 43.36"/><path class="ae" d="m107.42,44.82v.82h-5.12v-.71l2.56-2.85c.47-.53.79-.94.96-1.24.17-.3.25-.61.25-.91,0-.38-.12-.71-.36-.98-.24-.27-.57-.41-1.01-.41-.52,0-.91.15-1.17.45s-.39.68-.39,1.14h-.99c0-.66.22-1.22.65-1.7.43-.47,1.07-.71,1.9-.71.74,0,1.32.19,1.73.57s.63.89.63,1.51c0,.46-.14.93-.43,1.4s-.63.92-1.03,1.35l-2.09,2.27h3.92Z"/><path class="ae" d="m111.74,37.78v7.86h-.99v-6.62l-2,.73v-.9l2.84-1.07h.16Z"/><path class="ae" d="m114.78,45.11c0-.17.05-.31.16-.43.11-.12.26-.17.46-.17s.35.06.46.17c.11.12.16.26.16.43s-.05.3-.16.42c-.11.11-.26.17-.46.17s-.35-.06-.46-.17-.16-.25-.16-.42Z"/><path class="ae" d="m122.72,44.93c.35,0,.67-.11.93-.32s.41-.48.44-.81h.95c-.02.52-.26.97-.71,1.36-.45.39-.99.58-1.6.58-.87,0-1.52-.29-1.95-.86-.42-.58-.64-1.25-.64-2.04v-.23c0-.78.21-1.46.64-2.04.42-.58,1.07-.86,1.95-.86.68,0,1.23.2,1.65.6.42.4.64.9.67,1.5h-.95c-.02-.36-.16-.66-.41-.91s-.57-.38-.96-.38-.73.1-.96.31c-.23.21-.39.47-.49.79-.1.32-.14.65-.14.98v.23c0,.34.05.67.14.99.09.32.25.58.49.79.23.21.55.31.96.31Zm-1.04-7.54l.81.91.81-.91h.86v.05l-1.36,1.47h-.61l-1.34-1.47v-.05h.84Z"/><path class="ae" d="m130.75,44.62c-.19.29-.46.55-.81.78-.35.23-.81.35-1.38.35-.81,0-1.46-.26-1.94-.79-.49-.53-.73-1.2-.73-2.02v-.23c0-.63.12-1.17.36-1.62.24-.45.56-.79.94-1.02.39-.23.8-.35,1.24-.35.83,0,1.44.27,1.82.81.38.54.57,1.22.57,2.03v.45h-3.93c.01.53.17.99.48,1.36.3.37.72.56,1.25.56.35,0,.65-.07.89-.21.24-.14.46-.33.64-.57l.6.48Zm-2.31-4.09c-.39,0-.73.14-1,.43-.27.29-.44.7-.51,1.24h2.91v-.08c-.03-.39-.14-.75-.34-1.08-.2-.34-.55-.5-1.06-.5Z"/><path class="ae" d="m134.31,40.68c-.34,0-.62.08-.84.23-.22.15-.38.35-.49.61v4.12h-.99v-5.81h.97l.02.67c.15-.24.33-.42.56-.56s.5-.21.82-.21c.19,0,.33.02.44.08v.92c-.15-.03-.31-.04-.49-.04Z"/><path class="ae" d="m140.18,39.83l-2.09,5.81h-.76l-2.11-5.81h1.02l1.48,4.45,1.44-4.45h1.01Z"/><path class="ae" d="m145.67,44.62c-.19.29-.46.55-.81.78-.35.23-.81.35-1.38.35-.81,0-1.46-.26-1.94-.79s-.73-1.2-.73-2.02v-.23c0-.63.12-1.17.36-1.62.24-.45.56-.79.94-1.02.39-.23.8-.35,1.24-.35.83,0,1.44.27,1.82.81.38.54.57,1.22.57,2.03v.45h-3.93c.01.53.17.99.47,1.36.3.37.72.56,1.25.56.35,0,.65-.07.89-.21.24-.14.46-.33.64-.57l.6.48Zm-2.32-4.09c-.39,0-.73.14-1,.43-.27.29-.44.7-.51,1.24h2.91v-.08c-.02-.39-.14-.75-.34-1.08-.2-.34-.55-.5-1.06-.5Z"/><path class="ae" d="m149.31,40.56c-.32,0-.6.09-.84.26-.24.17-.44.4-.58.67v4.15h-.99v-5.81h.94l.03.73c.44-.56,1.02-.83,1.74-.83.57,0,1.03.16,1.36.48s.5.86.5,1.63v3.81h-1v-3.82c0-.45-.1-.78-.3-.97-.2-.19-.49-.29-.86-.29Z"/><path class="ae" d="m160.08,39.83l-2.09,5.81h-.76l-2.11-5.81h1.02l1.48,4.45,1.44-4.45h1.01Z"/><path class="ae" d="m164.84,37.39v8.25h-1v-8.25h1Z"/><path class="ae" d="m171.03,44.62c-.19.29-.46.55-.81.78-.35.23-.81.35-1.38.35-.81,0-1.46-.26-1.94-.79-.49-.53-.73-1.2-.73-2.02v-.23c0-.63.12-1.17.36-1.62.24-.45.56-.79.94-1.02.39-.23.8-.35,1.24-.35.83,0,1.44.27,1.82.81.38.54.57,1.22.57,2.03v.45h-3.93c.01.53.17.99.48,1.36.3.37.72.56,1.25.56.35,0,.65-.07.89-.21.24-.14.46-.33.64-.57l.6.48Zm-2.31-4.09c-.39,0-.73.14-1,.43-.27.29-.44.7-.51,1.24h2.91v-.08c-.03-.39-.14-.75-.34-1.08-.2-.34-.55-.5-1.06-.5Z"/><path class="ae" d="m174.73,45.64c-.08.02-.18.05-.31.07-.13.02-.28.04-.46.04-.37,0-.68-.11-.95-.34-.26-.23-.39-.63-.39-1.21v-3.6h-1.06v-.76h1.06v-1.41h.99v1.41h1.08v.76h-1.08v3.61c0,.3.06.49.19.57s.28.12.45.12c.08,0,.17,0,.26-.02.09-.02.16-.03.21-.04v.81Z"/><path class="ae" d="m180.46,44.62c-.19.29-.46.55-.81.78-.35.23-.81.35-1.38.35-.81,0-1.46-.26-1.94-.79-.49-.53-.73-1.2-.73-2.02v-.23c0-.63.12-1.17.36-1.62.24-.45.56-.79.94-1.02.39-.23.8-.35,1.24-.35.83,0,1.44.27,1.82.81.38.54.57,1.22.57,2.03v.45h-3.93c.01.53.17.99.48,1.36.3.37.72.56,1.25.56.35,0,.65-.07.89-.21.24-.14.46-.33.64-.57l.6.48Zm-2.31-4.09c-.39,0-.73.14-1,.43-.27.29-.44.7-.51,1.24h2.91v-.08c-.03-.39-.14-.75-.34-1.08-.2-.34-.55-.5-1.06-.5Z"/><path class="ae" d="m184.03,44.93c.35,0,.67-.11.93-.32s.41-.48.44-.81h.95c-.02.52-.26.97-.71,1.36-.45.39-.99.58-1.6.58-.87,0-1.52-.29-1.95-.86-.42-.58-.64-1.25-.64-2.04v-.23c0-.78.21-1.46.64-2.04.42-.58,1.07-.86,1.95-.86.68,0,1.23.2,1.65.6.42.4.64.9.67,1.5h-.95c-.02-.36-.16-.66-.41-.91s-.57-.38-.96-.38-.73.1-.96.31c-.23.21-.39.47-.49.79-.1.32-.14.65-.14.98v.23c0,.34.05.67.14.99.09.32.25.58.49.79.23.21.55.31.96.31Z"/><path class="ae" d="m189.87,40.56c-.32,0-.6.09-.84.26-.24.17-.43.4-.57.67v4.15h-.99v-8.25h.99v3.13c.44-.53,1.01-.8,1.71-.8.57,0,1.03.16,1.36.48.33.32.5.86.5,1.63v3.81h-1v-3.82c0-.45-.1-.78-.3-.97-.2-.19-.49-.29-.86-.29Z"/><path class="ae" d="m199.61,37.79v7.85h-1.31v-6.28l-1.92.66v-1.1l3.06-1.12h.17Z"/><path class="ae" d="m207.34,41.32c0,.75-.11,1.46-.33,2.12-.22.66-.62,1.2-1.17,1.62-.56.41-1.34.62-2.35.62h-.11v-1.08h.1c.93,0,1.58-.21,1.95-.64s.57-.96.61-1.59c-.2.21-.43.38-.69.5-.26.13-.54.19-.85.19-.76,0-1.32-.26-1.69-.79-.37-.53-.56-1.14-.56-1.82,0-.75.22-1.39.66-1.93s1.06-.8,1.86-.8c.86,0,1.5.31,1.93.94.43.63.64,1.37.64,2.24v.42Zm-3.81-.91c0,.43.1.8.3,1.14.2.33.51.5.93.5.28,0,.54-.08.77-.24.23-.16.4-.36.51-.6v-.51c0-.63-.13-1.1-.38-1.43-.26-.32-.55-.49-.89-.49-.39,0-.69.16-.91.48-.21.32-.32.71-.32,1.16Z"/><path class="ae" d="m213.79,43.08c0,.75-.22,1.38-.66,1.9s-1.07.77-1.87.77c-.57,0-1.04-.14-1.43-.43-.39-.29-.69-.66-.89-1.13-.2-.47-.3-.97-.3-1.51v-.51c0-.77.12-1.49.38-2.16.25-.67.66-1.2,1.22-1.61.57-.41,1.32-.61,2.26-.61h.15v1.07h-.09c-.85,0-1.48.22-1.88.66-.41.44-.64.97-.71,1.6.41-.43.94-.65,1.6-.65.76,0,1.32.27,1.69.8.36.53.54,1.14.54,1.82Zm-3.86-.28c0,.63.13,1.1.39,1.42.26.32.56.48.92.48.39,0,.7-.15.93-.45.22-.3.33-.68.33-1.14,0-.43-.11-.81-.32-1.13-.21-.32-.53-.48-.94-.48-.3,0-.57.09-.81.26-.24.17-.4.38-.5.62v.4Z"/><path class="ae" d="m218.37,37.79v7.85h-1.31v-6.28l-1.92.66v-1.1l3.06-1.12h.17Z"/><path class="ae" d="m226.8,41.25v1.05h-5.47v-1.05h5.47Z"/><path class="ae" d="m233.44,44.59v1.05h-5.26v-.9l2.55-2.77c.43-.48.72-.86.88-1.14.15-.28.23-.56.23-.82,0-.36-.1-.65-.3-.89-.2-.23-.49-.35-.86-.35-.44,0-.78.14-1,.41-.22.27-.33.61-.33,1.03h-1.3c0-.68.23-1.27.69-1.76s1.12-.73,1.96-.73c.78,0,1.38.2,1.81.59s.64.91.64,1.56c0,.49-.15.96-.45,1.43s-.68.95-1.14,1.43l-1.75,1.87h3.64Z"/><path class="ae" d="m239.53,41.08v1.26c0,1.24-.23,2.12-.7,2.63s-1.08.77-1.86.77-1.39-.26-1.86-.77-.71-1.39-.71-2.63v-1.26c0-1.24.23-2.11.7-2.62.47-.5,1.09-.75,1.85-.75s1.39.25,1.86.75c.47.5.7,1.37.7,2.62Zm-1.3,1.45v-1.65c0-.79-.11-1.34-.33-1.65-.22-.31-.53-.47-.93-.47s-.71.16-.92.47c-.22.31-.33.86-.33,1.65v1.65c0,.79.11,1.35.33,1.68.22.33.53.49.93.49s.71-.16.93-.49c.21-.33.32-.89.32-1.68Z"/><path class="ae" d="m245.94,44.59v1.05h-5.26v-.9l2.55-2.77c.43-.48.72-.86.88-1.14.15-.28.23-.56.23-.82,0-.36-.1-.65-.3-.89-.2-.23-.49-.35-.86-.35-.44,0-.78.14-1,.41-.22.27-.33.61-.33,1.03h-1.3c0-.68.23-1.27.69-1.76s1.12-.73,1.96-.73c.78,0,1.38.2,1.81.59s.64.91.64,1.56c0,.49-.15.96-.45,1.43s-.68.95-1.14,1.43l-1.75,1.87h3.64Z"/><path class="ae" d="m252.2,44.59v1.05h-5.26v-.9l2.55-2.77c.43-.48.72-.86.88-1.14.15-.28.23-.56.23-.82,0-.36-.1-.65-.3-.89-.2-.23-.49-.35-.86-.35-.44,0-.78.14-1,.41-.22.27-.33.61-.33,1.03h-1.3c0-.68.23-1.27.69-1.76s1.12-.73,1.96-.73c.78,0,1.38.2,1.81.59s.64.91.64,1.56c0,.49-.15.96-.45,1.43s-.68.95-1.14,1.43l-1.75,1.87h3.64Z"/><path class="h" d="m275.88,41.48v-6.41c0-.86-.69-1.55-1.55-1.55s-1.55.69-1.55,1.55v6.41c-1.29.59-2.2,1.89-2.2,3.4,0,2.07,1.68,3.75,3.75,3.75s3.75-1.68,3.75-3.75c0-1.51-.9-2.81-2.2-3.4Zm-1.51,4.66c-.72,0-1.3-.58-1.3-1.3s.58-1.3,1.3-1.3,1.3.58,1.3,1.3-.58,1.3-1.3,1.3Z"/><line class="h" x1="277.41" y1="36.08" x2="279.62" y2="36.08"/><line class="h" x1="277.41" y1="38.15" x2="278.81" y2="38.15"/><path class="ae" d="m288.42,40.55c-.52,0-.91.24-1.17.71v4.15h-1.31v-5.81h1.23l.04.67c.43-.52.99-.77,1.68-.77.56,0,1.01.16,1.35.49s.5.88.5,1.67v3.76h-1.31v-3.77c0-.4-.09-.68-.26-.84-.17-.16-.43-.24-.77-.24Z"/><path class="ae" d="m296.88,44.42c-.19.27-.46.52-.82.75-.36.23-.84.34-1.42.34-.86,0-1.54-.27-2.04-.81s-.74-1.21-.74-2v-.22c0-.92.25-1.65.76-2.19.51-.54,1.13-.81,1.87-.81.85,0,1.47.27,1.88.81.41.54.61,1.22.61,2.06v.55h-3.8c.04.45.19.82.45,1.11.27.29.63.44,1.09.44.31,0,.59-.06.83-.19.24-.13.45-.3.62-.53l.7.67Zm-2.39-3.88c-.36,0-.65.13-.86.38s-.36.6-.42,1.04h2.48v-.1c-.02-.34-.11-.65-.28-.92-.17-.27-.47-.41-.91-.41Z"/><path class="ae" d="m298.04,39.6h1.31v6.33c0,1.22-.58,1.83-1.74,1.83-.24,0-.48-.03-.7-.09v-1.03c.16.03.32.04.47.04.44,0,.66-.25.66-.76v-6.33Zm-.11-1.51c0-.2.07-.37.2-.5s.31-.2.54-.2.41.07.54.2.2.3.2.5-.07.37-.2.5-.31.2-.54.2-.41-.07-.54-.2-.2-.3-.2-.5Z"/><path class="ae" d="m305.37,39.6l-2.01,5.81h-1.13l-2.03-5.81h1.35l1.26,4.15,1.22-4.15h1.35Z"/><path class="ae" d="m308.48,46.29c-.07.19-.17.4-.31.63-.13.23-.32.43-.56.59-.24.16-.55.24-.93.24-.11,0-.22,0-.33-.03-.11-.02-.21-.04-.3-.06v-1.01s.07,0,.13.01c.05,0,.09,0,.12,0,.32,0,.57-.06.74-.17.17-.12.3-.32.4-.61l.19-.5-2.04-5.78h1.41l1.23,3.95,1.18-3.95h1.39l-2.31,6.69Z"/><path class="ae" d="m314.8,43.83c0-.19-.08-.35-.23-.49s-.49-.26-1.02-.37c-.62-.13-1.12-.33-1.51-.59-.38-.26-.58-.64-.58-1.12s.2-.89.6-1.24c.4-.35.95-.52,1.64-.52.73,0,1.3.18,1.71.53.41.35.62.79.62,1.32h-1.31c0-.23-.09-.43-.26-.6-.17-.18-.43-.27-.77-.27s-.57.07-.73.22-.24.32-.24.51.08.34.24.46c.16.11.48.22.95.32.67.15,1.2.35,1.58.61.38.26.57.65.57,1.17s-.21.94-.64,1.27-1,.49-1.71.49c-.8,0-1.41-.2-1.83-.61s-.63-.85-.63-1.33h1.27c.01.36.15.61.39.75.25.14.52.21.8.21.34,0,.61-.07.79-.2.18-.13.27-.3.27-.51Zm-1.77-6.68l.79.83.78-.83h1.12v.06l-1.5,1.49h-.81l-1.49-1.5v-.05h1.11Z"/><path class="ae" d="m320.48,43.83c0-.19-.08-.35-.23-.49s-.49-.26-1.02-.37c-.62-.13-1.12-.33-1.51-.59-.38-.26-.58-.64-.58-1.12s.2-.89.6-1.24c.4-.35.95-.52,1.64-.52.73,0,1.3.18,1.71.53.41.35.62.79.62,1.32h-1.31c0-.23-.09-.43-.26-.6-.17-.18-.43-.27-.77-.27s-.57.07-.73.22-.24.32-.24.51.08.34.24.46c.16.11.48.22.95.32.67.15,1.2.35,1.58.61.38.26.57.65.57,1.17s-.21.94-.64,1.27-1,.49-1.71.49c-.8,0-1.41-.2-1.83-.61s-.63-.85-.63-1.33h1.27c.01.36.15.61.39.75.25.14.52.21.8.21.34,0,.61-.07.79-.2.18-.13.27-.3.27-.51Zm-1.77-6.68l.79.83.78-.83h1.12v.06l-1.5,1.49h-.81l-1.49-1.5v-.05h1.11Z"/><path class="ae" d="m324.31,39.6v5.81h-1.31v-5.81h1.31Zm-1.3-.78l1.05-1.62h1.49l-1.49,1.62h-1.05Z"/><path class="ae" d="m332.37,45.41l-.05-.62c-.4.49-.95.73-1.66.73s-1.24-.28-1.66-.84c-.42-.56-.63-1.26-.63-2.11v-.11c0-.89.21-1.6.63-2.15.42-.54.98-.82,1.67-.82s1.22.23,1.61.69v-3.02h1v8.25h-.91Zm-3-2.84c0,.58.12,1.07.37,1.48.24.41.63.62,1.17.62.35,0,.63-.08.85-.24s.39-.36.53-.61v-2.67c-.13-.24-.3-.44-.52-.59-.22-.16-.5-.23-.84-.23-.54,0-.93.21-1.18.63-.25.42-.37.92-.37,1.5v.11Z"/><path class="ae" d="m339.43,44.39c-.19.29-.46.55-.81.78-.35.23-.81.35-1.38.35-.81,0-1.46-.26-1.94-.79-.49-.53-.73-1.2-.73-2.02v-.23c0-.63.12-1.17.36-1.62.24-.45.56-.79.94-1.02.39-.23.8-.35,1.24-.35.83,0,1.44.27,1.82.81.38.54.57,1.22.57,2.03v.45h-3.93c.01.53.17.99.48,1.36.3.37.72.56,1.25.56.35,0,.65-.07.89-.21s.46-.33.64-.57l.6.48Zm-2.31-4.09c-.39,0-.73.14-1,.43s-.44.7-.51,1.24h2.91v-.08c-.02-.39-.14-.75-.34-1.08-.2-.34-.55-.5-1.06-.5Z"/><path class="ae" d="m343.07,40.33c-.32,0-.6.09-.84.26s-.44.4-.57.67v4.15h-.99v-5.81h.94l.03.73c.44-.56,1.02-.83,1.73-.83.57,0,1.03.16,1.36.48.33.32.5.86.5,1.63v3.81h-1v-3.82c0-.45-.1-.78-.3-.97-.2-.19-.49-.29-.86-.29Z"/><path class="ae" d="m349.15,40.33c-.32,0-.6.09-.84.26s-.44.4-.57.67v4.15h-.99v-5.81h.94l.03.73c.44-.56,1.02-.83,1.73-.83.57,0,1.03.16,1.36.48.33.32.5.86.5,1.63v3.81h-1v-3.82c0-.45-.1-.78-.3-.97-.2-.19-.49-.29-.86-.29Z"/><path class="ae" d="m352.86,38.75l1.04-1.58h1.2l-1.44,1.58h-.8Zm1.03.85v5.81h-.99v-5.81h.99Z"/><path class="ae" d="m360.72,45.41c-.08.02-.18.05-.31.07-.13.02-.28.04-.46.04-.37,0-.68-.11-.95-.34s-.39-.63-.39-1.21v-3.6h-1.06v-.76h1.06v-1.41h.99v1.41h1.08v.76h-1.08v3.61c0,.3.06.49.19.57s.28.12.45.12c.08,0,.17,0,.26-.02.09-.02.16-.03.21-.04v.81Z"/><path class="ae" d="m366.46,44.39c-.19.29-.46.55-.81.78-.35.23-.81.35-1.38.35-.81,0-1.46-.26-1.94-.79-.49-.53-.73-1.2-.73-2.02v-.23c0-.63.12-1.17.36-1.62.24-.45.56-.79.94-1.02.39-.23.8-.35,1.24-.35.83,0,1.44.27,1.82.81.38.54.57,1.22.57,2.03v.45h-3.93c.01.53.17.99.48,1.36.3.37.72.56,1.25.56.35,0,.65-.07.89-.21s.46-.33.64-.57l.6.48Zm-2.31-4.09c-.39,0-.73.14-1,.43s-.44.7-.51,1.24h2.91v-.08c-.02-.39-.14-.75-.34-1.08-.2-.34-.55-.5-1.06-.5Z"/><path class="ae" d="m370.35,45.51c-.7,0-1.25-.22-1.66-.67v2.8h-1v-8.05h.91l.05.64c.41-.5.97-.75,1.68-.75s1.3.27,1.69.82.59,1.26.59,2.15v.11c0,.85-.2,1.55-.59,2.11-.39.56-.95.84-1.67.84Zm-.31-5.19c-.34,0-.61.08-.83.23-.22.15-.39.34-.52.57v2.78c.13.23.31.42.52.57.22.15.5.22.84.22.54,0,.93-.21,1.18-.63.25-.42.37-.92.37-1.5v-.11c0-.58-.12-1.08-.37-1.5-.25-.42-.65-.63-1.19-.63Z"/><path class="ae" d="m374.95,37.16v8.25h-1v-8.25h1Z"/><path class="ae" d="m376.28,42.57v-.12c0-.84.24-1.54.71-2.11.47-.56,1.12-.85,1.93-.85s1.47.28,1.94.85c.47.56.71,1.27.71,2.11v.12c0,.84-.24,1.54-.71,2.11-.47.56-1.12.84-1.93.84s-1.46-.28-1.94-.84c-.47-.56-.71-1.26-.71-2.11Zm.99-.12v.12c0,.58.14,1.08.41,1.5.27.42.69.63,1.24.63s.95-.21,1.23-.63.41-.92.41-1.5v-.12c0-.57-.14-1.07-.41-1.5-.28-.43-.69-.64-1.24-.64s-.96.21-1.23.64c-.27.43-.41.93-.41,1.5Z"/><path class="ae" d="m385.28,45.41c-.08.02-.18.05-.31.07-.13.02-.28.04-.46.04-.37,0-.68-.11-.95-.34s-.39-.63-.39-1.21v-3.6h-1.06v-.76h1.06v-1.41h.99v1.41h1.08v.76h-1.08v3.61c0,.3.06.49.19.57s.28.12.45.12c.08,0,.17,0,.26-.02.09-.02.16-.03.21-.04v.81Z"/><path class="ae" d="m388.4,46.3c-.07.19-.18.4-.31.63-.14.23-.32.42-.54.58-.23.16-.52.24-.87.24-.08,0-.18,0-.3-.03-.12-.02-.21-.04-.26-.06v-.81c.07.01.16.02.26.02.34,0,.6-.07.79-.21.19-.14.35-.39.47-.74l.21-.59-2.07-5.75h1.08l1.46,4.35,1.35-4.35h1.06l-2.33,6.71Z"/><path class="ae" d="m25.85,43.94v1.08h-4.91v-7.82h1.35v6.74h3.56Z"/><path class="ae" d="m28.4,45.9c-.07.19-.17.4-.31.63-.13.23-.32.43-.56.59-.24.16-.55.24-.93.24-.11,0-.22,0-.33-.03-.11-.02-.21-.04-.3-.06v-1.01s.07,0,.13.01c.05,0,.09,0,.12,0,.32,0,.57-.06.74-.17.17-.12.3-.32.4-.61l.19-.5-2.04-5.78h1.41l1.23,3.95,1.18-3.95h1.39l-2.32,6.69Z"/><path class="ae" d="m34.73,43.44c0-.19-.08-.35-.23-.49-.15-.14-.49-.26-1.01-.37-.62-.13-1.12-.33-1.51-.59-.38-.26-.58-.64-.58-1.12s.2-.89.6-1.24c.4-.35.95-.52,1.64-.52.73,0,1.3.18,1.71.53.41.35.62.79.62,1.32h-1.3c0-.23-.09-.43-.26-.6-.17-.18-.43-.27-.77-.27s-.57.07-.73.22c-.16.15-.24.32-.24.51s.08.34.25.46c.16.11.48.22.95.32.67.15,1.2.35,1.58.61.38.26.57.65.57,1.17s-.21.94-.64,1.27c-.43.33-1,.49-1.71.49-.8,0-1.41-.2-1.83-.61s-.63-.85-.63-1.33h1.27c.01.36.15.61.39.75s.52.21.8.21c.34,0,.61-.07.79-.2s.27-.3.27-.51Z"/><path class="ae" d="m40.62,45.02c-.06-.13-.12-.31-.15-.55-.17.18-.38.33-.63.46-.25.13-.55.19-.9.19-.58,0-1.05-.17-1.42-.5-.37-.33-.55-.75-.55-1.24,0-.62.23-1.09.69-1.42s1.11-.49,1.95-.49h.82v-.38c0-.3-.08-.55-.25-.73-.17-.18-.43-.27-.77-.27-.31,0-.56.08-.74.23s-.28.34-.28.56h-1.3c0-.46.22-.87.65-1.24.43-.37,1.01-.55,1.75-.55.65,0,1.19.17,1.61.5.42.33.64.83.64,1.5v2.58c0,.52.07.94.22,1.25v.09h-1.33Zm-1.43-.94c.3,0,.56-.07.78-.22.22-.15.37-.31.46-.48v-1.1h-.7c-.97,0-1.46.32-1.46.97,0,.23.08.43.24.59.16.16.39.24.69.24Zm-.33-5.69l1.05-1.62h1.49l-1.49,1.62h-1.05Z"/><path class="ae" d="m48.3,40.17c-.53,0-.92.23-1.18.7v4.15h-1.3v-8.25h1.3v3.08c.42-.5.96-.75,1.62-.75.57,0,1.03.16,1.38.49s.52.89.52,1.68v3.74h-1.31v-3.75c0-.4-.09-.69-.26-.85-.18-.16-.43-.25-.76-.25Z"/><path class="ae" d="m51.71,42.18v-.11c0-.84.24-1.54.71-2.11.48-.57,1.14-.85,1.98-.85s1.52.28,1.99.85c.48.57.71,1.27.71,2.11v.11c0,.85-.24,1.55-.71,2.11s-1.14.84-1.98.84-1.52-.28-1.99-.84c-.48-.56-.71-1.27-.71-2.11Zm1.3-.11v.11c0,.52.11.97.34,1.35.22.37.58.56,1.07.56s.83-.19,1.06-.56c.22-.37.33-.82.33-1.35v-.11c0-.51-.11-.96-.33-1.34-.22-.38-.58-.57-1.07-.57s-.84.19-1.06.57c-.22.38-.34.83-.34,1.34Z"/><path class="ae" d="m60.73,40.36c-.6,0-1.01.23-1.21.69v3.97h-1.3v-5.81h1.25l.03.66c.14-.24.32-.42.54-.56.22-.14.47-.2.77-.2.18,0,.33.02.46.07v1.23c-.19-.03-.37-.04-.54-.04Z"/><path class="ae" d="m65.39,45.02c-.06-.13-.12-.31-.15-.55-.17.18-.38.33-.63.46-.25.13-.55.19-.9.19-.58,0-1.05-.17-1.42-.5-.37-.33-.55-.75-.55-1.24,0-.62.23-1.09.69-1.42s1.11-.49,1.95-.49h.82v-.38c0-.3-.08-.55-.25-.73-.17-.18-.43-.27-.77-.27-.31,0-.56.08-.74.23s-.28.34-.28.56h-1.3c0-.46.22-.87.65-1.24.43-.37,1.01-.55,1.75-.55.65,0,1.19.17,1.61.5.42.33.64.83.64,1.5v2.58c0,.52.07.94.22,1.25v.09h-1.33Zm-1.43-.94c.3,0,.56-.07.78-.22.22-.15.37-.31.46-.48v-1.1h-.7c-.97,0-1.46.32-1.46.97,0,.23.08.43.24.59.16.16.39.24.69.24Z"/><path class="h" d="m9.41,34.67c-2.8,0-5.07,2.27-5.07,5.07s5.07,9.03,5.07,9.03c0,0,5.06-6.24,5.06-9.03s-2.27-5.07-5.06-5.07Zm0,7.21c-1.3,0-2.35-1.05-2.35-2.35s1.05-2.35,2.35-2.35,2.35,1.05,2.35,2.35-1.05,2.35-2.35,2.35Z"/><path class="ae" d="m429.6,39.5c-.34,0-.62.08-.84.23-.22.15-.38.35-.49.61v4.12h-.99v-5.81h.97l.02.67c.15-.24.33-.42.56-.56.23-.14.5-.21.82-.21.19,0,.33.02.44.08v.92c-.15-.03-.31-.04-.49-.04Z"/><path class="ae" d="m435.5,43.45c-.19.29-.46.55-.81.78-.35.23-.81.35-1.38.35-.81,0-1.46-.26-1.94-.79-.49-.53-.73-1.2-.73-2.02v-.23c0-.63.12-1.17.36-1.62.24-.45.56-.79.94-1.02.39-.23.8-.35,1.24-.35.83,0,1.44.27,1.82.81.38.54.57,1.22.57,2.03v.45h-3.93c.01.53.17.99.48,1.36.3.37.72.56,1.25.56.35,0,.65-.07.89-.21s.46-.33.64-.57l.6.48Zm-2.31-4.09c-.39,0-.73.14-1,.43s-.44.7-.51,1.24h2.91v-.08c-.02-.39-.14-.75-.34-1.08-.2-.34-.55-.5-1.06-.5Z"/><path class="ae" d="m439.46,39.42h-1.24v5.05h-.99v-5.05h-.92v-.76h.92v-.61c0-.63.17-1.11.51-1.44.34-.33.8-.5,1.4-.5.22,0,.45.03.69.09l-.05.81c-.15-.03-.33-.05-.54-.05-.67,0-1.01.36-1.01,1.09v.61h1.24v.76Z"/><path class="ae" d="m445.03,43.45c-.19.29-.46.55-.81.78-.35.23-.81.35-1.38.35-.81,0-1.46-.26-1.94-.79-.49-.53-.73-1.2-.73-2.02v-.23c0-.63.12-1.17.36-1.62.24-.45.56-.79.94-1.02.39-.23.8-.35,1.24-.35.83,0,1.44.27,1.82.81.38.54.57,1.22.57,2.03v.45h-3.93c.01.53.17.99.48,1.36.3.37.72.56,1.25.56.35,0,.65-.07.89-.21s.46-.33.64-.57l.6.48Zm-2.31-4.09c-.39,0-.73.14-1,.43s-.44.7-.51,1.24h2.91v-.08c-.02-.39-.14-.75-.34-1.08-.2-.34-.55-.5-1.06-.5Z"/><path class="ae" d="m448.59,39.5c-.34,0-.62.08-.84.23-.22.15-.38.35-.49.61v4.12h-.99v-5.81h.97l.02.67c.15-.24.33-.42.56-.56.23-.14.5-.21.82-.21.19,0,.33.02.44.08v.92c-.15-.03-.31-.04-.49-.04Z"/><path class="ae" d="m454.49,43.45c-.19.29-.46.55-.81.78-.35.23-.81.35-1.38.35-.81,0-1.46-.26-1.94-.79-.49-.53-.73-1.2-.73-2.02v-.23c0-.63.12-1.17.36-1.62.24-.45.56-.79.94-1.02.39-.23.8-.35,1.24-.35.83,0,1.44.27,1.82.81.38.54.57,1.22.57,2.03v.45h-3.93c.01.53.17.99.48,1.36.3.37.72.56,1.25.56.35,0,.65-.07.89-.21s.46-.33.64-.57l.6.48Zm-2.31-4.09c-.39,0-.73.14-1,.43s-.44.7-.51,1.24h2.91v-.08c-.02-.39-.14-.75-.34-1.08-.2-.34-.55-.5-1.06-.5Z"/><path class="ae" d="m458.14,39.39c-.32,0-.6.09-.84.26s-.44.4-.57.67v4.15h-.99v-5.81h.94l.03.73c.44-.56,1.02-.83,1.73-.83.57,0,1.03.16,1.36.48.33.32.5.86.5,1.63v3.81h-1v-3.82c0-.45-.1-.78-.3-.97-.2-.19-.49-.29-.86-.29Z"/><path class="ae" d="m464.13,43.76c.35,0,.67-.11.93-.32.27-.21.41-.48.44-.81h.95c-.02.52-.26.97-.71,1.36-.45.39-.98.58-1.6.58-.87,0-1.52-.29-1.95-.86-.42-.58-.64-1.25-.64-2.04v-.23c0-.78.21-1.46.64-2.04.42-.58,1.07-.86,1.95-.86.68,0,1.23.2,1.65.6.42.4.64.9.67,1.5h-.95c-.02-.36-.16-.66-.41-.91-.25-.25-.57-.38-.96-.38s-.73.1-.96.31c-.23.21-.39.47-.49.79-.1.32-.14.65-.14.98v.23c0,.34.05.67.14.99s.25.58.49.79c.23.21.55.31.96.31Zm-1.04-7.54l.81.91.81-.91h.86v.05l-1.36,1.47h-.61l-1.34-1.47v-.05h.84Z"/><path class="ae" d="m469.97,39.39c-.32,0-.6.09-.84.26s-.44.4-.57.67v4.15h-.99v-5.81h.94l.03.73c.44-.56,1.02-.83,1.73-.83.57,0,1.03.16,1.36.48.33.32.5.86.5,1.63v3.81h-1v-3.82c0-.45-.1-.78-.3-.97-.2-.19-.49-.29-.86-.29Z"/><path class="ae" d="m473.68,37.81l1.04-1.58h1.2l-1.44,1.58h-.8Zm1.03.85v5.81h-.99v-5.81h.99Z"/><path class="ae" d="m478.82,41.63v-.12c0-.84.24-1.54.71-2.11.47-.56,1.12-.85,1.93-.85s1.47.28,1.94.85c.47.56.71,1.27.71,2.11v.12c0,.84-.24,1.54-.71,2.11-.47.56-1.12.84-1.93.84s-1.46-.28-1.94-.84c-.47-.56-.71-1.26-.71-2.11Zm.99-.12v.12c0,.58.14,1.08.41,1.5.27.42.69.63,1.24.63s.95-.21,1.23-.63.41-.92.41-1.5v-.12c0-.57-.14-1.07-.41-1.5-.28-.43-.69-.64-1.24-.64s-.96.21-1.23.64c-.27.43-.41.93-.41,1.5Z"/><path class="ae" d="m490.28,41.63c0,.85-.2,1.55-.59,2.11s-.95.84-1.67.84-1.3-.26-1.7-.78l-.05.67h-.91v-8.25h1v3.07c.39-.49.95-.74,1.65-.74s1.29.27,1.68.82c.39.54.59,1.26.59,2.15v.11Zm-2.52-2.24c-.36,0-.66.09-.88.26-.23.17-.4.39-.53.64v2.53c.13.26.31.47.54.65s.52.26.88.26c.54,0,.92-.21,1.16-.62.23-.41.35-.91.35-1.48v-.11c0-.58-.11-1.08-.34-1.5-.22-.42-.62-.63-1.18-.63Z"/><path class="ae" d="m495.28,44.47l-.05-.62c-.4.49-.95.73-1.66.73s-1.24-.28-1.66-.84c-.42-.56-.63-1.26-.63-2.11v-.11c0-.89.21-1.6.63-2.15.42-.54.98-.82,1.67-.82s1.22.23,1.61.69v-3.02h1v8.25h-.91Zm-3-2.84c0,.58.12,1.07.37,1.48.24.41.63.62,1.17.62.35,0,.63-.08.85-.24s.39-.36.53-.61v-2.67c-.13-.24-.3-.44-.52-.59-.22-.16-.5-.23-.84-.23-.54,0-.93.21-1.18.63-.25.42-.37.92-.37,1.5v.11Z"/><path class="ae" d="m497.47,41.63v-.12c0-.84.24-1.54.71-2.11.47-.56,1.12-.85,1.93-.85s1.47.28,1.94.85c.47.56.71,1.27.71,2.11v.12c0,.84-.24,1.54-.71,2.11-.47.56-1.12.84-1.93.84s-1.46-.28-1.94-.84c-.47-.56-.71-1.26-.71-2.11Zm.99-.12v.12c0,.58.14,1.08.41,1.5.27.42.69.63,1.24.63s.95-.21,1.23-.63.41-.92.41-1.5v-.12c0-.57-.14-1.07-.41-1.5-.28-.43-.69-.64-1.24-.64s-.96.21-1.23.64c-.27.43-.41.93-.41,1.5Z"/><path class="ae" d="m508.93,41.63c0,.85-.2,1.55-.59,2.11s-.95.84-1.67.84-1.3-.26-1.7-.78l-.05.67h-.91v-8.25h1v3.07c.39-.49.95-.74,1.65-.74s1.29.27,1.68.82c.39.54.59,1.26.59,2.15v.11Zm-2.52-2.24c-.36,0-.66.09-.88.26-.23.17-.4.39-.53.64v2.53c.13.26.31.47.54.65s.52.26.88.26c.54,0,.92-.21,1.16-.62.23-.41.35-.91.35-1.48v-.11c0-.58-.11-1.08-.34-1.5-.22-.42-.62-.63-1.18-.63Z"/><path class="ae" d="m510.24,37.81l1.04-1.58h1.2l-1.44,1.58h-.8Zm1.03.85v5.81h-.99v-5.81h.99Z"/><path class="ae" d="m519.01,36.62v7.85h-1.31v-6.28l-1.92.66v-1.1l3.06-1.12h.17Z"/><path class="ae" d="m526.74,40.14c0,.75-.11,1.46-.34,2.12-.22.66-.62,1.2-1.17,1.62-.56.41-1.34.62-2.35.62h-.11v-1.08h.1c.93,0,1.58-.21,1.95-.64.36-.43.57-.96.61-1.59-.2.21-.43.38-.69.5-.26.13-.54.19-.85.19-.76,0-1.32-.26-1.69-.79-.37-.53-.56-1.14-.56-1.82,0-.75.22-1.39.66-1.93s1.06-.8,1.86-.8c.86,0,1.5.31,1.93.94.43.63.64,1.37.64,2.24v.42Zm-3.81-.91c0,.43.1.8.3,1.14.2.33.51.5.93.5.28,0,.54-.08.77-.24.23-.16.4-.36.51-.6v-.51c0-.63-.13-1.1-.38-1.43-.26-.32-.55-.49-.89-.49-.39,0-.69.16-.91.48-.21.32-.32.71-.32,1.16Z"/><path class="ae" d="m533.18,41.91c0,.75-.22,1.38-.66,1.9-.44.52-1.07.77-1.87.77-.57,0-1.04-.14-1.43-.43-.39-.29-.69-.66-.89-1.13-.2-.47-.3-.97-.3-1.51v-.51c0-.77.13-1.49.38-2.16s.66-1.2,1.22-1.61c.57-.41,1.32-.61,2.26-.61h.15v1.07h-.09c-.85,0-1.48.22-1.88.66s-.64.97-.71,1.6c.41-.43.94-.65,1.6-.65.76,0,1.32.27,1.69.8.36.53.54,1.14.54,1.82Zm-3.86-.28c0,.63.13,1.1.39,1.42.26.32.56.48.92.48.39,0,.7-.15.93-.45.22-.3.34-.68.34-1.14,0-.43-.11-.81-.32-1.13-.21-.32-.53-.48-.94-.48-.3,0-.57.09-.81.26-.23.17-.4.38-.5.62v.4Z"/><path class="ae" d="m537.76,36.62v7.85h-1.31v-6.28l-1.92.66v-1.1l3.06-1.12h.17Z"/><path class="ae" d="m546.2,40.07v1.05h-5.47v-1.05h5.47Z"/><path class="ae" d="m551.11,36.62v7.85h-1.31v-6.28l-1.92.66v-1.1l3.06-1.12h.17Z"/><path class="ae" d="m558.84,40.14c0,.75-.11,1.46-.34,2.12-.22.66-.62,1.2-1.17,1.62-.56.41-1.34.62-2.35.62h-.11v-1.08h.1c.93,0,1.58-.21,1.95-.64.36-.43.57-.96.61-1.59-.2.21-.43.38-.69.5-.26.13-.54.19-.85.19-.76,0-1.32-.26-1.69-.79-.37-.53-.56-1.14-.56-1.82,0-.75.22-1.39.66-1.93s1.06-.8,1.86-.8c.86,0,1.5.31,1.93.94.43.63.64,1.37.64,2.24v.42Zm-3.81-.91c0,.43.1.8.3,1.14.2.33.51.5.93.5.28,0,.54-.08.77-.24.23-.16.4-.36.51-.6v-.51c0-.63-.13-1.1-.38-1.43-.26-.32-.55-.49-.89-.49-.39,0-.69.16-.91.48-.21.32-.32.71-.32,1.16Z"/><path class="ae" d="m565.17,42.33c0,.73-.24,1.28-.73,1.67-.49.38-1.1.57-1.82.57s-1.34-.19-1.83-.58c-.49-.39-.74-.94-.74-1.66,0-.43.11-.81.34-1.14.23-.33.53-.58.92-.76-.34-.17-.6-.41-.8-.71-.2-.3-.29-.64-.29-1.02,0-.69.22-1.22.67-1.6.45-.38,1.02-.56,1.72-.56s1.27.19,1.72.56c.45.38.67.91.67,1.6,0,.38-.1.72-.3,1.02s-.46.54-.8.71c.39.18.69.43.92.76.23.33.34.71.34,1.14Zm-1.31-.07c0-.39-.12-.7-.35-.94-.23-.24-.54-.36-.92-.36s-.69.12-.91.36c-.23.24-.34.55-.34.94s.11.7.34.93c.23.22.53.34.92.34s.7-.11.92-.34c.22-.22.33-.53.33-.93Zm-.17-3.51c0-.34-.1-.62-.29-.84-.2-.22-.46-.32-.79-.32s-.59.1-.79.31c-.2.21-.3.49-.3.85s.1.63.29.85c.2.21.46.32.8.32s.6-.11.79-.32.29-.5.29-.85Z"/><path class="ae" d="m571.42,39.91v1.26c0,1.24-.23,2.12-.7,2.63-.46.52-1.08.77-1.86.77s-1.39-.26-1.86-.77-.71-1.39-.71-2.63v-1.26c0-1.24.23-2.11.7-2.62s1.09-.75,1.85-.75,1.39.25,1.86.75c.47.5.7,1.37.7,2.62Zm-1.3,1.45v-1.65c0-.79-.11-1.34-.33-1.65-.22-.31-.53-.47-.93-.47s-.71.16-.92.47c-.22.31-.33.86-.33,1.65v1.65c0,.79.11,1.35.33,1.68.22.33.53.49.93.49s.71-.16.93-.49c.21-.33.32-.89.32-1.68Z"/><rect class="h" x="409.42" y="35.91" width="11.9" height="11.65" rx="2" ry="2"/><line class="h" x1="409.42" y1="38.97" x2="421.31" y2="38.97"/><line class="h" x1="412.13" y1="34.65" x2="412.13" y2="36.64"/><line class="h" x1="415.36" y1="34.65" x2="415.36" y2="36.64"/><line class="h" x1="418.59" y1="34.65" x2="418.59" y2="36.64"/><rect class="h" x="411.73" y="41.22" width=".81" height=".81"/><rect class="h" x="411.73" y="44.47" width=".81" height=".81"/><rect class="h" x="414.95" y="41.21" width=".82" height=".82"/><circle class="m" cx="419.11" cy="45.37" r="3.74"/><polyline class="n" points="417.34 45.72 418.53 46.9 420.88 44.56"/><path class="ae" d="m9.04,192.19v7.82h-1.36l-3.49-5.55v5.55h-1.35v-7.82h1.35l3.5,5.56v-5.56h1.35Z"/><path class="ae" d="m13.99,200.01c-.06-.13-.11-.31-.15-.55-.17.18-.38.33-.63.46s-.55.19-.9.19c-.58,0-1.05-.17-1.42-.5s-.55-.75-.55-1.24c0-.62.23-1.09.69-1.42s1.11-.49,1.95-.49h.82v-.38c0-.3-.08-.55-.25-.73-.17-.18-.43-.27-.77-.27-.31,0-.56.08-.74.23-.18.15-.28.34-.28.56h-1.3c0-.46.22-.87.65-1.24.43-.37,1.01-.55,1.75-.55.65,0,1.19.17,1.61.5.42.33.64.83.64,1.5v2.58c0,.52.07.94.22,1.25v.09h-1.33Zm-1.43-.94c.3,0,.56-.07.78-.22.22-.15.37-.31.46-.48v-1.1h-.7c-.97,0-1.46.32-1.46.97,0,.23.08.43.24.59s.39.24.69.24Z"/><path class="ae" d="m18.89,195.15c-.28,0-.51.06-.69.17-.18.12-.32.27-.42.47v4.21h-1.3v-5.81h1.22l.04.61c.41-.48.97-.71,1.68-.71.35,0,.67.07.95.21.28.14.49.37.64.67.19-.27.44-.48.74-.64s.65-.24,1.05-.24c.59,0,1.06.17,1.4.5s.51.88.51,1.65v3.77h-1.31v-3.77c0-.43-.09-.72-.28-.86-.19-.15-.44-.22-.77-.22-.3,0-.54.08-.73.24-.19.16-.32.37-.39.63v3.99h-1.31v-3.76c0-.41-.09-.69-.28-.85s-.44-.24-.76-.24Z"/><path class="ae" d="m30.85,199.02c-.19.27-.46.52-.82.75-.36.23-.84.34-1.42.34-.86,0-1.54-.27-2.04-.81s-.74-1.21-.74-2v-.22c0-.92.25-1.65.76-2.19.51-.54,1.13-.81,1.87-.81.85,0,1.47.27,1.88.81.41.54.61,1.22.61,2.06v.55h-3.8c.04.45.19.82.45,1.11.27.29.63.44,1.09.44.31,0,.59-.06.83-.19.24-.13.45-.3.62-.53l.7.67Zm-3.28-7.27l.79.83.78-.83h1.12v.06l-1.5,1.49h-.81l-1.49-1.5v-.05h1.11Zm.89,3.39c-.36,0-.65.13-.86.38s-.36.6-.42,1.04h2.48v-.1c-.02-.34-.11-.65-.28-.92-.17-.27-.47-.41-.91-.41Z"/><path class="ae" d="m32.69,191.75l.79.83.78-.83h1.12v.06l-1.5,1.49h-.81l-1.49-1.5v-.05h1.11Zm1.78,3.6c-.6,0-1.01.23-1.21.69v3.97h-1.3v-5.81h1.25l.03.66c.14-.24.32-.42.54-.56s.47-.2.77-.2c.18,0,.33.02.46.07v1.23c-.19-.03-.37-.04-.54-.04Z"/><path class="ae" d="m40.52,199.02c-.19.27-.46.52-.82.75-.36.23-.84.34-1.42.34-.86,0-1.54-.27-2.04-.81s-.74-1.21-.74-2v-.22c0-.92.25-1.65.76-2.19.51-.54,1.13-.81,1.87-.81.85,0,1.47.27,1.88.81.41.54.61,1.22.61,2.06v.55h-3.8c.04.45.19.82.45,1.11.27.29.63.44,1.09.44.31,0,.59-.06.83-.19.24-.13.45-.3.62-.53l.7.67Zm-2.39-3.88c-.36,0-.65.13-.86.38s-.36.6-.42,1.04h2.48v-.1c-.02-.34-.11-.65-.28-.92-.17-.27-.47-.41-.91-.41Z"/><path class="ae" d="m44.08,195.15c-.52,0-.91.24-1.17.71v4.15h-1.31v-5.81h1.23l.04.67c.43-.52.99-.77,1.68-.77.56,0,1.01.16,1.35.49s.5.88.5,1.67v3.76h-1.31v-3.77c0-.4-.09-.68-.26-.84-.17-.16-.43-.24-.77-.24Z"/><path class="ae" d="m51.22,200.01c-.06-.13-.11-.31-.15-.55-.17.18-.38.33-.63.46s-.55.19-.9.19c-.58,0-1.05-.17-1.42-.5s-.55-.75-.55-1.24c0-.62.23-1.09.69-1.42s1.11-.49,1.95-.49h.82v-.38c0-.3-.08-.55-.25-.73-.17-.18-.43-.27-.77-.27-.31,0-.56.08-.74.23-.18.15-.28.34-.28.56h-1.3c0-.46.22-.87.65-1.24.43-.37,1.01-.55,1.75-.55.65,0,1.19.17,1.61.5.42.33.64.83.64,1.5v2.58c0,.52.07.94.22,1.25v.09h-1.33Zm-1.43-.94c.3,0,.56-.07.78-.22.22-.15.37-.31.46-.48v-1.1h-.7c-.97,0-1.46.32-1.46.97,0,.23.08.43.24.59s.39.24.69.24Zm-.33-5.69l1.05-1.62h1.49l-1.49,1.62h-1.05Z"/><path class="ae" d="m59.13,199.99c-.1.04-.23.07-.37.09s-.3.04-.49.04c-.43,0-.79-.12-1.08-.37-.29-.25-.43-.67-.43-1.26v-3.32h-.96v-.96h.96v-1.41h1.3v1.41h1.03v.96h-1.03v3.25c0,.26.06.43.17.51.11.08.26.12.44.12.09,0,.17,0,.26-.02.09-.01.15-.02.2-.04v1.01Z"/><path class="ae" d="m64.9,199.02c-.19.27-.46.52-.82.75-.36.23-.84.34-1.42.34-.86,0-1.54-.27-2.04-.81s-.74-1.21-.74-2v-.22c0-.92.25-1.65.76-2.19.51-.54,1.13-.81,1.87-.81.85,0,1.47.27,1.88.81.41.54.61,1.22.61,2.06v.55h-3.8c.04.45.19.82.45,1.11.27.29.63.44,1.09.44.31,0,.59-.06.83-.19.24-.13.45-.3.62-.53l.7.67Zm-2.39-3.88c-.36,0-.65.13-.86.38s-.36.6-.42,1.04h2.48v-.1c-.02-.34-.11-.65-.28-.92-.17-.27-.47-.41-.91-.41Z"/><path class="ae" d="m68.83,200.11c-.63,0-1.14-.21-1.53-.63v2.76h-1.3v-8.05h1.2l.05.59c.39-.46.91-.69,1.57-.69.74,0,1.3.27,1.69.82.39.54.58,1.26.58,2.14v.11c0,.85-.2,1.55-.59,2.11s-.95.84-1.68.84Zm-.38-4.96c-.29,0-.52.06-.71.18-.19.12-.34.28-.44.49v2.56c.11.2.25.37.44.49s.43.19.73.19c.47,0,.8-.19,1.01-.57.21-.38.31-.82.31-1.34v-.11c0-.52-.1-.97-.31-1.34-.21-.37-.55-.56-1.02-.56Z"/><path class="ae" d="m73.58,191.76v8.25h-1.31v-8.25h1.31Z"/><path class="ae" d="m74.77,197.16v-.11c0-.84.24-1.54.71-2.11s1.14-.85,1.98-.85,1.52.28,1.99.85.71,1.27.71,2.11v.11c0,.85-.24,1.55-.71,2.11-.47.56-1.14.84-1.98.84s-1.52-.28-1.99-.84-.71-1.27-.71-2.11Zm1.3-.11v.11c0,.52.11.97.34,1.35.22.37.58.56,1.07.56s.83-.19,1.06-.56c.22-.37.34-.82.34-1.35v-.11c0-.51-.11-.96-.34-1.34-.22-.38-.58-.57-1.07-.57s-.84.19-1.06.57c-.22.38-.34.83-.34,1.34Z"/><path class="ae" d="m83.97,199.99c-.1.04-.23.07-.37.09s-.3.04-.49.04c-.43,0-.79-.12-1.08-.37-.29-.25-.43-.67-.43-1.26v-3.32h-.96v-.96h.96v-1.41h1.3v1.41h1.03v.96h-1.03v3.25c0,.26.06.43.17.51.11.08.26.12.44.12.09,0,.17,0,.26-.02.09-.01.15-.02.2-.04v1.01Z"/><path class="ae" d="m88.41,200.01c-.06-.13-.11-.31-.15-.55-.17.18-.38.33-.63.46s-.55.19-.9.19c-.58,0-1.05-.17-1.42-.5s-.55-.75-.55-1.24c0-.62.23-1.09.69-1.42s1.11-.49,1.95-.49h.82v-.38c0-.3-.08-.55-.25-.73-.17-.18-.43-.27-.77-.27-.31,0-.56.08-.74.23-.18.15-.28.34-.28.56h-1.3c0-.46.22-.87.65-1.24.43-.37,1.01-.55,1.75-.55.65,0,1.19.17,1.61.5.42.33.64.83.64,1.5v2.58c0,.52.07.94.22,1.25v.09h-1.33Zm-1.43-.94c.3,0,.56-.07.78-.22.22-.15.37-.31.46-.48v-1.1h-.7c-.97,0-1.46.32-1.46.97,0,.23.08.43.24.59s.39.24.69.24Z"/><line class="j" y1="204.05" x2="660" y2="204.05"/><path class="ae" d="m2.28,239.46v-1.09h6.2v1.09h-2.43v6.73h-1.35v-6.73h-2.42Z"/><path class="ae" d="m13.7,245.2c-.19.27-.46.52-.82.75-.36.23-.84.34-1.42.34-.86,0-1.54-.27-2.04-.81s-.74-1.21-.74-2v-.22c0-.92.25-1.65.76-2.19.51-.54,1.13-.81,1.87-.81.85,0,1.47.27,1.88.81.41.54.61,1.22.61,2.06v.55h-3.8c.04.45.19.82.45,1.12.27.29.63.44,1.09.44.31,0,.59-.06.83-.19s.45-.3.62-.53l.7.67Zm-2.39-3.88c-.36,0-.65.13-.86.38-.22.25-.36.6-.42,1.04h2.48v-.1c-.02-.34-.11-.65-.28-.92-.17-.27-.47-.41-.91-.41Z"/><path class="ae" d="m17.64,246.3c-.63,0-1.14-.21-1.53-.63v2.76h-1.3v-8.05h1.2l.05.58c.39-.46.91-.69,1.57-.69.74,0,1.3.27,1.69.82.39.54.58,1.26.58,2.14v.11c0,.84-.2,1.55-.59,2.11-.39.56-.95.84-1.68.84Zm-.38-4.96c-.29,0-.52.06-.71.18-.19.12-.34.28-.44.49v2.56c.11.2.25.37.44.49.19.12.43.19.73.19.47,0,.8-.19,1.01-.57s.31-.82.31-1.34v-.11c0-.52-.1-.97-.31-1.34-.21-.37-.55-.56-1.02-.56Z"/><path class="ae" d="m22.39,237.94v8.25h-1.31v-8.25h1.31Z"/><path class="ae" d="m23.58,243.34v-.11c0-.84.24-1.54.71-2.11.48-.57,1.14-.85,1.98-.85s1.52.28,1.99.85c.48.57.71,1.27.71,2.11v.11c0,.84-.24,1.55-.71,2.11-.47.56-1.14.84-1.98.84s-1.52-.28-1.99-.84c-.48-.56-.71-1.27-.71-2.11Zm1.3-.11v.11c0,.52.11.97.34,1.35.22.37.58.56,1.07.56s.83-.19,1.06-.56c.22-.38.34-.82.34-1.35v-.11c0-.51-.11-.96-.34-1.34-.22-.38-.58-.57-1.07-.57s-.84.19-1.06.57c-.22.38-.34.83-.34,1.34Z"/><path class="ae" d="m32.78,246.17c-.1.04-.23.07-.37.09-.14.03-.3.04-.49.04-.43,0-.79-.12-1.08-.37-.29-.25-.43-.67-.43-1.26v-3.33h-.96v-.96h.96v-1.41h1.3v1.41h1.03v.96h-1.03v3.25c0,.26.06.43.17.51.11.08.26.12.44.12.09,0,.17,0,.26-.02.09-.01.15-.02.2-.04v1.01Z"/><path class="ae" d="m36.2,241.33c-.52,0-.91.24-1.17.71v4.15h-1.31v-5.81h1.23l.04.67c.43-.52.99-.77,1.68-.77.56,0,1.01.16,1.35.49.34.33.5.88.5,1.67v3.76h-1.31v-3.77c0-.4-.09-.68-.26-.84-.17-.16-.43-.24-.77-.24Z"/><path class="ae" d="m41.27,240.38v5.81h-1.31v-5.81h1.31Zm-1.3-.78l1.05-1.62h1.49l-1.49,1.62h-1.05Z"/><path class="ae" d="m45.25,243.34v-.11c0-.84.24-1.54.71-2.11.48-.57,1.14-.85,1.98-.85s1.52.28,1.99.85c.48.57.71,1.27.71,2.11v.11c0,.84-.24,1.55-.71,2.11-.47.56-1.14.84-1.98.84s-1.52-.28-1.99-.84c-.48-.56-.71-1.27-.71-2.11Zm1.3-.11v.11c0,.52.11.97.34,1.35.22.37.58.56,1.07.56s.83-.19,1.06-.56c.22-.38.34-.82.34-1.35v-.11c0-.51-.11-.96-.34-1.34-.22-.38-.58-.57-1.07-.57s-.84.19-1.06.57c-.22.38-.34.83-.34,1.34Z"/><path class="ae" d="m55.42,246.19l-.06-.6c-.39.47-.91.71-1.56.71-.7,0-1.25-.28-1.67-.84s-.62-1.26-.62-2.11v-.11c0-.88.21-1.6.62-2.15.41-.55.97-.82,1.68-.82.62,0,1.11.21,1.49.64v-2.97h1.31v8.25h-1.19Zm-2.6-2.84c0,.52.1.96.31,1.33.2.37.54.55,1.01.55.29,0,.53-.07.72-.2.19-.13.34-.31.45-.52v-2.48c-.11-.21-.26-.38-.45-.51s-.43-.19-.71-.19c-.47,0-.81.19-1.02.56-.21.37-.31.82-.31,1.34v.11Z"/><path class="ae" d="m60.36,245.25c.31,0,.58-.09.8-.28s.34-.42.35-.71h1.22c-.02.56-.26,1.04-.71,1.44-.46.4-1.01.59-1.66.59-.9,0-1.56-.29-1.99-.86-.43-.57-.65-1.26-.65-2.06v-.19c0-.79.22-1.48.65-2.05.44-.58,1.1-.86,1.99-.86.7,0,1.27.2,1.7.61s.65.93.67,1.57h-1.22c-.02-.31-.13-.58-.33-.8s-.48-.34-.83-.34c-.53,0-.88.2-1.06.59-.18.39-.27.82-.27,1.28v.19c0,.47.09.9.26,1.29.18.39.53.58,1.07.58Z"/><path class="ae" d="m66.2,241.33c-.53,0-.92.23-1.18.7v4.15h-1.3v-8.25h1.3v3.08c.42-.5.96-.75,1.62-.75.57,0,1.03.16,1.38.49.34.33.52.89.52,1.68v3.74h-1.31v-3.75c0-.4-.09-.69-.26-.85-.18-.17-.43-.25-.76-.25Z"/><path class="ae" d="m72.14,247.07c-.07.19-.17.4-.31.63-.13.23-.32.42-.56.59s-.55.24-.93.24c-.11,0-.22,0-.33-.03s-.21-.04-.3-.06v-1.01s.07,0,.13.01c.05,0,.09,0,.12,0,.32,0,.57-.06.74-.17.17-.12.3-.32.4-.61l.19-.5-2.04-5.78h1.41l1.23,3.95,1.18-3.95h1.39l-2.31,6.69Z"/><path class="ae" d="m76.58,237.94v8.25h-1.31v-8.25h1.31Z"/><path class="ae" d="m81.63,246.19l-1.72-2.5-.59.6v1.9h-1.31v-8.25h1.31v4.76l.41-.52,1.61-1.8h1.57l-2.16,2.42,2.4,3.39h-1.51Z"/><path class="ae" d="m87.23,246.19c-.06-.13-.11-.32-.15-.55-.17.18-.38.33-.63.46s-.55.19-.9.19c-.58,0-1.05-.17-1.42-.5s-.55-.75-.55-1.24c0-.62.23-1.09.69-1.42.46-.33,1.11-.49,1.95-.49h.82v-.38c0-.3-.08-.55-.25-.73-.17-.18-.43-.27-.77-.27-.31,0-.56.08-.74.23-.18.15-.28.34-.28.56h-1.3c0-.46.22-.87.65-1.24.43-.37,1.01-.55,1.75-.55.65,0,1.19.17,1.61.5.42.33.64.83.64,1.5v2.58c0,.52.07.94.22,1.25v.09h-1.33Zm-1.43-.94c.3,0,.56-.07.78-.22.22-.15.37-.31.46-.48v-1.1h-.7c-.97,0-1.46.32-1.46.97,0,.23.08.43.24.58.16.16.39.24.69.24Z"/><line class="j" y1="250.23" x2="660" y2="250.23"/><line class="k" x1="550.29" y1="160.48" x2="550.29" y2="137.03"/><circle class="q" cx="550.29" cy="204.05" r="2.5"/><circle class="q" cx="550.29" cy="250.54" r="2.5"/></g></svg>