<?xml version="1.0" encoding="UTF-8"?><svg id="a" xmlns="http://www.w3.org/2000/svg" viewBox="0 0 150 130"><defs><style>.c{fill:#f9f7ff;}.d{fill:#e1e1f5;}.e{fill-rule:evenodd;}</style></defs><path class="d" d="M72.06,4.43C33.35,4.43,1.98,35.8,1.98,74.5c0,21.71,9.87,41.11,25.37,53.96H116.76c15.5-12.85,25.37-32.25,25.37-53.96,0-38.7-31.37-70.07-70.07-70.07"/><g><circle class="c" cx="45.7" cy="34.39" r="6.02"/><g><path d="M37.81,34.45c0,4.27,3.48,7.75,7.75,7.75s7.75-3.48,7.75-7.75-3.48-7.75-7.75-7.75-7.75,3.48-7.75,7.75Zm2.08,0c0-3.12,2.54-5.66,5.66-5.66s5.66,2.54,5.66,5.66-2.54,5.66-5.66,5.66-5.66-2.54-5.66-5.66Z"/><path d="M45.37,24.41h.23s.15,0,.15,0c.21,0,.44-.09,.59-.24,.17-.16,.26-.39,.26-.61v-2.98c0-.47-.38-.86-.86-.86h-.37c-.47,0-.86,.38-.86,.86v2.98c0,.23,.1,.46,.26,.62,.16,.15,.37,.24,.59,.24Z"/><path d="M45.74,44.5h-.02c-.11,0-.22,0-.32,0-.22-.02-.46,.07-.63,.24-.16,.16-.26,.38-.26,.61v2.85c0,.47,.38,.86,.86,.86h.37c.47,0,.86-.38,.86-.86v-2.85c0-.23-.09-.45-.26-.61-.16-.16-.37-.24-.6-.24Z"/><path d="M51.94,43.36h0c-.12-.2-.31-.34-.53-.4-.22-.05-.46-.02-.65,.09-.1,.06-.19,.12-.3,.17-.2,.11-.35,.3-.41,.52-.06,.22-.03,.46,.08,.66l1.43,2.48c.11,.2,.3,.34,.52,.4,.07,.02,.14,.03,.22,.03,.15,0,.29-.04,.43-.11l.32-.19c.2-.11,.34-.3,.4-.52,.06-.22,.03-.45-.08-.65l-1.43-2.48Z"/><path d="M54.17,29.28c.05,.08,.1,.17,.14,.25h0c.11,.2,.3,.35,.52,.41,.07,.02,.15,.03,.23,.03,.15,0,.3-.04,.43-.12l2.55-1.47c.2-.11,.34-.3,.4-.52,.06-.22,.03-.45-.08-.65l-.19-.33c-.24-.41-.76-.55-1.17-.31l-2.55,1.47c-.2,.12-.34,.3-.4,.52-.06,.22-.02,.46,.09,.65l.03,.05Z"/><path d="M58.05,40.4l-2.5-1.44c-.2-.12-.44-.15-.66-.08-.22,.06-.41,.22-.52,.42-.06,.1-.11,.21-.17,.3-.12,.2-.15,.43-.09,.65,.06,.22,.2,.41,.4,.52l2.5,1.44c.13,.07,.28,.11,.43,.11,.08,0,.15,0,.22-.03,.22-.06,.4-.2,.52-.4l.19-.32c.23-.41,.09-.93-.31-1.17Z"/><path d="M53.06,21.77l-.32-.19c-.2-.12-.43-.15-.65-.09s-.41,.21-.52,.4l-1.49,2.58c-.12,.2-.15,.44-.08,.66,.06,.22,.22,.41,.42,.52,.1,.06,.2,.11,.3,.17,.13,.08,.28,.12,.43,.12,.08,0,.15,0,.22-.03,.22-.06,.41-.2,.52-.4l1.49-2.57c.23-.41,.09-.93-.31-1.17Z"/><path d="M59.38,33.35h-2.92c-.23,0-.46,.1-.62,.26-.16,.17-.25,.4-.24,.63,0,.07,0,.14,0,.21v.11c0,.23,.08,.45,.24,.61,.16,.16,.38,.26,.61,.26h2.91c.47,0,.86-.38,.86-.86v-.37c0-.47-.38-.85-.86-.85Z"/><path d="M35.26,35.17h0c.16-.17,.25-.39,.24-.61v-.11c0-.07,0-.15,0-.22,0-.23-.08-.46-.24-.62-.16-.17-.38-.26-.62-.26h-2.92c-.47,0-.86,.38-.86,.85v.37c0,.47,.38,.86,.86,.86h2.91c.23,0,.45-.09,.61-.26Z"/><path d="M36.75,39.29h0c-.11-.21-.3-.35-.52-.42-.23-.07-.46-.04-.66,.08l-2.5,1.44c-.2,.11-.34,.3-.4,.52-.06,.22-.03,.45,.08,.65l.19,.33c.12,.2,.3,.34,.51,.4,.07,.02,.15,.03,.23,.03,.15,0,.3-.04,.43-.12l2.5-1.44c.2-.11,.34-.3,.4-.52,.06-.22,.03-.45-.09-.65-.06-.1-.11-.2-.17-.3Z"/><path d="M39.23,25.51c.11,.2,.3,.34,.52,.4,.07,.02,.15,.03,.22,.03,.15,0,.3-.04,.43-.12,.1-.06,.2-.11,.3-.17,.2-.11,.35-.29,.42-.52,.06-.22,.03-.46-.08-.66l-1.49-2.58c-.11-.2-.3-.34-.52-.4-.22-.06-.45-.03-.65,.08l-.33,.19c-.19,.11-.34,.3-.4,.52-.06,.22-.03,.45,.09,.65l1.49,2.57Z"/><path d="M36.66,28.05l-2.56-1.48c-.2-.11-.43-.14-.65-.08-.22,.06-.4,.2-.52,.4l-.19,.32c-.11,.2-.14,.43-.09,.65,.06,.22,.2,.41,.4,.52l2.55,1.48c.13,.07,.28,.11,.43,.11,.08,0,.15-.01,.23-.03,.22-.06,.41-.21,.52-.41,.05-.1,.11-.2,.17-.29,.12-.2,.15-.43,.09-.66-.06-.22-.2-.41-.4-.53Z"/><path d="M40.65,43.22c-.1-.06-.2-.11-.3-.17-.2-.12-.44-.16-.66-.09-.22,.06-.41,.2-.52,.4l-1.43,2.48c-.24,.41-.09,.93,.31,1.17l.33,.19c.13,.07,.28,.11,.43,.11,.08,0,.15,0,.22-.03,.22-.06,.41-.2,.52-.4l1.43-2.48c.11-.2,.14-.44,.08-.66-.06-.22-.21-.41-.41-.52Z"/></g></g><path class="e" d="M106.12,101.45c0-3.58-2.82-7-7.94-9.65-1.4-.75-2.25-2.25-2.15-3.84,0-.11,.01-.23,.01-.34,0-2.42-1.76-4.76-4.96-6.59-4.46-2.55-11.58-4.07-19.02-4.07-5.87,0-11.5,.92-15.86,2.59-2.91,1.12-5.17,2.55-6.53,4.14-.38,.44-.33,1.11,.12,1.49,.19,.16,.44,.25,.69,.25,.3,0,.58-.12,.78-.34l.03-.03c1.15-1.35,3.06-2.54,5.68-3.54,4.12-1.58,9.48-2.45,15.1-2.45,7.2,0,13.75,1.38,17.97,3.79,2.62,1.5,3.89,3.05,3.89,4.75v.21c-.16,2.42,1.13,4.71,3.27,5.84,4.53,2.33,6.82,4.95,6.82,7.78,0,2.59-1.96,5.03-5.84,7.25-6.06,3.46-15.82,5.52-26.11,5.52s-20.06-2.06-26.11-5.52c-3.87-2.21-5.84-4.65-5.84-7.25,0-2.83,2.29-5.44,6.81-7.77,1.58-.84,2.72-2.31,3.13-4.04,.07-.27,.02-.56-.13-.8-.15-.24-.38-.41-.66-.47-.08-.02-.16-.03-.25-.03-.49,0-.91,.33-1.03,.81-.27,1.13-1.01,2.1-2.04,2.65-5.13,2.65-7.95,6.07-7.95,9.65,0,3.31,2.45,6.54,6.91,9.08,6.36,3.63,16.51,5.8,27.16,5.8s20.8-2.17,27.16-5.8c4.45-2.54,6.91-5.77,6.91-9.08Z"/><path class="e" d="M79.64,91.93c.26,.18,.57,.25,.89,.19,.31-.06,.58-.23,.76-.49,.18-.26,.25-.58,.19-.89-.06-.31-.23-.58-.49-.76-1.03-.71-2.21-1.08-3.42-1.08-.94,0-1.85,.22-2.7,.65l-.06,.03-.06-.03c-.85-.43-1.76-.65-2.7-.65s-1.85,.22-2.7,.65l-.06,.03-.06-.03c-.85-.43-1.76-.65-2.7-.65-1.21,0-2.39,.37-3.42,1.08-.54,.37-.68,1.11-.31,1.64,.18,.26,.45,.44,.76,.49,.31,.06,.63,0,.89-.19,1.27-.87,2.9-.87,4.17,0,.41,.28,.93,.28,1.34,0,.63-.43,1.35-.66,2.08-.66s1.45,.23,2.08,.66c.41,.28,.93,.28,1.34,0,1.27-.87,2.89-.87,4.17,0Z"/><path class="e" d="M89.52,101.54c-1.03-.71-2.21-1.08-3.42-1.08-.94,0-1.84,.22-2.7,.65l-.06,.03-.06-.03c-.85-.43-1.76-.65-2.7-.65s-1.84,.22-2.7,.65l-.06,.03-.06-.03c-.85-.43-1.76-.65-2.69-.65-1.21,0-2.39,.37-3.42,1.08-.54,.37-.68,1.11-.31,1.65,.37,.54,1.1,.67,1.65,.31,1.27-.87,2.9-.87,4.17,0,.41,.28,.93,.28,1.34,0,.63-.43,1.35-.66,2.08-.66s1.45,.23,2.08,.66c.41,.28,.93,.28,1.34,0,1.27-.87,2.89-.87,4.17,0,.26,.18,.58,.24,.89,.19,.31-.06,.58-.23,.76-.49,.37-.54,.23-1.28-.31-1.65Z"/><g><path class="d" d="M125.76,55.35l-.33-.19c-.22-.12-.34-.36-.31-.61l.09-.65c.03-.23,.06-.45,.06-.69,0-4.04-3.29-7.33-7.33-7.33-.78,0-1.57,.15-2.42,.45l-.37,.13c-.07,.02-.14,.04-.21,.04-.18,0-.36-.08-.48-.23l-.25-.31c-2.21-2.75-5.5-4.33-9.02-4.33-.37,0-.74,.02-1.11,.05-2.89,.27-5.62,1.93-7.5,4.54-2.99,4.16-3.09,6.02-2.91,8.03l.03,.35c.02,.24-.1,.47-.31,.59l-.31,.18c-2.33,1.33-3.71,3.7-3.71,6.33,0,2.85,1.69,5.46,4.3,6.65l.53,.24c.15,.07,.27,.2,.33,.36,.05,.16,.04,.33-.04,.48l-.27,.52c-.4,.77-.6,1.57-.6,2.37,0,2.87,2.33,5.2,5.2,5.2,.56,0,1.12-.09,1.68-.27,2.07-.66,3.52-2.74,3.52-5.05v-14.27l-.07-.07-2.71-2.71-.04-.06-.03-.02c-.23-.22-.36-.52-.36-.83,0-.64,.52-1.16,1.16-1.16,.32,0,.62,.13,.87,.4,.02,.02,.04,.03,.04,.03,0,0,0,0,0,0l2.14,2.14,.18,.18,.18-.18,2.13-2.13,.07-.04,.03-.03c.22-.23,.52-.36,.83-.36,.64,0,1.16,.52,1.16,1.16,0,.32-.14,.62-.41,.87-.02,.02-.03,.04-.03,.04,0,0,0,0,0,0l-2.72,2.73-.07,.07v37.68s0,.25,0,.25h6.16V63.61c0-.16,.06-.32,.18-.43l3.27-3.28,.06-.03,.03-.03c.23-.24,.52-.38,.84-.38,.64,0,1.16,.52,1.16,1.16,0,.32-.13,.61-.38,.86-.02,.02-.03,.04-.03,.05l-2.72,2.73-.07,.07v8.01c0,2.87,2.33,5.2,5.2,5.2,.36,0,.73-.04,1.1-.11,1.41-.29,2.7-1.26,3.43-2.59,.88-1.58,.9-3.27,.07-4.87l-.27-.52c-.08-.15-.09-.32-.03-.48,.05-.16,.17-.29,.32-.36l.53-.24c2.61-1.19,4.29-3.8,4.29-6.65,0-2.62-1.44-5.05-3.76-6.36Z"/><path d="M105.2,39.3c-7.67,0-13.91,6.24-13.91,13.91v.49l-.09,.08-.28,.23c-2.43,1.83-3.87,4.7-3.87,7.69s1.53,6.06,4.09,7.87l.4,.28,.14,.1-.04,.17-.12,.47c-.14,.57-.21,1.15-.21,1.74,0,4.16,3.38,7.54,7.54,7.54,1.3,0,2.57-.35,3.77-1.05l1.06-.62,.38-.22v18.36c0,.78,.63,1.41,1.41,1.41h8.01c.78,0,1.41-.63,1.41-1.41v-18.36l.38,.22,1.06,.62c1.2,.7,2.47,1.05,3.77,1.05,4.16,0,7.54-3.38,7.54-7.54,0-.58-.07-1.17-.21-1.74l-.11-.47-.04-.17,.14-.1,.39-.28c2.56-1.81,4.09-4.76,4.09-7.87s-1.45-5.86-3.87-7.69l-.28-.21-.1-.08v-.3c0-1.66-.32-3.15-.95-4.41-1.68-3.38-4.98-5.49-8.61-5.49-.68,0-1.36,.07-2.02,.22l-.38,.08-.14,.03-.1-.1-.09-.1c-2.01-2.07-4.42-3.46-6.95-4.02-1.05-.23-2.12-.35-3.17-.35v-.13h0v.13Zm9.02,6.67l.25,.31c.12,.15,.29,.23,.48,.23,.07,0,.14-.01,.21-.04l.37-.13c.85-.3,1.64-.45,2.42-.45,4.04,0,7.33,3.29,7.33,7.33,0,.23-.03,.46-.06,.69l-.09,.65c-.03,.25,.09,.49,.31,.61l.33,.19c2.32,1.3,3.76,3.74,3.76,6.36,0,2.85-1.69,5.46-4.29,6.65l-.53,.24c-.15,.07-.27,.2-.32,.36-.06,.16-.04,.33,.03,.48l.27,.52c.83,1.6,.8,3.28-.07,4.87-.74,1.33-2.02,2.3-3.43,2.59-.36,.07-.73,.11-1.1,.11-2.87,0-5.2-2.33-5.2-5.2v-8.01l.07-.07,2.72-2.73s.01-.03,.03-.05c.26-.25,.38-.54,.38-.86,0-.64-.52-1.16-1.16-1.16-.32,0-.62,.13-.84,.38l-.03,.03-.06,.03-3.27,3.28c-.11,.11-.18,.27-.18,.43v32.03s0,.25,0,.25h-6.16V58.05s0-.1,0-.1l.07-.07,2.72-2.73s0,0,0,0c0,0,0-.02,.03-.04,.27-.25,.41-.55,.41-.87,0-.64-.52-1.16-1.16-1.16-.31,0-.61,.13-.83,.36l-.03,.03-.07,.04-2.13,2.13-.18,.18-.18-.18-2.14-2.14s0,0,0,0c0,0-.02-.01-.04-.03-.25-.26-.55-.4-.87-.4-.64,0-1.16,.52-1.16,1.16,0,.31,.13,.61,.36,.83l.03,.02,.04,.06,2.71,2.71,.07,.07v14.27c0,2.31-1.45,4.39-3.52,5.05-.56,.18-1.12,.27-1.68,.27-2.87,0-5.2-2.33-5.2-5.2,0-.8,.2-1.6,.6-2.37l.27-.52c.08-.15,.09-.32,.04-.48-.05-.16-.17-.29-.33-.36l-.53-.24c-2.61-1.19-4.3-3.81-4.3-6.65,0-2.63,1.39-5,3.71-6.33l.31-.18c.21-.12,.33-.35,.31-.59l-.03-.35c-.18-2-.08-3.86,2.91-8.03,1.88-2.62,4.62-4.27,7.5-4.54,.37-.03,.74-.05,1.11-.05,3.52,0,6.8,1.58,9.02,4.33Z"/></g><g><g><g><path class="c" d="M48.15,67.24l-.12,.24c-.5,1.01-.85,2.08-1.06,3.18l-.06,.31h.31c1.13-.05,2.9-.18,3.33-.36,.24-.12,.89-.57,1.76-2.15l.07-.12-.07-.12-.04-.06-.08-.15-.16,.02c-.24,.03-.49,.04-.73,.04h-.22s-.18,0-.18,0c-.89,0-1.76-.24-2.53-.69l-.23-.14"/><path class="c" d="M46.8,71.08l.08-.43c.21-1.11,.56-2.19,1.06-3.21l.17-.34,.33,.19c.75,.45,1.6,.68,2.48,.68h.17s.22,0,.22,0c.24,0,.48-.01,.71-.04l.23-.03,.24,.44-.09,.17c-.88,1.61-1.55,2.07-1.8,2.2-.46,.19-2.31,.32-3.37,.36l-.44,.02Zm1.4-3.7l-.07,.15c-.49,1-.85,2.06-1.05,3.16l-.04,.18h.19c1.12-.05,2.89-.18,3.29-.35,.22-.11,.85-.55,1.71-2.11l.04-.07-.12-.22h-.1c-.24,.04-.49,.05-.74,.05h-.22s-.17,0-.17,0c-.91,0-1.8-.24-2.58-.71l-.14-.08Z"/></g><g><path class="c" d="M21.84,62.2l-.88,.33c-3.29,1.25-4.95,3.39-4.95,6.39,0,.94,.52,1.57,1.38,2.53l.16,.18c.36,.4,.77,.85,1.13,1.38l.79,1.18-.34-1.38c-.34-1.39-.5-2.46-.5-3.39,0-2.08,.97-4.51,2.61-6.49l.6-.73"/><path class="c" d="M19.7,74.72l-1.1-1.66c-.36-.54-.76-.98-1.12-1.37l-.16-.18c-.87-.97-1.41-1.62-1.41-2.59,0-3.04,1.69-5.22,5.02-6.48l1.23-.46-.83,1.02c-1.62,1.97-2.58,4.37-2.58,6.43,0,.92,.16,1.99,.49,3.37l.47,1.93Zm1.82-12.3l-.53,.2c-3.24,1.23-4.89,3.35-4.89,6.3,0,.9,.52,1.52,1.36,2.46l.16,.18c.36,.4,.77,.85,1.14,1.4l.47,.71-.2-.83c-.34-1.39-.5-2.48-.5-3.42,0-2.1,.98-4.56,2.63-6.56l.36-.44Z"/></g><g><path class="c" d="M51.47,57.11l-.76,.21c-1.09,.3-2.44,.92-4.4,1.89-.9,.44-1.84,.8-2.8,1.07l-.26,.07,.09,.25c.1,.29,.25,.55,.48,.8,.38,.33,.86,.51,1.36,.51h.19c2.47-.09,3.54-1.5,4.9-3.29,.22-.31,.46-.62,.7-.92l.49-.61"/><path class="c" d="M45.19,62.02c-.53,0-1.03-.19-1.43-.54-.24-.26-.4-.53-.51-.84l-.12-.35,.36-.1c.95-.26,1.89-.62,2.78-1.07,1.97-.97,3.32-1.6,4.41-1.9l1.06-.3-.69,.85c-.24,.29-.47,.6-.69,.91-1.38,1.81-2.47,3.24-4.98,3.32h-.19Zm-1.8-1.59l.05,.15c.1,.28,.25,.53,.46,.76,.35,.31,.81,.48,1.28,.48h.19c2.42-.09,3.48-1.48,4.83-3.25,.22-.31,.46-.62,.7-.92l.3-.37-.45,.13c-1.08,.3-2.42,.92-4.38,1.89-.9,.45-1.85,.81-2.82,1.08l-.15,.04Z"/></g><g><path class="c" d="M17.32,75.97l-.67,.59c-.21,.19-.48,.29-.77,.29-.84,0-1.67,.74-2.21,1.36l-.28,.32,.42,.09c.22,.05,.45,.07,.68,.07,.47,0,.95-.11,1.41-.32,.42-.28,.75-.66,.98-1.1,.07-.14,.13-.29,.18-.45l.27-.85"/><path class="c" d="M14.48,78.79c-.23,0-.47-.02-.7-.07l-.58-.13,.4-.45c.56-.64,1.41-1.39,2.29-1.39,.26,0,.51-.09,.7-.27l.94-.82-.37,1.19c-.05,.16-.12,.32-.19,.46-.24,.46-.59,.85-1.01,1.14-.48,.23-.97,.34-1.46,.34Zm-.91-.32l.25,.05c.68,.15,1.38,.06,2.02-.25,.39-.26,.71-.63,.94-1.06,.07-.13,.13-.28,.17-.43l.16-.51-.4,.35c-.23,.2-.53,.31-.83,.31-.8,0-1.6,.72-2.14,1.33l-.17,.19Z"/></g><g><path class="c" d="M59.6,72.52c-.26,0-.52,.02-.78,.05l-.22,.03v.79c0,.64-.52,1.17-1.17,1.17l-.19-.02-.43-.07,.16,.41,.04,.1v.03s.04,.03,.04,.03c.42,.51,1.25,.76,2.53,.76,1.42,0,2.18-.26,2.55-.88l.32-.53-.6,.17c-.1,.03-.21,.04-.31,.04-.64,0-1.17-.52-1.17-1.17v-.86l-.23-.02c-.1,0-.19-.02-.29-.02h-.25"/><path class="c" d="M59.58,75.89c-1.32,0-2.17-.26-2.61-.79l-.05-.09-.26-.67,.6,.1h.18c.58,.01,1.06-.46,1.06-1.05v-.87l.31-.04c.26-.03,.53-.05,.79-.05h.25c.1,0,.2,.02,.3,.02l.32,.03v.95c0,.59,.48,1.07,1.07,1.07,.1,0,.19-.01,.29-.04l.84-.23-.45,.75c-.39,.65-1.18,.92-2.63,.92Zm-2.47-.94v.02c.41,.48,1.21,.72,2.47,.72,1.38,0,2.11-.25,2.46-.83l.19-.32-.36,.1c-.11,.03-.22,.04-.34,.04-.7,0-1.27-.57-1.27-1.27v-.76h-.14c-.09-.02-.19-.03-.29-.03h-.25c-.25,0-.51,.01-.77,.05l-.13,.02v.7c0,.7-.57,1.27-1.27,1.27l-.2-.02-.27-.04,.14,.36Z"/></g><g><path class="c" d="M37.99,61.26l-.25,.02c-1.84,.13-3.65,.14-4.84,.14-.7,0-1.38,0-2.02-.01h-.25s-.06,0-.06,0h-1.74c-1.92,.07-3.72,.89-5.05,2.31-1.59,1.51-2.56,3.54-2.74,5.74,0,1.5,.62,3.6,1.2,5.64l.22,.76,.23,.81c.61,2.11,1.13,3.92,1.13,5.38,.02,1.05-.21,2.11-.68,3.07-.1,.17-.16,.37-.18,.57v.03s0,.04,0,.04c.09,.56,.37,1.09,.78,1.48l.09-.09,.02,.02-.06,.11c1.44,1.71,2.37,3.89,2.6,6.12l.02,.23h.23s2.2-.06,2.2-.06h.3s-.07-.3-.07-.3c-.13-.58-.32-1.14-.56-1.68-.7-1.54-1.14-3.17-1.29-4.84v-.05s0,0,0,0c0-2.61,2.08-4.47,4.08-6.28l.33-.3c.35-.31,.84-.74,1.38-1.25l.08-.1h0s.18-.18,.18-.18c2.25-2.24,3.55-4.3,3.87-6.15l.07-.69c.19-1.94-.46-3.87-1.81-5.31-.22-.2-.35-.48-.38-.77-.02-.32,.07-.62,.28-.86,.23-.26,.55-.41,.9-.41,.29,0,.56,.11,.8,.31,1.92,1.88,2.9,4.49,2.68,7.15-.07,1.92-.94,3.97-2.58,6.1l-.2,.26,.31,.12c.15,.06,.28,.15,.4,.26l.18,.18,.18-.19c.22-.24,.53-.37,.85-.37h.08c1.64,.13,2.89,1.16,4.1,2.17,1.15,.95,2.35,1.94,4.05,2.4l.43,.12-.13-.43c-.12-.42-.27-.85-.42-1.26-.63-1.71-.96-3.5-.97-5.31,0-.64,.52-1.17,1.17-1.17s1.17,.52,1.17,1.16c.01,1.56,.3,3.09,.87,4.56,.74,1.98,1.11,4.05,1.11,6.15,.1,2.31,.71,4.63,1.76,6.7l.07,.14h3.1l-.17-.36c-.75-1.57-1.18-3.24-1.26-4.98v-.02s0-.06,0-.06c.18-1.94,.71-3.79,1.58-5.52,.59-1.31,1.2-2.42,1.54-3.01l-.11-.06v-.02s.14,.04,.14,.04c.09-.16,.16-.28,.21-.39,.2-.33,.55-.54,.93-.56h.22s.21,.06,.21,.06l.21,.09c.39,.23,.61,.67,.56,1.13l-.08,.75,.51-.55c.42-.46,.74-.98,.94-1.57l.12-.37-.39,.04c-.26,.03-.52,.04-.78,.04-.35,0-.68-.02-.99-.05l-.27-.03-.24-.04c-1.37-.23-2.34-.8-2.98-1.79-.54-.99-.78-2.1-.71-3.22v-.03s0-.03,0-.03c-.09-.62-.27-1.22-.51-1.8l-.17-.4-.26,.34c-.51,.65-1.12,1.21-1.82,1.65l-.08,.05-.1,.02c-1.6,.38-3.24,.57-4.88,.57h-.2s-.26,0-.26,0c-.33,0-.66-.05-.98-.14l-.09-.03-.08-.05c-.34-.23-.53-.63-.5-1.04,.09-1.4,.37-2.77,.83-4.08l.08-.34h-.37s-.26,.02-.26,.02c-1.91,0-3.72-.74-5.08-2.08l-.09,.09-.02-.02,.07-.1c-.97-1.13-1.54-2.58-1.62-4.08v-.26"/><path class="c" d="M26.31,93.75l-.03-.32c-.23-2.21-1.15-4.37-2.58-6.07l-.03-.04c-.42-.41-.71-.95-.81-1.54v-.05s0-.05,0-.05c.02-.21,.09-.42,.19-.6,.46-.94,.69-1.99,.67-3.02,0-1.45-.52-3.26-1.13-5.36l-.45-1.58c-.59-2.04-1.2-4.15-1.21-5.66,.18-2.23,1.17-4.29,2.78-5.81,1.34-1.44,3.16-2.27,5.11-2.34h2.05c.64,0,1.32,.02,2.01,.02,1.19,0,2.99-.02,4.84-.14l.36-.02,.02,.36c.07,1.48,.64,2.91,1.59,4.02l.03,.03c1.34,1.33,3.12,2.05,5.01,2.05l.76-.02-.12,.47c-.46,1.31-.73,2.68-.83,4.07-.03,.37,.15,.74,.46,.95l.06,.04,.07,.02c.31,.09,.63,.14,.95,.14h.26s.21,0,.21,0c1.63,0,3.27-.19,4.86-.57l.08-.02,.07-.04c.69-.43,1.29-.98,1.79-1.63l.37-.48,.23,.56c.25,.58,.42,1.2,.52,1.83v.03s0,.04,0,.04c-.07,1.1,.18,2.19,.7,3.16,.62,.96,1.55,1.51,2.91,1.74l.24,.04,.26,.03c.54,.05,1.14,.07,1.76,0l.54-.05-.17,.52c-.21,.6-.53,1.14-.96,1.61l-.72,.77,.11-1.05c.05-.42-.16-.82-.51-1.03l-.2-.09-.18-.06h-.2c-.35,.03-.67,.23-.85,.53-.05,.1-.11,.21-.19,.35l-.05,.09c-.3,.54-.93,1.67-1.53,3.01-.87,1.71-1.39,3.56-1.57,5.48v.06c.08,1.73,.5,3.39,1.25,4.95l.24,.5h-3.32l-.1-.19c-1.06-2.08-1.67-4.42-1.77-6.74,0-2.09-.37-4.15-1.1-6.12-.57-1.48-.86-3.02-.87-4.59,0-.59-.48-1.06-1.07-1.06s-1.07,.48-1.07,1.07c0,1.8,.33,3.58,.96,5.28,.15,.4,.29,.83,.42,1.26l.18,.6-.6-.16c-1.72-.47-2.92-1.46-4.08-2.41-1.2-1-2.44-2.03-4.05-2.15h-.08c-.29,0-.57,.12-.77,.34l-.25,.26-.26-.26c-.11-.11-.23-.19-.36-.24l-.43-.17,.29-.37c1.63-2.11,2.49-4.14,2.56-6.04,.21-2.64-.75-5.22-2.66-7.08-.22-.18-.46-.28-.73-.28-.32,0-.62,.14-.82,.38-.19,.22-.28,.5-.26,.79,.02,.27,.14,.52,.34,.71,1.37,1.46,2.04,3.42,1.84,5.39l-.07,.69c-.32,1.87-1.63,3.96-3.9,6.21l-.17,.17-.08,.1c-.55,.52-1.03,.94-1.39,1.26l-.33,.3c-1.99,1.79-4.05,3.63-4.05,6.2v.05c.16,1.67,.59,3.29,1.29,4.81,.24,.55,.43,1.12,.56,1.7l.09,.42h-.43s-2.52,.08-2.52,.08Zm-2.41-6.47c1.43,1.72,2.34,3.89,2.58,6.12v.14s2.54-.07,2.54-.07l-.04-.18c-.13-.57-.31-1.13-.55-1.66-.71-1.54-1.14-3.19-1.3-4.88v-.05c0-2.67,2.09-4.54,4.11-6.36l.33-.3c.36-.32,.83-.74,1.38-1.24l.08-.11,.18-.17c2.24-2.22,3.53-4.27,3.84-6.1l.07-.69c.19-1.91-.46-3.82-1.78-5.23-.23-.21-.38-.51-.4-.83-.03-.34,.08-.67,.3-.93,.24-.28,.6-.45,.97-.45,.31,0,.61,.11,.86,.33,1.95,1.91,2.94,4.54,2.72,7.24-.07,1.93-.95,4-2.61,6.15l-.12,.16,.18,.07c.16,.06,.31,.16,.43,.29l.11,.11,.11-.11c.24-.26,.58-.4,.92-.4h.08c1.68,.13,2.94,1.18,4.16,2.19,1.15,.95,2.33,1.92,4.01,2.38l.26,.07-.08-.26c-.13-.43-.27-.85-.42-1.25-.64-1.72-.96-3.52-.97-5.35,0-.7,.57-1.27,1.27-1.27s1.27,.57,1.27,1.26c.01,1.54,.3,3.07,.86,4.52,.75,2,1.12,4.08,1.12,6.18,.1,2.3,.71,4.6,1.75,6.66l.04,.08h2.88l-.1-.22c-.76-1.58-1.19-3.27-1.27-5.02v-.04s0-.06,0-.06c.18-1.95,.72-3.82,1.59-5.55,.57-1.27,1.17-2.36,1.49-2.93l-.11-.06,.1-.18,.12,.04c.07-.12,.12-.22,.17-.32,.22-.36,.6-.59,1.01-.62h.24s.23,.06,.23,.06l.22,.09c.43,.25,.67,.74,.62,1.23l-.05,.45,.31-.33c.41-.44,.72-.96,.92-1.54l.07-.22-.23,.02c-.63,.06-1.24,.05-1.79,0l-.27-.03-.25-.04c-1.41-.23-2.4-.83-3.05-1.83-.55-1.01-.8-2.14-.73-3.28v-.03s0,0,0,0c-.09-.61-.26-1.2-.5-1.77l-.1-.24-.16,.21c-.52,.67-1.14,1.23-1.85,1.68l-.11,.06-.1,.02c-1.61,.38-3.26,.57-4.91,.57h-.21s-.26,0-.26,0h0c-.34,0-.68-.05-1.01-.15l-.12-.04-.08-.05c-.37-.25-.57-.69-.54-1.13,.1-1.4,.38-2.79,.84-4.11l.05-.21h-.5c-1.91,.01-3.71-.71-5.08-2.03l-.1,.1-.12-.18,.06-.1c-.95-1.14-1.52-2.59-1.59-4.09v-.15s-.16,.01-.16,.01c-1.86,.13-3.66,.14-4.85,.14-.7,0-1.38,0-2.02-.01h-.31s-1.74,0-1.74,0c-1.9,.07-3.66,.88-4.98,2.28-1.58,1.49-2.54,3.51-2.72,5.68,0,1.48,.61,3.58,1.2,5.6l.45,1.58c.61,2.11,1.14,3.94,1.14,5.41,.02,1.06-.22,2.14-.69,3.12-.09,.17-.15,.35-.17,.54v.02s0,.02,0,.02c.08,.51,.32,.99,.68,1.36l.09-.1,.13,.17-.06,.11Z"/></g><g><path class="c" d="M60.09,56.2h-1.32c-3.65,0-4.94,1.7-6.57,3.85-1.45,1.92-3.1,4.1-6.67,4.22-.1,0-.21,.01-.31,.01-1.11,0-2.17-.42-2.98-1.19-.84-.85-1.32-1.97-1.34-3.15l-.06-2.4-.44,2.36c-.04,.22-.06,.45-.07,.71-.12,1.16,.23,2.36,.99,3.31,.92,.89,2.14,1.38,3.42,1.38,.08,0,.16,0,.28,0,.09,0,.19,0,.28,0,3.66,0,5.95-1.97,7.96-3.72,1.64-1.39,3.33-2.83,5.49-2.83h1.33c2.16,0,3.87,1.45,5.52,2.86,2.13,1.82,4.33,3.69,7.99,3.69h.26s.23,0,.23,0c1.26,0,2.47-.48,3.41-1.37,.76-.93,1.13-2.15,.99-3.35h-.12s0,.01,0,.01v-.02s.12-.04,.12-.04c0-.16-.02-.32-.04-.47h-.12s-.17-1.21-.17-1.21l-.08,1.22h-.12c-.07,1.14-.54,2.18-1.34,3-.82,.78-1.88,1.21-3.01,1.21h-.23c-3.59-.12-5.24-2.3-6.7-4.23l-.04-.06c-1.55-2.04-2.88-3.8-6.53-3.8"/><path class="c" d="M74.08,65.4h-.24s-.26,0-.26,0c-3.7,0-5.92-1.89-8.06-3.72-1.64-1.39-3.33-2.83-5.46-2.83h-1.33c-2.12,0-3.8,1.43-5.42,2.81-2.03,1.75-4.33,3.74-8.03,3.74-.09,0-.19,0-.28,0h-.04c-.1,0-.17,0-.24,0-1.31,0-2.55-.5-3.49-1.4-.77-.97-1.14-2.21-1.02-3.4,0-.27,.03-.5,.07-.72l.62-3.3,.08,3.36c.03,1.16,.49,2.26,1.32,3.08,.87,.82,2.03,1.23,3.21,1.15,3.53-.11,5.16-2.27,6.6-4.18,1.65-2.18,2.95-3.89,6.65-3.89h1.32c3.7,0,5.05,1.78,6.61,3.84l.04,.06c1.45,1.91,3.09,4.06,6.62,4.18h.23c1.09,0,2.14-.41,2.94-1.17,.79-.8,1.24-1.82,1.31-2.93v-.09s.13,0,.13,0l.13-2.12,.3,2.1h.13s.01,.08,.01,.08c.02,.16,.04,.31,.04,.48v.04c.14,1.22-.23,2.47-1.01,3.42-.96,.91-2.2,1.4-3.48,1.4Zm-.24-.21h.24c1.24,0,2.42-.47,3.34-1.33,.72-.88,1.07-2.03,.97-3.17h-.13s0-.18,0-.18l.12-.06c0-.1-.01-.2-.02-.3h-.12s-.05-.32-.05-.32l-.02,.33h-.13c-.09,1.13-.56,2.15-1.36,2.97-.84,.8-1.93,1.23-3.08,1.23h-.23c-3.63-.12-5.3-2.32-6.78-4.26l-.04-.06c-1.53-2.02-2.85-3.76-6.45-3.76h-1.32c-3.6,0-4.88,1.68-6.49,3.81-1.47,1.94-3.13,4.14-6.75,4.26-.1,0-.21,.01-.32,.01-1.13,0-2.21-.43-3.05-1.22-.86-.87-1.35-2.01-1.38-3.22l-.03-1.44-.26,1.42c-.04,.21-.06,.43-.07,.7-.12,1.15,.23,2.33,.96,3.25,.9,.86,2.09,1.34,3.34,1.34,.07,0,.13,0,.23,0h.05c.1,0,.19,0,.29,0,3.63,0,5.89-1.96,7.9-3.69,1.65-1.41,3.36-2.86,5.55-2.86h1.33c2.2,0,3.92,1.46,5.59,2.88,2.11,1.8,4.3,3.67,7.93,3.67h.26Z"/></g><g><path class="c" d="M70.82,67.34l-.09,.05c-.77,.45-1.65,.68-2.54,.68h-.14s-.21,0-.21,0c-.23,0-.47-.01-.72-.04l-.17-.02-.08,.16-.05,.11-.06,.12,.06,.11c.88,1.57,1.52,2.01,1.77,2.14,.38,.15,1.93,.28,3.3,.34h.31s-.06-.3-.06-.3c-.2-1.1-.55-2.17-1.02-3.18l-.09-.12-.12-.03-.1-.02"/><path class="c" d="M72.33,71.1l-.44-.02c-1.28-.05-2.92-.18-3.33-.34-.31-.16-.96-.64-1.82-2.18l-.09-.16,.24-.49,.25,.03c.24,.03,.48,.04,.71,.04h.36c.88,0,1.74-.23,2.49-.67l.12-.07,.28,.07,.12,.14c.49,1.04,.84,2.11,1.04,3.22l.08,.43Zm-5.45-2.71l.04,.07c.87,1.55,1.5,1.98,1.73,2.1,.36,.14,1.89,.27,3.26,.33h.19s-.03-.18-.03-.18c-.2-1.09-.54-2.15-1.02-3.15l-.06-.07-.14-.03-.05,.03c-.78,.45-1.68,.69-2.59,.69h-.36c-.23,0-.48-.01-.73-.04h-.1s-.13,.26-.13,.26Z"/></g><g><path class="c" d="M60.09,61.15h-1.32c-1.29,0-2.46,.99-3.94,2.25l-.07,.05c-.35,.3-.77,.65-1.23,1.01l-.1,.07v.95l.02,.05c.02,.05,.15,.32,.31,.63,.28,.54,.58,1.07,.87,1.58,.58,.92,1.08,1.9,1.5,2.91l.1,.23,.23-.1c.95-.41,1.95-.62,2.98-.62,.16,0,.31,0,.45,.02,.95,.02,1.87,.22,2.74,.59l.23,.1,.1-.23c.42-.99,.92-1.96,1.48-2.87,.52-.79,.93-1.65,1.22-2.54v-.04s.01-.04,.01-.04v-.39l-.1-.08c-.52-.41-1.01-.82-1.5-1.23-1.44-1.24-2.69-2.3-4-2.3"/><path class="c" d="M56.19,71.02l-.14-.33c-.41-1-.92-1.97-1.49-2.89-.29-.51-.6-1.05-.88-1.59-.16-.31-.29-.58-.31-.64l-.03-.09v-1l.14-.1c.45-.35,.87-.71,1.22-1.01l.07-.05c1.49-1.27,2.66-2.27,4-2.27h1.32c1.35,0,2.61,1.08,4.07,2.33,.45,.38,.95,.81,1.49,1.23l.13,.11v.51s-.02,.04-.02,.04c-.29,.9-.71,1.77-1.23,2.57-.56,.91-1.05,1.87-1.47,2.86l-.14,.32-.32-.14c-.86-.37-1.77-.57-2.71-.58-.14,0-.29-.02-.44-.02-1.01,0-2,.21-2.94,.61l-.33,.14Zm-2.65-5.56v.03c.04,.05,.16,.32,.32,.62,.28,.54,.58,1.08,.87,1.58,.58,.92,1.09,1.91,1.51,2.92l.06,.14,.14-.06c.96-.42,1.97-.62,3.02-.62,.16,0,.32,0,.45,.02,.95,.02,1.89,.22,2.77,.6l.14,.06,.06-.14c.42-1,.92-1.97,1.49-2.89,.51-.79,.92-1.63,1.21-2.52v-.05s0-.34,0-.34l-.06-.05c-.54-.42-1.05-.85-1.5-1.23-1.43-1.22-2.66-2.28-3.94-2.28h-1.32c-1.26,0-2.41,.98-3.87,2.23l-.07,.05c-.35,.3-.77,.65-1.23,1.01l-.06,.04v.88Z"/></g></g><path d="M80.72,60.53c-.28-5.17-5.19-6.34-6.7-6.57-.27-.06-.52-.09-.77-.09-.31,0-.57,.1-.78,.3-.2,.19-.32,.46-.32,.74-.01,.58,.44,1.07,1.02,1.09h.4c1.23,.33,2.15,2.28,2.15,3.81,0,.63-.24,1.25-.68,1.7-.42,.38-1.01,.58-1.6,.54-2.56-.09-3.64-1.52-5.02-3.33-1.6-2.11-3.6-4.75-8.36-4.75h-1.31c-.09,0-.19,0-.29,0-1.49,0-2.97,.37-4.28,1.08l-.11,.06-.12-.03c-.62-.13-1.19-.19-1.73-.19-2.01,0-3.84,.84-6.9,2.32-.36,.17-.72,.32-1.08,.45l-.94,.34,.51-.85c.28-.46,.75-1.05,1.4-1.21h.09s.3-.01,.3-.01c.6-.03,1.05-.5,1.04-1.1,0-.27-.12-.55-.32-.74-.2-.19-.46-.3-.74-.3s-.55,.03-.81,.09c-1.54,.24-5.22,1.18-6.35,4.75l-.07,.23-.24,.02c-2.5,.19-5.04,.25-7.55,.18h-1.78c-13.03,0-14.97,6.14-14.97,9.79,0,1.92,1.19,3.19,1.97,4.03,.42,.45,.82,.89,1.1,1.37l.64,1.1-1.12-.62c-.16-.09-.34-.14-.52-.14-3.01,0-5.09,3.72-5.19,4.06-.13,.45,.06,.96,.47,1.21,1.04,.65,2.24,1.02,3.47,1.06,.84,0,1.64-.2,2.36-.61,.79-.48,1.44-1.17,1.87-1.98,.38-.71,.58-1.5,.59-2.31l.02-1.67-.88-1.31c-.35-.53-.76-.98-1.12-1.37l-.16-.18c-.87-.97-1.41-1.62-1.41-2.59,0-3.04,1.69-5.22,5.02-6.48l1.23-.46-.84,1.01c-1.62,1.97-2.58,4.37-2.58,6.43,0,.92,.16,2,.49,3.37l.3,1.22,.79,2.56c.64,2.14,1.24,4.16,1.24,5.47,.02,.72-.14,1.44-.45,2.08-.25,.49-.39,1.03-.41,1.58v.06c.09,1.08,.55,2.11,1.31,2.89,1.33,1.73,2.1,3.78,2.23,5.94,.08,.62,.56,1.09,1.17,1.13h4.75c.54,0,1.13-.37,1.25-1.18v-.04c.03-.35,.03-.7,0-1.05v-.17s0-.02,0-.02c-.12-.87-.38-1.71-.75-2.51-.58-1.28-.96-2.64-1.12-4.04,.03-1.65,1.64-3.09,3.34-4.6l.3-.27c.47-.41,.93-.83,1.36-1.24l.1-.1h2.1c.31,0,.6-.12,.81-.34l.25-.26,.25,.26c.18,.18,.42,.29,.67,.31,.92,.07,1.81,.79,2.83,1.64,1.3,1.09,3.25,2.73,6.16,3.12l.28,.04,.02,.28c.03,.37,.04,.74,.04,1.1,0,1.46,.42,3.58,1.1,5.54,.81,2.33,1.63,3.51,2.46,3.51h4.81c.59,0,1.06-.47,1.07-1.06v-.53c.05-.48,0-.91-.11-1.35-.03-.09-.07-.21-.14-.37l-.06-.14c-.64-1.3-1.01-2.69-1.09-4.12,.14-1.45,.52-2.82,1.12-4.1l.06-.14,.14-.05c1.05-.36,2.05-.84,2.99-1.43,1.7-1.23,2.74-3.14,2.83-5.22v-.15s.12-.1,.12-.1c1.34-1.13,1.34-2.81,1.34-3.71v-.64c.14-.49,.31-.98,.51-1.44l.23-.54,.36,.46c.5,.63,1.09,1.16,1.77,1.59l.07,.04,.08,.02c1.57,.37,3.19,.55,4.8,.55h.23c.11,0,.19,0,.27,0,.32,0,.64-.05,.95-.14l.08-.02,.07-.04c.31-.21,.48-.58,.45-.95-.1-1.39-.38-2.76-.84-4.08l-.16-.46h.49c1.9,0,3.69-.73,5.04-2.05l.03-.03c1.17-1.36,1.75-3.17,1.6-4.95Zm-63.57,16.32c-.05,.16-.11,.31-.19,.46-.24,.46-.59,.85-1.01,1.14-.48,.23-.97,.34-1.46,.34-.23,0-.47-.02-.7-.07l-.58-.13,.39-.45c.56-.64,1.42-1.39,2.29-1.39,.26,0,.51-.09,.7-.27l.94-.82-.37,1.19Zm26.34-16.65c.96-.27,1.89-.62,2.78-1.07,1.96-.97,3.31-1.59,4.41-1.9l1.06-.29-.69,.85c-.24,.3-.48,.61-.69,.91-1.38,1.81-2.47,3.24-4.98,3.32-.08,0-.14,0-.19,0-.52,0-1.03-.19-1.42-.54-.24-.26-.4-.53-.51-.84l-.12-.35,.36-.1Zm17.24,18.24c-.21,.6-.53,1.14-.96,1.61l-.72,.78,.12-1.05c.05-.42-.16-.83-.51-1.03-.06-.03-.12-.06-.2-.08l-.19-.06h-.2c-.35,.03-.67,.23-.85,.53-.05,.1-.11,.21-.2,.37l-.04,.07c-.33,.6-.95,1.71-1.53,3.01-.87,1.71-1.39,3.56-1.57,5.48v.05s0,.02,0,.02c.08,1.72,.5,3.39,1.25,4.94l.24,.5h-3.32l-.1-.19c-1.06-2.08-1.67-4.42-1.77-6.74,0-2.09-.37-4.15-1.1-6.12-.57-1.47-.86-3.02-.87-4.59,0-.59-.48-1.06-1.07-1.06s-1.07,.48-1.07,1.07c0,1.81,.33,3.58,.96,5.28,.15,.41,.29,.84,.42,1.26l.18,.6-.6-.16c-1.72-.47-2.92-1.46-4.08-2.42-1.2-1-2.43-2.03-4.04-2.15h-.08c-.29,0-.57,.12-.77,.34l-.25,.26-.25-.26c-.1-.11-.23-.19-.36-.24l-.43-.17,.28-.37c1.63-2.11,2.49-4.14,2.57-6.04,.21-2.64-.75-5.22-2.66-7.08-.21-.18-.47-.28-.73-.28-.32,0-.62,.14-.82,.38-.19,.22-.28,.5-.26,.79,.02,.27,.14,.52,.34,.71,1.37,1.46,2.04,3.42,1.84,5.39l-.07,.69c-.32,1.87-1.63,3.96-3.9,6.21l-.17,.17-.08,.11c-.56,.52-1.04,.95-1.39,1.26l-.33,.3c-1.99,1.79-4.05,3.64-4.05,6.2v.05c.16,1.67,.59,3.29,1.29,4.81,.24,.55,.43,1.12,.56,1.7l.09,.42-2.95,.08-.03-.32c-.23-2.22-1.15-4.37-2.58-6.07l-.03-.04c-.42-.41-.71-.95-.81-1.53v-.05s0-.05,0-.05c.02-.21,.09-.42,.19-.61,.46-.94,.69-1.99,.67-3.02,0-1.45-.52-3.25-1.12-5.35l-.46-1.59c-.59-2.05-1.2-4.15-1.2-5.66,.18-2.23,1.17-4.29,2.78-5.81,1.34-1.44,3.16-2.27,5.11-2.34h2.42c.53,.01,1.08,.02,1.65,.02,1.2,0,3-.02,4.84-.14l.36-.02,.02,.36c.07,1.48,.64,2.91,1.59,4.02l.03,.03c1.34,1.33,3.12,2.06,5.01,2.06,.09,0,.17,0,.26,0l.5-.02-.11,.47c-.46,1.32-.74,2.68-.83,4.07-.03,.37,.15,.74,.46,.95l.06,.04,.07,.02c.39,.12,.8,.16,1.21,.13h.21c1.63,0,3.27-.19,4.86-.57l.08-.02,.07-.04c.69-.43,1.3-.98,1.79-1.63l.37-.48,.23,.55c.25,.59,.42,1.2,.51,1.83v.07c-.07,1.1,.18,2.2,.71,3.17,.62,.96,1.55,1.51,2.91,1.74l.24,.04,.26,.03c.54,.06,1.16,.07,1.76,0l.54-.05-.17,.51Zm-13.93-7.37l.08-.43c.21-1.11,.56-2.19,1.07-3.21l.17-.34,.33,.19c.8,.47,1.72,.71,2.65,.68h.22c.24,0,.48-.01,.71-.04l.23-.03,.24,.44-.09,.17c-.88,1.61-1.55,2.07-1.8,2.2-.46,.19-2.31,.32-3.37,.36l-.44,.02Zm15.42,3.89c-.39,.65-1.17,.92-2.63,.92-1.32,0-2.17-.26-2.61-.79l-.05-.09-.27-.67,.61,.1c.06,0,.12,.01,.18,.01,.59,0,1.07-.48,1.07-1.07v-.87l.31-.04c.34-.04,.69-.06,1.04-.04,.1,0,.2,0,.3,.02l.32,.03v.95c0,.59,.48,1.07,1.07,1.07,.1,0,.19-.01,.28-.04l.84-.23-.45,.75Zm3.55-9.7c-.3,.91-.71,1.77-1.23,2.57-.57,.92-1.06,1.88-1.47,2.86l-.14,.32-.32-.14c-.86-.37-1.77-.56-2.71-.58-.14,0-.29-.01-.44-.01-1.02,0-2,.21-2.94,.61l-.33,.14-.14-.33c-.41-1-.92-1.97-1.49-2.89-.29-.51-.59-1.04-.88-1.59-.16-.31-.28-.57-.31-.64l-.03-.09v-1l.13-.11c.47-.37,.9-.73,1.23-1.01l.07-.06c1.49-1.27,2.67-2.27,4-2.27h1.32c1.34,0,2.6,1.08,4.06,2.33,.52,.44,.99,.83,1.5,1.23l.13,.11-.02,.54Zm6.13,5.82c-1.28-.05-2.92-.18-3.33-.34-.31-.16-.96-.65-1.82-2.18l-.09-.16,.24-.49,.25,.03c.24,.03,.47,.04,.71,.04h.36c.87,0,1.73-.23,2.49-.67l.12-.07,.29,.07,.12,.14c.49,1.04,.84,2.12,1.04,3.22l.08,.43-.44-.02Zm5.67-7.08h0c-.95,.91-2.19,1.4-3.48,1.4-.08,0-.16,0-.24,0h-.26c-3.7,0-5.91-1.89-8.06-3.71-1.64-1.4-3.33-2.83-5.46-2.83h-1.33c-2.12,0-3.8,1.43-5.42,2.81-2.03,1.75-4.33,3.74-8.03,3.74-.09,0-.19,0-.28,0-.12,0-.2,0-.28,0-1.31,0-2.55-.5-3.49-1.4-.77-.97-1.14-2.2-1.02-3.4,0-.25,.03-.49,.07-.72l.62-3.3,.08,3.36c.03,1.16,.49,2.26,1.32,3.08,.87,.82,2.01,1.24,3.21,1.15,3.53-.11,5.16-2.27,6.6-4.18,1.65-2.17,2.95-3.89,6.65-3.89h1.32c3.7,0,5.05,1.78,6.61,3.83l.04,.06c1.45,1.91,3.08,4.06,6.62,4.18,.07,0,.15,0,.23,0,1.1,0,2.14-.42,2.94-1.18,.79-.8,1.24-1.82,1.31-2.93v-.09s.13,0,.13,0l.13-2.12,.29,2.1h.12s.01,.08,.01,.08c.02,.16,.04,.32,.04,.48v.04c.14,1.22-.23,2.47-1.01,3.43Z"/></g><g><path d="M69.56,42.82c.22-.35,.63-.53,1.03-.48,.77-.15,1.44-.58,1.44-.58h0c.43-.31,.89-.59,1.39-.83-.39-.31-.74-.68-1.03-1.1-1.81-2.61-1-6.29-.9-6.7,.1-.42,.44-.74,.87-.8,.43-.07,.85,.13,1.08,.51,.17,.29,.52,.59,1,.87,.4,.23,.84,.39,1.3,.46,1.26,.2,2.22,.52,2.91,.85,.9-2.63,3.09-3.38,4.85-3.2,1.2,.13,2.27,.9,2.99,2.15l2.41,.11c.46,.01,.85,.32,.98,.76,.13,.43-.03,.9-.39,1.16l-2.06,1.5c.01,.41,0,.8-.04,1.19-.19,1.77-.83,3.32-1.79,4.38-2.1,2.3-4.81,3.49-7.88,3.49-.44,0-.88-.02-1.33-.07-3.62-.39-6.47-2.19-6.49-2.21-.49-.32-.64-.97-.32-1.47Zm9.08-5.34s-.97-.86-3.23-1.21c-.72-.11-1.4-.35-2.04-.72,0,0,0,0-.01,0,0,.99,.16,2.18,.78,3.08,.55,.79,1.42,1.26,2.59,1.41,.54,.07,.94,.53,.93,1.07,0,.54-.42,.99-.96,1.04-.02,0-1.89,.21-3.45,1.36,0,0-.03,.02-.07,.05,.71,.27,1.54,.54,2.45,.71,3.38,.64,6.21-.24,8.38-2.62,.66-.72,1.11-1.87,1.25-3.17,.12-1.1-.03-2.19-.38-3l-.05-.11c-.38-.84-.95-1.36-1.56-1.42-.58-.06-2.52-.04-2.85,2.89-.05,.4-.32,.75-.7,.88-.39,.14-.81,.05-1.09-.23Z"/><path class="c" d="M76.71,42.14c.54-.05,.95-.5,.96-1.04,0-.54-.39-1-.93-1.07-1.17-.15-2.04-.62-2.59-1.41-.62-.9-.78-2.08-.78-3.08,0,0,0,0,.01,0,.63,.37,1.32,.61,2.04,.72,2.26,.35,3.22,1.2,3.23,1.21,.28,.27,.7,.37,1.09,.23,.38-.13,.65-.48,.7-.88,.33-2.93,2.27-2.95,2.85-2.89,.61,.06,1.18,.58,1.56,1.42l.05,.11c.35,.82,.5,1.9,.38,3-.14,1.3-.59,2.46-1.25,3.17-2.18,2.38-5,3.26-8.38,2.62-.91-.17-1.74-.44-2.45-.71,.04-.03,.07-.04,.07-.05,1.56-1.15,3.43-1.36,3.45-1.36Z"/></g><g><path d="M107.41,55.53c-.22-.35-.63-.53-1.03-.48-.77-.15-1.44-.58-1.44-.58h0c-.43-.31-.89-.59-1.39-.83,.39-.31,.74-.68,1.03-1.1,1.81-2.61,1-6.29,.9-6.7-.1-.42-.44-.74-.87-.8-.43-.07-.85,.13-1.08,.51-.17,.29-.52,.59-1,.87-.4,.23-.84,.39-1.3,.46-1.26,.2-2.22,.52-2.91,.85-.9-2.63-3.09-3.38-4.85-3.2-1.2,.13-2.27,.9-2.99,2.15l-2.41,.11c-.46,.01-.85,.32-.98,.76-.13,.43,.03,.9,.39,1.16l2.06,1.5c-.01,.41,0,.8,.04,1.19,.19,1.77,.83,3.32,1.79,4.38,2.1,2.3,4.81,3.49,7.88,3.49,.44,0,.88-.02,1.33-.07,3.62-.39,6.47-2.19,6.49-2.21,.49-.32,.64-.97,.32-1.47Zm-9.08-5.34s.97-.86,3.23-1.21c.72-.11,1.4-.35,2.04-.72,0,0,0,0,.01,0,0,.99-.16,2.18-.78,3.08-.55,.79-1.42,1.26-2.59,1.41-.54,.07-.94,.53-.93,1.07,0,.54,.42,.99,.96,1.04,.02,0,1.89,.21,3.45,1.36,0,0,.03,.02,.07,.05-.71,.27-1.54,.54-2.45,.71-3.38,.64-6.21-.24-8.38-2.62-.66-.72-1.11-1.87-1.25-3.17-.12-1.1,.03-2.19,.38-3l.05-.11c.38-.84,.95-1.36,1.56-1.42,.58-.06,2.52-.04,2.85,2.89,.05,.4,.32,.75,.7,.88,.39,.14,.81,.05,1.09-.23Z"/><path class="c" d="M100.26,54.84c-.54-.05-.95-.5-.96-1.04,0-.54,.39-1,.93-1.07,1.17-.15,2.04-.62,2.59-1.41,.62-.9,.78-2.08,.78-3.08,0,0,0,0-.01,0-.63,.37-1.32,.61-2.04,.72-2.26,.35-3.22,1.2-3.23,1.21-.28,.27-.7,.37-1.09,.23-.38-.13-.65-.48-.7-.88-.33-2.93-2.27-2.95-2.85-2.89-.61,.06-1.18,.58-1.56,1.42l-.05,.11c-.35,.82-.5,1.9-.38,3,.14,1.3,.59,2.46,1.25,3.17,2.18,2.38,5,3.26,8.38,2.62,.91-.17,1.74-.44,2.45-.71-.04-.03-.07-.04-.07-.05-1.56-1.15-3.43-1.36-3.45-1.36Z"/></g></svg>