<?xml version="1.0" encoding="UTF-8"?><svg id="a" xmlns="http://www.w3.org/2000/svg" viewBox="0 0 150 130"><defs><style>.c{fill:#f9f7ff;}.d{fill:#e1e1f5;}.e{fill:#1a1a1a;}</style></defs><path class="d" d="M75,2.98C36.3,2.98,4.93,34.36,4.93,73.06c0,21.71,9.87,41.11,25.37,53.96H119.7c15.5-12.85,25.37-32.25,25.37-53.96C145.07,34.36,113.7,2.98,75,2.98"/><polygon class="c" points="63.2 73.48 92.34 73.48 105.52 89.44 76.39 89.44 63.2 73.48"/><path class="e" d="M119.83,113.21h-6.61v-16.68h5.4c.36,0,.69-.21,.84-.53,.15-.32,.11-.71-.12-.99l-23.06-28.28c-.18-.22-.44-.34-.72-.34H49.92c-.28,0-.54,.12-.72,.34l-23.37,28.28c-.23,.28-.28,.67-.12,.99s.48,.54,.84,.54h6.82v16.68h-7.16c-.51,0-.93,.42-.93,.93v.53c0,.51,.42,.93,.93,.93H100.96c.51,0,.93-.42,.93-.93v-.53c0-.51-.42-.93-.93-.93h-25.89v-16.68h35.76v16.68h-3.75c-.51,0-.93,.42-.93,.93v.53c0,.51,.42,.93,.93,.93h12.75c.51,0,.93-.42,.93-.93v-.53c0-.51-.42-.93-.93-.93ZM52.47,72.32l-18.36,21.82h-4.46l20.42-24.7,2.4,2.89Zm20.2,40.89H35.76v-17.31l18.27-21.71,18.33,22c.09,.1,.19,.19,.32,.25v16.77Zm42.86-19.08h-41.8s-21.08-25.35-21.08-25.35h42.21l20.67,25.35Z"/><g><path class="e" d="M56.56,94.13h-9.31c-.51,0-.93,.42-.93,.93v9.31c0,.51,.42,.93,.93,.93h9.31c.51,0,.93-.42,.93-.93v-9.31c0-.51-.42-.93-.93-.93Zm-1.47,2.4v6.38h-6.38v-6.38h6.38Z"/><path class="e" d="M109.07,90.17l-15.38-18.62c-.18-.22-.44-.34-.72-.34H60.38c-.36,0-.69,.21-.84,.54-.15,.33-.1,.72,.12,.99l15.38,18.62c.18,.22,.44,.34,.72,.34h32.59c.36,0,.69-.21,.84-.54,.15-.33,.1-.71-.12-.99Zm-3.83-.87h-6.93l-5.5-6.65h6.93l5.49,6.65Zm-19.89-15.69h6.93l5.49,6.64h-6.93l-5.49-6.64Zm4.35,9.04l5.5,6.65h-7.62l-5.49-6.65h7.62Zm-15.09-9.04h7.62l5.49,6.64h-7.62l-5.49-6.64Zm4.35,9.04l5.5,6.65h-8l-5.5-6.65h8Zm-1.98-2.4h-8l-5.49-6.64h8l5.49,6.64Z"/></g><circle class="c" cx="100.36" cy="41.23" r="8.57"/><g><path class="e" d="M89.42,41.32c0,5.92,4.82,10.74,10.74,10.74s10.74-4.82,10.74-10.74-4.82-10.75-10.74-10.75-10.74,4.82-10.74,10.75Zm19.09,0c0,4.6-3.74,8.35-8.35,8.35s-8.35-3.74-8.35-8.35,3.74-8.35,8.35-8.35,8.35,3.74,8.35,8.35Z"/><path class="e" d="M99.89,26.74h.29s.03,0,.04,0c.07,0,.13,0,.21,0,.22,0,.48-.1,.65-.26,.18-.18,.28-.42,.28-.67v-4.24c0-.51-.42-.93-.93-.93h-.53c-.51,0-.93,.42-.93,.93v4.25c0,.25,.1,.5,.29,.67,.17,.17,.41,.26,.65,.26Z"/><path class="e" d="M100.42,55.91h-.02c-.16,0-.32,0-.49,0-.23-.02-.49,.08-.68,.26-.18,.18-.28,.42-.28,.67v4.06c0,.51,.42,.93,.93,.93h.53c.51,0,.93-.42,.93-.93v-4.06c0-.25-.1-.49-.28-.67-.18-.18-.4-.27-.65-.27Z"/><path class="e" d="M109,54.14c-.12-.21-.33-.37-.57-.44-.24-.06-.5-.03-.71,.1-.14,.08-.28,.17-.43,.25-.22,.12-.38,.33-.45,.57-.07,.24-.03,.5,.09,.72l2.04,3.53c.12,.21,.32,.37,.57,.44,.08,.02,.16,.03,.24,.03,.16,0,.32-.04,.47-.12l.46-.27c.22-.12,.37-.33,.43-.57,.07-.24,.03-.49-.09-.71l-2.04-3.53Z"/><path class="e" d="M112.88,34.17c.12,.22,.33,.38,.57,.45,.08,.02,.17,.03,.25,.03,.16,0,.33-.04,.47-.12l3.64-2.1c.21-.12,.37-.33,.43-.57,.07-.24,.03-.49-.09-.71l-.27-.46c-.26-.45-.83-.6-1.28-.34l-3.64,2.1c-.22,.13-.37,.33-.44,.57-.06,.24-.03,.5,.1,.71,.08,.14,.17,.29,.25,.44Z"/><path class="e" d="M117.8,50.03l-3.56-2.06c-.22-.13-.48-.16-.72-.09-.24,.07-.45,.24-.57,.45-.08,.15-.16,.3-.24,.44-.13,.21-.16,.47-.1,.71,.06,.24,.22,.45,.44,.57l3.55,2.05c.14,.08,.3,.12,.47,.12,.08,0,.16-.01,.24-.03,.24-.06,.44-.22,.57-.44l.27-.46c.26-.45,.1-1.02-.34-1.28Z"/><path class="e" d="M110.69,23.52l-.46-.27c-.22-.12-.46-.16-.71-.09-.24,.06-.44,.22-.57,.44l-2.12,3.67c-.12,.22-.16,.48-.09,.72,.07,.24,.24,.45,.46,.57,.15,.08,.3,.16,.43,.24,.14,.08,.31,.13,.47,.13,.08,0,.16,0,.24-.03,.24-.06,.44-.22,.57-.44l2.11-3.66c.26-.45,.1-1.02-.34-1.28Z"/><path class="e" d="M119.83,40.03h-4.15c-.25,0-.5,.1-.67,.29-.18,.18-.27,.43-.26,.69,0,.1,0,.21,0,.31v.16c0,.25,.09,.49,.26,.67,.17,.18,.42,.28,.67,.28h4.14c.51,0,.93-.42,.93-.93v-.53c0-.51-.42-.93-.93-.93Z"/><path class="e" d="M85.3,42.15c.17-.18,.27-.42,.27-.67v-.16c0-.11,0-.22,0-.32,0-.25-.09-.5-.26-.68-.17-.18-.42-.28-.67-.28h-4.15c-.51,0-.93,.42-.93,.93v.53c0,.51,.42,.93,.93,.93h4.15c.25,0,.49-.1,.67-.28Z"/><path class="e" d="M87.37,48.34h0c-.12-.22-.32-.39-.57-.46s-.5-.04-.72,.09l-3.56,2.06c-.22,.12-.37,.33-.43,.57-.06,.24-.03,.49,.09,.71l.27,.46c.13,.22,.33,.37,.57,.43,.08,.02,.16,.03,.24,.03,.16,0,.33-.04,.47-.12l3.55-2.05c.21-.12,.37-.33,.44-.57,.06-.24,.03-.49-.1-.71-.08-.14-.16-.29-.24-.44Z"/><path class="e" d="M91.4,28.45c.12,.21,.33,.37,.57,.43,.08,.02,.16,.03,.24,.03,.17,0,.33-.04,.47-.13,.14-.08,.29-.16,.44-.25,.22-.12,.38-.32,.46-.57,.07-.24,.04-.5-.09-.72l-2.12-3.67c-.12-.22-.32-.37-.57-.44-.24-.06-.49-.03-.71,.09l-.46,.27c-.21,.12-.37,.33-.43,.57-.06,.24-.03,.49,.09,.71l2.11,3.66Z"/><path class="e" d="M87.36,32.45l-3.64-2.1c-.21-.12-.46-.16-.71-.09-.24,.06-.44,.22-.57,.43l-.27,.46c-.26,.45-.1,1.02,.34,1.28l3.64,2.1c.14,.08,.3,.12,.47,.12,.08,0,.17-.01,.25-.04,.24-.07,.45-.23,.57-.45,.08-.15,.16-.29,.25-.43,.13-.22,.17-.47,.1-.71-.06-.24-.22-.45-.44-.57Z"/><path class="e" d="M93.04,54.05h0c-.15-.08-.29-.16-.43-.25-.21-.13-.47-.17-.71-.1-.24,.06-.45,.22-.57,.44l-2.04,3.53c-.26,.45-.1,1.02,.34,1.27l.46,.27c.14,.08,.3,.12,.47,.12,.08,0,.16,0,.24-.03,.24-.07,.44-.22,.57-.43l2.04-3.53c.12-.21,.16-.48,.09-.72-.07-.24-.23-.45-.45-.57Z"/></g></svg>