<?xml version="1.0" encoding="UTF-8"?><svg id="a" xmlns="http://www.w3.org/2000/svg" viewBox="0 0 150 130"><defs><style>.c,.d{fill:#f9f7ff;}.e,.f{fill:#e1e1f5;}.g{stroke:#000;stroke-miterlimit:10;stroke-width:.15px;}.d,.f,.h,.i{fill-rule:evenodd;}.h{fill:#fff;}</style></defs><path class="e" d="M75,2.98C36.3,2.98,4.93,34.36,4.93,73.06c0,21.71,9.87,41.11,25.37,53.96H119.7c15.5-12.85,25.37-32.25,25.37-53.96C145.07,34.36,113.7,2.98,75,2.98"/><g><path class="c" d="M83.71,97.08l-.12-.09-3.13,6.23h6.97l-.02-.15c-.34-2.41-1.69-4.6-3.7-6Z"/><path class="c" d="M77.74,104.9c-.2-.32-.22-.73-.05-1.07l3.93-7.83-.16-.04c-.07-.02-1.82-.46-2.79-.46-4.87,0-8.83,3.96-8.83,8.82s3.96,8.83,8.83,8.83c4.36,0,8.11-3.26,8.73-7.58l.02-.15h-8.75c-.38,0-.73-.2-.93-.52Z"/><path class="e" d="M84.57,95.02l.1,.06c2.79,1.82,4.59,4.74,4.96,8.02v.13h.13s4.29-.01,4.29-.01l-7.32-12.49-2.15,4.29Z"/><path class="c" d="M115.17,95.49c-.34,0-.7,.02-1.12,.08l-.15,.02,.04,.15,2.28,8.29c.08,.28,.04,.58-.1,.83-.14,.25-.38,.44-.66,.52-.09,.03-.19,.04-.29,.04-.49,0-.93-.33-1.06-.81l-2.32-8.44-.14,.06c-3.22,1.41-5.3,4.58-5.3,8.09,0,4.87,3.96,8.83,8.83,8.83s8.83-3.96,8.83-8.83-3.96-8.83-8.83-8.83Z"/><polygon class="e" points="96.16 102.5 96.28 102.38 108.28 89.63 88.62 89.63 96.16 102.5"/></g><g><path class="c" d="M98.84,43.41h-3.93c-1.46,0-2.84,.57-3.88,1.61-1.04,1.04-1.61,2.41-1.61,3.88v17.01c0,.41,.17,.81,.46,1.1s.69,.46,1.1,.46h11.78c.41,0,.81-.17,1.1-.46,.29-.29,.46-.69,.46-1.1v-17.01c0-1.47-.57-2.84-1.61-3.88s-2.41-1.61-3.88-1.61Zm1.03,12.3l-1.31,5.23c-.06,.23-.19,.43-.38,.57-.18,.14-.42,.22-.66,.22-.09,0-.18-.01-.26-.03-.27-.07-.5-.24-.65-.49-.14-.24-.18-.53-.11-.81l.9-3.6,.08-.31h-2.57c-.32,0-.64-.15-.84-.41-.2-.26-.27-.59-.19-.92l1.31-5.23c.09-.37,.38-.66,.74-.76,.09-.03,.19-.04,.28-.04,.28,0,.54,.11,.74,.3,.27,.26,.38,.66,.28,1.02l-.9,3.6-.08,.31h2.57c.33,0,.64,.15,.84,.41,.2,.26,.27,.59,.19,.92Z"/><g><path class="g" d="M97.26,61.7c.08,.02,.17,.03,.26,.03,.24,0,.47-.08,.66-.22,.19-.14,.32-.35,.38-.57l1.31-5.23c.08-.32,.01-.65-.19-.92-.2-.26-.51-.41-.84-.41h-2.57l.08-.31,.9-3.6c.09-.37-.01-.76-.28-1.02-.2-.2-.46-.3-.74-.3-.1,0-.19,.01-.28,.04-.36,.1-.65,.39-.74,.76l-1.31,5.23c-.08,.32-.01,.66,.19,.92,.2,.26,.51,.41,.84,.41h2.57l-.08,.31-.9,3.6c-.07,.27-.03,.56,.11,.81,.14,.24,.38,.42,.65,.49Z"/><path class="g" d="M111.39,65.17c.56,.32,1.19,.49,1.84,.49s1.28-.17,1.84-.49c1.13-.65,1.84-1.87,1.84-3.18v-13.09c0-.28-.11-.55-.31-.75l-3.93-3.93c-.2-.2-.47-.31-.75-.31-.09,0-.18,.01-.27,.04-.36,.1-.65,.38-.75,.75-.1,.36,0,.76,.27,1.02l3.54,3.54,.07,.07v12.65c0,.55-.3,1.07-.78,1.35-.24,.14-.51,.21-.78,.21s-.54-.07-.78-.21c-.48-.28-.78-.79-.78-1.35v-5.24c0-.98-.38-1.9-1.08-2.6-.69-.69-1.62-1.08-2.6-1.08h-1.56v-4.18c0-2.03-.79-3.94-2.23-5.38-1.44-1.44-3.35-2.23-5.38-2.23h-3.93c-2.03,0-3.94,.79-5.38,2.23s-2.23,3.35-2.23,5.38v17.01c0,.98,.38,1.91,1.08,2.6s1.62,1.08,2.6,1.08h11.78c.97,0,1.92-.39,2.6-1.08s1.08-1.62,1.08-2.6v-10.72h1.56c.42,0,.81,.16,1.1,.46s.46,.69,.46,1.1v5.23c0,1.31,.7,2.53,1.84,3.18Zm-7.07,.74c0,.42-.16,.81-.46,1.1-.29,.29-.69,.46-1.1,.46h-11.78c-.42,0-.81-.16-1.1-.46s-.46-.69-.46-1.1v-17.01c0-1.47,.57-2.84,1.61-3.88,1.04-1.04,2.41-1.61,3.88-1.61h3.93c1.47,0,2.84,.57,3.88,1.61s1.61,2.41,1.61,3.88v17.01Z"/></g></g><path d="M106.34,104.32c0,4.87,3.96,8.82,8.82,8.82s8.83-3.96,8.83-8.82-3.96-8.83-8.83-8.83c-.34,0-.7,.02-1.12,.08l-.15,.02,.04,.14,2.28,8.29c.08,.28,.04,.58-.1,.83s-.38,.44-.66,.52c-.09,.03-.19,.04-.29,.04-.49,0-.93-.33-1.06-.81l-2.32-8.44-.14,.06c-3.22,1.41-5.3,4.58-5.3,8.09Zm-24.87-8.36c-.07-.02-1.82-.46-2.79-.46-4.87,0-8.83,3.96-8.83,8.82s3.96,8.82,8.83,8.82c4.36,0,8.11-3.26,8.73-7.58l.02-.15h-8.75c-.38,0-.74-.2-.93-.52-.2-.32-.22-.73-.05-1.07l3.93-7.83-.16-.04Zm2.11,1.04l-3.13,6.23h6.97l-.02-.15c-.34-2.41-1.69-4.6-3.7-6l-.12-.09Zm12.58,5.51l.12-.13,12-12.74h-19.66l7.55,12.87Zm-2.12,.72l-7.32-12.49-2.15,4.29,.1,.06c2.79,1.82,4.59,4.74,4.96,8.02v.13h.13s4.29-.01,4.29-.01Zm-4.42,2.31c-.62,5.59-5.32,9.81-10.95,9.81-6.08,0-11.02-4.94-11.02-11.02,0-6.08,4.94-11.02,11.02-11.02h.13c1.25,.02,2.49,.25,3.69,.7l.11,.04,.05-.11,2.95-5.9v-5.64h-1.62c-.6,0-1.1-.49-1.1-1.1s.49-1.1,1.1-1.1h7.06c.6,0,1.1,.49,1.1,1.1s-.49,1.1-1.1,1.1h-3.25v5.04h21.58l-1.72-6.26h-4.03c-.6,0-1.1-.49-1.1-1.1s.49-1.1,1.1-1.1h4.86c.49,0,.93,.33,1.06,.81l3.77,13.68,.12-.02c.64-.1,1.21-.15,1.74-.15,6.08,0,11.02,4.94,11.02,11.02s-4.94,11.02-11.02,11.02-11.02-4.94-11.02-11.02c0-4.53,2.73-8.54,6.94-10.23l.11-.04-.03-.11-.89-3.23-.16,.17-13.36,14.19s-.03,.02-.05,.04c-.03,.02-.05,.03-.07,.05-.02,.02-.04,.04-.06,.06-.02,.02-.04,.04-.05,.05-.01,0-.02,.01-.03,.01-.02,0-.03,.01-.05,.02-.03,.02-.06,.03-.09,.04-.14,.05-.27,.08-.39,.08h-6.32v.12Z"/><polygon class="e" points="50.63 85.24 42.38 85.24 41.44 86.92 59.81 86.92 58.88 85.24 50.63 85.24"/><rect class="e" x="49.51" y="33.1" width="2.24" height="2.8"/><path class="c" d="M39.41,72.34c-.93,0-1.68,.75-1.68,1.68s.75,1.68,1.68,1.68,1.68-.75,1.68-1.68-.75-1.68-1.68-1.68Z"/><path class="c" d="M61.84,72.34c-.93,0-1.68,.75-1.68,1.68s.75,1.68,1.68,1.68,1.68-.75,1.68-1.68-.75-1.68-1.68-1.68Z"/><polygon class="e" points="56.69 81.31 44.56 81.31 43.62 83 57.63 83 56.69 81.31"/><path class="c" d="M34.93,65.42s.09,.03,.14,.05c.57,.19,1.47,.46,2.76,.73,2.42,.51,6.19,1.03,11.68,1.09v-20.18h-14.58v18.31Z"/><path class="c" d="M65.77,38.14h-30.28c-1.86,0-3.36,1.51-3.36,3.36v35.32c0,1.24,1,2.24,2.24,2.24h32.52c1.24,0,2.24-1,2.24-2.24V41.51c0-1.86-1.51-3.36-3.36-3.36Zm-19.62,2.24h8.97c.62,0,1.12,.5,1.12,1.12s-.5,1.12-1.12,1.12h-8.97c-.62,0-1.12-.5-1.12-1.12s.5-1.12,1.12-1.12Zm-6.73,37.56c-2.17,0-3.92-1.76-3.92-3.92s1.76-3.92,3.92-3.92,3.92,1.76,3.92,3.92-1.76,3.92-3.92,3.92Zm22.43,0c-2.17,0-3.92-1.76-3.92-3.92s1.76-3.92,3.92-3.92,3.92,1.76,3.92,3.92-1.76,3.92-3.92,3.92Zm-2.8-10.09c0-.62,.5-1.12,1.12-1.12s1.12,.5,1.12,1.12-.5,1.12-1.12,1.12-1.12-.5-1.12-1.12Zm9.53-21.87v20.18c0,.42-.24,.81-.62,1l-.34-.67q.34,.67,.34,.67h0s0,0,0,0h0s-.02,.01-.02,.01h-.01s-.04,.02-.04,.02c-.04,.02-.1,.04-.17,.07-.14,.06-.35,.14-.63,.24-.56,.2-1.39,.46-2.54,.72-.6,.14-1.21-.24-1.35-.84-.14-.6,.24-1.21,.84-1.34,1.07-.25,1.82-.48,2.29-.65h0v-18.31h-14.58v20.18c1.62-.02,3.08-.08,4.41-.16,.62-.04,1.15,.43,1.19,1.05,.04,.62-.43,1.15-1.05,1.19-1.68,.11-3.57,.17-5.68,.17-6.23,0-10.52-.57-13.27-1.15-1.37-.29-2.37-.58-3.02-.81-.33-.11-.58-.21-.75-.28-.09-.04-.15-.06-.2-.09-.02-.01-.04-.02-.06-.03h-.02s0-.01,0-.01h0s0,0,.33-.67l-.34,.67c-.38-.19-.62-.58-.62-1v-20.18c0-.62,.5-1.12,1.12-1.12h33.64c.62,0,1.12,.5,1.12,1.12Z"/><path class="i" d="M47.26,34.66c.74-.45,1.56-.74,2.41-.88v2.72h-11.77c-3.1,0-5.61,2.51-5.61,5.61v1.12h-2.8c-.62,0-1.12,.5-1.12,1.12v7.85c0,.62,.5,1.12,1.12,1.12s1.12-.5,1.12-1.12v-6.73h1.68v31.96c0,2.48,2.01,4.49,4.49,4.49h7.63l-1.25,2.26-1.71,3.08-.47,.84-1.25,2.24c-.3,.54-.11,1.22,.44,1.52,.54,.3,1.22,.11,1.53-.44l.93-1.67h20.86l.93,1.67c.3,.54,.98,.74,1.53,.44s.74-.98,.44-1.52l-1.25-2.24-.47-.84-1.71-3.08-1.25-2.26h7.63c2.48,0,4.49-2.01,4.49-4.49v-31.96h1.68v6.73c0,.62,.5,1.12,1.12,1.12s1.12-.5,1.12-1.12v-7.85c0-.62-.5-1.12-1.12-1.12h-2.8v-1.12c0-3.1-2.51-5.61-5.61-5.61h-11.77v-2.72c.85,.13,1.67,.43,2.41,.88l.94,.56c.53,.32,1.22,.15,1.54-.38,.32-.53,.15-1.22-.38-1.54l-.94-.56c-1.39-.84-2.99-1.28-4.62-1.28h-4.62c-1.63,0-3.22,.44-4.62,1.28l-.94,.56c-.53,.32-.7,1.01-.38,1.54,.32,.53,1.01,.7,1.54,.38l.94-.56Z"/><rect class="e" x="51.91" y="33.7" width="2.24" height="2.8"/><polygon class="f" points="46.03 83.6 46.96 81.92 59.1 81.92 60.03 83.6 46.03 83.6"/><polygon class="f" points="53.03 85.84 61.28 85.84 62.21 87.52 43.85 87.52 44.78 85.84 53.03 85.84"/><path class="f" d="M34.53,42.11c0-1.86,1.51-3.36,3.36-3.36h30.28c1.86,0,3.36,1.51,3.36,3.36v35.32c0,1.24-1,2.24-2.24,2.24H36.77c-1.24,0-2.24-1-2.24-2.24V42.11Z"/><path class="i" d="M36.21,45.47c-.62,0-1.12,.5-1.12,1.12v20.18c0,.42,.24,.81,.62,1l.5-1q-.5,1-.5,1h0s0,0,0,0h.02s.03,.02,.06,.04c.05,.02,.11,.05,.2,.09,.17,.07,.42,.17,.75,.28,.66,.23,1.65,.52,3.02,.81,2.75,.58,7.03,1.15,13.27,1.15,2.11,0,4-.06,5.68-.17,.62-.04,1.09-.57,1.05-1.19-.04-.62-.57-1.09-1.19-1.05-1.33,.09-2.8,.14-4.41,.16v-20.18h14.58v18.31h0c-.47,.17-1.22,.4-2.29,.65-.6,.14-.98,.74-.84,1.34,.14,.6,.74,.98,1.34,.84,1.15-.26,1.98-.52,2.54-.72,.28-.1,.49-.18,.63-.24,.07-.03,.13-.06,.17-.07l.04-.02h.01s.02-.01,.02-.01h0s0,0,0,0h0s0,0,0,0t-.5-1l.5,1c.38-.19,.62-.58,.62-1v-20.18c0-.62-.5-1.12-1.12-1.12H36.21Z"/><path class="h" d="M37.47,66.07s-.09-.03-.14-.05v-18.31h14.58v20.18c-5.49-.06-9.27-.58-11.68-1.09-1.29-.27-2.19-.54-2.76-.73h0Z"/><circle cx="41.82" cy="74.63" r="3.92"/><circle cx="64.24" cy="74.63" r="3.92"/><g><path class="c" d="M83.71,97.08l-.12-.09-3.13,6.23h6.97l-.02-.15c-.34-2.41-1.69-4.6-3.7-6Z"/><path class="c" d="M77.74,104.9c-.2-.32-.22-.73-.05-1.07l3.93-7.83-.16-.04c-.07-.02-1.82-.46-2.79-.46-4.87,0-8.83,3.96-8.83,8.82s3.96,8.83,8.83,8.83c4.36,0,8.11-3.26,8.73-7.58l.02-.15h-8.75c-.38,0-.73-.2-.93-.52Z"/><path class="e" d="M84.57,95.02l.1,.06c2.79,1.82,4.59,4.74,4.96,8.02v.13h.13s4.29-.01,4.29-.01l-7.32-12.49-2.15,4.29Z"/><path class="c" d="M115.17,95.49c-.34,0-.7,.02-1.12,.08l-.15,.02,.04,.15,2.28,8.29c.08,.28,.04,.58-.1,.83-.14,.25-.38,.44-.66,.52-.09,.03-.19,.04-.29,.04-.49,0-.93-.33-1.06-.81l-2.32-8.44-.14,.06c-3.22,1.41-5.3,4.58-5.3,8.09,0,4.87,3.96,8.83,8.83,8.83s8.83-3.96,8.83-8.83-3.96-8.83-8.83-8.83Z"/><polygon class="e" points="96.16 102.5 96.28 102.38 108.28 89.63 88.62 89.63 96.16 102.5"/></g><g><path class="c" d="M98.84,43.41h-3.93c-1.46,0-2.84,.57-3.88,1.61-1.04,1.04-1.61,2.41-1.61,3.88v17.01c0,.41,.17,.81,.46,1.1s.69,.46,1.1,.46h11.78c.41,0,.81-.17,1.1-.46,.29-.29,.46-.69,.46-1.1v-17.01c0-1.47-.57-2.84-1.61-3.88s-2.41-1.61-3.88-1.61Zm1.03,12.3l-1.31,5.23c-.06,.23-.19,.43-.38,.57-.18,.14-.42,.22-.66,.22-.09,0-.18-.01-.26-.03-.27-.07-.5-.24-.65-.49-.14-.24-.18-.53-.11-.81l.9-3.6,.08-.31h-2.57c-.32,0-.64-.15-.84-.41-.2-.26-.27-.59-.19-.92l1.31-5.23c.09-.37,.38-.66,.74-.76,.09-.03,.19-.04,.28-.04,.28,0,.54,.11,.74,.3,.27,.26,.38,.66,.28,1.02l-.9,3.6-.08,.31h2.57c.33,0,.64,.15,.84,.41,.2,.26,.27,.59,.19,.92Z"/><g><path class="g" d="M97.26,61.7c.08,.02,.17,.03,.26,.03,.24,0,.47-.08,.66-.22,.19-.14,.32-.35,.38-.57l1.31-5.23c.08-.32,.01-.65-.19-.92-.2-.26-.51-.41-.84-.41h-2.57l.08-.31,.9-3.6c.09-.37-.01-.76-.28-1.02-.2-.2-.46-.3-.74-.3-.1,0-.19,.01-.28,.04-.36,.1-.65,.39-.74,.76l-1.31,5.23c-.08,.32-.01,.66,.19,.92,.2,.26,.51,.41,.84,.41h2.57l-.08,.31-.9,3.6c-.07,.27-.03,.56,.11,.81,.14,.24,.38,.42,.65,.49Z"/><path class="g" d="M111.39,65.17c.56,.32,1.19,.49,1.84,.49s1.28-.17,1.84-.49c1.13-.65,1.84-1.87,1.84-3.18v-13.09c0-.28-.11-.55-.31-.75l-3.93-3.93c-.2-.2-.47-.31-.75-.31-.09,0-.18,.01-.27,.04-.36,.1-.65,.38-.75,.75-.1,.36,0,.76,.27,1.02l3.54,3.54,.07,.07v12.65c0,.55-.3,1.07-.78,1.35-.24,.14-.51,.21-.78,.21s-.54-.07-.78-.21c-.48-.28-.78-.79-.78-1.35v-5.24c0-.98-.38-1.9-1.08-2.6-.69-.69-1.62-1.08-2.6-1.08h-1.56v-4.18c0-2.03-.79-3.94-2.23-5.38-1.44-1.44-3.35-2.23-5.38-2.23h-3.93c-2.03,0-3.94,.79-5.38,2.23s-2.23,3.35-2.23,5.38v17.01c0,.98,.38,1.91,1.08,2.6s1.62,1.08,2.6,1.08h11.78c.97,0,1.92-.39,2.6-1.08s1.08-1.62,1.08-2.6v-10.72h1.56c.42,0,.81,.16,1.1,.46s.46,.69,.46,1.1v5.23c0,1.31,.7,2.53,1.84,3.18Zm-7.07,.74c0,.42-.16,.81-.46,1.1-.29,.29-.69,.46-1.1,.46h-11.78c-.42,0-.81-.16-1.1-.46s-.46-.69-.46-1.1v-17.01c0-1.47,.57-2.84,1.61-3.88,1.04-1.04,2.41-1.61,3.88-1.61h3.93c1.47,0,2.84,.57,3.88,1.61s1.61,2.41,1.61,3.88v17.01Z"/></g></g><path d="M106.34,104.32c0,4.87,3.96,8.82,8.82,8.82s8.83-3.96,8.83-8.82-3.96-8.83-8.83-8.83c-.34,0-.7,.02-1.12,.08l-.15,.02,.04,.14,2.28,8.29c.08,.28,.04,.58-.1,.83s-.38,.44-.66,.52c-.09,.03-.19,.04-.29,.04-.49,0-.93-.33-1.06-.81l-2.32-8.44-.14,.06c-3.22,1.41-5.3,4.58-5.3,8.09Zm-24.87-8.36c-.07-.02-1.82-.46-2.79-.46-4.87,0-8.83,3.96-8.83,8.82s3.96,8.82,8.83,8.82c4.36,0,8.11-3.26,8.73-7.58l.02-.15h-8.75c-.38,0-.74-.2-.93-.52-.2-.32-.22-.73-.05-1.07l3.93-7.83-.16-.04Zm2.11,1.04l-3.13,6.23h6.97l-.02-.15c-.34-2.41-1.69-4.6-3.7-6l-.12-.09Zm12.58,5.51l.12-.13,12-12.74h-19.66l7.55,12.87Zm-2.12,.72l-7.32-12.49-2.15,4.29,.1,.06c2.79,1.82,4.59,4.74,4.96,8.02v.13h.13s4.29-.01,4.29-.01Zm-4.42,2.31c-.62,5.59-5.32,9.81-10.95,9.81-6.08,0-11.02-4.94-11.02-11.02,0-6.08,4.94-11.02,11.02-11.02h.13c1.25,.02,2.49,.25,3.69,.7l.11,.04,.05-.11,2.95-5.9v-5.64h-1.62c-.6,0-1.1-.49-1.1-1.1s.49-1.1,1.1-1.1h7.06c.6,0,1.1,.49,1.1,1.1s-.49,1.1-1.1,1.1h-3.25v5.04h21.58l-1.72-6.26h-4.03c-.6,0-1.1-.49-1.1-1.1s.49-1.1,1.1-1.1h4.86c.49,0,.93,.33,1.06,.81l3.77,13.68,.12-.02c.64-.1,1.21-.15,1.74-.15,6.08,0,11.02,4.94,11.02,11.02s-4.94,11.02-11.02,11.02-11.02-4.94-11.02-11.02c0-4.53,2.73-8.54,6.94-10.23l.11-.04-.03-.11-.89-3.23-.16,.17-13.36,14.19s-.03,.02-.05,.04c-.03,.02-.05,.03-.07,.05-.02,.02-.04,.04-.06,.06-.02,.02-.04,.04-.05,.05-.01,0-.02,.01-.03,.01-.02,0-.03,.01-.05,.02-.03,.02-.06,.03-.09,.04-.14,.05-.27,.08-.39,.08h-6.32v.12Z"/><path class="d" d="M40.13,74.63c0-.93,.75-1.68,1.68-1.68s1.68,.75,1.68,1.68-.75,1.68-1.68,1.68-1.68-.75-1.68-1.68Z"/><path class="d" d="M64.24,72.95c-.93,0-1.68,.75-1.68,1.68s.75,1.68,1.68,1.68,1.68-.75,1.68-1.68-.75-1.68-1.68-1.68Z"/><path class="i" d="M58.56,67.73s5.61-.64,7.75-1.03l.53,2.17s-.09,.21-8.2,1.1l-.08-2.24Z"/><path class="h" d="M68.59,66.07s.09-.03,.14-.05v-18.31h-14.58v20.18c5.49-.06,9.27-.58,11.68-1.09,1.29-.27,2.19-.54,2.76-.73h0Z"/></svg>