<?xml version="1.0" encoding="UTF-8"?><svg id="a" xmlns="http://www.w3.org/2000/svg" viewBox="0 0 150 130"><defs><style>.c{fill:#f9f7ff;}.d{fill:#e1e1f5;}.e{stroke:#e1e1f5;stroke-miterlimit:10;stroke-width:.15px;}</style></defs><path class="d" d="M75,2.98C36.3,2.98,4.93,34.36,4.93,73.06c0,21.71,9.87,41.11,25.37,53.96H119.7c15.5-12.85,25.37-32.25,25.37-53.96C145.07,34.36,113.7,2.98,75,2.98"/><g><path d="M121.97,59.01c-4.06-20.83-21.68-36.65-42.87-38.47l-.8-.07-.32-.03,.23-.23,3.07-3.07c.24-.24,.37-.56,.37-.9s-.13-.66-.37-.9c-.23-.23-.55-.36-.9-.36s-.67,.13-.9,.36l-5.37,5.37c-.06,.06-.12,.13-.17,.21l-.02,.03c-.04,.08-.07,.13-.1,.18l-.03,.09v.04s-.04,.07-.05,.1c-.01,.07-.02,.13-.02,.19v.12c0,.05,0,.12,.02,.18,0,.02,.01,.04,.02,.06l.04,.14c.03,.09,.06,.14,.1,.2,.08,.13,.13,.2,.19,.25l5.37,5.37c.23,.23,.55,.36,.89,.36s.67-.13,.9-.36,.37-.56,.37-.9-.13-.66-.37-.9l-2.82-2.82-.3-.3,.42,.04,1.05,.11c19.69,2.02,36.08,16.97,39.86,36.36,.11,.59,.64,1.03,1.23,1.03,.08,0,.17,0,.25-.03,.34-.07,.62-.26,.81-.54,.19-.28,.26-.62,.19-.95Z"/><path d="M65.85,21.37c-20.76,4.41-36.28,22.3-37.74,43.51l-.06,.8-.02,.32-.23-.22-3.12-3.01c-.24-.23-.56-.36-.9-.36s-.65,.14-.89,.39c-.22,.23-.35,.56-.34,.9s.14,.67,.37,.89l5.46,5.28c.06,.06,.13,.12,.21,.17l.03,.02c.08,.04,.13,.07,.19,.09l.09,.02h.04s.07,.04,.1,.04c.07,.01,.13,.01,.19,.01h.12c.05,0,.12,0,.18-.02,.02,0,.04-.01,.06-.02l.14-.05c.09-.03,.14-.07,.2-.1,.13-.08,.19-.14,.25-.2l5.28-5.46c.22-.23,.35-.56,.34-.9s-.14-.67-.37-.89-.56-.36-.9-.35-.65,.14-.89,.39l-2.77,2.87-.29,.3,.04-.42,.09-1.05c1.68-19.72,16.36-36.36,35.68-40.47,.58-.12,1.02-.66,1.01-1.25,0-.08-.01-.16-.03-.25-.07-.33-.27-.62-.55-.8-.28-.18-.62-.25-.95-.18Z"/><path d="M69.62,121.42c.34,0,.67-.13,.9-.36l5.37-5.37s.03-.04,.04-.05l.1-.12c.05-.07,.07-.12,.1-.17,.06-.13,.08-.2,.1-.27,.04-.18,.04-.35,0-.53-.02-.09-.04-.16-.07-.23v-.03c-.06-.09-.09-.14-.12-.19l-.06-.06-.03-.04s-.05-.06-.07-.08l-5.38-5.38c-.24-.24-.56-.37-.89-.37s-.66,.13-.9,.37c-.24,.24-.37,.56-.37,.9s.13,.66,.37,.89l2.82,2.82,.3,.3-.42-.04-1.05-.11c-19.69-2.02-36.08-16.97-39.86-36.36-.06-.33-.25-.62-.54-.81-.21-.14-.45-.21-.7-.21-.08,0-.17,0-.25,.02-.69,.13-1.14,.8-1,1.49,4.06,20.83,21.69,36.66,42.87,38.47l.8,.07,.32,.03-.23,.23-3.07,3.07c-.24,.24-.37,.56-.37,.9s.13,.66,.37,.9c.23,.23,.55,.36,.89,.36Z"/><line class="e" x1="83.96" y1="115.73" x2="83.95" y2="115.73"/><path class="e" d="M83.96,115.73h0"/><path d="M127.86,72.69l-5.38-5.38s-.04-.03-.06-.05l-.13-.1c-.06-.04-.11-.06-.16-.09-.14-.07-.2-.08-.27-.1-.11-.02-.21-.04-.3-.04-.08,0-.16,0-.24,.02l-.08,.03h-.05c-.05,.03-.08,.03-.1,.04-.03,.01-.06,.03-.09,.05l-.11,.06c-.09,.06-.16,.11-.22,.17l-5.37,5.37c-.24,.24-.37,.56-.37,.9s.13,.66,.37,.9c.24,.24,.56,.37,.9,.37s.66-.13,.89-.37l2.82-2.82,.3-.3-.04,.42-.11,1.05c-2.02,19.69-16.97,36.08-36.36,39.86-.33,.06-.62,.25-.81,.54-.19,.28-.26,.62-.19,.95,.12,.61,.62,1.03,1.22,1.03,.09,0,.17,0,.26-.03,20.84-4.06,36.66-21.69,38.47-42.87l.07-.8,.03-.32,.23,.23,3.07,3.07c.23,.23,.55,.36,.9,.36s.67-.13,.89-.36c.24-.24,.37-.55,.37-.89,0-.35-.13-.66-.37-.9Z"/></g><g><path class="c" d="M75.47,84.27l-3.1-1.28c-.49-.2-.78-.73-.68-1.25,.27-1.52,.27-3.06,0-4.58-.09-.52,.19-1.05,.68-1.25l3.11-1.29c.46-.19,.67-.69,.48-1.16l-.77-1.87c-.09-.22-.26-.4-.48-.48-.21-.09-.46-.09-.68,0l-3.1,1.29c-.49,.2-1.06,.04-1.37-.4-.88-1.26-1.97-2.35-3.24-3.23-.43-.3-.6-.88-.4-1.37l1.29-3.11c.19-.47-.01-.96-.48-1.16l-1.86-.77c-.36-.13-.85-.16-1.17,.48l-1.28,3.1c-.21,.5-.71,.78-1.25,.68-1.52-.27-3.06-.27-4.57,0-.53,.09-1.04-.19-1.25-.68l-1.29-3.1c-.09-.22-.26-.4-.48-.48-.22-.09-.46-.09-.68,0l-1.82,.76c-.31,.13-.78,.46-.52,1.18l1.28,3.1c.2,.49,.04,1.06-.4,1.37-1.26,.88-2.35,1.97-3.23,3.24-.3,.43-.88,.6-1.37,.4l-3.11-1.28c-.22-.09-.46-.1-.68,0-.21,.09-.38,.26-.48,.48l-.77,1.87c-.19,.47,.01,.96,.48,1.16l3.11,1.28c.49,.2,.78,.73,.68,1.25-.27,1.52-.27,3.06,0,4.58,.09,.53-.18,1.04-.68,1.25l-3.11,1.29c-.47,.19-.67,.69-.48,1.16l.77,1.87c.19,.47,.69,.67,1.16,.48l3.1-1.29c.14-.06,.29-.09,.43-.09,.36,0,.72,.17,.94,.49,.88,1.26,1.97,2.35,3.23,3.23,.44,.31,.61,.87,.4,1.37l-1.29,3.11c-.19,.47,.01,.96,.48,1.16l1.87,.77c.47,.19,.96-.01,1.16-.48l1.28-3.11c.21-.5,.73-.78,1.25-.68,1.52,.27,3.06,.27,4.57,0,.53-.09,1.04,.19,1.25,.68l1.29,3.1c.09,.22,.26,.4,.48,.49,.21,.09,.46,.09,.68,0l1.87-.77c.22-.09,.4-.26,.49-.48s.09-.46,0-.68l-1.29-3.11c-.2-.49-.03-1.06,.4-1.36,1.26-.88,2.35-1.97,3.23-3.24,.3-.43,.88-.6,1.37-.4l3.11,1.29c.22,.09,.46,.09,.68,0,.21-.09,.38-.26,.48-.48l.77-1.87c.09-.22,.09-.46,0-.68-.09-.21-.26-.38-.49-.48Zm-8.08-1.29c-.94,2.28-2.71,4.05-4.98,4.99-1.13,.47-2.33,.71-3.52,.71s-2.39-.24-3.53-.71c-2.28-.94-4.05-2.71-4.99-4.98-1.95-4.7,.29-10.1,4.99-12.05l.08-.03h0c4.78-1.89,9.91,.25,11.96,5.02,.94,2.27,.94,4.78,0,7.05Z"/><path class="c" d="M107.72,61.13l-3.1-1.29c-.5-.21-.78-.72-.68-1.25,.27-1.52,.27-3.06,0-4.58-.09-.53,.19-1.04,.68-1.25l3.11-1.29c.22-.09,.4-.26,.48-.48,.09-.21,.09-.46,0-.68l-.77-1.87c-.09-.22-.26-.4-.48-.49-.21-.09-.46-.09-.68,0l-3.1,1.29c-.48,.2-1.06,.04-1.37-.4-.88-1.26-1.97-2.35-3.24-3.23-.43-.3-.6-.88-.4-1.37l1.29-3.11c.19-.47-.01-.96-.48-1.16l-1.86-.77c-.36-.13-.85-.15-1.16,.48l-1.28,3.1c-.2,.49-.72,.78-1.25,.68-1.52-.27-3.06-.27-4.58,0-.53,.09-1.04-.19-1.25-.68l-1.29-3.1c-.2-.47-.69-.68-1.16-.48l-1.82,.76c-.31,.13-.78,.46-.52,1.18l1.29,3.1c.2,.49,.04,1.06-.4,1.37-1.26,.88-2.35,1.97-3.23,3.24-.3,.43-.88,.6-1.37,.4l-3.11-1.28c-.46-.19-.96,.01-1.16,.48l-.77,1.87c-.19,.46,.02,.97,.48,1.16l3.11,1.29c.49,.2,.78,.73,.68,1.25-.27,1.52-.27,3.06,0,4.58,.09,.53-.19,1.04-.68,1.25l-3.11,1.29c-.46,.19-.67,.69-.48,1.16l.77,1.87c.09,.22,.26,.4,.48,.49,.22,.09,.46,.08,.68,0l3.1-1.29c.14-.06,.29-.09,.43-.09,.36,0,.72,.17,.94,.49,.88,1.27,1.97,2.35,3.24,3.23,.44,.31,.61,.87,.4,1.37l-1.29,3.11c-.09,.22-.09,.46,0,.68,.09,.22,.26,.39,.49,.48l1.87,.77c.22,.09,.46,.09,.68,0,.21-.09,.38-.26,.48-.48l1.28-3.11c.2-.49,.73-.77,1.25-.68,1.52,.27,3.06,.27,4.57,0,.53-.09,1.04,.19,1.25,.68l1.29,3.1c.19,.46,.69,.67,1.16,.48l1.87-.77c.22-.09,.4-.26,.48-.48,.09-.21,.09-.46,0-.68l-1.29-3.11c-.21-.5-.04-1.06,.4-1.36,1.26-.88,2.35-1.97,3.23-3.24,.3-.43,.87-.6,1.37-.4l3.11,1.29c.47,.19,.96-.01,1.16-.48l.77-1.87c.19-.47-.01-.96-.48-1.16Zm-13.06,3.7c-1.13,.47-2.33,.71-3.52,.71s-2.39-.24-3.53-.71c-2.28-.94-4.05-2.71-4.99-4.98-.94-2.27-.94-4.77,0-7.05,.94-2.28,2.71-4.05,4.98-4.99h0c4.8-1.95,9.98,.19,12.04,4.98,1.95,4.7-.29,10.1-4.98,12.04Z"/></g><g><path d="M67.39,75.92c-2.05-4.77-7.18-6.91-11.96-5.01h0s-.08,.03-.08,.03c-4.7,1.95-6.93,7.35-4.99,12.05,.94,2.27,2.71,4.04,4.99,4.98,1.14,.47,2.34,.71,3.53,.71s2.39-.23,3.52-.71c2.27-.94,4.04-2.71,4.98-4.99,.94-2.28,.94-4.78,0-7.05Zm-2.09,6.19c-.71,1.71-2.04,3.04-3.76,3.76-3.54,1.47-7.61-.22-9.08-3.75-1.47-3.54,.22-7.61,3.76-9.08,.83-.37,1.71-.55,2.61-.55s1.83,.19,2.72,.56c1.75,.74,3.15,2.14,3.75,3.74h0c.71,1.72,.72,3.61,0,5.32Z"/><path d="M76.34,82.18l-2.41-1c.13-1.14,.13-2.3,0-3.45l2.41-1c1.61-.67,2.37-2.52,1.71-4.12l-.77-1.87c-.67-1.61-2.52-2.38-4.12-1.71l-2.41,1c-.72-.91-1.54-1.73-2.44-2.44l1-2.41c.67-1.61-.1-3.46-1.71-4.12l-1.87-.77c-.84-.34-1.75-.31-2.57,.07-.75,.35-1.32,.95-1.56,1.65l-.99,2.41c-1.15-.13-2.31-.13-3.45,0l-1-2.41c-.32-.77-.93-1.38-1.71-1.7-.78-.32-1.64-.32-2.41,0l-1.86,.77c-.8,.33-1.42,.94-1.73,1.73-.32,.79-.31,1.66,.01,2.4l1,2.41c-.9,.72-1.72,1.54-2.44,2.44l-2.41-1c-.77-.32-1.63-.32-2.41,0-.78,.32-1.39,.93-1.71,1.7l-.77,1.87c-.66,1.61,.1,3.46,1.71,4.12l2.41,1c-.13,1.15-.13,2.31,0,3.46l-2.41,1c-.77,.32-1.38,.93-1.7,1.71-.32,.78-.33,1.64,0,2.41l.77,1.87c.32,.77,.93,1.38,1.71,1.7,.78,.32,1.64,.33,2.41,0l2.41-1c.72,.9,1.54,1.72,2.44,2.44l-1,2.41c-.32,.77-.32,1.63,0,2.41,.32,.78,.93,1.39,1.7,1.71l1.87,.77c.39,.16,.8,.24,1.2,.24,1.24,0,2.42-.74,2.92-1.95l1-2.41c1.15,.13,2.31,.13,3.45,0l1,2.41c.32,.77,.93,1.38,1.71,1.7s1.64,.33,2.41,0l1.87-.78c.77-.32,1.38-.93,1.7-1.71,.32-.78,.33-1.64,0-2.41l-1-2.41c.9-.72,1.72-1.54,2.44-2.44l2.41,1c1.61,.67,3.46-.1,4.12-1.71l.77-1.87c.32-.77,.32-1.63,0-2.41-.32-.78-.93-1.39-1.7-1.71Zm-10.42,9.32l1.29,3.11c.09,.22,.09,.46,0,.68s-.26,.38-.49,.48l-1.87,.77c-.22,.09-.46,.1-.68,0-.21-.09-.38-.26-.48-.49l-1.29-3.1c-.21-.5-.72-.77-1.25-.68-1.51,.27-3.05,.27-4.57,0-.52-.09-1.04,.19-1.25,.68l-1.28,3.11c-.19,.46-.69,.67-1.16,.48l-1.87-.77c-.47-.19-.67-.69-.48-1.16l1.29-3.11c.21-.5,.04-1.06-.4-1.37-1.26-.88-2.35-1.97-3.23-3.23-.22-.31-.57-.49-.94-.49-.15,0-.29,.03-.43,.09l-3.1,1.29c-.47,.19-.96-.01-1.16-.48l-.77-1.87c-.19-.47,.01-.96,.48-1.16l3.11-1.29c.5-.21,.78-.72,.68-1.25-.27-1.52-.27-3.05,0-4.58,.09-.52-.2-1.05-.68-1.25l-3.11-1.28c-.47-.19-.67-.69-.48-1.16l.77-1.87c.09-.22,.26-.4,.48-.48,.22-.09,.46-.09,.68,0l3.11,1.28c.49,.2,1.06,.04,1.37-.4,.88-1.27,1.97-2.35,3.23-3.24,.43-.3,.6-.88,.4-1.37l-1.28-3.1c-.26-.72,.21-1.05,.52-1.18l1.82-.76c.22-.09,.46-.1,.68,0,.21,.09,.38,.26,.48,.48l1.29,3.1c.21,.5,.72,.78,1.25,.68,1.52-.27,3.06-.27,4.57,0,.54,.1,1.04-.19,1.25-.68l1.28-3.1c.31-.64,.81-.62,1.17-.48l1.86,.77c.47,.19,.67,.69,.48,1.16l-1.29,3.11c-.2,.49-.04,1.06,.4,1.37,1.27,.88,2.35,1.97,3.24,3.23,.3,.44,.88,.6,1.37,.4l3.1-1.29c.22-.09,.47-.1,.68,0,.21,.09,.38,.26,.48,.48l.77,1.87c.19,.47-.01,.96-.48,1.16l-3.11,1.29c-.49,.2-.78,.73-.68,1.25,.27,1.52,.27,3.06,0,4.58-.09,.52,.19,1.05,.68,1.25l3.1,1.28c.22,.09,.4,.26,.49,.48,.09,.21,.09,.46,0,.68l-.77,1.87c-.09,.22-.26,.4-.48,.48-.22,.09-.46,.09-.68,0l-3.11-1.29c-.49-.2-1.06-.03-1.37,.4-.88,1.27-1.97,2.35-3.23,3.24-.43,.3-.6,.88-.4,1.36Z"/><path d="M99.64,52.78c-2.06-4.79-7.24-6.93-12.04-4.98h0c-2.27,.94-4.04,2.71-4.98,4.99-.94,2.28-.94,4.78,0,7.05,.94,2.27,2.71,4.04,4.99,4.98,1.14,.47,2.34,.71,3.53,.71s2.39-.23,3.52-.71c4.69-1.95,6.93-7.35,4.98-12.04Zm-2.09,6.19c-.71,1.71-2.04,3.04-3.76,3.76-3.54,1.46-7.61-.22-9.08-3.76-1.47-3.54,.22-7.61,3.76-9.08,.83-.37,1.71-.55,2.61-.55s1.83,.19,2.72,.56c1.75,.74,3.15,2.14,3.75,3.74h0c.71,1.72,.72,3.61,0,5.32Z"/><path d="M110.29,60.74c-.32-.78-.93-1.39-1.7-1.71l-2.41-1c.13-1.14,.13-2.31,0-3.45l2.41-1c.77-.32,1.38-.93,1.7-1.71s.33-1.64,0-2.41l-.77-1.87c-.32-.77-.93-1.38-1.71-1.7-.78-.33-1.64-.33-2.41,0l-2.41,1c-.72-.91-1.54-1.73-2.44-2.44l1-2.41c.67-1.61-.1-3.46-1.71-4.12l-1.87-.77c-.84-.33-1.75-.31-2.57,.07-.75,.35-1.32,.95-1.56,1.65l-.99,2.41c-1.15-.13-2.31-.13-3.45,0l-1-2.41c-.67-1.61-2.51-2.38-4.12-1.71l-1.86,.77c-.8,.33-1.42,.94-1.73,1.73-.32,.79-.31,1.66,.01,2.4l1,2.41c-.9,.72-1.72,1.54-2.44,2.44l-2.41-1c-1.61-.67-3.46,.1-4.12,1.71l-.77,1.87c-.32,.77-.32,1.63,0,2.41,.32,.78,.93,1.39,1.7,1.71l2.41,1c-.13,1.15-.13,2.31,0,3.46l-2.41,1c-.77,.32-1.38,.93-1.7,1.71-.32,.78-.33,1.64,0,2.41l.77,1.87c.67,1.61,2.52,2.38,4.12,1.71l2.41-1c.72,.9,1.54,1.72,2.44,2.44l-1,2.41c-.67,1.61,.1,3.46,1.71,4.12l1.87,.77c.39,.16,.8,.24,1.2,.24,1.24,0,2.42-.73,2.92-1.95l1-2.41c1.15,.13,2.3,.13,3.45,0l1,2.41c.67,1.61,2.51,2.38,4.12,1.71l1.87-.78c1.61-.67,2.37-2.52,1.71-4.12l-1-2.41c.9-.72,1.72-1.54,2.44-2.44l2.41,1c.77,.32,1.63,.32,2.41,0,.78-.32,1.39-.93,1.71-1.7l.77-1.87c.32-.77,.32-1.63,0-2.41Zm-12.13,7.61l1.29,3.11c.09,.22,.1,.47,0,.68-.09,.21-.26,.38-.48,.48l-1.87,.77c-.47,.19-.96-.01-1.16-.48l-1.29-3.1c-.2-.49-.72-.78-1.25-.68-1.52,.27-3.05,.27-4.57,0-.52-.09-1.05,.19-1.25,.68l-1.28,3.11c-.09,.22-.26,.4-.48,.48-.22,.09-.46,.09-.68,0l-1.87-.77c-.22-.09-.4-.26-.49-.48-.09-.21-.09-.46,0-.68l1.29-3.11c.21-.5,.04-1.06-.4-1.37-1.26-.88-2.35-1.97-3.24-3.23-.22-.31-.57-.49-.94-.49-.14,0-.29,.03-.43,.09l-3.1,1.29c-.22,.09-.46,.09-.68,0-.21-.09-.38-.26-.48-.49l-.77-1.87c-.19-.47,.01-.96,.48-1.16l3.11-1.29c.5-.21,.78-.72,.68-1.25-.27-1.51-.27-3.05,0-4.58,.09-.52-.19-1.05-.68-1.25l-3.11-1.29c-.46-.19-.67-.7-.48-1.16l.77-1.87c.19-.47,.69-.67,1.16-.48l3.11,1.28c.49,.2,1.06,.03,1.37-.4,.88-1.27,1.97-2.36,3.23-3.24,.43-.3,.6-.88,.4-1.37l-1.29-3.1c-.26-.72,.21-1.05,.52-1.18l1.82-.76c.47-.2,.96,.01,1.16,.48l1.29,3.1c.21,.5,.71,.78,1.25,.68,1.52-.27,3.06-.28,4.58,0,.53,.09,1.05-.2,1.25-.68l1.28-3.1c.31-.64,.81-.61,1.16-.48l1.86,.77c.47,.19,.67,.69,.48,1.16l-1.29,3.11c-.2,.49-.04,1.06,.4,1.37,1.27,.88,2.35,1.97,3.24,3.23,.31,.44,.88,.6,1.37,.4l3.1-1.29c.22-.09,.46-.1,.68,0,.21,.09,.38,.26,.48,.49l.77,1.87c.09,.22,.09,.47,0,.68-.09,.21-.26,.38-.48,.48l-3.11,1.29c-.5,.21-.78,.72-.68,1.25,.27,1.52,.27,3.06,0,4.58-.09,.53,.19,1.04,.68,1.25l3.1,1.29c.47,.19,.67,.69,.48,1.16l-.77,1.87c-.19,.46-.69,.67-1.16,.48l-3.11-1.29c-.49-.2-1.06-.03-1.37,.4-.88,1.26-1.97,2.35-3.23,3.24-.44,.31-.6,.87-.4,1.36Z"/></g></svg>