<?xml version="1.0" encoding="UTF-8"?><svg xmlns="http://www.w3.org/2000/svg" viewBox="0 0 660 300.57"><defs><style>.c{fill:#fff;}.d{fill:#333;}.e,.f{fill:#c3c3eb;}.g{fill:gray;}.h{fill:#4d4d4d;}.i{mix-blend-mode:multiply;}.j{fill:none;stroke:#c3c3eb;stroke-miterlimit:10;}.k{isolation:isolate;}.f{opacity:.5;}</style></defs><g class="k"><g id="a"><rect class="c" width="660" height="300.57"/><g><circle class="f" cx="199.83" cy="130.1" r="25.42"/><g class="i"><g><path class="d" d="M70.27,124.19v-1.64l6.53-9.17h-6.55v-2.28h10.02v1.64l-6.54,9.17h6.55v2.28h-10.02Z"/><path class="d" d="M86.84,124.39c-1.01,0-1.88-.21-2.61-.62s-1.29-1-1.68-1.75c-.39-.76-.59-1.65-.59-2.69s.2-1.9,.59-2.66c.39-.76,.95-1.36,1.66-1.78,.71-.43,1.55-.64,2.51-.64,.65,0,1.25,.1,1.81,.31,.56,.21,1.05,.52,1.47,.93,.42,.41,.75,.93,.98,1.56s.35,1.35,.35,2.19v.75h-8.29v-1.69h5.73c0-.39-.08-.74-.25-1.04-.17-.3-.41-.54-.71-.71-.3-.17-.65-.26-1.04-.26s-.78,.09-1.1,.28c-.32,.19-.57,.44-.75,.76s-.27,.67-.27,1.06v1.6c0,.49,.09,.91,.27,1.26,.18,.35,.44,.63,.77,.82,.33,.19,.73,.29,1.18,.29,.3,0,.58-.04,.83-.13,.25-.08,.47-.21,.65-.38,.18-.17,.32-.38,.41-.63l2.52,.17c-.13,.61-.39,1.13-.78,1.58-.39,.45-.9,.8-1.52,1.05-.62,.25-1.33,.37-2.14,.37Z"/><path class="d" d="M95.84,111.1v13.09h-2.72v-13.09h2.72Z"/><path class="d" d="M102.49,124.39c-1.01,0-1.88-.21-2.61-.62s-1.29-1-1.68-1.75c-.39-.76-.59-1.65-.59-2.69s.2-1.9,.59-2.66c.39-.76,.95-1.36,1.66-1.78,.71-.43,1.55-.64,2.51-.64,.65,0,1.25,.1,1.81,.31,.56,.21,1.05,.52,1.47,.93,.42,.41,.75,.93,.98,1.56s.35,1.35,.35,2.19v.75h-8.29v-1.69h5.73c0-.39-.08-.74-.25-1.04-.17-.3-.41-.54-.71-.71-.3-.17-.65-.26-1.04-.26s-.78,.09-1.1,.28c-.32,.19-.57,.44-.75,.76s-.27,.67-.27,1.06v1.6c0,.49,.09,.91,.27,1.26,.18,.35,.44,.63,.77,.82,.33,.19,.73,.29,1.18,.29,.3,0,.58-.04,.83-.13,.25-.08,.47-.21,.65-.38,.18-.17,.32-.38,.41-.63l2.52,.17c-.13,.61-.39,1.13-.78,1.58-.39,.45-.9,.8-1.52,1.05-.62,.25-1.33,.37-2.14,.37Z"/><path class="d" d="M111.5,118.52v5.68h-2.72v-9.82h2.59v1.73h.12c.22-.57,.58-1.02,1.09-1.36,.51-.33,1.13-.5,1.86-.5,.68,0,1.28,.15,1.78,.45,.51,.3,.9,.72,1.18,1.28s.42,1.21,.42,1.97v6.25h-2.72v-5.77c0-.6-.15-1.07-.46-1.41-.31-.34-.74-.51-1.28-.51-.37,0-.69,.08-.97,.24-.28,.16-.5,.39-.65,.69-.16,.3-.24,.66-.24,1.08Z"/><path class="d" d="M122.77,124.38c-.63,0-1.19-.11-1.67-.33-.49-.22-.88-.55-1.16-.98-.28-.43-.43-.97-.43-1.62,0-.55,.1-1,.3-1.37,.2-.37,.47-.67,.82-.9,.34-.23,.74-.4,1.18-.51,.44-.12,.9-.2,1.39-.24,.57-.06,1.03-.12,1.38-.17,.35-.05,.6-.13,.76-.24,.16-.11,.24-.26,.24-.47v-.04c0-.4-.13-.72-.38-.94-.25-.22-.61-.33-1.08-.33-.49,0-.88,.11-1.17,.32-.29,.22-.48,.49-.58,.81l-2.52-.2c.13-.6,.38-1.11,.75-1.55,.38-.44,.86-.77,1.45-1.01,.59-.24,1.28-.36,2.07-.36,.54,0,1.07,.06,1.57,.19,.5,.13,.95,.33,1.34,.59,.39,.27,.7,.61,.92,1.03,.23,.42,.34,.92,.34,1.51v6.62h-2.58v-1.36h-.08c-.16,.31-.37,.58-.63,.81-.26,.23-.58,.41-.95,.54-.37,.13-.8,.2-1.28,.2Zm.78-1.88c.4,0,.75-.08,1.06-.24s.55-.38,.72-.65c.17-.27,.26-.58,.26-.93v-1.04c-.09,.05-.2,.11-.35,.15-.15,.04-.31,.09-.5,.12-.18,.04-.37,.07-.55,.1-.18,.03-.35,.05-.5,.07-.32,.05-.6,.12-.84,.22-.24,.1-.42,.24-.56,.41-.13,.17-.2,.39-.2,.64,0,.37,.14,.65,.41,.85,.27,.19,.61,.29,1.03,.29Zm-.29-9.39l1.36-2.91h2.52l-1.95,2.91h-1.92Z"/><path class="d" d="M138.2,124.35c-.75,0-1.42-.19-2.02-.58-.6-.39-1.08-.95-1.43-1.71s-.53-1.68-.53-2.77,.18-2.06,.54-2.81c.36-.75,.84-1.31,1.45-1.68,.6-.37,1.26-.56,1.98-.56,.55,0,1.01,.09,1.38,.28,.37,.19,.67,.42,.9,.69,.23,.27,.4,.54,.52,.81h.08v-4.92h2.72v13.09h-2.68v-1.57h-.12c-.13,.27-.31,.54-.54,.81s-.53,.49-.9,.66c-.37,.17-.82,.26-1.35,.26Zm.86-2.17c.44,0,.81-.12,1.12-.36,.3-.24,.54-.58,.7-1.01,.16-.43,.25-.94,.25-1.53s-.08-1.09-.24-1.52c-.16-.43-.4-.76-.7-1-.31-.23-.68-.35-1.12-.35s-.82,.12-1.13,.36c-.31,.24-.54,.58-.7,1.01-.16,.43-.24,.93-.24,1.5s.08,1.08,.24,1.51c.16,.44,.39,.78,.7,1.02s.68,.37,1.13,.37Z"/><path class="d" d="M150.46,124.39c-.99,0-1.85-.21-2.57-.64-.72-.42-1.28-1.02-1.67-1.78-.39-.76-.59-1.64-.59-2.65s.2-1.9,.59-2.66c.39-.76,.95-1.35,1.67-1.78,.72-.42,1.58-.64,2.57-.64s1.85,.21,2.57,.64c.72,.42,1.28,1.02,1.67,1.78,.39,.76,.59,1.65,.59,2.66s-.2,1.89-.59,2.65c-.39,.76-.95,1.35-1.67,1.78-.72,.42-1.58,.64-2.57,.64Zm.01-2.11c.45,0,.83-.13,1.13-.39s.53-.61,.69-1.06c.16-.45,.23-.96,.23-1.53s-.08-1.08-.23-1.53c-.16-.45-.38-.8-.69-1.06s-.68-.39-1.13-.39-.84,.13-1.15,.39c-.31,.26-.54,.61-.7,1.06-.16,.45-.23,.96-.23,1.53s.08,1.08,.23,1.53,.39,.8,.7,1.06c.31,.26,.69,.39,1.15,.39Z"/><path class="d" d="M159.79,118.52v5.68h-2.72v-13.09h2.65v5h.11c.22-.58,.58-1.03,1.07-1.36,.49-.33,1.11-.5,1.86-.5,.68,0,1.28,.15,1.79,.44,.51,.3,.91,.72,1.19,1.27,.28,.55,.42,1.21,.42,1.98v6.25h-2.72v-5.77c0-.61-.15-1.08-.46-1.41-.31-.34-.74-.5-1.29-.5-.37,0-.7,.08-.98,.24-.28,.16-.5,.39-.67,.69-.16,.3-.24,.66-.25,1.08Z"/><path class="d" d="M172.74,124.39c-.99,0-1.85-.21-2.57-.64-.72-.42-1.28-1.02-1.67-1.78-.39-.76-.59-1.64-.59-2.65s.2-1.9,.59-2.66c.39-.76,.95-1.35,1.67-1.78,.72-.42,1.58-.64,2.57-.64s1.85,.21,2.57,.64c.72,.42,1.28,1.02,1.67,1.78,.39,.76,.59,1.65,.59,2.66s-.2,1.89-.59,2.65c-.39,.76-.95,1.35-1.67,1.78-.72,.42-1.58,.64-2.57,.64Zm.01-2.11c.45,0,.83-.13,1.13-.39s.53-.61,.69-1.06c.16-.45,.23-.96,.23-1.53s-.08-1.08-.23-1.53c-.16-.45-.38-.8-.69-1.06s-.68-.39-1.13-.39-.84,.13-1.15,.39c-.31,.26-.54,.61-.7,1.06-.16,.45-.23,.96-.23,1.53s.08,1.08,.23,1.53,.39,.8,.7,1.06c.31,.26,.69,.39,1.15,.39Z"/><path class="d" d="M182.97,124.35c-.75,0-1.42-.19-2.02-.58-.6-.39-1.08-.95-1.43-1.71s-.53-1.68-.53-2.77,.18-2.06,.54-2.81c.36-.75,.84-1.31,1.45-1.68,.6-.37,1.26-.56,1.98-.56,.55,0,1.01,.09,1.38,.28,.37,.19,.67,.42,.9,.69,.23,.27,.4,.54,.52,.81h.08v-4.92h2.72v13.09h-2.68v-1.57h-.12c-.13,.27-.31,.54-.54,.81s-.53,.49-.9,.66c-.37,.17-.82,.26-1.35,.26Zm.86-2.17c.44,0,.81-.12,1.12-.36,.3-.24,.54-.58,.7-1.01,.16-.43,.25-.94,.25-1.53s-.08-1.09-.24-1.52c-.16-.43-.4-.76-.7-1-.31-.23-.68-.35-1.12-.35s-.82,.12-1.13,.36c-.31,.24-.54,.58-.7,1.01-.16,.43-.24,.93-.24,1.5s.08,1.08,.24,1.51c.16,.44,.39,.78,.7,1.02s.68,.37,1.13,.37Z"/><path class="d" d="M193.58,124.38c-.63,0-1.19-.11-1.67-.33-.49-.22-.88-.55-1.16-.98-.28-.43-.43-.97-.43-1.62,0-.55,.1-1,.3-1.37,.2-.37,.47-.67,.82-.9,.34-.23,.74-.4,1.18-.51,.44-.12,.9-.2,1.39-.24,.57-.06,1.03-.12,1.38-.17,.35-.05,.6-.13,.76-.24,.16-.11,.24-.26,.24-.47v-.04c0-.4-.13-.72-.38-.94-.25-.22-.61-.33-1.08-.33-.49,0-.88,.11-1.17,.32-.29,.22-.48,.49-.58,.81l-2.52-.2c.13-.6,.38-1.11,.75-1.55,.38-.44,.86-.77,1.45-1.01,.59-.24,1.28-.36,2.07-.36,.54,0,1.07,.06,1.57,.19,.5,.13,.95,.33,1.34,.59,.39,.27,.7,.61,.92,1.03,.23,.42,.34,.92,.34,1.51v6.62h-2.58v-1.36h-.08c-.16,.31-.37,.58-.63,.81-.26,.23-.58,.41-.95,.54-.37,.13-.8,.2-1.28,.2Zm.78-1.88c.4,0,.75-.08,1.06-.24s.55-.38,.72-.65c.17-.27,.26-.58,.26-.93v-1.04c-.09,.05-.2,.11-.35,.15-.15,.04-.31,.09-.5,.12-.18,.04-.37,.07-.55,.1-.18,.03-.35,.05-.5,.07-.32,.05-.6,.12-.84,.22-.24,.1-.42,.24-.56,.41-.13,.17-.2,.39-.2,.64,0,.37,.14,.65,.41,.85,.27,.19,.61,.29,1.03,.29Z"/><path class="d" d="M105.64,149.48v-13.5h2.68v1.65h.12c.12-.26,.29-.53,.52-.81,.23-.28,.53-.5,.89-.69s.83-.28,1.38-.28c.72,0,1.38,.19,1.98,.56,.6,.37,1.09,.93,1.45,1.68,.36,.75,.54,1.68,.54,2.81s-.18,2.02-.53,2.77-.83,1.32-1.43,1.71c-.6,.39-1.28,.58-2.02,.58-.53,0-.98-.09-1.35-.26-.37-.17-.67-.39-.9-.66s-.41-.54-.54-.81h-.08v5.25h-2.72Zm2.67-8.59c0,.58,.08,1.09,.24,1.53,.16,.44,.4,.77,.7,1.01,.31,.24,.68,.36,1.12,.36s.82-.12,1.12-.37c.31-.25,.54-.59,.7-1.02s.24-.94,.24-1.51-.08-1.07-.24-1.5c-.16-.43-.39-.77-.7-1.01-.31-.24-.68-.36-1.13-.36s-.82,.12-1.12,.35-.54,.57-.7,1c-.16,.43-.24,.94-.24,1.52Z"/><path class="d" d="M117.02,145.79v-9.82h2.64v1.71h.1c.18-.61,.48-1.07,.9-1.38,.42-.31,.91-.47,1.46-.47,.14,0,.28,0,.44,.03,.16,.02,.3,.04,.42,.07v2.42c-.13-.04-.3-.07-.53-.1-.23-.03-.43-.04-.62-.04-.4,0-.76,.09-1.07,.26-.31,.17-.56,.41-.74,.72-.18,.31-.27,.66-.27,1.06v5.55h-2.72Z"/><path class="d" d="M128.35,145.99c-.99,0-1.85-.21-2.57-.64-.72-.42-1.28-1.02-1.67-1.78-.39-.76-.59-1.64-.59-2.65s.2-1.9,.59-2.66c.39-.76,.95-1.35,1.67-1.78,.72-.42,1.58-.64,2.57-.64s1.85,.21,2.57,.64c.72,.42,1.28,1.02,1.67,1.78,.39,.76,.59,1.65,.59,2.66s-.2,1.89-.59,2.65c-.39,.76-.95,1.35-1.67,1.78-.72,.42-1.58,.64-2.57,.64Zm.01-2.11c.45,0,.83-.13,1.13-.39s.53-.61,.69-1.06c.16-.45,.23-.96,.23-1.53s-.08-1.08-.23-1.53c-.16-.45-.38-.8-.69-1.06s-.68-.39-1.13-.39-.84,.13-1.15,.39c-.31,.26-.54,.61-.7,1.06-.16,.45-.23,.96-.23,1.53s.08,1.08,.23,1.53,.39,.8,.7,1.06c.31,.26,.69,.39,1.15,.39Z"/><path class="d" d="M139.19,145.79v-13.09h8.82v2.28h-6.05v3.12h5.6v2.28h-5.6v3.12h6.08v2.28h-8.85Z"/><path class="d" d="M159.32,135.98l-3.43,9.82h-3.07l-3.43-9.82h2.88l2.04,7.03h.1l2.03-7.03h2.88Z"/><path class="d" d="M160.71,145.79v-9.82h2.64v1.71h.1c.18-.61,.48-1.07,.9-1.38,.42-.31,.91-.47,1.46-.47,.14,0,.28,0,.44,.03,.16,.02,.3,.04,.42,.07v2.42c-.13-.04-.3-.07-.53-.1-.23-.03-.43-.04-.62-.04-.4,0-.76,.09-1.07,.26-.31,.17-.56,.41-.74,.72-.18,.31-.27,.66-.27,1.06v5.55h-2.72Z"/><path class="d" d="M172.04,145.99c-.99,0-1.85-.21-2.57-.64-.72-.42-1.28-1.02-1.67-1.78-.39-.76-.59-1.64-.59-2.65s.2-1.9,.59-2.66c.39-.76,.95-1.35,1.67-1.78,.72-.42,1.58-.64,2.57-.64s1.85,.21,2.57,.64c.72,.42,1.28,1.02,1.67,1.78,.39,.76,.59,1.65,.59,2.66s-.2,1.89-.59,2.65c-.39,.76-.95,1.35-1.67,1.78-.72,.42-1.58,.64-2.57,.64Zm.01-2.11c.45,0,.83-.13,1.13-.39s.53-.61,.69-1.06c.16-.45,.23-.96,.23-1.53s-.08-1.08-.23-1.53c-.16-.45-.38-.8-.69-1.06s-.68-.39-1.13-.39-.84,.13-1.15,.39c-.31,.26-.54,.61-.7,1.06-.16,.45-.23,.96-.23,1.53s.08,1.08,.23,1.53,.39,.8,.7,1.06c.31,.26,.69,.39,1.15,.39Z"/><path class="d" d="M178.65,149.48v-13.5h2.68v1.65h.12c.12-.26,.29-.53,.52-.81,.23-.28,.53-.5,.89-.69s.83-.28,1.38-.28c.72,0,1.38,.19,1.98,.56,.6,.37,1.09,.93,1.45,1.68,.36,.75,.54,1.68,.54,2.81s-.18,2.02-.53,2.77-.83,1.32-1.43,1.71c-.6,.39-1.28,.58-2.02,.58-.53,0-.98-.09-1.35-.26-.37-.17-.67-.39-.9-.66s-.41-.54-.54-.81h-.08v5.25h-2.72Zm2.67-8.59c0,.58,.08,1.09,.24,1.53,.16,.44,.4,.77,.7,1.01,.31,.24,.68,.36,1.12,.36s.82-.12,1.12-.37c.31-.25,.54-.59,.7-1.02s.24-.94,.24-1.51-.08-1.07-.24-1.5c-.16-.43-.39-.77-.7-1.01-.31-.24-.68-.36-1.13-.36s-.82,.12-1.12,.35-.54,.57-.7,1c-.16,.43-.24,.94-.24,1.52Z"/><path class="d" d="M196.33,141.61v-5.64h2.72v9.82h-2.61v-1.78h-.1c-.22,.58-.59,1.04-1.1,1.39-.51,.35-1.14,.52-1.88,.52-.66,0-1.23-.15-1.73-.45-.5-.3-.89-.72-1.17-1.27s-.42-1.21-.42-1.97v-6.25h2.72v5.77c0,.58,.16,1.04,.47,1.37,.31,.34,.72,.51,1.23,.51,.33,0,.63-.08,.92-.23,.29-.15,.52-.38,.69-.67,.18-.3,.26-.67,.26-1.11Z"/></g></g><g class="i"><g><path class="h" d="M11.92,162.31c-.07-.58-.34-1.02-.83-1.34-.49-.32-1.08-.48-1.78-.48-.52,0-.96,.08-1.35,.25-.38,.17-.68,.4-.9,.69-.21,.29-.32,.62-.32,1,0,.31,.08,.58,.22,.8s.34,.41,.58,.55c.24,.15,.48,.27,.74,.36s.49,.17,.71,.22l1.18,.32c.3,.08,.64,.19,1.01,.33,.37,.14,.73,.33,1.07,.57s.63,.55,.85,.92,.34,.84,.34,1.38c0,.63-.16,1.2-.49,1.71-.33,.51-.8,.91-1.43,1.21-.63,.3-1.39,.45-2.28,.45-.83,0-1.55-.13-2.16-.4-.61-.27-1.08-.64-1.43-1.12-.35-.48-.54-1.04-.59-1.68h1.45c.04,.44,.19,.8,.45,1.09s.59,.5,.99,.64c.4,.14,.83,.21,1.29,.21,.54,0,1.02-.09,1.45-.26,.43-.18,.77-.42,1.02-.74s.38-.69,.38-1.11c0-.39-.11-.7-.32-.94-.22-.24-.5-.44-.85-.59s-.73-.28-1.14-.4l-1.43-.41c-.91-.26-1.63-.63-2.16-1.12-.53-.49-.79-1.12-.79-1.9,0-.65,.18-1.22,.53-1.71,.35-.49,.83-.87,1.43-1.14,.6-.27,1.27-.41,2.01-.41s1.42,.13,2,.4c.58,.27,1.05,.63,1.39,1.09,.34,.46,.52,.99,.54,1.57h-1.36Z"/><path class="h" d="M19.37,162.31v1.14h-4.52v-1.14h4.52Zm-3.2-2.09h1.34v8.32c0,.38,.06,.66,.17,.85,.11,.19,.25,.31,.43,.38,.18,.06,.36,.09,.56,.09,.15,0,.27,0,.36-.03,.09-.02,.17-.03,.23-.04l.27,1.2c-.09,.03-.22,.07-.38,.11-.16,.04-.37,.05-.62,.05-.38,0-.75-.08-1.11-.24-.36-.16-.66-.41-.9-.74-.24-.33-.35-.75-.35-1.26v-8.68Z"/><path class="h" d="M21.39,171.03v-8.73h1.29v1.32h.09c.16-.43,.45-.78,.86-1.05,.42-.27,.89-.4,1.41-.4,.1,0,.22,0,.37,0,.15,0,.26,0,.33,.02v1.36s-.15-.03-.31-.05-.33-.04-.51-.04c-.42,0-.8,.09-1.13,.26-.33,.18-.59,.42-.78,.73-.19,.31-.29,.66-.29,1.05v5.52h-1.34Z"/><path class="h" d="M29.92,171.24c-.55,0-1.06-.1-1.51-.31-.45-.21-.81-.52-1.07-.92-.26-.4-.4-.88-.4-1.45,0-.5,.1-.91,.29-1.22,.2-.31,.46-.56,.79-.74,.33-.18,.69-.31,1.09-.4s.8-.16,1.21-.21c.53-.07,.96-.12,1.29-.16,.33-.04,.57-.1,.73-.18,.15-.09,.23-.24,.23-.45v-.05c0-.56-.15-1-.46-1.31s-.77-.47-1.38-.47-1.14,.14-1.5,.42c-.36,.28-.62,.58-.77,.9l-1.27-.46c.23-.53,.53-.94,.91-1.24,.38-.3,.8-.51,1.25-.62,.45-.12,.9-.18,1.34-.18,.28,0,.6,.03,.97,.1,.37,.07,.72,.2,1.06,.41,.34,.2,.63,.51,.85,.93,.23,.41,.34,.97,.34,1.66v5.75h-1.34v-1.18h-.07c-.09,.19-.24,.39-.46,.61s-.49,.4-.85,.55c-.35,.15-.78,.23-1.29,.23Zm.2-1.2c.53,0,.98-.1,1.34-.31s.64-.48,.83-.81c.19-.33,.28-.68,.28-1.04v-1.23c-.06,.07-.18,.13-.37,.18-.19,.06-.41,.1-.66,.14s-.49,.07-.72,.1c-.23,.03-.42,.05-.57,.07-.35,.05-.67,.12-.97,.22-.3,.1-.54,.25-.73,.45s-.28,.47-.28,.81c0,.47,.17,.82,.52,1.05,.35,.24,.79,.36,1.32,.36Z"/><path class="h" d="M40.17,162.31v1.14h-4.52v-1.14h4.52Zm-3.2-2.09h1.34v8.32c0,.38,.06,.66,.17,.85,.11,.19,.25,.31,.43,.38,.18,.06,.36,.09,.56,.09,.15,0,.27,0,.36-.03,.09-.02,.17-.03,.23-.04l.27,1.2c-.09,.03-.22,.07-.38,.11-.16,.04-.37,.05-.62,.05-.38,0-.75-.08-1.11-.24-.36-.16-.66-.41-.9-.74-.24-.33-.35-.75-.35-1.26v-8.68Z"/><path class="h" d="M45.76,171.22c-.84,0-1.57-.19-2.17-.56-.61-.37-1.08-.9-1.4-1.57-.33-.67-.49-1.46-.49-2.35s.16-1.68,.49-2.37c.33-.68,.79-1.22,1.38-1.6,.59-.38,1.28-.58,2.07-.58,.45,0,.9,.08,1.35,.23s.85,.4,1.21,.74c.36,.34,.65,.79,.87,1.34s.32,1.24,.32,2.06v.57h-6.73v-1.16h5.36c0-.49-.1-.93-.29-1.32-.2-.39-.47-.69-.83-.91-.36-.22-.78-.34-1.26-.34-.53,0-1,.13-1.38,.4-.39,.26-.69,.6-.89,1.03-.21,.42-.31,.87-.31,1.35v.77c0,.66,.11,1.22,.34,1.67,.23,.46,.55,.8,.96,1.04,.41,.24,.88,.36,1.43,.36,.35,0,.67-.05,.96-.15,.29-.1,.53-.25,.74-.46,.21-.2,.37-.46,.48-.76l1.29,.36c-.14,.44-.37,.82-.69,1.16-.32,.33-.72,.59-1.19,.77-.47,.18-1.01,.28-1.6,.28Z"/><path class="h" d="M54.94,174.49c-.65,0-1.2-.08-1.67-.25-.47-.16-.85-.38-1.16-.65-.31-.27-.55-.55-.74-.86l1.07-.75c.12,.16,.27,.34,.46,.55,.19,.21,.44,.39,.76,.54,.32,.15,.75,.23,1.28,.23,.7,0,1.29-.17,1.74-.51s.69-.88,.69-1.6v-1.77h-.11c-.1,.16-.24,.35-.42,.59-.18,.23-.44,.44-.77,.62s-.79,.27-1.36,.27c-.7,0-1.34-.17-1.89-.5-.56-.33-1-.82-1.32-1.45-.32-.64-.49-1.41-.49-2.32s.16-1.67,.47-2.34,.75-1.18,1.31-1.55c.56-.37,1.21-.55,1.94-.55,.57,0,1.02,.09,1.35,.28s.59,.4,.77,.64c.18,.24,.32,.43,.42,.58h.14v-1.39h1.29v8.98c0,.75-.17,1.36-.51,1.83-.34,.47-.79,.82-1.36,1.04s-1.2,.33-1.9,.33Zm-.05-4.79c.54,0,.99-.12,1.36-.37s.65-.6,.85-1.06,.29-1.02,.29-1.66-.09-1.18-.28-1.67c-.19-.48-.47-.86-.84-1.13-.37-.27-.83-.41-1.38-.41s-1.04,.14-1.42,.43c-.38,.29-.66,.67-.85,1.16-.19,.49-.28,1.02-.28,1.61s.1,1.14,.29,1.6c.19,.46,.47,.83,.85,1.09,.38,.26,.85,.39,1.41,.39Z"/><path class="h" d="M61.85,160.85c-.26,0-.49-.09-.67-.27-.19-.18-.28-.39-.28-.64s.09-.46,.28-.64c.19-.18,.41-.27,.67-.27s.49,.09,.67,.27c.19,.18,.28,.39,.28,.64s-.09,.46-.28,.64c-.19,.18-.41,.27-.67,.27Zm-.68,10.18v-8.73h1.34v8.73h-1.34Z"/><path class="h" d="M68.51,171.22c-.82,0-1.52-.19-2.11-.58-.59-.39-1.05-.92-1.36-1.6-.32-.68-.48-1.45-.48-2.32s.16-1.67,.49-2.35c.33-.68,.79-1.21,1.38-1.6,.59-.38,1.28-.58,2.07-.58,.61,0,1.17,.11,1.66,.34s.9,.55,1.21,.95c.31,.41,.51,.89,.58,1.43h-1.34c-.1-.4-.33-.75-.68-1.06-.35-.31-.82-.46-1.41-.46-.52,0-.98,.14-1.37,.41-.39,.27-.7,.65-.92,1.14s-.33,1.07-.33,1.72,.11,1.26,.32,1.76c.21,.5,.52,.89,.91,1.17,.39,.28,.85,.42,1.38,.42,.35,0,.67-.06,.95-.18,.28-.12,.52-.3,.72-.52,.2-.23,.34-.5,.42-.82h1.34c-.08,.52-.26,.98-.56,1.39-.3,.41-.69,.74-1.18,.98-.49,.24-1.05,.36-1.7,.36Z"/><path class="h" d="M73.89,171.03v-11.64h1.34v11.64h-1.34Zm1.25-3.18l-.02-1.66h.27l3.82-3.89h1.66l-4.07,4.11h-.11l-1.54,1.43Zm4.29,3.18l-3.41-4.32,.96-.93,4.16,5.25h-1.71Z"/><path class="h" d="M83.46,174.31c-.23,0-.43-.02-.61-.05-.18-.04-.3-.07-.37-.11l.34-1.18c.33,.08,.61,.11,.86,.09,.25-.02,.47-.13,.67-.33,.2-.2,.37-.52,.54-.96l.25-.68-3.23-8.77h1.45l2.41,6.96h.09l2.41-6.96h1.45l-3.7,10c-.17,.45-.37,.83-.62,1.12-.25,.3-.53,.52-.86,.66-.32,.14-.69,.22-1.09,.22Zm1.75-13.18l1.39-2.64h1.57l-1.77,2.64h-1.18Z"/><path class="h" d="M99.3,171.22c-.73,0-1.37-.18-1.93-.55s-.99-.89-1.31-1.57-.47-1.48-.47-2.4,.16-1.71,.47-2.39c.31-.67,.75-1.19,1.31-1.56,.56-.37,1.21-.55,1.94-.55,.57,0,1.02,.09,1.35,.28,.33,.19,.59,.4,.76,.64,.18,.24,.31,.43,.41,.58h.11v-4.3h1.34v11.64h-1.29v-1.34h-.16c-.1,.16-.24,.36-.42,.6-.18,.24-.44,.45-.78,.64s-.79,.28-1.35,.28Zm.18-1.2c.54,0,.99-.14,1.36-.42s.65-.67,.85-1.18,.29-1.08,.29-1.74-.09-1.22-.28-1.71c-.19-.49-.47-.87-.84-1.15-.37-.27-.83-.41-1.38-.41s-1.04,.15-1.42,.43c-.38,.29-.66,.68-.85,1.18s-.28,1.05-.28,1.66,.1,1.18,.29,1.69c.19,.5,.47,.91,.85,1.2,.38,.3,.85,.45,1.41,.45Z"/><path class="h" d="M109.48,171.22c-.79,0-1.48-.19-2.07-.56-.59-.38-1.06-.9-1.39-1.57-.33-.67-.5-1.46-.5-2.36s.17-1.7,.5-2.38c.33-.68,.79-1.2,1.39-1.58,.59-.38,1.28-.56,2.07-.56s1.48,.19,2.07,.56,1.05,.9,1.39,1.58c.33,.68,.5,1.47,.5,2.38s-.17,1.69-.5,2.36c-.33,.67-.79,1.2-1.39,1.57s-1.28,.56-2.07,.56Zm0-1.2c.6,0,1.09-.15,1.48-.46,.39-.31,.67-.71,.86-1.21,.19-.5,.28-1.04,.28-1.62s-.09-1.13-.28-1.63c-.19-.5-.47-.91-.86-1.22-.39-.31-.88-.47-1.48-.47s-1.09,.16-1.48,.47c-.39,.31-.67,.72-.86,1.22-.19,.5-.28,1.05-.28,1.63s.09,1.12,.28,1.62,.47,.9,.86,1.21c.39,.31,.88,.46,1.48,.46Z"/><path class="h" d="M115.48,171.03v-11.64h1.34v11.64h-1.34Zm1.25-3.18l-.02-1.66h.27l3.82-3.89h1.66l-4.07,4.11h-.11l-1.54,1.43Zm4.29,3.18l-3.41-4.32,.96-.93,4.16,5.25h-1.71Z"/><path class="h" d="M129.69,167.47v-5.16h1.34v8.73h-1.34v-1.48h-.09c-.21,.44-.52,.82-.96,1.13s-.98,.46-1.64,.46c-.55,0-1.03-.12-1.46-.36s-.76-.6-1-1.09c-.24-.49-.36-1.1-.36-1.84v-5.55h1.34v5.46c0,.64,.18,1.14,.54,1.52,.36,.38,.82,.57,1.37,.57,.33,0,.67-.08,1.02-.26s.64-.43,.88-.78,.36-.8,.36-1.35Z"/><path class="h" d="M133.48,171.03v-8.73h1.29v1.36h.11c.18-.47,.47-.83,.88-1.09,.41-.26,.89-.39,1.46-.39s1.06,.13,1.44,.39c.38,.26,.68,.62,.9,1.09h.09c.22-.45,.56-.81,1.01-1.08,.45-.27,.98-.4,1.61-.4,.78,0,1.42,.24,1.92,.73,.5,.49,.74,1.24,.74,2.27v5.84h-1.34v-5.84c0-.64-.18-1.1-.53-1.38s-.77-.42-1.24-.42c-.61,0-1.09,.18-1.43,.55-.34,.37-.5,.84-.5,1.4v5.68h-1.36v-5.98c0-.5-.16-.9-.48-1.2-.32-.3-.74-.46-1.24-.46-.35,0-.67,.09-.97,.28-.3,.19-.54,.44-.73,.77-.18,.33-.28,.71-.28,1.13v5.45h-1.34Z"/><path class="h" d="M151.05,171.22c-.84,0-1.57-.19-2.17-.56-.61-.37-1.08-.9-1.4-1.57-.33-.67-.49-1.46-.49-2.35s.16-1.68,.49-2.37c.33-.68,.79-1.22,1.38-1.6,.59-.38,1.28-.58,2.07-.58,.45,0,.9,.08,1.35,.23s.85,.4,1.21,.74c.36,.34,.65,.79,.87,1.34s.32,1.24,.32,2.06v.57h-6.73v-1.16h5.36c0-.49-.1-.93-.29-1.32-.2-.39-.47-.69-.83-.91-.36-.22-.78-.34-1.26-.34-.53,0-1,.13-1.38,.4-.39,.26-.69,.6-.89,1.03-.21,.42-.31,.87-.31,1.35v.77c0,.66,.11,1.22,.34,1.67,.23,.46,.55,.8,.96,1.04,.41,.24,.88,.36,1.43,.36,.35,0,.67-.05,.96-.15,.29-.1,.53-.25,.74-.46,.21-.2,.37-.46,.48-.76l1.29,.36c-.14,.44-.37,.82-.69,1.16-.32,.33-.72,.59-1.19,.77-.47,.18-1.01,.28-1.6,.28Z"/><path class="h" d="M158.05,165.78v5.25h-1.34v-8.73h1.29v1.36h.11c.2-.44,.51-.8,.93-1.07,.42-.27,.95-.41,1.61-.41,.59,0,1.11,.12,1.55,.36,.44,.24,.79,.6,1.03,1.09,.25,.49,.37,1.1,.37,1.84v5.55h-1.34v-5.45c0-.69-.18-1.22-.53-1.61-.36-.38-.84-.58-1.47-.58-.43,0-.81,.09-1.15,.28-.33,.19-.6,.46-.79,.81-.19,.36-.29,.79-.29,1.3Z"/><path class="h" d="M169.87,162.31v1.14h-4.52v-1.14h4.52Zm-3.2-2.09h1.34v8.32c0,.38,.06,.66,.17,.85,.11,.19,.25,.31,.43,.38,.18,.06,.36,.09,.56,.09,.15,0,.27,0,.36-.03,.09-.02,.17-.03,.23-.04l.27,1.2c-.09,.03-.22,.07-.38,.11-.16,.04-.37,.05-.62,.05-.38,0-.75-.08-1.11-.24-.36-.16-.66-.41-.9-.74-.24-.33-.35-.75-.35-1.26v-8.68Z"/><path class="h" d="M176.39,174.31v-12h1.29v1.39h.16c.1-.15,.24-.35,.41-.58,.18-.24,.43-.45,.76-.64,.33-.19,.78-.28,1.35-.28,.74,0,1.38,.18,1.94,.55,.56,.37,1,.89,1.31,1.56,.31,.67,.47,1.47,.47,2.39s-.16,1.72-.47,2.4-.75,1.2-1.31,1.57-1.2,.55-1.93,.55c-.56,0-1.01-.09-1.35-.28s-.6-.4-.78-.64c-.18-.24-.32-.44-.42-.6h-.11v4.61h-1.34Zm1.32-7.64c0,.66,.1,1.24,.29,1.74s.48,.89,.85,1.18,.83,.42,1.36,.42,1.03-.15,1.41-.45c.38-.3,.66-.7,.85-1.2,.19-.51,.29-1.07,.29-1.69s-.09-1.17-.28-1.66-.47-.89-.85-1.18c-.38-.29-.85-.43-1.42-.43s-1,.14-1.38,.41c-.37,.27-.65,.66-.84,1.15-.19,.49-.28,1.06-.28,1.71Z"/><path class="h" d="M186.14,171.03v-8.73h1.29v1.32h.09c.16-.43,.45-.78,.86-1.05,.42-.27,.89-.4,1.41-.4,.1,0,.22,0,.37,0,.15,0,.26,0,.33,.02v1.36s-.15-.03-.31-.05-.33-.04-.51-.04c-.42,0-.8,.09-1.13,.26-.33,.18-.59,.42-.78,.73-.19,.31-.29,.66-.29,1.05v5.52h-1.34Z"/><path class="h" d="M195.37,171.22c-.79,0-1.48-.19-2.07-.56-.59-.38-1.06-.9-1.39-1.57-.33-.67-.5-1.46-.5-2.36s.17-1.7,.5-2.38c.33-.68,.79-1.2,1.39-1.58,.59-.38,1.28-.56,2.07-.56s1.48,.19,2.07,.56,1.05,.9,1.39,1.58c.33,.68,.5,1.47,.5,2.38s-.17,1.69-.5,2.36c-.33,.67-.79,1.2-1.39,1.57s-1.28,.56-2.07,.56Zm0-1.2c.6,0,1.09-.15,1.48-.46,.39-.31,.67-.71,.86-1.21,.19-.5,.28-1.04,.28-1.62s-.09-1.13-.28-1.63c-.19-.5-.47-.91-.86-1.22-.39-.31-.88-.47-1.48-.47s-1.09,.16-1.48,.47c-.39,.31-.67,.72-.86,1.22-.19,.5-.28,1.05-.28,1.63s.09,1.12,.28,1.62,.47,.9,.86,1.21c.39,.31,.88,.46,1.48,.46Z"/><path class="h" d="M10.67,184.98v5.25h-1.34v-8.73h1.29v1.36h.11c.2-.44,.51-.8,.93-1.07,.42-.27,.95-.41,1.61-.41,.59,0,1.11,.12,1.55,.36,.44,.24,.79,.6,1.03,1.09,.25,.49,.37,1.1,.37,1.84v5.55h-1.34v-5.45c0-.69-.18-1.22-.53-1.61-.36-.38-.84-.58-1.47-.58-.43,0-.81,.09-1.15,.28-.33,.19-.6,.46-.79,.81-.19,.36-.29,.79-.29,1.3Z"/><path class="h" d="M21.26,190.44c-.55,0-1.06-.1-1.51-.31-.45-.21-.81-.52-1.07-.92-.26-.4-.4-.88-.4-1.45,0-.5,.1-.91,.29-1.22,.2-.31,.46-.56,.79-.74,.33-.18,.69-.31,1.09-.4s.8-.16,1.21-.21c.53-.07,.96-.12,1.29-.16,.33-.04,.57-.1,.73-.18,.15-.09,.23-.24,.23-.45v-.05c0-.56-.15-1-.46-1.31s-.77-.47-1.38-.47-1.14,.14-1.5,.42c-.36,.28-.62,.58-.77,.9l-1.27-.46c.23-.53,.53-.94,.91-1.24,.38-.3,.8-.51,1.25-.62,.45-.12,.9-.18,1.34-.18,.28,0,.6,.03,.97,.1,.37,.07,.72,.2,1.06,.41,.34,.2,.63,.51,.85,.93,.23,.41,.34,.97,.34,1.66v5.75h-1.34v-1.18h-.07c-.09,.19-.24,.39-.46,.61s-.49,.4-.85,.55c-.35,.15-.78,.23-1.29,.23Zm.2-1.2c.53,0,.98-.1,1.34-.31s.64-.48,.83-.81c.19-.33,.28-.68,.28-1.04v-1.23c-.06,.07-.18,.13-.37,.18-.19,.06-.41,.1-.66,.14s-.49,.07-.72,.1c-.23,.03-.42,.05-.57,.07-.35,.05-.67,.12-.97,.22-.3,.1-.54,.25-.73,.45s-.28,.47-.28,.81c0,.47,.17,.82,.52,1.05,.35,.24,.79,.36,1.32,.36Z"/><path class="h" d="M27.71,193.51v-12h1.29v1.39h.16c.1-.15,.24-.35,.41-.58,.18-.24,.43-.45,.76-.64,.33-.19,.78-.28,1.35-.28,.74,0,1.38,.18,1.94,.55,.56,.37,1,.89,1.31,1.56,.31,.67,.47,1.47,.47,2.39s-.16,1.72-.47,2.4-.75,1.2-1.31,1.57-1.2,.55-1.93,.55c-.56,0-1.01-.09-1.35-.28s-.6-.4-.78-.64c-.18-.24-.32-.44-.42-.6h-.11v4.61h-1.34Zm1.32-7.64c0,.66,.1,1.24,.29,1.74s.48,.89,.85,1.18,.83,.42,1.36,.42,1.03-.15,1.41-.45c.38-.3,.66-.7,.85-1.2,.19-.51,.29-1.07,.29-1.69s-.09-1.17-.28-1.66-.47-.89-.85-1.18c-.38-.29-.85-.43-1.42-.43s-1,.14-1.38,.41c-.37,.27-.65,.66-.84,1.15-.19,.49-.28,1.06-.28,1.71Z"/><path class="h" d="M38.8,178.6v11.64h-1.34v-11.64h1.34Z"/><path class="h" d="M42.6,184.98v5.25h-1.34v-8.73h1.29v1.36h.11c.2-.44,.51-.8,.93-1.07,.42-.27,.95-.41,1.61-.41,.59,0,1.11,.12,1.55,.36,.44,.24,.79,.6,1.03,1.09,.25,.49,.37,1.1,.37,1.84v5.55h-1.34v-5.45c0-.69-.18-1.22-.53-1.61-.36-.38-.84-.58-1.47-.58-.43,0-.81,.09-1.15,.28-.33,.19-.6,.46-.79,.81-.19,.36-.29,.79-.29,1.3Z"/><path class="h" d="M54.28,190.42c-.84,0-1.57-.19-2.17-.56-.61-.37-1.08-.9-1.4-1.57-.33-.67-.49-1.46-.49-2.35s.16-1.68,.49-2.37c.33-.68,.79-1.22,1.38-1.6,.59-.38,1.28-.58,2.07-.58,.45,0,.9,.08,1.35,.23s.85,.4,1.21,.74c.36,.34,.65,.79,.87,1.34s.32,1.24,.32,2.06v.57h-6.73v-1.16h5.36c0-.49-.1-.93-.29-1.32-.2-.39-.47-.69-.83-.91-.36-.22-.78-.34-1.26-.34-.53,0-1,.13-1.38,.4-.39,.26-.69,.6-.89,1.03-.21,.42-.31,.87-.31,1.35v.77c0,.66,.11,1.22,.34,1.67,.23,.46,.55,.8,.96,1.04,.41,.24,.88,.36,1.43,.36,.35,0,.67-.05,.96-.15,.29-.1,.53-.25,.74-.46,.21-.2,.37-.46,.48-.76l1.29,.36c-.14,.44-.37,.82-.69,1.16-.32,.33-.72,.59-1.19,.77-.47,.18-1.01,.28-1.6,.28Zm-1.39-12.41l1.18,1.59,1.18-1.59h1.27v.09l-1.84,2.36h-1.23l-1.84-2.36v-.09h1.27Z"/><path class="h" d="M61.28,184.98v5.25h-1.34v-8.73h1.29v1.36h.11c.2-.44,.51-.8,.93-1.07,.42-.27,.95-.41,1.61-.41,.59,0,1.11,.12,1.55,.36,.44,.24,.79,.6,1.03,1.09,.25,.49,.37,1.1,.37,1.84v5.55h-1.34v-5.45c0-.69-.18-1.22-.53-1.61-.36-.38-.84-.58-1.47-.58-.43,0-.81,.09-1.15,.28-.33,.19-.6,.46-.79,.81-.19,.36-.29,.79-.29,1.3Z"/><path class="h" d="M69.3,190.23v-8.73h1.34v8.73h-1.34Zm.07-9.91l1.39-2.64h1.57l-1.77,2.64h-1.18Z"/><path class="h" d="M77.6,190.23v-11.64h1.34v11.64h-1.34Zm1.25-3.18l-.02-1.66h.27l3.82-3.89h1.66l-4.07,4.11h-.11l-1.54,1.43Zm4.29,3.18l-3.41-4.32,.96-.93,4.16,5.25h-1.71Z"/><path class="h" d="M87.64,178.6v11.64h-1.34v-11.64h1.34Z"/><path class="h" d="M90.78,180.05c-.26,0-.49-.09-.67-.27-.19-.18-.28-.39-.28-.64s.09-.46,.28-.64c.19-.18,.41-.27,.67-.27s.49,.09,.67,.27c.19,.18,.28,.39,.28,.64s-.09,.46-.28,.64c-.19,.18-.41,.27-.67,.27Zm-.68,10.18v-8.73h1.34v8.73h-1.34Z"/><path class="h" d="M93.89,190.23v-8.73h1.29v1.36h.11c.18-.47,.47-.83,.88-1.09,.41-.26,.89-.39,1.46-.39s1.06,.13,1.44,.39c.38,.26,.68,.62,.9,1.09h.09c.22-.45,.56-.81,1.01-1.08,.45-.27,.98-.4,1.61-.4,.78,0,1.42,.24,1.92,.73,.5,.49,.74,1.24,.74,2.27v5.84h-1.34v-5.84c0-.64-.18-1.1-.53-1.38s-.77-.42-1.24-.42c-.61,0-1.09,.18-1.43,.55-.34,.37-.5,.84-.5,1.4v5.68h-1.36v-5.98c0-.5-.16-.9-.48-1.2-.32-.3-.74-.46-1.24-.46-.35,0-.67,.09-.97,.28-.3,.19-.54,.44-.73,.77-.18,.33-.28,.71-.28,1.13v5.45h-1.34Z"/><path class="h" d="M110.37,190.44c-.55,0-1.06-.1-1.51-.31-.45-.21-.81-.52-1.07-.92-.26-.4-.4-.88-.4-1.45,0-.5,.1-.91,.29-1.22,.2-.31,.46-.56,.79-.74,.33-.18,.69-.31,1.09-.4s.8-.16,1.21-.21c.53-.07,.96-.12,1.29-.16,.33-.04,.57-.1,.73-.18,.15-.09,.23-.24,.23-.45v-.05c0-.56-.15-1-.46-1.31s-.77-.47-1.38-.47-1.14,.14-1.5,.42c-.36,.28-.62,.58-.77,.9l-1.27-.46c.23-.53,.53-.94,.91-1.24,.38-.3,.8-.51,1.25-.62,.45-.12,.9-.18,1.34-.18,.28,0,.6,.03,.97,.1,.37,.07,.72,.2,1.06,.41,.34,.2,.63,.51,.85,.93,.23,.41,.34,.97,.34,1.66v5.75h-1.34v-1.18h-.07c-.09,.19-.24,.39-.46,.61s-.49,.4-.85,.55c-.35,.15-.78,.23-1.29,.23Zm.2-1.2c.53,0,.98-.1,1.34-.31s.64-.48,.83-.81c.19-.33,.28-.68,.28-1.04v-1.23c-.06,.07-.18,.13-.37,.18-.19,.06-.41,.1-.66,.14s-.49,.07-.72,.1c-.23,.03-.42,.05-.57,.07-.35,.05-.67,.12-.97,.22-.3,.1-.54,.25-.73,.45s-.28,.47-.28,.81c0,.47,.17,.82,.52,1.05,.35,.24,.79,.36,1.32,.36Z"/><path class="h" d="M120.62,181.51v1.14h-4.52v-1.14h4.52Zm-3.2-2.09h1.34v8.32c0,.38,.06,.66,.17,.85,.11,.19,.25,.31,.43,.38,.18,.06,.36,.09,.56,.09,.15,0,.27,0,.36-.03,.09-.02,.17-.03,.23-.04l.27,1.2c-.09,.03-.22,.07-.38,.11-.16,.04-.37,.05-.62,.05-.38,0-.75-.08-1.11-.24-.36-.16-.66-.41-.9-.74-.24-.33-.35-.75-.35-1.26v-8.68Z"/><path class="h" d="M123.32,180.05c-.26,0-.49-.09-.67-.27-.19-.18-.28-.39-.28-.64s.09-.46,.28-.64c.19-.18,.41-.27,.67-.27s.49,.09,.67,.27c.19,.18,.28,.39,.28,.64s-.09,.46-.28,.64c-.19,.18-.41,.27-.67,.27Zm-.68,10.18v-8.73h1.34v8.73h-1.34Z"/><path class="h" d="M129.98,190.42c-.82,0-1.52-.19-2.11-.58-.59-.39-1.05-.92-1.36-1.6-.32-.68-.48-1.45-.48-2.32s.16-1.67,.49-2.35c.33-.68,.79-1.21,1.38-1.6,.59-.38,1.28-.58,2.07-.58,.61,0,1.17,.11,1.66,.34s.9,.55,1.21,.95c.31,.41,.51,.89,.58,1.43h-1.34c-.1-.4-.33-.75-.68-1.06-.35-.31-.82-.46-1.41-.46-.52,0-.98,.14-1.37,.41-.39,.27-.7,.65-.92,1.14s-.33,1.07-.33,1.72,.11,1.26,.32,1.76c.21,.5,.52,.89,.91,1.17,.39,.28,.85,.42,1.38,.42,.35,0,.67-.06,.95-.18,.28-.12,.52-.3,.72-.52,.2-.23,.34-.5,.42-.82h1.34c-.08,.52-.26,.98-.56,1.39-.3,.41-.69,.74-1.18,.98-.49,.24-1.05,.36-1.7,.36Z"/><path class="h" d="M135.37,190.23v-11.64h1.34v11.64h-1.34Zm1.25-3.18l-.02-1.66h.27l3.82-3.89h1.66l-4.07,4.11h-.11l-1.54,1.43Zm4.29,3.18l-3.41-4.32,.96-.93,4.16,5.25h-1.71Z"/><path class="h" d="M144.94,193.51c-.23,0-.43-.02-.61-.05-.18-.04-.3-.07-.37-.11l.34-1.18c.33,.08,.61,.11,.86,.09,.25-.02,.47-.13,.67-.33,.2-.2,.37-.52,.54-.96l.25-.68-3.23-8.77h1.45l2.41,6.96h.09l2.41-6.96h1.45l-3.7,10c-.17,.45-.37,.83-.62,1.12-.25,.3-.53,.52-.86,.66-.32,.14-.69,.22-1.09,.22Zm1.75-13.18l1.39-2.64h1.57l-1.77,2.64h-1.18Z"/><path class="h" d="M156.21,190.42c-.82,0-1.52-.19-2.11-.58-.59-.39-1.05-.92-1.36-1.6-.32-.68-.48-1.45-.48-2.32s.16-1.67,.49-2.35c.33-.68,.79-1.21,1.38-1.6,.59-.38,1.28-.58,2.07-.58,.61,0,1.17,.11,1.66,.34s.9,.55,1.21,.95c.31,.41,.51,.89,.58,1.43h-1.34c-.1-.4-.33-.75-.68-1.06-.35-.31-.82-.46-1.41-.46-.52,0-.98,.14-1.37,.41-.39,.27-.7,.65-.92,1.14s-.33,1.07-.33,1.72,.11,1.26,.32,1.76c.21,.5,.52,.89,.91,1.17,.39,.28,.85,.42,1.38,.42,.35,0,.67-.06,.95-.18,.28-.12,.52-.3,.72-.52,.2-.23,.34-.5,.42-.82h1.34c-.08,.52-.26,.98-.56,1.39-.3,.41-.69,.74-1.18,.98-.49,.24-1.05,.36-1.7,.36Z"/><path class="h" d="M162.94,184.98v5.25h-1.34v-11.64h1.34v4.27h.11c.21-.45,.51-.81,.92-1.08,.41-.27,.96-.4,1.64-.4,.59,0,1.12,.12,1.56,.36,.45,.24,.79,.6,1.04,1.08,.25,.49,.37,1.1,.37,1.85v5.55h-1.34v-5.45c0-.69-.18-1.23-.54-1.61-.36-.38-.85-.57-1.49-.57-.44,0-.83,.09-1.18,.28-.35,.19-.62,.46-.82,.81-.2,.36-.3,.79-.3,1.3Z"/><path class="h" d="M179.09,190.42c-.82,0-1.52-.19-2.11-.58-.59-.39-1.05-.92-1.36-1.6-.32-.68-.48-1.45-.48-2.32s.16-1.67,.49-2.35c.33-.68,.79-1.21,1.38-1.6,.59-.38,1.28-.58,2.07-.58,.61,0,1.17,.11,1.66,.34s.9,.55,1.21,.95c.31,.41,.51,.89,.58,1.43h-1.34c-.1-.4-.33-.75-.68-1.06-.35-.31-.82-.46-1.41-.46-.52,0-.98,.14-1.37,.41-.39,.27-.7,.65-.92,1.14s-.33,1.07-.33,1.72,.11,1.26,.32,1.76c.21,.5,.52,.89,.91,1.17,.39,.28,.85,.42,1.38,.42,.35,0,.67-.06,.95-.18,.28-.12,.52-.3,.72-.52,.2-.23,.34-.5,.42-.82h1.34c-.08,.52-.26,.98-.56,1.39-.3,.41-.69,.74-1.18,.98-.49,.24-1.05,.36-1.7,.36Z"/><path class="h" d="M184.48,190.23v-8.73h1.34v8.73h-1.34Zm.07-9.91l1.39-2.64h1.57l-1.77,2.64h-1.18Z"/><path class="h" d="M189.62,178.6v11.64h-1.34v-11.64h1.34Z"/><path class="h" d="M197.57,186.67v-5.16h1.34v8.73h-1.34v-1.48h-.09c-.21,.44-.52,.82-.96,1.13s-.98,.46-1.64,.46c-.55,0-1.03-.12-1.46-.36s-.76-.6-1-1.09c-.24-.49-.36-1.1-.36-1.84v-5.55h1.34v5.46c0,.64,.18,1.14,.54,1.52,.36,.38,.82,.57,1.37,.57,.33,0,.67-.08,1.02-.26s.64-.43,.88-.78,.36-.8,.36-1.35Zm-2.07-6.14c-.39,0-.74-.09-1.05-.26-.31-.17-.56-.4-.74-.69s-.28-.62-.28-.98,.09-.7,.28-1c.18-.3,.43-.54,.74-.73,.31-.18,.66-.27,1.05-.27s.73,.09,1.04,.27c.31,.18,.55,.42,.73,.73,.18,.3,.27,.64,.27,1s-.09,.69-.27,.98-.42,.52-.73,.69c-.31,.17-.66,.26-1.04,.26Zm0-.86c.32,0,.58-.11,.78-.33,.2-.22,.31-.47,.31-.74s-.1-.54-.31-.77c-.21-.23-.47-.34-.78-.34s-.58,.11-.78,.34-.31,.49-.31,.77,.1,.52,.31,.74,.47,.33,.78,.33Z"/></g></g><g><path class="g" d="M164.8,211.79v-.96l3.6-3.94c.42-.46,.77-.86,1.04-1.21s.48-.67,.61-.97c.13-.3,.2-.62,.2-.96,0-.38-.09-.72-.27-1-.18-.28-.43-.5-.75-.65-.32-.15-.67-.23-1.07-.23-.42,0-.78,.09-1.09,.26-.31,.17-.55,.41-.72,.72-.17,.31-.25,.67-.25,1.09h-1.26c0-.64,.15-1.2,.44-1.68,.29-.48,.7-.86,1.21-1.13s1.08-.41,1.72-.41,1.21,.14,1.7,.41c.49,.27,.88,.63,1.16,1.09,.28,.46,.42,.97,.42,1.53,0,.4-.07,.79-.22,1.17-.14,.38-.39,.81-.75,1.27s-.84,1.04-1.47,1.71l-2.45,2.62v.08h5.07v1.17h-6.88Z"/><path class="g" d="M177.43,211.94c-.8,0-1.49-.22-2.05-.66s-1-1.08-1.29-1.91c-.3-.84-.45-1.85-.45-3.03s.15-2.19,.45-3.02c.3-.84,.73-1.48,1.3-1.92,.57-.44,1.25-.66,2.04-.66s1.48,.22,2.04,.66c.57,.44,1,1.08,1.3,1.92,.3,.84,.45,1.84,.45,3.02s-.15,2.2-.45,3.03c-.3,.84-.73,1.47-1.29,1.91s-1.25,.66-2.05,.66Zm0-1.17c.8,0,1.41-.38,1.85-1.15,.44-.77,.66-1.86,.66-3.28,0-.95-.1-1.75-.3-2.41-.2-.66-.49-1.17-.86-1.52-.38-.35-.83-.52-1.35-.52-.79,0-1.4,.39-1.85,1.16-.44,.78-.67,1.87-.67,3.29,0,.94,.1,1.75,.3,2.41s.49,1.16,.86,1.51c.37,.34,.83,.52,1.36,.52Z"/><path class="g" d="M187.09,200.88v10.91h-1.32v-9.52h-.06l-2.66,1.77v-1.34l2.73-1.81h1.32Z"/><path class="g" d="M193.69,200.73c.45,0,.89,.09,1.34,.26s.86,.44,1.23,.83c.37,.39,.67,.91,.89,1.57s.33,1.5,.33,2.5-.09,1.83-.27,2.58c-.18,.75-.45,1.38-.79,1.9-.34,.51-.76,.91-1.25,1.17-.49,.27-1.04,.4-1.65,.4s-1.16-.12-1.63-.37-.87-.58-1.17-1.02c-.3-.43-.5-.94-.58-1.52h1.3c.12,.5,.35,.91,.7,1.24,.35,.32,.81,.49,1.39,.49,.84,0,1.51-.37,2-1.1,.49-.74,.73-1.77,.73-3.12h-.08c-.2,.3-.44,.56-.71,.77-.27,.22-.58,.38-.91,.5-.33,.12-.69,.18-1.06,.18-.63,0-1.2-.16-1.72-.47-.52-.31-.94-.74-1.25-1.28-.31-.55-.47-1.17-.47-1.87,0-.67,.15-1.28,.45-1.83,.3-.56,.72-1,1.27-1.33s1.19-.49,1.93-.48Zm0,1.17c-.45,0-.85,.11-1.21,.33-.36,.22-.64,.52-.85,.9-.21,.37-.31,.79-.31,1.24s.1,.87,.3,1.24c.2,.37,.48,.67,.83,.88,.35,.22,.75,.33,1.2,.33,.34,0,.65-.07,.94-.2,.29-.13,.55-.32,.76-.55,.22-.23,.39-.5,.51-.79,.12-.3,.19-.61,.19-.93,0-.43-.1-.83-.31-1.2s-.48-.67-.84-.91c-.36-.23-.76-.35-1.22-.35Z"/></g></g><g><path class="g" d="M410,122.21v-.96l3.6-3.94c.42-.46,.77-.86,1.04-1.21s.48-.67,.61-.97c.13-.3,.2-.62,.2-.96,0-.38-.09-.72-.27-1-.18-.28-.43-.5-.75-.65-.32-.15-.67-.23-1.07-.23-.42,0-.78,.09-1.09,.26-.31,.17-.55,.41-.72,.72-.17,.31-.25,.67-.25,1.09h-1.26c0-.64,.15-1.2,.44-1.68,.29-.48,.7-.86,1.21-1.13s1.08-.41,1.72-.41,1.21,.14,1.7,.41c.49,.27,.88,.63,1.16,1.09,.28,.46,.42,.97,.42,1.53,0,.4-.07,.79-.22,1.17-.14,.38-.39,.81-.75,1.27s-.84,1.04-1.47,1.71l-2.45,2.62v.08h5.07v1.17h-6.88Z"/><path class="g" d="M422.63,122.36c-.8,0-1.49-.22-2.05-.66s-1-1.08-1.29-1.91c-.3-.84-.45-1.85-.45-3.03s.15-2.19,.45-3.02c.3-.84,.73-1.48,1.3-1.92,.57-.44,1.25-.66,2.04-.66s1.48,.22,2.04,.66c.57,.44,1,1.08,1.3,1.92,.3,.84,.45,1.84,.45,3.02s-.15,2.2-.45,3.03c-.3,.84-.73,1.47-1.29,1.91s-1.25,.66-2.05,.66Zm0-1.17c.8,0,1.41-.38,1.85-1.15,.44-.77,.66-1.86,.66-3.28,0-.95-.1-1.75-.3-2.41-.2-.66-.49-1.17-.86-1.52-.38-.35-.83-.52-1.35-.52-.79,0-1.4,.39-1.85,1.16-.44,.78-.67,1.87-.67,3.29,0,.94,.1,1.75,.3,2.41s.49,1.16,.86,1.51c.37,.34,.83,.52,1.36,.52Z"/><path class="g" d="M428.45,122.21v-.96l3.6-3.94c.42-.46,.77-.86,1.04-1.21s.48-.67,.61-.97c.13-.3,.2-.62,.2-.96,0-.38-.09-.72-.27-1-.18-.28-.43-.5-.75-.65-.32-.15-.67-.23-1.07-.23-.42,0-.78,.09-1.09,.26-.31,.17-.55,.41-.72,.72-.17,.31-.25,.67-.25,1.09h-1.26c0-.64,.15-1.2,.44-1.68,.29-.48,.7-.86,1.21-1.13s1.08-.41,1.72-.41,1.21,.14,1.7,.41c.49,.27,.88,.63,1.16,1.09,.28,.46,.42,.97,.42,1.53,0,.4-.07,.79-.22,1.17-.14,.38-.39,.81-.75,1.27s-.84,1.04-1.47,1.71l-2.45,2.62v.08h5.07v1.17h-6.88Z"/><path class="g" d="M441.36,111.3v10.91h-1.32v-9.52h-.06l-2.66,1.77v-1.34l2.73-1.81h1.32Z"/></g><circle class="f" cx="412.91" cy="38.34" r="25.42"/><g class="i"><g><path class="d" d="M410.01,32.43v-13.09h8.82v2.28h-6.05v3.12h5.6v2.28h-5.6v3.12h6.08v2.28h-8.85Z"/><path class="d" d="M430.14,22.61l-3.43,9.82h-3.07l-3.43-9.82h2.88l2.04,7.03h.1l2.03-7.03h2.88Z"/><path class="d" d="M431.53,32.43v-9.82h2.64v1.71h.1c.18-.61,.48-1.07,.9-1.38,.42-.31,.91-.47,1.46-.47,.14,0,.28,0,.44,.03,.16,.02,.3,.04,.42,.07v2.42c-.13-.04-.3-.07-.53-.1-.23-.03-.43-.04-.62-.04-.4,0-.76,.09-1.07,.26-.31,.17-.56,.41-.74,.72-.18,.31-.27,.66-.27,1.06v5.55h-2.72Z"/><path class="d" d="M442.86,32.62c-.99,0-1.85-.21-2.57-.64-.72-.42-1.28-1.02-1.67-1.78-.39-.76-.59-1.64-.59-2.65s.2-1.9,.59-2.66c.39-.76,.95-1.35,1.67-1.78,.72-.42,1.58-.64,2.57-.64s1.85,.21,2.57,.64c.72,.42,1.28,1.02,1.67,1.78,.39,.76,.59,1.65,.59,2.66s-.2,1.89-.59,2.65c-.39,.76-.95,1.35-1.67,1.78-.72,.42-1.58,.64-2.57,.64Zm.01-2.11c.45,0,.83-.13,1.13-.39s.53-.61,.69-1.06c.16-.45,.23-.96,.23-1.53s-.08-1.08-.23-1.53c-.16-.45-.38-.8-.69-1.06s-.68-.39-1.13-.39-.84,.13-1.15,.39c-.31,.26-.54,.61-.7,1.06-.16,.45-.23,.96-.23,1.53s.08,1.08,.23,1.53,.39,.8,.7,1.06c.31,.26,.69,.39,1.15,.39Z"/><path class="d" d="M449.47,36.11v-13.5h2.68v1.65h.12c.12-.26,.29-.53,.52-.81,.23-.28,.53-.5,.89-.69s.83-.28,1.38-.28c.72,0,1.38,.19,1.98,.56,.6,.37,1.09,.93,1.45,1.68,.36,.75,.54,1.68,.54,2.81s-.18,2.02-.53,2.77-.83,1.32-1.43,1.71c-.6,.39-1.28,.58-2.02,.58-.53,0-.98-.09-1.35-.26-.37-.17-.67-.39-.9-.66s-.41-.54-.54-.81h-.08v5.25h-2.72Zm2.67-8.59c0,.58,.08,1.09,.24,1.53,.16,.44,.4,.77,.7,1.01,.31,.24,.68,.36,1.12,.36s.82-.12,1.12-.37c.31-.25,.54-.59,.7-1.02s.24-.94,.24-1.51-.08-1.07-.24-1.5c-.16-.43-.39-.77-.7-1.01-.31-.24-.68-.36-1.13-.36s-.82,.12-1.12,.35-.54,.57-.7,1c-.16,.43-.24,.94-.24,1.52Z"/><path class="d" d="M469.02,25.41l-2.49,.15c-.04-.21-.13-.41-.27-.58s-.33-.31-.55-.42c-.23-.1-.5-.16-.81-.16-.42,0-.78,.09-1.07,.27s-.43,.41-.43,.71c0,.23,.09,.43,.28,.59s.51,.29,.96,.39l1.78,.36c.95,.2,1.67,.51,2.13,.95s.7,1.01,.7,1.71c0,.64-.19,1.21-.57,1.69-.38,.49-.89,.86-1.55,1.13-.65,.27-1.41,.41-2.26,.41-1.3,0-2.33-.27-3.1-.81-.77-.54-1.22-1.28-1.35-2.22l2.68-.14c.08,.4,.28,.7,.59,.9,.31,.21,.71,.31,1.2,.31s.86-.09,1.15-.28,.44-.42,.44-.72c0-.25-.11-.45-.31-.61-.2-.16-.52-.28-.95-.37l-1.7-.34c-.96-.19-1.67-.52-2.14-1-.47-.47-.7-1.08-.7-1.81,0-.63,.17-1.17,.51-1.63s.83-.81,1.45-1.05c.62-.25,1.36-.37,2.2-.37,1.24,0,2.22,.26,2.93,.79,.71,.52,1.13,1.24,1.25,2.14Z"/><path class="d" d="M470.97,32.43v-13.09h2.72v13.09h-2.72Zm2.47-2.83v-3.27h.4l3.14-3.73h3.13l-4.23,4.93h-.65l-1.8,2.06Zm3.67,2.83l-2.89-4.28,1.82-1.92,4.26,6.2h-3.19Z"/><path class="d" d="M483.27,36.11c-.34,0-.67-.03-.97-.08-.3-.05-.55-.12-.75-.2l.61-2.03c.32,.1,.61,.15,.87,.16,.26,0,.48-.05,.67-.18,.19-.13,.34-.34,.46-.65l.16-.42-3.52-10.1h2.86l2.03,7.21h.1l2.05-7.21h2.88l-3.82,10.88c-.18,.53-.43,.99-.74,1.38-.31,.39-.71,.7-1.19,.91-.48,.21-1.05,.32-1.73,.32Zm1.51-14.77l1.36-2.91h2.52l-1.95,2.91h-1.92Z"/><path class="d" d="M409.96,54.03v-13.09h2.72v13.09h-2.72Zm2.47-2.83v-3.27h.4l3.14-3.73h3.13l-4.23,4.93h-.65l-1.8,2.06Zm3.67,2.83l-2.89-4.28,1.82-1.92,4.26,6.2h-3.19Z"/><path class="d" d="M423.15,40.94v13.09h-2.72v-13.09h2.72Z"/><path class="d" d="M426.69,42.95c-.4,0-.75-.13-1.04-.41-.29-.27-.43-.6-.43-.98s.14-.7,.43-.97c.29-.27,.63-.41,1.04-.41s.75,.14,1.04,.41c.29,.27,.43,.59,.43,.97s-.14,.7-.43,.98c-.29,.27-.63,.41-1.04,.41Zm-1.37,11.08v-9.82h2.72v9.82h-2.72Z"/><path class="d" d="M430.22,54.03v-9.82h2.59v1.73h.12c.2-.58,.55-1.03,1.02-1.36,.48-.33,1.05-.5,1.71-.5s1.25,.17,1.72,.5c.47,.33,.79,.79,.95,1.36h.1c.2-.56,.56-1.01,1.09-1.35s1.15-.51,1.87-.51c.92,0,1.66,.29,2.23,.87,.57,.58,.86,1.41,.86,2.47v6.6h-2.72v-6.07c0-.54-.14-.95-.43-1.23-.29-.27-.65-.41-1.09-.41-.5,0-.88,.16-1.16,.47-.28,.31-.42,.73-.42,1.24v6h-2.64v-6.12c0-.48-.14-.86-.41-1.15-.28-.29-.64-.43-1.08-.43-.3,0-.57,.08-.81,.23-.24,.15-.43,.36-.57,.63s-.21,.59-.21,.95v5.89h-2.72Z"/><path class="d" d="M449.43,54.22c-.63,0-1.19-.11-1.67-.33-.49-.22-.88-.55-1.16-.98-.28-.43-.43-.97-.43-1.62,0-.55,.1-1,.3-1.37,.2-.37,.47-.67,.82-.9,.34-.23,.74-.4,1.18-.51,.44-.12,.9-.2,1.39-.24,.57-.06,1.03-.12,1.38-.17,.35-.05,.6-.13,.76-.24,.16-.11,.24-.26,.24-.47v-.04c0-.4-.13-.72-.38-.94-.25-.22-.61-.33-1.08-.33-.49,0-.88,.11-1.17,.32-.29,.22-.48,.49-.58,.81l-2.52-.2c.13-.6,.38-1.11,.75-1.55,.38-.44,.86-.77,1.45-1.01,.59-.24,1.28-.36,2.07-.36,.54,0,1.07,.06,1.57,.19,.5,.13,.95,.33,1.34,.59,.39,.27,.7,.61,.92,1.03,.23,.42,.34,.92,.34,1.51v6.62h-2.58v-1.36h-.08c-.16,.31-.37,.58-.63,.81-.26,.23-.58,.41-.95,.54-.37,.13-.8,.2-1.28,.2Zm.78-1.88c.4,0,.75-.08,1.06-.24s.55-.38,.72-.65c.17-.27,.26-.58,.26-.93v-1.04c-.09,.05-.2,.11-.35,.15-.15,.04-.31,.09-.5,.12-.18,.04-.37,.07-.55,.1-.18,.03-.35,.05-.5,.07-.32,.05-.6,.12-.84,.22-.24,.1-.42,.24-.56,.41-.13,.17-.2,.39-.2,.64,0,.37,.14,.65,.41,.85,.27,.19,.61,.29,1.03,.29Z"/><path class="d" d="M462.3,44.21v2.05h-5.91v-2.05h5.91Zm-4.57-2.35h2.72v9.15c0,.25,.04,.45,.12,.58,.08,.14,.18,.24,.32,.29,.14,.06,.3,.08,.48,.08,.13,0,.26-.01,.38-.04s.23-.04,.29-.05l.43,2.03c-.14,.04-.33,.09-.58,.15-.25,.06-.55,.09-.9,.11-.66,.03-1.23-.06-1.72-.26s-.88-.51-1.15-.93c-.27-.42-.41-.95-.4-1.6v-9.51Z"/><path class="d" d="M465.44,42.95c-.4,0-.75-.13-1.04-.41-.29-.27-.43-.6-.43-.98s.14-.7,.43-.97c.29-.27,.63-.41,1.04-.41s.75,.14,1.04,.41c.29,.27,.43,.59,.43,.97s-.14,.7-.43,.98c-.29,.27-.63,.41-1.04,.41Zm-1.37,11.08v-9.82h2.72v9.82h-2.72Z"/><path class="d" d="M473.4,54.22c-1.01,0-1.87-.21-2.59-.64-.72-.43-1.28-1.02-1.66-1.79s-.58-1.64-.58-2.63,.2-1.89,.58-2.65,.94-1.35,1.67-1.78c.72-.43,1.58-.64,2.57-.64,.86,0,1.61,.16,2.25,.47,.64,.31,1.15,.75,1.53,1.31,.37,.56,.58,1.22,.62,1.98h-2.57c-.07-.49-.26-.89-.57-1.19-.31-.3-.71-.45-1.21-.45-.42,0-.79,.11-1.1,.34-.31,.23-.56,.56-.73,.99s-.26,.96-.26,1.58,.09,1.16,.26,1.6c.17,.44,.42,.77,.73,1s.68,.35,1.11,.35c.31,0,.59-.06,.84-.19,.25-.13,.46-.31,.62-.56,.16-.24,.27-.54,.32-.88h2.57c-.04,.75-.25,1.41-.61,1.98-.36,.57-.87,1.01-1.5,1.33-.64,.32-1.4,.48-2.27,.48Z"/><path class="d" d="M479.54,54.03v-13.09h2.72v13.09h-2.72Zm2.47-2.83v-3.27h.4l3.14-3.73h3.13l-4.23,4.93h-.65l-1.8,2.06Zm3.67,2.83l-2.89-4.28,1.82-1.92,4.26,6.2h-3.19Z"/><path class="d" d="M491.84,57.71c-.34,0-.67-.03-.97-.08-.3-.05-.55-.12-.75-.2l.61-2.03c.32,.1,.61,.15,.87,.16,.26,0,.48-.05,.67-.18,.19-.13,.34-.34,.46-.65l.16-.42-3.52-10.1h2.86l2.03,7.21h.1l2.05-7.21h2.88l-3.82,10.88c-.18,.53-.43,.99-.74,1.38-.31,.39-.71,.7-1.19,.91-.48,.21-1.05,.32-1.73,.32Zm1.51-14.77l1.36-2.91h2.52l-1.95,2.91h-1.92Z"/><path class="d" d="M504.83,54.03v-1.62l4.81-5.95v-.07h-4.64v-2.17h7.92v1.77l-4.51,5.8v.07h4.68v2.17h-8.25Z"/><path class="d" d="M517.97,54.22c-.63,0-1.19-.11-1.67-.33-.49-.22-.88-.55-1.16-.98-.28-.43-.43-.97-.43-1.62,0-.55,.1-1,.3-1.37,.2-.37,.47-.67,.82-.9,.34-.23,.74-.4,1.18-.51,.44-.12,.9-.2,1.39-.24,.57-.06,1.03-.12,1.38-.17,.35-.05,.6-.13,.76-.24,.16-.11,.24-.26,.24-.47v-.04c0-.4-.13-.72-.38-.94-.25-.22-.61-.33-1.08-.33-.49,0-.88,.11-1.17,.32-.29,.22-.48,.49-.58,.81l-2.52-.2c.13-.6,.38-1.11,.75-1.55,.38-.44,.86-.77,1.45-1.01,.59-.24,1.28-.36,2.07-.36,.54,0,1.07,.06,1.57,.19,.5,.13,.95,.33,1.34,.59,.39,.27,.7,.61,.92,1.03,.23,.42,.34,.92,.34,1.51v6.62h-2.58v-1.36h-.08c-.16,.31-.37,.58-.63,.81-.26,.23-.58,.41-.95,.54-.37,.13-.8,.2-1.28,.2Zm.78-1.88c.4,0,.75-.08,1.06-.24s.55-.38,.72-.65c.17-.27,.26-.58,.26-.93v-1.04c-.09,.05-.2,.11-.35,.15-.15,.04-.31,.09-.5,.12-.18,.04-.37,.07-.55,.1-.18,.03-.35,.05-.5,.07-.32,.05-.6,.12-.84,.22-.24,.1-.42,.24-.56,.41-.13,.17-.2,.39-.2,.64,0,.37,.14,.65,.41,.85,.27,.19,.61,.29,1.03,.29Zm-.29-9.39l1.36-2.91h2.52l-1.95,2.91h-1.92Z"/><path class="d" d="M525.62,54.03v-13.09h2.72v13.09h-2.72Zm2.47-2.83v-3.27h.4l3.14-3.73h3.13l-4.23,4.93h-.65l-1.8,2.06Zm3.67,2.83l-2.89-4.28,1.82-1.92,4.26,6.2h-3.19Z"/><path class="d" d="M540.12,54.22c-.99,0-1.85-.21-2.57-.64-.72-.42-1.28-1.02-1.67-1.78-.39-.76-.59-1.64-.59-2.65s.2-1.9,.59-2.66c.39-.76,.95-1.35,1.67-1.78,.72-.42,1.58-.64,2.57-.64s1.85,.21,2.57,.64c.72,.42,1.28,1.02,1.67,1.78,.39,.76,.59,1.65,.59,2.66s-.2,1.89-.59,2.65c-.39,.76-.95,1.35-1.67,1.78-.72,.42-1.58,.64-2.57,.64Zm.01-2.11c.45,0,.83-.13,1.13-.39s.53-.61,.69-1.06c.16-.45,.23-.96,.23-1.53s-.08-1.08-.23-1.53c-.16-.45-.38-.8-.69-1.06s-.68-.39-1.13-.39-.84,.13-1.15,.39c-.31,.26-.54,.61-.7,1.06-.16,.45-.23,.96-.23,1.53s.08,1.08,.23,1.53,.39,.8,.7,1.06c.31,.26,.69,.39,1.15,.39Z"/><path class="d" d="M549.45,48.36v5.68h-2.72v-9.82h2.59v1.73h.12c.22-.57,.58-1.02,1.09-1.36,.51-.33,1.13-.5,1.86-.5,.68,0,1.28,.15,1.78,.45,.51,.3,.9,.72,1.18,1.28s.42,1.21,.42,1.97v6.25h-2.72v-5.77c0-.6-.15-1.07-.46-1.41-.31-.34-.74-.51-1.28-.51-.37,0-.69,.08-.97,.24-.28,.16-.5,.39-.65,.69-.16,.3-.24,.66-.24,1.08Z"/></g></g><g class="i"><g><path class="d" d="M410.28,79.27v-11.64h3.93c.91,0,1.66,.16,2.24,.49,.58,.33,1.01,.77,1.29,1.33s.42,1.18,.42,1.86-.14,1.31-.42,1.87-.71,1.01-1.29,1.34c-.58,.33-1.32,.5-2.23,.5h-2.82v-1.25h2.77c.62,0,1.13-.11,1.51-.32,.38-.22,.65-.51,.83-.88,.17-.37,.26-.79,.26-1.25s-.09-.88-.26-1.25c-.17-.37-.45-.66-.83-.87-.38-.21-.89-.32-1.52-.32h-2.48v10.39h-1.41Z"/><path class="d" d="M420.26,79.27v-8.73h1.29v1.32h.09c.16-.43,.45-.78,.86-1.05,.42-.27,.89-.4,1.41-.4,.1,0,.22,0,.37,0,.15,0,.26,0,.33,.02v1.36s-.15-.03-.31-.05-.33-.04-.51-.04c-.42,0-.8,.09-1.13,.26-.33,.18-.59,.42-.78,.73-.19,.31-.29,.66-.29,1.05v5.52h-1.34Z"/><path class="d" d="M428.78,79.48c-.55,0-1.06-.1-1.51-.31-.45-.21-.81-.52-1.07-.92-.26-.4-.4-.88-.4-1.45,0-.5,.1-.91,.29-1.22,.2-.31,.46-.56,.79-.74,.33-.18,.69-.31,1.09-.4s.8-.16,1.21-.21c.53-.07,.96-.12,1.29-.16,.33-.04,.57-.1,.73-.18,.15-.09,.23-.24,.23-.45v-.05c0-.56-.15-1-.46-1.31s-.77-.47-1.38-.47-1.14,.14-1.5,.42c-.36,.28-.62,.58-.77,.9l-1.27-.46c.23-.53,.53-.94,.91-1.24,.38-.3,.8-.51,1.25-.62,.45-.12,.9-.18,1.34-.18,.28,0,.6,.03,.97,.1,.37,.07,.72,.2,1.06,.41,.34,.2,.63,.51,.85,.93,.23,.41,.34,.97,.34,1.66v5.75h-1.34v-1.18h-.07c-.09,.19-.24,.39-.46,.61s-.49,.4-.85,.55c-.35,.15-.78,.23-1.29,.23Zm.2-1.2c.53,0,.98-.1,1.34-.31s.64-.48,.83-.81c.19-.33,.28-.68,.28-1.04v-1.23c-.06,.07-.18,.13-.37,.18-.19,.06-.41,.1-.66,.14s-.49,.07-.72,.1c-.23,.03-.42,.05-.57,.07-.35,.05-.67,.12-.97,.22-.3,.1-.54,.25-.73,.45s-.28,.47-.28,.81c0,.47,.17,.82,.52,1.05,.35,.24,.79,.36,1.32,.36Zm.05-8.91l1.39-2.64h1.57l-1.77,2.64h-1.18Z"/><path class="d" d="M442.05,70.55l-3.23,8.73h-1.36l-3.23-8.73h1.45l2.41,6.96h.09l2.41-6.96h1.45Z"/><path class="d" d="M445.16,74.02v5.25h-1.34v-8.73h1.29v1.36h.11c.2-.44,.51-.8,.93-1.07,.42-.27,.95-.41,1.61-.41,.59,0,1.11,.12,1.55,.36,.44,.24,.79,.6,1.03,1.09,.25,.49,.37,1.1,.37,1.84v5.55h-1.34v-5.45c0-.69-.18-1.22-.53-1.61-.36-.38-.84-.58-1.47-.58-.43,0-.81,.09-1.15,.28-.33,.19-.6,.46-.79,.81-.19,.36-.29,.79-.29,1.3Z"/><path class="d" d="M456.85,79.45c-.84,0-1.57-.19-2.17-.56-.61-.37-1.08-.9-1.4-1.57-.33-.67-.49-1.46-.49-2.35s.16-1.68,.49-2.37c.33-.68,.79-1.22,1.38-1.6,.59-.38,1.28-.58,2.07-.58,.45,0,.9,.08,1.35,.23s.85,.4,1.21,.74c.36,.34,.65,.79,.87,1.34s.32,1.24,.32,2.06v.57h-6.73v-1.16h5.36c0-.49-.1-.93-.29-1.32-.2-.39-.47-.69-.83-.91-.36-.22-.78-.34-1.26-.34-.53,0-1,.13-1.38,.4-.39,.26-.69,.6-.89,1.03-.21,.42-.31,.87-.31,1.35v.77c0,.66,.11,1.22,.34,1.67,.23,.46,.55,.8,.96,1.04,.41,.24,.88,.36,1.43,.36,.35,0,.67-.05,.96-.15,.29-.1,.53-.25,.74-.46,.21-.2,.37-.46,.48-.76l1.29,.36c-.14,.44-.37,.82-.69,1.16-.32,.33-.72,.59-1.19,.77-.47,.18-1.01,.28-1.6,.28Zm-1.39-12.41l1.18,1.59,1.18-1.59h1.27v.09l-1.84,2.36h-1.23l-1.84-2.36v-.09h1.27Z"/><path class="d" d="M466.76,79.27v-1.02l4.95-6.36v-.09h-4.79v-1.25h6.52v1.07l-4.82,6.32v.09h4.98v1.25h-6.84Z"/><path class="d" d="M478.23,79.48c-.55,0-1.06-.1-1.51-.31-.45-.21-.81-.52-1.07-.92-.26-.4-.4-.88-.4-1.45,0-.5,.1-.91,.29-1.22,.2-.31,.46-.56,.79-.74,.33-.18,.69-.31,1.09-.4s.8-.16,1.21-.21c.53-.07,.96-.12,1.29-.16,.33-.04,.57-.1,.73-.18,.15-.09,.23-.24,.23-.45v-.05c0-.56-.15-1-.46-1.31s-.77-.47-1.38-.47-1.14,.14-1.5,.42c-.36,.28-.62,.58-.77,.9l-1.27-.46c.23-.53,.53-.94,.91-1.24,.38-.3,.8-.51,1.25-.62,.45-.12,.9-.18,1.34-.18,.28,0,.6,.03,.97,.1,.37,.07,.72,.2,1.06,.41,.34,.2,.63,.51,.85,.93,.23,.41,.34,.97,.34,1.66v5.75h-1.34v-1.18h-.07c-.09,.19-.24,.39-.46,.61s-.49,.4-.85,.55c-.35,.15-.78,.23-1.29,.23Zm.2-1.2c.53,0,.98-.1,1.34-.31s.64-.48,.83-.81c.19-.33,.28-.68,.28-1.04v-1.23c-.06,.07-.18,.13-.37,.18-.19,.06-.41,.1-.66,.14s-.49,.07-.72,.1c-.23,.03-.42,.05-.57,.07-.35,.05-.67,.12-.97,.22-.3,.1-.54,.25-.73,.45s-.28,.47-.28,.81c0,.47,.17,.82,.52,1.05,.35,.24,.79,.36,1.32,.36Z"/><path class="d" d="M491.51,70.55l-3.23,8.73h-1.36l-3.23-8.73h1.45l2.41,6.96h.09l2.41-6.96h1.45Z"/><path class="d" d="M495.57,79.48c-.55,0-1.06-.1-1.51-.31-.45-.21-.81-.52-1.07-.92-.26-.4-.4-.88-.4-1.45,0-.5,.1-.91,.29-1.22,.2-.31,.46-.56,.79-.74,.33-.18,.69-.31,1.09-.4s.8-.16,1.21-.21c.53-.07,.96-.12,1.29-.16,.33-.04,.57-.1,.73-.18,.15-.09,.23-.24,.23-.45v-.05c0-.56-.15-1-.46-1.31s-.77-.47-1.38-.47-1.14,.14-1.5,.42c-.36,.28-.62,.58-.77,.9l-1.27-.46c.23-.53,.53-.94,.91-1.24,.38-.3,.8-.51,1.25-.62,.45-.12,.9-.18,1.34-.18,.28,0,.6,.03,.97,.1,.37,.07,.72,.2,1.06,.41,.34,.2,.63,.51,.85,.93,.23,.41,.34,.97,.34,1.66v5.75h-1.34v-1.18h-.07c-.09,.19-.24,.39-.46,.61s-.49,.4-.85,.55c-.35,.15-.78,.23-1.29,.23Zm.2-1.2c.53,0,.98-.1,1.34-.31s.64-.48,.83-.81c.19-.33,.28-.68,.28-1.04v-1.23c-.06,.07-.18,.13-.37,.18-.19,.06-.41,.1-.66,.14s-.49,.07-.72,.1c-.23,.03-.42,.05-.57,.07-.35,.05-.67,.12-.97,.22-.3,.1-.54,.25-.73,.45s-.28,.47-.28,.81c0,.47,.17,.82,.52,1.05,.35,.24,.79,.36,1.32,.36Z"/><path class="d" d="M501.78,79.27v-1.02l4.95-6.36v-.09h-4.79v-1.25h6.52v1.07l-4.82,6.32v.09h4.98v1.25h-6.84Z"/><path class="d" d="M516.19,75.7v-5.16h1.34v8.73h-1.34v-1.48h-.09c-.21,.44-.52,.82-.96,1.13s-.98,.46-1.64,.46c-.55,0-1.03-.12-1.46-.36s-.76-.6-1-1.09c-.24-.49-.36-1.1-.36-1.84v-5.55h1.34v5.46c0,.64,.18,1.14,.54,1.52,.36,.38,.82,.57,1.37,.57,.33,0,.67-.08,1.02-.26s.64-.43,.88-.78,.36-.8,.36-1.35Z"/><path class="d" d="M519.98,70.55h1.34v9.36c0,.54-.09,1-.28,1.4-.18,.39-.46,.7-.83,.92s-.83,.32-1.39,.32h-.27v-1.25h.25c.41,0,.71-.12,.9-.36,.19-.24,.28-.58,.28-1.03v-9.36Zm.66-1.45c-.26,0-.49-.09-.67-.27-.19-.18-.28-.39-.28-.64s.09-.46,.28-.64c.19-.18,.41-.27,.67-.27s.49,.09,.67,.27c.19,.18,.28,.39,.28,.64s-.09,.46-.28,.64c-.19,.18-.41,.27-.67,.27Z"/><path class="d" d="M527.44,79.45c-.84,0-1.57-.19-2.17-.56-.61-.37-1.08-.9-1.4-1.57-.33-.67-.49-1.46-.49-2.35s.16-1.68,.49-2.37c.33-.68,.79-1.22,1.38-1.6,.59-.38,1.28-.58,2.07-.58,.45,0,.9,.08,1.35,.23s.85,.4,1.21,.74c.36,.34,.65,.79,.87,1.34s.32,1.24,.32,2.06v.57h-6.73v-1.16h5.36c0-.49-.1-.93-.29-1.32-.2-.39-.47-.69-.83-.91-.36-.22-.78-.34-1.26-.34-.53,0-1,.13-1.38,.4-.39,.26-.69,.6-.89,1.03-.21,.42-.31,.87-.31,1.35v.77c0,.66,.11,1.22,.34,1.67,.23,.46,.55,.8,.96,1.04,.41,.24,.88,.36,1.43,.36,.35,0,.67-.05,.96-.15,.29-.1,.53-.25,.74-.46,.21-.2,.37-.46,.48-.76l1.29,.36c-.14,.44-.37,.82-.69,1.16-.32,.33-.72,.59-1.19,.77-.47,.18-1.01,.28-1.6,.28Z"/><path class="d" d="M537.78,79.27v-11.64h7.02v1.25h-5.61v3.93h5.25v1.25h-5.25v3.95h5.7v1.25h-7.11Z"/><path class="d" d="M554.98,67.64h1.41v7.71c0,.79-.19,1.5-.56,2.13s-.9,1.11-1.58,1.47c-.68,.36-1.47,.54-2.39,.54s-1.71-.18-2.39-.54c-.68-.36-1.2-.85-1.58-1.47s-.56-1.33-.56-2.13v-7.71h1.41v7.59c0,.57,.12,1.07,.38,1.51s.61,.79,1.07,1.04c.46,.25,1.02,.38,1.67,.38s1.21-.13,1.67-.38,.82-.6,1.07-1.04,.37-.95,.37-1.51v-7.59Z"/><path class="d" d="M566.82,79.45c-.73,0-1.37-.18-1.93-.55s-.99-.89-1.31-1.57-.47-1.48-.47-2.4,.16-1.71,.47-2.39c.31-.67,.75-1.19,1.31-1.56,.56-.37,1.21-.55,1.94-.55,.57,0,1.02,.09,1.35,.28,.33,.19,.59,.4,.76,.64,.18,.24,.31,.43,.41,.58h.11v-4.3h1.34v11.64h-1.29v-1.34h-.16c-.1,.16-.24,.36-.42,.6-.18,.24-.44,.45-.78,.64s-.79,.28-1.35,.28Zm.18-1.2c.54,0,.99-.14,1.36-.42s.65-.67,.85-1.18,.29-1.08,.29-1.74-.09-1.22-.28-1.71c-.19-.49-.47-.87-.84-1.15-.37-.27-.83-.41-1.38-.41s-1.04,.15-1.42,.43c-.38,.29-.66,.68-.85,1.18s-.28,1.05-.28,1.66,.1,1.18,.29,1.69c.19,.5,.47,.91,.85,1.2,.38,.3,.85,.45,1.41,.45Z"/><path class="d" d="M577,79.45c-.79,0-1.48-.19-2.07-.56-.59-.38-1.06-.9-1.39-1.57-.33-.67-.5-1.46-.5-2.36s.17-1.7,.5-2.38c.33-.68,.79-1.2,1.39-1.58,.59-.38,1.28-.56,2.07-.56s1.48,.19,2.07,.56,1.05,.9,1.39,1.58c.33,.68,.5,1.47,.5,2.38s-.17,1.69-.5,2.36c-.33,.67-.79,1.2-1.39,1.57s-1.28,.56-2.07,.56Zm0-1.2c.6,0,1.09-.15,1.48-.46,.39-.31,.67-.71,.86-1.21,.19-.5,.28-1.04,.28-1.62s-.09-1.13-.28-1.63c-.19-.5-.47-.91-.86-1.22-.39-.31-.88-.47-1.48-.47s-1.09,.16-1.48,.47c-.39,.31-.67,.72-.86,1.22-.19,.5-.28,1.05-.28,1.63s.09,1.12,.28,1.62,.47,.9,.86,1.21c.39,.31,.88,.46,1.48,.46Z"/><path class="d" d="M589.19,72.5l-1.21,.34c-.08-.2-.19-.4-.33-.59s-.34-.35-.59-.47-.57-.19-.96-.19c-.53,0-.98,.12-1.33,.37-.35,.24-.53,.55-.53,.93,0,.33,.12,.6,.36,.79s.62,.35,1.14,.48l1.3,.32c.78,.19,1.36,.48,1.74,.87,.38,.39,.57,.89,.57,1.5,0,.5-.14,.95-.43,1.34-.29,.39-.69,.7-1.2,.93-.51,.23-1.11,.34-1.78,.34-.89,0-1.63-.19-2.21-.58-.58-.39-.95-.95-1.11-1.69l1.27-.32c.12,.47,.35,.82,.69,1.06,.34,.24,.78,.35,1.33,.35,.62,0,1.12-.13,1.49-.4,.37-.27,.55-.59,.55-.96,0-.3-.11-.56-.32-.76-.21-.21-.54-.36-.98-.46l-1.46-.34c-.8-.19-1.39-.48-1.76-.88s-.56-.9-.56-1.5c0-.49,.14-.93,.42-1.31s.66-.68,1.14-.89c.48-.22,1.03-.32,1.65-.32,.86,0,1.54,.19,2.04,.57,.49,.38,.85,.88,1.05,1.5Z"/><path class="d" d="M593.94,79.48c-.55,0-1.06-.1-1.51-.31-.45-.21-.81-.52-1.07-.92-.26-.4-.4-.88-.4-1.45,0-.5,.1-.91,.29-1.22,.2-.31,.46-.56,.79-.74,.33-.18,.69-.31,1.09-.4s.8-.16,1.21-.21c.53-.07,.96-.12,1.29-.16,.33-.04,.57-.1,.73-.18,.15-.09,.23-.24,.23-.45v-.05c0-.56-.15-1-.46-1.31s-.77-.47-1.38-.47-1.14,.14-1.5,.42c-.36,.28-.62,.58-.77,.9l-1.27-.46c.23-.53,.53-.94,.91-1.24,.38-.3,.8-.51,1.25-.62,.45-.12,.9-.18,1.34-.18,.28,0,.6,.03,.97,.1,.37,.07,.72,.2,1.06,.41,.34,.2,.63,.51,.85,.93,.23,.41,.34,.97,.34,1.66v5.75h-1.34v-1.18h-.07c-.09,.19-.24,.39-.46,.61s-.49,.4-.85,.55c-.35,.15-.78,.23-1.29,.23Zm.2-1.2c.53,0,.98-.1,1.34-.31s.64-.48,.83-.81c.19-.33,.28-.68,.28-1.04v-1.23c-.06,.07-.18,.13-.37,.18-.19,.06-.41,.1-.66,.14s-.49,.07-.72,.1c-.23,.03-.42,.05-.57,.07-.35,.05-.67,.12-.97,.22-.3,.1-.54,.25-.73,.45s-.28,.47-.28,.81c0,.47,.17,.82,.52,1.05,.35,.24,.79,.36,1.32,.36Zm.05-8.91l1.39-2.64h1.57l-1.77,2.64h-1.18Z"/><path class="d" d="M601.73,74.02v5.25h-1.34v-11.64h1.34v4.27h.11c.21-.45,.51-.81,.92-1.08,.41-.27,.96-.4,1.64-.4,.59,0,1.12,.12,1.56,.36,.45,.24,.79,.6,1.04,1.08,.25,.49,.37,1.1,.37,1.85v5.55h-1.34v-5.45c0-.69-.18-1.23-.54-1.61-.36-.38-.85-.57-1.49-.57-.44,0-.83,.09-1.18,.28-.35,.19-.62,.46-.82,.81-.2,.36-.3,.79-.3,1.3Z"/><path class="d" d="M611.19,74.02v5.25h-1.34v-8.73h1.29v1.36h.11c.2-.44,.51-.8,.93-1.07,.42-.27,.95-.41,1.61-.41,.59,0,1.11,.12,1.55,.36,.44,.24,.79,.6,1.03,1.09,.25,.49,.37,1.1,.37,1.84v5.55h-1.34v-5.45c0-.69-.18-1.22-.53-1.61-.36-.38-.84-.58-1.47-.58-.43,0-.81,.09-1.15,.28-.33,.19-.6,.46-.79,.81-.19,.36-.29,.79-.29,1.3Z"/><path class="d" d="M622.75,79.45c-.79,0-1.48-.19-2.07-.56-.59-.38-1.06-.9-1.39-1.57-.33-.67-.5-1.46-.5-2.36s.17-1.7,.5-2.38c.33-.68,.79-1.2,1.39-1.58,.59-.38,1.28-.56,2.07-.56s1.48,.19,2.07,.56,1.05,.9,1.39,1.58c.33,.68,.5,1.47,.5,2.38s-.17,1.69-.5,2.36c-.33,.67-.79,1.2-1.39,1.57s-1.28,.56-2.07,.56Zm0-1.2c.6,0,1.09-.15,1.48-.46,.39-.31,.67-.71,.86-1.21,.19-.5,.28-1.04,.28-1.62s-.09-1.13-.28-1.63c-.19-.5-.47-.91-.86-1.22-.39-.31-.88-.47-1.48-.47s-1.09,.16-1.48,.47c-.39,.31-.67,.72-.86,1.22-.19,.5-.28,1.05-.28,1.63s.09,1.12,.28,1.62,.47,.9,.86,1.21c.39,.31,.88,.46,1.48,.46Z"/><path class="d" d="M634.25,75.7v-5.16h1.34v8.73h-1.34v-1.48h-.09c-.21,.44-.52,.82-.96,1.13s-.98,.46-1.64,.46c-.55,0-1.03-.12-1.46-.36s-.76-.6-1-1.09c-.24-.49-.36-1.1-.36-1.84v-5.55h1.34v5.46c0,.64,.18,1.14,.54,1.52,.36,.38,.82,.57,1.37,.57,.33,0,.67-.08,1.02-.26s.64-.43,.88-.78,.36-.8,.36-1.35Z"/><path class="d" d="M641.84,70.55v1.14h-4.52v-1.14h4.52Zm-3.2-2.09h1.34v8.32c0,.38,.06,.66,.17,.85,.11,.19,.25,.31,.43,.38,.18,.06,.36,.09,.56,.09,.15,0,.27,0,.36-.03,.09-.02,.17-.03,.23-.04l.27,1.2c-.09,.03-.22,.07-.38,.11-.16,.04-.37,.05-.62,.05-.38,0-.75-.08-1.11-.24-.36-.16-.66-.41-.9-.74-.24-.33-.35-.75-.35-1.26v-8.68Z"/><path class="d" d="M410.1,98.47v-11.64h1.34v11.64h-1.34Zm1.25-3.18l-.02-1.66h.27l3.82-3.89h1.66l-4.07,4.11h-.11l-1.54,1.43Zm4.29,3.18l-3.41-4.32,.96-.93,4.16,5.25h-1.71Z"/><path class="d" d="M420.14,86.84v11.64h-1.34v-11.64h1.34Z"/><path class="d" d="M423.28,88.29c-.26,0-.49-.09-.67-.27-.19-.18-.28-.39-.28-.64s.09-.46,.28-.64c.19-.18,.41-.27,.67-.27s.49,.09,.67,.27c.19,.18,.28,.39,.28,.64s-.09,.46-.28,.64c-.19,.18-.41,.27-.67,.27Zm-.68,10.18v-8.73h1.34v8.73h-1.34Z"/><path class="d" d="M426.39,98.47v-8.73h1.29v1.36h.11c.18-.47,.47-.83,.88-1.09,.41-.26,.89-.39,1.46-.39s1.06,.13,1.44,.39c.38,.26,.68,.62,.9,1.09h.09c.22-.45,.56-.81,1.01-1.08,.45-.27,.98-.4,1.61-.4,.78,0,1.42,.24,1.92,.73,.5,.49,.74,1.24,.74,2.27v5.84h-1.34v-5.84c0-.64-.18-1.1-.53-1.38s-.77-.42-1.24-.42c-.61,0-1.09,.18-1.43,.55-.34,.37-.5,.84-.5,1.4v5.68h-1.36v-5.98c0-.5-.16-.9-.48-1.2-.32-.3-.74-.46-1.24-.46-.35,0-.67,.09-.97,.28-.3,.19-.54,.44-.73,.77-.18,.33-.28,.71-.28,1.13v5.45h-1.34Z"/><path class="d" d="M442.87,98.68c-.55,0-1.06-.1-1.51-.31-.45-.21-.81-.52-1.07-.92-.26-.4-.4-.88-.4-1.45,0-.5,.1-.91,.29-1.22,.2-.31,.46-.56,.79-.74,.33-.18,.69-.31,1.09-.4s.8-.16,1.21-.21c.53-.07,.96-.12,1.29-.16,.33-.04,.57-.1,.73-.18,.15-.09,.23-.24,.23-.45v-.05c0-.56-.15-1-.46-1.31s-.77-.47-1.38-.47-1.14,.14-1.5,.42c-.36,.28-.62,.58-.77,.9l-1.27-.46c.23-.53,.53-.94,.91-1.24,.38-.3,.8-.51,1.25-.62,.45-.12,.9-.18,1.34-.18,.28,0,.6,.03,.97,.1,.37,.07,.72,.2,1.06,.41,.34,.2,.63,.51,.85,.93,.23,.41,.34,.97,.34,1.66v5.75h-1.34v-1.18h-.07c-.09,.19-.24,.39-.46,.61s-.49,.4-.85,.55c-.35,.15-.78,.23-1.29,.23Zm.2-1.2c.53,0,.98-.1,1.34-.31s.64-.48,.83-.81c.19-.33,.28-.68,.28-1.04v-1.23c-.06,.07-.18,.13-.37,.18-.19,.06-.41,.1-.66,.14s-.49,.07-.72,.1c-.23,.03-.42,.05-.57,.07-.35,.05-.67,.12-.97,.22-.3,.1-.54,.25-.73,.45s-.28,.47-.28,.81c0,.47,.17,.82,.52,1.05,.35,.24,.79,.36,1.32,.36Z"/><path class="d" d="M453.12,89.75v1.14h-4.52v-1.14h4.52Zm-3.2-2.09h1.34v8.32c0,.38,.06,.66,.17,.85,.11,.19,.25,.31,.43,.38,.18,.06,.36,.09,.56,.09,.15,0,.27,0,.36-.03,.09-.02,.17-.03,.23-.04l.27,1.2c-.09,.03-.22,.07-.38,.11-.16,.04-.37,.05-.62,.05-.38,0-.75-.08-1.11-.24-.36-.16-.66-.41-.9-.74-.24-.33-.35-.75-.35-1.26v-8.68Z"/><path class="d" d="M455.82,88.29c-.26,0-.49-.09-.67-.27-.19-.18-.28-.39-.28-.64s.09-.46,.28-.64c.19-.18,.41-.27,.67-.27s.49,.09,.67,.27c.19,.18,.28,.39,.28,.64s-.09,.46-.28,.64c-.19,.18-.41,.27-.67,.27Zm-.68,10.18v-8.73h1.34v8.73h-1.34Z"/><path class="d" d="M462.48,98.65c-.82,0-1.52-.19-2.11-.58-.59-.39-1.05-.92-1.36-1.6-.32-.68-.48-1.45-.48-2.32s.16-1.67,.49-2.35c.33-.68,.79-1.21,1.38-1.6,.59-.38,1.28-.58,2.07-.58,.61,0,1.17,.11,1.66,.34s.9,.55,1.21,.95c.31,.41,.51,.89,.58,1.43h-1.34c-.1-.4-.33-.75-.68-1.06-.35-.31-.82-.46-1.41-.46-.52,0-.98,.14-1.37,.41-.39,.27-.7,.65-.92,1.14s-.33,1.07-.33,1.72,.11,1.26,.32,1.76c.21,.5,.52,.89,.91,1.17,.39,.28,.85,.42,1.38,.42,.35,0,.67-.06,.95-.18,.28-.12,.52-.3,.72-.52,.2-.23,.34-.5,.42-.82h1.34c-.08,.52-.26,.98-.56,1.39-.3,.41-.69,.74-1.18,.98-.49,.24-1.05,.36-1.7,.36Z"/><path class="d" d="M467.87,98.47v-11.64h1.34v11.64h-1.34Zm1.25-3.18l-.02-1.66h.27l3.82-3.89h1.66l-4.07,4.11h-.11l-1.54,1.43Zm4.29,3.18l-3.41-4.32,.96-.93,4.16,5.25h-1.71Z"/><path class="d" d="M477.44,101.75c-.23,0-.43-.02-.61-.05-.18-.04-.3-.07-.37-.11l.34-1.18c.33,.08,.61,.11,.86,.09,.25-.02,.47-.13,.67-.33,.2-.2,.37-.52,.54-.96l.25-.68-3.23-8.77h1.45l2.41,6.96h.09l2.41-6.96h1.45l-3.7,10c-.17,.45-.37,.83-.62,1.12-.25,.3-.53,.52-.86,.66-.32,.14-.69,.22-1.09,.22Zm1.75-13.18l1.39-2.64h1.57l-1.77,2.64h-1.18Z"/><path class="d" d="M488.71,98.65c-.82,0-1.52-.19-2.11-.58-.59-.39-1.05-.92-1.36-1.6-.32-.68-.48-1.45-.48-2.32s.16-1.67,.49-2.35c.33-.68,.79-1.21,1.38-1.6,.59-.38,1.28-.58,2.07-.58,.61,0,1.17,.11,1.66,.34s.9,.55,1.21,.95c.31,.41,.51,.89,.58,1.43h-1.34c-.1-.4-.33-.75-.68-1.06-.35-.31-.82-.46-1.41-.46-.52,0-.98,.14-1.37,.41-.39,.27-.7,.65-.92,1.14s-.33,1.07-.33,1.72,.11,1.26,.32,1.76c.21,.5,.52,.89,.91,1.17,.39,.28,.85,.42,1.38,.42,.35,0,.67-.06,.95-.18,.28-.12,.52-.3,.72-.52,.2-.23,.34-.5,.42-.82h1.34c-.08,.52-.26,.98-.56,1.39-.3,.41-.69,.74-1.18,.98-.49,.24-1.05,.36-1.7,.36Z"/><path class="d" d="M495.44,93.22v5.25h-1.34v-11.64h1.34v4.27h.11c.21-.45,.51-.81,.92-1.08,.41-.27,.96-.4,1.64-.4,.59,0,1.12,.12,1.56,.36,.45,.24,.79,.6,1.04,1.08,.25,.49,.37,1.1,.37,1.85v5.55h-1.34v-5.45c0-.69-.18-1.23-.54-1.61-.36-.38-.85-.57-1.49-.57-.44,0-.83,.09-1.18,.28-.35,.19-.62,.46-.82,.81-.2,.36-.3,.79-.3,1.3Z"/><path class="d" d="M511.59,98.65c-.82,0-1.52-.19-2.11-.58-.59-.39-1.05-.92-1.36-1.6-.32-.68-.48-1.45-.48-2.32s.16-1.67,.49-2.35c.33-.68,.79-1.21,1.38-1.6,.59-.38,1.28-.58,2.07-.58,.61,0,1.17,.11,1.66,.34s.9,.55,1.21,.95c.31,.41,.51,.89,.58,1.43h-1.34c-.1-.4-.33-.75-.68-1.06-.35-.31-.82-.46-1.41-.46-.52,0-.98,.14-1.37,.41-.39,.27-.7,.65-.92,1.14s-.33,1.07-.33,1.72,.11,1.26,.32,1.76c.21,.5,.52,.89,.91,1.17,.39,.28,.85,.42,1.38,.42,.35,0,.67-.06,.95-.18,.28-.12,.52-.3,.72-.52,.2-.23,.34-.5,.42-.82h1.34c-.08,.52-.26,.98-.56,1.39-.3,.41-.69,.74-1.18,.98-.49,.24-1.05,.36-1.7,.36Z"/><path class="d" d="M516.98,98.47v-8.73h1.34v8.73h-1.34Zm.07-9.91l1.39-2.64h1.57l-1.77,2.64h-1.18Z"/><path class="d" d="M522.12,86.84v11.64h-1.34v-11.64h1.34Z"/><path class="d" d="M530.07,94.9v-5.16h1.34v8.73h-1.34v-1.48h-.09c-.21,.44-.52,.82-.96,1.13s-.98,.46-1.64,.46c-.55,0-1.03-.12-1.46-.36s-.76-.6-1-1.09c-.24-.49-.36-1.1-.36-1.84v-5.55h1.34v5.46c0,.64,.18,1.14,.54,1.52,.36,.38,.82,.57,1.37,.57,.33,0,.67-.08,1.02-.26s.64-.43,.88-.78,.36-.8,.36-1.35Zm-2.07-6.14c-.39,0-.74-.09-1.05-.26-.31-.17-.56-.4-.74-.69s-.28-.62-.28-.98,.09-.7,.28-1c.18-.3,.43-.54,.74-.73,.31-.18,.66-.27,1.05-.27s.73,.09,1.04,.27c.31,.18,.55,.42,.73,.73,.18,.3,.27,.64,.27,1s-.09,.69-.27,.98-.42,.52-.73,.69c-.31,.17-.66,.26-1.04,.26Zm0-.86c.32,0,.58-.11,.78-.33,.2-.22,.31-.47,.31-.74s-.1-.54-.31-.77c-.21-.23-.47-.34-.78-.34s-.58,.11-.78,.34-.31,.49-.31,.77,.1,.52,.31,.74,.47,.33,.78,.33Z"/></g></g><g><g><path class="g" d="M410,287.94v-.96l3.6-3.94c.42-.46,.77-.86,1.04-1.21s.48-.67,.61-.97c.13-.3,.2-.62,.2-.96,0-.38-.09-.72-.27-1-.18-.28-.43-.5-.75-.65-.32-.15-.67-.23-1.07-.23-.42,0-.78,.09-1.09,.26-.31,.17-.55,.41-.72,.72-.17,.31-.25,.67-.25,1.09h-1.26c0-.64,.15-1.2,.44-1.68,.29-.48,.7-.86,1.21-1.13s1.08-.41,1.72-.41,1.21,.14,1.7,.41c.49,.27,.88,.63,1.16,1.09,.28,.46,.42,.97,.42,1.53,0,.4-.07,.79-.22,1.17-.14,.38-.39,.81-.75,1.27s-.84,1.04-1.47,1.71l-2.45,2.62v.08h5.07v1.17h-6.88Z"/><path class="g" d="M422.63,288.09c-.8,0-1.49-.22-2.05-.66s-1-1.08-1.29-1.91c-.3-.84-.45-1.85-.45-3.03s.15-2.19,.45-3.02c.3-.84,.73-1.48,1.3-1.92,.57-.44,1.25-.66,2.04-.66s1.48,.22,2.04,.66c.57,.44,1,1.08,1.3,1.92,.3,.84,.45,1.84,.45,3.02s-.15,2.2-.45,3.03c-.3,.84-.73,1.47-1.29,1.91s-1.25,.66-2.05,.66Zm0-1.17c.8,0,1.41-.38,1.85-1.15,.44-.77,.66-1.86,.66-3.28,0-.95-.1-1.75-.3-2.41-.2-.66-.49-1.17-.86-1.52-.38-.35-.83-.52-1.35-.52-.79,0-1.4,.39-1.85,1.16-.44,.78-.67,1.87-.67,3.29,0,.94,.1,1.75,.3,2.41s.49,1.16,.86,1.51c.37,.34,.83,.52,1.36,.52Z"/><path class="g" d="M428.45,287.94v-.96l3.6-3.94c.42-.46,.77-.86,1.04-1.21s.48-.67,.61-.97c.13-.3,.2-.62,.2-.96,0-.38-.09-.72-.27-1-.18-.28-.43-.5-.75-.65-.32-.15-.67-.23-1.07-.23-.42,0-.78,.09-1.09,.26-.31,.17-.55,.41-.72,.72-.17,.31-.25,.67-.25,1.09h-1.26c0-.64,.15-1.2,.44-1.68,.29-.48,.7-.86,1.21-1.13s1.08-.41,1.72-.41,1.21,.14,1.7,.41c.49,.27,.88,.63,1.16,1.09,.28,.46,.42,.97,.42,1.53,0,.4-.07,.79-.22,1.17-.14,.38-.39,.81-.75,1.27s-.84,1.04-1.47,1.71l-2.45,2.62v.08h5.07v1.17h-6.88Z"/><path class="g" d="M441.36,277.03v10.91h-1.32v-9.52h-.06l-2.66,1.77v-1.34l2.73-1.81h1.32Z"/><path class="g" d="M453.86,281.9v1.17h-7.5v-1.17h7.5Z"/><path class="g" d="M464.71,279.76l-3.03,8.18h-1.28l-3.03-8.18h1.36l2.26,6.52h.08l2.26-6.52h1.36Z"/><path class="g" d="M467.18,291.01c-.21,0-.4-.02-.57-.05s-.28-.07-.35-.1l.32-1.11c.31,.08,.58,.11,.81,.08s.44-.12,.63-.31c.18-.19,.35-.49,.5-.9l.23-.64-3.03-8.22h1.36l2.26,6.52h.08l2.26-6.52h1.36l-3.47,9.38c-.16,.42-.35,.77-.58,1.05-.23,.28-.5,.49-.8,.62-.3,.13-.65,.2-1.03,.2Z"/><path class="g" d="M474.72,279.76h1.26v8.78c0,.5-.09,.94-.26,1.31-.17,.37-.43,.66-.78,.86-.35,.2-.78,.3-1.31,.3h-.25v-1.17h.23c.38,0,.66-.11,.84-.34,.18-.23,.27-.55,.27-.96v-8.78Zm.62-1.36c-.25,0-.46-.08-.63-.25s-.26-.37-.26-.6,.09-.44,.26-.6,.39-.25,.63-.25,.46,.08,.63,.25,.26,.37,.26,.6-.09,.43-.26,.6-.39,.25-.63,.25Z"/><path class="g" d="M481.71,288.11c-.79,0-1.47-.18-2.04-.53-.57-.35-1.01-.84-1.32-1.47-.31-.63-.46-1.36-.46-2.2s.15-1.58,.46-2.22c.31-.64,.74-1.14,1.29-1.5,.55-.36,1.2-.54,1.94-.54,.43,0,.85,.07,1.26,.21,.42,.14,.79,.37,1.13,.69,.34,.32,.61,.74,.81,1.26,.2,.52,.3,1.17,.3,1.93v.53h-6.31v-1.09h5.03c0-.46-.09-.87-.27-1.24s-.44-.65-.78-.86c-.34-.21-.73-.31-1.19-.31-.5,0-.93,.12-1.3,.37s-.64,.57-.84,.96c-.2,.39-.29,.82-.29,1.27v.72c0,.62,.11,1.14,.32,1.57s.51,.75,.9,.97c.38,.22,.83,.33,1.34,.33,.33,0,.63-.05,.9-.14,.27-.09,.5-.24,.7-.43,.2-.19,.35-.43,.45-.71l1.21,.34c-.13,.41-.34,.77-.64,1.08s-.67,.55-1.12,.72c-.44,.17-.94,.26-1.5,.26Z"/><path class="g" d="M490.1,288.11c-.68,0-1.28-.17-1.81-.52-.52-.35-.93-.84-1.23-1.47s-.44-1.38-.44-2.25,.15-1.61,.44-2.24,.71-1.12,1.23-1.46,1.13-.52,1.82-.52c.53,0,.95,.09,1.26,.26s.55,.37,.71,.6c.17,.22,.29,.4,.39,.55h.11v-4.03h1.26v10.91h-1.21v-1.26h-.15c-.09,.15-.22,.34-.39,.56-.17,.23-.41,.43-.73,.6-.32,.18-.74,.26-1.26,.26Zm.17-1.13c.5,0,.93-.13,1.28-.4,.35-.26,.61-.63,.79-1.1,.18-.47,.27-1.01,.27-1.63s-.09-1.15-.27-1.61c-.18-.46-.44-.82-.79-1.08-.35-.26-.78-.39-1.29-.39s-.98,.14-1.33,.41c-.35,.27-.62,.64-.79,1.1-.18,.46-.26,.98-.26,1.56s.09,1.11,.27,1.58c.18,.47,.45,.85,.8,1.13,.35,.28,.79,.42,1.32,.42Z"/><path class="g" d="M497.58,283.02v4.92h-1.26v-8.18h1.21v1.28h.11c.19-.42,.48-.75,.87-1s.9-.38,1.51-.38c.55,0,1.04,.11,1.45,.34,.42,.23,.74,.57,.97,1.02,.23,.46,.35,1.03,.35,1.73v5.2h-1.26v-5.11c0-.64-.17-1.14-.5-1.5s-.79-.54-1.37-.54c-.4,0-.76,.09-1.07,.26-.31,.17-.56,.43-.74,.76-.18,.33-.27,.74-.27,1.21Z"/><path class="g" d="M507.51,288.13c-.52,0-.99-.1-1.41-.29-.42-.2-.76-.48-1.01-.86-.25-.37-.37-.83-.37-1.36,0-.47,.09-.85,.28-1.14s.43-.52,.74-.69c.31-.17,.65-.29,1.03-.38,.38-.08,.75-.15,1.13-.2,.5-.06,.9-.11,1.21-.15,.31-.03,.54-.09,.68-.17,.14-.08,.22-.22,.22-.43v-.04c0-.53-.14-.93-.43-1.22-.29-.29-.72-.44-1.3-.44s-1.07,.13-1.41,.39-.58,.54-.72,.84l-1.19-.43c.21-.5,.5-.88,.86-1.16,.36-.28,.75-.47,1.17-.59,.42-.11,.84-.17,1.25-.17,.26,0,.57,.03,.91,.09,.34,.06,.67,.19,1,.38,.32,.19,.59,.48,.8,.87,.21,.39,.32,.91,.32,1.56v5.39h-1.26v-1.11h-.06c-.08,.18-.23,.37-.43,.57-.2,.2-.46,.38-.79,.52-.33,.14-.73,.21-1.21,.21Zm.19-1.13c.5,0,.92-.1,1.26-.29s.6-.45,.78-.76c.18-.31,.26-.63,.26-.97v-1.15c-.05,.06-.17,.12-.35,.17-.18,.05-.39,.1-.62,.13s-.46,.07-.68,.1c-.22,.03-.4,.05-.53,.07-.33,.04-.63,.11-.91,.21-.28,.09-.51,.23-.68,.42-.17,.19-.26,.44-.26,.76,0,.44,.16,.77,.49,.99s.74,.33,1.24,.33Zm.04-8.35l1.3-2.47h1.47l-1.66,2.47h-1.11Z"/><path class="g" d="M519.95,279.76l-3.03,8.18h-1.28l-3.03-8.18h1.36l2.26,6.52h.08l2.26-6.52h1.36Z"/><path class="g" d="M523.77,288.13c-.52,0-.99-.1-1.41-.29-.42-.2-.76-.48-1.01-.86-.25-.37-.37-.83-.37-1.36,0-.47,.09-.85,.28-1.14s.43-.52,.74-.69c.31-.17,.65-.29,1.03-.38,.38-.08,.75-.15,1.13-.2,.5-.06,.9-.11,1.21-.15,.31-.03,.54-.09,.68-.17,.14-.08,.22-.22,.22-.43v-.04c0-.53-.14-.93-.43-1.22-.29-.29-.72-.44-1.3-.44s-1.07,.13-1.41,.39-.58,.54-.72,.84l-1.19-.43c.21-.5,.5-.88,.86-1.16,.36-.28,.75-.47,1.17-.59,.42-.11,.84-.17,1.25-.17,.26,0,.57,.03,.91,.09,.34,.06,.67,.19,1,.38,.32,.19,.59,.48,.8,.87,.21,.39,.32,.91,.32,1.56v5.39h-1.26v-1.11h-.06c-.08,.18-.23,.37-.43,.57-.2,.2-.46,.38-.79,.52-.33,.14-.73,.21-1.21,.21Zm.19-1.13c.5,0,.92-.1,1.26-.29s.6-.45,.78-.76c.18-.31,.26-.63,.26-.97v-1.15c-.05,.06-.17,.12-.35,.17-.18,.05-.39,.1-.62,.13s-.46,.07-.68,.1c-.22,.03-.4,.05-.53,.07-.33,.04-.63,.11-.91,.21-.28,.09-.51,.23-.68,.42-.17,.19-.26,.44-.26,.76,0,.44,.16,.77,.49,.99s.74,.33,1.24,.33Zm.04-8.35l1.3-2.47h1.47l-1.66,2.47h-1.11Z"/><path class="g" d="M539.83,281.59l-1.13,.32c-.07-.19-.17-.37-.31-.55s-.32-.33-.56-.45-.53-.18-.9-.18c-.5,0-.92,.12-1.25,.34-.33,.23-.5,.52-.5,.87,0,.31,.11,.56,.34,.74,.23,.18,.58,.33,1.07,.45l1.21,.3c.73,.18,1.28,.45,1.64,.81,.36,.36,.54,.83,.54,1.4,0,.47-.13,.89-.4,1.26-.27,.37-.64,.66-1.12,.87-.48,.21-1.04,.32-1.67,.32-.83,0-1.53-.18-2.07-.54s-.89-.89-1.04-1.59l1.19-.3c.11,.44,.33,.77,.65,.99,.32,.22,.73,.33,1.25,.33,.59,0,1.05-.12,1.4-.38,.35-.25,.52-.55,.52-.9,0-.28-.1-.52-.3-.72-.2-.19-.5-.34-.92-.43l-1.36-.32c-.75-.18-1.3-.45-1.65-.83-.35-.37-.52-.84-.52-1.41,0-.46,.13-.87,.39-1.23s.62-.63,1.07-.84c.45-.2,.97-.3,1.54-.3,.81,0,1.45,.18,1.91,.53,.46,.36,.79,.82,.99,1.41Z"/><path class="g" d="M545.31,288.11c-.79,0-1.47-.18-2.04-.53-.57-.35-1.01-.84-1.32-1.47-.31-.63-.46-1.36-.46-2.2s.15-1.58,.46-2.22c.31-.64,.74-1.14,1.29-1.5,.55-.36,1.2-.54,1.94-.54,.43,0,.85,.07,1.26,.21,.42,.14,.79,.37,1.13,.69,.34,.32,.61,.74,.81,1.26,.2,.52,.3,1.17,.3,1.93v.53h-6.31v-1.09h5.03c0-.46-.09-.87-.27-1.24s-.44-.65-.78-.86c-.34-.21-.73-.31-1.19-.31-.5,0-.93,.12-1.3,.37s-.64,.57-.84,.96c-.2,.39-.29,.82-.29,1.27v.72c0,.62,.11,1.14,.32,1.57s.51,.75,.9,.97c.38,.22,.83,.33,1.34,.33,.33,0,.63-.05,.9-.14,.27-.09,.5-.24,.7-.43,.2-.19,.35-.43,.45-.71l1.21,.34c-.13,.41-.34,.77-.64,1.08s-.67,.55-1.12,.72c-.44,.17-.94,.26-1.5,.26Z"/><path class="g" d="M557.92,288.11c-.68,0-1.28-.17-1.81-.52-.52-.35-.93-.84-1.23-1.47s-.44-1.38-.44-2.25,.15-1.61,.44-2.24,.71-1.12,1.23-1.46,1.13-.52,1.82-.52c.53,0,.95,.09,1.26,.26s.55,.37,.71,.6c.17,.22,.29,.4,.39,.55h.11v-4.03h1.26v10.91h-1.21v-1.26h-.15c-.09,.15-.22,.34-.39,.56-.17,.23-.41,.43-.73,.6-.32,.18-.74,.26-1.26,.26Zm.17-1.13c.5,0,.93-.13,1.28-.4,.35-.26,.61-.63,.79-1.1,.18-.47,.27-1.01,.27-1.63s-.09-1.15-.27-1.61c-.18-.46-.44-.82-.79-1.08-.35-.26-.78-.39-1.29-.39s-.98,.14-1.33,.41c-.35,.27-.62,.64-.79,1.1-.18,.46-.26,.98-.26,1.56s.09,1.11,.27,1.58c.18,.47,.45,.85,.8,1.13,.35,.28,.79,.42,1.32,.42Z"/><path class="g" d="M567.47,288.11c-.74,0-1.39-.18-1.94-.53-.56-.35-.99-.84-1.3-1.48-.31-.63-.47-1.37-.47-2.22s.16-1.6,.47-2.23c.31-.64,.74-1.13,1.3-1.48,.56-.35,1.2-.53,1.94-.53s1.39,.18,1.94,.53,.99,.84,1.3,1.48,.47,1.38,.47,2.23-.16,1.58-.47,2.22c-.31,.63-.74,1.12-1.3,1.48s-1.2,.53-1.94,.53Zm0-1.13c.56,0,1.02-.14,1.38-.43,.36-.29,.63-.67,.8-1.13,.17-.47,.26-.98,.26-1.52s-.09-1.06-.26-1.53c-.17-.47-.44-.85-.8-1.15-.36-.29-.82-.44-1.38-.44s-1.02,.15-1.38,.44c-.36,.29-.63,.67-.8,1.15-.17,.47-.26,.98-.26,1.53s.09,1.05,.26,1.52,.44,.85,.8,1.13c.36,.29,.82,.43,1.38,.43Z"/><path class="g" d="M578.89,281.59l-1.13,.32c-.07-.19-.17-.37-.31-.55s-.32-.33-.56-.45-.53-.18-.9-.18c-.5,0-.92,.12-1.25,.34-.33,.23-.5,.52-.5,.87,0,.31,.11,.56,.34,.74,.23,.18,.58,.33,1.07,.45l1.21,.3c.73,.18,1.28,.45,1.64,.81,.36,.36,.54,.83,.54,1.4,0,.47-.13,.89-.4,1.26-.27,.37-.64,.66-1.12,.87-.48,.21-1.04,.32-1.67,.32-.83,0-1.53-.18-2.07-.54s-.89-.89-1.04-1.59l1.19-.3c.11,.44,.33,.77,.65,.99,.32,.22,.73,.33,1.25,.33,.59,0,1.05-.12,1.4-.38,.35-.25,.52-.55,.52-.9,0-.28-.1-.52-.3-.72-.2-.19-.5-.34-.92-.43l-1.36-.32c-.75-.18-1.3-.45-1.65-.83-.35-.37-.52-.84-.52-1.41,0-.46,.13-.87,.39-1.23s.62-.63,1.07-.84c.45-.2,.97-.3,1.54-.3,.81,0,1.45,.18,1.91,.53,.46,.36,.79,.82,.99,1.41Z"/><path class="g" d="M586.09,284.6v-4.84h1.26v8.18h-1.26v-1.38h-.08c-.19,.42-.49,.77-.89,1.06-.41,.29-.92,.43-1.53,.43-.51,0-.97-.11-1.36-.34s-.71-.57-.94-1.02c-.23-.46-.34-1.03-.34-1.73v-5.2h1.26v5.11c0,.6,.17,1.07,.5,1.43s.76,.53,1.29,.53c.31,0,.63-.08,.96-.24,.33-.16,.6-.41,.82-.74s.33-.75,.33-1.26Z"/><path class="g" d="M592.74,288.11c-.68,0-1.28-.17-1.81-.52-.52-.35-.93-.84-1.23-1.47s-.44-1.38-.44-2.25,.15-1.61,.44-2.24,.71-1.12,1.23-1.46,1.13-.52,1.82-.52c.53,0,.95,.09,1.26,.26s.55,.37,.71,.6c.17,.22,.29,.4,.39,.55h.11v-4.03h1.26v10.91h-1.21v-1.26h-.15c-.09,.15-.22,.34-.39,.56-.17,.23-.41,.43-.73,.6-.32,.18-.74,.26-1.26,.26Zm.17-1.13c.5,0,.93-.13,1.28-.4,.35-.26,.61-.63,.79-1.1,.18-.47,.27-1.01,.27-1.63s-.09-1.15-.27-1.61c-.18-.46-.44-.82-.79-1.08-.35-.26-.78-.39-1.29-.39s-.98,.14-1.33,.41c-.35,.27-.62,.64-.79,1.1-.18,.46-.26,.98-.26,1.56s.09,1.11,.27,1.58c.18,.47,.45,.85,.8,1.13,.35,.28,.79,.42,1.32,.42Z"/></g><circle class="f" cx="412.91" cy="203.74" r="25.42"/><g class="i"><g><path class="d" d="M410.01,208.64v-13.09h8.67v2.28h-5.9v3.12h5.33v2.28h-5.33v5.41h-2.77Z"/><path class="d" d="M421.85,197.56c-.4,0-.75-.13-1.04-.41-.29-.27-.43-.6-.43-.98s.14-.7,.43-.97c.29-.27,.63-.41,1.04-.41s.75,.14,1.04,.41c.29,.27,.43,.59,.43,.97s-.14,.7-.43,.98c-.29,.27-.63,.41-1.04,.41Zm-1.37,11.08v-9.82h2.72v9.82h-2.72Z"/><path class="d" d="M430.6,198.82v2.05h-5.91v-2.05h5.91Zm-4.57-2.35h2.72v9.15c0,.25,.04,.45,.12,.58,.08,.14,.18,.24,.32,.29,.14,.06,.3,.08,.48,.08,.13,0,.26-.01,.38-.04s.23-.04,.29-.05l.43,2.03c-.14,.04-.33,.09-.58,.15-.25,.06-.55,.09-.9,.11-.66,.03-1.23-.06-1.72-.26s-.88-.51-1.15-.93c-.27-.42-.41-.95-.4-1.6v-9.51Z"/><path class="d" d="M441.83,198.82v2.05h-6.06v-2.05h6.06Zm-4.67,9.82v-10.53c0-.71,.14-1.3,.42-1.77s.66-.82,1.15-1.05c.49-.23,1.04-.35,1.66-.35,.42,0,.8,.03,1.15,.1,.35,.06,.61,.12,.78,.17l-.49,2.05c-.11-.03-.24-.07-.39-.1-.16-.03-.31-.04-.48-.04-.4,0-.68,.09-.84,.28-.16,.19-.24,.44-.24,.78v10.48h-2.72Z"/><path class="d" d="M447.58,208.83c-.99,0-1.85-.21-2.57-.64-.72-.42-1.28-1.02-1.67-1.78-.39-.76-.59-1.64-.59-2.65s.2-1.9,.59-2.66c.39-.76,.95-1.35,1.67-1.78,.72-.42,1.58-.64,2.57-.64s1.85,.21,2.57,.64c.72,.42,1.28,1.02,1.67,1.78,.39,.76,.59,1.65,.59,2.66s-.2,1.89-.59,2.65c-.39,.76-.95,1.35-1.67,1.78-.72,.42-1.58,.64-2.57,.64Zm.01-2.11c.45,0,.83-.13,1.13-.39s.53-.61,.69-1.06c.16-.45,.23-.96,.23-1.53s-.08-1.08-.23-1.53c-.16-.45-.38-.8-.69-1.06s-.68-.39-1.13-.39-.84,.13-1.15,.39c-.31,.26-.54,.61-.7,1.06-.16,.45-.23,.96-.23,1.53s.08,1.08,.23,1.53,.39,.8,.7,1.06c.31,.26,.69,.39,1.15,.39Z"/><path class="d" d="M454.19,208.64v-9.82h2.64v1.71h.1c.18-.61,.48-1.07,.9-1.38,.42-.31,.91-.47,1.46-.47,.14,0,.28,0,.44,.03,.16,.02,.3,.04,.42,.07v2.42c-.13-.04-.3-.07-.53-.1-.23-.03-.43-.04-.62-.04-.4,0-.76,.09-1.07,.26-.31,.17-.56,.41-.74,.72-.18,.31-.27,.66-.27,1.06v5.55h-2.72Z"/><path class="d" d="M470.47,208.82c-.9,0-1.71-.17-2.41-.5-.71-.33-1.26-.79-1.68-1.38-.41-.58-.63-1.25-.65-2.01h2.68c.03,.51,.24,.92,.64,1.23,.4,.32,.87,.47,1.41,.47,.43,0,.82-.1,1.15-.29s.6-.46,.79-.81c.19-.35,.28-.75,.28-1.2s-.1-.86-.29-1.21c-.19-.35-.46-.62-.8-.82s-.73-.3-1.17-.3c-.38,0-.75,.08-1.12,.24-.36,.16-.64,.37-.84,.65l-2.46-.44,.62-6.9h8v2.26h-5.72l-.34,3.28h.08c.23-.32,.58-.59,1.04-.81,.46-.21,.98-.32,1.56-.32,.79,0,1.49,.19,2.11,.56,.62,.37,1.11,.88,1.46,1.52,.36,.65,.53,1.39,.53,2.23,0,.88-.2,1.67-.61,2.35s-.98,1.22-1.72,1.61c-.74,.39-1.59,.58-2.56,.58Z"/><path class="d" d="M482.08,208.82c-.9,0-1.71-.17-2.41-.5-.71-.33-1.26-.79-1.68-1.38-.41-.58-.63-1.25-.65-2.01h2.68c.03,.51,.24,.92,.64,1.23,.4,.32,.87,.47,1.41,.47,.43,0,.82-.1,1.15-.29s.6-.46,.79-.81c.19-.35,.28-.75,.28-1.2s-.1-.86-.29-1.21c-.19-.35-.46-.62-.8-.82s-.73-.3-1.17-.3c-.38,0-.75,.08-1.12,.24-.36,.16-.64,.37-.84,.65l-2.46-.44,.62-6.9h8v2.26h-5.72l-.34,3.28h.08c.23-.32,.58-.59,1.04-.81,.46-.21,.98-.32,1.56-.32,.79,0,1.49,.19,2.11,.56,.62,.37,1.11,.88,1.46,1.52,.36,.65,.53,1.39,.53,2.23,0,.88-.2,1.67-.61,2.35s-.98,1.22-1.72,1.61c-.74,.39-1.59,.58-2.56,.58Z"/></g></g><g class="i"><g><path class="d" d="M410.28,244.81v-11.64h1.41v10.39h5.41v1.25h-6.82Z"/><path class="d" d="M422.76,244.99c-.84,0-1.57-.19-2.17-.56-.61-.37-1.08-.9-1.4-1.57-.33-.67-.49-1.46-.49-2.35s.16-1.68,.49-2.37c.33-.68,.79-1.22,1.38-1.6s1.28-.58,2.07-.58c.45,0,.9,.08,1.35,.23,.44,.15,.85,.4,1.21,.74,.36,.34,.65,.79,.87,1.34s.32,1.24,.32,2.06v.57h-6.73v-1.16h5.36c0-.49-.1-.93-.29-1.32-.2-.38-.47-.69-.83-.91-.36-.22-.78-.34-1.26-.34-.53,0-1,.13-1.38,.4-.39,.26-.69,.6-.89,1.03-.21,.42-.31,.87-.31,1.35v.77c0,.66,.11,1.22,.34,1.67,.23,.46,.55,.8,.96,1.04s.88,.36,1.43,.36c.35,0,.67-.05,.96-.15,.29-.1,.53-.25,.74-.46,.21-.2,.37-.46,.48-.76l1.29,.37c-.14,.44-.37,.82-.69,1.16-.32,.33-.72,.59-1.19,.77-.47,.18-1.01,.28-1.6,.28Z"/><path class="d" d="M431.94,248.26c-.65,0-1.2-.08-1.67-.25-.47-.16-.85-.38-1.16-.65-.31-.27-.55-.55-.74-.86l1.07-.75c.12,.16,.27,.34,.46,.55,.19,.21,.44,.39,.76,.54,.32,.15,.75,.23,1.28,.23,.7,0,1.29-.17,1.74-.51,.46-.34,.69-.88,.69-1.6v-1.77h-.11c-.1,.16-.24,.36-.42,.59s-.44,.44-.77,.62-.79,.27-1.36,.27c-.7,0-1.34-.17-1.89-.5-.56-.33-1-.82-1.32-1.45-.32-.64-.49-1.41-.49-2.32s.16-1.67,.47-2.34c.31-.67,.75-1.18,1.31-1.55,.56-.37,1.21-.55,1.94-.55,.57,0,1.02,.09,1.35,.28s.59,.4,.77,.64c.18,.24,.32,.43,.42,.58h.14v-1.39h1.29v8.98c0,.75-.17,1.36-.51,1.83-.34,.47-.79,.82-1.36,1.04-.57,.22-1.2,.33-1.9,.33Zm-.05-4.79c.54,0,.99-.12,1.36-.37s.65-.6,.85-1.06c.19-.46,.29-1.02,.29-1.66s-.09-1.18-.28-1.66c-.19-.48-.47-.86-.84-1.13-.37-.27-.83-.41-1.38-.41s-1.04,.14-1.42,.43c-.38,.29-.66,.67-.85,1.16s-.28,1.02-.28,1.61,.1,1.14,.29,1.61,.47,.83,.85,1.09c.38,.26,.85,.39,1.41,.39Z"/><path class="d" d="M438.85,234.63c-.26,0-.49-.09-.67-.27-.19-.18-.28-.39-.28-.64s.09-.46,.28-.64,.41-.27,.67-.27,.49,.09,.67,.27,.28,.39,.28,.64-.09,.46-.28,.64c-.19,.18-.41,.27-.67,.27Zm-.68,10.18v-8.73h1.34v8.73h-1.34Z"/><path class="d" d="M448.14,238.04l-1.21,.34c-.08-.2-.19-.4-.33-.59s-.34-.35-.59-.47-.57-.19-.96-.19c-.53,0-.98,.12-1.33,.37-.35,.24-.53,.55-.53,.93,0,.33,.12,.6,.36,.79s.62,.35,1.14,.48l1.3,.32c.78,.19,1.36,.48,1.74,.87,.38,.39,.57,.89,.57,1.5,0,.5-.14,.95-.43,1.34-.29,.39-.69,.7-1.2,.93-.51,.23-1.11,.34-1.78,.34-.89,0-1.63-.19-2.21-.58-.58-.39-.95-.95-1.11-1.69l1.27-.32c.12,.47,.35,.82,.69,1.06s.78,.35,1.33,.35c.62,0,1.12-.13,1.49-.4s.55-.59,.55-.96c0-.3-.11-.56-.32-.76-.21-.21-.54-.36-.98-.46l-1.46-.34c-.8-.19-1.39-.48-1.76-.88-.37-.4-.56-.9-.56-1.5,0-.49,.14-.93,.42-1.31s.66-.68,1.14-.89c.48-.22,1.03-.32,1.65-.32,.86,0,1.54,.19,2.04,.57,.49,.38,.85,.88,1.05,1.5Z"/><path class="d" d="M451.67,233.17v11.64h-1.34v-11.64h1.34Z"/><path class="d" d="M456.69,245.01c-.55,0-1.06-.11-1.51-.31-.45-.21-.81-.52-1.07-.92-.26-.4-.4-.88-.4-1.45,0-.5,.1-.91,.29-1.22,.2-.31,.46-.56,.79-.74,.33-.18,.69-.31,1.09-.4,.4-.09,.8-.16,1.21-.21,.53-.07,.96-.12,1.29-.16s.57-.1,.73-.19c.15-.09,.23-.24,.23-.45v-.05c0-.56-.15-1-.46-1.31s-.77-.46-1.38-.46-1.14,.14-1.5,.42c-.36,.28-.62,.58-.77,.9l-1.27-.46c.23-.53,.53-.94,.91-1.24,.38-.3,.8-.51,1.25-.62,.45-.12,.9-.18,1.34-.18,.28,0,.6,.03,.97,.1,.37,.07,.72,.2,1.06,.41,.34,.2,.63,.51,.85,.93,.23,.41,.34,.96,.34,1.66v5.75h-1.34v-1.18h-.07c-.09,.19-.24,.39-.46,.61-.21,.22-.49,.4-.85,.55-.35,.15-.78,.23-1.29,.23Zm.2-1.21c.53,0,.98-.1,1.34-.31,.37-.21,.64-.48,.83-.81s.28-.68,.28-1.04v-1.23c-.06,.07-.18,.13-.37,.19s-.41,.1-.66,.14c-.25,.04-.49,.07-.72,.1-.23,.03-.42,.05-.57,.07-.35,.05-.67,.12-.97,.22-.3,.1-.54,.25-.73,.45s-.28,.47-.28,.81c0,.46,.17,.82,.52,1.05,.35,.24,.79,.36,1.32,.36Z"/><path class="d" d="M466.94,236.08v1.14h-4.52v-1.14h4.52Zm-3.2-2.09h1.34v8.32c0,.38,.06,.66,.17,.85,.11,.19,.25,.31,.43,.38,.18,.06,.36,.09,.56,.09,.15,0,.27,0,.36-.03s.17-.03,.23-.04l.27,1.21c-.09,.03-.22,.07-.38,.11-.16,.04-.37,.05-.62,.05-.38,0-.75-.08-1.11-.24-.36-.16-.66-.41-.9-.74-.24-.33-.35-.75-.35-1.26v-8.68Z"/><path class="d" d="M469.64,234.63c-.26,0-.49-.09-.67-.27-.19-.18-.28-.39-.28-.64s.09-.46,.28-.64,.41-.27,.67-.27,.49,.09,.67,.27,.28,.39,.28,.64-.09,.46-.28,.64c-.19,.18-.41,.27-.67,.27Zm-.68,10.18v-8.73h1.34v8.73h-1.34Z"/><path class="d" d="M479.89,236.08l-3.23,8.73h-1.36l-3.23-8.73h1.45l2.41,6.96h.09l2.41-6.96h1.45Z"/><path class="d" d="M483.01,239.56v5.25h-1.34v-8.73h1.29v1.36h.11c.2-.44,.51-.8,.93-1.07,.42-.27,.95-.41,1.61-.41,.59,0,1.11,.12,1.55,.36,.44,.24,.79,.61,1.03,1.09,.25,.49,.37,1.1,.37,1.84v5.54h-1.34v-5.45c0-.69-.18-1.22-.53-1.61-.36-.38-.84-.58-1.47-.58-.43,0-.81,.09-1.15,.28s-.6,.46-.79,.81c-.19,.36-.29,.79-.29,1.29Z"/><path class="d" d="M491.03,244.81v-8.73h1.34v8.73h-1.34Zm.07-9.91l1.39-2.64h1.57l-1.77,2.64h-1.18Z"/><path class="d" d="M499.51,244.81v-11.64h1.34v4.3h.11c.1-.15,.24-.35,.41-.58,.18-.24,.43-.45,.76-.64,.33-.19,.78-.28,1.35-.28,.73,0,1.38,.18,1.94,.55s1,.89,1.31,1.56,.47,1.47,.47,2.39-.16,1.72-.47,2.4-.75,1.2-1.31,1.57-1.2,.55-1.93,.55c-.56,0-1.01-.09-1.35-.28s-.6-.4-.78-.64c-.18-.24-.32-.44-.42-.6h-.16v1.34h-1.29Zm1.32-4.36c0,.66,.1,1.24,.29,1.74,.19,.5,.48,.89,.85,1.18,.37,.28,.83,.42,1.36,.42s1.03-.15,1.41-.45c.38-.3,.66-.7,.85-1.2,.19-.51,.29-1.07,.29-1.69s-.09-1.17-.28-1.66-.47-.89-.85-1.18-.85-.44-1.42-.44-1,.14-1.38,.41c-.37,.28-.65,.66-.84,1.15s-.28,1.06-.28,1.71Z"/><path class="d" d="M511.82,245.01c-.55,0-1.06-.11-1.51-.31-.45-.21-.81-.52-1.07-.92-.26-.4-.4-.88-.4-1.45,0-.5,.1-.91,.29-1.22,.2-.31,.46-.56,.79-.74,.33-.18,.69-.31,1.09-.4,.4-.09,.8-.16,1.21-.21,.53-.07,.96-.12,1.29-.16s.57-.1,.73-.19c.15-.09,.23-.24,.23-.45v-.05c0-.56-.15-1-.46-1.31s-.77-.46-1.38-.46-1.14,.14-1.5,.42c-.36,.28-.62,.58-.77,.9l-1.27-.46c.23-.53,.53-.94,.91-1.24,.38-.3,.8-.51,1.25-.62,.45-.12,.9-.18,1.34-.18,.28,0,.6,.03,.97,.1,.37,.07,.72,.2,1.06,.41,.34,.2,.63,.51,.85,.93,.23,.41,.34,.96,.34,1.66v5.75h-1.34v-1.18h-.07c-.09,.19-.24,.39-.46,.61-.21,.22-.49,.4-.85,.55-.35,.15-.78,.23-1.29,.23Zm.2-1.21c.53,0,.98-.1,1.34-.31,.37-.21,.64-.48,.83-.81s.28-.68,.28-1.04v-1.23c-.06,.07-.18,.13-.37,.19s-.41,.1-.66,.14c-.25,.04-.49,.07-.72,.1-.23,.03-.42,.05-.57,.07-.35,.05-.67,.12-.97,.22-.3,.1-.54,.25-.73,.45s-.28,.47-.28,.81c0,.46,.17,.82,.52,1.05,.35,.24,.79,.36,1.32,.36Z"/><path class="d" d="M519.62,233.17v11.64h-1.34v-11.64h1.34Z"/><path class="d" d="M522.07,244.81v-8.73h1.34v8.73h-1.34Zm.07-9.91l1.39-2.64h1.57l-1.77,2.64h-1.18Z"/><path class="d" d="M529.41,244.99c-.82,0-1.52-.19-2.11-.58-.59-.39-1.05-.92-1.36-1.6-.32-.68-.48-1.45-.48-2.32s.16-1.67,.49-2.35c.33-.68,.79-1.21,1.38-1.6s1.28-.58,2.07-.58c.61,0,1.17,.11,1.66,.34,.49,.23,.9,.55,1.21,.96s.51,.89,.58,1.43h-1.34c-.1-.4-.33-.75-.68-1.06-.35-.31-.82-.46-1.41-.46-.52,0-.98,.14-1.37,.41-.39,.27-.7,.65-.92,1.14s-.33,1.07-.33,1.72,.11,1.26,.32,1.76c.21,.5,.52,.89,.91,1.16,.39,.28,.85,.42,1.38,.42,.35,0,.67-.06,.95-.18,.28-.12,.52-.3,.72-.52,.2-.23,.34-.5,.42-.82h1.34c-.08,.52-.26,.98-.56,1.39-.3,.41-.69,.74-1.18,.98-.49,.24-1.05,.36-1.7,.36Zm-1.23-12.41l1.18,1.59,1.18-1.59h1.27v.09l-1.84,2.37h-1.23l-1.84-2.37v-.09h1.27Z"/><path class="d" d="M538.46,244.99c-.84,0-1.57-.19-2.17-.56-.61-.37-1.08-.9-1.4-1.57-.33-.67-.49-1.46-.49-2.35s.16-1.68,.49-2.37c.33-.68,.79-1.22,1.38-1.6s1.28-.58,2.07-.58c.45,0,.9,.08,1.35,.23,.44,.15,.85,.4,1.21,.74,.36,.34,.65,.79,.87,1.34s.32,1.24,.32,2.06v.57h-6.73v-1.16h5.36c0-.49-.1-.93-.29-1.32-.2-.38-.47-.69-.83-.91-.36-.22-.78-.34-1.26-.34-.53,0-1,.13-1.38,.4-.39,.26-.69,.6-.89,1.03-.21,.42-.31,.87-.31,1.35v.77c0,.66,.11,1.22,.34,1.67,.23,.46,.55,.8,.96,1.04s.88,.36,1.43,.36c.35,0,.67-.05,.96-.15,.29-.1,.53-.25,.74-.46,.21-.2,.37-.46,.48-.76l1.29,.37c-.14,.44-.37,.82-.69,1.16-.32,.33-.72,.59-1.19,.77-.47,.18-1.01,.28-1.6,.28Z"/><path class="d" d="M544.12,244.81v-11.64h1.34v11.64h-1.34Zm1.25-3.18l-.02-1.66h.27l3.82-3.89h1.66l-4.07,4.11h-.11l-1.54,1.43Zm4.29,3.18l-3.41-4.32,.96-.93,4.16,5.25h-1.71Z"/><path class="d" d="M560.87,244.99c-.79,0-1.48-.19-2.07-.56-.59-.38-1.06-.9-1.39-1.57-.33-.68-.5-1.46-.5-2.37s.17-1.7,.5-2.38c.33-.68,.79-1.2,1.39-1.58,.59-.38,1.28-.56,2.07-.56s1.48,.19,2.07,.56,1.05,.9,1.39,1.58c.33,.68,.5,1.47,.5,2.38s-.17,1.69-.5,2.37c-.33,.67-.79,1.2-1.39,1.57s-1.28,.56-2.07,.56Zm0-1.2c.6,0,1.09-.15,1.48-.46s.67-.71,.86-1.21c.19-.5,.28-1.04,.28-1.62s-.09-1.13-.28-1.63c-.19-.5-.47-.91-.86-1.22s-.88-.47-1.48-.47-1.09,.16-1.48,.47c-.39,.31-.67,.72-.86,1.22-.19,.5-.28,1.05-.28,1.63s.09,1.12,.28,1.62,.47,.9,.86,1.21c.39,.31,.88,.46,1.48,.46Z"/><path class="d" d="M566.87,248.08v-12h1.29v1.39h.16c.1-.15,.24-.35,.41-.58,.18-.24,.43-.45,.76-.64,.33-.19,.78-.28,1.35-.28,.74,0,1.38,.18,1.94,.55s1,.89,1.31,1.56,.47,1.47,.47,2.39-.16,1.72-.47,2.4-.75,1.2-1.31,1.57-1.2,.55-1.93,.55c-.56,0-1.01-.09-1.35-.28s-.6-.4-.78-.64c-.18-.24-.32-.44-.42-.6h-.11v4.61h-1.34Zm1.32-7.64c0,.66,.1,1.24,.29,1.74s.48,.89,.85,1.18c.37,.28,.83,.42,1.36,.42s1.03-.15,1.41-.45c.38-.3,.66-.7,.85-1.2,.19-.51,.29-1.07,.29-1.69s-.09-1.17-.28-1.66-.47-.89-.85-1.18-.85-.44-1.42-.44-1,.14-1.38,.41c-.37,.28-.65,.66-.84,1.15s-.28,1.06-.28,1.71Z"/><path class="d" d="M579.19,245.01c-.55,0-1.06-.11-1.51-.31-.45-.21-.81-.52-1.07-.92-.26-.4-.4-.88-.4-1.45,0-.5,.1-.91,.29-1.22,.2-.31,.46-.56,.79-.74,.33-.18,.69-.31,1.09-.4,.4-.09,.8-.16,1.21-.21,.53-.07,.96-.12,1.29-.16s.57-.1,.73-.19c.15-.09,.23-.24,.23-.45v-.05c0-.56-.15-1-.46-1.31s-.77-.46-1.38-.46-1.14,.14-1.5,.42c-.36,.28-.62,.58-.77,.9l-1.27-.46c.23-.53,.53-.94,.91-1.24,.38-.3,.8-.51,1.25-.62,.45-.12,.9-.18,1.34-.18,.28,0,.6,.03,.97,.1,.37,.07,.72,.2,1.06,.41,.34,.2,.63,.51,.85,.93,.23,.41,.34,.96,.34,1.66v5.75h-1.34v-1.18h-.07c-.09,.19-.24,.39-.46,.61-.21,.22-.49,.4-.85,.55-.35,.15-.78,.23-1.29,.23Zm.2-1.21c.53,0,.98-.1,1.34-.31,.37-.21,.64-.48,.83-.81s.28-.68,.28-1.04v-1.23c-.06,.07-.18,.13-.37,.19s-.41,.1-.66,.14c-.25,.04-.49,.07-.72,.1-.23,.03-.42,.05-.57,.07-.35,.05-.67,.12-.97,.22-.3,.1-.54,.25-.73,.45s-.28,.47-.28,.81c0,.46,.17,.82,.52,1.05,.35,.24,.79,.36,1.32,.36Z"/><path class="d" d="M589.44,236.08v1.14h-4.52v-1.14h4.52Zm-3.2-2.09h1.34v8.32c0,.38,.06,.66,.17,.85,.11,.19,.25,.31,.43,.38,.18,.06,.36,.09,.56,.09,.15,0,.27,0,.36-.03s.17-.03,.23-.04l.27,1.21c-.09,.03-.22,.07-.38,.11-.16,.04-.37,.05-.62,.05-.38,0-.75-.08-1.11-.24-.36-.16-.66-.41-.9-.74-.24-.33-.35-.75-.35-1.26v-8.68Z"/><path class="d" d="M592.35,232.58l1.18,1.59,1.18-1.59h1.27v.09l-1.84,2.37h-1.23l-1.84-2.37v-.09h1.27Zm-.89,12.23v-8.73h1.29v1.32h.09c.16-.43,.45-.78,.86-1.05,.42-.27,.89-.4,1.41-.4,.1,0,.22,0,.37,0s.26,0,.33,.02v1.36s-.15-.03-.31-.05c-.16-.02-.33-.04-.51-.04-.42,0-.8,.09-1.13,.27-.33,.18-.59,.42-.78,.73-.19,.31-.29,.66-.29,1.05v5.52h-1.34Z"/><path class="d" d="M600.8,244.99c-.84,0-1.57-.19-2.17-.56-.61-.37-1.08-.9-1.4-1.57-.33-.67-.49-1.46-.49-2.35s.16-1.68,.49-2.37c.33-.68,.79-1.22,1.38-1.6s1.28-.58,2.07-.58c.45,0,.9,.08,1.35,.23,.44,.15,.85,.4,1.21,.74,.36,.34,.65,.79,.87,1.34s.32,1.24,.32,2.06v.57h-6.73v-1.16h5.36c0-.49-.1-.93-.29-1.32-.2-.38-.47-.69-.83-.91-.36-.22-.78-.34-1.26-.34-.53,0-1,.13-1.38,.4-.39,.26-.69,.6-.89,1.03-.21,.42-.31,.87-.31,1.35v.77c0,.66,.11,1.22,.34,1.67,.23,.46,.55,.8,.96,1.04s.88,.36,1.43,.36c.35,0,.67-.05,.96-.15,.29-.1,.53-.25,.74-.46,.21-.2,.37-.46,.48-.76l1.29,.37c-.14,.44-.37,.82-.69,1.16-.32,.33-.72,.59-1.19,.77-.47,.18-1.01,.28-1.6,.28Z"/><path class="d" d="M607.8,239.56v5.25h-1.34v-8.73h1.29v1.36h.11c.2-.44,.51-.8,.93-1.07,.42-.27,.95-.41,1.61-.41,.59,0,1.11,.12,1.55,.36,.44,.24,.79,.61,1.03,1.09,.25,.49,.37,1.1,.37,1.84v5.54h-1.34v-5.45c0-.69-.18-1.22-.53-1.61-.36-.38-.84-.58-1.47-.58-.43,0-.81,.09-1.15,.28s-.6,.46-.79,.81c-.19,.36-.29,.79-.29,1.29Z"/><path class="d" d="M615.82,244.81v-8.73h1.34v8.73h-1.34Zm.07-9.91l1.39-2.64h1.57l-1.77,2.64h-1.18Z"/><path class="d" d="M410.1,264.01v-11.64h1.34v11.64h-1.34Zm1.25-3.18l-.02-1.66h.27l3.82-3.89h1.66l-4.07,4.12h-.11l-1.54,1.43Zm4.29,3.18l-3.41-4.32,.96-.93,4.16,5.25h-1.71Z"/><path class="d" d="M426.6,264.19c-.73,0-1.37-.19-1.93-.55s-.99-.89-1.31-1.57-.47-1.48-.47-2.4,.16-1.71,.47-2.39c.31-.67,.75-1.19,1.31-1.56,.56-.37,1.21-.55,1.94-.55,.57,0,1.02,.09,1.35,.28,.33,.19,.59,.4,.76,.64s.31,.43,.41,.58h.11v-4.29h1.34v11.64h-1.29v-1.34h-.16c-.1,.16-.24,.36-.42,.6s-.44,.46-.78,.64-.79,.28-1.35,.28Zm.18-1.21c.54,0,.99-.14,1.36-.42,.37-.28,.65-.67,.85-1.18s.29-1.08,.29-1.74-.09-1.22-.28-1.71c-.19-.49-.47-.87-.84-1.15-.37-.28-.83-.41-1.38-.41s-1.04,.14-1.42,.43c-.38,.29-.66,.68-.85,1.18s-.28,1.05-.28,1.66,.1,1.18,.29,1.69,.47,.91,.85,1.21,.85,.45,1.41,.45Z"/><path class="d" d="M436.78,264.19c-.79,0-1.48-.19-2.07-.56-.59-.38-1.06-.9-1.39-1.57-.33-.67-.5-1.46-.5-2.36s.17-1.7,.5-2.38c.33-.68,.79-1.21,1.39-1.58,.59-.38,1.28-.56,2.07-.56s1.48,.19,2.07,.56,1.05,.9,1.39,1.58c.33,.68,.5,1.47,.5,2.38s-.17,1.69-.5,2.36c-.33,.67-.79,1.2-1.39,1.57s-1.28,.56-2.07,.56Zm0-1.21c.6,0,1.09-.15,1.48-.46,.39-.31,.67-.71,.86-1.21,.19-.5,.28-1.04,.28-1.62s-.09-1.13-.28-1.63c-.19-.5-.47-.91-.86-1.22-.39-.31-.88-.46-1.48-.46s-1.09,.15-1.48,.46c-.39,.31-.67,.72-.86,1.22s-.28,1.05-.28,1.63,.09,1.12,.28,1.62,.47,.9,.86,1.21c.39,.31,.88,.46,1.48,.46Z"/><path class="d" d="M448.96,257.24l-1.21,.34c-.08-.2-.19-.4-.33-.59s-.34-.35-.59-.47-.57-.19-.96-.19c-.53,0-.98,.12-1.33,.37-.35,.24-.53,.55-.53,.93,0,.33,.12,.6,.36,.79s.62,.36,1.14,.48l1.3,.32c.78,.19,1.36,.48,1.74,.87s.57,.89,.57,1.5c0,.5-.14,.95-.43,1.34-.29,.39-.69,.71-1.2,.93-.51,.23-1.11,.34-1.78,.34-.89,0-1.63-.19-2.21-.58-.58-.39-.95-.95-1.11-1.69l1.27-.32c.12,.47,.35,.82,.69,1.06,.34,.24,.78,.35,1.33,.35,.62,0,1.12-.13,1.49-.4,.37-.27,.55-.59,.55-.96,0-.3-.11-.56-.32-.77-.21-.21-.54-.36-.98-.46l-1.46-.34c-.8-.19-1.39-.48-1.76-.88-.37-.4-.56-.9-.56-1.5,0-.49,.14-.93,.42-1.31s.66-.68,1.14-.89c.48-.22,1.03-.32,1.65-.32,.86,0,1.54,.19,2.04,.57,.49,.38,.85,.88,1.05,1.5Z"/><path class="d" d="M453.71,264.21c-.55,0-1.06-.1-1.51-.31-.45-.21-.81-.52-1.07-.91-.26-.4-.4-.88-.4-1.45,0-.5,.1-.91,.29-1.22,.2-.31,.46-.56,.79-.73,.33-.18,.69-.31,1.09-.4,.4-.09,.8-.16,1.21-.21,.53-.07,.96-.12,1.29-.16,.33-.04,.57-.1,.73-.18s.23-.24,.23-.46v-.04c0-.56-.15-1-.46-1.31s-.77-.47-1.38-.47-1.14,.14-1.5,.42c-.36,.28-.62,.58-.77,.9l-1.27-.46c.23-.53,.53-.94,.91-1.24,.38-.3,.8-.51,1.25-.62,.45-.12,.9-.18,1.34-.18,.28,0,.6,.03,.97,.1,.37,.07,.72,.2,1.06,.41s.63,.51,.85,.93c.23,.41,.34,.97,.34,1.66v5.75h-1.34v-1.18h-.07c-.09,.19-.24,.39-.46,.61-.21,.21-.49,.4-.85,.55-.35,.15-.78,.23-1.29,.23Zm.2-1.2c.53,0,.98-.11,1.34-.31,.37-.21,.64-.48,.83-.81,.19-.33,.28-.68,.28-1.04v-1.23c-.06,.07-.18,.13-.37,.18-.19,.06-.41,.1-.66,.14-.25,.04-.49,.07-.72,.1-.23,.03-.42,.05-.57,.07-.35,.04-.67,.12-.97,.22-.3,.1-.54,.25-.73,.45s-.28,.47-.28,.81c0,.47,.17,.82,.52,1.05s.79,.36,1.32,.36Z"/><path class="d" d="M459.91,264.01v-1.02l4.95-6.36v-.09h-4.79v-1.25h6.52v1.07l-4.82,6.32v.09h4.98v1.25h-6.84Zm2.16-12.23l1.18,1.59,1.18-1.59h1.27v.09l-1.84,2.36h-1.23l-1.84-2.36v-.09h1.27Z"/><path class="d" d="M472.23,264.19c-.84,0-1.57-.19-2.17-.56-.61-.37-1.08-.89-1.4-1.57-.33-.67-.49-1.46-.49-2.35s.16-1.68,.49-2.37c.33-.68,.79-1.22,1.38-1.6,.59-.38,1.28-.58,2.07-.58,.45,0,.9,.08,1.35,.23,.44,.15,.85,.4,1.21,.73,.36,.34,.65,.79,.87,1.34s.32,1.24,.32,2.06v.57h-6.73v-1.16h5.36c0-.49-.1-.93-.29-1.32s-.47-.69-.83-.91c-.36-.22-.78-.34-1.26-.34-.53,0-1,.13-1.38,.39-.39,.26-.69,.61-.89,1.03s-.31,.87-.31,1.35v.77c0,.66,.11,1.22,.34,1.67s.55,.8,.96,1.04c.41,.24,.88,.36,1.43,.36,.35,0,.67-.05,.96-.15s.53-.25,.74-.46c.21-.2,.37-.46,.48-.76l1.29,.36c-.14,.44-.37,.82-.69,1.16-.32,.33-.72,.59-1.19,.77-.47,.18-1.01,.28-1.6,.28Z"/><path class="d" d="M479.23,258.76v5.25h-1.34v-8.73h1.29v1.37h.11c.2-.44,.51-.8,.93-1.07,.42-.27,.95-.41,1.61-.41,.59,0,1.11,.12,1.55,.36,.44,.24,.79,.6,1.03,1.09,.25,.49,.37,1.1,.37,1.84v5.55h-1.34v-5.46c0-.69-.18-1.22-.53-1.61-.36-.38-.84-.58-1.47-.58-.43,0-.81,.09-1.15,.28-.33,.19-.6,.46-.79,.81-.19,.36-.29,.79-.29,1.3Z"/><path class="d" d="M487.25,264.01v-8.73h1.34v8.73h-1.34Zm.07-9.91l1.39-2.64h1.57l-1.77,2.64h-1.18Z"/><path class="d" d="M499.09,264.19c-.82,0-1.52-.19-2.11-.58s-1.05-.92-1.36-1.6c-.32-.68-.48-1.45-.48-2.32s.16-1.67,.49-2.35c.33-.68,.79-1.21,1.38-1.6,.59-.38,1.28-.58,2.07-.58,.61,0,1.17,.11,1.66,.34,.49,.23,.9,.54,1.21,.95,.31,.41,.51,.89,.58,1.43h-1.34c-.1-.4-.33-.75-.68-1.06s-.82-.46-1.41-.46c-.52,0-.98,.13-1.37,.41-.39,.27-.7,.65-.92,1.14s-.33,1.06-.33,1.72,.11,1.26,.32,1.76c.21,.5,.52,.89,.91,1.17,.39,.28,.85,.41,1.38,.41,.35,0,.67-.06,.95-.18s.52-.29,.72-.52c.2-.23,.34-.5,.42-.82h1.34c-.08,.52-.26,.98-.56,1.39-.3,.41-.69,.74-1.18,.98s-1.05,.36-1.7,.36Z"/><path class="d" d="M504.48,264.01v-8.73h1.34v8.73h-1.34Zm.07-9.91l1.39-2.64h1.57l-1.77,2.64h-1.18Z"/><path class="d" d="M509.62,252.37v11.64h-1.34v-11.64h1.34Z"/><path class="d" d="M515.73,264.19c-.84,0-1.57-.19-2.17-.56-.61-.37-1.08-.89-1.4-1.57-.33-.67-.49-1.46-.49-2.35s.16-1.68,.49-2.37c.33-.68,.79-1.22,1.38-1.6,.59-.38,1.28-.58,2.07-.58,.45,0,.9,.08,1.35,.23,.44,.15,.85,.4,1.21,.73,.36,.34,.65,.79,.87,1.34s.32,1.24,.32,2.06v.57h-6.73v-1.16h5.36c0-.49-.1-.93-.29-1.32s-.47-.69-.83-.91c-.36-.22-.78-.34-1.26-.34-.53,0-1,.13-1.38,.39-.39,.26-.69,.61-.89,1.03s-.31,.87-.31,1.35v.77c0,.66,.11,1.22,.34,1.67s.55,.8,.96,1.04c.41,.24,.88,.36,1.43,.36,.35,0,.67-.05,.96-.15s.53-.25,.74-.46c.21-.2,.37-.46,.48-.76l1.29,.36c-.14,.44-.37,.82-.69,1.16-.32,.33-.72,.59-1.19,.77-.47,.18-1.01,.28-1.6,.28Z"/><path class="d" d="M525.89,267.28v-12h1.29v1.39h.16c.1-.15,.24-.35,.41-.58s.43-.45,.76-.64c.33-.19,.78-.28,1.35-.28,.74,0,1.38,.18,1.94,.55,.56,.37,1,.89,1.31,1.56,.31,.68,.47,1.47,.47,2.39s-.16,1.72-.47,2.4-.75,1.2-1.31,1.57-1.2,.55-1.93,.55c-.56,0-1.01-.09-1.35-.28s-.6-.4-.78-.64-.32-.44-.42-.6h-.11v4.61h-1.34Zm1.32-7.63c0,.66,.1,1.24,.29,1.74s.48,.89,.85,1.18c.37,.28,.83,.42,1.36,.42s1.03-.15,1.41-.45c.38-.3,.66-.7,.85-1.21s.29-1.07,.29-1.69-.09-1.17-.28-1.66-.47-.89-.85-1.18c-.38-.29-.85-.43-1.42-.43s-1,.14-1.38,.41c-.37,.27-.65,.66-.84,1.15-.19,.49-.28,1.06-.28,1.71Z"/><path class="d" d="M535.64,264.01v-8.73h1.29v1.32h.09c.16-.43,.45-.78,.86-1.05,.42-.27,.89-.4,1.41-.4,.1,0,.22,0,.37,0,.15,0,.26,0,.33,.02v1.36s-.15-.03-.31-.05c-.16-.03-.33-.04-.51-.04-.42,0-.8,.09-1.13,.26-.33,.18-.59,.42-.78,.73-.19,.31-.29,.66-.29,1.05v5.52h-1.34Z"/><path class="d" d="M544.87,264.19c-.79,0-1.48-.19-2.07-.56-.59-.38-1.06-.9-1.39-1.57-.33-.67-.5-1.46-.5-2.36s.17-1.7,.5-2.38c.33-.68,.79-1.21,1.39-1.58,.59-.38,1.28-.56,2.07-.56s1.48,.19,2.07,.56,1.05,.9,1.39,1.58c.33,.68,.5,1.47,.5,2.38s-.17,1.69-.5,2.36c-.33,.67-.79,1.2-1.39,1.57s-1.28,.56-2.07,.56Zm0-1.21c.6,0,1.09-.15,1.48-.46,.39-.31,.67-.71,.86-1.21,.19-.5,.28-1.04,.28-1.62s-.09-1.13-.28-1.63c-.19-.5-.47-.91-.86-1.22-.39-.31-.88-.46-1.48-.46s-1.09,.15-1.48,.46c-.39,.31-.67,.72-.86,1.22s-.28,1.05-.28,1.63,.09,1.12,.28,1.62,.47,.9,.86,1.21c.39,.31,.88,.46,1.48,.46Z"/><path class="d" d="M555.37,264.01v-8.73h1.29v1.32h.09c.16-.43,.45-.78,.86-1.05,.42-.27,.89-.4,1.41-.4,.1,0,.22,0,.37,0,.15,0,.26,0,.33,.02v1.36s-.15-.03-.31-.05c-.16-.03-.33-.04-.51-.04-.42,0-.8,.09-1.13,.26-.33,.18-.59,.42-.78,.73-.19,.31-.29,.66-.29,1.05v5.52h-1.34Z"/><path class="d" d="M564.59,264.19c-.79,0-1.48-.19-2.07-.56-.59-.38-1.06-.9-1.39-1.57-.33-.67-.5-1.46-.5-2.36s.17-1.7,.5-2.38c.33-.68,.79-1.21,1.39-1.58,.59-.38,1.28-.56,2.07-.56s1.48,.19,2.07,.56,1.05,.9,1.39,1.58c.33,.68,.5,1.47,.5,2.38s-.17,1.69-.5,2.36c-.33,.67-.79,1.2-1.39,1.57s-1.28,.56-2.07,.56Zm0-1.21c.6,0,1.09-.15,1.48-.46,.39-.31,.67-.71,.86-1.21,.19-.5,.28-1.04,.28-1.62s-.09-1.13-.28-1.63c-.19-.5-.47-.91-.86-1.22-.39-.31-.88-.46-1.48-.46s-1.09,.15-1.48,.46c-.39,.31-.67,.72-.86,1.22s-.28,1.05-.28,1.63,.09,1.12,.28,1.62,.47,.9,.86,1.21c.39,.31,.88,.46,1.48,.46Z"/><path class="d" d="M570.59,264.01v-11.64h1.34v11.64h-1.34Zm1.25-3.18l-.02-1.66h.27l3.82-3.89h1.66l-4.07,4.12h-.11l-1.54,1.43Zm4.29,3.18l-3.41-4.32,.96-.93,4.16,5.25h-1.71Z"/><path class="d" d="M583.77,264.01v-1.02l3.84-4.21c.45-.49,.82-.92,1.11-1.29,.29-.37,.51-.71,.65-1.03,.14-.32,.21-.66,.21-1.02,0-.41-.1-.76-.29-1.06-.2-.3-.46-.53-.8-.69s-.72-.24-1.14-.24c-.45,0-.84,.09-1.17,.28-.33,.18-.59,.44-.77,.77-.18,.33-.27,.72-.27,1.16h-1.34c0-.68,.16-1.28,.47-1.8,.31-.51,.74-.92,1.29-1.2,.54-.29,1.15-.43,1.83-.43s1.29,.14,1.81,.43c.53,.29,.94,.68,1.24,1.16,.3,.49,.45,1.03,.45,1.63,0,.43-.08,.85-.23,1.25-.15,.41-.42,.86-.79,1.36s-.9,1.1-1.57,1.82l-2.61,2.79v.09h5.41v1.25h-7.34Z"/><path class="d" d="M597.25,264.17c-.86,0-1.58-.23-2.19-.7-.6-.47-1.06-1.15-1.38-2.04-.32-.89-.48-1.97-.48-3.24s.16-2.33,.48-3.22,.78-1.57,1.39-2.04c.6-.47,1.33-.71,2.18-.71s1.58,.24,2.18,.71c.6,.47,1.07,1.15,1.39,2.04s.48,1.97,.48,3.22-.16,2.34-.48,3.24c-.32,.89-.78,1.57-1.38,2.04-.6,.47-1.33,.7-2.19,.7Zm0-1.25c.85,0,1.51-.41,1.98-1.23s.7-1.98,.7-3.5c0-1.01-.11-1.87-.32-2.57-.21-.71-.52-1.25-.92-1.62s-.88-.56-1.44-.56c-.84,0-1.5,.41-1.97,1.24-.47,.83-.71,2-.71,3.51,0,1.01,.11,1.86,.32,2.57,.21,.7,.52,1.24,.92,1.61s.88,.55,1.45,.55Z"/><path class="d" d="M607.39,264.17c-.75,0-1.42-.13-2-.39-.59-.26-1.05-.62-1.39-1.08s-.53-.99-.56-1.61h1.43c.03,.38,.16,.7,.39,.97,.23,.27,.52,.48,.89,.63,.37,.15,.78,.22,1.22,.22,.5,0,.94-.09,1.33-.26,.39-.17,.69-.42,.91-.73s.33-.67,.33-1.08-.11-.8-.32-1.13c-.21-.33-.52-.58-.93-.77s-.91-.28-1.5-.28h-.93v-1.25h.93c.46,0,.87-.08,1.22-.25,.35-.17,.62-.4,.82-.71,.2-.3,.3-.66,.3-1.07s-.09-.74-.26-1.03c-.17-.29-.42-.52-.74-.68s-.69-.24-1.12-.24c-.4,0-.78,.07-1.13,.22s-.64,.36-.87,.63c-.22,.27-.34,.61-.36,.99h-1.36c.02-.61,.21-1.14,.55-1.6,.34-.46,.8-.82,1.35-1.08s1.17-.39,1.84-.39c.72,0,1.34,.15,1.85,.44,.51,.29,.91,.67,1.19,1.14,.28,.47,.42,.98,.42,1.54,0,.65-.17,1.21-.51,1.68-.34,.46-.81,.78-1.39,.96v.09c.73,.12,1.31,.43,1.72,.94,.41,.5,.62,1.12,.62,1.86,0,.63-.17,1.2-.51,1.7s-.81,.9-1.4,1.18-1.26,.43-2.02,.43Z"/><path class="d" d="M617.43,264.17c-.86,0-1.58-.23-2.19-.7-.6-.47-1.06-1.15-1.38-2.04-.32-.89-.48-1.97-.48-3.24s.16-2.33,.48-3.22,.78-1.57,1.39-2.04c.6-.47,1.33-.71,2.18-.71s1.58,.24,2.18,.71c.6,.47,1.07,1.15,1.39,2.04s.48,1.97,.48,3.22-.16,2.34-.48,3.24c-.32,.89-.78,1.57-1.38,2.04-.6,.47-1.33,.7-2.19,.7Zm0-1.25c.85,0,1.51-.41,1.98-1.23s.7-1.98,.7-3.5c0-1.01-.11-1.87-.32-2.57-.21-.71-.52-1.25-.92-1.62s-.88-.56-1.44-.56c-.84,0-1.5,.41-1.97,1.24-.47,.83-.71,2-.71,3.51,0,1.01,.11,1.86,.32,2.57,.21,.7,.52,1.24,.92,1.61s.88,.55,1.45,.55Z"/></g></g></g><g><line class="j" x1="236.13" y1="109.65" x2="365.12" y2="56.93"/><polygon class="e" points="365.66 62.1 371.77 54.21 361.89 52.86 365.66 62.1"/></g><g><line class="j" x1="236.13" y1="147.08" x2="365.12" y2="199.8"/><polygon class="e" points="361.89 203.87 371.77 202.52 365.66 194.64 361.89 203.87"/></g></g></g></svg>