<?xml version="1.0" encoding="UTF-8"?><svg xmlns="http://www.w3.org/2000/svg" viewBox="0 0 740 258.08"><defs><style>.c{fill:#999;}.d{fill:#333;}.e,.f{fill:#c3c3eb;}.g{fill:#4d4d4d;}.h{mix-blend-mode:multiply;}.i{fill:none;stroke:#c3c3eb;stroke-miterlimit:10;}.j{isolation:isolate;}.f{opacity:.5;}</style></defs><g class="j"><g id="a"><g><circle class="f" cx="239.83" cy="97.61" r="25.42"/><g class="h"><g><path class="d" d="M110.27,91.71v-1.64l6.53-9.17h-6.55v-2.28h10.02v1.64l-6.54,9.17h6.55v2.28h-10.02Z"/><path class="d" d="M126.84,91.9c-1.01,0-1.88-.21-2.61-.62-.73-.41-1.29-1-1.68-1.75-.39-.76-.59-1.65-.59-2.69s.2-1.9,.59-2.66c.39-.76,.95-1.36,1.66-1.78,.71-.43,1.55-.64,2.51-.64,.65,0,1.25,.1,1.81,.31,.56,.21,1.05,.52,1.47,.93,.42,.41,.75,.93,.98,1.56,.23,.62,.35,1.35,.35,2.19v.75h-8.29v-1.69h5.73c0-.39-.08-.74-.25-1.04-.17-.3-.41-.54-.71-.71-.3-.17-.65-.26-1.04-.26s-.78,.09-1.1,.28c-.32,.19-.57,.44-.75,.76-.18,.32-.27,.67-.27,1.06v1.61c0,.49,.09,.9,.27,1.26,.18,.35,.44,.62,.77,.82,.33,.19,.73,.29,1.18,.29,.3,0,.58-.04,.83-.13,.25-.08,.47-.21,.65-.38,.18-.17,.32-.38,.41-.63l2.52,.17c-.13,.61-.39,1.13-.78,1.58-.39,.45-.9,.8-1.52,1.05-.62,.25-1.33,.37-2.14,.37Z"/><path class="d" d="M135.84,78.62v13.09h-2.72v-13.09h2.72Z"/><path class="d" d="M142.49,91.9c-1.01,0-1.88-.21-2.61-.62-.73-.41-1.29-1-1.68-1.75-.39-.76-.59-1.65-.59-2.69s.2-1.9,.59-2.66c.39-.76,.95-1.36,1.66-1.78,.71-.43,1.55-.64,2.51-.64,.65,0,1.25,.1,1.81,.31,.56,.21,1.05,.52,1.47,.93,.42,.41,.75,.93,.98,1.56,.23,.62,.35,1.35,.35,2.19v.75h-8.29v-1.69h5.73c0-.39-.08-.74-.25-1.04-.17-.3-.41-.54-.71-.71-.3-.17-.65-.26-1.04-.26s-.78,.09-1.1,.28c-.32,.19-.57,.44-.75,.76-.18,.32-.27,.67-.27,1.06v1.61c0,.49,.09,.9,.27,1.26,.18,.35,.44,.62,.77,.82,.33,.19,.73,.29,1.18,.29,.3,0,.58-.04,.83-.13,.25-.08,.47-.21,.65-.38,.18-.17,.32-.38,.41-.63l2.52,.17c-.13,.61-.39,1.13-.78,1.58-.39,.45-.9,.8-1.52,1.05-.62,.25-1.33,.37-2.14,.37Z"/><path class="d" d="M151.5,86.03v5.68h-2.72v-9.82h2.59v1.73h.12c.22-.57,.58-1.02,1.09-1.36,.51-.33,1.13-.5,1.86-.5,.68,0,1.28,.15,1.78,.45s.9,.72,1.18,1.28c.28,.55,.42,1.21,.42,1.97v6.25h-2.72v-5.77c0-.6-.15-1.07-.46-1.41-.31-.34-.74-.51-1.28-.51-.37,0-.69,.08-.97,.24-.28,.16-.5,.39-.65,.69-.16,.3-.24,.66-.24,1.08Z"/><path class="d" d="M162.77,91.89c-.63,0-1.19-.11-1.67-.33-.49-.22-.88-.55-1.16-.98-.28-.43-.43-.97-.43-1.62,0-.54,.1-1,.3-1.37,.2-.37,.47-.67,.82-.9,.34-.22,.74-.39,1.18-.51,.44-.12,.9-.2,1.39-.24,.57-.06,1.03-.12,1.38-.17,.35-.05,.6-.13,.76-.24,.16-.11,.24-.26,.24-.47v-.04c0-.4-.13-.72-.38-.94-.25-.22-.61-.33-1.08-.33-.49,0-.88,.11-1.17,.32s-.48,.48-.58,.81l-2.52-.21c.13-.6,.38-1.11,.75-1.55,.38-.44,.86-.77,1.45-1.01,.59-.24,1.28-.36,2.07-.36,.54,0,1.07,.06,1.57,.19,.5,.13,.95,.33,1.34,.59,.39,.27,.7,.61,.92,1.03,.23,.42,.34,.92,.34,1.51v6.62h-2.58v-1.36h-.08c-.16,.31-.37,.58-.63,.81-.26,.23-.58,.41-.95,.54-.37,.13-.8,.2-1.28,.2Zm.78-1.88c.4,0,.75-.08,1.06-.24s.55-.38,.72-.65,.26-.58,.26-.93v-1.04c-.09,.05-.2,.11-.35,.15s-.31,.09-.5,.12c-.18,.04-.37,.07-.55,.1-.18,.03-.35,.05-.5,.07-.32,.05-.6,.12-.84,.22-.24,.1-.42,.24-.56,.41-.13,.17-.2,.39-.2,.64,0,.37,.14,.65,.41,.85s.61,.29,1.03,.29Zm-.29-9.39l1.36-2.91h2.52l-1.95,2.91h-1.92Z"/><path class="d" d="M178.2,91.87c-.75,0-1.42-.19-2.02-.58-.6-.39-1.08-.96-1.43-1.71s-.53-1.68-.53-2.77,.18-2.06,.54-2.81,.84-1.31,1.45-1.68c.6-.37,1.26-.56,1.98-.56,.55,0,1.01,.09,1.38,.28,.37,.19,.67,.42,.9,.69,.23,.27,.4,.54,.52,.81h.08v-4.92h2.72v13.09h-2.68v-1.57h-.12c-.13,.27-.31,.54-.54,.81-.23,.27-.53,.49-.9,.66-.37,.17-.82,.26-1.35,.26Zm.86-2.17c.44,0,.81-.12,1.12-.36,.3-.24,.54-.58,.7-1.01s.25-.94,.25-1.53-.08-1.09-.24-1.52c-.16-.43-.4-.76-.7-1-.31-.23-.68-.35-1.12-.35s-.82,.12-1.13,.37c-.31,.24-.54,.58-.7,1.01s-.24,.93-.24,1.5,.08,1.07,.24,1.51c.16,.44,.39,.78,.7,1.02,.3,.25,.68,.37,1.13,.37Z"/><path class="d" d="M190.46,91.9c-.99,0-1.85-.21-2.57-.63-.72-.42-1.28-1.02-1.67-1.78-.39-.76-.59-1.64-.59-2.65s.2-1.9,.59-2.66c.39-.76,.95-1.35,1.67-1.78,.72-.43,1.58-.64,2.57-.64s1.85,.21,2.57,.64c.72,.42,1.28,1.02,1.67,1.78,.39,.76,.59,1.65,.59,2.66s-.2,1.89-.59,2.65c-.39,.76-.95,1.35-1.67,1.78-.72,.42-1.58,.63-2.57,.63Zm.01-2.11c.45,0,.83-.13,1.13-.39s.53-.61,.69-1.06c.16-.45,.23-.96,.23-1.53s-.08-1.08-.23-1.53c-.16-.45-.38-.8-.69-1.06s-.68-.39-1.13-.39-.84,.13-1.15,.39c-.31,.26-.54,.61-.7,1.06-.16,.45-.23,.96-.23,1.53s.08,1.08,.23,1.53,.39,.8,.7,1.06c.31,.26,.69,.39,1.15,.39Z"/><path class="d" d="M199.79,86.03v5.68h-2.72v-13.09h2.65v5h.11c.22-.58,.58-1.03,1.07-1.36,.49-.33,1.11-.5,1.86-.5,.68,0,1.28,.15,1.79,.44,.51,.3,.91,.72,1.19,1.27,.28,.55,.42,1.21,.42,1.98v6.25h-2.72v-5.77c0-.61-.15-1.08-.46-1.41s-.74-.51-1.29-.51c-.37,0-.7,.08-.98,.24-.28,.16-.5,.39-.67,.69-.16,.3-.24,.66-.25,1.08Z"/><path class="d" d="M212.74,91.9c-.99,0-1.85-.21-2.57-.63-.72-.42-1.28-1.02-1.67-1.78-.39-.76-.59-1.64-.59-2.65s.2-1.9,.59-2.66c.39-.76,.95-1.35,1.67-1.78,.72-.43,1.58-.64,2.57-.64s1.85,.21,2.57,.64c.72,.42,1.28,1.02,1.67,1.78,.39,.76,.59,1.65,.59,2.66s-.2,1.89-.59,2.65c-.39,.76-.95,1.35-1.67,1.78-.72,.42-1.58,.63-2.57,.63Zm.01-2.11c.45,0,.83-.13,1.13-.39s.53-.61,.69-1.06c.16-.45,.23-.96,.23-1.53s-.08-1.08-.23-1.53c-.16-.45-.38-.8-.69-1.06s-.68-.39-1.13-.39-.84,.13-1.15,.39c-.31,.26-.54,.61-.7,1.06-.16,.45-.23,.96-.23,1.53s.08,1.08,.23,1.53,.39,.8,.7,1.06c.31,.26,.69,.39,1.15,.39Z"/><path class="d" d="M222.97,91.87c-.75,0-1.42-.19-2.02-.58-.6-.39-1.08-.96-1.43-1.71s-.53-1.68-.53-2.77,.18-2.06,.54-2.81,.84-1.31,1.45-1.68c.6-.37,1.26-.56,1.98-.56,.55,0,1.01,.09,1.38,.28,.37,.19,.67,.42,.9,.69,.23,.27,.4,.54,.52,.81h.08v-4.92h2.72v13.09h-2.68v-1.57h-.12c-.13,.27-.31,.54-.54,.81-.23,.27-.53,.49-.9,.66-.37,.17-.82,.26-1.35,.26Zm.86-2.17c.44,0,.81-.12,1.12-.36,.3-.24,.54-.58,.7-1.01s.25-.94,.25-1.53-.08-1.09-.24-1.52c-.16-.43-.4-.76-.7-1-.31-.23-.68-.35-1.12-.35s-.82,.12-1.13,.37c-.31,.24-.54,.58-.7,1.01s-.24,.93-.24,1.5,.08,1.07,.24,1.51c.16,.44,.39,.78,.7,1.02,.3,.25,.68,.37,1.13,.37Z"/><path class="d" d="M233.58,91.89c-.63,0-1.19-.11-1.67-.33-.49-.22-.88-.55-1.16-.98-.28-.43-.43-.97-.43-1.62,0-.54,.1-1,.3-1.37,.2-.37,.47-.67,.82-.9,.34-.22,.74-.39,1.18-.51,.44-.12,.9-.2,1.39-.24,.57-.06,1.03-.12,1.38-.17,.35-.05,.6-.13,.76-.24,.16-.11,.24-.26,.24-.47v-.04c0-.4-.13-.72-.38-.94-.25-.22-.61-.33-1.08-.33-.49,0-.88,.11-1.17,.32s-.48,.48-.58,.81l-2.52-.21c.13-.6,.38-1.11,.75-1.55,.38-.44,.86-.77,1.45-1.01,.59-.24,1.28-.36,2.07-.36,.54,0,1.07,.06,1.57,.19,.5,.13,.95,.33,1.34,.59,.39,.27,.7,.61,.92,1.03,.23,.42,.34,.92,.34,1.51v6.62h-2.58v-1.36h-.08c-.16,.31-.37,.58-.63,.81-.26,.23-.58,.41-.95,.54-.37,.13-.8,.2-1.28,.2Zm.78-1.88c.4,0,.75-.08,1.06-.24s.55-.38,.72-.65,.26-.58,.26-.93v-1.04c-.09,.05-.2,.11-.35,.15s-.31,.09-.5,.12c-.18,.04-.37,.07-.55,.1-.18,.03-.35,.05-.5,.07-.32,.05-.6,.12-.84,.22-.24,.1-.42,.24-.56,.41-.13,.17-.2,.39-.2,.64,0,.37,.14,.65,.41,.85s.61,.29,1.03,.29Z"/><path class="d" d="M145.64,116.99v-13.5h2.68v1.65h.12c.12-.27,.29-.54,.52-.81,.23-.28,.53-.51,.89-.69s.83-.28,1.38-.28c.72,0,1.38,.19,1.98,.56,.6,.37,1.09,.93,1.45,1.68,.36,.75,.54,1.68,.54,2.81s-.18,2.02-.53,2.77-.83,1.32-1.43,1.71c-.6,.38-1.28,.58-2.02,.58-.53,0-.98-.09-1.35-.26-.37-.18-.67-.39-.9-.66-.23-.27-.41-.54-.54-.81h-.08v5.25h-2.72Zm2.67-8.59c0,.58,.08,1.09,.24,1.53s.4,.77,.7,1.01c.31,.24,.68,.36,1.12,.36s.82-.12,1.12-.37c.31-.24,.54-.59,.7-1.02,.16-.44,.24-.94,.24-1.51s-.08-1.07-.24-1.5c-.16-.43-.39-.77-.7-1.01s-.68-.37-1.13-.37-.82,.12-1.12,.35-.54,.57-.7,1-.24,.94-.24,1.52Z"/><path class="d" d="M157.02,113.31v-9.82h2.64v1.71h.1c.18-.61,.48-1.07,.9-1.38s.91-.47,1.46-.47c.14,0,.28,0,.44,.03,.16,.02,.3,.04,.42,.07v2.42c-.13-.04-.3-.07-.53-.1-.23-.03-.43-.04-.62-.04-.4,0-.76,.09-1.07,.26-.31,.17-.56,.41-.74,.72-.18,.31-.27,.66-.27,1.06v5.55h-2.72Z"/><path class="d" d="M168.35,113.5c-.99,0-1.85-.21-2.57-.63-.72-.42-1.28-1.02-1.67-1.78-.39-.76-.59-1.64-.59-2.65s.2-1.9,.59-2.66c.39-.76,.95-1.35,1.67-1.78,.72-.43,1.58-.64,2.57-.64s1.85,.21,2.57,.64c.72,.42,1.28,1.02,1.67,1.78,.39,.76,.59,1.65,.59,2.66s-.2,1.89-.59,2.65c-.39,.76-.95,1.35-1.67,1.78-.72,.42-1.58,.63-2.57,.63Zm.01-2.11c.45,0,.83-.13,1.13-.39s.53-.61,.69-1.06c.16-.45,.23-.96,.23-1.53s-.08-1.08-.23-1.53c-.16-.45-.38-.8-.69-1.06s-.68-.39-1.13-.39-.84,.13-1.15,.39c-.31,.26-.54,.61-.7,1.06-.16,.45-.23,.96-.23,1.53s.08,1.08,.23,1.53,.39,.8,.7,1.06c.31,.26,.69,.39,1.15,.39Z"/><path class="d" d="M179.19,113.31v-13.09h8.82v2.28h-6.05v3.12h5.6v2.28h-5.6v3.12h6.08v2.28h-8.85Z"/><path class="d" d="M199.32,103.49l-3.43,9.82h-3.07l-3.43-9.82h2.88l2.04,7.03h.1l2.03-7.03h2.88Z"/><path class="d" d="M200.71,113.31v-9.82h2.64v1.71h.1c.18-.61,.48-1.07,.9-1.38s.91-.47,1.46-.47c.14,0,.28,0,.44,.03,.16,.02,.3,.04,.42,.07v2.42c-.13-.04-.3-.07-.53-.1-.23-.03-.43-.04-.62-.04-.4,0-.76,.09-1.07,.26-.31,.17-.56,.41-.74,.72-.18,.31-.27,.66-.27,1.06v5.55h-2.72Z"/><path class="d" d="M212.04,113.5c-.99,0-1.85-.21-2.57-.63-.72-.42-1.28-1.02-1.67-1.78-.39-.76-.59-1.64-.59-2.65s.2-1.9,.59-2.66c.39-.76,.95-1.35,1.67-1.78,.72-.43,1.58-.64,2.57-.64s1.85,.21,2.57,.64c.72,.42,1.28,1.02,1.67,1.78,.39,.76,.59,1.65,.59,2.66s-.2,1.89-.59,2.65c-.39,.76-.95,1.35-1.67,1.78-.72,.42-1.58,.63-2.57,.63Zm.01-2.11c.45,0,.83-.13,1.13-.39s.53-.61,.69-1.06c.16-.45,.23-.96,.23-1.53s-.08-1.08-.23-1.53c-.16-.45-.38-.8-.69-1.06s-.68-.39-1.13-.39-.84,.13-1.15,.39c-.31,.26-.54,.61-.7,1.06-.16,.45-.23,.96-.23,1.53s.08,1.08,.23,1.53,.39,.8,.7,1.06c.31,.26,.69,.39,1.15,.39Z"/><path class="d" d="M218.65,116.99v-13.5h2.68v1.65h.12c.12-.27,.29-.54,.52-.81,.23-.28,.53-.51,.89-.69s.83-.28,1.38-.28c.72,0,1.38,.19,1.98,.56,.6,.37,1.09,.93,1.45,1.68,.36,.75,.54,1.68,.54,2.81s-.18,2.02-.53,2.77-.83,1.32-1.43,1.71c-.6,.38-1.28,.58-2.02,.58-.53,0-.98-.09-1.35-.26-.37-.18-.67-.39-.9-.66-.23-.27-.41-.54-.54-.81h-.08v5.25h-2.72Zm2.67-8.59c0,.58,.08,1.09,.24,1.53s.4,.77,.7,1.01c.31,.24,.68,.36,1.12,.36s.82-.12,1.12-.37c.31-.24,.54-.59,.7-1.02,.16-.44,.24-.94,.24-1.51s-.08-1.07-.24-1.5c-.16-.43-.39-.77-.7-1.01s-.68-.37-1.13-.37-.82,.12-1.12,.35-.54,.57-.7,1-.24,.94-.24,1.52Z"/><path class="d" d="M236.33,109.13v-5.64h2.72v9.82h-2.61v-1.78h-.1c-.22,.58-.59,1.04-1.1,1.39-.51,.35-1.14,.53-1.88,.53-.66,0-1.23-.15-1.73-.45-.5-.3-.89-.72-1.17-1.27-.28-.55-.42-1.21-.42-1.97v-6.25h2.72v5.77c0,.58,.16,1.04,.47,1.38s.72,.51,1.23,.51c.33,0,.63-.08,.92-.23,.29-.15,.52-.38,.69-.67s.26-.67,.26-1.11Z"/></g></g><g class="h"><g><path class="g" d="M51.92,129.82c-.07-.58-.34-1.02-.83-1.34-.49-.32-1.08-.48-1.78-.48-.52,0-.96,.08-1.35,.25s-.68,.4-.9,.69-.32,.62-.32,.99c0,.31,.08,.58,.22,.8,.15,.22,.34,.4,.58,.55,.24,.15,.48,.27,.74,.36,.26,.09,.49,.17,.71,.22l1.18,.32c.3,.08,.64,.19,1.01,.33s.73,.33,1.07,.57,.63,.55,.85,.92,.34,.84,.34,1.38c0,.63-.16,1.2-.49,1.71-.33,.51-.8,.91-1.43,1.21s-1.39,.45-2.28,.45c-.83,0-1.55-.13-2.16-.4-.61-.27-1.08-.64-1.43-1.12-.35-.48-.54-1.04-.59-1.68h1.45c.04,.44,.19,.8,.45,1.09,.26,.29,.59,.5,.99,.64,.4,.14,.83,.21,1.29,.21,.54,0,1.02-.09,1.45-.26,.43-.18,.77-.42,1.02-.74s.38-.69,.38-1.11c0-.39-.11-.7-.32-.94-.22-.24-.5-.44-.85-.59-.35-.15-.73-.29-1.14-.4l-1.43-.41c-.91-.26-1.63-.63-2.16-1.12-.53-.49-.79-1.12-.79-1.9,0-.65,.18-1.22,.53-1.71,.35-.49,.83-.87,1.43-1.14s1.27-.41,2.01-.41,1.42,.13,2,.4c.58,.27,1.05,.63,1.39,1.09s.52,.99,.54,1.57h-1.36Z"/><path class="g" d="M59.37,129.82v1.14h-4.52v-1.14h4.52Zm-3.2-2.09h1.34v8.32c0,.38,.06,.66,.17,.85,.11,.19,.25,.31,.43,.38,.18,.06,.36,.09,.56,.09,.15,0,.27,0,.36-.03s.17-.03,.23-.04l.27,1.21c-.09,.03-.22,.07-.38,.11-.16,.04-.37,.05-.62,.05-.38,0-.75-.08-1.11-.24-.36-.16-.66-.41-.9-.74-.24-.33-.35-.75-.35-1.26v-8.68Z"/><path class="g" d="M61.39,138.55v-8.73h1.29v1.32h.09c.16-.43,.45-.78,.86-1.05,.42-.27,.89-.4,1.41-.4,.1,0,.22,0,.37,0s.26,0,.33,.02v1.36s-.15-.03-.31-.05c-.16-.02-.33-.04-.51-.04-.42,0-.8,.09-1.13,.27-.33,.18-.59,.42-.78,.73-.19,.31-.29,.66-.29,1.05v5.52h-1.34Z"/><path class="g" d="M69.92,138.75c-.55,0-1.06-.11-1.51-.31-.45-.21-.81-.52-1.07-.92-.26-.4-.4-.88-.4-1.45,0-.5,.1-.91,.29-1.22,.2-.31,.46-.56,.79-.74,.33-.18,.69-.31,1.09-.4,.4-.09,.8-.16,1.21-.21,.53-.07,.96-.12,1.29-.16s.57-.1,.73-.19c.15-.09,.23-.24,.23-.45v-.05c0-.56-.15-1-.46-1.31s-.77-.46-1.38-.46-1.14,.14-1.5,.42c-.36,.28-.62,.58-.77,.9l-1.27-.46c.23-.53,.53-.94,.91-1.24,.38-.3,.8-.51,1.25-.62,.45-.12,.9-.18,1.34-.18,.28,0,.6,.03,.97,.1,.37,.07,.72,.2,1.06,.41,.34,.2,.63,.51,.85,.93,.23,.41,.34,.96,.34,1.66v5.75h-1.34v-1.18h-.07c-.09,.19-.24,.39-.46,.61-.21,.22-.49,.4-.85,.55-.35,.15-.78,.23-1.29,.23Zm.2-1.21c.53,0,.98-.1,1.34-.31,.37-.21,.64-.48,.83-.81s.28-.68,.28-1.04v-1.23c-.06,.07-.18,.13-.37,.19s-.41,.1-.66,.14c-.25,.04-.49,.07-.72,.1-.23,.03-.42,.05-.57,.07-.35,.05-.67,.12-.97,.22-.3,.1-.54,.25-.73,.45s-.28,.47-.28,.81c0,.46,.17,.82,.52,1.05,.35,.24,.79,.36,1.32,.36Z"/><path class="g" d="M80.17,129.82v1.14h-4.52v-1.14h4.52Zm-3.2-2.09h1.34v8.32c0,.38,.06,.66,.17,.85,.11,.19,.25,.31,.43,.38,.18,.06,.36,.09,.56,.09,.15,0,.27,0,.36-.03s.17-.03,.23-.04l.27,1.21c-.09,.03-.22,.07-.38,.11-.16,.04-.37,.05-.62,.05-.38,0-.75-.08-1.11-.24-.36-.16-.66-.41-.9-.74-.24-.33-.35-.75-.35-1.26v-8.68Z"/><path class="g" d="M85.76,138.73c-.84,0-1.57-.19-2.17-.56-.61-.37-1.08-.9-1.4-1.57-.33-.67-.49-1.46-.49-2.35s.16-1.68,.49-2.37c.33-.68,.79-1.22,1.38-1.6s1.28-.58,2.07-.58c.45,0,.9,.08,1.35,.23,.44,.15,.85,.4,1.21,.74,.36,.34,.65,.79,.87,1.34s.32,1.24,.32,2.06v.57h-6.73v-1.16h5.36c0-.49-.1-.93-.29-1.32-.2-.38-.47-.69-.83-.91-.36-.22-.78-.34-1.26-.34-.53,0-1,.13-1.38,.4-.39,.26-.69,.6-.89,1.03-.21,.42-.31,.87-.31,1.35v.77c0,.66,.11,1.22,.34,1.67,.23,.46,.55,.8,.96,1.04s.88,.36,1.43,.36c.35,0,.67-.05,.96-.15,.29-.1,.53-.25,.74-.46,.21-.2,.37-.46,.48-.76l1.29,.37c-.14,.44-.37,.82-.69,1.16-.32,.33-.72,.59-1.19,.77-.47,.18-1.01,.28-1.6,.28Z"/><path class="g" d="M94.94,142c-.65,0-1.2-.08-1.67-.25-.47-.16-.85-.38-1.16-.65-.31-.27-.55-.55-.74-.86l1.07-.75c.12,.16,.27,.34,.46,.55,.19,.21,.44,.39,.76,.54,.32,.15,.75,.23,1.28,.23,.7,0,1.29-.17,1.74-.51,.46-.34,.69-.88,.69-1.6v-1.77h-.11c-.1,.16-.24,.36-.42,.59s-.44,.44-.77,.62-.79,.27-1.36,.27c-.7,0-1.34-.17-1.89-.5-.56-.33-1-.82-1.32-1.45-.32-.64-.49-1.41-.49-2.32s.16-1.67,.47-2.34c.31-.67,.75-1.18,1.31-1.55,.56-.37,1.21-.55,1.94-.55,.57,0,1.02,.09,1.35,.28s.59,.4,.77,.64c.18,.24,.32,.43,.42,.58h.14v-1.39h1.29v8.98c0,.75-.17,1.36-.51,1.83-.34,.47-.79,.82-1.36,1.04-.57,.22-1.2,.33-1.9,.33Zm-.05-4.79c.54,0,.99-.12,1.36-.37s.65-.6,.85-1.06c.19-.46,.29-1.02,.29-1.66s-.09-1.18-.28-1.66c-.19-.48-.47-.86-.84-1.13-.37-.27-.83-.41-1.38-.41s-1.04,.14-1.42,.43c-.38,.29-.66,.67-.85,1.16s-.28,1.02-.28,1.61,.1,1.14,.29,1.61,.47,.83,.85,1.09c.38,.26,.85,.39,1.41,.39Z"/><path class="g" d="M101.85,128.37c-.26,0-.49-.09-.67-.27-.19-.18-.28-.39-.28-.64s.09-.46,.28-.64,.41-.27,.67-.27,.49,.09,.67,.27,.28,.39,.28,.64-.09,.46-.28,.64c-.19,.18-.41,.27-.67,.27Zm-.68,10.18v-8.73h1.34v8.73h-1.34Z"/><path class="g" d="M108.51,138.73c-.82,0-1.52-.19-2.11-.58-.59-.39-1.05-.92-1.36-1.6-.32-.68-.48-1.45-.48-2.32s.16-1.67,.49-2.35c.33-.68,.79-1.21,1.38-1.6s1.28-.58,2.07-.58c.61,0,1.17,.11,1.66,.34,.49,.23,.9,.55,1.21,.96s.51,.89,.58,1.43h-1.34c-.1-.4-.33-.75-.68-1.06-.35-.31-.82-.46-1.41-.46-.52,0-.98,.14-1.37,.41-.39,.27-.7,.65-.92,1.14s-.33,1.07-.33,1.72,.11,1.26,.32,1.76c.21,.5,.52,.89,.91,1.16,.39,.28,.85,.42,1.38,.42,.35,0,.67-.06,.95-.18,.28-.12,.52-.3,.72-.52,.2-.23,.34-.5,.42-.82h1.34c-.08,.52-.26,.98-.56,1.39-.3,.41-.69,.74-1.18,.98-.49,.24-1.05,.36-1.7,.36Z"/><path class="g" d="M113.89,138.55v-11.64h1.34v11.64h-1.34Zm1.25-3.18l-.02-1.66h.27l3.82-3.89h1.66l-4.07,4.11h-.11l-1.54,1.43Zm4.29,3.18l-3.41-4.32,.96-.93,4.16,5.25h-1.71Z"/><path class="g" d="M123.46,141.82c-.23,0-.43-.02-.61-.05-.18-.04-.3-.07-.37-.11l.34-1.18c.33,.08,.61,.12,.86,.09s.47-.13,.67-.33c.2-.2,.37-.52,.54-.96l.25-.68-3.23-8.77h1.45l2.41,6.96h.09l2.41-6.96h1.45l-3.7,10c-.17,.45-.37,.82-.62,1.12-.25,.3-.53,.52-.86,.66-.32,.14-.69,.22-1.09,.22Zm1.75-13.18l1.39-2.64h1.57l-1.77,2.64h-1.18Z"/><path class="g" d="M139.3,138.73c-.73,0-1.37-.18-1.93-.55s-.99-.89-1.31-1.57-.47-1.48-.47-2.4,.16-1.71,.47-2.39,.75-1.2,1.31-1.56,1.21-.55,1.94-.55c.57,0,1.02,.09,1.35,.28,.33,.19,.59,.4,.76,.64,.18,.24,.31,.43,.41,.58h.11v-4.3h1.34v11.64h-1.29v-1.34h-.16c-.1,.16-.24,.36-.42,.6-.18,.24-.44,.45-.78,.64s-.79,.28-1.35,.28Zm.18-1.2c.54,0,.99-.14,1.36-.42,.37-.28,.65-.67,.85-1.18s.29-1.08,.29-1.74-.09-1.22-.28-1.71c-.19-.49-.47-.87-.84-1.15-.37-.27-.83-.41-1.38-.41s-1.04,.15-1.42,.44-.66,.68-.85,1.18-.28,1.05-.28,1.66,.1,1.19,.29,1.69c.19,.5,.47,.91,.85,1.2,.38,.3,.85,.45,1.41,.45Z"/><path class="g" d="M149.48,138.73c-.79,0-1.48-.19-2.07-.56-.59-.38-1.06-.9-1.39-1.57-.33-.68-.5-1.46-.5-2.37s.17-1.7,.5-2.38c.33-.68,.79-1.2,1.39-1.58,.59-.38,1.28-.56,2.07-.56s1.48,.19,2.07,.56,1.05,.9,1.39,1.58c.33,.68,.5,1.47,.5,2.38s-.17,1.69-.5,2.37c-.33,.67-.79,1.2-1.39,1.57s-1.28,.56-2.07,.56Zm0-1.2c.6,0,1.09-.15,1.48-.46s.67-.71,.86-1.21c.19-.5,.28-1.04,.28-1.62s-.09-1.13-.28-1.63c-.19-.5-.47-.91-.86-1.22s-.88-.47-1.48-.47-1.09,.16-1.48,.47c-.39,.31-.67,.72-.86,1.22-.19,.5-.28,1.05-.28,1.63s.09,1.12,.28,1.62,.47,.9,.86,1.21c.39,.31,.88,.46,1.48,.46Z"/><path class="g" d="M155.48,138.55v-11.64h1.34v11.64h-1.34Zm1.25-3.18l-.02-1.66h.27l3.82-3.89h1.66l-4.07,4.11h-.11l-1.54,1.43Zm4.29,3.18l-3.41-4.32,.96-.93,4.16,5.25h-1.71Z"/><path class="g" d="M169.69,134.98v-5.16h1.34v8.73h-1.34v-1.48h-.09c-.21,.44-.52,.82-.96,1.13s-.98,.46-1.64,.46c-.55,0-1.03-.12-1.46-.36s-.76-.61-1-1.09-.36-1.1-.36-1.84v-5.54h1.34v5.46c0,.63,.18,1.14,.54,1.52,.36,.38,.82,.57,1.37,.57,.33,0,.67-.08,1.02-.26,.35-.17,.64-.43,.88-.78,.24-.35,.36-.8,.36-1.35Z"/><path class="g" d="M173.48,138.55v-8.73h1.29v1.36h.11c.18-.46,.47-.83,.88-1.09s.89-.39,1.46-.39,1.06,.13,1.44,.39c.38,.26,.68,.62,.9,1.09h.09c.22-.45,.56-.81,1.01-1.08,.45-.27,.98-.4,1.61-.4,.78,0,1.42,.24,1.92,.73,.5,.49,.74,1.24,.74,2.27v5.84h-1.34v-5.84c0-.64-.18-1.11-.53-1.38-.35-.28-.77-.42-1.24-.42-.61,0-1.09,.19-1.43,.55-.34,.37-.5,.84-.5,1.4v5.68h-1.36v-5.98c0-.5-.16-.9-.48-1.2-.32-.3-.74-.46-1.24-.46-.35,0-.67,.09-.97,.28-.3,.19-.54,.44-.73,.77s-.28,.71-.28,1.13v5.45h-1.34Z"/><path class="g" d="M191.05,138.73c-.84,0-1.57-.19-2.17-.56-.61-.37-1.08-.9-1.4-1.57-.33-.67-.49-1.46-.49-2.35s.16-1.68,.49-2.37c.33-.68,.79-1.22,1.38-1.6s1.28-.58,2.07-.58c.45,0,.9,.08,1.35,.23,.44,.15,.85,.4,1.21,.74,.36,.34,.65,.79,.87,1.34s.32,1.24,.32,2.06v.57h-6.73v-1.16h5.36c0-.49-.1-.93-.29-1.32-.2-.38-.47-.69-.83-.91-.36-.22-.78-.34-1.26-.34-.53,0-1,.13-1.38,.4-.39,.26-.69,.6-.89,1.03-.21,.42-.31,.87-.31,1.35v.77c0,.66,.11,1.22,.34,1.67,.23,.46,.55,.8,.96,1.04s.88,.36,1.43,.36c.35,0,.67-.05,.96-.15,.29-.1,.53-.25,.74-.46,.21-.2,.37-.46,.48-.76l1.29,.37c-.14,.44-.37,.82-.69,1.16-.32,.33-.72,.59-1.19,.77-.47,.18-1.01,.28-1.6,.28Z"/><path class="g" d="M198.05,133.3v5.25h-1.34v-8.73h1.29v1.36h.11c.2-.44,.51-.8,.93-1.07,.42-.27,.95-.41,1.61-.41,.59,0,1.11,.12,1.55,.36,.44,.24,.79,.61,1.03,1.09,.25,.49,.37,1.1,.37,1.84v5.54h-1.34v-5.45c0-.69-.18-1.22-.53-1.61-.36-.38-.84-.58-1.47-.58-.43,0-.81,.09-1.15,.28s-.6,.46-.79,.81c-.19,.36-.29,.79-.29,1.29Z"/><path class="g" d="M209.87,129.82v1.14h-4.52v-1.14h4.52Zm-3.2-2.09h1.34v8.32c0,.38,.06,.66,.17,.85,.11,.19,.25,.31,.43,.38,.18,.06,.36,.09,.56,.09,.15,0,.27,0,.36-.03s.17-.03,.23-.04l.27,1.21c-.09,.03-.22,.07-.38,.11-.16,.04-.37,.05-.62,.05-.38,0-.75-.08-1.11-.24-.36-.16-.66-.41-.9-.74-.24-.33-.35-.75-.35-1.26v-8.68Z"/><path class="g" d="M216.39,141.82v-12h1.29v1.39h.16c.1-.15,.24-.35,.41-.58,.18-.24,.43-.45,.76-.64,.33-.19,.78-.28,1.35-.28,.74,0,1.38,.18,1.94,.55s1,.89,1.31,1.56,.47,1.47,.47,2.39-.16,1.72-.47,2.4-.75,1.2-1.31,1.57-1.2,.55-1.93,.55c-.56,0-1.01-.09-1.35-.28s-.6-.4-.78-.64c-.18-.24-.32-.44-.42-.6h-.11v4.61h-1.34Zm1.32-7.64c0,.66,.1,1.24,.29,1.74s.48,.89,.85,1.18c.37,.28,.83,.42,1.36,.42s1.03-.15,1.41-.45c.38-.3,.66-.7,.85-1.2,.19-.51,.29-1.07,.29-1.69s-.09-1.17-.28-1.66-.47-.89-.85-1.18-.85-.44-1.42-.44-1,.14-1.38,.41c-.37,.28-.65,.66-.84,1.15s-.28,1.06-.28,1.71Z"/><path class="g" d="M226.14,138.55v-8.73h1.29v1.32h.09c.16-.43,.45-.78,.86-1.05,.42-.27,.89-.4,1.41-.4,.1,0,.22,0,.37,0s.26,0,.33,.02v1.36s-.15-.03-.31-.05c-.16-.02-.33-.04-.51-.04-.42,0-.8,.09-1.13,.27-.33,.18-.59,.42-.78,.73-.19,.31-.29,.66-.29,1.05v5.52h-1.34Z"/><path class="g" d="M235.37,138.73c-.79,0-1.48-.19-2.07-.56-.59-.38-1.06-.9-1.39-1.57-.33-.68-.5-1.46-.5-2.37s.17-1.7,.5-2.38c.33-.68,.79-1.2,1.39-1.58,.59-.38,1.28-.56,2.07-.56s1.48,.19,2.07,.56,1.05,.9,1.39,1.58c.33,.68,.5,1.47,.5,2.38s-.17,1.69-.5,2.37c-.33,.67-.79,1.2-1.39,1.57s-1.28,.56-2.07,.56Zm0-1.2c.6,0,1.09-.15,1.48-.46s.67-.71,.86-1.21c.19-.5,.28-1.04,.28-1.62s-.09-1.13-.28-1.63c-.19-.5-.47-.91-.86-1.22s-.88-.47-1.48-.47-1.09,.16-1.48,.47c-.39,.31-.67,.72-.86,1.22-.19,.5-.28,1.05-.28,1.63s.09,1.12,.28,1.62,.47,.9,.86,1.21c.39,.31,.88,.46,1.48,.46Z"/><path class="g" d="M50.67,152.5v5.25h-1.34v-8.73h1.29v1.37h.11c.2-.44,.51-.8,.93-1.07,.42-.27,.95-.41,1.61-.41,.59,0,1.11,.12,1.55,.36,.44,.24,.79,.6,1.03,1.09,.25,.49,.37,1.1,.37,1.84v5.55h-1.34v-5.46c0-.69-.18-1.22-.53-1.61-.36-.38-.84-.58-1.47-.58-.43,0-.81,.09-1.15,.28-.33,.19-.6,.46-.79,.81-.19,.36-.29,.79-.29,1.3Z"/><path class="g" d="M61.26,157.95c-.55,0-1.06-.1-1.51-.31-.45-.21-.81-.52-1.07-.91-.26-.4-.4-.88-.4-1.45,0-.5,.1-.91,.29-1.22,.2-.31,.46-.56,.79-.73,.33-.18,.69-.31,1.09-.4,.4-.09,.8-.16,1.21-.21,.53-.07,.96-.12,1.29-.16,.33-.04,.57-.1,.73-.18s.23-.24,.23-.46v-.04c0-.56-.15-1-.46-1.31s-.77-.47-1.38-.47-1.14,.14-1.5,.42c-.36,.28-.62,.58-.77,.9l-1.27-.46c.23-.53,.53-.94,.91-1.24,.38-.3,.8-.51,1.25-.62,.45-.12,.9-.18,1.34-.18,.28,0,.6,.03,.97,.1,.37,.07,.72,.2,1.06,.41s.63,.51,.85,.93c.23,.41,.34,.97,.34,1.66v5.75h-1.34v-1.18h-.07c-.09,.19-.24,.39-.46,.61-.21,.21-.49,.4-.85,.55-.35,.15-.78,.23-1.29,.23Zm.2-1.2c.53,0,.98-.11,1.34-.31,.37-.21,.64-.48,.83-.81,.19-.33,.28-.68,.28-1.04v-1.23c-.06,.07-.18,.13-.37,.18-.19,.06-.41,.1-.66,.14-.25,.04-.49,.07-.72,.1-.23,.03-.42,.05-.57,.07-.35,.04-.67,.12-.97,.22-.3,.1-.54,.25-.73,.45s-.28,.47-.28,.81c0,.47,.17,.82,.52,1.05s.79,.36,1.32,.36Z"/><path class="g" d="M67.71,161.02v-12h1.29v1.39h.16c.1-.15,.24-.35,.41-.58s.43-.45,.76-.64c.33-.19,.78-.28,1.35-.28,.74,0,1.38,.18,1.94,.55,.56,.37,1,.89,1.31,1.56,.31,.68,.47,1.47,.47,2.39s-.16,1.72-.47,2.4-.75,1.2-1.31,1.57-1.2,.55-1.93,.55c-.56,0-1.01-.09-1.35-.28s-.6-.4-.78-.64-.32-.44-.42-.6h-.11v4.61h-1.34Zm1.32-7.63c0,.66,.1,1.24,.29,1.74s.48,.89,.85,1.18c.37,.28,.83,.42,1.36,.42s1.03-.15,1.41-.45c.38-.3,.66-.7,.85-1.21s.29-1.07,.29-1.69-.09-1.17-.28-1.66-.47-.89-.85-1.18c-.38-.29-.85-.43-1.42-.43s-1,.14-1.38,.41c-.37,.27-.65,.66-.84,1.15-.19,.49-.28,1.06-.28,1.71Z"/><path class="g" d="M78.8,146.11v11.64h-1.34v-11.64h1.34Z"/><path class="g" d="M82.6,152.5v5.25h-1.34v-8.73h1.29v1.37h.11c.2-.44,.51-.8,.93-1.07,.42-.27,.95-.41,1.61-.41,.59,0,1.11,.12,1.55,.36,.44,.24,.79,.6,1.03,1.09,.25,.49,.37,1.1,.37,1.84v5.55h-1.34v-5.46c0-.69-.18-1.22-.53-1.61-.36-.38-.84-.58-1.47-.58-.43,0-.81,.09-1.15,.28-.33,.19-.6,.46-.79,.81-.19,.36-.29,.79-.29,1.3Z"/><path class="g" d="M94.28,157.93c-.84,0-1.57-.19-2.17-.56-.61-.37-1.08-.89-1.4-1.57-.33-.67-.49-1.46-.49-2.35s.16-1.68,.49-2.37c.33-.68,.79-1.22,1.38-1.6,.59-.38,1.28-.58,2.07-.58,.45,0,.9,.08,1.35,.23,.44,.15,.85,.4,1.21,.73,.36,.34,.65,.79,.87,1.34s.32,1.24,.32,2.06v.57h-6.73v-1.16h5.36c0-.49-.1-.93-.29-1.32s-.47-.69-.83-.91c-.36-.22-.78-.34-1.26-.34-.53,0-1,.13-1.38,.39-.39,.26-.69,.61-.89,1.03s-.31,.87-.31,1.35v.77c0,.66,.11,1.22,.34,1.67s.55,.8,.96,1.04c.41,.24,.88,.36,1.43,.36,.35,0,.67-.05,.96-.15s.53-.25,.74-.46c.21-.2,.37-.46,.48-.76l1.29,.36c-.14,.44-.37,.82-.69,1.16-.32,.33-.72,.59-1.19,.77-.47,.18-1.01,.28-1.6,.28Zm-1.39-12.41l1.18,1.59,1.18-1.59h1.27v.09l-1.84,2.36h-1.23l-1.84-2.36v-.09h1.27Z"/><path class="g" d="M101.28,152.5v5.25h-1.34v-8.73h1.29v1.37h.11c.2-.44,.51-.8,.93-1.07,.42-.27,.95-.41,1.61-.41,.59,0,1.11,.12,1.55,.36,.44,.24,.79,.6,1.03,1.09,.25,.49,.37,1.1,.37,1.84v5.55h-1.34v-5.46c0-.69-.18-1.22-.53-1.61-.36-.38-.84-.58-1.47-.58-.43,0-.81,.09-1.15,.28-.33,.19-.6,.46-.79,.81-.19,.36-.29,.79-.29,1.3Z"/><path class="g" d="M109.3,157.75v-8.73h1.34v8.73h-1.34Zm.07-9.91l1.39-2.64h1.57l-1.77,2.64h-1.18Z"/><path class="g" d="M117.6,157.75v-11.64h1.34v11.64h-1.34Zm1.25-3.18l-.02-1.66h.27l3.82-3.89h1.66l-4.07,4.12h-.11l-1.54,1.43Zm4.29,3.18l-3.41-4.32,.96-.93,4.16,5.25h-1.71Z"/><path class="g" d="M127.64,146.11v11.64h-1.34v-11.64h1.34Z"/><path class="g" d="M130.78,147.57c-.26,0-.49-.09-.67-.27s-.28-.39-.28-.64,.09-.46,.28-.64c.19-.18,.41-.27,.67-.27s.49,.09,.67,.27c.19,.18,.28,.39,.28,.64s-.09,.46-.28,.64-.41,.27-.67,.27Zm-.68,10.18v-8.73h1.34v8.73h-1.34Z"/><path class="g" d="M133.89,157.75v-8.73h1.29v1.37h.11c.18-.47,.47-.83,.88-1.09,.41-.26,.89-.39,1.46-.39s1.06,.13,1.44,.39c.38,.26,.68,.62,.9,1.09h.09c.22-.45,.56-.81,1.01-1.08,.45-.27,.98-.4,1.61-.4,.78,0,1.42,.24,1.92,.73s.74,1.24,.74,2.27v5.84h-1.34v-5.84c0-.64-.18-1.1-.53-1.38-.35-.28-.77-.41-1.24-.41-.61,0-1.09,.18-1.43,.55-.34,.37-.5,.84-.5,1.4v5.68h-1.36v-5.98c0-.5-.16-.9-.48-1.2-.32-.3-.74-.46-1.24-.46-.35,0-.67,.09-.97,.28-.3,.19-.54,.44-.73,.77-.18,.33-.28,.71-.28,1.13v5.46h-1.34Z"/><path class="g" d="M150.37,157.95c-.55,0-1.06-.1-1.51-.31-.45-.21-.81-.52-1.07-.91-.26-.4-.4-.88-.4-1.45,0-.5,.1-.91,.29-1.22,.2-.31,.46-.56,.79-.73,.33-.18,.69-.31,1.09-.4,.4-.09,.8-.16,1.21-.21,.53-.07,.96-.12,1.29-.16,.33-.04,.57-.1,.73-.18s.23-.24,.23-.46v-.04c0-.56-.15-1-.46-1.31s-.77-.47-1.38-.47-1.14,.14-1.5,.42c-.36,.28-.62,.58-.77,.9l-1.27-.46c.23-.53,.53-.94,.91-1.24,.38-.3,.8-.51,1.25-.62,.45-.12,.9-.18,1.34-.18,.28,0,.6,.03,.97,.1,.37,.07,.72,.2,1.06,.41s.63,.51,.85,.93c.23,.41,.34,.97,.34,1.66v5.75h-1.34v-1.18h-.07c-.09,.19-.24,.39-.46,.61-.21,.21-.49,.4-.85,.55-.35,.15-.78,.23-1.29,.23Zm.2-1.2c.53,0,.98-.11,1.34-.31,.37-.21,.64-.48,.83-.81,.19-.33,.28-.68,.28-1.04v-1.23c-.06,.07-.18,.13-.37,.18-.19,.06-.41,.1-.66,.14-.25,.04-.49,.07-.72,.1-.23,.03-.42,.05-.57,.07-.35,.04-.67,.12-.97,.22-.3,.1-.54,.25-.73,.45s-.28,.47-.28,.81c0,.47,.17,.82,.52,1.05s.79,.36,1.32,.36Z"/><path class="g" d="M160.62,149.02v1.14h-4.52v-1.14h4.52Zm-3.2-2.09h1.34v8.32c0,.38,.06,.66,.17,.85,.11,.19,.25,.31,.43,.38,.18,.06,.36,.09,.56,.09,.15,0,.27,0,.36-.03,.09-.02,.17-.03,.23-.04l.27,1.2c-.09,.04-.22,.07-.38,.11-.16,.04-.37,.05-.62,.05-.38,0-.75-.08-1.11-.24-.36-.16-.66-.41-.9-.74-.24-.33-.35-.75-.35-1.26v-8.68Z"/><path class="g" d="M163.32,147.57c-.26,0-.49-.09-.67-.27s-.28-.39-.28-.64,.09-.46,.28-.64c.19-.18,.41-.27,.67-.27s.49,.09,.67,.27c.19,.18,.28,.39,.28,.64s-.09,.46-.28,.64-.41,.27-.67,.27Zm-.68,10.18v-8.73h1.34v8.73h-1.34Z"/><path class="g" d="M169.98,157.93c-.82,0-1.52-.19-2.11-.58s-1.05-.92-1.36-1.6c-.32-.68-.48-1.45-.48-2.32s.16-1.67,.49-2.35c.33-.68,.79-1.21,1.38-1.6,.59-.38,1.28-.58,2.07-.58,.61,0,1.17,.11,1.66,.34,.49,.23,.9,.54,1.21,.95,.31,.41,.51,.89,.58,1.43h-1.34c-.1-.4-.33-.75-.68-1.06s-.82-.46-1.41-.46c-.52,0-.98,.13-1.37,.41-.39,.27-.7,.65-.92,1.14s-.33,1.06-.33,1.72,.11,1.26,.32,1.76c.21,.5,.52,.89,.91,1.17,.39,.28,.85,.41,1.38,.41,.35,0,.67-.06,.95-.18s.52-.29,.72-.52c.2-.23,.34-.5,.42-.82h1.34c-.08,.52-.26,.98-.56,1.39-.3,.41-.69,.74-1.18,.98s-1.05,.36-1.7,.36Z"/><path class="g" d="M175.37,157.75v-11.64h1.34v11.64h-1.34Zm1.25-3.18l-.02-1.66h.27l3.82-3.89h1.66l-4.07,4.12h-.11l-1.54,1.43Zm4.29,3.18l-3.41-4.32,.96-.93,4.16,5.25h-1.71Z"/><path class="g" d="M184.94,161.02c-.23,0-.43-.02-.61-.05-.18-.04-.3-.07-.37-.11l.34-1.18c.33,.08,.61,.11,.86,.09,.25-.02,.47-.13,.67-.33,.2-.2,.37-.52,.54-.96l.25-.68-3.23-8.77h1.45l2.41,6.96h.09l2.41-6.96h1.45l-3.7,10c-.17,.45-.37,.83-.62,1.12s-.53,.52-.86,.66-.69,.21-1.09,.21Zm1.75-13.18l1.39-2.64h1.57l-1.77,2.64h-1.18Z"/><path class="g" d="M196.21,157.93c-.82,0-1.52-.19-2.11-.58s-1.05-.92-1.36-1.6c-.32-.68-.48-1.45-.48-2.32s.16-1.67,.49-2.35c.33-.68,.79-1.21,1.38-1.6,.59-.38,1.28-.58,2.07-.58,.61,0,1.17,.11,1.66,.34,.49,.23,.9,.54,1.21,.95,.31,.41,.51,.89,.58,1.43h-1.34c-.1-.4-.33-.75-.68-1.06s-.82-.46-1.41-.46c-.52,0-.98,.13-1.37,.41-.39,.27-.7,.65-.92,1.14s-.33,1.06-.33,1.72,.11,1.26,.32,1.76c.21,.5,.52,.89,.91,1.17,.39,.28,.85,.41,1.38,.41,.35,0,.67-.06,.95-.18s.52-.29,.72-.52c.2-.23,.34-.5,.42-.82h1.34c-.08,.52-.26,.98-.56,1.39-.3,.41-.69,.74-1.18,.98s-1.05,.36-1.7,.36Z"/><path class="g" d="M202.94,152.5v5.25h-1.34v-11.64h1.34v4.27h.11c.21-.45,.51-.81,.92-1.08,.41-.27,.96-.4,1.64-.4,.59,0,1.12,.12,1.56,.36s.79,.6,1.04,1.09c.25,.49,.37,1.1,.37,1.85v5.55h-1.34v-5.46c0-.69-.18-1.23-.54-1.61-.36-.38-.85-.57-1.49-.57-.44,0-.83,.09-1.18,.28-.35,.19-.62,.46-.82,.81-.2,.36-.3,.79-.3,1.3Z"/><path class="g" d="M219.1,157.93c-.82,0-1.52-.19-2.11-.58s-1.05-.92-1.36-1.6c-.32-.68-.48-1.45-.48-2.32s.16-1.67,.49-2.35c.33-.68,.79-1.21,1.38-1.6,.59-.38,1.28-.58,2.07-.58,.61,0,1.17,.11,1.66,.34,.49,.23,.9,.54,1.21,.95,.31,.41,.51,.89,.58,1.43h-1.34c-.1-.4-.33-.75-.68-1.06s-.82-.46-1.41-.46c-.52,0-.98,.13-1.37,.41-.39,.27-.7,.65-.92,1.14s-.33,1.06-.33,1.72,.11,1.26,.32,1.76c.21,.5,.52,.89,.91,1.17,.39,.28,.85,.41,1.38,.41,.35,0,.67-.06,.95-.18s.52-.29,.72-.52c.2-.23,.34-.5,.42-.82h1.34c-.08,.52-.26,.98-.56,1.39-.3,.41-.69,.74-1.18,.98s-1.05,.36-1.7,.36Z"/><path class="g" d="M224.48,157.75v-8.73h1.34v8.73h-1.34Zm.07-9.91l1.39-2.64h1.57l-1.77,2.64h-1.18Z"/><path class="g" d="M229.62,146.11v11.64h-1.34v-11.64h1.34Z"/><path class="g" d="M237.57,154.18v-5.16h1.34v8.73h-1.34v-1.48h-.09c-.21,.44-.52,.82-.96,1.13s-.98,.46-1.64,.46c-.55,0-1.03-.12-1.46-.36s-.76-.6-1-1.09c-.24-.49-.36-1.1-.36-1.84v-5.55h1.34v5.46c0,.64,.18,1.14,.54,1.52,.36,.38,.82,.57,1.37,.57,.33,0,.67-.09,1.02-.26,.35-.17,.64-.43,.88-.79,.24-.35,.36-.8,.36-1.35Zm-2.07-6.14c-.39,0-.74-.09-1.05-.26s-.56-.4-.74-.69c-.18-.29-.28-.62-.28-.98s.09-.7,.28-1,.43-.54,.74-.73c.31-.18,.66-.27,1.05-.27s.73,.09,1.04,.27c.31,.18,.55,.42,.73,.73s.27,.64,.27,1-.09,.69-.27,.98c-.18,.29-.42,.52-.73,.69-.31,.17-.66,.26-1.04,.26Zm0-.86c.32,0,.58-.11,.78-.33,.2-.22,.31-.46,.31-.74s-.1-.54-.31-.77c-.21-.23-.47-.34-.78-.34s-.58,.11-.78,.34c-.2,.23-.31,.48-.31,.77s.1,.52,.31,.74c.2,.22,.47,.33,.78,.33Z"/></g></g><g><path class="c" d="M204.97,180.17v-.78l3.8-4.27c.5-.56,.9-1.04,1.2-1.44,.3-.4,.52-.77,.66-1.1,.14-.34,.21-.69,.21-1.05,0-.44-.1-.83-.31-1.16-.21-.33-.49-.59-.85-.78-.36-.19-.77-.28-1.22-.28-.48,0-.9,.1-1.25,.31-.36,.2-.64,.48-.83,.84-.2,.36-.29,.76-.29,1.23h-1.02c0-.64,.15-1.21,.45-1.71,.3-.5,.71-.89,1.22-1.17,.52-.28,1.1-.43,1.76-.43s1.22,.14,1.73,.42c.5,.28,.9,.66,1.19,1.13,.29,.48,.43,1.01,.43,1.6,0,.43-.08,.84-.22,1.24s-.41,.85-.77,1.34c-.36,.49-.87,1.09-1.51,1.81l-2.89,3.22v.07h5.76v.95h-7.23Z"/><path class="c" d="M218.35,180.33c-.82,0-1.52-.24-2.09-.71-.58-.47-1.02-1.15-1.33-2.05-.31-.89-.46-1.97-.46-3.22s.15-2.32,.46-3.21c.31-.89,.75-1.58,1.34-2.05,.58-.48,1.28-.71,2.09-.71s1.51,.24,2.09,.71c.58,.47,1.03,1.16,1.33,2.05s.46,1.96,.46,3.21-.16,2.33-.46,3.22c-.31,.89-.75,1.58-1.33,2.05-.58,.47-1.28,.71-2.09,.71Zm0-.96c.9,0,1.6-.44,2.1-1.31,.5-.88,.75-2.11,.75-3.71,0-1.06-.11-1.97-.34-2.72-.23-.75-.56-1.33-.98-1.72-.43-.4-.94-.6-1.53-.6-.89,0-1.59,.44-2.1,1.33s-.76,2.12-.76,3.71c0,1.06,.12,1.97,.34,2.72,.23,.75,.56,1.32,.98,1.72,.43,.39,.94,.59,1.53,.59Z"/><path class="c" d="M228.14,168.53v11.64h-1.06v-10.52h-.07l-2.73,1.81v-1.1l2.75-1.82h1.11Z"/><path class="c" d="M235.18,168.37c.48,0,.96,.1,1.41,.29,.46,.19,.87,.5,1.24,.92,.37,.42,.66,.98,.88,1.68,.22,.7,.32,1.56,.32,2.58,0,.95-.08,1.82-.25,2.61-.17,.79-.42,1.48-.75,2.05-.33,.58-.75,1.02-1.25,1.34s-1.09,.47-1.76,.47c-.62,0-1.18-.13-1.66-.39-.48-.26-.87-.62-1.17-1.09-.3-.46-.48-1-.56-1.61h1.05c.1,.62,.35,1.13,.75,1.53,.4,.4,.93,.6,1.59,.6,.95,0,1.69-.44,2.22-1.33s.79-2.15,.79-3.78h-.07c-.18,.34-.42,.64-.71,.89-.29,.25-.63,.45-1,.59-.38,.14-.77,.21-1.19,.21-.65,0-1.24-.16-1.78-.49-.54-.33-.97-.78-1.29-1.35-.32-.57-.48-1.22-.48-1.95,0-.69,.15-1.32,.46-1.9,.3-.58,.73-1.04,1.28-1.39,.55-.35,1.2-.52,1.94-.51Zm0,.96c-.5,0-.96,.13-1.36,.38-.4,.25-.72,.6-.95,1.03-.23,.43-.35,.91-.35,1.43s.12,1,.35,1.43c.23,.43,.55,.77,.95,1.02s.85,.38,1.36,.38c.39,0,.75-.08,1.08-.24s.62-.37,.87-.65c.24-.27,.43-.58,.56-.93s.18-.71,.15-1.09c-.05-.53-.19-1-.42-1.42-.24-.42-.55-.75-.93-.99-.38-.24-.82-.36-1.3-.36Z"/></g><g><path class="c" d="M450.16,120.59v-.78l3.8-4.27c.5-.56,.9-1.04,1.2-1.44,.3-.4,.52-.77,.66-1.1,.14-.34,.21-.69,.21-1.05,0-.44-.1-.83-.31-1.16-.21-.33-.49-.59-.85-.78-.36-.19-.77-.28-1.22-.28-.48,0-.9,.1-1.25,.31-.36,.2-.64,.48-.83,.84-.2,.36-.29,.76-.29,1.23h-1.02c0-.64,.15-1.21,.45-1.71,.3-.5,.71-.89,1.22-1.17,.52-.28,1.1-.43,1.76-.43s1.22,.14,1.73,.42c.5,.28,.9,.66,1.19,1.13,.29,.48,.43,1.01,.43,1.6,0,.43-.08,.84-.22,1.24s-.41,.85-.77,1.34c-.36,.49-.87,1.09-1.51,1.81l-2.89,3.22v.07h5.76v.95h-7.23Z"/><path class="c" d="M463.54,120.74c-.82,0-1.52-.24-2.09-.71-.58-.47-1.02-1.15-1.33-2.05-.31-.89-.46-1.97-.46-3.22s.15-2.32,.46-3.21c.31-.89,.75-1.58,1.34-2.05,.58-.48,1.28-.71,2.09-.71s1.51,.24,2.09,.71c.58,.47,1.03,1.16,1.33,2.05s.46,1.96,.46,3.21-.16,2.33-.46,3.22c-.31,.89-.75,1.58-1.33,2.05-.58,.47-1.28,.71-2.09,.71Zm0-.96c.9,0,1.6-.44,2.1-1.31,.5-.88,.75-2.11,.75-3.71,0-1.06-.11-1.97-.34-2.72-.23-.75-.56-1.33-.98-1.72-.43-.4-.94-.6-1.53-.6-.89,0-1.59,.44-2.1,1.33s-.76,2.12-.76,3.71c0,1.06,.12,1.97,.34,2.72,.23,.75,.56,1.32,.98,1.72,.43,.39,.94,.59,1.53,.59Z"/><path class="c" d="M469.75,120.59v-.78l3.8-4.27c.5-.56,.9-1.04,1.2-1.44,.3-.4,.52-.77,.66-1.1,.14-.34,.21-.69,.21-1.05,0-.44-.1-.83-.31-1.16-.21-.33-.49-.59-.85-.78-.36-.19-.77-.28-1.22-.28-.48,0-.9,.1-1.25,.31-.36,.2-.64,.48-.83,.84-.2,.36-.29,.76-.29,1.23h-1.02c0-.64,.15-1.21,.45-1.71,.3-.5,.71-.89,1.22-1.17,.52-.28,1.1-.43,1.76-.43s1.22,.14,1.73,.42c.5,.28,.9,.66,1.19,1.13,.29,.48,.43,1.01,.43,1.6,0,.43-.08,.84-.22,1.24s-.41,.85-.77,1.34c-.36,.49-.87,1.09-1.51,1.81l-2.89,3.22v.07h5.76v.95h-7.23Z"/><path class="c" d="M483.11,108.95v11.64h-1.06v-10.52h-.07l-2.73,1.81v-1.1l2.75-1.82h1.11Z"/></g><g><path class="c" d="M450.16,246.32v-.78l3.8-4.27c.5-.56,.9-1.04,1.2-1.44,.3-.4,.52-.77,.66-1.1,.14-.34,.21-.69,.21-1.05,0-.44-.1-.83-.31-1.16-.21-.33-.49-.59-.85-.78-.36-.19-.77-.28-1.22-.28-.48,0-.9,.1-1.25,.31-.36,.2-.64,.48-.83,.84-.2,.36-.29,.76-.29,1.23h-1.02c0-.64,.15-1.21,.45-1.71,.3-.5,.71-.89,1.22-1.17,.52-.28,1.1-.43,1.76-.43s1.22,.14,1.73,.42c.5,.28,.9,.66,1.19,1.13,.29,.48,.43,1.01,.43,1.6,0,.43-.08,.84-.22,1.24s-.41,.85-.77,1.34c-.36,.49-.87,1.09-1.51,1.81l-2.89,3.22v.07h5.76v.95h-7.23Z"/><path class="c" d="M463.54,246.48c-.82,0-1.52-.24-2.09-.71-.58-.47-1.02-1.15-1.33-2.05-.31-.89-.46-1.97-.46-3.22s.15-2.32,.46-3.21c.31-.89,.75-1.58,1.34-2.05,.58-.48,1.28-.71,2.09-.71s1.51,.24,2.09,.71c.58,.47,1.03,1.16,1.33,2.05s.46,1.96,.46,3.21-.16,2.33-.46,3.22c-.31,.89-.75,1.58-1.33,2.05-.58,.47-1.28,.71-2.09,.71Zm0-.96c.9,0,1.6-.44,2.1-1.31,.5-.88,.75-2.11,.75-3.71,0-1.06-.11-1.97-.34-2.72-.23-.75-.56-1.33-.98-1.72-.43-.4-.94-.6-1.53-.6-.89,0-1.59,.44-2.1,1.33s-.76,2.12-.76,3.71c0,1.06,.12,1.97,.34,2.72,.23,.75,.56,1.32,.98,1.72,.43,.39,.94,.59,1.53,.59Z"/><path class="c" d="M469.75,246.32v-.78l3.8-4.27c.5-.56,.9-1.04,1.2-1.44,.3-.4,.52-.77,.66-1.1,.14-.34,.21-.69,.21-1.05,0-.44-.1-.83-.31-1.16-.21-.33-.49-.59-.85-.78-.36-.19-.77-.28-1.22-.28-.48,0-.9,.1-1.25,.31-.36,.2-.64,.48-.83,.84-.2,.36-.29,.76-.29,1.23h-1.02c0-.64,.15-1.21,.45-1.71,.3-.5,.71-.89,1.22-1.17,.52-.28,1.1-.43,1.76-.43s1.22,.14,1.73,.42c.5,.28,.9,.66,1.19,1.13,.29,.48,.43,1.01,.43,1.6,0,.43-.08,.84-.22,1.24s-.41,.85-.77,1.34c-.36,.49-.87,1.09-1.51,1.81l-2.89,3.22v.07h5.76v.95h-7.23Z"/><path class="c" d="M483.11,234.68v11.64h-1.06v-10.52h-.07l-2.73,1.81v-1.1l2.75-1.82h1.11Z"/><path class="c" d="M493.35,240.85v.95h-8v-.95h8Z"/><path class="c" d="M501.44,237.59l-3.19,8.73h-1.08l-3.19-8.73h1.1l2.59,7.39h.08l2.59-7.39h1.1Z"/><path class="c" d="M504.12,249.59c-.2,0-.39-.02-.56-.06-.17-.04-.31-.08-.42-.12l.27-.89c.34,.11,.65,.14,.92,.12,.27-.03,.51-.15,.72-.36,.21-.21,.39-.54,.56-.98l.32-.89-3.21-8.81h1.1l2.59,7.39h.08l2.59-7.39h1.1l-3.69,10.11c-.16,.42-.35,.77-.57,1.05-.23,.28-.49,.49-.79,.63-.3,.14-.63,.21-1,.21Z"/><path class="c" d="M512.15,237.59h1.02v9.57c0,.5-.09,.92-.28,1.29-.18,.36-.45,.64-.8,.84-.35,.2-.77,.3-1.26,.3h-.11s-.08,0-.12,0v-.95h.23c.42,0,.74-.13,.98-.39,.24-.26,.35-.62,.35-1.08v-9.57Zm.5-1.5c-.21,0-.38-.07-.53-.21-.15-.14-.22-.31-.22-.51s.08-.37,.22-.51,.33-.21,.53-.21,.39,.07,.54,.21c.15,.14,.22,.31,.22,.51s-.08,.37-.22,.51c-.15,.14-.33,.21-.54,.21Z"/><path class="c" d="M519.38,246.5c-.81,0-1.52-.19-2.11-.57-.59-.38-1.05-.91-1.38-1.58-.32-.68-.49-1.46-.49-2.34s.16-1.66,.49-2.34,.77-1.22,1.35-1.61c.57-.39,1.24-.58,1.99-.58,.47,0,.93,.09,1.37,.26,.44,.17,.83,.44,1.19,.79,.35,.35,.63,.8,.83,1.33,.2,.54,.31,1.17,.31,1.9v.5h-6.82v-.89h5.78c0-.56-.11-1.07-.34-1.51s-.54-.8-.94-1.07-.86-.39-1.38-.39c-.55,0-1.04,.15-1.46,.44-.42,.3-.75,.69-.99,1.17-.24,.49-.36,1.02-.36,1.59v.53c0,.69,.12,1.3,.36,1.82,.24,.52,.58,.92,1.03,1.2,.44,.28,.97,.43,1.57,.43,.41,0,.78-.06,1.09-.19s.58-.3,.79-.52,.38-.46,.49-.72l.96,.31c-.13,.37-.35,.71-.65,1.02-.3,.31-.68,.56-1.12,.75-.45,.19-.96,.28-1.55,.28Z"/><path class="c" d="M528.28,246.5c-.72,0-1.34-.19-1.88-.57-.54-.38-.96-.91-1.26-1.58-.3-.68-.45-1.47-.45-2.37s.15-1.68,.45-2.36c.3-.68,.72-1.2,1.26-1.58,.54-.38,1.17-.57,1.89-.57,.53,0,.97,.09,1.32,.28s.63,.42,.85,.7c.21,.28,.38,.54,.49,.81h.09v-4.57h1.02v11.64h-.99v-1.62h-.12c-.12,.26-.28,.54-.5,.82s-.5,.51-.86,.7c-.35,.19-.8,.28-1.33,.28Zm.12-.93c.56,0,1.04-.15,1.44-.46,.4-.31,.7-.74,.91-1.28,.21-.54,.31-1.17,.31-1.87s-.1-1.31-.31-1.85c-.21-.54-.51-.96-.91-1.26-.4-.3-.88-.46-1.45-.46s-1.08,.16-1.47,.47c-.4,.32-.7,.74-.91,1.28-.21,.54-.31,1.14-.31,1.81s.1,1.29,.31,1.84c.21,.54,.51,.98,.91,1.3s.89,.48,1.47,.48Z"/><path class="c" d="M535.96,240.87v5.45h-1.01v-8.73h.98v1.37h.09c.2-.45,.52-.81,.96-1.08s.97-.41,1.61-.41c.59,0,1.1,.12,1.55,.37s.79,.6,1.04,1.08,.37,1.05,.37,1.74v5.65h-1.01v-5.59c0-.72-.2-1.28-.6-1.7-.4-.42-.94-.62-1.61-.62-.46,0-.87,.1-1.22,.3s-.64,.48-.84,.85c-.21,.37-.31,.81-.31,1.32Z"/><path class="c" d="M546.66,246.52c-.53,0-1.01-.1-1.44-.31-.44-.21-.78-.51-1.04-.9-.26-.39-.39-.87-.39-1.43,0-.43,.08-.8,.24-1.09,.16-.3,.39-.54,.69-.73s.65-.34,1.06-.45c.41-.11,.86-.2,1.35-.26,.49-.06,.9-.11,1.24-.16,.34-.05,.6-.12,.78-.22,.18-.1,.27-.26,.27-.48v-.2c0-.59-.18-1.06-.53-1.41-.35-.34-.86-.51-1.53-.51s-1.14,.14-1.54,.42c-.4,.28-.67,.6-.83,.98l-.96-.35c.2-.48,.47-.86,.82-1.15s.74-.49,1.17-.62c.43-.13,.87-.19,1.31-.19,.33,0,.68,.04,1.04,.13s.7,.24,1.01,.45c.31,.21,.56,.51,.76,.89,.19,.38,.29,.86,.29,1.45v5.93h-1.01v-1.38h-.06c-.12,.26-.3,.51-.54,.75s-.54,.44-.9,.6c-.36,.16-.78,.23-1.27,.23Zm.14-.93c.54,0,1-.12,1.4-.36,.39-.24,.7-.56,.91-.95,.21-.4,.32-.83,.32-1.31v-1.26c-.08,.07-.2,.14-.38,.19-.18,.06-.38,.11-.61,.15-.23,.04-.46,.08-.68,.11s-.43,.06-.61,.08c-.49,.06-.91,.16-1.26,.28s-.62,.31-.8,.53c-.19,.23-.28,.51-.28,.87,0,.53,.19,.94,.57,1.23,.38,.29,.85,.43,1.43,.43Zm.17-9.21l1.45-2.58h1.2l-1.74,2.58h-.91Z"/><path class="c" d="M559.57,237.59l-3.19,8.73h-1.08l-3.19-8.73h1.1l2.59,7.39h.08l2.59-7.39h1.1Z"/><path class="c" d="M563.7,246.52c-.53,0-1.01-.1-1.44-.31-.44-.21-.78-.51-1.04-.9-.26-.39-.39-.87-.39-1.43,0-.43,.08-.8,.24-1.09,.16-.3,.39-.54,.69-.73s.65-.34,1.06-.45c.41-.11,.86-.2,1.35-.26,.49-.06,.9-.11,1.24-.16,.34-.05,.6-.12,.78-.22,.18-.1,.27-.26,.27-.48v-.2c0-.59-.18-1.06-.53-1.41-.35-.34-.86-.51-1.53-.51s-1.14,.14-1.54,.42c-.4,.28-.67,.6-.83,.98l-.96-.35c.2-.48,.47-.86,.82-1.15s.74-.49,1.17-.62c.43-.13,.87-.19,1.31-.19,.33,0,.68,.04,1.04,.13s.7,.24,1.01,.45c.31,.21,.56,.51,.76,.89,.19,.38,.29,.86,.29,1.45v5.93h-1.01v-1.38h-.06c-.12,.26-.3,.51-.54,.75s-.54,.44-.9,.6c-.36,.16-.78,.23-1.27,.23Zm.14-.93c.54,0,1-.12,1.4-.36,.39-.24,.7-.56,.91-.95,.21-.4,.32-.83,.32-1.31v-1.26c-.08,.07-.2,.14-.38,.19-.18,.06-.38,.11-.61,.15-.23,.04-.46,.08-.68,.11s-.43,.06-.61,.08c-.49,.06-.91,.16-1.26,.28s-.62,.31-.8,.53c-.19,.23-.28,.51-.28,.87,0,.53,.19,.94,.57,1.23,.38,.29,.85,.43,1.43,.43Zm.17-9.21l1.45-2.58h1.2l-1.74,2.58h-.91Z"/><path class="c" d="M580.53,239.51l-.93,.26c-.09-.26-.22-.5-.39-.71-.17-.21-.38-.38-.65-.5-.27-.12-.6-.19-.99-.19-.59,0-1.08,.14-1.45,.42s-.57,.64-.57,1.08c0,.38,.13,.68,.39,.91,.26,.23,.66,.42,1.2,.55l1.32,.32c.73,.18,1.28,.46,1.64,.85s.55,.87,.55,1.45c0,.49-.14,.93-.41,1.31-.27,.38-.65,.68-1.14,.9-.49,.22-1.05,.33-1.69,.33-.85,0-1.55-.19-2.11-.58-.55-.38-.91-.94-1.06-1.67l.97-.24c.12,.52,.37,.91,.74,1.18,.37,.27,.85,.4,1.45,.4,.67,0,1.21-.15,1.61-.45,.4-.3,.6-.68,.6-1.13,0-.35-.12-.65-.35-.89-.23-.24-.59-.42-1.07-.53l-1.43-.34c-.76-.18-1.32-.47-1.68-.86s-.55-.88-.55-1.47c0-.48,.13-.9,.39-1.27,.26-.37,.62-.65,1.08-.86,.46-.21,.98-.31,1.57-.31,.8,0,1.44,.18,1.92,.54,.48,.36,.82,.86,1.04,1.49Z"/><path class="c" d="M586.4,246.5c-.81,0-1.52-.19-2.11-.57-.59-.38-1.05-.91-1.38-1.58-.32-.68-.49-1.46-.49-2.34s.16-1.66,.49-2.34,.77-1.22,1.35-1.61c.57-.39,1.24-.58,1.99-.58,.47,0,.93,.09,1.37,.26,.44,.17,.83,.44,1.19,.79,.35,.35,.63,.8,.83,1.33,.2,.54,.31,1.17,.31,1.9v.5h-6.82v-.89h5.78c0-.56-.11-1.07-.34-1.51s-.54-.8-.94-1.07-.86-.39-1.38-.39c-.55,0-1.04,.15-1.46,.44-.42,.3-.75,.69-.99,1.17-.24,.49-.36,1.02-.36,1.59v.53c0,.69,.12,1.3,.36,1.82,.24,.52,.58,.92,1.03,1.2,.44,.28,.97,.43,1.57,.43,.41,0,.78-.06,1.09-.19s.58-.3,.79-.52,.38-.46,.49-.72l.96,.31c-.13,.37-.35,.71-.65,1.02-.3,.31-.68,.56-1.12,.75-.45,.19-.96,.28-1.55,.28Z"/><path class="c" d="M599.8,246.5c-.72,0-1.34-.19-1.88-.57-.54-.38-.96-.91-1.26-1.58-.3-.68-.45-1.47-.45-2.37s.15-1.68,.45-2.36c.3-.68,.72-1.2,1.26-1.58,.54-.38,1.17-.57,1.89-.57,.53,0,.97,.09,1.32,.28s.63,.42,.85,.7c.21,.28,.38,.54,.49,.81h.09v-4.57h1.02v11.64h-.99v-1.62h-.12c-.12,.26-.28,.54-.5,.82s-.5,.51-.86,.7c-.35,.19-.8,.28-1.33,.28Zm.12-.93c.56,0,1.04-.15,1.44-.46,.4-.31,.7-.74,.91-1.28,.21-.54,.31-1.17,.31-1.87s-.1-1.31-.31-1.85c-.21-.54-.51-.96-.91-1.26-.4-.3-.88-.46-1.45-.46s-1.08,.16-1.47,.47c-.4,.32-.7,.74-.91,1.28-.21,.54-.31,1.14-.31,1.81s.1,1.29,.31,1.84c.21,.54,.51,.98,.91,1.3s.89,.48,1.47,.48Z"/><path class="c" d="M609.87,246.5c-.75,0-1.42-.19-2-.57-.58-.38-1.03-.91-1.36-1.59-.33-.68-.49-1.46-.49-2.34s.16-1.68,.49-2.36,.78-1.21,1.36-1.59c.58-.38,1.24-.57,2-.57s1.42,.19,1.99,.57c.58,.38,1.03,.91,1.36,1.59,.33,.68,.49,1.46,.49,2.36s-.16,1.67-.49,2.34c-.33,.68-.78,1.21-1.35,1.59-.58,.38-1.24,.57-2,.57Zm0-.93c.61,0,1.12-.16,1.54-.49,.42-.33,.74-.76,.96-1.3s.33-1.14,.33-1.79-.11-1.25-.33-1.79c-.22-.55-.54-.98-.96-1.31-.42-.33-.93-.49-1.54-.49s-1.12,.16-1.54,.49c-.42,.33-.74,.77-.96,1.31-.22,.54-.33,1.14-.33,1.79s.11,1.25,.33,1.79,.54,.98,.96,1.3c.42,.33,.93,.49,1.54,.49Z"/><path class="c" d="M621.79,239.51l-.93,.26c-.09-.26-.22-.5-.39-.71-.17-.21-.38-.38-.65-.5-.27-.12-.6-.19-.99-.19-.59,0-1.08,.14-1.45,.42s-.57,.64-.57,1.08c0,.38,.13,.68,.39,.91,.26,.23,.66,.42,1.2,.55l1.32,.32c.73,.18,1.28,.46,1.64,.85s.55,.87,.55,1.45c0,.49-.14,.93-.41,1.31-.27,.38-.65,.68-1.14,.9-.49,.22-1.05,.33-1.69,.33-.85,0-1.55-.19-2.11-.58-.55-.38-.91-.94-1.06-1.67l.97-.24c.12,.52,.37,.91,.74,1.18,.37,.27,.85,.4,1.45,.4,.67,0,1.21-.15,1.61-.45,.4-.3,.6-.68,.6-1.13,0-.35-.12-.65-.35-.89-.23-.24-.59-.42-1.07-.53l-1.43-.34c-.76-.18-1.32-.47-1.68-.86s-.55-.88-.55-1.47c0-.48,.13-.9,.39-1.27,.26-.37,.62-.65,1.08-.86,.46-.21,.98-.31,1.57-.31,.8,0,1.44,.18,1.92,.54,.48,.36,.82,.86,1.04,1.49Z"/><path class="c" d="M629.68,242.98v-5.39h1.01v8.73h-1.01v-1.45h-.08c-.2,.45-.53,.82-.97,1.12-.44,.3-.98,.45-1.62,.45-.56,0-1.05-.12-1.48-.37s-.77-.6-1.02-1.08c-.25-.47-.37-1.06-.37-1.75v-5.65h1.01v5.59c0,.68,.2,1.23,.6,1.65,.4,.41,.92,.62,1.54,.62,.39,0,.77-.09,1.14-.28,.36-.19,.66-.47,.9-.83,.24-.37,.35-.82,.35-1.35Z"/><path class="c" d="M636.5,246.5c-.72,0-1.34-.19-1.88-.57-.54-.38-.96-.91-1.26-1.58-.3-.68-.45-1.47-.45-2.37s.15-1.68,.45-2.36c.3-.68,.72-1.2,1.26-1.58,.54-.38,1.17-.57,1.89-.57,.53,0,.97,.09,1.32,.28s.63,.42,.85,.7c.21,.28,.38,.54,.49,.81h.09v-4.57h1.02v11.64h-.99v-1.62h-.12c-.12,.26-.28,.54-.5,.82s-.5,.51-.86,.7c-.35,.19-.8,.28-1.33,.28Zm.12-.93c.56,0,1.04-.15,1.44-.46,.4-.31,.7-.74,.91-1.28,.21-.54,.31-1.17,.31-1.87s-.1-1.31-.31-1.85c-.21-.54-.51-.96-.91-1.26-.4-.3-.88-.46-1.45-.46s-1.08,.16-1.47,.47c-.4,.32-.7,.74-.91,1.28-.21,.54-.31,1.14-.31,1.81s.1,1.29,.31,1.84c.21,.54,.51,.98,.91,1.3s.89,.48,1.47,.48Z"/></g><circle class="f" cx="452.91" cy="35.85" r="25.42"/><g class="h"><g><path class="d" d="M450.01,29.94v-13.09h8.82v2.28h-6.05v3.12h5.6v2.28h-5.6v3.12h6.08v2.28h-8.85Z"/><path class="d" d="M470.14,20.13l-3.43,9.82h-3.07l-3.43-9.82h2.88l2.04,7.03h.1l2.03-7.03h2.88Z"/><path class="d" d="M471.53,29.94v-9.82h2.64v1.71h.1c.18-.61,.48-1.07,.9-1.38,.42-.31,.91-.47,1.46-.47,.14,0,.28,0,.44,.03,.16,.02,.3,.04,.42,.07v2.42c-.13-.04-.3-.07-.53-.1-.23-.03-.43-.04-.62-.04-.4,0-.76,.09-1.07,.26-.31,.17-.56,.41-.74,.72-.18,.31-.27,.66-.27,1.06v5.55h-2.72Z"/><path class="d" d="M482.86,30.14c-.99,0-1.85-.21-2.57-.64-.72-.42-1.28-1.02-1.67-1.78-.39-.76-.59-1.64-.59-2.65s.2-1.9,.59-2.66c.39-.76,.95-1.35,1.67-1.78,.72-.42,1.58-.64,2.57-.64s1.85,.21,2.57,.64c.72,.42,1.28,1.02,1.67,1.78,.39,.76,.59,1.65,.59,2.66s-.2,1.89-.59,2.65c-.39,.76-.95,1.35-1.67,1.78-.72,.42-1.58,.64-2.57,.64Zm.01-2.11c.45,0,.83-.13,1.13-.39s.53-.61,.69-1.06c.16-.45,.23-.96,.23-1.53s-.08-1.08-.23-1.53c-.16-.45-.38-.8-.69-1.06s-.68-.39-1.13-.39-.84,.13-1.15,.39c-.31,.26-.54,.61-.7,1.06-.16,.45-.23,.96-.23,1.53s.08,1.08,.23,1.53,.39,.8,.7,1.06c.31,.26,.69,.39,1.15,.39Z"/><path class="d" d="M489.47,33.63v-13.5h2.68v1.65h.12c.12-.26,.29-.53,.52-.81,.23-.28,.53-.5,.89-.69s.83-.28,1.38-.28c.72,0,1.38,.19,1.98,.56,.6,.37,1.09,.93,1.45,1.68,.36,.75,.54,1.68,.54,2.81s-.18,2.02-.53,2.77-.83,1.32-1.43,1.71c-.6,.39-1.28,.58-2.02,.58-.53,0-.98-.09-1.35-.26-.37-.17-.67-.39-.9-.66s-.41-.54-.54-.81h-.08v5.25h-2.72Zm2.67-8.59c0,.58,.08,1.09,.24,1.53,.16,.44,.4,.77,.7,1.01,.31,.24,.68,.36,1.12,.36s.82-.12,1.12-.37c.31-.25,.54-.59,.7-1.02s.24-.94,.24-1.51-.08-1.07-.24-1.5c-.16-.43-.39-.77-.7-1.01-.31-.24-.68-.36-1.13-.36s-.82,.12-1.12,.35-.54,.57-.7,1c-.16,.43-.24,.94-.24,1.52Z"/><path class="d" d="M509.02,22.93l-2.49,.15c-.04-.21-.13-.41-.27-.58s-.33-.31-.55-.42c-.23-.1-.5-.16-.81-.16-.42,0-.78,.09-1.07,.27s-.43,.41-.43,.71c0,.23,.09,.43,.28,.59s.51,.29,.96,.39l1.78,.36c.95,.2,1.67,.51,2.13,.95s.7,1.01,.7,1.71c0,.64-.19,1.21-.57,1.69-.38,.49-.89,.86-1.55,1.13-.65,.27-1.41,.41-2.26,.41-1.3,0-2.33-.27-3.1-.81-.77-.54-1.22-1.28-1.35-2.22l2.68-.14c.08,.4,.28,.7,.59,.9,.31,.21,.71,.31,1.2,.31s.86-.09,1.15-.28,.44-.42,.44-.72c0-.25-.11-.45-.31-.61-.2-.16-.52-.28-.95-.37l-1.7-.34c-.96-.19-1.67-.52-2.14-1-.47-.47-.7-1.08-.7-1.81,0-.63,.17-1.17,.51-1.63s.83-.81,1.45-1.05c.62-.25,1.36-.37,2.2-.37,1.24,0,2.22,.26,2.93,.79,.71,.52,1.13,1.24,1.25,2.14Z"/><path class="d" d="M510.97,29.94v-13.09h2.72v13.09h-2.72Zm2.47-2.83v-3.27h.4l3.14-3.73h3.13l-4.23,4.93h-.65l-1.8,2.06Zm3.67,2.83l-2.89-4.28,1.82-1.92,4.26,6.2h-3.19Z"/><path class="d" d="M523.27,33.63c-.34,0-.67-.03-.97-.08-.3-.05-.55-.12-.75-.2l.61-2.03c.32,.1,.61,.15,.87,.16,.26,0,.48-.05,.67-.18,.19-.13,.34-.34,.46-.65l.16-.42-3.52-10.1h2.86l2.03,7.21h.1l2.05-7.21h2.88l-3.82,10.88c-.18,.53-.43,.99-.74,1.38-.31,.39-.71,.7-1.19,.91-.48,.21-1.05,.32-1.73,.32Zm1.51-14.77l1.36-2.91h2.52l-1.95,2.91h-1.92Z"/><path class="d" d="M449.96,51.54v-13.09h2.72v13.09h-2.72Zm2.47-2.83v-3.27h.4l3.14-3.73h3.13l-4.23,4.93h-.65l-1.8,2.06Zm3.67,2.83l-2.89-4.28,1.82-1.92,4.26,6.2h-3.19Z"/><path class="d" d="M463.15,38.45v13.09h-2.72v-13.09h2.72Z"/><path class="d" d="M466.69,40.46c-.4,0-.75-.13-1.04-.41-.29-.27-.43-.6-.43-.98s.14-.7,.43-.97c.29-.27,.63-.41,1.04-.41s.75,.14,1.04,.41c.29,.27,.43,.59,.43,.97s-.14,.7-.43,.98c-.29,.27-.63,.41-1.04,.41Zm-1.37,11.08v-9.82h2.72v9.82h-2.72Z"/><path class="d" d="M470.22,51.54v-9.82h2.59v1.73h.12c.2-.58,.55-1.03,1.02-1.36,.48-.33,1.05-.5,1.71-.5s1.25,.17,1.72,.5c.47,.33,.79,.79,.95,1.36h.1c.2-.56,.56-1.01,1.09-1.35s1.15-.51,1.87-.51c.92,0,1.66,.29,2.23,.87,.57,.58,.86,1.41,.86,2.47v6.6h-2.72v-6.07c0-.54-.14-.95-.43-1.23-.29-.27-.65-.41-1.09-.41-.5,0-.88,.16-1.16,.47-.28,.31-.42,.73-.42,1.24v6h-2.64v-6.12c0-.48-.14-.86-.41-1.15-.28-.29-.64-.43-1.08-.43-.3,0-.57,.08-.81,.23-.24,.15-.43,.36-.57,.63s-.21,.59-.21,.95v5.89h-2.72Z"/><path class="d" d="M489.43,51.73c-.63,0-1.19-.11-1.67-.33-.49-.22-.88-.55-1.16-.98-.28-.43-.43-.97-.43-1.62,0-.55,.1-1,.3-1.37,.2-.37,.47-.67,.82-.9,.34-.23,.74-.4,1.18-.51,.44-.12,.9-.2,1.39-.24,.57-.06,1.03-.12,1.38-.17,.35-.05,.6-.13,.76-.24,.16-.11,.24-.26,.24-.47v-.04c0-.4-.13-.72-.38-.94-.25-.22-.61-.33-1.08-.33-.49,0-.88,.11-1.17,.32-.29,.22-.48,.49-.58,.81l-2.52-.2c.13-.6,.38-1.11,.75-1.55,.38-.44,.86-.77,1.45-1.01,.59-.24,1.28-.36,2.07-.36,.54,0,1.07,.06,1.57,.19,.5,.13,.95,.33,1.34,.59,.39,.27,.7,.61,.92,1.03,.23,.42,.34,.92,.34,1.51v6.62h-2.58v-1.36h-.08c-.16,.31-.37,.58-.63,.81-.26,.23-.58,.41-.95,.54-.37,.13-.8,.2-1.28,.2Zm.78-1.88c.4,0,.75-.08,1.06-.24s.55-.38,.72-.65c.17-.27,.26-.58,.26-.93v-1.04c-.09,.05-.2,.11-.35,.15-.15,.04-.31,.09-.5,.12-.18,.04-.37,.07-.55,.1-.18,.03-.35,.05-.5,.07-.32,.05-.6,.12-.84,.22-.24,.1-.42,.24-.56,.41-.13,.17-.2,.39-.2,.64,0,.37,.14,.65,.41,.85,.27,.19,.61,.29,1.03,.29Z"/><path class="d" d="M502.3,41.73v2.05h-5.91v-2.05h5.91Zm-4.57-2.35h2.72v9.15c0,.25,.04,.45,.12,.58,.08,.14,.18,.24,.32,.29,.14,.06,.3,.08,.48,.08,.13,0,.26-.01,.38-.04s.23-.04,.29-.05l.43,2.03c-.14,.04-.33,.09-.58,.15-.25,.06-.55,.09-.9,.11-.66,.03-1.23-.06-1.72-.26s-.88-.51-1.15-.93c-.27-.42-.41-.95-.4-1.6v-9.51Z"/><path class="d" d="M505.44,40.46c-.4,0-.75-.13-1.04-.41-.29-.27-.43-.6-.43-.98s.14-.7,.43-.97c.29-.27,.63-.41,1.04-.41s.75,.14,1.04,.41c.29,.27,.43,.59,.43,.97s-.14,.7-.43,.98c-.29,.27-.63,.41-1.04,.41Zm-1.37,11.08v-9.82h2.72v9.82h-2.72Z"/><path class="d" d="M513.4,51.74c-1.01,0-1.87-.21-2.59-.64-.72-.43-1.28-1.02-1.66-1.79s-.58-1.64-.58-2.63,.2-1.89,.58-2.65,.94-1.35,1.67-1.78c.72-.43,1.58-.64,2.57-.64,.86,0,1.61,.16,2.25,.47,.64,.31,1.15,.75,1.53,1.31,.37,.56,.58,1.22,.62,1.98h-2.57c-.07-.49-.26-.89-.57-1.19-.31-.3-.71-.45-1.21-.45-.42,0-.79,.11-1.1,.34-.31,.23-.56,.56-.73,.99s-.26,.96-.26,1.58,.09,1.16,.26,1.6c.17,.44,.42,.77,.73,1s.68,.35,1.11,.35c.31,0,.59-.06,.84-.19,.25-.13,.46-.31,.62-.56,.16-.24,.27-.54,.32-.88h2.57c-.04,.75-.25,1.41-.61,1.98-.36,.57-.87,1.01-1.5,1.33-.64,.32-1.4,.48-2.27,.48Z"/><path class="d" d="M519.54,51.54v-13.09h2.72v13.09h-2.72Zm2.47-2.83v-3.27h.4l3.14-3.73h3.13l-4.23,4.93h-.65l-1.8,2.06Zm3.67,2.83l-2.89-4.28,1.82-1.92,4.26,6.2h-3.19Z"/><path class="d" d="M531.84,55.23c-.34,0-.67-.03-.97-.08-.3-.05-.55-.12-.75-.2l.61-2.03c.32,.1,.61,.15,.87,.16,.26,0,.48-.05,.67-.18,.19-.13,.34-.34,.46-.65l.16-.42-3.52-10.1h2.86l2.03,7.21h.1l2.05-7.21h2.88l-3.82,10.88c-.18,.53-.43,.99-.74,1.38-.31,.39-.71,.7-1.19,.91-.48,.21-1.05,.32-1.73,.32Zm1.51-14.77l1.36-2.91h2.52l-1.95,2.91h-1.92Z"/><path class="d" d="M544.83,51.54v-1.62l4.81-5.95v-.07h-4.64v-2.17h7.92v1.77l-4.51,5.8v.07h4.68v2.17h-8.25Z"/><path class="d" d="M557.97,51.73c-.63,0-1.19-.11-1.67-.33-.49-.22-.88-.55-1.16-.98-.28-.43-.43-.97-.43-1.62,0-.55,.1-1,.3-1.37,.2-.37,.47-.67,.82-.9,.34-.23,.74-.4,1.18-.51,.44-.12,.9-.2,1.39-.24,.57-.06,1.03-.12,1.38-.17,.35-.05,.6-.13,.76-.24,.16-.11,.24-.26,.24-.47v-.04c0-.4-.13-.72-.38-.94-.25-.22-.61-.33-1.08-.33-.49,0-.88,.11-1.17,.32-.29,.22-.48,.49-.58,.81l-2.52-.2c.13-.6,.38-1.11,.75-1.55,.38-.44,.86-.77,1.45-1.01,.59-.24,1.28-.36,2.07-.36,.54,0,1.07,.06,1.57,.19,.5,.13,.95,.33,1.34,.59,.39,.27,.7,.61,.92,1.03,.23,.42,.34,.92,.34,1.51v6.62h-2.58v-1.36h-.08c-.16,.31-.37,.58-.63,.81-.26,.23-.58,.41-.95,.54-.37,.13-.8,.2-1.28,.2Zm.78-1.88c.4,0,.75-.08,1.06-.24s.55-.38,.72-.65c.17-.27,.26-.58,.26-.93v-1.04c-.09,.05-.2,.11-.35,.15-.15,.04-.31,.09-.5,.12-.18,.04-.37,.07-.55,.1-.18,.03-.35,.05-.5,.07-.32,.05-.6,.12-.84,.22-.24,.1-.42,.24-.56,.41-.13,.17-.2,.39-.2,.64,0,.37,.14,.65,.41,.85,.27,.19,.61,.29,1.03,.29Zm-.29-9.39l1.36-2.91h2.52l-1.95,2.91h-1.92Z"/><path class="d" d="M565.62,51.54v-13.09h2.72v13.09h-2.72Zm2.47-2.83v-3.27h.4l3.14-3.73h3.13l-4.23,4.93h-.65l-1.8,2.06Zm3.67,2.83l-2.89-4.28,1.82-1.92,4.26,6.2h-3.19Z"/><path class="d" d="M580.12,51.74c-.99,0-1.85-.21-2.57-.64-.72-.42-1.28-1.02-1.67-1.78-.39-.76-.59-1.64-.59-2.65s.2-1.9,.59-2.66c.39-.76,.95-1.35,1.67-1.78,.72-.42,1.58-.64,2.57-.64s1.85,.21,2.57,.64c.72,.42,1.28,1.02,1.67,1.78,.39,.76,.59,1.65,.59,2.66s-.2,1.89-.59,2.65c-.39,.76-.95,1.35-1.67,1.78-.72,.42-1.58,.64-2.57,.64Zm.01-2.11c.45,0,.83-.13,1.13-.39s.53-.61,.69-1.06c.16-.45,.23-.96,.23-1.53s-.08-1.08-.23-1.53c-.16-.45-.38-.8-.69-1.06s-.68-.39-1.13-.39-.84,.13-1.15,.39c-.31,.26-.54,.61-.7,1.06-.16,.45-.23,.96-.23,1.53s.08,1.08,.23,1.53,.39,.8,.7,1.06c.31,.26,.69,.39,1.15,.39Z"/><path class="d" d="M589.45,45.87v5.68h-2.72v-9.82h2.59v1.73h.12c.22-.57,.58-1.02,1.09-1.36,.51-.33,1.13-.5,1.86-.5,.68,0,1.28,.15,1.78,.45,.51,.3,.9,.72,1.18,1.28s.42,1.21,.42,1.97v6.25h-2.72v-5.77c0-.6-.15-1.07-.46-1.41-.31-.34-.74-.51-1.28-.51-.37,0-.69,.08-.97,.24-.28,.16-.5,.39-.65,.69-.16,.3-.24,.66-.24,1.08Z"/></g></g><g class="h"><g><path class="d" d="M450.28,76.79v-11.64h3.93c.91,0,1.66,.16,2.24,.49,.58,.33,1.01,.77,1.29,1.33s.42,1.18,.42,1.86-.14,1.31-.42,1.87-.71,1.01-1.29,1.34c-.58,.33-1.32,.5-2.23,.5h-2.82v-1.25h2.77c.62,0,1.13-.11,1.51-.32,.38-.22,.65-.51,.83-.88,.17-.37,.26-.79,.26-1.25s-.09-.88-.26-1.25c-.17-.37-.45-.66-.83-.87-.38-.21-.89-.32-1.52-.32h-2.48v10.39h-1.41Z"/><path class="d" d="M460.26,76.79v-8.73h1.29v1.32h.09c.16-.43,.45-.78,.86-1.05,.42-.27,.89-.4,1.41-.4,.1,0,.22,0,.37,0,.15,0,.26,0,.33,.02v1.36s-.15-.03-.31-.05-.33-.04-.51-.04c-.42,0-.8,.09-1.13,.26-.33,.18-.59,.42-.78,.73-.19,.31-.29,.66-.29,1.05v5.52h-1.34Z"/><path class="d" d="M468.78,76.99c-.55,0-1.06-.1-1.51-.31-.45-.21-.81-.52-1.07-.92-.26-.4-.4-.88-.4-1.45,0-.5,.1-.91,.29-1.22,.2-.31,.46-.56,.79-.74,.33-.18,.69-.31,1.09-.4s.8-.16,1.21-.21c.53-.07,.96-.12,1.29-.16,.33-.04,.57-.1,.73-.18,.15-.09,.23-.24,.23-.45v-.05c0-.56-.15-1-.46-1.31s-.77-.47-1.38-.47-1.14,.14-1.5,.42c-.36,.28-.62,.58-.77,.9l-1.27-.46c.23-.53,.53-.94,.91-1.24,.38-.3,.8-.51,1.25-.62,.45-.12,.9-.18,1.34-.18,.28,0,.6,.03,.97,.1,.37,.07,.72,.2,1.06,.41,.34,.2,.63,.51,.85,.93,.23,.41,.34,.97,.34,1.66v5.75h-1.34v-1.18h-.07c-.09,.19-.24,.39-.46,.61s-.49,.4-.85,.55c-.35,.15-.78,.23-1.29,.23Zm.2-1.2c.53,0,.98-.1,1.34-.31s.64-.48,.83-.81c.19-.33,.28-.68,.28-1.04v-1.23c-.06,.07-.18,.13-.37,.18-.19,.06-.41,.1-.66,.14s-.49,.07-.72,.1c-.23,.03-.42,.05-.57,.07-.35,.05-.67,.12-.97,.22-.3,.1-.54,.25-.73,.45s-.28,.47-.28,.81c0,.47,.17,.82,.52,1.05,.35,.24,.79,.36,1.32,.36Zm.05-8.91l1.39-2.64h1.57l-1.77,2.64h-1.18Z"/><path class="d" d="M482.05,68.06l-3.23,8.73h-1.36l-3.23-8.73h1.45l2.41,6.96h.09l2.41-6.96h1.45Z"/><path class="d" d="M485.16,71.54v5.25h-1.34v-8.73h1.29v1.36h.11c.2-.44,.51-.8,.93-1.07,.42-.27,.95-.41,1.61-.41,.59,0,1.11,.12,1.55,.36,.44,.24,.79,.6,1.03,1.09,.25,.49,.37,1.1,.37,1.84v5.55h-1.34v-5.45c0-.69-.18-1.22-.53-1.61-.36-.38-.84-.58-1.47-.58-.43,0-.81,.09-1.15,.28-.33,.19-.6,.46-.79,.81-.19,.36-.29,.79-.29,1.3Z"/><path class="d" d="M496.85,76.97c-.84,0-1.57-.19-2.17-.56-.61-.37-1.08-.9-1.4-1.57-.33-.67-.49-1.46-.49-2.35s.16-1.68,.49-2.37c.33-.68,.79-1.22,1.38-1.6,.59-.38,1.28-.58,2.07-.58,.45,0,.9,.08,1.35,.23s.85,.4,1.21,.74c.36,.34,.65,.79,.87,1.34s.32,1.24,.32,2.06v.57h-6.73v-1.16h5.36c0-.49-.1-.93-.29-1.32-.2-.39-.47-.69-.83-.91-.36-.22-.78-.34-1.26-.34-.53,0-1,.13-1.38,.4-.39,.26-.69,.6-.89,1.03-.21,.42-.31,.87-.31,1.35v.77c0,.66,.11,1.22,.34,1.67,.23,.46,.55,.8,.96,1.04,.41,.24,.88,.36,1.43,.36,.35,0,.67-.05,.96-.15,.29-.1,.53-.25,.74-.46,.21-.2,.37-.46,.48-.76l1.29,.36c-.14,.44-.37,.82-.69,1.16-.32,.33-.72,.59-1.19,.77-.47,.18-1.01,.28-1.6,.28Zm-1.39-12.41l1.18,1.59,1.18-1.59h1.27v.09l-1.84,2.36h-1.23l-1.84-2.36v-.09h1.27Z"/><path class="d" d="M506.75,76.79v-1.02l4.95-6.36v-.09h-4.79v-1.25h6.52v1.07l-4.82,6.32v.09h4.98v1.25h-6.84Z"/><path class="d" d="M518.23,76.99c-.55,0-1.06-.1-1.51-.31-.45-.21-.81-.52-1.07-.92-.26-.4-.4-.88-.4-1.45,0-.5,.1-.91,.29-1.22,.2-.31,.46-.56,.79-.74,.33-.18,.69-.31,1.09-.4s.8-.16,1.21-.21c.53-.07,.96-.12,1.29-.16,.33-.04,.57-.1,.73-.18,.15-.09,.23-.24,.23-.45v-.05c0-.56-.15-1-.46-1.31s-.77-.47-1.38-.47-1.14,.14-1.5,.42c-.36,.28-.62,.58-.77,.9l-1.27-.46c.23-.53,.53-.94,.91-1.24,.38-.3,.8-.51,1.25-.62,.45-.12,.9-.18,1.34-.18,.28,0,.6,.03,.97,.1,.37,.07,.72,.2,1.06,.41,.34,.2,.63,.51,.85,.93,.23,.41,.34,.97,.34,1.66v5.75h-1.34v-1.18h-.07c-.09,.19-.24,.39-.46,.61s-.49,.4-.85,.55c-.35,.15-.78,.23-1.29,.23Zm.2-1.2c.53,0,.98-.1,1.34-.31s.64-.48,.83-.81c.19-.33,.28-.68,.28-1.04v-1.23c-.06,.07-.18,.13-.37,.18-.19,.06-.41,.1-.66,.14s-.49,.07-.72,.1c-.23,.03-.42,.05-.57,.07-.35,.05-.67,.12-.97,.22-.3,.1-.54,.25-.73,.45s-.28,.47-.28,.81c0,.47,.17,.82,.52,1.05,.35,.24,.79,.36,1.32,.36Z"/><path class="d" d="M531.5,68.06l-3.23,8.73h-1.36l-3.23-8.73h1.45l2.41,6.96h.09l2.41-6.96h1.45Z"/><path class="d" d="M535.57,76.99c-.55,0-1.06-.1-1.51-.31-.45-.21-.81-.52-1.07-.92-.26-.4-.4-.88-.4-1.45,0-.5,.1-.91,.29-1.22,.2-.31,.46-.56,.79-.74,.33-.18,.69-.31,1.09-.4s.8-.16,1.21-.21c.53-.07,.96-.12,1.29-.16,.33-.04,.57-.1,.73-.18,.15-.09,.23-.24,.23-.45v-.05c0-.56-.15-1-.46-1.31s-.77-.47-1.38-.47-1.14,.14-1.5,.42c-.36,.28-.62,.58-.77,.9l-1.27-.46c.23-.53,.53-.94,.91-1.24,.38-.3,.8-.51,1.25-.62,.45-.12,.9-.18,1.34-.18,.28,0,.6,.03,.97,.1,.37,.07,.72,.2,1.06,.41,.34,.2,.63,.51,.85,.93,.23,.41,.34,.97,.34,1.66v5.75h-1.34v-1.18h-.07c-.09,.19-.24,.39-.46,.61s-.49,.4-.85,.55c-.35,.15-.78,.23-1.29,.23Zm.2-1.2c.53,0,.98-.1,1.34-.31s.64-.48,.83-.81c.19-.33,.28-.68,.28-1.04v-1.23c-.06,.07-.18,.13-.37,.18-.19,.06-.41,.1-.66,.14s-.49,.07-.72,.1c-.23,.03-.42,.05-.57,.07-.35,.05-.67,.12-.97,.22-.3,.1-.54,.25-.73,.45s-.28,.47-.28,.81c0,.47,.17,.82,.52,1.05,.35,.24,.79,.36,1.32,.36Z"/><path class="d" d="M541.78,76.79v-1.02l4.95-6.36v-.09h-4.79v-1.25h6.52v1.07l-4.82,6.32v.09h4.98v1.25h-6.84Z"/><path class="d" d="M556.19,73.22v-5.16h1.34v8.73h-1.34v-1.48h-.09c-.21,.44-.52,.82-.96,1.13s-.98,.46-1.64,.46c-.55,0-1.03-.12-1.46-.36s-.76-.6-1-1.09c-.24-.49-.36-1.1-.36-1.84v-5.55h1.34v5.46c0,.64,.18,1.14,.54,1.52,.36,.38,.82,.57,1.37,.57,.33,0,.67-.08,1.02-.26s.64-.43,.88-.78,.36-.8,.36-1.35Z"/><path class="d" d="M559.98,68.06h1.34v9.36c0,.54-.09,1-.28,1.4-.18,.39-.46,.7-.83,.92s-.83,.32-1.39,.32h-.27v-1.25h.25c.41,0,.71-.12,.9-.36,.19-.24,.28-.58,.28-1.03v-9.36Zm.66-1.45c-.26,0-.49-.09-.67-.27-.19-.18-.28-.39-.28-.64s.09-.46,.28-.64c.19-.18,.41-.27,.67-.27s.49,.09,.67,.27c.19,.18,.28,.39,.28,.64s-.09,.46-.28,.64c-.19,.18-.41,.27-.67,.27Z"/><path class="d" d="M567.44,76.97c-.84,0-1.57-.19-2.17-.56-.61-.37-1.08-.9-1.4-1.57-.33-.67-.49-1.46-.49-2.35s.16-1.68,.49-2.37c.33-.68,.79-1.22,1.38-1.6,.59-.38,1.28-.58,2.07-.58,.45,0,.9,.08,1.35,.23s.85,.4,1.21,.74c.36,.34,.65,.79,.87,1.34s.32,1.24,.32,2.06v.57h-6.73v-1.16h5.36c0-.49-.1-.93-.29-1.32-.2-.39-.47-.69-.83-.91-.36-.22-.78-.34-1.26-.34-.53,0-1,.13-1.38,.4-.39,.26-.69,.6-.89,1.03-.21,.42-.31,.87-.31,1.35v.77c0,.66,.11,1.22,.34,1.67,.23,.46,.55,.8,.96,1.04,.41,.24,.88,.36,1.43,.36,.35,0,.67-.05,.96-.15,.29-.1,.53-.25,.74-.46,.21-.2,.37-.46,.48-.76l1.29,.36c-.14,.44-.37,.82-.69,1.16-.32,.33-.72,.59-1.19,.77-.47,.18-1.01,.28-1.6,.28Z"/><path class="d" d="M577.78,76.79v-11.64h7.02v1.25h-5.61v3.93h5.25v1.25h-5.25v3.95h5.7v1.25h-7.11Z"/><path class="d" d="M594.98,65.15h1.41v7.71c0,.79-.19,1.5-.56,2.13s-.9,1.11-1.58,1.47c-.68,.36-1.47,.54-2.39,.54s-1.71-.18-2.39-.54c-.68-.36-1.2-.85-1.58-1.47s-.56-1.33-.56-2.13v-7.71h1.41v7.59c0,.57,.12,1.07,.38,1.51s.61,.79,1.07,1.04c.46,.25,1.02,.38,1.67,.38s1.21-.13,1.67-.38,.82-.6,1.07-1.04,.37-.95,.37-1.51v-7.59Z"/><path class="d" d="M606.82,76.97c-.73,0-1.37-.18-1.93-.55s-.99-.89-1.31-1.57-.47-1.48-.47-2.4,.16-1.71,.47-2.39c.31-.67,.75-1.19,1.31-1.56,.56-.37,1.21-.55,1.94-.55,.57,0,1.02,.09,1.35,.28,.33,.19,.59,.4,.76,.64,.18,.24,.31,.43,.41,.58h.11v-4.3h1.34v11.64h-1.29v-1.34h-.16c-.1,.16-.24,.36-.42,.6-.18,.24-.44,.45-.78,.64s-.79,.28-1.35,.28Zm.18-1.2c.54,0,.99-.14,1.36-.42s.65-.67,.85-1.18,.29-1.08,.29-1.74-.09-1.22-.28-1.71c-.19-.49-.47-.87-.84-1.15-.37-.27-.83-.41-1.38-.41s-1.04,.15-1.42,.43c-.38,.29-.66,.68-.85,1.18s-.28,1.05-.28,1.66,.1,1.18,.29,1.69c.19,.5,.47,.91,.85,1.2,.38,.3,.85,.45,1.41,.45Z"/><path class="d" d="M617,76.97c-.79,0-1.48-.19-2.07-.56-.59-.38-1.06-.9-1.39-1.57-.33-.67-.5-1.46-.5-2.36s.17-1.7,.5-2.38c.33-.68,.79-1.2,1.39-1.58,.59-.38,1.28-.56,2.07-.56s1.48,.19,2.07,.56,1.05,.9,1.39,1.58c.33,.68,.5,1.47,.5,2.38s-.17,1.69-.5,2.36c-.33,.67-.79,1.2-1.39,1.57s-1.28,.56-2.07,.56Zm0-1.2c.6,0,1.09-.15,1.48-.46,.39-.31,.67-.71,.86-1.21,.19-.5,.28-1.04,.28-1.62s-.09-1.13-.28-1.63c-.19-.5-.47-.91-.86-1.22-.39-.31-.88-.47-1.48-.47s-1.09,.16-1.48,.47c-.39,.31-.67,.72-.86,1.22-.19,.5-.28,1.05-.28,1.63s.09,1.12,.28,1.62,.47,.9,.86,1.21c.39,.31,.88,.46,1.48,.46Z"/><path class="d" d="M629.19,70.01l-1.21,.34c-.08-.2-.19-.4-.33-.59s-.34-.35-.59-.47-.57-.19-.96-.19c-.53,0-.98,.12-1.33,.37-.35,.24-.53,.55-.53,.93,0,.33,.12,.6,.36,.79s.62,.35,1.14,.48l1.3,.32c.78,.19,1.36,.48,1.74,.87,.38,.39,.57,.89,.57,1.5,0,.5-.14,.95-.43,1.34-.29,.39-.69,.7-1.2,.93-.51,.23-1.11,.34-1.78,.34-.89,0-1.63-.19-2.21-.58-.58-.39-.95-.95-1.11-1.69l1.27-.32c.12,.47,.35,.82,.69,1.06,.34,.24,.78,.35,1.33,.35,.62,0,1.12-.13,1.49-.4,.37-.27,.55-.59,.55-.96,0-.3-.11-.56-.32-.76-.21-.21-.54-.36-.98-.46l-1.46-.34c-.8-.19-1.39-.48-1.76-.88s-.56-.9-.56-1.5c0-.49,.14-.93,.42-1.31s.66-.68,1.14-.89c.48-.22,1.03-.32,1.65-.32,.86,0,1.54,.19,2.04,.57,.49,.38,.85,.88,1.05,1.5Z"/><path class="d" d="M633.94,76.99c-.55,0-1.06-.1-1.51-.31-.45-.21-.81-.52-1.07-.92-.26-.4-.4-.88-.4-1.45,0-.5,.1-.91,.29-1.22,.2-.31,.46-.56,.79-.74,.33-.18,.69-.31,1.09-.4s.8-.16,1.21-.21c.53-.07,.96-.12,1.29-.16,.33-.04,.57-.1,.73-.18,.15-.09,.23-.24,.23-.45v-.05c0-.56-.15-1-.46-1.31s-.77-.47-1.38-.47-1.14,.14-1.5,.42c-.36,.28-.62,.58-.77,.9l-1.27-.46c.23-.53,.53-.94,.91-1.24,.38-.3,.8-.51,1.25-.62,.45-.12,.9-.18,1.34-.18,.28,0,.6,.03,.97,.1,.37,.07,.72,.2,1.06,.41,.34,.2,.63,.51,.85,.93,.23,.41,.34,.97,.34,1.66v5.75h-1.34v-1.18h-.07c-.09,.19-.24,.39-.46,.61s-.49,.4-.85,.55c-.35,.15-.78,.23-1.29,.23Zm.2-1.2c.53,0,.98-.1,1.34-.31s.64-.48,.83-.81c.19-.33,.28-.68,.28-1.04v-1.23c-.06,.07-.18,.13-.37,.18-.19,.06-.41,.1-.66,.14s-.49,.07-.72,.1c-.23,.03-.42,.05-.57,.07-.35,.05-.67,.12-.97,.22-.3,.1-.54,.25-.73,.45s-.28,.47-.28,.81c0,.47,.17,.82,.52,1.05,.35,.24,.79,.36,1.32,.36Zm.05-8.91l1.39-2.64h1.57l-1.77,2.64h-1.18Z"/><path class="d" d="M641.73,71.54v5.25h-1.34v-11.64h1.34v4.27h.11c.21-.45,.51-.81,.92-1.08,.41-.27,.96-.4,1.64-.4,.59,0,1.12,.12,1.56,.36,.45,.24,.79,.6,1.04,1.08,.25,.49,.37,1.1,.37,1.85v5.55h-1.34v-5.45c0-.69-.18-1.23-.54-1.61-.36-.38-.85-.57-1.49-.57-.44,0-.83,.09-1.18,.28-.35,.19-.62,.46-.82,.81-.2,.36-.3,.79-.3,1.3Z"/><path class="d" d="M651.19,71.54v5.25h-1.34v-8.73h1.29v1.36h.11c.2-.44,.51-.8,.93-1.07,.42-.27,.95-.41,1.61-.41,.59,0,1.11,.12,1.55,.36,.44,.24,.79,.6,1.03,1.09,.25,.49,.37,1.1,.37,1.84v5.55h-1.34v-5.45c0-.69-.18-1.22-.53-1.61-.36-.38-.84-.58-1.47-.58-.43,0-.81,.09-1.15,.28-.33,.19-.6,.46-.79,.81-.19,.36-.29,.79-.29,1.3Z"/><path class="d" d="M662.75,76.97c-.79,0-1.48-.19-2.07-.56-.59-.38-1.06-.9-1.39-1.57-.33-.67-.5-1.46-.5-2.36s.17-1.7,.5-2.38c.33-.68,.79-1.2,1.39-1.58,.59-.38,1.28-.56,2.07-.56s1.48,.19,2.07,.56,1.05,.9,1.39,1.58c.33,.68,.5,1.47,.5,2.38s-.17,1.69-.5,2.36c-.33,.67-.79,1.2-1.39,1.57s-1.28,.56-2.07,.56Zm0-1.2c.6,0,1.09-.15,1.48-.46,.39-.31,.67-.71,.86-1.21,.19-.5,.28-1.04,.28-1.62s-.09-1.13-.28-1.63c-.19-.5-.47-.91-.86-1.22-.39-.31-.88-.47-1.48-.47s-1.09,.16-1.48,.47c-.39,.31-.67,.72-.86,1.22-.19,.5-.28,1.05-.28,1.63s.09,1.12,.28,1.62,.47,.9,.86,1.21c.39,.31,.88,.46,1.48,.46Z"/><path class="d" d="M674.25,73.22v-5.16h1.34v8.73h-1.34v-1.48h-.09c-.21,.44-.52,.82-.96,1.13s-.98,.46-1.64,.46c-.55,0-1.03-.12-1.46-.36s-.76-.6-1-1.09c-.24-.49-.36-1.1-.36-1.84v-5.55h1.34v5.46c0,.64,.18,1.14,.54,1.52,.36,.38,.82,.57,1.37,.57,.33,0,.67-.08,1.02-.26s.64-.43,.88-.78,.36-.8,.36-1.35Z"/><path class="d" d="M681.84,68.06v1.14h-4.52v-1.14h4.52Zm-3.2-2.09h1.34v8.32c0,.38,.06,.66,.17,.85,.11,.19,.25,.31,.43,.38,.18,.06,.36,.09,.56,.09,.15,0,.27,0,.36-.03,.09-.02,.17-.03,.23-.04l.27,1.2c-.09,.03-.22,.07-.38,.11-.16,.04-.37,.05-.62,.05-.38,0-.75-.08-1.11-.24-.36-.16-.66-.41-.9-.74-.24-.33-.35-.75-.35-1.26v-8.68Z"/><path class="d" d="M450.1,95.99v-11.64h1.34v11.64h-1.34Zm1.25-3.18l-.02-1.66h.27l3.82-3.89h1.66l-4.07,4.11h-.11l-1.54,1.43Zm4.29,3.18l-3.41-4.32,.96-.93,4.16,5.25h-1.71Z"/><path class="d" d="M460.14,84.35v11.64h-1.34v-11.64h1.34Z"/><path class="d" d="M463.28,85.8c-.26,0-.49-.09-.67-.27-.19-.18-.28-.39-.28-.64s.09-.46,.28-.64c.19-.18,.41-.27,.67-.27s.49,.09,.67,.27c.19,.18,.28,.39,.28,.64s-.09,.46-.28,.64c-.19,.18-.41,.27-.67,.27Zm-.68,10.18v-8.73h1.34v8.73h-1.34Z"/><path class="d" d="M466.39,95.99v-8.73h1.29v1.36h.11c.18-.47,.47-.83,.88-1.09,.41-.26,.89-.39,1.46-.39s1.06,.13,1.44,.39c.38,.26,.68,.62,.9,1.09h.09c.22-.45,.56-.81,1.01-1.08,.45-.27,.98-.4,1.61-.4,.78,0,1.42,.24,1.92,.73,.5,.49,.74,1.24,.74,2.27v5.84h-1.34v-5.84c0-.64-.18-1.1-.53-1.38s-.77-.42-1.24-.42c-.61,0-1.09,.18-1.43,.55-.34,.37-.5,.84-.5,1.4v5.68h-1.36v-5.98c0-.5-.16-.9-.48-1.2-.32-.3-.74-.46-1.24-.46-.35,0-.67,.09-.97,.28-.3,.19-.54,.44-.73,.77-.18,.33-.28,.71-.28,1.13v5.45h-1.34Z"/><path class="d" d="M482.87,96.19c-.55,0-1.06-.1-1.51-.31-.45-.21-.81-.52-1.07-.92-.26-.4-.4-.88-.4-1.45,0-.5,.1-.91,.29-1.22,.2-.31,.46-.56,.79-.74,.33-.18,.69-.31,1.09-.4s.8-.16,1.21-.21c.53-.07,.96-.12,1.29-.16,.33-.04,.57-.1,.73-.18,.15-.09,.23-.24,.23-.45v-.05c0-.56-.15-1-.46-1.31s-.77-.47-1.38-.47-1.14,.14-1.5,.42c-.36,.28-.62,.58-.77,.9l-1.27-.46c.23-.53,.53-.94,.91-1.24,.38-.3,.8-.51,1.25-.62,.45-.12,.9-.18,1.34-.18,.28,0,.6,.03,.97,.1,.37,.07,.72,.2,1.06,.41,.34,.2,.63,.51,.85,.93,.23,.41,.34,.97,.34,1.66v5.75h-1.34v-1.18h-.07c-.09,.19-.24,.39-.46,.61s-.49,.4-.85,.55c-.35,.15-.78,.23-1.29,.23Zm.2-1.2c.53,0,.98-.1,1.34-.31s.64-.48,.83-.81c.19-.33,.28-.68,.28-1.04v-1.23c-.06,.07-.18,.13-.37,.18-.19,.06-.41,.1-.66,.14s-.49,.07-.72,.1c-.23,.03-.42,.05-.57,.07-.35,.05-.67,.12-.97,.22-.3,.1-.54,.25-.73,.45s-.28,.47-.28,.81c0,.47,.17,.82,.52,1.05,.35,.24,.79,.36,1.32,.36Z"/><path class="d" d="M493.12,87.26v1.14h-4.52v-1.14h4.52Zm-3.2-2.09h1.34v8.32c0,.38,.06,.66,.17,.85,.11,.19,.25,.31,.43,.38,.18,.06,.36,.09,.56,.09,.15,0,.27,0,.36-.03,.09-.02,.17-.03,.23-.04l.27,1.2c-.09,.03-.22,.07-.38,.11-.16,.04-.37,.05-.62,.05-.38,0-.75-.08-1.11-.24-.36-.16-.66-.41-.9-.74-.24-.33-.35-.75-.35-1.26v-8.68Z"/><path class="d" d="M495.82,85.8c-.26,0-.49-.09-.67-.27-.19-.18-.28-.39-.28-.64s.09-.46,.28-.64c.19-.18,.41-.27,.67-.27s.49,.09,.67,.27c.19,.18,.28,.39,.28,.64s-.09,.46-.28,.64c-.19,.18-.41,.27-.67,.27Zm-.68,10.18v-8.73h1.34v8.73h-1.34Z"/><path class="d" d="M502.48,96.17c-.82,0-1.52-.19-2.11-.58-.59-.39-1.05-.92-1.36-1.6-.32-.68-.48-1.45-.48-2.32s.16-1.67,.49-2.35c.33-.68,.79-1.21,1.38-1.6,.59-.38,1.28-.58,2.07-.58,.61,0,1.17,.11,1.66,.34s.9,.55,1.21,.95c.31,.41,.51,.89,.58,1.43h-1.34c-.1-.4-.33-.75-.68-1.06-.35-.31-.82-.46-1.41-.46-.52,0-.98,.14-1.37,.41-.39,.27-.7,.65-.92,1.14s-.33,1.07-.33,1.72,.11,1.26,.32,1.76c.21,.5,.52,.89,.91,1.17,.39,.28,.85,.42,1.38,.42,.35,0,.67-.06,.95-.18,.28-.12,.52-.3,.72-.52,.2-.23,.34-.5,.42-.82h1.34c-.08,.52-.26,.98-.56,1.39-.3,.41-.69,.74-1.18,.98-.49,.24-1.05,.36-1.7,.36Z"/><path class="d" d="M507.87,95.99v-11.64h1.34v11.64h-1.34Zm1.25-3.18l-.02-1.66h.27l3.82-3.89h1.66l-4.07,4.11h-.11l-1.54,1.43Zm4.29,3.18l-3.41-4.32,.96-.93,4.16,5.25h-1.71Z"/><path class="d" d="M517.44,99.26c-.23,0-.43-.02-.61-.05-.18-.04-.3-.07-.37-.11l.34-1.18c.33,.08,.61,.11,.86,.09,.25-.02,.47-.13,.67-.33,.2-.2,.37-.52,.54-.96l.25-.68-3.23-8.77h1.45l2.41,6.96h.09l2.41-6.96h1.45l-3.7,10c-.17,.45-.37,.83-.62,1.12-.25,.3-.53,.52-.86,.66-.32,.14-.69,.22-1.09,.22Zm1.75-13.18l1.39-2.64h1.57l-1.77,2.64h-1.18Z"/><path class="d" d="M528.71,96.17c-.82,0-1.52-.19-2.11-.58-.59-.39-1.05-.92-1.36-1.6-.32-.68-.48-1.45-.48-2.32s.16-1.67,.49-2.35c.33-.68,.79-1.21,1.38-1.6,.59-.38,1.28-.58,2.07-.58,.61,0,1.17,.11,1.66,.34s.9,.55,1.21,.95c.31,.41,.51,.89,.58,1.43h-1.34c-.1-.4-.33-.75-.68-1.06-.35-.31-.82-.46-1.41-.46-.52,0-.98,.14-1.37,.41-.39,.27-.7,.65-.92,1.14s-.33,1.07-.33,1.72,.11,1.26,.32,1.76c.21,.5,.52,.89,.91,1.17,.39,.28,.85,.42,1.38,.42,.35,0,.67-.06,.95-.18,.28-.12,.52-.3,.72-.52,.2-.23,.34-.5,.42-.82h1.34c-.08,.52-.26,.98-.56,1.39-.3,.41-.69,.74-1.18,.98-.49,.24-1.05,.36-1.7,.36Z"/><path class="d" d="M535.44,90.74v5.25h-1.34v-11.64h1.34v4.27h.11c.21-.45,.51-.81,.92-1.08,.41-.27,.96-.4,1.64-.4,.59,0,1.12,.12,1.56,.36,.45,.24,.79,.6,1.04,1.08,.25,.49,.37,1.1,.37,1.85v5.55h-1.34v-5.45c0-.69-.18-1.23-.54-1.61-.36-.38-.85-.57-1.49-.57-.44,0-.83,.09-1.18,.28-.35,.19-.62,.46-.82,.81-.2,.36-.3,.79-.3,1.3Z"/><path class="d" d="M551.59,96.17c-.82,0-1.52-.19-2.11-.58-.59-.39-1.05-.92-1.36-1.6-.32-.68-.48-1.45-.48-2.32s.16-1.67,.49-2.35c.33-.68,.79-1.21,1.38-1.6,.59-.38,1.28-.58,2.07-.58,.61,0,1.17,.11,1.66,.34s.9,.55,1.21,.95c.31,.41,.51,.89,.58,1.43h-1.34c-.1-.4-.33-.75-.68-1.06-.35-.31-.82-.46-1.41-.46-.52,0-.98,.14-1.37,.41-.39,.27-.7,.65-.92,1.14s-.33,1.07-.33,1.72,.11,1.26,.32,1.76c.21,.5,.52,.89,.91,1.17,.39,.28,.85,.42,1.38,.42,.35,0,.67-.06,.95-.18,.28-.12,.52-.3,.72-.52,.2-.23,.34-.5,.42-.82h1.34c-.08,.52-.26,.98-.56,1.39-.3,.41-.69,.74-1.18,.98-.49,.24-1.05,.36-1.7,.36Z"/><path class="d" d="M556.98,95.99v-8.73h1.34v8.73h-1.34Zm.07-9.91l1.39-2.64h1.57l-1.77,2.64h-1.18Z"/><path class="d" d="M562.12,84.35v11.64h-1.34v-11.64h1.34Z"/><path class="d" d="M570.07,92.42v-5.16h1.34v8.73h-1.34v-1.48h-.09c-.21,.44-.52,.82-.96,1.13s-.98,.46-1.64,.46c-.55,0-1.03-.12-1.46-.36s-.76-.6-1-1.09c-.24-.49-.36-1.1-.36-1.84v-5.55h1.34v5.46c0,.64,.18,1.14,.54,1.52,.36,.38,.82,.57,1.37,.57,.33,0,.67-.08,1.02-.26s.64-.43,.88-.78,.36-.8,.36-1.35Zm-2.07-6.14c-.39,0-.74-.09-1.05-.26-.31-.17-.56-.4-.74-.69s-.28-.62-.28-.98,.09-.7,.28-1c.18-.3,.43-.54,.74-.73,.31-.18,.66-.27,1.05-.27s.73,.09,1.04,.27c.31,.18,.55,.42,.73,.73,.18,.3,.27,.64,.27,1s-.09,.69-.27,.98-.42,.52-.73,.69c-.31,.17-.66,.26-1.04,.26Zm0-.86c.32,0,.58-.11,.78-.33,.2-.22,.31-.47,.31-.74s-.1-.54-.31-.77c-.21-.23-.47-.34-.78-.34s-.58,.11-.78,.34-.31,.49-.31,.77,.1,.52,.31,.74,.47,.33,.78,.33Z"/></g></g><circle class="f" cx="452.91" cy="161.26" r="25.42"/><g class="h"><g><path class="d" d="M450.01,166.15v-13.09h8.67v2.28h-5.9v3.12h5.33v2.28h-5.33v5.41h-2.77Z"/><path class="d" d="M461.85,155.07c-.4,0-.75-.13-1.04-.41-.29-.27-.43-.6-.43-.98s.14-.7,.43-.97c.29-.27,.63-.41,1.04-.41s.75,.14,1.04,.41c.29,.27,.43,.59,.43,.97s-.14,.7-.43,.98c-.29,.27-.63,.41-1.04,.41Zm-1.37,11.08v-9.82h2.72v9.82h-2.72Z"/><path class="d" d="M470.6,156.33v2.05h-5.91v-2.05h5.91Zm-4.57-2.35h2.72v9.15c0,.25,.04,.45,.12,.58,.08,.14,.18,.24,.32,.29,.14,.06,.3,.08,.48,.08,.13,0,.26-.01,.38-.04s.23-.04,.29-.05l.43,2.03c-.14,.04-.33,.09-.58,.15-.25,.06-.55,.09-.9,.11-.66,.03-1.23-.06-1.72-.26s-.88-.51-1.15-.93c-.27-.42-.41-.95-.4-1.6v-9.51Z"/><path class="d" d="M481.83,156.33v2.05h-6.06v-2.05h6.06Zm-4.67,9.82v-10.53c0-.71,.14-1.3,.42-1.77s.66-.82,1.15-1.05c.49-.23,1.04-.35,1.66-.35,.42,0,.8,.03,1.15,.1,.35,.06,.61,.12,.78,.17l-.49,2.05c-.11-.03-.24-.07-.39-.1-.16-.03-.31-.04-.48-.04-.4,0-.68,.09-.84,.28-.16,.19-.24,.44-.24,.78v10.48h-2.72Z"/><path class="d" d="M487.58,166.34c-.99,0-1.85-.21-2.57-.64-.72-.42-1.28-1.02-1.67-1.78-.39-.76-.59-1.64-.59-2.65s.2-1.9,.59-2.66c.39-.76,.95-1.35,1.67-1.78,.72-.42,1.58-.64,2.57-.64s1.85,.21,2.57,.64c.72,.42,1.28,1.02,1.67,1.78,.39,.76,.59,1.65,.59,2.66s-.2,1.89-.59,2.65c-.39,.76-.95,1.35-1.67,1.78-.72,.42-1.58,.64-2.57,.64Zm.01-2.11c.45,0,.83-.13,1.13-.39s.53-.61,.69-1.06c.16-.45,.23-.96,.23-1.53s-.08-1.08-.23-1.53c-.16-.45-.38-.8-.69-1.06s-.68-.39-1.13-.39-.84,.13-1.15,.39c-.31,.26-.54,.61-.7,1.06-.16,.45-.23,.96-.23,1.53s.08,1.08,.23,1.53,.39,.8,.7,1.06c.31,.26,.69,.39,1.15,.39Z"/><path class="d" d="M494.19,166.15v-9.82h2.64v1.71h.1c.18-.61,.48-1.07,.9-1.38,.42-.31,.91-.47,1.46-.47,.14,0,.28,0,.44,.03,.16,.02,.3,.04,.42,.07v2.42c-.13-.04-.3-.07-.53-.1-.23-.03-.43-.04-.62-.04-.4,0-.76,.09-1.07,.26-.31,.17-.56,.41-.74,.72-.18,.31-.27,.66-.27,1.06v5.55h-2.72Z"/><path class="d" d="M510.48,166.33c-.9,0-1.71-.17-2.41-.5-.71-.33-1.26-.79-1.68-1.38-.41-.58-.63-1.25-.65-2.01h2.68c.03,.51,.24,.92,.64,1.23,.4,.32,.87,.47,1.41,.47,.43,0,.82-.1,1.15-.29s.6-.46,.79-.81c.19-.35,.28-.75,.28-1.2s-.1-.86-.29-1.21c-.19-.35-.46-.62-.8-.82s-.73-.3-1.17-.3c-.38,0-.75,.08-1.12,.24-.36,.16-.64,.37-.84,.65l-2.46-.44,.62-6.9h8v2.26h-5.72l-.34,3.28h.08c.23-.32,.58-.59,1.04-.81,.46-.21,.98-.32,1.56-.32,.79,0,1.49,.19,2.11,.56,.62,.37,1.11,.88,1.46,1.52,.36,.65,.53,1.39,.53,2.23,0,.88-.2,1.67-.61,2.35s-.98,1.22-1.72,1.61c-.74,.39-1.59,.58-2.56,.58Z"/><path class="d" d="M522.08,166.33c-.9,0-1.71-.17-2.41-.5-.71-.33-1.26-.79-1.68-1.38-.41-.58-.63-1.25-.65-2.01h2.68c.03,.51,.24,.92,.64,1.23,.4,.32,.87,.47,1.41,.47,.43,0,.82-.1,1.15-.29s.6-.46,.79-.81c.19-.35,.28-.75,.28-1.2s-.1-.86-.29-1.21c-.19-.35-.46-.62-.8-.82s-.73-.3-1.17-.3c-.38,0-.75,.08-1.12,.24-.36,.16-.64,.37-.84,.65l-2.46-.44,.62-6.9h8v2.26h-5.72l-.34,3.28h.08c.23-.32,.58-.59,1.04-.81,.46-.21,.98-.32,1.56-.32,.79,0,1.49,.19,2.11,.56,.62,.37,1.11,.88,1.46,1.52,.36,.65,.53,1.39,.53,2.23,0,.88-.2,1.67-.61,2.35s-.98,1.22-1.72,1.61c-.74,.39-1.59,.58-2.56,.58Z"/></g></g><g class="h"><g><path class="d" d="M451.69,190.69v11.64h-1.41v-11.64h1.41Z"/><path class="d" d="M454.32,202.32v-8.73h1.29v1.36h.11c.18-.47,.47-.83,.88-1.09,.41-.26,.89-.39,1.46-.39s1.06,.13,1.44,.39c.38,.26,.68,.62,.9,1.09h.09c.22-.45,.56-.81,1.01-1.08,.45-.27,.98-.4,1.61-.4,.78,0,1.42,.24,1.92,.73,.5,.49,.74,1.24,.74,2.27v5.84h-1.34v-5.84c0-.64-.18-1.1-.53-1.38s-.77-.42-1.24-.42c-.61,0-1.09,.18-1.43,.55-.34,.37-.5,.84-.5,1.4v5.68h-1.36v-5.98c0-.5-.16-.9-.48-1.2-.32-.3-.74-.46-1.24-.46-.35,0-.67,.09-.97,.28-.3,.19-.54,.44-.73,.77-.18,.33-.28,.71-.28,1.13v5.45h-1.34Z"/><path class="d" d="M468.23,205.59v-12h1.29v1.39h.16c.1-.15,.24-.35,.41-.58,.18-.24,.43-.45,.76-.64,.33-.19,.78-.28,1.35-.28,.74,0,1.38,.18,1.94,.55,.56,.37,1,.89,1.31,1.56,.31,.67,.47,1.47,.47,2.39s-.16,1.72-.47,2.4-.75,1.2-1.31,1.57-1.2,.55-1.93,.55c-.56,0-1.01-.09-1.35-.28s-.6-.4-.78-.64c-.18-.24-.32-.44-.42-.6h-.11v4.61h-1.34Zm1.32-7.64c0,.66,.1,1.24,.29,1.74s.48,.89,.85,1.18,.83,.42,1.36,.42,1.03-.15,1.41-.45c.38-.3,.66-.7,.85-1.2,.19-.51,.29-1.07,.29-1.69s-.09-1.17-.28-1.66-.47-.89-.85-1.18c-.38-.29-.85-.43-1.42-.43s-1,.14-1.38,.41c-.37,.27-.65,.66-.84,1.15-.19,.49-.28,1.06-.28,1.71Z"/><path class="d" d="M479.32,190.69v11.64h-1.34v-11.64h1.34Z"/><path class="d" d="M485.44,202.5c-.84,0-1.57-.19-2.17-.56-.61-.37-1.08-.9-1.4-1.57-.33-.67-.49-1.46-.49-2.35s.16-1.68,.49-2.37c.33-.68,.79-1.22,1.38-1.6,.59-.38,1.28-.58,2.07-.58,.45,0,.9,.08,1.35,.23s.85,.4,1.21,.74c.36,.34,.65,.79,.87,1.34s.32,1.24,.32,2.06v.57h-6.73v-1.16h5.36c0-.49-.1-.93-.29-1.32-.2-.39-.47-.69-.83-.91-.36-.22-.78-.34-1.26-.34-.53,0-1,.13-1.38,.4-.39,.26-.69,.6-.89,1.03-.21,.42-.31,.87-.31,1.35v.77c0,.66,.11,1.22,.34,1.67,.23,.46,.55,.8,.96,1.04,.41,.24,.88,.36,1.43,.36,.35,0,.67-.05,.96-.15,.29-.1,.53-.25,.74-.46,.21-.2,.37-.46,.48-.76l1.29,.36c-.14,.44-.37,.82-.69,1.16-.32,.33-.72,.59-1.19,.77-.47,.18-1.01,.28-1.6,.28Z"/><path class="d" d="M491.1,202.32v-8.73h1.29v1.36h.11c.18-.47,.47-.83,.88-1.09,.41-.26,.89-.39,1.46-.39s1.06,.13,1.44,.39c.38,.26,.68,.62,.9,1.09h.09c.22-.45,.56-.81,1.01-1.08,.45-.27,.98-.4,1.61-.4,.78,0,1.42,.24,1.92,.73,.5,.49,.74,1.24,.74,2.27v5.84h-1.34v-5.84c0-.64-.18-1.1-.53-1.38s-.77-.42-1.24-.42c-.61,0-1.09,.18-1.43,.55-.34,.37-.5,.84-.5,1.4v5.68h-1.36v-5.98c0-.5-.16-.9-.48-1.2-.32-.3-.74-.46-1.24-.46-.35,0-.67,.09-.97,.28-.3,.19-.54,.44-.73,.77-.18,.33-.28,.71-.28,1.13v5.45h-1.34Z"/><path class="d" d="M508.67,202.5c-.84,0-1.57-.19-2.17-.56-.61-.37-1.08-.9-1.4-1.57-.33-.67-.49-1.46-.49-2.35s.16-1.68,.49-2.37c.33-.68,.79-1.22,1.38-1.6,.59-.38,1.28-.58,2.07-.58,.45,0,.9,.08,1.35,.23s.85,.4,1.21,.74c.36,.34,.65,.79,.87,1.34s.32,1.24,.32,2.06v.57h-6.73v-1.16h5.36c0-.49-.1-.93-.29-1.32-.2-.39-.47-.69-.83-.91-.36-.22-.78-.34-1.26-.34-.53,0-1,.13-1.38,.4-.39,.26-.69,.6-.89,1.03-.21,.42-.31,.87-.31,1.35v.77c0,.66,.11,1.22,.34,1.67,.23,.46,.55,.8,.96,1.04,.41,.24,.88,.36,1.43,.36,.35,0,.67-.05,.96-.15,.29-.1,.53-.25,.74-.46,.21-.2,.37-.46,.48-.76l1.29,.36c-.14,.44-.37,.82-.69,1.16-.32,.33-.72,.59-1.19,.77-.47,.18-1.01,.28-1.6,.28Z"/><path class="d" d="M515.67,197.07v5.25h-1.34v-8.73h1.29v1.36h.11c.2-.44,.51-.8,.93-1.07,.42-.27,.95-.41,1.61-.41,.59,0,1.11,.12,1.55,.36,.44,.24,.79,.6,1.03,1.09,.25,.49,.37,1.1,.37,1.84v5.55h-1.34v-5.45c0-.69-.18-1.22-.53-1.61-.36-.38-.84-.58-1.47-.58-.43,0-.81,.09-1.15,.28-.33,.19-.6,.46-.79,.81-.19,.36-.29,.79-.29,1.3Z"/><path class="d" d="M527.48,193.59v1.14h-4.52v-1.14h4.52Zm-3.2-2.09h1.34v8.32c0,.38,.06,.66,.17,.85,.11,.19,.25,.31,.43,.38,.18,.06,.36,.09,.56,.09,.15,0,.27,0,.36-.03,.09-.02,.17-.03,.23-.04l.27,1.2c-.09,.03-.22,.07-.38,.11-.16,.04-.37,.05-.62,.05-.38,0-.75-.08-1.11-.24-.36-.16-.66-.41-.9-.74-.24-.33-.35-.75-.35-1.26v-8.68Z"/><path class="d" d="M532.07,202.53c-.55,0-1.06-.1-1.51-.31-.45-.21-.81-.52-1.07-.92-.26-.4-.4-.88-.4-1.45,0-.5,.1-.91,.29-1.22,.2-.31,.46-.56,.79-.74,.33-.18,.69-.31,1.09-.4s.8-.16,1.21-.21c.53-.07,.96-.12,1.29-.16,.33-.04,.57-.1,.73-.18,.15-.09,.23-.24,.23-.45v-.05c0-.56-.15-1-.46-1.31s-.77-.47-1.38-.47-1.14,.14-1.5,.42c-.36,.28-.62,.58-.77,.9l-1.27-.46c.23-.53,.53-.94,.91-1.24,.38-.3,.8-.51,1.25-.62,.45-.12,.9-.18,1.34-.18,.28,0,.6,.03,.97,.1,.37,.07,.72,.2,1.06,.41,.34,.2,.63,.51,.85,.93,.23,.41,.34,.97,.34,1.66v5.75h-1.34v-1.18h-.07c-.09,.19-.24,.39-.46,.61s-.49,.4-.85,.55c-.35,.15-.78,.23-1.29,.23Zm.2-1.2c.53,0,.98-.1,1.34-.31s.64-.48,.83-.81c.19-.33,.28-.68,.28-1.04v-1.23c-.06,.07-.18,.13-.37,.18-.19,.06-.41,.1-.66,.14s-.49,.07-.72,.1c-.23,.03-.42,.05-.57,.07-.35,.05-.67,.12-.97,.22-.3,.1-.54,.25-.73,.45s-.28,.47-.28,.81c0,.47,.17,.82,.52,1.05,.35,.24,.79,.36,1.32,.36Z"/><path class="d" d="M542.07,202.5c-.82,0-1.52-.19-2.11-.58-.59-.39-1.05-.92-1.36-1.6-.32-.68-.48-1.45-.48-2.32s.16-1.67,.49-2.35c.33-.68,.79-1.21,1.38-1.6,.59-.38,1.28-.58,2.07-.58,.61,0,1.17,.11,1.66,.34s.9,.55,1.21,.95c.31,.41,.51,.89,.58,1.43h-1.34c-.1-.4-.33-.75-.68-1.06-.35-.31-.82-.46-1.41-.46-.52,0-.98,.14-1.37,.41-.39,.27-.7,.65-.92,1.14s-.33,1.07-.33,1.72,.11,1.26,.32,1.76c.21,.5,.52,.89,.91,1.17,.39,.28,.85,.42,1.38,.42,.35,0,.67-.06,.95-.18,.28-.12,.52-.3,.72-.52,.2-.23,.34-.5,.42-.82h1.34c-.08,.52-.26,.98-.56,1.39-.3,.41-.69,.74-1.18,.98-.49,.24-1.05,.36-1.7,.36Zm-1.23-12.41l1.18,1.59,1.18-1.59h1.27v.09l-1.84,2.36h-1.23l-1.84-2.36v-.09h1.27Z"/><path class="d" d="M548.8,197.07v5.25h-1.34v-8.73h1.29v1.36h.11c.2-.44,.51-.8,.93-1.07,.42-.27,.95-.41,1.61-.41,.59,0,1.11,.12,1.55,.36,.44,.24,.79,.6,1.03,1.09,.25,.49,.37,1.1,.37,1.84v5.55h-1.34v-5.45c0-.69-.18-1.22-.53-1.61-.36-.38-.84-.58-1.47-.58-.43,0-.81,.09-1.15,.28-.33,.19-.6,.46-.79,.81-.19,.36-.29,.79-.29,1.3Z"/><path class="d" d="M556.82,202.32v-8.73h1.34v8.73h-1.34Zm.07-9.91l1.39-2.64h1.57l-1.77,2.64h-1.18Z"/><path class="d" d="M565.3,202.32v-11.64h1.34v4.3h.11c.1-.15,.24-.35,.41-.58,.18-.24,.43-.45,.76-.64,.33-.19,.78-.28,1.35-.28,.73,0,1.38,.18,1.94,.55,.56,.37,1,.89,1.31,1.56,.31,.67,.47,1.47,.47,2.39s-.16,1.72-.47,2.4-.75,1.2-1.31,1.57-1.2,.55-1.93,.55c-.56,0-1.01-.09-1.35-.28s-.6-.4-.78-.64c-.18-.24-.32-.44-.42-.6h-.16v1.34h-1.29Zm1.32-4.36c0,.66,.1,1.24,.29,1.74,.19,.5,.48,.89,.85,1.18s.83,.42,1.36,.42,1.03-.15,1.41-.45c.38-.3,.66-.7,.85-1.2,.19-.51,.29-1.07,.29-1.69s-.09-1.17-.28-1.66-.47-.89-.85-1.18c-.38-.29-.85-.43-1.42-.43s-1,.14-1.38,.41-.65,.66-.84,1.15c-.19,.49-.28,1.06-.28,1.71Z"/><path class="d" d="M577.62,202.53c-.55,0-1.06-.1-1.51-.31-.45-.21-.81-.52-1.07-.92-.26-.4-.4-.88-.4-1.45,0-.5,.1-.91,.29-1.22,.2-.31,.46-.56,.79-.74,.33-.18,.69-.31,1.09-.4s.8-.16,1.21-.21c.53-.07,.96-.12,1.29-.16,.33-.04,.57-.1,.73-.18,.15-.09,.23-.24,.23-.45v-.05c0-.56-.15-1-.46-1.31s-.77-.47-1.38-.47-1.14,.14-1.5,.42c-.36,.28-.62,.58-.77,.9l-1.27-.46c.23-.53,.53-.94,.91-1.24,.38-.3,.8-.51,1.25-.62,.45-.12,.9-.18,1.34-.18,.28,0,.6,.03,.97,.1,.37,.07,.72,.2,1.06,.41,.34,.2,.63,.51,.85,.93,.23,.41,.34,.97,.34,1.66v5.75h-1.34v-1.18h-.07c-.09,.19-.24,.39-.46,.61s-.49,.4-.85,.55c-.35,.15-.78,.23-1.29,.23Zm.2-1.2c.53,0,.98-.1,1.34-.31s.64-.48,.83-.81c.19-.33,.28-.68,.28-1.04v-1.23c-.06,.07-.18,.13-.37,.18-.19,.06-.41,.1-.66,.14s-.49,.07-.72,.1c-.23,.03-.42,.05-.57,.07-.35,.05-.67,.12-.97,.22-.3,.1-.54,.25-.73,.45s-.28,.47-.28,.81c0,.47,.17,.82,.52,1.05,.35,.24,.79,.36,1.32,.36Z"/><path class="d" d="M585.41,190.69v11.64h-1.34v-11.64h1.34Z"/><path class="d" d="M587.87,202.32v-8.73h1.34v8.73h-1.34Zm.07-9.91l1.39-2.64h1.57l-1.77,2.64h-1.18Z"/><path class="d" d="M595.21,202.5c-.82,0-1.52-.19-2.11-.58-.59-.39-1.05-.92-1.36-1.6-.32-.68-.48-1.45-.48-2.32s.16-1.67,.49-2.35c.33-.68,.79-1.21,1.38-1.6,.59-.38,1.28-.58,2.07-.58,.61,0,1.17,.11,1.66,.34s.9,.55,1.21,.95c.31,.41,.51,.89,.58,1.43h-1.34c-.1-.4-.33-.75-.68-1.06-.35-.31-.82-.46-1.41-.46-.52,0-.98,.14-1.37,.41-.39,.27-.7,.65-.92,1.14s-.33,1.07-.33,1.72,.11,1.26,.32,1.76c.21,.5,.52,.89,.91,1.17,.39,.28,.85,.42,1.38,.42,.35,0,.67-.06,.95-.18,.28-.12,.52-.3,.72-.52,.2-.23,.34-.5,.42-.82h1.34c-.08,.52-.26,.98-.56,1.39-.3,.41-.69,.74-1.18,.98-.49,.24-1.05,.36-1.7,.36Zm-1.23-12.41l1.18,1.59,1.18-1.59h1.27v.09l-1.84,2.36h-1.23l-1.84-2.36v-.09h1.27Z"/><path class="d" d="M604.25,202.5c-.84,0-1.57-.19-2.17-.56-.61-.37-1.08-.9-1.4-1.57-.33-.67-.49-1.46-.49-2.35s.16-1.68,.49-2.37c.33-.68,.79-1.22,1.38-1.6,.59-.38,1.28-.58,2.07-.58,.45,0,.9,.08,1.35,.23s.85,.4,1.21,.74c.36,.34,.65,.79,.87,1.34s.32,1.24,.32,2.06v.57h-6.73v-1.16h5.36c0-.49-.1-.93-.29-1.32-.2-.39-.47-.69-.83-.91-.36-.22-.78-.34-1.26-.34-.53,0-1,.13-1.38,.4-.39,.26-.69,.6-.89,1.03-.21,.42-.31,.87-.31,1.35v.77c0,.66,.11,1.22,.34,1.67,.23,.46,.55,.8,.96,1.04,.41,.24,.88,.36,1.43,.36,.35,0,.67-.05,.96-.15,.29-.1,.53-.25,.74-.46,.21-.2,.37-.46,.48-.76l1.29,.36c-.14,.44-.37,.82-.69,1.16-.32,.33-.72,.59-1.19,.77-.47,.18-1.01,.28-1.6,.28Z"/><path class="d" d="M609.91,202.32v-11.64h1.34v11.64h-1.34Zm1.25-3.18l-.02-1.66h.27l3.82-3.89h1.66l-4.07,4.11h-.11l-1.54,1.43Zm4.29,3.18l-3.41-4.32,.96-.93,4.16,5.25h-1.71Z"/><path class="d" d="M626.66,202.5c-.79,0-1.48-.19-2.07-.56-.59-.38-1.06-.9-1.39-1.57-.33-.67-.5-1.46-.5-2.36s.17-1.7,.5-2.38c.33-.68,.79-1.2,1.39-1.58,.59-.38,1.28-.56,2.07-.56s1.48,.19,2.07,.56,1.05,.9,1.39,1.58c.33,.68,.5,1.47,.5,2.38s-.17,1.69-.5,2.36c-.33,.67-.79,1.2-1.39,1.57s-1.28,.56-2.07,.56Zm0-1.2c.6,0,1.09-.15,1.48-.46,.39-.31,.67-.71,.86-1.21,.19-.5,.28-1.04,.28-1.62s-.09-1.13-.28-1.63c-.19-.5-.47-.91-.86-1.22-.39-.31-.88-.47-1.48-.47s-1.09,.16-1.48,.47c-.39,.31-.67,.72-.86,1.22-.19,.5-.28,1.05-.28,1.63s.09,1.12,.28,1.62,.47,.9,.86,1.21c.39,.31,.88,.46,1.48,.46Z"/><path class="d" d="M632.66,205.59v-12h1.29v1.39h.16c.1-.15,.24-.35,.41-.58,.18-.24,.43-.45,.76-.64,.33-.19,.78-.28,1.35-.28,.74,0,1.38,.18,1.94,.55,.56,.37,1,.89,1.31,1.56,.31,.67,.47,1.47,.47,2.39s-.16,1.72-.47,2.4-.75,1.2-1.31,1.57-1.2,.55-1.93,.55c-.56,0-1.01-.09-1.35-.28s-.6-.4-.78-.64c-.18-.24-.32-.44-.42-.6h-.11v4.61h-1.34Zm1.32-7.64c0,.66,.1,1.24,.29,1.74s.48,.89,.85,1.18,.83,.42,1.36,.42,1.03-.15,1.41-.45c.38-.3,.66-.7,.85-1.2,.19-.51,.29-1.07,.29-1.69s-.09-1.17-.28-1.66-.47-.89-.85-1.18c-.38-.29-.85-.43-1.42-.43s-1,.14-1.38,.41c-.37,.27-.65,.66-.84,1.15-.19,.49-.28,1.06-.28,1.71Z"/><path class="d" d="M644.98,202.53c-.55,0-1.06-.1-1.51-.31-.45-.21-.81-.52-1.07-.92-.26-.4-.4-.88-.4-1.45,0-.5,.1-.91,.29-1.22,.2-.31,.46-.56,.79-.74,.33-.18,.69-.31,1.09-.4s.8-.16,1.21-.21c.53-.07,.96-.12,1.29-.16,.33-.04,.57-.1,.73-.18,.15-.09,.23-.24,.23-.45v-.05c0-.56-.15-1-.46-1.31s-.77-.47-1.38-.47-1.14,.14-1.5,.42c-.36,.28-.62,.58-.77,.9l-1.27-.46c.23-.53,.53-.94,.91-1.24,.38-.3,.8-.51,1.25-.62,.45-.12,.9-.18,1.34-.18,.28,0,.6,.03,.97,.1,.37,.07,.72,.2,1.06,.41,.34,.2,.63,.51,.85,.93,.23,.41,.34,.97,.34,1.66v5.75h-1.34v-1.18h-.07c-.09,.19-.24,.39-.46,.61s-.49,.4-.85,.55c-.35,.15-.78,.23-1.29,.23Zm.2-1.2c.53,0,.98-.1,1.34-.31s.64-.48,.83-.81c.19-.33,.28-.68,.28-1.04v-1.23c-.06,.07-.18,.13-.37,.18-.19,.06-.41,.1-.66,.14s-.49,.07-.72,.1c-.23,.03-.42,.05-.57,.07-.35,.05-.67,.12-.97,.22-.3,.1-.54,.25-.73,.45s-.28,.47-.28,.81c0,.47,.17,.82,.52,1.05,.35,.24,.79,.36,1.32,.36Z"/><path class="d" d="M655.23,193.59v1.14h-4.52v-1.14h4.52Zm-3.2-2.09h1.34v8.32c0,.38,.06,.66,.17,.85,.11,.19,.25,.31,.43,.38,.18,.06,.36,.09,.56,.09,.15,0,.27,0,.36-.03,.09-.02,.17-.03,.23-.04l.27,1.2c-.09,.03-.22,.07-.38,.11-.16,.04-.37,.05-.62,.05-.38,0-.75-.08-1.11-.24-.36-.16-.66-.41-.9-.74-.24-.33-.35-.75-.35-1.26v-8.68Z"/><path class="d" d="M658.14,190.09l1.18,1.59,1.18-1.59h1.27v.09l-1.84,2.36h-1.23l-1.84-2.36v-.09h1.27Zm-.89,12.23v-8.73h1.29v1.32h.09c.16-.43,.45-.78,.86-1.05,.42-.27,.89-.4,1.41-.4,.1,0,.22,0,.37,0,.15,0,.26,0,.33,.02v1.36s-.15-.03-.31-.05-.33-.04-.51-.04c-.42,0-.8,.09-1.13,.26-.33,.18-.59,.42-.78,.73-.19,.31-.29,.66-.29,1.05v5.52h-1.34Z"/><path class="d" d="M666.6,202.5c-.84,0-1.57-.19-2.17-.56-.61-.37-1.08-.9-1.4-1.57-.33-.67-.49-1.46-.49-2.35s.16-1.68,.49-2.37c.33-.68,.79-1.22,1.38-1.6,.59-.38,1.28-.58,2.07-.58,.45,0,.9,.08,1.35,.23s.85,.4,1.21,.74c.36,.34,.65,.79,.87,1.34s.32,1.24,.32,2.06v.57h-6.73v-1.16h5.36c0-.49-.1-.93-.29-1.32-.2-.39-.47-.69-.83-.91-.36-.22-.78-.34-1.26-.34-.53,0-1,.13-1.38,.4-.39,.26-.69,.6-.89,1.03-.21,.42-.31,.87-.31,1.35v.77c0,.66,.11,1.22,.34,1.67,.23,.46,.55,.8,.96,1.04,.41,.24,.88,.36,1.43,.36,.35,0,.67-.05,.96-.15,.29-.1,.53-.25,.74-.46,.21-.2,.37-.46,.48-.76l1.29,.36c-.14,.44-.37,.82-.69,1.16-.32,.33-.72,.59-1.19,.77-.47,.18-1.01,.28-1.6,.28Z"/><path class="d" d="M673.6,197.07v5.25h-1.34v-8.73h1.29v1.36h.11c.2-.44,.51-.8,.93-1.07,.42-.27,.95-.41,1.61-.41,.59,0,1.11,.12,1.55,.36,.44,.24,.79,.6,1.03,1.09,.25,.49,.37,1.1,.37,1.84v5.55h-1.34v-5.45c0-.69-.18-1.22-.53-1.61-.36-.38-.84-.58-1.47-.58-.43,0-.81,.09-1.15,.28-.33,.19-.6,.46-.79,.81-.19,.36-.29,.79-.29,1.3Z"/><path class="d" d="M681.62,202.32v-8.73h1.34v8.73h-1.34Zm.07-9.91l1.39-2.64h1.57l-1.77,2.64h-1.18Z"/><path class="d" d="M450.1,224.79v-12h1.29v1.39h.16c.1-.15,.24-.35,.41-.58,.18-.24,.43-.45,.76-.64,.33-.19,.78-.28,1.35-.28,.74,0,1.38,.18,1.94,.55,.56,.37,1,.89,1.31,1.56,.31,.67,.47,1.47,.47,2.39s-.16,1.72-.47,2.4-.75,1.2-1.31,1.57-1.2,.55-1.93,.55c-.56,0-1.01-.09-1.35-.28s-.6-.4-.78-.64c-.18-.24-.32-.44-.42-.6h-.11v4.61h-1.34Zm1.32-7.64c0,.66,.1,1.24,.29,1.74s.48,.89,.85,1.18,.83,.42,1.36,.42,1.03-.15,1.41-.45c.38-.3,.66-.7,.85-1.2,.19-.51,.29-1.07,.29-1.69s-.09-1.17-.28-1.66-.47-.89-.85-1.18c-.38-.29-.85-.43-1.42-.43s-1,.14-1.38,.41c-.37,.27-.65,.66-.84,1.15-.19,.49-.28,1.06-.28,1.71Z"/><path class="d" d="M459.85,221.52v-8.73h1.29v1.32h.09c.16-.43,.45-.78,.86-1.05,.42-.27,.89-.4,1.41-.4,.1,0,.22,0,.37,0,.15,0,.26,0,.33,.02v1.36s-.15-.03-.31-.05-.33-.04-.51-.04c-.42,0-.8,.09-1.13,.26-.33,.18-.59,.42-.78,.73-.19,.31-.29,.66-.29,1.05v5.52h-1.34Z"/><path class="d" d="M469.07,221.7c-.79,0-1.48-.19-2.07-.56-.59-.38-1.06-.9-1.39-1.57-.33-.67-.5-1.46-.5-2.36s.17-1.7,.5-2.38c.33-.68,.79-1.2,1.39-1.58,.59-.38,1.28-.56,2.07-.56s1.48,.19,2.07,.56,1.05,.9,1.39,1.58c.33,.68,.5,1.47,.5,2.38s-.17,1.69-.5,2.36c-.33,.67-.79,1.2-1.39,1.57s-1.28,.56-2.07,.56Zm0-1.2c.6,0,1.09-.15,1.48-.46,.39-.31,.67-.71,.86-1.21,.19-.5,.28-1.04,.28-1.62s-.09-1.13-.28-1.63c-.19-.5-.47-.91-.86-1.22-.39-.31-.88-.47-1.48-.47s-1.09,.16-1.48,.47c-.39,.31-.67,.72-.86,1.22-.19,.5-.28,1.05-.28,1.63s.09,1.12,.28,1.62,.47,.9,.86,1.21c.39,.31,.88,.46,1.48,.46Z"/><path class="d" d="M482.87,221.7c-.73,0-1.37-.18-1.93-.55s-.99-.89-1.31-1.57-.47-1.48-.47-2.4,.16-1.71,.47-2.39c.31-.67,.75-1.19,1.31-1.56,.56-.37,1.21-.55,1.94-.55,.57,0,1.02,.09,1.35,.28,.33,.19,.59,.4,.76,.64,.18,.24,.31,.43,.41,.58h.11v-4.3h1.34v11.64h-1.29v-1.34h-.16c-.1,.16-.24,.36-.42,.6-.18,.24-.44,.45-.78,.64s-.79,.28-1.35,.28Zm.18-1.2c.54,0,.99-.14,1.36-.42s.65-.67,.85-1.18,.29-1.08,.29-1.74-.09-1.22-.28-1.71c-.19-.49-.47-.87-.84-1.15-.37-.27-.83-.41-1.38-.41s-1.04,.15-1.42,.43c-.38,.29-.66,.68-.85,1.18s-.28,1.05-.28,1.66,.1,1.18,.29,1.69c.19,.5,.47,.91,.85,1.2,.38,.3,.85,.45,1.41,.45Z"/><path class="d" d="M493.05,221.7c-.79,0-1.48-.19-2.07-.56-.59-.38-1.06-.9-1.39-1.57-.33-.67-.5-1.46-.5-2.36s.17-1.7,.5-2.38c.33-.68,.79-1.2,1.39-1.58,.59-.38,1.28-.56,2.07-.56s1.48,.19,2.07,.56,1.05,.9,1.39,1.58c.33,.68,.5,1.47,.5,2.38s-.17,1.69-.5,2.36c-.33,.67-.79,1.2-1.39,1.57s-1.28,.56-2.07,.56Zm0-1.2c.6,0,1.09-.15,1.48-.46,.39-.31,.67-.71,.86-1.21,.19-.5,.28-1.04,.28-1.62s-.09-1.13-.28-1.63c-.19-.5-.47-.91-.86-1.22-.39-.31-.88-.47-1.48-.47s-1.09,.16-1.48,.47c-.39,.31-.67,.72-.86,1.22-.19,.5-.28,1.05-.28,1.63s.09,1.12,.28,1.62,.47,.9,.86,1.21c.39,.31,.88,.46,1.48,.46Z"/><path class="d" d="M505.23,214.75l-1.21,.34c-.08-.2-.19-.4-.33-.59s-.34-.35-.59-.47-.57-.19-.96-.19c-.53,0-.98,.12-1.33,.37-.35,.24-.53,.55-.53,.93,0,.33,.12,.6,.36,.79s.62,.35,1.14,.48l1.3,.32c.78,.19,1.36,.48,1.74,.87,.38,.39,.57,.89,.57,1.5,0,.5-.14,.95-.43,1.34-.29,.39-.69,.7-1.2,.93-.51,.23-1.11,.34-1.78,.34-.89,0-1.63-.19-2.21-.58-.58-.39-.95-.95-1.11-1.69l1.27-.32c.12,.47,.35,.82,.69,1.06,.34,.24,.78,.35,1.33,.35,.62,0,1.12-.13,1.49-.4,.37-.27,.55-.59,.55-.96,0-.3-.11-.56-.32-.76-.21-.21-.54-.36-.98-.46l-1.46-.34c-.8-.19-1.39-.48-1.76-.88s-.56-.9-.56-1.5c0-.49,.14-.93,.42-1.31s.66-.68,1.14-.89c.48-.22,1.03-.32,1.65-.32,.86,0,1.54,.19,2.04,.57,.49,.38,.85,.88,1.05,1.5Z"/><path class="d" d="M509.98,221.73c-.55,0-1.06-.1-1.51-.31-.45-.21-.81-.52-1.07-.92-.26-.4-.4-.88-.4-1.45,0-.5,.1-.91,.29-1.22,.2-.31,.46-.56,.79-.74,.33-.18,.69-.31,1.09-.4s.8-.16,1.21-.21c.53-.07,.96-.12,1.29-.16,.33-.04,.57-.1,.73-.18,.15-.09,.23-.24,.23-.45v-.05c0-.56-.15-1-.46-1.31s-.77-.47-1.38-.47-1.14,.14-1.5,.42c-.36,.28-.62,.58-.77,.9l-1.27-.46c.23-.53,.53-.94,.91-1.24,.38-.3,.8-.51,1.25-.62,.45-.12,.9-.18,1.34-.18,.28,0,.6,.03,.97,.1,.37,.07,.72,.2,1.06,.41,.34,.2,.63,.51,.85,.93,.23,.41,.34,.97,.34,1.66v5.75h-1.34v-1.18h-.07c-.09,.19-.24,.39-.46,.61s-.49,.4-.85,.55c-.35,.15-.78,.23-1.29,.23Zm.2-1.2c.53,0,.98-.1,1.34-.31s.64-.48,.83-.81c.19-.33,.28-.68,.28-1.04v-1.23c-.06,.07-.18,.13-.37,.18-.19,.06-.41,.1-.66,.14s-.49,.07-.72,.1c-.23,.03-.42,.05-.57,.07-.35,.05-.67,.12-.97,.22-.3,.1-.54,.25-.73,.45s-.28,.47-.28,.81c0,.47,.17,.82,.52,1.05,.35,.24,.79,.36,1.32,.36Z"/><path class="d" d="M516.19,221.52v-1.02l4.95-6.36v-.09h-4.79v-1.25h6.52v1.07l-4.82,6.32v.09h4.98v1.25h-6.84Zm2.16-12.23l1.18,1.59,1.18-1.59h1.27v.09l-1.84,2.36h-1.23l-1.84-2.36v-.09h1.27Z"/><path class="d" d="M528.5,221.7c-.84,0-1.57-.19-2.17-.56-.61-.37-1.08-.9-1.4-1.57-.33-.67-.49-1.46-.49-2.35s.16-1.68,.49-2.37c.33-.68,.79-1.22,1.38-1.6,.59-.38,1.28-.58,2.07-.58,.45,0,.9,.08,1.35,.23s.85,.4,1.21,.74c.36,.34,.65,.79,.87,1.34s.32,1.24,.32,2.06v.57h-6.73v-1.16h5.36c0-.49-.1-.93-.29-1.32-.2-.39-.47-.69-.83-.91-.36-.22-.78-.34-1.26-.34-.53,0-1,.13-1.38,.4-.39,.26-.69,.6-.89,1.03-.21,.42-.31,.87-.31,1.35v.77c0,.66,.11,1.22,.34,1.67,.23,.46,.55,.8,.96,1.04,.41,.24,.88,.36,1.43,.36,.35,0,.67-.05,.96-.15,.29-.1,.53-.25,.74-.46,.21-.2,.37-.46,.48-.76l1.29,.36c-.14,.44-.37,.82-.69,1.16-.32,.33-.72,.59-1.19,.77-.47,.18-1.01,.28-1.6,.28Z"/><path class="d" d="M535.5,216.27v5.25h-1.34v-8.73h1.29v1.36h.11c.2-.44,.51-.8,.93-1.07,.42-.27,.95-.41,1.61-.41,.59,0,1.11,.12,1.55,.36,.44,.24,.79,.6,1.03,1.09,.25,.49,.37,1.1,.37,1.84v5.55h-1.34v-5.45c0-.69-.18-1.22-.53-1.61-.36-.38-.84-.58-1.47-.58-.43,0-.81,.09-1.15,.28-.33,.19-.6,.46-.79,.81-.19,.36-.29,.79-.29,1.3Z"/><path class="d" d="M543.53,221.52v-8.73h1.34v8.73h-1.34Zm.07-9.91l1.39-2.64h1.57l-1.77,2.64h-1.18Z"/><path class="d" d="M555.37,221.7c-.82,0-1.52-.19-2.11-.58-.59-.39-1.05-.92-1.36-1.6-.32-.68-.48-1.45-.48-2.32s.16-1.67,.49-2.35c.33-.68,.79-1.21,1.38-1.6,.59-.38,1.28-.58,2.07-.58,.61,0,1.17,.11,1.66,.34s.9,.55,1.21,.95c.31,.41,.51,.89,.58,1.43h-1.34c-.1-.4-.33-.75-.68-1.06-.35-.31-.82-.46-1.41-.46-.52,0-.98,.14-1.37,.41-.39,.27-.7,.65-.92,1.14s-.33,1.07-.33,1.72,.11,1.26,.32,1.76c.21,.5,.52,.89,.91,1.17,.39,.28,.85,.42,1.38,.42,.35,0,.67-.06,.95-.18,.28-.12,.52-.3,.72-.52,.2-.23,.34-.5,.42-.82h1.34c-.08,.52-.26,.98-.56,1.39-.3,.41-.69,.74-1.18,.98-.49,.24-1.05,.36-1.7,.36Z"/><path class="d" d="M560.75,221.52v-8.73h1.34v8.73h-1.34Zm.07-9.91l1.39-2.64h1.57l-1.77,2.64h-1.18Z"/><path class="d" d="M565.89,209.89v11.64h-1.34v-11.64h1.34Z"/><path class="d" d="M572,221.7c-.84,0-1.57-.19-2.17-.56-.61-.37-1.08-.9-1.4-1.57-.33-.67-.49-1.46-.49-2.35s.16-1.68,.49-2.37c.33-.68,.79-1.22,1.38-1.6,.59-.38,1.28-.58,2.07-.58,.45,0,.9,.08,1.35,.23s.85,.4,1.21,.74c.36,.34,.65,.79,.87,1.34s.32,1.24,.32,2.06v.57h-6.73v-1.16h5.36c0-.49-.1-.93-.29-1.32-.2-.39-.47-.69-.83-.91-.36-.22-.78-.34-1.26-.34-.53,0-1,.13-1.38,.4-.39,.26-.69,.6-.89,1.03-.21,.42-.31,.87-.31,1.35v.77c0,.66,.11,1.22,.34,1.67,.23,.46,.55,.8,.96,1.04,.41,.24,.88,.36,1.43,.36,.35,0,.67-.05,.96-.15,.29-.1,.53-.25,.74-.46,.21-.2,.37-.46,.48-.76l1.29,.36c-.14,.44-.37,.82-.69,1.16-.32,.33-.72,.59-1.19,.77-.47,.18-1.01,.28-1.6,.28Z"/><path class="d" d="M582.16,224.79v-12h1.29v1.39h.16c.1-.15,.24-.35,.41-.58,.18-.24,.43-.45,.76-.64,.33-.19,.78-.28,1.35-.28,.74,0,1.38,.18,1.94,.55,.56,.37,1,.89,1.31,1.56,.31,.67,.47,1.47,.47,2.39s-.16,1.72-.47,2.4-.75,1.2-1.31,1.57-1.2,.55-1.93,.55c-.56,0-1.01-.09-1.35-.28s-.6-.4-.78-.64c-.18-.24-.32-.44-.42-.6h-.11v4.61h-1.34Zm1.32-7.64c0,.66,.1,1.24,.29,1.74s.48,.89,.85,1.18,.83,.42,1.36,.42,1.03-.15,1.41-.45c.38-.3,.66-.7,.85-1.2,.19-.51,.29-1.07,.29-1.69s-.09-1.17-.28-1.66-.47-.89-.85-1.18c-.38-.29-.85-.43-1.42-.43s-1,.14-1.38,.41c-.37,.27-.65,.66-.84,1.15-.19,.49-.28,1.06-.28,1.71Z"/><path class="d" d="M591.91,221.52v-8.73h1.29v1.32h.09c.16-.43,.45-.78,.86-1.05,.42-.27,.89-.4,1.41-.4,.1,0,.22,0,.37,0,.15,0,.26,0,.33,.02v1.36s-.15-.03-.31-.05-.33-.04-.51-.04c-.42,0-.8,.09-1.13,.26-.33,.18-.59,.42-.78,.73-.19,.31-.29,.66-.29,1.05v5.52h-1.34Z"/><path class="d" d="M601.14,221.7c-.79,0-1.48-.19-2.07-.56-.59-.38-1.06-.9-1.39-1.57-.33-.67-.5-1.46-.5-2.36s.17-1.7,.5-2.38c.33-.68,.79-1.2,1.39-1.58,.59-.38,1.28-.56,2.07-.56s1.48,.19,2.07,.56,1.05,.9,1.39,1.58c.33,.68,.5,1.47,.5,2.38s-.17,1.69-.5,2.36c-.33,.67-.79,1.2-1.39,1.57s-1.28,.56-2.07,.56Zm0-1.2c.6,0,1.09-.15,1.48-.46,.39-.31,.67-.71,.86-1.21,.19-.5,.28-1.04,.28-1.62s-.09-1.13-.28-1.63c-.19-.5-.47-.91-.86-1.22-.39-.31-.88-.47-1.48-.47s-1.09,.16-1.48,.47c-.39,.31-.67,.72-.86,1.22-.19,.5-.28,1.05-.28,1.63s.09,1.12,.28,1.62,.47,.9,.86,1.21c.39,.31,.88,.46,1.48,.46Z"/><path class="d" d="M611.64,221.52v-8.73h1.29v1.32h.09c.16-.43,.45-.78,.86-1.05,.42-.27,.89-.4,1.41-.4,.1,0,.22,0,.37,0,.15,0,.26,0,.33,.02v1.36s-.15-.03-.31-.05-.33-.04-.51-.04c-.42,0-.8,.09-1.13,.26-.33,.18-.59,.42-.78,.73-.19,.31-.29,.66-.29,1.05v5.52h-1.34Z"/><path class="d" d="M620.86,221.7c-.79,0-1.48-.19-2.07-.56-.59-.38-1.06-.9-1.39-1.57-.33-.67-.5-1.46-.5-2.36s.17-1.7,.5-2.38c.33-.68,.79-1.2,1.39-1.58,.59-.38,1.28-.56,2.07-.56s1.48,.19,2.07,.56,1.05,.9,1.39,1.58c.33,.68,.5,1.47,.5,2.38s-.17,1.69-.5,2.36c-.33,.67-.79,1.2-1.39,1.57s-1.28,.56-2.07,.56Zm0-1.2c.6,0,1.09-.15,1.48-.46,.39-.31,.67-.71,.86-1.21,.19-.5,.28-1.04,.28-1.62s-.09-1.13-.28-1.63c-.19-.5-.47-.91-.86-1.22-.39-.31-.88-.47-1.48-.47s-1.09,.16-1.48,.47c-.39,.31-.67,.72-.86,1.22-.19,.5-.28,1.05-.28,1.63s.09,1.12,.28,1.62,.47,.9,.86,1.21c.39,.31,.88,.46,1.48,.46Z"/><path class="d" d="M626.87,221.52v-11.64h1.34v11.64h-1.34Zm1.25-3.18l-.02-1.66h.27l3.82-3.89h1.66l-4.07,4.11h-.11l-1.54,1.43Zm4.29,3.18l-3.41-4.32,.96-.93,4.16,5.25h-1.71Z"/><path class="d" d="M640.05,221.52v-1.02l3.84-4.21c.45-.49,.82-.92,1.11-1.29,.29-.37,.51-.71,.65-1.03,.14-.32,.21-.66,.21-1.02,0-.41-.1-.76-.29-1.06-.2-.3-.46-.53-.8-.69-.34-.16-.72-.24-1.14-.24-.45,0-.84,.09-1.17,.28-.33,.18-.59,.44-.77,.77-.18,.33-.27,.72-.27,1.16h-1.34c0-.68,.16-1.28,.47-1.8,.31-.51,.74-.92,1.29-1.2,.54-.29,1.15-.43,1.83-.43s1.29,.14,1.81,.43c.53,.29,.94,.68,1.24,1.16,.3,.49,.45,1.03,.45,1.63,0,.43-.08,.85-.23,1.25-.15,.41-.42,.86-.79,1.36s-.9,1.1-1.57,1.82l-2.61,2.8v.09h5.41v1.25h-7.34Z"/><path class="d" d="M653.52,221.68c-.86,0-1.58-.23-2.19-.7s-1.06-1.15-1.38-2.04c-.32-.89-.48-1.97-.48-3.24s.16-2.33,.48-3.22c.32-.89,.78-1.57,1.39-2.04,.6-.47,1.33-.71,2.18-.71s1.58,.24,2.18,.71c.6,.47,1.07,1.15,1.39,2.04,.32,.89,.48,1.97,.48,3.22s-.16,2.34-.48,3.24c-.32,.89-.78,1.57-1.38,2.04s-1.33,.7-2.19,.7Zm0-1.25c.85,0,1.51-.41,1.98-1.23s.7-1.98,.7-3.5c0-1.01-.11-1.87-.32-2.57-.21-.71-.52-1.25-.92-1.62-.4-.37-.88-.56-1.44-.56-.84,0-1.5,.41-1.97,1.24-.47,.83-.71,2-.71,3.51,0,1.01,.11,1.86,.32,2.57,.21,.7,.52,1.24,.92,1.61,.4,.37,.88,.55,1.45,.55Z"/><path class="d" d="M663.66,221.68c-.75,0-1.42-.13-2-.39-.59-.26-1.05-.62-1.39-1.08-.34-.46-.53-1-.56-1.61h1.43c.03,.38,.16,.7,.39,.97s.52,.48,.89,.63c.37,.15,.78,.22,1.22,.22,.5,0,.94-.09,1.33-.26,.39-.17,.69-.42,.91-.73s.33-.67,.33-1.08-.11-.81-.32-1.13c-.21-.33-.52-.58-.93-.77s-.91-.28-1.5-.28h-.93v-1.25h.93c.46,0,.87-.08,1.22-.25s.62-.4,.82-.71c.2-.3,.3-.66,.3-1.07s-.09-.74-.26-1.03c-.17-.29-.42-.52-.74-.68-.32-.16-.69-.24-1.12-.24-.4,0-.78,.07-1.13,.22-.35,.15-.64,.36-.87,.63s-.34,.61-.36,.99h-1.36c.02-.61,.21-1.14,.55-1.6,.34-.46,.8-.82,1.35-1.08s1.17-.39,1.84-.39c.72,0,1.34,.15,1.85,.44,.51,.29,.91,.67,1.19,1.14s.42,.98,.42,1.53c0,.66-.17,1.21-.51,1.68s-.81,.78-1.39,.96v.09c.73,.12,1.31,.43,1.72,.93,.41,.5,.62,1.12,.62,1.86,0,.63-.17,1.2-.51,1.7s-.81,.9-1.4,1.18c-.59,.29-1.26,.43-2.02,.43Z"/><path class="d" d="M673.7,221.68c-.86,0-1.58-.23-2.19-.7s-1.06-1.15-1.38-2.04c-.32-.89-.48-1.97-.48-3.24s.16-2.33,.48-3.22c.32-.89,.78-1.57,1.39-2.04,.6-.47,1.33-.71,2.18-.71s1.58,.24,2.18,.71c.6,.47,1.07,1.15,1.39,2.04,.32,.89,.48,1.97,.48,3.22s-.16,2.34-.48,3.24c-.32,.89-.78,1.57-1.38,2.04s-1.33,.7-2.19,.7Zm0-1.25c.85,0,1.51-.41,1.98-1.23s.7-1.98,.7-3.5c0-1.01-.11-1.87-.32-2.57-.21-.71-.52-1.25-.92-1.62-.4-.37-.88-.56-1.44-.56-.84,0-1.5,.41-1.97,1.24-.47,.83-.71,2-.71,3.51,0,1.01,.11,1.86,.32,2.57,.21,.7,.52,1.24,.92,1.61,.4,.37,.88,.55,1.45,.55Z"/></g></g><g><g><line class="i" x1="276.13" y1="87.16" x2="404.96" y2="44.34"/><polygon class="e" points="405.14 49.53 411.77 42.07 402 40.06 405.14 49.53"/></g><g><line class="i" x1="276.13" y1="108.06" x2="404.96" y2="150.89"/><polygon class="e" points="402 155.16 411.77 153.15 405.14 145.7 402 155.16"/></g></g></g></g></g></svg>