<?xml version="1.0" encoding="UTF-8"?><svg id="a" xmlns="http://www.w3.org/2000/svg" viewBox="0 0 740 327.62"><defs><style>.c{fill:#fff;}.d{fill:#666;}.e{fill:#333;}.f{fill:#adadce;}.g{fill:#203e80;}.h{stroke:#b3b3b3;}.h,.i{stroke-dasharray:0 0 1 4;}.h,.i,.j,.k{fill:none;stroke-miterlimit:10;}.h,.i,.k{stroke-linecap:round;stroke-width:.75px;}.i{stroke:#fff;}.j{stroke:#bcbec0;}.k{stroke:#666;}</style></defs><line class="h" x1="60.4" y1="79.34" x2="62.37" y2="79.34"/><g><rect class="f" x="72.26" y="88.82" width="9.89" height="207.3"/><rect class="f" x="82.15" y="95.27" width="9.89" height="200.85"/><rect class="f" x="92.04" y="98.49" width="9.89" height="197.63"/><rect class="f" x="101.93" y="99.22" width="9.89" height="196.9"/><rect class="f" x="111.83" y="96.77" width="9.89" height="199.35"/><rect class="f" x="121.72" y="92.69" width="9.89" height="203.43"/><rect class="f" x="131.61" y="95.6" width="9.89" height="200.51"/><rect class="f" x="141.5" y="97.13" width="9.89" height="198.98"/><rect class="f" x="151.39" y="100.13" width="9.89" height="195.99"/><rect class="f" x="161.29" y="100.4" width="9.89" height="195.71"/><rect class="f" x="171.18" y="98.34" width="9.89" height="197.78"/><rect class="f" x="181.07" y="99.03" width="9.89" height="197.08"/><rect class="f" x="190.96" y="95.4" width="9.89" height="200.72"/><rect class="f" x="200.86" y="94.95" width="9.89" height="201.16"/><rect class="f" x="210.75" y="95.91" width="9.89" height="200.21"/><rect class="f" x="220.64" y="95.86" width="9.89" height="200.26"/><rect class="f" x="230.53" y="97.05" width="9.89" height="199.07"/><rect class="f" x="240.42" y="101.1" width="9.89" height="195.01"/><rect class="f" x="250.32" y="115.18" width="9.89" height="180.93"/><rect class="f" x="260.21" y="111.32" width="9.89" height="184.8"/><rect class="f" x="270.1" y="115.91" width="9.89" height="180.21"/><rect class="f" x="279.99" y="119.21" width="9.89" height="176.91"/><rect class="f" x="289.88" y="122.88" width="9.89" height="173.24"/><rect class="f" x="299.78" y="128.77" width="9.89" height="167.35"/><rect class="f" x="309.67" y="126.53" width="9.89" height="169.59"/><rect class="f" x="319.56" y="126.05" width="9.89" height="170.06"/><rect class="f" x="329.45" y="124.57" width="9.89" height="171.54"/><rect class="f" x="339.34" y="128.01" width="9.89" height="168.11"/><rect class="f" x="349.24" y="134.73" width="9.89" height="161.39"/><rect class="f" x="359.13" y="151.17" width="9.89" height="144.95"/><rect class="f" x="62.37" y="84.34" width="9.89" height="211.78"/></g><line class="j" x1="66.37" y1="297.11" x2="66.37" y2="303.6"/><line class="j" x1="165.78" y1="297.11" x2="165.78" y2="303.6"/><line class="j" x1="265.18" y1="297.11" x2="265.18" y2="303.6"/><line class="j" x1="364.59" y1="297.11" x2="364.59" y2="303.6"/><g><path class="e" d="M55.24,308.01v10.18h-1.84v-8.39h-.06l-2.38,1.52v-1.69l2.53-1.63h1.75Z"/><path class="e" d="M61.36,307.87c.49,0,.96,.09,1.42,.26,.46,.17,.88,.44,1.25,.82,.37,.38,.67,.88,.88,1.51,.22,.63,.33,1.41,.33,2.34,0,.88-.09,1.66-.28,2.34-.19,.69-.46,1.27-.8,1.74-.35,.47-.77,.83-1.26,1.08-.49,.25-1.04,.37-1.66,.37s-1.21-.13-1.71-.38c-.5-.25-.9-.6-1.2-1.03s-.49-.94-.56-1.5h1.81c.09,.4,.28,.73,.57,.96,.29,.24,.65,.36,1.09,.36,.71,0,1.25-.31,1.63-.92,.38-.61,.57-1.47,.57-2.56h-.07c-.16,.29-.37,.54-.63,.75-.26,.21-.55,.37-.88,.48-.33,.11-.67,.17-1.04,.17-.6,0-1.13-.14-1.61-.43s-.85-.68-1.13-1.17c-.28-.5-.42-1.07-.42-1.71,0-.66,.15-1.26,.46-1.79s.73-.95,1.29-1.25c.55-.31,1.19-.46,1.93-.45Zm0,1.49c-.36,0-.68,.09-.97,.26s-.51,.41-.68,.71-.25,.63-.25,.99c0,.36,.08,.69,.25,.98,.16,.29,.38,.53,.66,.7,.28,.17,.6,.26,.96,.26,.27,0,.52-.05,.75-.15,.23-.1,.43-.25,.61-.43,.17-.18,.31-.39,.41-.63s.14-.48,.14-.75c0-.35-.08-.67-.25-.96-.16-.29-.39-.53-.67-.71-.28-.18-.61-.27-.97-.27Z"/><path class="e" d="M70.43,307.87c.49,0,.96,.09,1.42,.26,.46,.17,.88,.44,1.25,.82,.37,.38,.67,.88,.88,1.51,.22,.63,.33,1.41,.33,2.34,0,.88-.09,1.66-.28,2.34-.19,.69-.46,1.27-.8,1.74-.35,.47-.77,.83-1.26,1.08-.49,.25-1.04,.37-1.66,.37s-1.21-.13-1.71-.38c-.5-.25-.9-.6-1.2-1.03s-.49-.94-.56-1.5h1.81c.09,.4,.28,.73,.57,.96,.29,.24,.65,.36,1.09,.36,.71,0,1.25-.31,1.63-.92,.38-.61,.57-1.47,.57-2.56h-.07c-.16,.29-.37,.54-.63,.75-.26,.21-.55,.37-.88,.48-.33,.11-.67,.17-1.04,.17-.6,0-1.13-.14-1.61-.43s-.85-.68-1.13-1.17c-.28-.5-.42-1.07-.42-1.71,0-.66,.15-1.26,.46-1.79s.73-.95,1.29-1.25c.55-.31,1.19-.46,1.93-.45Zm0,1.49c-.36,0-.68,.09-.97,.26s-.51,.41-.68,.71-.25,.63-.25,.99c0,.36,.08,.69,.25,.98,.16,.29,.38,.53,.66,.7,.28,.17,.6,.26,.96,.26,.27,0,.52-.05,.75-.15,.23-.1,.43-.25,.61-.43,.17-.18,.31-.39,.41-.63s.14-.48,.14-.75c0-.35-.08-.67-.25-.96-.16-.29-.39-.53-.67-.71-.28-.18-.61-.27-.97-.27Z"/><path class="e" d="M79.74,318.39c-.82,0-1.52-.21-2.11-.62s-1.03-1.02-1.35-1.8c-.31-.79-.47-1.74-.47-2.85,0-1.11,.16-2.06,.47-2.84,.31-.78,.76-1.38,1.35-1.79,.58-.41,1.29-.62,2.1-.62s1.52,.21,2.1,.62c.59,.41,1.04,1.01,1.35,1.79s.47,1.73,.47,2.83-.16,2.06-.47,2.85-.76,1.39-1.35,1.8-1.29,.62-2.11,.62Zm0-1.56c.64,0,1.14-.31,1.51-.94,.37-.63,.55-1.55,.55-2.78,0-.81-.08-1.49-.25-2.04-.17-.55-.41-.97-.72-1.25-.31-.28-.67-.42-1.09-.42-.63,0-1.13,.31-1.5,.94s-.55,1.55-.56,2.76c0,.81,.08,1.5,.25,2.05,.17,.55,.41,.97,.71,1.25,.31,.28,.67,.42,1.1,.42Z"/></g><g><path class="e" d="M149.13,318.19v-.89l3.36-3.68c.39-.43,.72-.81,.97-1.13,.25-.32,.44-.62,.57-.9,.12-.28,.19-.58,.19-.89,0-.36-.08-.67-.26-.93s-.4-.46-.7-.61-.63-.21-.99-.21c-.39,0-.73,.08-1.02,.24-.29,.16-.51,.38-.67,.67-.16,.29-.24,.63-.24,1.01h-1.17c0-.6,.14-1.12,.41-1.57,.27-.45,.65-.8,1.13-1.05s1.01-.38,1.6-.38,1.13,.13,1.59,.38c.46,.25,.82,.59,1.08,1.02s.39,.9,.39,1.43c0,.37-.07,.74-.2,1.1-.13,.36-.37,.75-.7,1.19-.33,.44-.79,.97-1.37,1.59l-2.29,2.45v.08h4.73v1.09h-6.42Z"/><path class="e" d="M160.92,318.33c-.75,0-1.39-.21-1.91-.61s-.93-1-1.21-1.79-.42-1.72-.42-2.83,.14-2.04,.42-2.82c.28-.78,.68-1.38,1.21-1.79,.53-.41,1.16-.62,1.91-.62s1.38,.21,1.91,.62c.53,.41,.93,1.01,1.21,1.79,.28,.78,.42,1.72,.42,2.82s-.14,2.05-.42,2.83-.68,1.38-1.21,1.79-1.17,.61-1.91,.61Zm0-1.09c.74,0,1.32-.36,1.73-1.07,.41-.72,.62-1.74,.62-3.06,0-.88-.09-1.63-.28-2.25-.19-.62-.46-1.09-.8-1.42-.35-.33-.77-.49-1.26-.49-.74,0-1.31,.36-1.73,1.09-.41,.72-.62,1.75-.62,3.07,0,.88,.09,1.63,.28,2.25s.45,1.09,.8,1.41,.77,.48,1.27,.48Z"/><path class="e" d="M169.67,318.33c-.75,0-1.39-.21-1.91-.61s-.93-1-1.21-1.79-.42-1.72-.42-2.83,.14-2.04,.42-2.82c.28-.78,.68-1.38,1.21-1.79,.53-.41,1.16-.62,1.91-.62s1.38,.21,1.91,.62c.53,.41,.93,1.01,1.21,1.79,.28,.78,.42,1.72,.42,2.82s-.14,2.05-.42,2.83-.68,1.38-1.21,1.79-1.17,.61-1.91,.61Zm0-1.09c.74,0,1.32-.36,1.73-1.07,.41-.72,.62-1.74,.62-3.06,0-.88-.09-1.63-.28-2.25-.19-.62-.46-1.09-.8-1.42-.35-.33-.77-.49-1.26-.49-.74,0-1.31,.36-1.73,1.09-.41,.72-.62,1.75-.62,3.07,0,.88,.09,1.63,.28,2.25s.45,1.09,.8,1.41,.77,.48,1.27,.48Z"/><path class="e" d="M178.42,318.33c-.75,0-1.39-.21-1.91-.61s-.93-1-1.21-1.79-.42-1.72-.42-2.83,.14-2.04,.42-2.82c.28-.78,.68-1.38,1.21-1.79,.53-.41,1.16-.62,1.91-.62s1.38,.21,1.91,.62c.53,.41,.93,1.01,1.21,1.79,.28,.78,.42,1.72,.42,2.82s-.14,2.05-.42,2.83-.68,1.38-1.21,1.79-1.17,.61-1.91,.61Zm0-1.09c.74,0,1.32-.36,1.73-1.07,.41-.72,.62-1.74,.62-3.06,0-.88-.09-1.63-.28-2.25-.19-.62-.46-1.09-.8-1.42-.35-.33-.77-.49-1.26-.49-.74,0-1.31,.36-1.73,1.09-.41,.72-.62,1.75-.62,3.07,0,.88,.09,1.63,.28,2.25s.45,1.09,.8,1.41,.77,.48,1.27,.48Z"/></g><g><path class="e" d="M249.47,318.19v-.89l3.36-3.68c.39-.43,.72-.81,.97-1.13,.25-.32,.44-.62,.57-.9,.12-.28,.19-.58,.19-.89,0-.36-.08-.67-.26-.93s-.4-.46-.7-.61-.63-.21-.99-.21c-.39,0-.73,.08-1.02,.24-.29,.16-.51,.38-.67,.67-.16,.29-.24,.63-.24,1.01h-1.17c0-.6,.14-1.12,.41-1.57,.27-.45,.65-.8,1.13-1.05s1.01-.38,1.6-.38,1.13,.13,1.59,.38c.46,.25,.82,.59,1.08,1.02s.39,.9,.39,1.43c0,.37-.07,.74-.2,1.1-.13,.36-.37,.75-.7,1.19-.33,.44-.79,.97-1.37,1.59l-2.29,2.45v.08h4.73v1.09h-6.42Z"/><path class="e" d="M261.26,318.33c-.75,0-1.39-.21-1.91-.61s-.93-1-1.21-1.79-.42-1.72-.42-2.83,.14-2.04,.42-2.82c.28-.78,.68-1.38,1.21-1.79,.53-.41,1.16-.62,1.91-.62s1.38,.21,1.91,.62c.53,.41,.93,1.01,1.21,1.79,.28,.78,.42,1.72,.42,2.82s-.14,2.05-.42,2.83-.68,1.38-1.21,1.79-1.17,.61-1.91,.61Zm0-1.09c.74,0,1.32-.36,1.73-1.07,.41-.72,.62-1.74,.62-3.06,0-.88-.09-1.63-.28-2.25-.19-.62-.46-1.09-.8-1.42-.35-.33-.77-.49-1.26-.49-.74,0-1.31,.36-1.73,1.09-.41,.72-.62,1.75-.62,3.07,0,.88,.09,1.63,.28,2.25s.45,1.09,.8,1.41,.77,.48,1.27,.48Z"/><path class="e" d="M270.27,308.01v10.18h-1.23v-8.89h-.06l-2.49,1.65v-1.25l2.54-1.69h1.23Z"/><path class="e" d="M276.52,318.33c-.75,0-1.39-.21-1.91-.61s-.93-1-1.21-1.79-.42-1.72-.42-2.83,.14-2.04,.42-2.82c.28-.78,.68-1.38,1.21-1.79,.53-.41,1.16-.62,1.91-.62s1.38,.21,1.91,.62c.53,.41,.93,1.01,1.21,1.79,.28,.78,.42,1.72,.42,2.82s-.14,2.05-.42,2.83-.68,1.38-1.21,1.79-1.17,.61-1.91,.61Zm0-1.09c.74,0,1.32-.36,1.73-1.07,.41-.72,.62-1.74,.62-3.06,0-.88-.09-1.63-.28-2.25-.19-.62-.46-1.09-.8-1.42-.35-.33-.77-.49-1.26-.49-.74,0-1.31,.36-1.73,1.09-.41,.72-.62,1.75-.62,3.07,0,.88,.09,1.63,.28,2.25s.45,1.09,.8,1.41,.77,.48,1.27,.48Z"/></g><line class="j" x1="463" y1="297.11" x2="463" y2="303.6"/><line class="j" x1="561.4" y1="297.11" x2="561.4" y2="303.6"/><line class="j" x1="660.81" y1="297.11" x2="660.81" y2="303.6"/><g><path class="e" d="M444.91,318.19v-1.33l3.53-3.47c.34-.34,.62-.64,.85-.91,.22-.27,.39-.52,.51-.77,.11-.25,.17-.51,.17-.8,0-.32-.07-.6-.22-.83-.15-.23-.35-.41-.6-.53s-.54-.19-.87-.19-.63,.07-.88,.21-.45,.33-.58,.58-.21,.55-.21,.9h-1.76c0-.65,.15-1.21,.44-1.69,.29-.48,.7-.85,1.22-1.11,.52-.26,1.12-.39,1.79-.39s1.28,.13,1.8,.38c.52,.26,.92,.61,1.21,1.05,.29,.44,.43,.95,.43,1.52,0,.38-.07,.76-.22,1.12-.15,.37-.4,.78-.77,1.22s-.88,.99-1.54,1.63l-1.75,1.79v.07h4.43v1.54h-6.98Z"/><path class="e" d="M457.38,318.39c-.82,0-1.52-.21-2.11-.62s-1.03-1.02-1.35-1.8c-.31-.79-.47-1.74-.47-2.85,0-1.11,.16-2.06,.47-2.84,.31-.78,.76-1.38,1.35-1.79,.58-.41,1.29-.62,2.1-.62s1.52,.21,2.1,.62c.59,.41,1.04,1.01,1.35,1.79s.47,1.73,.47,2.83-.16,2.06-.47,2.85-.76,1.39-1.35,1.8-1.29,.62-2.11,.62Zm0-1.56c.64,0,1.14-.31,1.51-.94,.37-.63,.55-1.55,.55-2.78,0-.81-.08-1.49-.25-2.04-.17-.55-.41-.97-.72-1.25-.31-.28-.67-.42-1.09-.42-.63,0-1.13,.31-1.5,.94s-.55,1.55-.56,2.76c0,.81,.08,1.5,.25,2.05,.17,.55,.41,.97,.71,1.25,.31,.28,.67,.42,1.1,.42Z"/><path class="e" d="M466.61,318.33c-.72,0-1.35-.12-1.91-.37-.56-.25-.99-.59-1.32-1.02-.32-.44-.49-.94-.51-1.52h1.87c.02,.28,.11,.51,.27,.72,.17,.2,.39,.36,.66,.47,.28,.11,.58,.17,.92,.17,.37,0,.69-.06,.97-.19,.28-.13,.5-.31,.66-.53s.24-.49,.23-.79c0-.31-.08-.58-.24-.82s-.4-.42-.7-.55c-.31-.13-.68-.2-1.11-.2h-.9v-1.42h.9c.35,0,.67-.06,.93-.18,.27-.12,.48-.3,.63-.52,.15-.22,.23-.48,.22-.78,0-.29-.06-.54-.19-.75-.13-.21-.32-.38-.55-.5-.24-.12-.51-.18-.83-.18s-.6,.06-.87,.17c-.27,.11-.48,.27-.64,.48s-.25,.45-.26,.74h-1.77c.01-.57,.18-1.07,.5-1.5,.32-.43,.74-.77,1.27-1.01,.53-.24,1.12-.37,1.79-.37s1.27,.13,1.77,.38c.5,.25,.89,.59,1.17,1.02,.27,.43,.41,.9,.41,1.42,0,.57-.17,1.05-.5,1.44-.34,.39-.78,.64-1.33,.76v.08c.72,.1,1.26,.36,1.65,.79,.38,.43,.57,.96,.57,1.6,0,.57-.16,1.08-.48,1.53s-.77,.8-1.33,1.06c-.56,.25-1.21,.38-1.94,.38Z"/><path class="e" d="M475.84,318.39c-.82,0-1.52-.21-2.11-.62s-1.03-1.02-1.35-1.8c-.31-.79-.47-1.74-.47-2.85,0-1.11,.16-2.06,.47-2.84,.31-.78,.76-1.38,1.35-1.79,.58-.41,1.29-.62,2.1-.62s1.52,.21,2.1,.62c.59,.41,1.04,1.01,1.35,1.79s.47,1.73,.47,2.83-.16,2.06-.47,2.85-.76,1.39-1.35,1.8-1.29,.62-2.11,.62Zm0-1.56c.64,0,1.14-.31,1.51-.94,.37-.63,.55-1.55,.55-2.78,0-.81-.08-1.49-.25-2.04-.17-.55-.41-.97-.72-1.25-.31-.28-.67-.42-1.09-.42-.63,0-1.13,.31-1.5,.94s-.55,1.55-.56,2.76c0,.81,.08,1.5,.25,2.05,.17,.55,.41,.97,.71,1.25,.31,.28,.67,.42,1.1,.42Z"/></g><g><path class="e" d="M544.95,318.19v-.89l3.36-3.68c.39-.43,.72-.81,.97-1.13,.25-.32,.44-.62,.57-.9,.12-.28,.19-.58,.19-.89,0-.36-.08-.67-.26-.93s-.4-.46-.7-.61-.63-.21-.99-.21c-.39,0-.73,.08-1.02,.24-.29,.16-.51,.38-.67,.67-.16,.29-.24,.63-.24,1.01h-1.17c0-.6,.14-1.12,.41-1.57,.27-.45,.65-.8,1.13-1.05s1.01-.38,1.6-.38,1.13,.13,1.59,.38c.46,.25,.82,.59,1.08,1.02s.39,.9,.39,1.43c0,.37-.07,.74-.2,1.1-.13,.36-.37,.75-.7,1.19-.33,.44-.79,.97-1.37,1.59l-2.29,2.45v.08h4.73v1.09h-6.42Z"/><path class="e" d="M556.74,318.33c-.75,0-1.39-.21-1.91-.61s-.93-1-1.21-1.79-.42-1.72-.42-2.83,.14-2.04,.42-2.82c.28-.78,.68-1.38,1.21-1.79,.53-.41,1.16-.62,1.91-.62s1.38,.21,1.91,.62c.53,.41,.93,1.01,1.21,1.79,.28,.78,.42,1.72,.42,2.82s-.14,2.05-.42,2.83-.68,1.38-1.21,1.79-1.17,.61-1.91,.61Zm0-1.09c.74,0,1.32-.36,1.73-1.07,.41-.72,.62-1.74,.62-3.06,0-.88-.09-1.63-.28-2.25-.19-.62-.46-1.09-.8-1.42-.35-.33-.77-.49-1.26-.49-.74,0-1.31,.36-1.73,1.09-.41,.72-.62,1.75-.62,3.07,0,.88,.09,1.63,.28,2.25s.45,1.09,.8,1.41,.77,.48,1.27,.48Z"/><path class="e" d="M561.93,316.11v-1.01l4.47-7.08h.74v1.57h-.5l-3.38,5.35v.08h6.03v1.09h-7.36Zm4.79,2.09v-10.18h1.17v10.18h-1.17Z"/><path class="e" d="M574.48,318.33c-.75,0-1.39-.21-1.91-.61s-.93-1-1.21-1.79-.42-1.72-.42-2.83,.14-2.04,.42-2.82c.28-.78,.68-1.38,1.21-1.79,.53-.41,1.16-.62,1.91-.62s1.38,.21,1.91,.62c.53,.41,.93,1.01,1.21,1.79,.28,.78,.42,1.72,.42,2.82s-.14,2.05-.42,2.83-.68,1.38-1.21,1.79-1.17,.61-1.91,.61Zm0-1.09c.74,0,1.32-.36,1.73-1.07,.41-.72,.62-1.74,.62-3.06,0-.88-.09-1.63-.28-2.25-.19-.62-.46-1.09-.8-1.42-.35-.33-.77-.49-1.26-.49-.74,0-1.31,.36-1.73,1.09-.41,.72-.62,1.75-.62,3.07,0,.88,.09,1.63,.28,2.25s.45,1.09,.8,1.41,.77,.48,1.27,.48Z"/></g><g><path class="e" d="M645.14,318.19v-1.33l3.53-3.47c.34-.34,.62-.64,.85-.91,.22-.27,.39-.52,.51-.77,.11-.25,.17-.51,.17-.8,0-.32-.07-.6-.22-.83-.15-.23-.35-.41-.6-.53s-.54-.19-.87-.19-.63,.07-.88,.21-.45,.33-.58,.58-.21,.55-.21,.9h-1.76c0-.65,.15-1.21,.44-1.69,.29-.48,.7-.85,1.22-1.11,.52-.26,1.12-.39,1.79-.39s1.28,.13,1.8,.38c.52,.26,.92,.61,1.21,1.05,.29,.44,.43,.95,.43,1.52,0,.38-.07,.76-.22,1.12-.15,.37-.4,.78-.77,1.22s-.88,.99-1.54,1.63l-1.75,1.79v.07h4.43v1.54h-6.98Z"/><path class="e" d="M657.61,318.39c-.82,0-1.52-.21-2.11-.62s-1.03-1.02-1.35-1.8c-.31-.79-.47-1.74-.47-2.85,0-1.11,.16-2.06,.47-2.84,.31-.78,.76-1.38,1.35-1.79,.58-.41,1.29-.62,2.1-.62s1.52,.21,2.1,.62c.59,.41,1.04,1.01,1.35,1.79s.47,1.73,.47,2.83-.16,2.06-.47,2.85-.76,1.39-1.35,1.8-1.29,.62-2.11,.62Zm0-1.56c.64,0,1.14-.31,1.51-.94,.37-.63,.55-1.55,.55-2.78,0-.81-.08-1.49-.25-2.04-.17-.55-.41-.97-.72-1.25-.31-.28-.67-.42-1.09-.42-.63,0-1.13,.31-1.5,.94s-.55,1.55-.56,2.76c0,.81,.08,1.5,.25,2.05,.17,.55,.41,.97,.71,1.25,.31,.28,.67,.42,1.1,.42Z"/><path class="e" d="M666.72,318.33c-.66,0-1.26-.13-1.78-.38-.52-.25-.94-.59-1.25-1.03s-.47-.94-.49-1.5h1.79c.03,.42,.21,.76,.54,1.02,.33,.26,.72,.39,1.18,.39,.36,0,.68-.08,.96-.25,.28-.17,.5-.4,.67-.69s.24-.63,.24-1.01c0-.38-.08-.73-.24-1.02-.17-.3-.39-.53-.68-.7-.29-.17-.62-.26-1-.26-.3,0-.6,.05-.9,.17-.29,.12-.53,.27-.7,.46l-1.67-.27,.53-5.25h5.91v1.54h-4.38l-.29,2.7h.06c.19-.22,.46-.41,.8-.55s.72-.22,1.13-.22c.62,0,1.17,.15,1.65,.44,.48,.29,.86,.69,1.14,1.2,.28,.51,.42,1.09,.42,1.74s-.16,1.27-.46,1.8-.74,.94-1.29,1.24c-.55,.3-1.18,.45-1.9,.45Z"/><path class="e" d="M675.8,318.39c-.82,0-1.52-.21-2.11-.62s-1.03-1.02-1.35-1.8c-.31-.79-.47-1.74-.47-2.85,0-1.11,.16-2.06,.47-2.84,.31-.78,.76-1.38,1.35-1.79,.58-.41,1.29-.62,2.1-.62s1.52,.21,2.1,.62c.59,.41,1.04,1.01,1.35,1.79s.47,1.73,.47,2.83-.16,2.06-.47,2.85-.76,1.39-1.35,1.8-1.29,.62-2.11,.62Zm0-1.56c.64,0,1.14-.31,1.51-.94,.37-.63,.55-1.55,.55-2.78,0-.81-.08-1.49-.25-2.04-.17-.55-.41-.97-.72-1.25-.31-.28-.67-.42-1.09-.42-.63,0-1.13,.31-1.5,.94s-.55,1.55-.56,2.76c0,.81,.08,1.5,.25,2.05,.17,.55,.41,.97,.71,1.25,.31,.28,.67,.42,1.1,.42Z"/></g><g><path class="e" d="M348.86,318.19v-.89l3.36-3.68c.39-.43,.72-.81,.97-1.13,.25-.32,.44-.62,.57-.9,.12-.28,.19-.58,.19-.89,0-.36-.08-.67-.26-.93s-.4-.46-.7-.61-.63-.21-.99-.21c-.39,0-.73,.08-1.02,.24-.29,.16-.51,.38-.67,.67-.16,.29-.24,.63-.24,1.01h-1.17c0-.6,.14-1.12,.41-1.57,.27-.45,.65-.8,1.13-1.05s1.01-.38,1.6-.38,1.13,.13,1.59,.38c.46,.25,.82,.59,1.08,1.02s.39,.9,.39,1.43c0,.37-.07,.74-.2,1.1-.13,.36-.37,.75-.7,1.19-.33,.44-.79,.97-1.37,1.59l-2.29,2.45v.08h4.73v1.09h-6.42Z"/><path class="e" d="M360.65,318.33c-.75,0-1.39-.21-1.91-.61s-.93-1-1.21-1.79-.42-1.72-.42-2.83,.14-2.04,.42-2.82c.28-.78,.68-1.38,1.21-1.79,.53-.41,1.16-.62,1.91-.62s1.38,.21,1.91,.62c.53,.41,.93,1.01,1.21,1.79,.28,.78,.42,1.72,.42,2.82s-.14,2.05-.42,2.83-.68,1.38-1.21,1.79-1.17,.61-1.91,.61Zm0-1.09c.74,0,1.32-.36,1.73-1.07,.41-.72,.62-1.74,.62-3.06,0-.88-.09-1.63-.28-2.25-.19-.62-.46-1.09-.8-1.42-.35-.33-.77-.49-1.26-.49-.74,0-1.31,.36-1.73,1.09-.41,.72-.62,1.75-.62,3.07,0,.88,.09,1.63,.28,2.25s.45,1.09,.8,1.41,.77,.48,1.27,.48Z"/><path class="e" d="M366.08,318.19v-.89l3.36-3.68c.39-.43,.72-.81,.97-1.13,.25-.32,.44-.62,.57-.9,.12-.28,.19-.58,.19-.89,0-.36-.08-.67-.26-.93s-.4-.46-.7-.61-.63-.21-.99-.21c-.39,0-.73,.08-1.02,.24-.29,.16-.51,.38-.67,.67-.16,.29-.24,.63-.24,1.01h-1.17c0-.6,.14-1.12,.41-1.57,.27-.45,.65-.8,1.13-1.05s1.01-.38,1.6-.38,1.13,.13,1.59,.38c.46,.25,.82,.59,1.08,1.02s.39,.9,.39,1.43c0,.37-.07,.74-.2,1.1-.13,.36-.37,.75-.7,1.19-.33,.44-.79,.97-1.37,1.59l-2.29,2.45v.08h4.73v1.09h-6.42Z"/><path class="e" d="M377.87,318.33c-.75,0-1.39-.21-1.91-.61s-.93-1-1.21-1.79-.42-1.72-.42-2.83,.14-2.04,.42-2.82c.28-.78,.68-1.38,1.21-1.79,.53-.41,1.16-.62,1.91-.62s1.38,.21,1.91,.62c.53,.41,.93,1.01,1.21,1.79,.28,.78,.42,1.72,.42,2.82s-.14,2.05-.42,2.83-.68,1.38-1.21,1.79-1.17,.61-1.91,.61Zm0-1.09c.74,0,1.32-.36,1.73-1.07,.41-.72,.62-1.74,.62-3.06,0-.88-.09-1.63-.28-2.25-.19-.62-.46-1.09-.8-1.42-.35-.33-.77-.49-1.26-.49-.74,0-1.31,.36-1.73,1.09-.41,.72-.62,1.75-.62,3.07,0,.88,.09,1.63,.28,2.25s.45,1.09,.8,1.41,.77,.48,1.27,.48Z"/></g><g><rect class="f" x="341.99" y="79.4" width="44.16" height="16.37"/><g><path class="c" d="M349.76,86.76v1.68h-4.64v-1.68h4.64Z"/><path class="c" d="M355.24,92.83c-.74,0-1.4-.13-1.98-.39s-1.03-.61-1.37-1.06c-.33-.45-.5-.98-.51-1.57h2.17c.01,.25,.09,.47,.25,.65,.15,.19,.35,.33,.6,.43,.25,.1,.54,.15,.85,.15s.62-.06,.87-.17,.45-.28,.59-.48c.14-.21,.21-.44,.21-.71s-.08-.51-.23-.72c-.15-.21-.37-.38-.65-.49s-.61-.18-1-.18h-.95v-1.58h.95c.33,0,.61-.06,.86-.17,.25-.11,.44-.27,.58-.47,.14-.2,.21-.43,.21-.7s-.06-.48-.18-.67c-.12-.19-.29-.35-.51-.46-.22-.11-.47-.16-.76-.16s-.56,.05-.8,.16c-.24,.1-.44,.25-.58,.44-.15,.19-.22,.42-.23,.68h-2.06c0-.59,.18-1.1,.5-1.55,.33-.45,.76-.8,1.32-1.05,.55-.25,1.18-.38,1.87-.38s1.32,.13,1.84,.38c.53,.26,.94,.6,1.23,1.03,.29,.43,.44,.92,.44,1.45,0,.57-.17,1.05-.53,1.43-.36,.38-.82,.62-1.39,.73v.08c.75,.1,1.32,.36,1.71,.78,.39,.42,.59,.95,.58,1.58,0,.58-.16,1.09-.5,1.55-.34,.45-.8,.81-1.39,1.06-.59,.26-1.27,.39-2.03,.39Z"/><path class="c" d="M360.71,92.69v-1.55l3.62-3.36c.31-.3,.57-.57,.78-.8,.21-.24,.37-.47,.48-.7s.16-.48,.16-.75c0-.3-.07-.56-.2-.77-.14-.22-.32-.38-.56-.5-.24-.12-.5-.18-.8-.18s-.58,.06-.82,.19c-.23,.13-.41,.31-.54,.54s-.19,.52-.19,.84h-2.04c0-.67,.15-1.24,.45-1.74,.3-.49,.72-.87,1.27-1.14,.54-.27,1.17-.4,1.88-.4s1.37,.13,1.91,.39c.54,.26,.96,.61,1.27,1.07s.45,.97,.45,1.56c0,.38-.08,.76-.23,1.14-.15,.38-.42,.79-.8,1.25-.38,.46-.93,1-1.63,1.64l-1.49,1.46v.07h4.28v1.76h-7.26Z"/><path class="c" d="M373.13,84.96v-.54c0-.41,.09-.79,.26-1.13,.18-.34,.43-.62,.76-.82s.74-.31,1.21-.31,.9,.1,1.23,.31c.33,.21,.58,.48,.76,.82,.17,.34,.26,.72,.26,1.13v.54c0,.41-.09,.79-.26,1.13-.17,.34-.43,.61-.76,.82-.33,.2-.74,.31-1.23,.31s-.89-.1-1.23-.31c-.33-.21-.58-.48-.75-.82-.17-.34-.26-.71-.26-1.12Zm.66,7.74l7-10.18h1.3l-7,10.18h-1.3Zm.8-8.27v.54c0,.24,.06,.46,.17,.67,.11,.21,.32,.31,.61,.31,.31,0,.51-.1,.62-.31,.11-.21,.17-.43,.17-.67v-.54c0-.24-.05-.47-.16-.68-.11-.21-.32-.31-.63-.31-.29,0-.5,.11-.61,.32-.11,.21-.17,.44-.17,.67Zm3.77,6.36v-.54c0-.41,.09-.78,.26-1.13s.43-.62,.76-.83,.74-.31,1.22-.31,.9,.1,1.23,.31c.33,.21,.58,.48,.76,.82s.26,.72,.26,1.13v.54c0,.41-.09,.78-.26,1.13-.17,.34-.43,.62-.76,.83-.33,.21-.74,.31-1.22,.31s-.9-.1-1.23-.31c-.33-.21-.58-.48-.76-.83-.17-.34-.26-.72-.26-1.13Zm1.45-.54v.54c0,.24,.06,.46,.17,.67s.32,.31,.62,.31,.51-.1,.62-.31c.11-.21,.17-.43,.17-.67v-.54c0-.24-.05-.47-.16-.68-.11-.21-.31-.31-.63-.31s-.51,.1-.62,.31c-.12,.21-.17,.43-.17,.68Z"/><path class="e" d="M336.31,102.15l-2.42,6.55h-1.02l-2.42-6.55h1.09l1.81,5.22h.07l1.81-5.22h1.09Z"/><path class="e" d="M341.02,108.69v-6.55h.97v.99h.07c.12-.32,.33-.59,.65-.79,.31-.2,.66-.3,1.06-.3,.07,0,.17,0,.28,0,.11,0,.2,0,.25,.01v1.02s-.11-.02-.23-.04-.25-.03-.38-.03c-.32,0-.6,.07-.85,.2-.25,.13-.44,.31-.59,.54s-.22,.5-.22,.79v4.14h-1Z"/><path class="e" d="M347.94,108.83c-.59,0-1.11-.14-1.55-.42s-.79-.67-1.04-1.18c-.25-.51-.37-1.1-.37-1.77s.12-1.28,.37-1.79c.25-.51,.6-.9,1.04-1.18s.96-.42,1.55-.42,1.11,.14,1.55,.42,.79,.68,1.04,1.18c.25,.51,.37,1.1,.37,1.79s-.12,1.27-.37,1.77c-.25,.51-.6,.9-1.04,1.18s-.96,.42-1.55,.42Zm0-.9c.45,0,.82-.12,1.11-.35s.5-.53,.64-.91c.14-.38,.21-.78,.21-1.22s-.07-.85-.21-1.22c-.14-.38-.35-.68-.64-.92-.29-.23-.66-.35-1.11-.35s-.82,.12-1.11,.35c-.29,.23-.5,.54-.64,.92-.14,.38-.21,.79-.21,1.22s.07,.84,.21,1.22c.14,.38,.35,.68,.64,.91s.66,.35,1.11,.35Z"/><path class="e" d="M355.1,108.83c-.61,0-1.14-.15-1.58-.43-.44-.29-.78-.69-1.02-1.2-.24-.51-.36-1.09-.36-1.74s.12-1.25,.37-1.76c.25-.51,.59-.91,1.03-1.2,.44-.29,.96-.43,1.55-.43,.46,0,.88,.08,1.24,.26s.67,.41,.91,.72c.24,.31,.38,.67,.44,1.07h-1.01c-.08-.3-.25-.56-.51-.79s-.62-.35-1.06-.35c-.39,0-.73,.1-1.03,.3s-.52,.49-.69,.86c-.16,.37-.25,.8-.25,1.29s.08,.95,.24,1.32c.16,.38,.39,.67,.68,.87s.64,.31,1.04,.31c.26,0,.5-.05,.71-.14s.39-.22,.54-.39c.15-.17,.25-.38,.32-.61h1.01c-.06,.39-.2,.73-.42,1.04-.22,.31-.52,.55-.88,.73-.37,.18-.79,.27-1.27,.27Z"/><path class="e" d="M361.88,108.83c-.63,0-1.17-.14-1.63-.42-.46-.28-.81-.67-1.05-1.18-.25-.5-.37-1.09-.37-1.76s.12-1.26,.37-1.77c.25-.51,.59-.91,1.03-1.2,.44-.29,.96-.43,1.55-.43,.34,0,.68,.06,1.01,.17,.33,.11,.63,.3,.91,.55,.27,.25,.49,.59,.65,1.01,.16,.42,.24,.93,.24,1.54v.43h-5.05v-.87h4.02c0-.37-.07-.7-.22-.99-.15-.29-.35-.52-.62-.69-.27-.17-.58-.25-.95-.25-.4,0-.75,.1-1.04,.3-.29,.2-.51,.45-.67,.77s-.23,.65-.23,1.01v.58c0,.49,.09,.91,.26,1.25,.17,.34,.41,.6,.72,.78,.31,.18,.66,.27,1.07,.27,.26,0,.5-.04,.72-.11s.4-.19,.56-.34c.16-.15,.28-.34,.36-.57l.97,.27c-.1,.33-.27,.62-.52,.87-.24,.25-.54,.44-.89,.58s-.75,.21-1.2,.21Z"/><path class="e" d="M369.48,108.69v-.77l2.88-3.15c.34-.37,.62-.69,.83-.96s.38-.53,.49-.78,.16-.5,.16-.76c0-.31-.07-.57-.22-.8-.15-.22-.35-.4-.6-.52s-.54-.18-.85-.18c-.33,0-.63,.07-.88,.21-.25,.14-.44,.33-.58,.58-.13,.25-.2,.54-.2,.87h-1.01c0-.51,.12-.96,.35-1.35,.24-.39,.56-.69,.97-.9,.41-.22,.87-.32,1.37-.32s.96,.11,1.36,.32c.39,.22,.7,.51,.93,.87,.22,.37,.34,.77,.34,1.22,0,.32-.06,.63-.17,.94s-.31,.64-.6,1.02c-.28,.37-.67,.83-1.17,1.37l-1.96,2.1v.07h4.06v.94h-5.51Z"/><path class="e" d="M379.59,108.81c-.64,0-1.19-.17-1.64-.53-.45-.35-.8-.86-1.04-1.53-.24-.67-.36-1.48-.36-2.43s.12-1.75,.36-2.42,.59-1.18,1.04-1.53c.45-.35,1-.53,1.63-.53s1.18,.18,1.63,.53c.45,.35,.8,.87,1.04,1.53s.36,1.48,.36,2.42-.12,1.76-.36,2.43c-.24,.67-.58,1.18-1.04,1.53-.45,.35-1,.53-1.64,.53Zm0-.94c.64,0,1.13-.31,1.48-.92,.35-.61,.53-1.49,.53-2.62,0-.76-.08-1.4-.24-1.93s-.39-.94-.69-1.21-.66-.42-1.08-.42c-.63,0-1.12,.31-1.48,.93-.36,.62-.53,1.5-.53,2.63,0,.76,.08,1.4,.24,1.93s.39,.93,.69,1.21,.66,.41,1.08,.41Z"/><path class="e" d="M384.24,108.69v-.77l2.88-3.15c.34-.37,.62-.69,.83-.96s.38-.53,.49-.78,.16-.5,.16-.76c0-.31-.07-.57-.22-.8-.15-.22-.35-.4-.6-.52s-.54-.18-.85-.18c-.33,0-.63,.07-.88,.21-.25,.14-.44,.33-.58,.58-.13,.25-.2,.54-.2,.87h-1.01c0-.51,.12-.96,.35-1.35,.24-.39,.56-.69,.97-.9,.41-.22,.87-.32,1.37-.32s.96,.11,1.36,.32c.39,.22,.7,.51,.93,.87,.22,.37,.34,.77,.34,1.22,0,.32-.06,.63-.17,.94s-.31,.64-.6,1.02c-.28,.37-.67,.83-1.17,1.37l-1.96,2.1v.07h4.06v.94h-5.51Z"/><path class="e" d="M394.35,108.81c-.64,0-1.19-.17-1.64-.53-.45-.35-.8-.86-1.04-1.53-.24-.67-.36-1.48-.36-2.43s.12-1.75,.36-2.42,.59-1.18,1.04-1.53c.45-.35,1-.53,1.63-.53s1.18,.18,1.63,.53c.45,.35,.8,.87,1.04,1.53s.36,1.48,.36,2.42-.12,1.76-.36,2.43c-.24,.67-.58,1.18-1.04,1.53-.45,.35-1,.53-1.64,.53Zm0-.94c.64,0,1.13-.31,1.48-.92,.35-.61,.53-1.49,.53-2.62,0-.76-.08-1.4-.24-1.93s-.39-.94-.69-1.21-.66-.42-1.08-.42c-.63,0-1.12,.31-1.48,.93-.36,.62-.53,1.5-.53,2.63,0,.76,.08,1.4,.24,1.93s.39,.93,.69,1.21,.66,.41,1.08,.41Z"/><path class="e" d="M321.24,120.83c-.59,0-1.11-.14-1.55-.42s-.79-.67-1.04-1.18c-.25-.51-.37-1.1-.37-1.77s.12-1.28,.37-1.79c.25-.51,.6-.9,1.04-1.18s.96-.42,1.55-.42,1.11,.14,1.55,.42,.79,.68,1.04,1.18c.25,.51,.37,1.1,.37,1.79s-.12,1.27-.37,1.77c-.25,.51-.6,.9-1.04,1.18s-.96,.42-1.55,.42Zm0-.9c.45,0,.82-.12,1.11-.35s.5-.53,.64-.91c.14-.38,.21-.78,.21-1.22s-.07-.85-.21-1.22c-.14-.38-.35-.68-.64-.92-.29-.23-.66-.35-1.11-.35s-.82,.12-1.11,.35c-.29,.23-.5,.54-.64,.92-.14,.38-.21,.79-.21,1.22s.07,.84,.21,1.22c.14,.38,.35,.68,.64,.91s.66,.35,1.11,.35Z"/><path class="e" d="M325.75,123.15v-9h.97v1.04h.12c.07-.11,.18-.26,.31-.44s.32-.34,.57-.48c.25-.14,.59-.21,1.01-.21,.55,0,1.04,.14,1.46,.41,.42,.28,.75,.67,.98,1.17,.24,.51,.35,1.1,.35,1.79s-.12,1.29-.35,1.8c-.24,.51-.56,.9-.98,1.18-.42,.28-.9,.42-1.44,.42-.42,0-.76-.07-1.01-.21s-.45-.3-.58-.48c-.14-.18-.24-.33-.32-.45h-.09v3.46h-1Zm.99-5.73c0,.49,.07,.93,.22,1.31,.15,.38,.36,.67,.64,.88,.28,.21,.62,.32,1.02,.32s.77-.11,1.05-.33c.28-.22,.5-.52,.64-.9,.14-.38,.22-.8,.22-1.27s-.07-.88-.21-1.25c-.14-.37-.35-.66-.63-.88-.28-.22-.64-.33-1.06-.33s-.75,.1-1.03,.31-.49,.49-.63,.86c-.14,.37-.21,.8-.21,1.29Z"/><path class="e" d="M333.06,120.69v-6.55h.97v.99h.07c.12-.32,.33-.59,.65-.79,.31-.2,.66-.3,1.06-.3,.07,0,.17,0,.28,0,.11,0,.2,0,.25,.01v1.02s-.11-.02-.23-.04-.25-.03-.38-.03c-.32,0-.6,.07-.85,.2-.25,.13-.44,.31-.59,.54s-.22,.5-.22,.79v4.14h-1Z"/><path class="e" d="M339.98,120.83c-.59,0-1.11-.14-1.55-.42s-.79-.67-1.04-1.18c-.25-.51-.37-1.1-.37-1.77s.12-1.28,.37-1.79c.25-.51,.6-.9,1.04-1.18s.96-.42,1.55-.42,1.11,.14,1.55,.42,.79,.68,1.04,1.18c.25,.51,.37,1.1,.37,1.79s-.12,1.27-.37,1.77c-.25,.51-.6,.9-1.04,1.18s-.96,.42-1.55,.42Zm0-.9c.45,0,.82-.12,1.11-.35s.5-.53,.64-.91c.14-.38,.21-.78,.21-1.22s-.07-.85-.21-1.22c-.14-.38-.35-.68-.64-.92-.29-.23-.66-.35-1.11-.35s-.82,.12-1.11,.35c-.29,.23-.5,.54-.64,.92-.14,.38-.21,.79-.21,1.22s.07,.84,.21,1.22c.14,.38,.35,.68,.64,.91s.66,.35,1.11,.35Z"/><path class="e" d="M347.32,114.15v.85h-3.39v-.85h3.39Zm-2.4-1.57h1.01v6.24c0,.28,.04,.5,.13,.64s.19,.23,.32,.28c.13,.05,.27,.07,.42,.07,.11,0,.2,0,.27-.02,.07-.01,.13-.02,.17-.03l.21,.9c-.07,.03-.16,.05-.29,.08-.12,.03-.28,.04-.46,.04-.28,0-.56-.06-.83-.18-.27-.12-.5-.31-.67-.56s-.27-.57-.27-.95v-6.51Z"/><path class="e" d="M349.35,113.05c-.2,0-.36-.07-.5-.2-.14-.13-.21-.29-.21-.48s.07-.35,.21-.48,.31-.2,.5-.2,.36,.07,.5,.2,.21,.29,.21,.48-.07,.35-.21,.48c-.14,.13-.31,.2-.5,.2Zm-.51,7.64v-6.55h1v6.55h-1Z"/><path class="e" d="M355.06,120.69v-6.55h.97v.99h.07c.12-.32,.33-.59,.65-.79,.31-.2,.66-.3,1.06-.3,.07,0,.17,0,.28,0,.11,0,.2,0,.25,.01v1.02s-.11-.02-.23-.04-.25-.03-.38-.03c-.32,0-.6,.07-.85,.2-.25,.13-.44,.31-.59,.54s-.22,.5-.22,.79v4.14h-1Z"/><path class="e" d="M361.98,120.83c-.59,0-1.11-.14-1.55-.42s-.79-.67-1.04-1.18c-.25-.51-.37-1.1-.37-1.77s.12-1.28,.37-1.79c.25-.51,.6-.9,1.04-1.18s.96-.42,1.55-.42,1.11,.14,1.55,.42,.79,.68,1.04,1.18c.25,.51,.37,1.1,.37,1.79s-.12,1.27-.37,1.77c-.25,.51-.6,.9-1.04,1.18s-.96,.42-1.55,.42Zm0-.9c.45,0,.82-.12,1.11-.35s.5-.53,.64-.91c.14-.38,.21-.78,.21-1.22s-.07-.85-.21-1.22c-.14-.38-.35-.68-.64-.92-.29-.23-.66-.35-1.11-.35s-.82,.12-1.11,.35c-.29,.23-.5,.54-.64,.92-.14,.38-.21,.79-.21,1.22s.07,.84,.21,1.22c.14,.38,.35,.68,.64,.91s.66,.35,1.11,.35Z"/><path class="e" d="M366.48,120.69v-8.73h1v8.73h-1Zm.94-2.39l-.02-1.24h.21l2.86-2.92h1.24l-3.05,3.09h-.09l-1.16,1.07Zm3.22,2.39l-2.56-3.24,.72-.7,3.12,3.94h-1.28Z"/><path class="e" d="M377.14,118.02v-3.87h1v6.55h-1v-1.11h-.07c-.15,.33-.39,.62-.72,.85-.32,.23-.73,.35-1.23,.35-.41,0-.77-.09-1.09-.27s-.57-.45-.75-.82c-.18-.36-.27-.83-.27-1.38v-4.16h1v4.09c0,.48,.13,.86,.4,1.14s.61,.43,1.03,.43c.25,0,.5-.06,.76-.19s.48-.32,.66-.59c.18-.26,.27-.6,.27-1.01Z"/><path class="e" d="M386.41,111.96v8.73h-1.06v-7.62h-.05l-2.13,1.42v-1.07l2.18-1.45h1.06Z"/><path class="e" d="M391.69,111.84c.36,0,.72,.07,1.07,.21,.36,.13,.68,.35,.98,.66,.3,.31,.53,.73,.71,1.26s.27,1.2,.27,2-.07,1.46-.22,2.06c-.15,.6-.36,1.11-.63,1.52-.27,.41-.61,.72-1,.94s-.83,.32-1.32,.32-.92-.1-1.31-.29-.69-.47-.94-.81-.4-.75-.47-1.21h1.04c.09,.4,.28,.73,.56,.99,.28,.26,.65,.39,1.11,.39,.67,0,1.21-.29,1.6-.88s.59-1.42,.59-2.49h-.07c-.16,.24-.35,.45-.57,.62-.22,.17-.46,.31-.73,.4-.27,.09-.55,.14-.85,.14-.5,0-.96-.12-1.38-.37-.42-.25-.75-.59-1-1.03-.25-.44-.37-.94-.37-1.5s.12-1.02,.36-1.47c.24-.45,.58-.8,1.01-1.06,.44-.26,.95-.39,1.54-.38Zm0,.94c-.36,0-.68,.09-.96,.27-.29,.18-.51,.42-.68,.72s-.25,.63-.25,1,.08,.69,.24,.99c.16,.3,.38,.53,.66,.71,.28,.17,.6,.26,.96,.26,.27,0,.52-.05,.75-.16,.23-.11,.44-.25,.61-.44,.17-.19,.31-.4,.41-.63s.15-.49,.15-.74c0-.34-.08-.66-.25-.96-.16-.3-.39-.54-.67-.72-.29-.18-.61-.28-.97-.28Z"/><path class="e" d="M399.18,111.84c.36,0,.72,.07,1.07,.21,.36,.13,.68,.35,.98,.66,.3,.31,.53,.73,.71,1.26s.27,1.2,.27,2-.07,1.46-.22,2.06c-.15,.6-.36,1.11-.63,1.52-.27,.41-.61,.72-1,.94s-.83,.32-1.32,.32-.92-.1-1.31-.29-.69-.47-.94-.81-.4-.75-.47-1.21h1.04c.09,.4,.28,.73,.56,.99,.28,.26,.65,.39,1.11,.39,.67,0,1.21-.29,1.6-.88s.59-1.42,.59-2.49h-.07c-.16,.24-.35,.45-.57,.62-.22,.17-.46,.31-.73,.4-.27,.09-.55,.14-.85,.14-.5,0-.96-.12-1.38-.37-.42-.25-.75-.59-1-1.03-.25-.44-.37-.94-.37-1.5s.12-1.02,.36-1.47c.24-.45,.58-.8,1.01-1.06,.44-.26,.95-.39,1.54-.38Zm0,.94c-.36,0-.68,.09-.96,.27-.29,.18-.51,.42-.68,.72s-.25,.63-.25,1,.08,.69,.24,.99c.16,.3,.38,.53,.66,.71,.28,.17,.6,.26,.96,.26,.27,0,.52-.05,.75-.16,.23-.11,.44-.25,.61-.44,.17-.19,.31-.4,.41-.63s.15-.49,.15-.74c0-.34-.08-.66-.25-.96-.16-.3-.39-.54-.67-.72-.29-.18-.61-.28-.97-.28Z"/><path class="e" d="M406.73,120.81c-.64,0-1.19-.17-1.64-.53-.45-.35-.8-.86-1.04-1.53-.24-.67-.36-1.48-.36-2.43s.12-1.75,.36-2.42,.59-1.18,1.04-1.53c.45-.35,1-.53,1.63-.53s1.18,.18,1.63,.53c.45,.35,.8,.87,1.04,1.53s.36,1.48,.36,2.42-.12,1.76-.36,2.43c-.24,.67-.58,1.18-1.04,1.53-.45,.35-1,.53-1.64,.53Zm0-.94c.64,0,1.13-.31,1.48-.92,.35-.61,.53-1.49,.53-2.62,0-.76-.08-1.4-.24-1.93s-.39-.94-.69-1.21-.66-.42-1.08-.42c-.63,0-1.12,.31-1.48,.93-.36,.62-.53,1.5-.53,2.63,0,.76,.08,1.4,.24,1.93s.39,.93,.69,1.21,.66,.41,1.08,.41Z"/></g></g><path class="e" d="M55.14,298.76c-.75,0-1.39-.21-1.91-.61s-.93-1-1.21-1.79-.42-1.72-.42-2.83,.14-2.04,.42-2.82c.28-.78,.68-1.38,1.21-1.79,.53-.41,1.16-.62,1.91-.62s1.38,.21,1.91,.62c.53,.41,.93,1.01,1.21,1.79,.28,.78,.42,1.72,.42,2.82s-.14,2.05-.42,2.83-.68,1.38-1.21,1.79-1.17,.61-1.91,.61Zm0-1.09c.74,0,1.32-.36,1.73-1.07,.41-.72,.62-1.74,.62-3.06,0-.88-.09-1.63-.28-2.25-.19-.62-.46-1.09-.8-1.42-.35-.33-.77-.49-1.26-.49-.74,0-1.31,.36-1.73,1.09-.41,.72-.62,1.75-.62,3.07,0,.88,.09,1.63,.28,2.25s.45,1.09,.8,1.41,.77,.48,1.27,.48Z"/><g><path class="e" d="M24.08,245v10.18h-1.23v-8.89h-.06l-2.49,1.65v-1.25l2.54-1.69h1.23Z"/><path class="e" d="M33.12,255.32c-.75,0-1.39-.21-1.91-.61s-.93-1-1.21-1.79-.42-1.72-.42-2.83,.14-2.04,.42-2.82c.28-.78,.68-1.38,1.21-1.79,.53-.41,1.16-.62,1.91-.62s1.38,.21,1.91,.62c.53,.41,.93,1.01,1.21,1.79,.28,.78,.42,1.72,.42,2.82s-.14,2.05-.42,2.83-.68,1.38-1.21,1.79-1.17,.61-1.91,.61Zm0-1.09c.74,0,1.32-.36,1.73-1.07,.41-.72,.62-1.74,.62-3.06,0-.88-.09-1.63-.28-2.25-.19-.62-.46-1.09-.8-1.42-.35-.33-.77-.49-1.26-.49-.74,0-1.31,.36-1.73,1.09-.41,.72-.62,1.75-.62,3.07,0,.88,.09,1.63,.28,2.25s.45,1.09,.8,1.41,.77,.48,1.27,.48Z"/><path class="e" d="M41.87,255.32c-.75,0-1.39-.21-1.91-.61s-.93-1-1.21-1.79-.42-1.72-.42-2.83,.14-2.04,.42-2.82c.28-.78,.68-1.38,1.21-1.79,.53-.41,1.16-.62,1.91-.62s1.38,.21,1.91,.62c.53,.41,.93,1.01,1.21,1.79,.28,.78,.42,1.72,.42,2.82s-.14,2.05-.42,2.83-.68,1.38-1.21,1.79-1.17,.61-1.91,.61Zm0-1.09c.74,0,1.32-.36,1.73-1.07,.41-.72,.62-1.74,.62-3.06,0-.88-.09-1.63-.28-2.25-.19-.62-.46-1.09-.8-1.42-.35-.33-.77-.49-1.26-.49-.74,0-1.31,.36-1.73,1.09-.41,.72-.62,1.75-.62,3.07,0,.88,.09,1.63,.28,2.25s.45,1.09,.8,1.41,.77,.48,1.27,.48Z"/><path class="e" d="M50.62,255.32c-.75,0-1.39-.21-1.91-.61s-.93-1-1.21-1.79-.42-1.72-.42-2.83,.14-2.04,.42-2.82c.28-.78,.68-1.38,1.21-1.79,.53-.41,1.16-.62,1.91-.62s1.38,.21,1.91,.62c.53,.41,.93,1.01,1.21,1.79,.28,.78,.42,1.72,.42,2.82s-.14,2.05-.42,2.83-.68,1.38-1.21,1.79-1.17,.61-1.91,.61Zm0-1.09c.74,0,1.32-.36,1.73-1.07,.41-.72,.62-1.74,.62-3.06,0-.88-.09-1.63-.28-2.25-.19-.62-.46-1.09-.8-1.42-.35-.33-.77-.49-1.26-.49-.74,0-1.31,.36-1.73,1.09-.41,.72-.62,1.75-.62,3.07,0,.88,.09,1.63,.28,2.25s.45,1.09,.8,1.41,.77,.48,1.27,.48Z"/></g><g><path class="e" d="M20.5,211.74v-.89l3.36-3.68c.39-.43,.72-.81,.97-1.13,.25-.32,.44-.62,.57-.9,.12-.28,.19-.58,.19-.89,0-.36-.08-.67-.26-.93s-.4-.46-.7-.61-.63-.21-.99-.21c-.39,0-.73,.08-1.02,.24-.29,.16-.51,.38-.67,.67-.16,.29-.24,.63-.24,1.01h-1.17c0-.6,.14-1.12,.41-1.57,.27-.45,.65-.8,1.13-1.05s1.01-.38,1.6-.38,1.13,.13,1.59,.38c.46,.25,.82,.59,1.08,1.02s.39,.9,.39,1.43c0,.37-.07,.74-.2,1.1-.13,.36-.37,.75-.7,1.19-.33,.44-.79,.97-1.37,1.59l-2.29,2.45v.08h4.73v1.09h-6.42Z"/><path class="e" d="M35.09,211.88c-.75,0-1.39-.21-1.91-.61s-.93-1-1.21-1.79-.42-1.72-.42-2.83,.14-2.04,.42-2.82c.28-.78,.68-1.38,1.21-1.79,.53-.41,1.16-.62,1.91-.62s1.38,.21,1.91,.62c.53,.41,.93,1.01,1.21,1.79,.28,.78,.42,1.72,.42,2.82s-.14,2.05-.42,2.83-.68,1.38-1.21,1.79-1.17,.61-1.91,.61Zm0-1.09c.74,0,1.32-.36,1.73-1.07,.41-.72,.62-1.74,.62-3.06,0-.88-.09-1.63-.28-2.25-.19-.62-.46-1.09-.8-1.42-.35-.33-.77-.49-1.26-.49-.74,0-1.31,.36-1.73,1.09-.41,.72-.62,1.75-.62,3.07,0,.88,.09,1.63,.28,2.25s.45,1.09,.8,1.41,.77,.48,1.27,.48Z"/><path class="e" d="M43.84,211.88c-.75,0-1.39-.21-1.91-.61s-.93-1-1.21-1.79-.42-1.72-.42-2.83,.14-2.04,.42-2.82c.28-.78,.68-1.38,1.21-1.79,.53-.41,1.16-.62,1.91-.62s1.38,.21,1.91,.62c.53,.41,.93,1.01,1.21,1.79,.28,.78,.42,1.72,.42,2.82s-.14,2.05-.42,2.83-.68,1.38-1.21,1.79-1.17,.61-1.91,.61Zm0-1.09c.74,0,1.32-.36,1.73-1.07,.41-.72,.62-1.74,.62-3.06,0-.88-.09-1.63-.28-2.25-.19-.62-.46-1.09-.8-1.42-.35-.33-.77-.49-1.26-.49-.74,0-1.31,.36-1.73,1.09-.41,.72-.62,1.75-.62,3.07,0,.88,.09,1.63,.28,2.25s.45,1.09,.8,1.41,.77,.48,1.27,.48Z"/><path class="e" d="M52.59,211.88c-.75,0-1.39-.21-1.91-.61s-.93-1-1.21-1.79-.42-1.72-.42-2.83,.14-2.04,.42-2.82c.28-.78,.68-1.38,1.21-1.79,.53-.41,1.16-.62,1.91-.62s1.38,.21,1.91,.62c.53,.41,.93,1.01,1.21,1.79,.28,.78,.42,1.72,.42,2.82s-.14,2.05-.42,2.83-.68,1.38-1.21,1.79-1.17,.61-1.91,.61Zm0-1.09c.74,0,1.32-.36,1.73-1.07,.41-.72,.62-1.74,.62-3.06,0-.88-.09-1.63-.28-2.25-.19-.62-.46-1.09-.8-1.42-.35-.33-.77-.49-1.26-.49-.74,0-1.31,.36-1.73,1.09-.41,.72-.62,1.75-.62,3.07,0,.88,.09,1.63,.28,2.25s.45,1.09,.8,1.41,.77,.48,1.27,.48Z"/></g><g><path class="e" d="M23.94,168.45c-.66,0-1.24-.11-1.75-.34-.51-.22-.92-.54-1.22-.94-.3-.4-.46-.87-.49-1.41h1.25c.03,.33,.14,.61,.34,.85,.2,.24,.46,.42,.78,.55s.68,.19,1.07,.19c.44,0,.83-.08,1.16-.23,.34-.15,.6-.36,.8-.64,.19-.27,.29-.59,.29-.95s-.09-.71-.28-.99c-.19-.29-.46-.51-.82-.67-.36-.16-.8-.24-1.31-.24h-.82v-1.09h.82c.4,0,.76-.07,1.07-.22,.31-.15,.55-.35,.72-.62,.17-.26,.26-.58,.26-.93s-.08-.64-.23-.9c-.15-.26-.37-.45-.64-.6-.28-.14-.6-.21-.98-.21-.35,0-.68,.06-.99,.19s-.56,.31-.76,.55c-.2,.24-.3,.53-.32,.87h-1.19c.02-.53,.18-1,.48-1.4,.3-.4,.7-.72,1.19-.94,.49-.22,1.03-.34,1.61-.34,.63,0,1.17,.13,1.62,.38,.45,.25,.8,.59,1.04,1,.24,.41,.36,.86,.36,1.34,0,.57-.15,1.06-.45,1.47-.3,.4-.71,.68-1.22,.84v.08c.64,.11,1.14,.38,1.51,.82,.36,.44,.54,.98,.54,1.63,0,.55-.15,1.05-.45,1.49-.3,.44-.71,.79-1.23,1.04-.52,.25-1.1,.38-1.76,.38Z"/><path class="e" d="M35.53,168.45c-.75,0-1.39-.21-1.91-.61s-.93-1-1.21-1.79-.42-1.72-.42-2.83,.14-2.04,.42-2.82c.28-.78,.68-1.38,1.21-1.79,.53-.41,1.16-.62,1.91-.62s1.38,.21,1.91,.62c.53,.41,.93,1.01,1.21,1.79,.28,.78,.42,1.72,.42,2.82s-.14,2.05-.42,2.83-.68,1.38-1.21,1.79-1.17,.61-1.91,.61Zm0-1.09c.74,0,1.32-.36,1.73-1.07,.41-.72,.62-1.74,.62-3.06,0-.88-.09-1.63-.28-2.25-.19-.62-.46-1.09-.8-1.42-.35-.33-.77-.49-1.26-.49-.74,0-1.31,.36-1.73,1.09-.41,.72-.62,1.75-.62,3.07,0,.88,.09,1.63,.28,2.25s.45,1.09,.8,1.41,.77,.48,1.27,.48Z"/><path class="e" d="M44.28,168.45c-.75,0-1.39-.21-1.91-.61s-.93-1-1.21-1.79-.42-1.72-.42-2.83,.14-2.04,.42-2.82c.28-.78,.68-1.38,1.21-1.79,.53-.41,1.16-.62,1.91-.62s1.38,.21,1.91,.62c.53,.41,.93,1.01,1.21,1.79,.28,.78,.42,1.72,.42,2.82s-.14,2.05-.42,2.83-.68,1.38-1.21,1.79-1.17,.61-1.91,.61Zm0-1.09c.74,0,1.32-.36,1.73-1.07,.41-.72,.62-1.74,.62-3.06,0-.88-.09-1.63-.28-2.25-.19-.62-.46-1.09-.8-1.42-.35-.33-.77-.49-1.26-.49-.74,0-1.31,.36-1.73,1.09-.41,.72-.62,1.75-.62,3.07,0,.88,.09,1.63,.28,2.25s.45,1.09,.8,1.41,.77,.48,1.27,.48Z"/><path class="e" d="M53.03,168.45c-.75,0-1.39-.21-1.91-.61s-.93-1-1.21-1.79-.42-1.72-.42-2.83,.14-2.04,.42-2.82c.28-.78,.68-1.38,1.21-1.79,.53-.41,1.16-.62,1.91-.62s1.38,.21,1.91,.62c.53,.41,.93,1.01,1.21,1.79,.28,.78,.42,1.72,.42,2.82s-.14,2.05-.42,2.83-.68,1.38-1.21,1.79-1.17,.61-1.91,.61Zm0-1.09c.74,0,1.32-.36,1.73-1.07,.41-.72,.62-1.74,.62-3.06,0-.88-.09-1.63-.28-2.25-.19-.62-.46-1.09-.8-1.42-.35-.33-.77-.49-1.26-.49-.74,0-1.31,.36-1.73,1.09-.41,.72-.62,1.75-.62,3.07,0,.88,.09,1.63,.28,2.25s.45,1.09,.8,1.41,.77,.48,1.27,.48Z"/></g><g><path class="e" d="M20.26,122.78v-1.01l4.47-7.08h.74v1.57h-.5l-3.38,5.35v.08h6.03v1.09h-7.36Zm4.79,2.09v-10.18h1.17v10.18h-1.17Z"/><path class="e" d="M35.61,125.01c-.75,0-1.39-.21-1.91-.61s-.93-1-1.21-1.79-.42-1.72-.42-2.83,.14-2.04,.42-2.82c.28-.78,.68-1.38,1.21-1.79,.53-.41,1.16-.62,1.91-.62s1.38,.21,1.91,.62c.53,.41,.93,1.01,1.21,1.79,.28,.78,.42,1.72,.42,2.82s-.14,2.05-.42,2.83-.68,1.38-1.21,1.79-1.17,.61-1.91,.61Zm0-1.09c.74,0,1.32-.36,1.73-1.07,.41-.72,.62-1.74,.62-3.06,0-.88-.09-1.63-.28-2.25-.19-.62-.46-1.09-.8-1.42-.35-.33-.77-.49-1.26-.49-.74,0-1.31,.36-1.73,1.09-.41,.72-.62,1.75-.62,3.07,0,.88,.09,1.63,.28,2.25s.45,1.09,.8,1.41,.77,.48,1.27,.48Z"/><path class="e" d="M44.36,125.01c-.75,0-1.39-.21-1.91-.61s-.93-1-1.21-1.79-.42-1.72-.42-2.83,.14-2.04,.42-2.82c.28-.78,.68-1.38,1.21-1.79,.53-.41,1.16-.62,1.91-.62s1.38,.21,1.91,.62c.53,.41,.93,1.01,1.21,1.79,.28,.78,.42,1.72,.42,2.82s-.14,2.05-.42,2.83-.68,1.38-1.21,1.79-1.17,.61-1.91,.61Zm0-1.09c.74,0,1.32-.36,1.73-1.07,.41-.72,.62-1.74,.62-3.06,0-.88-.09-1.63-.28-2.25-.19-.62-.46-1.09-.8-1.42-.35-.33-.77-.49-1.26-.49-.74,0-1.31,.36-1.73,1.09-.41,.72-.62,1.75-.62,3.07,0,.88,.09,1.63,.28,2.25s.45,1.09,.8,1.41,.77,.48,1.27,.48Z"/><path class="e" d="M53.11,125.01c-.75,0-1.39-.21-1.91-.61s-.93-1-1.21-1.79-.42-1.72-.42-2.83,.14-2.04,.42-2.82c.28-.78,.68-1.38,1.21-1.79,.53-.41,1.16-.62,1.91-.62s1.38,.21,1.91,.62c.53,.41,.93,1.01,1.21,1.79,.28,.78,.42,1.72,.42,2.82s-.14,2.05-.42,2.83-.68,1.38-1.21,1.79-1.17,.61-1.91,.61Zm0-1.09c.74,0,1.32-.36,1.73-1.07,.41-.72,.62-1.74,.62-3.06,0-.88-.09-1.63-.28-2.25-.19-.62-.46-1.09-.8-1.42-.35-.33-.77-.49-1.26-.49-.74,0-1.31,.36-1.73,1.09-.41,.72-.62,1.75-.62,3.07,0,.88,.09,1.63,.28,2.25s.45,1.09,.8,1.41,.77,.48,1.27,.48Z"/></g><g><path class="e" d="M23.68,81.57c-.58,0-1.11-.12-1.58-.35-.47-.23-.84-.55-1.12-.95-.28-.4-.44-.87-.46-1.38h1.19c.05,.46,.26,.84,.63,1.14,.37,.3,.82,.45,1.34,.45,.42,0,.79-.1,1.12-.29,.33-.2,.58-.46,.77-.81,.19-.34,.28-.73,.28-1.17s-.1-.84-.29-1.19c-.19-.35-.46-.63-.8-.83s-.72-.3-1.16-.31c-.31,0-.63,.04-.96,.14s-.6,.22-.81,.38l-1.15-.14,.62-5.01h5.29v1.09h-4.26l-.36,3h.06c.21-.17,.47-.3,.79-.41,.31-.11,.64-.16,.98-.16,.62,0,1.18,.15,1.67,.45,.49,.3,.87,.7,1.15,1.22,.28,.51,.42,1.1,.42,1.76s-.15,1.23-.44,1.74-.69,.91-1.2,1.2-1.08,.44-1.73,.44Z"/><path class="e" d="M35.13,81.57c-.75,0-1.39-.21-1.91-.61s-.93-1-1.21-1.79-.42-1.72-.42-2.83,.14-2.04,.42-2.82c.28-.78,.68-1.38,1.21-1.79,.53-.41,1.16-.62,1.91-.62s1.38,.21,1.91,.62c.53,.41,.93,1.01,1.21,1.79,.28,.78,.42,1.72,.42,2.82s-.14,2.05-.42,2.83-.68,1.38-1.21,1.79-1.17,.61-1.91,.61Zm0-1.09c.74,0,1.32-.36,1.73-1.07,.41-.72,.62-1.74,.62-3.06,0-.88-.09-1.63-.28-2.25-.19-.62-.46-1.09-.8-1.42-.35-.33-.77-.49-1.26-.49-.74,0-1.31,.36-1.73,1.09-.41,.72-.62,1.75-.62,3.07,0,.88,.09,1.63,.28,2.25s.45,1.09,.8,1.41,.77,.48,1.27,.48Z"/><path class="e" d="M43.88,81.57c-.75,0-1.39-.21-1.91-.61s-.93-1-1.21-1.79-.42-1.72-.42-2.83,.14-2.04,.42-2.82c.28-.78,.68-1.38,1.21-1.79,.53-.41,1.16-.62,1.91-.62s1.38,.21,1.91,.62c.53,.41,.93,1.01,1.21,1.79,.28,.78,.42,1.72,.42,2.82s-.14,2.05-.42,2.83-.68,1.38-1.21,1.79-1.17,.61-1.91,.61Zm0-1.09c.74,0,1.32-.36,1.73-1.07,.41-.72,.62-1.74,.62-3.06,0-.88-.09-1.63-.28-2.25-.19-.62-.46-1.09-.8-1.42-.35-.33-.77-.49-1.26-.49-.74,0-1.31,.36-1.73,1.09-.41,.72-.62,1.75-.62,3.07,0,.88,.09,1.63,.28,2.25s.45,1.09,.8,1.41,.77,.48,1.27,.48Z"/><path class="e" d="M52.63,81.57c-.75,0-1.39-.21-1.91-.61s-.93-1-1.21-1.79-.42-1.72-.42-2.83,.14-2.04,.42-2.82c.28-.78,.68-1.38,1.21-1.79,.53-.41,1.16-.62,1.91-.62s1.38,.21,1.91,.62c.53,.41,.93,1.01,1.21,1.79,.28,.78,.42,1.72,.42,2.82s-.14,2.05-.42,2.83-.68,1.38-1.21,1.79-1.17,.61-1.91,.61Zm0-1.09c.74,0,1.32-.36,1.73-1.07,.41-.72,.62-1.74,.62-3.06,0-.88-.09-1.63-.28-2.25-.19-.62-.46-1.09-.8-1.42-.35-.33-.77-.49-1.26-.49-.74,0-1.31,.36-1.73,1.09-.41,.72-.62,1.75-.62,3.07,0,.88,.09,1.63,.28,2.25s.45,1.09,.8,1.41,.77,.48,1.27,.48Z"/><path class="e" d="M20.29,93.43v-6h.89v.94h.08c.12-.32,.33-.57,.61-.75s.61-.27,1-.27,.73,.09,.99,.27,.47,.43,.62,.75h.06c.15-.31,.38-.56,.69-.74s.68-.28,1.11-.28c.54,0,.98,.17,1.32,.5s.51,.85,.51,1.56v4.02h-.92v-4.02c0-.44-.12-.76-.36-.95s-.53-.29-.86-.29c-.42,0-.75,.13-.98,.38s-.35,.58-.35,.96v3.91h-.94v-4.11c0-.34-.11-.62-.33-.83s-.51-.31-.86-.31c-.24,0-.46,.06-.67,.19s-.37,.3-.5,.53-.19,.49-.19,.78v3.75h-.92Z"/><path class="e" d="M30.32,86.43c-.18,0-.33-.06-.46-.18s-.19-.27-.19-.44,.06-.32,.19-.44,.28-.18,.46-.18,.33,.06,.46,.18,.19,.27,.19,.44-.06,.32-.19,.44-.28,.18-.46,.18Zm-.47,7v-6h.92v6h-.92Z"/><path class="e" d="M33.38,85.43v8h-.92v-8h.92Z"/><path class="e" d="M35.74,93.49c-.19,0-.36-.07-.5-.21s-.21-.3-.21-.5,.07-.36,.21-.5,.3-.21,.5-.21,.36,.07,.5,.21,.21,.3,.21,.5c0,.13-.03,.25-.1,.35s-.15,.19-.25,.26-.22,.1-.35,.1Z"/><path class="e" d="M43.8,87.43v.78h-3.11v-.78h3.11Zm-2.2-1.44h.92v5.72c0,.26,.04,.46,.12,.58s.18,.21,.3,.26,.25,.06,.38,.06c.1,0,.18,0,.25-.02s.12-.02,.16-.03l.19,.83c-.06,.02-.15,.05-.26,.07s-.25,.04-.43,.04c-.26,0-.51-.06-.76-.17s-.45-.28-.62-.51-.24-.52-.24-.87v-5.97Z"/><path class="e" d="M48.98,90.98v-3.55h.92v6h-.92v-1.02h-.06c-.14,.3-.36,.56-.66,.78s-.67,.32-1.12,.32c-.38,0-.71-.08-1-.25s-.52-.42-.69-.75-.25-.76-.25-1.27v-3.81h.92v3.75c0,.44,.12,.79,.37,1.05s.56,.39,.94,.39c.23,0,.46-.06,.7-.18s.44-.3,.6-.54,.24-.55,.24-.93Z"/><path class="e" d="M52.51,89.82v3.61h-.92v-6h.89v.94h.08c.14-.3,.35-.55,.64-.74s.66-.28,1.11-.28c.41,0,.76,.08,1.07,.25s.54,.42,.71,.75,.25,.76,.25,1.27v3.81h-.92v-3.75c0-.47-.12-.84-.37-1.1s-.58-.4-1.01-.4c-.29,0-.56,.06-.79,.19s-.41,.31-.54,.56-.2,.54-.2,.89Z"/><path class="e" d="M26.85,99.93h-.97c-.06-.28-.16-.52-.3-.73s-.31-.39-.52-.53-.42-.25-.67-.33-.5-.11-.77-.11c-.48,0-.92,.12-1.31,.37s-.7,.61-.93,1.08-.35,1.06-.35,1.75,.12,1.28,.35,1.75,.54,.84,.93,1.08,.83,.37,1.31,.37c.27,0,.52-.04,.77-.11s.47-.18,.67-.33,.37-.32,.52-.54,.24-.46,.3-.73h.97c-.07,.41-.21,.77-.4,1.1s-.43,.6-.72,.82-.61,.4-.96,.51-.74,.18-1.14,.18c-.68,0-1.29-.17-1.82-.5s-.95-.81-1.25-1.42-.46-1.34-.46-2.19,.15-1.57,.46-2.19,.72-1.09,1.25-1.42,1.14-.5,1.82-.5c.4,0,.78,.06,1.14,.18s.68,.29,.96,.51,.53,.5,.72,.82,.33,.69,.4,1.1Z"/><path class="e" d="M35.16,101.43c0,.84-.15,1.57-.46,2.19s-.72,1.09-1.25,1.42-1.14,.5-1.82,.5-1.29-.17-1.82-.5-.95-.81-1.25-1.42-.46-1.34-.46-2.19,.15-1.57,.46-2.19,.72-1.09,1.25-1.42,1.14-.5,1.82-.5,1.29,.17,1.82,.5,.95,.81,1.25,1.42,.46,1.34,.46,2.19Zm-.94,0c0-.69-.12-1.28-.35-1.75s-.54-.84-.93-1.08-.83-.37-1.31-.37-.92,.12-1.31,.37-.7,.61-.93,1.08-.35,1.06-.35,1.75,.12,1.28,.35,1.75,.54,.84,.93,1.08,.83,.37,1.31,.37,.92-.12,1.31-.37,.7-.61,.93-1.08,.35-1.06,.35-1.75Z"/><path class="e" d="M36.3,107.09v-.41l1.54-1.68c.18-.2,.33-.37,.45-.52s.2-.28,.26-.41,.08-.27,.08-.41c0-.16-.04-.31-.12-.43s-.18-.21-.32-.28c-.14-.07-.29-.1-.46-.1-.18,0-.33,.04-.47,.11-.13,.07-.24,.18-.31,.31-.07,.13-.11,.29-.11,.46h-.54c0-.27,.06-.51,.19-.72,.13-.21,.3-.37,.52-.48s.46-.17,.73-.17,.52,.06,.73,.17,.38,.27,.5,.47c.12,.2,.18,.41,.18,.65,0,.17-.03,.34-.09,.5-.06,.16-.17,.34-.32,.54-.15,.2-.36,.44-.63,.73l-1.05,1.12v.04h2.17v.5h-2.94Z"/><path class="e" d="M43.06,105.56c-.58,0-1.08-.13-1.49-.38s-.74-.62-.96-1.08-.34-1-.34-1.62,.11-1.16,.34-1.63,.54-.84,.95-1.1,.88-.4,1.42-.4c.31,0,.62,.05,.93,.16s.58,.27,.83,.51,.45,.54,.6,.92,.22,.85,.22,1.41v.39h-4.62v-.8h3.69c0-.34-.07-.64-.2-.91s-.32-.48-.57-.63-.54-.23-.87-.23c-.37,0-.68,.09-.95,.27s-.47,.42-.62,.71-.21,.6-.21,.93v.53c0,.45,.08,.84,.24,1.15s.38,.55,.66,.71,.61,.24,.98,.24c.24,0,.46-.03,.66-.1s.37-.17,.51-.31,.25-.31,.33-.52l.89,.25c-.09,.3-.25,.57-.47,.79s-.5,.41-.82,.53-.69,.19-1.1,.19Z"/><path class="e" d="M51.04,107.68v-3.17h-.08c-.07,.11-.16,.25-.29,.41s-.3,.31-.54,.44-.54,.19-.93,.19c-.5,0-.94-.13-1.32-.38s-.68-.61-.9-1.08-.32-1.01-.32-1.65,.11-1.18,.32-1.64,.52-.82,.9-1.07,.83-.38,1.34-.38c.39,0,.7,.06,.93,.19s.4,.27,.52,.44,.22,.3,.28,.4h.11v-.95h.89v8.25h-.92Zm-1.7-2.95c.37,0,.68-.1,.94-.29s.45-.46,.58-.81,.2-.74,.2-1.2-.07-.84-.2-1.18-.32-.6-.58-.79-.57-.28-.95-.28-.72,.1-.97,.3-.45,.47-.58,.81-.19,.72-.19,1.14,.07,.81,.2,1.16,.33,.62,.59,.83,.58,.31,.97,.31Z"/></g><rect class="g" x="467.76" y="205.58" width="9.89" height="90.54"/><rect class="g" x="477.64" y="210.35" width="9.89" height="85.77"/><rect class="g" x="487.52" y="215.11" width="9.89" height="81.01"/><rect class="g" x="497.39" y="219.88" width="9.89" height="76.24"/><rect class="g" x="507.27" y="224.64" width="9.89" height="71.48"/><rect class="g" x="517.15" y="229.41" width="9.89" height="66.71"/><rect class="g" x="527.02" y="234.17" width="9.89" height="61.95"/><rect class="g" x="536.9" y="238.94" width="9.89" height="57.18"/><rect class="g" x="546.77" y="243.7" width="9.89" height="52.41"/><rect class="g" x="556.65" y="248.36" width="9.89" height="47.75"/><rect class="g" x="566.53" y="253.23" width="9.89" height="42.89"/><rect class="g" x="576.4" y="258" width="9.89" height="38.12"/><rect class="g" x="586.28" y="262.76" width="9.89" height="33.36"/><rect class="g" x="596.16" y="267.53" width="9.89" height="28.59"/><rect class="g" x="635.66" y="286.59" width="9.89" height="9.53"/><rect class="g" x="625.78" y="281.82" width="9.89" height="14.3"/><rect class="g" x="615.91" y="277.06" width="9.89" height="19.06"/><rect class="g" x="606.03" y="272.29" width="9.89" height="23.82"/><rect class="g" x="645.54" y="291.35" width="9.89" height="4.77"/><rect class="g" x="655.41" y="295.38" width="9.89" height=".73"/><rect class="g" x="369" y="156.14" width="9.89" height="139.97"/><rect class="g" x="438.14" y="190.89" width="9.89" height="105.22"/><rect class="g" x="428.26" y="185.92" width="9.89" height="110.19"/><rect class="g" x="418.38" y="180.96" width="9.89" height="115.15"/><rect class="g" x="408.51" y="175.99" width="9.89" height="120.12"/><rect class="g" x="398.63" y="171.03" width="9.89" height="125.08"/><rect class="g" x="388.76" y="166.07" width="9.89" height="130.04"/><rect class="g" x="378.88" y="161.1" width="9.89" height="135.01"/><rect class="g" x="448.01" y="195.85" width="9.89" height="100.26"/><g><line class="k" x1="462.83" y1="175.92" x2="462.83" y2="194.77"/><polygon class="d" points="459.77 192.28 460.31 191.77 462.83 194.48 465.35 191.77 465.9 192.28 462.83 195.58 459.77 192.28"/></g><g><line class="k" x1="364.07" y1="126.52" x2="364.07" y2="145.37"/><polygon class="d" points="361.01 142.88 361.55 142.37 364.07 145.08 366.59 142.37 367.14 142.88 364.07 146.18 361.01 142.88"/></g><g><line class="k" x1="660.81" y1="269.61" x2="660.81" y2="288.46"/><polygon class="d" points="657.74 285.97 658.29 285.46 660.81 288.17 663.32 285.46 663.87 285.97 660.81 289.27 657.74 285.97"/></g><rect class="g" x="457.89" y="200.82" width="9.89" height="95.3"/><line class="i" x1="60.4" y1="166.05" x2="388.66" y2="166.05"/><line class="i" x1="60.4" y1="252.76" x2="576.29" y2="252.76"/><line class="i" x1="60.4" y1="209.4" x2="477.39" y2="209.4"/><g><rect class="g" x="440.96" y="128.87" width="43.75" height="16.37"/><g><path class="c" d="M448.49,136.38v1.68h-4.64v-1.68h4.64Z"/><path class="c" d="M453.99,142.45c-.7,0-1.33-.13-1.88-.39-.55-.26-.98-.61-1.3-1.07s-.49-.97-.5-1.56h2.09c.02,.39,.19,.71,.5,.96s.67,.37,1.1,.37c.34,0,.64-.08,.9-.23s.46-.36,.61-.63c.15-.27,.22-.58,.22-.93s-.08-.67-.23-.94c-.15-.27-.36-.48-.62-.64-.26-.15-.57-.23-.91-.23-.3,0-.59,.06-.87,.18-.28,.12-.5,.29-.65,.5l-1.91-.34,.48-5.37h6.22v1.76h-4.45l-.26,2.55h.06c.18-.25,.45-.46,.81-.63,.36-.17,.77-.25,1.21-.25,.61,0,1.16,.14,1.64,.43,.48,.29,.86,.68,1.14,1.19s.42,1.08,.41,1.73c0,.69-.16,1.29-.48,1.83-.32,.53-.77,.95-1.34,1.25-.57,.3-1.24,.46-1.99,.46Z"/><path class="c" d="M463.02,142.45c-.7,0-1.33-.13-1.88-.39-.55-.26-.98-.61-1.3-1.07s-.49-.97-.5-1.56h2.09c.02,.39,.19,.71,.5,.96s.67,.37,1.1,.37c.34,0,.64-.08,.9-.23s.46-.36,.61-.63c.15-.27,.22-.58,.22-.93s-.08-.67-.23-.94c-.15-.27-.36-.48-.62-.64-.26-.15-.57-.23-.91-.23-.3,0-.59,.06-.87,.18-.28,.12-.5,.29-.65,.5l-1.91-.34,.48-5.37h6.22v1.76h-4.45l-.26,2.55h.06c.18-.25,.45-.46,.81-.63,.36-.17,.77-.25,1.21-.25,.61,0,1.16,.14,1.64,.43,.48,.29,.86,.68,1.14,1.19s.42,1.08,.41,1.73c0,.69-.16,1.29-.48,1.83-.32,.53-.77,.95-1.34,1.25-.57,.3-1.24,.46-1.99,.46Z"/><path class="c" d="M471.92,134.58v-.54c0-.41,.09-.79,.26-1.13,.18-.34,.43-.62,.76-.82s.74-.31,1.21-.31,.9,.1,1.23,.31c.33,.21,.58,.48,.76,.82,.17,.34,.26,.72,.26,1.13v.54c0,.41-.09,.79-.26,1.13-.17,.34-.43,.61-.76,.82-.33,.2-.74,.31-1.23,.31s-.89-.1-1.23-.31c-.33-.21-.58-.48-.75-.82-.17-.34-.26-.71-.26-1.12Zm.66,7.74l7-10.18h1.3l-7,10.18h-1.3Zm.8-8.27v.54c0,.24,.06,.46,.17,.67,.11,.21,.32,.31,.61,.31,.31,0,.51-.1,.62-.31,.11-.21,.17-.43,.17-.67v-.54c0-.24-.05-.47-.16-.68-.11-.21-.32-.31-.63-.31-.29,0-.5,.11-.61,.32-.11,.21-.17,.44-.17,.67Zm3.77,6.36v-.54c0-.41,.09-.78,.26-1.13s.43-.62,.76-.83,.74-.31,1.22-.31,.9,.1,1.23,.31c.33,.21,.58,.48,.76,.82s.26,.72,.26,1.13v.54c0,.41-.09,.78-.26,1.13-.17,.34-.43,.62-.76,.83-.33,.21-.74,.31-1.22,.31s-.9-.1-1.23-.31c-.33-.21-.58-.48-.76-.83-.17-.34-.26-.72-.26-1.13Zm1.45-.54v.54c0,.24,.06,.46,.17,.67s.32,.31,.62,.31,.51-.1,.62-.31c.11-.21,.17-.43,.17-.67v-.54c0-.24-.05-.47-.16-.68-.11-.21-.31-.31-.63-.31s-.51,.1-.62,.31c-.12,.21-.17,.43-.17,.68Z"/><path class="e" d="M428.14,158.45c-.54,0-1.03-.14-1.44-.42-.42-.28-.74-.67-.98-1.18-.24-.51-.35-1.11-.35-1.8s.12-1.28,.35-1.79c.24-.5,.56-.9,.98-1.17,.42-.28,.91-.41,1.46-.41,.43,0,.76,.07,1.01,.21,.25,.14,.44,.3,.57,.48s.24,.32,.31,.44h.09v-3.22h1v8.73h-.97v-1.01h-.12c-.07,.12-.18,.27-.32,.45-.14,.18-.33,.34-.58,.48s-.59,.21-1.01,.21Zm.14-.9c.4,0,.74-.11,1.02-.32,.28-.21,.49-.5,.64-.88,.14-.38,.22-.81,.22-1.31s-.07-.92-.21-1.29c-.14-.37-.35-.65-.63-.86s-.62-.31-1.03-.31-.78,.11-1.06,.33c-.28,.22-.49,.51-.63,.88-.14,.37-.21,.79-.21,1.25s.07,.89,.22,1.27c.14,.38,.36,.68,.64,.9,.28,.22,.63,.33,1.05,.33Z"/><path class="e" d="M435.77,158.45c-.59,0-1.11-.14-1.55-.42s-.79-.67-1.04-1.18c-.25-.51-.37-1.1-.37-1.77s.12-1.28,.37-1.79c.25-.51,.6-.9,1.04-1.18s.96-.42,1.55-.42,1.11,.14,1.55,.42,.79,.68,1.04,1.18c.25,.51,.37,1.1,.37,1.79s-.12,1.27-.37,1.77c-.25,.51-.6,.9-1.04,1.18s-.96,.42-1.55,.42Zm0-.9c.45,0,.82-.12,1.11-.35s.5-.53,.64-.91c.14-.38,.21-.78,.21-1.22s-.07-.85-.21-1.22c-.14-.38-.35-.68-.64-.92-.29-.23-.66-.35-1.11-.35s-.82,.12-1.11,.35c-.29,.23-.5,.54-.64,.92-.14,.38-.21,.79-.21,1.22s.07,.84,.21,1.22c.14,.38,.35,.68,.64,.91s.66,.35,1.11,.35Z"/><path class="e" d="M443.65,158.31v-6.55h.97v.99h.07c.12-.32,.33-.59,.65-.79,.31-.2,.66-.3,1.06-.3,.07,0,.17,0,.28,0,.11,0,.2,0,.25,.01v1.02s-.11-.02-.23-.04-.25-.03-.38-.03c-.32,0-.6,.07-.85,.2-.25,.13-.44,.31-.59,.54s-.22,.5-.22,.79v4.14h-1Z"/><path class="e" d="M450.57,158.45c-.59,0-1.11-.14-1.55-.42s-.79-.67-1.04-1.18c-.25-.51-.37-1.1-.37-1.77s.12-1.28,.37-1.79c.25-.51,.6-.9,1.04-1.18s.96-.42,1.55-.42,1.11,.14,1.55,.42,.79,.68,1.04,1.18c.25,.51,.37,1.1,.37,1.79s-.12,1.27-.37,1.77c-.25,.51-.6,.9-1.04,1.18s-.96,.42-1.55,.42Zm0-.9c.45,0,.82-.12,1.11-.35s.5-.53,.64-.91c.14-.38,.21-.78,.21-1.22s-.07-.85-.21-1.22c-.14-.38-.35-.68-.64-.92-.29-.23-.66-.35-1.11-.35s-.82,.12-1.11,.35c-.29,.23-.5,.54-.64,.92-.14,.38-.21,.79-.21,1.22s.07,.84,.21,1.22c.14,.38,.35,.68,.64,.91s.66,.35,1.11,.35Z"/><path class="e" d="M455.07,158.31v-8.73h1v8.73h-1Zm.94-2.39l-.02-1.24h.21l2.86-2.92h1.24l-3.05,3.09h-.09l-1.16,1.07Zm3.22,2.39l-2.56-3.24,.72-.7,3.12,3.94h-1.28Z"/><path class="e" d="M465.72,155.64v-3.87h1v6.55h-1v-1.11h-.07c-.15,.33-.39,.62-.72,.85-.32,.23-.73,.35-1.23,.35-.41,0-.77-.09-1.09-.27s-.57-.45-.75-.82c-.18-.36-.27-.83-.27-1.38v-4.16h1v4.09c0,.48,.13,.86,.4,1.14s.61,.43,1.03,.43c.25,0,.5-.06,.76-.19s.48-.32,.66-.59c.18-.26,.27-.6,.27-1.01Z"/><path class="e" d="M471.93,158.31v-.77l2.88-3.15c.34-.37,.62-.69,.83-.96s.38-.53,.49-.78,.16-.5,.16-.76c0-.31-.07-.57-.22-.8-.15-.22-.35-.4-.6-.52s-.54-.18-.85-.18c-.33,0-.63,.07-.88,.21-.25,.14-.44,.33-.58,.58-.13,.25-.2,.54-.2,.87h-1.01c0-.51,.12-.96,.35-1.35,.24-.39,.56-.69,.97-.9,.41-.22,.87-.32,1.37-.32s.96,.11,1.36,.32c.39,.22,.7,.51,.93,.87,.22,.37,.34,.77,.34,1.22,0,.32-.06,.63-.17,.94s-.31,.64-.6,1.02c-.28,.37-.67,.83-1.17,1.37l-1.96,2.1v.07h4.06v.94h-5.51Z"/><path class="e" d="M482.03,158.43c-.64,0-1.19-.17-1.64-.53-.45-.35-.8-.86-1.04-1.53-.24-.67-.36-1.48-.36-2.43s.12-1.75,.36-2.42,.59-1.18,1.04-1.53c.45-.35,1-.53,1.63-.53s1.18,.18,1.63,.53c.45,.35,.8,.87,1.04,1.53s.36,1.48,.36,2.42-.12,1.76-.36,2.43c-.24,.67-.58,1.18-1.04,1.53-.45,.35-1,.53-1.64,.53Zm0-.94c.64,0,1.13-.31,1.48-.92,.35-.61,.53-1.49,.53-2.62,0-.76-.08-1.4-.24-1.93s-.39-.94-.69-1.21-.66-.42-1.08-.42c-.63,0-1.12,.31-1.48,.93-.36,.62-.53,1.5-.53,2.63,0,.76,.08,1.4,.24,1.93s.39,.93,.69,1.21,.66,.41,1.08,.41Z"/><path class="e" d="M489.64,158.43c-.56,0-1.06-.1-1.5-.29-.44-.19-.79-.46-1.04-.81-.26-.35-.4-.75-.42-1.2h1.07c.02,.28,.12,.52,.29,.73s.39,.36,.67,.47,.58,.17,.92,.17c.38,0,.71-.07,1-.2,.29-.13,.52-.31,.68-.54,.16-.23,.25-.5,.25-.81s-.08-.6-.24-.85c-.16-.25-.39-.44-.7-.58-.31-.14-.68-.21-1.12-.21h-.7v-.94h.7c.35,0,.65-.06,.91-.19s.47-.3,.62-.53c.15-.23,.22-.49,.22-.8s-.07-.55-.2-.77c-.13-.22-.32-.39-.55-.51-.24-.12-.52-.18-.84-.18-.3,0-.58,.05-.85,.16s-.48,.27-.65,.47-.26,.45-.27,.74h-1.02c.02-.46,.15-.86,.41-1.2,.26-.35,.6-.61,1.02-.81,.42-.19,.88-.29,1.38-.29,.54,0,1,.11,1.39,.33,.39,.22,.68,.5,.89,.86,.21,.36,.31,.74,.31,1.15,0,.49-.13,.91-.39,1.26-.26,.35-.61,.59-1.05,.72v.07c.55,.09,.98,.32,1.29,.7,.31,.38,.46,.84,.46,1.4,0,.47-.13,.9-.39,1.28-.26,.38-.61,.67-1.05,.89s-.95,.32-1.51,.32Z"/><path class="e" d="M497.17,158.43c-.64,0-1.19-.17-1.64-.53-.45-.35-.8-.86-1.04-1.53-.24-.67-.36-1.48-.36-2.43s.12-1.75,.36-2.42,.59-1.18,1.04-1.53c.45-.35,1-.53,1.63-.53s1.18,.18,1.63,.53c.45,.35,.8,.87,1.04,1.53s.36,1.48,.36,2.42-.12,1.76-.36,2.43c-.24,.67-.58,1.18-1.04,1.53-.45,.35-1,.53-1.64,.53Zm0-.94c.64,0,1.13-.31,1.48-.92,.35-.61,.53-1.49,.53-2.62,0-.76-.08-1.4-.24-1.93s-.39-.94-.69-1.21-.66-.42-1.08-.42c-.63,0-1.12,.31-1.48,.93-.36,.62-.53,1.5-.53,2.63,0,.76,.08,1.4,.24,1.93s.39,.93,.69,1.21,.66,.41,1.08,.41Z"/><path class="e" d="M420.01,170.45c-.59,0-1.11-.14-1.55-.42s-.79-.67-1.04-1.18c-.25-.51-.37-1.1-.37-1.77s.12-1.28,.37-1.79c.25-.51,.6-.9,1.04-1.18s.96-.42,1.55-.42,1.11,.14,1.55,.42,.79,.68,1.04,1.18c.25,.51,.37,1.1,.37,1.79s-.12,1.27-.37,1.77c-.25,.51-.6,.9-1.04,1.18s-.96,.42-1.55,.42Zm0-.9c.45,0,.82-.12,1.11-.35s.5-.53,.64-.91c.14-.38,.21-.78,.21-1.22s-.07-.85-.21-1.22c-.14-.38-.35-.68-.64-.92-.29-.23-.66-.35-1.11-.35s-.82,.12-1.11,.35c-.29,.23-.5,.54-.64,.92-.14,.38-.21,.79-.21,1.22s.07,.84,.21,1.22c.14,.38,.35,.68,.64,.91s.66,.35,1.11,.35Z"/><path class="e" d="M424.51,172.77v-9h.97v1.04h.12c.07-.11,.18-.26,.31-.44s.32-.34,.57-.48c.25-.14,.59-.21,1.01-.21,.55,0,1.04,.14,1.46,.41,.42,.28,.75,.67,.98,1.17,.24,.51,.35,1.1,.35,1.79s-.12,1.29-.35,1.8c-.24,.51-.56,.9-.98,1.18-.42,.28-.9,.42-1.44,.42-.42,0-.76-.07-1.01-.21s-.45-.3-.58-.48c-.14-.18-.24-.33-.32-.45h-.09v3.46h-1Zm.99-5.73c0,.49,.07,.93,.22,1.31,.15,.38,.36,.67,.64,.88,.28,.21,.62,.32,1.02,.32s.77-.11,1.05-.33c.28-.22,.5-.52,.64-.9,.14-.38,.22-.8,.22-1.27s-.07-.88-.21-1.25c-.14-.37-.35-.66-.63-.88-.28-.22-.64-.33-1.06-.33s-.75,.1-1.03,.31-.49,.49-.63,.86c-.14,.37-.21,.8-.21,1.29Z"/><path class="e" d="M431.82,170.31v-6.55h.97v.99h.07c.12-.32,.33-.59,.65-.79,.31-.2,.66-.3,1.06-.3,.07,0,.17,0,.28,0,.11,0,.2,0,.25,.01v1.02s-.11-.02-.23-.04-.25-.03-.38-.03c-.32,0-.6,.07-.85,.2-.25,.13-.44,.31-.59,.54s-.22,.5-.22,.79v4.14h-1Z"/><path class="e" d="M438.74,170.45c-.59,0-1.11-.14-1.55-.42s-.79-.67-1.04-1.18c-.25-.51-.37-1.1-.37-1.77s.12-1.28,.37-1.79c.25-.51,.6-.9,1.04-1.18s.96-.42,1.55-.42,1.11,.14,1.55,.42,.79,.68,1.04,1.18c.25,.51,.37,1.1,.37,1.79s-.12,1.27-.37,1.77c-.25,.51-.6,.9-1.04,1.18s-.96,.42-1.55,.42Zm0-.9c.45,0,.82-.12,1.11-.35s.5-.53,.64-.91c.14-.38,.21-.78,.21-1.22s-.07-.85-.21-1.22c-.14-.38-.35-.68-.64-.92-.29-.23-.66-.35-1.11-.35s-.82,.12-1.11,.35c-.29,.23-.5,.54-.64,.92-.14,.38-.21,.79-.21,1.22s.07,.84,.21,1.22c.14,.38,.35,.68,.64,.91s.66,.35,1.11,.35Z"/><path class="e" d="M446.08,163.77v.85h-3.39v-.85h3.39Zm-2.4-1.57h1.01v6.24c0,.28,.04,.5,.13,.64s.19,.23,.32,.28c.13,.05,.27,.07,.42,.07,.11,0,.2,0,.27-.02,.07-.01,.13-.02,.17-.03l.21,.9c-.07,.03-.16,.05-.29,.08-.12,.03-.28,.04-.46,.04-.28,0-.56-.06-.83-.18-.27-.12-.5-.31-.67-.56s-.27-.57-.27-.95v-6.51Z"/><path class="e" d="M448.11,162.68c-.2,0-.36-.07-.5-.2-.14-.13-.21-.29-.21-.48s.07-.35,.21-.48,.31-.2,.5-.2,.36,.07,.5,.2,.21,.29,.21,.48-.07,.35-.21,.48c-.14,.13-.31,.2-.5,.2Zm-.51,7.64v-6.55h1v6.55h-1Z"/><path class="e" d="M453.82,170.31v-6.55h.97v.99h.07c.12-.32,.33-.59,.65-.79,.31-.2,.66-.3,1.06-.3,.07,0,.17,0,.28,0,.11,0,.2,0,.25,.01v1.02s-.11-.02-.23-.04-.25-.03-.38-.03c-.32,0-.6,.07-.85,.2-.25,.13-.44,.31-.59,.54s-.22,.5-.22,.79v4.14h-1Z"/><path class="e" d="M460.74,170.45c-.59,0-1.11-.14-1.55-.42s-.79-.67-1.04-1.18c-.25-.51-.37-1.1-.37-1.77s.12-1.28,.37-1.79c.25-.51,.6-.9,1.04-1.18s.96-.42,1.55-.42,1.11,.14,1.55,.42,.79,.68,1.04,1.18c.25,.51,.37,1.1,.37,1.79s-.12,1.27-.37,1.77c-.25,.51-.6,.9-1.04,1.18s-.96,.42-1.55,.42Zm0-.9c.45,0,.82-.12,1.11-.35s.5-.53,.64-.91c.14-.38,.21-.78,.21-1.22s-.07-.85-.21-1.22c-.14-.38-.35-.68-.64-.92-.29-.23-.66-.35-1.11-.35s-.82,.12-1.11,.35c-.29,.23-.5,.54-.64,.92-.14,.38-.21,.79-.21,1.22s.07,.84,.21,1.22c.14,.38,.35,.68,.64,.91s.66,.35,1.11,.35Z"/><path class="e" d="M465.24,170.31v-8.73h1v8.73h-1Zm.94-2.39l-.02-1.24h.21l2.86-2.92h1.24l-3.05,3.09h-.09l-1.16,1.07Zm3.22,2.39l-2.56-3.24,.72-.7,3.12,3.94h-1.28Z"/><path class="e" d="M475.9,167.64v-3.87h1v6.55h-1v-1.11h-.07c-.15,.33-.39,.62-.72,.85-.32,.23-.73,.35-1.23,.35-.41,0-.77-.09-1.09-.27s-.57-.45-.75-.82c-.18-.36-.27-.83-.27-1.38v-4.16h1v4.09c0,.48,.13,.86,.4,1.14s.61,.43,1.03,.43c.25,0,.5-.06,.76-.19s.48-.32,.66-.59c.18-.26,.27-.6,.27-1.01Z"/><path class="e" d="M485.17,161.59v8.73h-1.06v-7.62h-.05l-2.13,1.42v-1.07l2.18-1.45h1.06Z"/><path class="e" d="M490.45,161.47c.36,0,.72,.07,1.07,.21,.36,.13,.68,.35,.98,.66,.3,.31,.53,.73,.71,1.26s.27,1.2,.27,2-.07,1.46-.22,2.06c-.15,.6-.36,1.11-.63,1.52-.27,.41-.61,.72-1,.94s-.83,.32-1.32,.32-.92-.1-1.31-.29-.69-.47-.94-.81-.4-.75-.47-1.21h1.04c.09,.4,.28,.73,.56,.99,.28,.26,.65,.39,1.11,.39,.67,0,1.21-.29,1.6-.88s.59-1.42,.59-2.49h-.07c-.16,.24-.35,.45-.57,.62-.22,.17-.46,.31-.73,.4-.27,.09-.55,.14-.85,.14-.5,0-.96-.12-1.38-.37-.42-.25-.75-.59-1-1.03-.25-.44-.37-.94-.37-1.5s.12-1.02,.36-1.47c.24-.45,.58-.8,1.01-1.06,.44-.26,.95-.39,1.54-.38Zm0,.94c-.36,0-.68,.09-.96,.27-.29,.18-.51,.42-.68,.72s-.25,.63-.25,1,.08,.69,.24,.99c.16,.3,.38,.53,.66,.71,.28,.17,.6,.26,.96,.26,.27,0,.52-.05,.75-.16,.23-.11,.44-.25,.61-.44,.17-.19,.31-.4,.41-.63s.15-.49,.15-.74c0-.34-.08-.66-.25-.96-.16-.3-.39-.54-.67-.72-.29-.18-.61-.28-.97-.28Z"/><path class="e" d="M497.94,161.47c.36,0,.72,.07,1.07,.21,.36,.13,.68,.35,.98,.66,.3,.31,.53,.73,.71,1.26s.27,1.2,.27,2-.07,1.46-.22,2.06c-.15,.6-.36,1.11-.63,1.52-.27,.41-.61,.72-1,.94s-.83,.32-1.32,.32-.92-.1-1.31-.29-.69-.47-.94-.81-.4-.75-.47-1.21h1.04c.09,.4,.28,.73,.56,.99,.28,.26,.65,.39,1.11,.39,.67,0,1.21-.29,1.6-.88s.59-1.42,.59-2.49h-.07c-.16,.24-.35,.45-.57,.62-.22,.17-.46,.31-.73,.4-.27,.09-.55,.14-.85,.14-.5,0-.96-.12-1.38-.37-.42-.25-.75-.59-1-1.03-.25-.44-.37-.94-.37-1.5s.12-1.02,.36-1.47c.24-.45,.58-.8,1.01-1.06,.44-.26,.95-.39,1.54-.38Zm0,.94c-.36,0-.68,.09-.96,.27-.29,.18-.51,.42-.68,.72s-.25,.63-.25,1,.08,.69,.24,.99c.16,.3,.38,.53,.66,.71,.28,.17,.6,.26,.96,.26,.27,0,.52-.05,.75-.16,.23-.11,.44-.25,.61-.44,.17-.19,.31-.4,.41-.63s.15-.49,.15-.74c0-.34-.08-.66-.25-.96-.16-.3-.39-.54-.67-.72-.29-.18-.61-.28-.97-.28Z"/><path class="e" d="M505.49,170.43c-.64,0-1.19-.17-1.64-.53-.45-.35-.8-.86-1.04-1.53-.24-.67-.36-1.48-.36-2.43s.12-1.75,.36-2.42,.59-1.18,1.04-1.53c.45-.35,1-.53,1.63-.53s1.18,.18,1.63,.53c.45,.35,.8,.87,1.04,1.53s.36,1.48,.36,2.42-.12,1.76-.36,2.43c-.24,.67-.58,1.18-1.04,1.53-.45,.35-1,.53-1.64,.53Zm0-.94c.64,0,1.13-.31,1.48-.92,.35-.61,.53-1.49,.53-2.62,0-.76-.08-1.4-.24-1.93s-.39-.94-.69-1.21-.66-.42-1.08-.42c-.63,0-1.12,.31-1.48,.93-.36,.62-.53,1.5-.53,2.63,0,.76,.08,1.4,.24,1.93s.39,.93,.69,1.21,.66,.41,1.08,.41Z"/></g></g><g><rect class="g" x="587.34" y="233.87" width="146.93" height="16.37"/><g><path class="c" d="M591.11,247.31v-10.18h2.15v4.49h.13l3.66-4.49h2.58l-3.78,4.56,3.82,5.62h-2.58l-2.79-4.19-1.06,1.29v2.89h-2.15Z"/><path class="c" d="M602.84,237.13v10.18h-2.12v-10.18h2.12Z"/><path class="c" d="M605.59,238.69c-.32,0-.58-.1-.81-.32-.22-.21-.34-.46-.34-.76s.11-.54,.34-.75c.22-.21,.49-.32,.81-.32s.58,.11,.81,.32c.22,.21,.34,.46,.34,.75s-.11,.55-.34,.76c-.22,.21-.49,.32-.81,.32Zm-1.06,8.62v-7.64h2.12v7.64h-2.12Z"/><path class="c" d="M608.34,247.31v-7.64h2.02v1.35h.09c.16-.45,.42-.8,.8-1.06,.37-.26,.81-.39,1.33-.39s.97,.13,1.34,.39c.37,.26,.61,.61,.74,1.06h.08c.16-.44,.44-.79,.85-1.05s.89-.39,1.45-.39c.71,0,1.29,.23,1.74,.68,.45,.45,.67,1.09,.67,1.92v5.14h-2.11v-4.72c0-.42-.11-.74-.34-.96-.23-.21-.51-.32-.85-.32-.38,0-.68,.12-.9,.37-.22,.24-.32,.56-.32,.96v4.66h-2.05v-4.76c0-.38-.11-.67-.32-.89-.21-.22-.5-.33-.84-.33-.24,0-.45,.06-.63,.18-.19,.12-.34,.28-.45,.49-.11,.21-.16,.46-.16,.74v4.58h-2.12Z"/><path class="c" d="M623.28,247.45c-.49,0-.92-.09-1.3-.26-.38-.17-.68-.42-.9-.76-.22-.34-.33-.76-.33-1.26,0-.42,.08-.78,.23-1.07,.16-.29,.37-.52,.64-.7s.57-.31,.92-.4c.34-.09,.7-.15,1.08-.19,.44-.05,.8-.09,1.07-.13,.27-.04,.47-.1,.59-.19,.12-.08,.18-.21,.18-.37v-.03c0-.31-.1-.56-.3-.73-.2-.17-.48-.26-.84-.26-.38,0-.68,.08-.91,.25s-.38,.38-.45,.63l-1.96-.16c.1-.46,.29-.87,.59-1.21,.29-.34,.67-.6,1.13-.79,.46-.18,1-.28,1.61-.28,.42,0,.83,.05,1.22,.15,.39,.1,.74,.25,1.04,.46,.3,.21,.54,.48,.72,.8s.26,.72,.26,1.17v5.15h-2.01v-1.06h-.06c-.12,.24-.29,.45-.49,.63s-.45,.32-.74,.42c-.29,.1-.62,.15-1,.15Zm.61-1.46c.31,0,.59-.06,.83-.19,.24-.12,.43-.29,.56-.5,.14-.21,.2-.45,.2-.72v-.81c-.07,.04-.16,.08-.27,.12s-.24,.07-.39,.09-.28,.05-.43,.07-.27,.04-.39,.06c-.25,.04-.47,.09-.65,.17-.19,.08-.33,.19-.43,.32-.1,.13-.15,.3-.15,.5,0,.29,.11,.51,.32,.66,.21,.15,.48,.23,.8,.23Z"/><path class="c" d="M633.29,239.67v1.59h-4.6v-1.59h4.6Zm-3.55-1.83h2.12v7.12c0,.2,.03,.35,.09,.46s.14,.18,.25,.23c.11,.04,.23,.06,.38,.06,.1,0,.2,0,.3-.03,.1-.02,.18-.03,.23-.04l.33,1.58c-.11,.03-.25,.07-.45,.12s-.43,.07-.7,.08c-.51,.02-.96-.05-1.34-.2-.38-.16-.68-.4-.89-.73-.21-.33-.32-.74-.31-1.24v-7.4Z"/><path class="c" d="M635.73,238.69c-.32,0-.58-.1-.81-.32-.22-.21-.34-.46-.34-.76s.11-.54,.34-.75c.22-.21,.49-.32,.81-.32s.58,.11,.81,.32c.22,.21,.34,.46,.34,.75s-.11,.55-.34,.76c-.22,.21-.49,.32-.81,.32Zm-1.06,8.62v-7.64h2.12v7.64h-2.12Z"/><path class="c" d="M641.93,247.46c-.78,0-1.46-.17-2.02-.5s-.99-.8-1.29-1.39c-.3-.59-.45-1.28-.45-2.05s.15-1.47,.46-2.06c.3-.59,.73-1.05,1.29-1.39,.56-.33,1.23-.5,2-.5,.67,0,1.25,.12,1.75,.36,.5,.24,.9,.58,1.19,1.02s.45,.95,.48,1.54h-2c-.06-.38-.2-.69-.44-.92-.24-.23-.55-.35-.94-.35-.33,0-.61,.09-.86,.27-.24,.18-.43,.44-.57,.77s-.2,.75-.2,1.23,.07,.9,.2,1.24c.13,.34,.32,.6,.57,.78s.53,.27,.86,.27c.24,0,.46-.05,.65-.15,.19-.1,.36-.24,.48-.43,.13-.19,.21-.42,.25-.69h2c-.03,.58-.19,1.1-.47,1.54-.28,.44-.67,.79-1.17,1.04-.5,.25-1.09,.37-1.76,.37Z"/><path class="c" d="M646.7,247.31v-10.18h2.12v10.18h-2.12Zm1.92-2.2v-2.54h.31l2.45-2.9h2.43l-3.29,3.84h-.5l-1.4,1.6Zm2.85,2.2l-2.25-3.33,1.41-1.5,3.32,4.82h-2.48Z"/><path class="c" d="M657.02,247.45c-.49,0-.92-.09-1.3-.26-.38-.17-.68-.42-.9-.76-.22-.34-.33-.76-.33-1.26,0-.42,.08-.78,.23-1.07,.16-.29,.37-.52,.64-.7s.57-.31,.92-.4c.34-.09,.7-.15,1.08-.19,.44-.05,.8-.09,1.07-.13,.27-.04,.47-.1,.59-.19,.12-.08,.18-.21,.18-.37v-.03c0-.31-.1-.56-.3-.73-.2-.17-.48-.26-.84-.26-.38,0-.68,.08-.91,.25s-.38,.38-.45,.63l-1.96-.16c.1-.46,.29-.87,.59-1.21,.29-.34,.67-.6,1.13-.79,.46-.18,1-.28,1.61-.28,.42,0,.83,.05,1.22,.15,.39,.1,.74,.25,1.04,.46,.3,.21,.54,.48,.72,.8s.26,.72,.26,1.17v5.15h-2.01v-1.06h-.06c-.12,.24-.29,.45-.49,.63s-.45,.32-.74,.42c-.29,.1-.62,.15-1,.15Zm.61-1.46c.31,0,.59-.06,.83-.19,.24-.12,.43-.29,.56-.5,.14-.21,.2-.45,.2-.72v-.81c-.07,.04-.16,.08-.27,.12s-.24,.07-.39,.09-.28,.05-.43,.07-.27,.04-.39,.06c-.25,.04-.47,.09-.65,.17-.19,.08-.33,.19-.43,.32-.1,.13-.15,.3-.15,.5,0,.29,.11,.51,.32,.66,.21,.15,.48,.23,.8,.23Zm-.23-7.3l1.05-2.26h1.96l-1.52,2.26h-1.5Z"/><path class="c" d="M668.33,242.89v4.42h-2.12v-7.64h2.02v1.35h.09c.17-.44,.45-.8,.85-1.06,.4-.26,.88-.39,1.45-.39,.53,0,.99,.12,1.39,.35s.7,.56,.92,.99c.22,.43,.33,.94,.33,1.53v4.86h-2.12v-4.48c0-.47-.12-.83-.36-1.1-.24-.26-.58-.39-1-.39-.29,0-.54,.06-.75,.18-.22,.12-.39,.3-.51,.53-.12,.23-.18,.51-.19,.84Z"/><path class="c" d="M678.4,247.46c-.79,0-1.46-.16-2.03-.48-.57-.32-1-.77-1.31-1.36-.3-.59-.46-1.29-.46-2.09s.15-1.47,.46-2.07c.3-.59,.74-1.06,1.29-1.39,.56-.33,1.21-.5,1.96-.5,.5,0,.97,.08,1.41,.24,.44,.16,.82,.4,1.14,.72,.33,.32,.58,.73,.76,1.21s.27,1.05,.27,1.7v.58h-6.45v-1.31h4.46c0-.3-.07-.58-.2-.81s-.32-.42-.55-.55c-.23-.13-.5-.2-.81-.2s-.61,.07-.85,.22-.44,.34-.58,.59-.21,.52-.21,.82v1.25c0,.38,.07,.7,.21,.98,.14,.28,.34,.49,.6,.64,.26,.15,.57,.22,.92,.22,.24,0,.45-.03,.65-.1,.2-.07,.36-.17,.5-.3,.14-.13,.25-.29,.32-.49l1.96,.13c-.1,.47-.3,.88-.61,1.23s-.7,.62-1.18,.82c-.48,.19-1.04,.29-1.67,.29Z"/><path class="c" d="M688.18,244.06v-4.39h2.12v7.64h-2.03v-1.39h-.08c-.17,.45-.46,.81-.86,1.08-.4,.27-.89,.41-1.46,.41-.51,0-.96-.12-1.35-.35-.39-.23-.69-.56-.91-.99-.22-.43-.33-.94-.33-1.54v-4.86h2.12v4.48c0,.45,.12,.81,.36,1.07,.24,.26,.56,.39,.96,.39,.26,0,.49-.06,.72-.18,.22-.12,.4-.29,.54-.52,.14-.23,.2-.52,.2-.86Z"/><path class="c" d="M696.05,239.67v1.59h-4.6v-1.59h4.6Zm-3.55-1.83h2.12v7.12c0,.2,.03,.35,.09,.46s.14,.18,.25,.23c.11,.04,.23,.06,.38,.06,.1,0,.2,0,.3-.03,.1-.02,.18-.03,.23-.04l.33,1.58c-.11,.03-.25,.07-.45,.12s-.43,.07-.7,.08c-.51,.02-.96-.05-1.34-.2-.38-.16-.68-.4-.89-.73-.21-.33-.32-.74-.31-1.24v-7.4Z"/><path class="c" d="M697.43,247.31v-7.64h2.05v1.33h.08c.14-.47,.37-.83,.7-1.08,.33-.24,.71-.37,1.13-.37,.11,0,.22,0,.34,.02,.12,.01,.23,.03,.32,.05v1.88c-.1-.03-.24-.06-.41-.08-.18-.02-.34-.04-.48-.04-.31,0-.59,.07-.83,.2-.24,.13-.44,.32-.58,.56-.14,.24-.21,.51-.21,.83v4.32h-2.12Z"/><path class="c" d="M705.11,247.45c-.49,0-.92-.09-1.3-.26-.38-.17-.68-.42-.9-.76-.22-.34-.33-.76-.33-1.26,0-.42,.08-.78,.23-1.07,.16-.29,.37-.52,.64-.7s.57-.31,.92-.4c.34-.09,.7-.15,1.08-.19,.44-.05,.8-.09,1.07-.13,.27-.04,.47-.1,.59-.19,.12-.08,.18-.21,.18-.37v-.03c0-.31-.1-.56-.3-.73-.2-.17-.48-.26-.84-.26-.38,0-.68,.08-.91,.25s-.38,.38-.45,.63l-1.96-.16c.1-.46,.29-.87,.59-1.21,.29-.34,.67-.6,1.13-.79,.46-.18,1-.28,1.61-.28,.42,0,.83,.05,1.22,.15,.39,.1,.74,.25,1.04,.46,.3,.21,.54,.48,.72,.8s.26,.72,.26,1.17v5.15h-2.01v-1.06h-.06c-.12,.24-.29,.45-.49,.63s-.45,.32-.74,.42c-.29,.1-.62,.15-1,.15Zm.61-1.46c.31,0,.59-.06,.83-.19,.24-.12,.43-.29,.56-.5,.14-.21,.2-.45,.2-.72v-.81c-.07,.04-.16,.08-.27,.12s-.24,.07-.39,.09-.28,.05-.43,.07-.27,.04-.39,.06c-.25,.04-.47,.09-.65,.17-.19,.08-.33,.19-.43,.32-.1,.13-.15,.3-.15,.5,0,.29,.11,.51,.32,.66,.21,.15,.48,.23,.8,.23Z"/><path class="c" d="M713.18,237.13v10.18h-2.12v-10.18h2.12Z"/><path class="c" d="M715.93,238.69c-.32,0-.58-.1-.81-.32-.22-.21-.34-.46-.34-.76s.11-.54,.34-.75c.22-.21,.49-.32,.81-.32s.58,.11,.81,.32c.22,.21,.34,.46,.34,.75s-.11,.55-.34,.76c-.22,.21-.49,.32-.81,.32Zm-1.06,8.62v-7.64h2.12v7.64h-2.12Z"/><path class="c" d="M722.74,239.67v1.59h-4.6v-1.59h4.6Zm-3.55-1.83h2.12v7.12c0,.2,.03,.35,.09,.46s.14,.18,.25,.23c.11,.04,.23,.06,.38,.06,.1,0,.2,0,.3-.03,.1-.02,.18-.03,.23-.04l.33,1.58c-.11,.03-.25,.07-.45,.12s-.43,.07-.7,.08c-.51,.02-.96-.05-1.34-.2-.38-.16-.68-.4-.89-.73-.21-.33-.32-.74-.31-1.24v-7.4Z"/><path class="c" d="M726.29,247.45c-.49,0-.92-.09-1.3-.26-.38-.17-.68-.42-.9-.76-.22-.34-.33-.76-.33-1.26,0-.42,.08-.78,.23-1.07,.16-.29,.37-.52,.64-.7s.57-.31,.92-.4c.34-.09,.7-.15,1.08-.19,.44-.05,.8-.09,1.07-.13,.27-.04,.47-.1,.59-.19,.12-.08,.18-.21,.18-.37v-.03c0-.31-.1-.56-.3-.73-.2-.17-.48-.26-.84-.26-.38,0-.68,.08-.91,.25s-.38,.38-.45,.63l-1.96-.16c.1-.46,.29-.87,.59-1.21,.29-.34,.67-.6,1.13-.79,.46-.18,1-.28,1.61-.28,.42,0,.83,.05,1.22,.15,.39,.1,.74,.25,1.04,.46,.3,.21,.54,.48,.72,.8s.26,.72,.26,1.17v5.15h-2.01v-1.06h-.06c-.12,.24-.29,.45-.49,.63s-.45,.32-.74,.42c-.29,.1-.62,.15-1,.15Zm.61-1.46c.31,0,.59-.06,.83-.19,.24-.12,.43-.29,.56-.5,.14-.21,.2-.45,.2-.72v-.81c-.07,.04-.16,.08-.27,.12s-.24,.07-.39,.09-.28,.05-.43,.07-.27,.04-.39,.06c-.25,.04-.47,.09-.65,.17-.19,.08-.33,.19-.43,.32-.1,.13-.15,.3-.15,.5,0,.29,.11,.51,.32,.66,.21,.15,.48,.23,.8,.23Z"/><path class="e" d="M633.03,256.76l-2.42,6.55h-1.02l-2.42-6.55h1.09l1.81,5.22h.07l1.81-5.22h1.09Z"/><path class="e" d="M637.74,263.31v-6.55h.97v.99h.07c.12-.32,.33-.59,.65-.79,.31-.2,.66-.3,1.06-.3,.07,0,.17,0,.28,0,.11,0,.2,0,.25,.01v1.02s-.11-.02-.23-.04-.25-.03-.38-.03c-.32,0-.6,.07-.85,.2-.25,.13-.44,.31-.59,.54s-.22,.5-.22,.79v4.14h-1Z"/><path class="e" d="M644.66,263.45c-.59,0-1.11-.14-1.55-.42s-.79-.67-1.04-1.18c-.25-.51-.37-1.1-.37-1.77s.12-1.28,.37-1.79c.25-.51,.6-.9,1.04-1.18s.96-.42,1.55-.42,1.11,.14,1.55,.42,.79,.68,1.04,1.18c.25,.51,.37,1.1,.37,1.79s-.12,1.27-.37,1.77c-.25,.51-.6,.9-1.04,1.18s-.96,.42-1.55,.42Zm0-.9c.45,0,.82-.12,1.11-.35s.5-.53,.64-.91c.14-.38,.21-.78,.21-1.22s-.07-.85-.21-1.22c-.14-.38-.35-.68-.64-.92-.29-.23-.66-.35-1.11-.35s-.82,.12-1.11,.35c-.29,.23-.5,.54-.64,.92-.14,.38-.21,.79-.21,1.22s.07,.84,.21,1.22c.14,.38,.35,.68,.64,.91s.66,.35,1.11,.35Z"/><path class="e" d="M651.81,263.45c-.61,0-1.14-.15-1.58-.43-.44-.29-.78-.69-1.02-1.2-.24-.51-.36-1.09-.36-1.74s.12-1.25,.37-1.76c.25-.51,.59-.91,1.03-1.2,.44-.29,.96-.43,1.55-.43,.46,0,.88,.08,1.24,.26s.67,.41,.91,.72c.24,.31,.38,.67,.44,1.07h-1.01c-.08-.3-.25-.56-.51-.79s-.62-.35-1.06-.35c-.39,0-.73,.1-1.03,.3s-.52,.49-.69,.86c-.16,.37-.25,.8-.25,1.29s.08,.95,.24,1.32c.16,.38,.39,.67,.68,.87s.64,.31,1.04,.31c.26,0,.5-.05,.71-.14s.39-.22,.54-.39c.15-.17,.25-.38,.32-.61h1.01c-.06,.39-.2,.73-.42,1.04-.22,.31-.52,.55-.88,.73-.37,.18-.79,.27-1.27,.27Z"/><path class="e" d="M658.6,263.45c-.63,0-1.17-.14-1.63-.42-.46-.28-.81-.67-1.05-1.18-.25-.5-.37-1.09-.37-1.76s.12-1.26,.37-1.77c.25-.51,.59-.91,1.03-1.2,.44-.29,.96-.43,1.55-.43,.34,0,.68,.06,1.01,.17,.33,.11,.63,.3,.91,.55,.27,.25,.49,.59,.65,1.01,.16,.42,.24,.93,.24,1.54v.43h-5.05v-.87h4.02c0-.37-.07-.7-.22-.99-.15-.29-.35-.52-.62-.69-.27-.17-.58-.25-.95-.25-.4,0-.75,.1-1.04,.3-.29,.2-.51,.45-.67,.77s-.23,.65-.23,1.01v.58c0,.49,.09,.91,.26,1.25,.17,.34,.41,.6,.72,.78,.31,.18,.66,.27,1.07,.27,.26,0,.5-.04,.72-.11s.4-.19,.56-.34c.16-.15,.28-.34,.36-.57l.97,.27c-.1,.33-.27,.62-.52,.87-.24,.25-.54,.44-.89,.58s-.75,.21-1.2,.21Z"/><path class="e" d="M666.2,263.31v-.77l2.88-3.15c.34-.37,.62-.69,.83-.96s.38-.53,.49-.78,.16-.5,.16-.76c0-.31-.07-.57-.22-.8-.15-.22-.35-.4-.6-.52s-.54-.18-.85-.18c-.33,0-.63,.07-.88,.21-.25,.14-.44,.33-.58,.58-.13,.25-.2,.54-.2,.87h-1.01c0-.51,.12-.96,.35-1.35,.24-.39,.56-.69,.97-.9,.41-.22,.87-.32,1.37-.32s.96,.11,1.36,.32c.39,.22,.7,.51,.93,.87,.22,.37,.34,.77,.34,1.22,0,.32-.06,.63-.17,.94s-.31,.64-.6,1.02c-.28,.37-.67,.83-1.17,1.37l-1.96,2.1v.07h4.06v.94h-5.51Z"/><path class="e" d="M676.31,263.43c-.64,0-1.19-.17-1.64-.53-.45-.35-.8-.86-1.04-1.53-.24-.67-.36-1.48-.36-2.43s.12-1.75,.36-2.42,.59-1.18,1.04-1.53c.45-.35,1-.53,1.63-.53s1.18,.18,1.63,.53c.45,.35,.8,.87,1.04,1.53s.36,1.48,.36,2.42-.12,1.76-.36,2.43c-.24,.67-.58,1.18-1.04,1.53-.45,.35-1,.53-1.64,.53Zm0-.94c.64,0,1.13-.31,1.48-.92,.35-.61,.53-1.49,.53-2.62,0-.76-.08-1.4-.24-1.93s-.39-.94-.69-1.21-.66-.42-1.08-.42c-.63,0-1.12,.31-1.48,.93-.36,.62-.53,1.5-.53,2.63,0,.76,.08,1.4,.24,1.93s.39,.93,.69,1.21,.66,.41,1.08,.41Z"/><path class="e" d="M683.69,263.43c-.5,0-.95-.1-1.35-.3-.4-.2-.72-.47-.96-.82-.24-.35-.37-.74-.4-1.18h1.02c.04,.39,.22,.72,.54,.98,.32,.26,.7,.39,1.15,.39,.36,0,.68-.08,.96-.25,.28-.17,.5-.4,.66-.69,.16-.29,.24-.63,.24-1s-.08-.72-.25-1.02-.39-.54-.68-.71c-.29-.17-.62-.26-.99-.26-.27,0-.54,.04-.82,.12-.28,.08-.51,.19-.69,.32l-.99-.12,.53-4.3h4.53v.94h-3.65l-.31,2.57h.05c.18-.14,.4-.26,.67-.35,.27-.09,.55-.14,.84-.14,.53,0,1.01,.13,1.43,.38,.42,.25,.75,.6,.99,1.04s.36,.94,.36,1.51-.12,1.05-.37,1.49c-.25,.44-.59,.78-1.03,1.03s-.93,.38-1.48,.38Z"/><path class="e" d="M691.1,263.43c-.64,0-1.19-.17-1.64-.53-.45-.35-.8-.86-1.04-1.53-.24-.67-.36-1.48-.36-2.43s.12-1.75,.36-2.42,.59-1.18,1.04-1.53c.45-.35,1-.53,1.63-.53s1.18,.18,1.63,.53c.45,.35,.8,.87,1.04,1.53s.36,1.48,.36,2.42-.12,1.76-.36,2.43c-.24,.67-.58,1.18-1.04,1.53-.45,.35-1,.53-1.64,.53Zm0-.94c.64,0,1.13-.31,1.48-.92,.35-.61,.53-1.49,.53-2.62,0-.76-.08-1.4-.24-1.93s-.39-.94-.69-1.21-.66-.42-1.08-.42c-.63,0-1.12,.31-1.48,.93-.36,.62-.53,1.5-.53,2.63,0,.76,.08,1.4,.24,1.93s.39,.93,.69,1.21,.66,.41,1.08,.41Z"/></g></g><line class="i" x1="60.4" y1="122.69" x2="299.78" y2="122.69"/><g><path d="M17.38,24.61v2.56h-7.05V13.88h6.86v2.56h-4.16v2.75h3.78v2.47h-3.78v2.94h4.35Z"/><path d="M32.56,13.88v13.3h-2.64v-3.27c.08-1.61,.13-3.23,.21-4.84l-.1-.04-1.2,3.5-.66,1.8h-2.66l-.66-1.8-1.2-3.5-.1,.04c.06,1.61,.13,3.23,.19,4.84v3.27h-2.62V13.88h2.72l2.09,5.03c.27,.67,.72,1.82,.88,2.32h.07c.15-.49,.61-1.65,.88-2.32l2.09-5.03h2.72Z"/><path d="M36.82,13.88h2.7v13.3h-2.7V13.88Z"/><path d="M42.96,23.3h2.77c0,1.06,.53,1.52,1.39,1.52s1.33-.51,1.33-1.18c0-2.2-5.21-2.47-5.21-6.52,0-2.03,1.43-3.51,3.88-3.51s3.93,1.46,3.93,3.91h-2.77c0-.87-.4-1.31-1.18-1.31-.7,0-1.12,.38-1.12,.99,0,2.09,5.28,2.22,5.28,6.46,0,2.19-1.54,3.78-4.18,3.78s-4.12-1.46-4.12-4.14Z"/><path d="M61.63,24.61v2.56h-7.05V13.88h6.86v2.56h-4.16v2.75h3.78v2.47h-3.78v2.94h4.35Z"/><path d="M70.26,23.3h2.77c0,1.06,.53,1.52,1.39,1.52s1.33-.51,1.33-1.18c0-2.2-5.21-2.47-5.21-6.52,0-2.03,1.43-3.51,3.88-3.51s3.93,1.46,3.93,3.91h-2.77c0-.87-.4-1.31-1.18-1.31-.7,0-1.12,.38-1.12,.99,0,2.09,5.28,2.22,5.28,6.46,0,2.19-1.54,3.78-4.18,3.78s-4.12-1.46-4.12-4.14Z"/><path d="M85.29,22.14l-.74,1.2v3.84h-2.66V13.88h2.66v5.09l.68-1.48,1.86-3.61h3.08l-3.38,5.81,3.95,7.48h-3.04l-2.41-5.03Z"/><path d="M100.3,24.61v2.56h-6.65V13.88h2.7v10.73h3.95Z"/><path d="M110.54,24.61v2.56h-7.05V13.88h6.86v2.56h-4.16v2.75h3.78v2.47h-3.78v2.94h4.35Z"/><path d="M114.28,13.88h2.66l2.53,5.78c.32,.84,.63,1.71,.95,2.55l.06-.06c-.23-1.67-.38-3.95-.38-5.19v-3.08h2.66v13.3h-2.66l-2.24-5.15-1.2-3.25-.06,.06c.21,1.67,.34,4.16,.34,5.64v2.7h-2.66V13.88Z"/><path d="M127.01,13.88h2.7v13.3h-2.7V13.88Zm1.84-3.88h2.15l-2.15,2.6h-1.79l1.79-2.6Z"/><path d="M137.37,22.14l-.74,1.2v3.84h-2.66V13.88h2.66v5.09l.68-1.48,1.86-3.61h3.08l-3.38,5.81,3.95,7.48h-3.04l-2.41-5.03Z"/><path d="M145.21,22.86v-4.67c0-2.85,1.62-4.54,4.31-4.54s4.31,1.69,4.31,4.54v4.67c0,2.85-1.62,4.54-4.31,4.54s-4.31-1.69-4.31-4.54Zm5.83,0v-4.67c0-1.25-.51-1.92-1.52-1.92s-1.52,.67-1.52,1.92v4.67c0,1.25,.51,1.92,1.52,1.92s1.52-.67,1.52-1.92Z"/><path d="M156.6,13.88h2.79l1.2,6.29c.19,.97,.42,2.6,.55,3.7h.08c.13-1.1,.36-2.74,.55-3.7l1.2-6.29h2.79l-3.15,13.3h-2.85l-3.15-13.3Z"/><path d="M170.85,23.22l-3.13-9.35h2.79l1.08,3.69c.13,.44,.44,1.48,.57,2.13h.08c.15-.65,.46-1.69,.61-2.18l1.04-3.63h2.79l-3.13,9.35v3.95h-2.7v-3.95Zm1.82-13.22h2.15l-2.15,2.6h-1.79l1.79-2.6Z"/><path d="M179.38,23.11v-5.17c0-2.81,1.52-4.33,4.12-4.33s4.14,1.52,4.24,4.33h-2.7c-.08-1.22-.53-1.71-1.56-1.71-.82,0-1.29,.53-1.29,1.71v5.17c0,1.14,.46,1.67,1.29,1.67,1.04,0,1.52-.49,1.6-1.67h2.7c-.06,2.79-1.6,4.29-4.29,4.29s-4.1-1.5-4.1-4.29Z"/><path d="M199.4,13.88v13.3h-2.72v-5.41h-2.74v5.41h-2.72V13.88h2.72v5.32h2.74v-5.32h2.72Z"/><path d="M217.6,18.4c0,2.83-1.63,4.5-4.39,4.5h-1.16v4.27h-2.7V13.88h3.86c2.75,0,4.39,1.67,4.39,4.52Zm-2.77,0c0-1.29-.57-1.96-1.65-1.96h-1.12v3.89h1.12c1.08,0,1.65-.67,1.65-1.94Z"/><path d="M227.63,24.61v2.56h-6.65V13.88h2.7v10.73h3.95Z"/><path d="M231.19,23.22l-3.13-9.35h2.79l1.08,3.69c.13,.44,.44,1.48,.57,2.13h.08c.15-.65,.46-1.69,.61-2.18l1.04-3.63h2.79l-3.13,9.35v3.95h-2.7v-3.95Z"/><path d="M240.1,13.88h2.66l2.53,5.78c.32,.84,.63,1.71,.95,2.55l.06-.06c-.23-1.67-.38-3.95-.38-5.19v-3.08h2.66v13.3h-2.66l-2.24-5.15-1.2-3.25-.06,.06c.21,1.67,.34,4.16,.34,5.64v2.7h-2.66V13.88Z"/><path d="M252.6,22.94V13.88h2.75v9.06c0,1.2,.48,1.84,1.43,1.84s1.42-.65,1.42-1.84V13.88h2.76v9.06c0,2.79-1.56,4.46-4.18,4.46s-4.18-1.67-4.18-4.46Zm2.51-11.97c0-.99,.7-1.67,1.75-1.67s1.75,.68,1.75,1.67-.7,1.71-1.75,1.71-1.75-.68-1.75-1.71Zm2.38,.02c0-.38-.25-.63-.63-.63s-.63,.25-.63,.63,.25,.63,.63,.63,.63-.25,.63-.63Z"/><path d="M277.74,24.61v2.56h-7.05V13.88h6.86v2.56h-4.16v2.75h3.78v2.47h-3.78v2.94h4.35Z"/><path d="M281.25,22.94V13.88h2.75v9.06c0,1.2,.47,1.84,1.42,1.84s1.43-.65,1.43-1.84V13.88h2.75v9.06c0,2.79-1.56,4.46-4.18,4.46s-4.18-1.67-4.18-4.46Z"/><path d="M293,19.56c0-.86,.57-1.42,1.42-1.42s1.43,.57,1.43,1.42-.57,1.42-1.43,1.42-1.42-.57-1.42-1.42Zm0,6.42c0-.86,.57-1.42,1.42-1.42s1.43,.57,1.43,1.42-.57,1.42-1.43,1.42-1.42-.57-1.42-1.42Z"/><path d="M316.29,13.88v13.3h-2.64v-3.27c.08-1.61,.13-3.23,.21-4.84l-.09-.04-1.2,3.5-.67,1.8h-2.66l-.67-1.8-1.2-3.5-.09,.04c.06,1.61,.13,3.23,.19,4.84v3.27h-2.62V13.88h2.72l2.09,5.03c.27,.67,.72,1.82,.87,2.32h.08c.15-.49,.61-1.65,.87-2.32l2.09-5.03h2.72Z"/><path d="M320.54,13.88h2.7v13.3h-2.7V13.88Z"/><path d="M327.5,13.88h2.66l2.53,5.78c.32,.84,.63,1.71,.95,2.55l.06-.06c-.23-1.67-.38-3.95-.38-5.19v-3.08h2.66v13.3h-2.66l-2.24-5.15-1.2-3.25-.06,.06c.21,1.67,.34,4.16,.34,5.64v2.7h-2.66V13.88Z"/><path d="M340,22.94V13.88h2.75v9.06c0,1.2,.47,1.84,1.42,1.84s1.43-.65,1.43-1.84V13.88h2.75v9.06c0,2.79-1.56,4.46-4.18,4.46s-4.18-1.67-4.18-4.46Z"/><path d="M359.04,24.61v2.56h-6.65V13.88h2.7v10.73h3.95Z"/><path d="M361.85,22.86v-4.67c0-2.85,1.62-4.54,4.31-4.54s4.31,1.69,4.31,4.54v4.67c0,2.85-1.62,4.54-4.31,4.54s-4.31-1.69-4.31-4.54Zm5.83,0v-4.67c0-1.25-.51-1.92-1.52-1.92s-1.52,.67-1.52,1.92v4.67c0,1.25,.51,1.92,1.52,1.92s1.52-.67,1.52-1.92Z"/><path d="M373.54,23.3h2.77c0,1.06,.53,1.52,1.39,1.52s1.33-.51,1.33-1.18c0-2.2-5.21-2.47-5.21-6.52,0-2.03,1.42-3.51,3.88-3.51s3.93,1.46,3.93,3.91h-2.78c0-.87-.4-1.31-1.18-1.31-.7,0-1.12,.38-1.12,.99,0,2.09,5.28,2.22,5.28,6.46,0,2.19-1.54,3.78-4.18,3.78s-4.12-1.46-4.12-4.14Z"/><path d="M392.44,16.44h-2.6v10.73h-2.77v-10.73h-2.6v-2.56h7.98v2.56Z"/><path d="M406.42,24.97h-2.81l-.44,2.2h-2.79l3.19-13.3h2.89l3.19,13.3h-2.79l-.44-2.2Zm-.53-2.56l-.3-1.52c-.17-.95-.4-2.56-.53-3.65h-.08c-.13,1.08-.34,2.7-.53,3.65l-.3,1.52h1.75Z"/><path d="M426.6,23.2c0,2.37-1.63,3.97-3.91,3.97h-4.2V13.88h4.14c2.05,0,3.51,1.52,3.51,3.78,0,1.01-.42,2.07-1.12,2.72,.99,.57,1.58,1.63,1.58,2.83Zm-5.42-6.78v2.77h1.06c.76,0,1.16-.49,1.16-1.42s-.38-1.35-1.25-1.35h-.97Zm2.64,6.76c0-.97-.55-1.46-1.56-1.46h-1.08v2.91h1.03c1.06,0,1.61-.49,1.61-1.44Z"/><path d="M430.02,22.94V13.88h2.75v9.06c0,1.2,.48,1.84,1.43,1.84s1.42-.65,1.42-1.84V13.88h2.76v9.06c0,2.79-1.56,4.46-4.18,4.46s-4.18-1.67-4.18-4.46Z"/><path d="M442.41,13.88h3.65c2.68,0,4.26,1.63,4.26,4.41v4.39c0,2.83-1.56,4.5-4.22,4.5h-3.69V13.88Zm3.69,10.73c.97,0,1.48-.67,1.48-1.94v-4.39c0-1.22-.51-1.84-1.48-1.84h-.99v8.17h.99Z"/><path d="M453.81,22.86v-4.67c0-2.85,1.62-4.54,4.31-4.54s4.31,1.69,4.31,4.54v4.67c0,2.85-1.62,4.54-4.31,4.54s-4.31-1.69-4.31-4.54Zm5.83,0v-4.67c0-1.25-.51-1.92-1.52-1.92s-1.52,.67-1.52,1.92v4.67c0,1.25,.51,1.92,1.52,1.92s1.52-.67,1.52-1.92Z"/><path d="M466.08,22.94V13.88h2.75v9.06c0,1.2,.47,1.84,1.42,1.84s1.43-.65,1.43-1.84V13.88h2.75v9.06c0,2.79-1.56,4.46-4.18,4.46s-4.18-1.67-4.18-4.46Z"/><path d="M478.09,23.11v-5.17c0-2.81,1.52-4.33,4.12-4.33s4.14,1.52,4.24,4.33h-2.7c-.08-1.22-.53-1.71-1.56-1.71-.82,0-1.29,.53-1.29,1.71v5.17c0,1.14,.46,1.67,1.29,1.67,1.04,0,1.52-.49,1.6-1.67h2.7c-.06,2.79-1.6,4.29-4.29,4.29s-4.1-1.5-4.1-4.29Z"/><path d="M489.95,13.88h2.66l2.53,5.78c.32,.84,.63,1.71,.95,2.55l.06-.06c-.23-1.67-.38-3.95-.38-5.19v-3.08h2.66v13.3h-2.66l-2.24-5.15-1.2-3.25-.06,.06c.21,1.67,.34,4.16,.34,5.64v2.7h-2.66V13.88Z"/><path d="M502.3,22.86v-4.67c0-2.85,1.62-4.54,4.31-4.54s4.31,1.69,4.31,4.54v4.67c0,2.85-1.62,4.54-4.31,4.54s-4.31-1.69-4.31-4.54Zm5.83,0v-4.67c0-1.25-.51-1.92-1.52-1.92s-1.52,.67-1.52,1.92v4.67c0,1.25,.51,1.92,1.52,1.92s1.52-.67,1.52-1.92Z"/><path d="M513.98,23.3h2.77c0,1.06,.53,1.52,1.39,1.52s1.33-.51,1.33-1.18c0-2.2-5.21-2.47-5.21-6.52,0-2.03,1.42-3.51,3.88-3.51s3.93,1.46,3.93,3.91h-2.78c0-.87-.4-1.31-1.18-1.31-.7,0-1.12,.38-1.12,.99,0,2.09,5.28,2.22,5.28,6.46,0,2.19-1.54,3.78-4.18,3.78s-4.12-1.46-4.12-4.14Z"/><path d="M532.88,16.44h-2.6v10.73h-2.77v-10.73h-2.6v-2.56h7.98v2.56Z"/><path d="M541.95,13.88h3.65c2.68,0,4.26,1.63,4.26,4.41v4.39c0,2.83-1.56,4.5-4.22,4.5h-3.69V13.88Zm3.69,10.73c.97,0,1.48-.67,1.48-1.94v-4.39c0-1.22-.51-1.84-1.48-1.84h-.99v8.17h.99Z"/><path d="M560.38,24.61v2.56h-6.65V13.88h2.7v10.73h3.95Z"/><path d="M570.62,24.61v2.56h-7.05V13.88h6.86v2.56h-4.16v2.75h3.78v2.47h-3.78v2.94h4.35Z"/><path d="M579.13,25.37l4.22-8.93h-3.89v-2.56h7.2v1.86l-4.18,8.87h4.27v2.56h-7.62v-1.8Z"/><path d="M595.11,24.97h-2.81l-.44,2.2h-2.79l3.19-13.3h2.89l3.19,13.3h-2.79l-.44-2.2Zm-.93-12.37h-1.79l1.79-2.6h2.15l-2.15,2.6Zm.4,9.8l-.3-1.52c-.17-.95-.4-2.56-.53-3.65h-.08c-.13,1.08-.34,2.7-.53,3.65l-.3,1.52h1.75Z"/><path d="M599.71,13.88h2.79l1.2,6.29c.19,.97,.42,2.6,.55,3.7h.07c.13-1.1,.36-2.74,.55-3.7l1.2-6.29h2.79l-3.15,13.3h-2.85l-3.15-13.3Z"/><path d="M616.28,24.97h-2.81l-.44,2.2h-2.79l3.19-13.3h2.89l3.19,13.3h-2.79l-.44-2.2Zm-.53-2.56l-.3-1.52c-.17-.95-.4-2.56-.53-3.65h-.08c-.13,1.08-.34,2.7-.53,3.65l-.3,1.52h1.75Z"/><path d="M621.71,25.37l4.22-8.93h-3.89v-2.56h7.2v1.86l-4.18,8.87h4.27v2.56h-7.62v-1.8Z"/><path d="M636.17,22.14l-.74,1.2v3.84h-2.66V13.88h2.66v5.09l.68-1.48,1.86-3.61h3.08l-3.38,5.81,3.95,7.48h-3.04l-2.41-5.03Z"/><path d="M644.47,22.94V13.88h2.75v9.06c0,1.2,.48,1.84,1.43,1.84s1.42-.65,1.42-1.84V13.88h2.76v9.06c0,2.79-1.56,4.46-4.18,4.46s-4.18-1.67-4.18-4.46Zm2.51-11.97c0-.99,.7-1.67,1.75-1.67s1.75,.68,1.75,1.67-.7,1.71-1.75,1.71-1.75-.68-1.75-1.71Zm2.38,.02c0-.38-.25-.63-.63-.63s-.63,.25-.63,.63,.25,.63,.63,.63,.63-.25,.63-.63Z"/></g></svg>