<?xml version="1.0" encoding="UTF-8"?><svg xmlns="http://www.w3.org/2000/svg" viewBox="0 0 660 359.2"><defs><style>.c{mix-blend-mode:multiply;stroke:#999;}.c,.d,.e,.f,.g,.h{fill:none;stroke-miterlimit:10;}.c,.e,.f,.h{stroke-linecap:round;}.c,.f{stroke-dasharray:0 0 1 4;}.c,.f,.h{stroke-width:.75px;}.d{stroke-linecap:square;}.d,.g{stroke:#bcbec0;}.i{fill:#fff;}.j{fill:#9d9dce;}.k{fill:#666;}.l{fill:#333;}.m{fill:#adadce;}.n{fill:#203e80;}.e{stroke:#203e80;stroke-dasharray:0 0 0 5;stroke-width:2px;}.f{stroke:#b3b3b3;}.o{isolation:isolate;}.h{stroke:#666;}</style></defs><g class="o"><g id="a"><rect class="i" x=".05" width="659.95" height="359.2"/><line class="f" x1="20.4" y1="69.34" x2="22.37" y2="69.34"/><polygon class="m" points="314.59 181.17 314.59 164.73 305.86 164.73 305.86 158.01 297.13 158.01 297.13 154.57 288.4 154.57 288.4 156.05 279.66 156.05 279.66 156.53 270.93 156.53 270.93 158.77 262.2 158.77 262.2 152.88 253.47 152.88 253.47 149.21 244.74 149.21 244.74 145.91 236.01 145.91 236.01 141.32 227.28 141.32 227.28 145.18 218.55 145.18 218.55 131.1 209.81 131.1 209.81 127.05 201.08 127.05 201.08 125.86 192.35 125.86 192.35 125.91 183.62 125.91 183.62 124.95 174.89 124.95 174.89 125.4 166.16 125.4 166.16 129.03 157.42 129.03 157.42 128.34 148.69 128.34 148.69 130.4 139.96 130.4 139.96 130.13 131.23 130.13 131.23 127.13 122.5 127.13 122.5 125.6 113.77 125.6 113.77 122.69 105.04 122.69 105.04 126.77 96.3 126.77 96.3 129.22 87.57 129.22 87.57 128.49 78.84 128.49 78.84 125.27 70.11 125.27 70.11 118.82 61.38 118.82 61.38 114.34 52.65 114.34 52.65 326.12 61.38 326.12 61.38 326.11 70.11 326.11 78.84 326.11 78.84 326.12 87.57 326.12 96.3 326.12 105.04 326.12 113.77 326.12 113.77 326.11 122.5 326.11 122.5 326.12 131.23 326.12 139.96 326.12 148.69 326.12 157.42 326.12 166.16 326.12 174.89 326.12 174.89 326.11 183.62 326.11 183.62 326.12 192.35 326.12 192.35 326.11 201.08 326.11 201.08 326.12 209.81 326.12 209.81 326.11 218.55 326.11 227.28 326.11 227.28 326.12 236.01 326.12 244.74 326.12 253.47 326.12 253.47 326.11 262.2 326.11 262.2 326.12 270.93 326.12 279.66 326.12 279.66 326.11 288.4 326.11 297.13 326.11 297.13 326.12 305.86 326.12 314.59 326.12 323.32 326.12 323.32 181.17 314.59 181.17"/><line class="g" x1="56.18" y1="327.11" x2="56.18" y2="333.6"/><line class="g" x1="143.95" y1="327.11" x2="143.95" y2="333.6"/><line class="g" x1="231.71" y1="327.11" x2="231.71" y2="333.6"/><line class="g" x1="319.48" y1="327.11" x2="319.48" y2="333.6"/><g><path class="l" d="M42.79,338.56v11.64h-1.41v-10.16h-.07l-2.84,1.89v-1.43l2.91-1.93h1.41Z"/><path class="l" d="M49.83,338.4c.48,0,.95,.09,1.43,.27,.48,.18,.91,.47,1.31,.88,.39,.41,.71,.97,.95,1.68,.24,.71,.36,1.6,.36,2.66s-.1,1.95-.29,2.75c-.2,.8-.48,1.48-.84,2.03-.37,.55-.81,.97-1.33,1.25-.52,.28-1.11,.43-1.76,.43s-1.23-.13-1.74-.39c-.51-.26-.93-.62-1.25-1.08-.32-.46-.53-1-.62-1.62h1.39c.12,.53,.37,.97,.75,1.32,.37,.35,.87,.52,1.48,.52,.9,0,1.61-.39,2.13-1.18,.52-.78,.78-1.89,.78-3.32h-.09c-.21,.32-.46,.59-.76,.82-.29,.23-.62,.41-.97,.53-.36,.12-.74,.19-1.14,.19-.67,0-1.28-.17-1.83-.5-.55-.33-1-.79-1.33-1.37-.33-.58-.5-1.25-.5-2s.16-1.36,.48-1.96,.77-1.07,1.35-1.42c.58-.35,1.27-.52,2.05-.51Zm0,1.25c-.48,0-.91,.12-1.29,.36-.38,.24-.68,.55-.9,.96-.22,.4-.33,.84-.33,1.33s.11,.93,.32,1.32,.51,.71,.88,.94c.37,.23,.8,.35,1.28,.35,.36,0,.7-.07,1.01-.21,.31-.14,.58-.34,.82-.58,.23-.25,.42-.53,.55-.85,.13-.32,.2-.65,.2-.99,0-.46-.11-.88-.33-1.28-.22-.4-.52-.72-.9-.97-.38-.25-.81-.37-1.3-.37Z"/><path class="l" d="M59.81,338.4c.48,0,.95,.09,1.43,.27,.48,.18,.91,.47,1.31,.88,.39,.41,.71,.97,.95,1.68,.24,.71,.36,1.6,.36,2.66s-.1,1.95-.29,2.75c-.2,.8-.48,1.48-.84,2.03-.37,.55-.81,.97-1.33,1.25-.52,.28-1.11,.43-1.76,.43s-1.23-.13-1.74-.39c-.51-.26-.93-.62-1.25-1.08-.32-.46-.53-1-.62-1.62h1.39c.12,.53,.37,.97,.75,1.32,.37,.35,.87,.52,1.48,.52,.9,0,1.61-.39,2.13-1.18,.52-.78,.78-1.89,.78-3.32h-.09c-.21,.32-.46,.59-.76,.82-.29,.23-.62,.41-.97,.53-.36,.12-.74,.19-1.14,.19-.67,0-1.28-.17-1.83-.5-.55-.33-1-.79-1.33-1.37-.33-.58-.5-1.25-.5-2s.16-1.36,.48-1.96,.77-1.07,1.35-1.42c.58-.35,1.27-.52,2.05-.51Zm0,1.25c-.48,0-.91,.12-1.29,.36-.38,.24-.68,.55-.9,.96-.22,.4-.33,.84-.33,1.33s.11,.93,.32,1.32,.51,.71,.88,.94c.37,.23,.8,.35,1.28,.35,.36,0,.7-.07,1.01-.21,.31-.14,.58-.34,.82-.58,.23-.25,.42-.53,.55-.85,.13-.32,.2-.65,.2-.99,0-.46-.11-.88-.33-1.28-.22-.4-.52-.72-.9-.97-.38-.25-.81-.37-1.3-.37Z"/><path class="l" d="M69.88,350.35c-.86,0-1.58-.23-2.19-.7s-1.06-1.15-1.38-2.04c-.32-.89-.48-1.97-.48-3.24s.16-2.33,.48-3.22c.32-.89,.78-1.57,1.39-2.04,.6-.47,1.33-.71,2.18-.71s1.58,.24,2.18,.71c.6,.47,1.07,1.15,1.39,2.04,.32,.89,.48,1.97,.48,3.22s-.16,2.34-.48,3.24c-.32,.89-.78,1.57-1.38,2.04s-1.33,.7-2.19,.7Zm0-1.25c.85,0,1.51-.41,1.98-1.23s.7-1.98,.7-3.5c0-1.01-.11-1.87-.32-2.57-.21-.71-.52-1.25-.92-1.62-.4-.37-.88-.56-1.44-.56-.84,0-1.5,.41-1.97,1.24-.47,.83-.71,2-.71,3.51,0,1.01,.11,1.86,.32,2.57,.21,.7,.52,1.24,.92,1.61,.4,.37,.88,.55,1.45,.55Z"/></g><g><path class="l" d="M125.31,350.19v-1.02l3.84-4.21c.45-.49,.82-.92,1.11-1.29,.29-.37,.51-.71,.65-1.03,.14-.32,.21-.66,.21-1.02,0-.41-.1-.76-.29-1.06-.2-.3-.46-.53-.8-.69-.34-.16-.72-.24-1.14-.24-.45,0-.84,.09-1.17,.28-.33,.18-.59,.44-.77,.77-.18,.33-.27,.72-.27,1.16h-1.34c0-.68,.16-1.28,.47-1.8,.31-.51,.74-.92,1.29-1.2,.54-.29,1.15-.43,1.83-.43s1.29,.14,1.81,.43c.53,.29,.94,.68,1.24,1.16,.3,.49,.45,1.03,.45,1.63,0,.43-.08,.85-.23,1.25-.15,.41-.42,.86-.79,1.36s-.9,1.1-1.57,1.82l-2.61,2.8v.09h5.41v1.25h-7.34Z"/><path class="l" d="M138.79,350.35c-.86,0-1.58-.23-2.19-.7s-1.06-1.15-1.38-2.04c-.32-.89-.48-1.97-.48-3.24s.16-2.33,.48-3.22c.32-.89,.78-1.57,1.39-2.04,.6-.47,1.33-.71,2.18-.71s1.58,.24,2.18,.71c.6,.47,1.07,1.15,1.39,2.04,.32,.89,.48,1.97,.48,3.22s-.16,2.34-.48,3.24c-.32,.89-.78,1.57-1.38,2.04s-1.33,.7-2.19,.7Zm0-1.25c.85,0,1.51-.41,1.98-1.23s.7-1.98,.7-3.5c0-1.01-.11-1.87-.32-2.57-.21-.71-.52-1.25-.92-1.62-.4-.37-.88-.56-1.44-.56-.84,0-1.5,.41-1.97,1.24-.47,.83-.71,2-.71,3.51,0,1.01,.11,1.86,.32,2.57,.21,.7,.52,1.24,.92,1.61,.4,.37,.88,.55,1.45,.55Z"/><path class="l" d="M148.79,350.35c-.86,0-1.58-.23-2.19-.7s-1.06-1.15-1.38-2.04c-.32-.89-.48-1.97-.48-3.24s.16-2.33,.48-3.22c.32-.89,.78-1.57,1.39-2.04,.6-.47,1.33-.71,2.18-.71s1.58,.24,2.18,.71c.6,.47,1.07,1.15,1.39,2.04,.32,.89,.48,1.97,.48,3.22s-.16,2.34-.48,3.24c-.32,.89-.78,1.57-1.38,2.04s-1.33,.7-2.19,.7Zm0-1.25c.85,0,1.51-.41,1.98-1.23s.7-1.98,.7-3.5c0-1.01-.11-1.87-.32-2.57-.21-.71-.52-1.25-.92-1.62-.4-.37-.88-.56-1.44-.56-.84,0-1.5,.41-1.97,1.24-.47,.83-.71,2-.71,3.51,0,1.01,.11,1.86,.32,2.57,.21,.7,.52,1.24,.92,1.61,.4,.37,.88,.55,1.45,.55Z"/><path class="l" d="M158.79,350.35c-.86,0-1.58-.23-2.19-.7s-1.06-1.15-1.38-2.04c-.32-.89-.48-1.97-.48-3.24s.16-2.33,.48-3.22c.32-.89,.78-1.57,1.39-2.04,.6-.47,1.33-.71,2.18-.71s1.58,.24,2.18,.71c.6,.47,1.07,1.15,1.39,2.04,.32,.89,.48,1.97,.48,3.22s-.16,2.34-.48,3.24c-.32,.89-.78,1.57-1.38,2.04s-1.33,.7-2.19,.7Zm0-1.25c.85,0,1.51-.41,1.98-1.23s.7-1.98,.7-3.5c0-1.01-.11-1.87-.32-2.57-.21-.71-.52-1.25-.92-1.62-.4-.37-.88-.56-1.44-.56-.84,0-1.5,.41-1.97,1.24-.47,.83-.71,2-.71,3.51,0,1.01,.11,1.86,.32,2.57,.21,.7,.52,1.24,.92,1.61,.4,.37,.88,.55,1.45,.55Z"/></g><g><path class="l" d="M214.36,350.19v-1.02l3.84-4.21c.45-.49,.82-.92,1.11-1.29,.29-.37,.51-.71,.65-1.03,.14-.32,.21-.66,.21-1.02,0-.41-.1-.76-.29-1.06-.2-.3-.46-.53-.8-.69-.34-.16-.72-.24-1.14-.24-.45,0-.84,.09-1.17,.28-.33,.18-.59,.44-.77,.77-.18,.33-.27,.72-.27,1.16h-1.34c0-.68,.16-1.28,.47-1.8,.31-.51,.74-.92,1.29-1.2,.54-.29,1.15-.43,1.83-.43s1.29,.14,1.81,.43c.53,.29,.94,.68,1.24,1.16,.3,.49,.45,1.03,.45,1.63,0,.43-.08,.85-.23,1.25-.15,.41-.42,.86-.79,1.36s-.9,1.1-1.57,1.82l-2.61,2.8v.09h5.41v1.25h-7.34Z"/><path class="l" d="M227.84,350.35c-.86,0-1.58-.23-2.19-.7s-1.06-1.15-1.38-2.04c-.32-.89-.48-1.97-.48-3.24s.16-2.33,.48-3.22c.32-.89,.78-1.57,1.39-2.04,.6-.47,1.33-.71,2.18-.71s1.58,.24,2.18,.71c.6,.47,1.07,1.15,1.39,2.04,.32,.89,.48,1.97,.48,3.22s-.16,2.34-.48,3.24c-.32,.89-.78,1.57-1.38,2.04s-1.33,.7-2.19,.7Zm0-1.25c.85,0,1.51-.41,1.98-1.23s.7-1.98,.7-3.5c0-1.01-.11-1.87-.32-2.57-.21-.71-.52-1.25-.92-1.62-.4-.37-.88-.56-1.44-.56-.84,0-1.5,.41-1.97,1.24-.47,.83-.71,2-.71,3.51,0,1.01,.11,1.86,.32,2.57,.21,.7,.52,1.24,.92,1.61,.4,.37,.88,.55,1.45,.55Z"/><path class="l" d="M238.14,338.56v11.64h-1.41v-10.16h-.07l-2.84,1.89v-1.43l2.91-1.93h1.41Z"/><path class="l" d="M245.27,350.35c-.86,0-1.58-.23-2.19-.7s-1.06-1.15-1.38-2.04c-.32-.89-.48-1.97-.48-3.24s.16-2.33,.48-3.22c.32-.89,.78-1.57,1.39-2.04,.6-.47,1.33-.71,2.18-.71s1.58,.24,2.18,.71c.6,.47,1.07,1.15,1.39,2.04,.32,.89,.48,1.97,.48,3.22s-.16,2.34-.48,3.24c-.32,.89-.78,1.57-1.38,2.04s-1.33,.7-2.19,.7Zm0-1.25c.85,0,1.51-.41,1.98-1.23s.7-1.98,.7-3.5c0-1.01-.11-1.87-.32-2.57-.21-.71-.52-1.25-.92-1.62-.4-.37-.88-.56-1.44-.56-.84,0-1.5,.41-1.97,1.24-.47,.83-.71,2-.71,3.51,0,1.01,.11,1.86,.32,2.57,.21,.7,.52,1.24,.92,1.61,.4,.37,.88,.55,1.45,.55Z"/></g><line class="g" x1="406.36" y1="327.11" x2="406.36" y2="333.6"/><line class="g" x1="581.01" y1="327.11" x2="581.01" y2="333.6"/><g><path class="l" d="M387.64,350.19v-1.02l3.84-4.21c.45-.49,.82-.92,1.11-1.29,.29-.37,.51-.71,.65-1.03,.14-.32,.21-.66,.21-1.02,0-.41-.1-.76-.29-1.06-.2-.3-.46-.53-.8-.69-.34-.16-.72-.24-1.14-.24-.45,0-.84,.09-1.17,.28-.33,.18-.59,.44-.77,.77-.18,.33-.27,.72-.27,1.16h-1.34c0-.68,.16-1.28,.47-1.8,.31-.51,.74-.92,1.29-1.2,.54-.29,1.15-.43,1.83-.43s1.29,.14,1.81,.43c.53,.29,.94,.68,1.24,1.16,.3,.49,.45,1.03,.45,1.63,0,.43-.08,.85-.23,1.25-.15,.41-.42,.86-.79,1.36s-.9,1.1-1.57,1.82l-2.61,2.8v.09h5.41v1.25h-7.34Z"/><path class="l" d="M401.11,350.35c-.86,0-1.58-.23-2.19-.7s-1.06-1.15-1.38-2.04c-.32-.89-.48-1.97-.48-3.24s.16-2.33,.48-3.22c.32-.89,.78-1.57,1.39-2.04,.6-.47,1.33-.71,2.18-.71s1.58,.24,2.18,.71c.6,.47,1.07,1.15,1.39,2.04,.32,.89,.48,1.97,.48,3.22s-.16,2.34-.48,3.24c-.32,.89-.78,1.57-1.38,2.04s-1.33,.7-2.19,.7Zm0-1.25c.85,0,1.51-.41,1.98-1.23s.7-1.98,.7-3.5c0-1.01-.11-1.87-.32-2.57-.21-.71-.52-1.25-.92-1.62-.4-.37-.88-.56-1.44-.56-.84,0-1.5,.41-1.97,1.24-.47,.83-.71,2-.71,3.51,0,1.01,.11,1.86,.32,2.57,.21,.7,.52,1.24,.92,1.61,.4,.37,.88,.55,1.45,.55Z"/><path class="l" d="M411.25,350.35c-.75,0-1.42-.13-2-.39-.59-.26-1.05-.62-1.39-1.08-.34-.46-.53-1-.56-1.61h1.43c.03,.38,.16,.7,.39,.97s.52,.48,.89,.63c.37,.15,.78,.22,1.22,.22,.5,0,.94-.09,1.33-.26,.39-.17,.69-.42,.91-.73s.33-.67,.33-1.08-.11-.81-.32-1.13c-.21-.33-.52-.58-.93-.77s-.91-.28-1.5-.28h-.93v-1.25h.93c.46,0,.87-.08,1.22-.25s.62-.4,.82-.71c.2-.3,.3-.66,.3-1.07s-.09-.74-.26-1.03c-.17-.29-.42-.52-.74-.68-.32-.16-.69-.24-1.12-.24-.4,0-.78,.07-1.13,.22-.35,.15-.64,.36-.87,.63s-.34,.61-.36,.99h-1.36c.02-.61,.21-1.14,.55-1.6,.34-.46,.8-.82,1.35-1.08s1.17-.39,1.84-.39c.72,0,1.34,.15,1.85,.44,.51,.29,.91,.67,1.19,1.14s.42,.98,.42,1.53c0,.66-.17,1.21-.51,1.68s-.81,.78-1.39,.96v.09c.73,.12,1.31,.43,1.72,.93,.41,.5,.62,1.12,.62,1.86,0,.63-.17,1.2-.51,1.7s-.81,.9-1.4,1.18c-.59,.29-1.26,.43-2.02,.43Z"/><path class="l" d="M421.29,350.35c-.86,0-1.58-.23-2.19-.7s-1.06-1.15-1.38-2.04c-.32-.89-.48-1.97-.48-3.24s.16-2.33,.48-3.22c.32-.89,.78-1.57,1.39-2.04,.6-.47,1.33-.71,2.18-.71s1.58,.24,2.18,.71c.6,.47,1.07,1.15,1.39,2.04,.32,.89,.48,1.97,.48,3.22s-.16,2.34-.48,3.24c-.32,.89-.78,1.57-1.38,2.04s-1.33,.7-2.19,.7Zm0-1.25c.85,0,1.51-.41,1.98-1.23s.7-1.98,.7-3.5c0-1.01-.11-1.87-.32-2.57-.21-.71-.52-1.25-.92-1.62-.4-.37-.88-.56-1.44-.56-.84,0-1.5,.41-1.97,1.24-.47,.83-.71,2-.71,3.51,0,1.01,.11,1.86,.32,2.57,.21,.7,.52,1.24,.92,1.61,.4,.37,.88,.55,1.45,.55Z"/></g><g><path class="l" d="M562.51,350.19v-1.02l3.84-4.21c.45-.49,.82-.92,1.11-1.29,.29-.37,.51-.71,.65-1.03,.14-.32,.21-.66,.21-1.02,0-.41-.1-.76-.29-1.06-.2-.3-.46-.53-.8-.69-.34-.16-.72-.24-1.14-.24-.45,0-.84,.09-1.17,.28-.33,.18-.59,.44-.77,.77-.18,.33-.27,.72-.27,1.16h-1.34c0-.68,.16-1.28,.47-1.8,.31-.51,.74-.92,1.29-1.2,.54-.29,1.15-.43,1.83-.43s1.29,.14,1.81,.43c.53,.29,.94,.68,1.24,1.16,.3,.49,.45,1.03,.45,1.63,0,.43-.08,.85-.23,1.25-.15,.41-.42,.86-.79,1.36s-.9,1.1-1.57,1.82l-2.61,2.8v.09h5.41v1.25h-7.34Z"/><path class="l" d="M575.99,350.35c-.86,0-1.58-.23-2.19-.7s-1.06-1.15-1.38-2.04c-.32-.89-.48-1.97-.48-3.24s.16-2.33,.48-3.22c.32-.89,.78-1.57,1.39-2.04,.6-.47,1.33-.71,2.18-.71s1.58,.24,2.18,.71c.6,.47,1.07,1.15,1.39,2.04,.32,.89,.48,1.97,.48,3.22s-.16,2.34-.48,3.24c-.32,.89-.78,1.57-1.38,2.04s-1.33,.7-2.19,.7Zm0-1.25c.85,0,1.51-.41,1.98-1.23s.7-1.98,.7-3.5c0-1.01-.11-1.87-.32-2.57-.21-.71-.52-1.25-.92-1.62-.4-.37-.88-.56-1.44-.56-.84,0-1.5,.41-1.97,1.24-.47,.83-.71,2-.71,3.51,0,1.01,.11,1.86,.32,2.57,.21,.7,.52,1.24,.92,1.61,.4,.37,.88,.55,1.45,.55Z"/><path class="l" d="M585.83,350.35c-.67,0-1.27-.13-1.8-.4-.53-.27-.96-.63-1.28-1.09-.32-.46-.5-.99-.53-1.58h1.36c.05,.53,.29,.96,.72,1.3s.94,.51,1.53,.51c.48,0,.9-.11,1.28-.33s.67-.53,.88-.92c.21-.39,.32-.84,.32-1.33s-.11-.96-.33-1.36c-.22-.4-.53-.71-.91-.95-.39-.23-.83-.35-1.32-.35-.36,0-.72,.05-1.1,.16-.38,.11-.68,.25-.93,.43l-1.32-.16,.7-5.73h6.05v1.25h-4.86l-.41,3.43h.07c.24-.19,.54-.35,.9-.47,.36-.12,.73-.19,1.12-.19,.71,0,1.35,.17,1.91,.51,.56,.34,1,.8,1.32,1.39,.32,.59,.48,1.26,.48,2.01s-.17,1.4-.5,1.99-.79,1.04-1.37,1.38c-.58,.33-1.24,.5-1.98,.5Z"/><path class="l" d="M595.71,350.35c-.86,0-1.58-.23-2.19-.7s-1.06-1.15-1.38-2.04c-.32-.89-.48-1.97-.48-3.24s.16-2.33,.48-3.22c.32-.89,.78-1.57,1.39-2.04,.6-.47,1.33-.71,2.18-.71s1.58,.24,2.18,.71c.6,.47,1.07,1.15,1.39,2.04,.32,.89,.48,1.97,.48,3.22s-.16,2.34-.48,3.24c-.32,.89-.78,1.57-1.38,2.04s-1.33,.7-2.19,.7Zm0-1.25c.85,0,1.51-.41,1.98-1.23s.7-1.98,.7-3.5c0-1.01-.11-1.87-.32-2.57-.21-.71-.52-1.25-.92-1.62-.4-.37-.88-.56-1.44-.56-.84,0-1.5,.41-1.97,1.24-.47,.83-.71,2-.71,3.51,0,1.01,.11,1.86,.32,2.57,.21,.7,.52,1.24,.92,1.61,.4,.37,.88,.55,1.45,.55Z"/></g><g><path class="l" d="M301,350.19v-1.02l3.84-4.21c.45-.49,.82-.92,1.11-1.29,.29-.37,.51-.71,.65-1.03,.14-.32,.21-.66,.21-1.02,0-.41-.1-.76-.29-1.06-.2-.3-.46-.53-.8-.69-.34-.16-.72-.24-1.14-.24-.45,0-.84,.09-1.17,.28-.33,.18-.59,.44-.77,.77-.18,.33-.27,.72-.27,1.16h-1.34c0-.68,.16-1.28,.47-1.8,.31-.51,.74-.92,1.29-1.2,.54-.29,1.15-.43,1.83-.43s1.29,.14,1.81,.43c.53,.29,.94,.68,1.24,1.16,.3,.49,.45,1.03,.45,1.63,0,.43-.08,.85-.23,1.25-.15,.41-.42,.86-.79,1.36s-.9,1.1-1.57,1.82l-2.61,2.8v.09h5.41v1.25h-7.34Z"/><path class="l" d="M314.48,350.35c-.86,0-1.58-.23-2.19-.7s-1.06-1.15-1.38-2.04c-.32-.89-.48-1.97-.48-3.24s.16-2.33,.48-3.22c.32-.89,.78-1.57,1.39-2.04,.6-.47,1.33-.71,2.18-.71s1.58,.24,2.18,.71c.6,.47,1.07,1.15,1.39,2.04,.32,.89,.48,1.97,.48,3.22s-.16,2.34-.48,3.24c-.32,.89-.78,1.57-1.38,2.04s-1.33,.7-2.19,.7Zm0-1.25c.85,0,1.51-.41,1.98-1.23s.7-1.98,.7-3.5c0-1.01-.11-1.87-.32-2.57-.21-.71-.52-1.25-.92-1.62-.4-.37-.88-.56-1.44-.56-.84,0-1.5,.41-1.97,1.24-.47,.83-.71,2-.71,3.51,0,1.01,.11,1.86,.32,2.57,.21,.7,.52,1.24,.92,1.61,.4,.37,.88,.55,1.45,.55Z"/><path class="l" d="M320.68,350.19v-1.02l3.84-4.21c.45-.49,.82-.92,1.11-1.29,.29-.37,.51-.71,.65-1.03,.14-.32,.21-.66,.21-1.02,0-.41-.1-.76-.29-1.06-.2-.3-.46-.53-.8-.69-.34-.16-.72-.24-1.14-.24-.45,0-.84,.09-1.17,.28-.33,.18-.59,.44-.77,.77-.18,.33-.27,.72-.27,1.16h-1.34c0-.68,.16-1.28,.47-1.8,.31-.51,.74-.92,1.29-1.2,.54-.29,1.15-.43,1.83-.43s1.29,.14,1.81,.43c.53,.29,.94,.68,1.24,1.16,.3,.49,.45,1.03,.45,1.63,0,.43-.08,.85-.23,1.25-.15,.41-.42,.86-.79,1.36s-.9,1.1-1.57,1.82l-2.61,2.8v.09h5.41v1.25h-7.34Z"/><path class="l" d="M334.16,350.35c-.86,0-1.58-.23-2.19-.7s-1.06-1.15-1.38-2.04c-.32-.89-.48-1.97-.48-3.24s.16-2.33,.48-3.22c.32-.89,.78-1.57,1.39-2.04,.6-.47,1.33-.71,2.18-.71s1.58,.24,2.18,.71c.6,.47,1.07,1.15,1.39,2.04,.32,.89,.48,1.97,.48,3.22s-.16,2.34-.48,3.24c-.32,.89-.78,1.57-1.38,2.04s-1.33,.7-2.19,.7Zm0-1.25c.85,0,1.51-.41,1.98-1.23s.7-1.98,.7-3.5c0-1.01-.11-1.87-.32-2.57-.21-.71-.52-1.25-.92-1.62-.4-.37-.88-.56-1.44-.56-.84,0-1.5,.41-1.97,1.24-.47,.83-.71,2-.71,3.51,0,1.01,.11,1.86,.32,2.57,.21,.7,.52,1.24,.92,1.61,.4,.37,.88,.55,1.45,.55Z"/></g><path class="l" d="M43.92,328.78c-.86,0-1.58-.23-2.19-.7s-1.06-1.15-1.38-2.04c-.32-.89-.48-1.97-.48-3.24s.16-2.33,.48-3.22c.32-.89,.78-1.57,1.39-2.04,.6-.47,1.33-.71,2.18-.71s1.58,.24,2.18,.71c.6,.47,1.07,1.15,1.39,2.04,.32,.89,.48,1.97,.48,3.22s-.16,2.34-.48,3.24c-.32,.89-.78,1.57-1.38,2.04s-1.33,.7-2.19,.7Zm0-1.25c.85,0,1.51-.41,1.98-1.23s.7-1.98,.7-3.5c0-1.01-.11-1.87-.32-2.57-.21-.71-.52-1.25-.92-1.62-.4-.37-.88-.56-1.44-.56-.84,0-1.5,.41-1.97,1.24-.47,.83-.71,2-.71,3.51,0,1.01,.11,1.86,.32,2.57,.21,.7,.52,1.24,.92,1.61,.4,.37,.88,.55,1.45,.55Z"/><g><path class="l" d="M12.58,275.48v11.64h-1.41v-10.16h-.07l-2.84,1.89v-1.43l2.91-1.93h1.41Z"/><path class="l" d="M22.92,287.28c-.86,0-1.58-.23-2.19-.7s-1.06-1.15-1.38-2.04c-.32-.89-.48-1.97-.48-3.24s.16-2.33,.48-3.22c.32-.89,.78-1.57,1.39-2.04,.6-.47,1.33-.71,2.18-.71s1.58,.24,2.18,.71c.6,.47,1.07,1.15,1.39,2.04,.32,.89,.48,1.97,.48,3.22s-.16,2.34-.48,3.24c-.32,.89-.78,1.57-1.38,2.04s-1.33,.7-2.19,.7Zm0-1.25c.85,0,1.51-.41,1.98-1.23s.7-1.98,.7-3.5c0-1.01-.11-1.87-.32-2.57-.21-.71-.52-1.25-.92-1.62-.4-.37-.88-.56-1.44-.56-.84,0-1.5,.41-1.97,1.24-.47,.83-.71,2-.71,3.51,0,1.01,.11,1.86,.32,2.57,.21,.7,.52,1.24,.92,1.61,.4,.37,.88,.55,1.45,.55Z"/><path class="l" d="M32.92,287.28c-.86,0-1.58-.23-2.19-.7s-1.06-1.15-1.38-2.04c-.32-.89-.48-1.97-.48-3.24s.16-2.33,.48-3.22c.32-.89,.78-1.57,1.39-2.04,.6-.47,1.33-.71,2.18-.71s1.58,.24,2.18,.71c.6,.47,1.07,1.15,1.39,2.04,.32,.89,.48,1.97,.48,3.22s-.16,2.34-.48,3.24c-.32,.89-.78,1.57-1.38,2.04s-1.33,.7-2.19,.7Zm0-1.25c.85,0,1.51-.41,1.98-1.23s.7-1.98,.7-3.5c0-1.01-.11-1.87-.32-2.57-.21-.71-.52-1.25-.92-1.62-.4-.37-.88-.56-1.44-.56-.84,0-1.5,.41-1.97,1.24-.47,.83-.71,2-.71,3.51,0,1.01,.11,1.86,.32,2.57,.21,.7,.52,1.24,.92,1.61,.4,.37,.88,.55,1.45,.55Z"/><path class="l" d="M42.92,287.28c-.86,0-1.58-.23-2.19-.7s-1.06-1.15-1.38-2.04c-.32-.89-.48-1.97-.48-3.24s.16-2.33,.48-3.22c.32-.89,.78-1.57,1.39-2.04,.6-.47,1.33-.71,2.18-.71s1.58,.24,2.18,.71c.6,.47,1.07,1.15,1.39,2.04,.32,.89,.48,1.97,.48,3.22s-.16,2.34-.48,3.24c-.32,.89-.78,1.57-1.38,2.04s-1.33,.7-2.19,.7Zm0-1.25c.85,0,1.51-.41,1.98-1.23s.7-1.98,.7-3.5c0-1.01-.11-1.87-.32-2.57-.21-.71-.52-1.25-.92-1.62-.4-.37-.88-.56-1.44-.56-.84,0-1.5,.41-1.97,1.24-.47,.83-.71,2-.71,3.51,0,1.01,.11,1.86,.32,2.57,.21,.7,.52,1.24,.92,1.61,.4,.37,.88,.55,1.45,.55Z"/></g><g><path class="l" d="M6.24,243.76v-1.02l3.84-4.21c.45-.49,.82-.92,1.11-1.29,.29-.37,.51-.71,.65-1.03,.14-.32,.21-.66,.21-1.02,0-.41-.1-.76-.29-1.06-.2-.3-.46-.53-.8-.69-.34-.16-.72-.24-1.14-.24-.45,0-.84,.09-1.17,.28-.33,.18-.59,.44-.77,.77-.18,.33-.27,.72-.27,1.16h-1.34c0-.68,.16-1.28,.47-1.8,.31-.51,.74-.92,1.29-1.2,.54-.29,1.15-.43,1.83-.43s1.29,.14,1.81,.43c.53,.29,.94,.68,1.24,1.16,.3,.49,.45,1.03,.45,1.63,0,.43-.08,.85-.23,1.25-.15,.41-.42,.86-.79,1.36s-.9,1.1-1.57,1.82l-2.61,2.8v.09h5.41v1.25H6.24Z"/><path class="l" d="M22.92,243.92c-.86,0-1.58-.23-2.19-.7s-1.06-1.15-1.38-2.04c-.32-.89-.48-1.97-.48-3.24s.16-2.33,.48-3.22c.32-.89,.78-1.57,1.39-2.04,.6-.47,1.33-.71,2.18-.71s1.58,.24,2.18,.71c.6,.47,1.07,1.15,1.39,2.04,.32,.89,.48,1.97,.48,3.22s-.16,2.34-.48,3.24c-.32,.89-.78,1.57-1.38,2.04s-1.33,.7-2.19,.7Zm0-1.25c.85,0,1.51-.41,1.98-1.23s.7-1.98,.7-3.5c0-1.01-.11-1.87-.32-2.57-.21-.71-.52-1.25-.92-1.62-.4-.37-.88-.56-1.44-.56-.84,0-1.5,.41-1.97,1.24-.47,.83-.71,2-.71,3.51,0,1.01,.11,1.86,.32,2.57,.21,.7,.52,1.24,.92,1.61,.4,.37,.88,.55,1.45,.55Z"/><path class="l" d="M32.92,243.92c-.86,0-1.58-.23-2.19-.7s-1.06-1.15-1.38-2.04c-.32-.89-.48-1.97-.48-3.24s.16-2.33,.48-3.22c.32-.89,.78-1.57,1.39-2.04,.6-.47,1.33-.71,2.18-.71s1.58,.24,2.18,.71c.6,.47,1.07,1.15,1.39,2.04,.32,.89,.48,1.97,.48,3.22s-.16,2.34-.48,3.24c-.32,.89-.78,1.57-1.38,2.04s-1.33,.7-2.19,.7Zm0-1.25c.85,0,1.51-.41,1.98-1.23s.7-1.98,.7-3.5c0-1.01-.11-1.87-.32-2.57-.21-.71-.52-1.25-.92-1.62-.4-.37-.88-.56-1.44-.56-.84,0-1.5,.41-1.97,1.24-.47,.83-.71,2-.71,3.51,0,1.01,.11,1.86,.32,2.57,.21,.7,.52,1.24,.92,1.61,.4,.37,.88,.55,1.45,.55Z"/><path class="l" d="M42.92,243.92c-.86,0-1.58-.23-2.19-.7s-1.06-1.15-1.38-2.04c-.32-.89-.48-1.97-.48-3.24s.16-2.33,.48-3.22c.32-.89,.78-1.57,1.39-2.04,.6-.47,1.33-.71,2.18-.71s1.58,.24,2.18,.71c.6,.47,1.07,1.15,1.39,2.04,.32,.89,.48,1.97,.48,3.22s-.16,2.34-.48,3.24c-.32,.89-.78,1.57-1.38,2.04s-1.33,.7-2.19,.7Zm0-1.25c.85,0,1.51-.41,1.98-1.23s.7-1.98,.7-3.5c0-1.01-.11-1.87-.32-2.57-.21-.71-.52-1.25-.92-1.62-.4-.37-.88-.56-1.44-.56-.84,0-1.5,.41-1.97,1.24-.47,.83-.71,2-.71,3.51,0,1.01,.11,1.86,.32,2.57,.21,.7,.52,1.24,.92,1.61,.4,.37,.88,.55,1.45,.55Z"/></g><g><path class="l" d="M9.67,200.56c-.75,0-1.42-.13-2-.39-.59-.26-1.05-.62-1.39-1.08-.34-.46-.53-1-.56-1.61h1.43c.03,.38,.16,.7,.39,.97s.52,.48,.89,.63c.37,.15,.78,.22,1.22,.22,.5,0,.94-.09,1.33-.26,.39-.17,.69-.42,.91-.73s.33-.67,.33-1.08-.11-.81-.32-1.13c-.21-.33-.52-.58-.93-.77s-.91-.28-1.5-.28h-.93v-1.25h.93c.46,0,.87-.08,1.22-.25s.62-.4,.82-.71c.2-.3,.3-.66,.3-1.07s-.09-.74-.26-1.03c-.17-.29-.42-.52-.74-.68-.32-.16-.69-.24-1.12-.24-.4,0-.78,.07-1.13,.22-.35,.15-.64,.36-.87,.63s-.34,.61-.36,.99h-1.36c.02-.61,.21-1.14,.55-1.6,.34-.46,.8-.82,1.35-1.08s1.17-.39,1.84-.39c.72,0,1.34,.15,1.85,.44,.51,.29,.91,.67,1.19,1.14s.42,.98,.42,1.53c0,.66-.17,1.21-.51,1.68s-.81,.78-1.39,.96v.09c.73,.12,1.31,.43,1.72,.93,.41,.5,.62,1.12,.62,1.86,0,.63-.17,1.2-.51,1.7s-.81,.9-1.4,1.18c-.59,.29-1.26,.43-2.02,.43Z"/><path class="l" d="M22.92,200.56c-.86,0-1.58-.23-2.19-.7s-1.06-1.15-1.38-2.04c-.32-.89-.48-1.97-.48-3.24s.16-2.33,.48-3.22c.32-.89,.78-1.57,1.39-2.04,.6-.47,1.33-.71,2.18-.71s1.58,.24,2.18,.71c.6,.47,1.07,1.15,1.39,2.04,.32,.89,.48,1.97,.48,3.22s-.16,2.34-.48,3.24c-.32,.89-.78,1.57-1.38,2.04s-1.33,.7-2.19,.7Zm0-1.25c.85,0,1.51-.41,1.98-1.23s.7-1.98,.7-3.5c0-1.01-.11-1.87-.32-2.57-.21-.71-.52-1.25-.92-1.62-.4-.37-.88-.56-1.44-.56-.84,0-1.5,.41-1.97,1.24-.47,.83-.71,2-.71,3.51,0,1.01,.11,1.86,.32,2.57,.21,.7,.52,1.24,.92,1.61,.4,.37,.88,.55,1.45,.55Z"/><path class="l" d="M32.92,200.56c-.86,0-1.58-.23-2.19-.7s-1.06-1.15-1.38-2.04c-.32-.89-.48-1.97-.48-3.24s.16-2.33,.48-3.22c.32-.89,.78-1.57,1.39-2.04,.6-.47,1.33-.71,2.18-.71s1.58,.24,2.18,.71c.6,.47,1.07,1.15,1.39,2.04,.32,.89,.48,1.97,.48,3.22s-.16,2.34-.48,3.24c-.32,.89-.78,1.57-1.38,2.04s-1.33,.7-2.19,.7Zm0-1.25c.85,0,1.51-.41,1.98-1.23s.7-1.98,.7-3.5c0-1.01-.11-1.87-.32-2.57-.21-.71-.52-1.25-.92-1.62-.4-.37-.88-.56-1.44-.56-.84,0-1.5,.41-1.97,1.24-.47,.83-.71,2-.71,3.51,0,1.01,.11,1.86,.32,2.57,.21,.7,.52,1.24,.92,1.61,.4,.37,.88,.55,1.45,.55Z"/><path class="l" d="M42.92,200.56c-.86,0-1.58-.23-2.19-.7s-1.06-1.15-1.38-2.04c-.32-.89-.48-1.97-.48-3.24s.16-2.33,.48-3.22c.32-.89,.78-1.57,1.39-2.04,.6-.47,1.33-.71,2.18-.71s1.58,.24,2.18,.71c.6,.47,1.07,1.15,1.39,2.04,.32,.89,.48,1.97,.48,3.22s-.16,2.34-.48,3.24c-.32,.89-.78,1.57-1.38,2.04s-1.33,.7-2.19,.7Zm0-1.25c.85,0,1.51-.41,1.98-1.23s.7-1.98,.7-3.5c0-1.01-.11-1.87-.32-2.57-.21-.71-.52-1.25-.92-1.62-.4-.37-.88-.56-1.44-.56-.84,0-1.5,.41-1.97,1.24-.47,.83-.71,2-.71,3.51,0,1.01,.11,1.86,.32,2.57,.21,.7,.52,1.24,.92,1.61,.4,.37,.88,.55,1.45,.55Z"/></g><g><path class="l" d="M5.38,154.66v-1.16l5.11-8.09h.84v1.8h-.57l-3.86,6.11v.09h6.89v1.25H5.38Zm5.48,2.39v-11.64h1.34v11.64h-1.34Z"/><path class="l" d="M22.92,157.2c-.86,0-1.58-.23-2.19-.7s-1.06-1.15-1.38-2.04c-.32-.89-.48-1.97-.48-3.24s.16-2.33,.48-3.22c.32-.89,.78-1.57,1.39-2.04,.6-.47,1.33-.71,2.18-.71s1.58,.24,2.18,.71c.6,.47,1.07,1.15,1.39,2.04,.32,.89,.48,1.97,.48,3.22s-.16,2.34-.48,3.24c-.32,.89-.78,1.57-1.38,2.04s-1.33,.7-2.19,.7Zm0-1.25c.85,0,1.51-.41,1.98-1.23s.7-1.98,.7-3.5c0-1.01-.11-1.87-.32-2.57-.21-.71-.52-1.25-.92-1.62-.4-.37-.88-.56-1.44-.56-.84,0-1.5,.41-1.97,1.24-.47,.83-.71,2-.71,3.51,0,1.01,.11,1.86,.32,2.57,.21,.7,.52,1.24,.92,1.61,.4,.37,.88,.55,1.45,.55Z"/><path class="l" d="M32.92,157.2c-.86,0-1.58-.23-2.19-.7s-1.06-1.15-1.38-2.04c-.32-.89-.48-1.97-.48-3.24s.16-2.33,.48-3.22c.32-.89,.78-1.57,1.39-2.04,.6-.47,1.33-.71,2.18-.71s1.58,.24,2.18,.71c.6,.47,1.07,1.15,1.39,2.04,.32,.89,.48,1.97,.48,3.22s-.16,2.34-.48,3.24c-.32,.89-.78,1.57-1.38,2.04s-1.33,.7-2.19,.7Zm0-1.25c.85,0,1.51-.41,1.98-1.23s.7-1.98,.7-3.5c0-1.01-.11-1.87-.32-2.57-.21-.71-.52-1.25-.92-1.62-.4-.37-.88-.56-1.44-.56-.84,0-1.5,.41-1.97,1.24-.47,.83-.71,2-.71,3.51,0,1.01,.11,1.86,.32,2.57,.21,.7,.52,1.24,.92,1.61,.4,.37,.88,.55,1.45,.55Z"/><path class="l" d="M42.92,157.2c-.86,0-1.58-.23-2.19-.7s-1.06-1.15-1.38-2.04c-.32-.89-.48-1.97-.48-3.24s.16-2.33,.48-3.22c.32-.89,.78-1.57,1.39-2.04,.6-.47,1.33-.71,2.18-.71s1.58,.24,2.18,.71c.6,.47,1.07,1.15,1.39,2.04,.32,.89,.48,1.97,.48,3.22s-.16,2.34-.48,3.24c-.32,.89-.78,1.57-1.38,2.04s-1.33,.7-2.19,.7Zm0-1.25c.85,0,1.51-.41,1.98-1.23s.7-1.98,.7-3.5c0-1.01-.11-1.87-.32-2.57-.21-.71-.52-1.25-.92-1.62-.4-.37-.88-.56-1.44-.56-.84,0-1.5,.41-1.97,1.24-.47,.83-.71,2-.71,3.51,0,1.01,.11,1.86,.32,2.57,.21,.7,.52,1.24,.92,1.61,.4,.37,.88,.55,1.45,.55Z"/></g><g><path class="l" d="M9.83,111.59c-.67,0-1.27-.13-1.8-.4-.53-.27-.96-.63-1.28-1.09-.32-.46-.5-.99-.53-1.58h1.36c.05,.53,.29,.96,.72,1.3s.94,.51,1.53,.51c.48,0,.9-.11,1.28-.33s.67-.53,.88-.92c.21-.39,.32-.84,.32-1.33s-.11-.96-.33-1.36c-.22-.4-.53-.71-.91-.95-.39-.23-.83-.35-1.32-.35-.36,0-.72,.05-1.1,.16-.38,.11-.68,.25-.93,.43l-1.32-.16,.7-5.73h6.05v1.25h-4.86l-.41,3.43h.07c.24-.19,.54-.35,.9-.47,.36-.12,.73-.19,1.12-.19,.71,0,1.35,.17,1.91,.51,.56,.34,1,.8,1.32,1.39,.32,.59,.48,1.26,.48,2.01s-.17,1.4-.5,1.99-.79,1.04-1.37,1.38c-.58,.33-1.24,.5-1.98,.5Z"/><path class="l" d="M22.92,111.59c-.86,0-1.58-.23-2.19-.7s-1.06-1.15-1.38-2.04c-.32-.89-.48-1.97-.48-3.24s.16-2.33,.48-3.22c.32-.89,.78-1.57,1.39-2.04,.6-.47,1.33-.71,2.18-.71s1.58,.24,2.18,.71c.6,.47,1.07,1.15,1.39,2.04,.32,.89,.48,1.97,.48,3.22s-.16,2.34-.48,3.24c-.32,.89-.78,1.57-1.38,2.04s-1.33,.7-2.19,.7Zm0-1.25c.85,0,1.51-.41,1.98-1.23s.7-1.98,.7-3.5c0-1.01-.11-1.87-.32-2.57-.21-.71-.52-1.25-.92-1.62-.4-.37-.88-.56-1.44-.56-.84,0-1.5,.41-1.97,1.24-.47,.83-.71,2-.71,3.51,0,1.01,.11,1.86,.32,2.57,.21,.7,.52,1.24,.92,1.61,.4,.37,.88,.55,1.45,.55Z"/><path class="l" d="M32.92,111.59c-.86,0-1.58-.23-2.19-.7s-1.06-1.15-1.38-2.04c-.32-.89-.48-1.97-.48-3.24s.16-2.33,.48-3.22c.32-.89,.78-1.57,1.39-2.04,.6-.47,1.33-.71,2.18-.71s1.58,.24,2.18,.71c.6,.47,1.07,1.15,1.39,2.04,.32,.89,.48,1.97,.48,3.22s-.16,2.34-.48,3.24c-.32,.89-.78,1.57-1.38,2.04s-1.33,.7-2.19,.7Zm0-1.25c.85,0,1.51-.41,1.98-1.23s.7-1.98,.7-3.5c0-1.01-.11-1.87-.32-2.57-.21-.71-.52-1.25-.92-1.62-.4-.37-.88-.56-1.44-.56-.84,0-1.5,.41-1.97,1.24-.47,.83-.71,2-.71,3.51,0,1.01,.11,1.86,.32,2.57,.21,.7,.52,1.24,.92,1.61,.4,.37,.88,.55,1.45,.55Z"/><path class="l" d="M42.92,111.59c-.86,0-1.58-.23-2.19-.7s-1.06-1.15-1.38-2.04c-.32-.89-.48-1.97-.48-3.24s.16-2.33,.48-3.22c.32-.89,.78-1.57,1.39-2.04,.6-.47,1.33-.71,2.18-.71s1.58,.24,2.18,.71c.6,.47,1.07,1.15,1.39,2.04,.32,.89,.48,1.97,.48,3.22s-.16,2.34-.48,3.24c-.32,.89-.78,1.57-1.38,2.04s-1.33,.7-2.19,.7Zm0-1.25c.85,0,1.51-.41,1.98-1.23s.7-1.98,.7-3.5c0-1.01-.11-1.87-.32-2.57-.21-.71-.52-1.25-.92-1.62-.4-.37-.88-.56-1.44-.56-.84,0-1.5,.41-1.97,1.24-.47,.83-.71,2-.71,3.51,0,1.01,.11,1.86,.32,2.57,.21,.7,.52,1.24,.92,1.61,.4,.37,.88,.55,1.45,.55Z"/><path class="l" d="M7.67,123.43v-6.55h.97v1.02h.09c.14-.35,.36-.62,.66-.82s.67-.29,1.1-.29,.79,.1,1.08,.29c.29,.19,.51,.47,.67,.82h.07c.17-.34,.42-.61,.75-.81,.33-.2,.74-.3,1.21-.3,.59,0,1.06,.18,1.44,.55s.56,.93,.56,1.7v4.38h-1.01v-4.38c0-.48-.13-.83-.4-1.04s-.58-.31-.93-.31c-.46,0-.82,.14-1.07,.42-.25,.28-.38,.63-.38,1.05v4.26h-1.02v-4.48c0-.37-.12-.67-.36-.9-.24-.23-.55-.34-.93-.34-.26,0-.5,.07-.73,.21-.23,.14-.41,.33-.55,.58-.14,.25-.21,.53-.21,.85v4.09h-1Z"/><path class="l" d="M18.62,115.8c-.2,0-.36-.07-.5-.2-.14-.13-.21-.29-.21-.48s.07-.35,.21-.48,.31-.2,.5-.2,.36,.07,.5,.2,.21,.29,.21,.48-.07,.35-.21,.48c-.14,.13-.31,.2-.5,.2Zm-.51,7.64v-6.55h1v6.55h-1Z"/><path class="l" d="M21.96,114.7v8.73h-1v-8.73h1Z"/><path class="l" d="M24.53,123.5c-.21,0-.39-.08-.54-.23-.15-.15-.23-.33-.23-.54s.08-.39,.23-.54,.33-.23,.54-.23,.39,.08,.54,.23,.23,.33,.23,.54c0,.14-.04,.27-.1,.38-.07,.12-.16,.21-.28,.28s-.24,.1-.39,.1Z"/><path class="l" d="M33.33,116.89v.85h-3.39v-.85h3.39Zm-2.4-1.57h1.01v6.24c0,.28,.04,.5,.13,.64s.19,.23,.32,.28c.13,.05,.27,.07,.42,.07,.11,0,.2,0,.27-.02,.07-.01,.13-.02,.17-.03l.21,.9c-.07,.03-.16,.05-.29,.08-.12,.03-.28,.04-.46,.04-.28,0-.56-.06-.83-.18-.27-.12-.5-.31-.67-.56s-.27-.57-.27-.95v-6.51Z"/><path class="l" d="M38.97,120.76v-3.87h1v6.55h-1v-1.11h-.07c-.15,.33-.39,.62-.72,.85-.32,.23-.73,.35-1.23,.35-.41,0-.77-.09-1.09-.27s-.57-.45-.75-.82c-.18-.36-.27-.83-.27-1.38v-4.16h1v4.09c0,.48,.13,.86,.4,1.14s.61,.43,1.03,.43c.25,0,.5-.06,.76-.19s.48-.32,.66-.59c.18-.26,.27-.6,.27-1.01Z"/><path class="l" d="M42.82,119.49v3.94h-1v-6.55h.97v1.02h.09c.15-.33,.39-.6,.7-.8s.72-.3,1.21-.3c.44,0,.83,.09,1.16,.27,.33,.18,.59,.45,.78,.82s.28,.83,.28,1.38v4.16h-1.01v-4.09c0-.51-.13-.92-.4-1.2-.27-.29-.63-.43-1.1-.43-.32,0-.61,.07-.86,.21-.25,.14-.45,.34-.59,.61-.14,.27-.22,.59-.22,.97Z"/><path class="l" d="M19.6,129.43h-1.06c-.06-.3-.17-.57-.33-.8-.15-.23-.34-.42-.56-.58-.22-.16-.46-.28-.73-.36-.27-.08-.54-.12-.83-.12-.53,0-1.01,.13-1.43,.4-.43,.27-.77,.66-1.02,1.18-.25,.52-.38,1.16-.38,1.91s.13,1.39,.38,1.91c.25,.52,.59,.91,1.02,1.18,.43,.27,.91,.4,1.43,.4,.29,0,.57-.04,.83-.12,.27-.08,.51-.2,.73-.36,.22-.16,.41-.35,.56-.58,.16-.23,.26-.5,.33-.8h1.06c-.08,.45-.22,.85-.43,1.2-.21,.35-.47,.65-.78,.9s-.66,.43-1.05,.56-.8,.19-1.24,.19c-.74,0-1.41-.18-1.99-.54-.58-.36-1.04-.88-1.37-1.55-.33-.67-.5-1.47-.5-2.39s.17-1.72,.5-2.39c.33-.67,.79-1.19,1.37-1.55,.58-.36,1.24-.55,1.99-.55,.44,0,.85,.06,1.24,.19,.39,.13,.74,.32,1.05,.56,.31,.25,.57,.54,.78,.9,.21,.35,.36,.75,.43,1.2Z"/><path class="l" d="M28.67,131.07c0,.92-.17,1.72-.5,2.39-.33,.67-.79,1.19-1.37,1.55-.58,.36-1.24,.54-1.99,.54s-1.41-.18-1.99-.54c-.58-.36-1.04-.88-1.37-1.55-.33-.67-.5-1.47-.5-2.39s.17-1.72,.5-2.39c.33-.67,.79-1.19,1.37-1.55,.58-.36,1.24-.55,1.99-.55s1.41,.18,1.99,.55c.58,.36,1.04,.88,1.37,1.55s.5,1.47,.5,2.39Zm-1.02,0c0-.76-.12-1.39-.38-1.91-.25-.52-.59-.91-1.02-1.18-.43-.27-.91-.4-1.43-.4s-1.01,.13-1.43,.4c-.43,.27-.77,.66-1.02,1.18-.25,.52-.38,1.16-.38,1.91s.13,1.39,.38,1.91c.25,.52,.59,.91,1.02,1.18,.43,.27,.91,.4,1.43,.4s1.01-.13,1.43-.4c.43-.27,.77-.66,1.02-1.18,.25-.52,.38-1.16,.38-1.91Z"/><path class="l" d="M29.91,137.43v-.45l1.68-1.84c.2-.22,.36-.4,.49-.56,.13-.16,.22-.31,.28-.45s.09-.29,.09-.45c0-.18-.04-.33-.13-.46-.08-.13-.2-.23-.35-.3-.15-.07-.31-.11-.5-.11-.2,0-.37,.04-.51,.12-.14,.08-.26,.19-.33,.34-.08,.14-.12,.31-.12,.51h-.59c0-.3,.07-.56,.21-.79,.14-.22,.33-.4,.56-.53s.5-.19,.8-.19,.56,.06,.79,.19,.41,.3,.54,.51c.13,.21,.2,.45,.2,.71,0,.19-.03,.37-.1,.55-.07,.18-.18,.38-.35,.59-.16,.22-.39,.48-.68,.8l-1.14,1.22v.04h2.37v.55h-3.21Z"/><path class="l" d="M37.28,135.57c-.63,0-1.17-.14-1.63-.42-.46-.28-.81-.67-1.05-1.18-.25-.5-.37-1.09-.37-1.76s.12-1.26,.37-1.77c.25-.51,.59-.91,1.03-1.2,.44-.29,.96-.43,1.55-.43,.34,0,.68,.06,1.01,.17,.33,.11,.63,.3,.91,.55,.27,.25,.49,.59,.65,1.01,.16,.42,.24,.93,.24,1.54v.43h-5.05v-.87h4.02c0-.37-.07-.7-.22-.99-.15-.29-.35-.52-.62-.69-.27-.17-.58-.25-.95-.25-.4,0-.75,.1-1.04,.3-.29,.2-.51,.45-.67,.77s-.23,.65-.23,1.01v.58c0,.49,.09,.91,.26,1.25,.17,.34,.41,.6,.72,.78,.31,.18,.66,.27,1.07,.27,.26,0,.5-.04,.72-.11s.4-.19,.56-.34c.16-.15,.28-.34,.36-.57l.97,.27c-.1,.33-.27,.62-.52,.87-.24,.25-.54,.44-.89,.58s-.75,.21-1.2,.21Z"/><path class="l" d="M45.99,137.89v-3.46h-.09c-.07,.12-.18,.27-.32,.45-.14,.18-.33,.34-.58,.48s-.59,.21-1.01,.21c-.54,0-1.03-.14-1.44-.42-.42-.28-.74-.67-.98-1.18-.24-.51-.35-1.11-.35-1.8s.12-1.28,.35-1.79c.24-.5,.56-.9,.98-1.17,.42-.28,.91-.41,1.46-.41,.43,0,.76,.07,1.01,.21,.25,.14,.44,.3,.57,.48s.24,.32,.31,.44h.12v-1.04h.97v9h-1Zm-1.86-3.22c.4,0,.74-.11,1.02-.32,.28-.21,.49-.5,.64-.88,.14-.38,.22-.81,.22-1.31s-.07-.92-.21-1.29c-.14-.37-.35-.65-.63-.86s-.62-.31-1.03-.31-.78,.11-1.06,.33c-.28,.22-.49,.51-.63,.88-.14,.37-.21,.79-.21,1.25s.07,.89,.22,1.27c.14,.38,.36,.68,.64,.9,.28,.22,.63,.33,1.05,.33Z"/></g><g><line class="h" x1="406.22" y1="189.03" x2="406.22" y2="222.77"/><polygon class="k" points="403.15 220.28 403.7 219.77 406.22 222.48 408.74 219.77 409.29 220.28 406.22 223.58 403.15 220.28"/></g><g><g><path class="j" d="M300.58,87.39v2.16h-5.97v-2.16h5.97Z"/><path class="j" d="M307.71,94.03c-.95,0-1.8-.17-2.55-.5-.74-.33-1.33-.79-1.76-1.37-.43-.58-.65-1.25-.66-2.02h2.79c.02,.32,.12,.6,.32,.84,.19,.24,.45,.43,.78,.56,.32,.13,.69,.2,1.09,.2s.79-.08,1.12-.22c.32-.15,.58-.36,.76-.62,.18-.26,.28-.57,.28-.91s-.1-.66-.29-.93-.47-.48-.83-.64-.79-.23-1.28-.23h-1.22v-2.03h1.22c.42,0,.79-.07,1.11-.22,.32-.14,.57-.35,.75-.6,.18-.26,.27-.56,.27-.9s-.08-.62-.23-.87c-.16-.25-.37-.44-.65-.58s-.6-.21-.97-.21-.72,.07-1.03,.2c-.31,.13-.56,.33-.75,.57s-.29,.54-.3,.87h-2.65c.01-.75,.23-1.42,.65-1.99s.98-1.03,1.69-1.35c.71-.33,1.51-.49,2.41-.49s1.69,.16,2.37,.49,1.21,.77,1.58,1.33c.38,.56,.56,1.18,.56,1.87,0,.73-.22,1.34-.68,1.83s-1.05,.8-1.79,.93v.1c.96,.12,1.7,.46,2.2,1,.5,.54,.76,1.22,.75,2.04,0,.75-.21,1.41-.64,1.99-.43,.58-1.03,1.04-1.79,1.37-.76,.33-1.63,.5-2.61,.5Z"/><path class="j" d="M314.75,93.85v-1.99l4.66-4.31c.4-.38,.73-.73,1-1.04,.27-.31,.48-.61,.62-.9s.21-.62,.21-.96c0-.38-.09-.71-.26-.99s-.41-.49-.72-.65-.65-.23-1.03-.23-.75,.08-1.05,.24c-.3,.16-.53,.39-.69,.7-.16,.3-.24,.66-.24,1.08h-2.63c0-.86,.19-1.6,.58-2.23s.93-1.12,1.63-1.46c.7-.35,1.5-.52,2.42-.52s1.75,.17,2.45,.5c.7,.33,1.24,.79,1.63,1.37,.39,.58,.58,1.25,.58,2.01,0,.49-.1,.98-.29,1.46-.19,.48-.54,1.02-1.03,1.6s-1.19,1.29-2.09,2.11l-1.91,1.87v.09h5.5v2.26h-9.33Z"/><path class="j" d="M330.71,83.9v-.69c0-.53,.11-1.01,.34-1.45,.23-.44,.55-.79,.98-1.06,.43-.26,.95-.4,1.56-.4s1.16,.13,1.58,.4c.43,.26,.75,.62,.97,1.06,.22,.44,.33,.93,.33,1.45v.69c0,.53-.11,1.01-.34,1.45-.22,.44-.55,.79-.98,1.05-.43,.26-.95,.39-1.58,.39s-1.15-.13-1.58-.4c-.43-.27-.75-.62-.97-1.05-.22-.44-.33-.92-.33-1.44Zm.84,9.95l9-13.09h1.67l-9,13.09h-1.67Zm1.03-10.64v.69c0,.31,.07,.6,.22,.86,.15,.26,.41,.4,.78,.4s.66-.13,.8-.4c.14-.26,.21-.55,.21-.86v-.69c0-.31-.07-.6-.21-.87-.14-.27-.41-.4-.81-.4-.38,0-.64,.14-.79,.41s-.22,.56-.22,.86Zm4.84,8.18v-.69c0-.52,.11-1.01,.34-1.45s.55-.79,.98-1.06c.43-.27,.95-.4,1.57-.4s1.15,.13,1.58,.4c.43,.26,.75,.62,.97,1.06,.22,.44,.33,.93,.33,1.45v.69c0,.52-.11,1.01-.33,1.45-.22,.44-.55,.79-.98,1.06-.43,.27-.95,.4-1.57,.4s-1.15-.13-1.58-.4c-.43-.27-.75-.62-.97-1.06s-.33-.92-.33-1.45Zm1.86-.69v.69c0,.3,.07,.59,.22,.86,.15,.27,.41,.4,.8,.4s.65-.13,.8-.4c.14-.26,.21-.55,.21-.86v-.69c0-.31-.07-.6-.2-.87-.14-.27-.41-.4-.81-.4s-.65,.13-.8,.4c-.15,.27-.22,.56-.22,.87Z"/><path d="M284.2,103.67l-3.03,8.18h-1.28l-3.03-8.18h1.36l2.26,6.52h.08l2.26-6.52h1.36Z"/><path d="M290.08,111.85v-8.18h1.21v1.24h.08c.15-.4,.42-.73,.81-.99s.83-.38,1.32-.38c.09,0,.21,0,.35,0,.14,0,.24,0,.31,.02v1.28s-.14-.03-.29-.05-.31-.03-.48-.03c-.4,0-.75,.08-1.06,.25-.31,.17-.56,.39-.74,.68-.18,.29-.27,.62-.27,.99v5.18h-1.26Z"/><path d="M298.98,112.02c-.74,0-1.39-.18-1.94-.53-.56-.35-.99-.84-1.3-1.48-.31-.63-.47-1.37-.47-2.22s.16-1.6,.47-2.23c.31-.64,.74-1.13,1.3-1.48,.56-.35,1.2-.53,1.94-.53s1.39,.18,1.94,.53,.99,.84,1.3,1.48,.47,1.38,.47,2.23-.16,1.58-.47,2.22c-.31,.63-.74,1.12-1.3,1.48s-1.2,.53-1.94,.53Zm0-1.13c.56,0,1.02-.14,1.38-.43,.36-.29,.63-.67,.8-1.13,.17-.47,.26-.98,.26-1.52s-.09-1.06-.26-1.53c-.17-.47-.44-.85-.8-1.15-.36-.29-.82-.44-1.38-.44s-1.02,.15-1.38,.44c-.36,.29-.63,.67-.8,1.15-.17,.47-.26,.98-.26,1.53s.09,1.05,.26,1.52,.44,.85,.8,1.13c.36,.29,.82,.43,1.38,.43Z"/><path d="M307.93,112.02c-.77,0-1.43-.18-1.98-.54-.55-.36-.98-.86-1.28-1.5-.3-.63-.45-1.36-.45-2.18s.15-1.57,.46-2.2c.31-.64,.74-1.14,1.29-1.5,.55-.36,1.2-.54,1.94-.54,.58,0,1.09,.11,1.56,.32,.46,.21,.84,.51,1.13,.89,.29,.38,.48,.83,.55,1.34h-1.26c-.1-.37-.31-.7-.64-.99-.33-.29-.77-.43-1.32-.43-.49,0-.92,.13-1.29,.38-.37,.25-.65,.61-.86,1.07-.2,.46-.31,1-.31,1.62s.1,1.18,.3,1.65c.2,.47,.48,.83,.85,1.09,.37,.26,.8,.39,1.3,.39,.33,0,.62-.06,.89-.17,.27-.11,.49-.28,.68-.49s.32-.47,.39-.77h1.26c-.07,.48-.25,.92-.52,1.3-.28,.39-.65,.69-1.1,.92s-.99,.34-1.59,.34Z"/><path d="M316.41,112.02c-.79,0-1.47-.18-2.04-.53-.57-.35-1.01-.84-1.32-1.47-.31-.63-.46-1.36-.46-2.2s.15-1.58,.46-2.22c.31-.64,.74-1.14,1.29-1.5,.55-.36,1.2-.54,1.94-.54,.43,0,.85,.07,1.26,.21,.42,.14,.79,.37,1.13,.69,.34,.32,.61,.74,.81,1.26,.2,.52,.3,1.17,.3,1.93v.53h-6.31v-1.09h5.03c0-.46-.09-.87-.27-1.24s-.44-.65-.78-.86c-.34-.21-.73-.31-1.19-.31-.5,0-.93,.12-1.3,.37s-.64,.57-.84,.96c-.2,.39-.29,.82-.29,1.27v.72c0,.62,.11,1.14,.32,1.57s.51,.75,.9,.97c.38,.22,.83,.33,1.34,.33,.33,0,.63-.05,.9-.14,.27-.09,.5-.24,.7-.43,.2-.19,.35-.43,.45-.71l1.21,.34c-.13,.41-.34,.77-.64,1.08s-.67,.55-1.12,.72c-.44,.17-.94,.26-1.5,.26Z"/><path d="M325.91,111.85v-.96l3.6-3.94c.42-.46,.77-.86,1.04-1.21s.48-.67,.61-.97c.13-.3,.2-.62,.2-.96,0-.38-.09-.72-.27-1-.18-.28-.43-.5-.75-.65-.32-.15-.67-.23-1.07-.23-.42,0-.78,.09-1.09,.26-.31,.17-.55,.41-.72,.72-.17,.31-.25,.67-.25,1.09h-1.26c0-.64,.15-1.2,.44-1.68,.29-.48,.7-.86,1.21-1.13s1.08-.41,1.72-.41,1.21,.14,1.7,.41c.49,.27,.88,.63,1.16,1.09,.28,.46,.42,.97,.42,1.53,0,.4-.07,.79-.22,1.17-.14,.38-.39,.81-.75,1.27s-.84,1.04-1.47,1.71l-2.45,2.62v.08h5.07v1.17h-6.88Z"/><path d="M338.55,112c-.8,0-1.49-.22-2.05-.66s-1-1.08-1.29-1.91c-.3-.84-.45-1.85-.45-3.03s.15-2.19,.45-3.02c.3-.84,.73-1.48,1.3-1.92,.57-.44,1.25-.66,2.04-.66s1.48,.22,2.04,.66c.57,.44,1,1.08,1.3,1.92,.3,.84,.45,1.84,.45,3.02s-.15,2.2-.45,3.03c-.3,.84-.73,1.47-1.29,1.91s-1.25,.66-2.05,.66Zm0-1.17c.8,0,1.41-.38,1.85-1.15,.44-.77,.66-1.86,.66-3.28,0-.95-.1-1.75-.3-2.41-.2-.66-.49-1.17-.86-1.52-.38-.35-.83-.52-1.35-.52-.79,0-1.4,.39-1.85,1.16-.44,.78-.67,1.87-.67,3.29,0,.94,.1,1.75,.3,2.41s.49,1.16,.86,1.51c.37,.34,.83,.52,1.36,.52Z"/><path d="M344.37,111.85v-.96l3.6-3.94c.42-.46,.77-.86,1.04-1.21s.48-.67,.61-.97c.13-.3,.2-.62,.2-.96,0-.38-.09-.72-.27-1-.18-.28-.43-.5-.75-.65-.32-.15-.67-.23-1.07-.23-.42,0-.78,.09-1.09,.26-.31,.17-.55,.41-.72,.72-.17,.31-.25,.67-.25,1.09h-1.26c0-.64,.15-1.2,.44-1.68,.29-.48,.7-.86,1.21-1.13s1.08-.41,1.72-.41,1.21,.14,1.7,.41c.49,.27,.88,.63,1.16,1.09,.28,.46,.42,.97,.42,1.53,0,.4-.07,.79-.22,1.17-.14,.38-.39,.81-.75,1.27s-.84,1.04-1.47,1.71l-2.45,2.62v.08h5.07v1.17h-6.88Z"/><path d="M357,112c-.8,0-1.49-.22-2.05-.66s-1-1.08-1.29-1.91c-.3-.84-.45-1.85-.45-3.03s.15-2.19,.45-3.02c.3-.84,.73-1.48,1.3-1.92,.57-.44,1.25-.66,2.04-.66s1.48,.22,2.04,.66c.57,.44,1,1.08,1.3,1.92,.3,.84,.45,1.84,.45,3.02s-.15,2.2-.45,3.03c-.3,.84-.73,1.47-1.29,1.91s-1.25,.66-2.05,.66Zm0-1.17c.8,0,1.41-.38,1.85-1.15,.44-.77,.66-1.86,.66-3.28,0-.95-.1-1.75-.3-2.41-.2-.66-.49-1.17-.86-1.52-.38-.35-.83-.52-1.35-.52-.79,0-1.4,.39-1.85,1.16-.44,.78-.67,1.87-.67,3.29,0,.94,.1,1.75,.3,2.41s.49,1.16,.86,1.51c.37,.34,.83,.52,1.36,.52Z"/><path d="M265.23,130.02c-.74,0-1.39-.18-1.94-.53-.56-.35-.99-.84-1.3-1.48-.31-.63-.47-1.37-.47-2.22s.16-1.6,.47-2.23c.31-.64,.74-1.13,1.3-1.48,.56-.35,1.2-.53,1.94-.53s1.39,.18,1.94,.53,.99,.84,1.3,1.48,.47,1.38,.47,2.23-.16,1.58-.47,2.22c-.31,.63-.74,1.12-1.3,1.48s-1.2,.53-1.94,.53Zm0-1.13c.56,0,1.02-.14,1.38-.43,.36-.29,.63-.67,.8-1.13,.17-.47,.26-.98,.26-1.52s-.09-1.06-.26-1.53c-.17-.47-.44-.85-.8-1.15-.36-.29-.82-.44-1.38-.44s-1.02,.15-1.38,.44c-.36,.29-.63,.67-.8,1.15-.17,.47-.26,.98-.26,1.53s.09,1.05,.26,1.52,.44,.85,.8,1.13c.36,.29,.82,.43,1.38,.43Z"/><path d="M270.86,132.92v-11.25h1.21v1.3h.15c.09-.14,.22-.32,.39-.55,.17-.22,.4-.42,.71-.6s.73-.26,1.26-.26c.69,0,1.3,.17,1.82,.52s.94,.83,1.23,1.46,.44,1.38,.44,2.24-.15,1.62-.44,2.25-.7,1.12-1.23,1.47c-.52,.35-1.12,.52-1.81,.52-.53,0-.95-.09-1.26-.26-.32-.18-.56-.38-.73-.6-.17-.23-.3-.41-.39-.56h-.11v4.33h-1.26Zm1.24-7.16c0,.62,.09,1.16,.27,1.63,.18,.47,.45,.84,.79,1.1,.35,.26,.77,.4,1.28,.4s.96-.14,1.32-.42c.35-.28,.62-.66,.8-1.13,.18-.47,.27-1,.27-1.58s-.09-1.09-.26-1.56c-.18-.46-.44-.83-.79-1.1-.35-.27-.8-.41-1.33-.41s-.94,.13-1.29,.39c-.35,.26-.61,.62-.79,1.08s-.27,1-.27,1.61Z"/><path d="M280,129.85v-8.18h1.21v1.24h.08c.15-.4,.42-.73,.81-.99s.83-.38,1.32-.38c.09,0,.21,0,.35,0,.14,0,.24,0,.31,.02v1.28s-.14-.03-.29-.05-.31-.03-.48-.03c-.4,0-.75,.08-1.06,.25-.31,.17-.56,.39-.74,.68-.18,.29-.27,.62-.27,.99v5.18h-1.26Z"/><path d="M288.91,130.02c-.74,0-1.39-.18-1.94-.53-.56-.35-.99-.84-1.3-1.48-.31-.63-.47-1.37-.47-2.22s.16-1.6,.47-2.23c.31-.64,.74-1.13,1.3-1.48,.56-.35,1.2-.53,1.94-.53s1.39,.18,1.94,.53,.99,.84,1.3,1.48,.47,1.38,.47,2.23-.16,1.58-.47,2.22c-.31,.63-.74,1.12-1.3,1.48s-1.2,.53-1.94,.53Zm0-1.13c.56,0,1.02-.14,1.38-.43,.36-.29,.63-.67,.8-1.13,.17-.47,.26-.98,.26-1.52s-.09-1.06-.26-1.53c-.17-.47-.44-.85-.8-1.15-.36-.29-.82-.44-1.38-.44s-1.02,.15-1.38,.44c-.36,.29-.63,.67-.8,1.15-.17,.47-.26,.98-.26,1.53s.09,1.05,.26,1.52,.44,.85,.8,1.13c.36,.29,.82,.43,1.38,.43Z"/><path d="M298.09,121.67v1.07h-4.24v-1.07h4.24Zm-3-1.96h1.26v7.8c0,.36,.05,.62,.16,.8,.1,.18,.24,.29,.4,.35s.34,.09,.52,.09c.14,0,.25,0,.34-.02,.09-.02,.16-.03,.21-.04l.26,1.13c-.09,.03-.21,.07-.36,.1-.15,.03-.35,.05-.58,.05-.36,0-.7-.08-1.04-.23-.34-.15-.62-.39-.84-.7-.22-.31-.33-.71-.33-1.18v-8.14Z"/><path d="M300.62,120.3c-.25,0-.46-.08-.63-.25s-.26-.37-.26-.6,.09-.44,.26-.6,.39-.25,.63-.25,.46,.08,.63,.25,.26,.37,.26,.6-.09,.43-.26,.6-.39,.25-.63,.25Zm-.64,9.55v-8.18h1.26v8.18h-1.26Z"/><path d="M307.76,129.85v-8.18h1.21v1.24h.08c.15-.4,.42-.73,.81-.99s.83-.38,1.32-.38c.09,0,.21,0,.35,0,.14,0,.24,0,.31,.02v1.28s-.14-.03-.29-.05-.31-.03-.48-.03c-.4,0-.75,.08-1.06,.25-.31,.17-.56,.39-.74,.68-.18,.29-.27,.62-.27,.99v5.18h-1.26Z"/><path d="M316.67,130.02c-.74,0-1.39-.18-1.94-.53-.56-.35-.99-.84-1.3-1.48-.31-.63-.47-1.37-.47-2.22s.16-1.6,.47-2.23c.31-.64,.74-1.13,1.3-1.48,.56-.35,1.2-.53,1.94-.53s1.39,.18,1.94,.53,.99,.84,1.3,1.48,.47,1.38,.47,2.23-.16,1.58-.47,2.22c-.31,.63-.74,1.12-1.3,1.48s-1.2,.53-1.94,.53Zm0-1.13c.56,0,1.02-.14,1.38-.43,.36-.29,.63-.67,.8-1.13,.17-.47,.26-.98,.26-1.52s-.09-1.06-.26-1.53c-.17-.47-.44-.85-.8-1.15-.36-.29-.82-.44-1.38-.44s-1.02,.15-1.38,.44c-.36,.29-.63,.67-.8,1.15-.17,.47-.26,.98-.26,1.53s.09,1.05,.26,1.52,.44,.85,.8,1.13c.36,.29,.82,.43,1.38,.43Z"/><path d="M322.29,129.85v-10.91h1.26v10.91h-1.26Zm1.17-2.98l-.02-1.55h.26l3.58-3.64h1.55l-3.81,3.86h-.11l-1.45,1.34Zm4.03,2.98l-3.2-4.05,.89-.87,3.9,4.92h-1.6Z"/><path d="M335.61,126.51v-4.84h1.26v8.18h-1.26v-1.38h-.08c-.19,.42-.49,.77-.89,1.06-.41,.29-.92,.43-1.53,.43-.51,0-.97-.11-1.36-.34s-.71-.57-.94-1.02c-.23-.46-.34-1.03-.34-1.73v-5.2h1.26v5.11c0,.6,.17,1.07,.5,1.43s.76,.53,1.29,.53c.31,0,.63-.08,.96-.24,.33-.16,.6-.41,.82-.74s.33-.75,.33-1.26Z"/><path d="M347.2,118.94v10.91h-1.32v-9.52h-.06l-2.66,1.77v-1.34l2.73-1.81h1.32Z"/><path d="M353.81,118.79c.45,0,.89,.09,1.34,.26s.86,.44,1.23,.83c.37,.39,.67,.91,.89,1.57s.33,1.5,.33,2.5-.09,1.83-.27,2.58c-.18,.75-.45,1.38-.79,1.9-.34,.51-.76,.91-1.25,1.17-.49,.27-1.04,.4-1.65,.4s-1.16-.12-1.63-.37-.87-.58-1.17-1.02c-.3-.43-.5-.94-.58-1.52h1.3c.12,.5,.35,.91,.7,1.24,.35,.32,.81,.49,1.39,.49,.84,0,1.51-.37,2-1.1,.49-.74,.73-1.77,.73-3.12h-.08c-.2,.3-.44,.56-.71,.77-.27,.22-.58,.38-.91,.5-.33,.12-.69,.18-1.06,.18-.63,0-1.2-.16-1.72-.47-.52-.31-.94-.74-1.25-1.28-.31-.55-.47-1.17-.47-1.87,0-.67,.15-1.28,.45-1.83,.3-.56,.72-1,1.27-1.33s1.19-.49,1.93-.48Zm0,1.17c-.45,0-.85,.11-1.21,.33-.36,.22-.64,.52-.85,.9-.21,.37-.31,.79-.31,1.24s.1,.87,.3,1.24c.2,.37,.48,.67,.83,.88,.35,.22,.75,.33,1.2,.33,.34,0,.65-.07,.94-.2,.29-.13,.55-.32,.76-.55,.22-.23,.39-.5,.51-.79,.12-.3,.19-.61,.19-.93,0-.43-.1-.83-.31-1.2s-.48-.67-.84-.91c-.36-.23-.76-.35-1.22-.35Z"/><path d="M363.16,118.79c.45,0,.89,.09,1.34,.26s.86,.44,1.23,.83c.37,.39,.67,.91,.89,1.57s.33,1.5,.33,2.5-.09,1.83-.27,2.58c-.18,.75-.45,1.38-.79,1.9-.34,.51-.76,.91-1.25,1.17-.49,.27-1.04,.4-1.65,.4s-1.16-.12-1.63-.37-.87-.58-1.17-1.02c-.3-.43-.5-.94-.58-1.52h1.3c.12,.5,.35,.91,.7,1.24,.35,.32,.81,.49,1.39,.49,.84,0,1.51-.37,2-1.1,.49-.74,.73-1.77,.73-3.12h-.08c-.2,.3-.44,.56-.71,.77-.27,.22-.58,.38-.91,.5-.33,.12-.69,.18-1.06,.18-.63,0-1.2-.16-1.72-.47-.52-.31-.94-.74-1.25-1.28-.31-.55-.47-1.17-.47-1.87,0-.67,.15-1.28,.45-1.83,.3-.56,.72-1,1.27-1.33s1.19-.49,1.93-.48Zm0,1.17c-.45,0-.85,.11-1.21,.33-.36,.22-.64,.52-.85,.9-.21,.37-.31,.79-.31,1.24s.1,.87,.3,1.24c.2,.37,.48,.67,.83,.88,.35,.22,.75,.33,1.2,.33,.34,0,.65-.07,.94-.2,.29-.13,.55-.32,.76-.55,.22-.23,.39-.5,.51-.79,.12-.3,.19-.61,.19-.93,0-.43-.1-.83-.31-1.2s-.48-.67-.84-.91c-.36-.23-.76-.35-1.22-.35Z"/><path d="M372.6,130c-.8,0-1.49-.22-2.05-.66s-1-1.08-1.29-1.91c-.3-.84-.45-1.85-.45-3.03s.15-2.19,.45-3.02c.3-.84,.73-1.48,1.3-1.92,.57-.44,1.25-.66,2.04-.66s1.48,.22,2.04,.66c.57,.44,1,1.08,1.3,1.92,.3,.84,.45,1.84,.45,3.02s-.15,2.2-.45,3.03c-.3,.84-.73,1.47-1.29,1.91s-1.25,.66-2.05,.66Zm0-1.17c.8,0,1.41-.38,1.85-1.15,.44-.77,.66-1.86,.66-3.28,0-.95-.1-1.75-.3-2.41-.2-.66-.49-1.17-.86-1.52-.38-.35-.83-.52-1.35-.52-.79,0-1.4,.39-1.85,1.16-.44,.78-.67,1.87-.67,3.29,0,.94,.1,1.75,.3,2.41s.49,1.16,.86,1.51c.37,.34,.83,.52,1.36,.52Z"/></g><g><line class="h" x1="319.02" y1="140.31" x2="319.02" y2="174.05"/><polygon class="k" points="315.96 171.57 316.51 171.06 319.02 173.77 321.54 171.06 322.09 171.57 319.02 174.87 315.96 171.57"/></g></g><g><line class="h" x1="580.61" y1="284.18" x2="580.61" y2="317.92"/><polygon class="k" points="577.55 315.44 578.1 314.92 580.61 317.63 583.13 314.92 583.68 315.44 580.61 318.73 577.55 315.44"/></g><rect class="n" x="401.85" y="230.82" width="8.73" height="95.3"/><line class="c" x1="50.91" y1="196.05" x2="394.9" y2="196.05"/><line class="c" x1="50.91" y1="282.76" x2="516.69" y2="282.76"/><line class="d" x1="56.18" y1="326.63" x2="581.01" y2="326.63"/><line class="c" x1="50.91" y1="239.4" x2="451.98" y2="239.4"/><g><path class="n" d="M387.78,136.11v2.16h-5.97v-2.16h5.97Z"/><path class="n" d="M394.86,142.74c-.9,0-1.71-.17-2.41-.5-.71-.33-1.26-.79-1.68-1.38-.41-.58-.63-1.25-.65-2.01h2.68c.03,.51,.24,.92,.64,1.23,.4,.32,.87,.47,1.41,.47,.43,0,.82-.1,1.15-.29s.6-.46,.79-.81c.19-.35,.28-.75,.28-1.2s-.1-.86-.29-1.21c-.19-.35-.46-.62-.8-.82s-.73-.3-1.17-.3c-.38,0-.75,.08-1.12,.24-.36,.16-.64,.37-.84,.65l-2.46-.44,.62-6.9h8v2.26h-5.72l-.34,3.28h.08c.23-.32,.58-.59,1.04-.81,.46-.21,.98-.32,1.56-.32,.79,0,1.49,.19,2.11,.56,.62,.37,1.11,.88,1.46,1.52,.36,.65,.53,1.39,.53,2.23,0,.88-.2,1.67-.61,2.35s-.98,1.22-1.72,1.61c-.74,.39-1.59,.58-2.56,.58Z"/><path class="n" d="M406.46,142.74c-.9,0-1.71-.17-2.41-.5-.71-.33-1.26-.79-1.68-1.38-.41-.58-.63-1.25-.65-2.01h2.68c.03,.51,.24,.92,.64,1.23,.4,.32,.87,.47,1.41,.47,.43,0,.82-.1,1.15-.29s.6-.46,.79-.81c.19-.35,.28-.75,.28-1.2s-.1-.86-.29-1.21c-.19-.35-.46-.62-.8-.82s-.73-.3-1.17-.3c-.38,0-.75,.08-1.12,.24-.36,.16-.64,.37-.84,.65l-2.46-.44,.62-6.9h8v2.26h-5.72l-.34,3.28h.08c.23-.32,.58-.59,1.04-.81,.46-.21,.98-.32,1.56-.32,.79,0,1.49,.19,2.11,.56,.62,.37,1.11,.88,1.46,1.52,.36,.65,.53,1.39,.53,2.23,0,.88-.2,1.67-.61,2.35s-.98,1.22-1.72,1.61c-.74,.39-1.59,.58-2.56,.58Z"/><path class="n" d="M417.9,132.62v-.69c0-.53,.11-1.01,.34-1.45,.23-.44,.55-.79,.98-1.06,.43-.26,.95-.4,1.56-.4s1.16,.13,1.58,.4c.43,.26,.75,.62,.97,1.06,.22,.44,.33,.93,.33,1.45v.69c0,.53-.11,1.01-.34,1.45-.22,.44-.55,.79-.98,1.05-.43,.26-.95,.39-1.58,.39s-1.15-.13-1.58-.4c-.43-.27-.75-.62-.97-1.05-.22-.44-.33-.92-.33-1.44Zm.84,9.95l9-13.09h1.67l-9,13.09h-1.67Zm1.03-10.64v.69c0,.31,.07,.6,.22,.86,.15,.26,.41,.4,.78,.4s.66-.13,.8-.4c.14-.26,.21-.55,.21-.86v-.69c0-.31-.07-.6-.21-.87-.14-.27-.41-.4-.81-.4-.38,0-.64,.14-.79,.41s-.22,.56-.22,.86Zm4.84,8.18v-.69c0-.52,.11-1.01,.34-1.45s.55-.79,.98-1.06c.43-.27,.95-.4,1.57-.4s1.15,.13,1.58,.4c.43,.26,.75,.62,.97,1.06,.22,.44,.33,.93,.33,1.45v.69c0,.52-.11,1.01-.33,1.45-.22,.44-.55,.79-.98,1.06-.43,.27-.95,.4-1.57,.4s-1.15-.13-1.58-.4c-.43-.27-.75-.62-.97-1.06s-.33-.92-.33-1.45Zm1.86-.69v.69c0,.3,.07,.59,.22,.86,.15,.27,.41,.4,.8,.4s.65-.13,.8-.4c.14-.26,.21-.55,.21-.86v-.69c0-.31-.07-.6-.2-.87-.14-.27-.41-.4-.81-.4s-.65,.13-.8,.4c-.15,.27-.22,.56-.22,.87Z"/><path d="M362.72,160.73c-.68,0-1.28-.17-1.81-.52-.52-.35-.93-.84-1.23-1.47s-.44-1.38-.44-2.25,.15-1.61,.44-2.24,.71-1.12,1.23-1.46,1.13-.52,1.82-.52c.53,0,.95,.09,1.26,.26s.55,.37,.71,.6c.17,.22,.29,.4,.39,.55h.11v-4.03h1.26v10.91h-1.21v-1.26h-.15c-.09,.15-.22,.34-.39,.56-.17,.23-.41,.43-.73,.6-.32,.18-.74,.26-1.26,.26Zm.17-1.13c.5,0,.93-.13,1.28-.4,.35-.26,.61-.63,.79-1.1,.18-.47,.27-1.01,.27-1.63s-.09-1.15-.27-1.61c-.18-.46-.44-.82-.79-1.08-.35-.26-.78-.39-1.29-.39s-.98,.14-1.33,.41c-.35,.27-.62,.64-.79,1.1-.18,.46-.26,.98-.26,1.56s.09,1.11,.27,1.58c.18,.47,.45,.85,.8,1.13,.35,.28,.79,.42,1.32,.42Z"/><path d="M372.27,160.73c-.74,0-1.39-.18-1.94-.53-.56-.35-.99-.84-1.3-1.48-.31-.63-.47-1.37-.47-2.22s.16-1.6,.47-2.23c.31-.64,.74-1.13,1.3-1.48,.56-.35,1.2-.53,1.94-.53s1.39,.18,1.94,.53,.99,.84,1.3,1.48,.47,1.38,.47,2.23-.16,1.58-.47,2.22c-.31,.63-.74,1.12-1.3,1.48s-1.2,.53-1.94,.53Zm0-1.13c.56,0,1.02-.14,1.38-.43,.36-.29,.63-.67,.8-1.13,.17-.47,.26-.98,.26-1.52s-.09-1.06-.26-1.53c-.17-.47-.44-.85-.8-1.15-.36-.29-.82-.44-1.38-.44s-1.02,.15-1.38,.44c-.36,.29-.63,.67-.8,1.15-.17,.47-.26,.98-.26,1.53s.09,1.05,.26,1.52,.44,.85,.8,1.13c.36,.29,.82,.43,1.38,.43Z"/><path d="M382.11,160.56v-8.18h1.21v1.24h.08c.15-.4,.42-.73,.81-.99s.83-.38,1.32-.38c.09,0,.21,0,.35,0,.14,0,.24,0,.31,.02v1.28s-.14-.03-.29-.05-.31-.03-.48-.03c-.4,0-.75,.08-1.06,.25-.31,.17-.56,.39-.74,.68-.18,.29-.27,.62-.27,.99v5.18h-1.26Z"/><path d="M391.02,160.73c-.74,0-1.39-.18-1.94-.53-.56-.35-.99-.84-1.3-1.48-.31-.63-.47-1.37-.47-2.22s.16-1.6,.47-2.23c.31-.64,.74-1.13,1.3-1.48,.56-.35,1.2-.53,1.94-.53s1.39,.18,1.94,.53,.99,.84,1.3,1.48,.47,1.38,.47,2.23-.16,1.58-.47,2.22c-.31,.63-.74,1.12-1.3,1.48s-1.2,.53-1.94,.53Zm0-1.13c.56,0,1.02-.14,1.38-.43,.36-.29,.63-.67,.8-1.13,.17-.47,.26-.98,.26-1.52s-.09-1.06-.26-1.53c-.17-.47-.44-.85-.8-1.15-.36-.29-.82-.44-1.38-.44s-1.02,.15-1.38,.44c-.36,.29-.63,.67-.8,1.15-.17,.47-.26,.98-.26,1.53s.09,1.05,.26,1.52,.44,.85,.8,1.13c.36,.29,.82,.43,1.38,.43Z"/><path d="M396.64,160.56v-10.91h1.26v10.91h-1.26Zm1.17-2.98l-.02-1.55h.26l3.58-3.64h1.55l-3.81,3.86h-.11l-1.45,1.34Zm4.03,2.98l-3.2-4.05,.89-.87,3.9,4.92h-1.6Z"/><path d="M409.96,157.22v-4.84h1.26v8.18h-1.26v-1.38h-.08c-.19,.42-.49,.77-.89,1.06-.41,.29-.92,.43-1.53,.43-.51,0-.97-.11-1.36-.34s-.71-.57-.94-1.02c-.23-.46-.34-1.03-.34-1.73v-5.2h1.26v5.11c0,.6,.17,1.07,.5,1.43s.76,.53,1.29,.53c.31,0,.63-.08,.96-.24,.33-.16,.6-.41,.82-.74s.33-.75,.33-1.26Z"/><path d="M417.71,160.56v-.96l3.6-3.94c.42-.46,.77-.86,1.04-1.21s.48-.67,.61-.97c.13-.3,.2-.62,.2-.96,0-.38-.09-.72-.27-1-.18-.28-.43-.5-.75-.65-.32-.15-.67-.23-1.07-.23-.42,0-.78,.09-1.09,.26-.31,.17-.55,.41-.72,.72-.17,.31-.25,.67-.25,1.09h-1.26c0-.64,.15-1.2,.44-1.68,.29-.48,.7-.86,1.21-1.13s1.08-.41,1.72-.41,1.21,.14,1.7,.41c.49,.27,.88,.63,1.16,1.09,.28,.46,.42,.97,.42,1.53,0,.4-.07,.79-.22,1.17-.14,.38-.39,.81-.75,1.27s-.84,1.04-1.47,1.71l-2.45,2.62v.08h5.07v1.17h-6.88Z"/><path d="M430.35,160.71c-.8,0-1.49-.22-2.05-.66s-1-1.08-1.29-1.91c-.3-.84-.45-1.85-.45-3.03s.15-2.19,.45-3.02c.3-.84,.73-1.48,1.3-1.92,.57-.44,1.25-.66,2.04-.66s1.48,.22,2.04,.66c.57,.44,1,1.08,1.3,1.92,.3,.84,.45,1.84,.45,3.02s-.15,2.2-.45,3.03c-.3,.84-.73,1.47-1.29,1.91s-1.25,.66-2.05,.66Zm0-1.17c.8,0,1.41-.38,1.85-1.15,.44-.77,.66-1.86,.66-3.28,0-.95-.1-1.75-.3-2.41-.2-.66-.49-1.17-.86-1.52-.38-.35-.83-.52-1.35-.52-.79,0-1.4,.39-1.85,1.16-.44,.78-.67,1.87-.67,3.29,0,.94,.1,1.75,.3,2.41s.49,1.16,.86,1.51c.37,.34,.83,.52,1.36,.52Z"/><path d="M439.85,160.71c-.7,0-1.33-.12-1.88-.36s-.98-.58-1.3-1.01-.5-.93-.52-1.5h1.34c.03,.35,.15,.65,.36,.91s.49,.45,.84,.59c.34,.14,.73,.21,1.15,.21,.47,0,.88-.08,1.25-.25,.36-.16,.65-.39,.85-.68s.31-.63,.31-1.01-.1-.75-.3-1.06c-.2-.31-.49-.55-.87-.72-.38-.17-.85-.26-1.41-.26h-.87v-1.17h.87c.43,0,.81-.08,1.14-.23,.33-.16,.59-.38,.77-.66,.19-.28,.28-.62,.28-1s-.08-.69-.25-.96-.39-.49-.69-.64c-.3-.15-.65-.23-1.05-.23-.38,0-.73,.07-1.06,.21-.33,.14-.6,.33-.81,.59-.21,.26-.32,.57-.34,.93h-1.28c.02-.57,.19-1.07,.52-1.5,.32-.43,.75-.77,1.27-1.01,.52-.24,1.1-.36,1.73-.36,.67,0,1.25,.14,1.74,.41,.48,.27,.85,.63,1.11,1.07,.26,.44,.39,.92,.39,1.44,0,.62-.16,1.14-.48,1.57-.32,.43-.76,.73-1.31,.9v.09c.69,.11,1.23,.41,1.61,.88s.58,1.05,.58,1.74c0,.59-.16,1.12-.48,1.6s-.76,.84-1.31,1.11c-.55,.27-1.18,.41-1.89,.41Z"/><path d="M449.27,160.71c-.8,0-1.49-.22-2.05-.66s-1-1.08-1.29-1.91c-.3-.84-.45-1.85-.45-3.03s.15-2.19,.45-3.02c.3-.84,.73-1.48,1.3-1.92,.57-.44,1.25-.66,2.04-.66s1.48,.22,2.04,.66c.57,.44,1,1.08,1.3,1.92,.3,.84,.45,1.84,.45,3.02s-.15,2.2-.45,3.03c-.3,.84-.73,1.47-1.29,1.91s-1.25,.66-2.05,.66Zm0-1.17c.8,0,1.41-.38,1.85-1.15,.44-.77,.66-1.86,.66-3.28,0-.95-.1-1.75-.3-2.41-.2-.66-.49-1.17-.86-1.52-.38-.35-.83-.52-1.35-.52-.79,0-1.4,.39-1.85,1.16-.44,.78-.67,1.87-.67,3.29,0,.94,.1,1.75,.3,2.41s.49,1.16,.86,1.51c.37,.34,.83,.52,1.36,.52Z"/><path d="M352.43,178.73c-.74,0-1.39-.18-1.94-.53-.56-.35-.99-.84-1.3-1.48-.31-.63-.47-1.37-.47-2.22s.16-1.6,.47-2.23c.31-.64,.74-1.13,1.3-1.48,.56-.35,1.2-.53,1.94-.53s1.39,.18,1.94,.53,.99,.84,1.3,1.48,.47,1.38,.47,2.23-.16,1.58-.47,2.22c-.31,.63-.74,1.12-1.3,1.48s-1.2,.53-1.94,.53Zm0-1.13c.56,0,1.02-.14,1.38-.43,.36-.29,.63-.67,.8-1.13,.17-.47,.26-.98,.26-1.52s-.09-1.06-.26-1.53c-.17-.47-.44-.85-.8-1.15-.36-.29-.82-.44-1.38-.44s-1.02,.15-1.38,.44c-.36,.29-.63,.67-.8,1.15-.17,.47-.26,.98-.26,1.53s.09,1.05,.26,1.52,.44,.85,.8,1.13c.36,.29,.82,.43,1.38,.43Z"/><path d="M358.06,181.63v-11.25h1.21v1.3h.15c.09-.14,.22-.32,.39-.55,.17-.22,.4-.42,.71-.6s.73-.26,1.26-.26c.69,0,1.3,.17,1.82,.52s.94,.83,1.23,1.46,.44,1.38,.44,2.24-.15,1.62-.44,2.25-.7,1.12-1.23,1.47c-.52,.35-1.12,.52-1.81,.52-.53,0-.95-.09-1.26-.26-.32-.18-.56-.38-.73-.6-.17-.23-.3-.41-.39-.56h-.11v4.33h-1.26Zm1.24-7.16c0,.62,.09,1.16,.27,1.63,.18,.47,.45,.84,.79,1.1,.35,.26,.77,.4,1.28,.4s.96-.14,1.32-.42c.35-.28,.62-.66,.8-1.13,.18-.47,.27-1,.27-1.58s-.09-1.09-.26-1.56c-.18-.46-.44-.83-.79-1.1-.35-.27-.8-.41-1.33-.41s-.94,.13-1.29,.39c-.35,.26-.61,.62-.79,1.08s-.27,1-.27,1.61Z"/><path d="M367.2,178.56v-8.18h1.21v1.24h.08c.15-.4,.42-.73,.81-.99s.83-.38,1.32-.38c.09,0,.21,0,.35,0,.14,0,.24,0,.31,.02v1.28s-.14-.03-.29-.05-.31-.03-.48-.03c-.4,0-.75,.08-1.06,.25-.31,.17-.56,.39-.74,.68-.18,.29-.27,.62-.27,.99v5.18h-1.26Z"/><path d="M376.1,178.73c-.74,0-1.39-.18-1.94-.53-.56-.35-.99-.84-1.3-1.48-.31-.63-.47-1.37-.47-2.22s.16-1.6,.47-2.23c.31-.64,.74-1.13,1.3-1.48,.56-.35,1.2-.53,1.94-.53s1.39,.18,1.94,.53,.99,.84,1.3,1.48,.47,1.38,.47,2.23-.16,1.58-.47,2.22c-.31,.63-.74,1.12-1.3,1.48s-1.2,.53-1.94,.53Zm0-1.13c.56,0,1.02-.14,1.38-.43,.36-.29,.63-.67,.8-1.13,.17-.47,.26-.98,.26-1.52s-.09-1.06-.26-1.53c-.17-.47-.44-.85-.8-1.15-.36-.29-.82-.44-1.38-.44s-1.02,.15-1.38,.44c-.36,.29-.63,.67-.8,1.15-.17,.47-.26,.98-.26,1.53s.09,1.05,.26,1.52,.44,.85,.8,1.13c.36,.29,.82,.43,1.38,.43Z"/><path d="M385.29,170.38v1.07h-4.24v-1.07h4.24Zm-3-1.96h1.26v7.8c0,.36,.05,.62,.16,.8,.1,.18,.24,.29,.4,.35s.34,.09,.52,.09c.14,0,.25,0,.34-.02,.09-.02,.16-.03,.21-.04l.26,1.13c-.09,.03-.21,.07-.36,.1-.15,.03-.35,.05-.58,.05-.36,0-.7-.08-1.04-.23-.34-.15-.62-.39-.84-.7-.22-.31-.33-.71-.33-1.18v-8.14Z"/><path d="M387.82,169.02c-.25,0-.46-.08-.63-.25s-.26-.37-.26-.6,.09-.44,.26-.6,.39-.25,.63-.25,.46,.08,.63,.25,.26,.37,.26,.6-.09,.43-.26,.6-.39,.25-.63,.25Zm-.64,9.55v-8.18h1.26v8.18h-1.26Z"/><path d="M394.96,178.56v-8.18h1.21v1.24h.08c.15-.4,.42-.73,.81-.99s.83-.38,1.32-.38c.09,0,.21,0,.35,0,.14,0,.24,0,.31,.02v1.28s-.14-.03-.29-.05-.31-.03-.48-.03c-.4,0-.75,.08-1.06,.25-.31,.17-.56,.39-.74,.68-.18,.29-.27,.62-.27,.99v5.18h-1.26Z"/><path d="M403.87,178.73c-.74,0-1.39-.18-1.94-.53-.56-.35-.99-.84-1.3-1.48-.31-.63-.47-1.37-.47-2.22s.16-1.6,.47-2.23c.31-.64,.74-1.13,1.3-1.48,.56-.35,1.2-.53,1.94-.53s1.39,.18,1.94,.53,.99,.84,1.3,1.48,.47,1.38,.47,2.23-.16,1.58-.47,2.22c-.31,.63-.74,1.12-1.3,1.48s-1.2,.53-1.94,.53Zm0-1.13c.56,0,1.02-.14,1.38-.43,.36-.29,.63-.67,.8-1.13,.17-.47,.26-.98,.26-1.52s-.09-1.06-.26-1.53c-.17-.47-.44-.85-.8-1.15-.36-.29-.82-.44-1.38-.44s-1.02,.15-1.38,.44c-.36,.29-.63,.67-.8,1.15-.17,.47-.26,.98-.26,1.53s.09,1.05,.26,1.52,.44,.85,.8,1.13c.36,.29,.82,.43,1.38,.43Z"/><path d="M409.49,178.56v-10.91h1.26v10.91h-1.26Zm1.17-2.98l-.02-1.55h.26l3.58-3.64h1.55l-3.81,3.86h-.11l-1.45,1.34Zm4.03,2.98l-3.2-4.05,.89-.87,3.9,4.92h-1.6Z"/><path d="M422.81,175.22v-4.84h1.26v8.18h-1.26v-1.38h-.08c-.19,.42-.49,.77-.89,1.06-.41,.29-.92,.43-1.53,.43-.51,0-.97-.11-1.36-.34s-.71-.57-.94-1.02c-.23-.46-.34-1.03-.34-1.73v-5.2h1.26v5.11c0,.6,.17,1.07,.5,1.43s.76,.53,1.29,.53c.31,0,.63-.08,.96-.24,.33-.16,.6-.41,.82-.74s.33-.75,.33-1.26Z"/><path d="M434.4,167.65v10.91h-1.32v-9.52h-.06l-2.66,1.77v-1.34l2.73-1.81h1.32Z"/><path d="M441,167.51c.45,0,.89,.09,1.34,.26s.86,.44,1.23,.83c.37,.39,.67,.91,.89,1.57s.33,1.5,.33,2.5-.09,1.83-.27,2.58c-.18,.75-.45,1.38-.79,1.9-.34,.51-.76,.91-1.25,1.17-.49,.27-1.04,.4-1.65,.4s-1.16-.12-1.63-.37-.87-.58-1.17-1.02c-.3-.43-.5-.94-.58-1.52h1.3c.12,.5,.35,.91,.7,1.24,.35,.32,.81,.49,1.39,.49,.84,0,1.51-.37,2-1.1,.49-.74,.73-1.77,.73-3.12h-.08c-.2,.3-.44,.56-.71,.77-.27,.22-.58,.38-.91,.5-.33,.12-.69,.18-1.06,.18-.63,0-1.2-.16-1.72-.47-.52-.31-.94-.74-1.25-1.28-.31-.55-.47-1.17-.47-1.87,0-.67,.15-1.28,.45-1.83,.3-.56,.72-1,1.27-1.33s1.19-.49,1.93-.48Zm0,1.17c-.45,0-.85,.11-1.21,.33-.36,.22-.64,.52-.85,.9-.21,.37-.31,.79-.31,1.24s.1,.87,.3,1.24c.2,.37,.48,.67,.83,.88,.35,.22,.75,.33,1.2,.33,.34,0,.65-.07,.94-.2,.29-.13,.55-.32,.76-.55,.22-.23,.39-.5,.51-.79,.12-.3,.19-.61,.19-.93,0-.43-.1-.83-.31-1.2s-.48-.67-.84-.91c-.36-.23-.76-.35-1.22-.35Z"/><path d="M450.36,167.51c.45,0,.89,.09,1.34,.26s.86,.44,1.23,.83c.37,.39,.67,.91,.89,1.57s.33,1.5,.33,2.5-.09,1.83-.27,2.58c-.18,.75-.45,1.38-.79,1.9-.34,.51-.76,.91-1.25,1.17-.49,.27-1.04,.4-1.65,.4s-1.16-.12-1.63-.37-.87-.58-1.17-1.02c-.3-.43-.5-.94-.58-1.52h1.3c.12,.5,.35,.91,.7,1.24,.35,.32,.81,.49,1.39,.49,.84,0,1.51-.37,2-1.1,.49-.74,.73-1.77,.73-3.12h-.08c-.2,.3-.44,.56-.71,.77-.27,.22-.58,.38-.91,.5-.33,.12-.69,.18-1.06,.18-.63,0-1.2-.16-1.72-.47-.52-.31-.94-.74-1.25-1.28-.31-.55-.47-1.17-.47-1.87,0-.67,.15-1.28,.45-1.83,.3-.56,.72-1,1.27-1.33s1.19-.49,1.93-.48Zm0,1.17c-.45,0-.85,.11-1.21,.33-.36,.22-.64,.52-.85,.9-.21,.37-.31,.79-.31,1.24s.1,.87,.3,1.24c.2,.37,.48,.67,.83,.88,.35,.22,.75,.33,1.2,.33,.34,0,.65-.07,.94-.2,.29-.13,.55-.32,.76-.55,.22-.23,.39-.5,.51-.79,.12-.3,.19-.61,.19-.93,0-.43-.1-.83-.31-1.2s-.48-.67-.84-.91c-.36-.23-.76-.35-1.22-.35Z"/><path d="M459.79,178.71c-.8,0-1.49-.22-2.05-.66s-1-1.08-1.29-1.91c-.3-.84-.45-1.85-.45-3.03s.15-2.19,.45-3.02c.3-.84,.73-1.48,1.3-1.92,.57-.44,1.25-.66,2.04-.66s1.48,.22,2.04,.66c.57,.44,1,1.08,1.3,1.92,.3,.84,.45,1.84,.45,3.02s-.15,2.2-.45,3.03c-.3,.84-.73,1.47-1.29,1.91s-1.25,.66-2.05,.66Zm0-1.17c.8,0,1.41-.38,1.85-1.15,.44-.77,.66-1.86,.66-3.28,0-.95-.1-1.75-.3-2.41-.2-.66-.49-1.17-.86-1.52-.38-.35-.83-.52-1.35-.52-.79,0-1.4,.39-1.85,1.16-.44,.78-.67,1.87-.67,3.29,0,.94,.1,1.75,.3,2.41s.49,1.16,.86,1.51c.37,.34,.83,.52,1.36,.52Z"/></g><g><path class="n" d="M552.99,230.06v2.16h-5.97v-2.16h5.97Z"/><path class="n" d="M560.98,223.43v13.09h-2.77v-10.46h-.08l-3,1.88v-2.45l3.24-2.05h2.6Z"/><path class="n" d="M569.22,236.8c-1.1,0-2.04-.28-2.83-.81-.79-.54-1.4-1.31-1.82-2.33s-.63-2.24-.63-3.67c0-1.43,.21-2.64,.64-3.65,.42-1.01,1.03-1.77,1.82-2.3,.79-.53,1.73-.79,2.83-.79s2.04,.26,2.83,.79c.79,.53,1.4,1.29,1.83,2.3,.43,1,.64,2.22,.63,3.65,0,1.44-.21,2.66-.64,3.68-.42,1.02-1.03,1.8-1.82,2.33s-1.73,.81-2.83,.81Zm0-2.29c.75,0,1.35-.38,1.8-1.13,.45-.75,.67-1.89,.67-3.39,0-.99-.1-1.82-.3-2.48-.2-.66-.49-1.16-.86-1.49-.37-.33-.8-.5-1.3-.5-.75,0-1.34,.37-1.79,1.12-.45,.75-.67,1.86-.68,3.35,0,1,.1,1.84,.3,2.51s.49,1.17,.86,1.51c.37,.33,.81,.5,1.3,.5Z"/><path class="n" d="M581.61,236.8c-1.1,0-2.04-.28-2.83-.81-.79-.54-1.4-1.31-1.82-2.33s-.63-2.24-.63-3.67c0-1.43,.21-2.64,.64-3.65,.42-1.01,1.03-1.77,1.82-2.3,.79-.53,1.73-.79,2.83-.79s2.04,.26,2.83,.79c.79,.53,1.4,1.29,1.83,2.3,.43,1,.64,2.22,.63,3.65,0,1.44-.21,2.66-.64,3.68-.42,1.02-1.03,1.8-1.82,2.33s-1.73,.81-2.83,.81Zm0-2.29c.75,0,1.35-.38,1.8-1.13,.45-.75,.67-1.89,.67-3.39,0-.99-.1-1.82-.3-2.48-.2-.66-.49-1.16-.86-1.49-.37-.33-.8-.5-1.3-.5-.75,0-1.34,.37-1.79,1.12-.45,.75-.67,1.86-.68,3.35,0,1,.1,1.84,.3,2.51s.49,1.17,.86,1.51c.37,.33,.81,.5,1.3,.5Z"/><path class="n" d="M593.48,226.57v-.69c0-.53,.11-1.01,.34-1.45,.23-.44,.55-.79,.98-1.06,.43-.26,.95-.4,1.56-.4s1.16,.13,1.58,.4c.43,.26,.75,.62,.97,1.06,.22,.44,.33,.93,.33,1.45v.69c0,.53-.11,1.01-.34,1.45-.22,.44-.55,.79-.98,1.05-.43,.26-.95,.39-1.58,.39s-1.15-.13-1.58-.4c-.43-.27-.75-.62-.97-1.05-.22-.44-.33-.92-.33-1.44Zm.84,9.95l9-13.09h1.67l-9,13.09h-1.67Zm1.03-10.64v.69c0,.31,.07,.6,.22,.86,.15,.26,.41,.4,.78,.4s.66-.13,.8-.4c.14-.26,.21-.55,.21-.86v-.69c0-.31-.07-.6-.21-.87-.14-.27-.41-.4-.81-.4-.38,0-.64,.14-.79,.41s-.22,.56-.22,.86Zm4.84,8.18v-.69c0-.52,.11-1.01,.34-1.45s.55-.79,.98-1.06c.43-.27,.95-.4,1.57-.4s1.15,.13,1.58,.4c.43,.26,.75,.62,.97,1.06,.22,.44,.33,.93,.33,1.45v.69c0,.52-.11,1.01-.33,1.45-.22,.44-.55,.79-.98,1.06-.43,.27-.95,.4-1.57,.4s-1.15-.13-1.58-.4c-.43-.27-.75-.62-.97-1.06s-.33-.92-.33-1.45Zm1.86-.69v.69c0,.3,.07,.59,.22,.86,.15,.27,.41,.4,.8,.4s.65-.13,.8-.4c.14-.26,.21-.55,.21-.86v-.69c0-.31-.07-.6-.2-.87-.14-.27-.41-.4-.81-.4s-.65,.13-.8,.4c-.15,.27-.22,.56-.22,.87Z"/><path class="n" d="M496.26,249.33v-1.89h7.36v1.89h-7.36Zm0,3.54v-1.89h7.36v1.89h-7.36Z"/><path class="n" d="M509.42,254.52v-10.91h2.27v10.91h-2.27Zm2.06-2.35v-2.72h.33l2.62-3.11h2.6l-3.52,4.11h-.54l-1.5,1.71Zm3.06,2.35l-2.41-3.56,1.51-1.6,3.55,5.17h-2.66Z"/><path class="n" d="M520.42,243.61v10.91h-2.27v-10.91h2.27Z"/><path class="n" d="M523.37,245.28c-.34,0-.63-.11-.87-.34-.24-.22-.36-.5-.36-.81s.12-.58,.36-.81c.24-.23,.53-.34,.87-.34s.62,.11,.87,.34c.24,.23,.36,.5,.36,.81s-.12,.59-.36,.81c-.24,.23-.53,.34-.87,.34Zm-1.14,9.24v-8.18h2.27v8.18h-2.27Z"/><path class="n" d="M526.31,254.52v-8.18h2.16v1.44h.1c.17-.48,.45-.86,.85-1.13,.4-.28,.87-.42,1.43-.42s1.04,.14,1.43,.42c.39,.28,.66,.66,.79,1.13h.08c.17-.47,.47-.84,.91-1.13s.96-.42,1.56-.42c.76,0,1.38,.24,1.86,.73,.48,.49,.72,1.17,.72,2.06v5.5h-2.26v-5.05c0-.46-.12-.8-.36-1.02-.24-.23-.54-.34-.91-.34-.41,0-.73,.13-.96,.39-.23,.26-.35,.6-.35,1.03v5h-2.2v-5.1c0-.4-.11-.72-.34-.96-.23-.24-.53-.36-.9-.36-.25,0-.48,.06-.68,.19s-.36,.3-.48,.53-.18,.49-.18,.79v4.91h-2.27Z"/><path class="n" d="M542.32,254.67c-.52,0-.99-.09-1.4-.27-.41-.18-.73-.45-.97-.81s-.35-.81-.35-1.35c0-.45,.08-.84,.25-1.15,.17-.31,.39-.56,.68-.75,.29-.19,.62-.33,.98-.43,.37-.1,.75-.16,1.16-.2,.48-.05,.86-.1,1.15-.14,.29-.04,.5-.11,.63-.2,.13-.09,.2-.22,.2-.39v-.03c0-.34-.11-.6-.32-.78-.21-.18-.51-.28-.9-.28-.41,0-.73,.09-.97,.27-.24,.18-.4,.4-.48,.67l-2.1-.17c.11-.5,.32-.93,.63-1.29,.31-.36,.72-.64,1.21-.84,.5-.2,1.07-.29,1.72-.29,.46,0,.89,.05,1.31,.16,.42,.11,.79,.27,1.11,.5,.33,.22,.58,.51,.77,.86,.19,.35,.28,.77,.28,1.25v5.52h-2.15v-1.13h-.06c-.13,.26-.31,.48-.53,.67-.22,.19-.48,.34-.79,.45-.31,.11-.67,.16-1.07,.16Zm.65-1.57c.33,0,.63-.07,.88-.2s.46-.31,.6-.54c.15-.23,.22-.48,.22-.77v-.87c-.07,.05-.17,.09-.29,.13-.12,.04-.26,.07-.41,.1-.15,.03-.31,.06-.46,.08s-.29,.04-.42,.06c-.27,.04-.5,.1-.7,.19-.2,.08-.35,.2-.46,.34-.11,.14-.17,.32-.17,.54,0,.31,.11,.54,.34,.71,.23,.16,.51,.24,.86,.24Z"/><path class="n" d="M553.04,246.33v1.7h-4.93v-1.7h4.93Zm-3.81-1.96h2.27v7.63c0,.21,.03,.37,.1,.49,.06,.12,.15,.2,.27,.24s.25,.07,.4,.07c.11,0,.21,0,.32-.03s.19-.04,.25-.05l.36,1.69c-.11,.04-.27,.08-.48,.13-.21,.05-.46,.08-.75,.09-.55,.02-1.03-.05-1.44-.22s-.73-.43-.96-.78c-.23-.35-.34-.8-.33-1.33v-7.93Z"/><path class="n" d="M555.66,245.28c-.34,0-.63-.11-.87-.34-.24-.22-.36-.5-.36-.81s.12-.58,.36-.81c.24-.23,.53-.34,.87-.34s.62,.11,.87,.34c.24,.23,.36,.5,.36,.81s-.12,.59-.36,.81c-.24,.23-.53,.34-.87,.34Zm-1.14,9.24v-8.18h2.27v8.18h-2.27Z"/><path class="n" d="M562.3,254.68c-.84,0-1.56-.18-2.16-.54-.6-.36-1.06-.85-1.38-1.49s-.48-1.37-.48-2.19,.16-1.57,.49-2.21,.79-1.13,1.39-1.49c.6-.36,1.31-.54,2.14-.54,.71,0,1.34,.13,1.88,.39s.96,.62,1.27,1.09,.49,1.02,.52,1.65h-2.14c-.06-.41-.22-.74-.48-.99-.26-.25-.59-.38-1.01-.38-.35,0-.66,.09-.92,.28-.26,.19-.46,.47-.61,.83-.15,.36-.22,.8-.22,1.32s.07,.97,.22,1.33c.14,.37,.35,.64,.61,.84s.57,.29,.92,.29c.26,0,.49-.05,.7-.16,.21-.11,.38-.26,.52-.47,.14-.21,.23-.45,.27-.74h2.14c-.04,.62-.21,1.17-.51,1.65-.3,.47-.72,.84-1.25,1.11-.53,.27-1.16,.4-1.89,.4Z"/><path class="n" d="M567.41,254.52v-10.91h2.27v10.91h-2.27Zm2.06-2.35v-2.72h.33l2.62-3.11h2.6l-3.52,4.11h-.54l-1.5,1.71Zm3.06,2.35l-2.41-3.56,1.51-1.6,3.55,5.17h-2.66Z"/><path class="n" d="M578.47,254.67c-.52,0-.99-.09-1.4-.27-.41-.18-.73-.45-.97-.81s-.35-.81-.35-1.35c0-.45,.08-.84,.25-1.15,.17-.31,.39-.56,.68-.75,.29-.19,.62-.33,.98-.43,.37-.1,.75-.16,1.16-.2,.48-.05,.86-.1,1.15-.14,.29-.04,.5-.11,.63-.2,.13-.09,.2-.22,.2-.39v-.03c0-.34-.11-.6-.32-.78-.21-.18-.51-.28-.9-.28-.41,0-.73,.09-.97,.27-.24,.18-.4,.4-.48,.67l-2.1-.17c.11-.5,.32-.93,.63-1.29,.31-.36,.72-.64,1.21-.84,.5-.2,1.07-.29,1.72-.29,.46,0,.89,.05,1.31,.16,.42,.11,.79,.27,1.11,.5,.33,.22,.58,.51,.77,.86,.19,.35,.28,.77,.28,1.25v5.52h-2.15v-1.13h-.06c-.13,.26-.31,.48-.53,.67-.22,.19-.48,.34-.79,.45-.31,.11-.67,.16-1.07,.16Zm.65-1.57c.33,0,.63-.07,.88-.2s.46-.31,.6-.54c.15-.23,.22-.48,.22-.77v-.87c-.07,.05-.17,.09-.29,.13-.12,.04-.26,.07-.41,.1-.15,.03-.31,.06-.46,.08s-.29,.04-.42,.06c-.27,.04-.5,.1-.7,.19-.2,.08-.35,.2-.46,.34-.11,.14-.17,.32-.17,.54,0,.31,.11,.54,.34,.71,.23,.16,.51,.24,.86,.24Zm-.25-7.83l1.13-2.42h2.1l-1.62,2.42h-1.6Z"/><path class="n" d="M590.59,249.79v4.73h-2.27v-8.18h2.16v1.44h.1c.18-.48,.48-.85,.91-1.13,.43-.28,.94-.42,1.55-.42,.57,0,1.06,.12,1.49,.37,.42,.25,.75,.6,.99,1.06s.35,1.01,.35,1.64v5.21h-2.27v-4.8c0-.5-.12-.89-.38-1.17-.26-.28-.62-.42-1.07-.42-.31,0-.57,.07-.81,.2-.23,.13-.41,.32-.54,.57-.13,.25-.2,.55-.2,.9Z"/><path class="n" d="M601.37,254.68c-.84,0-1.56-.17-2.17-.51s-1.07-.83-1.4-1.46c-.33-.63-.49-1.38-.49-2.24s.16-1.58,.49-2.22c.33-.64,.79-1.13,1.38-1.49,.59-.35,1.29-.53,2.1-.53,.54,0,1.04,.09,1.51,.26,.47,.17,.88,.43,1.23,.78,.35,.34,.62,.78,.82,1.3s.29,1.13,.29,1.82v.62h-6.91v-1.41h4.77c0-.33-.07-.62-.21-.87-.14-.25-.34-.45-.59-.59-.25-.14-.54-.22-.87-.22s-.65,.08-.91,.24c-.26,.16-.47,.37-.62,.63s-.23,.56-.23,.88v1.34c0,.4,.08,.75,.23,1.05,.15,.29,.37,.52,.64,.68,.28,.16,.6,.24,.99,.24,.25,0,.48-.04,.69-.11,.21-.07,.39-.18,.54-.32,.15-.14,.26-.32,.34-.52l2.1,.14c-.11,.5-.32,.94-.65,1.32-.33,.38-.75,.67-1.27,.87-.52,.21-1.11,.31-1.79,.31Z"/><path class="n" d="M611.85,251.03v-4.7h2.27v8.18h-2.18v-1.49h-.09c-.18,.48-.49,.87-.92,1.16-.43,.29-.95,.44-1.56,.44-.55,0-1.03-.12-1.44-.37-.42-.25-.74-.6-.97-1.06s-.35-1.01-.35-1.65v-5.21h2.27v4.8c0,.48,.13,.86,.39,1.15,.26,.28,.6,.42,1.03,.42,.27,0,.53-.06,.77-.19,.24-.13,.43-.31,.58-.56,.15-.25,.22-.56,.22-.92Z"/><path class="n" d="M620.29,246.33v1.7h-4.93v-1.7h4.93Zm-3.81-1.96h2.27v7.63c0,.21,.03,.37,.1,.49,.06,.12,.15,.2,.27,.24s.25,.07,.4,.07c.11,0,.21,0,.32-.03s.19-.04,.25-.05l.36,1.69c-.11,.04-.27,.08-.48,.13-.21,.05-.46,.08-.75,.09-.55,.02-1.03-.05-1.44-.22s-.73-.43-.96-.78c-.23-.35-.34-.8-.33-1.33v-7.93Z"/><path class="n" d="M621.76,254.52v-8.18h2.2v1.43h.08c.15-.51,.4-.89,.75-1.15,.35-.26,.76-.39,1.21-.39,.11,0,.24,0,.37,.02,.13,.01,.25,.03,.35,.06v2.01c-.11-.03-.25-.06-.44-.08-.19-.02-.36-.04-.52-.04-.33,0-.63,.07-.89,.22-.26,.14-.47,.34-.62,.6-.15,.25-.23,.55-.23,.88v4.63h-2.27Z"/><path class="n" d="M630.23,254.67c-.52,0-.99-.09-1.4-.27-.41-.18-.73-.45-.97-.81s-.35-.81-.35-1.35c0-.45,.08-.84,.25-1.15,.17-.31,.39-.56,.68-.75,.29-.19,.62-.33,.98-.43,.37-.1,.75-.16,1.16-.2,.48-.05,.86-.1,1.15-.14,.29-.04,.5-.11,.63-.2,.13-.09,.2-.22,.2-.39v-.03c0-.34-.11-.6-.32-.78-.21-.18-.51-.28-.9-.28-.41,0-.73,.09-.97,.27-.24,.18-.4,.4-.48,.67l-2.1-.17c.11-.5,.32-.93,.63-1.29,.31-.36,.72-.64,1.21-.84,.5-.2,1.07-.29,1.72-.29,.46,0,.89,.05,1.31,.16,.42,.11,.79,.27,1.11,.5,.33,.22,.58,.51,.77,.86,.19,.35,.28,.77,.28,1.25v5.52h-2.15v-1.13h-.06c-.13,.26-.31,.48-.53,.67-.22,.19-.48,.34-.79,.45-.31,.11-.67,.16-1.07,.16Zm.65-1.57c.33,0,.63-.07,.88-.2s.46-.31,.6-.54c.15-.23,.22-.48,.22-.77v-.87c-.07,.05-.17,.09-.29,.13-.12,.04-.26,.07-.41,.1-.15,.03-.31,.06-.46,.08s-.29,.04-.42,.06c-.27,.04-.5,.1-.7,.19-.2,.08-.35,.2-.46,.34-.11,.14-.17,.32-.17,.54,0,.31,.11,.54,.34,.71,.23,.16,.51,.24,.86,.24Z"/><path class="n" d="M638.87,243.61v10.91h-2.27v-10.91h2.27Z"/><path class="n" d="M641.82,245.28c-.34,0-.63-.11-.87-.34-.24-.22-.36-.5-.36-.81s.12-.58,.36-.81c.24-.23,.53-.34,.87-.34s.62,.11,.87,.34c.24,.23,.36,.5,.36,.81s-.12,.59-.36,.81c-.24,.23-.53,.34-.87,.34Zm-1.14,9.24v-8.18h2.27v8.18h-2.27Z"/><path class="n" d="M649.11,246.33v1.7h-4.93v-1.7h4.93Zm-3.81-1.96h2.27v7.63c0,.21,.03,.37,.1,.49,.06,.12,.15,.2,.27,.24s.25,.07,.4,.07c.11,0,.21,0,.32-.03s.19-.04,.25-.05l.36,1.69c-.11,.04-.27,.08-.48,.13-.21,.05-.46,.08-.75,.09-.55,.02-1.03-.05-1.44-.22s-.73-.43-.96-.78c-.23-.35-.34-.8-.33-1.33v-7.93Z"/><path class="n" d="M652.92,254.67c-.52,0-.99-.09-1.4-.27-.41-.18-.73-.45-.97-.81s-.35-.81-.35-1.35c0-.45,.08-.84,.25-1.15,.17-.31,.39-.56,.68-.75,.29-.19,.62-.33,.98-.43,.37-.1,.75-.16,1.16-.2,.48-.05,.86-.1,1.15-.14,.29-.04,.5-.11,.63-.2,.13-.09,.2-.22,.2-.39v-.03c0-.34-.11-.6-.32-.78-.21-.18-.51-.28-.9-.28-.41,0-.73,.09-.97,.27-.24,.18-.4,.4-.48,.67l-2.1-.17c.11-.5,.32-.93,.63-1.29,.31-.36,.72-.64,1.21-.84,.5-.2,1.07-.29,1.72-.29,.46,0,.89,.05,1.31,.16,.42,.11,.79,.27,1.11,.5,.33,.22,.58,.51,.77,.86,.19,.35,.28,.77,.28,1.25v5.52h-2.15v-1.13h-.06c-.13,.26-.31,.48-.53,.67-.22,.19-.48,.34-.79,.45-.31,.11-.67,.16-1.07,.16Zm.65-1.57c.33,0,.63-.07,.88-.2s.46-.31,.6-.54c.15-.23,.22-.48,.22-.77v-.87c-.07,.05-.17,.09-.29,.13-.12,.04-.26,.07-.41,.1-.15,.03-.31,.06-.46,.08s-.29,.04-.42,.06c-.27,.04-.5,.1-.7,.19-.2,.08-.35,.2-.46,.34-.11,.14-.17,.32-.17,.54,0,.31,.11,.54,.34,.71,.23,.16,.51,.24,.86,.24Z"/><path d="M533.33,272.69c-.68,0-1.28-.17-1.81-.52-.52-.35-.93-.84-1.23-1.47s-.44-1.38-.44-2.25,.15-1.61,.44-2.24,.71-1.12,1.23-1.46,1.13-.52,1.82-.52c.53,0,.95,.09,1.26,.26s.55,.37,.71,.6c.17,.22,.29,.4,.39,.55h.11v-4.03h1.26v10.91h-1.21v-1.26h-.15c-.09,.15-.22,.34-.39,.56-.17,.23-.41,.43-.73,.6-.32,.18-.74,.26-1.26,.26Zm.17-1.13c.5,0,.93-.13,1.28-.4,.35-.26,.61-.63,.79-1.1,.18-.47,.27-1.01,.27-1.63s-.09-1.15-.27-1.61c-.18-.46-.44-.82-.79-1.08-.35-.26-.78-.39-1.29-.39s-.98,.14-1.33,.41c-.35,.27-.62,.64-.79,1.1-.18,.46-.26,.98-.26,1.56s.09,1.11,.27,1.58c.18,.47,.45,.85,.8,1.13,.35,.28,.79,.42,1.32,.42Z"/><path d="M542.87,272.69c-.74,0-1.39-.18-1.94-.53-.56-.35-.99-.84-1.3-1.48-.31-.63-.47-1.37-.47-2.22s.16-1.6,.47-2.23c.31-.64,.74-1.13,1.3-1.48,.56-.35,1.2-.53,1.94-.53s1.39,.18,1.94,.53,.99,.84,1.3,1.48,.47,1.38,.47,2.23-.16,1.58-.47,2.22c-.31,.63-.74,1.12-1.3,1.48s-1.2,.53-1.94,.53Zm0-1.13c.56,0,1.02-.14,1.38-.43,.36-.29,.63-.67,.8-1.13,.17-.47,.26-.98,.26-1.52s-.09-1.06-.26-1.53c-.17-.47-.44-.85-.8-1.15-.36-.29-.82-.44-1.38-.44s-1.02,.15-1.38,.44c-.36,.29-.63,.67-.8,1.15-.17,.47-.26,.98-.26,1.53s.09,1.05,.26,1.52,.44,.85,.8,1.13c.36,.29,.82,.43,1.38,.43Z"/><path d="M552.72,272.52v-8.18h1.21v1.24h.08c.15-.4,.42-.73,.81-.99s.83-.38,1.32-.38c.09,0,.21,0,.35,0,.14,0,.24,0,.31,.02v1.28s-.14-.03-.29-.05-.31-.03-.48-.03c-.4,0-.75,.08-1.06,.25-.31,.17-.56,.39-.74,.68-.18,.29-.27,.62-.27,.99v5.18h-1.26Z"/><path d="M561.62,272.69c-.74,0-1.39-.18-1.94-.53-.56-.35-.99-.84-1.3-1.48-.31-.63-.47-1.37-.47-2.22s.16-1.6,.47-2.23c.31-.64,.74-1.13,1.3-1.48,.56-.35,1.2-.53,1.94-.53s1.39,.18,1.94,.53,.99,.84,1.3,1.48,.47,1.38,.47,2.23-.16,1.58-.47,2.22c-.31,.63-.74,1.12-1.3,1.48s-1.2,.53-1.94,.53Zm0-1.13c.56,0,1.02-.14,1.38-.43,.36-.29,.63-.67,.8-1.13,.17-.47,.26-.98,.26-1.52s-.09-1.06-.26-1.53c-.17-.47-.44-.85-.8-1.15-.36-.29-.82-.44-1.38-.44s-1.02,.15-1.38,.44c-.36,.29-.63,.67-.8,1.15-.17,.47-.26,.98-.26,1.53s.09,1.05,.26,1.52,.44,.85,.8,1.13c.36,.29,.82,.43,1.38,.43Z"/><path d="M567.25,272.52v-10.91h1.26v10.91h-1.26Zm1.17-2.98l-.02-1.55h.26l3.58-3.64h1.55l-3.81,3.86h-.11l-1.45,1.34Zm4.03,2.98l-3.2-4.05,.89-.87,3.9,4.92h-1.6Z"/><path d="M580.57,269.17v-4.84h1.26v8.18h-1.26v-1.38h-.08c-.19,.42-.49,.77-.89,1.06-.41,.29-.92,.43-1.53,.43-.51,0-.97-.11-1.36-.34s-.71-.57-.94-1.02c-.23-.46-.34-1.03-.34-1.73v-5.2h1.26v5.11c0,.6,.17,1.07,.5,1.43s.76,.53,1.29,.53c.31,0,.63-.08,.96-.24,.33-.16,.6-.41,.82-.74s.33-.75,.33-1.26Z"/><path d="M588.32,272.52v-.96l3.6-3.94c.42-.46,.77-.86,1.04-1.21s.48-.67,.61-.97c.13-.3,.2-.62,.2-.96,0-.38-.09-.72-.27-1-.18-.28-.43-.5-.75-.65-.32-.15-.67-.23-1.07-.23-.42,0-.78,.09-1.09,.26-.31,.17-.55,.41-.72,.72-.17,.31-.25,.67-.25,1.09h-1.26c0-.64,.15-1.2,.44-1.68,.29-.48,.7-.86,1.21-1.13s1.08-.41,1.72-.41,1.21,.14,1.7,.41c.49,.27,.88,.63,1.16,1.09,.28,.46,.42,.97,.42,1.53,0,.4-.07,.79-.22,1.17-.14,.38-.39,.81-.75,1.27s-.84,1.04-1.47,1.71l-2.45,2.62v.08h5.07v1.17h-6.88Z"/><path d="M600.96,272.67c-.8,0-1.49-.22-2.05-.66s-1-1.08-1.29-1.91c-.3-.84-.45-1.85-.45-3.03s.15-2.19,.45-3.02c.3-.84,.73-1.48,1.3-1.92,.57-.44,1.25-.66,2.04-.66s1.48,.22,2.04,.66c.57,.44,1,1.08,1.3,1.92,.3,.84,.45,1.84,.45,3.02s-.15,2.2-.45,3.03c-.3,.84-.73,1.47-1.29,1.91s-1.25,.66-2.05,.66Zm0-1.17c.8,0,1.41-.38,1.85-1.15,.44-.77,.66-1.86,.66-3.28,0-.95-.1-1.75-.3-2.41-.2-.66-.49-1.17-.86-1.52-.38-.35-.83-.52-1.35-.52-.79,0-1.4,.39-1.85,1.16-.44,.78-.67,1.87-.67,3.29,0,.94,.1,1.75,.3,2.41s.49,1.16,.86,1.51c.37,.34,.83,.52,1.36,.52Z"/><path d="M610.18,272.67c-.62,0-1.19-.12-1.69-.37-.5-.25-.9-.59-1.2-1.02-.3-.43-.47-.93-.5-1.48h1.28c.05,.49,.27,.9,.67,1.22s.88,.48,1.44,.48c.45,0,.85-.1,1.2-.31s.62-.5,.83-.87c.2-.37,.3-.78,.3-1.25s-.1-.9-.31-1.28c-.21-.38-.49-.67-.85-.89s-.78-.33-1.24-.33c-.33,0-.68,.05-1.03,.15s-.64,.24-.87,.4l-1.24-.15,.66-5.37h5.67v1.17h-4.56l-.38,3.22h.06c.22-.18,.5-.33,.84-.44,.34-.12,.69-.18,1.05-.18,.67,0,1.26,.16,1.79,.48,.52,.32,.94,.75,1.24,1.3,.3,.55,.45,1.18,.45,1.89s-.16,1.32-.47,1.86-.74,.97-1.28,1.29c-.54,.31-1.16,.47-1.85,.47Z"/><path d="M619.45,272.67c-.8,0-1.49-.22-2.05-.66s-1-1.08-1.29-1.91c-.3-.84-.45-1.85-.45-3.03s.15-2.19,.45-3.02c.3-.84,.73-1.48,1.3-1.92,.57-.44,1.25-.66,2.04-.66s1.48,.22,2.04,.66c.57,.44,1,1.08,1.3,1.92,.3,.84,.45,1.84,.45,3.02s-.15,2.2-.45,3.03c-.3,.84-.73,1.47-1.29,1.91s-1.25,.66-2.05,.66Zm0-1.17c.8,0,1.41-.38,1.85-1.15,.44-.77,.66-1.86,.66-3.28,0-.95-.1-1.75-.3-2.41-.2-.66-.49-1.17-.86-1.52-.38-.35-.83-.52-1.35-.52-.79,0-1.4,.39-1.85,1.16-.44,.78-.67,1.87-.67,3.29,0,.94,.1,1.75,.3,2.41s.49,1.16,.86,1.51c.37,.34,.83,.52,1.36,.52Z"/></g><line class="c" x1="50.91" y1="152.69" x2="262.26" y2="152.69"/><g><path d="M224.54,25.08V10.54h3.08v6.41h.19l5.23-6.41h3.69l-5.4,6.51,5.46,8.03h-3.68l-3.98-5.98-1.51,1.85v4.13h-3.08Z"/><path d="M238.93,25.08V10.54h3.08v12.01h6.24v2.54h-9.31Z"/><path d="M253.96,10.54v14.54h-3.08V10.54h3.08Z"/><path d="M257.09,10.54h3.79l4.01,9.77h.17l4-9.77h3.79v14.54h-2.98V15.62h-.12l-3.76,9.4h-2.03l-3.76-9.43h-.12v9.5h-2.98V10.54Z"/><path d="M278.49,25.08h-3.3l5.02-14.54h3.96l5.01,14.54h-3.3l-3.64-11.22h-.11l-3.65,11.22Zm-.21-5.72h7.78v2.4h-7.78v-2.4Z"/><path d="M289.2,13.07v-2.54h11.95v2.54h-4.45v12.01h-3.04V13.07h-4.45Z"/><path d="M306.8,10.54v14.54h-3.08V10.54h3.08Z"/><path d="M322.77,15.63h-3.11c-.06-.4-.17-.76-.35-1.08-.18-.31-.4-.58-.67-.81-.28-.22-.59-.39-.95-.51-.36-.12-.75-.18-1.16-.18-.75,0-1.41,.19-1.97,.56-.56,.37-.99,.91-1.3,1.62-.31,.71-.46,1.57-.46,2.57s.16,1.91,.47,2.61c.31,.71,.74,1.24,1.3,1.6,.56,.36,1.21,.54,1.94,.54,.41,0,.79-.05,1.15-.16,.35-.11,.67-.27,.94-.48,.27-.21,.5-.47,.69-.77,.18-.3,.31-.65,.38-1.04h3.11c-.08,.68-.28,1.33-.6,1.94-.32,.62-.75,1.17-1.29,1.66-.54,.49-1.18,.87-1.92,1.15-.74,.28-1.58,.42-2.51,.42-1.3,0-2.46-.29-3.48-.88s-1.83-1.44-2.42-2.55c-.59-1.11-.88-2.46-.88-4.04s.3-2.94,.89-4.05c.6-1.11,1.41-1.96,2.43-2.55,1.02-.58,2.17-.88,3.45-.88,.84,0,1.62,.12,2.35,.36,.72,.24,1.36,.58,1.92,1.03s1.01,1,1.37,1.66,.58,1.4,.68,2.24Z"/><path d="M325.58,25.08V10.54h3.08v6.41h.19l5.23-6.41h3.69l-5.4,6.51,5.46,8.03h-3.68l-3.98-5.98-1.51,1.85v4.13h-3.08Z"/><path d="M339.97,25.08V10.54h9.8v2.54h-6.73v3.47h6.22v2.54h-6.22v3.47h6.75v2.54h-9.83Zm3.83-15.95l1.51-3.23h2.8l-2.17,3.23h-2.14Z"/><path d="M370.89,15.63h-3.11c-.06-.4-.17-.76-.35-1.08-.18-.31-.4-.58-.67-.81-.28-.22-.59-.39-.95-.51-.36-.12-.75-.18-1.16-.18-.75,0-1.41,.19-1.97,.56-.56,.37-.99,.91-1.3,1.62-.31,.71-.46,1.57-.46,2.57s.16,1.91,.47,2.61c.31,.71,.74,1.24,1.3,1.6,.56,.36,1.21,.54,1.94,.54,.41,0,.79-.05,1.15-.16,.35-.11,.67-.27,.94-.48,.27-.21,.5-.47,.69-.77,.18-.3,.31-.65,.38-1.04h3.11c-.08,.68-.28,1.33-.6,1.94-.32,.62-.75,1.17-1.29,1.66-.54,.49-1.18,.87-1.92,1.15-.74,.28-1.58,.42-2.51,.42-1.3,0-2.46-.29-3.48-.88s-1.83-1.44-2.42-2.55c-.59-1.11-.88-2.46-.88-4.04s.3-2.94,.89-4.05c.6-1.11,1.41-1.96,2.43-2.55,1.02-.58,2.17-.88,3.45-.88,.84,0,1.62,.12,2.35,.36,.72,.24,1.36,.58,1.92,1.03s1.01,1,1.37,1.66,.58,1.4,.68,2.24Z"/><path d="M376.77,10.54v14.54h-3.08V10.54h3.08Zm-2.61-1.41l1.51-3.23h2.8l-2.17,3.23h-2.14Z"/><path d="M379.91,25.08V10.54h3.08v12.01h6.24v2.54h-9.31Z"/><path d="M391.86,25.08V10.54h9.8v2.54h-6.73v3.47h6.22v2.54h-6.22v3.47h6.75v2.54h-9.83Z"/><path d="M409.95,25.08V10.54h9.8v2.54h-6.73v3.47h6.22v2.54h-6.22v3.47h6.75v2.54h-9.83Z"/><path d="M431.78,10.54h3.08v9.45c0,1.06-.25,1.99-.76,2.78-.5,.8-1.21,1.42-2.11,1.86-.9,.44-1.96,.66-3.16,.66s-2.26-.22-3.17-.66c-.9-.44-1.61-1.06-2.11-1.86-.5-.79-.75-1.72-.75-2.78V10.54h3.08v9.18c0,.55,.12,1.05,.37,1.48s.59,.77,1.03,1.02c.45,.25,.96,.37,1.56,.37s1.12-.12,1.56-.37c.44-.25,.79-.58,1.03-1.02s.37-.92,.37-1.48V10.54Z"/><path d="M97.47,36.87l-3.56,9.82h-2.05l-3.57-9.82h2.05l2.49,7.56h.1l2.48-7.56h2.05Z"/><path d="M104.04,46.68v-13.09h1.91v13.09h-1.91Zm1.76-3.33v-2.33s.32,0,.32,0l3.91-4.15h2.29l-4.46,4.73h-.3l-1.76,1.76Zm4.44,3.33l-3.52-4.67,1.32-1.34,4.54,6h-2.35Z"/><path d="M117.78,46.88c-.92,0-1.72-.21-2.41-.63-.69-.42-1.22-1.01-1.6-1.77-.38-.76-.57-1.65-.57-2.66s.19-1.91,.57-2.67c.38-.76,.91-1.36,1.6-1.78,.69-.42,1.49-.63,2.41-.63s1.72,.21,2.41,.63c.69,.42,1.22,1.01,1.6,1.78,.38,.76,.57,1.65,.57,2.67s-.19,1.9-.57,2.66c-.38,.76-.91,1.35-1.6,1.77-.69,.42-1.49,.63-2.41,.63Zm0-1.6c.6,0,1.09-.16,1.48-.47,.39-.31,.68-.73,.87-1.26s.28-1.1,.28-1.73-.09-1.2-.28-1.73-.48-.95-.87-1.27c-.39-.32-.89-.48-1.48-.48s-1.1,.16-1.49,.48c-.39,.32-.69,.74-.88,1.27s-.28,1.1-.28,1.73,.09,1.21,.28,1.73,.48,.94,.88,1.26c.39,.32,.89,.47,1.49,.47Z"/><path d="M126.4,40.85v5.83h-1.91v-9.82h1.83v1.6h.12c.23-.52,.58-.94,1.06-1.25,.48-.31,1.09-.47,1.83-.47,.67,0,1.25,.14,1.76,.42,.5,.28,.89,.69,1.17,1.24,.28,.55,.42,1.23,.42,2.04v6.25h-1.91v-6.02c0-.71-.19-1.27-.56-1.67-.37-.4-.88-.6-1.53-.6-.44,0-.84,.1-1.18,.29-.34,.19-.61,.47-.81,.84-.2,.37-.3,.81-.3,1.33Z"/><path d="M139.82,36.87v1.53h-5.36v-1.53h5.36Zm-3.92-2.35h1.91v9.29c0,.37,.06,.65,.17,.83,.11,.19,.25,.31,.43,.38,.18,.07,.37,.1,.58,.1,.15,0,.29-.01,.4-.03,.11-.02,.2-.04,.27-.05l.34,1.58c-.11,.04-.27,.09-.47,.13-.21,.04-.46,.07-.77,.07-.5,0-.97-.08-1.41-.27s-.79-.48-1.05-.87c-.27-.39-.4-.88-.4-1.48v-9.68Z"/><path d="M146.06,46.88c-.97,0-1.8-.21-2.5-.62-.7-.42-1.23-1-1.61-1.76-.38-.76-.57-1.64-.57-2.66s.19-1.89,.57-2.66c.38-.77,.91-1.37,1.59-1.8,.68-.43,1.47-.65,2.39-.65,.55,0,1.09,.09,1.61,.27,.52,.18,.99,.47,1.4,.86,.41,.39,.74,.9,.98,1.52,.24,.62,.36,1.38,.36,2.27v.68h-7.8v-1.43h5.93c0-.5-.1-.95-.31-1.34-.2-.39-.49-.7-.86-.92-.37-.23-.8-.34-1.29-.34-.54,0-1,.13-1.4,.39-.4,.26-.71,.6-.92,1.02-.21,.42-.32,.87-.32,1.36v1.12c0,.66,.12,1.21,.35,1.67,.23,.46,.56,.81,.97,1.05,.42,.24,.91,.36,1.46,.36,.36,0,.69-.05,.99-.16,.3-.1,.56-.26,.77-.47,.22-.21,.38-.47,.5-.77l1.81,.33c-.15,.53-.4,1-.78,1.4-.37,.4-.84,.71-1.4,.93-.56,.22-1.2,.33-1.91,.33Z"/><path d="M153.69,36.87l2.17,3.82,2.19-3.82h2.09l-3.06,4.91,3.09,4.91h-2.09l-2.21-3.67-2.21,3.67h-2.1l3.06-4.91-3.02-4.91h2.1Z"/><path d="M166.68,36.87v1.53h-5.36v-1.53h5.36Zm-3.92-2.35h1.91v9.29c0,.37,.06,.65,.17,.83,.11,.19,.25,.31,.43,.38,.18,.07,.37,.1,.58,.1,.15,0,.29-.01,.4-.03,.11-.02,.2-.04,.27-.05l.34,1.58c-.11,.04-.27,.09-.47,.13-.21,.04-.46,.07-.77,.07-.5,0-.97-.08-1.41-.27s-.79-.48-1.05-.87c-.27-.39-.4-.88-.4-1.48v-9.68Z"/><path d="M175.01,42.61v-5.75h1.92v9.82h-1.88v-1.7h-.1c-.23,.52-.59,.96-1.08,1.31-.5,.35-1.11,.52-1.85,.52-.63,0-1.19-.14-1.67-.42s-.86-.69-1.14-1.24c-.28-.55-.41-1.23-.41-2.04v-6.25h1.91v6.01c0,.67,.19,1.2,.56,1.6,.37,.4,.85,.59,1.44,.59,.36,0,.71-.09,1.07-.27,.36-.18,.65-.45,.89-.81,.24-.36,.35-.82,.35-1.38Z"/><path d="M187.93,46.88c-.79,0-1.5-.2-2.12-.61-.62-.41-1.11-.99-1.46-1.75-.35-.76-.53-1.67-.53-2.73s.18-1.97,.53-2.72c.36-.75,.84-1.33,1.47-1.73,.62-.4,1.33-.6,2.12-.6,.61,0,1.1,.1,1.47,.3s.66,.44,.87,.71c.21,.27,.37,.5,.48,.71h.12v-4.86h1.91v13.09h-1.87v-1.53h-.16c-.11,.21-.28,.45-.5,.72-.21,.27-.51,.5-.88,.7-.38,.2-.86,.3-1.46,.3Zm.42-1.63c.55,0,1.02-.15,1.4-.44,.38-.29,.67-.7,.87-1.22,.2-.52,.3-1.12,.3-1.82s-.1-1.28-.29-1.79-.48-.91-.86-1.2c-.38-.29-.85-.43-1.41-.43s-1.05,.15-1.44,.45c-.38,.3-.67,.71-.87,1.22-.19,.52-.29,1.1-.29,1.75s.1,1.25,.29,1.77,.49,.94,.87,1.24,.86,.46,1.43,.46Z"/><path d="M199.66,46.88c-.92,0-1.72-.21-2.41-.63-.69-.42-1.22-1.01-1.6-1.77-.38-.76-.57-1.65-.57-2.66s.19-1.91,.57-2.67c.38-.76,.91-1.36,1.6-1.78,.69-.42,1.49-.63,2.41-.63s1.72,.21,2.41,.63c.69,.42,1.22,1.01,1.6,1.78,.38,.76,.57,1.65,.57,2.67s-.19,1.9-.57,2.66c-.38,.76-.91,1.35-1.6,1.77-.69,.42-1.49,.63-2.41,.63Zm0-1.6c.6,0,1.09-.16,1.48-.47,.39-.31,.68-.73,.87-1.26s.28-1.1,.28-1.73-.09-1.2-.28-1.73-.48-.95-.87-1.27c-.39-.32-.89-.48-1.48-.48s-1.1,.16-1.49,.48c-.39,.32-.69,.74-.88,1.27s-.28,1.1-.28,1.73,.09,1.21,.28,1.73,.48,.94,.88,1.26c.39,.32,.89,.47,1.49,.47Z"/><path d="M213.72,39.26l-1.73,.31c-.07-.22-.19-.43-.34-.63-.16-.2-.37-.36-.63-.49-.26-.13-.59-.19-.99-.19-.54,0-.99,.12-1.35,.36-.36,.24-.54,.55-.54,.93,0,.33,.12,.59,.36,.79,.24,.2,.63,.36,1.18,.49l1.56,.36c.9,.21,1.58,.53,2.02,.96s.67,1,.67,1.69c0,.59-.17,1.11-.51,1.57-.34,.46-.81,.82-1.41,1.08-.6,.26-1.3,.39-2.09,.39-1.1,0-2-.24-2.69-.71-.7-.47-1.12-1.14-1.28-2.01l1.85-.28c.12,.48,.35,.84,.71,1.09,.36,.25,.82,.37,1.4,.37,.63,0,1.13-.13,1.5-.39,.38-.26,.56-.58,.56-.96,0-.31-.11-.57-.34-.77-.23-.21-.58-.37-1.04-.47l-1.66-.36c-.92-.21-1.59-.54-2.03-1s-.66-1.03-.66-1.73c0-.58,.16-1.09,.49-1.52,.32-.43,.77-.77,1.34-1.02,.57-.24,1.23-.37,1.96-.37,1.06,0,1.9,.23,2.5,.69s1.01,1.07,1.21,1.84Z"/><path d="M218.86,46.9c-.62,0-1.18-.12-1.69-.35-.5-.23-.9-.57-1.19-1.01s-.44-.99-.44-1.63c0-.55,.11-1.01,.32-1.37,.21-.36,.5-.64,.86-.85s.77-.37,1.21-.47c.45-.11,.9-.19,1.37-.24,.59-.07,1.06-.12,1.43-.17,.37-.04,.63-.12,.8-.22,.17-.1,.25-.27,.25-.5v-.04c0-.56-.16-.99-.47-1.3s-.78-.46-1.4-.46-1.15,.14-1.52,.42c-.37,.28-.62,.6-.76,.94l-1.8-.41c.21-.6,.53-1.08,.94-1.45,.41-.37,.88-.64,1.42-.8,.54-.17,1.1-.25,1.69-.25,.39,0,.81,.05,1.25,.14,.44,.09,.85,.26,1.24,.5,.39,.24,.7,.59,.95,1.04,.25,.45,.37,1.03,.37,1.75v6.52h-1.87v-1.34h-.08c-.12,.25-.31,.49-.56,.73-.25,.24-.57,.44-.95,.59-.39,.16-.85,.24-1.39,.24Zm.42-1.53c.53,0,.98-.1,1.36-.31s.67-.48,.86-.82c.2-.34,.3-.7,.3-1.09v-1.27c-.07,.07-.2,.13-.39,.19-.19,.06-.41,.11-.66,.15-.25,.04-.49,.08-.72,.11-.23,.03-.43,.06-.59,.08-.37,.05-.71,.13-1.01,.24-.3,.11-.55,.27-.73,.48-.18,.21-.27,.48-.27,.82,0,.47,.17,.83,.52,1.07,.35,.24,.79,.36,1.34,.36Z"/><path d="M234.29,36.87l-3.56,9.82h-2.05l-3.57-9.82h2.05l2.49,7.56h.1l2.48-7.56h2.05Z"/><path d="M238.65,46.9c-.62,0-1.18-.12-1.69-.35-.5-.23-.9-.57-1.19-1.01s-.44-.99-.44-1.63c0-.55,.11-1.01,.32-1.37,.21-.36,.5-.64,.86-.85s.77-.37,1.21-.47c.45-.11,.9-.19,1.37-.24,.59-.07,1.06-.12,1.43-.17,.37-.04,.63-.12,.8-.22,.17-.1,.25-.27,.25-.5v-.04c0-.56-.16-.99-.47-1.3s-.78-.46-1.4-.46-1.15,.14-1.52,.42c-.37,.28-.62,.6-.76,.94l-1.8-.41c.21-.6,.53-1.08,.94-1.45,.41-.37,.88-.64,1.42-.8,.54-.17,1.1-.25,1.69-.25,.39,0,.81,.05,1.25,.14,.44,.09,.85,.26,1.24,.5,.39,.24,.7,.59,.95,1.04,.25,.45,.37,1.03,.37,1.75v6.52h-1.87v-1.34h-.08c-.12,.25-.31,.49-.56,.73-.25,.24-.57,.44-.95,.59-.39,.16-.85,.24-1.39,.24Zm.42-1.53c.53,0,.98-.1,1.36-.31s.67-.48,.86-.82c.2-.34,.3-.7,.3-1.09v-1.27c-.07,.07-.2,.13-.39,.19-.19,.06-.41,.11-.66,.15-.25,.04-.49,.08-.72,.11-.23,.03-.43,.06-.59,.08-.37,.05-.71,.13-1.01,.24-.3,.11-.55,.27-.73,.48-.18,.21-.27,.48-.27,.82,0,.47,.17,.83,.52,1.07,.35,.24,.79,.36,1.34,.36Z"/><path d="M249.72,46.88c-.79,0-1.5-.2-2.12-.61-.62-.41-1.11-.99-1.46-1.75-.35-.76-.53-1.67-.53-2.73s.18-1.97,.53-2.72c.36-.75,.84-1.33,1.47-1.73,.62-.4,1.33-.6,2.12-.6,.61,0,1.1,.1,1.47,.3s.66,.44,.87,.71c.21,.27,.37,.5,.48,.71h.12v-4.86h1.91v13.09h-1.87v-1.53h-.16c-.11,.21-.28,.45-.5,.72-.21,.27-.51,.5-.88,.7-.38,.2-.86,.3-1.46,.3Zm.42-1.63c.55,0,1.02-.15,1.4-.44,.38-.29,.67-.7,.87-1.22,.2-.52,.3-1.12,.3-1.82s-.1-1.28-.29-1.79-.48-.91-.86-1.2c-.38-.29-.85-.43-1.41-.43s-1.05,.15-1.44,.45c-.38,.3-.67,.71-.87,1.22-.19,.52-.29,1.1-.29,1.75s.1,1.25,.29,1.77,.49,.94,.87,1.24,.86,.46,1.43,.46Z"/><path d="M259.22,40.85v5.83h-1.91v-9.82h1.83v1.6h.12c.23-.52,.58-.94,1.06-1.25,.48-.31,1.09-.47,1.83-.47,.67,0,1.25,.14,1.76,.42,.5,.28,.89,.69,1.17,1.24,.28,.55,.42,1.23,.42,2.04v6.25h-1.91v-6.02c0-.71-.19-1.27-.56-1.67-.37-.4-.88-.6-1.53-.6-.44,0-.84,.1-1.18,.29-.34,.19-.61,.47-.81,.84-.2,.37-.3,.81-.3,1.33Z"/><path d="M268.06,46.68v-9.82h1.91v9.82h-1.91Zm.18-11.13l1.5-2.95h2.01l-1.98,2.95h-1.53Z"/><path d="M274.45,40.85v5.83h-1.91v-13.09h1.89v4.87h.12c.23-.53,.58-.95,1.05-1.26,.47-.31,1.09-.47,1.85-.47,.67,0,1.26,.14,1.77,.42,.5,.28,.9,.69,1.18,1.24s.42,1.23,.42,2.05v6.25h-1.91v-6.02c0-.72-.19-1.28-.56-1.68-.37-.4-.89-.6-1.55-.6-.45,0-.86,.1-1.21,.29-.36,.19-.63,.47-.84,.84-.2,.37-.3,.81-.3,1.33Z"/><path d="M287.51,46.88c-.92,0-1.72-.21-2.41-.63-.69-.42-1.22-1.01-1.6-1.77-.38-.76-.57-1.65-.57-2.66s.19-1.91,.57-2.67c.38-.76,.91-1.36,1.6-1.78,.69-.42,1.49-.63,2.41-.63s1.72,.21,2.41,.63c.69,.42,1.22,1.01,1.6,1.78,.38,.76,.57,1.65,.57,2.67s-.19,1.9-.57,2.66c-.38,.76-.91,1.35-1.6,1.77-.69,.42-1.49,.63-2.41,.63Zm0-1.6c.6,0,1.09-.16,1.48-.47,.39-.31,.68-.73,.87-1.26s.28-1.1,.28-1.73-.09-1.2-.28-1.73-.48-.95-.87-1.27c-.39-.32-.89-.48-1.48-.48s-1.1,.16-1.49,.48c-.39,.32-.69,.74-.88,1.27s-.28,1.1-.28,1.73,.09,1.21,.28,1.73,.48,.94,.88,1.26c.39,.32,.89,.47,1.49,.47Z"/><path d="M307.38,36.87l-3.56,9.82h-2.05l-3.57-9.82h2.05l2.49,7.56h.1l2.48-7.56h2.05Z"/><path d="M310.39,50.37c-.29,0-.55-.02-.78-.07s-.41-.09-.52-.14l.46-1.57c.35,.09,.66,.13,.93,.12,.27-.01,.51-.12,.73-.31,.21-.19,.4-.5,.56-.94l.24-.65-3.59-9.95h2.04l2.49,7.62h.1l2.49-7.62h2.05l-4.05,11.13c-.19,.51-.43,.94-.72,1.3-.29,.36-.63,.62-1.04,.8-.4,.18-.87,.27-1.39,.27Zm1.81-14.81l1.5-2.95h2.01l-1.98,2.95h-1.53Z"/><path d="M327.77,36.87l-3.56,9.82h-2.05l-3.57-9.82h2.05l2.49,7.56h.1l2.48-7.56h2.05Z"/><path d="M333.36,46.88c-.92,0-1.72-.21-2.41-.63-.69-.42-1.22-1.01-1.6-1.77-.38-.76-.57-1.65-.57-2.66s.19-1.91,.57-2.67c.38-.76,.91-1.36,1.6-1.78,.69-.42,1.49-.63,2.41-.63s1.72,.21,2.41,.63c.69,.42,1.22,1.01,1.6,1.78,.38,.76,.57,1.65,.57,2.67s-.19,1.9-.57,2.66c-.38,.76-.91,1.35-1.6,1.77-.69,.42-1.49,.63-2.41,.63Zm0-1.6c.6,0,1.09-.16,1.48-.47,.39-.31,.68-.73,.87-1.26s.28-1.1,.28-1.73-.09-1.2-.28-1.73-.48-.95-.87-1.27c-.39-.32-.89-.48-1.48-.48s-1.1,.16-1.49,.48c-.39,.32-.69,.74-.88,1.27s-.28,1.1-.28,1.73,.09,1.21,.28,1.73,.48,.94,.88,1.26c.39,.32,.89,.47,1.49,.47Z"/><path d="M340.06,36.87h1.91v10.46c0,.66-.12,1.21-.36,1.66-.24,.45-.59,.79-1.05,1.03-.46,.23-1.03,.35-1.71,.35h-.2c-.06,0-.13,0-.19,0v-1.64h.31c.45,0,.78-.12,.98-.36,.2-.24,.3-.59,.3-1.04v-10.44Zm.95-1.51c-.33,0-.62-.11-.85-.34-.24-.22-.36-.49-.36-.8s.12-.58,.36-.81c.24-.22,.52-.34,.85-.34s.62,.11,.85,.34c.24,.22,.35,.49,.35,.81s-.12,.58-.35,.8-.52,.34-.85,.34Z"/><path d="M348.78,46.88c-.97,0-1.8-.21-2.5-.62-.7-.42-1.23-1-1.61-1.76-.38-.76-.57-1.64-.57-2.66s.19-1.89,.57-2.66c.38-.77,.91-1.37,1.59-1.8,.68-.43,1.47-.65,2.39-.65,.55,0,1.09,.09,1.61,.27,.52,.18,.99,.47,1.4,.86,.41,.39,.74,.9,.98,1.52,.24,.62,.36,1.38,.36,2.27v.68h-7.8v-1.43h5.93c0-.5-.1-.95-.31-1.34-.2-.39-.49-.7-.86-.92-.37-.23-.8-.34-1.29-.34-.54,0-1,.13-1.4,.39-.4,.26-.71,.6-.92,1.02-.21,.42-.32,.87-.32,1.36v1.12c0,.66,.12,1.21,.35,1.67,.23,.46,.56,.81,.97,1.05,.42,.24,.91,.36,1.46,.36,.36,0,.69-.05,.99-.16,.3-.1,.56-.26,.77-.47,.22-.21,.38-.47,.5-.77l1.81,.33c-.15,.53-.4,1-.78,1.4-.37,.4-.84,.71-1.4,.93-.56,.22-1.2,.33-1.91,.33Z"/><path d="M364.12,46.88c-.97,0-1.8-.21-2.5-.62-.7-.42-1.23-1-1.61-1.76-.38-.76-.57-1.64-.57-2.66s.19-1.89,.57-2.66c.38-.77,.91-1.37,1.59-1.8,.68-.43,1.47-.65,2.39-.65,.55,0,1.09,.09,1.61,.27,.52,.18,.99,.47,1.4,.86,.41,.39,.74,.9,.98,1.52,.24,.62,.36,1.38,.36,2.27v.68h-7.8v-1.43h5.93c0-.5-.1-.95-.31-1.34-.2-.39-.49-.7-.86-.92-.37-.23-.8-.34-1.29-.34-.54,0-1,.13-1.4,.39-.4,.26-.71,.6-.92,1.02-.21,.42-.32,.87-.32,1.36v1.12c0,.66,.12,1.21,.35,1.67,.23,.46,.56,.81,.97,1.05,.42,.24,.91,.36,1.46,.36,.36,0,.69-.05,.99-.16,.3-.1,.56-.26,.77-.47,.22-.21,.38-.47,.5-.77l1.81,.33c-.15,.53-.4,1-.78,1.4-.37,.4-.84,.71-1.4,.93-.56,.22-1.2,.33-1.91,.33Z"/><path d="M370.46,46.68v-9.82h1.83v1.6h.12c.2-.54,.54-.96,1-1.27,.46-.3,1.02-.46,1.67-.46s1.21,.15,1.65,.46c.44,.31,.77,.73,.99,1.27h.1c.23-.52,.61-.94,1.12-1.26s1.12-.47,1.83-.47c.89,0,1.62,.28,2.18,.84,.56,.56,.85,1.4,.85,2.53v6.58h-1.91v-6.41c0-.67-.18-1.15-.54-1.44s-.79-.45-1.3-.45c-.62,0-1.11,.19-1.45,.57-.35,.38-.52,.87-.52,1.47v6.26h-1.9v-6.53c0-.53-.17-.96-.5-1.29-.33-.32-.76-.49-1.3-.49-.36,0-.7,.09-1,.28s-.55,.45-.74,.79c-.18,.34-.28,.73-.28,1.17v6.05h-1.91Z"/><path d="M387.33,35.35c-.33,0-.62-.11-.85-.34s-.35-.49-.35-.8,.12-.58,.35-.81c.24-.22,.52-.34,.85-.34s.62,.11,.85,.34c.24,.22,.35,.49,.35,.81s-.12,.58-.35,.8-.52,.34-.85,.34Zm-.96,11.33v-9.82h1.91v9.82h-1.91Z"/><path d="M398.2,39.26l-1.73,.31c-.07-.22-.19-.43-.34-.63-.16-.2-.37-.36-.63-.49-.26-.13-.59-.19-.99-.19-.54,0-.99,.12-1.35,.36-.36,.24-.54,.55-.54,.93,0,.33,.12,.59,.36,.79,.24,.2,.63,.36,1.18,.49l1.56,.36c.9,.21,1.58,.53,2.02,.96s.67,1,.67,1.69c0,.59-.17,1.11-.51,1.57-.34,.46-.81,.82-1.41,1.08-.6,.26-1.3,.39-2.09,.39-1.1,0-2-.24-2.69-.71-.7-.47-1.12-1.14-1.28-2.01l1.85-.28c.12,.48,.35,.84,.71,1.09,.36,.25,.82,.37,1.4,.37,.63,0,1.13-.13,1.5-.39,.38-.26,.56-.58,.56-.96,0-.31-.11-.57-.34-.77-.23-.21-.58-.37-1.04-.47l-1.66-.36c-.92-.21-1.59-.54-2.03-1s-.66-1.03-.66-1.73c0-.58,.16-1.09,.49-1.52,.32-.43,.77-.77,1.34-1.02,.57-.24,1.23-.37,1.96-.37,1.06,0,1.9,.23,2.5,.69s1.01,1.07,1.21,1.84Z"/><path d="M400.49,46.68v-9.82h1.91v9.82h-1.91Zm.18-11.13l1.5-2.95h2.01l-1.98,2.95h-1.53Z"/><path d="M417.09,39.26l-1.73,.31c-.07-.22-.19-.43-.34-.63-.16-.2-.37-.36-.63-.49-.26-.13-.59-.19-.99-.19-.54,0-.99,.12-1.35,.36-.36,.24-.54,.55-.54,.93,0,.33,.12,.59,.36,.79,.24,.2,.63,.36,1.18,.49l1.56,.36c.9,.21,1.58,.53,2.02,.96s.67,1,.67,1.69c0,.59-.17,1.11-.51,1.57-.34,.46-.81,.82-1.41,1.08-.6,.26-1.3,.39-2.09,.39-1.1,0-2-.24-2.69-.71-.7-.47-1.12-1.14-1.28-2.01l1.85-.28c.12,.48,.35,.84,.71,1.09,.36,.25,.82,.37,1.4,.37,.63,0,1.13-.13,1.5-.39,.38-.26,.56-.58,.56-.96,0-.31-.11-.57-.34-.77-.23-.21-.58-.37-1.04-.47l-1.66-.36c-.92-.21-1.59-.54-2.03-1s-.66-1.03-.66-1.73c0-.58,.16-1.09,.49-1.52,.32-.43,.77-.77,1.34-1.02,.57-.24,1.23-.37,1.96-.37,1.06,0,1.9,.23,2.5,.69s1.01,1.07,1.21,1.84Z"/><path d="M419.38,46.68v-13.09h1.91v13.09h-1.91Zm1.76-3.33v-2.33s.32,0,.32,0l3.91-4.15h2.29l-4.46,4.73h-.3l-1.76,1.76Zm4.44,3.33l-3.52-4.67,1.32-1.34,4.54,6h-2.35Z"/><path d="M431.31,33.59v13.09h-1.91v-13.09h1.91Z"/><path d="M438.11,46.88c-.97,0-1.8-.21-2.5-.62-.7-.42-1.23-1-1.61-1.76-.38-.76-.57-1.64-.57-2.66s.19-1.89,.57-2.66c.38-.77,.91-1.37,1.59-1.8,.68-.43,1.47-.65,2.39-.65,.55,0,1.09,.09,1.61,.27,.52,.18,.99,.47,1.4,.86,.41,.39,.74,.9,.98,1.52,.24,.62,.36,1.38,.36,2.27v.68h-7.8v-1.43h5.93c0-.5-.1-.95-.31-1.34-.2-.39-.49-.7-.86-.92-.37-.23-.8-.34-1.29-.34-.54,0-1,.13-1.4,.39-.4,.26-.71,.6-.92,1.02-.21,.42-.32,.87-.32,1.36v1.12c0,.66,.12,1.21,.35,1.67,.23,.46,.56,.81,.97,1.05,.42,.24,.91,.36,1.46,.36,.36,0,.69-.05,.99-.16,.3-.1,.56-.26,.77-.47,.22-.21,.38-.47,.5-.77l1.81,.33c-.15,.53-.4,1-.78,1.4-.37,.4-.84,.71-1.4,.93-.56,.22-1.2,.33-1.91,.33Z"/><path d="M446.36,40.85v5.83h-1.91v-9.82h1.83v1.6h.12c.23-.52,.58-.94,1.06-1.25,.48-.31,1.09-.47,1.83-.47,.67,0,1.25,.14,1.76,.42,.5,.28,.89,.69,1.17,1.24,.28,.55,.42,1.23,.42,2.04v6.25h-1.91v-6.02c0-.71-.19-1.27-.56-1.67-.37-.4-.88-.6-1.53-.6-.44,0-.84,.1-1.18,.29-.34,.19-.61,.47-.81,.84-.2,.37-.3,.81-.3,1.33Z"/><path d="M455.2,46.68v-9.82h1.91v9.82h-1.91Zm.18-11.13l1.5-2.95h2.01l-1.98,2.95h-1.53Z"/><path d="M459.68,46.68v-13.09h1.91v13.09h-1.91Zm1.76-3.33v-2.33s.32,0,.32,0l3.91-4.15h2.29l-4.46,4.73h-.3l-1.76,1.76Zm4.44,3.33l-3.52-4.67,1.32-1.34,4.54,6h-2.35Z"/><path d="M473.43,46.88c-.92,0-1.72-.21-2.41-.63-.69-.42-1.22-1.01-1.6-1.77-.38-.76-.57-1.65-.57-2.66s.19-1.91,.57-2.67c.38-.76,.91-1.36,1.6-1.78,.69-.42,1.49-.63,2.41-.63s1.72,.21,2.41,.63c.69,.42,1.22,1.01,1.6,1.78,.38,.76,.57,1.65,.57,2.67s-.19,1.9-.57,2.66c-.38,.76-.91,1.35-1.6,1.77-.69,.42-1.49,.63-2.41,.63Zm0-1.6c.6,0,1.09-.16,1.48-.47,.39-.31,.68-.73,.87-1.26s.28-1.1,.28-1.73-.09-1.2-.28-1.73-.48-.95-.87-1.27c-.39-.32-.89-.48-1.48-.48s-1.1,.16-1.49,.48c-.39,.32-.69,.74-.88,1.27s-.28,1.1-.28,1.73,.09,1.21,.28,1.73,.48,.94,.88,1.26c.39,.32,.89,.47,1.49,.47Z"/><path d="M488.19,36.87l-3.56,9.82h-2.05l-3.57-9.82h2.05l2.49,7.56h.1l2.48-7.56h2.05Z"/><path d="M491.19,50.37c-.29,0-.55-.02-.78-.07s-.41-.09-.52-.14l.46-1.57c.35,.09,.66,.13,.93,.12,.27-.01,.51-.12,.73-.31,.21-.19,.4-.5,.56-.94l.24-.65-3.59-9.95h2.04l2.49,7.62h.1l2.49-7.62h2.05l-4.05,11.13c-.19,.51-.43,.94-.72,1.3-.29,.36-.63,.62-1.04,.8-.4,.18-.87,.27-1.39,.27Zm1.81-14.81l1.5-2.95h2.01l-1.98,2.95h-1.53Z"/><path d="M503.97,46.88c-.95,0-1.77-.22-2.45-.65-.68-.43-1.21-1.03-1.58-1.79s-.55-1.64-.55-2.62,.19-1.88,.56-2.64,.9-1.36,1.58-1.79,1.49-.65,2.41-.65c.75,0,1.41,.14,1.99,.41,.58,.28,1.06,.66,1.42,1.15s.57,1.07,.64,1.73h-1.86c-.1-.46-.34-.86-.7-1.19s-.85-.5-1.46-.5c-.53,0-1,.14-1.4,.42s-.71,.68-.93,1.19-.33,1.12-.33,1.82,.11,1.33,.33,1.85c.22,.52,.52,.92,.92,1.21,.4,.29,.87,.43,1.41,.43,.36,0,.69-.07,.99-.2,.3-.13,.54-.33,.75-.58,.2-.25,.34-.55,.42-.91h1.86c-.07,.63-.28,1.2-.62,1.7-.35,.5-.81,.89-1.38,1.18-.58,.29-1.25,.43-2.03,.43Z"/><path d="M511.96,40.85v5.83h-1.91v-13.09h1.89v4.87h.12c.23-.53,.58-.95,1.05-1.26,.47-.31,1.09-.47,1.85-.47,.67,0,1.26,.14,1.77,.42,.5,.28,.9,.69,1.18,1.24s.42,1.23,.42,2.05v6.25h-1.91v-6.02c0-.72-.19-1.28-.56-1.68-.37-.4-.89-.6-1.55-.6-.45,0-.86,.1-1.21,.29-.36,.19-.63,.47-.84,.84-.2,.37-.3,.81-.3,1.33Z"/><path d="M525.66,50.37v-13.5h1.87v1.59h.16c.11-.21,.27-.44,.48-.71,.21-.27,.5-.5,.87-.71,.37-.2,.86-.3,1.47-.3,.79,0,1.5,.2,2.12,.6,.62,.4,1.11,.98,1.47,1.73,.36,.75,.53,1.66,.53,2.72s-.18,1.97-.53,2.73c-.35,.76-.84,1.34-1.46,1.75-.62,.41-1.32,.61-2.12,.61-.6,0-1.08-.1-1.46-.3-.38-.2-.67-.43-.88-.7-.21-.27-.38-.51-.49-.72h-.12v5.21h-1.91Zm1.87-8.59c0,.69,.1,1.29,.3,1.82,.2,.52,.49,.93,.87,1.22,.38,.29,.84,.44,1.39,.44s1.05-.15,1.43-.46c.38-.3,.67-.72,.87-1.24s.3-1.11,.3-1.77-.1-1.23-.29-1.75c-.19-.52-.48-.92-.87-1.22-.39-.3-.87-.45-1.44-.45s-1.02,.14-1.4,.43c-.38,.29-.67,.68-.87,1.2-.2,.51-.29,1.11-.29,1.79Z"/><path d="M538.68,33.59v13.09h-1.91v-13.09h1.91Z"/><path d="M542.45,50.37c-.29,0-.55-.02-.78-.07s-.41-.09-.52-.14l.46-1.57c.35,.09,.66,.13,.93,.12,.27-.01,.51-.12,.73-.31,.21-.19,.4-.5,.56-.94l.24-.65-3.59-9.95h2.04l2.49,7.62h.1l2.49-7.62h2.05l-4.05,11.13c-.19,.51-.43,.94-.72,1.3-.29,.36-.63,.62-1.04,.8-.4,.18-.87,.27-1.39,.27Z"/><path d="M553.35,40.85v5.83h-1.91v-9.82h1.83v1.6h.12c.23-.52,.58-.94,1.06-1.25,.48-.31,1.09-.47,1.83-.47,.67,0,1.25,.14,1.76,.42,.5,.28,.89,.69,1.17,1.24,.28,.55,.42,1.23,.42,2.04v6.25h-1.91v-6.02c0-.71-.19-1.27-.56-1.67-.37-.4-.88-.6-1.53-.6-.44,0-.84,.1-1.18,.29-.34,.19-.61,.47-.81,.84-.2,.37-.3,.81-.3,1.33Z"/><path d="M568.41,42.61v-5.75h1.92v9.82h-1.88v-1.7h-.1c-.23,.52-.59,.96-1.08,1.31-.5,.35-1.11,.52-1.85,.52-.63,0-1.19-.14-1.67-.42s-.86-.69-1.14-1.24c-.28-.55-.41-1.23-.41-2.04v-6.25h1.91v6.01c0,.67,.19,1.2,.56,1.6,.37,.4,.85,.59,1.44,.59,.36,0,.71-.09,1.07-.27,.36-.18,.65-.45,.89-.81,.24-.36,.35-.82,.35-1.38Zm-2.13-6.83c-.43,0-.81-.09-1.16-.28-.34-.19-.62-.45-.82-.77-.2-.32-.3-.69-.3-1.09s.1-.77,.3-1.1c.2-.33,.48-.6,.82-.8,.35-.2,.73-.3,1.16-.3s.8,.1,1.14,.3c.34,.2,.61,.47,.81,.8,.2,.33,.3,.7,.3,1.1s-.1,.77-.3,1.09c-.2,.32-.47,.58-.81,.77s-.72,.28-1.14,.28Zm0-1.02c.33,0,.61-.12,.83-.35,.22-.23,.33-.49,.33-.78s-.11-.57-.33-.8c-.22-.24-.49-.35-.83-.35s-.61,.12-.83,.35c-.22,.24-.32,.5-.32,.8s.11,.55,.32,.78c.21,.23,.49,.35,.83,.35Z"/></g><rect class="n" x="576.25" y="325.38" width="8.73" height=".73"/><g><line class="e" x1="329.06" y1="191.66" x2="393.76" y2="227.12"/><polygon class="n" points="390.97 230.38 390.63 229.44 395.27 227.76 393.26 223.26 394.18 222.85 396.62 228.34 390.97 230.38"/></g><g><line class="e" x1="419.55" y1="237.68" x2="569.29" y2="321.75"/><polygon class="n" points="566.19 324.69 565.95 323.72 570.75 322.58 569.26 317.88 570.22 317.58 572.03 323.3 566.19 324.69"/></g></g></g></svg>