<?xml version="1.0" encoding="UTF-8"?><svg xmlns="http://www.w3.org/2000/svg" viewBox="0 0 440 383.81"><defs><style>.c{mix-blend-mode:multiply;stroke:#999;stroke-dasharray:0 0 1 4;}.c,.d,.e,.f,.g{fill:none;stroke-miterlimit:10;}.c,.e,.g{stroke-linecap:round;}.c,.g{stroke-width:.75px;}.d{stroke-linecap:square;}.d,.f{stroke:#bcbec0;}.h{fill:#fff;}.i{fill:#9d9dce;}.j{fill:#666;}.k{fill:#333;}.l{fill:#adadce;}.m{fill:#203e80;}.n{fill:#342d73;}.e{stroke:#203e80;stroke-dasharray:0 0 0 5;stroke-width:2px;}.o{isolation:isolate;}.g{stroke:#666;}</style></defs><g class="o"><g id="a"><rect class="h" width="440" height="383.81"/><g><path d="M114.84,20.79V6.24h3.07v6.41h.19l5.23-6.41h3.69l-5.4,6.51,5.46,8.03h-3.68l-3.98-5.98-1.51,1.85v4.13h-3.07Z"/><path d="M129.23,20.79V6.24h3.08v12.01h6.23v2.54h-9.31Z"/><path d="M144.26,6.24v14.54h-3.07V6.24h3.07Z"/><path d="M147.39,6.24h3.79l4.01,9.77h.17l4.01-9.77h3.79v14.54h-2.98V11.32h-.12l-3.77,9.4h-2.03l-3.76-9.43h-.12v9.5h-2.98V6.24Z"/><path d="M168.79,20.79h-3.29l5.02-14.54h3.96l5.01,14.54h-3.29l-3.64-11.22h-.11l-3.65,11.22Zm-.21-5.72h7.78v2.4h-7.78v-2.4Z"/><path d="M179.5,8.78v-2.54h11.95v2.54h-4.45v12.01h-3.04V8.78h-4.45Z"/><path d="M197.1,6.24v14.54h-3.07V6.24h3.07Z"/><path d="M213.07,11.33h-3.11c-.06-.4-.17-.76-.35-1.08-.18-.31-.4-.58-.67-.81-.28-.22-.59-.39-.95-.51-.36-.12-.74-.18-1.16-.18-.75,0-1.41,.19-1.97,.56-.56,.37-.99,.91-1.3,1.62-.31,.71-.46,1.57-.46,2.57s.16,1.91,.47,2.61c.31,.71,.74,1.24,1.3,1.6,.56,.36,1.21,.54,1.94,.54,.41,0,.79-.05,1.15-.16,.35-.11,.67-.27,.94-.48,.27-.21,.5-.47,.69-.77,.18-.3,.31-.65,.38-1.04h3.11c-.08,.68-.28,1.33-.6,1.94-.32,.62-.75,1.17-1.29,1.66-.54,.49-1.18,.87-1.92,1.15-.74,.28-1.58,.42-2.51,.42-1.3,0-2.46-.29-3.48-.88-1.02-.59-1.82-1.44-2.41-2.55-.59-1.11-.88-2.46-.88-4.04s.3-2.94,.89-4.05c.6-1.11,1.41-1.96,2.43-2.55s2.17-.88,3.45-.88c.84,0,1.62,.12,2.35,.36,.72,.24,1.36,.58,1.92,1.03s1.01,1,1.37,1.66c.35,.65,.58,1.4,.68,2.24Z"/><path d="M215.87,20.79V6.24h3.08v6.41h.19l5.23-6.41h3.69l-5.4,6.51,5.46,8.03h-3.68l-3.98-5.98-1.51,1.85v4.13h-3.08Z"/><path d="M230.27,20.79V6.24h9.8v2.54h-6.73v3.47h6.22v2.54h-6.22v3.47h6.75v2.54h-9.83Zm3.83-15.95l1.51-3.23h2.8l-2.17,3.23h-2.14Z"/><path d="M261.19,11.33h-3.11c-.06-.4-.17-.76-.35-1.08-.18-.31-.4-.58-.68-.81s-.59-.39-.95-.51c-.36-.12-.75-.18-1.16-.18-.75,0-1.41,.19-1.97,.56-.56,.37-.99,.91-1.3,1.62-.31,.71-.46,1.57-.46,2.57s.15,1.91,.46,2.61c.31,.71,.74,1.24,1.3,1.6,.56,.36,1.21,.54,1.94,.54,.41,0,.79-.05,1.15-.16,.35-.11,.67-.27,.94-.48,.28-.21,.5-.47,.69-.77s.31-.65,.38-1.04h3.11c-.08,.68-.28,1.33-.6,1.94-.32,.62-.75,1.17-1.29,1.66s-1.18,.87-1.92,1.15c-.74,.28-1.58,.42-2.51,.42-1.3,0-2.46-.29-3.48-.88-1.02-.59-1.83-1.44-2.42-2.55-.59-1.11-.88-2.46-.88-4.04s.3-2.94,.89-4.05c.6-1.11,1.41-1.96,2.43-2.55,1.02-.58,2.17-.88,3.45-.88,.84,0,1.62,.12,2.35,.36,.72,.24,1.36,.58,1.92,1.03s1.02,1,1.37,1.66c.35,.65,.58,1.4,.68,2.24Z"/><path d="M267.07,6.24v14.54h-3.08V6.24h3.08Zm-2.62-1.41l1.51-3.23h2.8l-2.17,3.23h-2.14Z"/><path d="M270.21,20.79V6.24h3.08v12.01h6.23v2.54h-9.31Z"/><path d="M282.16,20.79V6.24h9.8v2.54h-6.73v3.47h6.22v2.54h-6.22v3.47h6.75v2.54h-9.83Z"/><path d="M300.25,20.79V6.24h9.8v2.54h-6.73v3.47h6.22v2.54h-6.22v3.47h6.75v2.54h-9.83Z"/><path d="M322.08,6.24h3.08V15.69c0,1.06-.25,1.99-.76,2.78-.5,.8-1.21,1.42-2.11,1.86-.9,.44-1.96,.66-3.16,.66s-2.26-.22-3.17-.66c-.9-.44-1.61-1.06-2.11-1.86-.5-.79-.75-1.72-.75-2.78V6.24h3.08V15.42c0,.55,.12,1.05,.37,1.48s.59,.77,1.03,1.02,.96,.37,1.55,.37,1.12-.12,1.56-.37c.44-.25,.79-.58,1.03-1.02s.37-.92,.37-1.48V6.24Z"/><path d="M96.66,32.57l-3.56,9.82h-2.05l-3.57-9.82h2.05l2.49,7.56h.1l2.48-7.56h2.05Z"/><path d="M103.23,42.39v-13.09h1.91v13.09h-1.91Zm1.76-3.33v-2.33s.32,0,.32,0l3.91-4.15h2.29l-4.46,4.73h-.3l-1.76,1.76Zm4.44,3.33l-3.52-4.67,1.32-1.34,4.54,6h-2.35Z"/><path d="M116.97,42.58c-.92,0-1.72-.21-2.41-.63s-1.22-1.01-1.6-1.77c-.38-.76-.57-1.65-.57-2.66s.19-1.91,.57-2.67,.91-1.36,1.6-1.78,1.49-.63,2.41-.63,1.72,.21,2.41,.63,1.22,1.01,1.6,1.78,.57,1.65,.57,2.67-.19,1.9-.57,2.66c-.38,.76-.91,1.35-1.6,1.77s-1.49,.63-2.41,.63Zm0-1.6c.6,0,1.09-.16,1.48-.47,.39-.31,.68-.73,.87-1.26s.29-1.1,.29-1.73-.1-1.2-.29-1.73-.48-.95-.87-1.27c-.39-.32-.89-.48-1.48-.48s-1.1,.16-1.49,.48c-.39,.32-.69,.74-.88,1.27s-.29,1.1-.29,1.73,.1,1.21,.29,1.73,.48,.94,.88,1.26c.39,.32,.89,.47,1.49,.47Z"/><path d="M125.59,36.56v5.83h-1.91v-9.82h1.83v1.6h.12c.22-.52,.58-.94,1.06-1.25,.48-.31,1.1-.47,1.83-.47,.67,0,1.26,.14,1.76,.42s.89,.69,1.17,1.24,.42,1.23,.42,2.04v6.25h-1.91v-6.02c0-.71-.19-1.27-.56-1.67-.37-.4-.88-.6-1.53-.6-.44,0-.84,.1-1.18,.29-.34,.19-.61,.47-.81,.84-.2,.37-.3,.81-.3,1.33Z"/><path d="M139.01,32.57v1.53h-5.36v-1.53h5.36Zm-3.92-2.35h1.91v9.29c0,.37,.06,.65,.17,.83,.11,.19,.26,.31,.43,.38,.18,.07,.37,.1,.58,.1,.15,0,.29-.01,.4-.03,.11-.02,.2-.04,.27-.05l.35,1.58c-.11,.04-.27,.09-.47,.13-.21,.04-.46,.07-.77,.07-.5,0-.97-.08-1.41-.27-.44-.19-.79-.48-1.05-.87-.27-.39-.4-.88-.4-1.48v-9.68Z"/><path d="M145.25,42.58c-.97,0-1.8-.21-2.5-.62-.7-.42-1.23-1-1.61-1.76-.38-.76-.57-1.64-.57-2.66s.19-1.89,.57-2.66c.38-.77,.9-1.37,1.59-1.8,.68-.43,1.47-.65,2.39-.65,.55,0,1.09,.09,1.61,.27,.52,.18,.99,.47,1.4,.86,.41,.39,.74,.9,.98,1.52,.24,.62,.36,1.38,.36,2.27v.68h-7.8v-1.43h5.93c0-.5-.1-.95-.31-1.34-.2-.39-.49-.7-.86-.92-.37-.23-.8-.34-1.29-.34-.54,0-1,.13-1.4,.39-.4,.26-.71,.6-.92,1.02-.21,.42-.32,.87-.32,1.36v1.12c0,.66,.12,1.21,.35,1.67,.23,.46,.56,.81,.97,1.05,.42,.24,.91,.36,1.46,.36,.36,0,.69-.05,.99-.16,.3-.1,.55-.26,.77-.47,.22-.21,.38-.47,.5-.77l1.81,.33c-.14,.53-.4,1-.78,1.4-.37,.4-.84,.71-1.4,.93-.56,.22-1.2,.33-1.91,.33Z"/><path d="M152.87,32.57l2.17,3.82,2.19-3.82h2.09l-3.06,4.91,3.09,4.91h-2.09l-2.21-3.67-2.21,3.67h-2.1l3.05-4.91-3.02-4.91h2.1Z"/><path d="M165.87,32.57v1.53h-5.36v-1.53h5.36Zm-3.92-2.35h1.91v9.29c0,.37,.06,.65,.17,.83,.11,.19,.26,.31,.43,.38,.18,.07,.37,.1,.58,.1,.15,0,.29-.01,.4-.03,.11-.02,.2-.04,.27-.05l.35,1.58c-.11,.04-.27,.09-.47,.13-.21,.04-.46,.07-.77,.07-.5,0-.97-.08-1.41-.27-.44-.19-.79-.48-1.05-.87-.27-.39-.4-.88-.4-1.48v-9.68Z"/><path d="M174.2,38.31v-5.75h1.92v9.82h-1.88v-1.7h-.1c-.23,.52-.59,.96-1.08,1.31-.5,.35-1.11,.52-1.85,.52-.63,0-1.19-.14-1.67-.42-.48-.28-.86-.69-1.14-1.24s-.41-1.23-.41-2.04v-6.25h1.91v6.01c0,.67,.19,1.2,.55,1.6,.37,.4,.85,.59,1.45,.59,.36,0,.71-.09,1.07-.27,.36-.18,.65-.45,.89-.81s.35-.82,.35-1.38Z"/><path d="M187.12,42.58c-.79,0-1.5-.2-2.12-.61s-1.11-.99-1.46-1.75c-.35-.76-.53-1.67-.53-2.73s.18-1.97,.53-2.72,.85-1.33,1.47-1.73c.62-.4,1.33-.6,2.12-.6,.61,0,1.1,.1,1.47,.3s.66,.44,.87,.71,.37,.5,.48,.71h.12v-4.86h1.91v13.09h-1.87v-1.53h-.16c-.12,.21-.28,.45-.5,.72-.21,.27-.51,.5-.88,.7-.38,.2-.86,.3-1.46,.3Zm.42-1.63c.55,0,1.02-.15,1.4-.44s.67-.7,.87-1.22c.2-.52,.3-1.12,.3-1.82s-.1-1.28-.29-1.79c-.2-.51-.48-.91-.86-1.2-.38-.29-.85-.43-1.41-.43s-1.05,.15-1.44,.45c-.38,.3-.67,.71-.87,1.22s-.29,1.1-.29,1.75,.1,1.25,.29,1.77c.2,.52,.49,.94,.87,1.24,.39,.3,.86,.46,1.43,.46Z"/><path d="M198.85,42.58c-.92,0-1.72-.21-2.41-.63s-1.22-1.01-1.6-1.77c-.38-.76-.57-1.65-.57-2.66s.19-1.91,.57-2.67,.91-1.36,1.6-1.78,1.49-.63,2.41-.63,1.72,.21,2.41,.63,1.22,1.01,1.6,1.78,.57,1.65,.57,2.67-.19,1.9-.57,2.66c-.38,.76-.91,1.35-1.6,1.77s-1.49,.63-2.41,.63Zm0-1.6c.6,0,1.09-.16,1.48-.47,.39-.31,.68-.73,.87-1.26s.29-1.1,.29-1.73-.1-1.2-.29-1.73-.48-.95-.87-1.27c-.39-.32-.89-.48-1.48-.48s-1.1,.16-1.49,.48c-.39,.32-.69,.74-.88,1.27s-.29,1.1-.29,1.73,.1,1.21,.29,1.73,.48,.94,.88,1.26c.39,.32,.89,.47,1.49,.47Z"/><path d="M212.91,34.96l-1.73,.31c-.07-.22-.19-.43-.34-.63s-.37-.36-.63-.49c-.27-.13-.6-.19-.99-.19-.54,0-.99,.12-1.35,.36-.36,.24-.54,.55-.54,.93,0,.33,.12,.59,.37,.79s.63,.36,1.18,.49l1.56,.36c.9,.21,1.58,.53,2.02,.96s.66,1,.66,1.69c0,.59-.17,1.11-.51,1.57-.34,.46-.81,.82-1.41,1.08-.6,.26-1.3,.39-2.09,.39-1.1,0-2-.24-2.69-.71-.7-.47-1.12-1.14-1.28-2.01l1.85-.28c.12,.48,.35,.84,.71,1.09,.36,.25,.82,.37,1.4,.37,.63,0,1.13-.13,1.5-.39,.38-.26,.56-.58,.56-.96,0-.31-.11-.57-.34-.77-.23-.21-.58-.37-1.04-.47l-1.66-.36c-.92-.21-1.59-.54-2.03-1-.44-.46-.65-1.03-.65-1.73,0-.58,.16-1.09,.49-1.52,.32-.43,.77-.77,1.34-1.02,.57-.24,1.22-.37,1.96-.37,1.06,0,1.89,.23,2.5,.69s1.01,1.07,1.21,1.84Z"/><path d="M218.05,42.6c-.62,0-1.18-.12-1.69-.35-.5-.23-.9-.57-1.19-1.01-.29-.44-.44-.99-.44-1.63,0-.55,.11-1.01,.32-1.37,.21-.36,.5-.64,.86-.85,.36-.21,.77-.37,1.21-.47,.45-.11,.9-.19,1.37-.24,.59-.07,1.06-.12,1.43-.17,.37-.04,.63-.12,.8-.22,.17-.1,.25-.27,.25-.5v-.04c0-.56-.16-.99-.47-1.3-.31-.31-.78-.46-1.4-.46s-1.15,.14-1.52,.42c-.37,.28-.62,.6-.76,.94l-1.79-.41c.21-.6,.53-1.08,.94-1.45,.41-.37,.88-.64,1.42-.8,.54-.17,1.1-.25,1.7-.25,.39,0,.81,.05,1.25,.14,.44,.09,.86,.26,1.24,.5,.39,.24,.7,.59,.95,1.04,.25,.45,.37,1.03,.37,1.75v6.52h-1.87v-1.34h-.08c-.12,.25-.31,.49-.55,.73-.25,.24-.57,.44-.95,.59-.39,.16-.85,.24-1.39,.24Zm.42-1.53c.53,0,.98-.1,1.36-.31s.66-.48,.86-.82c.2-.34,.3-.7,.3-1.09v-1.27c-.07,.07-.2,.13-.39,.19-.19,.06-.41,.11-.66,.15-.25,.04-.49,.08-.72,.11-.23,.03-.43,.06-.59,.08-.37,.05-.71,.13-1.01,.24-.3,.11-.55,.27-.73,.48-.18,.21-.27,.48-.27,.82,0,.47,.17,.83,.52,1.07,.35,.24,.79,.36,1.34,.36Z"/><path d="M233.48,32.57l-3.56,9.82h-2.05l-3.57-9.82h2.05l2.49,7.56h.1l2.48-7.56h2.05Z"/><path d="M237.84,42.6c-.62,0-1.18-.12-1.69-.35-.5-.23-.9-.57-1.19-1.01-.29-.44-.44-.99-.44-1.63,0-.55,.11-1.01,.32-1.37,.21-.36,.5-.64,.86-.85,.36-.21,.77-.37,1.21-.47,.45-.11,.9-.19,1.37-.24,.59-.07,1.06-.12,1.43-.17,.37-.04,.63-.12,.8-.22,.17-.1,.25-.27,.25-.5v-.04c0-.56-.16-.99-.47-1.3-.31-.31-.78-.46-1.4-.46s-1.15,.14-1.52,.42c-.37,.28-.62,.6-.76,.94l-1.79-.41c.21-.6,.53-1.08,.94-1.45,.41-.37,.88-.64,1.42-.8,.54-.17,1.1-.25,1.7-.25,.39,0,.81,.05,1.25,.14,.44,.09,.86,.26,1.24,.5,.39,.24,.7,.59,.95,1.04,.25,.45,.37,1.03,.37,1.75v6.52h-1.87v-1.34h-.08c-.12,.25-.31,.49-.55,.73-.25,.24-.57,.44-.95,.59-.39,.16-.85,.24-1.39,.24Zm.42-1.53c.53,0,.98-.1,1.36-.31s.66-.48,.86-.82c.2-.34,.3-.7,.3-1.09v-1.27c-.07,.07-.2,.13-.39,.19-.19,.06-.41,.11-.66,.15-.25,.04-.49,.08-.72,.11-.23,.03-.43,.06-.59,.08-.37,.05-.71,.13-1.01,.24-.3,.11-.55,.27-.73,.48-.18,.21-.27,.48-.27,.82,0,.47,.17,.83,.52,1.07,.35,.24,.79,.36,1.34,.36Z"/><path d="M248.91,42.58c-.79,0-1.5-.2-2.12-.61-.62-.41-1.11-.99-1.46-1.75-.35-.76-.53-1.67-.53-2.73s.18-1.97,.54-2.72c.36-.75,.84-1.33,1.47-1.73,.62-.4,1.33-.6,2.12-.6,.61,0,1.1,.1,1.47,.3s.66,.44,.87,.71c.21,.27,.37,.5,.48,.71h.12v-4.86h1.91v13.09h-1.87v-1.53h-.16c-.11,.21-.28,.45-.49,.72-.21,.27-.51,.5-.88,.7-.38,.2-.86,.3-1.46,.3Zm.42-1.63c.55,0,1.02-.15,1.4-.44,.38-.29,.67-.7,.87-1.22,.2-.52,.3-1.12,.3-1.82s-.1-1.28-.29-1.79c-.2-.51-.48-.91-.86-1.2-.38-.29-.85-.43-1.41-.43s-1.05,.15-1.44,.45c-.38,.3-.67,.71-.87,1.22-.2,.52-.29,1.1-.29,1.75s.1,1.25,.29,1.77c.2,.52,.49,.94,.87,1.24,.38,.3,.86,.46,1.43,.46Z"/><path d="M258.41,36.56v5.83h-1.91v-9.82h1.83v1.6h.12c.22-.52,.58-.94,1.06-1.25,.48-.31,1.1-.47,1.83-.47,.67,0,1.26,.14,1.76,.42s.89,.69,1.17,1.24,.42,1.23,.42,2.04v6.25h-1.91v-6.02c0-.71-.19-1.27-.56-1.67-.37-.4-.88-.6-1.53-.6-.44,0-.84,.1-1.18,.29-.34,.19-.61,.47-.81,.84-.2,.37-.3,.81-.3,1.33Z"/><path d="M267.25,42.39v-9.82h1.91v9.82h-1.91Zm.18-11.13l1.5-2.95h2.01l-1.98,2.95h-1.53Z"/><path d="M273.64,36.56v5.83h-1.91v-13.09h1.88v4.87h.12c.23-.53,.58-.95,1.05-1.26,.47-.31,1.09-.47,1.85-.47,.67,0,1.26,.14,1.77,.42,.51,.28,.9,.69,1.18,1.24s.42,1.23,.42,2.05v6.25h-1.91v-6.02c0-.72-.19-1.28-.56-1.68-.37-.4-.88-.6-1.55-.6-.45,0-.86,.1-1.21,.29-.36,.19-.63,.47-.84,.84-.2,.37-.3,.81-.3,1.33Z"/><path d="M286.7,42.58c-.92,0-1.72-.21-2.41-.63s-1.22-1.01-1.6-1.77c-.38-.76-.57-1.65-.57-2.66s.19-1.91,.57-2.67,.91-1.36,1.6-1.78,1.49-.63,2.41-.63,1.72,.21,2.41,.63,1.22,1.01,1.6,1.78,.57,1.65,.57,2.67-.19,1.9-.57,2.66c-.38,.76-.91,1.35-1.6,1.77s-1.49,.63-2.41,.63Zm0-1.6c.6,0,1.09-.16,1.48-.47,.39-.31,.68-.73,.87-1.26s.29-1.1,.29-1.73-.1-1.2-.29-1.73-.48-.95-.87-1.27c-.39-.32-.89-.48-1.48-.48s-1.1,.16-1.49,.48c-.39,.32-.69,.74-.88,1.27s-.29,1.1-.29,1.73,.1,1.21,.29,1.73,.48,.94,.88,1.26c.39,.32,.89,.47,1.49,.47Z"/><path d="M306.57,32.57l-3.56,9.82h-2.04l-3.57-9.82h2.05l2.49,7.56h.1l2.48-7.56h2.05Z"/><path d="M309.57,46.07c-.29,0-.54-.02-.78-.07s-.41-.09-.53-.14l.46-1.57c.35,.09,.66,.13,.93,.12s.51-.12,.72-.31c.21-.19,.4-.5,.56-.94l.24-.65-3.59-9.95h2.04l2.49,7.62h.1l2.49-7.62h2.05l-4.05,11.13c-.19,.51-.43,.94-.71,1.3-.29,.36-.63,.62-1.04,.8-.4,.18-.87,.27-1.39,.27Zm1.81-14.81l1.5-2.95h2.01l-1.98,2.95h-1.53Z"/><path d="M326.96,32.57l-3.56,9.82h-2.04l-3.57-9.82h2.05l2.49,7.56h.1l2.48-7.56h2.05Z"/><path d="M332.55,42.58c-.92,0-1.72-.21-2.41-.63-.69-.42-1.22-1.01-1.6-1.77-.38-.76-.57-1.65-.57-2.66s.19-1.91,.57-2.67c.38-.76,.91-1.36,1.6-1.78,.69-.42,1.49-.63,2.41-.63s1.72,.21,2.41,.63c.69,.42,1.22,1.01,1.6,1.78,.38,.76,.57,1.65,.57,2.67s-.19,1.9-.57,2.66c-.38,.76-.91,1.35-1.6,1.77-.69,.42-1.49,.63-2.41,.63Zm0-1.6c.6,0,1.09-.16,1.48-.47,.39-.31,.68-.73,.87-1.26s.28-1.1,.28-1.73-.09-1.2-.28-1.73-.48-.95-.87-1.27c-.39-.32-.89-.48-1.48-.48s-1.1,.16-1.49,.48c-.39,.32-.69,.74-.88,1.27s-.28,1.1-.28,1.73,.09,1.21,.28,1.73,.48,.94,.88,1.26c.39,.32,.89,.47,1.49,.47Z"/><path d="M339.25,32.57h1.91v10.46c0,.66-.12,1.21-.36,1.66-.24,.45-.59,.79-1.05,1.03-.46,.23-1.03,.35-1.71,.35h-.2c-.06,0-.12,0-.19,0v-1.64h.31c.45,0,.78-.12,.98-.36,.2-.24,.3-.59,.3-1.04v-10.44Zm.95-1.51c-.33,0-.62-.11-.85-.34s-.36-.49-.36-.8,.12-.58,.36-.81c.24-.22,.52-.34,.85-.34s.62,.11,.85,.34c.24,.22,.35,.49,.35,.81s-.12,.58-.35,.8-.52,.34-.85,.34Z"/><path d="M347.96,42.58c-.97,0-1.8-.21-2.5-.62-.7-.42-1.23-1-1.61-1.76-.38-.76-.56-1.64-.56-2.66s.19-1.89,.56-2.66c.38-.77,.91-1.37,1.59-1.8s1.47-.65,2.39-.65c.55,0,1.09,.09,1.61,.27,.52,.18,.99,.47,1.4,.86,.41,.39,.74,.9,.98,1.52,.24,.62,.36,1.38,.36,2.27v.68h-7.8v-1.43h5.93c0-.5-.1-.95-.31-1.34-.21-.39-.49-.7-.86-.92-.37-.23-.8-.34-1.29-.34-.54,0-1,.13-1.4,.39-.4,.26-.71,.6-.92,1.02-.21,.42-.32,.87-.32,1.36v1.12c0,.66,.12,1.21,.35,1.67,.23,.46,.56,.81,.97,1.05,.42,.24,.91,.36,1.46,.36,.36,0,.69-.05,.99-.16s.56-.26,.77-.47c.22-.21,.38-.47,.5-.77l1.81,.33c-.15,.53-.4,1-.78,1.4-.37,.4-.84,.71-1.4,.93-.56,.22-1.2,.33-1.91,.33Z"/><path d="M119.01,64.18c-.97,0-1.8-.21-2.5-.62-.7-.42-1.23-1-1.61-1.76s-.57-1.64-.57-2.66,.19-1.89,.57-2.66c.38-.77,.9-1.37,1.59-1.8,.68-.43,1.47-.65,2.39-.65,.55,0,1.09,.09,1.61,.27,.52,.18,.99,.47,1.4,.86,.41,.39,.74,.9,.98,1.52,.24,.62,.36,1.38,.36,2.27v.68h-7.8v-1.43h5.93c0-.5-.1-.95-.31-1.34-.2-.39-.49-.7-.86-.92s-.8-.34-1.29-.34c-.54,0-1,.13-1.4,.39-.4,.26-.71,.6-.92,1.02s-.32,.88-.32,1.37v1.12c0,.66,.12,1.21,.35,1.67s.56,.81,.97,1.05c.42,.24,.91,.36,1.46,.36,.36,0,.69-.05,.99-.16,.3-.1,.55-.26,.77-.47,.22-.21,.38-.47,.5-.77l1.81,.33c-.14,.53-.4,1-.78,1.4-.37,.4-.84,.71-1.4,.93s-1.2,.33-1.91,.33Z"/><path d="M125.35,63.99v-9.82h1.83v1.6h.12c.2-.54,.54-.96,1-1.27,.46-.3,1.02-.46,1.67-.46s1.21,.15,1.65,.46c.44,.31,.77,.73,.99,1.27h.1c.23-.52,.61-.94,1.12-1.26,.51-.31,1.12-.47,1.83-.47,.89,0,1.62,.28,2.18,.84s.85,1.4,.85,2.52v6.58h-1.91v-6.4c0-.67-.18-1.15-.54-1.45-.36-.3-.79-.45-1.3-.45-.62,0-1.11,.19-1.45,.57-.35,.38-.52,.87-.52,1.47v6.26h-1.9v-6.53c0-.53-.17-.96-.5-1.28-.33-.32-.77-.49-1.3-.49-.36,0-.7,.09-1,.29-.3,.19-.55,.45-.73,.79s-.28,.73-.28,1.17v6.05h-1.91Z"/><path d="M142.22,52.65c-.33,0-.62-.11-.85-.33-.24-.22-.36-.49-.36-.8s.12-.58,.36-.81,.52-.34,.85-.34,.62,.11,.85,.34,.35,.49,.35,.81-.12,.58-.35,.8c-.24,.22-.52,.33-.85,.33Zm-.96,11.33v-9.82h1.91v9.82h-1.91Z"/><path d="M153.09,56.57l-1.73,.31c-.07-.22-.19-.43-.34-.63-.15-.2-.37-.36-.63-.49s-.59-.19-.99-.19c-.54,0-.99,.12-1.36,.36-.36,.24-.54,.55-.54,.93,0,.33,.12,.59,.36,.79,.24,.2,.63,.36,1.18,.49l1.56,.36c.9,.21,1.58,.53,2.02,.97,.44,.43,.67,1,.67,1.69,0,.59-.17,1.11-.51,1.57-.34,.46-.81,.82-1.41,1.08s-1.3,.39-2.09,.39c-1.1,0-2-.24-2.69-.71-.7-.47-1.12-1.14-1.28-2.01l1.85-.28c.12,.48,.35,.84,.71,1.09s.82,.37,1.4,.37c.63,0,1.13-.13,1.5-.39,.38-.26,.56-.58,.56-.96,0-.31-.11-.56-.34-.77s-.58-.37-1.04-.47l-1.66-.36c-.92-.21-1.59-.54-2.03-1-.44-.46-.66-1.03-.66-1.73,0-.58,.16-1.09,.49-1.52s.77-.77,1.34-1.02c.57-.25,1.23-.37,1.96-.37,1.06,0,1.9,.23,2.51,.69s1.01,1.07,1.21,1.84Z"/><path d="M155.38,63.99v-9.82h1.91v9.82h-1.91Zm.18-11.13l1.5-2.95h2.01l-1.98,2.95h-1.53Z"/><path d="M171.99,56.57l-1.73,.31c-.07-.22-.19-.43-.34-.63-.15-.2-.37-.36-.63-.49s-.59-.19-.99-.19c-.54,0-.99,.12-1.36,.36-.36,.24-.54,.55-.54,.93,0,.33,.12,.59,.36,.79,.24,.2,.63,.36,1.18,.49l1.56,.36c.9,.21,1.58,.53,2.02,.97,.44,.43,.67,1,.67,1.69,0,.59-.17,1.11-.51,1.57-.34,.46-.81,.82-1.41,1.08s-1.3,.39-2.09,.39c-1.1,0-2-.24-2.69-.71-.7-.47-1.12-1.14-1.28-2.01l1.85-.28c.12,.48,.35,.84,.71,1.09s.82,.37,1.4,.37c.63,0,1.13-.13,1.5-.39,.38-.26,.56-.58,.56-.96,0-.31-.11-.56-.34-.77s-.58-.37-1.04-.47l-1.66-.36c-.92-.21-1.59-.54-2.03-1-.44-.46-.66-1.03-.66-1.73,0-.58,.16-1.09,.49-1.52s.77-.77,1.34-1.02c.57-.25,1.23-.37,1.96-.37,1.06,0,1.9,.23,2.51,.69s1.01,1.07,1.21,1.84Z"/><path d="M174.28,63.99v-13.09h1.91v13.09h-1.91Zm1.76-3.33v-2.33s.32,0,.32,0l3.91-4.16h2.29l-4.46,4.73h-.3l-1.76,1.76Zm4.44,3.33l-3.52-4.67,1.32-1.34,4.54,6h-2.35Z"/><path d="M186.2,50.9v13.09h-1.91v-13.09h1.91Z"/><path d="M193.01,64.18c-.97,0-1.8-.21-2.5-.62s-1.23-1-1.61-1.76-.56-1.64-.56-2.66,.19-1.89,.56-2.66c.38-.77,.91-1.37,1.59-1.8,.68-.43,1.47-.65,2.39-.65,.55,0,1.09,.09,1.61,.27s.99,.47,1.4,.86c.41,.39,.74,.9,.98,1.52,.24,.62,.36,1.38,.36,2.27v.68h-7.8v-1.43h5.93c0-.5-.1-.95-.31-1.34s-.49-.7-.86-.92c-.37-.23-.8-.34-1.29-.34-.54,0-1,.13-1.4,.39-.4,.26-.71,.6-.92,1.02s-.32,.88-.32,1.37v1.12c0,.66,.12,1.21,.35,1.67s.56,.81,.97,1.05c.42,.24,.91,.36,1.46,.36,.36,0,.69-.05,.99-.16s.56-.26,.77-.47,.38-.47,.5-.77l1.81,.33c-.15,.53-.4,1-.78,1.4s-.84,.71-1.4,.93-1.2,.33-1.91,.33Z"/><path d="M201.26,58.16v5.83h-1.91v-9.82h1.83v1.6h.12c.23-.52,.58-.94,1.06-1.25s1.09-.47,1.83-.47c.67,0,1.25,.14,1.76,.42,.5,.28,.89,.69,1.17,1.24,.28,.55,.42,1.23,.42,2.04v6.25h-1.91v-6.01c0-.71-.19-1.27-.56-1.67-.37-.4-.88-.6-1.53-.6-.44,0-.84,.1-1.18,.29-.34,.19-.61,.47-.81,.84-.2,.37-.3,.81-.3,1.33Z"/><path d="M210.1,63.99v-9.82h1.91v9.82h-1.91Zm.18-11.13l1.5-2.95h2.01l-1.98,2.95h-1.53Z"/><path d="M214.58,63.99v-13.09h1.91v13.09h-1.91Zm1.76-3.33v-2.33s.32,0,.32,0l3.91-4.16h2.29l-4.46,4.73h-.3l-1.76,1.76Zm4.44,3.33l-3.52-4.67,1.32-1.34,4.54,6h-2.35Z"/><path d="M228.32,64.18c-.92,0-1.72-.21-2.41-.63-.69-.42-1.22-1.01-1.6-1.77-.38-.76-.57-1.64-.57-2.66s.19-1.91,.57-2.67c.38-.76,.91-1.35,1.6-1.78,.69-.42,1.49-.63,2.41-.63s1.72,.21,2.41,.63c.69,.42,1.22,1.01,1.6,1.78,.38,.76,.57,1.65,.57,2.67s-.19,1.9-.57,2.66c-.38,.76-.91,1.35-1.6,1.77-.69,.42-1.49,.63-2.41,.63Zm0-1.6c.6,0,1.09-.16,1.48-.47s.68-.74,.87-1.26c.19-.52,.28-1.1,.28-1.73s-.09-1.2-.28-1.73-.48-.95-.87-1.27-.89-.48-1.48-.48-1.1,.16-1.49,.48c-.39,.32-.69,.74-.88,1.27s-.28,1.1-.28,1.73,.09,1.21,.28,1.73c.19,.52,.48,.94,.88,1.26,.39,.32,.89,.47,1.49,.47Z"/><path d="M243.08,54.17l-3.56,9.82h-2.05l-3.57-9.82h2.05l2.49,7.56h.1l2.48-7.56h2.05Z"/><path d="M246.09,67.67c-.29,0-.55-.02-.78-.07s-.41-.09-.52-.14l.46-1.57c.35,.09,.66,.13,.93,.12,.27-.01,.52-.12,.73-.31s.4-.5,.56-.94l.24-.65-3.59-9.95h2.04l2.49,7.62h.1l2.49-7.62h2.05l-4.04,11.13c-.19,.51-.43,.95-.72,1.3-.29,.36-.63,.62-1.04,.8-.4,.18-.87,.27-1.39,.27Zm1.81-14.81l1.5-2.95h2.01l-1.98,2.95h-1.53Z"/><path d="M258.86,64.18c-.95,0-1.77-.22-2.45-.65s-1.21-1.03-1.58-1.79c-.37-.76-.55-1.64-.55-2.62s.19-1.88,.56-2.64c.38-.77,.9-1.36,1.58-1.79,.68-.43,1.49-.65,2.41-.65,.75,0,1.41,.14,1.99,.41,.58,.27,1.06,.66,1.42,1.15,.36,.49,.57,1.07,.64,1.73h-1.86c-.1-.46-.34-.86-.7-1.19-.36-.33-.85-.5-1.46-.5-.53,0-1,.14-1.4,.42s-.71,.67-.93,1.19c-.22,.51-.33,1.12-.33,1.82s.11,1.33,.33,1.85c.22,.52,.53,.92,.92,1.21,.4,.29,.87,.43,1.41,.43,.36,0,.69-.07,.99-.2,.3-.13,.54-.33,.75-.58,.2-.25,.34-.55,.43-.91h1.86c-.07,.63-.28,1.2-.62,1.7-.35,.5-.81,.89-1.38,1.18-.58,.29-1.25,.43-2.03,.43Z"/><path d="M266.86,58.16v5.83h-1.91v-13.09h1.88v4.87h.12c.23-.53,.58-.95,1.05-1.26,.47-.31,1.09-.47,1.85-.47,.67,0,1.26,.14,1.77,.42,.51,.28,.9,.69,1.18,1.24,.28,.55,.42,1.23,.42,2.05v6.25h-1.91v-6.01c0-.72-.19-1.28-.56-1.68-.37-.4-.88-.6-1.55-.6-.45,0-.86,.1-1.21,.29-.36,.19-.63,.47-.84,.84-.2,.37-.3,.81-.3,1.33Z"/><path d="M280.55,67.67v-13.5h1.87v1.59h.16c.11-.2,.27-.44,.48-.71s.5-.5,.87-.71c.37-.2,.86-.3,1.47-.3,.79,0,1.5,.2,2.12,.6,.62,.4,1.11,.98,1.47,1.73,.36,.75,.54,1.66,.54,2.72s-.18,1.97-.53,2.73c-.35,.76-.84,1.34-1.46,1.75-.62,.41-1.32,.61-2.12,.61-.6,0-1.08-.1-1.46-.3s-.67-.43-.88-.7c-.21-.27-.38-.51-.49-.72h-.12v5.21h-1.91Zm1.87-8.59c0,.69,.1,1.3,.3,1.82,.2,.52,.49,.93,.87,1.22s.84,.44,1.39,.44,1.05-.15,1.43-.46c.38-.3,.68-.72,.87-1.24,.2-.52,.3-1.11,.3-1.77s-.1-1.23-.29-1.75c-.19-.52-.48-.92-.87-1.22-.38-.3-.87-.45-1.44-.45s-1.02,.14-1.4,.43c-.38,.29-.67,.68-.87,1.2-.2,.51-.29,1.11-.29,1.79Z"/><path d="M293.57,50.9v13.09h-1.91v-13.09h1.91Z"/><path d="M297.35,67.67c-.29,0-.55-.02-.78-.07s-.41-.09-.52-.14l.46-1.57c.35,.09,.66,.13,.93,.12,.27-.01,.52-.12,.73-.31s.4-.5,.56-.94l.24-.65-3.59-9.95h2.04l2.49,7.62h.1l2.49-7.62h2.05l-4.04,11.13c-.19,.51-.43,.95-.72,1.3-.29,.36-.63,.62-1.04,.8-.4,.18-.87,.27-1.39,.27Z"/><path d="M308.25,58.16v5.83h-1.91v-9.82h1.83v1.6h.12c.22-.52,.58-.94,1.06-1.25,.48-.32,1.1-.47,1.83-.47,.67,0,1.26,.14,1.76,.42s.89,.69,1.17,1.24,.42,1.23,.42,2.04v6.25h-1.91v-6.01c0-.71-.19-1.27-.56-1.67-.37-.4-.88-.6-1.53-.6-.44,0-.84,.1-1.18,.29-.34,.19-.61,.47-.81,.84-.2,.37-.3,.81-.3,1.33Z"/><path d="M323.31,59.92v-5.75h1.92v9.82h-1.88v-1.7h-.1c-.22,.52-.59,.96-1.08,1.31-.5,.35-1.11,.52-1.85,.52-.63,0-1.19-.14-1.67-.42-.48-.28-.86-.69-1.14-1.24-.28-.55-.41-1.23-.41-2.04v-6.25h1.91v6.02c0,.67,.19,1.2,.56,1.6s.85,.59,1.44,.59c.36,0,.71-.09,1.07-.27,.36-.18,.65-.45,.89-.81,.24-.36,.35-.82,.35-1.38Zm-2.13-6.83c-.43,0-.81-.09-1.16-.29-.34-.19-.62-.45-.82-.77-.2-.32-.3-.69-.3-1.09s.1-.77,.3-1.1c.2-.33,.48-.6,.82-.8,.35-.2,.73-.3,1.16-.3s.8,.1,1.14,.3c.34,.2,.61,.47,.81,.8,.2,.33,.3,.7,.3,1.1s-.1,.77-.3,1.09c-.2,.32-.47,.58-.81,.77-.34,.19-.72,.29-1.14,.29Zm0-1.02c.33,0,.61-.12,.82-.35,.22-.23,.33-.49,.33-.78s-.11-.57-.33-.8-.49-.35-.82-.35-.61,.12-.83,.35-.32,.5-.32,.8,.11,.55,.32,.78,.49,.34,.83,.34Z"/></g><polygon class="l" points="208.22 205.79 208.22 189.35 202.85 189.35 202.85 182.62 197.49 182.62 197.49 179.19 192.13 179.19 192.13 180.67 186.77 180.67 186.77 181.14 181.41 181.14 181.41 183.39 176.04 183.39 176.04 177.49 170.68 177.49 170.68 173.82 165.32 173.82 165.32 170.53 159.96 170.53 159.96 165.94 154.6 165.94 154.6 169.8 149.23 169.8 149.23 155.72 143.87 155.72 143.87 151.67 138.51 151.67 138.51 150.47 133.15 150.47 133.15 150.53 127.79 150.53 127.79 149.57 122.42 149.57 122.42 150.01 117.06 150.01 117.06 153.65 111.7 153.65 111.7 152.96 106.34 152.96 106.34 155.02 100.97 155.02 100.97 154.75 95.61 154.75 95.61 151.75 90.25 151.75 90.25 150.22 84.89 150.22 84.89 147.31 79.53 147.31 79.53 151.38 74.16 151.38 74.16 153.84 68.8 153.84 68.8 153.1 63.44 153.1 63.44 149.88 58.08 149.88 58.08 143.43 52.72 143.43 52.72 138.96 47.35 138.96 47.35 350.73 52.72 350.73 52.72 350.73 58.08 350.73 63.44 350.73 63.44 350.73 68.8 350.73 74.16 350.73 79.53 350.73 84.89 350.73 84.89 350.73 90.25 350.73 90.25 350.73 95.61 350.73 100.97 350.73 106.34 350.73 111.7 350.73 117.06 350.73 122.42 350.73 122.42 350.73 127.79 350.73 127.79 350.73 133.15 350.73 133.15 350.73 138.51 350.73 138.51 350.73 143.87 350.73 143.87 350.73 149.23 350.73 154.6 350.73 154.6 350.73 159.96 350.73 165.32 350.73 170.68 350.73 170.68 350.73 176.04 350.73 176.04 350.73 181.41 350.73 186.77 350.73 186.77 350.73 192.13 350.73 197.49 350.73 197.49 350.73 202.85 350.73 208.22 350.73 213.58 350.73 213.58 205.79 208.22 205.79"/><line class="f" x1="51.74" y1="351.73" x2="51.74" y2="358.22"/><line class="f" x1="103.42" y1="351.73" x2="103.42" y2="358.22"/><line class="f" x1="157.32" y1="351.73" x2="157.32" y2="358.22"/><line class="f" x1="211.22" y1="351.73" x2="211.22" y2="358.22"/><g><path class="k" d="M38.34,363.17v11.64h-1.41v-10.16h-.07l-2.84,1.89v-1.43l2.91-1.93h1.41Z"/><path class="k" d="M45.39,363.01c.48,0,.95,.09,1.43,.27,.48,.18,.91,.47,1.31,.88,.39,.41,.71,.97,.95,1.68,.24,.71,.36,1.6,.36,2.66s-.1,1.95-.29,2.75c-.2,.8-.48,1.48-.84,2.03-.37,.55-.81,.97-1.33,1.25-.52,.28-1.11,.43-1.76,.43s-1.23-.13-1.74-.39c-.51-.26-.93-.62-1.25-1.08-.32-.46-.53-1-.62-1.62h1.39c.12,.53,.37,.97,.75,1.32,.37,.35,.87,.52,1.48,.52,.9,0,1.61-.39,2.13-1.18,.52-.78,.78-1.89,.78-3.32h-.09c-.21,.32-.46,.59-.76,.82-.29,.23-.62,.41-.97,.53-.36,.12-.74,.19-1.14,.19-.67,0-1.28-.17-1.83-.5-.55-.33-1-.79-1.33-1.37-.33-.58-.5-1.25-.5-2s.16-1.36,.48-1.96,.77-1.07,1.35-1.42c.58-.35,1.27-.52,2.05-.51Zm0,1.25c-.48,0-.91,.12-1.29,.36-.38,.24-.68,.55-.9,.96-.22,.4-.33,.84-.33,1.33s.11,.93,.32,1.32,.51,.71,.88,.94c.37,.23,.8,.35,1.28,.35,.36,0,.7-.07,1.01-.21,.31-.14,.58-.34,.82-.58,.23-.25,.42-.53,.55-.85,.13-.32,.2-.65,.2-.99,0-.46-.11-.88-.33-1.28-.22-.4-.52-.72-.9-.97-.38-.25-.81-.37-1.3-.37Z"/><path class="k" d="M55.36,363.01c.48,0,.95,.09,1.43,.27,.48,.18,.91,.47,1.31,.88,.39,.41,.71,.97,.95,1.68,.24,.71,.36,1.6,.36,2.66s-.1,1.95-.29,2.75c-.2,.8-.48,1.48-.84,2.03-.37,.55-.81,.97-1.33,1.25-.52,.28-1.11,.43-1.76,.43s-1.23-.13-1.74-.39c-.51-.26-.93-.62-1.25-1.08-.32-.46-.53-1-.62-1.62h1.39c.12,.53,.37,.97,.75,1.32,.37,.35,.87,.52,1.48,.52,.9,0,1.61-.39,2.13-1.18,.52-.78,.78-1.89,.78-3.32h-.09c-.21,.32-.46,.59-.76,.82-.29,.23-.62,.41-.97,.53-.36,.12-.74,.19-1.14,.19-.67,0-1.28-.17-1.83-.5-.55-.33-1-.79-1.33-1.37-.33-.58-.5-1.25-.5-2s.16-1.36,.48-1.96,.77-1.07,1.35-1.42c.58-.35,1.27-.52,2.05-.51Zm0,1.25c-.48,0-.91,.12-1.29,.36-.38,.24-.68,.55-.9,.96-.22,.4-.33,.84-.33,1.33s.11,.93,.32,1.32,.51,.71,.88,.94c.37,.23,.8,.35,1.28,.35,.36,0,.7-.07,1.01-.21,.31-.14,.58-.34,.82-.58,.23-.25,.42-.53,.55-.85,.13-.32,.2-.65,.2-.99,0-.46-.11-.88-.33-1.28-.22-.4-.52-.72-.9-.97-.38-.25-.81-.37-1.3-.37Z"/><path class="k" d="M65.43,374.97c-.86,0-1.58-.23-2.19-.7s-1.06-1.15-1.38-2.04c-.32-.89-.48-1.97-.48-3.24s.16-2.33,.48-3.22c.32-.89,.78-1.57,1.39-2.04,.6-.47,1.33-.71,2.18-.71s1.58,.24,2.18,.71c.6,.47,1.07,1.15,1.39,2.04,.32,.89,.48,1.97,.48,3.22s-.16,2.34-.48,3.24c-.32,.89-.78,1.57-1.38,2.04s-1.33,.7-2.19,.7Zm0-1.25c.85,0,1.51-.41,1.98-1.23s.7-1.98,.7-3.5c0-1.01-.11-1.87-.32-2.57-.21-.71-.52-1.25-.92-1.62-.4-.37-.88-.56-1.44-.56-.84,0-1.5,.41-1.97,1.24-.47,.83-.71,2-.71,3.51,0,1.01,.11,1.86,.32,2.57,.21,.7,.52,1.24,.92,1.61,.4,.37,.88,.55,1.45,.55Z"/></g><g><path class="k" d="M84.79,374.81v-1.02l3.84-4.21c.45-.49,.82-.92,1.11-1.29,.29-.37,.51-.71,.65-1.03,.14-.32,.21-.66,.21-1.02,0-.41-.1-.76-.29-1.06-.2-.3-.46-.53-.8-.69-.34-.16-.72-.24-1.14-.24-.45,0-.84,.09-1.17,.28-.33,.18-.59,.44-.77,.77-.18,.33-.27,.72-.27,1.16h-1.34c0-.68,.16-1.28,.47-1.8,.31-.51,.74-.92,1.29-1.2,.54-.29,1.15-.43,1.83-.43s1.29,.14,1.81,.43c.53,.29,.94,.68,1.24,1.16,.3,.49,.45,1.03,.45,1.63,0,.43-.08,.85-.23,1.25-.15,.41-.42,.86-.79,1.36s-.9,1.1-1.57,1.82l-2.61,2.8v.09h5.41v1.25h-7.34Z"/><path class="k" d="M98.26,374.97c-.86,0-1.58-.23-2.19-.7s-1.06-1.15-1.38-2.04c-.32-.89-.48-1.97-.48-3.24s.16-2.33,.48-3.22c.32-.89,.78-1.57,1.39-2.04,.6-.47,1.33-.71,2.18-.71s1.58,.24,2.18,.71c.6,.47,1.07,1.15,1.39,2.04,.32,.89,.48,1.97,.48,3.22s-.16,2.34-.48,3.24c-.32,.89-.78,1.57-1.38,2.04s-1.33,.7-2.19,.7Zm0-1.25c.85,0,1.51-.41,1.98-1.23s.7-1.98,.7-3.5c0-1.01-.11-1.87-.32-2.57-.21-.71-.52-1.25-.92-1.62-.4-.37-.88-.56-1.44-.56-.84,0-1.5,.41-1.97,1.24-.47,.83-.71,2-.71,3.51,0,1.01,.11,1.86,.32,2.57,.21,.7,.52,1.24,.92,1.61,.4,.37,.88,.55,1.45,.55Z"/><path class="k" d="M108.26,374.97c-.86,0-1.58-.23-2.19-.7s-1.06-1.15-1.38-2.04c-.32-.89-.48-1.97-.48-3.24s.16-2.33,.48-3.22c.32-.89,.78-1.57,1.39-2.04,.6-.47,1.33-.71,2.18-.71s1.58,.24,2.18,.71c.6,.47,1.07,1.15,1.39,2.04,.32,.89,.48,1.97,.48,3.22s-.16,2.34-.48,3.24c-.32,.89-.78,1.57-1.38,2.04s-1.33,.7-2.19,.7Zm0-1.25c.85,0,1.51-.41,1.98-1.23s.7-1.98,.7-3.5c0-1.01-.11-1.87-.32-2.57-.21-.71-.52-1.25-.92-1.62-.4-.37-.88-.56-1.44-.56-.84,0-1.5,.41-1.97,1.24-.47,.83-.71,2-.71,3.51,0,1.01,.11,1.86,.32,2.57,.21,.7,.52,1.24,.92,1.61,.4,.37,.88,.55,1.45,.55Z"/><path class="k" d="M118.26,374.97c-.86,0-1.58-.23-2.19-.7s-1.06-1.15-1.38-2.04c-.32-.89-.48-1.97-.48-3.24s.16-2.33,.48-3.22c.32-.89,.78-1.57,1.39-2.04,.6-.47,1.33-.71,2.18-.71s1.58,.24,2.18,.71c.6,.47,1.07,1.15,1.39,2.04,.32,.89,.48,1.97,.48,3.22s-.16,2.34-.48,3.24c-.32,.89-.78,1.57-1.38,2.04s-1.33,.7-2.19,.7Zm0-1.25c.85,0,1.51-.41,1.98-1.23s.7-1.98,.7-3.5c0-1.01-.11-1.87-.32-2.57-.21-.71-.52-1.25-.92-1.62-.4-.37-.88-.56-1.44-.56-.84,0-1.5,.41-1.97,1.24-.47,.83-.71,2-.71,3.51,0,1.01,.11,1.86,.32,2.57,.21,.7,.52,1.24,.92,1.61,.4,.37,.88,.55,1.45,.55Z"/></g><g><path class="k" d="M139.97,374.81v-1.02l3.84-4.21c.45-.49,.82-.92,1.11-1.29,.29-.37,.51-.71,.65-1.03,.14-.32,.21-.66,.21-1.02,0-.41-.1-.76-.29-1.06-.2-.3-.46-.53-.8-.69-.34-.16-.72-.24-1.14-.24-.45,0-.84,.09-1.17,.28-.33,.18-.59,.44-.77,.77-.18,.33-.27,.72-.27,1.16h-1.34c0-.68,.16-1.28,.47-1.8,.31-.51,.74-.92,1.29-1.2,.54-.29,1.15-.43,1.83-.43s1.29,.14,1.81,.43c.53,.29,.94,.68,1.24,1.16,.3,.49,.45,1.03,.45,1.63,0,.43-.08,.85-.23,1.25-.15,.41-.42,.86-.79,1.36s-.9,1.1-1.57,1.82l-2.61,2.8v.09h5.41v1.25h-7.34Z"/><path class="k" d="M153.45,374.97c-.86,0-1.58-.23-2.19-.7s-1.06-1.15-1.38-2.04c-.32-.89-.48-1.97-.48-3.24s.16-2.33,.48-3.22c.32-.89,.78-1.57,1.39-2.04,.6-.47,1.33-.71,2.18-.71s1.58,.24,2.18,.71c.6,.47,1.07,1.15,1.39,2.04,.32,.89,.48,1.97,.48,3.22s-.16,2.34-.48,3.24c-.32,.89-.78,1.57-1.38,2.04s-1.33,.7-2.19,.7Zm0-1.25c.85,0,1.51-.41,1.98-1.23s.7-1.98,.7-3.5c0-1.01-.11-1.87-.32-2.57-.21-.71-.52-1.25-.92-1.62-.4-.37-.88-.56-1.44-.56-.84,0-1.5,.41-1.97,1.24-.47,.83-.71,2-.71,3.51,0,1.01,.11,1.86,.32,2.57,.21,.7,.52,1.24,.92,1.61,.4,.37,.88,.55,1.45,.55Z"/><path class="k" d="M163.74,363.17v11.64h-1.41v-10.16h-.07l-2.84,1.89v-1.43l2.91-1.93h1.41Z"/><path class="k" d="M170.88,374.97c-.86,0-1.58-.23-2.19-.7s-1.06-1.15-1.38-2.04c-.32-.89-.48-1.97-.48-3.24s.16-2.33,.48-3.22c.32-.89,.78-1.57,1.39-2.04,.6-.47,1.33-.71,2.18-.71s1.58,.24,2.18,.71c.6,.47,1.07,1.15,1.39,2.04,.32,.89,.48,1.97,.48,3.22s-.16,2.34-.48,3.24c-.32,.89-.78,1.57-1.38,2.04s-1.33,.7-2.19,.7Zm0-1.25c.85,0,1.51-.41,1.98-1.23s.7-1.98,.7-3.5c0-1.01-.11-1.87-.32-2.57-.21-.71-.52-1.25-.92-1.62-.4-.37-.88-.56-1.44-.56-.84,0-1.5,.41-1.97,1.24-.47,.83-.71,2-.71,3.51,0,1.01,.11,1.86,.32,2.57,.21,.7,.52,1.24,.92,1.61,.4,.37,.88,.55,1.45,.55Z"/></g><line class="f" x1="264.57" y1="351.73" x2="264.57" y2="358.22"/><line class="f" x1="371.83" y1="351.73" x2="371.83" y2="358.22"/><g><path class="k" d="M245.85,374.81v-1.02l3.84-4.21c.45-.49,.82-.92,1.11-1.29,.29-.37,.51-.71,.65-1.03,.14-.32,.21-.66,.21-1.02,0-.41-.1-.76-.29-1.06-.2-.3-.46-.53-.8-.69-.34-.16-.72-.24-1.14-.24-.45,0-.84,.09-1.17,.28-.33,.18-.59,.44-.77,.77-.18,.33-.27,.72-.27,1.16h-1.34c0-.68,.16-1.28,.47-1.8,.31-.51,.74-.92,1.29-1.2,.54-.29,1.15-.43,1.83-.43s1.29,.14,1.81,.43c.53,.29,.94,.68,1.24,1.16,.3,.49,.45,1.03,.45,1.63,0,.43-.08,.85-.23,1.25-.15,.41-.42,.86-.79,1.36s-.9,1.1-1.57,1.82l-2.61,2.8v.09h5.41v1.25h-7.34Z"/><path class="k" d="M259.32,374.97c-.86,0-1.58-.23-2.19-.7s-1.06-1.15-1.38-2.04c-.32-.89-.48-1.97-.48-3.24s.16-2.33,.48-3.22c.32-.89,.78-1.57,1.39-2.04,.6-.47,1.33-.71,2.18-.71s1.58,.24,2.18,.71c.6,.47,1.07,1.15,1.39,2.04,.32,.89,.48,1.97,.48,3.22s-.16,2.34-.48,3.24c-.32,.89-.78,1.57-1.38,2.04s-1.33,.7-2.19,.7Zm0-1.25c.85,0,1.51-.41,1.98-1.23s.7-1.98,.7-3.5c0-1.01-.11-1.87-.32-2.57-.21-.71-.52-1.25-.92-1.62-.4-.37-.88-.56-1.44-.56-.84,0-1.5,.41-1.97,1.24-.47,.83-.71,2-.71,3.51,0,1.01,.11,1.86,.32,2.57,.21,.7,.52,1.24,.92,1.61,.4,.37,.88,.55,1.45,.55Z"/><path class="k" d="M269.46,374.97c-.75,0-1.42-.13-2-.39-.59-.26-1.05-.62-1.39-1.08-.34-.46-.53-1-.56-1.61h1.43c.03,.38,.16,.7,.39,.97s.52,.48,.89,.63c.37,.15,.78,.22,1.22,.22,.5,0,.94-.09,1.33-.26,.39-.17,.69-.42,.91-.73s.33-.67,.33-1.08-.11-.81-.32-1.13c-.21-.33-.52-.58-.93-.77s-.91-.28-1.5-.28h-.93v-1.25h.93c.46,0,.87-.08,1.22-.25s.62-.4,.82-.71c.2-.3,.3-.66,.3-1.07s-.09-.74-.26-1.03c-.17-.29-.42-.52-.74-.68-.32-.16-.69-.24-1.12-.24-.4,0-.78,.07-1.13,.22-.35,.15-.64,.36-.87,.63s-.34,.61-.36,.99h-1.36c.02-.61,.21-1.14,.55-1.6,.34-.46,.8-.82,1.35-1.08s1.17-.39,1.84-.39c.72,0,1.34,.15,1.85,.44,.51,.29,.91,.67,1.19,1.14s.42,.98,.42,1.53c0,.66-.17,1.21-.51,1.68s-.81,.78-1.39,.96v.09c.73,.12,1.31,.43,1.72,.93,.41,.5,.62,1.12,.62,1.86,0,.63-.17,1.2-.51,1.7s-.81,.9-1.4,1.18c-.59,.29-1.26,.43-2.02,.43Z"/><path class="k" d="M279.51,374.97c-.86,0-1.58-.23-2.19-.7s-1.06-1.15-1.38-2.04c-.32-.89-.48-1.97-.48-3.24s.16-2.33,.48-3.22c.32-.89,.78-1.57,1.39-2.04,.6-.47,1.33-.71,2.18-.71s1.58,.24,2.18,.71c.6,.47,1.07,1.15,1.39,2.04,.32,.89,.48,1.97,.48,3.22s-.16,2.34-.48,3.24c-.32,.89-.78,1.57-1.38,2.04s-1.33,.7-2.19,.7Zm0-1.25c.85,0,1.51-.41,1.98-1.23s.7-1.98,.7-3.5c0-1.01-.11-1.87-.32-2.57-.21-.71-.52-1.25-.92-1.62-.4-.37-.88-.56-1.44-.56-.84,0-1.5,.41-1.97,1.24-.47,.83-.71,2-.71,3.51,0,1.01,.11,1.86,.32,2.57,.21,.7,.52,1.24,.92,1.61,.4,.37,.88,.55,1.45,.55Z"/></g><g><path class="k" d="M353.33,374.81v-1.02l3.84-4.21c.45-.49,.82-.92,1.11-1.29,.29-.37,.51-.71,.65-1.03,.14-.32,.21-.66,.21-1.02,0-.41-.1-.76-.29-1.06-.2-.3-.46-.53-.8-.69-.34-.16-.72-.24-1.14-.24-.45,0-.84,.09-1.17,.28-.33,.18-.59,.44-.77,.77-.18,.33-.27,.72-.27,1.16h-1.34c0-.68,.16-1.28,.47-1.8,.31-.51,.74-.92,1.29-1.2,.54-.29,1.15-.43,1.83-.43s1.29,.14,1.81,.43c.53,.29,.94,.68,1.24,1.16,.3,.49,.45,1.03,.45,1.63,0,.43-.08,.85-.23,1.25-.15,.41-.42,.86-.79,1.36s-.9,1.1-1.57,1.82l-2.61,2.8v.09h5.41v1.25h-7.34Z"/><path class="k" d="M366.8,374.97c-.86,0-1.58-.23-2.19-.7s-1.06-1.15-1.38-2.04c-.32-.89-.48-1.97-.48-3.24s.16-2.33,.48-3.22c.32-.89,.78-1.57,1.39-2.04,.6-.47,1.33-.71,2.18-.71s1.58,.24,2.18,.71c.6,.47,1.07,1.15,1.39,2.04,.32,.89,.48,1.97,.48,3.22s-.16,2.34-.48,3.24c-.32,.89-.78,1.57-1.38,2.04s-1.33,.7-2.19,.7Zm0-1.25c.85,0,1.51-.41,1.98-1.23s.7-1.98,.7-3.5c0-1.01-.11-1.87-.32-2.57-.21-.71-.52-1.25-.92-1.62-.4-.37-.88-.56-1.44-.56-.84,0-1.5,.41-1.97,1.24-.47,.83-.71,2-.71,3.51,0,1.01,.11,1.86,.32,2.57,.21,.7,.52,1.24,.92,1.61,.4,.37,.88,.55,1.45,.55Z"/><path class="k" d="M376.64,374.97c-.67,0-1.27-.13-1.8-.4-.53-.27-.96-.63-1.28-1.09-.32-.46-.5-.99-.53-1.58h1.36c.05,.53,.29,.96,.72,1.3s.94,.51,1.53,.51c.48,0,.9-.11,1.28-.33s.67-.53,.88-.92c.21-.39,.32-.84,.32-1.33s-.11-.96-.33-1.36c-.22-.4-.53-.71-.91-.95-.39-.23-.83-.35-1.32-.35-.36,0-.72,.05-1.1,.16-.38,.11-.68,.25-.93,.43l-1.32-.16,.7-5.73h6.05v1.25h-4.86l-.41,3.43h.07c.24-.19,.54-.35,.9-.47,.36-.12,.73-.19,1.12-.19,.71,0,1.35,.17,1.91,.51,.56,.34,1,.8,1.32,1.39,.32,.59,.48,1.26,.48,2.01s-.17,1.4-.5,1.99-.79,1.04-1.37,1.38c-.58,.33-1.24,.5-1.98,.5Z"/><path class="k" d="M386.53,374.97c-.86,0-1.58-.23-2.19-.7s-1.06-1.15-1.38-2.04c-.32-.89-.48-1.97-.48-3.24s.16-2.33,.48-3.22c.32-.89,.78-1.57,1.39-2.04,.6-.47,1.33-.71,2.18-.71s1.58,.24,2.18,.71c.6,.47,1.07,1.15,1.39,2.04,.32,.89,.48,1.97,.48,3.22s-.16,2.34-.48,3.24c-.32,.89-.78,1.57-1.38,2.04s-1.33,.7-2.19,.7Zm0-1.25c.85,0,1.51-.41,1.98-1.23s.7-1.98,.7-3.5c0-1.01-.11-1.87-.32-2.57-.21-.71-.52-1.25-.92-1.62-.4-.37-.88-.56-1.44-.56-.84,0-1.5,.41-1.97,1.24-.47,.83-.71,2-.71,3.51,0,1.01,.11,1.86,.32,2.57,.21,.7,.52,1.24,.92,1.61,.4,.37,.88,.55,1.45,.55Z"/></g><g><path class="k" d="M192.74,374.81v-1.02l3.84-4.21c.45-.49,.82-.92,1.11-1.29,.29-.37,.51-.71,.65-1.03,.14-.32,.21-.66,.21-1.02,0-.41-.1-.76-.29-1.06-.2-.3-.46-.53-.8-.69-.34-.16-.72-.24-1.14-.24-.45,0-.84,.09-1.17,.28-.33,.18-.59,.44-.77,.77-.18,.33-.27,.72-.27,1.16h-1.34c0-.68,.16-1.28,.47-1.8,.31-.51,.74-.92,1.29-1.2,.54-.29,1.15-.43,1.83-.43s1.29,.14,1.81,.43c.53,.29,.94,.68,1.24,1.16,.3,.49,.45,1.03,.45,1.63,0,.43-.08,.85-.23,1.25-.15,.41-.42,.86-.79,1.36s-.9,1.1-1.57,1.82l-2.61,2.8v.09h5.41v1.25h-7.34Z"/><path class="k" d="M206.22,374.97c-.86,0-1.58-.23-2.19-.7s-1.06-1.15-1.38-2.04c-.32-.89-.48-1.97-.48-3.24s.16-2.33,.48-3.22c.32-.89,.78-1.57,1.39-2.04,.6-.47,1.33-.71,2.18-.71s1.58,.24,2.18,.71c.6,.47,1.07,1.15,1.39,2.04,.32,.89,.48,1.97,.48,3.22s-.16,2.34-.48,3.24c-.32,.89-.78,1.57-1.38,2.04s-1.33,.7-2.19,.7Zm0-1.25c.85,0,1.51-.41,1.98-1.23s.7-1.98,.7-3.5c0-1.01-.11-1.87-.32-2.57-.21-.71-.52-1.25-.92-1.62-.4-.37-.88-.56-1.44-.56-.84,0-1.5,.41-1.97,1.24-.47,.83-.71,2-.71,3.51,0,1.01,.11,1.86,.32,2.57,.21,.7,.52,1.24,.92,1.61,.4,.37,.88,.55,1.45,.55Z"/><path class="k" d="M212.42,374.81v-1.02l3.84-4.21c.45-.49,.82-.92,1.11-1.29,.29-.37,.51-.71,.65-1.03,.14-.32,.21-.66,.21-1.02,0-.41-.1-.76-.29-1.06-.2-.3-.46-.53-.8-.69-.34-.16-.72-.24-1.14-.24-.45,0-.84,.09-1.17,.28-.33,.18-.59,.44-.77,.77-.18,.33-.27,.72-.27,1.16h-1.34c0-.68,.16-1.28,.47-1.8,.31-.51,.74-.92,1.29-1.2,.54-.29,1.15-.43,1.83-.43s1.29,.14,1.81,.43c.53,.29,.94,.68,1.24,1.16,.3,.49,.45,1.03,.45,1.63,0,.43-.08,.85-.23,1.25-.15,.41-.42,.86-.79,1.36s-.9,1.1-1.57,1.82l-2.61,2.8v.09h5.41v1.25h-7.34Z"/><path class="k" d="M225.9,374.97c-.86,0-1.58-.23-2.19-.7s-1.06-1.15-1.38-2.04c-.32-.89-.48-1.97-.48-3.24s.16-2.33,.48-3.22c.32-.89,.78-1.57,1.39-2.04,.6-.47,1.33-.71,2.18-.71s1.58,.24,2.18,.71c.6,.47,1.07,1.15,1.39,2.04,.32,.89,.48,1.97,.48,3.22s-.16,2.34-.48,3.24c-.32,.89-.78,1.57-1.38,2.04s-1.33,.7-2.19,.7Zm0-1.25c.85,0,1.51-.41,1.98-1.23s.7-1.98,.7-3.5c0-1.01-.11-1.87-.32-2.57-.21-.71-.52-1.25-.92-1.62-.4-.37-.88-.56-1.44-.56-.84,0-1.5,.41-1.97,1.24-.47,.83-.71,2-.71,3.51,0,1.01,.11,1.86,.32,2.57,.21,.7,.52,1.24,.92,1.61,.4,.37,.88,.55,1.45,.55Z"/></g><path class="k" d="M39.47,353.39c-.86,0-1.58-.23-2.19-.7s-1.06-1.15-1.38-2.04c-.32-.89-.48-1.97-.48-3.24s.16-2.33,.48-3.22c.32-.89,.78-1.57,1.39-2.04,.6-.47,1.33-.71,2.18-.71s1.58,.24,2.18,.71c.6,.47,1.07,1.15,1.39,2.04,.32,.89,.48,1.97,.48,3.22s-.16,2.34-.48,3.24c-.32,.89-.78,1.57-1.38,2.04s-1.33,.7-2.19,.7Zm0-1.25c.85,0,1.51-.41,1.98-1.23s.7-1.98,.7-3.5c0-1.01-.11-1.87-.32-2.57-.21-.71-.52-1.25-.92-1.62-.4-.37-.88-.56-1.44-.56-.84,0-1.5,.41-1.97,1.24-.47,.83-.71,2-.71,3.51,0,1.01,.11,1.86,.32,2.57,.21,.7,.52,1.24,.92,1.61,.4,.37,.88,.55,1.45,.55Z"/><g><path class="k" d="M8.14,300.1v11.64h-1.41v-10.16h-.07l-2.84,1.89v-1.43l2.91-1.93h1.41Z"/><path class="k" d="M18.47,311.89c-.86,0-1.58-.23-2.19-.7s-1.06-1.15-1.38-2.04c-.32-.89-.48-1.97-.48-3.24s.16-2.33,.48-3.22c.32-.89,.78-1.57,1.39-2.04,.6-.47,1.33-.71,2.18-.71s1.58,.24,2.18,.71c.6,.47,1.07,1.15,1.39,2.04,.32,.89,.48,1.97,.48,3.22s-.16,2.34-.48,3.24c-.32,.89-.78,1.57-1.38,2.04s-1.33,.7-2.19,.7Zm0-1.25c.85,0,1.51-.41,1.98-1.23s.7-1.98,.7-3.5c0-1.01-.11-1.87-.32-2.57-.21-.71-.52-1.25-.92-1.62-.4-.37-.88-.56-1.44-.56-.84,0-1.5,.41-1.97,1.24-.47,.83-.71,2-.71,3.51,0,1.01,.11,1.86,.32,2.57,.21,.7,.52,1.24,.92,1.61,.4,.37,.88,.55,1.45,.55Z"/><path class="k" d="M28.47,311.89c-.86,0-1.58-.23-2.19-.7s-1.06-1.15-1.38-2.04c-.32-.89-.48-1.97-.48-3.24s.16-2.33,.48-3.22c.32-.89,.78-1.57,1.39-2.04,.6-.47,1.33-.71,2.18-.71s1.58,.24,2.18,.71c.6,.47,1.07,1.15,1.39,2.04,.32,.89,.48,1.97,.48,3.22s-.16,2.34-.48,3.24c-.32,.89-.78,1.57-1.38,2.04s-1.33,.7-2.19,.7Zm0-1.25c.85,0,1.51-.41,1.98-1.23s.7-1.98,.7-3.5c0-1.01-.11-1.87-.32-2.57-.21-.71-.52-1.25-.92-1.62-.4-.37-.88-.56-1.44-.56-.84,0-1.5,.41-1.97,1.24-.47,.83-.71,2-.71,3.51,0,1.01,.11,1.86,.32,2.57,.21,.7,.52,1.24,.92,1.61,.4,.37,.88,.55,1.45,.55Z"/><path class="k" d="M38.47,311.89c-.86,0-1.58-.23-2.19-.7s-1.06-1.15-1.38-2.04c-.32-.89-.48-1.97-.48-3.24s.16-2.33,.48-3.22c.32-.89,.78-1.57,1.39-2.04,.6-.47,1.33-.71,2.18-.71s1.58,.24,2.18,.71c.6,.47,1.07,1.15,1.39,2.04,.32,.89,.48,1.97,.48,3.22s-.16,2.34-.48,3.24c-.32,.89-.78,1.57-1.38,2.04s-1.33,.7-2.19,.7Zm0-1.25c.85,0,1.51-.41,1.98-1.23s.7-1.98,.7-3.5c0-1.01-.11-1.87-.32-2.57-.21-.71-.52-1.25-.92-1.62-.4-.37-.88-.56-1.44-.56-.84,0-1.5,.41-1.97,1.24-.47,.83-.71,2-.71,3.51,0,1.01,.11,1.86,.32,2.57,.21,.7,.52,1.24,.92,1.61,.4,.37,.88,.55,1.45,.55Z"/></g><g><path class="k" d="M1.79,268.37v-1.02l3.84-4.21c.45-.49,.82-.92,1.11-1.29,.29-.37,.51-.71,.65-1.03,.14-.32,.21-.66,.21-1.02,0-.41-.1-.76-.29-1.06-.2-.3-.46-.53-.8-.69-.34-.16-.72-.24-1.14-.24-.45,0-.84,.09-1.17,.28-.33,.18-.59,.44-.77,.77-.18,.33-.27,.72-.27,1.16H1.84c0-.68,.16-1.28,.47-1.8,.31-.51,.74-.92,1.29-1.2,.54-.29,1.15-.43,1.83-.43s1.29,.14,1.81,.43c.53,.29,.94,.68,1.24,1.16,.3,.49,.45,1.03,.45,1.63,0,.43-.08,.85-.23,1.25-.15,.41-.42,.86-.79,1.36s-.9,1.1-1.57,1.82l-2.61,2.8v.09h5.41v1.25H1.79Z"/><path class="k" d="M18.47,268.53c-.86,0-1.58-.23-2.19-.7s-1.06-1.15-1.38-2.04c-.32-.89-.48-1.97-.48-3.24s.16-2.33,.48-3.22c.32-.89,.78-1.57,1.39-2.04,.6-.47,1.33-.71,2.18-.71s1.58,.24,2.18,.71c.6,.47,1.07,1.15,1.39,2.04,.32,.89,.48,1.97,.48,3.22s-.16,2.34-.48,3.24c-.32,.89-.78,1.57-1.38,2.04s-1.33,.7-2.19,.7Zm0-1.25c.85,0,1.51-.41,1.98-1.23s.7-1.98,.7-3.5c0-1.01-.11-1.87-.32-2.57-.21-.71-.52-1.25-.92-1.62-.4-.37-.88-.56-1.44-.56-.84,0-1.5,.41-1.97,1.24-.47,.83-.71,2-.71,3.51,0,1.01,.11,1.86,.32,2.57,.21,.7,.52,1.24,.92,1.61,.4,.37,.88,.55,1.45,.55Z"/><path class="k" d="M28.47,268.53c-.86,0-1.58-.23-2.19-.7s-1.06-1.15-1.38-2.04c-.32-.89-.48-1.97-.48-3.24s.16-2.33,.48-3.22c.32-.89,.78-1.57,1.39-2.04,.6-.47,1.33-.71,2.18-.71s1.58,.24,2.18,.71c.6,.47,1.07,1.15,1.39,2.04,.32,.89,.48,1.97,.48,3.22s-.16,2.34-.48,3.24c-.32,.89-.78,1.57-1.38,2.04s-1.33,.7-2.19,.7Zm0-1.25c.85,0,1.51-.41,1.98-1.23s.7-1.98,.7-3.5c0-1.01-.11-1.87-.32-2.57-.21-.71-.52-1.25-.92-1.62-.4-.37-.88-.56-1.44-.56-.84,0-1.5,.41-1.97,1.24-.47,.83-.71,2-.71,3.51,0,1.01,.11,1.86,.32,2.57,.21,.7,.52,1.24,.92,1.61,.4,.37,.88,.55,1.45,.55Z"/><path class="k" d="M38.47,268.53c-.86,0-1.58-.23-2.19-.7s-1.06-1.15-1.38-2.04c-.32-.89-.48-1.97-.48-3.24s.16-2.33,.48-3.22c.32-.89,.78-1.57,1.39-2.04,.6-.47,1.33-.71,2.18-.71s1.58,.24,2.18,.71c.6,.47,1.07,1.15,1.39,2.04,.32,.89,.48,1.97,.48,3.22s-.16,2.34-.48,3.24c-.32,.89-.78,1.57-1.38,2.04s-1.33,.7-2.19,.7Zm0-1.25c.85,0,1.51-.41,1.98-1.23s.7-1.98,.7-3.5c0-1.01-.11-1.87-.32-2.57-.21-.71-.52-1.25-.92-1.62-.4-.37-.88-.56-1.44-.56-.84,0-1.5,.41-1.97,1.24-.47,.83-.71,2-.71,3.51,0,1.01,.11,1.86,.32,2.57,.21,.7,.52,1.24,.92,1.61,.4,.37,.88,.55,1.45,.55Z"/></g><g><path class="k" d="M5.23,225.18c-.75,0-1.42-.13-2-.39-.59-.26-1.05-.62-1.39-1.08-.34-.46-.53-1-.56-1.61h1.43c.03,.38,.16,.7,.39,.97s.52,.48,.89,.63c.37,.15,.78,.22,1.22,.22,.5,0,.94-.09,1.33-.26,.39-.17,.69-.42,.91-.73s.33-.67,.33-1.08-.11-.81-.32-1.13c-.21-.33-.52-.58-.93-.77s-.91-.28-1.5-.28h-.93v-1.25h.93c.46,0,.87-.08,1.22-.25s.62-.4,.82-.71c.2-.3,.3-.66,.3-1.07s-.09-.74-.26-1.03c-.17-.29-.42-.52-.74-.68-.32-.16-.69-.24-1.12-.24-.4,0-.78,.07-1.13,.22-.35,.15-.64,.36-.87,.63s-.34,.61-.36,.99H1.52c.02-.61,.21-1.14,.55-1.6,.34-.46,.8-.82,1.35-1.08s1.17-.39,1.84-.39c.72,0,1.34,.15,1.85,.44,.51,.29,.91,.67,1.19,1.14s.42,.98,.42,1.53c0,.66-.17,1.21-.51,1.68s-.81,.78-1.39,.96v.09c.73,.12,1.31,.43,1.72,.93,.41,.5,.62,1.12,.62,1.86,0,.63-.17,1.2-.51,1.7s-.81,.9-1.4,1.18c-.59,.29-1.26,.43-2.02,.43Z"/><path class="k" d="M18.47,225.18c-.86,0-1.58-.23-2.19-.7s-1.06-1.15-1.38-2.04c-.32-.89-.48-1.97-.48-3.24s.16-2.33,.48-3.22c.32-.89,.78-1.57,1.39-2.04,.6-.47,1.33-.71,2.18-.71s1.58,.24,2.18,.71c.6,.47,1.07,1.15,1.39,2.04,.32,.89,.48,1.97,.48,3.22s-.16,2.34-.48,3.24c-.32,.89-.78,1.57-1.38,2.04s-1.33,.7-2.19,.7Zm0-1.25c.85,0,1.51-.41,1.98-1.23s.7-1.98,.7-3.5c0-1.01-.11-1.87-.32-2.57-.21-.71-.52-1.25-.92-1.62-.4-.37-.88-.56-1.44-.56-.84,0-1.5,.41-1.97,1.24-.47,.83-.71,2-.71,3.51,0,1.01,.11,1.86,.32,2.57,.21,.7,.52,1.24,.92,1.61,.4,.37,.88,.55,1.45,.55Z"/><path class="k" d="M28.47,225.18c-.86,0-1.58-.23-2.19-.7s-1.06-1.15-1.38-2.04c-.32-.89-.48-1.97-.48-3.24s.16-2.33,.48-3.22c.32-.89,.78-1.57,1.39-2.04,.6-.47,1.33-.71,2.18-.71s1.58,.24,2.18,.71c.6,.47,1.07,1.15,1.39,2.04,.32,.89,.48,1.97,.48,3.22s-.16,2.34-.48,3.24c-.32,.89-.78,1.57-1.38,2.04s-1.33,.7-2.19,.7Zm0-1.25c.85,0,1.51-.41,1.98-1.23s.7-1.98,.7-3.5c0-1.01-.11-1.87-.32-2.57-.21-.71-.52-1.25-.92-1.62-.4-.37-.88-.56-1.44-.56-.84,0-1.5,.41-1.97,1.24-.47,.83-.71,2-.71,3.51,0,1.01,.11,1.86,.32,2.57,.21,.7,.52,1.24,.92,1.61,.4,.37,.88,.55,1.45,.55Z"/><path class="k" d="M38.47,225.18c-.86,0-1.58-.23-2.19-.7s-1.06-1.15-1.38-2.04c-.32-.89-.48-1.97-.48-3.24s.16-2.33,.48-3.22c.32-.89,.78-1.57,1.39-2.04,.6-.47,1.33-.71,2.18-.71s1.58,.24,2.18,.71c.6,.47,1.07,1.15,1.39,2.04,.32,.89,.48,1.97,.48,3.22s-.16,2.34-.48,3.24c-.32,.89-.78,1.57-1.38,2.04s-1.33,.7-2.19,.7Zm0-1.25c.85,0,1.51-.41,1.98-1.23s.7-1.98,.7-3.5c0-1.01-.11-1.87-.32-2.57-.21-.71-.52-1.25-.92-1.62-.4-.37-.88-.56-1.44-.56-.84,0-1.5,.41-1.97,1.24-.47,.83-.71,2-.71,3.51,0,1.01,.11,1.86,.32,2.57,.21,.7,.52,1.24,.92,1.61,.4,.37,.88,.55,1.45,.55Z"/></g><g><path class="k" d="M.93,179.27v-1.16l5.11-8.09h.84v1.8h-.57l-3.86,6.11v.09h6.89v1.25H.93Zm5.48,2.39v-11.64h1.34v11.64h-1.34Z"/><path class="k" d="M18.47,181.82c-.86,0-1.58-.23-2.19-.7s-1.06-1.15-1.38-2.04c-.32-.89-.48-1.97-.48-3.24s.16-2.33,.48-3.22c.32-.89,.78-1.57,1.39-2.04,.6-.47,1.33-.71,2.18-.71s1.58,.24,2.18,.71c.6,.47,1.07,1.15,1.39,2.04,.32,.89,.48,1.97,.48,3.22s-.16,2.34-.48,3.24c-.32,.89-.78,1.57-1.38,2.04s-1.33,.7-2.19,.7Zm0-1.25c.85,0,1.51-.41,1.98-1.23s.7-1.98,.7-3.5c0-1.01-.11-1.87-.32-2.57-.21-.71-.52-1.25-.92-1.62-.4-.37-.88-.56-1.44-.56-.84,0-1.5,.41-1.97,1.24-.47,.83-.71,2-.71,3.51,0,1.01,.11,1.86,.32,2.57,.21,.7,.52,1.24,.92,1.61,.4,.37,.88,.55,1.45,.55Z"/><path class="k" d="M28.47,181.82c-.86,0-1.58-.23-2.19-.7s-1.06-1.15-1.38-2.04c-.32-.89-.48-1.97-.48-3.24s.16-2.33,.48-3.22c.32-.89,.78-1.57,1.39-2.04,.6-.47,1.33-.71,2.18-.71s1.58,.24,2.18,.71c.6,.47,1.07,1.15,1.39,2.04,.32,.89,.48,1.97,.48,3.22s-.16,2.34-.48,3.24c-.32,.89-.78,1.57-1.38,2.04s-1.33,.7-2.19,.7Zm0-1.25c.85,0,1.51-.41,1.98-1.23s.7-1.98,.7-3.5c0-1.01-.11-1.87-.32-2.57-.21-.71-.52-1.25-.92-1.62-.4-.37-.88-.56-1.44-.56-.84,0-1.5,.41-1.97,1.24-.47,.83-.71,2-.71,3.51,0,1.01,.11,1.86,.32,2.57,.21,.7,.52,1.24,.92,1.61,.4,.37,.88,.55,1.45,.55Z"/><path class="k" d="M38.47,181.82c-.86,0-1.58-.23-2.19-.7s-1.06-1.15-1.38-2.04c-.32-.89-.48-1.97-.48-3.24s.16-2.33,.48-3.22c.32-.89,.78-1.57,1.39-2.04,.6-.47,1.33-.71,2.18-.71s1.58,.24,2.18,.71c.6,.47,1.07,1.15,1.39,2.04,.32,.89,.48,1.97,.48,3.22s-.16,2.34-.48,3.24c-.32,.89-.78,1.57-1.38,2.04s-1.33,.7-2.19,.7Zm0-1.25c.85,0,1.51-.41,1.98-1.23s.7-1.98,.7-3.5c0-1.01-.11-1.87-.32-2.57-.21-.71-.52-1.25-.92-1.62-.4-.37-.88-.56-1.44-.56-.84,0-1.5,.41-1.97,1.24-.47,.83-.71,2-.71,3.51,0,1.01,.11,1.86,.32,2.57,.21,.7,.52,1.24,.92,1.61,.4,.37,.88,.55,1.45,.55Z"/></g><g><path class="k" d="M5.39,136.21c-.67,0-1.27-.13-1.8-.4-.53-.27-.96-.63-1.28-1.09-.32-.46-.5-.99-.53-1.58h1.36c.05,.53,.29,.96,.72,1.3s.94,.51,1.53,.51c.48,0,.9-.11,1.28-.33s.67-.53,.88-.92c.21-.39,.32-.84,.32-1.33s-.11-.96-.33-1.36c-.22-.4-.53-.71-.91-.95-.39-.23-.83-.35-1.32-.35-.36,0-.72,.05-1.1,.16-.38,.11-.68,.25-.93,.43l-1.32-.16,.7-5.73h6.05v1.25H3.84l-.41,3.43h.07c.24-.19,.54-.35,.9-.47,.36-.12,.73-.19,1.12-.19,.71,0,1.35,.17,1.91,.51,.56,.34,1,.8,1.32,1.39,.32,.59,.48,1.26,.48,2.01s-.17,1.4-.5,1.99-.79,1.04-1.37,1.38c-.58,.33-1.24,.5-1.98,.5Z"/><path class="k" d="M18.47,136.21c-.86,0-1.58-.23-2.19-.7s-1.06-1.15-1.38-2.04c-.32-.89-.48-1.97-.48-3.24s.16-2.33,.48-3.22c.32-.89,.78-1.57,1.39-2.04,.6-.47,1.33-.71,2.18-.71s1.58,.24,2.18,.71c.6,.47,1.07,1.15,1.39,2.04,.32,.89,.48,1.97,.48,3.22s-.16,2.34-.48,3.24c-.32,.89-.78,1.57-1.38,2.04s-1.33,.7-2.19,.7Zm0-1.25c.85,0,1.51-.41,1.98-1.23s.7-1.98,.7-3.5c0-1.01-.11-1.87-.32-2.57-.21-.71-.52-1.25-.92-1.62-.4-.37-.88-.56-1.44-.56-.84,0-1.5,.41-1.97,1.24-.47,.83-.71,2-.71,3.51,0,1.01,.11,1.86,.32,2.57,.21,.7,.52,1.24,.92,1.61,.4,.37,.88,.55,1.45,.55Z"/><path class="k" d="M28.47,136.21c-.86,0-1.58-.23-2.19-.7s-1.06-1.15-1.38-2.04c-.32-.89-.48-1.97-.48-3.24s.16-2.33,.48-3.22c.32-.89,.78-1.57,1.39-2.04,.6-.47,1.33-.71,2.18-.71s1.58,.24,2.18,.71c.6,.47,1.07,1.15,1.39,2.04,.32,.89,.48,1.97,.48,3.22s-.16,2.34-.48,3.24c-.32,.89-.78,1.57-1.38,2.04s-1.33,.7-2.19,.7Zm0-1.25c.85,0,1.51-.41,1.98-1.23s.7-1.98,.7-3.5c0-1.01-.11-1.87-.32-2.57-.21-.71-.52-1.25-.92-1.62-.4-.37-.88-.56-1.44-.56-.84,0-1.5,.41-1.97,1.24-.47,.83-.71,2-.71,3.51,0,1.01,.11,1.86,.32,2.57,.21,.7,.52,1.24,.92,1.61,.4,.37,.88,.55,1.45,.55Z"/><path class="k" d="M38.47,136.21c-.86,0-1.58-.23-2.19-.7s-1.06-1.15-1.38-2.04c-.32-.89-.48-1.97-.48-3.24s.16-2.33,.48-3.22c.32-.89,.78-1.57,1.39-2.04,.6-.47,1.33-.71,2.18-.71s1.58,.24,2.18,.71c.6,.47,1.07,1.15,1.39,2.04,.32,.89,.48,1.97,.48,3.22s-.16,2.34-.48,3.24c-.32,.89-.78,1.57-1.38,2.04s-1.33,.7-2.19,.7Zm0-1.25c.85,0,1.51-.41,1.98-1.23s.7-1.98,.7-3.5c0-1.01-.11-1.87-.32-2.57-.21-.71-.52-1.25-.92-1.62-.4-.37-.88-.56-1.44-.56-.84,0-1.5,.41-1.97,1.24-.47,.83-.71,2-.71,3.51,0,1.01,.11,1.86,.32,2.57,.21,.7,.52,1.24,.92,1.61,.4,.37,.88,.55,1.45,.55Z"/><path class="k" d="M3.23,148.05v-6.55h.97v1.02h.09c.14-.35,.36-.62,.66-.82s.67-.29,1.1-.29,.79,.1,1.08,.29c.29,.19,.51,.47,.67,.82h.07c.17-.34,.42-.61,.75-.81,.33-.2,.74-.3,1.21-.3,.59,0,1.06,.18,1.44,.55s.56,.93,.56,1.7v4.38h-1.01v-4.38c0-.48-.13-.83-.4-1.04s-.58-.31-.93-.31c-.46,0-.82,.14-1.07,.42-.25,.28-.38,.63-.38,1.05v4.26h-1.02v-4.48c0-.37-.12-.67-.36-.9-.24-.23-.55-.34-.93-.34-.26,0-.5,.07-.73,.21-.23,.14-.41,.33-.55,.58-.14,.25-.21,.53-.21,.85v4.09h-1Z"/><path class="k" d="M14.17,140.41c-.2,0-.36-.07-.5-.2-.14-.13-.21-.29-.21-.48s.07-.35,.21-.48,.31-.2,.5-.2,.36,.07,.5,.2,.21,.29,.21,.48-.07,.35-.21,.48c-.14,.13-.31,.2-.5,.2Zm-.51,7.64v-6.55h1v6.55h-1Z"/><path class="k" d="M17.51,139.32v8.73h-1v-8.73h1Z"/><path class="k" d="M20.09,148.12c-.21,0-.39-.08-.54-.23-.15-.15-.23-.33-.23-.54s.08-.39,.23-.54,.33-.23,.54-.23,.39,.08,.54,.23,.23,.33,.23,.54c0,.14-.04,.27-.1,.38-.07,.12-.16,.21-.28,.28s-.24,.1-.39,.1Z"/><path class="k" d="M28.88,141.5v.85h-3.39v-.85h3.39Zm-2.4-1.57h1.01v6.24c0,.28,.04,.5,.13,.64s.19,.23,.32,.28c.13,.05,.27,.07,.42,.07,.11,0,.2,0,.27-.02,.07-.01,.13-.02,.17-.03l.21,.9c-.07,.03-.16,.05-.29,.08-.12,.03-.28,.04-.46,.04-.28,0-.56-.06-.83-.18-.27-.12-.5-.31-.67-.56s-.27-.57-.27-.95v-6.51Z"/><path class="k" d="M34.52,145.37v-3.87h1v6.55h-1v-1.11h-.07c-.15,.33-.39,.62-.72,.85-.32,.23-.73,.35-1.23,.35-.41,0-.77-.09-1.09-.27s-.57-.45-.75-.82c-.18-.36-.27-.83-.27-1.38v-4.16h1v4.09c0,.48,.13,.86,.4,1.14s.61,.43,1.03,.43c.25,0,.5-.06,.76-.19s.48-.32,.66-.59c.18-.26,.27-.6,.27-1.01Z"/><path class="k" d="M38.38,144.11v3.94h-1v-6.55h.97v1.02h.09c.15-.33,.39-.6,.7-.8s.72-.3,1.21-.3c.44,0,.83,.09,1.16,.27,.33,.18,.59,.45,.78,.82s.28,.83,.28,1.38v4.16h-1.01v-4.09c0-.51-.13-.92-.4-1.2-.27-.29-.63-.43-1.1-.43-.32,0-.61,.07-.86,.21-.25,.14-.45,.34-.59,.61-.14,.27-.22,.59-.22,.97Z"/><path class="k" d="M15.15,154.05h-1.06c-.06-.3-.17-.57-.33-.8-.15-.23-.34-.42-.56-.58-.22-.16-.46-.28-.73-.36-.27-.08-.54-.12-.83-.12-.53,0-1.01,.13-1.43,.4-.43,.27-.77,.66-1.02,1.18-.25,.52-.38,1.16-.38,1.91s.13,1.39,.38,1.91c.25,.52,.59,.91,1.02,1.18,.43,.27,.91,.4,1.43,.4,.29,0,.57-.04,.83-.12,.27-.08,.51-.2,.73-.36,.22-.16,.41-.35,.56-.58,.16-.23,.26-.5,.33-.8h1.06c-.08,.45-.22,.85-.43,1.2-.21,.35-.47,.65-.78,.9s-.66,.43-1.05,.56-.8,.19-1.24,.19c-.74,0-1.41-.18-1.99-.54-.58-.36-1.04-.88-1.37-1.55-.33-.67-.5-1.47-.5-2.39s.17-1.72,.5-2.39c.33-.67,.79-1.19,1.37-1.55,.58-.36,1.24-.55,1.99-.55,.44,0,.85,.06,1.24,.19,.39,.13,.74,.32,1.05,.56,.31,.25,.57,.54,.78,.9,.21,.35,.36,.75,.43,1.2Z"/><path class="k" d="M24.22,155.69c0,.92-.17,1.72-.5,2.39-.33,.67-.79,1.19-1.37,1.55-.58,.36-1.24,.54-1.99,.54s-1.41-.18-1.99-.54c-.58-.36-1.04-.88-1.37-1.55-.33-.67-.5-1.47-.5-2.39s.17-1.72,.5-2.39c.33-.67,.79-1.19,1.37-1.55,.58-.36,1.24-.55,1.99-.55s1.41,.18,1.99,.55c.58,.36,1.04,.88,1.37,1.55s.5,1.47,.5,2.39Zm-1.02,0c0-.76-.12-1.39-.38-1.91-.25-.52-.59-.91-1.02-1.18-.43-.27-.91-.4-1.43-.4s-1.01,.13-1.43,.4c-.43,.27-.77,.66-1.02,1.18-.25,.52-.38,1.16-.38,1.91s.13,1.39,.38,1.91c.25,.52,.59,.91,1.02,1.18,.43,.27,.91,.4,1.43,.4s1.01-.13,1.43-.4c.43-.27,.77-.66,1.02-1.18,.25-.52,.38-1.16,.38-1.91Z"/><path class="k" d="M25.46,162.04v-.45l1.68-1.84c.2-.22,.36-.4,.49-.56,.13-.16,.22-.31,.28-.45s.09-.29,.09-.45c0-.18-.04-.33-.13-.46-.08-.13-.2-.23-.35-.3-.15-.07-.31-.11-.5-.11-.2,0-.37,.04-.51,.12-.14,.08-.26,.19-.33,.34-.08,.14-.12,.31-.12,.51h-.59c0-.3,.07-.56,.21-.79,.14-.22,.33-.4,.56-.53s.5-.19,.8-.19,.56,.06,.79,.19,.41,.3,.54,.51c.13,.21,.2,.45,.2,.71,0,.19-.03,.37-.1,.55-.07,.18-.18,.38-.35,.59-.16,.22-.39,.48-.68,.8l-1.14,1.22v.04h2.37v.55h-3.21Z"/><path class="k" d="M32.84,160.19c-.63,0-1.17-.14-1.63-.42-.46-.28-.81-.67-1.05-1.18-.25-.5-.37-1.09-.37-1.76s.12-1.26,.37-1.77c.25-.51,.59-.91,1.03-1.2,.44-.29,.96-.43,1.55-.43,.34,0,.68,.06,1.01,.17,.33,.11,.63,.3,.91,.55,.27,.25,.49,.59,.65,1.01,.16,.42,.24,.93,.24,1.54v.43h-5.05v-.87h4.02c0-.37-.07-.7-.22-.99-.15-.29-.35-.52-.62-.69-.27-.17-.58-.25-.95-.25-.4,0-.75,.1-1.04,.3-.29,.2-.51,.45-.67,.77s-.23,.65-.23,1.01v.58c0,.49,.09,.91,.26,1.25,.17,.34,.41,.6,.72,.78,.31,.18,.66,.27,1.07,.27,.26,0,.5-.04,.72-.11s.4-.19,.56-.34c.16-.15,.28-.34,.36-.57l.97,.27c-.1,.33-.27,.62-.52,.87-.24,.25-.54,.44-.89,.58s-.75,.21-1.2,.21Z"/><path class="k" d="M41.55,162.5v-3.46h-.09c-.07,.12-.18,.27-.32,.45-.14,.18-.33,.34-.58,.48s-.59,.21-1.01,.21c-.54,0-1.03-.14-1.44-.42-.42-.28-.74-.67-.98-1.18-.24-.51-.35-1.11-.35-1.8s.12-1.28,.35-1.79c.24-.5,.56-.9,.98-1.17,.42-.28,.91-.41,1.46-.41,.43,0,.76,.07,1.01,.21,.25,.14,.44,.3,.57,.48s.24,.32,.31,.44h.12v-1.04h.97v9h-1Zm-1.86-3.22c.4,0,.74-.11,1.02-.32,.28-.21,.49-.5,.64-.88,.14-.38,.22-.81,.22-1.31s-.07-.92-.21-1.29c-.14-.37-.35-.65-.63-.86s-.62-.31-1.03-.31-.78,.11-1.06,.33c-.28,.22-.49,.51-.63,.88-.14,.37-.21,.79-.21,1.25s.07,.89,.22,1.27c.14,.38,.36,.68,.64,.9,.28,.22,.63,.33,1.05,.33Z"/></g><g><path class="i" d="M190.75,100.73v1.92h-5.31v-1.92h5.31Z"/><path class="i" d="M197.09,106.62c-.85,0-1.6-.15-2.26-.44-.66-.29-1.18-.7-1.56-1.22-.38-.52-.58-1.11-.59-1.79h2.48c.02,.28,.11,.53,.28,.75,.17,.21,.4,.38,.69,.5,.29,.12,.61,.18,.97,.18s.71-.07,.99-.2,.51-.32,.68-.55c.16-.24,.24-.51,.24-.81s-.09-.59-.26-.83c-.17-.24-.42-.43-.74-.57-.32-.14-.7-.2-1.14-.2h-1.08v-1.81h1.08c.37,0,.7-.06,.99-.19,.29-.13,.51-.31,.67-.54s.24-.5,.24-.8-.07-.55-.21-.77c-.14-.22-.33-.39-.58-.52s-.54-.19-.87-.19-.64,.06-.91,.18c-.28,.12-.5,.29-.67,.51s-.26,.48-.27,.77h-2.36c.01-.67,.2-1.26,.57-1.77,.37-.51,.87-.91,1.5-1.2,.63-.29,1.34-.44,2.14-.44s1.51,.15,2.11,.44c.6,.29,1.07,.69,1.41,1.18,.33,.49,.5,1.05,.5,1.66,0,.65-.2,1.19-.61,1.63s-.94,.71-1.59,.83v.09c.86,.11,1.51,.41,1.96,.89,.45,.48,.67,1.09,.67,1.81,0,.66-.19,1.25-.57,1.77-.38,.52-.91,.92-1.59,1.22-.67,.3-1.45,.44-2.32,.44Z"/><path class="i" d="M203.34,106.47v-1.77l4.14-3.84c.35-.34,.65-.65,.89-.92,.24-.27,.42-.54,.55-.8,.12-.26,.19-.55,.19-.86,0-.34-.08-.64-.23-.88s-.37-.44-.64-.57c-.27-.13-.57-.2-.92-.2s-.67,.07-.93,.22c-.26,.14-.47,.35-.61,.62-.14,.27-.22,.59-.22,.96h-2.34c0-.76,.17-1.42,.52-1.98s.83-.99,1.45-1.3c.62-.31,1.34-.46,2.15-.46s1.56,.15,2.18,.44c.62,.29,1.1,.7,1.45,1.22,.34,.52,.52,1.11,.52,1.78,0,.44-.09,.87-.26,1.3-.17,.43-.48,.9-.92,1.42s-1.06,1.14-1.86,1.87l-1.7,1.67v.08h4.89v2.01h-8.29Z"/><path class="i" d="M217.53,97.62v-.61c0-.47,.1-.9,.3-1.29,.2-.39,.49-.71,.87-.94,.38-.23,.84-.35,1.38-.35s1.03,.12,1.41,.35c.38,.24,.67,.55,.86,.94,.2,.39,.29,.82,.29,1.29v.61c0,.47-.1,.9-.3,1.29-.2,.39-.49,.7-.87,.93-.38,.23-.85,.35-1.4,.35s-1.02-.12-1.4-.36-.67-.55-.86-.94c-.2-.39-.29-.82-.29-1.28Zm.75,8.84l8-11.64h1.49l-8,11.64h-1.49Zm.92-9.45v.61c0,.28,.07,.53,.2,.77,.13,.24,.36,.35,.7,.35s.59-.12,.71-.35c.13-.23,.19-.49,.19-.77v-.61c0-.28-.06-.53-.18-.77-.12-.24-.36-.36-.72-.36-.34,0-.57,.12-.7,.36-.13,.24-.19,.5-.19,.77Zm4.31,7.27v-.61c0-.47,.1-.89,.3-1.29,.2-.39,.49-.71,.87-.94,.38-.24,.85-.36,1.39-.36s1.03,.12,1.41,.35c.38,.23,.67,.55,.86,.94,.2,.39,.29,.82,.29,1.29v.61c0,.47-.1,.89-.3,1.29-.2,.39-.49,.71-.87,.94-.38,.24-.85,.36-1.4,.36s-1.02-.12-1.4-.36c-.38-.24-.67-.55-.86-.94-.2-.39-.3-.82-.3-1.29Zm1.65-.61v.61c0,.27,.07,.52,.2,.76,.13,.24,.37,.36,.71,.36s.58-.12,.71-.35c.13-.23,.19-.49,.19-.77v-.61c0-.28-.06-.53-.18-.77-.12-.24-.36-.36-.72-.36s-.58,.12-.71,.36c-.13,.24-.2,.5-.2,.77Z"/><path d="M147.28,114.74l-3.23,8.73h-1.36l-3.23-8.73h1.45l2.41,6.96h.09l2.41-6.96h1.45Z"/><path d="M153.55,123.47v-8.73h1.29v1.32h.09c.16-.43,.45-.78,.86-1.05,.42-.27,.89-.4,1.41-.4,.1,0,.22,0,.37,0,.15,0,.26,0,.33,.02v1.36s-.15-.03-.31-.05-.33-.04-.51-.04c-.42,0-.8,.09-1.13,.26-.33,.18-.59,.42-.78,.73-.19,.31-.29,.66-.29,1.05v5.52h-1.34Z"/><path d="M163.05,123.65c-.79,0-1.48-.19-2.07-.56-.59-.38-1.06-.9-1.39-1.57-.33-.67-.5-1.46-.5-2.36s.17-1.7,.5-2.38c.33-.68,.79-1.2,1.39-1.58,.59-.38,1.28-.56,2.07-.56s1.48,.19,2.07,.56,1.05,.9,1.39,1.58c.33,.68,.5,1.47,.5,2.38s-.17,1.69-.5,2.36c-.33,.67-.79,1.2-1.39,1.57s-1.28,.56-2.07,.56Zm0-1.2c.6,0,1.09-.15,1.48-.46,.39-.31,.67-.71,.86-1.21,.19-.5,.28-1.04,.28-1.62s-.09-1.13-.28-1.63c-.19-.5-.47-.91-.86-1.22-.39-.31-.88-.47-1.48-.47s-1.09,.16-1.48,.47c-.39,.31-.67,.72-.86,1.22-.19,.5-.28,1.05-.28,1.63s.09,1.12,.28,1.62,.47,.9,.86,1.21c.39,.31,.88,.46,1.48,.46Z"/><path d="M172.6,123.65c-.82,0-1.52-.19-2.11-.58-.59-.39-1.05-.92-1.36-1.6-.32-.68-.48-1.45-.48-2.32s.16-1.67,.49-2.35c.33-.68,.79-1.21,1.38-1.6,.59-.38,1.28-.58,2.07-.58,.61,0,1.17,.11,1.66,.34s.9,.55,1.21,.95c.31,.41,.51,.89,.58,1.43h-1.34c-.1-.4-.33-.75-.68-1.06-.35-.31-.82-.46-1.41-.46-.52,0-.98,.14-1.37,.41-.39,.27-.7,.65-.92,1.14s-.33,1.07-.33,1.72,.11,1.26,.32,1.76c.21,.5,.52,.89,.91,1.17,.39,.28,.85,.42,1.38,.42,.35,0,.67-.06,.95-.18,.28-.12,.52-.3,.72-.52,.2-.23,.34-.5,.42-.82h1.34c-.08,.52-.26,.98-.56,1.39-.3,.41-.69,.74-1.18,.98-.49,.24-1.05,.36-1.7,.36Z"/><path d="M181.64,123.65c-.84,0-1.57-.19-2.17-.56-.61-.37-1.08-.9-1.4-1.57-.33-.67-.49-1.46-.49-2.35s.16-1.68,.49-2.37c.33-.68,.79-1.22,1.38-1.6,.59-.38,1.28-.58,2.07-.58,.45,0,.9,.08,1.35,.23s.85,.4,1.21,.74c.36,.34,.65,.79,.87,1.34s.32,1.24,.32,2.06v.57h-6.73v-1.16h5.36c0-.49-.1-.93-.29-1.32-.2-.39-.47-.69-.83-.91-.36-.22-.78-.34-1.26-.34-.53,0-1,.13-1.38,.4-.39,.26-.69,.6-.89,1.03-.21,.42-.31,.87-.31,1.35v.77c0,.66,.11,1.22,.34,1.67,.23,.46,.55,.8,.96,1.04,.41,.24,.88,.36,1.43,.36,.35,0,.67-.05,.96-.15,.29-.1,.53-.25,.74-.46,.21-.2,.37-.46,.48-.76l1.29,.36c-.14,.44-.37,.82-.69,1.16-.32,.33-.72,.59-1.19,.77-.47,.18-1.01,.28-1.6,.28Z"/><path d="M191.78,123.47v-1.02l3.84-4.21c.45-.49,.82-.92,1.11-1.29,.29-.37,.51-.71,.65-1.03,.14-.32,.21-.66,.21-1.02,0-.41-.1-.76-.29-1.06-.2-.3-.46-.53-.8-.69-.34-.16-.72-.24-1.14-.24-.45,0-.84,.09-1.17,.28-.33,.18-.59,.44-.77,.77-.18,.33-.27,.72-.27,1.16h-1.34c0-.68,.16-1.28,.47-1.8,.31-.51,.74-.92,1.29-1.2,.54-.29,1.15-.43,1.83-.43s1.29,.14,1.81,.43c.53,.29,.94,.68,1.24,1.16,.3,.49,.45,1.03,.45,1.63,0,.43-.08,.85-.23,1.25-.15,.41-.42,.86-.79,1.36s-.9,1.1-1.57,1.82l-2.61,2.8v.09h5.41v1.25h-7.34Z"/><path d="M205.26,123.62c-.86,0-1.58-.23-2.19-.7s-1.06-1.15-1.38-2.04c-.32-.89-.48-1.97-.48-3.24s.16-2.33,.48-3.22c.32-.89,.78-1.57,1.39-2.04,.6-.47,1.33-.71,2.18-.71s1.58,.24,2.18,.71c.6,.47,1.07,1.15,1.39,2.04,.32,.89,.48,1.97,.48,3.22s-.16,2.34-.48,3.24c-.32,.89-.78,1.57-1.38,2.04s-1.33,.7-2.19,.7Zm0-1.25c.85,0,1.51-.41,1.98-1.23s.7-1.98,.7-3.5c0-1.01-.11-1.87-.32-2.57-.21-.71-.52-1.25-.92-1.62-.4-.37-.88-.56-1.44-.56-.84,0-1.5,.41-1.97,1.24-.47,.83-.71,2-.71,3.51,0,1.01,.11,1.86,.32,2.57,.21,.7,.52,1.24,.92,1.61,.4,.37,.88,.55,1.45,.55Z"/><path d="M211.46,123.47v-1.02l3.84-4.21c.45-.49,.82-.92,1.11-1.29,.29-.37,.51-.71,.65-1.03,.14-.32,.21-.66,.21-1.02,0-.41-.1-.76-.29-1.06-.2-.3-.46-.53-.8-.69-.34-.16-.72-.24-1.14-.24-.45,0-.84,.09-1.17,.28-.33,.18-.59,.44-.77,.77-.18,.33-.27,.72-.27,1.16h-1.34c0-.68,.16-1.28,.47-1.8,.31-.51,.74-.92,1.29-1.2,.54-.29,1.15-.43,1.83-.43s1.29,.14,1.81,.43c.53,.29,.94,.68,1.24,1.16,.3,.49,.45,1.03,.45,1.63,0,.43-.08,.85-.23,1.25-.15,.41-.42,.86-.79,1.36s-.9,1.1-1.57,1.82l-2.61,2.8v.09h5.41v1.25h-7.34Z"/><path d="M224.94,123.62c-.86,0-1.58-.23-2.19-.7s-1.06-1.15-1.38-2.04c-.32-.89-.48-1.97-.48-3.24s.16-2.33,.48-3.22c.32-.89,.78-1.57,1.39-2.04,.6-.47,1.33-.71,2.18-.71s1.58,.24,2.18,.71c.6,.47,1.07,1.15,1.39,2.04,.32,.89,.48,1.97,.48,3.22s-.16,2.34-.48,3.24c-.32,.89-.78,1.57-1.38,2.04s-1.33,.7-2.19,.7Zm0-1.25c.85,0,1.51-.41,1.98-1.23s.7-1.98,.7-3.5c0-1.01-.11-1.87-.32-2.57-.21-.71-.52-1.25-.92-1.62-.4-.37-.88-.56-1.44-.56-.84,0-1.5,.41-1.97,1.24-.47,.83-.71,2-.71,3.51,0,1.01,.11,1.86,.32,2.57,.21,.7,.52,1.24,.92,1.61,.4,.37,.88,.55,1.45,.55Z"/><path d="M110.42,140.65c-.79,0-1.48-.19-2.07-.56-.59-.38-1.06-.9-1.39-1.57-.33-.67-.5-1.46-.5-2.36s.17-1.7,.5-2.38c.33-.68,.79-1.2,1.39-1.58,.59-.38,1.28-.56,2.07-.56s1.48,.19,2.07,.56,1.05,.9,1.39,1.58c.33,.68,.5,1.47,.5,2.38s-.17,1.69-.5,2.36c-.33,.67-.79,1.2-1.39,1.57s-1.28,.56-2.07,.56Zm0-1.2c.6,0,1.09-.15,1.48-.46,.39-.31,.67-.71,.86-1.21,.19-.5,.28-1.04,.28-1.62s-.09-1.13-.28-1.63c-.19-.5-.47-.91-.86-1.22-.39-.31-.88-.47-1.48-.47s-1.09,.16-1.48,.47c-.39,.31-.67,.72-.86,1.22-.19,.5-.28,1.05-.28,1.63s.09,1.12,.28,1.62,.47,.9,.86,1.21c.39,.31,.88,.46,1.48,.46Z"/><path d="M116.42,143.74v-12h1.29v1.39h.16c.1-.15,.24-.35,.41-.58,.18-.24,.43-.45,.76-.64,.33-.19,.78-.28,1.35-.28,.74,0,1.38,.18,1.94,.55,.56,.37,1,.89,1.31,1.56,.31,.67,.47,1.47,.47,2.39s-.16,1.72-.47,2.4-.75,1.2-1.31,1.57-1.2,.55-1.93,.55c-.56,0-1.01-.09-1.35-.28s-.6-.4-.78-.64c-.18-.24-.32-.44-.42-.6h-.11v4.61h-1.34Zm1.32-7.64c0,.66,.1,1.24,.29,1.74s.48,.89,.85,1.18,.83,.42,1.36,.42,1.03-.15,1.41-.45c.38-.3,.66-.7,.85-1.2,.19-.51,.29-1.07,.29-1.69s-.09-1.17-.28-1.66-.47-.89-.85-1.18c-.38-.29-.85-.43-1.42-.43s-1,.14-1.38,.41c-.37,.27-.65,.66-.84,1.15-.19,.49-.28,1.06-.28,1.71Z"/><path d="M126.17,140.47v-8.73h1.29v1.32h.09c.16-.43,.45-.78,.86-1.05,.42-.27,.89-.4,1.41-.4,.1,0,.22,0,.37,0,.15,0,.26,0,.33,.02v1.36s-.15-.03-.31-.05-.33-.04-.51-.04c-.42,0-.8,.09-1.13,.26-.33,.18-.59,.42-.78,.73-.19,.31-.29,.66-.29,1.05v5.52h-1.34Z"/><path d="M135.67,140.65c-.79,0-1.48-.19-2.07-.56-.59-.38-1.06-.9-1.39-1.57-.33-.67-.5-1.46-.5-2.36s.17-1.7,.5-2.38c.33-.68,.79-1.2,1.39-1.58,.59-.38,1.28-.56,2.07-.56s1.48,.19,2.07,.56,1.05,.9,1.39,1.58c.33,.68,.5,1.47,.5,2.38s-.17,1.69-.5,2.36c-.33,.67-.79,1.2-1.39,1.57s-1.28,.56-2.07,.56Zm0-1.2c.6,0,1.09-.15,1.48-.46,.39-.31,.67-.71,.86-1.21,.19-.5,.28-1.04,.28-1.62s-.09-1.13-.28-1.63c-.19-.5-.47-.91-.86-1.22-.39-.31-.88-.47-1.48-.47s-1.09,.16-1.48,.47c-.39,.31-.67,.72-.86,1.22-.19,.5-.28,1.05-.28,1.63s.09,1.12,.28,1.62,.47,.9,.86,1.21c.39,.31,.88,.46,1.48,.46Z"/><path d="M145.46,131.74v1.14h-4.52v-1.14h4.52Zm-3.2-2.09h1.34v8.32c0,.38,.06,.66,.17,.85,.11,.19,.25,.31,.43,.38,.18,.06,.36,.09,.56,.09,.15,0,.27,0,.36-.03,.09-.02,.17-.03,.23-.04l.27,1.2c-.09,.03-.22,.07-.38,.11-.16,.04-.37,.05-.62,.05-.38,0-.75-.08-1.11-.24-.36-.16-.66-.41-.9-.74-.24-.33-.35-.75-.35-1.26v-8.68Z"/><path d="M148.17,130.28c-.26,0-.49-.09-.67-.27-.19-.18-.28-.39-.28-.64s.09-.46,.28-.64c.19-.18,.41-.27,.67-.27s.49,.09,.67,.27c.19,.18,.28,.39,.28,.64s-.09,.46-.28,.64c-.19,.18-.41,.27-.67,.27Zm-.68,10.18v-8.73h1.34v8.73h-1.34Z"/><path d="M155.78,140.47v-8.73h1.29v1.32h.09c.16-.43,.45-.78,.86-1.05,.42-.27,.89-.4,1.41-.4,.1,0,.22,0,.37,0,.15,0,.26,0,.33,.02v1.36s-.15-.03-.31-.05-.33-.04-.51-.04c-.42,0-.8,.09-1.13,.26-.33,.18-.59,.42-.78,.73-.19,.31-.29,.66-.29,1.05v5.52h-1.34Z"/><path d="M165.28,140.65c-.79,0-1.48-.19-2.07-.56-.59-.38-1.06-.9-1.39-1.57-.33-.67-.5-1.46-.5-2.36s.17-1.7,.5-2.38c.33-.68,.79-1.2,1.39-1.58,.59-.38,1.28-.56,2.07-.56s1.48,.19,2.07,.56,1.05,.9,1.39,1.58c.33,.68,.5,1.47,.5,2.38s-.17,1.69-.5,2.36c-.33,.67-.79,1.2-1.39,1.57s-1.28,.56-2.07,.56Zm0-1.2c.6,0,1.09-.15,1.48-.46,.39-.31,.67-.71,.86-1.21,.19-.5,.28-1.04,.28-1.62s-.09-1.13-.28-1.63c-.19-.5-.47-.91-.86-1.22-.39-.31-.88-.47-1.48-.47s-1.09,.16-1.48,.47c-.39,.31-.67,.72-.86,1.22-.19,.5-.28,1.05-.28,1.63s.09,1.12,.28,1.62,.47,.9,.86,1.21c.39,.31,.88,.46,1.48,.46Z"/><path d="M171.28,140.47v-11.64h1.34v11.64h-1.34Zm1.25-3.18l-.02-1.66h.27l3.82-3.89h1.66l-4.07,4.11h-.11l-1.54,1.43Zm4.29,3.18l-3.41-4.32,.96-.93,4.16,5.25h-1.71Z"/><path d="M185.48,136.9v-5.16h1.34v8.73h-1.34v-1.48h-.09c-.21,.44-.52,.82-.96,1.13s-.98,.46-1.64,.46c-.55,0-1.03-.12-1.46-.36s-.76-.6-1-1.09c-.24-.49-.36-1.1-.36-1.84v-5.55h1.34v5.46c0,.64,.18,1.14,.54,1.52,.36,.38,.82,.57,1.37,.57,.33,0,.67-.08,1.02-.26s.64-.43,.88-.78,.36-.8,.36-1.35Z"/><path d="M197.85,128.83v11.64h-1.41v-10.16h-.07l-2.84,1.89v-1.43l2.91-1.93h1.41Z"/><path d="M204.89,128.67c.48,0,.95,.09,1.43,.27,.48,.18,.91,.47,1.31,.88,.39,.41,.71,.97,.95,1.68,.24,.71,.36,1.6,.36,2.66s-.1,1.95-.29,2.75c-.2,.8-.48,1.48-.84,2.03-.37,.55-.81,.97-1.33,1.25-.52,.28-1.11,.43-1.76,.43s-1.23-.13-1.74-.39c-.51-.26-.93-.62-1.25-1.08-.32-.46-.53-1-.62-1.62h1.39c.12,.53,.37,.97,.75,1.32,.37,.35,.87,.52,1.48,.52,.9,0,1.61-.39,2.13-1.18,.52-.78,.78-1.89,.78-3.32h-.09c-.21,.32-.46,.59-.76,.82-.29,.23-.62,.41-.97,.53-.36,.12-.74,.19-1.14,.19-.67,0-1.28-.17-1.83-.5-.55-.33-1-.79-1.33-1.37-.33-.58-.5-1.25-.5-2s.16-1.36,.48-1.96,.77-1.07,1.35-1.42c.58-.35,1.27-.52,2.05-.51Zm0,1.25c-.48,0-.91,.12-1.29,.36-.38,.24-.68,.55-.9,.96-.22,.4-.33,.84-.33,1.33s.11,.93,.32,1.32,.51,.71,.88,.94c.37,.23,.8,.35,1.28,.35,.36,0,.7-.07,1.01-.21,.31-.14,.58-.34,.82-.58,.23-.25,.42-.53,.55-.85,.13-.32,.2-.65,.2-.99,0-.46-.11-.88-.33-1.28-.22-.4-.52-.72-.9-.97-.38-.25-.81-.37-1.3-.37Z"/><path d="M214.87,128.67c.48,0,.95,.09,1.43,.27,.48,.18,.91,.47,1.31,.88,.39,.41,.71,.97,.95,1.68,.24,.71,.36,1.6,.36,2.66s-.1,1.95-.29,2.75c-.2,.8-.48,1.48-.84,2.03-.37,.55-.81,.97-1.33,1.25-.52,.28-1.11,.43-1.76,.43s-1.23-.13-1.74-.39c-.51-.26-.93-.62-1.25-1.08-.32-.46-.53-1-.62-1.62h1.39c.12,.53,.37,.97,.75,1.32,.37,.35,.87,.52,1.48,.52,.9,0,1.61-.39,2.13-1.18,.52-.78,.78-1.89,.78-3.32h-.09c-.21,.32-.46,.59-.76,.82-.29,.23-.62,.41-.97,.53-.36,.12-.74,.19-1.14,.19-.67,0-1.28-.17-1.83-.5-.55-.33-1-.79-1.33-1.37-.33-.58-.5-1.25-.5-2s.16-1.36,.48-1.96,.77-1.07,1.35-1.42c.58-.35,1.27-.52,2.05-.51Zm0,1.25c-.48,0-.91,.12-1.29,.36-.38,.24-.68,.55-.9,.96-.22,.4-.33,.84-.33,1.33s.11,.93,.32,1.32,.51,.71,.88,.94c.37,.23,.8,.35,1.28,.35,.36,0,.7-.07,1.01-.21,.31-.14,.58-.34,.82-.58,.23-.25,.42-.53,.55-.85,.13-.32,.2-.65,.2-.99,0-.46-.11-.88-.33-1.28-.22-.4-.52-.72-.9-.97-.38-.25-.81-.37-1.3-.37Z"/><path d="M224.94,140.62c-.86,0-1.58-.23-2.19-.7s-1.06-1.15-1.38-2.04c-.32-.89-.48-1.97-.48-3.24s.16-2.33,.48-3.22c.32-.89,.78-1.57,1.39-2.04,.6-.47,1.33-.71,2.18-.71s1.58,.24,2.18,.71c.6,.47,1.07,1.15,1.39,2.04,.32,.89,.48,1.97,.48,3.22s-.16,2.34-.48,3.24c-.32,.89-.78,1.57-1.38,2.04s-1.33,.7-2.19,.7Zm0-1.25c.85,0,1.51-.41,1.98-1.23s.7-1.98,.7-3.5c0-1.01-.11-1.87-.32-2.57-.21-.71-.52-1.25-.92-1.62-.4-.37-.88-.56-1.44-.56-.84,0-1.5,.41-1.97,1.24-.47,.83-.71,2-.71,3.51,0,1.01,.11,1.86,.32,2.57,.21,.7,.52,1.24,.92,1.61,.4,.37,.88,.55,1.45,.55Z"/></g><g><line class="g" x1="211.94" y1="146.91" x2="211.94" y2="198.67"/><polygon class="j" points="208.87 196.19 209.42 195.67 211.94 198.38 214.46 195.67 215 196.19 211.94 199.48 208.87 196.19"/></g><g><line class="g" x1="264.49" y1="196.74" x2="264.49" y2="248.49"/><polygon class="j" points="261.42 246.01 261.97 245.5 264.49 248.2 267 245.5 267.55 246.01 264.49 249.31 261.42 246.01"/></g><g><line class="g" x1="371.58" y1="283.98" x2="371.58" y2="342.54"/><polygon class="j" points="368.52 340.05 369.06 339.54 371.58 342.25 374.1 339.54 374.65 340.05 371.58 343.35 368.52 340.05"/></g><rect class="m" x="261.8" y="255.43" width="5.36" height="95.3"/><line class="c" x1="46.29" y1="220.67" x2="257.53" y2="220.67"/><line class="c" x1="46.29" y1="307.38" x2="332.32" y2="307.38"/><line class="d" x1="49.53" y1="351.25" x2="371.83" y2="351.25"/><line class="c" x1="46.29" y1="264.02" x2="292.59" y2="264.02"/><g><path class="m" d="M250.89,149.44v1.92h-5.31v-1.92h5.31Z"/><path class="m" d="M257.18,155.34c-.8,0-1.52-.15-2.15-.44-.63-.29-1.12-.7-1.49-1.22-.37-.52-.56-1.11-.57-1.78h2.39c.03,.45,.22,.82,.57,1.1s.77,.42,1.26,.42c.39,0,.73-.09,1.03-.26,.3-.17,.53-.41,.7-.72,.17-.31,.25-.66,.25-1.07s-.09-.77-.26-1.08c-.17-.31-.41-.55-.71-.73-.3-.17-.65-.26-1.04-.27-.34,0-.67,.07-.99,.21-.32,.14-.57,.33-.75,.57l-2.19-.39,.55-6.14h7.11v2.01h-5.08l-.3,2.92h.07c.21-.29,.51-.53,.93-.72s.88-.28,1.39-.28c.7,0,1.33,.16,1.88,.49,.55,.33,.98,.78,1.3,1.36,.32,.57,.48,1.23,.47,1.98,0,.78-.18,1.48-.54,2.09-.37,.61-.88,1.09-1.53,1.43-.65,.35-1.41,.52-2.28,.52Z"/><path class="m" d="M267.49,155.34c-.8,0-1.52-.15-2.15-.44-.63-.29-1.12-.7-1.49-1.22-.37-.52-.56-1.11-.57-1.78h2.39c.03,.45,.22,.82,.57,1.1s.77,.42,1.26,.42c.39,0,.73-.09,1.03-.26,.3-.17,.53-.41,.7-.72,.17-.31,.25-.66,.25-1.07s-.09-.77-.26-1.08c-.17-.31-.41-.55-.71-.73-.3-.17-.65-.26-1.04-.27-.34,0-.67,.07-.99,.21-.32,.14-.57,.33-.75,.57l-2.19-.39,.55-6.14h7.11v2.01h-5.08l-.3,2.92h.07c.21-.29,.51-.53,.93-.72s.88-.28,1.39-.28c.7,0,1.33,.16,1.88,.49,.55,.33,.98,.78,1.3,1.36,.32,.57,.48,1.23,.47,1.98,0,.78-.18,1.48-.54,2.09-.37,.61-.88,1.09-1.53,1.43-.65,.35-1.41,.52-2.28,.52Z"/><path class="m" d="M277.66,146.34v-.61c0-.47,.1-.9,.3-1.29,.2-.39,.49-.71,.87-.94,.38-.23,.84-.35,1.38-.35s1.03,.12,1.41,.35c.38,.24,.67,.55,.86,.94,.2,.39,.29,.82,.29,1.29v.61c0,.47-.1,.9-.3,1.29-.2,.39-.49,.7-.87,.93-.38,.23-.85,.35-1.4,.35s-1.02-.12-1.4-.36-.67-.55-.86-.94c-.2-.39-.29-.82-.29-1.28Zm.75,8.84l8-11.64h1.49l-8,11.64h-1.49Zm.92-9.45v.61c0,.28,.07,.53,.2,.77,.13,.24,.36,.35,.7,.35s.59-.12,.71-.35c.13-.23,.19-.49,.19-.77v-.61c0-.28-.06-.53-.18-.77-.12-.24-.36-.36-.72-.36-.34,0-.57,.12-.7,.36-.13,.24-.19,.5-.19,.77Zm4.31,7.27v-.61c0-.47,.1-.89,.3-1.29,.2-.39,.49-.71,.87-.94,.38-.24,.85-.36,1.39-.36s1.03,.12,1.41,.35c.38,.23,.67,.55,.86,.94,.2,.39,.29,.82,.29,1.29v.61c0,.47-.1,.89-.3,1.29-.2,.39-.49,.71-.87,.94-.38,.24-.85,.36-1.4,.36s-1.02-.12-1.4-.36c-.38-.24-.67-.55-.86-.94-.2-.39-.3-.82-.3-1.29Zm1.65-.61v.61c0,.27,.07,.52,.2,.76,.13,.24,.37,.36,.71,.36s.58-.12,.71-.35c.13-.23,.19-.49,.19-.77v-.61c0-.28-.06-.53-.18-.77-.12-.24-.36-.36-.72-.36s-.58,.12-.71,.36c-.13,.24-.2,.5-.2,.77Z"/><path d="M249.01,172.36c-.73,0-1.37-.18-1.93-.55s-.99-.89-1.31-1.57-.47-1.48-.47-2.4,.16-1.71,.47-2.39c.31-.67,.75-1.19,1.31-1.56,.56-.37,1.21-.55,1.94-.55,.57,0,1.02,.09,1.35,.28,.33,.19,.59,.4,.76,.64,.18,.24,.31,.43,.41,.58h.11v-4.3h1.34v11.64h-1.29v-1.34h-.16c-.1,.16-.24,.36-.42,.6-.18,.24-.44,.45-.78,.64s-.79,.28-1.35,.28Zm.18-1.2c.54,0,.99-.14,1.36-.42s.65-.67,.85-1.18,.29-1.08,.29-1.74-.09-1.22-.28-1.71c-.19-.49-.47-.87-.84-1.15-.37-.27-.83-.41-1.38-.41s-1.04,.15-1.42,.43c-.38,.29-.66,.68-.85,1.18s-.28,1.05-.28,1.66,.1,1.18,.29,1.69c.19,.5,.47,.91,.85,1.2,.38,.3,.85,.45,1.41,.45Z"/><path d="M259.19,172.36c-.79,0-1.48-.19-2.07-.56-.59-.38-1.06-.9-1.39-1.57-.33-.67-.5-1.46-.5-2.36s.17-1.7,.5-2.38c.33-.68,.79-1.2,1.39-1.58,.59-.38,1.28-.56,2.07-.56s1.48,.19,2.07,.56,1.05,.9,1.39,1.58c.33,.68,.5,1.47,.5,2.38s-.17,1.69-.5,2.36c-.33,.67-.79,1.2-1.39,1.57s-1.28,.56-2.07,.56Zm0-1.2c.6,0,1.09-.15,1.48-.46,.39-.31,.67-.71,.86-1.21,.19-.5,.28-1.04,.28-1.62s-.09-1.13-.28-1.63c-.19-.5-.47-.91-.86-1.22-.39-.31-.88-.47-1.48-.47s-1.09,.16-1.48,.47c-.39,.31-.67,.72-.86,1.22-.19,.5-.28,1.05-.28,1.63s.09,1.12,.28,1.62,.47,.9,.86,1.21c.39,.31,.88,.46,1.48,.46Z"/><path d="M269.69,172.18v-8.73h1.29v1.32h.09c.16-.43,.45-.78,.86-1.05,.42-.27,.89-.4,1.41-.4,.1,0,.22,0,.37,0,.15,0,.26,0,.33,.02v1.36s-.15-.03-.31-.05-.33-.04-.51-.04c-.42,0-.8,.09-1.13,.26-.33,.18-.59,.42-.78,.73-.19,.31-.29,.66-.29,1.05v5.52h-1.34Z"/><path d="M279.19,172.36c-.79,0-1.48-.19-2.07-.56-.59-.38-1.06-.9-1.39-1.57-.33-.67-.5-1.46-.5-2.36s.17-1.7,.5-2.38c.33-.68,.79-1.2,1.39-1.58,.59-.38,1.28-.56,2.07-.56s1.48,.19,2.07,.56,1.05,.9,1.39,1.58c.33,.68,.5,1.47,.5,2.38s-.17,1.69-.5,2.36c-.33,.67-.79,1.2-1.39,1.57s-1.28,.56-2.07,.56Zm0-1.2c.6,0,1.09-.15,1.48-.46,.39-.31,.67-.71,.86-1.21,.19-.5,.28-1.04,.28-1.62s-.09-1.13-.28-1.63c-.19-.5-.47-.91-.86-1.22-.39-.31-.88-.47-1.48-.47s-1.09,.16-1.48,.47c-.39,.31-.67,.72-.86,1.22-.19,.5-.28,1.05-.28,1.63s.09,1.12,.28,1.62,.47,.9,.86,1.21c.39,.31,.88,.46,1.48,.46Z"/><path d="M285.19,172.18v-11.64h1.34v11.64h-1.34Zm1.25-3.18l-.02-1.66h.27l3.82-3.89h1.66l-4.07,4.11h-.11l-1.54,1.43Zm4.29,3.18l-3.41-4.32,.96-.93,4.16,5.25h-1.71Z"/><path d="M299.39,168.61v-5.16h1.34v8.73h-1.34v-1.48h-.09c-.21,.44-.52,.82-.96,1.13s-.98,.46-1.64,.46c-.55,0-1.03-.12-1.46-.36s-.76-.6-1-1.09c-.24-.49-.36-1.1-.36-1.84v-5.55h1.34v5.46c0,.64,.18,1.14,.54,1.52,.36,.38,.82,.57,1.37,.57,.33,0,.67-.08,1.02-.26s.64-.43,.88-.78,.36-.8,.36-1.35Z"/><path d="M307.67,172.18v-1.02l3.84-4.21c.45-.49,.82-.92,1.11-1.29,.29-.37,.51-.71,.65-1.03,.14-.32,.21-.66,.21-1.02,0-.41-.1-.76-.29-1.06-.2-.3-.46-.53-.8-.69-.34-.16-.72-.24-1.14-.24-.45,0-.84,.09-1.17,.28-.33,.18-.59,.44-.77,.77-.18,.33-.27,.72-.27,1.16h-1.34c0-.68,.16-1.28,.47-1.8,.31-.51,.74-.92,1.29-1.2,.54-.29,1.15-.43,1.83-.43s1.29,.14,1.81,.43c.53,.29,.94,.68,1.24,1.16,.3,.49,.45,1.03,.45,1.63,0,.43-.08,.85-.23,1.25-.15,.41-.42,.86-.79,1.36s-.9,1.1-1.57,1.82l-2.61,2.8v.09h5.41v1.25h-7.34Z"/><path d="M321.14,172.34c-.86,0-1.58-.23-2.19-.7s-1.06-1.15-1.38-2.04c-.32-.89-.48-1.97-.48-3.24s.16-2.33,.48-3.22c.32-.89,.78-1.57,1.39-2.04,.6-.47,1.33-.71,2.18-.71s1.58,.24,2.18,.71c.6,.47,1.07,1.15,1.39,2.04,.32,.89,.48,1.97,.48,3.22s-.16,2.34-.48,3.24c-.32,.89-.78,1.57-1.38,2.04s-1.33,.7-2.19,.7Zm0-1.25c.85,0,1.51-.41,1.98-1.23s.7-1.98,.7-3.5c0-1.01-.11-1.87-.32-2.57-.21-.71-.52-1.25-.92-1.62-.4-.37-.88-.56-1.44-.56-.84,0-1.5,.41-1.97,1.24-.47,.83-.71,2-.71,3.51,0,1.01,.11,1.86,.32,2.57,.21,.7,.52,1.24,.92,1.61,.4,.37,.88,.55,1.45,.55Z"/><path d="M331.28,172.34c-.75,0-1.42-.13-2-.39-.59-.26-1.05-.62-1.39-1.08-.34-.46-.53-1-.56-1.61h1.43c.03,.38,.16,.7,.39,.97s.52,.48,.89,.63c.37,.15,.78,.22,1.22,.22,.5,0,.94-.09,1.33-.26,.39-.17,.69-.42,.91-.73s.33-.67,.33-1.08-.11-.81-.32-1.13c-.21-.33-.52-.58-.93-.77s-.91-.28-1.5-.28h-.93v-1.25h.93c.46,0,.87-.08,1.22-.25s.62-.4,.82-.71c.2-.3,.3-.66,.3-1.07s-.09-.74-.26-1.03c-.17-.29-.42-.52-.74-.68-.32-.16-.69-.24-1.12-.24-.4,0-.78,.07-1.13,.22-.35,.15-.64,.36-.87,.63s-.34,.61-.36,.99h-1.36c.02-.61,.21-1.14,.55-1.6,.34-.46,.8-.82,1.35-1.08s1.17-.39,1.84-.39c.72,0,1.34,.15,1.85,.44,.51,.29,.91,.67,1.19,1.14s.42,.98,.42,1.53c0,.66-.17,1.21-.51,1.68s-.81,.78-1.39,.96v.09c.73,.12,1.31,.43,1.72,.93,.41,.5,.62,1.12,.62,1.86,0,.63-.17,1.2-.51,1.7s-.81,.9-1.4,1.18c-.59,.29-1.26,.43-2.02,.43Z"/><path d="M341.33,172.34c-.86,0-1.58-.23-2.19-.7s-1.06-1.15-1.38-2.04c-.32-.89-.48-1.97-.48-3.24s.16-2.33,.48-3.22c.32-.89,.78-1.57,1.39-2.04,.6-.47,1.33-.71,2.18-.71s1.58,.24,2.18,.71c.6,.47,1.07,1.15,1.39,2.04,.32,.89,.48,1.97,.48,3.22s-.16,2.34-.48,3.24c-.32,.89-.78,1.57-1.38,2.04s-1.33,.7-2.19,.7Zm0-1.25c.85,0,1.51-.41,1.98-1.23s.7-1.98,.7-3.5c0-1.01-.11-1.87-.32-2.57-.21-.71-.52-1.25-.92-1.62-.4-.37-.88-.56-1.44-.56-.84,0-1.5,.41-1.97,1.24-.47,.83-.71,2-.71,3.51,0,1.01,.11,1.86,.32,2.57,.21,.7,.52,1.24,.92,1.61,.4,.37,.88,.55,1.45,.55Z"/><path d="M249.26,189.36c-.79,0-1.48-.19-2.07-.56-.59-.38-1.06-.9-1.39-1.57-.33-.67-.5-1.46-.5-2.36s.17-1.7,.5-2.38c.33-.68,.79-1.2,1.39-1.58,.59-.38,1.28-.56,2.07-.56s1.48,.19,2.07,.56,1.05,.9,1.39,1.58c.33,.68,.5,1.47,.5,2.38s-.17,1.69-.5,2.36c-.33,.67-.79,1.2-1.39,1.57s-1.28,.56-2.07,.56Zm0-1.2c.6,0,1.09-.15,1.48-.46,.39-.31,.67-.71,.86-1.21,.19-.5,.28-1.04,.28-1.62s-.09-1.13-.28-1.63c-.19-.5-.47-.91-.86-1.22-.39-.31-.88-.47-1.48-.47s-1.09,.16-1.48,.47c-.39,.31-.67,.72-.86,1.22-.19,.5-.28,1.05-.28,1.63s.09,1.12,.28,1.62,.47,.9,.86,1.21c.39,.31,.88,.46,1.48,.46Z"/><path d="M255.26,192.45v-12h1.29v1.39h.16c.1-.15,.24-.35,.41-.58,.18-.24,.43-.45,.76-.64,.33-.19,.78-.28,1.35-.28,.74,0,1.38,.18,1.94,.55,.56,.37,1,.89,1.31,1.56,.31,.67,.47,1.47,.47,2.39s-.16,1.72-.47,2.4-.75,1.2-1.31,1.57-1.2,.55-1.93,.55c-.56,0-1.01-.09-1.35-.28s-.6-.4-.78-.64c-.18-.24-.32-.44-.42-.6h-.11v4.61h-1.34Zm1.32-7.64c0,.66,.1,1.24,.29,1.74s.48,.89,.85,1.18,.83,.42,1.36,.42,1.03-.15,1.41-.45c.38-.3,.66-.7,.85-1.2,.19-.51,.29-1.07,.29-1.69s-.09-1.17-.28-1.66-.47-.89-.85-1.18c-.38-.29-.85-.43-1.42-.43s-1,.14-1.38,.41c-.37,.27-.65,.66-.84,1.15-.19,.49-.28,1.06-.28,1.71Z"/><path d="M265.01,189.18v-8.73h1.29v1.32h.09c.16-.43,.45-.78,.86-1.05,.42-.27,.89-.4,1.41-.4,.1,0,.22,0,.37,0,.15,0,.26,0,.33,.02v1.36s-.15-.03-.31-.05-.33-.04-.51-.04c-.42,0-.8,.09-1.13,.26-.33,.18-.59,.42-.78,.73-.19,.31-.29,.66-.29,1.05v5.52h-1.34Z"/><path d="M274.51,189.36c-.79,0-1.48-.19-2.07-.56-.59-.38-1.06-.9-1.39-1.57-.33-.67-.5-1.46-.5-2.36s.17-1.7,.5-2.38c.33-.68,.79-1.2,1.39-1.58,.59-.38,1.28-.56,2.07-.56s1.48,.19,2.07,.56,1.05,.9,1.39,1.58c.33,.68,.5,1.47,.5,2.38s-.17,1.69-.5,2.36c-.33,.67-.79,1.2-1.39,1.57s-1.28,.56-2.07,.56Zm0-1.2c.6,0,1.09-.15,1.48-.46,.39-.31,.67-.71,.86-1.21,.19-.5,.28-1.04,.28-1.62s-.09-1.13-.28-1.63c-.19-.5-.47-.91-.86-1.22-.39-.31-.88-.47-1.48-.47s-1.09,.16-1.48,.47c-.39,.31-.67,.72-.86,1.22-.19,.5-.28,1.05-.28,1.63s.09,1.12,.28,1.62,.47,.9,.86,1.21c.39,.31,.88,.46,1.48,.46Z"/><path d="M284.3,180.45v1.14h-4.52v-1.14h4.52Zm-3.2-2.09h1.34v8.32c0,.38,.06,.66,.17,.85,.11,.19,.25,.31,.43,.38,.18,.06,.36,.09,.56,.09,.15,0,.27,0,.36-.03,.09-.02,.17-.03,.23-.04l.27,1.2c-.09,.03-.22,.07-.38,.11-.16,.04-.37,.05-.62,.05-.38,0-.75-.08-1.11-.24-.36-.16-.66-.41-.9-.74-.24-.33-.35-.75-.35-1.26v-8.68Z"/><path d="M287.01,179c-.26,0-.49-.09-.67-.27-.19-.18-.28-.39-.28-.64s.09-.46,.28-.64c.19-.18,.41-.27,.67-.27s.49,.09,.67,.27c.19,.18,.28,.39,.28,.64s-.09,.46-.28,.64c-.19,.18-.41,.27-.67,.27Zm-.68,10.18v-8.73h1.34v8.73h-1.34Z"/><path d="M294.62,189.18v-8.73h1.29v1.32h.09c.16-.43,.45-.78,.86-1.05,.42-.27,.89-.4,1.41-.4,.1,0,.22,0,.37,0,.15,0,.26,0,.33,.02v1.36s-.15-.03-.31-.05-.33-.04-.51-.04c-.42,0-.8,.09-1.13,.26-.33,.18-.59,.42-.78,.73-.19,.31-.29,.66-.29,1.05v5.52h-1.34Z"/><path d="M304.12,189.36c-.79,0-1.48-.19-2.07-.56-.59-.38-1.06-.9-1.39-1.57-.33-.67-.5-1.46-.5-2.36s.17-1.7,.5-2.38c.33-.68,.79-1.2,1.39-1.58,.59-.38,1.28-.56,2.07-.56s1.48,.19,2.07,.56,1.05,.9,1.39,1.58c.33,.68,.5,1.47,.5,2.38s-.17,1.69-.5,2.36c-.33,.67-.79,1.2-1.39,1.57s-1.28,.56-2.07,.56Zm0-1.2c.6,0,1.09-.15,1.48-.46,.39-.31,.67-.71,.86-1.21,.19-.5,.28-1.04,.28-1.62s-.09-1.13-.28-1.63c-.19-.5-.47-.91-.86-1.22-.39-.31-.88-.47-1.48-.47s-1.09,.16-1.48,.47c-.39,.31-.67,.72-.86,1.22-.19,.5-.28,1.05-.28,1.63s.09,1.12,.28,1.62,.47,.9,.86,1.21c.39,.31,.88,.46,1.48,.46Z"/><path d="M310.12,189.18v-11.64h1.34v11.64h-1.34Zm1.25-3.18l-.02-1.66h.27l3.82-3.89h1.66l-4.07,4.11h-.11l-1.54,1.43Zm4.29,3.18l-3.41-4.32,.96-.93,4.16,5.25h-1.71Z"/><path d="M324.33,185.61v-5.16h1.34v8.73h-1.34v-1.48h-.09c-.21,.44-.52,.82-.96,1.13s-.98,.46-1.64,.46c-.55,0-1.03-.12-1.46-.36s-.76-.6-1-1.09c-.24-.49-.36-1.1-.36-1.84v-5.55h1.34v5.46c0,.64,.18,1.14,.54,1.52,.36,.38,.82,.57,1.37,.57,.33,0,.67-.08,1.02-.26s.64-.43,.88-.78,.36-.8,.36-1.35Z"/><path d="M336.69,177.54v11.64h-1.41v-10.16h-.07l-2.84,1.89v-1.43l2.91-1.93h1.41Z"/><path d="M343.73,177.38c.48,0,.95,.09,1.43,.27,.48,.18,.91,.47,1.31,.88,.39,.41,.71,.97,.95,1.68,.24,.71,.36,1.6,.36,2.66s-.1,1.95-.29,2.75c-.2,.8-.48,1.48-.84,2.03-.37,.55-.81,.97-1.33,1.25-.52,.28-1.11,.43-1.76,.43s-1.23-.13-1.74-.39c-.51-.26-.93-.62-1.25-1.08-.32-.46-.53-1-.62-1.62h1.39c.12,.53,.37,.97,.75,1.32,.37,.35,.87,.52,1.48,.52,.9,0,1.61-.39,2.13-1.18,.52-.78,.78-1.89,.78-3.32h-.09c-.21,.32-.46,.59-.76,.82-.29,.23-.62,.41-.97,.53-.36,.12-.74,.19-1.14,.19-.67,0-1.28-.17-1.83-.5-.55-.33-1-.79-1.33-1.37-.33-.58-.5-1.25-.5-2s.16-1.36,.48-1.96,.77-1.07,1.35-1.42c.58-.35,1.27-.52,2.05-.51Zm0,1.25c-.48,0-.91,.12-1.29,.36-.38,.24-.68,.55-.9,.96-.22,.4-.33,.84-.33,1.33s.11,.93,.32,1.32,.51,.71,.88,.94c.37,.23,.8,.35,1.28,.35,.36,0,.7-.07,1.01-.21,.31-.14,.58-.34,.82-.58,.23-.25,.42-.53,.55-.85,.13-.32,.2-.65,.2-.99,0-.46-.11-.88-.33-1.28-.22-.4-.52-.72-.9-.97-.38-.25-.81-.37-1.3-.37Z"/><path d="M353.71,177.38c.48,0,.95,.09,1.43,.27,.48,.18,.91,.47,1.31,.88,.39,.41,.71,.97,.95,1.68,.24,.71,.36,1.6,.36,2.66s-.1,1.95-.29,2.75c-.2,.8-.48,1.48-.84,2.03-.37,.55-.81,.97-1.33,1.25-.52,.28-1.11,.43-1.76,.43s-1.23-.13-1.74-.39c-.51-.26-.93-.62-1.25-1.08-.32-.46-.53-1-.62-1.62h1.39c.12,.53,.37,.97,.75,1.32,.37,.35,.87,.52,1.48,.52,.9,0,1.61-.39,2.13-1.18,.52-.78,.78-1.89,.78-3.32h-.09c-.21,.32-.46,.59-.76,.82-.29,.23-.62,.41-.97,.53-.36,.12-.74,.19-1.14,.19-.67,0-1.28-.17-1.83-.5-.55-.33-1-.79-1.33-1.37-.33-.58-.5-1.25-.5-2s.16-1.36,.48-1.96,.77-1.07,1.35-1.42c.58-.35,1.27-.52,2.05-.51Zm0,1.25c-.48,0-.91,.12-1.29,.36-.38,.24-.68,.55-.9,.96-.22,.4-.33,.84-.33,1.33s.11,.93,.32,1.32,.51,.71,.88,.94c.37,.23,.8,.35,1.28,.35,.36,0,.7-.07,1.01-.21,.31-.14,.58-.34,.82-.58,.23-.25,.42-.53,.55-.85,.13-.32,.2-.65,.2-.99,0-.46-.11-.88-.33-1.28-.22-.4-.52-.72-.9-.97-.38-.25-.81-.37-1.3-.37Z"/><path d="M363.78,189.34c-.86,0-1.58-.23-2.19-.7s-1.06-1.15-1.38-2.04c-.32-.89-.48-1.97-.48-3.24s.16-2.33,.48-3.22c.32-.89,.78-1.57,1.39-2.04,.6-.47,1.33-.71,2.18-.71s1.58,.24,2.18,.71c.6,.47,1.07,1.15,1.39,2.04,.32,.89,.48,1.97,.48,3.22s-.16,2.34-.48,3.24c-.32,.89-.78,1.57-1.38,2.04s-1.33,.7-2.19,.7Zm0-1.25c.85,0,1.51-.41,1.98-1.23s.7-1.98,.7-3.5c0-1.01-.11-1.87-.32-2.57-.21-.71-.52-1.25-.92-1.62-.4-.37-.88-.56-1.44-.56-.84,0-1.5,.41-1.97,1.24-.47,.83-.71,2-.71,3.51,0,1.01,.11,1.86,.32,2.57,.21,.7,.52,1.24,.92,1.61,.4,.37,.88,.55,1.45,.55Z"/></g><g><path class="m" d="M345.41,219.46v1.92h-5.31v-1.92h5.31Z"/><path class="m" d="M352.51,213.56v11.64h-2.46v-9.3h-.07l-2.67,1.67v-2.18l2.88-1.82h2.31Z"/><path class="m" d="M359.84,225.46c-.98,0-1.82-.24-2.52-.72-.7-.48-1.24-1.17-1.62-2.07s-.56-1.99-.56-3.27c0-1.27,.19-2.35,.57-3.24,.38-.89,.92-1.58,1.62-2.04,.7-.47,1.54-.7,2.51-.7s1.81,.24,2.51,.71c.7,.47,1.24,1.15,1.62,2.04,.38,.89,.57,1.97,.56,3.24,0,1.28-.19,2.37-.56,3.27-.38,.91-.92,1.6-1.62,2.07-.7,.48-1.54,.72-2.52,.72Zm0-2.04c.67,0,1.2-.33,1.6-1.01,.4-.67,.59-1.68,.59-3.02,0-.88-.09-1.62-.27-2.21-.18-.59-.43-1.03-.76-1.32-.33-.3-.71-.44-1.16-.44-.66,0-1.19,.33-1.59,.99-.4,.66-.6,1.66-.6,2.98,0,.89,.09,1.64,.27,2.24,.18,.6,.43,1.04,.76,1.34,.33,.3,.72,.45,1.16,.45Z"/><path class="m" d="M370.85,225.46c-.98,0-1.82-.24-2.52-.72-.7-.48-1.24-1.17-1.62-2.07s-.56-1.99-.56-3.27c0-1.27,.19-2.35,.57-3.24,.38-.89,.92-1.58,1.62-2.04,.7-.47,1.54-.7,2.51-.7s1.81,.24,2.51,.71c.7,.47,1.24,1.15,1.62,2.04,.38,.89,.57,1.97,.56,3.24,0,1.28-.19,2.37-.56,3.27-.38,.91-.92,1.6-1.62,2.07-.7,.48-1.54,.72-2.52,.72Zm0-2.04c.67,0,1.2-.33,1.6-1.01,.4-.67,.59-1.68,.59-3.02,0-.88-.09-1.62-.27-2.21-.18-.59-.43-1.03-.76-1.32-.33-.3-.71-.44-1.16-.44-.66,0-1.19,.33-1.59,.99-.4,.66-.6,1.66-.6,2.98,0,.89,.09,1.64,.27,2.24,.18,.6,.43,1.04,.76,1.34,.33,.3,.72,.45,1.16,.45Z"/><path class="m" d="M381.41,216.36v-.61c0-.47,.1-.9,.3-1.29,.2-.39,.49-.71,.87-.94,.38-.23,.84-.35,1.38-.35s1.03,.12,1.41,.35c.38,.24,.67,.55,.86,.94,.2,.39,.29,.82,.29,1.29v.61c0,.47-.1,.9-.3,1.29-.2,.39-.49,.7-.87,.93-.38,.23-.85,.35-1.4,.35s-1.02-.12-1.4-.36-.67-.55-.86-.94c-.2-.39-.29-.82-.29-1.28Zm.75,8.84l8-11.64h1.49l-8,11.64h-1.49Zm.92-9.45v.61c0,.28,.07,.53,.2,.77,.13,.24,.36,.35,.7,.35s.59-.12,.71-.35c.13-.23,.19-.49,.19-.77v-.61c0-.28-.06-.53-.18-.77-.12-.24-.36-.36-.72-.36-.34,0-.57,.12-.7,.36-.13,.24-.19,.5-.19,.77Zm4.31,7.27v-.61c0-.47,.1-.89,.3-1.29,.2-.39,.49-.71,.87-.94,.38-.24,.85-.36,1.39-.36s1.03,.12,1.41,.35c.38,.23,.67,.55,.86,.94,.2,.39,.29,.82,.29,1.29v.61c0,.47-.1,.89-.3,1.29-.2,.39-.49,.71-.87,.94-.38,.24-.85,.36-1.4,.36s-1.02-.12-1.4-.36c-.38-.24-.67-.55-.86-.94-.2-.39-.3-.82-.3-1.29Zm1.65-.61v.61c0,.27,.07,.52,.2,.76,.13,.24,.37,.36,.71,.36s.58-.12,.71-.35c.13-.23,.19-.49,.19-.77v-.61c0-.28-.06-.53-.18-.77-.12-.24-.36-.36-.72-.36s-.58,.12-.71,.36c-.13,.24-.2,.5-.2,.77Z"/><path class="n" d="M314.23,237.29c0-1.43,.19-2.75,.56-3.95,.37-1.2,.91-2.31,1.6-3.32h1.18c-.27,.38-.53,.84-.76,1.38-.24,.55-.44,1.15-.62,1.8s-.32,1.33-.42,2.03-.15,1.38-.15,2.06c0,.9,.09,1.82,.26,2.74,.17,.93,.41,1.79,.7,2.59,.3,.79,.62,1.44,.99,1.94h-1.18c-.69-1.01-1.23-2.12-1.6-3.32-.37-1.2-.56-2.52-.56-3.95Z"/><path class="n" d="M319.55,242.2v-11.64h1.34v11.64h-1.34Zm1.25-3.18l-.02-1.66h.27l3.82-3.89h1.66l-4.07,4.11h-.11l-1.54,1.43Zm4.29,3.18l-3.41-4.32,.96-.93,4.16,5.25h-1.71Z"/><path class="n" d="M329.59,230.56v11.64h-1.34v-11.64h1.34Z"/><path class="n" d="M332.73,232.02c-.26,0-.49-.09-.67-.27-.19-.18-.28-.39-.28-.64s.09-.46,.28-.64c.19-.18,.41-.27,.67-.27s.49,.09,.67,.27c.19,.18,.28,.39,.28,.64s-.09,.46-.28,.64c-.19,.18-.41,.27-.67,.27Zm-.68,10.18v-8.73h1.34v8.73h-1.34Z"/><path class="n" d="M335.84,242.2v-8.73h1.29v1.36h.11c.18-.47,.47-.83,.88-1.09,.41-.26,.89-.39,1.46-.39s1.06,.13,1.44,.39c.38,.26,.68,.62,.9,1.09h.09c.22-.45,.56-.81,1.01-1.08,.45-.27,.98-.4,1.61-.4,.78,0,1.42,.24,1.92,.73,.5,.49,.74,1.24,.74,2.27v5.84h-1.34v-5.84c0-.64-.18-1.1-.53-1.38s-.77-.42-1.24-.42c-.61,0-1.09,.18-1.43,.55-.34,.37-.5,.84-.5,1.4v5.68h-1.36v-5.98c0-.5-.16-.9-.48-1.2-.32-.3-.74-.46-1.24-.46-.35,0-.67,.09-.97,.28-.3,.19-.54,.44-.73,.77-.18,.33-.28,.71-.28,1.13v5.45h-1.34Z"/><path class="n" d="M352.32,242.4c-.55,0-1.06-.1-1.51-.31-.45-.21-.81-.52-1.07-.92-.26-.4-.4-.88-.4-1.45,0-.5,.1-.91,.29-1.22,.2-.31,.46-.56,.79-.74,.33-.18,.69-.31,1.09-.4s.8-.16,1.21-.21c.53-.07,.96-.12,1.29-.16,.33-.04,.57-.1,.73-.18,.15-.09,.23-.24,.23-.45v-.05c0-.56-.15-1-.46-1.31s-.77-.47-1.38-.47-1.14,.14-1.5,.42c-.36,.28-.62,.58-.77,.9l-1.27-.46c.23-.53,.53-.94,.91-1.24,.38-.3,.8-.51,1.25-.62,.45-.12,.9-.18,1.34-.18,.28,0,.6,.03,.97,.1,.37,.07,.72,.2,1.06,.41,.34,.2,.63,.51,.85,.93,.23,.41,.34,.97,.34,1.66v5.75h-1.34v-1.18h-.07c-.09,.19-.24,.39-.46,.61s-.49,.4-.85,.55c-.35,.15-.78,.23-1.29,.23Zm.2-1.2c.53,0,.98-.1,1.34-.31s.64-.48,.83-.81c.19-.33,.28-.68,.28-1.04v-1.23c-.06,.07-.18,.13-.37,.18-.19,.06-.41,.1-.66,.14s-.49,.07-.72,.1c-.23,.03-.42,.05-.57,.07-.35,.05-.67,.12-.97,.22-.3,.1-.54,.25-.73,.45s-.28,.47-.28,.81c0,.47,.17,.82,.52,1.05,.35,.24,.79,.36,1.32,.36Z"/><path class="n" d="M362.57,233.47v1.14h-4.52v-1.14h4.52Zm-3.2-2.09h1.34v8.32c0,.38,.06,.66,.17,.85,.11,.19,.25,.31,.43,.38,.18,.06,.36,.09,.56,.09,.15,0,.27,0,.36-.03,.09-.02,.17-.03,.23-.04l.27,1.2c-.09,.03-.22,.07-.38,.11-.16,.04-.37,.05-.62,.05-.38,0-.75-.08-1.11-.24-.36-.16-.66-.41-.9-.74-.24-.33-.35-.75-.35-1.26v-8.68Z"/><path class="n" d="M365.27,232.02c-.26,0-.49-.09-.67-.27-.19-.18-.28-.39-.28-.64s.09-.46,.28-.64c.19-.18,.41-.27,.67-.27s.49,.09,.67,.27c.19,.18,.28,.39,.28,.64s-.09,.46-.28,.64c-.19,.18-.41,.27-.67,.27Zm-.68,10.18v-8.73h1.34v8.73h-1.34Z"/><path class="n" d="M371.93,242.38c-.82,0-1.52-.19-2.11-.58-.59-.39-1.05-.92-1.36-1.6-.32-.68-.48-1.45-.48-2.32s.16-1.67,.49-2.35c.33-.68,.79-1.21,1.38-1.6,.59-.38,1.28-.58,2.07-.58,.61,0,1.17,.11,1.66,.34s.9,.55,1.21,.95c.31,.41,.51,.89,.58,1.43h-1.34c-.1-.4-.33-.75-.68-1.06-.35-.31-.82-.46-1.41-.46-.52,0-.98,.14-1.37,.41-.39,.27-.7,.65-.92,1.14s-.33,1.07-.33,1.72,.11,1.26,.32,1.76c.21,.5,.52,.89,.91,1.17,.39,.28,.85,.42,1.38,.42,.35,0,.67-.06,.95-.18,.28-.12,.52-.3,.72-.52,.2-.23,.34-.5,.42-.82h1.34c-.08,.52-.26,.98-.56,1.39-.3,.41-.69,.74-1.18,.98-.49,.24-1.05,.36-1.7,.36Z"/><path class="n" d="M377.32,242.2v-11.64h1.34v11.64h-1.34Zm1.25-3.18l-.02-1.66h.27l3.82-3.89h1.66l-4.07,4.11h-.11l-1.54,1.43Zm4.29,3.18l-3.41-4.32,.96-.93,4.16,5.25h-1.71Z"/><path class="n" d="M388.59,242.4c-.55,0-1.06-.1-1.51-.31-.45-.21-.81-.52-1.07-.92-.26-.4-.4-.88-.4-1.45,0-.5,.1-.91,.29-1.22,.2-.31,.46-.56,.79-.74,.33-.18,.69-.31,1.09-.4s.8-.16,1.21-.21c.53-.07,.96-.12,1.29-.16,.33-.04,.57-.1,.73-.18,.15-.09,.23-.24,.23-.45v-.05c0-.56-.15-1-.46-1.31s-.77-.47-1.38-.47-1.14,.14-1.5,.42c-.36,.28-.62,.58-.77,.9l-1.27-.46c.23-.53,.53-.94,.91-1.24,.38-.3,.8-.51,1.25-.62,.45-.12,.9-.18,1.34-.18,.28,0,.6,.03,.97,.1,.37,.07,.72,.2,1.06,.41,.34,.2,.63,.51,.85,.93,.23,.41,.34,.97,.34,1.66v5.75h-1.34v-1.18h-.07c-.09,.19-.24,.39-.46,.61s-.49,.4-.85,.55c-.35,.15-.78,.23-1.29,.23Zm.2-1.2c.53,0,.98-.1,1.34-.31s.64-.48,.83-.81c.19-.33,.28-.68,.28-1.04v-1.23c-.06,.07-.18,.13-.37,.18-.19,.06-.41,.1-.66,.14s-.49,.07-.72,.1c-.23,.03-.42,.05-.57,.07-.35,.05-.67,.12-.97,.22-.3,.1-.54,.25-.73,.45s-.28,.47-.28,.81c0,.47,.17,.82,.52,1.05,.35,.24,.79,.36,1.32,.36Zm.05-8.91l1.39-2.64h1.57l-1.77,2.64h-1.18Z"/><path class="n" d="M319.39,253.95v5.25h-1.34v-8.73h1.29v1.36h.11c.2-.44,.51-.8,.93-1.07,.42-.27,.95-.41,1.61-.41,.59,0,1.11,.12,1.55,.36,.44,.24,.79,.6,1.03,1.09,.25,.49,.37,1.1,.37,1.84v5.55h-1.34v-5.45c0-.69-.18-1.22-.53-1.61-.36-.38-.84-.58-1.47-.58-.43,0-.81,.09-1.15,.28-.33,.19-.6,.46-.79,.81-.19,.36-.29,.79-.29,1.3Z"/><path class="n" d="M331.07,259.38c-.84,0-1.57-.19-2.17-.56-.61-.37-1.08-.9-1.4-1.57-.33-.67-.49-1.46-.49-2.35s.16-1.68,.49-2.37c.33-.68,.79-1.22,1.38-1.6,.59-.38,1.28-.58,2.07-.58,.45,0,.9,.08,1.35,.23s.85,.4,1.21,.74c.36,.34,.65,.79,.87,1.34s.32,1.24,.32,2.06v.57h-6.73v-1.16h5.36c0-.49-.1-.93-.29-1.32-.2-.39-.47-.69-.83-.91-.36-.22-.78-.34-1.26-.34-.53,0-1,.13-1.38,.4-.39,.26-.69,.6-.89,1.03-.21,.42-.31,.87-.31,1.35v.77c0,.66,.11,1.22,.34,1.67,.23,.46,.55,.8,.96,1.04,.41,.24,.88,.36,1.43,.36,.35,0,.67-.05,.96-.15,.29-.1,.53-.25,.74-.46,.21-.2,.37-.46,.48-.76l1.29,.36c-.14,.44-.37,.82-.69,1.16-.32,.33-.72,.59-1.19,.77-.47,.18-1.01,.28-1.6,.28Z"/><path class="n" d="M342.23,255.63v-5.16h1.34v8.73h-1.34v-1.48h-.09c-.21,.44-.52,.82-.96,1.13s-.98,.46-1.64,.46c-.55,0-1.03-.12-1.46-.36s-.76-.6-1-1.09c-.24-.49-.36-1.1-.36-1.84v-5.55h1.34v5.46c0,.64,.18,1.14,.54,1.52,.36,.38,.82,.57,1.37,.57,.33,0,.67-.08,1.02-.26s.64-.43,.88-.78,.36-.8,.36-1.35Z"/><path class="n" d="M349.82,250.47v1.14h-4.52v-1.14h4.52Zm-3.2-2.09h1.34v8.32c0,.38,.06,.66,.17,.85,.11,.19,.25,.31,.43,.38,.18,.06,.36,.09,.56,.09,.15,0,.27,0,.36-.03,.09-.02,.17-.03,.23-.04l.27,1.2c-.09,.03-.22,.07-.38,.11-.16,.04-.37,.05-.62,.05-.38,0-.75-.08-1.11-.24-.36-.16-.66-.41-.9-.74-.24-.33-.35-.75-.35-1.26v-8.68Z"/><path class="n" d="M351.84,259.2v-8.73h1.29v1.32h.09c.16-.43,.45-.78,.86-1.05,.42-.27,.89-.4,1.41-.4,.1,0,.22,0,.37,0,.15,0,.26,0,.33,.02v1.36s-.15-.03-.31-.05-.33-.04-.51-.04c-.42,0-.8,.09-1.13,.26-.33,.18-.59,.42-.78,.73-.19,.31-.29,.66-.29,1.05v5.52h-1.34Z"/><path class="n" d="M360.37,259.4c-.55,0-1.06-.1-1.51-.31-.45-.21-.81-.52-1.07-.92-.26-.4-.4-.88-.4-1.45,0-.5,.1-.91,.29-1.22,.2-.31,.46-.56,.79-.74,.33-.18,.69-.31,1.09-.4s.8-.16,1.21-.21c.53-.07,.96-.12,1.29-.16,.33-.04,.57-.1,.73-.18,.15-.09,.23-.24,.23-.45v-.05c0-.56-.15-1-.46-1.31s-.77-.47-1.38-.47-1.14,.14-1.5,.42c-.36,.28-.62,.58-.77,.9l-1.27-.46c.23-.53,.53-.94,.91-1.24,.38-.3,.8-.51,1.25-.62,.45-.12,.9-.18,1.34-.18,.28,0,.6,.03,.97,.1,.37,.07,.72,.2,1.06,.41,.34,.2,.63,.51,.85,.93,.23,.41,.34,.97,.34,1.66v5.75h-1.34v-1.18h-.07c-.09,.19-.24,.39-.46,.61s-.49,.4-.85,.55c-.35,.15-.78,.23-1.29,.23Zm.2-1.2c.53,0,.98-.1,1.34-.31s.64-.48,.83-.81c.19-.33,.28-.68,.28-1.04v-1.23c-.06,.07-.18,.13-.37,.18-.19,.06-.41,.1-.66,.14s-.49,.07-.72,.1c-.23,.03-.42,.05-.57,.07-.35,.05-.67,.12-.97,.22-.3,.1-.54,.25-.73,.45s-.28,.47-.28,.81c0,.47,.17,.82,.52,1.05,.35,.24,.79,.36,1.32,.36Z"/><path class="n" d="M368.16,247.56v11.64h-1.34v-11.64h1.34Z"/><path class="n" d="M371.3,249.02c-.26,0-.49-.09-.67-.27-.19-.18-.28-.39-.28-.64s.09-.46,.28-.64c.19-.18,.41-.27,.67-.27s.49,.09,.67,.27c.19,.18,.28,.39,.28,.64s-.09,.46-.28,.64c-.19,.18-.41,.27-.67,.27Zm-.68,10.18v-8.73h1.34v8.73h-1.34Z"/><path class="n" d="M378.21,250.47v1.14h-4.52v-1.14h4.52Zm-3.2-2.09h1.34v8.32c0,.38,.06,.66,.17,.85,.11,.19,.25,.31,.43,.38,.18,.06,.36,.09,.56,.09,.15,0,.27,0,.36-.03,.09-.02,.17-.03,.23-.04l.27,1.2c-.09,.03-.22,.07-.38,.11-.16,.04-.37,.05-.62,.05-.38,0-.75-.08-1.11-.24-.36-.16-.66-.41-.9-.74-.24-.33-.35-.75-.35-1.26v-8.68Z"/><path class="n" d="M382.8,259.4c-.55,0-1.06-.1-1.51-.31-.45-.21-.81-.52-1.07-.92-.26-.4-.4-.88-.4-1.45,0-.5,.1-.91,.29-1.22,.2-.31,.46-.56,.79-.74,.33-.18,.69-.31,1.09-.4s.8-.16,1.21-.21c.53-.07,.96-.12,1.29-.16,.33-.04,.57-.1,.73-.18,.15-.09,.23-.24,.23-.45v-.05c0-.56-.15-1-.46-1.31s-.77-.47-1.38-.47-1.14,.14-1.5,.42c-.36,.28-.62,.58-.77,.9l-1.27-.46c.23-.53,.53-.94,.91-1.24,.38-.3,.8-.51,1.25-.62,.45-.12,.9-.18,1.34-.18,.28,0,.6,.03,.97,.1,.37,.07,.72,.2,1.06,.41,.34,.2,.63,.51,.85,.93,.23,.41,.34,.97,.34,1.66v5.75h-1.34v-1.18h-.07c-.09,.19-.24,.39-.46,.61s-.49,.4-.85,.55c-.35,.15-.78,.23-1.29,.23Zm.2-1.2c.53,0,.98-.1,1.34-.31s.64-.48,.83-.81c.19-.33,.28-.68,.28-1.04v-1.23c-.06,.07-.18,.13-.37,.18-.19,.06-.41,.1-.66,.14s-.49,.07-.72,.1c-.23,.03-.42,.05-.57,.07-.35,.05-.67,.12-.97,.22-.3,.1-.54,.25-.73,.45s-.28,.47-.28,.81c0,.47,.17,.82,.52,1.05,.35,.24,.79,.36,1.32,.36Z"/><path class="n" d="M392.12,254.29c0,1.43-.19,2.75-.56,3.95-.37,1.2-.91,2.31-1.6,3.32h-1.18c.27-.38,.53-.84,.76-1.38,.24-.55,.44-1.15,.62-1.8,.18-.65,.32-1.33,.42-2.03,.1-.7,.15-1.38,.15-2.06,0-.9-.09-1.82-.26-2.74-.17-.93-.41-1.79-.71-2.58-.29-.8-.62-1.44-.99-1.94h1.18c.69,1.01,1.23,2.12,1.6,3.32,.37,1.2,.56,2.52,.56,3.95Z"/><path d="M296.96,276.38c-.73,0-1.37-.18-1.93-.55s-.99-.89-1.31-1.57-.47-1.48-.47-2.4,.16-1.71,.47-2.39c.31-.67,.75-1.19,1.31-1.56,.56-.37,1.21-.55,1.94-.55,.57,0,1.02,.09,1.35,.28,.33,.19,.59,.4,.76,.64,.18,.24,.31,.43,.41,.58h.11v-4.3h1.34v11.64h-1.29v-1.34h-.16c-.1,.16-.24,.36-.42,.6-.18,.24-.44,.45-.78,.64s-.79,.28-1.35,.28Zm.18-1.2c.54,0,.99-.14,1.36-.42s.65-.67,.85-1.18,.29-1.08,.29-1.74-.09-1.22-.28-1.71c-.19-.49-.47-.87-.84-1.15-.37-.27-.83-.41-1.38-.41s-1.04,.15-1.42,.43c-.38,.29-.66,.68-.85,1.18s-.28,1.05-.28,1.66,.1,1.18,.29,1.69c.19,.5,.47,.91,.85,1.2,.38,.3,.85,.45,1.41,.45Z"/><path d="M307.14,276.38c-.79,0-1.48-.19-2.07-.56-.59-.38-1.06-.9-1.39-1.57-.33-.67-.5-1.46-.5-2.36s.17-1.7,.5-2.38c.33-.68,.79-1.2,1.39-1.58,.59-.38,1.28-.56,2.07-.56s1.48,.19,2.07,.56,1.05,.9,1.39,1.58c.33,.68,.5,1.47,.5,2.38s-.17,1.69-.5,2.36c-.33,.67-.79,1.2-1.39,1.57s-1.28,.56-2.07,.56Zm0-1.2c.6,0,1.09-.15,1.48-.46,.39-.31,.67-.71,.86-1.21,.19-.5,.28-1.04,.28-1.62s-.09-1.13-.28-1.63c-.19-.5-.47-.91-.86-1.22-.39-.31-.88-.47-1.48-.47s-1.09,.16-1.48,.47c-.39,.31-.67,.72-.86,1.22-.19,.5-.28,1.05-.28,1.63s.09,1.12,.28,1.62,.47,.9,.86,1.21c.39,.31,.88,.46,1.48,.46Z"/><path d="M317.64,276.2v-8.73h1.29v1.32h.09c.16-.43,.45-.78,.86-1.05,.42-.27,.89-.4,1.41-.4,.1,0,.22,0,.37,0,.15,0,.26,0,.33,.02v1.36s-.15-.03-.31-.05-.33-.04-.51-.04c-.42,0-.8,.09-1.13,.26-.33,.18-.59,.42-.78,.73-.19,.31-.29,.66-.29,1.05v5.52h-1.34Z"/><path d="M327.14,276.38c-.79,0-1.48-.19-2.07-.56-.59-.38-1.06-.9-1.39-1.57-.33-.67-.5-1.46-.5-2.36s.17-1.7,.5-2.38c.33-.68,.79-1.2,1.39-1.58,.59-.38,1.28-.56,2.07-.56s1.48,.19,2.07,.56,1.05,.9,1.39,1.58c.33,.68,.5,1.47,.5,2.38s-.17,1.69-.5,2.36c-.33,.67-.79,1.2-1.39,1.57s-1.28,.56-2.07,.56Zm0-1.2c.6,0,1.09-.15,1.48-.46,.39-.31,.67-.71,.86-1.21,.19-.5,.28-1.04,.28-1.62s-.09-1.13-.28-1.63c-.19-.5-.47-.91-.86-1.22-.39-.31-.88-.47-1.48-.47s-1.09,.16-1.48,.47c-.39,.31-.67,.72-.86,1.22-.19,.5-.28,1.05-.28,1.63s.09,1.12,.28,1.62,.47,.9,.86,1.21c.39,.31,.88,.46,1.48,.46Z"/><path d="M333.14,276.2v-11.64h1.34v11.64h-1.34Zm1.25-3.18l-.02-1.66h.27l3.82-3.89h1.66l-4.07,4.11h-.11l-1.54,1.43Zm4.29,3.18l-3.41-4.32,.96-.93,4.16,5.25h-1.71Z"/><path d="M347.34,272.63v-5.16h1.34v8.73h-1.34v-1.48h-.09c-.21,.44-.52,.82-.96,1.13s-.98,.46-1.64,.46c-.55,0-1.03-.12-1.46-.36s-.76-.6-1-1.09c-.24-.49-.36-1.1-.36-1.84v-5.55h1.34v5.46c0,.64,.18,1.14,.54,1.52,.36,.38,.82,.57,1.37,.57,.33,0,.67-.08,1.02-.26s.64-.43,.88-.78,.36-.8,.36-1.35Z"/><path d="M355.62,276.2v-1.02l3.84-4.21c.45-.49,.82-.92,1.11-1.29,.29-.37,.51-.71,.65-1.03,.14-.32,.21-.66,.21-1.02,0-.41-.1-.76-.29-1.06-.2-.3-.46-.53-.8-.69-.34-.16-.72-.24-1.14-.24-.45,0-.84,.09-1.17,.28-.33,.18-.59,.44-.77,.77-.18,.33-.27,.72-.27,1.16h-1.34c0-.68,.16-1.28,.47-1.8,.31-.51,.74-.92,1.29-1.2,.54-.29,1.15-.43,1.83-.43s1.29,.14,1.81,.43c.53,.29,.94,.68,1.24,1.16,.3,.49,.45,1.03,.45,1.63,0,.43-.08,.85-.23,1.25-.15,.41-.42,.86-.79,1.36s-.9,1.1-1.57,1.82l-2.61,2.8v.09h5.41v1.25h-7.34Z"/><path d="M369.09,276.36c-.86,0-1.58-.23-2.19-.7s-1.06-1.15-1.38-2.04c-.32-.89-.48-1.97-.48-3.24s.16-2.33,.48-3.22c.32-.89,.78-1.57,1.39-2.04,.6-.47,1.33-.71,2.18-.71s1.58,.24,2.18,.71c.6,.47,1.07,1.15,1.39,2.04,.32,.89,.48,1.97,.48,3.22s-.16,2.34-.48,3.24c-.32,.89-.78,1.57-1.38,2.04s-1.33,.7-2.19,.7Zm0-1.25c.85,0,1.51-.41,1.98-1.23s.7-1.98,.7-3.5c0-1.01-.11-1.87-.32-2.57-.21-.71-.52-1.25-.92-1.62-.4-.37-.88-.56-1.44-.56-.84,0-1.5,.41-1.97,1.24-.47,.83-.71,2-.71,3.51,0,1.01,.11,1.86,.32,2.57,.21,.7,.52,1.24,.92,1.61,.4,.37,.88,.55,1.45,.55Z"/><path d="M378.93,276.36c-.67,0-1.27-.13-1.8-.4-.53-.27-.96-.63-1.28-1.09-.32-.46-.5-.99-.53-1.58h1.36c.05,.53,.29,.96,.72,1.3s.94,.51,1.53,.51c.48,0,.9-.11,1.28-.33s.67-.53,.88-.92c.21-.39,.32-.84,.32-1.33s-.11-.96-.33-1.36c-.22-.4-.53-.71-.91-.95-.39-.23-.83-.35-1.32-.35-.36,0-.72,.05-1.1,.16-.38,.11-.68,.25-.93,.43l-1.32-.16,.7-5.73h6.05v1.25h-4.86l-.41,3.43h.07c.24-.19,.54-.35,.9-.47,.36-.12,.73-.19,1.12-.19,.71,0,1.35,.17,1.91,.51,.56,.34,1,.8,1.32,1.39,.32,.59,.48,1.26,.48,2.01s-.17,1.4-.5,1.99-.79,1.04-1.37,1.38c-.58,.33-1.24,.5-1.98,.5Z"/><path d="M388.82,276.36c-.86,0-1.58-.23-2.19-.7s-1.06-1.15-1.38-2.04c-.32-.89-.48-1.97-.48-3.24s.16-2.33,.48-3.22c.32-.89,.78-1.57,1.39-2.04,.6-.47,1.33-.71,2.18-.71s1.58,.24,2.18,.71c.6,.47,1.07,1.15,1.39,2.04,.32,.89,.48,1.97,.48,3.22s-.16,2.34-.48,3.24c-.32,.89-.78,1.57-1.38,2.04s-1.33,.7-2.19,.7Zm0-1.25c.85,0,1.51-.41,1.98-1.23s.7-1.98,.7-3.5c0-1.01-.11-1.87-.32-2.57-.21-.71-.52-1.25-.92-1.62-.4-.37-.88-.56-1.44-.56-.84,0-1.5,.41-1.97,1.24-.47,.83-.71,2-.71,3.51,0,1.01,.11,1.86,.32,2.57,.21,.7,.52,1.24,.92,1.61,.4,.37,.88,.55,1.45,.55Z"/></g><line class="c" x1="46.29" y1="177.31" x2="176.08" y2="177.31"/><rect class="m" x="368.9" y="350" width="5.36" height=".73"/><g><line class="e" x1="217.1" y1="216.27" x2="256.83" y2="251.73"/><polygon class="m" points="252.65 253.81 252.5 252.82 257.38 252.12 256.33 247.3 257.31 247.09 258.59 252.96 252.65 253.81"/></g><g><line class="e" x1="272.67" y1="262.3" x2="364.63" y2="346.37"/><polygon class="m" points="360.3 347.94 360.3 346.94 365.23 346.92 364.85 342.01 365.85 341.93 366.31 347.92 360.3 347.94"/></g></g></g></svg>