<?xml version="1.0" encoding="UTF-8"?><svg xmlns="http://www.w3.org/2000/svg" viewBox="0 0 740 359.2"><defs><style>.c{mix-blend-mode:multiply;stroke:#999;}.c,.d,.e,.f,.g,.h{fill:none;stroke-miterlimit:10;}.c,.e,.f,.h{stroke-linecap:round;}.c,.f{stroke-dasharray:0 0 1 4;}.c,.f,.h{stroke-width:.75px;}.d{stroke-linecap:square;}.d,.g{stroke:#bcbec0;}.i{fill:#9d9dce;}.j{fill:#666;}.k{fill:#333;}.l{fill:#adadce;}.m{fill:#203e80;}.e{stroke:#203e80;stroke-dasharray:0 0 0 5;stroke-width:2px;}.f{stroke:#b3b3b3;}.n{isolation:isolate;}.h{stroke:#666;}</style></defs><g class="n"><g id="a"><line class="f" x1="60.4" y1="69.34" x2="62.37" y2="69.34"/><g><rect class="l" x="67.26" y="118.82" width="9.89" height="207.3"/><rect class="l" x="77.15" y="125.27" width="9.89" height="200.84"/><rect class="l" x="87.04" y="128.49" width="9.89" height="197.63"/><rect class="l" x="96.93" y="129.22" width="9.89" height="196.9"/><rect class="l" x="106.81" y="126.77" width="9.89" height="199.35"/><rect class="l" x="116.7" y="122.69" width="9.89" height="203.43"/><rect class="l" x="126.59" y="125.6" width="9.89" height="200.51"/><rect class="l" x="136.48" y="127.13" width="9.89" height="198.98"/><rect class="l" x="146.37" y="130.13" width="9.89" height="195.99"/><rect class="l" x="156.26" y="130.4" width="9.89" height="195.71"/><rect class="l" x="166.15" y="128.34" width="9.89" height="197.78"/><rect class="l" x="176.04" y="129.03" width="9.89" height="197.08"/><rect class="l" x="185.93" y="125.4" width="9.89" height="200.72"/><rect class="l" x="195.82" y="124.95" width="9.89" height="201.16"/><rect class="l" x="205.71" y="125.91" width="9.89" height="200.21"/><rect class="l" x="215.6" y="125.86" width="9.89" height="200.26"/><rect class="l" x="225.49" y="127.05" width="9.89" height="199.07"/><rect class="l" x="235.38" y="131.1" width="9.89" height="195.01"/><rect class="l" x="245.27" y="145.18" width="9.89" height="180.93"/><rect class="l" x="255.16" y="141.32" width="9.89" height="184.8"/><rect class="l" x="265.05" y="145.91" width="9.89" height="180.21"/><rect class="l" x="274.94" y="149.21" width="9.89" height="176.91"/><rect class="l" x="284.83" y="152.88" width="9.89" height="173.24"/><rect class="l" x="294.72" y="158.77" width="9.89" height="167.35"/><rect class="l" x="304.6" y="156.53" width="9.89" height="169.59"/><rect class="l" x="314.49" y="156.05" width="9.89" height="170.06"/><rect class="l" x="324.38" y="154.57" width="9.89" height="171.54"/><rect class="l" x="334.27" y="158.01" width="9.89" height="168.11"/><rect class="l" x="344.16" y="164.73" width="9.89" height="161.39"/><rect class="l" x="354.05" y="181.17" width="9.89" height="144.95"/><rect class="l" x="57.37" y="114.34" width="9.89" height="211.78"/></g><line class="g" x1="61.37" y1="327.11" x2="61.37" y2="333.6"/><line class="g" x1="160.78" y1="327.11" x2="160.78" y2="333.6"/><line class="g" x1="260.18" y1="327.11" x2="260.18" y2="333.6"/><line class="g" x1="359.59" y1="327.11" x2="359.59" y2="333.6"/><g><path class="k" d="M47.98,338.56v11.64h-1.41v-10.16h-.07l-2.84,1.89v-1.43l2.91-1.93h1.41Z"/><path class="k" d="M55.02,338.4c.48,0,.95,.09,1.43,.27,.48,.18,.91,.47,1.31,.88,.39,.41,.71,.97,.95,1.68,.24,.71,.36,1.6,.36,2.66s-.1,1.95-.29,2.75c-.2,.8-.48,1.48-.84,2.03-.37,.55-.81,.97-1.33,1.25-.52,.28-1.11,.43-1.76,.43s-1.23-.13-1.74-.39c-.51-.26-.93-.62-1.25-1.08-.32-.46-.53-1-.62-1.62h1.39c.12,.53,.37,.97,.75,1.32,.37,.35,.87,.52,1.48,.52,.9,0,1.61-.39,2.13-1.18,.52-.78,.78-1.89,.78-3.32h-.09c-.21,.32-.46,.59-.76,.82-.29,.23-.62,.41-.97,.53-.36,.12-.74,.19-1.14,.19-.67,0-1.28-.17-1.83-.5-.55-.33-1-.79-1.33-1.37-.33-.58-.5-1.25-.5-2s.16-1.36,.48-1.96,.77-1.07,1.35-1.42c.58-.35,1.27-.52,2.05-.51Zm0,1.25c-.48,0-.91,.12-1.29,.36-.38,.24-.68,.55-.9,.96-.22,.4-.33,.84-.33,1.33s.11,.93,.32,1.32,.51,.71,.88,.94c.37,.23,.8,.35,1.28,.35,.36,0,.7-.07,1.01-.21,.31-.14,.58-.34,.82-.58,.23-.25,.42-.53,.55-.85,.13-.32,.2-.65,.2-.99,0-.46-.11-.88-.33-1.28-.22-.4-.52-.72-.9-.97-.38-.25-.81-.37-1.3-.37Z"/><path class="k" d="M65,338.4c.48,0,.95,.09,1.43,.27,.48,.18,.91,.47,1.31,.88,.39,.41,.71,.97,.95,1.68,.24,.71,.36,1.6,.36,2.66s-.1,1.95-.29,2.75c-.2,.8-.48,1.48-.84,2.03-.37,.55-.81,.97-1.33,1.25-.52,.28-1.11,.43-1.76,.43s-1.23-.13-1.74-.39c-.51-.26-.93-.62-1.25-1.08-.32-.46-.53-1-.62-1.62h1.39c.12,.53,.37,.97,.75,1.32,.37,.35,.87,.52,1.48,.52,.9,0,1.61-.39,2.13-1.18,.52-.78,.78-1.89,.78-3.32h-.09c-.21,.32-.46,.59-.76,.82-.29,.23-.62,.41-.97,.53-.36,.12-.74,.19-1.14,.19-.67,0-1.28-.17-1.83-.5-.55-.33-1-.79-1.33-1.37-.33-.58-.5-1.25-.5-2s.16-1.36,.48-1.96,.77-1.07,1.35-1.42c.58-.35,1.27-.52,2.05-.51Zm0,1.25c-.48,0-.91,.12-1.29,.36-.38,.24-.68,.55-.9,.96-.22,.4-.33,.84-.33,1.33s.11,.93,.32,1.32,.51,.71,.88,.94c.37,.23,.8,.35,1.28,.35,.36,0,.7-.07,1.01-.21,.31-.14,.58-.34,.82-.58,.23-.25,.42-.53,.55-.85,.13-.32,.2-.65,.2-.99,0-.46-.11-.88-.33-1.28-.22-.4-.52-.72-.9-.97-.38-.25-.81-.37-1.3-.37Z"/><path class="k" d="M75.07,350.35c-.86,0-1.58-.23-2.19-.7s-1.06-1.15-1.38-2.04c-.32-.89-.48-1.97-.48-3.24s.16-2.33,.48-3.22c.32-.89,.78-1.57,1.39-2.04,.6-.47,1.33-.71,2.18-.71s1.58,.24,2.18,.71c.6,.47,1.07,1.15,1.39,2.04,.32,.89,.48,1.97,.48,3.22s-.16,2.34-.48,3.24c-.32,.89-.78,1.57-1.38,2.04s-1.33,.7-2.19,.7Zm0-1.25c.85,0,1.51-.41,1.98-1.23s.7-1.98,.7-3.5c0-1.01-.11-1.87-.32-2.57-.21-.71-.52-1.25-.92-1.62-.4-.37-.88-.56-1.44-.56-.84,0-1.5,.41-1.97,1.24-.47,.83-.71,2-.71,3.51,0,1.01,.11,1.86,.32,2.57,.21,.7,.52,1.24,.92,1.61,.4,.37,.88,.55,1.45,.55Z"/></g><g><path class="k" d="M142.14,350.19v-1.02l3.84-4.21c.45-.49,.82-.92,1.11-1.29,.29-.37,.51-.71,.65-1.03,.14-.32,.21-.66,.21-1.02,0-.41-.1-.76-.29-1.06-.2-.3-.46-.53-.8-.69-.34-.16-.72-.24-1.14-.24-.45,0-.84,.09-1.17,.28-.33,.18-.59,.44-.77,.77-.18,.33-.27,.72-.27,1.16h-1.34c0-.68,.16-1.28,.47-1.8,.31-.51,.74-.92,1.29-1.2,.54-.29,1.15-.43,1.83-.43s1.29,.14,1.81,.43c.53,.29,.94,.68,1.24,1.16,.3,.49,.45,1.03,.45,1.63,0,.43-.08,.85-.23,1.25-.15,.41-.42,.86-.79,1.36s-.9,1.1-1.57,1.82l-2.61,2.8v.09h5.41v1.25h-7.34Z"/><path class="k" d="M155.62,350.35c-.86,0-1.58-.23-2.19-.7s-1.06-1.15-1.38-2.04c-.32-.89-.48-1.97-.48-3.24s.16-2.33,.48-3.22c.32-.89,.78-1.57,1.39-2.04,.6-.47,1.33-.71,2.18-.71s1.58,.24,2.18,.71c.6,.47,1.07,1.15,1.39,2.04,.32,.89,.48,1.97,.48,3.22s-.16,2.34-.48,3.24c-.32,.89-.78,1.57-1.38,2.04s-1.33,.7-2.19,.7Zm0-1.25c.85,0,1.51-.41,1.98-1.23s.7-1.98,.7-3.5c0-1.01-.11-1.87-.32-2.57-.21-.71-.52-1.25-.92-1.62-.4-.37-.88-.56-1.44-.56-.84,0-1.5,.41-1.97,1.24-.47,.83-.71,2-.71,3.51,0,1.01,.11,1.86,.32,2.57,.21,.7,.52,1.24,.92,1.61,.4,.37,.88,.55,1.45,.55Z"/><path class="k" d="M165.62,350.35c-.86,0-1.58-.23-2.19-.7s-1.06-1.15-1.38-2.04c-.32-.89-.48-1.97-.48-3.24s.16-2.33,.48-3.22c.32-.89,.78-1.57,1.39-2.04,.6-.47,1.33-.71,2.18-.71s1.58,.24,2.18,.71c.6,.47,1.07,1.15,1.39,2.04,.32,.89,.48,1.97,.48,3.22s-.16,2.34-.48,3.24c-.32,.89-.78,1.57-1.38,2.04s-1.33,.7-2.19,.7Zm0-1.25c.85,0,1.51-.41,1.98-1.23s.7-1.98,.7-3.5c0-1.01-.11-1.87-.32-2.57-.21-.71-.52-1.25-.92-1.62-.4-.37-.88-.56-1.44-.56-.84,0-1.5,.41-1.97,1.24-.47,.83-.71,2-.71,3.51,0,1.01,.11,1.86,.32,2.57,.21,.7,.52,1.24,.92,1.61,.4,.37,.88,.55,1.45,.55Z"/><path class="k" d="M175.62,350.35c-.86,0-1.58-.23-2.19-.7s-1.06-1.15-1.38-2.04c-.32-.89-.48-1.97-.48-3.24s.16-2.33,.48-3.22c.32-.89,.78-1.57,1.39-2.04,.6-.47,1.33-.71,2.18-.71s1.58,.24,2.18,.71c.6,.47,1.07,1.15,1.39,2.04,.32,.89,.48,1.97,.48,3.22s-.16,2.34-.48,3.24c-.32,.89-.78,1.57-1.38,2.04s-1.33,.7-2.19,.7Zm0-1.25c.85,0,1.51-.41,1.98-1.23s.7-1.98,.7-3.5c0-1.01-.11-1.87-.32-2.57-.21-.71-.52-1.25-.92-1.62-.4-.37-.88-.56-1.44-.56-.84,0-1.5,.41-1.97,1.24-.47,.83-.71,2-.71,3.51,0,1.01,.11,1.86,.32,2.57,.21,.7,.52,1.24,.92,1.61,.4,.37,.88,.55,1.45,.55Z"/></g><g><path class="k" d="M242.83,350.19v-1.02l3.84-4.21c.45-.49,.82-.92,1.11-1.29,.29-.37,.51-.71,.65-1.03,.14-.32,.21-.66,.21-1.02,0-.41-.1-.76-.29-1.06-.2-.3-.46-.53-.8-.69-.34-.16-.72-.24-1.14-.24-.45,0-.84,.09-1.17,.28-.33,.18-.59,.44-.77,.77-.18,.33-.27,.72-.27,1.16h-1.34c0-.68,.16-1.28,.47-1.8,.31-.51,.74-.92,1.29-1.2,.54-.29,1.15-.43,1.83-.43s1.29,.14,1.81,.43c.53,.29,.94,.68,1.24,1.16,.3,.49,.45,1.03,.45,1.63,0,.43-.08,.85-.23,1.25-.15,.41-.42,.86-.79,1.36s-.9,1.1-1.57,1.82l-2.61,2.8v.09h5.41v1.25h-7.34Z"/><path class="k" d="M256.31,350.35c-.86,0-1.58-.23-2.19-.7s-1.06-1.15-1.38-2.04c-.32-.89-.48-1.97-.48-3.24s.16-2.33,.48-3.22c.32-.89,.78-1.57,1.39-2.04,.6-.47,1.33-.71,2.18-.71s1.58,.24,2.18,.71c.6,.47,1.07,1.15,1.39,2.04,.32,.89,.48,1.97,.48,3.22s-.16,2.34-.48,3.24c-.32,.89-.78,1.57-1.38,2.04s-1.33,.7-2.19,.7Zm0-1.25c.85,0,1.51-.41,1.98-1.23s.7-1.98,.7-3.5c0-1.01-.11-1.87-.32-2.57-.21-.71-.52-1.25-.92-1.62-.4-.37-.88-.56-1.44-.56-.84,0-1.5,.41-1.97,1.24-.47,.83-.71,2-.71,3.51,0,1.01,.11,1.86,.32,2.57,.21,.7,.52,1.24,.92,1.61,.4,.37,.88,.55,1.45,.55Z"/><path class="k" d="M266.61,338.56v11.64h-1.41v-10.16h-.07l-2.84,1.89v-1.43l2.91-1.93h1.41Z"/><path class="k" d="M273.74,350.35c-.86,0-1.58-.23-2.19-.7s-1.06-1.15-1.38-2.04c-.32-.89-.48-1.97-.48-3.24s.16-2.33,.48-3.22c.32-.89,.78-1.57,1.39-2.04,.6-.47,1.33-.71,2.18-.71s1.58,.24,2.18,.71c.6,.47,1.07,1.15,1.39,2.04,.32,.89,.48,1.97,.48,3.22s-.16,2.34-.48,3.24c-.32,.89-.78,1.57-1.38,2.04s-1.33,.7-2.19,.7Zm0-1.25c.85,0,1.51-.41,1.98-1.23s.7-1.98,.7-3.5c0-1.01-.11-1.87-.32-2.57-.21-.71-.52-1.25-.92-1.62-.4-.37-.88-.56-1.44-.56-.84,0-1.5,.41-1.97,1.24-.47,.83-.71,2-.71,3.51,0,1.01,.11,1.86,.32,2.57,.21,.7,.52,1.24,.92,1.61,.4,.37,.88,.55,1.45,.55Z"/></g><line class="g" x1="458" y1="327.11" x2="458" y2="333.6"/><line class="g" x1="655.81" y1="327.11" x2="655.81" y2="333.6"/><g><path class="k" d="M439.27,350.19v-1.02l3.84-4.21c.45-.49,.82-.92,1.11-1.29,.29-.37,.51-.71,.65-1.03,.14-.32,.21-.66,.21-1.02,0-.41-.1-.76-.29-1.06-.2-.3-.46-.53-.8-.69-.34-.16-.72-.24-1.14-.24-.45,0-.84,.09-1.17,.28-.33,.18-.59,.44-.77,.77-.18,.33-.27,.72-.27,1.16h-1.34c0-.68,.16-1.28,.47-1.8,.31-.51,.74-.92,1.29-1.2,.54-.29,1.15-.43,1.83-.43s1.29,.14,1.81,.43c.53,.29,.94,.68,1.24,1.16,.3,.49,.45,1.03,.45,1.63,0,.43-.08,.85-.23,1.25-.15,.41-.42,.86-.79,1.36s-.9,1.1-1.57,1.82l-2.61,2.8v.09h5.41v1.25h-7.34Z"/><path class="k" d="M452.75,350.35c-.86,0-1.58-.23-2.19-.7s-1.06-1.15-1.38-2.04c-.32-.89-.48-1.97-.48-3.24s.16-2.33,.48-3.22c.32-.89,.78-1.57,1.39-2.04,.6-.47,1.33-.71,2.18-.71s1.58,.24,2.18,.71c.6,.47,1.07,1.15,1.39,2.04,.32,.89,.48,1.97,.48,3.22s-.16,2.34-.48,3.24c-.32,.89-.78,1.57-1.38,2.04s-1.33,.7-2.19,.7Zm0-1.25c.85,0,1.51-.41,1.98-1.23s.7-1.98,.7-3.5c0-1.01-.11-1.87-.32-2.57-.21-.71-.52-1.25-.92-1.62-.4-.37-.88-.56-1.44-.56-.84,0-1.5,.41-1.97,1.24-.47,.83-.71,2-.71,3.51,0,1.01,.11,1.86,.32,2.57,.21,.7,.52,1.24,.92,1.61,.4,.37,.88,.55,1.45,.55Z"/><path class="k" d="M462.88,350.35c-.75,0-1.42-.13-2-.39-.59-.26-1.05-.62-1.39-1.08-.34-.46-.53-1-.56-1.61h1.43c.03,.38,.16,.7,.39,.97s.52,.48,.89,.63c.37,.15,.78,.22,1.22,.22,.5,0,.94-.09,1.33-.26,.39-.17,.69-.42,.91-.73s.33-.67,.33-1.08-.11-.81-.32-1.13c-.21-.33-.52-.58-.93-.77s-.91-.28-1.5-.28h-.93v-1.25h.93c.46,0,.87-.08,1.22-.25s.62-.4,.82-.71c.2-.3,.3-.66,.3-1.07s-.09-.74-.26-1.03c-.17-.29-.42-.52-.74-.68-.32-.16-.69-.24-1.12-.24-.4,0-.78,.07-1.13,.22-.35,.15-.64,.36-.87,.63s-.34,.61-.36,.99h-1.36c.02-.61,.21-1.14,.55-1.6,.34-.46,.8-.82,1.35-1.08s1.17-.39,1.84-.39c.72,0,1.34,.15,1.85,.44,.51,.29,.91,.67,1.19,1.14s.42,.98,.42,1.53c0,.66-.17,1.21-.51,1.68s-.81,.78-1.39,.96v.09c.73,.12,1.31,.43,1.72,.93,.41,.5,.62,1.12,.62,1.86,0,.63-.17,1.2-.51,1.7s-.81,.9-1.4,1.18c-.59,.29-1.26,.43-2.02,.43Z"/><path class="k" d="M472.93,350.35c-.86,0-1.58-.23-2.19-.7s-1.06-1.15-1.38-2.04c-.32-.89-.48-1.97-.48-3.24s.16-2.33,.48-3.22c.32-.89,.78-1.57,1.39-2.04,.6-.47,1.33-.71,2.18-.71s1.58,.24,2.18,.71c.6,.47,1.07,1.15,1.39,2.04,.32,.89,.48,1.97,.48,3.22s-.16,2.34-.48,3.24c-.32,.89-.78,1.57-1.38,2.04s-1.33,.7-2.19,.7Zm0-1.25c.85,0,1.51-.41,1.98-1.23s.7-1.98,.7-3.5c0-1.01-.11-1.87-.32-2.57-.21-.71-.52-1.25-.92-1.62-.4-.37-.88-.56-1.44-.56-.84,0-1.5,.41-1.97,1.24-.47,.83-.71,2-.71,3.51,0,1.01,.11,1.86,.32,2.57,.21,.7,.52,1.24,.92,1.61,.4,.37,.88,.55,1.45,.55Z"/></g><g><path class="k" d="M637.31,350.19v-1.02l3.84-4.21c.45-.49,.82-.92,1.11-1.29,.29-.37,.51-.71,.65-1.03,.14-.32,.21-.66,.21-1.02,0-.41-.1-.76-.29-1.06-.2-.3-.46-.53-.8-.69-.34-.16-.72-.24-1.14-.24-.45,0-.84,.09-1.17,.28-.33,.18-.59,.44-.77,.77-.18,.33-.27,.72-.27,1.16h-1.34c0-.68,.16-1.28,.47-1.8,.31-.51,.74-.92,1.29-1.2,.54-.29,1.15-.43,1.83-.43s1.29,.14,1.81,.43c.53,.29,.94,.68,1.24,1.16,.3,.49,.45,1.03,.45,1.63,0,.43-.08,.85-.23,1.25-.15,.41-.42,.86-.79,1.36s-.9,1.1-1.57,1.82l-2.61,2.8v.09h5.41v1.25h-7.34Z"/><path class="k" d="M650.79,350.35c-.86,0-1.58-.23-2.19-.7s-1.06-1.15-1.38-2.04c-.32-.89-.48-1.97-.48-3.24s.16-2.33,.48-3.22c.32-.89,.78-1.57,1.39-2.04,.6-.47,1.33-.71,2.18-.71s1.58,.24,2.18,.71c.6,.47,1.07,1.15,1.39,2.04,.32,.89,.48,1.97,.48,3.22s-.16,2.34-.48,3.24c-.32,.89-.78,1.57-1.38,2.04s-1.33,.7-2.19,.7Zm0-1.25c.85,0,1.51-.41,1.98-1.23s.7-1.98,.7-3.5c0-1.01-.11-1.87-.32-2.57-.21-.71-.52-1.25-.92-1.62-.4-.37-.88-.56-1.44-.56-.84,0-1.5,.41-1.97,1.24-.47,.83-.71,2-.71,3.51,0,1.01,.11,1.86,.32,2.57,.21,.7,.52,1.24,.92,1.61,.4,.37,.88,.55,1.45,.55Z"/><path class="k" d="M660.63,350.35c-.67,0-1.27-.13-1.8-.4-.53-.27-.96-.63-1.28-1.09-.32-.46-.5-.99-.53-1.58h1.36c.05,.53,.29,.96,.72,1.3s.94,.51,1.53,.51c.48,0,.9-.11,1.28-.33s.67-.53,.88-.92c.21-.39,.32-.84,.32-1.33s-.11-.96-.33-1.36c-.22-.4-.53-.71-.91-.95-.39-.23-.83-.35-1.32-.35-.36,0-.72,.05-1.1,.16-.38,.11-.68,.25-.93,.43l-1.32-.16,.7-5.73h6.05v1.25h-4.86l-.41,3.43h.07c.24-.19,.54-.35,.9-.47,.36-.12,.73-.19,1.12-.19,.71,0,1.35,.17,1.91,.51,.56,.34,1,.8,1.32,1.39,.32,.59,.48,1.26,.48,2.01s-.17,1.4-.5,1.99-.79,1.04-1.37,1.38c-.58,.33-1.24,.5-1.98,.5Z"/><path class="k" d="M670.51,350.35c-.86,0-1.58-.23-2.19-.7s-1.06-1.15-1.38-2.04c-.32-.89-.48-1.97-.48-3.24s.16-2.33,.48-3.22c.32-.89,.78-1.57,1.39-2.04,.6-.47,1.33-.71,2.18-.71s1.58,.24,2.18,.71c.6,.47,1.07,1.15,1.39,2.04,.32,.89,.48,1.97,.48,3.22s-.16,2.34-.48,3.24c-.32,.89-.78,1.57-1.38,2.04s-1.33,.7-2.19,.7Zm0-1.25c.85,0,1.51-.41,1.98-1.23s.7-1.98,.7-3.5c0-1.01-.11-1.87-.32-2.57-.21-.71-.52-1.25-.92-1.62-.4-.37-.88-.56-1.44-.56-.84,0-1.5,.41-1.97,1.24-.47,.83-.71,2-.71,3.51,0,1.01,.11,1.86,.32,2.57,.21,.7,.52,1.24,.92,1.61,.4,.37,.88,.55,1.45,.55Z"/></g><g><path class="k" d="M341.11,350.19v-1.02l3.84-4.21c.45-.49,.82-.92,1.11-1.29,.29-.37,.51-.71,.65-1.03,.14-.32,.21-.66,.21-1.02,0-.41-.1-.76-.29-1.06-.2-.3-.46-.53-.8-.69-.34-.16-.71-.24-1.13-.24-.45,0-.84,.09-1.17,.28-.33,.18-.59,.44-.77,.77-.18,.33-.27,.72-.27,1.16h-1.34c0-.68,.16-1.28,.47-1.8,.31-.51,.74-.92,1.29-1.2,.54-.29,1.15-.43,1.83-.43s1.29,.14,1.81,.43c.53,.29,.94,.68,1.24,1.16,.3,.49,.45,1.03,.45,1.63,0,.43-.08,.85-.23,1.25s-.42,.86-.79,1.36-.9,1.1-1.57,1.82l-2.61,2.8v.09h5.41v1.25h-7.34Z"/><path class="k" d="M354.59,350.35c-.86,0-1.58-.23-2.19-.7-.6-.47-1.06-1.15-1.38-2.04-.32-.89-.48-1.97-.48-3.24s.16-2.33,.48-3.22c.32-.89,.78-1.57,1.39-2.04,.6-.47,1.33-.71,2.18-.71s1.58,.24,2.18,.71,1.07,1.15,1.39,2.04c.32,.89,.48,1.97,.48,3.22s-.16,2.34-.48,3.24c-.32,.89-.78,1.57-1.38,2.04-.6,.47-1.33,.7-2.19,.7Zm0-1.25c.85,0,1.51-.41,1.98-1.23,.47-.82,.7-1.98,.7-3.5,0-1.01-.11-1.87-.32-2.57-.21-.71-.52-1.25-.92-1.62-.4-.37-.88-.56-1.44-.56-.84,0-1.5,.41-1.97,1.24-.47,.83-.71,2-.71,3.51,0,1.01,.11,1.86,.32,2.57s.52,1.24,.92,1.61c.4,.37,.88,.55,1.45,.55Z"/><path class="k" d="M360.79,350.19v-1.02l3.84-4.21c.45-.49,.82-.92,1.11-1.29,.29-.37,.51-.71,.65-1.03,.14-.32,.21-.66,.21-1.02,0-.41-.1-.76-.29-1.06-.2-.3-.46-.53-.8-.69-.34-.16-.71-.24-1.13-.24-.45,0-.84,.09-1.17,.28-.33,.18-.59,.44-.77,.77-.18,.33-.27,.72-.27,1.16h-1.34c0-.68,.16-1.28,.47-1.8,.31-.51,.74-.92,1.29-1.2,.54-.29,1.15-.43,1.83-.43s1.29,.14,1.81,.43c.53,.29,.94,.68,1.24,1.16,.3,.49,.45,1.03,.45,1.63,0,.43-.08,.85-.23,1.25s-.42,.86-.79,1.36-.9,1.1-1.57,1.82l-2.61,2.8v.09h5.41v1.25h-7.34Z"/><path class="k" d="M374.27,350.35c-.86,0-1.58-.23-2.19-.7-.6-.47-1.06-1.15-1.38-2.04-.32-.89-.48-1.97-.48-3.24s.16-2.33,.48-3.22c.32-.89,.78-1.57,1.39-2.04,.6-.47,1.33-.71,2.18-.71s1.58,.24,2.18,.71,1.07,1.15,1.39,2.04c.32,.89,.48,1.97,.48,3.22s-.16,2.34-.48,3.24c-.32,.89-.78,1.57-1.38,2.04-.6,.47-1.33,.7-2.19,.7Zm0-1.25c.85,0,1.51-.41,1.98-1.23,.47-.82,.7-1.98,.7-3.5,0-1.01-.11-1.87-.32-2.57-.21-.71-.52-1.25-.92-1.62-.4-.37-.88-.56-1.44-.56-.84,0-1.5,.41-1.97,1.24-.47,.83-.71,2-.71,3.51,0,1.01,.11,1.86,.32,2.57s.52,1.24,.92,1.61c.4,.37,.88,.55,1.45,.55Z"/></g><path class="k" d="M46.92,328.78c-.86,0-1.58-.23-2.19-.7s-1.06-1.15-1.38-2.04c-.32-.89-.48-1.97-.48-3.24s.16-2.33,.48-3.22c.32-.89,.78-1.57,1.39-2.04,.6-.47,1.33-.71,2.18-.71s1.58,.24,2.18,.71c.6,.47,1.07,1.15,1.39,2.04,.32,.89,.48,1.97,.48,3.22s-.16,2.34-.48,3.24c-.32,.89-.78,1.57-1.38,2.04s-1.33,.7-2.19,.7Zm0-1.25c.85,0,1.51-.41,1.98-1.23s.7-1.98,.7-3.5c0-1.01-.11-1.87-.32-2.57-.21-.71-.52-1.25-.92-1.62-.4-.37-.88-.56-1.44-.56-.84,0-1.5,.41-1.97,1.24-.47,.83-.71,2-.71,3.51,0,1.01,.11,1.86,.32,2.57,.21,.7,.52,1.24,.92,1.61,.4,.37,.88,.55,1.45,.55Z"/><g><path class="k" d="M15.58,275.48v11.64h-1.41v-10.16h-.07l-2.84,1.89v-1.43l2.91-1.93h1.41Z"/><path class="k" d="M25.92,287.28c-.86,0-1.58-.23-2.19-.7s-1.06-1.15-1.38-2.04c-.32-.89-.48-1.97-.48-3.24s.16-2.33,.48-3.22c.32-.89,.78-1.57,1.39-2.04,.6-.47,1.33-.71,2.18-.71s1.58,.24,2.18,.71c.6,.47,1.07,1.15,1.39,2.04,.32,.89,.48,1.97,.48,3.22s-.16,2.34-.48,3.24c-.32,.89-.78,1.57-1.38,2.04s-1.33,.7-2.19,.7Zm0-1.25c.85,0,1.51-.41,1.98-1.23s.7-1.98,.7-3.5c0-1.01-.11-1.87-.32-2.57-.21-.71-.52-1.25-.92-1.62-.4-.37-.88-.56-1.44-.56-.84,0-1.5,.41-1.97,1.24-.47,.83-.71,2-.71,3.51,0,1.01,.11,1.86,.32,2.57,.21,.7,.52,1.24,.92,1.61,.4,.37,.88,.55,1.45,.55Z"/><path class="k" d="M35.92,287.28c-.86,0-1.58-.23-2.19-.7s-1.06-1.15-1.38-2.04c-.32-.89-.48-1.97-.48-3.24s.16-2.33,.48-3.22c.32-.89,.78-1.57,1.39-2.04,.6-.47,1.33-.71,2.18-.71s1.58,.24,2.18,.71c.6,.47,1.07,1.15,1.39,2.04,.32,.89,.48,1.97,.48,3.22s-.16,2.34-.48,3.24c-.32,.89-.78,1.57-1.38,2.04s-1.33,.7-2.19,.7Zm0-1.25c.85,0,1.51-.41,1.98-1.23s.7-1.98,.7-3.5c0-1.01-.11-1.87-.32-2.57-.21-.71-.52-1.25-.92-1.62-.4-.37-.88-.56-1.44-.56-.84,0-1.5,.41-1.97,1.24-.47,.83-.71,2-.71,3.51,0,1.01,.11,1.86,.32,2.57,.21,.7,.52,1.24,.92,1.61,.4,.37,.88,.55,1.45,.55Z"/><path class="k" d="M45.92,287.28c-.86,0-1.58-.23-2.19-.7s-1.06-1.15-1.38-2.04c-.32-.89-.48-1.97-.48-3.24s.16-2.33,.48-3.22c.32-.89,.78-1.57,1.39-2.04,.6-.47,1.33-.71,2.18-.71s1.58,.24,2.18,.71c.6,.47,1.07,1.15,1.39,2.04,.32,.89,.48,1.97,.48,3.22s-.16,2.34-.48,3.24c-.32,.89-.78,1.57-1.38,2.04s-1.33,.7-2.19,.7Zm0-1.25c.85,0,1.51-.41,1.98-1.23s.7-1.98,.7-3.5c0-1.01-.11-1.87-.32-2.57-.21-.71-.52-1.25-.92-1.62-.4-.37-.88-.56-1.44-.56-.84,0-1.5,.41-1.97,1.24-.47,.83-.71,2-.71,3.51,0,1.01,.11,1.86,.32,2.57,.21,.7,.52,1.24,.92,1.61,.4,.37,.88,.55,1.45,.55Z"/></g><g><path class="k" d="M9.24,243.76v-1.02l3.84-4.21c.45-.49,.82-.92,1.11-1.29,.29-.37,.51-.71,.65-1.03,.14-.32,.21-.66,.21-1.02,0-.41-.1-.76-.29-1.06-.2-.3-.46-.53-.8-.69-.34-.16-.72-.24-1.14-.24-.45,0-.84,.09-1.17,.28-.33,.18-.59,.44-.77,.77-.18,.33-.27,.72-.27,1.16h-1.34c0-.68,.16-1.28,.47-1.8,.31-.51,.74-.92,1.29-1.2,.54-.29,1.15-.43,1.83-.43s1.29,.14,1.81,.43c.53,.29,.94,.68,1.24,1.16,.3,.49,.45,1.03,.45,1.63,0,.43-.08,.85-.23,1.25-.15,.41-.42,.86-.79,1.36s-.9,1.1-1.57,1.82l-2.61,2.8v.09h5.41v1.25h-7.34Z"/><path class="k" d="M25.92,243.92c-.86,0-1.58-.23-2.19-.7s-1.06-1.15-1.38-2.04c-.32-.89-.48-1.97-.48-3.24s.16-2.33,.48-3.22c.32-.89,.78-1.57,1.39-2.04,.6-.47,1.33-.71,2.18-.71s1.58,.24,2.18,.71c.6,.47,1.07,1.15,1.39,2.04,.32,.89,.48,1.97,.48,3.22s-.16,2.34-.48,3.24c-.32,.89-.78,1.57-1.38,2.04s-1.33,.7-2.19,.7Zm0-1.25c.85,0,1.51-.41,1.98-1.23s.7-1.98,.7-3.5c0-1.01-.11-1.87-.32-2.57-.21-.71-.52-1.25-.92-1.62-.4-.37-.88-.56-1.44-.56-.84,0-1.5,.41-1.97,1.24-.47,.83-.71,2-.71,3.51,0,1.01,.11,1.86,.32,2.57,.21,.7,.52,1.24,.92,1.61,.4,.37,.88,.55,1.45,.55Z"/><path class="k" d="M35.92,243.92c-.86,0-1.58-.23-2.19-.7s-1.06-1.15-1.38-2.04c-.32-.89-.48-1.97-.48-3.24s.16-2.33,.48-3.22c.32-.89,.78-1.57,1.39-2.04,.6-.47,1.33-.71,2.18-.71s1.58,.24,2.18,.71c.6,.47,1.07,1.15,1.39,2.04,.32,.89,.48,1.97,.48,3.22s-.16,2.34-.48,3.24c-.32,.89-.78,1.57-1.38,2.04s-1.33,.7-2.19,.7Zm0-1.25c.85,0,1.51-.41,1.98-1.23s.7-1.98,.7-3.5c0-1.01-.11-1.87-.32-2.57-.21-.71-.52-1.25-.92-1.62-.4-.37-.88-.56-1.44-.56-.84,0-1.5,.41-1.97,1.24-.47,.83-.71,2-.71,3.51,0,1.01,.11,1.86,.32,2.57,.21,.7,.52,1.24,.92,1.61,.4,.37,.88,.55,1.45,.55Z"/><path class="k" d="M45.92,243.92c-.86,0-1.58-.23-2.19-.7s-1.06-1.15-1.38-2.04c-.32-.89-.48-1.97-.48-3.24s.16-2.33,.48-3.22c.32-.89,.78-1.57,1.39-2.04,.6-.47,1.33-.71,2.18-.71s1.58,.24,2.18,.71c.6,.47,1.07,1.15,1.39,2.04,.32,.89,.48,1.97,.48,3.22s-.16,2.34-.48,3.24c-.32,.89-.78,1.57-1.38,2.04s-1.33,.7-2.19,.7Zm0-1.25c.85,0,1.51-.41,1.98-1.23s.7-1.98,.7-3.5c0-1.01-.11-1.87-.32-2.57-.21-.71-.52-1.25-.92-1.62-.4-.37-.88-.56-1.44-.56-.84,0-1.5,.41-1.97,1.24-.47,.83-.71,2-.71,3.51,0,1.01,.11,1.86,.32,2.57,.21,.7,.52,1.24,.92,1.61,.4,.37,.88,.55,1.45,.55Z"/></g><g><path class="k" d="M12.67,200.56c-.75,0-1.42-.13-2-.39-.59-.26-1.05-.62-1.39-1.08-.34-.46-.53-1-.56-1.61h1.43c.03,.38,.16,.7,.39,.97s.52,.48,.89,.63c.37,.15,.78,.22,1.22,.22,.5,0,.94-.09,1.33-.26,.39-.17,.69-.42,.91-.73s.33-.67,.33-1.08-.11-.81-.32-1.13c-.21-.33-.52-.58-.93-.77s-.91-.28-1.5-.28h-.93v-1.25h.93c.46,0,.87-.08,1.22-.25s.62-.4,.82-.71c.2-.3,.3-.66,.3-1.07s-.09-.74-.26-1.03c-.17-.29-.42-.52-.74-.68-.32-.16-.69-.24-1.12-.24-.4,0-.78,.07-1.13,.22-.35,.15-.64,.36-.87,.63s-.34,.61-.36,.99h-1.36c.02-.61,.21-1.14,.55-1.6,.34-.46,.8-.82,1.35-1.08s1.17-.39,1.84-.39c.72,0,1.34,.15,1.85,.44,.51,.29,.91,.67,1.19,1.14s.42,.98,.42,1.53c0,.66-.17,1.21-.51,1.68s-.81,.78-1.39,.96v.09c.73,.12,1.31,.43,1.72,.93,.41,.5,.62,1.12,.62,1.86,0,.63-.17,1.2-.51,1.7s-.81,.9-1.4,1.18c-.59,.29-1.26,.43-2.02,.43Z"/><path class="k" d="M25.92,200.56c-.86,0-1.58-.23-2.19-.7s-1.06-1.15-1.38-2.04c-.32-.89-.48-1.97-.48-3.24s.16-2.33,.48-3.22c.32-.89,.78-1.57,1.39-2.04,.6-.47,1.33-.71,2.18-.71s1.58,.24,2.18,.71c.6,.47,1.07,1.15,1.39,2.04,.32,.89,.48,1.97,.48,3.22s-.16,2.34-.48,3.24c-.32,.89-.78,1.57-1.38,2.04s-1.33,.7-2.19,.7Zm0-1.25c.85,0,1.51-.41,1.98-1.23s.7-1.98,.7-3.5c0-1.01-.11-1.87-.32-2.57-.21-.71-.52-1.25-.92-1.62-.4-.37-.88-.56-1.44-.56-.84,0-1.5,.41-1.97,1.24-.47,.83-.71,2-.71,3.51,0,1.01,.11,1.86,.32,2.57,.21,.7,.52,1.24,.92,1.61,.4,.37,.88,.55,1.45,.55Z"/><path class="k" d="M35.92,200.56c-.86,0-1.58-.23-2.19-.7s-1.06-1.15-1.38-2.04c-.32-.89-.48-1.97-.48-3.24s.16-2.33,.48-3.22c.32-.89,.78-1.57,1.39-2.04,.6-.47,1.33-.71,2.18-.71s1.58,.24,2.18,.71c.6,.47,1.07,1.15,1.39,2.04,.32,.89,.48,1.97,.48,3.22s-.16,2.34-.48,3.24c-.32,.89-.78,1.57-1.38,2.04s-1.33,.7-2.19,.7Zm0-1.25c.85,0,1.51-.41,1.98-1.23s.7-1.98,.7-3.5c0-1.01-.11-1.87-.32-2.57-.21-.71-.52-1.25-.92-1.62-.4-.37-.88-.56-1.44-.56-.84,0-1.5,.41-1.97,1.24-.47,.83-.71,2-.71,3.51,0,1.01,.11,1.86,.32,2.57,.21,.7,.52,1.24,.92,1.61,.4,.37,.88,.55,1.45,.55Z"/><path class="k" d="M45.92,200.56c-.86,0-1.58-.23-2.19-.7s-1.06-1.15-1.38-2.04c-.32-.89-.48-1.97-.48-3.24s.16-2.33,.48-3.22c.32-.89,.78-1.57,1.39-2.04,.6-.47,1.33-.71,2.18-.71s1.58,.24,2.18,.71c.6,.47,1.07,1.15,1.39,2.04,.32,.89,.48,1.97,.48,3.22s-.16,2.34-.48,3.24c-.32,.89-.78,1.57-1.38,2.04s-1.33,.7-2.19,.7Zm0-1.25c.85,0,1.51-.41,1.98-1.23s.7-1.98,.7-3.5c0-1.01-.11-1.87-.32-2.57-.21-.71-.52-1.25-.92-1.62-.4-.37-.88-.56-1.44-.56-.84,0-1.5,.41-1.97,1.24-.47,.83-.71,2-.71,3.51,0,1.01,.11,1.86,.32,2.57,.21,.7,.52,1.24,.92,1.61,.4,.37,.88,.55,1.45,.55Z"/></g><g><path class="k" d="M8.38,154.66v-1.16l5.11-8.09h.84v1.8h-.57l-3.86,6.11v.09h6.89v1.25H8.38Zm5.48,2.39v-11.64h1.34v11.64h-1.34Z"/><path class="k" d="M25.92,157.2c-.86,0-1.58-.23-2.19-.7s-1.06-1.15-1.38-2.04c-.32-.89-.48-1.97-.48-3.24s.16-2.33,.48-3.22c.32-.89,.78-1.57,1.39-2.04,.6-.47,1.33-.71,2.18-.71s1.58,.24,2.18,.71c.6,.47,1.07,1.15,1.39,2.04,.32,.89,.48,1.97,.48,3.22s-.16,2.34-.48,3.24c-.32,.89-.78,1.57-1.38,2.04s-1.33,.7-2.19,.7Zm0-1.25c.85,0,1.51-.41,1.98-1.23s.7-1.98,.7-3.5c0-1.01-.11-1.87-.32-2.57-.21-.71-.52-1.25-.92-1.62-.4-.37-.88-.56-1.44-.56-.84,0-1.5,.41-1.97,1.24-.47,.83-.71,2-.71,3.51,0,1.01,.11,1.86,.32,2.57,.21,.7,.52,1.24,.92,1.61,.4,.37,.88,.55,1.45,.55Z"/><path class="k" d="M35.92,157.2c-.86,0-1.58-.23-2.19-.7s-1.06-1.15-1.38-2.04c-.32-.89-.48-1.97-.48-3.24s.16-2.33,.48-3.22c.32-.89,.78-1.57,1.39-2.04,.6-.47,1.33-.71,2.18-.71s1.58,.24,2.18,.71c.6,.47,1.07,1.15,1.39,2.04,.32,.89,.48,1.97,.48,3.22s-.16,2.34-.48,3.24c-.32,.89-.78,1.57-1.38,2.04s-1.33,.7-2.19,.7Zm0-1.25c.85,0,1.51-.41,1.98-1.23s.7-1.98,.7-3.5c0-1.01-.11-1.87-.32-2.57-.21-.71-.52-1.25-.92-1.62-.4-.37-.88-.56-1.44-.56-.84,0-1.5,.41-1.97,1.24-.47,.83-.71,2-.71,3.51,0,1.01,.11,1.86,.32,2.57,.21,.7,.52,1.24,.92,1.61,.4,.37,.88,.55,1.45,.55Z"/><path class="k" d="M45.92,157.2c-.86,0-1.58-.23-2.19-.7s-1.06-1.15-1.38-2.04c-.32-.89-.48-1.97-.48-3.24s.16-2.33,.48-3.22c.32-.89,.78-1.57,1.39-2.04,.6-.47,1.33-.71,2.18-.71s1.58,.24,2.18,.71c.6,.47,1.07,1.15,1.39,2.04,.32,.89,.48,1.97,.48,3.22s-.16,2.34-.48,3.24c-.32,.89-.78,1.57-1.38,2.04s-1.33,.7-2.19,.7Zm0-1.25c.85,0,1.51-.41,1.98-1.23s.7-1.98,.7-3.5c0-1.01-.11-1.87-.32-2.57-.21-.71-.52-1.25-.92-1.62-.4-.37-.88-.56-1.44-.56-.84,0-1.5,.41-1.97,1.24-.47,.83-.71,2-.71,3.51,0,1.01,.11,1.86,.32,2.57,.21,.7,.52,1.24,.92,1.61,.4,.37,.88,.55,1.45,.55Z"/></g><g><path class="k" d="M12.83,111.59c-.67,0-1.27-.13-1.8-.4-.53-.27-.96-.63-1.28-1.09-.32-.46-.5-.99-.53-1.58h1.36c.05,.53,.29,.96,.72,1.3s.94,.51,1.53,.51c.48,0,.9-.11,1.28-.33s.67-.53,.88-.92c.21-.39,.32-.84,.32-1.33s-.11-.96-.33-1.36c-.22-.4-.53-.71-.91-.95-.39-.23-.83-.35-1.32-.35-.36,0-.72,.05-1.1,.16-.38,.11-.68,.25-.93,.43l-1.32-.16,.7-5.73h6.05v1.25h-4.86l-.41,3.43h.07c.24-.19,.54-.35,.9-.47,.36-.12,.73-.19,1.12-.19,.71,0,1.35,.17,1.91,.51,.56,.34,1,.8,1.32,1.39,.32,.59,.48,1.26,.48,2.01s-.17,1.4-.5,1.99-.79,1.04-1.37,1.38c-.58,.33-1.24,.5-1.98,.5Z"/><path class="k" d="M25.92,111.59c-.86,0-1.58-.23-2.19-.7s-1.06-1.15-1.38-2.04c-.32-.89-.48-1.97-.48-3.24s.16-2.33,.48-3.22c.32-.89,.78-1.57,1.39-2.04,.6-.47,1.33-.71,2.18-.71s1.58,.24,2.18,.71c.6,.47,1.07,1.15,1.39,2.04,.32,.89,.48,1.97,.48,3.22s-.16,2.34-.48,3.24c-.32,.89-.78,1.57-1.38,2.04s-1.33,.7-2.19,.7Zm0-1.25c.85,0,1.51-.41,1.98-1.23s.7-1.98,.7-3.5c0-1.01-.11-1.87-.32-2.57-.21-.71-.52-1.25-.92-1.62-.4-.37-.88-.56-1.44-.56-.84,0-1.5,.41-1.97,1.24-.47,.83-.71,2-.71,3.51,0,1.01,.11,1.86,.32,2.57,.21,.7,.52,1.24,.92,1.61,.4,.37,.88,.55,1.45,.55Z"/><path class="k" d="M35.92,111.59c-.86,0-1.58-.23-2.19-.7s-1.06-1.15-1.38-2.04c-.32-.89-.48-1.97-.48-3.24s.16-2.33,.48-3.22c.32-.89,.78-1.57,1.39-2.04,.6-.47,1.33-.71,2.18-.71s1.58,.24,2.18,.71c.6,.47,1.07,1.15,1.39,2.04,.32,.89,.48,1.97,.48,3.22s-.16,2.34-.48,3.24c-.32,.89-.78,1.57-1.38,2.04s-1.33,.7-2.19,.7Zm0-1.25c.85,0,1.51-.41,1.98-1.23s.7-1.98,.7-3.5c0-1.01-.11-1.87-.32-2.57-.21-.71-.52-1.25-.92-1.62-.4-.37-.88-.56-1.44-.56-.84,0-1.5,.41-1.97,1.24-.47,.83-.71,2-.71,3.51,0,1.01,.11,1.86,.32,2.57,.21,.7,.52,1.24,.92,1.61,.4,.37,.88,.55,1.45,.55Z"/><path class="k" d="M45.92,111.59c-.86,0-1.58-.23-2.19-.7s-1.06-1.15-1.38-2.04c-.32-.89-.48-1.97-.48-3.24s.16-2.33,.48-3.22c.32-.89,.78-1.57,1.39-2.04,.6-.47,1.33-.71,2.18-.71s1.58,.24,2.18,.71c.6,.47,1.07,1.15,1.39,2.04,.32,.89,.48,1.97,.48,3.22s-.16,2.34-.48,3.24c-.32,.89-.78,1.57-1.38,2.04s-1.33,.7-2.19,.7Zm0-1.25c.85,0,1.51-.41,1.98-1.23s.7-1.98,.7-3.5c0-1.01-.11-1.87-.32-2.57-.21-.71-.52-1.25-.92-1.62-.4-.37-.88-.56-1.44-.56-.84,0-1.5,.41-1.97,1.24-.47,.83-.71,2-.71,3.51,0,1.01,.11,1.86,.32,2.57,.21,.7,.52,1.24,.92,1.61,.4,.37,.88,.55,1.45,.55Z"/><path class="k" d="M10.67,123.43v-6.55h.97v1.02h.09c.14-.35,.36-.62,.66-.82s.67-.29,1.1-.29,.79,.1,1.08,.29c.29,.19,.51,.47,.67,.82h.07c.17-.34,.42-.61,.75-.81,.33-.2,.74-.3,1.21-.3,.59,0,1.06,.18,1.44,.55s.56,.93,.56,1.7v4.38h-1.01v-4.38c0-.48-.13-.83-.4-1.04s-.58-.31-.93-.31c-.46,0-.82,.14-1.07,.42-.25,.28-.38,.63-.38,1.05v4.26h-1.02v-4.48c0-.37-.12-.67-.36-.9-.24-.23-.55-.34-.93-.34-.26,0-.5,.07-.73,.21-.23,.14-.41,.33-.55,.58-.14,.25-.21,.53-.21,.85v4.09h-1Z"/><path class="k" d="M21.62,115.79c-.2,0-.36-.07-.5-.2-.14-.13-.21-.29-.21-.48s.07-.35,.21-.48,.31-.2,.5-.2,.36,.07,.5,.2,.21,.29,.21,.48-.07,.35-.21,.48c-.14,.13-.31,.2-.5,.2Zm-.51,7.64v-6.55h1v6.55h-1Z"/><path class="k" d="M24.96,114.7v8.73h-1v-8.73h1Z"/><path class="k" d="M27.53,123.5c-.21,0-.39-.08-.54-.23-.15-.15-.23-.33-.23-.54s.08-.39,.23-.54,.33-.23,.54-.23,.39,.08,.54,.23,.23,.33,.23,.54c0,.14-.04,.27-.1,.38-.07,.12-.16,.21-.28,.28s-.24,.1-.39,.1Z"/><path class="k" d="M36.33,116.89v.85h-3.39v-.85h3.39Zm-2.4-1.57h1.01v6.24c0,.28,.04,.5,.13,.64s.19,.23,.32,.28c.13,.05,.27,.07,.42,.07,.11,0,.2,0,.27-.02,.07-.01,.13-.02,.17-.03l.21,.9c-.07,.03-.16,.05-.29,.08-.12,.03-.28,.04-.46,.04-.28,0-.56-.06-.83-.18-.27-.12-.5-.31-.67-.56s-.27-.57-.27-.95v-6.51Z"/><path class="k" d="M41.97,120.76v-3.87h1v6.55h-1v-1.11h-.07c-.15,.33-.39,.62-.72,.85-.32,.23-.73,.35-1.23,.35-.41,0-.77-.09-1.09-.27s-.57-.45-.75-.82c-.18-.36-.27-.83-.27-1.38v-4.16h1v4.09c0,.48,.13,.86,.4,1.14s.61,.43,1.03,.43c.25,0,.5-.06,.76-.19s.48-.32,.66-.59c.18-.26,.27-.6,.27-1.01Z"/><path class="k" d="M45.82,119.49v3.94h-1v-6.55h.97v1.02h.09c.15-.33,.39-.6,.7-.8s.72-.3,1.21-.3c.44,0,.83,.09,1.16,.27,.33,.18,.59,.45,.78,.82s.28,.83,.28,1.38v4.16h-1.01v-4.09c0-.51-.13-.92-.4-1.2-.27-.29-.63-.43-1.1-.43-.32,0-.61,.07-.86,.21-.25,.14-.45,.34-.59,.61-.14,.27-.22,.59-.22,.97Z"/><path class="k" d="M22.6,129.43h-1.06c-.06-.3-.17-.57-.33-.8-.15-.23-.34-.42-.56-.58-.22-.16-.46-.28-.73-.36-.27-.08-.54-.12-.83-.12-.53,0-1.01,.13-1.43,.4-.43,.27-.77,.66-1.02,1.18-.25,.52-.38,1.16-.38,1.91s.13,1.39,.38,1.91c.25,.52,.59,.91,1.02,1.18,.43,.27,.91,.4,1.43,.4,.29,0,.57-.04,.83-.12,.27-.08,.51-.2,.73-.36,.22-.16,.41-.35,.56-.58,.16-.23,.26-.5,.33-.8h1.06c-.08,.45-.22,.85-.43,1.2-.21,.35-.47,.65-.78,.9s-.66,.43-1.05,.56-.8,.19-1.24,.19c-.74,0-1.41-.18-1.99-.54-.58-.36-1.04-.88-1.37-1.55-.33-.67-.5-1.47-.5-2.39s.17-1.72,.5-2.39c.33-.67,.79-1.19,1.37-1.55,.58-.36,1.24-.55,1.99-.55,.44,0,.85,.06,1.24,.19,.39,.13,.74,.32,1.05,.56,.31,.25,.57,.54,.78,.9,.21,.35,.36,.75,.43,1.2Z"/><path class="k" d="M31.67,131.07c0,.92-.17,1.72-.5,2.39-.33,.67-.79,1.19-1.37,1.55-.58,.36-1.24,.54-1.99,.54s-1.41-.18-1.99-.54c-.58-.36-1.04-.88-1.37-1.55-.33-.67-.5-1.47-.5-2.39s.17-1.72,.5-2.39c.33-.67,.79-1.19,1.37-1.55,.58-.36,1.24-.55,1.99-.55s1.41,.18,1.99,.55c.58,.36,1.04,.88,1.37,1.55s.5,1.47,.5,2.39Zm-1.02,0c0-.76-.12-1.39-.38-1.91-.25-.52-.59-.91-1.02-1.18-.43-.27-.91-.4-1.43-.4s-1.01,.13-1.43,.4c-.43,.27-.77,.66-1.02,1.18-.25,.52-.38,1.16-.38,1.91s.13,1.39,.38,1.91c.25,.52,.59,.91,1.02,1.18,.43,.27,.91,.4,1.43,.4s1.01-.13,1.43-.4c.43-.27,.77-.66,1.02-1.18,.25-.52,.38-1.16,.38-1.91Z"/><path class="k" d="M32.91,137.43v-.45l1.68-1.84c.2-.22,.36-.4,.49-.56,.13-.16,.22-.31,.28-.45s.09-.29,.09-.45c0-.18-.04-.33-.13-.46-.08-.13-.2-.23-.35-.3-.15-.07-.31-.11-.5-.11-.2,0-.37,.04-.51,.12-.14,.08-.26,.19-.33,.34-.08,.14-.12,.31-.12,.51h-.59c0-.3,.07-.56,.21-.79,.14-.22,.33-.4,.56-.53s.5-.19,.8-.19,.56,.06,.79,.19,.41,.3,.54,.51c.13,.21,.2,.45,.2,.71,0,.19-.03,.37-.1,.55-.07,.18-.18,.38-.35,.59-.16,.22-.39,.48-.68,.8l-1.14,1.22v.04h2.37v.55h-3.21Z"/><path class="k" d="M40.28,135.57c-.63,0-1.17-.14-1.63-.42-.46-.28-.81-.67-1.05-1.18-.25-.5-.37-1.09-.37-1.76s.12-1.26,.37-1.77c.25-.51,.59-.91,1.03-1.2,.44-.29,.96-.43,1.55-.43,.34,0,.68,.06,1.01,.17,.33,.11,.63,.3,.91,.55,.27,.25,.49,.59,.65,1.01,.16,.42,.24,.93,.24,1.54v.43h-5.05v-.87h4.02c0-.37-.07-.7-.22-.99-.15-.29-.35-.52-.62-.69-.27-.17-.58-.25-.95-.25-.4,0-.75,.1-1.04,.3-.29,.2-.51,.45-.67,.77s-.23,.65-.23,1.01v.58c0,.49,.09,.91,.26,1.25,.17,.34,.41,.6,.72,.78,.31,.18,.66,.27,1.07,.27,.26,0,.5-.04,.72-.11s.4-.19,.56-.34c.16-.15,.28-.34,.36-.57l.97,.27c-.1,.33-.27,.62-.52,.87-.24,.25-.54,.44-.89,.58s-.75,.21-1.2,.21Z"/><path class="k" d="M48.99,137.89v-3.46h-.09c-.07,.12-.18,.27-.32,.45-.14,.18-.33,.34-.58,.48s-.59,.21-1.01,.21c-.54,0-1.03-.14-1.44-.42-.42-.28-.74-.67-.98-1.18-.24-.51-.35-1.11-.35-1.8s.12-1.28,.35-1.79c.24-.5,.56-.9,.98-1.17,.42-.28,.91-.41,1.46-.41,.43,0,.76,.07,1.01,.21,.25,.14,.44,.3,.57,.48s.24,.32,.31,.44h.12v-1.04h.97v9h-1Zm-1.86-3.22c.4,0,.74-.11,1.02-.32,.28-.21,.49-.5,.64-.88,.14-.38,.22-.81,.22-1.31s-.07-.92-.21-1.29c-.14-.37-.35-.65-.63-.86s-.62-.31-1.03-.31-.78,.11-1.06,.33c-.28,.22-.49,.51-.63,.88-.14,.37-.21,.79-.21,1.25s.07,.89,.22,1.27c.14,.38,.36,.68,.64,.9,.28,.22,.63,.33,1.05,.33Z"/></g><g><line class="h" x1="457.83" y1="189.03" x2="457.83" y2="222.77"/><polygon class="j" points="454.77 220.28 455.31 219.77 457.83 222.48 460.35 219.77 460.9 220.28 457.83 223.58 454.77 220.28"/></g><g><g><path class="i" d="M342.68,88.11v1.92h-5.31v-1.92h5.31Z"/><path class="i" d="M349.02,94.01c-.85,0-1.6-.15-2.26-.44-.66-.29-1.18-.7-1.56-1.22-.38-.52-.58-1.11-.59-1.79h2.48c.02,.28,.11,.53,.28,.75,.17,.21,.4,.38,.69,.5,.29,.12,.61,.18,.97,.18s.71-.07,.99-.2c.29-.13,.51-.32,.68-.55,.16-.24,.24-.51,.24-.81s-.09-.59-.26-.83c-.17-.24-.42-.43-.74-.57-.32-.14-.7-.2-1.14-.2h-1.08v-1.81h1.08c.37,0,.7-.06,.99-.19s.51-.31,.67-.54c.16-.23,.24-.5,.24-.8s-.07-.55-.21-.77c-.14-.22-.33-.39-.58-.52s-.54-.19-.87-.19-.64,.06-.91,.18c-.28,.12-.5,.29-.66,.51-.17,.22-.26,.48-.27,.77h-2.36c.01-.67,.2-1.26,.57-1.77,.37-.51,.87-.91,1.5-1.2,.63-.29,1.34-.44,2.14-.44s1.51,.15,2.11,.44c.6,.29,1.07,.69,1.41,1.18,.33,.49,.5,1.05,.5,1.66,0,.65-.2,1.19-.61,1.63-.41,.44-.94,.71-1.59,.83v.09c.86,.11,1.51,.41,1.96,.89,.45,.48,.67,1.09,.67,1.81,0,.66-.19,1.25-.57,1.77-.38,.52-.91,.92-1.59,1.22-.67,.3-1.45,.44-2.32,.44Z"/><path class="i" d="M355.27,93.85v-1.77l4.14-3.84c.35-.34,.65-.65,.89-.92,.24-.27,.42-.54,.55-.8,.12-.26,.19-.55,.19-.86,0-.34-.08-.64-.23-.88-.15-.25-.37-.44-.64-.57-.27-.13-.57-.2-.91-.2s-.67,.07-.93,.22c-.27,.14-.47,.35-.61,.62-.14,.27-.22,.59-.22,.96h-2.34c0-.76,.17-1.42,.52-1.98,.35-.56,.83-.99,1.45-1.3s1.34-.46,2.15-.46,1.56,.15,2.18,.44c.62,.29,1.1,.7,1.45,1.22,.34,.52,.52,1.11,.52,1.78,0,.44-.09,.87-.26,1.3-.17,.43-.48,.9-.92,1.42s-1.06,1.14-1.86,1.87l-1.7,1.67v.08h4.89v2.01h-8.29Z"/><path class="i" d="M369.46,85.01v-.61c0-.47,.1-.9,.3-1.29,.2-.39,.49-.71,.87-.94,.38-.23,.84-.35,1.38-.35s1.03,.12,1.41,.35c.38,.24,.67,.55,.87,.94,.2,.39,.29,.82,.29,1.29v.61c0,.47-.1,.9-.3,1.29-.2,.39-.49,.7-.87,.93-.38,.23-.85,.35-1.4,.35s-1.02-.12-1.4-.36-.67-.55-.86-.94c-.2-.39-.29-.82-.29-1.28Zm.75,8.84l8-11.64h1.49l-8,11.64h-1.49Zm.91-9.45v.61c0,.28,.07,.53,.2,.77,.13,.24,.36,.35,.7,.35s.59-.12,.71-.35c.13-.23,.19-.49,.19-.77v-.61c0-.28-.06-.53-.18-.77-.12-.24-.36-.36-.72-.36-.34,0-.57,.12-.7,.36s-.19,.5-.19,.77Zm4.31,7.27v-.61c0-.47,.1-.89,.3-1.29,.2-.39,.49-.71,.87-.94,.38-.24,.85-.36,1.39-.36s1.03,.12,1.41,.35c.38,.23,.67,.55,.86,.94,.2,.39,.29,.82,.29,1.29v.61c0,.47-.1,.89-.29,1.29-.2,.39-.49,.71-.87,.94-.38,.24-.85,.36-1.4,.36s-1.02-.12-1.4-.36c-.38-.24-.67-.55-.86-.94-.2-.39-.3-.82-.3-1.29Zm1.65-.61v.61c0,.27,.06,.52,.2,.76,.13,.24,.37,.36,.71,.36s.58-.12,.71-.35c.13-.23,.19-.49,.19-.77v-.61c0-.28-.06-.53-.18-.77-.12-.24-.36-.36-.72-.36s-.58,.12-.71,.36c-.13,.24-.2,.5-.2,.77Z"/><path d="M324.25,103.67l-3.03,8.18h-1.28l-3.03-8.18h1.36l2.26,6.52h.09l2.26-6.52h1.36Z"/><path d="M330.13,111.85v-8.18h1.21v1.24h.09c.15-.4,.42-.73,.81-.99s.83-.38,1.32-.38c.09,0,.21,0,.35,0,.14,0,.24,0,.31,.02v1.28s-.14-.03-.29-.05c-.15-.02-.31-.03-.48-.03-.4,0-.75,.08-1.06,.25s-.56,.39-.73,.68c-.18,.29-.27,.62-.27,.99v5.18h-1.26Z"/><path d="M339.03,112.02c-.74,0-1.38-.18-1.94-.53s-.99-.84-1.3-1.48c-.31-.63-.47-1.37-.47-2.22s.15-1.6,.47-2.23c.31-.64,.74-1.13,1.3-1.48s1.2-.53,1.94-.53,1.39,.18,1.94,.53c.56,.35,.99,.84,1.3,1.48s.46,1.38,.46,2.23-.15,1.58-.46,2.22c-.31,.63-.74,1.12-1.3,1.48-.55,.35-1.2,.53-1.94,.53Zm0-1.13c.56,0,1.02-.14,1.38-.43,.36-.29,.63-.67,.8-1.13s.26-.98,.26-1.52-.09-1.06-.26-1.53c-.17-.47-.44-.85-.8-1.15-.36-.29-.82-.44-1.38-.44s-1.02,.15-1.38,.44c-.36,.29-.63,.67-.8,1.15-.17,.47-.26,.98-.26,1.53s.09,1.05,.26,1.52,.44,.85,.8,1.13c.36,.29,.82,.43,1.38,.43Z"/><path d="M347.98,112.02c-.77,0-1.43-.18-1.98-.54s-.98-.86-1.28-1.5c-.3-.63-.45-1.36-.45-2.18s.15-1.57,.46-2.2c.31-.64,.74-1.14,1.29-1.5,.55-.36,1.2-.54,1.94-.54,.57,0,1.09,.11,1.55,.32s.84,.51,1.13,.89c.29,.38,.48,.83,.55,1.34h-1.26c-.1-.37-.31-.7-.64-.99-.33-.29-.77-.43-1.32-.43-.49,0-.92,.13-1.29,.38s-.65,.61-.86,1.07c-.21,.46-.31,1-.31,1.62s.1,1.18,.3,1.65,.48,.83,.85,1.09c.37,.26,.8,.39,1.3,.39,.33,0,.62-.06,.89-.17,.27-.11,.49-.28,.68-.49,.19-.21,.32-.47,.39-.77h1.26c-.07,.48-.25,.92-.53,1.3-.28,.39-.65,.69-1.1,.92-.46,.23-.99,.34-1.59,.34Z"/><path d="M356.46,112.02c-.79,0-1.47-.18-2.04-.53-.57-.35-1.01-.84-1.32-1.47-.31-.63-.46-1.36-.46-2.2s.15-1.58,.46-2.22c.31-.64,.74-1.14,1.29-1.5s1.2-.54,1.94-.54c.43,0,.85,.07,1.26,.21,.41,.14,.79,.37,1.13,.69,.34,.32,.61,.74,.81,1.26,.2,.52,.3,1.17,.3,1.93v.53h-6.31v-1.09h5.03c0-.46-.09-.87-.28-1.24-.18-.36-.44-.65-.78-.86s-.73-.31-1.19-.31c-.5,0-.93,.12-1.3,.37-.36,.25-.64,.57-.84,.96-.2,.39-.29,.82-.29,1.27v.72c0,.62,.11,1.14,.32,1.57s.51,.75,.9,.97c.38,.22,.83,.33,1.34,.33,.33,0,.63-.05,.9-.14,.27-.09,.5-.24,.7-.43,.2-.19,.35-.43,.45-.71l1.21,.34c-.13,.41-.34,.77-.64,1.08-.3,.31-.68,.55-1.12,.72s-.94,.26-1.5,.26Z"/><path d="M365.96,111.85v-.96l3.6-3.94c.42-.46,.77-.86,1.04-1.21s.48-.67,.61-.97c.13-.3,.2-.62,.2-.96,0-.38-.09-.72-.28-1-.18-.28-.43-.5-.75-.65s-.67-.23-1.06-.23c-.42,0-.79,.09-1.1,.26-.31,.17-.55,.41-.72,.72-.17,.31-.25,.67-.25,1.09h-1.26c0-.64,.15-1.2,.44-1.68,.29-.48,.7-.86,1.21-1.13s1.08-.41,1.72-.41,1.21,.14,1.7,.41c.49,.27,.88,.63,1.16,1.09s.42,.97,.42,1.53c0,.4-.07,.79-.21,1.17s-.39,.81-.75,1.27-.84,1.04-1.47,1.71l-2.45,2.62v.08h5.07v1.17h-6.88Z"/><path d="M378.6,112c-.8,0-1.49-.22-2.05-.66s-1-1.08-1.29-1.91-.45-1.85-.45-3.03,.15-2.19,.45-3.02c.3-.84,.73-1.48,1.3-1.92,.57-.44,1.25-.66,2.04-.66s1.48,.22,2.04,.66c.57,.44,1,1.08,1.3,1.92s.45,1.84,.45,3.02-.15,2.2-.45,3.03c-.3,.84-.73,1.47-1.29,1.91s-1.25,.66-2.05,.66Zm0-1.17c.79,0,1.41-.38,1.85-1.15,.44-.77,.66-1.86,.66-3.28,0-.95-.1-1.75-.3-2.41s-.49-1.17-.86-1.52c-.38-.35-.82-.52-1.35-.52-.79,0-1.4,.39-1.85,1.16-.44,.78-.67,1.87-.67,3.29,0,.94,.1,1.75,.3,2.41s.49,1.16,.86,1.51c.37,.34,.83,.52,1.36,.52Z"/><path d="M384.42,111.85v-.96l3.6-3.94c.42-.46,.77-.86,1.04-1.21s.48-.67,.61-.97c.13-.3,.2-.62,.2-.96,0-.38-.09-.72-.28-1-.18-.28-.43-.5-.75-.65s-.67-.23-1.06-.23c-.42,0-.79,.09-1.1,.26-.31,.17-.55,.41-.72,.72-.17,.31-.25,.67-.25,1.09h-1.26c0-.64,.15-1.2,.44-1.68,.29-.48,.7-.86,1.21-1.13s1.08-.41,1.72-.41,1.21,.14,1.7,.41c.49,.27,.88,.63,1.16,1.09s.42,.97,.42,1.53c0,.4-.07,.79-.21,1.17s-.39,.81-.75,1.27-.84,1.04-1.47,1.71l-2.45,2.62v.08h5.07v1.17h-6.88Z"/><path d="M397.05,112c-.8,0-1.49-.22-2.05-.66s-1-1.08-1.29-1.91c-.3-.84-.45-1.85-.45-3.03s.15-2.19,.45-3.02,.73-1.48,1.3-1.92c.57-.44,1.25-.66,2.04-.66s1.48,.22,2.04,.66c.57,.44,1,1.08,1.3,1.92,.3,.84,.45,1.84,.45,3.02s-.15,2.2-.45,3.03-.73,1.47-1.29,1.91-1.25,.66-2.05,.66Zm0-1.17c.8,0,1.41-.38,1.85-1.15,.44-.77,.66-1.86,.66-3.28,0-.95-.1-1.75-.3-2.41-.2-.66-.49-1.17-.86-1.52-.38-.35-.83-.52-1.35-.52-.79,0-1.4,.39-1.85,1.16-.44,.78-.67,1.87-.67,3.29,0,.94,.1,1.75,.3,2.41s.48,1.16,.86,1.51c.38,.34,.83,.52,1.36,.52Z"/><path d="M305.28,130.02c-.74,0-1.38-.18-1.94-.53s-.99-.84-1.3-1.48c-.31-.63-.47-1.37-.47-2.22s.15-1.6,.47-2.23c.31-.64,.74-1.13,1.3-1.48s1.2-.53,1.94-.53,1.39,.18,1.94,.53c.56,.35,.99,.84,1.3,1.48s.46,1.38,.46,2.23-.15,1.58-.46,2.22c-.31,.63-.74,1.12-1.3,1.48-.55,.35-1.2,.53-1.94,.53Zm0-1.13c.56,0,1.02-.14,1.38-.43,.36-.29,.63-.67,.8-1.13s.26-.98,.26-1.52-.09-1.06-.26-1.53c-.17-.47-.44-.85-.8-1.15-.36-.29-.82-.44-1.38-.44s-1.02,.15-1.38,.44c-.36,.29-.63,.67-.8,1.15-.17,.47-.26,.98-.26,1.53s.09,1.05,.26,1.52,.44,.85,.8,1.13c.36,.29,.82,.43,1.38,.43Z"/><path d="M310.91,132.92v-11.25h1.21v1.3h.15c.09-.14,.22-.32,.38-.55,.17-.22,.4-.42,.71-.6s.73-.26,1.26-.26c.69,0,1.3,.17,1.82,.52s.94,.83,1.23,1.46,.44,1.38,.44,2.24-.15,1.62-.44,2.25-.7,1.12-1.22,1.47c-.52,.35-1.12,.52-1.81,.52-.53,0-.95-.09-1.26-.26s-.56-.38-.73-.6c-.17-.23-.3-.41-.39-.56h-.11v4.33h-1.26Zm1.24-7.16c0,.62,.09,1.16,.27,1.63s.45,.84,.79,1.1c.35,.26,.77,.4,1.28,.4s.96-.14,1.32-.42c.35-.28,.62-.66,.8-1.13,.18-.47,.27-1,.27-1.58s-.09-1.09-.26-1.56c-.18-.46-.44-.83-.79-1.1-.35-.27-.8-.41-1.33-.41s-.94,.13-1.29,.39c-.35,.26-.61,.62-.79,1.08s-.27,1-.27,1.61Z"/><path d="M320.05,129.85v-8.18h1.21v1.24h.09c.15-.4,.42-.73,.81-.99s.83-.38,1.32-.38c.09,0,.21,0,.35,0,.14,0,.24,0,.31,.02v1.28s-.14-.03-.29-.05c-.15-.02-.31-.03-.48-.03-.4,0-.75,.08-1.06,.25s-.56,.39-.73,.68c-.18,.29-.27,.62-.27,.99v5.18h-1.26Z"/><path d="M328.95,130.02c-.74,0-1.38-.18-1.94-.53s-.99-.84-1.3-1.48c-.31-.63-.47-1.37-.47-2.22s.15-1.6,.47-2.23c.31-.64,.74-1.13,1.3-1.48s1.2-.53,1.94-.53,1.39,.18,1.94,.53c.56,.35,.99,.84,1.3,1.48s.46,1.38,.46,2.23-.15,1.58-.46,2.22c-.31,.63-.74,1.12-1.3,1.48-.55,.35-1.2,.53-1.94,.53Zm0-1.13c.56,0,1.02-.14,1.38-.43,.36-.29,.63-.67,.8-1.13s.26-.98,.26-1.52-.09-1.06-.26-1.53c-.17-.47-.44-.85-.8-1.15-.36-.29-.82-.44-1.38-.44s-1.02,.15-1.38,.44c-.36,.29-.63,.67-.8,1.15-.17,.47-.26,.98-.26,1.53s.09,1.05,.26,1.52,.44,.85,.8,1.13c.36,.29,.82,.43,1.38,.43Z"/><path d="M338.14,121.67v1.07h-4.24v-1.07h4.24Zm-3.01-1.96h1.26v7.8c0,.36,.05,.62,.16,.8,.1,.18,.24,.29,.4,.35,.16,.06,.34,.09,.52,.09,.14,0,.25,0,.34-.02s.16-.03,.21-.04l.26,1.13c-.09,.03-.21,.07-.36,.1-.15,.03-.35,.05-.58,.05-.36,0-.7-.08-1.04-.23-.34-.15-.62-.39-.84-.7s-.33-.71-.33-1.18v-8.14Z"/><path d="M340.67,120.3c-.24,0-.46-.08-.63-.25s-.26-.37-.26-.6,.09-.44,.26-.6,.39-.25,.63-.25,.46,.08,.63,.25,.26,.37,.26,.6-.09,.43-.26,.6-.38,.25-.63,.25Zm-.64,9.55v-8.18h1.26v8.18h-1.26Z"/><path d="M347.81,129.85v-8.18h1.21v1.24h.09c.15-.4,.42-.73,.81-.99s.83-.38,1.32-.38c.09,0,.21,0,.35,0,.14,0,.24,0,.31,.02v1.28s-.14-.03-.29-.05c-.15-.02-.31-.03-.48-.03-.4,0-.75,.08-1.06,.25s-.56,.39-.73,.68c-.18,.29-.27,.62-.27,.99v5.18h-1.26Z"/><path d="M356.72,130.02c-.74,0-1.39-.18-1.94-.53-.56-.35-.99-.84-1.3-1.48-.31-.63-.47-1.37-.47-2.22s.16-1.6,.47-2.23,.74-1.13,1.3-1.48c.55-.35,1.2-.53,1.94-.53s1.38,.18,1.94,.53c.55,.35,.99,.84,1.3,1.48s.47,1.38,.47,2.23-.16,1.58-.47,2.22c-.31,.63-.74,1.12-1.3,1.48-.56,.35-1.2,.53-1.94,.53Zm0-1.13c.56,0,1.02-.14,1.38-.43,.36-.29,.63-.67,.8-1.13,.17-.47,.26-.98,.26-1.52s-.09-1.06-.26-1.53c-.18-.47-.44-.85-.8-1.15-.36-.29-.82-.44-1.38-.44s-1.02,.15-1.38,.44c-.36,.29-.63,.67-.8,1.15-.17,.47-.26,.98-.26,1.53s.09,1.05,.26,1.52,.44,.85,.8,1.13c.36,.29,.82,.43,1.38,.43Z"/><path d="M362.34,129.85v-10.91h1.26v10.91h-1.26Zm1.17-2.98l-.02-1.55h.26l3.58-3.64h1.55l-3.81,3.86h-.11l-1.45,1.34Zm4.03,2.98l-3.2-4.05,.89-.87,3.9,4.92h-1.6Z"/><path d="M375.66,126.5v-4.84h1.26v8.18h-1.26v-1.38h-.08c-.19,.42-.49,.77-.89,1.06-.41,.29-.92,.43-1.54,.43-.51,0-.97-.11-1.36-.34-.4-.23-.71-.57-.94-1.02-.23-.46-.34-1.03-.34-1.73v-5.2h1.26v5.11c0,.6,.17,1.07,.5,1.43s.76,.53,1.29,.53c.31,0,.63-.08,.96-.24s.6-.41,.82-.74c.22-.33,.33-.75,.33-1.26Z"/><path d="M387.25,118.94v10.91h-1.32v-9.52h-.06l-2.66,1.77v-1.34l2.73-1.81h1.32Z"/><path d="M393.86,118.79c.45,0,.89,.09,1.34,.26s.86,.44,1.22,.83c.37,.39,.67,.91,.89,1.57,.22,.66,.33,1.5,.33,2.5s-.09,1.83-.27,2.58-.45,1.38-.79,1.9c-.34,.51-.76,.91-1.25,1.17-.49,.27-1.04,.4-1.65,.4s-1.15-.12-1.63-.37c-.48-.24-.87-.58-1.17-1.02-.3-.43-.5-.94-.58-1.52h1.3c.12,.5,.35,.91,.7,1.24,.35,.32,.81,.49,1.39,.49,.84,0,1.51-.37,2-1.1,.49-.74,.73-1.77,.73-3.12h-.09c-.2,.3-.44,.56-.71,.77-.27,.22-.58,.38-.91,.5s-.69,.18-1.06,.18c-.63,0-1.2-.16-1.72-.47s-.94-.74-1.25-1.28c-.31-.55-.47-1.17-.47-1.87,0-.67,.15-1.28,.45-1.83,.3-.56,.72-1,1.27-1.33s1.19-.49,1.93-.48Zm0,1.17c-.45,0-.85,.11-1.21,.33-.36,.22-.64,.52-.85,.9-.21,.37-.31,.79-.31,1.24s.1,.87,.3,1.24c.2,.37,.47,.67,.83,.88,.35,.22,.75,.33,1.2,.33,.34,0,.65-.07,.94-.2,.29-.13,.54-.32,.76-.55s.39-.5,.51-.79c.12-.3,.19-.61,.19-.93,0-.43-.1-.83-.31-1.2-.21-.37-.48-.67-.84-.91s-.76-.35-1.22-.35Z"/><path d="M403.21,118.79c.45,0,.89,.09,1.34,.26s.86,.44,1.22,.83c.37,.39,.67,.91,.89,1.57,.22,.66,.33,1.5,.33,2.5s-.09,1.83-.27,2.58-.45,1.38-.79,1.9c-.34,.51-.76,.91-1.25,1.17-.49,.27-1.04,.4-1.65,.4s-1.15-.12-1.63-.37c-.48-.24-.87-.58-1.17-1.02-.3-.43-.5-.94-.58-1.52h1.3c.12,.5,.35,.91,.7,1.24,.35,.32,.81,.49,1.39,.49,.84,0,1.51-.37,2-1.1,.49-.74,.73-1.77,.73-3.12h-.09c-.2,.3-.44,.56-.71,.77-.27,.22-.58,.38-.91,.5s-.69,.18-1.06,.18c-.63,0-1.2-.16-1.72-.47s-.94-.74-1.25-1.28c-.31-.55-.47-1.17-.47-1.87,0-.67,.15-1.28,.45-1.83,.3-.56,.72-1,1.27-1.33s1.19-.49,1.93-.48Zm0,1.17c-.45,0-.85,.11-1.21,.33-.36,.22-.64,.52-.85,.9-.21,.37-.31,.79-.31,1.24s.1,.87,.3,1.24c.2,.37,.47,.67,.83,.88,.35,.22,.75,.33,1.2,.33,.34,0,.65-.07,.94-.2,.29-.13,.54-.32,.76-.55s.39-.5,.51-.79c.12-.3,.19-.61,.19-.93,0-.43-.1-.83-.31-1.2-.21-.37-.48-.67-.84-.91s-.76-.35-1.22-.35Z"/><path d="M412.65,130c-.8,0-1.49-.22-2.05-.66s-1-1.08-1.29-1.91c-.3-.84-.45-1.85-.45-3.03s.15-2.19,.45-3.02,.73-1.48,1.3-1.92c.57-.44,1.25-.66,2.04-.66s1.48,.22,2.04,.66c.57,.44,1,1.08,1.3,1.92,.3,.84,.45,1.84,.45,3.02s-.15,2.2-.45,3.03-.73,1.47-1.29,1.91-1.25,.66-2.05,.66Zm0-1.17c.8,0,1.41-.38,1.85-1.15,.44-.77,.66-1.86,.66-3.28,0-.95-.1-1.75-.3-2.41-.2-.66-.49-1.17-.86-1.52-.38-.35-.83-.52-1.35-.52-.79,0-1.4,.39-1.85,1.16-.44,.78-.67,1.87-.67,3.29,0,.94,.1,1.75,.3,2.41s.48,1.16,.86,1.51c.38,.34,.83,.52,1.36,.52Z"/></g><g><line class="h" x1="359.07" y1="140.31" x2="359.07" y2="174.05"/><polygon class="j" points="356.01 171.57 356.55 171.06 359.07 173.77 361.59 171.06 362.14 171.57 359.07 174.87 356.01 171.57"/></g></g><g><line class="h" x1="655.36" y1="284.18" x2="655.36" y2="317.92"/><polygon class="j" points="652.29 315.44 652.84 314.92 655.36 317.63 657.87 314.92 658.42 315.44 655.36 318.73 652.29 315.44"/></g><rect class="m" x="452.89" y="230.82" width="9.89" height="95.3"/><line class="c" x1="55.4" y1="196.05" x2="445.01" y2="196.05"/><line class="c" x1="55.4" y1="282.76" x2="582.95" y2="282.76"/><line class="d" x1="61.37" y1="326.63" x2="655.81" y2="326.63"/><line class="c" x1="55.4" y1="239.4" x2="509.66" y2="239.4"/><g><path class="m" d="M441.44,136.83v1.92h-5.31v-1.92h5.31Z"/><path class="m" d="M447.73,142.72c-.8,0-1.52-.15-2.14-.44-.63-.29-1.12-.7-1.49-1.22-.37-.52-.56-1.11-.57-1.78h2.38c.03,.45,.22,.82,.57,1.1,.35,.28,.77,.42,1.26,.42,.39,0,.73-.09,1.03-.26,.3-.17,.53-.41,.7-.72s.25-.66,.25-1.07-.09-.77-.26-1.08-.41-.55-.71-.73-.65-.26-1.04-.27c-.34,0-.67,.07-.99,.21-.32,.14-.57,.33-.75,.57l-2.19-.39,.55-6.14h7.11v2.01h-5.09l-.3,2.92h.07c.21-.29,.51-.53,.93-.72,.41-.19,.88-.28,1.39-.28,.7,0,1.33,.16,1.88,.49,.55,.33,.98,.78,1.3,1.36,.32,.57,.48,1.23,.47,1.98,0,.78-.18,1.48-.54,2.09-.37,.61-.88,1.09-1.53,1.43-.65,.35-1.41,.52-2.28,.52Z"/><path class="m" d="M458.04,142.72c-.8,0-1.52-.15-2.14-.44-.63-.29-1.12-.7-1.49-1.22-.37-.52-.56-1.11-.57-1.78h2.38c.03,.45,.22,.82,.57,1.1,.35,.28,.77,.42,1.26,.42,.39,0,.73-.09,1.03-.26,.3-.17,.53-.41,.7-.72s.25-.66,.25-1.07-.09-.77-.26-1.08-.41-.55-.71-.73-.65-.26-1.04-.27c-.34,0-.67,.07-.99,.21-.32,.14-.57,.33-.75,.57l-2.19-.39,.55-6.14h7.11v2.01h-5.09l-.3,2.92h.07c.21-.29,.51-.53,.93-.72,.41-.19,.88-.28,1.39-.28,.7,0,1.33,.16,1.88,.49,.55,.33,.98,.78,1.3,1.36,.32,.57,.48,1.23,.47,1.98,0,.78-.18,1.48-.54,2.09-.37,.61-.88,1.09-1.53,1.43-.65,.35-1.41,.52-2.28,.52Z"/><path class="m" d="M468.21,133.72v-.61c0-.47,.1-.9,.3-1.29,.2-.39,.49-.71,.87-.94,.38-.23,.84-.35,1.38-.35s1.03,.12,1.41,.35c.38,.24,.67,.55,.86,.94,.2,.39,.29,.82,.29,1.29v.61c0,.47-.1,.9-.3,1.29-.2,.39-.49,.7-.87,.93-.38,.23-.85,.35-1.4,.35s-1.02-.12-1.4-.36-.67-.55-.86-.94-.29-.82-.29-1.28Zm.75,8.84l8-11.64h1.49l-8,11.64h-1.49Zm.92-9.45v.61c0,.28,.06,.53,.2,.77,.13,.24,.36,.35,.7,.35,.35,0,.59-.12,.71-.35,.13-.23,.19-.49,.19-.77v-.61c0-.28-.06-.53-.18-.77-.12-.24-.36-.36-.72-.36-.34,0-.57,.12-.7,.36-.13,.24-.19,.5-.19,.77Zm4.31,7.27v-.61c0-.47,.1-.89,.3-1.29,.2-.39,.49-.71,.87-.94,.38-.24,.85-.36,1.39-.36s1.03,.12,1.41,.35c.38,.23,.67,.55,.86,.94,.2,.39,.29,.82,.29,1.29v.61c0,.47-.1,.89-.3,1.29-.2,.39-.49,.71-.87,.94-.38,.24-.85,.36-1.4,.36s-1.03-.12-1.4-.36c-.38-.24-.67-.55-.86-.94-.2-.39-.29-.82-.29-1.29Zm1.65-.61v.61c0,.27,.07,.52,.2,.76,.13,.24,.37,.36,.71,.36s.58-.12,.71-.35c.13-.23,.19-.49,.19-.77v-.61c0-.28-.06-.53-.18-.77-.12-.24-.36-.36-.71-.36s-.58,.12-.71,.36c-.13,.24-.2,.5-.2,.77Z"/><path d="M414.34,160.74c-.68,0-1.29-.17-1.81-.52-.52-.35-.93-.84-1.22-1.47s-.44-1.38-.44-2.25,.15-1.61,.44-2.24,.71-1.12,1.23-1.46,1.13-.52,1.82-.52c.53,0,.95,.09,1.26,.26s.55,.37,.71,.6c.16,.22,.29,.4,.38,.55h.11v-4.03h1.26v10.91h-1.21v-1.26h-.15c-.09,.15-.22,.34-.39,.56-.17,.23-.41,.43-.73,.6s-.74,.26-1.26,.26Zm.17-1.13c.5,0,.93-.13,1.28-.4,.35-.26,.61-.63,.79-1.1s.27-1.01,.27-1.63-.09-1.15-.27-1.61c-.18-.46-.44-.82-.79-1.08-.35-.26-.78-.39-1.29-.39s-.98,.14-1.33,.41c-.35,.27-.62,.64-.79,1.1-.18,.46-.26,.98-.26,1.56s.09,1.11,.27,1.58c.18,.47,.45,.85,.8,1.13,.35,.28,.79,.42,1.32,.42Z"/><path d="M423.88,160.74c-.74,0-1.39-.18-1.94-.53-.56-.35-.99-.84-1.3-1.48-.31-.63-.47-1.37-.47-2.22s.16-1.6,.47-2.23,.74-1.13,1.3-1.48c.55-.35,1.2-.53,1.94-.53s1.38,.18,1.94,.53c.55,.35,.99,.84,1.3,1.48s.47,1.38,.47,2.23-.16,1.58-.47,2.22c-.31,.63-.74,1.12-1.3,1.48-.56,.35-1.2,.53-1.94,.53Zm0-1.13c.56,0,1.02-.14,1.38-.43,.36-.29,.63-.67,.8-1.13,.17-.47,.26-.98,.26-1.52s-.09-1.06-.26-1.53c-.18-.47-.44-.85-.8-1.15-.36-.29-.82-.44-1.38-.44s-1.02,.15-1.38,.44c-.36,.29-.63,.67-.8,1.15-.17,.47-.26,.98-.26,1.53s.09,1.05,.26,1.52,.44,.85,.8,1.13c.36,.29,.82,.43,1.38,.43Z"/><path d="M433.72,160.56v-8.18h1.21v1.24h.08c.15-.4,.42-.73,.81-.99s.83-.38,1.32-.38c.09,0,.21,0,.35,0,.14,0,.24,0,.31,.02v1.28s-.14-.03-.29-.05c-.15-.02-.31-.03-.48-.03-.4,0-.75,.08-1.06,.25-.31,.17-.56,.39-.74,.68-.18,.29-.27,.62-.27,.99v5.18h-1.26Z"/><path d="M442.63,160.74c-.74,0-1.39-.18-1.94-.53-.56-.35-.99-.84-1.3-1.48-.31-.63-.47-1.37-.47-2.22s.16-1.6,.47-2.23,.74-1.13,1.3-1.48c.55-.35,1.2-.53,1.94-.53s1.38,.18,1.94,.53c.55,.35,.99,.84,1.3,1.48s.47,1.38,.47,2.23-.16,1.58-.47,2.22c-.31,.63-.74,1.12-1.3,1.48-.56,.35-1.2,.53-1.94,.53Zm0-1.13c.56,0,1.02-.14,1.38-.43,.36-.29,.63-.67,.8-1.13,.17-.47,.26-.98,.26-1.52s-.09-1.06-.26-1.53c-.18-.47-.44-.85-.8-1.15-.36-.29-.82-.44-1.38-.44s-1.02,.15-1.38,.44c-.36,.29-.63,.67-.8,1.15-.17,.47-.26,.98-.26,1.53s.09,1.05,.26,1.52,.44,.85,.8,1.13c.36,.29,.82,.43,1.38,.43Z"/><path d="M448.26,160.56v-10.91h1.26v10.91h-1.26Zm1.17-2.98l-.02-1.55h.26l3.58-3.64h1.55l-3.81,3.86h-.11l-1.45,1.34Zm4.03,2.98l-3.2-4.05,.89-.87,3.9,4.92h-1.6Z"/><path d="M461.57,157.22v-4.84h1.26v8.18h-1.26v-1.38h-.09c-.19,.42-.49,.77-.89,1.06-.4,.29-.92,.43-1.53,.43-.51,0-.97-.11-1.37-.34-.4-.23-.71-.57-.94-1.02-.23-.46-.34-1.03-.34-1.73v-5.2h1.26v5.11c0,.6,.17,1.07,.5,1.43s.77,.53,1.29,.53c.31,0,.63-.08,.96-.24,.33-.16,.6-.41,.82-.74,.22-.33,.33-.75,.33-1.26Z"/><path d="M469.33,160.56v-.96l3.6-3.94c.42-.46,.77-.86,1.04-1.21s.48-.67,.61-.97,.2-.62,.2-.96c0-.38-.09-.72-.27-1-.18-.28-.43-.5-.75-.65-.32-.15-.67-.23-1.07-.23-.42,0-.78,.09-1.09,.26-.31,.17-.55,.41-.72,.72-.17,.31-.25,.67-.25,1.09h-1.26c0-.64,.15-1.2,.44-1.68,.29-.48,.7-.86,1.21-1.13s1.08-.41,1.72-.41,1.21,.14,1.7,.41,.88,.63,1.16,1.09c.28,.46,.42,.97,.42,1.53,0,.4-.07,.79-.22,1.17-.14,.38-.39,.81-.74,1.27s-.84,1.04-1.47,1.71l-2.45,2.62v.08h5.07v1.17h-6.88Z"/><path d="M481.96,160.71c-.8,0-1.49-.22-2.05-.66s-1-1.08-1.29-1.91-.45-1.85-.45-3.03,.15-2.19,.45-3.02c.3-.84,.73-1.48,1.3-1.92,.57-.44,1.25-.66,2.04-.66s1.48,.22,2.04,.66c.57,.44,1,1.08,1.3,1.92s.45,1.84,.45,3.02-.15,2.2-.45,3.03c-.3,.84-.73,1.47-1.29,1.91s-1.25,.66-2.05,.66Zm0-1.17c.79,0,1.41-.38,1.85-1.15,.44-.77,.66-1.86,.66-3.28,0-.95-.1-1.75-.3-2.41s-.49-1.17-.86-1.52c-.38-.35-.82-.52-1.35-.52-.79,0-1.4,.39-1.85,1.16-.44,.78-.67,1.87-.67,3.29,0,.94,.1,1.75,.3,2.41s.49,1.16,.86,1.51c.37,.34,.83,.52,1.36,.52Z"/><path d="M491.46,160.71c-.7,0-1.33-.12-1.88-.36s-.98-.58-1.3-1.01c-.32-.43-.5-.93-.53-1.5h1.34c.03,.35,.15,.65,.36,.91s.49,.45,.84,.59,.73,.21,1.14,.21c.47,0,.88-.08,1.25-.25,.36-.16,.65-.39,.85-.68,.21-.29,.31-.63,.31-1.01s-.1-.75-.3-1.06c-.2-.31-.49-.55-.87-.72s-.85-.26-1.41-.26h-.87v-1.17h.87c.43,0,.81-.08,1.14-.23s.59-.38,.77-.66c.19-.28,.28-.62,.28-1s-.08-.69-.25-.96c-.16-.27-.39-.49-.69-.64s-.64-.23-1.05-.23c-.38,0-.73,.07-1.06,.21s-.6,.33-.81,.59-.32,.57-.34,.93h-1.28c.02-.57,.19-1.07,.52-1.5,.32-.43,.75-.77,1.27-1.01,.52-.24,1.1-.36,1.73-.36,.67,0,1.25,.14,1.74,.41,.48,.27,.85,.63,1.11,1.07,.26,.44,.39,.92,.39,1.44,0,.62-.16,1.14-.48,1.57-.32,.43-.76,.73-1.31,.9v.09c.69,.11,1.23,.41,1.61,.88s.58,1.05,.58,1.74c0,.59-.16,1.12-.48,1.6-.32,.47-.76,.84-1.31,1.11-.55,.27-1.18,.41-1.89,.41Z"/><path d="M500.88,160.71c-.8,0-1.49-.22-2.05-.66s-1-1.08-1.29-1.91-.45-1.85-.45-3.03,.15-2.19,.45-3.02c.3-.84,.73-1.48,1.3-1.92,.57-.44,1.25-.66,2.04-.66s1.48,.22,2.04,.66c.57,.44,1,1.08,1.3,1.92s.45,1.84,.45,3.02-.15,2.2-.45,3.03c-.3,.84-.73,1.47-1.29,1.91s-1.25,.66-2.05,.66Zm0-1.17c.79,0,1.41-.38,1.85-1.15,.44-.77,.66-1.86,.66-3.28,0-.95-.1-1.75-.3-2.41s-.49-1.17-.86-1.52c-.38-.35-.82-.52-1.35-.52-.79,0-1.4,.39-1.85,1.16-.44,.78-.67,1.87-.67,3.29,0,.94,.1,1.75,.3,2.41s.49,1.16,.86,1.51c.37,.34,.83,.52,1.36,.52Z"/><path d="M404.04,178.74c-.74,0-1.39-.18-1.94-.53-.56-.35-.99-.84-1.3-1.48-.31-.63-.47-1.37-.47-2.22s.16-1.6,.47-2.23,.74-1.13,1.3-1.48c.55-.35,1.2-.53,1.94-.53s1.38,.18,1.94,.53c.55,.35,.99,.84,1.3,1.48s.47,1.38,.47,2.23-.16,1.58-.47,2.22c-.31,.63-.74,1.12-1.3,1.48-.56,.35-1.2,.53-1.94,.53Zm0-1.13c.56,0,1.02-.14,1.38-.43,.36-.29,.63-.67,.8-1.13,.17-.47,.26-.98,.26-1.52s-.09-1.06-.26-1.53c-.18-.47-.44-.85-.8-1.15-.36-.29-.82-.44-1.38-.44s-1.02,.15-1.38,.44c-.36,.29-.63,.67-.8,1.15-.17,.47-.26,.98-.26,1.53s.09,1.05,.26,1.52,.44,.85,.8,1.13c.36,.29,.82,.43,1.38,.43Z"/><path d="M409.67,181.63v-11.25h1.21v1.3h.15c.09-.14,.22-.32,.39-.55,.16-.22,.4-.42,.71-.6s.73-.26,1.27-.26c.69,0,1.3,.17,1.82,.52s.94,.83,1.23,1.46,.44,1.38,.44,2.24-.15,1.62-.44,2.25-.7,1.12-1.23,1.47c-.52,.35-1.12,.52-1.8,.52-.53,0-.95-.09-1.26-.26-.31-.18-.56-.38-.73-.6s-.3-.41-.39-.56h-.11v4.33h-1.26Zm1.24-7.16c0,.62,.09,1.16,.27,1.63,.18,.47,.45,.84,.79,1.1s.77,.4,1.28,.4,.96-.14,1.32-.42c.35-.28,.62-.66,.8-1.13,.18-.47,.27-1,.27-1.58s-.09-1.09-.26-1.56c-.18-.46-.44-.83-.79-1.1-.35-.27-.8-.41-1.33-.41s-.94,.13-1.29,.39c-.35,.26-.61,.62-.79,1.08s-.27,1-.27,1.61Z"/><path d="M418.81,178.56v-8.18h1.21v1.24h.08c.15-.4,.42-.73,.81-.99s.83-.38,1.32-.38c.09,0,.21,0,.35,0,.14,0,.24,0,.31,.02v1.28s-.14-.03-.29-.05c-.15-.02-.31-.03-.48-.03-.4,0-.75,.08-1.06,.25-.31,.17-.56,.39-.74,.68-.18,.29-.27,.62-.27,.99v5.18h-1.26Z"/><path d="M427.72,178.74c-.74,0-1.39-.18-1.94-.53-.56-.35-.99-.84-1.3-1.48-.31-.63-.47-1.37-.47-2.22s.16-1.6,.47-2.23,.74-1.13,1.3-1.48c.55-.35,1.2-.53,1.94-.53s1.38,.18,1.94,.53c.55,.35,.99,.84,1.3,1.48s.47,1.38,.47,2.23-.16,1.58-.47,2.22c-.31,.63-.74,1.12-1.3,1.48-.56,.35-1.2,.53-1.94,.53Zm0-1.13c.56,0,1.02-.14,1.38-.43,.36-.29,.63-.67,.8-1.13,.17-.47,.26-.98,.26-1.52s-.09-1.06-.26-1.53c-.18-.47-.44-.85-.8-1.15-.36-.29-.82-.44-1.38-.44s-1.02,.15-1.38,.44c-.36,.29-.63,.67-.8,1.15-.17,.47-.26,.98-.26,1.53s.09,1.05,.26,1.52,.44,.85,.8,1.13c.36,.29,.82,.43,1.38,.43Z"/><path d="M436.9,170.38v1.07h-4.24v-1.07h4.24Zm-3-1.96h1.26v7.8c0,.36,.05,.62,.16,.8s.24,.29,.4,.35c.17,.06,.34,.09,.53,.09,.14,0,.25,0,.34-.02,.09-.02,.16-.03,.21-.04l.26,1.13c-.09,.03-.21,.07-.36,.1-.15,.03-.35,.05-.58,.05-.36,0-.7-.08-1.04-.23-.34-.15-.62-.39-.84-.7-.22-.31-.33-.71-.33-1.18v-8.14Z"/><path d="M439.44,169.02c-.25,0-.46-.08-.63-.25s-.26-.37-.26-.6,.09-.44,.26-.6,.39-.25,.63-.25,.46,.08,.63,.25,.26,.37,.26,.6-.09,.43-.26,.6-.39,.25-.63,.25Zm-.64,9.55v-8.18h1.26v8.18h-1.26Z"/><path d="M446.57,178.56v-8.18h1.21v1.24h.08c.15-.4,.42-.73,.81-.99s.83-.38,1.32-.38c.09,0,.21,0,.35,0,.14,0,.24,0,.31,.02v1.28s-.14-.03-.29-.05c-.15-.02-.31-.03-.48-.03-.4,0-.75,.08-1.06,.25-.31,.17-.56,.39-.74,.68-.18,.29-.27,.62-.27,.99v5.18h-1.26Z"/><path d="M455.48,178.74c-.74,0-1.38-.18-1.94-.53s-.99-.84-1.3-1.48c-.31-.63-.47-1.37-.47-2.22s.15-1.6,.47-2.23c.31-.64,.74-1.13,1.3-1.48s1.2-.53,1.94-.53,1.39,.18,1.94,.53c.56,.35,.99,.84,1.3,1.48s.46,1.38,.46,2.23-.15,1.58-.46,2.22c-.31,.63-.74,1.12-1.3,1.48-.55,.35-1.2,.53-1.94,.53Zm0-1.13c.56,0,1.02-.14,1.38-.43,.36-.29,.63-.67,.8-1.13s.26-.98,.26-1.52-.09-1.06-.26-1.53c-.17-.47-.44-.85-.8-1.15-.36-.29-.82-.44-1.38-.44s-1.02,.15-1.38,.44c-.36,.29-.63,.67-.8,1.15-.17,.47-.26,.98-.26,1.53s.09,1.05,.26,1.52,.44,.85,.8,1.13c.36,.29,.82,.43,1.38,.43Z"/><path d="M461.1,178.56v-10.91h1.26v10.91h-1.26Zm1.17-2.98l-.02-1.55h.26l3.58-3.64h1.55l-3.81,3.86h-.11l-1.45,1.34Zm4.03,2.98l-3.2-4.05,.89-.87,3.9,4.92h-1.6Z"/><path d="M474.42,175.22v-4.84h1.26v8.18h-1.26v-1.38h-.09c-.19,.42-.49,.77-.89,1.06-.4,.29-.92,.43-1.53,.43-.51,0-.97-.11-1.37-.34-.4-.23-.71-.57-.94-1.02-.23-.46-.34-1.03-.34-1.73v-5.2h1.26v5.11c0,.6,.17,1.07,.5,1.43s.77,.53,1.29,.53c.31,0,.63-.08,.96-.24,.33-.16,.6-.41,.82-.74,.22-.33,.33-.75,.33-1.26Z"/><path d="M486.01,167.66v10.91h-1.32v-9.52h-.06l-2.66,1.77v-1.34l2.73-1.81h1.32Z"/><path d="M492.62,167.51c.45,0,.89,.09,1.34,.26s.86,.44,1.23,.83c.37,.39,.67,.91,.89,1.57,.22,.66,.34,1.5,.34,2.5s-.09,1.83-.28,2.58c-.18,.75-.45,1.38-.79,1.9-.34,.51-.76,.91-1.25,1.17-.49,.27-1.04,.4-1.65,.4s-1.16-.12-1.63-.37c-.48-.24-.87-.58-1.17-1.02-.3-.43-.5-.94-.58-1.52h1.3c.12,.5,.35,.91,.7,1.24,.35,.32,.81,.49,1.39,.49,.84,0,1.51-.37,1.99-1.1,.49-.74,.73-1.77,.73-3.12h-.08c-.2,.3-.44,.56-.71,.77-.27,.22-.58,.38-.91,.5-.33,.12-.69,.18-1.06,.18-.62,0-1.2-.16-1.72-.47-.52-.31-.94-.74-1.25-1.28-.31-.55-.46-1.17-.46-1.87,0-.67,.15-1.28,.45-1.83s.72-1,1.27-1.33,1.19-.49,1.93-.48Zm0,1.17c-.45,0-.85,.11-1.21,.33-.36,.22-.64,.52-.85,.9-.21,.37-.31,.79-.31,1.24s.1,.87,.3,1.24c.2,.37,.48,.67,.83,.88s.75,.33,1.2,.33c.34,0,.65-.07,.94-.2,.29-.13,.55-.32,.76-.55,.22-.23,.39-.5,.52-.79,.12-.3,.19-.61,.19-.93,0-.43-.1-.83-.31-1.2-.2-.37-.48-.67-.84-.91-.36-.23-.76-.35-1.22-.35Z"/><path d="M501.97,167.51c.45,0,.89,.09,1.34,.26s.86,.44,1.23,.83c.37,.39,.67,.91,.89,1.57,.22,.66,.34,1.5,.34,2.5s-.09,1.83-.28,2.58c-.18,.75-.45,1.38-.79,1.9-.34,.51-.76,.91-1.25,1.17-.49,.27-1.04,.4-1.65,.4s-1.16-.12-1.63-.37c-.48-.24-.87-.58-1.17-1.02-.3-.43-.5-.94-.58-1.52h1.3c.12,.5,.35,.91,.7,1.24,.35,.32,.81,.49,1.39,.49,.84,0,1.51-.37,1.99-1.1,.49-.74,.73-1.77,.73-3.12h-.08c-.2,.3-.44,.56-.71,.77-.27,.22-.58,.38-.91,.5-.33,.12-.69,.18-1.06,.18-.62,0-1.2-.16-1.72-.47-.52-.31-.94-.74-1.25-1.28-.31-.55-.46-1.17-.46-1.87,0-.67,.15-1.28,.45-1.83s.72-1,1.27-1.33,1.19-.49,1.93-.48Zm0,1.17c-.45,0-.85,.11-1.21,.33-.36,.22-.64,.52-.85,.9-.21,.37-.31,.79-.31,1.24s.1,.87,.3,1.24c.2,.37,.48,.67,.83,.88s.75,.33,1.2,.33c.34,0,.65-.07,.94-.2,.29-.13,.55-.32,.76-.55,.22-.23,.39-.5,.52-.79,.12-.3,.19-.61,.19-.93,0-.43-.1-.83-.31-1.2-.2-.37-.48-.67-.84-.91-.36-.23-.76-.35-1.22-.35Z"/><path d="M511.41,178.71c-.8,0-1.49-.22-2.05-.66s-1-1.08-1.29-1.91-.45-1.85-.45-3.03,.15-2.19,.45-3.02c.3-.84,.73-1.48,1.3-1.92,.57-.44,1.25-.66,2.04-.66s1.48,.22,2.04,.66c.57,.44,1,1.08,1.3,1.92s.45,1.84,.45,3.02-.15,2.2-.45,3.03c-.3,.84-.73,1.47-1.29,1.91s-1.25,.66-2.05,.66Zm0-1.17c.79,0,1.41-.38,1.85-1.15,.44-.77,.66-1.86,.66-3.28,0-.95-.1-1.75-.3-2.41s-.49-1.17-.86-1.52c-.38-.35-.82-.52-1.35-.52-.79,0-1.4,.39-1.85,1.16-.44,.78-.67,1.87-.67,3.29,0,.94,.1,1.75,.3,2.41s.49,1.16,.86,1.51c.37,.34,.83,.52,1.36,.52Z"/></g><g><path class="m" d="M574.03,255.72v-11.64h2.46v5.13h.15l4.19-5.13h2.95l-4.32,5.21,4.37,6.43h-2.94l-3.19-4.78-1.21,1.48v3.31h-2.46Z"/><path class="m" d="M587.44,244.08v11.64h-2.42v-11.64h2.42Z"/><path class="m" d="M590.58,245.86c-.36,0-.67-.12-.92-.36s-.38-.53-.38-.87,.13-.62,.38-.86,.56-.36,.92-.36,.67,.12,.92,.36c.25,.24,.38,.53,.38,.86s-.13,.63-.38,.87c-.26,.24-.56,.36-.92,.36Zm-1.22,9.85v-8.73h2.42v8.73h-2.42Z"/><path class="m" d="M593.72,255.72v-8.73h2.31v1.54h.1c.18-.51,.48-.92,.91-1.21,.42-.3,.93-.44,1.52-.44s1.11,.15,1.53,.45c.42,.3,.7,.7,.84,1.21h.09c.18-.5,.5-.9,.97-1.2,.47-.3,1.02-.45,1.66-.45,.81,0,1.48,.26,1.99,.78,.51,.52,.76,1.25,.76,2.2v5.87h-2.41v-5.39c0-.49-.13-.85-.39-1.09-.26-.24-.58-.36-.97-.36-.44,0-.78,.14-1.03,.42s-.37,.64-.37,1.1v5.33h-2.35v-5.44c0-.43-.12-.77-.37-1.02-.24-.25-.57-.38-.96-.38-.27,0-.51,.07-.72,.2-.21,.13-.38,.32-.51,.56-.12,.24-.19,.52-.19,.84v5.24h-2.42Z"/><path class="m" d="M610.8,255.88c-.56,0-1.05-.1-1.49-.29s-.78-.48-1.03-.87-.38-.86-.38-1.44c0-.48,.09-.89,.27-1.22,.18-.33,.42-.59,.73-.79,.31-.2,.66-.35,1.05-.46,.39-.1,.8-.17,1.24-.22,.51-.05,.92-.1,1.23-.15,.31-.05,.54-.12,.68-.21,.14-.09,.21-.24,.21-.42v-.03c0-.36-.11-.64-.34-.83-.22-.2-.54-.3-.96-.3-.44,0-.78,.1-1.04,.29-.26,.19-.43,.43-.51,.72l-2.24-.18c.11-.53,.34-.99,.67-1.38,.33-.39,.76-.69,1.29-.9,.53-.21,1.14-.32,1.84-.32,.48,0,.95,.06,1.39,.17,.45,.11,.84,.29,1.19,.53,.35,.24,.62,.54,.82,.92,.2,.37,.3,.82,.3,1.34v5.89h-2.29v-1.21h-.07c-.14,.27-.33,.51-.56,.72-.24,.21-.52,.37-.85,.48-.33,.12-.71,.17-1.14,.17Zm.69-1.67c.36,0,.67-.07,.94-.21s.49-.33,.64-.58c.16-.24,.23-.52,.23-.82v-.93c-.08,.05-.18,.09-.31,.13s-.28,.08-.44,.11-.33,.06-.49,.08c-.16,.02-.31,.05-.44,.07-.28,.04-.53,.11-.74,.2-.21,.09-.38,.21-.49,.37-.12,.15-.18,.34-.18,.57,0,.33,.12,.58,.36,.75,.24,.17,.55,.26,.92,.26Z"/><path class="m" d="M622.24,246.99v1.82h-5.26v-1.82h5.26Zm-4.06-2.09h2.42v8.14c0,.22,.03,.4,.1,.52s.16,.21,.29,.26,.27,.07,.43,.07c.11,0,.23-.01,.34-.03,.11-.02,.2-.04,.26-.05l.38,1.8c-.12,.04-.29,.08-.51,.13-.22,.05-.49,.08-.8,.09-.58,.02-1.09-.05-1.53-.23-.44-.18-.78-.46-1.02-.83s-.36-.85-.36-1.42v-8.46Z"/><path class="m" d="M625.02,245.86c-.36,0-.67-.12-.92-.36s-.38-.53-.38-.87,.13-.62,.38-.86,.56-.36,.92-.36,.67,.12,.92,.36c.25,.24,.38,.53,.38,.86s-.13,.63-.38,.87c-.26,.24-.56,.36-.92,.36Zm-1.22,9.85v-8.73h2.42v8.73h-2.42Z"/><path class="m" d="M632.1,255.89c-.89,0-1.66-.19-2.3-.57-.64-.38-1.13-.91-1.48-1.59-.34-.68-.51-1.46-.51-2.34s.17-1.68,.52-2.36,.84-1.21,1.48-1.58c.64-.38,1.4-.57,2.28-.57,.76,0,1.43,.14,2,.42,.57,.28,1.02,.66,1.36,1.16,.33,.5,.52,1.09,.55,1.76h-2.28c-.06-.44-.23-.79-.51-1.05-.28-.27-.63-.4-1.08-.4-.38,0-.7,.1-.98,.3-.28,.2-.5,.5-.65,.88-.16,.39-.23,.85-.23,1.4s.08,1.03,.23,1.42c.15,.39,.37,.69,.65,.89,.28,.2,.61,.31,.98,.31,.28,0,.53-.06,.75-.17,.22-.11,.41-.28,.55-.5,.15-.22,.24-.48,.29-.79h2.28c-.04,.67-.22,1.25-.54,1.76-.32,.51-.77,.9-1.34,1.18-.57,.28-1.24,.43-2.02,.43Z"/><path class="m" d="M637.56,255.72v-11.64h2.42v11.64h-2.42Zm2.19-2.51v-2.9h.36l2.8-3.31h2.78l-3.76,4.39h-.57l-1.6,1.83Zm3.26,2.51l-2.57-3.8,1.61-1.71,3.79,5.51h-2.83Z"/><path class="m" d="M649.35,255.88c-.56,0-1.05-.1-1.49-.29s-.78-.48-1.03-.87-.38-.86-.38-1.44c0-.48,.09-.89,.27-1.22,.18-.33,.42-.59,.73-.79,.31-.2,.66-.35,1.05-.46,.39-.1,.8-.17,1.24-.22,.51-.05,.92-.1,1.23-.15,.31-.05,.54-.12,.68-.21,.14-.09,.21-.24,.21-.42v-.03c0-.36-.11-.64-.34-.83-.22-.2-.54-.3-.96-.3-.44,0-.78,.1-1.04,.29-.26,.19-.43,.43-.51,.72l-2.24-.18c.11-.53,.34-.99,.67-1.38,.33-.39,.76-.69,1.29-.9,.53-.21,1.14-.32,1.84-.32,.48,0,.95,.06,1.39,.17,.45,.11,.84,.29,1.19,.53,.35,.24,.62,.54,.82,.92,.2,.37,.3,.82,.3,1.34v5.89h-2.29v-1.21h-.07c-.14,.27-.33,.51-.56,.72-.24,.21-.52,.37-.85,.48-.33,.12-.71,.17-1.14,.17Zm.69-1.67c.36,0,.67-.07,.94-.21s.49-.33,.64-.58c.16-.24,.23-.52,.23-.82v-.93c-.08,.05-.18,.09-.31,.13s-.28,.08-.44,.11-.33,.06-.49,.08c-.16,.02-.31,.05-.44,.07-.28,.04-.53,.11-.74,.2-.21,.09-.38,.21-.49,.37-.12,.15-.18,.34-.18,.57,0,.33,.12,.58,.36,.75,.24,.17,.55,.26,.92,.26Zm-.26-8.35l1.2-2.58h2.24l-1.73,2.58h-1.71Z"/><path class="m" d="M662.28,250.67v5.05h-2.42v-8.73h2.31v1.54h.1c.19-.51,.52-.91,.97-1.21,.45-.3,1.01-.45,1.65-.45,.61,0,1.13,.13,1.58,.4,.45,.27,.8,.64,1.05,1.13s.38,1.08,.38,1.75v5.56h-2.42v-5.12c0-.53-.13-.95-.41-1.25s-.66-.45-1.14-.45c-.33,0-.61,.07-.86,.21-.25,.14-.44,.34-.58,.61-.14,.27-.21,.59-.21,.96Z"/><path class="m" d="M673.79,255.89c-.9,0-1.67-.18-2.32-.55s-1.14-.88-1.49-1.56c-.35-.67-.52-1.47-.52-2.39s.17-1.69,.52-2.36c.35-.68,.84-1.21,1.47-1.58,.63-.38,1.38-.57,2.24-.57,.58,0,1.11,.09,1.61,.28s.93,.46,1.31,.83c.37,.37,.66,.83,.87,1.38,.21,.56,.31,1.2,.31,1.95v.67h-7.37v-1.5h5.09c0-.35-.08-.66-.23-.93-.15-.27-.36-.48-.63-.63-.27-.15-.58-.23-.93-.23s-.69,.08-.97,.25-.5,.39-.66,.68-.24,.6-.24,.94v1.43c0,.43,.08,.8,.24,1.12s.39,.56,.68,.73c.3,.17,.65,.25,1.05,.25,.27,0,.51-.04,.74-.11s.42-.19,.57-.34c.16-.15,.28-.34,.36-.56l2.24,.15c-.11,.54-.35,1.01-.7,1.41-.35,.4-.8,.71-1.35,.93-.55,.22-1.19,.33-1.91,.33Z"/><path class="m" d="M684.97,252v-5.01h2.42v8.73h-2.32v-1.58h-.09c-.2,.51-.52,.92-.98,1.23-.46,.31-1.01,.47-1.67,.47-.58,0-1.1-.13-1.54-.4-.44-.26-.79-.64-1.04-1.13-.25-.49-.37-1.07-.38-1.76v-5.56h2.42v5.12c0,.52,.14,.92,.41,1.22,.27,.3,.64,.45,1.1,.45,.29,0,.56-.07,.82-.2,.25-.13,.46-.33,.62-.6,.16-.26,.23-.59,.23-.98Z"/><path class="m" d="M693.96,246.99v1.82h-5.26v-1.82h5.26Zm-4.06-2.09h2.42v8.14c0,.22,.03,.4,.1,.52s.16,.21,.29,.26,.27,.07,.43,.07c.11,0,.23-.01,.34-.03,.11-.02,.2-.04,.26-.05l.38,1.8c-.12,.04-.29,.08-.51,.13-.22,.05-.49,.08-.8,.09-.58,.02-1.09-.05-1.53-.23-.44-.18-.78-.46-1.02-.83s-.36-.85-.36-1.42v-8.46Z"/><path class="m" d="M695.54,255.72v-8.73h2.35v1.52h.09c.16-.54,.43-.95,.8-1.23s.81-.42,1.3-.42c.12,0,.25,0,.39,.02,.14,.01,.26,.04,.37,.06v2.15c-.11-.03-.27-.06-.47-.09-.2-.03-.38-.04-.55-.04-.36,0-.67,.08-.95,.23s-.5,.37-.66,.64-.24,.59-.24,.94v4.94h-2.42Z"/><path class="m" d="M704.56,255.88c-.56,0-1.05-.1-1.49-.29s-.78-.48-1.03-.87-.38-.86-.38-1.44c0-.48,.09-.89,.27-1.22,.18-.33,.42-.59,.73-.79,.31-.2,.66-.35,1.05-.46,.39-.1,.8-.17,1.24-.22,.51-.05,.92-.1,1.23-.15,.31-.05,.54-.12,.68-.21,.14-.09,.21-.24,.21-.42v-.03c0-.36-.11-.64-.34-.83-.22-.2-.54-.3-.96-.3-.44,0-.78,.1-1.04,.29-.26,.19-.43,.43-.51,.72l-2.24-.18c.11-.53,.34-.99,.67-1.38,.33-.39,.76-.69,1.29-.9,.53-.21,1.14-.32,1.84-.32,.48,0,.95,.06,1.39,.17,.45,.11,.84,.29,1.19,.53,.35,.24,.62,.54,.82,.92,.2,.37,.3,.82,.3,1.34v5.89h-2.29v-1.21h-.07c-.14,.27-.33,.51-.56,.72-.24,.21-.52,.37-.85,.48-.33,.12-.71,.17-1.14,.17Zm.69-1.67c.36,0,.67-.07,.94-.21s.49-.33,.64-.58c.16-.24,.23-.52,.23-.82v-.93c-.08,.05-.18,.09-.31,.13s-.28,.08-.44,.11-.33,.06-.49,.08c-.16,.02-.31,.05-.44,.07-.28,.04-.53,.11-.74,.2-.21,.09-.38,.21-.49,.37-.12,.15-.18,.34-.18,.57,0,.33,.12,.58,.36,.75,.24,.17,.55,.26,.92,.26Z"/><path class="m" d="M713.78,244.08v11.64h-2.42v-11.64h2.42Z"/><path class="m" d="M716.93,245.86c-.36,0-.67-.12-.92-.36s-.38-.53-.38-.87,.13-.62,.38-.86,.56-.36,.92-.36,.67,.12,.92,.36c.25,.24,.38,.53,.38,.86s-.13,.63-.38,.87c-.26,.24-.56,.36-.92,.36Zm-1.22,9.85v-8.73h2.42v8.73h-2.42Z"/><path class="m" d="M724.7,246.99v1.82h-5.26v-1.82h5.26Zm-4.06-2.09h2.42v8.14c0,.22,.03,.4,.1,.52s.16,.21,.29,.26,.27,.07,.43,.07c.11,0,.23-.01,.34-.03,.11-.02,.2-.04,.26-.05l.38,1.8c-.12,.04-.29,.08-.51,.13-.22,.05-.49,.08-.8,.09-.58,.02-1.09-.05-1.53-.23-.44-.18-.78-.46-1.02-.83s-.36-.85-.36-1.42v-8.46Z"/><path class="m" d="M728.77,255.88c-.56,0-1.05-.1-1.49-.29s-.78-.48-1.03-.87-.38-.86-.38-1.44c0-.48,.09-.89,.27-1.22,.18-.33,.42-.59,.73-.79,.31-.2,.66-.35,1.05-.46,.39-.1,.8-.17,1.24-.22,.51-.05,.92-.1,1.23-.15,.31-.05,.54-.12,.68-.21,.14-.09,.21-.24,.21-.42v-.03c0-.36-.11-.64-.34-.83-.22-.2-.54-.3-.96-.3-.44,0-.78,.1-1.04,.29-.26,.19-.43,.43-.51,.72l-2.24-.18c.11-.53,.34-.99,.67-1.38,.33-.39,.76-.69,1.29-.9,.53-.21,1.14-.32,1.84-.32,.48,0,.95,.06,1.39,.17,.45,.11,.84,.29,1.19,.53,.35,.24,.62,.54,.82,.92,.2,.37,.3,.82,.3,1.34v5.89h-2.29v-1.21h-.07c-.14,.27-.33,.51-.56,.72-.24,.21-.52,.37-.85,.48-.33,.12-.71,.17-1.14,.17Zm.69-1.67c.36,0,.67-.07,.94-.21s.49-.33,.64-.58c.16-.24,.23-.52,.23-.82v-.93c-.08,.05-.18,.09-.31,.13s-.28,.08-.44,.11-.33,.06-.49,.08c-.16,.02-.31,.05-.44,.07-.28,.04-.53,.11-.74,.2-.21,.09-.38,.21-.49,.37-.12,.15-.18,.34-.18,.57,0,.33,.12,.58,.36,.75,.24,.17,.55,.26,.92,.26Z"/><path d="M618.96,265.54l-3.03,8.18h-1.28l-3.03-8.18h1.36l2.26,6.52h.08l2.26-6.52h1.36Z"/><path d="M624.84,273.72v-8.18h1.21v1.24h.08c.15-.4,.42-.73,.81-.99s.83-.38,1.32-.38c.09,0,.21,0,.35,0,.14,0,.24,0,.31,.02v1.28s-.14-.03-.29-.05-.31-.03-.48-.03c-.4,0-.75,.08-1.06,.25-.31,.17-.56,.39-.74,.68-.18,.29-.27,.62-.27,.99v5.18h-1.26Z"/><path d="M633.75,273.89c-.74,0-1.39-.18-1.94-.53-.56-.35-.99-.84-1.3-1.48-.31-.63-.47-1.37-.47-2.22s.16-1.6,.47-2.23c.31-.64,.74-1.13,1.3-1.48,.56-.35,1.2-.53,1.94-.53s1.39,.18,1.94,.53,.99,.84,1.3,1.48,.47,1.38,.47,2.23-.16,1.58-.47,2.22c-.31,.63-.74,1.12-1.3,1.48s-1.2,.53-1.94,.53Zm0-1.13c.56,0,1.02-.14,1.38-.43,.36-.29,.63-.67,.8-1.13,.17-.47,.26-.98,.26-1.52s-.09-1.06-.26-1.53c-.17-.47-.44-.85-.8-1.15-.36-.29-.82-.44-1.38-.44s-1.02,.15-1.38,.44c-.36,.29-.63,.67-.8,1.15-.17,.47-.26,.98-.26,1.53s.09,1.05,.26,1.52,.44,.85,.8,1.13c.36,.29,.82,.43,1.38,.43Z"/><path d="M642.69,273.89c-.77,0-1.43-.18-1.98-.54-.55-.36-.98-.86-1.28-1.5-.3-.63-.45-1.36-.45-2.18s.15-1.57,.46-2.2c.31-.64,.74-1.14,1.29-1.5,.55-.36,1.2-.54,1.94-.54,.58,0,1.09,.11,1.56,.32,.46,.21,.84,.51,1.13,.89,.29,.38,.48,.83,.55,1.34h-1.26c-.1-.37-.31-.7-.64-.99-.33-.29-.77-.43-1.32-.43-.49,0-.92,.13-1.29,.38-.37,.25-.65,.61-.86,1.07-.2,.46-.31,1-.31,1.62s.1,1.18,.3,1.65c.2,.47,.48,.83,.85,1.09,.37,.26,.8,.39,1.3,.39,.33,0,.62-.06,.89-.17,.27-.11,.49-.28,.68-.49s.32-.47,.39-.77h1.26c-.07,.48-.25,.92-.52,1.3-.28,.39-.65,.69-1.1,.92s-.99,.34-1.59,.34Z"/><path d="M651.17,273.89c-.79,0-1.47-.18-2.04-.53-.57-.35-1.01-.84-1.32-1.47-.31-.63-.46-1.36-.46-2.2s.15-1.58,.46-2.22c.31-.64,.74-1.14,1.29-1.5,.55-.36,1.2-.54,1.94-.54,.43,0,.85,.07,1.26,.21,.42,.14,.79,.37,1.13,.69,.34,.32,.61,.74,.81,1.26,.2,.52,.3,1.17,.3,1.93v.53h-6.31v-1.09h5.03c0-.46-.09-.87-.27-1.24s-.44-.65-.78-.86c-.34-.21-.73-.31-1.19-.31-.5,0-.93,.12-1.3,.37s-.64,.57-.84,.96c-.2,.39-.29,.82-.29,1.27v.72c0,.62,.11,1.14,.32,1.57s.51,.75,.9,.97c.38,.22,.83,.33,1.34,.33,.33,0,.63-.05,.9-.14,.27-.09,.5-.24,.7-.43,.2-.19,.35-.43,.45-.71l1.21,.34c-.13,.41-.34,.77-.64,1.08s-.67,.55-1.12,.72c-.44,.17-.94,.26-1.5,.26Z"/><path d="M660.68,273.72v-.96l3.6-3.94c.42-.46,.77-.86,1.04-1.21s.48-.67,.61-.97c.13-.3,.2-.62,.2-.96,0-.38-.09-.72-.27-1-.18-.28-.43-.5-.75-.65-.32-.15-.67-.23-1.07-.23-.42,0-.78,.09-1.09,.26-.31,.17-.55,.41-.72,.72-.17,.31-.25,.67-.25,1.09h-1.26c0-.64,.15-1.2,.44-1.68,.29-.48,.7-.86,1.21-1.13s1.08-.41,1.72-.41,1.21,.14,1.7,.41c.49,.27,.88,.63,1.16,1.09,.28,.46,.42,.97,.42,1.53,0,.4-.07,.79-.22,1.17-.14,.38-.39,.81-.75,1.27s-.84,1.04-1.47,1.71l-2.45,2.62v.08h5.07v1.17h-6.88Z"/><path d="M673.31,273.87c-.8,0-1.49-.22-2.05-.66s-1-1.08-1.29-1.91c-.3-.84-.45-1.85-.45-3.03s.15-2.19,.45-3.02c.3-.84,.73-1.48,1.3-1.92,.57-.44,1.25-.66,2.04-.66s1.48,.22,2.04,.66c.57,.44,1,1.08,1.3,1.92,.3,.84,.45,1.84,.45,3.02s-.15,2.2-.45,3.03c-.3,.84-.73,1.47-1.29,1.91s-1.25,.66-2.05,.66Zm0-1.17c.8,0,1.41-.38,1.85-1.15,.44-.77,.66-1.86,.66-3.28,0-.95-.1-1.75-.3-2.41-.2-.66-.49-1.17-.86-1.52-.38-.35-.83-.52-1.35-.52-.79,0-1.4,.39-1.85,1.16-.44,.78-.67,1.87-.67,3.29,0,.94,.1,1.75,.3,2.41s.49,1.16,.86,1.51c.37,.34,.83,.52,1.36,.52Z"/><path d="M682.54,273.87c-.62,0-1.19-.12-1.69-.37-.5-.25-.9-.59-1.2-1.02-.3-.43-.47-.93-.5-1.48h1.28c.05,.49,.27,.9,.67,1.22s.88,.48,1.44,.48c.45,0,.85-.1,1.2-.31s.62-.5,.83-.87c.2-.37,.3-.78,.3-1.25s-.1-.9-.31-1.28c-.21-.38-.49-.67-.85-.89s-.78-.33-1.24-.33c-.33,0-.68,.05-1.03,.15s-.64,.24-.87,.4l-1.24-.15,.66-5.37h5.67v1.17h-4.56l-.38,3.22h.06c.22-.18,.5-.33,.84-.44,.34-.12,.69-.18,1.05-.18,.67,0,1.26,.16,1.79,.48,.52,.32,.94,.75,1.24,1.3,.3,.55,.45,1.18,.45,1.89s-.16,1.32-.47,1.86-.74,.97-1.28,1.29c-.54,.31-1.16,.47-1.85,.47Z"/><path d="M691.81,273.87c-.8,0-1.49-.22-2.05-.66s-1-1.08-1.29-1.91c-.3-.84-.45-1.85-.45-3.03s.15-2.19,.45-3.02c.3-.84,.73-1.48,1.3-1.92,.57-.44,1.25-.66,2.04-.66s1.48,.22,2.04,.66c.57,.44,1,1.08,1.3,1.92,.3,.84,.45,1.84,.45,3.02s-.15,2.2-.45,3.03c-.3,.84-.73,1.47-1.29,1.91s-1.25,.66-2.05,.66Zm0-1.17c.8,0,1.41-.38,1.85-1.15,.44-.77,.66-1.86,.66-3.28,0-.95-.1-1.75-.3-2.41-.2-.66-.49-1.17-.86-1.52-.38-.35-.83-.52-1.35-.52-.79,0-1.4,.39-1.85,1.16-.44,.78-.67,1.87-.67,3.29,0,.94,.1,1.75,.3,2.41s.49,1.16,.86,1.51c.37,.34,.83,.52,1.36,.52Z"/></g><line class="c" x1="55.4" y1="152.69" x2="294.78" y2="152.69"/><g><path d="M232.99,30.08V11.17h4v8.34h.25l6.8-8.34h4.79l-7.02,8.47,7.1,10.44h-4.78l-5.18-7.77-1.97,2.4v5.37h-4Z"/><path d="M251.7,30.08V11.17h4v15.61h8.11v3.3h-12.1Z"/><path d="M271.23,11.17V30.08h-4V11.17h4Z"/><path d="M275.31,11.17h4.93l5.21,12.7h.22l5.21-12.7h4.93V30.08h-3.88v-12.31h-.16l-4.89,12.22h-2.64l-4.89-12.26h-.16v12.35h-3.88V11.17Z"/><path d="M303.13,30.08h-4.28l6.53-18.91h5.15l6.52,18.91h-4.28l-4.74-14.59h-.15l-4.75,14.59Zm-.27-7.43h10.12v3.12h-10.12v-3.12Z"/><path d="M317.05,14.47v-3.3h15.53v3.3h-5.79v15.61h-3.95V14.47h-5.79Z"/><path d="M339.93,11.17V30.08h-4V11.17h4Z"/><path d="M360.69,17.79h-4.04c-.07-.52-.22-.99-.45-1.4-.23-.41-.52-.76-.88-1.05-.36-.29-.77-.51-1.23-.66s-.97-.23-1.51-.23c-.98,0-1.83,.24-2.56,.72-.73,.48-1.29,1.18-1.69,2.11-.4,.92-.6,2.04-.6,3.35s.2,2.48,.61,3.4c.4,.92,.97,1.61,1.69,2.08s1.57,.7,2.52,.7c.54,0,1.03-.07,1.49-.21,.46-.14,.87-.35,1.22-.62,.36-.27,.65-.61,.89-1,.24-.39,.4-.84,.49-1.35l4.04,.02c-.1,.87-.36,1.7-.78,2.51-.42,.8-.97,1.52-1.67,2.15-.7,.63-1.53,1.13-2.49,1.5-.96,.37-2.05,.55-3.26,.55-1.69,0-3.19-.38-4.52-1.14-1.33-.76-2.37-1.87-3.14-3.31-.77-1.45-1.15-3.2-1.15-5.25s.39-3.82,1.16-5.26c.78-1.45,1.83-2.55,3.16-3.31,1.33-.76,2.83-1.14,4.49-1.14,1.1,0,2.11,.15,3.05,.46,.94,.31,1.77,.76,2.5,1.34,.73,.59,1.32,1.31,1.78,2.16s.75,1.82,.88,2.92Z"/><path d="M364.34,30.08V11.17h4v8.34h.25l6.8-8.34h4.79l-7.02,8.47,7.1,10.44h-4.78l-5.18-7.77-1.97,2.4v5.37h-4Z"/><path d="M383.05,30.08V11.17h12.74v3.3h-8.74v4.51h8.09v3.3h-8.09v4.51h8.78v3.3h-12.78Zm4.98-20.74l1.96-4.2h3.64l-2.82,4.2h-2.78Z"/><path d="M423.25,17.79h-4.04c-.07-.52-.22-.99-.45-1.4-.23-.41-.52-.76-.88-1.05-.36-.29-.77-.51-1.23-.66-.46-.15-.97-.23-1.51-.23-.98,0-1.83,.24-2.56,.72-.73,.48-1.29,1.18-1.69,2.11-.4,.92-.6,2.04-.6,3.35s.2,2.48,.6,3.4c.4,.92,.97,1.61,1.7,2.08s1.57,.7,2.52,.7c.54,0,1.03-.07,1.49-.21,.46-.14,.87-.35,1.22-.62s.65-.61,.89-1c.24-.39,.4-.84,.49-1.35l4.04,.02c-.11,.87-.37,1.7-.78,2.51-.41,.8-.97,1.52-1.67,2.15-.7,.63-1.53,1.13-2.49,1.5-.96,.37-2.05,.55-3.26,.55-1.69,0-3.19-.38-4.52-1.14-1.33-.76-2.37-1.87-3.14-3.31-.77-1.45-1.15-3.2-1.15-5.25s.39-3.82,1.16-5.26c.78-1.45,1.83-2.55,3.16-3.31s2.82-1.14,4.49-1.14c1.1,0,2.11,.15,3.05,.46,.94,.31,1.77,.76,2.5,1.34,.73,.59,1.32,1.31,1.78,2.16,.46,.85,.75,1.82,.88,2.92Z"/><path d="M430.9,11.17V30.08h-4V11.17h4Zm-3.4-1.83l1.96-4.2h3.64l-2.82,4.2h-2.78Z"/><path d="M434.97,30.08V11.17h4v15.61h8.11v3.3h-12.11Z"/><path d="M450.51,30.08V11.17h12.74v3.3h-8.74v4.51h8.09v3.3h-8.09v4.51h8.78v3.3h-12.78Z"/><path d="M474.02,30.08V11.17h12.74v3.3h-8.74v4.51h8.09v3.3h-8.09v4.51h8.78v3.3h-12.78Z"/><path d="M502.41,11.17h4v12.28c0,1.38-.33,2.58-.98,3.62-.66,1.03-1.57,1.84-2.75,2.41-1.18,.58-2.54,.86-4.11,.86s-2.94-.29-4.12-.86c-1.18-.58-2.09-1.38-2.74-2.41-.65-1.03-.98-2.24-.98-3.62V11.17h4v11.94c0,.72,.16,1.36,.48,1.92,.32,.56,.76,1,1.34,1.32,.58,.32,1.25,.48,2.02,.48s1.45-.16,2.03-.48c.58-.32,1.02-.76,1.34-1.32,.32-.56,.47-1.2,.47-1.92V11.17Z"/><path d="M95.77,43.17l-3.96,10.91h-2.27l-3.96-10.91h2.28l2.76,8.4h.11l2.76-8.4h2.28Z"/><path d="M104.27,54.08v-14.54h2.12v14.54h-2.12Zm1.95-3.7v-2.59s.36,0,.36,0l4.35-4.62h2.54l-4.96,5.26h-.33l-1.95,1.95Zm4.94,3.7l-3.91-5.18,1.46-1.48,5.05,6.67h-2.61Z"/><path d="M120.13,54.3c-1.02,0-1.91-.23-2.68-.7-.76-.47-1.35-1.12-1.78-1.97-.42-.84-.63-1.83-.63-2.95s.21-2.12,.63-2.97c.42-.85,1.01-1.51,1.78-1.97,.76-.47,1.66-.7,2.68-.7s1.92,.23,2.68,.7c.76,.47,1.36,1.13,1.78,1.97,.42,.85,.63,1.84,.63,2.97s-.21,2.11-.63,2.95c-.42,.84-1.01,1.5-1.78,1.97-.76,.47-1.65,.7-2.68,.7Zm0-1.78c.66,0,1.21-.18,1.65-.53,.44-.35,.76-.82,.97-1.4s.32-1.22,.32-1.92-.11-1.34-.32-1.92-.53-1.05-.97-1.41c-.44-.36-.99-.53-1.65-.53s-1.22,.18-1.66,.53c-.44,.35-.76,.82-.97,1.41s-.32,1.23-.32,1.92,.11,1.34,.32,1.92,.54,1.05,.97,1.4c.44,.35,.99,.53,1.66,.53Z"/><path d="M130.31,47.61v6.48h-2.12v-10.91h2.04v1.78h.13c.25-.58,.64-1.04,1.18-1.39,.54-.35,1.22-.53,2.04-.53,.74,0,1.39,.15,1.95,.46s.99,.77,1.3,1.38c.31,.61,.46,1.37,.46,2.27v6.94h-2.12v-6.68c0-.79-.21-1.41-.62-1.86s-.98-.67-1.7-.67c-.49,0-.93,.11-1.31,.32s-.68,.53-.9,.93c-.22,.41-.33,.9-.33,1.48Z"/><path d="M145.82,43.17v1.7h-5.96v-1.7h5.96Zm-4.36-2.61h2.12v10.32c0,.41,.06,.72,.19,.93s.28,.35,.48,.42c.2,.07,.41,.11,.64,.11,.17,0,.32-.01,.45-.04,.13-.02,.23-.04,.3-.06l.38,1.75c-.12,.05-.3,.1-.53,.15-.23,.05-.51,.08-.85,.08-.56,0-1.08-.09-1.56-.3-.48-.21-.87-.53-1.17-.97-.3-.44-.45-.98-.45-1.64v-10.76Z"/><path d="M153.36,54.3c-1.07,0-2-.23-2.77-.69-.77-.46-1.37-1.11-1.79-1.95-.42-.84-.63-1.83-.63-2.96s.21-2.1,.63-2.96c.42-.85,1.01-1.52,1.76-2s1.64-.72,2.65-.72c.62,0,1.21,.1,1.79,.3,.58,.2,1.1,.52,1.56,.96s.82,1,1.09,1.69c.27,.69,.4,1.54,.4,2.53v.75h-8.67v-1.59h6.59c0-.56-.11-1.05-.34-1.49-.23-.43-.55-.78-.96-1.03-.41-.25-.89-.38-1.44-.38-.6,0-1.12,.15-1.56,.44-.44,.29-.78,.67-1.02,1.14-.24,.47-.36,.97-.36,1.52v1.24c0,.73,.13,1.35,.39,1.86s.62,.9,1.08,1.17c.46,.27,1.01,.4,1.62,.4,.4,0,.77-.06,1.1-.17s.62-.29,.86-.52c.24-.23,.43-.52,.55-.86l2.01,.36c-.16,.59-.45,1.11-.86,1.55-.41,.44-.93,.79-1.55,1.03-.62,.24-1.33,.37-2.13,.37Z"/><path d="M162.43,43.17l2.41,4.25,2.43-4.25h2.32l-3.4,5.45,3.43,5.46h-2.32l-2.46-4.08-2.45,4.08h-2.33l3.39-5.46-3.35-5.45h2.33Z"/><path d="M177.47,43.17v1.7h-5.96v-1.7h5.96Zm-4.36-2.61h2.12v10.32c0,.41,.06,.72,.19,.93,.12,.21,.28,.35,.48,.42,.2,.07,.41,.11,.64,.11,.17,0,.32-.01,.45-.04,.13-.02,.23-.04,.3-.06l.38,1.75c-.12,.05-.3,.1-.53,.15-.23,.05-.51,.08-.85,.08-.56,0-1.08-.09-1.56-.3s-.87-.53-1.17-.97-.45-.98-.45-1.64v-10.76Z"/><path d="M187.32,49.56v-6.39h2.13v10.91h-2.09v-1.89h-.12c-.25,.58-.65,1.07-1.2,1.45-.55,.39-1.24,.58-2.06,.58-.7,0-1.32-.16-1.86-.47-.54-.31-.96-.77-1.26-1.38-.3-.61-.46-1.37-.46-2.27v-6.94h2.12v6.68c0,.74,.21,1.34,.62,1.78s.95,.66,1.61,.66c.4,0,.79-.1,1.19-.3,.4-.2,.72-.5,.99-.9,.26-.4,.39-.91,.39-1.53Z"/><path d="M202.88,54.3c-.88,0-1.67-.23-2.35-.68-.69-.45-1.23-1.1-1.62-1.94-.39-.84-.59-1.85-.59-3.03s.2-2.19,.59-3.03c.4-.84,.94-1.48,1.63-1.92,.69-.45,1.47-.67,2.35-.67,.68,0,1.22,.11,1.64,.34,.41,.23,.73,.49,.96,.78,.23,.3,.41,.56,.54,.79h.13v-5.4h2.12v14.54h-2.07v-1.7h-.18c-.13,.23-.31,.5-.55,.79-.24,.3-.57,.56-.98,.78s-.96,.33-1.62,.33Zm.47-1.81c.61,0,1.13-.16,1.55-.49s.74-.78,.96-1.35,.33-1.25,.33-2.02-.11-1.42-.33-1.99c-.22-.57-.54-1.01-.96-1.33-.42-.32-.94-.48-1.56-.48s-1.17,.17-1.6,.5-.75,.78-.96,1.36-.32,1.22-.32,1.94,.11,1.38,.33,1.97c.22,.58,.54,1.04,.97,1.38,.43,.34,.96,.51,1.59,.51Z"/><path d="M216.51,54.3c-1.02,0-1.92-.23-2.68-.7s-1.35-1.12-1.78-1.97-.63-1.83-.63-2.95,.21-2.12,.63-2.97,1.01-1.51,1.78-1.97,1.65-.7,2.68-.7,1.91,.23,2.68,.7c.76,.47,1.35,1.13,1.78,1.97s.63,1.84,.63,2.97-.21,2.11-.63,2.95-1.01,1.5-1.78,1.97c-.76,.47-1.65,.7-2.68,.7Zm0-1.78c.66,0,1.21-.18,1.65-.53,.44-.35,.76-.82,.97-1.4,.21-.58,.31-1.22,.31-1.92s-.11-1.34-.31-1.92c-.21-.58-.54-1.05-.97-1.41-.44-.36-.98-.53-1.65-.53s-1.22,.18-1.66,.53c-.44,.35-.76,.82-.97,1.41s-.32,1.23-.32,1.92,.11,1.34,.32,1.92,.54,1.05,.97,1.4c.44,.35,.99,.53,1.66,.53Z"/><path d="M232.73,45.84l-1.92,.34c-.08-.25-.21-.48-.38-.7-.17-.22-.41-.41-.7-.55-.29-.14-.66-.21-1.1-.21-.6,0-1.1,.13-1.51,.4s-.6,.61-.6,1.03c0,.37,.13,.66,.41,.88,.27,.22,.71,.4,1.31,.55l1.73,.4c1,.23,1.75,.59,2.24,1.07,.49,.48,.74,1.11,.74,1.88,0,.65-.19,1.23-.56,1.74-.38,.51-.9,.91-1.57,1.2s-1.45,.43-2.32,.43c-1.22,0-2.22-.26-2.99-.79-.77-.52-1.25-1.27-1.42-2.23l2.05-.31c.13,.54,.39,.94,.79,1.21,.4,.27,.92,.41,1.55,.41,.7,0,1.25-.14,1.67-.44,.42-.29,.62-.65,.62-1.07,0-.34-.13-.63-.38-.86-.25-.23-.64-.41-1.16-.53l-1.85-.4c-1.02-.23-1.77-.6-2.25-1.11-.49-.51-.73-1.15-.73-1.93,0-.64,.18-1.21,.54-1.69,.36-.48,.86-.86,1.49-1.13,.63-.27,1.36-.41,2.18-.41,1.18,0,2.11,.25,2.79,.76,.68,.51,1.12,1.19,1.34,2.04Z"/><path d="M239.05,54.33c-.69,0-1.32-.13-1.88-.39-.56-.26-1-.63-1.33-1.13s-.49-1.1-.49-1.81c0-.62,.12-1.12,.36-1.52,.24-.4,.56-.71,.96-.95s.85-.41,1.35-.53c.5-.12,1-.21,1.52-.27,.65-.08,1.18-.14,1.59-.19,.41-.05,.7-.13,.89-.24,.19-.11,.28-.3,.28-.55v-.05c0-.62-.17-1.1-.52-1.44-.35-.34-.87-.51-1.55-.51s-1.28,.16-1.69,.47c-.41,.31-.69,.66-.85,1.05l-2-.46c.24-.66,.58-1.2,1.04-1.61,.46-.41,.98-.71,1.58-.9,.6-.19,1.22-.28,1.88-.28,.44,0,.9,.05,1.39,.15s.95,.29,1.38,.56,.78,.65,1.05,1.15c.28,.5,.41,1.15,.41,1.94v7.24h-2.07v-1.49h-.08c-.14,.28-.34,.54-.62,.81-.27,.27-.63,.49-1.06,.66-.43,.18-.95,.26-1.55,.26Zm.46-1.71c.59,0,1.09-.12,1.51-.35,.42-.23,.74-.54,.96-.91,.22-.38,.33-.78,.33-1.21v-1.41c-.08,.08-.22,.15-.44,.21-.21,.06-.46,.12-.73,.16-.28,.05-.54,.09-.8,.12-.26,.04-.48,.07-.65,.09-.41,.05-.79,.14-1.12,.26s-.61,.3-.81,.53c-.2,.23-.3,.53-.3,.91,0,.53,.19,.92,.58,1.19s.88,.4,1.48,.4Z"/><path d="M256.79,43.17l-3.96,10.91h-2.27l-3.96-10.91h2.28l2.76,8.4h.12l2.76-8.4h2.28Z"/><path d="M262.24,54.33c-.69,0-1.32-.13-1.88-.39-.56-.26-1-.63-1.32-1.13s-.49-1.1-.49-1.81c0-.62,.12-1.12,.36-1.52,.24-.4,.55-.71,.96-.95,.4-.23,.85-.41,1.35-.53,.5-.12,1-.21,1.52-.27,.65-.08,1.18-.14,1.59-.19,.41-.05,.7-.13,.89-.24,.18-.11,.28-.3,.28-.55v-.05c0-.62-.18-1.1-.52-1.44-.35-.34-.87-.51-1.55-.51s-1.28,.16-1.69,.47c-.41,.31-.69,.66-.85,1.05l-2-.46c.24-.66,.58-1.2,1.04-1.61,.46-.41,.98-.71,1.58-.9,.6-.19,1.22-.28,1.88-.28,.44,0,.9,.05,1.39,.15s.95,.29,1.38,.56c.43,.27,.78,.65,1.05,1.15,.27,.5,.41,1.15,.41,1.94v7.24h-2.07v-1.49h-.09c-.14,.28-.34,.54-.62,.81-.28,.27-.63,.49-1.06,.66-.43,.18-.95,.26-1.55,.26Zm.46-1.71c.59,0,1.09-.12,1.51-.35,.42-.23,.74-.54,.96-.91s.33-.78,.33-1.21v-1.41c-.08,.08-.22,.15-.44,.21-.22,.06-.46,.12-.74,.16-.27,.05-.54,.09-.8,.12-.26,.04-.48,.07-.65,.09-.41,.05-.79,.14-1.13,.26-.34,.12-.61,.3-.81,.53-.2,.23-.3,.53-.3,.91,0,.53,.2,.92,.58,1.19,.39,.27,.88,.4,1.48,.4Z"/><path d="M275.13,54.3c-.88,0-1.67-.23-2.35-.68-.69-.45-1.23-1.1-1.62-1.94-.39-.84-.59-1.85-.59-3.03s.2-2.19,.59-3.03c.4-.84,.94-1.48,1.63-1.92,.69-.45,1.47-.67,2.35-.67,.68,0,1.22,.11,1.64,.34,.41,.23,.73,.49,.96,.78,.23,.3,.41,.56,.54,.79h.13v-5.4h2.12v14.54h-2.07v-1.7h-.18c-.13,.23-.31,.5-.55,.79-.24,.3-.57,.56-.98,.78s-.96,.33-1.62,.33Zm.47-1.81c.61,0,1.13-.16,1.55-.49s.74-.78,.96-1.35,.33-1.25,.33-2.02-.11-1.42-.33-1.99c-.22-.57-.54-1.01-.96-1.33-.42-.32-.94-.48-1.56-.48s-1.17,.17-1.6,.5-.75,.78-.96,1.36-.32,1.22-.32,1.94,.11,1.38,.33,1.97c.22,.58,.54,1.04,.97,1.38,.43,.34,.96,.51,1.59,.51Z"/><path d="M286.29,47.61v6.48h-2.12v-10.91h2.04v1.78h.13c.25-.58,.65-1.04,1.18-1.39,.54-.35,1.21-.53,2.04-.53,.74,0,1.39,.15,1.95,.46s.99,.77,1.3,1.38c.31,.61,.46,1.37,.46,2.27v6.94h-2.12v-6.68c0-.79-.21-1.41-.62-1.86s-.98-.67-1.7-.67c-.49,0-.93,.11-1.31,.32s-.68,.53-.9,.93-.33,.9-.33,1.48Z"/><path d="M296.71,54.08v-10.91h2.12v10.91h-2.12Zm.2-12.37l1.66-3.27h2.24l-2.2,3.27h-1.7Z"/><path d="M304.41,47.61v6.48h-2.12v-14.54h2.1v5.41h.13c.26-.59,.65-1.05,1.17-1.4s1.21-.52,2.06-.52c.75,0,1.4,.15,1.96,.46,.56,.31,1,.77,1.31,1.38,.31,.61,.46,1.37,.46,2.28v6.94h-2.12v-6.68c0-.8-.21-1.42-.62-1.86-.41-.44-.99-.66-1.72-.66-.5,0-.95,.11-1.35,.32-.4,.21-.71,.53-.93,.93s-.34,.9-.34,1.48Z"/><path d="M319.52,54.3c-1.02,0-1.92-.23-2.68-.7s-1.35-1.12-1.78-1.97-.63-1.83-.63-2.95,.21-2.12,.63-2.97,1.01-1.51,1.78-1.97,1.65-.7,2.68-.7,1.91,.23,2.68,.7c.76,.47,1.35,1.13,1.78,1.97s.63,1.84,.63,2.97-.21,2.11-.63,2.95-1.01,1.5-1.78,1.97c-.76,.47-1.65,.7-2.68,.7Zm0-1.78c.66,0,1.21-.18,1.65-.53,.44-.35,.76-.82,.97-1.4,.21-.58,.31-1.22,.31-1.92s-.11-1.34-.31-1.92c-.21-.58-.54-1.05-.97-1.41-.44-.36-.98-.53-1.65-.53s-1.22,.18-1.66,.53c-.44,.35-.76,.82-.97,1.41s-.32,1.23-.32,1.92,.11,1.34,.32,1.92,.54,1.05,.97,1.4c.44,.35,.99,.53,1.66,.53Z"/><path d="M342.8,43.17l-3.96,10.91h-2.27l-3.96-10.91h2.28l2.76,8.4h.11l2.76-8.4h2.28Z"/><path d="M346.74,58.17c-.32,0-.61-.02-.87-.08-.26-.05-.46-.1-.58-.16l.51-1.74c.39,.1,.73,.15,1.04,.13,.3-.01,.57-.13,.81-.34s.44-.56,.62-1.04l.26-.72-3.99-11.05h2.27l2.76,8.47h.12l2.76-8.47h2.28l-4.49,12.37c-.21,.57-.47,1.05-.8,1.45s-.71,.69-1.15,.89-.96,.3-1.55,.3Zm2.01-16.46l1.66-3.27h2.24l-2.2,3.27h-1.7Z"/><path d="M366.66,43.17l-3.96,10.91h-2.27l-3.96-10.91h2.28l2.76,8.4h.12l2.76-8.4h2.28Z"/><path d="M373.46,54.3c-1.02,0-1.91-.23-2.68-.7-.76-.47-1.35-1.12-1.78-1.97-.42-.84-.63-1.83-.63-2.95s.21-2.12,.63-2.97c.42-.85,1.01-1.51,1.78-1.97,.76-.47,1.66-.7,2.68-.7s1.92,.23,2.68,.7c.76,.47,1.36,1.13,1.78,1.97,.42,.85,.63,1.84,.63,2.97s-.21,2.11-.63,2.95c-.42,.84-1.01,1.5-1.78,1.97-.76,.47-1.65,.7-2.68,.7Zm0-1.78c.66,0,1.21-.18,1.65-.53,.44-.35,.76-.82,.97-1.4s.32-1.22,.32-1.92-.11-1.34-.32-1.92-.53-1.05-.97-1.41c-.44-.36-.99-.53-1.65-.53s-1.22,.18-1.66,.53c-.44,.35-.76,.82-.97,1.41s-.32,1.23-.32,1.92,.11,1.34,.32,1.92,.54,1.05,.97,1.4c.44,.35,.99,.53,1.66,.53Z"/><path d="M381.52,43.17h2.12v11.62c0,.73-.13,1.34-.39,1.85-.26,.5-.65,.88-1.17,1.14s-1.15,.39-1.9,.39h-.22c-.07,0-.14,0-.22,0v-1.83h.34c.5,0,.87-.13,1.09-.4,.23-.27,.34-.65,.34-1.16v-11.6Zm1.05-1.68c-.37,0-.69-.12-.95-.37-.26-.25-.39-.55-.39-.89s.13-.65,.39-.9c.26-.25,.58-.37,.95-.37s.69,.12,.95,.37c.26,.25,.39,.55,.39,.9s-.13,.64-.39,.89c-.26,.25-.58,.37-.95,.37Z"/><path d="M391.79,54.3c-1.07,0-2-.23-2.77-.69-.77-.46-1.37-1.11-1.79-1.95-.42-.84-.63-1.83-.63-2.96s.21-2.1,.63-2.96c.42-.85,1.01-1.52,1.76-2s1.64-.72,2.65-.72c.62,0,1.21,.1,1.79,.3,.58,.2,1.1,.52,1.56,.96s.82,1,1.09,1.69c.27,.69,.4,1.54,.4,2.53v.75h-8.67v-1.59h6.59c0-.56-.11-1.05-.34-1.49-.23-.43-.55-.78-.96-1.03-.41-.25-.89-.38-1.44-.38-.6,0-1.12,.15-1.56,.44-.44,.29-.78,.67-1.02,1.14-.24,.47-.36,.97-.36,1.52v1.24c0,.73,.13,1.35,.39,1.86s.62,.9,1.08,1.17c.46,.27,1.01,.4,1.62,.4,.4,0,.77-.06,1.1-.17s.62-.29,.86-.52c.24-.23,.43-.52,.55-.86l2.01,.36c-.16,.59-.45,1.11-.86,1.55-.41,.44-.93,.79-1.55,1.03-.62,.24-1.33,.37-2.13,.37Z"/><path d="M410.04,54.3c-1.07,0-2-.23-2.77-.69-.77-.46-1.37-1.11-1.79-1.95-.42-.84-.63-1.83-.63-2.96s.21-2.1,.63-2.96c.42-.85,1.01-1.52,1.76-2,.76-.48,1.64-.72,2.65-.72,.62,0,1.21,.1,1.79,.3,.58,.2,1.1,.52,1.55,.96s.82,1,1.09,1.69c.26,.69,.4,1.54,.4,2.53v.75h-8.67v-1.59h6.59c0-.56-.11-1.05-.34-1.49-.23-.43-.54-.78-.96-1.03-.41-.25-.89-.38-1.44-.38-.6,0-1.12,.15-1.56,.44-.44,.29-.79,.67-1.02,1.14s-.36,.97-.36,1.52v1.24c0,.73,.13,1.35,.39,1.86,.26,.51,.62,.9,1.08,1.17,.46,.27,1.01,.4,1.63,.4,.4,0,.77-.06,1.1-.17,.33-.12,.62-.29,.86-.52,.24-.23,.43-.52,.55-.86l2.01,.36c-.16,.59-.45,1.11-.86,1.55-.41,.44-.93,.79-1.55,1.03-.62,.24-1.33,.37-2.13,.37Z"/><path d="M417.69,54.08v-10.91h2.04v1.78h.13c.23-.6,.6-1.07,1.12-1.41,.52-.34,1.13-.51,1.85-.51s1.34,.17,1.84,.51c.5,.34,.86,.81,1.1,1.41h.11c.26-.58,.68-1.05,1.24-1.4s1.24-.52,2.03-.52c.99,0,1.8,.31,2.43,.93,.63,.62,.94,1.56,.94,2.81v7.32h-2.12v-7.12c0-.74-.2-1.27-.6-1.6s-.88-.5-1.44-.5c-.69,0-1.23,.21-1.61,.64-.38,.42-.57,.97-.57,1.63v6.95h-2.12v-7.25c0-.59-.18-1.07-.55-1.43-.37-.36-.85-.54-1.44-.54-.4,0-.77,.11-1.11,.32-.34,.21-.61,.5-.82,.88-.21,.37-.31,.81-.31,1.3v6.73h-2.12Z"/><path d="M437.03,41.49c-.37,0-.69-.12-.95-.37-.26-.25-.39-.55-.39-.89s.13-.65,.39-.9c.26-.25,.58-.37,.95-.37s.69,.12,.95,.37c.26,.25,.39,.55,.39,.9s-.13,.64-.39,.89c-.26,.25-.58,.37-.95,.37Zm-1.07,12.59v-10.91h2.12v10.91h-2.12Z"/><path d="M449.71,45.84l-1.93,.34c-.08-.25-.21-.48-.38-.7-.17-.22-.41-.41-.7-.55-.29-.14-.66-.21-1.1-.21-.6,0-1.1,.13-1.51,.4s-.6,.61-.6,1.03c0,.37,.13,.66,.4,.88s.71,.4,1.31,.55l1.73,.4c1,.23,1.75,.59,2.25,1.07,.49,.48,.74,1.11,.74,1.88,0,.65-.19,1.23-.56,1.74-.38,.51-.9,.91-1.57,1.2s-1.45,.43-2.33,.43c-1.22,0-2.22-.26-2.99-.79s-1.24-1.27-1.42-2.23l2.05-.31c.13,.54,.39,.94,.79,1.21,.4,.27,.92,.41,1.56,.41,.7,0,1.25-.14,1.67-.44,.42-.29,.62-.65,.62-1.07,0-.34-.13-.63-.38-.86-.25-.23-.64-.41-1.16-.53l-1.85-.4c-1.02-.23-1.77-.6-2.26-1.11-.48-.51-.73-1.15-.73-1.93,0-.64,.18-1.21,.54-1.69s.86-.86,1.49-1.13c.63-.27,1.36-.41,2.18-.41,1.18,0,2.11,.25,2.78,.76,.68,.51,1.12,1.19,1.34,2.04Z"/><path d="M452.85,54.08v-10.91h2.12v10.91h-2.12Zm.2-12.37l1.66-3.27h2.24l-2.2,3.27h-1.7Z"/><path d="M472.5,45.84l-1.92,.34c-.08-.25-.21-.48-.38-.7-.17-.22-.41-.41-.7-.55-.29-.14-.66-.21-1.1-.21-.6,0-1.1,.13-1.51,.4s-.6,.61-.6,1.03c0,.37,.13,.66,.41,.88,.27,.22,.71,.4,1.31,.55l1.73,.4c1,.23,1.75,.59,2.24,1.07,.49,.48,.74,1.11,.74,1.88,0,.65-.19,1.23-.56,1.74-.38,.51-.9,.91-1.57,1.2s-1.45,.43-2.32,.43c-1.22,0-2.22-.26-2.99-.79-.77-.52-1.25-1.27-1.42-2.23l2.05-.31c.13,.54,.39,.94,.79,1.21,.4,.27,.92,.41,1.55,.41,.7,0,1.25-.14,1.67-.44,.42-.29,.62-.65,.62-1.07,0-.34-.13-.63-.38-.86-.25-.23-.64-.41-1.16-.53l-1.85-.4c-1.02-.23-1.77-.6-2.25-1.11-.49-.51-.73-1.15-.73-1.93,0-.64,.18-1.21,.54-1.69,.36-.48,.86-.86,1.49-1.13,.63-.27,1.36-.41,2.18-.41,1.18,0,2.11,.25,2.79,.76,.68,.51,1.12,1.19,1.34,2.04Z"/><path d="M475.65,54.08v-14.54h2.12v14.54h-2.12Zm1.95-3.7v-2.59s.36,0,.36,0l4.35-4.62h2.54l-4.96,5.26h-.33l-1.95,1.95Zm4.94,3.7l-3.91-5.18,1.46-1.48,5.05,6.67h-2.61Z"/><path d="M489.5,39.54v14.54h-2.12v-14.54h2.12Z"/><path d="M497.66,54.3c-1.07,0-2-.23-2.77-.69-.77-.46-1.37-1.11-1.79-1.95-.42-.84-.63-1.83-.63-2.96s.21-2.1,.63-2.96c.42-.85,1.01-1.52,1.76-2,.76-.48,1.64-.72,2.65-.72,.62,0,1.21,.1,1.79,.3,.58,.2,1.1,.52,1.55,.96s.82,1,1.09,1.69c.26,.69,.4,1.54,.4,2.53v.75h-8.67v-1.59h6.59c0-.56-.11-1.05-.34-1.49-.23-.43-.54-.78-.96-1.03-.41-.25-.89-.38-1.44-.38-.6,0-1.12,.15-1.56,.44-.44,.29-.79,.67-1.02,1.14s-.36,.97-.36,1.52v1.24c0,.73,.13,1.35,.39,1.86,.26,.51,.62,.9,1.08,1.17,.46,.27,1.01,.4,1.63,.4,.4,0,.77-.06,1.1-.17,.33-.12,.62-.29,.86-.52,.24-.23,.43-.52,.55-.86l2.01,.36c-.16,.59-.45,1.11-.86,1.55-.41,.44-.93,.79-1.55,1.03-.62,.24-1.33,.37-2.13,.37Z"/><path d="M507.42,47.61v6.48h-2.12v-10.91h2.04v1.78h.13c.25-.58,.64-1.04,1.18-1.39,.54-.35,1.22-.53,2.04-.53,.74,0,1.39,.15,1.95,.46s.99,.77,1.3,1.38c.31,.61,.46,1.37,.46,2.27v6.94h-2.12v-6.68c0-.79-.21-1.41-.62-1.86s-.98-.67-1.7-.67c-.49,0-.93,.11-1.31,.32s-.68,.53-.9,.93c-.22,.41-.33,.9-.33,1.48Z"/><path d="M517.85,54.08v-10.91h2.12v10.91h-2.12Zm.2-12.37l1.66-3.27h2.24l-2.2,3.27h-1.7Z"/><path d="M523.43,54.08v-14.54h2.12v14.54h-2.12Zm1.95-3.7v-2.59s.36,0,.36,0l4.35-4.62h2.54l-4.96,5.26h-.33l-1.95,1.95Zm4.94,3.7l-3.91-5.18,1.46-1.48,5.05,6.67h-2.61Z"/><path d="M539.29,54.3c-1.02,0-1.91-.23-2.68-.7-.76-.47-1.35-1.12-1.78-1.97-.42-.84-.63-1.83-.63-2.95s.21-2.12,.63-2.97c.42-.85,1.01-1.51,1.78-1.97,.76-.47,1.66-.7,2.68-.7s1.92,.23,2.68,.7c.76,.47,1.36,1.13,1.78,1.97,.42,.85,.63,1.84,.63,2.97s-.21,2.11-.63,2.95c-.42,.84-1.01,1.5-1.78,1.97-.76,.47-1.65,.7-2.68,.7Zm0-1.78c.66,0,1.21-.18,1.65-.53,.44-.35,.76-.82,.97-1.4s.32-1.22,.32-1.92-.11-1.34-.32-1.92-.53-1.05-.97-1.41c-.44-.36-.99-.53-1.65-.53s-1.22,.18-1.66,.53c-.44,.35-.76,.82-.97,1.41s-.32,1.23-.32,1.92,.11,1.34,.32,1.92,.54,1.05,.97,1.4c.44,.35,.99,.53,1.66,.53Z"/><path d="M556.29,43.17l-3.96,10.91h-2.27l-3.96-10.91h2.28l2.76,8.4h.12l2.76-8.4h2.28Z"/><path d="M560.23,58.17c-.32,0-.61-.02-.87-.08-.26-.05-.46-.1-.58-.16l.51-1.74c.39,.1,.73,.15,1.04,.13,.3-.01,.57-.13,.81-.34s.44-.56,.62-1.04l.26-.72-3.99-11.05h2.27l2.76,8.47h.12l2.76-8.47h2.28l-4.49,12.37c-.21,.57-.47,1.05-.8,1.45s-.71,.69-1.15,.89-.96,.3-1.55,.3Zm2.01-16.46l1.66-3.27h2.24l-2.2,3.27h-1.7Z"/><path d="M575.03,54.3c-1.06,0-1.96-.24-2.72-.72-.76-.48-1.34-1.15-1.75-1.99-.41-.85-.61-1.82-.61-2.91s.21-2.09,.62-2.94c.42-.85,1-1.51,1.76-1.99s1.65-.72,2.68-.72c.83,0,1.57,.15,2.22,.46,.65,.31,1.17,.73,1.57,1.28,.4,.55,.64,1.19,.71,1.92h-2.07c-.11-.51-.37-.95-.78-1.32s-.95-.55-1.62-.55c-.59,0-1.11,.16-1.55,.46-.44,.31-.79,.75-1.03,1.32-.25,.57-.37,1.24-.37,2.02s.12,1.48,.36,2.06c.24,.58,.58,1.03,1.03,1.34,.44,.32,.96,.48,1.57,.48,.4,0,.77-.08,1.1-.22,.33-.15,.61-.36,.83-.64,.23-.28,.38-.62,.47-1.01h2.07c-.07,.71-.3,1.33-.69,1.89-.38,.55-.9,.99-1.54,1.31-.64,.32-1.39,.48-2.25,.48Z"/><path d="M584.52,47.61v6.48h-2.12v-14.54h2.09v5.41h.13c.26-.59,.65-1.05,1.17-1.4,.53-.35,1.21-.52,2.06-.52,.75,0,1.4,.15,1.96,.46,.56,.31,1,.77,1.31,1.38,.31,.61,.46,1.37,.46,2.28v6.94h-2.12v-6.68c0-.8-.21-1.42-.62-1.86-.41-.44-.98-.66-1.72-.66-.5,0-.95,.11-1.35,.32s-.71,.53-.93,.93c-.23,.41-.34,.9-.34,1.48Z"/><path d="M600.93,58.17v-15h2.07v1.77h.18c.12-.23,.3-.49,.53-.79,.23-.3,.55-.56,.97-.78,.41-.22,.96-.34,1.63-.34,.88,0,1.67,.22,2.36,.67,.69,.44,1.23,1.09,1.63,1.92,.39,.84,.59,1.85,.59,3.03s-.2,2.19-.59,3.03c-.39,.84-.93,1.49-1.62,1.94-.69,.45-1.47,.68-2.35,.68-.66,0-1.2-.11-1.62-.33s-.75-.48-.98-.78c-.24-.3-.42-.56-.55-.79h-.13v5.79h-2.12Zm2.08-9.55c0,.77,.11,1.44,.33,2.02s.54,1.03,.97,1.35c.42,.32,.94,.49,1.55,.49s1.17-.17,1.59-.51c.43-.34,.75-.8,.97-1.38s.33-1.24,.33-1.97-.11-1.37-.32-1.94-.54-1.02-.97-1.36c-.43-.33-.96-.5-1.6-.5s-1.13,.16-1.56,.48c-.42,.32-.74,.76-.96,1.33-.22,.57-.33,1.23-.33,1.99Z"/><path d="M616,39.54v14.54h-2.12v-14.54h2.12Z"/><path d="M620.79,58.17c-.32,0-.61-.02-.87-.08-.26-.05-.45-.1-.58-.16l.51-1.74c.39,.1,.73,.15,1.04,.13,.3-.01,.57-.13,.81-.34s.44-.56,.62-1.04l.26-.72-3.99-11.05h2.27l2.76,8.47h.11l2.76-8.47h2.28l-4.5,12.37c-.21,.57-.47,1.05-.79,1.45s-.71,.69-1.15,.89-.96,.3-1.55,.3Z"/><path d="M633.5,47.61v6.48h-2.12v-10.91h2.04v1.78h.13c.25-.58,.64-1.04,1.18-1.39,.54-.35,1.22-.53,2.04-.53,.74,0,1.39,.15,1.95,.46s.99,.77,1.3,1.38c.31,.61,.46,1.37,.46,2.27v6.94h-2.12v-6.68c0-.79-.21-1.41-.62-1.86s-.98-.67-1.7-.67c-.49,0-.93,.11-1.31,.32s-.68,.53-.9,.93c-.22,.41-.33,.9-.33,1.48Z"/><path d="M650.84,49.56v-6.39h2.13v10.91h-2.09v-1.89h-.12c-.25,.58-.65,1.07-1.2,1.45-.55,.39-1.24,.58-2.06,.58-.7,0-1.32-.16-1.86-.47-.54-.31-.96-.77-1.26-1.38-.3-.61-.46-1.37-.46-2.27v-6.94h2.12v6.68c0,.74,.21,1.34,.62,1.78s.95,.66,1.61,.66c.4,0,.79-.1,1.19-.3,.4-.2,.72-.5,.99-.9,.26-.4,.39-.91,.39-1.53Zm-2.37-7.59c-.47,0-.9-.1-1.29-.32-.38-.21-.69-.5-.91-.86-.22-.36-.34-.76-.34-1.21s.11-.85,.34-1.23c.22-.37,.53-.67,.91-.89s.81-.33,1.29-.33,.89,.11,1.27,.33,.68,.52,.9,.89c.22,.37,.33,.78,.33,1.23s-.11,.85-.33,1.21c-.22,.36-.52,.65-.9,.86-.38,.21-.8,.32-1.27,.32Zm0-1.14c.37,0,.68-.13,.92-.39,.24-.25,.36-.54,.36-.86s-.12-.63-.36-.89c-.24-.26-.55-.39-.92-.39s-.68,.13-.92,.39c-.24,.26-.36,.56-.36,.89s.12,.61,.36,.87c.24,.26,.55,.38,.92,.38Z"/></g><rect class="m" x="650.41" y="325.38" width="9.89" height=".73"/><g><line class="e" x1="370.44" y1="191.66" x2="443.72" y2="227.12"/><polygon class="m" points="441.4 230.62 441.02 229.69 445.59 227.82 443.39 223.41 444.28 222.96 446.96 228.34 441.4 230.62"/></g><g><line class="e" x1="472.94" y1="237.68" x2="642.53" y2="321.75"/><polygon class="m" points="639.87 324.99 639.59 324.03 644.32 322.65 642.59 318.03 643.53 317.68 645.63 323.3 639.87 324.99"/></g></g></g></svg>