<?xml version="1.0" encoding="UTF-8"?><svg id="a" xmlns="http://www.w3.org/2000/svg" viewBox="0 0 150 130"><defs><style>.c{fill:#f9f7ff;}.d{fill:#e1e1f5;}</style></defs><path class="d" d="M75,2.98C36.3,2.98,4.93,34.36,4.93,73.06c0,21.71,9.87,41.11,25.37,53.96H119.7c15.5-12.85,25.37-32.25,25.37-53.96C145.07,34.36,113.7,2.98,75,2.98"/><g><path d="M82.04,99.3h1.38c.53,0,.95,.43,.95,.95v3.8c0,.52-.43,.95-.95,.95h-1.38c-.53,0-.95-.43-.95-.95v-3.8c0-.52,.43-.95,.95-.95Z"/><path d="M82.04,88.38h1.38c.52,0,.95,.43,.95,.95v3.8c0,.52-.43,.95-.95,.95h-1.38c-.52,0-.95-.43-.95-.95v-3.8c0-.52,.43-.95,.95-.95Z"/><path d="M90.67,88.38h1.38c.52,0,.95,.43,.95,.95v3.8c0,.52-.43,.95-.95,.95h-1.38c-.52,0-.95-.43-.95-.95v-3.8c0-.52,.43-.95,.95-.95Z"/><path d="M99.29,88.38h1.38c.53,0,.95,.43,.95,.95v3.8c0,.52-.43,.95-.95,.95h-1.38c-.53,0-.95-.43-.95-.95v-3.8c0-.52,.43-.95,.95-.95Z"/><path d="M55.62,112.89h-5.26c-.67,0-1.22,.55-1.22,1.22s.55,1.22,1.22,1.22h5.26c.67,0,1.22-.55,1.22-1.22s-.55-1.22-1.22-1.22Z"/><path d="M47.53,99.3h1.38c.52,0,.95,.43,.95,.95v3.8c0,.52-.43,.95-.95,.95h-1.38c-.52,0-.95-.43-.95-.95v-3.8c0-.53,.43-.95,.95-.95Z"/><path d="M99.29,99.3h1.38c.53,0,.95,.43,.95,.95v3.8c0,.52-.43,.95-.95,.95h-1.38c-.53,0-.95-.43-.95-.95v-3.8c0-.52,.43-.95,.95-.95Z"/><path d="M64.78,99.3h1.38c.52,0,.95,.43,.95,.95v3.8c0,.52-.43,.95-.95,.95h-1.38c-.52,0-.95-.43-.95-.95v-3.8c0-.52,.43-.95,.95-.95Z"/><path d="M117.07,30.9h-6.46c-.1-3.96-3.37-7.16-7.35-7.16s-7.25,3.2-7.35,7.16h-1.41c-4.87,0-8.83,3.96-8.83,8.83v17.12c0,.52,.43,.95,.95,.95h.54c.53,0,.95-.43,.95-.95v-17.12c0-3.53,2.87-6.39,6.39-6.39h2.62c.67,0,1.22-.55,1.22-1.22v-1.02c0-2.71,2.21-4.92,4.92-4.92s4.92,2.21,4.92,4.92v1.02c0,.67,.55,1.22,1.22,1.22h7.67c1.87,0,3.39,1.52,3.39,3.39s-1.52,3.39-3.39,3.39h-11.77c-.67,0-1.21,.55-1.21,1.22,0,2.15-1.75,3.9-3.9,3.9h-6.14c-.67,0-1.22,.55-1.22,1.22v10.41c0,.52,.43,.95,.95,.95h.54c.52,0,.95-.43,.95-.95v-9.19h4.92c3.04,0,5.64-2.14,6.22-5.12h10.67c3.21,0,5.82-2.61,5.82-5.82s-2.61-5.82-5.82-5.82Z"/><path d="M100.18,52.89c4.08,0,7.9-2.19,9.97-5.72,.34-.58,.15-1.32-.43-1.66-.28-.17-.62-.22-.93-.13-.31,.08-.58,.28-.74,.56-1.64,2.79-4.66,4.52-7.87,4.52h-.91c-.67,0-1.22,.55-1.22,1.22s.55,1.22,1.22,1.22h.91Z"/><path d="M56.15,99.3h1.38c.53,0,.95,.43,.95,.95v3.8c0,.52-.43,.95-.95,.95h-1.38c-.52,0-.95-.43-.95-.95v-3.8c0-.52,.43-.95,.95-.95Z"/><path d="M71.27,57.89h.54c.52,0,.95-.43,.95-.95v-2.94c0-1.94-1.58-3.52-3.52-3.52h-5.46c-3.73,0-6.76,3.03-6.76,6.76v10.88c0,.52,.43,.95,.95,.95h.54c.53,0,.95-.43,.95-.95v-10.88c0-2.38,1.94-4.33,4.32-4.33h5.46c.6,0,1.08,.49,1.08,1.08v2.94c0,.52,.43,.95,.95,.95Z"/><path d="M90.67,99.3h1.38c.52,0,.95,.43,.95,.95v3.8c0,.52-.43,.95-.95,.95h-1.38c-.52,0-.95-.43-.95-.95v-3.8c0-.52,.43-.95,.95-.95Z"/><path d="M116.32,112.89h-2.64v-34.86c0-.52-.43-.95-.95-.95h-17.47v-15.53c0-.52-.43-.95-.95-.95h-7.7c-.52,0-.95,.43-.95,.95v15.54h-5.75v-15.42c0-.52-.43-.95-.95-.95h-7.7c-.53,0-.95,.43-.95,.95v26.68h-10.87v-15.42c0-.52-.43-.95-.95-.95h-7.7c-.53,0-.95,.43-.95,.95v15.42h-12.35c-.53,0-.95,.43-.95,.95v23.61h-2.53c-.67,0-1.21,.55-1.21,1.22s.54,1.22,1.21,1.22h11.61c.67,0,1.22-.55,1.22-1.22s-.55-1.22-1.22-1.22h-6.65v-22.12h12.35c.52,0,.95-.43,.95-.95v-15.42h4.73v15.42c0,.52,.43,.95,.95,.95h13.84c.52,0,.95-.43,.95-.95v-26.68h4.73v15.42c0,.52,.43,.95,.95,.95h8.72c.52,0,.95-.43,.95-.95v-15.53h4.73v15.54c0,.52,.43,.95,.95,.95h17.47v33.38H61.77c-.67,0-1.22,.55-1.22,1.22s.55,1.22,1.22,1.22h54.56c.67,0,1.22-.55,1.22-1.22s-.55-1.22-1.22-1.22Z"/><path d="M49.48,33.21h0c.16,.07,.32,.1,.48,.1,.48,0,.92-.29,1.11-.74,1.92-4.52,6.33-7.45,11.24-7.45,1.27,0,2.53,.2,3.75,.59,.64,.2,1.31-.15,1.52-.79,.21-.64-.14-1.33-.78-1.54-1.45-.47-2.96-.7-4.49-.7-5.88,0-11.17,3.5-13.47,8.93-.13,.3-.13,.63,0,.93,.12,.3,.35,.54,.65,.67Z"/><path d="M48.87,64.13c.64,.63,.99,1.48,.99,2.38v1.61c0,.52,.43,.95,.95,.95h.54c.52,0,.95-.43,.95-.95v-1.61c0-3.2-2.6-5.8-5.8-5.8h-14.85c-1.58,0-2.87-1.29-2.87-2.88s1.29-2.87,2.87-2.87h7.17c1.15,0,2.22-.45,3.03-1.26,.82-.82,1.25-1.9,1.25-3.12,0-1.12-.44-2.17-1.23-2.97-.79-.79-1.84-1.23-2.96-1.23h-.21c-.73,0-1.43-.29-1.95-.81-.52-.52-.81-1.22-.81-1.95v-.11c0-1.58,1.29-2.87,2.88-2.87h16.37c.67,0,1.21-.55,1.21-1.22,0-3.84,3.13-6.97,6.97-6.97s6.97,3.13,6.97,6.97v4.09c0,.67,.55,1.22,1.22,1.22h1.92c2.22,0,4.03,1.81,4.03,4.03v8.21c0,.52,.43,.95,.95,.95h.54c.52,0,.95-.43,.95-.95v-8.21c0-3.56-2.9-6.46-6.46-6.46h-.7v-2.88c0-5.18-4.22-9.4-9.4-9.4-4.73,0-8.72,3.51-9.32,8.18h-15.23c-2.93,0-5.31,2.38-5.31,5.31v.11c0,1.39,.54,2.7,1.52,3.67,.98,.98,2.29,1.52,3.67,1.52h.21c.47,0,.91,.18,1.24,.51,.34,.34,.52,.79,.52,1.32,0,.5-.19,.98-.54,1.33-.35,.35-.81,.54-1.31,.54h-7.17c-2.92,0-5.3,2.38-5.3,5.31s2.38,5.31,5.31,5.31h14.86c.9,0,1.74,.35,2.38,.99Z"/></g><g><g><path class="c" d="M69.1,41.78c-3.11,0-6.21,.8-8.99,2.41-5.57,3.21-9,9.15-9,15.58s3.43,12.37,9,15.58c2.78,1.61,5.89,2.41,8.99,2.41s6.21-.8,8.99-2.41c5.57-3.21,8.99-9.15,8.99-15.58s-3.43-12.37-8.99-15.58c-2.78-1.61-5.89-2.41-8.99-2.41"/><path d="M69.1,78.88c-3.35,0-6.65-.88-9.55-2.56-5.89-3.4-9.55-9.74-9.55-16.54s3.66-13.15,9.55-16.54c5.8-3.35,13.3-3.35,19.1,0,5.89,3.4,9.55,9.74,9.55,16.54s-3.66,13.14-9.55,16.54c-2.9,1.68-6.2,2.56-9.55,2.56Zm0-35.99c-2.96,0-5.88,.78-8.44,2.26-5.21,3-8.44,8.6-8.44,14.62s3.23,11.62,8.44,14.62c5.12,2.96,11.75,2.96,16.88,0,5.21-3,8.44-8.61,8.44-14.62s-3.23-11.62-8.44-14.62c-2.56-1.48-5.48-2.26-8.44-2.26Z"/></g><path d="M78.1,67.24l-7.15-7.15-.31-.31,.31-.31,7.15-7.15c.42-.42,.42-1.11,0-1.54-.2-.2-.48-.32-.77-.32s-.56,.11-.77,.32l-7.15,7.15-.31,.31-.31-.31-7.15-7.15c-.2-.21-.48-.32-.77-.32s-.56,.11-.77,.32c-.2,.2-.32,.48-.32,.77s.11,.56,.32,.77l7.15,7.15,.31,.31-.31,.31-7.15,7.15c-.42,.42-.42,1.11,0,1.54,.2,.21,.48,.32,.77,.32s.56-.11,.77-.32l7.15-7.15,.31-.31,.31,.31,7.15,7.15c.21,.2,.48,.32,.77,.32s.56-.11,.77-.32c.42-.42,.42-1.11,0-1.54Z"/></g></svg>