<?xml version="1.0" encoding="UTF-8"?><svg id="a" xmlns="http://www.w3.org/2000/svg" viewBox="0 0 150 130"><defs><style>.c{fill:#f9f7ff;}.d{fill:#e1e1f5;}</style></defs><path class="d" d="M75,2.98C36.3,2.98,4.93,34.36,4.93,73.06c0,21.71,9.87,41.11,25.37,53.96H119.7c15.5-12.85,25.37-32.25,25.37-53.96C145.07,34.36,113.7,2.98,75,2.98"/><path class="c" d="M112.54,65.42c-1.34-.23-2.71-.08-3.96,.44h0s-.01,0-.02,0c-1.52,.6-3.04,1.67-4.5,3.18,1.75,1.97,3.06,4.58,3.84,7.76,.07,.29,.02,.59-.13,.85-.15,.25-.4,.44-.69,.51-.09,.02-.18,.03-.27,.03-.52,0-.97-.35-1.09-.86-.77-3.17-2.1-5.66-3.89-7.4-.01,0-.02-.02-.04-.03-.04-.03-.07-.07-.1-.1-1.19-1.12-2.63-1.93-4.2-2.36-.06-.01-.11-.03-.16-.05-.98-.25-1.98-.38-2.99-.37-2.89,0-5.38,.97-7.34,2.83-.03,.03-.06,.06-.09,.09h0s0,0-.01,.01c-.8,.79-1.49,1.68-2.05,2.65-.31,.53-1,.72-1.53,.4-.53-.31-.72-1-.4-1.53,.5-.85,1.08-1.65,1.73-2.39h0c-2.76-2.88-5.76-4.18-8.51-3.67-2.95,.55-5.19,2.44-5.98,5.06-1.13,3.72,.35,7.39,1.91,11.28,.83,2.08,1.69,4.22,2.2,6.47l36.13,19.12c2.33-2.85,3.6-8.24,3.6-15.33,0-3.67,1.34-7.02,2.64-10.26h0c1.56-3.89,3.03-7.56,1.9-11.28-.79-2.62-3.03-4.51-5.98-5.06Z"/><path class="c" d="M82,64.23c1.62,.85,3.09,1.97,4.34,3.31,1.19-.96,2.55-1.68,4.01-2.14h0c.06-.65,.12-1.29,.18-1.91,.07-.74,.14-1.45,.2-2.13h0c-3.84-1-6.39,.35-8.72,2.87Z"/><path class="c" d="M98.86,64.07c.02,.47,.03,.96,.04,1.45,1.31,.45,2.53,1.12,3.62,1.99,1.2-1.28,2.6-2.36,4.14-3.19h0c-.57-.63-1.54-1.15-2.69-1.4-1.57-.34-3.69-.2-5.11,1.15Z"/><path class="c" d="M92.65,64.9c.58-.07,1.17-.11,1.76-.11,.75,0,1.49,.06,2.23,.17h0c-.17-6.94-1.62-11.61-4.42-14.25-1.78-1.68-4.07-2.51-6.99-2.52l.02,1.04c2.82,.38,4.82,1.31,6.09,2.83,2.28,2.73,1.88,6.86,1.42,11.65-.04,.39-.08,.79-.11,1.19Z"/><g><path d="M76.7,102.03c-.29-.04-.59,.03-.83,.21-.24,.18-.4,.44-.44,.73-.39,2.48-1.43,4.82-3.01,6.76-.39,.48-.33,1.18,.15,1.57,.47,.39,1.18,.33,1.58-.14,1.86-2.26,3.07-4.97,3.51-7.86,.05-.29-.03-.59-.21-.83s-.44-.4-.74-.44h0Z"/><path d="M115.74,64.12c.51-.94,.95-1.92,1.31-2.93,2.53-7.17,.81-15.16-4.47-21.26h0c.97-.42,1.9-.93,2.77-1.53,.36-.25,.53-.68,.46-1.11-.08-.43-.39-.77-.82-.89-.56-.11-1.13-.17-1.7-.15-.49-.01-1.17-.03-1.43-.12-.74-.26-1.38-.82-2.11-1.47-1.25-1.1-2.75-2.42-5.41-2.86l3.36-5.25h0c.46-.74,.5-1.66,.1-2.44-.4-.77-1.18-1.28-2.05-1.32-.87-.05-1.7,.37-2.18,1.1l-3.32,5.03c-2.1-1.14-4.26-.91-6.04-.72-.73,.1-1.47,.14-2.21,.12-2.48-.16-4.41-1.86-4.42-1.88-.37-.34-.92-.39-1.35-.12-.43,.27-.62,.78-.48,1.26,.43,1.4,1.08,2.73,1.9,3.94-7.6,1.61-13.68,6.68-16.12,13.59-1.73,4.91-1.51,10.19,.6,15.1-2.86-.8-5.75-1.9-8.5-3.6-7.64-4.75-10.68-11.14-12.45-15.48,.12,.06,.23,.12,.35,.18h0c.38,.19,.84,.15,1.18-.11,.34-.26,.51-.69,.43-1.11-.53-2.73-2.07-5.16-4.31-6.81-1.93-1.45-4.3-2.18-6.71-2.05-.06-.27-.1-.54-.16-.83-.04-.2-.07-.41-.12-.64h0c-.14-.85-.23-1.71-.25-2.57-.08-1.62-.15-3.03-1.22-3.86-.68-.53-1.61-.68-2.84-.44-4.8,.92-3.76,6.32-3.37,8.35l.07,.39c.17,.92,.34,1.79,.57,2.67-1.91,1.76-3.03,4.18-3.26,7.04-.18,2.3,.23,4.85,1.11,6.82h0c.18,.4,.58,.66,1.02,.66,.02,0,.04,0,.06,0,.25-.01,.48-.11,.67-.27,3.76,17.13,10.38,30.88,19.28,40-.15,.17-.3,.34-.45,.52-1.03-.06-2.1,.5-3.07,1.61l-15.5-12.58c-.47-.38-1.15-.32-1.54,.13l-3.55,3.99c-.22,.24-.32,.57-.27,.89,.04,.32,.22,.61,.5,.79l3.1,2.04-.96,3.85-3.05-.9c-.34-.1-.7-.04-.98,.17-.28,.21-.45,.54-.46,.89l-.15,9.25c0,.3,.11,.59,.32,.81,.21,.21,.5,.34,.8,.34,.02,0,.04,0,.06,0l6.88-.39,.26,2.59h0c.06,.57,.54,1.01,1.12,1.01,.07,0,.14,0,.21-.02l10.41-1.98c.31,1.53,1,2.59,1.98,3.05h0c.13,.66,.31,1.31,.53,1.95,0,.02,.02,.05,.03,.07,.73,1.79,1.75,3.45,3.03,4.9,.02,.02,.04,.05,.06,.07,2.23,2.42,5.03,3.68,8.23,3.62l38.28,.08h0l12.77,.03h.04c.96-.03,1.86-.48,2.46-1.23s.84-1.72,.66-2.66c-.18-.94-.76-1.76-1.59-2.24-.01,0-.02-.01-.03-.02l-1.43-.76c1.92-2.57,3.83-7.39,3.83-16.4,0-3.24,1.26-6.38,2.48-9.42,1.64-4.08,3.33-8.29,1.97-12.76h0c-.77-2.51-2.56-4.58-4.93-5.71h0Zm-23.89-33.57c.87,.03,1.73-.01,2.59-.13,1.6-.17,3.12-.33,4.57,.38l-.76,1.15c-.17,.25-.24,.56-.18,.85,.06,.3,.23,.56,.48,.72,.25,.17,.56,.22,.86,.16,.3-.06,.55-.25,.71-.5l5.32-8.07h0c.04-.05,.09-.09,.16-.09s.13,.02,.17,.06c.07,.07,.08,.17,.03,.25l-4.36,6.83c-.22,.34-.24,.78-.04,1.14s.57,.58,.98,.58h.05c3.05,0,4.41,1.19,5.84,2.45,.77,.68,1.57,1.39,2.61,1.81-.17,.04-.33,.08-.5,.1-2.41,.29-4.25-.94-4.93-1.48-.47-.37-1.15-.31-1.54,.14-1.47,1.68-1.04,3.27-.66,4.68h0c.18,.59,.3,1.19,.37,1.81-.29-.12-.6-.25-.94-.38h0c-.39-.14-.78-.31-1.15-.5-1.36-.85-1.51-2.3-1.64-3.47-.09-.86-.19-1.75-1.05-2.09h0c-.36-.14-.77-.08-1.08,.15-2.04,1.55-3.95,1.49-5.34,1.45-.33-.02-.66-.02-.99,0-.4,.04-.8,.14-1.18,.29,.3-.55,.68-1.05,1.13-1.49,.9-.87,2.04-1.46,3.26-1.69,.53-.1,.91-.56,.92-1.1,0-.54-.37-1-.9-1.11-1.7-.35-3.26-1.18-4.48-2.41-.32-.33-.6-.68-.85-1.06,.81,.3,1.67,.49,2.53,.55h0Zm-18.21,15.31c2.32-6.57,8.38-11.29,15.85-12.39h0c.55,.44,1.14,.83,1.76,1.15-.52,.33-1.01,.71-1.45,1.14-1.39,1.37-2.28,3.16-2.52,5.09-.05,.4,.11,.79,.43,1.03,.32,.24,.74,.3,1.11,.15,.29-.12,.62-.29,.97-.47,.58-.3,1.37-.72,1.81-.76,.17-.01,.44,0,.74,0,1.26,.04,3.22,.09,5.36-1.02,.17,1.35,.61,3.38,2.63,4.63h0c.48,.27,.99,.49,1.51,.68,.54,.22,1.54,.61,1.81,.83h0c.25,.36,.69,.53,1.12,.45,.43-.08,.77-.41,.88-.83,.47-1.89,.07-3.36-.24-4.54-.21-.77-.34-1.29-.27-1.73,1.49,.89,3.2,1.33,4.93,1.25,5.37,5.59,7.24,13.18,4.85,19.92-.36,1.01-.8,1.98-1.33,2.91-.21-.05-.43-.1-.65-.14-1.41-.25-2.85-.18-4.22,.23-.83-1.29-2.41-2.3-4.36-2.72-1.71-.37-3.91-.3-5.77,.72-.56-5.72-2.18-9.79-4.92-12.37-2.43-2.29-5.71-3.33-9.74-3.1h0c-.6,.04-1.07,.54-1.06,1.14l.07,3.14c.01,.57,.46,1.05,1.03,1.09,2.73,.23,4.55,.93,5.56,2.14,1.08,1.29,1.32,3.21,1.25,5.59-4.5-1.01-7.62,.76-9.93,3.02-.51-.1-1.03-.2-1.57-.3-1.4-.27-2.85-.55-4.34-.88-2.58-4.83-3.05-10.16-1.31-15.06h0Zm32.94,18.45h0c-1.54,.84-2.94,1.91-4.14,3.19-1.08-.86-2.31-1.54-3.62-1.99,0-.49-.02-.97-.04-1.45,1.43-1.35,3.54-1.5,5.11-1.15,1.14,.25,2.11,.77,2.69,1.4h0Zm-15.31-12.26c-1.27-1.52-3.27-2.46-6.09-2.83l-.02-1.04c2.92,.02,5.21,.85,6.99,2.52,2.8,2.65,4.25,7.32,4.42,14.25h0c-.74-.11-1.48-.17-2.23-.17-.59,0-1.18,.04-1.76,.11,.04-.4,.08-.8,.11-1.19,.46-4.79,.86-8.92-1.42-11.65h0Zm-.62,9.3c-.06,.68-.13,1.4-.2,2.13-.06,.62-.12,1.26-.18,1.91h0c-1.46,.46-2.82,1.19-4.01,2.14-1.25-1.34-2.72-2.46-4.34-3.31,2.34-2.52,4.88-3.87,8.72-2.87h0Zm-55.18-20.53c-.47,.13-.85,.5-1.01,.96l-.65,1.96c-.29-2.8,.31-6.09,2.96-8.19,0,0,0,0,0,0,.02-.02,.04-.03,.06-.05,0,0,.02-.02,.03-.03,.02-.02,.03-.03,.05-.05,.01-.01,.02-.02,.03-.04s.02-.03,.03-.04,.02-.03,.03-.05c0-.01,.02-.03,.02-.04,.01-.02,.02-.04,.03-.06,0-.01,.01-.03,.02-.04,0-.02,.02-.04,.03-.06,0-.02,.01-.03,.02-.05,0-.02,.01-.03,.02-.05,0-.02,.01-.05,.02-.07,0-.01,0-.02,0-.03,0-.03,0-.05,.01-.08,0,0,0-.02,0-.02,0-.03,0-.05,0-.08,0,0,0-.02,0-.03,0-.02,0-.05,0-.07,0-.01,0-.02,0-.04,0-.02,0-.04,0-.06,0-.02,0-.03,0-.05s0-.03-.01-.05c0-.02,0-.04-.02-.06,0,0,0,0,0-.01h0c-.3-1.03-.54-2.08-.71-3.14l-.07-.39c-.83-4.34,.04-5.43,1.59-5.72,.8-.15,1.01-.01,1.03,0,.26,.2,.32,1.36,.36,2.21,.03,.97,.13,1.93,.29,2.88,.04,.21,.07,.41,.11,.6h0c.1,.68,.26,1.34,.46,2,0,0,0,.01,0,.02,0,.03,.02,.05,.03,.08,0,0,0,.02,.01,.02,.01,.03,.03,.05,.04,.08,0,0,0,.01,.01,.02,.02,.03,.03,.05,.05,.08v.02s.05,.05,.07,.07h.01s.04,.06,.06,.08h0s.05,.05,.07,.07h0s.05,.05,.08,.06h0s0,0,0,0c.23,.15,.52,.21,.79,.17,3.45-.58,6.95,1.39,8.62,4.53-1.1-.54-2.23-1.02-3.38-1.45-.56-.19-1.17-.06-1.6,.33-.43,.4-.61,1-.46,1.57,.22,.94,.35,1.89,.41,2.85-1.09-.82-2.05-1.81-2.82-2.94-.33-.5-.94-.73-1.52-.58-.58,.15-1,.65-1.04,1.25l-.29,4.14-2.54-2.14h0c-.38-.32-.89-.43-1.36-.29h0Zm.42,3.79l.35-1.07,3.37,2.84h0c.32,.27,.77,.34,1.16,.17,.39-.16,.65-.53,.68-.95l.3-4.17c1.17,1.19,2.48,2.24,3.9,3.12,.35,.22,.78,.24,1.14,.04,.36-.2,.58-.57,.58-.99-.01-1.48-.12-2.97-.33-4.44,.34,.14,.72,.31,1.13,.49,.14,.33,.28,.69,.44,1.09,1.69,4.25,4.83,12.16,13.83,17.75,4.19,2.61,8.76,3.9,12.86,4.78-3.59,.8-6.31,3.22-7.32,6.53-1.36,4.47,.33,8.69,1.97,12.76,.55,1.37,1.11,2.78,1.56,4.19l-2.82-1.5c-.3-.16-.6-.31-.9-.45-.04-.02-.09-.04-.13-.06-3.86-1.65-8.17-.87-12.33,2.25-9.21-9.42-15.93-24.05-19.45-42.41h0Zm15,49.64c.08,.35,.11,.72,.08,1.08l-17.19-3.65,1.09-4.36,16.02,6.93Zm-18.77-11.52l1.97-2.21,10.62,8.62-8.34-3.61-4.25-2.79Zm4.04,12.96h0c-.31,0-.61,.14-.82,.38-.21,.23-.31,.54-.28,.86l.08,.77-5.58,.32,.11-6.57,1.73,.51-.08,.3h0c-.07,.3-.02,.61,.14,.87,.16,.26,.42,.44,.72,.5l9.15,1.94-5.17,.11Zm11.98,3.41h0s-10.39,1.98-10.39,1.98l-.32-3.17,12.97-.29c-.18,.44-.44,.85-.76,1.2l-1.49,.28Zm2.23,3.47c-.23-.06-.59-.51-.79-1.46l.77-.15h0s.09-.02,.13-.03c.01,0,.02,0,.03-.01,.11-.04,.21-.09,.3-.16,0,0,0,0,.01,0s0,0,.01,0c0,0,.02-.01,.02-.02,1.79-1.43,3.06-5.58,1.9-7.81,0,0,0-.02-.01-.02v-.02s0,0,0,0c0,0,0-.01,0-.02s0-.01-.01-.02c0-.01-.02-.03-.02-.04,0,0,0-.01-.01-.02,0-.01-.01-.02-.02-.03-.01-.01-.02-.03-.03-.04h-.01s-.02-.03-.03-.04c-.01-.01-.02-.03-.04-.04h0s-.02-.03-.03-.04c-.01-.01-.03-.03-.04-.04h0s0,0,0,0h0s0,0,0,0l-.54-.43c.57-.64,1.04-.83,1.27-.78h0s.03,0,.04,.01c0,0,.02,0,.02,0,.27,.13,.59,.65,.76,1.59,.23,1.24,.12,2.88-.28,4.5-.87,3.49-2.67,5.32-3.35,5.15h0Zm62.38,8.55h0c.39,.24,.59,.7,.48,1.15-.11,.45-.5,.77-.96,.79l-10.22-.02h0c.34-.66,.56-1.38,.66-2.12,.09-.61-.34-1.18-.95-1.27-.61-.09-1.18,.34-1.27,.95-.16,1.11-.58,1.87-1.32,2.43l-37.93-.08h-.02c-.06,0-.12,0-.18,0-1.87,.02-3.68-.6-5.15-1.76,2.53-1.31,4.67-3.95,5.31-6.78h0c.14-.6-.24-1.2-.85-1.34-.6-.14-1.2,.24-1.34,.84-.56,2.44-2.61,4.76-4.83,5.58h0c-.89-1.14-1.63-2.4-2.18-3.73-.14-.4-.25-.81-.35-1.22,1.77-.8,3.43-3.26,4.25-6.58,.49-1.95,.6-3.88,.31-5.45h0c-.13-.85-.46-1.66-.96-2.36,.25-.29,.51-.56,.78-.82,0,0,.02-.02,.03-.03s.01-.02,.02-.02c.01-.01,.03-.03,.04-.04,2.55-2.07,6.28-4.05,10.24-2.6,.95,3.42,.69,6.32-.84,9.59-.13,.27-.15,.58-.05,.86,.1,.28,.31,.51,.58,.64s.58,.14,.86,.04c.28-.1,.51-.32,.63-.59,1.47-3.14,1.92-6.08,1.38-9.26l3.44,1.82h0c.2,.27,.52,.44,.86,.45l22.74,12.04c.43,1.03,.23,2.41-.1,3.33-.21,.58,.09,1.23,.68,1.44,.58,.21,1.23-.09,1.44-.68,.32-.89,.48-1.83,.47-2.77l14.28,7.56Zm3.87-29.39c-1.3,3.24-2.64,6.58-2.64,10.26,0,7.09-1.27,12.48-3.6,15.34l-36.13-19.12c-.5-2.25-1.36-4.39-2.2-6.47-1.56-3.89-3.03-7.56-1.91-11.28,.8-2.62,3.03-4.51,5.98-5.06,2.75-.51,5.75,.79,8.51,3.66h0c-.65,.74-1.23,1.54-1.73,2.39-.31,.53-.13,1.22,.4,1.53,.53,.31,1.22,.13,1.53-.4,.56-.97,1.25-1.86,2.05-2.65,0,0,0,0,.01,0h0s.06-.06,.09-.09c1.96-1.86,4.45-2.83,7.34-2.83,1.01,0,2.02,.12,2.99,.37,.05,.02,.11,.03,.16,.05,1.57,.43,3.01,1.25,4.2,2.36,.03,.04,.07,.07,.1,.1,.01,.01,.02,.02,.04,.03,1.79,1.74,3.12,4.23,3.89,7.4,.12,.5,.57,.86,1.09,.86,.09,0,.18-.01,.27-.03,.29-.07,.54-.25,.69-.51,.15-.25,.2-.56,.13-.85-.78-3.18-2.09-5.79-3.84-7.76,1.46-1.51,2.98-2.59,4.5-3.18,0,0,.01,0,.02,0h0c1.25-.52,2.63-.67,3.96-.44,2.95,.55,5.19,2.44,5.98,5.06,1.13,3.72-.34,7.39-1.9,11.28h0Z"/></g></svg>