<?xml version="1.0" encoding="UTF-8"?>
<svg id="Layer_1" xmlns="http://www.w3.org/2000/svg" viewBox="0 0 660 130">
  <defs>
    <style>
      .cls-1 {
        fill: #008a65;
      }

      .cls-2, .cls-3, .cls-4, .cls-5 {
        stroke-width: .75px;
      }

      .cls-2, .cls-3, .cls-5 {
        stroke: #008a65;
      }

      .cls-2, .cls-5 {
        stroke-linecap: round;
        stroke-linejoin: round;
      }

      .cls-2, .cls-6 {
        fill: #c5ebd8;
      }

      .cls-7, .cls-5 {
        fill: #fff;
      }

      .cls-3, .cls-4 {
        fill: none;
        stroke-miterlimit: 10;
      }

      .cls-4 {
        stroke: #c5ebd8;
        stroke-dasharray: 3 1;
      }

      .cls-8 {
        fill: #9debc7;
      }
    </style>
  </defs>
  <circle class="cls-8" cx="63.05714638" cy="67.57578241" r="61.7750443"/>
  <g>
    <rect class="cls-5" x="13.88076323" y="44.85294648" width="84.26611362" height="75.13275421"/>
    <g>
      <polyline class="cls-4" points="16.25697615 93.54141376 28.30140974 85.88321064 36.61781599 90.19522236 46.74635603 80.4923415 57.82533552 84.31411884 66.87501814 62.45889423 76.26149275 72.79556415 90.42238142 104.93277119"/>
      <polygon class="cls-6" points="89.07020857 105.11001728 91.18202497 106.65664814 91.46571638 104.05459736 89.07020857 105.11001728"/>
    </g>
    <g>
      <polyline class="cls-7" points="13.88076323 107.16341415 28.30140861 97.99447987 36.61777176 102.30650171 46.74631014 92.60351914 57.82531496 96.42540801 67.44900999 85.06853597 75.51376492 91.2061464 91.18197886 63.52602019"/>
      <g>
        <polyline class="cls-3" points="13.88075544 107.16348408 28.30140974 97.99453876 36.61781599 102.30655048 46.74635603 92.60342548 57.82533552 96.42544697 67.44899275 85.06851337 75.51381208 91.20620869 90.25404646 65.1654372"/>
        <polygon class="cls-1" points="91.20448591 66.14346454 91.18202497 63.5260329 88.92628767 64.85391376 91.20448591 66.14346454"/>
      </g>
    </g>
  </g>
  <g>
    <polygon class="cls-2" points="112.98283521 58.29616612 62.4572058 58.29616612 62.4572058 18.66796889 112.98283521 18.66796889 132.30334418 38.4820675 112.98283521 58.29616612"/>
    <path class="cls-1" d="M78.54822944,37.6858954h7.5010067v1.89641704h-7.5010067v8.16136621h-2.0488077v-8.16136621h-7.34861605v-1.89641704h7.34861605v-7.89044949h2.0488077v7.89044949Z"/>
  </g>
  <g>
    <rect class="cls-2" x="58.84872614" y="80.12285007" width="68.96529232" height="34.85543152"/>
    <rect class="cls-2" x="53.71948048" y="75.2563415" width="68.96529232" height="34.85543152"/>
    <line class="cls-2" x1="76.1205992" y1="75.2563415" x2="76.1205992" y2="110.11177302"/>
    <line class="cls-2" x1="57.9625472" y1="79.24801904" x2="57.9625472" y2="85.72886718"/>
    <rect class="cls-2" x="60.96942719" y="79.24801904" width="2.91930097" height="6.48084814"/>
    <rect class="cls-2" x="66.83722213" y="79.24801904" width="2.91930097" height="6.48084814"/>
    <circle class="cls-7" cx="98.52844643" cy="92.68405726" r="13.89294199"/>
  </g>
  <g>
    <circle class="cls-2" cx="26.92856847" cy="38.4820675" r="24.49307392"/>
    <path class="cls-1" d="M15.8717798,30.30341476c0-1.47875377.47034153-2.69787901,1.41290595-3.65737573s2.1541642-1.43924508,3.63291797-1.43924508c1.50133016,0,2.71857404.48257041,3.6479689,1.44771123.93315759.96514082,1.39785502,2.2153086,1.39785502,3.75050335v1.20219295c0,1.49004196-.4722229,2.70634516-1.41290595,3.64890958-.94444579.94256442-2.14287601,1.41384664-3.59905338,1.41384664-1.46746557,0-2.68094672-.47128221-3.64044343-1.41384664-.95949672-.94256442-1.43924508-2.19837631-1.43924508-3.76743565v-1.18526065ZM18.20843652,31.6006167c0,.88236071.24834033,1.60950871.74502098,2.18050333.49668065.5719353,1.16268426.85696227,1.99801082.85696227.80146197,0,1.44677054-.27656082,1.93968847-.83156382.48915519-.55406232.73561415-1.31225287.73561415-2.27457163v-1.23887959c0-.88236071-.24269623-1.61139008-.72808869-2.18896948-.48539246-.57663871-1.14575196-.86542841-1.98107852-.86542841s-1.49568606.2887897-1.98107852.86542841c-.48539246.5775794-.72808869,1.33012584-.72808869,2.25763934v1.23887959ZM21.66262471,48.35324128l-1.77789098-1.11753147,12.03886178-19.26895176,1.77789098,1.11753147-12.03886178,19.26895176ZM27.87677699,44.1709644c0-1.47875377.47034153-2.69505696,1.41478732-3.64890958.94068306-.95385262,2.15228284-1.43077893,3.6310366-1.43077893s2.69223491.47410426,3.64044343,1.42231278,1.42231278,2.20684245,1.42231278,3.77590179v1.20219295c0,1.47875377-.4722229,2.69505696-1.41290595,3.64890958-.94444579.95385262-2.1485201,1.43077893-3.61598567,1.43077893s-2.68094672-.47128221-3.64044343-1.41384664c-.95949672-.94256442-1.43924508-2.19837631-1.43924508-3.76743565v-1.21912524ZM30.21343371,45.48509863c0,.89364891.24834033,1.62644101.74502098,2.19743562.49668065.5719353,1.16268426.85696227,1.99801082.85696227.81275016,0,1.46182147-.28032355,1.94721393-.84002997.48539246-.55970642.72808869-1.32071901.72808869-2.28303778v-1.25581188c0-.89364891-.2445776-1.62267828-.73749552-2.18896948-.48915519-.56535052-1.14763333-.84849612-1.97167169-.84849612-.80146197,0-1.45429601.28032355-1.95662076.84002997s-.75254645,1.31507492-.75254645,2.26610549v1.25581188Z"/>
    <path class="cls-1" d="M108.73370325,36.17768285l-.97465671,2.11391165h-13.4923527l.76890891-2.11391165h13.6981005ZM106.8972572,40.34319397l-.99581934,2.13389858h-11.63474401l.76890891-2.13389858h11.86165444ZM111.23677217,30.60603249l-1.20979705,2.59594935c-.38327875-.32802077-.80065286-.62664901-1.25212231-.89235759-.45146945-.26688429-.93703425-.48086199-1.45669441-.64193313-.52083585-.16107113-1.07811846-.24101885-1.67302352-.24101885-1.09457828,0-2.06923499.29392542-2.92397013.88295198-.85591084.58785085-1.52723651,1.46845142-2.01632841,2.64180172s-.73363786,2.6312204-.73363786,4.37596172.24454595,3.20143573.73363786,4.37125892,1.16041758,2.04689666,2.01632841,2.6312204c.85473514.58549945,1.82939184.87824917,2.92397013.87824917.60195927,0,1.16512038-.07877201,1.68830764-.23631604s1.00169785-.36446753,1.43670748-.6207705c.43383393-.25630297.82534259-.52906576,1.174526-.81593698l1.24154099,2.58536804c-.72540795.65721725-1.56721036,1.15336337-2.52423155,1.48843835-.95819688.33507498-1.96342184.50202463-3.01685056.50202463-1.71652448,0-3.23670678-.43383393-4.56054689-1.30267748-1.32384011-.86884356-2.36198471-2.10803315-3.1144338-3.71992018-.75244909-1.61071133-1.12867363-3.5306322-1.12867363-5.76093833,0-2.23736033.37622454-4.16198401,1.12867363-5.77622245s1.79059369-2.85577943,3.1144338-3.72462298c1.32384011-.86884356,2.84402241-1.30385318,4.56054689-1.30385318,1.09457828,0,2.11391165.17988236,3.05800012.53847138.94408846.35976472,1.78824228.87472206,2.53363716,1.54487203Z"/>
  </g>
</svg>