<?xml version="1.0" encoding="UTF-8"?>
<svg id="Layer_1" xmlns="http://www.w3.org/2000/svg" viewBox="0 0 200 200">
  <defs>
    <style>
      .cls-1 {
        fill: #fff;
      }

      .cls-1, .cls-2, .cls-3 {
        stroke-linecap: round;
        stroke-linejoin: round;
        stroke-width: .75px;
      }

      .cls-1, .cls-3 {
        stroke: #3290b3;
      }

      .cls-2 {
        fill: none;
        stroke: #fff;
      }

      .cls-4 {
        fill: #b4e0f0;
      }

      .cls-3 {
        fill: #cff2ff;
      }
    </style>
  </defs>
  <circle class="cls-4" cx="100" cy="100.51958098" r="88.02232699"/>
  <g>
    <rect class="cls-3" x="84.49605554" y="54.2284846" width="97.70703007" height="81.45911945"/>
    <rect class="cls-1" x="84.49605554" y="54.2284846" width="97.70703007" height="12.62506568"/>
    <line class="cls-3" x1="100.78056056" y1="66.85355028" x2="100.78056056" y2="135.68760405"/>
    <line class="cls-3" x1="117.06506557" y1="66.85355028" x2="117.06506557" y2="135.68760405"/>
    <line class="cls-3" x1="133.34957058" y1="66.85355028" x2="133.34957058" y2="135.68760405"/>
    <line class="cls-3" x1="149.63407559" y1="66.85355028" x2="149.63407559" y2="135.68760405"/>
    <line class="cls-3" x1="165.9185806" y1="66.85355028" x2="165.9185806" y2="135.68760405"/>
    <line class="cls-3" x1="84.49605554" y1="75.457807" x2="182.20308561" y2="75.457807"/>
    <line class="cls-3" x1="84.49605554" y1="84.06206373" x2="182.20308561" y2="84.06206373"/>
    <line class="cls-3" x1="84.49605554" y1="92.66632045" x2="182.20308561" y2="92.66632045"/>
    <line class="cls-3" x1="84.49605554" y1="101.27057717" x2="182.20308561" y2="101.27057717"/>
    <line class="cls-3" x1="84.49605554" y1="109.87483389" x2="182.20308561" y2="109.87483389"/>
    <line class="cls-3" x1="84.49605554" y1="118.47909061" x2="182.20308561" y2="118.47909061"/>
    <line class="cls-3" x1="84.49605554" y1="127.08334733" x2="182.20308561" y2="127.08334733"/>
    <line class="cls-3" x1="84.49605554" y1="135.68760405" x2="182.20308561" y2="135.68760405"/>
    <line class="cls-3" x1="84.49605554" y1="66.85355028" x2="182.20308561" y2="66.85355028"/>
  </g>
  <g>
    <rect class="cls-3" x="41.49024815" y="28.02912315" width="96.13311879" height="134.60098349"/>
    <rect class="cls-1" x="32.5775886" y="19.1164636" width="96.13311879" height="134.60098349"/>
    <rect class="cls-3" x="41.49221219" y="28.0271591" width="77.86314423" height="69.42378408"/>
    <line class="cls-3" x1="41.49221219" y1="107.09592621" x2="119.35535642" y2="107.09592621"/>
    <line class="cls-3" x1="41.49221219" y1="116.74090923" x2="119.35535642" y2="116.74090923"/>
    <line class="cls-3" x1="41.49221219" y1="126.38589226" x2="119.35535642" y2="126.38589226"/>
    <line class="cls-3" x1="41.49221219" y1="136.03087529" x2="77.86183569" y2="136.03087529"/>
    <polyline class="cls-2" points="45.8617033 80.9605641 60.31324806 78.80629656 68.4815125 81.76841443 78.80404447 74.13871688 86.61326431 77.01107361 93.97367841 69.91994295 100.1671976 69.91994295 115.42659269 43.70968785"/>
    <line class="cls-2" x1="49.1165565" y1="35.45856869" x2="95.74484562" y2="35.45856869"/>
    <line class="cls-2" x1="49.1165565" y1="41.87983732" x2="70.0597711" y2="41.87983732"/>
  </g>
  <g>
    <circle class="cls-3" cx="133.34957058" cy="149.58997316" r="40.21679865"/>
    <rect class="cls-1" x="126.81221581" y="146.87730777" width="13.07470955" height="29.42844268"/>
    <circle class="cls-1" cx="133.34957058" cy="133.44006514" r="7.29233017"/>
  </g>
</svg>