<?xml version="1.0" encoding="UTF-8"?>
<svg id="Layer_1" xmlns="http://www.w3.org/2000/svg" viewBox="0 0 135.0097739 130">
  <defs>
    <style>
      .cls-1 {
        fill: #fff;
      }

      .cls-1, .cls-2, .cls-3 {
        stroke-linecap: round;
        stroke-linejoin: round;
        stroke-width: .75px;
      }

      .cls-1, .cls-3 {
        stroke: #3290b3;
      }

      .cls-2 {
        fill: none;
        stroke: #fff;
      }

      .cls-4 {
        fill: #b4e0f0;
      }

      .cls-3 {
        fill: #cff2ff;
      }
    </style>
  </defs>
  <circle class="cls-4" cx="69.71314925" cy="65.12085701" r="61.7750443"/>
  <g>
    <rect class="cls-3" x="58.83230926" y="32.6332527" width="68.57187622" height="57.16891254"/>
    <rect class="cls-1" x="58.83230926" y="32.6332527" width="68.57187622" height="8.86041097"/>
    <line class="cls-3" x1="70.26095529" y1="41.49366368" x2="70.26095529" y2="89.80216524"/>
    <line class="cls-3" x1="81.68960133" y1="41.49366368" x2="81.68960133" y2="89.80216524"/>
    <line class="cls-3" x1="93.11824737" y1="41.49366368" x2="93.11824737" y2="89.80216524"/>
    <line class="cls-3" x1="104.5468934" y1="41.49366368" x2="104.5468934" y2="89.80216524"/>
    <line class="cls-3" x1="115.97553944" y1="41.49366368" x2="115.97553944" y2="89.80216524"/>
    <line class="cls-3" x1="58.83230926" y1="47.53222637" x2="127.40418548" y2="47.53222637"/>
    <line class="cls-3" x1="58.83230926" y1="53.57078907" x2="127.40418548" y2="53.57078907"/>
    <line class="cls-3" x1="58.83230926" y1="59.60935176" x2="127.40418548" y2="59.60935176"/>
    <line class="cls-3" x1="58.83230926" y1="65.64791446" x2="127.40418548" y2="65.64791446"/>
    <line class="cls-3" x1="58.83230926" y1="71.68647715" x2="127.40418548" y2="71.68647715"/>
    <line class="cls-3" x1="58.83230926" y1="77.72503985" x2="127.40418548" y2="77.72503985"/>
    <line class="cls-3" x1="58.83230926" y1="83.76360254" x2="127.40418548" y2="83.76360254"/>
    <line class="cls-3" x1="58.83230926" y1="89.80216524" x2="127.40418548" y2="89.80216524"/>
    <line class="cls-3" x1="58.83230926" y1="41.49366368" x2="127.40418548" y2="41.49366368"/>
  </g>
  <g>
    <rect class="cls-3" x="28.65035715" y="14.24625057" width="67.46728785" height="94.46446149"/>
    <rect class="cls-1" x="22.39535394" y="7.99124735" width="67.46728785" height="94.46446149"/>
    <rect class="cls-3" x="28.65173554" y="14.24487218" width="54.64521728" height="48.72238083"/>
    <line class="cls-3" x1="28.65173554" y1="69.73620895" x2="83.29695283" y2="69.73620895"/>
    <line class="cls-3" x1="28.65173554" y1="76.5051649" x2="83.29695283" y2="76.5051649"/>
    <line class="cls-3" x1="28.65173554" y1="83.27412085" x2="83.29695283" y2="83.27412085"/>
    <line class="cls-3" x1="28.65173554" y1="90.0430768" x2="54.17634026" y2="90.0430768"/>
    <polyline class="cls-2" points="31.71829281 51.39412227 41.86054704 49.88223344 47.59312552 51.96108058 54.83759282 46.60647431 60.31818983 48.62232608 65.48380999 43.64569202 69.83049037 43.64569202 80.53970291 25.2510446"/>
    <line class="cls-2" x1="34.00258485" y1="19.46031776" x2="66.72683476" y2="19.46031776"/>
    <line class="cls-2" x1="34.00258485" y1="23.96683523" x2="48.70076489" y2="23.96683523"/>
  </g>
  <g>
    <circle class="cls-3" cx="93.11824737" cy="99.55900191" r="28.22459487"/>
    <rect class="cls-1" x="88.53025936" y="97.65522328" width="9.17597602" height="20.65320712"/>
    <circle class="cls-1" cx="93.11824737" cy="88.22481753" r="5.1178381"/>
  </g>
</svg>