<?xml version="1.0" encoding="UTF-8"?>
<svg id="Layer_1" xmlns="http://www.w3.org/2000/svg" xmlns:xlink="http://www.w3.org/1999/xlink" viewBox="0 0 135.0097739 130">
  <defs>
    <style>
      .cls-1, .cls-2, .cls-3 {
        fill: none;
      }

      .cls-2, .cls-4, .cls-3, .cls-5 {
        stroke-linecap: round;
        stroke-linejoin: round;
      }

      .cls-2, .cls-4, .cls-5 {
        stroke: #9970b0;
        stroke-width: .75px;
      }

      .cls-4 {
        fill: #fff;
      }

      .cls-3 {
        stroke: #fff;
        stroke-dasharray: 3 1;
        stroke-width: .5px;
      }

      .cls-5 {
        fill: #e4d8eb;
      }

      .cls-6 {
        fill: #cbafdb;
      }

      .cls-7 {
        clip-path: url(#clippath);
      }
    </style>
    <clipPath id="clippath">
      <circle class="cls-1" cx="70.20890455" cy="65.94459223" r="61.7750443"/>
    </clipPath>
  </defs>
  <g class="cls-7">
    <g>
      <circle class="cls-6" cx="70.20890455" cy="65.94459223" r="61.7750443"/>
      <g>
        <polyline class="cls-2" points="100.32858819 108.12542048 89.00827452 15.50684665 76.53059641 15.50684665 65.0473937 108.20574882"/>
        <line class="cls-2" x1="46.53561319" y1="108.20574882" x2="106.57756076" y2="108.20574882"/>
        <polyline class="cls-2" points="68.52434181 108.20574882 94.08199653 56.65782365 73.91698035 35.87445447 89.00827452 15.50684665"/>
        <polyline class="cls-2" points="97.15898486 108.20574882 71.60133013 56.65782365 91.49481949 35.87445447 76.53059641 15.50684665"/>
        <polygon class="cls-2" points="64.18520439 23.9894615 101.1907775 23.9894615 89.00827452 15.50684665 76.53059641 15.50684665 64.18520439 23.9894615"/>
      </g>
      <g>
        <path class="cls-3" d="M143.15207977,25.72641894c0,12.39495145-17.84258368,22.44304492-39.85252606,22.44304492s-39.85252606-9.40529991-39.85252606-21.80025135"/>
        <path class="cls-3" d="M184.95918446,24.75928993c0,12.39495145-18.53755763,22.44304492-41.40479382,22.44304492s-41.40479382-9.08096446-41.40479382-21.4759159"/>
        <path class="cls-3" d="M63.44702765,26.3692125c0,12.39495145-17.84258368,21.80025135-39.85252606,21.80025135s-39.85252606-10.04809347-39.85252606-22.44304492"/>
        <path class="cls-3" d="M102.14959681,26.47495241c0,12.39495145-18.53755763,20.72738244-41.40479382,20.72738244s-41.40479382-10.04809347-41.40479382-22.44304492"/>
      </g>
      <g>
        <rect class="cls-5" x="44.8562968" y="74.5376844" width="27.49443966" height="42.45940158"/>
        <rect class="cls-4" x="40.22183914" y="80.10958776" width="4.63445765" height="16.57098532"/>
        <polyline class="cls-5" points="59.83204448 82.23561988 54.11541636 95.47793566 61.7134664 95.47793566 56.93754923 109.29915049"/>
      </g>
      <path class="cls-3" d="M42.14464746,107.53292541c-14.63658787,0-12.52580752-20.24466308-2.21859321-20.24466308"/>
    </g>
  </g>
  <g>
    <circle class="cls-5" cx="33.50476142" cy="37.50549178" r="25.53354895"/>
    <polygon class="cls-4" points="28.11145798 22.02980306 25.50092358 38.10832173 29.47605551 38.10832173 26.3154264 56.56005348 41.76628445 38.10832173 35.76507019 38.10832173 44.07131599 22.02980306 28.11145798 22.02980306"/>
  </g>
</svg>