<?xml version="1.0" encoding="UTF-8"?>
<svg id="Layer_1" xmlns="http://www.w3.org/2000/svg" viewBox="0 0 135.0097739 130">
  <defs>
    <style>
      .cls-1, .cls-2, .cls-3, .cls-4, .cls-5, .cls-6 {
        stroke: #ff5767;
        stroke-width: .75px;
      }

      .cls-1, .cls-2, .cls-4 {
        fill: #fff;
      }

      .cls-1, .cls-2, .cls-5, .cls-6 {
        stroke-miterlimit: 10;
      }

      .cls-2, .cls-3, .cls-4 {
        stroke-linecap: round;
      }

      .cls-3, .cls-4 {
        stroke-linejoin: round;
      }

      .cls-3, .cls-5 {
        fill: #ffe8ea;
      }

      .cls-6 {
        fill: none;
      }

      .cls-7 {
        fill: #ffb0b7;
      }
    </style>
  </defs>
  <circle class="cls-7" cx="66.72741932" cy="66.03575585" r="61.7750443"/>
  <rect class="cls-4" x="33.76806832" y="8.90614619" width="74.03418665" height="103.65911832"/>
  <g>
    <rect class="cls-5" x="53.5462541" y="17.05449887" width="45.88535732" height="45.88535732"/>
    <polygon class="cls-1" points="92.29660115 30.20045179 86.28609442 24.18994506 76.48996466 33.98659368 66.6938349 24.18994506 60.68332817 30.20045179 70.47945793 39.99727337 60.68332817 49.79409495 66.6938349 55.80460168 76.48996466 46.00795306 86.28609442 55.80460168 92.29660115 49.79409495 82.5004714 39.99727337 92.29660115 30.20045179"/>
  </g>
  <g>
    <rect class="cls-3" x="12.84138705" y="38.51973272" width="62.4760504" height="62.4760504"/>
    <rect class="cls-2" x="19.93527166" y="45.70061495" width="13.78101059" height="13.78101042" rx="6.89049875" ry="6.89049875"/>
    <rect class="cls-2" x="19.93527171" y="63.44668246" width="13.7810105" height="13.78101082" rx="6.8904983" ry="6.8904983"/>
    <rect class="cls-2" x="19.93527169" y="81.19275048" width="13.7810105" height="13.78101067" rx="6.89049828" ry="6.89049828"/>
    <polyline class="cls-6" points="23.03448186 51.53639375 26.87281194 55.37472383 35.33698284 46.91055293"/>
    <polyline class="cls-6" points="23.03448186 69.08544549 26.87281194 72.92377557 35.33698284 64.45960467"/>
    <line class="cls-6" x1="40.50003431" y1="49.44552965" x2="65.51169252" y2="49.44552965"/>
    <line class="cls-6" x1="40.50003431" y1="55.37472383" x2="58.08316188" y2="55.37472383"/>
    <line class="cls-6" x1="40.68266925" y1="67.37259085" x2="59.01546505" y2="67.37259085"/>
    <line class="cls-6" x1="40.68266925" y1="73.30178503" x2="65.32905758" y2="73.30178503"/>
    <line class="cls-6" x1="40.68266925" y1="85.1186587" x2="65.14642264" y2="85.1186587"/>
    <line class="cls-6" x1="40.68266925" y1="91.04785288" x2="56.44752211" y2="91.04785288"/>
  </g>
  <g>
    <circle class="cls-5" cx="107.80225497" cy="98.9880663" r="26.81258285"/>
    <polygon class="cls-1" points="102.15683442 115.59496548 89.67589245 102.97181156 95.81102125 96.90410176 102.50657047 103.67444393 123.06936481 85.18478378 128.83790281 91.60222964 102.15683442 115.59496548"/>
  </g>
</svg>