<?xml version="1.0" encoding="UTF-8"?>
<svg id="Layer_1" xmlns="http://www.w3.org/2000/svg" viewBox="0 0 660 130">
  <defs>
    <style>
      .cls-1, .cls-2, .cls-3, .cls-4 {
        stroke: #ff5767;
        stroke-width: .75px;
      }

      .cls-1, .cls-3 {
        fill: #fff;
      }

      .cls-1, .cls-4 {
        stroke-miterlimit: 10;
      }

      .cls-2, .cls-3 {
        stroke-linecap: round;
        stroke-linejoin: round;
      }

      .cls-2, .cls-4 {
        fill: #ffe8ea;
      }

      .cls-5 {
        fill: #ff5767;
      }

      .cls-6 {
        fill: #ffb0b7;
      }
    </style>
  </defs>
  <circle class="cls-6" cx="62.65094513" cy="68.04590685" r="61.7750443"/>
  <rect class="cls-3" x="29.69159413" y="10.91629719" width="74.03418665" height="103.65911832"/>
  <g>
    <rect class="cls-4" x="49.46977992" y="19.06464987" width="45.88535732" height="45.88535732"/>
    <polygon class="cls-1" points="88.22012697 32.21060279 82.20962024 26.20009606 72.41349048 35.99674468 62.61736072 26.20009606 56.60685399 32.21060279 66.40298375 42.00742437 56.60685399 51.80424594 62.61736072 57.81475268 72.41349048 48.01810406 82.20962024 57.81475268 88.22012697 51.80424594 78.42399721 42.00742437 88.22012697 32.21060279"/>
  </g>
  <g>
    <rect class="cls-2" x="8.76491287" y="40.52988372" width="62.4760504" height="62.4760504"/>
    <polygon class="cls-3" points="40.00872603 52.79361224 18.13075616 90.68736763 61.8866959 90.68736763 40.00872603 52.79361224"/>
    <path class="cls-5" d="M40.00293807,80.45287099c.56336128,0,1.01482204.16592147,1.36209954.49776442.33956023.33184295.51319898.75629323.51319898,1.27335085,0,.50934034-.17363875.92993198-.51319898,1.26177493-.3472775.33184295-.79873826.49776442-1.36209954.49776442-.55564401,0-1.00710476-.16592147-1.34666499-.49776442-.3472775-.33184295-.51705762-.75243459-.51705762-1.26177493s.16978011-.9318613.51705762-1.26756289c.33956023-.33570159.79102098-.50355238,1.34666499-.50355238ZM41.39204809,78.62387613h-2.77822003l-.39358117-11.68010005h3.56538237l-.39358117,11.68010005Z"/>
  </g>
  <g>
    <circle class="cls-4" cx="105.73641507" cy="101.00842097" r="28.22459487"/>
    <polygon class="cls-1" points="99.79369375 118.4898775 86.6554768 105.20195939 93.11369553 98.81471009 100.16184771 105.94159399 121.80752588 86.47822599 127.8798483 93.23362924 99.79369375 118.4898775"/>
  </g>
</svg>