<?xml version="1.0" encoding="UTF-8"?>
<svg id="Layer_1" xmlns="http://www.w3.org/2000/svg" viewBox="0 0 200 200">
  <defs>
    <style>
      .cls-1, .cls-2, .cls-3, .cls-4 {
        stroke: #ff5767;
        stroke-width: .75px;
      }

      .cls-1, .cls-3 {
        fill: #fff;
      }

      .cls-1, .cls-4 {
        stroke-miterlimit: 10;
      }

      .cls-2, .cls-3 {
        stroke-linecap: round;
        stroke-linejoin: round;
      }

      .cls-2, .cls-4 {
        fill: #ffe8ea;
      }

      .cls-5 {
        fill: #ff5767;
      }

      .cls-6 {
        fill: #ffb0b7;
      }
    </style>
  </defs>
  <circle class="cls-6" cx="95.096763" cy="102.72242238" r="88.02232699"/>
  <rect class="cls-3" x="48.13348189" y="21.319305" width="105.49019365" height="147.70231104"/>
  <g>
    <rect class="cls-4" x="76.31511989" y="32.92976958" width="65.38135216" height="65.38135216"/>
    <polygon class="cls-1" points="131.52990376 51.66123922 122.96562356 43.09695902 109.00726632 57.05605558 95.04890908 43.09695902 86.48462887 51.66123922 100.44298611 65.62058222 86.48462887 79.57992522 95.04890908 88.14420543 109.00726632 74.18510887 122.96562356 88.14420543 131.52990376 79.57992522 117.57154652 65.62058222 131.52990376 51.66123922"/>
  </g>
  <g>
    <rect class="cls-2" x="18.31537003" y="63.51525688" width="89.02117999" height="89.02117999"/>
    <polygon class="cls-3" points="62.8342072 80.98965831 31.66061858 134.98389766 94.00779582 134.98389766 62.8342072 80.98965831"/>
    <path class="cls-5" d="M62.82596003,120.40091807c.80272498,0,1.44600459.236419,1.94083505.709257.48383423.472838.73124947,1.07763079.73124947,1.81437838,0,.72575135-.24741523,1.32504603-.73124947,1.79788403-.49483047.472838-1.13811007.709257-1.94083505.709257-.79172875,0-1.43500835-.236419-1.91884259-.709257-.49483047-.472838-.73674758-1.07213268-.73674758-1.79788403s.24191712-1.32779509.73674758-1.8061312c.48383423-.47833612,1.12711384-.71750418,1.91884259-.71750418ZM64.80528189,117.79481094h-3.95864374l-.56080786-16.64279804h5.08025946l-.56080786,16.64279804Z"/>
  </g>
  <g>
    <circle class="cls-4" cx="156.48859794" cy="149.69021058" r="40.21679865"/>
    <polygon class="cls-1" points="148.02090415 174.59927377 129.30045738 155.66552008 138.50267564 146.5644251 148.54548116 156.71941424 179.38808084 128.98635535 188.04044128 138.61202734 148.02090415 174.59927377"/>
  </g>
</svg>