<?xml version="1.0" encoding="UTF-8"?>
<svg id="Infografika" xmlns="http://www.w3.org/2000/svg" width="660" height="160.157" viewBox="0 0 660 160.157">
  <rect x="6.654" y="12.789" width="102.61" height="102.61" fill="#002873" stroke="#fff" stroke-miterlimit="10" stroke-width="2"/>
  <rect x="109.32" y="53.833" width="102.61" height="61.566" fill="#666" stroke="#fff" stroke-miterlimit="10" stroke-width="2"/>
  <rect x="229.262" y="12.789" width="102.61" height="102.61" fill="#00379e" stroke="#fff" stroke-miterlimit="10" stroke-width="2"/>
  <rect x="331.927" y="38.442" width="102.61" height="76.958" fill="#666" stroke="#fff" stroke-miterlimit="10" stroke-width="2"/>
  <rect x="450.366" y="12.789" width="102.61" height="102.61" fill="#0047cc" stroke="#fff" stroke-miterlimit="10" stroke-width="2"/>
  <rect x="553.032" y="64.094" width="102.61" height="51.305" fill="#666" stroke="#fff" stroke-miterlimit="10" stroke-width="2"/>
  <g>
    <path d="m23.839,87.232c-.072.994-.439,1.777-1.101,2.349-.663.571-1.535.857-2.619.857-1.185,0-2.117-.399-2.796-1.197-.679-.798-1.019-1.893-1.019-3.285v-.565c0-.889.157-1.672.47-2.349s.761-1.197,1.343-1.558c.582-.362,1.258-.543,2.028-.543,1.066,0,1.925.286,2.577.857s1.028,1.373,1.13,2.406h-1.904c-.046-.597-.212-1.029-.499-1.298-.285-.269-.72-.403-1.304-.403-.635,0-1.11.228-1.425.682-.315.455-.477,1.161-.485,2.117v.698c0,.999.151,1.729.454,2.19.302.461.779.692,1.431.692.588,0,1.027-.134,1.317-.403.29-.269.456-.685.499-1.247h1.904Z" fill="#fff"/>
    <path d="m28.13,90.438c-1.007,0-1.827-.309-2.459-.927-.633-.618-.949-1.441-.949-2.469v-.178c0-.69.133-1.307.4-1.85s.644-.963,1.133-1.257c.488-.294,1.046-.441,1.672-.441.939,0,1.679.296,2.218.889.54.593.81,1.432.81,2.52v.749h-4.374c.059.448.238.808.537,1.079.298.271.676.406,1.133.406.707,0,1.259-.256,1.657-.768l.901,1.009c-.275.389-.647.693-1.117.911s-.99.327-1.562.327Zm-.209-5.643c-.364,0-.659.123-.886.37-.226.247-.371.599-.435,1.058h2.552v-.147c-.008-.408-.119-.724-.33-.947s-.512-.335-.901-.335Z" fill="#fff"/>
    <path d="m33.716,83.442l.057.768c.487-.597,1.145-.895,1.974-.895.884,0,1.492.349,1.822,1.047.482-.698,1.17-1.047,2.063-1.047.745,0,1.299.217,1.663.651s.546,1.086.546,1.958v4.386h-1.841v-4.38c0-.389-.076-.674-.229-.854s-.421-.27-.806-.27c-.55,0-.931.262-1.143.787l.006,4.716h-1.834v-4.374c0-.398-.078-.686-.235-.863s-.423-.267-.8-.267c-.521,0-.897.216-1.13.647v4.856h-1.834v-6.868h1.72Z" fill="#fff"/>
    <path d="m46.411,90.438c-1.007,0-1.827-.309-2.459-.927-.633-.618-.949-1.441-.949-2.469v-.178c0-.69.133-1.307.4-1.85s.644-.963,1.133-1.257c.488-.294,1.046-.441,1.672-.441.939,0,1.679.296,2.218.889.54.593.81,1.432.81,2.52v.749h-4.374c.059.448.238.808.537,1.079.298.271.676.406,1.133.406.707,0,1.259-.256,1.657-.768l.901,1.009c-.275.389-.647.693-1.117.911s-.99.327-1.562.327Zm-.209-5.643c-.364,0-.659.123-.886.37-.226.247-.371.599-.435,1.058h2.552v-.147c-.008-.408-.119-.724-.33-.947s-.512-.335-.901-.335Z" fill="#fff"/>
    <path d="m51.966,83.442l.057.793c.491-.614,1.149-.92,1.974-.92.728,0,1.27.214,1.625.641s.538,1.066.546,1.917v4.437h-1.834v-4.393c0-.389-.084-.672-.254-.847s-.451-.263-.844-.263c-.516,0-.903.22-1.162.66v4.843h-1.834v-6.868h1.727Z" fill="#fff"/>
    <path d="m59.754,81.754v1.688h1.174v1.346h-1.174v3.428c0,.254.049.436.146.546s.284.165.559.165c.203,0,.383-.015.54-.044v1.39c-.36.11-.73.165-1.111.165-1.287,0-1.942-.65-1.968-1.949v-3.701h-1.003v-1.346h1.003v-1.688h1.834Z" fill="#fff"/>
    <path d="m20.386,105.311h-1.181v-7.827l-2.368.87v-1.066l3.364-1.263h.184v9.287Z" fill="#fff"/>
    <path d="m28.759,96.779v1.663h1.282v.908h-1.282v4.265c0,.275.057.482.171.62s.309.207.584.207c.135,0,.322-.025.559-.076v.947c-.309.084-.609.126-.901.126-.525,0-.92-.159-1.187-.476s-.4-.768-.4-1.352v-4.259h-1.25v-.908h1.25v-1.663h1.174Z" fill="#fff"/>
    <path d="m35.652,104.631c-.457.537-1.128.806-2.012.806-.732,0-1.29-.213-1.672-.638-.383-.425-.577-1.055-.581-1.888v-4.469h1.174v4.437c0,1.041.423,1.562,1.27,1.562.897,0,1.494-.334,1.79-1.003v-4.996h1.174v6.868h-1.117l-.025-.679Z" fill="#fff"/>
    <path d="m39.689,98.442l.038.863c.525-.66,1.21-.99,2.057-.99,1.452,0,2.184.819,2.196,2.457v4.539h-1.174v-4.545c-.004-.495-.117-.861-.34-1.098-.222-.237-.568-.355-1.038-.355-.381,0-.715.102-1.003.305s-.512.47-.673.8v4.894h-1.174v-6.868h1.111Z" fill="#fff"/>
    <path d="m49.991,105.311c-.068-.135-.123-.377-.165-.724-.546.567-1.198.851-1.955.851-.677,0-1.232-.191-1.666-.574-.434-.383-.651-.869-.651-1.457,0-.715.272-1.271.816-1.666.543-.396,1.309-.594,2.294-.594h1.143v-.54c0-.41-.123-.737-.368-.981s-.607-.365-1.085-.365c-.419,0-.77.106-1.054.317s-.425.468-.425.768h-1.181c0-.343.122-.674.365-.993.244-.32.574-.572.99-.759.417-.186.875-.279,1.375-.279.792,0,1.411.198,1.86.594s.681.94.698,1.635v3.161c0,.631.081,1.132.241,1.504v.102h-1.231Zm-1.949-.895c.368,0,.717-.095,1.047-.286s.569-.438.717-.743v-1.409h-.92c-1.439,0-2.158.421-2.158,1.263,0,.368.123.656.368.863s.561.311.946.311Z" fill="#fff"/>
  </g>
  <g>
    <path d="m242.881,88.019l2.095-6.951h2.12l-3.218,9.242h-1.987l-3.206-9.242h2.114l2.082,6.951Z" fill="#fff"/>
    <path d="m251.532,90.311c-.084-.165-.146-.37-.184-.616-.444.495-1.022.743-1.733.743-.673,0-1.23-.195-1.673-.584-.442-.389-.663-.88-.663-1.473,0-.728.27-1.286.81-1.676.539-.389,1.319-.586,2.339-.59h.844v-.394c0-.317-.082-.571-.245-.762-.163-.19-.42-.286-.771-.286-.309,0-.551.074-.727.222-.175.148-.263.351-.263.609h-1.834c0-.398.123-.766.368-1.104s.592-.604,1.041-.797.952-.289,1.511-.289c.846,0,1.518.213,2.016.638.497.425.746,1.023.746,1.793v2.977c.004.652.095,1.145.273,1.479v.108h-1.854Zm-1.517-1.276c.271,0,.521-.06.749-.181s.398-.282.508-.486v-1.181h-.686c-.918,0-1.407.317-1.466.952l-.006.108c0,.229.081.417.241.565s.381.222.66.222Zm.698-8.474h2l-1.758,1.968h-1.492l1.25-1.968Z" fill="#fff"/>
    <path d="m260.705,86.94c0,1.058-.24,1.905-.72,2.542-.48.637-1.129.955-1.946.955-.694,0-1.255-.241-1.682-.724v3.237h-1.834v-9.509h1.701l.063.673c.444-.533,1.024-.8,1.739-.8.846,0,1.504.313,1.974.939s.705,1.49.705,2.59v.095Zm-1.834-.133c0-.639-.113-1.132-.34-1.479-.226-.347-.555-.521-.987-.521-.576,0-.971.22-1.187.66v2.812c.224.453.624.679,1.2.679.876,0,1.314-.717,1.314-2.152Z" fill="#fff"/>
    <path d="m263.53,83.442l.057.793c.491-.614,1.149-.92,1.974-.92.728,0,1.27.214,1.625.641s.538,1.066.546,1.917v4.437h-1.834v-4.393c0-.389-.084-.672-.254-.847s-.451-.263-.844-.263c-.516,0-.903.22-1.162.66v4.843h-1.834v-6.868h1.727Z" fill="#fff"/>
    <path d="m268.836,86.813c0-.681.131-1.289.394-1.822s.64-.946,1.133-1.238c.493-.292,1.065-.438,1.717-.438.927,0,1.683.283,2.269.851.586.567.913,1.337.981,2.311l.013.47c0,1.054-.294,1.899-.882,2.536s-1.377.955-2.368.955-1.781-.317-2.371-.952c-.591-.635-.886-1.498-.886-2.59v-.083Zm1.834.13c0,.653.123,1.152.368,1.497s.597.518,1.054.518c.444,0,.792-.171,1.041-.512.25-.341.375-.887.375-1.637,0-.64-.125-1.136-.375-1.488-.25-.352-.601-.528-1.054-.528-.449,0-.795.175-1.041.524-.246.35-.368.891-.368,1.624Z" fill="#fff"/>
    <path d="m243.268,105.311h-1.181v-7.827l-2.368.87v-1.066l3.364-1.263h.184v9.287Z" fill="#fff"/>
    <path d="m251.64,96.779v1.663h1.282v.908h-1.282v4.265c0,.275.057.482.171.62s.309.207.584.207c.135,0,.322-.025.559-.076v.947c-.309.084-.609.126-.901.126-.525,0-.92-.159-1.187-.476s-.4-.768-.4-1.352v-4.259h-1.25v-.908h1.25v-1.663h1.174Z" fill="#fff"/>
    <path d="m258.534,104.631c-.457.537-1.128.806-2.012.806-.732,0-1.29-.213-1.672-.638-.383-.425-.577-1.055-.581-1.888v-4.469h1.174v4.437c0,1.041.423,1.562,1.27,1.562.897,0,1.494-.334,1.79-1.003v-4.996h1.174v6.868h-1.117l-.025-.679Z" fill="#fff"/>
    <path d="m262.571,98.442l.038.863c.525-.66,1.21-.99,2.057-.99,1.452,0,2.184.819,2.196,2.457v4.539h-1.174v-4.545c-.004-.495-.117-.861-.34-1.098-.222-.237-.568-.355-1.038-.355-.381,0-.715.102-1.003.305s-.512.47-.673.8v4.894h-1.174v-6.868h1.111Z" fill="#fff"/>
    <path d="m272.873,105.311c-.068-.135-.123-.377-.165-.724-.546.567-1.198.851-1.955.851-.677,0-1.232-.191-1.666-.574-.434-.383-.651-.869-.651-1.457,0-.715.272-1.271.816-1.666.543-.396,1.309-.594,2.294-.594h1.143v-.54c0-.41-.123-.737-.368-.981s-.607-.365-1.085-.365c-.419,0-.77.106-1.054.317s-.425.468-.425.768h-1.181c0-.343.122-.674.365-.993.244-.32.574-.572.99-.759.417-.186.875-.279,1.375-.279.792,0,1.411.198,1.86.594s.681.94.698,1.635v3.161c0,.631.081,1.132.241,1.504v.102h-1.231Zm-1.949-.895c.368,0,.717-.095,1.047-.286s.569-.438.717-.743v-1.409h-.92c-1.439,0-2.158.421-2.158,1.263,0,.368.123.656.368.863s.561.311.946.311Z" fill="#fff"/>
  </g>
  <g>
    <path d="m465.037,87.886c0-.36-.127-.636-.381-.828s-.711-.396-1.371-.609-1.183-.424-1.568-.632c-1.049-.567-1.574-1.331-1.574-2.292,0-.499.141-.945.422-1.336.282-.391.686-.697,1.213-.917.526-.22,1.118-.33,1.774-.33.66,0,1.249.12,1.765.359s.917.577,1.203,1.012c.286.436.429.931.429,1.485h-1.904c0-.423-.133-.752-.4-.987s-.641-.352-1.124-.352c-.465,0-.827.098-1.085.295s-.387.456-.387.778c0,.301.151.552.454.755.302.203.748.394,1.336.571,1.083.326,1.873.73,2.368,1.212s.743,1.083.743,1.803c0,.8-.303,1.427-.908,1.882s-1.42.682-2.444.682c-.711,0-1.358-.13-1.942-.39s-1.029-.617-1.336-1.07c-.307-.453-.46-.978-.46-1.574h1.911c0,1.02.609,1.53,1.828,1.53.453,0,.806-.092,1.06-.276s.381-.441.381-.771Z" fill="#fff"/>
    <path d="m470.611,87.556l-.66.66v2.095h-1.834v-9.75h1.834v5.402l.355-.457,1.758-2.063h2.203l-2.482,2.863,2.698,4.005h-2.107l-1.765-2.755Z" fill="#fff"/>
    <path d="m476.996,90.311h-1.841v-9.75h1.841v9.75Z" fill="#fff"/>
    <path d="m478.221,86.813c0-.681.131-1.289.394-1.822s.64-.946,1.133-1.238c.493-.292,1.065-.438,1.717-.438.927,0,1.683.283,2.269.851.586.567.913,1.337.981,2.311l.013.47c0,1.054-.294,1.899-.882,2.536s-1.377.955-2.368.955-1.781-.317-2.371-.952c-.591-.635-.886-1.498-.886-2.59v-.083Zm1.834.13c0,.653.123,1.152.368,1.497s.597.518,1.054.518c.444,0,.792-.171,1.041-.512.25-.341.375-.887.375-1.637,0-.64-.125-1.136-.375-1.488-.25-.352-.601-.528-1.054-.528-.449,0-.795.175-1.041.524-.246.35-.368.891-.368,1.624Z" fill="#fff"/>
    <path d="m464.047,105.311h-1.181v-7.827l-2.368.87v-1.066l3.364-1.263h.184v9.287Z" fill="#fff"/>
    <path d="m472.743,102.13l-.736.768v2.412h-1.174v-9.75h1.174v5.897l.628-.755,2.139-2.26h1.428l-2.672,2.869,2.983,3.999h-1.377l-2.393-3.18Z" fill="#fff"/>
    <path d="m477.009,101.819c0-1.071.248-1.922.743-2.555s1.151-.949,1.968-.949c.838,0,1.492.296,1.961.889l.057-.762h1.073v6.703c0,.889-.264,1.589-.79,2.101-.527.512-1.235.768-2.124.768-.495,0-.979-.106-1.454-.317s-.836-.501-1.085-.87l.609-.705c.503.622,1.119.933,1.847.933.571,0,1.017-.161,1.336-.482.32-.322.479-.774.479-1.358v-.59c-.47.542-1.111.812-1.923.812-.804,0-1.455-.324-1.952-.971-.498-.647-.746-1.53-.746-2.647Zm1.181.133c0,.774.159,1.383.476,1.825s.762.663,1.333.663c.741,0,1.284-.336,1.631-1.009v-3.136c-.36-.656-.899-.984-1.619-.984-.571,0-1.018.222-1.339.667s-.482,1.102-.482,1.974Z" fill="#fff"/>
  </g>
  <g>
    <path d="m125.864,87.232c-.072.994-.439,1.777-1.101,2.349-.663.571-1.535.857-2.619.857-1.185,0-2.117-.399-2.796-1.197-.679-.798-1.019-1.893-1.019-3.285v-.565c0-.889.157-1.672.47-2.349s.761-1.197,1.343-1.558c.582-.362,1.258-.543,2.028-.543,1.066,0,1.925.286,2.577.857s1.028,1.373,1.13,2.406h-1.904c-.046-.597-.212-1.029-.499-1.298-.285-.269-.72-.403-1.304-.403-.635,0-1.11.228-1.425.682-.315.455-.477,1.161-.485,2.117v.698c0,.999.151,1.729.454,2.19.302.461.779.692,1.431.692.588,0,1.027-.134,1.317-.403.29-.269.456-.685.499-1.247h1.904Z" fill="#fff"/>
    <path d="m134.707,85.899c0,.91-.161,1.708-.482,2.393s-.782,1.215-1.381,1.587c-.599.372-1.285.559-2.06.559-.766,0-1.449-.184-2.05-.552s-1.066-.894-1.396-1.577-.497-1.469-.501-2.358v-.457c0-.91.164-1.711.492-2.403.328-.692.791-1.223,1.39-1.593.599-.37,1.284-.555,2.054-.555s1.455.185,2.054.555c.599.37,1.062.901,1.39,1.593.328.692.492,1.491.492,2.396v.413Zm-1.93-.419c0-.969-.173-1.705-.521-2.209s-.842-.755-1.485-.755c-.639,0-1.132.249-1.479.746s-.522,1.226-.527,2.187v.451c0,.944.173,1.676.521,2.196s.846.781,1.498.781c.639,0,1.13-.251,1.473-.752s.516-1.232.521-2.193v-.451Z" fill="#fff"/>
    <path d="m139.664,90.311h-3.936v-.876l1.822-1.631c.237-.208.407-.401.511-.58.104-.178.156-.316.156-.414,0-.357-.201-.535-.603-.535-.211,0-.38.066-.505.198-.125.133-.187.299-.187.5h-1.308c0-.491.181-.904.542-1.238.362-.334.829-.501,1.4-.501.626,0,1.11.136,1.451.409.34.273.511.661.511,1.165,0,.296-.076.567-.229.812s-.457.552-.914.92l-.939.73h2.228v1.041Z" fill="#fff"/>
    <path d="m147.205,90.438c-1.007,0-1.827-.309-2.459-.927-.633-.618-.949-1.441-.949-2.469v-.178c0-.69.133-1.307.4-1.85s.644-.963,1.133-1.257c.488-.294,1.046-.441,1.672-.441.939,0,1.679.296,2.218.889.54.593.81,1.432.81,2.52v.749h-4.374c.059.448.238.808.537,1.079.298.271.676.406,1.133.406.707,0,1.259-.256,1.657-.768l.901,1.009c-.275.389-.647.693-1.117.911s-.99.327-1.562.327Zm-.209-5.643c-.364,0-.659.123-.886.37-.226.247-.371.599-.435,1.058h2.552v-.147c-.008-.408-.119-.724-.33-.947s-.512-.335-.901-.335Z" fill="#fff"/>
    <path d="m150.785,86.813c0-1.079.24-1.932.721-2.558.48-.626,1.139-.939,1.977-.939.736,0,1.322.281,1.758.844l.121-.717h1.612v9.509h-1.841v-3.231c-.423.478-.978.717-1.663.717-.817,0-1.468-.317-1.955-.952s-.73-1.526-.73-2.672Zm1.834.13c0,.657.115,1.157.346,1.5.23.343.555.515.974.515.563,0,.96-.225,1.193-.674v-2.842c-.229-.432-.622-.648-1.181-.648-.423,0-.751.172-.984.515-.233.344-.349.888-.349,1.634Z" fill="#fff"/>
    <path d="m121.427,104.479c.419,0,.785-.127,1.098-.381s.487-.571.521-.952h1.111c-.021.394-.157.768-.406,1.124s-.583.639-1,.851c-.417.212-.858.317-1.323.317-.935,0-1.679-.312-2.231-.936-.552-.624-.828-1.478-.828-2.561v-.197c0-.669.123-1.263.368-1.784s.598-.925,1.057-1.212c.459-.288,1.002-.432,1.628-.432.77,0,1.41.231,1.92.692.51.461.782,1.06.815,1.796h-1.111c-.034-.444-.202-.809-.504-1.095-.303-.286-.676-.428-1.121-.428-.597,0-1.059.215-1.387.644-.328.429-.492,1.051-.492,1.863v.222c0,.791.163,1.401.489,1.828s.792.641,1.396.641Z" fill="#fff"/>
    <path d="m128.232,104.479c.419,0,.785-.127,1.098-.381s.487-.571.521-.952h1.111c-.021.394-.157.768-.406,1.124s-.583.639-1,.851c-.417.212-.858.317-1.323.317-.935,0-1.679-.312-2.231-.936-.552-.624-.828-1.478-.828-2.561v-.197c0-.669.123-1.263.368-1.784s.598-.925,1.057-1.212c.459-.288,1.002-.432,1.628-.432.77,0,1.41.231,1.92.692.51.461.782,1.06.815,1.796h-1.111c-.034-.444-.202-.809-.504-1.095-.303-.286-.676-.428-1.121-.428-.597,0-1.059.215-1.387.644-.328.429-.492,1.051-.492,1.863v.222c0,.791.163,1.401.489,1.828s.792.641,1.396.641Z" fill="#fff"/>
    <path d="m136.522,105.311c-.068-.135-.123-.377-.165-.724-.546.567-1.198.851-1.955.851-.677,0-1.232-.191-1.666-.574-.434-.383-.651-.869-.651-1.457,0-.715.272-1.271.816-1.666.543-.396,1.309-.594,2.294-.594h1.143v-.54c0-.41-.123-.737-.368-.981s-.607-.365-1.085-.365c-.419,0-.77.106-1.054.317s-.425.468-.425.768h-1.181c0-.343.122-.674.365-.993.244-.32.574-.572.99-.759.417-.186.875-.279,1.375-.279.792,0,1.411.198,1.86.594s.681.94.698,1.635v3.161c0,.631.081,1.132.241,1.504v.102h-1.231Zm-1.949-.895c.368,0,.717-.095,1.047-.286s.569-.438.717-.743v-1.409h-.92c-1.439,0-2.158.421-2.158,1.263,0,.368.123.656.368.863s.561.311.946.311Z" fill="#fff"/>
    <path d="m148.246,101.369c0,1.375-.235,2.397-.705,3.066s-1.204,1.003-2.203,1.003c-.986,0-1.716-.327-2.19-.981s-.719-1.63-.736-2.929v-1.568c0-1.358.235-2.368.705-3.028s1.206-.99,2.209-.99c.995,0,1.727.318,2.196.955s.711,1.62.724,2.948v1.523Zm-1.174-1.606c0-.994-.14-1.719-.419-2.174s-.722-.682-1.327-.682c-.601,0-1.039.226-1.314.679s-.417,1.149-.425,2.088v1.879c0,.999.145,1.736.435,2.212.29.476.729.714,1.317.714.58,0,1.01-.224,1.292-.673.281-.448.428-1.155.441-2.12v-1.923Z" fill="#fff"/>
    <path d="m149.833,107.151l-.667-.457c.398-.554.605-1.126.622-1.714v-1.06h1.149v.92c0,.427-.104.855-.314,1.282-.209.427-.473.77-.79,1.028Z" fill="#fff"/>
    <path d="m156.911,96.062v.997h-.216c-.914.017-1.642.288-2.184.812s-.855,1.263-.939,2.215c.487-.559,1.151-.838,1.993-.838.804,0,1.446.283,1.926.851.48.567.721,1.299.721,2.196,0,.952-.259,1.714-.777,2.285-.519.571-1.214.857-2.085.857-.884,0-1.602-.34-2.152-1.019s-.825-1.554-.825-2.625v-.451c0-1.701.363-3.001,1.089-3.901.726-.899,1.806-1.359,3.24-1.381h.209Zm-1.542,4.164c-.402,0-.772.121-1.111.362s-.573.544-.705.908v.432c0,.762.171,1.375.514,1.841s.77.698,1.282.698c.529,0,.945-.195,1.248-.584.302-.389.454-.899.454-1.53,0-.635-.153-1.148-.46-1.539-.307-.391-.714-.587-1.222-.587Z" fill="#fff"/>
    <path d="m164.534,96.779v1.663h1.282v.908h-1.282v4.265c0,.275.057.482.171.62s.309.207.584.207c.135,0,.322-.025.559-.076v.947c-.309.084-.609.126-.901.126-.525,0-.92-.159-1.187-.476s-.4-.768-.4-1.352v-4.259h-1.25v-.908h1.25v-1.663h1.174Z" fill="#fff"/>
    <path d="m171.428,104.631c-.457.537-1.128.806-2.012.806-.732,0-1.29-.213-1.672-.638-.383-.425-.577-1.055-.581-1.888v-4.469h1.174v4.437c0,1.041.423,1.562,1.27,1.562.897,0,1.494-.334,1.79-1.003v-4.996h1.174v6.868h-1.117l-.025-.679Z" fill="#fff"/>
    <path d="m175.465,98.442l.038.863c.525-.66,1.21-.99,2.057-.99,1.452,0,2.184.819,2.196,2.457v4.539h-1.174v-4.545c-.004-.495-.117-.861-.34-1.098-.222-.237-.568-.355-1.038-.355-.381,0-.715.102-1.003.305s-.512.47-.673.8v4.894h-1.174v-6.868h1.111Z" fill="#fff"/>
    <path d="m183.774,103.59l1.6-5.148h1.257l-2.761,7.928c-.427,1.143-1.106,1.714-2.038,1.714l-.222-.019-.438-.083v-.952l.317.025c.398,0,.708-.08.93-.241.223-.161.405-.455.549-.882l.26-.698-2.45-6.792h1.282l1.714,5.148Z" fill="#fff"/>
  </g>
  <g>
    <path d="m348.744,87.232c-.071.994-.438,1.777-1.101,2.349-.663.571-1.535.857-2.619.857-1.185,0-2.116-.399-2.796-1.197-.679-.798-1.019-1.893-1.019-3.285v-.565c0-.889.156-1.672.47-2.349.312-.677.761-1.197,1.343-1.558.581-.362,1.258-.543,2.027-.543,1.066,0,1.926.286,2.577.857.652.571,1.028,1.373,1.13,2.406h-1.904c-.046-.597-.212-1.029-.498-1.298-.285-.269-.721-.403-1.305-.403-.635,0-1.109.228-1.425.682s-.478,1.161-.485,2.117v.698c0,.999.151,1.729.454,2.19.302.461.779.692,1.431.692.589,0,1.027-.134,1.317-.403s.456-.685.498-1.247h1.904Z" fill="#fff"/>
    <path d="m357.587,85.899c0,.91-.161,1.708-.482,2.393-.322.686-.782,1.215-1.381,1.587s-1.285.559-2.06.559c-.767,0-1.449-.184-2.051-.552-.601-.368-1.066-.894-1.396-1.577s-.497-1.469-.501-2.358v-.457c0-.91.164-1.711.492-2.403.327-.692.791-1.223,1.39-1.593s1.283-.555,2.054-.555,1.454.185,2.054.555c.599.37,1.062.901,1.39,1.593s.492,1.491.492,2.396v.413Zm-1.93-.419c0-.969-.174-1.705-.521-2.209-.348-.504-.843-.755-1.485-.755s-1.132.249-1.479.746c-.347.497-.522,1.226-.526,2.187v.451c0,.944.173,1.676.521,2.196.347.521.846.781,1.498.781.639,0,1.13-.251,1.473-.752s.516-1.232.521-2.193v-.451Z" fill="#fff"/>
    <path d="m362.544,90.311h-3.936v-.876l1.822-1.631c.236-.208.407-.401.511-.58.104-.178.155-.316.155-.414,0-.357-.201-.535-.603-.535-.212,0-.38.066-.505.198-.125.133-.188.299-.188.5h-1.308c0-.491.182-.904.543-1.238.362-.334.828-.501,1.399-.501.627,0,1.11.136,1.451.409.34.273.511.661.511,1.165,0,.296-.076.567-.229.812s-.457.552-.914.92l-.939.73h2.228v1.041Z" fill="#fff"/>
    <path d="m370.085,90.438c-1.007,0-1.827-.309-2.459-.927-.633-.618-.949-1.441-.949-2.469v-.178c0-.69.133-1.307.399-1.85s.645-.963,1.134-1.257c.488-.294,1.046-.441,1.672-.441.939,0,1.68.296,2.219.889.54.593.81,1.432.81,2.52v.749h-4.374c.06.448.238.808.537,1.079.298.271.676.406,1.133.406.706,0,1.259-.256,1.656-.768l.901,1.009c-.274.389-.647.693-1.117.911s-.99.327-1.562.327Zm-.209-5.643c-.364,0-.659.123-.886.37s-.371.599-.435,1.058h2.552v-.147c-.009-.408-.119-.724-.33-.947-.212-.223-.513-.335-.901-.335Z" fill="#fff"/>
    <path d="m373.665,86.813c0-1.079.24-1.932.721-2.558s1.14-.939,1.978-.939c.736,0,1.322.281,1.758.844l.121-.717h1.612v9.509h-1.841v-3.231c-.424.478-.978.717-1.663.717-.817,0-1.469-.317-1.955-.952-.487-.635-.73-1.526-.73-2.672Zm1.835.13c0,.657.115,1.157.346,1.5s.556.515.975.515c.562,0,.96-.225,1.193-.674v-2.842c-.229-.432-.622-.648-1.181-.648-.424,0-.751.172-.984.515-.232.344-.349.888-.349,1.634Z" fill="#fff"/>
    <path d="m344.308,104.479c.419,0,.785-.127,1.098-.381.313-.254.487-.571.521-.952h1.111c-.021.394-.157.768-.406,1.124-.25.355-.583.639-1,.851s-.858.317-1.323.317c-.936,0-1.679-.312-2.231-.936-.552-.624-.828-1.478-.828-2.561v-.197c0-.669.122-1.263.368-1.784.245-.521.598-.925,1.057-1.212s1.002-.432,1.628-.432c.771,0,1.41.231,1.921.692.51.461.781,1.06.815,1.796h-1.111c-.033-.444-.202-.809-.504-1.095-.303-.286-.677-.428-1.121-.428-.597,0-1.059.215-1.387.644s-.492,1.051-.492,1.863v.222c0,.791.163,1.401.489,1.828.325.427.791.641,1.396.641Z" fill="#fff"/>
    <path d="m351.113,104.479c.419,0,.785-.127,1.098-.381.313-.254.487-.571.521-.952h1.111c-.021.394-.157.768-.406,1.124-.25.355-.583.639-1,.851s-.858.317-1.323.317c-.936,0-1.679-.312-2.231-.936-.552-.624-.828-1.478-.828-2.561v-.197c0-.669.122-1.263.368-1.784.245-.521.598-.925,1.057-1.212s1.002-.432,1.628-.432c.771,0,1.41.231,1.921.692.51.461.781,1.06.815,1.796h-1.111c-.033-.444-.202-.809-.504-1.095-.303-.286-.677-.428-1.121-.428-.597,0-1.059.215-1.387.644s-.492,1.051-.492,1.863v.222c0,.791.163,1.401.489,1.828.325.427.791.641,1.396.641Z" fill="#fff"/>
    <path d="m359.403,105.311c-.068-.135-.123-.377-.165-.724-.546.567-1.198.851-1.955.851-.678,0-1.232-.191-1.666-.574-.435-.383-.651-.869-.651-1.457,0-.715.272-1.271.816-1.666.543-.396,1.309-.594,2.294-.594h1.143v-.54c0-.41-.122-.737-.368-.981-.245-.243-.607-.365-1.085-.365-.419,0-.771.106-1.054.317-.284.212-.426.468-.426.768h-1.181c0-.343.122-.674.365-.993s.573-.572.99-.759.875-.279,1.374-.279c.792,0,1.411.198,1.86.594.448.396.681.94.698,1.635v3.161c0,.631.08,1.132.241,1.504v.102h-1.231Zm-1.949-.895c.368,0,.718-.095,1.048-.286s.569-.438.717-.743v-1.409h-.92c-1.439,0-2.158.421-2.158,1.263,0,.368.122.656.368.863.245.207.561.311.945.311Z" fill="#fff"/>
    <path d="m371.126,101.369c0,1.375-.234,2.397-.704,3.066s-1.204,1.003-2.203,1.003c-.985,0-1.716-.327-2.189-.981-.475-.654-.72-1.63-.736-2.929v-1.568c0-1.358.234-2.368.704-3.028s1.206-.99,2.209-.99c.995,0,1.727.318,2.196.955s.711,1.62.724,2.948v1.523Zm-1.174-1.606c0-.994-.14-1.719-.419-2.174s-.722-.682-1.327-.682c-.601,0-1.039.226-1.313.679-.275.453-.417,1.149-.426,2.088v1.879c0,.999.146,1.736.435,2.212.29.476.729.714,1.317.714.58,0,1.011-.224,1.292-.673s.429-1.155.441-2.12v-1.923Z" fill="#fff"/>
    <path d="m372.713,107.151l-.666-.457c.397-.554.604-1.126.622-1.714v-1.06h1.148v.92c0,.427-.104.855-.314,1.282-.209.427-.473.77-.79,1.028Z" fill="#fff"/>
    <path d="m381.15,96.729l-3.828,8.582h-1.231l3.815-8.277h-5.002v-.965h6.246v.66Z" fill="#fff"/>
    <path d="m383.022,100.677l.47-4.608h4.735v1.085h-3.738l-.279,2.52c.452-.267.967-.4,1.542-.4.843,0,1.511.278,2.006.835s.743,1.309.743,2.257-.258,1.702-.771,2.25c-.515.548-1.232.822-2.155.822-.816,0-1.483-.226-1.999-.679-.517-.453-.811-1.079-.883-1.879h1.111c.071.529.26.928.564,1.197s.707.403,1.206.403c.546,0,.975-.186,1.285-.559.312-.372.467-.886.467-1.542,0-.618-.168-1.114-.505-1.489-.336-.375-.783-.562-1.342-.562-.513,0-.914.112-1.206.336l-.312.254-.939-.241Z" fill="#fff"/>
    <path d="m394.714,96.779v1.663h1.282v.908h-1.282v4.265c0,.275.058.482.172.62s.309.207.584.207c.135,0,.321-.025.559-.076v.947c-.31.084-.609.126-.901.126-.525,0-.921-.159-1.188-.476s-.399-.768-.399-1.352v-4.259h-1.251v-.908h1.251v-1.663h1.174Z" fill="#fff"/>
    <path d="m401.608,104.631c-.457.537-1.128.806-2.012.806-.732,0-1.29-.213-1.673-.638s-.576-1.055-.581-1.888v-4.469h1.175v4.437c0,1.041.423,1.562,1.27,1.562.896,0,1.493-.334,1.79-1.003v-4.996h1.174v6.868h-1.117l-.025-.679Z" fill="#fff"/>
    <path d="m405.645,98.442l.038.863c.525-.66,1.211-.99,2.057-.99,1.452,0,2.184.819,2.196,2.457v4.539h-1.174v-4.545c-.005-.495-.117-.861-.34-1.098-.222-.237-.568-.355-1.038-.355-.381,0-.715.102-1.003.305-.287.203-.512.47-.673.8v4.894h-1.174v-6.868h1.11Z" fill="#fff"/>
    <path d="m413.954,103.59l1.6-5.148h1.257l-2.762,7.928c-.427,1.143-1.106,1.714-2.037,1.714l-.223-.019-.438-.083v-.952l.317.025c.397,0,.708-.08.93-.241.223-.161.405-.455.549-.882l.261-.698-2.45-6.792h1.282l1.714,5.148Z" fill="#fff"/>
  </g>
  <g>
    <path d="m570.518,87.232c-.072.994-.439,1.777-1.101,2.349-.663.571-1.535.857-2.619.857-1.185,0-2.117-.399-2.796-1.197-.679-.798-1.019-1.893-1.019-3.285v-.565c0-.889.157-1.672.47-2.349s.761-1.197,1.343-1.558c.582-.362,1.258-.543,2.028-.543,1.066,0,1.925.286,2.577.857s1.028,1.373,1.13,2.406h-1.904c-.046-.597-.212-1.029-.499-1.298-.285-.269-.72-.403-1.304-.403-.635,0-1.11.228-1.425.682-.315.455-.477,1.161-.485,2.117v.698c0,.999.151,1.729.454,2.19.302.461.779.692,1.431.692.588,0,1.027-.134,1.317-.403.29-.269.456-.685.499-1.247h1.904Z" fill="#fff"/>
    <path d="m579.361,85.899c0,.91-.161,1.708-.482,2.393s-.782,1.215-1.381,1.587c-.599.372-1.285.559-2.06.559-.766,0-1.449-.184-2.05-.552s-1.066-.894-1.396-1.577-.497-1.469-.501-2.358v-.457c0-.91.164-1.711.492-2.403.328-.692.791-1.223,1.39-1.593.599-.37,1.284-.555,2.054-.555s1.455.185,2.054.555c.599.37,1.062.901,1.39,1.593.328.692.492,1.491.492,2.396v.413Zm-1.93-.419c0-.969-.173-1.705-.521-2.209s-.842-.755-1.485-.755c-.639,0-1.132.249-1.479.746s-.522,1.226-.527,2.187v.451c0,.944.173,1.676.521,2.196s.846.781,1.498.781c.639,0,1.13-.251,1.473-.752s.516-1.232.521-2.193v-.451Z" fill="#fff"/>
    <path d="m584.318,90.311h-3.936v-.876l1.822-1.631c.237-.208.407-.401.511-.58.104-.178.156-.316.156-.414,0-.357-.201-.535-.603-.535-.211,0-.38.066-.505.198-.125.133-.187.299-.187.5h-1.308c0-.491.181-.904.542-1.238.362-.334.829-.501,1.4-.501.626,0,1.11.136,1.451.409.34.273.511.661.511,1.165,0,.296-.076.567-.229.812s-.457.552-.914.92l-.939.73h2.228v1.041Z" fill="#fff"/>
    <path d="m591.859,90.438c-1.007,0-1.827-.309-2.459-.927-.633-.618-.949-1.441-.949-2.469v-.178c0-.69.133-1.307.4-1.85s.644-.963,1.133-1.257c.488-.294,1.046-.441,1.672-.441.939,0,1.679.296,2.218.889.54.593.81,1.432.81,2.52v.749h-4.374c.059.448.238.808.537,1.079.298.271.676.406,1.133.406.707,0,1.259-.256,1.657-.768l.901,1.009c-.275.389-.647.693-1.117.911s-.99.327-1.562.327Zm-.209-5.643c-.364,0-.659.123-.886.37-.226.247-.371.599-.435,1.058h2.552v-.147c-.008-.408-.119-.724-.33-.947s-.512-.335-.901-.335Z" fill="#fff"/>
    <path d="m595.439,86.813c0-1.079.24-1.932.721-2.558.48-.626,1.139-.939,1.977-.939.736,0,1.322.281,1.758.844l.121-.717h1.612v9.509h-1.841v-3.231c-.423.478-.978.717-1.663.717-.817,0-1.468-.317-1.955-.952s-.73-1.526-.73-2.672Zm1.834.13c0,.657.115,1.157.346,1.5.23.343.555.515.974.515.563,0,.96-.225,1.193-.674v-2.842c-.229-.432-.622-.648-1.181-.648-.423,0-.751.172-.984.515-.233.344-.349.888-.349,1.634Z" fill="#fff"/>
    <path d="m566.081,104.479c.419,0,.785-.127,1.098-.381s.487-.571.521-.952h1.111c-.021.394-.157.768-.406,1.124s-.583.639-1,.851c-.417.212-.858.317-1.323.317-.935,0-1.679-.312-2.231-.936-.552-.624-.828-1.478-.828-2.561v-.197c0-.669.123-1.263.368-1.784s.598-.925,1.057-1.212c.459-.288,1.002-.432,1.628-.432.77,0,1.41.231,1.92.692.51.461.782,1.06.815,1.796h-1.111c-.034-.444-.202-.809-.504-1.095-.303-.286-.676-.428-1.121-.428-.597,0-1.059.215-1.387.644-.328.429-.492,1.051-.492,1.863v.222c0,.791.163,1.401.489,1.828s.792.641,1.396.641Z" fill="#fff"/>
    <path d="m572.886,104.479c.419,0,.785-.127,1.098-.381s.487-.571.521-.952h1.111c-.021.394-.157.768-.406,1.124s-.583.639-1,.851c-.417.212-.858.317-1.323.317-.935,0-1.679-.312-2.231-.936-.552-.624-.828-1.478-.828-2.561v-.197c0-.669.123-1.263.368-1.784s.598-.925,1.057-1.212c.459-.288,1.002-.432,1.628-.432.77,0,1.41.231,1.92.692.51.461.782,1.06.815,1.796h-1.111c-.034-.444-.202-.809-.504-1.095-.303-.286-.676-.428-1.121-.428-.597,0-1.059.215-1.387.644-.328.429-.492,1.051-.492,1.863v.222c0,.791.163,1.401.489,1.828s.792.641,1.396.641Z" fill="#fff"/>
    <path d="m581.176,105.311c-.068-.135-.123-.377-.165-.724-.546.567-1.198.851-1.955.851-.677,0-1.232-.191-1.666-.574-.434-.383-.651-.869-.651-1.457,0-.715.272-1.271.816-1.666.543-.396,1.309-.594,2.294-.594h1.143v-.54c0-.41-.123-.737-.368-.981s-.607-.365-1.085-.365c-.419,0-.77.106-1.054.317s-.425.468-.425.768h-1.181c0-.343.122-.674.365-.993.244-.32.574-.572.99-.759.417-.186.875-.279,1.375-.279.792,0,1.411.198,1.86.594s.681.94.698,1.635v3.161c0,.631.081,1.132.241,1.504v.102h-1.231Zm-1.949-.895c.368,0,.717-.095,1.047-.286s.569-.438.717-.743v-1.409h-.92c-1.439,0-2.158.421-2.158,1.263,0,.368.123.656.368.863s.561.311.946.311Z" fill="#fff"/>
    <path d="m592.9,101.369c0,1.375-.235,2.397-.705,3.066s-1.204,1.003-2.203,1.003c-.986,0-1.716-.327-2.19-.981s-.719-1.63-.736-2.929v-1.568c0-1.358.235-2.368.705-3.028s1.206-.99,2.209-.99c.995,0,1.727.318,2.196.955s.711,1.62.724,2.948v1.523Zm-1.174-1.606c0-.994-.14-1.719-.419-2.174s-.722-.682-1.327-.682c-.601,0-1.039.226-1.314.679s-.417,1.149-.425,2.088v1.879c0,.999.145,1.736.435,2.212.29.476.729.714,1.317.714.58,0,1.01-.224,1.292-.673.281-.448.428-1.155.441-2.12v-1.923Z" fill="#fff"/>
    <path d="m594.487,107.151l-.667-.457c.398-.554.605-1.126.622-1.714v-1.06h1.149v.92c0,.427-.104.855-.314,1.282-.209.427-.473.77-.79,1.028Z" fill="#fff"/>
    <path d="m597.496,100.677l.47-4.608h4.735v1.085h-3.739l-.279,2.52c.453-.267.967-.4,1.542-.4.842,0,1.511.278,2.006.835s.743,1.309.743,2.257-.257,1.702-.771,2.25c-.515.548-1.233.822-2.155.822-.817,0-1.483-.226-2-.679s-.811-1.079-.882-1.879h1.111c.072.529.26.928.565,1.197s.707.403,1.206.403c.546,0,.975-.186,1.285-.559.312-.372.467-.886.467-1.542,0-.618-.168-1.114-.505-1.489-.336-.375-.784-.562-1.342-.562-.512,0-.914.112-1.206.336l-.311.254-.939-.241Z" fill="#fff"/>
    <path d="m609.188,96.779v1.663h1.282v.908h-1.282v4.265c0,.275.057.482.171.62s.309.207.584.207c.135,0,.322-.025.559-.076v.947c-.309.084-.609.126-.901.126-.525,0-.92-.159-1.187-.476s-.4-.768-.4-1.352v-4.259h-1.25v-.908h1.25v-1.663h1.174Z" fill="#fff"/>
    <path d="m616.082,104.631c-.457.537-1.128.806-2.012.806-.732,0-1.29-.213-1.672-.638-.383-.425-.577-1.055-.581-1.888v-4.469h1.174v4.437c0,1.041.423,1.562,1.27,1.562.897,0,1.494-.334,1.79-1.003v-4.996h1.174v6.868h-1.117l-.025-.679Z" fill="#fff"/>
    <path d="m620.119,98.442l.038.863c.525-.66,1.21-.99,2.057-.99,1.452,0,2.184.819,2.196,2.457v4.539h-1.174v-4.545c-.004-.495-.117-.861-.34-1.098-.222-.237-.568-.355-1.038-.355-.381,0-.715.102-1.003.305s-.512.47-.673.8v4.894h-1.174v-6.868h1.111Z" fill="#fff"/>
    <path d="m628.428,103.59l1.6-5.148h1.257l-2.761,7.928c-.427,1.143-1.106,1.714-2.038,1.714l-.222-.019-.438-.083v-.952l.317.025c.398,0,.708-.08.93-.241.223-.161.405-.455.549-.882l.26-.698-2.45-6.792h1.282l1.714,5.148Z" fill="#fff"/>
  </g>
  <g>
    <path d="m11.77,127.488v3.34h-1.125v-8.531h3.146c.934,0,1.665.238,2.194.715s.794,1.107.794,1.893c0,.828-.259,1.466-.776,1.913s-1.259.671-2.224.671h-2.01Zm0-.92h2.021c.602,0,1.062-.142,1.383-.426s.48-.694.48-1.23c0-.509-.16-.916-.48-1.221-.32-.305-.76-.464-1.318-.475h-2.086v3.352Z" fill="#002873"/>
    <path d="m19.61,122.824l.879-.996h.938v.059l-1.488,1.605h-.662l-1.471-1.605v-.059h.92l.885.996Zm1.5,2.637c-.164-.027-.342-.041-.533-.041-.711,0-1.193.303-1.447.908v4.5h-1.084v-6.34h1.055l.018.732c.355-.566.859-.85,1.512-.85.211,0,.371.027.48.082v1.008Z" fill="#002873"/>
    <path d="m22.112,122.807c0-.176.054-.324.161-.445s.267-.182.478-.182.371.061.48.182.164.27.164.445-.055.322-.164.439-.27.176-.48.176-.37-.059-.478-.176-.161-.264-.161-.439Zm1.172,8.021h-1.084v-6.34h1.084v6.34Z" fill="#002873"/>
    <path d="m30.081,129.357l1.57-4.869h1.107l-2.273,6.34h-.826l-2.297-6.34h1.107l1.611,4.869Z" fill="#002873"/>
    <path d="m35.876,129.24l1.477-4.752h1.16l-2.549,7.318c-.395,1.055-1.021,1.582-1.881,1.582l-.205-.018-.404-.076v-.879l.293.023c.367,0,.653-.074.858-.223s.374-.42.507-.814l.24-.645-2.262-6.27h1.184l1.582,4.752Zm.615-7.412h1.312l-1.57,1.723-.873-.003,1.131-1.72Z" fill="#002873"/>
    <path d="m42.544,125.461c-.164-.027-.342-.041-.533-.041-.711,0-1.193.303-1.447.908v4.5h-1.084v-6.34h1.055l.018.732c.355-.566.859-.85,1.512-.85.211,0,.371.027.48.082v1.008Z" fill="#002873"/>
    <path d="m43.135,127.6c0-.621.122-1.18.366-1.676s.584-.879,1.02-1.148.933-.404,1.491-.404c.863,0,1.562.299,2.095.896s.8,1.393.8,2.385v.076c0,.617-.118,1.171-.354,1.661s-.574.872-1.014,1.146-.944.41-1.515.41c-.859,0-1.556-.299-2.089-.896s-.8-1.389-.8-2.373v-.076Zm1.09.129c0,.703.163,1.268.489,1.693s.763.639,1.31.639c.551,0,.988-.216,1.312-.647s.486-1.036.486-1.813c0-.695-.165-1.259-.495-1.69s-.769-.647-1.315-.647c-.535,0-.967.213-1.295.639s-.492,1.035-.492,1.828Z" fill="#002873"/>
    <path d="m55.634,127.729c0,.969-.223,1.747-.668,2.335s-1.043.882-1.793.882c-.801,0-1.42-.283-1.857-.85l-.053.732h-.996v-9h1.084v3.357c.438-.543,1.041-.814,1.811-.814s1.374.291,1.813.873.659,1.379.659,2.391v.094Zm-1.084-.123c0-.738-.143-1.309-.428-1.711s-.695-.604-1.23-.604c-.715,0-1.229.332-1.541.996v2.742c.332.664.85.996,1.553.996.52,0,.924-.201,1.213-.604s.434-1.008.434-1.816Z" fill="#002873"/>
    <path d="m59.63,130.945c-.859,0-1.559-.282-2.098-.847s-.809-1.319-.809-2.265v-.199c0-.629.12-1.19.36-1.685s.576-.881,1.008-1.16.899-.419,1.403-.419c.824,0,1.465.271,1.922.814s.686,1.32.686,2.332v.451h-4.295c.016.625.198,1.13.548,1.515s.794.577,1.333.577c.383,0,.707-.078.973-.234s.498-.363.697-.621l.662.516c-.531.816-1.328,1.225-2.391,1.225Zm-.146-8.121l.879-.996h.938v.059l-1.488,1.605h-.662l-1.471-1.605v-.059h.92l.885.996Zm.012,2.438c-.438,0-.805.159-1.102.478s-.48.765-.551,1.339h3.176v-.082c-.031-.551-.18-.978-.445-1.28s-.625-.454-1.078-.454Z" fill="#002873"/>
    <path d="m67.798,122.953v1.535h1.184v.838h-1.184v3.937c0,.254.053.445.158.572.105.127.285.191.539.191.125,0,.297-.023.516-.07v.874c-.285.078-.562.116-.832.116-.484,0-.85-.146-1.096-.439s-.369-.709-.369-1.248v-3.932h-1.154v-.838h1.154v-1.535h1.084Z" fill="#002873"/>
    <path d="m74.161,130.201c-.422.496-1.041.744-1.857.744-.676,0-1.19-.196-1.544-.589s-.532-.974-.536-1.743v-4.125h1.084v4.096c0,.961.391,1.441,1.172,1.441.828,0,1.379-.309,1.652-.926v-4.611h1.084v6.34h-1.031l-.023-.627Z" fill="#002873"/>
    <path d="m77.887,124.488l.035.797c.484-.609,1.117-.914,1.898-.914,1.34,0,2.016.756,2.027,2.268v4.189h-1.084v-4.195c-.004-.457-.108-.795-.313-1.014s-.524-.328-.958-.328c-.352,0-.66.094-.926.281s-.473.434-.621.738v4.518h-1.084v-6.34h1.025Z" fill="#002873"/>
    <path d="m85.557,129.24l1.477-4.752h1.16l-2.549,7.318c-.395,1.055-1.021,1.582-1.881,1.582l-.205-.018-.404-.076v-.879l.293.023c.367,0,.653-.074.858-.223s.374-.42.507-.814l.24-.645-2.262-6.27h1.184l1.582,4.752Z" fill="#002873"/>
    <path d="m94.675,130.061c.387,0,.725-.117,1.014-.352s.449-.527.48-.879h1.025c-.02.363-.145.709-.375,1.037s-.538.59-.923.785-.792.293-1.222.293c-.863,0-1.55-.288-2.06-.864s-.765-1.364-.765-2.364v-.182c0-.617.113-1.166.34-1.646s.552-.854.976-1.119.925-.398,1.503-.398c.711,0,1.302.213,1.772.639s.722.979.753,1.658h-1.025c-.031-.41-.187-.747-.466-1.011s-.624-.396-1.034-.396c-.551,0-.978.198-1.28.595s-.454.97-.454,1.72v.205c0,.73.15,1.293.451,1.688s.73.592,1.289.592Z" fill="#002873"/>
    <path d="m101.044,130.945c-.859,0-1.559-.282-2.098-.847s-.809-1.319-.809-2.265v-.199c0-.629.12-1.19.36-1.685s.576-.881,1.008-1.16.899-.419,1.403-.419c.824,0,1.465.271,1.922.814s.686,1.32.686,2.332v.451h-4.295c.016.625.198,1.13.548,1.515s.794.577,1.333.577c.383,0,.707-.078.973-.234s.498-.363.697-.621l.662.516c-.531.816-1.328,1.225-2.391,1.225Zm-.135-5.684c-.438,0-.805.159-1.102.478s-.48.765-.551,1.339h3.176v-.082c-.031-.551-.18-.978-.445-1.28s-.625-.454-1.078-.454Z" fill="#002873"/>
    <path d="m105.79,124.488l.029.703c.465-.547,1.092-.82,1.881-.82.887,0,1.49.34,1.811,1.02.211-.305.485-.551.823-.738s.737-.281,1.198-.281c1.391,0,2.098.736,2.121,2.209v4.248h-1.084v-4.184c0-.453-.104-.792-.311-1.017s-.555-.337-1.043-.337c-.402,0-.736.12-1.002.36s-.42.563-.463.97v4.207h-1.09v-4.154c0-.922-.451-1.383-1.354-1.383-.711,0-1.197.303-1.459.908v4.629h-1.084v-6.34h1.025Z" fill="#002873"/>
    <path d="m117.919,130.945c-.859,0-1.559-.282-2.098-.847s-.809-1.319-.809-2.265v-.199c0-.629.12-1.19.36-1.685s.576-.881,1.008-1.16.899-.419,1.403-.419c.824,0,1.465.271,1.922.814s.686,1.32.686,2.332v.451h-4.295c.016.625.198,1.13.548,1.515s.794.577,1.333.577c.383,0,.707-.078.973-.234s.498-.363.697-.621l.662.516c-.531.816-1.328,1.225-2.391,1.225Zm-.135-5.684c-.438,0-.805.159-1.102.478s-.48.765-.551,1.339h3.176v-.082c-.031-.551-.18-.978-.445-1.28s-.625-.454-1.078-.454Z" fill="#002873"/>
    <path d="m122.671,124.488l.035.797c.484-.609,1.117-.914,1.898-.914,1.34,0,2.016.756,2.027,2.268v4.189h-1.084v-4.195c-.004-.457-.108-.795-.313-1.014s-.524-.328-.958-.328c-.352,0-.66.094-.926.281s-.473.434-.621.738v4.518h-1.084v-6.34h1.025Z" fill="#002873"/>
    <path d="m129.737,122.953v1.535h1.184v.838h-1.184v3.937c0,.254.053.445.158.572.105.127.285.191.539.191.125,0,.297-.023.516-.07v.874c-.285.078-.562.116-.832.116-.484,0-.85-.146-1.096-.439s-.369-.709-.369-1.248v-3.932h-1.154v-.838h1.154v-1.535h1.084Z" fill="#002873"/>
    <path d="m136.1,130.201c-.422.496-1.041.744-1.857.744-.676,0-1.19-.196-1.544-.589s-.532-.974-.536-1.743v-4.125h1.084v4.096c0,.961.391,1.441,1.172,1.441.828,0,1.379-.309,1.652-.926v-4.611h1.084v6.34h-1.031l-.023-.627Z" fill="#002873"/>
    <path d="m12.567,143.757l1.57-4.869h1.107l-2.273,6.34h-.826l-2.297-6.34h1.107l1.611,4.869Z" fill="#002873"/>
    <path d="m17.307,144.343h3.709v.885h-5.033v-.797l3.498-4.646h-3.445v-.896h4.805v.768l-3.533,4.688Z" fill="#002873"/>
    <path d="m23.26,138.888l.035.797c.484-.609,1.117-.914,1.898-.914,1.34,0,2.016.756,2.027,2.268v4.189h-1.084v-4.195c-.004-.457-.108-.795-.313-1.014s-.524-.328-.958-.328c-.352,0-.66.094-.926.281s-.473.434-.621.738v4.518h-1.084v-6.34h1.025Z" fill="#002873"/>
    <path d="m28.862,137.207c0-.176.054-.324.161-.445s.267-.182.478-.182.371.061.48.182.164.27.164.445-.055.322-.164.439-.27.176-.48.176-.37-.059-.478-.176-.161-.264-.161-.439Zm1.172,8.021h-1.084v-6.34h1.084v6.34Z" fill="#002873"/>
    <path d="m33.538,142.293l-.68.709v2.227h-1.084v-9h1.084v5.443l.58-.697,1.975-2.086h1.318l-2.467,2.648,2.754,3.691h-1.271l-2.209-2.936Z" fill="#002873"/>
    <path d="m38.876,138.888l.035.797c.484-.609,1.117-.914,1.898-.914,1.34,0,2.016.756,2.027,2.268v4.189h-1.084v-4.195c-.004-.457-.108-.795-.313-1.014s-.524-.328-.958-.328c-.352,0-.66.094-.926.281s-.473.434-.621.738v4.518h-1.084v-6.34h1.025Z" fill="#002873"/>
    <path d="m47.102,145.345c-.859,0-1.559-.282-2.098-.847s-.809-1.319-.809-2.265v-.199c0-.629.12-1.19.36-1.685s.576-.881,1.008-1.16.899-.419,1.403-.419c.824,0,1.465.271,1.922.814s.686,1.32.686,2.332v.451h-4.295c.016.625.198,1.13.548,1.515s.794.577,1.333.577c.383,0,.707-.078.973-.234s.498-.363.697-.621l.662.516c-.531.816-1.328,1.225-2.391,1.225Zm-.135-5.684c-.438,0-.805.159-1.102.478s-.48.765-.551,1.339h3.176v-.082c-.031-.551-.18-.978-.445-1.28s-.625-.454-1.078-.454Z" fill="#002873"/>
    <path d="m56.343,144.46c.387,0,.725-.117,1.014-.352s.449-.527.48-.879h1.025c-.02.363-.145.709-.375,1.037s-.538.59-.923.785-.792.293-1.222.293c-.863,0-1.55-.288-2.06-.864s-.765-1.364-.765-2.364v-.182c0-.617.113-1.166.34-1.646s.552-.854.976-1.119.925-.398,1.503-.398c.711,0,1.302.213,1.772.639s.722.979.753,1.658h-1.025c-.031-.41-.187-.747-.466-1.011s-.624-.396-1.034-.396c-.551,0-.978.198-1.28.595s-.454.97-.454,1.72v.205c0,.73.15,1.293.451,1.688s.73.592,1.289.592Z" fill="#002873"/>
    <path d="m62.624,144.46c.387,0,.725-.117,1.014-.352s.449-.527.48-.879h1.025c-.02.363-.145.709-.375,1.037s-.538.59-.923.785-.792.293-1.222.293c-.863,0-1.55-.288-2.06-.864s-.765-1.364-.765-2.364v-.182c0-.617.113-1.166.34-1.646s.552-.854.976-1.119.925-.398,1.503-.398c.711,0,1.302.213,1.772.639s.722.979.753,1.658h-1.025c-.031-.41-.187-.747-.466-1.011s-.624-.396-1.034-.396c-.551,0-.978.198-1.28.595s-.454.97-.454,1.72v.205c0,.73.15,1.293.451,1.688s.73.592,1.289.592Z" fill="#002873"/>
    <path d="m70.276,145.228c-.062-.125-.113-.348-.152-.668-.504.523-1.105.785-1.805.785-.625,0-1.138-.177-1.538-.53s-.601-.802-.601-1.345c0-.66.251-1.173.753-1.538s1.208-.548,2.118-.548h1.055v-.498c0-.379-.113-.681-.34-.905s-.561-.337-1.002-.337c-.387,0-.711.098-.973.293s-.393.432-.393.709h-1.09c0-.316.112-.622.337-.917s.529-.528.914-.7.808-.258,1.269-.258c.73,0,1.303.183,1.717.548s.629.868.645,1.509v2.918c0,.582.074,1.045.223,1.389v.094h-1.137Zm-1.799-.826c.34,0,.662-.088.967-.264s.525-.404.662-.686v-1.301h-.85c-1.328,0-1.992.389-1.992,1.166,0,.34.113.605.34.797s.518.287.873.287Z" fill="#002873"/>
    <path d="m81.098,141.589c0,1.27-.217,2.213-.65,2.83s-1.111.926-2.033.926c-.91,0-1.584-.302-2.021-.905s-.664-1.505-.68-2.704v-1.447c0-1.254.217-2.186.65-2.795s1.113-.914,2.039-.914c.918,0,1.594.294,2.027.882s.656,1.495.668,2.722v1.406Zm-1.084-1.482c0-.918-.129-1.587-.387-2.007s-.666-.63-1.225-.63c-.555,0-.959.209-1.213.627s-.385,1.061-.393,1.928v1.734c0,.922.134,1.603.401,2.042s.673.659,1.216.659c.535,0,.933-.207,1.192-.621s.396-1.066.407-1.957v-1.775Z" fill="#002873"/>
    <path d="m82.563,146.927l-.615-.422c.367-.512.559-1.039.574-1.582v-.979h1.061v.85c0,.395-.097.789-.29,1.184s-.437.711-.729.949Z" fill="#002873"/>
    <path d="m89.096,136.691v.92h-.199c-.844.016-1.516.266-2.016.75s-.789,1.166-.867,2.045c.449-.516,1.062-.773,1.84-.773.742,0,1.335.262,1.778.785s.665,1.199.665,2.027c0,.879-.239,1.582-.718,2.109s-1.12.791-1.925.791c-.816,0-1.479-.313-1.986-.94s-.762-1.435-.762-2.423v-.416c0-1.57.335-2.771,1.005-3.601s1.667-1.255,2.991-1.274h.193Zm-1.424,3.844c-.371,0-.713.111-1.025.334s-.529.502-.65.838v.398c0,.703.158,1.27.475,1.699s.711.645,1.184.645c.488,0,.872-.18,1.151-.539s.419-.83.419-1.412c0-.586-.142-1.06-.425-1.421s-.659-.542-1.128-.542Z" fill="#002873"/>
    <path d="m96.134,137.353v1.535h1.184v.838h-1.184v3.937c0,.254.053.445.158.572.105.127.285.191.539.191.125,0,.297-.023.516-.07v.874c-.285.078-.562.116-.832.116-.484,0-.85-.146-1.096-.439s-.369-.709-.369-1.248v-3.932h-1.154v-.838h1.154v-1.535h1.084Z" fill="#002873"/>
    <path d="m102.497,144.601c-.422.496-1.041.744-1.857.744-.676,0-1.19-.196-1.544-.589s-.532-.974-.536-1.743v-4.125h1.084v4.096c0,.961.391,1.441,1.172,1.441.828,0,1.379-.309,1.652-.926v-4.611h1.084v6.34h-1.031l-.023-.627Z" fill="#002873"/>
    <path d="m106.223,138.888l.035.797c.484-.609,1.117-.914,1.898-.914,1.34,0,2.016.756,2.027,2.268v4.189h-1.084v-4.195c-.004-.457-.108-.795-.313-1.014s-.524-.328-.958-.328c-.352,0-.66.094-.926.281s-.473.434-.621.738v4.518h-1.084v-6.34h1.025Z" fill="#002873"/>
    <path d="m113.893,143.64l1.477-4.752h1.16l-2.549,7.318c-.395,1.055-1.021,1.582-1.881,1.582l-.205-.018-.404-.076v-.879l.293.023c.367,0,.653-.074.858-.223s.374-.42.507-.814l.24-.645-2.262-6.27h1.184l1.582,4.752Z" fill="#002873"/>
    <path d="m126.913,142.521c-.105.902-.438,1.599-.999,2.089s-1.306.735-2.235.735c-1.008,0-1.815-.361-2.423-1.084s-.911-1.689-.911-2.9v-.82c0-.793.142-1.49.425-2.092s.685-1.063,1.204-1.386,1.121-.483,1.805-.483c.906,0,1.633.253,2.18.759s.865,1.206.955,2.101h-1.131c-.098-.682-.31-1.176-.636-1.481-.326-.306-.782-.458-1.368-.458-.719,0-1.282.266-1.69.798s-.612,1.288-.612,2.269v.827c0,.927.193,1.664.58,2.211.387.547.928.821,1.623.821.625,0,1.104-.142,1.438-.425s.556-.776.665-1.479h1.131Z" fill="#002873"/>
    <path d="m135.01,141.238c0,.836-.141,1.565-.422,2.188s-.68,1.099-1.195,1.427-1.117.492-1.805.492c-.672,0-1.268-.165-1.787-.495s-.923-.801-1.21-1.412-.435-1.319-.442-2.124v-.615c0-.82.143-1.545.428-2.174s.688-1.11,1.21-1.444,1.118-.501,1.79-.501c.684,0,1.286.165,1.808.495s.923.809,1.204,1.436.422,1.356.422,2.188v.539Zm-1.119-.551c0-1.012-.203-1.788-.609-2.329s-.975-.812-1.705-.812c-.711,0-1.271.271-1.679.812s-.618,1.292-.63,2.253v.627c0,.98.206,1.751.618,2.312s.979.841,1.702.841c.727,0,1.289-.265,1.688-.794s.604-1.288.615-2.276v-.633Z" fill="#002873"/>
    <path d="m139.71,145.228h-3.51v-.633l1.758-1.652c.426-.4.639-.735.639-1.006,0-.192-.062-.348-.188-.467-.125-.12-.305-.179-.539-.179-.293,0-.509.075-.647.224s-.208.336-.208.561h-.92c0-.445.163-.812.489-1.102s.747-.434,1.263-.434.924.124,1.225.372.451.587.451,1.017c0,.406-.209.818-.627,1.236l-.492.463-1.031.85h2.338v.75Z" fill="#002873"/>
  </g>
  <g>
    <path d="m457.913,130.828h-1.131l-4.295-6.574v6.574h-1.131v-8.531h1.131l4.307,6.604v-6.604h1.119v8.531Z" fill="#4d4d4d"/>
    <path d="m463.655,130.828c-.062-.125-.113-.348-.152-.668-.504.523-1.105.785-1.805.785-.625,0-1.138-.177-1.538-.53s-.601-.802-.601-1.345c0-.66.251-1.173.753-1.538s1.208-.548,2.118-.548h1.055v-.498c0-.379-.113-.681-.34-.905s-.561-.337-1.002-.337c-.387,0-.711.098-.973.293s-.393.432-.393.709h-1.09c0-.316.112-.622.337-.917s.529-.528.914-.7.808-.258,1.269-.258c.73,0,1.303.183,1.717.548s.629.868.645,1.509v2.918c0,.582.074,1.045.223,1.389v.094h-1.137Zm-1.799-.826c.34,0,.662-.088.967-.264s.525-.404.662-.686v-1.301h-.85c-1.328,0-1.992.389-1.992,1.166,0,.34.113.605.34.797s.518.287.873.287Z" fill="#4d4d4d"/>
    <path d="m472.304,125.461c-.164-.027-.342-.041-.533-.041-.711,0-1.193.303-1.447.908v4.5h-1.084v-6.34h1.055l.018.732c.355-.566.859-.85,1.512-.85.211,0,.371.027.48.082v1.008Z" fill="#4d4d4d"/>
    <path d="m472.896,127.6c0-.621.122-1.18.366-1.676s.584-.879,1.02-1.148.933-.404,1.491-.404c.863,0,1.562.299,2.095.896s.8,1.393.8,2.385v.076c0,.617-.118,1.171-.354,1.661s-.574.872-1.014,1.146-.944.41-1.515.41c-.859,0-1.556-.299-2.089-.896s-.8-1.389-.8-2.373v-.076Zm1.09.129c0,.703.163,1.268.489,1.693s.763.639,1.31.639c.551,0,.988-.216,1.312-.647s.486-1.036.486-1.813c0-.695-.165-1.259-.495-1.69s-.769-.647-1.315-.647c-.535,0-.967.213-1.295.639s-.492,1.035-.492,1.828Z" fill="#4d4d4d"/>
    <path d="m480.952,129.944h3.709v.885h-5.033v-.797l3.498-4.646h-3.445v-.896h4.805v.768l-3.533,4.688Z" fill="#4d4d4d"/>
    <path d="m485.523,127.606c0-.973.23-1.755.691-2.347s1.064-.888,1.811-.888c.742,0,1.33.254,1.764.762v-3.305h1.084v9h-.996l-.053-.68c-.434.531-1.037.797-1.811.797-.734,0-1.333-.301-1.796-.902s-.694-1.387-.694-2.355v-.082Zm1.084.123c0,.719.148,1.281.445,1.688s.707.609,1.23.609c.688,0,1.189-.309,1.506-.926v-2.912c-.324-.598-.822-.896-1.494-.896-.531,0-.945.205-1.242.615s-.445,1.018-.445,1.822Z" fill="#4d4d4d"/>
    <path d="m493.743,121.834h1.312l-1.57,1.723-.873-.003,1.131-1.72Zm-.012,8.994h-1.09v-6.34h1.09v6.34Z" fill="#4d4d4d"/>
    <path d="m496.697,130.828h-1.084v-9h1.084v9Z" fill="#4d4d4d"/>
    <path d="m501.114,127.6c0-.621.122-1.18.366-1.676s.584-.879,1.02-1.148.933-.404,1.491-.404c.863,0,1.562.299,2.095.896s.8,1.393.8,2.385v.076c0,.617-.118,1.171-.354,1.661s-.574.872-1.014,1.146-.944.41-1.515.41c-.859,0-1.556-.299-2.089-.896s-.8-1.389-.8-2.373v-.076Zm1.09.129c0,.703.163,1.268.489,1.693s.763.639,1.31.639c.551,0,.988-.216,1.312-.647s.486-1.036.486-1.813c0-.695-.165-1.259-.495-1.69s-.769-.647-1.315-.647c-.535,0-.967.213-1.295.639s-.492,1.035-.492,1.828Z" fill="#4d4d4d"/>
    <path d="m507.982,127.606c0-.973.23-1.755.691-2.347s1.064-.888,1.811-.888c.742,0,1.33.254,1.764.762v-3.305h1.084v9h-.996l-.053-.68c-.434.531-1.037.797-1.811.797-.734,0-1.333-.301-1.796-.902s-.694-1.387-.694-2.355v-.082Zm1.084.123c0,.719.148,1.281.445,1.688s.707.609,1.23.609c.688,0,1.189-.309,1.506-.926v-2.912c-.324-.598-.822-.896-1.494-.896-.531,0-.945.205-1.242.615s-.445,1.018-.445,1.822Z" fill="#4d4d4d"/>
    <path d="m520.075,129.358l1.57-4.869h1.107l-2.273,6.34h-.826l-2.297-6.34h1.107l1.611,4.869Z" fill="#4d4d4d"/>
    <path d="m525.87,129.241l1.477-4.752h1.16l-2.549,7.318c-.395,1.055-1.021,1.582-1.881,1.582l-.205-.018-.404-.076v-.879l.293.023c.367,0,.653-.074.858-.223s.374-.42.507-.814l.24-.645-2.262-6.27h1.184l1.582,4.752Zm.615-7.412h1.312l-1.57,1.723-.873-.003,1.131-1.72Z" fill="#4d4d4d"/>
    <path d="m532.538,125.461c-.164-.027-.342-.041-.533-.041-.711,0-1.193.303-1.447.908v4.5h-1.084v-6.34h1.055l.018.732c.355-.566.859-.85,1.512-.85.211,0,.371.027.48.082v1.008Z" fill="#4d4d4d"/>
    <path d="m533.13,127.6c0-.621.122-1.18.366-1.676s.584-.879,1.02-1.148.933-.404,1.491-.404c.863,0,1.562.299,2.095.896s.8,1.393.8,2.385v.076c0,.617-.118,1.171-.354,1.661s-.574.872-1.014,1.146-.944.41-1.515.41c-.859,0-1.556-.299-2.089-.896s-.8-1.389-.8-2.373v-.076Zm1.09.129c0,.703.163,1.268.489,1.693s.763.639,1.31.639c.551,0,.988-.216,1.312-.647s.486-1.036.486-1.813c0-.695-.165-1.259-.495-1.69s-.769-.647-1.315-.647c-.535,0-.967.213-1.295.639s-.492,1.035-.492,1.828Z" fill="#4d4d4d"/>
    <path d="m545.628,127.729c0,.969-.223,1.747-.668,2.335s-1.043.882-1.793.882c-.801,0-1.42-.283-1.857-.85l-.053.732h-.996v-9h1.084v3.357c.438-.543,1.041-.814,1.811-.814s1.374.291,1.813.873.659,1.379.659,2.391v.094Zm-1.084-.123c0-.738-.143-1.309-.428-1.711s-.695-.604-1.23-.604c-.715,0-1.229.332-1.541.996v2.742c.332.664.85.996,1.553.996.52,0,.924-.201,1.213-.604s.434-1.008.434-1.816Z" fill="#4d4d4d"/>
    <path d="m549.003,129.241l1.477-4.752h1.16l-2.549,7.318c-.395,1.055-1.021,1.582-1.881,1.582l-.205-.018-.404-.076v-.879l.293.023c.367,0,.653-.074.858-.223s.374-.42.507-.814l.24-.645-2.262-6.27h1.184l1.582,4.752Z" fill="#4d4d4d"/>
    <path d="m558.12,130.061c.387,0,.725-.117,1.014-.352s.449-.527.48-.879h1.025c-.02.363-.145.709-.375,1.037s-.538.59-.923.785-.792.293-1.222.293c-.863,0-1.55-.288-2.06-.864s-.765-1.364-.765-2.364v-.182c0-.617.113-1.166.34-1.646s.552-.854.976-1.119.925-.398,1.503-.398c.711,0,1.302.213,1.772.639s.722.979.753,1.658h-1.025c-.031-.41-.187-.747-.466-1.011s-.624-.396-1.034-.396c-.551,0-.978.198-1.28.595s-.454.97-.454,1.72v.205c0,.73.15,1.293.451,1.688s.73.592,1.289.592Z" fill="#4d4d4d"/>
    <path d="m564.489,130.946c-.859,0-1.559-.282-2.098-.847s-.809-1.319-.809-2.265v-.199c0-.629.12-1.19.36-1.685s.576-.881,1.008-1.16.899-.419,1.403-.419c.824,0,1.465.271,1.922.814s.686,1.32.686,2.332v.451h-4.295c.016.625.198,1.13.548,1.515s.794.577,1.333.577c.383,0,.707-.078.973-.234s.498-.363.697-.621l.662.516c-.531.816-1.328,1.225-2.391,1.225Zm-.135-5.684c-.438,0-.805.159-1.102.478s-.48.765-.551,1.339h3.176v-.082c-.031-.551-.18-.978-.445-1.28s-.625-.454-1.078-.454Z" fill="#4d4d4d"/>
    <path d="m569.236,124.489l.029.703c.465-.547,1.092-.82,1.881-.82.887,0,1.49.34,1.811,1.02.211-.305.485-.551.823-.738s.737-.281,1.198-.281c1.391,0,2.098.736,2.121,2.209v4.248h-1.084v-4.184c0-.453-.104-.792-.311-1.017s-.555-.337-1.043-.337c-.402,0-.736.12-1.002.36s-.42.563-.463.97v4.207h-1.09v-4.154c0-.922-.451-1.383-1.354-1.383-.711,0-1.197.303-1.459.908v4.629h-1.084v-6.34h1.025Z" fill="#4d4d4d"/>
    <path d="m581.364,130.946c-.859,0-1.559-.282-2.098-.847s-.809-1.319-.809-2.265v-.199c0-.629.12-1.19.36-1.685s.576-.881,1.008-1.16.899-.419,1.403-.419c.824,0,1.465.271,1.922.814s.686,1.32.686,2.332v.451h-4.295c.016.625.198,1.13.548,1.515s.794.577,1.333.577c.383,0,.707-.078.973-.234s.498-.363.697-.621l.662.516c-.531.816-1.328,1.225-2.391,1.225Zm-.135-5.684c-.438,0-.805.159-1.102.478s-.48.765-.551,1.339h3.176v-.082c-.031-.551-.18-.978-.445-1.28s-.625-.454-1.078-.454Z" fill="#4d4d4d"/>
    <path d="m586.116,124.489l.035.797c.484-.609,1.117-.914,1.898-.914,1.34,0,2.016.756,2.027,2.268v4.189h-1.084v-4.195c-.004-.457-.108-.795-.313-1.014s-.524-.328-.958-.328c-.352,0-.66.094-.926.281s-.473.434-.621.738v4.518h-1.084v-6.34h1.025Z" fill="#4d4d4d"/>
    <path d="m593.183,122.953v1.535h1.184v.838h-1.184v3.937c0,.254.053.445.158.572.105.127.285.191.539.191.125,0,.297-.023.516-.07v.874c-.285.078-.562.116-.832.116-.484,0-.85-.146-1.096-.439s-.369-.709-.369-1.248v-3.932h-1.154v-.838h1.154v-1.535h1.084Z" fill="#4d4d4d"/>
    <path d="m599.546,130.201c-.422.496-1.041.744-1.857.744-.676,0-1.19-.196-1.544-.589s-.532-.974-.536-1.743v-4.125h1.084v4.096c0,.961.391,1.441,1.172,1.441.828,0,1.379-.309,1.652-.926v-4.611h1.084v6.34h-1.031l-.023-.627Z" fill="#4d4d4d"/>
    <path d="m609.132,130.828c-.062-.125-.113-.348-.152-.668-.504.523-1.105.785-1.805.785-.625,0-1.138-.177-1.538-.53s-.601-.802-.601-1.345c0-.66.251-1.173.753-1.538s1.208-.548,2.118-.548h1.055v-.498c0-.379-.113-.681-.34-.905s-.561-.337-1.002-.337c-.387,0-.711.098-.973.293s-.393.432-.393.709h-1.09c0-.316.112-.622.337-.917s.529-.528.914-.7.808-.258,1.269-.258c.73,0,1.303.183,1.717.548s.629.868.645,1.509v2.918c0,.582.074,1.045.223,1.389v.094h-1.137Zm-1.799-.826c.34,0,.662-.088.967-.264s.525-.404.662-.686v-1.301h-.85c-1.328,0-1.992.389-1.992,1.166,0,.34.113.605.34.797s.518.287.873.287Z" fill="#4d4d4d"/>
    <path d="m616.808,129.358l1.57-4.869h1.107l-2.273,6.34h-.826l-2.297-6.34h1.107l1.611,4.869Z" fill="#4d4d4d"/>
    <path d="m624.355,130.828c-.062-.125-.113-.348-.152-.668-.504.523-1.105.785-1.805.785-.625,0-1.138-.177-1.538-.53s-.601-.802-.601-1.345c0-.66.251-1.173.753-1.538s1.208-.548,2.118-.548h1.055v-.498c0-.379-.113-.681-.34-.905s-.561-.337-1.002-.337c-.387,0-.711.098-.973.293s-.393.432-.393.709h-1.09c0-.316.112-.622.337-.917s.529-.528.914-.7.808-.258,1.269-.258c.73,0,1.303.183,1.717.548s.629.868.645,1.509v2.918c0,.582.074,1.045.223,1.389v.094h-1.137Zm-1.799-.826c.34,0,.662-.088.967-.264s.525-.404.662-.686v-1.301h-.85c-1.328,0-1.992.389-1.992,1.166,0,.34.113.605.34.797s.518.287.873.287Zm1.002-8.174h1.312l-1.57,1.723-.873-.003,1.131-1.72Z" fill="#4d4d4d"/>
    <path d="m632.323,127.729c0,.965-.221,1.742-.662,2.332s-1.039.885-1.793.885c-.77,0-1.375-.244-1.816-.732v3.053h-1.084v-8.777h.99l.053.703c.441-.547,1.055-.82,1.84-.82.762,0,1.364.287,1.808.861s.665,1.373.665,2.396v.1Zm-1.084-.123c0-.715-.152-1.279-.457-1.693s-.723-.621-1.254-.621c-.656,0-1.148.291-1.477.873v3.029c.324.578.82.867,1.488.867.52,0,.933-.206,1.239-.618s.46-1.024.46-1.837Z" fill="#4d4d4d"/>
    <path d="m634.726,124.489l.035.797c.484-.609,1.117-.914,1.898-.914,1.34,0,2.016.756,2.027,2.268v4.189h-1.084v-4.195c-.004-.457-.108-.795-.313-1.014s-.524-.328-.958-.328c-.352,0-.66.094-.926.281s-.473.434-.621.738v4.518h-1.084v-6.34h1.025Z" fill="#4d4d4d"/>
    <path d="m644.236,130.828c-.062-.125-.113-.348-.152-.668-.504.523-1.105.785-1.805.785-.625,0-1.138-.177-1.538-.53s-.601-.802-.601-1.345c0-.66.251-1.173.753-1.538s1.208-.548,2.118-.548h1.055v-.498c0-.379-.113-.681-.34-.905s-.561-.337-1.002-.337c-.387,0-.711.098-.973.293s-.393.432-.393.709h-1.09c0-.316.112-.622.337-.917s.529-.528.914-.7.808-.258,1.269-.258c.73,0,1.303.183,1.717.548s.629.868.645,1.509v2.918c0,.582.074,1.045.223,1.389v.094h-1.137Zm-1.799-.826c.34,0,.662-.088.967-.264s.525-.404.662-.686v-1.301h-.85c-1.328,0-1.992.389-1.992,1.166,0,.34.113.605.34.797s.518.287.873.287Z" fill="#4d4d4d"/>
    <path d="m646.814,132.528l-.615-.422c.367-.512.559-1.039.574-1.582v-.979h1.061v.85c0,.395-.097.789-.29,1.184s-.437.711-.729.949Z" fill="#4d4d4d"/>
    <path d="m452.271,139.656c.48-.59,1.105-.885,1.875-.885,1.34,0,2.016.756,2.027,2.268v4.189h-1.084v-4.195c-.004-.457-.108-.795-.313-1.014s-.524-.328-.958-.328c-.352,0-.66.094-.926.281s-.473.434-.621.738v4.518h-1.084v-9h1.084v3.428Z" fill="#4d4d4d"/>
    <path d="m458.974,145.228h-1.084v-9h1.084v9Z" fill="#4d4d4d"/>
    <path d="m464.622,145.228c-.062-.125-.113-.348-.152-.668-.504.523-1.105.785-1.805.785-.625,0-1.138-.177-1.538-.53s-.601-.802-.601-1.345c0-.66.251-1.173.753-1.538s1.208-.548,2.118-.548h1.055v-.498c0-.379-.113-.681-.34-.905s-.561-.337-1.002-.337c-.387,0-.711.098-.973.293s-.393.432-.393.709h-1.09c0-.316.112-.622.337-.917s.529-.528.914-.7.808-.258,1.269-.258c.73,0,1.303.183,1.717.548s.629.868.645,1.509v2.918c0,.582.074,1.045.223,1.389v.094h-1.137Zm-1.799-.826c.34,0,.662-.088.967-.264s.525-.404.662-.686v-1.301h-.85c-1.328,0-1.992.389-1.992,1.166,0,.34.113.605.34.797s.518.287.873.287Z" fill="#4d4d4d"/>
    <path d="m469.239,143.758l1.57-4.869h1.107l-2.273,6.34h-.826l-2.297-6.34h1.107l1.611,4.869Z" fill="#4d4d4d"/>
    <path d="m473.986,138.888l.035.797c.484-.609,1.117-.914,1.898-.914,1.34,0,2.016.756,2.027,2.268v4.189h-1.084v-4.195c-.004-.457-.108-.795-.313-1.014s-.524-.328-.958-.328c-.352,0-.66.094-.926.281s-.473.434-.621.738v4.518h-1.084v-6.34h1.025Z" fill="#4d4d4d"/>
    <path d="m480.771,136.234h1.312l-1.57,1.723-.873-.003,1.131-1.72Zm-.012,8.994h-1.09v-6.34h1.09v6.34Z" fill="#4d4d4d"/>
    <path d="m486.536,144.344h3.709v.885h-5.033v-.797l3.498-4.646h-3.445v-.896h4.805v.768l-3.533,4.688Z" fill="#4d4d4d"/>
    <path d="m491.107,142.006c0-.973.23-1.755.691-2.347s1.064-.888,1.811-.888c.742,0,1.33.254,1.764.762v-3.305h1.084v9h-.996l-.053-.68c-.434.531-1.037.797-1.811.797-.734,0-1.333-.301-1.796-.902s-.694-1.387-.694-2.355v-.082Zm1.084.123c0,.719.148,1.281.445,1.688s.707.609,1.23.609c.688,0,1.189-.309,1.506-.926v-2.912c-.324-.598-.822-.896-1.494-.896-.531,0-.945.205-1.242.615s-.445,1.018-.445,1.822Z" fill="#4d4d4d"/>
    <path d="m501.202,139.861c-.164-.027-.342-.041-.533-.041-.711,0-1.193.303-1.447.908v4.5h-1.084v-6.34h1.055l.018.732c.355-.566.859-.85,1.512-.85.211,0,.371.027.48.082v1.008Z" fill="#4d4d4d"/>
    <path d="m501.794,142c0-.621.122-1.18.366-1.676s.584-.879,1.02-1.148.933-.404,1.491-.404c.863,0,1.562.299,2.095.896s.8,1.393.8,2.385v.076c0,.617-.118,1.171-.354,1.661s-.574.872-1.014,1.146-.944.41-1.515.41c-.859,0-1.556-.299-2.089-.896s-.8-1.389-.8-2.373v-.076Zm1.09.129c0,.703.163,1.268.489,1.693s.763.639,1.31.639c.551,0,.988-.216,1.312-.647s.486-1.036.486-1.813c0-.695-.165-1.259-.495-1.69s-.769-.647-1.315-.647c-.535,0-.967.213-1.295.639s-.492,1.035-.492,1.828Z" fill="#4d4d4d"/>
    <path d="m510.044,138.888v7.072c0,1.219-.553,1.828-1.658,1.828-.238,0-.459-.035-.662-.105v-.862c.125.031.289.047.492.047.242,0,.427-.065.554-.196.127-.131.19-.359.19-.683v-7.101h1.084Zm-1.195-1.682c0-.172.054-.319.161-.442s.265-.185.472-.185c.211,0,.371.061.48.182s.164.27.164.445-.055.322-.164.439-.27.176-.48.176-.369-.059-.475-.176-.158-.264-.158-.439Z" fill="#4d4d4d"/>
    <path d="m517.392,145.345c-.859,0-1.559-.282-2.098-.847s-.809-1.319-.809-2.265v-.199c0-.629.12-1.19.36-1.685s.576-.881,1.008-1.16.899-.419,1.403-.419c.824,0,1.465.271,1.922.814s.686,1.32.686,2.332v.451h-4.295c.016.625.198,1.13.548,1.515s.794.577,1.333.577c.383,0,.707-.078.973-.234s.498-.363.697-.621l.662.516c-.531.816-1.328,1.225-2.391,1.225Zm-.135-5.684c-.438,0-.805.159-1.102.478s-.48.765-.551,1.339h3.176v-.082c-.031-.551-.18-.978-.445-1.28s-.625-.454-1.078-.454Z" fill="#4d4d4d"/>
    <path d="m522.138,138.888l.029.703c.465-.547,1.092-.82,1.881-.82.887,0,1.49.34,1.811,1.02.211-.305.485-.551.823-.738s.737-.281,1.198-.281c1.391,0,2.098.736,2.121,2.209v4.248h-1.084v-4.184c0-.453-.104-.792-.311-1.017s-.555-.337-1.043-.337c-.402,0-.736.12-1.002.36s-.42.563-.463.97v4.207h-1.09v-4.154c0-.922-.451-1.383-1.354-1.383-.711,0-1.197.303-1.459.908v4.629h-1.084v-6.34h1.025Z" fill="#4d4d4d"/>
    <path d="m531.642,137.207c0-.176.054-.324.161-.445s.267-.182.478-.182.371.061.48.182.164.27.164.445-.055.322-.164.439-.27.176-.48.176-.37-.059-.478-.176-.161-.264-.161-.439Zm1.172,8.021h-1.084v-6.34h1.084v6.34Z" fill="#4d4d4d"/>
    <path d="m538.239,143.547c0-.293-.11-.521-.331-.683s-.605-.302-1.154-.419-.984-.258-1.307-.422-.561-.359-.715-.586-.231-.496-.231-.809c0-.52.22-.959.659-1.318s1.001-.539,1.685-.539c.719,0,1.302.186,1.749.557s.671.846.671,1.424h-1.09c0-.297-.126-.553-.378-.768s-.569-.322-.952-.322c-.395,0-.703.086-.926.258s-.334.396-.334.674c0,.262.104.459.311.592s.581.26,1.122.381.979.266,1.315.434.585.37.747.606.243.524.243.864c0,.566-.227,1.021-.68,1.362s-1.041.513-1.764.513c-.508,0-.957-.09-1.348-.27s-.696-.431-.917-.753-.331-.671-.331-1.046h1.084c.02.363.165.651.437.864s.63.319,1.075.319c.41,0,.739-.083.987-.249s.372-.388.372-.665Z" fill="#4d4d4d"/>
    <path d="m541.925,136.234h1.312l-1.57,1.723-.873-.003,1.131-1.72Zm-.012,8.994h-1.09v-6.34h1.09v6.34Z" fill="#4d4d4d"/>
    <path d="m547.79,138.888v7.072c0,1.219-.553,1.828-1.658,1.828-.238,0-.459-.035-.662-.105v-.862c.125.031.289.047.492.047.242,0,.427-.065.554-.196.127-.131.19-.359.19-.683v-7.101h1.084Zm-1.195-1.682c0-.172.054-.319.161-.442s.265-.185.472-.185c.211,0,.371.061.48.182s.164.27.164.445-.055.322-.164.439-.27.176-.48.176-.369-.059-.475-.176-.158-.264-.158-.439Z" fill="#4d4d4d"/>
    <path d="m552.167,145.345c-.859,0-1.559-.282-2.098-.847s-.809-1.319-.809-2.265v-.199c0-.629.12-1.19.36-1.685s.576-.881,1.008-1.16.899-.419,1.403-.419c.824,0,1.465.271,1.922.814s.686,1.32.686,2.332v.451h-4.295c.016.625.198,1.13.548,1.515s.794.577,1.333.577c.383,0,.707-.078.973-.234s.498-.363.697-.621l.662.516c-.531.816-1.328,1.225-2.391,1.225Zm-.135-5.684c-.438,0-.805.159-1.102.478s-.48.765-.551,1.339h3.176v-.082c-.031-.551-.18-.978-.445-1.28s-.625-.454-1.078-.454Z" fill="#4d4d4d"/>
    <path d="m562.556,143.547c0-.293-.11-.521-.331-.683s-.605-.302-1.154-.419-.984-.258-1.307-.422-.561-.359-.715-.586-.231-.496-.231-.809c0-.52.22-.959.659-1.318s1.001-.539,1.685-.539c.719,0,1.302.186,1.749.557s.671.846.671,1.424h-1.09c0-.297-.126-.553-.378-.768s-.569-.322-.952-.322c-.395,0-.703.086-.926.258s-.334.396-.334.674c0,.262.104.459.311.592s.581.26,1.122.381.979.266,1.315.434.585.37.747.606.243.524.243.864c0,.566-.227,1.021-.68,1.362s-1.041.513-1.764.513c-.508,0-.957-.09-1.348-.27s-.696-.431-.917-.753-.331-.671-.331-1.046h1.084c.02.363.165.651.437.864s.63.319,1.075.319c.41,0,.739-.083.987-.249s.372-.388.372-.665Z" fill="#4d4d4d"/>
    <path d="m570.407,142.129c0,.965-.221,1.742-.662,2.332s-1.039.885-1.793.885c-.77,0-1.375-.244-1.816-.732v3.053h-1.084v-8.777h.99l.053.703c.441-.547,1.055-.82,1.84-.82.762,0,1.364.287,1.808.861s.665,1.373.665,2.396v.1Zm-1.084-.123c0-.715-.152-1.279-.457-1.693s-.723-.621-1.254-.621c-.656,0-1.148.291-1.477.873v3.029c.324.578.82.867,1.488.867.52,0,.933-.206,1.239-.618s.46-1.024.46-1.837Z" fill="#4d4d4d"/>
    <path d="m575.698,145.228c-.062-.125-.113-.348-.152-.668-.504.523-1.105.785-1.805.785-.625,0-1.138-.177-1.538-.53s-.601-.802-.601-1.345c0-.66.251-1.173.753-1.538s1.208-.548,2.118-.548h1.055v-.498c0-.379-.113-.681-.34-.905s-.561-.337-1.002-.337c-.387,0-.711.098-.973.293s-.393.432-.393.709h-1.09c0-.316.112-.622.337-.917s.529-.528.914-.7.808-.258,1.269-.258c.73,0,1.303.183,1.717.548s.629.868.645,1.509v2.918c0,.582.074,1.045.223,1.389v.094h-1.137Zm-1.799-.826c.34,0,.662-.088.967-.264s.525-.404.662-.686v-1.301h-.85c-1.328,0-1.992.389-1.992,1.166,0,.34.113.605.34.797s.518.287.873.287Z" fill="#4d4d4d"/>
    <path d="m579.489,145.228h-1.084v-9h1.084v9Z" fill="#4d4d4d"/>
    <path d="m580.937,142c0-.621.122-1.18.366-1.676s.584-.879,1.02-1.148.933-.404,1.491-.404c.863,0,1.562.299,2.095.896s.8,1.393.8,2.385v.076c0,.617-.118,1.171-.354,1.661s-.574.872-1.014,1.146-.944.41-1.515.41c-.859,0-1.556-.299-2.089-.896s-.8-1.389-.8-2.373v-.076Zm1.09.129c0,.703.163,1.268.489,1.693s.763.639,1.31.639c.551,0,.988-.216,1.312-.647s.486-1.036.486-1.813c0-.695-.165-1.259-.495-1.69s-.769-.647-1.315-.647c-.535,0-.967.213-1.295.639s-.492,1.035-.492,1.828Z" fill="#4d4d4d"/>
    <path d="m590.072,143.758l1.57-4.869h1.107l-2.273,6.34h-.826l-2.297-6.34h1.107l1.611,4.869Z" fill="#4d4d4d"/>
    <path d="m597.618,145.228c-.062-.125-.113-.348-.152-.668-.504.523-1.105.785-1.805.785-.625,0-1.138-.177-1.538-.53s-.601-.802-.601-1.345c0-.66.251-1.173.753-1.538s1.208-.548,2.118-.548h1.055v-.498c0-.379-.113-.681-.34-.905s-.561-.337-1.002-.337c-.387,0-.711.098-.973.293s-.393.432-.393.709h-1.09c0-.316.112-.622.337-.917s.529-.528.914-.7.808-.258,1.269-.258c.73,0,1.303.183,1.717.548s.629.868.645,1.509v2.918c0,.582.074,1.045.223,1.389v.094h-1.137Zm-1.799-.826c.34,0,.662-.088.967-.264s.525-.404.662-.686v-1.301h-.85c-1.328,0-1.992.389-1.992,1.166,0,.34.113.605.34.797s.518.287.873.287Zm1.002-8.174h1.312l-1.57,1.723-.873-.003,1.131-1.72Z" fill="#4d4d4d"/>
    <path d="m601.257,138.888l.035.797c.484-.609,1.117-.914,1.898-.914,1.34,0,2.016.756,2.027,2.268v4.189h-1.084v-4.195c-.004-.457-.108-.795-.313-1.014s-.524-.328-.958-.328c-.352,0-.66.094-.926.281s-.473.434-.621.738v4.518h-1.084v-6.34h1.025Z" fill="#4d4d4d"/>
    <path d="m608.042,136.234h1.312l-1.57,1.723-.873-.003,1.131-1.72Zm-.012,8.994h-1.09v-6.34h1.09v6.34Z" fill="#4d4d4d"/>
    <path d="m609.841,144.66c0-.188.056-.344.167-.469s.278-.188.501-.188.392.062.507.188.173.281.173.469c0,.18-.058.33-.173.451s-.284.182-.507.182-.39-.061-.501-.182-.167-.271-.167-.451Z" fill="#4d4d4d"/>
  </g>
</svg>