<?xml version="1.0" encoding="UTF-8"?>
<svg id="Layer_1" data-name="Layer 1" xmlns="http://www.w3.org/2000/svg" width="100" height="100" viewBox="0 0 100 100">
  <polygon points="40.19 57.27 40.73 56.73 23.59 46.11 35.61 26.71 57.31 40.16 57.85 39.61 58.4 39.07 35.12 24.65 21.53 46.6 39.64 57.82 40.19 57.27" fill="#3a3a45"/>
  <path d="m62.76,41.77l-.54.55-.55.54,13.93,8.63c-1.03,1.52-5.06,6.99-9.87,7.89-2.02.38-3.97-.12-5.78-1.48-1-.75-2-1.32-3-1.73,1.55-1.67,2.5-3.9,2.5-6.35,0-1.39-.31-2.71-.85-3.89l-1.14,1.15c.32.85.49,1.78.49,2.74,0,2.3-1,4.37-2.58,5.81-2.31-.61-4.51-.49-6.41-.05h-.01l-1.01,1.02h-.01s-.53.54-.53.54l-.7.7h-.01l-.45.45-1,1.01-.14.14h0l-.54.54-.41.41-.14.14,12.01,7.44v6.71c0,.41.34.75.75.75s.75-.34.75-.75v-5.79l3.64,2.26c-.04.09-.06.19-.06.29v13.39c0,.41.34.75.75.75s.75-.34.75-.75v-12.79l2.9,1.8.68.42h0v7.19c0,.41.33.75.75.75s.75-.34.75-.75v-9.02h0s3.57-5.77,3.57-5.77v9.71c0,.42.34.75.75.75s.75-.33.75-.75v-12.13l7.29-11.77.04-.06-.64-.31-16.68-10.33Z" fill="#3a3a45"/>
  <polygon points="35.27 34.1 35.67 33.46 36.77 31.67 38.56 32.78 39.2 33.18 39.59 32.54 39.99 31.9 36.29 29.61 34 33.31 35.27 34.1" fill="#3a3a45"/>
  <polygon points="30.06 42.52 29.42 42.13 28.78 41.73 26.49 45.43 30.19 47.72 30.58 47.09 30.98 46.45 30.34 46.05 28.55 44.95 29.66 43.16 30.06 42.52" fill="#3a3a45"/>
  <path d="m40.81,49.82c0,1.94.6,3.74,1.6,5.23l1.09-1.09c-.75-1.2-1.19-2.62-1.19-4.14,0-4.31,3.51-7.82,7.82-7.82,1.52,0,2.94.44,4.14,1.19l1.09-1.08c-1.49-1.02-3.29-1.61-5.23-1.61-5.14,0-9.32,4.18-9.32,9.32Z" fill="#3a3a45"/>
  <path d="m51,5.75C26.6,5.75,6.75,25.6,6.75,50s19.85,44.25,44.25,44.25,44.25-19.85,44.25-44.25S75.4,5.75,51,5.75Zm0,1.5c11.51,0,21.98,4.58,29.68,12.01l-1.09,1.1-19.66,19.65-1.09,1.09-2.12,2.13h0l-1.05,1.06h0l-11.05,11.05h0s-1.06,1.06-1.06,1.06h0s-1.28,1.28-1.28,1.28l-.54.54-.55.55-19.98,19.98-.93.93h0c-7.43-7.7-12.01-18.17-12.01-29.68C8.25,26.43,27.43,7.25,51,7.25Zm0,85.5c-11.51,0-21.98-4.58-29.68-12.01l.93-.93,20.23-20.23.15-.15.4-.4h0l2.73-2.73,10.86-10.85h0s1.07-1.08,1.07-1.08h0l3.55-3.55,19.41-19.4,1.09-1.1c7.43,7.7,12.01,18.17,12.01,29.68,0,23.57-19.18,42.75-42.75,42.75Z" fill="#3a3a45"/>
</svg>