<?xml version="1.0" encoding="UTF-8"?>
<svg id="Layer_1" data-name="Layer 1" xmlns="http://www.w3.org/2000/svg" width="100" height="100" viewBox="0 0 100 100">
  <path d="m71.53,17.87l-.88-7.83-47.32,5.32,1.51,13.45-17.63,5.17,18.02,61.45,43.5-12.76,12.74,2.63,12.94-62.71-22.88-4.72Zm-.75,63.7l-2.01-6.88,9.04-1.02-6.1-54.24,20.93,4.32-12.33,59.78-9.53-1.96Zm-5.18.46l-39.36,11.54L9.07,35l15.94-4.68.73-.21.74-.22,4.21-1.23,4.17-1.23,1.65-.48.1.29.5,1.45,1.84,5.37.5,1.45,1.84,5.36.45,1.32.02.05.8-.3.83-.31,3.79-1.42,8.94-3.35.66,2.27.43,1.46,1.58,5.4.43,1.46,1.58,5.39.43,1.46,1.58,5.39.43,1.46,1.58,5.39.43,1.46,1.58,5.4.21.73.22.73,1.8,6.15-.4.12-1.54.45-1.52.45ZM47.53,14.15l.79-.09.67-.08h.01l2.38-.26,17.95-2.02.66,5.85.09.78.08.79,5.99,53.23-7.81.88-1.58-5.4,3.69-.41-.17-1.49-3.95.44-1.58-5.39,4.91-.55-.16-1.49-5.18.58-1.58-5.39,6.14-.69-.17-1.49-6.4.72-1.58-5.39,7.36-.83-.17-1.49-7.62.86-1.58-5.4,8.58-.96-.16-1.5-8.85,1-1.2-4.11-2.24-1.07,11.67-1.32-.17-1.49-14.05,1.58-6.4-3.07-.7-.33-.7-.34-1.61-.77,1.81-.21.79-.09.79-.08,19.45-2.19-.17-1.49-18.97,2.13-.78.09-.79.09-4.68.53-3.3-1.59-10.73,3.15-1.32-11.7,22.54-2.53Zm-4.61,26.06l-.24.09-.34-1-1.36-3.96-.5-1.45-1.84-5.37-.35-1.03,1.79.86,4.11,1.97.7.34.7.33,3.91,1.88,2.55,1.22,3.16,1.52-11.46,4.29-.83.31Z" fill="#3a3a45"/>
  <polygon points="46.2 20.59 46.99 20.5 47.77 20.41 49.41 20.23 49.24 18.74 48.09 18.87 47.31 18.96 46.52 19.05 29.82 20.92 29.99 22.41 46.2 20.59" fill="#3a3a45"/>
  <polygon points="27.7 47.46 28.43 47.26 35.61 45.24 35.41 44.52 35.21 43.79 28.26 45.75 27.53 45.95 26.79 46.16 17.01 48.91 17.21 49.63 17.42 50.35 26.96 47.67 27.7 47.46" fill="#3a3a45"/>
  <path d="m61.28,74.78l-.22-.73-1.61-5.39-.44-1.46-1.61-5.39-.43-1.46-1.61-5.39-.44-1.46-1.61-5.39-.43-1.46-.68-2.27-9.99,2.98-.82.25-.82.24-.97.29-6.5,1.95-4.21,1.25-.73.22-.73.22-8.94,2.67,10.34,34.63,28.99-8.66,1.5-.45,1.52-.45,1.7-.51-1.05-3.5-.21-.73Zm-5.06,4.55l-1.51.45-24.87,7.43-9.48-31.75,7.24-2.16.73-.22.73-.22,10.86-3.24.31-.09.82-.25.82-.24,6.15-1.84,3.17-.95.17.57.44,1.46,1.61,5.39.43,1.46,1.61,5.39.44,1.46,1.61,5.39.43,1.46,1.61,5.39.22.73.22.73.69,2.32-2.93.88-1.52.45Z" fill="#3a3a45"/>
  <polygon points="53.17 74.44 52.96 73.72 52.26 73.93 46.3 75.71 46.29 75.71 44.7 76.19 44.69 76.19 43.18 76.64 42.25 76.92 42.24 76.92 41.34 77.02 41.67 77.09 38.2 78.13 38.18 78.13 33.57 79.51 33.32 78.68 33.1 77.95 32.89 77.22 31.14 71.38 29.93 67.34 29.93 67.33 29.43 65.66 29.73 65.51 29.73 65.5 29.77 65.48 30.44 65.13 32.75 63.9 35.46 66.37 36.55 67.36 37.2 67.95 37.25 68 37.87 66.74 38.19 66.08 38.47 65.51 38.47 65.5 39.07 64.28 42.72 67.5 44.26 68.86 44.27 68.86 45.71 70.13 48.15 68.42 48.16 68.42 48.44 68.39 48.45 68.39 50.29 69.39 50.65 68.73 50.99 68.1 51.01 68.07 48.2 66.55 46.11 68.02 45.82 68.23 45.47 67.92 40.66 63.69 39.14 62.35 39.12 62.34 38.58 61.86 38.36 62.31 38.29 62.45 37.51 64.05 37.03 65.02 37.03 65.04 36.88 65.34 36.78 65.54 36.06 64.89 35.4 64.28 34.62 63.57 32.98 62.08 31.98 62.61 30.26 63.53 29.55 63.9 28.99 64.2 28.72 63.3 28.72 63.28 27.82 60.29 27.6 59.54 26.88 59.76 26.16 59.97 29.67 71.71 30.88 75.75 30.88 75.77 31.59 78.12 31.8 78.85 32.56 81.38 44.78 77.73 46.29 77.28 46.61 77.18 46.63 77.18 47.8 76.83 50.67 75.97 50.68 75.97 53.39 75.16 53.32 74.92 53.17 74.44" fill="#3a3a45"/>
</svg>