<?xml version="1.0" encoding="UTF-8"?>
<svg id="Layer_1" data-name="Layer 1" xmlns="http://www.w3.org/2000/svg" width="100" height="100" viewBox="0 0 100 100">
  <path d="m32.29,41.34c1.55,1.17,4.21,2.08,7.39,2.7,2.73.85,6.15,1.19,9.63,1.19,1,0,2.01-.03,3-.08l.15-.15.66-.66.79-.79h0l.09-.09,2.39-2.39.69-.69.66-.66c-2.13-.3-4.5-.46-6.94-.46-5.69,0-10.99.88-13.82,2.29l-.38.19h0c-2.54-.81-4.03-1.77-4.26-2.61.03-.07.04-.15.04-.23,0-.13,0-.26.01-.39.86-1.89,7.7-4.25,18.41-4.25,4.53,0,8.37.42,11.35,1.05l1.24-1.24c-3.64-.86-8.17-1.31-12.59-1.31-7.27,0-14.87,1.21-18.23,3.49,1.29-8.98,9.02-15.89,18.35-15.89,7.08,0,13.24,3.99,16.35,9.83l1.1-1.1c-3.43-6.1-9.97-10.23-17.45-10.23-10.83,0-19.68,8.64-20.02,19.39-.07.21-.1.42-.1.64h0s-.07,27.84-.07,27.84l1.51-1.51.05-23.88Z" fill="#3a3a45"/>
  <path d="m70.38,34.16l-1.26,1.26c.07.33.12.67.16,1.01-.21-.17-.45-.32-.7-.47l-1.09,1.09c1.19.62,1.82,1.27,1.82,1.85,0,.89-1.52,1.96-4.31,2.84l-.37-.19c-.34-.17-.73-.34-1.14-.5l-.6.6-.86.86-.64.64-.43.43-.56.56-.2.2-.37.37v12.19c0,.42.33.75.75.75s.75-.33.75-.75v-12.68s0-.05-.01-.07c.85-.15,1.67-.32,2.44-.51v9c0,.41.34.75.75.75s.75-.34.75-.75v-9.19c0-.08-.01-.15-.04-.22,1.74-.53,3.18-1.18,4.16-1.93l.07,30.25c-.05,2.26-8.04,5.71-18.65,5.71-9.68,0-17.18-2.9-18.4-5.12l-1.06,1.06c2.26,3.07,10.52,5.56,19.46,5.56,5.22,0,10.22-.84,13.93-2.16,3.71-1.31,6.13-3.09,6.22-4.96l-.08-32.41c.05-.1.08-.21.08-.33,0-1.63-.2-3.22-.57-4.74Z" fill="#3a3a45"/>
  <path d="m56.33,50.36c.42,0,.75-.34.75-.75v-2.15l-1.5,1.5v.65c0,.41.34.75.75.75Z" fill="#3a3a45"/>
  <path d="m41.77,51.61l.12.96c.06.48.19,1.4.42,2.58l1.01-1.01.28-.28.42-.41.36-.37.92-.92c-1.17-.24-2.1-.37-2.58-.43l-.95-.12Z" fill="#3a3a45"/>
  <path d="m49.59,68.21c.93.45,1.9.68,2.92.68,1.35,0,2.78-.4,4.27-1.21l2.76,2.78,1.06-1.06-2.76-2.77c1.41-2.62,1.58-5.04.52-7.19-1.35-2.75-4.43-4.56-7.53-5.73l-1.16,1.16c3.3,1.17,6.2,2.9,7.35,5.23.78,1.59.68,3.4-.29,5.41l-8.82-8.88-1.06,1.06,8.82,8.88c-2.01.97-3.83,1.07-5.42.29-2.33-1.15-4.06-4.05-5.22-7.35l-1.16,1.16c1.16,3.11,2.97,6.19,5.72,7.54Z" fill="#3a3a45"/>
  <path d="m51,5.75C26.6,5.75,6.75,25.6,6.75,50s19.85,44.25,44.25,44.25,44.25-19.85,44.25-44.25S75.4,5.75,51,5.75Zm0,1.5c10.88,0,20.84,4.09,28.39,10.82.44.39.87.79,1.29,1.19l-11.48,11.48h0l-1.13,1.13h0l-2.73,2.73h0l-.93.93-4.54,4.54-.64.64-.65.65-1.89,1.89c-.23.03-.47.06-.71.09.23-.02.46-.04.68-.06l-.55.55c-.16.04-.3.15-.39.28-.05.06-.08.13-.1.21l-.62.62h0l-11,11h0l-1.23,1.23-10.54,10.54-1.5,1.5-10.47,10.47c-.4-.42-.8-.85-1.19-1.29-6.73-7.55-10.82-17.51-10.82-28.39C8.25,26.43,27.43,7.25,51,7.25Zm0,85.5c-10.88,0-20.84-4.09-28.39-10.82-.44-.39-.87-.79-1.29-1.19l9.4-9.4,1.5-1.5,11.01-11.01,1.2-1.2,3.35-3.35,1.2-1.2,6.6-6.6,1.5-1.5h0l.28-.28.05-.05.89-.89.75-.75.16-.16,1.14-1.14.62-.62.62-.62,4.17-4.17,1.15-1.15,1.72-1.72,1.18-1.18h0l11.93-11.93c.4.42.8.85,1.19,1.29,6.73,7.55,10.82,17.51,10.82,28.39,0,23.57-19.18,42.75-42.75,42.75Z" fill="#3a3a45"/>
</svg>