<?xml version="1.0" encoding="UTF-8"?>
<svg id="Layer_1" data-name="Layer 1" xmlns="http://www.w3.org/2000/svg" width="100" height="100" viewBox="0 0 100 100">
  <path d="m81.04,67.91l2.41-53.39-19.42-.88-1.95-6.22-16.94,5.36-16.91-.77-.28,6.21-.29.09-13.12,22.35,10.84,34.58-.52,11.48,4.18.19,2.67,8.53,23.23-7.35,25.14,1.14.42-9.23,3.94-1.25-3.4-10.84Zm-2.39,19.76l-19.57-.89,19.89-6.3-.32,7.19Zm.4-8.79l-24.31,7.7-2.06.65h-.03l-2.05.66-17.9,5.67-2.06-6.58-.24-.76-.24-.76-3.27-10.42-.66-2.12-.65-2.08-9.08-28.96,10.5-2.49.75-.18.76-.18,5.39-1.28-4.55-17.22h0s.05-1.19.05-1.19l15.94-5.05,2.06-.66h.02l2.07-.65,11.61-3.68,1.34,4.26.24.77.23.76,16.62,53.02.66,2.1h0s.65,2.08.65,2.08l1.72,5.48-1.99.63-.76.24-.76.24Zm-52.62,6.41l.26-5.85,1.87,5.95-2.13-.1Zm3.23-71.71l11.33.51-11.52,3.65.19-4.16Zm-1.77,7.31l.59,2.2.64,2.44,2.94,11.11-3.48.83-.76.18-.75.17h0s-10.61,2.52-10.61,2.52l11.36-19.33.07-.12Zm54-4.94l-2.16,47.78-15.22-48.57,17.38.79Z" fill="#3a3a45"/>
  <path d="m62.69,45.58c-3.48-3.48-7.69-5.22-12.64-5.22s-9.05,1.73-12.43,5.18c-1.7,1.72-3,3.66-3.9,5.83-.9,2.17-1.34,4.43-1.34,6.78s.44,4.63,1.32,6.77c.89,2.14,2.18,4.06,3.88,5.77,1.69,1.7,3.61,3,5.75,3.9,2.14.9,4.38,1.35,6.72,1.35s4.6-.45,6.79-1.36,4.15-2.23,5.88-3.94c1.67-1.63,2.93-3.51,3.78-5.64s1.28-4.41,1.28-6.85-.43-4.69-1.3-6.84c-.86-2.15-2.13-4.06-3.79-5.73Zm-7.06,25.98c-1.79.74-3.62,1.11-5.52,1.11s-3.75-.36-5.5-1.09c-1.75-.73-3.32-1.79-4.71-3.18-1.39-1.39-2.46-2.96-3.21-4.73s-1.12-3.61-1.12-5.51.37-3.78,1.12-5.55,1.82-3.36,3.21-4.78c2.76-2.84,6.16-4.26,10.21-4.26s7.43,1.43,10.27,4.29c1.37,1.38,2.42,2.95,3.13,4.7.72,1.76,1.08,3.63,1.08,5.6,0,4.08-1.38,7.48-4.14,10.19-1.44,1.4-3.04,2.47-4.82,3.21Z" fill="#3a3a45"/>
  <path d="m45.56,61.3c-.78,0-1.37-.29-1.77-.86-.4-.57-.6-1.33-.6-2.28,0-2.1.79-3.15,2.37-3.15.31,0,.66.11,1.02.32.37.21.68.58.94,1.11l2.37-1.24c-.95-1.71-2.52-2.57-4.71-2.57-1.5,0-2.74.5-3.72,1.49-.98,1-1.47,2.34-1.47,4.04s.49,3.09,1.46,4.06c.97.98,2.24,1.46,3.82,1.46.99,0,1.9-.25,2.72-.74.82-.5,1.47-1.18,1.93-2.05l-2.18-1.11c-.42,1.01-1.15,1.52-2.18,1.52Z" fill="#3a3a45"/>
  <path d="m55.77,61.3c-.78,0-1.37-.29-1.77-.86-.4-.57-.6-1.33-.6-2.28,0-2.1.79-3.15,2.37-3.15.33,0,.69.11,1.06.32.36.21.68.58.93,1.11l2.34-1.24c-.93-1.71-2.49-2.57-4.68-2.57-1.5,0-2.74.5-3.71,1.49-.98,1-1.47,2.34-1.47,4.04s.47,3.09,1.43,4.06c.96.98,2.24,1.46,3.84,1.46.97,0,1.87-.25,2.69-.74.82-.5,1.48-1.18,1.96-2.05l-2.21-1.11c-.42,1.01-1.15,1.52-2.18,1.52Z" fill="#3a3a45"/>
</svg>