<?xml version="1.0" encoding="UTF-8"?>
<svg id="Layer_1" data-name="Layer 1" xmlns="http://www.w3.org/2000/svg" width="100" height="100" viewBox="0 0 100 100">
  <rect x="26.27" y="13.98" width="53.78" height="73.29" transform="translate(2.36 -2.37) rotate(2.61)" fill="#fff" stroke="navy" stroke-miterlimit="10" stroke-width="1.5"/>
  <g>
    <polygon points="31.2 94.5 82.5 78.26 60.59 8.36 27.17 18.94 14.36 40.75 31.2 94.5" fill="#fff" stroke="navy" stroke-miterlimit="10" stroke-width="1.5"/>
    <polyline points="27.23 19.25 31.98 37.19 15.18 41.18" fill="none" stroke="navy" stroke-miterlimit="10" stroke-width="1.5"/>
  </g>
  <g>
    <ellipse cx="49.24" cy="58.16" rx="15.95" ry="16.03" fill="#fff"/>
    <path d="m49.05,40.36c4.95,0,9.17,1.74,12.64,5.21,1.66,1.67,2.93,3.58,3.79,5.73.86,2.15,1.3,4.43,1.3,6.85s-.43,4.72-1.28,6.85c-.85,2.13-2.11,4.01-3.78,5.64-1.73,1.72-3.69,3.03-5.88,3.94-2.19.91-4.46,1.37-6.8,1.37s-4.58-.45-6.72-1.35c-2.14-.9-4.06-2.2-5.75-3.91s-2.99-3.63-3.87-5.77-1.33-4.39-1.33-6.77.45-4.61,1.34-6.78c.9-2.17,2.2-4.11,3.9-5.83,3.37-3.45,7.51-5.18,12.42-5.18Zm.06,3.21c-4.05,0-7.45,1.42-10.21,4.26-1.39,1.42-2.46,3.01-3.21,4.78-.75,1.77-1.12,3.62-1.12,5.54s.37,3.74,1.12,5.51c.75,1.77,1.82,3.35,3.21,4.73,1.39,1.39,2.96,2.45,4.71,3.18,1.75.73,3.58,1.1,5.5,1.1s3.73-.37,5.52-1.11c1.78-.74,3.39-1.81,4.82-3.21,2.76-2.71,4.14-6.11,4.14-10.2,0-1.97-.36-3.83-1.07-5.59-.72-1.76-1.76-3.32-3.13-4.7-2.85-2.86-6.27-4.29-10.27-4.29Zm-.22,11.63l-2.37,1.24c-.25-.53-.56-.9-.93-1.11-.37-.21-.71-.32-1.03-.32-1.58,0-2.37,1.05-2.37,3.14,0,.95.2,1.71.6,2.29.4.57.99.86,1.77.86,1.03,0,1.76-.51,2.18-1.52l2.18,1.11c-.46.87-1.11,1.55-1.93,2.05-.82.5-1.73.75-2.72.75-1.58,0-2.86-.49-3.83-1.46-.97-.97-1.45-2.33-1.45-4.07s.49-3.04,1.47-4.03c.98-1,2.22-1.49,3.71-1.49,2.19,0,3.76.86,4.71,2.57Zm10.21,0l-2.34,1.24c-.25-.53-.56-.9-.93-1.11-.37-.21-.72-.32-1.06-.32-1.58,0-2.37,1.05-2.37,3.14,0,.95.2,1.71.6,2.29.4.57.99.86,1.77.86,1.03,0,1.76-.51,2.18-1.52l2.21,1.11c-.48.87-1.14,1.55-1.96,2.05-.82.5-1.72.75-2.69.75-1.6,0-2.88-.49-3.84-1.46-.96-.97-1.44-2.33-1.44-4.07s.49-3.04,1.47-4.03c.98-1,2.22-1.49,3.71-1.49,2.19,0,3.75.86,4.68,2.57Z" fill="navy"/>
  </g>
</svg>