<?xml version="1.0" encoding="UTF-8"?>
<svg id="Layer_1" data-name="Layer 1" xmlns="http://www.w3.org/2000/svg" width="100" height="100" viewBox="0 0 100 100">
  <path d="m76.5,52.4c.09-.41.15-.8.17-1.18v-.03h.01s1.46-1.83,1.46-1.83c1.73-2.2,1.57-3.96,1.13-5.06-.59-1.47-2.07-2.59-3.78-2.83-.23-.03-.45-.05-.67-.05,1.36-1.84,1.76-3.81,1.11-5.44-.56-1.4-1.82-2.37-3.36-2.59-1.16-.17-2.33.1-3.39.75.92-2.4-.06-4.35-1.44-5.43-1.6-1.26-4.03-1.65-5.53-.46-.05-.34-.15-.69-.29-1.05-.72-1.79-2.33-3.12-4.1-3.37-1.3-.18-3.27.11-5.23,2.6l-3.48,4.43-13.11-10.31-.12-.08-17.41-5.24,9.29,15.81,10.42,8.19c-1.96,3.12-4.28,6.92-5.65,9.63-2.42,4.78-2.34,9.26-2.25,10.52l-14.05,16.15.56.49.57.49.82-.94,13.65-15.7-.04-.33s-.5-4.9,2.08-10c1.33-2.63,3.58-6.33,5.5-9.38.14-.22.27-.43.4-.63.14-.22.27-.44.4-.64.44-.68.85-1.31,1.21-1.87.14-.22.28-.43.41-.63.15-.23.28-.44.41-.63.16-.25.3-.47.42-.64.72.32,1.5.67,2.32,1.05.23.1.46.2.7.31.23.11.47.21.71.32.96.44,1.96.9,2.98,1.37.24.11.47.21.71.32.23.11.46.22.7.32.11.06.22.11.33.16.56.26,1.11.52,1.67.78.08.04.16.08.24.11.15.07.3.14.45.22.09.03.17.07.25.11l.39.18s.04.02.06.03c.08.04.17.08.25.12.92.43,1.83.86,2.72,1.28,1.15.55,2.26,1.08,3.3,1.59.23.11.46.22.68.33.01,0,.01.01.02.01.23.11.45.22.67.33.01,0,.01.01.01.01.23.11.46.22.67.33,2.07,1.04,3.7,1.9,4.54,2.45-.22.72-.6,1.35-1.11,1.86-.18.18-.37.34-.58.49-.21.16-.44.29-.69.41-.11.06-.22.11-.33.16-1.03.43-2.23.61-3.56.54-.45-.01-.91-.06-1.39-.13-.4-.06-.81-.14-1.23-.24-.13-.03-.27-.06-.41-.09-.12-.04-.24-.07-.37-.1h-.01c-.25-.08-.5-.15-.76-.24h-.02c-.24-.08-.49-.16-.74-.25-1.87-.67-3.88-1.66-5.98-2.94-.08-.05-.16-.1-.24-.15-.13-.08-.26-.16-.39-.25-.08-.04-.17-.1-.25-.15-.03-.02-.06-.04-.09-.06l-.57.5-.52.45s.03.07.05.11h-.01s.02.03.02.03c.09.19.17.37.24.56.02.04.04.08.05.12.1.24.18.47.25.71.79,2.36.94,4.95.6,7.47-.03.26-.07.52-.11.77-.04.25-.09.5-.14.74-.79,3.83-2.65,7.32-5.01,9.33l.49.57.48.57c2.7-2.31,4.82-6.29,5.62-10.66.63-.17,1.24-.46,1.8-.88-.12.45-.17.89-.15,1.31.06,1.16.6,2.2,1.53,2.94.84.65,1.95,1.03,3.11,1.03,1.49,0,3.06-.63,4.22-2.09.09,1.13.68,2.03,1.42,2.61.79.61,1.82.97,2.9.97.79,0,1.61-.19,2.36-.62l.79.63c-1.38,1.66-2.77,3.22-3.95,4.55-1.35,1.51-2.52,2.82-3.31,3.83-3.32,4.21-7.87,3.39-8.06,3.35l-.55-.11-7.45,14.14-.11.2.66.35.66.35,7.06-13.38c1.52.14,5.76.11,8.97-3.97.76-.98,1.91-2.27,3.25-3.77,1.28-1.43,2.67-3,4.02-4.61l14.03,11.03,4.06-2.37,2.9-3.69,1.28-4.42-15.22-11.96Zm7.11,20.63l-13.2-10.37-.6-.47-.59-.47-.52-.41c.14-.13.26-.28.38-.43l1.01-1.29.5.39.6.47.59.47,13.88,10.91-2.05,1.2Zm-20.47-12.31c-.77-.61-1.03-1.48-.77-2.47.06-.24.16-.49.28-.74.1-.21.22-.43.38-.65.09-.15.21-.31.33-.47l1.02-1.29.46-.59.46-.59,1.83-2.33.46-.58.47-.59,1.34-1.71.46-.59.46-.58.54-.69.46-.58.46-.59,1.74-2.21c.28-.36.75-.55,1.34-.55.13,0,.27.01.42.03.97.14,2.15.79,2.6,1.91.42,1.04.1,2.28-.92,3.58l-.63.81-.5.63-.64.81-.33.42-.46.58-.46.59-1.34,1.7-.47.59h0l-.46.59-1.83,2.33-.46.58h0l-.47.59-1.01,1.29c-.12.16-.25.3-.39.42-.19.19-.4.34-.62.47-.25.15-.51.27-.78.35-1.06.34-2.2.14-2.97-.47Zm-7.14-.89c-1.12-.16-2.05-.81-2.4-1.7-.42-1.05-.06-2.39,1.02-3.76l1.08-1.37.46-.59.46-.59.47-.6c1.06.29,2.09.47,3.05.55.44.04.86.05,1.28.05.38-.01.76-.03,1.12-.07.83-.1,1.61-.3,2.32-.6.24-.1.47-.21.69-.33l-1.6,2.03-.46.59-.47.59-1.37,1.74-.46.59-.47.59-1.07,1.37c-.9,1.15-2.26,1.71-3.65,1.51Zm-4.01-5.73c-.42.54-.92.93-1.46,1.18.24-2.25.1-4.55-.49-6.73h0c-.03-.14-.07-.28-.11-.42.83.48,1.65.92,2.46,1.3.83.41,1.65.76,2.44,1.06l-.42.54-.46.59-1.95,2.48Zm-10.27-20.34s-.28.41-.71,1.07l-8.79-6.91c-.14-.5-.09-.91.13-1.26.38-.59,1.2-.9,1.76-1.02l11.81,9.28-.03.03c-1.81-.82-3.03-1.37-3.24-1.46l-.58-.26-.35.53Zm-17.73-12.1c.59-.25,1.12-.68,1.51-1.22.3-.42.49-.89.56-1.36l8.24,2.48c-.44.67-.9,1.63-.89,2.57l-.13.18c-.82.26-1.7.76-2.2,1.54-.23.37-.46.91-.44,1.63-.31.04-.61.13-.88.29-.62.34-1.04.92-1.32,1.47l-4.45-7.58Zm24.19,10.38l-1.33,1.7-11.91-9.36c-.17-.61.28-1.52.73-2.18l12.51,9.84Zm-17.69-2.96c.14-.08.35-.17.71-.06h.01l8.98,7.07c-.36.55-.76,1.18-1.2,1.87l-9.46-7.43c.17-.5.5-1.19.96-1.45Zm17.07,6.18l.46-.59,1.34-1.7.46-.59.47-.6,3.48-4.43c1.07-1.36,2.25-2.06,3.42-2.06.14,0,.28,0,.42.02,1.42.21,2.49,1.38,2.92,2.45.35.87.31,1.68-.11,2.22l-3.29,4.18-.46.59-.46.59-.54.68-.46.59-.46.59-1.06,1.34c-.61-.29-1.22-.57-1.81-.84l-.16-.13-.03.04c-.24-.11-.47-.22-.7-.32-.24-.12-.47-.22-.7-.33-.47-.21-.92-.42-1.36-.63h-.01c-.57-.26-1.11-.51-1.62-.74l.26-.33Zm13.09,6.58c-1.69-.82-3.51-1.68-5.32-2.54l.8-1.01.46-.59.47-.59.53-.68.46-.59.47-.59,4.38-5.58c.34-.42.91-.63,1.56-.63.76,0,1.64.29,2.35.85.79.61,2.35,2.37,0,5.35l-3.17,4.04-.47.59-.46.58-.53.68-.46.59-.37.47c-.23-.11-.46-.22-.69-.34,0,0,0-.01,0-.01Zm2.82,1.26l.47-.58.53-.69.46-.58.47-.59,3.02-3.85c1-1.27,2.25-1.97,3.48-1.97.15,0,.3.01.45.04,1.01.14,1.83.76,2.18,1.66.49,1.22.11,2.72-1.08,4.23l-3.02,3.84-.47.59-.46.59-.53.68-.46.59-.02-.02c.03-.11.06-.23.08-.35l.1-.45h0s-.37-.29-.37-.29c-.04-.03-.09-.07-.15-.11-.71-.51-2.21-1.33-4.15-2.32l-.53-.42Zm9.21,16.62l-.6-.47-.59-.47-.47-.37,1.83-2.32.29.23.6.47.59.47,14.38,11.29-1.83,2.33-14.2-11.16Zm2.41-3.78l-.6-.47-.6-.47-.12-.09.44-.56h0s.89-1.14.89-1.14l.3.23.61.48,13.98,10.99-.65,2.24-14.26-11.21Z" fill="#3a3a45"/>
</svg>