<?xml version="1.0" encoding="UTF-8"?>
<svg id="Infografika" xmlns="http://www.w3.org/2000/svg" viewBox="0 0 76.535433070857835 76.535433070866929">
  <defs>
    <style>
      .cls-1, .cls-2 {
        stroke-linejoin: round;
      }

      .cls-1, .cls-2, .cls-3 {
        stroke: #ec636b;
        stroke-linecap: round;
        stroke-width: .5px;
      }

      .cls-1, .cls-4 {
        fill: #ffc5cc;
      }

      .cls-2 {
        fill: #ffe8ea;
      }

      .cls-3 {
        fill: #fff;
        stroke-miterlimit: 10;
      }
    </style>
  </defs>
  <circle class="cls-4" cx="38.267716535432555" cy="38.267716535432555" r="31.654466277437759"/>
  <g>
    <rect class="cls-3" x="19.328574689302386" y="6.351551325762923" width="34.571257896023127" height="48.405017664940885"/>
    <rect class="cls-1" x="22.534436224253184" y="9.556003221466359" width="28.001035164181161" height="24.966084256069419"/>
    <g>
      <path class="cls-3" d="M41.57390035123899,22.885256528546961c-2.826171875,0-5.11767578125,2.29119873046875-5.11767578125,5.11761474609375h.07861328125v3.2322998046875h10.15673828125v-3.2322998046875c0-2.826416015625-2.291259765621362-5.11761474609375-5.11767578125-5.11761474609375Z"/>
      <path class="cls-3" d="M44.39763081998899,20.061709165265711c0-1.55938720703125-1.26416015625-2.82354736328125-2.82373046875-2.82354736328125-1.559326171871362,0-2.823486328121362,1.26416015625-2.823486328121362,2.82354736328125s1.26416015625,2.82354736328125,2.823486328121362,2.82354736328125c1.5595703125,0,2.82373046875-1.26416015625,2.82373046875-2.82354736328125Z"/>
    </g>
    <g>
      <path class="cls-3" d="M32.76774800748899,21.613405942609461c-3.52880859375,0-6.389404296871362,2.86065673828125-6.389404296871362,6.38946533203125v3.232327198380517h12.779052734371362v-3.232327198380517c0-3.52880859375-2.86083984375-6.38946533203125-6.3896484375-6.38946533203125Z"/>
      <path class="cls-3" d="M36.29313863248899,18.088137387921961c0-1.9468994140625-1.578369140621362-3.52520751953125-3.525390625-3.52520751953125-1.94677734375,0-3.525146484371362,1.57830810546875-3.525146484371362,3.52520751953125,0,1.94696044921875,1.578369140621362,3.5252685546875,3.525146484371362,3.5252685546875,1.947021484378638,0,3.525390625-1.57830810546875,3.525390625-3.5252685546875Z"/>
    </g>
  </g>
  <g>
    <circle class="cls-2" cx="22.534431900000527" cy="55.546004069620722" r="14.462708954442817"/>
    <g>
      <path class="cls-3" d="M31.563270691149228,57.347639933546816l-2.440315884541633.1575018471558c-.13502625325782.455950333871442-.317248663348437.896568680465862-.543708476179745,1.314705676843005l1.613862192261877,1.837662580233882-2.547265633980714,2.54801971332563-1.837757559689635-1.614616271606792c-.417938402970321.226805192687607-.858562505891314.409041993596475-1.31461069739089.543708476183383l-.157501847148524,2.440315884545271h-3.603179626570636l-.158443007250753-2.440315884545271c-.455665395500546-.134974446285923-.895978656561056-.317202612703113-1.313763077669137-.543708476183383l-1.83681496051031,1.614616271606792-2.547359174359372-2.548868772129936,1.613108112918781-1.836908500888967c-.226531766969856-.417964306448994-.408485068579466-.858591287542367-.542857978291067-1.314610697383614l-2.441164943349577-.158255926500715v-3.602614067058312l2.441164943349577-.157500408069609c.134747071211677-.455888453318039.316684542922303-.896476579175214.542857978291067-1.314610697387252l-1.61301313345939-1.835965901707823,2.547265633980714-2.548963751589326,1.836814960519405,1.613957171721268c.418060724989118-.226422396681301.858703535988752-.408401601787773,1.314705676839367-.542952957752277l.157500408069609-2.441164943349577h3.603368146399589l.157501847161257,2.441164943349577c.45602228800999.134404569529579.896649269099726.316389530962624,1.314610697379976.542952957752277l1.83775755969873-1.613957171721268,2.547265633980714,2.548963751589326-1.613957171719449,1.836060881167214c.226672797069114.418001722602639.40890384164959.858612873784296.543708476179745,1.314610697387252l2.440315884539814.157500408069609-.000094979459391,3.603273166943836Z"/>
      <path class="cls-2" d="M22.534808220138075,52.316110267895056c1.783820739419752.000208666995604,3.22972470950117,1.446450821513281,3.229517481591756,3.230270121854119-.000210106081795,1.783823617584858-1.446450821520557,3.22972470950117-3.230273000021043,3.229517481588118-1.783527166549902-.000207227909414-3.22930881459979-1.445990315041854-3.229516042511023-3.229517481588118-.00026047396932-1.783768932447856,1.445560029311309-3.23000964788298,3.229328961751889-3.230270121854119h.00094259918842Z"/>
    </g>
  </g>
  <g>
    <g id="Layer_1">
      <rect class="cls-2" x="42.818846232199576" y="27.910607504740256" width="24.475233770559498" height="31.715684089671413"/>
    </g>
    <g id="Layer_1_0" data-name="Layer_1 0">
      <path class="cls-3" d="M55.050186536318506,34.488930301386063h.010632990841259v.773316302820604h-.010632990841259v-.773316302820604ZM56.807400001938731,52.142762286848665l-.5788055071298.905429628499405-.239120609800011.000084072755271h-2.069640353889554l-.115971725801501-.170682438721997-.499264570258674-.73485633686505-.040200050709245.001087045948225c-.431902382930275,0-.899981124101032-.080109534166695-.899981124101032-.694039752634126h.001522159320302c0-.032152665760805-.002320113000678-.161862174434646-.005401305661508-.312982210936752-.002767026049696-.13554592770015-.006367404839693-.292200016308925-.00959388111005-.410019867718802l-.01089848374977-1.849232441625645h5.429079901980003l-.008047384939346,1.8461999226638-.01482630378996.726036072577699h.001354013820674c0,.613894819412963-.468090540849516.694039752637764-.899981124110127.694039752637764l-.04023544975098-.001063446579792h.000011799680578Z"/>
      <path class="cls-3" d="M58.044806383768446,46.716100582734725c-.035717645489058.21731036764686-.073307015958562.445737513211498-.100409416680122.598633402256382l-.038943384279264.320317189914931-.341667244369091-.000120946766401h-5.338431036971087l-.056789669861246-.32019624314853c-.027101663239591-.152897364005184-.064691771189246-.381336309255857-.100408679198154-.598633402256382-.173908914999629-1.05728862025353-.292550319451038-1.77858711943918-.997997417242004-2.86541772522105-.351925595219654-.542387992845761-.702027401679516-1.108652647617419-.969457667428287-1.726776179020817-.274945927410954-.635535441095271-.457336603240037-1.313686918325402-.457336603240037-2.053665793297114h.001510359630629c-.000168882979779-1.5271550136531.603901961458178-2.919331959426927,1.579860517667839-3.93019730153901.975994692731547-1.010937983919575,2.324383008712175-1.642220007430296,3.814430964001076-1.649554248931963v-.000060473383201l.005376968809287-.000084441497165h.00149855995187l.005908692099183-.000084441493527.004543616068986-.000060473383201.004531078920991.000060473383201.005920491779762.000084441493527h.001486760271291l.005376231329137.000084441497165v.000060473383201c1.490059754969479.007334241501667,2.838424471579856.638616265012388,3.814442763679835,1.649554617670219.97593421935926,1.010865710853977,1.580017600968858,2.403042656631442,1.579847980499835,3.930196932800754h.001522159320302c0,.739991412137897-.182402475520576,1.41813108968563-.457348402920616,2.053665793297114-.267431003239835.618123531403398-.617532072208633,1.184387448694906-.969457667430106,1.726776179020817-.705447097790966,1.08683060578187-.824088502249651,1.808118780241784-.997984880079457,2.86541772522105h-.000025074330551Z"/>
    </g>
  </g>
</svg>