<?xml version="1.0" encoding="UTF-8"?>
<svg id="Infografika" xmlns="http://www.w3.org/2000/svg" viewBox="0 0 76.535433070859654 76.535433070866929">
  <defs>
    <style>
      .cls-1, .cls-2, .cls-3, .cls-4, .cls-5, .cls-6, .cls-7, .cls-8 {
        stroke: #aa3c69;
        stroke-width: .5px;
      }

      .cls-1, .cls-2, .cls-3, .cls-4, .cls-6 {
        stroke-linejoin: round;
      }

      .cls-1, .cls-5, .cls-6, .cls-8, .cls-9 {
        fill: #e8b8cc;
      }

      .cls-1, .cls-8 {
        stroke-linecap: square;
      }

      .cls-2 {
        fill: none;
      }

      .cls-2, .cls-3, .cls-4, .cls-5, .cls-6, .cls-7 {
        stroke-linecap: round;
      }

      .cls-3 {
        fill: #e5cad7;
      }

      .cls-4, .cls-7 {
        fill: #fff;
      }

      .cls-5, .cls-7, .cls-8 {
        stroke-miterlimit: 10;
      }
    </style>
  </defs>
  <circle class="cls-9" cx="38.267716535434374" cy="38.267716535426189" r="31.654466277437304"/>
  <rect class="cls-5" x="20.305632849604137" y="19.736317714584121" width="28.347599276741562" height="39.690949281515373"/>
  <g>
    <circle class="cls-3" cx="56.053104145137695" cy="53.716723502597233" r="14.134931147254974"/>
    <g>
      <rect class="cls-4" x="54.44496582332431" y="47.33957708008893" width="3.023884101679869" height="3.641194068693039" rx=".150723298981934" ry=".150723298981934" transform="translate(111.91381574947809 98.320348227562349) rotate(180)"/>
      <circle class="cls-4" cx="55.956907993029745" cy="45.405315565320052" r="2.942204170515652"/>
      <circle class="cls-4" cx="55.956907993039749" cy="45.40531556533324" r="1.279991285089864"/>
      <path class="cls-2" d="M57.826830311340018,53.046345144495717l1.605539817210229,1.83487049408177c.06266480594968.071615666101934.066767443709978.177281582646174.009844087908277.253540438552591l-2.165299341188074,2.900799648368775"/>
      <path class="cls-2" d="M54.279377978840785,53.046345144630322l-1.605539817121098,1.834870494154529c-.062664805969689.07161566610921-.066767443689969.17728158265345-.009844087910096.25354043855441l2.165299341389982,2.900799648294196"/>
      <g>
        <rect class="cls-4" x="53.349472767409679" y="59.954988132480139" width="5.526249074589941" height="4.320591240608337"/>
        <line class="cls-4" x1="53.469566649320768" y1="61.044128643028671" x2="58.770287346498662" y2="61.044128643028671"/>
      </g>
      <rect class="cls-4" x="53.469580391864817" y="50.980771155368899" width="4.974682587715556" height="2.238435309663998" rx="1.119216805304816" ry="1.119216805304816" transform="translate(111.913835823821969 104.199985726770137) rotate(-179.999991722357379)"/>
    </g>
  </g>
  <rect class="cls-7" x="17.677479388933136" y="17.108166074759257" width="28.347599276737014" height="39.690949281515373"/>
  <rect class="cls-6" x="20.306208676214048" y="19.735739491793833" width="22.960174794781338" height="20.471588107348314"/>
  <line class="cls-1" x1="20.30621320723003" y1="43.05143064731601" x2="43.266388002000895" y2="43.05142269368298"/>
  <line class="cls-8" x1="20.306214192449261" y1="45.895529718667603" x2="43.266388987220125" y2="45.895521765032754"/>
  <line class="cls-8" x1="20.306215177668491" y1="48.739628790019196" x2="43.26638997245027" y2="48.739620836384347"/>
  <line class="cls-8" x1="20.306216162898636" y1="51.583727861378065" x2="31.030839744469631" y2="51.583724146265013"/>
  <rect class="cls-4" x="29.858572940034602" y="28.688977934146092" width="3.855452018415466" height="8.677817913785088"/>
  <circle class="cls-4" cx="31.786296073605627" cy="24.726622669470544" r="2.150352094264137"/>
  <g>
    <rect class="cls-3" x="38.031299883950851" y="14.118990636527087" width="28.545556306467915" height="19.667607428151314"/>
    <g>
      <rect class="cls-4" x="42.814889816620052" y="17.599007593486022" width="2.526650165500541" height="2.057746495147512"/>
      <rect class="cls-4" x="59.266616092259937" y="17.599007593486022" width="2.526650165489627" height="2.057746495147512"/>
      <g>
        <circle class="cls-4" cx="57.479265589159695" cy="29.123145442925761" r="1.183435888016675"/>
        <circle class="cls-4" cx="60.929390773049818" cy="29.123145442925761" r="1.183435888017584"/>
      </g>
      <circle class="cls-4" cx="47.128890037489327" cy="29.123145443385056" r="1.183807168172507"/>
      <circle class="cls-4" cx="43.678764853601933" cy="29.123145443538306" r="1.183435664176159"/>
      <rect class="cls-4" x="41.574687892440124" y="18.863627573527992" width="21.458780289489368" height="9.525995207786764"/>
      <g>
        <line class="cls-4" x1="44.564880257999903" y1="20.689664196535887" x2="44.564880257999903" y2="26.563042706187844"/>
        <line class="cls-4" x1="47.660384040100325" y1="20.689664196535887" x2="47.660384040100325" y2="26.563042706187844"/>
        <line class="cls-4" x1="50.755887822200748" y1="20.689664196535887" x2="50.755887822200748" y2="26.563042706187844"/>
        <line class="cls-4" x1="53.851391604299351" y1="20.689664196535887" x2="53.851391604299351" y2="26.563042706187844"/>
        <line class="cls-4" x1="56.946895386399774" y1="20.689664196535887" x2="56.946895386399774" y2="26.563042706187844"/>
        <line class="cls-4" x1="60.042399168509291" y1="20.689664196535887" x2="60.042399168509291" y2="26.563042706187844"/>
      </g>
    </g>
  </g>
</svg>