<svg id="Infografika" xmlns="http://www.w3.org/2000/svg" viewBox="0 0 740 540.96"><defs><style>.cls-1,.cls-4{fill:#1c4184;}.cls-2{fill:#5c5c5c;}.cls-3{fill:#f77189;}.cls-4,.cls-5,.cls-6{stroke:#fff;}.cls-4,.cls-5{stroke-miterlimit:10;stroke-width:1.3px;}.cls-5{fill:#d1d3d4;}.cls-6{fill:#fff;}</style></defs><path class="cls-1" d="M407,133.59h-6.16v5H408v1.53h-9V125.94h8.93v1.53h-7.06v4.58H407Z"/><path class="cls-1" d="M411.74,129.59l.05,1.18a3.87,3.87,0,0,1,3.13-1.37,3,3,0,0,1,3,1.7,3.93,3.93,0,0,1,3.37-1.7q3.48,0,3.54,3.68v7.08H423v-7a2.42,2.42,0,0,0-.52-1.7,2.28,2.28,0,0,0-1.74-.56,2.41,2.41,0,0,0-1.67.6,2.44,2.44,0,0,0-.77,1.62v7h-1.81v-6.92a2,2,0,0,0-2.26-2.31,2.43,2.43,0,0,0-2.43,1.51v7.72H410V129.59Z"/><path class="cls-1" d="M427.58,126.79a1.07,1.07,0,0,1,.27-.74,1,1,0,0,1,.8-.3,1,1,0,0,1,.8.3,1.07,1.07,0,0,1,.27.74,1,1,0,0,1-.27.73,1,1,0,0,1-.8.3,1,1,0,0,1-.8-.3A1,1,0,0,1,427.58,126.79Zm1.95,13.37h-1.8V129.59h1.8Z"/><path class="cls-1" d="M438.58,137.36a1.35,1.35,0,0,0-.55-1.14,5.42,5.42,0,0,0-1.93-.7,9.16,9.16,0,0,1-2.18-.7,3.21,3.21,0,0,1-1.19-1,2.4,2.4,0,0,1-.38-1.35,2.72,2.72,0,0,1,1.1-2.19,4.26,4.26,0,0,1,2.8-.9,4.43,4.43,0,0,1,2.92.93,2.94,2.94,0,0,1,1.12,2.37h-1.82a1.63,1.63,0,0,0-.63-1.28,2.36,2.36,0,0,0-1.59-.54,2.52,2.52,0,0,0-1.54.43,1.37,1.37,0,0,0-.56,1.13,1.1,1.1,0,0,0,.52,1,6.71,6.71,0,0,0,1.87.64,9.67,9.67,0,0,1,2.19.72,3.25,3.25,0,0,1,1.25,1,2.47,2.47,0,0,1,.4,1.44,2.69,2.69,0,0,1-1.13,2.27,4.73,4.73,0,0,1-2.94.86,5.27,5.27,0,0,1-2.24-.45,3.61,3.61,0,0,1-1.53-1.26,3,3,0,0,1-.55-1.74h1.8a1.89,1.89,0,0,0,.73,1.44,2.84,2.84,0,0,0,1.79.53,3,3,0,0,0,1.65-.41A1.29,1.29,0,0,0,438.58,137.36Z"/><path class="cls-1" d="M447.12,140.36a4.6,4.6,0,0,1-3.49-1.42,5.23,5.23,0,0,1-1.35-3.77v-.33a6.34,6.34,0,0,1,.6-2.81,4.66,4.66,0,0,1,1.68-1.93,4.19,4.19,0,0,1,2.34-.7,3.94,3.94,0,0,1,3.2,1.36,5.87,5.87,0,0,1,1.14,3.88v.75h-7.15a3.73,3.73,0,0,0,.91,2.53,2.86,2.86,0,0,0,2.22,1,3.13,3.13,0,0,0,1.62-.39,4.08,4.08,0,0,0,1.16-1l1.11.86A4.46,4.46,0,0,1,447.12,140.36Zm-.22-9.48a2.43,2.43,0,0,0-1.84.8,3.91,3.91,0,0,0-.92,2.23h5.3v-.14a3.44,3.44,0,0,0-.75-2.13A2.24,2.24,0,0,0,446.9,130.88Z"/><path class="cls-1" d="M464.44,137.36a1.33,1.33,0,0,0-.56-1.14,5.27,5.27,0,0,0-1.92-.7,9.16,9.16,0,0,1-2.18-.7,3.21,3.21,0,0,1-1.19-1,2.4,2.4,0,0,1-.38-1.35,2.74,2.74,0,0,1,1.09-2.19,4.31,4.31,0,0,1,2.81-.9,4.43,4.43,0,0,1,2.92.93,2.94,2.94,0,0,1,1.12,2.37h-1.82a1.63,1.63,0,0,0-.63-1.28,2.36,2.36,0,0,0-1.59-.54,2.52,2.52,0,0,0-1.54.43,1.37,1.37,0,0,0-.56,1.13,1.1,1.1,0,0,0,.52,1,6.71,6.71,0,0,0,1.87.64,9.67,9.67,0,0,1,2.19.72,3.25,3.25,0,0,1,1.25,1,2.47,2.47,0,0,1,.4,1.44,2.69,2.69,0,0,1-1.13,2.27,4.73,4.73,0,0,1-2.94.86,5.35,5.35,0,0,1-2.25-.45,3.58,3.58,0,0,1-1.52-1.26,3,3,0,0,1-.56-1.74h1.81a1.89,1.89,0,0,0,.73,1.44,2.84,2.84,0,0,0,1.79.53,3,3,0,0,0,1.65-.41A1.29,1.29,0,0,0,464.44,137.36Z"/><path class="cls-1" d="M471.05,127v2.56h2V131h-2v6.56a1.49,1.49,0,0,0,.26.95,1.1,1.1,0,0,0,.9.32,4.23,4.23,0,0,0,.86-.12v1.46a5.3,5.3,0,0,1-1.39.2,2.25,2.25,0,0,1-1.82-.74,3.15,3.15,0,0,1-.62-2.08V131h-1.92v-1.4h1.92V127Z"/><path class="cls-1" d="M481.65,140.16a3.81,3.81,0,0,1-.25-1.11,4,4,0,0,1-3,1.31,3.73,3.73,0,0,1-2.56-.89,2.84,2.84,0,0,1-1-2.24,3,3,0,0,1,1.25-2.56,5.93,5.93,0,0,1,3.53-.92h1.76v-.83a2,2,0,0,0-.57-1.51,2.28,2.28,0,0,0-1.67-.56,2.69,2.69,0,0,0-1.62.49,1.46,1.46,0,0,0-.65,1.18H475a2.56,2.56,0,0,1,.56-1.53,3.84,3.84,0,0,1,1.53-1.16,5,5,0,0,1,2.11-.43,4.16,4.16,0,0,1,2.86.91,3.32,3.32,0,0,1,1.08,2.52v4.86a5.87,5.87,0,0,0,.37,2.31v.16Zm-3-1.38a3.13,3.13,0,0,0,1.61-.44,2.68,2.68,0,0,0,1.1-1.14V135H480c-2.21,0-3.32.65-3.32,1.95a1.63,1.63,0,0,0,.57,1.32A2.18,2.18,0,0,0,478.66,138.78Zm1.67-13.62h2.18L479.9,128h-1.46Z"/><path class="cls-1" d="M488.46,127v2.56h2V131h-2v6.56a1.49,1.49,0,0,0,.26.95,1.1,1.1,0,0,0,.9.32,4.23,4.23,0,0,0,.86-.12v1.46a5.25,5.25,0,0,1-1.39.2,2.25,2.25,0,0,1-1.82-.74,3.15,3.15,0,0,1-.62-2.08V131h-1.92v-1.4h1.92V127Z"/><path class="cls-1" d="M499.07,139.11a3.85,3.85,0,0,1-3.1,1.25,3.26,3.26,0,0,1-2.57-1,4.24,4.24,0,0,1-.9-2.9v-6.88h1.81v6.83q0,2.4,1.95,2.4a2.71,2.71,0,0,0,2.76-1.54v-7.69h1.8v10.57H499.1Zm-.26-12.81a1.87,1.87,0,0,1-.6,1.42,2.13,2.13,0,0,1-1.5.57,2.09,2.09,0,0,1-1.5-.57,1.9,1.9,0,0,1-.6-1.42,1.93,1.93,0,0,1,.6-1.43,2.17,2.17,0,0,1,3,0A1.93,1.93,0,0,1,498.81,126.3Zm-3.23,0a1.07,1.07,0,0,0,.33.79,1,1,0,0,0,.8.34,1.09,1.09,0,0,0,.8-.33,1.06,1.06,0,0,0,.33-.8,1.09,1.09,0,0,0-.32-.81,1.13,1.13,0,0,0-1.62,0A1.17,1.17,0,0,0,495.58,126.3Z"/><path class="cls-1" d="M514,137.24a.92.92,0,0,0-.51-.82,6.49,6.49,0,0,0-1.65-.53c-2.51-.53-3.77-1.59-3.77-3.2a2.9,2.9,0,0,1,1.17-2.35,4.69,4.69,0,0,1,3.05-.94,5,5,0,0,1,3.22.95,3,3,0,0,1,1.2,2.46h-2.82a1.35,1.35,0,0,0-.39-1,1.63,1.63,0,0,0-1.22-.4,1.7,1.7,0,0,0-1.1.32,1,1,0,0,0-.39.82.86.86,0,0,0,.44.76,4.68,4.68,0,0,0,1.5.5,13.6,13.6,0,0,1,1.78.47,2.91,2.91,0,0,1,2.23,2.84,2.74,2.74,0,0,1-1.24,2.34,5.32,5.32,0,0,1-3.2.9,5.53,5.53,0,0,1-2.36-.48,3.9,3.9,0,0,1-1.62-1.3,3,3,0,0,1-.58-1.78h2.67a1.49,1.49,0,0,0,.56,1.15,2.21,2.21,0,0,0,1.39.4,2.05,2.05,0,0,0,1.22-.3A1,1,0,0,0,514,137.24Z"/><path class="cls-1" d="M523.38,140.36a5.18,5.18,0,0,1-3.78-1.43,5,5,0,0,1-1.46-3.8v-.27a6.41,6.41,0,0,1,.61-2.85,4.44,4.44,0,0,1,1.75-1.93,4.82,4.82,0,0,1,2.57-.68,4.36,4.36,0,0,1,3.41,1.37,5.54,5.54,0,0,1,1.25,3.87v1.15H521a2.64,2.64,0,0,0,.82,1.66,2.49,2.49,0,0,0,1.75.63,3.06,3.06,0,0,0,2.55-1.18l1.38,1.55a4.12,4.12,0,0,1-1.72,1.4A5.55,5.55,0,0,1,523.38,140.36Zm-.32-8.69a1.76,1.76,0,0,0-1.36.57,3,3,0,0,0-.67,1.63H525v-.22a2.11,2.11,0,0,0-.5-1.46A1.85,1.85,0,0,0,523.06,131.67Z"/><path class="cls-1" d="M537.55,137.88h5.17v2.28H534v-1.72l5-6.57h-4.83v-2.28h8.47v1.67Z"/><path class="cls-1" d="M550.61,140.16a2.89,2.89,0,0,1-.28-.95,3.45,3.45,0,0,1-2.67,1.15,3.73,3.73,0,0,1-2.57-.9,2.9,2.9,0,0,1-1-2.27,3,3,0,0,1,1.24-2.58,6.16,6.16,0,0,1,3.6-.91h1.3v-.6a1.73,1.73,0,0,0-.38-1.17,1.44,1.44,0,0,0-1.18-.44,1.67,1.67,0,0,0-1.12.34,1.17,1.17,0,0,0-.41.94H544.3a2.81,2.81,0,0,1,.57-1.7,3.74,3.74,0,0,1,1.6-1.23,5.92,5.92,0,0,1,2.32-.44,4.63,4.63,0,0,1,3.1,1,3.41,3.41,0,0,1,1.15,2.76v4.58a5.12,5.12,0,0,0,.42,2.27v.17Zm-2.34-2a2.52,2.52,0,0,0,1.16-.28,1.89,1.89,0,0,0,.78-.75v-1.81h-1.06c-1.41,0-2.16.48-2.25,1.46V137a1.13,1.13,0,0,0,.37.87A1.47,1.47,0,0,0,548.27,138.2Zm1.08-13h3.07l-2.7,3h-2.3Z"/><path class="cls-1" d="M559.16,136.71l2-7.12h3l-3.57,10.57h-2.69l-3.57-10.57h3Z"/><path class="cls-1" d="M571.29,140.16a3.15,3.15,0,0,1-.28-.95,3.42,3.42,0,0,1-2.67,1.15,3.75,3.75,0,0,1-2.57-.9,2.9,2.9,0,0,1-1-2.27,3,3,0,0,1,1.24-2.58,6.16,6.16,0,0,1,3.6-.91h1.3v-.6a1.73,1.73,0,0,0-.37-1.17,1.48,1.48,0,0,0-1.19-.44,1.67,1.67,0,0,0-1.12.34,1.16,1.16,0,0,0-.4.94H565a2.81,2.81,0,0,1,.57-1.7,3.8,3.8,0,0,1,1.6-1.23,6,6,0,0,1,2.33-.44,4.64,4.64,0,0,1,3.1,1,3.43,3.43,0,0,1,1.14,2.76v4.58a5.12,5.12,0,0,0,.42,2.27v.17Zm-2.33-2a2.47,2.47,0,0,0,1.15-.28,1.89,1.89,0,0,0,.78-.75v-1.81h-1c-1.42,0-2.17.48-2.26,1.46V137a1.16,1.16,0,0,0,.37.87A1.49,1.49,0,0,0,569,138.2Z"/><path class="cls-1" d="M579.13,137.88h5.17v2.28h-8.77v-1.72l5-6.57h-4.82v-2.28h8.46v1.67Z"/><path class="cls-1" d="M589.91,135.92l-1,1v3.22h-2.82v-15h2.82v8.31l.55-.7,2.7-3.18h3.39L591.71,134l4.15,6.16h-3.24Z"/><path class="cls-1" d="M601.61,140.36a5.18,5.18,0,0,1-3.78-1.43,5.09,5.09,0,0,1-1.46-3.8v-.27A6.42,6.42,0,0,1,597,132a4.48,4.48,0,0,1,1.74-1.93,4.82,4.82,0,0,1,2.57-.68,4.34,4.34,0,0,1,3.41,1.37,5.49,5.49,0,0,1,1.25,3.87v1.15h-6.73a2.6,2.6,0,0,0,.83,1.66,2.48,2.48,0,0,0,1.74.63,3,3,0,0,0,2.55-1.18l1.39,1.55a4.25,4.25,0,0,1-1.72,1.4A5.63,5.63,0,0,1,601.61,140.36Zm-.32-8.69a1.76,1.76,0,0,0-1.36.57,3,3,0,0,0-.67,1.63h3.93v-.22a2.16,2.16,0,0,0-.51-1.46A1.85,1.85,0,0,0,601.29,131.67Z"/><path class="cls-1" d="M610.21,129.59l.09,1.18a3.73,3.73,0,0,1,3-1.37,2.84,2.84,0,0,1,2.81,1.61,3.63,3.63,0,0,1,3.17-1.61,3.14,3.14,0,0,1,2.56,1,4.6,4.6,0,0,1,.84,3v6.75h-2.83v-6.74a2,2,0,0,0-.36-1.31,1.53,1.53,0,0,0-1.24-.42,1.76,1.76,0,0,0-1.75,1.21v7.26h-2.83v-6.73a2,2,0,0,0-.36-1.33,1.58,1.58,0,0,0-1.23-.41,1.83,1.83,0,0,0-1.74,1v7.47h-2.82V129.59Z"/><path class="cls-1" d="M401.62,157.44l-1.13,1.18v3.71h-1.81v-15h1.81v9.07l1-1.16,3.29-3.47H407l-4.12,4.41,4.59,6.15h-2.11Z"/><path class="cls-1" d="M420.29,161.29a3.88,3.88,0,0,1-3.1,1.24,3.29,3.29,0,0,1-2.57-1,4.29,4.29,0,0,1-.9-2.91v-6.87h1.81v6.82q0,2.4,2,2.4a2.71,2.71,0,0,0,2.76-1.54v-7.68H422v10.56h-1.72Z"/><path class="cls-1" d="M426.59,153.05a3.85,3.85,0,0,1,3.13-1.48q3.34,0,3.38,3.78v7h-1.81v-7a2.42,2.42,0,0,0-.52-1.69,2.11,2.11,0,0,0-1.6-.55,2.62,2.62,0,0,0-1.54.47,3.36,3.36,0,0,0-1,1.23v7.53h-1.8v-15h1.8Z"/><path class="cls-1" d="M437.77,162.33H436v-15h1.81Z"/><path class="cls-1" d="M442.64,147.34h2.19l-2.62,2.87h-1.45Zm0,15H440.8V151.77h1.82Z"/><path class="cls-1" d="M448.55,157.44l-1.13,1.18v3.71h-1.81v-15h1.81v9.07l1-1.16,3.29-3.47h2.2l-4.11,4.41,4.59,6.15h-2.12Z"/><path class="cls-1" d="M455.26,157a6.21,6.21,0,0,1,.61-2.79,4.49,4.49,0,0,1,1.7-1.92,4.67,4.67,0,0,1,2.48-.67,4.45,4.45,0,0,1,3.49,1.5,5.73,5.73,0,0,1,1.34,4v.13a6.39,6.39,0,0,1-.59,2.77,4.53,4.53,0,0,1-1.69,1.9,4.68,4.68,0,0,1-2.53.69,4.44,4.44,0,0,1-3.48-1.5,5.69,5.69,0,0,1-1.33-3.95Zm1.81.22a4.48,4.48,0,0,0,.82,2.82,2.77,2.77,0,0,0,4.37,0,4.93,4.93,0,0,0,.81-3,4.52,4.52,0,0,0-.83-2.82,2.75,2.75,0,0,0-4.35,0A5,5,0,0,0,457.07,157.17Z"/><path class="cls-1" d="M470.48,159.88l2.62-8.11h1.84l-3.78,10.56h-1.38L466,151.77h1.85Z"/><path class="cls-1" d="M481.07,162.53a4.62,4.62,0,0,1-3.5-1.41,5.24,5.24,0,0,1-1.35-3.78V157a6.37,6.37,0,0,1,.6-2.81,4.66,4.66,0,0,1,1.68-1.93,4.19,4.19,0,0,1,2.34-.7,4,4,0,0,1,3.21,1.36,5.88,5.88,0,0,1,1.14,3.89v.75H478a3.78,3.78,0,0,0,.91,2.52,2.9,2.9,0,0,0,2.23,1,3.19,3.19,0,0,0,1.62-.39,4,4,0,0,0,1.16-1l1.1.86A4.43,4.43,0,0,1,481.07,162.53Zm-.23-9.47a2.39,2.39,0,0,0-1.83.79,3.87,3.87,0,0,0-.92,2.23h5.29V156a3.47,3.47,0,0,0-.74-2.14A2.27,2.27,0,0,0,480.84,153.06Zm.88-5.73h2.19l-2.62,2.87h-1.45Z"/><path class="cls-1" d="M493.94,151.77l.06,1.32a3.85,3.85,0,0,1,3.16-1.52q3.34,0,3.38,3.78v7h-1.81v-7a2.42,2.42,0,0,0-.52-1.69,2.11,2.11,0,0,0-1.6-.55,2.62,2.62,0,0,0-1.54.47,3.24,3.24,0,0,0-1,1.23v7.53h-1.81V151.77Z"/><path class="cls-1" d="M507.65,162.53a4.63,4.63,0,0,1-3.5-1.41,5.27,5.27,0,0,1-1.34-3.78V157a6.37,6.37,0,0,1,.6-2.81,4.66,4.66,0,0,1,1.68-1.93,4.19,4.19,0,0,1,2.33-.7,4,4,0,0,1,3.21,1.36,5.88,5.88,0,0,1,1.14,3.89v.75h-7.16a3.73,3.73,0,0,0,.92,2.52,2.86,2.86,0,0,0,2.22,1,3.16,3.16,0,0,0,1.62-.39,4,4,0,0,0,1.16-1l1.1.86A4.43,4.43,0,0,1,507.65,162.53Zm-.23-9.47a2.4,2.4,0,0,0-1.83.79,3.87,3.87,0,0,0-.92,2.23H510V156a3.47,3.47,0,0,0-.74-2.14A2.27,2.27,0,0,0,507.42,153.06Z"/><path class="cls-1" d="M520.38,161.29a3.84,3.84,0,0,1-3.09,1.24,3.31,3.31,0,0,1-2.58-1,4.34,4.34,0,0,1-.89-2.91v-6.87h1.81v6.82q0,2.4,2,2.4a2.71,2.71,0,0,0,2.76-1.54v-7.68h1.8v10.56h-1.72Z"/><path class="cls-1" d="M527.34,149.21v2.56h2v1.39h-2v6.56a1.45,1.45,0,0,0,.26,1,1.13,1.13,0,0,0,.9.31,4.16,4.16,0,0,0,.86-.11v1.45a5.3,5.3,0,0,1-1.39.2,2.26,2.26,0,0,1-1.82-.73,3.17,3.17,0,0,1-.62-2.08v-6.56h-1.92v-1.39h1.92v-2.56Z"/><path class="cls-1" d="M536.53,153.39a5,5,0,0,0-.89-.07,2.37,2.37,0,0,0-2.41,1.51v7.5h-1.81V151.77h1.76l0,1.22a2.8,2.8,0,0,1,2.52-1.42,1.88,1.88,0,0,1,.8.14Z"/><path class="cls-1" d="M544.32,162.33a3.5,3.5,0,0,1-.25-1.11,4.05,4.05,0,0,1-3,1.31,3.75,3.75,0,0,1-2.57-.89,2.86,2.86,0,0,1-1-2.24,3,3,0,0,1,1.26-2.56,5.91,5.91,0,0,1,3.53-.91H544v-.83a2,2,0,0,0-.57-1.51,2.25,2.25,0,0,0-1.67-.56,2.68,2.68,0,0,0-1.62.48,1.45,1.45,0,0,0-.66,1.19h-1.81a2.51,2.51,0,0,1,.56-1.53,3.85,3.85,0,0,1,1.52-1.17,5.09,5.09,0,0,1,2.12-.43,4.21,4.21,0,0,1,2.86.91,3.28,3.28,0,0,1,1.07,2.52v4.86a6.15,6.15,0,0,0,.37,2.32v.15Zm-3-1.37a3.2,3.2,0,0,0,1.61-.44,2.72,2.72,0,0,0,1.11-1.15v-2.16h-1.42c-2.21,0-3.32.64-3.32,1.94a1.64,1.64,0,0,0,.57,1.33A2.15,2.15,0,0,0,541.32,161Z"/><path class="cls-1" d="M550.64,162.33h-1.81v-15h1.81Z"/><path class="cls-1" d="M553.54,149a1.07,1.07,0,0,1,.27-.74,1,1,0,0,1,.79-.3,1.06,1.06,0,0,1,.8,1.78,1.06,1.06,0,0,1-.8.29,1,1,0,0,1-.79-.29A1.05,1.05,0,0,1,553.54,149Zm2,13.37h-1.81V151.77h1.81Z"/><path class="cls-1" d="M560.83,149.21v2.56h2v1.39h-2v6.56a1.45,1.45,0,0,0,.27,1,1.1,1.1,0,0,0,.9.31,4.08,4.08,0,0,0,.85-.11v1.45a5.17,5.17,0,0,1-1.38.2,2.28,2.28,0,0,1-1.83-.73,3.16,3.16,0,0,1-.61-2.08v-6.56H557.1v-1.39H559v-2.56Z"/><path class="cls-1" d="M569.3,162.53a4.63,4.63,0,0,1-3.5-1.41,5.27,5.27,0,0,1-1.34-3.78V157a6.37,6.37,0,0,1,.6-2.81,4.66,4.66,0,0,1,1.68-1.93,4.19,4.19,0,0,1,2.34-.7,3.94,3.94,0,0,1,3.2,1.36,5.88,5.88,0,0,1,1.14,3.89v.75h-7.16a3.73,3.73,0,0,0,.92,2.52,2.86,2.86,0,0,0,2.22,1,3.13,3.13,0,0,0,1.62-.39,4,4,0,0,0,1.16-1l1.1.86A4.43,4.43,0,0,1,569.3,162.53ZM569.06,149l1.46-1.66h1.56v.1l-2.48,2.68h-1.1l-2.45-2.68v-.1h1.53Zm0,4.07a2.41,2.41,0,0,0-1.84.79,3.87,3.87,0,0,0-.92,2.23h5.29V156a3.47,3.47,0,0,0-.74-2.14A2.27,2.27,0,0,0,569.08,153.06Z"/><path class="cls-2" d="M121.09,133.59h-6.16v5h7.16v1.53h-9V125.94H122v1.53h-7.06v4.58h6.16Z"/><path class="cls-2" d="M125.84,129.59l0,1.18A3.87,3.87,0,0,1,129,129.4a3,3,0,0,1,3,1.7,3.93,3.93,0,0,1,3.37-1.7q3.48,0,3.54,3.68v7.08h-1.81v-7a2.42,2.42,0,0,0-.52-1.7,2.28,2.28,0,0,0-1.74-.56,2.41,2.41,0,0,0-1.67.6,2.44,2.44,0,0,0-.77,1.62v7h-1.81v-6.92a2,2,0,0,0-2.26-2.31,2.41,2.41,0,0,0-2.43,1.51v7.72h-1.81V129.59Z"/><path class="cls-2" d="M141.68,126.79a1.07,1.07,0,0,1,.27-.74,1,1,0,0,1,.79-.3,1,1,0,0,1,.81.3,1.07,1.07,0,0,1,.27.74,1,1,0,0,1-.27.73,1,1,0,0,1-.81.3,1,1,0,0,1-.79-.3A1,1,0,0,1,141.68,126.79Zm1.95,13.37h-1.8V129.59h1.8Z"/><path class="cls-2" d="M152.68,137.36a1.33,1.33,0,0,0-.56-1.14,5.27,5.27,0,0,0-1.92-.7,9.16,9.16,0,0,1-2.18-.7,3.21,3.21,0,0,1-1.19-1,2.33,2.33,0,0,1-.38-1.35,2.74,2.74,0,0,1,1.09-2.19,4.31,4.31,0,0,1,2.81-.9,4.43,4.43,0,0,1,2.92.93,2.94,2.94,0,0,1,1.12,2.37h-1.82a1.63,1.63,0,0,0-.63-1.28,2.36,2.36,0,0,0-1.59-.54,2.49,2.49,0,0,0-1.54.43,1.37,1.37,0,0,0-.56,1.13,1.08,1.08,0,0,0,.52,1,6.71,6.71,0,0,0,1.87.64,9.67,9.67,0,0,1,2.19.72,3.25,3.25,0,0,1,1.25,1,2.47,2.47,0,0,1,.4,1.44,2.69,2.69,0,0,1-1.13,2.27,4.75,4.75,0,0,1-2.94.86,5.35,5.35,0,0,1-2.25-.45,3.58,3.58,0,0,1-1.52-1.26,3,3,0,0,1-.56-1.74h1.81a1.89,1.89,0,0,0,.73,1.44,2.84,2.84,0,0,0,1.79.53,3,3,0,0,0,1.65-.41A1.29,1.29,0,0,0,152.68,137.36Z"/><path class="cls-2" d="M161.22,140.36a4.6,4.6,0,0,1-3.49-1.42,5.23,5.23,0,0,1-1.35-3.77v-.33A6.34,6.34,0,0,1,157,132a4.66,4.66,0,0,1,1.68-1.93,4.19,4.19,0,0,1,2.34-.7,3.94,3.94,0,0,1,3.2,1.36,5.87,5.87,0,0,1,1.14,3.88v.75h-7.16a3.74,3.74,0,0,0,.92,2.53,2.86,2.86,0,0,0,2.22,1,3.13,3.13,0,0,0,1.62-.39,4.08,4.08,0,0,0,1.16-1l1.11.86A4.46,4.46,0,0,1,161.22,140.36Zm-.22-9.48a2.43,2.43,0,0,0-1.84.8,3.91,3.91,0,0,0-.92,2.23h5.3v-.14a3.44,3.44,0,0,0-.75-2.13A2.24,2.24,0,0,0,161,130.88Z"/><path class="cls-2" d="M178.54,137.36a1.33,1.33,0,0,0-.56-1.14,5.35,5.35,0,0,0-1.92-.7,9.16,9.16,0,0,1-2.18-.7,3.21,3.21,0,0,1-1.19-1,2.33,2.33,0,0,1-.38-1.35,2.74,2.74,0,0,1,1.09-2.19,4.31,4.31,0,0,1,2.81-.9,4.43,4.43,0,0,1,2.92.93,2.93,2.93,0,0,1,1.11,2.37h-1.81a1.63,1.63,0,0,0-.63-1.28,2.36,2.36,0,0,0-1.59-.54,2.49,2.49,0,0,0-1.54.43,1.37,1.37,0,0,0-.56,1.13,1.08,1.08,0,0,0,.52,1,6.59,6.59,0,0,0,1.87.64,9.67,9.67,0,0,1,2.19.72,3.25,3.25,0,0,1,1.25,1,2.47,2.47,0,0,1,.4,1.44,2.72,2.72,0,0,1-1.13,2.27,4.77,4.77,0,0,1-2.94.86,5.32,5.32,0,0,1-2.25-.45,3.58,3.58,0,0,1-1.52-1.26,3,3,0,0,1-.56-1.74h1.81a1.89,1.89,0,0,0,.73,1.44,2.84,2.84,0,0,0,1.79.53,3,3,0,0,0,1.65-.41A1.29,1.29,0,0,0,178.54,137.36Z"/><path class="cls-2" d="M185.15,127v2.56h2V131h-2v6.56a1.49,1.49,0,0,0,.26.95,1.1,1.1,0,0,0,.9.32,4.32,4.32,0,0,0,.86-.12v1.46a5.3,5.3,0,0,1-1.39.2,2.23,2.23,0,0,1-1.82-.74,3.15,3.15,0,0,1-.62-2.08V131h-1.92v-1.4h1.92V127Z"/><path class="cls-2" d="M195.75,140.16a3.81,3.81,0,0,1-.25-1.11,4,4,0,0,1-3,1.31,3.71,3.71,0,0,1-2.56-.89,2.84,2.84,0,0,1-1-2.24,3,3,0,0,1,1.25-2.56,5.91,5.91,0,0,1,3.53-.92h1.76v-.83a2,2,0,0,0-.57-1.51,2.28,2.28,0,0,0-1.67-.56,2.69,2.69,0,0,0-1.62.49,1.46,1.46,0,0,0-.65,1.18h-1.82a2.56,2.56,0,0,1,.56-1.53,3.84,3.84,0,0,1,1.53-1.16,5,5,0,0,1,2.11-.43,4.16,4.16,0,0,1,2.86.91,3.32,3.32,0,0,1,1.08,2.52v4.86a5.87,5.87,0,0,0,.37,2.31v.16Zm-3-1.38a3.13,3.13,0,0,0,1.62-.44,2.68,2.68,0,0,0,1.1-1.14V135h-1.42c-2.21,0-3.32.65-3.32,1.95a1.63,1.63,0,0,0,.57,1.32A2.17,2.17,0,0,0,192.75,138.78Zm1.67-13.62h2.19L194,128h-1.45Z"/><path class="cls-2" d="M202.56,127v2.56h2V131h-2v6.56a1.49,1.49,0,0,0,.26.95,1.1,1.1,0,0,0,.9.32,4.23,4.23,0,0,0,.86-.12v1.46a5.25,5.25,0,0,1-1.39.2,2.25,2.25,0,0,1-1.82-.74,3.15,3.15,0,0,1-.62-2.08V131h-1.92v-1.4h1.92V127Z"/><path class="cls-2" d="M213.16,139.11a3.82,3.82,0,0,1-3.09,1.25,3.26,3.26,0,0,1-2.57-1,4.24,4.24,0,0,1-.9-2.9v-6.88h1.81v6.83q0,2.4,2,2.4a2.71,2.71,0,0,0,2.76-1.54v-7.69h1.8v10.57H213.2Zm-.25-12.81a1.87,1.87,0,0,1-.6,1.42,2.13,2.13,0,0,1-1.5.57,2.09,2.09,0,0,1-1.5-.57,1.9,1.9,0,0,1-.6-1.42,1.93,1.93,0,0,1,.6-1.43,2.17,2.17,0,0,1,3,0A1.93,1.93,0,0,1,212.91,126.3Zm-3.23,0a1.07,1.07,0,0,0,.33.79,1,1,0,0,0,.8.34,1.09,1.09,0,0,0,.8-.33,1.06,1.06,0,0,0,.33-.8,1.09,1.09,0,0,0-.32-.81,1.13,1.13,0,0,0-1.62,0A1.17,1.17,0,0,0,209.68,126.3Z"/><path class="cls-2" d="M231.86,135a6.39,6.39,0,0,1-1.09,4,3.59,3.59,0,0,1-3,1.43A3.29,3.29,0,0,1,225,139l-.13,1.12h-2.54v-15h2.83v5.38a3.21,3.21,0,0,1,2.57-1.14,3.62,3.62,0,0,1,3,1.42,6.43,6.43,0,0,1,1.1,4Zm-2.83-.2a4.28,4.28,0,0,0-.5-2.34,1.74,1.74,0,0,0-1.52-.74,1.85,1.85,0,0,0-1.85,1.11V137a1.88,1.88,0,0,0,1.87,1.11,1.75,1.75,0,0,0,1.8-1.35A6.84,6.84,0,0,0,229,134.77Z"/><path class="cls-2" d="M238.46,140.36a5.22,5.22,0,0,1-3.79-1.43,5.09,5.09,0,0,1-1.46-3.8v-.27a6.42,6.42,0,0,1,.62-2.85,4.48,4.48,0,0,1,1.74-1.93,4.83,4.83,0,0,1,2.58-.68,4.36,4.36,0,0,1,3.41,1.37,5.54,5.54,0,0,1,1.24,3.87v1.15h-6.73a2.65,2.65,0,0,0,.83,1.66,2.48,2.48,0,0,0,1.74.63,3,3,0,0,0,2.55-1.18l1.39,1.55a4.18,4.18,0,0,1-1.72,1.4A5.55,5.55,0,0,1,238.46,140.36Zm-.32-8.69a1.78,1.78,0,0,0-1.37.57,3,3,0,0,0-.67,1.63H240v-.22a2.07,2.07,0,0,0-.51-1.46A1.82,1.82,0,0,0,238.14,131.67Z"/><path class="cls-2" d="M247.65,137.88h5.16v2.28H244v-1.72l5-6.57h-4.82v-2.28h8.47v1.67Z"/><path class="cls-2" d="M262.8,137.88H268v2.28H259.2v-1.72l5-6.57h-4.82v-2.28h8.46v1.67Z"/><path class="cls-2" d="M275.86,140.16a3.15,3.15,0,0,1-.28-.95,3.45,3.45,0,0,1-2.67,1.15,3.75,3.75,0,0,1-2.57-.9,2.9,2.9,0,0,1-1-2.27,3,3,0,0,1,1.24-2.58,6.16,6.16,0,0,1,3.6-.91h1.3v-.6a1.73,1.73,0,0,0-.38-1.17,1.44,1.44,0,0,0-1.18-.44,1.67,1.67,0,0,0-1.12.34,1.17,1.17,0,0,0-.41.94h-2.82a2.81,2.81,0,0,1,.57-1.7,3.8,3.8,0,0,1,1.6-1.23,5.92,5.92,0,0,1,2.32-.44,4.61,4.61,0,0,1,3.1,1,3.41,3.41,0,0,1,1.15,2.76v4.58a5.12,5.12,0,0,0,.42,2.27v.17Zm-2.33-2a2.5,2.5,0,0,0,1.15-.28,1.89,1.89,0,0,0,.78-.75v-1.81H274.4c-1.41,0-2.16.48-2.25,1.46V137a1.13,1.13,0,0,0,.37.87A1.49,1.49,0,0,0,273.53,138.2Zm1.07-13h3.08l-2.71,3h-2.29Z"/><path class="cls-2" d="M284.41,136.71l2-7.12h2.95l-3.57,10.57h-2.69l-3.57-10.57h2.95Z"/><path class="cls-2" d="M296.54,140.16a3.15,3.15,0,0,1-.28-.95,3.42,3.42,0,0,1-2.67,1.15,3.75,3.75,0,0,1-2.57-.9,2.9,2.9,0,0,1-1-2.27,3,3,0,0,1,1.25-2.58,6.15,6.15,0,0,1,3.59-.91h1.3v-.6a1.73,1.73,0,0,0-.37-1.17,1.46,1.46,0,0,0-1.19-.44,1.68,1.68,0,0,0-1.12.34,1.16,1.16,0,0,0-.4.94h-2.82a2.8,2.8,0,0,1,.56-1.7,3.8,3.8,0,0,1,1.6-1.23,6,6,0,0,1,2.33-.44,4.64,4.64,0,0,1,3.1,1,3.44,3.44,0,0,1,1.15,2.76v4.58a4.85,4.85,0,0,0,.42,2.27v.17Zm-2.33-2a2.47,2.47,0,0,0,1.15-.28,1.89,1.89,0,0,0,.78-.75v-1.81h-1.05c-1.41,0-2.17.48-2.26,1.46V137a1.16,1.16,0,0,0,.37.87A1.49,1.49,0,0,0,294.21,138.2Z"/><path class="cls-2" d="M304.39,137.88h5.16v2.28h-8.77v-1.72l5-6.57h-4.82v-2.28h8.47v1.67Z"/><path class="cls-2" d="M315.16,135.92l-1,1v3.22h-2.82v-15h2.82v8.31l.55-.7,2.7-3.18h3.39L317,134l4.15,6.16h-3.24Z"/><path class="cls-2" d="M328.33,139.09a3.56,3.56,0,0,1-2.89,1.27,3.33,3.33,0,0,1-2.59-1,4.19,4.19,0,0,1-.92-2.86v-6.93h2.83v6.84q0,1.65,1.5,1.65a2,2,0,0,0,2-1v-7.49h2.84v10.57h-2.66Z"/><path class="cls-2" d="M159.59,157.44l-1.13,1.18v3.71h-1.81v-15h1.81v9.07l1-1.16,3.3-3.47h2.19l-4.11,4.41,4.59,6.15h-2.12Z"/><path class="cls-2" d="M178.25,161.29a3.84,3.84,0,0,1-3.09,1.24,3.31,3.31,0,0,1-2.58-1,4.29,4.29,0,0,1-.89-2.91v-6.87h1.81v6.82q0,2.4,1.95,2.4a2.69,2.69,0,0,0,2.75-1.54v-7.68H180v10.56h-1.72Z"/><path class="cls-2" d="M184.56,153.05a3.82,3.82,0,0,1,3.13-1.48q3.34,0,3.38,3.78v7h-1.81v-7a2.47,2.47,0,0,0-.52-1.69,2.14,2.14,0,0,0-1.6-.55,2.6,2.6,0,0,0-1.54.47,3.27,3.27,0,0,0-1,1.23v7.53h-1.81v-15h1.81Z"/><path class="cls-2" d="M195.73,162.33h-1.8v-15h1.8Z"/><path class="cls-2" d="M200.61,147.34h2.18l-2.61,2.87h-1.46Zm0,15h-1.82V151.77h1.82Z"/><path class="cls-2" d="M206.51,157.44l-1.13,1.18v3.71h-1.81v-15h1.81v9.07l1-1.16,3.29-3.47h2.2l-4.11,4.41,4.59,6.15H210.2Z"/><path class="cls-2" d="M213.22,157a6.35,6.35,0,0,1,.61-2.79,4.62,4.62,0,0,1,1.7-1.92,4.73,4.73,0,0,1,2.49-.67,4.45,4.45,0,0,1,3.49,1.5,5.72,5.72,0,0,1,1.33,4v.13a6.25,6.25,0,0,1-.59,2.77,4.46,4.46,0,0,1-1.69,1.9,4.63,4.63,0,0,1-2.52.69,4.42,4.42,0,0,1-3.48-1.5,5.69,5.69,0,0,1-1.34-3.95Zm1.82.22a4.48,4.48,0,0,0,.82,2.82,2.77,2.77,0,0,0,4.37,0,4.93,4.93,0,0,0,.81-3,4.52,4.52,0,0,0-.83-2.82,2.75,2.75,0,0,0-4.35,0A4.9,4.9,0,0,0,215,157.17Z"/><path class="cls-2" d="M228.45,159.88l2.62-8.11h1.84l-3.79,10.56h-1.38l-3.82-10.56h1.84Z"/><path class="cls-2" d="M239,162.53a4.61,4.61,0,0,1-3.49-1.41,5.24,5.24,0,0,1-1.35-3.78V157a6.37,6.37,0,0,1,.6-2.81,4.66,4.66,0,0,1,1.68-1.93,4.19,4.19,0,0,1,2.34-.7,3.94,3.94,0,0,1,3.2,1.36,5.88,5.88,0,0,1,1.14,3.89v.75H236a3.73,3.73,0,0,0,.91,2.52,2.86,2.86,0,0,0,2.22,1,3.13,3.13,0,0,0,1.62-.39,3.92,3.92,0,0,0,1.16-1l1.11.86A4.45,4.45,0,0,1,239,162.53Zm-.22-9.47a2.42,2.42,0,0,0-1.84.79,3.86,3.86,0,0,0-.91,2.23h5.29V156a3.47,3.47,0,0,0-.74-2.14A2.3,2.3,0,0,0,238.81,153.06Zm.88-5.73h2.19l-2.62,2.87H237.8Z"/><path class="cls-2" d="M251.9,151.77l.06,1.32a3.88,3.88,0,0,1,3.17-1.52q3.35,0,3.38,3.78v7H256.7v-7a2.47,2.47,0,0,0-.52-1.69,2.12,2.12,0,0,0-1.6-.55,2.6,2.6,0,0,0-1.54.47,3.27,3.27,0,0,0-1,1.23v7.53h-1.8V151.77Z"/><path class="cls-2" d="M265.62,162.53a4.62,4.62,0,0,1-3.5-1.41,5.24,5.24,0,0,1-1.35-3.78V157a6.37,6.37,0,0,1,.6-2.81,4.66,4.66,0,0,1,1.68-1.93,4.19,4.19,0,0,1,2.34-.7,3.94,3.94,0,0,1,3.2,1.36,5.83,5.83,0,0,1,1.15,3.89v.75h-7.16a3.73,3.73,0,0,0,.91,2.52,2.88,2.88,0,0,0,2.22,1,3.13,3.13,0,0,0,1.62-.39,4.08,4.08,0,0,0,1.17-1l1.1.86A4.44,4.44,0,0,1,265.62,162.53Zm-.23-9.47a2.39,2.39,0,0,0-1.83.79,3.8,3.8,0,0,0-.92,2.23h5.29V156a3.47,3.47,0,0,0-.74-2.14A2.27,2.27,0,0,0,265.39,153.06Z"/><path class="cls-2" d="M278.35,161.29a3.85,3.85,0,0,1-3.1,1.24,3.3,3.3,0,0,1-2.57-1,4.24,4.24,0,0,1-.89-2.91v-6.87h1.8v6.82c0,1.6.66,2.4,2,2.4a2.69,2.69,0,0,0,2.75-1.54v-7.68h1.81v10.56h-1.72Z"/><path class="cls-2" d="M285.3,149.21v2.56h2v1.39h-2v6.56a1.45,1.45,0,0,0,.27,1,1.1,1.1,0,0,0,.9.31,4.08,4.08,0,0,0,.85-.11v1.45a5.17,5.17,0,0,1-1.38.2,2.28,2.28,0,0,1-1.83-.73,3.16,3.16,0,0,1-.61-2.08v-6.56h-1.93v-1.39h1.93v-2.56Z"/><path class="cls-2" d="M294.49,153.39a4.94,4.94,0,0,0-.89-.07,2.38,2.38,0,0,0-2.41,1.51v7.5h-1.8V151.77h1.75l0,1.22a2.8,2.8,0,0,1,2.52-1.42,1.85,1.85,0,0,1,.8.14Z"/><path class="cls-2" d="M302.29,162.33a3.74,3.74,0,0,1-.26-1.11,4,4,0,0,1-3,1.31,3.73,3.73,0,0,1-2.56-.89,2.83,2.83,0,0,1-1-2.24,3,3,0,0,1,1.25-2.56,5.93,5.93,0,0,1,3.53-.91H302v-.83a2,2,0,0,0-.56-1.51,2.27,2.27,0,0,0-1.67-.56,2.64,2.64,0,0,0-1.62.48,1.45,1.45,0,0,0-.66,1.19h-1.82a2.47,2.47,0,0,1,.57-1.53,3.85,3.85,0,0,1,1.52-1.17,5.07,5.07,0,0,1,2.11-.43,4.24,4.24,0,0,1,2.87.91,3.35,3.35,0,0,1,1.07,2.52v4.86a6,6,0,0,0,.37,2.32v.15Zm-3-1.37a3.22,3.22,0,0,0,1.61-.44,2.7,2.7,0,0,0,1.1-1.15v-2.16h-1.41c-2.22,0-3.32.64-3.32,1.94a1.66,1.66,0,0,0,.56,1.33A2.19,2.19,0,0,0,299.29,161Z"/><path class="cls-2" d="M308.6,162.33h-1.8v-15h1.8Z"/><path class="cls-2" d="M311.5,149a1.07,1.07,0,0,1,.27-.74,1.22,1.22,0,0,1,1.6,0,1.07,1.07,0,0,1,.27.74,1.07,1.07,0,1,1-2.14,0Zm2,13.37h-1.81V151.77h1.81Z"/><path class="cls-2" d="M318.8,149.21v2.56h2v1.39h-2v6.56a1.51,1.51,0,0,0,.26,1,1.13,1.13,0,0,0,.9.31,4.09,4.09,0,0,0,.86-.11v1.45a5.25,5.25,0,0,1-1.39.2,2.27,2.27,0,0,1-1.82-.73,3.17,3.17,0,0,1-.62-2.08v-6.56h-1.92v-1.39H317v-2.56Z"/><path class="cls-2" d="M327.27,162.53a4.62,4.62,0,0,1-3.5-1.41,5.24,5.24,0,0,1-1.35-3.78V157a6.37,6.37,0,0,1,.6-2.81,4.66,4.66,0,0,1,1.68-1.93,4.19,4.19,0,0,1,2.34-.7,3.93,3.93,0,0,1,3.2,1.36,5.83,5.83,0,0,1,1.15,3.89v.75h-7.16a3.78,3.78,0,0,0,.91,2.52,2.88,2.88,0,0,0,2.22,1,3.2,3.2,0,0,0,1.63-.39,4,4,0,0,0,1.16-1l1.1.86A4.43,4.43,0,0,1,327.27,162.53ZM327,149l1.47-1.66h1.56v.1l-2.48,2.68h-1.1L324,147.43v-.1h1.54Zm0,4.07a2.39,2.39,0,0,0-1.83.79,3.8,3.8,0,0,0-.92,2.23h5.29V156a3.47,3.47,0,0,0-.74-2.14A2.27,2.27,0,0,0,327,153.06Z"/><polygon points="2.38 366.96 2.38 366.96 2.38 366.96 2.38 366.96"/><path d="M5.71,22.57H9.22c0,1.35.67,1.92,1.75,1.92s1.68-.64,1.68-1.48c0-2.79-6.58-3.12-6.58-8.24,0-2.56,1.8-4.44,4.9-4.44s5,1.85,5,4.95H12.43c0-1.11-.5-1.66-1.48-1.66s-1.42.48-1.42,1.25c0,2.64,6.67,2.81,6.67,8.16,0,2.76-1.94,4.78-5.28,4.78C7.73,27.81,5.71,26,5.71,22.57Z"/><path d="M19,10.67h3.53L24,18.61c.24,1.23.53,3.29.7,4.68h.09c.17-1.39.46-3.45.7-4.68L27,10.67h3.53l-4,16.8H23Z"/><path d="M43.39,24.23v3.24h-8.9V10.67h8.66v3.24H37.9v3.48h4.77v3.12H37.9v3.72ZM37.73,9.06,35.79,5.77h2.13L39,7.38l1-1.61h2.14L40.2,9.06Z"/><path d="M57.07,13.91H53.79V27.47H50.28V13.91H47V10.67H57.07Z"/><path d="M60.84,22v-5.9c0-3.6,2-5.74,5.45-5.74s5.45,2.14,5.45,5.74V22c0,3.6-2,5.74-5.45,5.74S60.84,25.62,60.84,22Zm7.37,0v-5.9c0-1.59-.65-2.43-1.92-2.43s-1.92.84-1.92,2.43V22c0,1.59.65,2.43,1.92,2.43S68.21,23.61,68.21,22Z"/><path d="M75.22,10.67h3.53l1.51,7.94c.24,1.23.53,3.29.69,4.68h.1c.17-1.39.46-3.45.7-4.68l1.51-7.94h3.53l-4,16.8H79.2Z"/><path d="M99.65,24.23v3.24h-8.9V10.67h8.66v3.24H94.15v3.48h4.78v3.12H94.15v3.72ZM95.79,9.06H93.53l2.26-3.29H98.5Z"/><path d="M120.48,24.23v3.24h-8.9V10.67h8.66v3.24H115v3.48h4.77v3.12H115v3.72Z"/><path d="M139.66,10.67v16.8h-3.34V23.34c.1-2,.17-4.08.27-6.12l-.12,0L135,21.59l-.84,2.28h-3.36l-.84-2.28-1.51-4.42-.12,0c.07,2,.17,4.08.24,6.12v4.13h-3.31V10.67h3.43L131.28,17c.34.84.91,2.3,1.11,2.93h.09c.19-.63.77-2.09,1.11-2.93l2.64-6.36Z"/><path d="M145,10.67h3.41v16.8H145Z"/><path d="M152.78,22.57h3.51c0,1.35.67,1.92,1.75,1.92s1.68-.64,1.68-1.48c0-2.79-6.58-3.12-6.58-8.24,0-2.56,1.8-4.44,4.9-4.44s5,1.85,5,4.95H159.5c0-1.11-.5-1.66-1.48-1.66s-1.42.48-1.42,1.25c0,2.64,6.67,2.81,6.67,8.16,0,2.76-1.94,4.78-5.28,4.78C154.8,27.81,152.78,26,152.78,22.57Z"/><path d="M176.38,24.23v3.24h-8.91V10.67h8.67v3.24h-5.26v3.48h4.78v3.12h-4.78v3.72Z"/><path d="M194.52,24.69H191l-.55,2.78h-3.53l4-16.8h3.65l4,16.8h-3.53Zm-.67-3.24-.39-1.92c-.21-1.2-.5-3.24-.67-4.61h-.09c-.17,1.37-.44,3.41-.68,4.61l-.38,1.92Z"/><path d="M208.58,25.19l5.33-11.28H209V10.67h9.1V13l-5.28,11.21h5.4v3.24h-9.63Z"/><path d="M228.77,24.69h-3.55l-.56,2.78h-3.52l4-16.8h3.65l4,16.8h-3.53ZM227.59,9.06h-2.25l2.25-3.29h2.71Zm.51,12.39-.39-1.92c-.21-1.2-.5-3.24-.67-4.61h-.1c-.16,1.37-.43,3.41-.67,4.61l-.38,1.92Z"/><path d="M234.57,10.67h3.53l1.51,7.94c.25,1.23.53,3.29.7,4.68h.1c.16-1.39.45-3.45.69-4.68l1.51-7.94h3.53l-4,16.8h-3.6Z"/><path d="M255.5,24.69H252l-.55,2.78h-3.53l4-16.8h3.65l4,16.8h-3.52Zm-.67-3.24-.38-1.92c-.22-1.2-.51-3.24-.67-4.61h-.1c-.17,1.37-.43,3.41-.67,4.61l-.39,1.92Z"/><path d="M262.37,25.19l5.32-11.28h-4.92V10.67h9.1V13l-5.28,11.21H272v3.24h-9.62Z"/><path d="M280.63,21.11l-.94,1.51v4.85h-3.36V10.67h3.36V17.1l.87-1.87,2.35-4.56h3.89L282.53,18l5,9.46h-3.84Z"/><path d="M294.36,22.48l-4-11.81h3.53l1.36,4.66c.17.55.56,1.87.72,2.68h.1c.19-.81.58-2.13.77-2.76l1.32-4.58h3.53l-4,11.81v5h-3.41Z"/><path d="M317.11,21.11l-.94,1.51v4.85h-3.36V10.67h3.36V17.1l.87-1.87,2.35-4.56h3.89L319,18l5,9.46h-3.84Z"/><path d="M334.8,22.12V10.67h3.48V22.12c0,1.51.6,2.33,1.8,2.33s1.8-.82,1.8-2.33V10.67h3.48V22.12c0,3.53-2,5.64-5.28,5.64S334.8,25.65,334.8,22.12Z"/><path d="M360.77,10.67v16.8h-3.44V20.63h-3.45v6.84h-3.43V10.67h3.43v6.72h3.45V10.67Z"/><path d="M374.54,24.23v3.24h-8.4V10.67h3.41V24.23Z"/><path d="M378.57,10.67H382v16.8h-3.41Zm2.33-4.9h2.71L380.9,9.06h-2.25Z"/><path d="M391.65,21.11l-.93,1.51v4.85h-3.36V10.67h3.36V17.1l.86-1.87,2.35-4.56h3.89L393.55,18l5,9.46H394.7Z"/><path d="M401.57,22v-5.9c0-3.6,2-5.74,5.44-5.74s5.45,2.14,5.45,5.74V22c0,3.6-2,5.74-5.45,5.74S401.57,25.62,401.57,22Zm7.36,0v-5.9c0-1.59-.64-2.43-1.92-2.43s-1.92.84-1.92,2.43V22c0,1.59.65,2.43,1.92,2.43S408.93,23.61,408.93,22Z"/><path d="M415.94,10.67h3.53L421,18.61c.24,1.23.53,3.29.7,4.68h.09c.17-1.39.46-3.45.7-4.68L424,10.67h3.53l-4,16.8h-3.59Z"/><path d="M440.37,24.23v3.24h-8.9V10.67h8.66v3.24h-5.25v3.48h4.77v3.12h-4.77v3.72ZM436.51,9.06h-2.26l2.26-3.29h2.71Z"/><path d="M452.3,10.67h3.36l3.19,7.3c.41,1.05.79,2.16,1.2,3.21l.07-.07a59.94,59.94,0,0,1-.48-6.55V10.67H463v16.8h-3.37L456.81,21l-1.51-4.11-.07.07a69.56,69.56,0,0,1,.43,7.13v3.41H452.3Z"/><path d="M477.28,24.23v3.24h-8.9V10.67h8.67v3.24h-5.26v3.48h4.77v3.12h-4.77v3.72Z"/><path d="M481.72,22.12V10.67h3.48V22.12c0,1.51.6,2.33,1.8,2.33s1.8-.82,1.8-2.33V10.67h3.48V22.12c0,3.53-2,5.64-5.28,5.64S481.72,25.65,481.72,22.12Z"/><path d="M506.32,13.91H503V27.47h-3.51V13.91h-3.29V10.67h10.08Z"/><path d="M514.94,21.83h-1.2v5.64h-3.41V10.67h4.87c3.34,0,5.31,2.06,5.31,5.59a5.3,5.3,0,0,1-2.33,4.85l3.17,6.36h-3.72Zm-1.2-3.24h1.42c1.2,0,1.85-.82,1.85-2.33s-.65-2.35-1.85-2.35h-1.42Z"/><path d="M531.57,24.69H528l-.55,2.78h-3.53l4-16.8h3.65l4,16.8h-3.53Zm-.67-3.24-.38-1.92c-.22-1.2-.51-3.24-.68-4.61h-.09c-.17,1.37-.43,3.41-.67,4.61l-.39,1.92Z"/><path d="M548,24.23v3.24h-8.4V10.67H543V24.23Z"/><path d="M552,10.67h3.41v16.8H552Z"/><path d="M569.78,13.91h-3.29V27.47H563V13.91H559.7V10.67h10.08Z"/><path d="M582.69,24.23v3.24h-8.9V10.67h8.66v3.24H577.2v3.48H582v3.12H577.2v3.72ZM577,9.06l-1.95-3.29h2.14l1.06,1.61,1-1.61h2.13L579.5,9.06Z"/><path d="M13.61,55.16a4.19,4.19,0,0,1-1.35,1.08,3.58,3.58,0,0,1-1.72.41,3.78,3.78,0,0,1-2.14-.6A4,4,0,0,1,7,54.34a5.82,5.82,0,0,1-.49-2.42A5.94,5.94,0,0,1,7,49.35,3.94,3.94,0,0,1,8.57,47.6,4.41,4.41,0,0,1,10.89,47a4,4,0,0,1,3.33,1.58,6.89,6.89,0,0,1,1.21,4.3v.53q0,4.16-1.64,6.06a6.29,6.29,0,0,1-4.95,2H8.49V59.89h.38a5,5,0,0,0,3.44-1.17A5,5,0,0,0,13.61,55.16Zm-2.78,0a2.8,2.8,0,0,0,1.68-.56,3.25,3.25,0,0,0,1.11-1.37V52.5a4.93,4.93,0,0,0-.77-2.89A2.36,2.36,0,0,0,9,49.41a3.72,3.72,0,0,0-.73,2.41,4,4,0,0,0,.7,2.4A2.24,2.24,0,0,0,10.83,55.16Z"/><path d="M23.86,61.41H22v-12L18.4,50.71V49.07l5.18-2h.28Z"/><path d="M34,49.92a2.87,2.87,0,0,1,.81-2.1,3,3,0,0,1,4.2,0A3,3,0,0,1,39.77,50v.7a2.81,2.81,0,0,1-2.89,2.92,2.83,2.83,0,0,1-2.93-3Zm1.34.75a1.89,1.89,0,0,0,.43,1.26,1.45,1.45,0,0,0,1.16.49A1.4,1.4,0,0,0,38,51.94a1.85,1.85,0,0,0,.43-1.31v-.71A1.88,1.88,0,0,0,38,48.66a1.39,1.39,0,0,0-1.14-.5,1.41,1.41,0,0,0-1.15.5,1.93,1.93,0,0,0-.42,1.3Zm2,9.66-1-.64L43.2,48.58l1,.64Zm3.58-2.41a2.84,2.84,0,0,1,.82-2.1A2.81,2.81,0,0,1,43.78,55a2.88,2.88,0,0,1,2.1.82A3,3,0,0,1,46.7,58v.69a2.88,2.88,0,0,1-.81,2.11,2.82,2.82,0,0,1-2.09.82,2.87,2.87,0,0,1-2.1-.81,2.93,2.93,0,0,1-.83-2.17Zm1.35.76A1.84,1.84,0,0,0,42.65,60a1.43,1.43,0,0,0,1.15.49A1.41,1.41,0,0,0,44.92,60a2,2,0,0,0,.42-1.32v-.72a1.89,1.89,0,0,0-.42-1.27,1.44,1.44,0,0,0-1.14-.49,1.47,1.47,0,0,0-1.13.49A1.88,1.88,0,0,0,42.22,58Z"/><path d="M60,58.61a1.33,1.33,0,0,0-.55-1.14,5.43,5.43,0,0,0-1.92-.7,9.31,9.31,0,0,1-2.18-.7,3.06,3.06,0,0,1-1.19-1,2.33,2.33,0,0,1-.39-1.35,2.73,2.73,0,0,1,1.1-2.19,4.29,4.29,0,0,1,2.81-.9,4.45,4.45,0,0,1,2.91.92A2.94,2.94,0,0,1,61.75,54H59.93a1.63,1.63,0,0,0-.63-1.28,2.35,2.35,0,0,0-1.58-.54,2.46,2.46,0,0,0-1.55.43,1.35,1.35,0,0,0-.55,1.12,1.1,1.1,0,0,0,.51,1,6.71,6.71,0,0,0,1.87.64,9.6,9.6,0,0,1,2.2.72,3.21,3.21,0,0,1,1.24,1,2.47,2.47,0,0,1,.41,1.44,2.7,2.7,0,0,1-1.14,2.27,4.72,4.72,0,0,1-2.93.85,5.32,5.32,0,0,1-2.25-.45A3.58,3.58,0,0,1,54,59.9a3,3,0,0,1-.55-1.74h1.81A1.88,1.88,0,0,0,56,59.6a3.36,3.36,0,0,0,3.44.11A1.26,1.26,0,0,0,60,58.61Z"/><path d="M67.69,59l2.61-8.12h1.85L68.36,61.41H67L63.16,50.84H65Z"/><path d="M78.27,61.6a4.61,4.61,0,0,1-3.49-1.41,5.23,5.23,0,0,1-1.35-3.77v-.33a6.34,6.34,0,0,1,.6-2.81,4.66,4.66,0,0,1,1.68-1.93,4.19,4.19,0,0,1,2.34-.7A4,4,0,0,1,81.25,52a5.9,5.9,0,0,1,1.14,3.89v.75H75.24a3.73,3.73,0,0,0,.91,2.53,2.86,2.86,0,0,0,2.22,1A3.13,3.13,0,0,0,80,59.74a4.08,4.08,0,0,0,1.16-1l1.11.86A4.45,4.45,0,0,1,78.27,61.6ZM78,48.07l1.46-1.66h1.57v.1l-2.48,2.67H77.47L75,46.51v-.1h1.53Zm0,4.06a2.43,2.43,0,0,0-1.84.8,3.91,3.91,0,0,0-.92,2.23h5.3V55a3.42,3.42,0,0,0-.74-2.13A2.28,2.28,0,0,0,78.05,52.13Z"/><path d="M86.94,48.28v2.56h2v1.4h-2V58.8a1.44,1.44,0,0,0,.26,1,1.07,1.07,0,0,0,.9.32A4.32,4.32,0,0,0,89,60v1.46a5.28,5.28,0,0,1-1.39.19,2.25,2.25,0,0,1-1.83-.73,3.15,3.15,0,0,1-.61-2.08V52.24H83.2v-1.4h1.93V48.28Z"/><path d="M90.34,56a6.36,6.36,0,0,1,.61-2.8,4.48,4.48,0,0,1,4.19-2.58,4.47,4.47,0,0,1,3.49,1.49,5.75,5.75,0,0,1,1.33,4v.12A6.22,6.22,0,0,1,99.37,59a4.49,4.49,0,0,1-1.69,1.91,4.62,4.62,0,0,1-2.52.68,4.43,4.43,0,0,1-3.48-1.49,5.72,5.72,0,0,1-1.34-4Zm1.82.21A4.51,4.51,0,0,0,93,59.07a2.77,2.77,0,0,0,4.37,0,5,5,0,0,0,.81-3,4.52,4.52,0,0,0-.83-2.82,2.74,2.74,0,0,0-4.35,0A4.87,4.87,0,0,0,92.16,56.24Z"/><path d="M105.57,59l2.62-8.12H110l-3.79,10.57h-1.38L101,50.84h1.84Z"/><path d="M115.23,58.76l2.46-7.92h1.93L115.37,63c-.66,1.76-1.7,2.64-3.13,2.64l-.34,0-.68-.13V64.06l.49,0a2.38,2.38,0,0,0,1.43-.37,2.73,2.73,0,0,0,.85-1.35l.4-1.08-3.77-10.45h2Zm1-12.35h2.19l-2.62,2.87h-1.45Z"/><path d="M125.47,60.13a2.62,2.62,0,0,0,1.69-.59,2.06,2.06,0,0,0,.8-1.46h1.71a3.24,3.24,0,0,1-.63,1.73,4.17,4.17,0,0,1-1.53,1.31,4.5,4.5,0,0,1-2,.48A4.35,4.35,0,0,1,122,60.16a5.73,5.73,0,0,1-1.28-3.94v-.3a6.3,6.3,0,0,1,.57-2.74A4.32,4.32,0,0,1,123,51.31a4.62,4.62,0,0,1,2.5-.66,4.21,4.21,0,0,1,3,1.06,3.78,3.78,0,0,1,1.26,2.77H128a2.47,2.47,0,0,0-.78-1.69,2.4,2.4,0,0,0-1.72-.66,2.51,2.51,0,0,0-2.13,1,4.63,4.63,0,0,0-.76,2.87v.34a4.54,4.54,0,0,0,.75,2.81A2.54,2.54,0,0,0,125.47,60.13Z"/><path d="M133.51,52.12a3.84,3.84,0,0,1,3.12-1.47c2.24,0,3.36,1.26,3.38,3.78v7H138.2v-7a2.39,2.39,0,0,0-.52-1.69,2.06,2.06,0,0,0-1.59-.55,2.65,2.65,0,0,0-1.55.47,3.18,3.18,0,0,0-1,1.23v7.53H131.7v-15h1.81Z"/><path d="M152.05,61.6a4.6,4.6,0,0,1-3.49-1.41,5.23,5.23,0,0,1-1.35-3.77v-.33a6.34,6.34,0,0,1,.6-2.81,4.66,4.66,0,0,1,1.68-1.93,4.19,4.19,0,0,1,2.34-.7A4,4,0,0,1,155,52a5.9,5.9,0,0,1,1.14,3.89v.75H149a3.73,3.73,0,0,0,.91,2.53,2.86,2.86,0,0,0,2.22,1,3.13,3.13,0,0,0,1.62-.39,4.08,4.08,0,0,0,1.16-1l1.11.86A4.45,4.45,0,0,1,152.05,61.6Zm-.22-9.47a2.43,2.43,0,0,0-1.84.8,3.91,3.91,0,0,0-.92,2.23h5.3V55a3.42,3.42,0,0,0-.75-2.13A2.24,2.24,0,0,0,151.83,52.13Z"/><path d="M160,50.84,160,52a3.91,3.91,0,0,1,3.14-1.36,3,3,0,0,1,3,1.7,4,4,0,0,1,1.38-1.23,3.93,3.93,0,0,1,2-.47c2.32,0,3.5,1.22,3.54,3.68v7.08h-1.81v-7a2.42,2.42,0,0,0-.52-1.7,2.27,2.27,0,0,0-1.73-.56,2.39,2.39,0,0,0-1.67.6,2.45,2.45,0,0,0-.78,1.62v7h-1.81V54.48a2,2,0,0,0-2.26-2.3,2.43,2.43,0,0,0-2.43,1.51v7.72h-1.81V50.84Z"/><path d="M175.8,48a1.07,1.07,0,0,1,.27-.74,1.19,1.19,0,0,1,1.6,0,1.07,1.07,0,0,1,.27.74,1.07,1.07,0,1,1-2.14,0Zm2,13.37H176V50.84h1.81Z"/><path d="M186.8,58.61a1.35,1.35,0,0,0-.55-1.14,5.42,5.42,0,0,0-1.93-.7,9.37,9.37,0,0,1-2.17-.7,3.17,3.17,0,0,1-1.2-1,2.4,2.4,0,0,1-.38-1.35,2.7,2.7,0,0,1,1.1-2.19,4.28,4.28,0,0,1,2.8-.9,4.48,4.48,0,0,1,2.92.92A3,3,0,0,1,188.51,54h-1.82a1.63,1.63,0,0,0-.63-1.28,2.36,2.36,0,0,0-1.59-.54,2.45,2.45,0,0,0-1.54.43,1.36,1.36,0,0,0-.56,1.12,1.11,1.11,0,0,0,.52,1,6.71,6.71,0,0,0,1.87.64A9.67,9.67,0,0,1,187,56a3.25,3.25,0,0,1,1.25,1,2.47,2.47,0,0,1,.41,1.44,2.7,2.7,0,0,1-1.14,2.27,4.73,4.73,0,0,1-2.94.85,5.3,5.3,0,0,1-2.24-.45,3.58,3.58,0,0,1-1.53-1.25,3,3,0,0,1-.55-1.74H182a1.92,1.92,0,0,0,.73,1.44,2.84,2.84,0,0,0,1.79.53,2.9,2.9,0,0,0,1.65-.42A1.26,1.26,0,0,0,186.8,58.61Z"/><path d="M192.94,46.42h2.19l-2.62,2.87h-1.45Zm0,15h-1.81V50.84h1.81Z"/><path d="M211.59,56.9a5.23,5.23,0,0,1-1.66,3.48,5.46,5.46,0,0,1-3.73,1.22,5,5,0,0,1-4-1.8A7.3,7.3,0,0,1,200.65,55V53.6a8.11,8.11,0,0,1,.7-3.49,5.42,5.42,0,0,1,2-2.31,5.58,5.58,0,0,1,3-.81A5.15,5.15,0,0,1,210,48.26a5.29,5.29,0,0,1,1.59,3.5h-1.88a4.09,4.09,0,0,0-1.06-2.47,3.19,3.19,0,0,0-2.28-.76,3.35,3.35,0,0,0-2.82,1.33,6.08,6.08,0,0,0-1,3.78V55a6.22,6.22,0,0,0,1,3.68,3.11,3.11,0,0,0,2.7,1.37,3.64,3.64,0,0,0,2.4-.71,3.88,3.88,0,0,0,1.11-2.46Z"/><path d="M225.09,54.76a8.8,8.8,0,0,1-.7,3.65,5.33,5.33,0,0,1-2,2.37,5.5,5.5,0,0,1-8-2.35,8.53,8.53,0,0,1-.74-3.54v-1a8.57,8.57,0,0,1,.72-3.62,5.27,5.27,0,0,1,5-3.25,5.51,5.51,0,0,1,3,.83,5.34,5.34,0,0,1,2,2.39,8.84,8.84,0,0,1,.7,3.65Zm-1.87-.92a6.34,6.34,0,0,0-1-3.88,3.36,3.36,0,0,0-2.84-1.35,3.31,3.31,0,0,0-2.8,1.35,6.23,6.23,0,0,0-1,3.75v1a6.35,6.35,0,0,0,1,3.85,3.61,3.61,0,0,0,5.65.08,6.38,6.38,0,0,0,1-3.79Z"/><path d="M232.37,66.07h-5.43v-.76l2.87-3.19a6.5,6.5,0,0,0,.88-1.17,2,2,0,0,0,.24-.94,1.47,1.47,0,0,0-.39-1.06,1.36,1.36,0,0,0-1-.42,1.62,1.62,0,0,0-1.22.45,1.71,1.71,0,0,0-.44,1.24h-1.05a2.46,2.46,0,0,1,.74-1.85,2.73,2.73,0,0,1,2-.7,2.65,2.65,0,0,1,1.83.6,2.07,2.07,0,0,1,.67,1.62,4.75,4.75,0,0,1-1.56,2.91l-2.22,2.41h4.16Z"/><path d="M248,56.24a6.3,6.3,0,0,1-1.1,3.89,3.54,3.54,0,0,1-3,1.47,3.87,3.87,0,0,1-3-1.22v5.09h-1.8V50.84h1.65l.09,1.17a3.7,3.7,0,0,1,3.06-1.36,3.6,3.6,0,0,1,3,1.43,6.41,6.41,0,0,1,1.11,4Zm-1.8-.2a4.65,4.65,0,0,0-.77-2.82,2.42,2.42,0,0,0-2.09-1,2.67,2.67,0,0,0-2.46,1.46v5a2.66,2.66,0,0,0,2.48,1.45,2.44,2.44,0,0,0,2.07-1A5.11,5.11,0,0,0,246.24,56Z"/><path d="M249.86,56a6.22,6.22,0,0,1,.61-2.8,4.48,4.48,0,0,1,4.18-2.58,4.49,4.49,0,0,1,3.5,1.49,5.8,5.8,0,0,1,1.33,4v.12a6.36,6.36,0,0,1-.59,2.77,4.55,4.55,0,0,1-1.69,1.91,4.65,4.65,0,0,1-2.53.68,4.43,4.43,0,0,1-3.48-1.49,5.72,5.72,0,0,1-1.33-4Zm1.82.21a4.57,4.57,0,0,0,.81,2.83,2.62,2.62,0,0,0,2.18,1.06,2.59,2.59,0,0,0,2.19-1.08,5,5,0,0,0,.81-3,4.52,4.52,0,0,0-.82-2.82,2.63,2.63,0,0,0-2.2-1.08,2.58,2.58,0,0,0-2.15,1.07A4.87,4.87,0,0,0,251.68,56.24Z"/><path d="M266,60.13a2.6,2.6,0,0,0,1.69-.59,2.06,2.06,0,0,0,.8-1.46h1.71a3.31,3.31,0,0,1-.62,1.73A4.29,4.29,0,0,1,268,61.12a4.5,4.5,0,0,1-2,.48,4.35,4.35,0,0,1-3.43-1.44,5.73,5.73,0,0,1-1.27-3.94v-.3a6.3,6.3,0,0,1,.56-2.74,4.32,4.32,0,0,1,1.63-1.87,4.62,4.62,0,0,1,2.5-.66,4.25,4.25,0,0,1,3,1.06,3.81,3.81,0,0,1,1.25,2.77h-1.71a2.5,2.5,0,0,0-.77-1.69,2.43,2.43,0,0,0-1.73-.66,2.51,2.51,0,0,0-2.13,1,4.63,4.63,0,0,0-.76,2.87v.34a4.54,4.54,0,0,0,.75,2.81A2.55,2.55,0,0,0,266,60.13Z"/><path d="M274,52.12a3.84,3.84,0,0,1,3.12-1.47c2.24,0,3.36,1.26,3.38,3.78v7h-1.8v-7a2.39,2.39,0,0,0-.53-1.69,2.06,2.06,0,0,0-1.59-.55,2.65,2.65,0,0,0-1.55.47,3.18,3.18,0,0,0-1,1.23v7.53h-1.81v-15H274Z"/><path d="M289.75,61.41a3.81,3.81,0,0,1-.25-1.11,4,4,0,0,1-3,1.3,3.7,3.7,0,0,1-2.56-.88,2.86,2.86,0,0,1-1-2.24,3,3,0,0,1,1.25-2.56,5.91,5.91,0,0,1,3.53-.92h1.76v-.83a2,2,0,0,0-.57-1.51,2.28,2.28,0,0,0-1.67-.56,2.69,2.69,0,0,0-1.62.49,1.46,1.46,0,0,0-.65,1.18h-1.82a2.51,2.51,0,0,1,.56-1.53,3.78,3.78,0,0,1,1.53-1.16,5,5,0,0,1,2.11-.43,4.16,4.16,0,0,1,2.86.91,3.32,3.32,0,0,1,1.08,2.51v4.87a5.87,5.87,0,0,0,.37,2.31v.16Zm-3-1.38a3.13,3.13,0,0,0,1.62-.44,2.68,2.68,0,0,0,1.1-1.14V56.28h-1.42c-2.21,0-3.32.65-3.32,1.95a1.63,1.63,0,0,0,.57,1.32A2.17,2.17,0,0,0,286.75,60Zm1.67-13.62h2.19L288,49.28h-1.45Z"/><path d="M295.81,59.93H302v1.48H293.6V60.08l5.83-7.74h-5.74v-1.5h8v1.28Z"/><path d="M306,46.42h2.19l-2.62,2.87h-1.45Zm0,15h-1.81V50.84H306Z"/><path d="M315.61,59.93h6.18v1.48H313.4V60.08l5.83-7.74h-5.74v-1.5h8v1.28Z"/><path d="M328.21,61.6a4.63,4.63,0,0,1-3.5-1.41,5.22,5.22,0,0,1-1.34-3.77v-.33a6.34,6.34,0,0,1,.6-2.81,4.66,4.66,0,0,1,1.68-1.93,4.14,4.14,0,0,1,2.33-.7A4,4,0,0,1,331.19,52a5.9,5.9,0,0,1,1.14,3.89v.75h-7.16a3.74,3.74,0,0,0,.92,2.53,2.86,2.86,0,0,0,2.22,1,3.16,3.16,0,0,0,1.62-.39,4.08,4.08,0,0,0,1.16-1l1.1.86A4.43,4.43,0,0,1,328.21,61.6ZM328,52.13a2.41,2.41,0,0,0-1.83.8,3.84,3.84,0,0,0-.92,2.23h5.29V55a3.42,3.42,0,0,0-.74-2.13A2.25,2.25,0,0,0,328,52.13Z"/><path d="M345.52,58.61a1.33,1.33,0,0,0-.55-1.14,5.43,5.43,0,0,0-1.92-.7,9.47,9.47,0,0,1-2.18-.7,3.14,3.14,0,0,1-1.19-1,2.33,2.33,0,0,1-.39-1.35,2.73,2.73,0,0,1,1.1-2.19,4.29,4.29,0,0,1,2.81-.9,4.43,4.43,0,0,1,2.91.92A2.94,2.94,0,0,1,347.23,54h-1.81a1.63,1.63,0,0,0-.63-1.28,2.36,2.36,0,0,0-1.59-.54,2.43,2.43,0,0,0-1.54.43,1.36,1.36,0,0,0-.56,1.12,1.09,1.09,0,0,0,.52,1,6.59,6.59,0,0,0,1.87.64,9.67,9.67,0,0,1,2.19.72,3.21,3.21,0,0,1,1.24,1,2.47,2.47,0,0,1,.41,1.44,2.72,2.72,0,0,1-1.13,2.27,4.77,4.77,0,0,1-2.94.85,5.32,5.32,0,0,1-2.25-.45,3.58,3.58,0,0,1-1.53-1.25,3.09,3.09,0,0,1-.55-1.74h1.81a1.86,1.86,0,0,0,.73,1.44,3.35,3.35,0,0,0,3.43.11A1.24,1.24,0,0,0,345.52,58.61Z"/><path d="M352.13,48.28v2.56h2v1.4h-2V58.8a1.44,1.44,0,0,0,.27,1,1.07,1.07,0,0,0,.9.32,4.32,4.32,0,0,0,.86-.12v1.46a5.28,5.28,0,0,1-1.39.19,2.25,2.25,0,0,1-1.83-.73,3.15,3.15,0,0,1-.61-2.08V52.24H348.4v-1.4h1.93V48.28Z"/><path d="M362.74,61.41a3.81,3.81,0,0,1-.25-1.11,4,4,0,0,1-3,1.3,3.7,3.7,0,0,1-2.56-.88,2.86,2.86,0,0,1-1-2.24,3,3,0,0,1,1.26-2.56A5.91,5.91,0,0,1,360.7,55h1.76v-.83a2,2,0,0,0-.57-1.51,2.29,2.29,0,0,0-1.67-.56,2.69,2.69,0,0,0-1.62.49,1.43,1.43,0,0,0-.65,1.18h-1.82a2.51,2.51,0,0,1,.56-1.53,3.81,3.81,0,0,1,1.52-1.16,5.12,5.12,0,0,1,2.12-.43,4.16,4.16,0,0,1,2.86.91,3.27,3.27,0,0,1,1.07,2.51v4.87a6.05,6.05,0,0,0,.37,2.31v.16Zm-3-1.38a3.07,3.07,0,0,0,1.61-.44,2.65,2.65,0,0,0,1.11-1.14V56.28H361c-2.21,0-3.32.65-3.32,1.95a1.63,1.63,0,0,0,.57,1.32A2.15,2.15,0,0,0,359.74,60Zm1.67-13.62h2.19L361,49.28h-1.45Z"/><path d="M369.55,48.28v2.56h2v1.4h-2V58.8a1.44,1.44,0,0,0,.26,1,1.1,1.1,0,0,0,.9.32,4.32,4.32,0,0,0,.86-.12v1.46a5.28,5.28,0,0,1-1.39.19,2.23,2.23,0,0,1-1.82-.73,3.09,3.09,0,0,1-.62-2.08V52.24h-1.92v-1.4h1.92V48.28Z"/><path d="M380.15,60.36a3.81,3.81,0,0,1-3.09,1.24,3.28,3.28,0,0,1-2.58-1,4.24,4.24,0,0,1-.89-2.9V50.84h1.81v6.83q0,2.4,2,2.4a2.69,2.69,0,0,0,2.75-1.54V50.84h1.81V61.41h-1.72Zm-.25-12.81a1.85,1.85,0,0,1-.61,1.42,2.25,2.25,0,0,1-3,0,1.9,1.9,0,0,1-.6-1.42,1.93,1.93,0,0,1,.6-1.43,2.18,2.18,0,0,1,3,0A1.93,1.93,0,0,1,379.9,47.55Zm-3.23,0a1.11,1.11,0,0,0,1.13,1.12,1.09,1.09,0,0,0,.8-.32,1.06,1.06,0,0,0,.33-.8,1.1,1.1,0,0,0-.33-.81,1.12,1.12,0,0,0-1.61,0A1.12,1.12,0,0,0,376.67,47.55Z"/><path d="M384.6,64.24l-1-.7a4.75,4.75,0,0,0,1-2.64V59.27h1.76v1.42a4.5,4.5,0,0,1-.48,2A4.68,4.68,0,0,1,384.6,64.24Z"/><path d="M396.48,56.52l-1.13,1.18v3.71h-1.81v-15h1.81v9.07l1-1.16,3.3-3.48h2.19l-4.11,4.42,4.59,6.15h-2.12Z"/><path d="M406.12,48.28v2.56h2v1.4h-2V58.8a1.49,1.49,0,0,0,.26,1,1.1,1.1,0,0,0,.9.32,4.23,4.23,0,0,0,.86-.12v1.46a5.28,5.28,0,0,1-1.39.19,2.24,2.24,0,0,1-1.82-.73,3.15,3.15,0,0,1-.62-2.08V52.24h-1.92v-1.4h1.92V48.28Z"/><path d="M414.59,61.6a4.62,4.62,0,0,1-3.5-1.41,5.23,5.23,0,0,1-1.35-3.77v-.33a6.34,6.34,0,0,1,.6-2.81A4.66,4.66,0,0,1,412,51.35a4.19,4.19,0,0,1,2.34-.7,4,4,0,0,1,3.2,1.35,5.84,5.84,0,0,1,1.15,3.89v.75h-7.16a3.73,3.73,0,0,0,.91,2.53,2.86,2.86,0,0,0,2.22,1,3.13,3.13,0,0,0,1.62-.39,4.12,4.12,0,0,0,1.17-1l1.1.86A4.44,4.44,0,0,1,414.59,61.6Zm-.23-9.47a2.39,2.39,0,0,0-1.83.8,3.78,3.78,0,0,0-.92,2.23h5.29V55a3.42,3.42,0,0,0-.74-2.13A2.25,2.25,0,0,0,414.36,52.13Z"/><path d="M425.9,52.46a6.13,6.13,0,0,0-.89-.06,2.38,2.38,0,0,0-2.41,1.51v7.5h-1.8V50.84h1.75l0,1.22a2.83,2.83,0,0,1,2.52-1.41,1.87,1.87,0,0,1,.8.13Z"/><path d="M432,61.6a4.63,4.63,0,0,1-3.5-1.41,5.23,5.23,0,0,1-1.35-3.77v-.33a6.21,6.21,0,0,1,.61-2.81,4.71,4.71,0,0,1,1.67-1.93,4.19,4.19,0,0,1,2.34-.7A4,4,0,0,1,434.93,52a5.9,5.9,0,0,1,1.14,3.89v.75h-7.16a3.78,3.78,0,0,0,.91,2.53,2.9,2.9,0,0,0,2.23,1,3.19,3.19,0,0,0,1.62-.39,4.08,4.08,0,0,0,1.16-1l1.1.86A4.43,4.43,0,0,1,432,61.6Zm-.23-9.47a2.39,2.39,0,0,0-1.83.8,3.84,3.84,0,0,0-.92,2.23h5.29V55a3.42,3.42,0,0,0-.74-2.13A2.25,2.25,0,0,0,431.72,52.13Zm.88-5.72h2.19l-2.62,2.87h-1.45Z"/><path d="M449.26,58.61a1.33,1.33,0,0,0-.55-1.14,5.43,5.43,0,0,0-1.92-.7,9.47,9.47,0,0,1-2.18-.7,3.06,3.06,0,0,1-1.19-1,2.33,2.33,0,0,1-.39-1.35,2.73,2.73,0,0,1,1.1-2.19,4.29,4.29,0,0,1,2.81-.9,4.43,4.43,0,0,1,2.91.92A2.94,2.94,0,0,1,451,54h-1.81a1.63,1.63,0,0,0-.63-1.28,2.36,2.36,0,0,0-1.59-.54,2.43,2.43,0,0,0-1.54.43,1.33,1.33,0,0,0-.56,1.12,1.09,1.09,0,0,0,.52,1,6.59,6.59,0,0,0,1.87.64,9.67,9.67,0,0,1,2.19.72,3.21,3.21,0,0,1,1.24,1,2.47,2.47,0,0,1,.41,1.44,2.72,2.72,0,0,1-1.13,2.27,4.77,4.77,0,0,1-2.94.85,5.32,5.32,0,0,1-2.25-.45,3.58,3.58,0,0,1-1.53-1.25,3,3,0,0,1-.55-1.74h1.81a1.86,1.86,0,0,0,.73,1.44,3.35,3.35,0,0,0,3.43.11A1.24,1.24,0,0,0,449.26,58.61Z"/><path d="M455.12,50.84l.05,1.17a3.91,3.91,0,0,1,3.14-1.36,3,3,0,0,1,3,1.7,4,4,0,0,1,3.37-1.7c2.32,0,3.5,1.22,3.54,3.68v7.08h-1.81v-7a2.42,2.42,0,0,0-.52-1.7,2.27,2.27,0,0,0-1.73-.56,2.38,2.38,0,0,0-1.67.6,2.45,2.45,0,0,0-.78,1.62v7h-1.81V54.48a2,2,0,0,0-2.26-2.3,2.43,2.43,0,0,0-2.43,1.51v7.72h-1.81V50.84Z"/><path d="M475.34,61.6a4.62,4.62,0,0,1-3.5-1.41,5.23,5.23,0,0,1-1.35-3.77v-.33a6.34,6.34,0,0,1,.6-2.81,4.66,4.66,0,0,1,1.68-1.93,4.19,4.19,0,0,1,2.34-.7A4,4,0,0,1,478.32,52a5.9,5.9,0,0,1,1.14,3.89v.75H472.3a3.78,3.78,0,0,0,.91,2.53,2.89,2.89,0,0,0,2.22,1,3.2,3.2,0,0,0,1.63-.39,4.08,4.08,0,0,0,1.16-1l1.1.86A4.43,4.43,0,0,1,475.34,61.6Zm-.25-13.53,1.47-1.66h1.56v.1l-2.48,2.67h-1.1l-2.45-2.67v-.1h1.53Zm0,4.06a2.39,2.39,0,0,0-1.83.8,3.84,3.84,0,0,0-.92,2.23h5.29V55a3.42,3.42,0,0,0-.74-2.13A2.25,2.25,0,0,0,475.11,52.13Z"/><path d="M484.16,48.07l1.46-1.66h1.56v.1l-2.48,2.67h-1.1l-2.45-2.67v-.1h1.53Zm2.5,4.39a6.23,6.23,0,0,0-.89-.06,2.39,2.39,0,0,0-2.42,1.51v7.5h-1.8V50.84h1.76l0,1.22a2.81,2.81,0,0,1,2.51-1.41,1.92,1.92,0,0,1,.81.13Z"/><path d="M494.84,60.36a3.83,3.83,0,0,1-3.1,1.24,3.27,3.27,0,0,1-2.57-1,4.19,4.19,0,0,1-.89-2.9V50.84h1.8v6.83c0,1.6.65,2.4,2,2.4a2.7,2.7,0,0,0,2.75-1.54V50.84h1.81V61.41h-1.72Z"/><path d="M501.21,50.84V62.63c0,2-.92,3.05-2.77,3.05a3.3,3.3,0,0,1-1.1-.18V64.07a3.67,3.67,0,0,0,.82.07,1.25,1.25,0,0,0,.92-.32,1.63,1.63,0,0,0,.32-1.14V50.84Zm-2-2.8a1.09,1.09,0,0,1,.27-.74,1,1,0,0,1,.79-.31,1,1,0,0,1,.8.31,1.07,1.07,0,0,1,.27.74,1,1,0,0,1-1.07,1,1,1,0,0,1-.79-.3A1,1,0,0,1,499.21,48Z"/><path d="M506.1,46.42h2.19l-2.62,2.87h-1.46Zm0,15h-1.82V50.84h1.82Z"/><path d="M517,56.52l-1.13,1.18v3.71H514v-15h1.81v9.07l1-1.16,3.29-3.48h2.2l-4.11,4.42,4.59,6.15h-2.12Z"/><path d="M535.62,60.36a3.83,3.83,0,0,1-3.1,1.24,3.27,3.27,0,0,1-2.57-1,4.19,4.19,0,0,1-.89-2.9V50.84h1.8v6.83c0,1.6.66,2.4,2,2.4a2.69,2.69,0,0,0,2.75-1.54V50.84h1.81V61.41h-1.72Z"/><path d="M541.93,52.12a3.84,3.84,0,0,1,3.12-1.47c2.24,0,3.36,1.26,3.38,3.78v7h-1.8v-7a2.39,2.39,0,0,0-.53-1.69,2.06,2.06,0,0,0-1.59-.55,2.65,2.65,0,0,0-1.55.47,3.18,3.18,0,0,0-1,1.23v7.53h-1.81v-15h1.81Z"/><path d="M553.1,61.41h-1.81v-15h1.81Z"/><path d="M558,46.42h2.19l-2.62,2.87h-1.45Zm0,15h-1.81V50.84H558Z"/><path d="M563.88,56.52l-1.13,1.18v3.71h-1.81v-15h1.81v9.07l1-1.16L567,50.84h2.19l-4.11,4.42,4.59,6.15h-2.12Z"/><path d="M570.59,56a6.22,6.22,0,0,1,.61-2.8,4.58,4.58,0,0,1,1.7-1.91,4.64,4.64,0,0,1,2.49-.67,4.48,4.48,0,0,1,3.49,1.49,5.75,5.75,0,0,1,1.33,4v.12a6.36,6.36,0,0,1-.59,2.77,4.49,4.49,0,0,1-1.69,1.91,4.62,4.62,0,0,1-2.52.68,4.44,4.44,0,0,1-3.49-1.49,5.76,5.76,0,0,1-1.33-4Zm1.82.21a4.57,4.57,0,0,0,.81,2.83,2.64,2.64,0,0,0,2.19,1.06,2.59,2.59,0,0,0,2.18-1.08,5,5,0,0,0,.81-3,4.52,4.52,0,0,0-.82-2.82,2.62,2.62,0,0,0-2.19-1.08,2.58,2.58,0,0,0-2.16,1.07A4.87,4.87,0,0,0,572.41,56.24Z"/><path d="M585.82,59l2.61-8.12h1.85l-3.79,10.57h-1.38l-3.83-10.57h1.85Z"/><path d="M596.4,61.6a4.6,4.6,0,0,1-3.49-1.41,5.23,5.23,0,0,1-1.35-3.77v-.33a6.34,6.34,0,0,1,.6-2.81,4.66,4.66,0,0,1,1.68-1.93,4.19,4.19,0,0,1,2.34-.7,4,4,0,0,1,3.2,1.35,5.9,5.9,0,0,1,1.14,3.89v.75h-7.16a3.74,3.74,0,0,0,.92,2.53,2.86,2.86,0,0,0,2.22,1,3.13,3.13,0,0,0,1.62-.39,4.08,4.08,0,0,0,1.16-1l1.11.86A4.45,4.45,0,0,1,596.4,61.6Zm-.22-9.47a2.43,2.43,0,0,0-1.84.8,3.91,3.91,0,0,0-.92,2.23h5.3V55a3.42,3.42,0,0,0-.75-2.13A2.24,2.24,0,0,0,596.18,52.13Zm.88-5.72h2.18l-2.61,2.87h-1.46Z"/><path d="M609.27,50.84l.06,1.33a3.84,3.84,0,0,1,3.17-1.52q3.35,0,3.37,3.78v7h-1.8v-7a2.44,2.44,0,0,0-.52-1.69,2.1,2.1,0,0,0-1.6-.55,2.6,2.6,0,0,0-1.54.47,3.12,3.12,0,0,0-1,1.23v7.53h-1.81V50.84Z"/><path d="M623,61.6a4.61,4.61,0,0,1-3.49-1.41,5.23,5.23,0,0,1-1.35-3.77v-.33a6.34,6.34,0,0,1,.6-2.81,4.66,4.66,0,0,1,1.68-1.93,4.19,4.19,0,0,1,2.34-.7A4,4,0,0,1,626,52a5.9,5.9,0,0,1,1.14,3.89v.75H620a3.73,3.73,0,0,0,.91,2.53,2.86,2.86,0,0,0,2.22,1,3.13,3.13,0,0,0,1.62-.39,4.08,4.08,0,0,0,1.16-1l1.11.86A4.45,4.45,0,0,1,623,61.6Zm-.22-9.47a2.43,2.43,0,0,0-1.84.8,3.83,3.83,0,0,0-.91,2.23h5.29V55a3.42,3.42,0,0,0-.74-2.13A2.28,2.28,0,0,0,622.76,52.13Z"/><path d="M635.72,60.36a3.85,3.85,0,0,1-3.1,1.24,3.27,3.27,0,0,1-2.57-1,4.19,4.19,0,0,1-.89-2.9V50.84H631v6.83c0,1.6.65,2.4,2,2.4a2.7,2.7,0,0,0,2.75-1.54V50.84h1.81V61.41h-1.72Z"/><path d="M642.67,48.28v2.56h2v1.4h-2V58.8a1.49,1.49,0,0,0,.26,1,1.1,1.1,0,0,0,.9.32,4.23,4.23,0,0,0,.86-.12v1.46a5.15,5.15,0,0,1-1.38.19,2.25,2.25,0,0,1-1.83-.73,3.15,3.15,0,0,1-.62-2.08V52.24h-1.92v-1.4h1.92V48.28Z"/><path d="M651.86,52.46a6.13,6.13,0,0,0-.89-.06,2.38,2.38,0,0,0-2.41,1.51v7.5h-1.81V50.84h1.76l0,1.22a2.81,2.81,0,0,1,2.52-1.41,1.87,1.87,0,0,1,.8.13Z"/><path d="M659.65,61.41a3.81,3.81,0,0,1-.25-1.11,4,4,0,0,1-3,1.3,3.72,3.72,0,0,1-2.56-.88,2.86,2.86,0,0,1-1-2.24,3,3,0,0,1,1.25-2.56,5.93,5.93,0,0,1,3.53-.92h1.76v-.83a2,2,0,0,0-.57-1.51,2.28,2.28,0,0,0-1.67-.56,2.69,2.69,0,0,0-1.62.49,1.46,1.46,0,0,0-.65,1.18H653a2.51,2.51,0,0,1,.56-1.53,3.84,3.84,0,0,1,1.53-1.16,5,5,0,0,1,2.11-.43,4.16,4.16,0,0,1,2.86.91,3.32,3.32,0,0,1,1.08,2.51v4.87a5.87,5.87,0,0,0,.37,2.31v.16Zm-3-1.38a3.13,3.13,0,0,0,1.61-.44,2.68,2.68,0,0,0,1.1-1.14V56.28H658c-2.21,0-3.32.65-3.32,1.95a1.63,1.63,0,0,0,.57,1.32A2.18,2.18,0,0,0,656.66,60Z"/><path d="M666,61.41h-1.8v-15H666Z"/><path d="M668.87,48a1.07,1.07,0,0,1,.27-.74,1,1,0,0,1,.8-.31,1,1,0,0,1,.8.31A1.07,1.07,0,0,1,671,48a1,1,0,0,1-.27.73,1,1,0,0,1-.8.3,1,1,0,0,1-1.07-1Zm2,13.37H669V50.84h1.81Z"/><path d="M676.17,48.28v2.56h2v1.4h-2V58.8a1.49,1.49,0,0,0,.26,1,1.1,1.1,0,0,0,.9.32,4.32,4.32,0,0,0,.86-.12v1.46a5.28,5.28,0,0,1-1.39.19,2.23,2.23,0,0,1-1.82-.73,3.15,3.15,0,0,1-.62-2.08V52.24h-1.92v-1.4h1.92V48.28Z"/><path d="M684.63,61.6a4.61,4.61,0,0,1-3.49-1.41,5.23,5.23,0,0,1-1.35-3.77v-.33a6.34,6.34,0,0,1,.6-2.81,4.66,4.66,0,0,1,1.68-1.93,4.19,4.19,0,0,1,2.34-.7,4,4,0,0,1,3.2,1.35,5.9,5.9,0,0,1,1.15,3.89v.75H681.6a3.73,3.73,0,0,0,.91,2.53,2.86,2.86,0,0,0,2.22,1,3.13,3.13,0,0,0,1.62-.39,4,4,0,0,0,1.16-1l1.11.86A4.45,4.45,0,0,1,684.63,61.6Zm-.24-13.53,1.46-1.66h1.57v.1l-2.48,2.67h-1.11l-2.45-2.67v-.1h1.54Zm0,4.06a2.43,2.43,0,0,0-1.84.8,3.83,3.83,0,0,0-.91,2.23H687V55a3.42,3.42,0,0,0-.74-2.13A2.28,2.28,0,0,0,684.41,52.13Z"/><path d="M690.88,60.46a1.16,1.16,0,0,1,.28-.78,1.29,1.29,0,0,1,1.68,0,1.12,1.12,0,0,1,.29.78,1.05,1.05,0,0,1-.29.75,1.29,1.29,0,0,1-1.68,0A1.09,1.09,0,0,1,690.88,60.46Z"/><path class="cls-1" d="M540.83,347.4a4.15,4.15,0,0,1-1.35,2.84,4.58,4.58,0,0,1-3.12,1,4.44,4.44,0,0,1-2.39-.65,4.16,4.16,0,0,1-1.6-1.83,6.6,6.6,0,0,1-.58-2.76V345a6.62,6.62,0,0,1,.57-2.83,4.26,4.26,0,0,1,1.63-1.89,4.53,4.53,0,0,1,2.47-.67,4.41,4.41,0,0,1,3,1,4.26,4.26,0,0,1,1.34,2.89h-2a2.85,2.85,0,0,0-.72-1.77,2.36,2.36,0,0,0-1.68-.54,2.3,2.3,0,0,0-2,.94,4.71,4.71,0,0,0-.71,2.76v1a5,5,0,0,0,.66,2.82,2.21,2.21,0,0,0,1.93,1,2.54,2.54,0,0,0,1.75-.53,2.72,2.72,0,0,0,.75-1.74Zm-4.51-9.68,1.14-1.21h1.62v.08l-2.18,2.18h-1.17l-2.16-2.19v-.07h1.61Z"/><path class="cls-1" d="M544.45,351.1h-1.9v-8.45h1.9Zm-.36-11.94h2.17l-2.17,2.36h-1.52Z"/><path class="cls-1" d="M548.37,342.65l.06,1a3,3,0,0,1,2.46-1.14c1.76,0,2.65,1,2.69,3v5.58h-1.9v-5.47a1.73,1.73,0,0,0-.35-1.19,1.45,1.45,0,0,0-1.14-.39,1.84,1.84,0,0,0-1.71,1v6h-1.9v-8.45Z"/><path class="cls-1" d="M560.56,351.1a2.88,2.88,0,0,1-.22-.79,3.19,3.19,0,0,1-4.3.22,2.33,2.33,0,0,1-.8-1.79,2.41,2.41,0,0,1,1-2.08,4.89,4.89,0,0,1,2.87-.72h1.17v-.56a1.48,1.48,0,0,0-.37-1.05,1.47,1.47,0,0,0-1.12-.39,1.71,1.71,0,0,0-1.06.32,1,1,0,0,0-.41.83h-1.9a2.07,2.07,0,0,1,.46-1.3,3.09,3.09,0,0,1,1.25-1,4.4,4.4,0,0,1,1.77-.35,3.54,3.54,0,0,1,2.37.75,2.68,2.68,0,0,1,.91,2.1v3.81a4.21,4.21,0,0,0,.32,1.82v.13Zm-2.09-1.36a2.08,2.08,0,0,0,1.06-.28,1.82,1.82,0,0,0,.75-.73v-1.6h-1a2.83,2.83,0,0,0-1.59.37,1.18,1.18,0,0,0-.53,1,1.1,1.1,0,0,0,.36.87A1.39,1.39,0,0,0,558.47,349.74Z"/><path class="cls-1" d="M570.33,344.91h1a3.25,3.25,0,0,0,1.41-.29,2.15,2.15,0,0,0,.92-.78,2.07,2.07,0,0,0,.31-1.14,2.31,2.31,0,0,0-.61-1.71,2.42,2.42,0,0,0-1.78-.62,2.53,2.53,0,0,0-1.79.64,2.23,2.23,0,0,0-.7,1.7h-.94a3,3,0,0,1,.45-1.61,3,3,0,0,1,1.23-1.13,3.79,3.79,0,0,1,1.75-.4,3.36,3.36,0,0,1,2.44.85,3,3,0,0,1,.89,2.31,2.45,2.45,0,0,1-.52,1.51,3,3,0,0,1-1.42,1,3,3,0,0,1,1.61,1,2.83,2.83,0,0,1,.54,1.73,3.06,3.06,0,0,1-1,2.35,3.6,3.6,0,0,1-2.55.89,4.29,4.29,0,0,1-1.86-.41,3,3,0,0,1-1.78-2.83h.94a2.27,2.27,0,0,0,.76,1.77,2.8,2.8,0,0,0,1.94.68,2.71,2.71,0,0,0,1.89-.62,2.31,2.31,0,0,0,.68-1.8,2.14,2.14,0,0,0-.73-1.74,3.35,3.35,0,0,0-2.16-.61h-.93Z"/><path class="cls-1" d="M581.47,351.1h-.94V340.85l-3.1,1.15v-.87l3.88-1.44h.16Z"/><path class="cls-1" d="M585.93,353.23l-.55-.41a3.36,3.36,0,0,0,.73-2v-1.22H587v1A3.38,3.38,0,0,1,585.93,353.23Z"/><path class="cls-1" d="M594.56,339.64v.81h-.11a4.28,4.28,0,0,0-3.21,1.21,5,5,0,0,0-1.3,3.33,3.24,3.24,0,0,1,1.2-1,3.57,3.57,0,0,1,1.62-.36,3,3,0,0,1,2.39,1,4,4,0,0,1,.89,2.71,4.65,4.65,0,0,1-.42,2,3.15,3.15,0,0,1-1.19,1.38,3.1,3.1,0,0,1-1.76.5,3.39,3.39,0,0,1-2.66-1.18,4.52,4.52,0,0,1-1-3.06v-.94a7.19,7.19,0,0,1,1.39-4.73,4.92,4.92,0,0,1,4-1.71Zm-1.95,4.81A2.91,2.91,0,0,0,591,345a2.56,2.56,0,0,0-1,1.34v.8a3.71,3.71,0,0,0,.76,2.42,2.45,2.45,0,0,0,2,.93,2.15,2.15,0,0,0,1.77-.86,3.46,3.46,0,0,0,.67-2.19,3.25,3.25,0,0,0-.67-2.15A2.26,2.26,0,0,0,592.61,344.45Z"/><path class="cls-1" d="M601.58,341.92a2.38,2.38,0,0,1,.63-1.69,2.25,2.25,0,0,1,3.2,0A2.44,2.44,0,0,1,606,342v.56a2.38,2.38,0,0,1-.62,1.67,2.1,2.1,0,0,1-1.59.66,2.18,2.18,0,0,1-1.61-.65,2.42,2.42,0,0,1-.64-1.74Zm.76.59a1.76,1.76,0,0,0,.4,1.2,1.37,1.37,0,0,0,1.09.47,1.3,1.3,0,0,0,1-.47,1.84,1.84,0,0,0,.4-1.23v-.57a1.78,1.78,0,0,0-.41-1.2,1.31,1.31,0,0,0-1.06-.47,1.32,1.32,0,0,0-1.06.47,1.84,1.84,0,0,0-.41,1.25Zm1.78,7.65-.58-.38,5.55-8.89.59.38Zm3.19-1.85a2.37,2.37,0,0,1,.63-1.68,2.1,2.1,0,0,1,1.59-.66,2.14,2.14,0,0,1,1.6.66,2.42,2.42,0,0,1,.63,1.74v.55a2.33,2.33,0,0,1-.63,1.68,2.08,2.08,0,0,1-1.59.67,2.1,2.1,0,0,1-1.59-.66,2.37,2.37,0,0,1-.64-1.73Zm.75.61a1.8,1.8,0,0,0,.4,1.21,1.36,1.36,0,0,0,1.08.47,1.31,1.31,0,0,0,1.07-.48,1.88,1.88,0,0,0,.4-1.24v-.57a1.77,1.77,0,0,0-.41-1.21,1.37,1.37,0,0,0-1.07-.46,1.34,1.34,0,0,0-1.06.47,1.77,1.77,0,0,0-.41,1.23Z"/><path class="cls-1" d="M481.06,456.3v7.6a3.69,3.69,0,0,1-1.16,2.87,4.38,4.38,0,0,1-3.09,1.06,4.45,4.45,0,0,1-3.1-1,3.71,3.71,0,0,1-1.15-2.9V456.3h2v7.61a2.39,2.39,0,0,0,.58,1.74,2.24,2.24,0,0,0,1.7.6q2.28,0,2.28-2.4V456.3Z"/><path class="cls-1" d="M489.11,464.74a1.36,1.36,0,0,0-.52-1.15,6.22,6.22,0,0,0-1.91-.82,9.76,9.76,0,0,1-2.18-.92,2.93,2.93,0,0,1-1.56-2.55,2.8,2.8,0,0,1,1.12-2.27,4.57,4.57,0,0,1,2.91-.89,4.93,4.93,0,0,1,2.12.44,3.44,3.44,0,0,1,1.46,1.25,3.11,3.11,0,0,1,.53,1.79h-2a1.79,1.79,0,0,0-.55-1.4,2.36,2.36,0,0,0-1.6-.5,2.46,2.46,0,0,0-1.51.41,1.41,1.41,0,0,0-.53,1.16,1.22,1.22,0,0,0,.58,1,6.74,6.74,0,0,0,1.9.82,9,9,0,0,1,2.14.89,3.54,3.54,0,0,1,1.18,1.16,3,3,0,0,1,.37,1.53A2.69,2.69,0,0,1,490,467a4.73,4.73,0,0,1-3,.84,5.52,5.52,0,0,1-2.27-.46,3.76,3.76,0,0,1-1.6-1.26,3.1,3.1,0,0,1-.58-1.87h2a1.85,1.85,0,0,0,.64,1.5,2.83,2.83,0,0,0,1.83.53,2.41,2.41,0,0,0,1.55-.42A1.35,1.35,0,0,0,489.11,464.74Z"/><path class="cls-1" d="M499.19,465h-4.4l-.93,2.65h-2.05l4.3-11.37h1.77l4.3,11.37h-2.06Zm-3.85-1.59h3.3L497,458.71Z"/><path class="cls-1" d="M511.72,467.67h-.93V457.42l-3.1,1.15v-.87l3.88-1.44h.15Z"/><path class="cls-1" d="M522,464h1.78v.79H522v2.87H521V464.8h-5.35v-.53l5.27-8h1Zm-5.14,0H521v-6.5l-.41.72Z"/><path class="cls-1" d="M525.06,469.8l-.55-.41a3.43,3.43,0,0,0,.73-2V466.2h.91v1A3.37,3.37,0,0,1,525.06,469.8Z"/><path class="cls-1" d="M533.91,464h1.77v.79h-1.77v2.87H533V464.8h-5.35v-.53l5.27-8h1Zm-5.14,0H533v-6.5l-.41.72Z"/><path class="cls-1" d="M540.71,458.49a2.38,2.38,0,0,1,.63-1.69,2.23,2.23,0,0,1,3.19,0,2.42,2.42,0,0,1,.63,1.73v.56a2.4,2.4,0,0,1-.62,1.67,2.07,2.07,0,0,1-1.59.66,2.17,2.17,0,0,1-1.6-.65,2.38,2.38,0,0,1-.64-1.74Zm.76.59a1.76,1.76,0,0,0,.4,1.2,1.45,1.45,0,0,0,2.14,0,1.89,1.89,0,0,0,.39-1.23v-.57a1.79,1.79,0,0,0-.4-1.2,1.33,1.33,0,0,0-1.07-.47,1.3,1.3,0,0,0-1,.47,1.8,1.8,0,0,0-.41,1.25Zm1.78,7.65-.59-.38,5.56-8.89.58.38Zm3.18-1.85a2.41,2.41,0,0,1,.63-1.68,2.1,2.1,0,0,1,1.59-.66,2.13,2.13,0,0,1,1.6.66,2.38,2.38,0,0,1,.64,1.74v.55a2.33,2.33,0,0,1-.63,1.68,2.08,2.08,0,0,1-1.59.67,2.14,2.14,0,0,1-1.6-.66,2.41,2.41,0,0,1-.64-1.73Zm.75.61a1.81,1.81,0,0,0,.41,1.21,1.36,1.36,0,0,0,1.08.47,1.32,1.32,0,0,0,1.07-.48,1.88,1.88,0,0,0,.39-1.24v-.57a1.77,1.77,0,0,0-.4-1.21,1.47,1.47,0,0,0-2.14,0,1.84,1.84,0,0,0-.41,1.24Z"/><path class="cls-1" d="M207.43,480.15h-2V468.78h2Z"/><path class="cls-1" d="M211.44,471.7l.05,1a3,3,0,0,1,2.46-1.13c1.76,0,2.66,1,2.69,3v5.58h-1.9v-5.47a1.68,1.68,0,0,0-.35-1.19,1.45,1.45,0,0,0-1.13-.39,1.82,1.82,0,0,0-1.71,1v6h-1.9V471.7Z"/><path class="cls-1" d="M218.22,475.87a5,5,0,0,1,.91-3.14,2.88,2.88,0,0,1,2.42-1.18,2.79,2.79,0,0,1,2.18.93v-4.33h1.9v12h-1.72l-.1-.87a2.77,2.77,0,0,1-2.27,1,2.89,2.89,0,0,1-2.4-1.19A5.17,5.17,0,0,1,218.22,475.87Zm1.9.16a3.51,3.51,0,0,0,.49,2,1.61,1.61,0,0,0,1.41.72,1.8,1.8,0,0,0,1.71-1v-3.61a1.77,1.77,0,0,0-1.69-1,1.6,1.6,0,0,0-1.42.73A3.87,3.87,0,0,0,220.12,476Z"/><path class="cls-1" d="M227.61,469.51a1,1,0,0,1,.28-.73,1,1,0,0,1,.79-.29,1.09,1.09,0,0,1,.8.29,1,1,0,0,1,.28.73,1,1,0,0,1-.28.71,1.09,1.09,0,0,1-.8.29,1,1,0,0,1-.79-.29A1,1,0,0,1,227.61,469.51Zm2,10.64h-1.9V471.7h1.9Z"/><path class="cls-1" d="M235.41,480.31a3.92,3.92,0,0,1-2.92-1.14,4.08,4.08,0,0,1-1.12-3v-.24a5,5,0,0,1,.49-2.26,3.69,3.69,0,0,1,1.37-1.55,3.61,3.61,0,0,1,2-.55,3.27,3.27,0,0,1,2.66,1.1,4.62,4.62,0,0,1,.94,3.11v.77h-5.52a2.56,2.56,0,0,0,.7,1.66,2.12,2.12,0,0,0,1.54.61,2.6,2.6,0,0,0,2.13-1.06l1,1a3.49,3.49,0,0,1-1.35,1.17A4.25,4.25,0,0,1,235.41,480.31Zm-.22-7.24a1.58,1.58,0,0,0-1.26.55,2.83,2.83,0,0,0-.62,1.52h3.62V475a2.25,2.25,0,0,0-.51-1.44A1.56,1.56,0,0,0,235.19,473.07Z"/><path class="cls-1" d="M251.37,469.32l-4.86,10.83h-1l4.83-10.57h-6.47v-.8h7.48Z"/><path class="cls-1" d="M253.18,482.28l-.55-.41a3.43,3.43,0,0,0,.73-2v-1.21h.91v1A3.35,3.35,0,0,1,253.18,482.28Z"/><path class="cls-1" d="M263.15,475.41a6.4,6.4,0,0,1-.88,3.66,3.35,3.35,0,0,1-5.19,0,6,6,0,0,1-.92-3.56v-2a6.12,6.12,0,0,1,.89-3.63,3.36,3.36,0,0,1,5.18,0,6,6,0,0,1,.92,3.51Zm-.94-2a5.5,5.5,0,0,0-.64-2.95,2.11,2.11,0,0,0-1.92-1,2.14,2.14,0,0,0-1.91,1,5.43,5.43,0,0,0-.65,2.88v2.23a5.56,5.56,0,0,0,.66,3,2.13,2.13,0,0,0,1.91,1,2.09,2.09,0,0,0,1.9-1,5.49,5.49,0,0,0,.65-2.95Z"/><path class="cls-1" d="M268.83,471a2.38,2.38,0,0,1,.63-1.69,2.26,2.26,0,0,1,3.19,0,2.44,2.44,0,0,1,.63,1.73v.56a2.38,2.38,0,0,1-.62,1.67,2.07,2.07,0,0,1-1.59.66,2.13,2.13,0,0,1-1.6-.65,2.38,2.38,0,0,1-.64-1.74Zm.76.6a1.75,1.75,0,0,0,.4,1.19,1.33,1.33,0,0,0,1.08.47,1.29,1.29,0,0,0,1.06-.47,1.87,1.87,0,0,0,.39-1.23V471a1.79,1.79,0,0,0-.4-1.2,1.36,1.36,0,0,0-1.07-.47,1.3,1.3,0,0,0-1.05.47,1.8,1.8,0,0,0-.41,1.25Zm1.78,7.64-.59-.38,5.56-8.89.58.38Zm3.18-1.84a2.33,2.33,0,0,1,.63-1.68,2.08,2.08,0,0,1,1.59-.67,2.13,2.13,0,0,1,1.6.66,2.38,2.38,0,0,1,.64,1.74V478a2.33,2.33,0,0,1-.63,1.67,2.08,2.08,0,0,1-1.59.67,2.14,2.14,0,0,1-1.6-.66,2.39,2.39,0,0,1-.64-1.72Zm.75.6a1.81,1.81,0,0,0,.41,1.21,1.36,1.36,0,0,0,1.08.47,1.32,1.32,0,0,0,1.07-.48,1.88,1.88,0,0,0,.39-1.24v-.57a1.77,1.77,0,0,0-.4-1.21,1.39,1.39,0,0,0-1.08-.46,1.35,1.35,0,0,0-1.06.47,1.79,1.79,0,0,0-.41,1.23Z"/><path class="cls-1" d="M160,437.16h-2.21v4.37h-2V430.16h4a4.67,4.67,0,0,1,3,.88,3.14,3.14,0,0,1,1.07,2.56,3.24,3.24,0,0,1-.55,1.91,3.5,3.5,0,0,1-1.54,1.19l2.55,4.73v.1h-2.11Zm-2.21-1.59h2a2.26,2.26,0,0,0,1.57-.51,1.76,1.76,0,0,0,.56-1.38,1.84,1.84,0,0,0-.52-1.41,2.22,2.22,0,0,0-1.55-.52h-2.09Z"/><path class="cls-1" d="M170.73,440.71a3,3,0,0,1-2.38,1,2.65,2.65,0,0,1-2.08-.8,3.45,3.45,0,0,1-.71-2.33v-5.48h1.9v5.45c0,1.08.45,1.61,1.34,1.61a1.89,1.89,0,0,0,1.87-1v-6.07h1.89v8.45h-1.78Z"/><path class="cls-1" d="M179.24,439.24a.87.87,0,0,0-.42-.78,4.52,4.52,0,0,0-1.39-.46,7.53,7.53,0,0,1-1.62-.52,2.17,2.17,0,0,1-1.42-2,2.26,2.26,0,0,1,.92-1.83,3.66,3.66,0,0,1,2.35-.73,3.79,3.79,0,0,1,2.45.75,2.37,2.37,0,0,1,.93,1.94h-1.9a1.17,1.17,0,0,0-.4-.91,1.57,1.57,0,0,0-1.08-.36,1.62,1.62,0,0,0-1,.29.92.92,0,0,0-.4.77.78.78,0,0,0,.37.68,5.33,5.33,0,0,0,1.49.49,7.27,7.27,0,0,1,1.75.58,2.59,2.59,0,0,1,1,.82,2.13,2.13,0,0,1,.3,1.16,2.18,2.18,0,0,1-.94,1.84,4,4,0,0,1-2.48.71,4.37,4.37,0,0,1-1.85-.37,3.12,3.12,0,0,1-1.27-1,2.41,2.41,0,0,1-.45-1.41H176a1.34,1.34,0,0,0,.5,1,2,2,0,0,0,1.25.36,1.92,1.92,0,0,0,1.14-.29A.87.87,0,0,0,179.24,439.24Z"/><path class="cls-1" d="M185.5,437.91l-.84.87v2.75h-1.9v-12h1.9v6.93l.59-.75,2.34-2.63h2.28l-3.14,3.53,3.48,4.92H188Z"/><path class="cls-1" d="M190.75,437.23a5.11,5.11,0,0,1,.49-2.24,3.62,3.62,0,0,1,1.39-1.53,3.83,3.83,0,0,1,2-.53,3.68,3.68,0,0,1,2.78,1.1A4.29,4.29,0,0,1,198.6,437v.44a5,5,0,0,1-.48,2.24,3.61,3.61,0,0,1-1.37,1.52,3.94,3.94,0,0,1-2.07.54,3.67,3.67,0,0,1-2.86-1.19,4.54,4.54,0,0,1-1.08-3.18Zm1.9.16a3.44,3.44,0,0,0,.54,2.05,1.88,1.88,0,0,0,3,0,3.84,3.84,0,0,0,.53-2.2,3.35,3.35,0,0,0-.55-2,1.77,1.77,0,0,0-1.5-.75,1.71,1.71,0,0,0-1.47.74A3.64,3.64,0,0,0,192.65,437.39Z"/><path class="cls-1" d="M204.93,435.71l.56-5.55h5.68V431h-4.88l-.4,3.84a3.69,3.69,0,0,1,2.14-.62,3.16,3.16,0,0,1,2.46,1,3.77,3.77,0,0,1,.91,2.66,4,4,0,0,1-.89,2.79,3.2,3.2,0,0,1-2.51,1,3.4,3.4,0,0,1-2.4-.83,3.36,3.36,0,0,1-1.06-2.32h.9a2.66,2.66,0,0,0,.79,1.76,2.53,2.53,0,0,0,1.77.6,2.23,2.23,0,0,0,1.84-.77,3.41,3.41,0,0,0,.62-2.2,3,3,0,0,0-.69-2,2.4,2.4,0,0,0-1.9-.79,3.42,3.42,0,0,0-1.16.17,3.2,3.2,0,0,0-1,.65Z"/><path class="cls-1" d="M213.12,443.66l-.56-.41a3.37,3.37,0,0,0,.74-2v-1.21h.91v1A3.35,3.35,0,0,1,213.12,443.66Z"/><path class="cls-1" d="M223.09,436.79a6.34,6.34,0,0,1-.88,3.65,3,3,0,0,1-2.61,1.25,3,3,0,0,1-2.58-1.22,6,6,0,0,1-.92-3.56v-2a6.12,6.12,0,0,1,.89-3.63,3,3,0,0,1,2.6-1.24,3,3,0,0,1,2.58,1.19,6,6,0,0,1,.92,3.52Zm-.94-2a5.5,5.5,0,0,0-.64-2.95,2.11,2.11,0,0,0-1.92-1,2.14,2.14,0,0,0-1.91,1,5.43,5.43,0,0,0-.65,2.88v2.23a5.56,5.56,0,0,0,.66,3,2.12,2.12,0,0,0,1.91,1,2.09,2.09,0,0,0,1.9-1,5.49,5.49,0,0,0,.65-2.95Z"/><path class="cls-1" d="M228.77,432.35a2.38,2.38,0,0,1,.63-1.69,2.26,2.26,0,0,1,3.19,0,2.44,2.44,0,0,1,.63,1.73V433a2.38,2.38,0,0,1-.62,1.67,2.07,2.07,0,0,1-1.59.66,2.13,2.13,0,0,1-1.6-.65,2.38,2.38,0,0,1-.64-1.74Zm.76.6a1.75,1.75,0,0,0,.4,1.19,1.33,1.33,0,0,0,1.08.47,1.29,1.29,0,0,0,1.06-.47,1.87,1.87,0,0,0,.39-1.23v-.57a1.79,1.79,0,0,0-.4-1.2,1.36,1.36,0,0,0-1.07-.47,1.3,1.3,0,0,0-1.05.47,1.8,1.8,0,0,0-.41,1.25Zm1.78,7.64-.59-.38,5.56-8.89.58.38Zm3.18-1.84a2.33,2.33,0,0,1,.63-1.68,2.08,2.08,0,0,1,1.59-.67,2.13,2.13,0,0,1,1.6.66,2.38,2.38,0,0,1,.64,1.74v.56a2.33,2.33,0,0,1-.63,1.67,2.08,2.08,0,0,1-1.59.67,2.14,2.14,0,0,1-1.6-.66,2.41,2.41,0,0,1-.64-1.72Zm.75.6a1.81,1.81,0,0,0,.41,1.21,1.36,1.36,0,0,0,1.08.47,1.32,1.32,0,0,0,1.07-.48,1.88,1.88,0,0,0,.39-1.24v-.57a1.77,1.77,0,0,0-.4-1.21,1.39,1.39,0,0,0-1.08-.46,1.35,1.35,0,0,0-1.06.47,1.79,1.79,0,0,0-.41,1.23Z"/><path class="cls-3" d="M502.76,395A148.6,148.6,0,0,0,366.58,186.9V335.5Z"/><path class="cls-4" d="M502.76,395A148.6,148.6,0,0,0,366.58,186.9V335.5Z"/><path class="cls-4" d="M403.7,479.4A148.58,148.58,0,0,0,502.76,395L366.58,335.5Z"/><path class="cls-4" d="M324.52,478a148.51,148.51,0,0,0,79.18,1.37L366.58,335.5Z"/><path class="cls-4" d="M267.64,446.39A148.76,148.76,0,0,0,324.52,478L366.58,335.5Z"/><path class="cls-4" d="M238.2,410.35a148.55,148.55,0,0,0,29.44,36L366.58,335.5Z"/><path class="cls-4" d="M225.59,382.45a149.18,149.18,0,0,0,5.58,14.28,151,151,0,0,0,7,13.62L366.58,335.5Z"/><path class="cls-4" d="M290.57,207.81a148.59,148.59,0,0,0-55.08,57.7q-1.16,2.17-2.24,4.38c-.73,1.47-1.43,3-2.1,4.45s-1.44,3.25-2.11,4.89-1.31,3.3-1.92,5-1.25,3.47-1.82,5.23-1.11,3.51-1.61,5.28q-.83,2.88-1.53,5.78t-1.29,5.84q-.62,3.06-1.1,6.15t-.84,6.2c-.29,2.56-.51,5.12-.67,7.7s-.25,5.14-.28,7.72,0,5.16.13,7.74.29,5.16.53,7.73.57,5.26,1,7.87.85,5.22,1.38,7.81q.9,4.36,2.05,8.67c.76,2.87,1.62,5.72,2.56,8.54l141-46.95Z"/><path class="cls-5" d="M366.58,186.9a148.58,148.58,0,0,0-76,20.91l76,127.69Z"/><g id="patch_13" data-name="patch 13"><path class="cls-6" d="M369.58,409.81A74.31,74.31,0,1,0,317,388,74.31,74.31,0,0,0,369.58,409.81Z"/></g><path class="cls-1" d="M352.46,325.41a5.66,5.66,0,0,1-4.12,1.73,6.11,6.11,0,0,1-4.83-2.07,8.16,8.16,0,0,1-1.81-5.58,8.7,8.7,0,0,1,1-4.1,7.1,7.1,0,0,1,2.73-2.91,7.6,7.6,0,0,1,3.94-1,7.25,7.25,0,0,1,4,1.13,7.44,7.44,0,0,1,2.72,3.23,11.73,11.73,0,0,1,1,4.83v1.67q0,5.68-2.83,8.94a10.71,10.71,0,0,1-8,3.47h-1.11V331l1,0C350,330.76,352.14,328.92,352.46,325.41Zm-3-1.72a3.19,3.19,0,0,0,1.88-.56,3.88,3.88,0,0,0,1.2-1.36v-1.86a6.22,6.22,0,0,0-.88-3.56,2.69,2.69,0,0,0-2.34-1.27,2.67,2.67,0,0,0-2.24,1.24,5.32,5.32,0,0,0-.87,3.12,5.15,5.15,0,0,0,.85,3.06A2.79,2.79,0,0,0,349.45,323.69Z"/><path class="cls-1" d="M371.23,334.5h-4.52V317.1l-5.39,1.67V315.1l9.42-3.38h.49Z"/><path class="cls-1" d="M386.53,316.13a4.51,4.51,0,0,1,1.35-3.4,5,5,0,0,1,3.57-1.3,5,5,0,0,1,3.59,1.28,4.59,4.59,0,0,1,1.36,3.5v1.12a4.42,4.42,0,0,1-1.36,3.39,5,5,0,0,1-3.56,1.28,5,5,0,0,1-3.59-1.29,4.52,4.52,0,0,1-1.36-3.47Zm3,1.2a2.14,2.14,0,0,0,.53,1.51,1.86,1.86,0,0,0,1.42.57,1.75,1.75,0,0,0,1.39-.58,2.25,2.25,0,0,0,.51-1.55v-1.15a2.22,2.22,0,0,0-.51-1.52,1.82,1.82,0,0,0-1.42-.58,1.8,1.8,0,0,0-1.39.58,2.19,2.19,0,0,0-.53,1.58Zm2.84,15.47-2.2-1.19,11.11-17.78,2.2,1.19Zm5-3.87a4.43,4.43,0,0,1,1.38-3.4,5.62,5.62,0,0,1,7.14,0,4.54,4.54,0,0,1,1.37,3.51v1.12a4.5,4.5,0,0,1-1.34,3.39,5,5,0,0,1-3.58,1.29,5,5,0,0,1-3.61-1.3,4.53,4.53,0,0,1-1.36-3.44Zm3,1.21a2.09,2.09,0,0,0,.56,1.47,1.84,1.84,0,0,0,1.41.61c1.27,0,1.91-.7,1.91-2.11v-1.18a2.1,2.1,0,0,0-.54-1.51,1.82,1.82,0,0,0-1.4-.57,1.84,1.84,0,0,0-1.41.57,2.21,2.21,0,0,0-.53,1.55Z"/><path class="cls-1" d="M311,353.58a1.18,1.18,0,0,0-.49-1,4.8,4.8,0,0,0-1.74-.63,8.86,8.86,0,0,1-2-.63,2.83,2.83,0,0,1-1.07-.88,2.14,2.14,0,0,1-.35-1.22,2.47,2.47,0,0,1,1-2,3.86,3.86,0,0,1,2.53-.81,4,4,0,0,1,2.62.83,2.67,2.67,0,0,1,1,2.14h-1.63a1.45,1.45,0,0,0-.57-1.15,2.16,2.16,0,0,0-1.43-.49,2.23,2.23,0,0,0-1.39.39,1.24,1.24,0,0,0-.5,1,1,1,0,0,0,.47.89,5.65,5.65,0,0,0,1.68.57,8.71,8.71,0,0,1,2,.65,2.83,2.83,0,0,1,1.12.91,2.19,2.19,0,0,1,.37,1.3,2.42,2.42,0,0,1-1,2,4.3,4.3,0,0,1-2.65.77,4.79,4.79,0,0,1-2-.41,3.24,3.24,0,0,1-1.37-1.12,2.69,2.69,0,0,1-.5-1.57h1.63a1.64,1.64,0,0,0,.65,1.29,2.53,2.53,0,0,0,1.61.48,2.6,2.6,0,0,0,1.48-.37A1.13,1.13,0,0,0,311,353.58Z"/><path class="cls-1" d="M317.85,353.9l2.36-7.31h1.66l-3.41,9.51h-1.24l-3.44-9.51h1.66Z"/><path class="cls-1" d="M327.38,356.28a4.15,4.15,0,0,1-3.15-1.27,4.76,4.76,0,0,1-1.21-3.4v-.3a5.69,5.69,0,0,1,.54-2.52,4.28,4.28,0,0,1,1.51-1.74,3.81,3.81,0,0,1,2.11-.63,3.56,3.56,0,0,1,2.88,1.22,5.26,5.26,0,0,1,1,3.5v.67h-6.44a3.36,3.36,0,0,0,.82,2.28,2.59,2.59,0,0,0,2,.86,2.8,2.8,0,0,0,1.46-.35,3.52,3.52,0,0,0,1-.93l1,.77A4,4,0,0,1,327.38,356.28Zm-.22-12.18,1.32-1.5h1.41v.09l-2.24,2.41h-1l-2.21-2.41v-.09h1.38Zm0,3.65a2.15,2.15,0,0,0-1.65.72,3.5,3.5,0,0,0-.83,2h4.76v-.12a3.08,3.08,0,0,0-.66-1.92A2,2,0,0,0,327.18,347.75Z"/><path class="cls-1" d="M335.18,344.29v2.3H337v1.26h-1.77v5.91a1.35,1.35,0,0,0,.23.85,1,1,0,0,0,.81.29,4.08,4.08,0,0,0,.78-.11v1.32a5.07,5.07,0,0,1-1.25.17,2,2,0,0,1-1.65-.66,2.87,2.87,0,0,1-.55-1.87v-5.9h-1.73v-1.26h1.73v-2.3Z"/><path class="cls-1" d="M338.24,351.26a5.68,5.68,0,0,1,.55-2.51,4.17,4.17,0,0,1,1.53-1.73,4.22,4.22,0,0,1,2.24-.6,4,4,0,0,1,3.14,1.34,5.18,5.18,0,0,1,1.2,3.58v.11a5.77,5.77,0,0,1-.53,2.5,4.08,4.08,0,0,1-1.52,1.71,4.22,4.22,0,0,1-2.27.62,4,4,0,0,1-3.14-1.34,5.17,5.17,0,0,1-1.2-3.57Zm1.64.19a4,4,0,0,0,.73,2.54,2.49,2.49,0,0,0,3.94,0,4.49,4.49,0,0,0,.73-2.72,4,4,0,0,0-.75-2.53,2.46,2.46,0,0,0-3.91,0A4.44,4.44,0,0,0,339.88,351.45Z"/><path class="cls-1" d="M352,353.9l2.35-7.31H356l-3.41,9.51h-1.24l-3.44-9.51h1.66Z"/><path class="cls-1" d="M360.64,353.72l2.21-7.13h1.74l-3.82,11q-.88,2.37-2.82,2.37l-.31,0-.6-.12v-1.31l.43,0a2.16,2.16,0,0,0,1.29-.33,2.43,2.43,0,0,0,.76-1.23l.36-1-3.39-9.41h1.78Zm.92-11.12h2l-2.36,2.59h-1.3Z"/><path class="cls-1" d="M369.86,355a2.34,2.34,0,0,0,1.52-.52,1.91,1.91,0,0,0,.72-1.32h1.54a3,3,0,0,1-.56,1.55,3.73,3.73,0,0,1-1.39,1.18,4,4,0,0,1-1.83.44,3.89,3.89,0,0,1-3.09-1.3,5.16,5.16,0,0,1-1.15-3.54v-.28a5.77,5.77,0,0,1,.51-2.47,3.85,3.85,0,0,1,1.46-1.67,4.17,4.17,0,0,1,2.26-.6,3.81,3.81,0,0,1,2.66,1,3.44,3.44,0,0,1,1.13,2.48H372.1a2.24,2.24,0,0,0-.7-1.51,2.17,2.17,0,0,0-1.55-.6,2.26,2.26,0,0,0-1.92.9,4.13,4.13,0,0,0-.68,2.58v.3a4.1,4.1,0,0,0,.67,2.53A2.29,2.29,0,0,0,369.86,355Z"/><path class="cls-1" d="M377.09,347.75a3.44,3.44,0,0,1,2.81-1.33q3,0,3.05,3.4v6.28h-1.63v-6.29a2.19,2.19,0,0,0-.47-1.52,1.89,1.89,0,0,0-1.44-.49,2.36,2.36,0,0,0-1.39.42,2.89,2.89,0,0,0-.93,1.11v6.77h-1.62V342.6h1.62Z"/><path class="cls-1" d="M393.78,356.28a4.11,4.11,0,0,1-3.14-1.27,4.72,4.72,0,0,1-1.22-3.4v-.3a5.69,5.69,0,0,1,.54-2.52,4.28,4.28,0,0,1,1.51-1.74,3.81,3.81,0,0,1,2.11-.63,3.56,3.56,0,0,1,2.88,1.22,5.26,5.26,0,0,1,1,3.5v.67h-6.44a3.41,3.41,0,0,0,.82,2.28,2.59,2.59,0,0,0,2,.86,2.8,2.8,0,0,0,1.46-.35,3.56,3.56,0,0,0,1.05-.93l1,.77A4,4,0,0,1,393.78,356.28Zm-.2-8.53a2.15,2.15,0,0,0-1.65.72,3.5,3.5,0,0,0-.83,2h4.77v-.12a3.09,3.09,0,0,0-.67-1.92A2,2,0,0,0,393.58,347.75Z"/><path class="cls-1" d="M400.9,346.59l.05,1.06a3.49,3.49,0,0,1,2.82-1.23,2.71,2.71,0,0,1,2.71,1.53,3.54,3.54,0,0,1,3-1.53q3.14,0,3.19,3.31v6.37h-1.63v-6.27a2.16,2.16,0,0,0-.47-1.53,2.07,2.07,0,0,0-1.56-.5,2.16,2.16,0,0,0-1.5.54,2.2,2.2,0,0,0-.7,1.45v6.31h-1.63v-6.23a1.81,1.81,0,0,0-2-2.07,2.17,2.17,0,0,0-2.19,1.36v6.94h-1.63v-9.51Z"/><path class="cls-1" d="M415.16,344.07a1,1,0,0,1,.24-.67.91.91,0,0,1,.72-.27.94.94,0,0,1,.72.27,1,1,0,0,1,.24.67.87.87,0,0,1-1,.92.91.91,0,0,1-.72-.26A.94.94,0,0,1,415.16,344.07Zm1.76,12h-1.63v-9.51h1.63Z"/><path class="cls-1" d="M425.05,353.58a1.18,1.18,0,0,0-.49-1,4.73,4.73,0,0,0-1.73-.63,8.52,8.52,0,0,1-2-.63,2.79,2.79,0,0,1-1.08-.88,2.13,2.13,0,0,1-.34-1.22,2.48,2.48,0,0,1,1-2,3.88,3.88,0,0,1,2.53-.81,4,4,0,0,1,2.63.83,2.66,2.66,0,0,1,1,2.14H425a1.45,1.45,0,0,0-.57-1.15,2.14,2.14,0,0,0-1.43-.49,2.23,2.23,0,0,0-1.39.39,1.24,1.24,0,0,0-.5,1,1,1,0,0,0,.47.89,5.65,5.65,0,0,0,1.68.57,8.71,8.71,0,0,1,2,.65,2.94,2.94,0,0,1,1.13.91,2.26,2.26,0,0,1,.36,1.3,2.42,2.42,0,0,1-1,2,4.3,4.3,0,0,1-2.65.77,4.79,4.79,0,0,1-2-.41,3.24,3.24,0,0,1-1.37-1.12,2.76,2.76,0,0,1-.5-1.57h1.63a1.67,1.67,0,0,0,.65,1.29A2.55,2.55,0,0,0,423,355a2.65,2.65,0,0,0,1.49-.37A1.14,1.14,0,0,0,425.05,353.58Z"/><path class="cls-1" d="M430.58,342.61h2l-2.35,2.59h-1.31Zm0,13.49h-1.63v-9.51h1.63Z"/><path class="cls-1" d="M371.91,500.48h-4.67V504h5.46v1.57h-7.43V494.18h7.38v1.59h-5.41v3.14h4.67Z"/><path class="cls-1" d="M382.63,494.18v7.6a3.66,3.66,0,0,1-1.16,2.87,4.38,4.38,0,0,1-3.09,1.06,4.47,4.47,0,0,1-3.1-1,3.74,3.74,0,0,1-1.15-2.9v-7.59h2v7.61a2.39,2.39,0,0,0,.58,1.74,2.26,2.26,0,0,0,1.7.6q2.28,0,2.28-2.4v-7.55Z"/><path class="cls-1" d="M388.24,501.48h-4.1V500h4.1Z"/><path class="cls-1" d="M397.34,505.55h-7.65v-1.3l3.79-4.13a10.42,10.42,0,0,0,1.17-1.53,2.49,2.49,0,0,0,.34-1.23,1.88,1.88,0,0,0-.45-1.31,1.58,1.58,0,0,0-1.23-.5,1.79,1.79,0,0,0-1.43.56,2.2,2.2,0,0,0-.51,1.54h-1.9a3.76,3.76,0,0,1,.47-1.87,3.32,3.32,0,0,1,1.35-1.3,4.43,4.43,0,0,1,2-.46,3.79,3.79,0,0,1,2.61.84,2.87,2.87,0,0,1,1,2.3,3.9,3.9,0,0,1-.48,1.78,10.09,10.09,0,0,1-1.57,2.12l-2.78,3h5.28Z"/><path class="cls-1" d="M406.35,495.23l-4.54,10.32h-2l4.54-9.85h-5.88v-1.52h7.88Z"/><path class="cls-1" d="M418.78,497.11a2.6,2.6,0,0,1-.51,1.58,3,3,0,0,1-1.36,1,3.35,3.35,0,0,1,1.58,1.08,2.75,2.75,0,0,1,.59,1.74,2.93,2.93,0,0,1-1,2.32,4.51,4.51,0,0,1-5.27,0,2.93,2.93,0,0,1-1-2.32,2.81,2.81,0,0,1,.57-1.73,3.17,3.17,0,0,1,1.56-1.09,2.88,2.88,0,0,1-1.34-1,2.59,2.59,0,0,1-.5-1.58,2.9,2.9,0,0,1,.91-2.25,3.86,3.86,0,0,1,4.82,0A2.87,2.87,0,0,1,418.78,497.11Zm-.64,5.44a2.24,2.24,0,0,0-.76-1.75,3.1,3.1,0,0,0-3.86,0,2.25,2.25,0,0,0-.75,1.76,2.21,2.21,0,0,0,.72,1.73,3.32,3.32,0,0,0,3.92,0A2.17,2.17,0,0,0,418.14,502.55Zm-.3-5.45a2.18,2.18,0,0,0-.67-1.63,2.64,2.64,0,0,0-3.45,0,2.18,2.18,0,0,0-.66,1.65,2.09,2.09,0,0,0,.66,1.61,2.76,2.76,0,0,0,3.46,0A2.1,2.1,0,0,0,417.84,497.1Z"/><path class="cls-1" d="M420.9,507.68l-.56-.41a3.37,3.37,0,0,0,.74-2v-1.21H422v1A3.35,3.35,0,0,1,420.9,507.68Z"/><path class="cls-1" d="M429.52,494.09v.82h-.11a4.28,4.28,0,0,0-3.21,1.2,5,5,0,0,0-1.29,3.33,3.21,3.21,0,0,1,1.19-1,3.64,3.64,0,0,1,1.63-.35,3,3,0,0,1,2.38,1,4,4,0,0,1,.89,2.71,4.8,4.8,0,0,1-.41,2,3.28,3.28,0,0,1-1.19,1.38,3.15,3.15,0,0,1-1.77.5,3.32,3.32,0,0,1-2.65-1.18,4.48,4.48,0,0,1-1-3.06v-.94a7.25,7.25,0,0,1,1.39-4.73,4.93,4.93,0,0,1,4-1.71Zm-1.94,4.81a2.86,2.86,0,0,0-1.66.52,2.58,2.58,0,0,0-1,1.34v.8a3.71,3.71,0,0,0,.76,2.42,2.45,2.45,0,0,0,2,.93,2.15,2.15,0,0,0,1.77-.86,3.47,3.47,0,0,0,.68-2.19,3.26,3.26,0,0,0-.68-2.15A2.25,2.25,0,0,0,427.58,498.9Z"/><path class="cls-1" d="M436.55,496.37a2.38,2.38,0,0,1,.63-1.69,2.09,2.09,0,0,1,1.59-.66,2.11,2.11,0,0,1,1.6.66,2.44,2.44,0,0,1,.63,1.73V497a2.38,2.38,0,0,1-.62,1.67,2.27,2.27,0,0,1-3.19,0,2.38,2.38,0,0,1-.64-1.74Zm.75.59a1.76,1.76,0,0,0,.41,1.2,1.45,1.45,0,0,0,2.14,0,1.89,1.89,0,0,0,.39-1.23v-.57a1.79,1.79,0,0,0-.4-1.2,1.36,1.36,0,0,0-1.07-.47,1.33,1.33,0,0,0-1.06.47,1.84,1.84,0,0,0-.41,1.25Zm1.79,7.65-.59-.38,5.55-8.89.59.38Zm3.18-1.84a2.33,2.33,0,0,1,.63-1.68,2.08,2.08,0,0,1,1.59-.67,2.13,2.13,0,0,1,1.6.66,2.42,2.42,0,0,1,.64,1.74v.55a2.33,2.33,0,0,1-.63,1.68,2.08,2.08,0,0,1-1.59.67,2.14,2.14,0,0,1-1.6-.66,2.41,2.41,0,0,1-.64-1.72Zm.75.6a1.81,1.81,0,0,0,.41,1.21,1.34,1.34,0,0,0,1.08.47,1.29,1.29,0,0,0,1.06-.48,1.83,1.83,0,0,0,.4-1.24v-.57a1.77,1.77,0,0,0-.4-1.21,1.39,1.39,0,0,0-1.08-.46,1.34,1.34,0,0,0-1.06.47,1.77,1.77,0,0,0-.41,1.23Z"/><path class="cls-1" d="M111,395.39h2v8a3.38,3.38,0,0,1-1,2.59,3.72,3.72,0,0,1-2.69,1,3.89,3.89,0,0,1-2.75-.9,3.28,3.28,0,0,1-1-2.5h2a1.86,1.86,0,0,0,.45,1.36,1.76,1.76,0,0,0,1.3.46,1.62,1.62,0,0,0,1.27-.53,2.09,2.09,0,0,0,.47-1.46Z"/><path class="cls-1" d="M120.12,406.77a2.65,2.65,0,0,1-.22-.79,3,3,0,0,1-2.22.95,3,3,0,0,1-2.08-.73,2.35,2.35,0,0,1-.8-1.8,2.39,2.39,0,0,1,1-2.07,4.89,4.89,0,0,1,2.87-.72h1.17v-.56a1.33,1.33,0,0,0-1.49-1.44,1.65,1.65,0,0,0-1.06.32,1,1,0,0,0-.41.82H115a2.11,2.11,0,0,1,.46-1.3,3.11,3.11,0,0,1,1.25-.95,4.4,4.4,0,0,1,1.77-.34,3.54,3.54,0,0,1,2.37.75,2.61,2.61,0,0,1,.9,2.09v3.82a4.4,4.4,0,0,0,.32,1.82v.13ZM118,405.4a2.17,2.17,0,0,0,1.06-.27,1.84,1.84,0,0,0,.75-.74V402.8h-1a2.73,2.73,0,0,0-1.58.37,1.17,1.17,0,0,0-.53,1,1.12,1.12,0,0,0,.36.87A1.44,1.44,0,0,0,118,405.4Z"/><path class="cls-1" d="M131.13,402.63a5,5,0,0,1-.9,3.13,3.08,3.08,0,0,1-4.61.25v4h-1.9v-11.7h1.75l.08.86a2.76,2.76,0,0,1,2.27-1,2.89,2.89,0,0,1,2.43,1.15,5.22,5.22,0,0,1,.88,3.2Zm-1.9-.17a3.47,3.47,0,0,0-.5-2,1.64,1.64,0,0,0-1.44-.75,1.73,1.73,0,0,0-1.67,1v3.75a1.76,1.76,0,0,0,1.68,1,1.62,1.62,0,0,0,1.42-.73A3.92,3.92,0,0,0,129.23,402.46Z"/><path class="cls-1" d="M132.38,402.46a4.94,4.94,0,0,1,.49-2.23,3.63,3.63,0,0,1,1.38-1.54,4,4,0,0,1,2.05-.53,3.69,3.69,0,0,1,2.77,1.1,4.32,4.32,0,0,1,1.16,2.92v.45a5,5,0,0,1-.48,2.23,3.52,3.52,0,0,1-1.37,1.53,3.94,3.94,0,0,1-2.07.54,3.66,3.66,0,0,1-2.86-1.2,4.53,4.53,0,0,1-1.07-3.17Zm1.89.17a3.39,3.39,0,0,0,.54,2,1.88,1.88,0,0,0,3,0,3.74,3.74,0,0,0,.53-2.2,3.35,3.35,0,0,0-.55-2,1.85,1.85,0,0,0-3,0A3.73,3.73,0,0,0,134.27,402.63Z"/><path class="cls-1" d="M143.6,398.32l.06,1a3,3,0,0,1,2.46-1.13c1.76,0,2.65,1,2.68,3v5.59h-1.89v-5.48a1.76,1.76,0,0,0-.35-1.19,1.45,1.45,0,0,0-1.14-.39,1.84,1.84,0,0,0-1.71,1v6h-1.9v-8.45Z"/><path class="cls-1" d="M155.48,404.47a.86.86,0,0,0-.42-.77,4.48,4.48,0,0,0-1.39-.47,7.53,7.53,0,0,1-1.62-.52,2.16,2.16,0,0,1-1.42-2,2.26,2.26,0,0,1,.92-1.83,3.66,3.66,0,0,1,2.35-.73,3.79,3.79,0,0,1,2.45.75,2.39,2.39,0,0,1,.93,1.95h-1.9a1.19,1.19,0,0,0-.4-.92,1.57,1.57,0,0,0-1.08-.36,1.69,1.69,0,0,0-1,.29.92.92,0,0,0-.4.77.77.77,0,0,0,.37.68,5,5,0,0,0,1.49.49,7.08,7.08,0,0,1,1.75.59,2.57,2.57,0,0,1,.95.81,2.15,2.15,0,0,1,.3,1.16,2.2,2.2,0,0,1-.94,1.85,4.05,4.05,0,0,1-2.48.71,4.37,4.37,0,0,1-1.85-.38,3.1,3.1,0,0,1-1.27-1,2.46,2.46,0,0,1-.45-1.41h1.85a1.32,1.32,0,0,0,.5,1,2,2,0,0,0,1.25.36,1.92,1.92,0,0,0,1.14-.28A.89.89,0,0,0,155.48,404.47Z"/><path class="cls-1" d="M161.74,403.14l-.84.87v2.76H159v-12h1.9v6.92l.59-.74,2.34-2.63h2.28L163,401.84l3.48,4.93h-2.2Z"/><path class="cls-1" d="M167,402.46a5.07,5.07,0,0,1,.49-2.23,3.59,3.59,0,0,1,1.39-1.54,3.92,3.92,0,0,1,2-.53,3.71,3.71,0,0,1,2.78,1.1,4.31,4.31,0,0,1,1.15,2.92v.45a5,5,0,0,1-.48,2.23,3.58,3.58,0,0,1-1.37,1.53,3.94,3.94,0,0,1-2.07.54,3.64,3.64,0,0,1-2.86-1.2,4.53,4.53,0,0,1-1.08-3.17Zm1.9.17a3.39,3.39,0,0,0,.54,2,1.88,1.88,0,0,0,3,0,3.82,3.82,0,0,0,.53-2.2,3.35,3.35,0,0,0-.55-2,1.77,1.77,0,0,0-1.5-.75,1.73,1.73,0,0,0-1.47.74A3.66,3.66,0,0,0,168.89,402.63Z"/><path class="cls-1" d="M182.62,400.57h1a3.24,3.24,0,0,0,1.4-.28,2.15,2.15,0,0,0,.92-.78,2.09,2.09,0,0,0,.32-1.15,2.31,2.31,0,0,0-.62-1.71,2.4,2.4,0,0,0-1.77-.62,2.57,2.57,0,0,0-1.8.65,2.23,2.23,0,0,0-.7,1.7h-.93a3,3,0,0,1,1.68-2.74,3.76,3.76,0,0,1,1.75-.4,3.39,3.39,0,0,1,2.43.84,3,3,0,0,1,.89,2.31,2.48,2.48,0,0,1-.52,1.52,3.09,3.09,0,0,1-1.42,1,3,3,0,0,1,1.61,1,2.81,2.81,0,0,1,.55,1.72,3,3,0,0,1-1,2.35,3.54,3.54,0,0,1-2.54.9,4.3,4.3,0,0,1-1.87-.41,3.11,3.11,0,0,1-1.31-1.14,3.07,3.07,0,0,1-.47-1.7h.94a2.24,2.24,0,0,0,.76,1.77,2.77,2.77,0,0,0,1.95.69,2.7,2.7,0,0,0,1.88-.62,2.35,2.35,0,0,0,.68-1.81,2.14,2.14,0,0,0-.73-1.74,3.35,3.35,0,0,0-2.16-.6h-.93Z"/><path class="cls-1" d="M189.36,408.89l-.56-.4a3.42,3.42,0,0,0,.74-2V405.3h.91v1A3.35,3.35,0,0,1,189.36,408.89Z"/><path class="cls-1" d="M194.55,400.57h1a3.24,3.24,0,0,0,1.4-.28,2.15,2.15,0,0,0,.92-.78,2.09,2.09,0,0,0,.32-1.15,2.31,2.31,0,0,0-.62-1.71,2.4,2.4,0,0,0-1.77-.62,2.57,2.57,0,0,0-1.8.65,2.23,2.23,0,0,0-.7,1.7h-.93a3,3,0,0,1,1.68-2.74,3.76,3.76,0,0,1,1.75-.4,3.39,3.39,0,0,1,2.43.84,3,3,0,0,1,.89,2.31,2.48,2.48,0,0,1-.52,1.52,3.09,3.09,0,0,1-1.42,1,3,3,0,0,1,1.61,1,2.8,2.8,0,0,1,.54,1.72,3,3,0,0,1-1,2.35,3.54,3.54,0,0,1-2.55.9,4.29,4.29,0,0,1-1.86-.41,3.11,3.11,0,0,1-1.31-1.14,3.07,3.07,0,0,1-.47-1.7h.94a2.24,2.24,0,0,0,.76,1.77,2.76,2.76,0,0,0,1.94.69,2.71,2.71,0,0,0,1.89-.62,2.35,2.35,0,0,0,.68-1.81,2.14,2.14,0,0,0-.73-1.74,3.35,3.35,0,0,0-2.16-.6h-.93Z"/><path class="cls-1" d="M205,397.58a2.33,2.33,0,0,1,.63-1.68,2.23,2.23,0,0,1,3.19,0,2.41,2.41,0,0,1,.63,1.73v.55a2.36,2.36,0,0,1-.62,1.67,2,2,0,0,1-1.59.67,2.14,2.14,0,0,1-1.6-.66,2.34,2.34,0,0,1-.64-1.73Zm.76.6a1.79,1.79,0,0,0,.4,1.2,1.36,1.36,0,0,0,1.08.47,1.3,1.3,0,0,0,1.06-.48,1.84,1.84,0,0,0,.39-1.22v-.57a1.76,1.76,0,0,0-.4-1.2,1.42,1.42,0,0,0-2.12,0,1.8,1.8,0,0,0-.41,1.25Zm1.78,7.64-.59-.37,5.56-8.89.58.37Zm3.18-1.84a2.33,2.33,0,0,1,.63-1.68,2.1,2.1,0,0,1,1.59-.66,2.13,2.13,0,0,1,1.6.66,2.37,2.37,0,0,1,.64,1.73v.56a2.33,2.33,0,0,1-.63,1.68,2.1,2.1,0,0,1-1.59.66,2.14,2.14,0,0,1-1.6-.66,2.39,2.39,0,0,1-.64-1.72Zm.75.61a1.76,1.76,0,0,0,.41,1.2,1.46,1.46,0,0,0,2.15,0,1.9,1.9,0,0,0,.39-1.24V404a1.73,1.73,0,0,0-.4-1.21,1.47,1.47,0,0,0-2.14,0,1.82,1.82,0,0,0-.41,1.24Z"/><path class="cls-1" d="M69.34,222.68a6.9,6.9,0,0,1-.58,2.93,4.45,4.45,0,0,1-1.65,1.94,4.89,4.89,0,0,1-4.94,0,4.39,4.39,0,0,1-1.67-1.93,6.56,6.56,0,0,1-.6-2.88v-.64a7,7,0,0,1,.59-2.94,4.44,4.44,0,0,1,1.66-1.95,4.9,4.9,0,0,1,4.93,0,4.37,4.37,0,0,1,1.66,1.93,7,7,0,0,1,.6,2.91Zm-2-.6a5,5,0,0,0-.71-2.89,2.53,2.53,0,0,0-4,0,4.9,4.9,0,0,0-.73,2.84v.66a4.93,4.93,0,0,0,.73,2.9,2.34,2.34,0,0,0,2,1,2.31,2.31,0,0,0,2-1,5,5,0,0,0,.71-2.92Z"/><path class="cls-1" d="M75.86,225.77a.84.84,0,0,0-.42-.77,4.25,4.25,0,0,0-1.38-.47,7.18,7.18,0,0,1-1.62-.52A2.15,2.15,0,0,1,71,222a2.24,2.24,0,0,1,.92-1.83,3.62,3.62,0,0,1,2.34-.73,3.79,3.79,0,0,1,2.45.75,2.39,2.39,0,0,1,.94,1.94h-1.9a1.19,1.19,0,0,0-.41-.91,1.57,1.57,0,0,0-1.08-.36,1.73,1.73,0,0,0-1,.29.91.91,0,0,0-.39.77.76.76,0,0,0,.37.68,4.92,4.92,0,0,0,1.48.49,6.56,6.56,0,0,1,1.75.59,2.41,2.41,0,0,1,1,.81,2.07,2.07,0,0,1,.31,1.16,2.21,2.21,0,0,1-1,1.85,4,4,0,0,1-2.47.7,4.41,4.41,0,0,1-1.86-.37,3,3,0,0,1-1.26-1,2.47,2.47,0,0,1-.45-1.42h1.84a1.36,1.36,0,0,0,.51,1,2,2,0,0,0,1.24.36,1.92,1.92,0,0,0,1.14-.28A.89.89,0,0,0,75.86,225.77Z"/><path class="cls-1" d="M81.76,217.56v2.05h1.49V221H81.76v4.72a1,1,0,0,0,.19.7.91.91,0,0,0,.68.21,3.11,3.11,0,0,0,.67-.07V228a4.66,4.66,0,0,1-1.25.18c-1.46,0-2.19-.8-2.19-2.41V221H78.47v-1.41h1.39v-2.05Z"/><path class="cls-1" d="M89.75,228.07a3.45,3.45,0,0,1-.22-.79,2.94,2.94,0,0,1-2.22.94,3,3,0,0,1-2.07-.72,2.34,2.34,0,0,1-.81-1.8,2.39,2.39,0,0,1,1-2.07,4.77,4.77,0,0,1,2.87-.73h1.16v-.55a1.45,1.45,0,0,0-.37-1,1.41,1.41,0,0,0-1.11-.4,1.67,1.67,0,0,0-1.07.33,1,1,0,0,0-.41.82h-1.9a2.09,2.09,0,0,1,.46-1.3,3.14,3.14,0,0,1,1.26-.95,4.33,4.33,0,0,1,1.77-.34,3.58,3.58,0,0,1,2.36.74,2.68,2.68,0,0,1,.91,2.1v3.81a4.45,4.45,0,0,0,.32,1.83v.13Zm-2.08-1.37a2.16,2.16,0,0,0,1-.27,1.84,1.84,0,0,0,.75-.74V224.1h-1a2.77,2.77,0,0,0-1.59.37,1.19,1.19,0,0,0-.53,1,1.12,1.12,0,0,0,.36.87A1.46,1.46,0,0,0,87.67,226.7Z"/><path class="cls-1" d="M95.74,217.56v2.05h1.49V221H95.74v4.72a1,1,0,0,0,.19.7.89.89,0,0,0,.68.21,3.11,3.11,0,0,0,.67-.07V228a4.72,4.72,0,0,1-1.25.18c-1.46,0-2.19-.8-2.19-2.41V221H92.45v-1.41h1.39v-2.05Z"/><path class="cls-1" d="M100.44,219.61l0,1a3.06,3.06,0,0,1,2.46-1.13c1.77,0,2.66,1,2.69,3v5.59h-1.9v-5.48a1.74,1.74,0,0,0-.34-1.19,1.47,1.47,0,0,0-1.14-.39,1.82,1.82,0,0,0-1.71,1v6h-1.9v-8.46Z"/><path class="cls-1" d="M109.62,228.07h-1.9v-8.46h1.9Zm-.36-11.95h2.16l-2.16,2.37h-1.52Z"/><path class="cls-1" d="M115.25,226.71a1.69,1.69,0,0,0,1.18-.42,1.4,1.4,0,0,0,.5-1h1.79a2.72,2.72,0,0,1-.49,1.47,3.31,3.31,0,0,1-1.25,1.09,3.82,3.82,0,0,1-1.7.39,3.62,3.62,0,0,1-2.82-1.14,4.6,4.6,0,0,1-1-3.18v-.19a4.5,4.5,0,0,1,1-3.09,3.6,3.6,0,0,1,2.82-1.16,3.44,3.44,0,0,1,2.45.88,3.1,3.1,0,0,1,1,2.31h-1.79a1.77,1.77,0,0,0-.49-1.2,1.62,1.62,0,0,0-1.19-.47,1.66,1.66,0,0,0-1.42.67,3.48,3.48,0,0,0-.51,2v.3a3.46,3.46,0,0,0,.5,2.05A1.67,1.67,0,0,0,115.25,226.71Z"/><path class="cls-1" d="M122,220.54a3,3,0,0,1,2.35-1.08c1.8,0,2.71,1,2.74,3.08v5.53h-1.9v-5.46a1.66,1.66,0,0,0-.38-1.23,1.5,1.5,0,0,0-1.11-.37,1.82,1.82,0,0,0-1.7,1v6h-1.9v-12H122Z"/><path class="cls-1" d="M138,228.07h-1.89v-9.14l-2.79.95v-1.59l4.44-1.64H138Z"/><path class="cls-1" d="M149.41,223.28a6.23,6.23,0,0,1-.92,3.7,3.23,3.23,0,0,1-2.79,1.24,3.28,3.28,0,0,1-2.78-1.21,6,6,0,0,1-1-3.6v-2a6.14,6.14,0,0,1,.92-3.68,3.26,3.26,0,0,1,2.8-1.22,3.32,3.32,0,0,1,2.79,1.19,6,6,0,0,1,.94,3.58Zm-1.9-2.13a4.79,4.79,0,0,0-.44-2.34,1.48,1.48,0,0,0-1.39-.75,1.51,1.51,0,0,0-1.37.71,4.48,4.48,0,0,0-.46,2.2v2.58a4.92,4.92,0,0,0,.45,2.38,1.5,1.5,0,0,0,1.4.78,1.47,1.47,0,0,0,1.35-.72,4.77,4.77,0,0,0,.46-2.27Z"/><path class="cls-1" d="M158.66,217.75l-4.55,10.32h-2l4.54-9.85h-5.88v-1.53h7.88Z"/><path class="cls-1" d="M169,225.77a.84.84,0,0,0-.42-.77,4.23,4.23,0,0,0-1.39-.47,7.35,7.35,0,0,1-1.62-.52,2.15,2.15,0,0,1-1.42-2,2.26,2.26,0,0,1,.92-1.83,3.66,3.66,0,0,1,2.35-.73,3.81,3.81,0,0,1,2.45.75,2.38,2.38,0,0,1,.93,1.94h-1.9a1.18,1.18,0,0,0-.4-.91,1.58,1.58,0,0,0-1.08-.36,1.69,1.69,0,0,0-1,.29.89.89,0,0,0-.4.77.76.76,0,0,0,.37.68,5,5,0,0,0,1.48.49,6.78,6.78,0,0,1,1.76.59,2.37,2.37,0,0,1,.94.81,2.07,2.07,0,0,1,.31,1.16,2.2,2.2,0,0,1-.94,1.85,4.05,4.05,0,0,1-2.48.7,4.37,4.37,0,0,1-1.85-.37,3,3,0,0,1-1.27-1,2.47,2.47,0,0,1-.45-1.42h1.84a1.36,1.36,0,0,0,.51,1,2,2,0,0,0,1.24.36,1.92,1.92,0,0,0,1.14-.28A.87.87,0,0,0,169,225.77Z"/><path class="cls-1" d="M174.92,217.56v2.05h1.5V221h-1.5v4.72a1.08,1.08,0,0,0,.19.7.92.92,0,0,0,.69.21,3,3,0,0,0,.66-.07V228a4.66,4.66,0,0,1-1.25.18c-1.46,0-2.18-.8-2.18-2.41V221h-1.4v-1.41H173v-2.05Z"/><path class="cls-1" d="M182.92,228.07a2.65,2.65,0,0,1-.22-.79,3,3,0,0,1-2.22.94,3,3,0,0,1-2.08-.72,2.33,2.33,0,0,1-.8-1.8,2.39,2.39,0,0,1,1-2.07,4.81,4.81,0,0,1,2.87-.73h1.16v-.55a1.49,1.49,0,0,0-.36-1,1.45,1.45,0,0,0-1.12-.4,1.64,1.64,0,0,0-1.06.33,1,1,0,0,0-.42.82h-1.89a2.09,2.09,0,0,1,.46-1.3,3,3,0,0,1,1.25-.95,4.4,4.4,0,0,1,1.77-.34,3.59,3.59,0,0,1,2.37.74,2.64,2.64,0,0,1,.9,2.1v3.81a4.45,4.45,0,0,0,.32,1.83v.13Zm-2.09-1.37a2.2,2.2,0,0,0,1.06-.27,1.82,1.82,0,0,0,.74-.74V224.1h-1a2.73,2.73,0,0,0-1.58.37,1.18,1.18,0,0,0-.54,1,1.1,1.1,0,0,0,.37.87A1.42,1.42,0,0,0,180.83,226.7Zm1-10.63h2.17l-2.17,2.37h-1.52Z"/><path class="cls-1" d="M188.9,217.56v2.05h1.49V221H188.9v4.72a1,1,0,0,0,.19.7.92.92,0,0,0,.69.21,3,3,0,0,0,.66-.07V228a4.66,4.66,0,0,1-1.25.18c-1.46,0-2.19-.8-2.19-2.41V221h-1.39v-1.41H187v-2.05Z"/><path class="cls-1" d="M197,227.24a2.93,2.93,0,0,1-2.37,1,2.6,2.6,0,0,1-2.08-.8,3.38,3.38,0,0,1-.71-2.33v-5.48h1.9v5.46c0,1.07.44,1.61,1.33,1.61a1.88,1.88,0,0,0,1.87-1v-6.08h1.9v8.46H197Zm-1.64-11.91a1.7,1.7,0,0,1,1.23.48,1.56,1.56,0,0,1,.5,1.15,1.49,1.49,0,0,1-.49,1.13,1.87,1.87,0,0,1-2.48,0,1.49,1.49,0,0,1-.49-1.13,1.55,1.55,0,0,1,.49-1.15A1.72,1.72,0,0,1,195.32,215.33Zm-.87,1.63a.84.84,0,0,0,.25.62.86.86,0,0,0,.62.25.87.87,0,0,0,.88-.87.89.89,0,0,0-.25-.62.79.79,0,0,0-.63-.26.82.82,0,0,0-.63.26A.88.88,0,0,0,194.45,217Z"/><path class="cls-1" d="M211.94,228.07h-7.13v-.72l3.9-4.42a10.11,10.11,0,0,0,1.35-1.85,3,3,0,0,0,.37-1.41,2.31,2.31,0,0,0-.63-1.71,2.35,2.35,0,0,0-1.74-.63,2.46,2.46,0,0,0-1.86.74,2.63,2.63,0,0,0-.71,1.9h-.93a3.58,3.58,0,0,1,.44-1.75,3.1,3.1,0,0,1,1.23-1.23,3.68,3.68,0,0,1,1.83-.45,3.43,3.43,0,0,1,2.44.82,2.91,2.91,0,0,1,.88,2.23,3.81,3.81,0,0,1-.5,1.74,12.58,12.58,0,0,1-1.75,2.36L206,227.28h6Z"/><path class="cls-1" d="M218,228.07h-.93V217.82L214,219v-.88l3.88-1.44H218Z"/><path class="cls-1" d="M222.5,230.19l-.55-.4a3.41,3.41,0,0,0,.73-2V226.6h.92v1A3.35,3.35,0,0,1,222.5,230.19Z"/><path class="cls-1" d="M231.13,216.61v.81H231a4.28,4.28,0,0,0-3.21,1.2,5,5,0,0,0-1.3,3.34,3.23,3.23,0,0,1,1.19-1,3.78,3.78,0,0,1,1.63-.35,3,3,0,0,1,2.39,1,4,4,0,0,1,.88,2.71,4.62,4.62,0,0,1-.41,2,3.14,3.14,0,0,1-2.95,1.88,3.34,3.34,0,0,1-2.66-1.18,4.52,4.52,0,0,1-1-3.06V223a7.21,7.21,0,0,1,1.39-4.73,4.92,4.92,0,0,1,3.94-1.7Zm-1.95,4.8a2.9,2.9,0,0,0-1.66.53,2.55,2.55,0,0,0-1,1.34v.79a3.69,3.69,0,0,0,.77,2.42,2.43,2.43,0,0,0,2,.94,2.13,2.13,0,0,0,1.77-.87,3.43,3.43,0,0,0,.67-2.18,3.26,3.26,0,0,0-.67-2.16A2.26,2.26,0,0,0,229.18,221.41Z"/><path class="cls-1" d="M238.15,218.88a2.33,2.33,0,0,1,.63-1.68,2.08,2.08,0,0,1,1.6-.67,2.06,2.06,0,0,1,1.59.67,2.41,2.41,0,0,1,.63,1.73v.55a2.34,2.34,0,0,1-.62,1.67,2,2,0,0,1-1.59.67,2.14,2.14,0,0,1-1.6-.66,2.36,2.36,0,0,1-.64-1.73Zm.76.6a1.79,1.79,0,0,0,.4,1.2,1.36,1.36,0,0,0,1.08.47,1.3,1.3,0,0,0,1.06-.48,1.85,1.85,0,0,0,.4-1.22v-.57a1.81,1.81,0,0,0-.41-1.21,1.35,1.35,0,0,0-1.06-.47,1.34,1.34,0,0,0-1.06.47,1.8,1.8,0,0,0-.41,1.25Zm1.78,7.64-.59-.37,5.56-8.89.58.37Zm3.19-1.84a2.33,2.33,0,0,1,.63-1.68,2.25,2.25,0,0,1,3.18,0,2.34,2.34,0,0,1,.64,1.73v.56a2.35,2.35,0,0,1-.63,1.68,2.1,2.1,0,0,1-1.59.66,2.14,2.14,0,0,1-1.6-.66,2.38,2.38,0,0,1-.63-1.72Zm.75.6a1.78,1.78,0,0,0,.4,1.21,1.36,1.36,0,0,0,1.08.47,1.34,1.34,0,0,0,1.07-.47,1.9,1.9,0,0,0,.39-1.24v-.58a1.77,1.77,0,0,0-.4-1.21,1.37,1.37,0,0,0-1.07-.45,1.35,1.35,0,0,0-1.07.46,1.81,1.81,0,0,0-.4,1.24Z"/></svg>