<?xml version="1.0" encoding="UTF-8"?>
<svg id="Layer_1" data-name="Layer 1" xmlns="http://www.w3.org/2000/svg" viewBox="0 0 440 331.28">
  <defs>
    <style>
      .cls-1 {
        fill: #fff;
      }

      .cls-2 {
        fill: #b8c3cc;
      }

      .cls-3 {
        fill: #666c80;
      }

      .cls-4 {
        fill: #4c5c68;
      }

      .cls-5 {
        fill: #606060;
      }

      .cls-6 {
        fill: rgba(80, 103, 115, .3);
      }

      .cls-7 {
        stroke: #4c5c68;
        stroke-width: 2px;
      }

      .cls-7, .cls-8, .cls-9, .cls-10 {
        fill: none;
        stroke-miterlimit: 10;
      }

      .cls-8 {
        stroke: #b8c3cc;
      }

      .cls-9 {
        stroke: #ccc;
      }

      .cls-10 {
        stroke: #606060;
      }
    </style>
  </defs>
  <rect class="cls-1" x="-49.88" y="-22.99" width="6217.85" height="1265.86"/>
  <g>
    <g>
      <path class="cls-5" d="m164.9,297.16h-6.06v-.84l3.2-3.55c.47-.54.8-.97.98-1.31.18-.34.27-.68.27-1.04,0-.48-.15-.88-.44-1.19s-.68-.46-1.17-.46c-.58,0-1.04.17-1.36.5-.32.33-.49.79-.49,1.39h-1.17c0-.85.27-1.54.82-2.06.55-.52,1.28-.79,2.2-.79.86,0,1.54.23,2.04.68.5.45.75,1.05.75,1.8,0,.91-.58,1.99-1.74,3.25l-2.48,2.69h4.64v.96Z"/>
      <path class="cls-5" d="m171.94,293.21c0,1.38-.23,2.4-.7,3.07s-1.2,1-2.2,1-1.72-.33-2.19-.98c-.47-.65-.72-1.63-.74-2.93v-1.57c0-1.36.23-2.37.7-3.03s1.21-.99,2.21-.99,1.73.32,2.2.96c.47.64.71,1.62.72,2.95v1.52Zm-1.17-1.61c0-.99-.14-1.72-.42-2.17-.28-.46-.72-.68-1.33-.68s-1.04.23-1.31.68-.42,1.15-.43,2.09v1.88c0,1,.15,1.74.43,2.21.29.48.73.71,1.32.71s1.01-.22,1.29-.67c.28-.45.43-1.16.44-2.12v-1.92Z"/>
      <path class="cls-5" d="m175.15,291.96h.88c.55,0,.99-.15,1.31-.44s.48-.67.48-1.15c0-1.08-.54-1.62-1.62-1.62-.51,0-.91.15-1.22.43-.3.29-.45.67-.45,1.15h-1.17c0-.73.27-1.34.8-1.83.54-.48,1.22-.73,2.04-.73.87,0,1.56.23,2.05.69s.74,1.1.74,1.92c0,.4-.13.79-.39,1.17-.26.38-.61.66-1.06.84.51.16.9.43,1.18.8.28.37.42.83.42,1.36,0,.83-.27,1.49-.81,1.97s-1.25.73-2.11.73-1.57-.23-2.12-.7c-.54-.47-.82-1.09-.82-1.86h1.18c0,.49.16.88.48,1.17s.74.44,1.28.44c.57,0,1-.15,1.3-.44s.45-.72.45-1.28-.17-.95-.5-1.24-.81-.44-1.43-.44h-.88v-.96Z"/>
      <path class="cls-5" d="m186.54,293.21c0,1.38-.23,2.4-.7,3.07s-1.2,1-2.2,1-1.72-.33-2.19-.98c-.47-.65-.72-1.63-.74-2.93v-1.57c0-1.36.23-2.37.7-3.03s1.21-.99,2.21-.99,1.73.32,2.2.96c.47.64.71,1.62.72,2.95v1.52Zm-1.17-1.61c0-.99-.14-1.72-.42-2.17-.28-.46-.72-.68-1.33-.68s-1.04.23-1.31.68-.42,1.15-.43,2.09v1.88c0,1,.15,1.74.43,2.21.29.48.73.71,1.32.71s1.01-.22,1.29-.67c.28-.45.43-1.16.44-2.12v-1.92Z"/>
    </g>
    <g>
      <path class="cls-5" d="m164.9,297.16h-6.06v-.84l3.2-3.55c.47-.54.8-.97.98-1.31.18-.34.27-.68.27-1.04,0-.48-.15-.88-.44-1.19s-.68-.46-1.17-.46c-.58,0-1.04.17-1.36.5-.32.33-.49.79-.49,1.39h-1.17c0-.85.27-1.54.82-2.06.55-.52,1.28-.79,2.2-.79.86,0,1.54.23,2.04.68.5.45.75,1.05.75,1.8,0,.91-.58,1.99-1.74,3.25l-2.48,2.69h4.64v.96Z"/>
      <path class="cls-5" d="m171.94,293.21c0,1.38-.23,2.4-.7,3.07s-1.2,1-2.2,1-1.72-.33-2.19-.98c-.47-.65-.72-1.63-.74-2.93v-1.57c0-1.36.23-2.37.7-3.03s1.21-.99,2.21-.99,1.73.32,2.2.96c.47.64.71,1.62.72,2.95v1.52Zm-1.17-1.61c0-.99-.14-1.72-.42-2.17-.28-.46-.72-.68-1.33-.68s-1.04.23-1.31.68-.42,1.15-.43,2.09v1.88c0,1,.15,1.74.43,2.21.29.48.73.71,1.32.71s1.01-.22,1.29-.67c.28-.45.43-1.16.44-2.12v-1.92Z"/>
      <path class="cls-5" d="m175.15,291.96h.88c.55,0,.99-.15,1.31-.44s.48-.67.48-1.15c0-1.08-.54-1.62-1.62-1.62-.51,0-.91.15-1.22.43-.3.29-.45.67-.45,1.15h-1.17c0-.73.27-1.34.8-1.83.54-.48,1.22-.73,2.04-.73.87,0,1.56.23,2.05.69s.74,1.1.74,1.92c0,.4-.13.79-.39,1.17-.26.38-.61.66-1.06.84.51.16.9.43,1.18.8.28.37.42.83.42,1.36,0,.83-.27,1.49-.81,1.97s-1.25.73-2.11.73-1.57-.23-2.12-.7c-.54-.47-.82-1.09-.82-1.86h1.18c0,.49.16.88.48,1.17s.74.44,1.28.44c.57,0,1-.15,1.3-.44s.45-.72.45-1.28-.17-.95-.5-1.24-.81-.44-1.43-.44h-.88v-.96Z"/>
      <path class="cls-5" d="m186.54,293.21c0,1.38-.23,2.4-.7,3.07s-1.2,1-2.2,1-1.72-.33-2.19-.98c-.47-.65-.72-1.63-.74-2.93v-1.57c0-1.36.23-2.37.7-3.03s1.21-.99,2.21-.99,1.73.32,2.2.96c.47.64.71,1.62.72,2.95v1.52Zm-1.17-1.61c0-.99-.14-1.72-.42-2.17-.28-.46-.72-.68-1.33-.68s-1.04.23-1.31.68-.42,1.15-.43,2.09v1.88c0,1,.15,1.74.43,2.21.29.48.73.71,1.32.71s1.01-.22,1.29-.67c.28-.45.43-1.16.44-2.12v-1.92Z"/>
    </g>
  </g>
  <g>
    <g>
      <path class="cls-5" d="m259.88,297.16h-6.06v-.84l3.2-3.55c.47-.54.8-.97.98-1.31.18-.34.27-.68.27-1.04,0-.48-.15-.88-.44-1.19s-.68-.46-1.17-.46c-.58,0-1.04.17-1.36.5-.32.33-.49.79-.49,1.39h-1.17c0-.85.27-1.54.82-2.06.55-.52,1.28-.79,2.2-.79.86,0,1.54.23,2.04.68.5.45.75,1.05.75,1.8,0,.91-.58,1.99-1.74,3.25l-2.48,2.69h4.64v.96Z"/>
      <path class="cls-5" d="m266.92,293.21c0,1.38-.23,2.4-.7,3.07s-1.2,1-2.2,1-1.72-.33-2.19-.98c-.47-.65-.72-1.63-.74-2.93v-1.57c0-1.36.23-2.37.7-3.03s1.21-.99,2.21-.99,1.73.32,2.2.96c.47.64.71,1.62.72,2.95v1.52Zm-1.17-1.61c0-.99-.14-1.72-.42-2.17-.28-.46-.72-.68-1.33-.68s-1.04.23-1.31.68-.42,1.15-.43,2.09v1.88c0,1,.15,1.74.43,2.21.29.48.73.71,1.32.71s1.01-.22,1.29-.67c.28-.45.43-1.16.44-2.12v-1.92Z"/>
      <path class="cls-5" d="m273.38,294.05h1.28v.96h-1.28v2.15h-1.18v-2.15h-4.21v-.69l4.14-6.4h1.25v6.14Zm-4.06,0h2.88v-4.53l-.14.25-2.74,4.28Z"/>
      <path class="cls-5" d="m281.52,293.21c0,1.38-.23,2.4-.7,3.07s-1.2,1-2.2,1-1.72-.33-2.19-.98c-.47-.65-.72-1.63-.74-2.93v-1.57c0-1.36.23-2.37.7-3.03s1.21-.99,2.21-.99,1.73.32,2.2.96c.47.64.71,1.62.72,2.95v1.52Zm-1.17-1.61c0-.99-.14-1.72-.42-2.17-.28-.46-.72-.68-1.33-.68s-1.04.23-1.31.68-.42,1.15-.43,2.09v1.88c0,1,.15,1.74.43,2.21.29.48.73.71,1.32.71s1.01-.22,1.29-.67c.28-.45.43-1.16.44-2.12v-1.92Z"/>
    </g>
    <g>
      <path class="cls-5" d="m259.88,297.16h-6.06v-.84l3.2-3.55c.47-.54.8-.97.98-1.31.18-.34.27-.68.27-1.04,0-.48-.15-.88-.44-1.19s-.68-.46-1.17-.46c-.58,0-1.04.17-1.36.5-.32.33-.49.79-.49,1.39h-1.17c0-.85.27-1.54.82-2.06.55-.52,1.28-.79,2.2-.79.86,0,1.54.23,2.04.68.5.45.75,1.05.75,1.8,0,.91-.58,1.99-1.74,3.25l-2.48,2.69h4.64v.96Z"/>
      <path class="cls-5" d="m266.92,293.21c0,1.38-.23,2.4-.7,3.07s-1.2,1-2.2,1-1.72-.33-2.19-.98c-.47-.65-.72-1.63-.74-2.93v-1.57c0-1.36.23-2.37.7-3.03s1.21-.99,2.21-.99,1.73.32,2.2.96c.47.64.71,1.62.72,2.95v1.52Zm-1.17-1.61c0-.99-.14-1.72-.42-2.17-.28-.46-.72-.68-1.33-.68s-1.04.23-1.31.68-.42,1.15-.43,2.09v1.88c0,1,.15,1.74.43,2.21.29.48.73.71,1.32.71s1.01-.22,1.29-.67c.28-.45.43-1.16.44-2.12v-1.92Z"/>
      <path class="cls-5" d="m273.38,294.05h1.28v.96h-1.28v2.15h-1.18v-2.15h-4.21v-.69l4.14-6.4h1.25v6.14Zm-4.06,0h2.88v-4.53l-.14.25-2.74,4.28Z"/>
      <path class="cls-5" d="m281.52,293.21c0,1.38-.23,2.4-.7,3.07s-1.2,1-2.2,1-1.72-.33-2.19-.98c-.47-.65-.72-1.63-.74-2.93v-1.57c0-1.36.23-2.37.7-3.03s1.21-.99,2.21-.99,1.73.32,2.2.96c.47.64.71,1.62.72,2.95v1.52Zm-1.17-1.61c0-.99-.14-1.72-.42-2.17-.28-.46-.72-.68-1.33-.68s-1.04.23-1.31.68-.42,1.15-.43,2.09v1.88c0,1,.15,1.74.43,2.21.29.48.73.71,1.32.71s1.01-.22,1.29-.67c.28-.45.43-1.16.44-2.12v-1.92Z"/>
    </g>
  </g>
  <g>
    <g>
      <path class="cls-5" d="m338.33,297.16h-6.06v-.84l3.2-3.55c.47-.54.8-.97.98-1.31.18-.34.27-.68.27-1.04,0-.48-.15-.88-.44-1.19s-.68-.46-1.17-.46c-.58,0-1.04.17-1.36.5-.32.33-.49.79-.49,1.39h-1.17c0-.85.27-1.54.82-2.06.55-.52,1.28-.79,2.2-.79.86,0,1.54.23,2.04.68.5.45.75,1.05.75,1.8,0,.91-.58,1.99-1.74,3.25l-2.48,2.69h4.64v.96Z"/>
      <path class="cls-5" d="m345.37,293.21c0,1.38-.23,2.4-.7,3.07s-1.2,1-2.2,1-1.72-.33-2.19-.98c-.47-.65-.72-1.63-.74-2.93v-1.57c0-1.36.23-2.37.7-3.03s1.21-.99,2.21-.99,1.73.32,2.2.96c.47.64.71,1.62.72,2.95v1.52Zm-1.17-1.61c0-.99-.14-1.72-.42-2.17-.28-.46-.72-.68-1.33-.68s-1.04.23-1.31.68-.42,1.15-.43,2.09v1.88c0,1,.15,1.74.43,2.21.29.48.73.71,1.32.71s1.01-.22,1.29-.67c.28-.45.43-1.16.44-2.12v-1.92Z"/>
      <path class="cls-5" d="m347.42,292.52l.47-4.61h4.74v1.09h-3.74l-.28,2.52c.45-.27.97-.4,1.54-.4.84,0,1.51.28,2.01.83.5.56.74,1.31.74,2.26s-.26,1.7-.77,2.25c-.51.55-1.23.82-2.16.82-.82,0-1.48-.23-2-.68s-.81-1.08-.88-1.88h1.11c.07.53.26.93.56,1.2.3.27.71.4,1.21.4.55,0,.97-.19,1.29-.56.31-.37.47-.89.47-1.54,0-.62-.17-1.11-.5-1.49-.34-.38-.78-.56-1.34-.56-.51,0-.91.11-1.21.34l-.31.25-.94-.24Z"/>
      <path class="cls-5" d="m359.97,293.21c0,1.38-.23,2.4-.7,3.07s-1.2,1-2.2,1-1.72-.33-2.19-.98c-.47-.65-.72-1.63-.74-2.93v-1.57c0-1.36.23-2.37.7-3.03s1.21-.99,2.21-.99,1.73.32,2.2.96c.47.64.71,1.62.72,2.95v1.52Zm-1.17-1.61c0-.99-.14-1.72-.42-2.17-.28-.46-.72-.68-1.33-.68s-1.04.23-1.31.68-.42,1.15-.43,2.09v1.88c0,1,.15,1.74.43,2.21.29.48.73.71,1.32.71s1.01-.22,1.29-.67c.28-.45.43-1.16.44-2.12v-1.92Z"/>
    </g>
    <g>
      <path class="cls-5" d="m338.33,297.16h-6.06v-.84l3.2-3.55c.47-.54.8-.97.98-1.31.18-.34.27-.68.27-1.04,0-.48-.15-.88-.44-1.19s-.68-.46-1.17-.46c-.58,0-1.04.17-1.36.5-.32.33-.49.79-.49,1.39h-1.17c0-.85.27-1.54.82-2.06.55-.52,1.28-.79,2.2-.79.86,0,1.54.23,2.04.68.5.45.75,1.05.75,1.8,0,.91-.58,1.99-1.74,3.25l-2.48,2.69h4.64v.96Z"/>
      <path class="cls-5" d="m345.37,293.21c0,1.38-.23,2.4-.7,3.07s-1.2,1-2.2,1-1.72-.33-2.19-.98c-.47-.65-.72-1.63-.74-2.93v-1.57c0-1.36.23-2.37.7-3.03s1.21-.99,2.21-.99,1.73.32,2.2.96c.47.64.71,1.62.72,2.95v1.52Zm-1.17-1.61c0-.99-.14-1.72-.42-2.17-.28-.46-.72-.68-1.33-.68s-1.04.23-1.31.68-.42,1.15-.43,2.09v1.88c0,1,.15,1.74.43,2.21.29.48.73.71,1.32.71s1.01-.22,1.29-.67c.28-.45.43-1.16.44-2.12v-1.92Z"/>
      <path class="cls-5" d="m347.42,292.52l.47-4.61h4.74v1.09h-3.74l-.28,2.52c.45-.27.97-.4,1.54-.4.84,0,1.51.28,2.01.83.5.56.74,1.31.74,2.26s-.26,1.7-.77,2.25c-.51.55-1.23.82-2.16.82-.82,0-1.48-.23-2-.68s-.81-1.08-.88-1.88h1.11c.07.53.26.93.56,1.2.3.27.71.4,1.21.4.55,0,.97-.19,1.29-.56.31-.37.47-.89.47-1.54,0-.62-.17-1.11-.5-1.49-.34-.38-.78-.56-1.34-.56-.51,0-.91.11-1.21.34l-.31.25-.94-.24Z"/>
      <path class="cls-5" d="m359.97,293.21c0,1.38-.23,2.4-.7,3.07s-1.2,1-2.2,1-1.72-.33-2.19-.98c-.47-.65-.72-1.63-.74-2.93v-1.57c0-1.36.23-2.37.7-3.03s1.21-.99,2.21-.99,1.73.32,2.2.96c.47.64.71,1.62.72,2.95v1.52Zm-1.17-1.61c0-.99-.14-1.72-.42-2.17-.28-.46-.72-.68-1.33-.68s-1.04.23-1.31.68-.42,1.15-.43,2.09v1.88c0,1,.15,1.74.43,2.21.29.48.73.71,1.32.71s1.01-.22,1.29-.67c.28-.45.43-1.16.44-2.12v-1.92Z"/>
    </g>
  </g>
  <g>
    <path class="cls-4" d="m374.86,88.7h-1.65v-8l-2.44.83v-1.39l3.88-1.43h.21v9.99Z"/>
    <path class="cls-4" d="m384.81,84.51c0,1.43-.27,2.51-.8,3.24s-1.35,1.09-2.44,1.09-1.89-.35-2.43-1.06-.82-1.76-.84-3.15v-1.72c0-1.43.27-2.5.8-3.22s1.35-1.07,2.45-1.07,1.9.35,2.44,1.05.81,1.74.82,3.13v1.72Zm-1.66-1.86c0-.93-.13-1.62-.38-2.05s-.66-.65-1.22-.65-.94.21-1.2.62-.39,1.06-.4,1.93v2.26c0,.93.13,1.62.39,2.08s.67.68,1.22.68.93-.21,1.18-.63.39-1.08.4-1.98v-2.25Z"/>
    <path class="cls-4" d="m392.77,84.51c0,1.43-.27,2.51-.8,3.24s-1.35,1.09-2.44,1.09-1.89-.35-2.43-1.06-.82-1.76-.84-3.15v-1.72c0-1.43.27-2.5.8-3.22s1.35-1.07,2.45-1.07,1.9.35,2.44,1.05.81,1.74.82,3.13v1.72Zm-1.66-1.86c0-.93-.13-1.62-.38-2.05s-.66-.65-1.22-.65-.94.21-1.2.62-.39,1.06-.4,1.93v2.26c0,.93.13,1.62.39,2.08s.67.68,1.22.68.93-.21,1.18-.63.39-1.08.4-1.98v-2.25Z"/>
    <path class="cls-4" d="m404.77,80.14h-3.1v8.56h-1.72v-8.56h-3.08v-1.39h7.9v1.39Z"/>
    <path class="cls-4" d="m413.99,86.24l1.53-7.49h1.72l-2.3,9.95h-1.65l-1.89-7.27-1.93,7.27h-1.66l-2.3-9.95h1.72l1.54,7.48,1.9-7.48h1.45l1.88,7.49Z"/>
    <path class="cls-4" d="m419.97,82.11c.54-.63,1.23-.94,2.06-.94,1.58,0,2.38.9,2.4,2.7v4.83h-1.66v-4.77c0-.51-.11-.87-.33-1.08s-.55-.32-.97-.32c-.67,0-1.16.3-1.49.89v5.28h-1.66v-10.5h1.66v3.91Z"/>
    <path class="cls-4" d="m372.77,102.7l1.7-5.27h1.2l-2.46,6.87h-.9l-2.49-6.87h1.2l1.75,5.27Z"/>
    <path class="cls-4" d="m383.34,98.48c-.18-.03-.37-.04-.58-.04-.77,0-1.29.33-1.57.98v4.88h-1.17v-6.87h1.14l.02.79c.39-.61.93-.92,1.64-.92.23,0,.4.03.52.09v1.09Z"/>
    <path class="cls-4" d="m383.98,100.8c0-.67.13-1.28.4-1.82.26-.54.63-.95,1.1-1.24.47-.29,1.01-.44,1.62-.44.94,0,1.69.32,2.27.97.58.65.87,1.51.87,2.58v.08c0,.67-.13,1.27-.38,1.8-.26.53-.62.94-1.1,1.24-.48.3-1.02.44-1.64.44-.93,0-1.69-.32-2.26-.97-.58-.65-.87-1.5-.87-2.57v-.08Zm1.18.14c0,.76.18,1.37.53,1.83.35.46.83.69,1.42.69s1.07-.23,1.42-.7c.35-.47.53-1.12.53-1.96,0-.75-.18-1.36-.54-1.83-.36-.47-.83-.7-1.42-.7s-1.05.23-1.4.69-.53,1.12-.53,1.98Z"/>
    <path class="cls-4" d="m394.46,103.47c.42,0,.79-.13,1.1-.38s.49-.57.52-.95h1.11c-.02.39-.16.77-.41,1.12s-.58.64-1,.85c-.42.21-.86.32-1.32.32-.94,0-1.68-.31-2.23-.94-.55-.62-.83-1.48-.83-2.56v-.2c0-.67.12-1.26.37-1.78s.6-.92,1.06-1.21c.46-.29,1-.43,1.63-.43.77,0,1.41.23,1.92.69.51.46.78,1.06.82,1.8h-1.11c-.03-.44-.2-.81-.5-1.09-.3-.29-.68-.43-1.12-.43-.6,0-1.06.21-1.39.64-.33.43-.49,1.05-.49,1.86v.22c0,.79.16,1.4.49,1.83s.79.64,1.4.64Z"/>
    <path class="cls-4" d="m401.36,104.42c-.93,0-1.69-.31-2.27-.92-.58-.61-.88-1.43-.88-2.45v-.22c0-.68.13-1.29.39-1.82.26-.54.62-.95,1.09-1.26.47-.3.97-.45,1.52-.45.89,0,1.59.29,2.08.88s.74,1.43.74,2.53v.49h-4.65c.02.68.21,1.22.59,1.64.38.42.86.63,1.44.63.41,0,.77-.08,1.05-.25s.54-.39.76-.67l.72.56c-.58.88-1.44,1.33-2.59,1.33Zm-.15-6.16c-.47,0-.87.17-1.19.52-.32.34-.52.83-.6,1.45h3.44v-.09c-.03-.6-.19-1.06-.48-1.39-.29-.33-.68-.49-1.17-.49Z"/>
    <path class="cls-4" d="m414.56,104.3h-6.06v-.84l3.2-3.55c.47-.54.8-.97.98-1.31.18-.34.27-.68.27-1.04,0-.48-.15-.88-.44-1.19s-.68-.46-1.17-.46c-.58,0-1.04.17-1.36.5-.32.33-.49.79-.49,1.39h-1.17c0-.85.27-1.54.82-2.06.55-.52,1.28-.79,2.2-.79.86,0,1.54.23,2.04.68.5.45.75,1.05.75,1.8,0,.91-.58,1.99-1.74,3.25l-2.48,2.69h4.64v.96Z"/>
    <path class="cls-4" d="m421.59,100.36c0,1.38-.23,2.4-.7,3.07s-1.2,1-2.2,1-1.72-.33-2.19-.98c-.47-.65-.72-1.63-.74-2.93v-1.57c0-1.36.23-2.37.7-3.03s1.21-.99,2.21-.99,1.73.32,2.2.96c.47.64.71,1.62.72,2.95v1.52Zm-1.17-1.61c0-.99-.14-1.72-.42-2.17-.28-.46-.72-.68-1.33-.68s-1.04.23-1.31.68-.42,1.15-.43,2.09v1.88c0,1,.15,1.74.43,2.21.29.48.73.71,1.32.71s1.01-.22,1.29-.67c.28-.45.43-1.16.44-2.12v-1.92Z"/>
    <path class="cls-4" d="m423.64,99.66l.47-4.61h4.74v1.09h-3.74l-.28,2.52c.45-.27.97-.4,1.54-.4.84,0,1.51.28,2.01.83.5.56.74,1.31.74,2.26s-.26,1.7-.77,2.25c-.51.55-1.23.82-2.16.82-.82,0-1.48-.23-2-.68s-.81-1.08-.88-1.88h1.11c.07.53.26.93.56,1.2.3.27.71.4,1.21.4.55,0,.97-.19,1.29-.56.31-.37.47-.89.47-1.54,0-.62-.17-1.11-.5-1.49-.34-.38-.78-.56-1.34-.56-.51,0-.91.11-1.21.34l-.31.25-.94-.24Z"/>
    <path class="cls-4" d="m436.19,100.36c0,1.38-.23,2.4-.7,3.07s-1.2,1-2.2,1-1.72-.33-2.19-.98c-.47-.65-.72-1.63-.74-2.93v-1.57c0-1.36.23-2.37.7-3.03s1.21-.99,2.21-.99,1.73.32,2.2.96c.47.64.71,1.62.72,2.95v1.52Zm-1.17-1.61c0-.99-.14-1.72-.42-2.17-.28-.46-.72-.68-1.33-.68s-1.04.23-1.31.68-.42,1.15-.43,2.09v1.88c0,1,.15,1.74.43,2.21.29.48.73.71,1.32.71s1.01-.22,1.29-.67c.28-.45.43-1.16.44-2.12v-1.92Z"/>
  </g>
  <g>
    <path class="cls-4" d="m17.1,154.84v1.37h-.21c-.93.01-1.67.27-2.23.77s-.89,1.2-.99,2.11c.53-.56,1.21-.84,2.04-.84.88,0,1.57.31,2.08.93s.76,1.42.76,2.4-.3,1.83-.89,2.46-1.38.94-2.34.94-1.8-.37-2.42-1.1-.93-1.7-.93-2.88v-.57c0-1.75.42-3.11,1.27-4.1s2.07-1.48,3.67-1.48h.17Zm-1.78,4.75c-.36,0-.7.1-1,.31s-.53.48-.67.82v.51c0,.74.15,1.33.46,1.76s.71.65,1.2.65.88-.18,1.17-.55.43-.85.43-1.46-.15-1.09-.44-1.47-.68-.57-1.16-.57Z"/>
    <path class="cls-4" d="m24.38,164.84h-1.65v-8l-2.44.83v-1.39l3.88-1.43h.21v9.99Z"/>
    <path class="cls-4" d="m28.18,167.08l-.9-.53c.26-.41.45-.78.54-1.08s.15-.62.15-.94v-1.29h1.5v1.2c-.01.48-.13.97-.37,1.45s-.55.89-.93,1.2Z"/>
    <path class="cls-4" d="m36.54,161.29h1.24v1.33h-1.24v2.21h-1.66v-2.21h-4.3l-.05-1.01,4.29-6.73h1.72v6.41Zm-4.27,0h2.6v-4.16l-.12.22-2.48,3.94Z"/>
    <path class="cls-4" d="m49.41,156.28h-3.1v8.56h-1.72v-8.56h-3.08v-1.39h7.9v1.39Z"/>
    <path class="cls-4" d="m58.63,162.38l1.53-7.49h1.72l-2.3,9.95h-1.65l-1.89-7.27-1.93,7.27h-1.66l-2.3-9.95h1.72l1.54,7.48,1.9-7.48h1.45l1.88,7.49Z"/>
    <path class="cls-4" d="m64.61,158.25c.54-.63,1.23-.94,2.06-.94,1.58,0,2.38.9,2.4,2.7v4.83h-1.66v-4.77c0-.51-.11-.87-.33-1.08s-.55-.32-.97-.32c-.67,0-1.16.3-1.49.89v5.28h-1.66v-10.5h1.66v3.91Z"/>
    <path class="cls-4" d="m5.74,178.84l1.7-5.27h1.2l-2.46,6.87h-.9l-2.49-6.87h1.2l1.75,5.27Z"/>
    <path class="cls-4" d="m16.31,174.62c-.18-.03-.37-.04-.58-.04-.77,0-1.29.33-1.57.98v4.88h-1.17v-6.87h1.14l.02.79c.39-.61.93-.92,1.64-.92.23,0,.4.03.52.09v1.09Z"/>
    <path class="cls-4" d="m16.95,176.94c0-.67.13-1.28.4-1.82.26-.54.63-.95,1.1-1.24.47-.29,1.01-.44,1.62-.44.94,0,1.69.32,2.27.97.58.65.87,1.51.87,2.58v.08c0,.67-.13,1.27-.38,1.8-.26.53-.62.94-1.1,1.24-.48.3-1.02.44-1.64.44-.93,0-1.69-.32-2.26-.97-.58-.65-.87-1.5-.87-2.57v-.08Zm1.18.14c0,.76.18,1.37.53,1.83.35.46.83.69,1.42.69s1.07-.23,1.42-.7c.35-.47.53-1.12.53-1.96,0-.75-.18-1.36-.54-1.83-.36-.47-.83-.7-1.42-.7s-1.05.23-1.4.69-.53,1.12-.53,1.98Z"/>
    <path class="cls-4" d="m27.43,179.61c.42,0,.79-.13,1.1-.38s.49-.57.52-.95h1.11c-.02.39-.16.77-.41,1.12s-.58.64-1,.85c-.42.21-.86.32-1.32.32-.94,0-1.68-.31-2.23-.94-.55-.62-.83-1.48-.83-2.56v-.2c0-.67.12-1.26.37-1.78s.6-.92,1.06-1.21c.46-.29,1-.43,1.63-.43.77,0,1.41.23,1.92.69.51.46.78,1.06.82,1.8h-1.11c-.03-.44-.2-.81-.5-1.09-.3-.29-.68-.43-1.12-.43-.6,0-1.06.21-1.39.64-.33.43-.49,1.05-.49,1.86v.22c0,.79.16,1.4.49,1.83s.79.64,1.4.64Z"/>
    <path class="cls-4" d="m34.33,180.56c-.93,0-1.69-.31-2.27-.92-.58-.61-.88-1.43-.88-2.45v-.22c0-.68.13-1.29.39-1.82.26-.54.62-.95,1.09-1.26.47-.3.97-.45,1.52-.45.89,0,1.59.29,2.08.88s.74,1.43.74,2.53v.49h-4.65c.02.68.21,1.22.59,1.64.38.42.86.63,1.44.63.41,0,.77-.08,1.05-.25s.54-.39.76-.67l.72.56c-.58.88-1.44,1.33-2.59,1.33Zm-.15-6.16c-.47,0-.87.17-1.19.52-.32.34-.52.83-.6,1.45h3.44v-.09c-.03-.6-.19-1.06-.48-1.39-.29-.33-.68-.49-1.17-.49Z"/>
    <path class="cls-4" d="m47.52,180.44h-6.06v-.84l3.2-3.55c.47-.54.8-.97.98-1.31.18-.34.27-.68.27-1.04,0-.48-.15-.88-.44-1.19s-.68-.46-1.17-.46c-.58,0-1.04.17-1.36.5-.32.33-.49.79-.49,1.39h-1.17c0-.85.27-1.54.82-2.06.55-.52,1.28-.79,2.2-.79.86,0,1.54.23,2.04.68.5.45.75,1.05.75,1.8,0,.91-.58,1.99-1.74,3.25l-2.48,2.69h4.64v.96Z"/>
    <path class="cls-4" d="m54.56,176.49c0,1.38-.23,2.4-.7,3.07s-1.2,1-2.2,1-1.72-.33-2.19-.98c-.47-.65-.72-1.63-.74-2.93v-1.57c0-1.36.23-2.37.7-3.03s1.21-.99,2.21-.99,1.73.32,2.2.96c.47.64.71,1.62.72,2.95v1.52Zm-1.17-1.61c0-.99-.14-1.72-.42-2.17-.28-.46-.72-.68-1.33-.68s-1.04.23-1.31.68-.42,1.15-.43,2.09v1.88c0,1,.15,1.74.43,2.21.29.48.73.71,1.32.71s1.01-.22,1.29-.67c.28-.45.43-1.16.44-2.12v-1.92Z"/>
    <path class="cls-4" d="m62.12,180.44h-6.06v-.84l3.2-3.55c.47-.54.8-.97.98-1.31.18-.34.27-.68.27-1.04,0-.48-.15-.88-.44-1.19s-.68-.46-1.17-.46c-.58,0-1.04.17-1.36.5-.32.33-.49.79-.49,1.39h-1.17c0-.85.27-1.54.82-2.06.55-.52,1.28-.79,2.2-.79.86,0,1.54.23,2.04.68.5.45.75,1.05.75,1.8,0,.91-.58,1.99-1.74,3.25l-2.48,2.69h4.64v.96Z"/>
    <path class="cls-4" d="m69.16,176.49c0,1.38-.23,2.4-.7,3.07s-1.2,1-2.2,1-1.72-.33-2.19-.98c-.47-.65-.72-1.63-.74-2.93v-1.57c0-1.36.23-2.37.7-3.03s1.21-.99,2.21-.99,1.73.32,2.2.96c.47.64.71,1.62.72,2.95v1.52Zm-1.17-1.61c0-.99-.14-1.72-.42-2.17-.28-.46-.72-.68-1.33-.68s-1.04.23-1.31.68-.42,1.15-.43,2.09v1.88c0,1,.15,1.74.43,2.21.29.48.73.71,1.32.71s1.01-.22,1.29-.67c.28-.45.43-1.16.44-2.12v-1.92Z"/>
  </g>
  <g>
    <path class="cls-2" d="m27.34,90.84h-1.18v-7.83l-2.37.87v-1.07l3.36-1.26h.18v9.29Z"/>
    <path class="cls-2" d="m36.58,86.9c0,1.38-.23,2.4-.7,3.07s-1.2,1-2.2,1-1.72-.33-2.19-.98c-.47-.65-.72-1.63-.74-2.93v-1.57c0-1.36.23-2.37.7-3.03s1.21-.99,2.21-.99,1.73.32,2.2.96c.47.64.71,1.62.72,2.95v1.52Zm-1.17-1.61c0-.99-.14-1.72-.42-2.17-.28-.46-.72-.68-1.33-.68s-1.04.23-1.31.68-.42,1.15-.43,2.09v1.88c0,1,.15,1.74.43,2.21.29.48.73.71,1.32.71s1.01-.22,1.29-.67c.28-.45.43-1.16.44-2.12v-1.92Z"/>
    <path class="cls-2" d="m43.88,86.9c0,1.38-.23,2.4-.7,3.07s-1.2,1-2.2,1-1.72-.33-2.19-.98c-.47-.65-.72-1.63-.74-2.93v-1.57c0-1.36.23-2.37.7-3.03s1.21-.99,2.21-.99,1.73.32,2.2.96c.47.64.71,1.62.72,2.95v1.52Zm-1.17-1.61c0-.99-.14-1.72-.42-2.17-.28-.46-.72-.68-1.33-.68s-1.04.23-1.31.68-.42,1.15-.43,2.09v1.88c0,1,.15,1.74.43,2.21.29.48.73.71,1.32.71s1.01-.22,1.29-.67c.28-.45.43-1.16.44-2.12v-1.92Z"/>
    <path class="cls-2" d="m55.03,82.59h-2.97v8.25h-1.21v-8.25h-2.96v-1h7.15v1Z"/>
    <path class="cls-2" d="m58.49,87.92l.18,1.22.26-1.1,1.83-6.45h1.03l1.78,6.45.25,1.12.2-1.24,1.43-6.32h1.23l-2.24,9.24h-1.11l-1.9-6.73-.15-.7-.15.7-1.97,6.73h-1.11l-2.23-9.24h1.22l1.46,6.33Z"/>
    <path class="cls-2" d="m69.02,84.8c.52-.64,1.2-.96,2.03-.96,1.45,0,2.18.82,2.2,2.46v4.54h-1.17v-4.54c0-.5-.12-.86-.34-1.1-.22-.24-.57-.36-1.04-.36-.38,0-.72.1-1,.3s-.51.47-.67.8v4.89h-1.17v-9.75h1.17v3.71Z"/>
  </g>
  <path class="cls-2" d="m73.39,275.67c0,1.38-.23,2.4-.7,3.07s-1.2,1-2.2,1-1.72-.33-2.19-.98c-.47-.65-.72-1.63-.74-2.93v-1.57c0-1.36.23-2.37.7-3.03s1.21-.99,2.21-.99,1.73.32,2.2.96c.47.64.71,1.62.72,2.95v1.52Zm-1.17-1.61c0-.99-.14-1.72-.42-2.17-.28-.46-.72-.68-1.33-.68s-1.04.23-1.31.68-.42,1.15-.43,2.09v1.88c0,1,.15,1.74.43,2.21.29.48.73.71,1.32.71s1.01-.22,1.29-.67c.28-.45.43-1.16.44-2.12v-1.92Z"/>
  <g>
    <path class="cls-2" d="m66.35,230.51h-6.06v-.84l3.2-3.55c.47-.54.8-.97.98-1.31.18-.34.27-.68.27-1.04,0-.48-.15-.88-.44-1.19s-.68-.46-1.17-.46c-.58,0-1.04.17-1.36.5-.32.33-.49.79-.49,1.39h-1.17c0-.85.27-1.54.82-2.06.55-.52,1.28-.79,2.2-.79.86,0,1.54.23,2.04.68.5.45.75,1.05.75,1.8,0,.91-.58,1.99-1.74,3.25l-2.48,2.69h4.64v.96Z"/>
    <path class="cls-2" d="m68.13,225.87l.47-4.61h4.74v1.09h-3.74l-.28,2.52c.45-.27.97-.4,1.54-.4.84,0,1.51.28,2.01.83.5.56.74,1.31.74,2.26s-.26,1.7-.77,2.25c-.51.55-1.23.82-2.16.82-.82,0-1.48-.23-2-.68s-.81-1.08-.88-1.88h1.11c.07.53.26.93.56,1.2.3.27.71.4,1.21.4.55,0,.97-.19,1.29-.56.31-.37.47-.89.47-1.54,0-.62-.17-1.11-.5-1.49-.34-.38-.78-.56-1.34-.56-.51,0-.91.11-1.21.34l-.31.25-.94-.24Z"/>
  </g>
  <g>
    <path class="cls-2" d="m66.26,129.82l-3.83,8.58h-1.23l3.81-8.28h-5v-.96h6.25v.66Z"/>
    <path class="cls-2" d="m68.13,133.76l.47-4.61h4.74v1.09h-3.74l-.28,2.52c.45-.27.97-.4,1.54-.4.84,0,1.51.28,2.01.83.5.56.74,1.31.74,2.26s-.26,1.7-.77,2.25c-.51.55-1.23.82-2.16.82-.82,0-1.48-.23-2-.68s-.81-1.08-.88-1.88h1.11c.07.53.26.93.56,1.2.3.27.71.4,1.21.4.55,0,.97-.19,1.29-.56.31-.37.47-.89.47-1.54,0-.62-.17-1.11-.5-1.49-.34-.38-.78-.56-1.34-.56-.51,0-.91.11-1.21.34l-.31.25-.94-.24Z"/>
  </g>
  <g>
    <g>
      <path class="cls-5" d="m85.29,297.16h-6.06v-.84l3.2-3.55c.47-.54.8-.97.98-1.31.18-.34.27-.68.27-1.04,0-.48-.15-.88-.44-1.19s-.68-.46-1.17-.46c-.58,0-1.04.17-1.36.5-.32.33-.49.79-.49,1.39h-1.17c0-.85.27-1.54.82-2.06.55-.52,1.28-.79,2.2-.79.86,0,1.54.23,2.04.68.5.45.75,1.05.75,1.8,0,.91-.58,1.99-1.74,3.25l-2.48,2.69h4.64v.96Z"/>
      <path class="cls-5" d="m92.33,293.21c0,1.38-.23,2.4-.7,3.07s-1.2,1-2.2,1-1.72-.33-2.19-.98c-.47-.65-.72-1.63-.74-2.93v-1.57c0-1.36.23-2.37.7-3.03s1.21-.99,2.21-.99,1.73.32,2.2.96c.47.64.71,1.62.72,2.95v1.52Zm-1.17-1.61c0-.99-.14-1.72-.42-2.17-.28-.46-.72-.68-1.33-.68s-1.04.23-1.31.68-.42,1.15-.43,2.09v1.88c0,1,.15,1.74.43,2.21.29.48.73.71,1.32.71s1.01-.22,1.29-.67c.28-.45.43-1.16.44-2.12v-1.92Z"/>
      <path class="cls-5" d="m99.89,297.16h-6.06v-.84l3.2-3.55c.47-.54.8-.97.98-1.31.18-.34.27-.68.27-1.04,0-.48-.15-.88-.44-1.19s-.68-.46-1.17-.46c-.58,0-1.04.17-1.36.5-.32.33-.49.79-.49,1.39h-1.17c0-.85.27-1.54.82-2.06.55-.52,1.28-.79,2.2-.79.86,0,1.54.23,2.04.68.5.45.75,1.05.75,1.8,0,.91-.58,1.99-1.74,3.25l-2.48,2.69h4.64v.96Z"/>
      <path class="cls-5" d="m106.93,293.21c0,1.38-.23,2.4-.7,3.07s-1.2,1-2.2,1-1.72-.33-2.19-.98c-.47-.65-.72-1.63-.74-2.93v-1.57c0-1.36.23-2.37.7-3.03s1.21-.99,2.21-.99,1.73.32,2.2.96c.47.64.71,1.62.72,2.95v1.52Zm-1.17-1.61c0-.99-.14-1.72-.42-2.17-.28-.46-.72-.68-1.33-.68s-1.04.23-1.31.68-.42,1.15-.43,2.09v1.88c0,1,.15,1.74.43,2.21.29.48.73.71,1.32.71s1.01-.22,1.29-.67c.28-.45.43-1.16.44-2.12v-1.92Z"/>
    </g>
    <g>
      <path class="cls-5" d="m85.29,297.16h-6.06v-.84l3.2-3.55c.47-.54.8-.97.98-1.31.18-.34.27-.68.27-1.04,0-.48-.15-.88-.44-1.19s-.68-.46-1.17-.46c-.58,0-1.04.17-1.36.5-.32.33-.49.79-.49,1.39h-1.17c0-.85.27-1.54.82-2.06.55-.52,1.28-.79,2.2-.79.86,0,1.54.23,2.04.68.5.45.75,1.05.75,1.8,0,.91-.58,1.99-1.74,3.25l-2.48,2.69h4.64v.96Z"/>
      <path class="cls-5" d="m92.33,293.21c0,1.38-.23,2.4-.7,3.07s-1.2,1-2.2,1-1.72-.33-2.19-.98c-.47-.65-.72-1.63-.74-2.93v-1.57c0-1.36.23-2.37.7-3.03s1.21-.99,2.21-.99,1.73.32,2.2.96c.47.64.71,1.62.72,2.95v1.52Zm-1.17-1.61c0-.99-.14-1.72-.42-2.17-.28-.46-.72-.68-1.33-.68s-1.04.23-1.31.68-.42,1.15-.43,2.09v1.88c0,1,.15,1.74.43,2.21.29.48.73.71,1.32.71s1.01-.22,1.29-.67c.28-.45.43-1.16.44-2.12v-1.92Z"/>
      <path class="cls-5" d="m99.89,297.16h-6.06v-.84l3.2-3.55c.47-.54.8-.97.98-1.31.18-.34.27-.68.27-1.04,0-.48-.15-.88-.44-1.19s-.68-.46-1.17-.46c-.58,0-1.04.17-1.36.5-.32.33-.49.79-.49,1.39h-1.17c0-.85.27-1.54.82-2.06.55-.52,1.28-.79,2.2-.79.86,0,1.54.23,2.04.68.5.45.75,1.05.75,1.8,0,.91-.58,1.99-1.74,3.25l-2.48,2.69h4.64v.96Z"/>
      <path class="cls-5" d="m106.93,293.21c0,1.38-.23,2.4-.7,3.07s-1.2,1-2.2,1-1.72-.33-2.19-.98c-.47-.65-.72-1.63-.74-2.93v-1.57c0-1.36.23-2.37.7-3.03s1.21-.99,2.21-.99,1.73.32,2.2.96c.47.64.71,1.62.72,2.95v1.52Zm-1.17-1.61c0-.99-.14-1.72-.42-2.17-.28-.46-.72-.68-1.33-.68s-1.04.23-1.31.68-.42,1.15-.43,2.09v1.88c0,1,.15,1.74.43,2.21.29.48.73.71,1.32.71s1.01-.22,1.29-.67c.28-.45.43-1.16.44-2.12v-1.92Z"/>
    </g>
  </g>
  <path class="cls-10" d="m82.09,282.11v-5"/>
  <path class="cls-10" d="m173.35,282.11v-5"/>
  <path class="cls-10" d="m265.81,282.11v-5"/>
  <path class="cls-10" d="m357.07,282.11v-5"/>
  <path class="cls-9" d="m82.09,273.98h274.98"/>
  <path class="cls-8" d="m82.09,227.15h274.98"/>
  <path class="cls-8" d="m82.09,180.31h274.98"/>
  <path class="cls-8" d="m82.09,133.48h274.98"/>
  <path class="cls-8" d="m82.09,86.65h274.98"/>
  <path class="cls-6" d="m82.45,158.45l9.14-1.35,9.14-1.35,9.14-1.35,9.14-1.35,9.14-1.35,9.14-2.7,9.14-2.7,9.14-2.7,9.14-2.7,9.14-2.7,9.14-3.53,9.14-3.53,9.14-3.53,9.14-3.53,9.14-3.53,9.14-2.4,9.14-2.4,9.14-2.4,9.14-2.4,9.14-2.4,9.14-2.25,9.14-2.25,9.14-2.25,9.14-2.25,9.14-2.25,9.14-2.25,9.14-2.25,9.14-2.25,9.14-2.25,9.14-2.25v187.56H82.45v-115.16Z"/>
  <path class="cls-7" d="m82.45,158.45l9.14-1.35,9.14-1.35,9.14-1.35,9.14-1.35,9.14-1.35,9.14-2.7,9.14-2.7,9.14-2.7,9.14-2.7,9.14-2.7,9.14-3.53,9.14-3.53,9.14-3.53,9.14-3.53,9.14-3.53,9.14-2.4,9.14-2.4,9.14-2.4,9.14-2.4,9.14-2.4,9.14-2.25,9.14-2.25,9.14-2.25,9.14-2.25,9.14-2.25,9.14-2.25,9.14-2.25,9.14-2.25,9.14-2.25,9.14-2.25"/>
  <circle class="cls-4" cx="356.71" cy="86.05" r="3.5"/>
  <circle class="cls-4" cx="82.45" cy="158.45" r="3.5"/>
  <g>
    <path d="m2.36,19.53h2.48c0,.95.48,1.36,1.24,1.36s1.19-.46,1.19-1.05c0-1.97-4.66-2.21-4.66-5.83,0-1.82,1.27-3.14,3.47-3.14s3.52,1.31,3.52,3.5h-2.48c0-.78-.36-1.17-1.05-1.17-.63,0-1,.34-1,.88,0,1.87,4.73,1.99,4.73,5.78,0,1.95-1.38,3.38-3.74,3.38s-3.69-1.31-3.69-3.71Z"/>
    <path d="m20.14,15.15c0,2.53-1.46,4.03-3.93,4.03h-1.04v3.82h-2.41v-11.9h3.45c2.46,0,3.93,1.5,3.93,4.05Zm-2.48,0c0-1.16-.51-1.75-1.48-1.75h-1v3.48h1c.97,0,1.48-.59,1.48-1.73Z"/>
    <path d="m23.03,19.14v-4.18c0-2.55,1.44-4.06,3.86-4.06s3.86,1.51,3.86,4.06v4.18c0,2.55-1.44,4.06-3.86,4.06s-3.86-1.51-3.86-4.06Zm5.22,0v-4.18c0-1.12-.46-1.72-1.36-1.72s-1.36.59-1.36,1.72v4.18c0,1.12.46,1.72,1.36,1.72s1.36-.6,1.36-1.72Z"/>
    <path d="m40.55,13.39h-2.33v9.6h-2.48v-9.6h-2.33v-2.29h7.14v2.29Z"/>
    <path d="m46.66,19h-.85v3.99h-2.41v-11.9h3.45c2.36,0,3.76,1.46,3.76,3.96,0,1.61-.6,2.8-1.65,3.43l2.24,4.5h-2.63l-1.9-3.99Zm-.88-9.04l-1.38-2.33h1.51l.75,1.14.73-1.14h1.51l-1.38,2.33h-1.75Zm.03,6.75h1c.85,0,1.31-.58,1.31-1.65s-.46-1.67-1.31-1.67h-1v3.31Z"/>
    <path d="m60.34,20.7v2.29h-6.31v-11.9h6.14v2.29h-3.72v2.46h3.38v2.21h-3.38v2.63h3.89Z"/>
    <path d="m70.95,19.45c0,2.12-1.46,3.55-3.5,3.55h-3.76v-11.9h3.71c1.84,0,3.15,1.36,3.15,3.38,0,.9-.37,1.85-1,2.43.88.51,1.41,1.46,1.41,2.53Zm-4.84-6.07v2.48h.95c.68,0,1.04-.44,1.04-1.27s-.34-1.21-1.12-1.21h-.87Zm2.36,6.05c0-.87-.49-1.31-1.39-1.31h-.97v2.6h.92c.95,0,1.44-.44,1.44-1.29Z"/>
    <path d="m78.18,21.03h-2.52l-.39,1.97h-2.5l2.86-11.9h2.58l2.86,11.9h-2.5l-.39-1.97Zm-.48-2.29l-.27-1.36c-.15-.85-.36-2.29-.48-3.26h-.07c-.12.97-.31,2.41-.48,3.26l-.27,1.36h1.56Z"/>
    <path d="m95.28,20.7v2.29h-6.31v-11.9h6.14v2.29h-3.72v2.46h3.38v2.21h-3.38v2.63h3.89Z"/>
    <path d="m104.58,20.7v2.29h-5.95v-11.9h2.41v9.6h3.54Z"/>
    <path d="m113.74,20.7v2.29h-6.31v-11.9h6.14v2.29h-3.72v2.46h3.38v2.21h-3.38v2.63h3.89Z"/>
    <path d="m120.13,18.49l-.66,1.07v3.43h-2.38v-11.9h2.38v4.56l.61-1.33,1.67-3.23h2.75l-3.03,5.2,3.54,6.7h-2.72l-2.16-4.5Z"/>
    <path d="m134.1,13.39h-2.33v9.6h-2.48v-9.6h-2.33v-2.29h7.14v2.29Z"/>
    <path d="m140.21,19h-.85v3.99h-2.41v-11.9h3.45c2.36,0,3.76,1.46,3.76,3.96,0,1.61-.6,2.8-1.65,3.43l2.24,4.5h-2.63l-1.9-3.99Zm-.88-9.04l-1.38-2.33h1.51l.75,1.14.73-1.14h1.51l-1.38,2.33h-1.75Zm.03,6.75h1c.85,0,1.31-.58,1.31-1.65s-.46-1.67-1.31-1.67h-1v3.31Z"/>
    <path d="m147.59,11.1h2.41v11.9h-2.41v-11.9Z"/>
    <path d="m153.81,11.1h2.38l2.26,5.17c.29.75.56,1.53.85,2.28l.05-.05c-.2-1.5-.34-3.54-.34-4.64v-2.75h2.38v11.9h-2.38l-2.01-4.61-1.07-2.91-.05.05c.19,1.5.31,3.72.31,5.05v2.41h-2.38v-11.9Z"/>
    <path d="m166.95,19.46l-2.8-8.36h2.5l.97,3.3c.12.39.39,1.33.51,1.9h.07c.14-.58.41-1.51.54-1.96l.94-3.25h2.5l-2.81,8.36v3.54h-2.41v-3.54Z"/>
    <path d="m179.02,11.1h2.5l1.07,5.63c.17.87.37,2.33.49,3.31h.07c.12-.99.32-2.45.49-3.31l1.07-5.63h2.5l-2.82,11.9h-2.55l-2.82-11.9Z"/>
    <path d="m195.12,11.1h3.26c2.4,0,3.81,1.46,3.81,3.94v3.93c0,2.53-1.39,4.03-3.77,4.03h-3.3v-11.9Zm3.3,9.6c.87,0,1.33-.59,1.33-1.73v-3.93c0-1.09-.46-1.65-1.33-1.65h-.88v7.31h.88Z"/>
    <path d="m209.84,21.03h-2.52l-.39,1.97h-2.5l2.86-11.9h2.58l2.86,11.9h-2.5l-.39-1.97Zm-.48-2.29l-.27-1.36c-.15-.85-.36-2.29-.48-3.26h-.07c-.12.97-.31,2.41-.48,3.26l-.27,1.36h1.56Z"/>
    <path d="m221.48,20.7v2.29h-5.95v-11.9h2.41v9.6h3.54Z"/>
    <path d="m230.76,19.85c0,1.95-1.38,3.38-3.74,3.38s-3.69-1.31-3.69-3.71h2.48c0,.95.48,1.36,1.24,1.36s1.19-.46,1.19-1.05c0-1.97-4.66-2.21-4.66-5.83,0-1.82,1.27-3.14,3.47-3.14s3.52,1.31,3.52,3.5h-2.48c0-.78-.36-1.17-1.05-1.17-.63,0-1,.34-1,.88,0,1.87,4.73,1.99,4.73,5.78Zm-4.57-9.89l-1.38-2.33h1.51l.75,1.14.73-1.14h1.51l-1.38,2.33h-1.75Z"/>
    <path d="m233.74,11.1h2.41v11.9h-2.41v-11.9Zm1.65-3.47h1.92l-1.92,2.33h-1.6l1.6-2.33Z"/>
    <path d="m239.62,19.36v-4.62c0-2.52,1.36-3.88,3.69-3.88s3.71,1.36,3.79,3.88h-2.41c-.07-1.09-.48-1.53-1.39-1.53-.73,0-1.16.48-1.16,1.53v4.62c0,1.02.41,1.5,1.16,1.5.93,0,1.36-.44,1.43-1.5h2.41c-.05,2.5-1.43,3.84-3.84,3.84s-3.67-1.34-3.67-3.84Z"/>
    <path d="m257.54,11.1v11.9h-2.43v-4.84h-2.45v4.84h-2.43v-11.9h2.43v4.76h2.45v-4.76h2.43Z"/>
    <path d="m266.45,11.1h3.26c2.4,0,3.81,1.46,3.81,3.94v3.93c0,2.53-1.39,4.03-3.77,4.03h-3.3v-11.9Zm3.3,9.6c.87,0,1.33-.59,1.33-1.73v-3.93c0-1.09-.46-1.65-1.33-1.65h-.88v7.31h.88Z"/>
    <path d="m283.29,20.7v2.29h-6.31v-11.9h6.14v2.29h-3.72v2.46h3.38v2.21h-3.38v2.63h3.89Z"/>
    <path d="m289.69,18.49l-.66,1.07v3.43h-2.38v-11.9h2.38v4.56l.61-1.33,1.67-3.23h2.75l-3.03,5.2,3.54,6.7h-2.72l-2.16-4.5Z"/>
    <path d="m301.72,21.03h-2.52l-.39,1.97h-2.5l2.86-11.9h2.58l2.86,11.9h-2.5l-.39-1.97Zm-.83-11.07h-1.6l1.6-2.33h1.92l-1.92,2.33Zm.36,8.77l-.27-1.36c-.15-.85-.36-2.29-.48-3.26h-.07c-.12.97-.31,2.41-.48,3.26l-.27,1.36h1.56Z"/>
    <path d="m307.42,11.1h3.26c2.4,0,3.81,1.46,3.81,3.94v3.93c0,2.53-1.39,4.03-3.77,4.03h-3.3v-11.9Zm3.3,9.6c.87,0,1.33-.59,1.33-1.73v-3.93c0-1.09-.46-1.65-1.33-1.65h-.88v7.31h.88Z"/>
    <path d="m322.14,21.03h-2.52l-.39,1.97h-2.5l2.86-11.9h2.58l2.86,11.9h-2.5l-.39-1.97Zm-.83-11.07h-1.6l1.6-2.33h1.92l-1.92,2.33Zm.36,8.77l-.27-1.36c-.15-.85-.36-2.29-.48-3.26h-.07c-.12.97-.31,2.41-.48,3.26l-.27,1.36h1.56Z"/>
    <path d="m327.27,19.36v-4.62c0-2.52,1.36-3.88,3.69-3.88s3.71,1.36,3.79,3.88h-2.41c-.07-1.09-.48-1.53-1.39-1.53-.73,0-1.16.48-1.16,1.53v4.62c0,1.02.41,1.5,1.16,1.5.93,0,1.36-.44,1.43-1.5h2.41c-.05,2.5-1.43,3.84-3.84,3.84s-3.67-1.34-3.67-3.84Z"/>
    <path d="m345.19,11.1v11.9h-2.43v-4.84h-2.45v4.84h-2.43v-11.9h2.43v4.76h2.45v-4.76h2.43Z"/>
    <path d="m361.48,15.15c0,2.53-1.46,4.03-3.93,4.03h-1.04v3.82h-2.41v-11.9h3.45c2.46,0,3.93,1.5,3.93,4.05Zm-2.48,0c0-1.16-.51-1.75-1.48-1.75h-1v3.48h1c.97,0,1.48-.59,1.48-1.73Z"/>
    <path d="m364.37,19.14v-4.18c0-2.55,1.44-4.06,3.86-4.06s3.86,1.51,3.86,4.06v4.18c0,2.55-1.44,4.06-3.86,4.06s-3.86-1.51-3.86-4.06Zm5.22,0v-4.18c0-1.12-.46-1.72-1.36-1.72s-1.36.59-1.36,1.72v4.18c0,1.12.46,1.72,1.36,1.72s1.36-.6,1.36-1.72Z"/>
    <path d="m378.82,19h-.85v3.99h-2.41v-11.9h3.45c2.36,0,3.76,1.46,3.76,3.96,0,1.61-.6,2.8-1.65,3.43l2.24,4.5h-2.63l-1.9-3.99Zm-.85-2.29h1c.85,0,1.31-.58,1.31-1.65s-.46-1.67-1.31-1.67h-1v3.31Z"/>
    <path d="m385.85,19.14v-4.18c0-2.55,1.44-4.06,3.86-4.06s3.86,1.51,3.86,4.06v4.18c0,2.55-1.44,4.06-3.86,4.06s-3.86-1.51-3.86-4.06Zm5.22,0v-4.18c0-1.12-.46-1.72-1.36-1.72s-1.36.59-1.36,1.72v4.18c0,1.12.46,1.72,1.36,1.72s1.36-.6,1.36-1.72Z"/>
    <path d="m396.31,19.53h2.48c0,.95.48,1.36,1.24,1.36s1.19-.46,1.19-1.05c0-1.97-4.66-2.21-4.66-5.83,0-1.82,1.27-3.14,3.47-3.14s3.52,1.31,3.52,3.5h-2.48c0-.78-.36-1.17-1.05-1.17-.63,0-1,.34-1,.88,0,1.87,4.73,1.99,4.73,5.78,0,1.95-1.38,3.38-3.74,3.38s-3.69-1.31-3.69-3.71Z"/>
    <path d="m413.22,13.39h-2.33v9.6h-2.48v-9.6h-2.33v-2.29h7.14v2.29Z"/>
    <path d="m422.37,20.7v2.29h-6.31v-11.9h6.14v2.29h-3.72v2.46h3.38v2.21h-3.38v2.63h3.89Z"/>
  </g>
  <g>
    <path class="cls-3" d="m4.6,44.17h-1.31v-9.95h1.31v9.95Z"/>
    <path class="cls-3" d="m8.17,44.17h-1.26v-10.5h1.26v10.5Z"/>
    <path class="cls-3" d="m14.76,43.44c-.49.58-1.21.87-2.17.87-.79,0-1.39-.23-1.8-.69-.41-.46-.62-1.14-.63-2.03v-4.81h1.26v4.78c0,1.12.46,1.68,1.37,1.68.97,0,1.61-.36,1.93-1.08v-5.38h1.26v7.4h-1.2l-.03-.73Z"/>
    <path class="cls-3" d="m22.22,42.2c0-.34-.13-.61-.39-.8-.26-.19-.71-.35-1.35-.49s-1.15-.3-1.52-.49-.65-.42-.83-.68-.27-.58-.27-.94c0-.61.26-1.12.77-1.54s1.17-.63,1.97-.63c.84,0,1.52.22,2.04.65s.78.99.78,1.66h-1.27c0-.35-.15-.64-.44-.9s-.66-.38-1.11-.38-.82.1-1.08.3-.39.46-.39.79c0,.31.12.54.36.69s.68.3,1.31.44,1.14.31,1.53.51.68.43.87.71c.19.28.28.61.28,1.01,0,.66-.26,1.19-.79,1.59-.53.4-1.21.6-2.06.6-.59,0-1.12-.1-1.57-.31s-.81-.5-1.07-.88c-.26-.38-.39-.78-.39-1.22h1.26c.02.42.19.76.51,1.01.32.25.73.37,1.25.37.48,0,.86-.1,1.15-.29.29-.19.43-.45.43-.78Z"/>
    <path class="cls-3" d="m26.85,34.98v1.79h1.38v.98h-1.38v4.59c0,.3.06.52.18.67s.33.22.63.22c.15,0,.35-.03.6-.08v1.02c-.33.09-.66.14-.97.14-.56,0-.99-.17-1.28-.51s-.43-.83-.43-1.46v-4.59h-1.35v-.98h1.35v-1.79h1.26Z"/>
    <path class="cls-3" d="m33.28,37.9c-.19-.03-.4-.05-.62-.05-.83,0-1.39.35-1.69,1.06v5.25h-1.26v-7.4h1.23l.02.85c.41-.66,1-.99,1.76-.99.25,0,.43.03.56.1v1.18Z"/>
    <path class="cls-3" d="m38.74,44.17c-.07-.15-.13-.41-.18-.78-.59.61-1.29.92-2.11.92-.73,0-1.33-.21-1.79-.62-.47-.41-.7-.93-.7-1.57,0-.77.29-1.37.88-1.79.59-.43,1.41-.64,2.47-.64h1.23v-.58c0-.44-.13-.79-.4-1.06-.26-.26-.65-.39-1.17-.39-.45,0-.83.11-1.13.34s-.46.5-.46.83h-1.27c0-.37.13-.73.39-1.07.26-.34.62-.62,1.07-.82s.94-.3,1.48-.3c.85,0,1.52.21,2,.64.48.43.73,1.01.75,1.76v3.4c0,.68.09,1.22.26,1.62v.11h-1.33Zm-2.1-.96c.4,0,.77-.1,1.13-.31s.61-.47.77-.8v-1.52h-.99c-1.55,0-2.32.45-2.32,1.36,0,.4.13.71.4.93s.6.33,1.02.33Z"/>
    <path class="cls-3" d="m43.5,34.98v1.79h1.38v.98h-1.38v4.59c0,.3.06.52.18.67s.33.22.63.22c.15,0,.35-.03.6-.08v1.02c-.33.09-.66.14-.97.14-.56,0-.99-.17-1.28-.51s-.43-.83-.43-1.46v-4.59h-1.35v-.98h1.35v-1.79h1.26Z"/>
    <path class="cls-3" d="m46.36,34.81c0-.21.06-.38.19-.52s.31-.21.56-.21.43.07.56.21.19.31.19.52-.06.38-.19.51-.31.21-.56.21-.43-.07-.56-.21-.19-.31-.19-.51Zm1.37,9.36h-1.26v-7.4h1.26v7.4Z"/>
    <path class="cls-3" d="m52.2,42.45l1.83-5.68h1.29l-2.65,7.4h-.96l-2.68-7.4h1.29l1.88,5.68Z"/>
    <path class="cls-3" d="m57.73,36.77l.04.93c.56-.71,1.3-1.07,2.21-1.07,1.56,0,2.35.88,2.37,2.65v4.89h-1.26v-4.89c0-.53-.13-.93-.37-1.18s-.61-.38-1.12-.38c-.41,0-.77.11-1.08.33s-.55.51-.72.86v5.27h-1.26v-7.4h1.2Z"/>
    <path class="cls-3" d="m65.65,33.67h1.53l-1.83,2.01h-1.02s1.32-2.01,1.32-2.01Zm-.01,10.49h-1.27v-7.4h1.27v7.4Z"/>
    <path class="cls-3" d="m73.63,42.45l1.83-5.68h1.29l-2.65,7.4h-.96l-2.68-7.4h1.29l1.88,5.68Z"/>
    <path class="cls-3" d="m80.39,42.31l1.72-5.54h1.35l-2.97,8.54c-.46,1.23-1.19,1.85-2.19,1.85l-.24-.02-.47-.09v-1.03l.34.03c.43,0,.76-.09,1-.26s.44-.49.59-.95l.28-.75-2.64-7.31h1.38l1.85,5.54Zm.72-8.65h1.53l-1.83,2.01h-1.02s1.32-2.01,1.32-2.01Z"/>
    <path class="cls-3" d="m87.03,42.45l1.83-5.68h1.29l-2.65,7.4h-.96l-2.68-7.4h1.29l1.88,5.68Z"/>
    <path class="cls-3" d="m90.93,40.4c0-.72.14-1.38.43-1.96s.68-1.03,1.19-1.34,1.09-.47,1.74-.47c1.01,0,1.82.35,2.44,1.05s.93,1.62.93,2.78v.09c0,.72-.14,1.37-.41,1.94-.28.57-.67,1.02-1.18,1.34s-1.1.48-1.77.48c-1,0-1.81-.35-2.44-1.05s-.93-1.62-.93-2.77v-.09Zm1.27.15c0,.82.19,1.48.57,1.98s.89.75,1.53.75,1.15-.25,1.53-.75c.38-.5.57-1.21.57-2.12,0-.81-.19-1.47-.58-1.97-.39-.5-.9-.76-1.53-.76s-1.13.25-1.51.75-.57,1.21-.57,2.13Z"/>
    <path class="cls-3" d="m100.56,36.77v8.25c0,1.42-.65,2.13-1.93,2.13-.28,0-.54-.04-.77-.12v-1.01c.15.04.34.05.57.05.28,0,.5-.08.65-.23.15-.15.22-.42.22-.8v-8.28h1.26Zm-1.39-1.96c0-.2.06-.37.19-.52.13-.14.31-.21.55-.21s.43.07.56.21.19.31.19.52-.06.38-.19.51-.31.21-.56.21-.43-.07-.55-.21-.18-.31-.18-.51Z"/>
    <path class="cls-3" d="m110.37,42.2c0-.34-.13-.61-.39-.8-.26-.19-.71-.35-1.35-.49s-1.15-.3-1.52-.49-.65-.42-.83-.68-.27-.58-.27-.94c0-.61.26-1.12.77-1.54s1.17-.63,1.97-.63c.84,0,1.52.22,2.04.65s.78.99.78,1.66h-1.27c0-.35-.15-.64-.44-.9s-.66-.38-1.11-.38-.82.1-1.08.3-.39.46-.39.79c0,.31.12.54.36.69s.68.3,1.31.44,1.14.31,1.53.51.68.43.87.71c.19.28.28.61.28,1.01,0,.66-.26,1.19-.79,1.59-.53.4-1.21.6-2.06.6-.59,0-1.12-.1-1.57-.31s-.81-.5-1.07-.88c-.26-.38-.39-.78-.39-1.22h1.26c.02.42.19.76.51,1.01.32.25.73.37,1.25.37.48,0,.86-.1,1.15-.29.29-.19.43-.45.43-.78Z"/>
    <path class="cls-3" d="m119.53,40.55c0,1.13-.26,2.03-.77,2.72s-1.21,1.03-2.09,1.03-1.6-.29-2.12-.85v3.56h-1.26v-10.24h1.16l.06.82c.52-.64,1.23-.96,2.15-.96s1.59.33,2.11,1,.78,1.6.78,2.8v.12Zm-1.26-.14c0-.83-.18-1.49-.53-1.98s-.84-.72-1.46-.72c-.77,0-1.34.34-1.72,1.02v3.53c.38.67.96,1.01,1.74,1.01.61,0,1.09-.24,1.45-.72.36-.48.54-1.19.54-2.14Z"/>
    <path class="cls-3" d="m120.8,40.4c0-.72.14-1.38.43-1.96s.68-1.03,1.19-1.34,1.09-.47,1.74-.47c1.01,0,1.82.35,2.44,1.05s.93,1.62.93,2.78v.09c0,.72-.14,1.37-.41,1.94-.28.57-.67,1.02-1.18,1.34s-1.1.48-1.77.48c-1,0-1.81-.35-2.44-1.05s-.93-1.62-.93-2.77v-.09Zm1.27.15c0,.82.19,1.48.57,1.98s.89.75,1.53.75,1.15-.25,1.53-.75c.38-.5.57-1.21.57-2.12,0-.81-.19-1.47-.58-1.97-.39-.5-.9-.76-1.53-.76s-1.13.25-1.51.75-.57,1.21-.57,2.13Z"/>
    <path class="cls-3" d="m130.84,34.98v1.79h1.38v.98h-1.38v4.59c0,.3.06.52.18.67s.33.22.63.22c.15,0,.35-.03.6-.08v1.02c-.33.09-.66.14-.97.14-.56,0-.99-.17-1.28-.51s-.43-.83-.43-1.46v-4.59h-1.35v-.98h1.35v-1.79h1.26Z"/>
    <path class="cls-3" d="m135.52,34.83l1.03-1.16h1.09v.07l-1.74,1.87h-.77l-1.72-1.87v-.07h1.07l1.03,1.16Zm1.75,3.08c-.19-.03-.4-.05-.62-.05-.83,0-1.39.35-1.69,1.06v5.25h-1.26v-7.4h1.23l.02.85c.41-.66,1-.99,1.76-.99.25,0,.43.03.56.1v1.18Z"/>
    <path class="cls-3" d="m141.5,44.3c-1,0-1.82-.33-2.45-.99-.63-.66-.94-1.54-.94-2.64v-.23c0-.73.14-1.39.42-1.97.28-.58.67-1.03,1.18-1.35.5-.33,1.05-.49,1.64-.49.96,0,1.71.32,2.24.95s.8,1.54.8,2.72v.53h-5.01c.02.73.23,1.32.64,1.77.41.45.93.67,1.56.67.45,0,.82-.09,1.13-.27s.58-.42.81-.72l.77.6c-.62.95-1.55,1.43-2.79,1.43Zm-.16-6.63c-.51,0-.94.19-1.29.56-.35.37-.56.89-.64,1.56h3.71v-.1c-.04-.64-.21-1.14-.52-1.49-.31-.35-.73-.53-1.26-.53Z"/>
    <path class="cls-3" d="m152.11,40.55c0,1.13-.26,2.04-.78,2.72-.52.69-1.22,1.03-2.09,1.03-.93,0-1.66-.33-2.17-.99l-.06.85h-1.16v-10.5h1.26v3.92c.51-.63,1.21-.95,2.11-.95s1.6.34,2.12,1.02.77,1.61.77,2.79v.11Zm-1.26-.14c0-.86-.17-1.53-.5-2s-.81-.7-1.44-.7c-.83,0-1.43.39-1.8,1.16v3.2c.39.77.99,1.16,1.81,1.16.61,0,1.08-.23,1.42-.7s.51-1.18.51-2.12Z"/>
    <path class="cls-3" d="m156.12,42.31l1.72-5.54h1.35l-2.97,8.54c-.46,1.23-1.19,1.85-2.19,1.85l-.24-.02-.47-.09v-1.03l.34.03c.43,0,.76-.09,1-.26s.44-.49.59-.95l.28-.75-2.64-7.31h1.38l1.85,5.54Z"/>
    <path class="cls-3" d="m166.86,44.3c-1,0-1.82-.33-2.45-.99-.63-.66-.94-1.54-.94-2.64v-.23c0-.73.14-1.39.42-1.97.28-.58.67-1.03,1.18-1.35.5-.33,1.05-.49,1.64-.49.96,0,1.71.32,2.24.95s.8,1.54.8,2.72v.53h-5.01c.02.73.23,1.32.64,1.77.41.45.93.67,1.56.67.45,0,.82-.09,1.13-.27s.58-.42.81-.72l.77.6c-.62.95-1.55,1.43-2.79,1.43Zm-.16-6.63c-.51,0-.94.19-1.29.56-.35.37-.56.89-.64,1.56h3.71v-.1c-.04-.64-.21-1.14-.52-1.49-.31-.35-.73-.53-1.26-.53Z"/>
    <path class="cls-3" d="m172.58,44.17h-1.26v-10.5h1.26v10.5Z"/>
    <path class="cls-3" d="m177.68,44.3c-1,0-1.82-.33-2.45-.99-.63-.66-.94-1.54-.94-2.64v-.23c0-.73.14-1.39.42-1.97.28-.58.67-1.03,1.18-1.35.5-.33,1.05-.49,1.64-.49.96,0,1.71.32,2.24.95s.8,1.54.8,2.72v.53h-5.01c.02.73.23,1.32.64,1.77.41.45.93.67,1.56.67.45,0,.82-.09,1.13-.27s.58-.42.81-.72l.77.6c-.62.95-1.55,1.43-2.79,1.43Zm-.16-6.63c-.51,0-.94.19-1.29.56-.35.37-.56.89-.64,1.56h3.71v-.1c-.04-.64-.21-1.14-.52-1.49-.31-.35-.73-.53-1.26-.53Z"/>
    <path class="cls-3" d="m184.09,40.74l-.79.83v2.6h-1.26v-10.5h1.26v6.35l.68-.81,2.3-2.43h1.54l-2.88,3.09,3.21,4.31h-1.48l-2.58-3.42Z"/>
    <path class="cls-3" d="m190.84,34.98v1.79h1.38v.98h-1.38v4.59c0,.3.06.52.18.67s.33.22.63.22c.15,0,.35-.03.6-.08v1.02c-.33.09-.66.14-.97.14-.56,0-.99-.17-1.28-.51s-.43-.83-.43-1.46v-4.59h-1.35v-.98h1.35v-1.79h1.26Z"/>
    <path class="cls-3" d="m195.52,34.83l1.03-1.16h1.09v.07l-1.74,1.87h-.77l-1.72-1.87v-.07h1.07l1.03,1.16Zm1.75,3.08c-.19-.03-.4-.05-.62-.05-.83,0-1.39.35-1.69,1.06v5.25h-1.26v-7.4h1.23l.02.85c.41-.66,1-.99,1.76-.99.25,0,.43.03.56.1v1.18Z"/>
    <path class="cls-3" d="m198.44,34.81c0-.21.06-.38.19-.52s.31-.21.56-.21.43.07.56.21.19.31.19.52-.06.38-.19.51-.31.21-.56.21-.43-.07-.56-.21-.19-.31-.19-.51Zm1.37,9.36h-1.26v-7.4h1.26v7.4Z"/>
    <path class="cls-3" d="m203.02,36.77l.04.93c.56-.71,1.3-1.07,2.21-1.07,1.56,0,2.35.88,2.37,2.65v4.89h-1.26v-4.89c0-.53-.13-.93-.37-1.18s-.61-.38-1.12-.38c-.41,0-.77.11-1.08.33s-.55.51-.72.86v5.27h-1.26v-7.4h1.2Z"/>
    <path class="cls-3" d="m211.97,42.31l1.72-5.54h1.35l-2.97,8.54c-.46,1.23-1.19,1.85-2.19,1.85l-.24-.02-.47-.09v-1.03l.34.03c.43,0,.76-.09,1-.26s.44-.49.59-.95l.28-.75-2.64-7.31h1.38l1.85,5.54Z"/>
    <path class="cls-3" d="m217.85,37.4l-1.77-.53.27-.88,1.77.66-.05-2.01h.9l-.06,2.04,1.74-.64.27.89-1.8.53,1.16,1.59-.73.55-1.09-1.69-1.05,1.65-.73-.53,1.18-1.62Z"/>
    <path class="cls-3" d="m227.95,42.45l1.83-5.68h1.29l-2.65,7.4h-.96l-2.68-7.4h1.29l1.88,5.68Z"/>
    <path class="cls-3" d="m243.28,41.01c-.12,1.05-.51,1.87-1.17,2.44-.65.57-1.52.86-2.61.86-1.18,0-2.12-.42-2.83-1.26s-1.06-1.97-1.06-3.38v-.96c0-.92.17-1.74.5-2.44s.8-1.24,1.4-1.62c.61-.38,1.31-.56,2.11-.56,1.06,0,1.9.29,2.54.88.64.59,1.01,1.41,1.11,2.45h-1.32c-.11-.79-.36-1.37-.74-1.73s-.91-.54-1.6-.54c-.84,0-1.5.31-1.97.93s-.71,1.5-.71,2.65v.96c0,1.08.23,1.94.68,2.58s1.08.96,1.89.96c.73,0,1.29-.17,1.68-.5.39-.33.65-.91.78-1.73h1.32Zm-3.84-8.52l1.03-1.16h1.09v.07l-1.74,1.87h-.77l-1.72-1.87v-.07h1.07l1.03,1.16Z"/>
    <path class="cls-3" d="m248.72,40.14h-2.34v4.03h-1.32v-9.95h3.29c1.12,0,1.98.25,2.59.77s.91,1.25.91,2.23c0,.62-.17,1.16-.5,1.62s-.8.8-1.4,1.03l2.34,4.22v.08h-1.41l-2.16-4.03Zm-2.34-1.07h2.02c.65,0,1.17-.17,1.56-.51s.58-.79.58-1.36c0-.62-.18-1.09-.55-1.42s-.9-.5-1.59-.5h-2.01v3.78Z"/>
    <path class="cls-3" d="m259.4,42.45l1.83-5.68h1.29l-2.65,7.4h-.96l-2.68-7.4h1.29l1.88,5.68Z"/>
    <path class="cls-3" d="m266.89,40.41c0-1.13.27-2.05.81-2.74.54-.69,1.24-1.04,2.11-1.04s1.55.3,2.06.89v-3.86h1.26v10.5h-1.16l-.06-.79c-.51.62-1.21.93-2.11.93s-1.56-.35-2.1-1.05-.81-1.62-.81-2.75v-.1Zm1.26.14c0,.84.17,1.5.52,1.97s.82.71,1.44.71c.8,0,1.39-.36,1.76-1.08v-3.4c-.38-.7-.96-1.05-1.74-1.05-.62,0-1.1.24-1.45.72s-.52,1.19-.52,2.13Z"/>
    <path class="cls-3" d="m279.66,44.17c-.07-.15-.13-.41-.18-.78-.59.61-1.29.92-2.11.92-.73,0-1.33-.21-1.79-.62-.47-.41-.7-.93-.7-1.57,0-.77.29-1.37.88-1.79.59-.43,1.41-.64,2.47-.64h1.23v-.58c0-.44-.13-.79-.4-1.06-.26-.26-.65-.39-1.17-.39-.45,0-.83.11-1.13.34s-.46.5-.46.83h-1.27c0-.37.13-.73.39-1.07.26-.34.62-.62,1.07-.82s.94-.3,1.48-.3c.85,0,1.52.21,2,.64.48.43.73,1.01.75,1.76v3.4c0,.68.09,1.22.26,1.62v.11h-1.33Zm-2.1-.96c.4,0,.77-.1,1.13-.31s.61-.47.77-.8v-1.52h-.99c-1.55,0-2.32.45-2.32,1.36,0,.4.13.71.4.93s.6.33,1.02.33Z"/>
    <path class="cls-3" d="m284.09,44.17h-1.26v-10.5h1.26v10.5Z"/>
    <path class="cls-3" d="m290.42,42.2c0-.34-.13-.61-.39-.8-.26-.19-.71-.35-1.35-.49s-1.15-.3-1.52-.49-.65-.42-.83-.68-.27-.58-.27-.94c0-.61.26-1.12.77-1.54s1.17-.63,1.97-.63c.84,0,1.52.22,2.04.65s.78.99.78,1.66h-1.27c0-.35-.15-.64-.44-.9s-.66-.38-1.11-.38-.82.1-1.08.3-.39.46-.39.79c0,.31.12.54.36.69s.68.3,1.31.44,1.14.31,1.53.51.68.43.87.71c.19.28.28.61.28,1.01,0,.66-.26,1.19-.79,1.59-.53.4-1.21.6-2.06.6-.59,0-1.12-.1-1.57-.31s-.81-.5-1.07-.88c-.26-.38-.39-.78-.39-1.22h1.26c.02.42.19.76.51,1.01.32.25.73.37,1.25.37.48,0,.86-.1,1.15-.29.29-.19.43-.45.43-.78Zm-1.43-7.38l1.03-1.16h1.09v.07l-1.74,1.87h-.77l-1.72-1.87v-.07h1.07l1.03,1.16Z"/>
    <path class="cls-3" d="m294.72,33.67h1.53l-1.83,2.01h-1.02s1.32-2.01,1.32-2.01Zm-.01,10.49h-1.27v-7.4h1.27v7.4Z"/>
    <path class="cls-3" d="m299.76,43.27c.45,0,.85-.14,1.18-.41s.52-.62.56-1.03h1.2c-.02.42-.17.83-.44,1.21s-.63.69-1.08.92-.92.34-1.43.34c-1.01,0-1.81-.34-2.4-1.01-.59-.67-.89-1.59-.89-2.76v-.21c0-.72.13-1.36.4-1.92s.64-1,1.14-1.31,1.08-.46,1.75-.46c.83,0,1.52.25,2.07.75s.84,1.14.88,1.93h-1.2c-.04-.48-.22-.87-.54-1.18-.33-.31-.73-.46-1.21-.46-.64,0-1.14.23-1.49.69-.35.46-.53,1.13-.53,2.01v.24c0,.85.18,1.51.53,1.97s.85.69,1.5.69Z"/>
    <path class="cls-3" d="m305.38,37.67c.56-.69,1.29-1.03,2.19-1.03,1.56,0,2.35.88,2.37,2.65v4.89h-1.26v-4.89c0-.53-.13-.93-.37-1.18s-.61-.38-1.12-.38c-.41,0-.77.11-1.08.33s-.55.51-.72.86v5.27h-1.26v-10.5h1.26v4Z"/>
    <path class="cls-3" d="m314.99,40.41c0-1.13.27-2.05.81-2.74.54-.69,1.24-1.04,2.11-1.04s1.55.3,2.06.89v-3.86h1.26v10.5h-1.16l-.06-.79c-.51.62-1.21.93-2.11.93s-1.56-.35-2.1-1.05-.81-1.62-.81-2.75v-.1Zm1.26.14c0,.84.17,1.5.52,1.97s.82.71,1.44.71c.8,0,1.39-.36,1.76-1.08v-3.4c-.38-.7-.96-1.05-1.74-1.05-.62,0-1.1.24-1.45.72s-.52,1.19-.52,2.13Z"/>
    <path class="cls-3" d="m326.26,44.3c-1,0-1.82-.33-2.45-.99-.63-.66-.94-1.54-.94-2.64v-.23c0-.73.14-1.39.42-1.97.28-.58.67-1.03,1.18-1.35.5-.33,1.05-.49,1.64-.49.96,0,1.71.32,2.24.95s.8,1.54.8,2.72v.53h-5.01c.02.73.23,1.32.64,1.77.41.45.93.67,1.56.67.45,0,.82-.09,1.13-.27s.58-.42.81-.72l.77.6c-.62.95-1.55,1.43-2.79,1.43Zm-.16-6.63c-.51,0-.94.19-1.29.56-.35.37-.56.89-.64,1.56h3.71v-.1c-.04-.64-.21-1.14-.52-1.49-.31-.35-.73-.53-1.26-.53Z"/>
    <path class="cls-3" d="m332.67,40.74l-.79.83v2.6h-1.26v-10.5h1.26v6.35l.68-.81,2.3-2.43h1.54l-2.88,3.09,3.21,4.31h-1.48l-2.58-3.42Z"/>
    <path class="cls-3" d="m342.27,44.17c-.07-.15-.13-.41-.18-.78-.59.61-1.29.92-2.11.92-.73,0-1.33-.21-1.79-.62-.47-.41-.7-.93-.7-1.57,0-.77.29-1.37.88-1.79.59-.43,1.41-.64,2.47-.64h1.23v-.58c0-.44-.13-.79-.4-1.06-.26-.26-.65-.39-1.17-.39-.45,0-.83.11-1.13.34s-.46.5-.46.83h-1.27c0-.37.13-.73.39-1.07.26-.34.62-.62,1.07-.82s.94-.3,1.48-.3c.85,0,1.52.21,2,.64.48.43.73,1.01.75,1.76v3.4c0,.68.09,1.22.26,1.62v.11h-1.33Zm-2.1-.96c.4,0,.77-.1,1.13-.31s.61-.47.77-.8v-1.52h-.99c-1.55,0-2.32.45-2.32,1.36,0,.4.13.71.4.93s.6.33,1.02.33Zm1.17-9.54h1.53l-1.83,2.01h-1.02s1.32-2.01,1.32-2.01Z"/>
    <path class="cls-3" d="m345.01,40.41c0-1.13.27-2.05.81-2.74.54-.69,1.24-1.04,2.11-1.04s1.55.3,2.06.89v-3.86h1.26v10.5h-1.16l-.06-.79c-.51.62-1.21.93-2.11.93s-1.56-.35-2.1-1.05-.81-1.62-.81-2.75v-.1Zm1.26.14c0,.84.17,1.5.52,1.97s.82.71,1.44.71c.8,0,1.39-.36,1.76-1.08v-3.4c-.38-.7-.96-1.05-1.74-1.05-.62,0-1.1.24-1.45.72s-.52,1.19-.52,2.13Z"/>
    <path class="cls-3" d="m357.78,44.17c-.07-.15-.13-.41-.18-.78-.59.61-1.29.92-2.11.92-.73,0-1.33-.21-1.79-.62-.47-.41-.7-.93-.7-1.57,0-.77.29-1.37.88-1.79.59-.43,1.41-.64,2.47-.64h1.23v-.58c0-.44-.13-.79-.4-1.06-.26-.26-.65-.39-1.17-.39-.45,0-.83.11-1.13.34s-.46.5-.46.83h-1.27c0-.37.13-.73.39-1.07.26-.34.62-.62,1.07-.82s.94-.3,1.48-.3c.85,0,1.52.21,2,.64.48.43.73,1.01.75,1.76v3.4c0,.68.09,1.22.26,1.62v.11h-1.33Zm-2.1-.96c.4,0,.77-.1,1.13-.31s.61-.47.77-.8v-1.52h-.99c-1.55,0-2.32.45-2.32,1.36,0,.4.13.71.4.93s.6.33,1.02.33Zm1.17-9.54h1.53l-1.83,2.01h-1.02s1.32-2.01,1.32-2.01Z"/>
    <path class="cls-3" d="m363.79,43.27c.45,0,.85-.14,1.18-.41s.52-.62.56-1.03h1.2c-.02.42-.17.83-.44,1.21s-.63.69-1.08.92c-.45.23-.92.34-1.43.34-1.01,0-1.81-.34-2.4-1.01-.6-.67-.89-1.59-.89-2.76v-.21c0-.72.13-1.36.4-1.92s.64-1,1.14-1.31c.49-.31,1.08-.46,1.75-.46.83,0,1.52.25,2.07.75.55.5.84,1.14.88,1.93h-1.2c-.04-.48-.22-.87-.54-1.18-.33-.31-.73-.46-1.21-.46-.64,0-1.14.23-1.49.69-.35.46-.53,1.13-.53,2.01v.24c0,.85.18,1.51.53,1.97s.85.69,1.5.69Z"/>
    <path class="cls-3" d="m369.42,37.67c.56-.69,1.29-1.03,2.19-1.03,1.56,0,2.35.88,2.37,2.65v4.89h-1.26v-4.89c0-.53-.13-.93-.37-1.18-.24-.25-.61-.38-1.12-.38-.41,0-.77.11-1.08.33s-.55.51-.72.86v5.27h-1.26v-10.5h1.26v4Z"/>
    <path class="cls-3" d="m375.89,43.5c0-.22.06-.4.2-.55.13-.15.32-.22.58-.22s.46.07.59.22c.13.15.2.33.2.55s-.07.38-.2.53c-.13.14-.33.21-.59.21s-.46-.07-.58-.21c-.13-.14-.2-.32-.2-.53Z"/>
  </g>
  <g>
    <path class="cls-4" d="m9.61,316.22l-1.62-.48.25-.81,1.62.6-.05-1.85h.82l-.05,1.87,1.59-.59.25.82-1.65.49,1.06,1.46-.67.5-1-1.55-.97,1.51-.67-.49,1.08-1.48Z"/>
    <path class="cls-4" d="m18.22,318.33c-.8-.23-1.39-.52-1.76-.85-.37-.34-.55-.75-.55-1.25,0-.56.22-1.02.67-1.39.45-.37,1.03-.55,1.75-.55.49,0,.92.09,1.31.28.38.19.68.45.89.78.21.33.32.7.32,1.09h-.94c0-.43-.14-.77-.41-1.02-.27-.25-.66-.37-1.16-.37-.46,0-.82.1-1.08.31-.26.2-.39.49-.39.85,0,.29.12.54.37.74.25.2.66.38,1.25.55.59.17,1.05.35,1.39.55.33.2.58.43.74.7.16.27.24.58.24.94,0,.58-.22,1.04-.67,1.38s-1.05.52-1.8.52c-.49,0-.94-.09-1.37-.28s-.75-.44-.98-.77c-.23-.33-.34-.7-.34-1.11h.94c0,.43.16.77.48,1.02.32.25.74.37,1.27.37.5,0,.87-.1,1.14-.3s.4-.48.4-.83-.12-.62-.37-.81-.69-.38-1.33-.56Z"/>
    <path class="cls-4" d="m21.88,318.81c0-.52.1-.98.31-1.4.2-.41.49-.73.85-.96.36-.22.78-.34,1.24-.34.72,0,1.3.25,1.75.75.44.5.67,1.16.67,1.99v.06c0,.51-.1.98-.29,1.38-.2.41-.48.73-.85.95-.37.23-.79.34-1.26.34-.72,0-1.3-.25-1.74-.75-.45-.5-.67-1.16-.67-1.98v-.06Zm.91.11c0,.59.14,1.06.41,1.41.27.35.64.53,1.09.53s.82-.18,1.09-.54.41-.86.41-1.51c0-.58-.14-1.05-.41-1.41-.27-.36-.64-.54-1.1-.54s-.81.18-1.08.53-.41.86-.41,1.52Z"/>
    <path class="cls-4" d="m31.28,320.98c-.35.41-.87.62-1.55.62-.56,0-.99-.16-1.29-.49-.29-.33-.44-.81-.45-1.45v-3.44h.9v3.41c0,.8.33,1.2.98,1.2.69,0,1.15-.26,1.38-.77v-3.84h.9v5.28h-.86l-.02-.52Z"/>
    <path class="cls-4" d="m35.85,320.86c.32,0,.6-.1.84-.29s.37-.44.4-.73h.85c-.02.3-.12.59-.31.86s-.45.49-.77.65c-.32.16-.66.24-1.02.24-.72,0-1.29-.24-1.72-.72-.42-.48-.64-1.14-.64-1.97v-.15c0-.51.09-.97.28-1.37s.46-.71.81-.93c.35-.22.77-.33,1.25-.33.59,0,1.08.18,1.48.53.39.35.6.82.63,1.38h-.85c-.03-.34-.16-.62-.39-.84-.23-.22-.52-.33-.86-.33-.46,0-.81.17-1.07.5-.25.33-.38.81-.38,1.43v.17c0,.61.12,1.08.38,1.41s.61.49,1.07.49Zm-.21-6.03l.73-.83h.78v.05l-1.24,1.34h-.55l-1.23-1.34v-.05h.77l.74.83Z"/>
    <path class="cls-4" d="m41.36,321.6c-.72,0-1.3-.24-1.75-.71s-.67-1.1-.67-1.89v-.17c0-.52.1-.99.3-1.4.2-.41.48-.73.84-.97.36-.23.75-.35,1.17-.35.69,0,1.22.23,1.6.68s.57,1.1.57,1.94v.38h-3.58c.01.52.17.94.46,1.26.29.32.66.48,1.11.48.32,0,.59-.07.81-.2s.42-.3.58-.52l.55.43c-.44.68-1.11,1.02-1.99,1.02Zm-.11-4.74c-.36,0-.67.13-.92.4s-.4.64-.46,1.12h2.65v-.07c-.03-.46-.15-.81-.37-1.07s-.52-.38-.9-.38Z"/>
    <path class="cls-4" d="m45.89,314.94v1.28h.99v.7h-.99v3.28c0,.21.04.37.13.48.09.11.24.16.45.16.1,0,.25-.02.43-.06v.73c-.24.06-.47.1-.69.1-.4,0-.71-.12-.91-.37s-.31-.59-.31-1.04v-3.28h-.96v-.7h.96v-1.28h.9Z"/>
    <path class="cls-4" d="m52.93,320.86c.32,0,.6-.1.84-.29s.37-.44.4-.73h.85c-.02.3-.12.59-.31.86s-.45.49-.77.65c-.32.16-.66.24-1.02.24-.72,0-1.29-.24-1.72-.72-.42-.48-.64-1.14-.64-1.97v-.15c0-.51.09-.97.28-1.37s.46-.71.81-.93c.35-.22.77-.33,1.25-.33.59,0,1.08.18,1.48.53.39.35.6.82.63,1.38h-.85c-.03-.34-.16-.62-.39-.84-.23-.22-.52-.33-.86-.33-.46,0-.81.17-1.07.5-.25.33-.38.81-.38,1.43v.17c0,.61.12,1.08.38,1.41s.61.49,1.07.49Zm-.21-6.03l.73-.83h.78v.05l-1.24,1.34h-.55l-1.23-1.34v-.05h.77l.74.83Z"/>
    <path class="cls-4" d="m56.25,314.82c0-.15.04-.27.13-.37.09-.1.22-.15.4-.15s.31.05.4.15.14.22.14.37-.05.27-.14.37-.22.15-.4.15-.31-.05-.4-.15c-.09-.1-.13-.22-.13-.37Zm.98,6.68h-.9v-5.28h.9v5.28Z"/>
    <path class="cls-4" d="m61.95,320.1c0-.24-.09-.43-.28-.57-.18-.14-.5-.25-.96-.35-.46-.1-.82-.21-1.09-.35-.27-.14-.47-.3-.6-.49-.13-.19-.19-.41-.19-.67,0-.43.18-.8.55-1.1.37-.3.83-.45,1.4-.45.6,0,1.08.15,1.46.46.37.31.56.7.56,1.19h-.91c0-.25-.1-.46-.32-.64-.21-.18-.47-.27-.79-.27s-.59.07-.77.21-.28.33-.28.56c0,.22.09.38.26.49s.48.22.94.32c.45.1.82.22,1.1.36s.49.31.62.51c.13.2.2.44.2.72,0,.47-.19.85-.57,1.14s-.87.43-1.47.43c-.42,0-.8-.07-1.12-.22s-.58-.36-.76-.63c-.18-.27-.28-.56-.28-.87h.9c.02.3.14.54.36.72.23.18.53.27.9.27.34,0,.62-.07.82-.21.21-.14.31-.32.31-.55Z"/>
    <path class="cls-4" d="m65.45,314.94v1.28h.99v.7h-.99v3.28c0,.21.04.37.13.48.09.11.24.16.45.16.1,0,.25-.02.43-.06v.73c-.24.06-.47.1-.69.1-.4,0-.71-.12-.91-.37s-.31-.59-.31-1.04v-3.28h-.96v-.7h.96v-1.28h.9Z"/>
    <path class="cls-4" d="m69.89,321.6c-.72,0-1.3-.24-1.75-.71s-.67-1.1-.67-1.89v-.17c0-.52.1-.99.3-1.4.2-.41.48-.73.84-.97.36-.23.75-.35,1.17-.35.69,0,1.22.23,1.6.68s.57,1.1.57,1.94v.38h-3.58c.01.52.17.94.46,1.26.29.32.66.48,1.11.48.32,0,.59-.07.81-.2s.42-.3.58-.52l.55.43c-.44.68-1.11,1.02-1.99,1.02Zm-.11-4.74c-.36,0-.67.13-.92.4s-.4.64-.46,1.12h2.65v-.07c-.03-.46-.15-.81-.37-1.07s-.52-.38-.9-.38Zm.44-2.86h1.09l-1.31,1.44h-.73s.94-1.44.94-1.44Z"/>
    <path class="cls-4" d="m78.94,320.1c0-.24-.09-.43-.28-.57-.18-.14-.5-.25-.96-.35-.46-.1-.82-.21-1.09-.35-.27-.14-.47-.3-.6-.49-.13-.19-.19-.41-.19-.67,0-.43.18-.8.55-1.1.37-.3.83-.45,1.4-.45.6,0,1.08.15,1.46.46.37.31.56.7.56,1.19h-.91c0-.25-.1-.46-.32-.64-.21-.18-.47-.27-.79-.27s-.59.07-.77.21-.28.33-.28.56c0,.22.09.38.26.49s.48.22.94.32c.45.1.82.22,1.1.36s.49.31.62.51c.13.2.2.44.2.72,0,.47-.19.85-.57,1.14s-.87.43-1.47.43c-.42,0-.8-.07-1.12-.22s-.58-.36-.76-.63c-.18-.27-.28-.56-.28-.87h.9c.02.3.14.54.36.72.23.18.53.27.9.27.34,0,.62-.07.82-.21.21-.14.31-.32.31-.55Z"/>
    <path class="cls-4" d="m85.69,318.92c0,.8-.18,1.45-.55,1.94s-.87.74-1.49.74-1.15-.2-1.51-.61v2.54h-.9v-7.31h.83l.04.59c.37-.46.88-.68,1.53-.68s1.14.24,1.51.72c.37.48.55,1.14.55,2v.08Zm-.9-.1c0-.6-.13-1.07-.38-1.41s-.6-.52-1.04-.52c-.55,0-.96.24-1.23.73v2.52c.27.48.68.72,1.24.72.43,0,.78-.17,1.03-.52.26-.34.38-.85.38-1.53Z"/>
    <path class="cls-4" d="m86.79,318.81c0-.52.1-.98.31-1.4.2-.41.49-.73.85-.96.36-.22.78-.34,1.24-.34.72,0,1.3.25,1.75.75.44.5.67,1.16.67,1.99v.06c0,.51-.1.98-.29,1.38-.2.41-.48.73-.85.95-.37.23-.79.34-1.26.34-.72,0-1.3-.25-1.74-.75-.45-.5-.67-1.16-.67-1.98v-.06Zm.91.11c0,.59.14,1.06.41,1.41.27.35.64.53,1.09.53s.82-.18,1.09-.54.41-.86.41-1.51c0-.58-.14-1.05-.41-1.41-.27-.36-.64-.54-1.1-.54s-.81.18-1.08.53-.41.86-.41,1.52Z"/>
    <path class="cls-4" d="m94.16,314.94v1.28h.99v.7h-.99v3.28c0,.21.04.37.13.48.09.11.24.16.45.16.1,0,.25-.02.43-.06v.73c-.24.06-.47.1-.69.1-.4,0-.71-.12-.91-.37s-.31-.59-.31-1.04v-3.28h-.96v-.7h.96v-1.28h.9Z"/>
    <path class="cls-4" d="m97.71,314.83l.73-.83h.78v.05l-1.24,1.34h-.55l-1.23-1.34v-.05h.77l.74.83Zm1.25,2.2c-.14-.02-.29-.03-.44-.03-.59,0-.99.25-1.21.76v3.75h-.9v-5.28h.88v.61c.31-.47.73-.71,1.27-.71.18,0,.31.02.4.07v.84Z"/>
    <path class="cls-4" d="m102.18,321.6c-.72,0-1.3-.24-1.75-.71s-.67-1.1-.67-1.89v-.17c0-.52.1-.99.3-1.4.2-.41.48-.73.84-.97.36-.23.75-.35,1.17-.35.69,0,1.22.23,1.6.68s.57,1.1.57,1.94v.38h-3.58c.01.52.17.94.46,1.26.29.32.66.48,1.11.48.32,0,.59-.07.81-.2s.42-.3.58-.52l.55.43c-.44.68-1.11,1.02-1.99,1.02Zm-.11-4.74c-.36,0-.67.13-.92.4s-.4.64-.46,1.12h2.65v-.07c-.03-.46-.15-.81-.37-1.07s-.52-.38-.9-.38Z"/>
    <path class="cls-4" d="m109.96,318.92c0,.81-.19,1.46-.56,1.95s-.87.73-1.49.73c-.67,0-1.18-.24-1.55-.71l-.04.61h-.83v-7.5h.9v2.8c.36-.45.87-.68,1.51-.68s1.14.24,1.51.73c.37.49.55,1.15.55,1.99v.08Zm-.9-.1c0-.62-.12-1.09-.36-1.43s-.58-.5-1.03-.5c-.6,0-1.02.28-1.28.83v2.29c.28.55.71.83,1.29.83.43,0,.77-.17,1.01-.5s.36-.84.36-1.51Z"/>
    <path class="cls-4" d="m113.02,320.18l1.23-3.96h.97l-2.12,6.1c-.33.88-.85,1.32-1.57,1.32h-.17s-.34-.08-.34-.08v-.73l.24.02c.31,0,.54-.06.71-.19.17-.12.31-.35.42-.68l.2-.54-1.88-5.22h.99l1.32,3.96Z"/>
    <path class="cls-4" d="m122.16,321.5c-.05-.1-.09-.29-.13-.56-.42.44-.92.65-1.5.65-.52,0-.95-.15-1.28-.44-.33-.29-.5-.67-.5-1.12,0-.55.21-.98.63-1.28.42-.3,1.01-.46,1.76-.46h.88v-.42c0-.32-.09-.57-.28-.75s-.47-.28-.83-.28c-.32,0-.59.08-.81.24s-.33.36-.33.59h-.91c0-.26.09-.52.28-.76.19-.25.44-.44.76-.58.32-.14.67-.21,1.06-.21.61,0,1.09.15,1.43.46s.52.72.54,1.26v2.43c0,.49.06.87.19,1.16v.08h-.95Zm-1.5-.69c.28,0,.55-.07.81-.22s.44-.34.55-.57v-1.08h-.71c-1.11,0-1.66.32-1.66.97,0,.28.09.5.28.66s.43.24.73.24Z"/>
    <path class="cls-4" d="m128.07,320.77h3.09v.74h-4.19v-.66l2.92-3.87h-2.87v-.75h4v.64l-2.94,3.91Z"/>
    <path class="cls-4" d="m133.6,314.94v1.28h.99v.7h-.99v3.28c0,.21.04.37.13.48.09.11.24.16.45.16.1,0,.25-.02.43-.06v.73c-.24.06-.47.1-.69.1-.4,0-.71-.12-.91-.37s-.31-.59-.31-1.04v-3.28h-.96v-.7h.96v-1.28h.9Z"/>
    <path class="cls-4" d="m138.39,317.03c-.14-.02-.29-.03-.44-.03-.59,0-.99.25-1.21.76v3.75h-.9v-5.28h.88v.61c.31-.47.73-.71,1.27-.71.18,0,.31.02.4.07v.84Z"/>
    <path class="cls-4" d="m142.68,321.5c-.05-.1-.09-.29-.13-.56-.42.44-.92.65-1.5.65-.52,0-.95-.15-1.28-.44-.33-.29-.5-.67-.5-1.12,0-.55.21-.98.63-1.28.42-.3,1.01-.46,1.76-.46h.88v-.42c0-.32-.09-.57-.28-.75s-.47-.28-.83-.28c-.32,0-.59.08-.81.24s-.33.36-.33.59h-.91c0-.26.09-.52.28-.76.19-.25.44-.44.76-.58.32-.14.67-.21,1.06-.21.61,0,1.09.15,1.43.46s.52.72.54,1.26v2.43c0,.49.06.87.19,1.16v.08h-.95Zm-1.5-.69c.28,0,.55-.07.81-.22s.44-.34.55-.57v-1.08h-.71c-1.11,0-1.66.32-1.66.97,0,.28.09.5.28.66s.43.24.73.24Zm.83-6.81h1.09l-1.31,1.44h-.73s.94-1.44.94-1.44Z"/>
    <path class="cls-4" d="m146.29,314.94v1.28h.99v.7h-.99v3.28c0,.21.04.37.13.48.09.11.24.16.45.16.1,0,.25-.02.43-.06v.73c-.24.06-.47.1-.69.1-.4,0-.71-.12-.91-.37s-.31-.59-.31-1.04v-3.28h-.96v-.7h.96v-1.28h.9Z"/>
    <path class="cls-4" d="m152.95,320.28l1.31-4.06h.92l-1.89,5.28h-.69l-1.91-5.28h.92l1.34,4.06Z"/>
    <path class="cls-4" d="m162,320.1c0-.24-.09-.43-.28-.57-.18-.14-.5-.25-.96-.35-.46-.1-.82-.21-1.09-.35-.27-.14-.47-.3-.6-.49-.13-.19-.19-.41-.19-.67,0-.43.18-.8.55-1.1.37-.3.83-.45,1.4-.45.6,0,1.08.15,1.46.46.37.31.56.7.56,1.19h-.91c0-.25-.1-.46-.32-.64-.21-.18-.47-.27-.79-.27s-.59.07-.77.21-.28.33-.28.56c0,.22.09.38.26.49s.48.22.94.32c.45.1.82.22,1.1.36s.49.31.62.51c.13.2.2.44.2.72,0,.47-.19.85-.57,1.14s-.87.43-1.47.43c-.42,0-.8-.07-1.12-.22s-.58-.36-.76-.63c-.18-.27-.28-.56-.28-.87h.9c.02.3.14.54.36.72.23.18.53.27.9.27.34,0,.62-.07.82-.21.21-.14.31-.32.31-.55Z"/>
    <path class="cls-4" d="m165.27,314.01h1.09l-1.31,1.44h-.73s.94-1.44.94-1.44Zm0,7.5h-.91v-5.28h.91v5.28Z"/>
    <path class="cls-4" d="m168.18,314.94v1.28h.99v.7h-.99v3.28c0,.21.04.37.13.48.09.11.24.16.45.16.1,0,.25-.02.43-.06v.73c-.24.06-.47.1-.69.1-.4,0-.71-.12-.91-.37s-.31-.59-.31-1.04v-3.28h-.96v-.7h.96v-1.28h.9Z"/>
    <path class="cls-4" d="m171.41,314.01h1.09l-1.31,1.44h-.73s.94-1.44.94-1.44Zm0,7.5h-.91v-5.28h.91v5.28Z"/>
    <path class="cls-4" d="m175.21,320.86c.32,0,.6-.1.84-.29s.37-.44.4-.73h.85c-.02.3-.12.59-.31.86s-.45.49-.77.65c-.32.16-.66.24-1.02.24-.72,0-1.29-.24-1.72-.72-.42-.48-.64-1.14-.64-1.97v-.15c0-.51.09-.97.28-1.37s.46-.71.81-.93c.35-.22.77-.33,1.25-.33.59,0,1.08.18,1.48.53.39.35.6.82.63,1.38h-.85c-.03-.34-.16-.62-.39-.84-.23-.22-.52-.33-.86-.33-.46,0-.81.17-1.07.5-.25.33-.38.81-.38,1.43v.17c0,.61.12,1.08.38,1.41s.61.49,1.07.49Z"/>
    <path class="cls-4" d="m179.43,316.86c.4-.49.92-.74,1.56-.74,1.12,0,1.68.63,1.69,1.89v3.49h-.9v-3.5c0-.38-.09-.66-.26-.84-.17-.18-.44-.27-.8-.27-.29,0-.55.08-.77.23s-.39.36-.52.62v3.76h-.9v-7.5h.9v2.86Z"/>
  </g>
</svg>