<?xml version="1.0" encoding="UTF-8"?>
<svg id="Layer_1" data-name="Layer 1" xmlns="http://www.w3.org/2000/svg" viewBox="0 0 825 348.92">
  <defs>
    <style>
      .cls-1 {
        stroke-dasharray: 0 0 6 6;
      }

      .cls-1, .cls-2, .cls-3, .cls-4, .cls-5, .cls-6 {
        fill: none;
      }

      .cls-1, .cls-2, .cls-4 {
        stroke: #d9d9d9;
      }

      .cls-1, .cls-2, .cls-4, .cls-5 {
        stroke-linejoin: round;
        stroke-width: .75px;
      }

      .cls-2 {
        stroke-dasharray: 0 0 6 6;
      }

      .cls-7 {
        fill: #ed4c67;
      }

      .cls-8 {
        fill: #f5c593;
      }

      .cls-9 {
        fill: #fff;
      }

      .cls-10 {
        fill: #e6ab73;
      }

      .cls-11 {
        fill: #fcdebe;
      }

      .cls-12 {
        fill: #6c757d;
      }

      .cls-13 {
        fill: #b3a7a8;
      }

      .cls-14 {
        fill: #bfccc9;
      }

      .cls-15 {
        fill: #ccbfc1;
      }

      .cls-16 {
        fill: #35baae;
      }

      .cls-17 {
        fill: #566973;
      }

      .cls-18 {
        fill: #8395a7;
      }

      .cls-19 {
        fill: #606060;
      }

      .cls-3 {
        opacity: .4;
      }

      .cls-3, .cls-5 {
        stroke: #6c757d;
      }

      .cls-3, .cls-6 {
        stroke-miterlimit: 10;
      }

      .cls-6 {
        stroke: #a4b2bf;
      }
    </style>
  </defs>
  <rect class="cls-9" x="-1246.17" y="-22.99" width="6217.85" height="1265.86"/>
  <g>
    <path class="cls-18" d="m18.72,247.51h199.41l7.98,4.72,7.98,4.72,7.98,4.72,7.98,4.72,7.98,4.72v23.62H18.72v-47.25Z"/>
    <path class="cls-16" d="m18.72,242.45l7.98-2.36,7.98-2.36,7.98-2.36,7.98-2.36,7.98-2.36,7.98-4.05,7.98-4.05,7.98-4.05,7.98-4.05,7.98-4.05,7.98-2.7,7.98-2.7,7.98-2.7,7.98-2.7,7.98-2.7,7.98-2.02,7.98-2.02,7.98-2.02,7.98-2.02,7.98-2.02,7.98-.67,7.98-.67,7.98-.67,7.98-.67,7.98-.67,7.98.34,7.98.34,7.98.34,7.98.34,7.98.34v86.06l-7.98-4.72-7.98-4.72-7.98-4.72-7.98-4.72-7.98-4.72H18.72v-5.06Z"/>
    <path class="cls-11" d="m18.72,228.95l7.98-3.04,7.98-3.04,7.98-3.04,7.98-3.04,7.98-3.04,7.98-5.06,7.98-5.06,7.98-5.06,7.98-5.06,7.98-5.06,7.98-4.39,7.98-4.39,7.98-4.39,7.98-4.39,7.98-4.39,7.98-3.37,7.98-3.37,7.98-3.37,7.98-3.37,7.98-3.37,7.98-2.36,7.98-2.36,7.98-2.36,7.98-2.36,7.98-2.36,7.98-2.36,7.98-2.36,7.98-2.36,7.98-2.36,7.98-2.36v59.06l-7.98-.34-7.98-.34-7.98-.34-7.98-.34-7.98-.34-7.98.67-7.98.67-7.98.67-7.98.67-7.98.67-7.98,2.02-7.98,2.02-7.98,2.02-7.98,2.02-7.98,2.02-7.98,2.7-7.98,2.7-7.98,2.7-7.98,2.7-7.98,2.7-7.98,4.05-7.98,4.05-7.98,4.05-7.98,4.05-7.98,4.05-7.98,2.36-7.98,2.36-7.98,2.36-7.98,2.36-7.98,2.36v-13.5Z"/>
    <path class="cls-7" d="m18.72,191.15l7.98-1.21,7.98-1.21,7.98-1.21,7.98-1.21,7.98-1.21,7.98-2.43,7.98-2.43,7.98-2.43,7.98-2.43,7.98-2.43,7.98-3.17,7.98-3.17,7.98-3.17,7.98-3.17,7.98-3.17,7.98-2.16,7.98-2.16,7.98-2.16,7.98-2.16,7.98-2.16,7.98-2.02,7.98-2.02,7.98-2.02,7.98-2.02,7.98-2.02,7.98-2.02,7.98-2.02,7.98-2.02,7.98-2.02,7.98-2.02h0l-7.98,2.36-7.98,2.36-7.98,2.36-7.98,2.36-7.98,2.36-7.98,2.36-7.98,2.36-7.98,2.36-7.98,2.36-7.98,2.36-7.98,3.37-7.98,3.37-7.98,3.37-7.98,3.37-7.98,3.37-7.98,4.39-7.98,4.39-7.98,4.39-7.98,4.39-7.98,4.39-7.98,5.06-7.98,5.06-7.98,5.06-7.98,5.06-7.98,5.06-7.98,3.04-7.98,3.04-7.98,3.04-7.98,3.04-7.98,3.04v-37.8Z"/>
  </g>
  <g>
    <path class="cls-18" d="m303.4,247.51h199.51l7.98,4.72,7.98,4.72,7.98,4.72,7.98,4.72,7.98,4.72v23.62h-239.41v-47.25Z"/>
    <path class="cls-16" d="m303.4,242.45l7.98-2.36,7.98-2.36,7.98-2.36,7.98-2.36,7.98-2.36,7.98-3.37,7.98-3.37,7.98-3.37,7.98-3.37,7.98-3.37,7.98-3.37,7.98-3.37,7.98-3.37,7.98-3.37,7.98-3.37,7.98-.67,7.98-.67,7.98-.67,7.98-.67,7.98-.67,7.98-1.01,7.98-1.01,7.98-1.01,7.98-1.01,7.98-1.01,7.98,2.19,7.98,2.19,7.98,2.19,7.98,2.19,7.98,2.19v71.72l-7.98-4.72-7.98-4.72-7.98-4.72-7.98-4.72-7.98-4.72h-199.51v-5.06Z"/>
    <path class="cls-11" d="m303.4,228.95l7.98-3.04,7.98-3.04,7.98-3.04,7.98-3.04,7.98-3.04,7.98-3.71,7.98-3.71,7.98-3.71,7.98-3.71,7.98-3.71,7.98-3.71,7.98-3.71,7.98-3.71,7.98-3.71,7.98-3.71,7.98-1.35,7.98-1.35,7.98-1.35,7.98-1.35,7.98-1.35,7.98-1.69,7.98-1.69,7.98-1.69,7.98-1.69,7.98-1.69,7.98.67,7.98.67,7.98.67,7.98.67,7.98.67v34.59l-7.98-2.19-7.98-2.19-7.98-2.19-7.98-2.19-7.98-2.19-7.98,1.01-7.98,1.01-7.98,1.01-7.98,1.01-7.98,1.01-7.98.67-7.98.67-7.98.67-7.98.67-7.98.67-7.98,3.37-7.98,3.37-7.98,3.37-7.98,3.37-7.98,3.37-7.98,3.37-7.98,3.37-7.98,3.37-7.98,3.37-7.98,3.37-7.98,2.36-7.98,2.36-7.98,2.36-7.98,2.36-7.98,2.36v-13.5Z"/>
    <path class="cls-7" d="m303.4,191.66l7.98-.98,7.98-.98,7.98-.98,7.98-.98,7.98-.98,7.98-2.09,7.98-2.09,7.98-2.09,7.98-2.09,7.98-2.09,7.98-1.15,7.98-1.15,7.98-1.15,7.98-1.15,7.98-1.15,7.98-.47,7.98-.47,7.98-.47,7.98-.47,7.98-.47,7.98-1.69,7.98-1.69,7.98-1.69,7.98-1.69,7.98-1.69,7.98,1.01,7.98,1.01,7.98,1.01,7.98,1.01,7.98,1.01h0l-7.98-.67-7.98-.67-7.98-.67-7.98-.67-7.98-.67-7.98,1.69-7.98,1.69-7.98,1.69-7.98,1.69-7.98,1.69-7.98,1.35-7.98,1.35-7.98,1.35-7.98,1.35-7.98,1.35-7.98,3.71-7.98,3.71-7.98,3.71-7.98,3.71-7.98,3.71-7.98,3.71-7.98,3.71-7.98,3.71-7.98,3.71-7.98,3.71-7.98,3.04-7.98,3.04-7.98,3.04-7.98,3.04-7.98,3.04v-37.29Z"/>
    <path class="cls-14" d="m303.4,191.15l7.98-1.21,7.98-1.21,7.98-1.21,7.98-1.21,7.98-1.21,7.98-2.43,7.98-2.43,7.98-2.43,7.98-2.43,7.98-2.43,7.98-3.17,7.98-3.17,7.98-3.17,7.98-3.17,7.98-3.17,7.98-2.16,7.98-2.16,7.98-2.16,7.98-2.16,7.98-2.16,7.98-2.02,7.98-2.02,7.98-2.02,7.98-2.02,7.98-2.02,7.98-2.02,7.98-2.02,7.98-2.02,7.98-2.02,7.98-2.02v38.81l-7.98-1.01-7.98-1.01-7.98-1.01-7.98-1.01-7.98-1.01-7.98,1.69-7.98,1.69-7.98,1.69-7.98,1.69-7.98,1.69-7.98.47-7.98.47-7.98.47-7.98.47-7.98.47-7.98,1.15-7.98,1.15-7.98,1.15-7.98,1.15-7.98,1.15-7.98,2.09-7.98,2.09-7.98,2.09-7.98,2.09-7.98,2.09-7.98.98-7.98.98-7.98.98-7.98.98-7.98.98v-.51Z"/>
  </g>
  <g>
    <path class="cls-18" d="m581.97,247.51h119.71l7.98-3.04,7.98-3.04,7.98-3.04,7.98-3.04,7.98-3.04,7.98-1.69,7.98-1.69,7.98-1.69,7.98-1.69,7.98-1.69,7.98-1.35,7.98-1.35,7.98-1.35,7.98-1.35,7.98-1.35v77.62h-239.42v-47.25Z"/>
    <path class="cls-16" d="m581.97,242.45l7.98-2.36,7.98-2.36,7.98-2.36,7.98-2.36,7.98-2.36,7.98-2.02,7.98-2.02,7.98-2.02,7.98-2.02,7.98-2.02,7.98-2.02,7.98-2.02,7.98-2.02,7.98-2.02,7.98-2.02,7.98-5.06,7.98-5.06,7.98-5.06,7.98-5.06,7.98-5.06,7.98-2.7,7.98-2.7,7.98-2.7,7.98-2.7,7.98-2.7,7.98-2.19,7.98-2.19,7.98-2.19,7.98-2.19,7.98-2.19v56.53l-7.98,1.35-7.98,1.35-7.98,1.35-7.98,1.35-7.98,1.35-7.98,1.69-7.98,1.69-7.98,1.69-7.98,1.69-7.98,1.69-7.98,3.04-7.98,3.04-7.98,3.04-7.98,3.04-7.98,3.04h-119.71v-5.06Z"/>
    <path class="cls-11" d="m581.97,228.95l7.98-3.04,7.98-3.04,7.98-3.04,7.98-3.04,7.98-3.04,7.98-2.36,7.98-2.36,7.98-2.36,7.98-2.36,7.98-2.36,7.98-2.7,7.98-2.7,7.98-2.7,7.98-2.7,7.98-2.7,7.98-5.74,7.98-5.74,7.98-5.74,7.98-5.74,7.98-5.74,7.98-3.21,7.98-3.21,7.98-3.21,7.98-3.21,7.98-3.21,7.98-3.54,7.98-3.54,7.98-3.54,7.98-3.54,7.98-3.54v34.59l-7.98,2.19-7.98,2.19-7.98,2.19-7.98,2.19-7.98,2.19-7.98,2.7-7.98,2.7-7.98,2.7-7.98,2.7-7.98,2.7-7.98,5.06-7.98,5.06-7.98,5.06-7.98,5.06-7.98,5.06-7.98,2.02-7.98,2.02-7.98,2.02-7.98,2.02-7.98,2.02-7.98,2.02-7.98,2.02-7.98,2.02-7.98,2.02-7.98,2.02-7.98,2.36-7.98,2.36-7.98,2.36-7.98,2.36-7.98,2.36v-13.5Z"/>
    <path class="cls-7" d="m581.97,191.15l7.98-1.21,7.98-1.21,7.98-1.21,7.98-1.21,7.98-1.21,7.98-2.43,7.98-2.43,7.98-2.43,7.98-2.43,7.98-2.43,7.98-3.17,7.98-3.17,7.98-3.17,7.98-3.17,7.98-3.17,7.98-2.16,7.98-2.16,7.98-2.16,7.98-2.16,7.98-2.16,7.98-2.02,7.98-2.02,7.98-2.02,7.98-2.02,7.98-2.02,7.98-2.02,7.98-2.02,7.98-2.02,7.98-2.02,7.98-2.02h0l-7.98,3.54-7.98,3.54-7.98,3.54-7.98,3.54-7.98,3.54-7.98,3.21-7.98,3.21-7.98,3.21-7.98,3.21-7.98,3.21-7.98,5.74-7.98,5.74-7.98,5.74-7.98,5.74-7.98,5.74-7.98,2.7-7.98,2.7-7.98,2.7-7.98,2.7-7.98,2.7-7.98,2.36-7.98,2.36-7.98,2.36-7.98,2.36-7.98,2.36-7.98,3.04-7.98,3.04-7.98,3.04-7.98,3.04-7.98,3.04v-37.8Z"/>
  </g>
  <line class="cls-4" x1="302.82" y1="294.76" x2="542.82" y2="294.76"/>
  <g>
    <line class="cls-4" x1="18.16" y1="126.02" x2="21.16" y2="126.02"/>
    <line class="cls-1" x1="27.16" y1="126.02" x2="252.16" y2="126.02"/>
    <line class="cls-4" x1="255.16" y1="126.02" x2="258.16" y2="126.02"/>
  </g>
  <line class="cls-4" x1="18.16" y1="294.76" x2="258.16" y2="294.76"/>
  <g>
    <path class="cls-12" d="m11.4,244.28v1.33h-6.43l.67,1.96h-1.12l-1.15-3.12v-.17h8.03Z"/>
    <path class="cls-12" d="m8.03,236.29c1.15,0,2.02.22,2.6.65.58.43.88,1.08.88,1.96s-.28,1.52-.85,1.95c-.57.44-1.41.66-2.53.67h-1.38c-1.15,0-2.01-.22-2.59-.65-.57-.43-.86-1.09-.86-1.97s.28-1.53.84-1.96c.56-.43,1.4-.65,2.52-.66h1.38Zm-1.49,1.33c-.75,0-1.3.1-1.65.31-.35.21-.52.53-.52.98s.17.76.5.96.85.31,1.55.32h1.81c.75,0,1.3-.1,1.67-.31s.55-.54.55-.98-.17-.75-.51-.95-.87-.31-1.59-.32h-1.81Z"/>
    <path class="cls-12" d="m8.03,229.9c1.15,0,2.02.22,2.6.65.58.43.88,1.08.88,1.96s-.28,1.52-.85,1.95c-.57.44-1.41.66-2.53.67h-1.38c-1.15,0-2.01-.22-2.59-.65-.57-.43-.86-1.09-.86-1.97s.28-1.53.84-1.96c.56-.43,1.4-.65,2.52-.66h1.38Zm-1.49,1.33c-.75,0-1.3.1-1.65.31-.35.21-.52.53-.52.98s.17.76.5.96.85.31,1.55.32h1.81c.75,0,1.3-.1,1.67-.31s.55-.54.55-.98-.17-.75-.51-.95-.87-.31-1.59-.32h-1.81Z"/>
    <path class="cls-12" d="m4.52,220.25v2.49h6.88v1.38h-6.88v2.47h-1.12v-6.34h1.12Z"/>
    <path class="cls-12" d="m9.42,212.84l-6.02-1.23v-1.38l8,1.85v1.33l-5.84,1.52,5.84,1.55v1.33l-8,1.85v-1.38l6.01-1.24-6.01-1.53v-1.16l6.02-1.51Z"/>
    <path class="cls-12" d="m6.11,208.03c-.51-.44-.76-.99-.76-1.65,0-1.27.72-1.91,2.17-1.93h3.88v1.33h-3.83c-.41,0-.7.09-.87.27-.17.18-.26.44-.26.78,0,.53.24.93.71,1.2h4.25v1.33H2.96v-1.33h3.14Z"/>
    <path class="cls-12" d="m6.68,197.19c-.03.18-.04.36-.04.54,0,.61.23,1.02.7,1.24h4.06v1.33h-5.94v-1.27l.66-.03c-.52-.32-.77-.77-.77-1.34,0-.19.03-.35.08-.47h1.25Z"/>
    <path class="cls-12" d="m8.37,196.79c-.58,0-1.11-.12-1.57-.35-.47-.23-.83-.55-1.08-.97-.25-.42-.38-.9-.38-1.44,0-.8.26-1.45.77-1.95.52-.5,1.2-.77,2.05-.81h.31c.59,0,1.11.11,1.57.33.46.23.82.55,1.07.97.25.42.38.9.38,1.45,0,.84-.28,1.51-.84,2.01-.56.5-1.3.76-2.23.76h-.07Zm.12-1.33c.61,0,1.09-.13,1.44-.38.35-.25.52-.6.52-1.05s-.18-.8-.53-1.05c-.35-.25-.87-.38-1.54-.38-.6,0-1.08.13-1.43.39s-.53.61-.53,1.05.17.78.52,1.04c.35.26.86.38,1.55.38Z"/>
    <path class="cls-12" d="m3.81,187.91l-.85-.8v-1.14h.06l1.53,1.53v.82l-1.54,1.52h-.05v-1.13l.85-.8Zm6.64-.21c0-.33-.1-.61-.29-.83-.19-.22-.43-.34-.72-.35v-1.26c.37.01.71.13,1.04.35.32.22.57.51.76.88.19.37.28.77.28,1.2,0,.83-.27,1.49-.81,1.98-.54.49-1.28.73-2.23.73h-.14c-.9,0-1.63-.24-2.17-.73-.54-.48-.82-1.14-.82-1.98,0-.71.21-1.28.62-1.73.41-.45.95-.68,1.62-.7v1.26c-.34.01-.62.13-.84.35-.22.22-.33.5-.33.83,0,.43.16.77.47,1,.31.23.79.35,1.43.36h.21c.64,0,1.13-.12,1.44-.35.32-.23.48-.57.48-1.01Z"/>
    <path class="cls-12" d="m5.46,183.01l.69-.04c-.53-.44-.8-1.02-.8-1.73,0-1.24.71-1.87,2.13-1.89h3.93v1.33h-3.85c-.38,0-.66.08-.84.24-.18.16-.27.43-.27.8,0,.54.24.94.73,1.2h4.23v1.33h-5.94v-1.26Z"/>
    <path class="cls-12" d="m3.81,175.63l-.85-.8v-1.14h.06l1.53,1.53v.82l-1.54,1.52h-.05v-1.13l.85-.8Zm7.7-.26c0,.85-.27,1.53-.8,2.06s-1.24.79-2.13.79h-.17c-.59,0-1.12-.11-1.59-.34-.47-.23-.83-.55-1.09-.96-.26-.41-.39-.88-.39-1.38,0-.81.26-1.43.77-1.88.52-.44,1.25-.66,2.19-.66h.54v3.88c.49-.04.88-.2,1.16-.49.29-.29.43-.65.43-1.08,0-.61-.25-1.11-.74-1.49l.69-.72c.36.24.63.56.83.95.2.4.29.84.29,1.34Zm-5.09.16c0,.37.13.66.38.89.26.23.61.37,1.07.43v-2.54h-.1c-.45.03-.78.15-1.01.36-.23.21-.34.5-.34.87Z"/>
  </g>
  <g>
    <path class="cls-12" d="m296.88,248.36v1.33h-6.43l.67,1.96h-1.12l-1.15-3.12v-.17h8.03Z"/>
    <path class="cls-12" d="m293.52,240.37c1.15,0,2.02.22,2.6.65.58.43.88,1.08.88,1.96s-.28,1.52-.85,1.95c-.57.44-1.41.66-2.53.67h-1.38c-1.15,0-2.01-.22-2.59-.65-.57-.43-.86-1.09-.86-1.97s.28-1.53.84-1.96c.56-.43,1.4-.65,2.52-.66h1.38Zm-1.49,1.33c-.75,0-1.3.1-1.65.31-.35.21-.52.53-.52.98s.17.76.5.96.85.31,1.55.32h1.81c.75,0,1.3-.1,1.67-.31s.55-.54.55-.98-.17-.75-.51-.95-.87-.31-1.59-.32h-1.81Z"/>
    <path class="cls-12" d="m293.52,233.98c1.15,0,2.02.22,2.6.65.58.43.88,1.08.88,1.96s-.28,1.52-.85,1.95c-.57.44-1.41.66-2.53.67h-1.38c-1.15,0-2.01-.22-2.59-.65-.57-.43-.86-1.09-.86-1.97s.28-1.53.84-1.96c.56-.43,1.4-.65,2.52-.66h1.38Zm-1.49,1.33c-.75,0-1.3.1-1.65.31-.35.21-.52.53-.52.98s.17.76.5.96.85.31,1.55.32h1.81c.75,0,1.3-.1,1.67-.31s.55-.54.55-.98-.17-.75-.51-.95-.87-.31-1.59-.32h-1.81Z"/>
    <path class="cls-12" d="m290.01,224.33v2.49h6.88v1.38h-6.88v2.47h-1.12v-6.34h1.12Z"/>
    <path class="cls-12" d="m294.91,216.93l-6.02-1.23v-1.38l8,1.85v1.33l-5.84,1.52,5.84,1.55v1.33l-8,1.85v-1.38l6.01-1.24-6.01-1.53v-1.16l6.02-1.51Z"/>
    <path class="cls-12" d="m291.59,212.11c-.51-.44-.76-.99-.76-1.65,0-1.27.72-1.91,2.17-1.93h3.88v1.33h-3.83c-.41,0-.7.09-.87.27-.17.18-.26.44-.26.78,0,.53.24.93.71,1.2h4.25v1.33h-8.44v-1.33h3.14Z"/>
    <path class="cls-12" d="m292.16,201.27c-.03.18-.04.36-.04.54,0,.61.23,1.02.7,1.24h4.06v1.33h-5.94v-1.27l.66-.03c-.52-.32-.77-.77-.77-1.34,0-.19.03-.35.08-.47h1.25Z"/>
    <path class="cls-12" d="m293.86,200.88c-.58,0-1.11-.12-1.57-.35-.47-.23-.83-.55-1.08-.97-.25-.42-.38-.9-.38-1.44,0-.8.26-1.45.77-1.95.52-.5,1.2-.77,2.05-.81h.31c.59,0,1.11.11,1.57.33.46.23.82.55,1.07.97.25.42.38.9.38,1.45,0,.84-.28,1.51-.84,2.01-.56.5-1.3.76-2.23.76h-.07Zm.12-1.33c.61,0,1.09-.13,1.44-.38.35-.25.52-.6.52-1.05s-.18-.8-.53-1.05c-.35-.25-.87-.38-1.54-.38-.6,0-1.08.13-1.43.39s-.53.61-.53,1.05.17.78.52,1.04c.35.26.86.38,1.55.38Z"/>
    <path class="cls-12" d="m289.29,191.99l-.85-.8v-1.14h.06l1.53,1.53v.82l-1.54,1.52h-.05v-1.13l.85-.8Zm6.64-.21c0-.33-.1-.61-.29-.83-.19-.22-.43-.34-.72-.35v-1.26c.37.01.71.13,1.04.35.32.22.57.51.76.88.19.37.28.77.28,1.2,0,.83-.27,1.49-.81,1.98-.54.49-1.28.73-2.23.73h-.14c-.9,0-1.63-.24-2.17-.73-.54-.48-.82-1.14-.82-1.98,0-.71.21-1.28.62-1.73.41-.45.95-.68,1.62-.7v1.26c-.34.01-.62.13-.84.35-.22.22-.33.5-.33.83,0,.43.16.77.47,1,.31.23.79.35,1.43.36h.21c.64,0,1.13-.12,1.44-.35.32-.23.48-.57.48-1.01Z"/>
    <path class="cls-12" d="m290.94,187.09l.69-.04c-.53-.44-.8-1.02-.8-1.73,0-1.24.71-1.87,2.13-1.89h3.93v1.33h-3.85c-.38,0-.66.08-.84.24-.18.16-.27.43-.27.8,0,.54.24.94.73,1.2h4.23v1.33h-5.94v-1.26Z"/>
    <path class="cls-12" d="m289.29,179.72l-.85-.8v-1.14h.06l1.53,1.53v.82l-1.54,1.52h-.05v-1.13l.85-.8Zm7.7-.26c0,.85-.27,1.53-.8,2.06s-1.24.79-2.13.79h-.17c-.59,0-1.12-.11-1.59-.34-.47-.23-.83-.55-1.09-.96-.26-.41-.39-.88-.39-1.38,0-.81.26-1.43.77-1.88.52-.44,1.25-.66,2.19-.66h.54v3.88c.49-.04.88-.2,1.16-.49.29-.29.43-.65.43-1.08,0-.61-.25-1.11-.74-1.49l.69-.72c.36.24.63.56.83.95.2.4.29.84.29,1.34Zm-5.09.16c0,.37.13.66.38.89.26.23.61.37,1.07.43v-2.54h-.1c-.45.03-.78.15-1.01.36-.23.21-.34.5-.34.87Z"/>
  </g>
  <g>
    <path class="cls-12" d="m574.95,248.36v1.33h-6.43l.67,1.96h-1.12l-1.15-3.12v-.17h8.03Z"/>
    <path class="cls-12" d="m571.59,240.37c1.15,0,2.02.22,2.6.65.58.43.88,1.08.88,1.96s-.28,1.52-.85,1.95c-.57.44-1.41.66-2.53.67h-1.38c-1.15,0-2.01-.22-2.59-.65-.57-.43-.86-1.09-.86-1.97s.28-1.53.84-1.96c.56-.43,1.4-.65,2.52-.66h1.38Zm-1.49,1.33c-.75,0-1.3.1-1.65.31-.35.21-.52.53-.52.98s.17.76.5.96.85.31,1.55.32h1.81c.75,0,1.3-.1,1.67-.31s.55-.54.55-.98-.17-.75-.51-.95-.87-.31-1.59-.32h-1.81Z"/>
    <path class="cls-12" d="m571.59,233.98c1.15,0,2.02.22,2.6.65.58.43.88,1.08.88,1.96s-.28,1.52-.85,1.95c-.57.44-1.41.66-2.53.67h-1.38c-1.15,0-2.01-.22-2.59-.65-.57-.43-.86-1.09-.86-1.97s.28-1.53.84-1.96c.56-.43,1.4-.65,2.52-.66h1.38Zm-1.49,1.33c-.75,0-1.3.1-1.65.31-.35.21-.52.53-.52.98s.17.76.5.96.85.31,1.55.32h1.81c.75,0,1.3-.1,1.67-.31s.55-.54.55-.98-.17-.75-.51-.95-.87-.31-1.59-.32h-1.81Z"/>
    <path class="cls-12" d="m568.08,224.33v2.49h6.88v1.38h-6.88v2.47h-1.12v-6.34h1.12Z"/>
    <path class="cls-12" d="m572.98,216.93l-6.02-1.23v-1.38l8,1.85v1.33l-5.84,1.52,5.84,1.55v1.33l-8,1.85v-1.38l6.01-1.24-6.01-1.53v-1.16l6.02-1.51Z"/>
    <path class="cls-12" d="m569.66,212.11c-.51-.44-.76-.99-.76-1.65,0-1.27.72-1.91,2.17-1.93h3.88v1.33h-3.83c-.41,0-.7.09-.87.27-.17.18-.26.44-.26.78,0,.53.24.93.71,1.2h4.25v1.33h-8.44v-1.33h3.14Z"/>
    <path class="cls-12" d="m570.23,201.27c-.03.18-.04.36-.04.54,0,.61.23,1.02.7,1.24h4.06v1.33h-5.94v-1.27l.66-.03c-.52-.32-.77-.77-.77-1.34,0-.19.03-.35.08-.47h1.25Z"/>
    <path class="cls-12" d="m571.93,200.88c-.58,0-1.11-.12-1.57-.35-.47-.23-.83-.55-1.08-.97-.25-.42-.38-.9-.38-1.44,0-.8.26-1.45.77-1.95.52-.5,1.2-.77,2.05-.81h.31c.59,0,1.11.11,1.57.33.46.23.82.55,1.07.97.25.42.38.9.38,1.45,0,.84-.28,1.51-.84,2.01-.56.5-1.3.76-2.23.76h-.07Zm.12-1.33c.61,0,1.09-.13,1.44-.38.35-.25.52-.6.52-1.05s-.18-.8-.53-1.05c-.35-.25-.87-.38-1.54-.38-.6,0-1.08.13-1.43.39s-.53.61-.53,1.05.17.78.52,1.04c.35.26.86.38,1.55.38Z"/>
    <path class="cls-12" d="m567.36,191.99l-.85-.8v-1.14h.06l1.53,1.53v.82l-1.54,1.52h-.05v-1.13l.85-.8Zm6.64-.21c0-.33-.1-.61-.29-.83-.19-.22-.43-.34-.72-.35v-1.26c.37.01.71.13,1.04.35.32.22.57.51.76.88.19.37.28.77.28,1.2,0,.83-.27,1.49-.81,1.98-.54.49-1.28.73-2.23.73h-.14c-.9,0-1.63-.24-2.17-.73-.54-.48-.82-1.14-.82-1.98,0-.71.21-1.28.62-1.73.41-.45.95-.68,1.62-.7v1.26c-.34.01-.62.13-.84.35-.22.22-.33.5-.33.83,0,.43.16.77.47,1,.31.23.79.35,1.43.36h.21c.64,0,1.13-.12,1.44-.35.32-.23.48-.57.48-1.01Z"/>
    <path class="cls-12" d="m569.01,187.09l.69-.04c-.53-.44-.8-1.02-.8-1.73,0-1.24.71-1.87,2.13-1.89h3.93v1.33h-3.85c-.38,0-.66.08-.84.24-.18.16-.27.43-.27.8,0,.54.24.94.73,1.2h4.23v1.33h-5.94v-1.26Z"/>
    <path class="cls-12" d="m567.36,179.72l-.85-.8v-1.14h.06l1.53,1.53v.82l-1.54,1.52h-.05v-1.13l.85-.8Zm7.7-.26c0,.85-.27,1.53-.8,2.06s-1.24.79-2.13.79h-.17c-.59,0-1.12-.11-1.59-.34-.47-.23-.83-.55-1.09-.96-.26-.41-.39-.88-.39-1.38,0-.81.26-1.43.77-1.88.52-.44,1.25-.66,2.19-.66h.54v3.88c.49-.04.88-.2,1.16-.49.29-.29.43-.65.43-1.08,0-.61-.25-1.11-.74-1.49l.69-.72c.36.24.63.56.83.95.2.4.29.84.29,1.34Zm-5.09.16c0,.37.13.66.38.89.26.23.61.37,1.07.43v-2.54h-.1c-.45.03-.78.15-1.01.36-.23.21-.34.5-.34.87Z"/>
  </g>
  <g>
    <path class="cls-12" d="m10.9,318.74h-5.74v-.98l2.84-3.1c.41-.46.7-.84.88-1.15s.26-.61.26-.92c0-.41-.11-.73-.34-.98s-.54-.38-.92-.38c-.46,0-.82.14-1.07.42s-.38.67-.38,1.15h-1.42c0-.52.12-.99.35-1.4s.57-.74,1.01-.97.95-.35,1.52-.35c.83,0,1.48.21,1.96.62s.72.99.72,1.73c0,.43-.12.87-.36,1.34s-.63,1-1.18,1.59l-2.09,2.23h3.96v1.14Z"/>
    <path class="cls-12" d="m17.54,315.15c0,1.23-.23,2.15-.69,2.77s-1.16.93-2.09.93-1.62-.3-2.08-.91-.71-1.51-.72-2.7v-1.48c0-1.23.23-2.15.69-2.76s1.16-.92,2.1-.92,1.63.3,2.09.9.69,1.49.71,2.68v1.48Zm-1.42-1.59c0-.8-.11-1.39-.33-1.76s-.57-.56-1.04-.56-.81.18-1.03.53-.33.91-.35,1.66v1.93c0,.8.11,1.39.33,1.78s.57.59,1.05.59.79-.18,1.01-.54.33-.93.35-1.7v-1.93Z"/>
    <path class="cls-12" d="m24.54,318.74h-5.74v-.98l2.84-3.1c.41-.46.7-.84.88-1.15s.26-.61.26-.92c0-.41-.11-.73-.34-.98s-.54-.38-.92-.38c-.46,0-.82.14-1.07.42s-.38.67-.38,1.15h-1.42c0-.52.12-.99.35-1.4s.57-.74,1.01-.97.95-.35,1.52-.35c.83,0,1.48.21,1.96.62s.72.99.72,1.73c0,.43-.12.87-.36,1.34s-.63,1-1.18,1.59l-2.09,2.23h3.96v1.14Z"/>
    <path class="cls-12" d="m31.18,315.15c0,1.23-.23,2.15-.69,2.77s-1.16.93-2.09.93-1.62-.3-2.08-.91-.71-1.51-.72-2.7v-1.48c0-1.23.23-2.15.69-2.76s1.16-.92,2.1-.92,1.63.3,2.09.9.69,1.49.71,2.68v1.48Zm-1.42-1.59c0-.8-.11-1.39-.33-1.76s-.57-.56-1.04-.56-.81.18-1.03.53-.33.91-.35,1.66v1.93c0,.8.11,1.39.33,1.78s.57.59,1.05.59.79-.18,1.01-.54.33-.93.35-1.7v-1.93Z"/>
  </g>
  <g>
    <path class="cls-12" d="m90.88,318.74h-5.74v-.98l2.84-3.1c.41-.46.7-.84.88-1.15s.26-.61.26-.92c0-.41-.11-.73-.34-.98s-.54-.38-.92-.38c-.46,0-.82.14-1.07.42s-.38.67-.38,1.15h-1.42c0-.52.12-.99.35-1.4s.57-.74,1.01-.97.95-.35,1.52-.35c.83,0,1.48.21,1.96.62s.72.99.72,1.73c0,.43-.12.87-.36,1.34s-.63,1-1.18,1.59l-2.09,2.23h3.96v1.14Z"/>
    <path class="cls-12" d="m97.53,315.15c0,1.23-.23,2.15-.69,2.77s-1.16.93-2.09.93-1.62-.3-2.08-.91-.71-1.51-.72-2.7v-1.48c0-1.23.23-2.15.69-2.76s1.16-.92,2.1-.92,1.63.3,2.09.9.69,1.49.71,2.68v1.48Zm-1.42-1.59c0-.8-.11-1.39-.33-1.76s-.57-.56-1.04-.56-.81.18-1.03.53-.33.91-.35,1.66v1.93c0,.8.11,1.39.33,1.78s.57.59,1.05.59.79-.18,1.01-.54.33-.93.35-1.7v-1.93Z"/>
    <path class="cls-12" d="m100.43,313.82h.87c.44,0,.78-.12,1.04-.34s.38-.54.38-.97-.11-.72-.32-.95-.54-.34-.98-.34c-.38,0-.7.11-.94.33s-.37.51-.37.86h-1.42c0-.44.12-.84.35-1.2s.56-.64.97-.84.88-.3,1.4-.3c.85,0,1.52.21,2.01.64s.73,1.02.73,1.78c0,.38-.12.74-.37,1.08s-.56.59-.95.76c.47.16.83.41,1.07.76s.37.75.37,1.23c0,.77-.26,1.38-.79,1.83s-1.22.68-2.07.68-1.49-.22-2.02-.66-.79-1.02-.79-1.75h1.42c0,.38.13.68.38.91s.59.35,1.02.35.79-.12,1.04-.35.38-.57.38-1.02-.13-.79-.4-1.04-.66-.36-1.18-.36h-.84v-1.12Z"/>
    <path class="cls-12" d="m111.17,315.15c0,1.23-.23,2.15-.69,2.77s-1.16.93-2.09.93-1.62-.3-2.08-.91-.71-1.51-.72-2.7v-1.48c0-1.23.23-2.15.69-2.76s1.16-.92,2.1-.92,1.63.3,2.09.9.69,1.49.71,2.68v1.48Zm-1.42-1.59c0-.8-.11-1.39-.33-1.76s-.57-.56-1.04-.56-.81.18-1.03.53-.33.91-.35,1.66v1.93c0,.8.11,1.39.33,1.78s.57.59,1.05.59.79-.18,1.01-.54.33-.93.35-1.7v-1.93Z"/>
  </g>
  <g>
    <path class="cls-12" d="m171.17,318.74h-5.74v-.98l2.84-3.1c.41-.46.7-.84.88-1.15s.26-.61.26-.92c0-.41-.11-.73-.34-.98s-.54-.38-.92-.38c-.46,0-.82.14-1.07.42s-.38.67-.38,1.15h-1.42c0-.52.12-.99.35-1.4s.57-.74,1.01-.97.95-.35,1.52-.35c.83,0,1.48.21,1.96.62s.72.99.72,1.73c0,.43-.12.87-.36,1.34s-.63,1-1.18,1.59l-2.09,2.23h3.96v1.14Z"/>
    <path class="cls-12" d="m177.82,315.15c0,1.23-.23,2.15-.69,2.77s-1.16.93-2.09.93-1.62-.3-2.08-.91-.71-1.51-.72-2.7v-1.48c0-1.23.23-2.15.69-2.76s1.16-.92,2.1-.92,1.63.3,2.09.9.69,1.49.71,2.68v1.48Zm-1.42-1.59c0-.8-.11-1.39-.33-1.76s-.57-.56-1.04-.56-.81.18-1.03.53-.33.91-.35,1.66v1.93c0,.8.11,1.39.33,1.78s.57.59,1.05.59.79-.18,1.01-.54.33-.93.35-1.7v-1.93Z"/>
    <path class="cls-12" d="m183.89,315.7h1.06v1.14h-1.06v1.9h-1.42v-1.9h-3.69l-.04-.87,3.68-5.77h1.47v5.49Zm-3.66,0h2.23v-3.56l-.11.19-2.13,3.38Z"/>
    <path class="cls-12" d="m191.46,315.15c0,1.23-.23,2.15-.69,2.77s-1.16.93-2.09.93-1.62-.3-2.08-.91-.71-1.51-.72-2.7v-1.48c0-1.23.23-2.15.69-2.76s1.16-.92,2.1-.92,1.63.3,2.09.9.69,1.49.71,2.68v1.48Zm-1.42-1.59c0-.8-.11-1.39-.33-1.76s-.57-.56-1.04-.56-.81.18-1.03.53-.33.91-.35,1.66v1.93c0,.8.11,1.39.33,1.78s.57.59,1.05.59.79-.18,1.01-.54.33-.93.35-1.7v-1.93Z"/>
  </g>
  <g>
    <path class="cls-12" d="m241.56,318.74h-5.74v-.98l2.84-3.1c.41-.46.7-.84.88-1.15s.26-.61.26-.92c0-.41-.11-.73-.34-.98s-.54-.38-.92-.38c-.46,0-.82.14-1.07.42s-.38.67-.38,1.15h-1.42c0-.52.12-.99.35-1.4s.57-.74,1.01-.97.95-.35,1.52-.35c.83,0,1.48.21,1.96.62s.72.99.72,1.73c0,.43-.12.87-.36,1.34s-.63,1-1.18,1.59l-2.09,2.23h3.96v1.14Z"/>
    <path class="cls-12" d="m248.21,315.15c0,1.23-.23,2.15-.69,2.77s-1.16.93-2.09.93-1.62-.3-2.08-.91-.71-1.51-.72-2.7v-1.48c0-1.23.23-2.15.69-2.76s1.16-.92,2.1-.92,1.63.3,2.09.9.69,1.49.71,2.68v1.48Zm-1.42-1.59c0-.8-.11-1.39-.33-1.76s-.57-.56-1.04-.56-.81.18-1.03.53-.33.91-.35,1.66v1.93c0,.8.11,1.39.33,1.78s.57.59,1.05.59.79-.18,1.01-.54.33-.93.35-1.7v-1.93Z"/>
    <path class="cls-12" d="m249.85,314.51l.46-4.3h4.58v1.23h-3.4l-.23,2.04c.39-.23.84-.34,1.34-.34.81,0,1.44.26,1.9.78s.68,1.22.68,2.1-.25,1.56-.75,2.07-1.19.77-2.06.77c-.78,0-1.43-.22-1.94-.67s-.79-1.03-.83-1.75h1.38c.05.41.2.73.45.95s.56.33.95.33c.44,0,.78-.16,1.02-.47s.37-.74.37-1.28-.13-.93-.4-1.23-.64-.45-1.11-.45c-.26,0-.48.03-.66.1s-.38.2-.59.4l-1.14-.28Z"/>
    <path class="cls-12" d="m261.85,315.15c0,1.23-.23,2.15-.69,2.77s-1.16.93-2.09.93-1.62-.3-2.08-.91-.71-1.51-.72-2.7v-1.48c0-1.23.23-2.15.69-2.76s1.16-.92,2.1-.92,1.63.3,2.09.9.69,1.49.71,2.68v1.48Zm-1.42-1.59c0-.8-.11-1.39-.33-1.76s-.57-.56-1.04-.56-.81.18-1.03.53-.33.91-.35,1.66v1.93c0,.8.11,1.39.33,1.78s.57.59,1.05.59.79-.18,1.01-.54.33-.93.35-1.7v-1.93Z"/>
  </g>
  <path class="cls-5" d="m258.16,300.35v4m-39.95-4v4m-39.95-4v4m-40.25-4v4m-39.95-4v4m-39.95-4v4m-39.95-4v4"/>
  <g>
    <path class="cls-12" d="m295.55,318.74h-5.74v-.98l2.84-3.1c.41-.46.7-.84.88-1.15s.26-.61.26-.92c0-.41-.11-.73-.34-.98s-.54-.38-.92-.38c-.46,0-.82.14-1.07.42s-.38.67-.38,1.15h-1.42c0-.52.12-.99.35-1.4s.57-.74,1.01-.97.95-.35,1.52-.35c.83,0,1.48.21,1.96.62s.72.99.72,1.73c0,.43-.12.87-.36,1.34s-.63,1-1.18,1.59l-2.09,2.23h3.96v1.14Z"/>
    <path class="cls-12" d="m302.2,315.15c0,1.23-.23,2.15-.69,2.77s-1.16.93-2.09.93-1.62-.3-2.08-.91-.71-1.51-.72-2.7v-1.48c0-1.23.23-2.15.69-2.76s1.16-.92,2.1-.92,1.63.3,2.09.9.69,1.49.71,2.68v1.48Zm-1.42-1.59c0-.8-.11-1.39-.33-1.76s-.57-.56-1.04-.56-.81.18-1.03.53-.33.91-.35,1.66v1.93c0,.8.11,1.39.33,1.78s.57.59,1.05.59.79-.18,1.01-.54.33-.93.35-1.7v-1.93Z"/>
    <path class="cls-12" d="m309.2,318.74h-5.74v-.98l2.84-3.1c.41-.46.7-.84.88-1.15s.26-.61.26-.92c0-.41-.11-.73-.34-.98s-.54-.38-.92-.38c-.46,0-.82.14-1.07.42s-.38.67-.38,1.15h-1.42c0-.52.12-.99.35-1.4s.57-.74,1.01-.97.95-.35,1.52-.35c.83,0,1.48.21,1.96.62s.72.99.72,1.73c0,.43-.12.87-.36,1.34s-.63,1-1.18,1.59l-2.09,2.23h3.96v1.14Z"/>
    <path class="cls-12" d="m315.84,315.15c0,1.23-.23,2.15-.69,2.77s-1.16.93-2.09.93-1.62-.3-2.08-.91-.71-1.51-.72-2.7v-1.48c0-1.23.23-2.15.69-2.76s1.16-.92,2.1-.92,1.63.3,2.09.9.69,1.49.71,2.68v1.48Zm-1.42-1.59c0-.8-.11-1.39-.33-1.76s-.57-.56-1.04-.56-.81.18-1.03.53-.33.91-.35,1.66v1.93c0,.8.11,1.39.33,1.78s.57.59,1.05.59.79-.18,1.01-.54.33-.93.35-1.7v-1.93Z"/>
  </g>
  <g>
    <path class="cls-12" d="m375.54,318.74h-5.74v-.98l2.84-3.1c.41-.46.7-.84.88-1.15s.26-.61.26-.92c0-.41-.11-.73-.34-.98s-.54-.38-.92-.38c-.46,0-.82.14-1.07.42s-.38.67-.38,1.15h-1.42c0-.52.12-.99.35-1.4s.57-.74,1.01-.97.95-.35,1.52-.35c.83,0,1.48.21,1.96.62s.72.99.72,1.73c0,.43-.12.87-.36,1.34s-.63,1-1.18,1.59l-2.09,2.23h3.96v1.14Z"/>
    <path class="cls-12" d="m382.18,315.15c0,1.23-.23,2.15-.69,2.77s-1.16.93-2.09.93-1.62-.3-2.08-.91-.71-1.51-.72-2.7v-1.48c0-1.23.23-2.15.69-2.76s1.16-.92,2.1-.92,1.63.3,2.09.9.69,1.49.71,2.68v1.48Zm-1.42-1.59c0-.8-.11-1.39-.33-1.76s-.57-.56-1.04-.56-.81.18-1.03.53-.33.91-.35,1.66v1.93c0,.8.11,1.39.33,1.78s.57.59,1.05.59.79-.18,1.01-.54.33-.93.35-1.7v-1.93Z"/>
    <path class="cls-12" d="m385.09,313.82h.87c.44,0,.78-.12,1.04-.34s.38-.54.38-.97-.11-.72-.32-.95-.54-.34-.98-.34c-.38,0-.7.11-.94.33s-.37.51-.37.86h-1.42c0-.44.12-.84.35-1.2s.56-.64.97-.84.88-.3,1.4-.3c.85,0,1.52.21,2.01.64s.73,1.02.73,1.78c0,.38-.12.74-.37,1.08s-.56.59-.95.76c.47.16.83.41,1.07.76s.37.75.37,1.23c0,.77-.26,1.38-.79,1.83s-1.22.68-2.07.68-1.49-.22-2.02-.66-.79-1.02-.79-1.75h1.42c0,.38.13.68.38.91s.59.35,1.02.35.79-.12,1.04-.35.38-.57.38-1.02-.13-.79-.4-1.04-.66-.36-1.18-.36h-.84v-1.12Z"/>
    <path class="cls-12" d="m395.82,315.15c0,1.23-.23,2.15-.69,2.77s-1.16.93-2.09.93-1.62-.3-2.08-.91-.71-1.51-.72-2.7v-1.48c0-1.23.23-2.15.69-2.76s1.16-.92,2.1-.92,1.63.3,2.09.9.69,1.49.71,2.68v1.48Zm-1.42-1.59c0-.8-.11-1.39-.33-1.76s-.57-.56-1.04-.56-.81.18-1.03.53-.33.91-.35,1.66v1.93c0,.8.11,1.39.33,1.78s.57.59,1.05.59.79-.18,1.01-.54.33-.93.35-1.7v-1.93Z"/>
  </g>
  <g>
    <path class="cls-12" d="m455.83,318.74h-5.74v-.98l2.84-3.1c.41-.46.7-.84.88-1.15s.26-.61.26-.92c0-.41-.11-.73-.34-.98s-.54-.38-.92-.38c-.46,0-.82.14-1.07.42s-.38.67-.38,1.15h-1.42c0-.52.12-.99.35-1.4s.57-.74,1.01-.97.95-.35,1.52-.35c.83,0,1.48.21,1.96.62s.72.99.72,1.73c0,.43-.12.87-.36,1.34s-.63,1-1.18,1.59l-2.09,2.23h3.96v1.14Z"/>
    <path class="cls-12" d="m462.47,315.15c0,1.23-.23,2.15-.69,2.77s-1.16.93-2.09.93-1.62-.3-2.08-.91-.71-1.51-.72-2.7v-1.48c0-1.23.23-2.15.69-2.76s1.16-.92,2.1-.92,1.63.3,2.09.9.69,1.49.71,2.68v1.48Zm-1.42-1.59c0-.8-.11-1.39-.33-1.76s-.57-.56-1.04-.56-.81.18-1.03.53-.33.91-.35,1.66v1.93c0,.8.11,1.39.33,1.78s.57.59,1.05.59.79-.18,1.01-.54.33-.93.35-1.7v-1.93Z"/>
    <path class="cls-12" d="m468.55,315.7h1.06v1.14h-1.06v1.9h-1.42v-1.9h-3.69l-.04-.87,3.68-5.77h1.47v5.49Zm-3.66,0h2.23v-3.56l-.11.19-2.13,3.38Z"/>
    <path class="cls-12" d="m476.11,315.15c0,1.23-.23,2.15-.69,2.77s-1.16.93-2.09.93-1.62-.3-2.08-.91-.71-1.51-.72-2.7v-1.48c0-1.23.23-2.15.69-2.76s1.16-.92,2.1-.92,1.63.3,2.09.9.69,1.49.71,2.68v1.48Zm-1.42-1.59c0-.8-.11-1.39-.33-1.76s-.57-.56-1.04-.56-.81.18-1.03.53-.33.91-.35,1.66v1.93c0,.8.11,1.39.33,1.78s.57.59,1.05.59.79-.18,1.01-.54.33-.93.35-1.7v-1.93Z"/>
  </g>
  <g>
    <path class="cls-12" d="m526.22,318.74h-5.74v-.98l2.84-3.1c.41-.46.7-.84.88-1.15s.26-.61.26-.92c0-.41-.11-.73-.34-.98s-.54-.38-.92-.38c-.46,0-.82.14-1.07.42s-.38.67-.38,1.15h-1.42c0-.52.12-.99.35-1.4s.57-.74,1.01-.97.95-.35,1.52-.35c.83,0,1.48.21,1.96.62s.72.99.72,1.73c0,.43-.12.87-.36,1.34s-.63,1-1.18,1.59l-2.09,2.23h3.96v1.14Z"/>
    <path class="cls-12" d="m532.86,315.15c0,1.23-.23,2.15-.69,2.77s-1.16.93-2.09.93-1.62-.3-2.08-.91-.71-1.51-.72-2.7v-1.48c0-1.23.23-2.15.69-2.76s1.16-.92,2.1-.92,1.63.3,2.09.9.69,1.49.71,2.68v1.48Zm-1.42-1.59c0-.8-.11-1.39-.33-1.76s-.57-.56-1.04-.56-.81.18-1.03.53-.33.91-.35,1.66v1.93c0,.8.11,1.39.33,1.78s.57.59,1.05.59.79-.18,1.01-.54.33-.93.35-1.7v-1.93Z"/>
    <path class="cls-12" d="m534.5,314.51l.46-4.3h4.58v1.23h-3.4l-.23,2.04c.39-.23.84-.34,1.34-.34.81,0,1.44.26,1.9.78s.68,1.22.68,2.1-.25,1.56-.75,2.07-1.19.77-2.06.77c-.78,0-1.43-.22-1.94-.67s-.79-1.03-.83-1.75h1.38c.05.41.2.73.45.95s.56.33.95.33c.44,0,.78-.16,1.02-.47s.37-.74.37-1.28-.13-.93-.4-1.23-.64-.45-1.11-.45c-.26,0-.48.03-.66.1s-.38.2-.59.4l-1.14-.28Z"/>
    <path class="cls-12" d="m546.5,315.15c0,1.23-.23,2.15-.69,2.77s-1.16.93-2.09.93-1.62-.3-2.08-.91-.71-1.51-.72-2.7v-1.48c0-1.23.23-2.15.69-2.76s1.16-.92,2.1-.92,1.63.3,2.09.9.69,1.49.71,2.68v1.48Zm-1.42-1.59c0-.8-.11-1.39-.33-1.76s-.57-.56-1.04-.56-.81.18-1.03.53-.33.91-.35,1.66v1.93c0,.8.11,1.39.33,1.78s.57.59,1.05.59.79-.18,1.01-.54.33-.93.35-1.7v-1.93Z"/>
  </g>
  <path class="cls-5" d="m542.81,300.35v4m-39.95-4v4m-39.95-4v4m-40.25-4v4m-39.95-4v4m-39.95-4v4m-39.95-4v4"/>
  <g>
    <path class="cls-12" d="m574.13,318.74h-5.74v-.98l2.84-3.1c.41-.46.7-.84.88-1.15s.26-.61.26-.92c0-.41-.11-.73-.34-.98s-.54-.38-.92-.38c-.46,0-.82.14-1.07.42s-.38.67-.38,1.15h-1.42c0-.52.12-.99.35-1.4s.57-.74,1.01-.97.95-.35,1.52-.35c.83,0,1.48.21,1.96.62s.72.99.72,1.73c0,.43-.12.87-.36,1.34s-.63,1-1.18,1.59l-2.09,2.23h3.96v1.14Z"/>
    <path class="cls-12" d="m580.77,315.15c0,1.23-.23,2.15-.69,2.77s-1.16.93-2.09.93-1.62-.3-2.08-.91-.71-1.51-.72-2.7v-1.48c0-1.23.23-2.15.69-2.76s1.16-.92,2.1-.92,1.63.3,2.09.9.69,1.49.71,2.68v1.48Zm-1.42-1.59c0-.8-.11-1.39-.33-1.76s-.57-.56-1.04-.56-.81.18-1.03.53-.33.91-.35,1.66v1.93c0,.8.11,1.39.33,1.78s.57.59,1.05.59.79-.18,1.01-.54.33-.93.35-1.7v-1.93Z"/>
    <path class="cls-12" d="m587.77,318.74h-5.74v-.98l2.84-3.1c.41-.46.7-.84.88-1.15s.26-.61.26-.92c0-.41-.11-.73-.34-.98s-.54-.38-.92-.38c-.46,0-.82.14-1.07.42s-.38.67-.38,1.15h-1.42c0-.52.12-.99.35-1.4s.57-.74,1.01-.97.95-.35,1.52-.35c.83,0,1.48.21,1.96.62s.72.99.72,1.73c0,.43-.12.87-.36,1.34s-.63,1-1.18,1.59l-2.09,2.23h3.96v1.14Z"/>
    <path class="cls-12" d="m594.41,315.15c0,1.23-.23,2.15-.69,2.77s-1.16.93-2.09.93-1.62-.3-2.08-.91-.71-1.51-.72-2.7v-1.48c0-1.23.23-2.15.69-2.76s1.16-.92,2.1-.92,1.63.3,2.09.9.69,1.49.71,2.68v1.48Zm-1.42-1.59c0-.8-.11-1.39-.33-1.76s-.57-.56-1.04-.56-.81.18-1.03.53-.33.91-.35,1.66v1.93c0,.8.11,1.39.33,1.78s.57.59,1.05.59.79-.18,1.01-.54.33-.93.35-1.7v-1.93Z"/>
  </g>
  <g>
    <path class="cls-12" d="m654.11,318.74h-5.74v-.98l2.84-3.1c.41-.46.7-.84.88-1.15s.26-.61.26-.92c0-.41-.11-.73-.34-.98s-.54-.38-.92-.38c-.46,0-.82.14-1.07.42s-.38.67-.38,1.15h-1.42c0-.52.12-.99.35-1.4s.57-.74,1.01-.97.95-.35,1.52-.35c.83,0,1.48.21,1.96.62s.72.99.72,1.73c0,.43-.12.87-.36,1.34s-.63,1-1.18,1.59l-2.09,2.23h3.96v1.14Z"/>
    <path class="cls-12" d="m660.75,315.15c0,1.23-.23,2.15-.69,2.77s-1.16.93-2.09.93-1.62-.3-2.08-.91-.71-1.51-.72-2.7v-1.48c0-1.23.23-2.15.69-2.76s1.16-.92,2.1-.92,1.63.3,2.09.9.69,1.49.71,2.68v1.48Zm-1.42-1.59c0-.8-.11-1.39-.33-1.76s-.57-.56-1.04-.56-.81.18-1.03.53-.33.91-.35,1.66v1.93c0,.8.11,1.39.33,1.78s.57.59,1.05.59.79-.18,1.01-.54.33-.93.35-1.7v-1.93Z"/>
    <path class="cls-12" d="m663.66,313.82h.87c.44,0,.78-.12,1.04-.34s.38-.54.38-.97-.11-.72-.32-.95-.54-.34-.98-.34c-.38,0-.7.11-.94.33s-.37.51-.37.86h-1.42c0-.44.12-.84.35-1.2s.56-.64.97-.84.88-.3,1.4-.3c.85,0,1.52.21,2.01.64s.73,1.02.73,1.78c0,.38-.12.74-.37,1.08s-.56.59-.95.76c.47.16.83.41,1.07.76s.37.75.37,1.23c0,.77-.26,1.38-.79,1.83s-1.22.68-2.07.68-1.49-.22-2.02-.66-.79-1.02-.79-1.75h1.42c0,.38.13.68.38.91s.59.35,1.02.35.79-.12,1.04-.35.38-.57.38-1.02-.13-.79-.4-1.04-.66-.36-1.18-.36h-.84v-1.12Z"/>
    <path class="cls-12" d="m674.39,315.15c0,1.23-.23,2.15-.69,2.77s-1.16.93-2.09.93-1.62-.3-2.08-.91-.71-1.51-.72-2.7v-1.48c0-1.23.23-2.15.69-2.76s1.16-.92,2.1-.92,1.63.3,2.09.9.69,1.49.71,2.68v1.48Zm-1.42-1.59c0-.8-.11-1.39-.33-1.76s-.57-.56-1.04-.56-.81.18-1.03.53-.33.91-.35,1.66v1.93c0,.8.11,1.39.33,1.78s.57.59,1.05.59.79-.18,1.01-.54.33-.93.35-1.7v-1.93Z"/>
  </g>
  <g>
    <path class="cls-12" d="m734.4,318.74h-5.74v-.98l2.84-3.1c.41-.46.7-.84.88-1.15s.26-.61.26-.92c0-.41-.11-.73-.34-.98s-.54-.38-.92-.38c-.46,0-.82.14-1.07.42s-.38.67-.38,1.15h-1.42c0-.52.12-.99.35-1.4s.57-.74,1.01-.97.95-.35,1.52-.35c.83,0,1.48.21,1.96.62s.72.99.72,1.73c0,.43-.12.87-.36,1.34s-.63,1-1.18,1.59l-2.09,2.23h3.96v1.14Z"/>
    <path class="cls-12" d="m741.04,315.15c0,1.23-.23,2.15-.69,2.77s-1.16.93-2.09.93-1.62-.3-2.08-.91-.71-1.51-.72-2.7v-1.48c0-1.23.23-2.15.69-2.76s1.16-.92,2.1-.92,1.63.3,2.09.9.69,1.49.71,2.68v1.48Zm-1.42-1.59c0-.8-.11-1.39-.33-1.76s-.57-.56-1.04-.56-.81.18-1.03.53-.33.91-.35,1.66v1.93c0,.8.11,1.39.33,1.78s.57.59,1.05.59.79-.18,1.01-.54.33-.93.35-1.7v-1.93Z"/>
    <path class="cls-12" d="m747.12,315.7h1.06v1.14h-1.06v1.9h-1.42v-1.9h-3.69l-.04-.87,3.68-5.77h1.47v5.49Zm-3.66,0h2.23v-3.56l-.11.19-2.13,3.38Z"/>
    <path class="cls-12" d="m754.68,315.15c0,1.23-.23,2.15-.69,2.77s-1.16.93-2.09.93-1.62-.3-2.08-.91-.71-1.51-.72-2.7v-1.48c0-1.23.23-2.15.69-2.76s1.16-.92,2.1-.92,1.63.3,2.09.9.69,1.49.71,2.68v1.48Zm-1.42-1.59c0-.8-.11-1.39-.33-1.76s-.57-.56-1.04-.56-.81.18-1.03.53-.33.91-.35,1.66v1.93c0,.8.11,1.39.33,1.78s.57.59,1.05.59.79-.18,1.01-.54.33-.93.35-1.7v-1.93Z"/>
  </g>
  <g>
    <path class="cls-12" d="m803.79,318.74h-5.74v-.98l2.84-3.1c.41-.46.7-.84.88-1.15s.26-.61.26-.92c0-.41-.11-.73-.34-.98s-.54-.38-.92-.38c-.46,0-.82.14-1.07.42s-.38.67-.38,1.15h-1.42c0-.52.12-.99.35-1.4s.57-.74,1.01-.97.95-.35,1.52-.35c.83,0,1.48.21,1.96.62s.72.99.72,1.73c0,.43-.12.87-.36,1.34s-.63,1-1.18,1.59l-2.09,2.23h3.96v1.14Z"/>
    <path class="cls-12" d="m810.43,315.15c0,1.23-.23,2.15-.69,2.77s-1.16.93-2.09.93-1.62-.3-2.08-.91-.71-1.51-.72-2.7v-1.48c0-1.23.23-2.15.69-2.76s1.16-.92,2.1-.92,1.63.3,2.09.9.69,1.49.71,2.68v1.48Zm-1.42-1.59c0-.8-.11-1.39-.33-1.76s-.57-.56-1.04-.56-.81.18-1.03.53-.33.91-.35,1.66v1.93c0,.8.11,1.39.33,1.78s.57.59,1.05.59.79-.18,1.01-.54.33-.93.35-1.7v-1.93Z"/>
    <path class="cls-12" d="m812.07,314.51l.46-4.3h4.58v1.23h-3.4l-.23,2.04c.39-.23.84-.34,1.34-.34.81,0,1.44.26,1.9.78s.68,1.22.68,2.1-.25,1.56-.75,2.07-1.19.77-2.06.77c-.78,0-1.43-.22-1.94-.67s-.79-1.03-.83-1.75h1.38c.05.41.2.73.45.95s.56.33.95.33c.44,0,.78-.16,1.02-.47s.37-.74.37-1.28-.13-.93-.4-1.23-.64-.45-1.11-.45c-.26,0-.48.03-.66.1s-.38.2-.59.4l-1.14-.28Z"/>
    <path class="cls-12" d="m824.07,315.15c0,1.23-.23,2.15-.69,2.77s-1.16.93-2.09.93-1.62-.3-2.08-.91-.71-1.51-.72-2.7v-1.48c0-1.23.23-2.15.69-2.76s1.16-.92,2.1-.92,1.63.3,2.09.9.69,1.49.71,2.68v1.48Zm-1.42-1.59c0-.8-.11-1.39-.33-1.76s-.57-.56-1.04-.56-.81.18-1.03.53-.33.91-.35,1.66v1.93c0,.8.11,1.39.33,1.78s.57.59,1.05.59.79-.18,1.01-.54.33-.93.35-1.7v-1.93Z"/>
  </g>
  <path class="cls-5" d="m821.38,300.35v4m-39.95-4v4m-39.95-4v4m-40.25-4v4m-39.95-4v4m-39.95-4v4m-39.95-4v4"/>
  <g>
    <g>
      <path class="cls-16" d="m111.51,27.02c0-.39-.14-.68-.41-.89-.27-.21-.77-.43-1.48-.66-.71-.23-1.27-.46-1.69-.68-1.13-.61-1.7-1.43-1.7-2.47,0-.54.15-1.02.45-1.44.3-.42.74-.75,1.31-.99.57-.24,1.2-.36,1.91-.36s1.34.13,1.9.39c.56.26.99.62,1.3,1.09.31.47.46,1,.46,1.6h-2.05c0-.46-.14-.81-.43-1.06s-.69-.38-1.21-.38-.89.11-1.17.32-.42.49-.42.84c0,.32.16.59.49.81s.81.42,1.44.62c1.17.35,2.02.79,2.55,1.31s.8,1.17.8,1.94c0,.86-.33,1.54-.98,2.03-.65.49-1.53.73-2.63.73-.77,0-1.46-.14-2.09-.42s-1.11-.66-1.44-1.15c-.33-.49-.5-1.05-.5-1.7h2.06c0,1.1.66,1.65,1.97,1.65.49,0,.87-.1,1.14-.3s.41-.48.41-.83Z"/>
      <path class="cls-16" d="m117.05,29.63h-1.98v-10.5h1.98v10.5Z"/>
      <path class="cls-16" d="m123.25,28.88c-.49.59-1.16.89-2.02.89-.79,0-1.4-.23-1.81-.68-.42-.46-.63-1.12-.64-2v-4.85h1.98v4.78c0,.77.35,1.16,1.05,1.16s1.13-.23,1.38-.7v-5.24h1.98v7.4h-1.86l-.05-.75Z"/>
      <path class="cls-16" d="m128.61,22.23l.06.85c.53-.66,1.24-.99,2.13-.99.78,0,1.37.23,1.75.69.38.46.58,1.15.59,2.06v4.78h-1.98v-4.73c0-.42-.09-.72-.27-.91-.18-.19-.49-.28-.91-.28-.56,0-.97.24-1.25.71v5.22h-1.98v-7.4h1.86Z"/>
      <path class="cls-16" d="m137.85,28.17c.36,0,.66-.1.89-.3.23-.2.35-.47.36-.8h1.85c0,.5-.14.96-.41,1.38s-.64.74-1.1.97-.98.35-1.55.35c-1.06,0-1.89-.34-2.5-1.01-.61-.67-.92-1.6-.92-2.79v-.13c0-1.14.3-2.05.91-2.73.61-.68,1.44-1.02,2.5-1.02.93,0,1.67.26,2.23.79s.84,1.23.85,2.1h-1.85c0-.38-.13-.7-.36-.94s-.53-.36-.9-.36c-.46,0-.81.17-1.04.5s-.35.88-.35,1.63v.21c0,.76.12,1.31.35,1.64s.59.5,1.06.5Z"/>
      <path class="cls-16" d="m145.62,29.76c-1.08,0-1.97-.33-2.65-1-.68-.67-1.02-1.55-1.02-2.66v-.19c0-.74.14-1.41.43-1.99.29-.59.69-1.04,1.22-1.35.53-.32,1.13-.48,1.8-.48,1.01,0,1.81.32,2.39.96.58.64.87,1.54.87,2.71v.81h-4.71c.06.48.26.87.58,1.16.32.29.73.44,1.22.44.76,0,1.36-.28,1.78-.83l.97,1.09c-.3.42-.7.75-1.2.98s-1.07.35-1.68.35Zm-.23-6.08c-.39,0-.71.13-.95.4-.24.27-.4.65-.47,1.14h2.75v-.16c0-.44-.13-.78-.36-1.02-.23-.24-.55-.36-.97-.36Z"/>
      <path class="cls-16" d="m157.83,29.63c-.09-.18-.16-.4-.2-.66-.48.53-1.1.8-1.87.8-.72,0-1.33-.21-1.8-.63-.48-.42-.71-.95-.71-1.59,0-.78.29-1.39.87-1.8.58-.42,1.42-.63,2.52-.64h.91v-.42c0-.34-.09-.62-.26-.82s-.45-.31-.83-.31c-.33,0-.59.08-.78.24-.19.16-.28.38-.28.66h-1.98c0-.43.13-.82.4-1.19.26-.36.64-.65,1.12-.86.48-.21,1.03-.31,1.63-.31.91,0,1.63.23,2.17.69s.8,1.1.8,1.93v3.21c0,.7.1,1.23.29,1.59v.12h-2Zm-1.63-1.37c.29,0,.56-.06.81-.19s.43-.3.55-.52v-1.27h-.74c-.99,0-1.52.34-1.58,1.03v.12c0,.25.08.45.25.61.17.16.41.24.71.24Z"/>
      <path class="cls-16" d="m167.59,27.21l1.37-4.98h2.06l-2.5,7.4h-1.89l-2.5-7.4h2.06l1.37,4.98Z"/>
      <path class="cls-16" d="m174.17,29.63h-1.98v-7.4h1.98v7.4Zm-.58-10.4h2.15l-1.89,2.12h-1.61l1.35-2.12Z"/>
      <path class="cls-16" d="m178.38,20.41v1.82h1.26v1.45h-1.26v3.69c0,.27.05.47.16.59.1.12.31.18.6.18.22,0,.41-.02.58-.05v1.5c-.39.12-.79.18-1.2.18-1.39,0-2.09-.7-2.12-2.1v-3.99h-1.08v-1.45h1.08v-1.82h1.98Z"/>
      <path class="cls-16" d="m185.04,24.08c-.27-.04-.51-.05-.71-.05-.75,0-1.24.25-1.47.76v4.84h-1.98v-7.4h1.87l.05.88c.4-.68.95-1.02,1.65-1.02.22,0,.42.03.62.09l-.03,1.9Z"/>
    </g>
    <rect class="cls-16" x="85.6" y="18.93" width="10.7" height="10.7"/>
  </g>
  <g>
    <g>
      <path class="cls-18" d="m28.91,19.67h2.05v6.89c0,.63-.14,1.19-.42,1.68s-.68.86-1.19,1.12-1.09.4-1.73.4c-1.05,0-1.87-.27-2.46-.8-.59-.54-.88-1.29-.88-2.27h2.06c0,.49.1.85.31,1.08s.53.35.97.35c.39,0,.7-.13.94-.4.23-.27.35-.65.35-1.15v-6.89Z"/>
      <path class="cls-18" d="m37.01,29.63c-.09-.18-.16-.4-.2-.66-.48.53-1.1.8-1.87.8-.72,0-1.33-.21-1.8-.63-.48-.42-.71-.95-.71-1.59,0-.78.29-1.39.87-1.8.58-.42,1.42-.63,2.52-.64h.91v-.42c0-.34-.09-.62-.26-.82s-.45-.31-.83-.31c-.33,0-.59.08-.78.24-.19.16-.28.38-.28.66h-1.98c0-.43.13-.82.4-1.19.26-.36.64-.65,1.12-.86.48-.21,1.03-.31,1.63-.31.91,0,1.63.23,2.17.69s.8,1.1.8,1.93v3.21c0,.7.1,1.23.29,1.59v.12h-2Zm-1.63-1.37c.29,0,.56-.06.81-.19s.43-.3.55-.52v-1.27h-.74c-.99,0-1.52.34-1.58,1.03v.12c0,.25.08.45.25.61.17.16.41.24.71.24Zm.75-9.13h2.15l-1.89,2.12h-1.61l1.35-2.12Z"/>
      <path class="cls-18" d="m40.06,25.87c0-1.15.26-2.07.78-2.75s1.22-1.03,2.12-1.03c.72,0,1.31.27,1.78.81v-3.77h1.98v10.5h-1.78l-.1-.79c-.49.62-1.13.92-1.9.92-.87,0-1.57-.34-2.1-1.03-.53-.69-.79-1.64-.79-2.86Zm1.98.15c0,.69.12,1.23.36,1.6.24.37.59.55,1.05.55.61,0,1.04-.26,1.29-.77v-2.92c-.25-.52-.67-.77-1.28-.77-.95,0-1.43.77-1.43,2.32Z"/>
      <path class="cls-18" d="m52.55,24.08c-.27-.04-.51-.05-.71-.05-.75,0-1.24.25-1.47.76v4.84h-1.98v-7.4h1.87l.05.88c.4-.68.95-1.02,1.65-1.02.22,0,.42.03.62.09l-.03,1.9Z"/>
      <path class="cls-18" d="m53.09,25.86c0-.73.14-1.39.42-1.96s.69-1.02,1.22-1.33,1.15-.47,1.85-.47c1,0,1.81.31,2.44.92.63.61.98,1.44,1.06,2.49v.51c.01,1.13-.3,2.05-.94,2.73-.63.69-1.48,1.03-2.55,1.03s-1.92-.34-2.55-1.03-.95-1.61-.95-2.79v-.09Zm1.98.14c0,.7.13,1.24.4,1.61.26.37.64.56,1.13.56s.85-.18,1.12-.55c.27-.37.4-.95.4-1.76,0-.69-.13-1.22-.4-1.6-.27-.38-.65-.57-1.13-.57s-.86.19-1.12.56c-.26.38-.4.96-.4,1.75Z"/>
    </g>
    <rect class="cls-18" x="4.14" y="18.93" width="10.7" height="10.7"/>
  </g>
  <g>
    <g>
      <path class="cls-7" d="m464.42,25.51h-3.94v4.07h-2.05v-9.95h6.48v1.66h-4.43v2.57h3.94v1.65Z"/>
      <path class="cls-7" d="m465.67,25.81c0-.73.14-1.39.42-1.96s.69-1.02,1.22-1.33,1.15-.47,1.85-.47c1,0,1.81.31,2.44.92.63.61.98,1.44,1.06,2.49v.51c.01,1.13-.3,2.05-.94,2.73-.63.69-1.48,1.03-2.55,1.03s-1.92-.34-2.55-1.03-.95-1.61-.95-2.79v-.09Zm1.98.14c0,.7.13,1.24.4,1.61.26.37.64.56,1.13.56s.85-.18,1.12-.55c.27-.37.4-.95.4-1.76,0-.69-.13-1.22-.4-1.6-.27-.38-.65-.57-1.13-.57s-.86.19-1.12.56c-.26.38-.4.96-.4,1.75Z"/>
      <path class="cls-7" d="m478.03,27.53c0-.24-.12-.43-.36-.57-.24-.14-.62-.26-1.15-.37-1.76-.37-2.64-1.12-2.64-2.24,0-.66.27-1.2.82-1.64.54-.44,1.26-.66,2.14-.66.94,0,1.69.22,2.25.66.56.44.84,1.02.84,1.72h-1.98c0-.28-.09-.52-.27-.7s-.47-.28-.85-.28c-.33,0-.59.08-.77.23s-.27.34-.27.57c0,.22.1.4.31.53.21.13.56.25,1.05.35.49.1.91.21,1.24.33,1.04.38,1.57,1.05,1.57,1.99,0,.67-.29,1.22-.87,1.64s-1.33.63-2.24.63c-.62,0-1.17-.11-1.65-.33s-.86-.52-1.13-.91c-.27-.39-.41-.8-.41-1.25h1.87c.02.35.15.62.39.81.24.19.56.28.97.28.38,0,.66-.07.86-.22s.29-.33.29-.56Z"/>
      <path class="cls-7" d="m481.35,20.27c0-.3.1-.54.3-.73s.47-.29.81-.29.61.1.81.29.3.44.3.73-.1.55-.3.74-.47.29-.8.29-.6-.1-.8-.29-.3-.44-.3-.74Zm2.1,9.31h-1.98v-7.4h1.98v7.4Z"/>
      <path class="cls-7" d="m487.3,29.58h-1.98v-10.5h1.98v10.5Z"/>
      <path class="cls-7" d="m490.89,22.18l.06.85c.53-.66,1.24-.99,2.13-.99.78,0,1.37.23,1.75.69.38.46.58,1.15.59,2.06v4.78h-1.98v-4.73c0-.42-.09-.72-.27-.91-.18-.19-.49-.28-.91-.28-.56,0-.97.24-1.25.71v5.22h-1.98v-7.4h1.86Z"/>
      <path class="cls-7" d="m499.18,29.58h-1.98v-7.4h1.98v7.4Zm-.58-10.4h2.15l-1.89,2.12h-1.61l1.35-2.12Z"/>
      <path class="cls-7" d="m506.92,27.98h3.62v1.59h-6.14v-1.2l3.48-4.6h-3.38v-1.59h5.93v1.16l-3.51,4.64Z"/>
      <path class="cls-7" d="m511.61,25.82c0-1.15.26-2.07.78-2.75s1.22-1.03,2.12-1.03c.72,0,1.31.27,1.78.81v-3.77h1.98v10.5h-1.78l-.1-.79c-.49.62-1.13.92-1.9.92-.87,0-1.57-.34-2.1-1.03-.53-.69-.79-1.64-.79-2.86Zm1.98.15c0,.69.12,1.23.36,1.6.24.37.59.55,1.05.55.61,0,1.04-.26,1.29-.77v-2.92c-.25-.52-.67-.77-1.28-.77-.95,0-1.43.77-1.43,2.32Z"/>
      <path class="cls-7" d="m524.1,24.03c-.27-.04-.51-.05-.71-.05-.75,0-1.24.25-1.47.76v4.84h-1.98v-7.4h1.87l.05.88c.4-.68.95-1.02,1.65-1.02.22,0,.42.03.62.09l-.03,1.9Z"/>
      <path class="cls-7" d="m524.64,25.81c0-.73.14-1.39.42-1.96s.69-1.02,1.22-1.33,1.15-.47,1.85-.47c1,0,1.81.31,2.44.92.63.61.98,1.44,1.06,2.49v.51c.01,1.13-.3,2.05-.94,2.73-.63.69-1.48,1.03-2.55,1.03s-1.92-.34-2.55-1.03-.95-1.61-.95-2.79v-.09Zm1.98.14c0,.7.13,1.24.4,1.61.26.37.64.56,1.13.56s.85-.18,1.12-.55c.27-.37.4-.95.4-1.76,0-.69-.13-1.22-.4-1.6-.27-.38-.65-.57-1.13-.57s-.86.19-1.12.56c-.26.38-.4.96-.4,1.75Z"/>
      <path class="cls-7" d="m535.09,22.18v7.8c0,.82-.22,1.45-.65,1.9-.43.45-1.06.68-1.87.68-.34,0-.67-.04-.98-.12v-1.57c.24.04.44.06.62.06.6,0,.9-.32.9-.95v-7.81h1.98Zm-2.14-1.91c0-.3.1-.54.3-.73s.47-.29.81-.29.61.1.81.29.3.44.3.73-.1.55-.3.74-.47.29-.8.29-.6-.1-.8-.29-.3-.44-.3-.74Z"/>
      <path class="cls-7" d="m540.18,29.71c-1.08,0-1.97-.33-2.65-1-.68-.67-1.02-1.55-1.02-2.66v-.19c0-.74.14-1.41.43-1.99.29-.59.69-1.04,1.22-1.35.53-.32,1.13-.48,1.8-.48,1.01,0,1.81.32,2.39.96.58.64.87,1.54.87,2.71v.81h-4.71c.06.48.26.87.58,1.16.32.29.73.44,1.22.44.76,0,1.36-.28,1.78-.83l.97,1.09c-.3.42-.7.75-1.2.98s-1.07.35-1.68.35Zm-.23-6.08c-.39,0-.71.13-.95.4-.24.27-.4.65-.47,1.14h2.75v-.16c0-.44-.13-.78-.36-1.02-.23-.24-.55-.36-.97-.36Z"/>
    </g>
    <rect class="cls-7" x="437.68" y="18.93" width="10.7" height="10.7"/>
  </g>
  <g>
    <g>
      <path class="cls-13" d="m591.56,29.58h-2.05v-9.95h2.05v9.95Z"/>
      <path class="cls-13" d="m595.33,22.18l.06.83c.52-.64,1.23-.96,2.13-.96.95,0,1.61.38,1.96,1.13.52-.75,1.26-1.13,2.22-1.13.8,0,1.4.23,1.79.7.39.47.59,1.17.59,2.11v4.72h-1.98v-4.72c0-.42-.08-.73-.25-.92-.16-.19-.45-.29-.87-.29-.59,0-1,.28-1.23.85v5.08s-1.97,0-1.97,0v-4.71c0-.43-.08-.74-.25-.93s-.46-.29-.86-.29c-.56,0-.97.23-1.22.7v5.23h-1.98v-7.4h1.85Z"/>
      <path class="cls-13" d="m612.39,25.95c0,1.14-.26,2.05-.78,2.74-.52.69-1.22,1.03-2.1,1.03-.75,0-1.35-.26-1.81-.78v3.49h-1.98v-10.24h1.83l.07.72c.48-.57,1.1-.86,1.87-.86.91,0,1.62.34,2.13,1.01.51.67.76,1.6.76,2.79v.1Zm-1.98-.14c0-.69-.12-1.22-.37-1.59-.24-.37-.6-.56-1.06-.56-.62,0-1.05.24-1.28.71v3.03c.24.49.67.73,1.29.73.94,0,1.42-.77,1.42-2.32Z"/>
      <path class="cls-13" d="m613.45,25.81c0-.73.14-1.39.42-1.96s.69-1.02,1.22-1.33,1.15-.47,1.85-.47c1,0,1.81.31,2.44.92.63.61.98,1.44,1.06,2.49v.51c.01,1.13-.3,2.05-.94,2.73-.63.69-1.48,1.03-2.55,1.03s-1.92-.34-2.55-1.03-.95-1.61-.95-2.79v-.09Zm1.98.14c0,.7.13,1.24.4,1.61.26.37.64.56,1.13.56s.85-.18,1.12-.55c.27-.37.4-.95.4-1.76,0-.69-.13-1.22-.4-1.6-.27-.38-.65-.57-1.13-.57s-.86.19-1.12.56c-.26.38-.4.96-.4,1.75Z"/>
      <path class="cls-13" d="m625.97,24.03c-.27-.04-.51-.05-.71-.05-.75,0-1.24.25-1.47.76v4.84h-1.98v-7.4h1.87l.05.88c.4-.68.95-1.02,1.65-1.02.22,0,.42.03.62.09l-.03,1.9Z"/>
      <path class="cls-13" d="m629.76,20.36v1.82h1.26v1.45h-1.26v3.69c0,.27.05.47.16.59.1.12.31.18.6.18.22,0,.41-.02.58-.05v1.5c-.39.12-.79.18-1.2.18-1.39,0-2.09-.7-2.12-2.1v-3.99h-1.08v-1.45h1.08v-1.82h1.98Z"/>
    </g>
    <rect class="cls-15" x="568.63" y="18.93" width="10.7" height="10.7"/>
  </g>
  <g>
    <g>
      <path class="cls-10" d="m239.12,29.58h-2.05l-3.99-6.55v6.55h-2.05v-9.95h2.05l4,6.56v-6.56h2.04v9.95Z"/>
      <path class="cls-10" d="m243.05,29.58h-1.98v-7.4h1.98v7.4Zm-.58-10.4h2.15l-1.89,2.12h-1.61l1.35-2.12Z"/>
      <path class="cls-10" d="m247.16,27.98h3.62v1.59h-6.14v-1.2l3.48-4.6h-3.38v-1.59h5.93v1.16l-3.51,4.64Z"/>
      <path class="cls-10" d="m254.84,26.61l-.71.71v2.26h-1.98v-10.5h1.98v5.82l.38-.49,1.89-2.22h2.37l-2.67,3.08,2.91,4.31h-2.27l-1.9-2.97Z"/>
      <path class="cls-10" d="m259.47,25.81c0-.73.14-1.39.42-1.96s.69-1.02,1.22-1.33,1.15-.47,1.85-.47c1,0,1.81.31,2.44.92.63.61.98,1.44,1.06,2.49v.51c.01,1.13-.3,2.05-.94,2.73-.63.69-1.48,1.03-2.55,1.03s-1.92-.34-2.55-1.03-.95-1.61-.95-2.79v-.09Zm1.98.14c0,.7.13,1.24.4,1.61.26.37.64.56,1.13.56s.85-.18,1.12-.55c.27-.37.4-.95.4-1.76,0-.69-.13-1.22-.4-1.6-.27-.38-.65-.57-1.13-.57s-.86.19-1.12.56c-.26.38-.4.96-.4,1.75Z"/>
      <path class="cls-10" d="m271.23,29.71c-1.08,0-1.97-.33-2.65-1-.68-.67-1.02-1.55-1.02-2.66v-.19c0-.74.14-1.41.43-1.99.29-.59.69-1.04,1.22-1.35.53-.32,1.13-.48,1.8-.48,1.01,0,1.81.32,2.39.96.58.64.87,1.54.87,2.71v.81h-4.71c.06.48.26.87.58,1.16.32.29.73.44,1.22.44.76,0,1.36-.28,1.78-.83l.97,1.09c-.3.42-.7.75-1.2.98s-1.07.35-1.68.35Zm-.23-6.08c-.39,0-.71.13-.95.4-.24.27-.4.65-.47,1.14h2.75v-.16c0-.44-.13-.78-.36-1.02-.23-.24-.55-.36-.97-.36Z"/>
      <path class="cls-10" d="m277.39,22.18l.06.83c.52-.64,1.23-.96,2.13-.96.95,0,1.61.38,1.96,1.13.52-.75,1.26-1.13,2.22-1.13.8,0,1.4.23,1.79.7.39.47.59,1.17.59,2.11v4.72h-1.98v-4.72c0-.42-.08-.73-.25-.92-.16-.19-.45-.29-.87-.29-.59,0-1,.28-1.23.85v5.08s-1.97,0-1.97,0v-4.71c0-.43-.08-.74-.25-.93s-.46-.29-.86-.29c-.56,0-.97.23-1.22.7v5.23h-1.98v-7.4h1.85Z"/>
      <path class="cls-10" d="m287.78,20.27c0-.3.1-.54.3-.73s.47-.29.81-.29.61.1.81.29.3.44.3.73-.1.55-.3.74-.47.29-.8.29-.6-.1-.8-.29-.3-.44-.3-.74Zm2.1,9.31h-1.98v-7.4h1.98v7.4Z"/>
      <path class="cls-10" d="m295.65,27.53c0-.24-.12-.43-.36-.57-.24-.14-.62-.26-1.15-.37-1.76-.37-2.64-1.12-2.64-2.24,0-.66.27-1.2.82-1.64.54-.44,1.26-.66,2.14-.66.94,0,1.69.22,2.25.66.56.44.84,1.02.84,1.72h-1.98c0-.28-.09-.52-.27-.7s-.47-.28-.85-.28c-.33,0-.59.08-.77.23s-.27.34-.27.57c0,.22.1.4.31.53.21.13.56.25,1.05.35.49.1.91.21,1.24.33,1.04.38,1.57,1.05,1.57,1.99,0,.67-.29,1.22-.87,1.64s-1.33.63-2.24.63c-.62,0-1.17-.11-1.65-.33s-.86-.52-1.13-.91c-.27-.39-.41-.8-.41-1.25h1.87c.02.35.15.62.39.81.24.19.56.28.97.28.38,0,.66-.07.86-.22s.29-.33.29-.56Z"/>
      <path class="cls-10" d="m300.8,22.18l.06.85c.53-.66,1.24-.99,2.13-.99.78,0,1.37.23,1.75.69.38.46.58,1.15.59,2.06v4.78h-1.98v-4.73c0-.42-.09-.72-.27-.91-.18-.19-.49-.28-.91-.28-.56,0-.97.24-1.25.71v5.22h-1.98v-7.4h1.86Z"/>
      <path class="cls-10" d="m309.1,29.58h-1.98v-7.4h1.98v7.4Zm-.58-10.4h2.15l-1.89,2.12h-1.61l1.35-2.12Z"/>
      <path class="cls-10" d="m315.11,29.58v-5.95h-1.1v-1.45h1.1v-.63c0-.83.24-1.47.71-1.93s1.14-.69,2-.69c.27,0,.61.05,1,.14l-.02,1.53c-.16-.04-.36-.06-.6-.06-.74,0-1.11.35-1.11,1.05v.59h1.47v1.45h-1.47v5.95h-1.98Z"/>
      <path class="cls-10" d="m321.81,29.58h-1.98v-10.5h1.98v10.5Z"/>
      <path class="cls-10" d="m326.98,29.71c-1.08,0-1.97-.33-2.65-1-.68-.67-1.02-1.55-1.02-2.66v-.19c0-.74.14-1.41.43-1.99.29-.59.69-1.04,1.22-1.35.53-.32,1.13-.48,1.8-.48,1.01,0,1.81.32,2.39.96.58.64.87,1.54.87,2.71v.81h-4.71c.06.48.26.87.58,1.16.32.29.73.44,1.22.44.76,0,1.36-.28,1.78-.83l.97,1.09c-.3.42-.7.75-1.2.98s-1.07.35-1.68.35Zm-.23-6.08c-.39,0-.71.13-.95.4-.24.27-.4.65-.47,1.14h2.75v-.16c0-.44-.13-.78-.36-1.02-.23-.24-.55-.36-.97-.36Z"/>
      <path class="cls-10" d="m334.1,24.39l1.24-2.21h2.11l-2.11,3.62,2.19,3.77h-2.12l-1.32-2.32-1.31,2.32h-2.13l2.19-3.77-2.1-3.62h2.12l1.22,2.21Z"/>
      <path class="cls-10" d="m338.54,20.27c0-.3.1-.54.3-.73s.47-.29.81-.29.61.1.81.29.3.44.3.73-.1.55-.3.74-.47.29-.8.29-.6-.1-.8-.29-.3-.44-.3-.74Zm2.1,9.31h-1.98v-7.4h1.98v7.4Z"/>
      <path class="cls-10" d="m349.07,25.95c0,1.19-.25,2.11-.76,2.77s-1.21.99-2.12.99c-.8,0-1.44-.31-1.92-.92l-.09.79h-1.78v-10.5h1.98v3.77c.46-.53,1.06-.8,1.8-.8.9,0,1.61.33,2.12.99s.77,1.6.77,2.8v.11Zm-1.98-.14c0-.75-.12-1.29-.36-1.64-.24-.34-.59-.52-1.06-.52-.63,0-1.06.26-1.3.77v2.92c.24.52.68.78,1.31.78s1.06-.31,1.26-.94c.1-.3.14-.76.14-1.37Z"/>
      <path class="cls-10" d="m350.41,20.27c0-.3.1-.54.3-.73s.47-.29.81-.29.61.1.81.29.3.44.3.73-.1.55-.3.74-.47.29-.8.29-.6-.1-.8-.29-.3-.44-.3-.74Zm2.1,9.31h-1.98v-7.4h1.98v7.4Z"/>
      <path class="cls-10" d="m356.36,29.58h-1.98v-10.5h1.98v10.5Z"/>
      <path class="cls-10" d="m359.94,22.18l.06.85c.53-.66,1.24-.99,2.13-.99.78,0,1.37.23,1.75.69.38.46.58,1.15.59,2.06v4.78h-1.98v-4.73c0-.42-.09-.72-.27-.91-.18-.19-.49-.28-.91-.28-.56,0-.97.24-1.25.71v5.22h-1.98v-7.4h1.86Z"/>
      <path class="cls-10" d="m368.24,29.58h-1.98v-7.4h1.98v7.4Zm-.58-10.4h2.15l-1.89,2.12h-1.61l1.35-2.12Z"/>
      <path class="cls-10" d="m375.98,27.98h3.62v1.59h-6.14v-1.2l3.48-4.6h-3.38v-1.59h5.93v1.16l-3.51,4.64Z"/>
      <path class="cls-10" d="m380.66,25.82c0-1.15.26-2.07.78-2.75s1.22-1.03,2.12-1.03c.72,0,1.31.27,1.78.81v-3.77h1.98v10.5h-1.78l-.1-.79c-.49.62-1.13.92-1.9.92-.87,0-1.57-.34-2.1-1.03-.53-.69-.79-1.64-.79-2.86Zm1.98.15c0,.69.12,1.23.36,1.6.24.37.59.55,1.05.55.61,0,1.04-.26,1.29-.77v-2.92c-.25-.52-.67-.77-1.28-.77-.95,0-1.43.77-1.43,2.32Z"/>
      <path class="cls-10" d="m393.16,24.03c-.27-.04-.51-.05-.71-.05-.75,0-1.24.25-1.47.76v4.84h-1.98v-7.4h1.87l.05.88c.4-.68.95-1.02,1.65-1.02.22,0,.42.03.62.09l-.03,1.9Z"/>
      <path class="cls-10" d="m393.69,25.81c0-.73.14-1.39.42-1.96s.69-1.02,1.22-1.33,1.15-.47,1.85-.47c1,0,1.81.31,2.44.92.63.61.98,1.44,1.06,2.49v.51c.01,1.13-.3,2.05-.94,2.73-.63.69-1.48,1.03-2.55,1.03s-1.92-.34-2.55-1.03-.95-1.61-.95-2.79v-.09Zm1.98.14c0,.7.13,1.24.4,1.61.26.37.64.56,1.13.56s.85-.18,1.12-.55c.27-.37.4-.95.4-1.76,0-.69-.13-1.22-.4-1.6-.27-.38-.65-.57-1.13-.57s-.86.19-1.12.56c-.26.38-.4.96-.4,1.75Z"/>
      <path class="cls-10" d="m404.15,22.18v7.8c0,.82-.22,1.45-.65,1.9-.43.45-1.06.68-1.87.68-.34,0-.67-.04-.98-.12v-1.57c.24.04.44.06.62.06.6,0,.9-.32.9-.95v-7.81h1.98Zm-2.14-1.91c0-.3.1-.54.3-.73s.47-.29.81-.29.61.1.81.29.3.44.3.73-.1.55-.3.74-.47.29-.8.29-.6-.1-.8-.29-.3-.44-.3-.74Z"/>
      <path class="cls-10" d="m409.24,29.71c-1.08,0-1.97-.33-2.65-1-.68-.67-1.02-1.55-1.02-2.66v-.19c0-.74.14-1.41.43-1.99.29-.59.69-1.04,1.22-1.35.53-.32,1.13-.48,1.8-.48,1.01,0,1.81.32,2.39.96.58.64.87,1.54.87,2.71v.81h-4.71c.06.48.26.87.58,1.16.32.29.73.44,1.22.44.76,0,1.36-.28,1.78-.83l.97,1.09c-.3.42-.7.75-1.2.98s-1.07.35-1.68.35Zm-.23-6.08c-.39,0-.71.13-.95.4-.24.27-.4.65-.47,1.14h2.75v-.16c0-.44-.13-.78-.36-1.02-.23-.24-.55-.36-.97-.36Z"/>
    </g>
    <rect class="cls-8" x="210.27" y="18.93" width="10.7" height="10.7"/>
  </g>
  <g>
    <path class="cls-17" d="m11.24,65.75c0-.5-.18-.89-.53-1.16-.35-.27-.99-.54-1.9-.82-.92-.28-1.65-.58-2.19-.92-1.04-.65-1.55-1.5-1.55-2.55,0-.92.37-1.67,1.12-2.27.75-.59,1.72-.89,2.91-.89.79,0,1.5.15,2.12.44.62.29,1.11.71,1.46,1.25.35.54.53,1.14.53,1.79h-1.97c0-.59-.19-1.06-.56-1.39-.37-.34-.91-.5-1.6-.5-.65,0-1.15.14-1.5.41-.36.28-.54.66-.54,1.16,0,.42.19.76.58,1.04.39.28,1.02.55,1.91.81.89.26,1.6.56,2.13.9.54.34.93.72,1.18,1.16.25.44.38.94.38,1.53,0,.95-.36,1.7-1.09,2.26-.73.56-1.71.84-2.96.84-.82,0-1.58-.15-2.27-.46-.69-.3-1.23-.73-1.61-1.26-.38-.54-.57-1.16-.57-1.88h1.98c0,.65.21,1.15.64,1.5.43.35,1.04.53,1.84.53.69,0,1.2-.14,1.55-.42.35-.28.52-.65.52-1.11Z"/>
    <path class="cls-17" d="m17.73,67.1h5.16v1.58h-7.14v-11.38h1.98v9.8Z"/>
    <path class="cls-17" d="m33.34,57.3v7.6c0,1.21-.39,2.17-1.16,2.87-.77.71-1.8,1.06-3.09,1.06s-2.34-.35-3.1-1.04-1.15-1.66-1.15-2.89v-7.59h1.97v7.61c0,.76.19,1.34.58,1.74.39.4.95.6,1.7.6,1.52,0,2.28-.8,2.28-2.41v-7.55h1.97Z"/>
    <path class="cls-17" d="m45.28,68.68h-1.98l-5.07-8.07v8.07h-1.98v-11.38h1.98l5.09,8.1v-8.1h1.96v11.38Z"/>
    <path class="cls-17" d="m57.09,64.97c-.11,1.21-.56,2.16-1.34,2.84s-1.82,1.02-3.12,1.02c-.91,0-1.7-.21-2.39-.64-.69-.43-1.22-1.04-1.6-1.83-.38-.79-.57-1.71-.59-2.76v-1.06c0-1.07.19-2.02.57-2.84.38-.82.93-1.45,1.64-1.89.71-.44,1.53-.66,2.46-.66,1.25,0,2.27.34,3.03,1.02s1.21,1.64,1.34,2.89h-1.97c-.09-.82-.33-1.41-.71-1.77-.38-.36-.94-.54-1.68-.54-.86,0-1.52.31-1.98.94-.46.63-.7,1.55-.71,2.76v1.01c0,1.23.22,2.17.66,2.81.44.65,1.08.97,1.93.97.78,0,1.36-.17,1.75-.52.39-.35.64-.93.74-1.74h1.97Z"/>
    <path class="cls-17" d="m66.31,63.6h-4.67v3.5h5.46v1.58h-7.44v-11.38h7.38v1.59h-5.41v3.14h4.67v1.56Z"/>
    <path class="cls-17" d="m80.66,66.03h-4.41l-.92,2.65h-2.05l4.3-11.38h1.77l4.3,11.38h-2.06l-.93-2.65Zm-3.85-1.59h3.3l-1.65-4.72-1.65,4.72Z"/>
    <path class="cls-17" d="m94.53,66.2l2.89-8.9h2.17l-4.09,11.38h-1.91l-4.08-11.38h2.16l2.86,8.9Z"/>
    <path class="cls-17" d="m103.76,68.68h-1.97v-11.38h1.97v11.38Zm-.43-14.48h2.16l-2.16,2.37h-1.52s1.52-2.37,1.52-2.37Z"/>
    <path class="cls-17" d="m115.21,58.89h-3.55v9.78h-1.96v-9.78h-3.52v-1.59h9.02v1.59Z"/>
    <path class="cls-17" d="m121.68,64.3h-2.2v4.38h-1.98v-11.38h4c1.31,0,2.33.29,3.04.88.71.59,1.07,1.44,1.07,2.56,0,.76-.18,1.4-.55,1.91-.37.51-.88.91-1.54,1.18l2.55,4.74v.1h-2.12l-2.28-4.38Zm-2.2-1.59h2.03c.67,0,1.19-.17,1.56-.5s.56-.8.56-1.38-.17-1.08-.52-1.41c-.35-.33-.86-.51-1.55-.52h-2.09v3.81Z"/>
    <path class="cls-17" d="m9.5,83.42h2.97v1.73h-2.97v3.38h-1.84v-3.38h-2.98v-1.73h2.98v-3.16h1.84v3.16Z"/>
    <path class="cls-17" d="m22.58,87.57h5.44v2.11h-8.86v-1.45l5.42-7.81h-5.45v-2.12h8.84v1.41l-5.38,7.86Z"/>
    <path class="cls-17" d="m37.11,84.85h-4.31v2.72h5.09v2.11h-7.84v-11.38h7.85v2.12h-5.11v2.4h4.31v2.03Z"/>
    <path class="cls-17" d="m42.55,87.57h4.77v2.11h-7.52v-11.38h2.74v9.27Z"/>
    <path class="cls-17" d="m56.34,84.85h-4.31v2.72h5.09v2.11h-7.84v-11.38h7.85v2.12h-5.11v2.4h4.31v2.03Z"/>
    <path class="cls-17" d="m68.53,89.68h-2.73l-4.03-7.08v7.08h-2.74v-11.38h2.74l4.02,7.08v-7.08h2.73v11.38Z"/>
    <path class="cls-17" d="m75.23,83.24l2.09-4.94h2.96l-3.66,7.29v4.09h-2.78v-4.09l-3.66-7.29h2.95l2.1,4.94Zm.34-7.98h2.78l-2.17,2.45h-2.15s1.54-2.45,1.54-2.45Z"/>
    <path class="cls-17" d="m91.11,86.58l2.27-8.28h3.06l-3.83,11.38h-3l-3.8-11.38h3.04l2.26,8.28Z"/>
    <path class="cls-17" d="m107.6,84.22c0,1.11-.21,2.09-.62,2.95-.41.85-1,1.51-1.75,1.97s-1.62.69-2.59.69-1.83-.22-2.58-.67-1.33-1.08-1.75-1.91c-.42-.83-.64-1.78-.66-2.85v-.64c0-1.11.2-2.1.61-2.95.41-.85.99-1.51,1.76-1.97.76-.46,1.63-.7,2.61-.7s1.82.23,2.58.69c.75.46,1.34,1.11,1.76,1.96.42.85.63,1.82.64,2.91v.52Zm-2.79-.48c0-1.13-.19-1.99-.57-2.57-.38-.59-.92-.88-1.62-.88-1.38,0-2.1,1.03-2.18,3.09v.84c0,1.11.18,1.97.55,2.57.37.6.92.9,1.65.9s1.23-.29,1.6-.88c.38-.59.56-1.43.57-2.54v-.52Z"/>
    <path class="cls-17" d="m109.82,89.68v-11.38h3.66c1,0,1.91.23,2.71.68.8.46,1.43,1.1,1.88,1.93.45.83.68,1.76.68,2.79v.52c0,1.04-.22,1.98-.66,2.8-.44.83-1.06,1.47-1.86,1.94-.8.47-1.69.7-2.68.71h-3.74Zm2.74-9.26v7.15h.95c.79,0,1.39-.28,1.81-.84.42-.56.63-1.39.63-2.5v-.49c0-1.1-.21-1.93-.63-2.48-.42-.56-1.04-.84-1.84-.84h-.92Z"/>
    <path class="cls-17" d="m123.88,89.68h-2.73v-11.38h2.73v11.38Zm-1.04-14.42h2.78l-2.17,2.45h-2.15s1.54-2.45,1.54-2.45Z"/>
    <path class="cls-17" d="m130.46,85.44l-1.12,1.23v3h-2.74v-11.38h2.74v5.02l.95-1.45,2.45-3.57h3.39l-3.84,5.03,3.84,6.34h-3.25l-2.42-4.23Z"/>
  </g>
  <g>
    <path class="cls-17" d="m309.92,65.75c0-.5-.18-.89-.53-1.16-.35-.27-.99-.54-1.9-.82-.92-.28-1.65-.58-2.19-.92-1.04-.65-1.55-1.5-1.55-2.55,0-.92.37-1.67,1.12-2.27.75-.59,1.72-.89,2.91-.89.79,0,1.5.15,2.12.44.62.29,1.11.71,1.46,1.25.35.54.53,1.14.53,1.79h-1.97c0-.59-.19-1.06-.56-1.39-.37-.34-.91-.5-1.6-.5-.65,0-1.15.14-1.5.41-.36.28-.54.66-.54,1.16,0,.42.19.76.58,1.04.39.28,1.02.55,1.91.81.89.26,1.6.56,2.13.9.54.34.93.72,1.18,1.16.25.44.38.94.38,1.53,0,.95-.36,1.7-1.09,2.26-.73.56-1.71.84-2.96.84-.82,0-1.58-.15-2.27-.46-.69-.3-1.23-.73-1.61-1.26-.38-.54-.57-1.16-.57-1.88h1.98c0,.65.21,1.15.64,1.5.43.35,1.04.53,1.84.53.69,0,1.2-.14,1.55-.42.35-.28.52-.65.52-1.11Z"/>
    <path class="cls-17" d="m316.41,67.1h5.16v1.58h-7.14v-11.38h1.98v9.8Z"/>
    <path class="cls-17" d="m332.02,57.3v7.6c0,1.21-.39,2.17-1.16,2.87-.77.71-1.8,1.06-3.09,1.06s-2.34-.35-3.1-1.04-1.15-1.66-1.15-2.89v-7.59h1.97v7.61c0,.76.19,1.34.58,1.74.39.4.95.6,1.7.6,1.52,0,2.28-.8,2.28-2.41v-7.55h1.97Z"/>
    <path class="cls-17" d="m343.95,68.68h-1.98l-5.07-8.07v8.07h-1.98v-11.38h1.98l5.09,8.1v-8.1h1.96v11.38Z"/>
    <path class="cls-17" d="m355.77,64.97c-.11,1.21-.56,2.16-1.34,2.84s-1.82,1.02-3.12,1.02c-.91,0-1.7-.21-2.39-.64-.69-.43-1.22-1.04-1.6-1.83-.38-.79-.57-1.71-.59-2.76v-1.06c0-1.07.19-2.02.57-2.84.38-.82.93-1.45,1.64-1.89.71-.44,1.53-.66,2.46-.66,1.25,0,2.27.34,3.03,1.02s1.21,1.64,1.34,2.89h-1.97c-.09-.82-.33-1.41-.71-1.77-.38-.36-.94-.54-1.68-.54-.86,0-1.52.31-1.98.94-.46.63-.7,1.55-.71,2.76v1.01c0,1.23.22,2.17.66,2.81.44.65,1.08.97,1.93.97.78,0,1.36-.17,1.75-.52.39-.35.64-.93.74-1.74h1.97Z"/>
    <path class="cls-17" d="m364.98,63.6h-4.67v3.5h5.46v1.58h-7.44v-11.38h7.38v1.59h-5.41v3.14h4.67v1.56Z"/>
    <path class="cls-17" d="m379.33,66.03h-4.41l-.92,2.65h-2.05l4.3-11.38h1.77l4.3,11.38h-2.06l-.93-2.65Zm-3.85-1.59h3.3l-1.65-4.72-1.65,4.72Z"/>
    <path class="cls-17" d="m393.21,66.2l2.89-8.9h2.17l-4.09,11.38h-1.91l-4.08-11.38h2.16l2.86,8.9Z"/>
    <path class="cls-17" d="m402.44,68.68h-1.97v-11.38h1.97v11.38Zm-.43-14.48h2.16l-2.16,2.37h-1.52s1.52-2.37,1.52-2.37Z"/>
    <path class="cls-17" d="m413.88,58.89h-3.55v9.78h-1.96v-9.78h-3.52v-1.59h9.02v1.59Z"/>
    <path class="cls-17" d="m420.36,64.3h-2.2v4.38h-1.98v-11.38h4c1.31,0,2.33.29,3.04.88.71.59,1.07,1.44,1.07,2.56,0,.76-.18,1.4-.55,1.91-.37.51-.88.91-1.54,1.18l2.55,4.74v.1h-2.12l-2.28-4.38Zm-2.2-1.59h2.03c.67,0,1.19-.17,1.56-.5s.56-.8.56-1.38-.17-1.08-.52-1.41c-.35-.33-.86-.51-1.55-.52h-2.09v3.81Z"/>
    <path class="cls-17" d="m308.18,83.42h2.97v1.73h-2.97v3.38h-1.84v-3.38h-2.98v-1.73h2.98v-3.16h1.84v3.16Z"/>
    <path class="cls-17" d="m321.1,89.68h-2.73v-11.38h2.73v11.38Z"/>
    <path class="cls-17" d="m327.41,78.3l2.54,7.91,2.53-7.91h3.61v11.38h-2.75v-2.66l.27-5.44-2.75,8.09h-1.81l-2.76-8.1.27,5.45v2.66h-2.74v-11.38h3.6Z"/>
    <path class="cls-17" d="m341.37,85.82v3.86h-2.74v-11.38h4.54c.87,0,1.64.16,2.31.48.67.32,1.19.78,1.55,1.37.37.59.55,1.26.55,2.01,0,1.11-.4,2-1.19,2.66-.79.66-1.88,1-3.27,1h-1.75Zm0-2.12h1.8c.53,0,.94-.13,1.21-.4.28-.27.42-.64.42-1.12,0-.53-.14-.96-.43-1.27-.29-.32-.68-.48-1.17-.48h-1.83v3.28Z"/>
    <path class="cls-17" d="m359.48,84.22c0,1.11-.21,2.09-.62,2.95-.41.85-1,1.51-1.75,1.97s-1.62.69-2.59.69-1.83-.22-2.58-.67-1.33-1.08-1.75-1.91c-.42-.83-.64-1.78-.66-2.85v-.64c0-1.11.2-2.1.61-2.95.41-.85.99-1.51,1.76-1.97.76-.46,1.63-.7,2.61-.7s1.82.23,2.58.69c.75.46,1.34,1.11,1.76,1.96.42.85.63,1.82.64,2.91v.52Zm-2.79-.48c0-1.13-.19-1.99-.57-2.57-.38-.59-.92-.88-1.62-.88-1.38,0-2.1,1.03-2.18,3.09v.84c0,1.11.18,1.97.55,2.57.37.6.92.9,1.65.9s1.23-.29,1.6-.88c.38-.59.56-1.43.57-2.54v-.52Z"/>
    <path class="cls-17" d="m365.92,85.65h-1.48v4.02h-2.74v-11.38h4.48c1.35,0,2.4.3,3.16.9.76.6,1.14,1.44,1.14,2.54,0,.79-.16,1.45-.48,1.97-.32.52-.82.94-1.5,1.26l2.38,4.59v.12h-2.94l-2.01-4.02Zm-1.48-2.11h1.73c.52,0,.91-.14,1.18-.41.26-.27.39-.66.39-1.15s-.13-.88-.4-1.16-.66-.42-1.17-.42h-1.73v3.13Z"/>
    <path class="cls-17" d="m381.47,80.42h-3.41v9.26h-2.74v-9.26h-3.35v-2.12h9.51v2.12Z"/>
  </g>
  <g>
    <path class="cls-17" d="m588.49,65.75c0-.5-.18-.89-.53-1.16-.35-.27-.99-.54-1.9-.82-.92-.28-1.65-.58-2.19-.92-1.04-.65-1.55-1.5-1.55-2.55,0-.92.37-1.67,1.12-2.27.75-.59,1.72-.89,2.91-.89.79,0,1.5.15,2.12.44.62.29,1.11.71,1.46,1.25.35.54.53,1.14.53,1.79h-1.97c0-.59-.19-1.06-.56-1.39-.37-.34-.91-.5-1.6-.5-.65,0-1.15.14-1.5.41-.36.28-.54.66-.54,1.16,0,.42.19.76.58,1.04.39.28,1.02.55,1.91.81.89.26,1.6.56,2.13.9.54.34.93.72,1.18,1.16.25.44.38.94.38,1.53,0,.95-.36,1.7-1.09,2.26-.73.56-1.71.84-2.96.84-.82,0-1.58-.15-2.27-.46-.69-.3-1.23-.73-1.61-1.26-.38-.54-.57-1.16-.57-1.88h1.98c0,.65.21,1.15.64,1.5.43.35,1.04.53,1.84.53.69,0,1.2-.14,1.55-.42.35-.28.52-.65.52-1.11Z"/>
    <path class="cls-17" d="m594.98,67.1h5.16v1.58h-7.14v-11.38h1.98v9.8Z"/>
    <path class="cls-17" d="m610.59,57.3v7.6c0,1.21-.39,2.17-1.16,2.87-.77.71-1.8,1.06-3.09,1.06s-2.34-.35-3.1-1.04-1.15-1.66-1.15-2.89v-7.59h1.97v7.61c0,.76.19,1.34.58,1.74.39.4.95.6,1.7.6,1.52,0,2.28-.8,2.28-2.41v-7.55h1.97Z"/>
    <path class="cls-17" d="m622.52,68.68h-1.98l-5.07-8.07v8.07h-1.98v-11.38h1.98l5.09,8.1v-8.1h1.96v11.38Z"/>
    <path class="cls-17" d="m634.34,64.97c-.11,1.21-.56,2.16-1.34,2.84s-1.82,1.02-3.12,1.02c-.91,0-1.7-.21-2.39-.64-.69-.43-1.22-1.04-1.6-1.83-.38-.79-.57-1.71-.59-2.76v-1.06c0-1.07.19-2.02.57-2.84.38-.82.93-1.45,1.64-1.89.71-.44,1.53-.66,2.46-.66,1.25,0,2.27.34,3.03,1.02s1.21,1.64,1.34,2.89h-1.97c-.09-.82-.33-1.41-.71-1.77-.38-.36-.94-.54-1.68-.54-.86,0-1.52.31-1.98.94-.46.63-.7,1.55-.71,2.76v1.01c0,1.23.22,2.17.66,2.81.44.65,1.08.97,1.93.97.78,0,1.36-.17,1.75-.52.39-.35.64-.93.74-1.74h1.97Z"/>
    <path class="cls-17" d="m643.55,63.6h-4.67v3.5h5.46v1.58h-7.44v-11.38h7.38v1.59h-5.41v3.14h4.67v1.56Z"/>
    <path class="cls-17" d="m657.9,66.03h-4.41l-.92,2.65h-2.05l4.3-11.38h1.77l4.3,11.38h-2.06l-.93-2.65Zm-3.85-1.59h3.3l-1.65-4.72-1.65,4.72Z"/>
    <path class="cls-17" d="m671.78,66.2l2.89-8.9h2.17l-4.09,11.38h-1.91l-4.08-11.38h2.16l2.86,8.9Z"/>
    <path class="cls-17" d="m681.01,68.68h-1.97v-11.38h1.97v11.38Zm-.43-14.48h2.16l-2.16,2.37h-1.52s1.52-2.37,1.52-2.37Z"/>
    <path class="cls-17" d="m692.46,58.89h-3.55v9.78h-1.96v-9.78h-3.52v-1.59h9.02v1.59Z"/>
    <path class="cls-17" d="m698.93,64.3h-2.2v4.38h-1.98v-11.38h4c1.31,0,2.33.29,3.04.88.71.59,1.07,1.44,1.07,2.56,0,.76-.18,1.4-.55,1.91-.37.51-.88.91-1.54,1.18l2.55,4.74v.1h-2.12l-2.28-4.38Zm-2.2-1.59h2.03c.67,0,1.19-.17,1.56-.5s.56-.8.56-1.38-.17-1.08-.52-1.41c-.35-.33-.86-.51-1.55-.52h-2.09v3.81Z"/>
    <path class="cls-17" d="m586.75,83.42h2.97v1.73h-2.97v3.38h-1.84v-3.38h-2.98v-1.73h2.98v-3.16h1.84v3.16Z"/>
    <path class="cls-17" d="m601.28,78.3h2.73v7.8c0,.72-.17,1.37-.5,1.94-.34.57-.8,1.01-1.41,1.32s-1.27.47-2.01.47c-1.24,0-2.2-.31-2.89-.94s-1.03-1.51-1.03-2.66h2.75c0,.52.09.9.27,1.13s.48.35.9.35c.38,0,.67-.14.88-.43.21-.28.31-.68.31-1.19v-7.8Z"/>
    <path class="cls-17" d="m613,87.55h-3.76l-.66,2.12h-2.93l4.17-11.38h2.58l4.2,11.38h-2.95l-.66-2.12Zm-3.1-2.12h2.45l-1.23-3.95-1.22,3.95Zm1.58-10.18h2.78l-2.17,2.45h-2.15s1.54-2.45,1.54-2.45Z"/>
    <path class="cls-17" d="m618.24,89.68v-11.38h3.66c1,0,1.91.23,2.71.68.8.46,1.43,1.1,1.88,1.93.45.83.68,1.76.68,2.79v.52c0,1.04-.22,1.98-.66,2.8-.44.83-1.06,1.47-1.86,1.94-.8.47-1.69.7-2.68.71h-3.74Zm2.74-9.26v7.15h.95c.79,0,1.39-.28,1.81-.84.42-.56.63-1.39.63-2.5v-.49c0-1.1-.21-1.93-.63-2.48-.42-.56-1.04-.84-1.84-.84h-.92Z"/>
    <path class="cls-17" d="m633.61,85.65h-1.48v4.02h-2.74v-11.38h4.48c1.35,0,2.4.3,3.16.9.76.6,1.14,1.44,1.14,2.54,0,.79-.16,1.45-.48,1.97-.32.52-.82.94-1.5,1.26l2.38,4.59v.12h-2.94l-2.01-4.02Zm-1.48-2.11h1.73c.52,0,.91-.14,1.18-.41.26-.27.39-.66.39-1.15s-.13-.88-.4-1.16-.66-.42-1.17-.42h-1.73v3.13Z"/>
    <path class="cls-17" d="m650.25,84.22c0,1.11-.21,2.09-.62,2.95-.41.85-1,1.51-1.75,1.97s-1.62.69-2.59.69-1.83-.22-2.58-.67-1.33-1.08-1.75-1.91c-.42-.83-.64-1.78-.66-2.85v-.64c0-1.11.2-2.1.61-2.95.41-.85.99-1.51,1.76-1.97.76-.46,1.63-.7,2.61-.7s1.82.23,2.58.69c.75.46,1.34,1.11,1.76,1.96.42.85.63,1.82.64,2.91v.52Zm-2.79-.48c0-1.13-.19-1.99-.57-2.57-.38-.59-.92-.88-1.62-.88-1.38,0-2.1,1.03-2.18,3.09v.84c0,1.11.18,1.97.55,2.57.37.6.92.9,1.65.9s1.23-.29,1.6-.88c.38-.59.56-1.43.57-2.54v-.52Z"/>
  </g>
  <g>
    <path class="cls-19" d="m20.17,119.34h5.34v1.01h-6.79v-.92l5.11-7.4h-5.03v-1.01h6.5v.9l-5.13,7.43Z"/>
    <path class="cls-19" d="m30.75,120.35v-6.02h-1.1v-.92h1.1v-.71c0-.74.2-1.32.6-1.72.4-.41.96-.61,1.69-.61.27,0,.54.04.81.11l-.06.96c-.2-.04-.41-.06-.64-.06-.38,0-.68.11-.89.34-.21.23-.31.55-.31.97v.73h1.48v.92h-1.48v6.02h-1.19Z"/>
    <path class="cls-19" d="m34.41,116.82c0-.68.13-1.29.4-1.83.27-.54.64-.96,1.11-1.26.48-.29,1.02-.44,1.63-.44.94,0,1.71.33,2.29.98.58.65.87,1.52.87,2.61v.08c0,.68-.13,1.28-.39,1.82-.26.54-.63.95-1.11,1.25-.48.3-1.03.45-1.66.45-.94,0-1.7-.33-2.28-.98-.58-.65-.88-1.52-.88-2.6v-.08Zm1.19.14c0,.77.18,1.39.53,1.85.36.47.83.7,1.43.7s1.08-.24,1.44-.71c.35-.47.53-1.13.53-1.98,0-.76-.18-1.38-.54-1.85-.36-.47-.84-.71-1.44-.71s-1.06.23-1.42.7c-.36.47-.54,1.13-.54,2Z"/>
    <path class="cls-19" d="m46.25,118.51c0-.32-.12-.57-.36-.75-.24-.18-.66-.33-1.26-.46s-1.08-.28-1.43-.46-.61-.39-.78-.64c-.17-.25-.25-.54-.25-.88,0-.57.24-1.05.72-1.44s1.09-.59,1.84-.59c.79,0,1.42.2,1.91.61.49.41.73.93.73,1.56h-1.19c0-.32-.14-.6-.41-.84-.28-.24-.62-.35-1.04-.35s-.77.09-1.01.28c-.24.19-.37.43-.37.74,0,.29.11.5.34.65s.64.28,1.23.42c.59.13,1.07.29,1.44.47.37.18.64.41.82.66.18.26.27.57.27.95,0,.62-.25,1.12-.74,1.49-.5.37-1.14.56-1.93.56-.56,0-1.05-.1-1.47-.29-.43-.2-.76-.47-1-.82-.24-.35-.36-.73-.36-1.14h1.19c.02.4.18.71.48.95.3.23.69.35,1.18.35.45,0,.81-.09,1.08-.27.27-.18.41-.42.41-.73Z"/>
    <path class="cls-19" d="m49,119.73c0-.21.06-.38.18-.51s.3-.21.55-.21.43.07.55.21.19.31.19.51-.06.36-.19.49-.31.2-.55.2-.43-.07-.55-.2-.18-.3-.18-.49Z"/>
    <path class="cls-19" d="m56.8,119.38h4.06v.97h-5.5v-.87l3.83-5.08h-3.77v-.98h5.25v.84l-3.86,5.13Z"/>
    <path class="cls-19" d="m61.9,116.82c0-1.06.25-1.92.76-2.57.5-.65,1.16-.97,1.98-.97s1.45.28,1.93.83v-3.61h1.19v9.84h-1.09l-.06-.74c-.47.58-1.13.87-1.98.87s-1.46-.33-1.96-.99-.76-1.52-.76-2.58v-.09Zm1.19.13c0,.79.16,1.4.49,1.85s.77.67,1.35.67c.75,0,1.3-.34,1.65-1.01v-3.19c-.35-.65-.9-.98-1.63-.98-.58,0-1.03.22-1.36.67-.32.45-.49,1.11-.49,1.99Z"/>
    <path class="cls-19" d="m72.94,114.48c-.18-.03-.37-.04-.58-.04-.78,0-1.31.33-1.58.99v4.92h-1.19v-6.93h1.15l.02.8c.39-.62.94-.93,1.65-.93.23,0,.41.03.53.09v1.1Z"/>
    <path class="cls-19" d="m73.59,116.82c0-.68.13-1.29.4-1.83.27-.54.64-.96,1.11-1.26.48-.29,1.02-.44,1.63-.44.94,0,1.71.33,2.29.98.58.65.87,1.52.87,2.61v.08c0,.68-.13,1.28-.39,1.82-.26.54-.63.95-1.11,1.25-.48.3-1.03.45-1.66.45-.94,0-1.7-.33-2.28-.98-.58-.65-.88-1.52-.88-2.6v-.08Zm1.19.14c0,.77.18,1.39.53,1.85.36.47.83.7,1.43.7s1.08-.24,1.44-.71c.35-.47.53-1.13.53-1.98,0-.76-.18-1.38-.54-1.85-.36-.47-.84-.71-1.44-.71s-1.06.23-1.42.7c-.36.47-.54,1.13-.54,2Z"/>
    <path class="cls-19" d="m82.61,113.41v7.74c0,1.33-.6,2-1.81,2-.26,0-.5-.04-.72-.11v-.94c.14.03.32.05.54.05.27,0,.47-.07.61-.21.14-.14.21-.39.21-.75v-7.77h1.19Zm-1.31-1.84c0-.19.06-.35.18-.48.12-.13.29-.2.52-.2s.41.07.53.2c.12.13.18.29.18.49s-.06.35-.18.48c-.12.13-.29.19-.53.19s-.4-.06-.52-.19-.17-.29-.17-.48Z"/>
    <path class="cls-19" d="m88.8,119.66c-.46.54-1.14.81-2.03.81-.74,0-1.3-.21-1.69-.64s-.58-1.06-.59-1.91v-4.51h1.19v4.48c0,1.05.43,1.58,1.28,1.58.91,0,1.51-.34,1.81-1.01v-5.04h1.19v6.93h-1.13l-.03-.69Zm-.17-8.41c0,.37-.13.68-.4.93-.27.25-.59.38-.98.38s-.72-.13-.98-.38c-.26-.25-.39-.56-.39-.93s.13-.68.39-.94c.26-.26.59-.39.98-.39s.72.13.98.39c.26.26.39.57.39.94Zm-2.12,0c0,.2.07.37.21.52s.32.22.53.22.38-.07.53-.21c.15-.14.22-.32.22-.53s-.07-.39-.21-.54c-.14-.15-.32-.22-.53-.22s-.39.07-.53.22c-.14.15-.21.33-.21.53Z"/>
    <path class="cls-19" d="m99.04,118.51c0-.32-.12-.57-.36-.75-.24-.18-.66-.33-1.26-.46s-1.08-.28-1.43-.46-.61-.39-.78-.64c-.17-.25-.25-.54-.25-.88,0-.57.24-1.05.72-1.44s1.09-.59,1.84-.59c.79,0,1.42.2,1.91.61.49.41.73.93.73,1.56h-1.19c0-.32-.14-.6-.41-.84-.28-.24-.62-.35-1.04-.35s-.77.09-1.01.28c-.24.19-.37.43-.37.74,0,.29.11.5.34.65s.64.28,1.23.42c.59.13,1.07.29,1.44.47.37.18.64.41.82.66.18.26.27.57.27.95,0,.62-.25,1.12-.74,1.49-.5.37-1.14.56-1.93.56-.56,0-1.05-.1-1.47-.29-.43-.2-.76-.47-1-.82-.24-.35-.36-.73-.36-1.14h1.19c.02.4.18.71.48.95.3.23.69.35,1.18.35.45,0,.81-.09,1.08-.27.27-.18.41-.42.41-.73Z"/>
    <path class="cls-19" d="m104.65,120.48c-.94,0-1.71-.31-2.29-.93-.59-.62-.88-1.44-.88-2.48v-.22c0-.69.13-1.3.39-1.84.26-.54.63-.96,1.1-1.27s.98-.46,1.54-.46c.9,0,1.6.3,2.1.89.5.59.75,1.44.75,2.55v.49h-4.7c.02.68.22,1.24.6,1.66s.87.63,1.46.63c.42,0,.77-.09,1.06-.26.29-.17.54-.4.76-.68l.72.56c-.58.89-1.45,1.34-2.61,1.34Zm-.15-6.22c-.48,0-.88.17-1.21.52-.32.35-.53.84-.6,1.46h3.47v-.09c-.03-.6-.2-1.07-.49-1.4-.29-.33-.68-.5-1.18-.5Z"/>
    <path class="cls-19" d="m113.09,119.38h4.06v.97h-5.5v-.87l3.83-5.08h-3.77v-.98h5.25v.84l-3.86,5.13Z"/>
    <path class="cls-19" d="m122.76,120.35c-.07-.14-.12-.38-.17-.73-.55.57-1.21.86-1.97.86-.68,0-1.24-.19-1.68-.58-.44-.39-.66-.88-.66-1.47,0-.72.27-1.28.82-1.68s1.32-.6,2.32-.6h1.15v-.54c0-.41-.12-.74-.37-.99-.25-.25-.61-.37-1.1-.37-.42,0-.78.11-1.06.32s-.43.47-.43.78h-1.19c0-.35.12-.68.37-1s.58-.58,1-.77c.42-.19.88-.28,1.39-.28.8,0,1.42.2,1.88.6.45.4.69.95.7,1.65v3.19c0,.64.08,1.14.24,1.52v.1h-1.24Zm-1.97-.9c.37,0,.72-.1,1.06-.29.33-.19.57-.44.72-.75v-1.42h-.93c-1.45,0-2.18.43-2.18,1.28,0,.37.12.66.37.87.25.21.57.31.96.31Z"/>
    <path class="cls-19" d="m130.47,115.11h.89c.56,0,1-.16,1.32-.44.32-.29.48-.67.48-1.16,0-1.09-.54-1.64-1.63-1.64-.51,0-.92.15-1.23.44-.31.29-.46.68-.46,1.16h-1.19c0-.74.27-1.35.81-1.84.54-.49,1.23-.73,2.06-.73.88,0,1.57.23,2.07.7.5.47.75,1.11.75,1.94,0,.41-.13.8-.39,1.18-.26.38-.62.66-1.07.85.51.16.91.43,1.19.81s.42.84.42,1.38c0,.84-.27,1.5-.82,1.99-.55.49-1.26.74-2.13.74s-1.59-.24-2.14-.71c-.55-.47-.82-1.1-.82-1.88h1.19c0,.49.16.88.48,1.18.32.29.75.44,1.29.44.57,0,1.01-.15,1.31-.45s.46-.73.46-1.29-.17-.96-.5-1.25c-.33-.29-.81-.44-1.44-.45h-.89v-.97Z"/>
    <path class="cls-19" d="m141.97,116.37c0,1.39-.24,2.42-.71,3.1s-1.22,1.01-2.22,1.01-1.73-.33-2.21-.99c-.48-.66-.73-1.65-.74-2.96v-1.58c0-1.37.24-2.39.71-3.06.47-.67,1.22-1,2.23-1s1.74.32,2.22.96c.47.64.72,1.64.73,2.98v1.54Zm-1.19-1.62c0-1-.14-1.74-.42-2.2-.28-.46-.73-.69-1.34-.69s-1.05.23-1.33.69c-.28.46-.42,1.16-.43,2.11v1.9c0,1.01.15,1.75.44,2.23.29.48.74.72,1.33.72s1.02-.23,1.3-.68.43-1.17.45-2.14v-1.94Z"/>
    <path class="cls-19" d="m148.14,120.35h-1.19v-9.84h1.19v9.84Z"/>
    <path class="cls-19" d="m152.92,120.48c-.94,0-1.71-.31-2.29-.93-.59-.62-.88-1.44-.88-2.48v-.22c0-.69.13-1.3.39-1.84.26-.54.63-.96,1.1-1.27s.98-.46,1.54-.46c.9,0,1.6.3,2.1.89.5.59.75,1.44.75,2.55v.49h-4.7c.02.68.22,1.24.6,1.66s.87.63,1.46.63c.42,0,.77-.09,1.06-.26.29-.17.54-.4.76-.68l.72.56c-.58.89-1.45,1.34-2.61,1.34Zm-.15-6.22c-.48,0-.88.17-1.21.52-.32.35-.53.84-.6,1.46h3.47v-.09c-.03-.6-.2-1.07-.49-1.4-.29-.33-.68-.5-1.18-.5Z"/>
    <path class="cls-19" d="m158.6,111.74v1.68h1.29v.92h-1.29v4.31c0,.28.06.49.17.63s.31.21.59.21c.14,0,.32-.03.56-.08v.96c-.31.08-.62.13-.91.13-.53,0-.93-.16-1.2-.48-.27-.32-.4-.78-.4-1.36v-4.3h-1.26v-.92h1.26v-1.68h1.19Z"/>
    <path class="cls-19" d="m166.82,118.74l1.72-5.33h1.21l-2.49,6.93h-.9l-2.51-6.93h1.21l1.76,5.33Z"/>
    <path class="cls-19" d="m173.16,118.61l1.61-5.2h1.27l-2.79,8c-.43,1.15-1.12,1.73-2.06,1.73l-.22-.02-.44-.08v-.96l.32.03c.4,0,.71-.08.94-.24.22-.16.41-.46.55-.89l.26-.7-2.47-6.86h1.29l1.73,5.2Z"/>
    <path class="cls-19" d="m180.45,114.48c-.18-.03-.37-.04-.58-.04-.78,0-1.31.33-1.58.99v4.92h-1.19v-6.93h1.15l.02.8c.39-.62.94-.93,1.65-.93.23,0,.41.03.53.09v1.1Z"/>
    <path class="cls-19" d="m181.1,116.82c0-.68.13-1.29.4-1.83.27-.54.64-.96,1.11-1.26.48-.29,1.02-.44,1.63-.44.94,0,1.71.33,2.29.98.58.65.87,1.52.87,2.61v.08c0,.68-.13,1.28-.39,1.82-.26.54-.63.95-1.11,1.25-.48.3-1.03.45-1.66.45-.94,0-1.7-.33-2.28-.98-.58-.65-.88-1.52-.88-2.6v-.08Zm1.19.14c0,.77.18,1.39.53,1.85.36.47.83.7,1.43.7s1.08-.24,1.44-.71c.35-.47.53-1.13.53-1.98,0-.76-.18-1.38-.54-1.85-.36-.47-.84-.71-1.44-.71s-1.06.23-1.42.7c-.36.47-.54,1.13-.54,2Z"/>
    <path class="cls-19" d="m194.77,116.96c0,1.06-.24,1.91-.73,2.55-.49.64-1.14.96-1.96.96-.88,0-1.55-.31-2.03-.93l-.06.8h-1.09v-9.84h1.19v3.67c.48-.59,1.14-.89,1.98-.89s1.5.32,1.98.95c.48.64.72,1.51.72,2.61v.1Zm-1.19-.13c0-.81-.16-1.43-.47-1.87-.31-.44-.76-.66-1.35-.66-.78,0-1.34.36-1.69,1.09v3c.36.73.93,1.09,1.7,1.09.57,0,1.01-.22,1.33-.66.32-.44.47-1.1.47-1.99Z"/>
    <path class="cls-19" d="m197.56,110.51h1.44l-1.72,1.88h-.95s1.24-1.88,1.24-1.88Zm-.01,9.84h-1.19v-6.93h1.19v6.93Z"/>
    <path class="cls-7" d="m208.94,120.35h-6.51v-1.41l3-3.15c.74-.84,1.11-1.51,1.11-2.01,0-.4-.09-.71-.26-.92-.18-.21-.43-.31-.76-.31s-.6.14-.8.42-.31.63-.31,1.05h-2.17c0-.57.14-1.1.43-1.59.29-.48.68-.86,1.19-1.14.51-.27,1.08-.41,1.7-.41,1.01,0,1.78.23,2.33.7.54.47.82,1.13.82,2.01,0,.37-.07.73-.21,1.07-.14.35-.35.71-.64,1.1-.29.38-.75.89-1.39,1.53l-1.21,1.39h3.67v1.67Z"/>
    <path class="cls-7" d="m215.73,116.7h.95v1.67h-.95v1.98h-2.16v-1.98h-3.61l-.13-1.32,3.74-6.01v-.02h2.16v5.68Zm-3.84,0h1.68v-2.87l-.13.22-1.54,2.65Z"/>
    <path class="cls-7" d="m223.33,116.7h.95v1.67h-.95v1.98h-2.16v-1.98h-3.61l-.13-1.32,3.74-6.01v-.02h2.16v5.68Zm-3.84,0h1.68v-2.87l-.13.22-1.54,2.65Z"/>
    <path class="cls-7" d="m235.57,112.75h-2.8v7.59h-2.25v-7.59h-2.75v-1.74h7.8v1.74Z"/>
    <path class="cls-7" d="m243.84,116.87l1.07-5.85h2.23l-1.98,9.33h-2.33l-1.25-5.32-1.22,5.32h-2.33l-1.99-9.33h2.24l1.07,5.85,1.28-5.85h1.91l1.3,5.85Z"/>
    <path class="cls-7" d="m250.03,114.16c.46-.58,1.05-.87,1.77-.87.77,0,1.34.23,1.73.68.39.45.59,1.12.6,2.01v4.38h-2.17v-4.33c0-.37-.07-.64-.22-.81s-.4-.26-.76-.26c-.44,0-.76.14-.94.42v4.97h-2.16v-9.84h2.16v3.65Z"/>
  </g>
  <g>
    <path class="cls-19" d="m304.27,119.34h5.34v1.01h-6.79v-.92l5.11-7.4h-5.03v-1.01h6.5v.9l-5.13,7.43Z"/>
    <path class="cls-19" d="m314.86,120.35v-6.02h-1.1v-.92h1.1v-.71c0-.74.2-1.32.6-1.72.4-.41.96-.61,1.69-.61.27,0,.54.04.81.11l-.06.96c-.2-.04-.41-.06-.64-.06-.38,0-.68.11-.89.34-.21.23-.31.55-.31.97v.73h1.48v.92h-1.48v6.02h-1.19Z"/>
    <path class="cls-19" d="m318.51,116.82c0-.68.13-1.29.4-1.83.27-.54.64-.96,1.11-1.26.48-.29,1.02-.44,1.63-.44.94,0,1.71.33,2.29.98.58.65.87,1.52.87,2.61v.08c0,.68-.13,1.28-.39,1.82-.26.54-.63.95-1.11,1.25-.48.3-1.03.45-1.66.45-.94,0-1.7-.33-2.28-.98-.58-.65-.88-1.52-.88-2.6v-.08Zm1.19.14c0,.77.18,1.39.53,1.85.36.47.83.7,1.43.7s1.08-.24,1.44-.71c.35-.47.53-1.13.53-1.98,0-.76-.18-1.38-.54-1.85-.36-.47-.84-.71-1.44-.71s-1.06.23-1.42.7c-.36.47-.54,1.13-.54,2Z"/>
    <path class="cls-19" d="m330.35,118.51c0-.32-.12-.57-.36-.75-.24-.18-.66-.33-1.26-.46s-1.08-.28-1.43-.46-.61-.39-.78-.64c-.17-.25-.25-.54-.25-.88,0-.57.24-1.05.72-1.44s1.09-.59,1.84-.59c.79,0,1.42.2,1.91.61.49.41.73.93.73,1.56h-1.19c0-.32-.14-.6-.41-.84-.28-.24-.62-.35-1.04-.35s-.77.09-1.01.28c-.24.19-.37.43-.37.74,0,.29.11.5.34.65s.64.28,1.23.42c.59.13,1.07.29,1.44.47.37.18.64.41.82.66.18.26.27.57.27.95,0,.62-.25,1.12-.74,1.49-.5.37-1.14.56-1.93.56-.56,0-1.05-.1-1.47-.29-.43-.2-.76-.47-1-.82-.24-.35-.36-.73-.36-1.14h1.19c.02.4.18.71.48.95.3.23.69.35,1.18.35.45,0,.81-.09,1.08-.27.27-.18.41-.42.41-.73Z"/>
    <path class="cls-19" d="m333.11,119.73c0-.21.06-.38.18-.51s.3-.21.55-.21.43.07.55.21.19.31.19.51-.06.36-.19.49-.31.2-.55.2-.43-.07-.55-.2-.18-.3-.18-.49Z"/>
    <path class="cls-19" d="m340.9,119.38h4.06v.97h-5.5v-.87l3.83-5.08h-3.77v-.98h5.25v.84l-3.86,5.13Z"/>
    <path class="cls-19" d="m346,116.82c0-1.06.25-1.92.76-2.57.5-.65,1.16-.97,1.98-.97s1.45.28,1.93.83v-3.61h1.19v9.84h-1.09l-.06-.74c-.47.58-1.13.87-1.98.87s-1.46-.33-1.96-.99-.76-1.52-.76-2.58v-.09Zm1.19.13c0,.79.16,1.4.49,1.85s.77.67,1.35.67c.75,0,1.3-.34,1.65-1.01v-3.19c-.35-.65-.9-.98-1.63-.98-.58,0-1.03.22-1.36.67-.32.45-.49,1.11-.49,1.99Z"/>
    <path class="cls-19" d="m357.04,114.48c-.18-.03-.37-.04-.58-.04-.78,0-1.31.33-1.58.99v4.92h-1.19v-6.93h1.15l.02.8c.39-.62.94-.93,1.65-.93.23,0,.41.03.53.09v1.1Z"/>
    <path class="cls-19" d="m357.69,116.82c0-.68.13-1.29.4-1.83.27-.54.64-.96,1.11-1.26.48-.29,1.02-.44,1.63-.44.94,0,1.71.33,2.29.98.58.65.87,1.52.87,2.61v.08c0,.68-.13,1.28-.39,1.82-.26.54-.63.95-1.11,1.25-.48.3-1.03.45-1.66.45-.94,0-1.7-.33-2.28-.98-.58-.65-.88-1.52-.88-2.6v-.08Zm1.19.14c0,.77.18,1.39.53,1.85.36.47.83.7,1.43.7s1.08-.24,1.44-.71c.35-.47.53-1.13.53-1.98,0-.76-.18-1.38-.54-1.85-.36-.47-.84-.71-1.44-.71s-1.06.23-1.42.7c-.36.47-.54,1.13-.54,2Z"/>
    <path class="cls-19" d="m366.71,113.41v7.74c0,1.33-.6,2-1.81,2-.26,0-.5-.04-.72-.11v-.94c.14.03.32.05.54.05.27,0,.47-.07.61-.21.14-.14.21-.39.21-.75v-7.77h1.19Zm-1.31-1.84c0-.19.06-.35.18-.48.12-.13.29-.2.52-.2s.41.07.53.2c.12.13.18.29.18.49s-.06.35-.18.48c-.12.13-.29.19-.53.19s-.4-.06-.52-.19-.17-.29-.17-.48Z"/>
    <path class="cls-19" d="m372.9,119.66c-.46.54-1.14.81-2.03.81-.74,0-1.3-.21-1.69-.64s-.58-1.06-.59-1.91v-4.51h1.19v4.48c0,1.05.43,1.58,1.28,1.58.91,0,1.51-.34,1.81-1.01v-5.04h1.19v6.93h-1.13l-.03-.69Zm-.17-8.41c0,.37-.13.68-.4.93-.27.25-.59.38-.98.38s-.72-.13-.98-.38c-.26-.25-.39-.56-.39-.93s.13-.68.39-.94c.26-.26.59-.39.98-.39s.72.13.98.39c.26.26.39.57.39.94Zm-2.12,0c0,.2.07.37.21.52s.32.22.53.22.38-.07.53-.21c.15-.14.22-.32.22-.53s-.07-.39-.21-.54c-.14-.15-.32-.22-.53-.22s-.39.07-.53.22c-.14.15-.21.33-.21.53Z"/>
    <path class="cls-19" d="m383.15,118.51c0-.32-.12-.57-.36-.75-.24-.18-.66-.33-1.26-.46s-1.08-.28-1.43-.46-.61-.39-.78-.64c-.17-.25-.25-.54-.25-.88,0-.57.24-1.05.72-1.44s1.09-.59,1.84-.59c.79,0,1.42.2,1.91.61.49.41.73.93.73,1.56h-1.19c0-.32-.14-.6-.41-.84-.28-.24-.62-.35-1.04-.35s-.77.09-1.01.28c-.24.19-.37.43-.37.74,0,.29.11.5.34.65s.64.28,1.23.42c.59.13,1.07.29,1.44.47.37.18.64.41.82.66.18.26.27.57.27.95,0,.62-.25,1.12-.74,1.49-.5.37-1.14.56-1.93.56-.56,0-1.05-.1-1.47-.29-.43-.2-.76-.47-1-.82-.24-.35-.36-.73-.36-1.14h1.19c.02.4.18.71.48.95.3.23.69.35,1.18.35.45,0,.81-.09,1.08-.27.27-.18.41-.42.41-.73Z"/>
    <path class="cls-19" d="m388.75,120.48c-.94,0-1.71-.31-2.29-.93-.59-.62-.88-1.44-.88-2.48v-.22c0-.69.13-1.3.39-1.84.26-.54.63-.96,1.1-1.27s.98-.46,1.54-.46c.9,0,1.6.3,2.1.89.5.59.75,1.44.75,2.55v.49h-4.7c.02.68.22,1.24.6,1.66s.87.63,1.46.63c.42,0,.77-.09,1.06-.26.29-.17.54-.4.76-.68l.72.56c-.58.89-1.45,1.34-2.61,1.34Zm-.15-6.22c-.48,0-.88.17-1.21.52-.32.35-.53.84-.6,1.46h3.47v-.09c-.03-.6-.2-1.07-.49-1.4-.29-.33-.68-.5-1.18-.5Z"/>
    <path class="cls-19" d="m397.19,119.38h4.06v.97h-5.5v-.87l3.83-5.08h-3.77v-.98h5.25v.84l-3.86,5.13Z"/>
    <path class="cls-19" d="m406.86,120.35c-.07-.14-.12-.38-.17-.73-.55.57-1.21.86-1.97.86-.68,0-1.24-.19-1.68-.58-.44-.39-.66-.88-.66-1.47,0-.72.27-1.28.82-1.68s1.32-.6,2.32-.6h1.15v-.54c0-.41-.12-.74-.37-.99-.25-.25-.61-.37-1.1-.37-.42,0-.78.11-1.06.32s-.43.47-.43.78h-1.19c0-.35.12-.68.37-1s.58-.58,1-.77c.42-.19.88-.28,1.39-.28.8,0,1.42.2,1.88.6.45.4.69.95.7,1.65v3.19c0,.64.08,1.14.24,1.52v.1h-1.24Zm-1.97-.9c.37,0,.72-.1,1.06-.29.33-.19.57-.44.72-.75v-1.42h-.93c-1.45,0-2.18.43-2.18,1.28,0,.37.12.66.37.87.25.21.57.31.96.31Z"/>
    <path class="cls-19" d="m414.57,115.11h.89c.56,0,1-.16,1.32-.44.32-.29.48-.67.48-1.16,0-1.09-.54-1.64-1.63-1.64-.51,0-.92.15-1.23.44-.31.29-.46.68-.46,1.16h-1.19c0-.74.27-1.35.81-1.84.54-.49,1.23-.73,2.06-.73.88,0,1.57.23,2.07.7.5.47.75,1.11.75,1.94,0,.41-.13.8-.39,1.18-.26.38-.62.66-1.07.85.51.16.91.43,1.19.81s.42.84.42,1.38c0,.84-.27,1.5-.82,1.99-.55.49-1.26.74-2.13.74s-1.59-.24-2.14-.71c-.55-.47-.82-1.1-.82-1.88h1.19c0,.49.16.88.48,1.18.32.29.75.44,1.29.44.57,0,1.01-.15,1.31-.45s.46-.73.46-1.29-.17-.96-.5-1.25c-.33-.29-.81-.44-1.44-.45h-.89v-.97Z"/>
    <path class="cls-19" d="m426.07,116.37c0,1.39-.24,2.42-.71,3.1s-1.22,1.01-2.22,1.01-1.73-.33-2.21-.99c-.48-.66-.73-1.65-.74-2.96v-1.58c0-1.37.24-2.39.71-3.06.47-.67,1.22-1,2.23-1s1.74.32,2.22.96c.47.64.72,1.64.73,2.98v1.54Zm-1.19-1.62c0-1-.14-1.74-.42-2.2-.28-.46-.73-.69-1.34-.69s-1.05.23-1.33.69c-.28.46-.42,1.16-.43,2.11v1.9c0,1.01.15,1.75.44,2.23.29.48.74.72,1.33.72s1.02-.23,1.3-.68.43-1.17.45-2.14v-1.94Z"/>
    <path class="cls-19" d="m432.25,120.35h-1.19v-9.84h1.19v9.84Z"/>
    <path class="cls-19" d="m437.02,120.48c-.94,0-1.71-.31-2.29-.93-.59-.62-.88-1.44-.88-2.48v-.22c0-.69.13-1.3.39-1.84.26-.54.63-.96,1.1-1.27s.98-.46,1.54-.46c.9,0,1.6.3,2.1.89.5.59.75,1.44.75,2.55v.49h-4.7c.02.68.22,1.24.6,1.66s.87.63,1.46.63c.42,0,.77-.09,1.06-.26.29-.17.54-.4.76-.68l.72.56c-.58.89-1.45,1.34-2.61,1.34Zm-.15-6.22c-.48,0-.88.17-1.21.52-.32.35-.53.84-.6,1.46h3.47v-.09c-.03-.6-.2-1.07-.49-1.4-.29-.33-.68-.5-1.18-.5Z"/>
    <path class="cls-19" d="m442.71,111.74v1.68h1.29v.92h-1.29v4.31c0,.28.06.49.17.63s.31.21.59.21c.14,0,.32-.03.56-.08v.96c-.31.08-.62.13-.91.13-.53,0-.93-.16-1.2-.48-.27-.32-.4-.78-.4-1.36v-4.3h-1.26v-.92h1.26v-1.68h1.19Z"/>
    <path class="cls-19" d="m450.92,118.74l1.72-5.33h1.21l-2.49,6.93h-.9l-2.51-6.93h1.21l1.76,5.33Z"/>
    <path class="cls-19" d="m457.26,118.61l1.61-5.2h1.27l-2.79,8c-.43,1.15-1.12,1.73-2.06,1.73l-.22-.02-.44-.08v-.96l.32.03c.4,0,.71-.08.94-.24.22-.16.41-.46.55-.89l.26-.7-2.47-6.86h1.29l1.73,5.2Z"/>
    <path class="cls-19" d="m464.55,114.48c-.18-.03-.37-.04-.58-.04-.78,0-1.31.33-1.58.99v4.92h-1.19v-6.93h1.15l.02.8c.39-.62.94-.93,1.65-.93.23,0,.41.03.53.09v1.1Z"/>
    <path class="cls-19" d="m465.2,116.82c0-.68.13-1.29.4-1.83.27-.54.64-.96,1.11-1.26.48-.29,1.02-.44,1.63-.44.94,0,1.71.33,2.29.98.58.65.87,1.52.87,2.61v.08c0,.68-.13,1.28-.39,1.82-.26.54-.63.95-1.11,1.25-.48.3-1.03.45-1.66.45-.94,0-1.7-.33-2.28-.98-.58-.65-.88-1.52-.88-2.6v-.08Zm1.19.14c0,.77.18,1.39.53,1.85.36.47.83.7,1.43.7s1.08-.24,1.44-.71c.35-.47.53-1.13.53-1.98,0-.76-.18-1.38-.54-1.85-.36-.47-.84-.71-1.44-.71s-1.06.23-1.42.7c-.36.47-.54,1.13-.54,2Z"/>
    <path class="cls-19" d="m478.87,116.96c0,1.06-.24,1.91-.73,2.55-.49.64-1.14.96-1.96.96-.88,0-1.55-.31-2.03-.93l-.06.8h-1.09v-9.84h1.19v3.67c.48-.59,1.14-.89,1.98-.89s1.5.32,1.98.95c.48.64.72,1.51.72,2.61v.1Zm-1.19-.13c0-.81-.16-1.43-.47-1.87-.31-.44-.76-.66-1.35-.66-.78,0-1.34.36-1.69,1.09v3c.36.73.93,1.09,1.7,1.09.57,0,1.01-.22,1.33-.66.32-.44.47-1.1.47-1.99Z"/>
    <path class="cls-19" d="m481.66,110.51h1.44l-1.72,1.88h-.95s1.24-1.88,1.24-1.88Zm-.01,9.84h-1.19v-6.93h1.19v6.93Z"/>
    <path class="cls-7" d="m493.04,120.35h-6.51v-1.41l3-3.15c.74-.84,1.11-1.51,1.11-2.01,0-.4-.09-.71-.26-.92-.18-.21-.43-.31-.76-.31s-.6.14-.8.42-.31.63-.31,1.05h-2.17c0-.57.14-1.1.43-1.59.29-.48.68-.86,1.19-1.14.51-.27,1.08-.41,1.7-.41,1.01,0,1.78.23,2.33.7.54.47.82,1.13.82,2.01,0,.37-.07.73-.21,1.07-.14.35-.35.71-.64,1.1-.29.38-.75.89-1.39,1.53l-1.21,1.39h3.67v1.67Z"/>
    <path class="cls-7" d="m496.1,114.78h1.02c.81,0,1.21-.4,1.21-1.19,0-.31-.1-.56-.29-.75-.19-.19-.46-.29-.81-.29-.29,0-.54.08-.75.25-.21.17-.32.37-.32.62h-2.16c0-.49.14-.93.41-1.31s.65-.68,1.14-.9,1.02-.32,1.6-.32c1.04,0,1.85.24,2.45.71.59.47.89,1.13.89,1.95,0,.4-.12.78-.37,1.14-.25.36-.6.65-1.07.87.5.18.88.45,1.17.82.28.37.42.82.42,1.36,0,.83-.32,1.5-.96,2-.64.5-1.48.75-2.52.75-.61,0-1.18-.12-1.7-.35-.52-.23-.92-.56-1.19-.97-.27-.41-.4-.88-.4-1.41h2.17c0,.29.12.53.35.74.23.21.51.31.85.31.38,0,.68-.11.91-.32s.34-.48.34-.81c0-.47-.12-.8-.35-1-.23-.2-.56-.29-.97-.29h-1.05v-1.61Z"/>
    <path class="cls-7" d="m508.21,116.54c0,1.26-.28,2.23-.85,2.92-.57.68-1.36,1.03-2.39,1.03s-1.84-.34-2.41-1.03-.85-1.66-.85-2.91v-1.7c0-1.26.28-2.23.85-2.92.57-.68,1.37-1.03,2.4-1.03s1.83.34,2.4,1.03c.57.69.85,1.66.85,2.92v1.7Zm-2.16-1.98c0-.67-.09-1.17-.26-1.5s-.45-.5-.83-.5-.64.15-.81.46c-.17.31-.26.77-.27,1.4v2.38c0,.7.09,1.21.26,1.53.18.32.45.48.83.48s.64-.16.81-.47.26-.81.27-1.48v-2.31Z"/>
    <path class="cls-7" d="m519.67,112.75h-2.8v7.59h-2.25v-7.59h-2.75v-1.74h7.8v1.74Z"/>
    <path class="cls-7" d="m527.95,116.87l1.07-5.85h2.23l-1.98,9.33h-2.33l-1.25-5.32-1.22,5.32h-2.33l-1.99-9.33h2.24l1.07,5.85,1.28-5.85h1.91l1.3,5.85Z"/>
    <path class="cls-7" d="m534.14,114.16c.46-.58,1.05-.87,1.77-.87.77,0,1.34.23,1.73.68.39.45.59,1.12.6,2.01v4.38h-2.17v-4.33c0-.37-.07-.64-.22-.81s-.4-.26-.76-.26c-.44,0-.76.14-.94.42v4.97h-2.16v-9.84h2.16v3.65Z"/>
  </g>
  <g>
    <path class="cls-19" d="m582.84,119.34h5.34v1.01h-6.79v-.92l5.11-7.4h-5.03v-1.01h6.5v.9l-5.13,7.43Z"/>
    <path class="cls-19" d="m593.43,120.35v-6.02h-1.1v-.92h1.1v-.71c0-.74.2-1.32.6-1.72.4-.41.96-.61,1.69-.61.27,0,.54.04.81.11l-.06.96c-.2-.04-.41-.06-.64-.06-.38,0-.68.11-.89.34-.21.23-.31.55-.31.97v.73h1.48v.92h-1.48v6.02h-1.19Z"/>
    <path class="cls-19" d="m597.08,116.82c0-.68.13-1.29.4-1.83.27-.54.64-.96,1.11-1.26.48-.29,1.02-.44,1.63-.44.94,0,1.71.33,2.29.98.58.65.87,1.52.87,2.61v.08c0,.68-.13,1.28-.39,1.82-.26.54-.63.95-1.11,1.25-.48.3-1.03.45-1.66.45-.94,0-1.7-.33-2.28-.98-.58-.65-.88-1.52-.88-2.6v-.08Zm1.19.14c0,.77.18,1.39.53,1.85.36.47.83.7,1.43.7s1.08-.24,1.44-.71c.35-.47.53-1.13.53-1.98,0-.76-.18-1.38-.54-1.85-.36-.47-.84-.71-1.44-.71s-1.06.23-1.42.7c-.36.47-.54,1.13-.54,2Z"/>
    <path class="cls-19" d="m608.92,118.51c0-.32-.12-.57-.36-.75-.24-.18-.66-.33-1.26-.46s-1.08-.28-1.43-.46-.61-.39-.78-.64c-.17-.25-.25-.54-.25-.88,0-.57.24-1.05.72-1.44s1.09-.59,1.84-.59c.79,0,1.42.2,1.91.61.49.41.73.93.73,1.56h-1.19c0-.32-.14-.6-.41-.84-.28-.24-.62-.35-1.04-.35s-.77.09-1.01.28c-.24.19-.37.43-.37.74,0,.29.11.5.34.65s.64.28,1.23.42c.59.13,1.07.29,1.44.47.37.18.64.41.82.66.18.26.27.57.27.95,0,.62-.25,1.12-.74,1.49-.5.37-1.14.56-1.93.56-.56,0-1.05-.1-1.47-.29-.43-.2-.76-.47-1-.82-.24-.35-.36-.73-.36-1.14h1.19c.02.4.18.71.48.95.3.23.69.35,1.18.35.45,0,.81-.09,1.08-.27.27-.18.41-.42.41-.73Z"/>
    <path class="cls-19" d="m611.68,119.73c0-.21.06-.38.18-.51s.3-.21.55-.21.43.07.55.21.19.31.19.51-.06.36-.19.49-.31.2-.55.2-.43-.07-.55-.2-.18-.3-.18-.49Z"/>
    <path class="cls-19" d="m619.47,119.38h4.06v.97h-5.5v-.87l3.83-5.08h-3.77v-.98h5.25v.84l-3.86,5.13Z"/>
    <path class="cls-19" d="m624.57,116.82c0-1.06.25-1.92.76-2.57.5-.65,1.16-.97,1.98-.97s1.45.28,1.93.83v-3.61h1.19v9.84h-1.09l-.06-.74c-.47.58-1.13.87-1.98.87s-1.46-.33-1.96-.99-.76-1.52-.76-2.58v-.09Zm1.19.13c0,.79.16,1.4.49,1.85s.77.67,1.35.67c.75,0,1.3-.34,1.65-1.01v-3.19c-.35-.65-.9-.98-1.63-.98-.58,0-1.03.22-1.36.67-.32.45-.49,1.11-.49,1.99Z"/>
    <path class="cls-19" d="m635.61,114.48c-.18-.03-.37-.04-.58-.04-.78,0-1.31.33-1.58.99v4.92h-1.19v-6.93h1.15l.02.8c.39-.62.94-.93,1.65-.93.23,0,.41.03.53.09v1.1Z"/>
    <path class="cls-19" d="m636.26,116.82c0-.68.13-1.29.4-1.83.27-.54.64-.96,1.11-1.26.48-.29,1.02-.44,1.63-.44.94,0,1.71.33,2.29.98.58.65.87,1.52.87,2.61v.08c0,.68-.13,1.28-.39,1.82-.26.54-.63.95-1.11,1.25-.48.3-1.03.45-1.66.45-.94,0-1.7-.33-2.28-.98-.58-.65-.88-1.52-.88-2.6v-.08Zm1.19.14c0,.77.18,1.39.53,1.85.36.47.83.7,1.43.7s1.08-.24,1.44-.71c.35-.47.53-1.13.53-1.98,0-.76-.18-1.38-.54-1.85-.36-.47-.84-.71-1.44-.71s-1.06.23-1.42.7c-.36.47-.54,1.13-.54,2Z"/>
    <path class="cls-19" d="m645.28,113.41v7.74c0,1.33-.6,2-1.81,2-.26,0-.5-.04-.72-.11v-.94c.14.03.32.05.54.05.27,0,.47-.07.61-.21.14-.14.21-.39.21-.75v-7.77h1.19Zm-1.31-1.84c0-.19.06-.35.18-.48.12-.13.29-.2.52-.2s.41.07.53.2c.12.13.18.29.18.49s-.06.35-.18.48c-.12.13-.29.19-.53.19s-.4-.06-.52-.19-.17-.29-.17-.48Z"/>
    <path class="cls-19" d="m651.47,119.66c-.46.54-1.14.81-2.03.81-.74,0-1.3-.21-1.69-.64s-.58-1.06-.59-1.91v-4.51h1.19v4.48c0,1.05.43,1.58,1.28,1.58.91,0,1.51-.34,1.81-1.01v-5.04h1.19v6.93h-1.13l-.03-.69Zm-.17-8.41c0,.37-.13.68-.4.93-.27.25-.59.38-.98.38s-.72-.13-.98-.38c-.26-.25-.39-.56-.39-.93s.13-.68.39-.94c.26-.26.59-.39.98-.39s.72.13.98.39c.26.26.39.57.39.94Zm-2.12,0c0,.2.07.37.21.52s.32.22.53.22.38-.07.53-.21c.15-.14.22-.32.22-.53s-.07-.39-.21-.54c-.14-.15-.32-.22-.53-.22s-.39.07-.53.22c-.14.15-.21.33-.21.53Z"/>
    <path class="cls-19" d="m661.72,118.51c0-.32-.12-.57-.36-.75-.24-.18-.66-.33-1.26-.46s-1.08-.28-1.43-.46-.61-.39-.78-.64c-.17-.25-.25-.54-.25-.88,0-.57.24-1.05.72-1.44s1.09-.59,1.84-.59c.79,0,1.42.2,1.91.61.49.41.73.93.73,1.56h-1.19c0-.32-.14-.6-.41-.84-.28-.24-.62-.35-1.04-.35s-.77.09-1.01.28c-.24.19-.37.43-.37.74,0,.29.11.5.34.65s.64.28,1.23.42c.59.13,1.07.29,1.44.47.37.18.64.41.82.66.18.26.27.57.27.95,0,.62-.25,1.12-.74,1.49-.5.37-1.14.56-1.93.56-.56,0-1.05-.1-1.47-.29-.43-.2-.76-.47-1-.82-.24-.35-.36-.73-.36-1.14h1.19c.02.4.18.71.48.95.3.23.69.35,1.18.35.45,0,.81-.09,1.08-.27.27-.18.41-.42.41-.73Z"/>
    <path class="cls-19" d="m667.32,120.48c-.94,0-1.71-.31-2.29-.93-.59-.62-.88-1.44-.88-2.48v-.22c0-.69.13-1.3.39-1.84.26-.54.63-.96,1.1-1.27s.98-.46,1.54-.46c.9,0,1.6.3,2.1.89.5.59.75,1.44.75,2.55v.49h-4.7c.02.68.22,1.24.6,1.66s.87.63,1.46.63c.42,0,.77-.09,1.06-.26.29-.17.54-.4.76-.68l.72.56c-.58.89-1.45,1.34-2.61,1.34Zm-.15-6.22c-.48,0-.88.17-1.21.52-.32.35-.53.84-.6,1.46h3.47v-.09c-.03-.6-.2-1.07-.49-1.4-.29-.33-.68-.5-1.18-.5Z"/>
    <path class="cls-19" d="m675.76,119.38h4.06v.97h-5.5v-.87l3.83-5.08h-3.77v-.98h5.25v.84l-3.86,5.13Z"/>
    <path class="cls-19" d="m685.43,120.35c-.07-.14-.12-.38-.17-.73-.55.57-1.21.86-1.97.86-.68,0-1.24-.19-1.68-.58-.44-.39-.66-.88-.66-1.47,0-.72.27-1.28.82-1.68s1.32-.6,2.32-.6h1.15v-.54c0-.41-.12-.74-.37-.99-.25-.25-.61-.37-1.1-.37-.42,0-.78.11-1.06.32s-.43.47-.43.78h-1.19c0-.35.12-.68.37-1s.58-.58,1-.77c.42-.19.88-.28,1.39-.28.8,0,1.42.2,1.88.6.45.4.69.95.7,1.65v3.19c0,.64.08,1.14.24,1.52v.1h-1.24Zm-1.97-.9c.37,0,.72-.1,1.06-.29.33-.19.57-.44.72-.75v-1.42h-.93c-1.45,0-2.18.43-2.18,1.28,0,.37.12.66.37.87.25.21.57.31.96.31Z"/>
    <path class="cls-19" d="m693.14,115.11h.89c.56,0,1-.16,1.32-.44.32-.29.48-.67.48-1.16,0-1.09-.54-1.64-1.63-1.64-.51,0-.92.15-1.23.44-.31.29-.46.68-.46,1.16h-1.19c0-.74.27-1.35.81-1.84.54-.49,1.23-.73,2.06-.73.88,0,1.57.23,2.07.7.5.47.75,1.11.75,1.94,0,.41-.13.8-.39,1.18-.26.38-.62.66-1.07.85.51.16.91.43,1.19.81s.42.84.42,1.38c0,.84-.27,1.5-.82,1.99-.55.49-1.26.74-2.13.74s-1.59-.24-2.14-.71c-.55-.47-.82-1.1-.82-1.88h1.19c0,.49.16.88.48,1.18.32.29.75.44,1.29.44.57,0,1.01-.15,1.31-.45s.46-.73.46-1.29-.17-.96-.5-1.25c-.33-.29-.81-.44-1.44-.45h-.89v-.97Z"/>
    <path class="cls-19" d="m704.64,116.37c0,1.39-.24,2.42-.71,3.1s-1.22,1.01-2.22,1.01-1.73-.33-2.21-.99c-.48-.66-.73-1.65-.74-2.96v-1.58c0-1.37.24-2.39.71-3.06.47-.67,1.22-1,2.23-1s1.74.32,2.22.96c.47.64.72,1.64.73,2.98v1.54Zm-1.19-1.62c0-1-.14-1.74-.42-2.2-.28-.46-.73-.69-1.34-.69s-1.05.23-1.33.69c-.28.46-.42,1.16-.43,2.11v1.9c0,1.01.15,1.75.44,2.23.29.48.74.72,1.33.72s1.02-.23,1.3-.68.43-1.17.45-2.14v-1.94Z"/>
    <path class="cls-19" d="m710.82,120.35h-1.19v-9.84h1.19v9.84Z"/>
    <path class="cls-19" d="m715.59,120.48c-.94,0-1.71-.31-2.29-.93-.59-.62-.88-1.44-.88-2.48v-.22c0-.69.13-1.3.39-1.84.26-.54.63-.96,1.1-1.27s.98-.46,1.54-.46c.9,0,1.6.3,2.1.89.5.59.75,1.44.75,2.55v.49h-4.7c.02.68.22,1.24.6,1.66s.87.63,1.46.63c.42,0,.77-.09,1.06-.26.29-.17.54-.4.76-.68l.72.56c-.58.89-1.45,1.34-2.61,1.34Zm-.15-6.22c-.48,0-.88.17-1.21.52-.32.35-.53.84-.6,1.46h3.47v-.09c-.03-.6-.2-1.07-.49-1.4-.29-.33-.68-.5-1.18-.5Z"/>
    <path class="cls-19" d="m721.28,111.74v1.68h1.29v.92h-1.29v4.31c0,.28.06.49.17.63s.31.21.59.21c.14,0,.32-.03.56-.08v.96c-.31.08-.62.13-.91.13-.53,0-.93-.16-1.2-.48-.27-.32-.4-.78-.4-1.36v-4.3h-1.26v-.92h1.26v-1.68h1.19Z"/>
    <path class="cls-19" d="m729.49,118.74l1.72-5.33h1.21l-2.49,6.93h-.9l-2.51-6.93h1.21l1.76,5.33Z"/>
    <path class="cls-19" d="m735.83,118.61l1.61-5.2h1.27l-2.79,8c-.43,1.15-1.12,1.73-2.06,1.73l-.22-.02-.44-.08v-.96l.32.03c.4,0,.71-.08.94-.24.22-.16.41-.46.55-.89l.26-.7-2.47-6.86h1.29l1.73,5.2Z"/>
    <path class="cls-19" d="m743.12,114.48c-.18-.03-.37-.04-.58-.04-.78,0-1.31.33-1.58.99v4.92h-1.19v-6.93h1.15l.02.8c.39-.62.94-.93,1.65-.93.23,0,.41.03.53.09v1.1Z"/>
    <path class="cls-19" d="m743.77,116.82c0-.68.13-1.29.4-1.83.27-.54.64-.96,1.11-1.26.48-.29,1.02-.44,1.63-.44.94,0,1.71.33,2.29.98.58.65.87,1.52.87,2.61v.08c0,.68-.13,1.28-.39,1.82-.26.54-.63.95-1.11,1.25-.48.3-1.03.45-1.66.45-.94,0-1.7-.33-2.28-.98-.58-.65-.88-1.52-.88-2.6v-.08Zm1.19.14c0,.77.18,1.39.53,1.85.36.47.83.7,1.43.7s1.08-.24,1.44-.71c.35-.47.53-1.13.53-1.98,0-.76-.18-1.38-.54-1.85-.36-.47-.84-.71-1.44-.71s-1.06.23-1.42.7c-.36.47-.54,1.13-.54,2Z"/>
    <path class="cls-19" d="m757.44,116.96c0,1.06-.24,1.91-.73,2.55-.49.64-1.14.96-1.96.96-.88,0-1.55-.31-2.03-.93l-.06.8h-1.09v-9.84h1.19v3.67c.48-.59,1.14-.89,1.98-.89s1.5.32,1.98.95c.48.64.72,1.51.72,2.61v.1Zm-1.19-.13c0-.81-.16-1.43-.47-1.87-.31-.44-.76-.66-1.35-.66-.78,0-1.34.36-1.69,1.09v3c.36.73.93,1.09,1.7,1.09.57,0,1.01-.22,1.33-.66.32-.44.47-1.1.47-1.99Z"/>
    <path class="cls-19" d="m760.23,110.51h1.44l-1.72,1.88h-.95s1.24-1.88,1.24-1.88Zm-.01,9.84h-1.19v-6.93h1.19v6.93Z"/>
    <path class="cls-7" d="m767.07,114.78h1.02c.81,0,1.21-.4,1.21-1.19,0-.31-.1-.56-.29-.75-.19-.19-.46-.29-.81-.29-.29,0-.54.08-.75.25-.21.17-.32.37-.32.62h-2.16c0-.49.14-.93.41-1.31s.65-.68,1.14-.9,1.02-.32,1.6-.32c1.04,0,1.85.24,2.45.71.59.47.89,1.13.89,1.95,0,.4-.12.78-.37,1.14-.25.36-.6.65-1.07.87.5.18.88.45,1.17.82.28.37.42.82.42,1.36,0,.83-.32,1.5-.96,2-.64.5-1.48.75-2.52.75-.61,0-1.18-.12-1.7-.35-.52-.23-.92-.56-1.19-.97-.27-.41-.4-.88-.4-1.41h2.17c0,.29.12.53.35.74.23.21.51.31.85.31.38,0,.68-.11.91-.32s.34-.48.34-.81c0-.47-.12-.8-.35-1-.23-.2-.56-.29-.97-.29h-1.05v-1.61Z"/>
    <path class="cls-7" d="m776.95,116.74c-.47.42-.99.63-1.56.63-.85,0-1.52-.29-2.01-.86-.5-.57-.74-1.34-.74-2.29,0-.6.14-1.15.42-1.67s.67-.92,1.17-1.22,1.06-.45,1.66-.45,1.17.16,1.67.46c.5.31.89.75,1.16,1.31s.42,1.22.43,1.96v.83c0,1.03-.2,1.92-.61,2.68-.4.76-.98,1.34-1.73,1.74-.75.41-1.62.61-2.61.61h-.13v-1.73h.41c1.49-.08,2.31-.75,2.48-2.01Zm-.98-.93c.47,0,.81-.2,1.01-.61v-.9c0-.6-.1-1.04-.3-1.33-.2-.29-.47-.43-.81-.43-.3,0-.56.16-.76.49-.21.32-.31.72-.31,1.18,0,.49.1.87.31,1.16.21.29.5.43.86.43Z"/>
    <path class="cls-7" d="m786,116.7h.95v1.67h-.95v1.98h-2.16v-1.98h-3.61l-.13-1.32,3.74-6.01v-.02h2.16v5.68Zm-3.84,0h1.68v-2.87l-.13.22-1.54,2.65Z"/>
    <path class="cls-7" d="m798.24,112.75h-2.8v7.59h-2.25v-7.59h-2.75v-1.74h7.8v1.74Z"/>
    <path class="cls-7" d="m806.52,116.87l1.07-5.85h2.23l-1.98,9.33h-2.33l-1.25-5.32-1.22,5.32h-2.33l-1.99-9.33h2.24l1.07,5.85,1.28-5.85h1.91l1.3,5.85Z"/>
    <path class="cls-7" d="m812.71,114.16c.46-.58,1.05-.87,1.77-.87.77,0,1.34.23,1.73.68.39.45.59,1.12.6,2.01v4.38h-2.17v-4.33c0-.37-.07-.64-.22-.81s-.4-.26-.76-.26c-.44,0-.76.14-.94.42v4.97h-2.16v-9.84h2.16v3.65Z"/>
  </g>
  <g>
    <g>
      <line class="cls-4" x1="302.82" y1="126.01" x2="305.82" y2="126.01"/>
      <line class="cls-2" x1="311.82" y1="126.01" x2="536.82" y2="126.01"/>
      <line class="cls-4" x1="539.82" y1="126.01" x2="542.82" y2="126.01"/>
    </g>
    <g>
      <line class="cls-4" x1="302.82" y1="210.39" x2="305.82" y2="210.39"/>
      <line class="cls-2" x1="311.82" y1="210.39" x2="536.82" y2="210.39"/>
      <line class="cls-4" x1="539.82" y1="210.39" x2="542.82" y2="210.39"/>
    </g>
    <g>
      <line class="cls-4" x1="302.82" y1="168.2" x2="305.82" y2="168.2"/>
      <line class="cls-2" x1="311.82" y1="168.2" x2="536.82" y2="168.2"/>
      <line class="cls-4" x1="539.82" y1="168.2" x2="542.82" y2="168.2"/>
    </g>
    <g>
      <line class="cls-4" x1="302.82" y1="252.58" x2="305.82" y2="252.58"/>
      <line class="cls-2" x1="311.82" y1="252.58" x2="536.82" y2="252.58"/>
      <line class="cls-4" x1="539.82" y1="252.58" x2="542.82" y2="252.58"/>
    </g>
    <g>
      <line class="cls-4" x1="302.82" y1="294.76" x2="305.82" y2="294.76"/>
      <line class="cls-2" x1="311.82" y1="294.76" x2="536.82" y2="294.76"/>
      <line class="cls-4" x1="539.82" y1="294.76" x2="542.82" y2="294.76"/>
    </g>
  </g>
  <g>
    <g>
      <line class="cls-4" x1="581.39" y1="126.01" x2="584.39" y2="126.01"/>
      <line class="cls-2" x1="590.39" y1="126.01" x2="815.39" y2="126.01"/>
      <line class="cls-4" x1="818.39" y1="126.01" x2="821.39" y2="126.01"/>
    </g>
    <g>
      <line class="cls-4" x1="581.39" y1="210.39" x2="584.39" y2="210.39"/>
      <line class="cls-2" x1="590.39" y1="210.39" x2="815.39" y2="210.39"/>
      <line class="cls-4" x1="818.39" y1="210.39" x2="821.39" y2="210.39"/>
    </g>
    <g>
      <line class="cls-4" x1="581.39" y1="168.2" x2="584.39" y2="168.2"/>
      <line class="cls-2" x1="590.39" y1="168.2" x2="815.39" y2="168.2"/>
      <line class="cls-4" x1="818.39" y1="168.2" x2="821.39" y2="168.2"/>
    </g>
    <g>
      <line class="cls-4" x1="581.39" y1="252.58" x2="584.39" y2="252.58"/>
      <line class="cls-2" x1="590.39" y1="252.58" x2="815.39" y2="252.58"/>
      <line class="cls-4" x1="818.39" y1="252.58" x2="821.39" y2="252.58"/>
    </g>
    <g>
      <line class="cls-4" x1="581.39" y1="294.76" x2="584.39" y2="294.76"/>
      <line class="cls-2" x1="590.39" y1="294.76" x2="815.39" y2="294.76"/>
      <line class="cls-4" x1="818.39" y1="294.76" x2="821.39" y2="294.76"/>
    </g>
  </g>
  <g>
    <g>
      <line class="cls-4" x1="18.16" y1="126.01" x2="21.16" y2="126.01"/>
      <line class="cls-2" x1="27.16" y1="126.01" x2="252.16" y2="126.01"/>
      <line class="cls-4" x1="255.16" y1="126.01" x2="258.16" y2="126.01"/>
    </g>
    <g>
      <line class="cls-4" x1="18.16" y1="210.39" x2="21.16" y2="210.39"/>
      <line class="cls-2" x1="27.16" y1="210.39" x2="252.16" y2="210.39"/>
      <line class="cls-4" x1="255.16" y1="210.39" x2="258.16" y2="210.39"/>
    </g>
    <g>
      <line class="cls-4" x1="18.16" y1="168.2" x2="21.16" y2="168.2"/>
      <line class="cls-2" x1="27.16" y1="168.2" x2="252.16" y2="168.2"/>
      <line class="cls-4" x1="255.16" y1="168.2" x2="258.16" y2="168.2"/>
    </g>
    <g>
      <line class="cls-4" x1="18.16" y1="252.58" x2="21.16" y2="252.58"/>
      <line class="cls-2" x1="27.16" y1="252.58" x2="252.16" y2="252.58"/>
      <line class="cls-4" x1="255.16" y1="252.58" x2="258.16" y2="252.58"/>
    </g>
    <g>
      <line class="cls-4" x1="18.16" y1="294.76" x2="21.16" y2="294.76"/>
      <line class="cls-2" x1="27.16" y1="294.76" x2="252.16" y2="294.76"/>
      <line class="cls-4" x1="255.16" y1="294.76" x2="258.16" y2="294.76"/>
    </g>
  </g>
  <rect class="cls-6" x="581.39" y="126.02" width="240" height="168.75"/>
  <rect class="cls-6" x="18.01" y="126.02" width="240" height="168.75"/>
  <rect class="cls-6" x="302.82" y="126.02" width="240" height="168.75"/>
  <polyline class="cls-3" points="13.44 126.32 8.76 126.32 8.76 163.82"/>
  <polyline class="cls-3" points="13.44 294.81 8.76 294.81 8.76 257.31"/>
</svg>