<?xml version="1.0" encoding="UTF-8"?>
<svg id="Layer_1" data-name="Layer 1" xmlns="http://www.w3.org/2000/svg" xmlns:xlink="http://www.w3.org/1999/xlink" viewBox="0 0 600 135.99">
  <defs>
    <style>
      .cls-1, .cls-2 {
        fill: none;
      }

      .cls-3 {
        clip-path: url(#clippath);
      }

      .cls-4 {
        fill: #f9d2a9;
      }

      .cls-5 {
        fill: #ed4c67;
      }

      .cls-6 {
        fill: #f5c593;
      }

      .cls-7 {
        fill: #fff;
      }

      .cls-8 {
        fill: #35baae;
      }

      .cls-9 {
        fill: #8395a7;
      }

      .cls-10 {
        fill: #606060;
      }

      .cls-11 {
        fill: url(#New_Pattern);
        opacity: .6;
      }

      .cls-12 {
        clip-path: url(#clippath-1);
      }

      .cls-2 {
        stroke: #fff;
        stroke-miterlimit: 10;
      }

      .cls-13 {
        opacity: .7;
      }
    </style>
    <clipPath id="clippath">
      <rect class="cls-1" x="0" y="0" width="44" height="44"/>
    </clipPath>
    <clipPath id="clippath-1">
      <rect class="cls-1" x="0" y="-42" width="44" height="44"/>
    </clipPath>
    <pattern id="New_Pattern" data-name="New Pattern" x="0" y="0" width="44" height="42" patternTransform="translate(169.28 532.94)" patternUnits="userSpaceOnUse" viewBox="0 0 44 42">
      <g>
        <rect class="cls-1" x="0" width="44" height="42"/>
        <g class="cls-3">
          <g>
            <line class="cls-2" x1="165.47" y1="-1.19" x2="144.55" y2="52.04"/>
            <line class="cls-2" x1="159.97" y1="-1.19" x2="139.05" y2="52.04"/>
            <line class="cls-2" x1="154.47" y1="-1.19" x2="133.55" y2="52.04"/>
            <line class="cls-2" x1="148.97" y1="-1.19" x2="128.05" y2="52.04"/>
            <line class="cls-2" x1="143.47" y1="-1.19" x2="122.55" y2="52.04"/>
            <line class="cls-2" x1="137.97" y1="-1.19" x2="117.05" y2="52.04"/>
            <line class="cls-2" x1="132.47" y1="-1.19" x2="111.55" y2="52.04"/>
            <line class="cls-2" x1="126.97" y1="-1.19" x2="106.05" y2="52.04"/>
            <line class="cls-2" x1="121.47" y1="-1.19" x2="100.55" y2="52.04"/>
            <line class="cls-2" x1="115.97" y1="-1.19" x2="95.05" y2="52.04"/>
            <line class="cls-2" x1="110.47" y1="-1.19" x2="89.55" y2="52.04"/>
            <line class="cls-2" x1="104.97" y1="-1.19" x2="84.05" y2="52.04"/>
            <line class="cls-2" x1="99.47" y1="-1.19" x2="78.55" y2="52.04"/>
            <line class="cls-2" x1="93.97" y1="-1.19" x2="73.05" y2="52.04"/>
            <line class="cls-2" x1="88.47" y1="-1.19" x2="67.55" y2="52.04"/>
            <line class="cls-2" x1="82.97" y1="-1.19" x2="62.05" y2="52.04"/>
            <line class="cls-2" x1="77.47" y1="-1.19" x2="56.55" y2="52.04"/>
            <line class="cls-2" x1="71.97" y1="-1.19" x2="51.05" y2="52.04"/>
            <line class="cls-2" x1="66.47" y1="-1.19" x2="45.55" y2="52.04"/>
            <line class="cls-2" x1="60.97" y1="-1.19" x2="40.05" y2="52.04"/>
            <line class="cls-2" x1="55.47" y1="-1.19" x2="34.55" y2="52.04"/>
            <line class="cls-2" x1="49.97" y1="-1.19" x2="29.05" y2="52.04"/>
            <line class="cls-2" x1="44.47" y1="-1.19" x2="23.55" y2="52.04"/>
            <line class="cls-2" x1="38.97" y1="-1.19" x2="18.05" y2="52.04"/>
            <line class="cls-2" x1="33.47" y1="-1.19" x2="12.55" y2="52.04"/>
            <line class="cls-2" x1="27.97" y1="-1.19" x2="7.05" y2="52.04"/>
            <line class="cls-2" x1="22.47" y1="-1.19" x2="1.55" y2="52.04"/>
            <line class="cls-2" x1="16.97" y1="-1.19" x2="-3.95" y2="52.04"/>
            <line class="cls-2" x1="11.47" y1="-1.19" x2="-9.45" y2="52.04"/>
            <line class="cls-2" x1="5.97" y1="-1.19" x2="-14.95" y2="52.04"/>
            <line class="cls-2" x1=".47" y1="-1.19" x2="-20.45" y2="52.04"/>
          </g>
        </g>
        <g class="cls-12">
          <g>
            <line class="cls-2" x1="60.97" y1="-43.18" x2="40.05" y2="10.04"/>
            <line class="cls-2" x1="55.47" y1="-43.18" x2="34.55" y2="10.04"/>
            <line class="cls-2" x1="49.97" y1="-43.18" x2="29.05" y2="10.04"/>
            <line class="cls-2" x1="44.47" y1="-43.18" x2="23.55" y2="10.04"/>
            <line class="cls-2" x1="38.97" y1="-43.18" x2="18.05" y2="10.04"/>
            <line class="cls-2" x1="33.47" y1="-43.18" x2="12.55" y2="10.04"/>
            <line class="cls-2" x1="27.97" y1="-43.18" x2="7.05" y2="10.04"/>
            <line class="cls-2" x1="22.47" y1="-43.18" x2="1.55" y2="10.04"/>
            <line class="cls-2" x1="16.97" y1="-43.18" x2="-3.95" y2="10.04"/>
            <line class="cls-2" x1="11.47" y1="-43.18" x2="-9.45" y2="10.04"/>
            <line class="cls-2" x1="5.97" y1="-43.18" x2="-14.95" y2="10.04"/>
            <line class="cls-2" x1=".47" y1="-43.18" x2="-20.45" y2="10.04"/>
          </g>
        </g>
      </g>
    </pattern>
  </defs>
  <g class="cls-13">
    <g>
      <path class="cls-9" d="M12.31,59.09H6.09v-1.06l3.08-3.36c.44-.5,.76-.91,.95-1.24,.19-.33,.28-.67,.28-1,0-.44-.12-.8-.37-1.07-.25-.27-.58-.41-1-.41-.5,0-.89,.15-1.16,.46s-.41,.72-.41,1.25h-1.54c0-.56,.13-1.07,.38-1.52,.26-.45,.62-.8,1.1-1.05,.48-.25,1.03-.37,1.65-.37,.9,0,1.6,.23,2.12,.68,.52,.45,.78,1.07,.78,1.87,0,.46-.13,.94-.39,1.45-.26,.51-.69,1.08-1.28,1.72l-2.26,2.42h4.29v1.23Z"/>
      <path class="cls-9" d="M19.3,52.28c0,.45-.12,.86-.35,1.21-.23,.35-.55,.63-.95,.83,.48,.22,.85,.53,1.11,.92,.26,.39,.39,.83,.39,1.32,0,.81-.27,1.46-.83,1.93-.55,.48-1.28,.71-2.2,.71s-1.65-.24-2.21-.72c-.55-.48-.83-1.12-.83-1.93,0-.5,.13-.94,.39-1.33s.63-.7,1.1-.91c-.4-.2-.71-.48-.94-.83-.23-.35-.35-.76-.35-1.21,0-.79,.25-1.41,.76-1.87s1.19-.69,2.06-.69,1.56,.23,2.06,.69,.76,1.09,.76,1.87Zm-1.34,4.21c0-.46-.14-.83-.41-1.11-.27-.28-.63-.42-1.08-.42s-.81,.14-1.08,.42c-.27,.28-.4,.65-.4,1.11s.13,.81,.4,1.09c.26,.27,.63,.41,1.09,.41s.83-.13,1.09-.39c.26-.26,.39-.63,.39-1.1Zm-.2-4.15c0-.4-.12-.73-.35-.99-.23-.26-.55-.39-.94-.39s-.7,.12-.93,.37c-.23,.25-.34,.58-.34,1.01s.12,.76,.35,1.01c.23,.25,.54,.37,.94,.37s.71-.12,.94-.37c.23-.25,.35-.59,.35-1.01Z"/>
      <path class="cls-9" d="M30.65,51.14h-2.88v7.95h-1.59v-7.95h-2.86v-1.29h7.33v1.29Z"/>
      <path class="cls-9" d="M39.21,56.8l1.42-6.96h1.59l-2.13,9.24h-1.54l-1.76-6.75-1.8,6.75h-1.54l-2.13-9.24h1.59l1.43,6.94,1.76-6.94h1.35l1.75,6.96Z"/>
      <path class="cls-9" d="M44.77,52.97c.5-.58,1.14-.88,1.91-.88,1.46,0,2.21,.84,2.23,2.51v4.49h-1.54v-4.43c0-.47-.1-.81-.31-1.01-.21-.2-.51-.3-.9-.3-.62,0-1.08,.27-1.38,.83v4.91h-1.54v-9.75h1.54v3.63Z"/>
      <path class="cls-9" d="M54.14,59.88h-1.21l3.64-10.04h1.21l-3.64,10.04Z"/>
    </g>
  </g>
  <g class="cls-13">
    <path class="cls-8" d="M215.07,53.76h.94c.47,0,.85-.13,1.13-.37,.28-.24,.42-.59,.42-1.05s-.12-.78-.35-1.03c-.23-.24-.58-.36-1.06-.36-.41,0-.76,.12-1.02,.36-.27,.24-.4,.55-.4,.94h-1.54c0-.47,.13-.91,.38-1.29,.25-.39,.6-.69,1.05-.91,.45-.22,.96-.33,1.51-.33,.92,0,1.65,.23,2.17,.7,.53,.46,.79,1.11,.79,1.93,0,.41-.13,.81-.4,1.17-.26,.37-.61,.64-1.03,.83,.51,.17,.89,.45,1.16,.82,.26,.37,.4,.82,.4,1.33,0,.83-.28,1.49-.85,1.98-.57,.49-1.32,.74-2.24,.74s-1.62-.24-2.18-.71-.85-1.1-.85-1.89h1.54c0,.41,.14,.74,.41,.99,.27,.25,.64,.38,1.1,.38s.85-.13,1.13-.38,.41-.62,.41-1.1-.14-.86-.43-1.12-.72-.39-1.28-.39h-.91v-1.22Z"/>
  </g>
  <g>
    <path class="cls-9" d="M10.65,31.92h2.2v7.38c0,.68-.15,1.28-.45,1.8-.3,.52-.72,.92-1.27,1.21s-1.16,.42-1.85,.42c-1.13,0-2.01-.29-2.64-.86s-.94-1.39-.94-2.44h2.21c0,.52,.11,.91,.33,1.16s.57,.37,1.04,.37c.42,0,.75-.14,1-.43s.37-.7,.37-1.23v-7.38Z"/>
    <path class="cls-9" d="M19.19,42.58c-.1-.19-.17-.43-.21-.71-.51,.57-1.18,.86-2,.86-.78,0-1.42-.22-1.93-.67-.51-.45-.77-1.02-.77-1.7,0-.84,.31-1.48,.93-1.93,.62-.45,1.52-.68,2.7-.68h.97v-.45c0-.37-.09-.66-.28-.88-.19-.22-.48-.33-.89-.33-.36,0-.64,.09-.84,.26-.2,.17-.3,.41-.3,.7h-2.12c0-.46,.14-.88,.42-1.27s.68-.7,1.2-.92c.52-.22,1.1-.33,1.74-.33,.98,0,1.75,.25,2.33,.74,.57,.49,.86,1.18,.86,2.07v3.44c0,.75,.11,1.32,.31,1.71v.12h-2.14Zm-1.75-1.47c.31,0,.6-.07,.86-.21,.26-.14,.46-.33,.59-.56v-1.36h-.79c-1.06,0-1.62,.37-1.69,1.1v.12c0,.26,.09,.48,.27,.65s.44,.26,.76,.26Zm.81-9.78h2.31l-2.03,2.27h-1.72l1.44-2.27Z"/>
    <path class="cls-9" d="M22.31,38.56c0-1.24,.28-2.22,.83-2.95s1.31-1.1,2.27-1.1c.77,0,1.41,.29,1.91,.86v-4.04h2.12v11.25h-1.91l-.1-.84c-.53,.66-1.21,.99-2.04,.99-.93,0-1.68-.37-2.25-1.1-.56-.73-.85-1.76-.85-3.06Zm2.12,.16c0,.74,.13,1.31,.39,1.71,.26,.4,.63,.59,1.13,.59,.65,0,1.12-.28,1.38-.83v-3.13c-.26-.55-.72-.83-1.37-.83-1.02,0-1.53,.83-1.53,2.49Z"/>
    <path class="cls-9" d="M35.54,36.64c-.29-.04-.54-.06-.76-.06-.8,0-1.33,.27-1.57,.81v5.19h-2.12v-7.92h2l.06,.94c.42-.73,1.01-1.09,1.77-1.09,.23,0,.45,.03,.66,.1l-.03,2.04Z"/>
    <path class="cls-9" d="M35.97,38.54c0-.79,.15-1.49,.45-2.1s.74-1.09,1.31-1.43c.57-.34,1.23-.51,1.98-.51,1.07,0,1.94,.33,2.62,.98,.68,.65,1.05,1.54,1.13,2.67v.54c.01,1.22-.32,2.19-1,2.93-.68,.74-1.59,1.1-2.73,1.1s-2.05-.37-2.74-1.1c-.68-.73-1.02-1.73-1.02-2.99v-.1Zm2.12,.15c0,.75,.14,1.33,.42,1.73s.69,.6,1.22,.6,.91-.2,1.2-.59c.29-.39,.43-1.02,.43-1.89,0-.74-.14-1.31-.43-1.72s-.69-.61-1.22-.61-.92,.2-1.2,.6c-.28,.4-.42,1.03-.42,1.87Z"/>
  </g>
  <g>
    <path class="cls-8" d="M180.54,25.78c0-.42-.15-.73-.44-.96-.29-.22-.82-.46-1.58-.7-.76-.25-1.36-.49-1.81-.73-1.21-.65-1.82-1.54-1.82-2.64,0-.58,.16-1.09,.49-1.54,.32-.45,.79-.8,1.4-1.06,.61-.25,1.29-.38,2.05-.38s1.44,.14,2.04,.41,1.06,.67,1.39,1.17c.33,.5,.49,1.07,.49,1.71h-2.2c0-.49-.15-.87-.46-1.14-.31-.27-.74-.41-1.3-.41s-.95,.11-1.25,.34c-.3,.23-.45,.53-.45,.9,0,.35,.17,.64,.52,.87s.86,.45,1.54,.66c1.25,.38,2.16,.84,2.73,1.4s.86,1.25,.86,2.08c0,.92-.35,1.65-1.05,2.17s-1.64,.79-2.82,.79c-.82,0-1.57-.15-2.24-.45-.67-.3-1.19-.71-1.54-1.23s-.53-1.13-.53-1.82h2.2c0,1.18,.7,1.77,2.11,1.77,.52,0,.93-.11,1.22-.32,.29-.21,.44-.51,.44-.89Z"/>
    <path class="cls-8" d="M186.33,28.58h-2.12v-11.25h2.12v11.25Z"/>
    <path class="cls-8" d="M192.82,27.77c-.52,.63-1.25,.95-2.17,.95-.85,0-1.5-.24-1.94-.73-.45-.49-.67-1.2-.68-2.15v-5.19h2.12v5.13c0,.83,.38,1.24,1.13,1.24s1.21-.25,1.48-.75v-5.62h2.12v7.92h-1.99l-.06-.81Z"/>
    <path class="cls-8" d="M198.41,20.65l.07,.92c.57-.71,1.33-1.06,2.28-1.06,.84,0,1.46,.25,1.88,.74s.62,1.23,.63,2.21v5.12h-2.12v-5.07c0-.45-.1-.77-.29-.98s-.52-.3-.97-.3c-.6,0-1.04,.25-1.34,.76v5.59h-2.12v-7.92h1.99Z"/>
    <path class="cls-8" d="M208.16,27.02c.39,0,.71-.11,.95-.32s.37-.5,.38-.86h1.98c0,.54-.15,1.03-.44,1.48-.29,.45-.68,.79-1.18,1.04-.5,.25-1.05,.37-1.66,.37-1.13,0-2.03-.36-2.68-1.08s-.98-1.72-.98-2.98v-.14c0-1.22,.32-2.19,.97-2.92s1.54-1.09,2.67-1.09c.99,0,1.79,.28,2.38,.85,.6,.56,.9,1.31,.91,2.25h-1.98c0-.41-.14-.75-.38-1s-.57-.39-.97-.39c-.49,0-.87,.18-1.12,.54-.25,.36-.38,.94-.38,1.75v.22c0,.82,.12,1.4,.37,1.76,.25,.36,.63,.54,1.14,.54Z"/>
    <path class="cls-8" d="M216.34,28.73c-1.16,0-2.11-.36-2.84-1.07s-1.09-1.66-1.09-2.85v-.21c0-.8,.15-1.51,.46-2.14,.31-.63,.74-1.11,1.31-1.45,.56-.34,1.21-.51,1.93-.51,1.08,0,1.94,.34,2.56,1.03,.62,.68,.93,1.65,.93,2.91v.86h-5.05c.07,.52,.27,.93,.62,1.25,.34,.31,.78,.47,1.31,.47,.82,0,1.45-.3,1.91-.89l1.04,1.16c-.32,.45-.75,.8-1.29,1.05-.54,.25-1.14,.38-1.8,.38Zm-.24-6.51c-.42,0-.76,.14-1.02,.43-.26,.28-.43,.69-.5,1.22h2.94v-.17c0-.47-.14-.83-.38-1.09s-.59-.39-1.04-.39Z"/>
    <path class="cls-8" d="M191.38,42.58c-.1-.19-.17-.43-.21-.71-.51,.57-1.18,.86-2,.86-.78,0-1.42-.22-1.93-.67-.51-.45-.77-1.02-.77-1.7,0-.84,.31-1.48,.93-1.93,.62-.45,1.52-.68,2.7-.68h.97v-.45c0-.37-.09-.66-.28-.88-.19-.22-.48-.33-.89-.33-.36,0-.64,.09-.84,.26-.2,.17-.3,.41-.3,.7h-2.12c0-.46,.14-.88,.42-1.27s.68-.7,1.2-.92c.52-.22,1.1-.33,1.74-.33,.98,0,1.75,.25,2.33,.74,.57,.49,.86,1.18,.86,2.07v3.44c0,.75,.11,1.32,.31,1.71v.12h-2.14Zm-1.75-1.47c.31,0,.6-.07,.86-.21,.26-.14,.46-.33,.59-.56v-1.36h-.79c-1.06,0-1.62,.37-1.69,1.1v.12c0,.26,.09,.48,.27,.65s.44,.26,.76,.26Z"/>
    <path class="cls-8" d="M201.53,39.99l1.47-5.34h2.21l-2.67,7.92h-2.02l-2.67-7.92h2.21l1.47,5.34Z"/>
    <path class="cls-8" d="M208.43,42.58h-2.12v-7.92h2.12v7.92Zm-.62-11.14h2.31l-2.03,2.27h-1.72l1.44-2.27Z"/>
    <path class="cls-8" d="M212.79,32.71v1.95h1.35v1.55h-1.35v3.96c0,.29,.06,.5,.17,.63s.33,.19,.64,.19c.23,0,.44-.02,.62-.05v1.6c-.42,.13-.84,.19-1.28,.19-1.48,0-2.24-.75-2.27-2.25v-4.27h-1.16v-1.55h1.16v-1.95h2.12Z"/>
    <path class="cls-8" d="M219.78,36.64c-.29-.04-.54-.06-.76-.06-.8,0-1.33,.27-1.57,.81v5.19h-2.12v-7.92h2l.06,.94c.42-.73,1.01-1.09,1.77-1.09,.23,0,.45,.03,.66,.1l-.03,2.04Z"/>
  </g>
  <g>
    <path class="cls-6" d="M235.05,24.22h-4.22v4.36h-2.2v-10.66h6.94v1.78h-4.75v2.75h4.22v1.77Z"/>
    <path class="cls-6" d="M238.95,28.58h-2.12v-11.25h2.12v11.25Z"/>
    <path class="cls-6" d="M244.34,28.73c-1.16,0-2.11-.36-2.84-1.07s-1.09-1.66-1.09-2.85v-.21c0-.8,.15-1.51,.46-2.14,.31-.63,.74-1.11,1.31-1.45,.56-.34,1.21-.51,1.93-.51,1.08,0,1.94,.34,2.56,1.03,.62,.68,.93,1.65,.93,2.91v.86h-5.05c.07,.52,.27,.93,.62,1.25,.34,.31,.78,.47,1.31,.47,.82,0,1.45-.3,1.91-.89l1.04,1.16c-.32,.45-.75,.8-1.29,1.05-.54,.25-1.14,.38-1.8,.38Zm-.24-6.51c-.42,0-.76,.14-1.02,.43-.26,.28-.43,.69-.5,1.22h2.94v-.17c0-.47-.14-.83-.38-1.09s-.59-.39-1.04-.39Z"/>
    <path class="cls-6" d="M251.82,23.02l1.33-2.37h2.26l-2.26,3.88,2.35,4.04h-2.27l-1.41-2.49-1.41,2.49h-2.28l2.35-4.04-2.25-3.88h2.27l1.3,2.37Z"/>
    <path class="cls-6" d="M256.42,18.6c0-.32,.11-.58,.32-.78,.21-.21,.5-.31,.87-.31s.65,.1,.86,.31,.32,.47,.32,.78-.11,.59-.33,.79c-.22,.21-.5,.31-.86,.31s-.64-.1-.86-.31-.33-.47-.33-.79Zm2.25,9.98h-2.12v-7.92h2.12v7.92Z"/>
    <path class="cls-6" d="M267.55,24.69c0,1.27-.27,2.26-.81,2.97-.54,.71-1.3,1.07-2.27,1.07-.86,0-1.55-.33-2.06-.99l-.1,.84h-1.9v-11.25h2.12v4.04c.49-.57,1.13-.86,1.93-.86,.97,0,1.73,.36,2.27,1.07,.55,.71,.82,1.71,.82,3v.12Zm-2.12-.15c0-.8-.13-1.39-.38-1.75s-.63-.55-1.14-.55c-.67,0-1.14,.28-1.39,.83v3.13c.26,.56,.73,.83,1.41,.83s1.13-.34,1.35-1.01c.1-.32,.15-.81,.15-1.47Z"/>
    <path class="cls-6" d="M268.84,18.6c0-.32,.11-.58,.32-.78,.21-.21,.5-.31,.87-.31s.65,.1,.86,.31,.32,.47,.32,.78-.11,.59-.33,.79c-.22,.21-.5,.31-.86,.31s-.64-.1-.86-.31-.33-.47-.33-.79Zm2.25,9.98h-2.12v-7.92h2.12v7.92Z"/>
    <path class="cls-6" d="M275.07,28.58h-2.12v-11.25h2.12v11.25Z"/>
    <path class="cls-6" d="M278.76,20.65l.07,.92c.57-.71,1.33-1.06,2.28-1.06,.84,0,1.46,.25,1.88,.74s.62,1.23,.63,2.21v5.12h-2.12v-5.07c0-.45-.1-.77-.29-.98s-.52-.3-.97-.3c-.6,0-1.04,.25-1.34,.76v5.59h-2.12v-7.92h1.99Z"/>
    <path class="cls-6" d="M287.5,28.58h-2.12v-7.92h2.12v7.92Zm-.62-11.14h2.31l-2.03,2.27h-1.72l1.44-2.27Z"/>
    <path class="cls-6" d="M230.93,40.87h3.87v1.71h-6.58v-1.29l3.73-4.93h-3.62v-1.71h6.35v1.25l-3.76,4.97Z"/>
    <path class="cls-6" d="M235.8,38.56c0-1.24,.28-2.22,.83-2.95s1.31-1.1,2.27-1.1c.77,0,1.41,.29,1.91,.86v-4.04h2.12v11.25h-1.91l-.1-.84c-.53,.66-1.21,.99-2.04,.99-.93,0-1.68-.37-2.25-1.1-.56-.73-.85-1.76-.85-3.06Zm2.12,.16c0,.74,.13,1.31,.39,1.71,.26,.4,.63,.59,1.13,.59,.65,0,1.12-.28,1.38-.83v-3.13c-.26-.55-.72-.83-1.37-.83-1.02,0-1.53,.83-1.53,2.49Z"/>
    <path class="cls-6" d="M249.04,36.64c-.29-.04-.54-.06-.76-.06-.8,0-1.33,.27-1.57,.81v5.19h-2.12v-7.92h2l.06,.94c.42-.73,1.01-1.09,1.77-1.09,.23,0,.45,.03,.66,.1l-.03,2.04Z"/>
    <path class="cls-6" d="M249.46,38.54c0-.79,.15-1.49,.45-2.1s.74-1.09,1.31-1.43c.57-.34,1.23-.51,1.98-.51,1.07,0,1.94,.33,2.62,.98,.68,.65,1.05,1.54,1.13,2.67v.54c.01,1.22-.32,2.19-1,2.93-.68,.74-1.59,1.1-2.73,1.1s-2.05-.37-2.74-1.1c-.68-.73-1.02-1.73-1.02-2.99v-.1Zm2.12,.15c0,.75,.14,1.33,.42,1.73s.69,.6,1.22,.6,.91-.2,1.2-.59c.29-.39,.43-1.02,.43-1.89,0-.74-.14-1.31-.43-1.72s-.69-.61-1.22-.61-.92,.2-1.2,.6c-.28,.4-.42,1.03-.42,1.87Z"/>
    <path class="cls-6" d="M260.51,34.65v8.36c0,.87-.23,1.55-.7,2.04s-1.13,.73-2.01,.73c-.37,0-.72-.04-1.05-.12v-1.68c.25,.04,.48,.07,.67,.07,.64,0,.96-.34,.96-1.02v-8.37h2.12Zm-2.29-2.05c0-.32,.11-.58,.32-.78,.21-.21,.5-.31,.87-.31s.66,.1,.87,.31c.21,.21,.32,.47,.32,.78s-.11,.59-.33,.79-.5,.31-.86,.31-.64-.1-.86-.31c-.22-.21-.33-.47-.33-.79Z"/>
    <path class="cls-6" d="M265.82,42.73c-1.16,0-2.11-.36-2.84-1.07s-1.09-1.66-1.09-2.85v-.21c0-.8,.15-1.51,.46-2.14,.31-.63,.74-1.11,1.31-1.45,.56-.34,1.21-.51,1.93-.51,1.08,0,1.94,.34,2.56,1.03,.62,.68,.93,1.65,.93,2.91v.86h-5.05c.07,.52,.27,.93,.62,1.25,.34,.31,.78,.47,1.31,.47,.82,0,1.45-.3,1.91-.89l1.04,1.16c-.32,.45-.75,.8-1.29,1.05-.54,.25-1.14,.38-1.8,.38Zm-.24-6.51c-.42,0-.76,.14-1.02,.43-.26,.28-.43,.69-.5,1.22h2.94v-.17c0-.47-.14-.83-.38-1.09s-.59-.39-1.04-.39Z"/>
  </g>
  <g>
    <path class="cls-5" d="M337.12,38.22h-4.22v4.36h-2.2v-10.66h6.94v1.78h-4.75v2.75h4.22v1.77Z"/>
    <path class="cls-5" d="M338.3,38.54c0-.79,.15-1.49,.45-2.1s.74-1.09,1.31-1.43c.57-.34,1.23-.51,1.98-.51,1.07,0,1.94,.33,2.62,.98,.68,.65,1.05,1.54,1.13,2.67v.54c.01,1.22-.32,2.19-1,2.93-.68,.74-1.59,1.1-2.73,1.1s-2.05-.37-2.74-1.1c-.68-.73-1.02-1.73-1.02-2.99v-.1Zm2.12,.15c0,.75,.14,1.33,.42,1.73s.69,.6,1.22,.6,.91-.2,1.2-.59c.29-.39,.43-1.02,.43-1.89,0-.74-.14-1.31-.43-1.72s-.69-.61-1.22-.61-.92,.2-1.2,.6c-.28,.4-.42,1.03-.42,1.87Z"/>
    <path class="cls-5" d="M351.4,40.39c0-.26-.13-.46-.38-.61-.26-.15-.67-.28-1.23-.4-1.88-.4-2.83-1.2-2.83-2.4,0-.7,.29-1.29,.88-1.76s1.35-.71,2.29-.71c1.01,0,1.81,.24,2.41,.71s.9,1.09,.9,1.85h-2.12c0-.3-.1-.55-.29-.75-.2-.2-.5-.3-.92-.3-.36,0-.63,.08-.83,.24s-.29,.37-.29,.62c0,.23,.11,.42,.33,.57s.6,.27,1.12,.37c.53,.11,.97,.22,1.33,.36,1.12,.41,1.68,1.12,1.68,2.13,0,.72-.31,1.31-.93,1.75-.62,.45-1.42,.67-2.4,.67-.66,0-1.25-.12-1.77-.36-.52-.24-.92-.56-1.21-.97s-.44-.86-.44-1.34h2.01c.02,.38,.16,.66,.42,.86s.61,.3,1.04,.3c.41,0,.71-.08,.92-.23,.21-.15,.31-.35,.31-.6Z"/>
    <path class="cls-5" d="M354.81,32.6c0-.32,.11-.58,.32-.78,.21-.21,.5-.31,.87-.31s.65,.1,.86,.31,.32,.47,.32,.78-.11,.59-.33,.79c-.22,.21-.5,.31-.86,.31s-.64-.1-.86-.31-.33-.47-.33-.79Zm2.25,9.98h-2.12v-7.92h2.12v7.92Z"/>
    <path class="cls-5" d="M361.03,42.58h-2.12v-11.25h2.12v11.25Z"/>
    <path class="cls-5" d="M364.73,34.65l.07,.92c.57-.71,1.33-1.06,2.28-1.06,.84,0,1.46,.25,1.88,.74s.62,1.23,.63,2.21v5.12h-2.12v-5.07c0-.45-.1-.77-.29-.98s-.52-.3-.97-.3c-.6,0-1.04,.25-1.34,.76v5.59h-2.12v-7.92h1.99Z"/>
    <path class="cls-5" d="M373.46,42.58h-2.12v-7.92h2.12v7.92Zm-.62-11.14h2.31l-2.03,2.27h-1.72l1.44-2.27Z"/>
    <path class="cls-5" d="M381.45,40.87h3.87v1.71h-6.58v-1.29l3.73-4.93h-3.62v-1.71h6.35v1.25l-3.76,4.97Z"/>
    <path class="cls-5" d="M386.33,38.56c0-1.24,.28-2.22,.83-2.95s1.31-1.1,2.27-1.1c.77,0,1.41,.29,1.91,.86v-4.04h2.12v11.25h-1.91l-.1-.84c-.53,.66-1.21,.99-2.04,.99-.93,0-1.68-.37-2.25-1.1-.56-.73-.85-1.76-.85-3.06Zm2.12,.16c0,.74,.13,1.31,.39,1.71,.26,.4,.63,.59,1.13,.59,.65,0,1.12-.28,1.38-.83v-3.13c-.26-.55-.72-.83-1.37-.83-1.02,0-1.53,.83-1.53,2.49Z"/>
    <path class="cls-5" d="M399.56,36.64c-.29-.04-.54-.06-.76-.06-.8,0-1.33,.27-1.57,.81v5.19h-2.12v-7.92h2l.06,.94c.42-.73,1.01-1.09,1.77-1.09,.23,0,.45,.03,.66,.1l-.03,2.04Z"/>
    <path class="cls-5" d="M399.98,38.54c0-.79,.15-1.49,.45-2.1s.74-1.09,1.31-1.43c.57-.34,1.23-.51,1.98-.51,1.07,0,1.94,.33,2.62,.98,.68,.65,1.05,1.54,1.13,2.67v.54c.01,1.22-.32,2.19-1,2.93-.68,.74-1.59,1.1-2.73,1.1s-2.05-.37-2.74-1.1c-.68-.73-1.02-1.73-1.02-2.99v-.1Zm2.12,.15c0,.75,.14,1.33,.42,1.73s.69,.6,1.22,.6,.91-.2,1.2-.59c.29-.39,.43-1.02,.43-1.89,0-.74-.14-1.31-.43-1.72s-.69-.61-1.22-.61-.92,.2-1.2,.6c-.28,.4-.42,1.03-.42,1.87Z"/>
    <path class="cls-5" d="M411.04,34.65v8.36c0,.87-.23,1.55-.7,2.04s-1.13,.73-2.01,.73c-.37,0-.72-.04-1.05-.12v-1.68c.25,.04,.48,.07,.67,.07,.64,0,.96-.34,.96-1.02v-8.37h2.12Zm-2.29-2.05c0-.32,.11-.58,.32-.78,.21-.21,.5-.31,.87-.31s.66,.1,.87,.31c.21,.21,.32,.47,.32,.78s-.11,.59-.33,.79-.5,.31-.86,.31-.64-.1-.86-.31c-.22-.21-.33-.47-.33-.79Z"/>
    <path class="cls-5" d="M416.34,42.73c-1.16,0-2.11-.36-2.84-1.07s-1.09-1.66-1.09-2.85v-.21c0-.8,.15-1.51,.46-2.14,.31-.63,.74-1.11,1.31-1.45,.56-.34,1.21-.51,1.93-.51,1.08,0,1.94,.34,2.56,1.03,.62,.68,.93,1.65,.93,2.91v.86h-5.05c.07,.52,.27,.93,.62,1.25,.34,.31,.78,.47,1.31,.47,.82,0,1.45-.3,1.91-.89l1.04,1.16c-.32,.45-.75,.8-1.29,1.05-.54,.25-1.14,.38-1.8,.38Zm-.24-6.51c-.42,0-.76,.14-1.02,.43-.26,.28-.43,.69-.5,1.22h2.94v-.17c0-.47-.14-.83-.38-1.09s-.59-.39-1.04-.39Z"/>
  </g>
  <g>
    <path class="cls-10" d="M549.9,26.71h-4.22v2.86h4.95v1.77h-7.15v-10.66h7.13v1.78h-4.94v2.54h4.22v1.72Z"/>
    <path class="cls-10" d="M554.8,25.77l1.33-2.37h2.26l-2.26,3.88,2.35,4.04h-2.27l-1.41-2.49-1.41,2.49h-2.28l2.35-4.04-2.25-3.88h2.27l1.3,2.37Z"/>
    <path class="cls-10" d="M566.55,27.44c0,1.22-.28,2.2-.83,2.93-.55,.74-1.3,1.1-2.24,1.1-.8,0-1.45-.28-1.94-.83v3.74h-2.12v-10.97h1.96l.07,.78c.51-.62,1.18-.92,2.01-.92,.98,0,1.74,.36,2.28,1.08s.81,1.72,.81,2.99v.11Zm-2.12-.15c0-.74-.13-1.31-.39-1.71-.26-.4-.64-.6-1.14-.6-.66,0-1.12,.25-1.37,.76v3.24c.26,.52,.72,.78,1.38,.78,1.01,0,1.52-.83,1.52-2.48Z"/>
    <path class="cls-10" d="M567.53,27.29c0-.79,.15-1.49,.45-2.1s.74-1.09,1.31-1.43c.57-.34,1.23-.51,1.98-.51,1.07,0,1.94,.33,2.62,.98,.68,.65,1.05,1.54,1.13,2.67v.54c.01,1.22-.32,2.19-1,2.93-.68,.74-1.59,1.1-2.73,1.1s-2.05-.37-2.74-1.1c-.68-.73-1.02-1.73-1.02-2.99v-.1Zm2.12,.15c0,.75,.14,1.33,.42,1.73s.69,.6,1.22,.6,.91-.2,1.2-.59c.29-.39,.43-1.02,.43-1.89,0-.74-.14-1.31-.43-1.72s-.69-.61-1.22-.61-.92,.2-1.2,.6c-.28,.4-.42,1.03-.42,1.87Z"/>
    <path class="cls-10" d="M580.79,25.39c-.29-.04-.54-.06-.76-.06-.8,0-1.33,.27-1.57,.81v5.19h-2.12v-7.92h2l.06,.94c.42-.73,1.01-1.09,1.77-1.09,.23,0,.45,.03,.66,.1l-.03,2.04Z"/>
    <path class="cls-10" d="M584.71,21.46v1.95h1.35v1.55h-1.35v3.96c0,.29,.06,.5,.17,.63s.33,.19,.64,.19c.23,0,.44-.02,.62-.05v1.6c-.42,.13-.84,.19-1.28,.19-1.48,0-2.24-.75-2.27-2.25v-4.27h-1.16v-1.55h1.16v-1.95h2.12Z"/>
    <path class="cls-10" d="M497.9,42.44h3.71v.88h-5.03v-.8l3.5-4.65h-3.45v-.9h4.8v.77l-3.53,4.69Z"/>
    <path class="cls-10" d="M506.33,43.33v-5.5h-1v-.84h1v-.65c0-.68,.18-1.21,.54-1.58s.88-.56,1.54-.56c.25,0,.5,.03,.74,.1l-.06,.87c-.18-.04-.38-.05-.59-.05-.35,0-.62,.1-.81,.31s-.29,.5-.29,.88v.67h1.35v.84h-1.35v5.5h-1.08Z"/>
    <path class="cls-10" d="M509.68,40.1c0-.62,.12-1.18,.37-1.68s.58-.88,1.02-1.15,.93-.4,1.49-.4c.86,0,1.56,.3,2.09,.9s.8,1.39,.8,2.38v.08c0,.62-.12,1.17-.35,1.66s-.57,.87-1.01,1.15-.94,.41-1.51,.41c-.86,0-1.56-.3-2.09-.9s-.8-1.39-.8-2.37v-.08Zm1.09,.13c0,.7,.16,1.27,.49,1.69s.76,.64,1.31,.64,.99-.22,1.31-.65,.49-1.04,.49-1.81c0-.7-.17-1.26-.5-1.69s-.77-.65-1.32-.65-.97,.21-1.29,.64-.49,1.04-.49,1.83Z"/>
    <path class="cls-10" d="M520.5,41.65c0-.29-.11-.52-.33-.68s-.61-.3-1.15-.42-.98-.26-1.31-.42-.56-.36-.71-.59-.23-.5-.23-.81c0-.52,.22-.96,.66-1.32s1-.54,1.68-.54c.72,0,1.3,.19,1.75,.56s.67,.85,.67,1.42h-1.09c0-.3-.13-.55-.38-.77s-.57-.32-.95-.32-.7,.09-.93,.26-.33,.4-.33,.67c0,.26,.1,.46,.31,.59s.58,.26,1.12,.38,.98,.27,1.32,.43,.58,.37,.75,.61,.24,.52,.24,.86c0,.57-.23,1.02-.68,1.36s-1.04,.51-1.76,.51c-.51,0-.96-.09-1.35-.27s-.7-.43-.92-.75-.33-.67-.33-1.05h1.08c.02,.36,.17,.65,.44,.86s.63,.32,1.08,.32c.41,0,.74-.08,.99-.25s.37-.39,.37-.67Z"/>
    <path class="cls-10" d="M523,35.31c0-.18,.05-.32,.16-.45s.27-.18,.48-.18,.37,.06,.48,.18,.16,.27,.16,.45-.05,.32-.16,.44-.27,.18-.48,.18-.37-.06-.48-.18-.16-.26-.16-.44Zm1.17,8.02h-1.08v-6.34h1.08v6.34Z"/>
    <path class="cls-10" d="M527.09,43.33h-1.08v-9h1.08v9Z"/>
    <path class="cls-10" d="M529.85,36.99l.04,.8c.48-.61,1.12-.91,1.9-.91,1.34,0,2.02,.76,2.03,2.27v4.19h-1.08v-4.2c0-.46-.11-.79-.31-1.01s-.52-.33-.96-.33c-.35,0-.66,.09-.93,.28s-.47,.43-.62,.74v4.52h-1.08v-6.34h1.03Z"/>
    <path class="cls-10" d="M536.63,34.33h1.31l-1.57,1.72h-.87s1.13-1.72,1.13-1.72Zm-.01,8.99h-1.09v-6.34h1.09v6.34Z"/>
    <path class="cls-10" d="M540.95,42.56c.39,0,.72-.12,1.01-.35s.45-.53,.48-.88h1.03c-.02,.36-.14,.71-.38,1.04s-.54,.59-.92,.79-.79,.29-1.22,.29c-.86,0-1.55-.29-2.06-.86s-.76-1.36-.76-2.36v-.18c0-.62,.11-1.17,.34-1.65s.55-.85,.98-1.12,.92-.4,1.5-.4c.71,0,1.3,.21,1.77,.64s.72,.98,.75,1.66h-1.03c-.03-.41-.19-.75-.47-1.01s-.62-.4-1.03-.4c-.55,0-.98,.2-1.28,.59s-.45,.97-.45,1.72v.21c0,.73,.15,1.29,.45,1.69s.73,.59,1.29,.59Z"/>
    <path class="cls-10" d="M545.77,37.76c.48-.59,1.11-.88,1.88-.88,1.34,0,2.02,.76,2.03,2.27v4.19h-1.08v-4.2c0-.46-.11-.79-.31-1.01s-.52-.33-.96-.33c-.35,0-.66,.09-.93,.28s-.47,.43-.62,.74v4.52h-1.08v-9h1.08v3.43Z"/>
    <path class="cls-10" d="M555.29,42.44h3.71v.88h-5.03v-.8l3.5-4.65h-3.45v-.9h4.8v.77l-3.53,4.69Z"/>
    <path class="cls-10" d="M559.95,40.11c0-.97,.23-1.75,.69-2.35s1.06-.89,1.81-.89,1.33,.25,1.76,.76v-3.3h1.08v9h-1l-.05-.68c-.43,.53-1.04,.8-1.81,.8s-1.33-.3-1.8-.9-.69-1.39-.69-2.36v-.08Zm1.08,.12c0,.72,.15,1.28,.45,1.69s.71,.61,1.23,.61c.69,0,1.19-.31,1.51-.93v-2.91c-.32-.6-.82-.9-1.49-.9-.53,0-.95,.21-1.24,.62s-.45,1.02-.45,1.82Z"/>
    <path class="cls-10" d="M570.05,37.96c-.16-.03-.34-.04-.53-.04-.71,0-1.19,.3-1.45,.91v4.5h-1.08v-6.34h1.05l.02,.73c.36-.57,.86-.85,1.51-.85,.21,0,.37,.03,.48,.08v1.01Z"/>
    <path class="cls-10" d="M570.64,40.1c0-.62,.12-1.18,.37-1.68s.58-.88,1.02-1.15,.93-.4,1.49-.4c.86,0,1.56,.3,2.09,.9s.8,1.39,.8,2.38v.08c0,.62-.12,1.17-.35,1.66s-.57,.87-1.01,1.15-.94,.41-1.51,.41c-.86,0-1.56-.3-2.09-.9s-.8-1.39-.8-2.37v-.08Zm1.09,.13c0,.7,.16,1.27,.49,1.69s.76,.64,1.31,.64,.99-.22,1.31-.65,.49-1.04,.49-1.81c0-.7-.17-1.26-.5-1.69s-.77-.65-1.32-.65-.97,.21-1.29,.64-.49,1.04-.49,1.83Z"/>
    <path class="cls-10" d="M578.89,36.99v7.07c0,1.22-.55,1.83-1.66,1.83-.24,0-.46-.04-.66-.1v-.86c.12,.03,.29,.05,.49,.05,.24,0,.43-.07,.55-.2s.19-.36,.19-.68v-7.1h1.08Zm-1.2-1.68c0-.17,.05-.32,.16-.44s.26-.18,.47-.18,.37,.06,.48,.18,.16,.27,.16,.45-.05,.32-.16,.44-.27,.18-.48,.18-.37-.06-.47-.18-.16-.26-.16-.44Z"/>
    <path class="cls-10" d="M584.55,42.7c-.42,.5-1.04,.74-1.86,.74-.68,0-1.19-.2-1.54-.59s-.53-.97-.54-1.74v-4.12h1.08v4.1c0,.96,.39,1.44,1.17,1.44,.83,0,1.38-.31,1.65-.93v-4.61h1.08v6.34h-1.03l-.02-.63Zm-.15-7.69c0,.34-.12,.62-.36,.85s-.54,.34-.9,.34-.66-.12-.9-.35-.36-.51-.36-.85,.12-.62,.36-.86,.54-.36,.9-.36,.66,.12,.9,.36,.36,.53,.36,.86Zm-1.94,0c0,.18,.07,.34,.2,.47s.29,.2,.48,.2,.35-.06,.48-.19,.2-.29,.2-.48-.07-.35-.2-.49-.29-.2-.48-.2-.36,.07-.49,.21-.19,.3-.19,.49Z"/>
  </g>
  <path class="cls-10" d="M474.66,92.97h3.96v1.71h-3.96v4.49h-1.82v-4.49h-3.96v-1.71h3.96v-4.15h1.82v4.15Z"/>
  <g>
    <path class="cls-6" d="M234.53,50.7l-3.69,8.39h-1.62l3.69-8h-4.78v-1.24h6.4v.86Z"/>
    <path class="cls-6" d="M236.08,61.17l-.83-.5c.25-.39,.41-.72,.5-1.01,.09-.29,.14-.58,.14-.87v-1.2h1.39v1.11c-.01,.45-.12,.9-.35,1.35-.22,.45-.51,.82-.86,1.11Z"/>
    <path class="cls-6" d="M244.84,59.09h-6.21v-1.06l3.08-3.36c.44-.5,.76-.91,.95-1.24,.19-.33,.28-.67,.28-1,0-.44-.12-.8-.37-1.07-.25-.27-.58-.41-1-.41-.5,0-.89,.15-1.16,.46s-.41,.72-.41,1.25h-1.54c0-.56,.13-1.07,.38-1.52,.26-.45,.62-.8,1.1-1.05,.48-.25,1.03-.37,1.65-.37,.9,0,1.6,.23,2.12,.68,.52,.45,.78,1.07,.78,1.87,0,.46-.13,.94-.39,1.45-.26,.51-.69,1.08-1.28,1.72l-2.26,2.42h4.29v1.23Z"/>
  </g>
  <g class="cls-13">
    <g>
      <path class="cls-5" d="M398.58,53.76h.94c.47,0,.85-.13,1.13-.37,.28-.24,.42-.59,.42-1.05s-.12-.78-.35-1.03c-.23-.24-.58-.36-1.06-.36-.41,0-.76,.12-1.02,.36-.27,.24-.4,.55-.4,.94h-1.54c0-.47,.13-.91,.38-1.29,.25-.39,.6-.69,1.05-.91,.45-.22,.96-.33,1.51-.33,.92,0,1.65,.23,2.17,.7,.53,.46,.79,1.11,.79,1.93,0,.41-.13,.81-.4,1.17-.26,.37-.61,.64-1.03,.83,.51,.17,.89,.45,1.16,.82,.26,.37,.4,.82,.4,1.33,0,.83-.28,1.49-.85,1.98-.57,.49-1.32,.74-2.24,.74s-1.62-.24-2.18-.71-.85-1.1-.85-1.89h1.54c0,.41,.14,.74,.41,.99,.27,.25,.64,.38,1.1,.38s.85-.13,1.13-.38,.41-.62,.41-1.1-.14-.86-.43-1.12-.72-.39-1.28-.39h-.91v-1.22Z"/>
      <path class="cls-5" d="M405.96,53.76h.94c.47,0,.85-.13,1.13-.37,.28-.24,.42-.59,.42-1.05s-.12-.78-.35-1.03c-.23-.24-.58-.36-1.06-.36-.41,0-.76,.12-1.02,.36-.27,.24-.4,.55-.4,.94h-1.54c0-.47,.13-.91,.38-1.29,.25-.39,.6-.69,1.05-.91,.45-.22,.96-.33,1.51-.33,.92,0,1.65,.23,2.17,.7,.53,.46,.79,1.11,.79,1.93,0,.41-.13,.81-.4,1.17-.26,.37-.61,.64-1.03,.83,.51,.17,.89,.45,1.16,.82,.26,.37,.4,.82,.4,1.33,0,.83-.28,1.49-.85,1.98-.57,.49-1.32,.74-2.24,.74s-1.62-.24-2.18-.71-.85-1.1-.85-1.89h1.54c0,.41,.14,.74,.41,.99,.27,.25,.64,.38,1.1,.38s.85-.13,1.13-.38,.41-.62,.41-1.1-.14-.86-.43-1.12-.72-.39-1.28-.39h-.91v-1.22Z"/>
      <path class="cls-5" d="M411.89,61.17l-.83-.5c.25-.39,.41-.72,.5-1.01,.09-.29,.14-.58,.14-.87v-1.2h1.39v1.11c-.01,.45-.12,.9-.35,1.35-.22,.45-.51,.82-.86,1.11Z"/>
      <path class="cls-5" d="M418.6,59.09h-1.54v-7.42l-2.27,.77v-1.29l3.61-1.33h.2v9.27Z"/>
    </g>
  </g>
  <g class="cls-13">
    <g>
      <path class="cls-10" d="M537.18,59.88h-1.54v-7.42l-2.27,.77v-1.29l3.61-1.33h.2v9.27Z"/>
      <path class="cls-10" d="M546.42,55.99c0,1.33-.25,2.33-.75,3.01-.5,.67-1.25,1.01-2.27,1.01s-1.75-.33-2.26-.99c-.51-.66-.77-1.63-.78-2.92v-1.6c0-1.33,.25-2.33,.75-2.99,.5-.66,1.26-1,2.28-1s1.77,.32,2.26,.97c.5,.65,.75,1.62,.76,2.91v1.6Zm-1.54-1.73c0-.87-.12-1.5-.36-1.91s-.61-.61-1.13-.61-.87,.19-1.11,.58c-.24,.38-.36,.98-.37,1.79v2.09c0,.86,.12,1.51,.36,1.93,.24,.42,.62,.63,1.14,.63s.86-.2,1.1-.59c.24-.39,.36-1,.37-1.84v-2.09Z"/>
      <path class="cls-10" d="M548.1,61.96l-.83-.5c.25-.39,.41-.72,.5-1.01,.09-.29,.14-.58,.14-.87v-1.2h1.39v1.11c-.01,.45-.12,.9-.35,1.35-.22,.45-.51,.82-.86,1.11Z"/>
      <path class="cls-10" d="M554.82,59.88h-1.54v-7.42l-2.27,.77v-1.29l3.61-1.33h.2v9.27Z"/>
      <path class="cls-10" d="M567.81,51.93h-2.88v7.95h-1.59v-7.95h-2.86v-1.29h7.33v1.29Z"/>
      <path class="cls-10" d="M576.37,57.59l1.42-6.96h1.59l-2.13,9.24h-1.54l-1.76-6.75-1.8,6.75h-1.54l-2.13-9.24h1.59l1.43,6.94,1.76-6.94h1.35l1.75,6.96Z"/>
      <path class="cls-10" d="M581.93,53.76c.5-.58,1.14-.88,1.91-.88,1.46,0,2.21,.84,2.23,2.51v4.49h-1.54v-4.43c0-.47-.1-.81-.31-1.01-.21-.2-.51-.3-.9-.3-.62,0-1.08,.28-1.38,.83v4.91h-1.54v-9.75h1.54v3.63Z"/>
    </g>
  </g>
  <rect class="cls-9" x="5.4" y="67.56" width="193.82" height="50"/>
  <rect class="cls-8" x="199.22" y="67.56" width="20.77" height="50"/>
  <rect class="cls-4" x="219.98" y="67.56" width="49.84" height="50"/>
  <rect class="cls-5" x="269.82" y="67.56" width="159.21" height="50"/>
  <rect class="cls-5" x="517.89" y="67.56" width="69.91" height="50"/>
  <rect class="cls-11" x="517.89" y="67.56" width="69.91" height="50"/>
  <g>
    <path class="cls-7" d="M16.89,91.16h.94c.47,0,.85-.13,1.13-.37,.28-.24,.42-.59,.42-1.05s-.12-.78-.35-1.03c-.23-.24-.58-.36-1.06-.36-.41,0-.76,.12-1.02,.36-.27,.24-.4,.55-.4,.94h-1.54c0-.47,.13-.91,.38-1.29,.25-.39,.6-.69,1.05-.91,.45-.22,.96-.33,1.51-.33,.92,0,1.65,.23,2.17,.7,.53,.46,.79,1.11,.79,1.93,0,.41-.13,.81-.4,1.17-.26,.37-.61,.64-1.03,.83,.51,.17,.89,.45,1.16,.82,.26,.37,.4,.82,.4,1.33,0,.83-.28,1.49-.85,1.98-.57,.49-1.32,.74-2.24,.74s-1.62-.24-2.18-.71-.85-1.1-.85-1.89h1.54c0,.41,.14,.74,.41,.99,.27,.25,.64,.38,1.1,.38s.85-.13,1.13-.38,.41-.62,.41-1.1-.14-.86-.43-1.12-.72-.39-1.28-.39h-.91v-1.22Z"/>
    <path class="cls-7" d="M26.87,92.62c-.52,.55-1.12,.82-1.81,.82-.81,0-1.46-.28-1.94-.85-.48-.57-.72-1.32-.72-2.24,0-.61,.12-1.16,.37-1.66s.59-.88,1.05-1.16,.98-.41,1.57-.41c.93,0,1.67,.35,2.22,1.04s.82,1.62,.82,2.79v.43c0,1.67-.38,2.94-1.13,3.81s-1.88,1.32-3.37,1.33h-.18v-1.28h.22c.91-.01,1.61-.23,2.09-.66,.49-.43,.76-1.08,.82-1.97Zm-1.49-.39c.31,0,.6-.09,.87-.27s.48-.42,.63-.74v-.6c0-.68-.14-1.23-.42-1.64s-.64-.62-1.09-.62-.8,.18-1.06,.55c-.26,.37-.4,.83-.4,1.39s.13,1.05,.4,1.4,.62,.53,1.07,.53Z"/>
    <path class="cls-7" d="M33.06,89.02c0-.56,.18-1.02,.54-1.37,.36-.36,.83-.54,1.42-.54s1.07,.18,1.43,.54,.54,.83,.54,1.41v.46c0,.55-.18,1.01-.54,1.36-.36,.36-.83,.53-1.41,.53s-1.04-.17-1.41-.52c-.37-.35-.56-.82-.56-1.41v-.45Zm1.08,.49c0,.29,.08,.53,.24,.71,.16,.18,.38,.27,.64,.27s.47-.09,.63-.27,.24-.43,.24-.73v-.46c0-.29-.08-.53-.24-.71-.16-.18-.38-.27-.64-.27s-.48,.09-.64,.28c-.16,.18-.24,.43-.24,.73v.47Zm1.21,6.29l-.79-.46,4.51-7.22,.79,.46-4.51,7.22Zm2.16-1.57c0-.57,.18-1.03,.55-1.38s.84-.53,1.41-.53,1.05,.18,1.41,.53c.37,.35,.55,.83,.55,1.42v.45c0,.55-.18,1-.53,1.36-.35,.36-.83,.54-1.42,.54s-1.07-.18-1.43-.53c-.36-.35-.54-.82-.54-1.4v-.46Zm1.08,.49c0,.29,.08,.52,.25,.71,.17,.18,.38,.28,.64,.28s.48-.09,.64-.26c.15-.18,.23-.42,.23-.74v-.48c0-.3-.08-.53-.25-.71s-.38-.27-.63-.27-.48,.09-.64,.27c-.16,.18-.24,.42-.24,.74v.47Z"/>
  </g>
  <g>
    <path class="cls-7" d="M207.42,92.62h1.15v1.24h-1.15v2.06h-1.54v-2.06h-3.99l-.04-.94,3.99-6.25h1.59v5.95Zm-3.96,0h2.42v-3.86l-.11,.2-2.3,3.66Z"/>
    <path class="cls-7" d="M209.52,88.45c0-.56,.18-1.02,.54-1.37,.36-.36,.83-.54,1.42-.54s1.07,.18,1.43,.54,.54,.83,.54,1.41v.46c0,.55-.18,1.01-.54,1.36-.36,.36-.83,.53-1.41,.53s-1.04-.17-1.41-.52c-.37-.35-.56-.82-.56-1.41v-.45Zm1.08,.49c0,.29,.08,.53,.24,.71,.16,.18,.38,.27,.64,.27s.47-.09,.63-.27,.24-.43,.24-.73v-.46c0-.29-.08-.53-.24-.71-.16-.18-.38-.27-.64-.27s-.48,.09-.64,.28c-.16,.18-.24,.43-.24,.73v.47Zm1.21,6.29l-.79-.46,4.51-7.22,.79,.46-4.51,7.22Zm2.16-1.57c0-.57,.18-1.03,.55-1.38s.84-.53,1.41-.53,1.05,.18,1.41,.53c.37,.35,.55,.83,.55,1.42v.45c0,.55-.18,1-.53,1.36-.35,.36-.83,.54-1.42,.54s-1.07-.18-1.43-.53c-.36-.35-.54-.82-.54-1.4v-.46Zm1.08,.49c0,.29,.08,.52,.25,.71,.17,.18,.38,.28,.64,.28s.48-.09,.64-.26c.15-.18,.23-.42,.23-.74v-.48c0-.3-.08-.53-.25-.71s-.38-.27-.63-.27-.48,.09-.64,.27c-.16,.18-.24,.42-.24,.74v.47Z"/>
  </g>
  <g>
    <path class="cls-7" d="M232.99,95.91h-1.54v-7.42l-2.27,.77v-1.29l3.61-1.33h.2v9.27Z"/>
    <path class="cls-7" d="M242.23,92.02c0,1.33-.25,2.33-.75,3.01-.5,.68-1.25,1.01-2.27,1.01s-1.75-.33-2.26-.99c-.51-.66-.77-1.63-.78-2.92v-1.6c0-1.33,.25-2.33,.75-2.99,.5-.66,1.26-1,2.28-1s1.77,.32,2.26,.97c.5,.65,.75,1.62,.76,2.91v1.6Zm-1.54-1.73c0-.87-.12-1.5-.36-1.91-.24-.4-.61-.61-1.13-.61s-.87,.19-1.11,.57c-.24,.38-.36,.98-.37,1.79v2.09c0,.86,.12,1.51,.36,1.93s.62,.63,1.14,.63,.86-.2,1.1-.59c.24-.39,.36-1,.37-1.84v-2.09Z"/>
    <path class="cls-7" d="M246.77,88.45c0-.56,.18-1.02,.54-1.37,.36-.36,.83-.54,1.42-.54s1.07,.18,1.43,.54,.54,.83,.54,1.41v.46c0,.55-.18,1.01-.54,1.36-.36,.36-.83,.53-1.41,.53s-1.04-.17-1.41-.52c-.37-.35-.56-.82-.56-1.41v-.45Zm1.08,.49c0,.29,.08,.53,.24,.71,.16,.18,.38,.27,.64,.27s.47-.09,.63-.27,.24-.43,.24-.73v-.46c0-.29-.08-.53-.24-.71-.16-.18-.38-.27-.64-.27s-.48,.09-.64,.28c-.16,.18-.24,.43-.24,.73v.47Zm1.21,6.29l-.79-.46,4.51-7.22,.79,.46-4.51,7.22Zm2.16-1.57c0-.57,.18-1.03,.55-1.38s.84-.53,1.41-.53,1.05,.18,1.41,.53c.37,.35,.55,.83,.55,1.42v.45c0,.55-.18,1-.53,1.36-.35,.36-.83,.54-1.42,.54s-1.07-.18-1.43-.53c-.36-.35-.54-.82-.54-1.4v-.46Zm1.08,.49c0,.29,.08,.52,.25,.71,.17,.18,.38,.28,.64,.28s.48-.09,.64-.26c.15-.18,.23-.42,.23-.74v-.48c0-.3-.08-.53-.25-.71s-.38-.27-.63-.27-.48,.09-.64,.27c-.16,.18-.24,.42-.24,.74v.47Z"/>
  </g>
  <g>
    <path class="cls-7" d="M398.7,92.62h1.15v1.24h-1.15v2.06h-1.54v-2.06h-3.99l-.04-.94,3.99-6.25h1.59v5.95Zm-3.96,0h2.42v-3.86l-.11,.2-2.3,3.66Z"/>
    <path class="cls-7" d="M405.67,86.62v1.28h-.19c-.86,.01-1.55,.25-2.07,.71s-.82,1.12-.92,1.96c.5-.52,1.13-.78,1.9-.78,.82,0,1.46,.29,1.93,.86,.47,.58,.71,1.32,.71,2.23s-.28,1.7-.83,2.28c-.55,.58-1.28,.87-2.17,.87s-1.67-.34-2.24-1.02c-.57-.68-.86-1.57-.86-2.68v-.53c0-1.62,.39-2.89,1.18-3.81,.79-.92,1.92-1.38,3.41-1.38h.16Zm-1.66,4.41c-.34,0-.65,.1-.93,.29-.28,.19-.49,.44-.62,.76v.47c0,.69,.14,1.23,.43,1.63,.29,.4,.66,.61,1.12,.61s.82-.17,1.09-.51,.4-.79,.4-1.35-.14-1.01-.41-1.36-.63-.53-1.08-.53Z"/>
    <path class="cls-7" d="M411.43,88.45c0-.56,.18-1.02,.54-1.37,.36-.36,.83-.54,1.42-.54s1.07,.18,1.43,.54,.54,.83,.54,1.41v.46c0,.55-.18,1.01-.54,1.36-.36,.36-.83,.53-1.41,.53s-1.04-.17-1.41-.52c-.37-.35-.56-.82-.56-1.41v-.45Zm1.08,.49c0,.29,.08,.53,.24,.71,.16,.18,.38,.27,.64,.27s.47-.09,.63-.27,.24-.43,.24-.73v-.46c0-.29-.08-.53-.24-.71-.16-.18-.38-.27-.64-.27s-.48,.09-.64,.28c-.16,.18-.24,.43-.24,.73v.47Zm1.21,6.29l-.79-.46,4.51-7.22,.79,.46-4.51,7.22Zm2.16-1.57c0-.57,.18-1.03,.55-1.38s.84-.53,1.41-.53,1.05,.18,1.41,.53c.37,.35,.55,.83,.55,1.42v.45c0,.55-.18,1-.53,1.36-.35,.36-.83,.54-1.42,.54s-1.07-.18-1.43-.53c-.36-.35-.54-.82-.54-1.4v-.46Zm1.08,.49c0,.29,.08,.52,.25,.71,.17,.18,.38,.28,.64,.28s.48-.09,.64-.26c.15-.18,.23-.42,.23-.74v-.48c0-.3-.08-.53-.25-.71s-.38-.27-.63-.27-.48,.09-.64,.27c-.16,.18-.24,.42-.24,.74v.47Z"/>
  </g>
</svg>