<?xml version="1.0" encoding="UTF-8"?>
<svg xmlns="http://www.w3.org/2000/svg" width="164.4mm" height="131.6mm" xmlns:xlink="http://www.w3.org/1999/xlink" viewBox="0 0 466.02 373.04">
  <defs>
    <clipPath id="clippath">
      <rect x="-88.48" y="-374.47" width="619.84" height="883.47" fill="none"/>
    </clipPath>
  </defs>
  <style>
      #turbine{
        animation: turbine-rotation infinite 10s;
        transform-origin: 221.46px 77.44px;
      }


      #sunrays{
        animation: sunrays infinite 10s;
        animation-delay: -3s;
        transform-origin: 120.59px 50.85px;
      }

      .heating{
        animation: heating infinite 10s;
        animation-timing-function: linear;
        animation-delay: -7s;
        stroke-dasharray: 100 10;
        stroke-dashoffset: 0;
      }

      .wind {
        animation: heating infinite 20s;
        animation-timing-function: linear;
        animation-delay: -4s;
        stroke-dasharray: 50 10;
        stroke-dashoffset: 0;
      }

      #list1{
        animation: list1 infinite 5s;
        animation-delay: -8s;
        transform-origin: 153px 297px
      }


      @keyframes turbine-rotation {
        0%   {
          rotate: 0deg;
        }
        100% {
          rotate: 360deg;
        }
      }

      @keyframes sunrays{
        0%   {
          transform: scale(1);
        }
        50% {
          transform: scale(1.2);
        }
        100%{
          transform: scale(1);
        }
      }

      @keyframes heating{
        0%   {
          stroke-dashoffset: 0;
        }
        100% {
          stroke-dashoffset: -100%;
          }
      }

      @keyframes list1{
        0%   {
          rotate: 0deg;
        }
        50% {
          rotate: -10deg;
          }
        100%   {
          rotate: 0deg;
        }
      }



  </style>
  <g id="Layer_1" data-name="Layer 1">
    <g clip-path="url(#clippath)">
      <rect x="-88.48" y="-374.46" width="619.84" height="883.47" rx="8.5" ry="8.5" fill="#001f71"/>
    </g>
  </g>
  <g id="Layer_2" data-name="Layer 2">
    <path id="Czechia" d="m155.72,70.73c-3.07,4.09-4.67,8.3,1.4,7.77-5.54,3.83,6.42,2.28,3.8,5.42.35,2.81-4.86,4.66-7.32,2.94-2.61,1.41-4.91,4.51-8.56,5.27-5.36,4.38-14.27.7-15.84,6.94,2.04,5.77-17.66,2.4-22.37,5.32.39,3.31-.72,6.05-3.72,8.85-2.78,5.01-7.03-8.34-6.99-.5-6.24,7.99-7.22-2.76-10.3,9.15-.69,2.39-2.96,2.15-4.71.69-1.55,1.22-4.39,1.77-6.58.78-.71,3.59-.73,7.06-4.25,8.85-7.45-1.51-10.08-6.85-16-.66-2.56,2.14-5.51-1.42-10.3,1.37-3.98-1.29-4.06,4.05-5.12,5.25-4.21-.83-4.26,4.43-7.33,5.7-3.06,2.09-1.1,12.33-5.24,10.11-1.2-3.31.97-4.47-2.88-6.91,2.65-.39,1.26-2.27-.95-2.32-2.88.23-.6-3.13-2.32-4.51-1.62-.99-7.42-.83-4.14.47,2.04,3.68-4.74,5.9,1.33,8.03,7.02,3.74-.93,10.75,5.68,13.79,2.19,3.28,4.07,4.3,8.16,7.99,2.44,2.32,7.11,1.88,7.11,5.38-4.17,4.32,8.79,3.07.7,10.34-1.86,2-2.15,3.2-2.82,6.34-2.88,2.95-6.38,3.63-2.38,8.07,3.96,2.56,6.38,2.99,5.49,8.19.35,1.6,3.81,2.03,3.05,5.26-1.16,5.91,6.61,3.55,4.23,9.54-.43,3.36,2.36,5.8,5.41,7.57,3.01,1.85,1.23,7.48,6.37,6.86,8.15-1.17,10.84,1.82,14.6,9.42,2.3,2.86,6.89,6.58,6.89,10.77,4.52,3.87,12.2,3.42,14.29,10.08.64,16.94,11.28,2.64,13.05,9.91,3.21-.85,1.37,3.22,3.53,5.11,1.84,4.19,6.12-.66,6.63,4.3,3.24,8.71,11.45,11.52,19.18,17.86,1.94,2.42-3.34,1.69-2.52,4.14,3.92,5.1,10.01,3.33,17.21,6.19,5.39,4.92,6-2.93,10.05-1.31,2.01-1.9,1.08-9.14,4.38-3.42,5.79,3.89,6.57-1.76,8.23.65,1.94,2.5,6.96,5.97,5.98-.55-1.36-7.42,6.72-8.87,6.7-15.5,2.58-1.52,11.63,4.97,10.82-.03-4.17-1.7.68-5.48.36-8.25.81-4.86-2.32-12.57,2.24-15.41,2.68,1.82,10.82,1.15,9.13,6.64.35,2.28,7.27-.94,7.72-2.05,3.68-5.26,17.49,7.57,25.19,9.4,3.15,5.39,7.83-1.22,12.02.11-.53,1.1.56,2.73,1.63,1.08.72,1.1,4.36,4.95,4.44,3.18,1.73,5.5,11.31,9.03,19.01,8.48,18.1,3.04,8.57-12.09,28.24-4.49,2,2.98-.51,5.47,4.49,3.83,2.9,4.95,8.22.3,11.53,2.42.85,2.83.88,14.08,4.15,5.97,15.91-42.71,19.17-9.23,30.54-20.58,10.42,8.45,16.5-8.99,26.25-8.79,8.16-16.67-1.01-4.61,14.82-13.77,2.74-7.76-.21-19.36,7.26-23.89,4.31-.3,9.77-2.86,11.87-6.87-1-3.86.99-2.53,3.56-4.68,3.67-2.66,2.97-12.1,7.98-9.88,5.61.15,15.11,1.16,15.94-5.49-5.75-22.97-12.28-4.94-18.22-24.36-3.34-3.42,2.54-4.57-1.45-7.24,1.05-9.39-2.23,2.67-10.33-5.15-1.3,1.62-6.89-2.21-4.04.73-4.25,5.02-2.8-4.85-7.22-3.31-5.87-7.45-2.9,5.13-11.98-8.49-8.23.57,2.67,3.68-.93,5.29-8.86.14-8.01,8.42-16.31-1.69,1.05-7.83-21.05-10.8-5.85-14.44,7.62-5.22,3.6-2.75,2.44-9.45,2.28-2.06-.67-4.75-2.95-4.59.24,1.71-3.17,7.46-5.45,5.53-3.39-2.49-10.39,4.12-11.01.28-2.88-2.76-3.87,1.56-5.23-.49,2.69-7.9-5.55-1.65-8.6-7.61-.11-4.31-6.06-2.61-9.58-4.39-4.01-1.16-11.39-7.19-12.42.09,3.05,1.91,4.27,4.7,5,8.23,4.83,2.13,5.64,5.54,5.23,10.09-1.35,2.53-2.43-5.43-3.38-1.16-1.01,2.08-5.11-.43-5.46,3.6-2.01-1.16-2.53-.74-4.19.98-6.3,16.48-14.74,5.62-17.64-4.53-5.05-5.01-9.09-11.04-13.25-13.47-2.76.39-2.94,1.46-4.47-2.05-1.34-2-2.67.03-3.22-3.01-1.09-3.97,1.58-.04,2.25-.61-.88-2.38-1.04-2.13.79-3.46,3.5-2.81,10.64-3.01,9.37-9.83,5.93-.87-3.97-9.89-6.7-8.76-6.12-2.54-4.68,5.9-10.22.51-4.89-2.91-5.66,10.12-9.36,3.87,3.99-.89-.16-9.59-3.92-6.37-4.48,3.45-4.76-1.93-6.17-5.46-.99-4.28-6.58,3.13-9.1-.62-4.5-1.6-14.79-7.77-17.48-3.88-2.67,2.93-2.67-1.97-2.02-3.36-2.25-4.51-10.02-7.46-5.29-13.32-1.64-1.8-3.35-5.8-5.68-2.58-2.63.35-.82-6.73-4.42-1.07-1.96-.51-3.83-2.42-6.96-2.81-1.64.9-4.92,4.51-.98,3.71,1.76,2.36-.49,9.13-.8,11.58-9.17-.33-8.14-2.91-13.58,4.52-8.56-3.15-10.41-1.47-7.63-11.13-11.13,5.56,1.84-6.55-7.27-7.14-1.39-.54-1.93-5.53-2.85-3.59,0,.62.34,2.32-.65,1.54-1.95-2.55-3.09,1.2-5.22.26-1.53-3.03-3.38-1.34-5.63-3.33Z" fill="#ebeced" opacity=".2"/>
    <g>
      <circle cx="175.62" cy="315.35" r="40.43" fill="#fca14d"/>
      <g>
        <path d="m155.42,280.11c-6.74-6.74,3.88-21.24,20.14-20.14,1.1,16.27-13.4,26.89-20.14,20.14Z" fill="#001f71" stroke="#fff" stroke-miterlimit="10"/>
        <g  id="list1" >
          <path d="m146.7,269.44c-11.34,5.26-24.38-14.35-15.7-33.86,20.51,5.99,27.04,28.61,15.7,33.86Z" fill="#001f71" stroke="#fff" stroke-miterlimit="10"/>
          <path d="m150.39,297.84c1.15-35.08-19.06-61.55-19.06-61.55" fill="none" stroke="#fff" stroke-miterlimit="10"/>
        </g>
        <path d="m175.56,259.97c-8.67,5.64-24.11,15.04-24.11,37.87" fill="none" stroke="#fff" stroke-miterlimit="10"/>
        <line x1="195.01" y1="327.14" x2="210.7" y2="327.14" fill="#fff" stroke="#fff" stroke-miterlimit="10"/>
        <polyline points="154.82 327.14 194.34 327.14 189.37 310.76 169.91 305 165.54 294.48 140.89 287.84 129.4 294.48 119.48 327.14 103.92 327.14" fill="#001f71" stroke="#fff" stroke-miterlimit="10"/>
        <polyline points="136.55 298.68 142.41 294.87 159.79 298.68" fill="#001f71" stroke="#fff" stroke-miterlimit="10"/>
        <polyline points="179.29 319.61 177.8 313.75 160.23 312.85" fill="#001f71" stroke="#fff" stroke-miterlimit="10"/>
        <line x1="132.37" y1="312.45" x2="141.49" y2="312.45" fill="#fff" stroke="#fff" stroke-miterlimit="10"/>
        <polyline points="126.52 327.14 148.17 327.14 152.74 334.99" fill="none" stroke="#fff" stroke-miterlimit="10"/>
        <polyline points="150.71 305.2 147.62 312.32 153.26 312.32 149.85 320.51" fill="#001f71" stroke="#fff" stroke-miterlimit="10"/>
      </g>
    </g>
    <g>
      <circle cx="344.3" cy="254.58" r="40.43" fill="#ed4c67"/>
      <g>
        <g>
          <circle cx="355.26" cy="251.32" r="16.01" fill="#001f71" stroke="#fff" stroke-miterlimit="10"/>
          <g>
            <g>
              <path d="m355.03,240.77c-2.9,9.82,3.83,9.57,0,21.11" fill="#001f71"/>
              <g>
                <path d="m354.66,242.16c-1.9,8.43,4,8.75.36,19.72" fill="none" stroke="#fff" stroke-miterlimit="10"/>
                <polygon points="353.64 242.2 355.03 240.77 355.57 242.69 353.64 242.2" fill="#fff"/>
              </g>
            </g>
            <g>
              <path d="m361.34,243.48c-2.16,7.29,2.84,7.11,0,15.68" fill="#001f71"/>
              <g>
                <path d="m361,244.88c-1.16,5.91,2.99,6.3.35,14.29" fill="none" stroke="#fff" stroke-miterlimit="10"/>
                <polygon points="359.98 244.94 361.34 243.48 361.92 245.39 359.98 244.94" fill="#fff"/>
              </g>
            </g>
            <g>
              <path d="m348.83,243.48c-2.16,7.29,2.84,7.11,0,15.68" fill="#001f71"/>
              <g>
                <path d="m348.48,244.88c-1.16,5.91,2.99,6.3.35,14.29" fill="none" stroke="#fff" stroke-miterlimit="10"/>
                <polygon points="347.46 244.94 348.83 243.48 349.4 245.39 347.46 244.94" fill="#fff"/>
              </g>
            </g>
          </g>
        </g>
        <polyline points="266.41 266.09 294.17 266.09 294.17 266.08 294.17 222.41 280.03 222.41 332.68 159.82 362.55 192.76" fill="none" stroke="#fff" stroke-miterlimit="10"/>
        <g>
          <polyline class="heating" points="332.3 257.48 310.27 257.4 322.23 248.75" fill="none" stroke="#fff" stroke-linejoin="bevel"/>
          <polygon points="322.58 249.73 323.39 247.91 321.41 248.11 322.58 249.73" fill="#fff"/>
        </g>
        <g>
          <polyline class="heating" points="344.97 226.89 339.25 195.31 351.16 205.39" fill="none" stroke="#fff" stroke-linejoin="bevel"/>
          <polygon points="350.29 205.96 352.25 206.32 351.58 204.44 350.29 205.96" fill="#fff"/>
        </g>
        <g>
          <polyline class="heating" points="332.39 241.94 310.85 237.34 323.16 230.85" fill="none" stroke="#fff" stroke-linejoin="bevel"/>
          <polygon points="323.37 231.87 324.43 230.18 322.44 230.1 323.37 231.87" fill="#fff"/>
        </g>
        <g>
          <polyline class="heating" points="338.02 229.85 310.85 210.6 323.09 205.97" fill="none" stroke="#fff" stroke-linejoin="bevel"/>
          <polygon points="323.17 207 324.43 205.46 322.46 205.14 323.17 207" fill="#fff"/>
        </g>
        <g>
          <line x1="300.67" y1="267.34" x2="300.67" y2="266.34" fill="none" stroke="#fff" stroke-miterlimit="10"/>
          <polyline points="300.67 265.35 300.67 208.98 331.51 173.59" fill="none" stroke="#fff" stroke-dasharray="0 0 1.98 .99" stroke-miterlimit="10"/>
          <polyline points="331.83 173.22 332.49 172.47 333.18 173.19" fill="none" stroke="#fff" stroke-miterlimit="10"/>
          <line x1="333.87" y1="173.91" x2="356.22" y2="197.23" fill="none" stroke="#fff" stroke-dasharray="0 0 1.99 .99" stroke-miterlimit="10"/>
          <line x1="356.56" y1="197.59" x2="357.26" y2="198.31" fill="none" stroke="#fff" stroke-miterlimit="10"/>
        </g>
      </g>
    </g>
    <g>
      <circle cx="207.94" cy="171.37" r="40.43" fill="#2db1bd"/>
      <g>
        <polyline points="95.42 175.24 155.7 175.24 195.71 105.91" fill="none" stroke="#fff" stroke-miterlimit="10"/>
        <g>
          <polygon points="152.54 170.86 96.19 170.86 136.86 100.42 193.21 100.42 152.54 170.86" fill="#001f71" stroke="#fff" stroke-miterlimit="10"/>
          <line x1="150.95" y1="100.42" x2="110.28" y2="170.86" fill="#001f71" stroke="#fff" stroke-miterlimit="10"/>
          <line x1="165.03" y1="100.42" x2="124.37" y2="170.86" fill="#001f71" stroke="#fff" stroke-miterlimit="10"/>
          <line x1="179.12" y1="100.42" x2="138.45" y2="170.86" fill="#001f71" stroke="#fff" stroke-miterlimit="10"/>
          <line x1="185.08" y1="114.51" x2="128.73" y2="114.51" fill="#001f71" stroke="#fff" stroke-miterlimit="10"/>
          <line x1="176.94" y1="128.6" x2="120.59" y2="128.6" fill="#001f71" stroke="#fff" stroke-miterlimit="10"/>
          <line x1="168.81" y1="142.69" x2="112.46" y2="142.69" fill="#001f71" stroke="#fff" stroke-miterlimit="10"/>
          <line x1="160.68" y1="156.77" x2="104.32" y2="156.77" fill="#001f71" stroke="#fff" stroke-miterlimit="10"/>
        </g>
        <circle id="sun" cx="120.59" cy="50.85" r="13.39" fill="#001f71" stroke="#fff" stroke-miterlimit="10"/>
        <g id="sunrays">
          <g id="_Radial_Repeat_" data-name="&amp;lt;Radial Repeat&amp;gt;">
            <line x1="120.59" y1="80.09" x2="120.59" y2="72.41" fill="none" stroke="#fff" stroke-miterlimit="10"/>
          </g>
          <g id="_Radial_Repeat_-2" data-name="&amp;lt;Radial Repeat&amp;gt;">
            <line x1="109.4" y1="77.87" x2="112.34" y2="70.77" fill="none" stroke="#fff" stroke-miterlimit="10"/>
          </g>
          <g id="_Radial_Repeat_-3" data-name="&amp;lt;Radial Repeat&amp;gt;">
            <line x1="99.91" y1="71.53" x2="105.35" y2="66.09" fill="none" stroke="#fff" stroke-miterlimit="10"/>
          </g>
          <g id="_Radial_Repeat_-4" data-name="&amp;lt;Radial Repeat&amp;gt;">
            <line x1="93.57" y1="62.04" x2="100.68" y2="59.1" fill="none" stroke="#fff" stroke-miterlimit="10"/>
          </g>
          <g id="_Radial_Repeat_-5" data-name="&amp;lt;Radial Repeat&amp;gt;">
            <line x1="91.35" y1="50.85" x2="99.03" y2="50.85" fill="none" stroke="#fff" stroke-miterlimit="10"/>
          </g>
          <g id="_Radial_Repeat_-6" data-name="&amp;lt;Radial Repeat&amp;gt;">
            <line x1="93.57" y1="39.66" x2="100.68" y2="42.6" fill="none" stroke="#fff" stroke-miterlimit="10"/>
          </g>
          <g id="_Radial_Repeat_-7" data-name="&amp;lt;Radial Repeat&amp;gt;">
            <line x1="99.91" y1="30.17" x2="105.35" y2="35.61" fill="none" stroke="#fff" stroke-miterlimit="10"/>
          </g>
          <g id="_Radial_Repeat_-8" data-name="&amp;lt;Radial Repeat&amp;gt;">
            <line x1="109.4" y1="23.83" x2="112.34" y2="30.93" fill="none" stroke="#fff" stroke-miterlimit="10"/>
          </g>
          <g id="_Radial_Repeat_-9" data-name="&amp;lt;Radial Repeat&amp;gt;">
            <line x1="120.59" y1="21.61" x2="120.59" y2="29.3" fill="none" stroke="#fff" stroke-miterlimit="10"/>
          </g>
          <g id="_Radial_Repeat_-10" data-name="&amp;lt;Radial Repeat&amp;gt;">
            <line x1="131.78" y1="23.83" x2="128.84" y2="30.93" fill="none" stroke="#fff" stroke-miterlimit="10"/>
          </g>
          <g id="_Radial_Repeat_-11" data-name="&amp;lt;Radial Repeat&amp;gt;">
            <line x1="141.27" y1="30.17" x2="135.84" y2="35.61" fill="none" stroke="#fff" stroke-miterlimit="10"/>
          </g>
          <g id="_Radial_Repeat_-12" data-name="&amp;lt;Radial Repeat&amp;gt;">
            <line x1="147.61" y1="39.66" x2="140.51" y2="42.6" fill="none" stroke="#fff" stroke-miterlimit="10"/>
          </g>
          <g id="_Radial_Repeat_-13" data-name="&amp;lt;Radial Repeat&amp;gt;">
            <line x1="149.84" y1="50.85" x2="142.15" y2="50.85" fill="none" stroke="#fff" stroke-miterlimit="10"/>
          </g>
          <g id="_Radial_Repeat_-14" data-name="&amp;lt;Radial Repeat&amp;gt;">
            <line x1="147.61" y1="62.04" x2="140.51" y2="59.1" fill="none" stroke="#fff" stroke-miterlimit="10"/>
          </g>
          <g id="_Radial_Repeat_-15" data-name="&amp;lt;Radial Repeat&amp;gt;">
            <line x1="141.27" y1="71.53" x2="135.83" y2="66.09" fill="none" stroke="#fff" stroke-miterlimit="10"/>
          </g>
          <g id="_Radial_Repeat_-16" data-name="&amp;lt;Radial Repeat&amp;gt;">
            <line x1="131.78" y1="77.87" x2="128.84" y2="70.77" fill="none" stroke="#fff" stroke-miterlimit="10"/>
          </g>
        </g>
        <rect x="179.12" y="155.24" width="18.32" height="24.64" fill="#001f71" stroke="#fff" stroke-miterlimit="10"/>
        <line x1="110.28" y1="175.24" x2="110.28" y2="184.68" fill="none" stroke="#fff" stroke-linecap="square" stroke-miterlimit="10"/>
        <line x1="138.45" y1="175.24" x2="138.45" y2="184.68" fill="none" stroke="#fff" stroke-linecap="square" stroke-miterlimit="10"/>
        <line x1="188.8" y1="117.89" x2="188.8" y2="155.24" fill="#fff" stroke="#fff" stroke-miterlimit="10"/>
        <line x1="160.68" y1="166.62" x2="179.12" y2="166.62" fill="#fff" stroke="#fff" stroke-miterlimit="10"/>
        <line x1="174.5" y1="184.68" x2="203.1" y2="184.68" fill="#fff" stroke="#fff" stroke-miterlimit="10"/>
        <polyline points="188.55 160.68 185.48 167.76 191.08 167.76 187.7 175.9" fill="none" stroke="#fff" stroke-miterlimit="10"/>
        <g>
          <line x1="207.7" y1="184.68" x2="236.3" y2="184.68" fill="#fff" stroke="#fff" stroke-miterlimit="10"/>
          <path class="wind" d="m172.84,56.91c15.8,8.25,27.56-7.05,40.94,0" fill="none" stroke="#fff" stroke-miterlimit="10"/>
          <path class="wind" d="m196.72,49.35c.51-.17.98-.3,1.49-.47,6.09-1.75,11.92-3.28,18.1,0" fill="none" stroke="#fff" stroke-miterlimit="10"/>
          <path class="wind" d="m178.16,39.74c15.8,8.25,27.56-7.05,40.94,0" fill="none" stroke="#fff" stroke-miterlimit="10"/>
          <g>
            <polygon points="227.69 155.24 223.65 77.74 219.79 77.74 216.17 155.24 212.84 155.24 212.84 179.88 231.16 179.88 231.16 155.24 227.69 155.24" fill="#001f71"/>
            <polygon points="227.69 155.24 223.65 77.74 219.79 77.74 216.17 155.24 212.84 155.24 212.84 179.88 231.16 179.88 231.16 155.24 227.69 155.24" fill="none" stroke="#fff" stroke-miterlimit="10"/>
          </g>
          <polyline points="222.41 160.08 219.34 167.16 224.94 167.16 221.56 175.3" fill="none" stroke="#fff" stroke-miterlimit="10"/>
          <g>
            <g id="turbine">
              <g id="_Radial_Repeat_-17" data-name="&amp;lt;Radial Repeat&amp;gt;">
                <path d="m249.21,126.06s-1.55-31.39-19.09-42.45c-.6.52-1.12.96-1.58,1.35l-4.35-6.34-2.73,1.47,3.12,5.78.91,1.69,1.45,2.69,19.97,37.05,2.3-1.24Z" fill="#001f71" stroke="#fff" stroke-miterlimit="10"/>
              </g>
              <g id="_Radial_Repeat_-18" data-name="&amp;lt;Radial Repeat&amp;gt;">
                <path d="m165.41,76.76s27.96,14.35,46.31,4.69c-.14-.78-.27-1.45-.38-2.04l7.67-.6.09-3.1-6.57-.19-1.92-.06-3.05-.09-42.07-1.23-.08,2.61Z" fill="#001f71" stroke="#fff" stroke-miterlimit="10"/>
              </g>
              <g id="_Radial_Repeat_-19" data-name="&amp;lt;Radial Repeat&amp;gt;">
                <path d="m250.01,28.83s-26.41,17.04-27.22,37.76c.75.27,1.39.49,1.96.69l-3.32,6.94,2.64,1.63,3.45-5.59,1.01-1.63,1.6-2.6,22.1-35.82-2.22-1.37Z" fill="#001f71" stroke="#fff" stroke-miterlimit="10"/>
              </g>
            </g>
            <circle cx="221.46" cy="77.44" r="5.15" fill="#001f71" stroke="#fff" stroke-miterlimit="10"/>
          </g>
        </g>
      </g>
    </g>
  </g>
</svg>