<?xml version="1.0" encoding="UTF-8"?>
<svg id="Layer_1" data-name="Layer 1" xmlns="http://www.w3.org/2000/svg" width="210mm" height="119.25mm" viewBox="0 0 595.28 338.03">
  <line x1="52.69" y1="216.8" x2="135.25" y2="216.8" fill="#004535" stroke="#fff" stroke-miterlimit="10"/>
  <line x1="136.8" y1="241.03" x2="219.36" y2="241.03" fill="#004535" stroke="#fff" stroke-miterlimit="10"/>
  <style>
    #certificate{
    }

    #deer{
      transform-origin: 296px 294px;
      transform: translateX(0px) rotate(0deg);
      transition: 500ms;
      transition-timing-function: ease-in-out;
    }

    #hidden-deer:hover #deer{
      transform: translateX(40px) rotate(10deg);
    }

    .st0 {
      fill:#004535;
    }



  </style>
  <rect xmlns="http://www.w3.org/2000/svg" class="st0" width="595.3" height="338"/>
  <g>
    <g>
      <path d="m409.14,131.89c2.46-2.62,4.18-5.99,4.73-9.82,1.44-9.94-5.46-19.17-15.4-20.6-4.72-.68-9.27.53-12.91,3.04-3.47-3.79-8.21-6.45-13.69-7.24-12.59-1.82-24.27,6.91-26.09,19.5-.58,4.01-.09,7.93,1.26,11.46-.79-.17-1.6-.26-2.44-.26-6.49,0-11.76,5.26-11.76,11.76,0,2.84,1.01,5.45,2.69,7.48-1.11,1.93-1.89,4.1-2.23,6.44-1.44,9.94,5.46,19.17,15.4,20.6,7.89,1.14,15.32-2.98,18.77-9.69,1.61.5,3.32.77,5.09.77,4.7,0,8.96-1.89,12.06-4.96,3.47,3.85,8.48,6.29,14.07,6.29,10.47,0,18.95-8.49,18.95-18.95,0-6.6-3.38-12.41-8.5-15.81Z" fill="#004535"/>
      <path d="m409.14,131.89c2.46-2.62,4.18-5.99,4.73-9.82,1.44-9.94-5.46-19.17-15.4-20.6-4.72-.68-9.27.53-12.91,3.04-3.47-3.79-8.21-6.45-13.69-7.24-12.59-1.82-24.27,6.91-26.09,19.5-.58,4.01-.09,7.93,1.26,11.46-.79-.17-1.6-.26-2.44-.26-6.49,0-11.76,5.26-11.76,11.76,0,2.84,1.01,5.45,2.69,7.48-1.11,1.93-1.89,4.1-2.23,6.44-1.44,9.94,5.46,19.17,15.4,20.6,7.89,1.14,15.32-2.98,18.77-9.69,1.61.5,3.32.77,5.09.77,4.7,0,8.96-1.89,12.06-4.96,3.47,3.85,8.48,6.29,14.07,6.29,10.47,0,18.95-8.49,18.95-18.95,0-6.6-3.38-12.41-8.5-15.81Z" fill="none" stroke="#fff" stroke-miterlimit="10"/>
    </g>
    <polyline points="373.86 188.17 373.86 183.76 359.86 169.4" fill="#004535" stroke="#fff" stroke-miterlimit="10"/>
    <line x1="373.86" y1="183.76" x2="388.81" y2="162.88" fill="#004535" stroke="#fff" stroke-miterlimit="10"/>
    <line x1="373.86" y1="188.17" x2="373.86" y2="163.85" fill="#004535" stroke="#fff" stroke-miterlimit="10"/>
  </g>
  <g>
    <g>
      <path d="m277.96,125.68c2.46-2.62,4.18-5.99,4.73-9.82,1.44-9.94-5.46-19.17-15.4-20.6-4.72-.68-9.27.53-12.91,3.04-3.47-3.79-8.21-6.45-13.69-7.24-12.59-1.82-24.27,6.91-26.09,19.5-.58,4.01-.09,7.93,1.26,11.46-.79-.17-1.6-.26-2.44-.26-6.49,0-11.76,5.26-11.76,11.76,0,2.84,1.01,5.45,2.69,7.48-1.11,1.93-1.89,4.1-2.23,6.44-1.44,9.94,5.46,19.17,15.4,20.6,7.89,1.14,15.32-2.98,18.77-9.69,1.61.5,3.32.77,5.09.77,4.7,0,8.96-1.89,12.06-4.96,3.47,3.85,8.48,6.29,14.07,6.29,10.47,0,18.95-8.49,18.95-18.95,0-6.6-3.38-12.41-8.5-15.81Z" fill="#004535"/>
      <path d="m277.96,125.68c2.46-2.62,4.18-5.99,4.73-9.82,1.44-9.94-5.46-19.17-15.4-20.6-4.72-.68-9.27.53-12.91,3.04-3.47-3.79-8.21-6.45-13.69-7.24-12.59-1.82-24.27,6.91-26.09,19.5-.58,4.01-.09,7.93,1.26,11.46-.79-.17-1.6-.26-2.44-.26-6.49,0-11.76,5.26-11.76,11.76,0,2.84,1.01,5.45,2.69,7.48-1.11,1.93-1.89,4.1-2.23,6.44-1.44,9.94,5.46,19.17,15.4,20.6,7.89,1.14,15.32-2.98,18.77-9.69,1.61.5,3.32.77,5.09.77,4.7,0,8.96-1.89,12.06-4.96,3.47,3.85,8.48,6.29,14.07,6.29,10.47,0,18.95-8.49,18.95-18.95,0-6.6-3.38-12.41-8.5-15.81Z" fill="none" stroke="#fff" stroke-miterlimit="10"/>
    </g>
    <polyline points="242.69 181.95 242.69 177.54 228.69 163.18" fill="#004535" stroke="#fff" stroke-miterlimit="10"/>
    <line x1="242.69" y1="177.54" x2="257.64" y2="156.66" fill="#004535" stroke="#fff" stroke-miterlimit="10"/>
    <line x1="242.69" y1="181.95" x2="242.69" y2="157.63" fill="#004535" stroke="#fff" stroke-miterlimit="10"/>
  </g>
  <g>
    <polyline points="208.69 203.89 208.69 168.44 199.53 168.44 199.53 203.89" fill="#004535" stroke="#fff" stroke-miterlimit="10"/>
    <g>
      <polygon points="186.77 160.11 220.95 160.11 204.46 188.96 186.77 160.11" fill="#004535" stroke="#fff" stroke-miterlimit="10"/>
      <g>
        <polygon points="247 188.37 221.68 141.35 230.61 143.79 215.84 111.46 222.01 113.14 204.2 67.46 186.69 113.14 192.52 111.66 178.08 143.79 186.54 141.44 164.39 183.28 185.65 177.69 179.44 191.5 204.12 183.27 230.61 194.53 224.01 180.08 247 188.37" fill="#004535"/>
        <polygon points="247 188.37 221.68 141.35 230.61 143.79 215.84 111.46 222.01 113.14 204.2 67.46 186.69 113.14 192.52 111.66 178.08 143.79 186.54 141.44 164.39 183.28 185.65 177.69 179.44 191.5 204.12 183.27 230.61 194.53 224.01 180.08 247 188.37" fill="none" stroke="#fff" stroke-miterlimit="10"/>
      </g>
    </g>
  </g>
  <g>
    <polyline points="337.19 204.98 337.19 159.4 325.4 159.4 325.4 204.98" fill="#004535" stroke="#fff" stroke-miterlimit="10"/>
    <g>
      <polygon points="386.43 185.03 353.88 124.58 365.36 127.72 346.37 86.16 354.3 88.31 331.41 29.59 308.9 88.31 316.39 86.41 297.84 127.72 308.71 124.7 280.23 178.49 307.56 171.29 299.58 189.05 331.31 178.47 365.36 192.94 356.88 174.37 386.43 185.03" fill="#004535"/>
      <polygon points="386.43 185.03 353.88 124.58 365.36 127.72 346.37 86.16 354.3 88.31 331.41 29.59 308.9 88.31 316.39 86.41 297.84 127.72 308.71 124.7 280.23 178.49 307.56 171.29 299.58 189.05 331.31 178.47 365.36 192.94 356.88 174.37 386.43 185.03" fill="none" stroke="#fff" stroke-miterlimit="10"/>
    </g>
  </g>
  <g>
    <polyline points="117.27 204.98 117.27 169.25 108.03 169.25 108.03 204.98" fill="#004535" stroke="#fff" stroke-miterlimit="10"/>
    <g>
      <polygon points="155.88 189.34 130.36 141.94 139.36 144.4 124.47 111.81 130.69 113.5 112.74 67.46 95.09 113.5 100.97 112.01 86.42 144.4 94.95 142.03 72.61 184.21 94.04 178.57 87.79 192.49 112.67 184.19 139.36 195.54 132.71 180.98 155.88 189.34" fill="#004535"/>
      <polygon points="155.88 189.34 130.36 141.94 139.36 144.4 124.47 111.81 130.69 113.5 112.74 67.46 95.09 113.5 100.97 112.01 86.42 144.4 94.95 142.03 72.61 184.21 94.04 178.57 87.79 192.49 112.67 184.19 139.36 195.54 132.71 180.98 155.88 189.34" fill="none" stroke="#fff" stroke-miterlimit="10"/>
    </g>
  </g>
  <g>
    <g>
      <path d="m287.76,145.16c-7.26,0-13.66,3.65-17.48,9.2-6.38.09-11.53,5.29-11.53,11.69s4.91,11.34,11.08,11.67c3.76,5.94,10.38,9.9,17.94,9.9,11.73,0,21.23-9.51,21.23-21.23s-9.51-21.23-21.23-21.23Z" fill="#004535"/>
      <path d="m287.76,145.16c-7.26,0-13.66,3.65-17.48,9.2-6.38.09-11.53,5.29-11.53,11.69s4.91,11.34,11.08,11.67c3.76,5.94,10.38,9.9,17.94,9.9,11.73,0,21.23-9.51,21.23-21.23s-9.51-21.23-21.23-21.23Z" fill="none" stroke="#fff" stroke-miterlimit="10"/>
    </g>
    <polyline points="286.48 205.3 286.06 181.81 266.14 163.11 270.64 157.11 288.93 172.67 301.21 139.47 307.98 142.27 296.12 180.4 295.81 205.3" fill="#004535" stroke="#fff" stroke-miterlimit="10"/>
    <g>
      <path d="m333.33,136.4c0-11.54-7.71-21.27-18.26-24.34.5-2.22.77-4.52.77-6.89,0-8.37-3.3-15.97-8.67-21.57.38-1.39.6-2.84.6-4.35,0-9.08-7.36-16.44-16.44-16.44-5.39,0-10.17,2.61-13.16,6.62-1.56-.49-3.21-.75-4.93-.75-9.08,0-16.44,7.36-16.44,16.44,0,1.63.25,3.2.69,4.68-2.21,3.89-3.6,8.29-3.95,12.99-8.87,4.25-15,13.32-15,23.82,0,7.69,3.29,14.6,8.53,19.43-.8,2.18-1.25,4.52-1.25,6.97,0,11.23,9.11,20.34,20.34,20.34s20.34-9.11,20.34-20.34c0-1.3-.13-2.56-.37-3.79,3.25,5.53,8.54,9.72,14.84,11.53-.14.62-.22,1.26-.22,1.93,0,4.89,3.97,8.86,8.86,8.86s8.86-3.97,8.86-8.86c0-1.04-.19-2.03-.52-2.96,9.05-3.87,15.4-12.85,15.4-23.32Z" fill="#004535"/>
      <path d="m333.33,136.4c0-11.54-7.71-21.27-18.26-24.34.5-2.22.77-4.52.77-6.89,0-8.37-3.3-15.97-8.67-21.57.38-1.39.6-2.84.6-4.35,0-9.08-7.36-16.44-16.44-16.44-5.39,0-10.17,2.61-13.16,6.62-1.56-.49-3.21-.75-4.93-.75-9.08,0-16.44,7.36-16.44,16.44,0,1.63.25,3.2.69,4.68-2.21,3.89-3.6,8.29-3.95,12.99-8.87,4.25-15,13.32-15,23.82,0,7.69,3.29,14.6,8.53,19.43-.8,2.18-1.25,4.52-1.25,6.97,0,11.23,9.11,20.34,20.34,20.34s20.34-9.11,20.34-20.34c0-1.3-.13-2.56-.37-3.79,3.25,5.53,8.54,9.72,14.84,11.53-.14.62-.22,1.26-.22,1.93,0,4.89,3.97,8.86,8.86,8.86s8.86-3.97,8.86-8.86c0-1.04-.19-2.03-.52-2.96,9.05-3.87,15.4-12.85,15.4-23.32Z" fill="none" stroke="#fff" stroke-miterlimit="10"/>
    </g>
  </g>
  <g>
    <g>
      <path d="m496.55,158.82c-.21,0-.41.02-.62.03-2.25-9.31-10.62-16.23-20.61-16.23-11.73,0-21.23,9.51-21.23,21.23s9.51,21.23,21.23,21.23c5.39,0,10.3-2.03,14.05-5.34,1.98,1.55,4.47,2.48,7.18,2.48,6.46,0,11.7-5.24,11.7-11.7s-5.24-11.7-11.7-11.7Z" fill="#004535"/>
      <path d="m496.55,158.82c-.21,0-.41.02-.62.03-2.25-9.31-10.62-16.23-20.61-16.23-11.73,0-21.23,9.51-21.23,21.23s9.51,21.23,21.23,21.23c5.39,0,10.3-2.03,14.05-5.34,1.98,1.55,4.47,2.48,7.18,2.48,6.46,0,11.7-5.24,11.7-11.7s-5.24-11.7-11.7-11.7Z" fill="none" stroke="#fff" stroke-miterlimit="10"/>
    </g>
    <polyline points="482.11 205.3 482.54 181.81 502.45 163.11 497.96 157.11 479.66 172.67 467.39 139.47 460.61 142.27 472.48 180.4 472.78 205.3" fill="#004535" stroke="#fff" stroke-miterlimit="10"/>
    <g>
      <path d="m528.12,126.84c0-7.53-3.16-14.32-8.21-19.12.59-1.7.93-3.52.93-5.42,0-9.05-7.32-16.39-16.36-16.44-5.28-7.79-14.2-12.91-24.31-12.91-16.21,0-29.35,13.14-29.35,29.35,0,.28.01.57.02.85-2.99,2.98-4.84,7.09-4.84,11.65,0,3.64,1.19,6.98,3.19,9.71-4.04,4.49-6.49,10.43-6.49,16.94s2.52,12.6,6.65,17.11c-.73,1.29-1.16,2.78-1.16,4.37,0,4.89,3.97,8.86,8.86,8.86,3.57,0,6.64-2.12,8.04-5.16.97.11,1.95.18,2.95.18,5.3,0,10.23-1.63,14.3-4.42,3.35,6.64,10.21,11.21,18.16,11.21,11.23,0,20.34-9.11,20.34-20.34,0-2.45-.46-4.79-1.25-6.97,5.24-4.83,8.53-11.74,8.53-19.43Z" fill="#004535"/>
      <path d="m528.12,126.84c0-7.53-3.16-14.32-8.21-19.12.59-1.7.93-3.52.93-5.42,0-9.05-7.32-16.39-16.36-16.44-5.28-7.79-14.2-12.91-24.31-12.91-16.21,0-29.35,13.14-29.35,29.35,0,.28.01.57.02.85-2.99,2.98-4.84,7.09-4.84,11.65,0,3.64,1.19,6.98,3.19,9.71-4.04,4.49-6.49,10.43-6.49,16.94s2.52,12.6,6.65,17.11c-.73,1.29-1.16,2.78-1.16,4.37,0,4.89,3.97,8.86,8.86,8.86,3.57,0,6.64-2.12,8.04-5.16.97.11,1.95.18,2.95.18,5.3,0,10.23-1.63,14.3-4.42,3.35,6.64,10.21,11.21,18.16,11.21,11.23,0,20.34-9.11,20.34-20.34,0-2.45-.46-4.79-1.25-6.97,5.24-4.83,8.53-11.74,8.53-19.43Z" fill="none" stroke="#fff" stroke-miterlimit="10"/>
    </g>
  </g>
  <g>
    <path d="m132.38,204.6h82.14c.94-2.08,1.46-4.38,1.46-6.81,0-9.2-7.46-16.66-16.66-16.66-2.79,0-5.41.69-7.72,1.9-1.54-.77-3.18-1.37-4.89-1.79-1.15-6.52-6.83-11.49-13.68-11.49-2.29,0-4.45.56-6.36,1.55-2.68-2.39-6.2-3.85-10.08-3.85-8.38,0-15.17,6.79-15.17,15.17,0,2.81.78,5.43,2.11,7.69-6.05,2.17-10.5,7.67-11.15,14.3Z" fill="#004535"/>
    <path d="m132.38,204.6h82.14c.94-2.08,1.46-4.38,1.46-6.81,0-9.2-7.46-16.66-16.66-16.66-2.79,0-5.41.69-7.72,1.9-1.54-.77-3.18-1.37-4.89-1.79-1.15-6.52-6.83-11.49-13.68-11.49-2.29,0-4.45.56-6.36,1.55-2.68-2.39-6.2-3.85-10.08-3.85-8.38,0-15.17,6.79-15.17,15.17,0,2.81.78,5.43,2.11,7.69-6.05,2.17-10.5,7.67-11.15,14.3Z" fill="none" stroke="#fff" stroke-miterlimit="10"/>
  </g>
  <g>
    <path d="m181.6,204.6h82.14c.94-2.08,1.46-4.38,1.46-6.81,0-9.2-7.46-16.66-16.66-16.66-1.57,0-3.08.23-4.52.64-.44-7.28-6.47-13.05-13.86-13.05-4.94,0-9.27,2.58-11.74,6.47-2.46-1.71-5.43-2.72-8.65-2.72-8.38,0-15.17,6.79-15.17,15.17,0,.71.07,1.4.16,2.09-7.05,1.58-12.44,7.54-13.15,14.89Z" fill="#004535"/>
    <path d="m181.6,204.6h82.14c.94-2.08,1.46-4.38,1.46-6.81,0-9.2-7.46-16.66-16.66-16.66-1.57,0-3.08.23-4.52.64-.44-7.28-6.47-13.05-13.86-13.05-4.94,0-9.27,2.58-11.74,6.47-2.46-1.71-5.43-2.72-8.65-2.72-8.38,0-15.17,6.79-15.17,15.17,0,.71.07,1.4.16,2.09-7.05,1.58-12.44,7.54-13.15,14.89Z" fill="none" stroke="#fff" stroke-miterlimit="10"/>
  </g>
  <g>
    <g>
      <path d="m143.43,241.03c-.21,0-.41.02-.62.03-2.25-9.31-10.62-16.23-20.61-16.23-11.73,0-21.23,9.51-21.23,21.23s9.51,21.23,21.23,21.23c5.39,0,10.3-2.03,14.05-5.34,1.98,1.55,4.47,2.48,7.18,2.48,6.46,0,11.7-5.24,11.7-11.7s-5.24-11.7-11.7-11.7Z" fill="#004535"/>
      <path d="m143.43,241.03c-.21,0-.41.02-.62.03-2.25-9.31-10.62-16.23-20.61-16.23-11.73,0-21.23,9.51-21.23,21.23s9.51,21.23,21.23,21.23c5.39,0,10.3-2.03,14.05-5.34,1.98,1.55,4.47,2.48,7.18,2.48,6.46,0,11.7-5.24,11.7-11.7s-5.24-11.7-11.7-11.7Z" fill="none" stroke="#fff" stroke-miterlimit="10"/>
    </g>
    <polyline points="129 287.52 129.42 264.03 149.34 245.32 144.84 239.32 126.54 254.88 114.27 221.68 107.5 224.48 119.36 262.61 119.67 287.52" fill="#004535" stroke="#fff" stroke-miterlimit="10"/>
    <g>
      <path d="m175,209.05c0-7.53-3.16-14.32-8.21-19.12.59-1.7.93-3.52.93-5.42,0-9.05-7.32-16.39-16.36-16.44-5.28-7.79-14.2-12.91-24.31-12.91-16.21,0-29.35,13.14-29.35,29.35,0,.28.01.57.02.85-2.99,2.98-4.84,7.09-4.84,11.65,0,3.64,1.19,6.98,3.19,9.71-4.04,4.49-6.49,10.43-6.49,16.94s2.52,12.6,6.65,17.11c-.73,1.29-1.16,2.78-1.16,4.37,0,4.89,3.97,8.86,8.86,8.86,3.57,0,6.64-2.12,8.04-5.16.97.11,1.95.18,2.95.18,5.3,0,10.23-1.63,14.3-4.42,3.35,6.64,10.21,11.21,18.16,11.21,11.23,0,20.34-9.11,20.34-20.34,0-2.45-.46-4.79-1.25-6.97,5.24-4.83,8.53-11.74,8.53-19.43Z" fill="#004535"/>
      <path d="m175,209.05c0-7.53-3.16-14.32-8.21-19.12.59-1.7.93-3.52.93-5.42,0-9.05-7.32-16.39-16.36-16.44-5.28-7.79-14.2-12.91-24.31-12.91-16.21,0-29.35,13.14-29.35,29.35,0,.28.01.57.02.85-2.99,2.98-4.84,7.09-4.84,11.65,0,3.64,1.19,6.98,3.19,9.71-4.04,4.49-6.49,10.43-6.49,16.94s2.52,12.6,6.65,17.11c-.73,1.29-1.16,2.78-1.16,4.37,0,4.89,3.97,8.86,8.86,8.86,3.57,0,6.64-2.12,8.04-5.16.97.11,1.95.18,2.95.18,5.3,0,10.23-1.63,14.3-4.42,3.35,6.64,10.21,11.21,18.16,11.21,11.23,0,20.34-9.11,20.34-20.34,0-2.45-.46-4.79-1.25-6.97,5.24-4.83,8.53-11.74,8.53-19.43Z" fill="none" stroke="#fff" stroke-miterlimit="10"/>
    </g>
  </g>
  <g>
    <path d="m65.18,316.14h96.59c1.1-2.44,1.72-5.15,1.72-8.01,0-10.82-8.77-19.59-19.59-19.59-3.28,0-6.36.81-9.07,2.24-1.82-.9-3.74-1.61-5.75-2.1-1.35-7.67-8.03-13.51-16.09-13.51-2.7,0-5.23.66-7.47,1.82-3.15-2.81-7.3-4.53-11.85-4.53-9.85,0-17.84,7.99-17.84,17.84,0,3.3.91,6.39,2.48,9.04-7.11,2.55-12.35,9.02-13.11,16.81Z" fill="#004535"/>
    <path d="m65.18,316.14h96.59c1.1-2.44,1.72-5.15,1.72-8.01,0-10.82-8.77-19.59-19.59-19.59-3.28,0-6.36.81-9.07,2.24-1.82-.9-3.74-1.61-5.75-2.1-1.35-7.67-8.03-13.51-16.09-13.51-2.7,0-5.23.66-7.47,1.82-3.15-2.81-7.3-4.53-11.85-4.53-9.85,0-17.84,7.99-17.84,17.84,0,3.3.91,6.39,2.48,9.04-7.11,2.55-12.35,9.02-13.11,16.81Z" fill="none" stroke="#fff" stroke-miterlimit="10"/>
  </g>
  <line x1="354.58" y1="305.55" x2="437.15" y2="305.55" fill="#004535" stroke="#fff" stroke-miterlimit="10"/>
  <line x1="462.44" y1="205" x2="510.34" y2="205" fill="#004535" stroke="#fff" stroke-miterlimit="10"/>
  <g>
    <path d="m427.61,206.3c-.83-9.9-7.43-18.16-16.43-21.41,1.95-3.32,3.07-7.18,3.07-11.31,0-12.34-10-22.34-22.34-22.34-5.71,0-10.91,2.14-14.86,5.66-2.8-1.44-5.97-2.27-9.34-2.27-10.09,0-18.46,7.31-20.15,16.92-15.47,3.81-26.94,17.77-26.94,34.41,0,.11,0,.22,0,.33h106.99Z" fill="#004535"/>
    <path d="m427.61,206.3c-.83-9.9-7.43-18.16-16.43-21.41,1.95-3.32,3.07-7.18,3.07-11.31,0-12.34-10-22.34-22.34-22.34-5.71,0-10.91,2.14-14.86,5.66-2.8-1.44-5.97-2.27-9.34-2.27-10.09,0-18.46,7.31-20.15,16.92-15.47,3.81-26.94,17.77-26.94,34.41,0,.11,0,.22,0,.33h106.99Z" fill="none" stroke="#fff" stroke-miterlimit="10"/>
  </g>
  
  <g id="hidden-deer">
    <g id="deer">
      <g>
        <path d="m304.19,203.39c0-.08,1.12-5.47-5.51-7.28-.57,1.48-1.39,4.49.95,7.18" fill="#004535" stroke="#fff" stroke-miterlimit="10"/>
        <path d="m308.41,204.22c.05-.06,3.71-3.07,8.83-.81-.62,2.19-2.88,6.15-7.63,5.28" fill="#004535" stroke="#fff" stroke-miterlimit="10"/>
        <g>
          <path d="m308.9,204.73c-9.16-4.36-16.29,1.91-16.74,2.21l.04,3.39s2.88,1.74,7.49,2.21h-.05c-2.31,7.73-6.93,10.08-6.93,10.08l-20.4-6.64-16.37-8.48-10.29,7.27s-.06,14.09-9.83,17.11c-.03.09-5.9,15.34-5.9,15.34l2.82,1.09,6.64-13.03s14.07.26,19.03-9.47c-1.34,8.35,13.57,16.53,24.12,18.41l1.97,21.83h2.2s1.04-21.47,1.04-21.47c.03,0,.07,0,.1,0,1.08-.09,2.09-.23,3.07-.4l1.97,21.86h2.2s1.13-23.29,1.13-23.29c19.04-7.27,14.32-32.61,12.68-38.02Z" fill="#004535"/>
          <path d="m308.9,204.73c-9.16-4.36-16.29,1.91-16.74,2.21l.04,3.39s2.88,1.74,7.49,2.21h-.05c-2.31,7.73-6.93,10.08-6.93,10.08l-20.4-6.64-16.37-8.48-10.29,7.27s-.06,14.09-9.83,17.11c-.03.09-5.9,15.34-5.9,15.34l2.82,1.09,6.64-13.03s14.07.26,19.03-9.47c-1.34,8.35,13.57,16.53,24.12,18.41l1.97,21.83h2.2s1.04-21.47,1.04-21.47c.03,0,.07,0,.1,0,1.08-.09,2.09-.23,3.07-.4l1.97,21.86h2.2s1.13-23.29,1.13-23.29c19.04-7.27,14.32-32.61,12.68-38.02Z" fill="none" stroke="#fff" stroke-miterlimit="10"/>
        </g>
        <polyline points="306.59 203.96 314.52 198.7 327.73 198.75 334.39 190.13" fill="none" stroke="#fff" stroke-miterlimit="10"/>
        <polyline points="304.22 202.81 304.47 196.27 295.12 183.9 296.13 179.74" fill="none" stroke="#fff" stroke-miterlimit="10"/>
        <polyline points="306.94 180.29 304.97 185.4 306.08 188.72 314.73 183.29" fill="none" stroke="#fff" stroke-miterlimit="10"/>
        <line x1="301.88" y1="193.43" x2="306.16" y2="188.49" fill="none" stroke="#fff" stroke-miterlimit="10"/>
        <line x1="327" y1="188.77" x2="329.19" y2="196.85" fill="none" stroke="#fff" stroke-miterlimit="10"/>
        <polyline points="314.78 187.69 318.66 193.3 314.47 198.85" fill="none" stroke="#fff" stroke-miterlimit="10"/>
        <line x1="323.09" y1="190.12" x2="318.66" y2="193.3" fill="none" stroke="#fff" stroke-miterlimit="10"/>
      </g>
      <circle cx="302.94" cy="206.72" r="1.11" fill="#fff"/>
      <path d="m292.21,207.01s1.05-.77,1.82-1.21c.67,1.92-.49,2.66-1.81,2.63,0-.52-.02-1.41-.02-1.41Z" fill="#fff"/>
      <path d="m302.34,212.44s-1.11.32-3.49.03" fill="#004535" stroke="#fff" stroke-miterlimit="10"/>
    </g>
    <g id="certificate">
      <rect x="239.23" y="149.95" width="96.57" height="130.87" fill="#004535" stroke="#fff" stroke-miterlimit="10"/>
      <rect x="229.46" y="138.87" width="96.57" height="130.87" fill="#004535" stroke="#fff" stroke-miterlimit="10"/>
      <line x1="239.23" y1="151.67" x2="275.24" y2="151.67" fill="#004535" stroke="#fff" stroke-miterlimit="10"/>
      <line x1="239.23" y1="160.84" x2="275.24" y2="160.84" fill="#004535" stroke="#fff" stroke-miterlimit="10"/>
      <line x1="239.23" y1="177" x2="315.22" y2="177" fill="#004535" stroke="#fff" stroke-miterlimit="10"/>
      <line x1="239.23" y1="186.95" x2="315.22" y2="186.95" fill="#004535" stroke="#fff" stroke-miterlimit="10"/>
      <line x1="239.23" y1="196.9" x2="315.22" y2="196.9" fill="#004535" stroke="#fff" stroke-miterlimit="10"/>
      <line x1="239.23" y1="206.85" x2="315.22" y2="206.85" fill="#004535" stroke="#fff" stroke-miterlimit="10"/>
      <line x1="239.23" y1="216.8" x2="315.22" y2="216.8" fill="#004535" stroke="#fff" stroke-miterlimit="10"/>
      <line x1="239.23" y1="226.75" x2="263.4" y2="226.75" fill="#004535" stroke="#fff" stroke-miterlimit="10"/>
      <line x1="239.23" y1="236.71" x2="263.4" y2="236.71" fill="#004535" stroke="#fff" stroke-miterlimit="10"/>
      <line x1="239.23" y1="246.66" x2="263.4" y2="246.66" fill="#004535" stroke="#fff" stroke-miterlimit="10"/>
      <g>
        <polygon points="290.63 250.04 290.63 288.88 296.52 280.25 302.36 288.88 302.36 250.04 290.63 250.04" fill="#004535" stroke="#fff" stroke-miterlimit="10"/>
        <circle cx="296.5" cy="244.71" r="18.13" fill="#004535" stroke="#fff" stroke-miterlimit="10"/>
      </g>
    </g>

  </g>
  <g>
    <polyline points="437.34 273.16 437.34 226.7 425.33 226.7 425.33 273.16" fill="#004535" stroke="#fff" stroke-miterlimit="10"/>
    <g>
      <polygon points="487.54 252.82 454.36 191.2 466.07 194.4 446.71 152.03 454.79 154.22 431.45 94.37 408.5 154.22 416.15 152.28 397.23 194.4 408.32 191.32 379.28 246.15 407.14 238.82 399.01 256.92 431.35 246.13 466.07 260.88 457.42 241.96 487.54 252.82" fill="#004535"/>
      <polygon points="487.54 252.82 454.36 191.2 466.07 194.4 446.71 152.03 454.79 154.22 431.45 94.37 408.5 154.22 416.15 152.28 397.23 194.4 408.32 191.32 379.28 246.15 407.14 238.82 399.01 256.92 431.35 246.13 466.07 260.88 457.42 241.96 487.54 252.82" fill="none" stroke="#fff" stroke-miterlimit="10"/>
    </g>
  </g>
  <g>
    <path d="m433.42,278.02h93.97c1.07-2.38,1.67-5.01,1.67-7.79,0-10.53-8.53-19.06-19.06-19.06-3.19,0-6.19.79-8.83,2.18-1.77-.88-3.64-1.57-5.6-2.05-1.31-7.46-7.81-13.14-15.65-13.14-2.62,0-5.09.65-7.27,1.77-3.07-2.73-7.1-4.41-11.53-4.41-9.59,0-17.36,7.77-17.36,17.36,0,3.21.89,6.21,2.41,8.8-6.92,2.49-12.02,8.78-12.75,16.35Z" fill="#004535"/>
    <path d="m433.42,278.02h93.97c1.07-2.38,1.67-5.01,1.67-7.79,0-10.53-8.53-19.06-19.06-19.06-3.19,0-6.19.79-8.83,2.18-1.77-.88-3.64-1.57-5.6-2.05-1.31-7.46-7.81-13.14-15.65-13.14-2.62,0-5.09.65-7.27,1.77-3.07-2.73-7.1-4.41-11.53-4.41-9.59,0-17.36,7.77-17.36,17.36,0,3.21.89,6.21,2.41,8.8-6.92,2.49-12.02,8.78-12.75,16.35Z" fill="none" stroke="#fff" stroke-miterlimit="10"/>
  </g>
</svg>