<?xml version="1.0" encoding="UTF-8"?>
<svg id="Layer_2" data-name="Layer 2" xmlns="http://www.w3.org/2000/svg" viewBox="0 0 521.0376302475 521.8830582936">
  <defs>
    <style>
      .cls-1, .cls-2, .cls-3, .cls-4, .cls-5, .cls-6, .cls-7, .cls-8, .cls-9, .cls-10, .cls-11, .cls-12, .cls-13, .cls-14 {
        stroke-miterlimit: 10;
      }

      .cls-1, .cls-2, .cls-6, .cls-7 {
        fill: none;
      }

      .cls-1, .cls-2, .cls-6, .cls-7, .cls-8, .cls-9, .cls-10, .cls-11, .cls-12, .cls-13, .cls-14 {
        stroke-width: .75px;
      }

      .cls-1, .cls-3, .cls-4, .cls-5, .cls-7, .cls-8, .cls-9, .cls-10, .cls-11, .cls-12, .cls-13, .cls-14 {
        stroke: #0a5467;
      }

      .cls-2, .cls-6 {
        stroke: #84cec3;
      }

      .cls-3 {
        fill: #f26d4f;
      }

      .cls-4, .cls-14 {
        fill: #0a5467;
      }

      .cls-5, .cls-10 {
        fill: #6053a3;
      }

      .cls-6, .cls-7 {
        stroke-dasharray: 0 0 3 2;
      }

      .cls-8 {
        fill: #fff;
      }

      .cls-9 {
        fill: #fcb432;
      }

      .cls-11 {
        fill: #82cfca;
      }

      .cls-12 {
        fill: #408dcb;
      }

      .cls-13 {
        fill: #41c6eb;
      }
    </style>
  </defs>
  <g id="Layer_2-2" data-name="Layer 2">
    <g>
      <polygon class="cls-11" points="260.5199691989 521.5080582936 .3799545504 521.5080582936 .3799545504 289.7680680592 19.0199691989 331.5881364186 49.8299667575 345.9880387624 89.3399765231 398.6479508717 123.7599594332 409.908204778 141.6599838473 442.9282243092 197.8299667575 451.998048528 248.4640464303 473.7595011053 260.5199691989 521.5080582936"/>
      <polygon class="cls-11" points="520.6599838473 .3781754811 520.6599838473 261.1181657155 482.8599960543 252.7880875905 452.7657434448 237.4003721896 466.7224301641 231.779707403 467.3599960543 213.3081071217 444.0299789645 212.8181168874 396.7199814059 190.6281754811 382.0299789645 200.7380387624 399.2099716403 224.2080094655 370.2699691989 241.0080582936 332.439952109 196.1782243092 349.3999740817 181.167970403 340.3199569918 166.908204778 315.1699936129 173.4379899342 265.2199814059 150.9780289967 248.8999740817 121.9379899342 223.4499618746 120.7980973561 227.5299789645 140.2080094655 202.5599472262 143.1479508717 177.1099960543 111.9880387624 164.4199936129 120.8381364186 171.2599594332 136.658204778 143.8299667575 145.2680680592 132.0899765231 154.7380387624 105.5199691989 160.5080582936 95.5399887301 174.8181168874 84.2799789645 170.2280289967 54.6299545504 197.0480973561 26.0299789645 197.9680192311 1.3999740817 210.5280778249 .3799545504 213.1281754811 .3799545504 .3781754811 520.6599838473 .3781754811"/>
      <polygon class="cls-1" points="520.6599838473 340.8881852467 520.6599838473 521.5080582936 .3799545504 521.5080582936 .3799545504 289.7680680592 19.0199691989 331.5881364186 49.8299667575 345.9880387624 89.3399765231 398.6479508717 123.7599594332 409.908204778 141.6599838473 442.9282243092 197.8299667575 451.998048528 224.0999862887 423.1181657155 224.0999862887 397.4580094655 256.239939902 390.167970403 318.889964316 425.408204778 370.7799789645 413.8181168874 393.6199447848 436.667970403 403.239939902 438.1281754811 419.2099716403 406.1281754811 453.1699936129 412.1879899342 498.689952109 381.0280778249 504.7099716403 349.5581071217 520.0599472262 342.1982438405 520.6599838473 340.8881852467"/>
      <polygon class="cls-13" points="520.6599838473 261.1181657155 520.6599838473 340.8881852467 520.0599472262 342.1982438405 504.7099716403 349.5581071217 498.689952109 381.0280778249 453.1699936129 412.1879899342 419.2099716403 406.1281754811 403.239939902 438.1281754811 393.6199447848 436.667970403 370.7799789645 413.8181168874 318.889964316 425.408204778 256.239939902 390.167970403 224.0999862887 397.4580094655 224.0999862887 423.1181657155 197.8299667575 451.998048528 141.6599838473 442.9282243092 123.7599594332 409.908204778 89.3399765231 398.6479508717 49.8299667575 345.9880387624 19.0199691989 331.5881364186 .3799545504 289.7680680592 .3799545504 213.1281754811 1.3999740817 210.5280778249 26.0299789645 197.9680192311 54.6299545504 197.0480973561 84.2799789645 170.2280289967 95.5399887301 174.8181168874 105.5199691989 160.5080582936 132.0899765231 154.7380387624 143.8299667575 145.2680680592 171.2599594332 136.658204778 164.4199936129 120.8381364186 177.1099960543 111.9880387624 202.5599472262 143.1479508717 227.5299789645 140.2080094655 223.4499618746 120.7980973561 248.8999740817 121.9379899342 265.2199814059 150.9780289967 315.1699936129 173.4379899342 340.3199569918 166.908204778 349.3999740817 181.167970403 332.439952109 196.1782243092 370.2699691989 241.0080582936 399.2099716403 224.2080094655 382.0299789645 200.7380387624 396.7199814059 190.6281754811 444.0299789645 212.8181168874 467.3599960543 213.3081071217 466.7224301641 231.779707403 452.7657434448 237.4003721896 482.8599960543 252.7880875905 520.6599838473 261.1181657155"/>
      <path class="cls-14" d="M1.1998542161,62.841998709l26.8505101736,23.4967754286c22.227848652,19.4515025845,58.266311865,19.4515025845,80.494160517,0l29.8616360762-26.131799816c22.2245413174-19.448608349,58.2564729727-19.4519259064,80.4856904814-.0074105351l32.7982617674,28.6895526052c22.2327793823,19.4476310413,58.2717429389,19.4407400137,80.4948084609-.015391451l24.6954198148-21.6206595809c22.2263722624-19.4590264918,58.271868565-19.4625999621,80.5032784965-.007980916l27.7067962766,24.2461080161c15.0505042063,13.1706368012,36.4327071304,17.4234189022,55.5722064829,12.758346303l-.0026389162-103.871363282H.3799545504l.8198996657,62.4638232279Z"/>
      <path class="cls-11" d="M6.2870961624,303.0211289882l3.6448471168-3.1895913196c22.2245413174-19.448608349,58.2564729727-19.4519259064,80.4856904814-.0074105351l32.7982617674,28.6895526052c22.2327793823,19.4476310413,58.2717429389,19.4407400137,80.494808461-.015391451l24.6954198148-21.6206595809c22.2263722624-19.4590264918,58.271868565-19.4625999621,80.5032784965-.0079809159l27.7067962766,24.2461080161c22.227848652,19.4515025845,58.266311865,19.4515025845,80.494160517,0l24.813925403-21.7145681377c21.6516199285-18.9472471039,56.4070904429-19.4384304021,78.7381117128-1.4735498944l-.0024123624,33.7262471733-15.950012207,7.9042221736-6.0200195312,31.4699707031-45.5199584961,31.1599121094-33.9600219727-6.0598144531-15.9700317383,32-9.6199951172-1.4602050781-22.8399658203-22.8498535156-51.8900146484,11.5900878906-62.6500244141-35.240234375-32.1399536133,7.2900390625v25.66015625l-26.2700195312,28.8798828125-56.1699829102-9.0698242188-17.9000244141-33.0200195312-34.4199829102-11.2602539062-39.5100097656-52.6599121094-30.8099975586-14.3999023438-12.7328730364-28.5670074304Z"/>
      <path class="cls-1" d="M3.8767570985,297.6133688468l6.0991037611-5.4524196215c22.2245413174-19.448608349,58.2564729727-19.4519259064,80.4856904814-.0074105351l34.8879700318,30.5174785973c20.9915696417,18.3619103284,55.3349019678,18.3544725157,76.3185162804-.0165284726l24.0561983145-21.0610258286c23.6350859848-20.6923450612,62.3144829184-20.6966883839,85.954215408-.0096518282l24.9816647816,21.8613562056c22.1358941422,19.371033556,58.3582663748,19.371033556,80.494160517,0l24.813925403-21.7145681377c21.6516199285-18.947247104,56.4070904429-19.4384304021,78.7381117128-1.4735498944"/>
      <path class="cls-1" d="M1.1894150506,291.5841446069l8.786445809-7.7420953791c22.2245413174-19.448608349,58.2564729727-19.4519259064,80.4856904814-.0074105351l36.20272906,31.6675349195c20.2684521762,17.7293793512,53.4287255957,17.7221977562,73.6894964878-.0159590999l26.1639721086-22.9063663823c23.1986538184-20.3102518889,61.1638188255-20.3145150103,84.3670333491-.009473603l23.8443089247,20.8660605862c23.1979578296,20.3004412951,61.1582524597,20.3004412951,84.3562102893,0l22.8829005169-20.0247358849c21.6516199285-18.9472471039,56.4070904429-19.4384304021,78.7381117128-1.4735498944"/>
      <g>
        <line class="cls-1" x1="214.5358834279" y1="238.0200512164" x2="214.5358834279" y2="319.0209227962"/>
        <g>
          <line class="cls-1" x1="214.5358834253" y1="238.0200512164" x2="214.5358834253" y2="198.9183680465"/>
          <line class="cls-1" x1="180.6728324694" y1="257.5708928014" x2="214.5358834253" y2="238.0200512164"/>
          <line class="cls-1" x1="248.3989343838" y1="257.5708927999" x2="214.5358834271" y2="238.0200512164"/>
        </g>
        <circle class="cls-8" cx="214.5358834253" cy="238.0200512172" r="3.0349681883"/>
        <line class="cls-1" x1="277.813005509" y1="215.2513365166" x2="277.813005509" y2="278.0247535031"/>
        <g>
          <line class="cls-1" x1="277.8130055063" y1="215.2513365166" x2="277.8130055063" y2="176.1496533466"/>
          <line class="cls-1" x1="243.9499545504" y1="234.8021781016" x2="277.8130055063" y2="215.2513365166"/>
          <line class="cls-1" x1="311.6760564649" y1="234.8021781" x2="277.8130055081" y2="215.2513365166"/>
        </g>
        <circle class="cls-8" cx="277.8130055063" cy="215.2513365173" r="3.0349681883"/>
        <line class="cls-1" x1="304.0555246596" y1="360.2784992329" x2="304.0555246596" y2="423.3867038405"/>
        <g>
          <line class="cls-1" x1="304.055524657" y1="360.2784992329" x2="304.055524657" y2="321.176816063"/>
          <line class="cls-1" x1="270.1924737011" y1="379.8293408179" x2="304.055524657" y2="360.2784992329"/>
          <line class="cls-1" x1="337.9185756155" y1="379.8293408164" x2="304.0555246587" y2="360.2784992329"/>
        </g>
        <circle class="cls-8" cx="304.055524657" cy="360.2784992337" r="3.0349681883"/>
        <line class="cls-1" x1="246.4799838486" y1="340.1498536861" x2="246.4799838486" y2="392.3780582936"/>
        <g>
          <line class="cls-1" x1="246.479983846" y1="340.1498536861" x2="246.479983846" y2="301.0481705161"/>
          <line class="cls-1" x1="212.6169328901" y1="359.700695271" x2="246.479983846" y2="340.1498536861"/>
          <line class="cls-1" x1="280.3430348045" y1="359.7006952695" x2="246.4799838477" y2="340.1498536861"/>
        </g>
        <circle class="cls-8" cx="246.479983846" cy="340.1498536868" r="3.0349681883"/>
      </g>
      <polyline class="cls-1" points="260.5199691989 521.5080582936 248.4640464303 473.7595011053 197.8299667575 451.998048528"/>
      <polygon class="cls-14" points="224.0999862887 423.1181657155 224.0999862887 397.4580094655 256.239939902 390.167970403 318.889964316 425.408204778 370.7799789645 413.8181168874 393.6199447848 436.667970403 403.239939902 438.1281754811 419.2099716403 406.1281754811 453.1699936129 412.1879899342 498.689952109 381.0280778249 504.7099716403 349.5581071217 520.6599838473 341.6538849481 520.6599838473 521.5080582936 260.5199691989 521.5080582936 248.4640464303 473.7595011053 197.8299667575 451.998048528 224.0999862887 423.1181657155"/>
      <polyline class="cls-1" points="285.562179273 160.1248729972 322.0297829171 128.3185002209 282.3463310979 62.2779773086 307.0051049393 .3781754811"/>
      <path class="cls-10" d="M520.6599838473.375v103.8701171875c-19.1400146484,4.669921875-40.5200195312.419921875-55.5700073242-12.75l-27.7100219727-24.25c-22.2299804688-19.4501953125-58.2699584961-19.4501953125-80.5.009765625l-24.700012207,21.6201171875c-7.3800048828,6.4699707031-16.299987793,10.7800292969-25.7199707031,12.9499511719l-24.1099853516-39.5500488281L307.0099594332.375h213.6500244141Z"/>
      <path class="cls-12" d="M358.9156897658,227.6486832936l-26.5564575195-31.4704589844,16.9600219727-15.0102539062-9.0800170898-14.259765625-25.1500244141,6.5297851562-49.9499511719-22.4599609375-16.3200683594-29.0400390625-25.4499511719-1.1398925781,4.080078125,19.4099121094-24.9700927734,2.9399414062-25.4499511719-31.1599121094-12.6900634766,8.8500976562,6.8400878906,15.8200683594-27.4300537109,8.6098632812-11.7399902344,9.4699707031-26.5699462891,5.7700195312-9.9799804688,14.3100585938-11.2600097656-4.5900878906-24.7451171875,22.3830566406,22.0795898438,19.3217773438c22.2277832031,19.4516601562,58.2663574219,19.4516601562,80.494140625,0l29.8615722656-26.1318359375c22.224609375-19.4484863281,58.2565917969-19.4519042969,80.4857177734-.0073242188l32.7982177734,28.689453125c14.5749511719,12.7490234375,35.0827636719,17.1362304688,53.7422485352,13.1655273438Z"/>
      <g>
        <line class="cls-11" x1="60.3999463576" y1="193.5234418512" x2="60.3999463576" y2="191.8334418512"/>
        <line class="cls-11" x1="68.2299463576" y1="200.3834418512" x2="68.2299463576" y2="184.7534418512"/>
        <line class="cls-11" x1="76.0599463576" y1="207.2334418512" x2="76.0599463576" y2="177.6734418512"/>
        <line class="cls-11" x1="83.8899463576" y1="213.9734418512" x2="83.8899463576" y2="170.5934418512"/>
        <line class="cls-11" x1="91.7199463576" y1="219.1134418512" x2="91.7199463576" y2="173.3834418512"/>
        <line class="cls-11" x1="99.5499463576" y1="222.6634418512" x2="99.5499463576" y2="169.0434418512"/>
        <line class="cls-11" x1="107.3799463576" y1="224.9934418512" x2="107.3799463576" y2="160.1734418512"/>
        <line class="cls-11" x1="115.2099463576" y1="226.2734418512" x2="115.2099463576" y2="158.4734418512"/>
        <line class="cls-11" x1="123.0399463576" y1="226.6034418512" x2="123.0399463576" y2="156.7734418512"/>
        <line class="cls-11" x1="130.8799463576" y1="225.9734418512" x2="130.8799463576" y2="155.0734418512"/>
        <line class="cls-11" x1="138.7099463576" y1="224.3634418512" x2="138.7099463576" y2="149.4234418512"/>
        <line class="cls-11" x1="146.5399463576" y1="221.6634418512" x2="146.5399463576" y2="144.4734418512"/>
        <line class="cls-11" x1="154.3699463576" y1="217.6434418512" x2="154.3699463576" y2="142.0234418512"/>
        <line class="cls-11" x1="162.1999463576" y1="211.8734418512" x2="162.1999463576" y2="139.5634418512"/>
        <polyline class="cls-11" points="170.0299463576 116.9534418512 170.0299463576 134.0834418512 170.0299463576 137.1034418512 170.0299463576 205.0234418512"/>
        <line class="cls-11" x1="177.8599463576" y1="198.1634418512" x2="177.8599463576" y2="113.0934418512"/>
        <line class="cls-11" x1="185.6899463576" y1="191.3134418512" x2="185.6899463576" y2="122.6734418512"/>
        <line class="cls-11" x1="193.5199463576" y1="184.5134418512" x2="193.5199463576" y2="132.2634418512"/>
        <line class="cls-11" x1="201.3499463576" y1="179.2034418512" x2="201.3499463576" y2="141.8534418512"/>
        <line class="cls-11" x1="209.1799463576" y1="175.5134418512" x2="209.1799463576" y2="142.4434418512"/>
        <line class="cls-11" x1="217.0099463576" y1="173.0834418512" x2="217.0099463576" y2="141.5234418512"/>
        <polyline class="cls-11" points="224.8499463576 120.9534418512 224.8499463576 127.9234418512 224.8499463576 140.6034418512 224.8499463576 171.7034418512"/>
        <line class="cls-11" x1="232.6799463576" y1="171.2934418512" x2="232.6799463576" y2="121.3034418512"/>
        <line class="cls-11" x1="240.5099463576" y1="171.8334418512" x2="240.5099463576" y2="121.6534418512"/>
        <line class="cls-11" x1="248.3399463576" y1="173.3434418512" x2="248.3399463576" y2="122.0034418512"/>
        <line class="cls-11" x1="256.1699463576" y1="175.9434418512" x2="256.1699463576" y2="135.1034418512"/>
        <line class="cls-11" x1="263.9999463576" y1="179.8334418512" x2="263.9999463576" y2="149.0334418512"/>
        <line class="cls-11" x1="271.8299463576" y1="185.4234418512" x2="271.8299463576" y2="154.0734418512"/>
        <line class="cls-11" x1="279.6599463576" y1="192.2634418512" x2="279.6599463576" y2="157.5934418512"/>
        <line class="cls-11" x1="287.4899463576" y1="199.1134418512" x2="287.4899463576" y2="161.1134418512"/>
        <line class="cls-11" x1="295.3199463576" y1="205.9534418512" x2="295.3199463576" y2="164.6334418512"/>
        <line class="cls-11" x1="303.1499463576" y1="212.8034418512" x2="303.1499463576" y2="168.1534418512"/>
        <line class="cls-11" x1="310.9899463576" y1="219.0134418512" x2="310.9899463576" y2="171.6834418512"/>
        <line class="cls-11" x1="318.8199463576" y1="223.3934418512" x2="318.8199463576" y2="172.5534418512"/>
        <line class="cls-11" x1="326.6499463576" y1="226.3734418512" x2="326.6499463576" y2="170.5234418512"/>
        <polyline class="cls-11" points="334.4799463576 168.4934418512 334.4799463576 194.3834418512 334.4799463576 198.7734418512 334.4799463576 228.2234418512"/>
        <polyline class="cls-11" points="342.3099463576 170.2434418512 342.3099463576 187.4534418512 342.3099463576 208.0534418512 342.3099463576 229.0634418512"/>
        <line class="cls-11" x1="350.1399463576" y1="228.9634418512" x2="350.1399463576" y2="217.3334418512"/>
        <line class="cls-11" x1="357.9699463576" y1="227.9234418512" x2="357.9699463576" y2="226.6234418512"/>
      </g>
      <g>
        <line class="cls-1" x1="290.2521975203" y1="162.2337338758" x2="290.2521975203" y2="156.1564721009"/>
        <line class="cls-1" x1="298.1965938695" y1="166.4189028156" x2="298.1965938695" y2="149.2446297134"/>
        <g>
          <line class="cls-1" x1="306.1409902187" y1="169.9500617712" x2="306.1409902187" y2="142.3327873259"/>
          <line class="cls-1" x1="306.1409902187" y1="102.5470588661" x2="306.1409902187" y2="101.7344910382"/>
        </g>
        <g>
          <line class="cls-1" x1="314.0853865679" y1="173.4812207268" x2="314.0853865679" y2="135.43097664"/>
          <line class="cls-1" x1="314.0853865679" y1="115.0975714692" x2="314.0853865679" y2="99.3268826594"/>
        </g>
        <polyline class="cls-1" points="322.0297829171 171.7557680553 322.0297829171 128.5191342525 322.0297829171 128.3185002209 322.0297829171 95.6552798817"/>
        <line class="cls-1" x1="329.9741792663" y1="169.7193326349" x2="329.9741792663" y2="90.3685731499"/>
        <g>
          <line class="cls-1" x1="337.9185756155" y1="203.3556280272" x2="337.9185756155" y2="191.3777763426"/>
          <line class="cls-1" x1="337.9185756155" y1="167.6828972145" x2="337.9185756155" y2="83.5570477782"/>
        </g>
        <g>
          <line class="cls-1" x1="345.8629719647" y1="212.6650470919" x2="345.8629719647" y2="184.4258071488"/>
          <line class="cls-1" x1="345.8629719647" y1="176.1496533466" x2="345.8629719647" y2="76.685332197"/>
        </g>
        <line class="cls-1" x1="353.8073683139" y1="221.9744661567" x2="353.8073683139" y2="69.8035849142"/>
        <line class="cls-1" x1="361.7517646631" y1="231.2838852214" x2="361.7517646631" y2="63.3933276056"/>
        <line class="cls-1" x1="369.7063071124" y1="240.5933042861" x2="369.7063071124" y2="58.7787448796"/>
        <line class="cls-1" x1="377.6507034616" y1="237.3330012732" x2="377.6507034616" y2="55.6187588824"/>
        <g>
          <line class="cls-1" x1="385.5950998108" y1="232.768577055" x2="385.5950998108" y2="205.7187006039"/>
          <line class="cls-1" x1="385.5950998108" y1="198.0984443739" x2="385.5950998108" y2="53.6324819699"/>
        </g>
        <g>
          <line class="cls-1" x1="393.53949616" y1="228.2141845384" x2="393.53949616" y2="216.1460475396"/>
          <line class="cls-1" x1="393.53949616" y1="192.76147698" x2="393.53949616" y2="52.6594069168"/>
        </g>
        <line class="cls-1" x1="401.4838925092" y1="192.8724998778" x2="401.4838925092" y2="52.6393435136"/>
        <line class="cls-1" x1="409.4282888584" y1="196.5541343571" x2="409.4282888584" y2="53.5522283573"/>
        <line class="cls-1" x1="417.3726852076" y1="200.2357688363" x2="417.3726852076" y2="55.4983784635"/>
        <line class="cls-1" x1="425.3170815568" y1="203.9274350172" x2="425.3170815568" y2="58.5881425496"/>
        <line class="cls-1" x1="433.261477906" y1="207.6090694964" x2="433.261477906" y2="63.1124399615"/>
        <line class="cls-1" x1="441.2058742552" y1="211.3007356773" x2="441.2058742552" y2="69.4625070606"/>
        <line class="cls-1" x1="449.1502706044" y1="213.2669491866" x2="449.1502706044" y2="76.3342226417"/>
        <g>
          <line class="cls-1" x1="457.1048130537" y1="239.3393415888" x2="457.1048130537" y2="235.3226957047"/>
          <line class="cls-1" x1="457.1048130537" y1="213.4374881135" x2="457.1048130537" y2="83.2260016261"/>
        </g>
        <g>
          <line class="cls-1" x1="465.0492094029" y1="243.6811238007" x2="465.0492094029" y2="232.5370418686"/>
          <line class="cls-1" x1="465.0492094029" y1="213.5979953387" x2="465.0492094029" y2="90.0977172073"/>
        </g>
        <line class="cls-1" x1="472.9936057521" y1="247.7432312921" x2="472.9936057521" y2="96.2371185733"/>
        <line class="cls-1" x1="480.9380021013" y1="251.8053387834" x2="480.9380021013" y2="100.5306868488"/>
        <line class="cls-1" x1="488.8823984505" y1="254.1962916264" x2="488.8823984505" y2="103.4499120081"/>
        <line class="cls-1" x1="496.8267947997" y1="255.9317759995" x2="496.8267947997" y2="105.2556182922"/>
        <line class="cls-1" x1="504.7711911489" y1="257.657228671" x2="504.7711911489" y2="106.0581544185"/>
        <line class="cls-1" x1="512.7155874981" y1="259.392713044" x2="512.7155874981" y2="105.8976471932"/>
        <line class="cls-1" x1="520.6599838473" y1="261.1181657155" x2="520.6599838473" y2="104.8041917212"/>
      </g>
      <g>
        <line class="cls-1" x1="3.5399545504" y1="296.8580582936" x2=".3799545504" y2="300.0280582936"/>
        <line class="cls-1" x1="6.9499545504" y1="304.5180582936" x2=".3799545504" y2="311.0880582936"/>
        <line class="cls-1" x1="10.3699545504" y1="312.1780582936" x2=".3799545504" y2="322.1680582936"/>
        <line class="cls-1" x1="13.7899545504" y1="319.8380582936" x2=".3799545504" y2="333.2480582936"/>
        <line class="cls-1" x1="17.1999545504" y1="327.4980582936" x2=".3799545504" y2="344.3180582936"/>
        <line class="cls-1" x1="22.5399545504" y1="333.2280582936" x2=".3799545504" y2="355.3880582936"/>
        <line class="cls-1" x1="30.0899545504" y1="336.7580582936" x2=".3799545504" y2="366.4680582936"/>
        <line class="cls-1" x1="37.6399545504" y1="340.2880582936" x2=".3799545504" y2="377.5380582936"/>
        <line class="cls-1" x1="45.1799545504" y1="343.8180582936" x2=".3799545504" y2="388.6180582936"/>
        <line class="cls-1" x1="51.6499545504" y1="348.4180582936" x2=".3799545504" y2="399.6880582936"/>
        <line class="cls-1" x1="56.3999545504" y1="354.7480582936" x2=".3799545504" y2="410.7680582936"/>
        <line class="cls-1" x1="61.1499545504" y1="361.0780582936" x2=".3799545504" y2="421.8380582936"/>
        <line class="cls-1" x1="65.8899545504" y1="367.3980582936" x2=".3799545504" y2="432.9180582936"/>
        <line class="cls-1" x1="70.6399545504" y1="373.7280582936" x2=".3799545504" y2="443.9880582936"/>
        <line class="cls-1" x1="75.3899545504" y1="380.0580582936" x2=".3799545504" y2="455.0680582936"/>
        <line class="cls-1" x1="80.1399545504" y1="386.3780582936" x2=".3799545504" y2="466.1380582936"/>
        <line class="cls-1" x1="84.8799545504" y1="392.7080582936" x2=".3799545504" y2="477.2080582936"/>
        <line class="cls-1" x1="89.8499545504" y1="398.8180582936" x2=".3799545504" y2="488.2880582936"/>
        <line class="cls-1" x1="98.1999545504" y1="401.5480582936" x2=".3799545504" y2="499.3580582936"/>
        <line class="cls-1" x1="106.5399545504" y1="404.2780582936" x2=".3799545504" y2="510.4380582936"/>
        <line class="cls-1" x1="114.8799545504" y1="407.0080582936" x2=".3799545504" y2="521.5080582936"/>
        <line class="cls-1" x1="123.2299545504" y1="409.7380582936" x2="11.4599545504" y2="521.5080582936"/>
        <line class="cls-1" x1="127.4099545504" y1="416.6280582936" x2="22.5299545504" y2="521.5080582936"/>
        <line class="cls-1" x1="131.2999545504" y1="423.8180582936" x2="33.6099545504" y2="521.5080582936"/>
        <line class="cls-1" x1="135.1899545504" y1="430.9980582936" x2="44.6799545504" y2="521.5080582936"/>
        <line class="cls-1" x1="139.0899545504" y1="438.1780582936" x2="55.7599545504" y2="521.5080582936"/>
        <line class="cls-1" x1="144.8899545504" y1="443.4480582936" x2="66.8299545504" y2="521.5080582936"/>
        <line class="cls-1" x1="154.4199545504" y1="444.9880582936" x2="77.8999545504" y2="521.5080582936"/>
        <line class="cls-1" x1="163.9599545504" y1="446.5280582936" x2="88.9799545504" y2="521.5080582936"/>
        <line class="cls-1" x1="173.4999545504" y1="448.0680582936" x2="100.0499545504" y2="521.5080582936"/>
        <line class="cls-1" x1="183.0199545504" y1="449.6080582936" x2="111.1299545504" y2="521.5080582936"/>
        <line class="cls-1" x1="192.5599545504" y1="451.1480582936" x2="122.1999545504" y2="521.5080582936"/>
        <line class="cls-1" x1="201.2999545504" y1="453.4880582936" x2="133.2799545504" y2="521.5080582936"/>
        <line class="cls-1" x1="209.0399545504" y1="456.8180582936" x2="144.3499545504" y2="521.5080582936"/>
        <line class="cls-1" x1="216.7899545504" y1="460.1380582936" x2="155.4199545504" y2="521.5080582936"/>
        <line class="cls-1" x1="224.5299545504" y1="463.4780582936" x2="166.4999545504" y2="521.5080582936"/>
        <line class="cls-1" x1="232.2799545504" y1="466.7980582936" x2="177.5799545504" y2="521.5080582936"/>
        <line class="cls-1" x1="240.0299545504" y1="470.1280582936" x2="188.6499545504" y2="521.5080582936"/>
        <line class="cls-1" x1="247.7699545504" y1="473.4580582936" x2="199.7199545504" y2="521.5080582936"/>
        <line class="cls-1" x1="250.4999545504" y1="481.8080582936" x2="210.7999545504" y2="521.5080582936"/>
        <line class="cls-1" x1="252.7299545504" y1="490.6480582936" x2="221.8799545504" y2="521.5080582936"/>
        <line class="cls-1" x1="254.9599545504" y1="499.4880582936" x2="232.9399545504" y2="521.5080582936"/>
        <line class="cls-1" x1="257.1999545504" y1="508.3280582936" x2="244.0199545504" y2="521.5080582936"/>
        <line class="cls-1" x1="259.4299545504" y1="517.1780582936" x2="255.0999545504" y2="521.5080582936"/>
      </g>
      <g>
        <polygon class="cls-9" points="83.369238136 142.435164804 29.2368225176 142.435164804 48.6902345602 69.8340426805 102.8226501786 69.8340426805 83.369238136 142.435164804"/>
        <line class="cls-9" x1="57.7123038299" y1="69.8340426805" x2="38.2588917873" y2="142.435164804"/>
        <line class="cls-9" x1="66.7343730996" y1="69.8340426805" x2="47.2809610571" y2="142.435164804"/>
        <line class="cls-9" x1="75.7564423694" y1="69.8340426805" x2="56.3030303268" y2="142.435164804"/>
        <line class="cls-9" x1="84.7785116391" y1="69.8340426805" x2="65.3250995965" y2="142.435164804"/>
        <line class="cls-9" x1="93.8005809088" y1="69.8340426805" x2="74.3471688663" y2="142.435164804"/>
        <line class="cls-9" x1="102.8226501786" y1="69.8340426805" x2="83.369238136" y2="142.435164804"/>
        <line class="cls-9" x1="48.6902345602" y1="69.8340426805" x2="29.2368225176" y2="142.435164804"/>
        <line class="cls-9" x1="98.1431404899" y1="88.0904652028" x2="43.7984408886" y2="88.0904652028"/>
        <line class="cls-9" x1="95.725684315" y1="97.1125344725" x2="41.3809847138" y2="97.1125344725"/>
        <polyline class="cls-1" points="213.8288221034 106.1346037422 93.3082281401 106.1346037422 38.9635285389 106.1346037422 13.6409901923 106.1346037422 13.6409901923 245.1263877833 56.3030303268 245.1263877833 56.3030303268 269.488808658"/>
        <polyline class="cls-1" points="328.750056947 512.5450905667 328.750056947 431.4789534552 243.9499545504 431.4789534552"/>
        <line class="cls-9" x1="90.8907719652" y1="115.156673012" x2="36.546072364" y2="115.156673012"/>
        <line class="cls-9" x1="88.4733157903" y1="124.1787422817" x2="34.1286161891" y2="124.1787422817"/>
        <line class="cls-9" x1="86.0558596155" y1="133.2008115515" x2="31.7111600142" y2="133.2008115515"/>
        <line class="cls-9" x1="100.5605966648" y1="79.068395933" x2="46.2158970635" y2="79.068395933"/>
      </g>
      <g>
        <polygon class="cls-9" points="144.7513192605 142.435164804 90.6189036421 142.435164804 110.0723156847 69.8340426805 164.2047313031 69.8340426805 144.7513192605 142.435164804"/>
        <line class="cls-9" x1="119.0943849545" y1="69.8340426805" x2="99.6409729119" y2="142.435164804"/>
        <line class="cls-9" x1="128.1164542242" y1="69.8340426805" x2="108.6630421816" y2="142.435164804"/>
        <line class="cls-9" x1="137.1385234939" y1="69.8340426805" x2="117.6851114513" y2="142.435164804"/>
        <line class="cls-9" x1="146.1605927637" y1="69.8340426805" x2="126.7071807211" y2="142.435164804"/>
        <line class="cls-9" x1="155.1826620334" y1="69.8340426805" x2="135.7292499908" y2="142.435164804"/>
        <line class="cls-9" x1="164.2047313031" y1="69.8340426805" x2="144.7513192605" y2="142.435164804"/>
        <line class="cls-9" x1="110.0723156847" y1="69.8340426805" x2="90.6189036421" y2="142.435164804"/>
        <line class="cls-9" x1="159.5252216144" y1="88.0904652028" x2="105.1805220132" y2="88.0904652028"/>
        <line class="cls-9" x1="157.1077654395" y1="97.1125344725" x2="102.7630658383" y2="97.1125344725"/>
        <line class="cls-9" x1="154.6903092646" y1="106.1346037422" x2="100.3456096634" y2="106.1346037422"/>
        <line class="cls-9" x1="152.2728530898" y1="115.156673012" x2="97.9281534885" y2="115.156673012"/>
        <line class="cls-9" x1="149.8553969149" y1="124.1787422817" x2="95.5106973137" y2="124.1787422817"/>
        <line class="cls-9" x1="147.43794074" y1="133.2008115515" x2="93.0932411388" y2="133.2008115515"/>
        <line class="cls-9" x1="161.9426777893" y1="79.068395933" x2="107.5979781881" y2="79.068395933"/>
      </g>
      <g>
        <polygon class="cls-9" points="206.3297667755 142.435164804 152.1973511571 142.435164804 171.6507631996 69.8340426805 225.7831788181 69.8340426805 206.3297667755 142.435164804"/>
        <line class="cls-9" x1="180.6728324694" y1="69.8340426805" x2="161.2194204268" y2="142.435164804"/>
        <line class="cls-9" x1="189.6949017391" y1="69.8340426805" x2="170.2414896965" y2="142.435164804"/>
        <line class="cls-9" x1="198.7169710089" y1="69.8340426805" x2="179.2635589663" y2="142.435164804"/>
        <line class="cls-9" x1="207.7390402786" y1="69.8340426805" x2="188.285628236" y2="142.435164804"/>
        <line class="cls-9" x1="216.7611095483" y1="69.8340426805" x2="197.3076975057" y2="142.435164804"/>
        <line class="cls-9" x1="225.7831788181" y1="69.8340426805" x2="206.3297667755" y2="142.435164804"/>
        <line class="cls-9" x1="171.6507631996" y1="69.8340426805" x2="152.1973511571" y2="142.435164804"/>
        <line class="cls-9" x1="221.1036691294" y1="88.0904652028" x2="166.7589695281" y2="88.0904652028"/>
        <line class="cls-9" x1="218.6862129545" y1="97.1125344725" x2="164.3415133532" y2="97.1125344725"/>
        <line class="cls-9" x1="216.2687567796" y1="106.1346037422" x2="161.9240571784" y2="106.1346037422"/>
        <line class="cls-9" x1="213.8513006047" y1="115.156673012" x2="159.5066010035" y2="115.156673012"/>
        <line class="cls-9" x1="211.4338444298" y1="124.1787422817" x2="157.0891448286" y2="124.1787422817"/>
        <line class="cls-9" x1="209.0163882549" y1="133.2008115515" x2="154.6716886537" y2="133.2008115515"/>
        <line class="cls-9" x1="223.5211253042" y1="79.068395933" x2="169.176425703" y2="79.068395933"/>
      </g>
      <line class="cls-1" x1="158.9890599193" y1="271.6387250386" x2="158.9890599193" y2="336.2668025223"/>
      <g>
        <line class="cls-1" x1="158.9890599167" y1="271.6387250386" x2="158.9890599167" y2="232.5370418686"/>
        <line class="cls-1" x1="125.1260089608" y1="291.1895666236" x2="158.9890599167" y2="271.6387250386"/>
        <line class="cls-1" x1="192.8521108752" y1="291.189566622" x2="158.9890599185" y2="271.6387250386"/>
      </g>
      <circle class="cls-8" cx="158.9890599167" cy="271.6387250394" r="3.0349681883"/>
      <g>
        <polygon class="cls-9" points="463.0440301993 296.9474972319 408.9116145809 296.9474972319 428.3650266235 369.5486193554 482.4974422419 369.5486193554 463.0440301993 296.9474972319"/>
        <line class="cls-9" x1="437.3870958932" y1="369.5486193554" x2="417.9336838506" y2="296.9474972319"/>
        <line class="cls-9" x1="446.4091651629" y1="369.5486193554" x2="426.9557531203" y2="296.9474972319"/>
        <line class="cls-9" x1="455.4312344327" y1="369.5486193554" x2="435.9778223901" y2="296.9474972319"/>
        <line class="cls-9" x1="464.4533037024" y1="369.5486193554" x2="444.9998916598" y2="296.9474972319"/>
        <line class="cls-9" x1="473.4753729721" y1="369.5486193554" x2="454.0219609295" y2="296.9474972319"/>
        <line class="cls-9" x1="482.4974422419" y1="369.5486193554" x2="463.0440301993" y2="296.9474972319"/>
        <line class="cls-9" x1="428.3650266235" y1="369.5486193554" x2="408.9116145809" y2="296.9474972319"/>
        <line class="cls-9" x1="477.8179325532" y1="351.2921968331" x2="423.4732329519" y2="351.2921968331"/>
        <line class="cls-9" x1="475.4004763783" y1="342.2701275633" x2="421.055776777" y2="342.2701275633"/>
        <line class="cls-9" x1="472.9830202034" y1="333.2480582936" x2="418.6383206022" y2="333.2480582936"/>
        <line class="cls-9" x1="470.5655640285" y1="324.2259890239" x2="416.2208644273" y2="324.2259890239"/>
        <line class="cls-9" x1="468.1481078536" y1="315.2039197542" x2="413.8034082524" y2="315.2039197542"/>
        <line class="cls-9" x1="465.7306516787" y1="306.1818504844" x2="411.3859520775" y2="306.1818504844"/>
        <line class="cls-9" x1="480.235388728" y1="360.3142661028" x2="425.8906891268" y2="360.3142661028"/>
      </g>
      <g>
        <polygon class="cls-9" points="399.9953875831 296.9474972319 345.8629719647 296.9474972319 365.3163840073 369.5486193554 419.4487996257 369.5486193554 399.9953875831 296.9474972319"/>
        <line class="cls-9" x1="374.3384532771" y1="369.5486193554" x2="354.8850412345" y2="296.9474972319"/>
        <line class="cls-9" x1="383.3605225468" y1="369.5486193554" x2="363.9071105042" y2="296.9474972319"/>
        <line class="cls-9" x1="392.3825918165" y1="369.5486193554" x2="372.9291797739" y2="296.9474972319"/>
        <line class="cls-9" x1="401.4046610863" y1="369.5486193554" x2="381.9512490437" y2="296.9474972319"/>
        <line class="cls-9" x1="410.426730356" y1="369.5486193554" x2="390.9733183134" y2="296.9474972319"/>
        <line class="cls-9" x1="419.4487996257" y1="369.5486193554" x2="399.9953875831" y2="296.9474972319"/>
        <line class="cls-9" x1="365.3163840073" y1="369.5486193554" x2="345.8629719647" y2="296.9474972319"/>
        <line class="cls-9" x1="414.769289937" y1="351.2921968331" x2="360.4245903358" y2="351.2921968331"/>
        <line class="cls-9" x1="412.3518337621" y1="342.2701275633" x2="358.0071341609" y2="342.2701275633"/>
        <line class="cls-9" x1="409.9343775873" y1="333.2480582936" x2="355.589677986" y2="333.2480582936"/>
        <line class="cls-9" x1="407.5169214124" y1="324.2259890239" x2="353.1722218111" y2="324.2259890239"/>
        <line class="cls-9" x1="405.0994652375" y1="315.2039197542" x2="350.7547656363" y2="315.2039197542"/>
        <line class="cls-9" x1="402.6820090626" y1="306.1818504844" x2="348.3373094614" y2="306.1818504844"/>
        <line class="cls-9" x1="417.1867461119" y1="360.3142661028" x2="362.8420465107" y2="360.3142661028"/>
      </g>
      <path class="cls-14" d="M1.1998542161,62.841998709l26.8505101736,23.4967754286c22.227848652,19.4515025845,58.266311865,19.4515025845,80.494160517,0l29.8616360762-26.131799816c22.2245413174-19.448608349,58.2564729727-19.4519259064,80.4856904814-.0074105351l32.7982617674,28.6895526052c22.2327793823,19.4476310413,58.2717429389,19.4407400137,80.4948084609-.015391451l24.6954198148-21.6206595809c22.2263722624-19.4590264918,58.271868565-19.4625999621,80.5032784965-.007980916l27.7067962766,24.2461080161c15.0505042063,13.1706368012,36.4327071304,17.4234189022,55.5722064829,12.758346303l-.0026389162-103.871363282H.3799545504l.8198996657,62.4638232279Z"/>
      <g>
        <g>
          <line class="cls-2" x1="264.8599838473" y1="521.5080582936" x2="259.0499838473" y2="515.6980582936"/>
          <g>
            <line class="cls-2" x1="275.9399838473" y1="521.5080582936" x2="255.3099838473" y2="500.8780582936"/>
            <line class="cls-2" x1="212.9099838473" y1="458.4780582936" x2="201.9299838473" y2="447.4980582936"/>
          </g>
          <g>
            <line class="cls-2" x1="287.0199838473" y1="521.5080582936" x2="251.5699838473" y2="486.0580582936"/>
            <line class="cls-2" x1="232.3399838473" y1="466.8280582936" x2="207.1999838473" y2="441.6880582936"/>
          </g>
          <line class="cls-2" x1="298.0799838473" y1="521.5080582936" x2="212.4699838473" y2="435.8980582936"/>
          <line class="cls-2" x1="217.7499838473" y1="430.0980582936" x2="309.1599838473" y2="521.5080582936"/>
          <line class="cls-2" x1="223.0299838473" y1="424.2980582936" x2="320.2399838473" y2="521.5080582936"/>
          <line class="cls-2" x1="224.0999838473" y1="414.2980582936" x2="331.3099838473" y2="521.5080582936"/>
          <line class="cls-2" x1="224.0999838473" y1="403.2280582936" x2="342.3799838473" y2="521.5080582936"/>
          <line class="cls-2" x1="353.4599838473" y1="521.5080582936" x2="228.4299838473" y2="396.4780582936"/>
          <line class="cls-2" x1="237.4599838473" y1="394.4280582936" x2="364.5399838473" y2="521.5080582936"/>
          <line class="cls-2" x1="375.6099838473" y1="521.5080582936" x2="246.4799838473" y2="392.3780582936"/>
          <line class="cls-2" x1="386.6799838473" y1="521.5080582936" x2="255.5099838473" y2="390.3380582936"/>
          <line class="cls-2" x1="397.7599838473" y1="521.5080582936" x2="279.5099838473" y2="403.2580582936"/>
          <line class="cls-2" x1="304.8299838473" y1="417.4980582936" x2="408.8399838473" y2="521.5080582936"/>
          <line class="cls-2" x1="419.8999838473" y1="521.5080582936" x2="322.8999838473" y2="424.5080582936"/>
          <line class="cls-2" x1="430.9799838473" y1="521.5080582936" x2="331.9599838473" y2="422.4880582936"/>
          <line class="cls-2" x1="442.0599838473" y1="521.5080582936" x2="341.0199838473" y2="420.4680582936"/>
          <line class="cls-2" x1="350.0699838473" y1="418.4480582936" x2="453.1299838473" y2="521.5080582936"/>
          <line class="cls-2" x1="359.1199838473" y1="416.4280582936" x2="464.1999838473" y2="521.5080582936"/>
          <line class="cls-2" x1="475.2799838473" y1="521.5080582936" x2="368.1699838473" y2="414.3980582936"/>
          <line class="cls-2" x1="486.3599838473" y1="521.5080582936" x2="402.9299838473" y2="438.0780582936"/>
          <line class="cls-2" x1="497.4199838473" y1="521.5080582936" x2="406.8399838473" y2="430.9280582936"/>
          <line class="cls-2" x1="508.4999838473" y1="521.5080582936" x2="410.5199838473" y2="423.5280582936"/>
          <line class="cls-2" x1="519.5799838473" y1="521.5080582936" x2="414.2099838473" y2="416.1380582936"/>
          <line class="cls-2" x1="520.6599838473" y1="511.5080582936" x2="417.8999838473" y2="408.7480582936"/>
          <line class="cls-2" x1="520.6599838473" y1="500.4480582936" x2="427.8899838473" y2="407.6780582936"/>
          <line class="cls-2" x1="520.6599838473" y1="489.3680582936" x2="441.3799838473" y2="410.0880582936"/>
          <line class="cls-2" x1="453.9999838473" y1="411.6280582936" x2="520.6599838473" y2="478.2880582936"/>
          <line class="cls-2" x1="520.6599838473" y1="467.2180582936" x2="460.5699838473" y2="407.1280582936"/>
          <line class="cls-2" x1="520.6599838473" y1="456.1480582936" x2="467.1399838473" y2="402.6280582936"/>
          <line class="cls-2" x1="520.6599838473" y1="445.0680582936" x2="473.7199838473" y2="398.1280582936"/>
          <line class="cls-2" x1="520.6599838473" y1="433.9880582936" x2="480.2899838473" y2="393.6180582936"/>
          <line class="cls-2" x1="520.6599838473" y1="422.9280582936" x2="486.8599838473" y2="389.1280582936"/>
          <line class="cls-2" x1="520.6599838473" y1="411.8480582936" x2="493.4399838473" y2="384.6280582936"/>
          <line class="cls-2" x1="520.6599838473" y1="400.7680582936" x2="499.0499838473" y2="379.1580582936"/>
          <line class="cls-2" x1="520.6599838473" y1="389.6880582936" x2="500.8299838473" y2="369.8580582936"/>
          <line class="cls-2" x1="520.6599838473" y1="378.6280582936" x2="502.5999838473" y2="360.5680582936"/>
          <line class="cls-2" x1="520.6599838473" y1="367.5480582936" x2="504.3799838473" y2="351.2680582936"/>
          <line class="cls-2" x1="510.7499838473" y1="346.5580582936" x2="520.6599838473" y2="356.4680582936"/>
          <line class="cls-2" x1="520.6599838473" y1="345.3980582936" x2="518.1499838473" y2="342.8880582936"/>
        </g>
        <path class="cls-1" d="M520.6599838473,341.6481950124v179.8598632812h-260.1400146484l-1.4699707031-5.8098144531-7.4799804688-29.6401367188-3.1100463867-12.3000488281-16.1199951172-6.9299316406-19.4299926758-8.3498535156-15.0800170898-6.4799804688,4.1000366211-4.5,5.2699584961-5.8100585938,5.2700195312-5.7900390625,5.2800292969-5.8000488281,5.2799682617-5.8000488281,1.0700073242-1.1799316406v-25.6599121094l4.3300170898-.9799804688,9.0299682617-2.0500488281,9.0200195312-2.0500488281,9.0299682617-2.0400390625.7300415039-.169921875,23.2699584961,13.08984375,25.3200073242,14.240234375,14.0599975586,7.9099121094,4.0100097656-.9001464844,9.0599975586-2.0200195312,9.0599975586-2.0197753906,9.0500488281-2.0200195312,9.0500488281-2.0200195312,9.0499267578-2.0300292969,2.6099853516-.580078125,22.8400878906,22.8500976562,9.3099365234,1.4099121094.3099365234.0500488281,3.6000976562-7.1999511719,3.6799316406-7.4001464844,7.3800048828-14.7797851562,1.3099365234-2.6201171875,8.6800537109,1.5500488281,13.4901123047,2.4099121094,11.7899169922,2.1000976562.8299560547-.5600585938,6.5700683594-4.5,6.5699462891-4.5,6.5799560547-4.5,6.5700683594-4.5100097656,6.5700683594-4.4899902344,6.5799560547-4.5,5.25-3.6000976562.3599853516-1.8698730469,1.7800292969-9.3000488281,1.7700195312-9.2900390625,1.7800292969-9.2998046875.3298339844-1.7102050781,6.0400390625-3,7.4000244141-3.669921875,2.5100097656-1.2399902344Z"/>
      </g>
      <g>
        <path class="cls-13" d="M120.4163606214,490.0569075172c1.8624504341-5.5323240189,18.2218007315-38.6945297884,12.6480734489-77.3890595769l51.8492516946-.0000000009c-5.5737272809,38.6945297888,10.785623018,71.8567355575,12.6480734523,77.3890595764l-77.1453985958.0000000015Z"/>
        <g>
          <ellipse class="cls-1" cx="159.8833610631" cy="453.0207298317" rx="17.0087386302" ry="6.5760240041" transform="translate(-317.4039456907 398.3645534764) rotate(-64.0279504705)"/>
          <path class="cls-1" d="M164.2693516379,444.1141317743c-4.1137933519-8.4449797625-7.4591587681-9.8282626535-10.8064983649-8.4950721919-3.3740700057,1.3438367451-2.5770083741,9.7258642857,1.5367849778,18.1708440482s10.0955281326,14.0016332648,13.3605785776,12.4111329686c3.265050445-1.5905002963,2.8757076212-7.4031520299-4.4427123022-17.7474571139"/>
          <ellipse class="cls-1" cx="158.537516932" cy="451.8011198155" rx="6.5760240041" ry="17.0087386302" transform="translate(-304.6613600656 573.066104414) rotate(-85.3346912134)"/>
          <circle class="cls-1" cx="160.0940992458" cy="451.2448999047" r="1.775829927"/>
          <circle class="cls-11" cx="144.4693598524" cy="454.5095769931" r="1.1251609812"/>
          <circle class="cls-11" cx="163.8512412168" cy="443.5355446154" r="1.1251609812"/>
          <circle class="cls-11" cx="159.6626779131" cy="465.1389572738" r="1.1251609812"/>
        </g>
        <path class="cls-1" d="M158.4309629185,354.7480582936c20.9287209401,16.803378614-18.5407488259,26.4535711277,0,41.3396801834"/>
        <path class="cls-1" d="M169.8817117213,354.7480582936c20.9287209401,16.803378614-18.5407488259,26.4535711277,0,41.3396801834"/>
        <path class="cls-1" d="M146.2323684532,354.7480582936c20.9287209401,16.803378614-18.5407488259,26.4535711277,0,41.3396801834"/>
        <circle class="cls-1" cx="158.653790308" cy="405.27131625" r="2.4125704108"/>
      </g>
      <circle class="cls-5" cx="398.8516407913" cy="477.1443115018" r="6.6662448218"/>
      <circle class="cls-3" cx="120.2655909394" cy="191.3777763426" r="6.6662448218"/>
      <path class="cls-4" d="M419.5539868382,263.4303660345c-3.1884157244,1.8408326768-7.2654270977.7484007718-9.1062597744-2.4400149526-1.8408326768-3.1884157244-.7484007718-7.2654270977,2.4400149526-9.1062597744s7.2654270977-.7484007718,9.1062597744,2.4400149526c.4602072914.7971024107.7370862458,1.6497418377.8437193002,2.509093961.3198999768,2.5780629265-.8924209392,5.216540428-3.2837342529,6.5971658134Z"/>
      <path class="cls-7" d="M125.1260089608,186.8198202507c58.5419559058-45.7436772725,88.2317210319,27.4580215082,128.7065204049-26.6925195115,73.8465291786-98.7980068931,115.8737777467,91.6780380443,266.8737844244,11.6284673162"/>
      <g>
        <path class="cls-7" d="M207.1999838473,521.5080582936c0-42.4561257561,22.8753556268-76.0765160151,79.0126849197-68.301596797,56.1373292929,7.7749192182,48.3501617934-80.5388179571,122.6989458139-68.578403203,74.3487840205,11.9604147541,54.4094635132,92.5162532082-3.3937289677,92.5162532082"/>
        <path class="cls-6" d="M452.7120586594,411.3855201672c14.3886246649,27.6835642133-7.4544747704,65.7587913347-47.1941730463,65.7587913347"/>
        <path class="cls-6" d="M228.5785762355,465.813726322c12.7620959671-10.9276069098,31.6293022538-16.2088815436,57.6340925315-12.6072648254,26.461883525,3.6649233115,38.7199414857-14.0207557692,52.0723496892-32.4902595932"/>
      </g>
      <path class="cls-14" d="M186.1049545504,521.5080582936l-88.3631477281-77.3262416582c-26.8857331125-23.5275988834-70.4761191594-23.5275988834-97.3618522719,0v77.3262416582h185.725Z"/>
      <path class="cls-6" d="M274.7780373181.3781754811s-8.3590288453,67.4693757083,39.3073492499,67.4693757083c12.3860925013,0,25.845710759.5403781952,38.9846122746,2.2911521472"/>
    </g>
  </g>
</svg>