<?xml version="1.0" encoding="UTF-8"?>
<svg id="Layer_2" xmlns="http://www.w3.org/2000/svg" xmlns:xlink="http://www.w3.org/1999/xlink" viewBox="0 0 515.08805113 516.0997967">
  <defs>
    <style>
      .cls-1, .cls-2, .cls-3, .cls-4, .cls-5, .cls-6, .cls-7, .cls-8 {
        fill: none;
      }

      .cls-2, .cls-9, .cls-10, .cls-11, .cls-4, .cls-5, .cls-6, .cls-7, .cls-8, .cls-12 {
        stroke-miterlimit: 10;
      }

      .cls-2, .cls-9, .cls-10, .cls-5, .cls-7 {
        stroke: #0a5467;
      }

      .cls-2, .cls-10, .cls-11, .cls-8, .cls-12 {
        stroke-width: .75px;
      }

      .cls-13 {
        fill: #695858;
      }

      .cls-3 {
        stroke-linecap: round;
        stroke-linejoin: round;
      }

      .cls-3, .cls-12 {
        stroke: #0f3d51;
      }

      .cls-9 {
        fill: #ebc8d3;
      }

      .cls-9, .cls-5, .cls-12 {
        fill-rule: evenodd;
      }

      .cls-14, .cls-10 {
        fill: #eb4c66;
      }

      .cls-15, .cls-12 {
        fill: #ffeac9;
      }

      .cls-11 {
        fill: #006c90;
      }

      .cls-11, .cls-4 {
        stroke: #0d3e52;
      }

      .cls-6 {
        stroke: #ffeac9;
        stroke-width: 1px;
      }

      .cls-8 {
        stroke: #ebc8d3;
      }

      .cls-16 {
        fill: #5893ce;
      }

      .cls-17 {
        clip-path: url(#clippath);
      }
    </style>
    <clipPath id="clippath">
      <rect class="cls-1" x=".72884265" width="514.03829699" height="515.19939061"/>
    </clipPath>
  </defs>
  <g class="cls-17">
    <rect class="cls-11" x="-13.65833874" y="-13.55169639" width="558.28069773" height="558.2806978"/>
    <g>
      <polygon class="cls-9" points="-24.88089411 229.2143261 -19.78344268 213.15992925 -3.6867772 220.34338965 1.24930563 207.7617547 25.60523254 195.34184495 53.87919961 194.42740777 83.18845049 167.92126498 94.31821157 172.45425816 104.18726156 158.31224647 130.45899559 152.5983887 142.06204866 143.242743 169.18359117 134.72748225 162.42240366 119.09156206 174.96674463 110.33804704 200.12915919 141.14587512 224.80768117 138.2425196 220.77524294 119.04811362 245.9376575 120.17719632 262.06741043 148.88815653 311.44896333 171.08622796 336.3157215 164.63262573 345.29693552 178.72819944 328.52199248 193.56757213 365.92908924 237.89462252 394.54019118 221.28445832 377.55644137 198.08390295 392.073219 188.08345614 438.84950249 210.01992011 461.91504917 210.5038127 461.91504917 227.44005327 448.8499493 235.02103715 477.23831445 249.53781478 528.95854535 260.93647382 559.82264943 301.31432167 552.40296308 312.44385119 524.01459793 316.15369436 514.01415112 337.92886081 498.83558582 345.20127394 492.88417479 376.31767277 447.88216412 407.12550086 414.30483334 401.13451619 398.52512017 432.77180801 389.00856595 431.32013025 366.42691185 408.73847615 315.13429755 420.19060073 253.19604632 385.35033441 221.42043306 392.55678364 221.42043306 417.93243532 195.45153085 446.482098 139.91980128 437.5157764 122.22245257 404.86733545 88.18867389 393.73780593 49.13106543 341.6759996 18.66943879 327.44452141 -1.81534743 281.47472557 8.66899197 261.796427 -24.88089411 229.2143261"/>
      <polygon class="cls-14" points="257.90844689 515.19939061 .72884265 515.19939061 .72884265 286.09661664 19.15673271 327.44076989 49.61611048 341.6768004 88.67649374 393.73743926 122.70477499 404.86955074 140.40109596 437.51380028 195.93186078 446.48040931 245.98972131 467.99421513 257.90844689 515.19939061"/>
      <polygon class="cls-16" points="515.08805113 0 515.08805113 257.77275207 477.71822967 249.53747078 447.96645163 234.32486858 461.76431034 228.76816733 462.39462069 210.50677507 439.33010072 210.02236096 392.55849404 188.08494254 378.03566478 198.07975491 395.02014802 221.28263581 366.4094847 237.89149898 329.00997568 193.57183145 345.77699149 178.73239521 336.80030559 164.63490665 311.93655045 171.09038243 262.55497265 148.88601732 246.42068808 120.1764558 221.26029868 119.04953528 225.2938849 138.23856131 200.60801376 141.14504599 175.4476847 110.33973573 162.90209532 119.08911869 169.66422188 134.72915364 142.54638432 143.24103611 130.93999594 152.60323793 104.67235704 158.30759426 94.80594941 172.45480345 83.67407929 167.91695106 54.36147409 194.43180528 26.0869681 195.34125839 1.73725429 207.75838269 .72884265 210.32889106 .72884265 0 515.08805113 0"/>
      <polygon class="cls-2" points="515.08805113 336.63498355 515.08805113 515.19939061 .72884265 515.19939061 .72884265 286.09661664 19.15673271 327.44076989 49.61611048 341.6768004 88.67649374 393.73743926 122.70477499 404.86955074 140.40109596 437.51380028 195.93186078 446.48040931 221.90292577 417.92918145 221.90292577 392.56103946 253.67712461 385.35396152 315.61418764 420.19315972 366.91369052 408.73496779 389.49373603 431.32478848 399.00425498 432.76837633 414.79254671 401.13253842 448.36610141 407.12339179 493.36803979 376.31808152 499.31955111 345.20624115 514.49484297 337.93013359 515.08805113 336.63498355"/>
      <polygon class="cls-11" points="1.5394118 61.75298083 67.87342726 119.80161582 176.96388561 24.33698648 176.96610614 24.33698625 288.97604538 122.31519824 288.97826541 122.31519775 392.96129565 31.27881466 515.09066002 130.3844034 515.08805113 0 .72884265 0 1.5394118 61.75298083"/>
      <polyline class="cls-2" points="257.90844689 515.19939061 245.98972131 467.99421513 195.93186078 446.48040931"/>
      <polygon class="cls-10" points="221.90292577 417.92918145 221.90292577 392.56103946 253.67712461 385.35396152 315.61418764 420.19315972 366.91369052 408.73496779 389.49373603 431.32478848 399.00425498 432.76837633 414.79254671 401.13253842 448.36610141 407.12339179 493.36803979 376.31808152 499.31955111 345.20624115 515.08805113 337.39196954 515.08805113 515.19939061 257.90844689 515.19939061 245.98972131 467.99421513 195.93186078 446.48040931 221.90292577 417.92918145"/>
      <g>
        <line class="cls-2" x1="3.85288164" y1="293.10592233" x2=".72884265" y2="296.23984752"/>
        <line class="cls-2" x1="7.22407562" y1="300.67875102" x2=".72884265" y2="307.17398399"/>
        <line class="cls-2" x1="10.60515579" y1="308.25157972" x2=".72884265" y2="318.12789287"/>
        <line class="cls-2" x1="13.98623597" y1="315.82440842" x2=".72884265" y2="329.08180174"/>
        <line class="cls-2" x1="17.35742995" y1="323.39723712" x2=".72884265" y2="340.02582442"/>
        <line class="cls-2" x1="22.6366604" y1="329.06202934" x2=".72884265" y2="350.96984709"/>
        <line class="cls-2" x1="30.1007409" y1="332.55185771" x2=".72884265" y2="361.92375597"/>
        <line class="cls-2" x1="37.56482141" y1="336.04168608" x2=".72884265" y2="372.86777864"/>
        <line class="cls-2" x1="45.01901571" y1="339.53151445" x2=".72884265" y2="383.82168751"/>
        <line class="cls-2" x1="51.41538669" y1="344.07916615" x2=".72884265" y2="394.76571019"/>
        <line class="cls-2" x1="56.11133138" y1="350.33713033" x2=".72884265" y2="405.71961906"/>
        <line class="cls-2" x1="60.80727607" y1="356.59509452" x2=".72884265" y2="416.66364174"/>
        <line class="cls-2" x1="65.49333456" y1="362.8431725" x2=".72884265" y2="427.61755061"/>
        <line class="cls-2" x1="70.18927925" y1="369.10113669" x2=".72884265" y2="438.56157329"/>
        <line class="cls-2" x1="74.88522393" y1="375.35910088" x2=".72884265" y2="449.51548216"/>
        <line class="cls-2" x1="79.58116862" y1="381.60717886" x2=".72884265" y2="460.45950484"/>
        <line class="cls-2" x1="84.26722711" y1="387.86514305" x2=".72884265" y2="471.40352751"/>
        <line class="cls-2" x1="89.18066819" y1="393.90561085" x2=".72884265" y2="482.35743639"/>
        <line class="cls-2" x1="97.43564464" y1="396.60454327" x2=".72884265" y2="493.30145906"/>
        <line class="cls-2" x1="105.68073489" y1="399.30347569" x2=".72884265" y2="504.25536793"/>
        <line class="cls-2" x1="113.92582515" y1="402.00240811" x2=".72884265" y2="515.19939061"/>
        <line class="cls-2" x1="122.1808016" y1="404.70134053" x2="11.68275152" y2="515.19939061"/>
        <line class="cls-2" x1="126.31323293" y1="411.51293188" x2="22.6267742" y2="515.19939061"/>
        <line class="cls-2" x1="130.15896447" y1="418.62110921" x2="33.58068307" y2="515.19939061"/>
        <line class="cls-2" x1="134.00469602" y1="425.71940034" x2="44.52470575" y2="515.19939061"/>
        <line class="cls-2" x1="137.86031376" y1="432.81769147" x2="55.47861462" y2="515.19939061"/>
        <line class="cls-2" x1="143.59430938" y1="438.02771852" x2="66.42263729" y2="515.19939061"/>
        <line class="cls-2" x1="153.01585736" y1="439.55019322" x2="77.36665997" y2="515.19939061"/>
        <line class="cls-2" x1="162.44729153" y1="441.07266792" x2="88.32056884" y2="515.19939061"/>
        <line class="cls-2" x1="171.87872571" y1="442.59514262" x2="99.26459152" y2="515.19939061"/>
        <line class="cls-2" x1="181.29038748" y1="444.11761732" x2="110.21850039" y2="515.19939061"/>
        <line class="cls-2" x1="190.72182166" y1="445.64009202" x2="121.16252307" y2="515.19939061"/>
        <line class="cls-2" x1="199.36235989" y1="447.95346267" x2="132.11643194" y2="515.19939061"/>
        <line class="cls-2" x1="207.01427818" y1="451.24556705" x2="143.06045462" y2="515.19939061"/>
        <line class="cls-2" x1="214.67608267" y1="454.52778523" x2="154.00447729" y2="515.19939061"/>
        <line class="cls-2" x1="222.32800096" y1="457.82977581" x2="164.95838617" y2="515.19939061"/>
        <line class="cls-2" x1="229.98980546" y1="461.11199399" x2="175.91229504" y2="515.19939061"/>
        <line class="cls-2" x1="237.65160995" y1="464.40409838" x2="186.85631772" y2="515.19939061"/>
        <line class="cls-2" x1="245.30352824" y1="467.69620276" x2="197.80034039" y2="515.19939061"/>
        <line class="cls-2" x1="248.00246066" y1="475.95117921" x2="208.75424926" y2="515.19939061"/>
        <line class="cls-2" x1="250.20708312" y1="484.69057943" x2="219.70815814" y2="515.19939061"/>
        <line class="cls-2" x1="252.41170557" y1="493.42997965" x2="230.64229461" y2="515.19939061"/>
        <line class="cls-2" x1="254.62621422" y1="502.16937987" x2="241.59620349" y2="515.19939061"/>
        <line class="cls-2" x1="256.83083668" y1="510.91866629" x2="252.55011236" y2="515.19939061"/>
      </g>
      <g>
        <g>
          <line class="cls-8" x1="262.19907189" y1="515.19939061" x2="256.45519007" y2="509.45550879"/>
          <g>
            <line class="cls-8" x1="273.15298076" y1="515.19939061" x2="252.75775151" y2="494.80416136"/>
            <line class="cls-8" x1="210.84026629" y1="452.88667614" x2="199.98521941" y2="442.03162926"/>
          </g>
          <g>
            <line class="cls-8" x1="284.10688963" y1="515.19939061" x2="249.06031296" y2="480.15281393"/>
            <line class="cls-8" x1="230.04915162" y1="461.14165259" x2="205.19524646" y2="436.28774744"/>
          </g>
          <line class="cls-8" x1="295.04102611" y1="515.19939061" x2="210.40527352" y2="430.56363802"/>
          <line class="cls-8" x1="215.62518677" y1="424.8296424" x2="305.99493498" y2="515.19939061"/>
          <line class="cls-8" x1="220.84510003" y1="419.09564678" x2="316.94884386" y2="515.19939061"/>
          <line class="cls-8" x1="221.90292336" y1="409.20944743" x2="327.89286653" y2="515.19939061"/>
          <line class="cls-8" x1="221.90292336" y1="398.26542476" x2="338.83688921" y2="515.19939061"/>
          <line class="cls-8" x1="349.79079808" y1="515.19939061" x2="226.18364767" y2="391.5922402"/>
          <line class="cls-8" x1="235.11088568" y1="389.56556933" x2="360.74470696" y2="515.19939061"/>
          <line class="cls-8" x1="371.68872963" y1="515.19939061" x2="244.02823749" y2="387.53889847"/>
          <line class="cls-8" x1="382.63275231" y1="515.19939061" x2="252.9554755" y2="385.5221138"/>
          <line class="cls-8" x1="393.58666118" y1="515.19939061" x2="276.68235393" y2="398.29508336"/>
          <line class="cls-8" x1="301.71421067" y1="412.37303122" x2="404.54057006" y2="515.19939061"/>
          <line class="cls-8" x1="415.47470653" y1="515.19939061" x2="319.57857288" y2="419.30325696"/>
          <line class="cls-8" x1="426.4286154" y1="515.19939061" x2="328.53546949" y2="417.3062447"/>
          <line class="cls-8" x1="437.38252428" y1="515.19939061" x2="337.4923661" y2="415.30923243"/>
          <line class="cls-8" x1="346.4393765" y1="413.31222016" x2="448.32654695" y2="515.19939061"/>
          <line class="cls-8" x1="355.38638691" y1="411.31520789" x2="459.27056963" y2="515.19939061"/>
          <line class="cls-8" x1="470.2244785" y1="515.19939061" x2="364.33339732" y2="409.30830943"/>
          <line class="cls-8" x1="481.17838738" y1="515.19939061" x2="398.69782624" y2="432.71882947"/>
          <line class="cls-8" x1="492.11252385" y1="515.19939061" x2="402.56333019" y2="425.65019694"/>
          <line class="cls-8" x1="503.06643273" y1="515.19939061" x2="406.20145155" y2="418.33440943"/>
          <line class="cls-8" x1="514.0203416" y1="515.19939061" x2="409.8494591" y2="411.02850811"/>
          <line class="cls-8" x1="515.08805113" y1="505.31319126" x2="413.49746666" y2="403.7226068"/>
          <line class="cls-8" x1="515.08805113" y1="494.37905479" x2="423.37377981" y2="402.66478347"/>
          <line class="cls-8" x1="515.08805113" y1="483.42514592" x2="436.71026272" y2="405.04735751"/>
          <line class="cls-8" x1="449.1866463" y1="406.56983221" x2="515.08805113" y2="472.47123704"/>
          <line class="cls-8" x1="515.08805113" y1="461.52721437" x2="455.68187927" y2="402.1210425"/>
          <line class="cls-8" x1="515.08805113" y1="450.58319169" x2="462.17711224" y2="397.6722528"/>
          <line class="cls-8" x1="515.08805113" y1="439.62928282" x2="468.68223141" y2="393.22346309"/>
          <line class="cls-8" x1="515.08805113" y1="428.67537394" x2="475.17746437" y2="388.76478719"/>
          <line class="cls-8" x1="515.08805113" y1="417.74123747" x2="481.67269734" y2="384.32588368"/>
          <line class="cls-8" x1="515.08805113" y1="406.78732859" x2="488.17781651" y2="379.87709398"/>
          <line class="cls-8" x1="515.08805113" y1="395.83341972" x2="493.72397435" y2="374.46934293"/>
          <line class="cls-8" x1="515.08805113" y1="384.87951084" x2="495.48371783" y2="365.27517754"/>
          <line class="cls-8" x1="515.08805113" y1="373.94537437" x2="497.23357511" y2="356.09089835"/>
          <line class="cls-8" x1="515.08805113" y1="362.99146549" x2="498.9933186" y2="346.89673296"/>
          <line class="cls-8" x1="505.29082758" y1="342.24033307" x2="515.08805113" y2="352.03755662"/>
          <line class="cls-8" x1="515.08805113" y1="341.09353395" x2="512.60661509" y2="338.61209791"/>
        </g>
        <path class="cls-2" d="M515.08805113,337.38634435v177.81304626h-257.17960424l-1.45324234-5.74369838-7.3948578-29.30283002-3.07465386-12.16007347-15.93654852-6.85106856-19.20887809-8.25483164-14.90840551-6.40623787,4.05337794-4.44878971,5.20998602-5.74393975,5.21004636-5.72414804,5.21994222-5.73404389,5.21988188-5.73404389,1.05783057-1.16650394v-25.36790063l4.28074121-.96882823,8.92720663-2.02671914,8.91737112-2.02671914,8.92720663-2.01682328.72173358-.16798815,23.00514484,12.94088047,25.03186398,14.07817958,13.89999387,7.81989679,3.96437559-.88990276,8.95689419-1.99703158,8.95689419-1.99679021,8.94705868-1.99703158,8.94705868-1.99703158,8.946938-2.00692743,2.58028355-.5734768,22.58016619,22.59006205,9.20398884,1.39386722.30640943.04947927,3.55912831-7.11801526,3.63805378-7.31593233,7.29601994-14.61159023,1.29502936-2.59030008,8.58127413,1.53240917,13.33659394,2.38248715,11.65574696,2.07619841.8205111-.55368509,6.49530055-4.44878971,6.49517987-4.44878971,6.50507572-4.44878971,6.49530055-4.45868556,6.49530055-4.43889385,6.50507572-4.44878971,5.19025466-3.55912831.35588869-1.84859377,1.75977245-9.19421366,1.74987659-9.18431781,1.75977245-9.1939723.32608045-1.69074283,5.97130302-2.9658598,7.31581165-3.62815792,2.48144569-1.22587906Z"/>
      </g>
      <polygon class="cls-5" points="-24.88089411 229.2143261 -19.78344268 213.15992925 -3.6867772 220.34338965 1.24930563 207.7617547 25.60523254 195.34184495 53.87919961 194.42740777 83.18845049 167.92126498 94.31821157 172.45425816 104.18726156 158.31224647 130.45899559 152.5983887 142.06204866 143.242743 169.18359117 134.72748225 162.42240366 119.09156206 174.96674463 110.33804704 200.12915919 141.14587512 224.80768117 138.2425196 220.77524294 119.04811362 245.9376575 120.17719632 262.06741043 148.88815653 311.44896333 171.08622796 336.3157215 164.63262573 345.29693552 178.72819944 328.52199248 193.56757213 365.92908924 237.89462252 394.54019118 221.28445832 377.55644137 198.08390295 392.073219 188.08345614 438.84950249 210.01992011 461.91504917 210.5038127 461.91504917 227.44005327 448.8499493 235.02103715 477.23831445 249.53781478 528.95854535 260.93647382 559.82264943 301.31432167 552.40296308 312.44385119 524.01459793 316.15369436 514.01415112 337.92886081 498.83558582 345.20127394 492.88417479 376.31767277 447.88216412 407.12550086 414.30483334 401.13451619 398.52512017 432.77180801 389.00856595 431.32013025 366.42691185 408.73847615 315.13429755 420.19060073 253.19604632 385.35033441 221.42043306 392.55678364 221.42043306 417.93243532 195.45153085 446.482098 139.91980128 437.5157764 122.22245257 404.86733545 88.18867389 393.73780593 49.13106543 341.6759996 18.66943879 327.44452141 -1.81534743 281.47472557 8.66899197 261.796427 -24.88089411 229.2143261"/>
      <g>
        <path class="cls-12" d="M385.56161476,492.29631544c.008327-.016654.008327-.024981,0-.024981-7.28141753-40.17728726-31.88057926-74.32136207-65.78329178-94.45158035l-49.77216232-34.09411281c-.26717516-.18313366-.52584369-.37295874-.77600716-.56905037-8.50916904-6.66994559-4.83658782-20.39357335,5.77445847-22.46717615,61.87053664-12.09069442,108.56310893-66.58676292,108.56310893-131.99704693,0-41.03687108-18.3797988-77.77652412-47.35467081-102.44583163-19.29781116-16.43022401-30.44966826-40.47161009-30.44966884-65.81638818l-.00000092-40.4301746h-107.65071847l-.00000053,35.83910182c-.00000039,26.24194894-11.9461177,51.08101054-32.51536254,67.37659431-31.16700023,24.69144916-51.1359431,62.89893417-51.04401991,105.77146197.14180214,66.1424235,47.81755598,120.91788353,110.70942217,132.11088516,5.17148003.9203795,9.13745174,5.29416143,9.17592486,10.54676306.00025858.03530371.00038789.07060828.00038789.10591295,0,4.54364508-2.10528256,9.09561717-6.31608905,11.97494859l-49.78061,34.09411281c-19.12325481,11.35084605-35.28414958,27.17045454-47.04271688,46.01083275-9.09561717,14.56301607-15.5699192,30.92351745-18.74057491,48.44074759-.008327,0-.008327.008327-.008327.008327-.9318998,5.15115397-1.58104367,10.40217158-1.93065695,15.72807184-.1747463,2.81277577-.2828766,4.41218955-.2912036,7.19165732h277.4629669c-.04151431-8.22188568-.80711549-15.08897107-2.23018755-22.90307517Z"/>
        <path class="cls-3" d="M143.37534191,141.51201641c4.29110179-6.73107907,9.24735397-13.07490824,14.82532042-18.94099588"/>
        <path class="cls-3" d="M124.51005026,221.39623413c-.40962561-4.10362907-.62127789-8.25051194-.63026487-12.4293576-.03995946-18.70964635,4.02145809-36.79931933,11.67379597-53.2055714"/>
        <g>
          <g id="_x3C_Radial_Repeat_x3E_">
            <line class="cls-6" x1="103.30115205" y1="205.81330633" x2="80.70932973" y2="205.85034119"/>
          </g>
          <g id="_x3C_Radial_Repeat_x3E_-2" data-name="_x3C_Radial_Repeat_x3E_">
            <line class="cls-6" x1="108.21078589" y1="168.08061976" x2="86.37917557" y2="162.26919876"/>
          </g>
          <g id="_x3C_Radial_Repeat_x3E_-3" data-name="_x3C_Radial_Repeat_x3E_">
            <line class="cls-6" x1="122.71865428" y1="132.90417343" x2="103.13504439" y2="121.64033542"/>
          </g>
          <g id="_x3C_Radial_Repeat_x3E_-4" data-name="_x3C_Radial_Repeat_x3E_">
            <line class="cls-6" x1="145.83697158" y1="102.68096863" x2="129.83595341" y2="86.73232552"/>
          </g>
          <g id="_x3C_Radial_Repeat_x3E_-5" data-name="_x3C_Radial_Repeat_x3E_">
            <line class="cls-6" x1="175.98965154" y1="79.47165524" x2="164.66166656" y2="59.92508019"/>
          </g>
          <g id="_x3C_Radial_Repeat_x3E_-6" data-name="_x3C_Radial_Repeat_x3E_">
            <line class="cls-6" x1="211.12227633" y1="64.85784303" x2="205.23930913" y2="43.04540319"/>
          </g>
          <g id="_x3C_Radial_Repeat_x3E_-7" data-name="_x3C_Radial_Repeat_x3E_">
            <line class="cls-6" x1="248.84009145" y1="59.83327523" x2="248.80305659" y2="37.24145291"/>
          </g>
          <g id="_x3C_Radial_Repeat_x3E_-8" data-name="_x3C_Radial_Repeat_x3E_">
            <line class="cls-6" x1="286.57302216" y1="64.74290907" x2="292.38444316" y2="42.91129875"/>
          </g>
          <g id="_x3C_Radial_Repeat_x3E_-9" data-name="_x3C_Radial_Repeat_x3E_">
            <line class="cls-6" x1="321.7494685" y1="79.25175402" x2="333.01330651" y2="59.66814413"/>
          </g>
          <g id="_x3C_Radial_Repeat_x3E_-10" data-name="_x3C_Radial_Repeat_x3E_">
            <line class="cls-6" x1="351.97169673" y1="102.37007131" x2="367.92033984" y2="86.36905314"/>
          </g>
          <g id="_x3C_Radial_Repeat_x3E_-11" data-name="_x3C_Radial_Repeat_x3E_">
            <line class="cls-6" x1="375.18198669" y1="132.52250714" x2="394.72856173" y2="121.19452215"/>
          </g>
          <g id="_x3C_Radial_Repeat_x3E_-12" data-name="_x3C_Radial_Repeat_x3E_">
            <line class="cls-6" x1="389.79628718" y1="167.65510141" x2="411.60872702" y2="161.77213421"/>
          </g>
          <g id="_x3C_Radial_Repeat_x3E_-13" data-name="_x3C_Radial_Repeat_x3E_">
            <line class="cls-6" x1="394.81972583" y1="205.37287076" x2="417.41154814" y2="205.3358359"/>
          </g>
          <g id="_x3C_Radial_Repeat_x3E_-14" data-name="_x3C_Radial_Repeat_x3E_">
            <line class="cls-6" x1="389.91024458" y1="243.10587776" x2="411.7418549" y2="248.91729876"/>
          </g>
          <g id="_x3C_Radial_Repeat_x3E_-15" data-name="_x3C_Radial_Repeat_x3E_">
            <line class="cls-6" x1="375.4018879" y1="278.28232409" x2="394.98549779" y2="289.5461621"/>
          </g>
          <g id="_x3C_Radial_Repeat_x3E_-16" data-name="_x3C_Radial_Repeat_x3E_">
            <line class="cls-6" x1="352.28357061" y1="308.50479647" x2="368.28458878" y2="324.45343958"/>
          </g>
          <g id="_x3C_Radial_Repeat_x3E_-17" data-name="_x3C_Radial_Repeat_x3E_">
            <line class="cls-6" x1="322.13113479" y1="331.71484229" x2="333.45911977" y2="351.26141733"/>
          </g>
          <g id="_x3C_Radial_Repeat_x3E_-18" data-name="_x3C_Radial_Repeat_x3E_">
            <line class="cls-6" x1="286.99878466" y1="346.3292801" x2="292.88175186" y2="368.14171995"/>
          </g>
          <g id="_x3C_Radial_Repeat_x3E_-19" data-name="_x3C_Radial_Repeat_x3E_">
            <line class="cls-6" x1="249.28020659" y1="351.35248987" x2="249.31724145" y2="373.94431219"/>
          </g>
          <g id="_x3C_Radial_Repeat_x3E_-20" data-name="_x3C_Radial_Repeat_x3E_">
            <line class="cls-6" x1="211.54849658" y1="346.44285603" x2="205.73707559" y2="368.27446636"/>
          </g>
          <g id="_x3C_Radial_Repeat_x3E_-21" data-name="_x3C_Radial_Repeat_x3E_">
            <line class="cls-6" x1="176.37205025" y1="331.93498764" x2="165.10821224" y2="351.51859753"/>
          </g>
          <g id="_x3C_Radial_Repeat_x3E_-22" data-name="_x3C_Radial_Repeat_x3E_">
            <line class="cls-6" x1="146.14884546" y1="308.81667035" x2="130.20020235" y2="324.81768852"/>
          </g>
          <g id="_x3C_Radial_Repeat_x3E_-23" data-name="_x3C_Radial_Repeat_x3E_">
            <line class="cls-6" x1="122.93953206" y1="278.66423453" x2="103.39295702" y2="289.99221951"/>
          </g>
          <g id="_x3C_Radial_Repeat_x3E_-24" data-name="_x3C_Radial_Repeat_x3E_">
            <line class="cls-6" x1="108.32376673" y1="243.5318844" x2="86.51132689" y2="249.41485159"/>
          </g>
        </g>
        <path class="cls-4" d="M229.92952748,0c0,61.64707162-22.45605169,107.87669385-22.45605169,159.51070718,0,20.91216946-18.07154016,12.47966416-18.07154016,0,0-27.98348548,52.78449859-35.78554984,52.78449859,0,0,21.12680054-17.29147368,19.30524588-17.29147368,0,0-33.75748979,54.21907546-38.82792192,54.21907546,0,0,19.87712021-16.64587326,17.35757478-16.64587326,0,0-31.93733466,51.48438779-30.63722386,51.48438779,0,0,18.89699772-17.53373002,16.81682044-17.53373002,0,0-48.73447125-22.74176864-52.72730086-22.74176864-159.51070718"/>
      </g>
      <path class="cls-13" d="M350.55044593,280.67197264v.24715498c-19.13966745,26.46537496-48.36333064,45.18983893-81.98630427,50.47893144-.40524728.06921064-.81061525.14831713-1.1961915.25705084l-10.53704709-3.12044879-9.52562465,3.80327138-6.48998602,6.14106204-10.39206437-6.82388463c-.15821298-.02962722-.31630528-.04941893-.47451826-.06921064-25.94137743-2.87685746-50.79529706-16.84606196-69.35171254-35.19484553-11.98206878-11.84364751-21.15637005-25.78322479-27.37482806-40.92888942v-.58325197l11.15166182.09883786c.17788401.00989585.35576801.03958342.5337727.08900234l10.80566898,3.62821826c.24715498.07910649.50420582.10873371.76125666.07910649l10.89461099-1.30498555c.09871718-.01979171.20757157-.01979171.30640943-.00989585l11.29997895.69204602,11.34933754,1.28519385c.05925444,0,.11850888.00989585.17788401.00989585l10.9341944.09883786c.26694669.00989585.53389338-.05931478.78104837-.17794435l10.16292121-5.06172924c.55356441-.28667806,1.22587906-.23725913,1.73998074.11862956l10.44965961,7.18728623c.09895854.06921064.2175881.12852542.33621767.17794435l10.86492343,4.34005599c.25705084.09883786.53389338.13842127.81073593.11862956l10.89449031-1.03803886c.088942-.00989585.16810883-.00989585.24715498-.00989585l11.07261568.50420582c.16798815,0,.33609699.03952307.49430997.088942l11.19112456,3.92485252,11.19112456,4.0731093c.15821298.05931478.32632181.088942.50420582.09883786l11.0922867.58331231c.05937512.00989585.11875025.00989585.16810883,0l11.36912925-.53389338,11.28018724-1.09735365c.10873371-.00989585.20757157-.00989585.30653011,0l11.22069144.86999037c.03958342.00989585.07916683.00989585.10885439.01979171l11.13187012,1.60155947c.16798815.01979171.32620113.06921064.48441411.13842127l11.21091627,5.20009017Z"/>
      <polygon class="cls-13" points="110.32883541 515.19939061 122.1808016 499.94498502 137.86031376 501.58932422 140.16235506 489.80174449 145.75444394 488.93501456 154.00447729 480.15281393 160.81865466 463.35616124 175.0373664 465.25431152 184.34027998 454.52778523 192.78803732 454.52778523 205.90705282 447.95346267 214.67608267 432.81769147 226.92015384 439.55019322 234.95762063 429.63433528 247.73484458 431.90326177 254.69047452 438.56157329 268.89697194 438.13152362 282.05056017 447.4591527 287.42370952 463.78621092 311.55381388 464.40409838 317.7941139 472.24879756 330.16309279 471.40847061 338.83688921 491.44779668 359.56575348 484.69057943 367.52663971 490.60984966 368.31211457 501.21713865 380.22205307 505.00177599 387.7918023 515.19939061 110.32883541 515.19939061"/>
      <polygon class="cls-13" points="251.6489289 342.13778629 248.14684917 336.85098501 254.91576477 332.64615279 260.63571889 335.54853928 258.34943592 341.10183717 251.6489289 342.13778629"/>
      <polygon class="cls-13" points="241.00463279 343.29583004 246.72714803 340.56312999 249.94962306 347.85109865 246.27986249 353.11176209 241.09854179 350.07529653 241.00463279 343.29583004"/>
      <polygon class="cls-13" points="259.02967973 370.83196222 249.99732189 370.18897339 247.33557444 359.51790399 255.52477529 353.11176209 262.10923437 360.28186852 259.02967973 370.83196222"/>
      <polygon class="cls-15" points="249.35130904 332.34051054 239.0706725 319.26316994 240.41749492 304.57616694 237.45506228 320.07796964 247.99952901 333.59405881 249.35130904 332.34051054"/>
      <polygon class="cls-15" points="238.78510297 320.26968722 228.82777132 320.73699881 227.74935996 317.78934107 230.01776349 319.81028248 238.57938555 318.932524 238.78510297 320.26968722"/>
    </g>
    <polygon class="cls-13" points="244.06124959 385.98831237 238.42254081 382.44341597 241.17123762 374.69056887 247.95921045 373.57567438 249.50144791 379.82894662 244.06124959 385.98831237"/>
    <polygon class="cls-13" points="239.18799432 418.8344125 231.7797387 413.60531223 238.61946658 404.49203723 247.74678999 405.3936414 247.57977466 413.97940371 239.18799432 418.8344125"/>
    <polygon class="cls-13" points="247.60954255 388.32254109 257.13824821 383.64190495 262.66779581 395.78206833 256.62225582 404.65639682 247.89249228 399.66951018 247.60954255 388.32254109"/>
    <polygon class="cls-13" points="269.65579864 421.51606574 267.0151745 433.81335324 251.66611254 430.04552292 247.8500117 417.90963658 258.89522493 413.45097282 269.65579864 421.51606574"/>
  </g>
  <rect class="cls-7" x=".72884265" width="514.35920848" height="515.19939061"/>
  <polygon class="cls-15" points="254.65594359 437.22448077 254.65594359 443.92382118 262.70445672 450.62316159 256.05163951 443.22597322 257.07514985 436.66620241 254.65594359 437.22448077"/>
  <polygon class="cls-15" points="226.16048525 438.10842152 227.41661158 443.43532761 218.06544892 452.01885751 219.48440644 455.41505091 219.39136004 452.39104309 229.18449307 444.15643717 228.06793634 437.24774237 226.16048525 438.10842152"/>
</svg>