<?xml version="1.0" encoding="UTF-8"?>
<svg id="Layer_1" data-name="Layer 1" xmlns="http://www.w3.org/2000/svg" viewBox="0 0 367.622789 259.922728">
  <defs>
    <style>
      .cls-1 {
        fill-rule: evenodd;
      }

      .cls-1, .cls-2 {
        fill: #fc7f9a;
      }

      .cls-3 {
        fill: #c7425e;
      }

      .cls-4 {
        fill: none;
        stroke: #fc7f9a;
        stroke-miterlimit: 10;
      }
    </style>
  </defs>
  <rect class="cls-3" x="-11.826252" y="-13.395425" width="423.43445" height="286.713578"/>
  <g>
    <polygon class="cls-1" points="-15.623498 95.953978 -12.034557 84.66906 -.701445 89.718441 2.773882 80.874588 19.922056 72.144415 39.828789 71.501641 60.46443 52.870007 68.300514 56.056327 75.248974 46.115658 93.746003 42.099287 101.915316 35.523039 121.010666 29.537513 116.250345 18.546749 125.082386 12.393749 142.798382 34.049114 160.173685 32.008294 157.334583 18.516208 175.050578 19.30986 186.406985 39.4913 221.174847 55.094715 238.68268 50.558364 245.006046 60.466391 233.195382 70.897247 259.532439 102.055511 279.676537 90.379934 267.71886 74.071856 277.939627 67.042366 310.873207 82.461892 327.112869 82.802029 327.112869 94.70681 317.91418 100.035617 337.901456 110.239716 374.315901 118.252034 396.046261 146.634334 390.822313 154.457476 370.835037 157.06519 363.794065 172.371338 353.107356 177.483245 348.917171 199.35551 317.232795 221.010874 293.592146 216.799706 282.482189 239.038115 275.781909 238.017705 259.882939 222.144663 223.769565 230.194563 180.160961 205.704726 157.788839 210.770266 157.788839 228.607259 139.505024 248.675319 100.407033 242.372734 87.946935 219.42357 63.984916 211.600428 36.48579 175.005268 15.038801 165.001711 .616164 132.688733 7.997829 118.85651 -15.623498 95.953978"/>
    <polygon class="cls-1" points="-15.623498 95.953978 -12.034557 84.66906 -.701445 89.718441 2.773882 80.874588 19.922056 72.144415 39.828789 71.501641 60.46443 52.870007 68.300514 56.056327 75.248974 46.115658 93.746003 42.099287 101.915316 35.523039 121.010666 29.537513 116.250345 18.546749 125.082386 12.393749 142.798382 34.049114 160.173685 32.008294 157.334583 18.516208 175.050578 19.30986 186.406985 39.4913 221.174847 55.094715 238.68268 50.558364 245.006046 60.466391 233.195382 70.897247 259.532439 102.055511 279.676537 90.379934 267.71886 74.071856 277.939627 67.042366 310.873207 82.461892 327.112869 82.802029 327.112869 94.70681 317.91418 100.035617 337.901456 110.239716 374.315901 118.252034 396.046261 146.634334 390.822313 154.457476 370.835037 157.06519 363.794065 172.371338 353.107356 177.483245 348.917171 199.35551 317.232795 221.010874 293.592146 216.799706 282.482189 239.038115 275.781909 238.017705 259.882939 222.144663 223.769565 230.194563 180.160961 205.704726 157.788839 210.770266 157.788839 228.607259 139.505024 248.675319 100.407033 242.372734 87.946935 219.42357 63.984916 211.600428 36.48579 175.005268 15.038801 165.001711 .616164 132.688733 7.997829 118.85651 -15.623498 95.953978"/>
  </g>
  <g>
    <path class="cls-3" d="M251.538637,160.740698c-9.700439,0-17.592285-7.891602-17.592285-17.592773,0-9.700195,7.891846-17.591797,17.592285-17.591797,9.700195,0,17.592041,7.891602,17.592041,17.591797,0,9.701172-7.891846,17.592773-17.592041,17.592773ZM244.595766,143.651831c-.293213,0-.567871.114258-.773682.322266-.210449.212891-.325439.493164-.32373.791992.001465.290039.11499.561523.31958.763672l4.809326,4.80957c.209717.209961.488525.325195.784912.325195.399902-.026367.691162-.189453.879395-.450195l9.074707-12.487305c.357178-.490234.247559-1.180664-.244141-1.539062-.188232-.137695-.410889-.209961-.643555-.209961-.352539,0-.686768.169922-.894287.454102l-8.315674,11.436523-3.892334-3.892578c-.209229-.208984-.486328-.324219-.780518-.324219Z"/>
    <path class="cls-2" d="M251.538637,126.056128c9.439453,0,17.092285,7.652344,17.092285,17.092285,0,9.439453-7.652832,17.091797-17.092285,17.091797-9.439941,0-17.092285-7.652344-17.092285-17.091797,0-9.439941,7.652344-17.092285,17.092285-17.092285M249.208559,147.10105l-3.478516-3.478516c-.313965-.313965-.724609-.470703-1.134277-.470703s-.818848.156738-1.129395.470703c-.620605.627441-.627441,1.64209,0,2.263184l4.807129,4.807129c.305664.305664.712402.47168,1.137207.47168.039062,0,.078613-.001465.118164-.004395.467285-.033203.894531-.273438,1.168457-.654297l9.073242-12.485352c.520996-.714355.36084-1.71582-.353516-2.236328-.283691-.207031-.612793-.306152-.938965-.306152-.495117,0-.983887.229004-1.297852.659668l-7.97168,10.963379M251.538637,125.056128c-9.976074,0-18.092285,8.116211-18.092285,18.092285s8.116211,18.091797,18.092285,18.091797,18.092285-8.115723,18.092285-18.091797-8.116211-18.092285-18.092285-18.092285h0ZM249.329165,148.635718l.687988-.946777,7.97168-10.963379c.114746-.156738.293457-.247559.489258-.247559.087891,0,.220215.019531.349609.114258.130859.095215.216309.234863.241699.394043.024902.158203-.012695.315918-.106934.444824l-9.074219,12.486816c-.104004.14502-.259766.232422-.430176.244629h-.008301c-.205078,0-.355469-.062988-.469238-.176758l-4.807129-4.807129c-.235352-.233398-.231934-.614258.003906-.853027.111328-.112305.259766-.174316.418457-.174316.160645,0,.3125.063477.427246.178223l3.478516,3.478516.827637.827637h0Z"/>
  </g>
  <g>
    <path class="cls-3" d="M210.095522,159.515112c-9.700195,0-17.592041-7.891602-17.592041-17.591797,0-9.701172,7.891846-17.592773,17.592041-17.592773,9.700439,0,17.592285,7.891602,17.592285,17.592773,0,9.700195-7.891846,17.591797-17.592285,17.591797ZM210.095522,131.740698c-.60791,0-1.102295.494141-1.102295,1.102539v9.080078c0,.368164.184326.711914.493408.919922l6.407959,4.272461c.182373.123047.39209.186523.608154.186523h.000244c.369873,0,.714355-.18457.921387-.495117.164551-.24707.223389-.541016.165527-.828125-.057861-.288086-.226318-.537109-.474121-.702148l-5.917725-3.94043v-8.493164c0-.608398-.494629-1.102539-1.102539-1.102539Z"/>
    <path class="cls-2" d="M210.095766,124.83103c9.439453,0,17.091797,7.652344,17.091797,17.091797,0,9.439941-7.652344,17.092285-17.091797,17.092285-9.439941,0-17.092285-7.652344-17.092285-17.092285,0-9.439453,7.652344-17.091797,17.092285-17.091797M216.503481,147.802222c.517578,0,1.025879-.251953,1.336914-.718262.494141-.741211.293945-1.729004-.447266-2.223145l-5.695312-3.79248v-8.225586c0-.887695-.714355-1.602539-1.602051-1.602539-.888184,0-1.602539.714844-1.602539,1.602539v9.080078c0,.53418.26709,1.035156.714355,1.335449l6.409668,4.272949c.272461.183105.580566.270996.88623.270996M210.095766,123.83103c-9.976074,0-18.092285,8.115723-18.092285,18.091797s8.116211,18.092285,18.092285,18.092285,18.091797-8.116211,18.091797-18.092285-8.115723-18.091797-18.091797-18.091797h0ZM216.503481,146.802222c-.116699,0-.22998-.034668-.328125-.100586l-6.413086-4.275391c-.16748-.112305-.269043-.30127-.269043-.503418v-9.080078c0-.337891.264648-.602539.602539-.602539.337402,0,.602051.264648.602051.602539v8.76123l.445801.296875,5.695312,3.79248c.281738.187988.356445.555176.169434.835938-.11377.170898-.302734.272949-.504883.272949h0Z"/>
  </g>
  <g>
    <path class="cls-3" d="M155.270815,159.205542c-1.158936,0-2.245361-.616211-2.835205-1.608398-.590088-.991211-.615234-2.238281-.066162-3.254883l15.10376-27.969727c.579346-1.068359,1.690918-1.731445,2.901367-1.731445s2.322021.663086,2.900879,1.730469l15.104248,27.970703c.549072,1.016602.523926,2.263672-.066162,3.254883-.589844.992188-1.67627,1.608398-2.835205,1.608398h-30.20752ZM170.374575,150.25437c-.958008,0-1.737549.780273-1.737549,1.738281s.779541,1.737305,1.737549,1.737305,1.737549-.779297,1.737549-1.737305-.779541-1.738281-1.737549-1.738281ZM170.367739,136.828589c-.474854.001953-.915039.195312-1.239746.544922-.324219.349609-.484131.802734-.450195,1.275391l.517334,7.273438c.044189.613281.559082,1.094727,1.172363,1.094727.61377,0,1.128662-.481445,1.172607-1.095703l.517334-7.271484c.033936-.475586-.125488-.928711-.449219-1.277344s-.76416-.541992-1.240479-.543945Z"/>
    <path class="cls-2" d="M170.374575,125.141089c1.027832,0,1.97168.566406,2.461426,1.468262l15.104004,27.970215c.468262.867188.447266,1.916016-.056152,2.761719-.503418.846191-1.419434,1.36377-2.405273,1.36377h-30.208008c-.98584,0-1.901855-.517578-2.405273-1.36377-.503418-.845703-.524414-1.894531-.056152-2.761719l15.104004-27.970215c.489746-.901855,1.433594-1.468262,2.461426-1.468262M170.367739,136.329077c-1.269531.003906-2.279785,1.086426-2.188965,2.356445l.517578,7.271973c.062988.874023.797363,1.55957,1.671387,1.55957.880859,0,1.60791-.678223,1.670898-1.55957l.517578-7.271973c.09082-1.27002-.912109-2.352539-2.188477-2.356445h.006836-.01416.007324M170.374575,154.229956c1.23584,0,2.237793-1.001953,2.237793-2.237793s-1.001953-2.237305-2.237793-2.237305-2.237793,1.001465-2.237793,2.237305,1.001953,2.237793,2.237793,2.237793M170.374575,124.141089c-1.393555,0-2.67334.762695-3.340332,1.991211l-15.10498,27.972168c-.632324,1.17041-.602539,2.606934.07666,3.748535.679688,1.14209,1.930664,1.852051,3.264648,1.852051h30.208008c1.333984,0,2.584961-.709961,3.264648-1.852539.679199-1.141113.708984-2.577637.07666-3.748047l-15.104004-27.970215c-.667969-1.230469-1.947754-1.993164-3.341309-1.993164h0ZM170.371645,135.757788l.00293-.428711-.00293.619141v-.19043h0ZM170.367739,146.517066c-.34668,0-.648926-.283203-.673828-.631348l-.517578-7.270996c-.023926-.333984.089355-.65332.318359-.900391.229004-.246582.538574-.383301.873047-.385254.335449.001953.645996.138184.873535.383789.228516.246094.341309.566406.317383.901367l-.517578,7.272461c-.025391.359375-.314941.630371-.67334.630371h0ZM170.374575,153.229956c-.682617,0-1.237793-.555176-1.237793-1.237793,0-.682129.555176-1.237305,1.237793-1.237305s1.237793.555176,1.237793,1.237305c0,.682617-.555176,1.237793-1.237793,1.237793h0Z"/>
  </g>
  <g>
    <polygon class="cls-3" points="131.694003 139.235327 131.694003 132.525855 121.742832 138.483374 121.742832 120.506323 111.792148 120.506323 111.792148 144.440894 111.792148 158.644019 111.792148 158.951148 122.999179 158.951148 131.694003 158.951148 142.900546 158.951148 142.900546 132.525855 131.694003 139.235327"/>
    <polygon class="cls-4" points="131.694003 139.235327 131.694003 132.525855 121.742832 138.483374 121.742832 120.506323 111.792148 120.506323 111.792148 144.440894 111.792148 158.644019 111.792148 158.951148 122.999179 158.951148 131.694003 158.951148 142.900546 158.951148 142.900546 132.525855 131.694003 139.235327"/>
  </g>
</svg>