<?xml version="1.0" encoding="UTF-8"?>
<svg id="Layer_1" data-name="Layer 1" xmlns="http://www.w3.org/2000/svg" xmlns:xlink="http://www.w3.org/1999/xlink" viewBox="0 0 699.56 700">
  <defs>
    <style>
      .cls-1, .cls-2, .cls-3 {
        fill: none;
      }

      .cls-2, .cls-4, .cls-3, .cls-5, .cls-6, .cls-7, .cls-8, .cls-9, .cls-10 {
        stroke-miterlimit: 10;
        stroke-width: 1.5px;
      }

      .cls-2, .cls-4, .cls-6, .cls-7, .cls-8, .cls-9, .cls-10 {
        stroke: #0c3e51;
      }

      .cls-4, .cls-5 {
        fill: #515b66;
      }

      .cls-3, .cls-5 {
        stroke: #075366;
      }

      .cls-6 {
        fill: #695858;
      }

      .cls-7 {
        fill: #9da6b2;
      }

      .cls-8 {
        fill: #ea4c66;
      }

      .cls-9 {
        fill: #e15a77;
      }

      .cls-11 {
        fill: #eac7d2;
        fill-rule: evenodd;
      }

      .cls-12 {
        clip-path: url(#clippath);
      }

      .cls-10 {
        fill: #fff;
      }
    </style>
    <clipPath id="clippath">
      <rect class="cls-1" x="5" y="5" width="689.57" height="690"/>
    </clipPath>
  </defs>
  <g class="cls-12">
    <rect class="cls-9" x="-14.3" y="-13.15" width="748.92" height="747.7"/>
    <g>
      <line class="cls-3" x1="10.51" y1="304.19" x2="5" y2="309.7"/>
      <line class="cls-3" x1="16.45" y1="317.51" x2="5" y2="328.94"/>
      <line class="cls-3" x1="22.41" y1="330.84" x2="5" y2="348.22"/>
      <line class="cls-3" x1="28.37" y1="344.16" x2="5" y2="367.49"/>
      <line class="cls-3" x1="34.31" y1="357.49" x2="5" y2="386.75"/>
      <line class="cls-3" x1="43.61" y1="367.46" x2="5" y2="406.01"/>
      <line class="cls-3" x1="56.77" y1="373.6" x2="5" y2="425.28"/>
      <line class="cls-3" x1="69.93" y1="379.74" x2="5" y2="444.54"/>
      <line class="cls-3" x1="83.06" y1="385.88" x2="5" y2="463.82"/>
      <line class="cls-3" x1="94.34" y1="393.88" x2="5" y2="483.07"/>
      <line class="cls-3" x1="102.62" y1="404.89" x2="5" y2="502.35"/>
      <line class="cls-3" x1="110.89" y1="415.91" x2="5" y2="521.61"/>
      <line class="cls-3" x1="119.15" y1="426.9" x2="5" y2="540.88"/>
      <line class="cls-3" x1="127.43" y1="437.91" x2="5" y2="560.14"/>
      <line class="cls-3" x1="135.71" y1="448.93" x2="5" y2="579.42"/>
      <line class="cls-3" x1="143.98" y1="459.92" x2="5" y2="598.67"/>
      <line class="cls-3" x1="152.24" y1="470.93" x2="5" y2="617.93"/>
      <line class="cls-3" x1="160.9" y1="481.56" x2="5" y2="637.21"/>
      <line class="cls-3" x1="175.45" y1="486.31" x2="5" y2="656.47"/>
      <line class="cls-3" x1="189.98" y1="491.06" x2="5" y2="675.74"/>
      <line class="cls-3" x1="204.52" y1="495.81" x2="5" y2="695"/>
      <line class="cls-3" x1="219.07" y1="500.56" x2="24.31" y2="695"/>
      <line class="cls-3" x1="226.35" y1="512.54" x2="43.6" y2="695"/>
      <line class="cls-3" x1="233.13" y1="525.05" x2="62.9" y2="695"/>
      <line class="cls-3" x1="239.91" y1="537.54" x2="82.19" y2="695"/>
      <line class="cls-3" x1="246.7" y1="550.03" x2="101.5" y2="695"/>
      <line class="cls-3" x1="256.81" y1="559.2" x2="120.79" y2="695"/>
      <line class="cls-3" x1="273.41" y1="561.88" x2="140.08" y2="695"/>
      <line class="cls-3" x1="290.04" y1="564.56" x2="159.39" y2="695"/>
      <line class="cls-3" x1="306.66" y1="567.24" x2="178.68" y2="695"/>
      <line class="cls-3" x1="323.25" y1="569.92" x2="197.98" y2="695"/>
      <line class="cls-3" x1="339.87" y1="572.6" x2="217.27" y2="695"/>
      <line class="cls-3" x1="355.1" y1="576.67" x2="236.58" y2="695"/>
      <line class="cls-3" x1="368.59" y1="582.46" x2="255.87" y2="695"/>
      <line class="cls-3" x1="382.09" y1="588.24" x2="275.16" y2="695"/>
      <line class="cls-3" x1="395.58" y1="594.05" x2="294.46" y2="695"/>
      <line class="cls-3" x1="409.08" y1="599.82" x2="313.77" y2="695"/>
      <line class="cls-3" x1="422.59" y1="605.62" x2="333.06" y2="695"/>
      <line class="cls-3" x1="436.08" y1="611.41" x2="352.35" y2="695"/>
      <line class="cls-3" x1="440.83" y1="625.93" x2="371.66" y2="695"/>
      <line class="cls-3" x1="444.72" y1="641.31" x2="390.96" y2="695"/>
      <line class="cls-3" x1="448.6" y1="656.69" x2="410.23" y2="695"/>
      <line class="cls-3" x1="452.51" y1="672.07" x2="429.54" y2="695"/>
      <line class="cls-3" x1="456.39" y1="687.47" x2="448.85" y2="695"/>
    </g>
    <g>
      <g>
        <polygon class="cls-11" points="-29.35 293.55 -22.22 271.1 .32 281.15 7.24 263.56 41.34 246.19 80.93 244.92 121.98 207.86 137.56 214.2 151.38 194.43 188.17 186.44 204.42 173.36 242.39 161.46 232.93 139.6 250.49 127.36 285.73 170.43 320.28 166.37 314.64 139.54 349.87 141.11 372.46 181.25 441.61 212.29 476.43 203.26 489 222.97 465.51 243.71 517.89 305.68 557.96 282.46 534.18 250.03 554.5 236.05 620 266.71 652.3 267.39 652.3 291.07 634.01 301.67 673.76 321.96 746.18 337.9 789.4 394.35 779.01 409.9 739.26 415.09 725.26 445.53 704 455.7 695.67 499.2 632.65 542.27 585.64 533.89 563.54 578.12 550.21 576.09 518.59 544.53 446.77 560.54 360.04 511.83 315.54 521.9 315.54 557.38 279.18 597.29 201.42 584.76 176.63 539.11 128.98 523.55 74.28 450.77 31.63 430.88 2.94 366.61 17.63 339.1 -29.35 293.55"/>
        <polygon class="cls-3" points="-29.35 293.55 -22.22 271.1 .32 281.15 7.24 263.56 41.34 246.19 80.93 244.92 121.98 207.86 137.56 214.2 151.38 194.43 188.17 186.44 204.42 173.36 242.39 161.46 232.93 139.6 250.49 127.36 285.73 170.43 320.28 166.37 314.64 139.54 349.87 141.11 372.46 181.25 441.61 212.29 476.43 203.26 489 222.97 465.51 243.71 517.89 305.68 557.96 282.46 534.18 250.03 554.5 236.05 620 266.71 652.3 267.39 652.3 291.07 634.01 301.67 673.76 321.96 746.18 337.9 789.4 394.35 779.01 409.9 739.26 415.09 725.26 445.53 704 455.7 695.67 499.2 632.65 542.27 585.64 533.89 563.54 578.12 550.21 576.09 518.59 544.53 446.77 560.54 360.04 511.83 315.54 521.9 315.54 557.38 279.18 597.29 201.42 584.76 176.63 539.11 128.98 523.55 74.28 450.77 31.63 430.88 2.94 366.61 17.63 339.1 -29.35 293.55"/>
      </g>
      <g>
        <polygon class="cls-11" points="-29.35 293.55 -22.22 271.1 .32 281.15 7.24 263.56 41.34 246.19 80.93 244.92 121.98 207.86 137.56 214.2 151.38 194.43 188.17 186.44 204.42 173.36 242.39 161.46 232.93 139.6 250.49 127.36 285.73 170.43 320.28 166.37 314.64 139.54 349.87 141.11 372.46 181.25 441.61 212.29 476.43 203.26 489 222.97 465.51 243.71 517.89 305.68 557.96 282.46 534.18 250.03 554.5 236.05 620 266.71 652.3 267.39 652.3 291.07 634.01 301.67 673.76 321.96 746.18 337.9 789.4 394.35 779.01 409.9 739.26 415.09 725.26 445.53 704 455.7 695.67 499.2 632.65 542.27 585.64 533.89 563.54 578.12 550.21 576.09 518.59 544.53 446.77 560.54 360.04 511.83 315.54 521.9 315.54 557.38 279.18 597.29 201.42 584.76 176.63 539.11 128.98 523.55 74.28 450.77 31.63 430.88 2.94 366.61 17.63 339.1 -29.35 293.55"/>
        <polygon class="cls-3" points="-29.35 293.55 -22.22 271.1 .32 281.15 7.24 263.56 41.34 246.19 80.93 244.92 121.98 207.86 137.56 214.2 151.38 194.43 188.17 186.44 204.42 173.36 242.39 161.46 232.93 139.6 250.49 127.36 285.73 170.43 320.28 166.37 314.64 139.54 349.87 141.11 372.46 181.25 441.61 212.29 476.43 203.26 489 222.97 465.51 243.71 517.89 305.68 557.96 282.46 534.18 250.03 554.5 236.05 620 266.71 652.3 267.39 652.3 291.07 634.01 301.67 673.76 321.96 746.18 337.9 789.4 394.35 779.01 409.9 739.26 415.09 725.26 445.53 704 455.7 695.67 499.2 632.65 542.27 585.64 533.89 563.54 578.12 550.21 576.09 518.59 544.53 446.77 560.54 360.04 511.83 315.54 521.9 315.54 557.38 279.18 597.29 201.42 584.76 176.63 539.11 128.98 523.55 74.28 450.77 31.63 430.88 2.94 366.61 17.63 339.1 -29.35 293.55"/>
      </g>
    </g>
  </g>
  <rect class="cls-3" x="5" y="5" width="690" height="690"/>
  <polygon class="cls-7" points="339.47 196.36 220.63 253.5 191.28 381.88 273.52 484.84 405.42 484.84 487.66 381.88 458.31 253.5 339.47 196.36"/>
  <g>
    <polyline class="cls-10" points="321.39 695 309.45 423.27 278.24 423.27 263.1 695"/>
    <polyline class="cls-7" points="260.77 555.29 349.14 555.29 349.14 695 175.39 695 175.39 555.29 213.96 555.29"/>
    <line class="cls-2" x1="217.65" y1="506.37" x2="259.45" y2="506.37"/>
    <polygon class="cls-6" points="107.56 695 175.39 695 175.39 635.83 150.57 637.11 134.52 649.29 115.69 646.72 92.37 676.63 68.41 686.24 68.41 695 107.56 695"/>
    <polyline class="cls-2" points="140.41 678.13 127.46 668.41 134.52 649.29"/>
    <line class="cls-2" x1="103.39" y1="682.18" x2="91.41" y2="676.31"/>
    <line class="cls-2" x1="292.22" y1="589.47" x2="292.22" y2="695"/>
    <line class="cls-2" x1="316.94" y1="589.47" x2="316.94" y2="695"/>
    <polyline class="cls-2" points="151.32 695 159.67 680.1 154.21 666.64"/>
    <line class="cls-6" x1="56.1" y1="695" x2="430.1" y2="695"/>
    <rect class="cls-7" x="349.14" y="591.56" width="58.2" height="103.44"/>
    <polygon class="cls-10" points="395.19 636.59 381.74 636.59 381.74 612.78 361.29 652.5 374.74 652.5 374.74 676.31 395.19 636.59"/>
    <polygon class="cls-7" points="238.55 266.71 159.77 304.59 140.32 389.69 194.83 457.94 282.26 457.94 336.78 389.69 317.32 304.59 238.55 266.71"/>
    <g>
      <polyline class="cls-10" points="267.73 695 254.98 404.6 221.62 404.6 205.44 695"/>
      <line class="cls-2" x1="210.29" y1="589.47" x2="263.1" y2="589.47"/>
      <polygon class="cls-8" points="219.55 441.78 255.74 441.78 255.74 423.27 220.88 423.27 219.55 441.78"/>
      <rect class="cls-8" x="216.02" y="506.37" width="43.43" height="18.51"/>
    </g>
    <path class="cls-2" d="M238.2,310.44c34.94,24.52-30.95,38.6,0,60.33"/>
    <ellipse class="cls-2" cx="238.57" cy="386.07" rx="4.03" ry="4.02"/>
  </g>
  <polygon class="cls-5" points="694.57 5 431.18 5 468.75 169.33 622.24 243.12 694.57 208.35 694.57 5"/>
  <polygon class="cls-4" points="395.19 404.6 351.88 383.78 341.18 336.98 371.15 299.46 419.23 299.46 449.2 336.98 438.51 383.78 395.19 404.6"/>
  <polygon class="cls-4" points="468.9 222.7 436.43 238.31 428.41 273.38 450.88 301.51 486.91 301.51 509.38 273.38 501.36 238.31 468.9 222.7"/>
</svg>