<?xml version="1.0" encoding="UTF-8"?>
<svg id="Layer_1" data-name="Layer 1" xmlns="http://www.w3.org/2000/svg" viewBox="0 0 750 142.725">
  <defs>
    <style>
      .cls-1 {
        stroke-width: .536px;
      }

      .cls-1, .cls-2, .cls-3, .cls-4, .cls-5, .cls-6, .cls-7, .cls-8, .cls-9, .cls-10, .cls-11 {
        stroke-miterlimit: 10;
      }

      .cls-1, .cls-2, .cls-3, .cls-4, .cls-5, .cls-6, .cls-7, .cls-12 {
        fill: #e3e6ed;
      }

      .cls-1, .cls-2, .cls-3, .cls-4, .cls-5, .cls-6, .cls-7, .cls-9, .cls-10, .cls-11 {
        stroke: #515c67;
      }

      .cls-2 {
        stroke-width: .536px;
      }

      .cls-3 {
        stroke-width: .536px;
      }

      .cls-4 {
        stroke-width: .536px;
      }

      .cls-5 {
        stroke-width: .536px;
      }

      .cls-6 {
        stroke-width: .536px;
      }

      .cls-7, .cls-9 {
        stroke-width: .536px;
      }

      .cls-13 {
        fill: #231f20;
      }

      .cls-8 {
        fill: #006c8f;
        stroke: #0c3e51;
        stroke-width: .536px;
      }

      .cls-14 {
        fill: #76808e;
      }

      .cls-15 {
        fill: #515c67;
      }

      .cls-9 {
        stroke-dasharray: 3.131 2.087;
      }

      .cls-9, .cls-10, .cls-11 {
        fill: none;
      }

      .cls-10 {
        stroke-width: .446px;
      }

      .cls-11 {
        stroke-width: .5px;
      }
    </style>
  </defs>
  <g>
    <circle class="cls-12" cx="33.793" cy="48.486" r="8.309"/>
    <path class="cls-9" d="M33.793,56.795c-4.589,0-8.309-3.72-8.309-8.309s3.72-8.31,8.309-8.31,8.309,3.72,8.309,8.31-3.72,8.309-8.309,8.309Z"/>
  </g>
  <g>
    <circle class="cls-12" cx="14.783" cy="37.869" r="8.309"/>
    <path class="cls-9" d="M14.783,46.178c-4.589,0-8.309-3.72-8.309-8.309s3.72-8.31,8.309-8.31,8.309,3.72,8.309,8.31-3.72,8.309-8.309,8.309Z"/>
  </g>
  <g>
    <circle class="cls-12" cx="14.783" cy="59.23" r="8.309"/>
    <path class="cls-9" d="M14.783,67.54c-4.589,0-8.309-3.72-8.309-8.31s3.72-8.309,8.309-8.309,8.309,3.72,8.309,8.309-3.72,8.31-8.309,8.31Z"/>
  </g>
  <g>
    <circle class="cls-12" cx="33.793" cy="69.288" r="8.309"/>
    <circle class="cls-9" cx="33.793" cy="69.288" r="8.309"/>
  </g>
  <g>
    <circle class="cls-12" cx="52.803" cy="57.277" r="8.309"/>
    <path class="cls-9" d="M52.803,65.586c-4.589,0-8.309-3.72-8.309-8.309s3.72-8.31,8.309-8.31,8.309,3.72,8.309,8.31-3.72,8.309-8.309,8.309Z"/>
  </g>
  <g>
    <circle class="cls-12" cx="52.803" cy="36.803" r="8.309"/>
    <path class="cls-9" d="M52.803,45.112c-4.589,0-8.309-3.72-8.309-8.309s3.72-8.31,8.309-8.31,8.309,3.72,8.309,8.31-3.72,8.309-8.309,8.309Z"/>
  </g>
  <g>
    <circle class="cls-12" cx="33.793" cy="27.192" r="8.309"/>
    <path class="cls-9" d="M33.793,35.501c-4.589,0-8.309-3.72-8.309-8.31s3.72-8.309,8.309-8.309,8.309,3.72,8.309,8.309-3.72,8.31-8.309,8.31Z"/>
  </g>
  <line class="cls-10" x1="636.008" y1="57.995" x2="181.382" y2="57.995"/>
  <circle class="cls-1" cx="602.521" cy="58.477" r="8.309"/>
  <circle class="cls-1" cx="543.994" cy="56.528" r="8.309"/>
  <circle class="cls-1" cx="525.001" cy="68.275" r="8.309"/>
  <circle class="cls-4" cx="518.732" cy="40.833" r="8.309"/>
  <circle class="cls-6" cx="507.903" cy="58.477" r="8.309"/>
  <circle class="cls-1" cx="453.94" cy="51.656" r="8.309"/>
  <circle class="cls-8" cx="442.193" cy="68.275" r="8.309"/>
  <circle class="cls-4" cx="428.047" cy="54.154" r="8.309"/>
  <circle class="cls-1" cx="375.95" cy="58.477" r="8.309"/>
  <circle class="cls-1" cx="330.33" cy="58.477" r="8.309"/>
  <circle class="cls-5" cx="294.537" cy="58.477" r="8.309"/>
  <circle class="cls-3" cx="285.04" cy="41.858" r="8.309"/>
  <circle class="cls-1" cx="273.665" cy="58.477" r="8.309"/>
  <circle class="cls-3" cx="270.875" cy="78.248" r="8.309"/>
  <circle class="cls-7" cx="239.09" cy="57.995" r="8.309"/>
  <circle class="cls-3" cx="222.31" cy="45.844" r="8.309"/>
  <circle class="cls-7" cx="222.31" cy="69.938" r="8.309"/>
  <circle class="cls-3" cx="211.191" cy="29.226" r="8.309"/>
  <circle class="cls-3" cx="206.774" cy="58.477" r="8.309"/>
  <circle class="cls-2" cx="206.774" cy="97.69" r="8.309"/>
  <circle class="cls-7" cx="200.375" cy="77.049" r="8.309"/>
  <circle class="cls-3" cx="194.572" cy="41.858" r="8.309"/>
  <circle class="cls-3" cx="185.075" cy="58.477" r="8.309"/>
  <g>
    <path class="cls-15" d="M603.317,43.346h-3.142v-10.182h3.281c.988,0,1.833.203,2.536.609s1.241.988,1.616,1.745c.375.758.562,1.663.562,2.717,0,1.061-.188,1.973-.566,2.737-.378.764-.928,1.351-1.651,1.76-.723.409-1.601.614-2.635.614ZM601.407,42.252h1.83c.842,0,1.54-.162,2.093-.487.553-.325.966-.787,1.238-1.387.271-.6.408-1.314.408-2.143,0-.822-.134-1.53-.403-2.125s-.669-1.052-1.203-1.372c-.534-.32-1.198-.48-1.994-.48h-1.969v7.994Z"/>
    <path class="cls-15" d="M612.325,43.525c-.484,0-.923-.092-1.317-.276-.395-.184-.708-.451-.939-.801-.232-.35-.348-.773-.348-1.27,0-.438.086-.793.259-1.066.172-.273.402-.488.691-.644.288-.156.607-.272.957-.35s.702-.14,1.057-.187c.464-.06.841-.105,1.131-.137s.502-.085.636-.162c.134-.076.202-.209.202-.398v-.04c0-.49-.134-.872-.4-1.143-.267-.272-.67-.408-1.21-.408-.561,0-1,.123-1.318.368-.318.245-.542.507-.671.785l-1.114-.398c.199-.464.465-.826.798-1.086.333-.26.698-.443,1.094-.547.396-.104.787-.157,1.171-.157.245,0,.528.029.848.087.32.058.63.176.93.355.3.179.549.449.749.81.199.361.298.845.298,1.452v5.031h-1.173v-1.034h-.06c-.08.166-.212.343-.397.532s-.433.35-.741.482c-.309.132-.685.199-1.129.199ZM612.504,42.471c.464,0,.856-.091,1.176-.273.32-.182.562-.418.726-.706s.246-.592.246-.91v-1.074c-.05.06-.159.114-.326.162-.167.048-.36.09-.577.124-.217.035-.428.065-.632.09-.204.025-.369.046-.495.062-.305.04-.589.104-.853.191-.263.088-.476.219-.636.393s-.241.41-.241.708c0,.408.152.715.455.922.303.207.688.311,1.156.311ZM612.544,34.675l1.213-2.307h1.372l-1.551,2.307h-1.034Z"/>
    <path class="cls-15" d="M619.146,38.752v4.594h-1.173v-7.636h1.134v1.193h.099c.179-.388.451-.7.815-.937.365-.237.835-.355,1.412-.355.517,0,.969.105,1.357.316.388.211.689.529.905.955.215.426.323.964.323,1.613v4.852h-1.173v-4.773c0-.6-.156-1.068-.467-1.405s-.739-.505-1.283-.505c-.375,0-.708.081-1.001.244s-.524.399-.694.711c-.169.312-.253.689-.253,1.134Z"/>
    <path class="cls-15" d="M631.575,37.42l-1.054.298c-.066-.176-.164-.347-.291-.514-.127-.167-.301-.306-.52-.415s-.499-.164-.84-.164c-.467,0-.856.107-1.166.321-.31.214-.465.485-.465.813,0,.292.106.522.318.691.212.169.543.31.995.423l1.133.278c.683.166,1.191.418,1.526.758.334.34.502.776.502,1.31,0,.438-.125.829-.375,1.173-.25.345-.599.616-1.046.815-.447.199-.968.298-1.561.298-.779,0-1.423-.169-1.934-.507-.51-.338-.833-.832-.969-1.482l1.114-.278c.106.411.307.719.604.925.296.206.685.308,1.166.308.547,0,.982-.117,1.305-.351s.485-.514.485-.843c0-.265-.093-.488-.278-.669-.186-.181-.471-.316-.855-.405l-1.272-.298c-.699-.166-1.212-.423-1.539-.773-.327-.35-.49-.788-.49-1.315,0-.431.122-.812.365-1.144.244-.331.577-.592,1-.781.422-.189.902-.283,1.439-.283.756,0,1.35.166,1.782.497.433.331.74.769.922,1.312Z"/>
    <path class="cls-15" d="M633.484,43.346v-10.182h1.173v10.182h-1.173ZM634.578,40.562l-.02-1.452h.238l3.341-3.401h1.452l-3.56,3.6h-.099l-1.353,1.253ZM638.337,43.346l-2.983-3.778.835-.815,3.639,4.594h-1.491Z"/>
    <path class="cls-15" d="M643.884,43.505c-.689,0-1.293-.164-1.812-.492-.519-.328-.923-.787-1.213-1.377-.29-.59-.435-1.279-.435-2.068,0-.796.145-1.49.435-2.083.29-.593.694-1.054,1.213-1.382.519-.328,1.123-.492,1.812-.492s1.293.164,1.812.492.923.789,1.213,1.382c.29.594.435,1.288.435,2.083,0,.789-.145,1.478-.435,2.068-.29.59-.694,1.049-1.213,1.377s-1.123.492-1.812.492ZM643.884,42.451c.523,0,.955-.134,1.292-.403s.588-.621.75-1.059c.163-.438.244-.912.244-1.422s-.081-.986-.244-1.427c-.162-.441-.413-.797-.75-1.069s-.769-.408-1.292-.408-.955.136-1.293.408c-.338.272-.588.628-.75,1.069-.163.441-.244.917-.244,1.427s.081.984.244,1.422c.162.438.413.79.75,1.059.338.269.769.403,1.293.403Z"/>
  </g>
  <g>
    <path class="cls-15" d="M534.461,85.919c-.06-.504-.302-.895-.726-1.173-.424-.279-.944-.418-1.561-.418-.451,0-.844.073-1.181.219-.336.146-.598.346-.786.602-.187.255-.281.545-.281.87,0,.272.065.505.196.698s.299.355.505.482c.205.128.42.232.646.313.226.081.433.147.622.196l1.034.279c.265.07.561.166.887.288.327.123.64.289.94.5.3.211.547.48.743.808.195.328.293.731.293,1.208,0,.55-.143,1.047-.43,1.491s-.705.797-1.253,1.059c-.549.262-1.214.393-1.996.393-.729,0-1.36-.118-1.892-.353-.532-.235-.95-.563-1.253-.984-.303-.421-.475-.91-.515-1.467h1.273c.033.385.163.702.39.952s.515.436.865.557c.35.121.727.182,1.131.182.471,0,.893-.077,1.268-.231.375-.154.671-.37.89-.646.219-.277.328-.601.328-.972,0-.338-.095-.613-.284-.825-.188-.212-.438-.385-.746-.517s-.641-.249-.999-.348l-1.253-.358c-.795-.229-1.425-.555-1.889-.979-.464-.424-.696-.979-.696-1.666,0-.57.155-1.068.465-1.494s.728-.757,1.253-.994c.525-.237,1.113-.355,1.763-.355.656,0,1.239.117,1.75.351.51.234.916.553,1.215.957s.458.863.475,1.377h-1.193Z"/>
    <path class="cls-15" d="M538.835,83.374v10.182h-1.173v-10.182h1.173Z"/>
    <path class="cls-15" d="M544.086,93.715c-.689,0-1.293-.164-1.812-.492-.519-.328-.923-.787-1.213-1.377-.29-.59-.435-1.279-.435-2.068,0-.796.145-1.49.435-2.083.29-.593.694-1.054,1.213-1.382.519-.328,1.123-.492,1.812-.492s1.293.164,1.812.492.923.789,1.213,1.382c.29.594.435,1.288.435,2.083,0,.789-.145,1.478-.435,2.068-.29.59-.694,1.049-1.213,1.377s-1.123.492-1.812.492ZM544.086,92.661c.523,0,.955-.134,1.292-.403s.588-.621.75-1.059c.163-.438.244-.912.244-1.422s-.081-.986-.244-1.427c-.162-.441-.413-.797-.75-1.069s-.769-.408-1.292-.408-.955.136-1.293.408c-.338.272-.588.628-.75,1.069-.163.441-.244.917-.244,1.427s.081.984.244,1.422c.162.438.413.79.75,1.059.338.269.769.403,1.293.403Z"/>
    <path class="cls-15" d="M555.301,85.919l-2.824,7.636h-1.193l-2.824-7.636h1.273l2.108,6.085h.08l2.108-6.085h1.273Z"/>
    <path class="cls-15" d="M559.776,93.715c-.736,0-1.37-.163-1.901-.49-.532-.326-.941-.784-1.228-1.372-.287-.588-.43-1.273-.43-2.056s.144-1.472.43-2.071c.287-.598.688-1.066,1.203-1.402.515-.336,1.118-.505,1.807-.505.398,0,.791.066,1.178.199s.741.347,1.059.644c.318.297.572.688.761,1.176.189.487.283,1.087.283,1.8v.497h-5.886v-1.014h4.693c0-.431-.085-.815-.256-1.154-.171-.338-.413-.605-.726-.8-.313-.196-.682-.293-1.106-.293-.467,0-.871.115-1.21.346-.34.23-.601.529-.783.897s-.273.762-.273,1.183v.676c0,.577.1,1.065.301,1.464.201.399.48.703.838.91s.774.311,1.248.311c.309,0,.587-.044.838-.132.25-.088.466-.22.649-.398.182-.177.323-.398.422-.664l1.134.318c-.12.385-.32.722-.602,1.012-.282.29-.63.515-1.044.676-.414.161-.88.241-1.397.241Z"/>
    <path class="cls-15" d="M565.901,88.962v4.594h-1.173v-7.636h1.134v1.193h.099c.179-.388.451-.7.815-.937.365-.237.835-.355,1.412-.355.517,0,.969.105,1.357.316.388.211.689.529.905.955.215.426.323.964.323,1.613v4.852h-1.173v-4.773c0-.6-.156-1.068-.467-1.405s-.739-.505-1.283-.505c-.375,0-.708.081-1.001.244s-.524.399-.694.711c-.169.312-.253.689-.253,1.134Z"/>
    <path class="cls-15" d="M578.329,87.63l-1.054.298c-.066-.176-.164-.347-.291-.514-.127-.167-.301-.306-.52-.415s-.499-.164-.84-.164c-.467,0-.856.107-1.166.321-.31.214-.465.485-.465.813,0,.292.106.522.318.691.212.169.543.31.995.423l1.133.278c.683.166,1.191.418,1.526.758.334.34.502.776.502,1.31,0,.438-.125.829-.375,1.173-.25.345-.599.616-1.046.815-.447.199-.968.298-1.561.298-.779,0-1.423-.169-1.934-.507-.51-.338-.833-.832-.969-1.482l1.114-.278c.106.411.307.719.604.925.296.206.685.308,1.166.308.547,0,.982-.117,1.305-.351s.485-.514.485-.843c0-.265-.093-.488-.278-.669-.186-.181-.471-.316-.855-.405l-1.272-.298c-.699-.166-1.212-.423-1.539-.773-.327-.35-.49-.788-.49-1.315,0-.431.122-.812.365-1.144.244-.331.577-.592,1-.781.422-.189.902-.283,1.439-.283.756,0,1.35.166,1.782.497.433.331.74.769.922,1.312Z"/>
    <path class="cls-15" d="M580.238,93.556v-10.182h1.173v10.182h-1.173ZM581.332,90.772l-.02-1.452h.238l3.341-3.401h1.452l-3.56,3.6h-.099l-1.353,1.253ZM585.091,93.556l-2.983-3.778.835-.815,3.639,4.594h-1.491Z"/>
    <path class="cls-15" d="M590.639,93.715c-.689,0-1.293-.164-1.812-.492-.519-.328-.923-.787-1.213-1.377-.29-.59-.435-1.279-.435-2.068,0-.796.145-1.49.435-2.083.29-.593.694-1.054,1.213-1.382.519-.328,1.123-.492,1.812-.492s1.293.164,1.812.492.923.789,1.213,1.382c.29.594.435,1.288.435,2.083,0,.789-.145,1.478-.435,2.068-.29.59-.694,1.049-1.213,1.377s-1.123.492-1.812.492ZM590.639,92.661c.523,0,.955-.134,1.292-.403s.588-.621.75-1.059c.163-.438.244-.912.244-1.422s-.081-.986-.244-1.427c-.162-.441-.413-.797-.75-1.069s-.769-.408-1.292-.408-.955.136-1.293.408c-.338.272-.588.628-.75,1.069-.163.441-.244.917-.244,1.427s.081.984.244,1.422c.162.438.413.79.75,1.059.338.269.769.403,1.293.403Z"/>
  </g>
  <g>
    <path class="cls-13" d="M454.514,85.24h-1.233c-.073-.354-.2-.666-.38-.935-.181-.269-.399-.495-.656-.679s-.542-.322-.853-.415c-.312-.093-.637-.139-.975-.139-.617,0-1.174.156-1.673.468-.499.312-.895.771-1.188,1.377-.293.607-.44,1.351-.44,2.232s.147,1.626.44,2.232c.293.606.689,1.066,1.188,1.377.499.312,1.056.467,1.673.467.338,0,.663-.046.975-.139.311-.093.596-.231.853-.415.257-.184.476-.411.656-.681.181-.27.307-.581.38-.932h1.233c-.093.521-.262.986-.507,1.397-.245.411-.55.76-.915,1.047-.365.287-.773.505-1.226.654-.453.149-.936.224-1.449.224-.869,0-1.641-.212-2.317-.636s-1.208-1.028-1.596-1.81c-.388-.782-.582-1.71-.582-2.784s.194-2.002.582-2.784.919-1.385,1.596-1.81,1.448-.636,2.317-.636c.514,0,.997.075,1.449.224.452.149.861.367,1.226.654.364.287.669.635.915,1.044.245.409.415.876.507,1.399ZM449.383,78.996l1.034,1.392,1.034-1.392h1.113v.08l-1.61,2.068h-1.074l-1.611-2.068v-.08h1.114Z"/>
    <path class="cls-13" d="M459.545,92.399c-.736,0-1.37-.163-1.901-.49-.532-.326-.941-.784-1.228-1.372-.287-.588-.43-1.273-.43-2.056s.144-1.472.43-2.071c.287-.598.688-1.066,1.203-1.402.515-.336,1.118-.505,1.807-.505.398,0,.791.066,1.178.199s.741.347,1.059.644c.318.297.572.688.761,1.176.189.487.283,1.087.283,1.8v.497h-5.886v-1.014h4.693c0-.431-.085-.815-.256-1.154-.171-.338-.413-.605-.726-.8-.313-.196-.682-.293-1.106-.293-.467,0-.871.115-1.21.346-.34.23-.601.529-.783.897s-.273.762-.273,1.183v.676c0,.577.1,1.065.301,1.464.201.399.48.703.838.91s.774.311,1.248.311c.309,0,.587-.044.838-.132.25-.088.466-.22.649-.398.182-.177.323-.398.422-.664l1.134.318c-.12.385-.32.722-.602,1.012-.282.29-.63.515-1.044.676-.414.161-.88.241-1.397.241Z"/>
    <path class="cls-13" d="M469.905,86.314l-1.054.298c-.066-.176-.164-.347-.291-.514-.127-.167-.301-.306-.52-.415s-.499-.164-.84-.164c-.467,0-.856.107-1.166.321-.31.214-.465.485-.465.813,0,.292.106.522.318.691.212.169.543.31.995.423l1.133.278c.683.166,1.191.418,1.526.758.334.34.502.776.502,1.31,0,.438-.125.829-.375,1.173-.25.345-.599.616-1.046.815-.447.199-.968.298-1.561.298-.779,0-1.423-.169-1.934-.507-.51-.338-.833-.832-.969-1.482l1.114-.278c.106.411.307.719.604.925.296.206.685.308,1.166.308.547,0,.982-.117,1.305-.351s.485-.514.485-.843c0-.265-.093-.488-.278-.669-.186-.181-.471-.316-.855-.405l-1.272-.298c-.699-.166-1.212-.423-1.539-.773-.327-.35-.49-.788-.49-1.315,0-.431.122-.812.365-1.144.244-.331.577-.592,1-.781.422-.189.902-.283,1.439-.283.756,0,1.35.166,1.782.497.433.331.74.769.922,1.312Z"/>
    <path class="cls-13" d="M471.815,92.24v-10.182h1.173v10.182h-1.173ZM472.908,89.456l-.02-1.452h.238l3.341-3.401h1.452l-3.56,3.6h-.099l-1.353,1.253ZM476.667,92.24l-2.983-3.778.835-.815,3.639,4.594h-1.491Z"/>
    <path class="cls-13" d="M482.215,92.399c-.689,0-1.293-.164-1.812-.492-.519-.328-.923-.787-1.213-1.377-.29-.59-.435-1.279-.435-2.068,0-.796.145-1.49.435-2.083.29-.593.694-1.054,1.213-1.382.519-.328,1.123-.492,1.812-.492s1.293.164,1.812.492.923.789,1.213,1.382c.29.594.435,1.288.435,2.083,0,.789-.145,1.478-.435,2.068-.29.59-.694,1.049-1.213,1.377s-1.123.492-1.812.492ZM482.215,91.346c.523,0,.955-.134,1.292-.403s.588-.621.75-1.059c.163-.438.244-.912.244-1.422s-.081-.986-.244-1.427c-.162-.441-.413-.797-.75-1.069s-.769-.408-1.292-.408-.955.136-1.293.408c-.338.272-.588.628-.75,1.069-.163.441-.244.917-.244,1.427s.081.984.244,1.422c.162.438.413.79.75,1.059.338.269.769.403,1.293.403Z"/>
  </g>
  <g>
    <path class="cls-15" d="M451.736,35.521v-10.182h3.44c.799,0,1.453.144,1.961.43s.886.674,1.131,1.161c.245.487.368,1.031.368,1.631s-.122,1.145-.365,1.636-.619.881-1.126,1.171c-.507.29-1.157.435-1.949.435h-2.466v-1.094h2.426c.547,0,.986-.094,1.317-.283.332-.189.573-.445.724-.768s.226-.688.226-1.096-.075-.772-.226-1.094-.394-.574-.729-.758c-.335-.184-.779-.276-1.333-.276h-2.167v9.088h-1.233Z"/>
    <path class="cls-15" d="M463.489,35.68c-.689,0-1.293-.164-1.812-.492-.519-.328-.923-.787-1.213-1.377-.29-.59-.435-1.279-.435-2.068,0-.796.145-1.49.435-2.083.29-.593.694-1.054,1.213-1.382.519-.328,1.123-.492,1.812-.492s1.293.164,1.812.492.923.789,1.213,1.382c.29.594.435,1.288.435,2.083,0,.789-.145,1.478-.435,2.068-.29.59-.694,1.049-1.213,1.377s-1.123.492-1.812.492ZM463.489,34.626c.523,0,.955-.134,1.292-.403s.588-.621.75-1.059c.163-.438.244-.912.244-1.422s-.081-.986-.244-1.427c-.162-.441-.413-.797-.75-1.069s-.769-.408-1.292-.408-.955.136-1.293.408c-.338.272-.588.628-.75,1.069-.163.441-.244.917-.244,1.427s.081.984.244,1.422c.162.438.413.79.75,1.059.338.269.769.403,1.293.403Z"/>
    <path class="cls-15" d="M469.912,25.339v10.182h-1.173v-10.182h1.173Z"/>
    <path class="cls-15" d="M477.469,29.595l-1.054.298c-.066-.176-.164-.347-.291-.514-.127-.167-.301-.306-.52-.415s-.499-.164-.84-.164c-.467,0-.856.107-1.166.321-.31.214-.465.485-.465.813,0,.292.106.522.318.691.212.169.543.31.995.423l1.133.278c.683.166,1.191.418,1.526.758.334.34.502.776.502,1.31,0,.438-.125.829-.375,1.173-.25.345-.599.616-1.046.815-.447.199-.968.298-1.561.298-.779,0-1.423-.169-1.934-.507-.51-.338-.833-.832-.969-1.482l1.114-.278c.106.411.307.719.604.925.296.206.685.308,1.166.308.547,0,.982-.117,1.305-.351s.485-.514.485-.843c0-.265-.093-.488-.278-.669-.186-.181-.471-.316-.855-.405l-1.272-.298c-.699-.166-1.212-.423-1.539-.773-.327-.35-.49-.788-.49-1.315,0-.431.122-.812.365-1.144.244-.331.577-.592,1-.781.422-.189.902-.283,1.439-.283.756,0,1.35.166,1.782.497.433.331.74.769.922,1.312Z"/>
    <path class="cls-15" d="M479.378,35.521v-10.182h1.173v10.182h-1.173ZM480.471,32.736l-.02-1.452h.238l3.341-3.401h1.452l-3.56,3.6h-.099l-1.353,1.253ZM484.23,35.521l-2.983-3.778.835-.815,3.639,4.594h-1.491Z"/>
    <path class="cls-15" d="M489.778,35.68c-.689,0-1.293-.164-1.812-.492-.519-.328-.923-.787-1.213-1.377-.29-.59-.435-1.279-.435-2.068,0-.796.145-1.49.435-2.083.29-.593.694-1.054,1.213-1.382.519-.328,1.123-.492,1.812-.492s1.293.164,1.812.492.923.789,1.213,1.382c.29.594.435,1.288.435,2.083,0,.789-.145,1.478-.435,2.068-.29.59-.694,1.049-1.213,1.377s-1.123.492-1.812.492ZM489.778,34.626c.523,0,.955-.134,1.292-.403s.588-.621.75-1.059c.163-.438.244-.912.244-1.422s-.081-.986-.244-1.427c-.162-.441-.413-.797-.75-1.069s-.769-.408-1.292-.408-.955.136-1.293.408c-.338.272-.588.628-.75,1.069-.163.441-.244.917-.244,1.427s.081.984.244,1.422c.162.438.413.79.75,1.059.338.269.769.403,1.293.403Z"/>
  </g>
  <g>
    <path class="cls-15" d="M292.117,86.296v10.182h-1.193l-5.548-7.994h-.1v7.994h-1.233v-10.182h1.193l5.568,8.014h.1v-8.014h1.213Z"/>
    <path class="cls-15" d="M297.626,96.637c-.736,0-1.37-.163-1.901-.49-.532-.326-.941-.784-1.228-1.372-.287-.588-.43-1.273-.43-2.056s.144-1.472.43-2.071c.287-.598.688-1.066,1.203-1.402.515-.336,1.118-.505,1.807-.505.398,0,.791.066,1.178.199s.741.347,1.059.644c.318.297.572.688.761,1.176.189.487.283,1.087.283,1.8v.497h-5.886v-1.014h4.693c0-.431-.085-.815-.256-1.154-.171-.338-.413-.605-.726-.8-.313-.196-.682-.293-1.106-.293-.467,0-.871.115-1.21.346-.34.23-.601.529-.783.897s-.273.762-.273,1.183v.676c0,.577.1,1.065.301,1.464.201.399.48.703.838.91s.774.311,1.248.311c.309,0,.587-.044.838-.132.25-.088.466-.22.649-.398.182-.177.323-.398.422-.664l1.134.318c-.12.385-.32.722-.602,1.012-.282.29-.63.515-1.044.676-.414.161-.88.241-1.397.241ZM296.413,85.779l1.034,1.392,1.034-1.392h1.113v.08l-1.611,2.068h-1.074l-1.611-2.068v-.08h1.114Z"/>
    <path class="cls-15" d="M302.577,96.478v-7.636h1.134v1.193h.099c.159-.408.416-.725.771-.952.354-.227.78-.341,1.277-.341.504,0,.924.114,1.26.341s.599.544.788.952h.08c.196-.395.489-.708.88-.942s.86-.351,1.407-.351c.683,0,1.241.213,1.675.639.434.426.651,1.088.651,1.986v5.111h-1.173v-5.111c0-.563-.154-.966-.462-1.208s-.671-.363-1.089-.363c-.537,0-.953.162-1.248.485-.295.323-.443.732-.443,1.225v4.972h-1.193v-5.23c0-.434-.141-.784-.423-1.051s-.645-.4-1.089-.4c-.305,0-.589.081-.853.244-.263.162-.476.387-.636.674-.161.287-.241.617-.241.992v4.773h-1.173Z"/>
    <path class="cls-15" d="M317.949,96.637c-.736,0-1.37-.163-1.901-.49-.532-.326-.941-.784-1.228-1.372-.287-.588-.43-1.273-.43-2.056s.144-1.472.43-2.071c.287-.598.688-1.066,1.203-1.402.515-.336,1.118-.505,1.807-.505.398,0,.791.066,1.178.199s.741.347,1.059.644c.318.297.572.688.761,1.176.189.487.283,1.087.283,1.8v.497h-5.886v-1.014h4.693c0-.431-.085-.815-.256-1.154-.171-.338-.413-.605-.726-.8-.313-.196-.682-.293-1.106-.293-.467,0-.871.115-1.21.346-.34.23-.601.529-.783.897s-.273.762-.273,1.183v.676c0,.577.1,1.065.301,1.464.201.399.48.703.838.91s.774.311,1.248.311c.309,0,.587-.044.838-.132.25-.088.466-.22.649-.398.182-.177.323-.398.422-.664l1.134.318c-.12.385-.32.722-.602,1.012-.282.29-.63.515-1.044.676-.414.161-.88.241-1.397.241Z"/>
    <path class="cls-15" d="M326.004,96.637c-.716,0-1.333-.169-1.85-.507-.517-.338-.915-.804-1.193-1.397-.278-.593-.417-1.271-.417-2.033,0-.776.144-1.461.43-2.056.287-.595.688-1.061,1.203-1.397.515-.336,1.118-.505,1.807-.505.537,0,1.021.099,1.452.298s.784.477,1.059.835c.275.358.446.776.512,1.253h-1.173c-.09-.348-.288-.657-.594-.927-.307-.27-.718-.405-1.235-.405-.458,0-.858.119-1.201.355-.343.237-.61.57-.8.999-.191.429-.286.932-.286,1.509,0,.59.094,1.104.281,1.541.188.438.453.777.795,1.019.343.242.747.363,1.211.363.305,0,.582-.053.83-.159.249-.106.459-.259.631-.458.172-.199.295-.438.368-.716h1.173c-.066.451-.23.856-.49,1.216-.26.36-.604.645-1.029.855-.426.21-.92.316-1.484.316Z"/>
    <path class="cls-15" d="M330.716,96.478v-10.182h1.173v10.182h-1.173ZM331.81,93.693l-.02-1.452h.238l3.341-3.401h1.452l-3.56,3.6h-.099l-1.353,1.253ZM335.569,96.478l-2.983-3.778.835-.815,3.639,4.594h-1.491Z"/>
    <path class="cls-15" d="M341.117,96.637c-.689,0-1.293-.164-1.812-.492-.519-.328-.923-.787-1.213-1.377-.29-.59-.435-1.279-.435-2.068,0-.796.145-1.49.435-2.083.29-.593.694-1.054,1.213-1.382.519-.328,1.123-.492,1.812-.492s1.293.164,1.812.492.923.789,1.213,1.382c.29.594.435,1.288.435,2.083,0,.789-.145,1.478-.435,2.068-.29.59-.694,1.049-1.213,1.377s-1.123.492-1.812.492ZM341.117,95.583c.523,0,.955-.134,1.292-.403s.588-.621.75-1.059c.163-.438.244-.912.244-1.422s-.081-.986-.244-1.427c-.162-.441-.413-.797-.75-1.069s-.769-.408-1.292-.408-.955.136-1.293.408c-.338.272-.588.628-.75,1.069-.163.441-.244.917-.244,1.427s.081.984.244,1.422c.162.438.413.79.75,1.059.338.269.769.403,1.293.403Z"/>
  </g>
  <g>
    <path class="cls-15" d="M255.223,22.59v-10.182h3.44c.795,0,1.448.135,1.959.405.51.27.888.641,1.133,1.111.245.471.368,1.006.368,1.606s-.123,1.132-.368,1.596c-.245.464-.622.828-1.128,1.091-.507.263-1.155.395-1.944.395h-2.784v-1.114h2.744c.543,0,.982-.08,1.315-.239.333-.159.575-.385.726-.678.151-.293.226-.644.226-1.052s-.076-.764-.229-1.069c-.153-.305-.396-.541-.731-.708-.335-.167-.777-.251-1.328-.251h-2.167v9.088h-1.233ZM260.016,18.016l2.506,4.574h-1.432l-2.466-4.574h1.392Z"/>
    <path class="cls-15" d="M266.26,22.769c-.484,0-.923-.092-1.317-.276-.395-.184-.708-.451-.939-.801-.232-.35-.348-.773-.348-1.27,0-.438.086-.793.259-1.066.172-.273.402-.488.691-.644.288-.156.607-.272.957-.35s.702-.14,1.057-.187c.464-.06.841-.105,1.131-.137s.502-.085.636-.162c.134-.076.202-.209.202-.398v-.04c0-.49-.134-.872-.4-1.143-.267-.272-.67-.408-1.21-.408-.561,0-1,.123-1.318.368-.318.245-.542.507-.671.785l-1.114-.398c.199-.464.465-.826.798-1.086.333-.26.698-.443,1.094-.547.396-.104.787-.157,1.171-.157.245,0,.528.029.848.087.32.058.63.176.93.355.3.179.549.449.749.81.199.361.298.845.298,1.452v5.031h-1.173v-1.034h-.06c-.08.166-.212.343-.397.532s-.433.35-.741.482c-.309.132-.685.199-1.129.199ZM266.439,21.715c.464,0,.856-.091,1.176-.273.32-.182.562-.418.726-.706s.246-.592.246-.91v-1.074c-.05.06-.159.114-.326.162-.167.048-.36.09-.577.124-.217.035-.428.065-.632.09-.204.025-.369.046-.495.062-.305.04-.589.104-.853.191-.263.088-.476.219-.636.393s-.241.41-.241.708c0,.408.152.715.455.922.303.207.688.311,1.156.311Z"/>
    <path class="cls-15" d="M271.908,22.59v-10.182h1.173v10.182h-1.173ZM273.002,19.806l-.02-1.452h.238l3.341-3.401h1.452l-3.56,3.6h-.099l-1.353,1.253ZM276.76,22.59l-2.983-3.778.835-.815,3.639,4.594h-1.491Z"/>
    <path class="cls-15" d="M282.308,22.749c-.689,0-1.293-.164-1.812-.492-.519-.328-.923-.787-1.213-1.377-.29-.59-.435-1.279-.435-2.068,0-.796.145-1.49.435-2.083.29-.593.694-1.054,1.213-1.382.519-.328,1.123-.492,1.812-.492s1.293.164,1.812.492.923.789,1.213,1.382c.29.594.435,1.288.435,2.083,0,.789-.145,1.478-.435,2.068-.29.59-.694,1.049-1.213,1.377s-1.123.492-1.812.492ZM282.308,21.695c.523,0,.955-.134,1.292-.403s.588-.621.75-1.059c.163-.438.244-.912.244-1.422s-.081-.986-.244-1.427c-.162-.441-.413-.797-.75-1.069s-.769-.408-1.292-.408-.955.136-1.293.408c-.338.272-.588.628-.75,1.069-.163.441-.244.917-.244,1.427s.081.984.244,1.422c.162.438.413.79.75,1.059.338.269.769.403,1.293.403Z"/>
    <path class="cls-15" d="M292.371,19.468v-4.514h1.173v7.636h-1.173v-1.293h-.08c-.179.388-.457.717-.835.987-.378.27-.855.405-1.432.405-.477,0-.901-.105-1.272-.316s-.663-.529-.875-.955c-.212-.426-.318-.964-.318-1.613v-4.852h1.173v4.773c0,.557.157,1.001.47,1.332.313.332.713.497,1.201.497.292,0,.589-.074.893-.224s.559-.378.766-.686c.207-.308.311-.701.311-1.178Z"/>
    <path class="cls-15" d="M301.101,16.664l-1.054.298c-.066-.176-.164-.347-.291-.514-.127-.167-.301-.306-.52-.415s-.499-.164-.84-.164c-.467,0-.856.107-1.166.321-.31.214-.465.485-.465.813,0,.292.106.522.318.691.212.169.543.31.995.423l1.133.278c.683.166,1.191.418,1.526.758.334.34.502.776.502,1.31,0,.438-.125.829-.375,1.173-.25.345-.599.616-1.046.815-.447.199-.968.298-1.561.298-.779,0-1.423-.169-1.934-.507-.51-.338-.833-.832-.969-1.482l1.114-.278c.106.411.307.719.604.925.296.206.685.308,1.166.308.547,0,.982-.117,1.305-.351s.485-.514.485-.843c0-.265-.093-.488-.278-.669-.186-.181-.471-.316-.855-.405l-1.272-.298c-.699-.166-1.212-.423-1.539-.773-.327-.35-.49-.788-.49-1.315,0-.431.122-.812.365-1.144.244-.331.577-.592,1-.781.422-.189.902-.283,1.439-.283.756,0,1.35.166,1.782.497.433.331.74.769.922,1.312Z"/>
    <path class="cls-15" d="M303.01,22.59v-10.182h1.173v10.182h-1.173ZM304.104,19.806l-.02-1.452h.238l3.341-3.401h1.452l-3.56,3.6h-.099l-1.353,1.253ZM307.862,22.59l-2.983-3.778.835-.815,3.639,4.594h-1.491Z"/>
    <path class="cls-15" d="M313.41,22.749c-.689,0-1.293-.164-1.812-.492-.519-.328-.923-.787-1.213-1.377-.29-.59-.435-1.279-.435-2.068,0-.796.145-1.49.435-2.083.29-.593.694-1.054,1.213-1.382.519-.328,1.123-.492,1.812-.492s1.293.164,1.812.492.923.789,1.213,1.382c.29.594.435,1.288.435,2.083,0,.789-.145,1.478-.435,2.068-.29.59-.694,1.049-1.213,1.377s-1.123.492-1.812.492ZM313.41,21.695c.523,0,.955-.134,1.292-.403s.588-.621.75-1.059c.163-.438.244-.912.244-1.422s-.081-.986-.244-1.427c-.162-.441-.413-.797-.75-1.069s-.769-.408-1.292-.408-.955.136-1.293.408c-.338.272-.588.628-.75,1.069-.163.441-.244.917-.244,1.427s.081.984.244,1.422c.162.438.413.79.75,1.059.338.269.769.403,1.293.403Z"/>
  </g>
  <g>
    <path class="cls-14" d="M72.735,53.042v-10.182h3.44c.799,0,1.453.144,1.961.43s.886.674,1.131,1.161c.245.487.368,1.031.368,1.631s-.122,1.145-.365,1.636-.619.881-1.126,1.171c-.507.29-1.157.435-1.949.435h-2.466v-1.094h2.426c.547,0,.986-.094,1.317-.283.332-.189.573-.445.724-.768s.226-.688.226-1.096-.075-.772-.226-1.094-.394-.574-.729-.758c-.335-.184-.779-.276-1.333-.276h-2.167v9.088h-1.233Z"/>
    <path class="cls-14" d="M84.488,53.201c-.689,0-1.293-.164-1.812-.492-.519-.328-.923-.787-1.213-1.377-.29-.59-.435-1.279-.435-2.068,0-.796.145-1.49.435-2.083.29-.593.694-1.054,1.213-1.382.519-.328,1.123-.492,1.812-.492s1.293.164,1.812.492.923.789,1.213,1.382c.29.594.435,1.288.435,2.083,0,.789-.145,1.478-.435,2.068-.29.59-.694,1.049-1.213,1.377s-1.123.492-1.812.492ZM84.488,52.147c.523,0,.955-.134,1.292-.403s.588-.621.75-1.059c.163-.438.244-.912.244-1.422s-.081-.986-.244-1.427c-.162-.441-.413-.797-.75-1.069s-.769-.408-1.292-.408-.955.136-1.293.408c-.338.272-.588.628-.75,1.069-.163.441-.244.917-.244,1.427s.081.984.244,1.422c.162.438.413.79.75,1.059.338.269.769.403,1.293.403Z"/>
    <path class="cls-14" d="M89.738,53.042v-7.636h1.134v1.154h.08c.139-.378.391-.684.755-.92s.776-.353,1.233-.353c.086,0,.194.002.323.005.129.003.227.008.293.015v1.193c-.04-.01-.13-.026-.271-.047-.141-.021-.289-.032-.445-.032-.372,0-.702.077-.992.231-.29.154-.519.366-.686.636-.167.27-.251.578-.251.922v4.832h-1.173Z"/>
    <path class="cls-14" d="M98.747,45.406v.994h-3.958v-.994h3.958ZM95.943,43.576h1.173v7.278c0,.332.049.579.146.743.098.164.224.273.378.328.154.055.317.082.49.082.129,0,.235-.007.318-.022.083-.015.149-.027.199-.037l.239,1.054c-.08.03-.191.061-.333.092-.143.031-.323.047-.542.047-.332,0-.656-.071-.972-.214-.316-.143-.578-.36-.785-.651-.208-.292-.311-.659-.311-1.104v-7.596Z"/>
    <path class="cls-14" d="M105.329,49.92v-4.514h1.173v7.636h-1.173v-1.293h-.08c-.179.388-.457.717-.835.987-.378.27-.855.405-1.432.405-.477,0-.901-.105-1.272-.316s-.663-.529-.875-.955c-.212-.426-.318-.964-.318-1.613v-4.852h1.173v4.773c0,.557.157,1.001.47,1.332.313.332.713.497,1.201.497.292,0,.589-.074.893-.224s.559-.378.766-.686c.207-.308.311-.701.311-1.178Z"/>
    <path class="cls-14" d="M111.732,56.065c-.567,0-1.054-.072-1.461-.216-.408-.144-.747-.333-1.017-.567-.27-.234-.484-.483-.644-.748l.935-.656c.106.139.24.299.403.48.162.181.385.338.668.472.284.134.655.201,1.116.201.617,0,1.125-.149,1.526-.447.401-.298.602-.766.602-1.402v-1.551h-.1c-.086.139-.208.311-.365.514-.158.204-.383.385-.676.542s-.688.236-1.186.236c-.617,0-1.169-.146-1.658-.438-.489-.292-.875-.716-1.158-1.273-.284-.557-.425-1.233-.425-2.028,0-.782.138-1.464.413-2.046.275-.582.658-1.032,1.148-1.352.491-.32,1.057-.48,1.7-.48.498,0,.893.082,1.186.246s.519.35.676.557c.157.207.279.377.365.51h.119v-1.213h1.134v7.855c0,.656-.148,1.191-.445,1.603-.296.413-.694.716-1.193.91-.499.194-1.053.291-1.663.291ZM111.693,51.869c.47,0,.868-.108,1.193-.323.325-.216.572-.525.741-.93.169-.405.254-.888.254-1.452,0-.55-.083-1.036-.249-1.457-.166-.421-.411-.751-.735-.99-.325-.239-.726-.358-1.203-.358-.498,0-.911.126-1.241.378-.33.252-.577.59-.741,1.014-.164.424-.246.895-.246,1.412,0,.531.083.999.251,1.405s.416.724.746.955c.33.23.74.345,1.23.345Z"/>
    <path class="cls-14" d="M119.428,53.221c-.484,0-.923-.092-1.317-.276-.395-.184-.708-.451-.939-.801-.232-.35-.348-.773-.348-1.27,0-.438.086-.793.259-1.066.172-.273.402-.488.691-.644.288-.156.607-.272.957-.35s.702-.14,1.057-.187c.464-.06.841-.105,1.131-.137s.502-.085.636-.162c.134-.076.202-.209.202-.398v-.04c0-.49-.134-.872-.4-1.143-.267-.272-.67-.408-1.21-.408-.561,0-1,.123-1.318.368-.318.245-.542.507-.671.785l-1.114-.398c.199-.464.465-.826.798-1.086.333-.26.698-.443,1.094-.547.396-.104.787-.157,1.171-.157.245,0,.528.029.848.087.32.058.63.176.93.355.3.179.549.449.749.81.199.361.298.845.298,1.452v5.031h-1.173v-1.034h-.06c-.08.166-.212.343-.397.532s-.433.35-.741.482c-.309.132-.685.199-1.129.199ZM119.607,52.167c.464,0,.856-.091,1.176-.273.32-.182.562-.418.726-.706s.246-.592.246-.91v-1.074c-.05.06-.159.114-.326.162-.167.048-.36.09-.577.124-.217.035-.428.065-.632.09-.204.025-.369.046-.495.062-.305.04-.589.104-.853.191-.263.088-.476.219-.636.393s-.241.41-.241.708c0,.408.152.715.455.922.303.207.688.311,1.156.311Z"/>
    <path class="cls-14" d="M126.249,42.86v10.182h-1.173v-10.182h1.173Z"/>
    <path class="cls-14" d="M133.806,47.116l-1.054.298c-.066-.176-.164-.347-.291-.514-.127-.167-.301-.306-.52-.415s-.499-.164-.84-.164c-.467,0-.856.107-1.166.321-.31.214-.465.485-.465.813,0,.292.106.522.318.691.212.169.543.31.995.423l1.133.278c.683.166,1.191.418,1.526.758.334.34.502.776.502,1.31,0,.438-.125.829-.375,1.173-.25.345-.599.616-1.046.815-.447.199-.968.298-1.561.298-.779,0-1.423-.169-1.934-.507-.51-.338-.833-.832-.969-1.482l1.114-.278c.106.411.307.719.604.925.296.206.685.308,1.166.308.547,0,.982-.117,1.305-.351s.485-.514.485-.843c0-.265-.093-.488-.278-.669-.186-.181-.471-.316-.855-.405l-1.272-.298c-.699-.166-1.212-.423-1.539-.773-.327-.35-.49-.788-.49-1.315,0-.431.122-.812.365-1.144.244-.331.577-.592,1-.781.422-.189.902-.283,1.439-.283.756,0,1.35.166,1.782.497.433.331.74.769.922,1.312Z"/>
    <path class="cls-14" d="M135.715,53.042v-10.182h1.173v10.182h-1.173ZM136.809,50.258l-.02-1.452h.238l3.341-3.401h1.452l-3.56,3.6h-.099l-1.353,1.253ZM140.568,53.042l-2.983-3.778.835-.815,3.639,4.594h-1.491Z"/>
    <path class="cls-14" d="M146.116,53.201c-.689,0-1.293-.164-1.812-.492-.519-.328-.923-.787-1.213-1.377-.29-.59-.435-1.279-.435-2.068,0-.796.145-1.49.435-2.083.29-.593.694-1.054,1.213-1.382.519-.328,1.123-.492,1.812-.492s1.293.164,1.812.492.923.789,1.213,1.382c.29.594.435,1.288.435,2.083,0,.789-.145,1.478-.435,2.068-.29.59-.694,1.049-1.213,1.377s-1.123.492-1.812.492ZM146.116,52.147c.523,0,.955-.134,1.292-.403s.588-.621.75-1.059c.163-.438.244-.912.244-1.422s-.081-.986-.244-1.427c-.162-.441-.413-.797-.75-1.069s-.769-.408-1.292-.408-.955.136-1.293.408c-.338.272-.588.628-.75,1.069-.163.441-.244.917-.244,1.427s.081.984.244,1.422c.162.438.413.79.75,1.059.338.269.769.403,1.293.403Z"/>
  </g>
  <g>
    <path class="cls-11" d="M266.736,46.777c-7.046-5.87-6.501-12.978-6.501-18.654"/>
    <polygon class="cls-15" points="266.837 44.135 266.339 44.188 266.604 46.639 264.14 46.724 264.158 47.224 267.159 47.12 266.837 44.135"/>
  </g>
  <g>
    <path class="cls-11" d="M77.643,57.075c-2.762,6.375-9.148,4.104-11.785,2.994"/>
    <polygon class="cls-15" points="68.145 58.729 68.333 59.192 66.048 60.117 67.137 62.329 66.688 62.549 65.362 59.856 68.145 58.729"/>
  </g>
  <g>
    <path class="cls-15" d="M628.54,120.89l-4.122,9.242h-1.326l4.108-8.914h-5.387v-1.039h6.727v.711Z"/>
    <path class="cls-15" d="M636.217,125.887c0,1.481-.253,2.582-.759,3.302-.506.72-1.296,1.08-2.372,1.08-1.062,0-1.848-.352-2.358-1.056s-.775-1.756-.793-3.155v-1.688c0-1.463.253-2.55.759-3.261s1.299-1.066,2.379-1.066c1.071,0,1.859.343,2.365,1.029.506.686.766,1.744.779,3.175v1.641ZM634.952,124.157c0-1.071-.15-1.851-.451-2.341-.301-.49-.777-.735-1.429-.735-.647,0-1.119.244-1.415.731-.296.488-.449,1.237-.458,2.249v2.023c0,1.076.156,1.87.468,2.382s.785.769,1.418.769c.625,0,1.088-.241,1.391-.725.303-.483.461-1.244.475-2.283v-2.071Z"/>
    <path class="cls-15" d="M641.193,122.093c0-.597.19-1.089.571-1.477.38-.387.869-.581,1.466-.581.606,0,1.097.195,1.473.584s.564.895.564,1.514v.485c0,.602-.19,1.093-.571,1.473-.38.381-.865.571-1.453.571-.592,0-1.083-.19-1.47-.571-.387-.38-.581-.887-.581-1.521v-.479ZM642.137,122.617c0,.356.1.65.301.88s.469.346.807.346c.324,0,.584-.112.783-.336s.297-.53.297-.918v-.5c0-.356-.098-.651-.294-.884-.196-.233-.462-.35-.8-.35s-.604.116-.8.35c-.196.233-.294.537-.294.911v.5ZM643.531,129.38l-.718-.451,4.86-7.779.718.451-4.86,7.779ZM646.04,127.691c0-.597.19-1.088.571-1.473.38-.385.869-.578,1.466-.578s1.087.191,1.47.574.574.891.574,1.524v.485c0,.597-.19,1.088-.571,1.473-.38.385-.867.578-1.459.578s-1.083-.19-1.47-.571c-.387-.38-.581-.887-.581-1.521v-.492ZM646.984,128.222c0,.361.1.656.301.887s.469.346.807.346c.328,0,.59-.113.786-.339s.294-.533.294-.922v-.507c0-.361-.099-.655-.297-.884-.198-.229-.464-.343-.796-.343-.324,0-.587.113-.79.339s-.304.531-.304.915v.507Z"/>
  </g>
  <g>
    <path class="cls-15" d="M568.701,120.172v1.073h-.232c-.984.018-1.768.31-2.352.875-.583.565-.92,1.36-1.012,2.386.524-.602,1.24-.902,2.146-.902.866,0,1.558.305,2.075.916.517.611.776,1.399.776,2.365,0,1.025-.279,1.846-.837,2.461s-1.307.923-2.246.923c-.953,0-1.725-.366-2.317-1.097s-.889-1.674-.889-2.827v-.485c0-1.832.391-3.232,1.172-4.201.782-.968,1.945-1.464,3.49-1.487h.226ZM567.04,124.656c-.433,0-.832.13-1.196.39s-.618.586-.759.978v.465c0,.82.185,1.481.554,1.982.369.501.83.752,1.381.752.57,0,1.018-.209,1.343-.629.326-.419.489-.968.489-1.647,0-.684-.165-1.236-.496-1.658-.331-.421-.769-.632-1.316-.632Z"/>
    <path class="cls-15" d="M577.841,125.887c0,1.481-.253,2.582-.759,3.302-.506.72-1.296,1.08-2.372,1.08-1.062,0-1.848-.352-2.358-1.056s-.775-1.756-.793-3.155v-1.688c0-1.463.253-2.55.759-3.261s1.299-1.066,2.379-1.066c1.071,0,1.859.343,2.365,1.029.506.686.766,1.744.779,3.175v1.641ZM576.576,124.157c0-1.071-.15-1.851-.451-2.341-.301-.49-.777-.735-1.429-.735-.647,0-1.119.244-1.415.731-.296.488-.449,1.237-.458,2.249v2.023c0,1.076.156,1.87.468,2.382s.785.769,1.418.769c.625,0,1.088-.241,1.391-.725.303-.483.461-1.244.475-2.283v-2.071Z"/>
  </g>
  <g>
    <path class="cls-15" d="M310.763,130.132h-6.521v-.909l3.445-3.828c.51-.579.862-1.049,1.056-1.412s.291-.737.291-1.125c0-.52-.157-.946-.472-1.278-.314-.333-.734-.499-1.258-.499-.629,0-1.118.179-1.466.537-.349.358-.523.856-.523,1.494h-1.265c0-.916.295-1.656.885-2.222.59-.565,1.38-.848,2.369-.848.925,0,1.657.243,2.194.728s.807,1.131.807,1.938c0,.98-.625,2.146-1.873,3.5l-2.666,2.892h4.997v1.032Z"/>
    <path class="cls-15" d="M318.344,125.887c0,1.481-.253,2.582-.759,3.302-.506.72-1.296,1.08-2.372,1.08-1.062,0-1.848-.352-2.358-1.056s-.775-1.756-.793-3.155v-1.688c0-1.463.253-2.55.759-3.261s1.299-1.066,2.379-1.066c1.071,0,1.859.343,2.365,1.029.506.686.766,1.744.779,3.175v1.641ZM317.079,124.157c0-1.071-.15-1.851-.451-2.341-.301-.49-.777-.735-1.429-.735-.647,0-1.119.244-1.415.731-.296.488-.449,1.237-.458,2.249v2.023c0,1.076.156,1.87.468,2.382s.785.769,1.418.769c.625,0,1.088-.241,1.391-.725.303-.483.461-1.244.475-2.283v-2.071Z"/>
  </g>
  <g>
    <path class="cls-15" d="M371.027,124.54h.95c.597-.009,1.066-.166,1.408-.472.342-.305.513-.718.513-1.237,0-1.167-.581-1.75-1.743-1.75-.547,0-.983.156-1.309.468-.326.312-.489.726-.489,1.241h-1.265c0-.788.288-1.443.865-1.965.577-.522,1.309-.783,2.198-.783.939,0,1.675.249,2.208.745.533.497.8,1.187.8,2.071,0,.433-.14.852-.42,1.258-.28.406-.662.709-1.145.909.547.173.97.46,1.268.861.298.401.448.891.448,1.47,0,.893-.292,1.602-.875,2.126-.583.524-1.342.786-2.276.786s-1.694-.253-2.28-.759-.878-1.173-.878-2.003h1.271c0,.524.171.943.513,1.258s.8.472,1.374.472c.611,0,1.078-.159,1.401-.479.324-.319.485-.777.485-1.374,0-.579-.178-1.023-.533-1.333-.355-.31-.868-.469-1.538-.479h-.95v-1.032Z"/>
    <path class="cls-15" d="M383.291,125.887c0,1.481-.253,2.582-.759,3.302-.506.72-1.296,1.08-2.372,1.08-1.062,0-1.848-.352-2.358-1.056s-.775-1.756-.793-3.155v-1.688c0-1.463.253-2.55.759-3.261s1.299-1.066,2.379-1.066c1.071,0,1.859.343,2.365,1.029.506.686.766,1.744.779,3.175v1.641ZM382.026,124.157c0-1.071-.15-1.851-.451-2.341-.301-.49-.777-.735-1.429-.735-.647,0-1.119.244-1.415.731-.296.488-.449,1.237-.458,2.249v2.023c0,1.076.156,1.87.468,2.382s.785.769,1.418.769c.625,0,1.088-.241,1.391-.725.303-.483.461-1.244.475-2.283v-2.071Z"/>
  </g>
  <g>
    <path class="cls-15" d="M439.473,126.789h1.381v1.032h-1.381v2.311h-1.271v-2.311h-4.532v-.745l4.457-6.897h1.347v6.61ZM435.105,126.789h3.097v-4.881l-.15.273-2.946,4.607Z"/>
    <path class="cls-15" d="M448.237,125.887c0,1.481-.253,2.582-.759,3.302-.506.72-1.296,1.08-2.372,1.08-1.062,0-1.848-.352-2.358-1.056s-.775-1.756-.793-3.155v-1.688c0-1.463.253-2.55.759-3.261s1.299-1.066,2.379-1.066c1.071,0,1.859.343,2.365,1.029.506.686.766,1.744.779,3.175v1.641ZM446.972,124.157c0-1.071-.15-1.851-.451-2.341-.301-.49-.777-.735-1.429-.735-.647,0-1.119.244-1.415.731-.296.488-.449,1.237-.458,2.249v2.023c0,1.076.156,1.87.468,2.382s.785.769,1.418.769c.625,0,1.088-.241,1.391-.725.303-.483.461-1.244.475-2.283v-2.071Z"/>
  </g>
  <g>
    <path class="cls-15" d="M499.662,125.142l.506-4.963h5.1v1.169h-4.026l-.301,2.714c.488-.287,1.042-.431,1.661-.431.907,0,1.627.3,2.16.899.533.599.8,1.409.8,2.43s-.277,1.833-.831,2.423c-.554.59-1.327.885-2.321.885-.879,0-1.597-.244-2.153-.731-.556-.488-.873-1.162-.95-2.023h1.196c.078.57.28.999.608,1.289.328.29.761.434,1.299.434.588,0,1.049-.2,1.384-.602.335-.401.502-.955.502-1.661,0-.665-.181-1.2-.543-1.603s-.844-.605-1.446-.605c-.551,0-.984.121-1.299.362l-.335.273-1.012-.26Z"/>
    <path class="cls-15" d="M513.184,125.887c0,1.481-.253,2.582-.759,3.302-.506.72-1.296,1.08-2.372,1.08-1.062,0-1.848-.352-2.358-1.056s-.775-1.756-.793-3.155v-1.688c0-1.463.253-2.55.759-3.261s1.299-1.066,2.379-1.066c1.071,0,1.859.343,2.365,1.029.506.686.766,1.744.779,3.175v1.641ZM511.919,124.157c0-1.071-.15-1.851-.451-2.341-.301-.49-.777-.735-1.429-.735-.647,0-1.119.244-1.415.731-.296.488-.449,1.237-.458,2.249v2.023c0,1.076.156,1.87.468,2.382s.785.769,1.418.769c.625,0,1.088-.241,1.391-.725.303-.483.461-1.244.475-2.283v-2.071Z"/>
  </g>
  <g>
    <path class="cls-15" d="M244.522,130.132h-1.271v-8.429l-2.55.937v-1.148l3.623-1.36h.198v10.001Z"/>
    <path class="cls-15" d="M254.468,125.887c0,1.481-.253,2.582-.759,3.302-.506.72-1.296,1.08-2.372,1.08-1.062,0-1.848-.352-2.358-1.056s-.775-1.756-.793-3.155v-1.688c0-1.463.253-2.55.759-3.261s1.299-1.066,2.379-1.066c1.071,0,1.859.343,2.365,1.029.506.686.766,1.744.779,3.175v1.641ZM253.203,124.157c0-1.071-.15-1.851-.451-2.341-.301-.49-.777-.735-1.429-.735-.647,0-1.119.244-1.415.731-.296.488-.449,1.237-.458,2.249v2.023c0,1.076.156,1.87.468,2.382s.785.769,1.418.769c.625,0,1.088-.241,1.391-.725.303-.483.461-1.244.475-2.283v-2.071Z"/>
  </g>
  <g>
    <path class="cls-15" d="M180.456,130.132h-1.271v-8.429l-2.55.937v-1.148l3.623-1.36h.198v10.001Z"/>
    <path class="cls-15" d="M187.518,122.093c0-.597.19-1.089.571-1.477.38-.387.869-.581,1.466-.581.606,0,1.097.195,1.473.584s.564.895.564,1.514v.485c0,.602-.19,1.093-.571,1.473-.38.381-.865.571-1.453.571-.592,0-1.083-.19-1.47-.571-.387-.38-.581-.887-.581-1.521v-.479ZM188.461,122.617c0,.356.1.65.301.88s.469.346.807.346c.324,0,.584-.112.783-.336s.297-.53.297-.918v-.5c0-.356-.098-.651-.294-.884-.196-.233-.462-.35-.8-.35s-.604.116-.8.35c-.196.233-.294.537-.294.911v.5ZM189.856,129.38l-.718-.451,4.86-7.779.718.451-4.86,7.779ZM192.364,127.691c0-.597.19-1.088.571-1.473.38-.385.869-.578,1.466-.578s1.087.191,1.47.574.574.891.574,1.524v.485c0,.597-.19,1.088-.571,1.473-.38.385-.867.578-1.459.578s-1.083-.19-1.47-.571c-.387-.38-.581-.887-.581-1.521v-.492ZM193.308,128.222c0,.361.1.656.301.887s.469.346.807.346c.328,0,.59-.113.786-.339s.294-.533.294-.922v-.507c0-.361-.099-.655-.297-.884-.198-.229-.464-.343-.796-.343-.324,0-.587.113-.79.339s-.304.531-.304.915v.507Z"/>
  </g>
  <g>
    <path class="cls-14" d="M12.101,93.397c-.06-.504-.302-.895-.726-1.173-.424-.279-.944-.418-1.561-.418-.451,0-.844.073-1.181.219-.336.146-.598.346-.786.602-.187.255-.281.545-.281.87,0,.272.065.505.196.698s.299.355.505.482c.205.128.42.232.646.313.226.081.433.147.622.196l1.034.279c.265.07.561.166.887.288.327.123.64.289.94.5.3.211.547.48.743.808.195.328.293.731.293,1.208,0,.55-.143,1.047-.43,1.491s-.705.797-1.253,1.059c-.549.262-1.214.393-1.996.393-.729,0-1.36-.118-1.892-.353-.532-.235-.95-.563-1.253-.984-.303-.421-.475-.91-.515-1.467h1.273c.033.385.163.702.39.952s.515.436.865.557c.35.121.727.182,1.131.182.471,0,.893-.077,1.268-.231.375-.154.671-.37.89-.646.219-.277.328-.601.328-.972,0-.338-.095-.613-.284-.825-.188-.212-.438-.385-.746-.517s-.641-.249-.999-.348l-1.253-.358c-.795-.229-1.425-.555-1.889-.979-.464-.424-.696-.979-.696-1.666,0-.57.155-1.068.465-1.494s.728-.757,1.253-.994c.525-.237,1.113-.355,1.763-.355.656,0,1.239.117,1.75.351.51.234.916.553,1.215.957s.458.863.475,1.377h-1.193Z"/>
    <path class="cls-14" d="M18.624,93.397v.994h-3.958v-.994h3.958ZM15.819,91.567h1.173v7.278c0,.332.049.579.146.743.098.164.224.273.378.328.154.055.317.082.49.082.129,0,.235-.007.318-.022.083-.015.149-.027.199-.037l.239,1.054c-.08.03-.191.061-.333.092-.143.031-.323.047-.542.047-.332,0-.656-.071-.972-.214-.316-.143-.578-.36-.785-.651-.208-.292-.311-.659-.311-1.104v-7.596Z"/>
    <path class="cls-14" d="M22.64,101.212c-.484,0-.923-.092-1.317-.276-.395-.184-.708-.451-.939-.801-.232-.35-.348-.773-.348-1.27,0-.438.086-.793.259-1.066.172-.273.402-.488.691-.644.288-.156.607-.272.957-.35s.702-.14,1.057-.187c.464-.06.841-.105,1.131-.137s.502-.085.636-.162c.134-.076.202-.209.202-.398v-.04c0-.49-.134-.872-.4-1.143-.267-.272-.67-.408-1.21-.408-.561,0-1,.123-1.318.368-.318.245-.542.507-.671.785l-1.114-.398c.199-.464.465-.826.798-1.086.333-.26.698-.443,1.094-.547.396-.104.787-.157,1.171-.157.245,0,.528.029.848.087.32.058.63.176.93.355.3.179.549.449.749.81.199.361.298.845.298,1.452v5.031h-1.173v-1.034h-.06c-.08.166-.212.343-.397.532s-.433.35-.741.482c-.309.132-.685.199-1.129.199ZM22.819,100.158c.464,0,.856-.091,1.176-.273.32-.182.562-.418.726-.706s.246-.592.246-.91v-1.074c-.05.06-.159.114-.326.162-.167.048-.36.09-.577.124-.217.035-.428.065-.632.09-.204.025-.369.046-.495.062-.305.04-.589.104-.853.191-.263.088-.476.219-.636.393s-.241.41-.241.708c0,.408.152.715.455.922.303.207.688.311,1.156.311ZM22.859,92.363l1.213-2.307h1.372l-1.551,2.307h-1.034Z"/>
    <path class="cls-14" d="M31.61,93.397v.994h-3.958v-.994h3.958ZM28.805,91.567h1.173v7.278c0,.332.049.579.146.743.098.164.224.273.378.328.154.055.317.082.49.082.129,0,.235-.007.318-.022.083-.015.149-.027.199-.037l.239,1.054c-.08.03-.191.061-.333.092-.143.031-.323.047-.542.047-.332,0-.656-.071-.972-.214-.316-.143-.578-.36-.785-.651-.208-.292-.311-.659-.311-1.104v-7.596Z"/>
    <path class="cls-14" d="M34.135,103.897c-.199,0-.376-.016-.532-.047s-.263-.062-.323-.092l.298-1.034c.285.073.537.099.755.079.219-.02.414-.117.584-.291.17-.174.327-.455.47-.843l.219-.597-2.824-7.676h1.273l2.108,6.085h.08l2.108-6.085h1.273l-3.242,8.75c-.146.395-.327.722-.542.982s-.465.453-.748.579c-.283.126-.603.189-.957.189Z"/>
    <path class="cls-14" d="M45.271,101.033v-10.182h6.145v1.094h-4.912v3.44h4.594v1.094h-4.594v3.46h4.992v1.094h-6.225Z"/>
    <path class="cls-14" d="M60.325,90.851h1.233v6.741c0,.696-.164,1.317-.49,1.862-.327.545-.787.974-1.38,1.288s-1.289.47-2.088.47-1.495-.156-2.088-.47-1.053-.742-1.379-1.288c-.327-.545-.49-1.166-.49-1.862v-6.741h1.233v6.642c0,.497.109.939.328,1.325.219.386.531.689.937.91.406.22.893.331,1.459.331s1.054-.11,1.461-.331.72-.524.938-.91c.217-.386.325-.828.325-1.325v-6.642Z"/>
    <path class="cls-14" d="M73.211,95.107l-1.054.298c-.066-.176-.164-.347-.291-.514-.127-.167-.301-.306-.52-.415s-.499-.164-.84-.164c-.467,0-.856.107-1.166.321-.31.214-.465.485-.465.813,0,.292.106.522.318.691.212.169.543.31.995.423l1.133.278c.683.166,1.191.418,1.526.758.334.34.502.776.502,1.31,0,.438-.125.829-.375,1.173-.25.345-.599.616-1.046.815-.447.199-.968.298-1.561.298-.779,0-1.423-.169-1.934-.507-.51-.338-.833-.832-.969-1.482l1.114-.278c.106.411.307.719.604.925.296.206.685.308,1.166.308.547,0,.982-.117,1.305-.351s.485-.514.485-.843c0-.265-.093-.488-.278-.669-.186-.181-.471-.316-.855-.405l-1.272-.298c-.699-.166-1.212-.423-1.539-.773-.327-.35-.49-.788-.49-1.315,0-.431.122-.812.365-1.144.244-.331.577-.592,1-.781.422-.189.902-.283,1.439-.283.756,0,1.35.166,1.782.497.433.331.74.769.922,1.312Z"/>
    <path class="cls-14" d="M80.231,96.44v4.594h-1.173v-7.636h1.134v1.193h.099c.179-.388.451-.7.815-.937.365-.237.835-.355,1.412-.355.517,0,.969.105,1.357.316.388.211.689.529.905.955.215.426.323.964.323,1.613v4.852h-1.173v-4.773c0-.6-.156-1.068-.467-1.405s-.739-.505-1.283-.505c-.375,0-.708.081-1.001.244s-.524.399-.694.711c-.169.312-.253.689-.253,1.134Z"/>
    <path class="cls-14" d="M92.063,97.911v-4.514h1.173v7.636h-1.173v-1.293h-.08c-.179.388-.457.717-.835.987-.378.27-.855.405-1.432.405-.477,0-.901-.105-1.272-.316s-.663-.529-.875-.955c-.212-.426-.318-.964-.318-1.613v-4.852h1.173v4.773c0,.557.157,1.001.47,1.332.313.332.713.497,1.201.497.292,0,.589-.074.893-.224s.559-.378.766-.686c.207-.308.311-.701.311-1.178Z"/>
    <path class="cls-14" d="M96.558,90.851v10.182h-1.173v-10.182h1.173Z"/>
    <path class="cls-14" d="M101.808,101.192c-.689,0-1.293-.164-1.812-.492-.519-.328-.923-.787-1.213-1.377-.29-.59-.435-1.279-.435-2.068,0-.796.145-1.49.435-2.083.29-.593.694-1.054,1.213-1.382.519-.328,1.123-.492,1.812-.492s1.293.164,1.812.492.923.789,1.213,1.382c.29.594.435,1.288.435,2.083,0,.789-.145,1.478-.435,2.068-.29.59-.694,1.049-1.213,1.377s-1.123.492-1.812.492ZM101.808,100.138c.523,0,.955-.134,1.292-.403s.588-.621.75-1.059c.163-.438.244-.912.244-1.422s-.081-.986-.244-1.427c-.162-.441-.413-.797-.75-1.069s-.769-.408-1.292-.408-.955.136-1.293.408c-.338.272-.588.628-.75,1.069-.163.441-.244.917-.244,1.427s.081.984.244,1.422c.162.438.413.79.75,1.059.338.269.769.403,1.293.403Z"/>
    <path class="cls-14" d="M113.024,93.397l-2.824,7.636h-1.193l-2.824-7.636h1.273l2.108,6.085h.08l2.108-6.085h1.273Z"/>
    <path class="cls-14" d="M115.33,103.897c-.199,0-.376-.016-.532-.047s-.263-.062-.323-.092l.298-1.034c.285.073.537.099.755.079.219-.02.414-.117.584-.291.17-.174.327-.455.47-.843l.219-.597-2.824-7.676h1.273l2.108,6.085h.08l2.108-6.085h1.273l-3.242,8.75c-.146.395-.327.722-.542.982s-.465.453-.748.579c-.283.126-.603.189-.957.189ZM116.861,92.363l1.213-2.307h1.372l-1.551,2.307h-1.034Z"/>
    <path class="cls-14" d="M122.37,101.033v-7.636h1.134v1.193h.099c.159-.408.416-.725.771-.952.354-.227.78-.341,1.277-.341.504,0,.924.114,1.26.341s.599.544.788.952h.08c.196-.395.489-.708.88-.942s.86-.351,1.407-.351c.683,0,1.241.213,1.675.639.434.426.651,1.088.651,1.986v5.111h-1.173v-5.111c0-.563-.154-.966-.462-1.208s-.671-.363-1.089-.363c-.537,0-.953.162-1.248.485-.295.323-.443.732-.443,1.225v4.972h-1.193v-5.23c0-.434-.141-.784-.423-1.051s-.645-.4-1.089-.4c-.305,0-.589.081-.853.244-.263.162-.476.387-.636.674-.161.287-.241.617-.241.992v4.773h-1.173Z"/>
    <path class="cls-14" d="M6.374,120.697v-10.5h1.134v1.213h.139c.086-.133.206-.302.36-.51.154-.207.376-.393.666-.557s.684-.246,1.181-.246c.643,0,1.209.161,1.7.482.49.322.873.777,1.148,1.367.275.59.413,1.286.413,2.088,0,.809-.138,1.509-.413,2.101-.275.592-.656,1.049-1.144,1.372-.487.323-1.049.485-1.686.485-.49,0-.883-.082-1.178-.246s-.522-.351-.681-.562-.282-.385-.368-.525h-.1v4.037h-1.173ZM7.527,114.015c0,.577.085,1.085.254,1.524.169.439.416.782.741,1.029.325.247.723.371,1.193.371.491,0,.901-.13,1.23-.39.33-.26.579-.612.746-1.054.167-.442.251-.936.251-1.479,0-.537-.082-1.022-.246-1.454-.164-.432-.411-.775-.741-1.029-.33-.253-.743-.38-1.241-.38-.477,0-.878.12-1.203.361-.325.24-.57.575-.735,1.004-.166.429-.249.929-.249,1.499Z"/>
    <path class="cls-14" d="M18.007,117.992c-.689,0-1.293-.164-1.812-.492-.519-.328-.923-.787-1.213-1.377-.29-.59-.435-1.279-.435-2.068,0-.796.145-1.49.435-2.083.29-.593.694-1.054,1.213-1.382.519-.328,1.123-.492,1.812-.492s1.293.164,1.812.492.923.789,1.213,1.382c.29.594.435,1.288.435,2.083,0,.789-.145,1.478-.435,2.068-.29.59-.694,1.049-1.213,1.377s-1.123.492-1.812.492ZM18.007,116.939c.523,0,.955-.134,1.292-.403s.588-.621.75-1.059c.163-.438.244-.912.244-1.422s-.081-.986-.244-1.427c-.162-.441-.413-.797-.75-1.069s-.769-.408-1.292-.408-.955.136-1.293.408c-.338.272-.588.628-.75,1.069-.163.441-.244.917-.244,1.427s.081.984.244,1.422c.162.438.413.79.75,1.059.338.269.769.403,1.293.403Z"/>
    <path class="cls-14" d="M26.141,117.992c-.637,0-1.198-.162-1.686-.485-.487-.323-.868-.781-1.144-1.372-.275-.592-.413-1.292-.413-2.101,0-.802.138-1.498.413-2.088.275-.59.658-1.046,1.148-1.367.491-.321,1.057-.482,1.7-.482.498,0,.891.082,1.181.246s.512.35.666.557c.154.207.274.377.36.51h.1v-3.759h1.173v10.182h-1.134v-1.173h-.139c-.086.139-.208.314-.368.525s-.386.398-.681.562-.688.246-1.178.246ZM26.3,116.939c.47,0,.868-.124,1.193-.371.325-.247.572-.59.741-1.029.169-.439.254-.947.254-1.524,0-.57-.083-1.07-.249-1.499-.166-.429-.411-.764-.735-1.004-.325-.24-.726-.361-1.203-.361-.498,0-.911.127-1.241.38-.33.254-.577.597-.741,1.029-.164.433-.246.917-.246,1.454,0,.543.083,1.037.251,1.479s.416.794.746,1.054c.33.26.74.39,1.23.39Z"/>
    <path class="cls-14" d="M31.947,117.833v-7.636h1.173v7.636h-1.173ZM32.007,109.163l1.213-2.307h1.372l-1.551,2.307h-1.034Z"/>
    <path class="cls-14" d="M36.442,107.651v10.182h-1.173v-10.182h1.173Z"/>
    <path class="cls-14" d="M41.791,117.992c-.736,0-1.37-.163-1.901-.49-.532-.326-.941-.784-1.228-1.372-.287-.588-.43-1.273-.43-2.056s.144-1.472.43-2.071c.287-.598.688-1.066,1.203-1.402.515-.336,1.118-.505,1.807-.505.398,0,.791.066,1.178.199s.741.347,1.059.644c.318.297.572.688.761,1.176.189.487.283,1.087.283,1.8v.497h-5.886v-1.014h4.693c0-.431-.085-.815-.256-1.154-.171-.338-.413-.605-.726-.8-.313-.196-.682-.293-1.106-.293-.467,0-.871.115-1.21.346-.34.23-.601.529-.783.897s-.273.762-.273,1.183v.676c0,.577.1,1.065.301,1.464.201.399.48.703.838.91s.774.311,1.248.311c.309,0,.587-.044.838-.132.25-.088.466-.22.649-.398.182-.177.323-.398.422-.664l1.134.318c-.12.385-.32.722-.602,1.012-.282.29-.63.515-1.044.676-.414.161-.88.241-1.397.241Z"/>
    <path class="cls-14" d="M46.743,117.833v-7.636h1.134v1.193h.099c.159-.408.416-.725.771-.952.354-.227.78-.341,1.277-.341.504,0,.924.114,1.26.341s.599.544.788.952h.08c.196-.395.489-.708.88-.942s.86-.351,1.407-.351c.683,0,1.241.213,1.675.639.434.426.651,1.088.651,1.986v5.111h-1.173v-5.111c0-.563-.154-.966-.462-1.208s-.671-.363-1.089-.363c-.537,0-.953.162-1.248.485-.295.323-.443.732-.443,1.225v4.972h-1.193v-5.23c0-.434-.141-.784-.423-1.051s-.645-.4-1.089-.4c-.305,0-.589.081-.853.244-.263.162-.476.387-.636.674-.161.287-.241.617-.241.992v4.773h-1.173Z"/>
    <path class="cls-14" d="M65.953,117.992c-.716,0-1.333-.169-1.85-.507-.517-.338-.915-.804-1.193-1.397-.278-.593-.417-1.271-.417-2.033,0-.776.144-1.461.43-2.056.287-.595.688-1.061,1.203-1.397.515-.336,1.118-.505,1.807-.505.537,0,1.021.099,1.452.298s.784.477,1.059.835c.275.358.446.776.512,1.253h-1.173c-.09-.348-.288-.657-.594-.927-.307-.27-.718-.405-1.235-.405-.458,0-.858.119-1.201.355-.343.237-.61.57-.8.999-.191.429-.286.932-.286,1.509,0,.59.094,1.104.281,1.541.188.438.453.777.795,1.019.343.242.747.363,1.211.363.305,0,.582-.053.83-.159.249-.106.459-.259.631-.458.172-.199.295-.438.368-.716h1.173c-.066.451-.23.856-.49,1.216-.26.36-.604.645-1.029.855-.426.21-.92.316-1.484.316Z"/>
    <path class="cls-14" d="M73.867,117.992c-.736,0-1.37-.163-1.901-.49-.532-.326-.941-.784-1.228-1.372-.287-.588-.43-1.273-.43-2.056s.144-1.472.43-2.071c.287-.598.688-1.066,1.203-1.402.515-.336,1.118-.505,1.807-.505.398,0,.791.066,1.178.199s.741.347,1.059.644c.318.297.572.688.761,1.176.189.487.283,1.087.283,1.8v.497h-5.886v-1.014h4.693c0-.431-.085-.815-.256-1.154-.171-.338-.413-.605-.726-.8-.313-.196-.682-.293-1.106-.293-.467,0-.871.115-1.21.346-.34.23-.601.529-.783.897s-.273.762-.273,1.183v.676c0,.577.1,1.065.301,1.464.201.399.48.703.838.91s.774.311,1.248.311c.309,0,.587-.044.838-.132.25-.088.466-.22.649-.398.182-.177.323-.398.422-.664l1.134.318c-.12.385-.32.722-.602,1.012-.282.29-.63.515-1.044.676-.414.161-.88.241-1.397.241Z"/>
    <path class="cls-14" d="M79.992,113.24v4.594h-1.173v-7.636h1.134v1.193h.099c.179-.388.451-.7.815-.937.365-.237.835-.355,1.412-.355.517,0,.969.105,1.357.316.388.211.689.529.905.955.215.426.323.964.323,1.613v4.852h-1.173v-4.773c0-.6-.156-1.068-.467-1.405s-.739-.505-1.283-.505c-.375,0-.708.081-1.001.244s-.524.399-.694.711c-.169.312-.253.689-.253,1.134Z"/>
    <path class="cls-14" d="M90.333,110.197v.994h-3.958v-.994h3.958ZM87.529,108.367h1.173v7.278c0,.332.049.579.146.743.098.164.224.273.378.328.154.055.317.082.49.082.129,0,.235-.007.318-.022.083-.015.149-.027.199-.037l.239,1.054c-.08.03-.191.061-.333.092-.143.031-.323.047-.542.047-.332,0-.656-.071-.972-.214-.316-.143-.578-.36-.785-.651-.208-.292-.311-.659-.311-1.104v-7.596Z"/>
    <path class="cls-14" d="M92.103,117.833v-7.636h1.134v1.154h.08c.139-.378.391-.684.755-.92s.776-.353,1.233-.353c.086,0,.194.002.323.005.129.003.227.008.293.015v1.193c-.04-.01-.13-.026-.271-.047-.141-.021-.289-.032-.445-.032-.372,0-.702.077-.992.231-.29.154-.519.366-.686.636-.167.27-.251.578-.251.922v4.832h-1.173Z"/>
    <path class="cls-14" d="M99.56,118.012c-.484,0-.923-.092-1.317-.276-.395-.184-.708-.451-.939-.801-.232-.35-.348-.773-.348-1.27,0-.438.086-.793.259-1.066.172-.273.402-.488.691-.644.288-.156.607-.272.957-.35s.702-.14,1.057-.187c.464-.06.841-.105,1.131-.137s.502-.085.636-.162c.134-.076.202-.209.202-.398v-.04c0-.49-.134-.872-.4-1.143-.267-.272-.67-.408-1.21-.408-.561,0-1,.123-1.318.368-.318.245-.542.507-.671.785l-1.114-.398c.199-.464.465-.826.798-1.086.333-.26.698-.443,1.094-.547.396-.104.787-.157,1.171-.157.245,0,.528.029.848.087.32.058.63.176.93.355.3.179.549.449.749.81.199.361.298.845.298,1.452v5.031h-1.173v-1.034h-.06c-.08.166-.212.343-.397.532s-.433.35-.741.482c-.309.132-.685.199-1.129.199ZM99.739,116.958c.464,0,.856-.091,1.176-.273.32-.182.562-.418.726-.706s.246-.592.246-.91v-1.074c-.05.06-.159.114-.326.162-.167.048-.36.09-.577.124-.217.035-.428.065-.632.09-.204.025-.369.046-.495.062-.305.04-.589.104-.853.191-.263.088-.476.219-.636.393s-.241.41-.241.708c0,.408.152.715.455.922.303.207.688.311,1.156.311ZM99.779,109.163l1.213-2.307h1.372l-1.551,2.307h-1.034Z"/>
    <path class="cls-14" d="M106.381,107.651v10.182h-1.173v-10.182h1.173Z"/>
    <path class="cls-14" d="M109.702,113.24v4.594h-1.173v-7.636h1.134v1.193h.099c.179-.388.451-.7.815-.937.365-.237.835-.355,1.412-.355.517,0,.969.105,1.357.316.388.211.689.529.905.955.215.426.323.964.323,1.613v4.852h-1.173v-4.773c0-.6-.156-1.068-.467-1.405s-.739-.505-1.283-.505c-.375,0-.708.081-1.001.244s-.524.399-.694.711c-.169.312-.253.689-.253,1.134Z"/>
    <path class="cls-14" d="M116.722,117.833v-7.636h1.173v7.636h-1.173ZM116.781,109.163l1.213-2.307h1.372l-1.551,2.307h-1.034Z"/>
    <path class="cls-14" d="M121.216,113.24v4.594h-1.173v-10.182h1.173v3.739h.1c.179-.395.448-.708.808-.942.36-.234.839-.351,1.439-.351.521,0,.976.104,1.367.311.391.207.695.524.912.949.217.426.326.967.326,1.623v4.852h-1.173v-4.773c0-.606-.156-1.076-.47-1.409-.313-.333-.747-.5-1.3-.5-.385,0-.729.081-1.032.244s-.542.399-.716.711c-.174.312-.261.689-.261,1.134Z"/>
    <path class="cls-14" d="M131.418,117.992c-.689,0-1.293-.164-1.812-.492-.519-.328-.923-.787-1.213-1.377-.29-.59-.435-1.279-.435-2.068,0-.796.145-1.49.435-2.083.29-.593.694-1.054,1.213-1.382.519-.328,1.123-.492,1.812-.492s1.293.164,1.812.492.923.789,1.213,1.382c.29.594.435,1.288.435,2.083,0,.789-.145,1.478-.435,2.068-.29.59-.694,1.049-1.213,1.377s-1.123.492-1.812.492ZM131.418,116.939c.523,0,.955-.134,1.292-.403s.588-.621.75-1.059c.163-.438.244-.912.244-1.422s-.081-.986-.244-1.427c-.162-.441-.413-.797-.75-1.069s-.769-.408-1.292-.408-.955.136-1.293.408c-.338.272-.588.628-.75,1.069-.163.441-.244.917-.244,1.427s.081.984.244,1.422c.162.438.413.79.75,1.059.338.269.769.403,1.293.403Z"/>
    <path class="cls-14" d="M9.695,126.997v.994h-3.958v-.994h3.958ZM6.891,125.168h1.173v7.278c0,.332.049.579.146.743.098.164.224.273.378.328.154.055.317.082.49.082.129,0,.235-.007.318-.022.083-.015.149-.027.199-.037l.239,1.054c-.08.03-.191.061-.333.092-.143.031-.323.047-.542.047-.332,0-.656-.071-.972-.214-.316-.143-.578-.36-.785-.651-.208-.292-.311-.659-.311-1.104v-7.596Z"/>
    <path class="cls-14" d="M14.587,134.793c-.736,0-1.37-.163-1.901-.49-.532-.326-.941-.784-1.228-1.372-.287-.588-.43-1.273-.43-2.056s.144-1.472.43-2.071c.287-.598.688-1.066,1.203-1.402.515-.336,1.118-.505,1.807-.505.398,0,.791.066,1.178.199s.741.347,1.059.644c.318.297.572.688.761,1.176.189.487.283,1.087.283,1.8v.497h-5.886v-1.014h4.693c0-.431-.085-.815-.256-1.154-.171-.338-.413-.605-.726-.8-.313-.196-.682-.293-1.106-.293-.467,0-.871.115-1.21.346-.34.23-.601.529-.783.897s-.273.762-.273,1.183v.676c0,.577.1,1.065.301,1.464.201.399.48.703.838.91s.774.311,1.248.311c.309,0,.587-.044.838-.132.25-.088.466-.22.649-.398.182-.177.323-.398.422-.664l1.134.318c-.12.385-.32.722-.602,1.012-.282.29-.63.515-1.044.676-.414.161-.88.241-1.397.241Z"/>
    <path class="cls-14" d="M19.538,137.497v-10.5h1.134v1.213h.139c.086-.133.206-.302.36-.51.154-.207.376-.393.666-.557s.684-.246,1.181-.246c.643,0,1.209.161,1.7.482.49.322.873.777,1.148,1.367.275.59.413,1.286.413,2.088,0,.809-.138,1.509-.413,2.101-.275.592-.656,1.049-1.144,1.372-.487.323-1.049.485-1.686.485-.49,0-.883-.082-1.178-.246s-.522-.351-.681-.562-.282-.385-.368-.525h-.1v4.037h-1.173ZM20.692,130.815c0,.577.085,1.085.254,1.524.169.439.416.782.741,1.029.325.247.723.371,1.193.371.491,0,.901-.13,1.23-.39.33-.26.579-.612.746-1.054.167-.442.251-.936.251-1.479,0-.537-.082-1.022-.246-1.454-.164-.432-.411-.775-.741-1.029-.33-.253-.743-.38-1.241-.38-.477,0-.878.12-1.203.361-.325.24-.57.575-.735,1.004-.166.429-.249.929-.249,1.499Z"/>
    <path class="cls-14" d="M29.243,124.451v10.182h-1.173v-10.182h1.173Z"/>
    <path class="cls-14" d="M33.638,134.812c-.484,0-.923-.092-1.317-.276-.395-.184-.708-.451-.939-.801-.232-.35-.348-.773-.348-1.27,0-.438.086-.793.259-1.066.172-.273.402-.488.691-.644.288-.156.607-.272.957-.35s.702-.14,1.057-.187c.464-.06.841-.105,1.131-.137s.502-.085.636-.162c.134-.076.202-.209.202-.398v-.04c0-.49-.134-.872-.4-1.143-.267-.272-.67-.408-1.21-.408-.561,0-1,.123-1.318.368-.318.245-.542.507-.671.785l-1.114-.398c.199-.464.465-.826.798-1.086.333-.26.698-.443,1.094-.547.396-.104.787-.157,1.171-.157.245,0,.528.029.848.087.32.058.63.176.93.355.3.179.549.449.749.81.199.361.298.845.298,1.452v5.031h-1.173v-1.034h-.06c-.08.166-.212.343-.397.532s-.433.35-.741.482c-.309.132-.685.199-1.129.199ZM33.817,133.758c.464,0,.856-.091,1.176-.273.32-.182.562-.418.726-.706s.246-.592.246-.91v-1.074c-.05.06-.159.114-.326.162-.167.048-.36.09-.577.124-.217.035-.428.065-.632.09-.204.025-.369.046-.495.062-.305.04-.589.104-.853.191-.263.088-.476.219-.636.393s-.241.41-.241.708c0,.408.152.715.455.922.303.207.688.311,1.156.311Z"/>
  </g>
  <g>
    <line class="cls-10" x1="181.382" y1="111.329" x2="181.382" y2="105.024"/>
    <line class="cls-10" x1="246.328" y1="111.329" x2="246.328" y2="105.024"/>
    <line class="cls-10" x1="311.275" y1="111.329" x2="311.275" y2="105.024"/>
    <line class="cls-10" x1="376.222" y1="111.329" x2="376.222" y2="105.024"/>
    <line class="cls-10" x1="441.168" y1="111.329" x2="441.168" y2="105.024"/>
    <line class="cls-10" x1="506.115" y1="111.329" x2="506.115" y2="105.024"/>
    <line class="cls-10" x1="571.062" y1="111.329" x2="571.062" y2="105.024"/>
    <line class="cls-10" x1="636.008" y1="111.329" x2="636.008" y2="105.024"/>
  </g>
</svg>