<?xml version="1.0" encoding="UTF-8" standalone="no"?>
<svg
   width="466.70111pt"
   height="251.99716pt"
   viewBox="0 0 466.70111 251.99716"
   version="1.1"
   id="svg31"
   xmlns="http://www.w3.org/2000/svg"
   xmlns:svg="http://www.w3.org/2000/svg">
  <defs
     id="defs31" />
  <g
     clip-path="none"
     id="g15"
     transform="translate(-0.69717268)">
    <polyline
       points="95.15,224.76 95.15,-0.000000000000057 "
       style="stroke:#cccccc;stroke-width:0.43;stroke-linecap:butt"
       id="polyline3" />
    <polyline
       points="145.88,224.76 145.88,-0.000000000000057 "
       style="stroke:#cccccc;stroke-width:0.43;stroke-linecap:butt"
       id="polyline4" />
    <polyline
       points="196.61,224.76 196.61,-0.000000000000057 "
       style="stroke:#cccccc;stroke-width:0.43;stroke-linecap:butt"
       id="polyline5" />
    <polyline
       points="247.33,224.76 247.33,-0.000000000000057 "
       style="stroke:#cccccc;stroke-width:0.43;stroke-linecap:butt"
       id="polyline6" />
    <polyline
       points="298.06,224.76 298.06,-0.000000000000057 "
       style="stroke:#cccccc;stroke-width:0.43;stroke-linecap:butt"
       id="polyline7" />
    <polyline
       points="348.79,224.76 348.79,-0.000000000000057 "
       style="stroke:#cccccc;stroke-width:0.43;stroke-linecap:butt"
       id="polyline8" />
    <polyline
       points="399.52,224.76 399.52,-0.000000000000057 "
       style="stroke:#cccccc;stroke-width:0.43;stroke-linecap:butt"
       id="polyline9" />
    <polyline
       points="450.25,224.76 450.25,-0.000000000000057 "
       style="stroke:#cccccc;stroke-width:0.43;stroke-linecap:butt"
       id="polyline10" />
    <rect
       x="95.150002"
       y="9.9700003"
       width="228.28"
       height="23.559999"
       style="fill:#e47472;stroke:none;stroke-width:1.07;stroke-linecap:butt;stroke-linejoin:miter"
       id="rect10" />
    <rect
       x="95.150002"
       y="46.220001"
       width="126.82"
       height="23.559999"
       style="fill:#923156;stroke:none;stroke-width:1.07;stroke-linecap:butt;stroke-linejoin:miter"
       id="rect11" />
    <rect
       x="95.150002"
       y="82.470001"
       width="101.46"
       height="23.559999"
       style="fill:#74c7a8;stroke:none;stroke-width:1.07;stroke-linecap:butt;stroke-linejoin:miter"
       id="rect12" />
    <rect
       x="95.150002"
       y="118.72"
       width="30.440001"
       height="23.559999"
       style="fill:#715a9f;stroke:none;stroke-width:1.07;stroke-linecap:butt;stroke-linejoin:miter"
       id="rect13" />
    <rect
       x="95.150002"
       y="154.98"
       width="15.22"
       height="23.559999"
       style="fill:#d2ae81;stroke:none;stroke-width:1.07;stroke-linecap:butt;stroke-linejoin:miter"
       id="rect14" />
    <rect
       x="95.150002"
       y="191.23"
       width="5.0700002"
       height="23.559999"
       style="fill:#465d95;stroke:none;stroke-width:1.07;stroke-linecap:butt;stroke-linejoin:miter"
       id="rect15" />
  </g>
  <g
     clip-path="none"
     id="g30"
     transform="translate(-0.69717268)">
    <path
       d="m 5.8895967,204.78976 v -6.04101 h 1.124822 v 6.04101 q 0,1.26563 -0.7615983,1.93946 -0.7557397,0.66797 -1.9274293,0.66797 -1.177548,0 -1.9391463,-0.60938 -0.7557397,-0.60937 -0.7557397,-1.86914 h 1.1306804 q 0,0.80859 0.4335251,1.18359 0.4393836,0.375 1.1306805,0.375 0.667863,0 1.1131051,-0.42773 0.4511005,-0.42773 0.4511005,-1.25977 z M 12.679538,207.28 q -0.105452,-0.22852 -0.15232,-0.66797 -0.304639,0.32227 -0.761598,0.55664 -0.456959,0.22852 -1.042804,0.22852 -0.9725021,0 -1.5583469,-0.54493 -0.5858448,-0.54492 -0.5858448,-1.33593 0,-1.01953 0.7733151,-1.54688 0.7733156,-0.5332 2.0797486,-0.5332 h 1.072096 v -0.50391 q 0,-0.5625 -0.33979,-0.89648 -0.333931,-0.33985 -0.995936,-0.33985 -0.615137,0 -0.995936,0.30469 -0.3749406,0.29883 -0.3749406,0.69727 H 8.7133686 q 0,-0.67969 0.6854384,-1.27735 0.685438,-0.59765 1.833694,-0.59765 1.031087,0 1.693092,0.52734 0.662004,0.52735 0.662004,1.59375 v 2.95313 q 0,0.3164 0.05273,0.67382 0.05858,0.35743 0.169895,0.61524 v 0.0937 z m -1.798544,-0.83203 q 0.585845,0 1.013512,-0.29297 0.433525,-0.29297 0.609278,-0.65039 v -1.30664 h -0.896342 q -1.9391464,0 -1.9391464,1.17187 0,0.45117 0.3046393,0.76758 0.3046391,0.31055 0.9080591,0.31055 z m 8.500608,0.83203 -0.05273,-0.67969 q -0.650288,0.79688 -1.810261,0.79688 -1.118963,0 -1.81026,-0.91407 -0.685439,-0.91406 -0.685439,-2.30273 v -0.12305 q 0,-1.45312 0.685439,-2.34375 0.691297,-0.89062 1.821977,-0.89062 1.118964,0 1.757535,0.75 V 198.28 h 1.089671 v 9 z m -3.269014,-3.09961 q 0,0.94336 0.398374,1.62305 0.398375,0.67382 1.277142,0.67382 0.568269,0 0.925635,-0.25781 0.357365,-0.25781 0.574128,-0.66211 v -2.91797 q -0.210905,-0.39257 -0.574128,-0.64453 -0.357366,-0.25781 -0.913918,-0.25781 -0.884626,0 -1.288859,0.69141 -0.398374,0.68554 -0.398374,1.6289 z m 10.961157,1.99219 q -0.310498,0.46875 -0.878768,0.84961 -0.568269,0.375 -1.505621,0.375 -1.324009,0 -2.120758,-0.86133 -0.79089,-0.86133 -0.79089,-2.20313 v -0.24609 q 0,-1.03711 0.392516,-1.76367 0.398374,-0.73242 1.031086,-1.11328 0.632713,-0.38672 1.347444,-0.38672 1.359159,0 1.980155,0.89062 0.626854,0.88477 0.626854,2.21485 v 0.48632 h -4.288384 q 0.02343,0.87305 0.515543,1.48829 0.497968,0.60937 1.365019,0.60937 0.574128,0 0.972502,-0.23437 0.398375,-0.23438 0.697155,-0.62696 z m -2.524991,-4.45899 q -0.64443,0 -1.089672,0.46875 -0.445242,0.46875 -0.556552,1.34766 h 3.16942 v -0.082 q -0.04101,-0.63281 -0.369082,-1.1836 -0.322215,-0.55078 -1.154114,-0.55078 z m 6.403283,0.15235 q -0.556553,0 -0.913918,0.25195 -0.357365,0.24609 -0.533119,0.66211 v 4.5 h -1.083813 v -6.33984 h 1.054521 l 0.02343,0.72656 q 0.240196,-0.38672 0.609278,-0.61524 0.374941,-0.22851 0.896343,-0.22851 0.304639,0 0.480393,0.082 l -0.0059,1.00781 q -0.240196,-0.0469 -0.52726,-0.0469 z m 4.165355,-0.12891 q -0.521402,0 -0.919776,0.28125 -0.398375,0.28125 -0.626854,0.73242 v 4.5293 h -1.083813 v -6.33984 h 1.025228 l 0.03515,0.79101 q 0.720589,-0.9082 1.892279,-0.9082 0.937351,0 1.482187,0.52734 0.550694,0.52735 0.550694,1.77539 v 4.1543 h -1.089671 v -4.16602 q 0,-0.74414 -0.328073,-1.06054 -0.322215,-0.31641 -0.937351,-0.31641 z m 9.010292,4.43555 q -0.310497,0.46875 -0.878767,0.84961 -0.568269,0.375 -1.505621,0.375 -1.324009,0 -2.120758,-0.86133 -0.790891,-0.86133 -0.790891,-2.20313 v -0.24609 q 0,-1.03711 0.392516,-1.76367 0.398375,-0.73242 1.031087,-1.11328 0.632713,-0.38672 1.347443,-0.38672 1.35916,0 1.980156,0.89062 0.626854,0.88477 0.626854,2.21485 v 0.48632 h -4.288384 q 0.02343,0.87305 0.515543,1.48829 0.497968,0.60937 1.365019,0.60937 0.574127,0 0.972502,-0.23437 0.398374,-0.23438 0.697155,-0.62696 z m -2.524991,-4.45899 q -0.644429,0 -1.089671,0.46875 -0.445242,0.46875 -0.556553,1.34766 h 3.169421 v -0.082 q -0.04101,-0.63281 -0.369082,-1.1836 -0.322215,-0.55078 -1.154115,-0.55078 z m -0.60342,-1.71093 1.136539,-1.72266 h 1.306434 l -1.570064,1.72266 z M 51.13439,207.28 q -0.128886,0.041 -0.33979,0.0762 -0.205046,0.041 -0.497968,0.041 -0.603421,0 -1.031087,-0.36914 -0.427667,-0.36914 -0.427667,-1.32422 v -3.93164 h -1.159973 v -0.83203 h 1.159973 v -1.54102 h 1.083813 v 1.54102 h 1.183406 v 0.83203 h -1.183406 v 3.9375 q 0,0.48632 0.210904,0.62109 0.210904,0.13477 0.486251,0.13477 0.134744,0 0.281206,-0.0234 0.152319,-0.0293 0.228479,-0.0469 z m 6.256821,-1.10742 q -0.310497,0.46875 -0.878767,0.84961 -0.568269,0.375 -1.505621,0.375 -1.324009,0 -2.120758,-0.86133 -0.790891,-0.86133 -0.790891,-2.20313 v -0.24609 q 0,-1.03711 0.392516,-1.76367 0.398375,-0.73242 1.031087,-1.11328 0.632713,-0.38672 1.347443,-0.38672 1.35916,0 1.980156,0.89062 0.626854,0.88477 0.626854,2.21485 v 0.48632 h -4.288384 q 0.02343,0.87305 0.515543,1.48829 0.497968,0.60937 1.365018,0.60937 0.574128,0 0.972503,-0.23437 0.398374,-0.23438 0.697155,-0.62696 z m -2.524991,-4.45899 q -0.644429,0 -1.089671,0.46875 -0.445242,0.46875 -0.556553,1.34766 h 3.169421 v -0.082 q -0.04101,-0.63281 -0.369083,-1.1836 -0.322214,-0.55078 -1.154114,-0.55078 z m 6.766507,5.6836 q -1.142397,0 -1.81026,-0.73243 v 3.05274 h -1.089671 v -8.77734 h 0.995936 l 0.05273,0.69726 q 0.667863,-0.81445 1.833694,-0.81445 1.200982,0 1.839553,0.89062 0.63857,0.89063 0.63857,2.34375 v 0.12305 q 0,1.38867 -0.644429,2.30273 -0.638571,0.91407 -1.816119,0.91407 z m -0.333931,-5.66016 q -0.550694,0 -0.90806,0.25195 -0.357365,0.2461 -0.568269,0.6211 v 3.03515 q 0.216762,0.375 0.568269,0.6211 0.357366,0.24023 0.919777,0.24023 0.878767,0 1.283,-0.6914 0.410091,-0.69141 0.410091,-1.63477 v -0.12305 q 0,-0.94336 -0.410091,-1.6289 -0.404233,-0.69141 -1.294717,-0.69141 z M 66.653419,198.28 v 9 h -1.089671 v -9 z m 1.452895,5.90039 v -0.13477 q 0,-1.37695 0.773315,-2.29687 0.773315,-0.92578 2.103183,-0.92578 1.341585,0 2.1149,0.92578 0.779173,0.91992 0.779173,2.29687 v 0.13477 q 0,1.37695 -0.779173,2.29687 -0.773315,0.91993 -2.103183,0.91993 -1.335726,0 -2.1149,-0.91993 -0.773315,-0.91992 -0.773315,-2.29687 z m 1.083813,-0.13477 v 0.13477 q 0,0.94336 0.445242,1.63477 0.451101,0.6914 1.35916,0.6914 0.890484,0 1.341585,-0.6914 0.4511,-0.69141 0.4511,-1.63477 v -0.13477 q 0,-0.93164 -0.4511,-1.6289 -0.451101,-0.70313 -1.353302,-0.70313 -0.896342,0 -1.347443,0.70313 -0.445242,0.69726 -0.445242,1.6289 z"
       id="text15"
       style="font-size:12px;font-family:Roboto;text-anchor:end;fill:#4d4d4d"
       aria-label="Jaderné teplo" />
    <path
       d="m 46.917166,166.48485 v 0.53906 q 0,1.92188 -0.931464,3.01758 -0.931464,1.0957 -2.489763,1.0957 -1.51729,0 -2.478046,-1.0957 -0.960755,-1.0957 -0.960755,-3.01758 v -0.53906 q 0,-1.91602 0.954897,-3.01172 0.954897,-1.10156 2.472188,-1.10156 1.558298,0 2.495621,1.10156 0.937322,1.0957 0.937322,3.01172 z m -1.118928,0.53906 v -0.55078 q 0,-1.52344 -0.60926,-2.33203 -0.60926,-0.8086 -1.704755,-0.8086 -1.04863,0 -1.681322,0.8086 -0.626834,0.80859 -0.626834,2.33203 v 0.55078 q 0,1.53516 0.632692,2.34961 0.638551,0.80859 1.68718,0.80859 1.101354,0 1.698897,-0.80859 0.603402,-0.81445 0.603402,-2.34961 z m 6.731146,3.99609 -0.05272,-0.67968 q -0.650268,0.79687 -1.810204,0.79687 -1.118929,0 -1.810204,-0.91406 -0.685417,-0.91406 -0.685417,-2.30274 v -0.12304 q 0,-1.45313 0.685417,-2.34375 0.691275,-0.89063 1.82192,-0.89063 1.118929,0 1.75748,0.75 V 162.02 h 1.089637 v 9 z m -3.268912,-3.09961 q 0,0.94336 0.398362,1.62305 0.398362,0.67383 1.277102,0.67383 0.568252,0 0.925606,-0.25781 0.357354,-0.25782 0.57411,-0.66211 v -2.91797 q -0.210898,-0.39258 -0.57411,-0.64453 -0.357354,-0.25781 -0.91389,-0.25781 -0.884598,0 -1.288818,0.6914 -0.398362,0.68555 -0.398362,1.62891 z m 8.840122,3.2168 q -1.142361,0 -1.810203,-0.73242 v 3.05273 h -1.089638 v -8.77734 h 0.995905 l 0.05273,0.69727 q 0.667842,-0.81446 1.833637,-0.81446 1.200944,0 1.839495,0.89063 0.638551,0.89062 0.638551,2.34375 v 0.12304 q 0,1.38868 -0.64441,2.30274 -0.63855,0.91406 -1.816062,0.91406 z m -0.333921,-5.66015 q -0.550677,0 -0.908031,0.25195 -0.357354,0.24609 -0.568251,0.62109 v 3.03516 q 0.216755,0.375 0.568251,0.62109 0.357354,0.24024 0.919748,0.24024 0.87874,0 1.28296,-0.69141 0.410078,-0.69141 0.410078,-1.63477 v -0.12304 q 0,-0.94336 -0.410078,-1.62891 -0.40422,-0.6914 -1.294677,-0.6914 z m 8.090263,5.54296 q -0.105449,-0.22851 -0.152315,-0.66796 -0.30463,0.32226 -0.761575,0.55664 -0.456944,0.22851 -1.042771,0.22851 -0.972472,0 -1.558298,-0.54492 -0.585827,-0.54492 -0.585827,-1.33594 0,-1.01953 0.773291,-1.54687 0.773291,-0.53321 2.079684,-0.53321 h 1.072063 v -0.5039 q 0,-0.5625 -0.33978,-0.89649 -0.333921,-0.33984 -0.995905,-0.33984 -0.615117,0 -0.995905,0.30469 -0.374929,0.29883 -0.374929,0.69726 H 61.89089 q 0,-0.67968 0.685417,-1.27734 0.685417,-0.59766 1.833637,-0.59766 1.031055,0 1.693039,0.52735 0.661984,0.52734 0.661984,1.59375 v 2.95312 q 0,0.31641 0.05272,0.67383 0.05858,0.35742 0.16989,0.61523 v 0.0937 z m -1.798488,-0.83203 q 0.585827,0 1.01348,-0.29297 0.433512,-0.29296 0.60926,-0.65039 v -1.30664 h -0.896315 q -1.939085,0 -1.939085,1.17188 0,0.45117 0.304629,0.76758 0.30463,0.31054 0.908031,0.31054 z m 8.500343,0.83203 -0.05272,-0.67968 q -0.650267,0.79687 -1.810204,0.79687 -1.118928,0 -1.810204,-0.91406 -0.685417,-0.91406 -0.685417,-2.30274 v -0.12304 q 0,-1.45313 0.685417,-2.34375 0.691276,-0.89063 1.821921,-0.89063 1.118928,0 1.757479,0.75 V 162.02 h 1.089638 v 9 z m -3.268911,-3.09961 q 0,0.94336 0.398362,1.62305 0.398362,0.67383 1.277101,0.67383 0.568252,0 0.925606,-0.25781 0.357354,-0.25782 0.57411,-0.66211 v -2.91797 q -0.210897,-0.39258 -0.57411,-0.64453 -0.357354,-0.25781 -0.913889,-0.25781 -0.884598,0 -1.288818,0.6914 -0.398362,0.68555 -0.398362,1.62891 z"
       id="text16"
       style="font-size:12px;font-family:Roboto;text-anchor:end;fill:#4d4d4d"
       aria-label="Odpad" />
    <path
       d="m 7.5575864,130.23485 v 0.53906 q 0,1.92188 -0.9315165,3.01758 -0.9315164,1.0957 -2.4899025,1.0957 -1.5173758,0 -2.4781853,-1.0957 -0.9608094,-1.0957 -0.9608094,-3.01758 v -0.53906 q 0,-1.91602 0.9549508,-3.01172 0.9549509,-1.10156 2.4723267,-1.10156 1.5583861,0 2.4957611,1.10156 0.9373751,1.0957 0.9373751,3.01172 z m -1.1189915,0.53906 v -0.55078 q 0,-1.52344 -0.6092938,-2.33203 -0.6092938,-0.8086 -1.7048509,-0.8086 -1.0486883,0 -1.6814165,0.8086 -0.6268695,0.80859 -0.6268695,2.33203 v 0.55078 q 0,1.53516 0.6327281,2.34961 0.6385868,0.80859 1.6872751,0.80859 1.1014157,0 1.6989923,-0.80859 0.6034352,-0.81445 0.6034352,-2.34961 z m 6.7315241,3.99609 -0.05273,-0.67968 q -0.650304,0.79687 -1.810306,0.79687 -1.118991,0 -1.8103052,-0.91406 -0.6854555,-0.91406 -0.6854555,-2.30274 v -0.12304 q 0,-1.45313 0.6854555,-2.34375 0.6913142,-0.89063 1.8220232,-0.89063 1.118991,0 1.757578,0.75 V 125.77 h 1.089698 v 9 z m -3.2690952,-3.09961 q 0,0.94336 0.3983842,1.62305 0.398385,0.67383 1.277174,0.67383 0.568283,0 0.925658,-0.25781 0.357374,-0.25782 0.574142,-0.66211 v -2.91797 q -0.21091,-0.39258 -0.574142,-0.64453 -0.357375,-0.25781 -0.913941,-0.25781 -0.884648,0 -1.288891,0.6914 -0.3983842,0.68555 -0.3983842,1.62891 z m 8.8406182,3.2168 q -1.142426,0 -1.810306,-0.73242 v 3.05273 h -1.089698 v -8.77734 h 0.995961 l 0.05273,0.69727 q 0.66788,-0.81446 1.83374,-0.81446 1.201012,0 1.839599,0.89063 0.638587,0.89062 0.638587,2.34375 v 0.12304 q 0,1.38868 -0.644446,2.30274 -0.638587,0.91406 -1.816164,0.91406 z m -0.33394,-5.66015 q -0.550708,0 -0.908082,0.25195 -0.357374,0.24609 -0.568284,0.62109 v 3.03516 q 0.216768,0.375 0.568284,0.62109 0.357374,0.24024 0.919799,0.24024 0.878789,0 1.283032,-0.69141 0.410102,-0.69141 0.410102,-1.63477 v -0.12304 q 0,-0.94336 -0.410102,-1.62891 -0.404243,-0.6914 -1.294749,-0.6914 z M 26.49842,134.77 q -0.105454,-0.22851 -0.152323,-0.66796 -0.304647,0.32226 -0.761617,0.55664 -0.456971,0.22851 -1.04283,0.22851 -0.972527,0 -1.558386,-0.54492 -0.58586,-0.54492 -0.58586,-1.33594 0,-1.01953 0.773335,-1.54687 0.773334,-0.53321 2.079801,-0.53321 h 1.072122 v -0.5039 q 0,-0.5625 -0.339798,-0.89649 -0.33394,-0.33984 -0.995961,-0.33984 -0.615152,0 -0.995961,0.30469 -0.37495,0.29883 -0.37495,0.69726 h -1.08384 q 0,-0.67968 0.685456,-1.27734 0.685455,-0.59766 1.83374,-0.59766 1.031112,0 1.693133,0.52735 0.662021,0.52734 0.662021,1.59375 v 2.95312 q 0,0.31641 0.05273,0.67383 0.05859,0.35742 0.169899,0.61523 v 0.0937 z m -1.798588,-0.83203 q 0.585859,0 1.013537,-0.29297 0.433536,-0.29296 0.609293,-0.65039 v -1.30664 h -0.896364 q -1.939195,0 -1.939195,1.17188 0,0.45117 0.304647,0.76758 0.304647,0.31054 0.908082,0.31054 z m 8.50082,0.83203 -0.05273,-0.67968 q -0.650304,0.79687 -1.810306,0.79687 -1.118991,0 -1.810305,-0.91406 -0.685456,-0.91406 -0.685456,-2.30274 v -0.12304 q 0,-1.45313 0.685456,-2.34375 0.691314,-0.89063 1.822022,-0.89063 1.118992,0 1.757579,0.75 V 125.77 h 1.089698 v 9 z m -3.269095,-3.09961 q 0,0.94336 0.398384,1.62305 0.398384,0.67383 1.277174,0.67383 0.568283,0 0.925657,-0.25781 0.357375,-0.25782 0.574143,-0.66211 v -2.91797 q -0.21091,-0.39258 -0.574143,-0.64453 -0.357374,-0.25781 -0.91394,-0.25781 -0.884648,0 -1.288891,0.6914 -0.398384,0.68555 -0.398384,1.62891 z m 8.576981,-2.44335 q -0.521415,0 -0.919799,0.28125 -0.398385,0.28125 -0.62687,0.73242 V 134.77 h -1.08384 v -6.33984 h 1.025254 l 0.03515,0.79102 q 0.720607,-0.90821 1.892326,-0.90821 0.937375,0 1.482224,0.52735 0.550708,0.52734 0.550708,1.77539 V 134.77 h -1.089699 v -4.16601 q 0,-0.74414 -0.328081,-1.06055 -0.322222,-0.3164 -0.937375,-0.3164 z m 5.167282,-0.79688 V 134.77 h -1.08384 v -6.33984 z m -1.118991,-0.92578 1.136567,-1.72266 h 1.306466 l -1.570103,1.72266 z M 51.13381,134.77 q -0.128889,0.041 -0.339799,0.0762 -0.205051,0.041 -0.49798,0.041 -0.603436,0 -1.031113,-0.36914 -0.427677,-0.36914 -0.427677,-1.32422 v -3.93164 h -1.160002 v -0.83203 h 1.160002 v -1.54101 h 1.08384 v 1.54101 h 1.183436 v 0.83203 h -1.183436 v 3.9375 q 0,0.48633 0.210909,0.6211 0.210909,0.13476 0.486263,0.13476 0.134748,0 0.281213,-0.0234 0.152323,-0.0293 0.228485,-0.0469 z m 6.256979,-1.10742 q -0.310506,0.46875 -0.878789,0.84961 -0.568284,0.375 -1.505659,0.375 -1.324042,0 -2.120811,-0.86133 -0.79091,-0.86132 -0.79091,-2.20312 v -0.2461 q 0,-1.0371 0.392525,-1.76367 0.398385,-0.73242 1.031113,-1.11328 0.632728,-0.38672 1.347477,-0.38672 1.359193,0 1.980204,0.89063 0.62687,0.88476 0.62687,2.21484 v 0.48633 h -4.288491 q 0.02343,0.87305 0.515556,1.48828 0.497981,0.60938 1.365053,0.60938 0.574142,0 0.972526,-0.23438 0.398385,-0.23437 0.697173,-0.62695 z m -2.525054,-4.45898 q -0.644446,0 -1.089699,0.46875 -0.445253,0.46875 -0.556566,1.34765 h 3.169499 v -0.082 q -0.04101,-0.63281 -0.369091,-1.18359 -0.322223,-0.55078 -1.154143,-0.55078 z m 6.766673,5.68359 q -1.142426,0 -1.810305,-0.73242 v 3.05273 h -1.089699 v -8.77734 h 0.995961 l 0.05273,0.69727 q 0.66788,-0.81446 1.83374,-0.81446 1.201012,0 1.839599,0.89063 0.638587,0.89062 0.638587,2.34375 v 0.12304 q 0,1.38868 -0.644446,2.30274 -0.638586,0.91406 -1.816164,0.91406 z m -0.33394,-5.66015 q -0.550708,0 -0.908082,0.25195 -0.357374,0.24609 -0.568283,0.62109 v 3.03516 q 0.216768,0.375 0.568283,0.62109 0.357374,0.24024 0.919799,0.24024 0.87879,0 1.283033,-0.69141 0.410101,-0.69141 0.410101,-1.63477 v -0.12304 q 0,-0.94336 -0.410101,-1.62891 -0.404243,-0.6914 -1.29475,-0.6914 z M 66.653221,125.77 v 9 h -1.089698 v -9 z m 1.452931,5.90039 v -0.13476 q 0,-1.37695 0.773335,-2.29688 0.773334,-0.92578 2.103235,-0.92578 1.341618,0 2.114952,0.92578 0.779193,0.91993 0.779193,2.29688 v 0.13476 q 0,1.37696 -0.779193,2.29688 -0.773334,0.91992 -2.103235,0.91992 -1.335759,0 -2.114952,-0.91992 -0.773335,-0.91992 -0.773335,-2.29688 z m 1.08384,-0.13476 v 0.13476 q 0,0.94336 0.445253,1.63477 0.451112,0.69141 1.359194,0.69141 0.890506,0 1.341618,-0.69141 0.451112,-0.69141 0.451112,-1.63477 v -0.13476 q 0,-0.93164 -0.451112,-1.62891 -0.451112,-0.70312 -1.353335,-0.70312 -0.896365,0 -1.347477,0.70312 -0.445253,0.69727 -0.445253,1.62891 z"
       id="text17"
       style="font-size:12px;font-family:Roboto;text-anchor:end;fill:#4d4d4d"
       aria-label="Odpadní teplo" />
    <path
       d="m 34.179805,89.579063 q 0,1.195313 -0.77377,1.828125 -0.767908,0.632813 -2.045802,0.632813 h -2.989568 v -8.53125 h 2.796125 q 1.313065,0 2.045802,0.544922 0.738599,0.539062 0.738599,1.728515 0,0.591797 -0.33999,1.054688 -0.334128,0.457031 -0.920317,0.708984 0.721013,0.199219 1.102036,0.75586 0.386885,0.55664 0.386885,1.277343 z m -4.677793,-5.144531 v 2.707031 h 1.69995 q 0.726875,0 1.172379,-0.363281 0.445504,-0.363281 0.445504,-1.007812 0,-1.335938 -1.653055,-1.335938 z m 3.552309,5.15625 q 0,-0.714844 -0.392747,-1.125 -0.386885,-0.416016 -1.248584,-0.416016 h -1.910978 v 3.070313 h 1.858221 q 0.80308,0 1.248584,-0.410156 0.445504,-0.416016 0.445504,-1.119141 z m 2.637854,-5.572266 q 0,-0.263671 0.158271,-0.445312 0.164133,-0.181641 0.480676,-0.181641 0.31068,0 0.474813,0.181641 0.169995,0.181641 0.169995,0.445312 0,0.251954 -0.169995,0.433594 -0.164133,0.175781 -0.474813,0.175781 -0.316543,0 -0.480676,-0.175781 -0.158271,-0.18164 -0.158271,-0.433594 z m 1.172379,1.681641 v 6.339844 h -1.090313 v -6.339844 z m 1.453751,3.240234 v -0.134765 q 0,-1.376953 0.773771,-2.296875 0.77377,-0.925781 2.104421,-0.925781 1.342374,0 2.116145,0.925781 0.779632,0.919922 0.779632,2.296875 v 0.134765 q 0,1.376954 -0.779632,2.296876 -0.773771,0.919921 -2.104421,0.919921 -1.336513,0 -2.116145,-0.919921 -0.773771,-0.919922 -0.773771,-2.296876 z m 1.084451,-0.134765 v 0.134765 q 0,0.94336 0.445504,1.634766 0.451366,0.691406 1.359961,0.691406 0.891008,0 1.342374,-0.691406 0.451366,-0.691406 0.451366,-1.634766 v -0.134765 q 0,-0.931641 -0.451366,-1.628906 -0.451366,-0.703125 -1.354098,-0.703125 -0.896871,0 -1.348237,0.703125 -0.445504,0.697265 -0.445504,1.628906 z m 8.587679,-2.308594 q -0.580328,0 -0.932042,0.246094 -0.351714,0.246094 -0.527571,0.65039 v 4.646485 h -1.090313 v -6.339844 h 1.031694 l 0.02931,0.691406 q 0.685842,-0.808593 1.875807,-0.808593 0.609637,0 1.084451,0.246093 0.480675,0.240235 0.732737,0.773438 0.316542,-0.457031 0.820665,-0.738281 0.509986,-0.28125 1.195827,-0.28125 1.019971,0 1.570989,0.544921 0.55688,0.544922 0.55688,1.746094 v 4.166016 h -1.090313 v -4.177735 q 0,-0.796875 -0.369299,-1.078125 -0.363438,-0.287109 -0.984799,-0.287109 -0.656532,0 -1.031694,0.392578 -0.375161,0.386719 -0.43378,0.94336 v 4.207031 h -1.084451 v -4.171875 q 0,-0.744141 -0.3693,-1.054688 -0.369299,-0.316406 -0.984798,-0.316406 z m 11.905513,5.542969 q -0.105514,-0.228516 -0.152409,-0.667969 -0.304819,0.322266 -0.762047,0.556641 -0.457228,0.228515 -1.043418,0.228515 -0.973075,0 -1.559264,-0.544921 -0.58619,-0.544922 -0.58619,-1.335938 0,-1.019531 0.77377,-1.546875 0.773771,-0.533203 2.080974,-0.533203 h 1.072727 v -0.503906 q 0,-0.5625 -0.33999,-0.896485 -0.334128,-0.339844 -0.996523,-0.339844 -0.615499,0 -0.996522,0.304688 -0.375161,0.298828 -0.375161,0.697266 h -1.084451 q 0,-0.679688 0.685842,-1.277344 0.685841,-0.597656 1.834773,-0.597656 1.031694,0 1.694089,0.527343 0.662394,0.527344 0.662394,1.59375 v 2.953125 q 0,0.316407 0.05276,0.673829 0.05862,0.357421 0.169995,0.615234 v 0.09375 z M 58.096345,91.20797 q 0.58619,0 1.014109,-0.292969 0.43378,-0.292969 0.609637,-0.650391 v -1.30664 h -0.89687 q -1.940288,0 -1.940288,1.171875 0,0.451172 0.304818,0.767578 0.304819,0.310547 0.908594,0.310547 z m 8.107004,-0.84961 q 0,-0.351562 -0.263785,-0.626953 -0.257924,-0.28125 -1.195827,-0.46875 -1.061004,-0.222656 -1.676503,-0.632812 -0.609637,-0.410157 -0.609637,-1.195313 0,-0.75 0.638947,-1.300781 0.644808,-0.550781 1.711674,-0.550781 1.137208,0 1.776154,0.580078 0.638947,0.580078 0.638947,1.40039 h -1.084451 q 0,-0.392578 -0.345852,-0.738281 -0.345852,-0.351562 -0.984798,-0.351562 -0.674119,0 -0.967213,0.292968 -0.293095,0.292969 -0.293095,0.638672 0,0.351563 0.281371,0.56836 0.281371,0.210937 1.178241,0.410156 1.166518,0.269531 1.723398,0.697266 0.55688,0.427734 0.55688,1.195312 0,0.837891 -0.674118,1.359375 -0.668256,0.521484 -1.776155,0.521484 -1.260308,0 -1.928564,-0.644531 -0.668256,-0.644531 -0.668256,-1.429687 h 1.090313 q 0.03517,0.673828 0.515846,0.93164 0.486538,0.251953 0.990661,0.251953 0.662394,0 1.014108,-0.257812 0.351714,-0.257813 0.351714,-0.650391 z m 6.418778,1.681641 q -0.105514,-0.228516 -0.152409,-0.667969 -0.304819,0.322266 -0.762047,0.556641 -0.457228,0.228515 -1.043418,0.228515 -0.973075,0 -1.559264,-0.544921 -0.58619,-0.544922 -0.58619,-1.335938 0,-1.019531 0.77377,-1.546875 0.773771,-0.533203 2.080974,-0.533203 h 1.072727 v -0.503906 q 0,-0.5625 -0.33999,-0.896485 -0.334128,-0.339844 -0.996522,-0.339844 -0.6155,0 -0.996523,0.304688 -0.375161,0.298828 -0.375161,0.697266 h -1.084451 q 0,-0.679688 0.685842,-1.277344 0.685842,-0.597656 1.834773,-0.597656 1.031694,0 1.694089,0.527343 0.662394,0.527344 0.662394,1.59375 v 2.953125 q 0,0.316407 0.05276,0.673829 0.05862,0.357421 0.169995,0.615234 v 0.09375 z M 70.822525,91.20797 q 0.586189,0 1.014108,-0.292969 0.43378,-0.292969 0.609637,-0.650391 V 88.95797 H 71.5494 q -1.940288,0 -1.940288,1.171875 0,0.451172 0.304819,0.767578 0.304818,0.310547 0.908594,0.310547 z"
       id="text18"
       style="font-size:12px;font-family:Roboto;text-anchor:end;fill:#4d4d4d"
       aria-label="Biomasa" />
    <path
       d="m 31.180747,105 q -0.105481,-0.22852 -0.152361,-0.66797 -0.30472,0.32227 -0.7618,0.55664 -0.457081,0.22852 -1.043081,0.22852 -0.972761,0 -1.558762,-0.54492 -0.586,-0.54493 -0.586,-1.33594 0,-1.01953 0.773521,-1.54688 0.77352,-0.5332 2.080301,-0.5332 h 1.072381 v -0.50391 q 0,-0.5625 -0.33988,-0.896481 -0.33402,-0.339843 -0.996201,-0.339843 -0.6153,0 -0.996201,0.304687 -0.37504,0.298827 -0.37504,0.697267 h -1.084101 q 0,-0.679689 0.685621,-1.277345 0.68562,-0.597656 1.834181,-0.597656 1.031361,0 1.693542,0.527344 0.66218,0.527343 0.66218,1.593747 v 2.95313 q 0,0.3164 0.05274,0.67383 0.0586,0.35742 0.16994,0.61523 V 105 Z m -1.799022,-0.83203 q 0.586,0 1.013781,-0.29297 0.43364,-0.29297 0.60944,-0.65039 v -1.30664 h -0.89658 q -1.939662,0 -1.939662,1.17187 0,0.45118 0.30472,0.76758 0.30472,0.31055 0.908301,0.31055 z m 12.757231,-2.26758 q 0,1.38867 -0.6446,2.30274 -0.644601,0.91406 -1.822462,0.91406 -1.201301,0 -1.851761,-0.84961 L 37.761533,105 h -0.996201 v -9 h 1.089961 v 3.345703 q 0.6446,-0.802734 1.804881,-0.802734 1.195441,0 1.834182,0.890625 0.6446,0.890626 0.6446,2.343746 z m -2.748342,-2.443359 q -0.591861,0 -0.961041,0.28711 -0.36918,0.281249 -0.57428,0.697269 v 2.75976 q 0.21096,0.42188 0.586,0.70899 0.37504,0.28711 0.961041,0.28711 0.879001,0 1.259901,-0.67383 0.38676,-0.67969 0.38676,-1.62305 v -0.12305 q 0,-0.94336 -0.36918,-1.6289 -0.36332,-0.691409 -1.289201,-0.691409 z m 4.125444,-2.478515 q 0,-0.263672 0.15822,-0.445313 0.16408,-0.18164 0.48052,-0.18164 0.310581,0 0.474661,0.18164 0.16994,0.181641 0.16994,0.445313 0,0.251953 -0.16994,0.433593 -0.16408,0.175782 -0.474661,0.175782 -0.31644,0 -0.48052,-0.175782 -0.15822,-0.18164 -0.15822,-0.433593 z m 1.172001,1.68164 V 105 h -1.089961 v -6.339844 z m 1.45328,3.240234 v -0.13476 q 0,-1.37696 0.773521,-2.29688 0.77352,-0.925781 2.103742,-0.925781 1.341941,0 2.115461,0.925781 0.779381,0.91992 0.779381,2.29688 v 0.13476 q 0,1.37695 -0.779381,2.29688 -0.77352,0.91992 -2.103741,0.91992 -1.336082,0 -2.115462,-0.91992 -0.773521,-0.91993 -0.773521,-2.29688 z m 1.084101,-0.13476 v 0.13476 q 0,0.94336 0.44536,1.63477 0.451221,0.6914 1.359522,0.6914 0.89072,0 1.341941,-0.6914 0.45122,-0.69141 0.45122,-1.63477 v -0.13476 q 0,-0.93165 -0.45122,-1.62891 -0.451221,-0.703126 -1.353661,-0.703126 -0.896581,0 -1.347802,0.703126 -0.44536,0.69726 -0.44536,1.62891 z m 8.942368,3.35156 q -1.142701,0 -1.810741,-0.73242 v 3.05273 h -1.089961 v -8.777344 h 0.9962 l 0.05274,0.697266 q 0.668041,-0.814453 1.834182,-0.814453 1.201301,0 1.840042,0.890625 0.63874,0.890626 0.63874,2.343746 v 0.12305 q 0,1.38867 -0.6446,2.30274 -0.638741,0.91406 -1.816602,0.91406 z m -0.33402,-5.660159 q -0.550841,0 -0.908301,0.251953 -0.35746,0.246094 -0.56842,0.621096 v 3.03515 q 0.21682,0.375 0.56842,0.6211 0.35746,0.24023 0.920021,0.24023 0.879001,0 1.283341,-0.6914 0.4102,-0.69141 0.4102,-1.63477 v -0.12305 q 0,-0.94336 -0.4102,-1.6289 -0.40434,-0.691409 -1.295061,-0.691409 z M 61.189833,96 v 9 h -1.089961 v -9 z m 3.902762,9.97852 q -0.1172,0.31054 -0.33988,0.67968 -0.22268,0.375 -0.597721,0.63867 -0.36918,0.26368 -0.943461,0.26368 -0.13478,0 -0.33402,-0.0352 -0.19338,-0.0293 -0.27542,-0.0586 l -0.0059,-0.87891 q 0.12892,0.0234 0.293,0.0234 0.550841,0 0.861421,-0.22852 0.31058,-0.22265 0.50982,-0.80859 l 0.234401,-0.64453 -2.261962,-6.269534 h 1.183721 l 1.588061,4.746094 1.470861,-4.746094 h 1.160281 z m 6.147145,-6.521489 q -0.52154,0 -0.920021,0.28125 -0.39848,0.281249 -0.62702,0.732419 V 105 h -1.084101 v -6.339844 h 1.025501 l 0.03516,0.791016 q 0.72078,-0.908203 1.892781,-0.908203 0.937601,0 1.482582,0.527344 0.55084,0.527343 0.55084,1.775387 V 105 h -1.089961 v -4.16602 q 0,-0.74414 -0.32816,-1.060542 -0.3223,-0.316407 -0.937601,-0.316407 z"
       id="text19"
       style="font-size:12px;font-family:Roboto;text-anchor:end;fill:#4d4d4d"
       aria-label="a bioplyn" />
    <path
       d="m 16.515859,54.664532 v -0.925781 h 5.940564 v 0.820312 l -4.686836,6.791016 h 4.87431 V 62.27 h -6.204199 v -0.84375 l 4.675119,-6.761718 z m 12.32052,6.498047 q -0.310503,0.46875 -0.878782,0.849609 -0.568279,0.375 -1.505646,0.375 -1.324031,0 -2.120793,-0.861328 -0.790904,-0.861328 -0.790904,-2.203125 v -0.246094 q 0,-1.037109 0.392523,-1.763672 0.398381,-0.732422 1.031104,-1.113281 0.632723,-0.386719 1.347465,-0.386719 1.359183,0 1.980188,0.890625 0.626865,0.884766 0.626865,2.214844 v 0.486328 h -4.288455 q 0.02343,0.873047 0.515552,1.488281 0.497976,0.609375 1.365041,0.609375 0.574137,0 0.972518,-0.234375 0.398381,-0.234375 0.697167,-0.626953 z m -2.525033,-4.458985 q -0.64444,0 -1.089689,0.46875 -0.44525,0.46875 -0.556562,1.347657 h 3.169473 v -0.08203 q -0.04101,-0.632812 -0.369089,-1.183593 -0.32222,-0.550782 -1.154133,-0.550782 z m 6.409249,0.02344 q -0.579996,0 -0.931509,0.246094 -0.351512,0.246093 -0.527269,0.65039 V 62.27 h -1.089689 v -6.339843 h 1.031104 l 0.02929,0.691406 q 0.68545,-0.808594 1.874735,-0.808594 0.609289,0 1.083831,0.246094 0.4804,0.240234 0.732318,0.773438 0.316361,-0.457032 0.820196,-0.738282 0.509694,-0.28125 1.195143,-0.28125 1.019387,0 1.570091,0.544922 0.556561,0.544922 0.556561,1.746094 V 62.27 H 37.97571 v -4.177734 q 0,-0.796875 -0.369088,-1.078125 -0.36323,-0.287109 -0.984236,-0.287109 -0.656157,0 -1.031104,0.392578 -0.374947,0.386719 -0.433532,0.943359 V 62.27 h -1.083831 v -4.171874 q 0,-0.744141 -0.369088,-1.054688 -0.369089,-0.316406 -0.984236,-0.316406 z m 10.615683,0 q -0.521411,0 -0.919792,0.28125 -0.398381,0.28125 -0.626864,0.732422 V 62.27 h -1.083831 v -6.339843 h 1.025245 l 0.03515,0.791015 q 0.720602,-0.908203 1.892311,-0.908203 0.937367,0 1.482212,0.527344 0.550703,0.527344 0.550703,1.775391 V 62.27 h -1.08969 v -4.166015 q 0,-0.744141 -0.328078,-1.060547 -0.32222,-0.316406 -0.937367,-0.316406 z m 5.167237,-0.796875 V 62.27 h -1.083831 v -6.339843 z m -1.118983,-0.925781 1.136558,-1.722657 h 1.306456 l -1.57009,1.722657 z m 8.787819,7.382812 q -1.142416,0 -1.81029,-0.732422 V 64.7075 h -1.08969 v -8.777343 h 0.995953 l 0.05273,0.697265 q 0.667874,-0.814453 1.833725,-0.814453 1.201001,0 1.839583,0.890625 0.638581,0.890625 0.638581,2.34375 v 0.123047 q 0,1.388672 -0.64444,2.302734 -0.638581,0.914063 -1.816149,0.914063 z m -0.333937,-5.660156 q -0.550703,0 -0.908074,0.251953 -0.357372,0.246094 -0.568279,0.621094 v 3.035156 q 0.216766,0.375 0.568279,0.621094 0.357371,0.240234 0.919791,0.240234 0.878782,0 1.283022,-0.691406 0.410098,-0.691406 0.410098,-1.634766 v -0.123047 q 0,-0.943359 -0.410098,-1.628906 -0.40424,-0.691406 -1.294739,-0.691406 z m 5.354711,-3.457031 V 62.27 h -1.089689 v -8.999999 z m 3.901789,9.978515 q -0.117171,0.310547 -0.339796,0.679688 -0.222625,0.375 -0.597572,0.638671 -0.369088,0.263672 -0.943225,0.263672 -0.134747,0 -0.333937,-0.03516 -0.193332,-0.0293 -0.275352,-0.05859 l -0.0059,-0.878906 q 0.128888,0.02344 0.292928,0.02344 0.550703,0 0.861206,-0.228516 0.310503,-0.222656 0.509693,-0.808594 l 0.234342,-0.644531 -2.261398,-6.269531 h 1.183426 l 1.587666,4.746093 1.470494,-4.746093 h 1.159992 z m 6.145617,-6.521484 q -0.521411,0 -0.919792,0.28125 -0.398381,0.28125 -0.626864,0.732422 V 62.27 h -1.083831 v -6.339843 h 1.025245 l 0.03515,0.791015 q 0.720601,-0.908203 1.89231,-0.908203 0.937367,0 1.482212,0.527344 0.550703,0.527344 0.550703,1.775391 V 62.27 h -1.08969 v -4.166015 q 0,-0.744141 -0.328078,-1.060547 -0.32222,-0.316406 -0.937367,-0.316406 z"
       id="text20"
       style="font-size:12px;font-family:Roboto;text-anchor:end;fill:#4d4d4d"
       aria-label="Zemní plyn" />
    <path
       d="m 60.001301,17.48875 h 1.125039 v 5.771485 q 0,1.441406 -0.925814,2.162109 -0.925813,0.714844 -2.168044,0.714844 -1.306686,0 -2.197342,-0.714844 -0.884796,-0.720703 -0.884796,-2.162109 V 17.48875 h 1.119179 v 5.771485 q 0,1.001953 0.539082,1.482422 0.54494,0.474609 1.423877,0.474609 0.890656,0 1.429737,-0.474609 0.539082,-0.480469 0.539082,-1.482422 z m 5.367374,2.988281 q -0.521503,0 -0.919954,0.281251 -0.398452,0.28125 -0.626975,0.732421 V 26.02 h -1.084022 v -9 h 1.084022 v 3.416016 q 0.720728,-0.873047 1.869205,-0.873047 0.937533,0 1.482474,0.527344 0.5508,0.527343 0.5508,1.77539 V 26.02 h -1.089881 v -4.166015 q 0,-0.744141 -0.328137,-1.060547 -0.322277,-0.316407 -0.937532,-0.316407 z M 70.525104,17.02 v 9 h -1.089882 v -9 z m 2.91221,2.660156 V 26.02 h -1.084022 v -6.339844 z m -1.11918,-0.925781 1.136759,-1.722656 h 1.306686 l -1.570367,1.722656 z"
       id="text21"
       style="font-size:12px;font-family:Roboto;text-anchor:end;fill:#4d4d4d"
       aria-label="Uhlí" />
    <path
       d="m 91.956084,231.33469 v 1.30078 q 0,2.09765 -0.727357,2.92969 -0.721491,0.83203 -1.965036,0.83203 -1.225948,0 -1.965037,-0.83203 -0.739088,-0.83204 -0.739088,-2.92969 v -1.30078 q 0,-2.0918 0.733223,-2.89454 0.733222,-0.80859 1.95917,-0.80859 1.243546,0 1.970903,0.80859 0.733222,0.80274 0.733222,2.89454 z m -1.091035,1.47656 v -1.6582 q 0,-1.44141 -0.410605,-2.03907 -0.410604,-0.59765 -1.202485,-0.59765 -0.774283,0 -1.190753,0.59765 -0.410605,0.59766 -0.410605,2.03907 v 1.6582 q 0,1.42969 0.416471,2.0625 0.422336,0.63281 1.196619,0.63281 0.797746,0 1.196619,-0.63281 0.404739,-0.63281 0.404739,-2.0625 z m 5.367189,-2.9707 v -0.45118 q 0,-0.72656 0.469263,-1.24218 0.469262,-0.52149 1.27874,-0.52149 0.821209,0 1.284606,0.52149 0.469262,0.51562 0.469262,1.24218 v 0.45118 q 0,0.71484 -0.463397,1.23632 -0.463396,0.51563 -1.27874,0.51563 -0.815343,0 -1.290471,-0.51563 -0.469263,-0.52148 -0.469263,-1.23632 z m 0.815344,-0.45118 v 0.45118 q 0,0.40429 0.228765,0.72656 0.234631,0.32226 0.715625,0.32226 0.469263,0 0.698028,-0.3164 0.228766,-0.32227 0.228766,-0.73242 v -0.45118 q 0,-0.41015 -0.234632,-0.73242 -0.228765,-0.32812 -0.703893,-0.32812 -0.469263,0 -0.703894,0.32812 -0.228765,0.32227 -0.228765,0.73242 z m 5.361328,-0.42773 -4.170575,6.66797 -0.610041,-0.38672 4.170566,-6.66797 z m -2.01783,5.68359 v -0.45703 q 0,-0.7207 0.46926,-1.23633 0.46926,-0.52148 1.27874,-0.52148 0.82121,0 1.28461,0.52148 0.46926,0.51563 0.46926,1.23633 v 0.45703 q 0,0.72071 -0.4634,1.24219 -0.4634,0.51563 -1.27874,0.51563 -0.82121,0 -1.29047,-0.51563 -0.46926,-0.52148 -0.46926,-1.24219 z m 0.81534,-0.45703 v 0.45703 q 0,0.41016 0.22877,0.73243 0.23463,0.32226 0.71562,0.32226 0.47513,0 0.70389,-0.31641 0.22877,-0.32226 0.22877,-0.73828 v -0.45703 q 0,-0.41601 -0.23463,-0.73242 -0.22877,-0.32227 -0.70976,-0.32227 -0.46926,0 -0.70389,0.32227 -0.22877,0.31641 -0.22877,0.73242 z"
       id="text22"
       style="font-size:12px;font-family:Roboto;text-anchor:middle;fill:#4d4d4d"
       aria-label="0 %" />
    <path
       d="M 137.5159,227.70187 V 236.28 h -1.0851 v -7.22461 l -2.18781,0.79687 v -0.97851 l 3.10282,-1.17188 z m 8.54593,3.63282 v 1.30078 q 0,2.09765 -0.72731,2.92969 -0.72145,0.83203 -1.96492,0.83203 -1.22587,0 -1.96492,-0.83203 -0.73904,-0.83204 -0.73904,-2.92969 v -1.30078 q 0,-2.0918 0.73318,-2.89454 0.73318,-0.80859 1.95905,-0.80859 1.24347,0 1.97079,0.80859 0.73317,0.80274 0.73317,2.89454 z m -1.09097,1.47656 v -1.6582 q 0,-1.44141 -0.41058,-2.03907 -0.41058,-0.59765 -1.20241,-0.59765 -0.77424,0 -1.19068,0.59765 -0.41058,0.59766 -0.41058,2.03907 v 1.6582 q 0,1.42969 0.41644,2.0625 0.42231,0.63281 1.19655,0.63281 0.7977,0 1.19655,-0.63281 0.40471,-0.63281 0.40471,-2.0625 z m 5.36687,-2.9707 v -0.45118 q 0,-0.72656 0.46924,-1.24218 0.46923,-0.52149 1.27866,-0.52149 0.82116,0 1.28453,0.52149 0.46923,0.51562 0.46923,1.24218 v 0.45118 q 0,0.71484 -0.46337,1.23632 -0.46336,0.51563 -1.27866,0.51563 -0.81529,0 -1.29039,-0.51563 -0.46924,-0.52148 -0.46924,-1.23632 z m 0.8153,-0.45118 v 0.45118 q 0,0.40429 0.22875,0.72656 0.23462,0.32226 0.71558,0.32226 0.46924,0 0.69799,-0.3164 0.22875,-0.32227 0.22875,-0.73242 v -0.45118 q 0,-0.41015 -0.23462,-0.73242 -0.22875,-0.32812 -0.70385,-0.32812 -0.46923,0 -0.70385,0.32812 -0.22875,0.32227 -0.22875,0.73242 z m 5.361,-0.42773 -4.17032,6.66797 -0.61001,-0.38672 4.17032,-6.66797 z m -2.01771,5.68359 v -0.45703 q 0,-0.7207 0.46924,-1.23633 0.46923,-0.52148 1.27866,-0.52148 0.82116,0 1.28453,0.52148 0.46923,0.51563 0.46923,1.23633 v 0.45703 q 0,0.72071 -0.46337,1.24219 -0.46336,0.51563 -1.27866,0.51563 -0.82116,0 -1.29039,-0.51563 -0.46924,-0.52148 -0.46924,-1.24219 z m 0.8153,-0.45703 v 0.45703 q 0,0.41016 0.22875,0.73243 0.23462,0.32226 0.71558,0.32226 0.4751,0 0.70385,-0.31641 0.22875,-0.32226 0.22875,-0.73828 v -0.45703 q 0,-0.41601 -0.23461,-0.73242 -0.22876,-0.32227 -0.70972,-0.32227 -0.46923,0 -0.70385,0.32227 -0.22875,0.31641 -0.22875,0.73242 z"
       id="text23"
       style="font-size:12px;font-family:Roboto;text-anchor:middle;fill:#4d4d4d"
       aria-label="10 %" />
    <path
       d="M 190.27534,235.38937 V 236.28 h -5.58976 v -0.7793 l 2.79781,-3.11133 q 0.77424,-0.86132 1.04405,-1.35351 0.26981,-0.49805 0.26981,-0.9961 0,-0.62695 -0.39299,-1.07226 -0.38711,-0.44531 -1.09683,-0.44531 -0.85635,0 -1.27866,0.48632 -0.42231,0.48633 -0.42231,1.24805 h -1.08511 q 0,-1.07812 0.70972,-1.85156 0.70971,-0.77344 2.07636,-0.77344 1.20828,0 1.88867,0.62695 0.68625,0.62696 0.68625,1.65235 0,0.75586 -0.4751,1.52344 -0.46923,0.76757 -1.12616,1.47656 l -2.28752,2.47851 z m 6.51649,-4.05468 v 1.30078 q 0,2.09765 -0.72731,2.92969 -0.72145,0.83203 -1.96492,0.83203 -1.22588,0 -1.96492,-0.83203 -0.73905,-0.83204 -0.73905,-2.92969 v -1.30078 q 0,-2.0918 0.73318,-2.89454 0.73318,-0.80859 1.95906,-0.80859 1.24347,0 1.97078,0.80859 0.73318,0.80274 0.73318,2.89454 z m -1.09097,1.47656 v -1.6582 q 0,-1.44141 -0.41058,-2.03907 -0.41058,-0.59765 -1.20241,-0.59765 -0.77424,0 -1.19069,0.59765 -0.41058,0.59766 -0.41058,2.03907 v 1.6582 q 0,1.42969 0.41645,2.0625 0.42231,0.63281 1.19655,0.63281 0.7977,0 1.19654,-0.63281 0.40472,-0.63281 0.40472,-2.0625 z m 5.36687,-2.9707 v -0.45118 q 0,-0.72656 0.46923,-1.24218 0.46924,-0.52149 1.27867,-0.52149 0.82116,0 1.28452,0.52149 0.46924,0.51562 0.46924,1.24218 v 0.45118 q 0,0.71484 -0.46337,1.23632 -0.46337,0.51563 -1.27866,0.51563 -0.8153,0 -1.2904,-0.51563 -0.46923,-0.52148 -0.46923,-1.23632 z m 0.81529,-0.45118 v 0.45118 q 0,0.40429 0.22875,0.72656 0.23462,0.32226 0.71559,0.32226 0.46923,0 0.69798,-0.3164 0.22875,-0.32227 0.22875,-0.73242 v -0.45118 q 0,-0.41015 -0.23461,-0.73242 -0.22875,-0.32812 -0.70385,-0.32812 -0.46924,0 -0.70386,0.32812 -0.22875,0.32227 -0.22875,0.73242 z m 5.361,-0.42773 -4.17032,6.66797 -0.61,-0.38672 4.17032,-6.66797 z m -2.0177,5.68359 v -0.45703 q 0,-0.7207 0.46923,-1.23633 0.46924,-0.52148 1.27867,-0.52148 0.82116,0 1.28452,0.52148 0.46924,0.51563 0.46924,1.23633 v 0.45703 q 0,0.72071 -0.46337,1.24219 -0.46337,0.51563 -1.27866,0.51563 -0.82116,0 -1.2904,-0.51563 -0.46923,-0.52148 -0.46923,-1.24219 z m 0.81529,-0.45703 v 0.45703 q 0,0.41016 0.22875,0.73243 0.23462,0.32226 0.71559,0.32226 0.4751,0 0.70385,-0.31641 0.22875,-0.32226 0.22875,-0.73828 v -0.45703 q 0,-0.41601 -0.23462,-0.73242 -0.22875,-0.32227 -0.70971,-0.32227 -0.46924,0 -0.70386,0.32227 -0.22875,0.31641 -0.22875,0.73242 z"
       id="text24"
       style="font-size:12px;font-family:Roboto;text-anchor:middle;fill:#4d4d4d"
       aria-label="20 %" />
    <path
       d="m 237.75762,232.3718 h -0.77424 v -0.89063 h 0.77424 q 0.85049,0 1.26693,-0.41602 0.41645,-0.41601 0.41645,-1.04296 0,-1.5 -1.48982,-1.5 -0.69212,0 -1.1203,0.39843 -0.42817,0.39258 -0.42817,1.06055 h -1.08511 q 0,-0.97852 0.72145,-1.66406 0.72731,-0.68555 1.91213,-0.68555 1.15549,0 1.86521,0.61524 0.71558,0.60937 0.71558,1.79882 0,0.47461 -0.3226,1.01368 -0.31673,0.53906 -1.02058,0.83789 0.85048,0.27539 1.16135,0.84961 0.31087,0.57421 0.31087,1.15429 0,1.19532 -0.77424,1.84571 -0.77423,0.65039 -1.92972,0.65039 -1.11444,0 -1.91213,-0.61524 -0.7977,-0.62109 -0.7977,-1.75781 h 1.0851 q 0,0.67383 0.43404,1.07812 0.43991,0.4043 1.19069,0.4043 0.74491,0 1.17895,-0.39258 0.43404,-0.39257 0.43404,-1.18945 0,-0.79687 -0.4927,-1.17187 -0.49269,-0.38086 -1.31972,-0.38086 z m 9.75421,-1.03711 v 1.30078 q 0,2.09765 -0.72731,2.92969 -0.72145,0.83203 -1.96492,0.83203 -1.22588,0 -1.96492,-0.83203 -0.73904,-0.83204 -0.73904,-2.92969 v -1.30078 q 0,-2.0918 0.73317,-2.89454 0.73318,-0.80859 1.95906,-0.80859 1.24347,0 1.97078,0.80859 0.73318,0.80274 0.73318,2.89454 z m -1.09097,1.47656 v -1.6582 q 0,-1.44141 -0.41058,-2.03907 -0.41058,-0.59765 -1.20241,-0.59765 -0.77424,0 -1.19068,0.59765 -0.41058,0.59766 -0.41058,2.03907 v 1.6582 q 0,1.42969 0.41644,2.0625 0.42231,0.63281 1.19655,0.63281 0.7977,0 1.19655,-0.63281 0.40471,-0.63281 0.40471,-2.0625 z m 5.36687,-2.9707 v -0.45118 q 0,-0.72656 0.46923,-1.24218 0.46924,-0.52149 1.27867,-0.52149 0.82116,0 1.28453,0.52149 0.46923,0.51562 0.46923,1.24218 v 0.45118 q 0,0.71484 -0.46337,1.23632 -0.46337,0.51563 -1.27866,0.51563 -0.8153,0 -1.2904,-0.51563 -0.46923,-0.52148 -0.46923,-1.23632 z m 0.81529,-0.45118 v 0.45118 q 0,0.40429 0.22876,0.72656 0.23461,0.32226 0.71558,0.32226 0.46923,0 0.69798,-0.3164 0.22876,-0.32227 0.22876,-0.73242 v -0.45118 q 0,-0.41015 -0.23462,-0.73242 -0.22875,-0.32812 -0.70385,-0.32812 -0.46924,0 -0.70385,0.32812 -0.22876,0.32227 -0.22876,0.73242 z m 5.36101,-0.42773 -4.17032,6.66797 -0.61001,-0.38672 4.17032,-6.66797 z m -2.01771,5.68359 v -0.45703 q 0,-0.7207 0.46923,-1.23633 0.46924,-0.52148 1.27867,-0.52148 0.82116,0 1.28453,0.52148 0.46923,0.51563 0.46923,1.23633 v 0.45703 q 0,0.72071 -0.46337,1.24219 -0.46337,0.51563 -1.27866,0.51563 -0.82116,0 -1.2904,-0.51563 -0.46923,-0.52148 -0.46923,-1.24219 z m 0.81529,-0.45703 v 0.45703 q 0,0.41016 0.22875,0.73243 0.23462,0.32226 0.71559,0.32226 0.4751,0 0.70385,-0.31641 0.22875,-0.32226 0.22875,-0.73828 v -0.45703 q 0,-0.41601 -0.23462,-0.73242 -0.22875,-0.32227 -0.70971,-0.32227 -0.46924,0 -0.70386,0.32227 -0.22875,0.31641 -0.22875,0.73242 z"
       id="text25"
       style="font-size:12px;font-family:Roboto;text-anchor:middle;fill:#4d4d4d"
       aria-label="30 %" />
    <path
       d="m 285.73086,233.66086 3.82427,-5.91211 h 1.15548 v 5.66016 h 1.19069 v 0.89062 h -1.19069 V 236.28 h -1.0851 v -1.98047 h -3.89465 z m 1.23175,-0.25195 h 2.6629 v -4.18946 l -0.1349,0.24024 z m 11.27922,-2.07422 v 1.30078 q 0,2.09765 -0.72732,2.92969 -0.72144,0.83203 -1.96492,0.83203 -1.22587,0 -1.96491,-0.83203 -0.73905,-0.83204 -0.73905,-2.92969 v -1.30078 q 0,-2.0918 0.73318,-2.89454 0.73318,-0.80859 1.95905,-0.80859 1.24347,0 1.97079,0.80859 0.73318,0.80274 0.73318,2.89454 z m -1.09097,1.47656 v -1.6582 q 0,-1.44141 -0.41058,-2.03907 -0.41058,-0.59765 -1.20242,-0.59765 -0.77423,0 -1.19068,0.59765 -0.41058,0.59766 -0.41058,2.03907 v 1.6582 q 0,1.42969 0.41645,2.0625 0.42231,0.63281 1.19654,0.63281 0.7977,0 1.19655,-0.63281 0.40472,-0.63281 0.40472,-2.0625 z m 5.36686,-2.9707 v -0.45118 q 0,-0.72656 0.46924,-1.24218 0.46923,-0.52149 1.27866,-0.52149 0.82116,0 1.28453,0.52149 0.46924,0.51562 0.46924,1.24218 v 0.45118 q 0,0.71484 -0.46337,1.23632 -0.46337,0.51563 -1.27867,0.51563 -0.81529,0 -1.29039,-0.51563 -0.46924,-0.52148 -0.46924,-1.23632 z m 0.8153,-0.45118 v 0.45118 q 0,0.40429 0.22875,0.72656 0.23462,0.32226 0.71558,0.32226 0.46924,0 0.69799,-0.3164 0.22875,-0.32227 0.22875,-0.73242 v -0.45118 q 0,-0.41015 -0.23462,-0.73242 -0.22875,-0.32812 -0.70385,-0.32812 -0.46923,0 -0.70385,0.32812 -0.22875,0.32227 -0.22875,0.73242 z m 5.361,-0.42773 -4.17032,6.66797 -0.61,-0.38672 4.17032,-6.66797 z m -2.01771,5.68359 v -0.45703 q 0,-0.7207 0.46924,-1.23633 0.46923,-0.52148 1.27866,-0.52148 0.82116,0 1.28453,0.52148 0.46924,0.51563 0.46924,1.23633 v 0.45703 q 0,0.72071 -0.46337,1.24219 -0.46337,0.51563 -1.27867,0.51563 -0.82116,0 -1.29039,-0.51563 -0.46924,-0.52148 -0.46924,-1.24219 z m 0.8153,-0.45703 v 0.45703 q 0,0.41016 0.22875,0.73243 0.23462,0.32226 0.71558,0.32226 0.4751,0 0.70385,-0.31641 0.22876,-0.32226 0.22876,-0.73828 v -0.45703 q 0,-0.41601 -0.23462,-0.73242 -0.22875,-0.32227 -0.70972,-0.32227 -0.46923,0 -0.70385,0.32227 -0.22875,0.31641 -0.22875,0.73242 z"
       id="text26"
       style="font-size:12px;font-family:Roboto;text-anchor:middle;fill:#4d4d4d"
       aria-label="40 %" />
    <path
       d="m 338.23224,232.21945 -0.86809,-0.22265 0.42818,-4.24805 h 4.38147 v 1.00195 h -3.4606 l -0.25808,2.32031 q 0.23462,-0.13476 0.59241,-0.25195 0.36366,-0.11719 0.83289,-0.11719 1.17895,0 1.85934,0.7793 0.68626,0.77344 0.68626,2.08008 0,1.22461 -0.66866,2.0332 -0.66866,0.80274 -2.03531,0.80274 -1.03818,0 -1.79482,-0.58008 -0.75664,-0.58594 -0.87395,-1.78125 h 1.03232 q 0.20529,1.4707 1.63645,1.4707 0.76838,0 1.19069,-0.52148 0.42231,-0.52149 0.42231,-1.41211 0,-0.80274 -0.44577,-1.34766 -0.43991,-0.55078 -1.26107,-0.55078 -0.54549,0 -0.82703,0.14648 -0.28154,0.14649 -0.56894,0.39844 z m 10.7396,-0.88476 v 1.30078 q 0,2.09765 -0.72732,2.92969 -0.72144,0.83203 -1.96491,0.83203 -1.22588,0 -1.96492,-0.83203 -0.73905,-0.83204 -0.73905,-2.92969 v -1.30078 q 0,-2.0918 0.73318,-2.89454 0.73318,-0.80859 1.95905,-0.80859 1.24348,0 1.97079,0.80859 0.73318,0.80274 0.73318,2.89454 z m -1.09097,1.47656 v -1.6582 q 0,-1.44141 -0.41058,-2.03907 -0.41058,-0.59765 -1.20242,-0.59765 -0.77423,0 -1.19068,0.59765 -0.41058,0.59766 -0.41058,2.03907 v 1.6582 q 0,1.42969 0.41645,2.0625 0.42231,0.63281 1.19655,0.63281 0.79769,0 1.19654,-0.63281 0.40472,-0.63281 0.40472,-2.0625 z m 5.36687,-2.9707 v -0.45118 q 0,-0.72656 0.46923,-1.24218 0.46923,-0.52149 1.27866,-0.52149 0.82116,0 1.28453,0.52149 0.46924,0.51562 0.46924,1.24218 v 0.45118 q 0,0.71484 -0.46337,1.23632 -0.46337,0.51563 -1.27867,0.51563 -0.81529,0 -1.29039,-0.51563 -0.46923,-0.52148 -0.46923,-1.23632 z m 0.81529,-0.45118 v 0.45118 q 0,0.40429 0.22875,0.72656 0.23462,0.32226 0.71558,0.32226 0.46924,0 0.69799,-0.3164 0.22875,-0.32227 0.22875,-0.73242 v -0.45118 q 0,-0.41015 -0.23461,-0.73242 -0.22876,-0.32812 -0.70386,-0.32812 -0.46923,0 -0.70385,0.32812 -0.22875,0.32227 -0.22875,0.73242 z m 5.361,-0.42773 -4.17032,6.66797 -0.61,-0.38672 4.17032,-6.66797 z m -2.0177,5.68359 v -0.45703 q 0,-0.7207 0.46923,-1.23633 0.46923,-0.52148 1.27866,-0.52148 0.82116,0 1.28453,0.52148 0.46924,0.51563 0.46924,1.23633 v 0.45703 q 0,0.72071 -0.46337,1.24219 -0.46337,0.51563 -1.27867,0.51563 -0.82116,0 -1.29039,-0.51563 -0.46923,-0.52148 -0.46923,-1.24219 z m 0.81529,-0.45703 v 0.45703 q 0,0.41016 0.22875,0.73243 0.23462,0.32226 0.71558,0.32226 0.4751,0 0.70386,-0.31641 0.22875,-0.32226 0.22875,-0.73828 v -0.45703 q 0,-0.41601 -0.23462,-0.73242 -0.22875,-0.32227 -0.70972,-0.32227 -0.46923,0 -0.70385,0.32227 -0.22875,0.31641 -0.22875,0.73242 z"
       id="text27"
       style="font-size:12px;font-family:Roboto;text-anchor:middle;fill:#4d4d4d"
       aria-label="50 %" />
    <path
       d="m 393.05629,233.4968 q 0,1.21289 -0.68039,2.05664 -0.67453,0.84375 -1.97079,0.84375 -0.92087,0 -1.53088,-0.48633 -0.61,-0.49219 -0.915,-1.24219 -0.29914,-0.75586 -0.29914,-1.54687 v -0.50977 q 0,-1.20117 0.33433,-2.32031 0.3402,-1.11914 1.22588,-1.83399 0.88567,-0.7207 2.53386,-0.7207 h 0.0938 v 0.91992 h -0.0938 q -1.03818,0 -1.67165,0.39844 -0.63346,0.39844 -0.94433,1.03711 -0.305,0.63281 -0.36952,1.35937 0.35192,-0.39843 0.82116,-0.58007 0.4751,-0.1875 1.01472,-0.1875 0.85048,0 1.3901,0.41015 0.54549,0.41016 0.80357,1.06055 0.25808,0.64453 0.25808,1.3418 z m -4.30523,-0.33985 q 0,1.13672 0.50443,1.74024 0.51029,0.60351 1.14962,0.60351 0.75078,0 1.16136,-0.54492 0.41644,-0.55078 0.41644,-1.40625 0,-0.76172 -0.38125,-1.36523 -0.38125,-0.60352 -1.17309,-0.60352 -0.56894,0 -1.03231,0.33984 -0.46337,0.33985 -0.6452,0.82618 z m 10.95076,-1.82226 v 1.30078 q 0,2.09765 -0.72732,2.92969 -0.72144,0.83203 -1.96491,0.83203 -1.22588,0 -1.96492,-0.83203 -0.73905,-0.83204 -0.73905,-2.92969 v -1.30078 q 0,-2.0918 0.73318,-2.89454 0.73318,-0.80859 1.95905,-0.80859 1.24348,0 1.97079,0.80859 0.73318,0.80274 0.73318,2.89454 z m -1.09097,1.47656 v -1.6582 q 0,-1.44141 -0.41058,-2.03907 -0.41058,-0.59765 -1.20242,-0.59765 -0.77423,0 -1.19068,0.59765 -0.41058,0.59766 -0.41058,2.03907 v 1.6582 q 0,1.42969 0.41645,2.0625 0.42231,0.63281 1.19655,0.63281 0.79769,0 1.19654,-0.63281 0.40472,-0.63281 0.40472,-2.0625 z m 5.36687,-2.9707 v -0.45118 q 0,-0.72656 0.46923,-1.24218 0.46923,-0.52149 1.27866,-0.52149 0.82116,0 1.28453,0.52149 0.46924,0.51562 0.46924,1.24218 v 0.45118 q 0,0.71484 -0.46337,1.23632 -0.46337,0.51563 -1.27867,0.51563 -0.81529,0 -1.29039,-0.51563 -0.46923,-0.52148 -0.46923,-1.23632 z m 0.81529,-0.45118 v 0.45118 q 0,0.40429 0.22875,0.72656 0.23462,0.32226 0.71558,0.32226 0.46924,0 0.69799,-0.3164 0.22875,-0.32227 0.22875,-0.73242 v -0.45118 q 0,-0.41015 -0.23461,-0.73242 -0.22876,-0.32812 -0.70386,-0.32812 -0.46923,0 -0.70385,0.32812 -0.22875,0.32227 -0.22875,0.73242 z m 5.361,-0.42773 -4.17032,6.66797 -0.61,-0.38672 4.17032,-6.66797 z m -2.0177,5.68359 v -0.45703 q 0,-0.7207 0.46923,-1.23633 0.46923,-0.52148 1.27866,-0.52148 0.82116,0 1.28453,0.52148 0.46924,0.51563 0.46924,1.23633 v 0.45703 q 0,0.72071 -0.46337,1.24219 -0.46337,0.51563 -1.27867,0.51563 -0.82116,0 -1.29039,-0.51563 -0.46923,-0.52148 -0.46923,-1.24219 z m 0.81529,-0.45703 v 0.45703 q 0,0.41016 0.22875,0.73243 0.23462,0.32226 0.71558,0.32226 0.4751,0 0.70386,-0.31641 0.22875,-0.32226 0.22875,-0.73828 v -0.45703 q 0,-0.41601 -0.23462,-0.73242 -0.22875,-0.32227 -0.70972,-0.32227 -0.46923,0 -0.70385,0.32227 -0.22875,0.31641 -0.22875,0.73242 z"
       id="text28"
       style="font-size:12px;font-family:Roboto;text-anchor:middle;fill:#4d4d4d"
       aria-label="60 %" />
    <path
       d="m 443.83909,227.74875 v 0.60937 l -3.53686,7.92188 h -1.14376 l 3.53099,-7.64063 h -4.62196 v -0.89062 z m 6.59274,3.58594 v 1.30078 q 0,2.09765 -0.72731,2.92969 -0.72145,0.83203 -1.96492,0.83203 -1.22588,0 -1.96492,-0.83203 -0.73905,-0.83204 -0.73905,-2.92969 v -1.30078 q 0,-2.0918 0.73318,-2.89454 0.73318,-0.80859 1.95906,-0.80859 1.24347,0 1.97078,0.80859 0.73318,0.80274 0.73318,2.89454 z m -1.09097,1.47656 v -1.6582 q 0,-1.44141 -0.41058,-2.03907 -0.41058,-0.59765 -1.20241,-0.59765 -0.77424,0 -1.19069,0.59765 -0.41058,0.59766 -0.41058,2.03907 v 1.6582 q 0,1.42969 0.41645,2.0625 0.42231,0.63281 1.19655,0.63281 0.7977,0 1.19654,-0.63281 0.40472,-0.63281 0.40472,-2.0625 z m 5.36687,-2.9707 v -0.45118 q 0,-0.72656 0.46923,-1.24218 0.46924,-0.52149 1.27867,-0.52149 0.82116,0 1.28452,0.52149 0.46924,0.51562 0.46924,1.24218 v 0.45118 q 0,0.71484 -0.46337,1.23632 -0.46337,0.51563 -1.27866,0.51563 -0.8153,0 -1.2904,-0.51563 -0.46923,-0.52148 -0.46923,-1.23632 z m 0.81529,-0.45118 v 0.45118 q 0,0.40429 0.22875,0.72656 0.23462,0.32226 0.71559,0.32226 0.46923,0 0.69798,-0.3164 0.22875,-0.32227 0.22875,-0.73242 v -0.45118 q 0,-0.41015 -0.23461,-0.73242 -0.22876,-0.32812 -0.70385,-0.32812 -0.46924,0 -0.70386,0.32812 -0.22875,0.32227 -0.22875,0.73242 z m 5.361,-0.42773 -4.17032,6.66797 -0.61,-0.38672 4.17032,-6.66797 z m -2.0177,5.68359 v -0.45703 q 0,-0.7207 0.46923,-1.23633 0.46924,-0.52148 1.27866,-0.52148 0.82116,0 1.28453,0.52148 0.46924,0.51563 0.46924,1.23633 v 0.45703 q 0,0.72071 -0.46337,1.24219 -0.46337,0.51563 -1.27866,0.51563 -0.82116,0 -1.2904,-0.51563 -0.46923,-0.52148 -0.46923,-1.24219 z m 0.81529,-0.45703 v 0.45703 q 0,0.41016 0.22875,0.73243 0.23462,0.32226 0.71559,0.32226 0.4751,0 0.70385,-0.31641 0.22875,-0.32226 0.22875,-0.73828 v -0.45703 q 0,-0.41601 -0.23462,-0.73242 -0.22875,-0.32227 -0.70972,-0.32227 -0.46923,0 -0.70385,0.32227 -0.22875,0.31641 -0.22875,0.73242 z"
       id="text29"
       style="font-size:12px;font-family:Roboto;text-anchor:middle;fill:#4d4d4d"
       aria-label="70 %" />
    <path
       d="m 337.18274,246.5831 h -1.84802 v 3.06689 h -1.03683 v -7.82031 h 2.88485 q 1.33229,0 2.03604,0.67139 0.70913,0.67138 0.70913,1.71338 0,1.1333 -0.70913,1.75097 -0.70375,0.61768 -2.03604,0.61768 z m -1.84802,-3.90479 v 3.06153 h 1.84802 q 0.91326,0 1.3108,-0.42432 0.39754,-0.42432 0.39754,-1.09033 0,-0.60156 -0.39754,-1.07422 -0.39754,-0.47266 -1.3108,-0.47266 z m 5.4205,4.13038 v -0.12354 q 0,-1.26221 0.70912,-2.10547 0.70913,-0.84863 1.92861,-0.84863 1.23022,0 1.93934,0.84863 0.7145,0.84326 0.7145,2.10547 v 0.12354 q 0,1.2622 -0.7145,2.10546 -0.70912,0.84327 -1.9286,0.84327 -1.22485,0 -1.93935,-0.84327 -0.70912,-0.84326 -0.70912,-2.10546 z m 0.99385,-0.12354 v 0.12354 q 0,0.86474 0.40828,1.49853 0.41366,0.63379 1.24634,0.63379 0.81657,0 1.23022,-0.63379 0.41366,-0.63379 0.41366,-1.49853 v -0.12354 q 0,-0.854 -0.41366,-1.49316 -0.41365,-0.64454 -1.24096,-0.64454 -0.82194,0 -1.2356,0.64454 -0.40828,0.63916 -0.40828,1.49316 z m 9.29382,2.96484 -0.0484,-0.62304 q -0.59631,0.73047 -1.65999,0.73047 -1.02608,0 -1.66,-0.83789 -0.62854,-0.8379 -0.62854,-2.11084 v -0.1128 q 0,-1.33203 0.62854,-2.14844 0.63392,-0.8164 1.67074,-0.8164 1.02608,0 1.61165,0.6875 v -3.01856 h 0.99922 v 8.25 z m -2.99766,-2.8413 q 0,0.86474 0.36531,1.48779 0.3653,0.61767 1.17113,0.61767 0.52109,0 0.8488,-0.23632 0.3277,-0.23633 0.52647,-0.60694 v -2.6748 q -0.1934,-0.35987 -0.52647,-0.59082 -0.32771,-0.23633 -0.83806,-0.23633 -0.8112,0 -1.18187,0.63379 -0.36531,0.62842 -0.36531,1.49316 z m 6.52716,-2.97022 v 5.81152 h -0.99384 v -5.81152 z m -1.02608,-0.84863 1.0422,-1.5791 h 1.19799 l -1.43974,1.5791 z m 3.75514,-1.58985 v 8.25 h -0.99922 v -8.25 z m 4.08821,3.26026 v -0.82178 h 4.41053 v 0.70361 l -3.23403,4.29151 h 3.38982 v 0.8164 h -4.6093 v -0.73046 l 3.2018,-4.25928 z m 9.35828,4.98974 -0.0484,-0.62304 q -0.59631,0.73047 -1.65999,0.73047 -1.02608,0 -1.66,-0.83789 -0.62854,-0.8379 -0.62854,-2.11084 v -0.1128 q 0,-1.33203 0.62854,-2.14844 0.63392,-0.8164 1.67074,-0.8164 1.02608,0 1.61165,0.6875 v -3.01856 h 0.99922 v 8.25 z m -2.99766,-2.8413 q 0,0.86474 0.36531,1.48779 0.3653,0.61767 1.17113,0.61767 0.5211,0 0.8488,-0.23632 0.3277,-0.23633 0.52647,-0.60694 v -2.6748 q -0.1934,-0.35987 -0.52647,-0.59082 -0.3277,-0.23633 -0.83806,-0.23633 -0.81119,0 -1.18187,0.63379 -0.36531,0.62842 -0.36531,1.49316 z m 7.7735,-2.12159 q -0.51035,0 -0.83805,0.23096 -0.3277,0.22559 -0.48887,0.60693 v 4.125 h -0.99385 v -5.81152 H 374.17 l 0.0215,0.66602 q 0.22026,-0.3545 0.5587,-0.56397 0.34382,-0.20947 0.82194,-0.20947 0.27936,0 0.44052,0.0752 l -0.005,0.92383 q -0.22026,-0.043 -0.4835,-0.043 z m 1.03683,2.12159 v -0.12354 q 0,-1.26221 0.70912,-2.10547 0.70913,-0.84863 1.92861,-0.84863 1.23022,0 1.93934,0.84863 0.7145,0.84326 0.7145,2.10547 v 0.12354 q 0,1.2622 -0.7145,2.10546 -0.70912,0.84327 -1.9286,0.84327 -1.22485,0 -1.93935,-0.84327 -0.70912,-0.84326 -0.70912,-2.10546 z m 0.99385,-0.12354 v 0.12354 q 0,0.86474 0.40828,1.49853 0.41366,0.63379 1.24634,0.63379 0.81657,0 1.23022,-0.63379 0.41366,-0.63379 0.41366,-1.49853 v -0.12354 q 0,-0.854 -0.41366,-1.49316 -0.41365,-0.64454 -1.24096,-0.64454 -0.82194,0 -1.2356,0.64454 -0.40828,0.63916 -0.40828,1.49316 z m 5.46885,-4.38818 q 0,-0.2417 0.15042,-0.40821 0.15042,-0.1665 0.43514,-0.1665 0.2901,0 0.44052,0.1665 0.15042,0.16651 0.15042,0.40821 0,0.23095 -0.15042,0.39746 -0.15042,0.16113 -0.44052,0.16113 -0.28472,0 -0.43514,-0.16113 -0.15042,-0.16651 -0.15042,-0.39746 z m 0.10207,1.5415 h 0.99922 v 6.5044 q 0,1.65429 -1.52032,1.65429 -0.33307,0 -0.6178,-0.0913 l 0.005,-0.80029 q 0.19877,0.0483 0.45663,0.0483 0.3277,0 0.49961,-0.18262 0.17728,-0.18261 0.17728,-0.62841 z m 6.21021,5.81152 -0.0215,-0.5747 q -0.26861,0.32226 -0.68764,0.50488 -0.41902,0.17725 -1.00996,0.17725 -0.85417,0 -1.38064,-0.50489 -0.52648,-0.50488 -0.52648,-1.66504 v -3.74902 h 0.99385 v 3.75977 q 0,0.78418 0.3277,1.05273 0.33308,0.26318 0.74136,0.26318 0.60705,0 0.97236,-0.23095 0.36531,-0.23096 0.54259,-0.61231 v -4.23242 h 0.99922 v 5.81152 z m -2.47119,-7.62695 q 0,-0.46191 0.3277,-0.78955 0.33307,-0.32764 0.82731,-0.32764 0.48887,0 0.82194,0.32764 0.33307,0.32764 0.33307,0.78955 0,0.47266 -0.33307,0.78418 -0.33307,0.31152 -0.82194,0.31152 -0.49424,0 -0.82731,-0.31152 -0.3277,-0.31152 -0.3277,-0.78418 z m 0.53184,0 q 0,0.23633 0.17191,0.42969 0.17728,0.18799 0.45126,0.18799 0.27398,0 0.44589,-0.18262 0.17728,-0.18799 0.17728,-0.43506 0,-0.25244 -0.17728,-0.44043 -0.17191,-0.19336 -0.44589,-0.19336 -0.27398,0 -0.45126,0.19336 -0.17191,0.18799 -0.17191,0.44043 z m 9.54094,2.5459 q -0.47812,0 -0.84343,0.25781 -0.3653,0.25781 -0.57482,0.67139 v 4.15185 h -0.99384 v -5.81152 h 0.94012 l 0.0322,0.7251 q 0.66077,-0.83252 1.7352,-0.83252 0.85954,0 1.35915,0.4834 0.50499,0.4834 0.50499,1.62744 v 3.8081 h -0.99922 v -3.81884 q 0,-0.68213 -0.30084,-0.97217 -0.29547,-0.29004 -0.85955,-0.29004 z m 7.2524,5.08105 q -0.0967,-0.20947 -0.13967,-0.6123 -0.27935,0.29541 -0.69838,0.51025 -0.41903,0.20948 -0.95624,0.20948 -0.89178,0 -1.429,-0.49952 -0.53721,-0.49951 -0.53721,-1.22461 0,-0.93457 0.70912,-1.41796 0.70913,-0.48877 1.90712,-0.48877 h 0.9831 v -0.46192 q 0,-0.51562 -0.31159,-0.82178 -0.30621,-0.31152 -0.91326,-0.31152 -0.56408,0 -0.91327,0.2793 -0.34381,0.27392 -0.34381,0.63916 h -0.99385 q 0,-0.62305 0.62854,-1.1709 0.62854,-0.54785 1.68148,-0.54785 0.9455,0 1.55255,0.4834 0.60706,0.4834 0.60706,1.46093 v 2.70704 q 0,0.29003 0.0484,0.61767 0.0537,0.32764 0.15579,0.56397 v 0.0859 z m -1.64925,-0.76269 q 0.53722,0 0.92939,-0.26856 0.39754,-0.26855 0.5587,-0.59619 v -1.19775 h -0.82194 q -1.77818,0 -1.77818,1.07422 0,0.41357 0.27935,0.70361 0.27935,0.28467 0.83268,0.28467 z m 11.14722,-5.04883 -2.08977,5.81152 h -0.75747 l -2.10588,-5.81152 h 1.0207 l 1.47735,4.45264 1.43973,-4.45264 z m 2.93857,6.7085 q -0.10744,0.28466 -0.31159,0.62304 -0.20414,0.34375 -0.54795,0.58545 -0.33845,0.2417 -0.86492,0.2417 -0.12356,0 -0.30621,-0.0322 -0.17728,-0.0269 -0.2525,-0.0537 l -0.005,-0.80566 q 0.11819,0.0215 0.26861,0.0215 0.50498,0 0.78971,-0.20947 0.28472,-0.2041 0.46737,-0.74121 l 0.21489,-0.59082 -2.07365,-5.74707 h 1.08517 l 1.45586,4.35059 1.34841,-4.35059 h 1.06368 z m -0.5587,-7.56787 1.04219,-1.57911 h 1.19799 l -1.43973,1.57911 z m 6.10276,1.708 q -0.51036,0 -0.83806,0.23096 -0.3277,0.22559 -0.48886,0.60693 v 4.125 h -0.99385 v -5.81152 h 0.96698 l 0.0215,0.66602 q 0.22026,-0.3545 0.55871,-0.56397 0.34382,-0.20947 0.82194,-0.20947 0.27935,0 0.44051,0.0752 l -0.005,0.92383 q -0.22026,-0.043 -0.48349,-0.043 z m 1.03683,2.12159 v -0.12354 q 0,-1.26221 0.70912,-2.10547 0.70912,-0.84863 1.9286,-0.84863 1.23023,0 1.93935,0.84863 0.7145,0.84326 0.7145,2.10547 v 0.12354 q 0,1.2622 -0.7145,2.10546 -0.70912,0.84327 -1.9286,0.84327 -1.22485,0 -1.93935,-0.84327 -0.70912,-0.84326 -0.70912,-2.10546 z m 0.99384,-0.12354 v 0.12354 q 0,0.86474 0.40829,1.49853 0.41365,0.63379 1.24634,0.63379 0.81656,0 1.23022,-0.63379 0.41366,-0.63379 0.41366,-1.49853 v -0.12354 q 0,-0.854 -0.41366,-1.49316 -0.41366,-0.64454 -1.24097,-0.64454 -0.82194,0 -1.23559,0.64454 -0.40829,0.63916 -0.40829,1.49316 z m 10.46496,0.12354 q 0,1.27294 -0.59094,2.11084 -0.59094,0.83789 -1.67074,0.83789 -1.10129,0 -1.6976,-0.77881 l -0.0537,0.67138 h -0.91327 v -8.25 h 0.99922 v 3.0669 q 0.59094,-0.73584 1.65463,-0.73584 1.09592,0 1.68148,0.8164 0.59094,0.81641 0.59094,2.14844 z m -2.51954,-2.23975 q -0.54259,0 -0.88104,0.26318 -0.33844,0.25782 -0.52647,0.63916 v 2.52979 q 0.1934,0.38672 0.53722,0.6499 0.34382,0.26318 0.88103,0.26318 0.80582,0 1.15501,-0.61767 0.35457,-0.62305 0.35457,-1.48779 v -0.1128 q 0,-0.86474 -0.33845,-1.49316 -0.33307,-0.63379 -1.18187,-0.63379 z m 8.37518,4.06592 q -0.28473,0.42968 -0.80582,0.77881 -0.5211,0.34375 -1.38065,0.34375 -1.2141,0 -1.94472,-0.78956 -0.72524,-0.78955 -0.72524,-2.01953 v -0.22558 q 0,-0.95069 0.35994,-1.6167 0.3653,-0.67139 0.9455,-1.02051 0.58019,-0.35449 1.23559,-0.35449 1.24634,0 1.81579,0.8164 0.57482,0.81104 0.57482,2.03028 v 0.4458 h -3.93242 q 0.0215,0.80029 0.47275,1.36426 0.45664,0.55859 1.25171,0.55859 0.52647,0 0.89178,-0.21484 0.36531,-0.21485 0.63929,-0.57471 z m -2.3154,-4.08741 q -0.59094,0 -0.99922,0.42969 -0.40828,0.42969 -0.51035,1.23535 h 2.90633 v -0.0752 q -0.0376,-0.58008 -0.33845,-1.08496 -0.29546,-0.50489 -1.05831,-0.50489 z m -0.82194,-3.14209 0.8112,0.91309 0.81119,-0.91309 h 0.85955 v 0.0537 l -1.36453,1.47168 h -0.61243 l -1.34303,-1.47168 v -0.0537 z m 9.56243,8.24463 q -0.11819,0.0376 -0.31158,0.0698 -0.18803,0.0376 -0.45664,0.0376 -0.55333,0 -0.9455,-0.33838 -0.39216,-0.33838 -0.39216,-1.21387 v -3.604 h -1.06369 v -0.7627 h 1.06369 v -1.4126 h 0.99385 v 1.4126 h 1.08517 v 0.7627 h -1.08517 v 3.60937 q 0,0.4458 0.19339,0.56934 0.1934,0.12353 0.44589,0.12353 0.12356,0 0.25787,-0.0215 0.13967,-0.0269 0.20951,-0.043 z m 5.73746,-1.01513 q -0.28472,0.42968 -0.80582,0.77881 -0.5211,0.34375 -1.38065,0.34375 -1.2141,0 -1.94471,-0.78956 -0.72525,-0.78955 -0.72525,-2.01953 v -0.22558 q 0,-0.95069 0.35994,-1.6167 0.36531,-0.67139 0.9455,-1.02051 0.58019,-0.35449 1.23559,-0.35449 1.24634,0 1.81579,0.8164 0.57482,0.81104 0.57482,2.03028 v 0.4458 h -3.93241 q 0.0215,0.80029 0.47274,1.36426 0.45664,0.55859 1.25172,0.55859 0.52647,0 0.89177,-0.21484 0.36531,-0.21485 0.63929,-0.57471 z m -2.3154,-4.08741 q -0.59093,0 -0.99922,0.42969 -0.40828,0.42969 -0.51035,1.23535 h 2.90633 v -0.0752 q -0.0376,-0.58008 -0.33844,-1.08496 -0.29547,-0.50489 -1.05832,-0.50489 z m 6.20484,5.20997 q -1.04757,0 -1.65999,-0.67139 v 2.79834 h -0.99922 v -8.0459 h 0.91326 l 0.0483,0.63916 q 0.61243,-0.74658 1.68148,-0.74658 1.1013,0 1.68686,0.8164 0.58556,0.81641 0.58556,2.14844 v 0.1128 q 0,1.27294 -0.59093,2.11084 -0.58557,0.83789 -1.66537,0.83789 z m -0.30621,-5.18848 q -0.50498,0 -0.83269,0.23096 -0.3277,0.22558 -0.52109,0.56933 v 2.78223 q 0.19877,0.34375 0.52109,0.56933 0.32771,0.22022 0.84343,0.22022 0.80583,0 1.1765,-0.63379 0.37605,-0.63379 0.37605,-1.49853 v -0.1128 q 0,-0.86474 -0.37605,-1.49316 -0.37067,-0.63379 -1.18724,-0.63379 z m 4.91014,-3.16895 v 8.25 h -0.99922 v -8.25 z m 5.18413,8.25 q -0.0967,-0.20947 -0.13968,-0.6123 -0.27935,0.29541 -0.69838,0.51025 -0.41903,0.20948 -0.95624,0.20948 -0.89178,0 -1.42899,-0.49952 -0.53722,-0.49951 -0.53722,-1.22461 0,-0.93457 0.70913,-1.41796 0.70912,-0.48877 1.90711,-0.48877 h 0.9831 v -0.46192 q 0,-0.51562 -0.31158,-0.82178 -0.30621,-0.31152 -0.91327,-0.31152 -0.56407,0 -0.91326,0.2793 -0.34382,0.27392 -0.34382,0.63916 h -0.99385 q 0,-0.62305 0.62854,-1.1709 0.62854,-0.54785 1.68149,-0.54785 0.94549,0 1.55255,0.4834 0.60705,0.4834 0.60705,1.46093 v 2.70704 q 0,0.29003 0.0483,0.61767 0.0537,0.32764 0.15579,0.56397 v 0.0859 z m -1.64925,-0.76269 q 0.53721,0 0.92938,-0.26856 0.39754,-0.26855 0.5587,-0.59619 v -1.19775 h -0.82194 q -1.77818,0 -1.77818,1.07422 0,0.41357 0.27935,0.70361 0.27936,0.28467 0.83269,0.28467 z"
       id="text30"
       style="font-size:11px;font-family:Roboto;text-anchor:end"
       aria-label="Podíl zdrojů na výrobě tepla" />
  </g>
</svg>
