<?xml version="1.0" encoding="UTF-8"?>
<svg id="Layer_1" data-name="Layer 1" xmlns="http://www.w3.org/2000/svg" width="330" height="366.9921" viewBox="0 0 330 366.9921">
  <rect x="161.6627" y="272.6929" width="131.1496" height="38.5512" fill="#fff"/>
  <g>
    <path d="m43.1773,299.8956h259.9506" fill="none" stroke="#d0d2d3" stroke-miterlimit="10" stroke-width=".5"/>
    <path d="m43.1773,264.0225h259.9506" fill="none" stroke="#d0d2d3" stroke-miterlimit="10" stroke-width=".5"/>
    <path d="m43.1773,228.1494h259.9506" fill="none" stroke="#d0d2d3" stroke-miterlimit="10" stroke-width=".5"/>
    <path d="m43.1773,192.9057h259.9506" fill="none" stroke="#d0d2d3" stroke-miterlimit="10" stroke-width=".5"/>
    <path d="m43.1773,335.1393h259.9506" fill="none" stroke="#d0d2d3" stroke-miterlimit="10" stroke-width=".5"/>
    <path d="m43.1773,157.0326h259.9506" fill="none" stroke="#d0d2d3" stroke-miterlimit="10" stroke-width=".5"/>
    <path d="m43.1773,121.7889h259.9506" fill="none" stroke="#d0d2d3" stroke-miterlimit="10" stroke-width=".5"/>
  </g>
  <g>
    <path d="m21.5509,122.3594c0,1.2695-.2168,2.2129-.6504,2.8301s-1.1113.9258-2.0332.9258c-.9102,0-1.584-.3018-2.0215-.9053s-.6641-1.5049-.6797-2.7041v-1.4473c0-1.2539.2168-2.1855.6504-2.7949s1.1133-.9141,2.0391-.9141c.918,0,1.5938.2939,2.0273.8818s.6562,1.4951.668,2.7217v1.4062Zm-1.084-1.4824c0-.918-.1289-1.5869-.3867-2.0068s-.666-.6299-1.2246-.6299c-.5547,0-.959.209-1.2129.627s-.3848,1.0605-.3926,1.9277v1.7344c0,.9219.1338,1.6025.4014,2.042s.6729.6592,1.2158.6592c.5352,0,.9326-.207,1.1924-.6211s.3955-1.0664.4072-1.957v-1.7754Z" fill="#929497"/>
    <path d="m25.8165,119.1075c0-.5117.1631-.9336.4893-1.2656s.7451-.498,1.2568-.498c.5195,0,.9404.167,1.2627.501s.4834.7666.4834,1.2979v.416c0,.5156-.1631.9365-.4893,1.2627s-.7412.4893-1.2451.4893c-.5078,0-.9277-.1631-1.2598-.4893s-.498-.7607-.498-1.3037v-.4102Zm.8086.4487c0,.3057.0859.5571.2578.7549s.4023.2964.6914.2964c.2773,0,.501-.0957.6709-.2876s.2549-.4541.2549-.7871v-.4287c0-.3052-.084-.5581-.252-.7573-.168-.1997-.3965-.2998-.6855-.2998s-.5176.1001-.6855.2998c-.168.1992-.252.46-.252.7808v.4287Zm1.1953,5.7974l-.6152-.3867,4.166-6.668.6152.3867-4.166,6.668Zm2.1504-1.4473c0-.5117.1631-.9326.4893-1.2627s.7451-.4951,1.2568-.4951.9316.1641,1.2598.4922.4922.7637.4922,1.3066v.416c0,.5117-.1631.9326-.4893,1.2627s-.7432.4951-1.251.4951-.9277-.1631-1.2598-.4893-.498-.7607-.498-1.3037v-.4219Zm.8086.4546c0,.3091.0859.563.2578.7607s.4023.2964.6914.2964c.2812,0,.5059-.0967.6738-.2905s.252-.457.252-.79v-.4346c0-.3091-.085-.562-.2549-.7573-.1699-.1958-.3975-.2939-.6826-.2939-.2773,0-.5029.0972-.6768.2905-.1738.1938-.2607.4556-.2607.7842v.4346Z" fill="#929497"/>
  </g>
  <g>
    <path d="m33.1226,90.6495h-1.0898v-7.2246l-2.1855.8027v-.9844l3.1055-1.166h.1699v8.5723Z" fill="#808184"/>
    <path d="m40.4527,86.8995c-.2266.2695-.4971.4863-.8115.6504s-.6592.2461-1.0342.2461c-.4922,0-.9209-.1211-1.2861-.3633s-.6475-.583-.8467-1.0225-.2988-.9248-.2988-1.4561c0-.5703.1084-1.084.3252-1.541s.5244-.8066.9229-1.0488.8633-.3633,1.3945-.3633c.8438,0,1.5088.3154,1.9951.9463s.7295,1.4912.7295,2.5811v.3164c0,1.6602-.3281,2.8721-.9844,3.6357s-1.6465,1.1553-2.9707,1.1748h-.2109v-.9199h.2285c.8945-.0156,1.582-.2485,2.0625-.6987s.7422-1.1626.7852-2.1372Zm-1.6699,0c.3633,0,.6982-.1113,1.0049-.334s.5303-.498.6709-.8262v-.4336c0-.7109-.1543-1.2891-.4629-1.7344s-.6992-.668-1.1719-.668c-.4766,0-.8594.1826-1.1484.5479s-.4336.8467-.4336,1.4443c0,.582.1396,1.0615.4189,1.4385s.6533.5654,1.1221.5654Z" fill="#808184"/>
    <path d="m47.191,86.8995c-.2266.2695-.4971.4863-.8115.6504s-.6592.2461-1.0342.2461c-.4922,0-.9209-.1211-1.2861-.3633s-.6475-.583-.8467-1.0225-.2988-.9248-.2988-1.4561c0-.5703.1084-1.084.3252-1.541s.5244-.8066.9229-1.0488.8633-.3633,1.3945-.3633c.8438,0,1.5088.3154,1.9951.9463s.7295,1.4912.7295,2.5811v.3164c0,1.6602-.3281,2.8721-.9844,3.6357s-1.6465,1.1553-2.9707,1.1748h-.2109v-.9199h.2285c.8945-.0156,1.582-.2485,2.0625-.6987s.7422-1.1626.7852-2.1372Zm-1.6699,0c.3633,0,.6982-.1113,1.0049-.334s.5303-.498.6709-.8262v-.4336c0-.7109-.1543-1.2891-.4629-1.7344s-.6992-.668-1.1719-.668c-.4766,0-.8594.1826-1.1484.5479s-.4336.8467-.4336,1.4443c0,.582.1396,1.0615.4189,1.4385s.6533.5654,1.1221.5654Z" fill="#808184"/>
    <path d="m55.1246,87.0108c0,1.2695-.2168,2.2129-.6504,2.8301s-1.1113.9258-2.0332.9258c-.9102,0-1.584-.3018-2.0215-.9053s-.6641-1.5049-.6797-2.7041v-1.4473c0-1.2539.2168-2.1855.6504-2.7949s1.1133-.9141,2.0391-.9141c.918,0,1.5938.2939,2.0273.8818s.6562,1.4951.668,2.7217v1.4062Zm-1.084-1.4824c0-.918-.1289-1.5869-.3867-2.0068s-.666-.6299-1.2246-.6299c-.5547,0-.959.209-1.2129.627s-.3848,1.0605-.3926,1.9277v1.7344c0,.9219.1338,1.6025.4014,2.042s.6729.6592,1.2158.6592c.5352,0,.9326-.207,1.1924-.6211s.3955-1.0664.4072-1.957v-1.7754Z" fill="#808184"/>
  </g>
  <g>
    <path d="m133.3585,90.6495h-5.8477v-1.1602l2.7598-2.9414c.3789-.4141.6592-.7754.8408-1.084s.2725-.6016.2725-.8789c0-.3789-.0957-.6768-.2871-.8936s-.4648-.3252-.8203-.3252c-.3828,0-.6846.1318-.9053.3955s-.3311.6104-.3311,1.04h-1.6992c0-.5195.124-.9941.3721-1.4238s.5986-.7666,1.0518-1.0107.9668-.3662,1.541-.3662c.8789,0,1.5615.2109,2.0479.6328s.7295,1.0176.7295,1.7871c0,.4219-.1094.8516-.3281,1.2891s-.5938.9473-1.125,1.5293l-1.9395,2.0449h3.668v1.3652Z" fill="#808184"/>
    <path d="m140.1378,87.1221c0,1.1797-.2441,2.082-.7324,2.707s-1.2031.9375-2.1445.9375c-.9297,0-1.6406-.3066-2.1328-.9199s-.7441-1.4922-.7559-2.6367v-1.5703c0-1.1914.2471-2.0957.7412-2.7129s1.2061-.9258,2.1357-.9258,1.6406.3057,2.1328.917.7441,1.4893.7559,2.6338v1.5703Zm-1.6934-1.7266c0-.7075-.0967-1.2227-.29-1.5454s-.4951-.4839-.9053-.4839c-.3984,0-.6924.1533-.8818.4604s-.29.7866-.3018,1.4399v2.0762c0,.6958.0947,1.2129.2842,1.5513s.4932.5073.9111.5073c.4141,0,.7129-.1621.8965-.4868.1836-.3242.2793-.8208.2871-1.4897v-2.0293Z" fill="#808184"/>
    <path d="m147.0225,87.1221c0,1.1797-.2441,2.082-.7324,2.707s-1.2031.9375-2.1445.9375c-.9297,0-1.6406-.3066-2.1328-.9199s-.7441-1.4922-.7559-2.6367v-1.5703c0-1.1914.2471-2.0957.7412-2.7129s1.2061-.9258,2.1357-.9258,1.6406.3057,2.1328.917.7441,1.4893.7559,2.6338v1.5703Zm-1.6934-1.7266c0-.7075-.0967-1.2227-.29-1.5454s-.4951-.4839-.9053-.4839c-.3984,0-.6924.1533-.8818.4604s-.29.7866-.3018,1.4399v2.0762c0,.6958.0947,1.2129.2842,1.5513s.4932.5073.9111.5073c.4141,0,.7129-.1621.8965-.4868.1836-.3242.2793-.8208.2871-1.4897v-2.0293Z" fill="#808184"/>
    <path d="m148.4171,86.4542l.4922-4.3359h4.7812v1.4121h-3.3926l-.2109,1.834c.4023-.2148.8301-.3223,1.2832-.3223.8125,0,1.4492.252,1.9102.7559s.6914,1.209.6914,2.1152c0,.5508-.1162,1.0439-.3486,1.4795s-.5654.7734-.999,1.0137-.9453.3604-1.5352.3604c-.5156,0-.9941-.1045-1.4355-.3135s-.79-.5029-1.0459-.8818-.3916-.8105-.4072-1.2949h1.6758c.0352.3555.1592.6318.3721.8291s.4912.2959.835.2959c.3828,0,.6777-.1377.8848-.4131s.3105-.665.3105-1.1689c0-.4844-.1191-.8555-.3574-1.1133s-.5762-.3867-1.0137-.3867c-.4023,0-.7285.1055-.9785.3164l-.1641.1523-1.3477-.334Z" fill="#808184"/>
  </g>
  <g>
    <path d="m296.2335,90.6446h-5.8477v-1.1602l2.7598-2.9414c.3789-.4141.6592-.7754.8408-1.084s.2725-.6016.2725-.8789c0-.3789-.0957-.6768-.2871-.8936s-.4648-.3252-.8203-.3252c-.3828,0-.6846.1318-.9053.3955s-.3311.6104-.3311,1.04h-1.6992c0-.5195.124-.9941.3721-1.4238s.5986-.7666,1.0518-1.0107.9668-.3662,1.541-.3662c.8789,0,1.5615.2109,2.0479.6328s.7295,1.0176.7295,1.7871c0,.4219-.1094.8516-.3281,1.2891s-.5938.9473-1.125,1.5293l-1.9395,2.0449h3.668v1.3652Z" fill="#808184"/>
    <path d="m303.0128,87.1173c0,1.1797-.2441,2.082-.7324,2.707s-1.2031.9375-2.1445.9375c-.9297,0-1.6406-.3066-2.1328-.9199s-.7441-1.4922-.7559-2.6367v-1.5703c0-1.1914.2471-2.0957.7412-2.7129s1.2061-.9258,2.1357-.9258,1.6406.3057,2.1328.917.7441,1.4893.7559,2.6338v1.5703Zm-1.6934-1.7266c0-.7075-.0967-1.2227-.29-1.5454s-.4951-.4839-.9053-.4839c-.3984,0-.6924.1533-.8818.4604s-.29.7866-.3018,1.4399v2.0762c0,.6958.0947,1.2129.2842,1.5513s.4932.5073.9111.5073c.4141,0,.7129-.1621.8965-.4868.1836-.3242.2793-.8208.2871-1.4897v-2.0293Z" fill="#808184"/>
    <path d="m305.878,85.629h.9023c.4297,0,.748-.1074.9551-.3223s.3105-.5.3105-.8555c0-.3438-.1025-.6113-.3076-.8027s-.4873-.2871-.8467-.2871c-.3242,0-.5957.0889-.8145.2666s-.3281.4092-.3281.6943h-1.6934c0-.4453.1201-.8447.3604-1.1982s.5762-.6299,1.0078-.8291.9072-.2988,1.4268-.2988c.9023,0,1.6094.2158,2.1211.6475s.7676,1.0264.7676,1.7842c0,.3906-.1191.75-.3574,1.0781s-.5508.5801-.9375.7559c.4805.1719.8389.4297,1.0752.7734s.3545.75.3545,1.2188c0,.7578-.2764,1.3652-.8291,1.8223s-1.2842.6855-2.1943.6855c-.8516,0-1.5479-.2246-2.0889-.6738s-.8115-1.043-.8115-1.7812h1.6934c0,.3203.1201.582.3604.7852s.5361.3047.8877.3047c.4023,0,.7178-.1064.9463-.3193s.3428-.4951.3428-.8467c0-.8516-.4688-1.2773-1.4062-1.2773h-.8965v-1.3242Z" fill="#808184"/>
    <path d="m316.7823,87.1173c0,1.1797-.2441,2.082-.7324,2.707s-1.2031.9375-2.1445.9375c-.9297,0-1.6406-.3066-2.1328-.9199s-.7441-1.4922-.7559-2.6367v-1.5703c0-1.1914.2471-2.0957.7412-2.7129s1.2061-.9258,2.1357-.9258,1.6406.3057,2.1328.917.7441,1.4893.7559,2.6338v1.5703Zm-1.6934-1.7266c0-.7075-.0967-1.2227-.29-1.5454s-.4951-.4839-.9053-.4839c-.3984,0-.6924.1533-.8818.4604s-.29.7866-.3018,1.4399v2.0762c0,.6958.0947,1.2129.2842,1.5513s.4932.5073.9111.5073c.4141,0,.7129-.1621.8965-.4868.1836-.3242.2793-.8208.2871-1.4897v-2.0293Z" fill="#808184"/>
  </g>
  <g>
    <path d="m237.7305,90.6446h-5.5898v-.7793l2.9531-3.2812c.4375-.4961.7393-.8994.9053-1.21s.249-.6318.249-.9639c0-.4453-.1348-.8105-.4043-1.0957s-.6289-.4277-1.0781-.4277c-.5391,0-.958.1533-1.2568.46s-.4482.7334-.4482,1.2803h-1.084c0-.7852.2529-1.4199.7588-1.9043s1.1826-.7266,2.0303-.7266c.793,0,1.4199.208,1.8809.624s.6914.9697.6914,1.6611c0,.8398-.5352,1.8398-1.6055,3l-2.2852,2.4785h4.2832v.8848Z" fill="#808184"/>
    <path d="m244.2286,87.0059c0,1.2695-.2168,2.2129-.6504,2.8301s-1.1113.9258-2.0332.9258c-.9102,0-1.584-.3018-2.0215-.9053s-.6641-1.5049-.6797-2.7041v-1.4473c0-1.2539.2168-2.1855.6504-2.7949s1.1133-.9141,2.0391-.9141c.918,0,1.5938.2939,2.0273.8818s.6562,1.4951.668,2.7217v1.4062Zm-1.084-1.4824c0-.918-.1289-1.5869-.3867-2.0068s-.666-.6299-1.2246-.6299c-.5547,0-.959.209-1.2129.627s-.3848,1.0605-.3926,1.9277v1.7344c0,.9219.1338,1.6025.4014,2.042s.6729.6592,1.2158.6592c.5352,0,.9326-.207,1.1924-.6211s.3955-1.0664.4072-1.957v-1.7754Z" fill="#808184"/>
    <path d="m251.2071,90.6446h-5.5898v-.7793l2.9531-3.2812c.4375-.4961.7393-.8994.9053-1.21s.249-.6318.249-.9639c0-.4453-.1348-.8105-.4043-1.0957s-.6289-.4277-1.0781-.4277c-.5391,0-.958.1533-1.2568.46s-.4482.7334-.4482,1.2803h-1.084c0-.7852.2529-1.4199.7588-1.9043s1.1826-.7266,2.0303-.7266c.793,0,1.4199.208,1.8809.624s.6914.9697.6914,1.6611c0,.8398-.5352,1.8398-1.6055,3l-2.2852,2.4785h4.2832v.8848Z" fill="#808184"/>
    <path d="m255.918,90.6446h-1.0898v-7.2246l-2.1855.8027v-.9844l3.1055-1.166h.1699v8.5723Z" fill="#808184"/>
  </g>
  <g>
    <path d="m8.5196,194.2237h-2.8594v-.8848h2.8594v.8848Z" fill="#929497"/>
    <path d="m15.0528,197.4053h-5.5898v-.7793l2.9531-3.2812c.4375-.4961.7393-.8994.9053-1.21s.249-.6318.249-.9639c0-.4453-.1348-.8105-.4043-1.0957s-.6289-.4277-1.0781-.4277c-.5391,0-.958.1533-1.2568.46s-.4482.7334-.4482,1.2803h-1.084c0-.7852.2529-1.4199.7588-1.9043s1.1826-.7266,2.0303-.7266c.793,0,1.4199.208,1.8809.624s.6914.9697.6914,1.6611c0,.8398-.5352,1.8398-1.6055,3l-2.2852,2.4785h4.2832v.8848Z" fill="#929497"/>
    <path d="m21.5509,193.7667c0,1.2695-.2168,2.2129-.6504,2.8301s-1.1113.9258-2.0332.9258c-.9102,0-1.584-.3018-2.0215-.9053s-.6641-1.5049-.6797-2.7041v-1.4473c0-1.2539.2168-2.1855.6504-2.7949s1.1133-.9141,2.0391-.9141c.918,0,1.5938.2939,2.0273.8818s.6562,1.4951.668,2.7217v1.4062Zm-1.084-1.4824c0-.918-.1289-1.5869-.3867-2.0068s-.666-.6299-1.2246-.6299c-.5547,0-.959.209-1.2129.627s-.3848,1.0605-.3926,1.9277v1.7344c0,.9219.1338,1.6025.4014,2.042s.6729.6592,1.2158.6592c.5352,0,.9326-.207,1.1924-.6211s.3955-1.0664.4072-1.957v-1.7754Z" fill="#929497"/>
    <path d="m25.8165,190.5147c0-.5117.1631-.9336.4893-1.2656s.7451-.498,1.2568-.498c.5195,0,.9404.167,1.2627.501s.4834.7666.4834,1.2979v.416c0,.5156-.1631.9365-.4893,1.2627s-.7412.4893-1.2451.4893c-.5078,0-.9277-.1631-1.2598-.4893s-.498-.7607-.498-1.3037v-.4102Zm.8086.4487c0,.3057.0859.5571.2578.7549s.4023.2964.6914.2964c.2773,0,.501-.0957.6709-.2876s.2549-.4541.2549-.7871v-.4287c0-.3052-.084-.5581-.252-.7573-.168-.1997-.3965-.2998-.6855-.2998s-.5176.1001-.6855.2998c-.168.1992-.252.46-.252.7808v.4287Zm1.1953,5.7974l-.6152-.3867,4.166-6.668.6152.3867-4.166,6.668Zm2.1504-1.4473c0-.5117.1631-.9326.4893-1.2627s.7451-.4951,1.2568-.4951.9316.1641,1.2598.4922.4922.7637.4922,1.3066v.416c0,.5117-.1631.9326-.4893,1.2627s-.7432.4951-1.251.4951-.9277-.1631-1.2598-.4893-.498-.7607-.498-1.3037v-.4219Zm.8086.4546c0,.3091.0859.563.2578.7607s.4023.2964.6914.2964c.2812,0,.5059-.0967.6738-.2905s.252-.457.252-.79v-.4346c0-.3091-.085-.562-.2549-.7573-.1699-.1958-.3975-.2939-.6826-.2939-.2773,0-.5029.0972-.6768.2905-.1738.1938-.2607.4556-.2607.7842v.4346Z" fill="#929497"/>
  </g>
  <g>
    <path d="m8.5196,265.3404h-2.8594v-.8848h2.8594v.8848Z" fill="#929497"/>
    <path d="m14.0391,265.6568h1.1836v.8848h-1.1836v1.9805h-1.0898v-1.9805h-3.8848v-.6387l3.8203-5.9121h1.1543v5.666Zm-3.7441,0h2.6543v-4.1836l-.1289.2344-2.5254,3.9492Z" fill="#929497"/>
    <path d="m21.5509,264.8834c0,1.2695-.2168,2.2129-.6504,2.8301s-1.1113.9258-2.0332.9258c-.9102,0-1.584-.3018-2.0215-.9053s-.6641-1.5049-.6797-2.7041v-1.4473c0-1.2539.2168-2.1855.6504-2.7949s1.1133-.9141,2.0391-.9141c.918,0,1.5938.2939,2.0273.8818s.6562,1.4951.668,2.7217v1.4062Zm-1.084-1.4824c0-.918-.1289-1.5869-.3867-2.0068s-.666-.6299-1.2246-.6299c-.5547,0-.959.209-1.2129.627s-.3848,1.0605-.3926,1.9277v1.7344c0,.9219.1338,1.6025.4014,2.042s.6729.6592,1.2158.6592c.5352,0,.9326-.207,1.1924-.6211s.3955-1.0664.4072-1.957v-1.7754Z" fill="#929497"/>
    <path d="m25.8165,261.6314c0-.5117.1631-.9336.4893-1.2656s.7451-.498,1.2568-.498c.5195,0,.9404.167,1.2627.501s.4834.7666.4834,1.2979v.416c0,.5156-.1631.9365-.4893,1.2627s-.7412.4893-1.2451.4893c-.5078,0-.9277-.1631-1.2598-.4893s-.498-.7607-.498-1.3037v-.4102Zm.8086.4487c0,.3057.0859.5571.2578.7549s.4023.2964.6914.2964c.2773,0,.501-.0957.6709-.2876s.2549-.4541.2549-.7871v-.4287c0-.3052-.084-.5581-.252-.7573-.168-.1997-.3965-.2998-.6855-.2998s-.5176.1001-.6855.2998c-.168.1992-.252.46-.252.7808v.4287Zm1.1953,5.7974l-.6152-.3867,4.166-6.668.6152.3867-4.166,6.668Zm2.1504-1.4473c0-.5117.1631-.9326.4893-1.2627s.7451-.4951,1.2568-.4951.9316.1641,1.2598.4922.4922.7637.4922,1.3066v.416c0,.5117-.1631.9326-.4893,1.2627s-.7432.4951-1.251.4951-.9277-.1631-1.2598-.4893-.498-.7607-.498-1.3037v-.4219Zm.8086.4546c0,.3091.0859.563.2578.7607s.4023.2964.6914.2964c.2812,0,.5059-.0967.6738-.2905s.252-.457.252-.79v-.4346c0-.3091-.085-.562-.2549-.7573-.1699-.1958-.3975-.2939-.6826-.2939-.2773,0-.5029.0972-.6768.2905-.1738.1938-.2607.4556-.2607.7842v.4346Z" fill="#929497"/>
  </g>
  <g>
    <rect x="165.0289" y="126.4177" width="65.6226" height="20.3328" fill="#fff"/>
    <g>
      <path d="m179.648,141.6256c0-.332-.1172-.5869-.3516-.7646s-.6562-.3652-1.2656-.5625-1.0918-.3916-1.4473-.583c-.9688-.5234-1.4531-1.2285-1.4531-2.1152,0-.4609.1299-.8721.3896-1.2334s.6328-.6436,1.1191-.8467,1.0322-.3047,1.6377-.3047c.6094,0,1.1523.1104,1.6289.3311s.8467.5322,1.1104.9346.3955.8594.3955,1.3711h-1.7578c0-.3906-.123-.6943-.3691-.9111s-.5918-.3252-1.0371-.3252c-.4297,0-.7637.0908-1.002.2725s-.3574.4209-.3574.7178c0,.2773.1396.5098.4189.6973s.6904.3633,1.2334.5273c1,.3008,1.7285.6738,2.1855,1.1191s.6855,1,.6855,1.6641c0,.7383-.2793,1.3174-.8379,1.7373s-1.3105.6299-2.2559.6299c-.6562,0-1.2539-.1201-1.793-.3604s-.9502-.5693-1.2334-.9873-.4248-.9023-.4248-1.4531h1.7637c0,.9414.5625,1.4121,1.6875,1.4121.418,0,.7441-.085.9785-.2549s.3516-.4072.3516-.7119Z" fill="#0032a1"/>
      <path d="m184.5172,135.9654v1.5586h1.084v1.2422h-1.084v3.1641c0,.2344.0449.4023.1348.5039s.2617.1523.5156.1523c.1875,0,.3535-.0137.498-.041v1.2832c-.332.1016-.6738.1523-1.0254.1523-1.1875,0-1.793-.5996-1.8164-1.7988v-3.416h-.9258v-1.2422h.9258v-1.5586h1.6934Z" fill="#0032a1"/>
      <path d="m190.2183,143.8638c-.0781-.1523-.1348-.3418-.1699-.5684-.4102.457-.9434.6855-1.5996.6855-.6211,0-1.1357-.1797-1.5439-.5391s-.6123-.8125-.6123-1.3594c0-.6719.249-1.1875.7471-1.5469s1.2178-.541,2.1592-.5449h.7793v-.3633c0-.293-.0752-.5273-.2256-.7031s-.3877-.2637-.7119-.2637c-.2852,0-.5088.0684-.6709.2051s-.2432.3242-.2432.5625h-1.6934c0-.3672.1133-.707.3398-1.0195s.5469-.5576.9609-.7354.8789-.2666,1.3945-.2666c.7812,0,1.4014.1963,1.8604.5889s.6885.9443.6885,1.6553v2.748c.0039.6016.0879,1.0566.252,1.3652v.0996h-1.7109Zm-1.4004-1.1777c.25,0,.4805-.0557.6914-.167s.3672-.2607.4688-.4482v-1.0898h-.6328c-.8477,0-1.2988.293-1.3535.8789l-.0059.0996c0,.2109.0742.3848.2227.5215s.3516.2051.6094.2051Z" fill="#0032a1"/>
      <path d="m195.2633,141.7955l1.1777-4.2715h1.7695l-2.1387,6.3398h-1.6172l-2.1387-6.3398h1.7695l1.1777,4.2715Z" fill="#0032a1"/>
      <path d="m204.316,141.7955l1.1777-4.2715h1.7695l-2.1387,6.3398h-1.6172l-2.1387-6.3398h1.7695l1.1777,4.2715Z" fill="#0032a1"/>
      <path d="m217.8043,141.022c-.0664.918-.4053,1.6406-1.0166,2.168s-1.417.791-2.417.791c-1.0938,0-1.9541-.3682-2.5811-1.1045s-.9404-1.7471-.9404-3.0322v-.5215c0-.8203.1445-1.543.4336-2.168s.7021-1.1045,1.2393-1.4385,1.1611-.501,1.8721-.501c.9844,0,1.7773.2637,2.3789.791s.9492,1.2676,1.043,2.2207h-1.7578c-.043-.5508-.1963-.9502-.46-1.1982s-.665-.3721-1.2041-.3721c-.5859,0-1.0244.21-1.3154.6299s-.4404,1.0713-.4482,1.9541v.6445c0,.9219.1396,1.5957.4189,2.0215s.7197.6387,1.3213.6387c.543,0,.9482-.124,1.2158-.3721s.4209-.6318.46-1.1514h1.7578Zm-3.4277-7.1895l.8555-.8379h1.4473v.0645l-1.7695,1.6465h-1.0723l-1.7695-1.6582v-.0527h1.4473l.8613.8379Z" fill="#0032a1"/>
      <path d="m222.1168,140.7408h-1.4004v3.123h-1.7578v-8.5312h3.1699c1.0078,0,1.7852.2246,2.332.6738s.8203,1.084.8203,1.9043c0,.582-.126,1.0674-.3779,1.4561s-.6338.6982-1.1455.9287l1.8457,3.4863v.082h-1.8867l-1.5996-3.123Zm-1.4004-1.4238h1.418c.4414,0,.7832-.1123,1.0254-.3369s.3633-.5342.3633-.9287c0-.4023-.1143-.7188-.3428-.9492s-.5791-.3457-1.0518-.3457h-1.4121v2.5605Z" fill="#0032a1"/>
    </g>
  </g>
  <g>
    <path d="m8.5196,336.4573h-2.8594v-.8848h2.8594v.8848Z" fill="#929497"/>
    <path d="m13.7169,331.1019v.9199h-.1992c-.8438.0156-1.5156.2656-2.0156.75s-.7891,1.166-.8672,2.0449c.4492-.5156,1.0625-.7734,1.8398-.7734.7422,0,1.335.2617,1.7783.7852s.665,1.1992.665,2.0273c0,.8789-.2393,1.582-.7178,2.1094s-1.1201.791-1.9248.791c-.8164,0-1.4785-.3135-1.9863-.9404s-.7617-1.4346-.7617-2.4229v-.416c0-1.5703.335-2.7705,1.0049-3.6006s1.667-1.2549,2.9912-1.2744h.1934Zm-1.4238,3.8438c-.3711,0-.7129.1113-1.0254.334s-.5293.502-.6504.8379v.3984c0,.7031.1582,1.2695.4746,1.6992s.7109.6445,1.1836.6445c.4883,0,.8721-.1797,1.1514-.5391s.4189-.8301.4189-1.4121c0-.5859-.1416-1.0596-.4248-1.4209s-.6592-.542-1.1279-.542Z" fill="#929497"/>
    <path d="m21.5509,336.0003c0,1.2695-.2168,2.2129-.6504,2.8301s-1.1113.9258-2.0332.9258c-.9102,0-1.584-.3018-2.0215-.9053s-.6641-1.5049-.6797-2.7041v-1.4473c0-1.2539.2168-2.1855.6504-2.7949s1.1133-.9141,2.0391-.9141c.918,0,1.5938.2939,2.0273.8818s.6562,1.4951.668,2.7217v1.4062Zm-1.084-1.4824c0-.918-.1289-1.5869-.3867-2.0068s-.666-.6299-1.2246-.6299c-.5547,0-.959.209-1.2129.627s-.3848,1.0605-.3926,1.9277v1.7344c0,.9219.1338,1.6025.4014,2.042s.6729.6592,1.2158.6592c.5352,0,.9326-.207,1.1924-.6211s.3955-1.0664.4072-1.957v-1.7754Z" fill="#929497"/>
    <path d="m25.8165,332.7484c0-.5117.1631-.9336.4893-1.2656s.7451-.498,1.2568-.498c.5195,0,.9404.167,1.2627.501s.4834.7666.4834,1.2979v.416c0,.5156-.1631.9365-.4893,1.2627s-.7412.4893-1.2451.4893c-.5078,0-.9277-.1631-1.2598-.4893s-.498-.7607-.498-1.3037v-.4102Zm.8086.4492c0,.3057.0859.5566.2578.7549.1719.1973.4023.2959.6914.2959.2773,0,.501-.0957.6709-.2871.1699-.1924.2549-.4541.2549-.7871v-.4287c0-.3057-.084-.5586-.252-.7578s-.3965-.2998-.6855-.2998-.5176.1006-.6855.2998-.252.46-.252.7812v.4287Zm1.1953,5.7969l-.6152-.3867,4.166-6.668.6152.3867-4.166,6.668Zm2.1504-1.4473c0-.5117.1631-.9326.4893-1.2627s.7451-.4951,1.2568-.4951.9316.1641,1.2598.4922.4922.7637.4922,1.3066v.416c0,.5117-.1631.9326-.4893,1.2627s-.7432.4951-1.251.4951-.9277-.1631-1.2598-.4893-.498-.7607-.498-1.3037v-.4219Zm.8086.4551c0,.3086.0859.5625.2578.7607.1719.1973.4023.2959.6914.2959.2812,0,.5059-.0967.6738-.29.168-.1943.252-.457.252-.79v-.4346c0-.3096-.085-.5625-.2549-.7578s-.3975-.2939-.6826-.2939c-.2773,0-.5029.0977-.6768.291s-.2607.4551-.2607.7842v.4346Z" fill="#929497"/>
  </g>
  <path d="m43.1773,98.7126v7.5426" fill="none" stroke="#aaaaad" stroke-miterlimit="10" stroke-width=".5"/>
  <path d="m303.128,98.7126v7.5426" fill="none" stroke="#aaaaad" stroke-miterlimit="10" stroke-width=".5"/>
  <path d="m243.024,98.7126v7.5426" fill="none" stroke="#aaaaad" stroke-miterlimit="10" stroke-width=".5"/>
  <rect x="240.6069" y="162.5152" width="42.7368" height="19.8506" fill="#fff"/>
  <g>
    <path d="m250.9063,175.7247h-3.8486v-1.5928h3.8486v1.5928Z" fill="#0032a1"/>
    <path d="m257.2091,179.1905h-1.9756v-7.6152l-2.3584.7314v-1.6064l4.1221-1.4766h.2119v9.9668Z" fill="#0032a1"/>
    <path d="m267.21,170.3402l-3.8486,8.8503h-2.085l3.8555-8.3604h-4.9492v-1.5928h7.0273v1.1028Z" fill="#0032a1"/>
    <path d="m271.9337,171.1514c0-.6106.1982-1.1062.5947-1.4868.3965-.3804.916-.5708,1.5586-.5708.6519,0,1.1758.188,1.5723.564s.5947.8853.5947,1.5278v.4922c0,.6152-.1982,1.1099-.5947,1.4834-.3965.3738-.916.5605-1.5586.5605-.647,0-1.1699-.188-1.5688-.564s-.5981-.8828-.5981-1.521v-.4854Zm1.3125.5264c0,.2734.0786.4934.2358.6597.1572.1665.3633.2495.6187.2495s.458-.0842.6084-.2529c.1504-.1685.2256-.394.2256-.6768v-.5059c0-.2734-.0752-.4944-.2256-.6631-.1504-.1685-.3579-.2529-.6221-.2529-.2505,0-.4536.0833-.6084.2495-.1548.1665-.2324.3977-.2324.6938v.499Zm1.2441,6.7676l-.9639-.5195,4.8604-7.7793.9639.5195-4.8604,7.7793Zm2.2012-1.6953c0-.6152.2007-1.1108.6016-1.4868s.9204-.564,1.5586-.564c.647,0,1.1699.1858,1.5688.5571.3989.3716.5981.8831.5981,1.5347v.4922c0,.6108-.1958,1.104-.5879,1.48s-.9136.564-1.5654.564c-.6562,0-1.1826-.189-1.5791-.5674-.3965-.3782-.5947-.8794-.5947-1.5039v-.5059Zm1.3125.5332c0,.2507.082.4648.2461.6426s.3691.2666.6152.2666c.5562,0,.834-.3076.834-.9229v-.5195c0-.2734-.0776-.4932-.2324-.6597-.1548-.1663-.3599-.2495-.6152-.2495s-.4604.0833-.6152.2495c-.1548.1665-.2324.3931-.2324.6802v.5127Z" fill="#0032a1"/>
  </g>
  <g>
    <path d="m20.3624,20.6888c0-.498-.1758-.8804-.5273-1.147s-.9844-.5479-1.8984-.8438-1.6377-.5874-2.1709-.8745c-1.4531-.7852-2.1797-1.8428-2.1797-3.1729,0-.6914.1948-1.3081.5845-1.8501s.9492-.9653,1.6787-1.27,1.5483-.457,2.4565-.457c.9141,0,1.7285.1655,2.4434.4966s1.27.7983,1.6655,1.4019.5933,1.2891.5933,2.0566h-2.6367c0-.5859-.1846-1.0415-.5537-1.3667s-.8877-.4878-1.5557-.4878c-.6445,0-1.1455.1362-1.5029.4087s-.5361.6313-.5361,1.0767c0,.416.2095.7646.6284,1.0459s1.0356.5449,1.8501.791c1.5.4512,2.5928,1.0107,3.2783,1.6787s1.0283,1.5,1.0283,2.4961c0,1.1074-.4189,1.9761-1.2568,2.606s-1.9658.9448-3.3838.9448c-.9844,0-1.8809-.1802-2.6895-.5405s-1.4253-.854-1.8501-1.481-.6372-1.3535-.6372-2.1797h2.6455c0,1.4121.8438,2.1182,2.5312,2.1182.627,0,1.1162-.1274,1.4678-.3823s.5273-.6108.5273-1.0679Z" fill="#2a2b33"/>
    <path d="m26.963,14.5364l.0791,1.0986c.6797-.8496,1.5908-1.2744,2.7334-1.2744,1.0078,0,1.7578.2959,2.25.8877s.7441,1.4766.7559,2.6543v6.1436h-2.54v-6.082c0-.5391-.1172-.9302-.3516-1.1733s-.624-.3647-1.1689-.3647c-.7148,0-1.251.3047-1.6084.9141v6.7061h-2.54v-9.5098h2.3906Z" fill="#2a2b33"/>
    <path d="m37.4483,24.0462h-2.54v-9.5098h2.54v9.5098Zm-.7471-13.3682h2.7686l-2.4346,2.7246h-2.0654l1.7314-2.7246Z" fill="#2a2b33"/>
    <path d="m42.5548,21.9984h4.6494v2.0479h-7.8926v-1.5469l4.4736-5.915h-4.3418v-2.0479h7.6201v1.4966l-4.5088,5.9653Zm.6943-10.2041l1.2832-1.2568h2.1709v.0967l-2.6543,2.4697h-1.6084l-2.6543-2.4873v-.0791h2.1709l1.292,1.2568Z" fill="#2a2b33"/>
    <path d="m53.0313,24.222c-1.3945,0-2.5298-.4277-3.4058-1.2832s-1.314-1.9951-1.314-3.4189v-.2461c0-.9551.1846-1.8091.5537-2.562s.8921-1.333,1.5688-1.7402,1.4487-.6108,2.3159-.6108c1.3008,0,2.3247.4102,3.0718,1.2305s1.1206,1.9834,1.1206,3.4893v1.0371h-6.0557c.082.6211.3296,1.1191.7427,1.4941s.936.5625,1.5688.5625c.9785,0,1.7432-.3545,2.2939-1.0635l1.248,1.3975c-.3809.5391-.8965.9595-1.5469,1.2612s-1.3711.4526-2.1621.4526Zm-.29-7.8135c-.5039,0-.9126.1709-1.2261.5122s-.5142.8301-.6021,1.4653h3.5332v-.2031c-.0117-.5649-.1641-1.002-.457-1.311-.293-.3086-.709-.4634-1.248-.4634Z" fill="#2a2b33"/>
    <path d="m60.7218,14.5364l.0791,1.0986c.6797-.8496,1.5908-1.2744,2.7334-1.2744,1.0078,0,1.7578.2959,2.25.8877s.7441,1.4766.7559,2.6543v6.1436h-2.54v-6.082c0-.5391-.1172-.9302-.3516-1.1733s-.624-.3647-1.1689-.3647c-.7148,0-1.251.3047-1.6084.9141v6.7061h-2.54v-9.5098h2.3906Z" fill="#2a2b33"/>
    <path d="m71.2071,24.0462h-2.54v-9.5098h2.54v9.5098Zm-.7471-13.3682h2.7686l-2.4346,2.7246h-2.0654l1.7314-2.7246Z" fill="#2a2b33"/>
    <path d="m82.255,24.222c-1.3945,0-2.5298-.4277-3.4058-1.2832s-1.314-1.9951-1.314-3.4189v-.2461c0-.9551.1846-1.8091.5537-2.562s.8921-1.333,1.5688-1.7402,1.4487-.6108,2.3159-.6108c1.3008,0,2.3247.4102,3.0718,1.2305s1.1206,1.9834,1.1206,3.4893v1.0371h-6.0557c.082.6211.3296,1.1191.7427,1.4941s.936.5625,1.5688.5625c.9785,0,1.7432-.3545,2.2939-1.0635l1.248,1.3975c-.3809.5391-.8965.9595-1.5469,1.2612s-1.3711.4526-2.1621.4526Zm-.29-7.8135c-.5039,0-.9126.1709-1.2261.5122s-.5142.8301-.6021,1.4653h3.5332v-.2031c-.0117-.5649-.1641-1.002-.457-1.311-.293-.3086-.709-.4634-1.248-.4634Z" fill="#2a2b33"/>
    <path d="m89.9893,14.5364l.0791,1.0635c.6738-.8262,1.585-1.2393,2.7334-1.2393,1.2246,0,2.0654.4834,2.5225,1.4502.668-.9668,1.6201-1.4502,2.8564-1.4502,1.0312,0,1.7988.3003,2.3027.9009s.7559,1.5044.7559,2.7114v6.0732h-2.5488v-6.0645c0-.5391-.1055-.9331-.3164-1.1821s-.583-.3735-1.1162-.3735c-.7617,0-1.2891.3633-1.582,1.0898l.0088,6.5303h-2.54v-6.0557c0-.5508-.1084-.9492-.3252-1.1953s-.5859-.3691-1.1074-.3691c-.7207,0-1.2422.2988-1.5645.8965v6.7236h-2.54v-9.5098h2.3818Z" fill="#2a2b33"/>
    <path d="m103.1729,12.0755c0-.3809.1274-.6943.3823-.9404s.6021-.3691,1.0415-.3691c.4336,0,.7793.123,1.0371.3691s.3867.5596.3867.9404c0,.3867-.1304.7031-.3911.9492s-.605.3691-1.0327.3691-.772-.123-1.0327-.3691-.3911-.5625-.3911-.9492Zm2.6982,11.9707h-2.5488v-9.5098h2.5488v9.5098Z" fill="#2a2b33"/>
    <path d="m113.1134,21.4183c0-.3105-.1538-.5552-.4614-.7339s-.8013-.3384-1.481-.479c-2.2617-.4746-3.3926-1.4355-3.3926-2.8828,0-.8438.3501-1.5483,1.0503-2.1138s1.6157-.8481,2.7466-.8481c1.207,0,2.1724.2842,2.896.8525s1.0854,1.3066,1.0854,2.2148h-2.54c0-.3633-.1172-.6636-.3516-.9009s-.6006-.356-1.0986-.356c-.4277,0-.7588.0967-.9932.29s-.3516.4395-.3516.7383c0,.2812.1333.5083.3999.6812s.7163.3223,1.3491.4482,1.166.2681,1.5996.4263c1.3418.4922,2.0127,1.3447,2.0127,2.5576,0,.8672-.3721,1.5688-1.1162,2.105s-1.7051.8042-2.8828.8042c-.7969,0-1.5044-.1421-2.1226-.4263s-1.103-.6738-1.4546-1.1689-.5273-1.0298-.5273-1.604h2.4082c.0234.4512.1904.7969.501,1.0371s.7266.3604,1.248.3604c.4863,0,.854-.0923,1.103-.2769s.3735-.4263.3735-.7251Z" fill="#2a2b33"/>
    <path d="m119.96,24.0462h-2.54v-9.5098h2.54v9.5098Zm-.7471-13.3682h2.7686l-2.4346,2.7246h-2.0654l1.7314-2.7246Z" fill="#2a2b33"/>
    <path d="m130.1905,20.9437l1.7666-6.4072h2.6543l-3.208,9.5098h-2.4258l-3.208-9.5098h2.6543l1.7666,6.4072Z" fill="#2a2b33"/>
    <path d="m148.7794,19.3792c0,1.5234-.3252,2.7114-.9756,3.564s-1.5586,1.2788-2.7246,1.2788c-1.0312,0-1.8545-.3955-2.4697-1.1865l-.1143,1.0107h-2.2852v-13.5h2.54v4.8428c.5859-.6855,1.3564-1.0283,2.3115-1.0283,1.1602,0,2.0698.4263,2.729,1.2788s.9888,2.0522.9888,3.5991v.1406Zm-2.54-.1846c0-.9609-.1523-1.6626-.457-2.105s-.7588-.6636-1.3623-.6636c-.8086,0-1.3652.3311-1.6699.9932v3.7529c.3105.668.873,1.002,1.6875,1.002.8203,0,1.3594-.4043,1.6172-1.2129.123-.3867.1846-.9756.1846-1.7666Z" fill="#2a2b33"/>
    <path d="m156.0391,23.0794c-.627.7617-1.4941,1.1426-2.6016,1.1426-1.0195,0-1.7974-.293-2.3335-.8789s-.8101-1.4443-.8218-2.5752v-6.2314h2.54v6.1509c0,.9912.4512,1.4868,1.3535,1.4868.8613,0,1.4531-.2988,1.7754-.8975v-6.7402h2.5488v9.5098h-2.3906l-.0703-.9668Z" fill="#2a2b33"/>
    <path d="m160.0206,19.221c0-1.4824.3325-2.6631.9976-3.542s1.5747-1.3184,2.729-1.3184c.9258,0,1.6904.3457,2.2939,1.0371v-4.8516h2.5488v13.5h-2.2939l-.123-1.0107c-.6328.791-1.4473,1.1865-2.4434,1.1865-1.1191,0-2.0171-.4409-2.6938-1.3228s-1.0151-2.1079-1.0151-3.6782Zm2.54.1895c0,.8921.1553,1.5757.4658,2.0508.3105.4756.7617.7129,1.3535.7129.7852,0,1.3389-.3315,1.6611-.9946v-3.7588c-.3164-.6631-.8643-.9946-1.6436-.9946-1.2246,0-1.8369.9946-1.8369,2.9844Z" fill="#2a2b33"/>
    <path d="m170.1632,19.2034c0-.9434.1816-1.7842.5449-2.5225s.8862-1.3096,1.5688-1.7139,1.4751-.6064,2.3774-.6064c1.2832,0,2.3306.3926,3.1421,1.1777s1.2642,1.8516,1.3579,3.1992l.0176.6504c0,1.459-.4072,2.6294-1.2217,3.5112s-1.9072,1.3228-3.2783,1.3228-2.4653-.4395-3.2827-1.3184-1.2261-2.0742-1.2261-3.5859v-.1143Zm2.54.1807c0,.9033.1699,1.5947.5098,2.0728.3398.4785.8262.7173,1.459.7173.6152,0,1.0957-.2363,1.4414-.7085.3457-.4727.5186-1.228.5186-2.2666,0-.8862-.1729-1.5728-.5186-2.0601-.3457-.4868-.832-.7305-1.459-.7305-.6211,0-1.1016.2422-1.4414.7261-.3398.4844-.5098,1.2344-.5098,2.2495Z" fill="#2a2b33"/>
    <path d="m184.1641,20.9437l1.7666-6.4072h2.6543l-3.208,9.5098h-2.4258l-3.208-9.5098h2.6543l1.7666,6.4072Z" fill="#2a2b33"/>
    <path d="m19.0704,42.0462c-.1172-.2285-.2021-.5127-.2549-.8525-.6152.6855-1.415,1.0283-2.3994,1.0283-.9316,0-1.7036-.2695-2.3159-.8086s-.9185-1.2188-.9185-2.0391c0-1.0078.3735-1.7812,1.1206-2.3203s1.8267-.8115,3.2388-.8174h1.1689v-.5449c0-.4395-.1128-.791-.3384-1.0547s-.5815-.3955-1.0679-.3955c-.4277,0-.7632.1025-1.0063.3076s-.3647.4863-.3647.8438h-2.54c0-.5508.1699-1.0605.5098-1.5293s.8203-.8364,1.4414-1.103,1.3184-.3999,2.0918-.3999c1.1719,0,2.1021.2944,2.7905.8833s1.0327,1.4165,1.0327,2.4829v4.1221c.0059.9023.1318,1.585.3779,2.0479v.1494h-2.5664Zm-2.1006-1.7666c.375,0,.7207-.0835,1.0371-.2505s.5508-.3911.7031-.6724v-1.6348h-.9492c-1.2715,0-1.9482.4395-2.0303,1.3184l-.0088.1494c0,.3164.1113.5771.334.7822s.5273.3076.9141.3076Z" fill="#2a2b33"/>
    <path d="m32.8429,39.4183c0-.3105-.1538-.5552-.4614-.7339s-.8013-.3384-1.481-.479c-2.2617-.4746-3.3926-1.4355-3.3926-2.8828,0-.8438.3501-1.5483,1.0503-2.1138s1.6157-.8481,2.7466-.8481c1.207,0,2.1724.2842,2.896.8525s1.0854,1.3066,1.0854,2.2148h-2.54c0-.3633-.1172-.6636-.3516-.9009s-.6006-.356-1.0986-.356c-.4277,0-.7588.0967-.9932.29s-.3516.4395-.3516.7383c0,.2812.1333.5083.3999.6812s.7163.3223,1.3491.4482,1.166.2681,1.5996.4263c1.3418.4922,2.0127,1.3447,2.0127,2.5576,0,.8672-.3721,1.5688-1.1162,2.105s-1.7051.8042-2.8828.8042c-.7969,0-1.5044-.1421-2.1226-.4263s-1.103-.6738-1.4546-1.1689-.5273-1.0298-.5273-1.604h2.4082c.0234.4512.1904.7969.501,1.0371s.7266.3604,1.248.3604c.4863,0,.854-.0923,1.103-.2769s.3735-.4263.3735-.7251Z" fill="#2a2b33"/>
    <path d="m36.9298,30.0755c0-.3809.1274-.6943.3823-.9404s.6021-.3691,1.0415-.3691c.4336,0,.7793.123,1.0371.3691s.3867.5596.3867.9404c0,.3867-.1304.7031-.3911.9492s-.605.3691-1.0327.3691-.772-.123-1.0327-.3691-.3911-.5625-.3911-.9492Zm2.6982,11.9707h-2.5488v-9.5098h2.5488v9.5098Z" fill="#2a2b33"/>
    <path d="m44.4005,42.0462h-2.5488v-13.5h2.5488v13.5Z" fill="#2a2b33"/>
    <path d="m48.8302,32.5364l.0791,1.0986c.6797-.8496,1.5908-1.2744,2.7334-1.2744,1.0078,0,1.7578.2959,2.25.8877s.7441,1.4766.7559,2.6543v6.1436h-2.54v-6.082c0-.5391-.1172-.9302-.3516-1.1733s-.624-.3647-1.1689-.3647c-.7148,0-1.251.3047-1.6084.9141v6.7061h-2.54v-9.5098h2.3906Z" fill="#2a2b33"/>
    <path d="m56.5557,30.0755c0-.3809.1274-.6943.3823-.9404s.6021-.3691,1.0415-.3691c.4336,0,.7793.123,1.0371.3691s.3867.5596.3867.9404c0,.3867-.1304.7031-.3911.9492s-.605.3691-1.0327.3691-.772-.123-1.0327-.3691-.3911-.5625-.3911-.9492Zm2.6982,11.9707h-2.5488v-9.5098h2.5488v9.5098Z" fill="#2a2b33"/>
    <path d="m65.3009,40.1741c.4688,0,.8496-.1289,1.1426-.3867s.4453-.6006.457-1.0283h2.3818c-.0059.6445-.1816,1.2349-.5273,1.771s-.8188.9521-1.4194,1.248-1.2642.4438-1.9907.4438c-1.3594,0-2.4316-.4321-3.2168-1.2964s-1.1777-2.0581-1.1777-3.5815v-.167c0-1.4648.3896-2.6338,1.1689-3.5068s1.8486-1.3096,3.208-1.3096c1.1895,0,2.1431.3384,2.8608,1.0151s1.0825,1.5776,1.0942,2.7026h-2.3818c-.0117-.4946-.1641-.8965-.457-1.2061-.293-.3091-.6797-.4639-1.1602-.4639-.5918,0-1.0386.2158-1.3403.647-.3018.4316-.4526,1.1313-.4526,2.0996v.2642c0,.98.1494,1.6841.4482,2.1123.2988.4287.7529.6426,1.3623.6426Zm-.2373-10.3799l1.2832-1.2568h2.1709v.0967l-2.6543,2.4697h-1.6084l-2.6543-2.4873v-.0791h2.1709l1.292,1.2568Z" fill="#2a2b33"/>
    <path d="m73.0704,32.5364l.0791,1.0986c.6797-.8496,1.5908-1.2744,2.7334-1.2744,1.0078,0,1.7578.2959,2.25.8877s.7441,1.4766.7559,2.6543v6.1436h-2.54v-6.082c0-.5391-.1172-.9302-.3516-1.1733s-.624-.3647-1.1689-.3647c-.7148,0-1.251.3047-1.6084.9141v6.7061h-2.54v-9.5098h2.3906Z" fill="#2a2b33"/>
    <path d="m83.5557,42.0462h-2.54v-9.5098h2.54v9.5098Zm-.7471-13.3682h2.7686l-2.4346,2.7246h-2.0654l1.7314-2.7246Z" fill="#2a2b33"/>
    <path d="m89.8311,37.221c0-1.4824.3325-2.6631.9976-3.542s1.5747-1.3184,2.729-1.3184c.9258,0,1.6904.3457,2.2939,1.0371v-4.8516h2.5488v13.5h-2.2939l-.123-1.0107c-.6328.791-1.4473,1.1865-2.4434,1.1865-1.1191,0-2.0171-.4409-2.6938-1.3228s-1.0151-2.1079-1.0151-3.6782Zm2.54.1895c0,.8921.1553,1.5757.4658,2.0508.3105.4756.7617.7129,1.3535.7129.7852,0,1.3389-.3315,1.6611-.9946v-3.7588c-.3164-.6631-.8643-.9946-1.6436-.9946-1.2246,0-1.8369.9946-1.8369,2.9844Z" fill="#2a2b33"/>
    <path d="m99.9737,37.2034c0-.9434.1816-1.7842.5449-2.5225s.8862-1.3096,1.5688-1.7139,1.4751-.6064,2.3774-.6064c1.2832,0,2.3306.3926,3.1421,1.1777s1.2642,1.8516,1.3579,3.1992l.0176.6504c0,1.459-.4072,2.6294-1.2217,3.5112s-1.9072,1.3228-3.2783,1.3228-2.4653-.4395-3.2827-1.3184-1.2261-2.0742-1.2261-3.5859v-.1143Zm2.54.1807c0,.9033.1699,1.5947.5098,2.0728.3398.4785.8262.7173,1.459.7173.6152,0,1.0957-.2363,1.4414-.7085.3457-.4727.5186-1.228.5186-2.2666,0-.8862-.1729-1.5728-.5186-2.0601-.3457-.4868-.832-.7305-1.459-.7305-.6211,0-1.1016.2422-1.4414.7261-.3398.4844-.5098,1.2344-.5098,2.2495Z" fill="#2a2b33"/>
    <path d="m119.1075,37.3792c0,1.4648-.3325,2.6382-.9976,3.52s-1.563,1.3228-2.6938,1.3228c-.9609,0-1.7373-.334-2.3291-1.002v4.4824h-2.54v-13.166h2.3555l.0879.9316c.6152-.7383,1.418-1.1074,2.4082-1.1074,1.1719,0,2.083.4336,2.7334,1.3008s.9756,2.0625.9756,3.5859v.1318Zm-2.54-.1846c0-.8848-.1567-1.5674-.4702-2.0479s-.769-.7207-1.3667-.7207c-.7969,0-1.3447.3047-1.6436.9141v3.8936c.3105.627.8643.9404,1.6611.9404,1.2129,0,1.8193-.9932,1.8193-2.9795Z" fill="#2a2b33"/>
    <path d="m126.0245,34.9183c-.3457-.0469-.6504-.0703-.9141-.0703-.9609,0-1.5908.3252-1.8896.9756v6.2227h-2.54v-9.5098h2.3994l.0703,1.1338c.5098-.873,1.2158-1.3096,2.1182-1.3096.2812,0,.5449.0381.791.1143l-.0352,2.4434Z" fill="#2a2b33"/>
    <path d="m132.4932,42.0462c-.1172-.2285-.2021-.5127-.2549-.8525-.6152.6855-1.415,1.0283-2.3994,1.0283-.9316,0-1.7036-.2695-2.3159-.8086s-.9185-1.2188-.9185-2.0391c0-1.0078.3735-1.7812,1.1206-2.3203s1.8267-.8115,3.2388-.8174h1.1689v-.5449c0-.4395-.1128-.791-.3384-1.0547s-.5815-.3955-1.0679-.3955c-.4277,0-.7632.1025-1.0063.3076s-.3647.4863-.3647.8438h-2.54c0-.5508.1699-1.0605.5098-1.5293s.8203-.8364,1.4414-1.103,1.3184-.3999,2.0918-.3999c1.1719,0,2.1021.2944,2.7905.8833s1.0327,1.4165,1.0327,2.4829v4.1221c.0059.9023.1318,1.585.3779,2.0479v.1494h-2.5664Zm-2.1006-1.7666c.375,0,.7207-.0835,1.0371-.2505s.5508-.3911.7031-.6724v-1.6348h-.9492c-1.2715,0-1.9482.4395-2.0303,1.3184l-.0088.1494c0,.3164.1113.5771.334.7822s.5273.3076.9141.3076Z" fill="#2a2b33"/>
    <path d="m140.0606,38.9437l1.7666-6.4072h2.6543l-3.208,9.5098h-2.4258l-3.208-9.5098h2.6543l1.7666,6.4072Z" fill="#2a2b33"/>
    <path d="m149.1485,38.4515l1.7578-5.915h2.7246l-3.8232,10.9863-.2109.501c-.5684,1.2422-1.5059,1.8633-2.8125,1.8633-.3691,0-.7441-.0557-1.125-.167v-1.9248l.3867.0088c.4805,0,.8394-.0732,1.0767-.2197s.4233-.3896.5581-.7295l.2988-.7822-3.3311-9.5361h2.7334l1.7666,5.915Z" fill="#2a2b33"/>
    <path d="m159.2296,36.8431c0-1.3418.1787-2.6191.5361-3.832s.8848-2.2866,1.582-3.2212,1.4531-1.5835,2.2676-1.9468l.4922,1.3711c-.8555.6328-1.5234,1.6113-2.0039,2.9355s-.7207,2.8711-.7207,4.6406v.2725c0,1.7754.2373,3.3281.7119,4.6582s1.1455,2.3232,2.0127,2.9795l-.4922,1.3447c-.7969-.3574-1.5396-.9888-2.228-1.894s-1.2144-1.9497-1.5776-3.1333-.5566-2.4199-.5801-3.709v-.4658Z" fill="#2a2b33"/>
    <path d="m173.3009,36.5003h-5.0625v3.4277h5.9414v2.1182h-8.5781v-12.7969h8.5605v2.1357h-5.9238v3.0498h5.0625v2.0654Z" fill="#2a2b33"/>
    <path d="m185.4122,29.2493v8.4287c0,1.4004-.438,2.5078-1.314,3.3223s-2.0728,1.2217-3.5903,1.2217c-1.4941,0-2.6807-.3955-3.5596-1.1865s-1.3271-1.8779-1.3447-3.2607v-8.5254h2.6367v8.4463c0,.8379.2007,1.4487.6021,1.8325s.9565.5757,1.6655.5757c1.4824,0,2.2354-.7793,2.2588-2.3379v-8.5166h2.6455Z" fill="#2a2b33"/>
    <path d="m199.7559,36.5003h-5.0625v3.4277h5.9414v2.1182h-8.5781v-12.7969h8.5605v2.1357h-5.9238v3.0498h5.0625v2.0654Z" fill="#2a2b33"/>
    <path d="m211.9903,31.3851h-3.9199v10.6611h-2.6367v-10.6611h-3.8672v-2.1357h10.4238v2.1357Z" fill="#2a2b33"/>
    <path d="m219.9884,38.6888c0-.498-.1758-.8804-.5273-1.147s-.9844-.5479-1.8984-.8438-1.6377-.5874-2.1709-.8745c-1.4531-.7852-2.1797-1.8428-2.1797-3.1729,0-.6914.1948-1.3081.5845-1.8501s.9492-.9653,1.6787-1.27,1.5483-.457,2.4565-.457c.9141,0,1.7285.1655,2.4434.4966s1.27.7983,1.6655,1.4019.5933,1.2891.5933,2.0566h-2.6367c0-.5859-.1846-1.0415-.5537-1.3667s-.8877-.4878-1.5557-.4878c-.6445,0-1.1455.1362-1.5029.4087s-.5361.6313-.5361,1.0767c0,.416.2095.7646.6284,1.0459s1.0356.5449,1.8501.791c1.5.4512,2.5928,1.0107,3.2783,1.6787s1.0283,1.5,1.0283,2.4961c0,1.1074-.4189,1.9761-1.2568,2.606s-1.9658.9448-3.3838.9448c-.9844,0-1.8809-.1802-2.6895-.5405s-1.4253-.854-1.8501-1.481-.6372-1.3535-.6372-2.1797h2.6455c0,1.4121.8438,2.1182,2.5312,2.1182.627,0,1.1162-.1274,1.4678-.3823s.5273-.6108.5273-1.0679Z" fill="#2a2b33"/>
    <path d="m237.3995,42.0462h-8.7715v-1.7402l4.1396-4.4121c.5684-.6211.9888-1.1631,1.2612-1.626s.4087-.9023.4087-1.3184c0-.5684-.1436-1.0151-.4307-1.3403s-.6973-.4878-1.2305-.4878c-.5742,0-1.0269.1978-1.3579.5933s-.4966.9155-.4966,1.5601h-2.5488c0-.7793.186-1.4912.5581-2.1357s.8979-1.1499,1.5776-1.5161,1.4502-.5493,2.3115-.5493c1.3184,0,2.3423.3164,3.0718.9492s1.0942,1.5264,1.0942,2.6807c0,.6328-.1641,1.2773-.4922,1.9336s-.8906,1.4209-1.6875,2.2939l-2.9092,3.0674h5.502v2.0479Z" fill="#2a2b33"/>
    <path d="m243.4376,37.0452c0,1.3242-.1904,2.5986-.5713,3.8232s-.9287,2.3057-1.6436,3.2432-1.4795,1.582-2.2939,1.9336l-.4922-1.3447c.832-.627,1.4883-1.5938,1.9688-2.9004s.7295-2.8096.7471-4.5088v-.4658c0-1.752-.2388-3.2959-.7163-4.6318s-1.144-2.3379-1.9995-3.0059l.4922-1.3447c.7969.3457,1.5483.9727,2.2544,1.8809s1.2539,1.9658,1.6436,3.1729.5933,2.458.6108,3.7529v.3955Z" fill="#2a2b33"/>
    <path d="m13.4932,54.8065c0-1.0298.1377-2.019.4136-2.9668s.687-1.8091,1.2339-2.584,1.1143-1.3218,1.7021-1.6406l.2598.834c-.6655.5103-1.2109,1.2896-1.6372,2.3379s-.6597,2.2217-.7007,3.5205l-.0068.5811c0,1.7593.3213,3.2856.9639,4.5801.3872.7744.8477,1.3809,1.3809,1.8184l-.2598.7725c-.606-.3374-1.1851-.9023-1.7363-1.6953-1.0757-1.5493-1.6133-3.4019-1.6133-5.5576Z" fill="#2a2b33"/>
    <path d="m24.1505,54.2459h-4.3135v3.5273h5.0107v1.0732h-6.3232v-9.9531h6.2549v1.0732h-4.9424v3.2061h4.3135v1.0732Z" fill="#2a2b33"/>
    <path d="m33.4884,48.8934v6.7676c-.0044.939-.2998,1.7065-.8853,2.3037s-1.3799.9316-2.3823,1.0049l-.3486.0137c-1.0894,0-1.9575-.2939-2.6045-.8818s-.9751-1.397-.9844-2.4268v-6.7812h1.2988v6.7402c0,.7202.1982,1.2793.5947,1.6782s.9614.5981,1.6953.5981c.7427,0,1.3115-.1982,1.7056-.5947s.5913-.9546.5913-1.6748v-6.7471h1.3193Z" fill="#2a2b33"/>
    <path d="m44.6514,54.2459h-4.3135v3.5273h5.0107v1.0732h-6.3232v-9.9531h6.2549v1.0732h-4.9424v3.2061h4.3135v1.0732Z" fill="#2a2b33"/>
    <path d="m53.9962,49.9666h-3.1992v8.8799h-1.3057v-8.8799h-3.1924v-1.0732h7.6973v1.0732Z" fill="#2a2b33"/>
    <path d="m58.296,54.41c-1.1255-.3237-1.9448-.7212-2.4575-1.1929s-.769-1.0537-.769-1.7466c0-.7837.3135-1.4321.9399-1.9448s1.4414-.769,2.4438-.769c.6836,0,1.293.1323,1.8286.3965s.9502.6289,1.2441,1.0938.4409.9731.4409,1.5244h-1.3193c0-.604-.1914-1.0781-.5742-1.4238-.3828-.3452-.9229-.5176-1.6201-.5176-.647,0-1.1519.1426-1.5142.4282-.3623.2852-.5435.6812-.5435,1.188,0,.4062.1719.75.5161,1.0308s.9297.5376,1.7568.77c.8271.2329,1.4741.4897,1.9414.77s.8135.6074,1.0391.981.3384.8135.3384,1.3193c0,.8066-.3145,1.4526-.9434,1.938s-1.4697.728-2.5225.728c-.6836,0-1.3218-.1313-1.9141-.3931-.5923-.2622-1.0493-.6211-1.3706-1.0767s-.4819-.9731-.4819-1.5518h1.3193c0,.6016.2222,1.0767.6665,1.4253s1.0381.5229,1.7808.5229c.6929,0,1.2236-.1411,1.5928-.4238s.5537-.6675.5537-1.1553-.1709-.8647-.5127-1.1313-.9614-.5298-1.8594-.7896Z" fill="#2a2b33"/>
    <path d="m73.3282,58.8465h-6.5215v-.9092l3.4453-3.8281c.5103-.5786.8623-1.0493,1.0562-1.4116s.2905-.7373.2905-1.1245c0-.5195-.1572-.9458-.4717-1.2783s-.7339-.499-1.2578-.499c-.6289,0-1.1177.1787-1.4663.5366s-.5229.8555-.5229,1.4937h-1.2646c0-.916.2949-1.6567.8853-2.2217s1.3799-.8477,2.3687-.8477c.9253,0,1.6567.2427,2.1943.728s.8066,1.1313.8066,1.938c0,.98-.6245,2.1465-1.873,3.5l-2.666,2.8916h4.9971v1.0322Z" fill="#2a2b33"/>
    <path d="m77.7169,54.8748c0,1.0161-.1333,1.9902-.3999,2.9224s-.6743,1.792-1.2236,2.5806c-.5493.7881-1.1245,1.3486-1.7261,1.6816l-.2666-.7725c.7017-.5381,1.2656-1.373,1.6919-2.5054s.6436-2.3892.6528-3.77v-.2188c0-.957-.1001-1.8467-.3008-2.6694s-.4795-1.5596-.8374-2.2114-.7598-1.1597-1.2065-1.5244l.2666-.7725c.6016.3325,1.1748.8887,1.7192,1.668s.9526,1.6382,1.2236,2.5771.4067,1.9438.4067,3.0146Z" fill="#2a2b33"/>
    <path d="m79.6173,54.8065c0-1.0298.1377-2.019.4136-2.9668s.687-1.8091,1.2339-2.584,1.1143-1.3218,1.7021-1.6406l.2598.834c-.6655.5103-1.2109,1.2896-1.6372,2.3379s-.6597,2.2217-.7007,3.5205l-.0068.5811c0,1.7593.3213,3.2856.9639,4.5801.3872.7744.8477,1.3809,1.3809,1.8184l-.2598.7725c-.606-.3374-1.1851-.9023-1.7363-1.6953-1.0757-1.5493-1.6133-3.4019-1.6133-5.5576Z" fill="#2a2b33"/>
    <path d="m84.1153,55.0799c0-.7246.1426-1.3765.4272-1.9551s.6812-1.0254,1.1895-1.3398,1.0879-.4717,1.7397-.4717c1.0073,0,1.8218.3486,2.4438,1.0459s.9331,1.6245.9331,2.7822v.0889c0,.7202-.1377,1.3662-.4136,1.938s-.6699,1.0176-1.1826,1.3364-1.1016.4785-1.7671.4785c-1.0024,0-1.8149-.3486-2.437-1.0459s-.9331-1.6201-.9331-2.7686v-.0889Zm1.2715.1504c0,.8203.1904,1.479.5708,1.9756s.8896.7451,1.5278.7451c.6426,0,1.1528-.252,1.5312-.7554s.5674-1.209.5674-2.1157c0-.811-.1924-1.4688-.5776-1.9722s-.8965-.7554-1.5347-.7554c-.6245,0-1.1279.2485-1.5107.7451s-.5742,1.2075-.5742,2.1328Z" fill="#2a2b33"/>
    <path d="m98.6827,55.2303c0,1.1255-.2573,2.0327-.7725,2.7207s-1.2124,1.0322-2.0918,1.0322c-.8979,0-1.604-.2847-2.1191-.8545v3.5615h-1.2646v-10.2402h1.1553l.0615.8203c.5151-.6382,1.2305-.957,2.1465-.957.8887,0,1.5918.335,2.1089,1.0049s.7759,1.6021.7759,2.7959v.1162Zm-1.2646-.1436c0-.834-.1777-1.4927-.5332-1.9756s-.8433-.7246-1.4629-.7246c-.7656,0-1.3398.3394-1.7227,1.0186v3.5342c.3784.6743.957,1.0117,1.7363,1.0117.606,0,1.0879-.2402,1.4458-.7212s.5366-1.1953.5366-2.1431Z" fill="#2a2b33"/>
    <path d="m103.8643,52.5848c-.1914-.0317-.3989-.0479-.6221-.0479-.8296,0-1.3921.353-1.6885,1.0596v5.25h-1.2646v-7.3965h1.2305l.0205.8545c.4146-.6606,1.0024-.9912,1.7637-.9912.2461,0,.4331.0317.5605.0957v1.1758Z" fill="#2a2b33"/>
    <path d="m104.5548,55.0799c0-.7246.1426-1.3765.4272-1.9551s.6812-1.0254,1.1895-1.3398,1.0879-.4717,1.7397-.4717c1.0073,0,1.8218.3486,2.4438,1.0459s.9331,1.6245.9331,2.7822v.0889c0,.7202-.1377,1.3662-.4136,1.938s-.6699,1.0176-1.1826,1.3364-1.1016.4785-1.7671.4785c-1.0024,0-1.8149-.3486-2.437-1.0459s-.9331-1.6201-.9331-2.7686v-.0889Zm1.2715.1504c0,.8203.1904,1.479.5708,1.9756s.8896.7451,1.5278.7451c.6426,0,1.1528-.252,1.5312-.7554s.5674-1.209.5674-2.1157c0-.811-.1924-1.4688-.5776-1.9722s-.8965-.7554-1.5347-.7554c-.6245,0-1.1279.2485-1.5107.7451s-.5742,1.2075-.5742,2.1328Z" fill="#2a2b33"/>
    <path d="m114.5899,49.659v1.791h1.3809v.9775h-1.3809v4.5928c0,.2964.0615.519.1846.667.123.1484.3325.2227.6289.2227.146,0,.3462-.0273.6016-.082v1.0195c-.3325.0903-.6562.1357-.9707.1357-.5649,0-.9912-.1709-1.2783-.5127s-.4307-.8271-.4307-1.4561v-4.5869h-1.3467v-.9775h1.3467v-1.791h1.2646Z" fill="#2a2b33"/>
    <path d="m117.4542,49.4881c0-.2051.0625-.3784.188-.5195s.311-.2119.5571-.2119.4331.0708.5605.2119.1914.3145.1914.5195-.064.376-.1914.5127-.3145.2051-.5605.2051-.4316-.0684-.5571-.2051-.188-.3076-.188-.5127Zm1.3672,9.3584h-1.2646v-7.3965h1.2646v7.3965Z" fill="#2a2b33"/>
    <path d="m127.8858,52.5848c-.1914-.0317-.3989-.0479-.6221-.0479-.8296,0-1.3921.353-1.6885,1.0596v5.25h-1.2646v-7.3965h1.2305l.0205.8545c.4146-.6606,1.0024-.9912,1.7637-.9912.2461,0,.4331.0317.5605.0957v1.1758Z" fill="#2a2b33"/>
    <path d="m128.5763,55.0799c0-.7246.1426-1.3765.4272-1.9551s.6812-1.0254,1.1895-1.3398,1.0879-.4717,1.7397-.4717c1.0073,0,1.8218.3486,2.4438,1.0459s.9331,1.6245.9331,2.7822v.0889c0,.7202-.1377,1.3662-.4136,1.938s-.6699,1.0176-1.1826,1.3364-1.1016.4785-1.7671.4785c-1.0024,0-1.8149-.3486-2.437-1.0459s-.9331-1.6201-.9331-2.7686v-.0889Zm1.2715.1504c0,.8203.1904,1.479.5708,1.9756s.8896.7451,1.5278.7451c.6426,0,1.1528-.252,1.5312-.7554s.5674-1.209.5674-2.1157c0-.811-.1924-1.4688-.5776-1.9722s-.8965-.7554-1.5347-.7554c-.6245,0-1.1279.2485-1.5107.7451s-.5742,1.2075-.5742,2.1328Z" fill="#2a2b33"/>
    <path d="m138.96,55.4217l-.793.8271v2.5977h-1.2646v-10.5h1.2646v6.3506l.6768-.8135,2.3037-2.4336h1.5381l-2.8779,3.0898,3.2129,4.3066h-1.4834l-2.5771-3.4248Z" fill="#2a2b33"/>
    <path d="m148.5577,58.1151c-.4922.5786-1.2144.8682-2.167.8682-.7886,0-1.3887-.229-1.8013-.687s-.6211-1.1357-.6255-2.0337v-4.8125h1.2646v4.7783c0,1.1211.4556,1.6816,1.3672,1.6816.9663,0,1.6089-.3599,1.9277-1.0801v-5.3799h1.2646v7.3965h-1.2031l-.0273-.7314Z" fill="#2a2b33"/>
    <path d="m161.5665,58.8465h-6.5215v-.9092l3.4453-3.8281c.5103-.5786.8623-1.0493,1.0562-1.4116s.2905-.7373.2905-1.1245c0-.5195-.1572-.9458-.4717-1.2783s-.7339-.499-1.2578-.499c-.6289,0-1.1177.1787-1.4663.5366s-.5229.8555-.5229,1.4937h-1.2646c0-.916.2949-1.6567.8853-2.2217s1.3799-.8477,2.3687-.8477c.9253,0,1.6567.2427,2.1943.728s.8066,1.1313.8066,1.938c0,.98-.6245,2.1465-1.873,3.5l-2.666,2.8916h4.9971v1.0322Z" fill="#2a2b33"/>
    <path d="m169.1475,54.6014c0,1.481-.2529,2.5815-.7588,3.3018s-1.2964,1.0801-2.3721,1.0801c-1.062,0-1.8481-.3521-2.3584-1.0562s-.7749-1.7559-.793-3.1548v-1.6885c0-1.4629.2529-2.5498.7588-3.2607s1.2988-1.0664,2.3789-1.0664c1.0708,0,1.8594.3428,2.3652,1.0288s.7656,1.7441.7793,3.1753v1.6406Zm-1.2646-1.7295c0-1.0708-.1504-1.8516-.4512-2.3413s-.7769-.7349-1.4287-.7349c-.647,0-1.1187.2437-1.415.7314s-.4487,1.2373-.458,2.249v2.0234c0,1.0757.1562,1.8696.4683,2.3823s.7852.769,1.4185.769c.6245,0,1.0879-.2417,1.3911-.7246s.4614-1.2441.4751-2.2832v-2.0713Z" fill="#2a2b33"/>
    <path d="m177.0089,54.6014c0,1.481-.2529,2.5815-.7588,3.3018s-1.2964,1.0801-2.3721,1.0801c-1.062,0-1.8481-.3521-2.3584-1.0562s-.7749-1.7559-.793-3.1548v-1.6885c0-1.4629.2529-2.5498.7588-3.2607s1.2988-1.0664,2.3789-1.0664c1.0708,0,1.8594.3428,2.3652,1.0288s.7656,1.7441.7793,3.1753v1.6406Zm-1.2646-1.7295c0-1.0708-.1504-1.8516-.4512-2.3413s-.7769-.7349-1.4287-.7349c-.647,0-1.1187.2437-1.415.7314s-.4487,1.2373-.458,2.249v2.0234c0,1.0757.1562,1.8696.4683,2.3823s.7852.769,1.4185.769c.6245,0,1.0879-.2417,1.3911-.7246s.4614-1.2441.4751-2.2832v-2.0713Z" fill="#2a2b33"/>
    <path d="m179.21,53.8563l.5059-4.9629h5.0996v1.1689h-4.0264l-.3008,2.7139c.4878-.2871,1.0415-.4307,1.6611-.4307.9067,0,1.627.2998,2.1602.8989s.7998,1.4092.7998,2.4302c0,1.0254-.2769,1.833-.8306,2.4233s-1.3271.8853-2.3208.8853c-.8794,0-1.5972-.2437-2.1533-.7314s-.8726-1.1621-.9502-2.0234h1.1963c.0776.5698.2803.999.6084,1.2886s.7612.4341,1.2988.4341c.5879,0,1.0493-.2007,1.3843-.6016s.5024-.9546.5024-1.6611c0-.6655-.1812-1.1997-.5435-1.603s-.8442-.605-1.4458-.605c-.5513,0-.9844.1206-1.2988.3623l-.335.2734-1.0117-.2598Z" fill="#2a2b33"/>
    <path d="m189.5391,54.8748c0,1.0161-.1333,1.9902-.3999,2.9224s-.6743,1.792-1.2236,2.5806c-.5493.7881-1.1245,1.3486-1.7261,1.6816l-.2666-.7725c.7017-.5381,1.2656-1.373,1.6919-2.5054s.6436-2.3892.6528-3.77v-.2188c0-.957-.1001-1.8467-.3008-2.6694s-.4795-1.5596-.8374-2.2114-.7598-1.1597-1.2065-1.5244l.2666-.7725c.6016.3325,1.1748.8887,1.7192,1.668s.9526,1.6382,1.2236,2.5771.4067,1.9438.4067,3.0146Z" fill="#2a2b33"/>
    <path d="m194.6456,55.0867c0-1.1348.269-2.0474.8066-2.7378s1.2417-1.0356,2.1123-1.0356c.8657,0,1.5518.2964,2.0576.8887v-3.8555h1.2646v10.5h-1.1621l-.0615-.793c-.5059.6196-1.21.9297-2.1123.9297-.8569,0-1.5552-.3511-2.0952-1.0527s-.8101-1.6177-.8101-2.748v-.0957Zm1.2646.1436c0,.8384.1733,1.4946.5195,1.9688s.8247.7109,1.4355.7109c.8022,0,1.3877-.3599,1.7568-1.0801v-3.3975c-.3784-.6973-.9595-1.0459-1.7432-1.0459-.6196,0-1.103.2393-1.4492.7178s-.5195,1.187-.5195,2.126Z" fill="#2a2b33"/>
    <path d="m202.5138,55.0799c0-.7246.1426-1.3765.4272-1.9551s.6812-1.0254,1.1895-1.3398,1.0879-.4717,1.7397-.4717c1.0073,0,1.8218.3486,2.4438,1.0459s.9331,1.6245.9331,2.7822v.0889c0,.7202-.1377,1.3662-.4136,1.938s-.6699,1.0176-1.1826,1.3364-1.1016.4785-1.7671.4785c-1.0024,0-1.8149-.3486-2.437-1.0459s-.9331-1.6201-.9331-2.7686v-.0889Zm1.2715.1504c0,.8203.1904,1.479.5708,1.9756s.8896.7451,1.5278.7451c.6426,0,1.1528-.252,1.5312-.7554s.5674-1.209.5674-2.1157c0-.811-.1924-1.4688-.5776-1.9722s-.8965-.7554-1.5347-.7554c-.6245,0-1.1279.2485-1.5107.7451s-.5742,1.2075-.5742,2.1328Z" fill="#2a2b33"/>
    <path d="m217.8741,52.5848c-.1914-.0317-.3989-.0479-.6221-.0479-.8296,0-1.3921.353-1.6885,1.0596v5.25h-1.2646v-7.3965h1.2305l.0205.8545c.4146-.6606,1.0024-.9912,1.7637-.9912.2461,0,.4331.0317.5605.0957v1.1758Z" fill="#2a2b33"/>
    <path d="m218.5645,55.0799c0-.7246.1426-1.3765.4272-1.9551s.6812-1.0254,1.1895-1.3398,1.0879-.4717,1.7397-.4717c1.0073,0,1.8218.3486,2.4438,1.0459s.9331,1.6245.9331,2.7822v.0889c0,.7202-.1377,1.3662-.4136,1.938s-.6699,1.0176-1.1826,1.3364-1.1016.4785-1.7671.4785c-1.0024,0-1.8149-.3486-2.437-1.0459s-.9331-1.6201-.9331-2.7686v-.0889Zm1.2715.1504c0,.8203.1904,1.479.5708,1.9756s.8896.7451,1.5278.7451c.6426,0,1.1528-.252,1.5312-.7554s.5674-1.209.5674-2.1157c0-.811-.1924-1.4688-.5776-1.9722s-.8965-.7554-1.5347-.7554c-.6245,0-1.1279.2485-1.5107.7451s-.5742,1.2075-.5742,2.1328Z" fill="#2a2b33"/>
    <path d="m228.9483,55.4217l-.793.8271v2.5977h-1.2646v-10.5h1.2646v6.3506l.6768-.8135,2.3037-2.4336h1.5381l-2.8779,3.0898,3.2129,4.3066h-1.4834l-2.5771-3.4248Z" fill="#2a2b33"/>
    <path d="m238.546,58.1151c-.4922.5786-1.2144.8682-2.167.8682-.7886,0-1.3887-.229-1.8013-.687s-.6211-1.1357-.6255-2.0337v-4.8125h1.2646v4.7783c0,1.1211.4556,1.6816,1.3672,1.6816.9663,0,1.6089-.3599,1.9277-1.0801v-5.3799h1.2646v7.3965h-1.2031l-.0273-.7314Z" fill="#2a2b33"/>
    <path d="m251.5548,58.8465h-6.5215v-.9092l3.4453-3.8281c.5103-.5786.8623-1.0493,1.0562-1.4116s.2905-.7373.2905-1.1245c0-.5195-.1572-.9458-.4717-1.2783s-.7339-.499-1.2578-.499c-.6289,0-1.1177.1787-1.4663.5366s-.5229.8555-.5229,1.4937h-1.2646c0-.916.2949-1.6567.8853-2.2217s1.3799-.8477,2.3687-.8477c.9253,0,1.6567.2427,2.1943.728s.8066,1.1313.8066,1.938c0,.98-.6245,2.1465-1.873,3.5l-2.666,2.8916h4.9971v1.0322Z" fill="#2a2b33"/>
    <path d="m259.1358,54.6014c0,1.481-.2529,2.5815-.7588,3.3018s-1.2964,1.0801-2.3721,1.0801c-1.062,0-1.8481-.3521-2.3584-1.0562s-.7749-1.7559-.793-3.1548v-1.6885c0-1.4629.2529-2.5498.7588-3.2607s1.2988-1.0664,2.3789-1.0664c1.0708,0,1.8594.3428,2.3652,1.0288s.7656,1.7441.7793,3.1753v1.6406Zm-1.2646-1.7295c0-1.0708-.1504-1.8516-.4512-2.3413s-.7769-.7349-1.4287-.7349c-.647,0-1.1187.2437-1.415.7314s-.4487,1.2373-.458,2.249v2.0234c0,1.0757.1562,1.8696.4683,2.3823s.7852.769,1.4185.769c.6245,0,1.0879-.2417,1.3911-.7246s.4614-1.2441.4751-2.2832v-2.0713Z" fill="#2a2b33"/>
    <path d="m262.5948,53.2547h.9502c.5972-.0093,1.0664-.1665,1.4082-.4717s.5127-.7178.5127-1.2373c0-1.1665-.5811-1.75-1.7432-1.75-.5469,0-.9834.1562-1.3091.4683s-.4888.7256-.4888,1.2407h-1.2646c0-.7886.2881-1.4434.8647-1.9653s1.3091-.7827,2.1978-.7827c.939,0,1.6748.2485,2.208.7451s.7998,1.187.7998,2.0713c0,.4331-.1401.8521-.4204,1.2578s-.6621.7085-1.145.9092c.5469.1733.9697.4604,1.2681.8613s.4478.8911.4478,1.4697c0,.8931-.2915,1.6021-.875,2.126s-1.3423.7861-2.2764.7861-1.6943-.2529-2.2798-.7588-.8784-1.1733-.8784-2.0029h1.2715c0,.5239.1709.9434.5127,1.2578s.7998.4717,1.374.4717c.6108,0,1.0776-.1597,1.4014-.4785s.4854-.7769.4854-1.374c0-.5786-.1777-1.0229-.5332-1.333s-.8682-.4692-1.5381-.4785h-.9502v-1.0322Z" fill="#2a2b33"/>
    <path d="m274.8585,54.6014c0,1.481-.2529,2.5815-.7588,3.3018s-1.2964,1.0801-2.3721,1.0801c-1.062,0-1.8481-.3521-2.3584-1.0562s-.7749-1.7559-.793-3.1548v-1.6885c0-1.4629.2529-2.5498.7588-3.2607s1.2988-1.0664,2.3789-1.0664c1.0708,0,1.8594.3428,2.3652,1.0288s.7656,1.7441.7793,3.1753v1.6406Zm-1.2646-1.7295c0-1.0708-.1504-1.8516-.4512-2.3413s-.7769-.7349-1.4287-.7349c-.647,0-1.1187.2437-1.415.7314s-.4487,1.2373-.458,2.249v2.0234c0,1.0757.1562,1.8696.4683,2.3823s.7852.769,1.4185.769c.6245,0,1.0879-.2417,1.3911-.7246s.4614-1.2441.4751-2.2832v-2.0713Z" fill="#2a2b33"/>
  </g>
  <path d="m140.7544,98.7126v7.5426" fill="none" stroke="#aaaaad" stroke-miterlimit="10" stroke-width=".5"/>
  <g>
    <path d="m43.1773,299.8956h259.9506" fill="none" stroke="#d0d2d3" stroke-miterlimit="10" stroke-width=".5"/>
    <path d="m43.1773,264.0225h259.9506" fill="none" stroke="#d0d2d3" stroke-miterlimit="10" stroke-width=".5"/>
    <path d="m43.1773,228.1494h259.9506" fill="none" stroke="#d0d2d3" stroke-miterlimit="10" stroke-width=".5"/>
    <path d="m43.1773,192.9057h259.9506" fill="none" stroke="#d0d2d3" stroke-miterlimit="10" stroke-width=".5"/>
    <path d="m43.1773,335.1393h259.9506" fill="none" stroke="#d0d2d3" stroke-miterlimit="10" stroke-width=".5"/>
    <path d="m43.1773,157.0326h259.9506" fill="none" stroke="#d0d2d3" stroke-miterlimit="10" stroke-width=".5"/>
    <path d="m43.1773,121.7889h259.9506" fill="none" stroke="#d0d2d3" stroke-miterlimit="10" stroke-width=".5"/>
  </g>
  <g>
    <polyline points="140.6577 121.7889 147.0556 130.4156 153.4535 141.732 159.8513 134.9586 166.2493 151.9881 172.6471 163.8143 179.0451 171.7279 185.443 163.7264 191.8408 185.8123 198.2388 198.6283 204.6366 189.5543 211.0346 180.0567 217.4324 168.8275 223.8303 177.0679 230.2282 182.6204 236.6261 192.546 241.5329 184.5255" fill="none" stroke="#0032a1" stroke-linecap="round" stroke-miterlimit="10" stroke-width="2"/>
    <path d="m244.0202,186.2235c.8667-1.4167.4207-3.2688-.9961-4.1355-1.4169-.8667-3.2687-.4207-4.1355.9961-.8667,1.417-.4207,3.2688.9961,4.1355,1.4169.8667,3.2687.4207,4.1355-.9961Z" fill="#0032a1"/>
  </g>
  <circle cx="303.128" cy="275.9026" r="6.0802" fill="#fff" stroke="#0098eb" stroke-miterlimit="10"/>
  <g>
    <rect x="240.5427" y="265.7746" width="51.9558" height="27.6919" fill="#fff"/>
    <g>
      <path d="m256.1012,276.762h-3.8486v-1.5928h3.8486v1.5928Z" fill="#0098eb"/>
      <path d="m263.4498,276.4818h1.1279v1.5928h-1.1279v2.1533h-1.9756v-2.1533h-4.0811l-.0889-1.2441,4.1494-6.5557h1.9961v6.207Zm-4.1768,0h2.2012v-3.5137l-.1299.2256-2.0713,3.2881Z" fill="#0098eb"/>
      <path d="m267.6471,274.3763h1.0527c.502,0,.873-.1255,1.1143-.376.2422-.2505.3623-.5835.3623-.998,0-.4009-.1191-.7134-.3584-.9365s-.5684-.335-.9883-.335c-.3779,0-.6943.1035-.9502.311-.2549.2075-.3828.4775-.3828.8101h-1.9756c0-.5195.1406-.9854.4209-1.3979s.6719-.7349,1.1758-.9673c.5029-.2324,1.0586-.3486,1.6641-.3486,1.0527,0,1.8779.252,2.4746.7554.5977.5034.8955,1.1973.8955,2.0815,0,.4556-.1387.875-.417,1.2578-.2773.3828-.6426.6768-1.0938.8818.5605.2007.9785.5015,1.2549.9023.2754.4009.4131.875.4131,1.4219,0,.8843-.3223,1.5928-.9668,2.126-.6455.5332-1.498.7998-2.5605.7998-.9932,0-1.8057-.2622-2.4365-.7861-.6318-.5239-.9473-1.2168-.9473-2.0781h1.9756c0,.3735.1406.6792.4209.916s.625.3555,1.0352.3555c.4697,0,.8379-.124,1.1045-.3726s.3994-.5776.3994-.9878c0-.9937-.5469-1.4902-1.6406-1.4902h-1.0459v-1.5449Z" fill="#0098eb"/>
      <path d="m277.1285,272.1888c0-.6108.1982-1.1064.5947-1.4868s.916-.5708,1.5586-.5708c.6523,0,1.1758.188,1.5723.564s.5947.8853.5947,1.5278v.4922c0,.6152-.1982,1.1099-.5947,1.4834s-.916.5605-1.5586.5605c-.6465,0-1.1699-.188-1.5684-.564-.3994-.376-.5986-.8828-.5986-1.521v-.4854Zm1.3125.5264c0,.2734.0791.4932.2363.6597s.3633.2495.6182.2495c.2559,0,.458-.0845.6084-.2529s.2256-.394.2256-.6768v-.5059c0-.2734-.0752-.4946-.2256-.6631s-.3574-.2529-.6221-.2529c-.25,0-.4531.083-.6084.2495-.1543.1665-.2324.3975-.2324.6938v.499Zm1.2441,6.7676l-.9639-.5195,4.8604-7.7793.9639.5195-4.8604,7.7793Zm2.2012-1.6953c0-.6152.2012-1.1108.6016-1.4868.4014-.376.9209-.564,1.5586-.564.6475,0,1.1699.1855,1.5693.5571.3984.3716.5977.8828.5977,1.5347v.4922c0,.6108-.1953,1.104-.5879,1.48-.3916.376-.9131.564-1.5654.564-.6562,0-1.1826-.189-1.5791-.5674s-.5947-.8794-.5947-1.5039v-.5059Zm1.3125.5332c0,.2505.082.4648.2461.6426s.3691.2666.6152.2666c.5566,0,.834-.3076.834-.9229v-.5195c0-.2734-.0771-.4932-.2324-.6597-.1543-.1665-.3594-.2495-.6152-.2495-.2549,0-.46.083-.6152.2495-.1543.1665-.2324.3931-.2324.6802v.5127Z" fill="#0098eb"/>
      <path d="m175.6978,291.9207c-.1055.9023-.4385,1.5986-.999,2.0889s-1.3057.7354-2.2354.7354c-1.0078,0-1.8154-.3613-2.4229-1.084s-.9111-1.6895-.9111-2.9004v-.8203c0-.793.1416-1.4902.4248-2.0918s.6846-1.0635,1.2041-1.3857,1.1211-.4834,1.8047-.4834c.9062,0,1.6328.2529,2.1797.7588s.8652,1.2061.9551,2.1006h-1.1309c-.0977-.6816-.3096-1.1753-.6357-1.481s-.7822-.4585-1.3682-.4585c-.7188,0-1.2822.2656-1.6904.7979-.4082.5312-.6123,1.2881-.6123,2.269v.8271c0,.9263.1934,1.6636.5801,2.2109s.9277.8208,1.623.8208c.625,0,1.1045-.1416,1.4385-.4248s.5557-.7764.665-1.4795h1.1309Z" fill="#0098eb"/>
      <path d="m178.2525,285.6336h1.3125l-1.5703,1.7227-.873-.0029,1.1309-1.7197Zm-.0117,8.9941h-1.0898v-6.3398h1.0898v6.3398Z" fill="#0098eb"/>
      <path d="m181.2056,294.6278h-1.084v-9h1.084v9Z" fill="#0098eb"/>
      <path d="m191.2662,291.5281c0,.9648-.2207,1.7422-.6621,2.332s-1.0391.8848-1.793.8848c-.7695,0-1.375-.2441-1.8164-.7324v3.0527h-1.084v-8.7773h.9902l.0527.7031c.4414-.5469,1.0547-.8203,1.8398-.8203.7617,0,1.3643.2871,1.8076.8613s.665,1.373.665,2.3965v.0996Zm-1.084-.123c0-.7148-.1523-1.2793-.457-1.6934s-.7227-.6211-1.2539-.6211c-.6562,0-1.1484.291-1.4766.873v3.0293c.3242.5781.8203.8672,1.4883.8672.5195,0,.9326-.2061,1.2393-.6182s.46-1.0244.46-1.8369Z" fill="#0098eb"/>
      <path d="m192.356,291.3992c0-.6211.1221-1.1797.3662-1.6758s.584-.8789,1.0195-1.1484.9326-.4043,1.4912-.4043c.8633,0,1.5615.2988,2.0947.8965s.7998,1.3926.7998,2.3848v.0762c0,.6172-.1182,1.1709-.3545,1.6611s-.5742.8721-1.0137,1.1455-.9443.4102-1.5146.4102c-.8594,0-1.5557-.2988-2.0889-.8965s-.7998-1.3887-.7998-2.373v-.0762Zm1.0898.1289c0,.7031.1631,1.2676.4893,1.6934s.7627.6387,1.3096.6387c.5508,0,.9883-.2158,1.3125-.6475s.4863-1.0361.4863-1.8135c0-.6953-.165-1.2588-.4951-1.6904s-.7686-.6475-1.3154-.6475c-.5352,0-.9668.2129-1.2949.6387s-.4922,1.0352-.4922,1.8281Z" fill="#0098eb"/>
      <path d="m203.401,294.0008c-.4219.4961-1.041.7441-1.8574.7441-.6758,0-1.1904-.1963-1.5439-.5889s-.5322-.9736-.5361-1.7432v-4.125h1.084v4.0957c0,.9609.3906,1.4414,1.1719,1.4414.8281,0,1.3789-.3086,1.6523-.9258v-4.6113h1.084v6.3398h-1.0312l-.0234-.627Z" fill="#0098eb"/>
      <path d="m207.1217,293.743h3.709v.8848h-5.0332v-.7969l3.498-4.6465h-3.4453v-.8965h4.8047v.7676l-3.5332,4.6875Z" fill="#0098eb"/>
      <path d="m214.5865,294.7449c-.8594,0-1.5586-.2822-2.0977-.8467s-.8086-1.3193-.8086-2.2646v-.1992c0-.6289.1201-1.1904.3604-1.6846s.5762-.8809,1.0078-1.1602.8994-.4189,1.4033-.4189c.8242,0,1.4648.2715,1.9219.8145s.6855,1.3203.6855,2.332v.4512h-4.2949c.0156.625.1982,1.1299.5479,1.5146s.7939.5771,1.333.5771c.3828,0,.707-.0781.9727-.2344s.498-.3633.6973-.6211l.6621.5156c-.5312.8164-1.3281,1.2246-2.3906,1.2246Zm-.1348-5.6836c-.4375,0-.8047.1592-1.1016.4775s-.4805.7646-.5508,1.3389h3.1758v-.082c-.0312-.5508-.1797-.9775-.4453-1.2803s-.625-.4541-1.0781-.4541Z" fill="#0098eb"/>
      <path d="m222.3092,288.2879l.0352.7969c.4844-.6094,1.1172-.9141,1.8984-.9141,1.3398,0,2.0156.7559,2.0273,2.2676v4.1895h-1.084v-4.1953c-.0039-.457-.1084-.7949-.3135-1.0137s-.5244-.3281-.958-.3281c-.3516,0-.6602.0938-.9258.2812s-.4727.4336-.6211.7383v4.5176h-1.084v-6.3398h1.0254Z" fill="#0098eb"/>
      <path d="m231.8189,294.6278c-.0625-.125-.1133-.3477-.1523-.668-.5039.5234-1.1055.7852-1.8047.7852-.625,0-1.1377-.1768-1.5381-.5303s-.6006-.8018-.6006-1.3447c0-.6602.251-1.1729.7529-1.5381s1.208-.5479,2.1182-.5479h1.0547v-.498c0-.3789-.1133-.6807-.3398-.9053s-.5605-.3369-1.002-.3369c-.3867,0-.7109.0977-.9727.293s-.3926.4316-.3926.709h-1.0898c0-.3164.1123-.6221.3369-.917s.5293-.5283.9141-.7002.8076-.2578,1.2686-.2578c.7305,0,1.3027.1826,1.7168.5479s.6289.8682.6445,1.5088v2.918c0,.582.0742,1.0449.2227,1.3887v.0938h-1.1367Zm-1.7988-.8262c.3398,0,.6621-.0879.9668-.2637s.5254-.4043.6621-.6855v-1.3008h-.8496c-1.3281,0-1.9922.3887-1.9922,1.166,0,.3398.1133.6055.3398.7969s.5176.2871.873.2871Z" fill="#0098eb"/>
      <path d="m241.317,294.0008c-.4219.4961-1.041.7441-1.8574.7441-.6758,0-1.1904-.1963-1.5439-.5889s-.5322-.9736-.5361-1.7432v-4.125h1.084v4.0957c0,.9609.3906,1.4414,1.1719,1.4414.8281,0,1.3789-.3086,1.6523-.9258v-4.6113h1.084v6.3398h-1.0312l-.0234-.627Zm-.8789-8.373h1.3125l-1.5703,1.7227-.873-.0029,1.1309-1.7197Z" fill="#0098eb"/>
      <path d="m247.0826,289.2606c-.1641-.0273-.3418-.041-.5332-.041-.7109,0-1.1934.3027-1.4473.9082v4.5h-1.084v-6.3398h1.0547l.0176.7324c.3555-.5664.8594-.8496,1.5117-.8496.2109,0,.3711.0273.4805.082v1.0078Z" fill="#0098eb"/>
      <path d="m247.6744,291.3992c0-.6211.1221-1.1797.3662-1.6758s.584-.8789,1.0195-1.1484.9326-.4043,1.4912-.4043c.8633,0,1.5615.2988,2.0947.8965s.7998,1.3926.7998,2.3848v.0762c0,.6172-.1182,1.1709-.3545,1.6611s-.5742.8721-1.0137,1.1455-.9443.4102-1.5146.4102c-.8594,0-1.5557-.2988-2.0889-.8965s-.7998-1.3887-.7998-2.373v-.0762Zm1.0898.1289c0,.7031.1631,1.2676.4893,1.6934s.7627.6387,1.3096.6387c.5508,0,.9883-.2158,1.3125-.6475s.4863-1.0361.4863-1.8135c0-.6953-.165-1.2588-.4951-1.6904s-.7686-.6475-1.3154-.6475c-.5352,0-.9668.2129-1.2949.6387s-.4922,1.0352-.4922,1.8281Z" fill="#0098eb"/>
      <path d="m256.8092,293.1571l1.5703-4.8691h1.1074l-2.2734,6.3398h-.8262l-2.2969-6.3398h1.1074l1.6113,4.8691Z" fill="#0098eb"/>
      <path d="m261.5553,288.2879l.0352.7969c.4844-.6094,1.1172-.9141,1.8984-.9141,1.3398,0,2.0156.7559,2.0273,2.2676v4.1895h-1.084v-4.1953c-.0039-.457-.1084-.7949-.3135-1.0137s-.5244-.3281-.958-.3281c-.3516,0-.6602.0938-.9258.2812s-.4727.4336-.6211.7383v4.5176h-1.084v-6.3398h1.0254Z" fill="#0098eb"/>
      <path d="m267.1568,286.6063c0-.1758.0537-.3242.1611-.4453s.2666-.1816.4775-.1816.3711.0605.4805.1816.1641.2695.1641.4453-.0547.3223-.1641.4395-.2695.1758-.4805.1758-.3701-.0586-.4775-.1758-.1611-.2637-.1611-.4395Zm1.1719,8.0215h-1.084v-6.3398h1.084v6.3398Z" fill="#0098eb"/>
      <path d="m278.026,290.6844h-3.6973v3.0234h4.2949v.9199h-5.4199v-8.5312h5.3613v.9199h-4.2363v2.748h3.6973v.9199Z" fill="#0098eb"/>
      <path d="m286.0299,286.0965v5.8008c-.0039.8047-.2568,1.4629-.7588,1.9746s-1.1826.7988-2.042.8613l-.2988.0117c-.9336,0-1.6777-.252-2.2324-.7559s-.8359-1.1973-.8438-2.0801v-5.8125h1.1133v5.7773c0,.6172.1699,1.0967.5098,1.4385s.8242.5127,1.4531.5127c.6367,0,1.124-.1699,1.4619-.5098s.5068-.8184.5068-1.4355v-5.7832h1.1309Z" fill="#0098eb"/>
    </g>
  </g>
</svg>