<?xml version="1.0" encoding="UTF-8"?><svg id="a" xmlns="http://www.w3.org/2000/svg" viewBox="0 0 330 310.04642792677032"><defs><style>.d{letter-spacing:-.00927734375em;}.e{letter-spacing:-.01171875em;}.f,.g,.h,.i,.j{font-family:Roboto-Regular, Roboto;}.k,.l,.g,.m,.n{fill:#0032a1;}.k,.g,.o,.h,.i,.j,.p,.n{font-size:12px;}.q,.r{stroke-width:.75px;}.q,.r,.s,.t{stroke:#0032a1;}.q,.r,.s,.t,.u,.v{stroke-miterlimit:10;}.q,.r,.s,.u,.v{fill:none;}.r{stroke-dasharray:0 0 4.067296504974365 4.067296504974365;}.w{letter-spacing:-.00732421875em;}.l,.x{stroke-width:0px;}.s,.t{stroke-linecap:round;stroke-width:2px;}.o{font-family:Roboto-Light, Roboto;font-weight:300;}.o,.i,.p{fill:#808184;}.t,.x{fill:#fff;}.m{font-size:14px;}.m,.p,.y,.z,.n{font-family:Roboto-Bold, Roboto;font-weight:700;}.aa{letter-spacing:-.0078125em;}.h{fill:#929497;}.j{fill:#0098eb;}.u{stroke:#9ea7b3;stroke-width:.5px;}.v{stroke:#0098eb;}.z{letter-spacing:-.017578125em;}.ab{letter-spacing:-.009765625em;}.ac{letter-spacing:-.01953125em;}.ad{letter-spacing:-.00634765625em;}</style></defs><line class="q" x1="243.023976239044714" y1="183.740164085730157" x2="244.256398114044714" y2="185.315359398230157"/><line class="r" x1="246.762257489044714" y1="188.518972679480157" x2="300.642628582794714" y2="257.394705101355157"/><line class="q" x1="301.895558270294714" y1="258.996511741980157" x2="303.127980145294714" y2="260.571707054480157"/><path class="u" d="M43.177303896589365,242.949868121180316h259.950647317740732"/><path class="u" d="M43.177303896589365,207.076799897879937h259.950647317740732"/><path class="u" d="M43.177303896589365,171.203731674590017h259.950647317740732"/><path class="u" d="M43.177303896589365,135.960015525400195h259.950647317740732"/><path class="u" d="M43.177303896589365,278.193584270350129h259.950647317740732"/><path class="u" d="M43.177303896589365,100.086947302110275h259.950647317740732"/><path class="u" d="M43.177303896589365,64.843231152919998h259.950647317740732"/><text class="h" transform="translate(15.480183514435339 69.052419945105157)"><tspan x="0" y="0">0 %</tspan></text><text class="p" transform="translate(28.411625775177527 33.703787132605157)"><tspan x="0" y="0">1990</tspan></text><text class="o" transform="translate(28.411137493927527 20.705374046667657)"><tspan class="d" x="0" y="0">r</tspan><tspan x="3.931640625" y="0">e</tspan><tspan class="e" x="10.13671875" y="0">f</tspan><tspan x="13.96875" y="0">e</tspan><tspan class="d" x="20.173828125" y="0">r</tspan><tspan x="24.10546875" y="0">enční </tspan><tspan class="ab" x="55.2890625" y="0">r</tspan><tspan x="59.21484375" y="0">ok</tspan></text><text class="p" transform="translate(289.805378826935339 33.698904320105157)"><tspan x="0" y="0">2030</tspan></text><text class="i" transform="translate(231.407917889435339 33.698904320105157)"><tspan x="0" y="0">2021</tspan></text><text class="h" transform="translate(1.874714764435339 140.459646507605157)"><tspan x="0" y="0">−20 %</tspan></text><text class="h" transform="translate(1.874714764435339 211.576345726355157)"><tspan x="0" y="0">−40 %</tspan></text><rect class="x" x="48.351172382879668" y="67.114108678750199" width="65.622649795450343" height="20.332787200110033"/><text class="n" transform="translate(57.784352215607214 84.560232445105157)"><tspan x="0" y="0">St</tspan><tspan class="w" x="11.431640625" y="0">a</tspan><tspan x="17.77734375" y="0">v v ČR</tspan></text><text class="h" transform="translate(1.874714764435339 282.693533226355157)"><tspan x="0" y="0">−60 %</tspan></text><path class="u" d="M43.177303896589365,41.766860083230313v7.54263239473994"/><path class="u" d="M303.127951214330096,41.766860083230313v7.54263239473994"/><path class="u" d="M243.024021338989769,41.766860083230313v7.54263239473994"/><circle class="v" cx="303.127951214330096" cy="260.571726195767496" r="3.556445554751463"/><circle class="t" cx="303.127951214327368" cy="260.571726195777501" r="6.080169662025583"/><rect class="x" x="201.586831455716492" y="111.258022117630389" width="105.097565313363702" height="54.141732283470446"/><text class="k" transform="translate(178.091633709747839 116.173635765417657)"><tspan class="y" x="0" y="0">V </tspan><tspan class="z" x="10.833984375" y="0">r</tspan><tspan class="y" x="15.005859375" y="0">oce 2021</tspan><tspan class="f" x="65.068359375" y="0" xml:space="preserve"> měla ČR </tspan><tspan class="y" x="12.99609375" y="14.39990234375">o 34 % nižší emise</tspan><tspan class="f" x="112.55859375" y="14.39990234375"> </tspan><tspan class="f"><tspan x="28.458984375" y="28.7998046875">než v </tspan><tspan class="ab" x="59.16796875" y="28.7998046875">r</tspan><tspan x="63.1171875" y="28.7998046875">oce 1990</tspan></tspan></text><line class="q" x1="243.563771160919714" y1="149.375662132605157" x2="243.563771160919714" y2="174.133718773230157"/><polygon class="l" points="241.693898114044714 173.586599632605157 243.563771160919714 176.824880882605157 245.433644207794714 173.586599632605157 241.693898114044714 173.586599632605157"/><polyline class="s" points="43.273976239044714 63.702078148230157 49.717579754669714 99.713552757605157 56.161183270294714 110.793875023230157 62.604786785919714 124.829275413855157 69.048146160919714 138.495046898230157 75.491749676544714 140.895681663855157 81.935353192169714 134.432302757605157 88.378956707794714 141.449880882605157 94.822316082794714 152.345632835730157 101.265919598419714 171.366873070105157 107.709523114044714 154.007742210730157 114.153126629669714 155.115652366980157 120.596730145294714 161.579275413855157 127.040089520294714 154.376882835730157 133.483693035919714 152.160818382605157 139.927296551544714 155.854421898230157 146.370900067169714 151.237478538855157 152.814259442169714 147.174734398230157 159.257862957794714 159.178396507605157 165.701466473419714 176.907156273230157 172.145069989044714 170.443533226355157 178.588429364044714 173.767751976355157 185.032032879669714 182.078054710730157 191.475636395294714 190.757742210730157 197.919239910919714 194.635916038855157 204.362843426544714 192.050466820105157 210.806202801544714 187.618337913855157 217.249806317169714 182.632009788855157 223.693409832794714 175.614431663855157 230.137013348419714 173.583181663855157 236.580372723419714 187.987722679480157 243.023976239044714 183.740164085730157"/><path class="l" d="M244.679493817169714,186.251394554480157c1.38671875-.9140625,1.77001953125-2.780029296875.85595703125-4.166748046875-.914306640625-1.38671875-2.780029296875-1.77001953125-4.166748046875-.855712890625-1.38671875.9140625-1.77001953125,2.77978515625-.85595703125,4.16650390625s2.780029296875,1.77001953125,4.166748046875.85595703125Z"/><rect class="x" x="61.221643090806538" y="275.274774383464774" width="229.428597852057464" height="7.541805717890384"/><text transform="translate(249.720997723419714 268.199392601355157)"><tspan class="m"><tspan x="0" y="0">−55 %</tspan></tspan><tspan class="g"><tspan x="-183.953125" y="17">Cíl ČR n</tspan><tspan class="w" x="-142.46875" y="17">a</tspan><tspan x="-136.029296875" y="17">vr</tspan><tspan class="aa" x="-126.150390625" y="17">ž</tspan><tspan x="-120.291015625" y="17">ený v </tspan><tspan class="ad" x="-89.857421875" y="17">P</tspan><tspan x="-82.36328125" y="17">olitice och</tspan><tspan class="ac" x="-27.484375" y="17">r</tspan><tspan x="-23.65234375" y="17">any klimatu</tspan></tspan><tspan class="j"><tspan x="-80.669921875" y="30">(v souladu s EU cílem)</tspan></tspan></text></svg>