<?xml version="1.0" encoding="UTF-8"?>
<svg id="Layer_1" data-name="Layer 1" xmlns="http://www.w3.org/2000/svg" viewBox="0 0 330 442.9637">
  <defs>
    <style>
      .cls-1 {
        fill: #0032a1;
      }

      .cls-2 {
        fill: #0098eb;
      }

      .cls-3, .cls-4, .cls-5 {
        fill: #fff;
      }

      .cls-6 {
        fill: #929497;
      }

      .cls-7 {
        fill: #808184;
      }

      .cls-8 {
        fill: #55555c;
      }

      .cls-9 {
        fill: #2a2b33;
      }

      .cls-10 {
        stroke-dasharray: 0 0 4 4;
        stroke-width: .75px;
      }

      .cls-10, .cls-4, .cls-5, .cls-11, .cls-12, .cls-13 {
        stroke-miterlimit: 10;
      }

      .cls-10, .cls-5, .cls-11 {
        stroke: #0032a1;
      }

      .cls-10, .cls-11, .cls-12, .cls-13 {
        fill: none;
      }

      .cls-4 {
        stroke: #0098eb;
      }

      .cls-11 {
        stroke-linecap: round;
        stroke-width: 2px;
      }

      .cls-12 {
        stroke: #d0d2d3;
      }

      .cls-12, .cls-13 {
        stroke-width: .5px;
      }

      .cls-13 {
        stroke: #aaaaad;
      }
    </style>
  </defs>
  <g>
    <path class="cls-7" d="m129.9768,147.8806c-.1484-.0273-.3066-.041-.4746-.041-.4375,0-.8076.1221-1.1104.3662s-.5186.5986-.6475,1.0635v4.3535h-.6973v-6.3398h.6855l.0117,1.0078c.3711-.75.9668-1.125,1.7871-1.125.1953,0,.3496.0254.4629.0762l-.0176.6387Z"/>
    <path class="cls-7" d="m133.5393,153.74c-.5391,0-1.0264-.1328-1.4619-.3984s-.7744-.6357-1.0166-1.1104-.3633-1.0068-.3633-1.5967v-.252c0-.6094.1182-1.1582.3545-1.6465s.5654-.8721.9873-1.1514.8789-.4189,1.3711-.4189c.7695,0,1.3799.2627,1.8311.7881s.6768,1.2432.6768,2.1533v.3926h-4.5234v.1348c0,.7188.2061,1.3174.6182,1.7959s.9307.7178,1.5557.7178c.375,0,.7061-.0684.9932-.2051s.5479-.3555.7822-.6562l.4395.334c-.5156.7461-1.2637,1.1191-2.2441,1.1191Zm-.1289-5.9766c-.5273,0-.9717.1934-1.333.5801s-.5811.9062-.6592,1.5586h3.8027v-.0762c-.0195-.6094-.1934-1.1055-.5215-1.4883s-.7578-.5742-1.2891-.5742Z"/>
    <path class="cls-7" d="m137.7874,153.6228v-5.7656h-1.0488v-.5742h1.0488v-.7676c0-.6484.165-1.1465.4951-1.4941s.79-.5215,1.3799-.5215c.2656,0,.5137.0332.7441.0986l-.0527.5811c-.1953-.0469-.4082-.0703-.6387-.0703-.3867,0-.6875.1206-.9023.3613s-.3223.5825-.3223,1.0254v.7871h1.5117v.5742h-1.5117v5.7656h-.7031Z"/>
    <path class="cls-7" d="m143.7112,153.74c-.5391,0-1.0264-.1328-1.4619-.3984s-.7744-.6357-1.0166-1.1104-.3633-1.0068-.3633-1.5967v-.252c0-.6094.1182-1.1582.3545-1.6465s.5654-.8721.9873-1.1514.8789-.4189,1.3711-.4189c.7695,0,1.3799.2627,1.8311.7881s.6768,1.2432.6768,2.1533v.3926h-4.5234v.1348c0,.7188.2061,1.3174.6182,1.7959s.9307.7178,1.5557.7178c.375,0,.7061-.0684.9932-.2051s.5479-.3555.7822-.6562l.4395.334c-.5156.7461-1.2637,1.1191-2.2441,1.1191Zm-.1289-5.9766c-.5273,0-.9717.1934-1.333.5801s-.5811.9062-.6592,1.5586h3.8027v-.0762c-.0195-.6094-.1934-1.1055-.5215-1.4883s-.7578-.5742-1.2891-.5742Z"/>
    <path class="cls-7" d="m150.385,147.8806c-.1484-.0273-.3066-.041-.4746-.041-.4375,0-.8076.1221-1.1104.3662s-.5186.5986-.6475,1.0635v4.3535h-.6973v-6.3398h.6855l.0117,1.0078c.3711-.75.9668-1.125,1.7871-1.125.1953,0,.3496.0254.4629.0762l-.0176.6387Z"/>
    <path class="cls-7" d="m153.9475,153.74c-.5391,0-1.0264-.1328-1.4619-.3984s-.7744-.6357-1.0166-1.1104-.3633-1.0068-.3633-1.5967v-.252c0-.6094.1182-1.1582.3545-1.6465s.5654-.8721.9873-1.1514.8789-.4189,1.3711-.4189c.7695,0,1.3799.2627,1.8311.7881s.6768,1.2432.6768,2.1533v.3926h-4.5234v.1348c0,.7188.2061,1.3174.6182,1.7959s.9307.7178,1.5557.7178c.375,0,.7061-.0684.9932-.2051s.5479-.3555.7822-.6562l.4395.334c-.5156.7461-1.2637,1.1191-2.2441,1.1191Zm-.1289-5.9766c-.5273,0-.9717.1934-1.333.5801s-.5811.9062-.6592,1.5586h3.8027v-.0762c-.0195-.6094-.1934-1.1055-.5215-1.4883s-.7578-.5742-1.2891-.5742Z"/>
    <path class="cls-7" d="m158.3596,147.2829l.0234,1.084c.2383-.3906.5352-.6885.8906-.8936s.748-.3076,1.1777-.3076c.6797,0,1.1855.1914,1.5176.5742s.5.957.5039,1.7227v4.1602h-.6973v-4.166c-.0039-.5664-.124-.9883-.3604-1.2656s-.6143-.416-1.1338-.416c-.4336,0-.8174.1357-1.1514.4072s-.5811.6377-.7412,1.0986v4.3418h-.6973v-6.3398h.668Z"/>
    <path class="cls-7" d="m166.6272,153.1482c.4883,0,.8975-.1377,1.2275-.4131s.5088-.6318.5361-1.0693h.6738c-.0195.3867-.1406.7393-.3633,1.0576s-.5186.5674-.8877.7471-.7646.2695-1.1865.2695c-.832,0-1.4912-.2891-1.9775-.8672s-.7295-1.3555-.7295-2.332v-.2109c0-.625.1094-1.1777.3281-1.6582s.5322-.8516.9404-1.1133.8857-.3926,1.4326-.3926c.6953,0,1.2686.207,1.7197.6211s.6924.959.7236,1.6348h-.6738c-.0312-.4961-.21-.8965-.5361-1.2012s-.7373-.457-1.2334-.457c-.6328,0-1.124.2285-1.4736.6855s-.5244,1.0977-.5244,1.9219v.2051c0,.8086.1748,1.4395.5244,1.8926s.8428.6797,1.4795.6797Zm-.1055-7.3066l1.0078-1.1367h.627v.0703l-1.3828,1.5293h-.5039l-1.3828-1.5352v-.0645h.627l1.0078,1.1367Z"/>
    <path class="cls-7" d="m171.6018,144.6931h.8496l-1.3535,1.6406-.6152-.0029,1.1191-1.6377Zm-.3633,8.9297h-.7031v-6.3398h.7031v6.3398Z"/>
    <path class="cls-7" d="m178.9846,147.8806c-.1484-.0273-.3066-.041-.4746-.041-.4375,0-.8076.1221-1.1104.3662s-.5186.5986-.6475,1.0635v4.3535h-.6973v-6.3398h.6855l.0117,1.0078c.3711-.75.9668-1.125,1.7871-1.125.1953,0,.3496.0254.4629.0762l-.0176.6387Z"/>
    <path class="cls-7" d="m179.5882,150.3591c0-.6094.1182-1.1582.3545-1.6465s.5703-.8682,1.002-1.1396.9209-.4072,1.4678-.4072c.8438,0,1.5273.2959,2.0508.8877s.7852,1.376.7852,2.3525v.1465c0,.6133-.1182,1.165-.3545,1.6553s-.5693.8682-.999,1.1338-.9199.3984-1.4707.3984c-.8398,0-1.5225-.2959-2.0479-.8877s-.7881-1.376-.7881-2.3525v-.1406Zm.7031.1934c0,.7578.1963,1.3799.5889,1.8662s.9072.7295,1.5439.7295c.6328,0,1.1455-.2432,1.5381-.7295s.5889-1.1279.5889-1.9248v-.1348c0-.4844-.0898-.9277-.2695-1.3301s-.4316-.7139-.7559-.9346-.6953-.3311-1.1133-.3311c-.625,0-1.1348.2451-1.5293.7354s-.5918,1.1318-.5918,1.9248v.1289Z"/>
    <path class="cls-7" d="m188.2014,150.4294l-.8027.7734v2.4199h-.7031v-9h.7031v5.7598l.6621-.7148,2.4258-2.3848h.8848l-2.6895,2.6719,2.9238,3.668h-.8379l-2.5664-3.1934Z"/>
  </g>
  <g>
    <path class="cls-8" d="m13.156,113.1233v-8.5312h2.7891c.9258,0,1.6221.1914,2.0889.5742s.7002.9492.7002,1.6992c0,.3984-.1133.751-.3398,1.0576s-.5352.5439-.9258.7119c.4609.1289.8252.374,1.0928.7354s.4014.792.4014,1.292c0,.7656-.248,1.3672-.7441,1.8047s-1.1973.6562-2.1035.6562h-2.959Zm1.125-4.8926h1.6992c.4922,0,.8857-.1233,1.1807-.3699s.4424-.5813.4424-1.0042c0-.4697-.1367-.8113-.4102-1.0247s-.6895-.3201-1.248-.3201h-1.6641v2.7188Zm0,.9023v3.0703h1.8574c.5234,0,.9365-.1357,1.2393-.4072s.4541-.6455.4541-1.1221c0-1.0273-.5586-1.541-1.6758-1.541h-1.875Z"/>
    <path class="cls-8" d="m26.6326,104.592v5.8008c-.0039.8047-.2568,1.4629-.7588,1.9746s-1.1826.7988-2.042.8613l-.2988.0117c-.9336,0-1.6777-.252-2.2324-.7559s-.8359-1.1973-.8438-2.0801v-5.8125h1.1133v5.7773c0,.6172.1699,1.0967.5098,1.4385s.8242.5127,1.4531.5127c.6367,0,1.124-.1699,1.4619-.5098s.5068-.8184.5068-1.4355v-5.7832h1.1309Z"/>
    <path class="cls-8" d="m28.408,113.1233v-8.5312h2.4082c.7422,0,1.3984.1641,1.9688.4922s1.0107.7949,1.3213,1.4004.4678,1.3008.4717,2.0859v.5449c0,.8047-.1553,1.5098-.4658,2.1152s-.7539,1.0703-1.3301,1.3945-1.2471.4902-2.0127.498h-2.3613Zm1.125-7.6113v6.6914h1.1836c.8672,0,1.542-.2698,2.0244-.8093.4824-.5393.7236-1.3079.7236-2.3047v-.4985c0-.9695-.2275-1.7231-.6826-2.2607s-1.1006-.8103-1.9365-.8181h-1.3125Z"/>
    <path class="cls-8" d="m42.8396,109.133c0,.8359-.1406,1.5654-.4219,2.1885s-.6797,1.0986-1.1953,1.4268-1.1172.4922-1.8047.4922c-.6719,0-1.2676-.165-1.7871-.4951s-.9229-.8008-1.21-1.4121-.4346-1.3193-.4424-2.124v-.6152c0-.8203.1426-1.5449.4277-2.1738s.6885-1.1104,1.21-1.4443,1.1182-.501,1.79-.501c.6836,0,1.2861.165,1.8076.4951s.9229.8086,1.2041,1.4355.4219,1.3564.4219,2.1885v.5391Zm-1.1191-.5508c0-1.0117-.2031-1.7881-.6094-2.3291s-.9746-.8115-1.7051-.8115c-.7109,0-1.2705.2705-1.6787.8115s-.6182,1.292-.6299,2.2529v.627c0,.9805.2061,1.751.6182,2.3115s.9795.8408,1.7021.8408c.7266,0,1.2891-.2646,1.6875-.7939s.6035-1.2881.6152-2.2764v-.6328Z"/>
    <path class="cls-8" d="m47.2224,111.6291l2.4375-7.0371h1.2305l-3.1641,8.5312h-.9961l-3.1582-8.5312h1.2246l2.4258,7.0371Z"/>
    <path class="cls-8" d="m54.6345,108.8752l2.2266-4.2832h1.2773l-2.9414,5.3496v3.1816h-1.125v-3.1816l-2.9414-5.3496h1.2891l2.2148,4.2832Z"/>
    <path class="cls-8" d="m57.7986,114.8225l-.6152-.4219c.3672-.5117.5586-1.0391.5742-1.582v-.9785h1.0605v.8496c0,.3945-.0967.7891-.29,1.1836s-.4365.7109-.7295.9492Z"/>
    <path class="cls-8" d="m63.3298,113.1233v-8.5312h2.4082c.7422,0,1.3984.1641,1.9688.4922s1.0107.7949,1.3213,1.4004.4678,1.3008.4717,2.0859v.5449c0,.8047-.1553,1.5098-.4658,2.1152s-.7539,1.0703-1.3301,1.3945-1.2471.4902-2.0127.498h-2.3613Zm1.125-7.6113v6.6914h1.1836c.8672,0,1.542-.2698,2.0244-.8093.4824-.5393.7236-1.3079.7236-2.3047v-.4985c0-.9695-.2275-1.7231-.6826-2.2607s-1.1006-.8103-1.9365-.8181h-1.3125Z"/>
    <path class="cls-8" d="m77.7615,109.133c0,.8359-.1406,1.5654-.4219,2.1885s-.6797,1.0986-1.1953,1.4268-1.1172.4922-1.8047.4922c-.6719,0-1.2676-.165-1.7871-.4951s-.9229-.8008-1.21-1.4121-.4346-1.3193-.4424-2.124v-.6152c0-.8203.1426-1.5449.4277-2.1738s.6885-1.1104,1.21-1.4443,1.1182-.501,1.79-.501c.6836,0,1.2861.165,1.8076.4951s.9229.8086,1.2041,1.4355.4219,1.3564.4219,2.1885v.5391Zm-1.1191-.5508c0-1.0117-.2031-1.7881-.6094-2.3291s-.9746-.8115-1.7051-.8115c-.7109,0-1.2705.2705-1.6787.8115s-.6182,1.292-.6299,2.2529v.627c0,.9805.2061,1.751.6182,2.3115s.9795.8408,1.7021.8408c.7266,0,1.2891-.2646,1.6875-.7939s.6035-1.2881.6152-2.2764v-.6328Z"/>
    <path class="cls-8" d="m80.574,109.7834v3.3398h-1.125v-8.5312h3.1465c.9336,0,1.665.2383,2.1943.7148s.7939,1.1074.7939,1.8926c0,.8281-.2588,1.4658-.7764,1.9131s-1.2588.6709-2.2236.6709h-2.0098Zm0-.9199h2.0215c.6016,0,1.0625-.1418,1.3828-.4255s.4805-.6936.4805-1.2297c0-.5088-.1602-.9155-.4805-1.2209-.3203-.3052-.7598-.4636-1.3184-.4753h-2.0859v3.3516Z"/>
    <path class="cls-8" d="m90.1482,109.6721h-2.0039v3.4512h-1.1309v-8.5312h2.8242c.9609,0,1.7002.2188,2.2178.6562s.7764,1.0742.7764,1.9102c0,.5312-.1436.9941-.4307,1.3887s-.6865.6895-1.1982.8848l2.0039,3.6211v.0703h-1.207l-1.8516-3.4512Zm-2.0039-.9199h1.7285c.5586,0,1.0029-.1448,1.333-.4343s.4951-.677.4951-1.1624c0-.5283-.1572-.9331-.4717-1.2151-.3145-.2817-.7686-.4246-1.3623-.4285h-1.7227v3.2402Z"/>
    <path class="cls-8" d="m99.1189,110.8909h-3.5742l-.8027,2.2324h-1.1602l3.2578-8.5312h.9844l3.2637,8.5312h-1.1543l-.8145-2.2324Zm-3.2344-.9199h2.9004l-1.4531-3.9902-1.4473,3.9902Z"/>
    <path class="cls-8" d="m104.5506,111.6291l2.4375-7.0371h1.2305l-3.1641,8.5312h-.9961l-3.1582-8.5312h1.2246l2.4258,7.0371Z"/>
    <path class="cls-8" d="m113.6326,110.8909h-3.5742l-.8027,2.2324h-1.1602l3.2578-8.5312h.9844l3.2637,8.5312h-1.1543l-.8145-2.2324Zm-3.2344-.9199h2.9004l-1.4531-3.9902-1.4473,3.9902Z"/>
    <path class="cls-8" d="m119.5095,109.6604c0-.8828.1182-1.7305.3545-2.543s.5889-1.5508,1.0576-2.2148.9551-1.1328,1.459-1.4062l.2227.7148c-.5703.4375-1.0381,1.1055-1.4033,2.0039s-.5654,1.9043-.6006,3.0176l-.0059.498c0,1.5078.2754,2.8164.8262,3.9258.332.6641.7266,1.1836,1.1836,1.5586l-.2227.6621c-.5195-.2891-1.0156-.7734-1.4883-1.4531-.9219-1.3281-1.3828-2.916-1.3828-4.7637Z"/>
    <path class="cls-8" d="m125.2752,104.592l2.7891,6.9609,2.7891-6.9609h1.459v8.5312h-1.125v-3.3223l.1055-3.5859-2.8008,6.9082h-.8613l-2.7949-6.8906.1113,3.5684v3.3223h-1.125v-8.5312h1.4531Z"/>
    <path class="cls-8" d="m135.5056,113.1233h-1.125v-8.5312h1.125v8.5312Z"/>
    <path class="cls-8" d="m139.0154,104.592l2.7891,6.9609,2.7891-6.9609h1.459v8.5312h-1.125v-3.3223l.1055-3.5859-2.8008,6.9082h-.8613l-2.7949-6.8906.1113,3.5684v3.3223h-1.125v-8.5312h1.4531Z"/>
    <path class="cls-8" d="m154.6013,109.133c0,.8359-.1406,1.5654-.4219,2.1885s-.6797,1.0986-1.1953,1.4268-1.1172.4922-1.8047.4922c-.6719,0-1.2676-.165-1.7871-.4951s-.9229-.8008-1.21-1.4121-.4346-1.3193-.4424-2.124v-.6152c0-.8203.1426-1.5449.4277-2.1738s.6885-1.1104,1.21-1.4443,1.1182-.501,1.79-.501c.6836,0,1.2861.165,1.8076.4951s.9229.8086,1.2041,1.4355.4219,1.3564.4219,2.1885v.5391Zm-1.1191-.5508c0-1.0117-.2031-1.7881-.6094-2.3291s-.9746-.8115-1.7051-.8115c-.7109,0-1.2705.2705-1.6787.8115s-.6182,1.292-.6299,2.2529v.627c0,.9805.2061,1.751.6182,2.3115s.9795.8408,1.7021.8408c.7266,0,1.2891-.2646,1.6875-.7939s.6035-1.2881.6152-2.2764v-.6328Z"/>
    <path class="cls-8" d="m160.3904,112.2034h4.043v.9199h-5.1738v-8.5312h1.1309v7.6113Z"/>
    <path class="cls-8" d="m170.5388,109.1799h-3.6973v3.0234h4.2949v.9199h-5.4199v-8.5312h5.3613v.9199h-4.2363v2.748h3.6973v.9199Z"/>
    <path class="cls-8" d="m178.5486,105.512h-2.7422v7.6113h-1.1191v-7.6113h-2.7363v-.9199h6.5977v.9199Z"/>
    <path class="cls-8" d="m184.6365,109.1799h-3.6973v3.0234h4.2949v.9199h-5.4199v-8.5312h5.3613v.9199h-4.2363v2.748h3.6973v.9199Z"/>
    <path class="cls-8" d="m192.9099,110.4163c-.1055.9023-.4385,1.5986-.999,2.0889s-1.3057.7354-2.2354.7354c-1.0078,0-1.8154-.3613-2.4229-1.084s-.9111-1.6895-.9111-2.9004v-.8203c0-.793.1416-1.4902.4248-2.0918s.6846-1.0635,1.2041-1.3857,1.1211-.4834,1.8047-.4834c.9062,0,1.6328.2529,2.1797.7588s.8652,1.2061.9551,2.1006h-1.1309c-.0977-.6816-.3096-1.1755-.6357-1.481-.3262-.3057-.7822-.4585-1.3682-.4585-.7188,0-1.2822.2659-1.6904.7976s-.6123,1.2881-.6123,2.2693v.8271c0,.9265.1934,1.6636.5801,2.2107.3867.5474.9277.821,1.623.821.625,0,1.1045-.1416,1.4385-.4248s.5557-.7764.665-1.4795h1.1309Z"/>
    <path class="cls-8" d="m200.1697,105.512h-2.7422v7.6113h-1.1191v-7.6113h-2.7363v-.9199h6.5977v.9199Z"/>
    <path class="cls-8" d="m204.3533,111.6291l2.4375-7.0371h1.2305l-3.1641,8.5312h-.9961l-3.1582-8.5312h1.2246l2.4258,7.0371Z"/>
    <path class="cls-8" d="m210.3357,102.2366h1.3125l-1.5703,1.7227-.873-.0029,1.1309-1.7197Zm.0352,10.8867h-1.125v-8.5312h1.125v8.5312Z"/>
    <path class="cls-8" d="m214.7595,109.719c0,.8711-.1143,1.7061-.3428,2.5049s-.5781,1.5361-1.0488,2.2119-.9639,1.1562-1.4795,1.4414l-.2285-.6621c.6016-.4609,1.085-1.1768,1.4502-2.1475s.5518-2.0479.5596-3.2314v-.1875c0-.8203-.0859-1.583-.2578-2.2881s-.4111-1.3369-.7178-1.8955-.6514-.9941-1.0342-1.3066l.2285-.6621c.5156.2852,1.0068.7617,1.4736,1.4297s.8164,1.4043,1.0488,2.209.3486,1.666.3486,2.584Z"/>
    <path class="cls-8" d="m216.3943,114.8225l-.6152-.4219c.3672-.5117.5586-1.0391.5742-1.582v-.9785h1.0605v.8496c0,.3945-.0967.7891-.29,1.1836s-.4365.7109-.7295.9492Z"/>
    <path class="cls-8" d="m222.7693,112.2034h4.8809v.9199h-6.2109v-.8438l4.6758-6.7676h-4.5996v-.9199h5.9473v.821l-4.6934,6.7903Z"/>
    <path class="cls-8" d="m233.9314,109.1799h-3.6973v3.0234h4.2949v.9199h-5.4199v-8.5312h5.3613v.9199h-4.2363v2.748h3.6973v.9199Z"/>
    <path class="cls-8" d="m237.3826,104.592l2.7891,6.9609,2.7891-6.9609h1.459v8.5312h-1.125v-3.3223l.1055-3.5859-2.8008,6.9082h-.8613l-2.7949-6.8906.1113,3.5684v3.3223h-1.125v-8.5312h1.4531Z"/>
    <path class="cls-8" d="m251.2283,109.1799h-3.6973v3.0234h4.2949v.9199h-5.4199v-8.5312h5.3613v.9199h-4.2363v2.748h3.6973v.9199Zm-2.1914-5.9473l.8789-.9961h.9375v.0586l-1.4883,1.6055h-.6621l-1.4707-1.6055v-.0586h.9199l.8848.9961Z"/>
    <path class="cls-8" d="m253.2263,113.1233v-8.5312h2.4082c.7422,0,1.3984.1641,1.9688.4922s1.0107.7949,1.3213,1.4004.4678,1.3008.4717,2.0859v.5449c0,.8047-.1553,1.5098-.4658,2.1152s-.7539,1.0703-1.3301,1.3945-1.2471.4902-2.0127.498h-2.3613Zm1.125-7.6113v6.6914h1.1836c.8672,0,1.542-.2698,2.0244-.8093.4824-.5393.7236-1.3079.7236-2.3047v-.4985c0-.9695-.2275-1.7231-.6826-2.2607s-1.1006-.8103-1.9365-.8181h-1.3125Z"/>
    <path class="cls-8" d="m265.9177,109.1799h-3.6973v3.0234h4.2949v.9199h-5.4199v-8.5312h5.3613v.9199h-4.2363v2.748h3.6973v.9199Zm-2.1914-5.9473l.8789-.9961h.9375v.0586l-1.4883,1.6055h-.6621l-1.4707-1.6055v-.0586h.9199l.8848.9961Z"/>
    <path class="cls-8" d="m269.0466,112.2034h4.043v.9199h-5.1738v-8.5312h1.1309v7.6113Z"/>
    <path class="cls-8" d="m276.8865,109.3205c-.9648-.2773-1.667-.6182-2.1064-1.0225s-.6592-.9033-.6592-1.4971c0-.6719.2686-1.2275.8057-1.667s1.2354-.6592,2.0947-.6592c.5859,0,1.1084.1133,1.5674.3398s.8145.5391,1.0664.9375.3779.834.3779,1.3066h-1.1309c0-.5176-.1641-.9241-.4922-1.2202-.3281-.2959-.791-.4438-1.3887-.4438-.5547,0-.9873.1223-1.2979.3669s-.4658.584-.4658,1.0183c0,.3484.1475.6428.4424.8835s.7969.4607,1.5059.6604c.709.1995,1.2637.4194,1.6641.6597s.6973.5205.8906.8408.29.6973.29,1.1309c0,.6914-.2695,1.2451-.8086,1.6611s-1.2598.624-2.1621.624c-.5859,0-1.1328-.1123-1.6406-.3369s-.8994-.5322-1.1748-.9229-.4131-.834-.4131-1.3301h1.1309c0,.5156.1904.9229.5713,1.2217s.8896.4482,1.5264.4482c.5938,0,1.0488-.1211,1.3652-.3633s.4746-.5723.4746-.9902-.1465-.7412-.4395-.9697-.8242-.4541-1.5938-.6768Z"/>
    <path class="cls-8" d="m287.3865,105.512h-2.7422v7.6113h-1.1191v-7.6113h-2.7363v-.9199h6.5977v.9199Z"/>
    <path class="cls-8" d="m291.5701,111.6291l2.4375-7.0371h1.2305l-3.1641,8.5312h-.9961l-3.1582-8.5312h1.2246l2.4258,7.0371Z"/>
    <path class="cls-8" d="m297.5525,102.2366h1.3125l-1.5703,1.7227-.873-.0029,1.1309-1.7197Zm.0352,10.8867h-1.125v-8.5312h1.125v8.5312Z"/>
    <path class="cls-8" d="m299.4392,114.8225l-.6152-.4219c.3672-.5117.5586-1.0391.5742-1.582v-.9785h1.0605v.8496c0,.3945-.0967.7891-.29,1.1836s-.4365.7109-.7295.9492Z"/>
    <path class="cls-8" d="m14.6091,118.9919l2.7891,6.9609,2.7891-6.9609h1.459v8.5312h-1.125v-3.3223l.1055-3.5859-2.8008,6.9082h-.8613l-2.7949-6.8906.1113,3.5684v3.3223h-1.125v-8.5312h1.4531Z"/>
    <path class="cls-8" d="m28.4548,123.5798h-3.6973v3.0234h4.2949v.9199h-5.4199v-8.5312h5.3613v.9199h-4.2363v2.748h3.6973v.9199Z"/>
    <path class="cls-8" d="m37.0095,127.5232h-1.1309l-4.2949-6.5742v6.5742h-1.1309v-8.5312h1.1309l4.3066,6.6035v-6.6035h1.1191v8.5312Z"/>
    <path class="cls-8" d="m41.5213,123.7204c-.9648-.2773-1.667-.6182-2.1064-1.0225s-.6592-.9033-.6592-1.4971c0-.6719.2686-1.2275.8057-1.667s1.2354-.6592,2.0947-.6592c.5859,0,1.1084.1133,1.5674.3398s.8145.5391,1.0664.9375.3779.834.3779,1.3066h-1.1309c0-.5176-.1641-.9241-.4922-1.2202-.3281-.2959-.791-.4438-1.3887-.4438-.5547,0-.9873.1223-1.2979.3669s-.4658.584-.4658,1.0183c0,.3484.1475.6428.4424.8835s.7969.4607,1.5059.6604c.709.1995,1.2637.4194,1.6641.6597s.6973.5205.8906.8408.29.6973.29,1.1309c0,.6914-.2695,1.2451-.8086,1.6611s-1.2598.624-2.1621.624c-.5859,0-1.1328-.1123-1.6406-.3369s-.8994-.5322-1.1748-.9229-.4131-.834-.4131-1.3301h1.1309c0,.5156.1904.9229.5713,1.2217s.8896.4482,1.5264.4482c.5938,0,1.0488-.1211,1.3652-.3633s.4746-.5723.4746-.9902-.1465-.7412-.4395-.9697-.8242-.4541-1.5938-.6768Zm.1348-6.0293l.8789-.9961h.9375v.0586l-1.4883,1.6055h-.6621l-1.4707-1.6055v-.0586h.9199l.8848.9961Z"/>
    <path class="cls-8" d="m47.2986,116.6365h1.3125l-1.5703,1.7227-.873-.0029,1.1309-1.7197Zm.0352,10.8867h-1.125v-8.5312h1.125v8.5312Z"/>
    <path class="cls-8" d="m53.4861,124.1833v3.3398h-1.125v-8.5312h3.1465c.9336,0,1.665.2383,2.1943.7148s.7939,1.1074.7939,1.8926c0,.8281-.2588,1.4658-.7764,1.9131s-1.2588.6709-2.2236.6709h-2.0098Zm0-.9199h2.0215c.6016,0,1.0625-.1418,1.3828-.4255s.4805-.6936.4805-1.2297c0-.5088-.1602-.9155-.4805-1.2209-.3203-.3052-.7598-.4636-1.3184-.4753h-2.0859v3.3516Z"/>
    <path class="cls-8" d="m63.0603,124.072h-2.0039v3.4512h-1.1309v-8.5312h2.8242c.9609,0,1.7002.2188,2.2178.6562s.7764,1.0742.7764,1.9102c0,.5312-.1436.9941-.4307,1.3887s-.6865.6895-1.1982.8848l2.0039,3.6211v.0703h-1.207l-1.8516-3.4512Zm-2.0039-.9199h1.7285c.5586,0,1.0029-.1448,1.333-.4343s.4951-.677.4951-1.1624c0-.5283-.1572-.9331-.4717-1.2151-.3145-.2817-.7686-.4246-1.3623-.4285h-1.7227v3.2402Z"/>
    <path class="cls-8" d="m73.3259,118.9919v5.8008c-.0039.8047-.2568,1.4629-.7588,1.9746s-1.1826.7988-2.042.8613l-.2988.0117c-.9336,0-1.6777-.252-2.2324-.7559s-.8359-1.1973-.8438-2.0801v-5.8125h1.1133v5.7773c0,.6172.1699,1.0967.5098,1.4385s.8242.5127,1.4531.5127c.6367,0,1.124-.1699,1.4619-.5098s.5068-.8184.5068-1.4355v-5.7832h1.1309Zm-1.8281-1.5996c0,.3398-.1211.624-.3633.8525s-.541.3428-.8965.3428c-.3594,0-.6592-.1152-.8994-.3457s-.3604-.5137-.3604-.8496.1201-.623.3604-.8613.54-.3574.8994-.3574.6592.1191.8994.3574.3604.5254.3604.8613Zm-1.9395,0c0,.1836.0654.3418.1963.4746s.292.1992.4834.1992c.1875,0,.3477-.0645.4805-.1934s.1992-.2891.1992-.4805-.0654-.3545-.1963-.4893-.292-.2021-.4834-.2021c-.1953,0-.3574.0684-.4863.2051s-.1934.2988-.1934.4863Z"/>
    <path class="cls-8" d="m76.5545,118.9919l2.7891,6.9609,2.7891-6.9609h1.459v8.5312h-1.125v-3.3223l.1055-3.5859-2.8008,6.9082h-.8613l-2.7949-6.8906.1113,3.5684v3.3223h-1.125v-8.5312h1.4531Z"/>
    <path class="cls-8" d="m88.1795,123.2751l2.2266-4.2832h1.2773l-2.9414,5.3496v3.1816h-1.125v-3.1816l-2.9414-5.3496h1.2891l2.2148,4.2832Z"/>
    <path class="cls-8" d="m95.2048,123.7204c-.9648-.2773-1.667-.6182-2.1064-1.0225s-.6592-.9033-.6592-1.4971c0-.6719.2686-1.2275.8057-1.667s1.2354-.6592,2.0947-.6592c.5859,0,1.1084.1133,1.5674.3398s.8145.5391,1.0664.9375.3779.834.3779,1.3066h-1.1309c0-.5176-.1641-.9241-.4922-1.2202-.3281-.2959-.791-.4438-1.3887-.4438-.5547,0-.9873.1223-1.2979.3669s-.4658.584-.4658,1.0183c0,.3484.1475.6428.4424.8835s.7969.4607,1.5059.6604c.709.1995,1.2637.4194,1.6641.6597s.6973.5205.8906.8408.29.6973.29,1.1309c0,.6914-.2695,1.2451-.8086,1.6611s-1.2598.624-2.1621.624c-.5859,0-1.1328-.1123-1.6406-.3369s-.8994-.5322-1.1748-.9229-.4131-.834-.4131-1.3301h1.1309c0,.5156.1904.9229.5713,1.2217s.8896.4482,1.5264.4482c.5938,0,1.0488-.1211,1.3652-.3633s.4746-.5723.4746-.9902-.1465-.7412-.4395-.9697-.8242-.4541-1.5938-.6768Z"/>
    <path class="cls-8" d="m100.9412,126.6033h4.043v.9199h-5.1738v-8.5312h1.1309v7.6113Z"/>
    <path class="cls-8" d="m113.949,125.2908h-3.5742l-.8027,2.2324h-1.1602l3.2578-8.5312h.9844l3.2637,8.5312h-1.1543l-.8145-2.2324Zm-3.2344-.9199h2.9004l-1.4531-3.9902-1.4473,3.9902Z"/>
    <path class="cls-8" d="m126.5994,123.5329c0,.8359-.1406,1.5654-.4219,2.1885s-.6797,1.0986-1.1953,1.4268-1.1172.4922-1.8047.4922c-.6719,0-1.2676-.165-1.7871-.4951s-.9229-.8008-1.21-1.4121-.4346-1.3193-.4424-2.124v-.6152c0-.8203.1426-1.5449.4277-2.1738s.6885-1.1104,1.21-1.4443,1.1182-.501,1.79-.501c.6836,0,1.2861.165,1.8076.4951s.9229.8086,1.2041,1.4355.4219,1.3564.4219,2.1885v.5391Zm-1.1191-.5508c0-1.0117-.2031-1.7881-.6094-2.3291s-.9746-.8115-1.7051-.8115c-.7109,0-1.2705.2705-1.6787.8115s-.6182,1.292-.6299,2.2529v.627c0,.9805.2061,1.751.6182,2.3115s.9795.8408,1.7021.8408c.7266,0,1.2891-.2646,1.6875-.7939s.6035-1.2881.6152-2.2764v-.6328Z"/>
    <path class="cls-8" d="m128.2869,127.5232v-8.5312h2.4082c.7422,0,1.3984.1641,1.9688.4922s1.0107.7949,1.3213,1.4004.4678,1.3008.4717,2.0859v.5449c0,.8047-.1553,1.5098-.4658,2.1152s-.7539,1.0703-1.3301,1.3945-1.2471.4902-2.0127.498h-2.3613Zm1.125-7.6113v6.6914h1.1836c.8672,0,1.542-.2698,2.0244-.8093.4824-.5393.7236-1.3079.7236-2.3047v-.4985c0-.9695-.2275-1.7231-.6826-2.2607s-1.1006-.8103-1.9365-.8181h-1.3125Z"/>
    <path class="cls-8" d="m137.281,124.1833v3.3398h-1.125v-8.5312h3.1465c.9336,0,1.665.2383,2.1943.7148s.7939,1.1074.7939,1.8926c0,.8281-.2588,1.4658-.7764,1.9131s-1.2588.6709-2.2236.6709h-2.0098Zm0-.9199h2.0215c.6016,0,1.0625-.1418,1.3828-.4255s.4805-.6936.4805-1.2297c0-.5088-.1602-.9155-.4805-1.2209-.3203-.3052-.7598-.4636-1.3184-.4753h-2.0859v3.3516Z"/>
    <path class="cls-8" d="m147.6287,125.2908h-3.5742l-.8027,2.2324h-1.1602l3.2578-8.5312h.9844l3.2637,8.5312h-1.1543l-.8145-2.2324Zm-3.2344-.9199h2.9004l-1.4531-3.9902-1.4473,3.9902Z"/>
    <path class="cls-8" d="m150.7459,127.5232v-8.5312h2.4082c.7422,0,1.3984.1641,1.9688.4922s1.0107.7949,1.3213,1.4004.4678,1.3008.4717,2.0859v.5449c0,.8047-.1553,1.5098-.4658,2.1152s-.7539,1.0703-1.3301,1.3945-1.2471.4902-2.0127.498h-2.3613Zm1.125-7.6113v6.6914h1.1836c.8672,0,1.542-.2698,2.0244-.8093.4824-.5393.7236-1.3079.7236-2.3047v-.4985c0-.9695-.2275-1.7231-.6826-2.2607s-1.1006-.8103-1.9365-.8181h-1.3125Z"/>
    <path class="cls-8" d="m165.1775,123.5329c0,.8359-.1406,1.5654-.4219,2.1885s-.6797,1.0986-1.1953,1.4268-1.1172.4922-1.8047.4922c-.6719,0-1.2676-.165-1.7871-.4951s-.9229-.8008-1.21-1.4121-.4346-1.3193-.4424-2.124v-.6152c0-.8203.1426-1.5449.4277-2.1738s.6885-1.1104,1.21-1.4443,1.1182-.501,1.79-.501c.6836,0,1.2861.165,1.8076.4951s.9229.8086,1.2041,1.4355.4219,1.3564.4219,2.1885v.5391Zm-1.1191-.5508c0-1.0117-.2031-1.7881-.6094-2.3291s-.9746-.8115-1.7051-.8115c-.7109,0-1.2705.2705-1.6787.8115s-.6182,1.292-.6299,2.2529v.627c0,.9805.2061,1.751.6182,2.3115s.9795.8408,1.7021.8408c.7266,0,1.2891-.2646,1.6875-.7939s.6035-1.2881.6152-2.2764v-.6328Z"/>
    <path class="cls-8" d="m169.5603,126.029l2.4375-7.0371h1.2305l-3.1641,8.5312h-.9961l-3.1582-8.5312h1.2246l2.4258,7.0371Z"/>
    <path class="cls-8" d="m179.1931,123.5798h-3.6973v3.0234h4.2949v.9199h-5.4199v-8.5312h5.3613v.9199h-4.2363v2.748h3.6973v.9199Zm-1.6523-6.9434h1.3125l-1.5703,1.7227-.873-.0029,1.1309-1.7197Z"/>
    <path class="cls-8" d="m190.7185,127.5232h-1.1309v-3.9434h-4.3008v3.9434h-1.125v-8.5312h1.125v3.668h4.3008v-3.668h1.1309v8.5312Z"/>
    <path class="cls-8" d="m199.2791,123.5329c0,.8359-.1406,1.5654-.4219,2.1885s-.6797,1.0986-1.1953,1.4268-1.1172.4922-1.8047.4922c-.6719,0-1.2676-.165-1.7871-.4951s-.9229-.8008-1.21-1.4121-.4346-1.3193-.4424-2.124v-.6152c0-.8203.1426-1.5449.4277-2.1738s.6885-1.1104,1.21-1.4443,1.1182-.501,1.79-.501c.6836,0,1.2861.165,1.8076.4951s.9229.8086,1.2041,1.4355.4219,1.3564.4219,2.1885v.5391Zm-1.1191-.5508c0-1.0117-.2031-1.7881-.6094-2.3291s-.9746-.8115-1.7051-.8115c-.7109,0-1.2705.2705-1.6787.8115s-.6182,1.292-.6299,2.2529v.627c0,.9805.2061,1.751.6182,2.3115s.9795.8408,1.7021.8408c.7266,0,1.2891-.2646,1.6875-.7939s.6035-1.2881.6152-2.2764v-.6328Z"/>
    <path class="cls-8" d="m203.4802,123.7204c-.9648-.2773-1.667-.6182-2.1064-1.0225s-.6592-.9033-.6592-1.4971c0-.6719.2686-1.2275.8057-1.667s1.2354-.6592,2.0947-.6592c.5859,0,1.1084.1133,1.5674.3398s.8145.5391,1.0664.9375.3779.834.3779,1.3066h-1.1309c0-.5176-.1641-.9241-.4922-1.2202-.3281-.2959-.791-.4438-1.3887-.4438-.5547,0-.9873.1223-1.2979.3669s-.4658.584-.4658,1.0183c0,.3484.1475.6428.4424.8835s.7969.4607,1.5059.6604c.709.1995,1.2637.4194,1.6641.6597s.6973.5205.8906.8408.29.6973.29,1.1309c0,.6914-.2695,1.2451-.8086,1.6611s-1.2598.624-2.1621.624c-.5859,0-1.1328-.1123-1.6406-.3369s-.8994-.5322-1.1748-.9229-.4131-.834-.4131-1.3301h1.1309c0,.5156.1904.9229.5713,1.2217s.8896.4482,1.5264.4482c.5938,0,1.0488-.1211,1.3652-.3633s.4746-.5723.4746-.9902-.1465-.7412-.4395-.9697-.8242-.4541-1.5938-.6768Z"/>
    <path class="cls-8" d="m209.2107,124.1833v3.3398h-1.125v-8.5312h3.1465c.9336,0,1.665.2383,2.1943.7148s.7939,1.1074.7939,1.8926c0,.8281-.2588,1.4658-.7764,1.9131s-1.2588.6709-2.2236.6709h-2.0098Zm0-.9199h2.0215c.6016,0,1.0625-.1418,1.3828-.4255s.4805-.6936.4805-1.2297c0-.5088-.1602-.9155-.4805-1.2209-.3203-.3052-.7598-.4636-1.3184-.4753h-2.0859v3.3516Z"/>
    <path class="cls-8" d="m222.2185,123.5329c0,.8359-.1406,1.5654-.4219,2.1885s-.6797,1.0986-1.1953,1.4268-1.1172.4922-1.8047.4922c-.6719,0-1.2676-.165-1.7871-.4951s-.9229-.8008-1.21-1.4121-.4346-1.3193-.4424-2.124v-.6152c0-.8203.1426-1.5449.4277-2.1738s.6885-1.1104,1.21-1.4443,1.1182-.501,1.79-.501c.6836,0,1.2861.165,1.8076.4951s.9229.8086,1.2041,1.4355.4219,1.3564.4219,2.1885v.5391Zm-1.1191-.5508c0-1.0117-.2031-1.7881-.6094-2.3291s-.9746-.8115-1.7051-.8115c-.7109,0-1.2705.2705-1.6787.8115s-.6182,1.292-.6299,2.2529v.627c0,.9805.2061,1.751.6182,2.3115s.9795.8408,1.7021.8408c.7266,0,1.2891-.2646,1.6875-.7939s.6035-1.2881.6152-2.2764v-.6328Z"/>
    <path class="cls-8" d="m223.906,127.5232v-8.5312h2.4082c.7422,0,1.3984.1641,1.9688.4922s1.0107.7949,1.3213,1.4004.4678,1.3008.4717,2.0859v.5449c0,.8047-.1553,1.5098-.4658,2.1152s-.7539,1.0703-1.3301,1.3945-1.2471.4902-2.0127.498h-2.3613Zm1.125-7.6113v6.6914h1.1836c.8672,0,1.542-.2698,2.0244-.8093.4824-.5393.7236-1.3079.7236-2.3047v-.4985c0-.9695-.2275-1.7231-.6826-2.2607s-1.1006-.8103-1.9365-.8181h-1.3125Z"/>
    <path class="cls-8" d="m236.4861,125.2908h-3.5742l-.8027,2.2324h-1.1602l3.2578-8.5312h.9844l3.2637,8.5312h-1.1543l-.8145-2.2324Zm-3.2344-.9199h2.9004l-1.4531-3.9902-1.4473,3.9902Zm2.0039-7.6641h1.3125l-1.5703,1.7227-.873-.0029,1.1309-1.7197Z"/>
    <path class="cls-8" d="m242.7322,124.072h-2.0039v3.4512h-1.1309v-8.5312h2.8242c.9609,0,1.7002.2188,2.2178.6562s.7764,1.0742.7764,1.9102c0,.5312-.1436.9941-.4307,1.3887s-.6865.6895-1.1982.8848l2.0039,3.6211v.0703h-1.207l-1.8516-3.4512Zm-.5566-6.3691l.8789-.9961h.9375v.0586l-1.4883,1.6055h-.6621l-1.4707-1.6055v-.0586h.9199l.8848.9961Zm-1.4473,5.4492h1.7285c.5586,0,1.0029-.1448,1.333-.4343s.4951-.677.4951-1.1624c0-.5283-.1572-.9331-.4717-1.2151-.3145-.2817-.7686-.4246-1.3623-.4285h-1.7227v3.2402Z"/>
    <path class="cls-8" d="m249.5056,123.7204c-.9648-.2773-1.667-.6182-2.1064-1.0225s-.6592-.9033-.6592-1.4971c0-.6719.2686-1.2275.8057-1.667s1.2354-.6592,2.0947-.6592c.5859,0,1.1084.1133,1.5674.3398s.8145.5391,1.0664.9375.3779.834.3779,1.3066h-1.1309c0-.5176-.1641-.9241-.4922-1.2202-.3281-.2959-.791-.4438-1.3887-.4438-.5547,0-.9873.1223-1.2979.3669s-.4658.584-.4658,1.0183c0,.3484.1475.6428.4424.8835s.7969.4607,1.5059.6604c.709.1995,1.2637.4194,1.6641.6597s.6973.5205.8906.8408.29.6973.29,1.1309c0,.6914-.2695,1.2451-.8086,1.6611s-1.2598.624-2.1621.624c-.5859,0-1.1328-.1123-1.6406-.3369s-.8994-.5322-1.1748-.9229-.4131-.834-.4131-1.3301h1.1309c0,.5156.1904.9229.5713,1.2217s.8896.4482,1.5264.4482c.5938,0,1.0488-.1211,1.3652-.3633s.4746-.5723.4746-.9902-.1465-.7412-.4395-.9697-.8242-.4541-1.5938-.6768Z"/>
    <path class="cls-8" d="m260.0056,119.9119h-2.7422v7.6113h-1.1191v-7.6113h-2.7363v-.9199h6.5977v.9199Z"/>
    <path class="cls-8" d="m264.1892,126.029l2.4375-7.0371h1.2305l-3.1641,8.5312h-.9961l-3.1582-8.5312h1.2246l2.4258,7.0371Z"/>
    <path class="cls-8" d="m270.1716,116.6365h1.3125l-1.5703,1.7227-.873-.0029,1.1309-1.7197Zm.0352,10.8867h-1.125v-8.5312h1.125v8.5312Z"/>
  </g>
  <g>
    <path class="cls-9" d="m20.1277,68.7561c0-.498-.1758-.8804-.5273-1.147s-.9844-.5479-1.8984-.8438-1.6377-.5874-2.1709-.8745c-1.4531-.7852-2.1797-1.8428-2.1797-3.1729,0-.6914.1948-1.3081.5845-1.8501s.9492-.9653,1.6787-1.27,1.5483-.457,2.4565-.457c.9141,0,1.7285.1655,2.4434.4966s1.27.7983,1.6655,1.4019.5933,1.2891.5933,2.0566h-2.6367c0-.5859-.1846-1.0415-.5537-1.3667s-.8877-.4878-1.5557-.4878c-.6445,0-1.1455.1362-1.5029.4087s-.5361.6313-.5361,1.0767c0,.416.2095.7646.6284,1.0459s1.0356.5449,1.8501.791c1.5.4512,2.5928,1.0107,3.2783,1.6787s1.0283,1.5,1.0283,2.4961c0,1.1074-.4189,1.9761-1.2568,2.606s-1.9658.9448-3.3838.9448c-.9844,0-1.8809-.1802-2.6895-.5405s-1.4253-.854-1.8501-1.481-.6372-1.3535-.6372-2.1797h2.6455c0,1.4121.8438,2.1182,2.5312,2.1182.627,0,1.1162-.1274,1.4678-.3823s.5273-.6108.5273-1.0679Z"/>
    <path class="cls-9" d="m26.7283,62.6038l.0791,1.0986c.6797-.8496,1.5908-1.2744,2.7334-1.2744,1.0078,0,1.7578.2959,2.25.8877s.7441,1.4766.7559,2.6543v6.1436h-2.54v-6.082c0-.5391-.1172-.9302-.3516-1.1733s-.624-.3647-1.1689-.3647c-.7148,0-1.251.3047-1.6084.9141v6.7061h-2.54v-9.5098h2.3906Z"/>
    <path class="cls-9" d="m37.2136,72.1135h-2.54v-9.5098h2.54v9.5098Zm-.7471-13.3682h2.7686l-2.4346,2.7246h-2.0654l1.7314-2.7246Z"/>
    <path class="cls-9" d="m42.3201,70.0657h4.6494v2.0479h-7.8926v-1.5469l4.4736-5.915h-4.3418v-2.0479h7.6201v1.4966l-4.5088,5.9653Zm.6943-10.2041l1.2832-1.2568h2.1709v.0967l-2.6543,2.4697h-1.6084l-2.6543-2.4873v-.0791h2.1709l1.292,1.2568Z"/>
    <path class="cls-9" d="m52.9373,72.2893c-1.3945,0-2.5298-.4277-3.4058-1.2832s-1.314-1.9951-1.314-3.4189v-.2461c0-.9551.1846-1.8091.5537-2.562s.8921-1.333,1.5688-1.7402,1.4487-.6108,2.3159-.6108c1.3008,0,2.3247.4102,3.0718,1.2305s1.1206,1.9834,1.1206,3.4893v1.0371h-6.0557c.082.6211.3296,1.1191.7427,1.4941s.936.5625,1.5688.5625c.9785,0,1.7432-.3545,2.2939-1.0635l1.248,1.3975c-.3809.5391-.8965.9595-1.5469,1.2612s-1.3711.4526-2.1621.4526Zm-.29-7.8135c-.5039,0-.9126.1704-1.2261.5122-.3135.3413-.5142.8296-.6021,1.4653h3.5332v-.2031c-.0117-.5649-.1641-1.002-.457-1.311s-.709-.4634-1.248-.4634Z"/>
    <path class="cls-9" d="m60.6277,62.6038l.0791,1.0986c.6797-.8496,1.5908-1.2744,2.7334-1.2744,1.0078,0,1.7578.2959,2.25.8877s.7441,1.4766.7559,2.6543v6.1436h-2.54v-6.082c0-.5391-.1172-.9302-.3516-1.1733s-.624-.3647-1.1689-.3647c-.7148,0-1.251.3047-1.6084.9141v6.7061h-2.54v-9.5098h2.3906Z"/>
    <path class="cls-9" d="m71.1131,72.1135h-2.54v-9.5098h2.54v9.5098Zm-.7471-13.3682h2.7686l-2.4346,2.7246h-2.0654l1.7314-2.7246Z"/>
    <path class="cls-9" d="m82.1609,72.2893c-1.3945,0-2.5298-.4277-3.4058-1.2832s-1.314-1.9951-1.314-3.4189v-.2461c0-.9551.1846-1.8091.5537-2.562s.8921-1.333,1.5688-1.7402,1.4487-.6108,2.3159-.6108c1.3008,0,2.3247.4102,3.0718,1.2305s1.1206,1.9834,1.1206,3.4893v1.0371h-6.0557c.082.6211.3296,1.1191.7427,1.4941s.936.5625,1.5688.5625c.9785,0,1.7432-.3545,2.2939-1.0635l1.248,1.3975c-.3809.5391-.8965.9595-1.5469,1.2612s-1.3711.4526-2.1621.4526Zm-.29-7.8135c-.5039,0-.9126.1704-1.2261.5122-.3135.3413-.5142.8296-.6021,1.4653h3.5332v-.2031c-.0117-.5649-.1641-1.002-.457-1.311s-.709-.4634-1.248-.4634Z"/>
    <path class="cls-9" d="m89.8953,62.6038l.0791,1.0635c.6738-.8262,1.585-1.2393,2.7334-1.2393,1.2246,0,2.0654.4834,2.5225,1.4502.668-.9668,1.6201-1.4502,2.8564-1.4502,1.0312,0,1.7988.3003,2.3027.9009s.7559,1.5044.7559,2.7114v6.0732h-2.5488v-6.0645c0-.5391-.1055-.9331-.3164-1.1821s-.583-.3735-1.1162-.3735c-.7617,0-1.2891.3633-1.582,1.0898l.0088,6.5303h-2.54v-6.0557c0-.5508-.1084-.9492-.3252-1.1953s-.5859-.3691-1.1074-.3691c-.7207,0-1.2422.2988-1.5645.8965v6.7236h-2.54v-9.5098h2.3818Z"/>
    <path class="cls-9" d="m103.0789,60.1428c0-.3809.1274-.6943.3823-.9404s.6021-.3691,1.0415-.3691c.4336,0,.7793.123,1.0371.3691s.3867.5596.3867.9404c0,.3867-.1304.7031-.3911.9492s-.605.3691-1.0327.3691-.772-.123-1.0327-.3691-.3911-.5625-.3911-.9492Zm2.6982,11.9707h-2.5488v-9.5098h2.5488v9.5098Z"/>
    <path class="cls-9" d="m113.0193,69.4856c0-.3105-.1538-.5552-.4614-.7339s-.8013-.3384-1.481-.479c-2.2617-.4746-3.3926-1.4355-3.3926-2.8828,0-.8438.3501-1.5483,1.0503-2.1138s1.6157-.8481,2.7466-.8481c1.207,0,2.1724.2842,2.896.8525s1.0854,1.3066,1.0854,2.2148h-2.54c0-.3633-.1172-.6636-.3516-.9009s-.6006-.356-1.0986-.356c-.4277,0-.7588.0967-.9932.29s-.3516.4395-.3516.7383c0,.2812.1333.5083.3999.6812s.7163.3223,1.3491.4482,1.166.2681,1.5996.4263c1.3418.4922,2.0127,1.3447,2.0127,2.5576,0,.8672-.3721,1.5688-1.1162,2.105s-1.7051.8042-2.8828.8042c-.7969,0-1.5044-.1421-2.1226-.4263s-1.103-.6738-1.4546-1.1689-.5273-1.0298-.5273-1.604h2.4082c.0234.4512.1904.7969.501,1.0371s.7266.3604,1.248.3604c.4863,0,.854-.0923,1.103-.2769s.3735-.4263.3735-.7251Z"/>
    <path class="cls-9" d="m119.866,72.1135h-2.54v-9.5098h2.54v9.5098Zm-.7471-13.3682h2.7686l-2.4346,2.7246h-2.0654l1.7314-2.7246Z"/>
    <path class="cls-9" d="m128.9187,62.6038l.0791,1.0635c.6738-.8262,1.585-1.2393,2.7334-1.2393,1.2246,0,2.0654.4834,2.5225,1.4502.668-.9668,1.6201-1.4502,2.8564-1.4502,1.0312,0,1.7988.3003,2.3027.9009s.7559,1.5044.7559,2.7114v6.0732h-2.5488v-6.0645c0-.5391-.1055-.9331-.3164-1.1821s-.583-.3735-1.1162-.3735c-.7617,0-1.2891.3633-1.582,1.0898l.0088,6.5303h-2.54v-6.0557c0-.5508-.1084-.9492-.3252-1.1953s-.5859-.3691-1.1074-.3691c-.7207,0-1.2422.2988-1.5645.8965v6.7236h-2.54v-9.5098h2.3818Z"/>
    <path class="cls-9" d="m142.1023,60.1428c0-.3809.1274-.6943.3823-.9404s.6021-.3691,1.0415-.3691c.4336,0,.7793.123,1.0371.3691s.3867.5596.3867.9404c0,.3867-.1304.7031-.3911.9492s-.605.3691-1.0327.3691-.772-.123-1.0327-.3691-.3911-.5625-.3911-.9492Zm2.6982,11.9707h-2.5488v-9.5098h2.5488v9.5098Z"/>
    <path class="cls-9" d="m149.2742,62.6038l.0791,1.0635c.6738-.8262,1.585-1.2393,2.7334-1.2393,1.2246,0,2.0654.4834,2.5225,1.4502.668-.9668,1.6201-1.4502,2.8564-1.4502,1.0312,0,1.7988.3003,2.3027.9009s.7559,1.5044.7559,2.7114v6.0732h-2.5488v-6.0645c0-.5391-.1055-.9331-.3164-1.1821s-.583-.3735-1.1162-.3735c-.7617,0-1.2891.3633-1.582,1.0898l.0088,6.5303h-2.54v-6.0557c0-.5508-.1084-.9492-.3252-1.1953s-.5859-.3691-1.1074-.3691c-.7207,0-1.2422.2988-1.5645.8965v6.7236h-2.54v-9.5098h2.3818Z"/>
    <path class="cls-9" d="m162.0798,67.2707c0-.9434.1816-1.7842.5449-2.5225s.8862-1.3096,1.5688-1.7139,1.4751-.6064,2.3774-.6064c1.2832,0,2.3306.3926,3.1421,1.1777s1.2642,1.8516,1.3579,3.1992l.0176.6504c0,1.459-.4072,2.6294-1.2217,3.5112s-1.9072,1.3228-3.2783,1.3228-2.4653-.4395-3.2827-1.3184-1.2261-2.0742-1.2261-3.5859v-.1143Zm2.54.1802c0,.9038.1699,1.5947.5098,2.0732.3398.478.8262.7173,1.459.7173.6152,0,1.0957-.2363,1.4414-.7085.3457-.4727.5186-1.228.5186-2.2671,0-.8857-.1729-1.5723-.5186-2.0596-.3457-.4868-.832-.7305-1.459-.7305-.6211,0-1.1016.2422-1.4414.7261-.3398.4844-.5098,1.2339-.5098,2.249Z"/>
    <path class="cls-9" d="m185.0017,66.5676h-5.0625v3.4277h5.9414v2.1182h-8.5781v-12.7969h8.5605v2.1357h-5.9238v3.0498h5.0625v2.0654Z"/>
    <path class="cls-9" d="m197.1131,59.3166v8.4287c0,1.4004-.438,2.5078-1.314,3.3223s-2.0728,1.2217-3.5903,1.2217c-1.4941,0-2.6807-.3955-3.5596-1.1865s-1.3271-1.8779-1.3447-3.2607v-8.5254h2.6367v8.4463c0,.8379.2007,1.4487.6021,1.8325s.9565.5757,1.6655.5757c1.4824,0,2.2354-.7793,2.2588-2.3379v-8.5166h2.6455Z"/>
    <path class="cls-9" d="m211.4568,66.5676h-5.0625v3.4277h5.9414v2.1182h-8.5781v-12.7969h8.5605v2.1357h-5.9238v3.0498h5.0625v2.0654Z"/>
    <path class="cls-9" d="m223.6912,61.4524h-3.9199v10.6611h-2.6367v-10.6611h-3.8672v-2.1357h10.4238v2.1357Z"/>
    <path class="cls-9" d="m231.6892,68.7561c0-.498-.1758-.8804-.5273-1.147s-.9844-.5479-1.8984-.8438-1.6377-.5874-2.1709-.8745c-1.4531-.7852-2.1797-1.8428-2.1797-3.1729,0-.6914.1948-1.3081.5845-1.8501s.9492-.9653,1.6787-1.27,1.5483-.457,2.4565-.457c.9141,0,1.7285.1655,2.4434.4966s1.27.7983,1.6655,1.4019.5933,1.2891.5933,2.0566h-2.6367c0-.5859-.1846-1.0415-.5537-1.3667s-.8877-.4878-1.5557-.4878c-.6445,0-1.1455.1362-1.5029.4087s-.5361.6313-.5361,1.0767c0,.416.2095.7646.6284,1.0459s1.0356.5449,1.8501.791c1.5.4512,2.5928,1.0107,3.2783,1.6787s1.0283,1.5,1.0283,2.4961c0,1.1074-.4189,1.9761-1.2568,2.606s-1.9658.9448-3.3838.9448c-.9844,0-1.8809-.1802-2.6895-.5405s-1.4253-.854-1.8501-1.481-.6372-1.3535-.6372-2.1797h2.6455c0,1.4121.8438,2.1182,2.5312,2.1182.627,0,1.1162-.1274,1.4678-.3823s.5273-.6108.5273-1.0679Z"/>
    <path class="cls-9" d="m13.637,84.9104c0-1.3418.1787-2.6191.5361-3.832s.8848-2.2866,1.582-3.2212,1.4531-1.5835,2.2676-1.9468l.4922,1.3711c-.8555.6328-1.5234,1.6113-2.0039,2.9355s-.7207,2.8711-.7207,4.6406v.2725c0,1.7754.2373,3.3281.7119,4.6582s1.1455,2.3232,2.0127,2.9795l-.4922,1.3447c-.7969-.3574-1.5396-.9888-2.228-1.894s-1.2144-1.9497-1.5776-3.1333-.5566-2.4199-.5801-3.709v-.4658Z"/>
    <path class="cls-9" d="m30.4153,90.1135h-2.6367l-5.1328-8.4199v8.4199h-2.6367v-12.7969h2.6367l5.1416,8.4375v-8.4375h2.6279v12.7969Z"/>
    <path class="cls-9" d="m38.0618,90.1135c-.1172-.2285-.2021-.5127-.2549-.8525-.6152.6855-1.415,1.0283-2.3994,1.0283-.9316,0-1.7036-.2695-2.3159-.8086s-.9185-1.2188-.9185-2.0391c0-1.0078.3735-1.7812,1.1206-2.3203s1.8267-.8115,3.2388-.8174h1.1689v-.5449c0-.4395-.1128-.791-.3384-1.0547s-.5815-.3955-1.0679-.3955c-.4277,0-.7632.1025-1.0063.3076s-.3647.4863-.3647.8438h-2.54c0-.5508.1699-1.0605.5098-1.5293s.8203-.8364,1.4414-1.103,1.3184-.3999,2.0918-.3999c1.1719,0,2.1021.2944,2.7905.8833s1.0327,1.4165,1.0327,2.4829v4.1221c.0059.9023.1318,1.585.3779,2.0479v.1494h-2.5664Zm-2.1006-1.7666c.375,0,.7207-.0835,1.0371-.2505s.5508-.3911.7031-.6724v-1.6348h-.9492c-1.2715,0-1.9482.4395-2.0303,1.3184l-.0088.1494c0,.3164.1113.5771.334.7822s.5273.3076.9141.3076Z"/>
    <path class="cls-9" d="m44.8382,77.8616l1.2832-1.2568h2.1709v.0967l-2.6543,2.4697h-1.6084l-2.6543-2.4873v-.0791h2.1709l1.292,1.2568Zm2.707,5.124c-.3457-.0469-.6504-.0703-.9141-.0703-.9609,0-1.5908.3252-1.8896.9756v6.2227h-2.54v-9.5098h2.3994l.0703,1.1338c.5098-.873,1.2158-1.3096,2.1182-1.3096.2812,0,.5449.0381.791.1143l-.0352,2.4434Z"/>
    <path class="cls-9" d="m51.509,90.1135h-2.54v-9.5098h2.54v9.5098Zm-.7471-13.3682h2.7686l-2.4346,2.7246h-2.0654l1.7314-2.7246Z"/>
    <path class="cls-9" d="m56.6155,88.0657h4.6494v2.0479h-7.8926v-1.5469l4.4736-5.915h-4.3418v-2.0479h7.6201v1.4966l-4.5088,5.9653Z"/>
    <path class="cls-9" d="m67.2327,90.2893c-1.3945,0-2.5298-.4277-3.4058-1.2832s-1.314-1.9951-1.314-3.4189v-.2461c0-.9551.1846-1.8091.5537-2.562s.8921-1.333,1.5688-1.7402,1.4487-.6108,2.3159-.6108c1.3008,0,2.3247.4102,3.0718,1.2305s1.1206,1.9834,1.1206,3.4893v1.0371h-6.0557c.082.6211.3296,1.1191.7427,1.4941s.936.5625,1.5688.5625c.9785,0,1.7432-.3545,2.2939-1.0635l1.248,1.3975c-.3809.5391-.8965.9595-1.5469,1.2612s-1.3711.4526-2.1621.4526Zm-.29-7.8135c-.5039,0-.9126.1704-1.2261.5122-.3135.3413-.5142.8296-.6021,1.4653h3.5332v-.2031c-.0117-.5649-.1641-1.002-.457-1.311s-.709-.4634-1.248-.4634Z"/>
    <path class="cls-9" d="m74.9231,80.6038l.0791,1.0986c.6797-.8496,1.5908-1.2744,2.7334-1.2744,1.0078,0,1.7578.2959,2.25.8877s.7441,1.4766.7559,2.6543v6.1436h-2.54v-6.082c0-.5391-.1172-.9302-.3516-1.1733s-.624-.3647-1.1689-.3647c-.7148,0-1.251.3047-1.6084.9141v6.7061h-2.54v-9.5098h2.3906Z"/>
    <path class="cls-9" d="m85.4085,90.1135h-2.54v-9.5098h2.54v9.5098Zm-.7471-13.3682h2.7686l-2.4346,2.7246h-2.0654l1.7314-2.7246Z"/>
    <path class="cls-9" d="m91.6839,85.2707c0-.9434.1816-1.7842.5449-2.5225s.8862-1.3096,1.5688-1.7139,1.4751-.6064,2.3774-.6064c1.2832,0,2.3306.3926,3.1421,1.1777s1.2642,1.8516,1.3579,3.1992l.0176.6504c0,1.459-.4072,2.6294-1.2217,3.5112s-1.9072,1.3228-3.2783,1.3228-2.4653-.4395-3.2827-1.3184-1.2261-2.0742-1.2261-3.5859v-.1143Zm2.54.1802c0,.9038.1699,1.5947.5098,2.0732.3398.478.8262.7173,1.459.7173.6152,0,1.0957-.2363,1.4414-.7085.3457-.4727.5186-1.228.5186-2.2671,0-.8857-.1729-1.5723-.5186-2.0596-.3457-.4868-.832-.7305-1.459-.7305-.6211,0-1.1016.2422-1.4414.7261-.3398.4844-.5098,1.2339-.5098,2.249Z"/>
    <path class="cls-9" d="m111.8899,87.4856c0-.3105-.1538-.5552-.4614-.7339s-.8013-.3384-1.481-.479c-2.2617-.4746-3.3926-1.4355-3.3926-2.8828,0-.8438.3501-1.5483,1.0503-2.1138s1.6157-.8481,2.7466-.8481c1.207,0,2.1724.2842,2.896.8525s1.0854,1.3066,1.0854,2.2148h-2.54c0-.3633-.1172-.6636-.3516-.9009s-.6006-.356-1.0986-.356c-.4277,0-.7588.0967-.9932.29s-.3516.4395-.3516.7383c0,.2812.1333.5083.3999.6812s.7163.3223,1.3491.4482,1.166.2681,1.5996.4263c1.3418.4922,2.0127,1.3447,2.0127,2.5576,0,.8672-.3721,1.5688-1.1162,2.105s-1.7051.8042-2.8828.8042c-.7969,0-1.5044-.1421-2.1226-.4263s-1.103-.6738-1.4546-1.1689-.5273-1.0298-.5273-1.604h2.4082c.0234.4512.1904.7969.501,1.0371s.7266.3604,1.248.3604c.4863,0,.854-.0923,1.103-.2769s.3735-.4263.3735-.7251Z"/>
    <path class="cls-9" d="m115.5989,85.2883c0-1.4824.3325-2.6631.9976-3.542s1.5747-1.3184,2.729-1.3184c.9258,0,1.6904.3457,2.2939,1.0371v-4.8516h2.5488v13.5h-2.2939l-.123-1.0107c-.6328.791-1.4473,1.1865-2.4434,1.1865-1.1191,0-2.0171-.4409-2.6938-1.3228s-1.0151-2.1079-1.0151-3.6782Zm2.54.189c0,.8921.1553,1.5757.4658,2.0513.3105.4751.7617.7129,1.3535.7129.7852,0,1.3389-.3315,1.6611-.9946v-3.7588c-.3164-.6631-.8643-.9946-1.6436-.9946-1.2246,0-1.8369.9946-1.8369,2.9839Z"/>
    <path class="cls-9" d="m128.8792,90.1135h-2.54v-9.5098h2.54v9.5098Zm-.7471-13.3682h2.7686l-2.4346,2.7246h-2.0654l1.7314-2.7246Z"/>
    <path class="cls-9" d="m133.7483,90.1135h-2.5488v-13.5h2.5488v13.5Z"/>
    <path class="cls-9" d="m140.2171,90.2893c-1.3945,0-2.5298-.4277-3.4058-1.2832s-1.314-1.9951-1.314-3.4189v-.2461c0-.9551.1846-1.8091.5537-2.562s.8921-1.333,1.5688-1.7402,1.4487-.6108,2.3159-.6108c1.3008,0,2.3247.4102,3.0718,1.2305s1.1206,1.9834,1.1206,3.4893v1.0371h-6.0557c.082.6211.3296,1.1191.7427,1.4941s.936.5625,1.5688.5625c.9785,0,1.7432-.3545,2.2939-1.0635l1.248,1.3975c-.3809.5391-.8965.9595-1.5469,1.2612s-1.3711.4526-2.1621.4526Zm-.29-7.8135c-.5039,0-.9126.1704-1.2261.5122-.3135.3413-.5142.8296-.6021,1.4653h3.5332v-.2031c-.0117-.5649-.1641-1.002-.457-1.311s-.709-.4634-1.248-.4634Z"/>
    <path class="cls-9" d="m147.9075,80.6038l.0791,1.0986c.6797-.8496,1.5908-1.2744,2.7334-1.2744,1.0078,0,1.7578.2959,2.25.8877s.7441,1.4766.7559,2.6543v6.1436h-2.54v-6.082c0-.5391-.1172-.9302-.3516-1.1733s-.624-.3647-1.1689-.3647c-.7148,0-1.251.3047-1.6084.9141v6.7061h-2.54v-9.5098h2.3906Z"/>
    <path class="cls-9" d="m158.3928,90.1135h-2.54v-9.5098h2.54v9.5098Zm-.7471-13.3682h2.7686l-2.4346,2.7246h-2.0654l1.7314-2.7246Z"/>
    <path class="cls-9" d="m170.759,89.1467c-.627.7617-1.4941,1.1426-2.6016,1.1426-1.0195,0-1.7974-.293-2.3335-.8789s-.8101-1.4443-.8218-2.5752v-6.2314h2.54v6.1504c0,.9917.4512,1.4873,1.3535,1.4873.8613,0,1.4531-.2993,1.7754-.8975v-6.7402h2.5488v9.5098h-2.3906l-.0703-.9668Zm-1.1338-12.5332h2.7686l-2.4346,2.7246h-2.0654l1.7314-2.7246Z"/>
    <path class="cls-9" d="m180.2864,87.4856c0-.3105-.1538-.5552-.4614-.7339s-.8013-.3384-1.481-.479c-2.2617-.4746-3.3926-1.4355-3.3926-2.8828,0-.8438.3501-1.5483,1.0503-2.1138s1.6157-.8481,2.7466-.8481c1.207,0,2.1724.2842,2.896.8525s1.0854,1.3066,1.0854,2.2148h-2.54c0-.3633-.1172-.6636-.3516-.9009s-.6006-.356-1.0986-.356c-.4277,0-.7588.0967-.9932.29s-.3516.4395-.3516.7383c0,.2812.1333.5083.3999.6812s.7163.3223,1.3491.4482,1.166.2681,1.5996.4263c1.3418.4922,2.0127,1.3447,2.0127,2.5576,0,.8672-.3721,1.5688-1.1162,2.105s-1.7051.8042-2.8828.8042c-.7969,0-1.5044-.1421-2.1226-.4263s-1.103-.6738-1.4546-1.1689-.5273-1.0298-.5273-1.604h2.4082c.0234.4512.1904.7969.501,1.0371s.7266.3604,1.248.3604c.4863,0,.854-.0923,1.103-.2769s.3735-.4263.3735-.7251Z"/>
    <path class="cls-9" d="m184.3733,78.1428c0-.3809.1274-.6943.3823-.9404s.6021-.3691,1.0415-.3691c.4336,0,.7793.123,1.0371.3691s.3867.5596.3867.9404c0,.3867-.1304.7031-.3911.9492s-.605.3691-1.0327.3691-.772-.123-1.0327-.3691-.3911-.5625-.3911-.9492Zm2.6982,11.9707h-2.5488v-9.5098h2.5488v9.5098Z"/>
    <path class="cls-9" d="m191.844,90.1135h-2.5488v-13.5h2.5488v13.5Z"/>
    <path class="cls-9" d="m196.678,90.1135h-2.54v-9.5098h2.54v9.5098Zm-.7471-13.3682h2.7686l-2.4346,2.7246h-2.0654l1.7314-2.7246Z"/>
    <path class="cls-9" d="m203.2434,85.1125c0,1.3242-.1904,2.5986-.5713,3.8232s-.9287,2.3057-1.6436,3.2432-1.4795,1.582-2.2939,1.9336l-.4922-1.3447c.832-.627,1.4883-1.5938,1.9688-2.9004s.7295-2.8096.7471-4.5088v-.4658c0-1.752-.2388-3.2959-.7163-4.6318s-1.144-2.3379-1.9995-3.0059l.4922-1.3447c.7969.3457,1.5483.9727,2.2544,1.8809s1.2539,1.9658,1.6436,3.1729.5933,2.458.6108,3.7529v.3955Z"/>
  </g>
  <g>
    <path class="cls-12" d="m43.1773,375.8672h259.9506"/>
    <path class="cls-12" d="m43.1773,339.9941h259.9506"/>
    <path class="cls-12" d="m43.1773,304.121h259.9506"/>
    <path class="cls-12" d="m43.1773,268.8773h259.9506"/>
    <path class="cls-12" d="m43.1773,411.1109h259.9506"/>
    <path class="cls-12" d="m43.1773,233.0042h259.9506"/>
    <path class="cls-12" d="m43.1773,197.7605h259.9506"/>
  </g>
  <g>
    <path class="cls-6" d="m21.5506,198.331c0,1.2695-.2168,2.2129-.6504,2.8301s-1.1113.9258-2.0332.9258c-.9102,0-1.584-.3018-2.0215-.9053s-.6641-1.5049-.6797-2.7041v-1.4473c0-1.2539.2168-2.1855.6504-2.7949s1.1133-.9141,2.0391-.9141c.918,0,1.5938.2939,2.0273.8818s.6562,1.4951.668,2.7217v1.4062Zm-1.084-1.4824c0-.918-.1289-1.5869-.3867-2.0068s-.666-.6299-1.2246-.6299c-.5547,0-.959.209-1.2129.627s-.3848,1.0605-.3926,1.9277v1.7344c0,.9219.1338,1.6025.4014,2.042s.6729.6592,1.2158.6592c.5352,0,.9326-.207,1.1924-.6211s.3955-1.0664.4072-1.957v-1.7754Z"/>
    <path class="cls-6" d="m25.8162,195.0791c0-.5117.1631-.9336.4893-1.2656s.7451-.498,1.2568-.498c.5195,0,.9404.167,1.2627.501s.4834.7666.4834,1.2979v.416c0,.5156-.1631.9365-.4893,1.2627s-.7412.4893-1.2451.4893c-.5078,0-.9277-.1631-1.2598-.4893s-.498-.7607-.498-1.3037v-.4102Zm.8086.4487c0,.3057.0859.5571.2578.7549s.4023.2964.6914.2964c.2773,0,.501-.0957.6709-.2876s.2549-.4541.2549-.7871v-.4287c0-.3052-.084-.5581-.252-.7573-.168-.1997-.3965-.2998-.6855-.2998s-.5176.1001-.6855.2998c-.168.1992-.252.46-.252.7808v.4287Zm1.1953,5.7974l-.6152-.3867,4.166-6.668.6152.3867-4.166,6.668Zm2.1504-1.4473c0-.5117.1631-.9326.4893-1.2627s.7451-.4951,1.2568-.4951.9316.1641,1.2598.4922.4922.7637.4922,1.3066v.416c0,.5117-.1631.9326-.4893,1.2627s-.7432.4951-1.251.4951-.9277-.1631-1.2598-.4893-.498-.7607-.498-1.3037v-.4219Zm.8086.4546c0,.3091.0859.563.2578.7607s.4023.2964.6914.2964c.2812,0,.5059-.0967.6738-.2905s.252-.457.252-.79v-.4346c0-.3091-.085-.562-.2549-.7573-.1699-.1958-.3975-.2939-.6826-.2939-.2773,0-.5029.0972-.6768.2905-.1738.1938-.2607.4556-.2607.7842v.4346Z"/>
  </g>
  <g>
    <path class="cls-7" d="m33.1223,166.6211h-1.0898v-7.2246l-2.1855.8027v-.9844l3.1055-1.166h.1699v8.5723Z"/>
    <path class="cls-7" d="m40.4524,162.8711c-.2266.2695-.4971.4863-.8115.6504s-.6592.2461-1.0342.2461c-.4922,0-.9209-.1211-1.2861-.3633s-.6475-.583-.8467-1.0225-.2988-.9248-.2988-1.4561c0-.5703.1084-1.084.3252-1.541s.5244-.8066.9229-1.0488.8633-.3633,1.3945-.3633c.8438,0,1.5088.3154,1.9951.9463s.7295,1.4912.7295,2.5811v.3164c0,1.6602-.3281,2.8721-.9844,3.6357s-1.6465,1.1553-2.9707,1.1748h-.2109v-.9199h.2285c.8945-.0156,1.582-.2485,2.0625-.6987s.7422-1.1626.7852-2.1372Zm-1.6699,0c.3633,0,.6982-.1113,1.0049-.334s.5303-.498.6709-.8262v-.4336c0-.7109-.1543-1.2891-.4629-1.7344s-.6992-.668-1.1719-.668c-.4766,0-.8594.1826-1.1484.5479s-.4336.8467-.4336,1.4443c0,.582.1396,1.0615.4189,1.4385s.6533.5654,1.1221.5654Z"/>
    <path class="cls-7" d="m47.1907,162.8711c-.2266.2695-.4971.4863-.8115.6504s-.6592.2461-1.0342.2461c-.4922,0-.9209-.1211-1.2861-.3633s-.6475-.583-.8467-1.0225-.2988-.9248-.2988-1.4561c0-.5703.1084-1.084.3252-1.541s.5244-.8066.9229-1.0488.8633-.3633,1.3945-.3633c.8438,0,1.5088.3154,1.9951.9463s.7295,1.4912.7295,2.5811v.3164c0,1.6602-.3281,2.8721-.9844,3.6357s-1.6465,1.1553-2.9707,1.1748h-.2109v-.9199h.2285c.8945-.0156,1.582-.2485,2.0625-.6987s.7422-1.1626.7852-2.1372Zm-1.6699,0c.3633,0,.6982-.1113,1.0049-.334s.5303-.498.6709-.8262v-.4336c0-.7109-.1543-1.2891-.4629-1.7344s-.6992-.668-1.1719-.668c-.4766,0-.8594.1826-1.1484.5479s-.4336.8467-.4336,1.4443c0,.582.1396,1.0615.4189,1.4385s.6533.5654,1.1221.5654Z"/>
    <path class="cls-7" d="m55.1243,162.9824c0,1.2695-.2168,2.2129-.6504,2.8301s-1.1113.9258-2.0332.9258c-.9102,0-1.584-.3018-2.0215-.9053s-.6641-1.5049-.6797-2.7041v-1.4473c0-1.2539.2168-2.1855.6504-2.7949s1.1133-.9141,2.0391-.9141c.918,0,1.5938.2939,2.0273.8818s.6562,1.4951.668,2.7217v1.4062Zm-1.084-1.4824c0-.918-.1289-1.5869-.3867-2.0068s-.666-.6299-1.2246-.6299c-.5547,0-.959.209-1.2129.627s-.3848,1.0605-.3926,1.9277v1.7344c0,.9219.1338,1.6025.4014,2.042s.6729.6592,1.2158.6592c.5352,0,.9326-.207,1.1924-.6211s.3955-1.0664.4072-1.957v-1.7754Z"/>
  </g>
  <g>
    <path class="cls-7" d="m133.3577,166.6211h-5.8477v-1.1602l2.7598-2.9414c.3789-.4141.6592-.7754.8408-1.084s.2725-.6016.2725-.8789c0-.3789-.0957-.6768-.2871-.8936s-.4648-.3252-.8203-.3252c-.3828,0-.6846.1318-.9053.3955s-.3311.6104-.3311,1.04h-1.6992c0-.5195.124-.9941.3721-1.4238s.5986-.7666,1.0518-1.0107.9668-.3662,1.541-.3662c.8789,0,1.5615.2109,2.0479.6328s.7295,1.0176.7295,1.7871c0,.4219-.1094.8516-.3281,1.2891s-.5938.9473-1.125,1.5293l-1.9395,2.0449h3.668v1.3652Z"/>
    <path class="cls-7" d="m140.137,163.0937c0,1.1797-.2441,2.082-.7324,2.707s-1.2031.9375-2.1445.9375c-.9297,0-1.6406-.3066-2.1328-.9199s-.7441-1.4922-.7559-2.6367v-1.5703c0-1.1914.2471-2.0957.7412-2.7129s1.2061-.9258,2.1357-.9258,1.6406.3057,2.1328.917.7441,1.4893.7559,2.6338v1.5703Zm-1.6934-1.7266c0-.7075-.0967-1.2227-.29-1.5454s-.4951-.4839-.9053-.4839c-.3984,0-.6924.1533-.8818.4604s-.29.7866-.3018,1.4399v2.0762c0,.6958.0947,1.2129.2842,1.5513s.4932.5073.9111.5073c.4141,0,.7129-.1621.8965-.4868.1836-.3242.2793-.8208.2871-1.4897v-2.0293Z"/>
    <path class="cls-7" d="m147.0217,163.0937c0,1.1797-.2441,2.082-.7324,2.707s-1.2031.9375-2.1445.9375c-.9297,0-1.6406-.3066-2.1328-.9199s-.7441-1.4922-.7559-2.6367v-1.5703c0-1.1914.2471-2.0957.7412-2.7129s1.2061-.9258,2.1357-.9258,1.6406.3057,2.1328.917.7441,1.4893.7559,2.6338v1.5703Zm-1.6934-1.7266c0-.7075-.0967-1.2227-.29-1.5454s-.4951-.4839-.9053-.4839c-.3984,0-.6924.1533-.8818.4604s-.29.7866-.3018,1.4399v2.0762c0,.6958.0947,1.2129.2842,1.5513s.4932.5073.9111.5073c.4141,0,.7129-.1621.8965-.4868.1836-.3242.2793-.8208.2871-1.4897v-2.0293Z"/>
    <path class="cls-7" d="m148.4163,162.4258l.4922-4.3359h4.7812v1.4121h-3.3926l-.2109,1.834c.4023-.2148.8301-.3223,1.2832-.3223.8125,0,1.4492.252,1.9102.7559s.6914,1.209.6914,2.1152c0,.5508-.1162,1.0439-.3486,1.4795s-.5654.7734-.999,1.0137-.9453.3604-1.5352.3604c-.5156,0-.9941-.1045-1.4355-.3135s-.79-.5029-1.0459-.8818-.3916-.8105-.4072-1.2949h1.6758c.0352.3555.1592.6318.3721.8291s.4912.2959.835.2959c.3828,0,.6777-.1377.8848-.4131s.3105-.665.3105-1.1689c0-.4844-.1191-.8555-.3574-1.1133s-.5762-.3867-1.0137-.3867c-.4023,0-.7285.1055-.9785.3164l-.1641.1523-1.3477-.334Z"/>
  </g>
  <g>
    <path class="cls-7" d="m296.2332,166.6162h-5.8477v-1.1602l2.7598-2.9414c.3789-.4141.6592-.7754.8408-1.084s.2725-.6016.2725-.8789c0-.3789-.0957-.6768-.2871-.8936s-.4648-.3252-.8203-.3252c-.3828,0-.6846.1318-.9053.3955s-.3311.6104-.3311,1.04h-1.6992c0-.5195.124-.9941.3721-1.4238s.5986-.7666,1.0518-1.0107.9668-.3662,1.541-.3662c.8789,0,1.5615.2109,2.0479.6328s.7295,1.0176.7295,1.7871c0,.4219-.1094.8516-.3281,1.2891s-.5938.9473-1.125,1.5293l-1.9395,2.0449h3.668v1.3652Z"/>
    <path class="cls-7" d="m303.0125,163.0889c0,1.1797-.2441,2.082-.7324,2.707s-1.2031.9375-2.1445.9375c-.9297,0-1.6406-.3066-2.1328-.9199s-.7441-1.4922-.7559-2.6367v-1.5703c0-1.1914.2471-2.0957.7412-2.7129s1.2061-.9258,2.1357-.9258,1.6406.3057,2.1328.917.7441,1.4893.7559,2.6338v1.5703Zm-1.6934-1.7266c0-.7075-.0967-1.2227-.29-1.5454s-.4951-.4839-.9053-.4839c-.3984,0-.6924.1533-.8818.4604s-.29.7866-.3018,1.4399v2.0762c0,.6958.0947,1.2129.2842,1.5513s.4932.5073.9111.5073c.4141,0,.7129-.1621.8965-.4868.1836-.3242.2793-.8208.2871-1.4897v-2.0293Z"/>
    <path class="cls-7" d="m305.8777,161.6006h.9023c.4297,0,.748-.1074.9551-.3223s.3105-.5.3105-.8555c0-.3438-.1025-.6113-.3076-.8027s-.4873-.2871-.8467-.2871c-.3242,0-.5957.0889-.8145.2666s-.3281.4092-.3281.6943h-1.6934c0-.4453.1201-.8447.3604-1.1982s.5762-.6299,1.0078-.8291.9072-.2988,1.4268-.2988c.9023,0,1.6094.2158,2.1211.6475s.7676,1.0264.7676,1.7842c0,.3906-.1191.75-.3574,1.0781s-.5508.5801-.9375.7559c.4805.1719.8389.4297,1.0752.7734s.3545.75.3545,1.2188c0,.7578-.2764,1.3652-.8291,1.8223s-1.2842.6855-2.1943.6855c-.8516,0-1.5479-.2246-2.0889-.6738s-.8115-1.043-.8115-1.7812h1.6934c0,.3203.1201.582.3604.7852s.5361.3047.8877.3047c.4023,0,.7178-.1064.9463-.3193s.3428-.4951.3428-.8467c0-.8516-.4688-1.2773-1.4062-1.2773h-.8965v-1.3242Z"/>
    <path class="cls-7" d="m316.782,163.0889c0,1.1797-.2441,2.082-.7324,2.707s-1.2031.9375-2.1445.9375c-.9297,0-1.6406-.3066-2.1328-.9199s-.7441-1.4922-.7559-2.6367v-1.5703c0-1.1914.2471-2.0957.7412-2.7129s1.2061-.9258,2.1357-.9258,1.6406.3057,2.1328.917.7441,1.4893.7559,2.6338v1.5703Zm-1.6934-1.7266c0-.7075-.0967-1.2227-.29-1.5454s-.4951-.4839-.9053-.4839c-.3984,0-.6924.1533-.8818.4604s-.29.7866-.3018,1.4399v2.0762c0,.6958.0947,1.2129.2842,1.5513s.4932.5073.9111.5073c.4141,0,.7129-.1621.8965-.4868.1836-.3242.2793-.8208.2871-1.4897v-2.0293Z"/>
  </g>
  <g>
    <path class="cls-7" d="m237.7302,166.6162h-5.5898v-.7793l2.9531-3.2812c.4375-.4961.7393-.8994.9053-1.21s.249-.6318.249-.9639c0-.4453-.1348-.8105-.4043-1.0957s-.6289-.4277-1.0781-.4277c-.5391,0-.958.1533-1.2568.46s-.4482.7334-.4482,1.2803h-1.084c0-.7852.2529-1.4199.7588-1.9043s1.1826-.7266,2.0303-.7266c.793,0,1.4199.208,1.8809.624s.6914.9697.6914,1.6611c0,.8398-.5352,1.8398-1.6055,3l-2.2852,2.4785h4.2832v.8848Z"/>
    <path class="cls-7" d="m244.2283,162.9775c0,1.2695-.2168,2.2129-.6504,2.8301s-1.1113.9258-2.0332.9258c-.9102,0-1.584-.3018-2.0215-.9053s-.6641-1.5049-.6797-2.7041v-1.4473c0-1.2539.2168-2.1855.6504-2.7949s1.1133-.9141,2.0391-.9141c.918,0,1.5938.2939,2.0273.8818s.6562,1.4951.668,2.7217v1.4062Zm-1.084-1.4824c0-.918-.1289-1.5869-.3867-2.0068s-.666-.6299-1.2246-.6299c-.5547,0-.959.209-1.2129.627s-.3848,1.0605-.3926,1.9277v1.7344c0,.9219.1338,1.6025.4014,2.042s.6729.6592,1.2158.6592c.5352,0,.9326-.207,1.1924-.6211s.3955-1.0664.4072-1.957v-1.7754Z"/>
    <path class="cls-7" d="m251.2068,166.6162h-5.5898v-.7793l2.9531-3.2812c.4375-.4961.7393-.8994.9053-1.21s.249-.6318.249-.9639c0-.4453-.1348-.8105-.4043-1.0957s-.6289-.4277-1.0781-.4277c-.5391,0-.958.1533-1.2568.46s-.4482.7334-.4482,1.2803h-1.084c0-.7852.2529-1.4199.7588-1.9043s1.1826-.7266,2.0303-.7266c.793,0,1.4199.208,1.8809.624s.6914.9697.6914,1.6611c0,.8398-.5352,1.8398-1.6055,3l-2.2852,2.4785h4.2832v.8848Z"/>
    <path class="cls-7" d="m255.9177,166.6162h-1.0898v-7.2246l-2.1855.8027v-.9844l3.1055-1.166h.1699v8.5723Z"/>
  </g>
  <g>
    <path class="cls-6" d="m8.5193,270.1953h-2.8594v-.8848h2.8594v.8848Z"/>
    <path class="cls-6" d="m15.0525,273.3769h-5.5898v-.7793l2.9531-3.2812c.4375-.4961.7393-.8994.9053-1.21s.249-.6318.249-.9639c0-.4453-.1348-.8105-.4043-1.0957s-.6289-.4277-1.0781-.4277c-.5391,0-.958.1533-1.2568.46s-.4482.7334-.4482,1.2803h-1.084c0-.7852.2529-1.4199.7588-1.9043s1.1826-.7266,2.0303-.7266c.793,0,1.4199.208,1.8809.624s.6914.9697.6914,1.6611c0,.8398-.5352,1.8398-1.6055,3l-2.2852,2.4785h4.2832v.8848Z"/>
    <path class="cls-6" d="m21.5506,269.7383c0,1.2695-.2168,2.2129-.6504,2.8301s-1.1113.9258-2.0332.9258c-.9102,0-1.584-.3018-2.0215-.9053s-.6641-1.5049-.6797-2.7041v-1.4473c0-1.2539.2168-2.1855.6504-2.7949s1.1133-.9141,2.0391-.9141c.918,0,1.5938.2939,2.0273.8818s.6562,1.4951.668,2.7217v1.4062Zm-1.084-1.4824c0-.918-.1289-1.5869-.3867-2.0068s-.666-.6299-1.2246-.6299c-.5547,0-.959.209-1.2129.627s-.3848,1.0605-.3926,1.9277v1.7344c0,.9219.1338,1.6025.4014,2.042s.6729.6592,1.2158.6592c.5352,0,.9326-.207,1.1924-.6211s.3955-1.0664.4072-1.957v-1.7754Z"/>
    <path class="cls-6" d="m25.8162,266.4863c0-.5117.1631-.9336.4893-1.2656s.7451-.498,1.2568-.498c.5195,0,.9404.167,1.2627.501s.4834.7666.4834,1.2979v.416c0,.5156-.1631.9365-.4893,1.2627s-.7412.4893-1.2451.4893c-.5078,0-.9277-.1631-1.2598-.4893s-.498-.7607-.498-1.3037v-.4102Zm.8086.4487c0,.3057.0859.5571.2578.7549s.4023.2964.6914.2964c.2773,0,.501-.0957.6709-.2876s.2549-.4541.2549-.7871v-.4287c0-.3052-.084-.5581-.252-.7573-.168-.1997-.3965-.2998-.6855-.2998s-.5176.1001-.6855.2998c-.168.1992-.252.46-.252.7808v.4287Zm1.1953,5.7974l-.6152-.3867,4.166-6.668.6152.3867-4.166,6.668Zm2.1504-1.4473c0-.5117.1631-.9326.4893-1.2627s.7451-.4951,1.2568-.4951.9316.1641,1.2598.4922.4922.7637.4922,1.3066v.416c0,.5117-.1631.9326-.4893,1.2627s-.7432.4951-1.251.4951-.9277-.1631-1.2598-.4893-.498-.7607-.498-1.3037v-.4219Zm.8086.4546c0,.3091.0859.563.2578.7607s.4023.2964.6914.2964c.2812,0,.5059-.0967.6738-.2905s.252-.457.252-.79v-.4346c0-.3091-.085-.562-.2549-.7573-.1699-.1958-.3975-.2939-.6826-.2939-.2773,0-.5029.0972-.6768.2905-.1738.1938-.2607.4556-.2607.7842v.4346Z"/>
  </g>
  <g>
    <path class="cls-6" d="m8.5193,341.312h-2.8594v-.8848h2.8594v.8848Z"/>
    <path class="cls-6" d="m14.0388,341.6284h1.1836v.8848h-1.1836v1.9805h-1.0898v-1.9805h-3.8848v-.6387l3.8203-5.9121h1.1543v5.666Zm-3.7441,0h2.6543v-4.1836l-.1289.2344-2.5254,3.9492Z"/>
    <path class="cls-6" d="m21.5506,340.855c0,1.2695-.2168,2.2129-.6504,2.8301s-1.1113.9258-2.0332.9258c-.9102,0-1.584-.3018-2.0215-.9053s-.6641-1.5049-.6797-2.7041v-1.4473c0-1.2539.2168-2.1855.6504-2.7949s1.1133-.9141,2.0391-.9141c.918,0,1.5938.2939,2.0273.8818s.6562,1.4951.668,2.7217v1.4062Zm-1.084-1.4824c0-.918-.1289-1.5869-.3867-2.0068s-.666-.6299-1.2246-.6299c-.5547,0-.959.209-1.2129.627s-.3848,1.0605-.3926,1.9277v1.7344c0,.9219.1338,1.6025.4014,2.042s.6729.6592,1.2158.6592c.5352,0,.9326-.207,1.1924-.6211s.3955-1.0664.4072-1.957v-1.7754Z"/>
    <path class="cls-6" d="m25.8162,337.603c0-.5117.1631-.9336.4893-1.2656s.7451-.498,1.2568-.498c.5195,0,.9404.167,1.2627.501s.4834.7666.4834,1.2979v.416c0,.5156-.1631.9365-.4893,1.2627s-.7412.4893-1.2451.4893c-.5078,0-.9277-.1631-1.2598-.4893s-.498-.7607-.498-1.3037v-.4102Zm.8086.4487c0,.3057.0859.5571.2578.7549s.4023.2964.6914.2964c.2773,0,.501-.0957.6709-.2876s.2549-.4541.2549-.7871v-.4287c0-.3052-.084-.5581-.252-.7573-.168-.1997-.3965-.2998-.6855-.2998s-.5176.1001-.6855.2998c-.168.1992-.252.46-.252.7808v.4287Zm1.1953,5.7974l-.6152-.3867,4.166-6.668.6152.3867-4.166,6.668Zm2.1504-1.4473c0-.5117.1631-.9326.4893-1.2627s.7451-.4951,1.2568-.4951.9316.1641,1.2598.4922.4922.7637.4922,1.3066v.416c0,.5117-.1631.9326-.4893,1.2627s-.7432.4951-1.251.4951-.9277-.1631-1.2598-.4893-.498-.7607-.498-1.3037v-.4219Zm.8086.4546c0,.3091.0859.563.2578.7607s.4023.2964.6914.2964c.2812,0,.5059-.0967.6738-.2905s.252-.457.252-.79v-.4346c0-.3091-.085-.562-.2549-.7573-.1699-.1958-.3975-.2939-.6826-.2939-.2773,0-.5029.0972-.6768.2905-.1738.1938-.2607.4556-.2607.7842v.4346Z"/>
  </g>
  <g>
    <rect class="cls-3" x="73.6735" y="202.3893" width="65.6226" height="20.3328"/>
    <g>
      <path class="cls-1" d="m88.2923,217.5972c0-.332-.1172-.5869-.3516-.7646s-.6562-.3652-1.2656-.5625-1.0918-.3916-1.4473-.583c-.9688-.5234-1.4531-1.2285-1.4531-2.1152,0-.4609.1299-.8721.3896-1.2334s.6328-.6436,1.1191-.8467,1.0322-.3047,1.6377-.3047c.6094,0,1.1523.1104,1.6289.3311s.8467.5322,1.1104.9346.3955.8594.3955,1.3711h-1.7578c0-.3906-.123-.6943-.3691-.9111s-.5918-.3252-1.0371-.3252c-.4297,0-.7637.0908-1.002.2725s-.3574.4209-.3574.7178c0,.2773.1396.5098.4189.6973s.6904.3633,1.2334.5273c1,.3008,1.7285.6738,2.1855,1.1191s.6855,1,.6855,1.6641c0,.7383-.2793,1.3174-.8379,1.7373s-1.3105.6299-2.2559.6299c-.6562,0-1.2539-.1201-1.793-.3604s-.9502-.5693-1.2334-.9873-.4248-.9023-.4248-1.4531h1.7637c0,.9414.5625,1.4121,1.6875,1.4121.418,0,.7441-.085.9785-.2549s.3516-.4072.3516-.7119Z"/>
      <path class="cls-1" d="m93.1614,211.937v1.5586h1.084v1.2422h-1.084v3.1641c0,.2344.0449.4023.1348.5039s.2617.1523.5156.1523c.1875,0,.3535-.0137.498-.041v1.2832c-.332.1016-.6738.1523-1.0254.1523-1.1875,0-1.793-.5996-1.8164-1.7988v-3.416h-.9258v-1.2422h.9258v-1.5586h1.6934Z"/>
      <path class="cls-1" d="m98.8626,219.8354c-.0781-.1523-.1348-.3418-.1699-.5684-.4102.457-.9434.6855-1.5996.6855-.6211,0-1.1357-.1797-1.5439-.5391s-.6123-.8125-.6123-1.3594c0-.6719.249-1.1875.7471-1.5469s1.2178-.541,2.1592-.5449h.7793v-.3633c0-.293-.0752-.5273-.2256-.7031s-.3877-.2637-.7119-.2637c-.2852,0-.5088.0684-.6709.2051s-.2432.3242-.2432.5625h-1.6934c0-.3672.1133-.707.3398-1.0195s.5469-.5576.9609-.7354.8789-.2666,1.3945-.2666c.7812,0,1.4014.1963,1.8604.5889s.6885.9443.6885,1.6553v2.748c.0039.6016.0879,1.0566.252,1.3652v.0996h-1.7109Zm-1.4004-1.1777c.25,0,.4805-.0557.6914-.167s.3672-.2607.4688-.4482v-1.0898h-.6328c-.8477,0-1.2988.293-1.3535.8789l-.0059.0996c0,.2109.0742.3848.2227.5215s.3516.2051.6094.2051Z"/>
      <path class="cls-1" d="m103.9075,217.7671l1.1777-4.2715h1.7695l-2.1387,6.3398h-1.6172l-2.1387-6.3398h1.7695l1.1777,4.2715Z"/>
      <path class="cls-1" d="m112.9602,217.7671l1.1777-4.2715h1.7695l-2.1387,6.3398h-1.6172l-2.1387-6.3398h1.7695l1.1777,4.2715Z"/>
      <path class="cls-1" d="m126.4485,216.9936c-.0664.918-.4053,1.6406-1.0166,2.168s-1.417.791-2.417.791c-1.0938,0-1.9541-.3682-2.5811-1.1045s-.9404-1.7471-.9404-3.0322v-.5215c0-.8203.1445-1.543.4336-2.168s.7021-1.1045,1.2393-1.4385,1.1611-.501,1.8721-.501c.9844,0,1.7773.2637,2.3789.791s.9492,1.2676,1.043,2.2207h-1.7578c-.043-.5508-.1963-.9502-.46-1.1982s-.665-.3721-1.2041-.3721c-.5859,0-1.0244.21-1.3154.6299s-.4404,1.0713-.4482,1.9541v.6445c0,.9219.1396,1.5957.4189,2.0215s.7197.6387,1.3213.6387c.543,0,.9482-.124,1.2158-.3721s.4209-.6318.46-1.1514h1.7578Zm-3.4277-7.1895l.8555-.8379h1.4473v.0645l-1.7695,1.6465h-1.0723l-1.7695-1.6582v-.0527h1.4473l.8613.8379Z"/>
      <path class="cls-1" d="m130.761,216.7124h-1.4004v3.123h-1.7578v-8.5312h3.1699c1.0078,0,1.7852.2246,2.332.6738s.8203,1.084.8203,1.9043c0,.582-.126,1.0674-.3779,1.4561s-.6338.6982-1.1455.9287l1.8457,3.4863v.082h-1.8867l-1.5996-3.123Zm-1.4004-1.4238h1.418c.4414,0,.7832-.1123,1.0254-.3369s.3633-.5342.3633-.9287c0-.4023-.1143-.7188-.3428-.9492s-.5791-.3457-1.0518-.3457h-1.4121v2.5605Z"/>
    </g>
  </g>
  <g>
    <path class="cls-6" d="m8.5193,412.4289h-2.8594v-.8848h2.8594v.8848Z"/>
    <path class="cls-6" d="m13.7166,407.0735v.9199h-.1992c-.8438.0156-1.5156.2656-2.0156.75s-.7891,1.166-.8672,2.0449c.4492-.5156,1.0625-.7734,1.8398-.7734.7422,0,1.335.2617,1.7783.7852s.665,1.1992.665,2.0273c0,.8789-.2393,1.582-.7178,2.1094s-1.1201.791-1.9248.791c-.8164,0-1.4785-.3135-1.9863-.9404s-.7617-1.4346-.7617-2.4229v-.416c0-1.5703.335-2.7705,1.0049-3.6006s1.667-1.2549,2.9912-1.2744h.1934Zm-1.4238,3.8438c-.3711,0-.7129.1113-1.0254.334s-.5293.502-.6504.8379v.3984c0,.7031.1582,1.2695.4746,1.6992s.7109.6445,1.1836.6445c.4883,0,.8721-.1797,1.1514-.5391s.4189-.8301.4189-1.4121c0-.5859-.1416-1.0596-.4248-1.4209s-.6592-.542-1.1279-.542Z"/>
    <path class="cls-6" d="m21.5506,411.9719c0,1.2695-.2168,2.2129-.6504,2.8301s-1.1113.9258-2.0332.9258c-.9102,0-1.584-.3018-2.0215-.9053s-.6641-1.5049-.6797-2.7041v-1.4473c0-1.2539.2168-2.1855.6504-2.7949s1.1133-.9141,2.0391-.9141c.918,0,1.5938.2939,2.0273.8818s.6562,1.4951.668,2.7217v1.4062Zm-1.084-1.4824c0-.918-.1289-1.5869-.3867-2.0068s-.666-.6299-1.2246-.6299c-.5547,0-.959.209-1.2129.627s-.3848,1.0605-.3926,1.9277v1.7344c0,.9219.1338,1.6025.4014,2.042s.6729.6592,1.2158.6592c.5352,0,.9326-.207,1.1924-.6211s.3955-1.0664.4072-1.957v-1.7754Z"/>
    <path class="cls-6" d="m25.8162,408.72c0-.5117.1631-.9336.4893-1.2656s.7451-.498,1.2568-.498c.5195,0,.9404.167,1.2627.501s.4834.7666.4834,1.2979v.416c0,.5156-.1631.9365-.4893,1.2627s-.7412.4893-1.2451.4893c-.5078,0-.9277-.1631-1.2598-.4893s-.498-.7607-.498-1.3037v-.4102Zm.8086.4492c0,.3057.0859.5566.2578.7549.1719.1973.4023.2959.6914.2959.2773,0,.501-.0957.6709-.2871.1699-.1924.2549-.4541.2549-.7871v-.4287c0-.3057-.084-.5586-.252-.7578s-.3965-.2998-.6855-.2998-.5176.1006-.6855.2998-.252.46-.252.7812v.4287Zm1.1953,5.7969l-.6152-.3867,4.166-6.668.6152.3867-4.166,6.668Zm2.1504-1.4473c0-.5117.1631-.9326.4893-1.2627s.7451-.4951,1.2568-.4951.9316.1641,1.2598.4922.4922.7637.4922,1.3066v.416c0,.5117-.1631.9326-.4893,1.2627s-.7432.4951-1.251.4951-.9277-.1631-1.2598-.4893-.498-.7607-.498-1.3037v-.4219Zm.8086.4551c0,.3086.0859.5625.2578.7607.1719.1973.4023.2959.6914.2959.2812,0,.5059-.0967.6738-.29.168-.1943.252-.457.252-.79v-.4346c0-.3096-.085-.5625-.2549-.7578s-.3975-.2939-.6826-.2939c-.2773,0-.5029.0977-.6768.291s-.2607.4551-.2607.7842v.4346Z"/>
  </g>
  <path class="cls-13" d="m43.1773,174.6842v7.5426"/>
  <path class="cls-13" d="m303.128,174.6842v7.5426"/>
  <path class="cls-13" d="m243.024,174.6842v7.5426"/>
  <g>
    <path class="cls-1" d="m246.9671,223.6091h-3.2988v-1.3652h3.2988v1.3652Z"/>
    <path class="cls-1" d="m252.3694,226.5798h-1.6934v-6.5273l-2.0215.627v-1.377l3.5332-1.2656h.1816v8.543Z"/>
    <path class="cls-1" d="m260.8831,223.0525c0,1.1797-.2441,2.082-.7324,2.707s-1.2031.9375-2.1445.9375c-.9297,0-1.6406-.3066-2.1328-.9199s-.7441-1.4922-.7559-2.6367v-1.5703c0-1.1914.2471-2.0957.7412-2.7129s1.2061-.9258,2.1357-.9258,1.6406.3057,2.1328.917.7441,1.4893.7559,2.6338v1.5703Zm-1.6934-1.7266c0-.7075-.0967-1.2229-.29-1.5454s-.4951-.4839-.9053-.4839c-.3984,0-.6924.1536-.8818.4604s-.29.7869-.3018,1.4399v2.0762c0,.6958.0947,1.2131.2842,1.5513s.4932.5073.9111.5073c.4141,0,.7129-.1621.8965-.4868.1836-.3245.2793-.821.2871-1.4897v-2.0293Z"/>
    <path class="cls-1" d="m264.9905,219.6892c0-.5234.1699-.9482.5098-1.2744s.7852-.4893,1.3359-.4893c.5586,0,1.0078.1611,1.3477.4834s.5098.7588.5098,1.3096v.4219c0,.5273-.1699.9512-.5098,1.2715s-.7852.4805-1.3359.4805c-.5547,0-1.0029-.1611-1.3447-.4834s-.5127-.7568-.5127-1.3037v-.416Zm1.125.4512c0,.2344.0674.4229.2021.5654s.3115.2139.5303.2139.3926-.0723.5215-.2168.1934-.3379.1934-.5801v-.4336c0-.2344-.0645-.4238-.1934-.5684s-.3066-.2168-.5332-.2168c-.2148,0-.3887.0713-.5215.2139s-.1992.3408-.1992.5947v.4277Zm1.0664,5.8008l-.8262-.4453,4.166-6.668.8262.4453-4.166,6.668Zm1.8867-1.4531c0-.5273.1719-.9521.5156-1.2744s.7891-.4834,1.3359-.4834c.5547,0,1.0029.1592,1.3447.4775s.5127.7568.5127,1.3154v.4219c0,.5234-.168.9463-.5039,1.2686s-.7832.4834-1.3418.4834c-.5625,0-1.0137-.1621-1.3535-.4863s-.5098-.7539-.5098-1.2891v-.4336Zm1.125.457c0,.2148.0703.3984.2109.5508s.3164.2285.5273.2285c.4766,0,.7148-.2637.7148-.791v-.4453c0-.2344-.0664-.4229-.1992-.5654s-.3086-.2139-.5273-.2139-.3945.0713-.5273.2139-.1992.3369-.1992.583v.4395Z"/>
  </g>
  <path class="cls-13" d="m140.7544,174.6842v7.5426"/>
  <g>
    <path class="cls-12" d="m43.1773,375.8672h259.9506"/>
    <path class="cls-12" d="m43.1773,339.9941h259.9506"/>
    <path class="cls-12" d="m43.1773,304.121h259.9506"/>
    <path class="cls-12" d="m43.1773,268.8773h259.9506"/>
    <path class="cls-12" d="m43.1773,411.1109h259.9506"/>
    <path class="cls-12" d="m43.1773,233.0042h259.9506"/>
    <path class="cls-12" d="m43.1773,197.7605h259.9506"/>
  </g>
  <g>
    <rect class="cls-3" x="215.6155" y="291.9535" width="76.9521" height="22.1284"/>
    <g>
      <path class="cls-1" d="m226.8591,304.4724c-.1055.9023-.4385,1.5986-.999,2.0889s-1.3057.7354-2.2354.7354c-1.0078,0-1.8154-.3613-2.4229-1.084s-.9111-1.6895-.9111-2.9004v-.8203c0-.793.1416-1.4902.4248-2.0918s.6846-1.0635,1.2041-1.3857,1.1211-.4834,1.8047-.4834c.9062,0,1.6328.2529,2.1797.7588s.8652,1.2061.9551,2.1006h-1.1309c-.0977-.6816-.3096-1.1753-.6357-1.481s-.7822-.4585-1.3682-.4585c-.7188,0-1.2822.2656-1.6904.7979-.4082.5312-.6123,1.2881-.6123,2.269v.8271c0,.9263.1934,1.6636.5801,2.2109s.9277.8208,1.623.8208c.625,0,1.1045-.1416,1.4385-.4248s.5557-.7764.665-1.4795h1.1309Z"/>
      <path class="cls-1" d="m229.4138,298.1853h1.3125l-1.5703,1.7227-.873-.0029,1.1309-1.7197Zm-.0117,8.9941h-1.0898v-6.3398h1.0898v6.3398Z"/>
      <path class="cls-1" d="m232.367,307.1794h-1.084v-9h1.084v9Z"/>
      <path class="cls-1" d="m243.5173,304.4724c-.1055.9023-.4385,1.5986-.999,2.0889s-1.3057.7354-2.2354.7354c-1.0078,0-1.8154-.3613-2.4229-1.084s-.9111-1.6895-.9111-2.9004v-.8203c0-.793.1416-1.4902.4248-2.0918s.6846-1.0635,1.2041-1.3857,1.1211-.4834,1.8047-.4834c.9062,0,1.6328.2529,2.1797.7588s.8652,1.2061.9551,2.1006h-1.1309c-.0977-.6816-.3096-1.1753-.6357-1.481s-.7822-.4585-1.3682-.4585c-.7188,0-1.2822.2656-1.6904.7979-.4082.5312-.6123,1.2881-.6123,2.269v.8271c0,.9263.1934,1.6636.5801,2.2109s.9277.8208,1.623.8208c.625,0,1.1045-.1416,1.4385-.4248s.5557-.7764.665-1.4795h1.1309Zm-3.293-7.3066l.8789-.9961h.9375v.0586l-1.4883,1.6055h-.6621l-1.4707-1.6055v-.0586h.9199l.8848.9961Z"/>
      <path class="cls-1" d="m248.1814,303.7283h-2.0039v3.4512h-1.1309v-8.5312h2.8242c.9609,0,1.7002.2188,2.2178.6562s.7764,1.0742.7764,1.9102c0,.5312-.1436.9941-.4307,1.3887s-.6865.6895-1.1982.8848l2.0039,3.6211v.0703h-1.207l-1.8516-3.4512Zm-2.0039-.9199h1.7285c.5586,0,1.0029-.1445,1.333-.4346.3301-.2896.4951-.6768.4951-1.1621,0-.5283-.1572-.9331-.4717-1.2148s-.7686-.4248-1.3623-.4287h-1.7227v3.2402Z"/>
      <path class="cls-1" d="m259.5173,303.7136h-3.8486v-1.5928h3.8486v1.5928Z"/>
      <path class="cls-1" d="m267.8435,307.1794h-6.8223v-1.3535l3.2197-3.4316c.4419-.4829.769-.9048.981-1.2646s.3179-.7017.3179-1.0254c0-.4419-.1118-.7896-.335-1.0425s-.5425-.3794-.957-.3794c-.4468,0-.7988.1538-1.0562.4614s-.3862.7119-.3862,1.2134h-1.9824c0-.606.1445-1.1597.4341-1.6611s.6982-.8945,1.2271-1.1792,1.1279-.4272,1.7979-.4272c1.0254,0,1.8218.2461,2.3892.7383s.8511,1.187.8511,2.085c0,.4922-.1274.9937-.3828,1.5039s-.6929,1.105-1.3125,1.7842l-2.2627,2.3857h4.2793v1.5928Z"/>
      <path class="cls-1" d="m274.4129,297.1238v1.627h-.1914c-.8931.0137-1.6123.2461-2.1567.6973s-.8716,1.0776-.981,1.8799c.5288-.5376,1.1963-.8066,2.0029-.8066.8657,0,1.5542.3101,2.0645.9297s.7656,1.4355.7656,2.4473c0,.647-.1401,1.2329-.4204,1.7568s-.6768.9321-1.1895,1.2236-1.0928.4375-1.7397.4375c-1.0483,0-1.8945-.3647-2.5396-1.0938s-.9673-1.7021-.9673-2.9189v-.7109c0-1.0801.2041-2.0337.6118-2.8608s.9937-1.4673,1.7568-1.9209,1.6484-.6826,2.6558-.687h.3281Zm-1.9277,4.9902c-.3188,0-.6084.083-.8682.249s-.4512.3857-.5742.6582v.6006c0,.6597.1299,1.1748.3896,1.5454s.6245.5562,1.0938.5562c.4238,0,.7666-.167,1.0288-.5015s.3931-.7676.3931-1.2998c0-.5415-.1323-.978-.3965-1.3101s-.6196-.498-1.0664-.498Z"/>
      <path class="cls-1" d="m280.5447,299.1404c0-.6108.1982-1.1064.5947-1.4868s.916-.5708,1.5586-.5708c.6519,0,1.1758.188,1.5723.564s.5947.8853.5947,1.5278v.4922c0,.6152-.1982,1.1099-.5947,1.4834s-.916.5605-1.5586.5605c-.647,0-1.1699-.188-1.5688-.564s-.5981-.8828-.5981-1.521v-.4854Zm1.3125.5264c0,.2734.0786.4932.2358.6597s.3633.2495.6187.2495.458-.0845.6084-.2529.2256-.394.2256-.6768v-.5059c0-.2734-.0752-.4946-.2256-.6631s-.3579-.2529-.6221-.2529c-.2505,0-.4536.083-.6084.2495s-.2324.3975-.2324.6938v.499Zm1.2441,6.7676l-.9639-.5195,4.8604-7.7793.9639.5195-4.8604,7.7793Zm2.2012-1.6953c0-.6152.2007-1.1108.6016-1.4868s.9204-.564,1.5586-.564c.647,0,1.1699.1855,1.5688.5571s.5981.8828.5981,1.5347v.4922c0,.6108-.1958,1.104-.5879,1.48s-.9136.564-1.5654.564c-.6562,0-1.1826-.189-1.5791-.5674s-.5947-.8794-.5947-1.5039v-.5059Zm1.3125.5332c0,.2505.082.4648.2461.6426s.3691.2666.6152.2666c.5562,0,.834-.3076.834-.9229v-.5195c0-.2734-.0776-.4932-.2324-.6597s-.3599-.2495-.6152-.2495-.4604.083-.6152.2495-.2324.3931-.2324.6802v.5127Z"/>
    </g>
  </g>
  <g>
    <rect class="cls-3" x="215.6155" y="344.2923" width="76.9521" height="22.1284"/>
    <g>
      <path class="cls-2" d="m227.4568,356.8113c-.1055.9023-.4385,1.5986-.999,2.0889s-1.3057.7354-2.2354.7354c-1.0078,0-1.8154-.3613-2.4229-1.084s-.9111-1.6895-.9111-2.9004v-.8203c0-.793.1416-1.4902.4248-2.0918s.6846-1.0635,1.2041-1.3857,1.1211-.4834,1.8047-.4834c.9062,0,1.6328.2529,2.1797.7588s.8652,1.2061.9551,2.1006h-1.1309c-.0977-.6816-.3096-1.1753-.6357-1.481s-.7822-.4585-1.3682-.4585c-.7188,0-1.2822.2656-1.6904.7979-.4082.5312-.6123,1.2881-.6123,2.269v.8271c0,.9263.1934,1.6636.5801,2.2109s.9277.8208,1.623.8208c.625,0,1.1045-.1416,1.4385-.4248s.5557-.7764.665-1.4795h1.1309Z"/>
      <path class="cls-2" d="m230.0115,350.5242h1.3125l-1.5703,1.7227-.873-.0029,1.1309-1.7197Zm-.0117,8.9941h-1.0898v-6.3398h1.0898v6.3398Z"/>
      <path class="cls-2" d="m232.9646,359.5183h-1.084v-9h1.084v9Z"/>
      <path class="cls-2" d="m242.6619,355.5749h-3.6973v3.0234h4.2949v.9199h-5.4199v-8.5312h5.3613v.9199h-4.2363v2.748h3.6973v.9199Z"/>
      <path class="cls-2" d="m250.6658,350.9871v5.8008c-.0039.8047-.2568,1.4629-.7588,1.9746s-1.1826.7988-2.042.8613l-.2988.0117c-.9336,0-1.6777-.252-2.2324-.7559s-.8359-1.1973-.8438-2.0801v-5.8125h1.1133v5.7773c0,.6172.1699,1.0967.5098,1.4385s.8242.5127,1.4531.5127c.6367,0,1.124-.1699,1.4619-.5098s.5068-.8184.5068-1.4355v-5.7832h1.1309Z"/>
      <path class="cls-2" d="m259.5173,356.0525h-3.8486v-1.5928h3.8486v1.5928Z"/>
      <path class="cls-2" d="m266.866,355.7722h1.1279v1.5928h-1.1279v2.1533h-1.9756v-2.1533h-4.0811l-.0889-1.2441,4.1494-6.5557h1.9961v6.207Zm-4.1768,0h2.2012v-3.5137l-.1299.2256-2.0713,3.2881Z"/>
      <path class="cls-2" d="m275.7527,355.4031c0,1.3765-.2847,2.4292-.8545,3.1582s-1.4038,1.0938-2.502,1.0938c-1.0845,0-1.9141-.3579-2.4883-1.0732s-.8682-1.7407-.8818-3.0762v-1.832c0-1.3901.2881-2.4448.8647-3.165s1.4072-1.0801,2.4917-1.0801,1.9141.3564,2.4883,1.0698.8682,1.7373.8818,3.0728v1.832Zm-1.9756-2.0142c0-.8257-.1128-1.4268-.3384-1.8032s-.5776-.5645-1.0562-.5645c-.4648,0-.8076.1792-1.0288.5371-.2212.3584-.3384.918-.3521,1.6797v2.4224c0,.812.1104,1.4155.3315,1.8101s.5752.5918,1.063.5918c.4829,0,.8315-.1895,1.0459-.5679s.3257-.958.335-1.7383v-2.3672Z"/>
      <path class="cls-2" d="m280.5447,351.4792c0-.6108.1982-1.1064.5947-1.4868s.916-.5708,1.5586-.5708c.6519,0,1.1758.188,1.5723.564s.5947.8853.5947,1.5278v.4922c0,.6152-.1982,1.1099-.5947,1.4834s-.916.5605-1.5586.5605c-.647,0-1.1699-.188-1.5688-.564s-.5981-.8828-.5981-1.521v-.4854Zm1.3125.5264c0,.2734.0786.4932.2358.6597s.3633.2495.6187.2495.458-.0845.6084-.2529.2256-.394.2256-.6768v-.5059c0-.2734-.0752-.4946-.2256-.6631s-.3579-.2529-.6221-.2529c-.2505,0-.4536.083-.6084.2495s-.2324.3975-.2324.6938v.499Zm1.2441,6.7676l-.9639-.5195,4.8604-7.7793.9639.5195-4.8604,7.7793Zm2.2012-1.6953c0-.6152.2007-1.1108.6016-1.4868s.9204-.564,1.5586-.564c.647,0,1.1699.1855,1.5688.5571s.5981.8828.5981,1.5347v.4922c0,.6108-.1958,1.104-.5879,1.48s-.9136.564-1.5654.564c-.6562,0-1.1826-.189-1.5791-.5674s-.5947-.8794-.5947-1.5039v-.5059Zm1.3125.5332c0,.2505.082.4648.2461.6426s.3691.2666.6152.2666c.5562,0,.834-.3076.834-.9229v-.5195c0-.2734-.0776-.4932-.2324-.6597s-.3599-.2495-.6152-.2495-.4604.083-.6152.2495-.2324.3931-.2324.6802v.5127Z"/>
    </g>
  </g>
  <circle class="cls-4" cx="303.1606" cy="340.9413" r="6.0737"/>
  <g>
    <polyline class="cls-11" points="140.5538 197.5115 146.7943 196.8108 153.0347 210.4719 159.2751 198.4138 165.5156 213.6978 171.756 208.0818 177.9965 209.2283 184.237 204.6335 190.4775 224.6997 196.718 230.6895 202.9584 223.168 209.1989 219.6255 215.4394 212.5542 221.6799 221.5737 227.9204 228.7979 234.1607 242.0205 238.9963 233.4573"/>
    <path class="cls-1" d="m241.5414,235.0671c.8167-1.4463.306-3.2812-1.1403-4.0979-1.4463-.8167-3.2812-.3062-4.098,1.1401-.8167,1.4463-.306,3.2812,1.1401,4.0979,1.4463.8167,3.2814.3062,4.0981-1.1401Z"/>
  </g>
  <line class="cls-10" x1="239.2521" y1="233.0042" x2="300.6216" y2="285.8836"/>
  <circle class="cls-5" cx="302.8507" cy="287.8043" r="6.0737"/>
  <g>
    <path class="cls-8" d="m13.4099,35.7815v3.3398h-1.125v-8.5312h3.1465c.9336,0,1.665.2383,2.1943.7148s.7939,1.1074.7939,1.8926c0,.8281-.2588,1.4658-.7764,1.9131s-1.2588.6709-2.2236.6709h-2.0098Zm0-.9199h2.0215c.6016,0,1.0625-.1418,1.3828-.4255s.4805-.6936.4805-1.2297c0-.5088-.1602-.9155-.4805-1.2209-.3203-.3052-.7598-.4636-1.3184-.4753h-2.0859v3.3516Z"/>
    <path class="cls-8" d="m22.9841,35.6702h-2.0039v3.4512h-1.1309v-8.5312h2.8242c.9609,0,1.7002.2188,2.2178.6562s.7764,1.0742.7764,1.9102c0,.5312-.1436.9941-.4307,1.3887s-.6865.6895-1.1982.8848l2.0039,3.6211v.0703h-1.207l-1.8516-3.4512Zm-2.0039-.9199h1.7285c.5586,0,1.0029-.1448,1.333-.4343s.4951-.677.4951-1.1624c0-.5283-.1572-.9331-.4717-1.2151-.3145-.2817-.7686-.4246-1.3623-.4285h-1.7227v3.2402Z"/>
    <path class="cls-8" d="m33.8064,35.1311c0,.8359-.1406,1.5654-.4219,2.1885s-.6797,1.0986-1.1953,1.4268-1.1172.4922-1.8047.4922c-.6719,0-1.2676-.165-1.7871-.4951s-.9229-.8008-1.21-1.4121-.4346-1.3193-.4424-2.124v-.6152c0-.8203.1426-1.5449.4277-2.1738s.6885-1.1104,1.21-1.4443,1.1182-.501,1.79-.501c.6836,0,1.2861.165,1.8076.4951s.9229.8086,1.2041,1.4355.4219,1.3564.4219,2.1885v.5391Zm-1.1191-.5508c0-1.0117-.2031-1.7881-.6094-2.3291s-.9746-.8115-1.7051-.8115c-.7109,0-1.2705.2705-1.6787.8115s-.6182,1.292-.6299,2.2529v.627c0,.9805.2061,1.751.6182,2.3115s.9795.8408,1.7021.8408c.7266,0,1.2891-.2646,1.6875-.7939s.6035-1.2881.6152-2.2764v-.6328Z"/>
    <path class="cls-8" d="m35.4939,39.1213v-8.5312h2.7891c.9258,0,1.6221.1914,2.0889.5742s.7002.9492.7002,1.6992c0,.3984-.1133.751-.3398,1.0576s-.5352.5439-.9258.7119c.4609.1289.8252.374,1.0928.7354s.4014.792.4014,1.292c0,.7656-.248,1.3672-.7441,1.8047s-1.1973.6562-2.1035.6562h-2.959Zm1.125-4.8926h1.6992c.4922,0,.8857-.1233,1.1807-.3699s.4424-.5813.4424-1.0042c0-.4697-.1367-.8113-.4102-1.0247s-.6895-.3201-1.248-.3201h-1.6641v2.7188Zm0,.9023v3.0703h1.8574c.5234,0,.9365-.1357,1.2393-.4072s.4541-.6455.4541-1.1221c0-1.0273-.5586-1.541-1.6758-1.541h-1.875Z"/>
    <path class="cls-8" d="m44.1365,28.2346h1.3125l-1.5703,1.7227-.873-.0029,1.1309-1.7197Zm.0352,10.8867h-1.125v-8.5312h1.125v8.5312Z"/>
    <path class="cls-8" d="m52.7849,39.1213h-1.1309v-3.9434h-4.3008v3.9434h-1.125v-8.5312h1.125v3.668h4.3008v-3.668h1.1309v8.5312Z"/>
    <path class="cls-8" d="m59.5994,36.8889h-3.5742l-.8027,2.2324h-1.1602l3.2578-8.5312h.9844l3.2637,8.5312h-1.1543l-.8145-2.2324Zm-3.2344-.9199h2.9004l-1.4531-3.9902-1.4473,3.9902Z"/>
    <path class="cls-8" d="m70.3982,36.8889h-3.5742l-.8027,2.2324h-1.1602l3.2578-8.5312h.9844l3.2637,8.5312h-1.1543l-.8145-2.2324Zm-3.2344-.9199h2.9004l-1.4531-3.9902-1.4473,3.9902Z"/>
    <path class="cls-8" d="m75.6834,35.1545l-1.043,1.084v2.8828h-1.125v-8.5312h1.125v4.2188l3.791-4.2188h1.3594l-3.3574,3.7676,3.6211,4.7637h-1.3477l-3.0234-3.9668Z"/>
    <path class="cls-8" d="m86.9334,31.51h-2.7422v7.6113h-1.1191v-7.6113h-2.7363v-.9199h6.5977v.9199Z"/>
    <path class="cls-8" d="m94.2048,30.5901v5.8008c-.0039.8047-.2568,1.4629-.7588,1.9746s-1.1826.7988-2.042.8613l-.2988.0117c-.9336,0-1.6777-.252-2.2324-.7559s-.8359-1.1973-.8438-2.0801v-5.8125h1.1133v5.7773c0,.6172.1699,1.0967.5098,1.4385s.8242.5127,1.4531.5127c.6367,0,1.124-.1699,1.4619-.5098s.5068-.8184.5068-1.4355v-5.7832h1.1309Z"/>
    <path class="cls-8" d="m100.5623,36.8889h-3.5742l-.8027,2.2324h-1.1602l3.2578-8.5312h.9844l3.2637,8.5312h-1.1543l-.8145-2.2324Zm-3.2344-.9199h2.9004l-1.4531-3.9902-1.4473,3.9902Z"/>
    <path class="cls-8" d="m104.8103,38.2014h4.043v.9199h-5.1738v-8.5312h1.1309v7.6113Z"/>
    <path class="cls-8" d="m111.3435,39.1213h-1.125v-8.5312h1.125v8.5312Z"/>
    <path class="cls-8" d="m114.2439,38.2014h4.8809v.9199h-6.2109v-.8438l4.6758-6.7676h-4.5996v-.9199h5.9473v.821l-4.6934,6.7903Z"/>
    <path class="cls-8" d="m125.3709,36.8889h-3.5742l-.8027,2.2324h-1.1602l3.2578-8.5312h.9844l3.2637,8.5312h-1.1543l-.8145-2.2324Zm-3.2344-.9199h2.9004l-1.4531-3.9902-1.4473,3.9902Z"/>
    <path class="cls-8" d="m134.7634,36.4143c-.1055.9023-.4385,1.5986-.999,2.0889s-1.3057.7354-2.2354.7354c-1.0078,0-1.8154-.3613-2.4229-1.084s-.9111-1.6895-.9111-2.9004v-.8203c0-.793.1416-1.4902.4248-2.0918s.6846-1.0635,1.2041-1.3857,1.1211-.4834,1.8047-.4834c.9062,0,1.6328.2529,2.1797.7588s.8652,1.2061.9551,2.1006h-1.1309c-.0977-.6816-.3096-1.1755-.6357-1.481-.3262-.3057-.7822-.4585-1.3682-.4585-.7188,0-1.2822.2659-1.6904.7976s-.6123,1.2881-.6123,2.2693v.8271c0,.9265.1934,1.6636.5801,2.2107.3867.5474.9277.821,1.623.821.625,0,1.1045-.1416,1.4385-.4248s.5557-.7764.665-1.4795h1.1309Z"/>
    <path class="cls-8" d="m141.1209,35.178h-3.6973v3.0234h4.2949v.9199h-5.4199v-8.5312h5.3613v.9199h-4.2363v2.748h3.6973v.9199Z"/>
    <path class="cls-8" d="m146.9334,38.2014h4.8809v.9199h-6.2109v-.8438l4.6758-6.7676h-4.5996v-.9199h5.9473v.821l-4.6934,6.7903Z"/>
    <path class="cls-8" d="m157.9841,36.8889h-3.5742l-.8027,2.2324h-1.1602l3.2578-8.5312h.9844l3.2637,8.5312h-1.1543l-.8145-2.2324Zm-3.2344-.9199h2.9004l-1.4531-3.9902-1.4473,3.9902Zm2.0039-7.6641h1.3125l-1.5703,1.7227-.873-.0029,1.1309-1.7197Z"/>
    <path class="cls-8" d="m163.9256,37.6272l2.4375-7.0371h1.2305l-3.1641,8.5312h-.9961l-3.1582-8.5312h1.2246l2.4258,7.0371Z"/>
    <path class="cls-8" d="m173.0076,36.8889h-3.5742l-.8027,2.2324h-1.1602l3.2578-8.5312h.9844l3.2637,8.5312h-1.1543l-.8145-2.2324Zm-3.2344-.9199h2.9004l-1.4531-3.9902-1.4473,3.9902Z"/>
    <path class="cls-8" d="m176.9685,38.2014h4.8809v.9199h-6.2109v-.8438l4.6758-6.7676h-4.5996v-.9199h5.9473v.821l-4.6934,6.7903Z"/>
    <path class="cls-8" d="m185.4763,35.1545l-1.043,1.084v2.8828h-1.125v-8.5312h1.125v4.2188l3.791-4.2188h1.3594l-3.3574,3.7676,3.6211,4.7637h-1.3477l-3.0234-3.9668Z"/>
    <path class="cls-8" d="m196.8377,30.5901v5.8008c-.0039.8047-.2568,1.4629-.7588,1.9746s-1.1826.7988-2.042.8613l-.2988.0117c-.9336,0-1.6777-.252-2.2324-.7559s-.8359-1.1973-.8438-2.0801v-5.8125h1.1133v5.7773c0,.6172.1699,1.0967.5098,1.4385s.8242.5127,1.4531.5127c.6367,0,1.124-.1699,1.4619-.5098s.5068-.8184.5068-1.4355v-5.7832h1.1309Z"/>
  </g>
</svg>