<?xml version="1.0" encoding="UTF-8"?>
<svg id="Layer_1" data-name="Layer 1" xmlns="http://www.w3.org/2000/svg" width="330" height="366.9921" viewBox="0 0 330 366.9921">
  <g>
    <path d="m43.1773,313.914h259.9506" fill="none" stroke="#d0d2d3" stroke-miterlimit="10" stroke-width=".5"/>
    <path d="m43.1773,292.3096h259.9506" fill="none" stroke="#d0d2d3" stroke-miterlimit="10" stroke-width=".5"/>
    <path d="m43.1773,270.7052h259.9506" fill="none" stroke="#d0d2d3" stroke-miterlimit="10" stroke-width=".5"/>
    <path d="m43.1773,249.4799h259.9506" fill="none" stroke="#d0d2d3" stroke-miterlimit="10" stroke-width=".5"/>
    <path d="m43.1773,335.1393h259.9506" fill="none" stroke="#d0d2d3" stroke-miterlimit="10" stroke-width=".5"/>
    <path d="m43.1773,227.8756h259.9506" fill="none" stroke="#d0d2d3" stroke-miterlimit="10" stroke-width=".5"/>
    <path d="m43.1773,206.6502h259.9506" fill="none" stroke="#d0d2d3" stroke-miterlimit="10" stroke-width=".5"/>
    <path d="m43.1773,184.9973h259.9506" fill="none" stroke="#d0d2d3" stroke-miterlimit="10" stroke-width=".5"/>
    <path d="m43.1773,163.7719h259.9506" fill="none" stroke="#d0d2d3" stroke-miterlimit="10" stroke-width=".5"/>
    <path d="m43.1773,163.7174h259.9506" fill="none" stroke="#d0d2d3" stroke-miterlimit="10" stroke-width=".5"/>
    <path d="m43.1773,142.0644h259.9506" fill="none" stroke="#d0d2d3" stroke-miterlimit="10" stroke-width=".5"/>
    <path d="m43.1773,120.8391h259.9506" fill="none" stroke="#d0d2d3" stroke-miterlimit="10" stroke-width=".5"/>
  </g>
  <line x1="240.6118" y1="258.286" x2="301.5052" y2="245.1024" fill="none" stroke="#aaaaad" stroke-dasharray="0 0 4 4" stroke-miterlimit="10" stroke-width=".75"/>
  <g>
    <path d="m10.9607,121.7213l.4336-4.2539h4.3711v1.002h-3.4512l-.2578,2.3262c.418-.2461.8926-.3691,1.4238-.3691.7773,0,1.3945.2568,1.8516.7705s.6855,1.208.6855,2.083c0,.8789-.2373,1.5713-.7119,2.0771s-1.1377.7588-1.9893.7588c-.7539,0-1.3691-.209-1.8457-.627s-.748-.9961-.8145-1.7344h1.0254c.0664.4883.2402.8564.5215,1.1045s.6523.3721,1.1133.3721c.5039,0,.8994-.1719,1.1865-.5156s.4307-.8184.4307-1.4238c0-.5703-.1553-1.0283-.4658-1.374s-.7236-.5186-1.2393-.5186c-.4727,0-.8438.1035-1.1133.3105l-.2871.2344-.8672-.2227Z" fill="#929497"/>
    <path d="m22.5505,122.3599c0,1.2695-.2168,2.2129-.6504,2.8301s-1.1113.9258-2.0332.9258c-.9102,0-1.584-.3018-2.0215-.9053s-.6641-1.5049-.6797-2.7041v-1.4473c0-1.2539.2168-2.1855.6504-2.7949s1.1133-.9141,2.0391-.9141c.918,0,1.5938.2939,2.0273.8818s.6562,1.4951.668,2.7217v1.4062Zm-1.084-1.4824c0-.918-.1289-1.5869-.3867-2.0068s-.666-.6299-1.2246-.6299c-.5547,0-.959.209-1.2129.627s-.3848,1.0605-.3926,1.9277v1.7344c0,.9219.1338,1.6025.4014,2.042s.6729.6592,1.2158.6592c.5352,0,.9326-.207,1.1924-.6211s.3955-1.0664.4072-1.957v-1.7754Z" fill="#929497"/>
    <path d="m26.8162,119.108c0-.5117.1631-.9336.4893-1.2656s.7451-.498,1.2568-.498c.5195,0,.9404.167,1.2627.501s.4834.7666.4834,1.2979v.416c0,.5156-.1631.9365-.4893,1.2627s-.7412.4893-1.2451.4893c-.5078,0-.9277-.1631-1.2598-.4893s-.498-.7607-.498-1.3037v-.4102Zm.8086.4487c0,.3057.0859.5571.2578.7549s.4023.2964.6914.2964c.2773,0,.501-.0957.6709-.2876s.2549-.4541.2549-.7871v-.4287c0-.3052-.084-.5581-.252-.7573-.168-.1997-.3965-.2998-.6855-.2998s-.5176.1001-.6855.2998c-.168.1992-.252.46-.252.7808v.4287Zm1.1953,5.7974l-.6152-.3867,4.166-6.668.6152.3867-4.166,6.668Zm2.1504-1.4473c0-.5117.1631-.9326.4893-1.2627s.7451-.4951,1.2568-.4951.9316.1641,1.2598.4922.4922.7637.4922,1.3066v.416c0,.5117-.1631.9326-.4893,1.2627s-.7432.4951-1.251.4951-.9277-.1631-1.2598-.4893-.498-.7607-.498-1.3037v-.4219Zm.8086.4546c0,.3091.0859.563.2578.7607s.4023.2964.6914.2964c.2812,0,.5059-.0967.6738-.2905s.252-.457.252-.79v-.4346c0-.3091-.085-.562-.2549-.7573-.1699-.1958-.3975-.2939-.6826-.2939-.2773,0-.5029.0972-.6768.2905-.1738.1938-.2607.4556-.2607.7842v.4346Z" fill="#929497"/>
  </g>
  <g>
    <path d="m33.1223,90.6495h-1.0898v-7.2246l-2.1855.8027v-.9844l3.1055-1.166h.1699v8.5723Z" fill="#808184"/>
    <path d="m40.4524,86.8995c-.2266.2695-.4971.4863-.8115.6504s-.6592.2461-1.0342.2461c-.4922,0-.9209-.1211-1.2861-.3633s-.6475-.583-.8467-1.0225-.2988-.9248-.2988-1.4561c0-.5703.1084-1.084.3252-1.541s.5244-.8066.9229-1.0488.8633-.3633,1.3945-.3633c.8438,0,1.5088.3154,1.9951.9463s.7295,1.4912.7295,2.5811v.3164c0,1.6602-.3281,2.8721-.9844,3.6357s-1.6465,1.1553-2.9707,1.1748h-.2109v-.9199h.2285c.8945-.0156,1.582-.2485,2.0625-.6987s.7422-1.1626.7852-2.1372Zm-1.6699,0c.3633,0,.6982-.1113,1.0049-.334s.5303-.498.6709-.8262v-.4336c0-.7109-.1543-1.2891-.4629-1.7344s-.6992-.668-1.1719-.668c-.4766,0-.8594.1826-1.1484.5479s-.4336.8467-.4336,1.4443c0,.582.1396,1.0615.4189,1.4385s.6533.5654,1.1221.5654Z" fill="#808184"/>
    <path d="m47.1907,86.8995c-.2266.2695-.4971.4863-.8115.6504s-.6592.2461-1.0342.2461c-.4922,0-.9209-.1211-1.2861-.3633s-.6475-.583-.8467-1.0225-.2988-.9248-.2988-1.4561c0-.5703.1084-1.084.3252-1.541s.5244-.8066.9229-1.0488.8633-.3633,1.3945-.3633c.8438,0,1.5088.3154,1.9951.9463s.7295,1.4912.7295,2.5811v.3164c0,1.6602-.3281,2.8721-.9844,3.6357s-1.6465,1.1553-2.9707,1.1748h-.2109v-.9199h.2285c.8945-.0156,1.582-.2485,2.0625-.6987s.7422-1.1626.7852-2.1372Zm-1.6699,0c.3633,0,.6982-.1113,1.0049-.334s.5303-.498.6709-.8262v-.4336c0-.7109-.1543-1.2891-.4629-1.7344s-.6992-.668-1.1719-.668c-.4766,0-.8594.1826-1.1484.5479s-.4336.8467-.4336,1.4443c0,.582.1396,1.0615.4189,1.4385s.6533.5654,1.1221.5654Z" fill="#808184"/>
    <path d="m55.1243,87.0108c0,1.2695-.2168,2.2129-.6504,2.8301s-1.1113.9258-2.0332.9258c-.9102,0-1.584-.3018-2.0215-.9053s-.6641-1.5049-.6797-2.7041v-1.4473c0-1.2539.2168-2.1855.6504-2.7949s1.1133-.9141,2.0391-.9141c.918,0,1.5938.2939,2.0273.8818s.6562,1.4951.668,2.7217v1.4062Zm-1.084-1.4824c0-.918-.1289-1.5869-.3867-2.0068s-.666-.6299-1.2246-.6299c-.5547,0-.959.209-1.2129.627s-.3848,1.0605-.3926,1.9277v1.7344c0,.9219.1338,1.6025.4014,2.042s.6729.6592,1.2158.6592c.5352,0,.9326-.207,1.1924-.6211s.3955-1.0664.4072-1.957v-1.7754Z" fill="#808184"/>
  </g>
  <g>
    <path d="m296.2331,90.6446h-5.8477v-1.1602l2.7598-2.9414c.3789-.4141.6592-.7754.8408-1.084s.2725-.6016.2725-.8789c0-.3789-.0957-.6768-.2871-.8936s-.4648-.3252-.8203-.3252c-.3828,0-.6846.1318-.9053.3955s-.3311.6104-.3311,1.04h-1.6992c0-.5195.124-.9941.3721-1.4238s.5986-.7666,1.0518-1.0107.9668-.3662,1.541-.3662c.8789,0,1.5615.2109,2.0479.6328s.7295,1.0176.7295,1.7871c0,.4219-.1094.8516-.3281,1.2891s-.5938.9473-1.125,1.5293l-1.9395,2.0449h3.668v1.3652Z" fill="#808184"/>
    <path d="m303.0124,87.1173c0,1.1797-.2441,2.082-.7324,2.707s-1.2031.9375-2.1445.9375c-.9297,0-1.6406-.3066-2.1328-.9199s-.7441-1.4922-.7559-2.6367v-1.5703c0-1.1914.2471-2.0957.7412-2.7129s1.2061-.9258,2.1357-.9258,1.6406.3057,2.1328.917.7441,1.4893.7559,2.6338v1.5703Zm-1.6934-1.7266c0-.7075-.0967-1.2227-.29-1.5454s-.4951-.4839-.9053-.4839c-.3984,0-.6924.1533-.8818.4604s-.29.7866-.3018,1.4399v2.0762c0,.6958.0947,1.2129.2842,1.5513s.4932.5073.9111.5073c.4141,0,.7129-.1621.8965-.4868.1836-.3242.2793-.8208.2871-1.4897v-2.0293Z" fill="#808184"/>
    <path d="m305.8777,85.629h.9023c.4297,0,.748-.1074.9551-.3223s.3105-.5.3105-.8555c0-.3438-.1025-.6113-.3076-.8027s-.4873-.2871-.8467-.2871c-.3242,0-.5957.0889-.8145.2666s-.3281.4092-.3281.6943h-1.6934c0-.4453.1201-.8447.3604-1.1982s.5762-.6299,1.0078-.8291.9072-.2988,1.4268-.2988c.9023,0,1.6094.2158,2.1211.6475s.7676,1.0264.7676,1.7842c0,.3906-.1191.75-.3574,1.0781s-.5508.5801-.9375.7559c.4805.1719.8389.4297,1.0752.7734s.3545.75.3545,1.2188c0,.7578-.2764,1.3652-.8291,1.8223s-1.2842.6855-2.1943.6855c-.8516,0-1.5479-.2246-2.0889-.6738s-.8115-1.043-.8115-1.7812h1.6934c0,.3203.1201.582.3604.7852s.5361.3047.8877.3047c.4023,0,.7178-.1064.9463-.3193s.3428-.4951.3428-.8467c0-.8516-.4688-1.2773-1.4062-1.2773h-.8965v-1.3242Z" fill="#808184"/>
    <path d="m316.782,87.1173c0,1.1797-.2441,2.082-.7324,2.707s-1.2031.9375-2.1445.9375c-.9297,0-1.6406-.3066-2.1328-.9199s-.7441-1.4922-.7559-2.6367v-1.5703c0-1.1914.2471-2.0957.7412-2.7129s1.2061-.9258,2.1357-.9258,1.6406.3057,2.1328.917.7441,1.4893.7559,2.6338v1.5703Zm-1.6934-1.7266c0-.7075-.0967-1.2227-.29-1.5454s-.4951-.4839-.9053-.4839c-.3984,0-.6924.1533-.8818.4604s-.29.7866-.3018,1.4399v2.0762c0,.6958.0947,1.2129.2842,1.5513s.4932.5073.9111.5073c.4141,0,.7129-.1621.8965-.4868.1836-.3242.2793-.8208.2871-1.4897v-2.0293Z" fill="#808184"/>
  </g>
  <g>
    <path d="m237.7302,90.6446h-5.5898v-.7793l2.9531-3.2812c.4375-.4961.7393-.8994.9053-1.21s.249-.6318.249-.9639c0-.4453-.1348-.8105-.4043-1.0957s-.6289-.4277-1.0781-.4277c-.5391,0-.958.1533-1.2568.46s-.4482.7334-.4482,1.2803h-1.084c0-.7852.2529-1.4199.7588-1.9043s1.1826-.7266,2.0303-.7266c.793,0,1.4199.208,1.8809.624s.6914.9697.6914,1.6611c0,.8398-.5352,1.8398-1.6055,3l-2.2852,2.4785h4.2832v.8848Z" fill="#808184"/>
    <path d="m244.2283,87.0059c0,1.2695-.2168,2.2129-.6504,2.8301s-1.1113.9258-2.0332.9258c-.9102,0-1.584-.3018-2.0215-.9053s-.6641-1.5049-.6797-2.7041v-1.4473c0-1.2539.2168-2.1855.6504-2.7949s1.1133-.9141,2.0391-.9141c.918,0,1.5938.2939,2.0273.8818s.6562,1.4951.668,2.7217v1.4062Zm-1.084-1.4824c0-.918-.1289-1.5869-.3867-2.0068s-.666-.6299-1.2246-.6299c-.5547,0-.959.209-1.2129.627s-.3848,1.0605-.3926,1.9277v1.7344c0,.9219.1338,1.6025.4014,2.042s.6729.6592,1.2158.6592c.5352,0,.9326-.207,1.1924-.6211s.3955-1.0664.4072-1.957v-1.7754Z" fill="#808184"/>
    <path d="m251.2068,90.6446h-5.5898v-.7793l2.9531-3.2812c.4375-.4961.7393-.8994.9053-1.21s.249-.6318.249-.9639c0-.4453-.1348-.8105-.4043-1.0957s-.6289-.4277-1.0781-.4277c-.5391,0-.958.1533-1.2568.46s-.4482.7334-.4482,1.2803h-1.084c0-.7852.2529-1.4199.7588-1.9043s1.1826-.7266,2.0303-.7266c.793,0,1.4199.208,1.8809.624s.6914.9697.6914,1.6611c0,.8398-.5352,1.8398-1.6055,3l-2.2852,2.4785h4.2832v.8848Z" fill="#808184"/>
    <path d="m255.9177,90.6446h-1.0898v-7.2246l-2.1855.8027v-.9844l3.1055-1.166h.1699v8.5723Z" fill="#808184"/>
  </g>
  <g>
    <path d="m16.0525,253.2977h-5.5898v-.7793l2.9531-3.2812c.4375-.4961.7393-.8994.9053-1.21s.249-.6318.249-.9639c0-.4453-.1348-.8105-.4043-1.0957s-.6289-.4277-1.0781-.4277c-.5391,0-.958.1533-1.2568.46s-.4482.7334-.4482,1.2803h-1.084c0-.7852.2529-1.4199.7588-1.9043s1.1826-.7266,2.0303-.7266c.793,0,1.4199.208,1.8809.624s.6914.9697.6914,1.6611c0,.8398-.5352,1.8398-1.6055,3l-2.2852,2.4785h4.2832v.8848Z" fill="#929497"/>
    <path d="m22.5505,249.659c0,1.2695-.2168,2.2129-.6504,2.8301s-1.1113.9258-2.0332.9258c-.9102,0-1.584-.3018-2.0215-.9053s-.6641-1.5049-.6797-2.7041v-1.4473c0-1.2539.2168-2.1855.6504-2.7949s1.1133-.9141,2.0391-.9141c.918,0,1.5938.2939,2.0273.8818s.6562,1.4951.668,2.7217v1.4062Zm-1.084-1.4824c0-.918-.1289-1.5869-.3867-2.0068s-.666-.6299-1.2246-.6299c-.5547,0-.959.209-1.2129.627s-.3848,1.0605-.3926,1.9277v1.7344c0,.9219.1338,1.6025.4014,2.042s.6729.6592,1.2158.6592c.5352,0,.9326-.207,1.1924-.6211s.3955-1.0664.4072-1.957v-1.7754Z" fill="#929497"/>
    <path d="m26.8162,246.4071c0-.5117.1631-.9336.4893-1.2656s.7451-.498,1.2568-.498c.5195,0,.9404.167,1.2627.501s.4834.7666.4834,1.2979v.416c0,.5156-.1631.9365-.4893,1.2627s-.7412.4893-1.2451.4893c-.5078,0-.9277-.1631-1.2598-.4893s-.498-.7607-.498-1.3037v-.4102Zm.8086.4487c0,.3057.0859.5571.2578.7549s.4023.2964.6914.2964c.2773,0,.501-.0957.6709-.2876s.2549-.4541.2549-.7871v-.4287c0-.3052-.084-.5581-.252-.7573-.168-.1997-.3965-.2998-.6855-.2998s-.5176.1001-.6855.2998c-.168.1992-.252.46-.252.7808v.4287Zm1.1953,5.7974l-.6152-.3867,4.166-6.668.6152.3867-4.166,6.668Zm2.1504-1.4473c0-.5117.1631-.9326.4893-1.2627s.7451-.4951,1.2568-.4951.9316.1641,1.2598.4922.4922.7637.4922,1.3066v.416c0,.5117-.1631.9326-.4893,1.2627s-.7432.4951-1.251.4951-.9277-.1631-1.2598-.4893-.498-.7607-.498-1.3037v-.4219Zm.8086.4546c0,.3091.0859.563.2578.7607s.4023.2964.6914.2964c.2812,0,.5059-.0967.6738-.2905s.252-.457.252-.79v-.4346c0-.3091-.085-.562-.2549-.7573-.1699-.1958-.3975-.2939-.6826-.2939-.2773,0-.5029.0972-.6768.2905-.1738.1938-.2607.4556-.2607.7842v.4346Z" fill="#929497"/>
  </g>
  <g>
    <path d="m12.0388,206.3572h.8145c.5117-.0078.9141-.1426,1.207-.4043s.4395-.6152.4395-1.0605c0-1-.498-1.5-1.4941-1.5-.4688,0-.8428.1338-1.1221.4014s-.4189.6221-.4189,1.0635h-1.084c0-.6758.2471-1.2373.7412-1.6846s1.1221-.6709,1.8838-.6709c.8047,0,1.4355.2129,1.8926.6387s.6855,1.0176.6855,1.7754c0,.3711-.1201.7305-.3604,1.0781s-.5674.6074-.9814.7793c.4688.1484.8311.3945,1.0869.7383s.3838.7637.3838,1.2598c0,.7656-.25,1.373-.75,1.8223s-1.1504.6738-1.9512.6738-1.4521-.2168-1.9541-.6504-.7529-1.0059-.7529-1.7168h1.0898c0,.4492.1465.8086.4395,1.0781s.6855.4043,1.1777.4043c.5234,0,.9238-.1367,1.2012-.4102s.416-.666.416-1.1777c0-.4961-.1523-.877-.457-1.1426s-.7441-.4023-1.3184-.4102h-.8145v-.8848Z" fill="#929497"/>
    <path d="m22.5505,207.5115c0,1.2695-.2168,2.2129-.6504,2.8301s-1.1113.9258-2.0332.9258c-.9102,0-1.584-.3018-2.0215-.9053s-.6641-1.5049-.6797-2.7041v-1.4473c0-1.2539.2168-2.1855.6504-2.7949s1.1133-.9141,2.0391-.9141c.918,0,1.5938.2939,2.0273.8818s.6562,1.4951.668,2.7217v1.4062Zm-1.084-1.4824c0-.918-.1289-1.5869-.3867-2.0068s-.666-.6299-1.2246-.6299c-.5547,0-.959.209-1.2129.627s-.3848,1.0605-.3926,1.9277v1.7344c0,.9219.1338,1.6025.4014,2.042s.6729.6592,1.2158.6592c.5352,0,.9326-.207,1.1924-.6211s.3955-1.0664.4072-1.957v-1.7754Z" fill="#929497"/>
    <path d="m26.8162,204.2596c0-.5117.1631-.9336.4893-1.2656s.7451-.498,1.2568-.498c.5195,0,.9404.167,1.2627.501s.4834.7666.4834,1.2979v.416c0,.5156-.1631.9365-.4893,1.2627s-.7412.4893-1.2451.4893c-.5078,0-.9277-.1631-1.2598-.4893s-.498-.7607-.498-1.3037v-.4102Zm.8086.4487c0,.3057.0859.5571.2578.7549s.4023.2964.6914.2964c.2773,0,.501-.0957.6709-.2876s.2549-.4541.2549-.7871v-.4287c0-.3052-.084-.5581-.252-.7573-.168-.1997-.3965-.2998-.6855-.2998s-.5176.1001-.6855.2998c-.168.1992-.252.46-.252.7808v.4287Zm1.1953,5.7974l-.6152-.3867,4.166-6.668.6152.3867-4.166,6.668Zm2.1504-1.4473c0-.5117.1631-.9326.4893-1.2627s.7451-.4951,1.2568-.4951.9316.1641,1.2598.4922.4922.7637.4922,1.3066v.416c0,.5117-.1631.9326-.4893,1.2627s-.7432.4951-1.251.4951-.9277-.1631-1.2598-.4893-.498-.7607-.498-1.3037v-.4219Zm.8086.4546c0,.3091.0859.563.2578.7607s.4023.2964.6914.2964c.2812,0,.5059-.0967.6738-.2905s.252-.457.252-.79v-.4346c0-.3091-.085-.562-.2549-.7573-.1699-.1958-.3975-.2939-.6826-.2939-.2773,0-.5029.0972-.6768.2905-.1738.1938-.2607.4556-.2607.7842v.4346Z" fill="#929497"/>
  </g>
  <g>
    <path d="m15.0388,165.3524h1.1836v.8848h-1.1836v1.9805h-1.0898v-1.9805h-3.8848v-.6387l3.8203-5.9121h1.1543v5.666Zm-3.7441,0h2.6543v-4.1836l-.1289.2344-2.5254,3.9492Z" fill="#929497"/>
    <path d="m22.5505,164.5789c0,1.2695-.2168,2.2129-.6504,2.8301s-1.1113.9258-2.0332.9258c-.9102,0-1.584-.3018-2.0215-.9053s-.6641-1.5049-.6797-2.7041v-1.4473c0-1.2539.2168-2.1855.6504-2.7949s1.1133-.9141,2.0391-.9141c.918,0,1.5938.2939,2.0273.8818s.6562,1.4951.668,2.7217v1.4062Zm-1.084-1.4824c0-.918-.1289-1.5869-.3867-2.0068s-.666-.6299-1.2246-.6299c-.5547,0-.959.209-1.2129.627s-.3848,1.0605-.3926,1.9277v1.7344c0,.9219.1338,1.6025.4014,2.042s.6729.6592,1.2158.6592c.5352,0,.9326-.207,1.1924-.6211s.3955-1.0664.4072-1.957v-1.7754Z" fill="#929497"/>
    <path d="m26.8162,161.327c0-.5117.1631-.9336.4893-1.2656s.7451-.498,1.2568-.498c.5195,0,.9404.167,1.2627.501s.4834.7666.4834,1.2979v.416c0,.5156-.1631.9365-.4893,1.2627s-.7412.4893-1.2451.4893c-.5078,0-.9277-.1631-1.2598-.4893s-.498-.7607-.498-1.3037v-.4102Zm.8086.4487c0,.3057.0859.5571.2578.7549s.4023.2964.6914.2964c.2773,0,.501-.0957.6709-.2876s.2549-.4541.2549-.7871v-.4287c0-.3052-.084-.5581-.252-.7573-.168-.1997-.3965-.2998-.6855-.2998s-.5176.1001-.6855.2998c-.168.1992-.252.46-.252.7808v.4287Zm1.1953,5.7974l-.6152-.3867,4.166-6.668.6152.3867-4.166,6.668Zm2.1504-1.4473c0-.5117.1631-.9326.4893-1.2627s.7451-.4951,1.2568-.4951.9316.1641,1.2598.4922.4922.7637.4922,1.3066v.416c0,.5117-.1631.9326-.4893,1.2627s-.7432.4951-1.251.4951-.9277-.1631-1.2598-.4893-.498-.7607-.498-1.3037v-.4219Zm.8086.4546c0,.3091.0859.563.2578.7607s.4023.2964.6914.2964c.2812,0,.5059-.0967.6738-.2905s.252-.457.252-.79v-.4346c0-.3091-.085-.562-.2549-.7573-.1699-.1958-.3975-.2939-.6826-.2939-.2773,0-.5029.0972-.6768.2905-.1738.1938-.2607.4556-.2607.7842v.4346Z" fill="#929497"/>
  </g>
  <g>
    <path d="m14.0251,296.8099h-1.0898v-7.2246l-2.1855.8027v-.9844l3.1055-1.166h.1699v8.5723Z" fill="#929497"/>
    <path d="m22.5505,293.1712c0,1.2695-.2168,2.2129-.6504,2.8301s-1.1113.9258-2.0332.9258c-.9102,0-1.584-.3018-2.0215-.9053s-.6641-1.5049-.6797-2.7041v-1.4473c0-1.2539.2168-2.1855.6504-2.7949s1.1133-.9141,2.0391-.9141c.918,0,1.5938.2939,2.0273.8818s.6562,1.4951.668,2.7217v1.4062Zm-1.084-1.4824c0-.918-.1289-1.5869-.3867-2.0068s-.666-.6299-1.2246-.6299c-.5547,0-.959.209-1.2129.627s-.3848,1.0605-.3926,1.9277v1.7344c0,.9219.1338,1.6025.4014,2.042s.6729.6592,1.2158.6592c.5352,0,.9326-.207,1.1924-.6211s.3955-1.0664.4072-1.957v-1.7754Z" fill="#929497"/>
    <path d="m26.8162,289.9193c0-.5117.1631-.9336.4893-1.2656s.7451-.498,1.2568-.498c.5195,0,.9404.167,1.2627.501s.4834.7666.4834,1.2979v.416c0,.5156-.1631.9365-.4893,1.2627s-.7412.4893-1.2451.4893c-.5078,0-.9277-.1631-1.2598-.4893s-.498-.7607-.498-1.3037v-.4102Zm.8086.4482c0,.3057.0859.5576.2578.7549.1719.1982.4023.2969.6914.2969.2773,0,.501-.0957.6709-.2881.1699-.1914.2549-.4541.2549-.7871v-.4287c0-.3047-.084-.5576-.252-.7568-.168-.2002-.3965-.2998-.6855-.2998s-.5176.0996-.6855.2998c-.168.1992-.252.46-.252.7803v.4287Zm1.1953,5.7979l-.6152-.3867,4.166-6.668.6152.3867-4.166,6.668Zm2.1504-1.4473c0-.5117.1631-.9326.4893-1.2627s.7451-.4951,1.2568-.4951.9316.1641,1.2598.4922.4922.7637.4922,1.3066v.416c0,.5117-.1631.9326-.4893,1.2627s-.7432.4951-1.251.4951-.9277-.1631-1.2598-.4893-.498-.7607-.498-1.3037v-.4219Zm.8086.4541c0,.3096.0859.5635.2578.7607.1719.1982.4023.2969.6914.2969.2812,0,.5059-.0967.6738-.291.168-.1934.252-.457.252-.79v-.4346c0-.3086-.085-.5615-.2549-.7568-.1699-.1963-.3975-.2939-.6826-.2939-.2773,0-.5029.0967-.6768.29-.1738.1943-.2607.4561-.2607.7842v.4346Z" fill="#929497"/>
  </g>
  <g>
    <rect x="72.9768" y="279.3849" width="65.6226" height="20.3328" fill="#fff"/>
    <g>
      <path d="m87.5959,294.5926c0-.332-.1172-.5869-.3516-.7646s-.6562-.3652-1.2656-.5625-1.0918-.3916-1.4473-.583c-.9688-.5234-1.4531-1.2285-1.4531-2.1152,0-.4609.1299-.8721.3896-1.2334s.6328-.6436,1.1191-.8467,1.0322-.3047,1.6377-.3047c.6094,0,1.1523.1104,1.6289.3311s.8467.5322,1.1104.9346.3955.8594.3955,1.3711h-1.7578c0-.3906-.123-.6943-.3691-.9111s-.5918-.3252-1.0371-.3252c-.4297,0-.7637.0908-1.002.2725s-.3574.4209-.3574.7178c0,.2773.1396.5098.4189.6973s.6904.3633,1.2334.5273c1,.3008,1.7285.6738,2.1855,1.1191s.6855,1,.6855,1.6641c0,.7383-.2793,1.3174-.8379,1.7373s-1.3105.6299-2.2559.6299c-.6562,0-1.2539-.1201-1.793-.3604s-.9502-.5693-1.2334-.9873-.4248-.9023-.4248-1.4531h1.7637c0,.9414.5625,1.4121,1.6875,1.4121.418,0,.7441-.085.9785-.2549s.3516-.4072.3516-.7119Z" fill="#0032a1"/>
      <path d="m92.4651,288.9324v1.5586h1.084v1.2422h-1.084v3.1641c0,.2344.0449.4023.1348.5039s.2617.1523.5156.1523c.1875,0,.3535-.0137.498-.041v1.2832c-.332.1016-.6738.1523-1.0254.1523-1.1875,0-1.793-.5996-1.8164-1.7988v-3.416h-.9258v-1.2422h.9258v-1.5586h1.6934Z" fill="#0032a1"/>
      <path d="m98.1663,296.8309c-.0781-.1523-.1348-.3418-.1699-.5684-.4102.457-.9434.6855-1.5996.6855-.6211,0-1.1357-.1797-1.5439-.5391s-.6123-.8125-.6123-1.3594c0-.6719.249-1.1875.7471-1.5469s1.2178-.541,2.1592-.5449h.7793v-.3633c0-.293-.0752-.5273-.2256-.7031s-.3877-.2637-.7119-.2637c-.2852,0-.5088.0684-.6709.2051s-.2432.3242-.2432.5625h-1.6934c0-.3672.1133-.707.3398-1.0195s.5469-.5576.9609-.7354.8789-.2666,1.3945-.2666c.7812,0,1.4014.1963,1.8604.5889s.6885.9443.6885,1.6553v2.748c.0039.6016.0879,1.0566.252,1.3652v.0996h-1.7109Zm-1.4004-1.1777c.25,0,.4805-.0557.6914-.167s.3672-.2607.4688-.4482v-1.0898h-.6328c-.8477,0-1.2988.293-1.3535.8789l-.0059.0996c0,.2109.0742.3848.2227.5215s.3516.2051.6094.2051Z" fill="#0032a1"/>
      <path d="m103.2112,294.7625l1.1777-4.2715h1.7695l-2.1387,6.3398h-1.6172l-2.1387-6.3398h1.7695l1.1777,4.2715Z" fill="#0032a1"/>
      <path d="m112.2639,294.7625l1.1777-4.2715h1.7695l-2.1387,6.3398h-1.6172l-2.1387-6.3398h1.7695l1.1777,4.2715Z" fill="#0032a1"/>
      <path d="m125.7522,293.9891c-.0664.918-.4053,1.6406-1.0166,2.168s-1.417.791-2.417.791c-1.0938,0-1.9541-.3682-2.5811-1.1045s-.9404-1.7471-.9404-3.0322v-.5215c0-.8203.1445-1.543.4336-2.168s.7021-1.1045,1.2393-1.4385,1.1611-.501,1.8721-.501c.9844,0,1.7773.2637,2.3789.791s.9492,1.2676,1.043,2.2207h-1.7578c-.043-.5508-.1963-.9502-.46-1.1982s-.665-.3721-1.2041-.3721c-.5859,0-1.0244.21-1.3154.6299s-.4404,1.0713-.4482,1.9541v.6445c0,.9219.1396,1.5957.4189,2.0215s.7197.6387,1.3213.6387c.543,0,.9482-.124,1.2158-.3721s.4209-.6318.46-1.1514h1.7578Zm-3.4277-7.1895l.8555-.8379h1.4473v.0645l-1.7695,1.6465h-1.0723l-1.7695-1.6582v-.0527h1.4473l.8613.8379Z" fill="#0032a1"/>
      <path d="m130.0647,293.7078h-1.4004v3.123h-1.7578v-8.5312h3.1699c1.0078,0,1.7852.2246,2.332.6738s.8203,1.084.8203,1.9043c0,.582-.126,1.0674-.3779,1.4561s-.6338.6982-1.1455.9287l1.8457,3.4863v.082h-1.8867l-1.5996-3.123Zm-1.4004-1.4238h1.418c.4414,0,.7832-.1123,1.0254-.3369s.3633-.5342.3633-.9287c0-.4023-.1143-.7188-.3428-.9492s-.5791-.3457-1.0518-.3457h-1.4121v2.5605Z" fill="#0032a1"/>
    </g>
  </g>
  <g>
    <path d="m22.5505,336.0013c0,1.2695-.2168,2.2129-.6504,2.8301s-1.1113.9258-2.0332.9258c-.9102,0-1.584-.3018-2.0215-.9053s-.6641-1.5049-.6797-2.7041v-1.4473c0-1.2539.2168-2.1855.6504-2.7949s1.1133-.9141,2.0391-.9141c.918,0,1.5938.2939,2.0273.8818s.6562,1.4951.668,2.7217v1.4062Zm-1.084-1.4824c0-.918-.1289-1.5869-.3867-2.0068s-.666-.6299-1.2246-.6299c-.5547,0-.959.209-1.2129.627s-.3848,1.0605-.3926,1.9277v1.7344c0,.9219.1338,1.6025.4014,2.042s.6729.6592,1.2158.6592c.5352,0,.9326-.207,1.1924-.6211s.3955-1.0664.4072-1.957v-1.7754Z" fill="#929497"/>
    <path d="m26.8162,332.7493c0-.5117.1631-.9336.4893-1.2656s.7451-.498,1.2568-.498c.5195,0,.9404.167,1.2627.501s.4834.7666.4834,1.2979v.416c0,.5156-.1631.9365-.4893,1.2627s-.7412.4893-1.2451.4893c-.5078,0-.9277-.1631-1.2598-.4893s-.498-.7607-.498-1.3037v-.4102Zm.8086.4482c0,.3057.0859.5576.2578.7549.1719.1982.4023.2969.6914.2969.2773,0,.501-.0957.6709-.2881.1699-.1914.2549-.4541.2549-.7871v-.4287c0-.3047-.084-.5576-.252-.7568-.168-.2002-.3965-.2998-.6855-.2998s-.5176.0996-.6855.2998c-.168.1992-.252.46-.252.7803v.4287Zm1.1953,5.7979l-.6152-.3867,4.166-6.668.6152.3867-4.166,6.668Zm2.1504-1.4473c0-.5117.1631-.9326.4893-1.2627s.7451-.4951,1.2568-.4951.9316.1641,1.2598.4922.4922.7637.4922,1.3066v.416c0,.5117-.1631.9326-.4893,1.2627s-.7432.4951-1.251.4951-.9277-.1631-1.2598-.4893-.498-.7607-.498-1.3037v-.4219Zm.8086.4541c0,.3096.0859.5635.2578.7607.1719.1982.4023.2969.6914.2969.2812,0,.5059-.0967.6738-.291.168-.1934.252-.457.252-.79v-.4346c0-.3086-.085-.5615-.2549-.7568-.1699-.1963-.3975-.2939-.6826-.2939-.2773,0-.5029.0967-.6768.29-.1738.1943-.2607.4561-.2607.7842v.4346Z" fill="#929497"/>
  </g>
  <path d="m43.1773,98.7126v7.5426" fill="none" stroke="#aaaaad" stroke-miterlimit="10" stroke-width=".5"/>
  <path d="m303.128,98.7126v7.5426" fill="none" stroke="#aaaaad" stroke-miterlimit="10" stroke-width=".5"/>
  <path d="m243.024,98.7126v7.5426" fill="none" stroke="#aaaaad" stroke-miterlimit="10" stroke-width=".5"/>
  <g>
    <path d="m16.5212,21.928h6.4512v2.1182h-9.7471v-1.5469l6.3281-9.1143h-6.3193v-2.1357h9.5977v1.5117l-6.3105,9.167Z" fill="#2a2b33"/>
    <path d="m27.7888,20.9437l1.7666-6.4072h2.6543l-3.208,9.5098h-2.4258l-3.208-9.5098h2.6543l1.7666,6.4072Z" fill="#2a2b33"/>
    <path d="m36.8767,20.4515l1.7578-5.915h2.7246l-3.8232,10.9863-.2109.501c-.5684,1.2422-1.5059,1.8633-2.8125,1.8633-.3691,0-.7441-.0557-1.125-.167v-1.9248l.3867.0088c.4805,0,.8394-.0732,1.0767-.2197s.4233-.3896.5581-.7295l.2988-.7822-3.3311-9.5361h2.7334l1.7666,5.915Zm.5537-9.9053h2.7686l-2.4346,2.7246h-2.0654l1.7314-2.7246Z" fill="#2a2b33"/>
    <path d="m47.5115,21.4183c0-.3105-.1538-.5552-.4614-.7339s-.8013-.3384-1.481-.479c-2.2617-.4746-3.3926-1.4355-3.3926-2.8828,0-.8438.3501-1.5483,1.0503-2.1138s1.6157-.8481,2.7466-.8481c1.207,0,2.1724.2842,2.896.8525s1.0854,1.3066,1.0854,2.2148h-2.54c0-.3633-.1172-.6636-.3516-.9009s-.6006-.356-1.0986-.356c-.4277,0-.7588.0967-.9932.29s-.3516.4395-.3516.7383c0,.2812.1333.5083.3999.6812s.7163.3223,1.3491.4482,1.166.2681,1.5996.4263c1.3418.4922,2.0127,1.3447,2.0127,2.5576,0,.8672-.3721,1.5688-1.1162,2.105s-1.7051.8042-2.8828.8042c-.7969,0-1.5044-.1421-2.1226-.4263s-1.103-.6738-1.4546-1.1689-.5273-1.0298-.5273-1.604h2.4082c.0234.4512.1904.7969.501,1.0371s.7266.3604,1.248.3604c.4863,0,.854-.0923,1.103-.2769s.3735-.4263.3735-.7251Zm-1.4766-9.624l1.2832-1.2568h2.1709v.0967l-2.6543,2.4697h-1.6084l-2.6543-2.4873v-.0791h2.1709l1.292,1.2568Z" fill="#2a2b33"/>
    <path d="m55.9929,24.222c-1.3945,0-2.5298-.4277-3.4058-1.2832s-1.314-1.9951-1.314-3.4189v-.2461c0-.9551.1846-1.8091.5537-2.562s.8921-1.333,1.5688-1.7402,1.4487-.6108,2.3159-.6108c1.3008,0,2.3247.4102,3.0718,1.2305s1.1206,1.9834,1.1206,3.4893v1.0371h-6.0557c.082.6211.3296,1.1191.7427,1.4941s.936.5625,1.5688.5625c.9785,0,1.7432-.3545,2.2939-1.0635l1.248,1.3975c-.3809.5391-.8965.9595-1.5469,1.2612s-1.3711.4526-2.1621.4526Zm-.29-7.8135c-.5039,0-.9126.1709-1.2261.5122s-.5142.8301-.6021,1.4653h3.5332v-.2031c-.0117-.5649-.1641-1.002-.457-1.311-.293-.3086-.709-.4634-1.248-.4634Z" fill="#2a2b33"/>
    <path d="m63.6833,14.5364l.0791,1.0986c.6797-.8496,1.5908-1.2744,2.7334-1.2744,1.0078,0,1.7578.2959,2.25.8877s.7441,1.4766.7559,2.6543v6.1436h-2.54v-6.082c0-.5391-.1172-.9302-.3516-1.1733s-.624-.3647-1.1689-.3647c-.7148,0-1.251.3047-1.6084.9141v6.7061h-2.54v-9.5098h2.3906Z" fill="#2a2b33"/>
    <path d="m74.1687,24.0462h-2.54v-9.5098h2.54v9.5098Zm-.7471-13.3682h2.7686l-2.4346,2.7246h-2.0654l1.7314-2.7246Z" fill="#2a2b33"/>
    <path d="m89.4001,19.3792c0,1.4648-.3325,2.6382-.9976,3.52s-1.563,1.3228-2.6938,1.3228c-.9609,0-1.7373-.334-2.3291-1.002v4.4824h-2.54v-13.166h2.3555l.0879.9316c.6152-.7383,1.418-1.1074,2.4082-1.1074,1.1719,0,2.083.4336,2.7334,1.3008s.9756,2.0625.9756,3.5859v.1318Zm-2.54-.1846c0-.8848-.1567-1.5674-.4702-2.0479s-.769-.7207-1.3667-.7207c-.7969,0-1.3447.3047-1.6436.9141v3.8936c.3105.627.8643.9404,1.6611.9404,1.2129,0,1.8193-.9932,1.8193-2.9795Z" fill="#2a2b33"/>
    <path d="m90.5779,19.2034c0-.9434.1816-1.7842.5449-2.5225s.8862-1.3096,1.5688-1.7139,1.4751-.6064,2.3774-.6064c1.2832,0,2.3306.3926,3.1421,1.1777s1.2642,1.8516,1.3579,3.1992l.0176.6504c0,1.459-.4072,2.6294-1.2217,3.5112s-1.9072,1.3228-3.2783,1.3228-2.4653-.4395-3.2827-1.3184-1.2261-2.0742-1.2261-3.5859v-.1143Zm2.54.1807c0,.9033.1699,1.5947.5098,2.0728.3398.4785.8262.7173,1.459.7173.6152,0,1.0957-.2363,1.4414-.7085.3457-.4727.5186-1.228.5186-2.2666,0-.8862-.1729-1.5728-.5186-2.0601-.3457-.4868-.832-.7305-1.459-.7305-.6211,0-1.1016.2422-1.4414.7261-.3398.4844-.5098,1.2344-.5098,2.2495Z" fill="#2a2b33"/>
    <path d="m100.7556,19.221c0-1.4824.3325-2.6631.9976-3.542s1.5747-1.3184,2.729-1.3184c.9258,0,1.6904.3457,2.2939,1.0371v-4.8516h2.5488v13.5h-2.2939l-.123-1.0107c-.6328.791-1.4473,1.1865-2.4434,1.1865-1.1191,0-2.0171-.4409-2.6938-1.3228s-1.0151-2.1079-1.0151-3.6782Zm2.54.1895c0,.8921.1553,1.5757.4658,2.0508.3105.4756.7617.7129,1.3535.7129.7852,0,1.3389-.3315,1.6611-.9946v-3.7588c-.3164-.6631-.8643-.9946-1.6436-.9946-1.2246,0-1.8369.9946-1.8369,2.9844Z" fill="#2a2b33"/>
    <path d="m114.0359,24.0462h-2.54v-9.5098h2.54v9.5098Zm-.7471-13.3682h2.7686l-2.4346,2.7246h-2.0654l1.7314-2.7246Z" fill="#2a2b33"/>
    <path d="m118.905,24.0462h-2.5488v-13.5h2.5488v13.5Z" fill="#2a2b33"/>
    <path d="m126.6921,23.0794c-.627.7617-1.4941,1.1426-2.6016,1.1426-1.0195,0-1.7974-.293-2.3335-.8789s-.8101-1.4443-.8218-2.5752v-6.2314h2.54v6.1509c0,.9912.4512,1.4868,1.3535,1.4868.8613,0,1.4531-.2988,1.7754-.8975v-6.7402h2.5488v9.5098h-2.3906l-.0703-.9668Z" fill="#2a2b33"/>
    <path d="m146.2302,17.9378c0,1.2598-.2227,2.3643-.668,3.3135s-1.0825,1.6816-1.9116,2.1973-1.7798.7734-2.8521.7734c-1.0605,0-2.0068-.2549-2.8389-.7646s-1.4766-1.2378-1.9336-2.1841-.6885-2.0347-.6943-3.2651v-.6328c0-1.2598.2271-2.3687.6812-3.3267s1.0957-1.6934,1.9248-2.2061,1.7769-.769,2.8433-.769,2.0142.2563,2.8433.769,1.4707,1.248,1.9248,2.2061.6812,2.064.6812,3.3179v.5713Zm-2.6719-.5801c0-1.3418-.2402-2.3613-.7207-3.0586s-1.166-1.0459-2.0566-1.0459c-.8848,0-1.5674.3442-2.0479,1.0327s-.7236,1.6978-.7295,3.0278v.624c0,1.3066.2402,2.3203.7207,3.041s1.1719,1.0811,2.0742,1.0811c.8848,0,1.5645-.3472,2.0391-1.0415s.7148-1.7065.7207-3.0366v-.624Z" fill="#2a2b33"/>
    <path d="m150.739,21.928h6.4512v2.1182h-9.7471v-1.5469l6.3281-9.1143h-6.3193v-2.1357h9.5977v1.5117l-6.3105,9.167Z" fill="#2a2b33"/>
    <path d="m166.5505,18.5003h-5.0625v3.4277h5.9414v2.1182h-8.5781v-12.7969h8.5605v2.1357h-5.9238v3.0498h5.0625v2.0654Z" fill="#2a2b33"/>
    <path d="m15.8972,34.5364l.0791,1.0986c.6797-.8496,1.5908-1.2744,2.7334-1.2744,1.0078,0,1.7578.2959,2.25.8877s.7441,1.4766.7559,2.6543v6.1436h-2.54v-6.082c0-.5391-.1172-.9302-.3516-1.1733s-.624-.3647-1.1689-.3647c-.7148,0-1.251.3047-1.6084.9141v6.7061h-2.54v-9.5098h2.3906Z" fill="#2a2b33"/>
    <path d="m29.1511,44.0462c-.1172-.2285-.2021-.5127-.2549-.8525-.6152.6855-1.415,1.0283-2.3994,1.0283-.9316,0-1.7036-.2695-2.3159-.8086s-.9185-1.2188-.9185-2.0391c0-1.0078.3735-1.7812,1.1206-2.3203s1.8267-.8115,3.2388-.8174h1.1689v-.5449c0-.4395-.1128-.791-.3384-1.0547s-.5815-.3955-1.0679-.3955c-.4277,0-.7632.1025-1.0063.3076s-.3647.4863-.3647.8438h-2.54c0-.5508.1699-1.0605.5098-1.5293s.8203-.8364,1.4414-1.103,1.3184-.3999,2.0918-.3999c1.1719,0,2.1021.2944,2.7905.8833s1.0327,1.4165,1.0327,2.4829v4.1221c.0059.9023.1318,1.585.3779,2.0479v.1494h-2.5664Zm-2.1006-1.7666c.375,0,.7207-.0835,1.0371-.2505s.5508-.3911.7031-.6724v-1.6348h-.9492c-1.2715,0-1.9482.4395-2.0303,1.3184l-.0088.1494c0,.3164.1113.5771.334.7822s.5273.3076.9141.3076Z" fill="#2a2b33"/>
    <path d="m41.2273,40.2318l-.9141.9141v2.9004h-2.54v-13.5h2.54v7.4795l.4922-.6328,2.4346-2.8564h3.0498l-3.4365,3.9639,3.7354,5.5459h-2.918l-2.4434-3.8145Z" fill="#2a2b33"/>
    <path d="m46.9929,39.2034c0-.9434.1816-1.7842.5449-2.5225s.8862-1.3096,1.5688-1.7139,1.4751-.6064,2.3774-.6064c1.2832,0,2.3306.3926,3.1421,1.1777s1.2642,1.8516,1.3579,3.1992l.0176.6504c0,1.459-.4072,2.6294-1.2217,3.5112s-1.9072,1.3228-3.2783,1.3228-2.4653-.4395-3.2827-1.3184-1.2261-2.0742-1.2261-3.5859v-.1143Zm2.54.1807c0,.9033.1699,1.5947.5098,2.0728.3398.4785.8262.7173,1.459.7173.6152,0,1.0957-.2363,1.4414-.7085.3457-.4727.5186-1.228.5186-2.2666,0-.8862-.1729-1.5728-.5186-2.0601-.3457-.4868-.832-.7305-1.459-.7305-.6211,0-1.1016.2422-1.4414.7261-.3398.4844-.5098,1.2344-.5098,2.2495Z" fill="#2a2b33"/>
    <path d="m59.904,34.5364l.0791,1.0986c.6797-.8496,1.5908-1.2744,2.7334-1.2744,1.0078,0,1.7578.2959,2.25.8877s.7441,1.4766.7559,2.6543v6.1436h-2.54v-6.082c0-.5391-.1172-.9302-.3516-1.1733s-.624-.3647-1.1689-.3647c-.7148,0-1.251.3047-1.6084.9141v6.7061h-2.54v-9.5098h2.3906Z" fill="#2a2b33"/>
    <path d="m72.0242,44.222c-1.3945,0-2.5298-.4277-3.4058-1.2832s-1.314-1.9951-1.314-3.4189v-.2461c0-.9551.1846-1.8091.5537-2.562s.8921-1.333,1.5688-1.7402,1.4487-.6108,2.3159-.6108c1.3008,0,2.3247.4102,3.0718,1.2305s1.1206,1.9834,1.1206,3.4893v1.0371h-6.0557c.082.6211.3296,1.1191.7427,1.4941s.936.5625,1.5688.5625c.9785,0,1.7432-.3545,2.2939-1.0635l1.248,1.3975c-.3809.5391-.8965.9595-1.5469,1.2612s-1.3711.4526-2.1621.4526Zm-.29-7.8135c-.5039,0-.9126.1709-1.2261.5122s-.5142.8301-.6021,1.4653h3.5332v-.2031c-.0117-.5649-.1641-1.002-.457-1.311-.293-.3086-.709-.4634-1.248-.4634Z" fill="#2a2b33"/>
    <path d="m81.3318,42.1741c.4688,0,.8496-.1289,1.1426-.3867s.4453-.6006.457-1.0283h2.3818c-.0059.6445-.1816,1.2349-.5273,1.771s-.8188.9521-1.4194,1.248-1.2642.4438-1.9907.4438c-1.3594,0-2.4316-.4321-3.2168-1.2964s-1.1777-2.0581-1.1777-3.5815v-.167c0-1.4648.3896-2.6338,1.1689-3.5068s1.8486-1.3096,3.208-1.3096c1.1895,0,2.1431.3384,2.8608,1.0151s1.0825,1.5776,1.0942,2.7026h-2.3818c-.0117-.4946-.1641-.8965-.457-1.2061-.293-.3091-.6797-.4639-1.1602-.4639-.5918,0-1.0386.2158-1.3403.647-.3018.4316-.4526,1.1313-.4526,2.0996v.2642c0,.98.1494,1.6841.4482,2.1123.2988.4287.7529.6426,1.3623.6426Zm-.2373-10.3799l1.2832-1.2568h2.1709v.0967l-2.6543,2.4697h-1.6084l-2.6543-2.4873v-.0791h2.1709l1.292,1.2568Z" fill="#2a2b33"/>
    <path d="m89.1013,34.5364l.0791,1.0986c.6797-.8496,1.5908-1.2744,2.7334-1.2744,1.0078,0,1.7578.2959,2.25.8877s.7441,1.4766.7559,2.6543v6.1436h-2.54v-6.082c0-.5391-.1172-.9302-.3516-1.1733s-.624-.3647-1.1689-.3647c-.7148,0-1.251.3047-1.6084.9141v6.7061h-2.54v-9.5098h2.3906Z" fill="#2a2b33"/>
    <path d="m101.2214,44.222c-1.3945,0-2.5298-.4277-3.4058-1.2832s-1.314-1.9951-1.314-3.4189v-.2461c0-.9551.1846-1.8091.5537-2.562s.8921-1.333,1.5688-1.7402,1.4487-.6108,2.3159-.6108c1.3008,0,2.3247.4102,3.0718,1.2305s1.1206,1.9834,1.1206,3.4893v1.0371h-6.0557c.082.6211.3296,1.1191.7427,1.4941s.936.5625,1.5688.5625c.9785,0,1.7432-.3545,2.2939-1.0635l1.248,1.3975c-.3809.5391-.8965.9595-1.5469,1.2612s-1.3711.4526-2.1621.4526Zm-.29-7.8135c-.5039,0-.9126.1709-1.2261.5122s-.5142.8301-.6021,1.4653h3.5332v-.2031c-.0117-.5649-.1641-1.002-.457-1.311-.293-.3086-.709-.4634-1.248-.4634Zm.2285-5.8623h2.7686l-2.4346,2.7246h-2.0654l1.7314-2.7246Z" fill="#2a2b33"/>
    <path d="m116.2068,41.4183c0-.3105-.1538-.5552-.4614-.7339s-.8013-.3384-1.481-.479c-2.2617-.4746-3.3926-1.4355-3.3926-2.8828,0-.8438.3501-1.5483,1.0503-2.1138s1.6157-.8481,2.7466-.8481c1.207,0,2.1724.2842,2.896.8525s1.0854,1.3066,1.0854,2.2148h-2.54c0-.3633-.1172-.6636-.3516-.9009s-.6006-.356-1.0986-.356c-.4277,0-.7588.0967-.9932.29s-.3516.4395-.3516.7383c0,.2812.1333.5083.3999.6812s.7163.3223,1.3491.4482,1.166.2681,1.5996.4263c1.3418.4922,2.0127,1.3447,2.0127,2.5576,0,.8672-.3721,1.5688-1.1162,2.105s-1.7051.8042-2.8828.8042c-.7969,0-1.5044-.1421-2.1226-.4263s-1.103-.6738-1.4546-1.1689-.5273-1.0298-.5273-1.604h2.4082c.0234.4512.1904.7969.501,1.0371s.7266.3604,1.248.3604c.4863,0,.854-.0923,1.103-.2769s.3735-.4263.3735-.7251Z" fill="#2a2b33"/>
    <path d="m128.8718,39.3792c0,1.4648-.3325,2.6382-.9976,3.52s-1.563,1.3228-2.6938,1.3228c-.9609,0-1.7373-.334-2.3291-1.002v4.4824h-2.54v-13.166h2.3555l.0879.9316c.6152-.7383,1.418-1.1074,2.4082-1.1074,1.1719,0,2.083.4336,2.7334,1.3008s.9756,2.0625.9756,3.5859v.1318Zm-2.54-.1846c0-.8848-.1567-1.5674-.4702-2.0479s-.769-.7207-1.3667-.7207c-.7969,0-1.3447.3047-1.6436.9141v3.8936c.3105.627.8643.9404,1.6611.9404,1.2129,0,1.8193-.9932,1.8193-2.9795Z" fill="#2a2b33"/>
    <path d="m130.0496,39.2034c0-.9434.1816-1.7842.5449-2.5225s.8862-1.3096,1.5688-1.7139,1.4751-.6064,2.3774-.6064c1.2832,0,2.3306.3926,3.1421,1.1777s1.2642,1.8516,1.3579,3.1992l.0176.6504c0,1.459-.4072,2.6294-1.2217,3.5112s-1.9072,1.3228-3.2783,1.3228-2.4653-.4395-3.2827-1.3184-1.2261-2.0742-1.2261-3.5859v-.1143Zm2.54.1807c0,.9033.1699,1.5947.5098,2.0728.3398.4785.8262.7173,1.459.7173.6152,0,1.0957-.2363,1.4414-.7085.3457-.4727.5186-1.228.5186-2.2666,0-.8862-.1729-1.5728-.5186-2.0601-.3457-.4868-.832-.7305-1.459-.7305-.6211,0-1.1016.2422-1.4414.7261-.3398.4844-.5098,1.2344-.5098,2.2495Z" fill="#2a2b33"/>
    <path d="m143.6638,32.1986v2.3379h1.626v1.8633h-1.626v4.7461c0,.3516.0674.6035.2021.7559s.3926.2285.7734.2285c.2812,0,.5303-.0205.7471-.0615v1.9248c-.498.1523-1.0107.2285-1.5381.2285-1.7812,0-2.6895-.8994-2.7246-2.6982v-5.124h-1.3887v-1.8633h1.3887v-2.3379h2.54Z" fill="#2a2b33"/>
    <path d="m149.3415,31.7943l1.2832-1.2568h2.1709v.0967l-2.6543,2.4697h-1.6084l-2.6543-2.4873v-.0791h2.1709l1.292,1.2568Zm2.707,5.124c-.3457-.0469-.6504-.0703-.9141-.0703-.9609,0-1.5908.3252-1.8896.9756v6.2227h-2.54v-9.5098h2.3994l.0703,1.1338c.5098-.873,1.2158-1.3096,2.1182-1.3096.2812,0,.5449.0381.791.1143l-.0352,2.4434Z" fill="#2a2b33"/>
    <path d="m157.4802,44.222c-1.3945,0-2.5298-.4277-3.4058-1.2832s-1.314-1.9951-1.314-3.4189v-.2461c0-.9551.1846-1.8091.5537-2.562s.8921-1.333,1.5688-1.7402,1.4487-.6108,2.3159-.6108c1.3008,0,2.3247.4102,3.0718,1.2305s1.1206,1.9834,1.1206,3.4893v1.0371h-6.0557c.082.6211.3296,1.1191.7427,1.4941s.936.5625,1.5688.5625c.9785,0,1.7432-.3545,2.2939-1.0635l1.248,1.3975c-.3809.5391-.8965.9595-1.5469,1.2612s-1.3711.4526-2.1621.4526Zm-.29-7.8135c-.5039,0-.9126.1709-1.2261.5122s-.5142.8301-.6021,1.4653h3.5332v-.2031c-.0117-.5649-.1641-1.002-.457-1.311-.293-.3086-.709-.4634-1.248-.4634Z" fill="#2a2b33"/>
    <path d="m171.4021,39.3792c0,1.5234-.3252,2.7114-.9756,3.564s-1.5586,1.2788-2.7246,1.2788c-1.0312,0-1.8545-.3955-2.4697-1.1865l-.1143,1.0107h-2.2852v-13.5h2.54v4.8428c.5859-.6855,1.3564-1.0283,2.3115-1.0283,1.1602,0,2.0698.4263,2.729,1.2788s.9888,2.0522.9888,3.5991v.1406Zm-2.54-.1846c0-.9609-.1523-1.6626-.457-2.105s-.7588-.6636-1.3623-.6636c-.8086,0-1.3652.3311-1.6699.9932v3.7529c.3105.668.873,1.002,1.6875,1.002.8203,0,1.3594-.4043,1.6172-1.2129.123-.3867.1846-.9756.1846-1.7666Z" fill="#2a2b33"/>
    <path d="m177.3435,44.222c-1.3945,0-2.5298-.4277-3.4058-1.2832s-1.314-1.9951-1.314-3.4189v-.2461c0-.9551.1846-1.8091.5537-2.562s.8921-1.333,1.5688-1.7402,1.4487-.6108,2.3159-.6108c1.3008,0,2.3247.4102,3.0718,1.2305s1.1206,1.9834,1.1206,3.4893v1.0371h-6.0557c.082.6211.3296,1.1191.7427,1.4941s.936.5625,1.5688.5625c.9785,0,1.7432-.3545,2.2939-1.0635l1.248,1.3975c-.3809.5391-.8965.9595-1.5469,1.2612s-1.3711.4526-2.1621.4526Zm-.5713-12.4277l1.2832-1.2568h2.1709v.0967l-2.6543,2.4697h-1.6084l-2.6543-2.4873v-.0791h2.1709l1.292,1.2568Zm.2812,4.6143c-.5039,0-.9126.1709-1.2261.5122s-.5142.8301-.6021,1.4653h3.5332v-.2031c-.0117-.5649-.1641-1.002-.457-1.311-.293-.3086-.709-.4634-1.248-.4634Z" fill="#2a2b33"/>
    <path d="m13.2331,57.0867c0-1.1348.269-2.0474.8066-2.7378s1.2417-1.0356,2.1123-1.0356c.8657,0,1.5518.2964,2.0576.8887v-3.8555h1.2646v10.5h-1.1621l-.0615-.793c-.5059.6196-1.21.9297-2.1123.9297-.8569,0-1.5552-.3511-2.0952-1.0527s-.8101-1.6177-.8101-2.748v-.0957Zm1.2646.1436c0,.8384.1733,1.4946.5195,1.9688s.8247.7109,1.4355.7109c.8022,0,1.3877-.3599,1.7568-1.0801v-3.3975c-.3784-.6973-.9595-1.0459-1.7432-1.0459-.6196,0-1.103.2393-1.4492.7178s-.5195,1.187-.5195,2.126Z" fill="#2a2b33"/>
    <path d="m21.1013,57.0799c0-.7246.1426-1.3765.4272-1.9551s.6812-1.0254,1.1895-1.3398,1.0879-.4717,1.7397-.4717c1.0073,0,1.8218.3486,2.4438,1.0459s.9331,1.6245.9331,2.7822v.0889c0,.7202-.1377,1.3662-.4136,1.938s-.6699,1.0176-1.1826,1.3364-1.1016.4785-1.7671.4785c-1.0024,0-1.8149-.3486-2.437-1.0459s-.9331-1.6201-.9331-2.7686v-.0889Zm1.2715.1504c0,.8203.1904,1.479.5708,1.9756s.8896.7451,1.5278.7451c.6426,0,1.1528-.252,1.5312-.7554s.5674-1.209.5674-2.1157c0-.811-.1924-1.4688-.5776-1.9722s-.8965-.7554-1.5347-.7554c-.6245,0-1.1279.2485-1.5107.7451s-.5742,1.2075-.5742,2.1328Z" fill="#2a2b33"/>
    <path d="m36.4617,54.5848c-.1914-.0317-.3989-.0479-.6221-.0479-.8296,0-1.3921.353-1.6885,1.0596v5.25h-1.2646v-7.3965h1.2305l.0205.8545c.4146-.6606,1.0024-.9912,1.7637-.9912.2461,0,.4331.0317.5605.0957v1.1758Z" fill="#2a2b33"/>
    <path d="m37.1521,57.0799c0-.7246.1426-1.3765.4272-1.9551s.6812-1.0254,1.1895-1.3398,1.0879-.4717,1.7397-.4717c1.0073,0,1.8218.3486,2.4438,1.0459s.9331,1.6245.9331,2.7822v.0889c0,.7202-.1377,1.3662-.4136,1.938s-.6699,1.0176-1.1826,1.3364-1.1016.4785-1.7671.4785c-1.0024,0-1.8149-.3486-2.437-1.0459s-.9331-1.6201-.9331-2.7686v-.0889Zm1.2715.1504c0,.8203.1904,1.479.5708,1.9756s.8896.7451,1.5278.7451c.6426,0,1.1528-.252,1.5312-.7554s.5674-1.209.5674-2.1157c0-.811-.1924-1.4688-.5776-1.9722s-.8965-.7554-1.5347-.7554c-.6245,0-1.1279.2485-1.5107.7451s-.5742,1.2075-.5742,2.1328Z" fill="#2a2b33"/>
    <path d="m47.5359,57.4217l-.793.8271v2.5977h-1.2646v-10.5h1.2646v6.3506l.6768-.8135,2.3037-2.4336h1.5381l-2.8779,3.0898,3.2129,4.3066h-1.4834l-2.5771-3.4248Z" fill="#2a2b33"/>
    <path d="m57.1335,60.1151c-.4922.5786-1.2144.8682-2.167.8682-.7886,0-1.3887-.229-1.8013-.687s-.6211-1.1357-.6255-2.0337v-4.8125h1.2646v4.7783c0,1.1211.4556,1.6816,1.3672,1.6816.9663,0,1.6089-.3599,1.9277-1.0801v-5.3799h1.2646v7.3965h-1.2031l-.0273-.7314Z" fill="#2a2b33"/>
    <path d="m70.1423,60.8465h-6.5215v-.9092l3.4453-3.8281c.5103-.5786.8623-1.0493,1.0562-1.4116s.2905-.7373.2905-1.1245c0-.5195-.1572-.9458-.4717-1.2783s-.7339-.499-1.2578-.499c-.6289,0-1.1177.1787-1.4663.5366s-.5229.8555-.5229,1.4937h-1.2646c0-.916.2949-1.6567.8853-2.2217s1.3799-.8477,2.3687-.8477c.9253,0,1.6567.2427,2.1943.728s.8066,1.1313.8066,1.938c0,.98-.6245,2.1465-1.873,3.5l-2.666,2.8916h4.9971v1.0322Z" fill="#2a2b33"/>
    <path d="m77.7234,56.6014c0,1.481-.2529,2.5815-.7588,3.3018s-1.2964,1.0801-2.3721,1.0801c-1.062,0-1.8481-.3521-2.3584-1.0562s-.7749-1.7559-.793-3.1548v-1.6885c0-1.4629.2529-2.5498.7588-3.2607s1.2988-1.0664,2.3789-1.0664c1.0708,0,1.8594.3428,2.3652,1.0288s.7656,1.7441.7793,3.1753v1.6406Zm-1.2646-1.7295c0-1.0708-.1504-1.8516-.4512-2.3413s-.7769-.7349-1.4287-.7349c-.647,0-1.1187.2437-1.415.7314s-.4487,1.2373-.458,2.249v2.0234c0,1.0757.1562,1.8696.4683,2.3823s.7852.769,1.4185.769c.6245,0,1.0879-.2417,1.3911-.7246s.4614-1.2441.4751-2.2832v-2.0713Z" fill="#2a2b33"/>
    <path d="m81.1824,55.2547h.9502c.5972-.0093,1.0664-.1665,1.4082-.4717s.5127-.7178.5127-1.2373c0-1.1665-.5811-1.75-1.7432-1.75-.5469,0-.9834.1562-1.3091.4683s-.4888.7256-.4888,1.2407h-1.2646c0-.7886.2881-1.4434.8647-1.9653s1.3091-.7827,2.1978-.7827c.939,0,1.6748.2485,2.208.7451s.7998,1.187.7998,2.0713c0,.4331-.1401.8521-.4204,1.2578s-.6621.7085-1.145.9092c.5469.1733.9697.4604,1.2681.8613s.4478.8911.4478,1.4697c0,.8931-.2915,1.6021-.875,2.126s-1.3423.7861-2.2764.7861-1.6943-.2529-2.2798-.7588-.8784-1.1733-.8784-2.0029h1.2715c0,.5239.1709.9434.5127,1.2578s.7998.4717,1.374.4717c.6108,0,1.0776-.1597,1.4014-.4785s.4854-.7769.4854-1.374c0-.5786-.1777-1.0229-.5332-1.333s-.8682-.4692-1.5381-.4785h-.9502v-1.0322Z" fill="#2a2b33"/>
    <path d="m93.446,56.6014c0,1.481-.2529,2.5815-.7588,3.3018s-1.2964,1.0801-2.3721,1.0801c-1.062,0-1.8481-.3521-2.3584-1.0562s-.7749-1.7559-.793-3.1548v-1.6885c0-1.4629.2529-2.5498.7588-3.2607s1.2988-1.0664,2.3789-1.0664c1.0708,0,1.8594.3428,2.3652,1.0288s.7656,1.7441.7793,3.1753v1.6406Zm-1.2646-1.7295c0-1.0708-.1504-1.8516-.4512-2.3413s-.7769-.7349-1.4287-.7349c-.647,0-1.1187.2437-1.415.7314s-.4487,1.2373-.458,2.249v2.0234c0,1.0757.1562,1.8696.4683,2.3823s.7852.769,1.4185.769c.6245,0,1.0879-.2417,1.3911-.7246s.4614-1.2441.4751-2.2832v-2.0713Z" fill="#2a2b33"/>
  </g>
  <circle cx="303.1606" cy="151.6246" r="6.0737" fill="#fff" stroke="#0098eb" stroke-miterlimit="10"/>
  <g>
    <polyline points="140.7544 307.5269 147.1704 306.3651 153.5864 303.8782 160.0024 300.2437 166.4184 294.1646 172.8344 291.6639 179.2504 289.6483 185.6664 280.9283 192.0824 275.7354 198.4983 270.3839 204.9144 270.4027 211.3303 271.0745 217.7463 271.6671 224.1623 270.0806 230.5783 264.9486 236.9943 259.9842 240.648 259.0172" fill="none" stroke="#0032a1" stroke-linecap="round" stroke-miterlimit="10" stroke-width="2"/>
    <path d="m241.2723,261.9635c1.6057-.425,2.563-2.0718,2.138-3.6775-.425-1.6055-2.0717-2.563-3.6773-2.1379-1.6057.425-2.563,2.0715-2.138,3.6772.425,1.6057,2.0717,2.563,3.6773,2.1382Z" fill="#0032a1"/>
  </g>
  <g>
    <rect x="274.4816" y="257.9257" width="38.1977" height="33.4062" fill="#fff"/>
    <g>
      <path d="m287.9665,273.2017h-6.8223v-1.3535l3.2197-3.4316c.4419-.4829.769-.9048.981-1.2646s.3179-.7017.3179-1.0254c0-.4419-.1118-.7896-.335-1.0425s-.5425-.3794-.957-.3794c-.4468,0-.7988.1538-1.0562.4614s-.3862.7119-.3862,1.2134h-1.9824c0-.606.1445-1.1597.4341-1.6611s.6982-.8945,1.2271-1.1792,1.1279-.4272,1.7979-.4272c1.0254,0,1.8218.2461,2.3892.7383s.8511,1.187.8511,2.085c0,.4922-.1274.9937-.3828,1.5039s-.6929,1.105-1.3125,1.7842l-2.2627,2.3857h4.2793v1.5928Z" fill="#aaaaad"/>
      <path d="m295.9988,273.2017h-6.8223v-1.3535l3.2197-3.4316c.4419-.4829.769-.9048.981-1.2646s.3179-.7017.3179-1.0254c0-.4419-.1118-.7896-.335-1.0425s-.5425-.3794-.957-.3794c-.4468,0-.7988.1538-1.0562.4614s-.3862.7119-.3862,1.2134h-1.9824c0-.606.1445-1.1597.4341-1.6611s.6982-.8945,1.2271-1.1792,1.1279-.4272,1.7979-.4272c1.0254,0,1.8218.2461,2.3892.7383s.8511,1.187.8511,2.085c0,.4922-.1274.9937-.3828,1.5039s-.6929,1.105-1.3125,1.7842l-2.2627,2.3857h4.2793v1.5928Z" fill="#aaaaad"/>
      <path d="m300.6677,265.1627c0-.6108.1982-1.1064.5947-1.4868s.916-.5708,1.5586-.5708c.6519,0,1.1758.188,1.5723.564s.5947.8853.5947,1.5278v.4922c0,.6152-.1982,1.1099-.5947,1.4834s-.916.5605-1.5586.5605c-.647,0-1.1699-.188-1.5688-.564s-.5981-.8828-.5981-1.521v-.4854Zm1.3125.5264c0,.2734.0786.4932.2358.6597s.3633.2495.6187.2495.458-.0845.6084-.2529.2256-.394.2256-.6768v-.5059c0-.2734-.0752-.4946-.2256-.6631s-.3579-.2529-.6221-.2529c-.2505,0-.4536.083-.6084.2495s-.2324.3975-.2324.6938v.499Zm1.2441,6.7676l-.9639-.5195,4.8604-7.7793.9639.5195-4.8604,7.7793Zm2.2012-1.6953c0-.6152.2007-1.1108.6016-1.4868s.9204-.564,1.5586-.564c.647,0,1.1699.1855,1.5688.5571s.5981.8828.5981,1.5347v.4922c0,.6108-.1958,1.104-.5879,1.48s-.9136.564-1.5654.564c-.6562,0-1.1826-.189-1.5791-.5674s-.5947-.8794-.5947-1.5039v-.5059Zm1.3125.5332c0,.2505.082.4648.2461.6426s.3691.2666.6152.2666c.5562,0,.834-.3076.834-.9229v-.5195c0-.2734-.0776-.4932-.2324-.6597s-.3599-.2495-.6152-.2495-.4604.083-.6152.2495-.2324.3931-.2324.6802v.5127Z" fill="#aaaaad"/>
      <path d="m227.5203,287.6019h-1.1309l-4.2949-6.5742v6.5742h-1.1309v-8.5312h1.1309l4.3066,6.6035v-6.6035h1.1191v8.5312Z" fill="#aaaaad"/>
      <path d="m231.9792,287.7191c-.8594,0-1.5586-.2822-2.0977-.8467s-.8086-1.3193-.8086-2.2646v-.1992c0-.6289.1201-1.1904.3604-1.6846s.5762-.8809,1.0078-1.1602.8994-.4189,1.4033-.4189c.8242,0,1.4648.2715,1.9219.8145s.6855,1.3203.6855,2.332v.4512h-4.2949c.0156.625.1982,1.1299.5479,1.5146s.7939.5771,1.333.5771c.3828,0,.707-.0781.9727-.2344s.498-.3633.6973-.6211l.6621.5156c-.5312.8164-1.3281,1.2246-2.3906,1.2246Zm-.1348-5.6836c-.4375,0-.8047.1592-1.1016.4775s-.4805.7646-.5508,1.3389h3.1758v-.082c-.0312-.5508-.1797-.9775-.4453-1.2803s-.625-.4541-1.0781-.4541Z" fill="#aaaaad"/>
      <path d="m239.6199,287.6019c-.0625-.125-.1133-.3477-.1523-.668-.5039.5234-1.1055.7852-1.8047.7852-.625,0-1.1377-.1768-1.5381-.5303s-.6006-.8018-.6006-1.3447c0-.6602.251-1.1729.7529-1.5381s1.208-.5479,2.1182-.5479h1.0547v-.498c0-.3789-.1133-.6807-.3398-.9053s-.5605-.3369-1.002-.3369c-.3867,0-.7109.0977-.9727.293s-.3926.4316-.3926.709h-1.0898c0-.3164.1123-.6221.3369-.917s.5293-.5283.9141-.7002.8076-.2578,1.2686-.2578c.7305,0,1.3027.1826,1.7168.5479s.6289.8682.6445,1.5088v2.918c0,.582.0742,1.0449.2227,1.3887v.0938h-1.1367Zm-1.7988-.8262c.3398,0,.6621-.0879.9668-.2637s.5254-.4043.6621-.6855v-1.3008h-.8496c-1.3281,0-1.9922.3887-1.9922,1.166,0,.3398.1133.6055.3398.7969s.5176.2871.873.2871Z" fill="#aaaaad"/>
      <path d="m244.0027,284.6663l-.6797.709v2.2266h-1.084v-9h1.084v5.4434l.5801-.6973,1.9746-2.0859h1.3184l-2.4668,2.6484,2.7539,3.6914h-1.2715l-2.209-2.9355Z" fill="#aaaaad"/>
      <path d="m249.7859,279.7269v1.5352h1.1836v.8379h-1.1836v3.9365c0,.2549.0527.4453.1582.5723s.2852.1904.5391.1904c.125,0,.2969-.0234.5156-.0703v.874c-.2852.0771-.5625.1162-.832.1162-.4844,0-.8496-.1465-1.0957-.4395s-.3691-.709-.3691-1.248v-3.9316h-1.1543v-.8379h1.1543v-1.5352h1.084Z" fill="#aaaaad"/>
      <path d="m256.1492,286.9749c-.4219.4961-1.041.7441-1.8574.7441-.6758,0-1.1904-.1963-1.5439-.5889s-.5322-.9736-.5361-1.7432v-4.125h1.084v4.0957c0,.9609.3906,1.4414,1.1719,1.4414.8281,0,1.3789-.3086,1.6523-.9258v-4.6113h1.084v6.3398h-1.0312l-.0234-.627Z" fill="#aaaaad"/>
      <path d="m262.7644,287.6019c-.0625-.125-.1133-.3477-.1523-.668-.5039.5234-1.1055.7852-1.8047.7852-.625,0-1.1377-.1768-1.5381-.5303s-.6006-.8018-.6006-1.3447c0-.6602.251-1.1729.7529-1.5381s1.208-.5479,2.1182-.5479h1.0547v-.498c0-.3789-.1133-.6807-.3398-.9053s-.5605-.3369-1.002-.3369c-.3867,0-.7109.0977-.9727.293s-.3926.4316-.3926.709h-1.0898c0-.3164.1123-.6221.3369-.917s.5293-.5283.9141-.7002.8076-.2578,1.2686-.2578c.7305,0,1.3027.1826,1.7168.5479s.6289.8682.6445,1.5088v2.918c0,.582.0742,1.0449.2227,1.3887v.0938h-1.1367Zm-1.7988-.8262c.3398,0,.6621-.0879.9668-.2637s.5254-.4043.6621-.6855v-1.3008h-.8496c-1.3281,0-1.9922.3887-1.9922,1.166,0,.3398.1133.6055.3398.7969s.5176.2871.873.2871Zm1.002-8.1738h1.3125l-1.5703,1.7227-.873-.0029,1.1309-1.7197Z" fill="#aaaaad"/>
      <path d="m266.5554,287.6019h-1.084v-9h1.084v9Z" fill="#aaaaad"/>
      <path d="m269.3152,281.262l.0352.7969c.4844-.6094,1.1172-.9141,1.8984-.9141,1.3398,0,2.0156.7559,2.0273,2.2676v4.1895h-1.084v-4.1953c-.0039-.457-.1084-.7949-.3135-1.0137s-.5244-.3281-.958-.3281c-.3516,0-.6602.0938-.9258.2812s-.4727.4336-.6211.7383v4.5176h-1.084v-6.3398h1.0254Z" fill="#aaaaad"/>
      <path d="m276.1003,278.6077h1.3125l-1.5703,1.7227-.873-.0029,1.1309-1.7197Zm-.0117,8.9941h-1.0898v-6.3398h1.0898v6.3398Z" fill="#aaaaad"/>
      <path d="m283.3894,286.8343c.3867,0,.7246-.1172,1.0137-.3516s.4492-.5273.4805-.8789h1.0254c-.0195.3633-.1445.709-.375,1.0371s-.5381.5898-.9229.7852-.792.293-1.2217.293c-.8633,0-1.5498-.2881-2.0596-.8643s-.7646-1.3643-.7646-2.3643v-.1816c0-.6172.1133-1.166.3398-1.6465s.5518-.8535.9756-1.1191.9248-.3984,1.5029-.3984c.7109,0,1.3018.2129,1.7725.6387s.7217.9785.7529,1.6582h-1.0254c-.0312-.4102-.1865-.7471-.4658-1.0107s-.624-.3955-1.0342-.3955c-.5508,0-.9775.1982-1.2803.5947s-.4541.9697-.4541,1.7197v.2051c0,.7305.1504,1.293.4512,1.6875s.7305.5918,1.2891.5918Z" fill="#aaaaad"/>
      <path d="m288.3171,278.6077h1.3125l-1.5703,1.7227-.873-.0029,1.1309-1.7197Zm-.0117,8.9941h-1.0898v-6.3398h1.0898v6.3398Z" fill="#aaaaad"/>
      <path d="m291.2703,287.6019h-1.084v-9h1.084v9Z" fill="#aaaaad"/>
      <path d="m302.4206,284.8948c-.1055.9023-.4385,1.5986-.999,2.0889s-1.3057.7354-2.2354.7354c-1.0078,0-1.8154-.3613-2.4229-1.084s-.9111-1.6895-.9111-2.9004v-.8203c0-.793.1416-1.4902.4248-2.0918s.6846-1.0635,1.2041-1.3857,1.1211-.4834,1.8047-.4834c.9062,0,1.6328.2529,2.1797.7588s.8652,1.2061.9551,2.1006h-1.1309c-.0977-.6816-.3096-1.1748-.6357-1.4805s-.7822-.459-1.3682-.459c-.7188,0-1.2822.2656-1.6904.7979-.4082.5312-.6123,1.2881-.6123,2.2695v.8271c0,.9258.1934,1.6631.5801,2.2109.3867.5469.9277.8203,1.623.8203.625,0,1.1045-.1416,1.4385-.4248s.5557-.7764.665-1.4795h1.1309Zm-3.293-7.3066l.8789-.9958h.9375v.0586l-1.4883,1.6052h-.6621l-1.4707-1.6052v-.0586h.9199l.8848.9958Z" fill="#aaaaad"/>
      <path d="m307.0847,284.1507h-2.0039v3.4512h-1.1309v-8.5312h2.8242c.9609,0,1.7002.2188,2.2178.6562s.7764,1.0742.7764,1.9102c0,.5312-.1436.9941-.4307,1.3887s-.6865.6895-1.1982.8848l2.0039,3.6211v.0703h-1.207l-1.8516-3.4512Zm-2.0039-.9199h1.7285c.5586,0,1.0029-.1445,1.333-.4346.3301-.2891.4951-.6768.4951-1.1621,0-.5283-.1572-.9326-.4717-1.2148-.3145-.2812-.7686-.4248-1.3623-.4287h-1.7227v3.2402Z" fill="#aaaaad"/>
    </g>
  </g>
  <circle cx="303.1606" cy="244.0788" r="11.4489" fill="#fff"/>
  <circle cx="303.1606" cy="244.0788" r="5.9997" fill="#fff" stroke="#aaaaad" stroke-miterlimit="10"/>
  <rect x="123.6615" y="183.6896" width="127.1811" height="51.0191" fill="#fff"/>
  <g>
    <path d="m136.53,191.7706l1.9336-6.416h1.957l-2.9707,8.5312h-1.834l-2.959-8.5312h1.9512l1.9219,6.416Z" fill="#0032a1"/>
    <path d="m147.6628,189.1339c-.2305-.0312-.4336-.0469-.6094-.0469-.6406,0-1.0605.2168-1.2598.6504v4.1484h-1.6934v-6.3398h1.5996l.0469.7559c.3398-.582.8105-.873,1.4121-.873.1875,0,.3633.0254.5273.0762l-.0234,1.6289Z" fill="#0032a1"/>
    <path d="m148.0027,190.6573c0-.6289.1211-1.1895.3633-1.6816s.5908-.873,1.0459-1.1426.9834-.4043,1.585-.4043c.8555,0,1.5537.2617,2.0947.7852s.8428,1.2344.9053,2.1328l.0117.4336c0,.9727-.2715,1.7529-.8145,2.3408s-1.2715.8818-2.1855.8818-1.6436-.293-2.1885-.8789-.8174-1.3828-.8174-2.3906v-.0762Zm1.6934.1201c0,.6025.1133,1.0632.3398,1.3821s.5508.4783.9727.4783c.4102,0,.7305-.1575.9609-.4724s.3457-.8186.3457-1.511c0-.5908-.1152-1.0486-.3457-1.3733s-.5547-.4871-.9727-.4871c-.4141,0-.7344.1614-.9609.4841s-.3398.8225-.3398,1.4993Z" fill="#0032a1"/>
    <path d="m157.6882,192.6378c.3125,0,.5664-.0859.7617-.2578s.2969-.4004.3047-.6855h1.5879c-.0039.4297-.1211.8232-.3516,1.1807s-.5459.6348-.9463.832-.8428.2959-1.3271.2959c-.9062,0-1.6211-.2881-2.1445-.8643s-.7852-1.3721-.7852-2.3877v-.1113c0-.9766.2598-1.7559.7793-2.3379s1.2324-.873,2.1387-.873c.793,0,1.4287.2256,1.9072.6768s.7217,1.0518.7295,1.8018h-1.5879c-.0078-.3298-.1094-.5979-.3047-.804-.1953-.2063-.4531-.3093-.7734-.3093-.3945,0-.6924.1438-.8936.4314-.2012.2874-.3018.7542-.3018,1.3994v.176c0,.6536.0996,1.123.2988,1.4084.1992.2856.502.4285.9082.4285Z" fill="#0032a1"/>
    <path d="m164.2273,194.003c-.9297,0-1.6865-.2852-2.2705-.8555s-.876-1.3301-.876-2.2793v-.1641c0-.6367.123-1.2061.3691-1.708s.5947-.8887,1.0459-1.1602.9658-.4072,1.5439-.4072c.8672,0,1.5498.2734,2.0479.8203s.7471,1.3223.7471,2.3262v.6914h-4.0371c.0547.4141.2197.7461.4951.9961s.624.375,1.0459.375c.6523,0,1.1621-.2363,1.5293-.709l.832.9316c-.2539.3594-.5977.6396-1.0312.8408s-.9141.3018-1.4414.3018Zm-.1934-5.209c-.3359,0-.6084.1138-.8174.3413-.209.2278-.3428.5532-.4014.9771h2.3555v-.1355c-.0078-.3765-.1094-.668-.3047-.8738-.1953-.2061-.4727-.3091-.832-.3091Z" fill="#0032a1"/>
    <path d="m176.5613,193.8858h-5.8477v-1.1602l2.7598-2.9414c.3789-.4141.6592-.7754.8408-1.084s.2725-.6016.2725-.8789c0-.3789-.0957-.6768-.2871-.8936s-.4648-.3252-.8203-.3252c-.3828,0-.6846.1318-.9053.3955s-.3311.6104-.3311,1.04h-1.6992c0-.5195.124-.9941.3721-1.4238s.5986-.7666,1.0518-1.0107.9668-.3662,1.541-.3662c.8789,0,1.5615.2109,2.0479.6328s.7295,1.0176.7295,1.7871c0,.4219-.1094.8516-.3281,1.2891s-.5938.9473-1.125,1.5293l-1.9395,2.0449h3.668v1.3652Z" fill="#0032a1"/>
    <path d="m183.3406,190.3585c0,1.1797-.2441,2.082-.7324,2.707s-1.2031.9375-2.1445.9375c-.9297,0-1.6406-.3066-2.1328-.9199s-.7441-1.4922-.7559-2.6367v-1.5703c0-1.1914.2471-2.0957.7412-2.7129s1.2061-.9258,2.1357-.9258,1.6406.3057,2.1328.917.7441,1.4893.7559,2.6338v1.5703Zm-1.6934-1.7266c0-.7075-.0967-1.2229-.29-1.5454s-.4951-.4839-.9053-.4839c-.3984,0-.6924.1536-.8818.4604s-.29.7869-.3018,1.4399v2.0762c0,.6958.0947,1.2131.2842,1.5513s.4932.5073.9111.5073c.4141,0,.7129-.1621.8965-.4868.1836-.3245.2793-.821.2871-1.4897v-2.0293Z" fill="#0032a1"/>
    <path d="m190.3308,193.8858h-5.8477v-1.1602l2.7598-2.9414c.3789-.4141.6592-.7754.8408-1.084s.2725-.6016.2725-.8789c0-.3789-.0957-.6768-.2871-.8936s-.4648-.3252-.8203-.3252c-.3828,0-.6846.1318-.9053.3955s-.3311.6104-.3311,1.04h-1.6992c0-.5195.124-.9941.3721-1.4238s.5986-.7666,1.0518-1.0107.9668-.3662,1.541-.3662c.8789,0,1.5615.2109,2.0479.6328s.7295,1.0176.7295,1.7871c0,.4219-.1094.8516-.3281,1.2891s-.5938.9473-1.125,1.5293l-1.9395,2.0449h3.668v1.3652Z" fill="#0032a1"/>
    <path d="m195.4812,193.8858h-1.6934v-6.5273l-2.0215.627v-1.377l3.5332-1.2656h.1816v8.543Z" fill="#0032a1"/>
    <path d="m206.8308,190.7862c0,.9688-.2227,1.7471-.668,2.335s-1.043.8818-1.793.8818c-.8008,0-1.4199-.2832-1.8574-.8496l-.0527.7324h-.9961v-9h1.084v3.3574c.4375-.543,1.041-.8145,1.8105-.8145s1.374.291,1.8135.873.6592,1.3789.6592,2.3906v.0938Zm-1.084-.123c0-.7383-.1426-1.3086-.4277-1.7109s-.6953-.6035-1.2305-.6035c-.7148,0-1.2285.332-1.541.9961v2.7422c.332.6641.8496.9961,1.5527.9961.5195,0,.9238-.2012,1.2129-.6035s.4336-1.0078.4336-1.8164Z" fill="#0032a1"/>
    <path d="m210.2058,192.2979l1.4766-4.752h1.1602l-2.5488,7.3184c-.3945,1.0547-1.0215,1.582-1.8809,1.582l-.2051-.0176-.4043-.0762v-.8789l.293.0234c.3672,0,.6533-.0742.8584-.2227s.374-.4199.5068-.8145l.2402-.6445-2.2617-6.2695h1.1836l1.582,4.752Z" fill="#0032a1"/>
    <path d="m214.9871,193.8858h-1.084v-9h1.084v9Z" fill="#0032a1"/>
    <path d="m221.7839,192.4151l1.5703-4.8691h1.1074l-2.2734,6.3398h-.8262l-2.2969-6.3398h1.1074l1.6113,4.8691Z" fill="#0032a1"/>
    <path d="m234.9206,191.1788c-.1055.9023-.4385,1.5986-.999,2.0889s-1.3057.7354-2.2354.7354c-1.0078,0-1.8154-.3613-2.4229-1.084s-.9111-1.6895-.9111-2.9004v-.8203c0-.793.1416-1.4902.4248-2.0918s.6846-1.0635,1.2041-1.3857,1.1211-.4834,1.8047-.4834c.9062,0,1.6328.2529,2.1797.7588s.8652,1.2061.9551,2.1006h-1.1309c-.0977-.6816-.3096-1.1755-.6357-1.481-.3262-.3057-.7822-.4585-1.3682-.4585-.7188,0-1.2822.2659-1.6904.7976s-.6123,1.2881-.6123,2.2693v.8271c0,.9265.1934,1.6636.5801,2.2107.3867.5474.9277.821,1.623.821.625,0,1.1045-.1416,1.4385-.4248s.5557-.7764.665-1.4795h1.1309Zm-3.293-7.3066l.8789-.9961h.9375v.0586l-1.4883,1.6055h-.6621l-1.4707-1.6055v-.0586h.9199l.8848.9961Z" fill="#0032a1"/>
    <path d="m239.5847,190.4346h-2.0039v3.4512h-1.1309v-8.5312h2.8242c.9609,0,1.7002.2188,2.2178.6562s.7764,1.0742.7764,1.9102c0,.5312-.1436.9941-.4307,1.3887s-.6865.6895-1.1982.8848l2.0039,3.6211v.0703h-1.207l-1.8516-3.4512Zm-2.0039-.9199h1.7285c.5586,0,1.0029-.1448,1.333-.4343s.4951-.677.4951-1.1624c0-.5283-.1572-.9331-.4717-1.2151-.3145-.2817-.7686-.4246-1.3623-.4285h-1.7227v3.2402Z" fill="#0032a1"/>
    <path d="m160.1843,208.2857h-1.6934v-6.5273l-2.0215.627v-1.377l3.5332-1.2656h.1816v8.543Z" fill="#0032a1"/>
    <path d="m168.7566,200.6998l-3.2988,7.5859h-1.7871l3.3047-7.166h-4.2422v-1.3652h6.0234v.9453Z" fill="#0032a1"/>
    <path d="m170.3503,210.4244l-.8848-.4629.2109-.3809c.2617-.4766.3965-.9512.4043-1.4238v-1.3125h1.4297l-.0059,1.1719c-.0039.4336-.1133.8711-.3281,1.3125s-.4902.8066-.8262,1.0957Z" fill="#0032a1"/>
    <path d="m178.571,200.6998l-3.2988,7.5859h-1.7871l3.3047-7.166h-4.2422v-1.3652h6.0234v.9453Z" fill="#0032a1"/>
    <path d="m179.6316,201.3951c0-.5234.1699-.9482.5098-1.2744s.7852-.4893,1.3359-.4893c.5586,0,1.0078.1611,1.3477.4834s.5098.7588.5098,1.3096v.4219c0,.5273-.1699.9512-.5098,1.2715s-.7852.4805-1.3359.4805c-.5547,0-1.0029-.1611-1.3447-.4834s-.5127-.7568-.5127-1.3037v-.416Zm1.125.4512c0,.2344.0674.4229.2021.5654s.3115.2139.5303.2139.3926-.0723.5215-.2168.1934-.3379.1934-.5801v-.4336c0-.2344-.0645-.4238-.1934-.5684s-.3066-.2168-.5332-.2168c-.2148,0-.3887.0713-.5215.2139s-.1992.3408-.1992.5947v.4277Zm1.0664,5.8008l-.8262-.4453,4.166-6.668.8262.4453-4.166,6.668Zm1.8867-1.4531c0-.5273.1719-.9521.5156-1.2744s.7891-.4834,1.3359-.4834c.5547,0,1.0029.1592,1.3447.4775s.5127.7568.5127,1.3154v.4219c0,.5234-.168.9463-.5039,1.2686s-.7832.4834-1.3418.4834c-.5625,0-1.0137-.1621-1.3535-.4863s-.5098-.7539-.5098-1.2891v-.4336Zm1.125.457c0,.2148.0703.3984.2109.5508s.3164.2285.5273.2285c.4766,0,.7148-.2637.7148-.791v-.4453c0-.2344-.0664-.4229-.1992-.5654s-.3086-.2139-.5273-.2139-.3945.0713-.5273.2139-.1992.3369-.1992.583v.4395Z" fill="#0032a1"/>
    <path d="m197.28,205.1744c0,.9766-.2217,1.7588-.665,2.3467s-1.042.8818-1.7959.8818c-.6406,0-1.1582-.2227-1.5527-.668v2.9883h-1.6934v-8.7773h1.5703l.0586.6211c.4102-.4922.9453-.7383,1.6055-.7383.7812,0,1.3887.2891,1.8223.8672s.6504,1.375.6504,2.3906v.0879Zm-1.6934-.123c0-.5898-.1045-1.0449-.3135-1.3652s-.5127-.4805-.9111-.4805c-.5312,0-.8965.2031-1.0957.6094v2.5957c.207.418.5762.627,1.1074.627.8086,0,1.2129-.6621,1.2129-1.9863Z" fill="#0032a1"/>
    <path d="m198.0652,205.0572c0-.6289.1211-1.1895.3633-1.6816s.5908-.873,1.0459-1.1426.9834-.4043,1.585-.4043c.8555,0,1.5537.2617,2.0947.7852s.8428,1.2344.9053,2.1328l.0117.4336c0,.9727-.2715,1.7529-.8145,2.3408s-1.2715.8818-2.1855.8818-1.6436-.293-2.1885-.8789-.8174-1.3828-.8174-2.3906v-.0762Zm1.6934.1201c0,.6025.1133,1.0632.3398,1.3821s.5508.4783.9727.4783c.4102,0,.7305-.1575.9609-.4724s.3457-.8186.3457-1.511c0-.5908-.1152-1.0486-.3457-1.3733s-.5547-.4871-.9727-.4871c-.4141,0-.7344.1614-.9609.4841s-.3398.8225-.3398,1.4993Z" fill="#0032a1"/>
    <path d="m204.8503,205.0689c0-.9883.2217-1.7754.665-2.3613s1.0498-.8789,1.8193-.8789c.6172,0,1.127.2305,1.5293.6914v-3.2344h1.6992v9h-1.5293l-.082-.6738c-.4219.5273-.9648.791-1.6289.791-.7461,0-1.3447-.2939-1.7959-.8818s-.6768-1.4053-.6768-2.4521Zm1.6934.126c0,.5947.1035,1.0505.3105,1.3674s.5078.4753.9023.4753c.5234,0,.8926-.2209,1.1074-.6631v-2.5059c-.2109-.4419-.5762-.6631-1.0957-.6631-.8164,0-1.2246.6631-1.2246,1.9893Z" fill="#0032a1"/>
    <path d="m213.7039,208.2857h-1.6934v-6.3398h1.6934v6.3398Zm-.498-8.9121h1.8457l-1.623,1.8164h-1.377l1.1543-1.8164Z" fill="#0032a1"/>
    <path d="m216.9499,208.2857h-1.6992v-9h1.6992v9Z" fill="#0032a1"/>
    <path d="m228.4519,204.2135c0,.8398-.1484,1.5762-.4453,2.209s-.7217,1.1211-1.2744,1.4648-1.1865.5156-1.9014.5156c-.707,0-1.3379-.1699-1.8926-.5098s-.9844-.8252-1.2891-1.4561-.459-1.3564-.4629-2.1768v-.4219c0-.8398.1514-1.5791.4541-2.2178s.7305-1.1289,1.2832-1.4707,1.1846-.5127,1.8955-.5127,1.3428.1709,1.8955.5127.9805.832,1.2832,1.4707.4541,1.376.4541,2.2119v.3809Zm-1.7812-.3867c0-.8945-.1602-1.5742-.4805-2.0391s-.7773-.6973-1.3711-.6973c-.5898,0-1.0449.2295-1.3652.6885s-.4824,1.1318-.4863,2.0186v.416c0,.8711.1602,1.5469.4805,2.0273s.7812.7207,1.3828.7207c.5898,0,1.043-.2314,1.3594-.6943s.4766-1.1377.4805-2.0244v-.416Z" fill="#0032a1"/>
    <path d="m231.4578,206.8736h4.3008v1.4121h-6.498v-1.0312l4.2188-6.0762h-4.2129v-1.4238h6.3984v1.0078l-4.207,6.1113Z" fill="#0032a1"/>
    <path d="m241.9988,204.5885h-3.375v2.2852h3.9609v1.4121h-5.7188v-8.5312h5.707v1.4238h-3.9492v2.0332h3.375v1.377Z" fill="#0032a1"/>
    <path d="m113.5671,216.3458l.0352.7969c.4844-.6094,1.1172-.9141,1.8984-.9141,1.3398,0,2.0156.7559,2.0273,2.2676v4.1895h-1.084v-4.1953c-.0039-.457-.1084-.7949-.3135-1.0137s-.5244-.3281-.958-.3281c-.3516,0-.6602.0938-.9258.2812s-.4727.4336-.6211.7383v4.5176h-1.084v-6.3398h1.0254Z" fill="#0032a1"/>
    <path d="m123.0769,222.6856c-.0625-.125-.1133-.3477-.1523-.668-.5039.5234-1.1055.7852-1.8047.7852-.625,0-1.1377-.1768-1.5381-.5303s-.6006-.8018-.6006-1.3447c0-.6602.251-1.1729.7529-1.5381s1.208-.5479,2.1182-.5479h1.0547v-.498c0-.3789-.1133-.6807-.3398-.9053s-.5605-.3369-1.002-.3369c-.3867,0-.7109.0977-.9727.293s-.3926.4316-.3926.709h-1.0898c0-.3164.1123-.6221.3369-.917s.5293-.5283.9141-.7002.8076-.2578,1.2686-.2578c.7305,0,1.3027.1826,1.7168.5479s.6289.8682.6445,1.5088v2.918c0,.582.0742,1.0449.2227,1.3887v.0938h-1.1367Zm-1.7988-.8262c.3398,0,.6621-.0879.9668-.2637s.5254-.4043.6621-.6855v-1.3008h-.8496c-1.3281,0-1.9922.3887-1.9922,1.166,0,.3398.1133.6055.3398.7969s.5176.2871.873.2871Z" fill="#0032a1"/>
    <path d="m130.4304,219.7501l-.6797.709v2.2266h-1.084v-9h1.084v5.4434l.5801-.6973,1.9746-2.0859h1.3184l-2.4668,2.6484,2.7539,3.6914h-1.2715l-2.209-2.9355Z" fill="#0032a1"/>
    <path d="m134.4558,219.4571c0-.6211.1221-1.1797.3662-1.6758s.584-.8789,1.0195-1.1484.9326-.4043,1.4912-.4043c.8633,0,1.5615.2988,2.0947.8965s.7998,1.3926.7998,2.3848v.0762c0,.6172-.1182,1.1709-.3545,1.6611s-.5742.8721-1.0137,1.1455-.9443.4102-1.5146.4102c-.8594,0-1.5557-.2988-2.0889-.8965s-.7998-1.3887-.7998-2.373v-.0762Zm1.0898.1289c0,.7031.1631,1.2676.4893,1.6934s.7627.6387,1.3096.6387c.5508,0,.9883-.2158,1.3125-.6475s.4863-1.0361.4863-1.8135c0-.6953-.165-1.2588-.4951-1.6904s-.7686-.6475-1.3154-.6475c-.5352,0-.9668.2129-1.2949.6387s-.4922,1.0352-.4922,1.8281Z" fill="#0032a1"/>
    <path d="m142.6121,216.3458l.0352.7969c.4844-.6094,1.1172-.9141,1.8984-.9141,1.3398,0,2.0156.7559,2.0273,2.2676v4.1895h-1.084v-4.1953c-.0039-.457-.1084-.7949-.3135-1.0137s-.5244-.3281-.958-.3281c-.3516,0-.6602.0938-.9258.2812s-.4727.4336-.6211.7383v4.5176h-1.084v-6.3398h1.0254Z" fill="#0032a1"/>
    <path d="m148.2312,222.1173c0-.1875.0557-.3438.167-.4688s.2783-.1875.501-.1875.3916.0625.5068.1875.1729.2812.1729.4688c0,.1797-.0576.3301-.1729.4512s-.2842.1816-.5068.1816-.3896-.0605-.501-.1816-.167-.2715-.167-.4512Z" fill="#0032a1"/>
    <path d="m158.0281,221.004c0-.293-.1104-.5205-.3311-.6826s-.6055-.3018-1.1543-.4189-.9844-.2578-1.3066-.4219-.5605-.3594-.7148-.5859-.2314-.4961-.2314-.8086c0-.5195.2197-.959.6592-1.3184s1.001-.5391,1.6846-.5391c.7188,0,1.3018.1855,1.749.5566s.6709.8457.6709,1.4238h-1.0898c0-.2969-.126-.5527-.3779-.7676s-.5693-.3223-.9521-.3223c-.3945,0-.7031.0859-.9258.2578s-.334.3965-.334.6738c0,.2617.1035.459.3105.5918s.5811.2598,1.1221.3809.9795.2656,1.3154.4336.585.3701.7471.6064.2432.5244.2432.8643c0,.5664-.2266,1.0205-.6797,1.3623s-1.041.5127-1.7637.5127c-.5078,0-.957-.0898-1.3477-.2695s-.6963-.4307-.917-.7529-.3311-.6709-.3311-1.0459h1.084c.0195.3633.165.6514.4365.8643s.6299.3193,1.0752.3193c.4102,0,.7393-.083.9873-.249s.3721-.3877.3721-.665Z" fill="#0032a1"/>
    <path d="m165.8796,219.586c0,.9648-.2207,1.7422-.6621,2.332s-1.0391.8848-1.793.8848c-.7695,0-1.375-.2441-1.8164-.7324v3.0527h-1.084v-8.7773h.9902l.0527.7031c.4414-.5469,1.0547-.8203,1.8398-.8203.7617,0,1.3643.2871,1.8076.8613s.665,1.373.665,2.3965v.0996Zm-1.084-.123c0-.7148-.1523-1.2793-.457-1.6934s-.7227-.6211-1.2539-.6211c-.6562,0-1.1484.291-1.4766.873v3.0293c.3242.5781.8203.8672,1.4883.8672.5195,0,.9326-.2061,1.2393-.6182s.46-1.0244.46-1.8369Z" fill="#0032a1"/>
    <path d="m166.9695,219.4571c0-.6211.1221-1.1797.3662-1.6758s.584-.8789,1.0195-1.1484.9326-.4043,1.4912-.4043c.8633,0,1.5615.2988,2.0947.8965s.7998,1.3926.7998,2.3848v.0762c0,.6172-.1182,1.1709-.3545,1.6611s-.5742.8721-1.0137,1.1455-.9443.4102-1.5146.4102c-.8594,0-1.5557-.2988-2.0889-.8965s-.7998-1.3887-.7998-2.373v-.0762Zm1.0898.1289c0,.7031.1631,1.2676.4893,1.6934s.7627.6387,1.3096.6387c.5508,0,.9883-.2158,1.3125-.6475s.4863-1.0361.4863-1.8135c0-.6953-.165-1.2588-.4951-1.6904s-.7686-.6475-1.3154-.6475c-.5352,0-.9668.2129-1.2949.6387s-.4922,1.0352-.4922,1.8281Z" fill="#0032a1"/>
    <path d="m175.571,214.8106v1.5352h1.1836v.8379h-1.1836v3.9365c0,.2544.0527.4451.1582.572.1055.1272.2852.1907.5391.1907.125,0,.2969-.0234.5156-.0703v.8738c-.2852.0776-.5625.1165-.832.1165-.4844,0-.8496-.1465-1.0957-.4395s-.3691-.709-.3691-1.248v-3.9316h-1.1543v-.8379h1.1543v-1.5352h1.084Z" fill="#0032a1"/>
    <path d="m179.5847,214.6817l.8789-.9961h.9375v.0586l-1.4883,1.6055h-.6621l-1.4707-1.6055v-.0586h.9199l.8848.9961Zm1.5,2.6367c-.1641-.0273-.3418-.041-.5332-.041-.7109,0-1.1934.3027-1.4473.9082v4.5h-1.084v-6.3398h1.0547l.0176.7324c.3555-.5664.8594-.8496,1.5117-.8496.2109,0,.3711.0273.4805.082v1.0078Z" fill="#0032a1"/>
    <path d="m184.6003,222.8028c-.8594,0-1.5586-.2822-2.0977-.8467s-.8086-1.3193-.8086-2.2646v-.1992c0-.6289.1201-1.1904.3604-1.6846s.5762-.8809,1.0078-1.1602.8994-.4189,1.4033-.4189c.8242,0,1.4648.2715,1.9219.8145s.6855,1.3203.6855,2.332v.4512h-4.2949c.0156.625.1982,1.1299.5479,1.5146s.7939.5771,1.333.5771c.3828,0,.707-.0781.9727-.2344s.498-.3633.6973-.6211l.6621.5156c-.5312.8164-1.3281,1.2246-2.3906,1.2246Zm-.1348-5.6836c-.4375,0-.8047.1592-1.1016.4775s-.4805.7646-.5508,1.3389h3.1758v-.082c-.0312-.5508-.1797-.9775-.4453-1.2803s-.625-.4541-1.0781-.4541Z" fill="#0032a1"/>
    <path d="m193.6941,219.586c0,.9688-.2227,1.7471-.668,2.335s-1.043.8818-1.793.8818c-.8008,0-1.4199-.2832-1.8574-.8496l-.0527.7324h-.9961v-9h1.084v3.3574c.4375-.543,1.041-.8145,1.8105-.8145s1.374.291,1.8135.873.6592,1.3789.6592,2.3906v.0938Zm-1.084-.123c0-.7383-.1426-1.3086-.4277-1.7109s-.6953-.6035-1.2305-.6035c-.7148,0-1.2285.332-1.541.9961v2.7422c.332.6641.8496.9961,1.5527.9961.5195,0,.9238-.2012,1.2129-.6035s.4336-1.0078.4336-1.8164Z" fill="#0032a1"/>
    <path d="m197.6902,222.8028c-.8594,0-1.5586-.2822-2.0977-.8467s-.8086-1.3193-.8086-2.2646v-.1992c0-.6289.1201-1.1904.3604-1.6846s.5762-.8809,1.0078-1.1602.8994-.4189,1.4033-.4189c.8242,0,1.4648.2715,1.9219.8145s.6855,1.3203.6855,2.332v.4512h-4.2949c.0156.625.1982,1.1299.5479,1.5146s.7939.5771,1.333.5771c.3828,0,.707-.0781.9727-.2344s.498-.3633.6973-.6211l.6621.5156c-.5312.8164-1.3281,1.2246-2.3906,1.2246Zm-.1465-8.1211l.8789-.9961h.9375v.0586l-1.4883,1.6055h-.6621l-1.4707-1.6055v-.0586h.9199l.8848.9961Zm.0117,2.4375c-.4375,0-.8047.1592-1.1016.4775s-.4805.7646-.5508,1.3389h3.1758v-.082c-.0312-.5508-.1797-.9775-.4453-1.2803s-.625-.4541-1.0781-.4541Z" fill="#0032a1"/>
    <path d="m207.0183,222.8028c-.8594,0-1.5586-.2822-2.0977-.8467s-.8086-1.3193-.8086-2.2646v-.1992c0-.6289.1201-1.1904.3604-1.6846s.5762-.8809,1.0078-1.1602.8994-.4189,1.4033-.4189c.8242,0,1.4648.2715,1.9219.8145s.6855,1.3203.6855,2.332v.4512h-4.2949c.0156.625.1982,1.1299.5479,1.5146s.7939.5771,1.333.5771c.3828,0,.707-.0781.9727-.2344s.498-.3633.6973-.6211l.6621.5156c-.5312.8164-1.3281,1.2246-2.3906,1.2246Zm-.1348-5.6836c-.4375,0-.8047.1592-1.1016.4775s-.4805.7646-.5508,1.3389h3.1758v-.082c-.0312-.5508-.1797-.9775-.4453-1.2803s-.625-.4541-1.0781-.4541Z" fill="#0032a1"/>
    <path d="m211.7703,216.3458l.0352.7969c.4844-.6094,1.1172-.9141,1.8984-.9141,1.3398,0,2.0156.7559,2.0273,2.2676v4.1895h-1.084v-4.1953c-.0039-.457-.1084-.7949-.3135-1.0137s-.5244-.3281-.958-.3281c-.3516,0-.6602.0938-.9258.2812s-.4727.4336-.6211.7383v4.5176h-1.084v-6.3398h1.0254Z" fill="#0032a1"/>
    <path d="m219.9968,222.8028c-.8594,0-1.5586-.2822-2.0977-.8467s-.8086-1.3193-.8086-2.2646v-.1992c0-.6289.1201-1.1904.3604-1.6846s.5762-.8809,1.0078-1.1602.8994-.4189,1.4033-.4189c.8242,0,1.4648.2715,1.9219.8145s.6855,1.3203.6855,2.332v.4512h-4.2949c.0156.625.1982,1.1299.5479,1.5146s.7939.5771,1.333.5771c.3828,0,.707-.0781.9727-.2344s.498-.3633.6973-.6211l.6621.5156c-.5312.8164-1.3281,1.2246-2.3906,1.2246Zm-.1348-5.6836c-.4375,0-.8047.1592-1.1016.4775s-.4805.7646-.5508,1.3389h3.1758v-.082c-.0312-.5508-.1797-.9775-.4453-1.2803s-.625-.4541-1.0781-.4541Z" fill="#0032a1"/>
    <path d="m226.7878,217.3184c-.1641-.0273-.3418-.041-.5332-.041-.7109,0-1.1934.3027-1.4473.9082v4.5h-1.084v-6.3398h1.0547l.0176.7324c.3555-.5664.8594-.8496,1.5117-.8496.2109,0,.3711.0273.4805.082v1.0078Z" fill="#0032a1"/>
    <path d="m227.4148,219.463c0-.9883.2285-1.7744.6855-2.3584s1.0625-.876,1.8164-.876c.7734,0,1.377.2734,1.8105.8203l.0527-.7031h.9902v6.1875c0,.8203-.2432,1.4668-.7295,1.9395s-1.1396.709-1.96.709c-.457,0-.9043-.0977-1.3418-.293s-.7715-.4629-1.002-.8027l.5625-.6504c.4648.5742,1.0332.8613,1.7051.8613.5273,0,.9385-.1484,1.2334-.4453s.4424-.7148.4424-1.2539v-.5449c-.4336.5-1.0254.75-1.7754.75-.7422,0-1.3428-.2988-1.8018-.8965s-.6885-1.4121-.6885-2.4434Zm1.0898.123c0,.7148.1465,1.2764.4395,1.6846s.7031.6123,1.2305.6123c.6836,0,1.1855-.3105,1.5059-.9316v-2.8945c-.332-.6055-.8301-.9082-1.4941-.9082-.5273,0-.9395.2051-1.2363.6152s-.4453,1.0176-.4453,1.8223Z" fill="#0032a1"/>
    <path d="m234.4109,214.6641c0-.1758.0537-.3242.1611-.4453s.2666-.1816.4775-.1816.3711.0605.4805.1816.1641.2695.1641.4453-.0547.3223-.1641.4395-.2695.1758-.4805.1758-.3701-.0586-.4775-.1758-.1611-.2637-.1611-.4395Zm1.1719,8.0215h-1.084v-6.3398h1.084v6.3398Z" fill="#0032a1"/>
    <path d="m239.948,222.8028c-.8594,0-1.5586-.2822-2.0977-.8467s-.8086-1.3193-.8086-2.2646v-.1992c0-.6289.1201-1.1904.3604-1.6846s.5762-.8809,1.0078-1.1602.8994-.4189,1.4033-.4189c.8242,0,1.4648.2715,1.9219.8145s.6855,1.3203.6855,2.332v.4512h-4.2949c.0156.625.1982,1.1299.5479,1.5146s.7939.5771,1.333.5771c.3828,0,.707-.0781.9727-.2344s.498-.3633.6973-.6211l.6621.5156c-.5312.8164-1.3281,1.2246-2.3906,1.2246Zm-.1348-5.6836c-.4375,0-.8047.1592-1.1016.4775s-.4805.7646-.5508,1.3389h3.1758v-.082c-.0312-.5508-.1797-.9775-.4453-1.2803s-.625-.4541-1.0781-.4541Z" fill="#0032a1"/>
  </g>
  <g>
    <line x1="240.6118" y1="226.5826" x2="240.6118" y2="251.7166" fill="none" stroke="#0032a1" stroke-miterlimit="10" stroke-width=".75"/>
    <polygon points="238.7419 251.1695 240.6118 254.4078 242.4817 251.1695 238.7419 251.1695" fill="#0032a1"/>
  </g>
  <g>
    <rect x="196.4344" y="151.2538" width="97.9595" height="22.1284" fill="#fff"/>
    <g>
      <path d="m223.7561,163.7725c-.1055.9023-.4385,1.5986-.999,2.0889s-1.3057.7354-2.2354.7354c-1.0078,0-1.8154-.3613-2.4229-1.084s-.9111-1.6895-.9111-2.9004v-.8203c0-.793.1416-1.4902.4248-2.0918s.6846-1.0635,1.2041-1.3857,1.1211-.4834,1.8047-.4834c.9062,0,1.6328.2529,2.1797.7588s.8652,1.2061.9551,2.1006h-1.1309c-.0977-.6816-.3096-1.1753-.6357-1.481s-.7822-.4585-1.3682-.4585c-.7188,0-1.2822.2656-1.6904.7979-.4082.5312-.6123,1.2881-.6123,2.269v.8271c0,.9263.1934,1.6636.5801,2.2109s.9277.8208,1.623.8208c.625,0,1.1045-.1416,1.4385-.4248s.5557-.7764.665-1.4795h1.1309Z" fill="#0098eb"/>
      <path d="m226.3108,157.4854h1.3125l-1.5703,1.7227-.873-.0029,1.1309-1.7197Zm-.0117,8.9941h-1.0898v-6.3398h1.0898v6.3398Z" fill="#0098eb"/>
      <path d="m229.2639,166.4796h-1.084v-9h1.084v9Z" fill="#0098eb"/>
      <path d="m238.9612,162.5362h-3.6973v3.0234h4.2949v.9199h-5.4199v-8.5312h5.3613v.9199h-4.2363v2.748h3.6973v.9199Z" fill="#0098eb"/>
      <path d="m246.9651,157.9483v5.8008c-.0039.8047-.2568,1.4629-.7588,1.9746s-1.1826.7988-2.042.8613l-.2988.0117c-.9336,0-1.6777-.252-2.2324-.7559s-.8359-1.1973-.8438-2.0801v-5.8125h1.1133v5.7773c0,.6172.1699,1.0967.5098,1.4385s.8242.5127,1.4531.5127c.6367,0,1.124-.1699,1.4619-.5098s.5068-.8184.5068-1.4355v-5.7832h1.1309Z" fill="#0098eb"/>
      <path d="m257.2424,162.7335h1.1279v1.5928h-1.1279v2.1533h-1.9756v-2.1533h-4.0811l-.0889-1.2441,4.1494-6.5557h1.9961v6.207Zm-4.1768,0h2.2012v-3.5137l-.1299.2256-2.0713,3.2881Z" fill="#0098eb"/>
      <path d="m266.2522,166.4796h-6.8223v-1.3535l3.2197-3.4316c.4414-.4829.7686-.9048.9805-1.2646s.3184-.7017.3184-1.0254c0-.4419-.1123-.7896-.335-1.0425-.2236-.2529-.543-.3794-.957-.3794-.4473,0-.7988.1538-1.0566.4614-.2568.3076-.3857.7119-.3857,1.2134h-1.9824c0-.606.1445-1.1597.4336-1.6611.29-.5015.6982-.8945,1.2275-1.1792.5283-.2847,1.1279-.4272,1.7979-.4272,1.0254,0,1.8213.2461,2.3887.7383s.8516,1.187.8516,2.085c0,.4922-.1279.9937-.3828,1.5039-.2559.5103-.6934,1.105-1.3125,1.7842l-2.2627,2.3857h4.2793v1.5928Z" fill="#0098eb"/>
      <path d="m268.0569,168.9747l-1.0322-.54.2461-.4443c.3047-.5562.4619-1.1099.4717-1.6611v-1.5312h1.668l-.0068,1.3672c-.0049.5059-.1328,1.0161-.3828,1.5312-.251.5151-.5723.9409-.9639,1.2783Z" fill="#0098eb"/>
      <path d="m271.1741,161.585l.5742-5.0586h5.5781v1.6475h-3.958l-.2461,2.1396c.4688-.2505.9678-.376,1.4971-.376.9473,0,1.6904.2939,2.2285.8818.5371.5879.8066,1.4106.8066,2.4678,0,.6426-.1357,1.2178-.4072,1.7261-.2705.5083-.6592.9023-1.165,1.1826s-1.1035.4204-1.791.4204c-.6016,0-1.1602-.1221-1.6748-.3657-.5156-.2437-.9219-.5869-1.2207-1.0288-.2979-.4419-.457-.9458-.4746-1.5107h1.9551c.041.4146.1855.7373.4336.9673.249.23.5732.3452.9746.3452.4463,0,.79-.1606,1.0322-.4819.2412-.3213.3623-.7759.3623-1.3638,0-.5649-.1396-.998-.417-1.2988-.2783-.3008-.6729-.4512-1.1826-.4512-.4697,0-.8506.123-1.1416.3691l-.1914.1777-1.5723-.3896Z" fill="#0098eb"/>
      <path d="m282.3713,158.4405c0-.6108.1982-1.1064.5947-1.4868s.916-.5708,1.5586-.5708c.6514,0,1.1758.188,1.5723.564s.5947.8853.5947,1.5278v.4922c0,.6152-.1982,1.1099-.5947,1.4834s-.916.5605-1.5586.5605c-.6475,0-1.1699-.188-1.5693-.564-.3984-.376-.5977-.8828-.5977-1.521v-.4854Zm1.3125.5264c0,.2734.0781.4932.2354.6597s.3633.2495.6191.2495c.2549,0,.458-.0845.6084-.2529s.2256-.394.2256-.6768v-.5059c0-.2734-.0752-.4946-.2256-.6631s-.3584-.2529-.6221-.2529c-.251,0-.4541.083-.6084.2495-.1553.1665-.2324.3975-.2324.6938v.499Zm1.2441,6.7676l-.9639-.5195,4.8604-7.7793.9639.5195-4.8604,7.7793Zm2.2012-1.6953c0-.6152.2002-1.1108.6016-1.4868.4004-.376.9199-.564,1.5586-.564.6465,0,1.1699.1855,1.5684.5571.3994.3716.5986.8828.5986,1.5347v.4922c0,.6108-.1963,1.104-.5879,1.48-.3926.376-.9141.564-1.5654.564-.6562,0-1.1826-.189-1.5791-.5674s-.5947-.8794-.5947-1.5039v-.5059Zm1.3125.5332c0,.2505.082.4648.2461.6426s.3691.2666.6152.2666c.5557,0,.834-.3076.834-.9229v-.5195c0-.2734-.0781-.4932-.2324-.6597-.1553-.1665-.3604-.2495-.6152-.2495-.2559,0-.4609.083-.6152.2495-.1553.1665-.2324.3931-.2324.6802v.5127Z" fill="#0098eb"/>
    </g>
  </g>
</svg>