<?xml version="1.0" encoding="UTF-8"?>
<svg id="Layer_1" data-name="Layer 1" xmlns="http://www.w3.org/2000/svg" viewBox="0 0 330 310.1256">
  <defs>
    <style>
      .cls-1 {
        fill: #0032a1;
      }

      .cls-2, .cls-3 {
        fill: #fff;
      }

      .cls-4 {
        fill: #929497;
      }

      .cls-5 {
        fill: #aaaaad;
      }

      .cls-6 {
        fill: #808184;
      }

      .cls-7 {
        stroke-dasharray: 0 0 4 4;
        stroke-width: .75px;
      }

      .cls-7, .cls-3, .cls-8, .cls-9, .cls-10, .cls-11 {
        stroke-miterlimit: 10;
      }

      .cls-7, .cls-3, .cls-11 {
        stroke: #aaaaad;
      }

      .cls-7, .cls-8, .cls-9, .cls-10, .cls-11 {
        fill: none;
      }

      .cls-8 {
        stroke: #0032a1;
        stroke-linecap: round;
        stroke-width: 2px;
      }

      .cls-9 {
        stroke: #ccc;
      }

      .cls-9, .cls-10, .cls-11 {
        stroke-width: .5px;
      }

      .cls-10 {
        stroke: #d0d2d3;
      }
    </style>
  </defs>
  <g>
    <path class="cls-10" d="m43.1773,243.029h259.9506"/>
    <path class="cls-10" d="m43.1773,207.156h259.9506"/>
    <path class="cls-10" d="m43.1773,171.2829h259.9506"/>
    <path class="cls-10" d="m43.1773,136.0392h259.9506"/>
    <path class="cls-10" d="m43.1773,278.2727h259.9506"/>
    <path class="cls-10" d="m43.1773,100.1661h259.9506"/>
    <path class="cls-10" d="m43.1773,64.9224h259.9506"/>
  </g>
  <line class="cls-7" x1="241.0135" y1="125.9139" x2="303.773" y2="137.4489"/>
  <g>
    <path class="cls-4" d="m10.3512,68.1889h-1.0898v-7.2246l-2.1855.8027v-.9844l3.1055-1.166h.1699v8.5723Z"/>
    <path class="cls-4" d="m16.9958,63.9116l.4336-4.2539h4.3711v1.002h-3.4512l-.2578,2.3262c.418-.2461.8926-.3691,1.4238-.3691.7773,0,1.3945.2568,1.8516.7705s.6855,1.208.6855,2.083c0,.8789-.2373,1.5713-.7119,2.0771s-1.1377.7588-1.9893.7588c-.7539,0-1.3691-.209-1.8457-.627s-.748-.9961-.8145-1.7344h1.0254c.0664.4883.2402.8564.5215,1.1045s.6523.3721,1.1133.3721c.5039,0,.8994-.1719,1.1865-.5156s.4307-.8184.4307-1.4238c0-.5703-.1553-1.0283-.4658-1.374s-.7236-.5186-1.2393-.5186c-.4727,0-.8438.1035-1.1133.3105l-.2871.2344-.8672-.2227Z"/>
    <path class="cls-4" d="m28.5856,64.5503c0,1.2695-.2168,2.2129-.6504,2.8301s-1.1113.9258-2.0332.9258c-.9102,0-1.584-.3018-2.0215-.9053s-.6641-1.5049-.6797-2.7041v-1.4473c0-1.2539.2168-2.1855.6504-2.7949s1.1133-.9141,2.0391-.9141c.918,0,1.5938.2939,2.0273.8818s.6562,1.4951.668,2.7217v1.4062Zm-1.084-1.4824c0-.918-.1289-1.5869-.3867-2.0068s-.666-.6299-1.2246-.6299c-.5547,0-.959.209-1.2129.627s-.3848,1.0605-.3926,1.9277v1.7344c0,.9219.1338,1.6025.4014,2.042s.6729.6592,1.2158.6592c.5352,0,.9326-.207,1.1924-.6211s.3955-1.0664.4072-1.957v-1.7754Z"/>
    <path class="cls-4" d="m35.3239,64.5503c0,1.2695-.2168,2.2129-.6504,2.8301s-1.1113.9258-2.0332.9258c-.9102,0-1.584-.3018-2.0215-.9053s-.6641-1.5049-.6797-2.7041v-1.4473c0-1.2539.2168-2.1855.6504-2.7949s1.1133-.9141,2.0391-.9141c.918,0,1.5938.2939,2.0273.8818s.6562,1.4951.668,2.7217v1.4062Zm-1.084-1.4824c0-.918-.1289-1.5869-.3867-2.0068s-.666-.6299-1.2246-.6299c-.5547,0-.959.209-1.2129.627s-.3848,1.0605-.3926,1.9277v1.7344c0,.9219.1338,1.6025.4014,2.042s.6729.6592,1.2158.6592c.5352,0,.9326-.207,1.1924-.6211s.3955-1.0664.4072-1.957v-1.7754Z"/>
    <path class="cls-4" d="m42.0622,64.5503c0,1.2695-.2168,2.2129-.6504,2.8301s-1.1113.9258-2.0332.9258c-.9102,0-1.584-.3018-2.0215-.9053s-.6641-1.5049-.6797-2.7041v-1.4473c0-1.2539.2168-2.1855.6504-2.7949s1.1133-.9141,2.0391-.9141c.918,0,1.5938.2939,2.0273.8818s.6562,1.4951.668,2.7217v1.4062Zm-1.084-1.4824c0-.918-.1289-1.5869-.3867-2.0068s-.666-.6299-1.2246-.6299c-.5547,0-.959.209-1.2129.627s-.3848,1.0605-.3926,1.9277v1.7344c0,.9219.1338,1.6025.4014,2.042s.6729.6592,1.2158.6592c.5352,0,.9326-.207,1.1924-.6211s.3955-1.0664.4072-1.957v-1.7754Z"/>
  </g>
  <g>
    <path class="cls-4" d="m8.3376,140.5388h-1.0898v-7.2246l-2.1855.8027v-.9844l3.1055-1.166h.1699v8.5723Z"/>
    <path class="cls-4" d="m19.8336,136.9001c0,1.2695-.2168,2.2129-.6504,2.8301s-1.1113.9258-2.0332.9258c-.9102,0-1.584-.3018-2.0215-.9053s-.6641-1.5049-.6797-2.7041v-1.4473c0-1.2539.2168-2.1855.6504-2.7949s1.1133-.9141,2.0391-.9141c.918,0,1.5938.2939,2.0273.8818s.6562,1.4951.668,2.7217v1.4062Zm-1.084-1.4824c0-.918-.1289-1.5869-.3867-2.0068s-.666-.6299-1.2246-.6299c-.5547,0-.959.209-1.2129.627s-.3848,1.0605-.3926,1.9277v1.7344c0,.9219.1338,1.6025.4014,2.042s.6729.6592,1.2158.6592c.5352,0,.9326-.207,1.1924-.6211s.3955-1.0664.4072-1.957v-1.7754Z"/>
    <path class="cls-4" d="m26.5719,136.9001c0,1.2695-.2168,2.2129-.6504,2.8301s-1.1113.9258-2.0332.9258c-.9102,0-1.584-.3018-2.0215-.9053s-.6641-1.5049-.6797-2.7041v-1.4473c0-1.2539.2168-2.1855.6504-2.7949s1.1133-.9141,2.0391-.9141c.918,0,1.5938.2939,2.0273.8818s.6562,1.4951.668,2.7217v1.4062Zm-1.084-1.4824c0-.918-.1289-1.5869-.3867-2.0068s-.666-.6299-1.2246-.6299c-.5547,0-.959.209-1.2129.627s-.3848,1.0605-.3926,1.9277v1.7344c0,.9219.1338,1.6025.4014,2.042s.6729.6592,1.2158.6592c.5352,0,.9326-.207,1.1924-.6211s.3955-1.0664.4072-1.957v-1.7754Z"/>
    <path class="cls-4" d="m33.3102,136.9001c0,1.2695-.2168,2.2129-.6504,2.8301s-1.1113.9258-2.0332.9258c-.9102,0-1.584-.3018-2.0215-.9053s-.6641-1.5049-.6797-2.7041v-1.4473c0-1.2539.2168-2.1855.6504-2.7949s1.1133-.9141,2.0391-.9141c.918,0,1.5938.2939,2.0273.8818s.6562,1.4951.668,2.7217v1.4062Zm-1.084-1.4824c0-.918-.1289-1.5869-.3867-2.0068s-.666-.6299-1.2246-.6299c-.5547,0-.959.209-1.2129.627s-.3848,1.0605-.3926,1.9277v1.7344c0,.9219.1338,1.6025.4014,2.042s.6729.6592,1.2158.6592c.5352,0,.9326-.207,1.1924-.6211s.3955-1.0664.4072-1.957v-1.7754Z"/>
  </g>
  <g>
    <path class="cls-4" d="m14.9821,207.3782l.4336-4.2539h4.3711v1.002h-3.4512l-.2578,2.3262c.418-.2461.8926-.3691,1.4238-.3691.7773,0,1.3945.2568,1.8516.7705s.6855,1.208.6855,2.083c0,.8789-.2373,1.5713-.7119,2.0771s-1.1377.7588-1.9893.7588c-.7539,0-1.3691-.209-1.8457-.627s-.748-.9961-.8145-1.7344h1.0254c.0664.4883.2402.8564.5215,1.1045s.6523.3721,1.1133.3721c.5039,0,.8994-.1719,1.1865-.5156s.4307-.8184.4307-1.4238c0-.5703-.1553-1.0283-.4658-1.374s-.7236-.5186-1.2393-.5186c-.4727,0-.8438.1035-1.1133.3105l-.2871.2344-.8672-.2227Z"/>
    <path class="cls-4" d="m26.5719,208.0168c0,1.2695-.2168,2.2129-.6504,2.8301s-1.1113.9258-2.0332.9258c-.9102,0-1.584-.3018-2.0215-.9053s-.6641-1.5049-.6797-2.7041v-1.4473c0-1.2539.2168-2.1855.6504-2.7949s1.1133-.9141,2.0391-.9141c.918,0,1.5938.2939,2.0273.8818s.6562,1.4951.668,2.7217v1.4062Zm-1.084-1.4824c0-.918-.1289-1.5869-.3867-2.0068s-.666-.6299-1.2246-.6299c-.5547,0-.959.209-1.2129.627s-.3848,1.0605-.3926,1.9277v1.7344c0,.9219.1338,1.6025.4014,2.042s.6729.6592,1.2158.6592c.5352,0,.9326-.207,1.1924-.6211s.3955-1.0664.4072-1.957v-1.7754Z"/>
    <path class="cls-4" d="m33.3102,208.0168c0,1.2695-.2168,2.2129-.6504,2.8301s-1.1113.9258-2.0332.9258c-.9102,0-1.584-.3018-2.0215-.9053s-.6641-1.5049-.6797-2.7041v-1.4473c0-1.2539.2168-2.1855.6504-2.7949s1.1133-.9141,2.0391-.9141c.918,0,1.5938.2939,2.0273.8818s.6562,1.4951.668,2.7217v1.4062Zm-1.084-1.4824c0-.918-.1289-1.5869-.3867-2.0068s-.666-.6299-1.2246-.6299c-.5547,0-.959.209-1.2129.627s-.3848,1.0605-.3926,1.9277v1.7344c0,.9219.1338,1.6025.4014,2.042s.6729.6592,1.2158.6592c.5352,0,.9326-.207,1.1924-.6211s.3955-1.0664.4072-1.957v-1.7754Z"/>
  </g>
  <g>
    <path class="cls-4" d="m19.9918,167.8606l-3.5332,7.9219h-1.1367l3.5215-7.6406h-4.6172v-.8906h5.7656v.6094Z"/>
    <path class="cls-4" d="m21.7204,171.5051l.4336-4.2539h4.3711v1.002h-3.4512l-.2578,2.3262c.418-.2461.8926-.3691,1.4238-.3691.7773,0,1.3945.2568,1.8516.7705s.6855,1.208.6855,2.083c0,.8789-.2373,1.5713-.7119,2.0771s-1.1377.7588-1.9893.7588c-.7539,0-1.3691-.209-1.8457-.627s-.748-.9961-.8145-1.7344h1.0254c.0664.4883.2402.8564.5215,1.1045s.6523.3721,1.1133.3721c.5039,0,.8994-.1719,1.1865-.5156s.4307-.8184.4307-1.4238c0-.5703-.1553-1.0283-.4658-1.374s-.7236-.5186-1.2393-.5186c-.4727,0-.8438.1035-1.1133.3105l-.2871.2344-.8672-.2227Z"/>
    <path class="cls-4" d="m33.3102,172.1438c0,1.2695-.2168,2.2129-.6504,2.8301s-1.1113.9258-2.0332.9258c-.9102,0-1.584-.3018-2.0215-.9053s-.6641-1.5049-.6797-2.7041v-1.4473c0-1.2539.2168-2.1855.6504-2.7949s1.1133-.9141,2.0391-.9141c.918,0,1.5938.2939,2.0273.8818s.6562,1.4951.668,2.7217v1.4062Zm-1.084-1.4824c0-.918-.1289-1.5869-.3867-2.0068s-.666-.6299-1.2246-.6299c-.5547,0-.959.209-1.2129.627s-.3848,1.0605-.3926,1.9277v1.7344c0,.9219.1338,1.6025.4014,2.042s.6729.6592,1.2158.6592c.5352,0,.9326-.207,1.1924-.6211s.3955-1.0664.4072-1.957v-1.7754Z"/>
  </g>
  <g>
    <path class="cls-4" d="m8.3376,105.3313h-1.0898v-7.2246l-2.1855.8027v-.9844l3.1055-1.166h.1699v8.5723Z"/>
    <path class="cls-4" d="m20.0739,105.3313h-5.5898v-.7793l2.9531-3.2812c.4375-.4961.7393-.8994.9053-1.21s.249-.6318.249-.9639c0-.4453-.1348-.8105-.4043-1.0957s-.6289-.4277-1.0781-.4277c-.5391,0-.958.1533-1.2568.46s-.4482.7334-.4482,1.2803h-1.084c0-.7852.2529-1.4199.7588-1.9043s1.1826-.7266,2.0303-.7266c.793,0,1.4199.208,1.8809.624s.6914.9697.6914,1.6611c0,.8398-.5352,1.8398-1.6055,3l-2.2852,2.4785h4.2832v.8848Z"/>
    <path class="cls-4" d="m21.7204,101.0539l.4336-4.2539h4.3711v1.002h-3.4512l-.2578,2.3262c.418-.2461.8926-.3691,1.4238-.3691.7773,0,1.3945.2568,1.8516.7705s.6855,1.208.6855,2.083c0,.8789-.2373,1.5713-.7119,2.0771s-1.1377.7588-1.9893.7588c-.7539,0-1.3691-.209-1.8457-.627s-.748-.9961-.8145-1.7344h1.0254c.0664.4883.2402.8564.5215,1.1045s.6523.3721,1.1133.3721c.5039,0,.8994-.1719,1.1865-.5156s.4307-.8184.4307-1.4238c0-.5703-.1553-1.0283-.4658-1.374s-.7236-.5186-1.2393-.5186c-.4727,0-.8438.1035-1.1133.3105l-.2871.2344-.8672-.2227Z"/>
    <path class="cls-4" d="m33.3102,101.6926c0,1.2695-.2168,2.2129-.6504,2.8301s-1.1113.9258-2.0332.9258c-.9102,0-1.584-.3018-2.0215-.9053s-.6641-1.5049-.6797-2.7041v-1.4473c0-1.2539.2168-2.1855.6504-2.7949s1.1133-.9141,2.0391-.9141c.918,0,1.5938.2939,2.0273.8818s.6562,1.4951.668,2.7217v1.4062Zm-1.084-1.4824c0-.918-.1289-1.5869-.3867-2.0068s-.666-.6299-1.2246-.6299c-.5547,0-.959.209-1.2129.627s-.3848,1.0605-.3926,1.9277v1.7344c0,.9219.1338,1.6025.4014,2.042s.6729.6592,1.2158.6592c.5352,0,.9326-.207,1.1924-.6211s.3955-1.0664.4072-1.957v-1.7754Z"/>
  </g>
  <g>
    <path class="cls-4" d="m20.0739,247.5283h-5.5898v-.7793l2.9531-3.2812c.4375-.4961.7393-.8994.9053-1.21s.249-.6318.249-.9639c0-.4453-.1348-.8105-.4043-1.0957s-.6289-.4277-1.0781-.4277c-.5391,0-.958.1533-1.2568.46s-.4482.7334-.4482,1.2803h-1.084c0-.7852.2529-1.4199.7588-1.9043s1.1826-.7266,2.0303-.7266c.793,0,1.4199.208,1.8809.624s.6914.9697.6914,1.6611c0,.8398-.5352,1.8398-1.6055,3l-2.2852,2.4785h4.2832v.8848Z"/>
    <path class="cls-4" d="m21.7204,243.251l.4336-4.2539h4.3711v1.002h-3.4512l-.2578,2.3262c.418-.2461.8926-.3691,1.4238-.3691.7773,0,1.3945.2568,1.8516.7705s.6855,1.208.6855,2.083c0,.8789-.2373,1.5713-.7119,2.0771s-1.1377.7588-1.9893.7588c-.7539,0-1.3691-.209-1.8457-.627s-.748-.9961-.8145-1.7344h1.0254c.0664.4883.2402.8564.5215,1.1045s.6523.3721,1.1133.3721c.5039,0,.8994-.1719,1.1865-.5156s.4307-.8184.4307-1.4238c0-.5703-.1553-1.0283-.4658-1.374s-.7236-.5186-1.2393-.5186c-.4727,0-.8438.1035-1.1133.3105l-.2871.2344-.8672-.2227Z"/>
    <path class="cls-4" d="m33.3102,243.8896c0,1.2695-.2168,2.2129-.6504,2.8301s-1.1113.9258-2.0332.9258c-.9102,0-1.584-.3018-2.0215-.9053s-.6641-1.5049-.6797-2.7041v-1.4473c0-1.2539.2168-2.1855.6504-2.7949s1.1133-.9141,2.0391-.9141c.918,0,1.5938.2939,2.0273.8818s.6562,1.4951.668,2.7217v1.4062Zm-1.084-1.4824c0-.918-.1289-1.5869-.3867-2.0068s-.666-.6299-1.2246-.6299c-.5547,0-.959.209-1.2129.627s-.3848,1.0605-.3926,1.9277v1.7344c0,.9219.1338,1.6025.4014,2.042s.6729.6592,1.2158.6592c.5352,0,.9326-.207,1.1924-.6211s.3955-1.0664.4072-1.957v-1.7754Z"/>
  </g>
  <path class="cls-4" d="m33.3102,279.1338c0,1.2695-.2168,2.2129-.6504,2.8301s-1.1113.9258-2.0332.9258c-.9102,0-1.584-.3018-2.0215-.9053s-.6641-1.5049-.6797-2.7041v-1.4473c0-1.2539.2168-2.1855.6504-2.7949s1.1133-.9141,2.0391-.9141c.918,0,1.5938.2939,2.0273.8818s.6562,1.4951.668,2.7217v1.4062Zm-1.084-1.4824c0-.918-.1289-1.5869-.3867-2.0068s-.666-.6299-1.2246-.6299c-.5547,0-.959.209-1.2129.627s-.3848,1.0605-.3926,1.9277v1.7344c0,.9219.1338,1.6025.4014,2.042s.6729.6592,1.2158.6592c.5352,0,.9326-.207,1.1924-.6211s.3955-1.0664.4072-1.957v-1.7754Z"/>
  <g>
    <path class="cls-6" d="m33.1227,33.7829h-1.0898v-7.2246l-2.1855.8027v-.9844l3.1055-1.166h.1699v8.5723Z"/>
    <path class="cls-6" d="m40.4528,30.0329c-.2266.2695-.4971.4863-.8115.6504s-.6592.2461-1.0342.2461c-.4922,0-.9209-.1211-1.2861-.3633s-.6475-.583-.8467-1.0225-.2988-.9248-.2988-1.4561c0-.5703.1084-1.084.3252-1.541s.5244-.8066.9229-1.0488.8633-.3633,1.3945-.3633c.8438,0,1.5088.3154,1.9951.9463s.7295,1.4912.7295,2.5811v.3164c0,1.6602-.3281,2.8721-.9844,3.6357s-1.6465,1.1553-2.9707,1.1748h-.2109v-.9199h.2285c.8945-.0156,1.582-.2485,2.0625-.6987s.7422-1.1626.7852-2.1372Zm-1.6699,0c.3633,0,.6982-.1113,1.0049-.334s.5303-.498.6709-.8262v-.4336c0-.7109-.1543-1.2891-.4629-1.7344s-.6992-.668-1.1719-.668c-.4766,0-.8594.1826-1.1484.5479s-.4336.8467-.4336,1.4443c0,.582.1396,1.0615.4189,1.4385s.6533.5654,1.1221.5654Z"/>
    <path class="cls-6" d="m47.1911,30.0329c-.2266.2695-.4971.4863-.8115.6504s-.6592.2461-1.0342.2461c-.4922,0-.9209-.1211-1.2861-.3633s-.6475-.583-.8467-1.0225-.2988-.9248-.2988-1.4561c0-.5703.1084-1.084.3252-1.541s.5244-.8066.9229-1.0488.8633-.3633,1.3945-.3633c.8438,0,1.5088.3154,1.9951.9463s.7295,1.4912.7295,2.5811v.3164c0,1.6602-.3281,2.8721-.9844,3.6357s-1.6465,1.1553-2.9707,1.1748h-.2109v-.9199h.2285c.8945-.0156,1.582-.2485,2.0625-.6987s.7422-1.1626.7852-2.1372Zm-1.6699,0c.3633,0,.6982-.1113,1.0049-.334s.5303-.498.6709-.8262v-.4336c0-.7109-.1543-1.2891-.4629-1.7344s-.6992-.668-1.1719-.668c-.4766,0-.8594.1826-1.1484.5479s-.4336.8467-.4336,1.4443c0,.582.1396,1.0615.4189,1.4385s.6533.5654,1.1221.5654Z"/>
    <path class="cls-6" d="m55.1247,30.1443c0,1.2695-.2168,2.2129-.6504,2.8301s-1.1113.9258-2.0332.9258c-.9102,0-1.584-.3018-2.0215-.9053s-.6641-1.5049-.6797-2.7041v-1.4473c0-1.2539.2168-2.1855.6504-2.7949s1.1133-.9141,2.0391-.9141c.918,0,1.5938.2939,2.0273.8818s.6562,1.4951.668,2.7217v1.4062Zm-1.084-1.4824c0-.918-.1289-1.5869-.3867-2.0068s-.666-.6299-1.2246-.6299c-.5547,0-.959.209-1.2129.627s-.3848,1.0605-.3926,1.9277v1.7344c0,.9219.1338,1.6025.4014,2.042s.6729.6592,1.2158.6592c.5352,0,.9326-.207,1.1924-.6211s.3955-1.0664.4072-1.957v-1.7754Z"/>
  </g>
  <g>
    <path class="cls-6" d="m296.2331,33.7781h-5.8477v-1.1602l2.7598-2.9414c.3789-.4141.6592-.7754.8408-1.084s.2725-.6016.2725-.8789c0-.3789-.0957-.6768-.2871-.8936s-.4648-.3252-.8203-.3252c-.3828,0-.6846.1318-.9053.3955s-.3311.6104-.3311,1.04h-1.6992c0-.5195.124-.9941.3721-1.4238s.5986-.7666,1.0518-1.0107.9668-.3662,1.541-.3662c.8789,0,1.5615.2109,2.0479.6328s.7295,1.0176.7295,1.7871c0,.4219-.1094.8516-.3281,1.2891s-.5938.9473-1.125,1.5293l-1.9395,2.0449h3.668v1.3652Z"/>
    <path class="cls-6" d="m303.0124,30.2507c0,1.1797-.2441,2.082-.7324,2.707s-1.2031.9375-2.1445.9375c-.9297,0-1.6406-.3066-2.1328-.9199s-.7441-1.4922-.7559-2.6367v-1.5703c0-1.1914.2471-2.0957.7412-2.7129s1.2061-.9258,2.1357-.9258,1.6406.3057,2.1328.917.7441,1.4893.7559,2.6338v1.5703Zm-1.6934-1.7266c0-.7075-.0967-1.2227-.29-1.5454s-.4951-.4839-.9053-.4839c-.3984,0-.6924.1533-.8818.4604s-.29.7866-.3018,1.4399v2.0762c0,.6958.0947,1.2129.2842,1.5513s.4932.5073.9111.5073c.4141,0,.7129-.1621.8965-.4868.1836-.3242.2793-.8208.2871-1.4897v-2.0293Z"/>
    <path class="cls-6" d="m305.8776,28.7624h.9023c.4297,0,.748-.1074.9551-.3223s.3105-.5.3105-.8555c0-.3438-.1025-.6113-.3076-.8027s-.4873-.2871-.8467-.2871c-.3242,0-.5957.0889-.8145.2666s-.3281.4092-.3281.6943h-1.6934c0-.4453.1201-.8447.3604-1.1982s.5762-.6299,1.0078-.8291.9072-.2988,1.4268-.2988c.9023,0,1.6094.2158,2.1211.6475s.7676,1.0264.7676,1.7842c0,.3906-.1191.75-.3574,1.0781s-.5508.5801-.9375.7559c.4805.1719.8389.4297,1.0752.7734s.3545.75.3545,1.2188c0,.7578-.2764,1.3652-.8291,1.8223s-1.2842.6855-2.1943.6855c-.8516,0-1.5479-.2246-2.0889-.6738s-.8115-1.043-.8115-1.7812h1.6934c0,.3203.1201.582.3604.7852s.5361.3047.8877.3047c.4023,0,.7178-.1064.9463-.3193s.3428-.4951.3428-.8467c0-.8516-.4688-1.2773-1.4062-1.2773h-.8965v-1.3242Z"/>
    <path class="cls-6" d="m316.7819,30.2507c0,1.1797-.2441,2.082-.7324,2.707s-1.2031.9375-2.1445.9375c-.9297,0-1.6406-.3066-2.1328-.9199s-.7441-1.4922-.7559-2.6367v-1.5703c0-1.1914.2471-2.0957.7412-2.7129s1.2061-.9258,2.1357-.9258,1.6406.3057,2.1328.917.7441,1.4893.7559,2.6338v1.5703Zm-1.6934-1.7266c0-.7075-.0967-1.2227-.29-1.5454s-.4951-.4839-.9053-.4839c-.3984,0-.6924.1533-.8818.4604s-.29.7866-.3018,1.4399v2.0762c0,.6958.0947,1.2129.2842,1.5513s.4932.5073.9111.5073c.4141,0,.7129-.1621.8965-.4868.1836-.3242.2793-.8208.2871-1.4897v-2.0293Z"/>
  </g>
  <g>
    <path class="cls-6" d="m237.7301,33.7781h-5.5898v-.7793l2.9531-3.2812c.4375-.4961.7393-.8994.9053-1.21s.249-.6318.249-.9639c0-.4453-.1348-.8105-.4043-1.0957s-.6289-.4277-1.0781-.4277c-.5391,0-.958.1533-1.2568.46s-.4482.7334-.4482,1.2803h-1.084c0-.7852.2529-1.4199.7588-1.9043s1.1826-.7266,2.0303-.7266c.793,0,1.4199.208,1.8809.624s.6914.9697.6914,1.6611c0,.8398-.5352,1.8398-1.6055,3l-2.2852,2.4785h4.2832v.8848Z"/>
    <path class="cls-6" d="m244.2282,30.1394c0,1.2695-.2168,2.2129-.6504,2.8301s-1.1113.9258-2.0332.9258c-.9102,0-1.584-.3018-2.0215-.9053s-.6641-1.5049-.6797-2.7041v-1.4473c0-1.2539.2168-2.1855.6504-2.7949s1.1133-.9141,2.0391-.9141c.918,0,1.5938.2939,2.0273.8818s.6562,1.4951.668,2.7217v1.4062Zm-1.084-1.4824c0-.918-.1289-1.5869-.3867-2.0068s-.666-.6299-1.2246-.6299c-.5547,0-.959.209-1.2129.627s-.3848,1.0605-.3926,1.9277v1.7344c0,.9219.1338,1.6025.4014,2.042s.6729.6592,1.2158.6592c.5352,0,.9326-.207,1.1924-.6211s.3955-1.0664.4072-1.957v-1.7754Z"/>
    <path class="cls-6" d="m251.2067,33.7781h-5.5898v-.7793l2.9531-3.2812c.4375-.4961.7393-.8994.9053-1.21s.249-.6318.249-.9639c0-.4453-.1348-.8105-.4043-1.0957s-.6289-.4277-1.0781-.4277c-.5391,0-.958.1533-1.2568.46s-.4482.7334-.4482,1.2803h-1.084c0-.7852.2529-1.4199.7588-1.9043s1.1826-.7266,2.0303-.7266c.793,0,1.4199.208,1.8809.624s.6914.9697.6914,1.6611c0,.8398-.5352,1.8398-1.6055,3l-2.2852,2.4785h4.2832v.8848Z"/>
    <path class="cls-6" d="m255.9176,33.7781h-1.0898v-7.2246l-2.1855.8027v-.9844l3.1055-1.166h.1699v8.5723Z"/>
  </g>
  <path class="cls-11" d="m43.1773,41.846v7.5426"/>
  <path class="cls-11" d="m303.128,41.846v7.5426"/>
  <path class="cls-11" d="m243.024,41.846v7.5426"/>
  <g>
    <rect class="cls-2" x="213.6312" y="160.8457" width="102.5666" height="27.6919"/>
    <g>
      <path class="cls-5" d="m273.2863,157.897c-.5151.5059-1.1167.7588-1.8047.7588-.8794,0-1.5835-.3018-2.1123-.9058s-.793-1.4185-.793-2.4438c0-.6519.1426-1.25.4272-1.7944s.6826-.9683,1.1929-1.2715,1.0845-.4546,1.7227-.4546c.6562,0,1.2397.1641,1.75.4922s.9067.7998,1.1895,1.415.4263,1.3193.4307,2.1123v.7314c0,1.6587-.4126,2.9624-1.2373,3.9102s-1.9937,1.4536-3.5068,1.5176l-.4854.0068v-1.6475l.4375-.0068c1.7183-.0776,2.6479-.8843,2.7891-2.4199Zm-1.3193-.752c.3188,0,.5938-.082.8237-.2461s.4043-.3623.5229-.5947v-.8135c0-.6699-.1274-1.1895-.3828-1.5586s-.5972-.5537-1.0254-.5537c-.3965,0-.7222.1812-.9775.5435s-.3828.8169-.3828,1.3638c0,.5425.124.9878.3726,1.3364s.5981.5229,1.0493.5229Z"/>
      <path class="cls-5" d="m281.3185,157.897c-.5151.5059-1.1167.7588-1.8047.7588-.8794,0-1.5835-.3018-2.1123-.9058s-.793-1.4185-.793-2.4438c0-.6519.1426-1.25.4272-1.7944s.6826-.9683,1.1929-1.2715,1.0845-.4546,1.7227-.4546c.6562,0,1.2397.1641,1.75.4922s.9067.7998,1.1895,1.415.4263,1.3193.4307,2.1123v.7314c0,1.6587-.4126,2.9624-1.2373,3.9102s-1.9937,1.4536-3.5068,1.5176l-.4854.0068v-1.6475l.4375-.0068c1.7183-.0776,2.6479-.8843,2.7891-2.4199Zm-1.3193-.752c.3188,0,.5938-.082.8237-.2461s.4043-.3623.5229-.5947v-.8135c0-.6699-.1274-1.1895-.3828-1.5586s-.5972-.5537-1.0254-.5537c-.3965,0-.7222.1812-.9775.5435s-.3828.8169-.3828,1.3638c0,.5425.124.9878.3726,1.3364s.5981.5229,1.0493.5229Z"/>
      <path class="cls-5" d="m291.4289,157.7602c0,1.3765-.2847,2.4292-.8545,3.1582s-1.4038,1.0938-2.502,1.0938c-1.0845,0-1.9141-.3579-2.4883-1.0732s-.8682-1.7407-.8818-3.0762v-1.832c0-1.3901.2881-2.4448.8647-3.165s1.4072-1.0801,2.4917-1.0801,1.9141.3564,2.4883,1.0698.8682,1.7373.8818,3.0728v1.832Zm-1.9756-2.0142c0-.8257-.1128-1.4268-.3384-1.8032s-.5776-.5645-1.0562-.5645c-.4648,0-.8076.1792-1.0288.5371-.2212.3584-.3384.918-.3521,1.6797v2.4224c0,.812.1104,1.4155.3315,1.8101s.5752.5918,1.063.5918c.4829,0,.8315-.1895,1.0459-.5679s.3257-.958.335-1.7383v-2.3672Z"/>
      <path class="cls-5" d="m298.5109,158.3686v3.5068h-2.0508v-9.9531h3.8828c.7476,0,1.4048.1367,1.9722.4102s1.0039.6621,1.3091,1.1655.458,1.0767.458,1.7192c0,.9751-.334,1.7441-1.0015,2.3071s-1.5918.8442-2.772.8442h-1.7979Zm0-1.6611h1.832c.5425,0,.9561-.1274,1.2407-.3828s.4272-.6196.4272-1.0938c0-.4878-.1436-.8818-.4307-1.1826s-.6836-.4556-1.1895-.4648h-1.8799v3.124Z"/>
      <path class="cls-5" d="m308.2453,151.9223h2.0508v6.8906c0,.6333-.1401,1.1929-.4204,1.6782s-.6758.8604-1.186,1.1245-1.0869.3965-1.7295.3965c-1.0527,0-1.873-.2676-2.4609-.8032s-.8818-1.293-.8818-2.2729h2.0645c0,.4878.1025.8477.3076,1.0801s.5288.3486.9707.3486c.3921,0,.7041-.1343.9365-.4033s.3486-.6519.3486-1.1484v-6.8906Z"/>
      <path class="cls-5" d="m256.215,170.4126c0-.8828.1182-1.7305.3545-2.543s.5889-1.5508,1.0576-2.2148.9551-1.1328,1.459-1.4062l.2227.7148c-.5703.4375-1.0381,1.1055-1.4033,2.0039s-.5654,1.9043-.6006,3.0176l-.0059.498c0,1.5078.2754,2.8164.8262,3.9258.332.6641.7266,1.1836,1.1836,1.5586l-.2227.6621c-.5195-.2891-1.0156-.7734-1.4883-1.4531-.9219-1.3281-1.3828-2.916-1.3828-4.7637Z"/>
      <path class="cls-5" d="m265.8361,173.8755h-5.5898v-.7793l2.9531-3.2812c.4375-.4961.7393-.8994.9053-1.21s.249-.6318.249-.9639c0-.4453-.1348-.8105-.4043-1.0957s-.6289-.4277-1.0781-.4277c-.5391,0-.958.1533-1.2568.46s-.4482.7334-.4482,1.2803h-1.084c0-.7852.2529-1.4199.7588-1.9043s1.1826-.7266,2.0303-.7266c.793,0,1.4199.208,1.8809.624s.6914.9697.6914,1.6611c0,.8398-.5352,1.8398-1.6055,3l-2.2852,2.4785h4.2832v.8848Z"/>
      <path class="cls-5" d="m272.4923,165.9536l-3.5332,7.9219h-1.1367l3.5215-7.6406h-4.6172v-.8906h5.7656v.6094Z"/>
      <path class="cls-5" d="m274.2209,169.5981l.4336-4.2539h4.3711v1.002h-3.4512l-.2578,2.3262c.418-.2461.8926-.3691,1.4238-.3691.7773,0,1.3945.2568,1.8516.7705s.6855,1.208.6855,2.083c0,.8789-.2373,1.5713-.7119,2.0771s-1.1377.7588-1.9893.7588c-.7539,0-1.3691-.209-1.8457-.627s-.748-.9961-.8145-1.7344h1.0254c.0664.4883.2402.8564.5215,1.1045s.6523.3721,1.1133.3721c.5039,0,.8994-.1719,1.1865-.5156s.4307-.8184.4307-1.4238c0-.5703-.1553-1.0283-.4658-1.374s-.7236-.5186-1.2393-.5186c-.4727,0-.8438.1035-1.1133.3105l-.2871.2344-.8672-.2227Z"/>
      <path class="cls-5" d="m289.3732,166.2641h-2.7422v7.6113h-1.1191v-7.6113h-2.7363v-.9199h6.5977v.9199Z"/>
      <path class="cls-5" d="m292.5666,171.186l.1641,1.125.2402-1.0137,1.6875-5.9531h.9492l1.6465,5.9531.2344,1.0312.1816-1.1484,1.3242-5.8359h1.1309l-2.0684,8.5312h-1.0254l-1.7578-6.2168-.1348-.6504-.1348.6504-1.8223,6.2168h-1.0254l-2.0625-8.5312h1.125l1.3477,5.8418Z"/>
      <path class="cls-5" d="m302.2873,168.3032c.4805-.5898,1.1055-.8848,1.875-.8848,1.3398,0,2.0156.7559,2.0273,2.2676v4.1895h-1.084v-4.1953c-.0039-.457-.1084-.7949-.3135-1.0137s-.5244-.3281-.958-.3281c-.3516,0-.6602.0938-.9258.2812s-.4727.4336-.6211.7383v4.5176h-1.084v-9h1.084v3.4277Z"/>
      <path class="cls-5" d="m310.3146,170.4712c0,.8711-.1143,1.7061-.3428,2.5049s-.5781,1.5361-1.0488,2.2119-.9639,1.1562-1.4795,1.4414l-.2285-.6621c.6016-.4609,1.085-1.1768,1.4502-2.1475s.5518-2.0479.5596-3.2314v-.1875c0-.8203-.0859-1.583-.2578-2.2881s-.4111-1.3369-.7178-1.8955-.6514-.9941-1.0342-1.3066l.2285-.6621c.5156.2852,1.0068.7617,1.4736,1.4297s.8164,1.4043,1.0488,2.209.3486,1.666.3486,2.584Z"/>
      <path class="cls-5" d="m228.3302,188.2754h-1.1309l-4.2949-6.5742v6.5742h-1.1309v-8.5312h1.1309l4.3066,6.6035v-6.6035h1.1191v8.5312Z"/>
      <path class="cls-5" d="m232.7892,188.3926c-.8594,0-1.5586-.2822-2.0977-.8467s-.8086-1.3193-.8086-2.2646v-.1992c0-.6289.1201-1.1904.3604-1.6846s.5762-.8809,1.0078-1.1602.8994-.4189,1.4033-.4189c.8242,0,1.4648.2715,1.9219.8145s.6855,1.3203.6855,2.332v.4512h-4.2949c.0156.625.1982,1.1299.5479,1.5146s.7939.5771,1.333.5771c.3828,0,.707-.0781.9727-.2344s.498-.3633.6973-.6211l.6621.5156c-.5312.8164-1.3281,1.2246-2.3906,1.2246Zm-.1348-5.6836c-.4375,0-.8047.1592-1.1016.4775s-.4805.7646-.5508,1.3389h3.1758v-.082c-.0312-.5508-.1797-.9775-.4453-1.2803s-.625-.4541-1.0781-.4541Z"/>
      <path class="cls-5" d="m240.4298,188.2754c-.0625-.125-.1133-.3477-.1523-.668-.5039.5234-1.1055.7852-1.8047.7852-.625,0-1.1377-.1768-1.5381-.5303s-.6006-.8018-.6006-1.3447c0-.6602.251-1.1729.7529-1.5381s1.208-.5479,2.1182-.5479h1.0547v-.498c0-.3789-.1133-.6807-.3398-.9053s-.5605-.3369-1.002-.3369c-.3867,0-.7109.0977-.9727.293s-.3926.4316-.3926.709h-1.0898c0-.3164.1123-.6221.3369-.917s.5293-.5283.9141-.7002.8076-.2578,1.2686-.2578c.7305,0,1.3027.1826,1.7168.5479s.6289.8682.6445,1.5088v2.918c0,.582.0742,1.0449.2227,1.3887v.0938h-1.1367Zm-1.7988-.8262c.3398,0,.6621-.0879.9668-.2637s.5254-.4043.6621-.6855v-1.3008h-.8496c-1.3281,0-1.9922.3887-1.9922,1.166,0,.3398.1133.6055.3398.7969s.5176.2871.873.2871Z"/>
      <path class="cls-5" d="m244.8126,185.3398l-.6797.709v2.2266h-1.084v-9h1.084v5.4434l.5801-.6973,1.9746-2.0859h1.3184l-2.4668,2.6484,2.7539,3.6914h-1.2715l-2.209-2.9355Z"/>
      <path class="cls-5" d="m250.5959,180.4004v1.5352h1.1836v.8379h-1.1836v3.9365c0,.2544.0527.4448.1582.5723.1055.127.2852.1904.5391.1904.125,0,.2969-.0234.5156-.0703v.874c-.2852.0771-.5625.1162-.832.1162-.4844,0-.8496-.1465-1.0957-.4395s-.3691-.709-.3691-1.248v-3.9316h-1.1543v-.8379h1.1543v-1.5352h1.084Z"/>
      <path class="cls-5" d="m256.9591,187.6484c-.4219.4961-1.041.7441-1.8574.7441-.6758,0-1.1904-.1963-1.5439-.5889s-.5322-.9736-.5361-1.7432v-4.125h1.084v4.0957c0,.9609.3906,1.4414,1.1719,1.4414.8281,0,1.3789-.3086,1.6523-.9258v-4.6113h1.084v6.3398h-1.0312l-.0234-.627Z"/>
      <path class="cls-5" d="m263.5744,188.2754c-.0625-.125-.1133-.3477-.1523-.668-.5039.5234-1.1055.7852-1.8047.7852-.625,0-1.1377-.1768-1.5381-.5303s-.6006-.8018-.6006-1.3447c0-.6602.251-1.1729.7529-1.5381s1.208-.5479,2.1182-.5479h1.0547v-.498c0-.3789-.1133-.6807-.3398-.9053s-.5605-.3369-1.002-.3369c-.3867,0-.7109.0977-.9727.293s-.3926.4316-.3926.709h-1.0898c0-.3164.1123-.6221.3369-.917s.5293-.5283.9141-.7002.8076-.2578,1.2686-.2578c.7305,0,1.3027.1826,1.7168.5479s.6289.8682.6445,1.5088v2.918c0,.582.0742,1.0449.2227,1.3887v.0938h-1.1367Zm-1.7988-.8262c.3398,0,.6621-.0879.9668-.2637s.5254-.4043.6621-.6855v-1.3008h-.8496c-1.3281,0-1.9922.3887-1.9922,1.166,0,.3398.1133.6055.3398.7969s.5176.2871.873.2871Zm1.002-8.1738h1.3125l-1.5703,1.7227-.873-.0029,1.1309-1.7197Z"/>
      <path class="cls-5" d="m267.3654,188.2754h-1.084v-9h1.084v9Z"/>
      <path class="cls-5" d="m270.1251,181.9355l.0352.7969c.4844-.6094,1.1172-.9141,1.8984-.9141,1.3398,0,2.0156.7559,2.0273,2.2676v4.1895h-1.084v-4.1953c-.0039-.457-.1084-.7949-.3135-1.0137s-.5244-.3281-.958-.3281c-.3516,0-.6602.0938-.9258.2812s-.4727.4336-.6211.7383v4.5176h-1.084v-6.3398h1.0254Z"/>
      <path class="cls-5" d="m276.9103,179.2812h1.3125l-1.5703,1.7227-.873-.0029,1.1309-1.7197Zm-.0117,8.9941h-1.0898v-6.3398h1.0898v6.3398Z"/>
      <path class="cls-5" d="m284.1994,187.5078c.3867,0,.7246-.1172,1.0137-.3516s.4492-.5273.4805-.8789h1.0254c-.0195.3633-.1445.709-.375,1.0371s-.5381.5898-.9229.7852-.792.293-1.2217.293c-.8633,0-1.5498-.2881-2.0596-.8643s-.7646-1.3643-.7646-2.3643v-.1816c0-.6172.1133-1.166.3398-1.6465s.5518-.8535.9756-1.1191.9248-.3984,1.5029-.3984c.7109,0,1.3018.2129,1.7725.6387s.7217.9785.7529,1.6582h-1.0254c-.0312-.4102-.1865-.7471-.4658-1.0107s-.624-.3955-1.0342-.3955c-.5508,0-.9775.1982-1.2803.5947s-.4541.9697-.4541,1.7197v.2051c0,.7305.1504,1.293.4512,1.6875s.7305.5918,1.2891.5918Z"/>
      <path class="cls-5" d="m289.1271,179.2812h1.3125l-1.5703,1.7227-.873-.0029,1.1309-1.7197Zm-.0117,8.9941h-1.0898v-6.3398h1.0898v6.3398Z"/>
      <path class="cls-5" d="m292.0802,188.2754h-1.084v-9h1.084v9Z"/>
      <path class="cls-5" d="m303.2306,185.5683c-.1055.9023-.4385,1.5986-.999,2.0889s-1.3057.7354-2.2354.7354c-1.0078,0-1.8154-.3613-2.4229-1.084s-.9111-1.6895-.9111-2.9004v-.8203c0-.793.1416-1.4902.4248-2.0918s.6846-1.0635,1.2041-1.3857,1.1211-.4834,1.8047-.4834c.9062,0,1.6328.2529,2.1797.7588s.8652,1.2061.9551,2.1006h-1.1309c-.0977-.6816-.3096-1.1753-.6357-1.481s-.7822-.4585-1.3682-.4585c-.7188,0-1.2822.2656-1.6904.7979-.4082.5312-.6123,1.2881-.6123,2.269v.8271c0,.9263.1934,1.6636.5801,2.2109s.9277.8208,1.623.8208c.625,0,1.1045-.1416,1.4385-.4248s.5557-.7764.665-1.4795h1.1309Zm-3.293-7.3066l.8789-.9961h.9375v.0586l-1.4883,1.6055h-.6621l-1.4707-1.6055v-.0586h.9199l.8848.9961Z"/>
      <path class="cls-5" d="m307.8947,184.8242h-2.0039v3.4512h-1.1309v-8.5312h2.8242c.9609,0,1.7002.2188,2.2178.6562s.7764,1.0742.7764,1.9102c0,.5312-.1436.9941-.4307,1.3887s-.6865.6895-1.1982.8848l2.0039,3.6211v.0703h-1.207l-1.8516-3.4512Zm-2.0039-.9199h1.7285c.5586,0,1.0029-.1445,1.333-.4346.3301-.2896.4951-.6768.4951-1.1621,0-.5283-.1572-.9331-.4717-1.2148s-.7686-.4248-1.3623-.4287h-1.7227v3.2402Z"/>
    </g>
  </g>
  <path class="cls-9" d="m43.1773,278.2727h259.9506"/>
  <path class="cls-9" d="m43.1773,64.9224h259.9506"/>
  <circle class="cls-2" cx="303.1606" cy="137.4489" r="10.5349"/>
  <circle class="cls-3" cx="303.1606" cy="137.4489" r="5.9997"/>
  <rect class="cls-2" x="36.4659" y="57.6531" width="123.1247" height="17.078"/>
  <g>
    <path class="cls-4" d="m44.2067,65.6611c0,.9648-.2207,1.7422-.6621,2.332s-1.0391.8848-1.793.8848c-.7695,0-1.375-.2441-1.8164-.7324v3.0527h-1.084v-8.7773h.9902l.0527.7031c.4414-.5469,1.0547-.8203,1.8398-.8203.7617,0,1.3643.2871,1.8076.8613s.665,1.373.665,2.3965v.0996Zm-1.084-.123c0-.7148-.1523-1.2793-.457-1.6934s-.7227-.6211-1.2539-.6211c-.6562,0-1.1484.291-1.4766.873v3.0293c.3242.5781.8203.8672,1.4883.8672.5195,0,.9326-.2061,1.2393-.6182s.46-1.0244.46-1.8369Z"/>
    <path class="cls-4" d="m48.2145,68.8779c-.8594,0-1.5586-.2822-2.0977-.8467s-.8086-1.3193-.8086-2.2646v-.1992c0-.6289.1201-1.1904.3604-1.6846s.5762-.8809,1.0078-1.1602.8994-.4189,1.4033-.4189c.8242,0,1.4648.2715,1.9219.8145s.6855,1.3203.6855,2.332v.4512h-4.2949c.0156.625.1982,1.1299.5479,1.5146s.7939.5771,1.333.5771c.3828,0,.707-.0781.9727-.2344s.498-.3633.6973-.6211l.6621.5156c-.5312.8164-1.3281,1.2246-2.3906,1.2246Zm-.1348-5.6836c-.4375,0-.8047.1592-1.1016.4775s-.4805.7646-.5508,1.3389h3.1758v-.082c-.0312-.5508-.1797-.9775-.4453-1.2803s-.625-.4541-1.0781-.4541Z"/>
    <path class="cls-4" d="m53.4118,60.8857v1.5352h1.1836v.8379h-1.1836v3.9365c0,.2544.0527.4448.1582.5723.1055.127.2852.1904.5391.1904.125,0,.2969-.0234.5156-.0703v.874c-.2852.0771-.5625.1162-.832.1162-.4844,0-.8496-.1465-1.0957-.4395s-.3691-.709-.3691-1.248v-3.9316h-1.1543v-.8379h1.1543v-1.5352h1.084Z"/>
    <path class="cls-4" d="m59.7751,68.7607c-.0625-.125-.1133-.3477-.1523-.668-.5039.5234-1.1055.7852-1.8047.7852-.625,0-1.1377-.1768-1.5381-.5303s-.6006-.8018-.6006-1.3447c0-.6602.251-1.1729.7529-1.5381s1.208-.5479,2.1182-.5479h1.0547v-.498c0-.3789-.1133-.6807-.3398-.9053s-.5605-.3369-1.002-.3369c-.3867,0-.7109.0977-.9727.293s-.3926.4316-.3926.709h-1.0898c0-.3164.1123-.6221.3369-.917s.5293-.5283.9141-.7002.8076-.2578,1.2686-.2578c.7305,0,1.3027.1826,1.7168.5479s.6289.8682.6445,1.5088v2.918c0,.582.0742,1.0449.2227,1.3887v.0938h-1.1367Zm-1.7988-.8262c.3398,0,.6621-.0879.9668-.2637s.5254-.4043.6621-.6855v-1.3008h-.8496c-1.3281,0-1.9922.3887-1.9922,1.166,0,.3398.1133.6055.3398.7969s.5176.2871.873.2871Z"/>
    <path class="cls-4" d="m63.5075,62.4209v7.0723c0,1.2188-.5527,1.8281-1.6582,1.8281-.2383,0-.459-.0352-.6621-.105v-.8618c.125.0312.2891.0469.4922.0469.2422,0,.4268-.0654.5537-.1963s.1904-.3589.1904-.6831v-7.1011h1.084Zm-1.1953-1.6816c0-.1719.0537-.3193.1611-.4424s.2646-.1846.4717-.1846c.2109,0,.3711.0605.4805.1816s.1641.2695.1641.4453-.0547.3223-.1641.4395-.2695.1758-.4805.1758-.3691-.0586-.4746-.1758-.1582-.2637-.1582-.4395Z"/>
    <path class="cls-4" d="m64.9665,65.5322c0-.6211.1221-1.1797.3662-1.6758s.584-.8789,1.0195-1.1484.9326-.4043,1.4912-.4043c.8633,0,1.5615.2988,2.0947.8965s.7998,1.3926.7998,2.3848v.0762c0,.6172-.1182,1.1709-.3545,1.6611s-.5742.8721-1.0137,1.1455-.9443.4102-1.5146.4102c-.8594,0-1.5557-.2988-2.0889-.8965s-.7998-1.3887-.7998-2.373v-.0762Zm1.0898.1289c0,.7031.1631,1.2676.4893,1.6934s.7627.6387,1.3096.6387c.5508,0,.9883-.2158,1.3125-.6475s.4863-1.0361.4863-1.8135c0-.6953-.165-1.2588-.4951-1.6904s-.7686-.6475-1.3154-.6475c-.5352,0-.9668.2129-1.2949.6387s-.4922,1.0352-.4922,1.8281Z"/>
    <path class="cls-4" d="m76.0114,68.1338c-.4219.4961-1.041.7441-1.8574.7441-.6758,0-1.1904-.1963-1.5439-.5889s-.5322-.9736-.5361-1.7432v-4.125h1.084v4.0957c0,.9609.3906,1.4414,1.1719,1.4414.8281,0,1.3789-.3086,1.6523-.9258v-4.6113h1.084v6.3398h-1.0312l-.0234-.627Z"/>
    <path class="cls-4" d="m79.8903,68.7607h-1.084v-9h1.084v9Z"/>
    <path class="cls-4" d="m85.5387,68.1338c-.4219.4961-1.041.7441-1.8574.7441-.6758,0-1.1904-.1963-1.5439-.5889s-.5322-.9736-.5361-1.7432v-4.125h1.084v4.0957c0,.9609.3906,1.4414,1.1719,1.4414.8281,0,1.3789-.3086,1.6523-.9258v-4.6113h1.084v6.3398h-1.0312l-.0234-.627Zm-.1523-7.6875c0,.3398-.1211.624-.3633.8525s-.541.3428-.8965.3428c-.3594,0-.6592-.1152-.8994-.3457s-.3604-.5137-.3604-.8496.1201-.623.3604-.8613.54-.3574.8994-.3574.6592.1191.8994.3574.3604.5254.3604.8613Zm-1.9395,0c0,.1836.0654.3418.1963.4746s.292.1992.4834.1992c.1875,0,.3477-.0645.4805-.1934s.1992-.2891.1992-.4805-.0654-.3545-.1963-.4893-.292-.2021-.4834-.2021c-.1953,0-.3574.0684-.4863.2051s-.1934.2988-.1934.4863Z"/>
    <path class="cls-4" d="m91.1696,65.2978c0-.8828.1182-1.7305.3545-2.543s.5889-1.5508,1.0576-2.2148.9551-1.1328,1.459-1.4062l.2227.7148c-.5703.4375-1.0381,1.1055-1.4033,2.0039s-.5654,1.9043-.6006,3.0176l-.0059.498c0,1.5078.2754,2.8164.8262,3.9258.332.6641.7266,1.1836,1.1836,1.5586l-.2227.6621c-.5195-.2891-1.0156-.7734-1.4883-1.4531-.9219-1.3281-1.3828-2.916-1.3828-4.7637Z"/>
    <path class="cls-4" d="m99.777,65.8955h1.1836v.8848h-1.1836v1.9805h-1.0898v-1.9805h-3.8848v-.6387l3.8203-5.9121h1.1543v5.666Zm-3.7441,0h2.6543v-4.1836l-.1289.2344-2.5254,3.9492Z"/>
    <path class="cls-4" d="m105.5016,68.7607h-1.0898v-7.2246l-2.1855.8027v-.9844l3.1055-1.166h.1699v8.5723Z"/>
    <path class="cls-4" d="m112.9313,60.2236v.9199h-.1992c-.8438.0156-1.5156.2656-2.0156.75s-.7891,1.166-.8672,2.0449c.4492-.5156,1.0625-.7734,1.8398-.7734.7422,0,1.335.2617,1.7783.7852s.665,1.1992.665,2.0273c0,.8789-.2393,1.582-.7178,2.1094s-1.1201.791-1.9248.791c-.8164,0-1.4785-.3135-1.9863-.9404s-.7617-1.4346-.7617-2.4229v-.416c0-1.5703.335-2.7705,1.0049-3.6006s1.667-1.2549,2.9912-1.2744h.1934Zm-1.4238,3.8438c-.3711,0-.7129.1113-1.0254.334s-.5293.502-.6504.8379v.3984c0,.7031.1582,1.2695.4746,1.6992s.7109.6445,1.1836.6445c.4883,0,.8721-.1797,1.1514-.5391s.4189-.8301.4189-1.4121c0-.5859-.1416-1.0596-.4248-1.4209s-.6592-.542-1.1279-.542Z"/>
    <path class="cls-4" d="m115.4918,70.4599l-.6152-.4219c.3672-.5117.5586-1.0391.5742-1.582v-.9785h1.0605v.8496c0,.3945-.0967.7891-.29,1.1836s-.4365.7109-.7295.9492Z"/>
    <path class="cls-4" d="m123.279,60.8388l-3.5332,7.9219h-1.1367l3.5215-7.6406h-4.6172v-.8906h5.7656v.6094Z"/>
    <path class="cls-4" d="m133.4215,61.1494h-2.7422v7.6113h-1.1191v-7.6113h-2.7363v-.9199h6.5977v.9199Z"/>
    <path class="cls-4" d="m136.6149,66.0713l.1641,1.125.2402-1.0137,1.6875-5.9531h.9492l1.6465,5.9531.2344,1.0312.1816-1.1484,1.3242-5.8359h1.1309l-2.0684,8.5312h-1.0254l-1.7578-6.2168-.1348-.6504-.1348.6504-1.8223,6.2168h-1.0254l-2.0625-8.5312h1.125l1.3477,5.8418Z"/>
    <path class="cls-4" d="m146.3356,63.1885c.4805-.5898,1.1055-.8848,1.875-.8848,1.3398,0,2.0156.7559,2.0273,2.2676v4.1895h-1.084v-4.1953c-.0039-.457-.1084-.7949-.3135-1.0137s-.5244-.3281-.958-.3281c-.3516,0-.6602.0938-.9258.2812s-.4727.4336-.6211.7383v4.5176h-1.084v-9h1.084v3.4277Z"/>
    <path class="cls-4" d="m154.3629,65.3564c0,.8711-.1143,1.7061-.3428,2.5049s-.5781,1.5361-1.0488,2.2119-.9639,1.1562-1.4795,1.4414l-.2285-.6621c.6016-.4609,1.085-1.1768,1.4502-2.1475s.5518-2.0479.5596-3.2314v-.1875c0-.8203-.0859-1.583-.2578-2.2881s-.4111-1.3369-.7178-1.8955-.6514-.9941-1.0342-1.3066l.2285-.6621c.5156.2852,1.0068.7617,1.4736,1.4297s.8164,1.4043,1.0488,2.209.3486,1.666.3486,2.584Z"/>
  </g>
  <g>
    <rect class="cls-2" x="65.8835" y="86.513" width="65.6226" height="20.3328"/>
    <g>
      <path class="cls-1" d="m80.5026,101.7207c0-.332-.1172-.5869-.3516-.7646s-.6562-.3652-1.2656-.5625-1.0918-.3916-1.4473-.583c-.9688-.5234-1.4531-1.2285-1.4531-2.1152,0-.4609.1299-.8721.3896-1.2334s.6328-.6436,1.1191-.8467,1.0322-.3047,1.6377-.3047c.6094,0,1.1523.1104,1.6289.3311s.8467.5322,1.1104.9346.3955.8594.3955,1.3711h-1.7578c0-.3906-.123-.6943-.3691-.9111s-.5918-.3252-1.0371-.3252c-.4297,0-.7637.0908-1.002.2725s-.3574.4209-.3574.7178c0,.2773.1396.5098.4189.6973s.6904.3633,1.2334.5273c1,.3008,1.7285.6738,2.1855,1.1191s.6855,1,.6855,1.6641c0,.7383-.2793,1.3174-.8379,1.7373s-1.3105.6299-2.2559.6299c-.6562,0-1.2539-.1201-1.793-.3604s-.9502-.5693-1.2334-.9873-.4248-.9023-.4248-1.4531h1.7637c0,.9414.5625,1.4121,1.6875,1.4121.418,0,.7441-.085.9785-.2549s.3516-.4072.3516-.7119Z"/>
      <path class="cls-1" d="m85.3717,96.0605v1.5586h1.084v1.2422h-1.084v3.1641c0,.2344.0449.4023.1348.5039s.2617.1523.5156.1523c.1875,0,.3535-.0137.498-.041v1.2832c-.332.1016-.6738.1523-1.0254.1523-1.1875,0-1.793-.5996-1.8164-1.7988v-3.416h-.9258v-1.2422h.9258v-1.5586h1.6934Z"/>
      <path class="cls-1" d="m91.0729,103.959c-.0781-.1523-.1348-.3418-.1699-.5684-.4102.457-.9434.6855-1.5996.6855-.6211,0-1.1357-.1797-1.5439-.5391s-.6123-.8125-.6123-1.3594c0-.6719.249-1.1875.7471-1.5469s1.2178-.541,2.1592-.5449h.7793v-.3633c0-.293-.0752-.5273-.2256-.7031s-.3877-.2637-.7119-.2637c-.2852,0-.5088.0684-.6709.2051s-.2432.3242-.2432.5625h-1.6934c0-.3672.1133-.707.3398-1.0195s.5469-.5576.9609-.7354.8789-.2666,1.3945-.2666c.7812,0,1.4014.1963,1.8604.5889s.6885.9443.6885,1.6553v2.748c.0039.6016.0879,1.0566.252,1.3652v.0996h-1.7109Zm-1.4004-1.1777c.25,0,.4805-.0557.6914-.167s.3672-.2607.4688-.4482v-1.0898h-.6328c-.8477,0-1.2988.293-1.3535.8789l-.0059.0996c0,.2109.0742.3848.2227.5215s.3516.2051.6094.2051Z"/>
      <path class="cls-1" d="m96.1178,101.8906l1.1777-4.2715h1.7695l-2.1387,6.3398h-1.6172l-2.1387-6.3398h1.7695l1.1777,4.2715Z"/>
      <path class="cls-1" d="m105.1706,101.8906l1.1777-4.2715h1.7695l-2.1387,6.3398h-1.6172l-2.1387-6.3398h1.7695l1.1777,4.2715Z"/>
      <path class="cls-1" d="m118.6588,101.1172c-.0664.918-.4053,1.6406-1.0166,2.168s-1.417.791-2.417.791c-1.0938,0-1.9541-.3682-2.5811-1.1045s-.9404-1.7471-.9404-3.0322v-.5215c0-.8203.1445-1.543.4336-2.168s.7021-1.1045,1.2393-1.4385,1.1611-.501,1.8721-.501c.9844,0,1.7773.2637,2.3789.791s.9492,1.2676,1.043,2.2207h-1.7578c-.043-.5508-.1963-.9502-.46-1.1982s-.665-.3721-1.2041-.3721c-.5859,0-1.0244.21-1.3154.6299s-.4404,1.0713-.4482,1.9541v.6445c0,.9219.1396,1.5957.4189,2.0215s.7197.6387,1.3213.6387c.543,0,.9482-.124,1.2158-.3721s.4209-.6318.46-1.1514h1.7578Zm-3.4277-7.1895l.8555-.8379h1.4473v.0645l-1.7695,1.6465h-1.0723l-1.7695-1.6582v-.0527h1.4473l.8613.8379Z"/>
      <path class="cls-1" d="m122.9713,100.8359h-1.4004v3.123h-1.7578v-8.5312h3.1699c1.0078,0,1.7852.2246,2.332.6738s.8203,1.084.8203,1.9043c0,.582-.126,1.0674-.3779,1.4561s-.6338.6982-1.1455.9287l1.8457,3.4863v.082h-1.8867l-1.5996-3.123Zm-1.4004-1.4238h1.418c.4414,0,.7832-.1123,1.0254-.3369s.3633-.5342.3633-.9287c0-.4023-.1143-.7188-.3428-.9492s-.5791-.3457-1.0518-.3457h-1.4121v2.5605Z"/>
    </g>
  </g>
  <g>
    <polyline class="cls-8" points="43.1773 80.0632 49.5983 103.5122 56.0193 106.0412 62.4404 111.1526 68.8614 124.1274 75.2824 126.2851 81.7034 123.2551 88.1244 125.7209 94.5454 132.8525 100.9664 139.3938 107.3875 134.3078 113.8085 130.5303 120.2295 135.1184 126.6505 127.1135 133.0715 125.8865 139.4925 127.5268 145.9136 125.5249 152.3346 129.6108 158.7556 129.727 165.1766 135.7859 171.5976 133.3254 178.0186 139.2463 184.4396 139.3281 190.8607 140.7993 197.2817 145.9778 203.7027 141.0356 210.1237 136.5432 216.5447 130.8769 222.9657 132.7983 229.3868 132.5222 235.8078 136.0058 240.9188 126.0974"/>
    <path class="cls-1" d="m243.523,127.6101c.7614-1.4763.1819-3.2908-1.2942-4.052-1.4761-.7615-3.2906-.1819-4.052,1.2942-.7614,1.4761-.1819,3.2905,1.2943,4.052,1.4761.7615,3.2906.1819,4.052-1.2942Z"/>
  </g>
  <rect class="cls-2" x="213.6312" y="86.513" width="85.9403" height="30.813"/>
  <g>
    <path class="cls-1" d="m228.3151,103.6445h-1.9756v-7.6152l-2.3584.7314v-1.6064l4.1221-1.4766h.2119v9.9668Z"/>
    <path class="cls-1" d="m241.734,99.5293c0,1.3765-.2842,2.4292-.8545,3.1582-.5693.7292-1.4033,1.0938-2.502,1.0938-1.084,0-1.9141-.3577-2.4883-1.0732-.5742-.7153-.8682-1.7407-.8818-3.0762v-1.832c0-1.3899.2881-2.4448.8652-3.165.5762-.72,1.4072-1.0801,2.4912-1.0801,1.085,0,1.9141.3567,2.4883,1.0698.5742.7134.8682,1.7375.8818,3.0728v1.832Zm-1.9756-2.0142c0-.8257-.1123-1.4268-.3379-1.8032-.2256-.3762-.5781-.5645-1.0566-.5645-.4648,0-.8076.1792-1.0283.5371-.2217.3582-.3389.918-.3525,1.6799v2.4221c0,.812.1104,1.4155.332,1.8101.2207.3945.5752.5918,1.0625.5918.4834,0,.832-.1892,1.0459-.5679.2148-.3787.3262-.958.335-1.738v-2.3674Z"/>
    <path class="cls-1" d="m248.4264,93.5888v1.627h-.1914c-.8926.0137-1.6123.2461-2.1562.6973-.5449.4512-.8721,1.0779-.9814,1.8799.5293-.5376,1.1963-.8066,2.0029-.8066.8662,0,1.5547.3101,2.0645.9297.5107.6199.7656,1.4355.7656,2.4473,0,.6472-.1396,1.2329-.4199,1.7568-.2803.5242-.6768.9321-1.1895,1.2236-.5127.2917-1.0928.4375-1.7402.4375-1.0479,0-1.8945-.3645-2.5391-1.0938-.6455-.729-.9678-1.7021-.9678-2.9189v-.7109c0-1.0801.2041-2.0337.6123-2.8608.4072-.8271.9932-1.4673,1.7568-1.9209.7627-.4534,1.6484-.6824,2.6553-.687h.3281Zm-1.9277,4.9902c-.3184,0-.6084.083-.8682.249s-.4512.3855-.5742.6584v.6003c0,.6597.1299,1.1748.3896,1.5454.2598.3708.625.5562,1.0938.5562.4238,0,.7666-.1672,1.0293-.5015.2617-.3342.3926-.7676.3926-1.2998,0-.5413-.1318-.978-.3965-1.3101-.2637-.332-.6191-.498-1.0664-.498Z"/>
    <path class="cls-1" d="m256.944,99.8984h1.1279v1.5928h-1.1279v2.1533h-1.9756v-2.1533h-4.0811l-.0889-1.2441,4.1494-6.5557h1.9961v6.207Zm-4.1768,0h2.2012v-3.5137l-.1299.2256-2.0713,3.2881Z"/>
    <path class="cls-1" d="m264.8805,100.1377v3.5068h-2.0508v-9.9531h3.8828c.748,0,1.4053.1367,1.9727.4102s1.0039.6621,1.3086,1.1655c.3057.5037.458,1.0767.458,1.7192,0,.9753-.334,1.7444-1.001,2.3071-.668.563-1.5918.8442-2.7725.8442h-1.7979Zm0-1.6611h1.832c.543,0,.9561-.1274,1.2412-.3828.2842-.2551.4268-.6196.4268-1.0938,0-.4875-.1436-.8818-.4307-1.1826s-.6836-.4556-1.1895-.4648h-1.8799v3.124Z"/>
    <path class="cls-1" d="m274.6149,93.6914h2.0508v6.8906c0,.6335-.1396,1.1929-.4199,1.6782s-.6758.8604-1.1865,1.1245c-.5098.2642-1.0869.3965-1.7295.3965-1.0527,0-1.873-.2676-2.4609-.8032-.5879-.5354-.8818-1.293-.8818-2.2729h2.0645c0,.4878.1025.8477.3076,1.0801s.5293.3486.9707.3486c.3926,0,.7041-.1343.9365-.4033.2324-.2688.3486-.6516.3486-1.1484v-6.8906Z"/>
    <path class="cls-1" d="m223.6188,112.1816c0-.8828.1182-1.7305.3545-2.543s.5889-1.5508,1.0576-2.2148.9551-1.1328,1.459-1.4062l.2227.7148c-.5703.4375-1.0381,1.1055-1.4033,2.0039s-.5654,1.9043-.6006,3.0176l-.0059.498c0,1.5078.2754,2.8164.8262,3.9258.332.6641.7266,1.1836,1.1836,1.5586l-.2227.6621c-.5195-.2891-1.0156-.7734-1.4883-1.4531-.9219-1.3281-1.3828-2.916-1.3828-4.7637Z"/>
    <path class="cls-1" d="m233.2399,115.6445h-5.5898v-.7793l2.9531-3.2812c.4375-.4961.7393-.8994.9053-1.21s.249-.6318.249-.9639c0-.4453-.1348-.8105-.4043-1.0957s-.6289-.4277-1.0781-.4277c-.5391,0-.958.1533-1.2568.46s-.4482.7334-.4482,1.2803h-1.084c0-.7852.2529-1.4199.7588-1.9043s1.1826-.7266,2.0303-.7266c.793,0,1.4199.208,1.8809.624s.6914.9697.6914,1.6611c0,.8398-.5352,1.8398-1.6055,3l-2.2852,2.4785h4.2832v.8848Z"/>
    <path class="cls-1" d="m238.5426,111.8945c-.2266.2695-.4971.4863-.8115.6504s-.6592.2461-1.0342.2461c-.4922,0-.9209-.1211-1.2861-.3633s-.6475-.583-.8467-1.0225-.2988-.9248-.2988-1.4561c0-.5703.1084-1.084.3252-1.541s.5244-.8066.9229-1.0488.8633-.3633,1.3945-.3633c.8438,0,1.5088.3154,1.9951.9463s.7295,1.4912.7295,2.5811v.3164c0,1.6602-.3281,2.8721-.9844,3.6357s-1.6465,1.1553-2.9707,1.1748h-.2109v-.9199h.2285c.8945-.0156,1.582-.2485,2.0625-.6987s.7422-1.1626.7852-2.1372Zm-1.6699,0c.3633,0,.6982-.1113,1.0049-.334s.5303-.498.6709-.8262v-.4336c0-.7109-.1543-1.2891-.4629-1.7344s-.6992-.668-1.1719-.668c-.4766,0-.8594.1826-1.1484.5479s-.4336.8467-.4336,1.4443c0,.582.1396,1.0615.4189,1.4385s.6533.5654,1.1221.5654Z"/>
    <path class="cls-1" d="m241.6247,111.3672l.4336-4.2539h4.3711v1.002h-3.4512l-.2578,2.3262c.418-.2461.8926-.3691,1.4238-.3691.7773,0,1.3945.2568,1.8516.7705s.6855,1.208.6855,2.083c0,.8789-.2373,1.5713-.7119,2.0771s-1.1377.7588-1.9893.7588c-.7539,0-1.3691-.209-1.8457-.627s-.748-.9961-.8145-1.7344h1.0254c.0664.4883.2402.8564.5215,1.1045s.6523.3721,1.1133.3721c.5039,0,.8994-.1719,1.1865-.5156s.4307-.8184.4307-1.4238c0-.5703-.1553-1.0283-.4658-1.374s-.7236-.5186-1.2393-.5186c-.4727,0-.8438.1035-1.1133.3105l-.2871.2344-.8672-.2227Z"/>
    <path class="cls-1" d="m247.9411,117.3437l-.6152-.4219c.3672-.5117.5586-1.0391.5742-1.582v-.9785h1.0605v.8496c0,.3945-.0967.7891-.29,1.1836s-.4365.7109-.7295.9492Z"/>
    <path class="cls-1" d="m254.4743,107.1074v.9199h-.1992c-.8438.0156-1.5156.2656-2.0156.75s-.7891,1.166-.8672,2.0449c.4492-.5156,1.0625-.7734,1.8398-.7734.7422,0,1.335.2617,1.7783.7852s.665,1.1992.665,2.0273c0,.8789-.2393,1.582-.7178,2.1094s-1.1201.791-1.9248.791c-.8164,0-1.4785-.3135-1.9863-.9404s-.7617-1.4346-.7617-2.4229v-.416c0-1.5703.335-2.7705,1.0049-3.6006s1.667-1.2549,2.9912-1.2744h.1934Zm-1.4238,3.8438c-.3711,0-.7129.1113-1.0254.334s-.5293.502-.6504.8379v.3984c0,.7031.1582,1.2695.4746,1.6992s.7109.6445,1.1836.6445c.4883,0,.8721-.1797,1.1514-.5391s.4189-.8301.4189-1.4121c0-.5859-.1416-1.0596-.4248-1.4209s-.6592-.542-1.1279-.542Z"/>
    <path class="cls-1" d="m265.8708,108.0332h-2.7422v7.6113h-1.1191v-7.6113h-2.7363v-.9199h6.5977v.9199Z"/>
    <path class="cls-1" d="m269.0641,112.9551l.1641,1.125.2402-1.0137,1.6875-5.9531h.9492l1.6465,5.9531.2344,1.0312.1816-1.1484,1.3242-5.8359h1.1309l-2.0684,8.5312h-1.0254l-1.7578-6.2168-.1348-.6504-.1348.6504-1.8223,6.2168h-1.0254l-2.0625-8.5312h1.125l1.3477,5.8418Z"/>
    <path class="cls-1" d="m278.7848,110.0722c.4805-.5898,1.1055-.8848,1.875-.8848,1.3398,0,2.0156.7559,2.0273,2.2676v4.1895h-1.084v-4.1953c-.0039-.457-.1084-.7949-.3135-1.0137s-.5244-.3281-.958-.3281c-.3516,0-.6602.0938-.9258.2812s-.4727.4336-.6211.7383v4.5176h-1.084v-9h1.084v3.4277Z"/>
    <path class="cls-1" d="m286.8122,112.2402c0,.8711-.1143,1.7061-.3428,2.5049s-.5781,1.5361-1.0488,2.2119-.9639,1.1562-1.4795,1.4414l-.2285-.6621c.6016-.4609,1.085-1.1768,1.4502-2.1475s.5518-2.0479.5596-3.2314v-.1875c0-.8203-.0859-1.583-.2578-2.2881s-.4111-1.3369-.7178-1.8955-.6514-.9941-1.0342-1.3066l.2285-.6621c.5156.2852,1.0068.7617,1.4736,1.4297s.8164,1.4043,1.0488,2.209.3486,1.666.3486,2.584Z"/>
  </g>
</svg>