<?xml version="1.0" encoding="UTF-8"?>
<svg id="Layer_1" data-name="Layer 1" xmlns="http://www.w3.org/2000/svg" viewBox="0 0 330 388.7521">
  <defs>
    <style>
      .cls-1 {
        fill: #0032a1;
      }

      .cls-2, .cls-3 {
        fill: #fff;
      }

      .cls-4 {
        fill: #929497;
      }

      .cls-5 {
        fill: #aaaaad;
      }

      .cls-6 {
        fill: #808184;
      }

      .cls-7 {
        fill: #55555c;
      }

      .cls-8 {
        fill: #2a2b33;
      }

      .cls-9 {
        stroke-dasharray: 0 0 4 4;
        stroke-width: .75px;
      }

      .cls-9, .cls-3, .cls-10, .cls-11, .cls-12, .cls-13 {
        stroke-miterlimit: 10;
      }

      .cls-9, .cls-3, .cls-13 {
        stroke: #aaaaad;
      }

      .cls-9, .cls-10, .cls-11, .cls-12, .cls-13 {
        fill: none;
      }

      .cls-10 {
        stroke: #0032a1;
        stroke-linecap: round;
        stroke-width: 2px;
      }

      .cls-11 {
        stroke: #ccc;
      }

      .cls-11, .cls-12, .cls-13 {
        stroke-width: .5px;
      }

      .cls-12 {
        stroke: #d0d2d3;
      }
    </style>
  </defs>
  <g>
    <path class="cls-7" d="m19.7028,71.9187c-.9648-.2773-1.667-.6182-2.1064-1.0225s-.6592-.9033-.6592-1.4971c0-.6719.2686-1.2275.8057-1.667s1.2354-.6592,2.0947-.6592c.5859,0,1.1084.1133,1.5674.3398s.8145.5391,1.0664.9375.3779.834.3779,1.3066h-1.1309c0-.5176-.1641-.9241-.4922-1.2202-.3281-.2959-.791-.4438-1.3887-.4438-.5547,0-.9873.1223-1.2979.3669s-.4658.584-.4658,1.0183c0,.3484.1475.6428.4424.8835s.7969.4607,1.5059.6604c.709.1995,1.2637.4194,1.6641.6597s.6973.5205.8906.8408.29.6973.29,1.1309c0,.6914-.2695,1.2451-.8086,1.6611s-1.2598.624-2.1621.624c-.5859,0-1.1328-.1123-1.6406-.3369s-.8994-.5322-1.1748-.9229-.4131-.834-.4131-1.3301h1.1309c0,.5156.1904.9229.5713,1.2217s.8896.4482,1.5264.4482c.5938,0,1.0488-.1211,1.3652-.3633s.4746-.5723.4746-.9902-.1465-.7412-.4395-.9697-.8242-.4541-1.5938-.6768Z"/>
    <path class="cls-7" d="m30.8649,75.7214h-1.1309l-4.2949-6.5742v6.5742h-1.1309v-8.5312h1.1309l4.3066,6.6035v-6.6035h1.1191v8.5312Z"/>
    <path class="cls-7" d="m34.0348,64.8347h1.3125l-1.5703,1.7227-.873-.0029,1.1309-1.7197Zm.0352,10.8867h-1.125v-8.5312h1.125v8.5312Z"/>
    <path class="cls-7" d="m36.9704,74.8015h4.8809v.9199h-6.2109v-.8438l4.6758-6.7676h-4.5996v-.9199h5.9473v.821l-4.6934,6.7903Zm1.7695-8.9004l.8789-.9961h.9375v.0586l-1.4883,1.6055h-.6621l-1.4707-1.6055v-.0586h.9199l.8848.9961Z"/>
    <path class="cls-7" d="m48.1325,71.7781h-3.6973v3.0234h4.2949v.9199h-5.4199v-8.5312h5.3613v.9199h-4.2363v2.748h3.6973v.9199Z"/>
    <path class="cls-7" d="m56.6872,75.7214h-1.1309l-4.2949-6.5742v6.5742h-1.1309v-8.5312h1.1309l4.3066,6.6035v-6.6035h1.1191v8.5312Z"/>
    <path class="cls-7" d="m59.8571,64.8347h1.3125l-1.5703,1.7227-.873-.0029,1.1309-1.7197Zm.0352,10.8867h-1.125v-8.5312h1.125v8.5312Z"/>
    <path class="cls-7" d="m67.0876,71.7546l-1.043,1.084v2.8828h-1.125v-8.5312h1.125v4.2188l3.791-4.2188h1.3594l-3.3574,3.7676,3.6211,4.7637h-1.3477l-3.0234-3.9668Z"/>
    <path class="cls-7" d="m78.8239,71.7312c0,.8359-.1406,1.5654-.4219,2.1885s-.6797,1.0986-1.1953,1.4268-1.1172.4922-1.8047.4922c-.6719,0-1.2676-.165-1.7871-.4951s-.9229-.8008-1.21-1.4121-.4346-1.3193-.4424-2.124v-.6152c0-.8203.1426-1.5449.4277-2.1738s.6885-1.1104,1.21-1.4443,1.1182-.501,1.79-.501c.6836,0,1.2861.165,1.8076.4951s.9229.8086,1.2041,1.4355.4219,1.3564.4219,2.1885v.5391Zm-1.1191-.5508c0-1.0117-.2031-1.7881-.6094-2.3291s-.9746-.8115-1.7051-.8115c-.7109,0-1.2705.2705-1.6787.8115s-.6182,1.292-.6299,2.2529v.627c0,.9805.2061,1.751.6182,2.3115s.9795.8408,1.7021.8408c.7266,0,1.2891-.2646,1.6875-.7939s.6035-1.2881.6152-2.2764v-.6328Z"/>
    <path class="cls-7" d="m87.068,75.7214h-1.1309l-4.2949-6.5742v6.5742h-1.1309v-8.5312h1.1309l4.3066,6.6035v-6.6035h1.1191v8.5312Z"/>
    <path class="cls-7" d="m93.8883,71.7781h-3.6973v3.0234h4.2949v.9199h-5.4199v-8.5312h5.3613v.9199h-4.2363v2.748h3.6973v.9199Z"/>
    <path class="cls-7" d="m102.1618,73.0144c-.1055.9023-.4385,1.5986-.999,2.0889s-1.3057.7354-2.2354.7354c-1.0078,0-1.8154-.3613-2.4229-1.084s-.9111-1.6895-.9111-2.9004v-.8203c0-.793.1416-1.4902.4248-2.0918s.6846-1.0635,1.2041-1.3857,1.1211-.4834,1.8047-.4834c.9062,0,1.6328.2529,2.1797.7588s.8652,1.2061.9551,2.1006h-1.1309c-.0977-.6816-.3096-1.1755-.6357-1.481-.3262-.3057-.7822-.4585-1.3682-.4585-.7188,0-1.2822.2659-1.6904.7976s-.6123,1.2881-.6123,2.2693v.8271c0,.9265.1934,1.6636.5801,2.2107.3867.5474.9277.821,1.623.821.625,0,1.1045-.1416,1.4385-.4248s.5557-.7764.665-1.4795h1.1309Zm-3.293-7.3066l.8789-.9961h.9375v.0586l-1.4883,1.6055h-.6621l-1.4707-1.6055v-.0586h.9199l.8848.9961Z"/>
    <path class="cls-7" d="m110.2536,75.7214h-1.1309l-4.2949-6.5742v6.5742h-1.1309v-8.5312h1.1309l4.3066,6.6035v-6.6035h1.1191v8.5312Z"/>
    <path class="cls-7" d="m117.0739,71.7781h-3.6973v3.0234h4.2949v.9199h-5.4199v-8.5312h5.3613v.9199h-4.2363v2.748h3.6973v.9199Zm-1.6523-6.9434h1.3125l-1.5703,1.7227-.873-.0029,1.1309-1.7197Z"/>
    <path class="cls-7" d="m124.5563,71.9187c-.9648-.2773-1.667-.6182-2.1064-1.0225s-.6592-.9033-.6592-1.4971c0-.6719.2686-1.2275.8057-1.667s1.2354-.6592,2.0947-.6592c.5859,0,1.1084.1133,1.5674.3398s.8145.5391,1.0664.9375.3779.834.3779,1.3066h-1.1309c0-.5176-.1641-.9241-.4922-1.2202-.3281-.2959-.791-.4438-1.3887-.4438-.5547,0-.9873.1223-1.2979.3669s-.4658.584-.4658,1.0183c0,.3484.1475.6428.4424.8835s.7969.4607,1.5059.6604c.709.1995,1.2637.4194,1.6641.6597s.6973.5205.8906.8408.29.6973.29,1.1309c0,.6914-.2695,1.2451-.8086,1.6611s-1.2598.624-2.1621.624c-.5859,0-1.1328-.1123-1.6406-.3369s-.8994-.5322-1.1748-.9229-.4131-.834-.4131-1.3301h1.1309c0,.5156.1904.9229.5713,1.2217s.8896.4482,1.5264.4482c.5938,0,1.0488-.1211,1.3652-.3633s.4746-.5723.4746-.9902-.1465-.7412-.4395-.9697-.8242-.4541-1.5938-.6768Z"/>
    <path class="cls-7" d="m130.2868,72.3816v3.3398h-1.125v-8.5312h3.1465c.9336,0,1.665.2383,2.1943.7148s.7939,1.1074.7939,1.8926c0,.8281-.2588,1.4658-.7764,1.9131s-1.2588.6709-2.2236.6709h-2.0098Zm0-.9199h2.0215c.6016,0,1.0625-.1418,1.3828-.4255s.4805-.6936.4805-1.2297c0-.5088-.1602-.9155-.4805-1.2209-.3203-.3052-.7598-.4636-1.3184-.4753h-2.0859v3.3516Z"/>
    <path class="cls-7" d="m143.2946,71.7312c0,.8359-.1406,1.5654-.4219,2.1885s-.6797,1.0986-1.1953,1.4268-1.1172.4922-1.8047.4922c-.6719,0-1.2676-.165-1.7871-.4951s-.9229-.8008-1.21-1.4121-.4346-1.3193-.4424-2.124v-.6152c0-.8203.1426-1.5449.4277-2.1738s.6885-1.1104,1.21-1.4443,1.1182-.501,1.79-.501c.6836,0,1.2861.165,1.8076.4951s.9229.8086,1.2041,1.4355.4219,1.3564.4219,2.1885v.5391Zm-1.1191-.5508c0-1.0117-.2031-1.7881-.6094-2.3291s-.9746-.8115-1.7051-.8115c-.7109,0-1.2705.2705-1.6787.8115s-.6182,1.292-.6299,2.2529v.627c0,.9805.2061,1.751.6182,2.3115s.9795.8408,1.7021.8408c.7266,0,1.2891-.2646,1.6875-.7939s.6035-1.2881.6152-2.2764v-.6328Z"/>
    <path class="cls-7" d="m150.7184,68.1101h-2.7422v7.6113h-1.1191v-7.6113h-2.7363v-.9199h6.5977v.9199Z"/>
    <path class="cls-7" d="m155.1129,72.2703h-2.0039v3.4512h-1.1309v-8.5312h2.8242c.9609,0,1.7002.2188,2.2178.6562s.7764,1.0742.7764,1.9102c0,.5312-.1436.9941-.4307,1.3887s-.6865.6895-1.1982.8848l2.0039,3.6211v.0703h-1.207l-1.8516-3.4512Zm-.5566-6.3691l.8789-.9961h.9375v.0586l-1.4883,1.6055h-.6621l-1.4707-1.6055v-.0586h.9199l.8848.9961Zm-1.4473,5.4492h1.7285c.5586,0,1.0029-.1448,1.333-.4343s.4951-.677.4951-1.1624c0-.5283-.1572-.9331-.4717-1.2151-.3145-.2817-.7686-.4246-1.3623-.4285h-1.7227v3.2402Z"/>
    <path class="cls-7" d="m164.195,71.7781h-3.6973v3.0234h4.2949v.9199h-5.4199v-8.5312h5.3613v.9199h-4.2363v2.748h3.6973v.9199Z"/>
    <path class="cls-7" d="m166.193,75.7214v-8.5312h2.7891c.9258,0,1.6221.1914,2.0889.5742s.7002.9492.7002,1.6992c0,.3984-.1133.751-.3398,1.0576s-.5352.5439-.9258.7119c.4609.1289.8252.374,1.0928.7354s.4014.792.4014,1.292c0,.7656-.248,1.3672-.7441,1.8047s-1.1973.6562-2.1035.6562h-2.959Zm1.125-4.8926h1.6992c.4922,0,.8857-.1233,1.1807-.3699s.4424-.5813.4424-1.0042c0-.4697-.1367-.8113-.4102-1.0247s-.6895-.3201-1.248-.3201h-1.6641v2.7188Zm0,.9023v3.0703h1.8574c.5234,0,.9365-.1357,1.2393-.4072s.4541-.6455.4541-1.1221c0-1.0273-.5586-1.541-1.6758-1.541h-1.875Z"/>
    <path class="cls-7" d="m175.943,71.4734l2.2266-4.2832h1.2773l-2.9414,5.3496v3.1816h-1.125v-3.1816l-2.9414-5.3496h1.2891l2.2148,4.2832Z"/>
    <path class="cls-7" d="m188.3415,71.7781h-3.6973v3.0234h4.2949v.9199h-5.4199v-8.5312h5.3613v.9199h-4.2363v2.748h3.6973v.9199Z"/>
    <path class="cls-7" d="m196.8961,75.7214h-1.1309l-4.2949-6.5742v6.5742h-1.1309v-8.5312h1.1309l4.3066,6.6035v-6.6035h1.1191v8.5312Z"/>
    <path class="cls-7" d="m203.7165,71.7781h-3.6973v3.0234h4.2949v.9199h-5.4199v-8.5312h5.3613v.9199h-4.2363v2.748h3.6973v.9199Z"/>
    <path class="cls-7" d="m208.8434,72.2703h-2.0039v3.4512h-1.1309v-8.5312h2.8242c.9609,0,1.7002.2188,2.2178.6562s.7764,1.0742.7764,1.9102c0,.5312-.1436.9941-.4307,1.3887s-.6865.6895-1.1982.8848l2.0039,3.6211v.0703h-1.207l-1.8516-3.4512Zm-2.0039-.9199h1.7285c.5586,0,1.0029-.1448,1.333-.4343s.4951-.677.4951-1.1624c0-.5283-.1572-.9331-.4717-1.2151-.3145-.2817-.7686-.4246-1.3623-.4285h-1.7227v3.2402Z"/>
    <path class="cls-7" d="m219.402,74.6023c-.2891.4141-.6924.7236-1.21.9287s-1.1201.3076-1.8076.3076c-.6953,0-1.3125-.1631-1.8516-.4893s-.9561-.79-1.251-1.3916-.4463-1.2988-.4541-2.0918v-.7441c0-1.2852.2998-2.2812.8994-2.9883s1.4424-1.0605,2.5283-1.0605c.8906,0,1.6074.2275,2.1504.6826s.875,1.1006.9961,1.9365h-1.125c-.2109-1.1328-.8828-1.6992-2.0156-1.6992-.7539,0-1.3252.2649-1.7139.7947s-.585,1.2971-.5889,2.3018v.6978c0,.9578.2188,1.7192.6562,2.2842s1.0293.8474,1.7754.8474c.4219,0,.791-.0466,1.1074-.1401.3164-.0938.5781-.2515.7852-.4736v-1.9116h-1.9746v-.9199h3.0938v3.1289Z"/>
    <path class="cls-7" d="m222.484,75.7214h-1.125v-8.5312h1.125v8.5312Z"/>
    <path class="cls-7" d="m229.3629,71.7781h-3.6973v3.0234h4.2949v.9199h-5.4199v-8.5312h5.3613v.9199h-4.2363v2.748h3.6973v.9199Z"/>
  </g>
  <g>
    <path class="cls-12" d="m43.1773,321.6555h259.9506"/>
    <path class="cls-12" d="m43.1773,285.7824h259.9506"/>
    <path class="cls-12" d="m43.1773,249.9094h259.9506"/>
    <path class="cls-12" d="m43.1773,214.6657h259.9506"/>
    <path class="cls-12" d="m43.1773,356.8992h259.9506"/>
    <path class="cls-12" d="m43.1773,178.7926h259.9506"/>
    <path class="cls-12" d="m43.1773,143.5489h259.9506"/>
  </g>
  <line class="cls-9" x1="241.0135" y1="204.5404" x2="303.773" y2="216.0754"/>
  <g>
    <path class="cls-4" d="m10.3512,146.8154h-1.0898v-7.2246l-2.1855.8027v-.9844l3.1055-1.166h.1699v8.5723Z"/>
    <path class="cls-4" d="m16.9958,142.5381l.4336-4.2539h4.3711v1.002h-3.4512l-.2578,2.3262c.418-.2461.8926-.3691,1.4238-.3691.7773,0,1.3945.2568,1.8516.7705s.6855,1.208.6855,2.083c0,.8789-.2373,1.5713-.7119,2.0771s-1.1377.7588-1.9893.7588c-.7539,0-1.3691-.209-1.8457-.627s-.748-.9961-.8145-1.7344h1.0254c.0664.4883.2402.8564.5215,1.1045s.6523.3721,1.1133.3721c.5039,0,.8994-.1719,1.1865-.5156s.4307-.8184.4307-1.4238c0-.5703-.1553-1.0283-.4658-1.374s-.7236-.5186-1.2393-.5186c-.4727,0-.8438.1035-1.1133.3105l-.2871.2344-.8672-.2227Z"/>
    <path class="cls-4" d="m28.5856,143.1768c0,1.2695-.2168,2.2129-.6504,2.8301s-1.1113.9258-2.0332.9258c-.9102,0-1.584-.3018-2.0215-.9053s-.6641-1.5049-.6797-2.7041v-1.4473c0-1.2539.2168-2.1855.6504-2.7949s1.1133-.9141,2.0391-.9141c.918,0,1.5938.2939,2.0273.8818s.6562,1.4951.668,2.7217v1.4062Zm-1.084-1.4824c0-.918-.1289-1.5869-.3867-2.0068s-.666-.6299-1.2246-.6299c-.5547,0-.959.209-1.2129.627s-.3848,1.0605-.3926,1.9277v1.7344c0,.9219.1338,1.6025.4014,2.042s.6729.6592,1.2158.6592c.5352,0,.9326-.207,1.1924-.6211s.3955-1.0664.4072-1.957v-1.7754Z"/>
    <path class="cls-4" d="m35.3239,143.1768c0,1.2695-.2168,2.2129-.6504,2.8301s-1.1113.9258-2.0332.9258c-.9102,0-1.584-.3018-2.0215-.9053s-.6641-1.5049-.6797-2.7041v-1.4473c0-1.2539.2168-2.1855.6504-2.7949s1.1133-.9141,2.0391-.9141c.918,0,1.5938.2939,2.0273.8818s.6562,1.4951.668,2.7217v1.4062Zm-1.084-1.4824c0-.918-.1289-1.5869-.3867-2.0068s-.666-.6299-1.2246-.6299c-.5547,0-.959.209-1.2129.627s-.3848,1.0605-.3926,1.9277v1.7344c0,.9219.1338,1.6025.4014,2.042s.6729.6592,1.2158.6592c.5352,0,.9326-.207,1.1924-.6211s.3955-1.0664.4072-1.957v-1.7754Z"/>
    <path class="cls-4" d="m42.0622,143.1768c0,1.2695-.2168,2.2129-.6504,2.8301s-1.1113.9258-2.0332.9258c-.9102,0-1.584-.3018-2.0215-.9053s-.6641-1.5049-.6797-2.7041v-1.4473c0-1.2539.2168-2.1855.6504-2.7949s1.1133-.9141,2.0391-.9141c.918,0,1.5938.2939,2.0273.8818s.6562,1.4951.668,2.7217v1.4062Zm-1.084-1.4824c0-.918-.1289-1.5869-.3867-2.0068s-.666-.6299-1.2246-.6299c-.5547,0-.959.209-1.2129.627s-.3848,1.0605-.3926,1.9277v1.7344c0,.9219.1338,1.6025.4014,2.042s.6729.6592,1.2158.6592c.5352,0,.9326-.207,1.1924-.6211s.3955-1.0664.4072-1.957v-1.7754Z"/>
  </g>
  <g>
    <path class="cls-4" d="m8.3376,219.1653h-1.0898v-7.2246l-2.1855.8027v-.9844l3.1055-1.166h.1699v8.5723Z"/>
    <path class="cls-4" d="m19.8336,215.5266c0,1.2695-.2168,2.2129-.6504,2.8301s-1.1113.9258-2.0332.9258c-.9102,0-1.584-.3018-2.0215-.9053s-.6641-1.5049-.6797-2.7041v-1.4473c0-1.2539.2168-2.1855.6504-2.7949s1.1133-.9141,2.0391-.9141c.918,0,1.5938.2939,2.0273.8818s.6562,1.4951.668,2.7217v1.4062Zm-1.084-1.4824c0-.918-.1289-1.5869-.3867-2.0068s-.666-.6299-1.2246-.6299c-.5547,0-.959.209-1.2129.627s-.3848,1.0605-.3926,1.9277v1.7344c0,.9219.1338,1.6025.4014,2.042s.6729.6592,1.2158.6592c.5352,0,.9326-.207,1.1924-.6211s.3955-1.0664.4072-1.957v-1.7754Z"/>
    <path class="cls-4" d="m26.5719,215.5266c0,1.2695-.2168,2.2129-.6504,2.8301s-1.1113.9258-2.0332.9258c-.9102,0-1.584-.3018-2.0215-.9053s-.6641-1.5049-.6797-2.7041v-1.4473c0-1.2539.2168-2.1855.6504-2.7949s1.1133-.9141,2.0391-.9141c.918,0,1.5938.2939,2.0273.8818s.6562,1.4951.668,2.7217v1.4062Zm-1.084-1.4824c0-.918-.1289-1.5869-.3867-2.0068s-.666-.6299-1.2246-.6299c-.5547,0-.959.209-1.2129.627s-.3848,1.0605-.3926,1.9277v1.7344c0,.9219.1338,1.6025.4014,2.042s.6729.6592,1.2158.6592c.5352,0,.9326-.207,1.1924-.6211s.3955-1.0664.4072-1.957v-1.7754Z"/>
    <path class="cls-4" d="m33.3102,215.5266c0,1.2695-.2168,2.2129-.6504,2.8301s-1.1113.9258-2.0332.9258c-.9102,0-1.584-.3018-2.0215-.9053s-.6641-1.5049-.6797-2.7041v-1.4473c0-1.2539.2168-2.1855.6504-2.7949s1.1133-.9141,2.0391-.9141c.918,0,1.5938.2939,2.0273.8818s.6562,1.4951.668,2.7217v1.4062Zm-1.084-1.4824c0-.918-.1289-1.5869-.3867-2.0068s-.666-.6299-1.2246-.6299c-.5547,0-.959.209-1.2129.627s-.3848,1.0605-.3926,1.9277v1.7344c0,.9219.1338,1.6025.4014,2.042s.6729.6592,1.2158.6592c.5352,0,.9326-.207,1.1924-.6211s.3955-1.0664.4072-1.957v-1.7754Z"/>
  </g>
  <g>
    <path class="cls-4" d="m14.9821,286.0046l.4336-4.2539h4.3711v1.002h-3.4512l-.2578,2.3262c.418-.2461.8926-.3691,1.4238-.3691.7773,0,1.3945.2568,1.8516.7705s.6855,1.208.6855,2.083c0,.8789-.2373,1.5713-.7119,2.0771s-1.1377.7588-1.9893.7588c-.7539,0-1.3691-.209-1.8457-.627s-.748-.9961-.8145-1.7344h1.0254c.0664.4883.2402.8564.5215,1.1045s.6523.3721,1.1133.3721c.5039,0,.8994-.1719,1.1865-.5156s.4307-.8184.4307-1.4238c0-.5703-.1553-1.0283-.4658-1.374s-.7236-.5186-1.2393-.5186c-.4727,0-.8438.1035-1.1133.3105l-.2871.2344-.8672-.2227Z"/>
    <path class="cls-4" d="m26.5719,286.6433c0,1.2695-.2168,2.2129-.6504,2.8301s-1.1113.9258-2.0332.9258c-.9102,0-1.584-.3018-2.0215-.9053s-.6641-1.5049-.6797-2.7041v-1.4473c0-1.2539.2168-2.1855.6504-2.7949s1.1133-.9141,2.0391-.9141c.918,0,1.5938.2939,2.0273.8818s.6562,1.4951.668,2.7217v1.4062Zm-1.084-1.4824c0-.918-.1289-1.5869-.3867-2.0068s-.666-.6299-1.2246-.6299c-.5547,0-.959.209-1.2129.627s-.3848,1.0605-.3926,1.9277v1.7344c0,.9219.1338,1.6025.4014,2.042s.6729.6592,1.2158.6592c.5352,0,.9326-.207,1.1924-.6211s.3955-1.0664.4072-1.957v-1.7754Z"/>
    <path class="cls-4" d="m33.3102,286.6433c0,1.2695-.2168,2.2129-.6504,2.8301s-1.1113.9258-2.0332.9258c-.9102,0-1.584-.3018-2.0215-.9053s-.6641-1.5049-.6797-2.7041v-1.4473c0-1.2539.2168-2.1855.6504-2.7949s1.1133-.9141,2.0391-.9141c.918,0,1.5938.2939,2.0273.8818s.6562,1.4951.668,2.7217v1.4062Zm-1.084-1.4824c0-.918-.1289-1.5869-.3867-2.0068s-.666-.6299-1.2246-.6299c-.5547,0-.959.209-1.2129.627s-.3848,1.0605-.3926,1.9277v1.7344c0,.9219.1338,1.6025.4014,2.042s.6729.6592,1.2158.6592c.5352,0,.9326-.207,1.1924-.6211s.3955-1.0664.4072-1.957v-1.7754Z"/>
  </g>
  <g>
    <path class="cls-4" d="m19.9918,246.4871l-3.5332,7.9219h-1.1367l3.5215-7.6406h-4.6172v-.8906h5.7656v.6094Z"/>
    <path class="cls-4" d="m21.7204,250.1316l.4336-4.2539h4.3711v1.002h-3.4512l-.2578,2.3262c.418-.2461.8926-.3691,1.4238-.3691.7773,0,1.3945.2568,1.8516.7705s.6855,1.208.6855,2.083c0,.8789-.2373,1.5713-.7119,2.0771s-1.1377.7588-1.9893.7588c-.7539,0-1.3691-.209-1.8457-.627s-.748-.9961-.8145-1.7344h1.0254c.0664.4883.2402.8564.5215,1.1045s.6523.3721,1.1133.3721c.5039,0,.8994-.1719,1.1865-.5156s.4307-.8184.4307-1.4238c0-.5703-.1553-1.0283-.4658-1.374s-.7236-.5186-1.2393-.5186c-.4727,0-.8438.1035-1.1133.3105l-.2871.2344-.8672-.2227Z"/>
    <path class="cls-4" d="m33.3102,250.7703c0,1.2695-.2168,2.2129-.6504,2.8301s-1.1113.9258-2.0332.9258c-.9102,0-1.584-.3018-2.0215-.9053s-.6641-1.5049-.6797-2.7041v-1.4473c0-1.2539.2168-2.1855.6504-2.7949s1.1133-.9141,2.0391-.9141c.918,0,1.5938.2939,2.0273.8818s.6562,1.4951.668,2.7217v1.4062Zm-1.084-1.4824c0-.918-.1289-1.5869-.3867-2.0068s-.666-.6299-1.2246-.6299c-.5547,0-.959.209-1.2129.627s-.3848,1.0605-.3926,1.9277v1.7344c0,.9219.1338,1.6025.4014,2.042s.6729.6592,1.2158.6592c.5352,0,.9326-.207,1.1924-.6211s.3955-1.0664.4072-1.957v-1.7754Z"/>
  </g>
  <g>
    <path class="cls-4" d="m8.3376,183.9578h-1.0898v-7.2246l-2.1855.8027v-.9844l3.1055-1.166h.1699v8.5723Z"/>
    <path class="cls-4" d="m20.0739,183.9578h-5.5898v-.7793l2.9531-3.2812c.4375-.4961.7393-.8994.9053-1.21s.249-.6318.249-.9639c0-.4453-.1348-.8105-.4043-1.0957s-.6289-.4277-1.0781-.4277c-.5391,0-.958.1533-1.2568.46s-.4482.7334-.4482,1.2803h-1.084c0-.7852.2529-1.4199.7588-1.9043s1.1826-.7266,2.0303-.7266c.793,0,1.4199.208,1.8809.624s.6914.9697.6914,1.6611c0,.8398-.5352,1.8398-1.6055,3l-2.2852,2.4785h4.2832v.8848Z"/>
    <path class="cls-4" d="m21.7204,179.6804l.4336-4.2539h4.3711v1.002h-3.4512l-.2578,2.3262c.418-.2461.8926-.3691,1.4238-.3691.7773,0,1.3945.2568,1.8516.7705s.6855,1.208.6855,2.083c0,.8789-.2373,1.5713-.7119,2.0771s-1.1377.7588-1.9893.7588c-.7539,0-1.3691-.209-1.8457-.627s-.748-.9961-.8145-1.7344h1.0254c.0664.4883.2402.8564.5215,1.1045s.6523.3721,1.1133.3721c.5039,0,.8994-.1719,1.1865-.5156s.4307-.8184.4307-1.4238c0-.5703-.1553-1.0283-.4658-1.374s-.7236-.5186-1.2393-.5186c-.4727,0-.8438.1035-1.1133.3105l-.2871.2344-.8672-.2227Z"/>
    <path class="cls-4" d="m33.3102,180.3191c0,1.2695-.2168,2.2129-.6504,2.8301s-1.1113.9258-2.0332.9258c-.9102,0-1.584-.3018-2.0215-.9053s-.6641-1.5049-.6797-2.7041v-1.4473c0-1.2539.2168-2.1855.6504-2.7949s1.1133-.9141,2.0391-.9141c.918,0,1.5938.2939,2.0273.8818s.6562,1.4951.668,2.7217v1.4062Zm-1.084-1.4824c0-.918-.1289-1.5869-.3867-2.0068s-.666-.6299-1.2246-.6299c-.5547,0-.959.209-1.2129.627s-.3848,1.0605-.3926,1.9277v1.7344c0,.9219.1338,1.6025.4014,2.042s.6729.6592,1.2158.6592c.5352,0,.9326-.207,1.1924-.6211s.3955-1.0664.4072-1.957v-1.7754Z"/>
  </g>
  <g>
    <path class="cls-4" d="m20.0739,326.1548h-5.5898v-.7793l2.9531-3.2812c.4375-.4961.7393-.8994.9053-1.21s.249-.6318.249-.9639c0-.4453-.1348-.8105-.4043-1.0957s-.6289-.4277-1.0781-.4277c-.5391,0-.958.1533-1.2568.46s-.4482.7334-.4482,1.2803h-1.084c0-.7852.2529-1.4199.7588-1.9043s1.1826-.7266,2.0303-.7266c.793,0,1.4199.208,1.8809.624s.6914.9697.6914,1.6611c0,.8398-.5352,1.8398-1.6055,3l-2.2852,2.4785h4.2832v.8848Z"/>
    <path class="cls-4" d="m21.7204,321.8774l.4336-4.2539h4.3711v1.002h-3.4512l-.2578,2.3262c.418-.2461.8926-.3691,1.4238-.3691.7773,0,1.3945.2568,1.8516.7705s.6855,1.208.6855,2.083c0,.8789-.2373,1.5713-.7119,2.0771s-1.1377.7588-1.9893.7588c-.7539,0-1.3691-.209-1.8457-.627s-.748-.9961-.8145-1.7344h1.0254c.0664.4883.2402.8564.5215,1.1045s.6523.3721,1.1133.3721c.5039,0,.8994-.1719,1.1865-.5156s.4307-.8184.4307-1.4238c0-.5703-.1553-1.0283-.4658-1.374s-.7236-.5186-1.2393-.5186c-.4727,0-.8438.1035-1.1133.3105l-.2871.2344-.8672-.2227Z"/>
    <path class="cls-4" d="m33.3102,322.5161c0,1.2695-.2168,2.2129-.6504,2.8301s-1.1113.9258-2.0332.9258c-.9102,0-1.584-.3018-2.0215-.9053s-.6641-1.5049-.6797-2.7041v-1.4473c0-1.2539.2168-2.1855.6504-2.7949s1.1133-.9141,2.0391-.9141c.918,0,1.5938.2939,2.0273.8818s.6562,1.4951.668,2.7217v1.4062Zm-1.084-1.4824c0-.918-.1289-1.5869-.3867-2.0068s-.666-.6299-1.2246-.6299c-.5547,0-.959.209-1.2129.627s-.3848,1.0605-.3926,1.9277v1.7344c0,.9219.1338,1.6025.4014,2.042s.6729.6592,1.2158.6592c.5352,0,.9326-.207,1.1924-.6211s.3955-1.0664.4072-1.957v-1.7754Z"/>
  </g>
  <path class="cls-4" d="m33.3102,357.7603c0,1.2695-.2168,2.2129-.6504,2.8301s-1.1113.9258-2.0332.9258c-.9102,0-1.584-.3018-2.0215-.9053s-.6641-1.5049-.6797-2.7041v-1.4473c0-1.2539.2168-2.1855.6504-2.7949s1.1133-.9141,2.0391-.9141c.918,0,1.5938.2939,2.0273.8818s.6562,1.4951.668,2.7217v1.4062Zm-1.084-1.4824c0-.918-.1289-1.5869-.3867-2.0068s-.666-.6299-1.2246-.6299c-.5547,0-.959.209-1.2129.627s-.3848,1.0605-.3926,1.9277v1.7344c0,.9219.1338,1.6025.4014,2.042s.6729.6592,1.2158.6592c.5352,0,.9326-.207,1.1924-.6211s.3955-1.0664.4072-1.957v-1.7754Z"/>
  <g>
    <path class="cls-6" d="m33.1227,112.4094h-1.0898v-7.2246l-2.1855.8027v-.9844l3.1055-1.166h.1699v8.5723Z"/>
    <path class="cls-6" d="m40.4528,108.6594c-.2266.2695-.4971.4863-.8115.6504s-.6592.2461-1.0342.2461c-.4922,0-.9209-.1211-1.2861-.3633s-.6475-.583-.8467-1.0225-.2988-.9248-.2988-1.4561c0-.5703.1084-1.084.3252-1.541s.5244-.8066.9229-1.0488.8633-.3633,1.3945-.3633c.8438,0,1.5088.3154,1.9951.9463s.7295,1.4912.7295,2.5811v.3164c0,1.6602-.3281,2.8721-.9844,3.6357s-1.6465,1.1553-2.9707,1.1748h-.2109v-.9199h.2285c.8945-.0156,1.582-.2485,2.0625-.6987s.7422-1.1626.7852-2.1372Zm-1.6699,0c.3633,0,.6982-.1113,1.0049-.334s.5303-.498.6709-.8262v-.4336c0-.7109-.1543-1.2891-.4629-1.7344s-.6992-.668-1.1719-.668c-.4766,0-.8594.1826-1.1484.5479s-.4336.8467-.4336,1.4443c0,.582.1396,1.0615.4189,1.4385s.6533.5654,1.1221.5654Z"/>
    <path class="cls-6" d="m47.1911,108.6594c-.2266.2695-.4971.4863-.8115.6504s-.6592.2461-1.0342.2461c-.4922,0-.9209-.1211-1.2861-.3633s-.6475-.583-.8467-1.0225-.2988-.9248-.2988-1.4561c0-.5703.1084-1.084.3252-1.541s.5244-.8066.9229-1.0488.8633-.3633,1.3945-.3633c.8438,0,1.5088.3154,1.9951.9463s.7295,1.4912.7295,2.5811v.3164c0,1.6602-.3281,2.8721-.9844,3.6357s-1.6465,1.1553-2.9707,1.1748h-.2109v-.9199h.2285c.8945-.0156,1.582-.2485,2.0625-.6987s.7422-1.1626.7852-2.1372Zm-1.6699,0c.3633,0,.6982-.1113,1.0049-.334s.5303-.498.6709-.8262v-.4336c0-.7109-.1543-1.2891-.4629-1.7344s-.6992-.668-1.1719-.668c-.4766,0-.8594.1826-1.1484.5479s-.4336.8467-.4336,1.4443c0,.582.1396,1.0615.4189,1.4385s.6533.5654,1.1221.5654Z"/>
    <path class="cls-6" d="m55.1247,108.7708c0,1.2695-.2168,2.2129-.6504,2.8301s-1.1113.9258-2.0332.9258c-.9102,0-1.584-.3018-2.0215-.9053s-.6641-1.5049-.6797-2.7041v-1.4473c0-1.2539.2168-2.1855.6504-2.7949s1.1133-.9141,2.0391-.9141c.918,0,1.5938.2939,2.0273.8818s.6562,1.4951.668,2.7217v1.4062Zm-1.084-1.4824c0-.918-.1289-1.5869-.3867-2.0068s-.666-.6299-1.2246-.6299c-.5547,0-.959.209-1.2129.627s-.3848,1.0605-.3926,1.9277v1.7344c0,.9219.1338,1.6025.4014,2.042s.6729.6592,1.2158.6592c.5352,0,.9326-.207,1.1924-.6211s.3955-1.0664.4072-1.957v-1.7754Z"/>
  </g>
  <g>
    <path class="cls-6" d="m296.2331,112.4045h-5.8477v-1.1602l2.7598-2.9414c.3789-.4141.6592-.7754.8408-1.084s.2725-.6016.2725-.8789c0-.3789-.0957-.6768-.2871-.8936s-.4648-.3252-.8203-.3252c-.3828,0-.6846.1318-.9053.3955s-.3311.6104-.3311,1.04h-1.6992c0-.5195.124-.9941.3721-1.4238s.5986-.7666,1.0518-1.0107.9668-.3662,1.541-.3662c.8789,0,1.5615.2109,2.0479.6328s.7295,1.0176.7295,1.7871c0,.4219-.1094.8516-.3281,1.2891s-.5938.9473-1.125,1.5293l-1.9395,2.0449h3.668v1.3652Z"/>
    <path class="cls-6" d="m303.0124,108.8772c0,1.1797-.2441,2.082-.7324,2.707s-1.2031.9375-2.1445.9375c-.9297,0-1.6406-.3066-2.1328-.9199s-.7441-1.4922-.7559-2.6367v-1.5703c0-1.1914.2471-2.0957.7412-2.7129s1.2061-.9258,2.1357-.9258,1.6406.3057,2.1328.917.7441,1.4893.7559,2.6338v1.5703Zm-1.6934-1.7266c0-.7075-.0967-1.2227-.29-1.5454s-.4951-.4839-.9053-.4839c-.3984,0-.6924.1533-.8818.4604s-.29.7866-.3018,1.4399v2.0762c0,.6958.0947,1.2129.2842,1.5513s.4932.5073.9111.5073c.4141,0,.7129-.1621.8965-.4868.1836-.3242.2793-.8208.2871-1.4897v-2.0293Z"/>
    <path class="cls-6" d="m305.8776,107.3889h.9023c.4297,0,.748-.1074.9551-.3223s.3105-.5.3105-.8555c0-.3438-.1025-.6113-.3076-.8027s-.4873-.2871-.8467-.2871c-.3242,0-.5957.0889-.8145.2666s-.3281.4092-.3281.6943h-1.6934c0-.4453.1201-.8447.3604-1.1982s.5762-.6299,1.0078-.8291.9072-.2988,1.4268-.2988c.9023,0,1.6094.2158,2.1211.6475s.7676,1.0264.7676,1.7842c0,.3906-.1191.75-.3574,1.0781s-.5508.5801-.9375.7559c.4805.1719.8389.4297,1.0752.7734s.3545.75.3545,1.2188c0,.7578-.2764,1.3652-.8291,1.8223s-1.2842.6855-2.1943.6855c-.8516,0-1.5479-.2246-2.0889-.6738s-.8115-1.043-.8115-1.7812h1.6934c0,.3203.1201.582.3604.7852s.5361.3047.8877.3047c.4023,0,.7178-.1064.9463-.3193s.3428-.4951.3428-.8467c0-.8516-.4688-1.2773-1.4062-1.2773h-.8965v-1.3242Z"/>
    <path class="cls-6" d="m316.7819,108.8772c0,1.1797-.2441,2.082-.7324,2.707s-1.2031.9375-2.1445.9375c-.9297,0-1.6406-.3066-2.1328-.9199s-.7441-1.4922-.7559-2.6367v-1.5703c0-1.1914.2471-2.0957.7412-2.7129s1.2061-.9258,2.1357-.9258,1.6406.3057,2.1328.917.7441,1.4893.7559,2.6338v1.5703Zm-1.6934-1.7266c0-.7075-.0967-1.2227-.29-1.5454s-.4951-.4839-.9053-.4839c-.3984,0-.6924.1533-.8818.4604s-.29.7866-.3018,1.4399v2.0762c0,.6958.0947,1.2129.2842,1.5513s.4932.5073.9111.5073c.4141,0,.7129-.1621.8965-.4868.1836-.3242.2793-.8208.2871-1.4897v-2.0293Z"/>
  </g>
  <g>
    <path class="cls-6" d="m237.7301,112.4045h-5.5898v-.7793l2.9531-3.2812c.4375-.4961.7393-.8994.9053-1.21s.249-.6318.249-.9639c0-.4453-.1348-.8105-.4043-1.0957s-.6289-.4277-1.0781-.4277c-.5391,0-.958.1533-1.2568.46s-.4482.7334-.4482,1.2803h-1.084c0-.7852.2529-1.4199.7588-1.9043s1.1826-.7266,2.0303-.7266c.793,0,1.4199.208,1.8809.624s.6914.9697.6914,1.6611c0,.8398-.5352,1.8398-1.6055,3l-2.2852,2.4785h4.2832v.8848Z"/>
    <path class="cls-6" d="m244.2282,108.7659c0,1.2695-.2168,2.2129-.6504,2.8301s-1.1113.9258-2.0332.9258c-.9102,0-1.584-.3018-2.0215-.9053s-.6641-1.5049-.6797-2.7041v-1.4473c0-1.2539.2168-2.1855.6504-2.7949s1.1133-.9141,2.0391-.9141c.918,0,1.5938.2939,2.0273.8818s.6562,1.4951.668,2.7217v1.4062Zm-1.084-1.4824c0-.918-.1289-1.5869-.3867-2.0068s-.666-.6299-1.2246-.6299c-.5547,0-.959.209-1.2129.627s-.3848,1.0605-.3926,1.9277v1.7344c0,.9219.1338,1.6025.4014,2.042s.6729.6592,1.2158.6592c.5352,0,.9326-.207,1.1924-.6211s.3955-1.0664.4072-1.957v-1.7754Z"/>
    <path class="cls-6" d="m251.2067,112.4045h-5.5898v-.7793l2.9531-3.2812c.4375-.4961.7393-.8994.9053-1.21s.249-.6318.249-.9639c0-.4453-.1348-.8105-.4043-1.0957s-.6289-.4277-1.0781-.4277c-.5391,0-.958.1533-1.2568.46s-.4482.7334-.4482,1.2803h-1.084c0-.7852.2529-1.4199.7588-1.9043s1.1826-.7266,2.0303-.7266c.793,0,1.4199.208,1.8809.624s.6914.9697.6914,1.6611c0,.8398-.5352,1.8398-1.6055,3l-2.2852,2.4785h4.2832v.8848Z"/>
    <path class="cls-6" d="m255.9176,112.4045h-1.0898v-7.2246l-2.1855.8027v-.9844l3.1055-1.166h.1699v8.5723Z"/>
  </g>
  <path class="cls-13" d="m43.1773,120.4725v7.5426"/>
  <path class="cls-13" d="m303.128,120.4725v7.5426"/>
  <path class="cls-13" d="m243.024,120.4725v7.5426"/>
  <g>
    <rect class="cls-2" x="213.6312" y="239.4722" width="102.5666" height="27.6919"/>
    <g>
      <path class="cls-5" d="m273.2863,236.5234c-.5151.5059-1.1167.7588-1.8047.7588-.8794,0-1.5835-.3018-2.1123-.9058s-.793-1.4185-.793-2.4438c0-.6519.1426-1.25.4272-1.7944s.6826-.9683,1.1929-1.2715,1.0845-.4546,1.7227-.4546c.6562,0,1.2397.1641,1.75.4922s.9067.7998,1.1895,1.415.4263,1.3193.4307,2.1123v.7314c0,1.6587-.4126,2.9624-1.2373,3.9102s-1.9937,1.4536-3.5068,1.5176l-.4854.0068v-1.6475l.4375-.0068c1.7183-.0776,2.6479-.8843,2.7891-2.4199Zm-1.3193-.752c.3188,0,.5938-.082.8237-.2461s.4043-.3623.5229-.5947v-.8135c0-.6699-.1274-1.1895-.3828-1.5586s-.5972-.5537-1.0254-.5537c-.3965,0-.7222.1812-.9775.5435s-.3828.8169-.3828,1.3638c0,.5425.124.9878.3726,1.3364s.5981.5229,1.0493.5229Z"/>
      <path class="cls-5" d="m281.3185,236.5234c-.5151.5059-1.1167.7588-1.8047.7588-.8794,0-1.5835-.3018-2.1123-.9058s-.793-1.4185-.793-2.4438c0-.6519.1426-1.25.4272-1.7944s.6826-.9683,1.1929-1.2715,1.0845-.4546,1.7227-.4546c.6562,0,1.2397.1641,1.75.4922s.9067.7998,1.1895,1.415.4263,1.3193.4307,2.1123v.7314c0,1.6587-.4126,2.9624-1.2373,3.9102s-1.9937,1.4536-3.5068,1.5176l-.4854.0068v-1.6475l.4375-.0068c1.7183-.0776,2.6479-.8843,2.7891-2.4199Zm-1.3193-.752c.3188,0,.5938-.082.8237-.2461s.4043-.3623.5229-.5947v-.8135c0-.6699-.1274-1.1895-.3828-1.5586s-.5972-.5537-1.0254-.5537c-.3965,0-.7222.1812-.9775.5435s-.3828.8169-.3828,1.3638c0,.5425.124.9878.3726,1.3364s.5981.5229,1.0493.5229Z"/>
      <path class="cls-5" d="m291.4289,236.3867c0,1.3765-.2847,2.4292-.8545,3.1582s-1.4038,1.0938-2.502,1.0938c-1.0845,0-1.9141-.3579-2.4883-1.0732s-.8682-1.7407-.8818-3.0762v-1.832c0-1.3901.2881-2.4448.8647-3.165s1.4072-1.0801,2.4917-1.0801,1.9141.3564,2.4883,1.0698.8682,1.7373.8818,3.0728v1.832Zm-1.9756-2.0142c0-.8257-.1128-1.4268-.3384-1.8032s-.5776-.5645-1.0562-.5645c-.4648,0-.8076.1792-1.0288.5371-.2212.3584-.3384.918-.3521,1.6797v2.4224c0,.812.1104,1.4155.3315,1.8101s.5752.5918,1.063.5918c.4829,0,.8315-.1895,1.0459-.5679s.3257-.958.335-1.7383v-2.3672Z"/>
      <path class="cls-5" d="m298.5109,236.9951v3.5068h-2.0508v-9.9531h3.8828c.7476,0,1.4048.1367,1.9722.4102s1.0039.6621,1.3091,1.1655.458,1.0767.458,1.7192c0,.9751-.334,1.7441-1.0015,2.3071s-1.5918.8442-2.772.8442h-1.7979Zm0-1.6611h1.832c.5425,0,.9561-.1274,1.2407-.3828s.4272-.6196.4272-1.0938c0-.4878-.1436-.8818-.4307-1.1826s-.6836-.4556-1.1895-.4648h-1.8799v3.124Z"/>
      <path class="cls-5" d="m308.2453,230.5488h2.0508v6.8906c0,.6333-.1401,1.1929-.4204,1.6782s-.6758.8604-1.186,1.1245-1.0869.3965-1.7295.3965c-1.0527,0-1.873-.2676-2.4609-.8032s-.8818-1.293-.8818-2.2729h2.0645c0,.4878.1025.8477.3076,1.0801s.5288.3486.9707.3486c.3921,0,.7041-.1343.9365-.4033s.3486-.6519.3486-1.1484v-6.8906Z"/>
      <path class="cls-5" d="m247.0568,253.2617c0-1.0298.1377-2.019.4136-2.9668s.687-1.8091,1.2339-2.584,1.1143-1.3218,1.7021-1.6406l.2598.834c-.6655.5103-1.2109,1.2896-1.6372,2.3379s-.6597,2.2217-.7007,3.5205l-.0068.5811c0,1.7593.3213,3.2856.9639,4.5801.3872.7749.8477,1.3809,1.3809,1.8184l-.2598.7725c-.606-.3374-1.1851-.9023-1.7363-1.6953-1.0757-1.5493-1.6133-3.4019-1.6133-5.5576Z"/>
      <path class="cls-5" d="m258.2814,257.3018h-6.5215v-.9092l3.4453-3.8281c.5103-.5786.8623-1.0493,1.0562-1.4116s.2905-.7373.2905-1.1245c0-.5195-.1572-.9458-.4717-1.2783s-.7339-.499-1.2578-.499c-.6289,0-1.1177.1787-1.4663.5366s-.5229.8555-.5229,1.4937h-1.2646c0-.916.2949-1.6567.8853-2.2217s1.3799-.8477,2.3687-.8477c.9253,0,1.6567.2427,2.1943.728s.8066,1.1313.8066,1.938c0,.98-.6245,2.1465-1.873,3.5l-2.666,2.8916h4.9971v1.0322Z"/>
      <path class="cls-5" d="m266.047,248.0596l-4.1221,9.2422h-1.3262l4.1084-8.9141h-5.3867v-1.0391h6.7266v.7109Z"/>
      <path class="cls-5" d="m268.0636,252.3115l.5059-4.9629h5.0996v1.1689h-4.0264l-.3008,2.7139c.4878-.2871,1.0415-.4307,1.6611-.4307.9067,0,1.627.2998,2.1602.8989s.7998,1.4092.7998,2.4302c0,1.0254-.2769,1.833-.8306,2.4233s-1.3271.8853-2.3208.8853c-.8794,0-1.5972-.2437-2.1533-.7314s-.8726-1.1621-.9502-2.0234h1.1963c.0776.5698.2803.999.6084,1.2886s.7612.4341,1.2988.4341c.5879,0,1.0493-.2007,1.3843-.6016s.5024-.9546.5024-1.6611c0-.6655-.1812-1.1997-.5435-1.603s-.8442-.605-1.4458-.605c-.5513,0-.9844.1206-1.2988.3623l-.335.2734-1.0117-.2598Z"/>
      <path class="cls-5" d="m285.7414,248.4219h-3.1992v8.8799h-1.3057v-8.8799h-3.1924v-1.0732h7.6973v1.0732Z"/>
      <path class="cls-5" d="m289.4669,254.1641l.1914,1.3125.2803-1.1826,1.9688-6.9453h1.1074l1.9209,6.9453.2734,1.2031.2119-1.3398,1.5449-6.8086h1.3193l-2.4131,9.9531h-1.1963l-2.0508-7.2529-.1572-.7588-.1572.7588-2.126,7.2529h-1.1963l-2.4062-9.9531h1.3125l1.5723,6.8154Z"/>
      <path class="cls-5" d="m300.8078,250.8008c.5605-.688,1.2896-1.0322,2.1875-1.0322,1.563,0,2.3516.8818,2.3652,2.6455v4.8877h-1.2646v-4.8945c-.0044-.5332-.1265-.9272-.3657-1.1826s-.6118-.3828-1.1177-.3828c-.4102,0-.77.1094-1.0801.3281s-.5513.5059-.7246.8613v5.2705h-1.2646v-10.5h1.2646v3.999Z"/>
      <path class="cls-5" d="m310.173,253.3301c0,1.0161-.1333,1.9902-.3999,2.9224s-.6743,1.792-1.2236,2.5806-1.1245,1.3491-1.7261,1.6816l-.2666-.7725c.7017-.5376,1.2656-1.373,1.6919-2.5054s.6436-2.3892.6528-3.77v-.2188c0-.957-.1001-1.8467-.3008-2.6694s-.4795-1.5596-.8374-2.2114-.7598-1.1597-1.2065-1.5244l.2666-.7725c.6016.3325,1.1748.8887,1.7192,1.668s.9526,1.6382,1.2236,2.5771.4067,1.9438.4067,3.0146Z"/>
      <path class="cls-5" d="m228.3302,271.7022h-1.1309l-4.2949-6.5742v6.5742h-1.1309v-8.5312h1.1309l4.3066,6.6035v-6.6035h1.1191v8.5312Z"/>
      <path class="cls-5" d="m232.7892,271.8193c-.8594,0-1.5586-.2822-2.0977-.8467s-.8086-1.3193-.8086-2.2646v-.1992c0-.6289.1201-1.1904.3604-1.6846s.5762-.8809,1.0078-1.1602.8994-.4189,1.4033-.4189c.8242,0,1.4648.2715,1.9219.8145s.6855,1.3203.6855,2.332v.4512h-4.2949c.0156.625.1982,1.1299.5479,1.5146s.7939.5771,1.333.5771c.3828,0,.707-.0781.9727-.2344s.498-.3633.6973-.6211l.6621.5156c-.5312.8164-1.3281,1.2246-2.3906,1.2246Zm-.1348-5.6836c-.4375,0-.8047.1592-1.1016.4775s-.4805.7646-.5508,1.3389h3.1758v-.082c-.0312-.5508-.1797-.9775-.4453-1.2803s-.625-.4541-1.0781-.4541Z"/>
      <path class="cls-5" d="m240.4298,271.7022c-.0625-.125-.1133-.3477-.1523-.668-.5039.5234-1.1055.7852-1.8047.7852-.625,0-1.1377-.1768-1.5381-.5303s-.6006-.8018-.6006-1.3447c0-.6602.251-1.1729.7529-1.5381s1.208-.5479,2.1182-.5479h1.0547v-.498c0-.3789-.1133-.6807-.3398-.9053s-.5605-.3369-1.002-.3369c-.3867,0-.7109.0977-.9727.293s-.3926.4316-.3926.709h-1.0898c0-.3164.1123-.6221.3369-.917s.5293-.5283.9141-.7002.8076-.2578,1.2686-.2578c.7305,0,1.3027.1826,1.7168.5479s.6289.8682.6445,1.5088v2.918c0,.582.0742,1.0449.2227,1.3887v.0938h-1.1367Zm-1.7988-.8262c.3398,0,.6621-.0879.9668-.2637s.5254-.4043.6621-.6855v-1.3008h-.8496c-1.3281,0-1.9922.3887-1.9922,1.166,0,.3398.1133.6055.3398.7969s.5176.2871.873.2871Z"/>
      <path class="cls-5" d="m244.8126,268.7666l-.6797.709v2.2266h-1.084v-9h1.084v5.4434l.5801-.6973,1.9746-2.0859h1.3184l-2.4668,2.6484,2.7539,3.6914h-1.2715l-2.209-2.9355Z"/>
      <path class="cls-5" d="m250.5959,263.8272v1.5352h1.1836v.8379h-1.1836v3.9365c0,.2544.0527.4448.1582.5723.1055.127.2852.1904.5391.1904.125,0,.2969-.0234.5156-.0703v.874c-.2852.0771-.5625.1162-.832.1162-.4844,0-.8496-.1465-1.0957-.4395s-.3691-.709-.3691-1.248v-3.9316h-1.1543v-.8379h1.1543v-1.5352h1.084Z"/>
      <path class="cls-5" d="m256.9591,271.0752c-.4219.4961-1.041.7441-1.8574.7441-.6758,0-1.1904-.1963-1.5439-.5889s-.5322-.9736-.5361-1.7432v-4.125h1.084v4.0957c0,.9609.3906,1.4414,1.1719,1.4414.8281,0,1.3789-.3086,1.6523-.9258v-4.6113h1.084v6.3398h-1.0312l-.0234-.627Z"/>
      <path class="cls-5" d="m263.5744,271.7022c-.0625-.125-.1133-.3477-.1523-.668-.5039.5234-1.1055.7852-1.8047.7852-.625,0-1.1377-.1768-1.5381-.5303s-.6006-.8018-.6006-1.3447c0-.6602.251-1.1729.7529-1.5381s1.208-.5479,2.1182-.5479h1.0547v-.498c0-.3789-.1133-.6807-.3398-.9053s-.5605-.3369-1.002-.3369c-.3867,0-.7109.0977-.9727.293s-.3926.4316-.3926.709h-1.0898c0-.3164.1123-.6221.3369-.917s.5293-.5283.9141-.7002.8076-.2578,1.2686-.2578c.7305,0,1.3027.1826,1.7168.5479s.6289.8682.6445,1.5088v2.918c0,.582.0742,1.0449.2227,1.3887v.0938h-1.1367Zm-1.7988-.8262c.3398,0,.6621-.0879.9668-.2637s.5254-.4043.6621-.6855v-1.3008h-.8496c-1.3281,0-1.9922.3887-1.9922,1.166,0,.3398.1133.6055.3398.7969s.5176.2871.873.2871Zm1.002-8.1738h1.3125l-1.5703,1.7227-.873-.0029,1.1309-1.7197Z"/>
      <path class="cls-5" d="m267.3654,271.7022h-1.084v-9h1.084v9Z"/>
      <path class="cls-5" d="m270.1251,265.3623l.0352.7969c.4844-.6094,1.1172-.9141,1.8984-.9141,1.3398,0,2.0156.7559,2.0273,2.2676v4.1895h-1.084v-4.1953c-.0039-.457-.1084-.7949-.3135-1.0137s-.5244-.3281-.958-.3281c-.3516,0-.6602.0938-.9258.2812s-.4727.4336-.6211.7383v4.5176h-1.084v-6.3398h1.0254Z"/>
      <path class="cls-5" d="m276.9103,262.708h1.3125l-1.5703,1.7227-.873-.0029,1.1309-1.7197Zm-.0117,8.9941h-1.0898v-6.3398h1.0898v6.3398Z"/>
      <path class="cls-5" d="m284.1994,270.9346c.3867,0,.7246-.1172,1.0137-.3516s.4492-.5273.4805-.8789h1.0254c-.0195.3633-.1445.709-.375,1.0371s-.5381.5898-.9229.7852-.792.293-1.2217.293c-.8633,0-1.5498-.2881-2.0596-.8643s-.7646-1.3643-.7646-2.3643v-.1816c0-.6172.1133-1.166.3398-1.6465s.5518-.8535.9756-1.1191.9248-.3984,1.5029-.3984c.7109,0,1.3018.2129,1.7725.6387s.7217.9785.7529,1.6582h-1.0254c-.0312-.4102-.1865-.7471-.4658-1.0107s-.624-.3955-1.0342-.3955c-.5508,0-.9775.1982-1.2803.5947s-.4541.9697-.4541,1.7197v.2051c0,.7305.1504,1.293.4512,1.6875s.7305.5918,1.2891.5918Z"/>
      <path class="cls-5" d="m289.1271,262.708h1.3125l-1.5703,1.7227-.873-.0029,1.1309-1.7197Zm-.0117,8.9941h-1.0898v-6.3398h1.0898v6.3398Z"/>
      <path class="cls-5" d="m292.0802,271.7022h-1.084v-9h1.084v9Z"/>
      <path class="cls-5" d="m303.2306,268.9951c-.1055.9023-.4385,1.5986-.999,2.0889s-1.3057.7354-2.2354.7354c-1.0078,0-1.8154-.3613-2.4229-1.084s-.9111-1.6895-.9111-2.9004v-.8203c0-.793.1416-1.4902.4248-2.0918s.6846-1.0635,1.2041-1.3857,1.1211-.4834,1.8047-.4834c.9062,0,1.6328.2529,2.1797.7588s.8652,1.2061.9551,2.1006h-1.1309c-.0977-.6816-.3096-1.1753-.6357-1.481s-.7822-.4585-1.3682-.4585c-.7188,0-1.2822.2656-1.6904.7979-.4082.5312-.6123,1.2881-.6123,2.269v.8271c0,.9263.1934,1.6636.5801,2.2109s.9277.8208,1.623.8208c.625,0,1.1045-.1416,1.4385-.4248s.5557-.7764.665-1.4795h1.1309Zm-3.293-7.3066l.8789-.9961h.9375v.0586l-1.4883,1.6055h-.6621l-1.4707-1.6055v-.0586h.9199l.8848.9961Z"/>
      <path class="cls-5" d="m307.8947,268.251h-2.0039v3.4512h-1.1309v-8.5312h2.8242c.9609,0,1.7002.2188,2.2178.6562s.7764,1.0742.7764,1.9102c0,.5312-.1436.9941-.4307,1.3887s-.6865.6895-1.1982.8848l2.0039,3.6211v.0703h-1.207l-1.8516-3.4512Zm-2.0039-.9199h1.7285c.5586,0,1.0029-.1445,1.333-.4346.3301-.2896.4951-.6768.4951-1.1621,0-.5283-.1572-.9331-.4717-1.2148s-.7686-.4248-1.3623-.4287h-1.7227v3.2402Z"/>
    </g>
  </g>
  <g>
    <path class="cls-7" d="m18.3131,16.9544v3.3398h-1.125v-8.5312h3.1465c.9336,0,1.665.2383,2.1943.7148s.7939,1.1074.7939,1.8926c0,.8281-.2588,1.4658-.7764,1.9131s-1.2588.6709-2.2236.6709h-2.0098Zm0-.9199h2.0215c.6016,0,1.0625-.1418,1.3828-.4255s.4805-.6936.4805-1.2297c0-.5088-.1602-.9155-.4805-1.2209-.3203-.3052-.7598-.4636-1.3184-.4753h-2.0859v3.3516Z"/>
    <path class="cls-7" d="m27.8874,16.843h-2.0039v3.4512h-1.1309v-8.5312h2.8242c.9609,0,1.7002.2188,2.2178.6562s.7764,1.0742.7764,1.9102c0,.5312-.1436.9941-.4307,1.3887s-.6865.6895-1.1982.8848l2.0039,3.6211v.0703h-1.207l-1.8516-3.4512Zm-2.0039-.9199h1.7285c.5586,0,1.0029-.1448,1.333-.4343s.4951-.677.4951-1.1624c0-.5283-.1572-.9331-.4717-1.2151-.3145-.2817-.7686-.4246-1.3623-.4285h-1.7227v3.2402Z"/>
    <path class="cls-7" d="m38.7096,16.304c0,.8359-.1406,1.5654-.4219,2.1885s-.6797,1.0986-1.1953,1.4268-1.1172.4922-1.8047.4922c-.6719,0-1.2676-.165-1.7871-.4951s-.9229-.8008-1.21-1.4121-.4346-1.3193-.4424-2.124v-.6152c0-.8203.1426-1.5449.4277-2.1738s.6885-1.1104,1.21-1.4443,1.1182-.501,1.79-.501c.6836,0,1.2861.165,1.8076.4951s.9229.8086,1.2041,1.4355.4219,1.3564.4219,2.1885v.5391Zm-1.1191-.5508c0-1.0117-.2031-1.7881-.6094-2.3291s-.9746-.8115-1.7051-.8115c-.7109,0-1.2705.2705-1.6787.8115s-.6182,1.292-.6299,2.2529v.627c0,.9805.2061,1.751.6182,2.3115s.9795.8408,1.7021.8408c.7266,0,1.2891-.2646,1.6875-.7939s.6035-1.2881.6152-2.2764v-.6328Z"/>
    <path class="cls-7" d="m40.3971,20.2942v-8.5312h2.7891c.9258,0,1.6221.1914,2.0889.5742s.7002.9492.7002,1.6992c0,.3984-.1133.751-.3398,1.0576s-.5352.5439-.9258.7119c.4609.1289.8252.374,1.0928.7354s.4014.792.4014,1.292c0,.7656-.248,1.3672-.7441,1.8047s-1.1973.6562-2.1035.6562h-2.959Zm1.125-4.8926h1.6992c.4922,0,.8857-.1233,1.1807-.3699s.4424-.5813.4424-1.0042c0-.4697-.1367-.8113-.4102-1.0247s-.6895-.3201-1.248-.3201h-1.6641v2.7188Zm0,.9023v3.0703h1.8574c.5234,0,.9365-.1357,1.2393-.4072s.4541-.6455.4541-1.1221c0-1.0273-.5586-1.541-1.6758-1.541h-1.875Z"/>
    <path class="cls-7" d="m49.0397,9.4075h1.3125l-1.5703,1.7227-.873-.0029,1.1309-1.7197Zm.0352,10.8867h-1.125v-8.5312h1.125v8.5312Z"/>
    <path class="cls-7" d="m57.6881,20.2942h-1.1309v-3.9434h-4.3008v3.9434h-1.125v-8.5312h1.125v3.668h4.3008v-3.668h1.1309v8.5312Z"/>
    <path class="cls-7" d="m64.5026,18.0618h-3.5742l-.8027,2.2324h-1.1602l3.2578-8.5312h.9844l3.2637,8.5312h-1.1543l-.8145-2.2324Zm-3.2344-.9199h2.9004l-1.4531-3.9902-1.4473,3.9902Z"/>
    <path class="cls-7" d="m75.3014,18.0618h-3.5742l-.8027,2.2324h-1.1602l3.2578-8.5312h.9844l3.2637,8.5312h-1.1543l-.8145-2.2324Zm-3.2344-.9199h2.9004l-1.4531-3.9902-1.4473,3.9902Z"/>
    <path class="cls-7" d="m80.5866,16.3274l-1.043,1.084v2.8828h-1.125v-8.5312h1.125v4.2188l3.791-4.2188h1.3594l-3.3574,3.7676,3.6211,4.7637h-1.3477l-3.0234-3.9668Z"/>
    <path class="cls-7" d="m91.8366,12.6829h-2.7422v7.6113h-1.1191v-7.6113h-2.7363v-.9199h6.5977v.9199Z"/>
    <path class="cls-7" d="m99.1081,11.7629v5.8008c-.0039.8047-.2568,1.4629-.7588,1.9746s-1.1826.7988-2.042.8613l-.2988.0117c-.9336,0-1.6777-.252-2.2324-.7559s-.8359-1.1973-.8438-2.0801v-5.8125h1.1133v5.7773c0,.6172.1699,1.0967.5098,1.4385s.8242.5127,1.4531.5127c.6367,0,1.124-.1699,1.4619-.5098s.5068-.8184.5068-1.4355v-5.7832h1.1309Z"/>
    <path class="cls-7" d="m105.4655,18.0618h-3.5742l-.8027,2.2324h-1.1602l3.2578-8.5312h.9844l3.2637,8.5312h-1.1543l-.8145-2.2324Zm-3.2344-.9199h2.9004l-1.4531-3.9902-1.4473,3.9902Z"/>
    <path class="cls-7" d="m109.7135,19.3743h4.043v.9199h-5.1738v-8.5312h1.1309v7.6113Z"/>
    <path class="cls-7" d="m116.2467,20.2942h-1.125v-8.5312h1.125v8.5312Z"/>
    <path class="cls-7" d="m119.1471,19.3743h4.8809v.9199h-6.2109v-.8438l4.6758-6.7676h-4.5996v-.9199h5.9473v.821l-4.6934,6.7903Z"/>
    <path class="cls-7" d="m130.2741,18.0618h-3.5742l-.8027,2.2324h-1.1602l3.2578-8.5312h.9844l3.2637,8.5312h-1.1543l-.8145-2.2324Zm-3.2344-.9199h2.9004l-1.4531-3.9902-1.4473,3.9902Z"/>
    <path class="cls-7" d="m139.6667,17.5872c-.1055.9023-.4385,1.5986-.999,2.0889s-1.3057.7354-2.2354.7354c-1.0078,0-1.8154-.3613-2.4229-1.084s-.9111-1.6895-.9111-2.9004v-.8203c0-.793.1416-1.4902.4248-2.0918s.6846-1.0635,1.2041-1.3857,1.1211-.4834,1.8047-.4834c.9062,0,1.6328.2529,2.1797.7588s.8652,1.2061.9551,2.1006h-1.1309c-.0977-.6816-.3096-1.1755-.6357-1.481-.3262-.3057-.7822-.4585-1.3682-.4585-.7188,0-1.2822.2659-1.6904.7976s-.6123,1.2881-.6123,2.2693v.8271c0,.9265.1934,1.6636.5801,2.2107.3867.5474.9277.821,1.623.821.625,0,1.1045-.1416,1.4385-.4248s.5557-.7764.665-1.4795h1.1309Z"/>
    <path class="cls-7" d="m146.0241,16.3508h-3.6973v3.0234h4.2949v.9199h-5.4199v-8.5312h5.3613v.9199h-4.2363v2.748h3.6973v.9199Z"/>
    <path class="cls-7" d="m151.8366,19.3743h4.8809v.9199h-6.2109v-.8438l4.6758-6.7676h-4.5996v-.9199h5.9473v.821l-4.6934,6.7903Z"/>
    <path class="cls-7" d="m162.8874,18.0618h-3.5742l-.8027,2.2324h-1.1602l3.2578-8.5312h.9844l3.2637,8.5312h-1.1543l-.8145-2.2324Zm-3.2344-.9199h2.9004l-1.4531-3.9902-1.4473,3.9902Zm2.0039-7.6641h1.3125l-1.5703,1.7227-.873-.0029,1.1309-1.7197Z"/>
    <path class="cls-7" d="m168.8288,18.8001l2.4375-7.0371h1.2305l-3.1641,8.5312h-.9961l-3.1582-8.5312h1.2246l2.4258,7.0371Z"/>
    <path class="cls-7" d="m177.9108,18.0618h-3.5742l-.8027,2.2324h-1.1602l3.2578-8.5312h.9844l3.2637,8.5312h-1.1543l-.8145-2.2324Zm-3.2344-.9199h2.9004l-1.4531-3.9902-1.4473,3.9902Z"/>
    <path class="cls-7" d="m181.8717,19.3743h4.8809v.9199h-6.2109v-.8438l4.6758-6.7676h-4.5996v-.9199h5.9473v.821l-4.6934,6.7903Z"/>
    <path class="cls-7" d="m190.3795,16.3274l-1.043,1.084v2.8828h-1.125v-8.5312h1.125v4.2188l3.791-4.2188h1.3594l-3.3574,3.7676,3.6211,4.7637h-1.3477l-3.0234-3.9668Z"/>
    <path class="cls-7" d="m201.7409,11.7629v5.8008c-.0039.8047-.2568,1.4629-.7588,1.9746s-1.1826.7988-2.042.8613l-.2988.0117c-.9336,0-1.6777-.252-2.2324-.7559s-.8359-1.1973-.8438-2.0801v-5.8125h1.1133v5.7773c0,.6172.1699,1.0967.5098,1.4385s.8242.5127,1.4531.5127c.6367,0,1.124-.1699,1.4619-.5098s.5068-.8184.5068-1.4355v-5.7832h1.1309Z"/>
  </g>
  <path class="cls-11" d="m43.1773,356.8992h259.9506"/>
  <path class="cls-11" d="m43.1773,143.5489h259.9506"/>
  <circle class="cls-2" cx="303.1606" cy="216.0754" r="10.5349"/>
  <circle class="cls-3" cx="303.1606" cy="216.0754" r="5.9997"/>
  <rect class="cls-2" x="36.4659" y="136.2796" width="123.1247" height="17.078"/>
  <g>
    <path class="cls-4" d="m44.2067,144.2876c0,.9648-.2207,1.7422-.6621,2.332s-1.0391.8848-1.793.8848c-.7695,0-1.375-.2441-1.8164-.7324v3.0527h-1.084v-8.7773h.9902l.0527.7031c.4414-.5469,1.0547-.8203,1.8398-.8203.7617,0,1.3643.2871,1.8076.8613s.665,1.373.665,2.3965v.0996Zm-1.084-.123c0-.7148-.1523-1.2793-.457-1.6934s-.7227-.6211-1.2539-.6211c-.6562,0-1.1484.291-1.4766.873v3.0293c.3242.5781.8203.8672,1.4883.8672.5195,0,.9326-.2061,1.2393-.6182s.46-1.0244.46-1.8369Z"/>
    <path class="cls-4" d="m48.2145,147.5044c-.8594,0-1.5586-.2822-2.0977-.8467s-.8086-1.3193-.8086-2.2646v-.1992c0-.6289.1201-1.1904.3604-1.6846s.5762-.8809,1.0078-1.1602.8994-.4189,1.4033-.4189c.8242,0,1.4648.2715,1.9219.8145s.6855,1.3203.6855,2.332v.4512h-4.2949c.0156.625.1982,1.1299.5479,1.5146s.7939.5771,1.333.5771c.3828,0,.707-.0781.9727-.2344s.498-.3633.6973-.6211l.6621.5156c-.5312.8164-1.3281,1.2246-2.3906,1.2246Zm-.1348-5.6836c-.4375,0-.8047.1592-1.1016.4775s-.4805.7646-.5508,1.3389h3.1758v-.082c-.0312-.5508-.1797-.9775-.4453-1.2803s-.625-.4541-1.0781-.4541Z"/>
    <path class="cls-4" d="m53.4118,139.5122v1.5352h1.1836v.8379h-1.1836v3.9365c0,.2544.0527.4448.1582.5723.1055.127.2852.1904.5391.1904.125,0,.2969-.0234.5156-.0703v.874c-.2852.0771-.5625.1162-.832.1162-.4844,0-.8496-.1465-1.0957-.4395s-.3691-.709-.3691-1.248v-3.9316h-1.1543v-.8379h1.1543v-1.5352h1.084Z"/>
    <path class="cls-4" d="m59.7751,147.3872c-.0625-.125-.1133-.3477-.1523-.668-.5039.5234-1.1055.7852-1.8047.7852-.625,0-1.1377-.1768-1.5381-.5303s-.6006-.8018-.6006-1.3447c0-.6602.251-1.1729.7529-1.5381s1.208-.5479,2.1182-.5479h1.0547v-.498c0-.3789-.1133-.6807-.3398-.9053s-.5605-.3369-1.002-.3369c-.3867,0-.7109.0977-.9727.293s-.3926.4316-.3926.709h-1.0898c0-.3164.1123-.6221.3369-.917s.5293-.5283.9141-.7002.8076-.2578,1.2686-.2578c.7305,0,1.3027.1826,1.7168.5479s.6289.8682.6445,1.5088v2.918c0,.582.0742,1.0449.2227,1.3887v.0938h-1.1367Zm-1.7988-.8262c.3398,0,.6621-.0879.9668-.2637s.5254-.4043.6621-.6855v-1.3008h-.8496c-1.3281,0-1.9922.3887-1.9922,1.166,0,.3398.1133.6055.3398.7969s.5176.2871.873.2871Z"/>
    <path class="cls-4" d="m63.5075,141.0474v7.0723c0,1.2188-.5527,1.8281-1.6582,1.8281-.2383,0-.459-.0352-.6621-.105v-.8618c.125.0312.2891.0469.4922.0469.2422,0,.4268-.0654.5537-.1963s.1904-.3589.1904-.6831v-7.1011h1.084Zm-1.1953-1.6816c0-.1719.0537-.3193.1611-.4424s.2646-.1846.4717-.1846c.2109,0,.3711.0605.4805.1816s.1641.2695.1641.4453-.0547.3223-.1641.4395-.2695.1758-.4805.1758-.3691-.0586-.4746-.1758-.1582-.2637-.1582-.4395Z"/>
    <path class="cls-4" d="m64.9665,144.1587c0-.6211.1221-1.1797.3662-1.6758s.584-.8789,1.0195-1.1484.9326-.4043,1.4912-.4043c.8633,0,1.5615.2988,2.0947.8965s.7998,1.3926.7998,2.3848v.0762c0,.6172-.1182,1.1709-.3545,1.6611s-.5742.8721-1.0137,1.1455-.9443.4102-1.5146.4102c-.8594,0-1.5557-.2988-2.0889-.8965s-.7998-1.3887-.7998-2.373v-.0762Zm1.0898.1289c0,.7031.1631,1.2676.4893,1.6934s.7627.6387,1.3096.6387c.5508,0,.9883-.2158,1.3125-.6475s.4863-1.0361.4863-1.8135c0-.6953-.165-1.2588-.4951-1.6904s-.7686-.6475-1.3154-.6475c-.5352,0-.9668.2129-1.2949.6387s-.4922,1.0352-.4922,1.8281Z"/>
    <path class="cls-4" d="m76.0114,146.7603c-.4219.4961-1.041.7441-1.8574.7441-.6758,0-1.1904-.1963-1.5439-.5889s-.5322-.9736-.5361-1.7432v-4.125h1.084v4.0957c0,.9609.3906,1.4414,1.1719,1.4414.8281,0,1.3789-.3086,1.6523-.9258v-4.6113h1.084v6.3398h-1.0312l-.0234-.627Z"/>
    <path class="cls-4" d="m79.8903,147.3872h-1.084v-9h1.084v9Z"/>
    <path class="cls-4" d="m85.5387,146.7603c-.4219.4961-1.041.7441-1.8574.7441-.6758,0-1.1904-.1963-1.5439-.5889s-.5322-.9736-.5361-1.7432v-4.125h1.084v4.0957c0,.9609.3906,1.4414,1.1719,1.4414.8281,0,1.3789-.3086,1.6523-.9258v-4.6113h1.084v6.3398h-1.0312l-.0234-.627Zm-.1523-7.6875c0,.3398-.1211.624-.3633.8525s-.541.3428-.8965.3428c-.3594,0-.6592-.1152-.8994-.3457s-.3604-.5137-.3604-.8496.1201-.623.3604-.8613.54-.3574.8994-.3574.6592.1191.8994.3574.3604.5254.3604.8613Zm-1.9395,0c0,.1836.0654.3418.1963.4746s.292.1992.4834.1992c.1875,0,.3477-.0645.4805-.1934s.1992-.2891.1992-.4805-.0654-.3545-.1963-.4893-.292-.2021-.4834-.2021c-.1953,0-.3574.0684-.4863.2051s-.1934.2988-.1934.4863Z"/>
    <path class="cls-4" d="m91.1696,143.9243c0-.8828.1182-1.7305.3545-2.543s.5889-1.5508,1.0576-2.2148.9551-1.1328,1.459-1.4062l.2227.7148c-.5703.4375-1.0381,1.1055-1.4033,2.0039s-.5654,1.9043-.6006,3.0176l-.0059.498c0,1.5078.2754,2.8164.8262,3.9258.332.6641.7266,1.1836,1.1836,1.5586l-.2227.6621c-.5195-.2891-1.0156-.7734-1.4883-1.4531-.9219-1.3281-1.3828-2.916-1.3828-4.7637Z"/>
    <path class="cls-4" d="m99.777,144.522h1.1836v.8848h-1.1836v1.9805h-1.0898v-1.9805h-3.8848v-.6387l3.8203-5.9121h1.1543v5.666Zm-3.7441,0h2.6543v-4.1836l-.1289.2344-2.5254,3.9492Z"/>
    <path class="cls-4" d="m105.5016,147.3872h-1.0898v-7.2246l-2.1855.8027v-.9844l3.1055-1.166h.1699v8.5723Z"/>
    <path class="cls-4" d="m112.9313,138.8501v.9199h-.1992c-.8438.0156-1.5156.2656-2.0156.75s-.7891,1.166-.8672,2.0449c.4492-.5156,1.0625-.7734,1.8398-.7734.7422,0,1.335.2617,1.7783.7852s.665,1.1992.665,2.0273c0,.8789-.2393,1.582-.7178,2.1094s-1.1201.791-1.9248.791c-.8164,0-1.4785-.3135-1.9863-.9404s-.7617-1.4346-.7617-2.4229v-.416c0-1.5703.335-2.7705,1.0049-3.6006s1.667-1.2549,2.9912-1.2744h.1934Zm-1.4238,3.8438c-.3711,0-.7129.1113-1.0254.334s-.5293.502-.6504.8379v.3984c0,.7031.1582,1.2695.4746,1.6992s.7109.6445,1.1836.6445c.4883,0,.8721-.1797,1.1514-.5391s.4189-.8301.4189-1.4121c0-.5859-.1416-1.0596-.4248-1.4209s-.6592-.542-1.1279-.542Z"/>
    <path class="cls-4" d="m115.4918,149.0864l-.6152-.4219c.3672-.5117.5586-1.0391.5742-1.582v-.9785h1.0605v.8496c0,.3945-.0967.7891-.29,1.1836s-.4365.7109-.7295.9492Z"/>
    <path class="cls-4" d="m123.279,139.4653l-3.5332,7.9219h-1.1367l3.5215-7.6406h-4.6172v-.8906h5.7656v.6094Z"/>
    <path class="cls-4" d="m133.4215,139.7759h-2.7422v7.6113h-1.1191v-7.6113h-2.7363v-.9199h6.5977v.9199Z"/>
    <path class="cls-4" d="m136.6149,144.6978l.1641,1.125.2402-1.0137,1.6875-5.9531h.9492l1.6465,5.9531.2344,1.0312.1816-1.1484,1.3242-5.8359h1.1309l-2.0684,8.5312h-1.0254l-1.7578-6.2168-.1348-.6504-.1348.6504-1.8223,6.2168h-1.0254l-2.0625-8.5312h1.125l1.3477,5.8418Z"/>
    <path class="cls-4" d="m146.3356,141.8149c.4805-.5898,1.1055-.8848,1.875-.8848,1.3398,0,2.0156.7559,2.0273,2.2676v4.1895h-1.084v-4.1953c-.0039-.457-.1084-.7949-.3135-1.0137s-.5244-.3281-.958-.3281c-.3516,0-.6602.0938-.9258.2812s-.4727.4336-.6211.7383v4.5176h-1.084v-9h1.084v3.4277Z"/>
    <path class="cls-4" d="m154.3629,143.9829c0,.8711-.1143,1.7061-.3428,2.5049s-.5781,1.5361-1.0488,2.2119-.9639,1.1562-1.4795,1.4414l-.2285-.6621c.6016-.4609,1.085-1.1768,1.4502-2.1475s.5518-2.0479.5596-3.2314v-.1875c0-.8203-.0859-1.583-.2578-2.2881s-.4111-1.3369-.7178-1.8955-.6514-.9941-1.0342-1.3066l.2285-.6621c.5156.2852,1.0068.7617,1.4736,1.4297s.8164,1.4043,1.0488,2.209.3486,1.666.3486,2.584Z"/>
  </g>
  <g>
    <rect class="cls-2" x="65.8835" y="165.1395" width="65.6226" height="20.3328"/>
    <g>
      <path class="cls-1" d="m80.5026,180.3472c0-.332-.1172-.5869-.3516-.7646s-.6562-.3652-1.2656-.5625-1.0918-.3916-1.4473-.583c-.9688-.5234-1.4531-1.2285-1.4531-2.1152,0-.4609.1299-.8721.3896-1.2334s.6328-.6436,1.1191-.8467,1.0322-.3047,1.6377-.3047c.6094,0,1.1523.1104,1.6289.3311s.8467.5322,1.1104.9346.3955.8594.3955,1.3711h-1.7578c0-.3906-.123-.6943-.3691-.9111s-.5918-.3252-1.0371-.3252c-.4297,0-.7637.0908-1.002.2725s-.3574.4209-.3574.7178c0,.2773.1396.5098.4189.6973s.6904.3633,1.2334.5273c1,.3008,1.7285.6738,2.1855,1.1191s.6855,1,.6855,1.6641c0,.7383-.2793,1.3174-.8379,1.7373s-1.3105.6299-2.2559.6299c-.6562,0-1.2539-.1201-1.793-.3604s-.9502-.5693-1.2334-.9873-.4248-.9023-.4248-1.4531h1.7637c0,.9414.5625,1.4121,1.6875,1.4121.418,0,.7441-.085.9785-.2549s.3516-.4072.3516-.7119Z"/>
      <path class="cls-1" d="m85.3717,174.687v1.5586h1.084v1.2422h-1.084v3.1641c0,.2344.0449.4023.1348.5039s.2617.1523.5156.1523c.1875,0,.3535-.0137.498-.041v1.2832c-.332.1016-.6738.1523-1.0254.1523-1.1875,0-1.793-.5996-1.8164-1.7988v-3.416h-.9258v-1.2422h.9258v-1.5586h1.6934Z"/>
      <path class="cls-1" d="m91.0729,182.5855c-.0781-.1523-.1348-.3418-.1699-.5684-.4102.457-.9434.6855-1.5996.6855-.6211,0-1.1357-.1797-1.5439-.5391s-.6123-.8125-.6123-1.3594c0-.6719.249-1.1875.7471-1.5469s1.2178-.541,2.1592-.5449h.7793v-.3633c0-.293-.0752-.5273-.2256-.7031s-.3877-.2637-.7119-.2637c-.2852,0-.5088.0684-.6709.2051s-.2432.3242-.2432.5625h-1.6934c0-.3672.1133-.707.3398-1.0195s.5469-.5576.9609-.7354.8789-.2666,1.3945-.2666c.7812,0,1.4014.1963,1.8604.5889s.6885.9443.6885,1.6553v2.748c.0039.6016.0879,1.0566.252,1.3652v.0996h-1.7109Zm-1.4004-1.1777c.25,0,.4805-.0557.6914-.167s.3672-.2607.4688-.4482v-1.0898h-.6328c-.8477,0-1.2988.293-1.3535.8789l-.0059.0996c0,.2109.0742.3848.2227.5215s.3516.2051.6094.2051Z"/>
      <path class="cls-1" d="m96.1178,180.5171l1.1777-4.2715h1.7695l-2.1387,6.3398h-1.6172l-2.1387-6.3398h1.7695l1.1777,4.2715Z"/>
      <path class="cls-1" d="m105.1706,180.5171l1.1777-4.2715h1.7695l-2.1387,6.3398h-1.6172l-2.1387-6.3398h1.7695l1.1777,4.2715Z"/>
      <path class="cls-1" d="m118.6588,179.7437c-.0664.918-.4053,1.6406-1.0166,2.168s-1.417.791-2.417.791c-1.0938,0-1.9541-.3682-2.5811-1.1045s-.9404-1.7471-.9404-3.0322v-.5215c0-.8203.1445-1.543.4336-2.168s.7021-1.1045,1.2393-1.4385,1.1611-.501,1.8721-.501c.9844,0,1.7773.2637,2.3789.791s.9492,1.2676,1.043,2.2207h-1.7578c-.043-.5508-.1963-.9502-.46-1.1982s-.665-.3721-1.2041-.3721c-.5859,0-1.0244.21-1.3154.6299s-.4404,1.0713-.4482,1.9541v.6445c0,.9219.1396,1.5957.4189,2.0215s.7197.6387,1.3213.6387c.543,0,.9482-.124,1.2158-.3721s.4209-.6318.46-1.1514h1.7578Zm-3.4277-7.1895l.8555-.8379h1.4473v.0645l-1.7695,1.6465h-1.0723l-1.7695-1.6582v-.0527h1.4473l.8613.8379Z"/>
      <path class="cls-1" d="m122.9713,179.4624h-1.4004v3.123h-1.7578v-8.5312h3.1699c1.0078,0,1.7852.2246,2.332.6738s.8203,1.084.8203,1.9043c0,.582-.126,1.0674-.3779,1.4561s-.6338.6982-1.1455.9287l1.8457,3.4863v.082h-1.8867l-1.5996-3.123Zm-1.4004-1.4238h1.418c.4414,0,.7832-.1123,1.0254-.3369s.3633-.5342.3633-.9287c0-.4023-.1143-.7188-.3428-.9492s-.5791-.3457-1.0518-.3457h-1.4121v2.5605Z"/>
    </g>
  </g>
  <g>
    <polyline class="cls-10" points="43.1773 158.6897 49.5983 182.1387 56.0193 184.6677 62.4404 189.7791 68.8614 202.7539 75.2824 204.9116 81.7034 201.8816 88.1244 204.3474 94.5454 211.479 100.9664 218.0203 107.3875 212.9343 113.8085 209.1567 120.2295 213.7449 126.6505 205.74 133.0715 204.5129 139.4925 206.1533 145.9136 204.1514 152.3346 208.2373 158.7556 208.3535 165.1766 214.4124 171.5976 211.9519 178.0186 217.8728 184.4396 217.9546 190.8607 219.4258 197.2817 224.6043 203.7027 219.6621 210.1237 215.1697 216.5447 209.5034 222.9657 211.4248 229.3868 211.1487 235.8078 214.6323 240.9188 204.7239"/>
    <path class="cls-1" d="m243.523,206.2366c.7614-1.4763.1819-3.2908-1.2942-4.052-1.4761-.7615-3.2906-.1819-4.052,1.2942-.7614,1.4761-.1819,3.2905,1.2943,4.052,1.4761.7615,3.2906.1819,4.052-1.2942Z"/>
  </g>
  <g>
    <path class="cls-8" d="m20.1364,48.2197h6.4512v2.1182h-9.7471v-1.5469l6.3281-9.1143h-6.3193v-2.1357h9.5977v1.5117l-6.3105,9.167Z"/>
    <path class="cls-8" d="m31.404,47.2354l1.7666-6.4072h2.6543l-3.208,9.5098h-2.4258l-3.208-9.5098h2.6543l1.7666,6.4072Z"/>
    <path class="cls-8" d="m40.4918,46.7432l1.7578-5.915h2.7246l-3.8232,10.9863-.2109.501c-.5684,1.2422-1.5059,1.8633-2.8125,1.8633-.3691,0-.7441-.0557-1.125-.167v-1.9248l.3867.0088c.4805,0,.8394-.0732,1.0767-.2197s.4233-.3896.5581-.7295l.2988-.7822-3.3311-9.5361h2.7334l1.7666,5.915Zm.5537-9.9053h2.7686l-2.4346,2.7246h-2.0654l1.7314-2.7246Z"/>
    <path class="cls-8" d="m51.1266,47.71c0-.3105-.1538-.5552-.4614-.7339s-.8013-.3384-1.481-.479c-2.2617-.4746-3.3926-1.4355-3.3926-2.8828,0-.8438.3501-1.5483,1.0503-2.1138s1.6157-.8481,2.7466-.8481c1.207,0,2.1724.2842,2.896.8525s1.0854,1.3066,1.0854,2.2148h-2.54c0-.3633-.1172-.6636-.3516-.9009s-.6006-.356-1.0986-.356c-.4277,0-.7588.0967-.9932.29s-.3516.4395-.3516.7383c0,.2812.1333.5083.3999.6812s.7163.3223,1.3491.4482,1.166.2681,1.5996.4263c1.3418.4922,2.0127,1.3447,2.0127,2.5576,0,.8672-.3721,1.5688-1.1162,2.105s-1.7051.8042-2.8828.8042c-.7969,0-1.5044-.1421-2.1226-.4263s-1.103-.6738-1.4546-1.1689-.5273-1.0298-.5273-1.604h2.4082c.0234.4512.1904.7969.501,1.0371s.7266.3604,1.248.3604c.4863,0,.854-.0923,1.103-.2769s.3735-.4263.3735-.7251Zm-1.4766-9.624l1.2832-1.2568h2.1709v.0967l-2.6543,2.4697h-1.6084l-2.6543-2.4873v-.0791h2.1709l1.292,1.2568Z"/>
    <path class="cls-8" d="m59.6081,50.5137c-1.3945,0-2.5298-.4277-3.4058-1.2832s-1.314-1.9951-1.314-3.4189v-.2461c0-.9551.1846-1.8091.5537-2.562s.8921-1.333,1.5688-1.7402,1.4487-.6108,2.3159-.6108c1.3008,0,2.3247.4102,3.0718,1.2305s1.1206,1.9834,1.1206,3.4893v1.0371h-6.0557c.082.6211.3296,1.1191.7427,1.4941s.936.5625,1.5688.5625c.9785,0,1.7432-.3545,2.2939-1.0635l1.248,1.3975c-.3809.5391-.8965.9595-1.5469,1.2612s-1.3711.4526-2.1621.4526Zm-.29-7.8135c-.5039,0-.9126.1709-1.2261.5122s-.5142.8301-.6021,1.4653h3.5332v-.2031c-.0117-.5649-.1641-1.002-.457-1.311-.293-.3086-.709-.4634-1.248-.4634Z"/>
    <path class="cls-8" d="m67.2985,40.8281l.0791,1.0986c.6797-.8496,1.5908-1.2744,2.7334-1.2744,1.0078,0,1.7578.2959,2.25.8877s.7441,1.4766.7559,2.6543v6.1436h-2.54v-6.082c0-.5391-.1172-.9302-.3516-1.1733s-.624-.3647-1.1689-.3647c-.7148,0-1.251.3047-1.6084.9141v6.7061h-2.54v-9.5098h2.3906Z"/>
    <path class="cls-8" d="m77.7838,50.3379h-2.54v-9.5098h2.54v9.5098Zm-.7471-13.3682h2.7686l-2.4346,2.7246h-2.0654l1.7314-2.7246Z"/>
    <path class="cls-8" d="m88.8317,50.5137c-1.3945,0-2.5298-.4277-3.4058-1.2832s-1.314-1.9951-1.314-3.4189v-.2461c0-.9551.1846-1.8091.5537-2.562s.8921-1.333,1.5688-1.7402,1.4487-.6108,2.3159-.6108c1.3008,0,2.3247.4102,3.0718,1.2305s1.1206,1.9834,1.1206,3.4893v1.0371h-6.0557c.082.6211.3296,1.1191.7427,1.4941s.936.5625,1.5688.5625c.9785,0,1.7432-.3545,2.2939-1.0635l1.248,1.3975c-.3809.5391-.8965.9595-1.5469,1.2612s-1.3711.4526-2.1621.4526Zm-.29-7.8135c-.5039,0-.9126.1709-1.2261.5122s-.5142.8301-.6021,1.4653h3.5332v-.2031c-.0117-.5649-.1641-1.002-.457-1.311-.293-.3086-.709-.4634-1.248-.4634Z"/>
    <path class="cls-8" d="m96.5221,40.8281l.0791,1.0986c.6797-.8496,1.5908-1.2744,2.7334-1.2744,1.0078,0,1.7578.2959,2.25.8877s.7441,1.4766.7559,2.6543v6.1436h-2.54v-6.082c0-.5391-.1172-.9302-.3516-1.1733s-.624-.3647-1.1689-.3647c-.7148,0-1.251.3047-1.6084.9141v6.7061h-2.54v-9.5098h2.3906Z"/>
    <path class="cls-8" d="m108.6422,50.5137c-1.3945,0-2.5298-.4277-3.4058-1.2832s-1.314-1.9951-1.314-3.4189v-.2461c0-.9551.1846-1.8091.5537-2.562s.8921-1.333,1.5688-1.7402,1.4487-.6108,2.3159-.6108c1.3008,0,2.3247.4102,3.0718,1.2305s1.1206,1.9834,1.1206,3.4893v1.0371h-6.0557c.082.6211.3296,1.1191.7427,1.4941s.936.5625,1.5688.5625c.9785,0,1.7432-.3545,2.2939-1.0635l1.248,1.3975c-.3809.5391-.8965.9595-1.5469,1.2612s-1.3711.4526-2.1621.4526Zm-.29-7.8135c-.5039,0-.9126.1709-1.2261.5122s-.5142.8301-.6021,1.4653h3.5332v-.2031c-.0117-.5649-.1641-1.002-.457-1.311-.293-.3086-.709-.4634-1.248-.4634Z"/>
    <path class="cls-8" d="m119.3385,43.21c-.3457-.0469-.6504-.0703-.9141-.0703-.9609,0-1.5908.3252-1.8896.9756v6.2227h-2.54v-9.5098h2.3994l.0703,1.1338c.5098-.873,1.2158-1.3096,2.1182-1.3096.2812,0,.5449.0381.791.1143l-.0352,2.4434Z"/>
    <path class="cls-8" d="m120.1911,45.5127c0-1.459.3472-2.6338,1.0415-3.5244s1.6304-1.3359,2.8081-1.3359c1.043,0,1.8545.3574,2.4346,1.0723l.1055-.8965h2.3027v9.1934c0,.832-.189,1.5557-.5669,2.1709s-.9097,1.084-1.5952,1.4062-1.4883.4834-2.4082.4834c-.6973,0-1.377-.1392-2.0391-.4175s-1.1631-.6372-1.5029-1.0767l1.125-1.5469c.6328.709,1.4004,1.0635,2.3027,1.0635.6738,0,1.1982-.1802,1.5732-.5405s.5625-.8716.5625-1.5337v-.5098c-.5859.6621-1.3564.9932-2.3115.9932-1.1426,0-2.0669-.4468-2.7729-1.3403s-1.0591-2.0786-1.0591-3.5552v-.1055Zm2.54.1895c0,.8623.1729,1.5386.5186,2.0288.3457.4897.8203.7349,1.4238.7349.7734,0,1.3271-.2905,1.6611-.8716v-4.0049c-.3398-.5811-.8877-.8716-1.6436-.8716-.6094,0-1.0884.2495-1.437.7485-.3486.4985-.5229,1.2441-.5229,2.2358Z"/>
    <path class="cls-8" d="m135.2116,50.5137c-1.3945,0-2.5298-.4277-3.4058-1.2832s-1.314-1.9951-1.314-3.4189v-.2461c0-.9551.1846-1.8091.5537-2.562s.8921-1.333,1.5688-1.7402,1.4487-.6108,2.3159-.6108c1.3008,0,2.3247.4102,3.0718,1.2305s1.1206,1.9834,1.1206,3.4893v1.0371h-6.0557c.082.6211.3296,1.1191.7427,1.4941s.936.5625,1.5688.5625c.9785,0,1.7432-.3545,2.2939-1.0635l1.248,1.3975c-.3809.5391-.8965.9595-1.5469,1.2612s-1.3711.4526-2.1621.4526Zm-.29-7.8135c-.5039,0-.9126.1709-1.2261.5122s-.5142.8301-.6021,1.4653h3.5332v-.2031c-.0117-.5649-.1641-1.002-.457-1.311-.293-.3086-.709-.4634-1.248-.4634Z"/>
    <path class="cls-8" d="m143.6051,38.4902v2.3379h1.626v1.8633h-1.626v4.7461c0,.3516.0674.6035.2021.7559s.3926.2285.7734.2285c.2812,0,.5303-.0205.7471-.0615v1.9248c-.498.1523-1.0107.2285-1.5381.2285-1.7812,0-2.6895-.8994-2.7246-2.6982v-5.124h-1.3887v-1.8633h1.3887v-2.3379h2.54Z"/>
    <path class="cls-8" d="m146.6286,38.3672c0-.3809.1274-.6943.3823-.9404s.6021-.3691,1.0415-.3691c.4336,0,.7793.123,1.0371.3691s.3867.5596.3867.9404c0,.3867-.1304.7031-.3911.9492s-.605.3691-1.0327.3691-.772-.123-1.0327-.3691-.3911-.5625-.3911-.9492Zm2.6982,11.9707h-2.5488v-9.5098h2.5488v9.5098Z"/>
    <path class="cls-8" d="m155.3737,48.4658c.4688,0,.8496-.1289,1.1426-.3867s.4453-.6006.457-1.0283h2.3818c-.0059.6445-.1816,1.2349-.5273,1.771s-.8188.9521-1.4194,1.248-1.2642.4438-1.9907.4438c-1.3594,0-2.4316-.4321-3.2168-1.2964s-1.1777-2.0581-1.1777-3.5815v-.167c0-1.4648.3896-2.6338,1.1689-3.5068s1.8486-1.3096,3.208-1.3096c1.1895,0,2.1431.3384,2.8608,1.0151s1.0825,1.5776,1.0942,2.7026h-2.3818c-.0117-.4946-.1641-.8965-.457-1.2061-.293-.3091-.6797-.4639-1.1602-.4639-.5918,0-1.0386.2158-1.3403.647-.3018.4316-.4526,1.1313-.4526,2.0996v.2642c0,.98.1494,1.6841.4482,2.1123.2988.4287.7529.6426,1.3623.6426Z"/>
    <path class="cls-8" d="m164.2594,46.5234l-.9141.9141v2.9004h-2.54v-13.5h2.54v7.4795l.4922-.6328,2.4346-2.8564h3.0498l-3.4365,3.9639,3.7354,5.5459h-2.918l-2.4434-3.8145Z"/>
    <path class="cls-8" d="m174.7975,50.5137c-1.3945,0-2.5298-.4277-3.4058-1.2832s-1.314-1.9951-1.314-3.4189v-.2461c0-.9551.1846-1.8091.5537-2.562s.8921-1.333,1.5688-1.7402,1.4487-.6108,2.3159-.6108c1.3008,0,2.3247.4102,3.0718,1.2305s1.1206,1.9834,1.1206,3.4893v1.0371h-6.0557c.082.6211.3296,1.1191.7427,1.4941s.936.5625,1.5688.5625c.9785,0,1.7432-.3545,2.2939-1.0635l1.248,1.3975c-.3809.5391-.8965.9595-1.5469,1.2612s-1.3711.4526-2.1621.4526Zm-.29-7.8135c-.5039,0-.9126.1709-1.2261.5122s-.5142.8301-.6021,1.4653h3.5332v-.2031c-.0117-.5649-.1641-1.002-.457-1.311-.293-.3086-.709-.4634-1.248-.4634Zm.2285-5.8623h2.7686l-2.4346,2.7246h-2.0654l1.7314-2.7246Z"/>
    <path class="cls-8" d="m190.3278,49.3711c-.627.7617-1.4941,1.1426-2.6016,1.1426-1.0195,0-1.7974-.293-2.3335-.8789s-.8101-1.4443-.8218-2.5752v-6.2314h2.54v6.1509c0,.9912.4512,1.4868,1.3535,1.4868.8613,0,1.4531-.2988,1.7754-.8975v-6.7402h2.5488v9.5098h-2.3906l-.0703-.9668Zm-1.1338-12.5332h2.7686l-2.4346,2.7246h-2.0654l1.7314-2.7246Z"/>
    <path class="cls-8" d="m198.6598,48.4658c.4688,0,.8496-.1289,1.1426-.3867s.4453-.6006.457-1.0283h2.3818c-.0059.6445-.1816,1.2349-.5273,1.771s-.8188.9521-1.4194,1.248-1.2642.4438-1.9907.4438c-1.3594,0-2.4316-.4321-3.2168-1.2964s-1.1777-2.0581-1.1777-3.5815v-.167c0-1.4648.3896-2.6338,1.1689-3.5068s1.8486-1.3096,3.208-1.3096c1.1895,0,2.1431.3384,2.8608,1.0151s1.0825,1.5776,1.0942,2.7026h-2.3818c-.0117-.4946-.1641-.8965-.457-1.2061-.293-.3091-.6797-.4639-1.1602-.4639-.5918,0-1.0386.2158-1.3403.647-.3018.4316-.4526,1.1313-.4526,2.0996v.2642c0,.98.1494,1.6841.4482,2.1123.2988.4287.7529.6426,1.3623.6426Zm-.2373-10.3799l1.2832-1.2568h2.1709v.0967l-2.6543,2.4697h-1.6084l-2.6543-2.4873v-.0791h2.1709l1.292,1.2568Z"/>
    <path class="cls-8" d="m204.0739,38.3672c0-.3809.1274-.6943.3823-.9404s.6021-.3691,1.0415-.3691c.4336,0,.7793.123,1.0371.3691s.3867.5596.3867.9404c0,.3867-.1304.7031-.3911.9492s-.605.3691-1.0327.3691-.772-.123-1.0327-.3691-.3911-.5625-.3911-.9492Zm2.6982,11.9707h-2.5488v-9.5098h2.5488v9.5098Z"/>
    <path class="cls-8" d="m211.2018,40.8281l.0791,1.0986c.6797-.8496,1.5908-1.2744,2.7334-1.2744,1.0078,0,1.7578.2959,2.25.8877s.7441,1.4766.7559,2.6543v6.1436h-2.54v-6.082c0-.5391-.1172-.9302-.3516-1.1733s-.624-.3647-1.1689-.3647c-.7148,0-1.251.3047-1.6084.9141v6.7061h-2.54v-9.5098h2.3906Z"/>
    <path class="cls-8" d="m221.2829,40.8281l.0791,1.0986c.6797-.8496,1.5908-1.2744,2.7334-1.2744,1.0078,0,1.7578.2959,2.25.8877s.7441,1.4766.7559,2.6543v6.1436h-2.54v-6.082c0-.5391-.1172-.9302-.3516-1.1733s-.624-.3647-1.1689-.3647c-.7148,0-1.251.3047-1.6084.9141v6.7061h-2.54v-9.5098h2.3906Z"/>
    <path class="cls-8" d="m228.6305,45.4951c0-.9434.1816-1.7842.5449-2.5225s.8862-1.3096,1.5688-1.7139,1.4751-.6064,2.3774-.6064c1.2832,0,2.3306.3926,3.1421,1.1777s1.2642,1.8516,1.3579,3.1992l.0176.6504c0,1.459-.4072,2.6294-1.2217,3.5112s-1.9072,1.3228-3.2783,1.3228-2.4653-.4395-3.2827-1.3184-1.2261-2.0742-1.2261-3.5859v-.1143Zm2.54.1807c0,.9033.1699,1.5947.5098,2.0728.3398.4785.8262.7173,1.459.7173.6152,0,1.0957-.2363,1.4414-.7085.3457-.4727.5186-1.228.5186-2.2666,0-.8862-.1729-1.5728-.5186-2.0601-.3457-.4868-.832-.7305-1.459-.7305-.6211,0-1.1016.2422-1.4414.7261-.3398.4844-.5098,1.2344-.5098,2.2495Z"/>
    <path class="cls-8" d="m244.3542,47.71c0-.3105-.1538-.5552-.4614-.7339s-.8013-.3384-1.481-.479c-2.2617-.4746-3.3926-1.4355-3.3926-2.8828,0-.8438.3501-1.5483,1.0503-2.1138s1.6157-.8481,2.7466-.8481c1.207,0,2.1724.2842,2.896.8525s1.0854,1.3066,1.0854,2.2148h-2.54c0-.3633-.1172-.6636-.3516-.9009s-.6006-.356-1.0986-.356c-.4277,0-.7588.0967-.9932.29s-.3516.4395-.3516.7383c0,.2812.1333.5083.3999.6812s.7163.3223,1.3491.4482,1.166.2681,1.5996.4263c1.3418.4922,2.0127,1.3447,2.0127,2.5576,0,.8672-.3721,1.5688-1.1162,2.105s-1.7051.8042-2.8828.8042c-.7969,0-1.5044-.1421-2.1226-.4263s-1.103-.6738-1.4546-1.1689-.5273-1.0298-.5273-1.604h2.4082c.0234.4512.1904.7969.501,1.0371s.7266.3604,1.248.3604c.4863,0,.854-.0923,1.103-.2769s.3735-.4263.3735-.7251Z"/>
    <path class="cls-8" d="m251.4997,38.4902v2.3379h1.626v1.8633h-1.626v4.7461c0,.3516.0674.6035.2021.7559s.3926.2285.7734.2285c.2812,0,.5303-.0205.7471-.0615v1.9248c-.498.1523-1.0107.2285-1.5381.2285-1.7812,0-2.6895-.8994-2.7246-2.6982v-5.124h-1.3887v-1.8633h1.3887v-2.3379h2.54Z"/>
    <path class="cls-8" d="m254.5231,38.3672c0-.3809.1274-.6943.3823-.9404s.6021-.3691,1.0415-.3691c.4336,0,.7793.123,1.0371.3691s.3867.5596.3867.9404c0,.3867-.1304.7031-.3911.9492s-.605.3691-1.0327.3691-.772-.123-1.0327-.3691-.3911-.5625-.3911-.9492Zm2.6982,11.9707h-2.5488v-9.5098h2.5488v9.5098Z"/>
  </g>
  <rect class="cls-2" x="208.3317" y="165.1395" width="71.9999" height="30.813"/>
  <g>
    <path class="cls-1" d="m226.0299,177.471h-1.9756v-7.6152l-2.3584.7314v-1.6064l4.1221-1.4766h.2119v9.9668Z"/>
    <path class="cls-1" d="m239.4489,173.3557c0,1.3765-.2842,2.4292-.8545,3.1582-.5693.7292-1.4033,1.0938-2.502,1.0938-1.084,0-1.9141-.3577-2.4883-1.0732-.5742-.7153-.8682-1.7407-.8818-3.0762v-1.832c0-1.3899.2881-2.4448.8652-3.165.5762-.72,1.4072-1.0801,2.4912-1.0801,1.085,0,1.9141.3567,2.4883,1.0698.5742.7134.8682,1.7375.8818,3.0728v1.832Zm-1.9756-2.0142c0-.8257-.1123-1.4268-.3379-1.8032-.2256-.3762-.5781-.5645-1.0566-.5645-.4648,0-.8076.1792-1.0283.5371-.2217.3582-.3389.918-.3525,1.6799v2.4221c0,.812.1104,1.4155.332,1.8101.2207.3945.5752.5918,1.0625.5918.4834,0,.832-.1892,1.0459-.5679.2148-.3787.3262-.958.335-1.738v-2.3674Z"/>
    <path class="cls-1" d="m246.1413,167.4153v1.627h-.1914c-.8926.0137-1.6123.2461-2.1562.6973-.5449.4512-.8721,1.0779-.9814,1.8799.5293-.5376,1.1963-.8066,2.0029-.8066.8662,0,1.5547.3101,2.0645.9297.5107.6199.7656,1.4355.7656,2.4473,0,.6472-.1396,1.2329-.4199,1.7568-.2803.5242-.6768.9321-1.1895,1.2236-.5127.2917-1.0928.4375-1.7402.4375-1.0479,0-1.8945-.3645-2.5391-1.0938-.6455-.729-.9678-1.7021-.9678-2.9189v-.7109c0-1.0801.2041-2.0337.6123-2.8608.4072-.8271.9932-1.4673,1.7568-1.9209.7627-.4534,1.6484-.6824,2.6553-.687h.3281Zm-1.9277,4.9902c-.3184,0-.6084.083-.8682.249s-.4512.3855-.5742.6584v.6003c0,.6597.1299,1.1748.3896,1.5454.2598.3708.625.5562,1.0938.5562.4238,0,.7666-.1672,1.0293-.5015.2617-.3342.3926-.7676.3926-1.2998,0-.5413-.1318-.978-.3965-1.3101-.2637-.332-.6191-.498-1.0664-.498Z"/>
    <path class="cls-1" d="m254.6588,173.7249h1.1279v1.5928h-1.1279v2.1533h-1.9756v-2.1533h-4.0811l-.0889-1.2441,4.1494-6.5557h1.9961v6.207Zm-4.1768,0h2.2012v-3.5137l-.1299.2256-2.0713,3.2881Z"/>
    <path class="cls-1" d="m262.5954,173.9641v3.5068h-2.0508v-9.9531h3.8828c.748,0,1.4053.1367,1.9727.4102s1.0039.6621,1.3086,1.1655c.3057.5037.458,1.0767.458,1.7192,0,.9753-.334,1.7444-1.001,2.3071-.668.563-1.5918.8442-2.7725.8442h-1.7979Zm0-1.6611h1.832c.543,0,.9561-.1274,1.2412-.3828.2842-.2551.4268-.6196.4268-1.0938,0-.4875-.1436-.8818-.4307-1.1826s-.6836-.4556-1.1895-.4648h-1.8799v3.124Z"/>
    <path class="cls-1" d="m272.3297,167.5178h2.0508v6.8906c0,.6335-.1396,1.1929-.4199,1.6782s-.6758.8604-1.1865,1.1245c-.5098.2642-1.0869.3965-1.7295.3965-1.0527,0-1.873-.2676-2.4609-.8032-.5879-.5354-.8818-1.293-.8818-2.2729h2.0645c0,.4878.1025.8477.3076,1.0801s.5293.3486.9707.3486c.3926,0,.7041-.1343.9365-.4033.2324-.2688.3486-.6516.3486-1.1484v-6.8906Z"/>
    <path class="cls-1" d="m200.5319,190.231c0-1.0298.1377-2.0188.4141-2.9668.2754-.9478.6865-1.8091,1.2334-2.584.5469-.7747,1.1143-1.3215,1.7021-1.6406l.2598.834c-.665.5105-1.2109,1.2898-1.6367,2.3379-.4268,1.0483-.6602,2.2217-.7012,3.5205l-.0068.5811c0,1.7593.3213,3.2859.9639,4.5801.3877.7747.8477,1.3809,1.3809,1.8184l-.2598.7725c-.6055-.3374-1.1846-.9023-1.7363-1.6953-1.0752-1.5493-1.6133-3.4019-1.6133-5.5576Z"/>
    <path class="cls-1" d="m211.7565,194.271h-6.5215v-.9092l3.4453-3.8281c.5107-.5786.8623-1.0493,1.0566-1.4116.1934-.3623.29-.7371.29-1.1245,0-.5195-.1572-.9456-.4717-1.2783-.3145-.3325-.7334-.499-1.2578-.499-.6289,0-1.1172.179-1.4658.5366-.3486.3579-.5234.8557-.5234,1.4937h-1.2646c0-.916.2949-1.6565.8857-2.2217.5898-.5649,1.3799-.8477,2.3682-.8477.9258,0,1.6572.2427,2.1943.728.5381.4854.8066,1.1313.8066,1.938,0,.98-.624,2.1465-1.873,3.5l-2.666,2.8916h4.9971v1.0322Z"/>
    <path class="cls-1" d="m217.943,189.896c-.2637.3145-.5801.5674-.9463.7588-.3672.1914-.7695.2871-1.207.2871-.5742,0-1.0742-.1411-1.5-.4238-.4268-.2825-.7559-.6802-.9883-1.1929s-.3486-1.0789-.3486-1.6987c0-.6653.127-1.2646.3799-1.7979s.6113-.9409,1.0762-1.2236c.4648-.2825,1.0078-.4238,1.627-.4238.9844,0,1.7607.3682,2.3281,1.104.5674.7361.8506,1.7397.8506,3.0112v.3691c0,1.937-.3828,3.3508-1.1484,4.2417-.7656.8911-1.9209,1.3479-3.4658,1.3706h-.2461v-1.0732h.2666c1.0439-.0181,1.8457-.2898,2.4062-.8152s.8662-1.3564.916-2.4934Zm-1.9482,0c.4238,0,.8145-.1299,1.1729-.3896.3574-.2598.6182-.5811.7822-.9639v-.5059c0-.8293-.1797-1.5039-.54-2.0234-.3594-.5195-.8154-.7793-1.3672-.7793-.5557,0-1.002.2131-1.3398.6392-.3369.4263-.5059.9878-.5059,1.6851,0,.6792.1631,1.2385.4893,1.6782.3252.4399.7617.6597,1.3086.6597Z"/>
    <path class="cls-1" d="m221.5387,189.2808l.5059-4.9629h5.0996v1.1689h-4.0264l-.3008,2.7139c.4883-.2871,1.042-.4307,1.6611-.4307.9072,0,1.627.2998,2.1602.8989.5332.5994.7998,1.4094.7998,2.4302,0,1.0254-.2764,1.8333-.8301,2.4233-.5537.5903-1.3271.8853-2.3213.8853-.8789,0-1.5967-.2437-2.1533-.7314-.5557-.4875-.8721-1.1621-.9502-2.0234h1.1963c.0781.5698.2803.9993.6084,1.2886.3281.2896.7617.4341,1.2988.4341.5879,0,1.0498-.2004,1.3848-.6016.335-.4009.502-.9546.502-1.6611,0-.6653-.1807-1.1997-.543-1.603s-.8447-.605-1.4463-.605c-.5508,0-.9844.1208-1.2988.3623l-.335.2734-1.0117-.2598Z"/>
    <path class="cls-1" d="m228.9079,196.2534l-.7178-.4922c.4287-.5972.6523-1.2124.6699-1.8457v-1.1416h1.2373v.9912c0,.4604-.1123.9204-.3379,1.3809-.2256.4602-.5098.8293-.8516,1.1074Z"/>
    <path class="cls-1" d="m236.5299,184.311v1.0732h-.2324c-.9844.0183-1.7676.3101-2.3516.875-.583.5652-.9199,1.3604-1.0117,2.3857.5244-.6016,1.2402-.9023,2.1465-.9023.8662,0,1.5576.3054,2.0752.916.5166.6108.7754,1.3992.7754,2.3652,0,1.0254-.2793,1.8457-.8369,2.4609-.5586.6152-1.3066.9229-2.2461.9229-.9521,0-1.7246-.3657-2.3174-1.0972-.5918-.7314-.8887-1.6736-.8887-2.8267v-.4854c0-1.832.3906-3.2322,1.1729-4.2007.7812-.9683,1.9443-1.4639,3.4893-1.4868h.2256Zm-1.6611,4.4844c-.4326,0-.8311.1299-1.1963.3896-.3643.2598-.6172.5857-.7588.9775v.4648c0,.8203.1846,1.4812.5537,1.9824.3691.5015.8301.752,1.3809.752.5703,0,1.0176-.2095,1.3438-.6289.3252-.4192.4883-.9683.4883-1.6475,0-.6836-.165-1.2361-.4951-1.6577-.3311-.4214-.7695-.6323-1.3164-.6323Z"/>
    <path class="cls-1" d="m249.8258,185.3911h-3.1992v8.8799h-1.3057v-8.8799h-3.1924v-1.0732h7.6973v1.0732Z"/>
    <path class="cls-1" d="m253.5514,191.1333l.1914,1.3125.2803-1.1826,1.9688-6.9453h1.1074l1.9209,6.9453.2734,1.2031.2119-1.3398,1.5449-6.8086h1.3193l-2.4131,9.9531h-1.1963l-2.0508-7.2529-.1572-.7588-.1572.7588-2.126,7.2529h-1.1963l-2.4062-9.9531h1.3125l1.5723,6.8154Z"/>
    <path class="cls-1" d="m264.8922,187.77c.5605-.688,1.29-1.0322,2.1875-1.0322,1.5635,0,2.3516.8818,2.3652,2.6455v4.8877h-1.2646v-4.8945c-.0039-.5332-.126-.9272-.3652-1.1826-.2393-.2551-.6123-.3828-1.1182-.3828-.4102,0-.7695.1094-1.0801.3281-.3096.2188-.5508.5059-.7246.8613v5.2705h-1.2646v-10.5h1.2646v3.999Z"/>
    <path class="cls-1" d="m274.2575,190.2993c0,1.0164-.1328,1.9905-.3994,2.9224-.2666.9321-.6748,1.792-1.2236,2.5806-.5498.7883-1.125,1.3489-1.7266,1.6816l-.2666-.7725c.7021-.5378,1.2656-1.373,1.6924-2.5054.4258-1.1323.6436-2.3892.6523-3.77v-.2188c0-.957-.0996-1.8467-.3008-2.6694-.2002-.8225-.4795-1.5596-.8369-2.2114-.3584-.6516-.7598-1.1597-1.207-1.5244l.2666-.7725c.6016.3328,1.1748.8887,1.7197,1.668.5439.7793.9521,1.6384,1.2236,2.5771.2705.939.4062,1.9438.4062,3.0146Z"/>
  </g>
</svg>