<?xml version="1.0" encoding="UTF-8"?><svg id="a" xmlns="http://www.w3.org/2000/svg" viewBox="0 0 330 310.04642792677032"><defs><style>.d{letter-spacing:-.00927734375em;}.e{letter-spacing:-.01171875em;}.f{letter-spacing:-.00732421875em;}.g,.h,.i{fill:#0032a1;}.g,.j{stroke-width:0px;}.k,.l,.m,.n,.o{stroke-miterlimit:10;}.k,.m{stroke-linecap:round;stroke-width:2px;}.k,.m,.o{stroke:#0032a1;}.k,.n,.o{fill:none;}.p{font-family:Roboto-Light, Roboto;font-weight:300;}.p,.q,.r,.s,.t,.u,.i{font-size:12px;}.p,.t,.u{fill:#808184;}.l{stroke:#0098eb;}.l,.m,.j{fill:#fff;}.q,.r,.v,.s,.t{font-family:Roboto-Regular, Roboto;}.r,.w{letter-spacing:-.009765625em;}.v,.x{font-size:14px;}.s{fill:#929497;}.u,.i,.x{font-family:Roboto-Bold, Roboto;font-weight:700;}.n{stroke:#9ea7b3;stroke-width:.5px;}.o{stroke-dasharray:0 0 4 4;stroke-width:.75px;}.y{fill:#0098eb;}</style></defs><text class="p" transform="translate(126.133316636434756 20.705374046667657)"><tspan class="d" x="0" y="0">r</tspan><tspan x="3.931640625" y="0">e</tspan><tspan class="e" x="10.13671875" y="0">f</tspan><tspan x="13.96875" y="0">e</tspan><tspan class="d" x="20.173828125" y="0">r</tspan><tspan x="24.10546875" y="0">enční </tspan><tspan class="w" x="55.2890625" y="0">r</tspan><tspan x="59.21484375" y="0">ok</tspan></text><path class="n" d="M43.177303896589365,242.949868121180316h259.950647317740732"/><path class="n" d="M43.177303896589365,207.076799897879937h259.950647317740732"/><path class="n" d="M43.177303896589365,171.203731674590017h259.950647317740732"/><path class="n" d="M43.177303896589365,135.960015525400195h259.950647317740732"/><path class="n" d="M43.177303896589365,278.193584270350129h259.950647317740732"/><path class="n" d="M43.177303896589365,100.086947302110275h259.950647317740732"/><path class="n" d="M43.177303896589365,64.843231152919998h259.950647317740732"/><text class="s" transform="translate(15.480118394247256 69.052419945105157)"><tspan x="0" y="0">0 %</tspan></text><text class="t" transform="translate(28.827286362997256 33.703787132605157)"><tspan x="0" y="0">1990</tspan></text><text class="u" transform="translate(126.930069566122256 33.703787132605157)"><tspan x="0" y="0">2005</tspan></text><text class="u" transform="translate(289.805313706747256 33.698904320105157)"><tspan x="0" y="0">2030</tspan></text><text class="t" transform="translate(231.407852769247256 33.698904320105157)"><tspan x="0" y="0">2021</tspan></text><text class="s" transform="translate(1.874649644247256 140.459646507605157)"><tspan x="0" y="0">−20 %</tspan></text><text class="s" transform="translate(1.874649644247256 211.576345726355157)"><tspan x="0" y="0">−40 %</tspan></text><rect class="j" x="73.673468903329194" y="69.471995334950407" width="65.622649795450343" height="20.332787200100029"/><text class="i" transform="translate(83.106705308309756 86.918142601355157)"><tspan x="0" y="0">St</tspan><tspan class="f" x="11.431640625" y="0">a</tspan><tspan x="17.77734375" y="0">v v ČR</tspan></text><text class="s" transform="translate(1.874649644247256 282.693533226355157)"><tspan x="0" y="0">−60 %</tspan></text><path class="n" d="M43.177303896589365,41.766860083230313v7.54263239473994"/><path class="n" d="M303.127951214330096,41.766860083230313v7.54263239473994"/><path class="n" d="M243.024021338989769,41.766860083230313v7.54263239473994"/><text class="i" transform="translate(243.023941636434756 93.662618919714532)"><tspan x="0" y="0">−10 %</tspan></text><path class="n" d="M140.754435920300239,41.766860083230313v7.54263239473994"/><path class="n" d="M43.177303896589365,242.949868121180316h259.950647317740732"/><path class="n" d="M43.177303896589365,207.076799897879937h259.950647317740732"/><path class="n" d="M43.177303896589365,171.203731674590017h259.950647317740732"/><path class="n" d="M43.177303896589365,135.960015525400195h259.950647317740732"/><path class="n" d="M43.177303896589365,278.193584270350129h259.950647317740732"/><path class="n" d="M43.177303896589365,100.086947302110275h259.950647317740732"/><path class="n" d="M43.177303896589365,64.843231152919998h259.950647317740732"/><rect class="j" x="189.266651761899993" y="159.036158395949997" width="103.300975734179701" height="22.12837976703986"/><text class="h" transform="translate(196.703995347372256 174.262014671667657)"><tspan class="q" x="0" y="0">Cíl p</tspan><tspan class="r" x="23.4140625" y="0">r</tspan><tspan class="q" x="27.36328125" y="0">o ČR</tspan><tspan class="v" x="52.388671875" y="0"> </tspan><tspan class="x" x="55.861328125" y="0">−26 %</tspan></text><rect class="j" x="215.615478991870077" y="211.375006682500043" width="76.952148504209617" height="22.128379767040315"/><text class="y" transform="translate(217.815323472372256 226.600881859167657)"><tspan class="q" x="0" y="0">Cíl EU</tspan><tspan class="v" x="31.27734375" y="0"> </tspan><tspan class="x" x="34.75" y="0">−40 %</tspan></text><circle class="l" cx="303.16055291386715" cy="208.024045450969879" r="6.073685797323719"/><polyline class="k" points="140.553775813049469 64.594175681449997 146.794254328669922 63.893492087699997 153.034732844299469 77.554624900199997 159.275089289609241 65.496519431449997 165.515567805229693 80.780454978319995 171.756046320859241 75.164488181449997 177.996524836479693 76.310972556449997 184.237003352109241 71.716245993949997 190.477481867729693 91.782408103319995 196.717960383359241 97.772154197069995 202.958438898979693 90.250669822069995 209.198917414609241 86.708189353319995 215.439395930229693 79.636900290819995 221.679874445859241 88.656431540819995 227.920352961479693 95.880552634569995 234.160709406799469 109.103208884569995 238.996280695859241 100.539976462699997"/><path class="g" d="M241.541446711479693,102.149839743949997c.816650390629547-1.4462890625.306030273440228-3.28125-1.140258789059772-4.097900390630002-1.4462890625-.816650390619998-3.28125-.30615234375-4.098022460940228,1.14013671875-.816650390620453,1.4462890625-.306030273430224,3.28125,1.14013671875,4.097900390630002,1.4462890625.816650390619998,3.281372070319776.30615234375,4.09814453125-1.14013671875Z"/><line class="o" x1="239.252077297209325" y1="100.086947302110275" x2="300.621622384739567" y2="152.966301958429995"/><circle class="m" cx="302.850741050777287" cy="154.887031112129989" r="6.07368579732406"/></svg>