<?xml version="1.0" encoding="UTF-8"?>
<svg id="Layer_1" data-name="Layer 1" xmlns="http://www.w3.org/2000/svg" width="330" height="366.9921" viewBox="0 0 330 366.9921">
  <g>
    <path d="m43.1773,299.8956h259.9506" fill="none" stroke="#d0d2d3" stroke-miterlimit="10" stroke-width=".5"/>
    <path d="m43.1773,264.0225h259.9506" fill="none" stroke="#d0d2d3" stroke-miterlimit="10" stroke-width=".5"/>
    <path d="m43.1773,228.1494h259.9506" fill="none" stroke="#55555c" stroke-miterlimit="10" stroke-width=".5"/>
    <path d="m43.1773,192.9057h259.9506" fill="none" stroke="#d0d2d3" stroke-miterlimit="10" stroke-width=".5"/>
    <path d="m43.1773,335.1393h259.9506" fill="none" stroke="#d0d2d3" stroke-miterlimit="10" stroke-width=".5"/>
    <path d="m43.1773,157.0326h259.9506" fill="none" stroke="#d0d2d3" stroke-miterlimit="10" stroke-width=".5"/>
    <path d="m43.1773,121.7889h259.9506" fill="none" stroke="#d0d2d3" stroke-miterlimit="10" stroke-width=".5"/>
  </g>
  <g>
    <path d="m24.7847,125.9981h-1.0898v-7.2246l-2.1855.8027v-.9844l3.1055-1.166h.1699v8.5723Z" fill="#929497"/>
    <path d="m28.4585,121.7208l.4336-4.2539h4.3711v1.002h-3.4512l-.2578,2.3262c.418-.2461.8926-.3691,1.4238-.3691.7773,0,1.3945.2568,1.8516.7705s.6855,1.208.6855,2.083c0,.8789-.2373,1.5713-.7119,2.0771s-1.1377.7588-1.9893.7588c-.7539,0-1.3691-.209-1.8457-.627s-.748-.9961-.8145-1.7344h1.0254c.0664.4883.2402.8564.5215,1.1045s.6523.3721,1.1133.3721c.5039,0,.8994-.1719,1.1865-.5156s.4307-.8184.4307-1.4238c0-.5703-.1553-1.0283-.4658-1.374s-.7236-.5186-1.2393-.5186c-.4727,0-.8438.1035-1.1133.3105l-.2871.2344-.8672-.2227Z" fill="#929497"/>
  </g>
  <path d="m28.4585,193.128l.4336-4.2539h4.3711v1.002h-3.4512l-.2578,2.3262c.418-.2461.8926-.3691,1.4238-.3691.7773,0,1.3945.2568,1.8516.7705s.6855,1.208.6855,2.083c0,.8789-.2373,1.5713-.7119,2.0771s-1.1377.7588-1.9893.7588c-.7539,0-1.3691-.209-1.8457-.627s-.748-.9961-.8145-1.7344h1.0254c.0664.4883.2402.8564.5215,1.1045s.6523.3721,1.1133.3721c.5039,0,.8994-.1719,1.1865-.5156s.4307-.8184.4307-1.4238c0-.5703-.1553-1.0283-.4658-1.374s-.7236-.5186-1.2393-.5186c-.4727,0-.8438.1035-1.1133.3105l-.2871.2344-.8672-.2227Z" fill="#929497"/>
  <g>
    <path d="m27.0171,265.3404h-2.8594v-.8848h2.8594v.8848Z" fill="#929497"/>
    <path d="m28.4585,264.2447l.4336-4.2539h4.3711v1.002h-3.4512l-.2578,2.3262c.418-.2461.8926-.3691,1.4238-.3691.7773,0,1.3945.2568,1.8516.7705s.6855,1.208.6855,2.083c0,.8789-.2373,1.5713-.7119,2.0771s-1.1377.7588-1.9893.7588c-.7539,0-1.3691-.209-1.8457-.627s-.748-.9961-.8145-1.7344h1.0254c.0664.4883.2402.8564.5215,1.1045s.6523.3721,1.1133.3721c.5039,0,.8994-.1719,1.1865-.5156s.4307-.8184.4307-1.4238c0-.5703-.1553-1.0283-.4658-1.374s-.7236-.5186-1.2393-.5186c-.4727,0-.8438.1035-1.1133.3105l-.2871.2344-.8672-.2227Z" fill="#929497"/>
  </g>
  <path d="m33.3101,229.0103c0,1.2695-.2168,2.2129-.6504,2.8301s-1.1113.9258-2.0332.9258c-.9102,0-1.584-.3018-2.0215-.9053s-.6641-1.5049-.6797-2.7041v-1.4473c0-1.2539.2168-2.1855.6504-2.7949s1.1133-.9141,2.0391-.9141c.918,0,1.5938.2939,2.0273.8818s.6562,1.4951.668,2.7217v1.4062Zm-1.084-1.4824c0-.918-.1289-1.5869-.3867-2.0068s-.666-.6299-1.2246-.6299c-.5547,0-.959.209-1.2129.627s-.3848,1.0605-.3926,1.9277v1.7344c0,.9219.1338,1.6025.4014,2.042s.6729.6592,1.2158.6592c.5352,0,.9326-.207,1.1924-.6211s.3955-1.0664.4072-1.957v-1.7754Z" fill="#929497"/>
  <g>
    <path d="m24.7847,162.1978h-1.0898v-7.2246l-2.1855.8027v-.9844l3.1055-1.166h.1699v8.5723Z" fill="#929497"/>
    <path d="m33.3101,158.5592c0,1.2695-.2168,2.2129-.6504,2.8301s-1.1113.9258-2.0332.9258c-.9102,0-1.584-.3018-2.0215-.9053s-.6641-1.5049-.6797-2.7041v-1.4473c0-1.2539.2168-2.1855.6504-2.7949s1.1133-.9141,2.0391-.9141c.918,0,1.5938.2939,2.0273.8818s.6562,1.4951.668,2.7217v1.4062Zm-1.084-1.4824c0-.918-.1289-1.5869-.3867-2.0068s-.666-.6299-1.2246-.6299c-.5547,0-.959.209-1.2129.627s-.3848,1.0605-.3926,1.9277v1.7344c0,.9219.1338,1.6025.4014,2.042s.6729.6592,1.2158.6592c.5352,0,.9326-.207,1.1924-.6211s.3955-1.0664.4072-1.957v-1.7754Z" fill="#929497"/>
  </g>
  <g>
    <path d="m20.2788,301.2132h-2.8594v-.8848h2.8594v.8848Z" fill="#929497"/>
    <path d="m24.7847,304.3948h-1.0898v-7.2246l-2.1855.8027v-.9844l3.1055-1.166h.1699v8.5723Z" fill="#929497"/>
    <path d="m33.3101,300.7562c0,1.2695-.2168,2.2129-.6504,2.8301s-1.1113.9258-2.0332.9258c-.9102,0-1.584-.3018-2.0215-.9053s-.6641-1.5049-.6797-2.7041v-1.4473c0-1.2539.2168-2.1855.6504-2.7949s1.1133-.9141,2.0391-.9141c.918,0,1.5938.2939,2.0273.8818s.6562,1.4951.668,2.7217v1.4062Zm-1.084-1.4824c0-.918-.1289-1.5869-.3867-2.0068s-.666-.6299-1.2246-.6299c-.5547,0-.959.209-1.2129.627s-.3848,1.0605-.3926,1.9277v1.7344c0,.9219.1338,1.6025.4014,2.042s.6729.6592,1.2158.6592c.5352,0,.9326-.207,1.1924-.6211s.3955-1.0664.4072-1.957v-1.7754Z" fill="#929497"/>
  </g>
  <g>
    <path d="m20.2788,336.4573h-2.8594v-.8848h2.8594v.8848Z" fill="#929497"/>
    <path d="m24.7847,339.639h-1.0898v-7.2246l-2.1855.8027v-.9844l3.1055-1.166h.1699v8.5723Z" fill="#929497"/>
    <path d="m28.4585,335.3616l.4336-4.2539h4.3711v1.002h-3.4512l-.2578,2.3262c.418-.2461.8926-.3691,1.4238-.3691.7773,0,1.3945.2568,1.8516.7705s.6855,1.208.6855,2.083c0,.8789-.2373,1.5713-.7119,2.0771s-1.1377.7588-1.9893.7588c-.7539,0-1.3691-.209-1.8457-.627s-.748-.9961-.8145-1.7344h1.0254c.0664.4883.2402.8564.5215,1.1045s.6523.3721,1.1133.3721c.5039,0,.8994-.1719,1.1865-.5156s.4307-.8184.4307-1.4238c0-.5703-.1553-1.0283-.4658-1.374s-.7236-.5186-1.2393-.5186c-.4727,0-.8438.1035-1.1133.3105l-.2871.2344-.8672-.2227Z" fill="#929497"/>
  </g>
  <g>
    <path d="m33.1226,90.6495h-1.0898v-7.2246l-2.1855.8027v-.9844l3.1055-1.166h.1699v8.5723Z" fill="#808184"/>
    <path d="m40.4527,86.8995c-.2266.2695-.4971.4863-.8115.6504s-.6592.2461-1.0342.2461c-.4922,0-.9209-.1211-1.2861-.3633s-.6475-.583-.8467-1.0225-.2988-.9248-.2988-1.4561c0-.5703.1084-1.084.3252-1.541s.5244-.8066.9229-1.0488.8633-.3633,1.3945-.3633c.8438,0,1.5088.3154,1.9951.9463s.7295,1.4912.7295,2.5811v.3164c0,1.6602-.3281,2.8721-.9844,3.6357s-1.6465,1.1553-2.9707,1.1748h-.2109v-.9199h.2285c.8945-.0156,1.582-.2485,2.0625-.6987s.7422-1.1626.7852-2.1372Zm-1.6699,0c.3633,0,.6982-.1113,1.0049-.334s.5303-.498.6709-.8262v-.4336c0-.7109-.1543-1.2891-.4629-1.7344s-.6992-.668-1.1719-.668c-.4766,0-.8594.1826-1.1484.5479s-.4336.8467-.4336,1.4443c0,.582.1396,1.0615.4189,1.4385s.6533.5654,1.1221.5654Z" fill="#808184"/>
    <path d="m47.191,86.8995c-.2266.2695-.4971.4863-.8115.6504s-.6592.2461-1.0342.2461c-.4922,0-.9209-.1211-1.2861-.3633s-.6475-.583-.8467-1.0225-.2988-.9248-.2988-1.4561c0-.5703.1084-1.084.3252-1.541s.5244-.8066.9229-1.0488.8633-.3633,1.3945-.3633c.8438,0,1.5088.3154,1.9951.9463s.7295,1.4912.7295,2.5811v.3164c0,1.6602-.3281,2.8721-.9844,3.6357s-1.6465,1.1553-2.9707,1.1748h-.2109v-.9199h.2285c.8945-.0156,1.582-.2485,2.0625-.6987s.7422-1.1626.7852-2.1372Zm-1.6699,0c.3633,0,.6982-.1113,1.0049-.334s.5303-.498.6709-.8262v-.4336c0-.7109-.1543-1.2891-.4629-1.7344s-.6992-.668-1.1719-.668c-.4766,0-.8594.1826-1.1484.5479s-.4336.8467-.4336,1.4443c0,.582.1396,1.0615.4189,1.4385s.6533.5654,1.1221.5654Z" fill="#808184"/>
    <path d="m55.1245,87.0108c0,1.2695-.2168,2.2129-.6504,2.8301s-1.1113.9258-2.0332.9258c-.9102,0-1.584-.3018-2.0215-.9053s-.6641-1.5049-.6797-2.7041v-1.4473c0-1.2539.2168-2.1855.6504-2.7949s1.1133-.9141,2.0391-.9141c.918,0,1.5938.2939,2.0273.8818s.6562,1.4951.668,2.7217v1.4062Zm-1.084-1.4824c0-.918-.1289-1.5869-.3867-2.0068s-.666-.6299-1.2246-.6299c-.5547,0-.959.209-1.2129.627s-.3848,1.0605-.3926,1.9277v1.7344c0,.9219.1338,1.6025.4014,2.042s.6729.6592,1.2158.6592c.5352,0,.9326-.207,1.1924-.6211s.3955-1.0664.4072-1.957v-1.7754Z" fill="#808184"/>
  </g>
  <g>
    <path d="m296.2334,90.6446h-5.8477v-1.1602l2.7598-2.9414c.3789-.4141.6592-.7754.8408-1.084s.2725-.6016.2725-.8789c0-.3789-.0957-.6768-.2871-.8936s-.4648-.3252-.8203-.3252c-.3828,0-.6846.1318-.9053.3955s-.3311.6104-.3311,1.04h-1.6992c0-.5195.124-.9941.3721-1.4238s.5986-.7666,1.0518-1.0107.9668-.3662,1.541-.3662c.8789,0,1.5615.2109,2.0479.6328s.7295,1.0176.7295,1.7871c0,.4219-.1094.8516-.3281,1.2891s-.5938.9473-1.125,1.5293l-1.9395,2.0449h3.668v1.3652Z" fill="#808184"/>
    <path d="m303.0127,87.1173c0,1.1797-.2441,2.082-.7324,2.707s-1.2031.9375-2.1445.9375c-.9297,0-1.6406-.3066-2.1328-.9199s-.7441-1.4922-.7559-2.6367v-1.5703c0-1.1914.2471-2.0957.7412-2.7129s1.2061-.9258,2.1357-.9258,1.6406.3057,2.1328.917.7441,1.4893.7559,2.6338v1.5703Zm-1.6934-1.7266c0-.7075-.0967-1.2227-.29-1.5454s-.4951-.4839-.9053-.4839c-.3984,0-.6924.1533-.8818.4604s-.29.7866-.3018,1.4399v2.0762c0,.6958.0947,1.2129.2842,1.5513s.4932.5073.9111.5073c.4141,0,.7129-.1621.8965-.4868.1836-.3242.2793-.8208.2871-1.4897v-2.0293Z" fill="#808184"/>
    <path d="m305.878,85.629h.9023c.4297,0,.748-.1074.9551-.3223s.3105-.5.3105-.8555c0-.3438-.1025-.6113-.3076-.8027s-.4873-.2871-.8467-.2871c-.3242,0-.5957.0889-.8145.2666s-.3281.4092-.3281.6943h-1.6934c0-.4453.1201-.8447.3604-1.1982s.5762-.6299,1.0078-.8291.9072-.2988,1.4268-.2988c.9023,0,1.6094.2158,2.1211.6475s.7676,1.0264.7676,1.7842c0,.3906-.1191.75-.3574,1.0781s-.5508.5801-.9375.7559c.4805.1719.8389.4297,1.0752.7734s.3545.75.3545,1.2188c0,.7578-.2764,1.3652-.8291,1.8223s-1.2842.6855-2.1943.6855c-.8516,0-1.5479-.2246-2.0889-.6738s-.8115-1.043-.8115-1.7812h1.6934c0,.3203.1201.582.3604.7852s.5361.3047.8877.3047c.4023,0,.7178-.1064.9463-.3193s.3428-.4951.3428-.8467c0-.8516-.4688-1.2773-1.4062-1.2773h-.8965v-1.3242Z" fill="#808184"/>
    <path d="m316.7823,87.1173c0,1.1797-.2441,2.082-.7324,2.707s-1.2031.9375-2.1445.9375c-.9297,0-1.6406-.3066-2.1328-.9199s-.7441-1.4922-.7559-2.6367v-1.5703c0-1.1914.2471-2.0957.7412-2.7129s1.2061-.9258,2.1357-.9258,1.6406.3057,2.1328.917.7441,1.4893.7559,2.6338v1.5703Zm-1.6934-1.7266c0-.7075-.0967-1.2227-.29-1.5454s-.4951-.4839-.9053-.4839c-.3984,0-.6924.1533-.8818.4604s-.29.7866-.3018,1.4399v2.0762c0,.6958.0947,1.2129.2842,1.5513s.4932.5073.9111.5073c.4141,0,.7129-.1621.8965-.4868.1836-.3242.2793-.8208.2871-1.4897v-2.0293Z" fill="#808184"/>
  </g>
  <g>
    <path d="m237.7305,90.6446h-5.5898v-.7793l2.9531-3.2812c.4375-.4961.7393-.8994.9053-1.21s.249-.6318.249-.9639c0-.4453-.1348-.8105-.4043-1.0957s-.6289-.4277-1.0781-.4277c-.5391,0-.958.1533-1.2568.46s-.4482.7334-.4482,1.2803h-1.084c0-.7852.2529-1.4199.7588-1.9043s1.1826-.7266,2.0303-.7266c.793,0,1.4199.208,1.8809.624s.6914.9697.6914,1.6611c0,.8398-.5352,1.8398-1.6055,3l-2.2852,2.4785h4.2832v.8848Z" fill="#808184"/>
    <path d="m244.2286,87.0059c0,1.2695-.2168,2.2129-.6504,2.8301s-1.1113.9258-2.0332.9258c-.9102,0-1.584-.3018-2.0215-.9053s-.6641-1.5049-.6797-2.7041v-1.4473c0-1.2539.2168-2.1855.6504-2.7949s1.1133-.9141,2.0391-.9141c.918,0,1.5938.2939,2.0273.8818s.6562,1.4951.668,2.7217v1.4062Zm-1.084-1.4824c0-.918-.1289-1.5869-.3867-2.0068s-.666-.6299-1.2246-.6299c-.5547,0-.959.209-1.2129.627s-.3848,1.0605-.3926,1.9277v1.7344c0,.9219.1338,1.6025.4014,2.042s.6729.6592,1.2158.6592c.5352,0,.9326-.207,1.1924-.6211s.3955-1.0664.4072-1.957v-1.7754Z" fill="#808184"/>
    <path d="m251.2071,90.6446h-5.5898v-.7793l2.9531-3.2812c.4375-.4961.7393-.8994.9053-1.21s.249-.6318.249-.9639c0-.4453-.1348-.8105-.4043-1.0957s-.6289-.4277-1.0781-.4277c-.5391,0-.958.1533-1.2568.46s-.4482.7334-.4482,1.2803h-1.084c0-.7852.2529-1.4199.7588-1.9043s1.1826-.7266,2.0303-.7266c.793,0,1.4199.208,1.8809.624s.6914.9697.6914,1.6611c0,.8398-.5352,1.8398-1.6055,3l-2.2852,2.4785h4.2832v.8848Z" fill="#808184"/>
    <path d="m255.918,90.6446h-1.0898v-7.2246l-2.1855.8027v-.9844l3.1055-1.166h.1699v8.5723Z" fill="#808184"/>
  </g>
  <path d="m43.1773,98.7126v7.5426" fill="none" stroke="#aaaaad" stroke-miterlimit="10" stroke-width=".5"/>
  <path d="m303.128,98.7126v7.5426" fill="none" stroke="#aaaaad" stroke-miterlimit="10" stroke-width=".5"/>
  <path d="m243.024,98.7126v7.5426" fill="none" stroke="#aaaaad" stroke-miterlimit="10" stroke-width=".5"/>
  <g>
    <path d="m16.3633,21.9276h5.5986v2.1182h-8.2354v-12.7969h2.6367v10.6787Z" fill="#2a2b33"/>
    <path d="m32.9483,11.2489v8.4287c0,1.4004-.438,2.5078-1.314,3.3223s-2.0728,1.2217-3.5903,1.2217c-1.4941,0-2.6807-.3955-3.5596-1.1865s-1.3271-1.8779-1.3447-3.2607v-8.5254h2.6367v8.4463c0,.8379.2007,1.4487.6021,1.8325s.9565.5757,1.6655.5757c1.4824,0,2.2354-.7793,2.2588-2.3379v-8.5166h2.6455Z" fill="#2a2b33"/>
    <path d="m37.7471,21.9276h5.5986v2.1182h-8.2354v-12.7969h2.6367v10.6787Z" fill="#2a2b33"/>
    <path d="m54.3321,11.2489v8.4287c0,1.4004-.438,2.5078-1.314,3.3223s-2.0728,1.2217-3.5903,1.2217c-1.4941,0-2.6807-.3955-3.5596-1.1865s-1.3271-1.8779-1.3447-3.2607v-8.5254h2.6367v8.4463c0,.8379.2007,1.4487.6021,1.8325s.9565.5757,1.6655.5757c1.4824,0,2.2354-.7793,2.2588-2.3379v-8.5166h2.6455Z" fill="#2a2b33"/>
    <path d="m66.5401,19.783c-.0996,1.377-.6079,2.4609-1.5249,3.252s-2.1255,1.1865-3.6255,1.1865c-1.6406,0-2.9312-.5522-3.8716-1.6567s-1.4106-2.6206-1.4106-4.5483v-.7822c0-1.2305.2168-2.3145.6504-3.252s1.0532-1.6567,1.8589-2.1577,1.7417-.7515,2.8081-.7515c1.4766,0,2.666.3955,3.5684,1.1865s1.4238,1.9014,1.5645,3.3311h-2.6367c-.0645-.8262-.2944-1.4253-.6899-1.7974s-.9976-.5581-1.8062-.5581c-.8789,0-1.5366.3149-1.9731.9448s-.6606,1.6069-.6724,2.9312v.9668c0,1.3828.2095,2.3936.6284,3.0322s1.0796.958,1.9819.958c.8145,0,1.4224-.186,1.8237-.5581s.6313-.9478.6899-1.7271h2.6367Z" fill="#2a2b33"/>
    <path d="m75.9707,18.8162h-5.0625v5.2295h-2.6367v-12.7969h8.332v2.1357h-5.6953v3.3047h5.0625v2.127Z" fill="#2a2b33"/>
    <path d="m13.2334,37.0863c0-1.1348.269-2.0474.8066-2.7378s1.2417-1.0356,2.1123-1.0356c.8657,0,1.5518.2964,2.0576.8887v-3.8555h1.2646v10.5h-1.1621l-.0615-.793c-.5059.6196-1.21.9297-2.1123.9297-.8569,0-1.5552-.3511-2.0952-1.0527s-.8101-1.6177-.8101-2.748v-.0957Zm1.2646.1436c0,.8384.1733,1.4946.5195,1.9688s.8247.7109,1.4355.7109c.8022,0,1.3877-.3599,1.7568-1.0801v-3.3975c-.3784-.6973-.9595-1.0459-1.7432-1.0459-.6196,0-1.103.2393-1.4492.7178s-.5195,1.187-.5195,2.126Z" fill="#2a2b33"/>
    <path d="m21.1016,37.0794c0-.7246.1426-1.3765.4272-1.9551s.6812-1.0254,1.1895-1.3398,1.0879-.4717,1.7397-.4717c1.0073,0,1.8218.3486,2.4438,1.0459s.9331,1.6245.9331,2.7822v.0889c0,.7202-.1377,1.3662-.4136,1.938s-.6699,1.0176-1.1826,1.3364-1.1016.4785-1.7671.4785c-1.0024,0-1.8149-.3486-2.437-1.0459s-.9331-1.6201-.9331-2.7686v-.0889Zm1.2715.1504c0,.8203.1904,1.479.5708,1.9756s.8896.7451,1.5278.7451c.6426,0,1.1528-.252,1.5312-.7554s.5674-1.209.5674-2.1157c0-.811-.1924-1.4688-.5776-1.9722s-.8965-.7554-1.5347-.7554c-.6245,0-1.1279.2485-1.5107.7451s-.5742,1.2075-.5742,2.1328Z" fill="#2a2b33"/>
    <path d="m36.462,34.5843c-.1914-.0317-.3989-.0479-.6221-.0479-.8296,0-1.3921.353-1.6885,1.0596v5.25h-1.2646v-7.3965h1.2305l.0205.8545c.4146-.6606,1.0024-.9912,1.7637-.9912.2461,0,.4331.0317.5605.0957v1.1758Z" fill="#2a2b33"/>
    <path d="m37.1524,37.0794c0-.7246.1426-1.3765.4272-1.9551s.6812-1.0254,1.1895-1.3398,1.0879-.4717,1.7397-.4717c1.0073,0,1.8218.3486,2.4438,1.0459s.9331,1.6245.9331,2.7822v.0889c0,.7202-.1377,1.3662-.4136,1.938s-.6699,1.0176-1.1826,1.3364-1.1016.4785-1.7671.4785c-1.0024,0-1.8149-.3486-2.437-1.0459s-.9331-1.6201-.9331-2.7686v-.0889Zm1.2715.1504c0,.8203.1904,1.479.5708,1.9756s.8896.7451,1.5278.7451c.6426,0,1.1528-.252,1.5312-.7554s.5674-1.209.5674-2.1157c0-.811-.1924-1.4688-.5776-1.9722s-.8965-.7554-1.5347-.7554c-.6245,0-1.1279.2485-1.5107.7451s-.5742,1.2075-.5742,2.1328Z" fill="#2a2b33"/>
    <path d="m47.5362,37.4212l-.793.8271v2.5977h-1.2646v-10.5h1.2646v6.3506l.6768-.8135,2.3037-2.4336h1.5381l-2.8779,3.0898,3.2129,4.3066h-1.4834l-2.5771-3.4248Z" fill="#2a2b33"/>
    <path d="m57.1338,40.1146c-.4922.5786-1.2144.8682-2.167.8682-.7886,0-1.3887-.229-1.8013-.687s-.6211-1.1357-.6255-2.0337v-4.8125h1.2646v4.7783c0,1.1211.4556,1.6816,1.3672,1.6816.9663,0,1.6089-.3599,1.9277-1.0801v-5.3799h1.2646v7.3965h-1.2031l-.0273-.7314Z" fill="#2a2b33"/>
    <path d="m70.1426,40.846h-6.5215v-.9092l3.4453-3.8281c.5103-.5786.8623-1.0493,1.0562-1.4116s.2905-.7373.2905-1.1245c0-.5195-.1572-.9458-.4717-1.2783s-.7339-.499-1.2578-.499c-.6289,0-1.1177.1787-1.4663.5366s-.5229.8555-.5229,1.4937h-1.2646c0-.916.2949-1.6567.8853-2.2217s1.3799-.8477,2.3687-.8477c.9253,0,1.6567.2427,2.1943.728s.8066,1.1313.8066,1.938c0,.98-.6245,2.1465-1.873,3.5l-2.666,2.8916h4.9971v1.0322Z" fill="#2a2b33"/>
    <path d="m77.7237,36.6009c0,1.481-.2529,2.5815-.7588,3.3018s-1.2964,1.0801-2.3721,1.0801c-1.062,0-1.8481-.3521-2.3584-1.0562s-.7749-1.7559-.793-3.1548v-1.6885c0-1.4629.2529-2.5498.7588-3.2607s1.2988-1.0664,2.3789-1.0664c1.0708,0,1.8594.3428,2.3652,1.0288s.7656,1.7441.7793,3.1753v1.6406Zm-1.2646-1.7295c0-1.0708-.1504-1.8516-.4512-2.3413s-.7769-.7349-1.4287-.7349c-.647,0-1.1187.2437-1.415.7314s-.4487,1.2373-.458,2.249v2.0234c0,1.0757.1562,1.8696.4683,2.3823s.7852.769,1.4185.769c.6245,0,1.0879-.2417,1.3911-.7246s.4614-1.2441.4751-2.2832v-2.0713Z" fill="#2a2b33"/>
    <path d="m81.1827,35.2542h.9502c.5972-.0093,1.0664-.1665,1.4082-.4717s.5127-.7178.5127-1.2373c0-1.1665-.5811-1.75-1.7432-1.75-.5469,0-.9834.1562-1.3091.4683s-.4888.7256-.4888,1.2407h-1.2646c0-.7886.2881-1.4434.8647-1.9653s1.3091-.7827,2.1978-.7827c.939,0,1.6748.2485,2.208.7451s.7998,1.187.7998,2.0713c0,.4331-.1401.8521-.4204,1.2578s-.6621.7085-1.145.9092c.5469.1733.9697.4604,1.2681.8613s.4478.8911.4478,1.4697c0,.8931-.2915,1.6021-.875,2.126s-1.3423.7861-2.2764.7861-1.6943-.2529-2.2798-.7588-.8784-1.1733-.8784-2.0029h1.2715c0,.5239.1709.9434.5127,1.2578s.7998.4717,1.374.4717c.6108,0,1.0776-.1597,1.4014-.4785s.4854-.7769.4854-1.374c0-.5786-.1777-1.0229-.5332-1.333s-.8682-.4692-1.5381-.4785h-.9502v-1.0322Z" fill="#2a2b33"/>
    <path d="m93.4463,36.6009c0,1.481-.2529,2.5815-.7588,3.3018s-1.2964,1.0801-2.3721,1.0801c-1.062,0-1.8481-.3521-2.3584-1.0562s-.7749-1.7559-.793-3.1548v-1.6885c0-1.4629.2529-2.5498.7588-3.2607s1.2988-1.0664,2.3789-1.0664c1.0708,0,1.8594.3428,2.3652,1.0288s.7656,1.7441.7793,3.1753v1.6406Zm-1.2646-1.7295c0-1.0708-.1504-1.8516-.4512-2.3413s-.7769-.7349-1.4287-.7349c-.647,0-1.1187.2437-1.415.7314s-.4487,1.2373-.458,2.249v2.0234c0,1.0757.1562,1.8696.4683,2.3823s.7852.769,1.4185.769c.6245,0,1.0879-.2417,1.3911-.7246s.4614-1.2441.4751-2.2832v-2.0713Z" fill="#2a2b33"/>
  </g>
  <g>
    <rect x="228.1824" y="255.874" width="83.9983" height="38.5707" fill="#fff"/>
    <g>
      <path d="m237.8614,256.9551h-3.8486v-1.5928h3.8486v1.5928Z" fill="#0032a1"/>
      <path d="m244.1641,260.421h-1.9756v-7.6152l-2.3584.7314v-1.6064l4.1221-1.4766h.2119v9.9668Z" fill="#0032a1"/>
      <path d="m247.9922,262.9161l-1.0322-.54.2461-.4443c.3052-.5562.4624-1.1099.4717-1.6611v-1.5312h1.668l-.0068,1.3672c-.0044.5059-.1323,1.0161-.3828,1.5312s-.5718.9409-.9639,1.2783Z" fill="#0032a1"/>
      <path d="m257.6377,260.421h-6.8223v-1.3535l3.2197-3.4316c.4419-.4829.769-.9048.981-1.2646s.3179-.7017.3179-1.0254c0-.4419-.1118-.7896-.335-1.0425s-.5425-.3794-.957-.3794c-.4468,0-.7988.1538-1.0562.4614s-.3862.7119-.3862,1.2134h-1.9824c0-.606.1445-1.1597.4341-1.6611s.6982-.8945,1.2271-1.1792,1.1279-.4272,1.7979-.4272c1.0254,0,1.8218.2461,2.3892.7383s.8511,1.187.8511,2.085c0,.4922-.1274.9937-.3828,1.5039s-.6929,1.105-1.3125,1.7842l-2.2627,2.3857h4.2793v1.5928Z" fill="#0032a1"/>
      <path d="m264.2686,253.0245l.0615.8271c.5239-.6426,1.2329-.9639,2.126-.9639.9526,0,1.6064.376,1.9619,1.1279.5195-.752,1.2603-1.1279,2.2217-1.1279.8022,0,1.3989.2334,1.791.7007s.5879,1.1699.5879,2.1089v4.7236h-1.9824v-4.7168c0-.4194-.082-.7256-.2461-.9194s-.4536-.2905-.8682-.2905c-.5923,0-1.0024.2827-1.2305.8477l.0068,5.0791h-1.9756v-4.71c0-.4282-.0845-.7383-.2529-.9297s-.4556-.2871-.8613-.2871c-.5605,0-.9663.2324-1.2168.6973v5.2295h-1.9756v-7.3965h1.8525Z" fill="#0032a1"/>
      <path d="m274.5225,251.1104c0-.2964.0991-.54.2974-.7314s.4683-.2871.8101-.2871c.3374,0,.606.0957.8066.2871s.3008.4351.3008.7314c0,.3008-.1016.5469-.3042.7383s-.4707.2871-.8032.2871-.6006-.0957-.8032-.2871-.3042-.4375-.3042-.7383Zm2.0986,9.3105h-1.9824v-7.3965h1.9824v7.3965Z" fill="#0032a1"/>
      <path d="m280.333,260.421h-1.9824v-10.5h1.9824v10.5Z" fill="#0032a1"/>
      <path d="m282.0625,259.4503c0-.3145.106-.5698.3179-.7656s.4775-.2939.7964-.2939c.3237,0,.5913.0981.8032.2939s.3179.4512.3179.7656c0,.3101-.105.5615-.3145.7554s-.4785.2905-.8066.2905c-.3237,0-.5903-.0967-.7998-.2905s-.3145-.4453-.3145-.7554Z" fill="#0032a1"/>
      <path d="m291.8789,251.2061v1.8184h1.2646v1.4492h-1.2646v3.6914c0,.2734.0522.4692.1572.5879s.3052.1777.6016.1777c.2188,0,.4126-.0161.5811-.0479v1.4971c-.3872.1187-.7861.1777-1.1963.1777-1.3853,0-2.0918-.6997-2.1191-2.0986v-3.9854h-1.0801v-1.4492h1.0801v-1.8184h1.9756Z" fill="#0032a1"/>
      <path d="m298.6739,259.669c-.4878.5923-1.1621.8887-2.0234.8887-.793,0-1.3979-.228-1.8149-.6836s-.6299-1.1235-.6392-2.0029v-4.8467h1.9756v4.7837c0,.7715.3511,1.1567,1.0527,1.1567.6699,0,1.1304-.2324,1.3809-.6982v-5.2422h1.9824v7.3965h-1.8594l-.0547-.752Z" fill="#0032a1"/>
      <path d="m303.8965,253.0245l.0615.8545c.5288-.6606,1.2373-.9912,2.126-.9912.7837,0,1.3672.23,1.75.6904s.5786,1.1484.5879,2.0645v4.7783h-1.9756v-4.7305c0-.4194-.0913-.7236-.2734-.9126s-.4854-.2837-.9092-.2837c-.5562,0-.9731.2368-1.251.7109v5.2158h-1.9756v-7.3965h1.8594Z" fill="#0032a1"/>
      <path d="m275.5274,273.9053c-.0776,1.0708-.4727,1.9141-1.186,2.5293s-1.6533.9231-2.8198.9231c-1.2759,0-2.2798-.4299-3.0112-1.2888s-1.0972-2.0381-1.0972-3.5376v-.6084c0-.957.1685-1.8003.5059-2.5293s.8193-1.2886,1.4458-1.6782,1.3545-.5845,2.1841-.5845c1.1484,0,2.0737.3076,2.7754.9229s1.1074,1.479,1.2168,2.5908h-2.0508c-.0503-.6426-.229-1.1084-.5366-1.3979s-.7759-.4341-1.4048-.4341c-.6836,0-1.1953.2451-1.5347.7349s-.5137,1.25-.5229,2.2798v.752c0,1.0757.1631,1.8618.4888,2.3584s.8398.7451,1.5415.7451c.6333,0,1.1064-.1445,1.4185-.4341s.4912-.7373.5366-1.3433h2.0508Z" fill="#0032a1"/>
      <path d="m285.0498,272.4698c0,.98-.1733,1.8389-.5195,2.5771s-.8418,1.3081-1.4868,1.709-1.3843.6018-2.2183.6018c-.8247,0-1.561-.1985-2.208-.595s-1.1484-.9629-1.5039-1.6987-.5356-1.5825-.54-2.5396v-.4922c0-.98.1768-1.8423.5298-2.5874s.8521-1.3169,1.4971-1.7158,1.3818-.5981,2.2114-.5981,1.5664.1992,2.2114.5981,1.144.9707,1.4971,1.7158.5298,1.6055.5298,2.5806v.4443Zm-2.0781-.4512c0-1.0435-.187-1.8364-.5605-2.3789s-.9067-.8135-1.5996-.8135c-.688,0-1.2192.2676-1.5928.8032s-.563,1.3203-.5674,2.355v.4854c0,1.0161.187,1.8047.5605,2.3652s.9116.8408,1.6133.8408c.688,0,1.2168-.27,1.5859-.8101s.5562-1.3271.5605-2.3618v-.4854Z" fill="#0032a1"/>
      <path d="m293.1504,277.221h-6.8223v-1.3538l3.2197-3.4316c.4419-.4829.769-.9048.981-1.2646s.3179-.7017.3179-1.0254c0-.4419-.1118-.7896-.335-1.0425s-.5425-.3794-.957-.3794c-.4468,0-.7988.1538-1.0562.4614s-.3862.7119-.3862,1.2134h-1.9824c0-.606.1445-1.1597.4341-1.6611s.6982-.8945,1.2271-1.1792,1.1279-.4272,1.7979-.4272c1.0254,0,1.8218.2461,2.3892.7383s.8511,1.187.8511,2.085c0,.4922-.1274.9937-.3828,1.5039s-.6929,1.105-1.3125,1.7842l-2.2627,2.3857h4.2793v1.593Z" fill="#0032a1"/>
      <path d="m297.8467,277.3577c-1.0845,0-1.9678-.3328-2.6489-.9983s-1.022-1.5518-1.022-2.6592v-.1914c0-.7427.1436-1.4072.4307-1.9927s.6938-1.0366,1.2202-1.3535,1.127-.4751,1.8013-.4751c1.0117,0,1.8081.3188,2.3892.957s.8716,1.5425.8716,2.7139v.8066h-4.71c.064.4829.2563.8706.5776,1.1621s.728.4375,1.2202.4375c.7612,0,1.356-.2759,1.7842-.8271l.9707,1.0869c-.2964.4194-.6973.7461-1.2031.981-.5059.2351-1.0664.3523-1.6816.3523Zm-.2256-6.0774c-.3921,0-.71.1328-.9536.3984s-.3999.6455-.4683,1.1396h2.748v-.1582c-.0093-.439-.1274-.7793-.3555-1.0195s-.5513-.3604-.9707-.3604Z" fill="#0032a1"/>
      <path d="m301.7022,273.4542c0-1.1621.2588-2.0806.7759-2.7549s1.2271-1.0117,2.1294-1.0117c.793,0,1.4243.3032,1.8936.9092l.1299-.7725h1.7363v10.2405h-1.9824v-3.4797c-.4556.5151-1.0527.7727-1.791.7727-.8794,0-1.5815-.342-2.1055-1.0256s-.7861-1.6431-.7861-2.8779Zm1.9756.1401c0,.7075.124,1.2461.3726,1.6157.2485.3701.5981.5547,1.0493.5547.606,0,1.0347-.2417,1.2852-.7256v-3.0605c-.2461-.4653-.6699-.6982-1.2715-.6982-.4556,0-.8091.1851-1.0596.5547s-.376.9561-.376,1.7593Z" fill="#0032a1"/>
      <path d="m284.5684,288.9144c-.1055.9023-.4385,1.5986-.999,2.0889s-1.3057.7354-2.2354.7354c-1.0078,0-1.8154-.3613-2.4229-1.084s-.9111-1.6895-.9111-2.9004v-.8203c0-.793.1416-1.4902.4248-2.0918s.6846-1.0635,1.2041-1.3857,1.1211-.4834,1.8047-.4834c.9062,0,1.6328.2529,2.1797.7588s.8652,1.2061.9551,2.1006h-1.1309c-.0977-.6816-.3096-1.1758-.6357-1.4814s-.7822-.458-1.3682-.458c-.7188,0-1.2822.2656-1.6904.7979-.4082.5312-.6123,1.2881-.6123,2.2686v.8271c0,.9268.1934,1.6641.5801,2.2109.3867.5479.9277.8213,1.623.8213.625,0,1.1045-.1416,1.4385-.4248s.5557-.7764.665-1.4795h1.1309Z" fill="#0032a1"/>
      <path d="m287.1231,282.6273h1.3125l-1.5703,1.7227-.873-.0029,1.1309-1.7197Zm-.0117,8.9941h-1.0898v-6.3398h1.0898v6.3398Z" fill="#0032a1"/>
      <path d="m290.0762,291.6214h-1.084v-9h1.084v9Z" fill="#0032a1"/>
      <path d="m301.2266,288.9144c-.1055.9023-.4385,1.5986-.999,2.0889s-1.3057.7354-2.2354.7354c-1.0078,0-1.8154-.3613-2.4229-1.084s-.9111-1.6895-.9111-2.9004v-.8203c0-.793.1416-1.4902.4248-2.0918s.6846-1.0635,1.2041-1.3857,1.1211-.4834,1.8047-.4834c.9062,0,1.6328.2529,2.1797.7588s.8652,1.2061.9551,2.1006h-1.1309c-.0977-.6816-.3096-1.1758-.6357-1.4814s-.7822-.458-1.3682-.458c-.7188,0-1.2822.2656-1.6904.7979-.4082.5312-.6123,1.2881-.6123,2.2686v.8271c0,.9268.1934,1.6641.5801,2.2109.3867.5479.9277.8213,1.623.8213.625,0,1.1045-.1416,1.4385-.4248s.5557-.7764.665-1.4795h1.1309Zm-3.293-7.3066l.8789-.9961h.9375v.0586l-1.4883,1.6055h-.6621l-1.4707-1.6055v-.0586h.9199l.8848.9961Z" fill="#0032a1"/>
      <path d="m305.8907,288.1702h-2.0039v3.4512h-1.1309v-8.5312h2.8242c.9609,0,1.7002.2188,2.2178.6562s.7764,1.0742.7764,1.9102c0,.5312-.1436.9941-.4307,1.3887s-.6865.6895-1.1982.8848l2.0039,3.6211v.0703h-1.207l-1.8516-3.4512Zm-2.0039-.9199h1.7285c.5586,0,1.0029-.1445,1.333-.4346s.4951-.6768.4951-1.1621c0-.5283-.1572-.9336-.4717-1.2148-.3145-.2822-.7686-.4248-1.3623-.4287h-1.7227v3.2402Z" fill="#0032a1"/>
    </g>
  </g>
  <path d="m43.1773,335.1393h259.9506" fill="none" stroke="#ccc" stroke-miterlimit="10" stroke-width=".5"/>
  <path d="m43.1773,121.7889h259.9506" fill="none" stroke="#ccc" stroke-miterlimit="10" stroke-width=".5"/>
  <g>
    <polyline points="43.3019 289.5567 49.7477 299.1448 56.1935 300.1016 62.6393 304.4908 69.0852 295.222 75.531 297.3135 81.9768 295.4366 88.4226 288.6937 94.8685 286.4984 101.3143 288.1451 107.7602 293.6937 114.206 293.6417 120.6518 291.9954 127.0976 287.6514 133.5435 286.4114 139.9893 287.2283 146.4352 278.8406 152.881 274.7877 159.3268 284.2813 165.7726 283.8717 172.2185 279.3883 178.6643 281.9781 185.1101 283.2198 191.556 278.868 198.0018 278.5323 204.4476 278.0328 210.8935 271.9439 217.3393 260.5135 223.7851 221.4234 230.231 173.2686 236.6768 148.4688 242.2723 166.4193" fill="none" stroke="#0032a1" stroke-linecap="round" stroke-miterlimit="10" stroke-width="2"/>
    <path d="m239.356,167.1707c.4943,1.5857,2.181,2.4709,3.7667,1.9766,1.5857-.4944,2.4707-2.1809,1.9764-3.7666s-2.181-2.4707-3.7666-1.9766c-1.5857.4944-2.4707,2.1812-1.9765,3.7666Z" fill="#0032a1"/>
  </g>
  <line x1="242.2288" y1="166.2798" x2="303.1606" y2="236.9598" fill="none" stroke="#0032a1" stroke-dasharray="0 0 4 4" stroke-miterlimit="10" stroke-width=".75"/>
  <circle cx="303.1606" cy="236.9598" r="5.9997" fill="#fff" stroke="#0032a1" stroke-linecap="round" stroke-miterlimit="10" stroke-width="2"/>
  <rect x="36.4659" y="114.5197" width="84.189" height="17.078" fill="#fff"/>
  <g>
    <path d="m39.8706,120.2313l.0293.7031c.4648-.5469,1.0918-.8203,1.8809-.8203.8867,0,1.4902.3398,1.8105,1.0195.2109-.3047.4854-.5508.8232-.7383s.7373-.2812,1.1982-.2812c1.3906,0,2.0977.7363,2.1211,2.209v4.248h-1.084v-4.1836c0-.4531-.1035-.792-.3105-1.0166s-.5547-.3369-1.043-.3369c-.4023,0-.7363.1201-1.002.3604s-.4199.5635-.4629.9697v4.207h-1.0898v-4.1543c0-.9219-.4512-1.3828-1.3535-1.3828-.7109,0-1.1973.3027-1.459.9082v4.6289h-1.084v-6.3398h1.0254Z" fill="#929497"/>
    <path d="m49.3745,118.5496c0-.1758.0537-.3242.1611-.4453s.2666-.1816.4775-.1816.3711.0605.4805.1816.1641.2695.1641.4453-.0547.3223-.1641.4395-.2695.1758-.4805.1758-.3701-.0586-.4775-.1758-.1611-.2637-.1611-.4395Zm1.1719,8.0215h-1.084v-6.3398h1.084v6.3398Z" fill="#929497"/>
    <path d="m53.4585,126.5711h-1.084v-9h1.084v9Z" fill="#929497"/>
    <path d="m55.2163,126.0028c0-.1875.0557-.3438.167-.4688s.2783-.1875.501-.1875.3916.0625.5068.1875.1729.2812.1729.4688c0,.1797-.0576.3301-.1729.4512s-.2842.1816-.5068.1816-.3896-.0605-.501-.1816-.167-.2715-.167-.4512Z" fill="#929497"/>
    <path d="m62.7925,118.6961v1.5352h1.1836v.8379h-1.1836v3.9365c0,.2544.0527.4448.1582.5723.1055.127.2852.1904.5391.1904.125,0,.2969-.0234.5156-.0703v.874c-.2852.0771-.5625.1162-.832.1162-.4844,0-.8496-.1465-1.0957-.4395s-.3691-.709-.3691-1.248v-3.9316h-1.1543v-.8379h1.1543v-1.5352h1.084Z" fill="#929497"/>
    <path d="m69.1558,125.9442c-.4219.4961-1.041.7441-1.8574.7441-.6758,0-1.1904-.1963-1.5439-.5889s-.5322-.9736-.5361-1.7432v-4.125h1.084v4.0957c0,.9609.3906,1.4414,1.1719,1.4414.8281,0,1.3789-.3086,1.6523-.9258v-4.6113h1.084v6.3398h-1.0312l-.0234-.627Z" fill="#929497"/>
    <path d="m72.8824,120.2313l.0352.7969c.4844-.6094,1.1172-.9141,1.8984-.9141,1.3398,0,2.0156.7559,2.0273,2.2676v4.1895h-1.084v-4.1953c-.0039-.457-.1084-.7949-.3135-1.0137s-.5244-.3281-.958-.3281c-.3516,0-.6602.0938-.9258.2812s-.4727.4336-.6211.7383v4.5176h-1.084v-6.3398h1.0254Z" fill="#929497"/>
    <path d="m87.8941,123.8641c-.1055.9023-.4385,1.5986-.999,2.0889s-1.3057.7354-2.2354.7354c-1.0078,0-1.8154-.3613-2.4229-1.084s-.9111-1.6895-.9111-2.9004v-.8203c0-.793.1416-1.4902.4248-2.0918s.6846-1.0635,1.2041-1.3857,1.1211-.4834,1.8047-.4834c.9062,0,1.6328.2529,2.1797.7588s.8652,1.2061.9551,2.1006h-1.1309c-.0977-.6816-.3096-1.1753-.6357-1.481s-.7822-.4585-1.3682-.4585c-.7188,0-1.2822.2656-1.6904.7979-.4082.5312-.6123,1.2881-.6123,2.269v.8271c0,.9263.1934,1.6636.5801,2.2109s.9277.8208,1.623.8208c.625,0,1.1045-.1416,1.4385-.4248s.5557-.7764.665-1.4795h1.1309Z" fill="#929497"/>
    <path d="m95.9917,122.5809c0,.8359-.1406,1.5654-.4219,2.1885s-.6797,1.0986-1.1953,1.4268-1.1172.4922-1.8047.4922c-.6719,0-1.2676-.165-1.7871-.4951s-.9229-.8008-1.21-1.4121-.4346-1.3193-.4424-2.124v-.6152c0-.8203.1426-1.5449.4277-2.1738s.6885-1.1104,1.21-1.4443,1.1182-.501,1.79-.501c.6836,0,1.2861.165,1.8076.4951s.9229.8086,1.2041,1.4355.4219,1.3564.4219,2.1885v.5391Zm-1.1191-.5508c0-1.0117-.2031-1.7881-.6094-2.3291s-.9746-.8115-1.7051-.8115c-.7109,0-1.2705.2705-1.6787.8115s-.6182,1.292-.6299,2.2529v.627c0,.9805.2061,1.751.6182,2.3115s.9795.8408,1.7021.8408c.7266,0,1.2891-.2646,1.6875-.7939s.6035-1.2881.6152-2.2764v-.6328Z" fill="#929497"/>
    <path d="m100.4366,128.5672h-3.4092v-.6763l1.6089-1.7148c.2207-.2417.3843-.4521.4902-.6318.106-.1802.1587-.3511.1587-.5127,0-.2207-.0557-.3945-.1675-.521-.1113-.1265-.271-.1895-.478-.1895-.2231,0-.3994.0767-.5278.2305-.1289.1538-.1929.356-.1929.6064h-.9907c0-.3027.0723-.5796.2168-.8301s.3491-.4468.6133-.5894c.2642-.1421.5635-.2134.8984-.2134.5122,0,.9102.123,1.1938.3687.2832.2461.4253.5933.4253,1.042,0,.2461-.064.4966-.1914.7515-.1274.2554-.3462.5522-.6558.8916l-1.1309,1.1924h2.1387v.7959Z" fill="#929497"/>
    <path d="m104.1538,126.6883c-.8594,0-1.5586-.2822-2.0977-.8467s-.8086-1.3193-.8086-2.2646v-.1992c0-.6289.1201-1.1904.3604-1.6846s.5762-.8809,1.0078-1.1602.8994-.4189,1.4033-.4189c.8242,0,1.4648.2715,1.9219.8145s.6855,1.3203.6855,2.332v.4512h-4.2949c.0156.625.1982,1.1299.5479,1.5146s.7939.5771,1.333.5771c.3828,0,.707-.0781.9727-.2344s.498-.3633.6973-.6211l.6621.5156c-.5312.8164-1.3281,1.2246-2.3906,1.2246Zm-.1348-5.6836c-.4375,0-.8047.1592-1.1016.4775s-.4805.7646-.5508,1.3389h3.1758v-.082c-.0312-.5508-.1797-.9775-.4453-1.2803s-.625-.4541-1.0781-.4541Z" fill="#929497"/>
    <path d="m107.6167,123.3485c0-.9961.2285-1.7842.6855-2.3643s1.0703-.8701,1.8398-.8701c.75,0,1.3418.252,1.7754.7559l.0469-.6387h.9961v8.7773h-1.084v-3.0234c-.4375.4688-1.0195.7031-1.7461.7031-.7656,0-1.376-.2979-1.8311-.8936s-.6826-1.3857-.6826-2.3701v-.0762Zm1.084.123c0,.7266.1533,1.2969.46,1.7109s.7197.6211,1.2393.6211c.6445,0,1.1367-.2852,1.4766-.8555v-3.1055c-.3438-.5586-.832-.8379-1.4648-.8379-.5234,0-.9395.208-1.248.624s-.4629,1.0303-.4629,1.8428Z" fill="#929497"/>
  </g>
  <rect x="59.2812" y="155.1894" width="135.9424" height="67.3674" fill="#fff"/>
  <g>
    <path d="m73.1036,164.4461c-.9648-.2773-1.667-.6182-2.1064-1.0225s-.6592-.9033-.6592-1.4971c0-.6719.2686-1.2275.8057-1.667s1.2354-.6592,2.0947-.6592c.5859,0,1.1084.1133,1.5674.3398s.8145.5391,1.0664.9375.3779.834.3779,1.3066h-1.1309c0-.5176-.1641-.9238-.4922-1.2202-.3281-.2959-.791-.4438-1.3887-.4438-.5547,0-.9873.1226-1.2979.3672s-.4658.584-.4658,1.0181c0,.3486.1475.6431.4424.8838s.7969.4604,1.5059.6602,1.2637.4194,1.6641.6597.6973.5205.8906.8408.29.6973.29,1.1309c0,.6914-.2695,1.2451-.8086,1.6611s-1.2598.624-2.1621.624c-.5859,0-1.1328-.1123-1.6406-.3369s-.8994-.5322-1.1748-.9229-.4131-.834-.4131-1.3301h1.1309c0,.5156.1904.9229.5713,1.2217s.8896.4482,1.5264.4482c.5938,0,1.0488-.1211,1.3652-.3633s.4746-.5723.4746-.9902-.1465-.7412-.4395-.9697-.8242-.4541-1.5938-.6768Z" fill="#0098eb"/>
    <path d="m82.8946,165.1492c0,.9648-.2207,1.7422-.6621,2.332s-1.0391.8848-1.793.8848c-.7695,0-1.375-.2441-1.8164-.7324v3.0527h-1.084v-8.7773h.9902l.0527.7031c.4414-.5469,1.0547-.8203,1.8398-.8203.7617,0,1.3643.2871,1.8076.8613s.665,1.373.665,2.3965v.0996Zm-1.084-.123c0-.7148-.1523-1.2793-.457-1.6934s-.7227-.6211-1.2539-.6211c-.6562,0-1.1484.291-1.4766.873v3.0293c.3242.5781.8203.8672,1.4883.8672.5195,0,.9326-.2061,1.2393-.6182s.46-1.0244.46-1.8369Z" fill="#0098eb"/>
    <path d="m83.9844,165.0203c0-.6211.1221-1.1797.3662-1.6758s.584-.8789,1.0195-1.1484.9326-.4043,1.4912-.4043c.8633,0,1.5615.2988,2.0947.8965s.7998,1.3926.7998,2.3848v.0762c0,.6172-.1182,1.1709-.3545,1.6611s-.5742.8721-1.0137,1.1455-.9443.4102-1.5146.4102c-.8594,0-1.5557-.2988-2.0889-.8965s-.7998-1.3887-.7998-2.373v-.0762Zm1.0898.1289c0,.7031.1631,1.2676.4893,1.6934s.7627.6387,1.3096.6387c.5508,0,.9883-.2158,1.3125-.6475s.4863-1.0361.4863-1.8135c0-.6953-.165-1.2588-.4951-1.6904s-.7686-.6475-1.3154-.6475c-.5352,0-.9668.2129-1.2949.6387s-.4922,1.0352-.4922,1.8281Z" fill="#0098eb"/>
    <path d="m92.293,168.2489h-1.084v-9h1.084v9Z" fill="#0098eb"/>
    <path d="m96.6582,168.366c-.8594,0-1.5586-.2822-2.0977-.8467s-.8086-1.3193-.8086-2.2646v-.1992c0-.6289.1201-1.1904.3604-1.6846s.5762-.8809,1.0078-1.1602.8994-.4189,1.4033-.4189c.8242,0,1.4648.2715,1.9219.8145s.6855,1.3203.6855,2.332v.4512h-4.2949c.0156.625.1982,1.1299.5479,1.5146s.7939.5771,1.333.5771c.3828,0,.707-.0781.9727-.2344s.498-.3633.6973-.6211l.6621.5156c-.5312.8164-1.3281,1.2246-2.3906,1.2246Zm-.1348-5.6836c-.4375,0-.8047.1592-1.1016.4775s-.4805.7646-.5508,1.3389h3.1758v-.082c-.0312-.5508-.1797-.9775-.4453-1.2803s-.625-.4541-1.0781-.4541Z" fill="#0098eb"/>
    <path d="m102.9278,167.4813c.3867,0,.7246-.1172,1.0137-.3516s.4492-.5273.4805-.8789h1.0254c-.0195.3633-.1445.709-.375,1.0371s-.5381.5898-.9229.7852-.792.293-1.2217.293c-.8633,0-1.5498-.2881-2.0596-.8643s-.7646-1.3643-.7646-2.3643v-.1816c0-.6172.1133-1.166.3398-1.6465s.5518-.8535.9756-1.1191.9248-.3984,1.5029-.3984c.7109,0,1.3018.2129,1.7725.6387s.7217.9785.7529,1.6582h-1.0254c-.0312-.4102-.1865-.7471-.4658-1.0107s-.624-.3955-1.0342-.3955c-.5508,0-.9775.1982-1.2803.5947s-.4541.9697-.4541,1.7197v.2051c0,.7305.1504,1.293.4512,1.6875s.7305.5918,1.2891.5918Zm-.252-7.2363l.8789-.9961h.9375v.0586l-1.4883,1.6055h-.6621l-1.4707-1.6055v-.0586h.9199l.8848.9961Z" fill="#0098eb"/>
    <path d="m107.6914,161.909l.0352.7969c.4844-.6094,1.1172-.9141,1.8984-.9141,1.3398,0,2.0156.7559,2.0273,2.2676v4.1895h-1.084v-4.1953c-.0039-.457-.1084-.7949-.3135-1.0137s-.5244-.3281-.958-.3281c-.3516,0-.6602.0938-.9258.2812s-.4727.4336-.6211.7383v4.5176h-1.084v-6.3398h1.0254Z" fill="#0098eb"/>
    <path d="m114.4766,159.2547h1.3125l-1.5703,1.7227-.873-.0029,1.1309-1.7197Zm-.0117,8.9941h-1.0898v-6.3398h1.0898v6.3398Z" fill="#0098eb"/>
    <path d="m121.7657,167.4813c.3867,0,.7246-.1172,1.0137-.3516s.4492-.5273.4805-.8789h1.0254c-.0195.3633-.1445.709-.375,1.0371s-.5381.5898-.9229.7852-.792.293-1.2217.293c-.8633,0-1.5498-.2881-2.0596-.8643s-.7646-1.3643-.7646-2.3643v-.1816c0-.6172.1133-1.166.3398-1.6465s.5518-.8535.9756-1.1191.9248-.3984,1.5029-.3984c.7109,0,1.3018.2129,1.7725.6387s.7217.9785.7529,1.6582h-1.0254c-.0312-.4102-.1865-.7471-.4658-1.0107s-.624-.3955-1.0342-.3955c-.5508,0-.9775.1982-1.2803.5947s-.4541.9697-.4541,1.7197v.2051c0,.7305.1504,1.293.4512,1.6875s.7305.5918,1.2891.5918Z" fill="#0098eb"/>
    <path d="m126.6934,159.2547h1.3125l-1.5703,1.7227-.873-.0029,1.1309-1.7197Zm-.0117,8.9941h-1.0898v-6.3398h1.0898v6.3398Z" fill="#0098eb"/>
    <path d="m129.6465,168.2489h-1.084v-9h1.084v9Z" fill="#0098eb"/>
    <path d="m139.3438,164.3055h-3.6973v3.0234h4.2949v.9199h-5.4199v-8.5312h5.3613v.9199h-4.2363v2.748h3.6973v.9199Z" fill="#0098eb"/>
    <path d="m147.3477,159.7176v5.8008c-.0039.8047-.2568,1.4629-.7588,1.9746s-1.1826.7988-2.042.8613l-.2988.0117c-.9336,0-1.6777-.252-2.2324-.7559s-.8359-1.1973-.8438-2.0801v-5.8125h1.1133v5.7773c0,.6172.1699,1.0967.5098,1.4385s.8242.5127,1.4531.5127c.6367,0,1.124-.1699,1.4619-.5098s.5068-.8184.5068-1.4355v-5.7832h1.1309Z" fill="#0098eb"/>
    <path d="m153.043,161.909v7.0723c0,1.2188-.5527,1.8281-1.6582,1.8281-.2383,0-.459-.0347-.6621-.1045v-.8623c.125.0312.2891.0469.4922.0469.2422,0,.4268-.0654.5537-.1963s.1904-.3589.1904-.6831v-7.1011h1.084Zm-1.1953-1.6816c0-.1719.0537-.3193.1611-.4424s.2646-.1846.4717-.1846c.2109,0,.3711.0605.4805.1816s.1641.2695.1641.4453-.0547.3223-.1641.4395-.2695.1758-.4805.1758-.3691-.0586-.4746-.1758-.1582-.2637-.1582-.4395Z" fill="#0098eb"/>
    <path d="m157.42,168.366c-.8594,0-1.5586-.2822-2.0977-.8467s-.8086-1.3193-.8086-2.2646v-.1992c0-.6289.1201-1.1904.3604-1.6846s.5762-.8809,1.0078-1.1602.8994-.4189,1.4033-.4189c.8242,0,1.4648.2715,1.9219.8145s.6855,1.3203.6855,2.332v.4512h-4.2949c.0156.625.1982,1.1299.5479,1.5146s.7939.5771,1.333.5771c.3828,0,.707-.0781.9727-.2344s.498-.3633.6973-.6211l.6621.5156c-.5312.8164-1.3281,1.2246-2.3906,1.2246Zm-.1348-5.6836c-.4375,0-.8047.1592-1.1016.4775s-.4805.7646-.5508,1.3389h3.1758v-.082c-.0312-.5508-.1797-.9775-.4453-1.2803s-.625-.4541-1.0781-.4541Z" fill="#0098eb"/>
    <path d="m167.8086,166.5672c0-.293-.1104-.5205-.3311-.6826s-.6055-.3018-1.1543-.4189-.9844-.2578-1.3066-.4219-.5605-.3594-.7148-.5859-.2314-.4961-.2314-.8086c0-.5195.2197-.959.6592-1.3184s1.001-.5391,1.6846-.5391c.7188,0,1.3018.1855,1.749.5566s.6709.8457.6709,1.4238h-1.0898c0-.2969-.126-.5527-.3779-.7676s-.5693-.3223-.9521-.3223c-.3945,0-.7031.0859-.9258.2578s-.334.3965-.334.6738c0,.2617.1035.459.3105.5918s.5811.2598,1.1221.3809.9795.2656,1.3154.4336.585.3701.7471.6064.2432.5244.2432.8643c0,.5664-.2266,1.0205-.6797,1.3623s-1.041.5127-1.7637.5127c-.5078,0-.957-.0898-1.3477-.2695s-.6963-.4307-.917-.7529-.3311-.6709-.3311-1.0459h1.084c.0195.3633.165.6514.4365.8643s.6299.3193,1.0752.3193c.4102,0,.7393-.083.9873-.249s.3721-.3877.3721-.665Z" fill="#0098eb"/>
    <path d="m171.3301,161.909l.0352.7969c.4844-.6094,1.1172-.9141,1.8984-.9141,1.3398,0,2.0156.7559,2.0273,2.2676v4.1895h-1.084v-4.1953c-.0039-.457-.1084-.7949-.3135-1.0137s-.5244-.3281-.958-.3281c-.3516,0-.6602.0938-.9258.2812s-.4727.4336-.6211.7383v4.5176h-1.084v-6.3398h1.0254Z" fill="#0098eb"/>
    <path d="m178.1153,159.2547h1.3125l-1.5703,1.7227-.873-.0029,1.1309-1.7197Zm-.0117,8.9941h-1.0898v-6.3398h1.0898v6.3398Z" fill="#0098eb"/>
    <path d="m180.9102,167.3641h3.709v.8848h-5.0332v-.7969l3.498-4.6465h-3.4453v-.8965h4.8047v.7676l-3.5332,4.6875Zm1.166-7.1191l.8789-.9961h.9375v.0586l-1.4883,1.6055h-.6621l-1.4707-1.6055v-.0586h.9199l.8848.9961Z" fill="#0098eb"/>
    <path d="m185.8438,160.2274c0-.1758.0537-.3242.1611-.4453s.2666-.1816.4775-.1816.3711.0605.4805.1816.1641.2695.1641.4453-.0547.3223-.1641.4395-.2695.1758-.4805.1758-.3701-.0586-.4775-.1758-.1611-.2637-.1611-.4395Zm1.1719,8.0215h-1.084v-6.3398h1.084v6.3398Z" fill="#0098eb"/>
    <path d="m190.2207,160.3739v1.5352h1.1836v.8379h-1.1836v3.9365c0,.2544.0527.4453.1582.5723s.2852.1904.5391.1904c.125,0,.2969-.0234.5156-.0703v.874c-.2852.0776-.5625.1162-.832.1162-.4844,0-.8496-.1465-1.0957-.4395s-.3691-.709-.3691-1.248v-3.9316h-1.1543v-.8379h1.1543v-1.5352h1.084Z" fill="#0098eb"/>
    <path d="m73.0508,182.7659c-.8594,0-1.5586-.2822-2.0977-.8467s-.8086-1.3193-.8086-2.2646v-.1992c0-.6289.1201-1.1904.3604-1.6846s.5762-.8809,1.0078-1.1602.8994-.4189,1.4033-.4189c.8242,0,1.4648.2715,1.9219.8145s.6855,1.3203.6855,2.332v.4512h-4.2949c.0156.625.1982,1.1299.5479,1.5146s.7939.5771,1.333.5771c.3828,0,.707-.0781.9727-.2344s.498-.3633.6973-.6211l.6621.5156c-.5312.8164-1.3281,1.2246-2.3906,1.2246Zm-.1348-5.6836c-.4375,0-.8047.1592-1.1016.4775s-.4805.7646-.5508,1.3389h3.1758v-.082c-.0312-.5508-.1797-.9775-.4453-1.2803s-.625-.4541-1.0781-.4541Z" fill="#0098eb"/>
    <path d="m77.7969,176.3089l.0293.7031c.4648-.5469,1.0918-.8203,1.8809-.8203.8867,0,1.4902.3398,1.8105,1.0195.2109-.3047.4854-.5508.8232-.7383s.7373-.2812,1.1982-.2812c1.3906,0,2.0977.7363,2.1211,2.209v4.248h-1.084v-4.1836c0-.4531-.1035-.792-.3105-1.0166s-.5547-.3369-1.043-.3369c-.4023,0-.7363.1201-1.002.3604s-.4199.5635-.4629.9697v4.207h-1.0898v-4.1543c0-.9219-.4512-1.3828-1.3535-1.3828-.7109,0-1.1973.3027-1.459.9082v4.6289h-1.084v-6.3398h1.0254Z" fill="#0098eb"/>
    <path d="m87.3008,174.6273c0-.1758.0537-.3242.1611-.4453s.2666-.1816.4775-.1816.3711.0605.4805.1816.1641.2695.1641.4453-.0547.3223-.1641.4395-.2695.1758-.4805.1758-.3701-.0586-.4775-.1758-.1611-.2637-.1611-.4395Zm1.1719,8.0215h-1.084v-6.3398h1.084v6.3398Z" fill="#0098eb"/>
    <path d="m93.8985,180.9671c0-.293-.1104-.5205-.3311-.6826s-.6055-.3018-1.1543-.4189-.9844-.2578-1.3066-.4219-.5605-.3594-.7148-.5859-.2314-.4961-.2314-.8086c0-.5195.2197-.959.6592-1.3184s1.001-.5391,1.6846-.5391c.7188,0,1.3018.1855,1.749.5566s.6709.8457.6709,1.4238h-1.0898c0-.2969-.126-.5527-.3779-.7676s-.5693-.3223-.9521-.3223c-.3945,0-.7031.0859-.9258.2578s-.334.3965-.334.6738c0,.2617.1035.459.3105.5918s.5811.2598,1.1221.3809.9795.2656,1.3154.4336.585.3701.7471.6064.2432.5244.2432.8643c0,.5664-.2266,1.0205-.6797,1.3623s-1.041.5127-1.7637.5127c-.5078,0-.957-.0898-1.3477-.2695s-.6963-.4307-.917-.7529-.3311-.6709-.3311-1.0459h1.084c.0195.3633.165.6514.4365.8643s.6299.3193,1.0752.3193c.4102,0,.7393-.083.9873-.249s.3721-.3877.3721-.665Z" fill="#0098eb"/>
    <path d="m99.0254,182.7659c-.8594,0-1.5586-.2822-2.0977-.8467s-.8086-1.3193-.8086-2.2646v-.1992c0-.6289.1201-1.1904.3604-1.6846s.5762-.8809,1.0078-1.1602.8994-.4189,1.4033-.4189c.8242,0,1.4648.2715,1.9219.8145s.6855,1.3203.6855,2.332v.4512h-4.2949c.0156.625.1982,1.1299.5479,1.5146s.7939.5771,1.333.5771c.3828,0,.707-.0781.9727-.2344s.498-.3633.6973-.6211l.6621.5156c-.5312.8164-1.3281,1.2246-2.3906,1.2246Zm-.1348-5.6836c-.4375,0-.8047.1592-1.1016.4775s-.4805.7646-.5508,1.3389h3.1758v-.082c-.0312-.5508-.1797-.9775-.4453-1.2803s-.625-.4541-1.0781-.4541Z" fill="#0098eb"/>
    <path d="m107.0235,181.7288h4.043v.9199h-5.1738v-8.5312h1.1309v7.6113Z" fill="#0098eb"/>
    <path d="m118.0391,174.1175v5.8008c-.0039.8047-.2568,1.4629-.7588,1.9746s-1.1826.7988-2.042.8613l-.2988.0117c-.9336,0-1.6777-.252-2.2324-.7559s-.8359-1.1973-.8438-2.0801v-5.8125h1.1133v5.7773c0,.6172.1699,1.0967.5098,1.4385s.8242.5127,1.4531.5127c.6367,0,1.124-.1699,1.4619-.5098s.5068-.8184.5068-1.4355v-5.7832h1.1309Z" fill="#0098eb"/>
    <path d="m120.9453,181.7288h4.043v.9199h-5.1738v-8.5312h1.1309v7.6113Z" fill="#0098eb"/>
    <path d="m131.961,174.1175v5.8008c-.0039.8047-.2568,1.4629-.7588,1.9746s-1.1826.7988-2.042.8613l-.2988.0117c-.9336,0-1.6777-.252-2.2324-.7559s-.8359-1.1973-.8438-2.0801v-5.8125h1.1133v5.7773c0,.6172.1699,1.0967.5098,1.4385s.8242.5127,1.4531.5127c.6367,0,1.124-.1699,1.4619-.5098s.5068-.8184.5068-1.4355v-5.7832h1.1309Z" fill="#0098eb"/>
    <path d="m140.0118,179.9417c-.1055.9023-.4385,1.5986-.999,2.0889s-1.3057.7354-2.2354.7354c-1.0078,0-1.8154-.3613-2.4229-1.084s-.9111-1.6895-.9111-2.9004v-.8203c0-.793.1416-1.4902.4248-2.0918s.6846-1.0635,1.2041-1.3857,1.1211-.4834,1.8047-.4834c.9062,0,1.6328.2529,2.1797.7588s.8652,1.2061.9551,2.1006h-1.1309c-.0977-.6816-.3096-1.1753-.6357-1.481s-.7822-.4585-1.3682-.4585c-.7188,0-1.2822.2661-1.6904.7979s-.6123,1.2881-.6123,2.269v.8271c0,.9268.1934,1.6636.5801,2.2109s.9277.8208,1.623.8208c.625,0,1.1045-.1416,1.4385-.4248s.5557-.7764.665-1.4795h1.1309Z" fill="#0098eb"/>
    <path d="m146.252,178.8812h-3.5801v3.7676h-1.125v-8.5312h5.2852v.9199h-4.1602v2.9238h3.5801v.9199Z" fill="#0098eb"/>
    <path d="m70.1328,193.8206c0-.6211.1221-1.1797.3662-1.6758s.584-.8789,1.0195-1.1484.9326-.4043,1.4912-.4043c.8633,0,1.5615.2988,2.0947.8965s.7998,1.3926.7998,2.3848v.0762c0,.6172-.1182,1.1709-.3545,1.6611s-.5742.8721-1.0137,1.1455-.9443.4102-1.5146.4102c-.8594,0-1.5557-.2988-2.0889-.8965s-.7998-1.3887-.7998-2.373v-.0762Zm1.0898.1289c0,.7031.1631,1.2676.4893,1.6934s.7627.6387,1.3096.6387c.5508,0,.9883-.2158,1.3125-.6475s.4863-1.0361.4863-1.8135c0-.6953-.165-1.2588-.4951-1.6904s-.7686-.6475-1.3154-.6475c-.5352,0-.9668.2129-1.2949.6387s-.4922,1.0352-.4922,1.8281Z" fill="#0098eb"/>
    <path d="m81.6993,192.2562h.8145c.5117-.0078.9141-.1426,1.207-.4043s.4395-.6152.4395-1.0605c0-1-.498-1.5-1.4941-1.5-.4688,0-.8428.1338-1.1221.4014s-.4189.6221-.4189,1.0635h-1.084c0-.6758.2471-1.2373.7412-1.6846s1.1221-.6709,1.8838-.6709c.8047,0,1.4355.2129,1.8926.6387s.6855,1.0176.6855,1.7754c0,.3711-.1201.7305-.3604,1.0781s-.5674.6074-.9814.7793c.4688.1484.8311.3945,1.0869.7383s.3838.7637.3838,1.2598c0,.7656-.25,1.373-.75,1.8223s-1.1504.6738-1.9512.6738-1.4521-.2168-1.9541-.6504-.7529-1.0059-.7529-1.7168h1.0898c0,.4492.1465.8086.4395,1.0781s.6855.4043,1.1777.4043c.5234,0,.9238-.1367,1.2012-.4102s.416-.666.416-1.1777c0-.4961-.1523-.877-.457-1.1426s-.7441-.4023-1.3184-.4102h-.8145v-.8848Z" fill="#0098eb"/>
    <path d="m90.4239,197.0491h-1.0898v-7.2246l-2.1855.8027v-.9844l3.1055-1.166h.1699v8.5723Z" fill="#0098eb"/>
    <path d="m98.9493,193.4105c0,1.2695-.2168,2.2129-.6504,2.8301s-1.1113.9258-2.0332.9258c-.9102,0-1.584-.3018-2.0215-.9053s-.6641-1.5049-.6797-2.7041v-1.4473c0-1.2539.2168-2.1855.6504-2.7949s1.1133-.9141,2.0391-.9141c.918,0,1.5938.2939,2.0273.8818s.6562,1.4951.668,2.7217v1.4062Zm-1.084-1.4824c0-.918-.1289-1.5869-.3867-2.0068s-.666-.6299-1.2246-.6299c-.5547,0-.959.209-1.2129.627s-.3848,1.0605-.3926,1.9277v1.7344c0,.9219.1338,1.6025.4014,2.042s.6729.6592,1.2158.6592c.5352,0,.9326-.207,1.1924-.6211s.3955-1.0664.4072-1.957v-1.7754Z" fill="#0098eb"/>
    <path d="m104.4395,190.7093l.0293.7031c.4648-.5469,1.0918-.8203,1.8809-.8203.8867,0,1.4902.3398,1.8105,1.0195.2109-.3047.4854-.5508.8232-.7383s.7373-.2812,1.1982-.2812c1.3906,0,2.0977.7363,2.1211,2.209v4.248h-1.084v-4.1836c0-.4531-.1035-.792-.3105-1.0166s-.5547-.3369-1.043-.3369c-.4023,0-.7363.1201-1.002.3604s-.4199.5635-.4629.9697v4.207h-1.0898v-4.1543c0-.9219-.4512-1.3828-1.3535-1.3828-.7109,0-1.1973.3027-1.459.9082v4.6289h-1.084v-6.3398h1.0254Z" fill="#0098eb"/>
    <path d="m113.9434,189.0277c0-.1758.0537-.3242.1611-.4453s.2666-.1816.4775-.1816.3711.0605.4805.1816.1641.2695.1641.4453-.0547.3223-.1641.4395-.2695.1758-.4805.1758-.3701-.0586-.4775-.1758-.1611-.2637-.1611-.4395Zm1.1719,8.0215h-1.084v-6.3398h1.084v6.3398Z" fill="#0098eb"/>
    <path d="m118.0274,197.0491h-1.084v-9h1.084v9Z" fill="#0098eb"/>
    <path d="m119.7852,196.4808c0-.1875.0557-.3438.167-.4688s.2783-.1875.501-.1875.3916.0625.5068.1875.1729.2812.1729.4688c0,.1797-.0576.3301-.1729.4512s-.2842.1816-.5068.1816-.3896-.0605-.501-.1816-.167-.2715-.167-.4512Z" fill="#0098eb"/>
    <path d="m127.3614,189.1741v1.5352h1.1836v.8379h-1.1836v3.9365c0,.2544.0527.4448.1582.5718.1055.1274.2852.1909.5391.1909.125,0,.2969-.0234.5156-.0703v.8735c-.2852.0776-.5625.1167-.832.1167-.4844,0-.8496-.1465-1.0957-.4395s-.3691-.709-.3691-1.248v-3.9316h-1.1543v-.8379h1.1543v-1.5352h1.084Z" fill="#0098eb"/>
    <path d="m133.7246,196.4222c-.4219.4961-1.041.7441-1.8574.7441-.6758,0-1.1904-.1963-1.5439-.5889s-.5322-.9736-.5361-1.7432v-4.125h1.084v4.0957c0,.9609.3906,1.4414,1.1719,1.4414.8281,0,1.3789-.3086,1.6523-.9258v-4.6113h1.084v6.3398h-1.0312l-.0234-.627Z" fill="#0098eb"/>
    <path d="m137.4512,190.7093l.0352.7969c.4844-.6094,1.1172-.9141,1.8984-.9141,1.3398,0,2.0156.7559,2.0273,2.2676v4.1895h-1.084v-4.1953c-.0039-.457-.1084-.7949-.3135-1.0137s-.5244-.3281-.958-.3281c-.3516,0-.6602.0938-.9258.2812s-.4727.4336-.6211.7383v4.5176h-1.084v-6.3398h1.0254Z" fill="#0098eb"/>
    <path d="m152.4629,194.3421c-.1055.9023-.4385,1.5986-.999,2.0889s-1.3057.7354-2.2354.7354c-1.0078,0-1.8154-.3613-2.4229-1.084s-.9111-1.6895-.9111-2.9004v-.8203c0-.793.1416-1.4902.4248-2.0918s.6846-1.0635,1.2041-1.3857,1.1211-.4834,1.8047-.4834c.9062,0,1.6328.2529,2.1797.7588s.8652,1.2061.9551,2.1006h-1.1309c-.0977-.6816-.3096-1.1758-.6357-1.481-.3262-.3057-.7822-.4585-1.3682-.4585-.7188,0-1.2822.2656-1.6904.7974s-.6123,1.2881-.6123,2.2695v.8271c0,.9263.1934,1.6636.5801,2.2104.3867.5474.9277.8213,1.623.8213.625,0,1.1045-.1416,1.4385-.4248s.5557-.7764.665-1.4795h1.1309Z" fill="#0098eb"/>
    <path d="m160.5606,193.0589c0,.8359-.1406,1.5654-.4219,2.1885s-.6797,1.0986-1.1953,1.4268-1.1172.4922-1.8047.4922c-.6719,0-1.2676-.165-1.7871-.4951s-.9229-.8008-1.21-1.4121-.4346-1.3193-.4424-2.124v-.6152c0-.8203.1426-1.5449.4277-2.1738s.6885-1.1104,1.21-1.4443,1.1182-.501,1.79-.501c.6836,0,1.2861.165,1.8076.4951s.9229.8086,1.2041,1.4355.4219,1.3564.4219,2.1885v.5391Zm-1.1191-.5508c0-1.0117-.2031-1.7881-.6094-2.3291s-.9746-.8115-1.7051-.8115c-.7109,0-1.2705.2705-1.6787.8115s-.6182,1.292-.6299,2.2529v.627c0,.9805.2061,1.751.6182,2.3115s.9795.8408,1.7021.8408c.7266,0,1.2891-.2646,1.6875-.7939s.6035-1.2881.6152-2.2764v-.6328Z" fill="#0098eb"/>
    <path d="m167.5567,197.0491h-5.5898v-.7793l2.9531-3.2812c.4375-.4961.7393-.8994.9053-1.21s.249-.6318.249-.9639c0-.4453-.1348-.8105-.4043-1.0957s-.6289-.4277-1.0781-.4277c-.5391,0-.958.1533-1.2568.46s-.4482.7334-.4482,1.2803h-1.084c0-.7852.2529-1.4199.7588-1.9043s1.1826-.7266,2.0303-.7266c.793,0,1.4199.208,1.8809.624s.6914.9697.6914,1.6611c0,.8398-.5352,1.8398-1.6055,3l-2.2852,2.4785h4.2832v.8848Z" fill="#0098eb"/>
    <path d="m171.4473,197.1663c-.8594,0-1.5586-.2822-2.0977-.8467s-.8086-1.3193-.8086-2.2646v-.1992c0-.6289.1201-1.1904.3604-1.6846s.5762-.8809,1.0078-1.1602.8994-.4189,1.4033-.4189c.8242,0,1.4648.2715,1.9219.8145s.6855,1.3203.6855,2.332v.4512h-4.2949c.0156.625.1982,1.1299.5479,1.5146s.7939.5771,1.333.5771c.3828,0,.707-.0781.9727-.2344s.498-.3633.6973-.6211l.6621.5156c-.5312.8164-1.3281,1.2246-2.3906,1.2246Zm-.1348-5.6836c-.4375,0-.8047.1592-1.1016.4775s-.4805.7646-.5508,1.3389h3.1758v-.082c-.0312-.5508-.1797-.9775-.4453-1.2803s-.625-.4541-1.0781-.4541Z" fill="#0098eb"/>
    <path d="m174.9102,193.8265c0-.9961.2285-1.7842.6855-2.3643s1.0703-.8701,1.8398-.8701c.75,0,1.3418.252,1.7754.7559l.0469-.6387h.9961v8.7773h-1.084v-3.0234c-.4375.4688-1.0195.7031-1.7461.7031-.7656,0-1.376-.2979-1.8311-.8936s-.6826-1.3857-.6826-2.3701v-.0762Zm1.084.123c0,.7266.1533,1.2969.46,1.7109s.7197.6211,1.2393.6211c.6445,0,1.1367-.2852,1.4766-.8555v-3.1055c-.3438-.5586-.832-.8379-1.4648-.8379-.5234,0-.9395.208-1.248.624s-.4629,1.0303-.4629,1.8428Z" fill="#0098eb"/>
  </g>
  <g>
    <rect x="245.2848" y="143.0509" width="59.6041" height="20.3328" fill="#fff"/>
    <g>
      <path d="m256.8833,139.2579c0,.4141-.1035.7812-.3105,1.1016s-.4922.5762-.8555.7676c.4141.1992.7422.4736.9844.8232s.3633.7607.3633,1.2334c0,.7578-.2578,1.3564-.7734,1.7959s-1.2168.6592-2.1035.6592-1.5898-.2207-2.1094-.6621-.7793-1.0391-.7793-1.793c0-.4727.1211-.8848.3633-1.2363s.5684-.625.9785-.8203c-.3633-.1914-.6475-.4473-.8525-.7676s-.3076-.6875-.3076-1.1016c0-.7266.2422-1.3057.7266-1.7373s1.1426-.6475,1.9746-.6475c.8281,0,1.4854.2139,1.9717.6416s.7295,1.0088.7295,1.7432Zm-1.5176,3.8027c0-.3711-.1074-.668-.3223-.8906s-.5039-.334-.8672-.334c-.3594,0-.6465.1104-.8613.3311s-.3223.5186-.3223.8936c0,.3633.1055.6562.3164.8789s.5039.334.8789.334c.3672,0,.6553-.1074.8643-.3223s.3135-.5117.3135-.8906Zm-.1758-3.7207c0-.332-.0879-.5986-.2637-.7998s-.4238-.3018-.7441-.3018c-.3164,0-.5625.0977-.7383.293s-.2637.4648-.2637.8086c0,.3398.0879.6133.2637.8203s.4238.3105.7441.3105.5674-.1035.7412-.3105.2607-.4805.2607-.8203Z" fill="#0032a1"/>
      <path d="m258.7173,147.6602l-.8848-.4629.2109-.3809c.2617-.4766.3965-.9512.4043-1.4238v-1.3125h1.4297l-.0059,1.1719c-.0039.4336-.1133.8711-.3281,1.3125s-.4902.8066-.8262,1.0957Z" fill="#0032a1"/>
      <path d="m261.3892,141.3262l.4922-4.3359h4.7812v1.4121h-3.3926l-.2109,1.834c.4023-.2148.8301-.3223,1.2832-.3223.8125,0,1.4492.252,1.9102.7559s.6914,1.209.6914,2.1152c0,.5508-.1162,1.0439-.3486,1.4795s-.5654.7734-.999,1.0137-.9453.3604-1.5352.3604c-.5156,0-.9941-.1045-1.4355-.3135s-.79-.5029-1.0459-.8818-.3916-.8105-.4072-1.2949h1.6758c.0352.3555.1592.6318.3721.8291s.4912.2959.835.2959c.3828,0,.6777-.1377.8848-.4131s.3105-.665.3105-1.1689c0-.4844-.1191-.8555-.3574-1.1133s-.5762-.3867-1.0137-.3867c-.4023,0-.7285.1055-.9785.3164l-.1641.1523-1.3477-.334Z" fill="#0032a1"/>
      <path d="m272.6685,139.1817l.0527.709c.4492-.5508,1.0566-.8262,1.8223-.8262.8164,0,1.377.3223,1.6816.9668.4453-.6445,1.0801-.9668,1.9043-.9668.6875,0,1.1992.2002,1.5352.6006s.5039,1.0029.5039,1.8076v4.0488h-1.6992v-4.043c0-.3594-.0703-.6221-.2109-.7881s-.3887-.249-.7441-.249c-.5078,0-.8594.2422-1.0547.7266l.0059,4.3535h-1.6934v-4.0371c0-.3672-.0723-.6328-.2168-.7969s-.3906-.2461-.7383-.2461c-.4805,0-.8281.1992-1.043.5977v4.4824h-1.6934v-6.3398h1.5879Z" fill="#0032a1"/>
      <path d="m281.4576,137.5411c0-.2539.085-.4629.2549-.627s.4014-.2461.6943-.2461c.2891,0,.5195.082.6914.2461s.2578.373.2578.627c0,.2578-.0869.4688-.2607.6328s-.4033.2461-.6885.2461-.5146-.082-.6885-.2461-.2607-.375-.2607-.6328Zm1.7988,7.9805h-1.6992v-6.3398h1.6992v6.3398Z" fill="#0032a1"/>
      <path d="m286.438,145.5216h-1.6992v-9h1.6992v9Z" fill="#0032a1"/>
      <path d="m287.9204,144.6895c0-.2695.0908-.4883.2725-.6562s.4092-.252.6826-.252c.2773,0,.5068.084.6885.252s.2725.3867.2725.6562c0,.2656-.0898.4814-.2695.6475s-.4102.249-.6914.249c-.2773,0-.5059-.083-.6855-.249s-.2695-.3818-.2695-.6475Z" fill="#0032a1"/>
      <path d="m296.3345,137.6231v1.5586h1.084v1.2422h-1.084v3.1641c0,.2344.0449.4023.1348.5039s.2617.1523.5156.1523c.1875,0,.3535-.0137.498-.041v1.2832c-.332.1016-.6738.1523-1.0254.1523-1.1875,0-1.793-.5996-1.8164-1.7988v-3.416h-.9258v-1.2422h.9258v-1.5586h1.6934Z" fill="#0032a1"/>
      <path d="m302.1587,144.877c-.418.5078-.9961.7617-1.7344.7617-.6797,0-1.1982-.1953-1.5557-.5859s-.54-.9629-.5479-1.7168v-4.1543h1.6934v4.1006c0,.6606.3008.9912.9023.9912.5742,0,.9688-.1992,1.1836-.5986v-4.4932h1.6992v6.3398h-1.5938l-.0469-.6445Z" fill="#0032a1"/>
      <path d="m306.6353,139.1817l.0527.7324c.4531-.5664,1.0605-.8496,1.8223-.8496.6719,0,1.1719.1973,1.5.5918s.4961.9844.5039,1.7695v4.0957h-1.6934v-4.0547c0-.3594-.0781-.6201-.2344-.7822s-.416-.2432-.7793-.2432c-.4766,0-.834.2031-1.0723.6094v4.4707h-1.6934v-6.3398h1.5938Z" fill="#0032a1"/>
      <path d="m258.2017,157.0801c-.0664.918-.4053,1.6406-1.0166,2.168s-1.417.791-2.417.791c-1.0938,0-1.9541-.3682-2.5811-1.1045s-.9404-1.7471-.9404-3.0322v-.5215c0-.8203.1445-1.543.4336-2.168s.7021-1.1045,1.2393-1.4385,1.1611-.501,1.8721-.501c.9844,0,1.7773.2637,2.3789.791s.9492,1.2676,1.043,2.2207h-1.7578c-.043-.5508-.1963-.9502-.46-1.1982s-.665-.3721-1.2041-.3721c-.5859,0-1.0244.21-1.3154.6299s-.4404,1.0713-.4482,1.9541v.6445c0,.9219.1396,1.5957.4189,2.0215s.7197.6387,1.3213.6387c.543,0,.9482-.124,1.2158-.3721s.4209-.6318.46-1.1514h1.7578Z" fill="#0032a1"/>
      <path d="m266.3638,155.8497c0,.8398-.1484,1.5762-.4453,2.209s-.7217,1.1211-1.2744,1.4648-1.1865.5156-1.9014.5156c-.707,0-1.3379-.1699-1.8926-.5098s-.9844-.8252-1.2891-1.4561-.459-1.3564-.4629-2.1768v-.4219c0-.8398.1514-1.5791.4541-2.2178s.7305-1.1289,1.2832-1.4707,1.1846-.5127,1.8955-.5127,1.3428.1709,1.8955.5127.9805.832,1.2832,1.4707.4541,1.376.4541,2.2119v.3809Zm-1.7812-.3867c0-.8945-.1602-1.5742-.4805-2.0391s-.7773-.6973-1.3711-.6973c-.5898,0-1.0449.2295-1.3652.6885s-.4824,1.1318-.4863,2.0186v.416c0,.8711.1602,1.5469.4805,2.0273s.7812.7207,1.3828.7207c.5898,0,1.043-.2314,1.3594-.6943s.4766-1.1377.4805-2.0244v-.416Z" fill="#0032a1"/>
      <path d="m270.627,161.918h-3.4092v-.6763l1.6089-1.7148c.2207-.2417.3843-.4521.4902-.6318.106-.1802.1587-.3511.1587-.5127,0-.2207-.0557-.3945-.1675-.521-.1113-.1265-.271-.1895-.478-.1895-.2231,0-.3994.0767-.5278.2305-.1289.1538-.1929.356-.1929.6064h-.9907c0-.3027.0723-.5796.2168-.8301s.3491-.4468.6133-.5894c.2642-.1421.5635-.2134.8984-.2134.5122,0,.9102.123,1.1938.3687.2832.2461.4253.5933.4253,1.042,0,.2461-.064.4966-.1914.7515-.1274.2554-.3462.5522-.6558.8916l-1.1309,1.1924h2.1387v.7959Z" fill="#0032a1"/>
      <path d="m274.4615,160.0391c-.9297,0-1.6865-.2852-2.2705-.8555s-.876-1.3301-.876-2.2793v-.1641c0-.6367.123-1.2061.3691-1.708s.5947-.8887,1.0459-1.1602.9658-.4072,1.5439-.4072c.8672,0,1.5498.2734,2.0479.8203s.7471,1.3223.7471,2.3262v.6914h-4.0371c.0547.4141.2197.7461.4951.9961s.624.375,1.0459.375c.6523,0,1.1621-.2363,1.5293-.709l.832.9316c-.2539.3594-.5977.6396-1.0312.8408s-.9141.3018-1.4414.3018Zm-.1934-5.209c-.3359,0-.6084.1138-.8174.3413s-.3428.5532-.4014.9771h2.3555v-.1353c-.0078-.377-.1094-.668-.3047-.874s-.4727-.3091-.832-.3091Z" fill="#0032a1"/>
      <path d="m277.7662,156.6934c0-.9961.2217-1.7832.665-2.3613s1.0518-.8672,1.8252-.8672c.6797,0,1.2207.2598,1.623.7793l.1113-.6621h1.4883v8.7773h-1.6992v-2.9824c-.3906.4414-.9023.6621-1.5352.6621-.7539,0-1.3555-.293-1.8047-.8789s-.6738-1.4082-.6738-2.4668Zm1.6934.1201c0,.6064.1064,1.0684.3193,1.3848.2129.3174.5127.4756.8994.4756.5195,0,.8867-.207,1.1016-.6221v-2.623c-.2109-.3989-.5742-.5986-1.0898-.5986-.3906,0-.6934.1587-.9082.4756s-.3223.8193-.3223,1.5078Z" fill="#0032a1"/>
    </g>
  </g>
</svg>