<?xml version="1.0" encoding="UTF-8"?><svg id="a" xmlns="http://www.w3.org/2000/svg" viewBox="0 0 329.999999999994543 310.181282072810063"><defs><style>.d{letter-spacing:-.00732421875em;}.e,.f,.g{stroke-width:0px;}.e,.h,.i{fill:#0032a1;}.j,.k,.l,.m,.n,.o{stroke-miterlimit:10;}.j,.k,.l,.n,.o{fill:none;}.j,.m{stroke-linecap:round;stroke-width:2px;}.j,.m,.o{stroke:#0032a1;}.k{stroke:#55555c;}.k,.l,.n{stroke-width:.5px;}.l{stroke:#ccc;}.m,.g{fill:#fff;}.f{fill:#0098eb;}.p,.h,.q,.r,.i,.s{font-size:12px;}.p,.q{font-family:Roboto-Regular, Roboto;}.p,.s{fill:#929497;}.h{font-family:Roboto-Black, Roboto;font-weight:800;}.q,.r{fill:#808184;}.r,.i,.s{font-family:Roboto-Bold, Roboto;font-weight:700;}.n{stroke:#9ea7b3;}.o{stroke-dasharray:0 0 4 4;stroke-width:.75px;}</style></defs><path class="n" d="M43.177303896589365,243.084722267220059h259.950647317740732"/><path class="n" d="M43.177303896589365,207.21165404391968h259.950647317740732"/><path class="k" d="M43.177303896589365,171.33858582062976h259.950647317740732"/><path class="n" d="M43.177303896589365,136.094869671439938h259.950647317740732"/><path class="n" d="M43.177303896589365,278.328438416389872h259.950647317740732"/><path class="n" d="M43.177303896589365,100.221801448150018h259.950647317740732"/><path class="n" d="M43.177303896589365,64.978085298959741h259.950647317740732"/><text class="p" transform="translate(20.501623915281016 69.1872740911449)"><tspan x="0" y="0">15</tspan></text><text class="p" transform="translate(27.245764540281016 140.5945006536449)"><tspan x="0" y="0">5</tspan></text><text class="p" transform="translate(20.384436415281016 211.7111998723949)"><tspan x="0" y="0">−5</tspan></text><text class="p" transform="translate(27.245764540281016 175.8381529973949)"><tspan x="0" y="0">0</tspan></text><text class="p" transform="translate(20.501623915281016 105.3869811223949)"><tspan x="0" y="0">10</tspan></text><text class="p" transform="translate(13.640295790281016 247.5842467473949)"><tspan x="0" y="0">−10</tspan></text><text class="p" transform="translate(13.640295790281016 282.8283873723949)"><tspan x="0" y="0">−15</tspan></text><text class="q" transform="translate(28.827551649656016 33.8386412786449)"><tspan x="0" y="0">1990</tspan></text><text class="r" transform="translate(289.805578993406016 33.8337584661449)"><tspan x="0" y="0">2030</tspan></text><text class="q" transform="translate(231.408118055906016 33.8337584661449)"><tspan x="0" y="0">2021</tspan></text><path class="n" d="M43.177303896590274,41.901714229270056v7.54263239473994"/><path class="n" d="M303.12795121432373,41.901714229270056v7.54263239473994"/><path class="n" d="M243.024021338986131,41.901714229270056v7.54263239473994"/><rect class="g" x="228.182408125727306" y="199.063171836590072" width="83.99830854585889" height="38.570714134179525"/><path class="e" d="M237.799841688718516,197.9226256536449v1.61328125h-5.90625v-1.61328125h5.90625Z"/><path class="e" d="M244.143591688718516,193.6433287786449v9.966796875h-1.9755859375v-7.6220703125l-2.3515625.7314453125v-1.599609375l4.115234375-1.4765625h.2119140625Z"/><path class="e" d="M249.325232313718516,201.9284850286449l-.0068359375,1.3466796875c0,.51513671875-.12646484375,1.0322265625-.37939453125,1.5517578125s-.5751953125.94775390625-.96728515625,1.28515625l-1.025390625-.5400390625c.16845703125-.31005859375.3291015625-.63134765625.48193359375-.9638671875s.22900390625-.7451171875.22900390625-1.2373046875v-1.4423828125h1.66796875Z"/><path class="e" d="M257.624060438718516,202.0173522161449v1.5927734375h-6.8154296875v-1.353515625l3.2197265625-3.431640625c.48779296875-.53759765625.82470703125-.98095703125,1.01171875-1.32958984375s.2802734375-.6689453125.2802734375-.96044921875c0-.44189453125-.1103515625-.79052734375-.33154296875-1.0458984375s-.5390625-.3828125-.95361328125-.3828125c-.46923828125,0-.828125.15966796875-1.07666015625.478515625s-.37255859375.72021484375-.37255859375,1.203125h-1.9755859375c0-.89794921875.30859375-1.66796875.92626953125-2.310546875s1.4619140625-.9638671875,2.53271484375-.9638671875c1.04345703125,0,1.84326171875.251953125,2.3994140625.75537109375s.833984375,1.19287109375.833984375,2.06787109375c0,.66552734375-.20068359375,1.2978515625-.6015625,1.89697265625s-.93212890625,1.2431640625-1.5927734375,1.93115234375l-1.763671875,1.8525390625h4.279296875Z"/><path class="e" d="M265.594763563718516,197.6765319036449c-.546875,0-.9501953125.232421875-1.2099609375.697265625v5.236328125h-1.982421875v-7.396484375h1.859375l.068359375.8134765625c.51513671875-.63330078125,1.22119140625-.9501953125,2.119140625-.9501953125.44189453125,0,.8330078125.0888671875,1.17236328125.2666015625s.6025390625.46484375.78955078125.861328125c.23681640625-.35107421875.541015625-.62646484375.91259765625-.8271484375s.8076171875-.30078125,1.30908203125-.30078125c.71533203125,0,1.28955078125.2119140625,1.72265625.6357421875s.6494140625,1.15283203125.6494140625,2.1875v4.7099609375h-1.982421875v-4.716796875c0-.4921875-.09912109375-.81787109375-.29736328125-.9775390625s-.46826171875-.2392578125-.81005859375-.2392578125c-.58349609375,0-.9912109375.27587890625-1.2236328125.8271484375v5.1064453125h-1.9755859375v-4.703125c0-.48779296875-.10009765625-.814453125-.30078125-.98095703125s-.47412109375-.24951171875-.8203125-.24951171875Z"/><path class="e" d="M274.508826063718516,194.2995787786449c0-.29638671875.10009765625-.541015625.30078125-.73486328125s.46923828125-.29052734375.806640625-.29052734375.60595703125.0966796875.806640625.29052734375.30078125.4384765625.30078125.73486328125c0,.29150390625-.10009765625.5341796875-.30078125.72802734375s-.46923828125.29052734375-.806640625.29052734375-.60595703125-.0966796875-.806640625-.29052734375-.30078125-.4365234375-.30078125-.72802734375ZM276.614294813718516,196.2136412786449v7.396484375h-1.982421875v-7.396484375h1.982421875Z"/><path class="e" d="M280.326208876218516,193.1101256536449v10.5h-1.982421875v-10.5h1.982421875Z"/><path class="e" d="M282.048865126218516,202.6325865911449c0-.30078125.1015625-.552734375.30419921875-.75537109375s.47509765625-.30419921875.81689453125-.30419921875.61279296875.1015625.8134765625.30419921875.30078125.45458984375.30078125.75537109375c0,.29638671875-.10009765625.5458984375-.30078125.74853515625s-.4716796875.30419921875-.8134765625.30419921875-.6142578125-.1015625-.81689453125-.30419921875-.30419921875-.4521484375-.30419921875-.74853515625Z"/><path class="e" d="M293.211951063718516,203.5622740911449c-.1640625.0546875-.3427734375.09912109375-.53662109375.13330078125s-.4111328125.05126953125-.65283203125.05126953125c-.64697265625,0-1.162109375-.16845703125-1.544921875-.505859375s-.57421875-.89794921875-.57421875-1.681640625v-3.9033203125h-1.0869140625v-1.4423828125h1.0869140625v-1.8251953125h1.9755859375v1.8251953125h1.2578125v1.4423828125h-1.2578125v3.6982421875c0,.31005859375.06396484375.51513671875.19140625.615234375s.31689453125.150390625.5673828125.150390625c.11865234375,0,.2265625-.005859375.32470703125-.01708984375s.18115234375-.02392578125.24951171875-.03759765625v1.4970703125Z"/><path class="e" d="M298.728552626218516,203.6101256536449l-.0546875-.7587890625c-.48291015625.59716796875-1.15771484375.8955078125-2.0234375.8955078125-.72900390625,0-1.3203125-.21435546875-1.77392578125-.642578125s-.68017578125-1.13037109375-.68017578125-2.10546875v-4.78515625h1.9755859375v4.798828125c0,.41015625.09814453125.70068359375.2939453125.87158203125s.44677734375.25634765625.751953125.25634765625c.35986328125,0,.65185546875-.0625.875-.18798828125s.39404296875-.29736328125.5126953125-.51611328125v-5.22265625h1.982421875v7.396484375h-1.859375Z"/><path class="e" d="M305.270544813718516,197.6765319036449c-.560546875,0-.9775390625.23681640625-1.2509765625.7109375v5.22265625h-1.9755859375v-7.396484375h1.8525390625l.068359375.84765625c.52880859375-.65625,1.2373046875-.984375,2.1259765625-.984375.70166015625,0,1.26708984375.20947265625,1.6953125.62890625s.642578125,1.15087890625.642578125,2.1943359375v4.7099609375h-1.982421875v-4.716796875c0-.47412109375-.1015625-.79541015625-.30419921875-.9638671875s-.4931640625-.2529296875-.87158203125-.2529296875Z"/><path class="e" d="M276.826208876218516,214.2946959661449h2.05078125c-.068359375,1.01171875-.44775390625,1.83984375-1.13818359375,2.48486328125s-1.646484375.96728515625-2.86767578125.96728515625c-1.27587890625,0-2.28076171875-.4296875-3.0146484375-1.28857421875s-1.1005859375-2.0244140625-1.1005859375-3.49658203125v-.6494140625c0-1.47216796875.3759765625-2.6396484375,1.1279296875-3.50341796875s1.75439453125-1.29541015625,3.0078125-1.29541015625c1.244140625,0,2.19677734375.33154296875,2.857421875.99462890625s1.0390625,1.5048828125,1.134765625,2.52587890625h-2.05078125c-.04541015625-.59228515625-.2109375-1.046875-.49560546875-1.36376953125s-.7666015625-.47509765625-1.44580078125-.47509765625c-1.3671875,0-2.05078125,1.03466796875-2.05078125,3.103515625v.6630859375c0,1.02978515625.15625,1.8046875.46826171875,2.32421875s.8330078125.779296875,1.56201171875.779296875c.64697265625,0,1.1220703125-.14697265625,1.42529296875-.44091796875s.4794921875-.7373046875.52978515625-1.32958984375Z"/><path class="e" d="M288.406287001218516,212.4148131536449v.4443359375c0,1.517578125-.39306640625,2.71142578125-1.17919921875,3.58203125s-1.8037109375,1.3056640625-3.05224609375,1.3056640625-2.26953125-.43505859375-3.0625-1.3056640625-1.189453125-2.064453125-1.189453125-3.58203125v-.4443359375c0-1.517578125.39404296875-2.712890625,1.1826171875-3.58544921875s1.80712890625-1.30908203125,3.0556640625-1.30908203125,2.2685546875.4365234375,3.05908203125,1.30908203125,1.18603515625,2.06787109375,1.18603515625,3.58544921875ZM286.328162001218516,212.8591490911449v-.4580078125c0-1.0390625-.18896484375-1.82958984375-.5673828125-2.3720703125s-.91162109375-.8134765625-1.599609375-.8134765625c-.69287109375,0-1.22607421875.27099609375-1.599609375.8134765625s-.560546875,1.3330078125-.560546875,2.3720703125v.4580078125c0,1.03466796875.18896484375,1.826171875.5673828125,2.37548828125s.91357421875.82373046875,1.6064453125.82373046875,1.224609375-.2744140625,1.59619140625-.82373046875.55712890625-1.3408203125.55712890625-2.37548828125Z"/><path class="e" d="M293.373083876218516,221.3437682317699v.9287109375h-3.9736328125v-.7890625l1.87744140625-2.000732421875c.2841796875-.3134765625.48046875-.572265625.58935546875-.775390625.109375-.203125.16357421875-.3896484375.16357421875-.56005859375,0-.25732421875-.064453125-.4609375-.193359375-.609375-.12890625-.14892578125-.31396484375-.2236328125-.5556640625-.2236328125-.27392578125,0-.48291015625.09326171875-.6279296875.279296875-.14453125.18603515625-.21728515625.419921875-.21728515625.701171875h-1.1513671875c0-.5234375.1796875-.97216796875.53955078125-1.3466796875.3603515625-.375.8525390625-.56201171875,1.4765625-.56201171875.6083984375,0,1.07470703125.146484375,1.39892578125.4404296875.32421875.29345703125.486328125.6953125.486328125,1.20556640625,0,.3876953125-.11669921875.75634765625-.3505859375,1.10595703125-.23388671875.34912109375-.54345703125.724609375-.9287109375,1.12548828125l-1.0283203125,1.080322265625h2.4951171875Z"/><path class="e" d="M300.738318251218516,216.4070006536449c-.23681640625.33740234375-.59716796875.64501953125-1.080078125.9228515625s-1.08447265625.4169921875-1.8046875.4169921875c-1.15283203125,0-2.05322265625-.349609375-2.7001953125-1.04931640625s-.970703125-1.5439453125-.970703125-2.53271484375v-.2666015625c0-1.11669921875.31103515625-2.03271484375.93310546875-2.748046875s1.4619140625-1.0732421875,2.51904296875-1.0732421875c1.06201171875,0,1.87060546875.33251953125,2.4267578125.998046875s.833984375,1.544921875.833984375,2.638671875v.8408203125h-4.7099609375c.068359375.478515625.25732421875.86474609375.5673828125,1.15869140625s.7177734375.44091796875,1.2236328125.44091796875c.751953125,0,1.3466796875-.27587890625,1.7841796875-.8271484375l.9775390625,1.080078125ZM297.621130751218516,211.6696959661449c-.41943359375,0-.74267578125.14111328125-.970703125.423828125s-.3759765625.65185546875-.4443359375,1.107421875h2.748046875v-.150390625c-.00927734375-.396484375-.11962890625-.7255859375-.33154296875-.98779296875s-.5458984375-.39306640625-1.00146484375-.39306640625Z"/><path class="e" d="M308.367224501218516,210.2136412786449v10.240478515625h-1.982421875v-3.472900390625c-.46484375.51025390625-1.0595703125.765625-1.7841796875.765625-.92529296875,0-1.6396484375-.35791015625-2.14306640625-1.0732421875s-.75537109375-1.61083984375-.75537109375-2.6865234375v-.1435546875c0-1.12548828125.25048828125-2.03466796875.751953125-2.7275390625s1.22119140625-1.0390625,2.16015625-1.0390625c.78857421875,0,1.41943359375.29833984375,1.8935546875.8955078125l.123046875-.7587890625h1.736328125ZM303.684607313718516,213.9870787786449c0,.59228515625.10595703125,1.1015625.31787109375,1.52783203125s.57763671875.63916015625,1.09716796875.63916015625c.6015625,0,1.02978515625-.24169921875,1.28515625-.724609375v-3.0625c-.24609375-.46484375-.669921875-.697265625-1.271484375-.697265625-.51513671875,0-.8818359375.20849609375-1.1005859375.62548828125s-.328125.93310546875-.328125,1.54833984375v.1435546875Z"/><path class="e" d="M262.912146376218516,231.8974791692699h1.125c-.0859375.80859375-.390625,1.482421875-.9140625,2.021484375s-1.296875.80859375-2.3203125.80859375c-1,0-1.8046875-.3603515625-2.4140625-1.0810546875s-.9140625-1.6787109375-.9140625-2.8740234375v-.849609375c0-1.1953125.3076171875-2.154296875.9228515625-2.876953125s1.4501953125-1.083984375,2.5048828125-1.083984375c.96484375,0,1.70703125.265625,2.2265625.796875s.822265625,1.216796875.908203125,2.056640625h-1.125c-.0859375-.59375-.27734375-1.0634765625-.57421875-1.4091796875s-.775390625-.5185546875-1.435546875-.5185546875c-.75390625,0-1.326171875.27734375-1.716796875.83203125s-.5859375,1.28515625-.5859375,2.19140625v.861328125c0,.83984375.177734375,1.5556640625.533203125,2.1474609375s.912109375.8876953125,1.669921875.8876953125c.71875,0,1.2255859375-.16796875,1.5205078125-.50390625s.4912109375-.8046875.5888671875-1.40625Z"/><path class="e" d="M265.460974501218516,227.3447447942699l1.13671875-1.72265625h1.306640625l-1.5703125,1.72265625h-.873046875ZM266.580115126218516,228.2705260442699v6.33984375h-1.083984375v-6.33984375h1.083984375Z"/><path class="e" d="M269.556677626218516,225.6103697942699v9h-1.08984375v-9h1.08984375Z"/><path class="e" d="M277.168005751218516,234.7275572942699c-.76171875,0-1.365234375-.244140625-1.810546875-.732421875v3.052734375h-1.08984375v-8.77734375h.99609375l.052734375.697265625c.4453125-.54296875,1.056640625-.814453125,1.833984375-.814453125.80078125,0,1.4140625.296875,1.83984375.890625s.638671875,1.375.638671875,2.34375v.123046875c0,.92578125-.2138671875,1.693359375-.6416015625,2.302734375s-1.0341796875.9140625-1.8193359375.9140625ZM276.834021376218516,229.0674010442699c-.3671875,0-.669921875.0830078125-.908203125.2490234375s-.427734375.3740234375-.568359375.6240234375v3.03515625c.14453125.25.3349609375.4560546875.5712890625.6181640625s.5419921875.2431640625.9169921875.2431640625c.5859375,0,1.0146484375-.23046875,1.2861328125-.69140625s.4072265625-1.005859375.4072265625-1.634765625v-.123046875c0-.62890625-.1357421875-1.1728515625-.4072265625-1.6318359375s-.7041015625-.6884765625-1.2978515625-.6884765625Z"/><path class="e" d="M283.543005751218516,229.1963072942699c-.37109375,0-.67578125.0830078125-.9140625.2490234375s-.416015625.3876953125-.533203125.6650390625v4.5h-1.083984375v-6.33984375h1.0546875l.0234375.7265625c.16015625-.2578125.3642578125-.462890625.6123046875-.615234375s.5458984375-.228515625.8935546875-.228515625c.203125,0,.36328125.02734375.48046875.08203125l-.005859375,1.0078125c-.16015625-.03125-.3359375-.046875-.52734375-.046875Z"/><path class="e" d="M284.673865126218516,231.5107604192699v-.134765625c0-.91796875.2578125-1.6845703125.7734375-2.2998046875s1.216796875-.9228515625,2.103515625-.9228515625c.89453125,0,1.6005859375.3076171875,2.1181640625.9228515625s.7763671875,1.3818359375.7763671875,2.2998046875v.134765625c0,.91796875-.2587890625,1.68359375-.7763671875,2.296875s-1.2197265625.919921875-2.1064453125.919921875c-.890625,0-1.5947265625-.306640625-2.1123046875-.919921875s-.7763671875-1.37890625-.7763671875-2.296875ZM285.757849501218516,231.3759947942699v.134765625c0,.62890625.1494140625,1.173828125.4482421875,1.634765625s.7509765625.69140625,1.3564453125.69140625c.59375,0,1.041015625-.23046875,1.341796875-.69140625s.451171875-1.005859375.451171875-1.634765625v-.134765625c0-.62109375-.150390625-1.1650390625-.451171875-1.6318359375s-.751953125-.7001953125-1.353515625-.7001953125c-.59765625,0-1.0458984375.2333984375-1.3447265625.7001953125s-.4482421875,1.0107421875-.4482421875,1.6318359375Z"/><path class="e" d="M300.095740126218516,231.8974791692699h1.125c-.0859375.80859375-.390625,1.482421875-.9140625,2.021484375s-1.296875.80859375-2.3203125.80859375c-1,0-1.8046875-.3603515625-2.4140625-1.0810546875s-.9140625-1.6787109375-.9140625-2.8740234375v-.849609375c0-1.1953125.3076171875-2.154296875.9228515625-2.876953125s1.4501953125-1.083984375,2.5048828125-1.083984375c.96484375,0,1.70703125.265625,2.2265625.796875s.822265625,1.216796875.908203125,2.056640625h-1.125c-.0859375-.59375-.27734375-1.0634765625-.57421875-1.4091796875s-.775390625-.5185546875-1.435546875-.5185546875c-.75390625,0-1.326171875.27734375-1.716796875.83203125s-.5859375,1.28515625-.5859375,2.19140625v.861328125c0,.83984375.177734375,1.5556640625.533203125,2.1474609375s.912109375.8876953125,1.669921875.8876953125c.71875,0,1.2255859375-.16796875,1.5205078125-.50390625s.4912109375-.8046875.5888671875-1.40625ZM297.048865126218516,223.6064635442699l.884765625.99609375.884765625-.99609375h.9375v.05859375l-1.48828125,1.60546875h-.66796875l-1.46484375-1.60546875v-.05859375h.9140625Z"/><path class="e" d="M307.742224501218516,234.6103697942699l-1.8515625-3.45703125h-2.00390625v3.45703125h-1.130859375v-8.53125h2.82421875c.95703125,0,1.6943359375.21875,2.2119140625.65625s.7763671875,1.072265625.7763671875,1.904296875c0,.53125-.1435546875.9951171875-.4306640625,1.3916015625s-.6845703125.6923828125-1.1923828125.8876953125l2.00390625,3.62109375v.0703125h-1.20703125ZM303.886755751218516,227.0049010442699v3.228515625h1.728515625c.60546875,0,1.0615234375-.1552734375,1.3681640625-.4658203125s.4599609375-.6865234375.4599609375-1.1279296875c0-.4921875-.1474609375-.8876953125-.4423828125-1.1865234375s-.7685546875-.4482421875-1.4208984375-.4482421875h-1.693359375Z"/><path class="l" d="M43.177303896589365,278.328438416399877h259.950647317740732"/><path class="l" d="M43.177303896589365,64.978085298959741h259.950647317740732"/><polyline class="j" points="43.301855848874766 232.745867841139443 49.747656630124766 242.3340026067699 56.193518446531016 243.290789716139443 62.639319227781016 247.679949872389443 69.085181044187266 238.4111510442699 75.530981825437266 240.502703778639443 81.976843641843516 238.625750653639443 88.422644423093516 231.8828307317699 94.868506239499766 229.6875182317699 101.314307020749766 231.334246747389443 107.760168837156016 236.8828307317699 114.205969618406016 236.830828778639443 120.651831434812266 235.1845885442699 127.097632216062266 230.840594403639443 133.543494032468516 229.6006041692699 139.989294813718516 230.4174987005199 146.435156630124766 222.0298033880199 152.880957411374766 217.976824872389898 159.326819227781016 227.470477216139443 165.772620009031016 227.060809247389443 172.218481825437266 222.577410809889443 178.664282606687266 225.167254559889443 185.110144423093516 226.408953778639443 191.555975721921641 222.0571471380199 198.001807020749766 221.721453778639443 204.447638319577891 221.221942059889443 210.893469618405106 215.133074872389898 217.339300917234141 203.7026549505199 223.785132216062266 164.612567059889898 230.230963514890391 116.457781903639898 236.676794813718516 91.657977216139898 242.272284315671641 109.6084166692699"/><path class="e" d="M239.355963514890391,110.3598815130199c.494293212889716,1.585693359369998,2.18096923828125,2.470947265619998,3.76666259765625,1.9765625,1.585693359375-.494384765630002,2.470733642578125-2.180908203130002,1.9764404296875-3.7666015625s-2.18096923828125-2.470703125-3.766632080079034-1.9765625c-1.585693359375.494384765619998-2.470733642577216,2.18115234375-1.976470947264716,3.7666015625Z"/><line class="o" x1="242.228801804954855" y1="109.468998113649832" x2="303.160552913864194" y2="180.148999242209811"/><circle class="m" cx="303.160552913864194" cy="180.14899924220208" r="5.999703557297835"/><rect class="g" x="36.465872692655466" y="57.7088411279301" width="84.188976377952713" height="17.077990706809942"/><text class="p" transform="translate(38.030676649656016 69.7601500677074)"><tspan x="0" y="0">mil. tun CO</tspan></text><text class="s" transform="translate(96.741614149656016 71.7562438177074) scale(.583000004291534)"><tspan x="0" y="0">2</tspan></text><text class="p" transform="translate(100.755286024656016 69.7601500677074)"><tspan x="0" y="0">eq</tspan></text><rect class="g" x="59.281158537158262" y="80.65146911858983" width="135.942377525991105" height="51.291176066300068"/><path class="f" d="M71.701208876218516,92.7771178411449c0-.3984375-.13671875-.71484375-.41015625-.94921875s-.8125-.46875-1.6171875-.703125c-.84375-.24609375-1.515625-.5615234375-2.015625-.9462890625s-.75-.9091796875-.75-1.5732421875.2646484375-1.216796875.7939453125-1.658203125,1.2314453125-.662109375,2.1064453125-.662109375c.9609375,0,1.7021484375.263671875,2.2236328125.791015625s.7822265625,1.123046875.7822265625,1.787109375h-1.125c0-.4765625-.154296875-.87109375-.462890625-1.18359375s-.78125-.46875-1.41796875-.46875c-.6015625,0-1.046875.1318359375-1.3359375.3955078125s-.43359375.5927734375-.43359375.9873046875c0,.359375.1572265625.658203125.4716796875.896484375s.8232421875.455078125,1.5263671875.650390625c.96484375.2734375,1.6728515625.61328125,2.1240234375,1.01953125s.6767578125.94140625.6767578125,1.60546875c0,.6953125-.271484375,1.25-.814453125,1.6640625s-1.263671875.62109375-2.162109375.62109375c-.5234375,0-1.0322265625-.09765625-1.5263671875-.29296875s-.900390625-.4853515625-1.21875-.8701171875-.4775390625-.8603515625-.4775390625-1.4267578125h1.125c0,.58203125.212890625,1.005859375.638671875,1.271484375s.912109375.3984375,1.458984375.3984375c.58984375,0,1.0439453125-.1220703125,1.3623046875-.3662109375s.4775390625-.5732421875.4775390625-.9873046875Z"/><path class="f" d="M77.009802626218516,95.0505553411449c-.76171875,0-1.365234375-.244140625-1.810546875-.732421875v3.052734375h-1.08984375v-8.77734375h.99609375l.052734375.697265625c.4453125-.54296875,1.056640625-.814453125,1.833984375-.814453125.80078125,0,1.4140625.296875,1.83984375.890625s.638671875,1.375.638671875,2.34375v.123046875c0,.92578125-.2138671875,1.693359375-.6416015625,2.302734375s-1.0341796875.9140625-1.8193359375.9140625ZM76.675818251218516,89.3903990911449c-.3671875,0-.669921875.0830078125-.908203125.2490234375s-.427734375.3740234375-.568359375.6240234375v3.03515625c.14453125.25.3349609375.4560546875.5712890625.6181640625s.5419921875.2431640625.9169921875.2431640625c.5859375,0,1.0146484375-.23046875,1.2861328125-.69140625s.4072265625-1.005859375.4072265625-1.634765625v-.123046875c0-.62890625-.1357421875-1.1728515625-.4072265625-1.6318359375s-.7041015625-.6884765625-1.2978515625-.6884765625Z"/><path class="f" d="M80.566443251218516,91.8337584661449v-.134765625c0-.91796875.2578125-1.6845703125.7734375-2.2998046875s1.216796875-.9228515625,2.103515625-.9228515625c.89453125,0,1.6005859375.3076171875,2.1181640625.9228515625s.7763671875,1.3818359375.7763671875,2.2998046875v.134765625c0,.91796875-.2587890625,1.68359375-.7763671875,2.296875s-1.2197265625.919921875-2.1064453125.919921875c-.890625,0-1.5947265625-.306640625-2.1123046875-.919921875s-.7763671875-1.37890625-.7763671875-2.296875ZM81.650427626218516,91.6989928411449v.134765625c0,.62890625.1494140625,1.173828125.4482421875,1.634765625s.7509765625.69140625,1.3564453125.69140625c.59375,0,1.041015625-.23046875,1.341796875-.69140625s.451171875-1.005859375.451171875-1.634765625v-.134765625c0-.62109375-.150390625-1.1650390625-.451171875-1.6318359375s-.751953125-.7001953125-1.353515625-.7001953125c-.59765625,0-1.0458984375.2333984375-1.3447265625.7001953125s-.4482421875,1.0107421875-.4482421875,1.6318359375Z"/><path class="f" d="M88.875037001218516,85.9333678411449v9h-1.08984375v-9h1.08984375Z"/><path class="f" d="M95.630896376218516,93.8259459661449c-.20703125.3125-.5.5947265625-.87890625.8466796875s-.880859375.3779296875-1.505859375.3779296875c-.8828125,0-1.5888671875-.287109375-2.1181640625-.861328125s-.7939453125-1.30859375-.7939453125-2.203125v-.24609375c0-.69140625.1318359375-1.2802734375.3955078125-1.7666015625s.6064453125-.857421875,1.0283203125-1.11328125.87109375-.3837890625,1.34765625-.3837890625c.90625,0,1.5673828125.2958984375,1.9833984375.8876953125s.6240234375,1.3310546875.6240234375,2.2177734375v.486328125h-4.2890625c.015625.58203125.1884765625,1.0771484375.5185546875,1.4853515625s.7841796875.6123046875,1.3623046875.6123046875c.3828125,0,.70703125-.078125.97265625-.234375s.498046875-.365234375.697265625-.626953125l.65625.521484375ZM93.105505751218516,89.3669615911449c-.4296875,0-.79296875.15625-1.08984375.46875s-.482421875.76171875-.556640625,1.34765625h3.169921875v-.08203125c-.02734375-.421875-.1494140625-.81640625-.3662109375-1.18359375s-.6025390625-.55078125-1.1572265625-.55078125Z"/><path class="f" d="M99.515662001218516,94.1599303411449c.38671875,0,.7255859375-.115234375,1.0166015625-.345703125s.4501953125-.525390625.4775390625-.884765625h1.03125c-.02734375.56640625-.287109375,1.0615234375-.779296875,1.4853515625s-1.07421875.6357421875-1.74609375.6357421875c-.953125,0-1.6611328125-.314453125-2.1240234375-.943359375s-.6943359375-1.369140625-.6943359375-2.220703125v-.24609375c0-.8515625.2314453125-1.591796875.6943359375-2.220703125s1.1708984375-.943359375,2.1240234375-.943359375c.7421875,0,1.341796875.2197265625,1.798828125.6591796875s.69921875.9853515625.7265625,1.6376953125h-1.03125c-.02734375-.390625-.1748046875-.72265625-.4423828125-.99609375s-.6181640625-.41015625-1.0517578125-.41015625c-.4453125,0-.7939453125.11328125-1.0458984375.33984375s-.4296875.513671875-.533203125.861328125-.1552734375.705078125-.1552734375,1.072265625v.24609375c0,.37109375.05078125.73046875.15234375,1.078125s.2783203125.6337890625.5302734375.8583984375.6025390625.3369140625,1.0517578125.3369140625ZM98.384802626218516,85.9392272161449l.884765625.99609375.884765625-.99609375h.9375v.05859375l-1.48828125,1.60546875h-.66796875l-1.46484375-1.60546875v-.05859375h.9140625Z"/><path class="f" d="M105.890662001218516,89.3903990911449c-.34765625,0-.654296875.09375-.919921875.28125s-.474609375.431640625-.626953125.732421875v4.529296875h-1.083984375v-6.33984375h1.025390625l.03515625.791015625c.48046875-.60546875,1.111328125-.908203125,1.892578125-.908203125.625,0,1.1201171875.17578125,1.4853515625.52734375s.5478515625.943359375.5478515625,1.775390625v4.154296875h-1.08984375v-4.166015625c0-.49609375-.1083984375-.849609375-.3251953125-1.060546875s-.5302734375-.31640625-.9404296875-.31640625Z"/><path class="f" d="M112.048865126218516,95.9118834661449c-.078125.20703125-.19140625.4345703125-.33984375.6826171875s-.3466796875.4599609375-.5947265625.6357421875-.5634765625.263671875-.9462890625.263671875c-.08984375,0-.2001953125-.0107421875-.3310546875-.0322265625s-.2236328125-.0419921875-.2783203125-.0615234375l-.005859375-.87890625c.0859375.015625.18359375.0234375.29296875.0234375.3671875,0,.654296875-.0751953125.861328125-.2255859375s.376953125-.4208984375.509765625-.8115234375l.234375-.64453125-2.26171875-6.26953125h1.18359375l1.587890625,4.74609375,1.470703125-4.74609375h1.16015625l-2.54296875,7.318359375ZM111.439490126218516,87.6560240911449l1.13671875-1.72265625h1.306640625l-1.5703125,1.72265625h-.873046875Z"/><path class="f" d="M121.078162001218516,94.1599303411449c.38671875,0,.7255859375-.115234375,1.0166015625-.345703125s.4501953125-.525390625.4775390625-.884765625h1.03125c-.02734375.56640625-.287109375,1.0615234375-.779296875,1.4853515625s-1.07421875.6357421875-1.74609375.6357421875c-.953125,0-1.6611328125-.314453125-2.1240234375-.943359375s-.6943359375-1.369140625-.6943359375-2.220703125v-.24609375c0-.8515625.2314453125-1.591796875.6943359375-2.220703125s1.1708984375-.943359375,2.1240234375-.943359375c.7421875,0,1.341796875.2197265625,1.798828125.6591796875s.69921875.9853515625.7265625,1.6376953125h-1.03125c-.02734375-.390625-.1748046875-.72265625-.4423828125-.99609375s-.6181640625-.41015625-1.0517578125-.41015625c-.4453125,0-.7939453125.11328125-1.0458984375.33984375s-.4296875.513671875-.533203125.861328125-.1552734375.705078125-.1552734375,1.072265625v.24609375c0,.37109375.05078125.73046875.15234375,1.078125s.2783203125.6337890625.5302734375.8583984375.6025390625.3369140625,1.0517578125.3369140625Z"/><path class="f" d="M124.875037001218516,87.6677428411449l1.13671875-1.72265625h1.306640625l-1.5703125,1.72265625h-.873046875ZM125.994177626218516,88.5935240911449v6.33984375h-1.083984375v-6.33984375h1.083984375Z"/><path class="f" d="M128.970740126218516,85.9333678411449v9h-1.08984375v-9h1.08984375Z"/><path class="f" d="M133.851599501218516,94.9333678411449v-8.53125h5.361328125v.92578125h-4.23046875v2.7421875h3.69140625v.919921875h-3.69140625v3.0234375h4.2890625v.919921875h-5.419921875Z"/><path class="f" d="M145.552771376218516,86.4021178411449h1.125v5.771484375c0,.9609375-.30859375,1.6806640625-.92578125,2.1591796875s-1.33984375.7177734375-2.16796875.7177734375c-.87109375,0-1.6025390625-.2392578125-2.1943359375-.7177734375s-.8876953125-1.1982421875-.8876953125-2.1591796875v-5.771484375h1.119140625v5.771484375c0,.66796875.1806640625,1.1611328125.5419921875,1.4794921875s.8349609375.4775390625,1.4208984375.4775390625c.59375,0,1.0703125-.1591796875,1.4296875-.4775390625s.5390625-.8115234375.5390625-1.4794921875v-5.771484375Z"/><path class="f" d="M151.294958876218516,88.5935240911449h1.08984375v7.095703125c0,1.203125-.552734375,1.8046875-1.658203125,1.8046875-.2421875,0-.466796875-.033203125-.673828125-.099609375l.005859375-.873046875c.14453125.03515625.310546875.052734375.498046875.052734375.23828125,0,.4208984375-.06640625.5478515625-.19921875s.1904296875-.361328125.1904296875-.685546875v-7.095703125ZM151.183630751218516,86.9118834661449c0-.17578125.0546875-.32421875.1640625-.4453125s.267578125-.181640625.474609375-.181640625c.2109375,0,.37109375.060546875.48046875.181640625s.1640625.26953125.1640625.4453125c0,.16796875-.0546875.3115234375-.1640625.4306640625s-.26953125.1787109375-.48046875.1787109375c-.20703125,0-.365234375-.0595703125-.474609375-.1787109375s-.1640625-.2626953125-.1640625-.4306640625Z"/><path class="f" d="M159.152380751218516,93.8259459661449c-.20703125.3125-.5.5947265625-.87890625.8466796875s-.880859375.3779296875-1.505859375.3779296875c-.8828125,0-1.5888671875-.287109375-2.1181640625-.861328125s-.7939453125-1.30859375-.7939453125-2.203125v-.24609375c0-.69140625.1318359375-1.2802734375.3955078125-1.7666015625s.6064453125-.857421875,1.0283203125-1.11328125.87109375-.3837890625,1.34765625-.3837890625c.90625,0,1.5673828125.2958984375,1.9833984375.8876953125s.6240234375,1.3310546875.6240234375,2.2177734375v.486328125h-4.2890625c.015625.58203125.1884765625,1.0771484375.5185546875,1.4853515625s.7841796875.6123046875,1.3623046875.6123046875c.3828125,0,.70703125-.078125.97265625-.234375s.498046875-.365234375.697265625-.626953125l.65625.521484375ZM156.626990126218516,89.3669615911449c-.4296875,0-.79296875.15625-1.08984375.46875s-.482421875.76171875-.556640625,1.34765625h3.169921875v-.08203125c-.02734375-.421875-.1494140625-.81640625-.3662109375-1.18359375s-.6025390625-.55078125-1.1572265625-.55078125Z"/><path class="f" d="M167.168005751218516,93.2517272161449c0-.234375-.0869140625-.4443359375-.2607421875-.6298828125s-.5732421875-.3408203125-1.1982421875-.4658203125c-.70703125-.1484375-1.2646484375-.359375-1.6728515625-.6328125s-.6123046875-.671875-.6123046875-1.1953125c0-.5.2138671875-.93359375.6416015625-1.30078125s.9970703125-.55078125,1.7080078125-.55078125c.7578125,0,1.349609375.193359375,1.775390625.580078125s.638671875.853515625.638671875,1.400390625h-1.083984375c0-.26171875-.115234375-.5087890625-.345703125-.7412109375s-.55859375-.3486328125-.984375-.3486328125c-.44921875,0-.771484375.09765625-.966796875.29296875s-.29296875.408203125-.29296875.638671875c0,.234375.09375.4228515625.28125.5654296875s.580078125.2802734375,1.177734375.4130859375c.77734375.1796875,1.3515625.412109375,1.72265625.697265625s.556640625.68359375.556640625,1.1953125c0,.55859375-.2236328125,1.01171875-.6708984375,1.359375s-1.0400390625.521484375-1.7783203125.521484375c-.83984375,0-1.482421875-.21484375-1.927734375-.64453125s-.66796875-.90625-.66796875-1.4296875h1.08984375c.0234375.44921875.1962890625.7587890625.5185546875.9287109375s.6513671875.2548828125.9873046875.2548828125c.44140625,0,.779296875-.0859375,1.013671875-.2578125s.3515625-.388671875.3515625-.650390625Z"/><path class="f" d="M172.300818251218516,89.3903990911449c-.34765625,0-.654296875.09375-.919921875.28125s-.474609375.431640625-.626953125.732421875v4.529296875h-1.083984375v-6.33984375h1.025390625l.03515625.791015625c.48046875-.60546875,1.111328125-.908203125,1.892578125-.908203125.625,0,1.1201171875.17578125,1.4853515625.52734375s.5478515625.943359375.5478515625,1.775390625v4.154296875h-1.08984375v-4.166015625c0-.49609375-.1083984375-.849609375-.3251953125-1.060546875s-.5302734375-.31640625-.9404296875-.31640625Z"/><path class="f" d="M176.349646376218516,87.6677428411449l1.13671875-1.72265625h1.306640625l-1.5703125,1.72265625h-.873046875ZM177.468787001218516,88.5935240911449v6.33984375h-1.083984375v-6.33984375h1.083984375Z"/><path class="f" d="M179.009802626218516,89.4900084661449v-.896484375h4.810546875v.767578125l-3.52734375,4.681640625h3.697265625v.890625h-5.02734375v-.796875l3.4921875-4.646484375h-3.4453125ZM180.568396376218516,85.9392272161449l.884765625.99609375.884765625-.99609375h.9375v.05859375l-1.48828125,1.60546875h-.66796875l-1.46484375-1.60546875v-.05859375h.9140625Z"/><path class="f" d="M185.226599501218516,86.9118834661449c0-.17578125.0537109375-.32421875.1611328125-.4453125s.2666015625-.181640625.4775390625-.181640625c.20703125,0,.3662109375.060546875.4775390625.181640625s.1669921875.26953125.1669921875.4453125c0,.16796875-.0556640625.3115234375-.1669921875.4306640625s-.2705078125.1787109375-.4775390625.1787109375c-.2109375,0-.3701171875-.0595703125-.4775390625-.1787109375s-.1611328125-.2626953125-.1611328125-.4306640625ZM186.398474501218516,88.5935240911449v6.33984375h-1.08984375v-6.33984375h1.08984375Z"/><path class="f" d="M190.822302626218516,94.9333678411449c-.0859375.02734375-.1982421875.0537109375-.3369140625.0791015625s-.3056640625.0380859375-.5009765625.0380859375c-.40234375,0-.74609375-.123046875-1.03125-.369140625s-.427734375-.6875-.427734375-1.32421875v-3.931640625h-1.16015625v-.83203125h1.16015625v-1.541015625h1.083984375v1.541015625h1.18359375v.83203125h-1.18359375v3.9375c0,.32421875.0703125.53125.2109375.62109375s.302734375.134765625.486328125.134765625c.08984375,0,.1845703125-.0087890625.2841796875-.0263671875s.1748046875-.0322265625.2255859375-.0439453125l.005859375.884765625Z"/><path class="f" d="M72.005896376218516,108.2258483098949c-.20703125.3125-.5.5947265625-.87890625.8466796875s-.880859375.3779296875-1.505859375.3779296875c-.8828125,0-1.5888671875-.287109375-2.1181640625-.861328125s-.7939453125-1.30859375-.7939453125-2.203125v-.24609375c0-.69140625.1318359375-1.2802734375.3955078125-1.7666015625s.6064453125-.857421875,1.0283203125-1.11328125.87109375-.3837890625,1.34765625-.3837890625c.90625,0,1.5673828125.2958984375,1.9833984375.8876953125s.6240234375,1.3310546875.6240234375,2.2177734375v.486328125h-4.2890625c.015625.58203125.1884765625,1.0771484375.5185546875,1.4853515625s.7841796875.6123046875,1.3623046875.6123046875c.3828125,0,.70703125-.078125.97265625-.234375s.498046875-.365234375.697265625-.626953125l.65625.521484375ZM69.480505751218516,103.7668639348949c-.4296875,0-.79296875.15625-1.08984375.46875s-.482421875.76171875-.556640625,1.34765625h3.169921875v-.08203125c-.02734375-.421875-.1494140625-.81640625-.3662109375-1.18359375s-.6025390625-.55078125-1.1572265625-.55078125Z"/><path class="f" d="M75.890662001218516,103.7903014348949c-.38671875,0-.697265625.08203125-.931640625.24609375s-.41015625.380859375-.52734375.650390625v4.646484375h-1.08984375v-6.33984375h1.03125l.029296875.69140625c.45703125-.5390625,1.08203125-.80859375,1.875-.80859375.40625,0,.7685546875.0810546875,1.0869140625.2431640625s.5615234375.4208984375.7294921875.7763671875c.2109375-.3046875.4853515625-.55078125.8232421875-.73828125s.7353515625-.28125,1.1923828125-.28125c.6796875,0,1.2041015625.181640625,1.5732421875.544921875s.5537109375.9453125.5537109375,1.74609375v4.166015625h-1.08984375v-4.177734375c0-.53125-.1220703125-.8916015625-.3662109375-1.0810546875s-.5732421875-.2841796875-.9873046875-.2841796875c-.4375,0-.78125.1298828125-1.03125.3896484375s-.39453125.5751953125-.43359375.9462890625v4.20703125h-1.083984375v-4.171875c0-.49609375-.123046875-.8486328125-.369140625-1.0576171875s-.57421875-.3134765625-.984375-.3134765625Z"/><path class="f" d="M83.882849501218516,101.3117858098949c0-.17578125.0537109375-.32421875.1611328125-.4453125s.2666015625-.181640625.4775390625-.181640625c.20703125,0,.3662109375.060546875.4775390625.181640625s.1669921875.26953125.1669921875.4453125c0,.16796875-.0556640625.3115234375-.1669921875.4306640625s-.2705078125.1787109375-.4775390625.1787109375c-.2109375,0-.3701171875-.0595703125-.4775390625-.1787109375s-.1611328125-.2626953125-.1611328125-.4306640625ZM85.054724501218516,102.9934264348949v6.33984375h-1.08984375v-6.33984375h1.08984375Z"/><path class="f" d="M90.486365126218516,107.6516295598949c0-.234375-.0869140625-.4443359375-.2607421875-.6298828125s-.5732421875-.3408203125-1.1982421875-.4658203125c-.70703125-.1484375-1.2646484375-.359375-1.6728515625-.6328125s-.6123046875-.671875-.6123046875-1.1953125c0-.5.2138671875-.93359375.6416015625-1.30078125s.9970703125-.55078125,1.7080078125-.55078125c.7578125,0,1.349609375.193359375,1.775390625.580078125s.638671875.853515625.638671875,1.400390625h-1.083984375c0-.26171875-.115234375-.5087890625-.345703125-.7412109375s-.55859375-.3486328125-.984375-.3486328125c-.44921875,0-.771484375.09765625-.966796875.29296875s-.29296875.408203125-.29296875.638671875c0,.234375.09375.4228515625.28125.5654296875s.580078125.2802734375,1.177734375.4130859375c.77734375.1796875,1.3515625.412109375,1.72265625.697265625s.556640625.68359375.556640625,1.1953125c0,.55859375-.2236328125,1.01171875-.6708984375,1.359375s-1.0400390625.521484375-1.7783203125.521484375c-.83984375,0-1.482421875-.21484375-1.927734375-.64453125s-.66796875-.90625-.66796875-1.4296875h1.08984375c.0234375.44921875.1962890625.7587890625.5185546875.9287109375s.6513671875.2548828125.9873046875.2548828125c.44140625,0,.779296875-.0859375,1.013671875-.2578125s.3515625-.388671875.3515625-.650390625Z"/><path class="f" d="M98.003943251218516,108.2258483098949c-.20703125.3125-.5.5947265625-.87890625.8466796875s-.880859375.3779296875-1.505859375.3779296875c-.8828125,0-1.5888671875-.287109375-2.1181640625-.861328125s-.7939453125-1.30859375-.7939453125-2.203125v-.24609375c0-.69140625.1318359375-1.2802734375.3955078125-1.7666015625s.6064453125-.857421875,1.0283203125-1.11328125.87109375-.3837890625,1.34765625-.3837890625c.90625,0,1.5673828125.2958984375,1.9833984375.8876953125s.6240234375,1.3310546875.6240234375,2.2177734375v.486328125h-4.2890625c.015625.58203125.1884765625,1.0771484375.5185546875,1.4853515625s.7841796875.6123046875,1.3623046875.6123046875c.3828125,0,.70703125-.078125.97265625-.234375s.498046875-.365234375.697265625-.626953125l.65625.521484375ZM95.478552626218516,103.7668639348949c-.4296875,0-.79296875.15625-1.08984375.46875s-.482421875.76171875-.556640625,1.34765625h3.169921875v-.08203125c-.02734375-.421875-.1494140625-.81640625-.3662109375-1.18359375s-.6025390625-.55078125-1.1572265625-.55078125Z"/><path class="f" d="M107.666052626218516,108.4133483098949v.919921875h-5.173828125v-8.53125h1.130859375v7.611328125h4.04296875Z"/><path class="f" d="M113.519568251218516,100.8020201848949h1.125v5.771484375c0,.9609375-.30859375,1.6806640625-.92578125,2.1591796875s-1.33984375.7177734375-2.16796875.7177734375c-.87109375,0-1.6025390625-.2392578125-2.1943359375-.7177734375s-.8876953125-1.1982421875-.8876953125-2.1591796875v-5.771484375h1.119140625v5.771484375c0,.66796875.1806640625,1.1611328125.5419921875,1.4794921875s.8349609375.4775390625,1.4208984375.4775390625c.59375,0,1.0703125-.1591796875,1.4296875-.4775390625s.5390625-.8115234375.5390625-1.4794921875v-5.771484375Z"/><path class="f" d="M121.593787001218516,108.4133483098949v.919921875h-5.173828125v-8.53125h1.130859375v7.611328125h4.04296875Z"/><path class="f" d="M127.447302626218516,100.8020201848949h1.125v5.771484375c0,.9609375-.30859375,1.6806640625-.92578125,2.1591796875s-1.33984375.7177734375-2.16796875.7177734375c-.87109375,0-1.6025390625-.2392578125-2.1943359375-.7177734375s-.8876953125-1.1982421875-.8876953125-2.1591796875v-5.771484375h1.119140625v5.771484375c0,.66796875.1806640625,1.1611328125.5419921875,1.4794921875s.8349609375.4775390625,1.4208984375.4775390625c.59375,0,1.0703125-.1591796875,1.4296875-.4775390625s.5390625-.8115234375.5390625-1.4794921875v-5.771484375Z"/><path class="f" d="M135.498083876218516,106.6203795598949h1.125c-.0859375.80859375-.390625,1.482421875-.9140625,2.021484375s-1.296875.80859375-2.3203125.80859375c-1,0-1.8046875-.3603515625-2.4140625-1.0810546875s-.9140625-1.6787109375-.9140625-2.8740234375v-.849609375c0-1.1953125.3076171875-2.154296875.9228515625-2.876953125s1.4501953125-1.083984375,2.5048828125-1.083984375c.96484375,0,1.70703125.265625,2.2265625.796875s.822265625,1.216796875.908203125,2.056640625h-1.125c-.0859375-.59375-.27734375-1.0634765625-.57421875-1.4091796875s-.775390625-.5185546875-1.435546875-.5185546875c-.75390625,0-1.326171875.27734375-1.716796875.83203125s-.5859375,1.28515625-.5859375,2.19140625v.861328125c0,.83984375.177734375,1.5556640625.533203125,2.1474609375s.912109375.8876953125,1.669921875.8876953125c.71875,0,1.2255859375-.16796875,1.5205078125-.50390625s.4912109375-.8046875.5888671875-1.40625Z"/><path class="f" d="M138.158240126218516,109.3332701848949v-8.53125h5.28515625v.92578125h-4.154296875v2.912109375h3.57421875v.92578125h-3.57421875v3.767578125h-1.130859375Z"/><path class="f" d="M66.703162001218516,120.6338072942699v-.134765625c0-.91796875.2578125-1.6845703125.7734375-2.2998046875s1.216796875-.9228515625,2.103515625-.9228515625c.89453125,0,1.6005859375.3076171875,2.1181640625.9228515625s.7763671875,1.3818359375.7763671875,2.2998046875v.134765625c0,.91796875-.2587890625,1.68359375-.7763671875,2.296875s-1.2197265625.919921875-2.1064453125.919921875c-.890625,0-1.5947265625-.306640625-2.1123046875-.919921875s-.7763671875-1.37890625-.7763671875-2.296875ZM67.787146376218516,120.4990416692699v.134765625c0,.62890625.1494140625,1.173828125.4482421875,1.634765625s.7509765625.69140625,1.3564453125.69140625c.59375,0,1.041015625-.23046875,1.341796875-.69140625s.451171875-1.005859375.451171875-1.634765625v-.134765625c0-.62109375-.150390625-1.1650390625-.451171875-1.6318359375s-.751953125-.7001953125-1.353515625-.7001953125c-.59765625,0-1.0458984375.2333984375-1.3447265625.7001953125s-.4482421875,1.0107421875-.4482421875,1.6318359375Z"/><path class="f" d="M79.048865126218516,119.8252135442699h-.7734375v-.890625h.7734375c.56640625,0,.98828125-.138671875,1.265625-.416015625s.416015625-.625.416015625-1.04296875c0-1-.49609375-1.5-1.48828125-1.5-.4609375,0-.833984375.1318359375-1.119140625.3955078125s-.427734375.6181640625-.427734375,1.0634765625h-1.083984375c0-.65234375.2412109375-1.20703125.7236328125-1.6640625s1.1181640625-.685546875,1.9072265625-.685546875c.76953125,0,1.3916015625.2041015625,1.8662109375.6123046875s.7119140625,1.0087890625.7119140625,1.8017578125c0,.31640625-.1064453125.654296875-.3193359375,1.013671875s-.5537109375.638671875-1.0224609375.837890625c.56640625.18359375.953125.466796875,1.16015625.849609375s.310546875.767578125.310546875,1.154296875c0,.796875-.2578125,1.412109375-.7734375,1.845703125s-1.158203125.650390625-1.927734375.650390625c-.7421875,0-1.37890625-.2060546875-1.91015625-.6181640625s-.796875-.9970703125-.796875-1.7548828125h1.083984375c0,.44921875.1455078125.80859375.4365234375,1.078125s.6865234375.404296875,1.1865234375.404296875c.49609375,0,.888671875-.130859375,1.177734375-.392578125s.43359375-.658203125.43359375-1.189453125-.1640625-.9228515625-.4921875-1.1748046875-.767578125-.3779296875-1.318359375-.3779296875Z"/><path class="f" d="M87.000037001218516,115.1552916692699v8.578125h-1.083984375v-7.224609375l-2.185546875.796875v-.978515625l3.099609375-1.171875h.169921875Z"/><path class="f" d="M95.537146376218516,118.7881041692699v1.30078125c0,1.3984375-.2412109375,2.375-.7236328125,2.9296875s-1.1376953125.83203125-1.9658203125.83203125c-.81640625,0-1.470703125-.27734375-1.962890625-.83203125s-.73828125-1.53125-.73828125-2.9296875v-1.30078125c0-1.39453125.244140625-2.3603515625.732421875-2.8974609375s1.140625-.8056640625,1.95703125-.8056640625c.828125,0,1.4853515625.2685546875,1.9716796875.8056640625s.7294921875,1.5029296875.7294921875,2.8974609375ZM94.447302626218516,120.2646666692699v-1.658203125c0-.9609375-.13671875-1.640625-.41015625-2.0390625s-.673828125-.59765625-1.201171875-.59765625c-.515625,0-.9111328125.19921875-1.1865234375.59765625s-.4130859375,1.078125-.4130859375,2.0390625v1.658203125c0,.953125.1396484375,1.640625.4189453125,2.0625s.6767578125.6328125,1.1923828125.6328125c.53125,0,.9306640625-.2109375,1.1982421875-.6328125s.4013671875-1.109375.4013671875-2.0625Z"/><path class="f" d="M102.556677626218516,118.1904479192699c-.38671875,0-.697265625.08203125-.931640625.24609375s-.41015625.380859375-.52734375.650390625v4.646484375h-1.08984375v-6.33984375h1.03125l.029296875.69140625c.45703125-.5390625,1.08203125-.80859375,1.875-.80859375.40625,0,.7685546875.0810546875,1.0869140625.2431640625s.5615234375.4208984375.7294921875.7763671875c.2109375-.3046875.4853515625-.55078125.8232421875-.73828125s.7353515625-.28125,1.1923828125-.28125c.6796875,0,1.2041015625.181640625,1.5732421875.544921875s.5537109375.9453125.5537109375,1.74609375v4.166015625h-1.08984375v-4.177734375c0-.53125-.1220703125-.8916015625-.3662109375-1.0810546875s-.5732421875-.2841796875-.9873046875-.2841796875c-.4375,0-.78125.1298828125-1.03125.3896484375s-.39453125.5751953125-.43359375.9462890625v4.20703125h-1.083984375v-4.171875c0-.49609375-.123046875-.8486328125-.369140625-1.0576171875s-.57421875-.3134765625-.984375-.3134765625Z"/><path class="f" d="M110.548865126218516,115.7119322942699c0-.17578125.0537109375-.32421875.1611328125-.4453125s.2666015625-.181640625.4775390625-.181640625c.20703125,0,.3662109375.060546875.4775390625.181640625s.1669921875.26953125.1669921875.4453125c0,.16796875-.0556640625.3115234375-.1669921875.4306640625s-.2705078125.1787109375-.4775390625.1787109375c-.2109375,0-.3701171875-.0595703125-.4775390625-.1787109375s-.1611328125-.2626953125-.1611328125-.4306640625ZM111.720740126218516,117.3935729192699v6.33984375h-1.08984375v-6.33984375h1.08984375Z"/><path class="f" d="M114.638708876218516,114.7334166692699v9h-1.08984375v-9h1.08984375Z"/><path class="f" d="M116.396521376218516,123.1591979192699c0-.18359375.0576171875-.3388671875.1728515625-.4658203125s.2822265625-.1904296875.5009765625-.1904296875.3857421875.0634765625.5009765625.1904296875.1728515625.2822265625.1728515625.4658203125c0,.1796875-.0576171875.33203125-.1728515625.45703125s-.2822265625.1875-.5009765625.1875-.3857421875-.0625-.5009765625-.1875-.1728515625-.27734375-.1728515625-.45703125Z"/><path class="f" d="M125.203162001218516,123.7334166692699c-.0859375.02734375-.1982421875.0537109375-.3369140625.0791015625s-.3056640625.0380859375-.5009765625.0380859375c-.40234375,0-.74609375-.123046875-1.03125-.369140625s-.427734375-.6875-.427734375-1.32421875v-3.931640625h-1.16015625v-.83203125h1.16015625v-1.541015625h1.083984375v1.541015625h1.18359375v.83203125h-1.18359375v3.9375c0,.32421875.0703125.53125.2109375.62109375s.302734375.134765625.486328125.134765625c.08984375,0,.1845703125-.0087890625.2841796875-.0263671875s.1748046875-.0322265625.2255859375-.0439453125l.005859375.884765625Z"/><path class="f" d="M130.376990126218516,123.7334166692699l-.0234375-.626953125c-.1953125.234375-.4453125.4169921875-.75.5478515625s-.671875.1962890625-1.1015625.1962890625c-.62109375,0-1.123046875-.18359375-1.505859375-.55078125s-.57421875-.97265625-.57421875-1.81640625v-4.08984375h1.083984375v4.1015625c0,.5703125.1201171875.9521484375.3603515625,1.1455078125s.5087890625.2900390625.8056640625.2900390625c.44140625,0,.794921875-.083984375,1.060546875-.251953125s.462890625-.390625.591796875-.66796875v-4.6171875h1.08984375v6.33984375h-1.037109375Z"/><path class="f" d="M135.691443251218516,118.1904479192699c-.34765625,0-.654296875.09375-.919921875.28125s-.474609375.431640625-.626953125.732421875v4.529296875h-1.083984375v-6.33984375h1.025390625l.03515625.791015625c.48046875-.60546875,1.111328125-.908203125,1.892578125-.908203125.625,0,1.1201171875.17578125,1.4853515625.52734375s.5478515625.943359375.5478515625,1.775390625v4.154296875h-1.08984375v-4.166015625c0-.49609375-.1083984375-.849609375-.3251953125-1.060546875s-.5302734375-.31640625-.9404296875-.31640625Z"/><path class="f" d="M147.978552626218516,121.0205260442699h1.125c-.0859375.80859375-.390625,1.482421875-.9140625,2.021484375s-1.296875.80859375-2.3203125.80859375c-1,0-1.8046875-.3603515625-2.4140625-1.0810546875s-.9140625-1.6787109375-.9140625-2.8740234375v-.849609375c0-1.1953125.3076171875-2.154296875.9228515625-2.876953125s1.4501953125-1.083984375,2.5048828125-1.083984375c.96484375,0,1.70703125.265625,2.2265625.796875s.822265625,1.216796875.908203125,2.056640625h-1.125c-.0859375-.59375-.27734375-1.0634765625-.57421875-1.4091796875s-.775390625-.5185546875-1.435546875-.5185546875c-.75390625,0-1.326171875.27734375-1.716796875.83203125s-.5859375,1.28515625-.5859375,2.19140625v.861328125c0,.83984375.177734375,1.5556640625.533203125,2.1474609375s.912109375.8876953125,1.669921875.8876953125c.71875,0,1.2255859375-.16796875,1.5205078125-.50390625s.4912109375-.8046875.5888671875-1.40625Z"/><path class="f" d="M157.207068251218516,119.1982604192699v.5390625c0,1.28125-.310546875,2.287109375-.931640625,3.017578125s-1.451171875,1.095703125-2.490234375,1.095703125c-1.01171875,0-1.837890625-.365234375-2.478515625-1.095703125s-.9609375-1.736328125-.9609375-3.017578125v-.5390625c0-1.27734375.318359375-2.2822265625.955078125-3.0146484375s1.4609375-1.0986328125,2.47265625-1.0986328125c1.0390625,0,1.87109375.3662109375,2.49609375,1.0986328125s.9375,1.7373046875.9375,3.0146484375ZM156.087927626218516,119.7373229192699v-.55078125c0-1.015625-.203125-1.79296875-.609375-2.33203125s-.974609375-.80859375-1.705078125-.80859375c-.69921875,0-1.2587890625.26953125-1.6787109375.80859375s-.6298828125,1.31640625-.6298828125,2.33203125v.55078125c0,1.0234375.2119140625,1.8056640625.6357421875,2.3466796875s.9853515625.8115234375,1.6845703125.8115234375c.734375,0,1.3017578125-.2705078125,1.7021484375-.8115234375s.6005859375-1.3232421875.6005859375-2.3466796875Z"/><path class="f" d="M161.651404188718516,124.9333678411449v.7958984375h-3.4052734375v-.67626953125l1.6083984375-1.71484375c.244140625-.268798828125.412109375-.490234375.505859375-.66455078125.09375-.174072265625.1396484375-.334228515625.1396484375-.47998046875,0-.220703125-.0546875-.39501953125-.1650390625-.5224609375-.1103515625-.127685546875-.26953125-.19140625-.4765625-.19140625-.234375,0-.4140625.079833984375-.5380859375.239013671875-.1240234375.159423828125-.1865234375.35986328125-.1865234375.601318359375h-.9873046875c0-.44873046875.154296875-.83349609375.462890625-1.154541015625.30859375-.3212890625.73046875-.481689453125,1.265625-.481689453125.521484375,0,.921875.125732421875,1.19921875.37744140625.2783203125.251708984375.4169921875.59619140625.4169921875,1.033447265625,0,.33251953125-.1005859375.6484375-.30078125.94775390625-.2001953125.299560546875-.4658203125.621337890625-.7958984375.965087890625l-.880859375.92578125h2.1376953125Z"/><path class="f" d="M167.759802626218516,122.6259947942699c-.20703125.3125-.5.5947265625-.87890625.8466796875s-.880859375.3779296875-1.505859375.3779296875c-.8828125,0-1.5888671875-.287109375-2.1181640625-.861328125s-.7939453125-1.30859375-.7939453125-2.203125v-.24609375c0-.69140625.1318359375-1.2802734375.3955078125-1.7666015625s.6064453125-.857421875,1.0283203125-1.11328125.87109375-.3837890625,1.34765625-.3837890625c.90625,0,1.5673828125.2958984375,1.9833984375.8876953125s.6240234375,1.3310546875.6240234375,2.2177734375v.486328125h-4.2890625c.015625.58203125.1884765625,1.0771484375.5185546875,1.4853515625s.7841796875.6123046875,1.3623046875.6123046875c.3828125,0,.70703125-.078125.97265625-.234375s.498046875-.365234375.697265625-.626953125l.65625.521484375ZM165.234412001218516,118.1670104192699c-.4296875,0-.79296875.15625-1.08984375.46875s-.482421875.76171875-.556640625,1.34765625h3.169921875v-.08203125c-.02734375-.421875-.1494140625-.81640625-.3662109375-1.18359375s-.6025390625-.55078125-1.1572265625-.55078125Z"/><path class="f" d="M174.187537001218516,117.3935729192699v8.77734375h-1.08984375v-3.0234375c-.43359375.46875-1.015625.703125-1.74609375.703125-.78125,0-1.3955078125-.3046875-1.8427734375-.9140625s-.6708984375-1.376953125-.6708984375-2.302734375v-.123046875c0-.96875.22265625-1.75.66796875-2.34375s1.064453125-.890625,1.857421875-.890625c.75,0,1.34375.251953125,1.78125.755859375l.046875-.638671875h.99609375ZM169.927771376218516,120.6338072942699c0,.62890625.1357421875,1.173828125.4072265625,1.634765625s.7001953125.69140625,1.2861328125.69140625c.359375,0,.658203125-.080078125.896484375-.240234375s.431640625-.36328125.580078125-.609375v-3.111328125c-.1484375-.2421875-.341796875-.44140625-.580078125-.59765625s-.533203125-.234375-.884765625-.234375c-.59375,0-1.0263671875.2333984375-1.2978515625.7001953125s-.4072265625,1.0146484375-.4072265625,1.6435546875v.123046875Z"/><rect class="g" x="115.471614553600375" y="193.013067991089883" width="65.622649795446705" height="20.332787200100029"/><text class="i" transform="translate(124.905066298093516 210.4591246770824)"><tspan x="0" y="0">St</tspan><tspan class="d" x="11.431640625" y="0">a</tspan><tspan x="17.77734375" y="0">v v ČR</tspan></text><rect class="g" x="245.284770330452375" y="86.240063934350019" width="59.604107565490267" height="20.332787200100029"/><text class="i" transform="translate(250.742590712156016 88.7107115911449)"><tspan x="0" y="0">8,5 mil. tun</tspan><tspan x="0" y="14.400390625">CO</tspan></text><text class="h" transform="translate(266.885168837156016 105.1071959661449) scale(.583000004291534)"><tspan x="0" y="0">2</tspan></text><text class="i" transform="translate(270.939856337156016 103.1111022161449)"><tspan x="0" y="0">eq</tspan></text></svg>