<?xml version="1.0" encoding="UTF-8"?>
<svg id="Layer_1" data-name="Layer 1" xmlns="http://www.w3.org/2000/svg" viewBox="0 0 330 310.3626">
  <defs>
    <style>
      .cls-1 {
        stroke-dasharray: 0 0 4 4;
      }

      .cls-1, .cls-2 {
        stroke-width: .75px;
      }

      .cls-1, .cls-2, .cls-3, .cls-4, .cls-5, .cls-6, .cls-7 {
        stroke-miterlimit: 10;
      }

      .cls-1, .cls-2, .cls-5, .cls-6, .cls-7 {
        fill: none;
      }

      .cls-1, .cls-4, .cls-7 {
        stroke: #aaaaad;
      }

      .cls-2, .cls-5 {
        stroke: #0032a1;
      }

      .cls-3 {
        stroke: #0098eb;
      }

      .cls-3, .cls-4, .cls-8 {
        fill: #fff;
      }

      .cls-5 {
        stroke-linecap: round;
        stroke-width: 2px;
      }

      .cls-9 {
        fill: #808184;
      }

      .cls-9, .cls-10, .cls-11, .cls-8, .cls-12, .cls-13 {
        stroke-width: 0px;
      }

      .cls-10 {
        fill: #aaaaad;
      }

      .cls-11 {
        fill: #929497;
      }

      .cls-12 {
        fill: #0032a1;
      }

      .cls-13 {
        fill: #0098eb;
      }

      .cls-6 {
        stroke: #d0d2d3;
      }

      .cls-6, .cls-7 {
        stroke-width: .5px;
      }
    </style>
  </defs>
  <g>
    <path class="cls-6" d="m43.1773,257.2844h259.9506"/>
    <path class="cls-6" d="m43.1773,235.68h259.9506"/>
    <path class="cls-6" d="m43.1773,214.0757h259.9506"/>
    <path class="cls-6" d="m43.1773,192.8504h259.9506"/>
    <path class="cls-6" d="m43.1773,278.5097h259.9506"/>
    <path class="cls-6" d="m43.1773,171.246h259.9506"/>
    <path class="cls-6" d="m43.1773,150.0207h259.9506"/>
    <path class="cls-6" d="m43.1773,128.3677h259.9506"/>
    <path class="cls-6" d="m43.1773,107.1424h259.9506"/>
    <path class="cls-6" d="m43.1773,107.0878h259.9506"/>
    <path class="cls-6" d="m43.1773,85.4349h259.9506"/>
    <path class="cls-6" d="m43.1773,64.2095h259.9506"/>
  </g>
  <line class="cls-1" x1="240.6118" y1="201.6565" x2="301.5052" y2="188.4728"/>
  <g>
    <path class="cls-9" d="m133.8889,34.0199h-5.5898v-.7793l2.9531-3.2812c.4375-.4961.7393-.8994.9053-1.21s.249-.6318.249-.9639c0-.4453-.1348-.8105-.4043-1.0957s-.6289-.4277-1.0781-.4277c-.5391,0-.958.1533-1.2568.46s-.4482.7334-.4482,1.2803h-1.084c0-.7852.2529-1.4199.7588-1.9043s1.1826-.7266,2.0303-.7266c.793,0,1.4199.208,1.8809.624s.6914.9697.6914,1.6611c0,.8398-.5352,1.8398-1.6055,3l-2.2852,2.4785h4.2832v.8848Z"/>
    <path class="cls-9" d="m140.387,30.3813c0,1.2695-.2168,2.2129-.6504,2.8301s-1.1113.9258-2.0332.9258c-.9102,0-1.584-.3018-2.0215-.9053s-.6641-1.5049-.6797-2.7041v-1.4473c0-1.2539.2168-2.1855.6504-2.7949s1.1133-.9141,2.0391-.9141c.918,0,1.5938.2939,2.0273.8818s.6562,1.4951.668,2.7217v1.4062Zm-1.084-1.4824c0-.918-.1289-1.5869-.3867-2.0068s-.666-.6299-1.2246-.6299c-.5547,0-.959.209-1.2129.627s-.3848,1.0605-.3926,1.9277v1.7344c0,.9219.1338,1.6025.4014,2.042s.6729.6592,1.2158.6592c.5352,0,.9326-.207,1.1924-.6211s.3955-1.0664.4072-1.957v-1.7754Z"/>
    <path class="cls-9" d="m147.1252,30.3813c0,1.2695-.2168,2.2129-.6504,2.8301s-1.1113.9258-2.0332.9258c-.9102,0-1.584-.3018-2.0215-.9053s-.6641-1.5049-.6797-2.7041v-1.4473c0-1.2539.2168-2.1855.6504-2.7949s1.1133-.9141,2.0391-.9141c.918,0,1.5938.2939,2.0273.8818s.6562,1.4951.668,2.7217v1.4062Zm-1.084-1.4824c0-.918-.1289-1.5869-.3867-2.0068s-.666-.6299-1.2246-.6299c-.5547,0-.959.209-1.2129.627s-.3848,1.0605-.3926,1.9277v1.7344c0,.9219.1338,1.6025.4014,2.042s.6729.6592,1.2158.6592c.5352,0,.9326-.207,1.1924-.6211s.3955-1.0664.4072-1.957v-1.7754Z"/>
    <path class="cls-9" d="m149.012,29.7426l.4336-4.2539h4.3711v1.002h-3.4512l-.2578,2.3262c.418-.2461.8926-.3691,1.4238-.3691.7773,0,1.3945.2568,1.8516.7705s.6855,1.208.6855,2.083c0,.8789-.2373,1.5713-.7119,2.0771s-1.1377.7588-1.9893.7588c-.7539,0-1.3691-.209-1.8457-.627s-.748-.9961-.8145-1.7344h1.0254c.0664.4883.2402.8564.5215,1.1045s.6523.3721,1.1133.3721c.5039,0,.8994-.1719,1.1865-.5156s.4307-.8184.4307-1.4238c0-.5703-.1553-1.0283-.4658-1.374s-.7236-.5186-1.2393-.5186c-.4727,0-.8438.1035-1.1133.3105l-.2871.2344-.8672-.2227Z"/>
  </g>
  <g>
    <path class="cls-11" d="m10.9607,65.0917l.4336-4.2539h4.3711v1.002h-3.4512l-.2578,2.3262c.418-.2461.8926-.3691,1.4238-.3691.7773,0,1.3945.2568,1.8516.7705s.6855,1.208.6855,2.083c0,.8789-.2373,1.5713-.7119,2.0771s-1.1377.7588-1.9893.7588c-.7539,0-1.3691-.209-1.8457-.627s-.748-.9961-.8145-1.7344h1.0254c.0664.4883.2402.8564.5215,1.1045s.6523.3721,1.1133.3721c.5039,0,.8994-.1719,1.1865-.5156s.4307-.8184.4307-1.4238c0-.5703-.1553-1.0283-.4658-1.374s-.7236-.5186-1.2393-.5186c-.4727,0-.8438.1035-1.1133.3105l-.2871.2344-.8672-.2227Z"/>
    <path class="cls-11" d="m22.5505,65.7304c0,1.2695-.2168,2.2129-.6504,2.8301s-1.1113.9258-2.0332.9258c-.9102,0-1.584-.3018-2.0215-.9053s-.6641-1.5049-.6797-2.7041v-1.4473c0-1.2539.2168-2.1855.6504-2.7949s1.1133-.9141,2.0391-.9141c.918,0,1.5938.2939,2.0273.8818s.6562,1.4951.668,2.7217v1.4062Zm-1.084-1.4824c0-.918-.1289-1.5869-.3867-2.0068s-.666-.6299-1.2246-.6299c-.5547,0-.959.209-1.2129.627s-.3848,1.0605-.3926,1.9277v1.7344c0,.9219.1338,1.6025.4014,2.042s.6729.6592,1.2158.6592c.5352,0,.9326-.207,1.1924-.6211s.3955-1.0664.4072-1.957v-1.7754Z"/>
    <path class="cls-11" d="m26.8162,62.4784c0-.5117.1631-.9336.4893-1.2656s.7451-.498,1.2568-.498c.5195,0,.9404.167,1.2627.501s.4834.7666.4834,1.2979v.416c0,.5156-.1631.9365-.4893,1.2627s-.7412.4893-1.2451.4893c-.5078,0-.9277-.1631-1.2598-.4893s-.498-.7607-.498-1.3037v-.4102Zm.8086.4487c0,.3057.0859.5571.2578.7549s.4023.2964.6914.2964c.2773,0,.501-.0957.6709-.2876s.2549-.4541.2549-.7871v-.4287c0-.3052-.084-.5581-.252-.7573-.168-.1997-.3965-.2998-.6855-.2998s-.5176.1001-.6855.2998c-.168.1992-.252.46-.252.7808v.4287Zm1.1953,5.7974l-.6152-.3867,4.166-6.668.6152.3867-4.166,6.668Zm2.1504-1.4473c0-.5117.1631-.9326.4893-1.2627s.7451-.4951,1.2568-.4951.9316.1641,1.2598.4922.4922.7637.4922,1.3066v.416c0,.5117-.1631.9326-.4893,1.2627s-.7432.4951-1.251.4951-.9277-.1631-1.2598-.4893-.498-.7607-.498-1.3037v-.4219Zm.8086.4546c0,.3091.0859.563.2578.7607s.4023.2964.6914.2964c.2812,0,.5059-.0967.6738-.2905s.252-.457.252-.79v-.4346c0-.3091-.085-.562-.2549-.7573-.1699-.1958-.3975-.2939-.6826-.2939-.2773,0-.5029.0972-.6768.2905-.1738.1938-.2607.4556-.2607.7842v.4346Z"/>
  </g>
  <g>
    <path class="cls-9" d="m33.1223,34.0199h-1.0898v-7.2246l-2.1855.8027v-.9844l3.1055-1.166h.1699v8.5723Z"/>
    <path class="cls-9" d="m40.4524,30.2699c-.2266.2695-.4971.4863-.8115.6504s-.6592.2461-1.0342.2461c-.4922,0-.9209-.1211-1.2861-.3633s-.6475-.583-.8467-1.0225-.2988-.9248-.2988-1.4561c0-.5703.1084-1.084.3252-1.541s.5244-.8066.9229-1.0488.8633-.3633,1.3945-.3633c.8438,0,1.5088.3154,1.9951.9463s.7295,1.4912.7295,2.5811v.3164c0,1.6602-.3281,2.8721-.9844,3.6357s-1.6465,1.1553-2.9707,1.1748h-.2109v-.9199h.2285c.8945-.0156,1.582-.2485,2.0625-.6987s.7422-1.1626.7852-2.1372Zm-1.6699,0c.3633,0,.6982-.1113,1.0049-.334s.5303-.498.6709-.8262v-.4336c0-.7109-.1543-1.2891-.4629-1.7344s-.6992-.668-1.1719-.668c-.4766,0-.8594.1826-1.1484.5479s-.4336.8467-.4336,1.4443c0,.582.1396,1.0615.4189,1.4385s.6533.5654,1.1221.5654Z"/>
    <path class="cls-9" d="m47.1907,30.2699c-.2266.2695-.4971.4863-.8115.6504s-.6592.2461-1.0342.2461c-.4922,0-.9209-.1211-1.2861-.3633s-.6475-.583-.8467-1.0225-.2988-.9248-.2988-1.4561c0-.5703.1084-1.084.3252-1.541s.5244-.8066.9229-1.0488.8633-.3633,1.3945-.3633c.8438,0,1.5088.3154,1.9951.9463s.7295,1.4912.7295,2.5811v.3164c0,1.6602-.3281,2.8721-.9844,3.6357s-1.6465,1.1553-2.9707,1.1748h-.2109v-.9199h.2285c.8945-.0156,1.582-.2485,2.0625-.6987s.7422-1.1626.7852-2.1372Zm-1.6699,0c.3633,0,.6982-.1113,1.0049-.334s.5303-.498.6709-.8262v-.4336c0-.7109-.1543-1.2891-.4629-1.7344s-.6992-.668-1.1719-.668c-.4766,0-.8594.1826-1.1484.5479s-.4336.8467-.4336,1.4443c0,.582.1396,1.0615.4189,1.4385s.6533.5654,1.1221.5654Z"/>
    <path class="cls-9" d="m55.1243,30.3813c0,1.2695-.2168,2.2129-.6504,2.8301s-1.1113.9258-2.0332.9258c-.9102,0-1.584-.3018-2.0215-.9053s-.6641-1.5049-.6797-2.7041v-1.4473c0-1.2539.2168-2.1855.6504-2.7949s1.1133-.9141,2.0391-.9141c.918,0,1.5938.2939,2.0273.8818s.6562,1.4951.668,2.7217v1.4062Zm-1.084-1.4824c0-.918-.1289-1.5869-.3867-2.0068s-.666-.6299-1.2246-.6299c-.5547,0-.959.209-1.2129.627s-.3848,1.0605-.3926,1.9277v1.7344c0,.9219.1338,1.6025.4014,2.042s.6729.6592,1.2158.6592c.5352,0,.9326-.207,1.1924-.6211s.3955-1.0664.4072-1.957v-1.7754Z"/>
  </g>
  <g>
    <path class="cls-9" d="m296.2331,34.015h-5.8477v-1.1602l2.7598-2.9414c.3789-.4141.6592-.7754.8408-1.084s.2725-.6016.2725-.8789c0-.3789-.0957-.6768-.2871-.8936s-.4648-.3252-.8203-.3252c-.3828,0-.6846.1318-.9053.3955s-.3311.6104-.3311,1.04h-1.6992c0-.5195.124-.9941.3721-1.4238s.5986-.7666,1.0518-1.0107.9668-.3662,1.541-.3662c.8789,0,1.5615.2109,2.0479.6328s.7295,1.0176.7295,1.7871c0,.4219-.1094.8516-.3281,1.2891s-.5938.9473-1.125,1.5293l-1.9395,2.0449h3.668v1.3652Z"/>
    <path class="cls-9" d="m303.0124,30.4877c0,1.1797-.2441,2.082-.7324,2.707s-1.2031.9375-2.1445.9375c-.9297,0-1.6406-.3066-2.1328-.9199s-.7441-1.4922-.7559-2.6367v-1.5703c0-1.1914.2471-2.0957.7412-2.7129s1.2061-.9258,2.1357-.9258,1.6406.3057,2.1328.917.7441,1.4893.7559,2.6338v1.5703Zm-1.6934-1.7266c0-.7075-.0967-1.2227-.29-1.5454s-.4951-.4839-.9053-.4839c-.3984,0-.6924.1533-.8818.4604s-.29.7866-.3018,1.4399v2.0762c0,.6958.0947,1.2129.2842,1.5513s.4932.5073.9111.5073c.4141,0,.7129-.1621.8965-.4868.1836-.3242.2793-.8208.2871-1.4897v-2.0293Z"/>
    <path class="cls-9" d="m305.8777,28.9994h.9023c.4297,0,.748-.1074.9551-.3223s.3105-.5.3105-.8555c0-.3438-.1025-.6113-.3076-.8027s-.4873-.2871-.8467-.2871c-.3242,0-.5957.0889-.8145.2666s-.3281.4092-.3281.6943h-1.6934c0-.4453.1201-.8447.3604-1.1982s.5762-.6299,1.0078-.8291.9072-.2988,1.4268-.2988c.9023,0,1.6094.2158,2.1211.6475s.7676,1.0264.7676,1.7842c0,.3906-.1191.75-.3574,1.0781s-.5508.5801-.9375.7559c.4805.1719.8389.4297,1.0752.7734s.3545.75.3545,1.2188c0,.7578-.2764,1.3652-.8291,1.8223s-1.2842.6855-2.1943.6855c-.8516,0-1.5479-.2246-2.0889-.6738s-.8115-1.043-.8115-1.7812h1.6934c0,.3203.1201.582.3604.7852s.5361.3047.8877.3047c.4023,0,.7178-.1064.9463-.3193s.3428-.4951.3428-.8467c0-.8516-.4688-1.2773-1.4062-1.2773h-.8965v-1.3242Z"/>
    <path class="cls-9" d="m316.782,30.4877c0,1.1797-.2441,2.082-.7324,2.707s-1.2031.9375-2.1445.9375c-.9297,0-1.6406-.3066-2.1328-.9199s-.7441-1.4922-.7559-2.6367v-1.5703c0-1.1914.2471-2.0957.7412-2.7129s1.2061-.9258,2.1357-.9258,1.6406.3057,2.1328.917.7441,1.4893.7559,2.6338v1.5703Zm-1.6934-1.7266c0-.7075-.0967-1.2227-.29-1.5454s-.4951-.4839-.9053-.4839c-.3984,0-.6924.1533-.8818.4604s-.29.7866-.3018,1.4399v2.0762c0,.6958.0947,1.2129.2842,1.5513s.4932.5073.9111.5073c.4141,0,.7129-.1621.8965-.4868.1836-.3242.2793-.8208.2871-1.4897v-2.0293Z"/>
  </g>
  <g>
    <path class="cls-9" d="m237.7302,34.015h-5.5898v-.7793l2.9531-3.2812c.4375-.4961.7393-.8994.9053-1.21s.249-.6318.249-.9639c0-.4453-.1348-.8105-.4043-1.0957s-.6289-.4277-1.0781-.4277c-.5391,0-.958.1533-1.2568.46s-.4482.7334-.4482,1.2803h-1.084c0-.7852.2529-1.4199.7588-1.9043s1.1826-.7266,2.0303-.7266c.793,0,1.4199.208,1.8809.624s.6914.9697.6914,1.6611c0,.8398-.5352,1.8398-1.6055,3l-2.2852,2.4785h4.2832v.8848Z"/>
    <path class="cls-9" d="m244.2283,30.3764c0,1.2695-.2168,2.2129-.6504,2.8301s-1.1113.9258-2.0332.9258c-.9102,0-1.584-.3018-2.0215-.9053s-.6641-1.5049-.6797-2.7041v-1.4473c0-1.2539.2168-2.1855.6504-2.7949s1.1133-.9141,2.0391-.9141c.918,0,1.5938.2939,2.0273.8818s.6562,1.4951.668,2.7217v1.4062Zm-1.084-1.4824c0-.918-.1289-1.5869-.3867-2.0068s-.666-.6299-1.2246-.6299c-.5547,0-.959.209-1.2129.627s-.3848,1.0605-.3926,1.9277v1.7344c0,.9219.1338,1.6025.4014,2.042s.6729.6592,1.2158.6592c.5352,0,.9326-.207,1.1924-.6211s.3955-1.0664.4072-1.957v-1.7754Z"/>
    <path class="cls-9" d="m251.2068,34.015h-5.5898v-.7793l2.9531-3.2812c.4375-.4961.7393-.8994.9053-1.21s.249-.6318.249-.9639c0-.4453-.1348-.8105-.4043-1.0957s-.6289-.4277-1.0781-.4277c-.5391,0-.958.1533-1.2568.46s-.4482.7334-.4482,1.2803h-1.084c0-.7852.2529-1.4199.7588-1.9043s1.1826-.7266,2.0303-.7266c.793,0,1.4199.208,1.8809.624s.6914.9697.6914,1.6611c0,.8398-.5352,1.8398-1.6055,3l-2.2852,2.4785h4.2832v.8848Z"/>
    <path class="cls-9" d="m255.9177,34.015h-1.0898v-7.2246l-2.1855.8027v-.9844l3.1055-1.166h.1699v8.5723Z"/>
  </g>
  <g>
    <path class="cls-11" d="m16.0525,196.6681h-5.5898v-.7793l2.9531-3.2812c.4375-.4961.7393-.8994.9053-1.21s.249-.6318.249-.9639c0-.4453-.1348-.8105-.4043-1.0957s-.6289-.4277-1.0781-.4277c-.5391,0-.958.1533-1.2568.46s-.4482.7334-.4482,1.2803h-1.084c0-.7852.2529-1.4199.7588-1.9043s1.1826-.7266,2.0303-.7266c.793,0,1.4199.208,1.8809.624s.6914.9697.6914,1.6611c0,.8398-.5352,1.8398-1.6055,3l-2.2852,2.4785h4.2832v.8848Z"/>
    <path class="cls-11" d="m22.5505,193.0294c0,1.2695-.2168,2.2129-.6504,2.8301s-1.1113.9258-2.0332.9258c-.9102,0-1.584-.3018-2.0215-.9053s-.6641-1.5049-.6797-2.7041v-1.4473c0-1.2539.2168-2.1855.6504-2.7949s1.1133-.9141,2.0391-.9141c.918,0,1.5938.2939,2.0273.8818s.6562,1.4951.668,2.7217v1.4062Zm-1.084-1.4824c0-.918-.1289-1.5869-.3867-2.0068s-.666-.6299-1.2246-.6299c-.5547,0-.959.209-1.2129.627s-.3848,1.0605-.3926,1.9277v1.7344c0,.9219.1338,1.6025.4014,2.042s.6729.6592,1.2158.6592c.5352,0,.9326-.207,1.1924-.6211s.3955-1.0664.4072-1.957v-1.7754Z"/>
    <path class="cls-11" d="m26.8162,189.7775c0-.5117.1631-.9336.4893-1.2656s.7451-.498,1.2568-.498c.5195,0,.9404.167,1.2627.501s.4834.7666.4834,1.2979v.416c0,.5156-.1631.9365-.4893,1.2627s-.7412.4893-1.2451.4893c-.5078,0-.9277-.1631-1.2598-.4893s-.498-.7607-.498-1.3037v-.4102Zm.8086.4487c0,.3057.0859.5571.2578.7549s.4023.2964.6914.2964c.2773,0,.501-.0957.6709-.2876s.2549-.4541.2549-.7871v-.4287c0-.3052-.084-.5581-.252-.7573-.168-.1997-.3965-.2998-.6855-.2998s-.5176.1001-.6855.2998c-.168.1992-.252.46-.252.7808v.4287Zm1.1953,5.7974l-.6152-.3867,4.166-6.668.6152.3867-4.166,6.668Zm2.1504-1.4473c0-.5117.1631-.9326.4893-1.2627s.7451-.4951,1.2568-.4951.9316.1641,1.2598.4922.4922.7637.4922,1.3066v.416c0,.5117-.1631.9326-.4893,1.2627s-.7432.4951-1.251.4951-.9277-.1631-1.2598-.4893-.498-.7607-.498-1.3037v-.4219Zm.8086.4546c0,.3091.0859.563.2578.7607s.4023.2964.6914.2964c.2812,0,.5059-.0967.6738-.2905s.252-.457.252-.79v-.4346c0-.3091-.085-.562-.2549-.7573-.1699-.1958-.3975-.2939-.6826-.2939-.2773,0-.5029.0972-.6768.2905-.1738.1938-.2607.4556-.2607.7842v.4346Z"/>
  </g>
  <g>
    <path class="cls-11" d="m12.0388,149.7277h.8145c.5117-.0078.9141-.1426,1.207-.4043s.4395-.6152.4395-1.0605c0-1-.498-1.5-1.4941-1.5-.4688,0-.8428.1338-1.1221.4014s-.4189.6221-.4189,1.0635h-1.084c0-.6758.2471-1.2373.7412-1.6846s1.1221-.6709,1.8838-.6709c.8047,0,1.4355.2129,1.8926.6387s.6855,1.0176.6855,1.7754c0,.3711-.1201.7305-.3604,1.0781s-.5674.6074-.9814.7793c.4688.1484.8311.3945,1.0869.7383s.3838.7637.3838,1.2598c0,.7656-.25,1.373-.75,1.8223s-1.1504.6738-1.9512.6738-1.4521-.2168-1.9541-.6504-.7529-1.0059-.7529-1.7168h1.0898c0,.4492.1465.8086.4395,1.0781s.6855.4043,1.1777.4043c.5234,0,.9238-.1367,1.2012-.4102s.416-.666.416-1.1777c0-.4961-.1523-.877-.457-1.1426s-.7441-.4023-1.3184-.4102h-.8145v-.8848Z"/>
    <path class="cls-11" d="m22.5505,150.882c0,1.2695-.2168,2.2129-.6504,2.8301s-1.1113.9258-2.0332.9258c-.9102,0-1.584-.3018-2.0215-.9053s-.6641-1.5049-.6797-2.7041v-1.4473c0-1.2539.2168-2.1855.6504-2.7949s1.1133-.9141,2.0391-.9141c.918,0,1.5938.2939,2.0273.8818s.6562,1.4951.668,2.7217v1.4062Zm-1.084-1.4824c0-.918-.1289-1.5869-.3867-2.0068s-.666-.6299-1.2246-.6299c-.5547,0-.959.209-1.2129.627s-.3848,1.0605-.3926,1.9277v1.7344c0,.9219.1338,1.6025.4014,2.042s.6729.6592,1.2158.6592c.5352,0,.9326-.207,1.1924-.6211s.3955-1.0664.4072-1.957v-1.7754Z"/>
    <path class="cls-11" d="m26.8162,147.63c0-.5117.1631-.9336.4893-1.2656s.7451-.498,1.2568-.498c.5195,0,.9404.167,1.2627.501s.4834.7666.4834,1.2979v.416c0,.5156-.1631.9365-.4893,1.2627s-.7412.4893-1.2451.4893c-.5078,0-.9277-.1631-1.2598-.4893s-.498-.7607-.498-1.3037v-.4102Zm.8086.4487c0,.3057.0859.5571.2578.7549s.4023.2964.6914.2964c.2773,0,.501-.0957.6709-.2876s.2549-.4541.2549-.7871v-.4287c0-.3052-.084-.5581-.252-.7573-.168-.1997-.3965-.2998-.6855-.2998s-.5176.1001-.6855.2998c-.168.1992-.252.46-.252.7808v.4287Zm1.1953,5.7974l-.6152-.3867,4.166-6.668.6152.3867-4.166,6.668Zm2.1504-1.4473c0-.5117.1631-.9326.4893-1.2627s.7451-.4951,1.2568-.4951.9316.1641,1.2598.4922.4922.7637.4922,1.3066v.416c0,.5117-.1631.9326-.4893,1.2627s-.7432.4951-1.251.4951-.9277-.1631-1.2598-.4893-.498-.7607-.498-1.3037v-.4219Zm.8086.4546c0,.3091.0859.563.2578.7607s.4023.2964.6914.2964c.2812,0,.5059-.0967.6738-.2905s.252-.457.252-.79v-.4346c0-.3091-.085-.562-.2549-.7573-.1699-.1958-.3975-.2939-.6826-.2939-.2773,0-.5029.0972-.6768.2905-.1738.1938-.2607.4556-.2607.7842v.4346Z"/>
  </g>
  <g>
    <path class="cls-11" d="m15.0388,108.7228h1.1836v.8848h-1.1836v1.9805h-1.0898v-1.9805h-3.8848v-.6387l3.8203-5.9121h1.1543v5.666Zm-3.7441,0h2.6543v-4.1836l-.1289.2344-2.5254,3.9492Z"/>
    <path class="cls-11" d="m22.5505,107.9494c0,1.2695-.2168,2.2129-.6504,2.8301s-1.1113.9258-2.0332.9258c-.9102,0-1.584-.3018-2.0215-.9053s-.6641-1.5049-.6797-2.7041v-1.4473c0-1.2539.2168-2.1855.6504-2.7949s1.1133-.9141,2.0391-.9141c.918,0,1.5938.2939,2.0273.8818s.6562,1.4951.668,2.7217v1.4062Zm-1.084-1.4824c0-.918-.1289-1.5869-.3867-2.0068s-.666-.6299-1.2246-.6299c-.5547,0-.959.209-1.2129.627s-.3848,1.0605-.3926,1.9277v1.7344c0,.9219.1338,1.6025.4014,2.042s.6729.6592,1.2158.6592c.5352,0,.9326-.207,1.1924-.6211s.3955-1.0664.4072-1.957v-1.7754Z"/>
    <path class="cls-11" d="m26.8162,104.6974c0-.5117.1631-.9336.4893-1.2656s.7451-.498,1.2568-.498c.5195,0,.9404.167,1.2627.501s.4834.7666.4834,1.2979v.416c0,.5156-.1631.9365-.4893,1.2627s-.7412.4893-1.2451.4893c-.5078,0-.9277-.1631-1.2598-.4893s-.498-.7607-.498-1.3037v-.4102Zm.8086.4487c0,.3057.0859.5571.2578.7549s.4023.2964.6914.2964c.2773,0,.501-.0957.6709-.2876s.2549-.4541.2549-.7871v-.4287c0-.3052-.084-.5581-.252-.7573-.168-.1997-.3965-.2998-.6855-.2998s-.5176.1001-.6855.2998c-.168.1992-.252.46-.252.7808v.4287Zm1.1953,5.7974l-.6152-.3867,4.166-6.668.6152.3867-4.166,6.668Zm2.1504-1.4473c0-.5117.1631-.9326.4893-1.2627s.7451-.4951,1.2568-.4951.9316.1641,1.2598.4922.4922.7637.4922,1.3066v.416c0,.5117-.1631.9326-.4893,1.2627s-.7432.4951-1.251.4951-.9277-.1631-1.2598-.4893-.498-.7607-.498-1.3037v-.4219Zm.8086.4546c0,.3091.0859.563.2578.7607s.4023.2964.6914.2964c.2812,0,.5059-.0967.6738-.2905s.252-.457.252-.79v-.4346c0-.3091-.085-.562-.2549-.7573-.1699-.1958-.3975-.2939-.6826-.2939-.2773,0-.5029.0972-.6768.2905-.1738.1938-.2607.4556-.2607.7842v.4346Z"/>
  </g>
  <g>
    <path class="cls-11" d="m14.0251,240.1803h-1.0898v-7.2246l-2.1855.8027v-.9844l3.1055-1.166h.1699v8.5723Z"/>
    <path class="cls-11" d="m22.5505,236.5417c0,1.2695-.2168,2.2129-.6504,2.8301s-1.1113.9258-2.0332.9258c-.9102,0-1.584-.3018-2.0215-.9053s-.6641-1.5049-.6797-2.7041v-1.4473c0-1.2539.2168-2.1855.6504-2.7949s1.1133-.9141,2.0391-.9141c.918,0,1.5938.2939,2.0273.8818s.6562,1.4951.668,2.7217v1.4062Zm-1.084-1.4824c0-.918-.1289-1.5869-.3867-2.0068s-.666-.6299-1.2246-.6299c-.5547,0-.959.209-1.2129.627s-.3848,1.0605-.3926,1.9277v1.7344c0,.9219.1338,1.6025.4014,2.042s.6729.6592,1.2158.6592c.5352,0,.9326-.207,1.1924-.6211s.3955-1.0664.4072-1.957v-1.7754Z"/>
    <path class="cls-11" d="m26.8162,233.2897c0-.5117.1631-.9336.4893-1.2656s.7451-.498,1.2568-.498c.5195,0,.9404.167,1.2627.501s.4834.7666.4834,1.2979v.416c0,.5156-.1631.9365-.4893,1.2627s-.7412.4893-1.2451.4893c-.5078,0-.9277-.1631-1.2598-.4893s-.498-.7607-.498-1.3037v-.4102Zm.8086.4482c0,.3057.0859.5576.2578.7549.1719.1982.4023.2969.6914.2969.2773,0,.501-.0957.6709-.2881.1699-.1914.2549-.4541.2549-.7871v-.4287c0-.3047-.084-.5576-.252-.7568-.168-.2002-.3965-.2998-.6855-.2998s-.5176.0996-.6855.2998c-.168.1992-.252.46-.252.7803v.4287Zm1.1953,5.7979l-.6152-.3867,4.166-6.668.6152.3867-4.166,6.668Zm2.1504-1.4473c0-.5117.1631-.9326.4893-1.2627s.7451-.4951,1.2568-.4951.9316.1641,1.2598.4922.4922.7637.4922,1.3066v.416c0,.5117-.1631.9326-.4893,1.2627s-.7432.4951-1.251.4951-.9277-.1631-1.2598-.4893-.498-.7607-.498-1.3037v-.4219Zm.8086.4541c0,.3096.0859.5635.2578.7607.1719.1982.4023.2969.6914.2969.2812,0,.5059-.0967.6738-.291.168-.1934.252-.457.252-.79v-.4346c0-.3086-.085-.5615-.2549-.7568-.1699-.1963-.3975-.2939-.6826-.2939-.2773,0-.5029.0967-.6768.29-.1738.1943-.2607.4561-.2607.7842v.4346Z"/>
  </g>
  <g>
    <rect class="cls-8" x="72.9768" y="222.7553" width="65.6226" height="20.3328"/>
    <g>
      <path class="cls-12" d="m87.5959,237.963c0-.332-.1172-.5869-.3516-.7646s-.6562-.3652-1.2656-.5625-1.0918-.3916-1.4473-.583c-.9688-.5234-1.4531-1.2285-1.4531-2.1152,0-.4609.1299-.8721.3896-1.2334s.6328-.6436,1.1191-.8467,1.0322-.3047,1.6377-.3047c.6094,0,1.1523.1104,1.6289.3311s.8467.5322,1.1104.9346.3955.8594.3955,1.3711h-1.7578c0-.3906-.123-.6943-.3691-.9111s-.5918-.3252-1.0371-.3252c-.4297,0-.7637.0908-1.002.2725s-.3574.4209-.3574.7178c0,.2773.1396.5098.4189.6973s.6904.3633,1.2334.5273c1,.3008,1.7285.6738,2.1855,1.1191s.6855,1,.6855,1.6641c0,.7383-.2793,1.3174-.8379,1.7373s-1.3105.6299-2.2559.6299c-.6562,0-1.2539-.1201-1.793-.3604s-.9502-.5693-1.2334-.9873-.4248-.9023-.4248-1.4531h1.7637c0,.9414.5625,1.4121,1.6875,1.4121.418,0,.7441-.085.9785-.2549s.3516-.4072.3516-.7119Z"/>
      <path class="cls-12" d="m92.4651,232.3029v1.5586h1.084v1.2422h-1.084v3.1641c0,.2344.0449.4023.1348.5039s.2617.1523.5156.1523c.1875,0,.3535-.0137.498-.041v1.2832c-.332.1016-.6738.1523-1.0254.1523-1.1875,0-1.793-.5996-1.8164-1.7988v-3.416h-.9258v-1.2422h.9258v-1.5586h1.6934Z"/>
      <path class="cls-12" d="m98.1663,240.2013c-.0781-.1523-.1348-.3418-.1699-.5684-.4102.457-.9434.6855-1.5996.6855-.6211,0-1.1357-.1797-1.5439-.5391s-.6123-.8125-.6123-1.3594c0-.6719.249-1.1875.7471-1.5469s1.2178-.541,2.1592-.5449h.7793v-.3633c0-.293-.0752-.5273-.2256-.7031s-.3877-.2637-.7119-.2637c-.2852,0-.5088.0684-.6709.2051s-.2432.3242-.2432.5625h-1.6934c0-.3672.1133-.707.3398-1.0195s.5469-.5576.9609-.7354.8789-.2666,1.3945-.2666c.7812,0,1.4014.1963,1.8604.5889s.6885.9443.6885,1.6553v2.748c.0039.6016.0879,1.0566.252,1.3652v.0996h-1.7109Zm-1.4004-1.1777c.25,0,.4805-.0557.6914-.167s.3672-.2607.4688-.4482v-1.0898h-.6328c-.8477,0-1.2988.293-1.3535.8789l-.0059.0996c0,.2109.0742.3848.2227.5215s.3516.2051.6094.2051Z"/>
      <path class="cls-12" d="m103.2112,238.133l1.1777-4.2715h1.7695l-2.1387,6.3398h-1.6172l-2.1387-6.3398h1.7695l1.1777,4.2715Z"/>
      <path class="cls-12" d="m112.2639,238.133l1.1777-4.2715h1.7695l-2.1387,6.3398h-1.6172l-2.1387-6.3398h1.7695l1.1777,4.2715Z"/>
      <path class="cls-12" d="m125.7522,237.3595c-.0664.918-.4053,1.6406-1.0166,2.168s-1.417.791-2.417.791c-1.0938,0-1.9541-.3682-2.5811-1.1045s-.9404-1.7471-.9404-3.0322v-.5215c0-.8203.1445-1.543.4336-2.168s.7021-1.1045,1.2393-1.4385,1.1611-.501,1.8721-.501c.9844,0,1.7773.2637,2.3789.791s.9492,1.2676,1.043,2.2207h-1.7578c-.043-.5508-.1963-.9502-.46-1.1982s-.665-.3721-1.2041-.3721c-.5859,0-1.0244.21-1.3154.6299s-.4404,1.0713-.4482,1.9541v.6445c0,.9219.1396,1.5957.4189,2.0215s.7197.6387,1.3213.6387c.543,0,.9482-.124,1.2158-.3721s.4209-.6318.46-1.1514h1.7578Zm-3.4277-7.1895l.8555-.8379h1.4473v.0645l-1.7695,1.6465h-1.0723l-1.7695-1.6582v-.0527h1.4473l.8613.8379Z"/>
      <path class="cls-12" d="m130.0647,237.0783h-1.4004v3.123h-1.7578v-8.5312h3.1699c1.0078,0,1.7852.2246,2.332.6738s.8203,1.084.8203,1.9043c0,.582-.126,1.0674-.3779,1.4561s-.6338.6982-1.1455.9287l1.8457,3.4863v.082h-1.8867l-1.5996-3.123Zm-1.4004-1.4238h1.418c.4414,0,.7832-.1123,1.0254-.3369s.3633-.5342.3633-.9287c0-.4023-.1143-.7188-.3428-.9492s-.5791-.3457-1.0518-.3457h-1.4121v2.5605Z"/>
    </g>
  </g>
  <g>
    <path class="cls-11" d="m22.5505,279.3717c0,1.2695-.2168,2.2129-.6504,2.8301s-1.1113.9258-2.0332.9258c-.9102,0-1.584-.3018-2.0215-.9053s-.6641-1.5049-.6797-2.7041v-1.4473c0-1.2539.2168-2.1855.6504-2.7949s1.1133-.9141,2.0391-.9141c.918,0,1.5938.2939,2.0273.8818s.6562,1.4951.668,2.7217v1.4062Zm-1.084-1.4824c0-.918-.1289-1.5869-.3867-2.0068s-.666-.6299-1.2246-.6299c-.5547,0-.959.209-1.2129.627s-.3848,1.0605-.3926,1.9277v1.7344c0,.9219.1338,1.6025.4014,2.042s.6729.6592,1.2158.6592c.5352,0,.9326-.207,1.1924-.6211s.3955-1.0664.4072-1.957v-1.7754Z"/>
    <path class="cls-11" d="m26.8162,276.1198c0-.5117.1631-.9336.4893-1.2656s.7451-.498,1.2568-.498c.5195,0,.9404.167,1.2627.501s.4834.7666.4834,1.2979v.416c0,.5156-.1631.9365-.4893,1.2627s-.7412.4893-1.2451.4893c-.5078,0-.9277-.1631-1.2598-.4893s-.498-.7607-.498-1.3037v-.4102Zm.8086.4482c0,.3057.0859.5576.2578.7549.1719.1982.4023.2969.6914.2969.2773,0,.501-.0957.6709-.2881.1699-.1914.2549-.4541.2549-.7871v-.4287c0-.3047-.084-.5576-.252-.7568-.168-.2002-.3965-.2998-.6855-.2998s-.5176.0996-.6855.2998c-.168.1992-.252.46-.252.7803v.4287Zm1.1953,5.7979l-.6152-.3867,4.166-6.668.6152.3867-4.166,6.668Zm2.1504-1.4473c0-.5117.1631-.9326.4893-1.2627s.7451-.4951,1.2568-.4951.9316.1641,1.2598.4922.4922.7637.4922,1.3066v.416c0,.5117-.1631.9326-.4893,1.2627s-.7432.4951-1.251.4951-.9277-.1631-1.2598-.4893-.498-.7607-.498-1.3037v-.4219Zm.8086.4541c0,.3096.0859.5635.2578.7607.1719.1982.4023.2969.6914.2969.2812,0,.5059-.0967.6738-.291.168-.1934.252-.457.252-.79v-.4346c0-.3086-.085-.5615-.2549-.7568-.1699-.1963-.3975-.2939-.6826-.2939-.2773,0-.5029.0967-.6768.29-.1738.1943-.2607.4561-.2607.7842v.4346Z"/>
  </g>
  <path class="cls-7" d="m43.1773,42.083v7.5426"/>
  <path class="cls-7" d="m140.4369,42.083v7.5426"/>
  <path class="cls-7" d="m303.128,42.083v7.5426"/>
  <path class="cls-7" d="m243.024,42.083v7.5426"/>
  <g>
    <polyline class="cls-5" points="140.7544 250.8974 147.1704 249.7355 153.5864 247.2487 160.0024 243.6142 166.4184 237.5351 172.8344 235.0343 179.2504 233.0187 185.6664 224.2987 192.0824 219.1059 198.4983 213.7543 204.9144 213.7731 211.3303 214.445 217.7463 215.0375 224.1623 213.4511 230.5783 208.319 236.9943 203.3546 240.648 202.3876"/>
    <path class="cls-12" d="m241.2723,205.3339c1.6057-.425,2.563-2.0718,2.138-3.6775-.425-1.6055-2.0717-2.563-3.6773-2.1379-1.6057.425-2.563,2.0715-2.138,3.6772.425,1.6057,2.0717,2.563,3.6773,2.1382Z"/>
  </g>
  <g>
    <rect class="cls-8" x="274.4816" y="201.2962" width="38.1977" height="33.4062"/>
    <g>
      <path class="cls-10" d="m287.9665,216.5722h-6.8223v-1.3535l3.2197-3.4316c.4419-.4829.769-.9048.981-1.2646s.3179-.7017.3179-1.0254c0-.4419-.1118-.7896-.335-1.0425s-.5425-.3794-.957-.3794c-.4468,0-.7988.1538-1.0562.4614s-.3862.7119-.3862,1.2134h-1.9824c0-.606.1445-1.1597.4341-1.6611s.6982-.8945,1.2271-1.1792,1.1279-.4272,1.7979-.4272c1.0254,0,1.8218.2461,2.3892.7383s.8511,1.187.8511,2.085c0,.4922-.1274.9937-.3828,1.5039s-.6929,1.105-1.3125,1.7842l-2.2627,2.3857h4.2793v1.5928Z"/>
      <path class="cls-10" d="m295.9988,216.5722h-6.8223v-1.3535l3.2197-3.4316c.4419-.4829.769-.9048.981-1.2646s.3179-.7017.3179-1.0254c0-.4419-.1118-.7896-.335-1.0425s-.5425-.3794-.957-.3794c-.4468,0-.7988.1538-1.0562.4614s-.3862.7119-.3862,1.2134h-1.9824c0-.606.1445-1.1597.4341-1.6611s.6982-.8945,1.2271-1.1792,1.1279-.4272,1.7979-.4272c1.0254,0,1.8218.2461,2.3892.7383s.8511,1.187.8511,2.085c0,.4922-.1274.9937-.3828,1.5039s-.6929,1.105-1.3125,1.7842l-2.2627,2.3857h4.2793v1.5928Z"/>
      <path class="cls-10" d="m300.6677,208.5331c0-.6108.1982-1.1064.5947-1.4868s.916-.5708,1.5586-.5708c.6519,0,1.1758.188,1.5723.564s.5947.8853.5947,1.5278v.4922c0,.6152-.1982,1.1099-.5947,1.4834s-.916.5605-1.5586.5605c-.647,0-1.1699-.188-1.5688-.564s-.5981-.8828-.5981-1.521v-.4854Zm1.3125.5264c0,.2734.0786.4932.2358.6597s.3633.2495.6187.2495.458-.0845.6084-.2529.2256-.394.2256-.6768v-.5059c0-.2734-.0752-.4946-.2256-.6631s-.3579-.2529-.6221-.2529c-.2505,0-.4536.083-.6084.2495s-.2324.3975-.2324.6938v.499Zm1.2441,6.7676l-.9639-.5195,4.8604-7.7793.9639.5195-4.8604,7.7793Zm2.2012-1.6953c0-.6152.2007-1.1108.6016-1.4868s.9204-.564,1.5586-.564c.647,0,1.1699.1855,1.5688.5571s.5981.8828.5981,1.5347v.4922c0,.6108-.1958,1.104-.5879,1.48s-.9136.564-1.5654.564c-.6562,0-1.1826-.189-1.5791-.5674s-.5947-.8794-.5947-1.5039v-.5059Zm1.3125.5332c0,.2505.082.4648.2461.6426s.3691.2666.6152.2666c.5562,0,.834-.3076.834-.9229v-.5195c0-.2734-.0776-.4932-.2324-.6597s-.3599-.2495-.6152-.2495-.4604.083-.6152.2495-.2324.3931-.2324.6802v.5127Z"/>
      <path class="cls-10" d="m227.5203,230.9723h-1.1309l-4.2949-6.5742v6.5742h-1.1309v-8.5312h1.1309l4.3066,6.6035v-6.6035h1.1191v8.5312Z"/>
      <path class="cls-10" d="m231.9792,231.0895c-.8594,0-1.5586-.2822-2.0977-.8467s-.8086-1.3193-.8086-2.2646v-.1992c0-.6289.1201-1.1904.3604-1.6846s.5762-.8809,1.0078-1.1602.8994-.4189,1.4033-.4189c.8242,0,1.4648.2715,1.9219.8145s.6855,1.3203.6855,2.332v.4512h-4.2949c.0156.625.1982,1.1299.5479,1.5146s.7939.5771,1.333.5771c.3828,0,.707-.0781.9727-.2344s.498-.3633.6973-.6211l.6621.5156c-.5312.8164-1.3281,1.2246-2.3906,1.2246Zm-.1348-5.6836c-.4375,0-.8047.1592-1.1016.4775s-.4805.7646-.5508,1.3389h3.1758v-.082c-.0312-.5508-.1797-.9775-.4453-1.2803s-.625-.4541-1.0781-.4541Z"/>
      <path class="cls-10" d="m239.6199,230.9723c-.0625-.125-.1133-.3477-.1523-.668-.5039.5234-1.1055.7852-1.8047.7852-.625,0-1.1377-.1768-1.5381-.5303s-.6006-.8018-.6006-1.3447c0-.6602.251-1.1729.7529-1.5381s1.208-.5479,2.1182-.5479h1.0547v-.498c0-.3789-.1133-.6807-.3398-.9053s-.5605-.3369-1.002-.3369c-.3867,0-.7109.0977-.9727.293s-.3926.4316-.3926.709h-1.0898c0-.3164.1123-.6221.3369-.917s.5293-.5283.9141-.7002.8076-.2578,1.2686-.2578c.7305,0,1.3027.1826,1.7168.5479s.6289.8682.6445,1.5088v2.918c0,.582.0742,1.0449.2227,1.3887v.0938h-1.1367Zm-1.7988-.8262c.3398,0,.6621-.0879.9668-.2637s.5254-.4043.6621-.6855v-1.3008h-.8496c-1.3281,0-1.9922.3887-1.9922,1.166,0,.3398.1133.6055.3398.7969s.5176.2871.873.2871Z"/>
      <path class="cls-10" d="m244.0027,228.0368l-.6797.709v2.2266h-1.084v-9h1.084v5.4434l.5801-.6973,1.9746-2.0859h1.3184l-2.4668,2.6484,2.7539,3.6914h-1.2715l-2.209-2.9355Z"/>
      <path class="cls-10" d="m249.7859,223.0973v1.5352h1.1836v.8379h-1.1836v3.9365c0,.2549.0527.4453.1582.5723s.2852.1904.5391.1904c.125,0,.2969-.0234.5156-.0703v.874c-.2852.0771-.5625.1162-.832.1162-.4844,0-.8496-.1465-1.0957-.4395s-.3691-.709-.3691-1.248v-3.9316h-1.1543v-.8379h1.1543v-1.5352h1.084Z"/>
      <path class="cls-10" d="m256.1492,230.3454c-.4219.4961-1.041.7441-1.8574.7441-.6758,0-1.1904-.1963-1.5439-.5889s-.5322-.9736-.5361-1.7432v-4.125h1.084v4.0957c0,.9609.3906,1.4414,1.1719,1.4414.8281,0,1.3789-.3086,1.6523-.9258v-4.6113h1.084v6.3398h-1.0312l-.0234-.627Z"/>
      <path class="cls-10" d="m262.7644,230.9723c-.0625-.125-.1133-.3477-.1523-.668-.5039.5234-1.1055.7852-1.8047.7852-.625,0-1.1377-.1768-1.5381-.5303s-.6006-.8018-.6006-1.3447c0-.6602.251-1.1729.7529-1.5381s1.208-.5479,2.1182-.5479h1.0547v-.498c0-.3789-.1133-.6807-.3398-.9053s-.5605-.3369-1.002-.3369c-.3867,0-.7109.0977-.9727.293s-.3926.4316-.3926.709h-1.0898c0-.3164.1123-.6221.3369-.917s.5293-.5283.9141-.7002.8076-.2578,1.2686-.2578c.7305,0,1.3027.1826,1.7168.5479s.6289.8682.6445,1.5088v2.918c0,.582.0742,1.0449.2227,1.3887v.0938h-1.1367Zm-1.7988-.8262c.3398,0,.6621-.0879.9668-.2637s.5254-.4043.6621-.6855v-1.3008h-.8496c-1.3281,0-1.9922.3887-1.9922,1.166,0,.3398.1133.6055.3398.7969s.5176.2871.873.2871Zm1.002-8.1738h1.3125l-1.5703,1.7227-.873-.0029,1.1309-1.7197Z"/>
      <path class="cls-10" d="m266.5554,230.9723h-1.084v-9h1.084v9Z"/>
      <path class="cls-10" d="m269.3152,224.6325l.0352.7969c.4844-.6094,1.1172-.9141,1.8984-.9141,1.3398,0,2.0156.7559,2.0273,2.2676v4.1895h-1.084v-4.1953c-.0039-.457-.1084-.7949-.3135-1.0137s-.5244-.3281-.958-.3281c-.3516,0-.6602.0938-.9258.2812s-.4727.4336-.6211.7383v4.5176h-1.084v-6.3398h1.0254Z"/>
      <path class="cls-10" d="m276.1003,221.9782h1.3125l-1.5703,1.7227-.873-.0029,1.1309-1.7197Zm-.0117,8.9941h-1.0898v-6.3398h1.0898v6.3398Z"/>
      <path class="cls-10" d="m283.3894,230.2047c.3867,0,.7246-.1172,1.0137-.3516s.4492-.5273.4805-.8789h1.0254c-.0195.3633-.1445.709-.375,1.0371s-.5381.5898-.9229.7852-.792.293-1.2217.293c-.8633,0-1.5498-.2881-2.0596-.8643s-.7646-1.3643-.7646-2.3643v-.1816c0-.6172.1133-1.166.3398-1.6465s.5518-.8535.9756-1.1191.9248-.3984,1.5029-.3984c.7109,0,1.3018.2129,1.7725.6387s.7217.9785.7529,1.6582h-1.0254c-.0312-.4102-.1865-.7471-.4658-1.0107s-.624-.3955-1.0342-.3955c-.5508,0-.9775.1982-1.2803.5947s-.4541.9697-.4541,1.7197v.2051c0,.7305.1504,1.293.4512,1.6875s.7305.5918,1.2891.5918Z"/>
      <path class="cls-10" d="m288.3171,221.9782h1.3125l-1.5703,1.7227-.873-.0029,1.1309-1.7197Zm-.0117,8.9941h-1.0898v-6.3398h1.0898v6.3398Z"/>
      <path class="cls-10" d="m291.2703,230.9723h-1.084v-9h1.084v9Z"/>
      <path class="cls-10" d="m302.4206,228.2653c-.1055.9023-.4385,1.5986-.999,2.0889s-1.3057.7354-2.2354.7354c-1.0078,0-1.8154-.3613-2.4229-1.084s-.9111-1.6895-.9111-2.9004v-.8203c0-.793.1416-1.4902.4248-2.0918s.6846-1.0635,1.2041-1.3857,1.1211-.4834,1.8047-.4834c.9062,0,1.6328.2529,2.1797.7588s.8652,1.2061.9551,2.1006h-1.1309c-.0977-.6816-.3096-1.1748-.6357-1.4805s-.7822-.459-1.3682-.459c-.7188,0-1.2822.2656-1.6904.7979-.4082.5312-.6123,1.2881-.6123,2.2695v.8271c0,.9258.1934,1.6631.5801,2.2109.3867.5469.9277.8203,1.623.8203.625,0,1.1045-.1416,1.4385-.4248s.5557-.7764.665-1.4795h1.1309Zm-3.293-7.3066l.8789-.9958h.9375v.0586l-1.4883,1.6052h-.6621l-1.4707-1.6052v-.0586h.9199l.8848.9958Z"/>
      <path class="cls-10" d="m307.0847,227.5211h-2.0039v3.4512h-1.1309v-8.5312h2.8242c.9609,0,1.7002.2188,2.2178.6562s.7764,1.0742.7764,1.9102c0,.5312-.1436.9941-.4307,1.3887s-.6865.6895-1.1982.8848l2.0039,3.6211v.0703h-1.207l-1.8516-3.4512Zm-2.0039-.9199h1.7285c.5586,0,1.0029-.1445,1.333-.4346.3301-.2891.4951-.6768.4951-1.1621,0-.5283-.1572-.9326-.4717-1.2148-.3145-.2812-.7686-.4248-1.3623-.4287h-1.7227v3.2402Z"/>
    </g>
  </g>
  <circle class="cls-8" cx="303.1606" cy="187.4493" r="11.4489"/>
  <circle class="cls-4" cx="303.1606" cy="187.4493" r="5.9997"/>
  <rect class="cls-8" x="123.6615" y="127.06" width="127.1811" height="51.0191"/>
  <g>
    <path class="cls-12" d="m136.4656,135.141l1.9336-6.416h1.957l-2.9707,8.5312h-1.834l-2.959-8.5312h1.9512l1.9219,6.416Z"/>
    <path class="cls-12" d="m147.5984,132.5043c-.2305-.0312-.4336-.0469-.6094-.0469-.6406,0-1.0605.2168-1.2598.6504v4.1484h-1.6934v-6.3398h1.5996l.0469.7559c.3398-.582.8105-.873,1.4121-.873.1875,0,.3633.0254.5273.0762l-.0234,1.6289Z"/>
    <path class="cls-12" d="m147.9382,134.0277c0-.6289.1211-1.1895.3633-1.6816s.5908-.873,1.0459-1.1426.9834-.4043,1.585-.4043c.8555,0,1.5537.2617,2.0947.7852s.8428,1.2344.9053,2.1328l.0117.4336c0,.9727-.2715,1.7529-.8145,2.3408s-1.2715.8818-2.1855.8818-1.6436-.293-2.1885-.8789-.8174-1.3828-.8174-2.3906v-.0762Zm1.6934.1201c0,.6025.1133,1.0632.3398,1.3821s.5508.4783.9727.4783c.4102,0,.7305-.1575.9609-.4724s.3457-.8186.3457-1.511c0-.5908-.1152-1.0486-.3457-1.3733s-.5547-.4871-.9727-.4871c-.4141,0-.7344.1614-.9609.4841s-.3398.8225-.3398,1.4993Z"/>
    <path class="cls-12" d="m157.6238,136.0082c.3125,0,.5664-.0859.7617-.2578s.2969-.4004.3047-.6855h1.5879c-.0039.4297-.1211.8232-.3516,1.1807s-.5459.6348-.9463.832-.8428.2959-1.3271.2959c-.9062,0-1.6211-.2881-2.1445-.8643s-.7852-1.3721-.7852-2.3877v-.1113c0-.9766.2598-1.7559.7793-2.3379s1.2324-.873,2.1387-.873c.793,0,1.4287.2256,1.9072.6768s.7217,1.0518.7295,1.8018h-1.5879c-.0078-.3298-.1094-.5979-.3047-.804-.1953-.2063-.4531-.3093-.7734-.3093-.3945,0-.6924.1438-.8936.4314-.2012.2874-.3018.7542-.3018,1.3994v.176c0,.6536.0996,1.123.2988,1.4084.1992.2856.502.4285.9082.4285Z"/>
    <path class="cls-12" d="m164.1628,137.3734c-.9297,0-1.6865-.2852-2.2705-.8555s-.876-1.3301-.876-2.2793v-.1641c0-.6367.123-1.2061.3691-1.708s.5947-.8887,1.0459-1.1602.9658-.4072,1.5439-.4072c.8672,0,1.5498.2734,2.0479.8203s.7471,1.3223.7471,2.3262v.6914h-4.0371c.0547.4141.2197.7461.4951.9961s.624.375,1.0459.375c.6523,0,1.1621-.2363,1.5293-.709l.832.9316c-.2539.3594-.5977.6396-1.0312.8408s-.9141.3018-1.4414.3018Zm-.1934-5.209c-.3359,0-.6084.1138-.8174.3413-.209.2278-.3428.5532-.4014.9771h2.3555v-.1355c-.0078-.3765-.1094-.668-.3047-.8738-.1953-.2061-.4727-.3091-.832-.3091Z"/>
    <path class="cls-12" d="m176.4968,137.2563h-5.8477v-1.1602l2.7598-2.9414c.3789-.4141.6592-.7754.8408-1.084s.2725-.6016.2725-.8789c0-.3789-.0957-.6768-.2871-.8936s-.4648-.3252-.8203-.3252c-.3828,0-.6846.1318-.9053.3955s-.3311.6104-.3311,1.04h-1.6992c0-.5195.124-.9941.3721-1.4238s.5986-.7666,1.0518-1.0107.9668-.3662,1.541-.3662c.8789,0,1.5615.2109,2.0479.6328s.7295,1.0176.7295,1.7871c0,.4219-.1094.8516-.3281,1.2891s-.5938.9473-1.125,1.5293l-1.9395,2.0449h3.668v1.3652Z"/>
    <path class="cls-12" d="m183.2761,133.7289c0,1.1797-.2441,2.082-.7324,2.707s-1.2031.9375-2.1445.9375c-.9297,0-1.6406-.3066-2.1328-.9199s-.7441-1.4922-.7559-2.6367v-1.5703c0-1.1914.2471-2.0957.7412-2.7129s1.2061-.9258,2.1357-.9258,1.6406.3057,2.1328.917.7441,1.4893.7559,2.6338v1.5703Zm-1.6934-1.7266c0-.7075-.0967-1.2229-.29-1.5454s-.4951-.4839-.9053-.4839c-.3984,0-.6924.1536-.8818.4604s-.29.7869-.3018,1.4399v2.0762c0,.6958.0947,1.2131.2842,1.5513s.4932.5073.9111.5073c.4141,0,.7129-.1621.8965-.4868.1836-.3245.2793-.821.2871-1.4897v-2.0293Z"/>
    <path class="cls-12" d="m190.2664,137.2563h-5.8477v-1.1602l2.7598-2.9414c.3789-.4141.6592-.7754.8408-1.084s.2725-.6016.2725-.8789c0-.3789-.0957-.6768-.2871-.8936s-.4648-.3252-.8203-.3252c-.3828,0-.6846.1318-.9053.3955s-.3311.6104-.3311,1.04h-1.6992c0-.5195.124-.9941.3721-1.4238s.5986-.7666,1.0518-1.0107.9668-.3662,1.541-.3662c.8789,0,1.5615.2109,2.0479.6328s.7295,1.0176.7295,1.7871c0,.4219-.1094.8516-.3281,1.2891s-.5938.9473-1.125,1.5293l-1.9395,2.0449h3.668v1.3652Z"/>
    <path class="cls-12" d="m195.4167,137.2563h-1.6934v-6.5273l-2.0215.627v-1.377l3.5332-1.2656h.1816v8.543Z"/>
    <path class="cls-12" d="m206.7664,134.1566c0,.9688-.2227,1.7471-.668,2.335s-1.043.8818-1.793.8818c-.8008,0-1.4199-.2832-1.8574-.8496l-.0527.7324h-.9961v-9h1.084v3.3574c.4375-.543,1.041-.8145,1.8105-.8145s1.374.291,1.8135.873.6592,1.3789.6592,2.3906v.0938Zm-1.084-.123c0-.7383-.1426-1.3086-.4277-1.7109s-.6953-.6035-1.2305-.6035c-.7148,0-1.2285.332-1.541.9961v2.7422c.332.6641.8496.9961,1.5527.9961.5195,0,.9238-.2012,1.2129-.6035s.4336-1.0078.4336-1.8164Z"/>
    <path class="cls-12" d="m210.2058,135.6684l1.4766-4.752h1.1602l-2.5488,7.3184c-.3945,1.0547-1.0215,1.582-1.8809,1.582l-.2051-.0176-.4043-.0762v-.8789l.293.0234c.3672,0,.6533-.0742.8584-.2227s.374-.4199.5068-.8145l.2402-.6445-2.2617-6.2695h1.1836l1.582,4.752Z"/>
    <path class="cls-12" d="m214.9871,137.2563h-1.084v-9h1.084v9Z"/>
    <path class="cls-12" d="m221.7839,135.7855l1.5703-4.8691h1.1074l-2.2734,6.3398h-.8262l-2.2969-6.3398h1.1074l1.6113,4.8691Z"/>
    <path class="cls-12" d="m234.9206,134.5492c-.1055.9023-.4385,1.5986-.999,2.0889s-1.3057.7354-2.2354.7354c-1.0078,0-1.8154-.3613-2.4229-1.084s-.9111-1.6895-.9111-2.9004v-.8203c0-.793.1416-1.4902.4248-2.0918s.6846-1.0635,1.2041-1.3857,1.1211-.4834,1.8047-.4834c.9062,0,1.6328.2529,2.1797.7588s.8652,1.2061.9551,2.1006h-1.1309c-.0977-.6816-.3096-1.1755-.6357-1.481-.3262-.3057-.7822-.4585-1.3682-.4585-.7188,0-1.2822.2659-1.6904.7976s-.6123,1.2881-.6123,2.2693v.8271c0,.9265.1934,1.6636.5801,2.2107.3867.5474.9277.821,1.623.821.625,0,1.1045-.1416,1.4385-.4248s.5557-.7764.665-1.4795h1.1309Zm-3.293-7.3066l.8789-.9961h.9375v.0586l-1.4883,1.6055h-.6621l-1.4707-1.6055v-.0586h.9199l.8848.9961Z"/>
    <path class="cls-12" d="m239.5847,133.8051h-2.0039v3.4512h-1.1309v-8.5312h2.8242c.9609,0,1.7002.2188,2.2178.6562s.7764,1.0742.7764,1.9102c0,.5312-.1436.9941-.4307,1.3887s-.6865.6895-1.1982.8848l2.0039,3.6211v.0703h-1.207l-1.8516-3.4512Zm-2.0039-.9199h1.7285c.5586,0,1.0029-.1448,1.333-.4343s.4951-.677.4951-1.1624c0-.5283-.1572-.9331-.4717-1.2151-.3145-.2817-.7686-.4246-1.3623-.4285h-1.7227v3.2402Z"/>
    <path class="cls-12" d="m160.1843,151.6562h-1.6934v-6.5273l-2.0215.627v-1.377l3.5332-1.2656h.1816v8.543Z"/>
    <path class="cls-12" d="m168.7566,144.0702l-3.2988,7.5859h-1.7871l3.3047-7.166h-4.2422v-1.3652h6.0234v.9453Z"/>
    <path class="cls-12" d="m170.3503,153.7948l-.8848-.4629.2109-.3809c.2617-.4766.3965-.9512.4043-1.4238v-1.3125h1.4297l-.0059,1.1719c-.0039.4336-.1133.8711-.3281,1.3125s-.4902.8066-.8262,1.0957Z"/>
    <path class="cls-12" d="m178.571,144.0702l-3.2988,7.5859h-1.7871l3.3047-7.166h-4.2422v-1.3652h6.0234v.9453Z"/>
    <path class="cls-12" d="m179.6316,144.7655c0-.5234.1699-.9482.5098-1.2744s.7852-.4893,1.3359-.4893c.5586,0,1.0078.1611,1.3477.4834s.5098.7588.5098,1.3096v.4219c0,.5273-.1699.9512-.5098,1.2715s-.7852.4805-1.3359.4805c-.5547,0-1.0029-.1611-1.3447-.4834s-.5127-.7568-.5127-1.3037v-.416Zm1.125.4512c0,.2344.0674.4229.2021.5654s.3115.2139.5303.2139.3926-.0723.5215-.2168.1934-.3379.1934-.5801v-.4336c0-.2344-.0645-.4238-.1934-.5684s-.3066-.2168-.5332-.2168c-.2148,0-.3887.0713-.5215.2139s-.1992.3408-.1992.5947v.4277Zm1.0664,5.8008l-.8262-.4453,4.166-6.668.8262.4453-4.166,6.668Zm1.8867-1.4531c0-.5273.1719-.9521.5156-1.2744s.7891-.4834,1.3359-.4834c.5547,0,1.0029.1592,1.3447.4775s.5127.7568.5127,1.3154v.4219c0,.5234-.168.9463-.5039,1.2686s-.7832.4834-1.3418.4834c-.5625,0-1.0137-.1621-1.3535-.4863s-.5098-.7539-.5098-1.2891v-.4336Zm1.125.457c0,.2148.0703.3984.2109.5508s.3164.2285.5273.2285c.4766,0,.7148-.2637.7148-.791v-.4453c0-.2344-.0664-.4229-.1992-.5654s-.3086-.2139-.5273-.2139-.3945.0713-.5273.2139-.1992.3369-.1992.583v.4395Z"/>
    <path class="cls-12" d="m197.28,148.5448c0,.9766-.2217,1.7588-.665,2.3467s-1.042.8818-1.7959.8818c-.6406,0-1.1582-.2227-1.5527-.668v2.9883h-1.6934v-8.7773h1.5703l.0586.6211c.4102-.4922.9453-.7383,1.6055-.7383.7812,0,1.3887.2891,1.8223.8672s.6504,1.375.6504,2.3906v.0879Zm-1.6934-.123c0-.5898-.1045-1.0449-.3135-1.3652s-.5127-.4805-.9111-.4805c-.5312,0-.8965.2031-1.0957.6094v2.5957c.207.418.5762.627,1.1074.627.8086,0,1.2129-.6621,1.2129-1.9863Z"/>
    <path class="cls-12" d="m198.0652,148.4276c0-.6289.1211-1.1895.3633-1.6816s.5908-.873,1.0459-1.1426.9834-.4043,1.585-.4043c.8555,0,1.5537.2617,2.0947.7852s.8428,1.2344.9053,2.1328l.0117.4336c0,.9727-.2715,1.7529-.8145,2.3408s-1.2715.8818-2.1855.8818-1.6436-.293-2.1885-.8789-.8174-1.3828-.8174-2.3906v-.0762Zm1.6934.1201c0,.6025.1133,1.0632.3398,1.3821s.5508.4783.9727.4783c.4102,0,.7305-.1575.9609-.4724s.3457-.8186.3457-1.511c0-.5908-.1152-1.0486-.3457-1.3733s-.5547-.4871-.9727-.4871c-.4141,0-.7344.1614-.9609.4841s-.3398.8225-.3398,1.4993Z"/>
    <path class="cls-12" d="m204.8503,148.4394c0-.9883.2217-1.7754.665-2.3613s1.0498-.8789,1.8193-.8789c.6172,0,1.127.2305,1.5293.6914v-3.2344h1.6992v9h-1.5293l-.082-.6738c-.4219.5273-.9648.791-1.6289.791-.7461,0-1.3447-.2939-1.7959-.8818s-.6768-1.4053-.6768-2.4521Zm1.6934.126c0,.5947.1035,1.0505.3105,1.3674s.5078.4753.9023.4753c.5234,0,.8926-.2209,1.1074-.6631v-2.5059c-.2109-.4419-.5762-.6631-1.0957-.6631-.8164,0-1.2246.6631-1.2246,1.9893Z"/>
    <path class="cls-12" d="m213.7039,151.6562h-1.6934v-6.3398h1.6934v6.3398Zm-.498-8.9121h1.8457l-1.623,1.8164h-1.377l1.1543-1.8164Z"/>
    <path class="cls-12" d="m216.9499,151.6562h-1.6992v-9h1.6992v9Z"/>
    <path class="cls-12" d="m228.4519,147.5839c0,.8398-.1484,1.5762-.4453,2.209s-.7217,1.1211-1.2744,1.4648-1.1865.5156-1.9014.5156c-.707,0-1.3379-.1699-1.8926-.5098s-.9844-.8252-1.2891-1.4561-.459-1.3564-.4629-2.1768v-.4219c0-.8398.1514-1.5791.4541-2.2178s.7305-1.1289,1.2832-1.4707,1.1846-.5127,1.8955-.5127,1.3428.1709,1.8955.5127.9805.832,1.2832,1.4707.4541,1.376.4541,2.2119v.3809Zm-1.7812-.3867c0-.8945-.1602-1.5742-.4805-2.0391s-.7773-.6973-1.3711-.6973c-.5898,0-1.0449.2295-1.3652.6885s-.4824,1.1318-.4863,2.0186v.416c0,.8711.1602,1.5469.4805,2.0273s.7812.7207,1.3828.7207c.5898,0,1.043-.2314,1.3594-.6943s.4766-1.1377.4805-2.0244v-.416Z"/>
    <path class="cls-12" d="m231.4578,150.244h4.3008v1.4121h-6.498v-1.0312l4.2188-6.0762h-4.2129v-1.4238h6.3984v1.0078l-4.207,6.1113Z"/>
    <path class="cls-12" d="m241.9988,147.9589h-3.375v2.2852h3.9609v1.4121h-5.7188v-8.5312h5.707v1.4238h-3.9492v2.0332h3.375v1.377Z"/>
    <path class="cls-12" d="m113.3445,159.7162l.0352.7969c.4844-.6094,1.1172-.9141,1.8984-.9141,1.3398,0,2.0156.7559,2.0273,2.2676v4.1895h-1.084v-4.1953c-.0039-.457-.1084-.7949-.3135-1.0137s-.5244-.3281-.958-.3281c-.3516,0-.6602.0938-.9258.2812s-.4727.4336-.6211.7383v4.5176h-1.084v-6.3398h1.0254Z"/>
    <path class="cls-12" d="m122.8542,166.0561c-.0625-.125-.1133-.3477-.1523-.668-.5039.5234-1.1055.7852-1.8047.7852-.625,0-1.1377-.1768-1.5381-.5303s-.6006-.8018-.6006-1.3447c0-.6602.251-1.1729.7529-1.5381s1.208-.5479,2.1182-.5479h1.0547v-.498c0-.3789-.1133-.6807-.3398-.9053s-.5605-.3369-1.002-.3369c-.3867,0-.7109.0977-.9727.293s-.3926.4316-.3926.709h-1.0898c0-.3164.1123-.6221.3369-.917s.5293-.5283.9141-.7002.8076-.2578,1.2686-.2578c.7305,0,1.3027.1826,1.7168.5479s.6289.8682.6445,1.5088v2.918c0,.582.0742,1.0449.2227,1.3887v.0938h-1.1367Zm-1.7988-.8262c.3398,0,.6621-.0879.9668-.2637s.5254-.4043.6621-.6855v-1.3008h-.8496c-1.3281,0-1.9922.3887-1.9922,1.166,0,.3398.1133.6055.3398.7969s.5176.2871.873.2871Z"/>
    <path class="cls-12" d="m130.2078,163.1205l-.6797.709v2.2266h-1.084v-9h1.084v5.4434l.5801-.6973,1.9746-2.0859h1.3184l-2.4668,2.6484,2.7539,3.6914h-1.2715l-2.209-2.9355Z"/>
    <path class="cls-12" d="m134.2331,162.8275c0-.6211.1221-1.1797.3662-1.6758s.584-.8789,1.0195-1.1484.9326-.4043,1.4912-.4043c.8633,0,1.5615.2988,2.0947.8965s.7998,1.3926.7998,2.3848v.0762c0,.6172-.1182,1.1709-.3545,1.6611s-.5742.8721-1.0137,1.1455-.9443.4102-1.5146.4102c-.8594,0-1.5557-.2988-2.0889-.8965s-.7998-1.3887-.7998-2.373v-.0762Zm1.0898.1289c0,.7031.1631,1.2676.4893,1.6934s.7627.6387,1.3096.6387c.5508,0,.9883-.2158,1.3125-.6475s.4863-1.0361.4863-1.8135c0-.6953-.165-1.2588-.4951-1.6904s-.7686-.6475-1.3154-.6475c-.5352,0-.9668.2129-1.2949.6387s-.4922,1.0352-.4922,1.8281Z"/>
    <path class="cls-12" d="m142.3894,159.7162l.0352.7969c.4844-.6094,1.1172-.9141,1.8984-.9141,1.3398,0,2.0156.7559,2.0273,2.2676v4.1895h-1.084v-4.1953c-.0039-.457-.1084-.7949-.3135-1.0137s-.5244-.3281-.958-.3281c-.3516,0-.6602.0938-.9258.2812s-.4727.4336-.6211.7383v4.5176h-1.084v-6.3398h1.0254Z"/>
    <path class="cls-12" d="m148.0085,165.4877c0-.1875.0557-.3438.167-.4688s.2783-.1875.501-.1875.3916.0625.5068.1875.1729.2812.1729.4688c0,.1797-.0576.3301-.1729.4512s-.2842.1816-.5068.1816-.3896-.0605-.501-.1816-.167-.2715-.167-.4512Z"/>
    <path class="cls-12" d="m157.8054,164.3744c0-.293-.1104-.5205-.3311-.6826s-.6055-.3018-1.1543-.4189-.9844-.2578-1.3066-.4219-.5605-.3594-.7148-.5859-.2314-.4961-.2314-.8086c0-.5195.2197-.959.6592-1.3184s1.001-.5391,1.6846-.5391c.7188,0,1.3018.1855,1.749.5566s.6709.8457.6709,1.4238h-1.0898c0-.2969-.126-.5527-.3779-.7676s-.5693-.3223-.9521-.3223c-.3945,0-.7031.0859-.9258.2578s-.334.3965-.334.6738c0,.2617.1035.459.3105.5918s.5811.2598,1.1221.3809.9795.2656,1.3154.4336.585.3701.7471.6064.2432.5244.2432.8643c0,.5664-.2266,1.0205-.6797,1.3623s-1.041.5127-1.7637.5127c-.5078,0-.957-.0898-1.3477-.2695s-.6963-.4307-.917-.7529-.3311-.6709-.3311-1.0459h1.084c.0195.3633.165.6514.4365.8643s.6299.3193,1.0752.3193c.4102,0,.7393-.083.9873-.249s.3721-.3877.3721-.665Z"/>
    <path class="cls-12" d="m165.657,162.9564c0,.9648-.2207,1.7422-.6621,2.332s-1.0391.8848-1.793.8848c-.7695,0-1.375-.2441-1.8164-.7324v3.0527h-1.084v-8.7773h.9902l.0527.7031c.4414-.5469,1.0547-.8203,1.8398-.8203.7617,0,1.3643.2871,1.8076.8613s.665,1.373.665,2.3965v.0996Zm-1.084-.123c0-.7148-.1523-1.2793-.457-1.6934s-.7227-.6211-1.2539-.6211c-.6562,0-1.1484.291-1.4766.873v3.0293c.3242.5781.8203.8672,1.4883.8672.5195,0,.9326-.2061,1.2393-.6182s.46-1.0244.46-1.8369Z"/>
    <path class="cls-12" d="m166.7468,162.8275c0-.6211.1221-1.1797.3662-1.6758s.584-.8789,1.0195-1.1484.9326-.4043,1.4912-.4043c.8633,0,1.5615.2988,2.0947.8965s.7998,1.3926.7998,2.3848v.0762c0,.6172-.1182,1.1709-.3545,1.6611s-.5742.8721-1.0137,1.1455-.9443.4102-1.5146.4102c-.8594,0-1.5557-.2988-2.0889-.8965s-.7998-1.3887-.7998-2.373v-.0762Zm1.0898.1289c0,.7031.1631,1.2676.4893,1.6934s.7627.6387,1.3096.6387c.5508,0,.9883-.2158,1.3125-.6475s.4863-1.0361.4863-1.8135c0-.6953-.165-1.2588-.4951-1.6904s-.7686-.6475-1.3154-.6475c-.5352,0-.9668.2129-1.2949.6387s-.4922,1.0352-.4922,1.8281Z"/>
    <path class="cls-12" d="m175.3484,158.1811v1.5352h1.1836v.8379h-1.1836v3.9365c0,.2544.0527.4451.1582.572.1055.1272.2852.1907.5391.1907.125,0,.2969-.0234.5156-.0703v.8738c-.2852.0776-.5625.1165-.832.1165-.4844,0-.8496-.1465-1.0957-.4395s-.3691-.709-.3691-1.248v-3.9316h-1.1543v-.8379h1.1543v-1.5352h1.084Z"/>
    <path class="cls-12" d="m179.3621,158.0521l.8789-.9961h.9375v.0586l-1.4883,1.6055h-.6621l-1.4707-1.6055v-.0586h.9199l.8848.9961Zm1.5,2.6367c-.1641-.0273-.3418-.041-.5332-.041-.7109,0-1.1934.3027-1.4473.9082v4.5h-1.084v-6.3398h1.0547l.0176.7324c.3555-.5664.8594-.8496,1.5117-.8496.2109,0,.3711.0273.4805.082v1.0078Z"/>
    <path class="cls-12" d="m184.489,166.1732c-.8594,0-1.5586-.2822-2.0977-.8467s-.8086-1.3193-.8086-2.2646v-.1992c0-.6289.1201-1.1904.3604-1.6846s.5762-.8809,1.0078-1.1602.8994-.4189,1.4033-.4189c.8242,0,1.4648.2715,1.9219.8145s.6855,1.3203.6855,2.332v.4512h-4.2949c.0156.625.1982,1.1299.5479,1.5146s.7939.5771,1.333.5771c.3828,0,.707-.0781.9727-.2344s.498-.3633.6973-.6211l.6621.5156c-.5312.8164-1.3281,1.2246-2.3906,1.2246Zm-.1348-5.6836c-.4375,0-.8047.1592-1.1016.4775s-.4805.7646-.5508,1.3389h3.1758v-.082c-.0312-.5508-.1797-.9775-.4453-1.2803s-.625-.4541-1.0781-.4541Z"/>
    <path class="cls-12" d="m193.5828,162.9564c0,.9688-.2227,1.7471-.668,2.335s-1.043.8818-1.793.8818c-.8008,0-1.4199-.2832-1.8574-.8496l-.0527.7324h-.9961v-9h1.084v3.3574c.4375-.543,1.041-.8145,1.8105-.8145s1.374.291,1.8135.873.6592,1.3789.6592,2.3906v.0938Zm-1.084-.123c0-.7383-.1426-1.3086-.4277-1.7109s-.6953-.6035-1.2305-.6035c-.7148,0-1.2285.332-1.541.9961v2.7422c.332.6641.8496.9961,1.5527.9961.5195,0,.9238-.2012,1.2129-.6035s.4336-1.0078.4336-1.8164Z"/>
    <path class="cls-12" d="m197.5789,166.1732c-.8594,0-1.5586-.2822-2.0977-.8467s-.8086-1.3193-.8086-2.2646v-.1992c0-.6289.1201-1.1904.3604-1.6846s.5762-.8809,1.0078-1.1602.8994-.4189,1.4033-.4189c.8242,0,1.4648.2715,1.9219.8145s.6855,1.3203.6855,2.332v.4512h-4.2949c.0156.625.1982,1.1299.5479,1.5146s.7939.5771,1.333.5771c.3828,0,.707-.0781.9727-.2344s.498-.3633.6973-.6211l.6621.5156c-.5312.8164-1.3281,1.2246-2.3906,1.2246Zm-.1465-8.1211l.8789-.9961h.9375v.0586l-1.4883,1.6055h-.6621l-1.4707-1.6055v-.0586h.9199l.8848.9961Zm.0117,2.4375c-.4375,0-.8047.1592-1.1016.4775s-.4805.7646-.5508,1.3389h3.1758v-.082c-.0312-.5508-.1797-.9775-.4453-1.2803s-.625-.4541-1.0781-.4541Z"/>
    <path class="cls-12" d="m206.907,166.1732c-.8594,0-1.5586-.2822-2.0977-.8467s-.8086-1.3193-.8086-2.2646v-.1992c0-.6289.1201-1.1904.3604-1.6846s.5762-.8809,1.0078-1.1602.8994-.4189,1.4033-.4189c.8242,0,1.4648.2715,1.9219.8145s.6855,1.3203.6855,2.332v.4512h-4.2949c.0156.625.1982,1.1299.5479,1.5146s.7939.5771,1.333.5771c.3828,0,.707-.0781.9727-.2344s.498-.3633.6973-.6211l.6621.5156c-.5312.8164-1.3281,1.2246-2.3906,1.2246Zm-.1348-5.6836c-.4375,0-.8047.1592-1.1016.4775s-.4805.7646-.5508,1.3389h3.1758v-.082c-.0312-.5508-.1797-.9775-.4453-1.2803s-.625-.4541-1.0781-.4541Z"/>
    <path class="cls-12" d="m211.6589,159.7162l.0352.7969c.4844-.6094,1.1172-.9141,1.8984-.9141,1.3398,0,2.0156.7559,2.0273,2.2676v4.1895h-1.084v-4.1953c-.0039-.457-.1084-.7949-.3135-1.0137s-.5244-.3281-.958-.3281c-.3516,0-.6602.0938-.9258.2812s-.4727.4336-.6211.7383v4.5176h-1.084v-6.3398h1.0254Z"/>
    <path class="cls-12" d="m219.8855,166.1732c-.8594,0-1.5586-.2822-2.0977-.8467s-.8086-1.3193-.8086-2.2646v-.1992c0-.6289.1201-1.1904.3604-1.6846s.5762-.8809,1.0078-1.1602.8994-.4189,1.4033-.4189c.8242,0,1.4648.2715,1.9219.8145s.6855,1.3203.6855,2.332v.4512h-4.2949c.0156.625.1982,1.1299.5479,1.5146s.7939.5771,1.333.5771c.3828,0,.707-.0781.9727-.2344s.498-.3633.6973-.6211l.6621.5156c-.5312.8164-1.3281,1.2246-2.3906,1.2246Zm-.1348-5.6836c-.4375,0-.8047.1592-1.1016.4775s-.4805.7646-.5508,1.3389h3.1758v-.082c-.0312-.5508-.1797-.9775-.4453-1.2803s-.625-.4541-1.0781-.4541Z"/>
    <path class="cls-12" d="m226.6765,160.6889c-.1641-.0273-.3418-.041-.5332-.041-.7109,0-1.1934.3027-1.4473.9082v4.5h-1.084v-6.3398h1.0547l.0176.7324c.3555-.5664.8594-.8496,1.5117-.8496.2109,0,.3711.0273.4805.082v1.0078Z"/>
    <path class="cls-12" d="m227.4148,162.8334c0-.9883.2285-1.7744.6855-2.3584s1.0625-.876,1.8164-.876c.7734,0,1.377.2734,1.8105.8203l.0527-.7031h.9902v6.1875c0,.8203-.2432,1.4668-.7295,1.9395s-1.1396.709-1.96.709c-.457,0-.9043-.0977-1.3418-.293s-.7715-.4629-1.002-.8027l.5625-.6504c.4648.5742,1.0332.8613,1.7051.8613.5273,0,.9385-.1484,1.2334-.4453s.4424-.7148.4424-1.2539v-.5449c-.4336.5-1.0254.75-1.7754.75-.7422,0-1.3428-.2988-1.8018-.8965s-.6885-1.4121-.6885-2.4434Zm1.0898.123c0,.7148.1465,1.2764.4395,1.6846s.7031.6123,1.2305.6123c.6836,0,1.1855-.3105,1.5059-.9316v-2.8945c-.332-.6055-.8301-.9082-1.4941-.9082-.5273,0-.9395.2051-1.2363.6152s-.4453,1.0176-.4453,1.8223Z"/>
    <path class="cls-12" d="m234.4109,158.0346c0-.1758.0537-.3242.1611-.4453s.2666-.1816.4775-.1816.3711.0605.4805.1816.1641.2695.1641.4453-.0547.3223-.1641.4395-.2695.1758-.4805.1758-.3701-.0586-.4775-.1758-.1611-.2637-.1611-.4395Zm1.1719,8.0215h-1.084v-6.3398h1.084v6.3398Z"/>
    <path class="cls-12" d="m239.948,166.1732c-.8594,0-1.5586-.2822-2.0977-.8467s-.8086-1.3193-.8086-2.2646v-.1992c0-.6289.1201-1.1904.3604-1.6846s.5762-.8809,1.0078-1.1602.8994-.4189,1.4033-.4189c.8242,0,1.4648.2715,1.9219.8145s.6855,1.3203.6855,2.332v.4512h-4.2949c.0156.625.1982,1.1299.5479,1.5146s.7939.5771,1.333.5771c.3828,0,.707-.0781.9727-.2344s.498-.3633.6973-.6211l.6621.5156c-.5312.8164-1.3281,1.2246-2.3906,1.2246Zm-.1348-5.6836c-.4375,0-.8047.1592-1.1016.4775s-.4805.7646-.5508,1.3389h3.1758v-.082c-.0312-.5508-.1797-.9775-.4453-1.2803s-.625-.4541-1.0781-.4541Z"/>
  </g>
  <g>
    <line class="cls-2" x1="240.6118" y1="169.953" x2="240.6118" y2="195.6254"/>
    <polygon class="cls-12" points="239.1159 195.1876 240.6118 197.7782 242.1077 195.1876 239.1159 195.1876"/>
  </g>
  <g>
    <rect class="cls-8" x="215.1762" y="68.9686" width="97.9595" height="22.1284"/>
    <g>
      <path class="cls-13" d="m242.4978,81.4875c-.1055.9023-.4385,1.5986-.999,2.0889s-1.3057.7354-2.2354.7354c-1.0078,0-1.8154-.3613-2.4229-1.084s-.9111-1.6895-.9111-2.9004v-.8203c0-.793.1416-1.4902.4248-2.0918s.6846-1.0635,1.2041-1.3857,1.1211-.4834,1.8047-.4834c.9062,0,1.6328.2529,2.1797.7588s.8652,1.2061.9551,2.1006h-1.1309c-.0977-.6816-.3096-1.1753-.6357-1.481s-.7822-.4585-1.3682-.4585c-.7188,0-1.2822.2656-1.6904.7979-.4082.5312-.6123,1.2881-.6123,2.269v.8271c0,.9263.1934,1.6636.5801,2.2109s.9277.8208,1.623.8208c.625,0,1.1045-.1416,1.4385-.4248s.5557-.7764.665-1.4795h1.1309Z"/>
      <path class="cls-13" d="m245.0525,75.2003h1.3125l-1.5703,1.7227-.873-.0029,1.1309-1.7197Zm-.0117,8.9941h-1.0898v-6.3398h1.0898v6.3398Z"/>
      <path class="cls-13" d="m248.0056,84.1945h-1.084v-9h1.084v9Z"/>
      <path class="cls-13" d="m257.7029,80.2511h-3.6973v3.0234h4.2949v.9199h-5.4199v-8.5312h5.3613v.9199h-4.2363v2.748h3.6973v.9199Z"/>
      <path class="cls-13" d="m265.7068,75.6632v5.8008c-.0039.8047-.2568,1.4629-.7588,1.9746s-1.1826.7988-2.042.8613l-.2988.0117c-.9336,0-1.6777-.252-2.2324-.7559s-.8359-1.1973-.8438-2.0801v-5.8125h1.1133v5.7773c0,.6172.1699,1.0967.5098,1.4385s.8242.5127,1.4531.5127c.6367,0,1.124-.1699,1.4619-.5098s.5068-.8184.5068-1.4355v-5.7832h1.1309Z"/>
      <path class="cls-13" d="m275.9841,80.4484h1.1279v1.5928h-1.1279v2.1533h-1.9756v-2.1533h-4.0811l-.0889-1.2441,4.1494-6.5557h1.9961v6.207Zm-4.1768,0h2.2012v-3.5137l-.1299.2256-2.0713,3.2881Z"/>
      <path class="cls-13" d="m284.9939,84.1945h-6.8223v-1.3535l3.2197-3.4316c.4419-.4829.769-.9048.981-1.2646s.3179-.7017.3179-1.0254c0-.4419-.1118-.7896-.335-1.0425s-.5425-.3794-.957-.3794c-.4468,0-.7988.1538-1.0562.4614s-.3862.7119-.3862,1.2134h-1.9824c0-.606.1445-1.1597.4341-1.6611s.6982-.8945,1.2271-1.1792,1.1279-.4272,1.7979-.4272c1.0254,0,1.8218.2461,2.3892.7383s.8511,1.187.8511,2.085c0,.4922-.1274.9937-.3828,1.5039s-.6929,1.105-1.3125,1.7842l-2.2627,2.3857h4.2793v1.5928Z"/>
      <path class="cls-13" d="m286.7986,86.6896l-1.0322-.54.2461-.4443c.3052-.5562.4624-1.1099.4717-1.6611v-1.5312h1.668l-.0068,1.3672c-.0044.5059-.1323,1.0161-.3828,1.5312s-.5718.9409-.9639,1.2783Z"/>
      <path class="cls-13" d="m289.9158,79.3l.5742-5.0586h5.5781v1.6475h-3.958l-.2461,2.1396c.4692-.2505.9683-.376,1.4971-.376.9478,0,1.6909.2939,2.2285.8818s.8066,1.4106.8066,2.4678c0,.6426-.1357,1.2178-.4067,1.7261s-.6597.9023-1.1655,1.1826-1.103.4204-1.791.4204c-.6016,0-1.1597-.1221-1.6748-.3657s-.9219-.5869-1.2202-1.0288-.457-.9458-.4751-1.5107h1.9551c.041.4146.1855.7373.4341.9673s.5732.3452.9741.3452c.4468,0,.7905-.1606,1.0322-.4819s.3623-.7759.3623-1.3638c0-.5649-.1392-.998-.417-1.2988s-.6724-.4512-1.1826-.4512c-.4692,0-.8501.123-1.1416.3691l-.1914.1777-1.5723-.3896Z"/>
      <path class="cls-13" d="m301.113,76.1554c0-.6108.1982-1.1064.5947-1.4868s.916-.5708,1.5586-.5708c.6519,0,1.1758.188,1.5723.564s.5947.8853.5947,1.5278v.4922c0,.6152-.1982,1.1099-.5947,1.4834s-.916.5605-1.5586.5605c-.647,0-1.1699-.188-1.5688-.564s-.5981-.8828-.5981-1.521v-.4854Zm1.3125.5264c0,.2734.0786.4932.2358.6597s.3633.2495.6187.2495.458-.0845.6084-.2529.2256-.394.2256-.6768v-.5059c0-.2734-.0752-.4946-.2256-.6631s-.3579-.2529-.6221-.2529c-.2505,0-.4536.083-.6084.2495s-.2324.3975-.2324.6938v.499Zm1.2441,6.7676l-.9639-.5195,4.8604-7.7793.9639.5195-4.8604,7.7793Zm2.2012-1.6953c0-.6152.2007-1.1108.6016-1.4868s.9204-.564,1.5586-.564c.647,0,1.1699.1855,1.5688.5571s.5981.8828.5981,1.5347v.4922c0,.6108-.1958,1.104-.5879,1.48s-.9136.564-1.5654.564c-.6562,0-1.1826-.189-1.5791-.5674s-.5947-.8794-.5947-1.5039v-.5059Zm1.3125.5332c0,.2505.082.4648.2461.6426s.3691.2666.6152.2666c.5562,0,.834-.3076.834-.9229v-.5195c0-.2734-.0776-.4932-.2324-.6597s-.3599-.2495-.6152-.2495-.4604.083-.6152.2495-.2324.3931-.2324.6802v.5127Z"/>
    </g>
  </g>
  <circle class="cls-3" cx="303.1606" cy="94.995" r="6.0737"/>
</svg>