<?xml version="1.0" encoding="UTF-8"?>
<svg id="Layer_1" data-name="Layer 1" xmlns="http://www.w3.org/2000/svg" width="330" height="366.9921" viewBox="0 0 330 366.9921">
  <g>
    <path d="m43.1773,299.8956h259.9506" fill="none" stroke="#d0d2d3" stroke-miterlimit="10" stroke-width=".5"/>
    <path d="m43.1773,264.0225h259.9506" fill="none" stroke="#d0d2d3" stroke-miterlimit="10" stroke-width=".5"/>
    <path d="m43.1773,228.1494h259.9506" fill="none" stroke="#d0d2d3" stroke-miterlimit="10" stroke-width=".5"/>
    <path d="m43.1773,192.9057h259.9506" fill="none" stroke="#d0d2d3" stroke-miterlimit="10" stroke-width=".5"/>
    <path d="m43.1773,335.1393h259.9506" fill="none" stroke="#d0d2d3" stroke-miterlimit="10" stroke-width=".5"/>
    <path d="m43.1773,157.0326h259.9506" fill="none" stroke="#d0d2d3" stroke-miterlimit="10" stroke-width=".5"/>
    <path d="m43.1773,121.7889h259.9506" fill="none" stroke="#d0d2d3" stroke-miterlimit="10" stroke-width=".5"/>
  </g>
  <line x1="241.0135" y1="182.7805" x2="303.773" y2="194.3155" fill="none" stroke="#aaaaad" stroke-dasharray="0 0 4 4" stroke-miterlimit="10" stroke-width=".75"/>
  <g>
    <path d="m10.3512,125.0555h-1.0898v-7.2246l-2.1855.8027v-.9844l3.1055-1.166h.1699v8.5723Z" fill="#929497"/>
    <path d="m16.9958,120.7781l.4336-4.2539h4.3711v1.002h-3.4512l-.2578,2.3262c.418-.2461.8926-.3691,1.4238-.3691.7773,0,1.3945.2568,1.8516.7705s.6855,1.208.6855,2.083c0,.8789-.2373,1.5713-.7119,2.0771s-1.1377.7588-1.9893.7588c-.7539,0-1.3691-.209-1.8457-.627s-.748-.9961-.8145-1.7344h1.0254c.0664.4883.2402.8564.5215,1.1045s.6523.3721,1.1133.3721c.5039,0,.8994-.1719,1.1865-.5156s.4307-.8184.4307-1.4238c0-.5703-.1553-1.0283-.4658-1.374s-.7236-.5186-1.2393-.5186c-.4727,0-.8438.1035-1.1133.3105l-.2871.2344-.8672-.2227Z" fill="#929497"/>
    <path d="m28.5856,121.4168c0,1.2695-.2168,2.2129-.6504,2.8301s-1.1113.9258-2.0332.9258c-.9102,0-1.584-.3018-2.0215-.9053s-.6641-1.5049-.6797-2.7041v-1.4473c0-1.2539.2168-2.1855.6504-2.7949s1.1133-.9141,2.0391-.9141c.918,0,1.5938.2939,2.0273.8818s.6562,1.4951.668,2.7217v1.4062Zm-1.084-1.4824c0-.918-.1289-1.5869-.3867-2.0068s-.666-.6299-1.2246-.6299c-.5547,0-.959.209-1.2129.627s-.3848,1.0605-.3926,1.9277v1.7344c0,.9219.1338,1.6025.4014,2.042s.6729.6592,1.2158.6592c.5352,0,.9326-.207,1.1924-.6211s.3955-1.0664.4072-1.957v-1.7754Z" fill="#929497"/>
    <path d="m35.3239,121.4168c0,1.2695-.2168,2.2129-.6504,2.8301s-1.1113.9258-2.0332.9258c-.9102,0-1.584-.3018-2.0215-.9053s-.6641-1.5049-.6797-2.7041v-1.4473c0-1.2539.2168-2.1855.6504-2.7949s1.1133-.9141,2.0391-.9141c.918,0,1.5938.2939,2.0273.8818s.6562,1.4951.668,2.7217v1.4062Zm-1.084-1.4824c0-.918-.1289-1.5869-.3867-2.0068s-.666-.6299-1.2246-.6299c-.5547,0-.959.209-1.2129.627s-.3848,1.0605-.3926,1.9277v1.7344c0,.9219.1338,1.6025.4014,2.042s.6729.6592,1.2158.6592c.5352,0,.9326-.207,1.1924-.6211s.3955-1.0664.4072-1.957v-1.7754Z" fill="#929497"/>
    <path d="m42.0622,121.4168c0,1.2695-.2168,2.2129-.6504,2.8301s-1.1113.9258-2.0332.9258c-.9102,0-1.584-.3018-2.0215-.9053s-.6641-1.5049-.6797-2.7041v-1.4473c0-1.2539.2168-2.1855.6504-2.7949s1.1133-.9141,2.0391-.9141c.918,0,1.5938.2939,2.0273.8818s.6562,1.4951.668,2.7217v1.4062Zm-1.084-1.4824c0-.918-.1289-1.5869-.3867-2.0068s-.666-.6299-1.2246-.6299c-.5547,0-.959.209-1.2129.627s-.3848,1.0605-.3926,1.9277v1.7344c0,.9219.1338,1.6025.4014,2.042s.6729.6592,1.2158.6592c.5352,0,.9326-.207,1.1924-.6211s.3955-1.0664.4072-1.957v-1.7754Z" fill="#929497"/>
  </g>
  <g>
    <path d="m8.3376,197.4053h-1.0898v-7.2246l-2.1855.8027v-.9844l3.1055-1.166h.1699v8.5723Z" fill="#929497"/>
    <path d="m19.8336,193.7667c0,1.2695-.2168,2.2129-.6504,2.8301s-1.1113.9258-2.0332.9258c-.9102,0-1.584-.3018-2.0215-.9053s-.6641-1.5049-.6797-2.7041v-1.4473c0-1.2539.2168-2.1855.6504-2.7949s1.1133-.9141,2.0391-.9141c.918,0,1.5938.2939,2.0273.8818s.6562,1.4951.668,2.7217v1.4062Zm-1.084-1.4824c0-.918-.1289-1.5869-.3867-2.0068s-.666-.6299-1.2246-.6299c-.5547,0-.959.209-1.2129.627s-.3848,1.0605-.3926,1.9277v1.7344c0,.9219.1338,1.6025.4014,2.042s.6729.6592,1.2158.6592c.5352,0,.9326-.207,1.1924-.6211s.3955-1.0664.4072-1.957v-1.7754Z" fill="#929497"/>
    <path d="m26.5719,193.7667c0,1.2695-.2168,2.2129-.6504,2.8301s-1.1113.9258-2.0332.9258c-.9102,0-1.584-.3018-2.0215-.9053s-.6641-1.5049-.6797-2.7041v-1.4473c0-1.2539.2168-2.1855.6504-2.7949s1.1133-.9141,2.0391-.9141c.918,0,1.5938.2939,2.0273.8818s.6562,1.4951.668,2.7217v1.4062Zm-1.084-1.4824c0-.918-.1289-1.5869-.3867-2.0068s-.666-.6299-1.2246-.6299c-.5547,0-.959.209-1.2129.627s-.3848,1.0605-.3926,1.9277v1.7344c0,.9219.1338,1.6025.4014,2.042s.6729.6592,1.2158.6592c.5352,0,.9326-.207,1.1924-.6211s.3955-1.0664.4072-1.957v-1.7754Z" fill="#929497"/>
    <path d="m33.3102,193.7667c0,1.2695-.2168,2.2129-.6504,2.8301s-1.1113.9258-2.0332.9258c-.9102,0-1.584-.3018-2.0215-.9053s-.6641-1.5049-.6797-2.7041v-1.4473c0-1.2539.2168-2.1855.6504-2.7949s1.1133-.9141,2.0391-.9141c.918,0,1.5938.2939,2.0273.8818s.6562,1.4951.668,2.7217v1.4062Zm-1.084-1.4824c0-.918-.1289-1.5869-.3867-2.0068s-.666-.6299-1.2246-.6299c-.5547,0-.959.209-1.2129.627s-.3848,1.0605-.3926,1.9277v1.7344c0,.9219.1338,1.6025.4014,2.042s.6729.6592,1.2158.6592c.5352,0,.9326-.207,1.1924-.6211s.3955-1.0664.4072-1.957v-1.7754Z" fill="#929497"/>
  </g>
  <g>
    <path d="m14.9821,264.2447l.4336-4.2539h4.3711v1.002h-3.4512l-.2578,2.3262c.418-.2461.8926-.3691,1.4238-.3691.7773,0,1.3945.2568,1.8516.7705s.6855,1.208.6855,2.083c0,.8789-.2373,1.5713-.7119,2.0771s-1.1377.7588-1.9893.7588c-.7539,0-1.3691-.209-1.8457-.627s-.748-.9961-.8145-1.7344h1.0254c.0664.4883.2402.8564.5215,1.1045s.6523.3721,1.1133.3721c.5039,0,.8994-.1719,1.1865-.5156s.4307-.8184.4307-1.4238c0-.5703-.1553-1.0283-.4658-1.374s-.7236-.5186-1.2393-.5186c-.4727,0-.8438.1035-1.1133.3105l-.2871.2344-.8672-.2227Z" fill="#929497"/>
    <path d="m26.5719,264.8834c0,1.2695-.2168,2.2129-.6504,2.8301s-1.1113.9258-2.0332.9258c-.9102,0-1.584-.3018-2.0215-.9053s-.6641-1.5049-.6797-2.7041v-1.4473c0-1.2539.2168-2.1855.6504-2.7949s1.1133-.9141,2.0391-.9141c.918,0,1.5938.2939,2.0273.8818s.6562,1.4951.668,2.7217v1.4062Zm-1.084-1.4824c0-.918-.1289-1.5869-.3867-2.0068s-.666-.6299-1.2246-.6299c-.5547,0-.959.209-1.2129.627s-.3848,1.0605-.3926,1.9277v1.7344c0,.9219.1338,1.6025.4014,2.042s.6729.6592,1.2158.6592c.5352,0,.9326-.207,1.1924-.6211s.3955-1.0664.4072-1.957v-1.7754Z" fill="#929497"/>
    <path d="m33.3102,264.8834c0,1.2695-.2168,2.2129-.6504,2.8301s-1.1113.9258-2.0332.9258c-.9102,0-1.584-.3018-2.0215-.9053s-.6641-1.5049-.6797-2.7041v-1.4473c0-1.2539.2168-2.1855.6504-2.7949s1.1133-.9141,2.0391-.9141c.918,0,1.5938.2939,2.0273.8818s.6562,1.4951.668,2.7217v1.4062Zm-1.084-1.4824c0-.918-.1289-1.5869-.3867-2.0068s-.666-.6299-1.2246-.6299c-.5547,0-.959.209-1.2129.627s-.3848,1.0605-.3926,1.9277v1.7344c0,.9219.1338,1.6025.4014,2.042s.6729.6592,1.2158.6592c.5352,0,.9326-.207,1.1924-.6211s.3955-1.0664.4072-1.957v-1.7754Z" fill="#929497"/>
  </g>
  <g>
    <path d="m19.9918,224.7271l-3.5332,7.9219h-1.1367l3.5215-7.6406h-4.6172v-.8906h5.7656v.6094Z" fill="#929497"/>
    <path d="m21.7204,228.3717l.4336-4.2539h4.3711v1.002h-3.4512l-.2578,2.3262c.418-.2461.8926-.3691,1.4238-.3691.7773,0,1.3945.2568,1.8516.7705s.6855,1.208.6855,2.083c0,.8789-.2373,1.5713-.7119,2.0771s-1.1377.7588-1.9893.7588c-.7539,0-1.3691-.209-1.8457-.627s-.748-.9961-.8145-1.7344h1.0254c.0664.4883.2402.8564.5215,1.1045s.6523.3721,1.1133.3721c.5039,0,.8994-.1719,1.1865-.5156s.4307-.8184.4307-1.4238c0-.5703-.1553-1.0283-.4658-1.374s-.7236-.5186-1.2393-.5186c-.4727,0-.8438.1035-1.1133.3105l-.2871.2344-.8672-.2227Z" fill="#929497"/>
    <path d="m33.3102,229.0103c0,1.2695-.2168,2.2129-.6504,2.8301s-1.1113.9258-2.0332.9258c-.9102,0-1.584-.3018-2.0215-.9053s-.6641-1.5049-.6797-2.7041v-1.4473c0-1.2539.2168-2.1855.6504-2.7949s1.1133-.9141,2.0391-.9141c.918,0,1.5938.2939,2.0273.8818s.6562,1.4951.668,2.7217v1.4062Zm-1.084-1.4824c0-.918-.1289-1.5869-.3867-2.0068s-.666-.6299-1.2246-.6299c-.5547,0-.959.209-1.2129.627s-.3848,1.0605-.3926,1.9277v1.7344c0,.9219.1338,1.6025.4014,2.042s.6729.6592,1.2158.6592c.5352,0,.9326-.207,1.1924-.6211s.3955-1.0664.4072-1.957v-1.7754Z" fill="#929497"/>
  </g>
  <g>
    <path d="m8.3376,162.1978h-1.0898v-7.2246l-2.1855.8027v-.9844l3.1055-1.166h.1699v8.5723Z" fill="#929497"/>
    <path d="m20.0739,162.1978h-5.5898v-.7793l2.9531-3.2812c.4375-.4961.7393-.8994.9053-1.21s.249-.6318.249-.9639c0-.4453-.1348-.8105-.4043-1.0957s-.6289-.4277-1.0781-.4277c-.5391,0-.958.1533-1.2568.46s-.4482.7334-.4482,1.2803h-1.084c0-.7852.2529-1.4199.7588-1.9043s1.1826-.7266,2.0303-.7266c.793,0,1.4199.208,1.8809.624s.6914.9697.6914,1.6611c0,.8398-.5352,1.8398-1.6055,3l-2.2852,2.4785h4.2832v.8848Z" fill="#929497"/>
    <path d="m21.7204,157.9205l.4336-4.2539h4.3711v1.002h-3.4512l-.2578,2.3262c.418-.2461.8926-.3691,1.4238-.3691.7773,0,1.3945.2568,1.8516.7705s.6855,1.208.6855,2.083c0,.8789-.2373,1.5713-.7119,2.0771s-1.1377.7588-1.9893.7588c-.7539,0-1.3691-.209-1.8457-.627s-.748-.9961-.8145-1.7344h1.0254c.0664.4883.2402.8564.5215,1.1045s.6523.3721,1.1133.3721c.5039,0,.8994-.1719,1.1865-.5156s.4307-.8184.4307-1.4238c0-.5703-.1553-1.0283-.4658-1.374s-.7236-.5186-1.2393-.5186c-.4727,0-.8438.1035-1.1133.3105l-.2871.2344-.8672-.2227Z" fill="#929497"/>
    <path d="m33.3102,158.5592c0,1.2695-.2168,2.2129-.6504,2.8301s-1.1113.9258-2.0332.9258c-.9102,0-1.584-.3018-2.0215-.9053s-.6641-1.5049-.6797-2.7041v-1.4473c0-1.2539.2168-2.1855.6504-2.7949s1.1133-.9141,2.0391-.9141c.918,0,1.5938.2939,2.0273.8818s.6562,1.4951.668,2.7217v1.4062Zm-1.084-1.4824c0-.918-.1289-1.5869-.3867-2.0068s-.666-.6299-1.2246-.6299c-.5547,0-.959.209-1.2129.627s-.3848,1.0605-.3926,1.9277v1.7344c0,.9219.1338,1.6025.4014,2.042s.6729.6592,1.2158.6592c.5352,0,.9326-.207,1.1924-.6211s.3955-1.0664.4072-1.957v-1.7754Z" fill="#929497"/>
  </g>
  <g>
    <path d="m20.0739,304.3948h-5.5898v-.7793l2.9531-3.2812c.4375-.4961.7393-.8994.9053-1.21s.249-.6318.249-.9639c0-.4453-.1348-.8105-.4043-1.0957s-.6289-.4277-1.0781-.4277c-.5391,0-.958.1533-1.2568.46s-.4482.7334-.4482,1.2803h-1.084c0-.7852.2529-1.4199.7588-1.9043s1.1826-.7266,2.0303-.7266c.793,0,1.4199.208,1.8809.624s.6914.9697.6914,1.6611c0,.8398-.5352,1.8398-1.6055,3l-2.2852,2.4785h4.2832v.8848Z" fill="#929497"/>
    <path d="m21.7204,300.1175l.4336-4.2539h4.3711v1.002h-3.4512l-.2578,2.3262c.418-.2461.8926-.3691,1.4238-.3691.7773,0,1.3945.2568,1.8516.7705s.6855,1.208.6855,2.083c0,.8789-.2373,1.5713-.7119,2.0771s-1.1377.7588-1.9893.7588c-.7539,0-1.3691-.209-1.8457-.627s-.748-.9961-.8145-1.7344h1.0254c.0664.4883.2402.8564.5215,1.1045s.6523.3721,1.1133.3721c.5039,0,.8994-.1719,1.1865-.5156s.4307-.8184.4307-1.4238c0-.5703-.1553-1.0283-.4658-1.374s-.7236-.5186-1.2393-.5186c-.4727,0-.8438.1035-1.1133.3105l-.2871.2344-.8672-.2227Z" fill="#929497"/>
    <path d="m33.3102,300.7562c0,1.2695-.2168,2.2129-.6504,2.8301s-1.1113.9258-2.0332.9258c-.9102,0-1.584-.3018-2.0215-.9053s-.6641-1.5049-.6797-2.7041v-1.4473c0-1.2539.2168-2.1855.6504-2.7949s1.1133-.9141,2.0391-.9141c.918,0,1.5938.2939,2.0273.8818s.6562,1.4951.668,2.7217v1.4062Zm-1.084-1.4824c0-.918-.1289-1.5869-.3867-2.0068s-.666-.6299-1.2246-.6299c-.5547,0-.959.209-1.2129.627s-.3848,1.0605-.3926,1.9277v1.7344c0,.9219.1338,1.6025.4014,2.042s.6729.6592,1.2158.6592c.5352,0,.9326-.207,1.1924-.6211s.3955-1.0664.4072-1.957v-1.7754Z" fill="#929497"/>
  </g>
  <path d="m33.3102,336.0003c0,1.2695-.2168,2.2129-.6504,2.8301s-1.1113.9258-2.0332.9258c-.9102,0-1.584-.3018-2.0215-.9053s-.6641-1.5049-.6797-2.7041v-1.4473c0-1.2539.2168-2.1855.6504-2.7949s1.1133-.9141,2.0391-.9141c.918,0,1.5938.2939,2.0273.8818s.6562,1.4951.668,2.7217v1.4062Zm-1.084-1.4824c0-.918-.1289-1.5869-.3867-2.0068s-.666-.6299-1.2246-.6299c-.5547,0-.959.209-1.2129.627s-.3848,1.0605-.3926,1.9277v1.7344c0,.9219.1338,1.6025.4014,2.042s.6729.6592,1.2158.6592c.5352,0,.9326-.207,1.1924-.6211s.3955-1.0664.4072-1.957v-1.7754Z" fill="#929497"/>
  <g>
    <path d="m33.1227,90.6495h-1.0898v-7.2246l-2.1855.8027v-.9844l3.1055-1.166h.1699v8.5723Z" fill="#808184"/>
    <path d="m40.4528,86.8995c-.2266.2695-.4971.4863-.8115.6504s-.6592.2461-1.0342.2461c-.4922,0-.9209-.1211-1.2861-.3633s-.6475-.583-.8467-1.0225-.2988-.9248-.2988-1.4561c0-.5703.1084-1.084.3252-1.541s.5244-.8066.9229-1.0488.8633-.3633,1.3945-.3633c.8438,0,1.5088.3154,1.9951.9463s.7295,1.4912.7295,2.5811v.3164c0,1.6602-.3281,2.8721-.9844,3.6357s-1.6465,1.1553-2.9707,1.1748h-.2109v-.9199h.2285c.8945-.0156,1.582-.2485,2.0625-.6987s.7422-1.1626.7852-2.1372Zm-1.6699,0c.3633,0,.6982-.1113,1.0049-.334s.5303-.498.6709-.8262v-.4336c0-.7109-.1543-1.2891-.4629-1.7344s-.6992-.668-1.1719-.668c-.4766,0-.8594.1826-1.1484.5479s-.4336.8467-.4336,1.4443c0,.582.1396,1.0615.4189,1.4385s.6533.5654,1.1221.5654Z" fill="#808184"/>
    <path d="m47.1911,86.8995c-.2266.2695-.4971.4863-.8115.6504s-.6592.2461-1.0342.2461c-.4922,0-.9209-.1211-1.2861-.3633s-.6475-.583-.8467-1.0225-.2988-.9248-.2988-1.4561c0-.5703.1084-1.084.3252-1.541s.5244-.8066.9229-1.0488.8633-.3633,1.3945-.3633c.8438,0,1.5088.3154,1.9951.9463s.7295,1.4912.7295,2.5811v.3164c0,1.6602-.3281,2.8721-.9844,3.6357s-1.6465,1.1553-2.9707,1.1748h-.2109v-.9199h.2285c.8945-.0156,1.582-.2485,2.0625-.6987s.7422-1.1626.7852-2.1372Zm-1.6699,0c.3633,0,.6982-.1113,1.0049-.334s.5303-.498.6709-.8262v-.4336c0-.7109-.1543-1.2891-.4629-1.7344s-.6992-.668-1.1719-.668c-.4766,0-.8594.1826-1.1484.5479s-.4336.8467-.4336,1.4443c0,.582.1396,1.0615.4189,1.4385s.6533.5654,1.1221.5654Z" fill="#808184"/>
    <path d="m55.1247,87.0108c0,1.2695-.2168,2.2129-.6504,2.8301s-1.1113.9258-2.0332.9258c-.9102,0-1.584-.3018-2.0215-.9053s-.6641-1.5049-.6797-2.7041v-1.4473c0-1.2539.2168-2.1855.6504-2.7949s1.1133-.9141,2.0391-.9141c.918,0,1.5938.2939,2.0273.8818s.6562,1.4951.668,2.7217v1.4062Zm-1.084-1.4824c0-.918-.1289-1.5869-.3867-2.0068s-.666-.6299-1.2246-.6299c-.5547,0-.959.209-1.2129.627s-.3848,1.0605-.3926,1.9277v1.7344c0,.9219.1338,1.6025.4014,2.042s.6729.6592,1.2158.6592c.5352,0,.9326-.207,1.1924-.6211s.3955-1.0664.4072-1.957v-1.7754Z" fill="#808184"/>
  </g>
  <g>
    <path d="m296.2331,90.6446h-5.8477v-1.1602l2.7598-2.9414c.3789-.4141.6592-.7754.8408-1.084s.2725-.6016.2725-.8789c0-.3789-.0957-.6768-.2871-.8936s-.4648-.3252-.8203-.3252c-.3828,0-.6846.1318-.9053.3955s-.3311.6104-.3311,1.04h-1.6992c0-.5195.124-.9941.3721-1.4238s.5986-.7666,1.0518-1.0107.9668-.3662,1.541-.3662c.8789,0,1.5615.2109,2.0479.6328s.7295,1.0176.7295,1.7871c0,.4219-.1094.8516-.3281,1.2891s-.5938.9473-1.125,1.5293l-1.9395,2.0449h3.668v1.3652Z" fill="#808184"/>
    <path d="m303.0124,87.1173c0,1.1797-.2441,2.082-.7324,2.707s-1.2031.9375-2.1445.9375c-.9297,0-1.6406-.3066-2.1328-.9199s-.7441-1.4922-.7559-2.6367v-1.5703c0-1.1914.2471-2.0957.7412-2.7129s1.2061-.9258,2.1357-.9258,1.6406.3057,2.1328.917.7441,1.4893.7559,2.6338v1.5703Zm-1.6934-1.7266c0-.7075-.0967-1.2227-.29-1.5454s-.4951-.4839-.9053-.4839c-.3984,0-.6924.1533-.8818.4604s-.29.7866-.3018,1.4399v2.0762c0,.6958.0947,1.2129.2842,1.5513s.4932.5073.9111.5073c.4141,0,.7129-.1621.8965-.4868.1836-.3242.2793-.8208.2871-1.4897v-2.0293Z" fill="#808184"/>
    <path d="m305.8776,85.629h.9023c.4297,0,.748-.1074.9551-.3223s.3105-.5.3105-.8555c0-.3438-.1025-.6113-.3076-.8027s-.4873-.2871-.8467-.2871c-.3242,0-.5957.0889-.8145.2666s-.3281.4092-.3281.6943h-1.6934c0-.4453.1201-.8447.3604-1.1982s.5762-.6299,1.0078-.8291.9072-.2988,1.4268-.2988c.9023,0,1.6094.2158,2.1211.6475s.7676,1.0264.7676,1.7842c0,.3906-.1191.75-.3574,1.0781s-.5508.5801-.9375.7559c.4805.1719.8389.4297,1.0752.7734s.3545.75.3545,1.2188c0,.7578-.2764,1.3652-.8291,1.8223s-1.2842.6855-2.1943.6855c-.8516,0-1.5479-.2246-2.0889-.6738s-.8115-1.043-.8115-1.7812h1.6934c0,.3203.1201.582.3604.7852s.5361.3047.8877.3047c.4023,0,.7178-.1064.9463-.3193s.3428-.4951.3428-.8467c0-.8516-.4688-1.2773-1.4062-1.2773h-.8965v-1.3242Z" fill="#808184"/>
    <path d="m316.7819,87.1173c0,1.1797-.2441,2.082-.7324,2.707s-1.2031.9375-2.1445.9375c-.9297,0-1.6406-.3066-2.1328-.9199s-.7441-1.4922-.7559-2.6367v-1.5703c0-1.1914.2471-2.0957.7412-2.7129s1.2061-.9258,2.1357-.9258,1.6406.3057,2.1328.917.7441,1.4893.7559,2.6338v1.5703Zm-1.6934-1.7266c0-.7075-.0967-1.2227-.29-1.5454s-.4951-.4839-.9053-.4839c-.3984,0-.6924.1533-.8818.4604s-.29.7866-.3018,1.4399v2.0762c0,.6958.0947,1.2129.2842,1.5513s.4932.5073.9111.5073c.4141,0,.7129-.1621.8965-.4868.1836-.3242.2793-.8208.2871-1.4897v-2.0293Z" fill="#808184"/>
  </g>
  <g>
    <path d="m237.7301,90.6446h-5.5898v-.7793l2.9531-3.2812c.4375-.4961.7393-.8994.9053-1.21s.249-.6318.249-.9639c0-.4453-.1348-.8105-.4043-1.0957s-.6289-.4277-1.0781-.4277c-.5391,0-.958.1533-1.2568.46s-.4482.7334-.4482,1.2803h-1.084c0-.7852.2529-1.4199.7588-1.9043s1.1826-.7266,2.0303-.7266c.793,0,1.4199.208,1.8809.624s.6914.9697.6914,1.6611c0,.8398-.5352,1.8398-1.6055,3l-2.2852,2.4785h4.2832v.8848Z" fill="#808184"/>
    <path d="m244.2282,87.0059c0,1.2695-.2168,2.2129-.6504,2.8301s-1.1113.9258-2.0332.9258c-.9102,0-1.584-.3018-2.0215-.9053s-.6641-1.5049-.6797-2.7041v-1.4473c0-1.2539.2168-2.1855.6504-2.7949s1.1133-.9141,2.0391-.9141c.918,0,1.5938.2939,2.0273.8818s.6562,1.4951.668,2.7217v1.4062Zm-1.084-1.4824c0-.918-.1289-1.5869-.3867-2.0068s-.666-.6299-1.2246-.6299c-.5547,0-.959.209-1.2129.627s-.3848,1.0605-.3926,1.9277v1.7344c0,.9219.1338,1.6025.4014,2.042s.6729.6592,1.2158.6592c.5352,0,.9326-.207,1.1924-.6211s.3955-1.0664.4072-1.957v-1.7754Z" fill="#808184"/>
    <path d="m251.2067,90.6446h-5.5898v-.7793l2.9531-3.2812c.4375-.4961.7393-.8994.9053-1.21s.249-.6318.249-.9639c0-.4453-.1348-.8105-.4043-1.0957s-.6289-.4277-1.0781-.4277c-.5391,0-.958.1533-1.2568.46s-.4482.7334-.4482,1.2803h-1.084c0-.7852.2529-1.4199.7588-1.9043s1.1826-.7266,2.0303-.7266c.793,0,1.4199.208,1.8809.624s.6914.9697.6914,1.6611c0,.8398-.5352,1.8398-1.6055,3l-2.2852,2.4785h4.2832v.8848Z" fill="#808184"/>
    <path d="m255.9176,90.6446h-1.0898v-7.2246l-2.1855.8027v-.9844l3.1055-1.166h.1699v8.5723Z" fill="#808184"/>
  </g>
  <path d="m43.1773,98.7126v7.5426" fill="none" stroke="#aaaaad" stroke-miterlimit="10" stroke-width=".5"/>
  <path d="m303.128,98.7126v7.5426" fill="none" stroke="#aaaaad" stroke-miterlimit="10" stroke-width=".5"/>
  <path d="m243.024,98.7126v7.5426" fill="none" stroke="#aaaaad" stroke-miterlimit="10" stroke-width=".5"/>
  <g>
    <path d="m21.4264,18.4998h-5.0625v3.4277h5.9414v2.1182h-8.5781v-12.7969h8.5605v2.1357h-5.9238v3.0498h5.0625v2.0654Z" fill="#2a2b33"/>
    <path d="m26.0231,14.536l.0791,1.0986c.6797-.8496,1.5908-1.2744,2.7334-1.2744,1.0078,0,1.7578.2959,2.25.8877s.7441,1.4766.7559,2.6543v6.1436h-2.54v-6.082c0-.5391-.1172-.9302-.3516-1.1733s-.624-.3647-1.1689-.3647c-.7148,0-1.251.3047-1.6084.9141v6.7061h-2.54v-9.5098h2.3906Z" fill="#2a2b33"/>
    <path d="m38.1432,24.2215c-1.3945,0-2.5303-.4277-3.4062-1.2832s-1.3135-1.9951-1.3135-3.4189v-.2461c0-.9551.1846-1.8091.5537-2.562s.8916-1.333,1.5684-1.7402,1.4492-.6108,2.3164-.6108c1.3008,0,2.3242.4102,3.0713,1.2305s1.1211,1.9834,1.1211,3.4893v1.0371h-6.0557c.082.6211.3291,1.1191.7422,1.4941s.9365.5625,1.5693.5625c.9785,0,1.7432-.3545,2.2939-1.0635l1.248,1.3975c-.3809.5391-.8965.9595-1.5469,1.2612s-1.3711.4526-2.1621.4526Zm-.29-7.8135c-.5039,0-.9131.1709-1.2266.5122s-.5137.8301-.6016,1.4653h3.5332v-.2031c-.0117-.5649-.1641-1.002-.457-1.311-.293-.3086-.709-.4634-1.248-.4634Z" fill="#2a2b33"/>
    <path d="m48.8395,16.9178c-.3457-.0469-.6504-.0703-.9141-.0703-.9609,0-1.5908.3252-1.8896.9756v6.2227h-2.54v-9.5098h2.3994l.0703,1.1338c.5098-.873,1.2158-1.3096,2.1182-1.3096.2812,0,.5449.0381.791.1143l-.0352,2.4434Z" fill="#2a2b33"/>
    <path d="m49.5251,19.2205c0-1.459.3467-2.6338,1.041-3.5244s1.6309-1.3359,2.8086-1.3359c1.043,0,1.8545.3574,2.4346,1.0723l.1055-.8965h2.3027v9.1934c0,.832-.1895,1.5557-.5674,2.1709s-.9092,1.084-1.5947,1.4062-1.4883.4834-2.4082.4834c-.6973,0-1.377-.1392-2.0391-.4175s-1.1631-.6372-1.5029-1.0767l1.125-1.5469c.6328.709,1.4004,1.0635,2.3027,1.0635.6738,0,1.1982-.1802,1.5732-.5405s.5625-.8716.5625-1.5337v-.5098c-.5859.6621-1.3564.9932-2.3115.9932-1.1426,0-2.0674-.4468-2.7734-1.3403s-1.0586-2.0786-1.0586-3.5552v-.1055Zm2.54.1895c0,.8623.1729,1.5386.5186,2.0288.3457.4897.8203.7349,1.4238.7349.7734,0,1.3271-.2905,1.6611-.8716v-4.0049c-.3398-.5811-.8877-.8716-1.6436-.8716-.6094,0-1.0889.2495-1.4375.7485-.3486.4985-.5225,1.2441-.5225,2.2358Z" fill="#2a2b33"/>
    <path d="m64.5456,24.2215c-1.3945,0-2.5303-.4277-3.4062-1.2832s-1.3135-1.9951-1.3135-3.4189v-.2461c0-.9551.1846-1.8091.5537-2.562s.8916-1.333,1.5684-1.7402,1.4492-.6108,2.3164-.6108c1.3008,0,2.3242.4102,3.0713,1.2305s1.1211,1.9834,1.1211,3.4893v1.0371h-6.0557c.082.6211.3291,1.1191.7422,1.4941s.9365.5625,1.5693.5625c.9785,0,1.7432-.3545,2.2939-1.0635l1.248,1.3975c-.3809.5391-.8965.9595-1.5469,1.2612s-1.3711.4526-2.1621.4526Zm-.29-7.8135c-.5039,0-.9131.1709-1.2266.5122s-.5137.8301-.6016,1.4653h3.5332v-.2031c-.0117-.5649-.1641-1.002-.457-1.311-.293-.3086-.709-.4634-1.248-.4634Z" fill="#2a2b33"/>
    <path d="m72.9391,12.1981v2.3379h1.626v1.8633h-1.626v4.7461c0,.3516.0674.6035.2021.7559s.3926.2285.7734.2285c.2812,0,.5303-.0205.7471-.0615v1.9248c-.498.1523-1.0107.2285-1.5381.2285-1.7812,0-2.6895-.8994-2.7246-2.6982v-5.124h-1.3887v-1.8633h1.3887v-2.3379h2.54Z" fill="#2a2b33"/>
    <path d="m75.9626,12.075c0-.3809.127-.6943.3818-.9404s.6025-.3691,1.042-.3691c.4336,0,.7793.123,1.0371.3691s.3867.5596.3867.9404c0,.3867-.1309.7031-.3916.9492s-.6045.3691-1.0322.3691-.7725-.123-1.0332-.3691-.3906-.5625-.3906-.9492Zm2.6982,11.9707h-2.5488v-9.5098h2.5488v9.5098Z" fill="#2a2b33"/>
    <path d="m84.7077,22.1737c.4688,0,.8496-.1289,1.1426-.3867s.4453-.6006.457-1.0283h2.3818c-.0059.6445-.1816,1.2349-.5273,1.771s-.8193.9521-1.4199,1.248-1.2637.4438-1.9902.4438c-1.3594,0-2.4316-.4321-3.2168-1.2964s-1.1777-2.0581-1.1777-3.5815v-.167c0-1.4648.3896-2.6338,1.1689-3.5068s1.8486-1.3096,3.208-1.3096c1.1895,0,2.1426.3384,2.8604,1.0151s1.083,1.5776,1.0947,2.7026h-2.3818c-.0117-.4946-.1641-.8965-.457-1.2061-.293-.3091-.6797-.4639-1.1602-.4639-.5918,0-1.0391.2158-1.3408.647-.3018.4316-.4521,1.1313-.4521,2.0996v.2642c0,.98.1494,1.6841.4482,2.1123.2988.4287.7529.6426,1.3623.6426Z" fill="#2a2b33"/>
    <path d="m93.5934,20.2313l-.9141.9141v2.9004h-2.54v-13.5h2.54v7.4795l.4922-.6328,2.4346-2.8564h3.0498l-3.4365,3.9639,3.7354,5.5459h-2.918l-2.4434-3.8145Z" fill="#2a2b33"/>
    <path d="m105.2653,24.0457c-.1172-.2285-.2021-.5127-.2549-.8525-.6152.6855-1.415,1.0283-2.3994,1.0283-.9316,0-1.7041-.2695-2.3164-.8086s-.918-1.2188-.918-2.0391c0-1.0078.373-1.7812,1.1201-2.3203s1.8271-.8115,3.2393-.8174h1.1689v-.5449c0-.4395-.1133-.791-.3389-1.0547s-.5811-.3955-1.0674-.3955c-.4277,0-.7637.1025-1.0068.3076s-.3643.4863-.3643.8438h-2.54c0-.5508.1699-1.0605.5098-1.5293s.8203-.8364,1.4414-1.103,1.3184-.3999,2.0918-.3999c1.1719,0,2.1016.2944,2.79.8833s1.0332,1.4165,1.0332,2.4829v4.1221c.0059.9023.1318,1.585.3779,2.0479v.1494h-2.5664Zm-2.1006-1.7666c.375,0,.7207-.0835,1.0371-.2505s.5508-.3911.7031-.6724v-1.6348h-.9492c-1.2715,0-1.9482.4395-2.0303,1.3184l-.0088.1494c0,.3164.1113.5771.334.7822s.5273.3076.9141.3076Zm.9668-11.7334h2.7686l-2.4346,2.7246h-2.0654l1.7314-2.7246Z" fill="#2a2b33"/>
    <path d="m119.5827,23.0789c-.627.7617-1.4941,1.1426-2.6016,1.1426-1.0195,0-1.7979-.293-2.334-.8789s-.8096-1.4443-.8213-2.5752v-6.2314h2.54v6.1509c0,.9912.4512,1.4868,1.3535,1.4868.8613,0,1.4531-.2988,1.7754-.8975v-6.7402h2.5488v9.5098h-2.3906l-.0703-.9668Zm-1.1338-12.5332h2.7686l-2.4346,2.7246h-2.0654l1.7314-2.7246Z" fill="#2a2b33"/>
    <path d="m127.9147,22.1737c.4688,0,.8496-.1289,1.1426-.3867s.4453-.6006.457-1.0283h2.3818c-.0059.6445-.1816,1.2349-.5273,1.771s-.8193.9521-1.4199,1.248-1.2637.4438-1.9902.4438c-1.3594,0-2.4316-.4321-3.2168-1.2964s-1.1777-2.0581-1.1777-3.5815v-.167c0-1.4648.3896-2.6338,1.1689-3.5068s1.8486-1.3096,3.208-1.3096c1.1895,0,2.1426.3384,2.8604,1.0151s1.083,1.5776,1.0947,2.7026h-2.3818c-.0117-.4946-.1641-.8965-.457-1.2061-.293-.3091-.6797-.4639-1.1602-.4639-.5918,0-1.0391.2158-1.3408.647-.3018.4316-.4521,1.1313-.4521,2.0996v.2642c0,.98.1494,1.6841.4482,2.1123.2988.4287.7529.6426,1.3623.6426Zm-.2373-10.3799l1.2832-1.2568h2.1709v.0967l-2.6543,2.4697h-1.6084l-2.6543-2.4873v-.0791h2.1709l1.292,1.2568Z" fill="#2a2b33"/>
    <path d="m133.3288,12.075c0-.3809.127-.6943.3818-.9404s.6025-.3691,1.042-.3691c.4336,0,.7793.123,1.0371.3691s.3867.5596.3867.9404c0,.3867-.1309.7031-.3916.9492s-.6045.3691-1.0322.3691-.7725-.123-1.0332-.3691-.3906-.5625-.3906-.9492Zm2.6982,11.9707h-2.5488v-9.5098h2.5488v9.5098Z" fill="#2a2b33"/>
    <path d="m140.4567,14.536l.0791,1.0986c.6797-.8496,1.5908-1.2744,2.7334-1.2744,1.0078,0,1.7578.2959,2.25.8877s.7441,1.4766.7559,2.6543v6.1436h-2.54v-6.082c0-.5391-.1172-.9302-.3516-1.1733s-.624-.3647-1.1689-.3647c-.7148,0-1.251.3047-1.6084.9141v6.7061h-2.54v-9.5098h2.3906Z" fill="#2a2b33"/>
    <path d="m150.5377,14.536l.0791,1.0986c.6797-.8496,1.5908-1.2744,2.7334-1.2744,1.0078,0,1.7578.2959,2.25.8877s.7441,1.4766.7559,2.6543v6.1436h-2.54v-6.082c0-.5391-.1172-.9302-.3516-1.1733s-.624-.3647-1.1689-.3647c-.7148,0-1.251.3047-1.6084.9141v6.7061h-2.54v-9.5098h2.3906Z" fill="#2a2b33"/>
    <path d="m157.8854,19.203c0-.9434.1816-1.7842.5449-2.5225s.8857-1.3096,1.5684-1.7139,1.4756-.6064,2.3779-.6064c1.2832,0,2.3301.3926,3.1416,1.1777s1.2646,1.8516,1.3584,3.1992l.0176.6504c0,1.459-.4072,2.6294-1.2217,3.5112s-1.9072,1.3228-3.2783,1.3228-2.4658-.4395-3.2832-1.3184-1.2256-2.0742-1.2256-3.5859v-.1143Zm2.54.1807c0,.9033.1699,1.5947.5098,2.0728.3398.4785.8262.7173,1.459.7173.6152,0,1.0957-.2363,1.4414-.7085.3457-.4727.5186-1.228.5186-2.2666,0-.8862-.1729-1.5728-.5186-2.0601-.3457-.4868-.832-.7305-1.459-.7305-.6211,0-1.1016.2422-1.4414.7261-.3398.4844-.5098,1.2344-.5098,2.2495Z" fill="#2a2b33"/>
    <path d="m173.609,21.4178c0-.3105-.1543-.5552-.4619-.7339s-.8008-.3384-1.4805-.479c-2.2617-.4746-3.3926-1.4355-3.3926-2.8828,0-.8438.3496-1.5483,1.0498-2.1138s1.6162-.8481,2.7471-.8481c1.207,0,2.1719.2842,2.8955.8525s1.0859,1.3066,1.0859,2.2148h-2.54c0-.3633-.1172-.6636-.3516-.9009s-.6006-.356-1.0986-.356c-.4277,0-.7588.0967-.9932.29s-.3516.4395-.3516.7383c0,.2812.1328.5083.3994.6812s.7168.3223,1.3496.4482,1.166.2681,1.5996.4263c1.3418.4922,2.0127,1.3447,2.0127,2.5576,0,.8672-.3721,1.5688-1.1162,2.105s-1.7051.8042-2.8828.8042c-.7969,0-1.5049-.1421-2.123-.4263s-1.1025-.6738-1.4541-1.1689-.5273-1.0298-.5273-1.604h2.4082c.0234.4512.1904.7969.501,1.0371s.7266.3604,1.248.3604c.4863,0,.8535-.0923,1.1025-.2769s.374-.4263.374-.7251Z" fill="#2a2b33"/>
    <path d="m180.7545,12.1981v2.3379h1.626v1.8633h-1.626v4.7461c0,.3516.0674.6035.2021.7559s.3926.2285.7734.2285c.2812,0,.5303-.0205.7471-.0615v1.9248c-.498.1523-1.0107.2285-1.5381.2285-1.7812,0-2.6895-.8994-2.7246-2.6982v-5.124h-1.3887v-1.8633h1.3887v-2.3379h2.54Z" fill="#2a2b33"/>
    <path d="m16.6725,36.4095c-1.126-.3237-1.9453-.7212-2.458-1.1929s-.7686-1.0537-.7686-1.7466c0-.7837.3135-1.4321.9395-1.9448.627-.5127,1.4414-.769,2.4443-.769.6836,0,1.293.1323,1.8281.3965.5361.2642.9502.6289,1.2441,1.0938s.4414.9731.4414,1.5244h-1.3193c0-.604-.1914-1.0781-.5742-1.4238-.3828-.3452-.9229-.5176-1.6201-.5176-.6475,0-1.1523.1426-1.5146.4282-.3623.2852-.543.6812-.543,1.188,0,.4062.1719.75.5156,1.0308.3447.2808.9297.5376,1.7568.77.8271.2329,1.4746.4897,1.9414.77.4678.2803.8135.6074,1.0391.981s.3389.8135.3389,1.3193c0,.8066-.3145,1.4526-.9434,1.938s-1.4697.728-2.5225.728c-.6836,0-1.3223-.1313-1.9141-.3931-.5928-.2622-1.0498-.6211-1.3711-1.0767s-.4814-.9731-.4814-1.5518h1.3193c0,.6016.2217,1.0767.666,1.4253s1.0381.5229,1.7812.5229c.6924,0,1.2236-.1411,1.5928-.4238s.5537-.6675.5537-1.1553-.1709-.8647-.5127-1.1313-.9619-.5298-1.8594-.7896Z" fill="#55555c"/>
    <path d="m23.0436,33.4495l.041.9297c.5645-.7109,1.3027-1.0664,2.2148-1.0664,1.5625,0,2.3516.8818,2.3652,2.6455v4.8877h-1.2646v-4.8945c-.0049-.5332-.127-.9272-.3662-1.1826s-.6113-.3828-1.1172-.3828c-.4102,0-.7705.1094-1.0801.3281-.3105.2188-.5518.5059-.7246.8613v5.2705h-1.2646v-7.3965h1.1963Z" fill="#55555c"/>
    <path d="m30.9596,30.3529h1.5312l-1.832,2.0098-1.0186-.0034,1.3193-2.0063Zm-.0137,10.4932h-1.2715v-7.3965h1.2715v7.3965Z" fill="#55555c"/>
    <path d="m34.2204,39.8138h4.3271v1.0322h-5.8721v-.9297l4.0811-5.4209h-4.0195v-1.0459h5.6055v.8955l-4.1221,5.4688Zm1.3604-8.3057l1.0254-1.1621h1.0938v.0684l-1.7363,1.873h-.7725l-1.7158-1.873v-.0684h1.0732l1.0322,1.1621Z" fill="#55555c"/>
    <path d="m42.9293,40.9827c-1.0029,0-1.8184-.3291-2.4473-.9878s-.9434-1.5391-.9434-2.6421v-.2324c0-.7339.1396-1.3887.4199-1.9653s.6729-1.0278,1.1758-1.3535c.5039-.3257,1.0498-.4888,1.6377-.4888.9609,0,1.709.3169,2.2422.9502s.7998,1.5405.7998,2.7207v.5264h-5.0107c.0176.729.2314,1.3184.6387,1.7671.4082.4487.9268.6733,1.5557.6733.4463,0,.8242-.0913,1.1348-.2734.3096-.1821.5811-.4238.8135-.7246l.7725.6016c-.6201.9526-1.5498,1.4287-2.7891,1.4287Zm-.1572-6.6309c-.5107,0-.9395.1855-1.2852.5571-.3467.3716-.5605.8921-.6426,1.562h3.7051v-.0957c-.0371-.6426-.21-1.1406-.5195-1.4937-.3105-.353-.7295-.5298-1.2578-.5298Z" fill="#55555c"/>
    <path d="m48.4733,33.4495l.041.9297c.5645-.7109,1.3027-1.0664,2.2148-1.0664,1.5625,0,2.3516.8818,2.3652,2.6455v4.8877h-1.2646v-4.8945c-.0049-.5332-.127-.9272-.3662-1.1826s-.6113-.3828-1.1172-.3828c-.4102,0-.7705.1094-1.0801.3281-.3105.2188-.5518.5059-.7246.8613v5.2705h-1.2646v-7.3965h1.1963Z" fill="#55555c"/>
    <path d="m56.3893,30.3529h1.5312l-1.832,2.0098-1.0186-.0034,1.3193-2.0063Zm-.0137,10.4932h-1.2715v-7.3965h1.2715v7.3965Z" fill="#55555c"/>
    <path d="m61.5915,37.0794c0-.7246.1426-1.3765.4268-1.9551.2852-.5786.6816-1.0254,1.1895-1.3398.5088-.3145,1.0879-.4717,1.7402-.4717,1.0068,0,1.8213.3486,2.4434,1.0459s.9336,1.6245.9336,2.7822v.0889c0,.7202-.1377,1.3662-.4141,1.938-.2754.5718-.6699,1.0176-1.1826,1.3364s-1.1016.4785-1.7666.4785c-1.0029,0-1.8154-.3486-2.4375-1.0459s-.9326-1.6201-.9326-2.7686v-.0889Zm1.2715.1504c0,.8203.1904,1.479.5703,1.9756.3809.4966.8896.7451,1.5283.7451.6426,0,1.1523-.252,1.5312-.7554.3779-.5034.5674-1.209.5674-2.1157,0-.811-.1924-1.4688-.5781-1.9722-.3848-.5034-.8965-.7554-1.5342-.7554-.625,0-1.1279.2485-1.5107.7451s-.5742,1.2075-.5742,2.1328Z" fill="#55555c"/>
    <path d="m76.1588,37.2298c0,1.1255-.2578,2.0327-.7725,2.7207-.5156.688-1.2129,1.0322-2.0918,1.0322-.8984,0-1.6045-.2847-2.1191-.8545v3.5615h-1.2646v-10.2402h1.1553l.0615.8203c.5146-.6382,1.2305-.957,2.1465-.957.8887,0,1.5918.335,2.1084,1.0049.5176.6699.7764,1.6021.7764,2.7959v.1162Zm-1.2646-.1436c0-.834-.1777-1.4927-.5332-1.9756s-.8438-.7246-1.4629-.7246c-.7656,0-1.3398.3394-1.7227,1.0186v3.5342c.3779.6743.957,1.0117,1.7363,1.0117.6055,0,1.0879-.2402,1.4453-.7212.3584-.481.5371-1.1953.5371-2.1431Z" fill="#55555c"/>
    <path d="m81.3405,34.5843c-.1914-.0317-.3994-.0479-.6221-.0479-.8301,0-1.3926.353-1.6885,1.0596v5.25h-1.2646v-7.3965h1.2305l.0205.8545c.4141-.6606,1.002-.9912,1.7637-.9912.2461,0,.4326.0317.5605.0957v1.1758Z" fill="#55555c"/>
    <path d="m82.0309,37.0794c0-.7246.1426-1.3765.4268-1.9551.2852-.5786.6816-1.0254,1.1895-1.3398.5088-.3145,1.0879-.4717,1.7402-.4717,1.0068,0,1.8213.3486,2.4434,1.0459s.9336,1.6245.9336,2.7822v.0889c0,.7202-.1377,1.3662-.4141,1.938-.2754.5718-.6699,1.0176-1.1826,1.3364s-1.1016.4785-1.7666.4785c-1.0029,0-1.8154-.3486-2.4375-1.0459s-.9326-1.6201-.9326-2.7686v-.0889Zm1.2715.1504c0,.8203.1904,1.479.5703,1.9756.3809.4966.8896.7451,1.5283.7451.6426,0,1.1523-.252,1.5312-.7554.3779-.5034.5674-1.209.5674-2.1157,0-.811-.1924-1.4688-.5781-1.9722-.3848-.5034-.8965-.7554-1.5342-.7554-.625,0-1.1279.2485-1.5107.7451s-.5742,1.2075-.5742,2.1328Z" fill="#55555c"/>
    <path d="m92.0661,31.6585v1.791h1.3809v.9775h-1.3809v4.5928c0,.2964.0615.519.1846.667.123.1484.332.2227.6289.2227.1455,0,.3457-.0273.6016-.082v1.0195c-.333.0903-.6562.1357-.9707.1357-.5654,0-.9912-.1709-1.2783-.5127s-.4307-.8271-.4307-1.4561v-4.5869h-1.3467v-.9775h1.3467v-1.791h1.2646Z" fill="#55555c"/>
    <path d="m94.9303,31.4876c0-.2051.0625-.3784.1875-.5195.126-.1411.3115-.2119.5576-.2119s.4326.0708.5605.2119c.127.1411.1914.3145.1914.5195s-.0645.376-.1914.5127c-.1279.1367-.3145.2051-.5605.2051s-.4316-.0684-.5576-.2051c-.125-.1367-.1875-.3076-.1875-.5127Zm1.3672,9.3584h-1.2646v-7.3965h1.2646v7.3965Z" fill="#55555c"/>
    <path d="m108.0348,37.2298c0,1.1255-.2578,2.0327-.7725,2.7207-.5156.688-1.2129,1.0322-2.0918,1.0322-.8984,0-1.6045-.2847-2.1191-.8545v3.5615h-1.2646v-10.2402h1.1553l.0615.8203c.5146-.6382,1.2305-.957,2.1465-.957.8887,0,1.5918.335,2.1084,1.0049.5176.6699.7764,1.6021.7764,2.7959v.1162Zm-1.2646-.1436c0-.834-.1777-1.4927-.5332-1.9756s-.8438-.7246-1.4629-.7246c-.7656,0-1.3398.3394-1.7227,1.0186v3.5342c.3779.6743.957,1.0117,1.7363,1.0117.6055,0,1.0879-.2402,1.4453-.7212.3584-.481.5371-1.1953.5371-2.1431Z" fill="#55555c"/>
    <path d="m113.2165,34.5843c-.1914-.0317-.3994-.0479-.6221-.0479-.8301,0-1.3926.353-1.6885,1.0596v5.25h-1.2646v-7.3965h1.2305l.0205.8545c.4141-.6606,1.002-.9912,1.7637-.9912.2461,0,.4326.0317.5605.0957v1.1758Z" fill="#55555c"/>
    <path d="m113.9069,37.0794c0-.7246.1426-1.3765.4268-1.9551.2852-.5786.6816-1.0254,1.1895-1.3398.5088-.3145,1.0879-.4717,1.7402-.4717,1.0068,0,1.8213.3486,2.4434,1.0459s.9336,1.6245.9336,2.7822v.0889c0,.7202-.1377,1.3662-.4141,1.938-.2754.5718-.6699,1.0176-1.1826,1.3364s-1.1016.4785-1.7666.4785c-1.0029,0-1.8154-.3486-2.4375-1.0459s-.9326-1.6201-.9326-2.7686v-.0889Zm1.2715.1504c0,.8203.1904,1.479.5703,1.9756.3809.4966.8896.7451,1.5283.7451.6426,0,1.1523-.252,1.5312-.7554.3779-.5034.5674-1.209.5674-2.1157,0-.811-.1924-1.4688-.5781-1.9722-.3848-.5034-.8965-.7554-1.5342-.7554-.625,0-1.1279.2485-1.5107.7451s-.5742,1.2075-.5742,2.1328Z" fill="#55555c"/>
    <path d="m121.9254,37.0863c0-1.1528.2666-2.0703.7998-2.7515s1.2393-1.022,2.1191-1.022c.9023,0,1.6064.3188,2.1123.957l.0615-.8203h1.1553v7.2188c0,.957-.2842,1.7109-.8516,2.2627-.5674.5513-1.3291.8271-2.2861.8271-.5332,0-1.0557-.1143-1.5654-.3418-.5107-.228-.9004-.54-1.1689-.9365l.6562-.7588c.542.6699,1.2051,1.0049,1.9893,1.0049.6152,0,1.0947-.1733,1.4385-.5195.3447-.3467.5166-.834.5166-1.4629v-.6357c-.5059.5835-1.1963.875-2.0713.875-.8662,0-1.5664-.3486-2.1025-1.0459-.5352-.6973-.8027-1.6475-.8027-2.8506Zm1.2715.1436c0,.834.1709,1.4893.5127,1.9653s.8203.7144,1.4355.7144c.7969,0,1.3828-.3623,1.7568-1.0869v-3.377c-.3877-.7065-.9688-1.0596-1.7432-1.0596-.6152,0-1.0967.2393-1.4424.7178-.3467.4785-.5195,1.187-.5195,2.126Z" fill="#55555c"/>
    <path d="m131.277,33.4495l.041.9297c.5645-.7109,1.3027-1.0664,2.2148-1.0664,1.5625,0,2.3516.8818,2.3652,2.6455v4.8877h-1.2646v-4.8945c-.0049-.5332-.127-.9272-.3662-1.1826s-.6113-.3828-1.1172-.3828c-.4102,0-.7705.1094-1.0801.3281-.3105.2188-.5518.5059-.7246.8613v5.2705h-1.2646v-7.3965h1.1963Z" fill="#55555c"/>
    <path d="m137.4704,37.0794c0-.7246.1426-1.3765.4268-1.9551.2852-.5786.6816-1.0254,1.1895-1.3398.5088-.3145,1.0879-.4717,1.7402-.4717,1.0068,0,1.8213.3486,2.4434,1.0459s.9336,1.6245.9336,2.7822v.0889c0,.7202-.1377,1.3662-.4141,1.938-.2754.5718-.6699,1.0176-1.1826,1.3364s-1.1016.4785-1.7666.4785c-1.0029,0-1.8154-.3486-2.4375-1.0459s-.9326-1.6201-.9326-2.7686v-.0889Zm1.2715.1504c0,.8203.1904,1.479.5703,1.9756.3809.4966.8896.7451,1.5283.7451.6426,0,1.1523-.252,1.5312-.7554.3779-.5034.5674-1.209.5674-2.1157,0-.811-.1924-1.4688-.5781-1.9722-.3848-.5034-.8965-.7554-1.5342-.7554-.625,0-1.1279.2485-1.5107.7451s-.5742,1.2075-.5742,2.1328Z" fill="#55555c"/>
    <path d="m146.8698,39.8138h4.3271v1.0322h-5.8721v-.9297l4.0811-5.4209h-4.0195v-1.0459h5.6055v.8955l-4.1221,5.4688Z" fill="#55555c"/>
    <path d="m157.1852,40.846c-.0732-.146-.1328-.4058-.1777-.7793-.5879.6108-1.29.916-2.1055.916-.7295,0-1.3271-.2061-1.7949-.6187-.4668-.4126-.7002-.9355-.7002-1.5688,0-.77.293-1.3682.8779-1.7944.5859-.4263,1.4092-.6392,2.4717-.6392h1.2305v-.5811c0-.4419-.1328-.7939-.3965-1.0562-.2646-.2622-.6543-.3931-1.1689-.3931-.4512,0-.8301.1138-1.1348.3418-.3057.228-.458.5034-.458.8271h-1.2715c0-.3691.1309-.7256.3926-1.0698.2627-.3442.6182-.6162,1.0664-.8169.4492-.2007.9424-.3008,1.4805-.3008.8516,0,1.5195.2129,2.0029.6392.4824.4263.7334,1.0127.752,1.7603v3.4043c0,.6792.0859,1.2192.2598,1.6201v.1094h-1.3262Zm-2.0986-.9639c.3965,0,.7725-.1025,1.1279-.3076s.6123-.4717.7725-.7998v-1.5176h-.9912c-1.5498,0-2.3242.4536-2.3242,1.3604,0,.3965.1318.7065.3965.9297.2637.2231.6035.335,1.0186.335Zm1.1689-9.5361h1.5312l-1.832,2.0098-1.0186-.0034,1.3193-2.0063Z" fill="#55555c"/>
    <path d="m161.4235,33.4495l.0342.8203c.542-.6382,1.2734-.957,2.1943-.957,1.0342,0,1.7383.3965,2.1123,1.1895.2461-.3555.5664-.6426.96-.8613.3945-.2188.8604-.3281,1.3984-.3281,1.6221,0,2.4473.8589,2.4746,2.5771v4.9561h-1.2646v-4.8809c0-.5288-.1211-.9238-.3623-1.186-.2422-.2622-.6475-.3931-1.2168-.3931-.4697,0-.8594.1401-1.1689.4204-.3105.2803-.4902.6572-.54,1.1313v4.9082h-1.2715v-4.8467c0-1.0757-.5264-1.6133-1.5791-1.6133-.8301,0-1.3975.353-1.7021,1.0596v5.4004h-1.2646v-7.3965h1.1963Z" fill="#55555c"/>
    <path d="m178.0348,37.4212l-.793.8271v2.5977h-1.2646v-10.5h1.2646v6.3506l.6768-.8135,2.3037-2.4336h1.5381l-2.8779,3.0898,3.2129,4.3066h-1.4834l-2.5771-3.4248Z" fill="#55555c"/>
    <path d="m182.7311,37.0794c0-.7246.1426-1.3765.4268-1.9551.2852-.5786.6816-1.0254,1.1895-1.3398.5088-.3145,1.0879-.4717,1.7402-.4717,1.0068,0,1.8213.3486,2.4434,1.0459s.9336,1.6245.9336,2.7822v.0889c0,.7202-.1377,1.3662-.4141,1.938-.2754.5718-.6699,1.0176-1.1826,1.3364s-1.1016.4785-1.7666.4785c-1.0029,0-1.8154-.3486-2.4375-1.0459s-.9326-1.6201-.9326-2.7686v-.0889Zm1.2715.1504c0,.8203.1904,1.479.5703,1.9756.3809.4966.8896.7451,1.5283.7451.6426,0,1.1523-.252,1.5312-.7554.3779-.5034.5674-1.209.5674-2.1157,0-.811-.1924-1.4688-.5781-1.9722-.3848-.5034-.8965-.7554-1.5342-.7554-.625,0-1.1279.2485-1.5107.7451s-.5742,1.2075-.5742,2.1328Z" fill="#55555c"/>
    <path d="m192.2467,33.4495l.041.9297c.5645-.7109,1.3027-1.0664,2.2148-1.0664,1.5625,0,2.3516.8818,2.3652,2.6455v4.8877h-1.2646v-4.8945c-.0049-.5332-.127-.9272-.3662-1.1826s-.6113-.3828-1.1172-.3828c-.4102,0-.7705.1094-1.0801.3281-.3105.2188-.5518.5059-.7246.8613v5.2705h-1.2646v-7.3965h1.1963Z" fill="#55555c"/>
    <path d="m201.8444,40.9827c-1.0029,0-1.8184-.3291-2.4473-.9878s-.9434-1.5391-.9434-2.6421v-.2324c0-.7339.1396-1.3887.4199-1.9653s.6729-1.0278,1.1758-1.3535c.5039-.3257,1.0498-.4888,1.6377-.4888.9609,0,1.709.3169,2.2422.9502s.7998,1.5405.7998,2.7207v.5264h-5.0107c.0176.729.2314,1.3184.6387,1.7671.4082.4487.9268.6733,1.5557.6733.4463,0,.8242-.0913,1.1348-.2734.3096-.1821.5811-.4238.8135-.7246l.7725.6016c-.6201.9526-1.5498,1.4287-2.7891,1.4287Zm-.1572-6.6309c-.5107,0-.9395.1855-1.2852.5571-.3467.3716-.5605.8921-.6426,1.562h3.7051v-.0957c-.0371-.6426-.21-1.1406-.5195-1.4937-.3105-.353-.7295-.5298-1.2578-.5298Z" fill="#55555c"/>
    <path d="m209.1588,39.9505c.4512,0,.8447-.1367,1.1826-.4102.3369-.2734.5234-.6152.5605-1.0254h1.1963c-.0234.4238-.1689.8271-.4375,1.21-.2695.3828-.6279.688-1.0771.916-.4482.2275-.9238.3418-1.4248.3418-1.0078,0-1.8086-.3359-2.4033-1.0083s-.8916-1.5918-.8916-2.7583v-.2119c0-.7202.1318-1.3604.3965-1.9209.2637-.5605.6436-.9956,1.1377-1.3057.4951-.3101,1.0791-.4648,1.7539-.4648.8291,0,1.5186.2485,2.0674.7451.5498.4966.8418,1.1416.8789,1.9346h-1.1963c-.0371-.4785-.2178-.8716-.5439-1.1792-.3252-.3076-.7275-.4614-1.2061-.4614-.6426,0-1.1406.2314-1.4941.6938-.3525.4624-.5293,1.1313-.5293,2.0063v.2393c0,.8521.1748,1.5083.5264,1.9688.3506.4604.8516.6904,1.5039.6904Zm-.2939-8.4424l1.0254-1.1621h1.0938v.0684l-1.7363,1.873h-.7725l-1.7158-1.873v-.0684h1.0732l1.0322,1.1621Z" fill="#55555c"/>
    <path d="m214.7165,33.4495l.041.9297c.5645-.7109,1.3027-1.0664,2.2148-1.0664,1.5625,0,2.3516.8818,2.3652,2.6455v4.8877h-1.2646v-4.8945c-.0049-.5332-.127-.9272-.3662-1.1826s-.6113-.3828-1.1172-.3828c-.4102,0-.7705.1094-1.0801.3281-.3105.2188-.5518.5059-.7246.8613v5.2705h-1.2646v-7.3965h1.1963Z" fill="#55555c"/>
    <path d="m224.3141,40.9827c-1.0029,0-1.8184-.3291-2.4473-.9878s-.9434-1.5391-.9434-2.6421v-.2324c0-.7339.1396-1.3887.4199-1.9653s.6729-1.0278,1.1758-1.3535c.5039-.3257,1.0498-.4888,1.6377-.4888.9609,0,1.709.3169,2.2422.9502s.7998,1.5405.7998,2.7207v.5264h-5.0107c.0176.729.2314,1.3184.6387,1.7671.4082.4487.9268.6733,1.5557.6733.4463,0,.8242-.0913,1.1348-.2734.3096-.1821.5811-.4238.8135-.7246l.7725.6016c-.6201.9526-1.5498,1.4287-2.7891,1.4287Zm-.1572-6.6309c-.5107,0-.9395.1855-1.2852.5571-.3467.3716-.5605.8921-.6426,1.562h3.7051v-.0957c-.0371-.6426-.21-1.1406-.5195-1.4937-.3105-.353-.7295-.5298-1.2578-.5298Zm.6152-4.0059h1.5312l-1.832,2.0098-1.0186-.0034,1.3193-2.0063Z" fill="#55555c"/>
    <path d="m236.4342,38.8841c0-.3418-.1289-.6074-.3867-.7964-.2568-.189-.7061-.3521-1.3467-.4888-.6396-.1367-1.1484-.3008-1.5244-.4922s-.6533-.4194-.834-.6836c-.1797-.2642-.2695-.5786-.2695-.9434,0-.606.2559-1.1187.7686-1.5381s1.168-.6289,1.9658-.6289c.8379,0,1.5186.2163,2.04.6494.5225.4331.7832.9868.7832,1.6611h-1.2715c0-.3462-.1475-.645-.4414-.8955s-.6641-.376-1.1104-.376c-.4609,0-.8203.1001-1.0801.3008s-.3896.4624-.3896.7861c0,.3052.1201.5356.3623.6904.2412.1548.6777.3032,1.3086.4443.6318.1411,1.1426.3101,1.5352.5059.3916.1958.6826.4316.8711.7075.1895.2759.2842.6118.2842,1.0083,0,.6606-.2646,1.1904-.793,1.5894-.5293.3989-1.2148.5981-2.0576.5981-.5928,0-1.1172-.105-1.5723-.3145-.4561-.2095-.8125-.5024-1.0703-.8784-.2568-.376-.3857-.7827-.3857-1.2202h1.2646c.0225.4238.1924.7598.5088,1.0083.3174.2485.7354.3726,1.2549.3726.4785,0,.8623-.0967,1.1514-.2905.29-.1938.4346-.4521.4346-.7759Z" fill="#55555c"/>
    <path d="m245.5944,37.2298c0,1.1255-.2578,2.0327-.7725,2.7207-.5156.688-1.2129,1.0322-2.0918,1.0322-.8984,0-1.6045-.2847-2.1191-.8545v3.5615h-1.2646v-10.2402h1.1553l.0615.8203c.5146-.6382,1.2305-.957,2.1465-.957.8887,0,1.5918.335,2.1084,1.0049.5176.6699.7764,1.6021.7764,2.7959v.1162Zm-1.2646-.1436c0-.834-.1777-1.4927-.5332-1.9756s-.8438-.7246-1.4629-.7246c-.7656,0-1.3398.3394-1.7227,1.0186v3.5342c.3779.6743.957,1.0117,1.7363,1.0117.6055,0,1.0879-.2402,1.4453-.7212.3584-.481.5371-1.1953.5371-2.1431Z" fill="#55555c"/>
    <path d="m246.8659,37.0794c0-.7246.1426-1.3765.4268-1.9551.2852-.5786.6816-1.0254,1.1895-1.3398.5088-.3145,1.0879-.4717,1.7402-.4717,1.0068,0,1.8213.3486,2.4434,1.0459s.9336,1.6245.9336,2.7822v.0889c0,.7202-.1377,1.3662-.4141,1.938-.2754.5718-.6699,1.0176-1.1826,1.3364s-1.1016.4785-1.7666.4785c-1.0029,0-1.8154-.3486-2.4375-1.0459s-.9326-1.6201-.9326-2.7686v-.0889Zm1.2715.1504c0,.8203.1904,1.479.5703,1.9756.3809.4966.8896.7451,1.5283.7451.6426,0,1.1523-.252,1.5312-.7554.3779-.5034.5674-1.209.5674-2.1157,0-.811-.1924-1.4688-.5781-1.9722-.3848-.5034-.8965-.7554-1.5342-.7554-.625,0-1.1279.2485-1.5107.7451s-.5742,1.2075-.5742,2.1328Z" fill="#55555c"/>
    <path d="m256.901,31.6585v1.791h1.3809v.9775h-1.3809v4.5928c0,.2964.0615.519.1846.667.123.1484.332.2227.6289.2227.1455,0,.3457-.0273.6016-.082v1.0195c-.333.0903-.6562.1357-.9707.1357-.5654,0-.9912-.1709-1.2783-.5127s-.4307-.8271-.4307-1.4561v-4.5869h-1.3467v-.9775h1.3467v-1.791h1.2646Z" fill="#55555c"/>
    <path d="m261.5836,31.5081l1.0254-1.1621h1.0938v.0684l-1.7363,1.873h-.7725l-1.7158-1.873v-.0684h1.0732l1.0322,1.1621Zm1.75,3.0762c-.1914-.0317-.3994-.0479-.6221-.0479-.8301,0-1.3926.353-1.6885,1.0596v5.25h-1.2646v-7.3965h1.2305l.0205.8545c.4141-.6606,1.002-.9912,1.7637-.9912.2461,0,.4326.0317.5605.0957v1.1758Z" fill="#55555c"/>
    <path d="m267.4352,40.9827c-1.0029,0-1.8184-.3291-2.4473-.9878s-.9434-1.5391-.9434-2.6421v-.2324c0-.7339.1396-1.3887.4199-1.9653s.6729-1.0278,1.1758-1.3535c.5039-.3257,1.0498-.4888,1.6377-.4888.9609,0,1.709.3169,2.2422.9502s.7998,1.5405.7998,2.7207v.5264h-5.0107c.0176.729.2314,1.3184.6387,1.7671.4082.4487.9268.6733,1.5557.6733.4463,0,.8242-.0913,1.1348-.2734.3096-.1821.5811-.4238.8135-.7246l.7725.6016c-.6201.9526-1.5498,1.4287-2.7891,1.4287Zm-.1572-6.6309c-.5107,0-.9395.1855-1.2852.5571-.3467.3716-.5605.8921-.6426,1.562h3.7051v-.0957c-.0371-.6426-.21-1.1406-.5195-1.4937-.3105-.353-.7295-.5298-1.2578-.5298Z" fill="#55555c"/>
    <path d="m278.0446,37.2298c0,1.1304-.2598,2.0381-.7793,2.7241s-1.2168,1.0288-2.0918,1.0288c-.9346,0-1.6572-.3306-2.167-.9912l-.0615.8545h-1.1621v-10.5h1.2646v3.917c.5098-.6333,1.2139-.9502,2.1123-.9502.8975,0,1.6025.3394,2.1152,1.0186s.7695,1.6089.7695,2.7891v.1094Zm-1.2646-.1436c0-.8613-.167-1.5269-.499-1.9961-.333-.4692-.8115-.7041-1.4355-.7041-.834,0-1.4336.3872-1.7979,1.1621v3.1992c.3867.7749.9912,1.1621,1.8115,1.1621.6055,0,1.0771-.2349,1.415-.7041.3369-.4692.5059-1.1758.5059-2.1191Z" fill="#55555c"/>
    <path d="m281.9821,38.9935l1.7227-5.5439h1.3535l-2.9736,8.5381c-.4609,1.2305-1.1924,1.8457-2.1943,1.8457l-.2393-.0205-.4717-.0889v-1.0254l.3418.0273c.4277,0,.7617-.0869,1.001-.2598.2393-.1733.4365-.4902.5918-.9502l.2803-.752-2.6387-7.3145h1.3809l1.8457,5.5439Z" fill="#55555c"/>
    <path d="m18.1081,56.9144c-.4922.5791-1.2148.8682-2.167.8682-.7891,0-1.3887-.229-1.8018-.687-.4121-.458-.6211-1.1357-.625-2.0337v-4.8125h1.2646v4.7783c0,1.1211.4551,1.6816,1.3672,1.6816.9658,0,1.6084-.3599,1.9277-1.0801v-5.3799h1.2646v7.3965h-1.2031l-.0273-.7314Z" fill="#55555c"/>
    <path d="m23.6999,55.93l1.832-5.6807h1.292l-2.6523,7.3965h-.9639l-2.6797-7.3965h1.292l1.8799,5.6807Z" fill="#55555c"/>
    <path d="m31.0211,57.7825c-1.0029,0-1.8184-.3291-2.4473-.9878-.6289-.6582-.9434-1.5391-.9434-2.6421v-.2324c0-.7334.1396-1.3887.4199-1.9653.2803-.5762.6729-1.0273,1.1758-1.3535.5039-.3257,1.0498-.4888,1.6377-.4888.9609,0,1.709.3169,2.2422.9502.5332.6338.7998,1.5405.7998,2.7207v.5264h-5.0107c.0176.7295.2314,1.3184.6387,1.7671.4082.4492.9268.6733,1.5557.6733.4463,0,.8242-.0908,1.1348-.2734.3096-.1821.5811-.4238.8135-.7246l.7725.6016c-.6201.9526-1.5498,1.4287-2.7891,1.4287Zm-.1572-6.6309c-.5107,0-.9395.186-1.2852.5571-.3467.3716-.5605.8921-.6426,1.562h3.7051v-.0957c-.0371-.6426-.21-1.1401-.5195-1.4937-.3105-.353-.7295-.5298-1.2578-.5298Z" fill="#55555c"/>
    <path d="m35.0612,53.8861c0-1.1348.2686-2.0474.8066-2.7378.5371-.6904,1.2412-1.0356,2.1123-1.0356.8652,0,1.5518.2964,2.0576.8887v-3.8555h1.2646v10.5h-1.1621l-.0615-.793c-.5059.6201-1.21.9297-2.1123.9297-.8574,0-1.5557-.3506-2.0957-1.0527-.54-.7017-.8096-1.6177-.8096-2.748v-.0957Zm1.2646.1436c0,.8389.1729,1.4951.5195,1.9688.3457.4741.8242.7109,1.4355.7109.8018,0,1.3877-.3599,1.7568-1.0801v-3.3975c-.3789-.6973-.96-1.0459-1.7432-1.0459-.6201,0-1.1035.2393-1.4492.7178-.3467.4785-.5195,1.1875-.5195,2.126Z" fill="#55555c"/>
    <path d="m46.3336,57.7825c-1.0029,0-1.8184-.3291-2.4473-.9878-.6289-.6582-.9434-1.5391-.9434-2.6421v-.2324c0-.7334.1396-1.3887.4199-1.9653.2803-.5762.6729-1.0273,1.1758-1.3535.5039-.3257,1.0498-.4888,1.6377-.4888.9609,0,1.709.3169,2.2422.9502.5332.6338.7998,1.5405.7998,2.7207v.5264h-5.0107c.0176.7295.2314,1.3184.6387,1.7671.4082.4492.9268.6733,1.5557.6733.4463,0,.8242-.0908,1.1348-.2734.3096-.1821.5811-.4238.8135-.7246l.7725.6016c-.6201.9526-1.5498,1.4287-2.7891,1.4287Zm-.1572-6.6309c-.5107,0-.9395.186-1.2852.5571-.3467.3716-.5605.8921-.6426,1.562h3.7051v-.0957c-.0371-.6426-.21-1.1401-.5195-1.4937-.3105-.353-.7295-.5298-1.2578-.5298Z" fill="#55555c"/>
    <path d="m51.8776,50.2493l.041.9297c.5645-.7109,1.3027-1.0664,2.2148-1.0664,1.5625,0,2.3516.8818,2.3652,2.6455v4.8877h-1.2646v-4.8945c-.0049-.5332-.127-.9272-.3662-1.1826-.2393-.2549-.6113-.3828-1.1172-.3828-.4102,0-.7705.1094-1.0801.3281-.3105.2188-.5518.5059-.7246.8613v5.2705h-1.2646v-7.3965h1.1963Z" fill="#55555c"/>
    <path d="m60.8258,55.7933l1.7227-5.5439h1.3535l-2.9736,8.5381c-.4609,1.2305-1.1924,1.8457-2.1943,1.8457l-.2393-.0205-.4717-.0889v-1.0254l.3418.0273c.4277,0,.7617-.0864,1.001-.2598s.4365-.4897.5918-.9502l.2803-.752-2.6387-7.3145h1.3809l1.8457,5.5439Zm.7178-8.6475h1.5312l-1.832,2.0098-1.0186-.0034,1.3193-2.0063Z" fill="#55555c"/>
    <path d="m66.2194,50.2493l.0342.8203c.542-.6377,1.2734-.957,2.1943-.957,1.0342,0,1.7383.3965,2.1123,1.1895.2461-.3555.5664-.6426.96-.8613.3945-.2188.8604-.3281,1.3984-.3281,1.6221,0,2.4473.8594,2.4746,2.5771v4.9561h-1.2646v-4.8809c0-.5283-.1211-.9238-.3623-1.186-.2422-.2617-.6475-.3931-1.2168-.3931-.4697,0-.8594.1401-1.1689.4204-.3105.2803-.4902.6577-.54,1.1313v4.9082h-1.2715v-4.8467c0-1.0752-.5264-1.6133-1.5791-1.6133-.8301,0-1.3975.3535-1.7021,1.0596v5.4004h-1.2646v-7.3965h1.1963Z" fill="#55555c"/>
    <path d="m83.2067,55.93l1.832-5.6807h1.292l-2.6523,7.3965h-.9639l-2.6797-7.3965h1.292l1.8799,5.6807Z" fill="#55555c"/>
    <path d="m94.5885,51.3841c-.1914-.0317-.3994-.0479-.6221-.0479-.8301,0-1.3926.3535-1.6885,1.0596v5.25h-1.2646v-7.3965h1.2305l.0205.8545c.4141-.6606,1.002-.9912,1.7637-.9912.2461,0,.4326.0322.5605.0957v1.1758Z" fill="#55555c"/>
    <path d="m98.6901,57.7825c-1.0029,0-1.8184-.3291-2.4473-.9878-.6289-.6582-.9434-1.5391-.9434-2.6421v-.2324c0-.7334.1396-1.3887.4199-1.9653.2803-.5762.6729-1.0273,1.1758-1.3535.5039-.3257,1.0498-.4888,1.6377-.4888.9609,0,1.709.3169,2.2422.9502.5332.6338.7998,1.5405.7998,2.7207v.5264h-5.0107c.0176.7295.2314,1.3184.6387,1.7671.4082.4492.9268.6733,1.5557.6733.4463,0,.8242-.0908,1.1348-.2734.3096-.1821.5811-.4238.8135-.7246l.7725.6016c-.6201.9526-1.5498,1.4287-2.7891,1.4287Zm-.1572-6.6309c-.5107,0-.9395.186-1.2852.5571-.3467.3716-.5605.8921-.6426,1.562h3.7051v-.0957c-.0371-.6426-.21-1.1401-.5195-1.4937-.3105-.353-.7295-.5298-1.2578-.5298Z" fill="#55555c"/>
    <path d="m103.6598,57.6458v-6.4189h-1.1689v-.9775h1.1689v-.7588c0-.793.2119-1.4058.6357-1.8389.4238-.4326,1.0225-.6494,1.7979-.6494.291,0,.5811.0386.8682.1157l-.0684,1.019c-.2148-.041-.4424-.0615-.6836-.0615-.4102,0-.7275.1201-.9502.3604-.2236.2397-.335.584-.335,1.0317v.7817h1.5791v.9775h-1.5791v6.4189h-1.2646Z" fill="#55555c"/>
    <path d="m110.8034,57.7825c-1.0029,0-1.8184-.3291-2.4473-.9878-.6289-.6582-.9434-1.5391-.9434-2.6421v-.2324c0-.7334.1396-1.3887.4199-1.9653.2803-.5762.6729-1.0273,1.1758-1.3535.5039-.3257,1.0498-.4888,1.6377-.4888.9609,0,1.709.3169,2.2422.9502.5332.6338.7998,1.5405.7998,2.7207v.5264h-5.0107c.0176.7295.2314,1.3184.6387,1.7671.4082.4492.9268.6733,1.5557.6733.4463,0,.8242-.0908,1.1348-.2734.3096-.1821.5811-.4238.8135-.7246l.7725.6016c-.6201.9526-1.5498,1.4287-2.7891,1.4287Zm-.1572-6.6309c-.5107,0-.9395.186-1.2852.5571-.3467.3716-.5605.8921-.6426,1.562h3.7051v-.0957c-.0371-.6426-.21-1.1401-.5195-1.4937-.3105-.353-.7295-.5298-1.2578-.5298Z" fill="#55555c"/>
    <path d="m118.7262,51.3841c-.1914-.0317-.3994-.0479-.6221-.0479-.8301,0-1.3926.3535-1.6885,1.0596v5.25h-1.2646v-7.3965h1.2305l.0205.8545c.4141-.6606,1.002-.9912,1.7637-.9912.2461,0,.4326.0322.5605.0957v1.1758Z" fill="#55555c"/>
    <path d="m122.8278,57.7825c-1.0029,0-1.8184-.3291-2.4473-.9878-.6289-.6582-.9434-1.5391-.9434-2.6421v-.2324c0-.7334.1396-1.3887.4199-1.9653.2803-.5762.6729-1.0273,1.1758-1.3535.5039-.3257,1.0498-.4888,1.6377-.4888.9609,0,1.709.3169,2.2422.9502.5332.6338.7998,1.5405.7998,2.7207v.5264h-5.0107c.0176.7295.2314,1.3184.6387,1.7671.4082.4492.9268.6733,1.5557.6733.4463,0,.8242-.0908,1.1348-.2734.3096-.1821.5811-.4238.8135-.7246l.7725.6016c-.6201.9526-1.5498,1.4287-2.7891,1.4287Zm-.1572-6.6309c-.5107,0-.9395.186-1.2852.5571-.3467.3716-.5605.8921-.6426,1.562h3.7051v-.0957c-.0371-.6426-.21-1.1401-.5195-1.4937-.3105-.353-.7295-.5298-1.2578-.5298Z" fill="#55555c"/>
    <path d="m128.3717,50.2493l.041.9297c.5645-.7109,1.3027-1.0664,2.2148-1.0664,1.5625,0,2.3516.8818,2.3652,2.6455v4.8877h-1.2646v-4.8945c-.0049-.5332-.127-.9272-.3662-1.1826-.2393-.2549-.6113-.3828-1.1172-.3828-.4102,0-.7705.1094-1.0801.3281-.3105.2188-.5518.5059-.7246.8613v5.2705h-1.2646v-7.3965h1.1963Z" fill="#55555c"/>
    <path d="m137.8668,56.7503c.4512,0,.8447-.1367,1.1826-.4102.3369-.2734.5234-.6152.5605-1.0254h1.1963c-.0234.4238-.1689.8271-.4375,1.21-.2695.3828-.6279.6885-1.0771.916-.4482.228-.9238.3418-1.4248.3418-1.0078,0-1.8086-.3359-2.4033-1.0083-.5947-.6719-.8916-1.5913-.8916-2.7583v-.2119c0-.7197.1318-1.3604.3965-1.9209.2637-.5605.6436-.9956,1.1377-1.3057.4951-.3096,1.0791-.4648,1.7539-.4648.8291,0,1.5186.2485,2.0674.7451.5498.4971.8418,1.1416.8789,1.9346h-1.1963c-.0371-.4785-.2178-.8716-.5439-1.1792-.3252-.3076-.7275-.4614-1.2061-.4614-.6426,0-1.1406.2314-1.4941.6938-.3525.4629-.5293,1.1313-.5293,2.0063v.2393c0,.8525.1748,1.5088.5264,1.9688.3506.4604.8516.6904,1.5039.6904Zm-.2939-8.4424l1.0254-1.1621h1.0938v.0684l-1.7363,1.873h-.7725l-1.7158-1.873v-.0684h1.0732l1.0322,1.1621Z" fill="#55555c"/>
    <path d="m143.4245,50.2493l.041.9297c.5645-.7109,1.3027-1.0664,2.2148-1.0664,1.5625,0,2.3516.8818,2.3652,2.6455v4.8877h-1.2646v-4.8945c-.0049-.5332-.127-.9272-.3662-1.1826-.2393-.2549-.6113-.3828-1.1172-.3828-.4102,0-.7705.1094-1.0801.3281-.3105.2188-.5518.5059-.7246.8613v5.2705h-1.2646v-7.3965h1.1963Z" fill="#55555c"/>
    <path d="m151.3405,47.1527h1.5312l-1.832,2.0098-1.0186-.0034,1.3193-2.0063Zm-.0137,10.4932h-1.2715v-7.3965h1.2715v7.3965Z" fill="#55555c"/>
    <path d="m154.6012,50.2493l.0342.8203c.542-.6377,1.2734-.957,2.1943-.957,1.0342,0,1.7383.3965,2.1123,1.1895.2461-.3555.5664-.6426.96-.8613.3945-.2188.8604-.3281,1.3984-.3281,1.6221,0,2.4473.8594,2.4746,2.5771v4.9561h-1.2646v-4.8809c0-.5283-.1211-.9238-.3623-1.186-.2422-.2617-.6475-.3931-1.2168-.3931-.4697,0-.8594.1401-1.1689.4204-.3105.2803-.4902.6577-.54,1.1313v4.9082h-1.2715v-4.8467c0-1.0752-.5264-1.6133-1.5791-1.6133-.8301,0-1.3975.3535-1.7021,1.0596v5.4004h-1.2646v-7.3965h1.1963Z" fill="#55555c"/>
    <path d="m173.4547,55.6839c0-.3418-.1289-.6069-.3867-.7964-.2568-.189-.7061-.3521-1.3467-.4888-.6396-.1367-1.1484-.3008-1.5244-.4922s-.6533-.4189-.834-.6836c-.1797-.2642-.2695-.5786-.2695-.9434,0-.606.2559-1.1187.7686-1.5381.5127-.4189,1.168-.6289,1.9658-.6289.8379,0,1.5186.2168,2.04.6494.5225.4331.7832.9868.7832,1.6611h-1.2715c0-.3462-.1475-.6445-.4414-.8955-.2939-.2505-.6641-.376-1.1104-.376-.4609,0-.8203.1006-1.0801.3008-.2598.2007-.3896.4629-.3896.7861,0,.3057.1201.5356.3623.6904.2412.1553.6777.3032,1.3086.4443.6318.1416,1.1426.3101,1.5352.5059.3916.1963.6826.4321.8711.7075.1895.2759.2842.6118.2842,1.0083,0,.6611-.2646,1.1909-.793,1.5894-.5293.3989-1.2148.5981-2.0576.5981-.5928,0-1.1172-.105-1.5723-.3145-.4561-.2095-.8125-.5024-1.0703-.8784-.2568-.376-.3857-.7827-.3857-1.2202h1.2646c.0225.4238.1924.7603.5088,1.0083.3174.2485.7354.3726,1.2549.3726.4785,0,.8623-.0967,1.1514-.2905.29-.1934.4346-.4521.4346-.7759Z" fill="#55555c"/>
    <path d="m179.3336,56.7503c.4512,0,.8447-.1367,1.1826-.4102.3369-.2734.5234-.6152.5605-1.0254h1.1963c-.0234.4238-.1689.8271-.4375,1.21-.2695.3828-.6279.6885-1.0771.916-.4482.228-.9238.3418-1.4248.3418-1.0078,0-1.8086-.3359-2.4033-1.0083-.5947-.6719-.8916-1.5913-.8916-2.7583v-.2119c0-.7197.1318-1.3604.3965-1.9209.2637-.5605.6436-.9956,1.1377-1.3057.4951-.3096,1.0791-.4648,1.7539-.4648.8291,0,1.5186.2485,2.0674.7451.5498.4971.8418,1.1416.8789,1.9346h-1.1963c-.0371-.4785-.2178-.8716-.5439-1.1792-.3252-.3076-.7275-.4614-1.2061-.4614-.6426,0-1.1406.2314-1.4941.6938-.3525.4629-.5293,1.1313-.5293,2.0063v.2393c0,.8525.1748,1.5088.5264,1.9688.3506.4604.8516.6904,1.5039.6904Z" fill="#55555c"/>
    <path d="m186.7643,57.7825c-1.0029,0-1.8184-.3291-2.4473-.9878-.6289-.6582-.9434-1.5391-.9434-2.6421v-.2324c0-.7334.1396-1.3887.4199-1.9653.2803-.5762.6729-1.0273,1.1758-1.3535.5039-.3257,1.0498-.4888,1.6377-.4888.9609,0,1.709.3169,2.2422.9502.5332.6338.7998,1.5405.7998,2.7207v.5264h-5.0107c.0176.7295.2314,1.3184.6387,1.7671.4082.4492.9268.6733,1.5557.6733.4463,0,.8242-.0908,1.1348-.2734.3096-.1821.5811-.4238.8135-.7246l.7725.6016c-.6201.9526-1.5498,1.4287-2.7891,1.4287Zm-.1572-6.6309c-.5107,0-.9395.186-1.2852.5571-.3467.3716-.5605.8921-.6426,1.562h3.7051v-.0957c-.0371-.6426-.21-1.1401-.5195-1.4937-.3105-.353-.7295-.5298-1.2578-.5298Zm.6152-4.0059h1.5312l-1.832,2.0098-1.0186-.0034,1.3193-2.0063Z" fill="#55555c"/>
    <path d="m192.3083,50.2493l.041.9297c.5645-.7109,1.3027-1.0664,2.2148-1.0664,1.5625,0,2.3516.8818,2.3652,2.6455v4.8877h-1.2646v-4.8945c-.0049-.5332-.127-.9272-.3662-1.1826-.2393-.2549-.6113-.3828-1.1172-.3828-.4102,0-.7705.1094-1.0801.3281-.3105.2188-.5518.5059-.7246.8613v5.2705h-1.2646v-7.3965h1.1963Z" fill="#55555c"/>
    <path d="m203.403,57.6458c-.0732-.1455-.1328-.4053-.1777-.7793-.5879.6108-1.29.916-2.1055.916-.7295,0-1.3271-.2061-1.7949-.6187-.4668-.4121-.7002-.9351-.7002-1.5688,0-.77.293-1.3682.8779-1.7944.5859-.4258,1.4092-.6392,2.4717-.6392h1.2305v-.5811c0-.4419-.1328-.7939-.3965-1.0562-.2646-.2617-.6543-.3931-1.1689-.3931-.4512,0-.8301.1143-1.1348.3418-.3057.228-.458.5039-.458.8271h-1.2715c0-.3691.1309-.7256.3926-1.0698.2627-.3438.6182-.6162,1.0664-.8169.4492-.2002.9424-.3008,1.4805-.3008.8516,0,1.5195.2134,2.0029.6392.4824.4263.7334,1.0132.752,1.7603v3.4043c0,.6792.0859,1.2192.2598,1.6201v.1094h-1.3262Zm-2.0986-.9639c.3965,0,.7725-.1025,1.1279-.3076s.6123-.4717.7725-.7998v-1.5176h-.9912c-1.5498,0-2.3242.4536-2.3242,1.3604,0,.3965.1318.7065.3965.9297.2637.2236.6035.335,1.0186.335Zm1.1689-9.5361h1.5312l-1.832,2.0098-1.0186-.0034,1.3193-2.0063Z" fill="#55555c"/>
    <path d="m208.277,48.3079l1.0254-1.1621h1.0938v.0684l-1.7363,1.873h-.7725l-1.7158-1.873v-.0684h1.0732l1.0322,1.1621Zm1.75,3.0762c-.1914-.0317-.3994-.0479-.6221-.0479-.8301,0-1.3926.3535-1.6885,1.0596v5.25h-1.2646v-7.3965h1.2305l.0205.8545c.4141-.6606,1.002-.9912,1.7637-.9912.2461,0,.4326.0322.5605.0957v1.1758Z" fill="#55555c"/>
    <path d="m211.1959,48.2874c0-.2051.0625-.3779.1875-.5195.126-.1411.3115-.2119.5576-.2119s.4326.0708.5605.2119c.127.1416.1914.3145.1914.5195s-.0645.376-.1914.5127c-.1279.1367-.3145.2051-.5605.2051s-.4316-.0684-.5576-.2051c-.125-.1367-.1875-.3076-.1875-.5127Zm1.3672,9.3584h-1.2646v-7.3965h1.2646v7.3965Z" fill="#55555c"/>
    <path d="m219.2418,56.6136h4.3271v1.0322h-5.8721v-.9297l4.0811-5.4209h-4.0195v-1.0459h5.6055v.8955l-4.1221,5.4688Z" fill="#55555c"/>
    <path d="m232.0319,51.3841c-.1914-.0317-.3994-.0479-.6221-.0479-.8301,0-1.3926.3535-1.6885,1.0596v5.25h-1.2646v-7.3965h1.2305l.0205.8545c.4141-.6606,1.002-.9912,1.7637-.9912.2461,0,.4326.0322.5605.0957v1.1758Z" fill="#55555c"/>
    <path d="m232.7223,53.8792c0-.7246.1426-1.376.4268-1.9551.2852-.5786.6816-1.0254,1.1895-1.3398.5088-.3145,1.0879-.4717,1.7402-.4717,1.0068,0,1.8213.3486,2.4434,1.0459s.9336,1.625.9336,2.7822v.0889c0,.7202-.1377,1.3662-.4141,1.938-.2754.5723-.6699,1.0176-1.1826,1.3364-.5127.3193-1.1016.4785-1.7666.4785-1.0029,0-1.8154-.3486-2.4375-1.0459s-.9326-1.6201-.9326-2.7686v-.0889Zm1.2715.1504c0,.8203.1904,1.479.5703,1.9756.3809.4971.8896.7451,1.5283.7451.6426,0,1.1523-.2515,1.5312-.7554.3779-.5034.5674-1.2085.5674-2.1157,0-.811-.1924-1.4683-.5781-1.9722-.3848-.5034-.8965-.7554-1.5342-.7554-.625,0-1.1279.2485-1.5107.7451-.3828.4971-.5742,1.208-.5742,2.1328Z" fill="#55555c"/>
    <path d="m243.1061,54.221l-.793.8271v2.5977h-1.2646v-10.5h1.2646v6.3506l.6768-.8135,2.3037-2.4336h1.5381l-2.8779,3.0898,3.2129,4.3066h-1.4834l-2.5771-3.4248Z" fill="#55555c"/>
    <path d="m252.7038,56.9144c-.4922.5791-1.2148.8682-2.167.8682-.7891,0-1.3887-.229-1.8018-.687-.4121-.458-.6211-1.1357-.625-2.0337v-4.8125h1.2646v4.7783c0,1.1211.4551,1.6816,1.3672,1.6816.9658,0,1.6084-.3599,1.9277-1.0801v-5.3799h1.2646v7.3965h-1.2031l-.0273-.7314Z" fill="#55555c"/>
    <path d="m265.7126,57.6458h-6.5215v-.9092l3.4453-3.8281c.5098-.5786.8623-1.0493,1.0557-1.4116.1943-.3623.291-.7368.291-1.1245,0-.5195-.1572-.9453-.4717-1.2783-.3145-.3325-.7344-.499-1.2578-.499-.6289,0-1.1182.1792-1.4668.5366-.3486.3579-.5225.856-.5225,1.4937h-1.2646c0-.916.2949-1.6562.8848-2.2217.5908-.5649,1.3799-.8477,2.3691-.8477.9248,0,1.6562.2427,2.1943.728.5371.4854.8066,1.1313.8066,1.938,0,.98-.625,2.1465-1.873,3.5l-2.666,2.8916h4.9971v1.0322Z" fill="#55555c"/>
    <path d="m273.2936,53.4007c0,1.4814-.2529,2.582-.7588,3.3018-.5059.7202-1.2969,1.0801-2.3721,1.0801-1.0625,0-1.8486-.3521-2.3584-1.0562-.5107-.7041-.7754-1.7554-.793-3.1548v-1.6885c0-1.4629.2529-2.5498.7588-3.2607s1.2988-1.0664,2.3789-1.0664c1.0703,0,1.8594.3433,2.3652,1.0288.5059.686.7656,1.7446.7793,3.1753v1.6406Zm-1.2646-1.7295c0-1.0708-.1504-1.8511-.4512-2.3413-.3008-.4897-.7773-.7349-1.4287-.7349-.6475,0-1.1191.2441-1.415.7314-.2969.4878-.4492,1.2373-.458,2.249v2.0234c0,1.0757.1562,1.8696.4678,2.3823.3125.5127.7852.769,1.4189.769.624,0,1.0879-.2412,1.3906-.7246.3037-.4829.4619-1.2441.4756-2.2832v-2.0713Z" fill="#55555c"/>
    <path d="m281.4352,57.6458h-6.5215v-.9092l3.4453-3.8281c.5098-.5786.8623-1.0493,1.0557-1.4116.1943-.3623.291-.7368.291-1.1245,0-.5195-.1572-.9453-.4717-1.2783-.3145-.3325-.7344-.499-1.2578-.499-.6289,0-1.1182.1792-1.4668.5366-.3486.3579-.5225.856-.5225,1.4937h-1.2646c0-.916.2949-1.6562.8848-2.2217.5908-.5649,1.3799-.8477,2.3691-.8477.9248,0,1.6562.2427,2.1943.728.5371.4854.8066,1.1313.8066,1.938,0,.98-.625,2.1465-1.873,3.5l-2.666,2.8916h4.9971v1.0322Z" fill="#55555c"/>
    <path d="m289.0163,53.4007c0,1.4814-.2529,2.582-.7588,3.3018-.5059.7202-1.2969,1.0801-2.3721,1.0801-1.0625,0-1.8486-.3521-2.3584-1.0562-.5107-.7041-.7754-1.7554-.793-3.1548v-1.6885c0-1.4629.2529-2.5498.7588-3.2607s1.2988-1.0664,2.3789-1.0664c1.0703,0,1.8594.3433,2.3652,1.0288.5059.686.7656,1.7446.7793,3.1753v1.6406Zm-1.2646-1.7295c0-1.0708-.1504-1.8511-.4512-2.3413-.3008-.4897-.7773-.7349-1.4287-.7349-.6475,0-1.1191.2441-1.415.7314-.2969.4878-.4492,1.2373-.458,2.249v2.0234c0,1.0757.1562,1.8696.4678,2.3823.3125.5127.7852.769,1.4189.769.624,0,1.0879-.2412,1.3906-.7246.3037-.4829.4619-1.2441.4756-2.2832v-2.0713Z" fill="#55555c"/>
  </g>
  <g>
    <rect x="213.6312" y="206.4259" width="102.5666" height="27.6919" fill="#fff"/>
    <g>
      <path d="m272.6364,214.4891c-.5146.5059-1.1162.7588-1.8047.7588-.8789,0-1.583-.3018-2.1123-.9058-.5283-.604-.793-1.4185-.793-2.4438,0-.6519.1426-1.25.4277-1.7944.2842-.5444.6826-.9683,1.1924-1.2715.5107-.3032,1.085-.4546,1.7227-.4546.6562,0,1.2402.1641,1.75.4922.5107.3281.9072.7998,1.1895,1.415.2832.6152.4268,1.3193.4307,2.1123v.7314c0,1.6587-.4121,2.9624-1.2373,3.9102-.8242.9478-1.9932,1.4536-3.5068,1.5176l-.4854.0068v-1.6475l.4375-.0068c1.7188-.0776,2.6484-.8843,2.7891-2.4199Zm-1.3193-.752c.3193,0,.5938-.082.8242-.2461.2295-.1641.4043-.3623.5225-.5947v-.8135c0-.6699-.127-1.1895-.3828-1.5586-.2549-.3691-.5967-.5537-1.0254-.5537-.3965,0-.7217.1812-.9775.5435-.2549.3623-.3828.8169-.3828,1.3638,0,.5425.124.9878.373,1.3364.248.3486.5977.5229,1.0488.5229Z" fill="#aaaaad"/>
      <path d="m280.6686,214.4891c-.5146.5059-1.1162.7588-1.8047.7588-.8789,0-1.583-.3018-2.1123-.9058-.5283-.604-.793-1.4185-.793-2.4438,0-.6519.1426-1.25.4277-1.7944.2842-.5444.6826-.9683,1.1924-1.2715.5107-.3032,1.085-.4546,1.7227-.4546.6562,0,1.2402.1641,1.75.4922.5107.3281.9072.7998,1.1895,1.415.2832.6152.4268,1.3193.4307,2.1123v.7314c0,1.6587-.4121,2.9624-1.2373,3.9102-.8242.9478-1.9932,1.4536-3.5068,1.5176l-.4854.0068v-1.6475l.4375-.0068c1.7188-.0776,2.6484-.8843,2.7891-2.4199Zm-1.3193-.752c.3193,0,.5938-.082.8242-.2461.2295-.1641.4043-.3623.5225-.5947v-.8135c0-.6699-.127-1.1895-.3828-1.5586-.2549-.3691-.5967-.5537-1.0254-.5537-.3965,0-.7217.1812-.9775.5435-.2549.3623-.3828.8169-.3828,1.3638,0,.5425.124.9878.373,1.3364.248.3486.5977.5229,1.0488.5229Z" fill="#aaaaad"/>
      <path d="m290.779,214.3524c0,1.3765-.2842,2.4292-.8545,3.1582-.5693.729-1.4033,1.0938-2.502,1.0938-1.084,0-1.9141-.3579-2.4883-1.0732s-.8682-1.7407-.8818-3.0762v-1.832c0-1.3901.2881-2.4448.8652-3.165.5762-.7202,1.4072-1.0801,2.4912-1.0801,1.085,0,1.9141.3564,2.4883,1.0698s.8682,1.7373.8818,3.0728v1.832Zm-1.9756-2.0142c0-.8257-.1123-1.4268-.3379-1.8032s-.5781-.5645-1.0566-.5645c-.4648,0-.8076.1792-1.0283.5371-.2217.3584-.3389.918-.3525,1.6797v2.4224c0,.812.1104,1.4155.332,1.8101.2207.3945.5752.5918,1.0625.5918.4834,0,.832-.1895,1.0459-.5679.2148-.3784.3262-.958.335-1.7383v-2.3672Z" fill="#aaaaad"/>
      <path d="m297.861,214.9608v3.5068h-2.0508v-9.9531h3.8828c.748,0,1.4053.1367,1.9727.4102s1.0039.6621,1.3086,1.1655c.3057.5034.458,1.0767.458,1.7192,0,.9751-.334,1.7441-1.001,2.3071-.668.563-1.5918.8442-2.7725.8442h-1.7979Zm0-1.6611h1.832c.543,0,.9561-.1274,1.2412-.3828.2842-.2554.4268-.6196.4268-1.0938,0-.4878-.1436-.8818-.4307-1.1826s-.6836-.4556-1.1895-.4648h-1.8799v3.124Z" fill="#aaaaad"/>
      <path d="m307.5954,208.5145h2.0508v6.8906c0,.6333-.1396,1.1929-.4199,1.6782s-.6758.8604-1.1865,1.1245c-.5098.2642-1.0869.3965-1.7295.3965-1.0527,0-1.873-.2676-2.4609-.8032s-.8818-1.293-.8818-2.2729h2.0645c0,.4878.1025.8477.3076,1.0801s.5293.3486.9707.3486c.3926,0,.7041-.1343.9365-.4033s.3486-.6519.3486-1.1484v-6.8906Z" fill="#aaaaad"/>
      <path d="m227.6803,232.8675h-1.1309l-4.2949-6.5742v6.5742h-1.1309v-8.5312h1.1309l4.3066,6.6035v-6.6035h1.1191v8.5312Z" fill="#aaaaad"/>
      <path d="m232.1393,232.9847c-.8594,0-1.5586-.2822-2.0977-.8467s-.8086-1.3193-.8086-2.2646v-.1992c0-.6289.1201-1.1904.3604-1.6846s.5762-.8809,1.0078-1.1602.8994-.4189,1.4033-.4189c.8242,0,1.4648.2715,1.9219.8145s.6855,1.3203.6855,2.332v.4512h-4.2949c.0156.625.1982,1.1299.5479,1.5146s.7939.5771,1.333.5771c.3828,0,.707-.0781.9727-.2344s.498-.3633.6973-.6211l.6621.5156c-.5312.8164-1.3281,1.2246-2.3906,1.2246Zm-.1348-5.6836c-.4375,0-.8047.1592-1.1016.4775s-.4805.7646-.5508,1.3389h3.1758v-.082c-.0312-.5508-.1797-.9775-.4453-1.2803s-.625-.4541-1.0781-.4541Z" fill="#aaaaad"/>
      <path d="m239.7799,232.8675c-.0625-.125-.1133-.3477-.1523-.668-.5039.5234-1.1055.7852-1.8047.7852-.625,0-1.1377-.1768-1.5381-.5303s-.6006-.8018-.6006-1.3447c0-.6602.251-1.1729.7529-1.5381s1.208-.5479,2.1182-.5479h1.0547v-.498c0-.3789-.1133-.6807-.3398-.9053s-.5605-.3369-1.002-.3369c-.3867,0-.7109.0977-.9727.293s-.3926.4316-.3926.709h-1.0898c0-.3164.1123-.6221.3369-.917s.5293-.5283.9141-.7002.8076-.2578,1.2686-.2578c.7305,0,1.3027.1826,1.7168.5479s.6289.8682.6445,1.5088v2.918c0,.582.0742,1.0449.2227,1.3887v.0938h-1.1367Zm-1.7988-.8262c.3398,0,.6621-.0879.9668-.2637s.5254-.4043.6621-.6855v-1.3008h-.8496c-1.3281,0-1.9922.3887-1.9922,1.166,0,.3398.1133.6055.3398.7969s.5176.2871.873.2871Z" fill="#aaaaad"/>
      <path d="m244.1627,229.932l-.6797.709v2.2266h-1.084v-9h1.084v5.4434l.5801-.6973,1.9746-2.0859h1.3184l-2.4668,2.6484,2.7539,3.6914h-1.2715l-2.209-2.9355Z" fill="#aaaaad"/>
      <path d="m249.9459,224.9925v1.5352h1.1836v.8379h-1.1836v3.9365c0,.2544.0527.4448.1582.5723.1055.127.2852.1904.5391.1904.125,0,.2969-.0234.5156-.0703v.874c-.2852.0771-.5625.1162-.832.1162-.4844,0-.8496-.1465-1.0957-.4395s-.3691-.709-.3691-1.248v-3.9316h-1.1543v-.8379h1.1543v-1.5352h1.084Z" fill="#aaaaad"/>
      <path d="m256.3092,232.2405c-.4219.4961-1.041.7441-1.8574.7441-.6758,0-1.1904-.1963-1.5439-.5889s-.5322-.9736-.5361-1.7432v-4.125h1.084v4.0957c0,.9609.3906,1.4414,1.1719,1.4414.8281,0,1.3789-.3086,1.6523-.9258v-4.6113h1.084v6.3398h-1.0312l-.0234-.627Z" fill="#aaaaad"/>
      <path d="m262.9245,232.8675c-.0625-.125-.1133-.3477-.1523-.668-.5039.5234-1.1055.7852-1.8047.7852-.625,0-1.1377-.1768-1.5381-.5303s-.6006-.8018-.6006-1.3447c0-.6602.251-1.1729.7529-1.5381s1.208-.5479,2.1182-.5479h1.0547v-.498c0-.3789-.1133-.6807-.3398-.9053s-.5605-.3369-1.002-.3369c-.3867,0-.7109.0977-.9727.293s-.3926.4316-.3926.709h-1.0898c0-.3164.1123-.6221.3369-.917s.5293-.5283.9141-.7002.8076-.2578,1.2686-.2578c.7305,0,1.3027.1826,1.7168.5479s.6289.8682.6445,1.5088v2.918c0,.582.0742,1.0449.2227,1.3887v.0938h-1.1367Zm-1.7988-.8262c.3398,0,.6621-.0879.9668-.2637s.5254-.4043.6621-.6855v-1.3008h-.8496c-1.3281,0-1.9922.3887-1.9922,1.166,0,.3398.1133.6055.3398.7969s.5176.2871.873.2871Zm1.002-8.1738h1.3125l-1.5703,1.7227-.873-.0029,1.1309-1.7197Z" fill="#aaaaad"/>
      <path d="m266.7155,232.8675h-1.084v-9h1.084v9Z" fill="#aaaaad"/>
      <path d="m269.4752,226.5277l.0352.7969c.4844-.6094,1.1172-.9141,1.8984-.9141,1.3398,0,2.0156.7559,2.0273,2.2676v4.1895h-1.084v-4.1953c-.0039-.457-.1084-.7949-.3135-1.0137s-.5244-.3281-.958-.3281c-.3516,0-.6602.0938-.9258.2812s-.4727.4336-.6211.7383v4.5176h-1.084v-6.3398h1.0254Z" fill="#aaaaad"/>
      <path d="m276.2604,223.8734h1.3125l-1.5703,1.7227-.873-.0029,1.1309-1.7197Zm-.0117,8.9941h-1.0898v-6.3398h1.0898v6.3398Z" fill="#aaaaad"/>
      <path d="m283.5495,232.0999c.3867,0,.7246-.1172,1.0137-.3516s.4492-.5273.4805-.8789h1.0254c-.0195.3633-.1445.709-.375,1.0371s-.5381.5898-.9229.7852-.792.293-1.2217.293c-.8633,0-1.5498-.2881-2.0596-.8643s-.7646-1.3643-.7646-2.3643v-.1816c0-.6172.1133-1.166.3398-1.6465s.5518-.8535.9756-1.1191.9248-.3984,1.5029-.3984c.7109,0,1.3018.2129,1.7725.6387s.7217.9785.7529,1.6582h-1.0254c-.0312-.4102-.1865-.7471-.4658-1.0107s-.624-.3955-1.0342-.3955c-.5508,0-.9775.1982-1.2803.5947s-.4541.9697-.4541,1.7197v.2051c0,.7305.1504,1.293.4512,1.6875s.7305.5918,1.2891.5918Z" fill="#aaaaad"/>
      <path d="m288.4772,223.8734h1.3125l-1.5703,1.7227-.873-.0029,1.1309-1.7197Zm-.0117,8.9941h-1.0898v-6.3398h1.0898v6.3398Z" fill="#aaaaad"/>
      <path d="m291.4303,232.8675h-1.084v-9h1.084v9Z" fill="#aaaaad"/>
      <path d="m302.5807,230.1605c-.1055.9023-.4385,1.5986-.999,2.0889s-1.3057.7354-2.2354.7354c-1.0078,0-1.8154-.3613-2.4229-1.084s-.9111-1.6895-.9111-2.9004v-.8203c0-.793.1416-1.4902.4248-2.0918s.6846-1.0635,1.2041-1.3857,1.1211-.4834,1.8047-.4834c.9062,0,1.6328.2529,2.1797.7588s.8652,1.2061.9551,2.1006h-1.1309c-.0977-.6816-.3096-1.1753-.6357-1.481s-.7822-.4585-1.3682-.4585c-.7188,0-1.2822.2656-1.6904.7979-.4082.5312-.6123,1.2881-.6123,2.269v.8271c0,.9263.1934,1.6636.5801,2.2109s.9277.8208,1.623.8208c.625,0,1.1045-.1416,1.4385-.4248s.5557-.7764.665-1.4795h1.1309Zm-3.293-7.3066l.8789-.9961h.9375v.0586l-1.4883,1.6055h-.6621l-1.4707-1.6055v-.0586h.9199l.8848.9961Z" fill="#aaaaad"/>
      <path d="m307.2448,229.4163h-2.0039v3.4512h-1.1309v-8.5312h2.8242c.9609,0,1.7002.2188,2.2178.6562s.7764,1.0742.7764,1.9102c0,.5312-.1436.9941-.4307,1.3887s-.6865.6895-1.1982.8848l2.0039,3.6211v.0703h-1.207l-1.8516-3.4512Zm-2.0039-.9199h1.7285c.5586,0,1.0029-.1445,1.333-.4346.3301-.2896.4951-.6768.4951-1.1621,0-.5283-.1572-.9331-.4717-1.2148s-.7686-.4248-1.3623-.4287h-1.7227v3.2402Z" fill="#aaaaad"/>
    </g>
  </g>
  <path d="m43.1773,335.1393h259.9506" fill="none" stroke="#ccc" stroke-miterlimit="10" stroke-width=".5"/>
  <path d="m43.1773,121.7889h259.9506" fill="none" stroke="#ccc" stroke-miterlimit="10" stroke-width=".5"/>
  <circle cx="303.1606" cy="194.3155" r="10.5349" fill="#fff"/>
  <circle cx="303.1606" cy="194.3155" r="5.9997" fill="#fff" stroke="#aaaaad" stroke-miterlimit="10"/>
  <rect x="36.4659" y="114.5197" width="57.5433" height="17.078" fill="#fff"/>
  <g>
    <path d="m44.2067,122.5277c0,.9648-.2207,1.7422-.6621,2.332s-1.0391.8848-1.793.8848c-.7695,0-1.375-.2441-1.8164-.7324v3.0527h-1.084v-8.7773h.9902l.0527.7031c.4414-.5469,1.0547-.8203,1.8398-.8203.7617,0,1.3643.2871,1.8076.8613s.665,1.373.665,2.3965v.0996Zm-1.084-.123c0-.7148-.1523-1.2793-.457-1.6934s-.7227-.6211-1.2539-.6211c-.6562,0-1.1484.291-1.4766.873v3.0293c.3242.5781.8203.8672,1.4883.8672.5195,0,.9326-.2061,1.2393-.6182s.46-1.0244.46-1.8369Z" fill="#929497"/>
    <path d="m48.2145,125.7445c-.8594,0-1.5586-.2822-2.0977-.8467s-.8086-1.3193-.8086-2.2646v-.1992c0-.6289.1201-1.1904.3604-1.6846s.5762-.8809,1.0078-1.1602.8994-.4189,1.4033-.4189c.8242,0,1.4648.2715,1.9219.8145s.6855,1.3203.6855,2.332v.4512h-4.2949c.0156.625.1982,1.1299.5479,1.5146s.7939.5771,1.333.5771c.3828,0,.707-.0781.9727-.2344s.498-.3633.6973-.6211l.6621.5156c-.5312.8164-1.3281,1.2246-2.3906,1.2246Zm-.1348-5.6836c-.4375,0-.8047.1592-1.1016.4775s-.4805.7646-.5508,1.3389h3.1758v-.082c-.0312-.5508-.1797-.9775-.4453-1.2803s-.625-.4541-1.0781-.4541Z" fill="#929497"/>
    <path d="m53.4118,117.7523v1.5352h1.1836v.8379h-1.1836v3.9365c0,.2544.0527.4448.1582.5723.1055.127.2852.1904.5391.1904.125,0,.2969-.0234.5156-.0703v.874c-.2852.0771-.5625.1162-.832.1162-.4844,0-.8496-.1465-1.0957-.4395s-.3691-.709-.3691-1.248v-3.9316h-1.1543v-.8379h1.1543v-1.5352h1.084Z" fill="#929497"/>
    <path d="m59.7751,125.6273c-.0625-.125-.1133-.3477-.1523-.668-.5039.5234-1.1055.7852-1.8047.7852-.625,0-1.1377-.1768-1.5381-.5303s-.6006-.8018-.6006-1.3447c0-.6602.251-1.1729.7529-1.5381s1.208-.5479,2.1182-.5479h1.0547v-.498c0-.3789-.1133-.6807-.3398-.9053s-.5605-.3369-1.002-.3369c-.3867,0-.7109.0977-.9727.293s-.3926.4316-.3926.709h-1.0898c0-.3164.1123-.6221.3369-.917s.5293-.5283.9141-.7002.8076-.2578,1.2686-.2578c.7305,0,1.3027.1826,1.7168.5479s.6289.8682.6445,1.5088v2.918c0,.582.0742,1.0449.2227,1.3887v.0938h-1.1367Zm-1.7988-.8262c.3398,0,.6621-.0879.9668-.2637s.5254-.4043.6621-.6855v-1.3008h-.8496c-1.3281,0-1.9922.3887-1.9922,1.166,0,.3398.1133.6055.3398.7969s.5176.2871.873.2871Z" fill="#929497"/>
    <path d="m63.5075,119.2874v7.0723c0,1.2188-.5527,1.8281-1.6582,1.8281-.2383,0-.459-.0352-.6621-.105v-.8618c.125.0312.2891.0469.4922.0469.2422,0,.4268-.0654.5537-.1963s.1904-.3589.1904-.6831v-7.1011h1.084Zm-1.1953-1.6816c0-.1719.0537-.3193.1611-.4424s.2646-.1846.4717-.1846c.2109,0,.3711.0605.4805.1816s.1641.2695.1641.4453-.0547.3223-.1641.4395-.2695.1758-.4805.1758-.3691-.0586-.4746-.1758-.1582-.2637-.1582-.4395Z" fill="#929497"/>
    <path d="m64.9665,122.3988c0-.6211.1221-1.1797.3662-1.6758s.584-.8789,1.0195-1.1484.9326-.4043,1.4912-.4043c.8633,0,1.5615.2988,2.0947.8965s.7998,1.3926.7998,2.3848v.0762c0,.6172-.1182,1.1709-.3545,1.6611s-.5742.8721-1.0137,1.1455-.9443.4102-1.5146.4102c-.8594,0-1.5557-.2988-2.0889-.8965s-.7998-1.3887-.7998-2.373v-.0762Zm1.0898.1289c0,.7031.1631,1.2676.4893,1.6934s.7627.6387,1.3096.6387c.5508,0,.9883-.2158,1.3125-.6475s.4863-1.0361.4863-1.8135c0-.6953-.165-1.2588-.4951-1.6904s-.7686-.6475-1.3154-.6475c-.5352,0-.9668.2129-1.2949.6387s-.4922,1.0352-.4922,1.8281Z" fill="#929497"/>
    <path d="m76.0114,125.0003c-.4219.4961-1.041.7441-1.8574.7441-.6758,0-1.1904-.1963-1.5439-.5889s-.5322-.9736-.5361-1.7432v-4.125h1.084v4.0957c0,.9609.3906,1.4414,1.1719,1.4414.8281,0,1.3789-.3086,1.6523-.9258v-4.6113h1.084v6.3398h-1.0312l-.0234-.627Z" fill="#929497"/>
    <path d="m79.8903,125.6273h-1.084v-9h1.084v9Z" fill="#929497"/>
    <path d="m85.5387,125.0003c-.4219.4961-1.041.7441-1.8574.7441-.6758,0-1.1904-.1963-1.5439-.5889s-.5322-.9736-.5361-1.7432v-4.125h1.084v4.0957c0,.9609.3906,1.4414,1.1719,1.4414.8281,0,1.3789-.3086,1.6523-.9258v-4.6113h1.084v6.3398h-1.0312l-.0234-.627Zm-.1523-7.6875c0,.3398-.1211.624-.3633.8525s-.541.3428-.8965.3428c-.3594,0-.6592-.1152-.8994-.3457s-.3604-.5137-.3604-.8496.1201-.623.3604-.8613.54-.3574.8994-.3574.6592.1191.8994.3574.3604.5254.3604.8613Zm-1.9395,0c0,.1836.0654.3418.1963.4746s.292.1992.4834.1992c.1875,0,.3477-.0645.4805-.1934s.1992-.2891.1992-.4805-.0654-.3545-.1963-.4893-.292-.2021-.4834-.2021c-.1953,0-.3574.0684-.4863.2051s-.1934.2988-.1934.4863Z" fill="#929497"/>
  </g>
  <g>
    <rect x="65.8835" y="143.3796" width="65.6226" height="20.3328" fill="#fff"/>
    <g>
      <path d="m80.5026,158.5872c0-.332-.1172-.5869-.3516-.7646s-.6562-.3652-1.2656-.5625-1.0918-.3916-1.4473-.583c-.9688-.5234-1.4531-1.2285-1.4531-2.1152,0-.4609.1299-.8721.3896-1.2334s.6328-.6436,1.1191-.8467,1.0322-.3047,1.6377-.3047c.6094,0,1.1523.1104,1.6289.3311s.8467.5322,1.1104.9346.3955.8594.3955,1.3711h-1.7578c0-.3906-.123-.6943-.3691-.9111s-.5918-.3252-1.0371-.3252c-.4297,0-.7637.0908-1.002.2725s-.3574.4209-.3574.7178c0,.2773.1396.5098.4189.6973s.6904.3633,1.2334.5273c1,.3008,1.7285.6738,2.1855,1.1191s.6855,1,.6855,1.6641c0,.7383-.2793,1.3174-.8379,1.7373s-1.3105.6299-2.2559.6299c-.6562,0-1.2539-.1201-1.793-.3604s-.9502-.5693-1.2334-.9873-.4248-.9023-.4248-1.4531h1.7637c0,.9414.5625,1.4121,1.6875,1.4121.418,0,.7441-.085.9785-.2549s.3516-.4072.3516-.7119Z" fill="#0032a1"/>
      <path d="m85.3717,152.9271v1.5586h1.084v1.2422h-1.084v3.1641c0,.2344.0449.4023.1348.5039s.2617.1523.5156.1523c.1875,0,.3535-.0137.498-.041v1.2832c-.332.1016-.6738.1523-1.0254.1523-1.1875,0-1.793-.5996-1.8164-1.7988v-3.416h-.9258v-1.2422h.9258v-1.5586h1.6934Z" fill="#0032a1"/>
      <path d="m91.0729,160.8255c-.0781-.1523-.1348-.3418-.1699-.5684-.4102.457-.9434.6855-1.5996.6855-.6211,0-1.1357-.1797-1.5439-.5391s-.6123-.8125-.6123-1.3594c0-.6719.249-1.1875.7471-1.5469s1.2178-.541,2.1592-.5449h.7793v-.3633c0-.293-.0752-.5273-.2256-.7031s-.3877-.2637-.7119-.2637c-.2852,0-.5088.0684-.6709.2051s-.2432.3242-.2432.5625h-1.6934c0-.3672.1133-.707.3398-1.0195s.5469-.5576.9609-.7354.8789-.2666,1.3945-.2666c.7812,0,1.4014.1963,1.8604.5889s.6885.9443.6885,1.6553v2.748c.0039.6016.0879,1.0566.252,1.3652v.0996h-1.7109Zm-1.4004-1.1777c.25,0,.4805-.0557.6914-.167s.3672-.2607.4688-.4482v-1.0898h-.6328c-.8477,0-1.2988.293-1.3535.8789l-.0059.0996c0,.2109.0742.3848.2227.5215s.3516.2051.6094.2051Z" fill="#0032a1"/>
      <path d="m96.1178,158.7572l1.1777-4.2715h1.7695l-2.1387,6.3398h-1.6172l-2.1387-6.3398h1.7695l1.1777,4.2715Z" fill="#0032a1"/>
      <path d="m105.1706,158.7572l1.1777-4.2715h1.7695l-2.1387,6.3398h-1.6172l-2.1387-6.3398h1.7695l1.1777,4.2715Z" fill="#0032a1"/>
      <path d="m118.6588,157.9837c-.0664.918-.4053,1.6406-1.0166,2.168s-1.417.791-2.417.791c-1.0938,0-1.9541-.3682-2.5811-1.1045s-.9404-1.7471-.9404-3.0322v-.5215c0-.8203.1445-1.543.4336-2.168s.7021-1.1045,1.2393-1.4385,1.1611-.501,1.8721-.501c.9844,0,1.7773.2637,2.3789.791s.9492,1.2676,1.043,2.2207h-1.7578c-.043-.5508-.1963-.9502-.46-1.1982s-.665-.3721-1.2041-.3721c-.5859,0-1.0244.21-1.3154.6299s-.4404,1.0713-.4482,1.9541v.6445c0,.9219.1396,1.5957.4189,2.0215s.7197.6387,1.3213.6387c.543,0,.9482-.124,1.2158-.3721s.4209-.6318.46-1.1514h1.7578Zm-3.4277-7.1895l.8555-.8379h1.4473v.0645l-1.7695,1.6465h-1.0723l-1.7695-1.6582v-.0527h1.4473l.8613.8379Z" fill="#0032a1"/>
      <path d="m122.9713,157.7025h-1.4004v3.123h-1.7578v-8.5312h3.1699c1.0078,0,1.7852.2246,2.332.6738s.8203,1.084.8203,1.9043c0,.582-.126,1.0674-.3779,1.4561s-.6338.6982-1.1455.9287l1.8457,3.4863v.082h-1.8867l-1.5996-3.123Zm-1.4004-1.4238h1.418c.4414,0,.7832-.1123,1.0254-.3369s.3633-.5342.3633-.9287c0-.4023-.1143-.7188-.3428-.9492s-.5791-.3457-1.0518-.3457h-1.4121v2.5605Z" fill="#0032a1"/>
    </g>
  </g>
  <g>
    <polyline points="43.1773 136.9298 49.5983 160.3787 56.0193 162.9078 62.4404 168.0191 68.8614 180.994 75.2824 183.1517 81.7034 180.1217 88.1244 182.5875 94.5454 189.7191 100.9664 196.2603 107.3875 191.1744 113.8085 187.3968 120.2295 191.9849 126.6505 183.9801 133.0715 182.753 139.4925 184.3934 145.9136 182.3914 152.3346 186.4774 158.7556 186.5936 165.1766 192.6524 171.5976 190.192 178.0186 196.1129 184.4396 196.1947 190.8607 197.6658 197.2817 202.8443 203.7027 197.9022 210.1237 193.4097 216.5447 187.7435 222.9657 189.6649 229.3868 189.3887 235.8078 192.8724 240.9188 182.9639" fill="none" stroke="#0032a1" stroke-linecap="round" stroke-miterlimit="10" stroke-width="2"/>
    <path d="m243.523,184.4766c.7614-1.4763.1819-3.2908-1.2942-4.052-1.4761-.7615-3.2906-.1819-4.052,1.2942-.7614,1.4761-.1819,3.2905,1.2943,4.052,1.4761.7615,3.2906.1819,4.052-1.2942Z" fill="#0032a1"/>
  </g>
  <rect x="194.3556" y="159.1181" width="81.0709" height="12.6614" fill="#fff"/>
  <g>
    <path d="m221.484,173.7137h-1.9756v-7.6152l-2.3584.7314v-1.6064l4.1221-1.4766h.2119v9.9668Z" fill="#0032a1"/>
    <path d="m234.903,169.5985c0,1.3765-.2852,2.4292-.8545,3.1582-.5703.7292-1.4043,1.0938-2.502,1.0938-1.085,0-1.9141-.3577-2.4883-1.0732-.5742-.7153-.8682-1.7407-.8818-3.0762v-1.832c0-1.3899.2881-2.4448.8643-3.165.5771-.72,1.4072-1.0801,2.4922-1.0801,1.084,0,1.9141.3567,2.4883,1.0698.5742.7134.8682,1.7375.8818,3.0728v1.832Zm-1.9756-2.0142c0-.8257-.1133-1.4268-.3389-1.8032-.2256-.3762-.5771-.5645-1.0557-.5645-.4648,0-.8076.1792-1.0293.5371-.2207.3582-.3379.918-.3516,1.6799v2.4221c0,.812.1104,1.4155.3311,1.8101.2217.3945.5752.5918,1.0635.5918.4824,0,.8311-.1892,1.0459-.5679.2139-.3787.3252-.958.335-1.738v-2.3674Z" fill="#0032a1"/>
    <path d="m241.5954,163.658v1.627h-.1914c-.8936.0137-1.6123.2461-2.1572.6973-.5439.4512-.8711,1.0779-.9805,1.8799.5283-.5376,1.1963-.8066,2.0029-.8066.8652,0,1.5537.3101,2.0645.9297.5098.6199.7656,1.4355.7656,2.4473,0,.6472-.1406,1.2329-.4209,1.7568-.2803.5242-.6768.9321-1.1895,1.2236-.5127.2917-1.0928.4375-1.7393.4375-1.0488,0-1.8945-.3645-2.54-1.0938-.6445-.729-.9668-1.7021-.9668-2.9189v-.7109c0-1.0801.2041-2.0337.6113-2.8608.4082-.8271.9941-1.4673,1.7568-1.9209.7637-.4534,1.6484-.6824,2.6562-.687h.3281Zm-1.9277,4.9902c-.3193,0-.6084.083-.8682.249s-.4512.3855-.5742.6584v.6003c0,.6597.1299,1.1748.3896,1.5454.2598.3708.624.5562,1.0938.5562.4238,0,.7666-.1672,1.0283-.5015.2627-.3342.3936-.7676.3936-1.2998,0-.5413-.1328-.978-.3965-1.3101-.2646-.332-.6201-.498-1.0664-.498Z" fill="#0032a1"/>
    <path d="m250.1129,169.9676h1.1279v1.5928h-1.1279v2.1533h-1.9756v-2.1533h-4.0811l-.0889-1.2441,4.1494-6.5557h1.9961v6.207Zm-4.1768,0h2.2012v-3.5137l-.1299.2256-2.0713,3.2881Z" fill="#0032a1"/>
    <path d="m258.0495,170.2069v3.5068h-2.0508v-9.9531h3.8828c.7471,0,1.4043.1367,1.9717.4102s1.0039.6621,1.3096,1.1655c.3047.5037.458,1.0767.458,1.7192,0,.9753-.334,1.7444-1.002,2.3071-.667.563-1.5918.8442-2.7715.8442h-1.7979Zm0-1.6611h1.832c.542,0,.9561-.1274,1.2402-.3828.2852-.2551.4277-.6196.4277-1.0938,0-.4875-.1436-.8818-.4307-1.1826s-.6836-.4556-1.1895-.4648h-1.8799v3.124Z" fill="#0032a1"/>
    <path d="m267.7838,163.7606h2.0508v6.8906c0,.6335-.1406,1.1929-.4209,1.6782s-.6758.8604-1.1855,1.1245c-.5107.2642-1.0869.3965-1.7295.3965-1.0527,0-1.873-.2676-2.4609-.8032-.5879-.5354-.8818-1.293-.8818-2.2729h2.0645c0,.4878.1025.8477.3076,1.0801s.5283.3486.9707.3486c.3916,0,.7041-.1343.9365-.4033.2324-.2688.3486-.6516.3486-1.1484v-6.8906Z" fill="#0032a1"/>
  </g>
</svg>