<?xml version="1.0" encoding="UTF-8"?><svg id="a" xmlns="http://www.w3.org/2000/svg" viewBox="0 0 330 310.04642792677032"><defs><style>.d{letter-spacing:-.00927734375em;}.e{letter-spacing:-.01171875em;}.f{letter-spacing:-.00732421875em;}.g,.h,.i{fill:#0032a1;}.g,.j,.k{stroke-width:0px;}.l{stroke:#0032a1;stroke-linecap:round;stroke-width:2px;}.l,.m,.n{stroke-miterlimit:10;}.l,.n{fill:none;}.o{font-family:Roboto-Light, Roboto;font-weight:300;}.o,.p,.q,.r,.i{font-size:12px;}.o,.q,.r{fill:#808184;}.m{stroke:#0098eb;}.m,.k{fill:#fff;}.h{font-size:14px;}.h,.r,.i{font-family:Roboto-Bold, Roboto;font-weight:700;}.j{fill:#0098eb;}.p{fill:#929497;}.p,.q{font-family:Roboto-Regular, Roboto;}.n{stroke:#9ea7b3;stroke-width:.5px;}.s{letter-spacing:-.009765625em;}</style></defs><path class="n" d="M43.177303896600279,242.949868121180316h259.950647317739822"/><path class="n" d="M43.177303896600279,207.076799897879937h259.950647317739822"/><path class="n" d="M43.177303896600279,171.203731674590017h259.950647317739822"/><path class="n" d="M43.177303896600279,135.960015525400195h259.950647317739822"/><path class="n" d="M43.177303896600279,278.193584270350129h259.950647317739822"/><path class="n" d="M43.177303896600279,100.086947302110275h259.950647317739822"/><path class="n" d="M43.177303896600279,64.843231152919998h259.950647317739822"/><rect class="k" x="100.623353007629703" y="250.140916115750315" width="192.944881889759927" height="50.267716535429827"/><text class="o" transform="translate(126.918200871492445 20.705374046667657)"><tspan class="d" x="0" y="0">r</tspan><tspan x="3.931640625" y="0">e</tspan><tspan class="e" x="10.13671875" y="0">f</tspan><tspan x="13.96875" y="0">e</tspan><tspan class="d" x="20.173828125" y="0">r</tspan><tspan x="24.10546875" y="0">enční </tspan><tspan class="s" x="55.2890625" y="0">r</tspan><tspan x="59.21484375" y="0">ok</tspan></text><text class="p" transform="translate(15.480334660554945 69.052419945105157)"><tspan x="0" y="0">0 %</tspan></text><text class="q" transform="translate(28.827502629304945 33.703787132605157)"><tspan x="0" y="0">1990</tspan></text><text class="r" transform="translate(126.930285832429945 33.703787132605157)"><tspan x="0" y="0">2005</tspan></text><text class="r" transform="translate(289.805529973054945 33.698904320105157)"><tspan x="0" y="0">2030</tspan></text><text class="q" transform="translate(231.408069035554945 33.698904320105157)"><tspan x="0" y="0">2021</tspan></text><text class="p" transform="translate(1.874865910554945 140.459646507605157)"><tspan x="0" y="0">−20 %</tspan></text><text class="p" transform="translate(1.874865910554945 211.576345726355157)"><tspan x="0" y="0">−40 %</tspan></text><rect class="k" x="88.845606681899881" y="69.471995334950407" width="65.622649795450343" height="20.332787200100029"/><text class="i" transform="translate(98.278903386140883 86.918142601355157)"><tspan x="0" y="0">St</tspan><tspan class="f" x="11.431640625" y="0">a</tspan><tspan x="17.77734375" y="0">v v ČR</tspan></text><text class="p" transform="translate(1.874865910554945 282.693533226355157)"><tspan x="0" y="0">−60 %</tspan></text><path class="n" d="M43.177303896600279,41.766860083230313v7.54263239473994"/><path class="n" d="M303.127951214330096,41.766860083230313v7.54263239473994"/><path class="n" d="M243.024021338989769,41.766860083230313v7.54263239473994"/><path class="j" d="M131.068469426179945,258.876394554480157h1.125c-.0859375.80859375-.390625,1.482421875-.9140625,2.021484375s-1.296875.80859375-2.3203125.80859375c-1,0-1.8046875-.3603515625-2.4140625-1.0810546875s-.9140625-1.6787109375-.9140625-2.8740234375v-.849609375c0-1.1953125.3076171875-2.154296875.9228515625-2.876953125s1.4501953125-1.083984375,2.5048828125-1.083984375c.96484375,0,1.70703125.265625,2.2265625.796875s.822265625,1.216796875.908203125,2.056640625h-1.125c-.0859375-.59375-.27734375-1.0634765625-.57421875-1.4091796875s-.775390625-.5185546875-1.435546875-.5185546875c-.75390625,0-1.326171875.27734375-1.716796875.83203125s-.5859375,1.28515625-.5859375,2.19140625v.861328125c0,.83984375.177734375,1.5556640625.533203125,2.1474609375s.912109375.8876953125,1.669921875.8876953125c.71875,0,1.2255859375-.16796875,1.5205078125-.50390625s.4912109375-.8046875.5888671875-1.40625Z"/><path class="j" d="M133.617297551179945,254.323660179480157l1.13671875-1.72265625h1.306640625l-1.5703125,1.72265625h-.873046875ZM134.736438176179945,255.249441429480157v6.33984375h-1.083984375v-6.33984375h1.083984375Z"/><path class="j" d="M137.713000676179945,252.589285179480157v9h-1.08984375v-9h1.08984375Z"/><path class="j" d="M146.121203801179945,259.907644554480157c0-.234375-.0869140625-.4443359375-.2607421875-.6298828125s-.5732421875-.3408203125-1.1982421875-.4658203125c-.70703125-.1484375-1.2646484375-.359375-1.6728515625-.6328125s-.6123046875-.671875-.6123046875-1.1953125c0-.5.2138671875-.93359375.6416015625-1.30078125s.9970703125-.55078125,1.7080078125-.55078125c.7578125,0,1.349609375.193359375,1.775390625.580078125s.638671875.853515625.638671875,1.400390625h-1.083984375c0-.26171875-.115234375-.5087890625-.345703125-.7412109375s-.55859375-.3486328125-.984375-.3486328125c-.44921875,0-.771484375.09765625-.966796875.29296875s-.29296875.408203125-.29296875.638671875c0,.234375.09375.4228515625.28125.5654296875s.580078125.2802734375,1.177734375.4130859375c.77734375.1796875,1.3515625.412109375,1.72265625.697265625s.556640625.68359375.556640625,1.1953125c0,.55859375-.2236328125,1.01171875-.6708984375,1.359375s-1.0400390625.521484375-1.7783203125.521484375c-.83984375,0-1.482421875-.21484375-1.927734375-.64453125s-.66796875-.90625-.66796875-1.4296875h1.08984375c.0234375.44921875.1962890625.7587890625.5185546875.9287109375s.6513671875.2548828125.9873046875.2548828125c.44140625,0,.779296875-.0859375,1.013671875-.2578125s.3515625-.388671875.3515625-.650390625Z"/><path class="j" d="M151.254016301179945,256.046316429480157c-.34765625,0-.654296875.09375-.919921875.28125s-.474609375.431640625-.626953125.732421875v4.529296875h-1.083984375v-6.33984375h1.025390625l.03515625.791015625c.48046875-.60546875,1.111328125-.908203125,1.892578125-.908203125.625,0,1.1201171875.17578125,1.4853515625.52734375s.5478515625.943359375.5478515625,1.775390625v4.154296875h-1.08984375v-4.166015625c0-.49609375-.1083984375-.849609375-.3251953125-1.060546875s-.5302734375-.31640625-.9404296875-.31640625Z"/><path class="j" d="M155.302844426179945,254.323660179480157l1.13671875-1.72265625h1.306640625l-1.5703125,1.72265625h-.873046875ZM156.421985051179945,255.249441429480157v6.33984375h-1.083984375v-6.33984375h1.083984375Z"/><path class="j" d="M157.963000676179945,256.145925804480157v-.896484375h4.810546875v.767578125l-3.52734375,4.681640625h3.697265625v.890625h-5.02734375v-.796875l3.4921875-4.646484375h-3.4453125ZM159.521594426179945,252.595144554480157l.884765625.99609375.884765625-.99609375h.9375v.05859375l-1.48828125,1.60546875h-.66796875l-1.46484375-1.60546875v-.05859375h.9140625Z"/><path class="j" d="M164.179797551179945,253.567800804480157c0-.17578125.0537109375-.32421875.1611328125-.4453125s.2666015625-.181640625.4775390625-.181640625c.20703125,0,.3662109375.060546875.4775390625.181640625s.1669921875.26953125.1669921875.4453125c0,.16796875-.0556640625.3115234375-.1669921875.4306640625s-.2705078125.1787109375-.4775390625.1787109375c-.2109375,0-.3701171875-.0595703125-.4775390625-.1787109375s-.1611328125-.2626953125-.1611328125-.4306640625ZM165.351672551179945,255.249441429480157v6.33984375h-1.08984375v-6.33984375h1.08984375Z"/><path class="j" d="M169.775500676179945,261.589285179480157c-.0859375.02734375-.1982421875.0537109375-.3369140625.0791015625s-.3056640625.0380859375-.5009765625.0380859375c-.40234375,0-.74609375-.123046875-1.03125-.369140625s-.427734375-.6875-.427734375-1.32421875v-3.931640625h-1.16015625v-.83203125h1.16015625v-1.541015625h1.083984375v1.541015625h1.18359375v.83203125h-1.18359375v3.9375c0,.32421875.0703125.53125.2109375.62109375s.302734375.134765625.486328125.134765625c.08984375,0,.1845703125-.0087890625.2841796875-.0263671875s.1748046875-.0322265625.2255859375-.0439453125l.005859375.884765625Z"/><path class="j" d="M179.009875676179945,260.481863304480157c-.20703125.3125-.5.5947265625-.87890625.8466796875s-.880859375.3779296875-1.505859375.3779296875c-.8828125,0-1.5888671875-.287109375-2.1181640625-.861328125s-.7939453125-1.30859375-.7939453125-2.203125v-.24609375c0-.69140625.1318359375-1.2802734375.3955078125-1.7666015625s.6064453125-.857421875,1.0283203125-1.11328125.87109375-.3837890625,1.34765625-.3837890625c.90625,0,1.5673828125.2958984375,1.9833984375.8876953125s.6240234375,1.3310546875.6240234375,2.2177734375v.486328125h-4.2890625c.015625.58203125.1884765625,1.0771484375.5185546875,1.4853515625s.7841796875.6123046875,1.3623046875.6123046875c.3828125,0,.70703125-.078125.97265625-.234375s.498046875-.365234375.697265625-.626953125l.65625.521484375ZM176.484485051179945,256.022878929480157c-.4296875,0-.79296875.15625-1.08984375.46875s-.482421875.76171875-.556640625,1.34765625h3.169921875v-.08203125c-.02734375-.421875-.1494140625-.81640625-.3662109375-1.18359375s-.6025390625-.55078125-1.1572265625-.55078125Z"/><path class="j" d="M182.894641301179945,256.046316429480157c-.38671875,0-.697265625.08203125-.931640625.24609375s-.41015625.380859375-.52734375.650390625v4.646484375h-1.08984375v-6.33984375h1.03125l.029296875.69140625c.45703125-.5390625,1.08203125-.80859375,1.875-.80859375.40625,0,.7685546875.0810546875,1.0869140625.2431640625s.5615234375.4208984375.7294921875.7763671875c.2109375-.3046875.4853515625-.55078125.8232421875-.73828125s.7353515625-.28125,1.1923828125-.28125c.6796875,0,1.2041015625.181640625,1.5732421875.544921875s.5537109375.9453125.5537109375,1.74609375v4.166015625h-1.08984375v-4.177734375c0-.53125-.1220703125-.8916015625-.3662109375-1.0810546875s-.5732421875-.2841796875-.9873046875-.2841796875c-.4375,0-.78125.1298828125-1.03125.3896484375s-.39453125.5751953125-.43359375.9462890625v4.20703125h-1.083984375v-4.171875c0-.49609375-.123046875-.8486328125-.369140625-1.0576171875s-.57421875-.3134765625-.984375-.3134765625Z"/><path class="j" d="M190.886828801179945,253.567800804480157c0-.17578125.0537109375-.32421875.1611328125-.4453125s.2666015625-.181640625.4775390625-.181640625c.20703125,0,.3662109375.060546875.4775390625.181640625s.1669921875.26953125.1669921875.4453125c0,.16796875-.0556640625.3115234375-.1669921875.4306640625s-.2705078125.1787109375-.4775390625.1787109375c-.2109375,0-.3701171875-.0595703125-.4775390625-.1787109375s-.1611328125-.2626953125-.1611328125-.4306640625ZM192.058703801179945,255.249441429480157v6.33984375h-1.08984375v-6.33984375h1.08984375Z"/><path class="j" d="M197.490344426179945,259.907644554480157c0-.234375-.0869140625-.4443359375-.2607421875-.6298828125s-.5732421875-.3408203125-1.1982421875-.4658203125c-.70703125-.1484375-1.2646484375-.359375-1.6728515625-.6328125s-.6123046875-.671875-.6123046875-1.1953125c0-.5.2138671875-.93359375.6416015625-1.30078125s.9970703125-.55078125,1.7080078125-.55078125c.7578125,0,1.349609375.193359375,1.775390625.580078125s.638671875.853515625.638671875,1.400390625h-1.083984375c0-.26171875-.115234375-.5087890625-.345703125-.7412109375s-.55859375-.3486328125-.984375-.3486328125c-.44921875,0-.771484375.09765625-.966796875.29296875s-.29296875.408203125-.29296875.638671875c0,.234375.09375.4228515625.28125.5654296875s.580078125.2802734375,1.177734375.4130859375c.77734375.1796875,1.3515625.412109375,1.72265625.697265625s.556640625.68359375.556640625,1.1953125c0,.55859375-.2236328125,1.01171875-.6708984375,1.359375s-1.0400390625.521484375-1.7783203125.521484375c-.83984375,0-1.482421875-.21484375-1.927734375-.64453125s-.66796875-.90625-.66796875-1.4296875h1.08984375c.0234375.44921875.1962890625.7587890625.5185546875.9287109375s.6513671875.2548828125.9873046875.2548828125c.44140625,0,.779296875-.0859375,1.013671875-.2578125s.3515625-.388671875.3515625-.650390625Z"/><path class="j" d="M205.007922551179945,260.481863304480157c-.20703125.3125-.5.5947265625-.87890625.8466796875s-.880859375.3779296875-1.505859375.3779296875c-.8828125,0-1.5888671875-.287109375-2.1181640625-.861328125s-.7939453125-1.30859375-.7939453125-2.203125v-.24609375c0-.69140625.1318359375-1.2802734375.3955078125-1.7666015625s.6064453125-.857421875,1.0283203125-1.11328125.87109375-.3837890625,1.34765625-.3837890625c.90625,0,1.5673828125.2958984375,1.9833984375.8876953125s.6240234375,1.3310546875.6240234375,2.2177734375v.486328125h-4.2890625c.015625.58203125.1884765625,1.0771484375.5185546875,1.4853515625s.7841796875.6123046875,1.3623046875.6123046875c.3828125,0,.70703125-.078125.97265625-.234375s.498046875-.365234375.697265625-.626953125l.65625.521484375ZM202.482531926179945,256.022878929480157c-.4296875,0-.79296875.15625-1.08984375.46875s-.482421875.76171875-.556640625,1.34765625h3.169921875v-.08203125c-.02734375-.421875-.1494140625-.81640625-.3662109375-1.18359375s-.6025390625-.55078125-1.1572265625-.55078125Z"/><path class="j" d="M208.957141301179945,257.966238304480157v-.1435546875c0-1.07568359375.30517578125-1.97216796875.916015625-2.68994140625s1.47216796875-1.07666015625,2.583984375-1.07666015625c1.12548828125,0,1.99169921875.35888671875,2.59765625,1.07666015625s.9091796875,1.6142578125.9091796875,2.68994140625v.1435546875c0,1.07568359375-.30322265625,1.97119140625-.9091796875,2.6865234375s-1.46728515625,1.0732421875-2.583984375,1.0732421875c-1.12109375,0-1.98681640625-.35791015625-2.59765625-1.0732421875s-.916015625-1.61083984375-.916015625-2.6865234375ZM210.939563176179945,257.822683616980157v.1435546875c0,.6015625.115234375,1.11328125.34521484375,1.53466796875s.62548828125.63232421875,1.18603515625.63232421875c.55126953125,0,.9423828125-.2109375,1.17236328125-.63232421875s.34521484375-.93310546875.34521484375-1.53466796875v-.1435546875c0-.587890625-.115234375-1.09716796875-.34521484375-1.52783203125s-.62548828125-.64599609375-1.18603515625-.64599609375c-.55615234375,0-.94775390625.21533203125-1.17578125.64599609375s-.341796875.93994140625-.341796875,1.52783203125Z"/><path class="j" d="M227.455188176179945,258.308035179480157c0,.96630859375-.30419921875,1.77734375-.91259765625,2.43359375s-1.4228515625.984375-2.44384765625.984375c-1.06201171875,0-1.91064453125-.369140625-2.54638671875-1.107421875s-.95361328125-1.69091796875-.95361328125-2.857421875v-.7587890625c0-1.60888671875.4443359375-2.92236328125,1.3330078125-3.94091796875s2.13525390625-1.52783203125,3.7392578125-1.52783203125h.2802734375v1.626953125h-.123046875c-.93896484375,0-1.681640625.2314453125-2.228515625.69384765625s-.875,1.09033203125-.984375,1.88330078125c.24169921875-.24609375.53076171875-.443359375.8681640625-.59130859375s.7177734375-.22216796875,1.1416015625-.22216796875c.93896484375,0,1.64501953125.333984375,2.119140625,1.00146484375s.7109375,1.4619140625.7109375,2.38232421875ZM222.574328801179945,258.020925804480157c0,.70166015625.1376953125,1.22802734375.41357421875,1.5791015625s.634765625.5263671875,1.07666015625.5263671875c.42822265625,0,.771484375-.169921875,1.02880859375-.50927734375s.38623046875-.76904296875.38623046875-1.28857421875c0-.52880859375-.12890625-.9638671875-.38623046875-1.3056640625s-.6142578125-.5126953125-1.06982421875-.5126953125c-.35107421875,0-.65185546875.08984375-.90234375.27001953125s-.43310546875.3955078125-.546875.64599609375v.5947265625Z"/><path class="j" d="M235.439563176179945,259.996511741980157v1.5927734375h-6.8154296875v-1.353515625l3.2197265625-3.431640625c.48779296875-.53759765625.82470703125-.98095703125,1.01171875-1.32958984375s.2802734375-.6689453125.2802734375-.96044921875c0-.44189453125-.1103515625-.79052734375-.33154296875-1.0458984375s-.5390625-.3828125-.95361328125-.3828125c-.46923828125,0-.828125.15966796875-1.07666015625.478515625s-.37255859375.72021484375-.37255859375,1.203125h-1.9755859375c0-.89794921875.30859375-1.66796875.92626953125-2.310546875s1.4619140625-.9638671875,2.53271484375-.9638671875c1.04345703125,0,1.84326171875.251953125,2.3994140625.75537109375s.833984375,1.19287109375.833984375,2.06787109375c0,.66552734375-.20068359375,1.2978515625-.6015625,1.89697265625s-.93212890625,1.2431640625-1.5927734375,1.93115234375l-1.763671875,1.8525390625h4.279296875Z"/><path class="j" d="M240.108508488679945,254.076589866980157v-.5263671875c0-.56494140625.1845703125-1.04931640625.5537109375-1.45263671875s.90478515625-.60498046875,1.6064453125-.60498046875c.71533203125,0,1.25439453125.20166015625,1.61669921875.60498046875s.54345703125.8876953125.54345703125,1.45263671875v.5263671875c0,.55615234375-.18115234375,1.03564453125-.54345703125,1.43896484375s-.896484375.60498046875-1.60302734375.60498046875-1.2451171875-.20166015625-1.61669921875-.60498046875-.55712890625-.8828125-.55712890625-1.43896484375ZM241.427844426179945,253.550222679480157v.5263671875c0,.23681640625.0693359375.44677734375.20849609375.62890625s.3544921875.2734375.64599609375.2734375c.28271484375,0,.4921875-.09130859375.62890625-.2734375s.205078125-.39208984375.205078125-.62890625v-.5263671875c0-.24169921875-.0693359375-.45458984375-.20849609375-.63916015625s-.35205078125-.27685546875-.63916015625-.27685546875c-.28271484375,0-.4931640625.09228515625-.63232421875.27685546875s-.20849609375.3974609375-.20849609375.63916015625ZM247.532336613679945,253.064871116980157l-4.8603515625,7.779296875-.9638671875-.51953125,4.8603515625-7.779296875.9638671875.51953125ZM244.866320988679945,259.675222679480157v-.5263671875c0-.560546875.185546875-1.04248046875.55712890625-1.44580078125s.908203125-.60498046875,1.60986328125-.60498046875c.7109375,0,1.24853515625.20166015625,1.61328125.60498046875s.546875.88525390625.546875,1.44580078125v.5263671875c0,.560546875-.18212890625,1.04248046875-.546875,1.44580078125s-.89794921875.60498046875-1.599609375.60498046875c-.70654296875,0-1.24658203125-.20166015625-1.6201171875-.60498046875s-.560546875-.88525390625-.560546875-1.44580078125ZM246.185656926179945,259.148855491980157v.5263671875c0,.23681640625.07763671875.44775390625.232421875.63232421875s.36474609375.27685546875.62890625.27685546875c.32373046875,0,.54345703125-.09228515625.65966796875-.27685546875s.17431640625-.3955078125.17431640625-.63232421875v-.5263671875c0-.24169921875-.07080078125-.45361328125-.2119140625-.6357421875s-.35302734375-.2734375-.6357421875-.2734375c-.287109375,0-.5.09130859375-.63916015625.2734375s-.20849609375.39404296875-.20849609375.6357421875Z"/><path class="j" d="M253.310656926179945,258.489675804480157v-.134765625c0-.91796875.2578125-1.6845703125.7734375-2.2998046875s1.216796875-.9228515625,2.103515625-.9228515625c.89453125,0,1.6005859375.3076171875,2.1181640625.9228515625s.7763671875,1.3818359375.7763671875,2.2998046875v.134765625c0,.91796875-.2587890625,1.68359375-.7763671875,2.296875s-1.2197265625.919921875-2.1064453125.919921875c-.890625,0-1.5947265625-.306640625-2.1123046875-.919921875s-.7763671875-1.37890625-.7763671875-2.296875ZM254.394641301179945,258.354910179480157v.134765625c0,.62890625.1494140625,1.173828125.4482421875,1.634765625s.7509765625.69140625,1.3564453125.69140625c.59375,0,1.041015625-.23046875,1.341796875-.69140625s.451171875-1.005859375.451171875-1.634765625v-.134765625c0-.62109375-.150390625-1.1650390625-.451171875-1.6318359375s-.751953125-.7001953125-1.353515625-.7001953125c-.59765625,0-1.0458984375.2333984375-1.3447265625.7001953125s-.4482421875,1.0107421875-.4482421875,1.6318359375Z"/><path class="j" d="M263.336047551179945,261.706472679480157c-.76171875,0-1.365234375-.244140625-1.810546875-.732421875v3.052734375h-1.08984375v-8.77734375h.99609375l.052734375.697265625c.4453125-.54296875,1.056640625-.814453125,1.833984375-.814453125.80078125,0,1.4140625.296875,1.83984375.890625s.638671875,1.375.638671875,2.34375v.123046875c0,.92578125-.2138671875,1.693359375-.6416015625,2.302734375s-1.0341796875.9140625-1.8193359375.9140625ZM263.002063176179945,256.046316429480157c-.3671875,0-.669921875.0830078125-.908203125.2490234375s-.427734375.3740234375-.568359375.6240234375v3.03515625c.14453125.25.3349609375.4560546875.5712890625.6181640625s.5419921875.2431640625.9169921875.2431640625c.5859375,0,1.0146484375-.23046875,1.2861328125-.69140625s.4072265625-1.005859375.4072265625-1.634765625v-.123046875c0-.62890625-.1357421875-1.1728515625-.4072265625-1.6318359375s-.7041015625-.6884765625-1.2978515625-.6884765625Z"/><path class="j" d="M269.711047551179945,256.175222679480157c-.37109375,0-.67578125.0830078125-.9140625.2490234375s-.416015625.3876953125-.533203125.6650390625v4.5h-1.083984375v-6.33984375h1.0546875l.0234375.7265625c.16015625-.2578125.3642578125-.462890625.6123046875-.615234375s.5458984375-.228515625.8935546875-.228515625c.203125,0,.36328125.02734375.48046875.08203125l-.005859375,1.0078125c-.16015625-.03125-.3359375-.046875-.52734375-.046875Z"/><path class="j" d="M270.841906926179945,258.489675804480157v-.134765625c0-.91796875.2578125-1.6845703125.7734375-2.2998046875s1.216796875-.9228515625,2.103515625-.9228515625c.89453125,0,1.6005859375.3076171875,2.1181640625.9228515625s.7763671875,1.3818359375.7763671875,2.2998046875v.134765625c0,.91796875-.2587890625,1.68359375-.7763671875,2.296875s-1.2197265625.919921875-2.1064453125.919921875c-.890625,0-1.5947265625-.306640625-2.1123046875-.919921875s-.7763671875-1.37890625-.7763671875-2.296875ZM271.925891301179945,258.354910179480157v.134765625c0,.62890625.1494140625,1.173828125.4482421875,1.634765625s.7509765625.69140625,1.3564453125.69140625c.59375,0,1.041015625-.23046875,1.341796875-.69140625s.451171875-1.005859375.451171875-1.634765625v-.134765625c0-.62109375-.150390625-1.1650390625-.451171875-1.6318359375s-.751953125-.7001953125-1.353515625-.7001953125c-.59765625,0-1.0458984375.2333984375-1.3447265625.7001953125s-.4482421875,1.0107421875-.4482421875,1.6318359375Z"/><path class="j" d="M280.656360051179945,261.589285179480157c-.0859375.02734375-.1982421875.0537109375-.3369140625.0791015625s-.3056640625.0380859375-.5009765625.0380859375c-.40234375,0-.74609375-.123046875-1.03125-.369140625s-.427734375-.6875-.427734375-1.32421875v-3.931640625h-1.16015625v-.83203125h1.16015625v-1.541015625h1.083984375v1.541015625h1.18359375v.83203125h-1.18359375v3.9375c0,.32421875.0703125.53125.2109375.62109375s.302734375.134765625.486328125.134765625c.08984375,0,.1845703125-.0087890625.2841796875-.0263671875s.1748046875-.0322265625.2255859375-.0439453125l.005859375.884765625Z"/><path class="j" d="M281.904406926179945,253.567800804480157c0-.17578125.0537109375-.32421875.1611328125-.4453125s.2666015625-.181640625.4775390625-.181640625c.20703125,0,.3662109375.060546875.4775390625.181640625s.1669921875.26953125.1669921875.4453125c0,.16796875-.0556640625.3115234375-.1669921875.4306640625s-.2705078125.1787109375-.4775390625.1787109375c-.2109375,0-.3701171875-.0595703125-.4775390625-.1787109375s-.1611328125-.2626953125-.1611328125-.4306640625ZM283.076281926179945,255.249441429480157v6.33984375h-1.08984375v-6.33984375h1.08984375Z"/><path class="j" d="M112.298938176179945,270.575613304480157c-.37109375,0-.67578125.0830078125-.9140625.2490234375s-.416015625.3876953125-.533203125.6650390625v4.5h-1.083984375v-6.33984375h1.0546875l.0234375.7265625c.16015625-.2578125.3642578125-.462890625.6123046875-.615234375s.5458984375-.228515625.8935546875-.228515625c.203125,0,.36328125.02734375.48046875.08203125l-.005859375,1.0078125c-.16015625-.03125-.3359375-.046875-.52734375-.046875Z"/><path class="j" d="M113.429797551179945,272.890066429480157v-.134765625c0-.91796875.2578125-1.6845703125.7734375-2.2998046875s1.216796875-.9228515625,2.103515625-.9228515625c.89453125,0,1.6005859375.3076171875,2.1181640625.9228515625s.7763671875,1.3818359375.7763671875,2.2998046875v.134765625c0,.91796875-.2587890625,1.68359375-.7763671875,2.296875s-1.2197265625.919921875-2.1064453125.919921875c-.890625,0-1.5947265625-.306640625-2.1123046875-.919921875s-.7763671875-1.37890625-.7763671875-2.296875ZM114.513781926179945,272.755300804480157v.134765625c0,.62890625.1494140625,1.173828125.4482421875,1.634765625s.7509765625.69140625,1.3564453125.69140625c.59375,0,1.041015625-.23046875,1.341796875-.69140625s.451171875-1.005859375.451171875-1.634765625v-.134765625c0-.62109375-.150390625-1.1650390625-.451171875-1.6318359375s-.751953125-.7001953125-1.353515625-.7001953125c-.59765625,0-1.0458984375.2333984375-1.3447265625.7001953125s-.4482421875,1.0107421875-.4482421875,1.6318359375Z"/><path class="j" d="M124.533313176179945,275.989675804480157l-2.197265625-2.94140625-.685546875.708984375v2.232421875h-1.08984375v-9h1.08984375v5.4375l.580078125-.69140625,1.96875-2.0859375h1.32421875l-2.47265625,2.642578125,2.759765625,3.697265625h-1.27734375Z"/><path class="j" d="M130.574328801179945,275.989675804480157l-.0234375-.626953125c-.1953125.234375-.4453125.4169921875-.75.5478515625s-.671875.1962890625-1.1015625.1962890625c-.62109375,0-1.123046875-.18359375-1.505859375-.55078125s-.57421875-.97265625-.57421875-1.81640625v-4.08984375h1.083984375v4.1015625c0,.5703125.1201171875.9521484375.3603515625,1.1455078125s.5087890625.2900390625.8056640625.2900390625c.44140625,0,.794921875-.083984375,1.060546875-.251953125s.462890625-.390625.591796875-.66796875v-4.6171875h1.08984375v6.33984375h-1.037109375Z"/><path class="j" d="M141.707141301179945,275.099050804480157v.890625h-5.583984375v-.779296875l2.794921875-3.111328125c.515625-.57421875.86328125-1.0263671875,1.04296875-1.3564453125s.26953125-.6611328125.26953125-.9931640625c0-.41796875-.1298828125-.775390625-.3896484375-1.072265625s-.6259765625-.4453125-1.0986328125-.4453125c-.5703125,0-.99609375.162109375-1.27734375.486328125s-.421875.740234375-.421875,1.248046875h-1.083984375c0-.71875.236328125-1.3359375.708984375-1.8515625s1.1640625-.7734375,2.07421875-.7734375c.8046875,0,1.4345703125.208984375,1.8896484375.626953125s.6826171875.96875.6826171875,1.65234375c0,.50390625-.1572265625,1.01171875-.4716796875,1.5234375s-.6904296875,1.00390625-1.1279296875,1.4765625l-2.28515625,2.478515625h4.27734375Z"/><path class="j" d="M148.216906926179945,271.044363304480157v1.30078125c0,1.3984375-.2412109375,2.375-.7236328125,2.9296875s-1.1376953125.83203125-1.9658203125.83203125c-.81640625,0-1.470703125-.27734375-1.962890625-.83203125s-.73828125-1.53125-.73828125-2.9296875v-1.30078125c0-1.39453125.244140625-2.3603515625.732421875-2.8974609375s1.140625-.8056640625,1.95703125-.8056640625c.828125,0,1.4853515625.2685546875,1.9716796875.8056640625s.7294921875,1.5029296875.7294921875,2.8974609375ZM147.127063176179945,272.520925804480157v-1.658203125c0-.9609375-.13671875-1.640625-.41015625-2.0390625s-.673828125-.59765625-1.201171875-.59765625c-.515625,0-.9111328125.19921875-1.1865234375.59765625s-.4130859375,1.078125-.4130859375,2.0390625v1.658203125c0,.953125.1396484375,1.640625.4189453125,2.0625s.6767578125.6328125,1.1923828125.6328125c.53125,0,.9306640625-.2109375,1.1982421875-.6328125s.4013671875-1.109375.4013671875-2.0625Z"/><path class="j" d="M154.961047551179945,271.044363304480157v1.30078125c0,1.3984375-.2412109375,2.375-.7236328125,2.9296875s-1.1376953125.83203125-1.9658203125.83203125c-.81640625,0-1.470703125-.27734375-1.962890625-.83203125s-.73828125-1.53125-.73828125-2.9296875v-1.30078125c0-1.39453125.244140625-2.3603515625.732421875-2.8974609375s1.140625-.8056640625,1.95703125-.8056640625c.828125,0,1.4853515625.2685546875,1.9716796875.8056640625s.7294921875,1.5029296875.7294921875,2.8974609375ZM153.871203801179945,272.520925804480157v-1.658203125c0-.9609375-.13671875-1.640625-.41015625-2.0390625s-.673828125-.59765625-1.201171875-.59765625c-.515625,0-.9111328125.19921875-1.1865234375.59765625s-.4130859375,1.078125-.4130859375,2.0390625v1.658203125c0,.953125.1396484375,1.640625.4189453125,2.0625s.6767578125.6328125,1.1923828125.6328125c.53125,0,.9306640625-.2109375,1.1982421875-.6328125s.4013671875-1.109375.4013671875-2.0625Z"/><path class="j" d="M157.720813176179945,271.929128929480157l-.8671875-.22265625.427734375-4.248046875h4.376953125v1.001953125h-3.45703125l-.2578125,2.3203125c.15625-.08984375.3544921875-.173828125.5947265625-.251953125s.5166015625-.1171875.8291015625-.1171875c.78515625,0,1.4052734375.2587890625,1.8603515625.7763671875s.6826171875,1.2119140625.6826171875,2.0830078125c0,.81640625-.22265625,1.4931640625-.66796875,2.0302734375s-1.123046875.8056640625-2.033203125.8056640625c-.69140625,0-1.2890625-.1943359375-1.79296875-.5830078125s-.794921875-.9814453125-.873046875-1.7783203125h1.03125c.13671875.98046875.681640625,1.470703125,1.634765625,1.470703125.51171875,0,.908203125-.173828125,1.189453125-.521484375s.421875-.818359375.421875-1.412109375c0-.53515625-.1474609375-.9853515625-.4423828125-1.3505859375s-.7158203125-.5478515625-1.2626953125-.5478515625c-.36328125,0-.638671875.048828125-.826171875.146484375s-.376953125.23046875-.568359375.3984375Z"/><path class="j" d="M166.105578801179945,269.649832054480157h1.69921875v6.69140625c0,.71484375-.1884765625,1.26171875-.5654296875,1.640625s-.9072265625.568359375-1.5908203125.568359375c-.296875,0-.580078125-.033203125-.849609375-.099609375v-1.341796875c.1796875.03515625.359375.052734375.5390625.052734375.51171875,0,.767578125-.2734375.767578125-.8203125v-6.69140625ZM165.976672551179945,268.009207054480157c0-.25390625.0849609375-.4638671875.2548828125-.6298828125s.3994140625-.2490234375.6884765625-.2490234375.51953125.0830078125.69140625.2490234375.2578125.3759765625.2578125.6298828125c0,.25-.0859375.4580078125-.2578125.6240234375s-.40234375.2490234375-.69140625.2490234375-.5185546875-.0830078125-.6884765625-.2490234375-.2548828125-.3740234375-.2548828125-.6240234375Z"/><path class="j" d="M174.531360051179945,274.958425804480157c-.203125.2890625-.51171875.552734375-.92578125.791015625s-.9296875.357421875-1.546875.357421875c-.98828125,0-1.759765625-.2998046875-2.314453125-.8994140625s-.83203125-1.3232421875-.83203125-2.1708984375v-.228515625c0-.95703125.2666015625-1.7421875.7998046875-2.35546875s1.2529296875-.919921875,2.1591796875-.919921875c.91015625,0,1.603515625.28515625,2.080078125.85546875s.71484375,1.32421875.71484375,2.26171875v.720703125h-4.037109375c.05859375.41015625.220703125.7412109375.486328125.9931640625s.615234375.3779296875,1.048828125.3779296875c.64453125,0,1.154296875-.236328125,1.529296875-.708984375l.837890625.92578125ZM171.859485051179945,270.897878929480157c-.359375,0-.63671875.12109375-.83203125.36328125s-.322265625.55859375-.380859375.94921875h2.35546875v-.12890625c-.0078125-.33984375-.1025390625-.6220703125-.2841796875-.8466796875s-.4677734375-.3369140625-.8583984375-.3369140625Z"/><path class="j" d="M181.861438176179945,276.106863304480157c-.6328125,0-1.150390625-.224609375-1.552734375-.673828125v2.994140625h-1.69921875v-8.77734375h1.576171875l.064453125.615234375c.40234375-.48828125.93359375-.732421875,1.59375-.732421875.8046875,0,1.4189453125.294921875,1.8427734375.884765625s.6357421875,1.3671875.6357421875,2.33203125v.123046875c0,.921875-.2119140625,1.69140625-.6357421875,2.30859375s-1.0322265625.92578125-1.8251953125.92578125ZM181.404406926179945,270.903738304480157c-.52734375,0-.892578125.205078125-1.095703125.615234375v2.595703125c.2109375.41796875.580078125.626953125,1.107421875.626953125.44140625,0,.75390625-.18359375.9375-.55078125s.275390625-.806640625.275390625-1.318359375v-.123046875c0-.5234375-.0947265625-.9619140625-.2841796875-1.3154296875s-.5029296875-.5302734375-.9404296875-.5302734375Z"/><path class="j" d="M185.101672551179945,272.884207054480157v-.123046875c0-.921875.26171875-1.6904296875.78515625-2.3056640625s1.26171875-.9228515625,2.21484375-.9228515625c.96484375,0,1.70703125.3076171875,2.2265625.9228515625s.779296875,1.3837890625.779296875,2.3056640625v.123046875c0,.921875-.259765625,1.689453125-.779296875,2.302734375s-1.2578125.919921875-2.21484375.919921875c-.9609375,0-1.703125-.306640625-2.2265625-.919921875s-.78515625-1.380859375-.78515625-2.302734375ZM186.800891301179945,272.761160179480157v.123046875c0,.515625.0986328125.9541015625.2958984375,1.3154296875s.5361328125.5419921875,1.0166015625.5419921875c.47265625,0,.8076171875-.1806640625,1.0048828125-.5419921875s.2958984375-.7998046875.2958984375-1.3154296875v-.123046875c0-.50390625-.0986328125-.9404296875-.2958984375-1.3095703125s-.5361328125-.5537109375-1.0166015625-.5537109375c-.4765625,0-.8125.1845703125-1.0078125.5537109375s-.29296875.8056640625-.29296875,1.3095703125Z"/><path class="j" d="M196.000110051179945,275.989675804480157l-.046875-.650390625c-.4140625.51171875-.9921875.767578125-1.734375.767578125-.625,0-1.1318359375-.18359375-1.5205078125-.55078125s-.5830078125-.96875-.5830078125-1.8046875v-4.1015625h1.693359375v4.11328125c0,.3515625.083984375.6005859375.251953125.7470703125s.3828125.2197265625.64453125.2197265625c.30859375,0,.55859375-.0537109375.75-.1611328125s.337890625-.2548828125.439453125-.4423828125v-4.4765625h1.69921875v6.33984375h-1.59375Z"/><path class="j" d="M198.748156926179945,271.015066429480157v-1.365234375h5.080078125v.99609375l-3.01171875,3.978515625h3.099609375v1.365234375h-5.26171875v-1.03125l2.994140625-3.943359375h-2.900390625Z"/><path class="j" d="M210.285266301179945,274.958425804480157c-.203125.2890625-.51171875.552734375-.92578125.791015625s-.9296875.357421875-1.546875.357421875c-.98828125,0-1.759765625-.2998046875-2.314453125-.8994140625s-.83203125-1.3232421875-.83203125-2.1708984375v-.228515625c0-.95703125.2666015625-1.7421875.7998046875-2.35546875s1.2529296875-.919921875,2.1591796875-.919921875c.91015625,0,1.603515625.28515625,2.080078125.85546875s.71484375,1.32421875.71484375,2.26171875v.720703125h-4.037109375c.05859375.41015625.220703125.7412109375.486328125.9931640625s.615234375.3779296875,1.048828125.3779296875c.64453125,0,1.154296875-.236328125,1.529296875-.708984375l.837890625.92578125ZM207.613391301179945,270.897878929480157c-.359375,0-.63671875.12109375-.83203125.36328125s-.322265625.55859375-.380859375.94921875h2.35546875v-.12890625c-.0078125-.33984375-.1025390625-.6220703125-.2841796875-.8466796875s-.4677734375-.3369140625-.8583984375-.3369140625Z"/><path class="j" d="M217.099719426179945,270.903738304480157c-.48046875,0-.837890625.203125-1.072265625.609375v4.4765625h-1.693359375v-6.33984375h1.587890625l.05859375.7265625c.453125-.5625,1.060546875-.84375,1.822265625-.84375.6015625,0,1.0859375.1796875,1.453125.5390625s.55078125.986328125.55078125,1.880859375v4.037109375h-1.69921875v-4.04296875c0-.40625-.0869140625-.681640625-.2607421875-.826171875s-.4228515625-.216796875-.7470703125-.216796875Z"/><path class="j" d="M224.757922551179945,275.989675804480157c-.0703125-.1484375-.126953125-.337890625-.169921875-.568359375-.16796875.1875-.3818359375.3486328125-.6416015625.4833984375s-.5791015625.2021484375-.9580078125.2021484375c-.60546875,0-1.115234375-.1787109375-1.529296875-.5361328125s-.62109375-.8115234375-.62109375-1.3623046875c0-.6640625.24609375-1.1787109375.73828125-1.5439453125s1.220703125-.5478515625,2.185546875-.5478515625h.755859375v-.369140625c0-.29296875-.0751953125-.5263671875-.2255859375-.7001953125s-.3876953125-.2607421875-.7119140625-.2607421875c-.60546875,0-.908203125.25390625-.908203125.76171875h-1.693359375c0-.55078125.244140625-1.0244140625.732421875-1.4208984375s1.142578125-.5947265625,1.962890625-.5947265625c.73046875,0,1.3369140625.185546875,1.8193359375.556640625s.7236328125.927734375.7236328125,1.669921875v2.68359375c0,.359375.021484375.650390625.064453125.873046875s.10546875.4140625.1875.57421875v.099609375h-1.7109375ZM223.357531926179945,274.811941429480157c.28515625,0,.5283203125-.0634765625.7294921875-.1904296875s.3447265625-.2666015625.4306640625-.4189453125v-1.1015625h-.69140625c-.44921875,0-.77734375.0947265625-.984375.2841796875s-.310546875.4228515625-.310546875.7001953125c0,.2109375.0732421875.384765625.2197265625.521484375s.3486328125.205078125.6064453125.205078125Z"/><path class="j" d="M234.355578801179945,275.989675804480157l-.046875-.650390625c-.4140625.51171875-.9921875.767578125-1.734375.767578125-.625,0-1.1318359375-.18359375-1.5205078125-.55078125s-.5830078125-.96875-.5830078125-1.8046875v-4.1015625h1.693359375v4.11328125c0,.3515625.083984375.6005859375.251953125.7470703125s.3828125.2197265625.64453125.2197265625c.30859375,0,.55859375-.0537109375.75-.1611328125s.337890625-.2548828125.439453125-.4423828125v-4.4765625h1.69921875v6.33984375h-1.59375ZM232.404406926179945,268.800222679480157l1.1484375-1.810546875h1.845703125l-1.623046875,1.810546875h-1.37109375Z"/><path class="j" d="M240.179797551179945,271.184988304480157c-.63671875,0-1.0546875.216796875-1.25390625.650390625v4.154296875h-1.69921875v-6.33984375h1.599609375l.052734375.755859375c.33203125-.58203125.802734375-.873046875,1.412109375-.873046875.21484375,0,.388671875.025390625.521484375.076171875l-.017578125,1.623046875c-.0859375-.0078125-.1865234375-.017578125-.3017578125-.029296875s-.2197265625-.017578125-.3134765625-.017578125Z"/><path class="j" d="M241.134875676179945,272.884207054480157v-.123046875c0-.921875.26171875-1.6904296875.78515625-2.3056640625s1.26171875-.9228515625,2.21484375-.9228515625c.96484375,0,1.70703125.3076171875,2.2265625.9228515625s.779296875,1.3837890625.779296875,2.3056640625v.123046875c0,.921875-.259765625,1.689453125-.779296875,2.302734375s-1.2578125.919921875-2.21484375.919921875c-.9609375,0-1.703125-.306640625-2.2265625-.919921875s-.78515625-1.380859375-.78515625-2.302734375ZM242.834094426179945,272.761160179480157v.123046875c0,.515625.0986328125.9541015625.2958984375,1.3154296875s.5361328125.5419921875,1.0166015625.5419921875c.47265625,0,.8076171875-.1806640625,1.0048828125-.5419921875s.2958984375-.7998046875.2958984375-1.3154296875v-.123046875c0-.50390625-.0986328125-.9404296875-.2958984375-1.3095703125s-.5361328125-.5537109375-1.0166015625-.5537109375c-.4765625,0-.8125.1845703125-1.0078125.5537109375s-.29296875.8056640625-.29296875,1.3095703125Z"/><path class="j" d="M253.416125676179945,269.649832054480157l-2.138671875,6.33984375h-1.611328125l-2.14453125-6.33984375h1.775390625l1.177734375,4.259765625,1.171875-4.259765625h1.76953125Z"/><path class="j" d="M256.902453801179945,270.903738304480157c-.48046875,0-.837890625.203125-1.072265625.609375v4.4765625h-1.693359375v-6.33984375h1.587890625l.05859375.7265625c.453125-.5625,1.060546875-.84375,1.822265625-.84375.6015625,0,1.0859375.1796875,1.453125.5390625s.55078125.986328125.55078125,1.880859375v4.037109375h-1.69921875v-4.04296875c0-.40625-.0869140625-.681640625-.2607421875-.826171875s-.4228515625-.216796875-.7470703125-.216796875Z"/><path class="j" d="M260.875110051179945,268.009207054480157c0-.25390625.0859375-.4638671875.2578125-.6298828125s.40234375-.2490234375.69140625-.2490234375.51953125.0830078125.69140625.2490234375.2578125.3759765625.2578125.6298828125c0,.25-.0859375.4580078125-.2578125.6240234375s-.40234375.2490234375-.69140625.2490234375-.51953125-.0830078125-.69140625-.2490234375-.2578125-.3740234375-.2578125-.6240234375ZM262.679797551179945,269.649832054480157v6.33984375h-1.69921875v-6.33984375h1.69921875Z"/><path class="j" d="M267.168078801179945,275.989675804480157v-8.53125h5.70703125v1.423828125h-3.943359375v2.033203125h3.369140625v1.376953125h-3.369140625v2.279296875h3.9609375v1.41796875h-5.724609375Z"/><path class="j" d="M278.617297551179945,267.458425804480157h1.763671875v5.625c0,.9921875-.30859375,1.744140625-.92578125,2.255859375s-1.3984375.767578125-2.34375.767578125c-.95703125,0-1.7421875-.255859375-2.35546875-.767578125s-.919921875-1.263671875-.919921875-2.255859375v-5.625h1.763671875v5.625c0,.5625.1337890625.970703125.4013671875,1.224609375s.6376953125.380859375,1.1103515625.380859375.841796875-.126953125,1.107421875-.380859375.3984375-.662109375.3984375-1.224609375v-5.625Z"/><path class="j" d="M283.304797551179945,274.548269554480157l-.005859375,1.154296875c0,.44140625-.1083984375.884765625-.3251953125,1.330078125s-.4931640625.8125-.8291015625,1.1015625l-.87890625-.462890625c.14453125-.265625.2822265625-.541015625.4130859375-.826171875s.1962890625-.638671875.1962890625-1.060546875v-1.236328125h1.4296875Z"/><path class="j" d="M122.974719426179945,285.303640648230157c-.48046875,0-.837890625.203125-1.072265625.609375v4.4765625h-1.693359375v-6.33984375h1.587890625l.05859375.7265625c.453125-.5625,1.060546875-.84375,1.822265625-.84375.6015625,0,1.0859375.1796875,1.453125.5390625s.55078125.986328125.55078125,1.880859375v4.037109375h-1.69921875v-4.04296875c0-.40625-.0869140625-.681640625-.2607421875-.826171875s-.4228515625-.216796875-.7470703125-.216796875Z"/><path class="j" d="M130.632922551179945,290.389578148230157c-.0703125-.1484375-.126953125-.337890625-.169921875-.568359375-.16796875.1875-.3818359375.3486328125-.6416015625.4833984375s-.5791015625.2021484375-.9580078125.2021484375c-.60546875,0-1.115234375-.1787109375-1.529296875-.5361328125s-.62109375-.8115234375-.62109375-1.3623046875c0-.6640625.24609375-1.1787109375.73828125-1.5439453125s1.220703125-.5478515625,2.185546875-.5478515625h.755859375v-.369140625c0-.29296875-.0751953125-.5263671875-.2255859375-.7001953125s-.3876953125-.2607421875-.7119140625-.2607421875c-.60546875,0-.908203125.25390625-.908203125.76171875h-1.693359375c0-.55078125.244140625-1.0244140625.732421875-1.4208984375s1.142578125-.5947265625,1.962890625-.5947265625c.73046875,0,1.3369140625.185546875,1.8193359375.556640625s.7236328125.927734375.7236328125,1.669921875v2.68359375c0,.359375.021484375.650390625.064453125.873046875s.10546875.4140625.1875.57421875v.099609375h-1.7109375ZM129.232531926179945,289.211843773230157c.28515625,0,.5283203125-.0634765625.7294921875-.1904296875s.3447265625-.2666015625.4306640625-.4189453125v-1.1015625h-.69140625c-.44921875,0-.77734375.0947265625-.984375.2841796875s-.310546875.4228515625-.310546875.7001953125c0,.2109375.0732421875.384765625.2197265625.521484375s.3486328125.205078125.6064453125.205078125ZM128.728625676179945,283.200125023230157l1.1484375-1.810546875h1.845703125l-1.623046875,1.810546875h-1.37109375Z"/><path class="j" d="M136.345813176179945,285.584890648230157c-.63671875,0-1.0546875.216796875-1.25390625.650390625v4.154296875h-1.69921875v-6.33984375h1.599609375l.052734375.755859375c.33203125-.58203125.802734375-.873046875,1.412109375-.873046875.21484375,0,.388671875.025390625.521484375.076171875l-.017578125,1.623046875c-.0859375-.0078125-.1865234375-.017578125-.3017578125-.029296875s-.2197265625-.017578125-.3134765625-.017578125Z"/><path class="j" d="M137.300891301179945,287.284109398230157v-.123046875c0-.921875.26171875-1.6904296875.78515625-2.3056640625s1.26171875-.9228515625,2.21484375-.9228515625c.96484375,0,1.70703125.3076171875,2.2265625.9228515625s.779296875,1.3837890625.779296875,2.3056640625v.123046875c0,.921875-.259765625,1.689453125-.779296875,2.302734375s-1.2578125.919921875-2.21484375.919921875c-.9609375,0-1.703125-.306640625-2.2265625-.919921875s-.78515625-1.380859375-.78515625-2.302734375ZM139.000110051179945,287.161062523230157v.123046875c0,.515625.0986328125.9541015625.2958984375,1.3154296875s.5361328125.5419921875,1.0166015625.5419921875c.47265625,0,.8076171875-.1806640625,1.0048828125-.5419921875s.2958984375-.7998046875.2958984375-1.3154296875v-.123046875c0-.50390625-.0986328125-.9404296875-.2958984375-1.3095703125s-.5361328125-.5537109375-1.0166015625-.5537109375c-.4765625,0-.8125.1845703125-1.0078125.5537109375s-.29296875.8056640625-.29296875,1.3095703125Z"/><path class="j" d="M148.269641301179945,290.389578148230157l-.08203125-.673828125c-.1953125.24609375-.4267578125.439453125-.6943359375.580078125s-.5771484375.2109375-.9287109375.2109375c-.78515625,0-1.39453125-.3046875-1.828125-.9140625s-.650390625-1.375-.650390625-2.296875v-.123046875c0-.96484375.216796875-1.74609375.650390625-2.34375s1.046875-.896484375,1.83984375-.896484375c.6171875,0,1.125.228515625,1.5234375.685546875v-3.228515625h1.69921875v9h-1.529296875ZM145.785266301179945,287.295828148230157c0,.5078125.08984375.9404296875.26953125,1.2978515625s.4921875.5361328125.9375.5361328125c.515625,0,.884765625-.21875,1.107421875-.65625v-2.513671875c-.21484375-.4375-.580078125-.65625-1.095703125-.65625-.44140625,0-.7548828125.1806640625-.9404296875.5419921875s-.2783203125.8037109375-.2783203125,1.3271484375v.123046875Z"/><path class="j" d="M153.853625676179945,285.303640648230157c-.48046875,0-.837890625.203125-1.072265625.609375v4.4765625h-1.693359375v-6.33984375h1.587890625l.05859375.7265625c.453125-.5625,1.060546875-.84375,1.822265625-.84375.6015625,0,1.0859375.1796875,1.453125.5390625s.55078125.986328125.55078125,1.880859375v4.037109375h-1.69921875v-4.04296875c0-.40625-.0869140625-.681640625-.2607421875-.826171875s-.4228515625-.216796875-.7470703125-.216796875Z"/><path class="j" d="M159.671985051179945,284.049734398230157v6.33984375h-1.69921875v-6.33984375h1.69921875ZM158.019641301179945,283.288015648230157l1.1484375-1.810546875h1.845703125l-1.623046875,1.810546875h-1.37109375Z"/><path class="j" d="M166.750110051179945,289.141531273230157c.30859375,0,.5625-.0849609375.76171875-.2548828125s.30078125-.3994140625.3046875-.6884765625h1.59375c-.0078125.671875-.2646484375,1.224609375-.7705078125,1.658203125s-1.1259765625.650390625-1.8603515625.650390625c-.98046875,0-1.7138671875-.3095703125-2.2001953125-.9287109375s-.7294921875-1.3779296875-.7294921875-2.2763671875v-.1640625c0-.89453125.2421875-1.65234375.7265625-2.2734375s1.216796875-.931640625,2.197265625-.931640625c.77734375,0,1.4091796875.22265625,1.8955078125.66796875s.7333984375,1.048828125.7412109375,1.810546875h-1.59375c-.00390625-.30859375-.09765625-.5712890625-.28125-.7880859375s-.447265625-.3251953125-.791015625-.3251953125c-.49609375,0-.8193359375.1884765625-.9697265625.5654296875s-.2255859375.8017578125-.2255859375,1.2744140625v.1640625c0,.48828125.0751953125.9169921875.2255859375,1.2861328125s.4755859375.5537109375.9755859375.5537109375Z"/><path class="j" d="M172.211047551179945,284.049734398230157v6.33984375h-1.69921875v-6.33984375h1.69921875ZM170.558703801179945,283.288015648230157l1.1484375-1.810546875h1.845703125l-1.623046875,1.810546875h-1.37109375Z"/><path class="j" d="M175.457141301179945,281.389578148230157v9h-1.69921875v-9h1.69921875Z"/><path class="j" d="M182.242297551179945,289.358328148230157c-.203125.2890625-.51171875.552734375-.92578125.791015625s-.9296875.357421875-1.546875.357421875c-.98828125,0-1.759765625-.2998046875-2.314453125-.8994140625s-.83203125-1.3232421875-.83203125-2.1708984375v-.228515625c0-.95703125.2666015625-1.7421875.7998046875-2.35546875s1.2529296875-.919921875,2.1591796875-.919921875c.91015625,0,1.603515625.28515625,2.080078125.85546875s.71484375,1.32421875.71484375,2.26171875v.720703125h-4.037109375c.05859375.41015625.220703125.7412109375.486328125.9931640625s.615234375.3779296875,1.048828125.3779296875c.64453125,0,1.154296875-.236328125,1.529296875-.708984375l.837890625.92578125ZM179.570422551179945,285.297781273230157c-.359375,0-.63671875.12109375-.83203125.36328125s-.322265625.55859375-.380859375.94921875h2.35546875v-.12890625c-.0078125-.33984375-.1025390625-.6220703125-.2841796875-.8466796875s-.4677734375-.3369140625-.8583984375-.3369140625Z"/><path class="j" d="M189.056750676179945,285.303640648230157c-.48046875,0-.837890625.203125-1.072265625.609375v4.4765625h-1.693359375v-6.33984375h1.587890625l.05859375.7265625c.453125-.5625,1.060546875-.84375,1.822265625-.84375.6015625,0,1.0859375.1796875,1.453125.5390625s.55078125.986328125.55078125,1.880859375v4.037109375h-1.69921875v-4.04296875c0-.40625-.0869140625-.681640625-.2607421875-.826171875s-.4228515625-.216796875-.7470703125-.216796875Z"/><path class="j" d="M198.437610051179945,289.358328148230157c-.203125.2890625-.51171875.552734375-.92578125.791015625s-.9296875.357421875-1.546875.357421875c-.98828125,0-1.759765625-.2998046875-2.314453125-.8994140625s-.83203125-1.3232421875-.83203125-2.1708984375v-.228515625c0-.95703125.2666015625-1.7421875.7998046875-2.35546875s1.2529296875-.919921875,2.1591796875-.919921875c.91015625,0,1.603515625.28515625,2.080078125.85546875s.71484375,1.32421875.71484375,2.26171875v.720703125h-4.037109375c.05859375.41015625.220703125.7412109375.486328125.9931640625s.615234375.3779296875,1.048828125.3779296875c.64453125,0,1.154296875-.236328125,1.529296875-.708984375l.837890625.92578125ZM195.765735051179945,285.297781273230157c-.359375,0-.63671875.12109375-.83203125.36328125s-.322265625.55859375-.380859375.94921875h2.35546875v-.12890625c-.0078125-.33984375-.1025390625-.6220703125-.2841796875-.8466796875s-.4677734375-.3369140625-.8583984375-.3369140625Z"/><path class="j" d="M199.621203801179945,284.049734398230157h1.69921875v6.69140625c0,.71484375-.1884765625,1.26171875-.5654296875,1.640625s-.9072265625.568359375-1.5908203125.568359375c-.296875,0-.580078125-.033203125-.849609375-.099609375v-1.341796875c.1796875.03515625.359375.052734375.5390625.052734375.51171875,0,.767578125-.2734375.767578125-.8203125v-6.69140625ZM199.492297551179945,282.409109398230157c0-.25390625.0849609375-.4638671875.2548828125-.6298828125s.3994140625-.2490234375.6884765625-.2490234375.51953125.0830078125.69140625.2490234375.2578125.3759765625.2578125.6298828125c0,.25-.0859375.4580078125-.2578125.6240234375s-.40234375.2490234375-.69140625.2490234375-.5185546875-.0830078125-.6884765625-.2490234375-.2548828125-.3740234375-.2548828125-.6240234375Z"/><path class="j" d="M206.084094426179945,288.631765648230157c0-.1796875-.0830078125-.3310546875-.2490234375-.4541015625s-.5146484375-.2412109375-1.0458984375-.3544921875c-.6484375-.13671875-1.1865234375-.3544921875-1.6142578125-.6533203125s-.6416015625-.7216796875-.6416015625-1.2685546875c0-.52734375.2236328125-.9873046875.6708984375-1.3798828125s1.0654296875-.5888671875,1.8544921875-.5888671875c.82421875,0,1.47265625.193359375,1.9453125.580078125s.708984375.875.708984375,1.46484375h-1.693359375c0-.2421875-.078125-.443359375-.234375-.603515625s-.400390625-.240234375-.732421875-.240234375c-.28125,0-.5009765625.0654296875-.6591796875.1962890625s-.2373046875.2939453125-.2373046875.4892578125c0,.18359375.0869140625.333984375.2607421875.451171875s.4814453125.21875.9228515625.3046875c.6875.13671875,1.2578125.345703125,1.7109375.626953125s.6796875.736328125.6796875,1.365234375c0,.55859375-.240234375,1.021484375-.720703125,1.388671875s-1.12890625.55078125-1.9453125.55078125c-.88671875,0-1.564453125-.2275390625-2.033203125-.6826171875s-.703125-.9404296875-.703125-1.4560546875h1.611328125c.015625.33203125.1376953125.5703125.3662109375.71484375s.4931640625.216796875.7939453125.216796875c.65625,0,.984375-.22265625.984375-.66796875Z"/><path class="j" d="M208.562610051179945,287.284109398230157v-.123046875c0-.921875.26171875-1.6904296875.78515625-2.3056640625s1.26171875-.9228515625,2.21484375-.9228515625c.96484375,0,1.70703125.3076171875,2.2265625.9228515625s.779296875,1.3837890625.779296875,2.3056640625v.123046875c0,.921875-.259765625,1.689453125-.779296875,2.302734375s-1.2578125.919921875-2.21484375.919921875c-.9609375,0-1.703125-.306640625-2.2265625-.919921875s-.78515625-1.380859375-.78515625-2.302734375ZM210.261828801179945,287.161062523230157v.123046875c0,.515625.0986328125.9541015625.2958984375,1.3154296875s.5361328125.5419921875,1.0166015625.5419921875c.47265625,0,.8076171875-.1806640625,1.0048828125-.5419921875s.2958984375-.7998046875.2958984375-1.3154296875v-.123046875c0-.50390625-.0986328125-.9404296875-.2958984375-1.3095703125s-.5361328125-.5537109375-1.0166015625-.5537109375c-.4765625,0-.8125.1845703125-1.0078125.5537109375s-.29296875.8056640625-.29296875,1.3095703125Z"/><path class="j" d="M219.461047551179945,290.389578148230157l-.046875-.650390625c-.4140625.51171875-.9921875.767578125-1.734375.767578125-.625,0-1.1318359375-.18359375-1.5205078125-.55078125s-.5830078125-.96875-.5830078125-1.8046875v-4.1015625h1.693359375v4.11328125c0,.3515625.083984375.6005859375.251953125.7470703125s.3828125.2197265625.64453125.2197265625c.30859375,0,.55859375-.0537109375.75-.1611328125s.337890625-.2548828125.439453125-.4423828125v-4.4765625h1.69921875v6.33984375h-1.59375Z"/><path class="j" d="M229.240344426179945,290.389578148230157l-.08203125-.673828125c-.1953125.24609375-.4267578125.439453125-.6943359375.580078125s-.5771484375.2109375-.9287109375.2109375c-.78515625,0-1.39453125-.3046875-1.828125-.9140625s-.650390625-1.375-.650390625-2.296875v-.123046875c0-.96484375.216796875-1.74609375.650390625-2.34375s1.046875-.896484375,1.83984375-.896484375c.6171875,0,1.125.228515625,1.5234375.685546875v-3.228515625h1.69921875v9h-1.529296875ZM226.755969426179945,287.295828148230157c0,.5078125.08984375.9404296875.26953125,1.2978515625s.4921875.5361328125.9375.5361328125c.515625,0,.884765625-.21875,1.107421875-.65625v-2.513671875c-.21484375-.4375-.580078125-.65625-1.095703125-.65625-.44140625,0-.7548828125.1806640625-.9404296875.5419921875s-.2783203125.8037109375-.2783203125,1.3271484375v.123046875Z"/><path class="j" d="M237.484485051179945,289.358328148230157c-.203125.2890625-.51171875.552734375-.92578125.791015625s-.9296875.357421875-1.546875.357421875c-.98828125,0-1.759765625-.2998046875-2.314453125-.8994140625s-.83203125-1.3232421875-.83203125-2.1708984375v-.228515625c0-.95703125.2666015625-1.7421875.7998046875-2.35546875s1.2529296875-.919921875,2.1591796875-.919921875c.91015625,0,1.603515625.28515625,2.080078125.85546875s.71484375,1.32421875.71484375,2.26171875v.720703125h-4.037109375c.05859375.41015625.220703125.7412109375.486328125.9931640625s.615234375.3779296875,1.048828125.3779296875c.64453125,0,1.154296875-.236328125,1.529296875-.708984375l.837890625.92578125ZM234.812610051179945,285.297781273230157c-.359375,0-.63671875.12109375-.83203125.36328125s-.322265625.55859375-.380859375.94921875h2.35546875v-.12890625c-.0078125-.33984375-.1025390625-.6220703125-.2841796875-.8466796875s-.4677734375-.3369140625-.8583984375-.3369140625Z"/><path class="j" d="M241.996203801179945,285.286062523230157h-1.259765625v5.103515625h-1.69921875v-5.103515625h-.943359375v-1.236328125h.943359375v-.55078125c0-.72265625.208984375-1.275390625.626953125-1.658203125s.984375-.57421875,1.69921875-.57421875c.2734375,0,.5625.0390625.8671875.1171875l-.017578125,1.3125c-.1484375-.03515625-.322265625-.052734375-.521484375-.052734375-.63671875,0-.955078125.28515625-.955078125.85546875v.55078125h1.259765625v1.236328125Z"/><path class="j" d="M242.863391301179945,282.409109398230157c0-.25390625.0859375-.4638671875.2578125-.6298828125s.40234375-.2490234375.69140625-.2490234375.51953125.0830078125.69140625.2490234375.2578125.3759765625.2578125.6298828125c0,.25-.0859375.4580078125-.2578125.6240234375s-.40234375.2490234375-.69140625.2490234375-.51953125-.0830078125-.69140625-.2490234375-.2578125-.3740234375-.2578125-.6240234375ZM244.668078801179945,284.049734398230157v6.33984375h-1.69921875v-6.33984375h1.69921875Z"/><path class="j" d="M248.793078801179945,285.303640648230157c-.48046875,0-.837890625.203125-1.072265625.609375v4.4765625h-1.693359375v-6.33984375h1.587890625l.05859375.7265625c.453125-.5625,1.060546875-.84375,1.822265625-.84375.6015625,0,1.0859375.1796875,1.453125.5390625s.55078125.986328125.55078125,1.880859375v4.037109375h-1.69921875v-4.04296875c0-.40625-.0869140625-.681640625-.2607421875-.826171875s-.4228515625-.216796875-.7470703125-.216796875Z"/><path class="j" d="M252.513781926179945,287.284109398230157v-.123046875c0-.921875.26171875-1.6904296875.78515625-2.3056640625s1.26171875-.9228515625,2.21484375-.9228515625c.96484375,0,1.70703125.3076171875,2.2265625.9228515625s.779296875,1.3837890625.779296875,2.3056640625v.123046875c0,.921875-.259765625,1.689453125-.779296875,2.302734375s-1.2578125.919921875-2.21484375.919921875c-.9609375,0-1.703125-.306640625-2.2265625-.919921875s-.78515625-1.380859375-.78515625-2.302734375ZM254.213000676179945,287.161062523230157v.123046875c0,.515625.0986328125.9541015625.2958984375,1.3154296875s.5361328125.5419921875,1.0166015625.5419921875c.47265625,0,.8076171875-.1806640625,1.0048828125-.5419921875s.2958984375-.7998046875.2958984375-1.3154296875v-.123046875c0-.50390625-.0986328125-.9404296875-.2958984375-1.3095703125s-.5361328125-.5537109375-1.0166015625-.5537109375c-.4765625,0-.8125.1845703125-1.0078125.5537109375s-.29296875.8056640625-.29296875,1.3095703125Z"/><path class="j" d="M264.795031926179945,284.049734398230157l-2.138671875,6.33984375h-1.611328125l-2.14453125-6.33984375h1.775390625l1.177734375,4.259765625,1.171875-4.259765625h1.76953125Z"/><path class="j" d="M269.130969426179945,290.389578148230157c-.0703125-.1484375-.126953125-.337890625-.169921875-.568359375-.16796875.1875-.3818359375.3486328125-.6416015625.4833984375s-.5791015625.2021484375-.9580078125.2021484375c-.60546875,0-1.115234375-.1787109375-1.529296875-.5361328125s-.62109375-.8115234375-.62109375-1.3623046875c0-.6640625.24609375-1.1787109375.73828125-1.5439453125s1.220703125-.5478515625,2.185546875-.5478515625h.755859375v-.369140625c0-.29296875-.0751953125-.5263671875-.2255859375-.7001953125s-.3876953125-.2607421875-.7119140625-.2607421875c-.60546875,0-.908203125.25390625-.908203125.76171875h-1.693359375c0-.55078125.244140625-1.0244140625.732421875-1.4208984375s1.142578125-.5947265625,1.962890625-.5947265625c.73046875,0,1.3369140625.185546875,1.8193359375.556640625s.7236328125.927734375.7236328125,1.669921875v2.68359375c0,.359375.021484375.650390625.064453125.873046875s.10546875.4140625.1875.57421875v.099609375h-1.7109375ZM267.730578801179945,289.211843773230157c.28515625,0,.5283203125-.0634765625.7294921875-.1904296875s.3447265625-.2666015625.4306640625-.4189453125v-1.1015625h-.69140625c-.44921875,0-.77734375.0947265625-.984375.2841796875s-.310546875.4228515625-.310546875.7001953125c0,.2109375.0732421875.384765625.2197265625.521484375s.3486328125.205078125.6064453125.205078125ZM267.226672551179945,283.200125023230157l1.1484375-1.810546875h1.845703125l-1.623046875,1.810546875h-1.37109375Z"/><path class="j" d="M274.627063176179945,285.303640648230157c-.48046875,0-.837890625.203125-1.072265625.609375v4.4765625h-1.693359375v-6.33984375h1.587890625l.05859375.7265625c.453125-.5625,1.060546875-.84375,1.822265625-.84375.6015625,0,1.0859375.1796875,1.453125.5390625s.55078125.986328125.55078125,1.880859375v4.037109375h-1.69921875v-4.04296875c0-.40625-.0869140625-.681640625-.2607421875-.826171875s-.4228515625-.216796875-.7470703125-.216796875Z"/><path class="j" d="M281.429797551179945,291.338796898230157c-.07421875.2109375-.18359375.4423828125-.328125.6943359375s-.3525390625.4677734375-.6240234375.6474609375-.6298828125.26953125-1.0751953125.26953125c-.15625,0-.287109375-.009765625-.392578125-.029296875s-.224609375-.046875-.357421875-.08203125v-1.283203125c.0390625.00390625.08203125.005859375.12890625.005859375h.134765625c.33203125,0,.578125-.0537109375.73828125-.1611328125s.28125-.2783203125.36328125-.5126953125l.1875-.486328125-2.220703125-6.3515625h1.822265625l1.177734375,3.94921875,1.171875-3.94921875h1.810546875l-2.537109375,7.2890625Z"/><rect class="k" x="240.606902903709852" y="143.180286194490691" width="42.736799513369988" height="19.850595472639725"/><text class="h" transform="translate(246.305957219148695 164.998647972448907)"><tspan x="0" y="0">−30 %</tspan></text><path class="n" d="M140.754435920309334,41.766860083230313v7.54263239473994"/><polyline class="l" points="140.754504582429945 64.840017601350155 147.152209660549488 59.784597679480157 153.550158879299488 41.599050804480157 159.948108098049488 73.719412132600155 166.346057316799488 102.291677757600155 172.743884465239717 94.517996116980157 179.141833683989717 100.554128929480157 185.539660832429945 117.672292991980157 191.937610051179945 124.602712913850155 198.335437199620173 128.995535179480157 204.733386418370173 129.199148460730157 211.131335637120173 125.385427757600155 217.529162785549488 127.783621116980157 223.927112004299488 128.052908226350155 230.324939152739717 147.034597679480157 236.722888371489717 180.916921898230157 242.761340519929945 172.379568382600155"/><path class="g" d="M245.130114933989717,174.239431663850155c.959106445309772-1.356201171869998.637329101559772-3.2333984375-.71875-4.192626953119998-1.356079101559772-.959228515630002-3.2333984375-.63720703125-4.192504882809772.71875s-.637329101559772,3.2333984375.71875,4.192626953119998c1.35595703125.958984375,3.2333984375.63720703125,4.192504882809772-.71875Z"/><circle class="k" cx="302.544612850149861" cy="284.912569659060409" r="11.527559055119582"/><circle class="m" cx="303.127951214330096" cy="285.30535732208773" r="6.080169662026265"/></svg>