<?xml version="1.0" encoding="UTF-8"?>
<svg id="Layer_1" data-name="Layer 1" xmlns="http://www.w3.org/2000/svg" viewBox="0 0 330 310.0464">
  <defs>
    <style>
      .cls-1, .cls-2, .cls-3, .cls-4, .cls-5, .cls-6, .cls-7, .cls-8, .cls-9, .cls-10 {
        stroke-miterlimit: 10;
      }

      .cls-1, .cls-2, .cls-3, .cls-6, .cls-7, .cls-8, .cls-9, .cls-10 {
        fill: none;
      }

      .cls-1, .cls-2, .cls-3, .cls-8 {
        stroke-width: .75px;
      }

      .cls-1, .cls-6 {
        stroke: #0032a1;
      }

      .cls-2, .cls-4, .cls-7 {
        stroke: #0098eb;
      }

      .cls-3, .cls-5, .cls-8, .cls-10 {
        stroke: #aaaaad;
      }

      .cls-4, .cls-5, .cls-11 {
        fill: #fff;
      }

      .cls-6 {
        stroke-linecap: round;
        stroke-width: 2px;
      }

      .cls-8 {
        stroke-dasharray: 0 0 3.7821 3.7821;
      }

      .cls-12 {
        fill: #808184;
      }

      .cls-12, .cls-13, .cls-14, .cls-11, .cls-15, .cls-16 {
        stroke-width: 0px;
      }

      .cls-13 {
        fill: #aaaaad;
      }

      .cls-14 {
        fill: #929497;
      }

      .cls-15 {
        fill: #0032a1;
      }

      .cls-16 {
        fill: #0098eb;
      }

      .cls-9 {
        stroke: #d0d2d3;
      }

      .cls-9, .cls-10 {
        stroke-width: .5px;
      }
    </style>
  </defs>
  <g>
    <line class="cls-3" x1="243.1736" y1="211.6576" x2="245.0757" y2="212.2751"/>
    <line class="cls-8" x1="248.6731" y1="213.4428" x2="297.2374" y2="229.207"/>
    <line class="cls-3" x1="299.0359" y1="229.7909" x2="300.9383" y2="230.4084"/>
  </g>
  <g>
    <path class="cls-9" d="m43.1773,242.9499h259.9506"/>
    <path class="cls-9" d="m43.1773,207.0768h259.9506"/>
    <path class="cls-9" d="m43.1773,171.2037h259.9506"/>
    <path class="cls-9" d="m43.1773,135.96h259.9506"/>
    <path class="cls-9" d="m43.1773,278.1936h259.9506"/>
    <path class="cls-9" d="m43.1773,100.0869h259.9506"/>
    <path class="cls-9" d="m43.1773,64.8432h259.9506"/>
  </g>
  <g>
    <path class="cls-14" d="m21.5506,65.4137c0,1.2695-.2168,2.2129-.6504,2.8301s-1.1113.9258-2.0332.9258c-.9102,0-1.584-.3018-2.0215-.9053s-.6641-1.5049-.6797-2.7041v-1.4473c0-1.2539.2168-2.1855.6504-2.7949s1.1133-.9141,2.0391-.9141c.918,0,1.5938.2939,2.0273.8818s.6562,1.4951.668,2.7217v1.4062Zm-1.084-1.4824c0-.918-.1289-1.5869-.3867-2.0068s-.666-.6299-1.2246-.6299c-.5547,0-.959.209-1.2129.627s-.3848,1.0605-.3926,1.9277v1.7344c0,.9219.1338,1.6025.4014,2.042s.6729.6592,1.2158.6592c.5352,0,.9326-.207,1.1924-.6211s.3955-1.0664.4072-1.957v-1.7754Z"/>
    <path class="cls-14" d="m25.8162,62.1618c0-.5117.1631-.9336.4893-1.2656s.7451-.498,1.2568-.498c.5195,0,.9404.167,1.2627.501s.4834.7666.4834,1.2979v.416c0,.5156-.1631.9365-.4893,1.2627s-.7412.4893-1.2451.4893c-.5078,0-.9277-.1631-1.2598-.4893s-.498-.7607-.498-1.3037v-.4102Zm.8086.4487c0,.3057.0859.5571.2578.7549s.4023.2964.6914.2964c.2773,0,.501-.0957.6709-.2876s.2549-.4541.2549-.7871v-.4287c0-.3052-.084-.5581-.252-.7573-.168-.1997-.3965-.2998-.6855-.2998s-.5176.1001-.6855.2998c-.168.1992-.252.46-.252.7808v.4287Zm1.1953,5.7974l-.6152-.3867,4.166-6.668.6152.3867-4.166,6.668Zm2.1504-1.4473c0-.5117.1631-.9326.4893-1.2627s.7451-.4951,1.2568-.4951.9316.1641,1.2598.4922.4922.7637.4922,1.3066v.416c0,.5117-.1631.9326-.4893,1.2627s-.7432.4951-1.251.4951-.9277-.1631-1.2598-.4893-.498-.7607-.498-1.3037v-.4219Zm.8086.4546c0,.3091.0859.563.2578.7607s.4023.2964.6914.2964c.2812,0,.5059-.0967.6738-.2905s.252-.457.252-.79v-.4346c0-.3091-.085-.562-.2549-.7573-.1699-.1958-.3975-.2939-.6826-.2939-.2773,0-.5029.0972-.6768.2905-.1738.1938-.2607.4556-.2607.7842v.4346Z"/>
  </g>
  <g>
    <path class="cls-12" d="m33.1048,33.7038h-1.6934v-6.5273l-2.0215.627v-1.377l3.5332-1.2656h.1816v8.543Z"/>
    <path class="cls-12" d="m39.8372,30.2936c-.4414.4336-.957.6504-1.5469.6504-.7539,0-1.3574-.2588-1.8105-.7764s-.6797-1.2158-.6797-2.0947c0-.5586.1221-1.0713.3662-1.5381s.585-.8301,1.0225-1.0898.9297-.3896,1.4766-.3896c.5625,0,1.0625.1406,1.5.4219s.7773.6855,1.0195,1.2129.3652,1.1309.3691,1.8105v.627c0,1.4219-.3535,2.5391-1.0605,3.3516s-1.709,1.2461-3.0059,1.3008l-.416.0059v-1.4121l.375-.0059c1.4727-.0664,2.2695-.7578,2.3906-2.0742Zm-1.1309-.6445c.2734,0,.5088-.0703.7061-.2109s.3467-.3105.4482-.5098v-.6973c0-.5742-.1094-1.0195-.3281-1.3359s-.5117-.4746-.8789-.4746c-.3398,0-.6191.1553-.8379.4658s-.3281.7002-.3281,1.1689c0,.4648.1064.8467.3193,1.1455s.5127.4482.8994.4482Z"/>
    <path class="cls-12" d="m46.722,30.2936c-.4414.4336-.957.6504-1.5469.6504-.7539,0-1.3574-.2588-1.8105-.7764s-.6797-1.2158-.6797-2.0947c0-.5586.1221-1.0713.3662-1.5381s.585-.8301,1.0225-1.0898.9297-.3896,1.4766-.3896c.5625,0,1.0625.1406,1.5.4219s.7773.6855,1.0195,1.2129.3652,1.1309.3691,1.8105v.627c0,1.4219-.3535,2.5391-1.0605,3.3516s-1.709,1.2461-3.0059,1.3008l-.416.0059v-1.4121l.375-.0059c1.4727-.0664,2.2695-.7578,2.3906-2.0742Zm-1.1309-.6445c.2734,0,.5088-.0703.7061-.2109s.3467-.3105.4482-.5098v-.6973c0-.5742-.1094-1.0195-.3281-1.3359s-.5117-.4746-.8789-.4746c-.3398,0-.6191.1553-.8379.4658s-.3281.7002-.3281,1.1689c0,.4648.1064.8467.3193,1.1455s.5127.4482.8994.4482Z"/>
    <path class="cls-12" d="m55.388,30.1764c0,1.1797-.2441,2.082-.7324,2.707s-1.2031.9375-2.1445.9375c-.9297,0-1.6406-.3066-2.1328-.9199s-.7441-1.4922-.7559-2.6367v-1.5703c0-1.1914.2471-2.0957.7412-2.7129s1.2061-.9258,2.1357-.9258,1.6406.3057,2.1328.917.7441,1.4893.7559,2.6338v1.5703Zm-1.6934-1.7266c0-.7075-.0967-1.2227-.29-1.5454s-.4951-.4839-.9053-.4839c-.3984,0-.6924.1533-.8818.4604s-.29.7866-.3018,1.4399v2.0762c0,.6958.0947,1.2129.2842,1.5513s.4932.5073.9111.5073c.4141,0,.7129-.1621.8965-.4868.1836-.3242.2793-.8208.2871-1.4897v-2.0293Z"/>
  </g>
  <g>
    <path class="cls-12" d="m32.2547,14.9633c-.1484-.0273-.3066-.041-.4746-.041-.4375,0-.8076.1221-1.1104.3662s-.5186.5986-.6475,1.0635v4.3535h-.6973v-6.3398h.6855l.0117,1.0078c.3711-.75.9668-1.125,1.7871-1.125.1953,0,.3496.0254.4629.0762l-.0176.6387Z"/>
    <path class="cls-12" d="m35.7059,20.8227c-.5391,0-1.0264-.1328-1.4619-.3984s-.7744-.6357-1.0166-1.1104-.3633-1.0068-.3633-1.5967v-.252c0-.6094.1182-1.1582.3545-1.6465s.5654-.8721.9873-1.1514.8789-.4189,1.3711-.4189c.7695,0,1.3799.2627,1.8311.7881s.6768,1.2432.6768,2.1533v.3926h-4.5234v.1348c0,.7188.2061,1.3174.6182,1.7959s.9307.7178,1.5557.7178c.375,0,.7061-.0684.9932-.2051s.5479-.3555.7822-.6562l.4395.334c-.5156.7461-1.2637,1.1191-2.2441,1.1191Zm-.1289-5.9766c-.5273,0-.9717.1934-1.333.5801s-.5811.9062-.6592,1.5586h3.8027v-.0762c-.0195-.6094-.1934-1.1055-.5215-1.4883s-.7578-.5742-1.2891-.5742Z"/>
    <path class="cls-12" d="m39.9539,20.7055v-5.7656h-1.0488v-.5742h1.0488v-.7676c0-.6484.165-1.1465.4951-1.4941s.79-.5215,1.3799-.5215c.2656,0,.5137.0332.7441.0986l-.0527.5811c-.1953-.0469-.4082-.0703-.6387-.0703-.3867,0-.6875.1206-.9023.3613s-.3223.5825-.3223,1.0254v.7871h1.5117v.5742h-1.5117v5.7656h-.7031Z"/>
    <path class="cls-12" d="m45.7371,20.8227c-.5391,0-1.0264-.1328-1.4619-.3984s-.7744-.6357-1.0166-1.1104-.3633-1.0068-.3633-1.5967v-.252c0-.6094.1182-1.1582.3545-1.6465s.5654-.8721.9873-1.1514.8789-.4189,1.3711-.4189c.7695,0,1.3799.2627,1.8311.7881s.6768,1.2432.6768,2.1533v.3926h-4.5234v.1348c0,.7188.2061,1.3174.6182,1.7959s.9307.7178,1.5557.7178c.375,0,.7061-.0684.9932-.2051s.5479-.3555.7822-.6562l.4395.334c-.5156.7461-1.2637,1.1191-2.2441,1.1191Zm-.1289-5.9766c-.5273,0-.9717.1934-1.333.5801s-.5811.9062-.6592,1.5586h3.8027v-.0762c-.0195-.6094-.1934-1.1055-.5215-1.4883s-.7578-.5742-1.2891-.5742Z"/>
    <path class="cls-12" d="m52.4109,14.9633c-.1484-.0273-.3066-.041-.4746-.041-.4375,0-.8076.1221-1.1104.3662s-.5186.5986-.6475,1.0635v4.3535h-.6973v-6.3398h.6855l.0117,1.0078c.3711-.75.9668-1.125,1.7871-1.125.1953,0,.3496.0254.4629.0762l-.0176.6387Z"/>
    <path class="cls-12" d="m55.8621,20.8227c-.5391,0-1.0264-.1328-1.4619-.3984s-.7744-.6357-1.0166-1.1104-.3633-1.0068-.3633-1.5967v-.252c0-.6094.1182-1.1582.3545-1.6465s.5654-.8721.9873-1.1514.8789-.4189,1.3711-.4189c.7695,0,1.3799.2627,1.8311.7881s.6768,1.2432.6768,2.1533v.3926h-4.5234v.1348c0,.7188.2061,1.3174.6182,1.7959s.9307.7178,1.5557.7178c.375,0,.7061-.0684.9932-.2051s.5479-.3555.7822-.6562l.4395.334c-.5156.7461-1.2637,1.1191-2.2441,1.1191Zm-.1289-5.9766c-.5273,0-.9717.1934-1.333.5801s-.5811.9062-.6592,1.5586h3.8027v-.0762c-.0195-.6094-.1934-1.1055-.5215-1.4883s-.7578-.5742-1.2891-.5742Z"/>
    <path class="cls-12" d="m60.2742,14.3657l.0234,1.084c.2383-.3906.5352-.6885.8906-.8936s.748-.3076,1.1777-.3076c.6797,0,1.1855.1914,1.5176.5742s.5.957.5039,1.7227v4.1602h-.6973v-4.166c-.0039-.5664-.124-.9883-.3604-1.2656s-.6143-.416-1.1338-.416c-.4336,0-.8174.1357-1.1514.4072s-.5811.6377-.7412,1.0986v4.3418h-.6973v-6.3398h.668Z"/>
    <path class="cls-12" d="m68.5418,20.2309c.4883,0,.8975-.1377,1.2275-.4131s.5088-.6318.5361-1.0693h.6738c-.0195.3867-.1406.7393-.3633,1.0576s-.5186.5674-.8877.7471-.7646.2695-1.1865.2695c-.832,0-1.4912-.2891-1.9775-.8672s-.7295-1.3555-.7295-2.332v-.2109c0-.625.1094-1.1777.3281-1.6582s.5322-.8516.9404-1.1133.8857-.3926,1.4326-.3926c.6953,0,1.2686.207,1.7197.6211s.6924.959.7236,1.6348h-.6738c-.0312-.4961-.21-.8965-.5361-1.2012s-.7373-.457-1.2334-.457c-.6328,0-1.124.2285-1.4736.6855s-.5244,1.0977-.5244,1.9219v.2051c0,.8086.1748,1.4395.5244,1.8926s.8428.6797,1.4795.6797Zm-.1055-7.3066l1.0078-1.1367h.627v.0703l-1.3828,1.5293h-.5039l-1.3828-1.5352v-.0645h.627l1.0078,1.1367Z"/>
    <path class="cls-12" d="m73.0477,14.3657l.0234,1.084c.2383-.3906.5352-.6885.8906-.8936s.748-.3076,1.1777-.3076c.6797,0,1.1855.1914,1.5176.5742s.5.957.5039,1.7227v4.1602h-.6973v-4.166c-.0039-.5664-.124-.9883-.3604-1.2656s-.6143-.416-1.1338-.416c-.4336,0-.8174.1357-1.1514.4072s-.5811.6377-.7412,1.0986v4.3418h-.6973v-6.3398h.668Z"/>
    <path class="cls-12" d="m80.1082,11.7758h.8496l-1.3535,1.6406-.6152-.0029,1.1191-1.6377Zm-.3633,8.9297h-.7031v-6.3398h.7031v6.3398Z"/>
    <path class="cls-12" d="m87.491,14.9633c-.1484-.0273-.3066-.041-.4746-.041-.4375,0-.8076.1221-1.1104.3662s-.5186.5986-.6475,1.0635v4.3535h-.6973v-6.3398h.6855l.0117,1.0078c.3711-.75.9668-1.125,1.7871-1.125.1953,0,.3496.0254.4629.0762l-.0176.6387Z"/>
    <path class="cls-12" d="m88.0945,17.4418c0-.6094.1182-1.1582.3545-1.6465s.5703-.8682,1.002-1.1396.9209-.4072,1.4678-.4072c.8438,0,1.5273.2959,2.0508.8877s.7852,1.376.7852,2.3525v.1465c0,.6133-.1182,1.165-.3545,1.6553s-.5693.8682-.999,1.1338-.9199.3984-1.4707.3984c-.8398,0-1.5225-.2959-2.0479-.8877s-.7881-1.376-.7881-2.3525v-.1406Zm.7031.1934c0,.7578.1963,1.3799.5889,1.8662s.9072.7295,1.5439.7295c.6328,0,1.1455-.2432,1.5381-.7295s.5889-1.1279.5889-1.9248v-.1348c0-.4844-.0898-.9277-.2695-1.3301s-.4316-.7139-.7559-.9346-.6953-.3311-1.1133-.3311c-.625,0-1.1348.2451-1.5293.7354s-.5918,1.1318-.5918,1.9248v.1289Z"/>
    <path class="cls-12" d="m96.7078,17.5121l-.8027.7734v2.4199h-.7031v-9h.7031v5.7598l.6621-.7148,2.4258-2.3848h.8848l-2.6895,2.6719,2.9238,3.668h-.8379l-2.5664-3.1934Z"/>
  </g>
  <g>
    <path class="cls-12" d="m296.2332,33.6989h-5.8477v-1.1602l2.7598-2.9414c.3789-.4141.6592-.7754.8408-1.084s.2725-.6016.2725-.8789c0-.3789-.0957-.6768-.2871-.8936s-.4648-.3252-.8203-.3252c-.3828,0-.6846.1318-.9053.3955s-.3311.6104-.3311,1.04h-1.6992c0-.5195.124-.9941.3721-1.4238s.5986-.7666,1.0518-1.0107.9668-.3662,1.541-.3662c.8789,0,1.5615.2109,2.0479.6328s.7295,1.0176.7295,1.7871c0,.4219-.1094.8516-.3281,1.2891s-.5938.9473-1.125,1.5293l-1.9395,2.0449h3.668v1.3652Z"/>
    <path class="cls-12" d="m303.0125,30.1716c0,1.1797-.2441,2.082-.7324,2.707s-1.2031.9375-2.1445.9375c-.9297,0-1.6406-.3066-2.1328-.9199s-.7441-1.4922-.7559-2.6367v-1.5703c0-1.1914.2471-2.0957.7412-2.7129s1.2061-.9258,2.1357-.9258,1.6406.3057,2.1328.917.7441,1.4893.7559,2.6338v1.5703Zm-1.6934-1.7266c0-.7075-.0967-1.2227-.29-1.5454s-.4951-.4839-.9053-.4839c-.3984,0-.6924.1533-.8818.4604s-.29.7866-.3018,1.4399v2.0762c0,.6958.0947,1.2129.2842,1.5513s.4932.5073.9111.5073c.4141,0,.7129-.1621.8965-.4868.1836-.3242.2793-.8208.2871-1.4897v-2.0293Z"/>
    <path class="cls-12" d="m305.8777,28.6833h.9023c.4297,0,.748-.1074.9551-.3223s.3105-.5.3105-.8555c0-.3438-.1025-.6113-.3076-.8027s-.4873-.2871-.8467-.2871c-.3242,0-.5957.0889-.8145.2666s-.3281.4092-.3281.6943h-1.6934c0-.4453.1201-.8447.3604-1.1982s.5762-.6299,1.0078-.8291.9072-.2988,1.4268-.2988c.9023,0,1.6094.2158,2.1211.6475s.7676,1.0264.7676,1.7842c0,.3906-.1191.75-.3574,1.0781s-.5508.5801-.9375.7559c.4805.1719.8389.4297,1.0752.7734s.3545.75.3545,1.2188c0,.7578-.2764,1.3652-.8291,1.8223s-1.2842.6855-2.1943.6855c-.8516,0-1.5479-.2246-2.0889-.6738s-.8115-1.043-.8115-1.7812h1.6934c0,.3203.1201.582.3604.7852s.5361.3047.8877.3047c.4023,0,.7178-.1064.9463-.3193s.3428-.4951.3428-.8467c0-.8516-.4688-1.2773-1.4062-1.2773h-.8965v-1.3242Z"/>
    <path class="cls-12" d="m316.782,30.1716c0,1.1797-.2441,2.082-.7324,2.707s-1.2031.9375-2.1445.9375c-.9297,0-1.6406-.3066-2.1328-.9199s-.7441-1.4922-.7559-2.6367v-1.5703c0-1.1914.2471-2.0957.7412-2.7129s1.2061-.9258,2.1357-.9258,1.6406.3057,2.1328.917.7441,1.4893.7559,2.6338v1.5703Zm-1.6934-1.7266c0-.7075-.0967-1.2227-.29-1.5454s-.4951-.4839-.9053-.4839c-.3984,0-.6924.1533-.8818.4604s-.29.7866-.3018,1.4399v2.0762c0,.6958.0947,1.2129.2842,1.5513s.4932.5073.9111.5073c.4141,0,.7129-.1621.8965-.4868.1836-.3242.2793-.8208.2871-1.4897v-2.0293Z"/>
  </g>
  <g>
    <path class="cls-12" d="m237.7303,33.6989h-5.5898v-.7793l2.9531-3.2812c.4375-.4961.7393-.8994.9053-1.21s.249-.6318.249-.9639c0-.4453-.1348-.8105-.4043-1.0957s-.6289-.4277-1.0781-.4277c-.5391,0-.958.1533-1.2568.46s-.4482.7334-.4482,1.2803h-1.084c0-.7852.2529-1.4199.7588-1.9043s1.1826-.7266,2.0303-.7266c.793,0,1.4199.208,1.8809.624s.6914.9697.6914,1.6611c0,.8398-.5352,1.8398-1.6055,3l-2.2852,2.4785h4.2832v.8848Z"/>
    <path class="cls-12" d="m244.2283,30.0602c0,1.2695-.2168,2.2129-.6504,2.8301s-1.1113.9258-2.0332.9258c-.9102,0-1.584-.3018-2.0215-.9053s-.6641-1.5049-.6797-2.7041v-1.4473c0-1.2539.2168-2.1855.6504-2.7949s1.1133-.9141,2.0391-.9141c.918,0,1.5938.2939,2.0273.8818s.6562,1.4951.668,2.7217v1.4062Zm-1.084-1.4824c0-.918-.1289-1.5869-.3867-2.0068s-.666-.6299-1.2246-.6299c-.5547,0-.959.209-1.2129.627s-.3848,1.0605-.3926,1.9277v1.7344c0,.9219.1338,1.6025.4014,2.042s.6729.6592,1.2158.6592c.5352,0,.9326-.207,1.1924-.6211s.3955-1.0664.4072-1.957v-1.7754Z"/>
    <path class="cls-12" d="m251.2068,33.6989h-5.5898v-.7793l2.9531-3.2812c.4375-.4961.7393-.8994.9053-1.21s.249-.6318.249-.9639c0-.4453-.1348-.8105-.4043-1.0957s-.6289-.4277-1.0781-.4277c-.5391,0-.958.1533-1.2568.46s-.4482.7334-.4482,1.2803h-1.084c0-.7852.2529-1.4199.7588-1.9043s1.1826-.7266,2.0303-.7266c.793,0,1.4199.208,1.8809.624s.6914.9697.6914,1.6611c0,.8398-.5352,1.8398-1.6055,3l-2.2852,2.4785h4.2832v.8848Z"/>
    <path class="cls-12" d="m255.9178,33.6989h-1.0898v-7.2246l-2.1855.8027v-.9844l3.1055-1.166h.1699v8.5723Z"/>
  </g>
  <g>
    <path class="cls-14" d="m7.7752,136.6452H2.8826v-.8848h4.8926v.8848Z"/>
    <path class="cls-14" d="m15.0525,140.4596h-5.5898v-.7793l2.9531-3.2812c.4375-.4961.7393-.8994.9053-1.21s.249-.6318.249-.9639c0-.4453-.1348-.8105-.4043-1.0957s-.6289-.4277-1.0781-.4277c-.5391,0-.958.1533-1.2568.46s-.4482.7334-.4482,1.2803h-1.084c0-.7852.2529-1.4199.7588-1.9043s1.1826-.7266,2.0303-.7266c.793,0,1.4199.208,1.8809.624s.6914.9697.6914,1.6611c0,.8398-.5352,1.8398-1.6055,3l-2.2852,2.4785h4.2832v.8848Z"/>
    <path class="cls-14" d="m21.5506,136.821c0,1.2695-.2168,2.2129-.6504,2.8301s-1.1113.9258-2.0332.9258c-.9102,0-1.584-.3018-2.0215-.9053s-.6641-1.5049-.6797-2.7041v-1.4473c0-1.2539.2168-2.1855.6504-2.7949s1.1133-.9141,2.0391-.9141c.918,0,1.5938.2939,2.0273.8818s.6562,1.4951.668,2.7217v1.4062Zm-1.084-1.4824c0-.918-.1289-1.5869-.3867-2.0068s-.666-.6299-1.2246-.6299c-.5547,0-.959.209-1.2129.627s-.3848,1.0605-.3926,1.9277v1.7344c0,.9219.1338,1.6025.4014,2.042s.6729.6592,1.2158.6592c.5352,0,.9326-.207,1.1924-.6211s.3955-1.0664.4072-1.957v-1.7754Z"/>
    <path class="cls-14" d="m25.8162,133.569c0-.5117.1631-.9336.4893-1.2656s.7451-.498,1.2568-.498c.5195,0,.9404.167,1.2627.501s.4834.7666.4834,1.2979v.416c0,.5156-.1631.9365-.4893,1.2627s-.7412.4893-1.2451.4893c-.5078,0-.9277-.1631-1.2598-.4893s-.498-.7607-.498-1.3037v-.4102Zm.8086.4487c0,.3057.0859.5571.2578.7549s.4023.2964.6914.2964c.2773,0,.501-.0957.6709-.2876s.2549-.4541.2549-.7871v-.4287c0-.3052-.084-.5581-.252-.7573-.168-.1997-.3965-.2998-.6855-.2998s-.5176.1001-.6855.2998c-.168.1992-.252.46-.252.7808v.4287Zm1.1953,5.7974l-.6152-.3867,4.166-6.668.6152.3867-4.166,6.668Zm2.1504-1.4473c0-.5117.1631-.9326.4893-1.2627s.7451-.4951,1.2568-.4951.9316.1641,1.2598.4922.4922.7637.4922,1.3066v.416c0,.5117-.1631.9326-.4893,1.2627s-.7432.4951-1.251.4951-.9277-.1631-1.2598-.4893-.498-.7607-.498-1.3037v-.4219Zm.8086.4546c0,.3091.0859.563.2578.7607s.4023.2964.6914.2964c.2812,0,.5059-.0967.6738-.2905s.252-.457.252-.79v-.4346c0-.3091-.085-.562-.2549-.7573-.1699-.1958-.3975-.2939-.6826-.2939-.2773,0-.5029.0972-.6768.2905-.1738.1938-.2607.4556-.2607.7842v.4346Z"/>
  </g>
  <g>
    <path class="cls-14" d="m7.7752,207.7619H2.8826v-.8848h4.8926v.8848Z"/>
    <path class="cls-14" d="m14.0389,208.7111h1.1836v.8848h-1.1836v1.9805h-1.0898v-1.9805h-3.8848v-.6387l3.8203-5.9121h1.1543v5.666Zm-3.7441,0h2.6543v-4.1836l-.1289.2344-2.5254,3.9492Z"/>
    <path class="cls-14" d="m21.5506,207.9377c0,1.2695-.2168,2.2129-.6504,2.8301s-1.1113.9258-2.0332.9258c-.9102,0-1.584-.3018-2.0215-.9053s-.6641-1.5049-.6797-2.7041v-1.4473c0-1.2539.2168-2.1855.6504-2.7949s1.1133-.9141,2.0391-.9141c.918,0,1.5938.2939,2.0273.8818s.6562,1.4951.668,2.7217v1.4062Zm-1.084-1.4824c0-.918-.1289-1.5869-.3867-2.0068s-.666-.6299-1.2246-.6299c-.5547,0-.959.209-1.2129.627s-.3848,1.0605-.3926,1.9277v1.7344c0,.9219.1338,1.6025.4014,2.042s.6729.6592,1.2158.6592c.5352,0,.9326-.207,1.1924-.6211s.3955-1.0664.4072-1.957v-1.7754Z"/>
    <path class="cls-14" d="m25.8162,204.6857c0-.5117.1631-.9336.4893-1.2656s.7451-.498,1.2568-.498c.5195,0,.9404.167,1.2627.501s.4834.7666.4834,1.2979v.416c0,.5156-.1631.9365-.4893,1.2627s-.7412.4893-1.2451.4893c-.5078,0-.9277-.1631-1.2598-.4893s-.498-.7607-.498-1.3037v-.4102Zm.8086.4487c0,.3057.0859.5571.2578.7549s.4023.2964.6914.2964c.2773,0,.501-.0957.6709-.2876s.2549-.4541.2549-.7871v-.4287c0-.3052-.084-.5581-.252-.7573-.168-.1997-.3965-.2998-.6855-.2998s-.5176.1001-.6855.2998c-.168.1992-.252.46-.252.7808v.4287Zm1.1953,5.7974l-.6152-.3867,4.166-6.668.6152.3867-4.166,6.668Zm2.1504-1.4473c0-.5117.1631-.9326.4893-1.2627s.7451-.4951,1.2568-.4951.9316.1641,1.2598.4922.4922.7637.4922,1.3066v.416c0,.5117-.1631.9326-.4893,1.2627s-.7432.4951-1.251.4951-.9277-.1631-1.2598-.4893-.498-.7607-.498-1.3037v-.4219Zm.8086.4546c0,.3091.0859.563.2578.7607s.4023.2964.6914.2964c.2812,0,.5059-.0967.6738-.2905s.252-.457.252-.79v-.4346c0-.3091-.085-.562-.2549-.7573-.1699-.1958-.3975-.2939-.6826-.2939-.2773,0-.5029.0972-.6768.2905-.1738.1938-.2607.4556-.2607.7842v.4346Z"/>
  </g>
  <g>
    <rect class="cls-11" x="58.3512" y="67.1141" width="65.6226" height="20.3328"/>
    <g>
      <path class="cls-15" d="m72.97,82.322c0-.332-.1172-.5869-.3516-.7646s-.6562-.3652-1.2656-.5625-1.0918-.3916-1.4473-.583c-.9688-.5234-1.4531-1.2285-1.4531-2.1152,0-.4609.1299-.8721.3896-1.2334s.6328-.6436,1.1191-.8467,1.0322-.3047,1.6377-.3047c.6094,0,1.1523.1104,1.6289.3311s.8467.5322,1.1104.9346.3955.8594.3955,1.3711h-1.7578c0-.3906-.123-.6943-.3691-.9111s-.5918-.3252-1.0371-.3252c-.4297,0-.7637.0908-1.002.2725s-.3574.4209-.3574.7178c0,.2773.1396.5098.4189.6973s.6904.3633,1.2334.5273c1,.3008,1.7285.6738,2.1855,1.1191s.6855,1,.6855,1.6641c0,.7383-.2793,1.3174-.8379,1.7373s-1.3105.6299-2.2559.6299c-.6562,0-1.2539-.1201-1.793-.3604s-.9502-.5693-1.2334-.9873-.4248-.9023-.4248-1.4531h1.7637c0,.9414.5625,1.4121,1.6875,1.4121.418,0,.7441-.085.9785-.2549s.3516-.4072.3516-.7119Z"/>
      <path class="cls-15" d="m77.8392,76.6618v1.5586h1.084v1.2422h-1.084v3.1641c0,.2344.0449.4023.1348.5039s.2617.1523.5156.1523c.1875,0,.3535-.0137.498-.041v1.2832c-.332.1016-.6738.1523-1.0254.1523-1.1875,0-1.793-.5996-1.8164-1.7988v-3.416h-.9258v-1.2422h.9258v-1.5586h1.6934Z"/>
      <path class="cls-15" d="m83.5403,84.5602c-.0781-.1523-.1348-.3418-.1699-.5684-.4102.457-.9434.6855-1.5996.6855-.6211,0-1.1357-.1797-1.5439-.5391s-.6123-.8125-.6123-1.3594c0-.6719.249-1.1875.7471-1.5469s1.2178-.541,2.1592-.5449h.7793v-.3633c0-.293-.0752-.5273-.2256-.7031s-.3877-.2637-.7119-.2637c-.2852,0-.5088.0684-.6709.2051s-.2432.3242-.2432.5625h-1.6934c0-.3672.1133-.707.3398-1.0195s.5469-.5576.9609-.7354.8789-.2666,1.3945-.2666c.7812,0,1.4014.1963,1.8604.5889s.6885.9443.6885,1.6553v2.748c.0039.6016.0879,1.0566.252,1.3652v.0996h-1.7109Zm-1.4004-1.1777c.25,0,.4805-.0557.6914-.167s.3672-.2607.4688-.4482v-1.0898h-.6328c-.8477,0-1.2988.293-1.3535.8789l-.0059.0996c0,.2109.0742.3848.2227.5215s.3516.2051.6094.2051Z"/>
      <path class="cls-15" d="m88.5853,82.4919l1.1777-4.2715h1.7695l-2.1387,6.3398h-1.6172l-2.1387-6.3398h1.7695l1.1777,4.2715Z"/>
      <path class="cls-15" d="m97.638,82.4919l1.1777-4.2715h1.7695l-2.1387,6.3398h-1.6172l-2.1387-6.3398h1.7695l1.1777,4.2715Z"/>
      <path class="cls-15" d="m111.1263,81.7184c-.0664.918-.4053,1.6406-1.0166,2.168s-1.417.791-2.417.791c-1.0938,0-1.9541-.3682-2.5811-1.1045s-.9404-1.7471-.9404-3.0322v-.5215c0-.8203.1445-1.543.4336-2.168s.7021-1.1045,1.2393-1.4385,1.1611-.501,1.8721-.501c.9844,0,1.7773.2637,2.3789.791s.9492,1.2676,1.043,2.2207h-1.7578c-.043-.5508-.1963-.9502-.46-1.1982s-.665-.3721-1.2041-.3721c-.5859,0-1.0244.21-1.3154.6299s-.4404,1.0713-.4482,1.9541v.6445c0,.9219.1396,1.5957.4189,2.0215s.7197.6387,1.3213.6387c.543,0,.9482-.124,1.2158-.3721s.4209-.6318.46-1.1514h1.7578Zm-3.4277-7.1895l.8555-.8379h1.4473v.0645l-1.7695,1.6465h-1.0723l-1.7695-1.6582v-.0527h1.4473l.8613.8379Z"/>
      <path class="cls-15" d="m115.4388,81.4372h-1.4004v3.123h-1.7578v-8.5312h3.1699c1.0078,0,1.7852.2246,2.332.6738s.8203,1.084.8203,1.9043c0,.582-.126,1.0674-.3779,1.4561s-.6338.6982-1.1455.9287l1.8457,3.4863v.082h-1.8867l-1.5996-3.123Zm-1.4004-1.4238h1.418c.4414,0,.7832-.1123,1.0254-.3369s.3633-.5342.3633-.9287c0-.4023-.1143-.7188-.3428-.9492s-.5791-.3457-1.0518-.3457h-1.4121v2.5605Z"/>
    </g>
  </g>
  <g>
    <path class="cls-14" d="m7.7752,278.8788H2.8826v-.8848h4.8926v.8848Z"/>
    <path class="cls-14" d="m13.7166,274.1562v.9199h-.1992c-.8438.0156-1.5156.2656-2.0156.75s-.7891,1.166-.8672,2.0449c.4492-.5156,1.0625-.7734,1.8398-.7734.7422,0,1.335.2617,1.7783.7852s.665,1.1992.665,2.0273c0,.8789-.2393,1.582-.7178,2.1094s-1.1201.791-1.9248.791c-.8164,0-1.4785-.3135-1.9863-.9404s-.7617-1.4346-.7617-2.4229v-.416c0-1.5703.335-2.7705,1.0049-3.6006s1.667-1.2549,2.9912-1.2744h.1934Zm-1.4238,3.8438c-.3711,0-.7129.1113-1.0254.334s-.5293.502-.6504.8379v.3984c0,.7031.1582,1.2695.4746,1.6992s.7109.6445,1.1836.6445c.4883,0,.8721-.1797,1.1514-.5391s.4189-.8301.4189-1.4121c0-.5859-.1416-1.0596-.4248-1.4209s-.6592-.542-1.1279-.542Z"/>
    <path class="cls-14" d="m21.5506,279.0546c0,1.2695-.2168,2.2129-.6504,2.8301s-1.1113.9258-2.0332.9258c-.9102,0-1.584-.3018-2.0215-.9053s-.6641-1.5049-.6797-2.7041v-1.4473c0-1.2539.2168-2.1855.6504-2.7949s1.1133-.9141,2.0391-.9141c.918,0,1.5938.2939,2.0273.8818s.6562,1.4951.668,2.7217v1.4062Zm-1.084-1.4824c0-.918-.1289-1.5869-.3867-2.0068s-.666-.6299-1.2246-.6299c-.5547,0-.959.209-1.2129.627s-.3848,1.0605-.3926,1.9277v1.7344c0,.9219.1338,1.6025.4014,2.042s.6729.6592,1.2158.6592c.5352,0,.9326-.207,1.1924-.6211s.3955-1.0664.4072-1.957v-1.7754Z"/>
    <path class="cls-14" d="m25.8162,275.8027c0-.5117.1631-.9336.4893-1.2656s.7451-.498,1.2568-.498c.5195,0,.9404.167,1.2627.501s.4834.7666.4834,1.2979v.416c0,.5156-.1631.9365-.4893,1.2627s-.7412.4893-1.2451.4893c-.5078,0-.9277-.1631-1.2598-.4893s-.498-.7607-.498-1.3037v-.4102Zm.8086.4492c0,.3057.0859.5566.2578.7549.1719.1973.4023.2959.6914.2959.2773,0,.501-.0957.6709-.2871.1699-.1924.2549-.4541.2549-.7871v-.4287c0-.3057-.084-.5586-.252-.7578s-.3965-.2998-.6855-.2998-.5176.1006-.6855.2998-.252.46-.252.7812v.4287Zm1.1953,5.7969l-.6152-.3867,4.166-6.668.6152.3867-4.166,6.668Zm2.1504-1.4473c0-.5117.1631-.9326.4893-1.2627s.7451-.4951,1.2568-.4951.9316.1641,1.2598.4922.4922.7637.4922,1.3066v.416c0,.5117-.1631.9326-.4893,1.2627s-.7432.4951-1.251.4951-.9277-.1631-1.2598-.4893-.498-.7607-.498-1.3037v-.4219Zm.8086.4551c0,.3086.0859.5625.2578.7607.1719.1973.4023.2959.6914.2959.2812,0,.5059-.0967.6738-.29.168-.1943.252-.457.252-.79v-.4346c0-.3096-.085-.5625-.2549-.7578s-.3975-.2939-.6826-.2939c-.2773,0-.5029.0977-.6768.291s-.2607.4551-.2607.7842v.4346Z"/>
  </g>
  <path class="cls-10" d="m43.1773,41.7669v7.5426"/>
  <path class="cls-10" d="m303.128,41.7669v7.5426"/>
  <path class="cls-10" d="m243.024,41.7669v7.5426"/>
  <g>
    <polyline class="cls-6" points="43.2741 64.5529 49.7676 96.9238 56.261 107.339 62.7544 119.3615 69.248 135.0776 75.7414 136.9279 82.2348 131.3344 88.7285 139.4404 95.2219 150.4887 101.7153 168.2241 108.209 150.3876 114.7024 151.1867 121.1958 157.9345 127.6894 152.1406 134.1828 150.2199 140.6762 153.6594 147.1697 151.3058 153.6633 148.4052 160.1567 157.3557 166.6501 174.4216 173.1438 169.4489 179.6372 172.3327 186.1306 179.5031 192.6242 189.2104 199.1177 192.9926 205.6111 190.5058 212.1047 187.6176 218.5981 185.9858 225.0915 188.8605 231.5849 199.0375 238.0786 219.0776 243.3589 211.3876"/>
    <path class="cls-15" d="m245.1548,212.7575c.7051-1.0269.4441-2.4314-.5828-3.1367-1.0269-.7051-2.4314-.4441-3.1365.5828-.7053,1.0269-.4443,2.4316.5825,3.1367,1.0271.7051,2.4316.4441,3.1367-.5828Z"/>
  </g>
  <circle class="cls-7" cx="303.128" cy="260.5717" r="3.5564"/>
  <g>
    <rect class="cls-11" x="152.4807" y="272.6582" width="123.1174" height="27.6919"/>
    <g>
      <path class="cls-16" d="m166.9007,275.706c-.1055.9023-.4385,1.5986-.999,2.0889s-1.3057.7354-2.2354.7354c-1.0078,0-1.8154-.3613-2.4229-1.084s-.9111-1.6895-.9111-2.9004v-.8203c0-.793.1416-1.4902.4248-2.0918s.6846-1.0635,1.2041-1.3857,1.1211-.4834,1.8047-.4834c.9062,0,1.6328.2529,2.1797.7588s.8652,1.2061.9551,2.1006h-1.1309c-.0977-.6816-.3096-1.1753-.6357-1.481s-.7822-.4585-1.3682-.4585c-.7188,0-1.2822.2656-1.6904.7979-.4082.5312-.6123,1.2881-.6123,2.269v.8271c0,.9263.1934,1.6636.5801,2.2109s.9277.8208,1.623.8208c.625,0,1.1045-.1416,1.4385-.4248s.5557-.7764.665-1.4795h1.1309Z"/>
      <path class="cls-16" d="m169.4554,269.4189h1.3125l-1.5703,1.7227-.873-.0029,1.1309-1.7197Zm-.0117,8.9941h-1.0898v-6.3398h1.0898v6.3398Z"/>
      <path class="cls-16" d="m172.4085,278.413h-1.084v-9h1.084v9Z"/>
      <path class="cls-16" d="m182.1058,274.4697h-3.6973v3.0234h4.2949v.9199h-5.4199v-8.5312h5.3613v.9199h-4.2363v2.748h3.6973v.9199Z"/>
      <path class="cls-16" d="m190.1097,269.8818v5.8008c-.0039.8047-.2568,1.4629-.7588,1.9746s-1.1826.7988-2.042.8613l-.2988.0117c-.9336,0-1.6777-.252-2.2324-.7559s-.8359-1.1973-.8438-2.0801v-5.8125h1.1133v5.7773c0,.6172.1699,1.0967.5098,1.4385s.8242.5127,1.4531.5127c.6367,0,1.124-.1699,1.4619-.5098s.5068-.8184.5068-1.4355v-5.7832h1.1309Z"/>
      <path class="cls-16" d="m195.805,272.0732v7.0723c0,1.2188-.5527,1.8281-1.6582,1.8281-.2383,0-.459-.0352-.6621-.105v-.8618c.125.0312.2891.0469.4922.0469.2422,0,.4268-.0654.5537-.1963s.1904-.3589.1904-.6831v-7.1011h1.084Zm-1.1953-1.6816c0-.1719.0537-.3193.1611-.4424s.2646-.1846.4717-.1846c.2109,0,.3711.0605.4805.1816s.1641.2695.1641.4453-.0547.3223-.1641.4395-.2695.1758-.4805.1758-.3691-.0586-.4746-.1758-.1582-.2637-.1582-.4395Z"/>
      <path class="cls-16" d="m200.1819,278.5302c-.8594,0-1.5586-.2822-2.0977-.8467s-.8086-1.3193-.8086-2.2646v-.1992c0-.6289.1201-1.1904.3604-1.6846s.5762-.8809,1.0078-1.1602.8994-.4189,1.4033-.4189c.8242,0,1.4648.2715,1.9219.8145s.6855,1.3203.6855,2.332v.4512h-4.2949c.0156.625.1982,1.1299.5479,1.5146s.7939.5771,1.333.5771c.3828,0,.707-.0781.9727-.2344s.498-.3633.6973-.6211l.6621.5156c-.5312.8164-1.3281,1.2246-2.3906,1.2246Zm-.1348-5.6836c-.4375,0-.8047.1592-1.1016.4775s-.4805.7646-.5508,1.3389h3.1758v-.082c-.0312-.5508-.1797-.9775-.4453-1.2803s-.625-.4541-1.0781-.4541Z"/>
      <path class="cls-16" d="m210.5706,276.7314c0-.293-.1104-.5205-.3311-.6826s-.6055-.3018-1.1543-.4189-.9844-.2578-1.3066-.4219-.5605-.3594-.7148-.5859-.2314-.4961-.2314-.8086c0-.5195.2197-.959.6592-1.3184s1.001-.5391,1.6846-.5391c.7188,0,1.3018.1855,1.749.5566s.6709.8457.6709,1.4238h-1.0898c0-.2969-.126-.5527-.3779-.7676s-.5693-.3223-.9521-.3223c-.3945,0-.7031.0859-.9258.2578s-.334.3965-.334.6738c0,.2617.1035.459.3105.5918s.5811.2598,1.1221.3809.9795.2656,1.3154.4336.585.3701.7471.6064.2432.5244.2432.8643c0,.5664-.2266,1.0205-.6797,1.3623s-1.041.5127-1.7637.5127c-.5078,0-.957-.0898-1.3477-.2695s-.6963-.4307-.917-.7529-.3311-.6709-.3311-1.0459h1.084c.0195.3633.165.6514.4365.8643s.6299.3193,1.0752.3193c.4102,0,.7393-.083.9873-.249s.3721-.3877.3721-.665Z"/>
      <path class="cls-16" d="m214.0921,272.0732l.0352.7969c.4844-.6094,1.1172-.9141,1.8984-.9141,1.3398,0,2.0156.7559,2.0273,2.2676v4.1895h-1.084v-4.1953c-.0039-.457-.1084-.7949-.3135-1.0137s-.5244-.3281-.958-.3281c-.3516,0-.6602.0938-.9258.2812s-.4727.4336-.6211.7383v4.5176h-1.084v-6.3398h1.0254Z"/>
      <path class="cls-16" d="m220.8772,269.4189h1.3125l-1.5703,1.7227-.873-.0029,1.1309-1.7197Zm-.0117,8.9941h-1.0898v-6.3398h1.0898v6.3398Z"/>
      <path class="cls-16" d="m223.6722,277.5283h3.709v.8848h-5.0332v-.7969l3.498-4.6465h-3.4453v-.8965h4.8047v.7676l-3.5332,4.6875Zm1.166-7.1191l.8789-.9961h.9375v.0586l-1.4883,1.6055h-.6621l-1.4707-1.6055v-.0586h.9199l.8848.9961Z"/>
      <path class="cls-16" d="m228.6058,270.3915c0-.1758.0537-.3242.1611-.4453s.2666-.1816.4775-.1816.3711.0605.4805.1816.1641.2695.1641.4453-.0547.3223-.1641.4395-.2695.1758-.4805.1758-.3701-.0586-.4775-.1758-.1611-.2637-.1611-.4395Zm1.1719,8.0215h-1.084v-6.3398h1.084v6.3398Z"/>
      <path class="cls-16" d="m232.9827,270.538v1.5352h1.1836v.8379h-1.1836v3.9365c0,.2544.0527.4448.1582.5723.1055.127.2852.1904.5391.1904.125,0,.2969-.0234.5156-.0703v.874c-.2852.0771-.5625.1162-.832.1162-.4844,0-.8496-.1465-1.0957-.4395s-.3691-.709-.3691-1.248v-3.9316h-1.1543v-.8379h1.1543v-1.5352h1.084Z"/>
      <path class="cls-16" d="m241.0335,278.5302c-.8594,0-1.5586-.2822-2.0977-.8467s-.8086-1.3193-.8086-2.2646v-.1992c0-.6289.1201-1.1904.3604-1.6846s.5762-.8809,1.0078-1.1602.8994-.4189,1.4033-.4189c.8242,0,1.4648.2715,1.9219.8145s.6855,1.3203.6855,2.332v.4512h-4.2949c.0156.625.1982,1.1299.5479,1.5146s.7939.5771,1.333.5771c.3828,0,.707-.0781.9727-.2344s.498-.3633.6973-.6211l.6621.5156c-.5312.8164-1.3281,1.2246-2.3906,1.2246Zm-.1348-5.6836c-.4375,0-.8047.1592-1.1016.4775s-.4805.7646-.5508,1.3389h3.1758v-.082c-.0312-.5508-.1797-.9775-.4453-1.2803s-.625-.4541-1.0781-.4541Z"/>
      <path class="cls-16" d="m245.7796,272.0732l.0293.7031c.4648-.5469,1.0918-.8203,1.8809-.8203.8867,0,1.4902.3398,1.8105,1.0195.2109-.3047.4854-.5508.8232-.7383s.7373-.2812,1.1982-.2812c1.3906,0,2.0977.7363,2.1211,2.209v4.248h-1.084v-4.1836c0-.4531-.1035-.792-.3105-1.0166s-.5547-.3369-1.043-.3369c-.4023,0-.7363.1201-1.002.3604s-.4199.5635-.4629.9697v4.207h-1.0898v-4.1543c0-.9219-.4512-1.3828-1.3535-1.3828-.7109,0-1.1973.3027-1.459.9082v4.6289h-1.084v-6.3398h1.0254Z"/>
      <path class="cls-16" d="m255.2835,270.3915c0-.1758.0537-.3242.1611-.4453s.2666-.1816.4775-.1816.3711.0605.4805.1816.1641.2695.1641.4453-.0547.3223-.1641.4395-.2695.1758-.4805.1758-.3701-.0586-.4775-.1758-.1611-.2637-.1611-.4395Zm1.1719,8.0215h-1.084v-6.3398h1.084v6.3398Z"/>
      <path class="cls-16" d="m261.8812,276.7314c0-.293-.1104-.5205-.3311-.6826s-.6055-.3018-1.1543-.4189-.9844-.2578-1.3066-.4219-.5605-.3594-.7148-.5859-.2314-.4961-.2314-.8086c0-.5195.2197-.959.6592-1.3184s1.001-.5391,1.6846-.5391c.7188,0,1.3018.1855,1.749.5566s.6709.8457.6709,1.4238h-1.0898c0-.2969-.126-.5527-.3779-.7676s-.5693-.3223-.9521-.3223c-.3945,0-.7031.0859-.9258.2578s-.334.3965-.334.6738c0,.2617.1035.459.3105.5918s.5811.2598,1.1221.3809.9795.2656,1.3154.4336.585.3701.7471.6064.2432.5244.2432.8643c0,.5664-.2266,1.0205-.6797,1.3623s-1.041.5127-1.7637.5127c-.5078,0-.957-.0898-1.3477-.2695s-.6963-.4307-.917-.7529-.3311-.6709-.3311-1.0459h1.084c.0195.3633.165.6514.4365.8643s.6299.3193,1.0752.3193c.4102,0,.7393-.083.9873-.249s.3721-.3877.3721-.665Z"/>
      <path class="cls-16" d="m267.0081,278.5302c-.8594,0-1.5586-.2822-2.0977-.8467s-.8086-1.3193-.8086-2.2646v-.1992c0-.6289.1201-1.1904.3604-1.6846s.5762-.8809,1.0078-1.1602.8994-.4189,1.4033-.4189c.8242,0,1.4648.2715,1.9219.8145s.6855,1.3203.6855,2.332v.4512h-4.2949c.0156.625.1982,1.1299.5479,1.5146s.7939.5771,1.333.5771c.3828,0,.707-.0781.9727-.2344s.498-.3633.6973-.6211l.6621.5156c-.5312.8164-1.3281,1.2246-2.3906,1.2246Zm-.1348-5.6836c-.4375,0-.8047.1592-1.1016.4775s-.4805.7646-.5508,1.3389h3.1758v-.082c-.0312-.5508-.1797-.9775-.4453-1.2803s-.625-.4541-1.0781-.4541Z"/>
      <path class="cls-16" d="m161.9495,289.5844c0-.6289.1211-1.1895.3633-1.6816s.5908-.873,1.0459-1.1426.9834-.4043,1.585-.4043c.8555,0,1.5537.2617,2.0947.7852s.8428,1.2344.9053,2.1328l.0117.4336c0,.9727-.2715,1.7529-.8145,2.3408s-1.2715.8818-2.1855.8818-1.6436-.293-2.1885-.8789-.8174-1.3828-.8174-2.3906v-.0762Zm1.6934.1201c0,.6025.1133,1.0635.3398,1.3818.2266.3193.5508.4785.9727.4785.4102,0,.7305-.1572.9609-.4727.2305-.3145.3457-.8184.3457-1.5107,0-.5908-.1152-1.0483-.3457-1.373s-.5547-.4873-.9727-.4873c-.4141,0-.7344.1616-.9609.4844s-.3398.8223-.3398,1.499Z"/>
      <path class="cls-16" d="m172.1683,288.6176l.4922-4.3359h4.7812v1.4121h-3.3926l-.2109,1.834c.4023-.2148.8301-.3223,1.2832-.3223.8125,0,1.4492.252,1.9102.7559s.6914,1.209.6914,2.1152c0,.5508-.1162,1.0439-.3486,1.4795s-.5654.7734-.999,1.0137-.9453.3604-1.5352.3604c-.5156,0-.9941-.1045-1.4355-.3135s-.79-.5029-1.0459-.8818-.3916-.8105-.4072-1.2949h1.6758c.0352.3555.1592.6318.3721.8291s.4912.2959.835.2959c.3828,0,.6777-.1377.8848-.4131s.3105-.665.3105-1.1689c0-.4844-.1191-.8555-.3574-1.1133s-.5762-.3867-1.0137-.3867c-.4023,0-.7285.1055-.9785.3164l-.1641.1523-1.3477-.334Z"/>
      <path class="cls-16" d="m179.053,288.6176l.4922-4.3359h4.7812v1.4121h-3.3926l-.2109,1.834c.4023-.2148.8301-.3223,1.2832-.3223.8125,0,1.4492.252,1.9102.7559s.6914,1.209.6914,2.1152c0,.5508-.1162,1.0439-.3486,1.4795s-.5654.7734-.999,1.0137-.9453.3604-1.5352.3604c-.5156,0-.9941-.1045-1.4355-.3135s-.79-.5029-1.0459-.8818-.3916-.8105-.4072-1.2949h1.6758c.0352.3555.1592.6318.3721.8291s.4912.2959.835.2959c.3828,0,.6777-.1377.8848-.4131s.3105-.665.3105-1.1689c0-.4844-.1191-.8555-.3574-1.1133s-.5762-.3867-1.0137-.3867c-.4023,0-.7285.1055-.9785.3164l-.1641.1523-1.3477-.334Z"/>
      <path class="cls-16" d="m188.6507,285.9223c0-.5234.1699-.9482.5098-1.2744s.7852-.4893,1.3359-.4893c.5586,0,1.0078.1611,1.3477.4834s.5098.7588.5098,1.3096v.4219c0,.5273-.1699.9512-.5098,1.2715s-.7852.4805-1.3359.4805c-.5547,0-1.0029-.1611-1.3447-.4834s-.5127-.7568-.5127-1.3037v-.416Zm1.125.4512c0,.2344.0674.4229.2021.5654s.3115.2139.5303.2139.3926-.0723.5215-.2168.1934-.3379.1934-.5801v-.4336c0-.2344-.0645-.4238-.1934-.5684s-.3066-.2168-.5332-.2168c-.2148,0-.3887.0713-.5215.2139s-.1992.3408-.1992.5947v.4277Zm1.0664,5.8008l-.8262-.4453,4.166-6.668.8262.4453-4.166,6.668Zm1.8867-1.4531c0-.5273.1719-.9521.5156-1.2744s.7891-.4834,1.3359-.4834c.5547,0,1.0029.1592,1.3447.4775s.5127.7568.5127,1.3154v.4219c0,.5234-.168.9463-.5039,1.2686s-.7832.4834-1.3418.4834c-.5625,0-1.0137-.1621-1.3535-.4863s-.5098-.7539-.5098-1.2891v-.4336Zm1.125.457c0,.2148.0703.3984.2109.5508s.3164.2285.5273.2285c.4766,0,.7148-.2637.7148-.791v-.4453c0-.2344-.0664-.4229-.1992-.5654s-.3086-.2139-.5273-.2139-.3945.0713-.5273.2139-.1992.3369-.1992.583v.4395Z"/>
      <path class="cls-16" d="m200.4808,289.5903c0-.9727.2305-1.7549.6914-2.3467s1.0645-.8877,1.8105-.8877c.7422,0,1.3301.2539,1.7637.7617v-3.3047h1.084v9h-.9961l-.0527-.6797c-.4336.5312-1.0371.7969-1.8105.7969-.7344,0-1.333-.3008-1.7959-.9023s-.6943-1.3867-.6943-2.3555v-.082Zm1.084.123c0,.7188.1484,1.2812.4453,1.6875s.707.6094,1.2305.6094c.6875,0,1.1895-.3086,1.5059-.9258v-2.9121c-.3242-.5977-.8223-.8965-1.4941-.8965-.5312,0-.9453.2051-1.2422.6152s-.4453,1.0176-.4453,1.8223Z"/>
      <path class="cls-16" d="m207.2249,289.5844c0-.6211.1221-1.1797.3662-1.6758s.584-.8789,1.0195-1.1484.9326-.4043,1.4912-.4043c.8633,0,1.5615.2988,2.0947.8965s.7998,1.3926.7998,2.3848v.0762c0,.6172-.1182,1.1709-.3545,1.6611s-.5742.8721-1.0137,1.1455-.9443.4102-1.5146.4102c-.8594,0-1.5557-.2988-2.0889-.8965s-.7998-1.3887-.7998-2.373v-.0762Zm1.0898.1289c0,.7031.1631,1.2676.4893,1.6934s.7627.6387,1.3096.6387c.5508,0,.9883-.2158,1.3125-.6475s.4863-1.0361.4863-1.8135c0-.6953-.165-1.2588-.4951-1.6904s-.7686-.6475-1.3154-.6475c-.5352,0-.9668.2129-1.2949.6387s-.4922,1.0352-.4922,1.8281Z"/>
      <path class="cls-16" d="m220.3909,287.4457c-.1641-.0273-.3418-.041-.5332-.041-.7109,0-1.1934.3027-1.4473.9082v4.5h-1.084v-6.3398h1.0547l.0176.7324c.3555-.5664.8594-.8496,1.5117-.8496.2109,0,.3711.0273.4805.082v1.0078Z"/>
      <path class="cls-16" d="m220.9827,289.5844c0-.6211.1221-1.1797.3662-1.6758s.584-.8789,1.0195-1.1484.9326-.4043,1.4912-.4043c.8633,0,1.5615.2988,2.0947.8965s.7998,1.3926.7998,2.3848v.0762c0,.6172-.1182,1.1709-.3545,1.6611s-.5742.8721-1.0137,1.1455-.9443.4102-1.5146.4102c-.8594,0-1.5557-.2988-2.0889-.8965s-.7998-1.3887-.7998-2.373v-.0762Zm1.0898.1289c0,.7031.1631,1.2676.4893,1.6934s.7627.6387,1.3096.6387c.5508,0,.9883-.2158,1.3125-.6475s.4863-1.0361.4863-1.8135c0-.6953-.165-1.2588-.4951-1.6904s-.7686-.6475-1.3154-.6475c-.5352,0-.9668.2129-1.2949.6387s-.4922,1.0352-.4922,1.8281Z"/>
      <path class="cls-16" d="m229.8831,289.8774l-.6797.709v2.2266h-1.084v-9h1.084v5.4434l.5801-.6973,1.9746-2.0859h1.3184l-2.4668,2.6484,2.7539,3.6914h-1.2715l-2.209-2.9355Z"/>
      <path class="cls-16" d="m238.1097,292.186c-.4219.4961-1.041.7441-1.8574.7441-.6758,0-1.1904-.1963-1.5439-.5889s-.5322-.9736-.5361-1.7432v-4.125h1.084v4.0957c0,.9609.3906,1.4414,1.1719,1.4414.8281,0,1.3789-.3086,1.6523-.9258v-4.6113h1.084v6.3398h-1.0312l-.0234-.627Z"/>
      <path class="cls-16" d="m249.2601,292.8129h-5.5898v-.7793l2.9531-3.2812c.4375-.4961.7393-.8994.9053-1.21s.249-.6318.249-.9639c0-.4453-.1348-.8105-.4043-1.0957s-.6289-.4277-1.0781-.4277c-.5391,0-.958.1533-1.2568.46s-.4482.7334-.4482,1.2803h-1.084c0-.7852.2529-1.4199.7588-1.9043s1.1826-.7266,2.0303-.7266c.793,0,1.4199.208,1.8809.624s.6914.9697.6914,1.6611c0,.8398-.5352,1.8398-1.6055,3l-2.2852,2.4785h4.2832v.8848Z"/>
      <path class="cls-16" d="m255.7581,289.1742c0,1.2695-.2168,2.2129-.6504,2.8301s-1.1113.9258-2.0332.9258c-.9102,0-1.584-.3018-2.0215-.9053s-.6641-1.5049-.6797-2.7041v-1.4473c0-1.2539.2168-2.1855.6504-2.7949s1.1133-.9141,2.0391-.9141c.918,0,1.5938.2939,2.0273.8818s.6562,1.4951.668,2.7217v1.4062Zm-1.084-1.4824c0-.918-.1289-1.5869-.3867-2.0068s-.666-.6299-1.2246-.6299c-.5547,0-.959.209-1.2129.627s-.3848,1.0605-.3926,1.9277v1.7344c0,.9219.1338,1.6025.4014,2.042s.6729.6592,1.2158.6592c.5352,0,.9326-.207,1.1924-.6211s.3955-1.0664.4072-1.957v-1.7754Z"/>
      <path class="cls-16" d="m258.723,288.0199h.8145c.5117-.0078.9141-.1426,1.207-.4043s.4395-.6152.4395-1.0605c0-1-.498-1.5-1.4941-1.5-.4688,0-.8428.1338-1.1221.4014s-.4189.6221-.4189,1.0635h-1.084c0-.6758.2471-1.2373.7412-1.6846s1.1221-.6709,1.8838-.6709c.8047,0,1.4355.2129,1.8926.6387s.6855,1.0176.6855,1.7754c0,.3711-.1201.7305-.3604,1.0781s-.5674.6074-.9814.7793c.4688.1484.8311.3945,1.0869.7383s.3838.7637.3838,1.2598c0,.7656-.25,1.373-.75,1.8223s-1.1504.6738-1.9512.6738-1.4521-.2168-1.9541-.6504-.7529-1.0059-.7529-1.7168h1.0898c0,.4492.1465.8086.4395,1.0781s.6855.4043,1.1777.4043c.5234,0,.9238-.1367,1.2012-.4102s.416-.666.416-1.1777c0-.4961-.1523-.877-.457-1.1426s-.7441-.4023-1.3184-.4102h-.8145v-.8848Z"/>
      <path class="cls-16" d="m269.2347,289.1742c0,1.2695-.2168,2.2129-.6504,2.8301s-1.1113.9258-2.0332.9258c-.9102,0-1.584-.3018-2.0215-.9053s-.6641-1.5049-.6797-2.7041v-1.4473c0-1.2539.2168-2.1855.6504-2.7949s1.1133-.9141,2.0391-.9141c.918,0,1.5938.2939,2.0273.8818s.6562,1.4951.668,2.7217v1.4062Zm-1.084-1.4824c0-.918-.1289-1.5869-.3867-2.0068s-.666-.6299-1.2246-.6299c-.5547,0-.959.209-1.2129.627s-.3848,1.0605-.3926,1.9277v1.7344c0,.9219.1338,1.6025.4014,2.042s.6729.6592,1.2158.6592c.5352,0,.9326-.207,1.1924-.6211s.3955-1.0664.4072-1.957v-1.7754Z"/>
    </g>
  </g>
  <g>
    <rect class="cls-11" x="147.7294" y="230.4084" width="146.2372" height="27.6919"/>
    <g>
      <path class="cls-13" d="m183.9813,247.8241h-.9424l-3.5791-5.4785v5.4785h-.9424v-7.1094h.9424l3.5889,5.5029v-5.5029h.9326v7.1094Z"/>
      <path class="cls-13" d="m187.6971,247.9218c-.7163,0-1.2988-.2354-1.748-.7051-.4492-.4707-.6738-1.0996-.6738-1.8877v-.166c0-.5234.1001-.9922.3003-1.4033.2002-.4121.48-.7344.8398-.9668.3599-.2334.7495-.3496,1.1694-.3496.687,0,1.2207.2266,1.6016.6787.3809.4531.5713,1.1006.5713,1.9434v.376h-3.5791c.0132.5215.165.9414.4565,1.2627.2915.3203.6616.4805,1.1108.4805.3188,0,.5894-.0645.8105-.1953.2212-.1299.415-.3027.5811-.5176l.5518.4297c-.4429.6807-1.1069,1.0205-1.9922,1.0205Zm-.1123-4.7363c-.3647,0-.6704.1328-.918.3984-.2476.2646-.4004.6367-.459,1.1152h2.6465v-.0684c-.0259-.459-.1499-.8145-.3711-1.0664-.2212-.2529-.521-.3789-.8984-.3789Z"/>
      <path class="cls-13" d="m194.0643,247.8241c-.0522-.1035-.0942-.2891-.127-.5566-.4199.4365-.9214.6543-1.5039.6543-.521,0-.9482-.1475-1.2817-.4414-.3335-.2949-.5005-.668-.5005-1.1211,0-.5498.209-.9775.6274-1.2812.4185-.3047,1.0068-.457,1.7651-.457h.8789v-.415c0-.3154-.0942-.5674-.2832-.7539-.189-.1875-.4673-.2812-.835-.2812-.3223,0-.5923.082-.8105.2441-.2183.1631-.3271.3604-.3271.5908h-.9082c0-.2637.0938-.5186.2808-.7637.187-.2461.4409-.4404.7617-.584.3208-.1426.6729-.2148,1.0571-.2148.6089,0,1.0854.1523,1.4307.457.3452.3037.5239.7236.5371,1.2568v2.4316c0,.4854.062.8711.1855,1.1572v.0781h-.9473Zm-1.499-.6885c.2832,0,.5518-.0732.8057-.2197s.438-.3369.5518-.5713v-1.084h-.708c-1.1069,0-1.6602.3242-1.6602.9717,0,.2832.0942.5049.2832.6641.189.1602.4312.2393.7275.2393Z"/>
      <path class="cls-13" d="m197.7166,245.3779l-.5664.5908v1.8555h-.9033v-7.5h.9033v4.5361l.4834-.5811,1.6455-1.7383h1.0986l-2.0557,2.207,2.2949,3.0762h-1.0596l-1.8408-2.4463Z"/>
      <path class="cls-13" d="m202.5359,241.2616v1.2793h.9863v.6982h-.9863v3.2803c0,.2119.0439.3711.1318.4775.0879.1055.2378.1582.4492.1582.104,0,.2476-.0195.4297-.0586v.7285c-.2378.0645-.4688.0967-.6934.0967-.4038,0-.708-.1221-.9131-.3662s-.3076-.5908-.3076-1.04v-3.2764h-.9619v-.6982h.9619v-1.2793h.9033Z"/>
      <path class="cls-13" d="m207.8387,247.3017c-.3516.4141-.8677.6201-1.5479.6201-.563,0-.9922-.1631-1.2866-.4902s-.4434-.8115-.4468-1.4531v-3.4375h.9033v3.4131c0,.8008.3257,1.2012.9766,1.2012.6899,0,1.1489-.2568,1.377-.7715v-3.8428h.9033v5.2832h-.8594l-.0195-.5225Z"/>
      <path class="cls-13" d="m213.3514,247.8241c-.0522-.1035-.0942-.2891-.127-.5566-.4199.4365-.9214.6543-1.5039.6543-.521,0-.9482-.1475-1.2817-.4414-.3335-.2949-.5005-.668-.5005-1.1211,0-.5498.209-.9775.6274-1.2812.4185-.3047,1.0068-.457,1.7651-.457h.8789v-.415c0-.3154-.0942-.5674-.2832-.7539-.189-.1875-.4673-.2812-.835-.2812-.3223,0-.5923.082-.8105.2441-.2183.1631-.3271.3604-.3271.5908h-.9082c0-.2637.0938-.5186.2808-.7637.187-.2461.4409-.4404.7617-.584.3208-.1426.6729-.2148,1.0571-.2148.6089,0,1.0854.1523,1.4307.457.3452.3037.5239.7236.5371,1.2568v2.4316c0,.4854.062.8711.1855,1.1572v.0781h-.9473Zm-1.499-.6885c.2832,0,.5518-.0732.8057-.2197s.438-.3369.5518-.5713v-1.084h-.708c-1.1069,0-1.6602.3242-1.6602.9717,0,.2832.0942.5049.2832.6641.189.1602.4312.2393.7275.2393Zm.835-6.8115h1.0938l-1.3086,1.4355-.7275-.002.9424-1.4336Z"/>
      <path class="cls-13" d="m216.5105,247.8241h-.9033v-7.5h.9033v7.5Z"/>
      <path class="cls-13" d="m218.8104,242.5409l.0293.6641c.4038-.5078.9312-.7617,1.582-.7617,1.1167,0,1.6797.6299,1.6895,1.8896v3.4912h-.9033v-3.4961c-.0034-.3809-.0903-.6621-.2612-.8447-.1709-.1816-.437-.2734-.7983-.2734-.293,0-.5503.0781-.7715.2344s-.394.3613-.5176.6152v3.7646h-.9033v-5.2832h.8545Z"/>
      <path class="cls-13" d="m224.4647,240.329h1.0938l-1.3086,1.4355-.7275-.002.9424-1.4336Zm-.0098,7.4951h-.9082v-5.2832h.9082v5.2832Z"/>
      <path class="cls-13" d="m230.5389,247.1845c.3223,0,.604-.0977.8447-.293s.3745-.4395.4004-.7324h.8545c-.0161.3027-.1206.5908-.3125.8643s-.4482.4922-.769.6543c-.3208.1631-.6602.2441-1.0181.2441-.7192,0-1.2915-.2402-1.7163-.7197-.4248-.4805-.6372-1.1367-.6372-1.9707v-.1514c0-.5137.0942-.9717.2832-1.3721s.46-.7109.813-.9326c.353-.2207.7705-.332,1.2524-.332.5923,0,1.085.1777,1.4771.5322.3921.3555.6016.8154.6274,1.3818h-.8545c-.0259-.3418-.1553-.6221-.3882-.8418s-.52-.3301-.8618-.3301c-.459,0-.8145.165-1.0669.4961-.2524.3301-.3784.8076-.3784,1.4326v.1709c0,.6094.1255,1.0781.376,1.4062.2505.3291.6089.4932,1.0742.4932Z"/>
      <path class="cls-13" d="m234.6453,240.329h1.0938l-1.3086,1.4355-.7275-.002.9424-1.4336Zm-.0098,7.4951h-.9082v-5.2832h.9082v5.2832Z"/>
      <path class="cls-13" d="m237.1063,247.8241h-.9033v-7.5h.9033v7.5Z"/>
      <path class="cls-13" d="m246.3982,245.5683c-.0879.752-.3652,1.332-.8325,1.7412-.4673.4082-1.0879.6123-1.8628.6123-.8398,0-1.5127-.3008-2.019-.9033-.5063-.6016-.7593-1.4072-.7593-2.417v-.6836c0-.6602.1182-1.2412.354-1.7432.2358-.501.5703-.8857,1.0034-1.1543s.9341-.4033,1.5039-.4033c.7554,0,1.3608.2109,1.8164.6328.4556.4209.7212,1.0049.7959,1.75h-.9424c-.0815-.5674-.2578-.9795-.5298-1.2344-.272-.2539-.6519-.3818-1.1401-.3818-.5991,0-1.0684.2217-1.4087.665s-.5103,1.0732-.5103,1.8906v.6895c0,.7725.1611,1.3867.4834,1.8428s.7729.6836,1.3525.6836c.521,0,.9204-.1182,1.1987-.3535.2783-.2363.4629-.6475.5542-1.2334h.9424Zm-2.7441-6.0889l.7324-.8301h.7812v.0488l-1.2402,1.3379h-.5518l-1.2256-1.3379v-.0488h.7666l.7373.8301Z"/>
      <path class="cls-13" d="m250.285,244.9482h-1.6699v2.876h-.9424v-7.1094h2.3535c.8008,0,1.417.1826,1.8481.5469.4312.3652.647.8955.647,1.5918,0,.4434-.1196.8291-.3589,1.1572-.2393.3291-.5723.5752-.9985.7373l1.6699,3.0176v.0586h-1.0059l-1.543-2.876Zm-1.6699-.7666h1.4404c.4653,0,.8359-.1201,1.1108-.3613s.4126-.5645.4126-.9688c0-.4404-.1309-.7783-.3931-1.0127-.2622-.2354-.6406-.3535-1.1353-.3574h-1.4355v2.7002Z"/>
      <path class="cls-13" d="m261.9158,244.332h-5.0566v-1.3828h5.0566v1.3828Z"/>
      <path class="cls-13" d="m268.2557,244.6132h.9668v1.3652h-.9668v1.8457h-1.6934v-1.8457h-3.498l-.0762-1.0664,3.5566-5.6191h1.7109v5.3203Zm-3.5801,0h1.8867v-3.0117l-.1113.1934-1.7754,2.8184Z"/>
      <path class="cls-13" d="m275.9314,240.2382l-3.2988,7.5859h-1.7871l3.3047-7.166h-4.2422v-1.3652h6.0234v.9453Z"/>
      <path class="cls-13" d="m279.9803,240.9335c0-.5234.1699-.9482.5098-1.2744s.7852-.4893,1.3359-.4893c.5586,0,1.0078.1611,1.3477.4834s.5098.7588.5098,1.3096v.4219c0,.5273-.1699.9512-.5098,1.2715s-.7852.4805-1.3359.4805c-.5547,0-1.0029-.1611-1.3447-.4834s-.5127-.7568-.5127-1.3037v-.416Zm1.125.4512c0,.2344.0674.4229.2021.5654s.3115.2139.5303.2139.3926-.0723.5215-.2168.1934-.3379.1934-.5801v-.4336c0-.2344-.0645-.4238-.1934-.5684s-.3066-.2168-.5332-.2168c-.2148,0-.3887.0713-.5215.2139s-.1992.3408-.1992.5947v.4277Zm1.0664,5.8008l-.8262-.4453,4.166-6.668.8262.4453-4.166,6.668Zm1.8867-1.4531c0-.5273.1719-.9521.5156-1.2744s.7891-.4834,1.3359-.4834c.5547,0,1.0029.1592,1.3447.4775s.5127.7568.5127,1.3154v.4219c0,.5234-.168.9463-.5039,1.2686s-.7832.4834-1.3418.4834c-.5625,0-1.0137-.1621-1.3535-.4863s-.5098-.7539-.5098-1.2891v-.4336Zm1.125.457c0,.2148.0703.3984.2109.5508s.3164.2285.5273.2285c.4766,0,.7148-.2637.7148-.791v-.4453c0-.2344-.0664-.4229-.1992-.5654s-.3086-.2139-.5273-.2139-.3945.0713-.5273.2139-.1992.3369-.1992.583v.4395Z"/>
    </g>
  </g>
  <circle class="cls-5" cx="303.128" cy="230.8651" r="5.9997"/>
  <circle class="cls-4" cx="303.128" cy="260.5717" r="6.0802"/>
  <rect class="cls-11" x="179.6627" y="111.258" width="127.0217" height="54.1417"/>
  <g>
    <path class="cls-15" d="m188.7147,123.945l1.9336-6.416h1.957l-2.9707,8.5312h-1.834l-2.959-8.5312h1.9512l1.9219,6.416Z"/>
    <path class="cls-15" d="m199.8475,121.3083c-.2305-.0312-.4336-.0469-.6094-.0469-.6406,0-1.0605.2168-1.2598.6504v4.1484h-1.6934v-6.3398h1.5996l.0469.7559c.3398-.582.8105-.873,1.4121-.873.1875,0,.3633.0254.5273.0762l-.0234,1.6289Z"/>
    <path class="cls-15" d="m200.1873,122.8317c0-.6289.1211-1.1895.3633-1.6816s.5908-.873,1.0459-1.1426.9834-.4043,1.585-.4043c.8555,0,1.5537.2617,2.0947.7852s.8428,1.2344.9053,2.1328l.0117.4336c0,.9727-.2715,1.7529-.8145,2.3408s-1.2715.8818-2.1855.8818-1.6436-.293-2.1885-.8789-.8174-1.3828-.8174-2.3906v-.0762Zm1.6934.1201c0,.6025.1133,1.0632.3398,1.3821s.5508.4783.9727.4783c.4102,0,.7305-.1575.9609-.4724s.3457-.8186.3457-1.511c0-.5908-.1152-1.0486-.3457-1.3733s-.5547-.4871-.9727-.4871c-.4141,0-.7344.1614-.9609.4841s-.3398.8225-.3398,1.4993Z"/>
    <path class="cls-15" d="m209.8729,124.8122c.3125,0,.5664-.0859.7617-.2578s.2969-.4004.3047-.6855h1.5879c-.0039.4297-.1211.8232-.3516,1.1807s-.5459.6348-.9463.832-.8428.2959-1.3271.2959c-.9062,0-1.6211-.2881-2.1445-.8643s-.7852-1.3721-.7852-2.3877v-.1113c0-.9766.2598-1.7559.7793-2.3379s1.2324-.873,2.1387-.873c.793,0,1.4287.2256,1.9072.6768s.7217,1.0518.7295,1.8018h-1.5879c-.0078-.3298-.1094-.5979-.3047-.804-.1953-.2063-.4531-.3093-.7734-.3093-.3945,0-.6924.1438-.8936.4314-.2012.2874-.3018.7542-.3018,1.3994v.176c0,.6536.0996,1.123.2988,1.4084.1992.2856.502.4285.9082.4285Z"/>
    <path class="cls-15" d="m216.4119,126.1774c-.9297,0-1.6865-.2852-2.2705-.8555s-.876-1.3301-.876-2.2793v-.1641c0-.6367.123-1.2061.3691-1.708s.5947-.8887,1.0459-1.1602.9658-.4072,1.5439-.4072c.8672,0,1.5498.2734,2.0479.8203s.7471,1.3223.7471,2.3262v.6914h-4.0371c.0547.4141.2197.7461.4951.9961s.624.375,1.0459.375c.6523,0,1.1621-.2363,1.5293-.709l.832.9316c-.2539.3594-.5977.6396-1.0312.8408s-.9141.3018-1.4414.3018Zm-.1934-5.209c-.3359,0-.6084.1138-.8174.3413-.209.2278-.3428.5532-.4014.9771h2.3555v-.1355c-.0078-.3765-.1094-.668-.3047-.8738-.1953-.2061-.4727-.3091-.832-.3091Z"/>
    <path class="cls-15" d="m228.7459,126.0602h-5.8477v-1.1602l2.7598-2.9414c.3789-.4141.6592-.7754.8408-1.084s.2725-.6016.2725-.8789c0-.3789-.0957-.6768-.2871-.8936s-.4648-.3252-.8203-.3252c-.3828,0-.6846.1318-.9053.3955s-.3311.6104-.3311,1.04h-1.6992c0-.5195.124-.9941.3721-1.4238s.5986-.7666,1.0518-1.0107.9668-.3662,1.541-.3662c.8789,0,1.5615.2109,2.0479.6328s.7295,1.0176.7295,1.7871c0,.4219-.1094.8516-.3281,1.2891s-.5938.9473-1.125,1.5293l-1.9395,2.0449h3.668v1.3652Z"/>
    <path class="cls-15" d="m235.5252,122.5329c0,1.1797-.2441,2.082-.7324,2.707s-1.2031.9375-2.1445.9375c-.9297,0-1.6406-.3066-2.1328-.9199s-.7441-1.4922-.7559-2.6367v-1.5703c0-1.1914.2471-2.0957.7412-2.7129s1.2061-.9258,2.1357-.9258,1.6406.3057,2.1328.917.7441,1.4893.7559,2.6338v1.5703Zm-1.6934-1.7266c0-.7075-.0967-1.2229-.29-1.5454s-.4951-.4839-.9053-.4839c-.3984,0-.6924.1536-.8818.4604s-.29.7869-.3018,1.4399v2.0762c0,.6958.0947,1.2131.2842,1.5513s.4932.5073.9111.5073c.4141,0,.7129-.1621.8965-.4868.1836-.3245.2793-.821.2871-1.4897v-2.0293Z"/>
    <path class="cls-15" d="m242.5154,126.0602h-5.8477v-1.1602l2.7598-2.9414c.3789-.4141.6592-.7754.8408-1.084s.2725-.6016.2725-.8789c0-.3789-.0957-.6768-.2871-.8936s-.4648-.3252-.8203-.3252c-.3828,0-.6846.1318-.9053.3955s-.3311.6104-.3311,1.04h-1.6992c0-.5195.124-.9941.3721-1.4238s.5986-.7666,1.0518-1.0107.9668-.3662,1.541-.3662c.8789,0,1.5615.2109,2.0479.6328s.7295,1.0176.7295,1.7871c0,.4219-.1094.8516-.3281,1.2891s-.5938.9473-1.125,1.5293l-1.9395,2.0449h3.668v1.3652Z"/>
    <path class="cls-15" d="m247.6658,126.0602h-1.6934v-6.5273l-2.0215.627v-1.377l3.5332-1.2656h.1816v8.543Z"/>
    <path class="cls-15" d="m254.6678,119.7204l.0293.7031c.4648-.5469,1.0918-.8203,1.8809-.8203.8867,0,1.4902.3398,1.8105,1.0195.2109-.3047.4854-.5508.8232-.7383s.7373-.2812,1.1982-.2812c1.3906,0,2.0977.7363,2.1211,2.209v4.248h-1.084v-4.1836c0-.4531-.1035-.792-.3105-1.0166s-.5547-.3369-1.043-.3369c-.4023,0-.7363.1201-1.002.3604s-.4199.5635-.4629.9697v4.207h-1.0898v-4.1543c0-.9219-.4512-1.3828-1.3535-1.3828-.7109,0-1.1973.3027-1.459.9082v4.6289h-1.084v-6.3398h1.0254Z"/>
    <path class="cls-15" d="m266.7967,126.1774c-.8594,0-1.5586-.2822-2.0977-.8467s-.8086-1.3193-.8086-2.2646v-.1992c0-.6289.1201-1.1904.3604-1.6846s.5762-.8809,1.0078-1.1602.8994-.4189,1.4033-.4189c.8242,0,1.4648.2715,1.9219.8145s.6855,1.3203.6855,2.332v.4512h-4.2949c.0156.625.1982,1.1299.5479,1.5146s.7939.5771,1.333.5771c.3828,0,.707-.0781.9727-.2344s.498-.3633.6973-.6211l.6621.5156c-.5312.8164-1.3281,1.2246-2.3906,1.2246Zm-.1465-8.1211l.8789-.9961h.9375v.0586l-1.4883,1.6055h-.6621l-1.4707-1.6055v-.0586h.9199l.8848.9961Zm.0117,2.4375c-.4375,0-.8047.1592-1.1016.4775s-.4805.7646-.5508,1.3389h3.1758v-.082c-.0312-.5508-.1797-.9775-.4453-1.2803s-.625-.4541-1.0781-.4541Z"/>
    <path class="cls-15" d="m271.701,126.0602h-1.084v-9h1.084v9Z"/>
    <path class="cls-15" d="m277.3494,126.0602c-.0625-.125-.1133-.3477-.1523-.668-.5039.5234-1.1055.7852-1.8047.7852-.625,0-1.1377-.1768-1.5381-.5303s-.6006-.8018-.6006-1.3447c0-.6602.251-1.1729.7529-1.5381s1.208-.5479,2.1182-.5479h1.0547v-.498c0-.3789-.1133-.6807-.3398-.9053s-.5605-.3369-1.002-.3369c-.3867,0-.7109.0977-.9727.293s-.3926.4316-.3926.709h-1.0898c0-.3164.1123-.6221.3369-.917s.5293-.5283.9141-.7002.8076-.2578,1.2686-.2578c.7305,0,1.3027.1826,1.7168.5479s.6289.8682.6445,1.5088v2.918c0,.582.0742,1.0449.2227,1.3887v.0938h-1.1367Zm-1.7988-.8262c.3398,0,.6621-.0879.9668-.2637s.5254-.4043.6621-.6855v-1.3008h-.8496c-1.3281,0-1.9922.3887-1.9922,1.166,0,.3398.1133.6055.3398.7969s.5176.2871.873.2871Z"/>
    <path class="cls-15" d="m289.3787,123.3532c-.1055.9023-.4385,1.5986-.999,2.0889s-1.3057.7354-2.2354.7354c-1.0078,0-1.8154-.3613-2.4229-1.084s-.9111-1.6895-.9111-2.9004v-.8203c0-.793.1416-1.4902.4248-2.0918s.6846-1.0635,1.2041-1.3857,1.1211-.4834,1.8047-.4834c.9062,0,1.6328.2529,2.1797.7588s.8652,1.2061.9551,2.1006h-1.1309c-.0977-.6816-.3096-1.1755-.6357-1.481-.3262-.3057-.7822-.4585-1.3682-.4585-.7188,0-1.2822.2659-1.6904.7976s-.6123,1.2881-.6123,2.2693v.8271c0,.9265.1934,1.6636.5801,2.2107.3867.5474.9277.821,1.623.821.625,0,1.1045-.1416,1.4385-.4248s.5557-.7764.665-1.4795h1.1309Zm-3.293-7.3066l.8789-.9961h.9375v.0586l-1.4883,1.6055h-.6621l-1.4707-1.6055v-.0586h.9199l.8848.9961Z"/>
    <path class="cls-15" d="m294.0428,122.6091h-2.0039v3.4512h-1.1309v-8.5312h2.8242c.9609,0,1.7002.2188,2.2178.6562s.7764,1.0742.7764,1.9102c0,.5312-.1436.9941-.4307,1.3887s-.6865.6895-1.1982.8848l2.0039,3.6211v.0703h-1.207l-1.8516-3.4512Zm-2.0039-.9199h1.7285c.5586,0,1.0029-.1448,1.333-.4343s.4951-.677.4951-1.1624c0-.5283-.1572-.9331-.4717-1.2151-.3145-.2817-.7686-.4246-1.3623-.4285h-1.7227v3.2402Z"/>
    <path class="cls-15" d="m198.1541,137.2316c0-.6289.1211-1.1895.3633-1.6816s.5908-.873,1.0459-1.1426.9834-.4043,1.585-.4043c.8555,0,1.5537.2617,2.0947.7852s.8428,1.2344.9053,2.1328l.0117.4336c0,.9727-.2715,1.7529-.8145,2.3408s-1.2715.8818-2.1855.8818-1.6436-.293-2.1885-.8789-.8174-1.3828-.8174-2.3906v-.0762Zm1.6934.1201c0,.6025.1133,1.0632.3398,1.3821s.5508.4783.9727.4783c.4102,0,.7305-.1575.9609-.4724s.3457-.8186.3457-1.511c0-.5908-.1152-1.0486-.3457-1.3733s-.5547-.4871-.9727-.4871c-.4141,0-.7344.1614-.9609.4841s-.3398.8225-.3398,1.4993Z"/>
    <path class="cls-15" d="m213.1307,137.2492h.9668v1.3652h-.9668v1.8457h-1.6934v-1.8457h-3.498l-.0762-1.0664,3.5566-5.6191h1.7109v5.3203Zm-3.5801,0h1.8867v-3.0117l-.1113.1934-1.7754,2.8184Z"/>
    <path class="cls-15" d="m219.1189,140.4601h-1.6934v-6.5273l-2.0215.627v-1.377l3.5332-1.2656h.1816v8.543Z"/>
    <path class="cls-15" d="m224.8553,133.5695c0-.5234.1699-.9482.5098-1.2744s.7852-.4893,1.3359-.4893c.5586,0,1.0078.1611,1.3477.4834s.5098.7588.5098,1.3096v.4219c0,.5273-.1699.9512-.5098,1.2715s-.7852.4805-1.3359.4805c-.5547,0-1.0029-.1611-1.3447-.4834s-.5127-.7568-.5127-1.3037v-.416Zm1.125.4512c0,.2344.0674.4229.2021.5654s.3115.2139.5303.2139.3926-.0723.5215-.2168.1934-.3379.1934-.5801v-.4336c0-.2344-.0645-.4238-.1934-.5684s-.3066-.2168-.5332-.2168c-.2148,0-.3887.0713-.5215.2139s-.1992.3408-.1992.5947v.4277Zm1.0664,5.8008l-.8262-.4453,4.166-6.668.8262.4453-4.166,6.668Zm1.8867-1.4531c0-.5273.1719-.9521.5156-1.2744s.7891-.4834,1.3359-.4834c.5547,0,1.0029.1592,1.3447.4775s.5127.7568.5127,1.3154v.4219c0,.5234-.168.9463-.5039,1.2686s-.7832.4834-1.3418.4834c-.5625,0-1.0137-.1621-1.3535-.4863s-.5098-.7539-.5098-1.2891v-.4336Zm1.125.457c0,.2148.0703.3984.2109.5508s.3164.2285.5273.2285c.4766,0,.7148-.2637.7148-.791v-.4453c0-.2344-.0664-.4229-.1992-.5654s-.3086-.2139-.5273-.2139-.3945.0713-.5273.2139-.1992.3369-.1992.583v.4395Z"/>
    <path class="cls-15" d="m238.3553,134.1203l.0527.7324c.4531-.5664,1.0605-.8496,1.8223-.8496.6719,0,1.1719.1973,1.5.5918s.4961.9844.5039,1.7695v4.0957h-1.6934v-4.0547c0-.3594-.0781-.6201-.2344-.7822s-.416-.2432-.7793-.2432c-.4766,0-.834.2031-1.0723.6094v4.4707h-1.6934v-6.3398h1.5938Z"/>
    <path class="cls-15" d="m243.5057,132.4797c0-.2539.085-.4629.2549-.627s.4014-.2461.6943-.2461c.2891,0,.5195.082.6914.2461s.2578.373.2578.627c0,.2578-.0869.4688-.2607.6328s-.4033.2461-.6885.2461-.5146-.082-.6885-.2461-.2607-.375-.2607-.6328Zm1.7988,7.9805h-1.6992v-6.3398h1.6992v6.3398Z"/>
    <path class="cls-15" d="m248.6443,139.0949h3.0996v1.3652h-5.2617v-1.0312l2.9824-3.9434h-2.8945v-1.3652h5.0801v.9976l-3.0059,3.9771Zm.4629-6.8027l.8555-.8379h1.4473v.0645l-1.7695,1.6465h-1.0723l-1.7695-1.6582v-.0527h1.4473l.8613.8379Z"/>
    <path class="cls-15" d="m256.2381,138.7082c0-.207-.1025-.3701-.3076-.4893s-.5342-.2256-.9873-.3193c-1.5078-.3164-2.2617-.957-2.2617-1.9219,0-.5625.2334-1.0322.7002-1.4092s1.0771-.5654,1.8311-.5654c.8047,0,1.4482.1895,1.9307.5684s.7236.8711.7236,1.4766h-1.6934c0-.2422-.0781-.4424-.2344-.6006s-.4004-.2373-.7324-.2373c-.2852,0-.5059.0645-.6621.1934s-.2344.293-.2344.4922c0,.1875.0889.3389.2666.4541s.4775.2148.8994.2988.7773.1787,1.0664.2842c.8945.3281,1.3418.8965,1.3418,1.7051,0,.5781-.248,1.0459-.7441,1.4033s-1.1367.5361-1.9219.5361c-.5312,0-1.0029-.0947-1.415-.2842s-.7354-.4492-.9697-.7793-.3516-.6865-.3516-1.0693h1.6055c.0156.3008.127.5312.334.6914s.4844.2402.832.2402c.3242,0,.5693-.0615.7354-.1846s.249-.2842.249-.4834Zm-.9844-6.416l.8555-.8379h1.4473v.0645l-1.7695,1.6465h-1.0723l-1.7695-1.6582v-.0527h1.4473l.8613.8379Z"/>
    <path class="cls-15" d="m260.8025,140.4601h-1.6934v-6.3398h1.6934v6.3398Zm-.498-8.9121h1.8457l-1.623,1.8164h-1.377l1.1543-1.8164Z"/>
    <path class="cls-15" d="m268.1678,140.5773c-.9297,0-1.6865-.2852-2.2705-.8555s-.876-1.3301-.876-2.2793v-.1641c0-.6367.123-1.2061.3691-1.708s.5947-.8887,1.0459-1.1602.9658-.4072,1.5439-.4072c.8672,0,1.5498.2734,2.0479.8203s.7471,1.3223.7471,2.3262v.6914h-4.0371c.0547.4141.2197.7461.4951.9961s.624.375,1.0459.375c.6523,0,1.1621-.2363,1.5293-.709l.832.9316c-.2539.3594-.5977.6396-1.0312.8408s-.9141.3018-1.4414.3018Zm-.1934-5.209c-.3359,0-.6084.1138-.8174.3413-.209.2278-.3428.5532-.4014.9771h2.3555v-.1355c-.0078-.3765-.1094-.668-.3047-.8738-.1953-.2061-.4727-.3091-.832-.3091Z"/>
    <path class="cls-15" d="m273.324,134.1203l.0527.709c.4492-.5508,1.0566-.8262,1.8223-.8262.8164,0,1.377.3223,1.6816.9668.4453-.6445,1.0801-.9668,1.9043-.9668.6875,0,1.1992.2002,1.5352.6006s.5039,1.0029.5039,1.8076v4.0488h-1.6992v-4.043c0-.3594-.0703-.6221-.2109-.7881s-.3887-.249-.7441-.249c-.5078,0-.8594.2422-1.0547.7266l.0059,4.3535h-1.6934v-4.0371c0-.3672-.0723-.6328-.2168-.7969s-.3906-.2461-.7383-.2461c-.4805,0-.8281.1992-1.043.5977v4.4824h-1.6934v-6.3398h1.5879Z"/>
    <path class="cls-15" d="m282.1131,132.4797c0-.2539.085-.4629.2549-.627s.4014-.2461.6943-.2461c.2891,0,.5195.082.6914.2461s.2578.373.2578.627c0,.2578-.0869.4688-.2607.6328s-.4033.2461-.6885.2461-.5146-.082-.6885-.2461-.2607-.375-.2607-.6328Zm1.7988,7.9805h-1.6992v-6.3398h1.6992v6.3398Z"/>
    <path class="cls-15" d="m288.74,138.7082c0-.207-.1025-.3701-.3076-.4893s-.5342-.2256-.9873-.3193c-1.5078-.3164-2.2617-.957-2.2617-1.9219,0-.5625.2334-1.0322.7002-1.4092s1.0771-.5654,1.8311-.5654c.8047,0,1.4482.1895,1.9307.5684s.7236.8711.7236,1.4766h-1.6934c0-.2422-.0781-.4424-.2344-.6006s-.4004-.2373-.7324-.2373c-.2852,0-.5059.0645-.6621.1934s-.2344.293-.2344.4922c0,.1875.0889.3389.2666.4541s.4775.2148.8994.2988.7773.1787,1.0664.2842c.8945.3281,1.3418.8965,1.3418,1.7051,0,.5781-.248,1.0459-.7441,1.4033s-1.1367.5361-1.9219.5361c-.5312,0-1.0029-.0947-1.415-.2842s-.7354-.4492-.9697-.7793-.3516-.6865-.3516-1.0693h1.6055c.0156.3008.127.5312.334.6914s.4844.2402.832.2402c.3242,0,.5693-.0615.7354-.1846s.249-.2842.249-.4834Z"/>
    <path class="cls-15" d="m294.3943,140.5773c-.9297,0-1.6865-.2852-2.2705-.8555s-.876-1.3301-.876-2.2793v-.1641c0-.6367.123-1.2061.3691-1.708s.5947-.8887,1.0459-1.1602.9658-.4072,1.5439-.4072c.8672,0,1.5498.2734,2.0479.8203s.7471,1.3223.7471,2.3262v.6914h-4.0371c.0547.4141.2197.7461.4951.9961s.624.375,1.0459.375c.6523,0,1.1621-.2363,1.5293-.709l.832.9316c-.2539.3594-.5977.6396-1.0312.8408s-.9141.3018-1.4414.3018Zm-.1934-5.209c-.3359,0-.6084.1138-.8174.3413-.209.2278-.3428.5532-.4014.9771h2.3555v-.1355c-.0078-.3765-.1094-.668-.3047-.8738-.1953-.2061-.4727-.3091-.832-.3091Z"/>
    <path class="cls-15" d="m215.1287,148.5202l.0352.7969c.4844-.6094,1.1172-.9141,1.8984-.9141,1.3398,0,2.0156.7559,2.0273,2.2676v4.1895h-1.084v-4.1953c-.0039-.457-.1084-.7949-.3135-1.0137s-.5244-.3281-.958-.3281c-.3516,0-.6602.0938-.9258.2812s-.4727.4336-.6211.7383v4.5176h-1.084v-6.3398h1.0254Z"/>
    <path class="cls-15" d="m223.3553,154.9772c-.8594,0-1.5586-.2822-2.0977-.8467s-.8086-1.3193-.8086-2.2646v-.1992c0-.6289.1201-1.1904.3604-1.6846s.5762-.8809,1.0078-1.1602.8994-.4189,1.4033-.4189c.8242,0,1.4648.2715,1.9219.8145s.6855,1.3203.6855,2.332v.4512h-4.2949c.0156.625.1982,1.1299.5479,1.5146s.7939.5771,1.333.5771c.3828,0,.707-.0781.9727-.2344s.498-.3633.6973-.6211l.6621.5156c-.5312.8164-1.3281,1.2246-2.3906,1.2246Zm-.1348-5.6836c-.4375,0-.8047.1592-1.1016.4775s-.4805.7646-.5508,1.3389h3.1758v-.082c-.0312-.5508-.1797-.9775-.4453-1.2803s-.625-.4541-1.0781-.4541Z"/>
    <path class="cls-15" d="m228.1014,153.9753h3.709v.8848h-5.0332v-.7969l3.498-4.6465h-3.4453v-.8965h4.8047v.7676l-3.5332,4.6875Zm1.166-7.1191l.8789-.9961h.9375v.0586l-1.4883,1.6055h-.6621l-1.4707-1.6055v-.0586h.9199l.8848.9961Z"/>
    <path class="cls-15" d="m238.0916,153.3893l1.5703-4.8691h1.1074l-2.2734,6.3398h-.8262l-2.2969-6.3398h1.1074l1.6113,4.8691Z"/>
    <path class="cls-15" d="m247.8475,149.4928c-.1641-.0273-.3418-.041-.5332-.041-.7109,0-1.1934.3027-1.4473.9082v4.5h-1.084v-6.3398h1.0547l.0176.7324c.3555-.5664.8594-.8496,1.5117-.8496.2109,0,.3711.0273.4805.082v1.0078Z"/>
    <path class="cls-15" d="m248.4393,151.6315c0-.6211.1221-1.1797.3662-1.6758s.584-.8789,1.0195-1.1484.9326-.4043,1.4912-.4043c.8633,0,1.5615.2988,2.0947.8965s.7998,1.3926.7998,2.3848v.0762c0,.6172-.1182,1.1709-.3545,1.6611s-.5742.8721-1.0137,1.1455-.9443.4102-1.5146.4102c-.8594,0-1.5557-.2988-2.0889-.8965s-.7998-1.3887-.7998-2.373v-.0762Zm1.0898.1289c0,.7031.1631,1.2676.4893,1.6934s.7627.6387,1.3096.6387c.5508,0,.9883-.2158,1.3125-.6475s.4863-1.0361.4863-1.8135c0-.6953-.165-1.2588-.4951-1.6904s-.7686-.6475-1.3154-.6475c-.5352,0-.9668.2129-1.2949.6387s-.4922,1.0352-.4922,1.8281Z"/>
    <path class="cls-15" d="m258.1131,154.0925c.3867,0,.7246-.1172,1.0137-.3516s.4492-.5273.4805-.8789h1.0254c-.0195.3633-.1445.709-.375,1.0371s-.5381.5898-.9229.7852-.792.293-1.2217.293c-.8633,0-1.5498-.2881-2.0596-.8643s-.7646-1.3643-.7646-2.3643v-.1816c0-.6172.1133-1.166.3398-1.6465s.5518-.8535.9756-1.1191.9248-.3984,1.5029-.3984c.7109,0,1.3018.2129,1.7725.6387s.7217.9785.7529,1.6582h-1.0254c-.0312-.4102-.1865-.7471-.4658-1.0107s-.624-.3955-1.0342-.3955c-.5508,0-.9775.1982-1.2803.5947s-.4541.9697-.4541,1.7197v.2051c0,.7305.1504,1.293.4512,1.6875s.7305.5918,1.2891.5918Z"/>
    <path class="cls-15" d="m264.4822,154.9772c-.8594,0-1.5586-.2822-2.0977-.8467s-.8086-1.3193-.8086-2.2646v-.1992c0-.6289.1201-1.1904.3604-1.6846s.5762-.8809,1.0078-1.1602.8994-.4189,1.4033-.4189c.8242,0,1.4648.2715,1.9219.8145s.6855,1.3203.6855,2.332v.4512h-4.2949c.0156.625.1982,1.1299.5479,1.5146s.7939.5771,1.333.5771c.3828,0,.707-.0781.9727-.2344s.498-.3633.6973-.6211l.6621.5156c-.5312.8164-1.3281,1.2246-2.3906,1.2246Zm-.1348-5.6836c-.4375,0-.8047.1592-1.1016.4775s-.4805.7646-.5508,1.3389h3.1758v-.082c-.0312-.5508-.1797-.9775-.4453-1.2803s-.625-.4541-1.0781-.4541Z"/>
    <path class="cls-15" d="m274.6307,154.86h-1.0898v-7.2246l-2.1855.8027v-.9844l3.1055-1.166h.1699v8.5723Z"/>
    <path class="cls-15" d="m281.9607,151.11c-.2266.2695-.4971.4863-.8115.6504s-.6592.2461-1.0342.2461c-.4922,0-.9209-.1211-1.2861-.3633s-.6475-.583-.8467-1.0225-.2988-.9248-.2988-1.4561c0-.5703.1084-1.084.3252-1.541s.5244-.8066.9229-1.0488.8633-.3633,1.3945-.3633c.8438,0,1.5088.3154,1.9951.9463s.7295,1.4912.7295,2.5811v.3164c0,1.6602-.3281,2.8721-.9844,3.6357s-1.6465,1.1553-2.9707,1.1748h-.2109v-.9199h.2285c.8945-.0156,1.582-.2485,2.0625-.6987s.7422-1.1626.7852-2.1372Zm-1.6699,0c.3633,0,.6982-.1113,1.0049-.334s.5303-.498.6709-.8262v-.4336c0-.7109-.1543-1.2891-.4629-1.7344s-.6992-.668-1.1719-.668c-.4766,0-.8594.1826-1.1484.5479s-.4336.8467-.4336,1.4443c0,.582.1396,1.0615.4189,1.4385s.6533.5654,1.1221.5654Z"/>
    <path class="cls-15" d="m288.699,151.11c-.2266.2695-.4971.4863-.8115.6504s-.6592.2461-1.0342.2461c-.4922,0-.9209-.1211-1.2861-.3633s-.6475-.583-.8467-1.0225-.2988-.9248-.2988-1.4561c0-.5703.1084-1.084.3252-1.541s.5244-.8066.9229-1.0488.8633-.3633,1.3945-.3633c.8438,0,1.5088.3154,1.9951.9463s.7295,1.4912.7295,2.5811v.3164c0,1.6602-.3281,2.8721-.9844,3.6357s-1.6465,1.1553-2.9707,1.1748h-.2109v-.9199h.2285c.8945-.0156,1.582-.2485,2.0625-.6987s.7422-1.1626.7852-2.1372Zm-1.6699,0c.3633,0,.6982-.1113,1.0049-.334s.5303-.498.6709-.8262v-.4336c0-.7109-.1543-1.2891-.4629-1.7344s-.6992-.668-1.1719-.668c-.4766,0-.8594.1826-1.1484.5479s-.4336.8467-.4336,1.4443c0,.582.1396,1.0615.4189,1.4385s.6533.5654,1.1221.5654Z"/>
    <path class="cls-15" d="m296.6326,151.2214c0,1.2695-.2168,2.2129-.6504,2.8301s-1.1113.9258-2.0332.9258c-.9102,0-1.584-.3018-2.0215-.9053s-.6641-1.5049-.6797-2.7041v-1.4473c0-1.2539.2168-2.1855.6504-2.7949s1.1133-.9141,2.0391-.9141c.918,0,1.5938.2939,2.0273.8818s.6562,1.4951.668,2.7217v1.4062Zm-1.084-1.4824c0-.918-.1289-1.5869-.3867-2.0068s-.666-.6299-1.2246-.6299c-.5547,0-.959.209-1.2129.627s-.3848,1.0605-.3926,1.9277v1.7344c0,.9219.1338,1.6025.4014,2.042s.6729.6592,1.2158.6592c.5352,0,.9326-.207,1.1924-.6211s.3955-1.0664.4072-1.957v-1.7754Z"/>
  </g>
  <g>
    <line class="cls-1" x1="244.1036" y1="160.5629" x2="244.1036" y2="199.9369"/>
    <polygon class="cls-15" points="242.2337 199.3898 244.1036 202.6281 245.9734 199.3898 242.2337 199.3898"/>
  </g>
  <g>
    <polyline class="cls-11" points="275.5981 288.3141 303.128 288.3141 303.128 269.4313"/>
    <g>
      <polyline class="cls-2" points="275.5982 288.3141 303.128 288.3141 303.128 272.1222"/>
      <polygon class="cls-16" points="304.9979 272.6694 303.128 269.4313 301.2581 272.6694 304.9979 272.6694"/>
    </g>
  </g>
</svg>