<?xml version="1.0" encoding="UTF-8"?><svg id="a" xmlns="http://www.w3.org/2000/svg" viewBox="0 0 329.999999999994543 310.362564145620127"><defs><style>.d,.e,.f,.g,.h,.i{stroke-miterlimit:10;}.d,.e,.g,.i{stroke:#0032a1;}.d,.e,.h,.i{fill:none;}.d,.i{stroke-width:.75px;}.j{letter-spacing:-.00732421875em;}.k,.l,.m{fill:#0032a1;}.k,.n{stroke-width:0px;}.e,.g{stroke-linecap:round;stroke-width:2px;}.f{stroke:#0098eb;}.f,.g,.n{fill:#fff;}.o,.p,.q{font-family:Roboto-Regular, Roboto;}.o,.p,.q,.r,.m{font-size:12px;}.s{letter-spacing:-.0078125em;}.p{fill:#929497;}.q,.r{fill:#808184;}.r,.m,.t{font-family:Roboto-Bold, Roboto;font-weight:700;}.h{stroke:#9ea7b3;stroke-width:.5px;}.u{letter-spacing:-.009765625em;}.i{stroke-dasharray:0 0 4 4;}.t{font-size:14px;}.v{fill:#0098eb;}</style></defs><path class="h" d="M43.177303896590274,257.284390391870147h259.950647317731637"/><path class="h" d="M43.177303896590274,235.680036542779817h259.950647317731637"/><path class="h" d="M43.177303896590274,214.075682693689942h259.950647317731637"/><path class="h" d="M43.177303896590274,192.850352596350149h259.950647317731637"/><path class="h" d="M43.177303896590274,278.509720489199935h259.950647317731637"/><path class="h" d="M43.177303896590274,171.245998747259819h259.950647317731637"/><path class="h" d="M43.177303896590274,150.020668649920026h259.950647317731637"/><path class="h" d="M43.177303896590274,128.367700904249887h259.950647317731637"/><path class="h" d="M43.177303896590274,107.14237080690009h259.950647317731637"/><path class="h" d="M43.177303896590274,107.08782858980976h259.950647317731637"/><path class="h" d="M43.177303896590274,85.434860844130071h259.950647317731637"/><path class="h" d="M43.177303896590274,64.209530746789824h259.950647317731637"/><line class="i" x1="240.611785733466604" y1="201.656454874149858" x2="303.127951214321911" y2="150.020668649920026"/><text class="q" transform="translate(127.566643177399783 34.019923351454963)"><tspan x="0" y="0">2005</tspan></text><text class="p" transform="translate(9.736198841462283 69.369044445204963)"><tspan x="0" y="0">50 %</tspan></text><text class="q" transform="translate(28.827507435212283 34.019923351454963)"><tspan x="0" y="0">1990</tspan></text><text class="r" transform="translate(289.805534778962283 34.015040538954963)"><tspan x="0" y="0">2030</tspan></text><text class="q" transform="translate(231.408073841462283 34.015040538954963)"><tspan x="0" y="0">2021</tspan></text><text class="p" transform="translate(9.736198841462283 196.668116710829963)"><tspan x="0" y="0">20 %</tspan></text><text class="p" transform="translate(9.736198841462283 154.520777843642463)"><tspan x="0" y="0">30 %</tspan></text><text class="p" transform="translate(9.736198841462283 111.587916515517463)"><tspan x="0" y="0">40 %</tspan></text><text class="p" transform="translate(9.736198841462283 240.180079601454963)"><tspan x="0" y="0">10 %</tspan></text><rect class="n" x="72.976833068830274" y="222.755332784870006" width="65.622649795448524" height="20.332787200100029"/><text class="m" transform="translate(82.410271107087283 240.201441906142463)"><tspan x="0" y="0">St</tspan><tspan class="j" x="11.431640625" y="0">a</tspan><tspan x="17.77734375" y="0">v v ČR</tspan></text><text class="p" transform="translate(16.480339466462283 283.010157726454963)"><tspan x="0" y="0">0 %</tspan></text><path class="h" d="M43.177303896590274,42.082996302080119v7.54263239473994"/><path class="h" d="M140.436925960019835,42.082996302080119v7.54263239473994"/><path class="h" d="M303.12795121432373,42.082996302080119v7.54263239473994"/><path class="h" d="M243.024021338987041,42.082996302080119v7.54263239473994"/><polyline class="e" points="140.754448353181033 250.897364757699506 147.170402943024783 249.735499523329963 153.586418568024783 247.248683117079963 160.002434193024783 243.614161632699506 166.418388782868533 237.535060070199506 172.834404407868533 235.034327648329963 179.250358997712283 233.018702648329963 185.666374622712283 224.298731945199506 192.082390247712283 219.105860851449961 198.498344837556033 213.754298351449961 204.914360462556033 213.773097179579963 211.330315052399783 214.444972179579963 217.746330677399783 215.037501476449961 224.162285267243533 213.451075695199961 230.578300892243533 208.318995617079963 236.994316517243533 203.354640148329963 240.648003040681033 202.387599132699961"/><path class="k" d="M241.272270618806033,205.333888195199961c1.60565185546875-.425048828119998,2.56304931640625-2.07177734375,2.13800048828125-3.677490234369998-.42498779296875-1.60546875-2.0716552734375-2.56298828125-3.67730712890625-2.137939453130002-1.60565185546875.425048828130002-2.56304931640625,2.071533203130002-2.13800048828125,3.67724609375.42498779296875,1.605712890630002,2.0716552734375,2.56298828125,3.67730712890625,2.13818359375Z"/><circle class="n" cx="303.160552913864421" cy="187.449264134084842" r="11.448904712863964"/><circle class="g" cx="303.160552913863739" cy="150.020668649919571" r="5.999703557297607"/><rect class="n" x="123.661541791757372" y="127.060038728660174" width="127.181102362204911" height="51.019060850040205"/><path class="k" d="M140.379631458649783,128.725001476454963l-2.9765625,8.53125h-1.828125l-2.958984375-8.53125h1.9453125l1.927734375,6.41015625,1.93359375-6.41015625h1.95703125Z"/><path class="k" d="M147.006584583649783,132.451563976454963c-.63671875,0-1.0546875.216796875-1.25390625.650390625v4.154296875h-1.69921875v-6.33984375h1.599609375l.052734375.755859375c.33203125-.58203125.802734375-.873046875,1.412109375-.873046875.21484375,0,.388671875.025390625.521484375.076171875l-.017578125,1.623046875c-.0859375-.0078125-.1865234375-.017578125-.3017578125-.029296875s-.2197265625-.017578125-.3134765625-.017578125Z"/><path class="k" d="M147.961662708649783,134.150782726454963v-.123046875c0-.921875.26171875-1.6904296875.78515625-2.3056640625s1.26171875-.9228515625,2.21484375-.9228515625c.96484375,0,1.70703125.3076171875,2.2265625.9228515625s.779296875,1.3837890625.779296875,2.3056640625v.123046875c0,.921875-.259765625,1.689453125-.779296875,2.302734375s-1.2578125.919921875-2.21484375.919921875c-.9609375,0-1.703125-.306640625-2.2265625-.919921875s-.78515625-1.380859375-.78515625-2.302734375ZM149.660881458649783,134.027735851454963v.123046875c0,.515625.0986328125.9541015625.2958984375,1.3154296875s.5361328125.5419921875,1.0166015625.5419921875c.47265625,0,.8076171875-.1806640625,1.0048828125-.5419921875s.2958984375-.7998046875.2958984375-1.3154296875v-.123046875c0-.50390625-.0986328125-.9404296875-.2958984375-1.3095703125s-.5361328125-.5537109375-1.0166015625-.5537109375c-.4765625,0-.8125.1845703125-1.0078125.5537109375s-.29296875.8056640625-.29296875,1.3095703125Z"/><path class="k" d="M157.647209583649783,136.008204601454963c.30859375,0,.5625-.0849609375.76171875-.2548828125s.30078125-.3994140625.3046875-.6884765625h1.59375c-.0078125.671875-.2646484375,1.224609375-.7705078125,1.658203125s-1.1259765625.650390625-1.8603515625.650390625c-.98046875,0-1.7138671875-.3095703125-2.2001953125-.9287109375s-.7294921875-1.3779296875-.7294921875-2.2763671875v-.1640625c0-.89453125.2421875-1.65234375.7265625-2.2734375s1.216796875-.931640625,2.197265625-.931640625c.77734375,0,1.4091796875.22265625,1.8955078125.66796875s.7333984375,1.048828125.7412109375,1.810546875h-1.59375c-.00390625-.30859375-.09765625-.5712890625-.28125-.7880859375s-.447265625-.3251953125-.791015625-.3251953125c-.49609375,0-.8193359375.1884765625-.9697265625.5654296875s-.2255859375.8017578125-.2255859375,1.2744140625v.1640625c0,.48828125.0751953125.9169921875.2255859375,1.2861328125s.4755859375.5537109375.9755859375.5537109375Z"/><path class="k" d="M166.670647083649783,136.225001476454963c-.203125.2890625-.51171875.552734375-.92578125.791015625s-.9296875.357421875-1.546875.357421875c-.98828125,0-1.759765625-.2998046875-2.314453125-.8994140625s-.83203125-1.3232421875-.83203125-2.1708984375v-.228515625c0-.95703125.2666015625-1.7421875.7998046875-2.35546875s1.2529296875-.919921875,2.1591796875-.919921875c.91015625,0,1.603515625.28515625,2.080078125.85546875s.71484375,1.32421875.71484375,2.26171875v.720703125h-4.037109375c.05859375.41015625.220703125.7412109375.486328125.9931640625s.615234375.3779296875,1.048828125.3779296875c.64453125,0,1.154296875-.236328125,1.529296875-.708984375l.837890625.92578125ZM163.998772083649783,132.164454601454963c-.359375,0-.63671875.12109375-.83203125.36328125s-.322265625.55859375-.380859375.94921875h2.35546875v-.12890625c-.0078125-.33984375-.1025390625-.6220703125-.2841796875-.8466796875s-.4677734375-.3369140625-.8583984375-.3369140625Z"/><path class="k" d="M176.526115833649783,135.891017101454963v1.365234375h-5.841796875v-1.16015625l2.759765625-2.94140625c.41796875-.4609375.70703125-.8408203125.8671875-1.1396484375s.240234375-.5732421875.240234375-.8232421875c0-.37890625-.0947265625-.677734375-.2841796875-.896484375s-.4619140625-.328125-.8173828125-.328125c-.40234375,0-.7099609375.13671875-.9228515625.41015625s-.3193359375.6171875-.3193359375,1.03125h-1.693359375c0-.76953125.2646484375-1.4296875.7939453125-1.98046875s1.2529296875-.826171875,2.1708984375-.826171875c.89453125,0,1.580078125.2158203125,2.056640625.6474609375s.71484375,1.0224609375.71484375,1.7724609375c0,.5703125-.171875,1.1123046875-.515625,1.6259765625s-.798828125,1.0654296875-1.365234375,1.6552734375l-1.51171875,1.587890625h3.66796875Z"/><path class="k" d="M183.305412708649783,132.240626476454963v1.482421875c0,1.28515625-.263671875,2.21484375-.791015625,2.7890625s-1.220703125.861328125-2.080078125.861328125-1.5556640625-.287109375-2.0888671875-.861328125-.7998046875-1.50390625-.7998046875-2.7890625v-1.482421875c0-1.28125.2646484375-2.20703125.7939453125-2.77734375s1.2236328125-.85546875,2.0830078125-.85546875,1.5546875.28515625,2.0859375.85546875.796875,1.49609375.796875,2.77734375ZM181.612053333649783,133.951563976454963v-1.9453125c0-.7578125-.103515625-1.2861328125-.310546875-1.5849609375s-.5-.4482421875-.87890625-.4482421875c-.375,0-.666015625.1494140625-.873046875.4482421875s-.310546875.8271484375-.310546875,1.5849609375v1.9453125c0,.76171875.1044921875,1.294921875.3134765625,1.599609375s.5029296875.45703125.8818359375.45703125c.375,0,.6650390625-.15234375.8701171875-.45703125s.3076171875-.837890625.3076171875-1.599609375Z"/><path class="k" d="M190.295647083649783,135.891017101454963v1.365234375h-5.841796875v-1.16015625l2.759765625-2.94140625c.41796875-.4609375.70703125-.8408203125.8671875-1.1396484375s.240234375-.5732421875.240234375-.8232421875c0-.37890625-.0947265625-.677734375-.2841796875-.896484375s-.4619140625-.328125-.8173828125-.328125c-.40234375,0-.7099609375.13671875-.9228515625.41015625s-.3193359375.6171875-.3193359375,1.03125h-1.693359375c0-.76953125.2646484375-1.4296875.7939453125-1.98046875s1.2529296875-.826171875,2.1708984375-.826171875c.89453125,0,1.580078125.2158203125,2.056640625.6474609375s.71484375,1.0224609375.71484375,1.7724609375c0,.5703125-.171875,1.1123046875-.515625,1.6259765625s-.798828125,1.0654296875-1.365234375,1.6552734375l-1.51171875,1.587890625h3.66796875Z"/><path class="k" d="M195.446037708649783,128.713282726454963v8.54296875h-1.693359375v-6.533203125l-2.015625.626953125v-1.37109375l3.52734375-1.265625h.181640625Z"/><path class="k" d="M206.807365833649783,134.156642101454963c0,.92578125-.21484375,1.693359375-.64453125,2.302734375s-1.037109375.9140625-1.822265625.9140625c-.80078125,0-1.41796875-.283203125-1.8515625-.849609375l-.05859375.732421875h-.99609375v-9h1.08984375v3.345703125c.4296875-.53515625,1.03125-.802734375,1.8046875-.802734375.796875,0,1.4091796875.296875,1.8369140625.890625s.6416015625,1.375.6416015625,2.34375v.123046875ZM204.059318958649783,131.713282726454963c-.39453125,0-.71484375.0947265625-.9609375.2841796875s-.4375.4228515625-.57421875.7001953125v2.759765625c.140625.28125.3359375.517578125.5859375.708984375s.5703125.287109375.9609375.287109375c.5859375,0,1.0068359375-.2255859375,1.2626953125-.6767578125s.3837890625-.9912109375.3837890625-1.6201171875v-.123046875c0-.62890625-.1220703125-1.1728515625-.3662109375-1.6318359375s-.6748046875-.6884765625-1.2919921875-.6884765625Z"/><path class="k" d="M210.276115833649783,138.234767101454963c-.078125.20703125-.19140625.4345703125-.33984375.6826171875s-.3466796875.4599609375-.5947265625.6357421875-.5634765625.263671875-.9462890625.263671875c-.08984375,0-.2001953125-.0107421875-.3310546875-.0322265625s-.2236328125-.0419921875-.2783203125-.0615234375l-.005859375-.87890625c.0859375.015625.18359375.0234375.29296875.0234375.3671875,0,.654296875-.0751953125.861328125-.2255859375s.376953125-.4208984375.509765625-.8115234375l.234375-.64453125-2.26171875-6.26953125h1.18359375l1.587890625,4.74609375,1.470703125-4.74609375h1.16015625l-2.54296875,7.318359375Z"/><path class="k" d="M214.969475208649783,128.256251476454963v9h-1.08984375v-9h1.08984375Z"/><path class="k" d="M224.455803333649783,130.916407726454963l-2.279296875,6.33984375h-.826171875l-2.296875-6.33984375h1.11328125l1.611328125,4.857421875,1.5703125-4.857421875h1.107421875Z"/><path class="k" d="M233.789787708649783,134.543360851454963h1.125c-.0859375.80859375-.390625,1.482421875-.9140625,2.021484375s-1.296875.80859375-2.3203125.80859375c-1,0-1.8046875-.3603515625-2.4140625-1.0810546875s-.9140625-1.6787109375-.9140625-2.8740234375v-.849609375c0-1.1953125.3076171875-2.154296875.9228515625-2.876953125s1.4501953125-1.083984375,2.5048828125-1.083984375c.96484375,0,1.70703125.265625,2.2265625.796875s.822265625,1.216796875.908203125,2.056640625h-1.125c-.0859375-.59375-.27734375-1.0634765625-.57421875-1.4091796875s-.775390625-.5185546875-1.435546875-.5185546875c-.75390625,0-1.326171875.27734375-1.716796875.83203125s-.5859375,1.28515625-.5859375,2.19140625v.861328125c0,.83984375.177734375,1.5556640625.533203125,2.1474609375s.912109375.8876953125,1.669921875.8876953125c.71875,0,1.2255859375-.16796875,1.5205078125-.50390625s.4912109375-.8046875.5888671875-1.40625ZM230.742912708649783,126.252345226454963l.884765625.99609375.884765625-.99609375h.9375v.05859375l-1.48828125,1.60546875h-.66796875l-1.46484375-1.60546875v-.05859375h.9140625Z"/><path class="k" d="M241.436272083649783,137.256251476454963l-1.8515625-3.45703125h-2.00390625v3.45703125h-1.130859375v-8.53125h2.82421875c.95703125,0,1.6943359375.21875,2.2119140625.65625s.7763671875,1.072265625.7763671875,1.904296875c0,.53125-.1435546875.9951171875-.4306640625,1.3916015625s-.6845703125.6923828125-1.1923828125.8876953125l2.00390625,3.62109375v.0703125h-1.20703125ZM237.580803333649783,129.650782726454963v3.228515625h1.728515625c.60546875,0,1.0615234375-.1552734375,1.3681640625-.4658203125s.4599609375-.6865234375.4599609375-1.1279296875c0-.4921875-.1474609375-.8876953125-.4423828125-1.1865234375s-.7685546875-.4482421875-1.4208984375-.4482421875h-1.693359375Z"/><path class="k" d="M160.166740833649783,143.113185070204963v8.54296875h-1.693359375v-6.533203125l-2.015625.626953125v-1.37109375l3.52734375-1.265625h.181640625Z"/><path class="k" d="M168.744865833649783,143.124903820204963v.943359375l-3.298828125,7.587890625h-1.787109375l3.298828125-7.166015625h-4.2421875v-1.365234375h6.029296875Z"/><path class="k" d="M171.492912708649783,150.214747570204963l-.005859375,1.154296875c0,.44140625-.1083984375.884765625-.3251953125,1.330078125s-.4931640625.8125-.8291015625,1.1015625l-.87890625-.462890625c.14453125-.265625.2822265625-.541015625.4130859375-.826171875s.1962890625-.638671875.1962890625-1.060546875v-1.236328125h1.4296875Z"/><path class="k" d="M178.565178333649783,143.124903820204963v.943359375l-3.298828125,7.587890625h-1.787109375l3.298828125-7.166015625h-4.2421875v-1.365234375h6.029296875Z"/><path class="k" d="M179.619865833649783,145.216700695204963v-.451171875c0-.484375.158203125-.8994140625.474609375-1.2451171875s.775390625-.5185546875,1.376953125-.5185546875c.61328125,0,1.0751953125.1728515625,1.3857421875.5185546875s.4658203125.7607421875.4658203125,1.2451171875v.451171875c0,.4765625-.1552734375.8876953125-.4658203125,1.2333984375s-.7685546875.5185546875-1.3740234375.5185546875-1.0673828125-.1728515625-1.3857421875-.5185546875-.4775390625-.7568359375-.4775390625-1.2333984375ZM180.750725208649783,144.765528820204963v.451171875c0,.203125.0595703125.3828125.1787109375.5390625s.3037109375.234375.5537109375.234375c.2421875,0,.421875-.078125.5390625-.234375s.17578125-.3359375.17578125-.5390625v-.451171875c0-.20703125-.0595703125-.3896484375-.1787109375-.5478515625s-.3017578125-.2373046875-.5478515625-.2373046875c-.2421875,0-.4228515625.0791015625-.5419921875.2373046875s-.1787109375.3408203125-.1787109375.5478515625ZM185.983147083649783,144.349513195204963l-4.166015625,6.66796875-.826171875-.4453125,4.166015625-6.66796875.826171875.4453125ZM183.697990833649783,150.015528820204963v-.451171875c0-.48046875.1591796875-.8935546875.4775390625-1.2392578125s.7783203125-.5185546875,1.3798828125-.5185546875c.609375,0,1.0703125.1728515625,1.3828125.5185546875s.46875.7587890625.46875,1.2392578125v.451171875c0,.48046875-.15625.8935546875-.46875,1.2392578125s-.76953125.5185546875-1.37109375.5185546875c-.60546875,0-1.068359375-.1728515625-1.388671875-.5185546875s-.48046875-.7587890625-.48046875-1.2392578125ZM184.828850208649783,149.564356945204963v.451171875c0,.203125.06640625.3837890625.19921875.5419921875s.3125.2373046875.5390625.2373046875c.27734375,0,.4658203125-.0791015625.5654296875-.2373046875s.1494140625-.3388671875.1494140625-.5419921875v-.451171875c0-.20703125-.060546875-.388671875-.181640625-.544921875s-.302734375-.234375-.544921875-.234375c-.24609375,0-.4287109375.078125-.5478515625.234375s-.1787109375.337890625-.1787109375.544921875Z"/><path class="k" d="M194.813225208649783,151.773341320204963c-.6328125,0-1.150390625-.224609375-1.552734375-.673828125v2.994140625h-1.69921875v-8.77734375h1.576171875l.064453125.615234375c.40234375-.48828125.93359375-.732421875,1.59375-.732421875.8046875,0,1.4189453125.294921875,1.8427734375.884765625s.6357421875,1.3671875.6357421875,2.33203125v.123046875c0,.921875-.2119140625,1.69140625-.6357421875,2.30859375s-1.0322265625.92578125-1.8251953125.92578125ZM194.356193958649783,146.570216320204963c-.52734375,0-.892578125.205078125-1.095703125.615234375v2.595703125c.2109375.41796875.580078125.626953125,1.107421875.626953125.44140625,0,.75390625-.18359375.9375-.55078125s.275390625-.806640625.275390625-1.318359375v-.123046875c0-.5234375-.0947265625-.9619140625-.2841796875-1.3154296875s-.5029296875-.5302734375-.9404296875-.5302734375Z"/><path class="k" d="M198.053459583649783,148.550685070204963v-.123046875c0-.921875.26171875-1.6904296875.78515625-2.3056640625s1.26171875-.9228515625,2.21484375-.9228515625c.96484375,0,1.70703125.3076171875,2.2265625.9228515625s.779296875,1.3837890625.779296875,2.3056640625v.123046875c0,.921875-.259765625,1.689453125-.779296875,2.302734375s-1.2578125.919921875-2.21484375.919921875c-.9609375,0-1.703125-.306640625-2.2265625-.919921875s-.78515625-1.380859375-.78515625-2.302734375ZM199.752678333649783,148.427638195204963v.123046875c0,.515625.0986328125.9541015625.2958984375,1.3154296875s.5361328125.5419921875,1.0166015625.5419921875c.47265625,0,.8076171875-.1806640625,1.0048828125-.5419921875s.2958984375-.7998046875.2958984375-1.3154296875v-.123046875c0-.50390625-.0986328125-.9404296875-.2958984375-1.3095703125s-.5361328125-.5537109375-1.0166015625-.5537109375c-.4765625,0-.8125.1845703125-1.0078125.5537109375s-.29296875.8056640625-.29296875,1.3095703125Z"/><path class="k" d="M209.022209583649783,151.656153820204963l-.08203125-.673828125c-.1953125.24609375-.4267578125.439453125-.6943359375.580078125s-.5771484375.2109375-.9287109375.2109375c-.78515625,0-1.39453125-.3046875-1.828125-.9140625s-.650390625-1.375-.650390625-2.296875v-.123046875c0-.96484375.216796875-1.74609375.650390625-2.34375s1.046875-.896484375,1.83984375-.896484375c.6171875,0,1.125.228515625,1.5234375.685546875v-3.228515625h1.69921875v9h-1.529296875ZM206.537834583649783,148.562403820204963c0,.5078125.08984375.9404296875.26953125,1.2978515625s.4921875.5361328125.9375.5361328125c.515625,0,.884765625-.21875,1.107421875-.65625v-2.513671875c-.21484375-.4375-.580078125-.65625-1.095703125-.65625-.44140625,0-.7548828125.1806640625-.9404296875.5419921875s-.2783203125.8037109375-.2783203125,1.3271484375v.123046875Z"/><path class="k" d="M213.703850208649783,145.316310070204963v6.33984375h-1.69921875v-6.33984375h1.69921875ZM212.051506458649783,144.554591320204963l1.1484375-1.810546875h1.845703125l-1.623046875,1.810546875h-1.37109375Z"/><path class="k" d="M216.949943958649783,142.656153820204963v9h-1.69921875v-9h1.69921875Z"/><path class="k" d="M228.451897083649783,147.203028820204963v.380859375c0,1.30078125-.3369140625,2.32421875-1.0107421875,3.0703125s-1.5458984375,1.119140625-2.6162109375,1.119140625-1.9453125-.373046875-2.625-1.119140625-1.01953125-1.76953125-1.01953125-3.0703125v-.380859375c0-1.30078125.337890625-2.3251953125,1.013671875-3.0732421875s1.548828125-1.1220703125,2.619140625-1.1220703125,1.9443359375.3740234375,2.6220703125,1.1220703125,1.0166015625,1.7724609375,1.0166015625,3.0732421875ZM226.670647083649783,147.583888195204963v-.392578125c0-.890625-.162109375-1.568359375-.486328125-2.033203125s-.78125-.697265625-1.37109375-.697265625c-.59375,0-1.05078125.232421875-1.37109375.697265625s-.48046875,1.142578125-.48046875,2.033203125v.392578125c0,.88671875.162109375,1.5654296875.486328125,2.0361328125s.783203125.7060546875,1.376953125.7060546875,1.0498046875-.2353515625,1.3681640625-.7060546875.4775390625-1.1494140625.4775390625-2.0361328125Z"/><path class="k" d="M229.260490833649783,144.548731945204963v-1.423828125h6.3984375v1.0078125l-4.201171875,6.10546875h4.294921875v1.41796875h-6.4921875v-1.03125l4.21875-6.076171875h-4.21875Z"/><path class="k" d="M236.865959583649783,151.656153820204963v-8.53125h5.70703125v1.423828125h-3.943359375v2.033203125h3.369140625v1.376953125h-3.369140625v2.279296875h3.9609375v1.41796875h-5.724609375Z"/><path class="k" d="M115.061272083649783,160.513087413954963c-.34765625,0-.654296875.09375-.919921875.28125s-.474609375.431640625-.626953125.732421875v4.529296875h-1.083984375v-6.33984375h1.025390625l.03515625.791015625c.48046875-.60546875,1.111328125-.908203125,1.892578125-.908203125.625,0,1.1201171875.17578125,1.4853515625.52734375s.5478515625.943359375.5478515625,1.775390625v4.154296875h-1.08984375v-4.166015625c0-.49609375-.1083984375-.849609375-.3251953125-1.060546875s-.5302734375-.31640625-.9404296875-.31640625Z"/><path class="k" d="M122.971428333649783,166.056056163954963c-.0703125-.15234375-.12109375-.375-.15234375-.66796875-.203125.21484375-.45703125.3994140625-.76171875.5537109375s-.65234375.2314453125-1.04296875.2314453125c-.6484375,0-1.16796875-.181640625-1.55859375-.544921875s-.5859375-.80859375-.5859375-1.3359375c0-.6796875.2578125-1.1962890625.7734375-1.5498046875s1.208984375-.5302734375,2.080078125-.5302734375h1.072265625v-.50390625c0-.375-.1123046875-.6748046875-.3369140625-.8994140625s-.5576171875-.3369140625-.9990234375-.3369140625c-.41015625,0-.7412109375.1005859375-.9931640625.3017578125s-.3779296875.4345703125-.3779296875.7001953125h-1.083984375c0-.453125.228515625-.87890625.685546875-1.27734375s1.068359375-.59765625,1.833984375-.59765625c.6875,0,1.251953125.17578125,1.693359375.52734375s.662109375.8828125.662109375,1.59375v2.953125c0,.2109375.0185546875.435546875.0556640625.673828125s.0927734375.443359375.1669921875.615234375v.09375h-1.130859375ZM121.172600208649783,165.224024913954963c.390625,0,.7294921875-.09765625,1.0166015625-.29296875s.4892578125-.412109375.6064453125-.650390625v-1.306640625h-.896484375c-1.29296875,0-1.939453125.390625-1.939453125,1.171875,0,.30078125.1015625.5556640625.3046875.7646484375s.505859375.3134765625.908203125.3134765625Z"/><path class="k" d="M132.533928333649783,166.056056163954963l-2.197265625-2.94140625-.685546875.708984375v2.232421875h-1.08984375v-9h1.08984375v5.4375l.580078125-.69140625,1.96875-2.0859375h1.32421875l-2.47265625,2.642578125,2.759765625,3.697265625h-1.27734375Z"/><path class="k" d="M134.356193958649783,162.956446788954963v-.134765625c0-.91796875.2578125-1.6845703125.7734375-2.2998046875s1.216796875-.9228515625,2.103515625-.9228515625c.89453125,0,1.6005859375.3076171875,2.1181640625.9228515625s.7763671875,1.3818359375.7763671875,2.2998046875v.134765625c0,.91796875-.2587890625,1.68359375-.7763671875,2.296875s-1.2197265625.919921875-2.1064453125.919921875c-.890625,0-1.5947265625-.306640625-2.1123046875-.919921875s-.7763671875-1.37890625-.7763671875-2.296875ZM135.440178333649783,162.821681163954963v.134765625c0,.62890625.1494140625,1.173828125.4482421875,1.634765625s.7509765625.69140625,1.3564453125.69140625c.59375,0,1.041015625-.23046875,1.341796875-.69140625s.451171875-1.005859375.451171875-1.634765625v-.134765625c0-.62109375-.150390625-1.1650390625-.451171875-1.6318359375s-.751953125-.7001953125-1.353515625-.7001953125c-.59765625,0-1.0458984375.2333984375-1.3447265625.7001953125s-.4482421875,1.0107421875-.4482421875,1.6318359375Z"/><path class="k" d="M144.117912708649783,160.513087413954963c-.34765625,0-.654296875.09375-.919921875.28125s-.474609375.431640625-.626953125.732421875v4.529296875h-1.083984375v-6.33984375h1.025390625l.03515625.791015625c.48046875-.60546875,1.111328125-.908203125,1.892578125-.908203125.625,0,1.1201171875.17578125,1.4853515625.52734375s.5478515625.943359375.5478515625,1.775390625v4.154296875h-1.08984375v-4.166015625c0-.49609375-.1083984375-.849609375-.3251953125-1.060546875s-.5302734375-.31640625-.9404296875-.31640625Z"/><path class="k" d="M148.131584583649783,165.481837413954963c0-.18359375.0576171875-.3388671875.1728515625-.4658203125s.2822265625-.1904296875.5009765625-.1904296875.3857421875.0634765625.5009765625.1904296875.1728515625.2822265625.1728515625.4658203125c0,.1796875-.0576171875.33203125-.1728515625.45703125s-.2822265625.1875-.5009765625.1875-.3857421875-.0625-.5009765625-.1875-.1728515625-.27734375-.1728515625-.45703125Z"/><path class="k" d="M157.946037708649783,164.374415538954963c0-.234375-.0869140625-.4443359375-.2607421875-.6298828125s-.5732421875-.3408203125-1.1982421875-.4658203125c-.70703125-.1484375-1.2646484375-.359375-1.6728515625-.6328125s-.6123046875-.671875-.6123046875-1.1953125c0-.5.2138671875-.93359375.6416015625-1.30078125s.9970703125-.55078125,1.7080078125-.55078125c.7578125,0,1.349609375.193359375,1.775390625.580078125s.638671875.853515625.638671875,1.400390625h-1.083984375c0-.26171875-.115234375-.5087890625-.345703125-.7412109375s-.55859375-.3486328125-.984375-.3486328125c-.44921875,0-.771484375.09765625-.966796875.29296875s-.29296875.408203125-.29296875.638671875c0,.234375.09375.4228515625.28125.5654296875s.580078125.2802734375,1.177734375.4130859375c.77734375.1796875,1.3515625.412109375,1.72265625.697265625s.556640625.68359375.556640625,1.1953125c0,.55859375-.2236328125,1.01171875-.6708984375,1.359375s-1.0400390625.521484375-1.7783203125.521484375c-.83984375,0-1.482421875-.21484375-1.927734375-.64453125s-.66796875-.90625-.66796875-1.4296875h1.08984375c.0234375.44921875.1962890625.7587890625.5185546875.9287109375s.6513671875.2548828125.9873046875.2548828125c.44140625,0,.779296875-.0859375,1.013671875-.2578125s.3515625-.388671875.3515625-.650390625Z"/><path class="k" d="M163.342522083649783,166.173243663954963c-.76171875,0-1.365234375-.244140625-1.810546875-.732421875v3.052734375h-1.08984375v-8.77734375h.99609375l.052734375.697265625c.4453125-.54296875,1.056640625-.814453125,1.833984375-.814453125.80078125,0,1.4140625.296875,1.83984375.890625s.638671875,1.375.638671875,2.34375v.123046875c0,.92578125-.2138671875,1.693359375-.6416015625,2.302734375s-1.0341796875.9140625-1.8193359375.9140625ZM163.008537708649783,160.513087413954963c-.3671875,0-.669921875.0830078125-.908203125.2490234375s-.427734375.3740234375-.568359375.6240234375v3.03515625c.14453125.25.3349609375.4560546875.5712890625.6181640625s.5419921875.2431640625.9169921875.2431640625c.5859375,0,1.0146484375-.23046875,1.2861328125-.69140625s.4072265625-1.005859375.4072265625-1.634765625v-.123046875c0-.62890625-.1357421875-1.1728515625-.4072265625-1.6318359375s-.7041015625-.6884765625-1.2978515625-.6884765625Z"/><path class="k" d="M166.899162708649783,162.956446788954963v-.134765625c0-.91796875.2578125-1.6845703125.7734375-2.2998046875s1.216796875-.9228515625,2.103515625-.9228515625c.89453125,0,1.6005859375.3076171875,2.1181640625.9228515625s.7763671875,1.3818359375.7763671875,2.2998046875v.134765625c0,.91796875-.2587890625,1.68359375-.7763671875,2.296875s-1.2197265625.919921875-2.1064453125.919921875c-.890625,0-1.5947265625-.306640625-2.1123046875-.919921875s-.7763671875-1.37890625-.7763671875-2.296875ZM167.983147083649783,162.821681163954963v.134765625c0,.62890625.1494140625,1.173828125.4482421875,1.634765625s.7509765625.69140625,1.3564453125.69140625c.59375,0,1.041015625-.23046875,1.341796875-.69140625s.451171875-1.005859375.451171875-1.634765625v-.134765625c0-.62109375-.150390625-1.1650390625-.451171875-1.6318359375s-.751953125-.7001953125-1.353515625-.7001953125c-.59765625,0-1.0458984375.2333984375-1.3447265625.7001953125s-.4482421875,1.0107421875-.4482421875,1.6318359375Z"/><path class="k" d="M176.713615833649783,166.056056163954963c-.0859375.02734375-.1982421875.0537109375-.3369140625.0791015625s-.3056640625.0380859375-.5009765625.0380859375c-.40234375,0-.74609375-.123046875-1.03125-.369140625s-.427734375-.6875-.427734375-1.32421875v-3.931640625h-1.16015625v-.83203125h1.16015625v-1.541015625h1.083984375v1.541015625h1.18359375v.83203125h-1.18359375v3.9375c0,.32421875.0703125.53125.2109375.62109375s.302734375.134765625.486328125.134765625c.08984375,0,.1845703125-.0087890625.2841796875-.0263671875s.1748046875-.0322265625.2255859375-.0439453125l.005859375.884765625Z"/><path class="k" d="M178.629631458649783,157.061915538954963l.884765625.99609375.884765625-.99609375h.9375v.05859375l-1.48828125,1.60546875h-.66796875l-1.46484375-1.60546875v-.05859375h.9140625ZM180.487053333649783,160.641993663954963c-.37109375,0-.67578125.0830078125-.9140625.2490234375s-.416015625.3876953125-.533203125.6650390625v4.5h-1.083984375v-6.33984375h1.0546875l.0234375.7265625c.16015625-.2578125.3642578125-.462890625.6123046875-.615234375s.5458984375-.228515625.8935546875-.228515625c.203125,0,.36328125.02734375.48046875.08203125l-.005859375,1.0078125c-.16015625-.03125-.3359375-.046875-.52734375-.046875Z"/><path class="k" d="M186.926506458649783,164.948634288954963c-.20703125.3125-.5.5947265625-.87890625.8466796875s-.880859375.3779296875-1.505859375.3779296875c-.8828125,0-1.5888671875-.287109375-2.1181640625-.861328125s-.7939453125-1.30859375-.7939453125-2.203125v-.24609375c0-.69140625.1318359375-1.2802734375.3955078125-1.7666015625s.6064453125-.857421875,1.0283203125-1.11328125.87109375-.3837890625,1.34765625-.3837890625c.90625,0,1.5673828125.2958984375,1.9833984375.8876953125s.6240234375,1.3310546875.6240234375,2.2177734375v.486328125h-4.2890625c.015625.58203125.1884765625,1.0771484375.5185546875,1.4853515625s.7841796875.6123046875,1.3623046875.6123046875c.3828125,0,.70703125-.078125.97265625-.234375s.498046875-.365234375.697265625-.626953125l.65625.521484375ZM184.401115833649783,160.489649913954963c-.4296875,0-.79296875.15625-1.08984375.46875s-.482421875.76171875-.556640625,1.34765625h3.169921875v-.08203125c-.02734375-.421875-.1494140625-.81640625-.3662109375-1.18359375s-.6025390625-.55078125-1.1572265625-.55078125Z"/><path class="k" d="M193.641350208649783,162.956446788954963c0,.92578125-.21484375,1.693359375-.64453125,2.302734375s-1.037109375.9140625-1.822265625.9140625c-.80078125,0-1.41796875-.283203125-1.8515625-.849609375l-.05859375.732421875h-.99609375v-9h1.08984375v3.345703125c.4296875-.53515625,1.03125-.802734375,1.8046875-.802734375.796875,0,1.4091796875.296875,1.8369140625.890625s.6416015625,1.375.6416015625,2.34375v.123046875ZM190.893303333649783,160.513087413954963c-.39453125,0-.71484375.0947265625-.9609375.2841796875s-.4375.4228515625-.57421875.7001953125v2.759765625c.140625.28125.3359375.517578125.5859375.708984375s.5703125.287109375.9609375.287109375c.5859375,0,1.0068359375-.2255859375,1.2626953125-.6767578125s.3837890625-.9912109375.3837890625-1.6201171875v-.123046875c0-.62890625-.1220703125-1.1728515625-.3662109375-1.6318359375s-.6748046875-.6884765625-1.2919921875-.6884765625Z"/><path class="k" d="M200.028068958649783,164.948634288954963c-.20703125.3125-.5.5947265625-.87890625.8466796875s-.880859375.3779296875-1.505859375.3779296875c-.8828125,0-1.5888671875-.287109375-2.1181640625-.861328125s-.7939453125-1.30859375-.7939453125-2.203125v-.24609375c0-.69140625.1318359375-1.2802734375.3955078125-1.7666015625s.6064453125-.857421875,1.0283203125-1.11328125.87109375-.3837890625,1.34765625-.3837890625c.90625,0,1.5673828125.2958984375,1.9833984375.8876953125s.6240234375,1.3310546875.6240234375,2.2177734375v.486328125h-4.2890625c.015625.58203125.1884765625,1.0771484375.5185546875,1.4853515625s.7841796875.6123046875,1.3623046875.6123046875c.3828125,0,.70703125-.078125.97265625-.234375s.498046875-.365234375.697265625-.626953125l.65625.521484375ZM196.606193958649783,157.061915538954963l.884765625.99609375.884765625-.99609375h.9375v.05859375l-1.48828125,1.60546875h-.66796875l-1.46484375-1.60546875v-.05859375h.9140625ZM197.502678333649783,160.489649913954963c-.4296875,0-.79296875.15625-1.08984375.46875s-.482421875.76171875-.556640625,1.34765625h3.169921875v-.08203125c-.02734375-.421875-.1494140625-.81640625-.3662109375-1.18359375s-.6025390625-.55078125-1.1572265625-.55078125Z"/><path class="k" d="M209.367912708649783,164.948634288954963c-.20703125.3125-.5.5947265625-.87890625.8466796875s-.880859375.3779296875-1.505859375.3779296875c-.8828125,0-1.5888671875-.287109375-2.1181640625-.861328125s-.7939453125-1.30859375-.7939453125-2.203125v-.24609375c0-.69140625.1318359375-1.2802734375.3955078125-1.7666015625s.6064453125-.857421875,1.0283203125-1.11328125.87109375-.3837890625,1.34765625-.3837890625c.90625,0,1.5673828125.2958984375,1.9833984375.8876953125s.6240234375,1.3310546875.6240234375,2.2177734375v.486328125h-4.2890625c.015625.58203125.1884765625,1.0771484375.5185546875,1.4853515625s.7841796875.6123046875,1.3623046875.6123046875c.3828125,0,.70703125-.078125.97265625-.234375s.498046875-.365234375.697265625-.626953125l.65625.521484375ZM206.842522083649783,160.489649913954963c-.4296875,0-.79296875.15625-1.08984375.46875s-.482421875.76171875-.556640625,1.34765625h3.169921875v-.08203125c-.02734375-.421875-.1494140625-.81640625-.3662109375-1.18359375s-.6025390625-.55078125-1.1572265625-.55078125Z"/><path class="k" d="M213.346428333649783,160.513087413954963c-.34765625,0-.654296875.09375-.919921875.28125s-.474609375.431640625-.626953125.732421875v4.529296875h-1.083984375v-6.33984375h1.025390625l.03515625.791015625c.48046875-.60546875,1.111328125-.908203125,1.892578125-.908203125.625,0,1.1201171875.17578125,1.4853515625.52734375s.5478515625.943359375.5478515625,1.775390625v4.154296875h-1.08984375v-4.166015625c0-.49609375-.1083984375-.849609375-.3251953125-1.060546875s-.5302734375-.31640625-.9404296875-.31640625Z"/><path class="k" d="M222.358147083649783,164.948634288954963c-.20703125.3125-.5.5947265625-.87890625.8466796875s-.880859375.3779296875-1.505859375.3779296875c-.8828125,0-1.5888671875-.287109375-2.1181640625-.861328125s-.7939453125-1.30859375-.7939453125-2.203125v-.24609375c0-.69140625.1318359375-1.2802734375.3955078125-1.7666015625s.6064453125-.857421875,1.0283203125-1.11328125.87109375-.3837890625,1.34765625-.3837890625c.90625,0,1.5673828125.2958984375,1.9833984375.8876953125s.6240234375,1.3310546875.6240234375,2.2177734375v.486328125h-4.2890625c.015625.58203125.1884765625,1.0771484375.5185546875,1.4853515625s.7841796875.6123046875,1.3623046875.6123046875c.3828125,0,.70703125-.078125.97265625-.234375s.498046875-.365234375.697265625-.626953125l.65625.521484375ZM219.832756458649783,160.489649913954963c-.4296875,0-.79296875.15625-1.08984375.46875s-.482421875.76171875-.556640625,1.34765625h3.169921875v-.08203125c-.02734375-.421875-.1494140625-.81640625-.3662109375-1.18359375s-.6025390625-.55078125-1.1572265625-.55078125Z"/><path class="k" d="M226.237053333649783,160.641993663954963c-.37109375,0-.67578125.0830078125-.9140625.2490234375s-.416015625.3876953125-.533203125.6650390625v4.5h-1.083984375v-6.33984375h1.0546875l.0234375.7265625c.16015625-.2578125.3642578125-.462890625.6123046875-.615234375s.5458984375-.228515625.8935546875-.228515625c.203125,0,.36328125.02734375.48046875.08203125l-.005859375,1.0078125c-.16015625-.03125-.3359375-.046875-.52734375-.046875Z"/><path class="k" d="M232.752678333649783,165.921290538954963c0,.83984375-.25,1.4892578125-.75,1.9482421875s-1.14453125.6884765625-1.93359375.6884765625c-.328125,0-.73046875-.080078125-1.20703125-.240234375s-.857421875-.447265625-1.142578125-.861328125l.568359375-.64453125c.265625.32421875.54296875.5478515625.83203125.6708984375s.578125.1845703125.8671875.1845703125c.51171875,0,.919921875-.1435546875,1.224609375-.4306640625s.45703125-.7080078125.45703125-1.2626953125v-.556640625c-.4296875.50390625-1.021484375.755859375-1.775390625.755859375-.76171875,0-1.3671875-.3046875-1.81640625-.9140625s-.673828125-1.376953125-.673828125-2.302734375v-.123046875c0-.96875.2236328125-1.75.6708984375-2.34375s1.0576171875-.890625,1.8310546875-.890625c.77734375,0,1.380859375.2734375,1.810546875.8203125l.052734375-.703125h.984375v6.205078125ZM228.487053333649783,162.956446788954963c0,.62890625.1318359375,1.1689453125.3955078125,1.6201171875s.6884765625.6767578125,1.2744140625.6767578125c.38671875,0,.7001953125-.087890625.9404296875-.263671875s.4306640625-.400390625.5712890625-.673828125v-2.888671875c-.13671875-.26171875-.326171875-.4794921875-.568359375-.6533203125s-.552734375-.2607421875-.931640625-.2607421875c-.58984375,0-1.017578125.2294921875-1.283203125.6884765625s-.3984375,1.0029296875-.3984375,1.6318359375v.123046875Z"/><path class="k" d="M234.405022083649783,158.034571788954963c0-.17578125.0537109375-.32421875.1611328125-.4453125s.2666015625-.181640625.4775390625-.181640625c.20703125,0,.3662109375.060546875.4775390625.181640625s.1669921875.26953125.1669921875.4453125c0,.16796875-.0556640625.3115234375-.1669921875.4306640625s-.2705078125.1787109375-.4775390625.1787109375c-.2109375,0-.3701171875-.0595703125-.4775390625-.1787109375s-.1611328125-.2626953125-.1611328125-.4306640625ZM235.576897083649783,159.716212413954963v6.33984375h-1.08984375v-6.33984375h1.08984375Z"/><path class="k" d="M242.332756458649783,164.948634288954963c-.20703125.3125-.5.5947265625-.87890625.8466796875s-.880859375.3779296875-1.505859375.3779296875c-.8828125,0-1.5888671875-.287109375-2.1181640625-.861328125s-.7939453125-1.30859375-.7939453125-2.203125v-.24609375c0-.69140625.1318359375-1.2802734375.3955078125-1.7666015625s.6064453125-.857421875,1.0283203125-1.11328125.87109375-.3837890625,1.34765625-.3837890625c.90625,0,1.5673828125.2958984375,1.9833984375.8876953125s.6240234375,1.3310546875.6240234375,2.2177734375v.486328125h-4.2890625c.015625.58203125.1884765625,1.0771484375.5185546875,1.4853515625s.7841796875.6123046875,1.3623046875.6123046875c.3828125,0,.70703125-.078125.97265625-.234375s.498046875-.365234375.697265625-.626953125l.65625.521484375ZM239.807365833649783,160.489649913954963c-.4296875,0-.79296875.15625-1.08984375.46875s-.482421875.76171875-.556640625,1.34765625h3.169921875v-.08203125c-.02734375-.421875-.1494140625-.81640625-.3662109375-1.18359375s-.6025390625-.55078125-1.1572265625-.55078125Z"/><line class="d" x1="240.611809193024783" y1="169.953028820199961" x2="240.611809193024783" y2="195.625392101449961"/><polygon class="k" points="239.115898548493533 195.187647960829963 240.611809193024783 197.778224132699961 242.107658802399783 195.187647960829963 239.115898548493533 195.187647960829963"/><line class="d" x1="303.127922474274783" y1="188.751124523329963" x2="303.127922474274783" y2="163.078761242079963"/><polygon class="k" points="304.623833118806033 163.516505382704963 303.127922474274783 160.925929210829963 301.632072864899783 163.516505382704963 304.623833118806033 163.516505382704963"/><rect class="n" x="215.176246695120426" y="68.968599463169767" width="97.959537088902835" height="22.128379767049864"/><text class="v" transform="translate(235.201897083649783 84.194361828017463)"><tspan class="o" x="0" y="0">Cíl EU </tspan><tspan class="t" x="34.25390625" y="0">42,5 %</tspan></text><circle class="f" cx="303.160552913863057" cy="94.99499921225015" r="6.073685797323265"/><rect class="n" x="277.154601003324387" y="190.975263348404724" width="27.83594976380482" height="34.406235510480201"/><polygon class="n" points="305.990550767129207 231.738441383043209 255.199794743425628 226.738441383043209 255.199794743425628 207.592425092936537 305.990550767129207 212.592425092936537 305.990550767129207 231.738441383043209"/><text class="l" transform="translate(280.412102161774783 202.475245617079963)"><tspan class="t"><tspan x="0" y="0">30 %</tspan></tspan><tspan class="o"><tspan x="-22.501953125" y="17">Cíl p</tspan><tspan class="u" x=".912109375" y="17">r</tspan><tspan x="4.861328125" y="17">o ČR</tspan></tspan><tspan class="o"><tspan x="-60.11328125" y="30">n</tspan><tspan class="j" x="-53.486328125" y="30">a</tspan><tspan x="-47.046875" y="30">vr</tspan><tspan class="s" x="-37.16796875" y="30">ž</tspan><tspan x="-31.30859375" y="30">ený v NECP</tspan></tspan></text></svg>