<?xml version="1.0" encoding="UTF-8"?>
<svg id="Layer_1" data-name="Layer 1" xmlns="http://www.w3.org/2000/svg" viewBox="0 0 660 297.9922">
  <defs>
    <style>
      .cls-1, .cls-2, .cls-3 {
        stroke-miterlimit: 10;
      }

      .cls-1, .cls-4 {
        fill: #fff;
      }

      .cls-1, .cls-3 {
        stroke: #005447;
        stroke-width: .5px;
      }

      .cls-2 {
        stroke: red;
        stroke-width: 2px;
      }

      .cls-2, .cls-3 {
        fill: none;
      }

      .cls-5 {
        fill: #515b66;
      }

      .cls-5, .cls-6, .cls-7, .cls-4, .cls-8, .cls-9 {
        stroke-width: 0px;
      }

      .cls-6 {
        fill: #d8ebcc;
      }

      .cls-7 {
        fill: #333;
      }

      .cls-8 {
        fill: red;
      }

      .cls-9 {
        fill: #005447;
      }
    </style>
  </defs>
  <circle class="cls-6" cx="82.9506" cy="102.0394" r="42.3639"/>
  <circle class="cls-6" cx="335.1" cy="206.8508" r="42.3639"/>
  <g>
    <polygon class="cls-1" points="100.8835 112.1582 127.5174 112.1582 115.6494 72.9664 89.0156 72.9664 100.8835 112.1582"/>
    <line class="cls-3" x1="115.6494" y1="72.9664" x2="89.0156" y2="72.9664"/>
    <line class="cls-3" x1="118.6353" y1="82.0922" x2="92.0015" y2="82.0922"/>
    <line class="cls-3" x1="121.6212" y1="91.9621" x2="94.9873" y2="91.9621"/>
    <line class="cls-3" x1="124.607" y1="102.0394" x2="97.9732" y2="102.0394"/>
    <line class="cls-3" x1="119.208" y1="112.1582" x2="107.34" y2="72.9664"/>
    <line class="cls-3" x1="109.7395" y1="112.1582" x2="97.8716" y2="72.9664"/>
  </g>
  <g>
    <path class="cls-4" d="m100.2817,70.4414c-.2-9.3062-7.7917-16.7925-17.1458-16.7925s-16.9456,7.4863-17.1455,16.7925c-3.6667,4.0811-5.8997,9.4761-5.8997,15.3945,0,12.7275,10.3176,23.0452,23.0452,23.0452s23.0452-10.3176,23.0452-23.0452c0-5.9185-2.2329-11.3135-5.8994-15.3945Z"/>
    <path class="cls-3" d="m100.2817,70.4414c-.2-9.3062-7.7917-16.7925-17.1458-16.7925s-16.9456,7.4863-17.1455,16.7925c-3.6667,4.0811-5.8997,9.4761-5.8997,15.3945,0,12.7275,10.3176,23.0452,23.0452,23.0452s23.0452-10.3176,23.0452-23.0452c0-5.9185-2.2329-11.3135-5.8994-15.3945Z"/>
  </g>
  <g>
    <path class="cls-7" d="m58.4104,160.065h-1.6523v3.2812h-1.4824v-8.5312h3c.9844,0,1.7441.2207,2.2793.6626s.8027,1.0811.8027,1.9175c0,.5713-.1377,1.0488-.4131,1.4341s-.6592.6812-1.1514.8882l1.916,3.5527v.0762h-1.5879l-1.7109-3.2812Zm-1.6523-1.1953h1.5234c.5,0,.8906-.126,1.1719-.3779s.4219-.5967.4219-1.0342c0-.457-.1299-.8105-.3896-1.0605s-.6475-.3789-1.1631-.3867h-1.5645v2.8594Z"/>
    <path class="cls-7" d="m65.4182,163.4634c-.9023,0-1.6338-.2842-2.1943-.8525s-.8408-1.3252-.8408-2.2705v-.1758c0-.6328.1221-1.1982.3662-1.6963s.5869-.8857,1.0283-1.1631.9336-.416,1.4766-.416c.8633,0,1.5303.2754,2.001.8262s.7061,1.3301.7061,2.3379v.5742h-4.1426c.043.5234.2178.9375.5244,1.2422s.6924.457,1.1572.457c.6523,0,1.1836-.2637,1.5938-.791l.7676.7324c-.2539.3789-.5928.6729-1.0166.8818s-.8994.3135-1.4268.3135Zm-.1699-5.4316c-.3906,0-.7061.1367-.9463.4102s-.3936.6543-.46,1.1426h2.7129v-.1055c-.0312-.4766-.1582-.8369-.3809-1.0811s-.5312-.3662-.9258-.3662Z"/>
    <path class="cls-7" d="m72.8537,163.3462c-.0625-.1211-.1172-.3184-.1641-.5918-.4531.4727-1.0078.709-1.6641.709-.6367,0-1.1562-.1816-1.5586-.5449s-.6035-.8125-.6035-1.3477c0-.6758.251-1.1943.7529-1.5557s1.2197-.542,2.1533-.542h.873v-.416c0-.3281-.0918-.5908-.2754-.7881s-.4629-.2959-.8379-.2959c-.3242,0-.5898.0811-.7969.2432s-.3105.3682-.3105.6182h-1.4238c0-.3477.1152-.6729.3457-.9756s.5439-.54.9404-.7119.8389-.2578,1.3271-.2578c.7422,0,1.334.1865,1.7754.5596s.668.8975.6797,1.5732v2.8594c0,.5703.0801,1.0254.2402,1.3652v.0996h-1.4531Zm-1.5645-1.0254c.2812,0,.5459-.0684.7939-.2051s.4346-.3203.5596-.5508v-1.1953h-.7676c-.5273,0-.9238.0918-1.1895.2754s-.3984.4434-.3984.7793c0,.2734.0908.4912.2725.6533s.4248.2432.7295.2432Z"/>
    <path class="cls-7" d="m77.0725,163.3462h-1.4238v-9h1.4238v9Z"/>
    <path class="cls-7" d="m78.6252,155.3599c0-.2188.0693-.4004.208-.5449s.3369-.2168.5947-.2168.457.0723.5977.2168.2109.3262.2109.5449c0,.2148-.0703.3936-.2109.5361s-.3398.2139-.5977.2139-.4561-.0713-.5947-.2139-.208-.3213-.208-.5361Zm1.5117,7.9863h-1.4238v-6.3398h1.4238v6.3398Z"/>
    <path class="cls-7" d="m83.2072,162.2095h3.375v1.1367h-5.1445v-.9316l3.2168-4.2598h-3.1582v-1.1484h4.9629v.9023l-3.252,4.3008Z"/>
    <path class="cls-7" d="m91.51,163.3462c-.0625-.1211-.1172-.3184-.1641-.5918-.4531.4727-1.0078.709-1.6641.709-.6367,0-1.1562-.1816-1.5586-.5449s-.6035-.8125-.6035-1.3477c0-.6758.251-1.1943.7529-1.5557s1.2197-.542,2.1533-.542h.873v-.416c0-.3281-.0918-.5908-.2754-.7881s-.4629-.2959-.8379-.2959c-.3242,0-.5898.0811-.7969.2432s-.3105.3682-.3105.6182h-1.4238c0-.3477.1152-.6729.3457-.9756s.5439-.54.9404-.7119.8389-.2578,1.3271-.2578c.7422,0,1.334.1865,1.7754.5596s.668.8975.6797,1.5732v2.8594c0,.5703.0801,1.0254.2402,1.3652v.0996h-1.4531Zm-1.5645-1.0254c.2812,0,.5459-.0684.7939-.2051s.4346-.3203.5596-.5508v-1.1953h-.7676c-.5273,0-.9238.0918-1.1895.2754s-.3984.4434-.3984.7793c0,.2734.0908.4912.2725.6533s.4248.2432.7295.2432Zm.791-7.9746h1.623l-1.623,1.7754-1.1426-.0029,1.1426-1.7725Z"/>
    <path class="cls-7" d="m95.9983,155.4654v1.541h1.1191v1.0547h-1.1191v3.5391c0,.2422.0479.417.1436.5244s.2666.1611.5127.1611c.1641,0,.3301-.0195.498-.0586v1.1016c-.3242.0898-.6367.1348-.9375.1348-1.0938,0-1.6406-.6035-1.6406-1.8105v-3.5918h-1.043v-1.0547h1.043v-1.541h1.4238Z"/>
    <path class="cls-7" d="m97.7619,160.1177c0-.6211.123-1.1807.3691-1.6787s.5918-.8809,1.0371-1.1484.957-.4014,1.5352-.4014c.8555,0,1.5498.2754,2.083.8262s.8213,1.2812.8643,2.1914l.0059.334c0,.625-.1201,1.1836-.3604,1.6758s-.584.873-1.0312,1.1426-.9639.4043-1.5498.4043c-.8945,0-1.6104-.2979-2.1475-.8936s-.8057-1.3896-.8057-2.3818v-.0703Zm1.4238.123c0,.6523.1348,1.1631.4043,1.5322s.6445.5537,1.125.5537.8545-.1875,1.1221-.5625.4014-.9238.4014-1.6465c0-.6406-.1377-1.1484-.4131-1.5234s-.6494-.5625-1.1221-.5625c-.4648,0-.834.1846-1.1074.5537s-.4102.9209-.4102,1.6553Z"/>
    <path class="cls-7" d="m108.1799,158.3072c-.1875-.0312-.3809-.0469-.5801-.0469-.6523,0-1.0918.25-1.3184.75v4.3359h-1.4238v-6.3398h1.3594l.0352.709c.3438-.5508.8203-.8262,1.4297-.8262.2031,0,.3711.0273.5039.082l-.0059,1.3359Z"/>
  </g>
  <g>
    <path class="cls-7" d="m324.4633,271.9043c-.3086.4023-.7363.707-1.2832.9141s-1.168.3105-1.8633.3105c-.7148,0-1.3477-.1621-1.8984-.4863s-.9756-.7881-1.2744-1.3916-.4541-1.3076-.4658-2.1123v-.668c0-1.2891.3086-2.2959.9258-3.0205s1.4785-1.0869,2.584-1.0869c.9492,0,1.7031.2354,2.2617.7061s.8945,1.1475,1.0078,2.0303h-1.4531c-.1641-1.0273-.7598-1.541-1.7871-1.541-.6641,0-1.1689.2393-1.5146.7173s-.5244,1.1797-.5361,2.1045v.6553c0,.9214.1943,1.6362.583,2.146.3887.5093.9287.7637,1.6201.7637.7578,0,1.2969-.1719,1.6172-.5156v-1.6699h-1.7578v-1.125h3.2344v3.2695Z"/>
    <path class="cls-7" d="m329.7426,273.0117c-.0625-.1211-.1172-.3184-.1641-.5918-.4531.4727-1.0078.709-1.6641.709-.6367,0-1.1562-.1816-1.5586-.5449s-.6035-.8125-.6035-1.3477c0-.6758.251-1.1943.7529-1.5557s1.2197-.542,2.1533-.542h.873v-.416c0-.3281-.0918-.5908-.2754-.7881s-.4629-.2959-.8379-.2959c-.3242,0-.5898.0811-.7969.2432s-.3105.3682-.3105.6182h-1.4238c0-.3477.1152-.6729.3457-.9756s.5439-.54.9404-.7119.8389-.2578,1.3271-.2578c.7422,0,1.334.1865,1.7754.5596s.668.8975.6797,1.5732v2.8594c0,.5703.0801,1.0254.2402,1.3652v.0996h-1.4531Zm-1.5645-1.0254c.2812,0,.5459-.0684.7939-.2051s.4346-.3203.5596-.5508v-1.1953h-.7676c-.5273,0-.9238.0918-1.1895.2754s-.3984.4434-.3984.7793c0,.2734.0908.4912.2725.6533s.4248.2432.7295.2432Z"/>
    <path class="cls-7" d="m335.7661,267.9727c-.1875-.0312-.3809-.0469-.5801-.0469-.6523,0-1.0918.25-1.3184.75v4.3359h-1.4238v-6.3398h1.3594l.0352.709c.3438-.5508.8203-.8262,1.4297-.8262.2031,0,.3711.0273.5039.082l-.0059,1.3359Z"/>
    <path class="cls-7" d="m340.2778,273.0117c-.0625-.1211-.1172-.3184-.1641-.5918-.4531.4727-1.0078.709-1.6641.709-.6367,0-1.1562-.1816-1.5586-.5449s-.6035-.8125-.6035-1.3477c0-.6758.251-1.1943.7529-1.5557s1.2197-.542,2.1533-.542h.873v-.416c0-.3281-.0918-.5908-.2754-.7881s-.4629-.2959-.8379-.2959c-.3242,0-.5898.0811-.7969.2432s-.3105.3682-.3105.6182h-1.4238c0-.3477.1152-.6729.3457-.9756s.5439-.54.9404-.7119.8389-.2578,1.3271-.2578c.7422,0,1.334.1865,1.7754.5596s.668.8975.6797,1.5732v2.8594c0,.5703.0801,1.0254.2402,1.3652v.0996h-1.4531Zm-1.5645-1.0254c.2812,0,.5459-.0684.7939-.2051s.4346-.3203.5596-.5508v-1.1953h-.7676c-.5273,0-.9238.0918-1.1895.2754s-.3984.4434-.3984.7793c0,.2734.0908.4912.2725.6533s.4248.2432.7295.2432Z"/>
    <path class="cls-7" d="m344.3032,266.6719l.041.7324c.4688-.5664,1.084-.8496,1.8457-.8496,1.3203,0,1.9922.7559,2.0156,2.2676v4.1895h-1.4238v-4.1074c0-.4023-.0869-.7002-.2607-.8936s-.458-.29-.8525-.29c-.5742,0-1.002.2598-1.2832.7793v4.5117h-1.4238v-6.3398h1.3418Z"/>
    <path class="cls-7" d="m351.4399,265.1309v1.541h1.1191v1.0547h-1.1191v3.5391c0,.2422.0479.417.1436.5244s.2666.1611.5127.1611c.1641,0,.3301-.0195.498-.0586v1.1016c-.3242.0898-.6367.1348-.9375.1348-1.0938,0-1.6406-.6035-1.6406-1.8105v-3.5918h-1.043v-1.0547h1.043v-1.541h1.4238Z"/>
  </g>
  <g>
    <path class="cls-5" d="m254.6591,25.836v2.6367h-1.2354v-7.1094h2.7197c.7939,0,1.4248.207,1.8921.6206.4668.4141.7007.9614.7007,1.6426,0,.6973-.229,1.2402-.686,1.6279-.4575.3877-1.0981.5815-1.9214.5815h-1.4697Zm0-.9961h1.4844c.4395,0,.7744-.1035,1.0059-.3101.231-.2065.3467-.5054.3467-.896,0-.3843-.1172-.6909-.3516-.9204s-.5566-.3477-.9668-.354h-1.5186v2.4805Z"/>
    <path class="cls-5" d="m262.4277,25.7383h-1.377v2.7344h-1.2354v-7.1094h2.5c.8203,0,1.4531.1841,1.8994.5522.4458.3682.6689.9009.6689,1.5981,0,.4756-.1147.874-.3442,1.1948s-.5493.5674-.9595.7402l1.5967,2.9604v.0635h-1.3232l-1.4258-2.7344Zm-.3906-5.5273l.7129-.7568h1.0156v.0488l-1.3623,1.3623h-.7324l-1.3525-1.3672v-.0439h1.0059l.7129.7568Zm-.9863,4.5312h1.2695c.4165,0,.7422-.105.9766-.3149s.3516-.4971.3516-.8618c0-.3809-.1084-.6753-.3247-.8838-.2168-.2085-.5396-.3159-.9692-.3223h-1.3037v2.3828Z"/>
    <path class="cls-5" d="m267.3593,28.4727h-1.2305v-7.1094h1.2305v7.1094Zm-.2686-9.0479h1.3525l-1.3525,1.4795-.9521-.0024.9521-1.4771Z"/>
    <path class="cls-5" d="m272.5937,26.6416c0-.3125-.1099-.5532-.3296-.7227s-.6162-.3403-1.189-.5127c-.5732-.1724-1.0288-.3647-1.3672-.5762-.6479-.4067-.9717-.9375-.9717-1.5918,0-.5728.2334-1.0449.7007-1.416.4668-.3711,1.0732-.5566,1.8188-.5566.4946,0,.9355.0913,1.3232.2734.3872.1821.6914.4419.9131.7788.2212.3369.332.7104.332,1.1206h-1.2305c0-.3711-.1167-.6616-.3491-.8716-.2329-.21-.5659-.3149-.9985-.3149-.4038,0-.7173.0864-.9399.2588-.2231.1724-.3345.4136-.3345.7227,0,.2603.1201.4775.3613.6519.2407.1743.6377.3433,1.1914.5078.5532.1646.9976.3516,1.333.5615.335.21.5811.4507.7373.7227s.2344.5898.2344.9546c0,.5923-.2271,1.0635-.6812,1.4136s-1.0703.5249-1.8481.5249c-.5146,0-.9873-.0952-1.4185-.2856-.4316-.1904-.7666-.4531-1.0059-.7886s-.3589-.7261-.3589-1.1719h1.2354c0,.4038.1333.7163.4004.9375.2666.2212.6494.332,1.1475.332.4297,0,.7524-.0869.9692-.2612.2163-.1743.3247-.4043.3247-.6909Z"/>
    <path class="cls-5" d="m276.1484,25.836v2.6367h-1.2354v-7.1094h2.7197c.7939,0,1.4248.207,1.8921.6206.4668.4141.7007.9614.7007,1.6426,0,.6973-.229,1.2402-.686,1.6279-.4575.3877-1.0981.5815-1.9214.5815h-1.4697Zm0-.9961h1.4844c.4395,0,.7744-.1035,1.0059-.3101.231-.2065.3467-.5054.3467-.896,0-.3843-.1172-.6909-.3516-.9204s-.5566-.3477-.9668-.354h-1.5186v2.4805Z"/>
    <path class="cls-5" d="m285.4599,25.2989h-2.9199v2.1875h3.4131v.9863h-4.6484v-7.1094h4.6143v.9961h-3.3789v1.9629h2.9199v.9766Zm-1.8262-5.1221l.7129-.7568h1.0156v.0488l-1.3623,1.3623h-.7324l-1.3525-1.3672v-.0439h1.0059l.7129.7568Z"/>
    <path class="cls-5" d="m289.4638,26.9248l1.8066-5.5615h1.3574l-2.5586,7.1094h-1.1963l-2.5488-7.1094h1.3525l1.7871,5.5615Z"/>
    <path class="cls-5" d="m297.5839,25.2989h-2.9199v2.1875h3.4131v.9863h-4.6484v-7.1094h4.6143v.9961h-3.3789v1.9629h2.9199v.9766Z"/>
    <path class="cls-5" d="m301.124,25.4014l-.8057.8545v2.2168h-1.2354v-7.1094h1.2354v3.335l.6836-.8447,2.0801-2.4902h1.4941l-2.6416,3.1494,2.793,3.96h-1.4648l-2.1387-3.0713Z"/>
    <path class="cls-5" d="m313.5166,28.4727h-1.2354l-3.1689-5.0439v5.0439h-1.2354v-7.1094h1.2354l3.1787,5.0635v-5.0635h1.2256v7.1094Z"/>
    <path class="cls-5" d="m318.956,26.8174h-2.7539l-.5762,1.6553h-1.2842l2.6855-7.1094h1.1084l2.6904,7.1094h-1.2891l-.5811-1.6553Zm-2.4072-.9961h2.0605l-1.0303-2.9492-1.0303,2.9492Z"/>
    <path class="cls-5" d="m329.7959,25.1035c0,.6968-.1206,1.3076-.3613,1.8335-.2412.5259-.5854.9292-1.0327,1.2109-.4478.2817-.9629.4224-1.5454.4224-.5762,0-1.0898-.1406-1.5405-.4224-.4512-.2817-.7993-.6826-1.0449-1.2036-.2461-.521-.3706-1.1216-.3735-1.8018v-.4004c0-.6934.1226-1.3052.3687-1.8359.2456-.5308.5923-.9365,1.04-1.2183.4473-.2817.9609-.4224,1.5405-.4224.5791,0,1.0928.1392,1.5405.4175.4473.2783.7935.6787,1.0376,1.2012s.3677,1.1304.3711,1.8237v.3955Zm-1.2354-.3711c0-.7876-.1489-1.3916-.4468-1.8115s-.7202-.6299-1.2671-.6299c-.5342,0-.9517.209-1.2524.6274-.3013.4185-.4551,1.0098-.4614,1.7749v.4102c0,.7812.1519,1.3853.4565,1.8115.3042.4263.7266.6396,1.2671.6396.5469,0,.9673-.2085,1.2622-.625.2944-.4165.4419-1.0254.4419-1.8262v-.3711Z"/>
    <path class="cls-5" d="m335.123,25.46h-2.8613v3.0127h-1.2354v-7.1094h4.5166v.9961h-3.2812v2.1143h2.8613v.9863Z"/>
    <path class="cls-5" d="m340.6162,25.46h-2.8613v3.0127h-1.2354v-7.1094h4.5166v.9961h-3.2812v2.1143h2.8613v.9863Z"/>
    <path class="cls-5" d="m345.7285,26.6416c0-.3125-.1099-.5532-.3296-.7227s-.6162-.3403-1.189-.5127c-.5732-.1724-1.0288-.3647-1.3672-.5762-.6479-.4067-.9717-.9375-.9717-1.5918,0-.5728.2334-1.0449.7007-1.416.4668-.3711,1.0732-.5566,1.8188-.5566.4946,0,.9355.0913,1.3232.2734.3872.1821.6914.4419.9131.7788.2212.3369.332.7104.332,1.1206h-1.2305c0-.3711-.1167-.6616-.3491-.8716-.2329-.21-.5659-.3149-.9985-.3149-.4038,0-.7173.0864-.9399.2588-.2231.1724-.3345.4136-.3345.7227,0,.2603.1201.4775.3613.6519.2407.1743.6377.3433,1.1914.5078.5532.1646.9976.3516,1.333.5615.335.21.5811.4507.7373.7227s.2344.5898.2344.9546c0,.5923-.2271,1.0635-.6812,1.4136s-1.0703.5249-1.8481.5249c-.5146,0-.9873-.0952-1.4185-.2856-.4316-.1904-.7666-.4531-1.0059-.7886s-.3589-.7261-.3589-1.1719h1.2354c0,.4038.1333.7163.4004.9375.2666.2212.6494.332,1.1475.332.4297,0,.7524-.0869.9692-.2612.2163-.1743.3247-.4043.3247-.6909Z"/>
    <path class="cls-5" d="m352.2031,25.2989h-2.9199v2.1875h3.4131v.9863h-4.6484v-7.1094h4.6143v.9961h-3.3789v1.9629h2.9199v.9766Z"/>
    <path class="cls-5" d="m358.9365,22.3594h-2.2168v6.1133h-1.2256v-6.1133h-2.1973v-.9961h5.6396v.9961Z"/>
    <path class="cls-5" d="m365.4062,25.1035c0,.6968-.1206,1.3076-.3613,1.8335-.2412.5259-.5854.9292-1.0327,1.2109-.4478.2817-.9629.4224-1.5454.4224-.5762,0-1.0898-.1406-1.5405-.4224-.4512-.2817-.7993-.6826-1.0449-1.2036-.2461-.521-.3706-1.1216-.3735-1.8018v-.4004c0-.6934.1226-1.3052.3687-1.8359.2456-.5308.5923-.9365,1.04-1.2183.4473-.2817.9609-.4224,1.5405-.4224.5791,0,1.0928.1392,1.5405.4175.4473.2783.7935.6787,1.0376,1.2012s.3677,1.1304.3711,1.8237v.3955Zm-1.2354-.3711c0-.7876-.1489-1.3916-.4468-1.8115s-.7202-.6299-1.2671-.6299c-.5342,0-.9517.209-1.2524.6274-.3013.4185-.4551,1.0098-.4614,1.7749v.4102c0,.7812.1519,1.3853.4565,1.8115.3042.4263.7266.6396,1.2671.6396.5469,0,.9673-.2085,1.2622-.625.2944-.4165.4419-1.0254.4419-1.8262v-.3711Z"/>
    <path class="cls-5" d="m369.0341,26.9248l1.8066-5.5615h1.3574l-2.5586,7.1094h-1.1963l-2.5488-7.1094h1.3525l1.7871,5.5615Z"/>
    <path class="cls-5" d="m375.3183,24.7324l1.6357-3.3691h1.3672l-2.3828,4.4922v2.6172h-1.2402v-2.6172l-2.3877-4.4922h1.3721l1.6357,3.3691Zm.3662-5.2734h1.3525l-1.3525,1.4795-.9521-.0024.9521-1.4771Z"/>
    <path class="cls-5" d="m382.8183,25.836v2.6367h-1.2354v-7.1094h2.7197c.7939,0,1.4248.207,1.8921.6206.4668.4141.7007.9614.7007,1.6426,0,.6973-.229,1.2402-.686,1.6279-.4575.3877-1.0981.5815-1.9214.5815h-1.4697Zm0-.9961h1.4844c.4395,0,.7744-.1035,1.0059-.3101.231-.2065.3467-.5054.3467-.896,0-.3843-.1172-.6909-.3516-.9204s-.5566-.3477-.9668-.354h-1.5186v2.4805Z"/>
    <path class="cls-5" d="m390.5869,25.7383h-1.377v2.7344h-1.2354v-7.1094h2.5c.8203,0,1.4531.1841,1.8994.5522.4458.3682.6689.9009.6689,1.5981,0,.4756-.1147.874-.3442,1.1948s-.5493.5674-.9595.7402l1.5967,2.9604v.0635h-1.3232l-1.4258-2.7344Zm-1.377-.9961h1.2695c.4165,0,.7422-.105.9766-.3149s.3516-.4971.3516-.8618c0-.3809-.1084-.6753-.3247-.8838-.2168-.2085-.5396-.3159-.9692-.3223h-1.3037v2.3828Z"/>
    <path class="cls-5" d="m399.8886,25.1035c0,.6968-.1206,1.3076-.3613,1.8335-.2412.5259-.5854.9292-1.0327,1.2109-.4478.2817-.9629.4224-1.5454.4224-.5762,0-1.0898-.1406-1.5405-.4224-.4512-.2817-.7993-.6826-1.0449-1.2036-.2461-.521-.3706-1.1216-.3735-1.8018v-.4004c0-.6934.1226-1.3052.3687-1.8359.2456-.5308.5923-.9365,1.04-1.2183.4473-.2817.9609-.4224,1.5405-.4224.5791,0,1.0928.1392,1.5405.4175.4473.2783.7935.6787,1.0376,1.2012s.3677,1.1304.3711,1.8237v.3955Zm-1.2354-.3711c0-.7876-.1489-1.3916-.4468-1.8115s-.7202-.6299-1.2671-.6299c-.5342,0-.9517.209-1.2524.6274-.3013.4185-.4551,1.0098-.4614,1.7749v.4102c0,.7812.1519,1.3853.4565,1.8115.3042.4263.7266.6396,1.2671.6396.5469,0,.9673-.2085,1.2622-.625.2944-.4165.4419-1.0254.4419-1.8262v-.3711Z"/>
    <path class="cls-5" d="m404.0293,21.3633h1.2305v4.9854c0,.6802-.2124,1.2207-.6372,1.6211s-.9858.6006-1.6821.6006c-.7422,0-1.3154-.187-1.7188-.5615-.4038-.3745-.6055-.895-.6055-1.5625h1.2305c0,.3774.0933.6616.2808.8521.187.1904.458.2856.813.2856.332,0,.5962-.1099.7935-.3296.1968-.2197.2954-.5234.2954-.9106v-4.9805Z"/>
    <path class="cls-5" d="m410.8261,25.2989h-2.9199v2.1875h3.4131v.9863h-4.6484v-7.1094h4.6143v.9961h-3.3789v1.9629h2.9199v.9766Z"/>
    <path class="cls-5" d="m414.3662,25.4014l-.8057.8545v2.2168h-1.2354v-7.1094h1.2354v3.335l.6836-.8447,2.0801-2.4902h1.4941l-2.6416,3.1494,2.793,3.96h-1.4648l-2.1387-3.0713Z"/>
    <path class="cls-5" d="m423.7656,22.3594h-2.2168v6.1133h-1.2256v-6.1133h-2.1973v-.9961h5.6396v.9961Z"/>
  </g>
  <g>
    <path class="cls-8" d="m16.4218,26.1992v-10.6641h3.1494c.9424,0,1.7786.21,2.5085.6299s1.2952,1.0156,1.6956,1.7871.6006,1.6553.6006,2.6514v.5347c0,1.0107-.2014,1.8994-.6042,2.666s-.9766,1.3574-1.7212,1.7725-1.5979.6226-2.5598.6226h-3.0688Zm1.853-9.1699v7.6904h1.2085c.9717,0,1.7175-.3037,2.2375-.9121.52-.6074.7849-1.4805.7947-2.6182v-.5933c0-1.1572-.2515-2.041-.7544-2.6514s-1.2329-.9155-2.1899-.9155h-1.2964Z"/>
    <path class="cls-8" d="m30.1401,22.0977h-2.0654v4.1016h-1.853v-10.6641h3.75c1.2305,0,2.1802.2764,2.8491.8281.6689.5527,1.0034,1.3516,1.0034,2.3975,0,.7134-.1721,1.3105-.5164,1.792s-.824.8516-1.4392,1.1108l2.395,4.4404v.0952h-1.9849l-2.1387-4.1016Zm-2.0654-1.4941h1.9043c.625,0,1.1133-.1572,1.4648-.4727.3516-.3145.5273-.7456.5273-1.2925,0-.5713-.1624-1.0132-.4871-1.3257s-.8093-.4736-1.4539-.4834h-1.9556v3.5742Z"/>
    <path class="cls-8" d="m41.5512,23.7163h-4.1309l-.8643,2.4829h-1.9263l4.0283-10.6641h1.6626l4.0356,10.6641h-1.9336l-.8716-2.4829Zm-3.6108-1.4941h3.0908l-1.5454-4.4238-1.5454,4.4238Z"/>
    <path class="cls-8" d="m51.7099,21.6802h-4.292v4.519h-1.853v-10.6641h6.7749v1.4941h-4.9219v3.1714h4.292v1.4795Z"/>
    <path class="cls-8" d="m61.6562,17.0293h-3.3252v9.1699h-1.8384v-9.1699h-3.2959v-1.4941h8.4595v1.4941Z"/>
  </g>
  <g>
    <path class="cls-5" d="m210.4829,154.3462h-1.2354l-3.1689-5.0439v5.0439h-1.2354v-7.1094h1.2354l3.1787,5.0635v-5.0635h1.2256v7.1094Z"/>
    <path class="cls-5" d="m215.9223,152.6909h-2.7539l-.5762,1.6553h-1.2842l2.6855-7.1094h1.1084l2.6904,7.1094h-1.2891l-.5811-1.6553Zm-2.4072-.9961h2.0605l-1.0303-2.9492-1.0303,2.9492Zm1.4014-6.3623h1.3525l-1.3525,1.4795-.9521-.0024.9521-1.4771Z"/>
    <path class="cls-5" d="m221.103,152.7984l1.8066-5.5615h1.3574l-2.5586,7.1094h-1.1963l-2.5488-7.1094h1.3525l1.7871,5.5615Z"/>
    <path class="cls-5" d="m227.6801,151.6118h-1.377v2.7344h-1.2354v-7.1094h2.5c.8203,0,1.4531.1841,1.8994.5522.4458.3682.6689.9009.6689,1.5981,0,.4756-.1147.874-.3442,1.1948s-.5493.5674-.9595.7402l1.5967,2.9604v.0635h-1.3232l-1.4258-2.7344Zm-1.377-.9961h1.2695c.4165,0,.7422-.105.9766-.3149s.3516-.4971.3516-.8618c0-.3809-.1084-.6753-.3247-.8838-.2168-.2085-.5396-.3159-.9692-.3223h-1.3037v2.3828Z"/>
    <path class="cls-5" d="m236.9526,154.3462h-1.2305v-3.1543h-3.1787v3.1543h-1.2354v-7.1094h1.2354v2.959h3.1787v-2.959h1.2305v7.1094Z"/>
    <path class="cls-5" d="m206.0786,162.7095v2.6367h-1.2354v-7.1094h2.7197c.7939,0,1.4248.207,1.8921.6206.4668.4141.7007.9614.7007,1.6426,0,.6973-.229,1.2402-.686,1.6279-.4575.3877-1.0981.5815-1.9214.5815h-1.4697Zm0-.9961h1.4844c.4395,0,.7744-.1035,1.0059-.3101.231-.2065.3467-.5054.3467-.896,0-.3843-.1172-.6909-.3516-.9204s-.5566-.3477-.9668-.354h-1.5186v2.4805Z"/>
    <path class="cls-5" d="m213.8471,162.6118h-1.377v2.7344h-1.2354v-7.1094h2.5c.8203,0,1.4531.1841,1.8994.5522.4458.3682.6689.9009.6689,1.5981,0,.4756-.1147.874-.3442,1.1948s-.5493.5674-.9595.7402l1.5967,2.9604v.0635h-1.3232l-1.4258-2.7344Zm-1.377-.9961h1.2695c.4165,0,.7422-.105.9766-.3149s.3516-.4971.3516-.8618c0-.3809-.1084-.6753-.3247-.8838-.2168-.2085-.5396-.3159-.9692-.3223h-1.3037v2.3828Z"/>
    <path class="cls-5" d="m223.1489,161.9771c0,.6968-.1206,1.3076-.3613,1.8335-.2412.5259-.5854.9292-1.0327,1.2109-.4478.2817-.9629.4224-1.5454.4224-.5762,0-1.0898-.1406-1.5405-.4224-.4512-.2817-.7993-.6826-1.0449-1.2036-.2461-.521-.3706-1.1216-.3735-1.8018v-.4004c0-.6934.1226-1.3052.3687-1.8359.2456-.5308.5923-.9365,1.04-1.2183.4473-.2817.9609-.4224,1.5405-.4224.5791,0,1.0928.1392,1.5405.4175.4473.2783.7935.6787,1.0376,1.2012s.3677,1.1304.3711,1.8237v.3955Zm-1.2354-.3711c0-.7876-.1489-1.3916-.4468-1.8115s-.7202-.6299-1.2671-.6299c-.5342,0-.9517.209-1.2524.6274-.3013.4185-.4551,1.0098-.4614,1.7749v.4102c0,.7812.1519,1.3853.4565,1.8115.3042.4263.7266.6396,1.2671.6396.5469,0,.9673-.2085,1.2622-.625.2944-.4165.4419-1.0254.4419-1.8262v-.3711Z"/>
    <path class="cls-5" d="m227.2895,158.2368h1.2305v4.9854c0,.6802-.2124,1.2207-.6372,1.6211s-.9858.6006-1.6821.6006c-.7422,0-1.3154-.187-1.7188-.5615-.4038-.3745-.6055-.895-.6055-1.5625h1.2305c0,.3774.0933.6616.2808.8521.187.1904.458.2856.813.2856.332,0,.5962-.1099.7935-.3296.1968-.2197.2954-.5234.2954-.9106v-4.9805Z"/>
    <path class="cls-5" d="m234.0864,162.1724h-2.9199v2.1875h3.4131v.9863h-4.6484v-7.1094h4.6143v.9961h-3.3789v1.9629h2.9199v.9766Z"/>
    <path class="cls-5" d="m237.6264,162.2749l-.8057.8545v2.2168h-1.2354v-7.1094h1.2354v3.335l.6836-.8447,2.0801-2.4902h1.4941l-2.6416,3.1494,2.793,3.96h-1.4648l-2.1387-3.0713Z"/>
    <path class="cls-5" d="m247.0258,159.2329h-2.2168v6.1133h-1.2256v-6.1133h-2.1973v-.9961h5.6396v.9961Z"/>
    <path class="cls-5" d="m253.1587,158.2368v4.751c0,.7554-.2417,1.3535-.7251,1.7944s-1.1274.6616-1.9312.6616c-.814,0-1.46-.2173-1.9385-.6519s-.7178-1.0376-.7178-1.8091v-4.7461h1.2305v4.7559c0,.4751.1201.8384.3613,1.0889.2407.2505.5957.376,1.0645.376.9502,0,1.4258-.5015,1.4258-1.5039v-4.7168h1.2305Z"/>
  </g>
  <g>
    <path class="cls-5" d="m97.9836,205.3028l1.8066-5.5615h1.3574l-2.5586,7.1094h-1.1963l-2.5488-7.1094h1.3525l1.7871,5.5615Z"/>
    <path class="cls-5" d="m104.2678,203.1104l1.6357-3.3691h1.3672l-2.3828,4.4922v2.6172h-1.2402v-2.6172l-2.3877-4.4922h1.3721l1.6357,3.3691Zm.3662-5.2734h1.3525l-1.3525,1.4795-.9521-.0024.9521-1.4771Z"/>
    <path class="cls-5" d="m109.2776,204.2139v2.6367h-1.2354v-7.1094h2.7197c.7942,0,1.425.207,1.8921.6206.467.4141.7007.9614.7007,1.6426,0,.6973-.2288,1.2402-.686,1.6279s-1.0979.5815-1.9214.5815h-1.4697Zm0-.9961h1.4844c.4395,0,.7747-.1035,1.0059-.3101s.3467-.5054.3467-.896c0-.3843-.1172-.6909-.3516-.9204s-.5566-.3477-.9668-.354h-1.5186v2.4805Z"/>
    <path class="cls-5" d="m120.1076,203.4815c0,.6968-.1204,1.3076-.3613,1.8335s-.5852.9292-1.0327,1.2109-.9626.4224-1.5454.4224c-.5762,0-1.0896-.1406-1.5405-.4224s-.7991-.6826-1.0449-1.2036-.3704-1.1216-.3735-1.8018v-.4004c0-.6934.1228-1.3052.3687-1.8359s.5925-.9365,1.04-1.2183.9612-.4224,1.5405-.4224,1.093.1392,1.5405.4175.7935.6787,1.0376,1.2012.3679,1.1304.3711,1.8237v.3955Zm-1.2354-.3711c0-.7876-.1489-1.3916-.4468-1.8115s-.7202-.6299-1.2671-.6299c-.5339,0-.9514.209-1.2524.6274s-.4548,1.0098-.4614,1.7749v.4102c0,.7812.1521,1.3853.4565,1.8115s.7268.6396,1.2671.6396c.5469,0,.9675-.2085,1.2622-.625s.4419-1.0254.4419-1.8262v-.3711Z"/>
    <path class="cls-5" d="m126.7629,204.5362c-.0715.7583-.3516,1.3501-.8398,1.7749s-1.1377.6372-1.9482.6372c-.5664,0-1.0652-.1343-1.4966-.4028s-.7642-.6504-.9985-1.145-.3564-1.0693-.3662-1.7236v-.6641c0-.6704.1189-1.2612.3564-1.7725s.5786-.9048,1.0229-1.1816.9578-.415,1.5405-.415c.7844,0,1.416.2124,1.8945.6372s.7568,1.0264.835,1.8042h-1.2305c-.0586-.5112-.2075-.8799-.4468-1.106s-.5901-.3394-1.0522-.3394c-.5371,0-.9497.1963-1.2378.5889s-.4353.9688-.4419,1.7275v.6309c0,.7686.1375,1.355.4126,1.7593.2751.4038.678.606,1.2085.606.4851,0,.8496-.1089,1.0938-.3271s.3987-.5811.4639-1.0889h1.2305Zm-2.8174-6.0498l.7129-.7568h1.0156v.0488l-1.3623,1.3623h-.7324l-1.3525-1.3672v-.0439h1.0059l.7129.7568Z"/>
    <path class="cls-5" d="m132.0217,203.6768h-2.9199v2.1875h3.4131v.9863h-4.6484v-7.1094h4.6143v.9961h-3.3789v1.9629h2.9199v.9766Z"/>
    <path class="cls-5" d="m138.7551,200.7373h-2.2168v6.1133h-1.2256v-6.1133h-2.1973v-.9961h5.6396v.9961Z"/>
    <path class="cls-5" d="m147.3098,204.5362c-.0715.7583-.3516,1.3501-.8398,1.7749s-1.1377.6372-1.9482.6372c-.5664,0-1.0652-.1343-1.4966-.4028s-.7642-.6504-.9985-1.145-.3564-1.0693-.3662-1.7236v-.6641c0-.6704.1189-1.2612.3564-1.7725s.5786-.9048,1.0229-1.1816.9578-.415,1.5405-.415c.7844,0,1.416.2124,1.8945.6372s.7568,1.0264.835,1.8042h-1.2305c-.0586-.5112-.2075-.8799-.4468-1.106s-.5901-.3394-1.0522-.3394c-.5371,0-.9497.1963-1.2378.5889s-.4353.9688-.4419,1.7275v.6309c0,.7686.1375,1.355.4126,1.7593.2751.4038.678.606,1.2085.606.4851,0,.8496-.1089,1.0938-.3271s.3987-.5811.4639-1.0889h1.2305Z"/>
    <path class="cls-5" d="m154.0871,203.4815c0,.6968-.1204,1.3076-.3613,1.8335s-.5852.9292-1.0327,1.2109-.9626.4224-1.5454.4224c-.5762,0-1.0896-.1406-1.5405-.4224s-.7991-.6826-1.0449-1.2036-.3704-1.1216-.3735-1.8018v-.4004c0-.6934.1228-1.3052.3687-1.8359s.5925-.9365,1.04-1.2183.9612-.4224,1.5405-.4224,1.093.1392,1.5405.4175.7935.6787,1.0376,1.2012.3679,1.1304.3711,1.8237v.3955Zm-1.2354-.3711c0-.7876-.1489-1.3916-.4468-1.8115s-.7202-.6299-1.2671-.6299c-.5339,0-.9514.209-1.2524.6274s-.4548,1.0098-.4614,1.7749v.4102c0,.7812.1521,1.3853.4565,1.8115s.7268.6396,1.2671.6396c.5469,0,.9675-.2085,1.2622-.625s.4419-1.0254.4419-1.8262v-.3711Z"/>
    <path class="cls-5" d="m159.9074,206.8506h-4.7803v-.8154l2.3682-2.583c.3418-.3809.5852-.6992.73-.9546s.2173-.5117.2173-.769c0-.3384-.0952-.6118-.2856-.8203s-.4468-.3125-.769-.3125c-.384,0-.6819.1172-.8936.3516s-.3174.5552-.3174.9619h-1.1865c0-.4331.0984-.8228.2954-1.1694s.4785-.6162.8447-.8081.7886-.2881,1.2671-.2881c.6902,0,1.2346.1733,1.6333.52s.5981.8262.5981,1.438c0,.355-.1001.7266-.3003,1.1157s-.5281.8311-.9839,1.3257l-1.7383,1.8604h3.3008v.9473Z"/>
  </g>
  <g>
    <path class="cls-5" d="m145.6521,226.024c0-.3125-.1099-.5532-.3296-.7227s-.616-.3403-1.189-.5127-1.0286-.3647-1.3672-.5762c-.6477-.4067-.9717-.9375-.9717-1.5918,0-.5728.2336-1.0449.7007-1.416s1.0735-.5566,1.8188-.5566c.4949,0,.9358.0913,1.3232.2734s.6917.4419.9131.7788.332.7104.332,1.1206h-1.2305c0-.3711-.1165-.6616-.3491-.8716s-.5657-.3149-.9985-.3149c-.4036,0-.717.0864-.9399.2588s-.3345.4136-.3345.7227c0,.2603.1204.4775.3613.6519s.6379.3433,1.1914.5078.9978.3516,1.333.5615.5811.4507.7373.7227.2344.5898.2344.9546c0,.5923-.2271,1.0635-.6812,1.4136s-1.0701.5249-1.8481.5249c-.5144,0-.9871-.0952-1.4185-.2856s-.7666-.4531-1.0059-.7886-.3589-.7261-.3589-1.1719h1.2354c0,.4038.1335.7163.4004.9375s.6494.332,1.1475.332c.4297,0,.7527-.0869.9692-.2612s.3247-.4043.3247-.6909Z"/>
    <path class="cls-5" d="m149.573,220.7456l2.0508,5.4492,2.0459-5.4492h1.5967v7.1094h-1.2305v-2.3438l.1221-3.1348-2.0996,5.4785h-.8838l-2.0947-5.4736.1221,3.1299v2.3438h-1.2305v-7.1094h1.6016Z"/>
    <path class="cls-5" d="m157.9616,226.8687h3.2275v.9863h-4.4629v-7.1094h1.2354v6.123Z"/>
    <path class="cls-5" d="m167.4975,224.4859c0,.6968-.1201,1.3076-.3613,1.8335-.2407.5259-.585.9292-1.0325,1.2109s-.9626.4224-1.5454.4224c-.5762,0-1.0896-.1406-1.5405-.4224s-.7991-.6826-1.0449-1.2036-.3704-1.1216-.3735-1.8018v-.4004c0-.6934.1228-1.3052.3687-1.8359s.5925-.9365,1.04-1.2183.9612-.4224,1.5405-.4224,1.093.1392,1.5405.4175.7932.6787,1.0374,1.2012.3682,1.1304.3711,1.8237v.3955Zm-1.2351-.3711c0-.7876-.1489-1.3916-.4468-1.8115s-.7202-.6299-1.2671-.6299c-.5339,0-.9514.209-1.2524.6274s-.4548,1.0098-.4614,1.7749v.4102c0,.7812.1521,1.3853.4565,1.8115s.7268.6396,1.2671.6396c.5469,0,.9675-.2085,1.2622-.625s.4419-1.0254.4419-1.8262v-.3711Z"/>
    <path class="cls-5" d="m173.9282,220.7456v4.751c0,.7554-.2417,1.3535-.7251,1.7944s-1.127.6616-1.9312.6616c-.8135,0-1.46-.2173-1.9385-.6519s-.7178-1.0376-.7178-1.8091v-4.7461h1.2305v4.7559c0,.4751.1206.8384.3613,1.0889.2412.2505.5957.376,1.0645.376.9507,0,1.4258-.5015,1.4258-1.5039v-4.7168h1.2305Z"/>
    <path class="cls-5" d="m177.7514,226.3072l1.8066-5.5615h1.3574l-2.5586,7.1094h-1.1963l-2.5488-7.1094h1.3525l1.7871,5.5615Z"/>
    <path class="cls-5" d="m185.3296,226.1997h-2.7539l-.5762,1.6553h-1.2842l2.6855-7.1094h1.1084l2.6904,7.1094h-1.2891l-.5811-1.6553Zm-2.4072-.9961h2.0605l-1.0303-2.9492-1.0303,2.9492Z"/>
  </g>
  <g>
    <path class="cls-5" d="m180.4546,243.1851h3.7988v.9863h-5.293v-.8008l3.6768-5.3125h-3.6523v-.9961h5.1514v.7812l-3.6816,5.3418Z"/>
    <path class="cls-5" d="m187.8178,242.6236l1.8066-5.5615h1.3574l-2.5586,7.1094h-1.1963l-2.5488-7.1094h1.3525l1.7871,5.5615Z"/>
    <path class="cls-5" d="m195.938,240.9976h-2.9199v2.1875h3.4131v.9863h-4.6484v-7.1094h4.6143v.9961h-3.3789v1.9629h2.9199v.9766Z"/>
    <path class="cls-5" d="m200.0493,241.437h-1.377v2.7344h-1.2354v-7.1094h2.5c.8203,0,1.4531.1841,1.8994.5522.4458.3682.6689.9009.6689,1.5981,0,.4756-.1147.874-.3442,1.1948s-.5493.5674-.9595.7402l1.5967,2.9604v.0635h-1.3232l-1.4258-2.7344Zm-.3906-5.5273l.7129-.7568h1.0156v.0488l-1.3623,1.3623h-.7324l-1.3525-1.3672v-.0439h1.0059l.7129.7568Zm-.9863,4.5312h1.2695c.4165,0,.7422-.105.9766-.3149s.3516-.4971.3516-.8618c0-.3809-.1084-.6753-.3247-.8838-.2168-.2085-.5396-.3159-.9692-.3223h-1.3037v2.3828Z"/>
    <path class="cls-5" d="m207.8325,240.9976h-2.9199v2.1875h3.4131v.9863h-4.6484v-7.1094h4.6143v.9961h-3.3789v1.9629h2.9199v.9766Z"/>
    <path class="cls-5" d="m212.2417,237.062h1.2305v4.9854c0,.6802-.2124,1.2207-.6372,1.6211s-.9858.6006-1.6821.6006c-.7422,0-1.3154-.187-1.7188-.5615-.4038-.3745-.6055-.895-.6055-1.5625h1.2305c0,.3774.0933.6616.2808.8521.187.1904.458.2856.813.2856.332,0,.5962-.1099.7935-.3296.1968-.2197.2954-.5234.2954-.9106v-4.9805Z"/>
    <path class="cls-5" d="m220.5229,244.1714h-1.2354l-3.1689-5.0439v5.0439h-1.2354v-7.1094h1.2354l3.1787,5.0635v-5.0635h1.2256v7.1094Z"/>
    <path class="cls-5" d="m226.1381,240.9976h-2.9199v2.1875h3.4131v.9863h-4.6484v-7.1094h4.6143v.9961h-3.3789v1.9629h2.9199v.9766Zm-1.8262-5.1221l.7129-.7568h1.0156v.0488l-1.3623,1.3623h-.7324l-1.3525-1.3672v-.0439h1.0059l.7129.7568Z"/>
    <path class="cls-5" d="m233.2768,244.1714h-1.2354l-3.1689-5.0439v5.0439h-1.2354v-7.1094h1.2354l3.1787,5.0635v-5.0635h1.2256v7.1094Z"/>
    <path class="cls-5" d="m236.0405,244.1714h-1.2305v-7.1094h1.2305v7.1094Zm-.2686-9.0479h1.3525l-1.3525,1.4795-.9521-.0024.9521-1.4771Z"/>
    <path class="cls-5" d="m184.8442,253.5347v2.6367h-1.2354v-7.1094h2.7197c.7939,0,1.4248.207,1.8921.6206.4668.4141.7007.9614.7007,1.6426,0,.6973-.229,1.2402-.686,1.6279-.4575.3877-1.0981.5815-1.9214.5815h-1.4697Zm0-.9961h1.4844c.4395,0,.7744-.1035,1.0059-.3101.231-.2065.3467-.5054.3467-.896,0-.3843-.1172-.6909-.3516-.9204s-.5566-.3477-.9668-.354h-1.5186v2.4805Z"/>
    <path class="cls-5" d="m192.6128,253.437h-1.377v2.7344h-1.2354v-7.1094h2.5c.8203,0,1.4531.1841,1.8994.5522.4458.3682.6689.9009.6689,1.5981,0,.4756-.1147.874-.3442,1.1948s-.5493.5674-.9595.7402l1.5967,2.9604v.0635h-1.3232l-1.4258-2.7344Zm-1.377-.9961h1.2695c.4165,0,.7422-.105.9766-.3149s.3516-.4971.3516-.8618c0-.3809-.1084-.6753-.3247-.8838-.2168-.2085-.5396-.3159-.9692-.3223h-1.3037v2.3828Z"/>
    <path class="cls-5" d="m201.9145,252.8023c0,.6968-.1206,1.3076-.3613,1.8335-.2412.5259-.5854.9292-1.0327,1.2109-.4478.2817-.9629.4224-1.5454.4224-.5762,0-1.0898-.1406-1.5405-.4224-.4512-.2817-.7993-.6826-1.0449-1.2036-.2461-.521-.3706-1.1216-.3735-1.8018v-.4004c0-.6934.1226-1.3052.3687-1.8359.2456-.5308.5923-.9365,1.04-1.2183.4473-.2817.9609-.4224,1.5405-.4224.5791,0,1.0928.1392,1.5405.4175.4473.2783.7935.6787,1.0376,1.2012s.3677,1.1304.3711,1.8237v.3955Zm-1.2354-.3711c0-.7876-.1489-1.3916-.4468-1.8115s-.7202-.6299-1.2671-.6299c-.5342,0-.9517.209-1.2524.6274-.3013.4185-.4551,1.0098-.4614,1.7749v.4102c0,.7812.1519,1.3853.4565,1.8115.3042.4263.7266.6396,1.2671.6396.5469,0,.9673-.2085,1.2622-.625.2944-.4165.4419-1.0254.4419-1.8262v-.3711Z"/>
    <path class="cls-5" d="m206.0551,249.062h1.2305v4.9854c0,.6802-.2124,1.2207-.6372,1.6211s-.9858.6006-1.6821.6006c-.7422,0-1.3154-.187-1.7188-.5615-.4038-.3745-.6055-.895-.6055-1.5625h1.2305c0,.3774.0933.6616.2808.8521.187.1904.458.2856.813.2856.332,0,.5962-.1099.7935-.3296.1968-.2197.2954-.5234.2954-.9106v-4.9805Z"/>
    <path class="cls-5" d="m212.852,252.9976h-2.9199v2.1875h3.4131v.9863h-4.6484v-7.1094h4.6143v.9961h-3.3789v1.9629h2.9199v.9766Z"/>
    <path class="cls-5" d="m216.3921,253.1001l-.8057.8545v2.2168h-1.2354v-7.1094h1.2354v3.335l.6836-.8447,2.0801-2.4902h1.4941l-2.6416,3.1494,2.793,3.96h-1.4648l-2.1387-3.0713Z"/>
    <path class="cls-5" d="m225.7915,250.0581h-2.2168v6.1133h-1.2256v-6.1133h-2.1973v-.9961h5.6396v.9961Z"/>
    <path class="cls-5" d="m231.9243,249.062v4.751c0,.7554-.2417,1.3535-.7251,1.7944s-1.1274.6616-1.9312.6616c-.814,0-1.46-.2173-1.9385-.6519s-.7178-1.0376-.7178-1.8091v-4.7461h1.2305v4.7559c0,.4751.1201.8384.3613,1.0889.2407.2505.5957.376,1.0645.376.9502,0,1.4258-.5015,1.4258-1.5039v-4.7168h1.2305Z"/>
  </g>
  <g>
    <path class="cls-5" d="m473.581,199.083c-.0718.7583-.3516,1.3501-.8398,1.7749s-1.1377.6372-1.9482.6372c-.5664,0-1.0654-.1343-1.4966-.4028-.4316-.2686-.7642-.6504-.9985-1.145s-.3564-1.0693-.3662-1.7236v-.6641c0-.6704.1187-1.2612.3564-1.7725.2373-.5112.5786-.9048,1.0229-1.1816s.9575-.415,1.5405-.415c.7842,0,1.416.2124,1.8945.6372s.7568,1.0264.835,1.8042h-1.2305c-.0586-.5112-.2075-.8799-.4468-1.106s-.5903-.3394-1.0522-.3394c-.5371,0-.9497.1963-1.2378.5889s-.4355.9688-.4419,1.7275v.6309c0,.7686.1372,1.355.4126,1.7593.2749.4038.6777.606,1.2085.606.4849,0,.8496-.1089,1.0938-.3271s.3984-.5811.4639-1.0889h1.2305Z"/>
    <path class="cls-5" d="m478.8398,198.2237h-2.9199v2.1875h3.4131v.9863h-4.6484v-7.1094h4.6143v.9961h-3.3789v1.9629h2.9199v.9766Z"/>
    <path class="cls-5" d="m482.9511,198.6631h-1.377v2.7344h-1.2354v-7.1094h2.5c.8203,0,1.4531.1841,1.8994.5522.4458.3682.6689.9009.6689,1.5981,0,.4756-.1147.874-.3442,1.1948s-.5493.5674-.9595.7402l1.5967,2.9604v.0635h-1.3232l-1.4258-2.7344Zm-1.377-.9961h1.2695c.4165,0,.7422-.105.9766-.3149s.3516-.4971.3516-.8618c0-.3809-.1084-.6753-.3247-.8838-.2168-.2085-.5396-.3159-.9692-.3223h-1.3037v2.3828Z"/>
    <path class="cls-5" d="m491.4716,195.2842h-2.2168v6.1133h-1.2256v-6.1133h-2.1973v-.9961h5.6396v.9961Z"/>
    <path class="cls-5" d="m493.708,201.3975h-1.2305v-7.1094h1.2305v7.1094Z"/>
    <path class="cls-5" d="m499.3232,198.3848h-2.8613v3.0127h-1.2354v-7.1094h4.5166v.9961h-3.2812v2.1143h2.8613v.9863Z"/>
    <path class="cls-5" d="m502.0234,201.3975h-1.2305v-7.1094h1.2305v7.1094Z"/>
    <path class="cls-5" d="m505.583,198.3262l-.8057.8545v2.2168h-1.2354v-7.1094h1.2354v3.335l.6836-.8447,2.0801-2.4902h1.4941l-2.6416,3.1494,2.793,3.96h-1.4648l-2.1387-3.0713Z"/>
    <path class="cls-5" d="m513.8252,199.7422h-2.7539l-.5762,1.6553h-1.2842l2.6855-7.1094h1.1084l2.6904,7.1094h-1.2891l-.5811-1.6553Zm-2.4072-.9961h2.0605l-1.0303-2.9492-1.0303,2.9492Zm1.4014-6.3623h1.3525l-1.3525,1.4795-.9521-.0024.9521-1.4771Z"/>
    <path class="cls-5" d="m521.6377,195.2842h-2.2168v6.1133h-1.2256v-6.1133h-2.1973v-.9961h5.6396v.9961Z"/>
  </g>
  <g>
    <path class="cls-5" d="m459.8359,217.3291c-.2568.3354-.6133.5894-1.0693.7617-.4556.1724-.9731.2588-1.5527.2588-.5957,0-1.123-.1353-1.582-.4053s-.813-.6567-1.062-1.1597-.3784-1.0898-.3882-1.7603v-.5566c0-1.0742.2573-1.9131.7715-2.5171.5146-.604,1.2324-.9058,2.1533-.9058.791,0,1.4194.1963,1.8848.5884.4658.3921.7456.9561.8398,1.6919h-1.2109c-.1367-.856-.6328-1.2842-1.4893-1.2842-.5532,0-.9741.1992-1.2622.5977s-.437.9829-.4468,1.7539v.5464c0,.7671.1621,1.3633.4858,1.7876.3242.4243.7739.6367,1.3501.6367.6318,0,1.0811-.1431,1.3477-.4297v-1.3916h-1.4648v-.9375h2.6953v2.7246Z"/>
    <path class="cls-5" d="m465.1728,216.5967h-2.7539l-.5762,1.6553h-1.2842l2.6855-7.1094h1.1084l2.6904,7.1094h-1.2891l-.5811-1.6553Zm-2.4072-.9961h2.0605l-1.0303-2.9492-1.0303,2.9492Z"/>
    <path class="cls-5" d="m470.4609,215.5176h-1.377v2.7344h-1.2354v-7.1094h2.5c.8203,0,1.4536.1841,1.8994.5522.4463.3682.6689.9009.6689,1.5981,0,.4756-.1147.874-.3442,1.1948s-.5493.5674-.9595.7402l1.5967,2.9604v.0635h-1.3232l-1.4258-2.7344Zm-1.377-.9961h1.2695c.417,0,.7422-.105.9766-.3149s.3516-.4971.3516-.8618c0-.3809-.1079-.6753-.3247-.8838-.2163-.2085-.5396-.3159-.9692-.3223h-1.3037v2.3828Z"/>
    <path class="cls-5" d="m478.0683,216.5967h-2.7539l-.5762,1.6553h-1.2842l2.6855-7.1094h1.1084l2.6904,7.1094h-1.2891l-.5811-1.6553Zm-2.4072-.9961h2.0605l-1.0303-2.9492-1.0303,2.9492Z"/>
    <path class="cls-5" d="m486.3838,218.252h-1.2354l-3.1689-5.0439v5.0439h-1.2354v-7.1094h1.2354l3.1787,5.0635v-5.0635h1.2256v7.1094Z"/>
    <path class="cls-5" d="m493.2685,215.9375c-.0713.7583-.3516,1.3501-.8398,1.7749s-1.1377.6372-1.9482.6372c-.5664,0-1.0649-.1343-1.4966-.4028-.4312-.2686-.7642-.6504-.9985-1.145s-.3564-1.0693-.3662-1.7236v-.6641c0-.6704.1191-1.2612.3564-1.7725.2378-.5112.5786-.9048,1.0229-1.1816s.958-.415,1.5405-.415c.7847,0,1.416.2124,1.8945.6372s.7568,1.0264.835,1.8042h-1.2305c-.0586-.5112-.2075-.8799-.4468-1.106s-.5898-.3394-1.0522-.3394c-.5371,0-.9497.1963-1.2378.5889s-.4351.9688-.4419,1.7275v.6309c0,.7686.1377,1.355.4126,1.7593.2754.4038.6782.606,1.2085.606.4854,0,.8496-.1089,1.0938-.3271s.3989-.5811.4639-1.0889h1.2305Z"/>
    <path class="cls-5" d="m498.5273,215.0782h-2.9199v2.1875h3.4131v.9863h-4.6484v-7.1094h4.6143v.9961h-3.3789v1.9629h2.9199v.9766Z"/>
    <path class="cls-5" d="m453.625,227.6153v2.6367h-1.2354v-7.1094h2.7197c.7944,0,1.4253.207,1.8921.6206.4673.4141.7007.9614.7007,1.6426,0,.6973-.2285,1.2402-.686,1.6279-.457.3877-1.0977.5815-1.9214.5815h-1.4697Zm0-.9961h1.4844c.4395,0,.7749-.1035,1.0059-.3101.2314-.2065.3467-.5054.3467-.896,0-.3843-.1172-.6909-.3516-.9204s-.5566-.3477-.9668-.354h-1.5186v2.4805Z"/>
    <path class="cls-5" d="m461.3935,227.5176h-1.377v2.7344h-1.2354v-7.1094h2.5c.8203,0,1.4536.1841,1.8994.5522.4463.3682.6689.9009.6689,1.5981,0,.4756-.1147.874-.3442,1.1948s-.5493.5674-.9595.7402l1.5967,2.9604v.0635h-1.3232l-1.4258-2.7344Zm-1.377-.9961h1.2695c.417,0,.7422-.105.9766-.3149s.3516-.4971.3516-.8618c0-.3809-.1079-.6753-.3247-.8838-.2163-.2085-.5396-.3159-.9692-.3223h-1.3037v2.3828Z"/>
    <path class="cls-5" d="m470.6953,226.8828c0,.6968-.1201,1.3076-.3613,1.8335-.2407.5259-.585.9292-1.0327,1.2109-.4473.2817-.9624.4224-1.5454.4224-.5762,0-1.0894-.1406-1.5405-.4224-.4507-.2817-.7988-.6826-1.0449-1.2036-.2456-.521-.3701-1.1216-.3735-1.8018v-.4004c0-.6934.123-1.3052.3687-1.8359.2461-.5308.5928-.9365,1.04-1.2183.4478-.2817.9614-.4224,1.5405-.4224.5796,0,1.0933.1392,1.5405.4175.4478.2783.7935.6787,1.0376,1.2012s.3682,1.1304.3711,1.8237v.3955Zm-1.2354-.3711c0-.7876-.1489-1.3916-.4468-1.8115s-.7202-.6299-1.2671-.6299c-.5337,0-.9512.209-1.2524.6274-.3008.4185-.4546,1.0098-.4614,1.7749v.4102c0,.7812.1523,1.3853.4565,1.8115.3047.4263.7271.6396,1.2671.6396.5469,0,.9678-.2085,1.2622-.625.2949-.4165.4419-1.0254.4419-1.8262v-.3711Z"/>
    <path class="cls-5" d="m474.8359,223.1426h1.2305v4.9854c0,.6802-.2124,1.2207-.6372,1.6211s-.9854.6006-1.6821.6006c-.7422,0-1.3149-.187-1.7188-.5615-.4033-.3745-.6055-.895-.6055-1.5625h1.2305c0,.3774.0938.6616.2808.8521.1875.1904.4585.2856.813.2856.332,0,.5967-.1099.7935-.3296.1973-.2197.2954-.5234.2954-.9106v-4.9805Z"/>
    <path class="cls-5" d="m481.6328,227.0782h-2.9199v2.1875h3.4131v.9863h-4.6484v-7.1094h4.6143v.9961h-3.3789v1.9629h2.9199v.9766Z"/>
    <path class="cls-5" d="m485.1728,227.1807l-.8057.8545v2.2168h-1.2354v-7.1094h1.2354v3.335l.6836-.8447,2.0801-2.4902h1.4941l-2.6416,3.1494,2.793,3.96h-1.4648l-2.1387-3.0713Z"/>
    <path class="cls-5" d="m494.5722,224.1387h-2.2168v6.1133h-1.2256v-6.1133h-2.1973v-.9961h5.6396v.9961Z"/>
    <path class="cls-5" d="m500.705,223.1426v4.751c0,.7554-.2417,1.3535-.7251,1.7944s-1.127.6616-1.9312.6616c-.8135,0-1.46-.2173-1.9385-.6519s-.7178-1.0376-.7178-1.8091v-4.7461h1.2305v4.7559c0,.4751.1206.8384.3613,1.0889.2412.2505.5957.376,1.0645.376.9507,0,1.4258-.5015,1.4258-1.5039v-4.7168h1.2305Z"/>
  </g>
  <g>
    <path class="cls-7" d="m556.0908,167.6944v-8.5312h2.5195c.7539,0,1.4229.168,2.0068.5039s1.0361.8125,1.3564,1.4297.4805,1.3242.4805,2.1211v.4277c0,.8086-.1611,1.5195-.4834,2.1328s-.7812,1.0859-1.377,1.418-1.2783.498-2.0479.498h-2.4551Zm1.4824-7.3359v6.1523h.9668c.7773,0,1.374-.2432,1.79-.7295s.6279-1.1846.6357-2.0947v-.4746c0-.9258-.2012-1.6328-.6035-2.1211s-.9863-.7324-1.752-.7324h-1.0371Z"/>
    <path class="cls-7" d="m563.5263,164.4658c0-.6211.123-1.1807.3691-1.6787s.5918-.8809,1.0371-1.1484.957-.4014,1.5352-.4014c.8555,0,1.5498.2754,2.083.8262s.8213,1.2812.8643,2.1914l.0059.334c0,.625-.1201,1.1836-.3604,1.6758s-.584.873-1.0312,1.1426-.9639.4043-1.5498.4043c-.8945,0-1.6104-.2979-2.1475-.8936s-.8057-1.3896-.8057-2.3818v-.0703Zm1.4238.123c0,.6523.1348,1.1631.4043,1.5322s.6445.5537,1.125.5537.8545-.1875,1.1221-.5625.4014-.9238.4014-1.6465c0-.6406-.1377-1.1484-.4131-1.5234s-.6494-.5625-1.1221-.5625c-.4648,0-.834.1846-1.1074.5537s-.4102.9209-.4102,1.6553Z"/>
    <path class="cls-7" d="m571.9463,161.3545l.041.7324c.4688-.5664,1.084-.8496,1.8457-.8496,1.3203,0,1.9922.7559,2.0156,2.2676v4.1895h-1.4238v-4.1074c0-.4023-.0869-.7002-.2607-.8936s-.458-.29-.8525-.29c-.5742,0-1.002.2598-1.2832.7793v4.5117h-1.4238v-6.3398h1.3418Z"/>
    <path class="cls-7" d="m577.0322,164.4658c0-.6211.123-1.1807.3691-1.6787s.5918-.8809,1.0371-1.1484.957-.4014,1.5352-.4014c.8555,0,1.5498.2754,2.083.8262s.8213,1.2812.8643,2.1914l.0059.334c0,.625-.1201,1.1836-.3604,1.6758s-.584.873-1.0312,1.1426-.9639.4043-1.5498.4043c-.8945,0-1.6104-.2979-2.1475-.8936s-.8057-1.3896-.8057-2.3818v-.0703Zm1.4238.123c0,.6523.1348,1.1631.4043,1.5322s.6445.5537,1.125.5537.8545-.1875,1.1221-.5625.4014-.9238.4014-1.6465c0-.6406-.1377-1.1484-.4131-1.5234s-.6494-.5625-1.1221-.5625c-.4648,0-.834.1846-1.1074.5537s-.4102.9209-.4102,1.6553Z"/>
    <path class="cls-7" d="m587.4502,162.6553c-.1875-.0312-.3809-.0469-.5801-.0469-.6523,0-1.0918.25-1.3184.75v4.3359h-1.4238v-6.3398h1.3594l.0352.709c.3438-.5508.8203-.8262,1.4297-.8262.2031,0,.3711.0273.5039.082l-.0059,1.3359Z"/>
  </g>
  <polyline class="cls-3" points="100.6141 82.4519 82.9506 100.1154 82.9506 119.2394 82.9506 61.7582"/>
  <polyline class="cls-3" points="69.2214 72.8803 82.9506 86.3429 82.9506 119.2394"/>
  <line class="cls-3" x1="68.424" y1="119.2394" x2="130.3394" y2="119.2394"/>
  <line class="cls-1" x1="115.0935" y1="112.1582" x2="115.0935" y2="119.2394"/>
  <line class="cls-1" x1="105.8064" y1="112.1582" x2="105.8064" y2="119.2394"/>
  <g>
    <line class="cls-1" x1="34.2597" y1="100.5606" x2="41.0333" y2="103.7035"/>
    <line class="cls-1" x1="27.843" y1="118.5479" x2="32.7248" y2="120.5637"/>
    <g>
      <path class="cls-1" d="m73.6037,125.2147c13.2403,2.9803,20.9817,2.4556,23.2668,2.2577,3.6494-.3161,4.562-5.8731-.8839-5.7375-5.2305.1303-18.1971-2.241-19.507-2.8117-1.3079-.5711-1.4976-.3993,0,0,1.4969.4006,15.3109,2.793,19.507,2.8117,2.7958.0124,4.5951-5.5153-.9227-6.193-5.9677-.733-15.3247-2.0228-17.8216-2.9937s-5.0391-1.8362-6.7836-2.6997c-1.7473-.8618-.4707-1.4689,1.0987-1.4087,1.5682.0594,7.3963-.2277,9.169-.4381,2.889-.3429,6.6896-5.3934.9438-5.7307-5.7466-.336-17.9773-.6853-21.5912-.6832-3.6126.0029-7.4219,2.8693-9.0197,3.043-1.5978.1737-2.5286.3646-4.337-.3404l-7.9763-3.1018-7.6525,19.6756,7.9768,3.1039s4.8042,2.0629,5.9382,2.7516c20.959,12.728,33.9248,10.4289,38.2035,10.2246,5.2395-.2501,5.4237-4.3499,1.9339-4.7391-3.7797-.4215-7.7857.2096-14.0351-1.9169-1.4141-.4812-1.3481-.6644,0,0,3.6429,1.7953,17.9361,2.1106,20.3277,2.2801,4.8431.3432,6.6661-4.9966,1.576-4.942-6.1068.0655-18.2338-1.8206-19.4111-2.4117-1.4895-.7478-1.5581-.3507,0,0Z"/>
      <path class="cls-1" d="m70.6586,114.2125s-.3704,3.366-2.7419,9.4637c-2.3715,6.0977-4.5215,7.9961-4.5215,7.9961"/>
      <path class="cls-1" d="m66.1489,112.6628s-.3443,3.1294-2.5492,8.7986c-2.2048,5.6692-4.2037,7.4342-4.2037,7.4342"/>
      <path class="cls-1" d="m50.34,110.0372s-.1271,2.1708-1.6272,6.0278c-1.5001,3.857-3.0211,4.9952-3.0211,4.9952"/>
      <line class="cls-1" x1="46.156" y1="104.0582" x2="38.4347" y2="123.7084"/>
    </g>
  </g>
  <g>
    <path class="cls-3" d="m332.1499,174.9052c.4373-2.044,1.618-3.8514,3.2834-5.0769"/>
    <path class="cls-3" d="m352.0713,196.7474c.4437,2.3886-.1268,4.4165-.5032,6.1812-2.4897,5.221-9.0857,7.1264-16.6744,4.5083-4.9751-1.7165-9.0497-4.5732-10.9228-8.1788-.7636-1.47-.3234-2.6103,0-6.3731"/>
    <ellipse class="cls-3" cx="338.0742" cy="195.436" rx="9.706" ry="14.5354" transform="translate(43.0636 451.284) rotate(-70.9651)"/>
    <path class="cls-3" d="m344.9766,186.9271l-9.5043-2.7344-1.3203,7.5229c-.1726,1.698,1.529,3.6824,3.9848,4.5298,2.7174.9375,5.2747.1663,6.0538-1.588.6716-1.5122.786-7.7303.786-7.7303Z"/>
    <path class="cls-1" d="m335.2337,169.6285s-2.7403,4.2211-4.8547,2.8987-1.2214-5.9678,1.7767-10.253c2.9981-4.2852,4.6849-3.4435,9.7712-.3195,0,0,3.5226-2.0318,7.267-.5621,3.7445,1.4697,4.3274-.6216,8.4879.9489s4.4065-.0709,9.163,1.7353,11.5147,19.2249,12.6293,21.3936.6316,2.7199,4.0053,4.4035l5.6212,2.5854-8.9138,18.867-6.0234-3.0094"/>
    <path class="cls-3" d="m341.9269,161.9546s7.187,4.9603,9.4067,8.0443"/>
    <path class="cls-3" d="m351.7299,161.947c1.4653.4667,6.3573,3.0766,9.0583,6.9949"/>
    <path class="cls-3" d="m360.3828,163.0448c.8747.3513,4.4031,2.2814,5.969,4.7968"/>
    <path class="cls-1" d="m333.2756,167.6944s11.1935,10.8392,12.7025,14.3565c1.5091,3.5173-2.3545.6594-3.1081.1654s-5.8591-3.0531-6.2192-3.6036-4.6528-7.3332-9.03-4.1635c-2.8186,2.0411,3.4478,10.3056,3.4478,10.3056,0,0,21.1945,13.3775,31.1965,17.0401,10.0019,3.6625,11.8983,6.522,11.8983,6.522"/>
    <polyline class="cls-1" points="386.9535 190.5793 383.7205 189.0362 373.8322 208.806 376.2011 210.5511"/>
    <polyline class="cls-1" points="390.2087 191.7178 387.0881 190.1183 375.4815 211.9017 379.1199 214.3101"/>
  </g>
  <circle class="cls-6" cx="563.1219" cy="94.8311" r="42.3639"/>
  <g>
    <polygon class="cls-1" points="546.9873 126.2308 539.5231 126.2308 540.5098 90.7971 546.1723 90.7971 546.9873 126.2308"/>
    <line class="cls-1" x1="539.995" y1="99.8057" x2="546.4297" y2="99.8057"/>
    <line class="cls-1" x1="539.995" y1="102.5511" x2="546.4297" y2="102.5511"/>
    <polygon class="cls-1" points="557.0324 130.6493 549.5682 130.6493 550.5548 94.5292 556.2174 94.5292 557.0324 130.6493"/>
    <line class="cls-1" x1="550.29" y1="104.2242" x2="556.4361" y2="104.2242"/>
    <line class="cls-1" x1="550.0401" y1="106.9696" x2="556.4747" y2="106.9696"/>
    <polygon class="cls-1" points="566.8708 116.9435 536.0213 116.9435 528.1064 127.6466 528.1064 138.3497 558.9559 138.3497 558.9559 127.6466 566.8708 116.9435"/>
    <line class="cls-1" x1="528.1064" y1="127.6466" x2="558.9559" y2="127.6466"/>
    <rect class="cls-1" x="531.6299" y="130.5206" width="3.346" height="5.0191"/>
    <rect class="cls-1" x="538.1504" y="130.5206" width="3.346" height="5.0191"/>
    <rect class="cls-1" x="544.6709" y="130.5206" width="3.346" height="5.0191"/>
    <rect class="cls-1" x="551.8777" y="130.5206" width="3.346" height="5.0191"/>
    <path class="cls-3" d="m551.974,91.3968c-2.2039-2.845,1.9733-4.8594-.0643-9.1373"/>
    <path class="cls-3" d="m554.5401,91.3968c-2.2039-2.845,1.9733-4.8594-.0643-9.1373"/>
  </g>
  <g>
    <rect class="cls-1" x="562.1322" y="108.9628" width="21.6293" height="29.3869"/>
    <line class="cls-1" x1="562.1322" y1="114.6424" x2="583.7616" y2="114.6424"/>
    <line class="cls-1" x1="562.1322" y1="120.0265" x2="583.7616" y2="120.0265"/>
    <line class="cls-1" x1="562.1322" y1="126.3169" x2="583.7616" y2="126.3169"/>
    <line class="cls-1" x1="562.1322" y1="131.96" x2="583.7616" y2="131.96"/>
    <line class="cls-1" x1="570.7967" y1="131.96" x2="570.7967" y2="138.3497"/>
    <line class="cls-1" x1="574.698" y1="131.96" x2="574.698" y2="138.3497"/>
  </g>
  <g>
    <polyline class="cls-3" points="550.1165 76.7244 543.1817 69.7896 536.394 76.5774"/>
    <line class="cls-3" x1="543.2552" y1="87.6055" x2="543.2552" y2="70.1526"/>
  </g>
  <g>
    <path class="cls-1" d="m627.8565,85.0405c-4.0174-1.9949-11.7898-9.3249-16.4815-11.4333-4.6917-2.1084-18.6599,2.5851-22.1871,4.0861-3.5272,1.501-.854,8.4521.6109,14.8795,1.4649,6.4274,15.1645,3.7646,17.4701,2.5584s9.03,4.1308,15.3476,5.4093l5.24-15.5Z"/>
    <path class="cls-3" d="m606.5855,80.1775c-.6097,2.5179-5.6386,3.0918-5.6386,3.0918"/>
    <g>
      <rect class="cls-1" x="572.0848" y="62.6003" width="23.3535" height="45.1732" transform="translate(153.8366 489.1658) rotate(-51.5203)"/>
      <rect class="cls-1" x="578.224" y="73.5006" width="19.9026" height="30.2868" transform="translate(152.7977 493.9269) rotate(-51.5203)"/>
      <polyline class="cls-1" points="572.7862 65.8651 574.2204 65.7012 571.2267 69.4675"/>
      <rect class="cls-1" x="573.177" y="66.1306" width="1.7339" height="4.897" rx=".8254" ry=".8254" transform="translate(167.3382 -342.298) rotate(38.4797)"/>
      <rect class="cls-1" x="575.0154" y="67.592" width="1.7339" height="4.897" rx=".8254" ry=".8254" transform="translate(168.6469 -343.1248) rotate(38.4797)"/>
      <rect class="cls-1" x="576.8539" y="69.0533" width="1.7339" height="4.897" rx=".8254" ry=".8254" transform="translate(169.9558 -343.9517) rotate(38.4797)"/>
    </g>
    <g>
      <rect class="cls-1" x="579.0888" y="59.1367" width="23.3535" height="45.1732" transform="translate(17.8832 247.5197) rotate(-24.0168)"/>
      <rect class="cls-1" x="583.1327" y="71.6845" width="19.9026" height="30.2868" transform="translate(16.0063 248.9053) rotate(-24.0168)"/>
      <polyline class="cls-1" points="589.9534 59.5167 591.3013 60.0336 586.9066 61.9918"/>
      <rect class="cls-1" x="588.9487" y="60.0564" width="1.7339" height="4.897" rx=".8254" ry=".8254" transform="translate(406.8515 -501.6879) rotate(65.9832)"/>
      <rect class="cls-1" x="589.9046" y="62.2016" width="1.7339" height="4.897" rx=".8254" ry=".8254" transform="translate(409.3775 -501.2889) rotate(65.9832)"/>
      <rect class="cls-1" x="590.8604" y="64.3467" width="1.7339" height="4.897" rx=".8254" ry=".8254" transform="translate(411.9037 -500.8899) rotate(65.9832)"/>
    </g>
    <polyline class="cls-1" points="623.4105 102.4226 620.7212 101.5637 626.7082 83.2786 629.5421 84.1328"/>
    <polyline class="cls-1" points="625.8599 103.8088 623.1833 102.8979 629.6721 83.694 632.4336 84.5075"/>
    <path class="cls-1" d="m621.2381,99.9848s-2.776.9453-4.0206.8365c-1.2446-.1089-8.7132-2.0594-11.4529-3.5045-4.5416-2.3956-4.8156-4.079-8.9764-7.1017-4.2375-3.0784-8.798-5.689-10.1254-6.7326-2.6308-2.0684.062-6.827,4.1332-5.4659,6.6202,2.2134,12.2242,8.9249,20.8594,6.7125"/>
    <path class="cls-3" d="m590.0067,84.2771c-.9994-.5792-1.6308-1.049-2.3409-1.5448-1.383-.9657-.1234-4.8576,3.0124-3.3582.6284.3005,1.793,1.0603,1.793,1.0603-.2802,1.73-1.3244,3.233-2.4646,3.8427Z"/>
  </g>
  <g>
    <circle class="cls-3" cx="327.5023" cy="225.4625" r="13.1318"/>
    <polygon class="cls-1" points="324.2191 233.216 321.8374 241.2208 323.7737 240.3116 324.9437 242.2052 327.3418 234.1452 324.2191 233.216"/>
    <polygon class="cls-1" points="330.4646 233.216 332.8462 241.2208 330.9099 240.3116 329.7399 242.2052 327.3418 234.1452 330.4646 233.216"/>
    <circle class="cls-1" cx="327.5023" cy="225.4625" r="10.4449"/>
  </g>
  <g>
    <path class="cls-3" d="m142.675,138.6001s45.7568,52.1506,123.8713,62.7253"/>
    <polygon class="cls-9" points="264.6045 203.0913 264.3217 202.6782 266.3581 201.2884 264.823 199.3589 265.2148 199.0479 267.0839 201.398 264.6045 203.0913"/>
  </g>
  <g>
    <path class="cls-3" d="m415.4894,193.5065s52.9387-1.3235,97.3708-41.9131"/>
    <polygon class="cls-9" points="512.9203 154.2104 512.4229 154.1542 512.703 151.7048 510.2394 151.6044 510.2601 151.1044 513.2606 151.2272 512.9203 154.2104"/>
  </g>
  <g>
    <path class="cls-3" d="m124.9589,157.0689c4.0247,5.2961,46.175,57.7488,143.7388,67.2478"/>
    <polygon class="cls-9" points="124.3974 159.6309 124.8962 159.6712 125.0927 157.2139 127.5295 157.5894 127.6052 157.0948 124.6374 156.638 124.3974 159.6309"/>
  </g>
  <rect class="cls-2" x="0" width="660" height="297.9922"/>
  <g>
    <path class="cls-3" d="m499.0205,86.2747c-82.6392-52.6033-223.5562-65.3694-345.7988.7515"/>
    <polygon class="cls-9" points="153.7519 84.4556 154.2234 84.6231 153.396 86.9453 155.7729 87.6009 155.6394 88.0833 152.7448 87.2842 153.7519 84.4556"/>
  </g>
</svg>