<?xml version="1.0" encoding="utf-8"?>
<!-- Generator: Adobe Illustrator 27.8.1, SVG Export Plug-In . SVG Version: 6.00 Build 0)  -->
<svg version="1.1" xmlns="http://www.w3.org/2000/svg" xmlns:xlink="http://www.w3.org/1999/xlink" x="0px" y="0px"
	 viewBox="0 0 300 300" style="enable-background:new 0 0 300 300;" xml:space="preserve">
<style type="text/css">
	.st0{fill:none;stroke:#000080;stroke-width:0.75;stroke-linecap:round;stroke-linejoin:round;}
	.st1{fill:#000080;}
	.st2{fill:none;stroke:#333333;stroke-width:3;stroke-miterlimit:10;}
	.st3{fill:#FFFFFF;stroke:#333333;stroke-width:3;stroke-miterlimit:10;}
	.st4{fill:#E6E6E6;}
	.st5{fill:#333333;}
	.st6{fill:#FBBE5F;stroke:#333333;stroke-width:3;stroke-miterlimit:10;}
	.st7{fill:#FFFFFF;}
	.st8{fill:#81EBB3;stroke:#333333;stroke-width:3;stroke-miterlimit:10;}
	.st9{fill:#E6E6E6;stroke:#333333;stroke-width:3;stroke-miterlimit:10;}
	.st10{fill:#81EBB3;}
	.st11{fill:none;stroke:#FFFFFF;stroke-width:3;stroke-miterlimit:10;}
	.st12{fill:none;stroke:#333333;stroke-width:3;stroke-linejoin:bevel;stroke-miterlimit:10;}
	.st13{fill:#FBBE5F;}
	.st14{fill:none;stroke:#81EBB3;stroke-width:3;stroke-miterlimit:10;}
	
	#recycled-lines{
      transform-origin: 149.73px 159.01px;
      animation: recycled-lines 6s infinite linear;
    }

    @keyframes recycled-lines{
      0%{
        rotate: 0deg
      }
      100%{
        rotate: 360deg
      }
    }
</style>
<g id="vzorec">
</g>
<g id="ikonky">
	<g id="recycled-lines">
		<g>
			<g>
				<path class="st2" d="M198.2,40.3c35.4,14.5,63.8,44.8,74.6,84.5c11.3,41.8,0.4,84.4-25.5,115.2"/>
				<g>
					<polygon class="st5" points="243.9,234.7 241.5,246.4 252.9,242.6 					"/>
				</g>
			</g>
		</g>
		<g>
			<g>
				<path class="st2" d="M23.3,169.7c-5.7-60.5,32.8-118.1,93.5-134.5c19.6-5.3,39.4-5.7,58.1-2"/>
				<g>
					<polygon class="st5" points="171.8,38.7 183.2,35.2 174.4,27.1 					"/>
				</g>
			</g>
		</g>
		<g>
			<g>
				<path class="st2" d="M226.2,260c-12.5,9.3-26.9,16.5-42.9,20.9c-65,17.6-131.9-18.6-153.5-81.3"/>
				<g>
					<polygon class="st5" points="36,199.3 27.2,191.3 24.6,202.9 					"/>
				</g>
			</g>
		</g>
	</g>
	<g>
		<polygon class="st8" points="97.8,236.8 134.2,231.6 204.5,161.3 175.9,132.6 139.4,137.8 69.1,208.1 		"/>
		<polyline class="st2" points="174.2,133.4 106.1,202.4 133.8,230.1 134.7,231 		"/>
		<line class="st2" x1="71.7" y1="210.7" x2="106.1" y2="202.4"/>
	</g>
	<line class="st2" x1="125.5" y1="204.7" x2="178" y2="150.3"/>
	<line class="st2" x1="133.9" y1="213.1" x2="186.4" y2="158.7"/>
	<g>
		<polygon class="st8" points="109.3,117.9 136.8,142.3 235.9,150.4 239.2,124.1 211.6,99.7 112.6,91.6 		"/>
		<polyline class="st2" points="237.5,123.4 140.8,116.1 137.6,141.1 137.5,142.4 		"/>
		<line class="st2" x1="112.3" y1="95.3" x2="140.8" y2="116.1"/>
	</g>
	<line class="st2" x1="150.7" y1="130.2" x2="226.1" y2="135"/>
	<path class="st14" d="M84,112.3c-10.5,23.2-21.4,83.2,76.4,57.9c93.9-24.3,41.2,64.3,41.2,64.3"/>
	<path class="st2" d="M80.3,110c-10.5,23.2-17.9,90.1,79.9,64.8c93.9-24.3,35.8,61,35.8,61"/>
</g>
</svg>
