<?xml version="1.0" encoding="UTF-8"?>
<svg id="Layer_1" data-name="Layer 1" xmlns="http://www.w3.org/2000/svg" viewBox="0 0 740 135.9356">
  <defs>
    <style>
      .cls-1 {
        fill: none;
        stroke: navy;
        stroke-linecap: round;
        stroke-linejoin: round;
        stroke-width: .75px;
      }

      .cls-2, .cls-3, .cls-4 {
        stroke-width: 0px;
      }

      .cls-3 {
        fill: #1a1a1a;
      }

      .cls-4 {
        fill: navy;
      }
    </style>
  </defs>
  <g>
    <path class="cls-3" d="m50.1448,56.0344c0-1.0469.2021-1.9824.6055-2.8027.4043-.8203.9854-1.4551,1.7432-1.9043.7588-.4492,1.6396-.6738,2.6416-.6738,1.4258,0,2.5898.4365,3.4912,1.3086.9023.873,1.4053,2.0586,1.5088,3.5547l.0195.7227c0,1.6211-.4521,2.9219-1.3574,3.9023-.9043.9785-2.1191,1.4688-3.6426,1.4688s-2.7393-.4883-3.6475-1.4648-1.3623-2.3047-1.3623-3.9844v-.127Zm2.8223.2012c0,1.0039.1895,1.7715.5664,2.3027.3779.5312.918.7969,1.6211.7969.6836,0,1.2178-.2617,1.6016-.7871.3848-.5254.5762-1.3633.5762-2.5176,0-.9844-.1914-1.748-.5762-2.2891-.3838-.541-.9238-.8125-1.6211-.8125-.6895,0-1.2236.2695-1.6016.8066-.377.5391-.5664,1.3711-.5664,2.5Z"/>
    <path class="cls-3" d="m65.7112,54.0032l1.7773-3.1543h3.0176l-3.0078,5.1758,3.1348,5.3906h-3.0273l-1.8848-3.3203-1.875,3.3203h-3.0371l3.1348-5.3906-2.998-5.1758h3.0273l1.7383,3.1543Z"/>
    <path class="cls-3" d="m71.8441,48.1145c0-.4229.1416-.7715.4248-1.0449s.6689-.4102,1.1572-.4102c.4824,0,.8662.1367,1.1523.4102.2871.2734.4297.6221.4297,1.0449,0,.4297-.1445.7812-.4346,1.0547-.2891.2734-.6719.4102-1.1475.4102-.4746,0-.8574-.1367-1.1475-.4102-.2891-.2734-.4346-.625-.4346-1.0547Zm2.998,13.3008h-2.832v-10.5664h2.832v10.5664Z"/>
    <path class="cls-3" d="m76.7269,56.054c0-1.6465.3701-2.959,1.1084-3.9355.7393-.9766,1.75-1.4648,3.0322-1.4648,1.0293,0,1.8789.3848,2.5488,1.1523v-5.3906h2.832v15h-2.5488l-.1367-1.123c-.7031.8789-1.6074,1.3184-2.7148,1.3184-1.2432,0-2.2412-.4902-2.9932-1.4688-.752-.9805-1.1279-2.3418-1.1279-4.0879Zm2.8223.2109c0,.9902.1729,1.75.5176,2.2793.3457.5273.8467.791,1.5039.791.873,0,1.4883-.3672,1.8457-1.1055v-4.1758c-.3516-.7363-.96-1.1055-1.8262-1.1055-1.3604,0-2.041,1.1055-2.041,3.3164Z"/>
    <path class="cls-3" d="m96.6585,59.1399h5.166v2.2754h-8.7695v-1.7188l4.9707-6.5723h-4.8242v-2.2754h8.4668v1.6631l-5.0098,6.6279Zm.7715-11.3379l1.4258-1.3965h2.4121v.1074l-2.9492,2.7441h-1.7871l-2.9492-2.7637v-.0879h2.4121l1.4355,1.3965Z"/>
    <path class="cls-3" d="m108.4554,61.6106c-1.5488,0-2.8105-.4746-3.7842-1.4258-.9727-.9492-1.46-2.2168-1.46-3.7988v-.2734c0-1.0605.2051-2.0098.6152-2.8457.4102-.8369.9912-1.4814,1.7432-1.9336.752-.4531,1.6104-.6797,2.5732-.6797,1.4453,0,2.583.4561,3.4131,1.3672.8301.9121,1.2451,2.2051,1.2451,3.877v1.1523h-6.7285c.0918.6914.3662,1.2441.8252,1.6602.459.418,1.04.625,1.7432.625,1.0879,0,1.9375-.3926,2.5488-1.1816l1.3867,1.5527c-.4229.5996-.9961,1.0664-1.7188,1.4023-.7227.334-1.5234.502-2.4023.502Zm-.3223-8.6816c-.5596,0-1.0137.1895-1.3623.5693-.3477.3799-.5713.9229-.6689,1.6279h3.9258v-.2246c-.0127-.6289-.1816-1.1133-.5078-1.457-.3252-.3438-.7871-.5156-1.3867-.5156Z"/>
    <path class="cls-3" d="m117.3812,61.4153h-2.832v-15h2.832v15Z"/>
    <path class="cls-3" d="m124.5687,61.6106c-1.5488,0-2.8105-.4746-3.7842-1.4258-.9727-.9492-1.46-2.2168-1.46-3.7988v-.2734c0-1.0605.2051-2.0098.6152-2.8457.4102-.8369.9912-1.4814,1.7432-1.9336.752-.4531,1.6104-.6797,2.5732-.6797,1.4453,0,2.583.4561,3.4131,1.3672.8301.9121,1.2451,2.2051,1.2451,3.877v1.1523h-6.7285c.0918.6914.3662,1.2441.8252,1.6602.459.418,1.04.625,1.7432.625,1.0879,0,1.9375-.3926,2.5488-1.1816l1.3867,1.5527c-.4229.5996-.9961,1.0664-1.7188,1.4023-.7227.334-1.5234.502-2.4023.502Zm-.3223-8.6816c-.5596,0-1.0137.1895-1.3623.5693-.3477.3799-.5713.9229-.6689,1.6279h3.9258v-.2246c-.0127-.6289-.1816-1.1133-.5078-1.457-.3252-.3438-.7871-.5156-1.3867-.5156Z"/>
    <path class="cls-3" d="m133.7581,59.1399h5.166v2.2754h-8.7695v-1.7188l4.9707-6.5723h-4.8242v-2.2754h8.4668v1.6631l-5.0098,6.6279Z"/>
    <path class="cls-3" d="m146.8148,61.4153c-.1299-.2539-.2246-.5684-.2832-.9473-.6836.7617-1.5723,1.1426-2.666,1.1426-1.0352,0-1.8926-.2988-2.5732-.8984-.6797-.5977-1.0205-1.3535-1.0205-2.2656,0-1.1191.415-1.9785,1.2451-2.5781.8301-.5977,2.0303-.9004,3.5986-.9082h1.2988v-.6055c0-.4883-.125-.8789-.376-1.1719-.25-.293-.6455-.4395-1.1865-.4395-.4746,0-.8477.1143-1.1182.3418-.2695.2285-.4053.541-.4053.9375h-2.8223c0-.6113.1895-1.1777.5664-1.6992.3779-.5205.9121-.9287,1.6016-1.2246.6904-.2969,1.4648-.4453,2.3242-.4453,1.3027,0,2.3359.3281,3.1006.9824.7656.6543,1.1475,1.5732,1.1475,2.7578v4.5801c.0068,1.0039.1465,1.7617.4199,2.2754v.166h-2.8516Zm-2.334-1.9629c.417,0,.8008-.0918,1.1523-.2773s.6123-.4355.7812-.748v-1.8164h-1.0547c-1.4121,0-2.1641.4883-2.2559,1.4648l-.0098.166c0,.3516.124.6426.3711.8691.248.2285.5859.3418,1.0156.3418Z"/>
  </g>
  <g>
    <path class="cls-3" d="m336.555,56.679c-.1113,1.5312-.6758,2.7344-1.6943,3.6133-1.0195.8789-2.3623,1.3184-4.0283,1.3184-1.8232,0-3.2568-.6133-4.3018-1.8398-1.0449-1.2285-1.5674-2.9121-1.5674-5.0547v-.8691c0-1.3672.2402-2.5713.7227-3.6133.4814-1.041,1.1699-1.8398,2.0654-2.3965.8945-.5566,1.9346-.8359,3.1201-.8359,1.6406,0,2.9619.4395,3.9648,1.3184,1.002.8789,1.582,2.1133,1.7383,3.7012h-2.9297c-.0723-.918-.3271-1.583-.7666-1.9961-.4395-.4141-1.1084-.6211-2.0068-.6211-.9766,0-1.708.3506-2.1924,1.0508-.4854.6992-.7344,1.7852-.7471,3.2559v1.0742c0,1.5371.2324,2.6602.6982,3.3691.4648.7109,1.1992,1.0645,2.2021,1.0645.9043,0,1.5801-.207,2.0264-.6191.4453-.4141.7012-1.0527.7666-1.9199h2.9297Z"/>
    <path class="cls-3" d="m350.1585,54.6282c0,1.4004-.248,2.627-.7422,3.6816-.4951,1.0547-1.2031,1.8691-2.124,2.4414-.9219.5742-1.9775.8594-3.1689.8594-1.1787,0-2.2305-.2832-3.1543-.8496-.9248-.5664-1.6406-1.375-2.1484-2.4258-.5078-1.0527-.7656-2.2617-.7715-3.6289v-.7031c0-1.3994.252-2.6309.7568-3.6953.5039-1.0645,1.2168-1.8818,2.1387-2.4512.9209-.5703,1.9736-.8555,3.1592-.8555,1.1846,0,2.2373.2852,3.1592.8555.9209.5693,1.6338,1.3867,2.1387,2.4512.5039,1.0645.7568,2.293.7568,3.6855v.6348Zm-2.9688-.6445c0-1.4902-.2676-2.623-.8008-3.3984-.5342-.7744-1.2959-1.1621-2.2852-1.1621-.9834,0-1.7422.3828-2.2754,1.1484-.5342.7646-.8047,1.8857-.8105,3.3633v.6934c0,1.4531.2666,2.5781.8008,3.3789.5332.8008,1.3018,1.2012,2.3047,1.2012.9824,0,1.7383-.3848,2.2656-1.1562s.7939-1.8965.8008-3.375v-.6934Z"/>
    <path class="cls-3" d="m357.3089,65.5598h-5.7842v-1.2539l2.6641-2.8008c.6562-.748.9854-1.3418.9854-1.7812,0-.3574-.0781-.6289-.2334-.8145-.1562-.1855-.3818-.2793-.6777-.2793-.292,0-.5293.125-.7119.373-.1816.248-.2734.5586-.2734.9316h-1.9238c0-.5098.127-.9785.3809-1.4102.2549-.4297.6074-.7676,1.0596-1.0098.4512-.2422.9561-.3652,1.5137-.3652.8965,0,1.5859.207,2.0703.6211.4834.4141.7256,1.0078.7256,1.7812,0,.3281-.0605.6445-.1826.9551-.1211.3086-.3096.6328-.5664.9727-.2559.3398-.6689.7949-1.2383,1.3633l-1.0703,1.2363h3.2627v1.4805Z"/>
  </g>
  <path class="cls-3" d="m209.0609,56.679c-.1104,1.5312-.6748,2.7344-1.6943,3.6133-1.0186.8789-2.3613,1.3184-4.0283,1.3184-1.8223,0-3.2568-.6133-4.3018-1.8398-1.0449-1.2285-1.5674-2.9121-1.5674-5.0547v-.8691c0-1.3672.2412-2.5713.7227-3.6133.4824-1.041,1.1709-1.8398,2.0654-2.3965.8955-.5566,1.9355-.8359,3.1201-.8359,1.6406,0,2.9629.4395,3.9648,1.3184,1.0029.8789,1.582,2.1133,1.7383,3.7012h-2.9297c-.0713-.918-.3271-1.583-.7666-1.9961-.4395-.4141-1.1084-.6211-2.0068-.6211-.9766,0-1.707.3506-2.1924,1.0508-.4844.6992-.7334,1.7852-.7471,3.2559v1.0742c0,1.5371.2334,2.6602.6982,3.3691.4658.7109,1.2002,1.0645,2.2021,1.0645.9053,0,1.5811-.207,2.0264-.6191.4463-.4141.7021-1.0527.7666-1.9199h2.9297Z"/>
  <g>
    <path class="cls-3" d="m272.015,55.6048h-5.625v5.8105h-2.9297v-14.2188h9.2578v2.373h-6.3281v3.6719h5.625v2.3633Z"/>
    <path class="cls-3" d="m279.095,61.6106c-1.5508,0-2.8105-.4746-3.7852-1.4258-.9727-.9492-1.459-2.2168-1.459-3.7988v-.2734c0-1.0605.2051-2.0098.6152-2.8457.4102-.8369.9902-1.4814,1.7422-1.9336.752-.4531,1.6094-.6797,2.5742-.6797,1.4453,0,2.582.4561,3.4121,1.3672.8301.9121,1.2461,2.2051,1.2461,3.877v1.1523h-6.7285c.0898.6914.3652,1.2441.8242,1.6602.459.418,1.041.625,1.7441.625,1.0859,0,1.9355-.3926,2.5488-1.1816l1.3867,1.5527c-.4238.5996-.9961,1.0664-1.7188,1.4023-.7227.334-1.5234.502-2.4023.502Zm-.3223-8.6816c-.5605,0-1.0137.1895-1.3633.5693-.3477.3799-.5703.9229-.668,1.6279h3.9258v-.2246c-.0137-.6289-.1836-1.1133-.5078-1.457-.3262-.3438-.7891-.5156-1.3867-.5156Z"/>
  </g>
  <g>
    <path class="cls-4" d="m62.6868,102.5803h5.8359v.8379h-7.0645v-.7305l5.4453-7.3877h-5.2793v-.8633h6.5332v.7461l-5.4707,7.3975Zm2.291-10.1934l1.4277-1.6113h.8887v.0996l-1.959,2.167h-.7139l-1.959-2.1748v-.0918h.8877l1.4277,1.6113Z"/>
    <path class="cls-4" d="m73.7767,103.5843c-.7637,0-1.4541-.1885-2.0703-.5645-.6172-.376-1.0977-.9004-1.4404-1.5732-.3438-.6719-.5146-1.4258-.5146-2.2617v-.3564c0-.8633.167-1.6416.502-2.333s.8008-1.2354,1.3984-1.6309,1.2451-.5938,1.9424-.5938c1.0908,0,1.9551.3721,2.5947,1.1162.6387.7441.958,1.7617.958,3.0508v.5566h-6.4082v.1904c0,1.0186.292,1.8662.876,2.5439s1.3184,1.0176,2.2041,1.0176c.5312,0,1-.0977,1.4072-.291.4062-.1934.7754-.5039,1.1074-.9297l.623.4727c-.7305,1.0576-1.79,1.5859-3.1797,1.5859Zm-.1826-8.4668c-.7471,0-1.376.2734-1.8877.8223-.5127.5469-.8232,1.2832-.9346,2.207h5.3877v-.1074c-.0283-.8633-.2744-1.5664-.7393-2.1084s-1.0732-.8135-1.8262-.8135Z"/>
    <path class="cls-4" d="m80.1937,103.4182h-.9961v-12.75h.9961v12.75Z"/>
    <path class="cls-4" d="m86.3695,103.5843c-.7637,0-1.4541-.1885-2.0713-.5645s-1.0967-.9004-1.4404-1.5732c-.3428-.6719-.5146-1.4258-.5146-2.2617v-.3564c0-.8633.168-1.6416.502-2.333.335-.6914.8018-1.2354,1.3994-1.6309s1.2451-.5938,1.9424-.5938c1.0898,0,1.9541.3721,2.5938,1.1162.6387.7441.959,1.7617.959,3.0508v.5566h-6.4082v.1904c0,1.0186.292,1.8662.875,2.5439.584.6777,1.3193,1.0176,2.2041,1.0176.5312,0,1-.0977,1.4072-.291.4062-.1934.7764-.5039,1.1084-.9297l.6221.4727c-.7305,1.0576-1.79,1.5859-3.1787,1.5859Zm-.1826-8.4668c-.7471,0-1.377.2734-1.8887.8223-.5117.5469-.8232,1.2832-.9336,2.207h5.3867v-.1074c-.0273-.8633-.2734-1.5664-.7383-2.1084s-1.0742-.8135-1.8262-.8135Z"/>
    <path class="cls-4" d="m92.3294,102.5803h5.835v.8379h-7.0635v-.7305l5.4453-7.3877h-5.2793v-.8633h6.5322v.7461l-5.4697,7.3975Z"/>
    <path class="cls-4" d="m100.887,94.4368l.0332,1.5361c.3379-.5537.7588-.9756,1.2617-1.2666.5039-.29,1.0596-.4355,1.6689-.4355.9629,0,1.6797.2715,2.1494.8135.4707.542.709,1.3555.7139,2.4404v5.8936h-.9873v-5.9023c-.0059-.8018-.1758-1.3994-.5107-1.793-.335-.3926-.8701-.5889-1.6064-.5889-.6143,0-1.1582.1924-1.6309.5771-.4736.3848-.8232.9033-1.0498,1.5566v6.1504h-.9883v-8.9814h.9463Z"/>
    <path class="cls-4" d="m114.9486,103.4182c-.0996-.2822-.1631-.7002-.1904-1.2539-.3486.4541-.793.8047-1.332,1.0508-.54.2461-1.1113.3691-1.7148.3691-.8633,0-1.5615-.2402-2.0957-.7227-.5342-.4805-.8008-1.0898-.8008-1.8262,0-.874.3633-1.5654,1.0918-2.0742.7275-.5098,1.7412-.7637,3.042-.7637h1.8008v-1.0215c0-.6416-.1973-1.1465-.5928-1.5146-.3965-.3682-.9727-.5518-1.7314-.5518-.6914,0-1.2646.1768-1.7178.5312-.4541.3535-.6807.7793-.6807,1.2773l-.9961-.0078c0-.7139.332-1.332.9961-1.8555.6641-.5225,1.4805-.7842,2.4482-.7842,1.002,0,1.792.25,2.3701.751s.876,1.1992.8926,2.0957v4.25c0,.8691.0908,1.5195.2734,1.9512v.0996h-1.0625Zm-3.1211-.7139c.6641,0,1.2578-.1602,1.7812-.4814.5225-.3213.9033-.75,1.1406-1.2871v-1.9746h-1.7764c-.9902.0107-1.7646.1914-2.3242.543-.5586.3516-.8379.834-.8379,1.4492,0,.5029.1865.9209.5605,1.2529.373.332.8584.498,1.4561.498Zm1.959-12.0361h1.2041l-1.918,2.3242-.8711-.0039,1.585-2.3203Z"/>
    <path class="cls-4" d="m126.6693,95.2835c-.21-.0391-.4346-.0586-.6719-.0586-.6201,0-1.1445.1738-1.5732.5195s-.7344.8477-.917,1.5059v6.168h-.9883v-8.9814h.9717l.0166,1.4277c.5254-1.0625,1.3691-1.5938,2.5312-1.5938.2773,0,.4951.0361.6562.1084l-.0254.9043Z"/>
    <path class="cls-4" d="m134.0159,102.2815c-.5977.8682-1.5527,1.3027-2.8643,1.3027-.957,0-1.6846-.2783-2.1826-.834-.498-.5566-.7529-1.3799-.7637-2.4697v-5.8438h.9873v5.7197c0,1.709.6924,2.5645,2.0752,2.5645,1.4395,0,2.3496-.5947,2.7314-1.7852v-6.499h.9961v8.9814h-.9629l-.0166-1.1367Z"/>
    <path class="cls-4" d="m137.178,98.844c0-1.3945.3115-2.5049.9336-3.332.623-.8271,1.4688-1.2412,2.5361-1.2412,1.2119,0,2.1367.4785,2.7725,1.4365v-5.0391h.9883v12.75h-.9297l-.042-1.1953c-.6357.9072-1.5713,1.3613-2.8057,1.3613-1.0342,0-1.8691-.416-2.5029-1.249-.6328-.833-.9502-1.958-.9502-3.374v-.1172Zm1.0049.1748c0,1.1455.2295,2.0488.6885,2.71.46.6611,1.1074.9922,1.9424.9922,1.2236,0,2.0918-.5391,2.6064-1.6191v-4.2168c-.5146-1.167-1.3779-1.751-2.5898-1.751-.835,0-1.4854.3281-1.9502.9834-.4648.6562-.6973,1.623-.6973,2.9014Z"/>
    <path class="cls-4" d="m152.6927,103.4182c-.0996-.2822-.1631-.7002-.1914-1.2539-.3486.4541-.793.8047-1.332,1.0508-.54.2461-1.1113.3691-1.7139.3691-.8633,0-1.5625-.2402-2.0967-.7227-.5332-.4805-.8008-1.0898-.8008-1.8262,0-.874.3643-1.5654,1.0918-2.0742.7275-.5098,1.7422-.7637,3.042-.7637h1.8018v-1.0215c0-.6416-.1982-1.1465-.5938-1.5146s-.9727-.5518-1.7305-.5518c-.6924,0-1.2646.1768-1.7188.5312-.4531.3535-.6807.7793-.6807,1.2773l-.9961-.0078c0-.7139.332-1.332.9961-1.8555.6641-.5225,1.4805-.7842,2.4492-.7842,1.001,0,1.791.25,2.3691.751.5791.501.876,1.1992.8926,2.0957v4.25c0,.8691.0918,1.5195.2744,1.9512v.0996h-1.0625Zm-3.1211-.7139c.6641,0,1.2568-.1602,1.7803-.4814.5225-.3213.9033-.75,1.1416-1.2871v-1.9746h-1.7764c-.9912.0107-1.7656.1914-2.3242.543-.5596.3516-.8389.834-.8389,1.4492,0,.5029.1865.9209.5605,1.2529.373.332.8594.498,1.457.498Z"/>
    <path class="cls-4" d="m46.8831,117.5374c0-1.2061.1543-2.3779.4648-3.5156.3096-1.1367.7637-2.1777,1.3613-3.1211s1.2393-1.6201,1.9258-2.0293l.2402.6719c-.3652.2607-.7275.6396-1.0869,1.1377-.3604.498-.6807,1.0898-.9629,1.7764s-.5107,1.457-.6846,2.3115c-.1748.8555-.2617,1.8252-.2617,2.9092,0,1.1572.1309,2.2695.3945,3.3379.2627,1.0674.623,2.0098,1.083,2.8262.459.8164.9658,1.4287,1.5186,1.8379l-.2402.6396c-.7031-.4209-1.3535-1.0996-1.9512-2.0381-.5977-.9375-1.0469-1.9697-1.3486-3.0957s-.4521-2.3428-.4521-3.6484Z"/>
    <path class="cls-4" d="m53.3821,113.4368l.0332,1.5361c.3379-.5537.7588-.9756,1.2617-1.2666.5039-.29,1.0596-.4355,1.6689-.4355.9629,0,1.6797.2715,2.1494.8135.4707.542.709,1.3555.7139,2.4404v5.8936h-.9873v-5.9023c-.0059-.8018-.1758-1.3994-.5107-1.793-.335-.3926-.8701-.5889-1.6064-.5889-.6143,0-1.1582.1924-1.6309.5771-.4736.3848-.8232.9033-1.0498,1.5566v6.1504h-.9883v-8.9814h.9463Z"/>
    <path class="cls-4" d="m67.4437,122.4182c-.0996-.2822-.1631-.7002-.1904-1.2539-.3486.4541-.793.8047-1.332,1.0508-.54.2461-1.1113.3691-1.7148.3691-.8633,0-1.5615-.2402-2.0957-.7227-.5342-.4805-.8008-1.0898-.8008-1.8262,0-.874.3633-1.5654,1.0918-2.0742.7275-.5098,1.7412-.7637,3.042-.7637h1.8008v-1.0215c0-.6416-.1973-1.1465-.5928-1.5146-.3965-.3682-.9727-.5518-1.7314-.5518-.6914,0-1.2646.1768-1.7178.5312-.4541.3535-.6807.7793-.6807,1.2773l-.9961-.0078c0-.7139.332-1.332.9961-1.8555.6641-.5225,1.4805-.7842,2.4482-.7842,1.002,0,1.792.25,2.3701.751s.876,1.1992.8926,2.0957v4.25c0,.8691.0908,1.5195.2734,1.9512v.0996h-1.0625Zm-3.1211-.7139c.6641,0,1.2578-.1602,1.7812-.4814.5225-.3213.9033-.75,1.1406-1.2871v-1.9746h-1.7764c-.9902.0107-1.7646.1914-2.3242.543-.5586.3516-.8379.834-.8379,1.4492,0,.5029.1865.9209.5605,1.2529.373.332.8584.498,1.4561.498Z"/>
    <path class="cls-4" d="m78.1019,118.0188c0,1.4004-.3096,2.5107-.9297,3.333-.6191.8213-1.4492,1.2324-2.4902,1.2324-1.2285,0-2.1689-.4316-2.8223-1.2949v4.582h-.9873v-12.4346h.9209l.0498,1.2705c.6475-.958,1.5859-1.4365,2.8145-1.4365,1.0732,0,1.916.4072,2.5273,1.2197.6113.8145.917,1.9434.917,3.3867v.1416Zm-.9961-.1748c0-1.1445-.2354-2.0498-.7051-2.7139-.4707-.6641-1.126-.9961-1.9678-.9961-.6084,0-1.1318.1465-1.5684.4404-.4375.293-.7725.7188-1.0049,1.2773v4.3086c.2383.5146.5781.9072,1.0215,1.1787.4424.2715.9658.4072,1.5684.4072.8359,0,1.4873-.334,1.9551-1.001s.7012-1.6338.7012-2.9014Z"/>
    <path class="cls-4" d="m82.4105,111.3948l1.4277-1.6104h.8877v.0996l-1.959,2.167h-.7139l-1.959-2.1758v-.0908h.8887l1.4277,1.6104Zm2.042,2.8887c-.2109-.0391-.4346-.0586-.6729-.0586-.6191,0-1.1436.1738-1.5723.5195-.4297.3457-.7354.8477-.918,1.5059v6.168h-.9873v-8.9814h.9707l.0166,1.4277c.5264-1.0625,1.3701-1.5938,2.5322-1.5938.2764,0,.4951.0361.6553.1084l-.0244.9043Z"/>
    <path class="cls-4" d="m87.6312,109.7678h1.2041l-1.918,2.3242-.8711-.0039,1.585-2.3203Zm-.5146,12.6504h-.9961v-8.9814h.9961v8.9814Z"/>
    <path class="cls-4" d="m91.9398,117.8948l-1.1377,1.0957v3.4277h-.9961v-12.75h.9961v8.1602l.9385-1.0137,3.4365-3.3779h1.2529l-3.8096,3.7852,4.1416,5.1963h-1.1865l-3.6357-4.5234Z"/>
    <path class="cls-4" d="m99.2445,122.4182h-.9961v-12.75h.9961v12.75Z"/>
    <path class="cls-4" d="m107.6116,122.4182c-.0996-.2822-.1631-.7002-.1914-1.2539-.3486.4541-.793.8047-1.332,1.0508-.54.2461-1.1113.3691-1.7139.3691-.8633,0-1.5625-.2402-2.0967-.7227-.5332-.4805-.8008-1.0898-.8008-1.8262,0-.874.3643-1.5654,1.0918-2.0742.7275-.5098,1.7422-.7637,3.042-.7637h1.8018v-1.0215c0-.6416-.1982-1.1465-.5938-1.5146s-.9727-.5518-1.7305-.5518c-.6924,0-1.2646.1768-1.7188.5312-.4531.3535-.6807.7793-.6807,1.2773l-.9961-.0078c0-.7139.332-1.332.9961-1.8555.6641-.5225,1.4805-.7842,2.4492-.7842,1.001,0,1.791.25,2.3691.751.5791.501.876,1.1992.8926,2.0957v4.25c0,.8691.0918,1.5195.2744,1.9512v.0996h-1.0625Zm-3.1211-.7139c.6641,0,1.2568-.1602,1.7803-.4814.5225-.3213.9033-.75,1.1416-1.2871v-1.9746h-1.7764c-.9912.0107-1.7656.1914-2.3242.543-.5596.3516-.8389.834-.8389,1.4492,0,.5029.1865.9209.5605,1.2529.373.332.8594.498,1.457.498Z"/>
    <path class="cls-4" d="m110.6497,117.844c0-1.3945.3115-2.5049.9336-3.332.623-.8271,1.4678-1.2412,2.5361-1.2412,1.2119,0,2.1357.4785,2.7725,1.4365v-5.0391h.9873v12.75h-.9297l-.041-1.1953c-.6367.9072-1.5723,1.3613-2.8057,1.3613-1.0352,0-1.8691-.416-2.5029-1.249s-.9502-1.958-.9502-3.374v-.1172Zm1.0039.1748c0,1.1455.2295,2.0488.6895,2.71.459.6611,1.1064.9922,1.9424.9922,1.2227,0,2.0918-.5391,2.6064-1.6191v-4.2168c-.5146-1.167-1.3779-1.751-2.5898-1.751-.8359,0-1.4863.3281-1.9512.9834-.4648.6562-.6973,1.623-.6973,2.9014Z"/>
    <path class="cls-4" d="m131.5179,116.7659h-5.6367v5.6523h-1.0205v-12.0859h7.4873v.8633h-6.4668v4.707h5.6367v.8633Z"/>
    <path class="cls-4" d="m137.6683,122.5843c-.7637,0-1.4541-.1885-2.0703-.5645-.6172-.376-1.0977-.9004-1.4404-1.5732-.3438-.6719-.5146-1.4258-.5146-2.2617v-.3564c0-.8633.167-1.6416.502-2.333s.8008-1.2354,1.3984-1.6309,1.2451-.5938,1.9424-.5938c1.0908,0,1.9551.3721,2.5947,1.1162.6387.7441.958,1.7617.958,3.0508v.5566h-6.4082v.1904c0,1.0186.292,1.8662.876,2.5439s1.3184,1.0176,2.2041,1.0176c.5312,0,1-.0977,1.4072-.291.4062-.1934.7754-.5039,1.1074-.9297l.623.4727c-.7305,1.0576-1.79,1.5859-3.1797,1.5859Zm-.1826-8.4668c-.7471,0-1.376.2734-1.8877.8223-.5127.5469-.8232,1.2832-.9346,2.207h5.3877v-.1074c-.0283-.8633-.2744-1.5664-.7393-2.1084s-1.0732-.8135-1.8262-.8135Z"/>
    <path class="cls-4" d="m146.8802,126.0794h-4.6172v-.6436l2.4395-2.71c.3613-.4102.6104-.7432.748-.999.1367-.2568.2051-.5225.2051-.7969,0-.3672-.1113-.6689-.334-.9043s-.5195-.3535-.8906-.3535c-.4443,0-.791.127-1.0381.3799-.2461.2529-.3701.6055-.3701,1.0576h-.8945c0-.6484.208-1.1729.626-1.5732.418-.3994.9775-.5996,1.6768-.5996.6553,0,1.1729.1719,1.5537.5146.3809.3438.5713.8018.5713,1.3721,0,.6943-.4424,1.5195-1.3262,2.4785l-1.8877,2.0469h3.5381v.7305Z"/>
    <path class="cls-4" d="m157.7025,117.0315c0,1.1113-.1924,2.0889-.5771,2.9297s-.9336,1.4883-1.6475,1.9424-1.5391.6807-2.4736.6807c-1.4111,0-2.5518-.5049-3.4199-1.5146-.8691-1.0098-1.3037-2.373-1.3037-4.0889v-1.2441c0-1.1016.1953-2.0771.5859-2.9268.3896-.8496.9414-1.502,1.6553-1.959.7139-.4561,1.5361-.6846,2.4658-.6846s1.75.2246,2.4609.6719c.7109.4492,1.2607,1.082,1.6475,1.9014.3877.8193.5898,1.7686.6064,2.8467v1.4453Zm-1.0215-1.3125c0-1.4551-.3291-2.5947-.9873-3.4199-.6592-.8242-1.5605-1.2363-2.7061-1.2363-1.124,0-2.0186.4141-2.6855,1.2412s-1,1.9824-1,3.4658v1.2617c0,1.4326.332,2.5684.9961,3.4072.6641.8379,1.5654,1.2568,2.7061,1.2568,1.1562,0,2.0586-.4131,2.7061-1.2402s.9707-1.9805.9707-3.457v-1.2793Z"/>
    <path class="cls-4" d="m160.6351,122.1204h.6729c.4229-.0059.7549-.1172.9971-.334.2422-.2158.3633-.5078.3633-.875,0-.8262-.4121-1.2393-1.2344-1.2393-.3867,0-.6963.1104-.9268.3311-.2305.2217-.3457.5146-.3457.8789h-.8955c0-.5586.2041-1.0225.6123-1.3916s.9268-.5537,1.5557-.5537c.665,0,1.1855.1758,1.5635.5273.377.3516.5654.8398.5654,1.4658,0,.3066-.0986.6035-.2969.8906s-.4688.502-.8105.6436c.3867.123.6855.3262.8975.6104.2109.2832.3164.6309.3164,1.04,0,.6328-.2061,1.1338-.6191,1.5049s-.9502.5566-1.6113.5566-1.1992-.1787-1.6143-.5371c-.4141-.3584-.6211-.8311-.6211-1.418h.8994c0,.3711.1211.668.3633.8906s.5664.334.9727.334c.4326,0,.7627-.1133.9922-.3389.2285-.2256.3438-.5498.3438-.9727,0-.4102-.126-.7246-.3779-.9434-.251-.2197-.6143-.333-1.0889-.3389h-.6729v-.7314Z"/>
    <path class="cls-4" d="m168.5794,117.6624c0,1.2168-.1504,2.3887-.4521,3.5146s-.748,2.1572-1.3408,3.0928c-.5918.9346-1.2451,1.6182-1.959,2.0498l-.2402-.6396c.542-.3867,1.0439-.9873,1.5059-1.8008.4629-.8135.8262-1.7607,1.0918-2.8428s.3984-2.2568.3984-3.5244c0-1.1445-.1328-2.25-.3984-3.3154s-.6318-2.0176-1.0996-2.8555c-.4678-.8389-.9668-1.4482-1.498-1.8311l.2402-.6387c.6973.4258,1.3418,1.1064,1.9346,2.042.5918.9355,1.043,1.9727,1.3525,3.1123.3105,1.1406.4648,2.3525.4648,3.6367Z"/>
  </g>
  <g>
    <path class="cls-4" d="m290.6898,102.4104h5.835v.8379h-7.0635v-.7305l5.4453-7.3877h-5.2793v-.8633h6.5322v.7461l-5.4697,7.3975Zm2.291-10.1934l1.4277-1.6113h.8877v.0996l-1.959,2.167h-.7139l-1.959-2.1748v-.0918h.8887l1.4277,1.6113Z"/>
    <path class="cls-4" d="m301.7796,103.4143c-.7637,0-1.4541-.1885-2.0713-.5645s-1.0977-.9004-1.4404-1.5732c-.3428-.6719-.5146-1.4258-.5146-2.2617v-.3564c0-.8633.167-1.6416.502-2.333s.8018-1.2354,1.3994-1.6309,1.2441-.5938,1.9414-.5938c1.0908,0,1.9551.3721,2.5947,1.1162.6387.7441.958,1.7617.958,3.0508v.5566h-6.4082v.1904c0,1.0186.292,1.8662.876,2.5439s1.3184,1.0176,2.2041,1.0176c.5312,0,1-.0977,1.4072-.291.4062-.1934.7764-.5039,1.1084-.9297l.6221.4727c-.7305,1.0576-1.79,1.5859-3.1787,1.5859Zm-.1836-8.4668c-.7461,0-1.376.2734-1.8877.8223-.5117.5469-.8232,1.2832-.9346,2.207h5.3877v-.1074c-.0273-.8633-.2744-1.5664-.7393-2.1084s-1.0732-.8135-1.8262-.8135Z"/>
    <path class="cls-4" d="m308.1956,103.2483h-.9961v-12.75h.9961v12.75Z"/>
    <path class="cls-4" d="m314.3714,103.4143c-.7637,0-1.4541-.1885-2.0713-.5645s-1.0977-.9004-1.4404-1.5732c-.3428-.6719-.5146-1.4258-.5146-2.2617v-.3564c0-.8633.167-1.6416.502-2.333s.8018-1.2354,1.3994-1.6309,1.2441-.5938,1.9414-.5938c1.0908,0,1.9551.3721,2.5947,1.1162.6387.7441.958,1.7617.958,3.0508v.5566h-6.4082v.1904c0,1.0186.292,1.8662.876,2.5439s1.3184,1.0176,2.2041,1.0176c.5312,0,1-.0977,1.4072-.291.4062-.1934.7764-.5039,1.1084-.9297l.6221.4727c-.7305,1.0576-1.79,1.5859-3.1787,1.5859Zm-.1836-8.4668c-.7461,0-1.376.2734-1.8877.8223-.5117.5469-.8232,1.2832-.9346,2.207h5.3877v-.1074c-.0273-.8633-.2744-1.5664-.7393-2.1084s-1.0732-.8135-1.8262-.8135Z"/>
    <path class="cls-4" d="m320.3323,102.4104h5.835v.8379h-7.0635v-.7305l5.4453-7.3877h-5.2793v-.8633h6.5322v.7461l-5.4697,7.3975Z"/>
    <path class="cls-4" d="m327.263,98.6253c0-.8633.167-1.6416.502-2.333s.8086-1.2295,1.4199-1.6143,1.3047-.5771,2.0791-.5771c1.1953,0,2.1641.4189,2.9053,1.2578.7412.8379,1.1123,1.9492,1.1123,3.333v.207c0,.8691-.167,1.6504-.502,2.3447s-.8066,1.2305-1.416,1.6064c-.6084.376-1.3027.5645-2.083.5645-1.1895,0-2.1572-.4189-2.9014-1.2578-.7441-.8379-1.1162-1.9492-1.1162-3.332v-.1992Zm.9961.2734c0,1.0732.2783,1.9551.834,2.6436.5566.6895,1.2852,1.0342,2.1875,1.0342.8965,0,1.623-.3447,2.1787-1.0342.5566-.6885.834-1.5977.834-2.7266v-.1904c0-.6865-.127-1.3145-.3809-1.8848-.2549-.5703-.6123-1.0117-1.0713-1.3242s-.9854-.4688-1.5771-.4688c-.8857,0-1.6074.3477-2.166,1.042-.5596.6943-.8389,1.6035-.8389,2.7266v.1826Z"/>
  </g>
  <g>
    <path class="cls-4" d="m376.6741,22.9934c0-.4922-.1982-.8877-.5938-1.1865s-.9922-.5332-1.7891-.7012c-.7969-.1689-1.415-.3633-1.8545-.5811-.4404-.2188-.7666-.4863-.9795-.8018s-.3203-.6973-.3203-1.1455c0-.708.2969-1.293.8887-1.7549.5918-.4629,1.3506-.6934,2.2744-.6934,1.002,0,1.8057.2471,2.4111.7432.6064.4951.9092,1.1406.9092,1.9375h-.9961c0-.5254-.2197-.9629-.6602-1.3115-.4395-.3486-.9941-.5225-1.6641-.5225-.6533,0-1.1777.1455-1.5732.4355-.3955.291-.5938.668-.5938,1.1328,0,.4482.165.7959.4941,1.042s.9297.4717,1.8018.6768c.8711.2041,1.5244.4229,1.959.6553s.7568.5117.9668.8389c.21.3262.3154.7217.3154,1.1865,0,.7588-.3057,1.3643-.917,1.8184-.6113.4531-1.4102.6807-2.3955.6807-1.0449,0-1.8936-.2529-2.5439-.7598-.6504-.5059-.9756-1.1465-.9756-1.9219h.9961c.0391.5811.2842,1.0342.7354,1.3574.4512.3242,1.0469.4854,1.7881.4854.6924,0,1.251-.1523,1.6777-.4561.4258-.3047.6387-.6895.6387-1.1543Z"/>
    <path class="cls-4" d="m382.0355,20.7522l-1.1367,1.0957v3.4287h-.9961v-12.75h.9961v8.1592l.9375-1.0127,3.4375-3.3779h1.2529l-3.8096,3.7852,4.1416,5.1963h-1.1865l-3.6367-4.5244Z"/>
    <path class="cls-4" d="m389.3411,25.2766h-.9961v-12.75h.9961v12.75Z"/>
    <path class="cls-4" d="m395.5179,25.4427c-.7637,0-1.4541-.1885-2.0713-.5645-.6172-.377-1.0977-.9004-1.4404-1.5732-.3428-.6719-.5146-1.4268-.5146-2.2617v-.3574c0-.8633.167-1.6406.502-2.332.335-.6924.8018-1.2354,1.3994-1.6309.5977-.3965,1.2441-.5938,1.9414-.5938,1.0908,0,1.9551.3721,2.5947,1.1162.6387.7441.958,1.7607.958,3.0508v.5557h-6.4082v.1914c0,1.0176.292,1.8662.876,2.5439s1.3184,1.0166,2.2041,1.0166c.5312,0,1-.0967,1.4072-.29.4062-.1943.7764-.5039,1.1084-.9297l.6221.4727c-.7305,1.0576-1.79,1.5859-3.1787,1.5859Zm-.1836-8.4668c-.7461,0-1.376.2734-1.8877.8213s-.8232,1.2842-.9346,2.208h5.3877v-.1074c-.0273-.8633-.2744-1.5664-.7393-2.1084-.4648-.543-1.0732-.8135-1.8262-.8135Z"/>
    <path class="cls-4" d="m401.7669,16.2952l.0332,1.5352c.3379-.5527.7578-.9746,1.2617-1.2656.5039-.29,1.0596-.4355,1.6689-.4355.9629,0,1.6787.2705,2.1494.8135.4707.542.708,1.3555.7139,2.4404v5.8936h-.9883v-5.9023c-.0049-.8018-.1748-1.3994-.5098-1.793-.335-.3926-.8701-.5889-1.6064-.5889-.6143,0-1.1582.1924-1.6309.5771-.4736.3838-.8232.9033-1.0498,1.5557v6.1514h-.9883v-8.9814h.9463Z"/>
    <path class="cls-4" d="m411.7698,12.6262h1.2041l-1.918,2.3242-.8711-.0039,1.585-2.3203Zm-.5146,12.6504h-.9961v-8.9814h.9961v8.9814Z"/>
    <path class="cls-4" d="m416.0775,20.7522l-1.1367,1.0957v3.4287h-.9961v-12.75h.9961v8.1592l.9375-1.0127,3.4375-3.3779h1.2529l-3.8096,3.7852,4.1416,5.1963h-1.1865l-3.6367-4.5244Z"/>
    <path class="cls-4" d="m421.722,20.6526c0-.8633.167-1.6406.502-2.332.335-.6924.8086-1.2305,1.4199-1.6143.6113-.3848,1.3047-.5771,2.0791-.5771,1.1953,0,2.1641.4189,2.9053,1.2578.7412.8379,1.1123,1.9492,1.1123,3.332v.208c0,.8682-.167,1.6504-.502,2.3447s-.8066,1.2295-1.416,1.6064c-.6084.376-1.3027.5645-2.083.5645-1.1895,0-2.1572-.4189-2.9014-1.2578-.7441-.8379-1.1162-1.9492-1.1162-3.333v-.1992Zm.9961.2744c0,1.0732.2783,1.9551.834,2.6436.5566.6895,1.2852,1.0332,2.1875,1.0332.8965,0,1.623-.3438,2.1787-1.0332.5566-.6885.834-1.5977.834-2.7266v-.1914c0-.6855-.127-1.3145-.3809-1.8838-.2549-.5703-.6123-1.0117-1.0713-1.3242s-.9854-.4688-1.5771-.4688c-.8857,0-1.6074.3467-2.166,1.042-.5596.6943-.8389,1.6025-.8389,2.7266v.1826Z"/>
    <path class="cls-4" d="m434.4632,23.9065l2.7314-7.6113h1.0205l-3.3535,8.9814h-.8047l-3.3701-8.9814h1.0205l2.7559,7.6113Z"/>
    <path class="cls-4" d="m442.6907,23.8489l2.623-7.5537h1.0703l-3.835,10.5088-.1992.4648c-.4922,1.0898-1.2529,1.6348-2.2822,1.6348-.2383,0-.4932-.0381-.7637-.1162l-.0088-.8213.5146.0498c.4873,0,.8809-.1201,1.1826-.3613.3018-.2402.5576-.6543.7686-1.2412l.4395-1.2119-3.3867-8.9062h1.0879l2.7891,7.5537Zm1.1113-11.3223h1.2041l-1.917,2.3242-.8721-.0039,1.585-2.3203Z"/>
    <path class="cls-4" d="m459.2747,20.8772c0,1.3994-.3096,2.5107-.9297,3.333-.6201.8213-1.4502,1.2324-2.4902,1.2324-1.2285,0-2.1689-.4316-2.8223-1.2949v4.582h-.9873v-12.4346h.9209l.0498,1.2695c.6475-.957,1.5859-1.4355,2.8145-1.4355,1.0732,0,1.916.4062,2.5273,1.2197s.917,1.9424.917,3.3867v.1416Zm-.9961-.1748c0-1.1455-.2354-2.0498-.7061-2.7139-.4697-.6641-1.126-.9961-1.9668-.9961-.6084,0-1.1318.1465-1.5684.4395-.4375.2939-.7725.7197-1.0049,1.2783v4.3086c.2383.5146.5781.9072,1.0205,1.1787.4434.2705.9658.4062,1.5693.4062.8359,0,1.4873-.333,1.9551-1s.7012-1.6338.7012-2.9014Z"/>
    <path class="cls-4" d="m462.5872,25.2766h-.9961v-12.75h.9961v12.75Z"/>
    <path class="cls-4" d="m468.1331,23.8489l2.623-7.5537h1.0703l-3.835,10.5088-.1992.4648c-.4922,1.0898-1.2529,1.6348-2.2822,1.6348-.2383,0-.4932-.0381-.7637-.1162l-.0088-.8213.5146.0498c.4873,0,.8809-.1201,1.1826-.3613.3018-.2402.5576-.6543.7686-1.2412l.4395-1.2119-3.3867-8.9062h1.0879l2.7891,7.5537Z"/>
    <path class="cls-4" d="m474.3079,16.2952l.0332,1.5352c.3379-.5527.7578-.9746,1.2617-1.2656.5039-.29,1.0596-.4355,1.6689-.4355.9629,0,1.6787.2705,2.1494.8135.4707.542.708,1.3555.7139,2.4404v5.8936h-.9883v-5.9023c-.0049-.8018-.1748-1.3994-.5098-1.793-.335-.3926-.8701-.5889-1.6064-.5889-.6143,0-1.1582.1924-1.6309.5771-.4736.3838-.8232.9033-1.0498,1.5557v6.1514h-.9883v-8.9814h.9463Z"/>
  </g>
  <path class="cls-3" d="m173.7904,53.4583h3.5254v2.5488h-3.5254v3.9844h-2.6855v-3.9844h-3.5352v-2.5488h3.5352v-3.8184h2.6855v3.8184Z"/>
  <path class="cls-3" d="m304.5306,53.4583h3.5254v2.5488h-3.5254v3.9844h-2.6855v-3.9844h-3.5352v-2.5488h3.5352v-3.8184h2.6855v3.8184Z"/>
  <g>
    <path class="cls-1" d="m105.8325,69.1812c-4.7562,2.4147-8.9238,7.2516-6.9802,15.0184"/>
    <polygon class="cls-4" points="95.3824 82.3994 95.8135 81.7848 98.8386 83.9119 100.7392 80.7392 101.3828 81.1255 99.0672 84.989 95.3824 82.3994"/>
  </g>
  <g>
    <path class="cls-1" d="m274.1573,68.9735c-.3499,5.3239,2.1648,10.8241,8.6307,15.7024"/>
    <polygon class="cls-4" points="278.9555 85.5215 278.8946 84.7733 282.5808 84.4777 282.0165 80.8224 282.7585 80.7086 283.4448 85.1604 278.9555 85.5215"/>
  </g>
  <g>
    <path class="cls-1" d="m349.8339,37.4966c1.4244-5.1418,5.6115-9.5059,13.3239-11.9805"/>
    <polygon class="cls-4" points="361.8226 29.2527 361.1596 28.9007 362.8973 25.6364 359.5142 24.1416 359.8183 23.4553 363.9381 25.2766 361.8226 29.2527"/>
  </g>
  <g>
    <path class="cls-4" d="m107.2611,24.1389c-.5977.8691-1.5527,1.3037-2.8633,1.3037-.958,0-1.6855-.2783-2.1836-.834-.498-.5566-.7529-1.3799-.7637-2.4697v-5.8438h.9883v5.7188c0,1.71.6914,2.5654,2.0742,2.5654,1.4395,0,2.3496-.5947,2.7314-1.7852v-6.499h.9961v8.9814h-.9629l-.0166-1.1377Z"/>
    <path class="cls-4" d="m111.8099,17.8137c.3262-.5361.7441-.9512,1.2529-1.2451.5088-.293,1.0654-.4395,1.6689-.4395.9629,0,1.6787.2705,2.1494.8135.4707.542.708,1.3555.7139,2.4404v5.8936h-.9883v-5.9023c-.0049-.8018-.1748-1.3994-.5098-1.793-.335-.3926-.8701-.5889-1.6064-.5889-.6143,0-1.1582.1924-1.6309.5771-.4736.3838-.8232.9033-1.0498,1.5557v6.1514h-.9883v-12.75h.9883v5.2871Z"/>
    <path class="cls-4" d="m121.264,25.2766h-.9961v-12.75h.9961v12.75Z"/>
    <path class="cls-4" d="m125.5726,12.6262h1.2041l-1.918,2.3242-.8711-.0039,1.585-2.3203Zm-.5146,12.6504h-.9961v-8.9814h.9961v8.9814Z"/>
    <path class="cls-4" d="m129.8802,20.7522l-1.1367,1.0957v3.4287h-.9961v-12.75h.9961v8.1592l.9375-1.0127,3.4375-3.3779h1.2529l-3.8096,3.7852,4.1416,5.1963h-1.1865l-3.6367-4.5244Z"/>
    <path class="cls-4" d="m140.0736,20.3958c0-1.207.1553-2.3779.4648-3.5156.3096-1.1367.7637-2.1777,1.3613-3.1211s1.2393-1.6201,1.9258-2.0293l.2402.6719c-.3652.2607-.7275.6396-1.0869,1.1377s-.6807,1.0898-.9629,1.7764c-.2822.6855-.5107,1.457-.6846,2.3115-.1748.8555-.2617,1.8252-.2617,2.9092,0,1.1572.1318,2.2695.3945,3.3369.2627,1.0684.624,2.0107,1.083,2.8271.459.8154.9658,1.4287,1.5186,1.8379l-.2402.6396c-.7031-.4209-1.3535-1.0996-1.9512-2.0381-.5977-.9375-1.0469-1.9697-1.3486-3.0957-.3018-1.127-.4521-2.3428-.4521-3.6484Z"/>
    <path class="cls-4" d="m147.7601,20.7522l-1.1367,1.0957v3.4287h-.9961v-12.75h.9961v8.1592l.9375-1.0127,3.4375-3.3779h1.2529l-3.8096,3.7852,4.1416,5.1963h-1.1865l-3.6367-4.5244Z"/>
    <path class="cls-4" d="m153.4046,20.6526c0-.8633.167-1.6406.502-2.332.335-.6924.8086-1.2305,1.4199-1.6143.6113-.3848,1.3047-.5771,2.0791-.5771,1.1953,0,2.1641.4189,2.9053,1.2578.7412.8379,1.1123,1.9492,1.1123,3.332v.208c0,.8682-.167,1.6504-.502,2.3447s-.8066,1.2295-1.416,1.6064c-.6084.376-1.3027.5645-2.083.5645-1.1895,0-2.1572-.4189-2.9014-1.2578-.7441-.8379-1.1162-1.9492-1.1162-3.333v-.1992Zm.9961.2744c0,1.0732.2783,1.9551.834,2.6436.5566.6895,1.2852,1.0332,2.1875,1.0332.8965,0,1.623-.3438,2.1787-1.0332.5566-.6885.834-1.5977.834-2.7266v-.1914c0-.6855-.127-1.3145-.3809-1.8838-.2549-.5703-.6123-1.0117-1.0713-1.3242s-.9854-.4688-1.5771-.4688c-.8857,0-1.6074.3467-2.166,1.042-.5596.6943-.8389,1.6025-.8389,2.7266v.1826Z"/>
    <path class="cls-4" d="m165.6068,20.7522l-1.1367,1.0957v3.4287h-.9961v-12.75h.9961v8.1592l.9375-1.0127,3.4375-3.3779h1.2529l-3.8096,3.7852,4.1416,5.1963h-1.1865l-3.6367-4.5244Z"/>
    <path class="cls-4" d="m177.179,22.9934c0-.4922-.1982-.8877-.5938-1.1865s-.9922-.5332-1.7891-.7012c-.7969-.1689-1.415-.3633-1.8545-.5811-.4404-.2188-.7666-.4863-.9795-.8018s-.3203-.6973-.3203-1.1455c0-.708.2969-1.293.8887-1.7549.5918-.4629,1.3506-.6934,2.2744-.6934,1.002,0,1.8057.2471,2.4111.7432.6064.4951.9092,1.1406.9092,1.9375h-.9961c0-.5254-.2197-.9629-.6602-1.3115-.4395-.3486-.9941-.5225-1.6641-.5225-.6533,0-1.1777.1455-1.5732.4355-.3955.291-.5938.668-.5938,1.1328,0,.4482.165.7959.4941,1.042s.9297.4717,1.8018.6768c.8711.2041,1.5244.4229,1.959.6553s.7568.5117.9668.8389c.21.3262.3154.7217.3154,1.1865,0,.7588-.3057,1.3643-.917,1.8184-.6113.4531-1.4102.6807-2.3955.6807-1.0449,0-1.8936-.2529-2.5439-.7598-.6504-.5059-.9756-1.1465-.9756-1.9219h.9961c.0391.5811.2842,1.0342.7354,1.3574.4512.3242,1.0469.4854,1.7881.4854.6924,0,1.251-.1523,1.6777-.4561.4258-.3047.6387-.6895.6387-1.1543Z"/>
    <path class="cls-4" d="m183.3792,20.5198c0,1.2178-.1504,2.3896-.4521,3.5156s-.749,2.1572-1.3408,3.0918c-.5918.9355-1.2451,1.6191-1.959,2.0508l-.2412-.6396c.543-.3867,1.0449-.9873,1.5068-1.8008s.8262-1.7617,1.0918-2.8428c.2656-1.082.3984-2.2568.3984-3.5244,0-1.1455-.1328-2.251-.3984-3.3154-.2656-1.0654-.6318-2.0176-1.0996-2.8555-.4678-.8389-.9678-1.4492-1.499-1.8311l.2412-.6387c.6973.4258,1.3418,1.1064,1.9346,2.042.5918.9346,1.043,1.9727,1.3525,3.1123.3096,1.1406.4648,2.3525.4648,3.6357Z"/>
  </g>
  <g>
    <path class="cls-1" d="m201.3168,39.252c.157-4.1798-1.9144-8.4341-7.0337-12.1249"/>
    <polygon class="cls-4" points="198.0965 26.2226 198.1699 26.9696 194.4892 27.3271 195.1147 30.9722 194.3747 31.0984 193.614 26.6588 198.0965 26.2226"/>
  </g>
  <path class="cls-2" d="m237.2786,60.5774l-1.3822-1.3705,3.6293-3.6281h-8.5027v-2.0142h8.5027l-3.6293-3.6223,1.3822-1.3763,6.0063,6.0063-6.0063,6.0051Z"/>
</svg>