<?xml version="1.0" encoding="UTF-8"?>
<svg id="Layer_1" data-name="Layer 1" xmlns="http://www.w3.org/2000/svg" viewBox="0 0 1148.3271 263.9995">
  <defs>
    <style>
      .cls-1 {
        fill: #515b66;
      }

      .cls-2 {
        fill: none;
        stroke: #515b66;
        stroke-width: 1.5px;
      }

      .cls-2, .cls-3 {
        stroke-miterlimit: 10;
      }

      .cls-3 {
        stroke: #fff;
        stroke-width: 2px;
      }

      .cls-3, .cls-4 {
        fill: #e15a77;
      }
    </style>
  </defs>
  <g>
    <path class="cls-4" d="M958.2999,68.8196l-12.0957,27.8154h-6.5527l12.1172-26.2754h-15.5547v-5.0059h22.0859v3.4658Z"/>
    <path class="cls-4" d="M964.1437,104.4769l-3.2441-1.6973.7734-1.3965c.959-1.7476,1.4531-3.4878,1.4824-5.2207v-4.8125h5.2422l-.0215,4.2969c-.0146,1.5898-.416,3.1938-1.2031,4.8125-.7881,1.6182-1.7979,2.9575-3.0293,4.0176Z"/>
    <path class="cls-4" d="M994.4581,96.6351h-21.4414v-4.2539l10.1191-10.7852c1.3887-1.5181,2.417-2.8428,3.083-3.9746.666-1.1313.999-2.2056.999-3.2227,0-1.3892-.3516-2.4814-1.0527-3.2764-.7021-.7949-1.7051-1.1924-3.0078-1.1924-1.4043,0-2.5107.4834-3.3193,1.4502-.8096.9668-1.2139,2.2383-1.2139,3.8135h-6.2305c0-1.9048.4541-3.645,1.3643-5.2207.9092-1.5752,2.1943-2.8105,3.8564-3.7061,1.6611-.895,3.5449-1.3428,5.6504-1.3428,3.2227,0,5.7256.7734,7.5088,2.3203s2.6748,3.7314,2.6748,6.5527c0,1.5469-.4014,3.1226-1.2031,4.7266-.8027,1.6045-2.1777,3.4736-4.125,5.6074l-7.1113,7.498h13.4492v5.0059Z"/>
    <path class="cls-4" d="M1033.753,92.5316c-1.0605,1.5186-2.5391,2.6533-4.4365,3.4053-1.8984.752-4.1074,1.1279-6.6279,1.1279-2.5498,0-4.8125-.5977-6.7891-1.7939-1.9766-1.1958-3.5059-2.8965-4.5869-5.1025-1.082-2.2056-1.6367-4.7622-1.665-7.6699v-2.7285c0-4.7119,1.0986-8.3643,3.2979-10.957,2.1982-2.5923,5.2881-3.8887,9.2705-3.8887,3.2656,0,5.8936.8345,7.8848,2.5029,1.9902,1.6689,3.208,4.0356,3.6523,7.1006h-4.125c-.7734-4.1533-3.2373-6.2305-7.3906-6.2305-2.7646,0-4.8594.9717-6.2842,2.9141-1.4258,1.9419-2.1455,4.7554-2.1592,8.4395v2.5586c0,3.5122.8018,6.3042,2.4062,8.375,1.6035,2.0718,3.7734,3.1074,6.5098,3.1074,1.5469,0,2.9004-.1714,4.0605-.5142,1.1602-.3433,2.1191-.9219,2.8789-1.7363v-7.0093h-7.2402v-3.373h11.3438v11.4727Z"/>
    <path class="cls-4" d="M1047.3741,86.7737l.6016,4.125.8809-3.7168,6.1875-21.8281h3.4805l6.0371,21.8281.8594,3.7812.666-4.2109,4.8555-21.3984h4.1465l-7.584,31.2812h-3.7598l-6.4453-22.7949-.4941-2.3848-.4941,2.3848-6.6816,22.7949h-3.7598l-7.5625-31.2812h4.125l4.9414,21.4199Z"/>
    <path class="cls-4" d="M1084.7716,105.4202c-2.2393,0-4.0537-.7051-5.4443-2.1152s-2.0859-3.2876-2.0859-5.6333v-.436c0-1.5698.3027-2.9731.9082-4.2085.6055-1.2358,1.4561-2.1978,2.5518-2.8857,1.0947-.688,2.3154-1.0322,3.6631-1.0322,2.1416,0,3.7969.6831,4.9648,2.0498,1.168,1.3662,1.752,3.2998,1.752,5.8003v1.4248h-10.2783c.1064,1.2988.54,2.3262,1.3008,3.082s1.7178,1.1338,2.8711,1.1338c1.6191,0,2.9365-.6538,3.9541-1.9624l1.9053,1.8174c-.6309.9399-1.4707,1.6694-2.5225,2.188-1.0518.5181-2.2314.7773-3.54.7773ZM1084.3497,91.9441c-.9688,0-1.752.3394-2.3477,1.0176s-.9766,1.6235-1.1416,2.835h6.7314v-.2617c-.0781-1.1826-.3926-2.0767-.9453-2.6826-.5518-.6055-1.3184-.9082-2.2969-.9082Z"/>
  </g>
  <g>
    <path class="cls-1" d="M673.171,123.6756h-6.2939v5.147h7.3115v1.5659h-9.2266v-14.5229h9.127v1.5659h-7.2119v4.6782h6.2939v1.5659Z"/>
    <path class="cls-1" d="M678.2882,130.3885h-1.8457v-15.3208h1.8457v15.3208Z"/>
    <path class="cls-1" d="M685.7189,130.5882c-1.4629,0-2.6533-.4805-3.5713-1.4414-.917-.9609-1.376-2.2461-1.376-3.8555v-.3389c0-1.0708.2041-2.0264.6133-2.8677s.9805-1.4995,1.7158-1.9751c.7344-.4751,1.5312-.7129,2.3887-.7129,1.4033,0,2.4932.4619,3.2715,1.3862s1.167,2.2476,1.167,3.9697v.7681h-7.3115c.0273,1.064.3379,1.9238.9326,2.5786.5957.6548,1.3516.9824,2.2695.9824.6514,0,1.2031-.1328,1.6562-.3989.4521-.2661.8477-.6187,1.1865-1.0571l1.127.8774c-.9043,1.3901-2.2607,2.085-4.0693,2.085ZM685.4894,120.9129c-.7451,0-1.3701.271-1.875.813-.5059.542-.8184,1.3013-.9375,2.2788h5.4062v-.1396c-.0537-.9375-.3066-1.6641-.7588-2.1792s-1.0635-.7729-1.835-.7729Z"/>
    <path class="cls-1" d="M695.0753,125.3914l-1.1572,1.2065v3.7905h-1.8457v-15.3208h1.8457v9.2661l.9873-1.187,3.3613-3.5508h2.2441l-4.1992,4.5088,4.6885,6.2837h-2.165l-3.7598-4.9971Z"/>
    <path class="cls-1" d="M704.92,116.9827v2.6133h2.0146v1.4263h-2.0146v6.7017c0,.4326.0898.7573.2686.9736.1797.2163.4854.3242.918.3242.2129,0,.5049-.0396.8779-.1196v1.4878c-.4854.1318-.958.1982-1.416.1982-.8252,0-1.4463-.2495-1.8652-.7485-.4189-.4985-.6289-1.2065-.6289-2.1245v-6.6929h-1.9648v-1.4263h1.9648v-2.6133h1.8457Z"/>
    <path class="cls-1" d="M714.3058,121.2518c-.2793-.0464-.582-.0698-.9082-.0698-1.21,0-2.0312.5156-2.4639,1.5464v7.6602h-1.8447v-10.7925h1.7949l.0303,1.2471c.6055-.9644,1.4629-1.4463,2.5732-1.4463.3594,0,.6318.0464.8184.1396v1.7153Z"/>
    <path class="cls-1" d="M722.6642,130.3885c-.1064-.2129-.1934-.5918-.2598-1.1372-.8574.8911-1.8818,1.3369-3.0723,1.3369-1.0635,0-1.9365-.3008-2.6182-.9028s-1.0225-1.3647-1.0225-2.2891c0-1.124.4277-1.9966,1.2822-2.6187.8545-.6216,2.0557-.9326,3.6055-.9326h1.7959v-.8477c0-.645-.1934-1.1587-.5791-1.541s-.9541-.5737-1.7051-.5737c-.6582,0-1.2109.1665-1.6562.499s-.668.7349-.668,1.207h-1.8555c0-.5391.1914-1.0591.5732-1.561.3828-.502.9014-.8994,1.5566-1.1919.6543-.293,1.374-.439,2.1592-.439,1.2432,0,2.2178.3105,2.9229.9326.7041.6216,1.0703,1.4775,1.0967,2.5684v4.9673c0,.9907.126,1.7788.3789,2.3638v.1597h-1.9346ZM719.6017,128.9822c.5791,0,1.127-.1499,1.6455-.4492.5195-.2988.8945-.688,1.1279-1.167v-2.2144h-1.4463c-2.2617,0-3.3916.6621-3.3916,1.9854,0,.5781.1924,1.0308.5781,1.3564s.8809.4888,1.4863.4888ZM721.3077,115.0677h2.2344l-2.6738,2.9326-1.4863-.0049,1.9258-2.9277Z"/>
    <path class="cls-1" d="M732.3302,121.2518c-.2793-.0464-.582-.0698-.9082-.0698-1.21,0-2.0312.5156-2.4639,1.5464v7.6602h-1.8447v-10.7925h1.7949l.0303,1.2471c.6055-.9644,1.4629-1.4463,2.5732-1.4463.3594,0,.6318.0464.8184.1396v1.7153Z"/>
    <path class="cls-1" d="M735.7706,119.596l.0605,1.3564c.8242-1.0371,1.9014-1.5557,3.2314-1.5557,2.2803,0,3.4307,1.2866,3.4512,3.8599v7.1318h-1.8457v-7.1416c-.0068-.7783-.1846-1.353-.5332-1.7256-.3496-.3726-.8926-.5586-1.6309-.5586-.5986,0-1.124.1597-1.5762.4785-.4521.3193-.8047.7383-1.0576,1.2568v7.6904h-1.8447v-10.7925h1.7451Z"/>
    <path class="cls-1" d="M748.8273,127.6854l2.5137-8.0894h1.9746l-4.3389,12.458c-.6719,1.7954-1.7393,2.6934-3.2021,2.6934l-.3486-.0298-.6885-.1299v-1.4961l.499.04c.625,0,1.1113-.1265,1.4609-.3794.3486-.2524.6367-.7148.8623-1.3862l.4092-1.0972-3.8496-10.6729h2.0146l2.6934,8.0894Z"/>
    <path class="cls-1" d="M764.587,123.9149c-1.6426-.4717-2.8379-1.0522-3.5859-1.7402-.748-.6885-1.1221-1.5376-1.1221-2.5483,0-1.144.457-2.0898,1.3711-2.8379.915-.748,2.1035-1.1221,3.5664-1.1221.9971,0,1.8867.1929,2.668.5786s1.3867.9175,1.8154,1.5957.6436,1.4199.6436,2.2241h-1.9258c0-.8809-.2793-1.5728-.8379-2.0767-.5576-.5039-1.3457-.7559-2.3633-.7559-.9443,0-1.6807.208-2.21.6245-.5283.4165-.793.9941-.793,1.7334,0,.5933.251,1.0947.7539,1.5044.502.4097,1.3564.7842,2.5635,1.124,1.2061.3398,2.1504.7139,2.832,1.123.6816.4087,1.1875.8862,1.5166,1.4312.3291.5454.4932,1.187.4932,1.9253,0,1.1768-.458,2.1196-1.376,2.8276s-2.1445,1.0625-3.6807,1.0625c-.9971,0-1.9287-.1914-2.793-.5737s-1.5312-.9058-2-1.5708-.7031-1.4199-.7031-2.2642h1.9248c0,.8774.3242,1.5708.9727,2.0796s1.5146.7627,2.5986.7627c1.0107,0,1.7852-.2061,2.3242-.6182.5381-.4121.8076-.9741.8076-1.6855s-.249-1.2617-.748-1.6509-1.4033-.7729-2.7129-1.1523Z"/>
    <path class="cls-1" d="M776.6163,130.5882c-1.4629,0-2.6533-.4805-3.5713-1.4414-.917-.9609-1.376-2.2461-1.376-3.8555v-.3389c0-1.0708.2041-2.0264.6133-2.8677s.9805-1.4995,1.7158-1.9751c.7344-.4751,1.5312-.7129,2.3887-.7129,1.4033,0,2.4932.4619,3.2715,1.3862s1.167,2.2476,1.167,3.9697v.7681h-7.3115c.0273,1.064.3379,1.9238.9326,2.5786.5957.6548,1.3516.9824,2.2695.9824.6514,0,1.2031-.1328,1.6562-.3989.4521-.2661.8477-.6187,1.1865-1.0571l1.127.8774c-.9043,1.3901-2.2607,2.085-4.0693,2.085ZM776.3868,120.9129c-.7451,0-1.3701.271-1.875.813-.5059.542-.8184,1.3013-.9375,2.2788h5.4062v-.1396c-.0537-.9375-.3066-1.6641-.7588-2.1792s-1.0635-.7729-1.835-.7729Z"/>
    <path class="cls-1" d="M786.3907,127.8851l2.6738-8.2891h1.8848l-3.8701,10.7925h-1.4062l-3.9102-10.7925h1.8848l2.7432,8.2891Z"/>
    <path class="cls-1" d="M791.6974,129.4212c0-.3193.0947-.5854.2842-.7983.1895-.2124.4736-.3188.8525-.3188s.667.1064.8633.3188c.1953.2129.2939.479.2939.7983,0,.3057-.0986.5615-.2939.7676-.1963.2061-.4844.3096-.8633.3096s-.6631-.1035-.8525-.3096-.2842-.4619-.2842-.7676Z"/>
    <path class="cls-1" d="M801.5128,130.5882c-1.4629,0-2.6533-.4805-3.5713-1.4414-.917-.9609-1.376-2.2461-1.376-3.8555v-.3389c0-1.0708.2041-2.0264.6133-2.8677s.9805-1.4995,1.7158-1.9751c.7344-.4751,1.5312-.7129,2.3887-.7129,1.4033,0,2.4932.4619,3.2715,1.3862s1.167,2.2476,1.167,3.9697v.7681h-7.3115c.0273,1.064.3379,1.9238.9326,2.5786.5957.6548,1.3516.9824,2.2695.9824.6514,0,1.2031-.1328,1.6562-.3989.4521-.2661.8477-.6187,1.1865-1.0571l1.127.8774c-.9043,1.3901-2.2607,2.085-4.0693,2.085ZM801.2833,120.9129c-.7451,0-1.3701.271-1.875.813-.5059.542-.8184,1.3013-.9375,2.2788h5.4062v-.1396c-.0537-.9375-.3066-1.6641-.7588-2.1792s-1.0635-.7729-1.835-.7729Z"/>
    <path class="cls-1" d="M809.6017,119.596l.0605,1.3564c.8242-1.0371,1.9014-1.5557,3.2314-1.5557,2.2803,0,3.4307,1.2866,3.4512,3.8599v7.1318h-1.8457v-7.1416c-.0068-.7783-.1846-1.353-.5332-1.7256-.3496-.3726-.8926-.5586-1.6309-.5586-.5986,0-1.124.1597-1.5762.4785-.4521.3193-.8047.7383-1.0576,1.2568v7.6904h-1.8447v-10.7925h1.7451Z"/>
    <path class="cls-1" d="M833.5109,130.3885h-9.5156v-1.3267l5.0273-5.5854c.7441-.8447,1.2578-1.5312,1.541-2.0601.2822-.5283.4238-1.0752.4238-1.6406,0-.7583-.2295-1.3799-.6885-1.8652s-1.0703-.728-1.835-.728c-.918,0-1.6309.2607-2.1396.7827-.5088.5225-.7637,1.2485-.7637,2.1797h-1.8447c0-1.3369.4307-2.417,1.292-3.2417.8604-.8247,2.0127-1.2368,3.4561-1.2368,1.3496,0,2.417.354,3.2012,1.062.7852.7085,1.1777,1.6509,1.1777,2.8281,0,1.4297-.9111,3.1318-2.7334,5.1069l-3.8896,4.2188h7.291v1.5063Z"/>
    <path class="cls-1" d="M835.5958,133.2811l-1.0479-.7183c.625-.8711.9512-1.7686.9775-2.6929v-1.666h1.8057v1.4463c0,.6719-.165,1.3433-.4941,2.0151-.3291.6714-.7432,1.21-1.2412,1.6157Z"/>
    <path class="cls-1" d="M848.9913,130.3885h-9.5156v-1.3267l5.0273-5.5854c.7441-.8447,1.2578-1.5312,1.541-2.0601.2822-.5283.4238-1.0752.4238-1.6406,0-.7583-.2295-1.3799-.6885-1.8652s-1.0703-.728-1.835-.728c-.918,0-1.6309.2607-2.1396.7827-.5088.5225-.7637,1.2485-.7637,2.1797h-1.8447c0-1.3369.4307-2.417,1.292-3.2417.8604-.8247,2.0127-1.2368,3.4561-1.2368,1.3496,0,2.417.354,3.2012,1.062.7852.7085,1.1777,1.6509,1.1777,2.8281,0,1.4297-.9111,3.1318-2.7334,5.1069l-3.8896,4.2188h7.291v1.5063Z"/>
    <path class="cls-1" d="M867.2042,128.4832c-.4922.7051-1.1787,1.2319-2.0596,1.5811s-1.9072.5239-3.0771.5239c-1.1836,0-2.2344-.2778-3.1523-.833-.917-.5552-1.627-1.3447-2.1289-2.3691-.5029-1.0239-.7598-2.2109-.7734-3.5605v-1.2671c0-2.1875.5107-3.8833,1.5312-5.0869s2.4551-1.8052,4.3037-1.8052c1.5166,0,2.7363.3872,3.6611,1.1621.9238.7744,1.4893,1.8735,1.6953,3.2964h-1.915c-.3594-1.9282-1.5029-2.8926-3.4316-2.8926-1.2832,0-2.2559.4512-2.917,1.3525-.6621.9019-.9961,2.208-1.0029,3.9185v1.188c0,1.6304.373,2.9268,1.1172,3.8882.7451.9619,1.752,1.4424,3.0225,1.4424.7188,0,1.3467-.0791,1.8857-.2388.5381-.1592.9834-.4277,1.3359-.8057v-3.2544h-3.3613v-1.5659h5.2666v5.3262Z"/>
    <path class="cls-1" d="M873.5275,125.8104l.2793,1.915.4092-1.7256,2.873-10.1343h1.6152l2.8027,10.1343.3994,1.7554.3096-1.9551,2.2539-9.9346h1.9248l-3.5205,14.5229h-1.7461l-2.9922-10.583-.2295-1.1069-.2295,1.1069-3.1016,10.583h-1.7461l-3.5107-14.5229h1.915l2.2939,9.9448Z"/>
    <path class="cls-1" d="M890.2589,135.1775c-.8525,0-1.5469-.2798-2.0811-.8403-.5352-.5601-.8027-1.3091-.8027-2.2476v-.1978c0-.624.1191-1.1812.3574-1.6719.2383-.4902.5723-.874,1-1.1514.4287-.2769.8926-.4155,1.3926-.4155.8184,0,1.4541.2695,1.9072.8081.4541.5391.6807,1.3105.6807,2.3145v.4478h-4.2627c.0156.6206.1973,1.1216.5439,1.5034s.7881.5728,1.3232.5728c.3799,0,.7012-.0776.9648-.2324.2637-.1553.4941-.3608.6924-.6167l.6572.5117c-.5273.8105-1.3184,1.2153-2.373,1.2153ZM890.1251,129.5369c-.4336,0-.7979.1582-1.0928.4741s-.4766.7588-.5469,1.3286h3.1523v-.0815c-.0312-.5464-.1787-.9702-.4424-1.2705s-.6201-.4507-1.0703-.4507Z"/>
  </g>
  <rect class="cls-3" x="16.922" y="60.6407" width="22.8633" height="42.3253"/>
  <rect class="cls-3" x="39.7853" y="60.6407" width="22.8633" height="42.3253"/>
  <rect class="cls-3" x="62.6486" y="60.6407" width="22.8633" height="42.3253"/>
  <rect class="cls-3" x="85.5119" y="60.6407" width="22.8633" height="42.3253"/>
  <rect class="cls-3" x="108.3752" y="60.6407" width="22.8633" height="42.3253"/>
  <rect class="cls-3" x="141.457" y="60.6407" width="22.8633" height="42.3253"/>
  <rect class="cls-3" x="164.3203" y="60.6407" width="22.8633" height="42.3253"/>
  <rect class="cls-3" x="187.1836" y="60.6407" width="22.8633" height="42.3253"/>
  <rect class="cls-3" x="210.0469" y="60.6407" width="22.8633" height="42.3253"/>
  <rect class="cls-3" x="232.9102" y="60.6407" width="22.8633" height="42.3253"/>
  <rect class="cls-3" x="265.9921" y="60.6407" width="22.8633" height="42.3253"/>
  <rect class="cls-3" x="288.8554" y="60.6407" width="22.8633" height="42.3253"/>
  <rect class="cls-3" x="311.7187" y="60.6407" width="22.8633" height="42.3253"/>
  <rect class="cls-3" x="334.582" y="60.6407" width="22.8633" height="42.3253"/>
  <rect class="cls-3" x="357.4453" y="60.6407" width="22.8633" height="42.3253"/>
  <rect class="cls-3" x="390.5272" y="60.6407" width="22.8633" height="42.3253"/>
  <rect class="cls-3" x="413.3905" y="60.6407" width="22.8633" height="42.3253"/>
  <rect class="cls-3" x="436.2538" y="60.6407" width="22.8633" height="42.3253"/>
  <rect class="cls-3" x="459.1171" y="60.6407" width="22.8633" height="42.3253"/>
  <rect class="cls-3" x="481.9804" y="60.6407" width="22.8633" height="42.3253"/>
  <rect class="cls-3" x="515.0623" y="60.6407" width="22.8633" height="42.3253"/>
  <rect class="cls-3" x="537.9256" y="60.6407" width="22.8633" height="42.3253"/>
  <rect class="cls-3" x="560.7889" y="60.6407" width="22.8633" height="42.3253"/>
  <rect class="cls-3" x="583.6522" y="60.6407" width="22.8633" height="42.3253"/>
  <rect class="cls-3" x="606.5155" y="60.6407" width="22.8633" height="42.3253"/>
  <rect class="cls-3" x="639.5973" y="60.6407" width="22.8633" height="42.3253"/>
  <rect class="cls-3" x="662.4606" y="60.6407" width="22.8633" height="42.3253"/>
  <rect class="cls-3" x="685.3239" y="60.6407" width="22.8633" height="42.3253"/>
  <rect class="cls-3" x="708.1872" y="60.6407" width="22.8633" height="42.3253"/>
  <rect class="cls-3" x="731.0505" y="60.6407" width="22.8633" height="42.3253"/>
  <rect class="cls-3" x="764.1324" y="60.6407" width="22.8633" height="42.3253"/>
  <rect class="cls-3" x="786.9957" y="60.6407" width="22.8633" height="42.3253"/>
  <rect class="cls-3" x="809.859" y="60.6407" width="22.8633" height="42.3253"/>
  <rect class="cls-3" x="832.7223" y="60.6407" width="22.8633" height="42.3253"/>
  <rect class="cls-3" x="855.5856" y="60.6407" width="22.8633" height="42.3253"/>
  <rect class="cls-3" x="888.6675" y="60.6407" width="22.8633" height="42.3253"/>
  <g>
    <path class="cls-4" d="M672.0753,209.5823h3.626v5.1196h-3.626v6.9214h-6.3506v-6.9214h-13.1172l-.2852-3.999,13.3369-21.0718h6.416v19.9512ZM658.6505,209.5823h7.0742v-11.2939l-.417.7251-6.6572,10.5688Z"/>
    <path class="cls-4" d="M681.0177,229.6434l-3.3174-1.7358.791-1.4282c.9805-1.7871,1.4863-3.5669,1.5156-5.3394v-4.9219h5.3613l-.0215,4.3945c-.0156,1.626-.4258,3.2666-1.2305,4.9219-.8066,1.6553-1.8389,3.0249-3.0986,4.1089Z"/>
    <path class="cls-4" d="M704.9464,208.8353c-1.6562,1.626-3.5898,2.439-5.8008,2.439-2.8281,0-5.0908-.9702-6.79-2.9116-1.6992-1.9404-2.5488-4.5591-2.5488-7.855,0-2.0947.458-4.0171,1.373-5.7681.916-1.75,2.1934-3.1123,3.835-4.0869,1.6396-.9736,3.4854-1.4609,5.5371-1.4609,2.1094,0,3.9834.5273,5.625,1.582,1.6396,1.0547,2.9141,2.5708,3.8223,4.5483s1.3701,4.2407,1.3848,6.7896v2.3511c0,5.332-1.3262,9.5215-3.9766,12.5684-2.6523,3.0469-6.4092,4.6729-11.2725,4.8779l-1.5596.022v-5.2954l1.4062-.022c5.5215-.249,8.5098-2.8418,8.9648-7.7783ZM700.7052,206.4183c1.0254,0,1.9082-.2637,2.6475-.791.7402-.5273,1.2998-1.1646,1.6816-1.9116v-2.6147c0-2.1533-.4111-3.8232-1.2305-5.0098-.8213-1.1865-1.9199-1.7798-3.2969-1.7798-1.2734,0-2.3213.5825-3.1416,1.7466-.8203,1.165-1.2305,2.626-1.2305,4.3838,0,1.7432.3994,3.1748,1.1973,4.2959.7988,1.1201,1.9229,1.6807,3.373,1.6807Z"/>
    <path class="cls-4" d="M752.2755,217.4266c-1.084,1.5527-2.5967,2.7134-4.5371,3.4829-1.9414.7686-4.2012,1.1533-6.7793,1.1533-2.6074,0-4.9219-.6113-6.9434-1.835-2.0215-1.2227-3.585-2.9624-4.6904-5.2183-1.1064-2.2559-1.6738-4.8706-1.7031-7.8442v-2.7905c0-4.8193,1.124-8.5547,3.373-11.2061,2.248-2.6514,5.4082-3.9771,9.4814-3.9771,3.3398,0,6.0273.8535,8.0635,2.5596,2.0361,1.707,3.2812,4.1274,3.7354,7.2622h-4.2188c-.791-4.248-3.3105-6.3721-7.5586-6.3721-2.8271,0-4.9697.9937-6.4268,2.98-1.458,1.9863-2.1943,4.8638-2.208,8.6313v2.6172c0,3.5918.8193,6.4473,2.4609,8.5654,1.6396,2.1187,3.8594,3.1777,6.6572,3.1777,1.582,0,2.9658-.1753,4.1533-.5259,1.1855-.3511,2.167-.9429,2.9434-1.7759v-7.1685h-7.4043v-3.4497h11.6016v11.7334Z"/>
    <path class="cls-4" d="M766.2062,211.5379l.6152,4.2188.9004-3.8013,6.3281-22.3242h3.5596l6.1748,22.3242.8789,3.8672.6807-4.3066,4.9658-21.8848h4.2402l-7.7559,31.9922h-3.8457l-6.5918-23.313-.5049-2.439-.5049,2.439-6.834,23.313h-3.8457l-7.7344-31.9922h4.2188l5.0547,21.9067Z"/>
    <path class="cls-4" d="M804.255,230.4085c-2.2393,0-4.0537-.7051-5.4443-2.1152s-2.0859-3.2876-2.0859-5.6333v-.436c0-1.5698.3027-2.9731.9082-4.2085.6055-1.2358,1.4561-2.1978,2.5518-2.8857,1.0947-.688,2.3154-1.0322,3.6631-1.0322,2.1416,0,3.7969.6831,4.9648,2.0498,1.168,1.3662,1.752,3.2998,1.752,5.8003v1.4248h-10.2783c.1064,1.2988.54,2.3262,1.3008,3.082s1.7178,1.1338,2.8711,1.1338c1.6191,0,2.9365-.6538,3.9541-1.9624l1.9053,1.8174c-.6309.9399-1.4707,1.6694-2.5225,2.188-1.0518.5181-2.2314.7773-3.54.7773ZM803.8331,216.9324c-.9688,0-1.752.3394-2.3477,1.0176s-.9766,1.6235-1.1416,2.835h6.7314v-.2617c-.0781-1.1826-.3926-2.0767-.9453-2.6826-.5518-.6055-1.3184-.9082-2.2969-.9082Z"/>
  </g>
  <rect class="cls-3" x="16.922" y="182.9855" width="22.8633" height="42.3253"/>
  <rect class="cls-3" x="39.7853" y="182.9855" width="22.8633" height="42.3253"/>
  <rect class="cls-3" x="62.6486" y="182.9855" width="22.8633" height="42.3253"/>
  <rect class="cls-3" x="85.5119" y="182.9855" width="22.8633" height="42.3253"/>
  <rect class="cls-3" x="108.3752" y="182.9855" width="22.8633" height="42.3253"/>
  <rect class="cls-3" x="141.457" y="182.9855" width="22.8633" height="42.3253"/>
  <rect class="cls-3" x="164.3203" y="182.9855" width="22.8633" height="42.3253"/>
  <rect class="cls-3" x="187.1836" y="182.9855" width="22.8633" height="42.3253"/>
  <rect class="cls-3" x="210.0469" y="182.9855" width="22.8633" height="42.3253"/>
  <rect class="cls-3" x="232.9102" y="182.9855" width="22.8633" height="42.3253"/>
  <rect class="cls-3" x="265.9921" y="182.9855" width="22.8633" height="42.3253"/>
  <rect class="cls-3" x="288.8554" y="182.9855" width="22.8633" height="42.3253"/>
  <rect class="cls-3" x="311.7187" y="182.9855" width="22.8633" height="42.3253"/>
  <rect class="cls-3" x="334.582" y="182.9855" width="22.8633" height="42.3253"/>
  <rect class="cls-3" x="357.4453" y="182.9855" width="22.8633" height="42.3253"/>
  <rect class="cls-3" x="390.5272" y="182.9855" width="22.8633" height="42.3253"/>
  <rect class="cls-3" x="413.3905" y="182.9855" width="22.8633" height="42.3253"/>
  <rect class="cls-3" x="436.2538" y="182.9855" width="22.8633" height="42.3253"/>
  <rect class="cls-3" x="459.1171" y="182.9855" width="22.8633" height="42.3253"/>
  <rect class="cls-3" x="481.9804" y="182.9855" width="22.8633" height="42.3253"/>
  <rect class="cls-3" x="515.0623" y="182.9855" width="22.8633" height="42.3253"/>
  <rect class="cls-3" x="537.9256" y="182.9855" width="22.8633" height="42.3253"/>
  <rect class="cls-3" x="560.7889" y="182.9855" width="22.8633" height="42.3253"/>
  <rect class="cls-3" x="583.6522" y="182.9855" width="22.8633" height="42.3253"/>
  <rect class="cls-3" x="606.5155" y="182.9855" width="22.8633" height="42.3253"/>
  <polyline class="cls-2" points="896.6828 125.5812 910.7966 125.5812 910.7966 118.8521"/>
  <polyline class="cls-2" points="640.332 118.8521 640.332 125.5812 658.2802 125.5812"/>
  <g>
    <path class="cls-1" d="M22.1837,38.0096h-3.5156v-17.0625h3.5156v17.0625Z"/>
    <path class="cls-1" d="M40.0362,38.0096h-3.5156l-6.8438-11.2266v11.2266h-3.5156v-17.0625h3.5156l6.8555,11.25v-11.25h3.5039v17.0625Z"/>
    <path class="cls-1" d="M52.6749,33.533c0-.6641-.2344-1.1738-.7031-1.5293s-1.3125-.7305-2.5312-1.125-2.1836-.7832-2.8945-1.166c-1.9375-1.0469-2.9062-2.457-2.9062-4.2305,0-.9219.2598-1.7441.7793-2.4668s1.2656-1.2871,2.2383-1.6934,2.0645-.6094,3.2754-.6094c1.2188,0,2.3047.2207,3.2578.6621s1.6934,1.0645,2.2207,1.8691.791,1.7188.791,2.7422h-3.5156c0-.7812-.2461-1.3887-.7383-1.8223s-1.1836-.6504-2.0742-.6504c-.8594,0-1.5273.1816-2.0039.5449s-.7148.8418-.7148,1.4355c0,.5547.2793,1.0195.8379,1.3945s1.3809.7266,2.4668,1.0547c2,.6016,3.457,1.3477,4.3711,2.2383s1.3711,2,1.3711,3.3281c0,1.4766-.5586,2.6348-1.6758,3.4746s-2.6211,1.2598-4.5117,1.2598c-1.3125,0-2.5078-.2402-3.5859-.7207s-1.9004-1.1387-2.4668-1.9746-.8496-1.8047-.8496-2.9062h3.5273c0,1.8828,1.125,2.8242,3.375,2.8242.8359,0,1.4883-.1699,1.957-.5098s.7031-.8145.7031-1.4238Z"/>
    <path class="cls-1" d="M72.1446,23.7947h-5.2266v14.2148h-3.5156v-14.2148h-5.1562v-2.8477h13.8984v2.8477Z"/>
    <path class="cls-1" d="M83.0948,34.494h-6.1641l-1.1719,3.5156h-3.7383l6.3516-17.0625h3.2578l6.3867,17.0625h-3.7383l-1.1836-3.5156ZM77.88,31.6463h4.2656l-2.1445-6.3867-2.1211,6.3867Z"/>
    <path class="cls-1" d="M93.8458,35.1854h7.4648v2.8242h-10.9805v-17.0625h3.5156v14.2383Z"/>
    <path class="cls-1" d="M117.3126,29.865c0,1.6797-.2969,3.1523-.8906,4.418s-1.4434,2.2422-2.5488,2.9297-2.373,1.0312-3.8027,1.0312c-1.4141,0-2.6758-.3398-3.7852-1.0195s-1.9688-1.6504-2.5781-2.9121-.918-2.7129-.9258-4.3535v-.8438c0-1.6797.3027-3.1582.9082-4.4355s1.4609-2.2578,2.5664-2.9414,2.3691-1.0254,3.791-1.0254,2.6855.3418,3.791,1.0254,1.9609,1.6641,2.5664,2.9414.9082,2.752.9082,4.4238v.7617ZM113.7501,29.0916c0-1.7891-.3203-3.1484-.9609-4.0781s-1.5547-1.3945-2.7422-1.3945c-1.1797,0-2.0898.459-2.7305,1.377s-.9648,2.2637-.9727,4.0371v.832c0,1.7422.3203,3.0938.9609,4.0547s1.5625,1.4414,2.7656,1.4414c1.1797,0,2.0859-.4629,2.7188-1.3887s.9531-2.2754.9609-4.0488v-.832Z"/>
    <path class="cls-1" d="M126.6339,33.7791l3.8672-12.832h3.9141l-5.9414,17.0625h-3.668l-5.918-17.0625h3.9023l3.8438,12.832Z"/>
    <path class="cls-1" d="M145.4943,34.494h-6.1641l-1.1719,3.5156h-3.7383l6.3516-17.0625h3.2578l6.3867,17.0625h-3.7383l-1.1836-3.5156ZM140.2794,31.6463h4.2656l-2.1445-6.3867-2.1211,6.3867Z"/>
    <path class="cls-1" d="M166.6056,38.0096h-3.5156l-6.8438-11.2266v11.2266h-3.5156v-17.0625h3.5156l6.8555,11.25v-11.25h3.5039v17.0625Z"/>
    <path class="cls-1" d="M176.2784,28.6346l3.5508-7.6875h3.8438l-5.6016,10.875v6.1875h-3.5742v-6.1875l-5.6016-10.875h3.8555l3.5273,7.6875ZM176.9933,16.3768h3.6914l-3.2461,3.6328h-2.7539l2.3086-3.6328Z"/>
    <path class="cls-1" d="M198.9523,33.7791l3.8672-12.832h3.9141l-5.9414,17.0625h-3.668l-5.918-17.0625h3.9023l3.8438,12.832Z"/>
    <path class="cls-1" d="M214.9425,28.6346l3.5508-7.6875h3.8438l-5.6016,10.875v6.1875h-3.5742v-6.1875l-5.6016-10.875h3.8555l3.5273,7.6875ZM215.6573,16.3768h3.6914l-3.2461,3.6328h-2.7539l2.3086-3.6328Z"/>
    <path class="cls-1" d="M229.9591,31.1658l-1.8281,1.9688v4.875h-3.5156v-17.0625h3.5156v7.7344l1.5469-2.1211,4.3477-5.6133h4.3242l-6.0586,7.582,6.2344,9.4805h-4.1836l-4.3828-6.8438Z"/>
    <path class="cls-1" d="M254.2218,29.865c0,1.6797-.2969,3.1523-.8906,4.418s-1.4434,2.2422-2.5488,2.9297-2.373,1.0312-3.8027,1.0312c-1.4141,0-2.6758-.3398-3.7852-1.0195s-1.9688-1.6504-2.5781-2.9121-.918-2.7129-.9258-4.3535v-.8438c0-1.6797.3027-3.1582.9082-4.4355s1.4609-2.2578,2.5664-2.9414,2.3691-1.0254,3.791-1.0254,2.6855.3418,3.791,1.0254,1.9609,1.6641,2.5664,2.9414.9082,2.752.9082,4.4238v.7617ZM250.6593,29.0916c0-1.7891-.3203-3.1484-.9609-4.0781s-1.5547-1.3945-2.7422-1.3945c-1.1797,0-2.0898.459-2.7305,1.377s-.9648,2.2637-.9727,4.0371v.832c0,1.7422.3203,3.0938.9609,4.0547s1.5625,1.4414,2.7656,1.4414c1.1797,0,2.0859-.4629,2.7188-1.3887s.9531-2.2754.9609-4.0488v-.832Z"/>
    <path class="cls-1" d="M271.3712,38.0096h-3.5156l-6.8438-11.2266v11.2266h-3.5156v-17.0625h3.5156l6.8555,11.25v-11.25h3.5039v17.0625Z"/>
    <path class="cls-1" d="M290.7062,33.533c0-.6641-.2344-1.1738-.7031-1.5293s-1.3125-.7305-2.5312-1.125-2.1836-.7832-2.8945-1.166c-1.9375-1.0469-2.9062-2.457-2.9062-4.2305,0-.9219.2598-1.7441.7793-2.4668s1.2656-1.2871,2.2383-1.6934,2.0645-.6094,3.2754-.6094c1.2188,0,2.3047.2207,3.2578.6621s1.6934,1.0645,2.2207,1.8691.791,1.7188.791,2.7422h-3.5156c0-.7812-.2461-1.3887-.7383-1.8223s-1.1836-.6504-2.0742-.6504c-.8594,0-1.5273.1816-2.0039.5449s-.7148.8418-.7148,1.4355c0,.5547.2793,1.0195.8379,1.3945s1.3809.7266,2.4668,1.0547c2,.6016,3.457,1.3477,4.3711,2.2383s1.3711,2,1.3711,3.3281c0,1.4766-.5586,2.6348-1.6758,3.4746s-2.6211,1.2598-4.5117,1.2598c-1.3125,0-2.5078-.2402-3.5859-.7207s-1.9004-1.1387-2.4668-1.9746-.8496-1.8047-.8496-2.9062h3.5273c0,1.8828,1.125,2.8242,3.375,2.8242.8359,0,1.4883-.1699,1.957-.5098s.7031-.8145.7031-1.4238Z"/>
    <path class="cls-1" d="M311.3478,29.865c0,1.6797-.2969,3.1523-.8906,4.418s-1.4434,2.2422-2.5488,2.9297-2.373,1.0312-3.8027,1.0312c-1.4141,0-2.6758-.3398-3.7852-1.0195s-1.9688-1.6504-2.5781-2.9121-.918-2.7129-.9258-4.3535v-.8438c0-1.6797.3027-3.1582.9082-4.4355s1.4609-2.2578,2.5664-2.9414,2.3691-1.0254,3.791-1.0254,2.6855.3418,3.791,1.0254,1.9609,1.6641,2.5664,2.9414.9082,2.752.9082,4.4238v.7617ZM307.7853,29.0916c0-1.7891-.3203-3.1484-.9609-4.0781s-1.5547-1.3945-2.7422-1.3945c-1.1797,0-2.0898.459-2.7305,1.377s-.9648,2.2637-.9727,4.0371v.832c0,1.7422.3203,3.0938.9609,4.0547s1.5625,1.4414,2.7656,1.4414c1.1797,0,2.0859-.4629,2.7188-1.3887s.9531-2.2754.9609-4.0488v-.832Z"/>
    <path class="cls-1" d="M327.5372,20.9471v11.2383c0,1.8672-.584,3.3438-1.752,4.4297s-2.7637,1.6289-4.7871,1.6289c-1.9922,0-3.5742-.5273-4.7461-1.582s-1.7695-2.5039-1.793-4.3477v-11.3672h3.5156v11.2617c0,1.1172.2676,1.9316.8027,2.4434s1.2754.7676,2.2207.7676c1.9766,0,2.9805-1.0391,3.0117-3.1172v-11.3555h3.5273Z"/>
    <path class="cls-1" d="M344.5343,32.326c-.1328,1.8359-.8105,3.2812-2.0332,4.3359s-2.834,1.582-4.834,1.582c-2.1875,0-3.9082-.7363-5.1621-2.209s-1.8809-3.4941-1.8809-6.0645v-1.043c0-1.6406.2891-3.0859.8672-4.3359s1.4043-2.209,2.4785-2.877,2.3223-1.002,3.7441-1.002c1.9688,0,3.5547.5273,4.7578,1.582s1.8984,2.5352,2.0859,4.4414h-3.5156c-.0859-1.1016-.3926-1.9004-.9199-2.3965s-1.3301-.7441-2.4082-.7441c-1.1719,0-2.0488.4199-2.6309,1.2598s-.8809,2.1426-.8965,3.9082v1.2891c0,1.8438.2793,3.1914.8379,4.043s1.4395,1.2773,2.6426,1.2773c1.0859,0,1.8965-.248,2.4316-.7441s.8418-1.2637.9199-2.3027h3.5156ZM337.6788,17.9471l1.7109-1.6758h2.8945v.1289l-3.5391,3.293h-2.1445l-3.5391-3.3164v-.1055h2.8945l1.7227,1.6758Z"/>
    <path class="cls-1" d="M357.1954,34.494h-6.1641l-1.1719,3.5156h-3.7383l6.3516-17.0625h3.2578l6.3867,17.0625h-3.7383l-1.1836-3.5156ZM351.9806,31.6463h4.2656l-2.1445-6.3867-2.1211,6.3867Z"/>
    <path class="cls-1" d="M373.2784,33.533c0-.6641-.2344-1.1738-.7031-1.5293s-1.3125-.7305-2.5312-1.125-2.1836-.7832-2.8945-1.166c-1.9375-1.0469-2.9062-2.457-2.9062-4.2305,0-.9219.2598-1.7441.7793-2.4668s1.2656-1.2871,2.2383-1.6934,2.0645-.6094,3.2754-.6094c1.2188,0,2.3047.2207,3.2578.6621s1.6934,1.0645,2.2207,1.8691.791,1.7188.791,2.7422h-3.5156c0-.7812-.2461-1.3887-.7383-1.8223s-1.1836-.6504-2.0742-.6504c-.8594,0-1.5273.1816-2.0039.5449s-.7148.8418-.7148,1.4355c0,.5547.2793,1.0195.8379,1.3945s1.3809.7266,2.4668,1.0547c2,.6016,3.457,1.3477,4.3711,2.2383s1.3711,2,1.3711,3.3281c0,1.4766-.5586,2.6348-1.6758,3.4746s-2.6211,1.2598-4.5117,1.2598c-1.3125,0-2.5078-.2402-3.5859-.7207s-1.9004-1.1387-2.4668-1.9746-.8496-1.8047-.8496-2.9062h3.5273c0,1.8828,1.125,2.8242,3.375,2.8242.8359,0,1.4883-.1699,1.957-.5098s.7031-.8145.7031-1.4238Z"/>
    <path class="cls-1" d="M393.7804,38.0096h-3.5156l-6.8438-11.2266v11.2266h-3.5156v-17.0625h3.5156l6.8555,11.25v-11.25h3.5039v17.0625Z"/>
    <path class="cls-1" d="M403.4532,28.6346l3.5508-7.6875h3.8438l-5.6016,10.875v6.1875h-3.5742v-6.1875l-5.6016-10.875h3.8555l3.5273,7.6875ZM404.1681,16.3768h3.6914l-3.2461,3.6328h-2.7539l2.3086-3.6328Z"/>
    <path class="cls-1" d="M426.5206,32.326c-.1328,1.8359-.8105,3.2812-2.0332,4.3359s-2.834,1.582-4.834,1.582c-2.1875,0-3.9082-.7363-5.1621-2.209s-1.8809-3.4941-1.8809-6.0645v-1.043c0-1.6406.2891-3.0859.8672-4.3359s1.4043-2.209,2.4785-2.877,2.3223-1.002,3.7441-1.002c1.9688,0,3.5547.5273,4.7578,1.582s1.8984,2.5352,2.0859,4.4414h-3.5156c-.0859-1.1016-.3926-1.9004-.9199-2.3965s-1.3301-.7441-2.4082-.7441c-1.1719,0-2.0488.4199-2.6309,1.2598s-.8809,2.1426-.8965,3.9082v1.2891c0,1.8438.2793,3.1914.8379,4.043s1.4395,1.2773,2.6426,1.2773c1.0859,0,1.8965-.248,2.4316-.7441s.8418-1.2637.9199-2.3027h3.5156Z"/>
    <path class="cls-1" d="M443.4366,38.0096h-3.5156v-7.3125h-6.8555v7.3125h-3.5156v-17.0625h3.5156v6.9141h6.8555v-6.9141h3.5156v17.0625Z"/>
    <path class="cls-1" d="M466.837,20.9471v11.2383c0,1.8672-.584,3.3438-1.752,4.4297s-2.7637,1.6289-4.7871,1.6289c-1.9922,0-3.5742-.5273-4.7461-1.582s-1.7695-2.5039-1.793-4.3477v-11.3672h3.5156v11.2617c0,1.1172.2676,1.9316.8027,2.4434s1.2754.7676,2.2207.7676c1.9766,0,2.9805-1.0391,3.0117-3.1172v-11.3555h3.5273Z"/>
    <path class="cls-1" d="M484.3263,38.0096h-3.5156v-7.3125h-6.8555v7.3125h-3.5156v-17.0625h3.5156v6.9141h6.8555v-6.9141h3.5156v17.0625Z"/>
    <path class="cls-1" d="M498.3829,30.615h-6.75v4.5703h7.9219v2.8242h-11.4375v-17.0625h11.4141v2.8477h-7.8984v4.0664h6.75v2.7539Z"/>
    <path class="cls-1" d="M505.8527,35.1854h7.4648v2.8242h-10.9805v-17.0625h3.5156v14.2383Z"/>
    <path class="cls-1" d="M529.9278,38.0096h-3.5156l-6.8438-11.2266v11.2266h-3.5156v-17.0625h3.5156l6.8555,11.25v-11.25h3.5039v17.0625Z"/>
    <path class="cls-1" d="M539.6007,28.6346l3.5508-7.6875h3.8438l-5.6016,10.875v6.1875h-3.5742v-6.1875l-5.6016-10.875h3.8555l3.5273,7.6875ZM540.3155,16.3768h3.6914l-3.2461,3.6328h-2.7539l2.3086-3.6328Z"/>
    <path class="cls-1" d="M562.6691,32.326c-.1328,1.8359-.8105,3.2812-2.0332,4.3359s-2.834,1.582-4.834,1.582c-2.1875,0-3.9082-.7363-5.1621-2.209s-1.8809-3.4941-1.8809-6.0645v-1.043c0-1.6406.2891-3.0859.8672-4.3359s1.4043-2.209,2.4785-2.877,2.3223-1.002,3.7441-1.002c1.9688,0,3.5547.5273,4.7578,1.582s1.8984,2.5352,2.0859,4.4414h-3.5156c-.0859-1.1016-.3926-1.9004-.9199-2.3965s-1.3301-.7441-2.4082-.7441c-1.1719,0-2.0488.4199-2.6309,1.2598s-.8809,2.1426-.8965,3.9082v1.2891c0,1.8438.2793,3.1914.8379,4.043s1.4395,1.2773,2.6426,1.2773c1.0859,0,1.8965-.248,2.4316-.7441s.8418-1.2637.9199-2.3027h3.5156Z"/>
    <path class="cls-1" d="M579.5841,38.0096h-3.5156v-7.3125h-6.8555v7.3125h-3.5156v-17.0625h3.5156v6.9141h6.8555v-6.9141h3.5156v17.0625Z"/>
    <path class="cls-1" d="M593.798,35.1854h8.6016v2.8242h-12.9961v-2.0625l8.4375-12.1523h-8.4258v-2.8477h12.7969v2.0156l-8.4141,12.2227Z"/>
    <path class="cls-1" d="M605.3341,38.0096v-17.0625h5.25c1.5,0,2.8418.3379,4.0254,1.0137s2.1074,1.6367,2.7715,2.8828.9961,2.6621.9961,4.248v.7852c0,1.5859-.3262,2.9961-.9785,4.2305s-1.5723,2.1914-2.7598,2.8711-2.5273,1.0234-4.0195,1.0312h-5.2852ZM608.8497,23.7947v11.3906h1.6992c1.375,0,2.4258-.4492,3.1523-1.3477s1.0977-2.1836,1.1133-3.8555v-.9023c0-1.7344-.3594-3.0488-1.0781-3.9434s-1.7695-1.3418-3.1523-1.3418h-1.7344Z"/>
    <path class="cls-1" d="M627.9679,31.7635h-2.8008v6.2461h-3.5156v-17.0625h6.3398c2.0156,0,3.5703.4492,4.6641,1.3477s1.6406,2.168,1.6406,3.8086c0,1.1641-.252,2.1348-.7559,2.9121s-1.2676,1.3965-2.291,1.8574l3.6914,6.9727v.1641h-3.7734l-3.1992-6.2461ZM625.1671,28.9158h2.8359c.8828,0,1.5664-.2246,2.0508-.6738s.7266-1.0684.7266-1.8574c0-.8047-.2285-1.4375-.6855-1.8984s-1.1582-.6914-2.1035-.6914h-2.8242v5.1211Z"/>
    <path class="cls-1" d="M651.7042,29.865c0,1.6797-.2969,3.1523-.8906,4.418s-1.4434,2.2422-2.5488,2.9297-2.373,1.0312-3.8027,1.0312c-1.4141,0-2.6758-.3398-3.7852-1.0195s-1.9688-1.6504-2.5781-2.9121-.918-2.7129-.9258-4.3535v-.8438c0-1.6797.3027-3.1582.9082-4.4355s1.4609-2.2578,2.5664-2.9414,2.3691-1.0254,3.791-1.0254,2.6855.3418,3.791,1.0254,1.9609,1.6641,2.5664,2.9414.9082,2.752.9082,4.4238v.7617ZM648.1417,29.0916c0-1.7891-.3203-3.1484-.9609-4.0781s-1.5547-1.3945-2.7422-1.3945c-1.1797,0-2.0898.459-2.7305,1.377s-.9648,2.2637-.9727,4.0371v.832c0,1.7422.3203,3.0938.9609,4.0547s1.5625,1.4414,2.7656,1.4414c1.1797,0,2.0859-.4629,2.7188-1.3887s.9531-2.2754.9609-4.0488v-.832Z"/>
    <path class="cls-1" d="M661.8575,20.9471h3.5156v11.8125c0,1.0859-.2402,2.0449-.7207,2.877s-1.1582,1.4746-2.0332,1.9277-1.8633.6797-2.9648.6797c-1.8047,0-3.2109-.459-4.2188-1.377s-1.5117-2.2168-1.5117-3.8965h3.5391c0,.8359.1758,1.4531.5273,1.8516s.9062.5977,1.6641.5977c.6719,0,1.207-.2305,1.6055-.6914s.5977-1.1172.5977-1.9688v-11.8125Z"/>
    <path class="cls-1" d="M682.0187,20.9471v11.2383c0,1.8672-.584,3.3438-1.752,4.4297s-2.7637,1.6289-4.7871,1.6289c-1.9922,0-3.5742-.5273-4.7461-1.582s-1.7695-2.5039-1.793-4.3477v-11.3672h3.5156v11.2617c0,1.1172.2676,1.9316.8027,2.4434s1.2754.7676,2.2207.7676c1.9766,0,2.9805-1.0391,3.0117-3.1172v-11.3555h3.5273ZM672.8312,17.7361c0-.6719.2539-1.2402.7617-1.7051s1.125-.6973,1.8516-.6973c.7188,0,1.334.2285,1.8457.6855s.7676,1.0293.7676,1.7168c0,.6641-.25,1.2227-.75,1.6758s-1.1211.6797-1.8633.6797c-.7578,0-1.3828-.2305-1.875-.6914s-.7383-1.0156-.7383-1.6641ZM674.1788,17.7361c0,.3438.1133.6387.3398.8848s.5352.3691.9258.3691.6992-.123.9258-.3691.3398-.541.3398-.8848c0-.3594-.1152-.6621-.3457-.9082s-.5371-.3691-.9199-.3691-.6895.123-.9199.3691-.3457.5488-.3457.9082Z"/>
    <path class="cls-1" d="M698.6232,33.7791l3.8672-12.832h3.9141l-5.9414,17.0625h-3.668l-5.918-17.0625h3.9023l3.8438,12.832Z"/>
    <path class="cls-1" d="M728.8204,32.326c-.1328,1.8359-.8105,3.2812-2.0332,4.3359s-2.834,1.582-4.834,1.582c-2.1875,0-3.9082-.7363-5.1621-2.209s-1.8809-3.4941-1.8809-6.0645v-1.043c0-1.6406.2891-3.0859.8672-4.3359s1.4043-2.209,2.4785-2.877,2.3223-1.002,3.7441-1.002c1.9688,0,3.5547.5273,4.7578,1.582s1.8984,2.5352,2.0859,4.4414h-3.5156c-.0859-1.1016-.3926-1.9004-.9199-2.3965s-1.3301-.7441-2.4082-.7441c-1.1719,0-2.0488.4199-2.6309,1.2598s-.8809,2.1426-.8965,3.9082v1.2891c0,1.8438.2793,3.1914.8379,4.043s1.4395,1.2773,2.6426,1.2773c1.0859,0,1.8965-.248,2.4316-.7441s.8418-1.2637.9199-2.3027h3.5156ZM721.965,17.9471l1.7109-1.6758h2.8945v.1289l-3.5391,3.293h-2.1445l-3.5391-3.3164v-.1055h2.8945l1.7227,1.6758Z"/>
    <path class="cls-1" d="M738.1652,31.7635h-2.8008v6.2461h-3.5156v-17.0625h6.3398c2.0156,0,3.5703.4492,4.6641,1.3477s1.6406,2.168,1.6406,3.8086c0,1.1641-.252,2.1348-.7559,2.9121s-1.2676,1.3965-2.291,1.8574l3.6914,6.9727v.1641h-3.7734l-3.1992-6.2461ZM735.3644,28.9158h2.8359c.8828,0,1.5664-.2246,2.0508-.6738s.7266-1.0684.7266-1.8574c0-.8047-.2285-1.4375-.6855-1.8984s-1.1582-.6914-2.1035-.6914h-2.8242v5.1211Z"/>
  </g>
  <g>
    <path class="cls-1" d="M17.964,165.9622v-17.0625h5.9766c2.0703,0,3.6406.3965,4.7109,1.1895s1.6055,1.9551,1.6055,3.4863c0,.8359-.2148,1.5723-.6445,2.209s-1.0273,1.1035-1.793,1.4004c.875.2188,1.5645.6602,2.0684,1.3242s.7559,1.4766.7559,2.4375c0,1.6406-.5234,2.8828-1.5703,3.7266s-2.5391,1.2734-4.4766,1.2891h-6.6328ZM21.4796,156.0482h2.6016c1.7734-.0312,2.6602-.7383,2.6602-2.1211,0-.7734-.2246-1.3301-.6738-1.6699s-1.1582-.5098-2.127-.5098h-2.4609v4.3008ZM21.4796,158.5325v4.6055h3.0117c.8281,0,1.4746-.1973,1.9395-.5918s.6973-.9395.6973-1.6348c0-1.5625-.8086-2.3555-2.4258-2.3789h-3.2227Z"/>
    <path class="cls-1" d="M44.2657,158.5677h-6.75v4.5703h7.9219v2.8242h-11.4375v-17.0625h11.4141v2.8477h-7.8984v4.0664h6.75v2.7539Z"/>
    <path class="cls-1" d="M51.9474,163.138h8.6016v2.8242h-12.9961v-2.0625l8.4375-12.1523h-8.4258v-2.8477h12.7969v2.0156l-8.4141,12.2227Z"/>
    <path class="cls-1" d="M80.4454,158.5677h-6.75v4.5703h7.9219v2.8242h-11.4375v-17.0625h11.4141v2.8477h-7.8984v4.0664h6.75v2.7539Z"/>
    <path class="cls-1" d="M87.9152,163.138h7.4648v2.8242h-10.9805v-17.0625h3.5156v14.2383Z"/>
    <path class="cls-1" d="M108.3819,158.5677h-6.75v4.5703h7.9219v2.8242h-11.4375v-17.0625h11.4141v2.8477h-7.8984v4.0664h6.75v2.7539Z"/>
    <path class="cls-1" d="M117.6798,159.1185l-1.8281,1.9688v4.875h-3.5156v-17.0625h3.5156v7.7344l1.5469-2.1211,4.3477-5.6133h4.3242l-6.0586,7.582,6.2344,9.4805h-4.1836l-4.3828-6.8438Z"/>
    <path class="cls-1" d="M141.1339,151.7474h-5.2266v14.2148h-3.5156v-14.2148h-5.1562v-2.8477h13.8984v2.8477Z"/>
    <path class="cls-1" d="M150.1749,159.7161h-2.8008v6.2461h-3.5156v-17.0625h6.3398c2.0156,0,3.5703.4492,4.6641,1.3477s1.6406,2.168,1.6406,3.8086c0,1.1641-.252,2.1348-.7559,2.9121s-1.2676,1.3965-2.291,1.8574l3.6914,6.9727v.1641h-3.7734l-3.1992-6.2461ZM147.3741,156.8685h2.8359c.8828,0,1.5664-.2246,2.0508-.6738s.7266-1.0684.7266-1.8574c0-.8047-.2285-1.4375-.6855-1.8984s-1.1582-.6914-2.1035-.6914h-2.8242v5.1211Z"/>
    <path class="cls-1" d="M169.5275,162.4466h-6.1641l-1.1719,3.5156h-3.7383l6.3516-17.0625h3.2578l6.3867,17.0625h-3.7383l-1.1836-3.5156ZM164.3126,159.5989h4.2656l-2.1445-6.3867-2.1211,6.3867ZM167.1603,144.3294h3.6914l-3.2461,3.6328h-2.7539l2.3086-3.6328Z"/>
    <path class="cls-1" d="M183.0792,159.7161h-2.8008v6.2461h-3.5156v-17.0625h6.3398c2.0156,0,3.5703.4492,4.6641,1.3477s1.6406,2.168,1.6406,3.8086c0,1.1641-.252,2.1348-.7559,2.9121s-1.2676,1.3965-2.291,1.8574l3.6914,6.9727v.1641h-3.7734l-3.1992-6.2461ZM180.2784,156.8685h2.8359c.8828,0,1.5664-.2246,2.0508-.6738s.7266-1.0684.7266-1.8574c0-.8047-.2285-1.4375-.6855-1.8984s-1.1582-.6914-2.1035-.6914h-2.8242v5.1211Z"/>
    <path class="cls-1" d="M203.0646,158.5677h-6.75v4.5703h7.9219v2.8242h-11.4375v-17.0625h11.4141v2.8477h-7.8984v4.0664h6.75v2.7539Z"/>
    <path class="cls-1" d="M220.8946,165.9622h-3.5156l-6.8438-11.2266v11.2266h-3.5156v-17.0625h3.5156l6.8555,11.25v-11.25h3.5039v17.0625Z"/>
    <path class="cls-1" d="M240.2286,161.4857c0-.6641-.2344-1.1738-.7031-1.5293s-1.3125-.7305-2.5312-1.125-2.1836-.7832-2.8945-1.166c-1.9375-1.0469-2.9062-2.457-2.9062-4.2305,0-.9219.2598-1.7441.7793-2.4668s1.2656-1.2871,2.2383-1.6934,2.0645-.6094,3.2754-.6094c1.2188,0,2.3047.2207,3.2578.6621s1.6934,1.0645,2.2207,1.8691.791,1.7188.791,2.7422h-3.5156c0-.7812-.2461-1.3887-.7383-1.8223s-1.1836-.6504-2.0742-.6504c-.8594,0-1.5273.1816-2.0039.5449s-.7148.8418-.7148,1.4355c0,.5547.2793,1.0195.8379,1.3945s1.3809.7266,2.4668,1.0547c2,.6016,3.457,1.3477,4.3711,2.2383s1.3711,2,1.3711,3.3281c0,1.4766-.5586,2.6348-1.6758,3.4746s-2.6211,1.2598-4.5117,1.2598c-1.3125,0-2.5078-.2402-3.5859-.7207s-1.9004-1.1387-2.4668-1.9746-.8496-1.8047-.8496-2.9062h3.5273c0,1.8828,1.125,2.8242,3.375,2.8242.8359,0,1.4883-.1699,1.957-.5098s.7031-.8145.7031-1.4238Z"/>
    <path class="cls-1" d="M257.1202,158.5677h-6.75v4.5703h7.9219v2.8242h-11.4375v-17.0625h11.4141v2.8477h-7.8984v4.0664h6.75v2.7539Z"/>
    <path class="cls-1" d="M267.38,161.7317l3.8672-12.832h3.9141l-5.9414,17.0625h-3.668l-5.918-17.0625h3.9023l3.8438,12.832Z"/>
    <path class="cls-1" d="M274.92,164.2982c0-.5391.1816-.9766.5449-1.3125s.8184-.5039,1.3652-.5039c.5547,0,1.0137.168,1.377.5039s.5449.7734.5449,1.3125c0,.5312-.1797.9629-.5391,1.2949s-.8203.498-1.3828.498c-.5547,0-1.0117-.166-1.3711-.498s-.5391-.7637-.5391-1.2949Z"/>
    <path class="cls-1" d="M292.9249,158.5677h-6.75v4.5703h7.9219v2.8242h-11.4375v-17.0625h11.4141v2.8477h-7.8984v4.0664h6.75v2.7539Z"/>
    <path class="cls-1" d="M310.755,165.9622h-3.5156l-6.8438-11.2266v11.2266h-3.5156v-17.0625h3.5156l6.8555,11.25v-11.25h3.5039v17.0625Z"/>
  </g>
</svg>