<?xml version="1.0" encoding="UTF-8"?>
<svg id="Vrstva_1" data-name="Vrstva 1" xmlns="http://www.w3.org/2000/svg" width="285.3mm" height="140.4mm" viewBox="0 0 808.71 397.98">
  <g>
    <path d="m0,180.87h82.05l-1.47,23.65H31.48v28.87l41.59-1.95v25.12l-41.59-2.12v42.25H0v-115.81Z" fill="#fff"/>
    <path d="m84.02,215.13l28.71-4.89.82,22.83c4.41-13.2,13.87-22.02,27.41-24.3l4.57,30.34c-13.05-.33-24.63,3.75-32.14,13.21v44.37h-29.36v-81.56Z" fill="#fff"/>
    <path d="m193.33,244v-3.91c0-5.71-2.94-9.47-9.31-9.47-6.04,0-15,1.47-27.88,6.86l-3.75-19.9c15-5.06,26.91-7.34,39.63-7.34,20.22,0,30.67,10.93,30.67,33.76v25.44c0,5.71,2.28,7.83,9.62,7.83l-2.93,20.39c-18.27,2.45-27.07-1.31-31.65-9.95-7.83,7.83-17.95,10.92-25.78,10.92-13.86,0-25.11-8.97-25.11-23.98,0-18.26,14.52-28.21,46.49-30.66Zm-10.93,34.9c3.92,0,8.48-2.77,10.93-4.72v-15.5c-13.06,1.31-17.62,6.36-17.62,12.73-.16,4.89,2.45,7.5,6.69,7.5Z" fill="#fff"/>
    <path d="m240.8,215.13l28.71-4.89.65,10.59c9.46-6.68,19.9-10.59,29.04-10.59,14.03,0,24.95,9.46,24.95,28.54v57.9h-29.36v-53.34c0-7.67-3.75-10.44-9.62-10.44-4.41,0-9.95,2.12-15.01,5.55v58.23h-29.36v-81.56Z" fill="#fff"/>
    <path d="m340.32,174.02l29.37-4.89v72.1l24.31-29.03h33.92l-30.98,34.26,35.23,50.24h-35.73l-18.43-29.2-8.32,5.55v23.65h-29.37v-122.67Z" fill="#fff"/>
    <path d="m475.25,180.87h56.27c20.23,0,35.57,11.26,35.57,30.01,0,13.06-7.83,22.03-17.63,26.42,13.87,4.41,22.02,14.85,22.02,28.72,0,19.08-15.98,30.66-36.53,30.66h-59.7v-115.81Zm46.49,46.65c7.67,0,13.7-4.08,13.7-12.23s-5.7-12.07-13.38-12.07h-16.63v24.3h16.31Zm3.75,47.95c8.15,0,14.52-4.4,14.52-12.71s-6.03-12.56-14.03-12.56h-20.55v25.27h20.06Z" fill="#fff"/>
    <path d="m623.06,210.24c25.93,0,45.02,17.61,45.02,44.2s-19.09,44.21-45.02,44.21-45.18-17.62-45.18-44.21,19.09-44.2,45.18-44.2Zm0,68.17c8.81,0,14.84-9.13,14.84-23.98s-6.03-24.14-14.84-24.14-15.01,9.3-15.01,24.14,6.04,23.98,15.01,23.98Z" fill="#fff"/>
    <path d="m680.33,174.02l29.37-4.89v127.56h-29.37v-122.67Z" fill="#fff"/>
    <path d="m761.08,210.24c5.71,0,11.75,1.13,18.27,3.58v-39.8l29.37-4.89v127.56h-28.05l-1.31-8.64c-7.5,7.01-16.31,10.6-24.8,10.6-16.96,0-32.62-14.03-32.62-42.74s16.48-45.66,39.15-45.66Zm4.08,66.22c4.07,0,8.81-1.47,14.19-4.73v-37.68c-4.24-1.79-7.83-2.61-11.09-2.61-10.61,0-16.15,9.95-16.15,24.46,0,11.91,4.4,20.56,13.04,20.56Z" fill="#fff"/>
  </g>
  <path d="m267.08,73.7c-36.8,0-60.85,38.63-88.17,27.7,1.27-5.29,2.91-11.12,5.28-17.5l-26.05-5.65c-5.29,13.86-8.02,28.25-8.02,42.64,0,33.16,16.77,61.03,52.66,61.03s60.68-38.62,88.18-27.87c-1.28,5.46-3.1,11.29-5.47,17.67l26.06,5.65c5.28-13.66,8.01-28.25,8.01-42.46,0-33.33-16.77-61.22-52.48-61.22Zm-64.3,77.98c-13.48,0-23.33-8.19-25.88-23.32,32.43,14.03,63.23-24.41,90.18-24.41,13.31,0,23.15,8.2,25.7,23.32-32.44-14.22-63.41,24.41-90,24.41Z" fill="#fff"/>
</svg>