<?xml version="1.0" encoding="UTF-8"?>
<svg id="Layer_1" data-name="Layer 1" xmlns="http://www.w3.org/2000/svg" xmlns:xlink="http://www.w3.org/1999/xlink" viewBox="0 0 660 172.72">
  <defs>
    <style>
      .cls-1 {
        fill: none;
        stroke: #606060;
        stroke-linecap: round;
      }

      .cls-1, .cls-2, .cls-3, .cls-4, .cls-5 {
        stroke-miterlimit: 10;
      }

      .cls-2 {
        fill: #974899;
      }

      .cls-2, .cls-3, .cls-4, .cls-5 {
        stroke: #fff;
        stroke-width: .5px;
      }

      .cls-3, .cls-6 {
        fill: #566ca8;
      }

      .cls-4, .cls-7 {
        fill: #bf3d7c;
      }

      .cls-5 {
        fill: #f58d77;
      }

      .cls-8, .cls-9, .cls-10, .cls-6, .cls-7, .cls-11, .cls-12, .cls-13, .cls-14 {
        stroke-width: 0px;
      }

      .cls-9 {
        fill: #f48f62;
      }

      .cls-10 {
        fill: #4c5c68;
      }

      .cls-11 {
        fill: #c13a72;
      }

      .cls-12 {
        fill: #8f469e;
      }

      .cls-13 {
        fill: #994791;
      }

      .cls-14 {
        fill: #fff;
      }
    </style>
    <symbol id="New_Symbol" data-name="New Symbol" viewBox="0 0 564.82 24">
      <g>
        <g>
          <path class="cls-1" d="M3.98.5v5"/>
          <path class="cls-1" d="M140.21.5v5"/>
          <path class="cls-1" d="M277.95.5v5"/>
          <path class="cls-1" d="M415.7.5v5"/>
          <path class="cls-1" d="M553.45.5v5"/>
        </g>
        <g>
          <path class="cls-10" d="M6.56,16.54c0,1.38-.24,2.4-.7,3.07-.47.67-1.2,1-2.2,1s-1.72-.33-2.19-.98c-.47-.65-.72-1.63-.74-2.93v-1.57c0-1.36.23-2.37.7-3.03s1.21-.99,2.21-.99,1.73.32,2.2.96c.47.64.71,1.62.72,2.95v1.52ZM5.39,14.93c0-.99-.14-1.72-.42-2.17-.28-.46-.72-.68-1.33-.68s-1.04.23-1.31.68c-.28.45-.42,1.15-.43,2.09v1.88c0,1,.14,1.74.43,2.21.29.48.73.71,1.32.71s1.01-.22,1.29-.67.43-1.16.44-2.12v-1.92Z"/>
          <path class="cls-10" d="M9.88,13.01c0-.55.18-1.01.53-1.37s.81-.54,1.36-.54,1.02.18,1.37.54c.35.36.52.83.52,1.41v.45c0,.56-.18,1.01-.53,1.37-.35.35-.8.53-1.35.53s-1-.18-1.36-.53c-.36-.35-.54-.82-.54-1.41v-.44ZM10.76,13.5c0,.33.09.6.28.82.19.21.44.32.75.32s.54-.1.73-.31c.18-.21.28-.49.28-.85v-.46c0-.33-.09-.6-.27-.82s-.43-.32-.74-.32-.56.11-.74.32-.27.5-.27.85v.46ZM12.06,19.78l-.67-.42,4.51-7.22.67.42-4.51,7.22ZM14.38,18.21c0-.55.18-1.01.53-1.37.35-.36.81-.54,1.36-.54s1.01.18,1.37.53.53.83.53,1.42v.45c0,.55-.18,1.01-.53,1.37-.35.36-.81.54-1.36.54s-1-.18-1.36-.53c-.36-.35-.54-.82-.54-1.41v-.46ZM15.26,18.7c0,.33.09.61.28.82s.44.32.75.32.55-.1.73-.31c.18-.21.27-.5.27-.86v-.47c0-.33-.09-.61-.28-.82-.18-.21-.43-.32-.74-.32s-.54.1-.73.31-.28.49-.28.85v.47Z"/>
        </g>
        <g>
          <path class="cls-10" d="M536.11,20.48h-1.18v-7.83l-2.37.87v-1.07l3.36-1.26h.18v9.29Z"/>
          <path class="cls-10" d="M545.34,16.54c0,1.38-.24,2.4-.7,3.07-.47.67-1.2,1-2.2,1s-1.72-.33-2.19-.98c-.47-.65-.72-1.63-.74-2.93v-1.57c0-1.36.23-2.37.7-3.03s1.21-.99,2.21-.99,1.73.32,2.2.96c.47.64.71,1.62.72,2.95v1.52ZM544.17,14.93c0-.99-.14-1.72-.42-2.17-.28-.46-.72-.68-1.33-.68s-1.04.23-1.31.68c-.28.45-.42,1.15-.43,2.09v1.88c0,1,.14,1.74.43,2.21.29.48.73.71,1.32.71s1.01-.22,1.29-.67.43-1.16.44-2.12v-1.92Z"/>
          <path class="cls-10" d="M552.64,16.54c0,1.38-.24,2.4-.7,3.07-.47.67-1.2,1-2.2,1s-1.72-.33-2.19-.98c-.47-.65-.72-1.63-.74-2.93v-1.57c0-1.36.23-2.37.7-3.03s1.21-.99,2.21-.99,1.73.32,2.2.96c.47.64.71,1.62.72,2.95v1.52ZM551.47,14.93c0-.99-.14-1.72-.42-2.17-.28-.46-.72-.68-1.33-.68s-1.04.23-1.31.68c-.28.45-.42,1.15-.43,2.09v1.88c0,1,.14,1.74.43,2.21.29.48.73.71,1.32.71s1.01-.22,1.29-.67.43-1.16.44-2.12v-1.92Z"/>
          <path class="cls-10" d="M555.96,13.01c0-.55.18-1.01.53-1.37s.81-.54,1.36-.54,1.02.18,1.37.54c.35.36.52.83.52,1.41v.45c0,.56-.18,1.01-.53,1.37-.35.35-.8.53-1.35.53s-1-.18-1.36-.53c-.36-.35-.54-.82-.54-1.41v-.44ZM556.84,13.5c0,.33.09.6.28.82.19.21.44.32.75.32s.54-.1.73-.31c.18-.21.28-.49.28-.85v-.46c0-.33-.09-.6-.27-.82s-.43-.32-.74-.32-.56.11-.74.32-.27.5-.27.85v.46ZM558.13,19.78l-.67-.42,4.51-7.22.67.42-4.51,7.22ZM560.46,18.21c0-.55.18-1.01.53-1.37.35-.36.81-.54,1.36-.54s1.01.18,1.37.53.53.83.53,1.42v.45c0,.55-.18,1.01-.53,1.37-.35.36-.81.54-1.36.54s-1-.18-1.36-.53c-.36-.35-.54-.82-.54-1.41v-.46ZM561.34,18.7c0,.33.09.61.28.82s.44.32.75.32.55-.1.73-.31c.18-.21.27-.5.27-.86v-.47c0-.33-.09-.61-.28-.82-.18-.21-.43-.32-.74-.32s-.54.1-.73.31-.28.49-.28.85v.47Z"/>
        </g>
        <g>
          <path class="cls-10" d="M413.2,11.89l-3.83,8.58h-1.23l3.81-8.28h-5v-.96h6.25v.66Z"/>
          <path class="cls-10" d="M415.07,15.84l.47-4.61h4.74v1.09h-3.74l-.28,2.52c.45-.27.97-.4,1.54-.4.84,0,1.51.28,2.01.83.5.56.74,1.31.74,2.26s-.26,1.7-.77,2.25c-.51.55-1.23.82-2.16.82-.82,0-1.48-.23-2-.68-.52-.45-.81-1.08-.88-1.88h1.11c.07.53.26.93.57,1.2.3.27.71.4,1.21.4.55,0,.97-.19,1.29-.56.31-.37.47-.89.47-1.54,0-.62-.17-1.11-.5-1.49-.34-.38-.78-.56-1.34-.56-.51,0-.91.11-1.21.34l-.31.25-.94-.24Z"/>
          <path class="cls-10" d="M423.65,13.01c0-.55.18-1.01.53-1.37s.81-.54,1.36-.54,1.02.18,1.37.54c.35.36.52.83.52,1.41v.45c0,.56-.18,1.01-.53,1.37-.35.35-.8.53-1.35.53s-1-.18-1.36-.53c-.36-.35-.54-.82-.54-1.41v-.44ZM424.53,13.5c0,.33.09.6.28.82.19.21.44.32.75.32s.54-.1.73-.31c.18-.21.28-.49.28-.85v-.46c0-.33-.09-.6-.27-.82s-.43-.32-.74-.32-.56.11-.74.32-.27.5-.27.85v.46ZM425.82,19.78l-.67-.42,4.51-7.22.67.42-4.51,7.22ZM428.15,18.21c0-.55.18-1.01.53-1.37.35-.36.81-.54,1.36-.54s1.01.18,1.37.53.53.83.53,1.42v.45c0,.55-.18,1.01-.53,1.37-.35.36-.81.54-1.36.54s-1-.18-1.36-.53c-.36-.35-.54-.82-.54-1.41v-.46ZM429.03,18.7c0,.33.09.61.28.82s.44.32.75.32.55-.1.73-.31c.18-.21.27-.5.27-.86v-.47c0-.33-.09-.61-.28-.82-.18-.21-.43-.32-.74-.32s-.54.1-.73.31-.28.49-.28.85v.47Z"/>
        </g>
        <g>
          <path class="cls-10" d="M138.55,20.48h-6.06v-.84l3.2-3.55c.47-.54.8-.97.98-1.31.18-.34.27-.68.27-1.04,0-.48-.15-.88-.44-1.19-.29-.31-.68-.46-1.17-.46-.58,0-1.04.17-1.36.5-.32.33-.49.79-.49,1.39h-1.17c0-.85.27-1.54.82-2.06s1.28-.79,2.2-.79c.86,0,1.54.23,2.04.68.5.45.75,1.05.75,1.8,0,.91-.58,1.99-1.74,3.25l-2.48,2.69h4.64v.96Z"/>
          <path class="cls-10" d="M140.34,15.84l.47-4.61h4.74v1.09h-3.74l-.28,2.52c.45-.27.97-.4,1.54-.4.84,0,1.51.28,2.01.83.5.56.74,1.31.74,2.26s-.26,1.7-.77,2.25c-.51.55-1.23.82-2.16.82-.82,0-1.48-.23-2-.68-.52-.45-.81-1.08-.88-1.88h1.11c.07.53.26.93.57,1.2.3.27.71.4,1.21.4.55,0,.97-.19,1.29-.56.31-.37.47-.89.47-1.54,0-.62-.17-1.11-.5-1.49-.34-.38-.78-.56-1.34-.56-.51,0-.91.11-1.21.34l-.31.25-.94-.24Z"/>
          <path class="cls-10" d="M148.91,13.01c0-.55.18-1.01.53-1.37s.81-.54,1.36-.54,1.02.18,1.37.54c.35.36.52.83.52,1.41v.45c0,.56-.18,1.01-.53,1.37-.35.35-.8.53-1.35.53s-1-.18-1.36-.53c-.36-.35-.54-.82-.54-1.41v-.44ZM149.79,13.5c0,.33.09.6.28.82.19.21.44.32.75.32s.54-.1.73-.31c.18-.21.28-.49.28-.85v-.46c0-.33-.09-.6-.27-.82s-.43-.32-.74-.32-.56.11-.74.32-.27.5-.27.85v.46ZM151.08,19.78l-.67-.42,4.51-7.22.67.42-4.51,7.22ZM153.41,18.21c0-.55.18-1.01.53-1.37.35-.36.81-.54,1.36-.54s1.01.18,1.37.53.53.83.53,1.42v.45c0,.55-.18,1.01-.53,1.37-.35.36-.81.54-1.36.54s-1-.18-1.36-.53c-.36-.35-.54-.82-.54-1.41v-.46ZM154.29,18.7c0,.33.09.61.28.82s.44.32.75.32.55-.1.73-.31c.18-.21.27-.5.27-.86v-.47c0-.33-.09-.61-.28-.82-.18-.21-.43-.32-.74-.32s-.54.1-.73.31-.28.49-.28.85v.47Z"/>
        </g>
        <g>
          <path class="cls-10" d="M270.59,15.84l.47-4.61h4.74v1.09h-3.74l-.28,2.52c.45-.27.97-.4,1.54-.4.84,0,1.51.28,2.01.83.5.56.74,1.31.74,2.26s-.26,1.7-.77,2.25c-.51.55-1.23.82-2.16.82-.82,0-1.48-.23-2-.68-.52-.45-.81-1.08-.88-1.88h1.11c.07.53.26.93.57,1.2.3.27.71.4,1.21.4.55,0,.97-.19,1.29-.56.31-.37.47-.89.47-1.54,0-.62-.17-1.11-.5-1.49-.34-.38-.78-.56-1.34-.56-.51,0-.91.11-1.21.34l-.31.25-.94-.24Z"/>
          <path class="cls-10" d="M283.14,16.54c0,1.38-.24,2.4-.7,3.07-.47.67-1.2,1-2.2,1s-1.72-.33-2.19-.98c-.47-.65-.72-1.63-.74-2.93v-1.57c0-1.36.23-2.37.7-3.03s1.21-.99,2.21-.99,1.73.32,2.2.96c.47.64.71,1.62.72,2.95v1.52ZM281.97,14.93c0-.99-.14-1.72-.42-2.17-.28-.46-.72-.68-1.33-.68s-1.04.23-1.31.68c-.28.45-.42,1.15-.43,2.09v1.88c0,1,.14,1.74.43,2.21.29.48.73.71,1.32.71s1.01-.22,1.29-.67.43-1.16.44-2.12v-1.92Z"/>
          <path class="cls-10" d="M286.46,13.01c0-.55.18-1.01.53-1.37s.81-.54,1.36-.54,1.02.18,1.37.54c.35.36.52.83.52,1.41v.45c0,.56-.18,1.01-.53,1.37-.35.35-.8.53-1.35.53s-1-.18-1.36-.53c-.36-.35-.54-.82-.54-1.41v-.44ZM287.34,13.5c0,.33.09.6.28.82.19.21.44.32.75.32s.54-.1.73-.31c.18-.21.28-.49.28-.85v-.46c0-.33-.09-.6-.27-.82s-.43-.32-.74-.32-.56.11-.74.32-.27.5-.27.85v.46ZM288.63,19.78l-.67-.42,4.51-7.22.67.42-4.51,7.22ZM290.96,18.21c0-.55.18-1.01.53-1.37.35-.36.81-.54,1.36-.54s1.01.18,1.37.53.53.83.53,1.42v.45c0,.55-.18,1.01-.53,1.37-.35.36-.81.54-1.36.54s-1-.18-1.36-.53c-.36-.35-.54-.82-.54-1.41v-.46ZM291.84,18.7c0,.33.09.61.28.82s.44.32.75.32.55-.1.73-.31c.18-.21.27-.5.27-.86v-.47c0-.33-.09-.61-.28-.82-.18-.21-.43-.32-.74-.32s-.54.1-.73.31-.28.49-.28.85v.47Z"/>
        </g>
      </g>
    </symbol>
  </defs>
  <path class="cls-3" d="M98.23,70.55V26.55h277.49v44H98.23Z"/>
  <path class="cls-3" d="M98.23,138.55v-44h347.68v44H98.23Z"/>
  <g>
    <path class="cls-9" d="M554.32,15.08l2.71-8.34h2.04l-3.84,10.66h-1.79l-3.82-10.66h2.03l2.68,8.34Z"/>
    <path class="cls-9" d="M561.98,17.4h-1.78V6.15h1.78v11.25Z"/>
    <path class="cls-9" d="M568.66,17.4c-.08-.15-.15-.4-.21-.74-.57.59-1.26.89-2.08.89s-1.45-.23-1.95-.68-.75-1.02-.75-1.68c0-.84.31-1.49.94-1.94.63-.45,1.52-.68,2.69-.68h1.09v-.52c0-.41-.11-.74-.34-.99-.23-.25-.58-.37-1.05-.37-.41,0-.74.1-1,.3s-.39.46-.39.77h-1.78c0-.43.14-.84.43-1.22.29-.38.68-.67,1.18-.89.5-.21,1.05-.32,1.66-.32.93,0,1.67.23,2.22.7.55.47.83,1.12.85,1.97v3.57c0,.71.1,1.28.3,1.71v.12h-1.82ZM566.7,16.12c.35,0,.68-.09.99-.26.31-.17.54-.4.7-.69v-1.49h-.96c-.66,0-1.16.11-1.49.34s-.5.55-.5.97c0,.34.11.61.34.82.23.2.53.3.91.3Z"/>
    <path class="cls-9" d="M574.61,14l-.79.81v2.59h-1.78V6.15h1.78v6.49l.56-.7,2.19-2.47h2.14l-2.94,3.3,3.26,4.62h-2.06l-2.35-3.4Z"/>
    <path class="cls-9" d="M582.64,14.85l1.61-5.38h1.9l-3.15,9.13c-.48,1.33-1.3,2-2.46,2-.26,0-.54-.04-.86-.13v-1.38l.34.02c.45,0,.79-.08,1.01-.25.23-.16.41-.44.54-.82l.26-.68-2.78-7.88h1.92l1.68,5.38Z"/>
  </g>
  <g>
    <path class="cls-13" d="M386.17,12.35c0,1.04-.18,1.96-.54,2.75-.36.79-.88,1.39-1.55,1.82-.67.42-1.44.63-2.32.63s-1.63-.21-2.31-.63c-.68-.42-1.2-1.02-1.57-1.8-.37-.78-.56-1.68-.56-2.7v-.6c0-1.04.18-1.96.55-2.75.37-.8.89-1.4,1.56-1.83.67-.42,1.44-.63,2.31-.63s1.64.21,2.31.63c.67.42,1.19,1.02,1.56,1.8.37.78.55,1.7.56,2.74v.59ZM384.32,11.79c0-1.18-.22-2.09-.67-2.72-.45-.63-1.08-.95-1.9-.95s-1.43.31-1.88.94c-.45.63-.68,1.51-.69,2.66v.62c0,1.17.23,2.08.69,2.72.46.64,1.09.96,1.9.96s1.45-.31,1.89-.94c.44-.62.66-1.54.66-2.74v-.56Z"/>
    <path class="cls-13" d="M392.29,15.25c0-.32-.13-.56-.39-.72-.26-.17-.69-.31-1.3-.44s-1.11-.29-1.52-.48c-.89-.43-1.33-1.05-1.33-1.87,0-.68.29-1.25.86-1.71s1.31-.69,2.2-.69c.95,0,1.71.23,2.3.7.58.47.88,1.08.88,1.82h-1.78c0-.34-.13-.63-.38-.85-.25-.23-.59-.34-1.01-.34-.39,0-.71.09-.96.27-.25.18-.37.42-.37.72,0,.27.11.49.34.64s.69.3,1.39.46c.7.15,1.25.34,1.64.55.4.21.69.47.89.77.19.3.29.66.29,1.08,0,.71-.3,1.29-.89,1.73-.59.44-1.36.66-2.32.66-.65,0-1.23-.12-1.74-.35s-.9-.56-1.19-.97-.42-.85-.42-1.33h1.73c.02.42.18.74.48.97.29.23.68.34,1.16.34s.83-.09,1.07-.27c.24-.18.37-.41.37-.7Z"/>
    <path class="cls-13" d="M395.25,13.37c0-.78.15-1.48.46-2.1.31-.62.74-1.1,1.3-1.44.56-.33,1.2-.5,1.92-.5,1.07,0,1.94.34,2.6,1.03.67.69,1.03,1.6,1.08,2.74v.42c0,.78-.14,1.48-.44,2.09-.3.62-.73,1.09-1.29,1.43-.56.34-1.2.5-1.94.5-1.12,0-2.01-.37-2.68-1.12-.67-.74-1.01-1.74-1.01-2.98v-.09ZM397.03,13.52c0,.82.17,1.45.51,1.92.34.46.81.69,1.41.69s1.07-.23,1.4-.7c.33-.47.5-1.15.5-2.06,0-.8-.17-1.44-.52-1.9-.34-.47-.81-.7-1.4-.7s-1.04.23-1.38.69c-.34.46-.51,1.15-.51,2.07Z"/>
    <path class="cls-13" d="M411.08,13.52c0,1.23-.27,2.21-.82,2.94-.55.73-1.3,1.09-2.27,1.09s-1.65-.33-2.17-1l-.09.86h-1.61V6.15h1.78v4.09c.51-.61,1.2-.91,2.07-.91.97,0,1.73.36,2.28,1.08s.83,1.72.83,3.01v.1ZM409.3,13.37c0-.86-.15-1.5-.45-1.93s-.74-.64-1.32-.64c-.77,0-1.31.34-1.63,1.01v3.27c.32.69.86,1.03,1.64,1.03.56,0,.99-.21,1.29-.62s.46-1.04.47-1.88v-.23Z"/>
    <path class="cls-13" d="M414.22,9.48l.05.92c.59-.71,1.36-1.06,2.31-1.06,1.65,0,2.49.95,2.52,2.83v5.24h-1.78v-5.13c0-.5-.11-.88-.33-1.12-.22-.24-.57-.36-1.07-.36-.72,0-1.25.32-1.6.97v5.64h-1.78v-7.92h1.68Z"/>
    <path class="cls-13" d="M422.83,17.4h-1.78v-7.92h1.78v7.92ZM422.49,6.2h2.03l-2.03,2.22h-1.43s1.43-2.22,1.43-2.22Z"/>
    <path class="cls-13" d="M433.32,17.4c-.08-.15-.15-.4-.21-.74-.57.59-1.26.89-2.08.89s-1.45-.23-1.95-.68-.75-1.02-.75-1.68c0-.84.31-1.49.94-1.95.63-.45,1.52-.68,2.69-.68h1.09v-.52c0-.41-.12-.74-.34-.99-.23-.25-.58-.37-1.05-.37-.41,0-.74.1-1,.3-.26.2-.39.46-.39.77h-1.78c0-.43.14-.84.43-1.22.29-.38.68-.67,1.18-.89.5-.21,1.05-.32,1.66-.32.93,0,1.67.23,2.22.7.55.47.83,1.12.85,1.97v3.57c0,.71.1,1.28.3,1.71v.12h-1.82ZM431.37,16.12c.35,0,.68-.09.99-.26.31-.17.54-.4.7-.69v-1.49h-.96c-.66,0-1.15.12-1.49.34s-.5.55-.5.97c0,.34.11.61.34.82.23.2.53.3.91.3Z"/>
    <path class="cls-13" d="M441.5,16.62c-.52.62-1.26.92-2.23.92-.86,0-1.51-.25-1.95-.75-.44-.5-.66-1.23-.66-2.18v-5.13h1.78v5.11c0,1.01.42,1.51,1.25,1.51s1.45-.31,1.75-.93v-5.69h1.78v7.92h-1.68l-.04-.78Z"/>
    <path class="cls-13" d="M447.27,7.55v1.93h1.4v1.32h-1.4v4.42c0,.3.06.52.18.66.12.13.33.2.64.2.21,0,.41-.02.62-.07v1.38c-.41.11-.8.17-1.17.17-1.37,0-2.05-.75-2.05-2.26v-4.49h-1.3v-1.32h1.3v-1.93h1.78Z"/>
    <path class="cls-13" d="M449.47,13.37c0-.78.15-1.48.46-2.1.31-.62.74-1.1,1.3-1.44.56-.33,1.2-.5,1.92-.5,1.07,0,1.94.34,2.6,1.03.67.69,1.03,1.6,1.08,2.74v.42c0,.78-.14,1.48-.44,2.09-.3.62-.73,1.09-1.29,1.43-.56.34-1.21.5-1.94.5-1.12,0-2.01-.37-2.68-1.12-.67-.74-1.01-1.74-1.01-2.98v-.09ZM451.25,13.52c0,.82.17,1.45.5,1.92.34.46.81.69,1.41.69s1.07-.23,1.4-.7c.33-.47.5-1.15.5-2.06,0-.8-.17-1.44-.52-1.9-.34-.47-.81-.7-1.4-.7s-1.04.23-1.38.69c-.34.46-.51,1.15-.51,2.07Z"/>
    <path class="cls-13" d="M460.02,9.48l.05.83c.56-.65,1.32-.97,2.29-.97,1.06,0,1.78.41,2.17,1.22.58-.81,1.39-1.22,2.43-1.22.87,0,1.52.24,1.95.73.43.48.65,1.2.66,2.14v5.21h-1.78v-5.16c0-.5-.11-.87-.33-1.11s-.58-.35-1.09-.35c-.41,0-.74.11-.99.33-.26.22-.44.5-.54.85v5.43s-1.77,0-1.77,0v-5.21c-.02-.93-.5-1.4-1.43-1.4-.71,0-1.22.29-1.52.87v5.74h-1.78v-7.92h1.68Z"/>
    <path class="cls-13" d="M471.06,13.37c0-.78.15-1.48.46-2.1.31-.62.74-1.1,1.3-1.44.56-.33,1.2-.5,1.92-.5,1.07,0,1.94.34,2.6,1.03.67.69,1.03,1.6,1.08,2.74v.42c0,.78-.14,1.48-.44,2.09-.3.62-.73,1.09-1.29,1.43-.56.34-1.21.5-1.94.5-1.12,0-2.01-.37-2.68-1.12-.67-.74-1.01-1.74-1.01-2.98v-.09ZM472.84,13.52c0,.82.17,1.45.5,1.92.34.46.81.69,1.41.69s1.07-.23,1.4-.7c.33-.47.5-1.15.5-2.06,0-.8-.17-1.44-.52-1.9-.34-.47-.81-.7-1.4-.7s-1.04.23-1.38.69c-.34.46-.51,1.15-.51,2.07Z"/>
    <path class="cls-13" d="M486.89,13.52c0,1.23-.27,2.21-.82,2.94-.55.73-1.3,1.09-2.27,1.09s-1.65-.33-2.17-1l-.09.86h-1.61V6.15h1.78v4.09c.51-.61,1.2-.91,2.07-.91.97,0,1.73.36,2.28,1.08s.83,1.72.83,3.01v.1ZM485.11,13.37c0-.86-.15-1.5-.45-1.93s-.74-.64-1.32-.64c-.77,0-1.31.34-1.63,1.01v3.27c.32.69.86,1.03,1.64,1.03.56,0,.99-.21,1.29-.62s.46-1.04.47-1.88v-.23Z"/>
    <path class="cls-13" d="M488.39,7.42c0-.27.09-.5.26-.68.17-.18.42-.27.74-.27s.57.09.75.27.26.41.26.68-.09.49-.26.67c-.18.18-.42.27-.75.27s-.57-.09-.74-.27c-.17-.18-.26-.4-.26-.67ZM490.28,17.4h-1.78v-7.92h1.78v7.92Z"/>
    <path class="cls-13" d="M494.11,17.4h-1.78V6.15h1.78v11.25Z"/>
    <path class="cls-13" d="M498.82,14.85l1.61-5.38h1.9l-3.15,9.13c-.48,1.33-1.3,2-2.46,2-.26,0-.54-.04-.86-.13v-1.38l.34.02c.45,0,.79-.08,1.01-.25.23-.16.41-.44.54-.82l.26-.68-2.78-7.88h1.92l1.68,5.38Z"/>
  </g>
  <g>
    <path class="cls-6" d="M101.17,15.92h4.84v1.48h-6.69V6.74h1.85v9.18Z"/>
    <path class="cls-6" d="M110.75,17.55c-1.13,0-2.04-.36-2.74-1.07-.7-.71-1.05-1.66-1.05-2.84v-.22c0-.79.15-1.5.46-2.12.3-.62.73-1.11,1.29-1.45s1.17-.52,1.85-.52c1.08,0,1.91.34,2.5,1.03.59.69.88,1.66.88,2.92v.72h-5.18c.05.65.27,1.17.66,1.55.38.38.87.57,1.45.57.82,0,1.48-.33,1.99-.99l.96.92c-.32.47-.74.84-1.27,1.1-.53.26-1.12.39-1.78.39ZM110.54,10.76c-.49,0-.88.17-1.18.51-.3.34-.49.82-.58,1.43h3.39v-.13c-.04-.6-.2-1.05-.48-1.35-.28-.3-.66-.46-1.16-.46Z"/>
    <path class="cls-6" d="M117.54,7.55v1.93h1.4v1.32h-1.4v4.42c0,.3.06.52.18.66.12.13.33.2.64.2.21,0,.41-.02.62-.07v1.38c-.41.11-.8.17-1.17.17-1.37,0-2.05-.75-2.05-2.26v-4.49h-1.3v-1.32h1.3v-1.93h1.78Z"/>
    <path class="cls-6" d="M125.03,17.4c-.08-.15-.15-.4-.21-.74-.57.59-1.26.89-2.08.89s-1.45-.23-1.95-.68-.75-1.02-.75-1.68c0-.84.31-1.49.94-1.95.63-.45,1.52-.68,2.69-.68h1.09v-.52c0-.41-.11-.74-.34-.99-.23-.25-.58-.37-1.05-.37-.41,0-.74.1-1,.3-.26.2-.39.46-.39.77h-1.78c0-.43.14-.84.43-1.22.29-.38.68-.67,1.18-.89.5-.21,1.05-.32,1.66-.32.93,0,1.67.23,2.22.7.55.47.83,1.12.85,1.97v3.57c0,.71.1,1.28.3,1.71v.12h-1.82ZM123.08,16.12c.35,0,.68-.09.99-.26.31-.17.54-.4.7-.69v-1.49h-.96c-.66,0-1.16.12-1.49.34s-.5.55-.5.97c0,.34.11.61.34.82.23.2.53.3.91.3Z"/>
    <path class="cls-6" d="M128.08,13.38c0-1.22.28-2.2.85-2.94.57-.74,1.33-1.11,2.28-1.11.84,0,1.52.29,2.04.88v-4.06h1.78v11.25h-1.61l-.09-.82c-.53.64-1.24.97-2.13.97s-1.68-.37-2.25-1.12c-.57-.75-.86-1.76-.86-3.05ZM129.86,13.53c0,.81.15,1.43.46,1.89.31.45.75.68,1.32.68.73,0,1.26-.32,1.6-.97v-3.38c-.33-.63-.85-.95-1.58-.95-.58,0-1.02.23-1.33.68-.31.46-.47,1.14-.47,2.06Z"/>
    <path class="cls-6" d="M138.77,17.4h-1.78V6.15h1.78v11.25Z"/>
    <path class="cls-6" d="M145.45,17.4c-.08-.15-.15-.4-.21-.74-.57.59-1.26.89-2.08.89s-1.45-.23-1.95-.68-.75-1.02-.75-1.68c0-.84.31-1.49.94-1.95.63-.45,1.52-.68,2.69-.68h1.09v-.52c0-.41-.12-.74-.34-.99-.23-.25-.58-.37-1.05-.37-.41,0-.74.1-1,.3-.26.2-.39.46-.39.77h-1.78c0-.43.14-.84.43-1.22.29-.38.68-.67,1.18-.89.5-.21,1.05-.32,1.66-.32.93,0,1.67.23,2.22.7.55.47.83,1.12.85,1.97v3.57c0,.71.1,1.28.3,1.71v.12h-1.82ZM143.49,16.12c.35,0,.68-.09.99-.26.31-.17.54-.4.7-.69v-1.49h-.96c-.66,0-1.15.12-1.49.34s-.5.55-.5.97c0,.34.11.61.34.82.23.2.53.3.91.3Z"/>
  </g>
  <g>
    <path class="cls-7" d="M602.91,14.92h-4.13l-.86,2.48h-1.93l4.03-10.66h1.66l4.04,10.66h-1.93l-.87-2.48ZM599.3,13.42h3.09l-1.54-4.42-1.55,4.42Z"/>
    <path class="cls-7" d="M611.47,16.62c-.52.62-1.26.92-2.23.92-.86,0-1.51-.25-1.95-.75-.44-.5-.66-1.23-.66-2.18v-5.13h1.78v5.11c0,1.01.42,1.51,1.25,1.51s1.45-.31,1.75-.93v-5.69h1.78v7.92h-1.68l-.04-.78Z"/>
    <path class="cls-7" d="M617.24,7.55v1.93h1.4v1.32h-1.4v4.42c0,.3.06.52.18.66.12.13.33.2.64.2.21,0,.41-.02.62-.07v1.38c-.41.11-.8.17-1.17.17-1.37,0-2.05-.75-2.05-2.26v-4.49h-1.3v-1.32h1.3v-1.93h1.78Z"/>
    <path class="cls-7" d="M619.44,13.36c0-.78.15-1.48.46-2.1.31-.62.74-1.1,1.3-1.44s1.2-.5,1.92-.5c1.07,0,1.94.34,2.6,1.03.67.69,1.03,1.6,1.08,2.74v.42c0,.78-.14,1.48-.44,2.09-.3.62-.73,1.09-1.29,1.43-.56.34-1.21.51-1.94.51-1.12,0-2.01-.37-2.68-1.12-.67-.74-1.01-1.74-1.01-2.98v-.09ZM621.22,13.52c0,.82.17,1.45.5,1.92.34.46.81.69,1.41.69s1.07-.23,1.4-.7c.33-.47.5-1.15.5-2.06,0-.8-.17-1.44-.52-1.9-.34-.47-.81-.7-1.4-.7s-1.04.23-1.38.69c-.34.46-.51,1.15-.51,2.07Z"/>
    <path class="cls-7" d="M635.27,13.52c0,1.23-.27,2.21-.82,2.94-.55.73-1.3,1.09-2.27,1.09s-1.65-.33-2.17-1l-.09.86h-1.61V6.15h1.78v4.09c.51-.61,1.2-.91,2.07-.91.97,0,1.73.36,2.28,1.08s.83,1.72.83,3.01v.1ZM633.49,13.36c0-.86-.15-1.5-.45-1.93s-.74-.64-1.32-.64c-.77,0-1.31.34-1.63,1.01v3.27c.32.69.86,1.03,1.64,1.03.56,0,.99-.21,1.29-.62s.46-1.04.47-1.88v-.23Z"/>
    <path class="cls-7" d="M641.56,16.62c-.52.62-1.26.92-2.23.92-.86,0-1.51-.25-1.95-.75-.44-.5-.66-1.23-.66-2.18v-5.13h1.78v5.11c0,1.01.42,1.51,1.25,1.51s1.45-.31,1.75-.93v-5.69h1.78v7.92h-1.68l-.04-.78Z"/>
    <path class="cls-7" d="M649.54,15.25c0-.32-.13-.56-.39-.73-.26-.17-.69-.31-1.3-.44s-1.11-.29-1.52-.48c-.89-.43-1.33-1.05-1.33-1.87,0-.68.29-1.25.86-1.71s1.31-.69,2.2-.69c.95,0,1.71.23,2.3.7.58.47.88,1.08.88,1.82h-1.78c0-.34-.13-.63-.38-.85-.25-.23-.59-.34-1.01-.34-.39,0-.71.09-.96.27-.25.18-.37.42-.37.73,0,.27.12.49.34.64s.69.3,1.39.46c.7.15,1.25.34,1.64.55.4.21.69.47.89.77.19.3.29.66.29,1.08,0,.71-.29,1.29-.89,1.73-.59.44-1.37.66-2.32.66-.65,0-1.23-.12-1.74-.35s-.9-.56-1.19-.97-.42-.85-.42-1.33h1.73c.02.42.18.74.48.97.29.23.68.34,1.17.34s.83-.09,1.07-.27c.24-.18.37-.41.37-.7Z"/>
    <path class="cls-7" d="M655.61,14.85l1.61-5.38h1.9l-3.15,9.13c-.48,1.33-1.3,2-2.46,2-.26,0-.54-.04-.86-.13v-1.38l.34.02c.45,0,.79-.08,1.01-.25.23-.16.41-.44.54-.82l.26-.68-2.78-7.88h1.92l1.68,5.38Z"/>
  </g>
  <g>
    <path class="cls-14" d="M105.82,47.76l.5-4.66h4.96v1.33h-3.68l-.25,2.21c.43-.25.91-.37,1.45-.37.88,0,1.56.28,2.05.84.49.56.73,1.32.73,2.27s-.27,1.69-.81,2.24c-.54.56-1.28.83-2.23.83-.85,0-1.55-.24-2.1-.72s-.86-1.11-.9-1.9h1.49c.06.45.22.79.48,1.03.26.24.61.36,1.03.36.47,0,.84-.17,1.11-.51.26-.34.4-.8.4-1.38s-.15-1.01-.44-1.34-.69-.49-1.21-.49c-.28,0-.52.04-.71.11-.19.07-.41.22-.63.43l-1.23-.3Z"/>
    <path class="cls-14" d="M116.97,52.35h-1.54v-7.42l-2.27.77v-1.29l3.61-1.33h.2v9.27Z"/>
    <path class="cls-14" d="M122.06,44.88c0-.56.18-1.02.54-1.37.36-.36.83-.54,1.42-.54s1.07.18,1.42.54.54.83.54,1.41v.46c0,.55-.18,1.01-.54,1.37s-.83.53-1.41.53-1.04-.17-1.41-.52c-.37-.35-.55-.82-.55-1.41v-.45ZM123.14,45.37c0,.29.08.53.24.71.16.18.38.27.64.27s.47-.09.63-.27c.16-.18.24-.43.24-.74v-.46c0-.29-.08-.53-.25-.71-.16-.18-.38-.27-.64-.27s-.48.09-.64.28c-.16.18-.24.43-.24.73v.47ZM124.34,51.65l-.79-.46,4.51-7.22.79.46-4.51,7.22ZM126.5,50.08c0-.57.18-1.03.55-1.38s.84-.53,1.41-.53,1.05.17,1.41.53c.37.35.55.83.55,1.42v.45c0,.55-.18,1-.53,1.36s-.83.54-1.42.54-1.07-.18-1.43-.53c-.36-.35-.54-.82-.54-1.4v-.46ZM127.58,50.57c0,.29.08.52.25.71.17.18.38.28.64.28s.48-.09.64-.26c.16-.18.23-.42.23-.74v-.48c0-.3-.08-.53-.25-.71s-.38-.27-.63-.27-.47.09-.64.27-.24.42-.24.74v.47Z"/>
  </g>
  <g>
    <path class="cls-14" d="M110.2,111.06v1.28h-.19c-.86.01-1.55.25-2.07.71-.52.46-.82,1.12-.92,1.96.5-.52,1.13-.78,1.9-.78.82,0,1.46.29,1.93.86s.71,1.32.71,2.23-.28,1.7-.83,2.28c-.55.58-1.28.87-2.17.87s-1.67-.34-2.24-1.02c-.57-.68-.86-1.57-.86-2.68v-.53c0-1.62.39-2.89,1.18-3.81s1.92-1.38,3.41-1.38h.16ZM108.55,115.47c-.34,0-.65.1-.93.29-.28.19-.49.45-.62.76v.47c0,.69.14,1.23.43,1.63.29.4.66.61,1.12.61s.82-.17,1.09-.51c.27-.34.4-.79.4-1.35s-.13-1.01-.41-1.36c-.27-.35-.63-.53-1.08-.53Z"/>
    <path class="cls-14" d="M114.58,115.02h.94c.47,0,.85-.13,1.13-.37.28-.24.42-.59.42-1.05s-.12-.78-.35-1.03c-.23-.24-.58-.36-1.06-.36-.41,0-.75.12-1.02.36s-.4.55-.4.94h-1.54c0-.47.13-.91.38-1.29.25-.39.6-.69,1.05-.91.45-.22.96-.33,1.51-.33.92,0,1.65.23,2.17.7.53.46.79,1.11.79,1.93,0,.42-.13.8-.4,1.17s-.61.64-1.03.83c.51.17.89.45,1.16.82.26.37.4.82.4,1.33,0,.83-.29,1.49-.85,1.98-.57.49-1.32.74-2.24.74s-1.62-.24-2.18-.71c-.57-.47-.85-1.1-.85-1.89h1.54c0,.41.14.74.41.99.27.25.64.38,1.1.38s.86-.13,1.13-.38c.28-.25.41-.62.41-1.1s-.14-.86-.43-1.12c-.29-.26-.72-.39-1.28-.39h-.91v-1.22Z"/>
    <path class="cls-14" d="M122.06,112.88c0-.56.18-1.02.54-1.37.36-.36.83-.54,1.42-.54s1.07.18,1.42.54.54.83.54,1.41v.46c0,.55-.18,1.01-.54,1.37s-.83.53-1.41.53-1.04-.17-1.41-.52c-.37-.35-.55-.82-.55-1.41v-.45ZM123.14,113.37c0,.29.08.53.24.71.16.18.38.27.64.27s.47-.09.63-.27c.16-.18.24-.43.24-.74v-.46c0-.29-.08-.53-.25-.71-.16-.18-.38-.27-.64-.27s-.48.09-.64.28c-.16.18-.24.43-.24.73v.47ZM124.34,119.65l-.79-.46,4.51-7.22.79.46-4.51,7.22ZM126.5,118.08c0-.57.18-1.03.55-1.38s.84-.53,1.41-.53,1.05.17,1.41.53c.37.35.55.83.55,1.42v.45c0,.55-.18,1-.53,1.36s-.83.54-1.42.54-1.07-.18-1.43-.53c-.36-.35-.54-.82-.54-1.4v-.46ZM127.58,118.57c0,.29.08.52.25.71.17.18.38.28.64.28s.48-.09.64-.26c.16-.18.23-.42.23-.74v-.48c0-.3-.08-.53-.25-.71s-.38-.27-.63-.27-.47.09-.64.27-.24.42-.24.74v.47Z"/>
  </g>
  <g>
    <path class="cls-10" d="M26.63,40.7v3.9h-1.31v-9.95h3.67c1.09,0,1.94.28,2.56.83.62.56.93,1.29.93,2.21,0,.97-.3,1.71-.91,2.23-.6.52-1.47.78-2.59.78h-2.34ZM26.63,39.63h2.36c.7,0,1.24-.17,1.61-.5.37-.33.56-.81.56-1.43,0-.59-.19-1.07-.56-1.42s-.89-.54-1.54-.55h-2.43v3.91Z"/>
    <path class="cls-10" d="M41.81,39.94c0,.98-.16,1.83-.49,2.55s-.79,1.28-1.39,1.66-1.3.57-2.11.57-1.48-.19-2.08-.58-1.08-.93-1.41-1.65c-.33-.71-.51-1.54-.52-2.48v-.72c0-.96.17-1.8.5-2.54s.8-1.3,1.41-1.69c.61-.39,1.3-.58,2.09-.58s1.5.19,2.11.58c.61.39,1.08.94,1.41,1.67s.49,1.58.49,2.55v.63ZM40.5,39.3c0-1.18-.24-2.09-.71-2.72s-1.14-.95-1.99-.95-1.48.32-1.96.95c-.48.63-.72,1.51-.74,2.63v.73c0,1.14.24,2.04.72,2.7.48.65,1.14.98,1.99.98s1.5-.31,1.97-.93.7-1.5.72-2.66v-.74Z"/>
    <path class="cls-10" d="M43.77,44.6v-9.95h2.81c.87,0,1.63.19,2.3.57s1.18.93,1.54,1.63c.36.71.55,1.52.55,2.43v.64c0,.94-.18,1.76-.54,2.47-.36.71-.88,1.25-1.55,1.63-.67.38-1.45.57-2.35.58h-2.75ZM45.09,35.72v7.81h1.38c1.01,0,1.8-.31,2.36-.94.56-.63.84-1.53.84-2.69v-.58c0-1.13-.27-2.01-.8-2.64-.53-.63-1.28-.95-2.26-.95h-1.53Z"/>
    <path class="cls-10" d="M54.32,31.9h1.53l-1.83,2.01h-1.02s1.32-2.01,1.32-2.01ZM54.36,44.6h-1.31v-9.95h1.31v9.95Z"/>
    <path class="cls-10" d="M58.08,43.53h4.72v1.07h-6.04v-9.95h1.32v8.88Z"/>
    <path class="cls-10" d="M75.41,44.6h-1.32l-5.01-7.67v7.67h-1.32v-9.95h1.32l5.02,7.7v-7.7h1.31v9.95Z"/>
    <path class="cls-10" d="M83.24,41.99h-4.17l-.94,2.6h-1.35l3.8-9.95h1.15l3.81,9.95h-1.35l-.95-2.6ZM79.47,40.92h3.38l-1.7-4.66-1.69,4.66Z"/>
    <path class="cls-8" d="M35.04,58.93l2.26-7.49h2.28l-3.47,9.95h-2.14l-3.45-9.95h2.28l2.24,7.49Z"/>
    <path class="cls-8" d="M43.95,55.93l2.07-4.48h2.24l-3.27,6.34v3.61h-2.08v-3.61l-3.27-6.34h2.25l2.06,4.48ZM44.36,48.78h2.15l-1.89,2.12h-1.61l1.35-2.12Z"/>
    <path class="cls-8" d="M52.29,57.41l-1.07,1.15v2.84h-2.05v-9.95h2.05v4.51l.9-1.24,2.54-3.27h2.52l-3.53,4.42,3.64,5.53h-2.44l-2.56-3.99Z"/>
    <path class="cls-8" d="M66.02,56.65c0,.98-.17,1.84-.52,2.58s-.84,1.31-1.49,1.71c-.65.4-1.38.6-2.22.6s-1.56-.2-2.21-.59-1.15-.96-1.5-1.7-.54-1.58-.54-2.54v-.49c0-.98.18-1.84.53-2.59.35-.75.85-1.32,1.5-1.72.64-.4,1.38-.6,2.21-.6s1.57.2,2.21.6c.65.4,1.14.97,1.5,1.72.35.75.53,1.61.53,2.58v.44ZM63.94,56.2c0-1.04-.19-1.84-.56-2.38s-.91-.81-1.6-.81-1.22.27-1.59.8-.56,1.32-.57,2.35v.49c0,1.02.19,1.8.56,2.37s.91.84,1.61.84,1.22-.27,1.59-.81.56-1.33.56-2.36v-.49Z"/>
    <path class="cls-8" d="M75.6,61.4h-2.05l-3.99-6.55v6.55h-2.05v-9.95h2.05l4,6.56v-6.56h2.04v9.95Z"/>
    <path class="cls-8" d="M84.93,51.45v6.56c0,1.09-.34,1.95-1.02,2.58-.68.63-1.61.95-2.79.95s-2.08-.31-2.77-.92-1.03-1.46-1.05-2.54v-6.63h2.05v6.57c0,.65.16,1.13.47,1.43.31.3.74.45,1.29.45,1.15,0,1.74-.61,1.76-1.82v-6.62h2.06Z"/>
  </g>
  <g>
    <path class="cls-10" d="M26.63,108.7v3.9h-1.31v-9.95h3.67c1.09,0,1.94.28,2.56.83.62.56.93,1.29.93,2.21,0,.97-.3,1.71-.91,2.23-.6.52-1.47.78-2.59.78h-2.34ZM26.63,107.63h2.36c.7,0,1.24-.17,1.61-.5.37-.33.56-.81.56-1.43,0-.59-.19-1.07-.56-1.42s-.89-.54-1.54-.55h-2.43v3.91Z"/>
    <path class="cls-10" d="M41.81,107.94c0,.98-.16,1.83-.49,2.55s-.79,1.28-1.39,1.66-1.3.57-2.11.57-1.48-.19-2.08-.58-1.08-.93-1.41-1.65c-.33-.71-.51-1.54-.52-2.48v-.72c0-.96.17-1.8.5-2.54s.8-1.3,1.41-1.69c.61-.39,1.3-.58,2.09-.58s1.5.19,2.11.58c.61.39,1.08.94,1.41,1.67s.49,1.58.49,2.55v.63ZM40.5,107.3c0-1.18-.24-2.09-.71-2.72s-1.14-.95-1.99-.95-1.48.32-1.96.95c-.48.63-.72,1.51-.74,2.63v.73c0,1.14.24,2.04.72,2.7.48.65,1.14.98,1.99.98s1.5-.31,1.97-.93.7-1.5.72-2.66v-.74Z"/>
    <path class="cls-10" d="M43.77,112.6v-9.95h2.81c.87,0,1.63.19,2.3.57s1.18.93,1.54,1.63c.36.71.55,1.52.55,2.43v.64c0,.94-.18,1.76-.54,2.47-.36.71-.88,1.25-1.55,1.63-.67.38-1.45.57-2.35.58h-2.75ZM45.09,103.72v7.81h1.38c1.01,0,1.8-.31,2.36-.94.56-.63.84-1.53.84-2.69v-.58c0-1.13-.27-2.01-.8-2.64-.53-.63-1.28-.95-2.26-.95h-1.53Z"/>
    <path class="cls-10" d="M54.32,99.9h1.53l-1.83,2.01h-1.02s1.32-2.01,1.32-2.01ZM54.36,112.6h-1.31v-9.95h1.31v9.95Z"/>
    <path class="cls-10" d="M58.08,111.53h4.72v1.07h-6.04v-9.95h1.32v8.88Z"/>
    <path class="cls-10" d="M75.41,112.6h-1.32l-5.01-7.67v7.67h-1.32v-9.95h1.32l5.02,7.7v-7.7h1.31v9.95Z"/>
    <path class="cls-10" d="M83.24,109.99h-4.17l-.94,2.6h-1.35l3.8-9.95h1.15l3.81,9.95h-1.35l-.95-2.6ZM79.47,108.92h3.38l-1.7-4.66-1.69,4.66Z"/>
    <path class="cls-8" d="M36.64,125.09h-3.94v2.67h4.62v1.65h-6.67v-9.95h6.66v1.66h-4.61v2.37h3.94v1.61Z"/>
    <path class="cls-8" d="M41.2,119.45l2.56,7.22,2.54-7.22h2.69v9.95h-2.06v-2.72l.21-4.7-2.69,7.42h-1.41l-2.68-7.41.21,4.69v2.72h-2.05v-9.95h2.68Z"/>
    <path class="cls-8" d="M52.97,129.4h-2.05v-9.95h2.05v9.95Z"/>
    <path class="cls-8" d="M60.03,126.79c0-.39-.14-.68-.41-.89s-.77-.43-1.48-.66-1.27-.46-1.69-.68c-1.13-.61-1.7-1.43-1.7-2.47,0-.54.15-1.02.46-1.44.3-.42.74-.75,1.3-.99.57-.24,1.21-.36,1.91-.36s1.34.13,1.9.39.99.62,1.3,1.09c.31.47.46,1,.46,1.6h-2.05c0-.46-.14-.81-.43-1.06s-.69-.38-1.21-.38-.89.11-1.17.32-.42.49-.42.84c0,.32.16.59.49.81.33.22.81.42,1.44.62,1.17.35,2.02.79,2.55,1.31s.8,1.17.8,1.94c0,.86-.33,1.54-.98,2.03s-1.53.73-2.63.73c-.77,0-1.46-.14-2.09-.42s-1.11-.66-1.44-1.15c-.33-.49-.5-1.05-.5-1.7h2.06c0,1.1.66,1.65,1.97,1.65.49,0,.87-.1,1.14-.3s.41-.48.41-.83Z"/>
    <path class="cls-8" d="M65.66,129.4h-2.05v-9.95h2.05v9.95ZM65.02,116.76h2.15l-1.89,2.12h-1.61l1.35-2.12Z"/>
    <path class="cls-8" d="M75.37,126.08c-.08,1.07-.47,1.91-1.19,2.53-.71.62-1.65.92-2.82.92-1.28,0-2.28-.43-3.01-1.29-.73-.86-1.1-2.04-1.1-3.54v-.61c0-.96.17-1.8.51-2.53s.82-1.29,1.45-1.68c.63-.39,1.36-.58,2.18-.58,1.15,0,2.07.31,2.78.92s1.11,1.48,1.22,2.59h-2.05c-.05-.64-.23-1.11-.54-1.4-.31-.29-.78-.43-1.41-.43-.68,0-1.2.25-1.53.73-.34.49-.51,1.25-.52,2.28v.75c0,1.08.16,1.86.49,2.36.33.5.84.75,1.54.75.63,0,1.11-.14,1.42-.43.31-.29.49-.74.54-1.34h2.05Z"/>
    <path class="cls-8" d="M84.82,129.4h-2.05v-4.27h-4v4.27h-2.05v-9.95h2.05v4.03h4v-4.03h2.05v9.95Z"/>
  </g>
  <path class="cls-12" d="M375.72,70.55V26.55h174.39v44h-174.39Z"/>
  <path class="cls-2" d="M375.72,70.55V26.55h174.39v44h-174.39Z"/>
  <path class="cls-2" d="M445.92,138.55v-44h174.39v44h-174.39Z"/>
  <path class="cls-5" d="M550.11,70.55V26.55h65.81v44h-65.81Z"/>
  <path class="cls-5" d="M620.31,138.55v-44h10.97v44h-10.97Z"/>
  <path class="cls-11" d="M615.92,70.55V26.55h31.81v44h-31.81Z"/>
  <path class="cls-4" d="M615.92,70.55V26.55h31.81v44h-31.81Z"/>
  <path class="cls-4" d="M631.27,138.55v-44h16.45v44h-16.45Z"/>
  <g>
    <path class="cls-14" d="M457.9,115.02h.94c.47,0,.85-.13,1.13-.37s.42-.59.42-1.05-.12-.78-.35-1.03c-.23-.24-.58-.36-1.06-.36-.42,0-.76.12-1.02.36-.27.24-.4.55-.4.94h-1.54c0-.47.13-.91.38-1.29.25-.39.6-.69,1.05-.91.45-.22.96-.33,1.52-.33.92,0,1.65.23,2.18.7.53.46.79,1.11.79,1.93,0,.41-.13.81-.4,1.17-.27.37-.61.64-1.03.83.51.17.9.45,1.16.82s.4.82.4,1.33c0,.83-.29,1.49-.85,1.98-.57.49-1.32.74-2.25.74s-1.62-.24-2.19-.71c-.57-.47-.85-1.1-.85-1.89h1.54c0,.41.14.74.41.99s.64.38,1.1.38.86-.13,1.13-.38.41-.62.41-1.1-.14-.86-.43-1.12-.72-.39-1.28-.39h-.91v-1.22Z"/>
    <path class="cls-14" d="M469.74,120.35h-6.22v-1.06l3.08-3.36c.45-.5.76-.91.95-1.24.19-.33.28-.67.28-1,0-.44-.12-.8-.37-1.07-.25-.27-.58-.41-1-.41-.5,0-.89.15-1.16.46s-.41.72-.41,1.25h-1.54c0-.56.13-1.07.38-1.52.26-.45.62-.8,1.1-1.05s1.03-.37,1.65-.37c.9,0,1.61.23,2.13.68.52.45.78,1.07.78,1.87,0,.46-.13.94-.39,1.45-.26.51-.69,1.08-1.28,1.72l-2.26,2.42h4.3v1.23Z"/>
    <path class="cls-14" d="M472.79,112.88c0-.56.18-1.02.54-1.37.36-.36.83-.54,1.42-.54s1.07.18,1.43.54c.36.36.54.83.54,1.41v.46c0,.55-.18,1.01-.54,1.36-.36.36-.83.53-1.42.53s-1.04-.17-1.41-.52c-.37-.35-.56-.82-.56-1.41v-.45ZM473.87,113.37c0,.29.08.53.25.71.16.18.38.27.64.27s.47-.09.64-.27.24-.43.24-.73v-.46c0-.29-.08-.53-.25-.71-.16-.18-.38-.27-.65-.27s-.48.09-.64.28-.24.43-.24.73v.47ZM475.08,119.65l-.79-.46,4.52-7.22.79.46-4.52,7.22ZM477.24,118.08c0-.57.18-1.03.55-1.38.37-.35.84-.53,1.41-.53s1.05.18,1.41.53c.37.35.55.83.55,1.42v.45c0,.55-.18,1-.53,1.36-.35.36-.83.54-1.42.54s-1.07-.18-1.43-.53c-.36-.35-.54-.82-.54-1.4v-.46ZM478.32,118.57c0,.29.08.52.25.71.17.18.38.28.65.28s.48-.09.64-.26c.16-.18.23-.42.23-.74v-.48c0-.3-.08-.53-.25-.71s-.38-.27-.64-.27-.48.09-.64.27-.25.42-.25.74v.47Z"/>
  </g>
  <path class="cls-14" d="M638.85,115.02h.94c.47,0,.85-.13,1.13-.37s.42-.59.42-1.05-.12-.78-.35-1.03c-.23-.24-.58-.36-1.06-.36-.42,0-.76.12-1.02.36-.27.24-.4.55-.4.94h-1.54c0-.47.13-.91.38-1.29.25-.39.6-.69,1.05-.91.45-.22.96-.33,1.52-.33.92,0,1.65.23,2.18.7.53.46.79,1.11.79,1.93,0,.41-.13.81-.4,1.17-.27.37-.61.64-1.03.83.51.17.9.45,1.16.82s.4.82.4,1.33c0,.83-.29,1.49-.85,1.98-.57.49-1.32.74-2.25.74s-1.62-.24-2.19-.71c-.57-.47-.85-1.1-.85-1.89h1.54c0,.41.14.74.41.99s.64.38,1.1.38.86-.13,1.13-.38.41-.62.41-1.1-.14-.86-.43-1.12-.72-.39-1.28-.39h-.91v-1.22Z"/>
  <path class="cls-14" d="M629.71,120.35h-6.22v-1.06l3.08-3.36c.45-.5.76-.91.95-1.24.19-.33.28-.67.28-1,0-.44-.12-.8-.37-1.07-.25-.27-.58-.41-1-.41-.5,0-.89.15-1.16.46s-.41.72-.41,1.25h-1.54c0-.56.13-1.07.38-1.52.26-.45.62-.8,1.1-1.05s1.03-.37,1.65-.37c.9,0,1.61.23,2.13.68.52.45.78,1.07.78,1.87,0,.46-.13.94-.39,1.45-.26.51-.69,1.08-1.28,1.72l-2.26,2.42h4.3v1.23Z"/>
  <g>
    <path class="cls-14" d="M387.3,47.02h.94c.47,0,.85-.13,1.13-.37s.42-.59.42-1.05-.12-.78-.35-1.03c-.23-.24-.58-.36-1.06-.36-.42,0-.76.12-1.02.36-.27.24-.4.55-.4.94h-1.54c0-.47.13-.91.38-1.29.25-.39.6-.69,1.05-.91.45-.22.96-.33,1.52-.33.92,0,1.65.23,2.18.7.53.46.79,1.11.79,1.93,0,.41-.13.81-.4,1.17-.27.37-.61.64-1.03.83.51.17.9.45,1.16.82s.4.82.4,1.33c0,.83-.29,1.49-.85,1.98-.57.49-1.32.74-2.25.74s-1.62-.24-2.19-.71c-.57-.47-.85-1.1-.85-1.89h1.54c0,.41.14.74.41.99s.64.38,1.1.38.86-.13,1.13-.38.41-.62.41-1.1-.14-.86-.43-1.12-.72-.39-1.28-.39h-.91v-1.22Z"/>
    <path class="cls-14" d="M399.13,52.35h-6.22v-1.06l3.08-3.36c.45-.5.76-.91.95-1.24.19-.33.28-.67.28-1,0-.44-.12-.8-.37-1.07-.25-.27-.58-.41-1-.41-.5,0-.89.15-1.16.46s-.41.72-.41,1.25h-1.54c0-.56.13-1.07.38-1.52.26-.45.62-.8,1.1-1.05s1.03-.37,1.65-.37c.9,0,1.61.23,2.13.68.52.45.78,1.07.78,1.87,0,.46-.13.94-.39,1.45-.26.51-.69,1.08-1.28,1.72l-2.26,2.42h4.3v1.23Z"/>
    <path class="cls-14" d="M402.18,44.88c0-.56.18-1.02.54-1.37.36-.36.83-.54,1.42-.54s1.07.18,1.43.54c.36.36.54.83.54,1.41v.46c0,.55-.18,1.01-.54,1.36-.36.36-.83.53-1.42.53s-1.04-.17-1.41-.52c-.37-.35-.56-.82-.56-1.41v-.45ZM403.27,45.37c0,.29.08.53.25.71.16.18.38.27.64.27s.47-.09.64-.27.24-.43.24-.73v-.46c0-.29-.08-.53-.25-.71-.16-.18-.38-.27-.65-.27s-.48.09-.64.28-.24.43-.24.73v.47ZM404.47,51.65l-.79-.46,4.52-7.22.79.46-4.52,7.22ZM406.63,50.08c0-.57.18-1.03.55-1.38.37-.35.84-.53,1.41-.53s1.05.18,1.41.53c.37.35.55.83.55,1.42v.45c0,.55-.18,1-.53,1.36-.35.36-.83.54-1.42.54s-1.07-.18-1.43-.53c-.36-.35-.54-.82-.54-1.4v-.46ZM407.72,50.57c0,.29.08.52.25.71.17.18.38.28.65.28s.48-.09.64-.26c.16-.18.23-.42.23-.74v-.48c0-.3-.08-.53-.25-.71s-.38-.27-.64-.27-.48.09-.64.27-.25.42-.25.74v.47Z"/>
  </g>
  <g>
    <path class="cls-14" d="M560.31,52.35h-1.54v-7.42l-2.27.77v-1.29l3.61-1.33h.2v9.27Z"/>
    <path class="cls-14" d="M569.75,52.35h-6.22v-1.06l3.08-3.36c.45-.5.76-.91.95-1.24.19-.33.28-.67.28-1,0-.44-.12-.8-.37-1.07-.25-.27-.58-.41-1-.41-.5,0-.89.15-1.16.46s-.41.72-.41,1.25h-1.54c0-.56.13-1.07.38-1.52.26-.45.62-.8,1.1-1.05s1.03-.37,1.65-.37c.9,0,1.61.23,2.13.68.52.45.78,1.07.78,1.87,0,.46-.13.94-.39,1.45-.26.51-.69,1.08-1.28,1.72l-2.26,2.42h4.3v1.23Z"/>
    <path class="cls-14" d="M572.81,44.88c0-.56.18-1.02.54-1.37.36-.36.83-.54,1.42-.54s1.07.18,1.43.54c.36.36.54.83.54,1.41v.46c0,.55-.18,1.01-.54,1.36-.36.36-.83.53-1.42.53s-1.04-.17-1.41-.52c-.37-.35-.56-.82-.56-1.41v-.45ZM573.89,45.37c0,.29.08.53.25.71.16.18.38.27.64.27s.47-.09.64-.27.24-.43.24-.73v-.46c0-.29-.08-.53-.25-.71-.16-.18-.38-.27-.65-.27s-.48.09-.64.28-.24.43-.24.73v.47ZM575.09,51.65l-.79-.46,4.52-7.22.79.46-4.52,7.22ZM577.26,50.08c0-.57.18-1.03.55-1.38.37-.35.84-.53,1.41-.53s1.05.18,1.41.53c.37.35.55.83.55,1.42v.45c0,.55-.18,1-.53,1.36-.35.36-.83.54-1.42.54s-1.07-.18-1.43-.53c-.36-.35-.54-.82-.54-1.4v-.46ZM578.34,50.57c0,.29.08.52.25.71.17.18.38.28.65.28s.48-.09.64-.26c.16-.18.23-.42.23-.74v-.48c0-.3-.08-.53-.25-.71s-.38-.27-.64-.27-.48.09-.64.27-.25.42-.25.74v.47Z"/>
  </g>
  <g>
    <path class="cls-14" d="M631.29,43.06v1.28h-.19c-.86.01-1.55.25-2.07.71-.52.46-.82,1.12-.92,1.96.5-.52,1.13-.78,1.9-.78.82,0,1.46.29,1.94.86.47.58.71,1.32.71,2.23s-.28,1.7-.83,2.28c-.55.58-1.28.87-2.18.87s-1.67-.34-2.25-1.02-.86-1.57-.86-2.68v-.53c0-1.62.39-2.89,1.19-3.81.79-.92,1.93-1.38,3.41-1.38h.16ZM629.63,47.47c-.34,0-.65.1-.93.29-.28.19-.49.44-.62.76v.47c0,.69.14,1.23.43,1.63.29.4.66.61,1.12.61s.82-.17,1.09-.51c.27-.34.4-.79.4-1.35s-.14-1.01-.41-1.36-.63-.53-1.08-.53Z"/>
    <path class="cls-14" d="M635.76,44.88c0-.56.18-1.02.54-1.37.36-.36.83-.54,1.42-.54s1.07.18,1.43.54c.36.36.54.83.54,1.41v.46c0,.55-.18,1.01-.54,1.36-.36.36-.83.53-1.42.53s-1.04-.17-1.41-.52c-.37-.35-.56-.82-.56-1.41v-.45ZM636.84,45.37c0,.29.08.53.25.71.16.18.38.27.64.27s.47-.09.64-.27.24-.43.24-.73v-.46c0-.29-.08-.53-.25-.71-.16-.18-.38-.27-.65-.27s-.48.09-.64.28-.24.43-.24.73v.47ZM638.05,51.65l-.79-.46,4.52-7.22.79.46-4.52,7.22ZM640.21,50.08c0-.57.18-1.03.55-1.38.37-.35.84-.53,1.41-.53s1.05.18,1.41.53c.37.35.55.83.55,1.42v.45c0,.55-.18,1-.53,1.36-.35.36-.83.54-1.42.54s-1.07-.18-1.43-.53c-.36-.35-.54-.82-.54-1.4v-.46ZM641.29,50.57c0,.29.08.52.25.71.17.18.38.28.65.28s.48-.09.64-.26c.16-.18.23-.42.23-.74v-.48c0-.3-.08-.53-.25-.71s-.38-.27-.64-.27-.48.09-.64.27-.25.42-.25.74v.47Z"/>
  </g>
  <use width="564.82" height="24" transform="translate(94.28 147.32)" xlink:href="#New_Symbol"/>
</svg>