<svg id="Layer_1" data-name="Layer 1" xmlns="http://www.w3.org/2000/svg" viewBox="0 0 740 581.21"><defs><style>.cls-1{fill:#fff;}.cls-2{fill:#fbe8c7;}.cls-22,.cls-28,.cls-3{fill:none;stroke-miterlimit:10;}.cls-28,.cls-3{stroke:#606161;}.cls-4{fill:#606161;}.cls-23,.cls-5{font-size:18px;}.cls-5,.cls-8,.cls-9{fill:#231f20;}.cls-23,.cls-5,.cls-8{font-family:Roboto-Bold, Roboto;font-weight:700;}.cls-10,.cls-29,.cls-6{font-family:Roboto-Regular, Roboto;}.cls-10,.cls-6{font-weight:400;}.cls-7{letter-spacing:-0.02em;}.cls-29,.cls-8,.cls-9{font-size:16px;}.cls-8{letter-spacing:0.1em;}.cls-9{font-family:Roboto-Medium, Roboto;font-weight:500;}.cls-10{fill:#58595b;}.cls-11{letter-spacing:-0.01em;}.cls-12{letter-spacing:-0.01em;}.cls-13{letter-spacing:0.01em;}.cls-14{fill:#f4b3a0;}.cls-15{fill:#010101;}.cls-16{letter-spacing:-0.04em;}.cls-17{letter-spacing:0.1em;}.cls-18{letter-spacing:0.09em;}.cls-19{letter-spacing:0.09em;}.cls-20{fill:#f8d2b6;}.cls-21{opacity:0.4;}.cls-22{stroke:#010101;stroke-width:0.5px;}.cls-23{fill:#414042;letter-spacing:0.07em;}.cls-24{letter-spacing:0.04em;}.cls-25{letter-spacing:0.08em;}.cls-26{letter-spacing:0.07em;}.cls-27{letter-spacing:0.08em;}.cls-28{stroke-linecap:round;stroke-dasharray:0 3;}.cls-29{fill:#808285;}.cls-30{letter-spacing:-0.02em;}.cls-31{letter-spacing:-0.01em;}.cls-32{letter-spacing:-0.01em;}</style></defs><rect class="cls-1" width="740" height="581.21"/><rect class="cls-1" width="740" height="581.21"/><circle class="cls-2" cx="298.95" cy="95.55" r="20.02"/><line class="cls-3" x1="272.93" y1="90.12" x2="325.47" y2="90.12"/><polygon class="cls-4" points="322.16 94.21 321.47 93.48 325.09 90.12 321.47 86.76 322.16 86.03 326.55 90.12 322.16 94.21"/><line class="cls-3" x1="272.93" y1="100.99" x2="325.47" y2="100.99"/><polygon class="cls-4" points="322.16 105.08 321.47 104.35 325.09 100.99 321.47 97.63 322.16 96.9 326.55 100.99 322.16 105.08"/><circle class="cls-2" cx="585.18" cy="95.55" r="20.02"/><path class="cls-3" d="M552.39,95.55c6-14.41,24.94-14.57,32.16,0,6.11,12.32,23.12,16.16,32.86.93"/><polygon class="cls-4" points="618.88 101.49 617.89 101.64 617.15 96.77 612.35 97.86 612.12 96.88 617.98 95.55 618.88 101.49"/><text class="cls-5" transform="translate(247.26 137.07)">Fixní <tspan class="cls-6" x="43.29" y="0">náklady</tspan></text><text class="cls-5" transform="translate(518.45 137.07)"><tspan class="cls-7">V</tspan><tspan x="11.36" y="0">ariabilní </tspan><tspan class="cls-6" x="81.18" y="0">náklady</tspan></text><text class="cls-8" transform="translate(94.59 252.41)">JÁDRO</text><text class="cls-9" transform="translate(516.16 249.01)">Nízké<tspan class="cls-10"><tspan x="0" y="23.91">pali</tspan><tspan class="cls-11" x="25.45" y="23.91">vo</tspan><tspan class="cls-12" x="42.09" y="23.91">v</tspan><tspan x="49.73" y="23.91">é soubo</tspan><tspan class="cls-13" x="106.47" y="23.91">r</tspan><tspan x="112.02" y="23.91">y</tspan></tspan></text><text class="cls-9" transform="translate(244.73 249.01)">Vysoké<tspan class="cls-10"><tspan x="0" y="23.91">st</tspan><tspan class="cls-11" x="13.48" y="23.91">a</tspan><tspan x="22.06" y="23.91">vba, zaměstnanci</tspan></tspan></text><circle class="cls-14" cx="355.8" cy="244.81" r="8.24"/><path class="cls-15" d="M354.43,235.2a8.24,8.24,0,1,0,8.24,8.24A8.24,8.24,0,0,0,354.43,235.2Zm0,.63a7.61,7.61,0,1,1-7.61,7.61A7.6,7.6,0,0,1,354.43,235.83Zm0,3.17a.32.32,0,0,0-.32.32V240a2.32,2.32,0,0,0-1.23.48,1.8,1.8,0,0,0-.65,1.4,1.5,1.5,0,0,0,.74,1.32,8.21,8.21,0,0,0,1.34.55c.72.27,1.68.56,1.69,1.3a1.11,1.11,0,0,1-.43.9,1.77,1.77,0,0,1-1.14.37,2,2,0,0,1-1.63-.91.31.31,0,0,0-.44-.15.33.33,0,0,0-.08.48,2.51,2.51,0,0,0,1.84,1.18s0,0,0,0v.64a.32.32,0,0,0,.63,0v-.66a2.32,2.32,0,0,0,1.23-.48,1.77,1.77,0,0,0,.65-1.4,1.52,1.52,0,0,0-.74-1.33,8.76,8.76,0,0,0-1.34-.55c-.71-.26-1.68-.56-1.69-1.29a1.11,1.11,0,0,1,.44-.91,1.8,1.8,0,0,1,1.14-.36,1.94,1.94,0,0,1,1.62.91.32.32,0,0,0,.45.14.34.34,0,0,0,.08-.47,2.55,2.55,0,0,0-1.85-1.18s0,0,0,0v-.63a.31.31,0,0,0-.31-.32Z"/><circle class="cls-14" cx="335.8" cy="244.81" r="8.24"/><path class="cls-15" d="M334.43,235.2a8.24,8.24,0,1,0,8.24,8.24A8.24,8.24,0,0,0,334.43,235.2Zm0,.63a7.61,7.61,0,1,1-7.61,7.61A7.6,7.6,0,0,1,334.43,235.83Zm0,3.17a.32.32,0,0,0-.32.32V240a2.32,2.32,0,0,0-1.23.48,1.8,1.8,0,0,0-.65,1.4,1.5,1.5,0,0,0,.74,1.32,8.21,8.21,0,0,0,1.34.55c.72.27,1.68.56,1.69,1.3a1.11,1.11,0,0,1-.43.9,1.77,1.77,0,0,1-1.14.37,2,2,0,0,1-1.63-.91.31.31,0,0,0-.44-.15.33.33,0,0,0-.08.48,2.51,2.51,0,0,0,1.84,1.18s0,0,0,0v.64a.32.32,0,0,0,.63,0v-.66a2.32,2.32,0,0,0,1.23-.48,1.77,1.77,0,0,0,.65-1.4,1.52,1.52,0,0,0-.74-1.33,8.76,8.76,0,0,0-1.34-.55c-.71-.26-1.68-.56-1.69-1.29a1.11,1.11,0,0,1,.44-.91,1.8,1.8,0,0,1,1.14-.36,1.94,1.94,0,0,1,1.62.91.32.32,0,0,0,.45.14.34.34,0,0,0,.08-.47,2.55,2.55,0,0,0-1.85-1.18s0,0,0,0v-.63a.31.31,0,0,0-.31-.32Z"/><circle class="cls-14" cx="315.8" cy="244.81" r="8.24"/><path class="cls-15" d="M314.43,235.2a8.24,8.24,0,1,0,8.24,8.24A8.24,8.24,0,0,0,314.43,235.2Zm0,.63a7.61,7.61,0,1,1-7.61,7.61A7.6,7.6,0,0,1,314.43,235.83Zm0,3.17a.32.32,0,0,0-.32.32V240a2.32,2.32,0,0,0-1.23.48,1.8,1.8,0,0,0-.65,1.4,1.5,1.5,0,0,0,.74,1.32,8.21,8.21,0,0,0,1.34.55c.72.27,1.68.56,1.69,1.3a1.11,1.11,0,0,1-.43.9,1.77,1.77,0,0,1-1.14.37,2,2,0,0,1-1.63-.91.31.31,0,0,0-.44-.15.33.33,0,0,0-.08.48,2.51,2.51,0,0,0,1.84,1.18s0,0,0,0v.64a.32.32,0,0,0,.63,0v-.66a2.32,2.32,0,0,0,1.23-.48,1.77,1.77,0,0,0,.65-1.4,1.52,1.52,0,0,0-.74-1.33,8.76,8.76,0,0,0-1.34-.55c-.71-.26-1.68-.56-1.69-1.29a1.11,1.11,0,0,1,.44-.91,1.8,1.8,0,0,1,1.14-.36,1.94,1.94,0,0,1,1.62.91.32.32,0,0,0,.45.14.34.34,0,0,0,.08-.47,2.55,2.55,0,0,0-1.85-1.18s0,0,0,0v-.63a.31.31,0,0,0-.31-.32Z"/><circle class="cls-2" cx="573.58" cy="245.5" r="8.24"/><path class="cls-15" d="M572.2,235.88a8.25,8.25,0,1,0,8.24,8.25A8.26,8.26,0,0,0,572.2,235.88Zm0,.64a7.61,7.61,0,1,1-7.6,7.61A7.6,7.6,0,0,1,572.2,236.52Zm0,3.17a.31.31,0,0,0-.31.32v.65a2.31,2.31,0,0,0-1.23.47,1.79,1.79,0,0,0-.65,1.41,1.51,1.51,0,0,0,.74,1.32,7.86,7.86,0,0,0,1.34.55c.72.27,1.68.56,1.69,1.3a1.09,1.09,0,0,1-.44.9,1.81,1.81,0,0,1-1.14.37,2,2,0,0,1-1.62-.91.32.32,0,0,0-.45-.15.33.33,0,0,0-.07.47,2.49,2.49,0,0,0,1.84,1.19s0,0,0,0v.64a.32.32,0,0,0,.63,0v-.66a2.32,2.32,0,0,0,1.23-.48,1.8,1.8,0,0,0,.65-1.4,1.54,1.54,0,0,0-.74-1.33,7.86,7.86,0,0,0-1.34-.55c-.72-.27-1.68-.56-1.69-1.29a1.11,1.11,0,0,1,.44-.91,1.77,1.77,0,0,1,1.13-.36,2,2,0,0,1,1.63.9.31.31,0,0,0,.44.15.32.32,0,0,0,.08-.47,2.48,2.48,0,0,0-1.84-1.18s0,0,0,0V240a.32.32,0,0,0-.32-.32Z"/><text class="cls-8" transform="translate(112.39 413.12)">UHLÍ</text><text class="cls-9" transform="translate(516.16 409.72)">Vysoké<tspan class="cls-10"><tspan x="0" y="23.91">uhlí, méně p</tspan><tspan class="cls-11" x="85.31" y="23.91">ov</tspan><tspan x="101.95" y="23.91">olenky</tspan></tspan></text><circle class="cls-14" cx="629.34" cy="405.16" r="8.24"/><path class="cls-15" d="M628,395.54a8.24,8.24,0,1,0,8.24,8.24A8.24,8.24,0,0,0,628,395.54Zm0,.63a7.61,7.61,0,1,1-7.61,7.61A7.61,7.61,0,0,1,628,396.17Zm0,3.17a.32.32,0,0,0-.32.32v.65a2.32,2.32,0,0,0-1.23.48,1.8,1.8,0,0,0-.65,1.41,1.5,1.5,0,0,0,.74,1.31,7.9,7.9,0,0,0,1.34.56c.72.26,1.68.55,1.69,1.3a1.11,1.11,0,0,1-.44.9,1.77,1.77,0,0,1-1.13.36,1.94,1.94,0,0,1-1.63-.91.32.32,0,0,0-.44-.15.33.33,0,0,0-.08.48,2.55,2.55,0,0,0,1.84,1.19v.66a.32.32,0,1,0,.63,0v-.65a2.33,2.33,0,0,0,1.23-.49,1.75,1.75,0,0,0,.65-1.39,1.5,1.5,0,0,0-.74-1.33,7.9,7.9,0,0,0-1.34-.56c-.71-.26-1.68-.55-1.69-1.28a1.14,1.14,0,0,1,.44-.92,1.8,1.8,0,0,1,1.14-.35,1.93,1.93,0,0,1,1.62.9.32.32,0,0,0,.45.15.34.34,0,0,0,.07-.48,2.54,2.54,0,0,0-1.84-1.18s0,0,0,0v-.63a.32.32,0,0,0-.31-.32Z"/><circle class="cls-14" cx="609.34" cy="405.16" r="8.24"/><path class="cls-15" d="M608,395.54a8.24,8.24,0,1,0,8.24,8.24A8.24,8.24,0,0,0,608,395.54Zm0,.63a7.61,7.61,0,1,1-7.61,7.61A7.61,7.61,0,0,1,608,396.17Zm0,3.17a.32.32,0,0,0-.32.32v.65a2.32,2.32,0,0,0-1.23.48,1.8,1.8,0,0,0-.65,1.41,1.5,1.5,0,0,0,.74,1.31,7.9,7.9,0,0,0,1.34.56c.72.26,1.68.55,1.69,1.3a1.11,1.11,0,0,1-.44.9,1.77,1.77,0,0,1-1.13.36,1.94,1.94,0,0,1-1.63-.91.32.32,0,0,0-.44-.15.33.33,0,0,0-.08.48,2.55,2.55,0,0,0,1.84,1.19v.66a.32.32,0,1,0,.63,0v-.65a2.33,2.33,0,0,0,1.23-.49,1.75,1.75,0,0,0,.65-1.39,1.5,1.5,0,0,0-.74-1.33,7.9,7.9,0,0,0-1.34-.56c-.71-.26-1.68-.55-1.69-1.28a1.14,1.14,0,0,1,.44-.92,1.8,1.8,0,0,1,1.14-.35,1.93,1.93,0,0,1,1.62.9.32.32,0,0,0,.45.15.34.34,0,0,0,.07-.48,2.54,2.54,0,0,0-1.84-1.18s0,0,0,0v-.63a.32.32,0,0,0-.31-.32Z"/><circle class="cls-14" cx="589.34" cy="405.16" r="8.24"/><path class="cls-15" d="M588,395.54a8.24,8.24,0,1,0,8.24,8.24A8.24,8.24,0,0,0,588,395.54Zm0,.63a7.61,7.61,0,1,1-7.61,7.61A7.61,7.61,0,0,1,588,396.17Zm0,3.17a.32.32,0,0,0-.32.32v.65a2.32,2.32,0,0,0-1.23.48,1.8,1.8,0,0,0-.65,1.41,1.5,1.5,0,0,0,.74,1.31,7.9,7.9,0,0,0,1.34.56c.72.26,1.68.55,1.69,1.3a1.11,1.11,0,0,1-.44.9,1.77,1.77,0,0,1-1.13.36,1.94,1.94,0,0,1-1.63-.91.32.32,0,0,0-.44-.15.33.33,0,0,0-.08.48,2.55,2.55,0,0,0,1.84,1.19v.66a.32.32,0,1,0,.63,0v-.65a2.33,2.33,0,0,0,1.23-.49,1.75,1.75,0,0,0,.65-1.39,1.5,1.5,0,0,0-.74-1.33,7.9,7.9,0,0,0-1.34-.56c-.71-.26-1.68-.55-1.69-1.28a1.14,1.14,0,0,1,.44-.92,1.8,1.8,0,0,1,1.14-.35,1.93,1.93,0,0,1,1.62.9.32.32,0,0,0,.45.15.34.34,0,0,0,.07-.48,2.54,2.54,0,0,0-1.84-1.18s0,0,0,0v-.63a.32.32,0,0,0-.31-.32Z"/><text class="cls-9" transform="translate(244.73 409.72)">Nízké<tspan class="cls-10"><tspan x="0" y="23.91">st</tspan><tspan class="cls-11" x="13.48" y="23.91">a</tspan><tspan x="22.06" y="23.91">vba, zaměstnanci</tspan></tspan></text><circle class="cls-2" cx="304.66" cy="405.84" r="8.24"/><path class="cls-15" d="M303.28,396.23a8.24,8.24,0,1,0,8.24,8.24A8.24,8.24,0,0,0,303.28,396.23Zm0,.63a7.61,7.61,0,1,1-7.6,7.61A7.6,7.6,0,0,1,303.28,396.86Zm0,3.17a.32.32,0,0,0-.32.32V401a2.32,2.32,0,0,0-1.22.48,1.78,1.78,0,0,0-.66,1.4,1.49,1.49,0,0,0,.75,1.32,9.13,9.13,0,0,0,1.33.56c.73.26,1.69.55,1.7,1.29a1.11,1.11,0,0,1-.44.9,1.75,1.75,0,0,1-1.14.37,1.92,1.92,0,0,1-1.62-.91.32.32,0,0,0-.45-.15.35.35,0,0,0-.08.48,2.55,2.55,0,0,0,1.84,1.19v.66a.33.33,0,0,0,.32.32.32.32,0,0,0,.32-.32V408h0a2.41,2.41,0,0,0,1.23-.49,1.78,1.78,0,0,0,.65-1.4,1.51,1.51,0,0,0-.74-1.32,8.64,8.64,0,0,0-1.34-.56c-.72-.26-1.68-.55-1.69-1.29a1.15,1.15,0,0,1,.43-.91,1.82,1.82,0,0,1,1.14-.35,1.93,1.93,0,0,1,1.63.9.32.32,0,0,0,.44.15.33.33,0,0,0,.08-.48,2.51,2.51,0,0,0-1.84-1.18v-.66a.32.32,0,0,0-.32-.32Z"/><text class="cls-8" transform="translate(109.56 493.31)">P<tspan class="cls-16" x="11.92" y="0">L</tspan><tspan class="cls-17" x="20" y="0">YN</tspan></text><text class="cls-9" transform="translate(516.16 489.91)">Vysoké<tspan class="cls-10"><tspan x="0" y="23.91">plyn, více p</tspan><tspan class="cls-11" x="77.85" y="23.91">ov</tspan><tspan x="94.49" y="23.91">olenky</tspan></tspan></text><circle class="cls-14" cx="629.34" cy="486.18" r="8.24"/><path class="cls-15" d="M628,476.56a8.24,8.24,0,1,0,8.24,8.24A8.24,8.24,0,0,0,628,476.56Zm0,.64a7.61,7.61,0,1,1-7.61,7.6A7.6,7.6,0,0,1,628,477.2Zm0,3.16a.32.32,0,0,0-.32.32v.66a2.23,2.23,0,0,0-1.23.47,1.82,1.82,0,0,0-.65,1.41,1.5,1.5,0,0,0,.74,1.31,7.9,7.9,0,0,0,1.34.56c.72.26,1.68.56,1.69,1.3a1.1,1.1,0,0,1-.44.9,1.77,1.77,0,0,1-1.13.36,1.94,1.94,0,0,1-1.63-.91.32.32,0,0,0-.44-.15.33.33,0,0,0-.08.48,2.52,2.52,0,0,0,1.84,1.19s0,0,0,0v.63a.32.32,0,1,0,.63,0v-.65a2.33,2.33,0,0,0,1.23-.49,1.75,1.75,0,0,0,.65-1.39,1.5,1.5,0,0,0-.74-1.33,8.8,8.8,0,0,0-1.34-.56c-.71-.26-1.68-.55-1.69-1.28a1.11,1.11,0,0,1,.44-.91A1.75,1.75,0,0,1,628,482a1.93,1.93,0,0,1,1.62.9.32.32,0,0,0,.45.15.34.34,0,0,0,.07-.48,2.5,2.5,0,0,0-1.84-1.17s0,0,0,0v-.64a.32.32,0,0,0-.31-.32Z"/><circle class="cls-14" cx="609.34" cy="486.18" r="8.24"/><path class="cls-15" d="M608,476.56a8.24,8.24,0,1,0,8.24,8.24A8.24,8.24,0,0,0,608,476.56Zm0,.64a7.61,7.61,0,1,1-7.61,7.6A7.6,7.6,0,0,1,608,477.2Zm0,3.16a.32.32,0,0,0-.32.32v.66a2.23,2.23,0,0,0-1.23.47,1.82,1.82,0,0,0-.65,1.41,1.5,1.5,0,0,0,.74,1.31,7.9,7.9,0,0,0,1.34.56c.72.26,1.68.56,1.69,1.3a1.1,1.1,0,0,1-.44.9,1.77,1.77,0,0,1-1.13.36,1.94,1.94,0,0,1-1.63-.91.32.32,0,0,0-.44-.15.33.33,0,0,0-.08.48,2.52,2.52,0,0,0,1.84,1.19s0,0,0,0v.63a.32.32,0,1,0,.63,0v-.65a2.33,2.33,0,0,0,1.23-.49,1.75,1.75,0,0,0,.65-1.39,1.5,1.5,0,0,0-.74-1.33,8.8,8.8,0,0,0-1.34-.56c-.71-.26-1.68-.55-1.69-1.28a1.11,1.11,0,0,1,.44-.91A1.75,1.75,0,0,1,608,482a1.93,1.93,0,0,1,1.62.9.32.32,0,0,0,.45.15.34.34,0,0,0,.07-.48,2.5,2.5,0,0,0-1.84-1.17s0,0,0,0v-.64a.32.32,0,0,0-.31-.32Z"/><circle class="cls-14" cx="589.34" cy="486.18" r="8.24"/><path class="cls-15" d="M588,476.56a8.24,8.24,0,1,0,8.24,8.24A8.24,8.24,0,0,0,588,476.56Zm0,.64a7.61,7.61,0,1,1-7.61,7.6A7.6,7.6,0,0,1,588,477.2Zm0,3.16a.32.32,0,0,0-.32.32v.66a2.23,2.23,0,0,0-1.23.47,1.82,1.82,0,0,0-.65,1.41,1.5,1.5,0,0,0,.74,1.31,7.9,7.9,0,0,0,1.34.56c.72.26,1.68.56,1.69,1.3a1.1,1.1,0,0,1-.44.9,1.77,1.77,0,0,1-1.13.36,1.94,1.94,0,0,1-1.63-.91.32.32,0,0,0-.44-.15.33.33,0,0,0-.08.48,2.52,2.52,0,0,0,1.84,1.19s0,0,0,0v.63a.32.32,0,1,0,.63,0v-.65a2.33,2.33,0,0,0,1.23-.49,1.75,1.75,0,0,0,.65-1.39,1.5,1.5,0,0,0-.74-1.33,8.8,8.8,0,0,0-1.34-.56c-.71-.26-1.68-.55-1.69-1.28a1.11,1.11,0,0,1,.44-.91A1.75,1.75,0,0,1,588,482a1.93,1.93,0,0,1,1.62.9.32.32,0,0,0,.45.15.34.34,0,0,0,.07-.48,2.5,2.5,0,0,0-1.84-1.17s0,0,0,0v-.64a.32.32,0,0,0-.31-.32Z"/><text class="cls-9" transform="translate(244.73 489.91)">Nízké<tspan class="cls-10"><tspan x="0" y="23.91">st</tspan><tspan class="cls-11" x="13.48" y="23.91">a</tspan><tspan x="22.06" y="23.91">vba, zaměstnanci</tspan></tspan></text><circle class="cls-2" cx="302.75" cy="485.49" r="8.24"/><path class="cls-15" d="M301.38,475.87a8.24,8.24,0,1,0,8.24,8.24A8.25,8.25,0,0,0,301.38,475.87Zm0,.64a7.61,7.61,0,1,1-7.61,7.6A7.6,7.6,0,0,1,301.38,476.51Zm0,3.17a.31.31,0,0,0-.32.31v.66a2.31,2.31,0,0,0-1.23.47,1.82,1.82,0,0,0-.65,1.41,1.53,1.53,0,0,0,.74,1.32,8.59,8.59,0,0,0,1.34.55c.72.26,1.68.56,1.69,1.3a1.11,1.11,0,0,1-.43.9,1.83,1.83,0,0,1-1.14.37,2,2,0,0,1-1.63-.91.31.31,0,0,0-.44-.15.32.32,0,0,0-.08.47,2.52,2.52,0,0,0,1.84,1.19s0,0,0,0v.63a.32.32,0,1,0,.63,0v-.65a2.33,2.33,0,0,0,1.23-.49,1.74,1.74,0,0,0,.66-1.39,1.52,1.52,0,0,0-.75-1.33,8.1,8.1,0,0,0-1.33-.55c-.72-.27-1.69-.56-1.7-1.29a1.13,1.13,0,0,1,.44-.91,1.8,1.8,0,0,1,1.14-.36,1.94,1.94,0,0,1,1.62.9.32.32,0,0,0,.45.15.34.34,0,0,0,.08-.47,2.48,2.48,0,0,0-1.85-1.18s0,0,0,0V480a.31.31,0,0,0-.31-.31Z"/><text class="cls-8" transform="translate(79.24 331.83)">S<tspan class="cls-18" x="11.44" y="0">L</tspan><tspan class="cls-17" x="21.51" y="0">UNCE,</tspan><tspan x="-38.64" y="19.2">VÍTR, </tspan><tspan class="cls-19" x="14.08" y="19.2">H</tspan><tspan class="cls-17" x="26.77" y="19.2">YDRO</tspan></text><text class="cls-9" transform="translate(516.16 329.21)">Nul<tspan class="cls-11" x="24.34" y="0">o</tspan><tspan x="33.33" y="0">vé</tspan></text><text class="cls-9" transform="translate(244.73 329.21)">Střední<tspan class="cls-10"><tspan x="0" y="23.91">st</tspan><tspan class="cls-11" x="13.48" y="23.91">a</tspan><tspan x="22.06" y="23.91">vba, údržba</tspan></tspan></text><circle class="cls-20" cx="335.11" cy="325.37" r="8.24"/><path class="cls-15" d="M333.74,315.75A8.24,8.24,0,1,0,342,324,8.24,8.24,0,0,0,333.74,315.75Zm0,.63a7.61,7.61,0,1,1-7.61,7.61A7.61,7.61,0,0,1,333.74,316.38Zm0,3.17a.32.32,0,0,0-.32.32v.65a2.32,2.32,0,0,0-1.23.48,1.8,1.8,0,0,0-.65,1.41,1.5,1.5,0,0,0,.74,1.31,8.64,8.64,0,0,0,1.34.56c.72.26,1.68.55,1.69,1.29a1.14,1.14,0,0,1-.43.91,1.83,1.83,0,0,1-1.14.36,1.94,1.94,0,0,1-1.63-.91.32.32,0,0,0-.44-.15.33.33,0,0,0-.08.48,2.55,2.55,0,0,0,1.84,1.19v.66a.32.32,0,0,0,.32.32.33.33,0,0,0,.32-.32v-.65a2.41,2.41,0,0,0,1.22-.49,1.76,1.76,0,0,0,.66-1.4,1.5,1.5,0,0,0-.75-1.32,8.15,8.15,0,0,0-1.33-.56c-.72-.26-1.69-.55-1.7-1.28a1.17,1.17,0,0,1,.44-.92,1.8,1.8,0,0,1,1.14-.35,1.92,1.92,0,0,1,1.62.9.32.32,0,0,0,.45.15.35.35,0,0,0,.08-.48,2.54,2.54,0,0,0-1.84-1.18v-.66a.32.32,0,0,0-.31-.32Z"/><circle class="cls-20" cx="315.11" cy="325.37" r="8.24"/><path class="cls-15" d="M313.74,315.75A8.24,8.24,0,1,0,322,324,8.24,8.24,0,0,0,313.74,315.75Zm0,.63a7.61,7.61,0,1,1-7.61,7.61A7.61,7.61,0,0,1,313.74,316.38Zm0,3.17a.32.32,0,0,0-.32.32v.65a2.32,2.32,0,0,0-1.23.48,1.8,1.8,0,0,0-.65,1.41,1.5,1.5,0,0,0,.74,1.31,8.64,8.64,0,0,0,1.34.56c.72.26,1.68.55,1.69,1.29a1.14,1.14,0,0,1-.43.91,1.83,1.83,0,0,1-1.14.36,1.94,1.94,0,0,1-1.63-.91.32.32,0,0,0-.44-.15.33.33,0,0,0-.08.48,2.55,2.55,0,0,0,1.84,1.19v.66a.32.32,0,0,0,.32.32.33.33,0,0,0,.32-.32v-.65a2.41,2.41,0,0,0,1.22-.49,1.76,1.76,0,0,0,.66-1.4,1.5,1.5,0,0,0-.75-1.32,8.15,8.15,0,0,0-1.33-.56c-.72-.26-1.69-.55-1.7-1.28a1.17,1.17,0,0,1,.44-.92,1.8,1.8,0,0,1,1.14-.35,1.92,1.92,0,0,1,1.62.9.32.32,0,0,0,.45.15.35.35,0,0,0,.08-.48,2.54,2.54,0,0,0-1.84-1.18v-.66a.32.32,0,0,0-.31-.32Z"/><g class="cls-21"><path class="cls-15" d="M582.5,315.75a8.24,8.24,0,1,0,8.24,8.24A8.24,8.24,0,0,0,582.5,315.75Zm0,.63a7.61,7.61,0,1,1-7.61,7.61A7.61,7.61,0,0,1,582.5,316.38Zm0,3.17a.32.32,0,0,0-.32.32v.65A2.32,2.32,0,0,0,581,321a1.8,1.8,0,0,0-.65,1.41,1.5,1.5,0,0,0,.74,1.31,8.64,8.64,0,0,0,1.34.56c.72.26,1.68.55,1.69,1.29a1.14,1.14,0,0,1-.43.91,1.8,1.8,0,0,1-1.14.36,1.94,1.94,0,0,1-1.63-.91.31.31,0,0,0-.44-.15.34.34,0,0,0-.08.48,2.55,2.55,0,0,0,1.84,1.19v.66a.32.32,0,0,0,.32.32.33.33,0,0,0,.32-.32v-.65A2.41,2.41,0,0,0,584,327a1.76,1.76,0,0,0,.66-1.4,1.51,1.51,0,0,0-.74-1.32,8.64,8.64,0,0,0-1.34-.56c-.72-.26-1.69-.55-1.7-1.28a1.17,1.17,0,0,1,.44-.92,1.8,1.8,0,0,1,1.14-.35,1.92,1.92,0,0,1,1.62.9.33.33,0,0,0,.45.15.35.35,0,0,0,.08-.48,2.54,2.54,0,0,0-1.84-1.18v-.66a.33.33,0,0,0-.32-.32Z"/><line class="cls-22" x1="577.44" y1="329.56" x2="588.58" y2="318.42"/></g><text class="cls-23" transform="translate(12.26 30.47)">KAŽDÝ<tspan class="cls-24" x="63.57" y="0"> </tspan><tspan class="cls-25" x="68.78" y="0">T</tspan><tspan class="cls-26" x="81.32" y="0">YP ELEKTRÁREN MÁ JINOU STRUKTURU NÁK</tspan><tspan class="cls-27" x="502" y="0">L</tspan><tspan x="513.17" y="0">ADŮ</tspan></text><line class="cls-28" x1="31.4" y1="296.36" x2="701.25" y2="296.36"/><line class="cls-28" x1="31.4" y1="216.09" x2="701.25" y2="216.09"/><line class="cls-28" x1="31.4" y1="376.62" x2="701.25" y2="376.62"/><line class="cls-28" x1="31.4" y1="456.88" x2="701.25" y2="456.88"/><line class="cls-28" x1="31.4" y1="537.15" x2="701.25" y2="537.15"/><text class="cls-29" transform="translate(197.64 162.53)">Náklady na st<tspan class="cls-11" x="96.33" y="0">a</tspan><tspan x="104.91" y="0">vbu elekt</tspan><tspan class="cls-30" x="168.59" y="0">r</tspan><tspan x="173.7" y="0">árny </tspan><tspan x="17.96" y="19.2">a její p</tspan><tspan class="cls-31" x="63.63" y="19.2">r</tspan><tspan class="cls-11" x="68.89" y="19.2">ov</tspan><tspan class="cls-32" x="85.53" y="19.2">o</tspan><tspan x="94.53" y="19.2">zuschopnost</tspan></text><text class="cls-29" transform="translate(470.31 162.53)">Náklady přímo spojené s vý<tspan class="cls-31" x="194.26" y="0">r</tspan><tspan x="199.52" y="0">obou </tspan><tspan x="37.45" y="19.2">elektřiny v danou chvíli </tspan></text><rect class="cls-1" x="415.63" y="194.19" width="72.47" height="398.31"/><rect class="cls-1" x="162.29" y="194.19" width="48.67" height="398.31"/></svg>