<svg id="Layer_1" data-name="Layer 1" xmlns="http://www.w3.org/2000/svg" viewBox="0 0 740 333.81"><defs><style>.cls-1{fill:#fff;}.cls-11,.cls-2{fill:#fbb040;}.cls-2,.cls-3{opacity:0.4;}.cls-3,.cls-6,.cls-9{fill:#2d4298;}.cls-4{font-size:13.7px;fill:#010101;font-family:Roboto-Light, Roboto;font-weight:300;}.cls-5{letter-spacing:-0.01em;}.cls-6{opacity:0.6;}.cls-21,.cls-7{font-size:15px;}.cls-16,.cls-7{fill:#808285;}.cls-10,.cls-16,.cls-21,.cls-22,.cls-7{font-family:Roboto-Regular, Roboto;}.cls-8{letter-spacing:-0.01em;}.cls-12,.cls-9{font-size:16px;}.cls-12,.cls-15,.cls-26,.cls-27,.cls-28,.cls-29,.cls-9{font-family:Roboto-Bold, Roboto;font-weight:700;}.cls-10{fill:#414042;font-weight:400;}.cls-12{fill:#f7941d;}.cls-13,.cls-14{fill:none;stroke:#231f20;stroke-miterlimit:10;stroke-width:2px;}.cls-14{stroke-linecap:round;stroke-dasharray:0 4;}.cls-15{font-size:21px;}.cls-15,.cls-21,.cls-22{fill:#231f20;}.cls-16{font-size:12px;}.cls-17{letter-spacing:-0.06em;}.cls-18{letter-spacing:-0.01em;}.cls-19{letter-spacing:-0.01em;}.cls-20{letter-spacing:-0.01em;}.cls-22{font-size:18px;letter-spacing:0.05em;}.cls-23,.cls-28{letter-spacing:0.07em;}.cls-24{letter-spacing:0.06em;}.cls-25,.cls-26{letter-spacing:0.07em;}.cls-27{letter-spacing:0.03em;}.cls-29{letter-spacing:0.04em;}</style></defs><rect class="cls-1" width="740" height="333.81"/><rect class="cls-1" width="740" height="333.81"/><rect class="cls-2" x="61.06" y="224.54" width="270" height="30"/><rect class="cls-3" x="61.06" y="274.18" width="345" height="30"/><text class="cls-4" transform="translate(643.9 324.68)">Zd<tspan class="cls-5" x="15.81" y="0">r</tspan><tspan x="20.28" y="0">oj dat: ERÚ</tspan></text><rect class="cls-6" x="61.06" y="274.18" width="180" height="30"/><text class="cls-7" transform="translate(286.78 52.91)">(= celk<tspan class="cls-8" x="44.11" y="0">o</tspan><tspan x="52.56" y="0">vý instal</tspan><tspan class="cls-8" x="106.98" y="0">ov</tspan><tspan x="122.59" y="0">aný výkon)</tspan></text><text class="cls-9" transform="translate(418.08 295.41)">6–11,5 GW <tspan class="cls-10" x="83.59" y="0">v zimě</tspan></text><rect class="cls-11" x="61.06" y="224.54" width="135" height="30"/><text class="cls-12" transform="translate(339.25 245.86)">4,5–9 GW <tspan class="cls-10" x="74.41" y="0">v létě</tspan></text><line class="cls-13" x1="61.04" y1="101.21" x2="61.04" y2="122"/><line class="cls-13" x1="700.04" y1="101.21" x2="700.04" y2="122"/><line class="cls-13" x1="594.33" y1="106.6" x2="594.33" y2="116.6"/><line class="cls-13" x1="61.04" y1="111.6" x2="594.33" y2="111.6"/><line class="cls-14" x1="594.33" y1="111.6" x2="700.04" y2="111.6"/><text class="cls-15" transform="translate(340.95 95.88)">21,3 GW</text><text class="cls-16" transform="translate(601.47 126.21)">slunce, vít<tspan class="cls-17" x="53" y="0">r</tspan><tspan x="56.34" y="0">, h</tspan><tspan class="cls-18" x="68.27" y="0">y</tspan><tspan x="73.87" y="0">d</tspan><tspan class="cls-19" x="80.64" y="0">r</tspan><tspan x="84.59" y="0">o</tspan></text><text class="cls-16" transform="translate(70.46 126.21)">řiditelné <tspan class="cls-20" x="45.79" y="0">z</tspan><tspan x="51.64" y="0">d</tspan><tspan class="cls-19" x="58.41" y="0">r</tspan><tspan x="62.36" y="0">oje</tspan></text><text class="cls-21" transform="translate(580.55 144.45)">17,8</text><text class="cls-21" transform="translate(683.38 144.45)">21,3</text><text class="cls-21" transform="translate(56.77 144.45)">0</text><text class="cls-22" transform="translate(184.1 188.8)">K<tspan class="cls-23" x="12.27" y="0">OLIK ELEKTŘI</tspan><tspan class="cls-24" x="138.24" y="0">N</tspan><tspan class="cls-25" x="152.09" y="0">Y </tspan><tspan class="cls-26" x="169.87" y="0">SP</tspan><tspan class="cls-27" x="195.07" y="0">O</tspan><tspan class="cls-28" x="208.01" y="0">TŘEBUJEME V ČR</tspan></text><text class="cls-22" transform="translate(113.57 29.65)">K<tspan class="cls-23" x="12.27" y="0">OLIK ELEKTŘI</tspan><tspan class="cls-24" x="138.24" y="0">N</tspan><tspan class="cls-25" x="152.09" y="0">Y MŮŽEME </tspan><tspan class="cls-28" x="257.49" y="0">MAXIMÁLNĚ VYROBI</tspan><tspan class="cls-29" x="450.69" y="0">T</tspan><tspan class="cls-28" x="462.56" y="0" xml:space="preserve"> V ČR</tspan></text><line class="cls-13" x1="61.06" y1="256.54" x2="61.06" y2="222.54"/><line class="cls-13" x1="61.06" y1="306.18" x2="61.06" y2="272.18"/></svg>