<svg id="Layer_1" data-name="Layer 1" xmlns="http://www.w3.org/2000/svg" viewBox="0 0 740 377.08"><defs><style>.cls-1{fill:#fff;}.cls-18,.cls-2,.cls-36,.cls-52{font-size:13px;}.cls-12,.cls-2{fill:#414042;}.cls-18,.cls-2{font-family:Roboto-Regular, Roboto;}.cls-3{letter-spacing:-0.02em;}.cls-4{letter-spacing:0em;}.cls-5{letter-spacing:-0.01em;}.cls-6{letter-spacing:0em;}.cls-7{letter-spacing:-0.01em;}.cls-8{letter-spacing:-0.01em;}.cls-9{letter-spacing:-0.01em;}.cls-10{letter-spacing:-0.01em;}.cls-11{letter-spacing:-0.05em;}.cls-12{font-size:16px;letter-spacing:0.07em;}.cls-12,.cls-17,.cls-24,.cls-26,.cls-38,.cls-39,.cls-43,.cls-50{font-family:Roboto-Bold, Roboto;font-weight:700;}.cls-13{letter-spacing:0.08em;}.cls-14{letter-spacing:0.03em;}.cls-15{letter-spacing:0.04em;}.cls-16{letter-spacing:0.08em;}.cls-17,.cls-24,.cls-26{font-size:11px;}.cls-17,.cls-18,.cls-24,.cls-26,.cls-41{fill:#6d6e71;}.cls-17,.cls-31{letter-spacing:0.1em;}.cls-19{letter-spacing:-0.01em;}.cls-20{letter-spacing:-0.01em;}.cls-21{letter-spacing:-0.01em;}.cls-22{letter-spacing:-0.01em;}.cls-23{letter-spacing:0.09em;}.cls-24{letter-spacing:0.11em;}.cls-25,.cls-26{letter-spacing:0.1em;}.cls-27{letter-spacing:0.04em;}.cls-28{letter-spacing:0.07em;}.cls-29{letter-spacing:0.09em;}.cls-30{letter-spacing:0.06em;}.cls-32{letter-spacing:0.08em;}.cls-33,.cls-38{fill:#b3306e;}.cls-34{opacity:0.6;}.cls-35,.cls-55{fill:none;stroke-miterlimit:10;}.cls-35{stroke:#fff;}.cls-36,.cls-40,.cls-52{fill:#231f20;}.cls-36{font-family:Roboto-Medium, Roboto;font-weight:500;}.cls-37,.cls-39{fill:#eb4863;}.cls-38,.cls-39,.cls-43,.cls-50{font-size:18px;}.cls-42,.cls-43{fill:#7f91a6;}.cls-44{letter-spacing:-0.02em;}.cls-45{letter-spacing:-0.01em;}.cls-46{letter-spacing:-0.02em;}.cls-47{letter-spacing:0.01em;}.cls-48{letter-spacing:-0.02em;}.cls-49,.cls-50{fill:#00a79d;}.cls-51{letter-spacing:-0.08em;}.cls-52{font-family:Roboto-Italic, Roboto;font-style:italic;}.cls-53{letter-spacing:-0.05em;}.cls-54{letter-spacing:-0.01em;}.cls-55{stroke:#939598;stroke-linecap:round;stroke-dasharray:0 3;}</style></defs><rect class="cls-1" width="738.47" height="377.08"/><text class="cls-2" transform="translate(267.71 370.68)">* Ceny jsou ilust<tspan class="cls-3" x="92.74" y="0">r</tspan><tspan class="cls-4" x="96.88" y="0">ativní, ale </tspan><tspan class="cls-5" x="154.14" y="0">r</tspan><tspan class="cls-6" x="158.42" y="0">ealistic</tspan><tspan class="cls-7" x="199.6" y="0">k</tspan><tspan x="206.06" y="0">é. </tspan><tspan class="cls-8" x="219.58" y="0">Z</tspan><tspan x="227.23" y="0">de u</tspan><tspan class="cls-9" x="251.84" y="0">v</tspan><tspan class="cls-4" x="258.04" y="0">ádíme jen přímé (</tspan><tspan class="cls-10" x="358.38" y="0">v</tspan><tspan x="364.58" y="0">ariabilní) náklad</tspan><tspan class="cls-11" x="456.4" y="0">y</tspan><tspan class="cls-4" x="461.87" y="0">.</tspan></text><text class="cls-12" transform="translate(3.79 19.84)">H<tspan class="cls-13" x="12.42" y="0">L</tspan><tspan class="cls-14" x="22.36" y="0">A</tspan><tspan x="33.64" y="0">VNÍ</tspan><tspan class="cls-15" x="63.42" y="0"> </tspan><tspan class="cls-16" x="68.06" y="0">T</tspan><tspan x="79.2" y="0">YPY ZDROJŮ ELEKTŘINY V ČR</tspan></text><text class="cls-17" transform="translate(55.81 160.88)">DOBA NÁBĚHU</text><text class="cls-18" transform="translate(629.48 266.16)">Z více než 60 % <tspan x="0" y="15.6">spalují </tspan><tspan class="cls-19" x="40.92" y="15.6">z</tspan><tspan x="47.26" y="15.6">emní plyn </tspan><tspan x="0" y="31.2">a z 25 % bioplyn.</tspan></text><text class="cls-18" transform="translate(464 266.16)">Z <tspan class="cls-20" x="11" y="0">v</tspan><tspan x="17.21" y="0">el</tspan><tspan class="cls-21" x="27.26" y="0">k</tspan><tspan class="cls-6" x="33.72" y="0">é </tspan><tspan class="cls-22" x="43.82" y="0">v</tspan><tspan x="50.04" y="0">ětšiny hnědé </tspan><tspan x="0" y="15.6">uhlí, ta</tspan><tspan class="cls-7" x="37.78" y="15.6">k</tspan><tspan x="44.24" y="15.6">é se ně</tspan><tspan class="cls-7" x="85.22" y="15.6">k</tspan><tspan x="91.68" y="15.6">de </tspan><tspan x="0" y="31.2">spoluspaluje biomasa, </tspan><tspan x="0" y="46.8">ta t</tspan><tspan class="cls-10" x="18.78" y="46.8">v</tspan><tspan x="24.98" y="46.8">oří &lt;10 % v té</tspan><tspan class="cls-7" x="101.04" y="46.8">t</tspan><tspan x="105.16" y="46.8">o </tspan><tspan x="0" y="62.4">kategorii.</tspan></text><text class="cls-17" transform="translate(76.52 264.95)">P<tspan class="cls-23" x="8.2" y="0">O</tspan><tspan x="16.77" y="0">ZNÁMKY</tspan></text><text class="cls-24" transform="translate(69.85 76.06)">T<tspan class="cls-25" x="7.99" y="0">YP ZDROJE</tspan></text><text class="cls-26" transform="translate(14.38 119.29)">INS<tspan class="cls-27" x="21.04" y="0">T</tspan><tspan x="28.3" y="0">A</tspan><tspan class="cls-28" x="36.8" y="0">L</tspan><tspan class="cls-29" x="43.51" y="0">O</tspan><tspan class="cls-30" x="52.09" y="0">V</tspan><tspan class="cls-31" x="59.98" y="0">ANÝ VÝ</tspan><tspan class="cls-32" x="105.27" y="0">K</tspan><tspan x="113.19" y="0">ON</tspan></text><rect class="cls-33" x="629.48" y="107.78" width="23" height="15"/><g class="cls-34"><line class="cls-35" x1="709.87" y1="107.78" x2="709.87" y2="122.78"/><line class="cls-35" x1="689.87" y1="107.78" x2="689.87" y2="122.78"/><line class="cls-35" x1="669.87" y1="107.78" x2="669.87" y2="122.78"/><line class="cls-35" x1="649.87" y1="107.78" x2="649.87" y2="122.78"/><line class="cls-35" x1="629.87" y1="107.78" x2="629.87" y2="122.78"/></g><text class="cls-36" transform="translate(660.18 120.54)">2,3 GW</text><rect class="cls-37" x="464" y="107.78" width="100" height="15"/><g class="cls-34"><line class="cls-35" x1="544" y1="107.78" x2="544" y2="122.78"/><line class="cls-35" x1="524" y1="107.78" x2="524" y2="122.78"/><line class="cls-35" x1="504" y1="107.78" x2="504" y2="122.78"/><line class="cls-35" x1="484" y1="107.78" x2="484" y2="122.78"/><line class="cls-35" x1="464" y1="107.78" x2="464" y2="122.78"/></g><text class="cls-36" transform="translate(571.94 120.54)">10 GW</text><text class="cls-38" transform="translate(629.48 78.1)">Plyn</text><text class="cls-39" transform="translate(464 78.1)">Uhlí</text><path class="cls-40" d="M634.42,152h1.23v6.54a2.72,2.72,0,0,1-.8,2.08,3,3,0,0,1-2.12.75,3.08,3.08,0,0,1-2.15-.71,2.52,2.52,0,0,1-.76-2H631a1.53,1.53,0,0,0,1.7,1.68,1.66,1.66,0,0,0,1.22-.47,1.85,1.85,0,0,0,.47-1.34Z"/><path class="cls-40" d="M640.39,161.32a3,3,0,0,1-2.27-.92,3.38,3.38,0,0,1-.88-2.45v-.22a4.09,4.09,0,0,1,.39-1.82,3.06,3.06,0,0,1,1.09-1.26,2.78,2.78,0,0,1,1.52-.45,2.58,2.58,0,0,1,2.09.88,3.85,3.85,0,0,1,.74,2.53v.48h-4.65a2.42,2.42,0,0,0,.59,1.65,1.88,1.88,0,0,0,1.44.62,2.05,2.05,0,0,0,1.06-.25,2.55,2.55,0,0,0,.75-.68l.72.56A2.88,2.88,0,0,1,640.39,161.32Zm-.15-6.16a1.55,1.55,0,0,0-1.19.52,2.54,2.54,0,0,0-.6,1.45h3.44V157a2.21,2.21,0,0,0-.48-1.39A1.49,1.49,0,0,0,640.24,155.16Z"/><path class="cls-40" d="M644.14,157.7a4,4,0,0,1,.75-2.54,2.55,2.55,0,0,1,3.87-.14v-3.58h1.18v9.75h-1.08l-.06-.73a2.4,2.4,0,0,1-2,.86,2.37,2.37,0,0,1-2-1,4.07,4.07,0,0,1-.75-2.55Zm1.18.13a3.06,3.06,0,0,0,.48,1.83,1.55,1.55,0,0,0,1.33.66,1.7,1.7,0,0,0,1.63-1v-3.16a1.74,1.74,0,0,0-1.62-1,1.58,1.58,0,0,0-1.34.67A3.35,3.35,0,0,0,645.32,157.83Z"/><path class="cls-40" d="M652.87,154.32l0,.87a2.49,2.49,0,0,1,2.05-1c1.46,0,2.19.82,2.2,2.45v4.54H656v-4.54a1.62,1.62,0,0,0-.34-1.1,1.35,1.35,0,0,0-1-.36,1.7,1.7,0,0,0-1,.31,2,2,0,0,0-.68.8v4.89h-1.17v-6.87Z"/><path class="cls-40" d="M658.62,157.69a4,4,0,0,1,.4-1.81,2.89,2.89,0,0,1,1.1-1.24,2.94,2.94,0,0,1,1.62-.44,2.9,2.9,0,0,1,2.27,1,3.77,3.77,0,0,1,.86,2.58v.08a4,4,0,0,1-.38,1.8,2.89,2.89,0,0,1-1.1,1.24,3,3,0,0,1-1.64.45,2.9,2.9,0,0,1-2.26-1,3.72,3.72,0,0,1-.87-2.57Zm1.18.14a3,3,0,0,0,.53,1.84,1.7,1.7,0,0,0,1.42.69,1.67,1.67,0,0,0,1.42-.7,3.23,3.23,0,0,0,.53-2,2.93,2.93,0,0,0-.54-1.83,1.79,1.79,0,0,0-2.83,0A3.26,3.26,0,0,0,659.8,157.83Z"/><path class="cls-40" d="M667.94,152.66v1.66h1.28v.91h-1.28v4.27a1,1,0,0,0,.17.62.74.74,0,0,0,.58.2,2.72,2.72,0,0,0,.56-.07v.94a3.21,3.21,0,0,1-.9.13,1.47,1.47,0,0,1-1.19-.48,2.05,2.05,0,0,1-.39-1.35v-4.26h-1.26v-.91h1.26v-1.66Z"/><path class="cls-40" d="M672.51,158l-.74.77v2.41H670.6v-9.75h1.17v5.9l.63-.76,2.14-2.26H676l-2.67,2.87,3,4H674.9Z"/><path class="cls-40" d="M679.43,159.47l1.6-5.15h1.26l-2.77,7.93c-.42,1.15-1.1,1.72-2,1.72l-.23,0-.43-.09v-1l.31,0a1.56,1.56,0,0,0,.93-.24,1.68,1.68,0,0,0,.55-.89l.26-.69-2.45-6.8h1.28Z"/><path class="cls-40" d="M687.66,154.32l0,.77a2.5,2.5,0,0,1,2-.89,2,2,0,0,1,2,1.1,2.46,2.46,0,0,1,.89-.8,2.66,2.66,0,0,1,1.3-.3c1.5,0,2.27.79,2.29,2.39v4.6H695v-4.53a1.54,1.54,0,0,0-.34-1.1,1.49,1.49,0,0,0-1.13-.37,1.56,1.56,0,0,0-1.08.39,1.54,1.54,0,0,0-.5,1v4.56h-1.18v-4.5a1.31,1.31,0,0,0-1.47-1.5,1.57,1.57,0,0,0-1.58,1v5h-1.18v-6.87Z"/><path class="cls-40" d="M698,152.5a.68.68,0,0,1,.18-.48.63.63,0,0,1,.51-.2.67.67,0,0,1,.52.2.73.73,0,0,1,0,1,.67.67,0,0,1-.52.19.63.63,0,0,1-.51-.19A.68.68,0,0,1,698,152.5Zm1.27,8.69h-1.17v-6.87h1.17Z"/><path class="cls-40" d="M702.21,154.32l0,.87a2.5,2.5,0,0,1,2.06-1c1.45,0,2.18.82,2.19,2.45v4.54h-1.17v-4.54a1.62,1.62,0,0,0-.34-1.1,1.35,1.35,0,0,0-1-.36,1.7,1.7,0,0,0-1,.31,2,2,0,0,0-.68.8v4.89H701.1v-6.87Z"/><path class="cls-40" d="M712.51,160.51a2.48,2.48,0,0,1-2,.81,2.11,2.11,0,0,1-1.67-.64,2.69,2.69,0,0,1-.58-1.89v-4.47h1.17v4.44c0,1,.42,1.56,1.27,1.56a1.75,1.75,0,0,0,1.79-1v-5h1.18v6.87h-1.12Z"/><path class="cls-40" d="M717,152.66v1.66h1.28v.91H717v4.27a1,1,0,0,0,.17.62.76.76,0,0,0,.59.2,2.89,2.89,0,0,0,.56-.07v.94a3.23,3.23,0,0,1-.91.13,1.44,1.44,0,0,1-1.18-.48,2,2,0,0,1-.4-1.35v-4.26h-1.25v-.91h1.25v-1.66Z"/><path class="cls-40" d="M634.61,176.79a1.08,1.08,0,1,0-2.12.13,2.41,2.41,0,0,1-1.67-.58,1.85,1.85,0,0,1-.65-1.45,1.94,1.94,0,0,1,.82-1.67,3.88,3.88,0,0,1,2.29-.59h1.14v-.54a1.33,1.33,0,0,0-.36-1,1.47,1.47,0,0,0-1.09-.37,1.7,1.7,0,0,0-1.05.32.93.93,0,0,0-.43.77h-1.18a1.61,1.61,0,0,1,.37-1,2.46,2.46,0,0,1,1-.75,3.23,3.23,0,0,1,1.37-.28,2.7,2.7,0,0,1,1.86.59,2.15,2.15,0,0,1,.7,1.63v3.17a3.85,3.85,0,0,0,.24,1.5v.1Zm-2-.89a2.08,2.08,0,0,0,1.05-.29,1.68,1.68,0,0,0,.71-.74v-1.41h-.92c-1.44,0-2.15.42-2.15,1.26a1.1,1.1,0,0,0,.36.87A1.47,1.47,0,0,0,632.66,175.9Z"/><path class="cls-40" d="M638.54,175.83h4v1h-5.45v-.86l3.79-5h-3.73v-1h5.2v.83Zm1.27-7.71,1-1.08h1v.07l-1.61,1.73h-.72l-1.59-1.73V167h1Z"/><path class="cls-40" d="M648.31,169.92v7.66c0,1.33-.6,2-1.79,2a2.09,2.09,0,0,1-.72-.12v-.93a2.44,2.44,0,0,0,.53,0,.81.81,0,0,0,.6-.21,1.06,1.06,0,0,0,.21-.74v-7.7ZM647,168.1a.76.76,0,0,1,.17-.48.66.66,0,0,1,.51-.2.67.67,0,0,1,.52.2.73.73,0,0,1,0,1,.7.7,0,0,1-.52.19.66.66,0,0,1-.51-.19A.67.67,0,0,1,647,168.1Z"/><path class="cls-40" d="M653.05,176.92a3,3,0,0,1-2.27-.92,3.41,3.41,0,0,1-.87-2.45v-.22a4.09,4.09,0,0,1,.39-1.82,3,3,0,0,1,1.09-1.26,2.76,2.76,0,0,1,1.52-.45,2.56,2.56,0,0,1,2.08.88,3.8,3.8,0,0,1,.74,2.53v.48h-4.65a2.43,2.43,0,0,0,.59,1.64,1.86,1.86,0,0,0,1.45.63,2,2,0,0,0,1-.25,2.72,2.72,0,0,0,.76-.68l.71.56A2.87,2.87,0,0,1,653.05,176.92Zm-.14-6.16a1.57,1.57,0,0,0-1.2.52,2.47,2.47,0,0,0-.59,1.45h3.44v-.09a2.33,2.33,0,0,0-.48-1.39A1.51,1.51,0,0,0,652.91,170.76Z"/><path class="cls-40" d="M656.81,173.3a4.08,4.08,0,0,1,.74-2.54,2.56,2.56,0,0,1,3.88-.14V167h1.17v9.75h-1.08l-.06-.73a2.39,2.39,0,0,1-2,.86,2.35,2.35,0,0,1-1.94-1,4.07,4.07,0,0,1-.75-2.55Zm1.17.13a3.06,3.06,0,0,0,.48,1.83,1.57,1.57,0,0,0,1.34.66,1.72,1.72,0,0,0,1.63-1v-3.16a1.74,1.74,0,0,0-1.62-1,1.58,1.58,0,0,0-1.35.67A3.35,3.35,0,0,0,658,173.43Z"/><path class="cls-40" d="M665.53,169.92l0,.87a2.51,2.51,0,0,1,2.06-1c1.45,0,2.18.82,2.19,2.45v4.54h-1.17v-4.54a1.57,1.57,0,0,0-.34-1.1,1.35,1.35,0,0,0-1-.36,1.72,1.72,0,0,0-1,.31,2,2,0,0,0-.67.8v4.89h-1.18v-6.87Z"/><path class="cls-40" d="M671.28,173.29a4.11,4.11,0,0,1,.4-1.81,2.94,2.94,0,0,1,2.72-1.68,2.89,2.89,0,0,1,2.27,1,3.71,3.71,0,0,1,.87,2.58v.08a4,4,0,0,1-.39,1.8,2.83,2.83,0,0,1-1.1,1.24,3,3,0,0,1-1.64.45,2.91,2.91,0,0,1-2.26-1,3.72,3.72,0,0,1-.87-2.57Zm1.19.14a2.9,2.9,0,0,0,.53,1.84,1.68,1.68,0,0,0,1.41.69,1.7,1.7,0,0,0,1.43-.7,3.23,3.23,0,0,0,.52-2,3,3,0,0,0-.53-1.83,1.71,1.71,0,0,0-1.43-.7,1.68,1.68,0,0,0-1.4.69A3.17,3.17,0,0,0,672.47,173.43Z"/><path class="cls-40" d="M680.6,168.26v1.66h1.29v.91H680.6v4.27a1,1,0,0,0,.17.62.76.76,0,0,0,.59.2,2.89,2.89,0,0,0,.56-.07v.94a3.21,3.21,0,0,1-.9.13,1.46,1.46,0,0,1-1.19-.48,2,2,0,0,1-.4-1.35v-4.26h-1.25v-.91h1.25v-1.66Z"/><path class="cls-40" d="M685.17,173.61l-.73.77v2.41h-1.18V167h1.18v5.9l.63-.76,2.13-2.26h1.43L686,172.79l3,4h-1.37Z"/><path class="cls-40" d="M692.09,175.07l1.6-5.15H695l-2.76,7.93c-.43,1.14-1.11,1.72-2,1.72l-.22,0-.44-.09v-1l.32,0a1.58,1.58,0,0,0,.93-.24,1.82,1.82,0,0,0,.55-.89l.26-.69-2.45-6.8h1.28Z"/><path class="cls-40" d="M700.39,170.75a2.52,2.52,0,0,1,2-.95c1.45,0,2.18.82,2.2,2.45v4.54h-1.18v-4.54a1.57,1.57,0,0,0-.34-1.1,1.35,1.35,0,0,0-1-.36,1.72,1.72,0,0,0-1,.31,2,2,0,0,0-.67.8v4.89h-1.18V167h1.18Z"/><path class="cls-40" d="M706.06,173.29a4.11,4.11,0,0,1,.4-1.81,2.89,2.89,0,0,1,1.1-1.24,3,3,0,0,1,1.62-.44,2.89,2.89,0,0,1,2.27,1,3.71,3.71,0,0,1,.87,2.58v.08a4,4,0,0,1-.39,1.8,2.83,2.83,0,0,1-1.1,1.24,3,3,0,0,1-1.64.45,2.91,2.91,0,0,1-2.26-1,3.72,3.72,0,0,1-.87-2.57Zm1.18.14a3,3,0,0,0,.53,1.84,1.71,1.71,0,0,0,1.42.69,1.67,1.67,0,0,0,1.42-.7,3.16,3.16,0,0,0,.53-2,2.93,2.93,0,0,0-.54-1.83,1.78,1.78,0,0,0-2.82,0A3.17,3.17,0,0,0,707.24,173.43Z"/><path class="cls-40" d="M713.5,173.3a4,4,0,0,1,.75-2.54,2.55,2.55,0,0,1,3.87-.14V167h1.18v9.75h-1.08l-.06-.73a2.4,2.4,0,0,1-2,.86,2.35,2.35,0,0,1-1.94-1,4,4,0,0,1-.76-2.55Zm1.18.13a3.06,3.06,0,0,0,.48,1.83,1.56,1.56,0,0,0,1.33.66,1.7,1.7,0,0,0,1.63-1v-3.16a1.73,1.73,0,0,0-1.61-1,1.58,1.58,0,0,0-1.35.67A3.35,3.35,0,0,0,714.68,173.43Z"/><path class="cls-40" d="M721.13,168.1a.71.71,0,0,1,1.21-.48.73.73,0,0,1,0,1,.81.81,0,0,1-1,0A.67.67,0,0,1,721.13,168.1Zm1.27,8.69h-1.18v-6.87h1.18Z"/><path class="cls-40" d="M725.39,169.92l0,.87a2.51,2.51,0,0,1,2.06-1c1.45,0,2.18.82,2.2,2.45v4.54H728.5v-4.54a1.53,1.53,0,0,0-.34-1.1,1.35,1.35,0,0,0-1-.36,1.72,1.72,0,0,0-1,.31,2,2,0,0,0-.67.8v4.89h-1.18v-6.87Z"/><path class="cls-40" d="M469,152h1.22v6.54a2.71,2.71,0,0,1-.79,2.08,3,3,0,0,1-2.13.75,3,3,0,0,1-2.14-.71,2.52,2.52,0,0,1-.77-2h1.22a1.52,1.52,0,0,0,1.69,1.68,1.64,1.64,0,0,0,1.22-.47,1.86,1.86,0,0,0,.48-1.34Z"/><path class="cls-40" d="M474.91,161.32a3,3,0,0,1-2.27-.92,3.41,3.41,0,0,1-.87-2.45v-.22a4.09,4.09,0,0,1,.39-1.82,3,3,0,0,1,1.09-1.26,2.76,2.76,0,0,1,1.52-.45,2.56,2.56,0,0,1,2.08.88,3.8,3.8,0,0,1,.74,2.53v.48h-4.65a2.53,2.53,0,0,0,.59,1.65,1.89,1.89,0,0,0,1.45.62,2,2,0,0,0,1-.25,2.72,2.72,0,0,0,.76-.68l.71.56A2.86,2.86,0,0,1,474.91,161.32Zm-.14-6.16a1.53,1.53,0,0,0-1.19.52,2.42,2.42,0,0,0-.6,1.45h3.44V157a2.27,2.27,0,0,0-.48-1.39A1.51,1.51,0,0,0,474.77,155.16Z"/><path class="cls-40" d="M478.67,157.7a4.08,4.08,0,0,1,.74-2.54,2.56,2.56,0,0,1,3.88-.14v-3.58h1.17v9.75h-1.08l-.05-.73a2.42,2.42,0,0,1-2,.86,2.35,2.35,0,0,1-1.94-1,4.07,4.07,0,0,1-.75-2.55Zm1.17.13a3.06,3.06,0,0,0,.48,1.83,1.57,1.57,0,0,0,1.34.66,1.72,1.72,0,0,0,1.63-1v-3.16a1.74,1.74,0,0,0-1.62-1,1.58,1.58,0,0,0-1.35.67A3.35,3.35,0,0,0,479.84,157.83Z"/><path class="cls-40" d="M487.39,154.32l0,.87a2.51,2.51,0,0,1,2.06-1c1.45,0,2.18.82,2.19,2.45v4.54h-1.17v-4.54a1.57,1.57,0,0,0-.34-1.1,1.35,1.35,0,0,0-1-.36,1.72,1.72,0,0,0-1,.31,2,2,0,0,0-.67.8v4.89h-1.18v-6.87Z"/><path class="cls-40" d="M493.14,157.69a4.11,4.11,0,0,1,.4-1.81,2.94,2.94,0,0,1,2.72-1.68,2.89,2.89,0,0,1,2.27,1,3.73,3.73,0,0,1,.87,2.58v.08a4,4,0,0,1-.39,1.8,2.83,2.83,0,0,1-1.1,1.24,3,3,0,0,1-1.64.45,2.91,2.91,0,0,1-2.26-1,3.72,3.72,0,0,1-.87-2.57Zm1.19.14a2.9,2.9,0,0,0,.53,1.84,1.8,1.8,0,0,0,2.84,0,3.23,3.23,0,0,0,.52-2,3,3,0,0,0-.53-1.83,1.74,1.74,0,0,0-1.43-.7,1.68,1.68,0,0,0-1.4.69A3.19,3.19,0,0,0,494.33,157.83Z"/><path class="cls-40" d="M502.46,152.66v1.66h1.29v.91h-1.29v4.27a1,1,0,0,0,.17.62.76.76,0,0,0,.59.2,2.89,2.89,0,0,0,.56-.07v.94a3.21,3.21,0,0,1-.9.13,1.46,1.46,0,0,1-1.19-.48,2,2,0,0,1-.4-1.35v-4.26H500v-.91h1.25v-1.66Z"/><path class="cls-40" d="M507,158l-.73.77v2.41h-1.18v-9.75h1.18v5.9l.63-.76,2.13-2.26h1.43l-2.67,2.87,3,4h-1.37Z"/><path class="cls-40" d="M514,159.47l1.6-5.15h1.26l-2.76,7.93c-.43,1.15-1.11,1.72-2,1.72l-.22,0-.44-.09v-1l.32,0a1.56,1.56,0,0,0,.93-.24,1.82,1.82,0,0,0,.55-.89l.26-.69-2.45-6.8h1.28Z"/><path class="cls-40" d="M525.31,161.19a2.59,2.59,0,0,1-.16-.72,2.62,2.62,0,0,1-2,.85,2.38,2.38,0,0,1-1.66-.58,1.82,1.82,0,0,1-.65-1.45,2,2,0,0,1,.81-1.67A3.91,3.91,0,0,1,524,157h1.14v-.54a1.3,1.3,0,0,0-.37-1,1.43,1.43,0,0,0-1.08-.37,1.75,1.75,0,0,0-1.06.32.94.94,0,0,0-.42.77H521a1.61,1.61,0,0,1,.36-1,2.53,2.53,0,0,1,1-.76,3.31,3.31,0,0,1,1.38-.28,2.75,2.75,0,0,1,1.86.59,2.15,2.15,0,0,1,.7,1.63v3.17a3.85,3.85,0,0,0,.24,1.5v.1Zm-1.94-.89a2.07,2.07,0,0,0,1-.29,1.76,1.76,0,0,0,.72-.74v-1.41h-.92q-2.16,0-2.16,1.26a1.07,1.07,0,0,0,.37.87A1.47,1.47,0,0,0,523.37,160.3Z"/><path class="cls-40" d="M529.25,160.23h4v1h-5.45v-.86l3.79-5h-3.74v-1h5.21v.84Zm1.26-7.71,1-1.08h1v.07l-1.61,1.73h-.72l-1.59-1.73v-.07h1Z"/><path class="cls-40" d="M464.61,173.3a4.08,4.08,0,0,1,.74-2.54,2.56,2.56,0,0,1,3.88-.14V167h1.17v9.75h-1.08l-.05-.73a2.42,2.42,0,0,1-2,.86,2.35,2.35,0,0,1-1.94-1,4.07,4.07,0,0,1-.75-2.55Zm1.17.13a3.06,3.06,0,0,0,.48,1.83,1.57,1.57,0,0,0,1.34.66,1.72,1.72,0,0,0,1.63-1v-3.16a1.74,1.74,0,0,0-1.62-1,1.58,1.58,0,0,0-1.35.67A3.35,3.35,0,0,0,465.78,173.43Z"/><path class="cls-40" d="M475.07,176.92a3,3,0,0,1-2.27-.92,3.42,3.42,0,0,1-.88-2.45v-.22a4.23,4.23,0,0,1,.39-1.82,3.08,3.08,0,0,1,1.1-1.26,2.73,2.73,0,0,1,1.52-.45,2.57,2.57,0,0,1,2.08.88,3.85,3.85,0,0,1,.74,2.53v.48H473.1a2.43,2.43,0,0,0,.59,1.64,1.86,1.86,0,0,0,1.45.63,2,2,0,0,0,1.05-.25A2.72,2.72,0,0,0,477,175l.71.56A2.87,2.87,0,0,1,475.07,176.92Zm-.14-6.16a1.57,1.57,0,0,0-1.2.52,2.47,2.47,0,0,0-.59,1.45h3.44v-.09a2.33,2.33,0,0,0-.48-1.39A1.51,1.51,0,0,0,474.93,170.76Z"/><path class="cls-40" d="M483.11,175a.87.87,0,0,0-.36-.74,3.29,3.29,0,0,0-1.25-.45,6.06,6.06,0,0,1-1.42-.46,2.08,2.08,0,0,1-.77-.64,1.46,1.46,0,0,1-.25-.87,1.8,1.8,0,0,1,.71-1.43,2.81,2.81,0,0,1,1.83-.58,2.86,2.86,0,0,1,1.89.6,1.9,1.9,0,0,1,.73,1.54H483a1.07,1.07,0,0,0-.41-.83,1.55,1.55,0,0,0-1-.35,1.57,1.57,0,0,0-1,.28.87.87,0,0,0-.37.73.72.72,0,0,0,.34.64,4.13,4.13,0,0,0,1.22.42,6.4,6.4,0,0,1,1.42.46,2.29,2.29,0,0,1,.81.66,1.6,1.6,0,0,1,.26.94,1.75,1.75,0,0,1-.73,1.47,3.09,3.09,0,0,1-1.91.56,3.52,3.52,0,0,1-1.46-.29,2.4,2.4,0,0,1-1-.82,2,2,0,0,1-.36-1.13H480a1.21,1.21,0,0,0,.47.93,1.85,1.85,0,0,0,1.17.35,1.91,1.91,0,0,0,1.07-.27A.85.85,0,0,0,483.11,175Z"/><path class="cls-40" d="M487.1,167.05h1.42l-1.7,1.86h-.94Zm0,9.74h-1.18v-6.87h1.18Z"/><path class="cls-40" d="M490.62,168.26v1.66h1.28v.91h-1.28v4.27a1,1,0,0,0,.17.62.74.74,0,0,0,.58.2,2.72,2.72,0,0,0,.56-.07v.94a3.21,3.21,0,0,1-.9.13,1.47,1.47,0,0,1-1.19-.48,2.07,2.07,0,0,1-.4-1.35v-4.26h-1.25v-.91h1.25v-1.66Z"/><path class="cls-40" d="M495.19,173.61l-.74.77v2.41h-1.17V167h1.17v5.9l.63-.76,2.14-2.26h1.43L496,172.79l3,4h-1.38Z"/><path class="cls-40" d="M502.11,175.07l1.6-5.15H505l-2.76,7.93c-.42,1.14-1.1,1.72-2,1.72l-.23,0-.43-.09v-1l.31,0a1.56,1.56,0,0,0,.93-.24,1.75,1.75,0,0,0,.55-.89l.26-.69-2.45-6.8h1.28Z"/><path class="cls-40" d="M510.4,170.75a2.52,2.52,0,0,1,2-.95c1.45,0,2.18.82,2.19,2.45v4.54h-1.17v-4.54a1.62,1.62,0,0,0-.34-1.1,1.35,1.35,0,0,0-1-.36,1.7,1.7,0,0,0-1,.31,2,2,0,0,0-.68.8v4.89h-1.17V167h1.17Z"/><path class="cls-40" d="M516.08,173.29a4,4,0,0,1,.4-1.81,2.89,2.89,0,0,1,1.1-1.24,2.94,2.94,0,0,1,1.62-.44,2.9,2.9,0,0,1,2.27,1,3.76,3.76,0,0,1,.86,2.58v.08a4.17,4.17,0,0,1-.38,1.8,2.89,2.89,0,0,1-1.1,1.24,3,3,0,0,1-1.64.45,2.9,2.9,0,0,1-2.26-1,3.72,3.72,0,0,1-.87-2.57Zm1.18.14a3,3,0,0,0,.53,1.84,1.7,1.7,0,0,0,1.42.69,1.67,1.67,0,0,0,1.42-.7,3.23,3.23,0,0,0,.53-2,2.93,2.93,0,0,0-.54-1.83,1.79,1.79,0,0,0-2.83,0A3.24,3.24,0,0,0,517.26,173.43Z"/><path class="cls-40" d="M523.52,173.3a4,4,0,0,1,.75-2.54,2.55,2.55,0,0,1,3.87-.14V167h1.17v9.75h-1.08l-.05-.73a2.41,2.41,0,0,1-2,.86,2.35,2.35,0,0,1-2-1,4.07,4.07,0,0,1-.75-2.55Zm1.17.13a3,3,0,0,0,.49,1.83,1.55,1.55,0,0,0,1.33.66,1.71,1.71,0,0,0,1.63-1v-3.16a1.74,1.74,0,0,0-1.62-1,1.58,1.58,0,0,0-1.34.67A3.27,3.27,0,0,0,524.69,173.43Z"/><path class="cls-40" d="M531.14,168.1a.68.68,0,0,1,.18-.48.65.65,0,0,1,.51-.2.66.66,0,0,1,.52.2.7.7,0,1,1-1.21.48Zm1.27,8.69h-1.17v-6.87h1.17Z"/><path class="cls-40" d="M535.4,169.92l0,.87a2.5,2.5,0,0,1,2.06-1c1.45,0,2.18.82,2.19,2.45v4.54h-1.17v-4.54a1.62,1.62,0,0,0-.34-1.1,1.35,1.35,0,0,0-1-.36,1.72,1.72,0,0,0-1,.31,2.12,2.12,0,0,0-.68.8v4.89h-1.17v-6.87Z"/><path class="cls-41" d="M12.65,218H11l-3.13-5.14V218H6.29v-7.82H7.91l3.14,5.16v-5.16h1.6Z"/><path class="cls-41" d="M19.58,216.36H16.75L16.21,218H14.5l2.91-7.82H18.9L21.83,218H20.12Zm-2.4-1.3h2l-1-2.93Zm1.31-7h1.69l-1.49,1.66H17.43Z"/><path class="cls-41" d="M26.11,214.84l-.84.9V218H23.66v-7.82h1.61v3.55l.71-1,2-2.58h2l-2.78,3.48L30,218H28.12Z"/><path class="cls-41" d="M33.36,216.68h3.42V218h-5v-7.82h1.62Z"/><path class="cls-41" d="M43.32,216.36H40.49L40,218H38.24l2.91-7.82h1.5L45.57,218H43.86Zm-2.39-1.3h2l-1-2.93Z"/><path class="cls-41" d="M47.4,218v-7.82h2.41a3.69,3.69,0,0,1,1.85.47,3.3,3.3,0,0,1,1.27,1.32,4.12,4.12,0,0,1,.45,1.95v.36a4,4,0,0,1-.45,1.93,3.21,3.21,0,0,1-1.26,1.32,3.68,3.68,0,0,1-1.84.47ZM49,211.46v5.22h.77a1.76,1.76,0,0,0,1.45-.62,2.83,2.83,0,0,0,.51-1.77v-.41a2.85,2.85,0,0,0-.5-1.81,1.72,1.72,0,0,0-1.44-.61Z"/><path class="cls-41" d="M58.35,213.68,60,210.15h1.76l-2.57,5V218H57.53v-2.83l-2.56-5h1.76Z"/><path class="cls-41" d="M73.75,218H72.14L69,212.83V218H67.39v-7.82H69l3.15,5.16v-5.16h1.6Z"/><path class="cls-41" d="M80.67,216.36H77.85L77.31,218H75.6l2.91-7.82H80L82.93,218H81.22Zm-2.39-1.3h2l-1-2.93Z"/><path class="cls-41" d="M91.49,216l1.77-5.88h1.8L92.33,218H90.65l-2.71-7.82h1.79Z"/><path class="cls-41" d="M99.59,213.68l1.62-3.53H103l-2.57,5V218H98.77v-2.83l-2.57-5H98Zm.33-5.62h1.69l-1.49,1.66H98.86Z"/><path class="cls-41" d="M107.69,215.11H106.4V218h-1.61v-7.82h2.91a3.28,3.28,0,0,1,2.13.62,2.11,2.11,0,0,1,.76,1.75,2.42,2.42,0,0,1-.35,1.33,2.32,2.32,0,0,1-1,.85l1.69,3.2V218h-1.73Zm-1.29-1.3h1.3a1.35,1.35,0,0,0,.94-.31,1.12,1.12,0,0,0,.34-.85,1.18,1.18,0,0,0-.32-.87,1.27,1.27,0,0,0-1-.32h-1.3Z"/><path class="cls-41" d="M119.33,214.24a4.78,4.78,0,0,1-.4,2,3.13,3.13,0,0,1-1.17,1.34,3.46,3.46,0,0,1-3.48,0,3.06,3.06,0,0,1-1.18-1.33,4.7,4.7,0,0,1-.43-2v-.38a4.71,4.71,0,0,1,.42-2,3.09,3.09,0,0,1,1.18-1.34,3.44,3.44,0,0,1,3.47,0,3.09,3.09,0,0,1,1.18,1.34,4.66,4.66,0,0,1,.41,2Zm-1.63-.35a3.23,3.23,0,0,0-.44-1.87,1.42,1.42,0,0,0-1.26-.64,1.44,1.44,0,0,0-1.25.63,3.26,3.26,0,0,0-.44,1.85v.38a3.28,3.28,0,0,0,.44,1.86,1.42,1.42,0,0,0,1.27.66,1.4,1.4,0,0,0,1.24-.64,3.26,3.26,0,0,0,.44-1.85Z"/><path class="cls-41" d="M121.61,218v-7.82h2.73a3.55,3.55,0,0,1,2.16.55,1.86,1.86,0,0,1,.74,1.6,1.74,1.74,0,0,1-.3,1,1.7,1.7,0,0,1-.82.64,1.63,1.63,0,0,1,.95.61,1.77,1.77,0,0,1,.35,1.11,2,2,0,0,1-.72,1.71,3.19,3.19,0,0,1-2,.59Zm1.61-4.54h1.19c.81,0,1.22-.34,1.22-1a.9.9,0,0,0-.31-.77,1.68,1.68,0,0,0-1-.23h-1.12Zm0,1.14v2.11h1.38a1.35,1.35,0,0,0,.89-.27.94.94,0,0,0,.32-.75,1,1,0,0,0-1.12-1.09Z"/><path class="cls-41" d="M135.64,210.15v5.15a2.6,2.6,0,0,1-.8,2,3.06,3.06,0,0,1-2.19.75,3.15,3.15,0,0,1-2.18-.72,2.63,2.63,0,0,1-.82-2v-5.21h1.61v5.16a1.45,1.45,0,0,0,.37,1.12,1.38,1.38,0,0,0,1,.36c.9,0,1.36-.48,1.38-1.43v-5.21Z"/><path class="cls-41" d="M139.14,212.69l-1.62-.48.25-.81,1.62.6,0-1.85h.82l0,1.88,1.59-.59.25.81-1.65.49,1.06,1.46-.66.5-1-1.55-1,1.51-.67-.49Z"/><path class="cls-41" d="M89.16,231.17h-1l-3.94-6v6h-1v-7.82h1l4,6.06v-6.06h1Z"/><path class="cls-41" d="M96.51,229.13H93.23l-.73,2H91.44l3-7.82h.9l3,7.82H97.26Zm-3-.85H96.2l-1.33-3.65Z"/><path class="cls-41" d="M107.3,231.17h-1v-6.62l-2,.74v-.91l2.84-1.06h.16Z"/><path class="cls-41" d="M116.72,223.35l2.56,6.38,2.56-6.38h1.33v7.82h-1v-3l.1-3.29-2.57,6.33h-.79l-2.56-6.31.1,3.27v3h-1v-7.82Z"/><path class="cls-41" d="M127.78,228.71l.15,1,.22-.93,1.55-5.46h.87l1.51,5.46.21.95.17-1.06,1.21-5.35h1l-1.9,7.82h-.94l-1.61-5.7-.12-.59-.12.59-1.67,5.7h-.94l-1.89-7.82h1Z"/><path class="cls-41" d="M137.79,226.07a2.13,2.13,0,0,1,1.72-.82c1.23,0,1.85.7,1.86,2.08v3.84h-1v-3.84a1.36,1.36,0,0,0-.29-.93,1.16,1.16,0,0,0-.88-.3,1.4,1.4,0,0,0-.85.26,1.78,1.78,0,0,0-.57.67v4.14h-1v-8.25h1Z"/><rect class="cls-42" x="342.66" y="107.59" width="43" height="15"/><g class="cls-34"><line class="cls-35" x1="422.66" y1="107.59" x2="422.66" y2="122.59"/><line class="cls-35" x1="402.66" y1="107.59" x2="402.66" y2="122.59"/><line class="cls-35" x1="382.66" y1="107.59" x2="382.66" y2="122.59"/><line class="cls-35" x1="362.66" y1="107.59" x2="362.66" y2="122.59"/><line class="cls-35" x1="342.66" y1="107.59" x2="342.66" y2="122.59"/></g><text class="cls-36" transform="translate(393.55 120.54)">4,3 GW</text><text class="cls-43" transform="translate(342.66 78.1)">Jád<tspan class="cls-44" x="29.85" y="0">r</tspan><tspan x="36.1" y="0">o</tspan></text><path class="cls-40" d="M346.79,159.57l2.64-7.62h1.33l-3.42,9.24h-1.08L342.84,152h1.32Z"/><path class="cls-40" d="M354,159.47l1.6-5.15h1.25l-2.76,7.93c-.43,1.15-1.11,1.72-2,1.72l-.22,0-.44-.09v-1l.32,0a1.56,1.56,0,0,0,.93-.24,1.75,1.75,0,0,0,.55-.89l.26-.69-2.45-6.8h1.28Z"/><path class="cls-40" d="M361.9,159.37a.87.87,0,0,0-.36-.74,3.29,3.29,0,0,0-1.25-.45,5.91,5.91,0,0,1-1.42-.46,2,2,0,0,1-.77-.64,1.46,1.46,0,0,1-.25-.87,1.8,1.8,0,0,1,.71-1.43,2.81,2.81,0,0,1,1.83-.58,2.86,2.86,0,0,1,1.89.6,1.9,1.9,0,0,1,.73,1.54h-1.18a1.07,1.07,0,0,0-.41-.83,1.55,1.55,0,0,0-1-.35,1.62,1.62,0,0,0-1,.28.89.89,0,0,0-.36.73.72.72,0,0,0,.34.64,4.13,4.13,0,0,0,1.22.42,6.4,6.4,0,0,1,1.42.46,2.29,2.29,0,0,1,.81.66,1.67,1.67,0,0,1,.26.94,1.75,1.75,0,0,1-.73,1.47,3.09,3.09,0,0,1-1.91.56A3.52,3.52,0,0,1,359,161a2.4,2.4,0,0,1-1-.82,2,2,0,0,1-.36-1.13h1.18a1.21,1.21,0,0,0,.47.93,1.85,1.85,0,0,0,1.17.35,1.91,1.91,0,0,0,1.07-.27A.85.85,0,0,0,361.9,159.37Zm-1.33-6.85.95-1.08h1v.07l-1.61,1.73h-.72l-1.59-1.73v-.07h1Z"/><path class="cls-40" d="M368.6,159.37a.87.87,0,0,0-.36-.74,3.23,3.23,0,0,0-1.25-.45,6,6,0,0,1-1.41-.46,2,2,0,0,1-.78-.64,1.54,1.54,0,0,1-.25-.87,1.78,1.78,0,0,1,.72-1.43,2.76,2.76,0,0,1,1.82-.58,2.9,2.9,0,0,1,1.9.6,1.92,1.92,0,0,1,.72,1.54h-1.18a1,1,0,0,0-.41-.83,1.53,1.53,0,0,0-1-.35,1.57,1.57,0,0,0-1,.28.89.89,0,0,0-.36.73.71.71,0,0,0,.33.64,4.24,4.24,0,0,0,1.22.42,6.4,6.4,0,0,1,1.42.46,2.12,2.12,0,0,1,.81.66,1.6,1.6,0,0,1,.27.94,1.76,1.76,0,0,1-.74,1.47,3.09,3.09,0,0,1-1.91.56,3.52,3.52,0,0,1-1.46-.29,2.37,2.37,0,0,1-1-.82,2,2,0,0,1-.36-1.13h1.17a1.21,1.21,0,0,0,.47.93,1.87,1.87,0,0,0,1.17.35,1.91,1.91,0,0,0,1.07-.27A.82.82,0,0,0,368.6,159.37Zm-1.33-6.85,1-1.08h1v.07l-1.61,1.73h-.72l-1.59-1.73v-.07h1Z"/><path class="cls-40" d="M372.59,151.45H374l-1.71,1.87h-.94Zm0,9.74H371.4v-6.87h1.18Z"/><path class="cls-40" d="M379,154.32V162q0,2-1.8,2a2.09,2.09,0,0,1-.72-.12v-.93a2.61,2.61,0,0,0,.54.05.81.81,0,0,0,.6-.21,1.09,1.09,0,0,0,.2-.74v-7.7Zm-1.3-1.82a.72.72,0,0,1,.18-.48.63.63,0,0,1,.51-.2.67.67,0,0,1,.52.2.73.73,0,0,1,0,1,.81.81,0,0,1-1,0A.72.72,0,0,1,377.65,152.5Z"/><path class="cls-40" d="M383.69,161.32a3,3,0,0,1-2.27-.92,3.38,3.38,0,0,1-.88-2.45v-.22a4.09,4.09,0,0,1,.39-1.82,3.06,3.06,0,0,1,1.09-1.26,2.78,2.78,0,0,1,1.52-.45,2.58,2.58,0,0,1,2.09.88,3.85,3.85,0,0,1,.74,2.53v.48h-4.65a2.42,2.42,0,0,0,.59,1.65,1.88,1.88,0,0,0,1.44.62,2.05,2.05,0,0,0,1.06-.25,2.68,2.68,0,0,0,.75-.68l.72.56A2.88,2.88,0,0,1,383.69,161.32Zm-.15-6.16a1.55,1.55,0,0,0-1.19.52,2.54,2.54,0,0,0-.6,1.45h3.44V157a2.21,2.21,0,0,0-.48-1.39A1.51,1.51,0,0,0,383.54,155.16Z"/><path class="cls-40" d="M387.44,157.7a4,4,0,0,1,.75-2.54,2.55,2.55,0,0,1,3.87-.14v-3.58h1.18v9.75h-1.08l-.06-.73a2.4,2.4,0,0,1-2,.86,2.35,2.35,0,0,1-1.95-1,4.07,4.07,0,0,1-.75-2.55Zm1.18.13a3.06,3.06,0,0,0,.48,1.83,1.55,1.55,0,0,0,1.33.66,1.7,1.7,0,0,0,1.63-1v-3.16a1.74,1.74,0,0,0-1.62-1,1.58,1.58,0,0,0-1.34.67A3.35,3.35,0,0,0,388.62,157.83Z"/><path class="cls-40" d="M396.17,154.32l0,.87a2.49,2.49,0,0,1,2.05-1c1.46,0,2.19.82,2.2,2.45v4.54h-1.17v-4.54a1.62,1.62,0,0,0-.34-1.1,1.37,1.37,0,0,0-1-.36,1.7,1.7,0,0,0-1,.31,2,2,0,0,0-.68.8v4.89h-1.17v-6.87Z"/><path class="cls-40" d="M401.92,157.69a4,4,0,0,1,.4-1.81,2.89,2.89,0,0,1,1.1-1.24,2.94,2.94,0,0,1,1.62-.44,2.9,2.9,0,0,1,2.27,1,3.77,3.77,0,0,1,.86,2.58v.08a4.17,4.17,0,0,1-.38,1.8,2.89,2.89,0,0,1-1.1,1.24,3,3,0,0,1-1.64.45,2.9,2.9,0,0,1-2.26-1,3.72,3.72,0,0,1-.87-2.57Zm1.18.14a3,3,0,0,0,.53,1.84,1.7,1.7,0,0,0,1.42.69,1.67,1.67,0,0,0,1.42-.7,3.23,3.23,0,0,0,.53-2,2.93,2.93,0,0,0-.54-1.83,1.79,1.79,0,0,0-2.83,0A3.26,3.26,0,0,0,403.1,157.83Z"/><path class="cls-40" d="M411.24,152.66v1.66h1.28v.91h-1.28v4.27a1,1,0,0,0,.17.62.74.74,0,0,0,.58.2,2.72,2.72,0,0,0,.56-.07v.94a3.21,3.21,0,0,1-.9.13,1.47,1.47,0,0,1-1.19-.48,2.05,2.05,0,0,1-.4-1.35v-4.26h-1.25v-.91h1.25v-1.66Z"/><path class="cls-40" d="M415.81,158l-.74.77v2.41H413.9v-9.75h1.17v5.9l.63-.76,2.14-2.26h1.43l-2.67,2.87,3,4H418.2Z"/><path class="cls-40" d="M422.73,159.47l1.6-5.15h1.25l-2.76,7.93c-.42,1.15-1.1,1.72-2,1.72l-.23,0-.43-.09v-1l.31,0a1.56,1.56,0,0,0,.93-.24,1.68,1.68,0,0,0,.55-.89l.26-.69-2.45-6.8H421Z"/><path class="cls-40" d="M343.26,173.3a4,4,0,0,1,.75-2.54,2.55,2.55,0,0,1,3.87-.14V167h1.18v9.75H348l-.06-.73a2.4,2.4,0,0,1-2,.86,2.37,2.37,0,0,1-1.95-1,4.07,4.07,0,0,1-.75-2.55Zm1.18.13a3.06,3.06,0,0,0,.48,1.83,1.55,1.55,0,0,0,1.33.66,1.7,1.7,0,0,0,1.63-1v-3.16a1.74,1.74,0,0,0-1.62-1,1.58,1.58,0,0,0-1.34.67A3.35,3.35,0,0,0,344.44,173.43Z"/><path class="cls-40" d="M352,169.92l0,.87a2.49,2.49,0,0,1,2.05-1c1.46,0,2.19.82,2.2,2.45v4.54h-1.17v-4.54a1.62,1.62,0,0,0-.34-1.1,1.37,1.37,0,0,0-1-.36,1.7,1.7,0,0,0-1,.31,2,2,0,0,0-.68.8v4.89h-1.17v-6.87Z"/><path class="cls-40" d="M362.29,176.11a2.49,2.49,0,0,1-2,.81,2.11,2.11,0,0,1-1.67-.64,2.69,2.69,0,0,1-.58-1.89v-4.47h1.17v4.44c0,1,.42,1.56,1.27,1.56a1.75,1.75,0,0,0,1.79-1v-5h1.17v6.87h-1.11Zm-.16-8.33a1.21,1.21,0,0,1-.4.93,1.44,1.44,0,0,1-1.94,0,1.22,1.22,0,0,1-.39-.92,1.27,1.27,0,0,1,.39-.93,1.31,1.31,0,0,1,1-.39,1.33,1.33,0,0,1,1,.39A1.27,1.27,0,0,1,362.13,167.78Zm-2.1,0a.72.72,0,0,0,.21.52.7.7,0,0,0,.52.21.73.73,0,0,0,.52-.2.71.71,0,0,0,.22-.53.76.76,0,0,0-.21-.53.74.74,0,0,0-.53-.21.66.66,0,0,0-.52.22A.73.73,0,0,0,360,167.78Z"/><text class="cls-36" transform="translate(342.66 224.9)">25 EUR</text><text class="cls-18" transform="translate(163.26 266.16)"><tspan class="cls-45">V</tspan><tspan x="8.2" y="0">ý</tspan><tspan class="cls-7" x="14.35" y="0">r</tspan><tspan x="18.62" y="0">oba z</tspan><tspan class="cls-9" x="50.06" y="0">á</tspan><tspan x="57.04" y="0">visí na poč</tspan><tspan class="cls-46" x="118.6" y="0">a</tspan><tspan x="125.41" y="0">sí </tspan><tspan x="0" y="15.6">a mů</tspan><tspan class="cls-19" x="28.85" y="15.6">ž</tspan><tspan x="35.19" y="15.6">e se během dne </tspan><tspan class="cls-47" x="0" y="31.2">r</tspan><tspan class="cls-22" x="4.51" y="31.2">y</tspan><tspan x="10.58" y="31.2">chle měnit.</tspan><tspan x="0" y="46.8">Ostatní druhy elekt</tspan><tspan class="cls-48" x="108" y="46.8">r</tspan><tspan x="112.14" y="46.8">á</tspan><tspan class="cls-5" x="119.21" y="46.8">r</tspan><tspan x="123.49" y="46.8">en </tspan><tspan x="0" y="62.4">tak musí flexibilně </tspan><tspan x="0" y="78">doplň</tspan><tspan class="cls-9" x="32.37" y="78">ov</tspan><tspan x="45.89" y="78">at ty</tspan><tspan class="cls-7" x="70.82" y="78">t</tspan><tspan x="74.94" y="78">o </tspan><tspan class="cls-19" x="85.57" y="78">z</tspan><tspan x="91.91" y="78">d</tspan><tspan class="cls-7" x="99.25" y="78">r</tspan><tspan x="103.52" y="78">oje.</tspan></text><rect class="cls-49" x="163.26" y="107.78" width="35" height="15"/><g class="cls-34"><line class="cls-35" x1="243.34" y1="107.78" x2="243.34" y2="122.78"/><line class="cls-35" x1="223.34" y1="107.78" x2="223.34" y2="122.78"/><line class="cls-35" x1="203.34" y1="107.78" x2="203.34" y2="122.78"/><line class="cls-35" x1="183.34" y1="107.78" x2="183.34" y2="122.78"/><line class="cls-35" x1="163.34" y1="107.78" x2="163.34" y2="122.78"/></g><text class="cls-36" transform="translate(207.97 120.54)">3,5 GW</text><text class="cls-50" transform="translate(163.26 78.1)">Slunce, vít<tspan class="cls-51" x="84.09" y="0">r</tspan><tspan x="89.14" y="0">, hyd</tspan><tspan class="cls-44" x="127.27" y="0">r</tspan><tspan x="133.51" y="0">o</tspan></text><text class="cls-52" transform="translate(163.26 161.19)">Náběh je sko<tspan class="cls-7" x="73.33" y="0">r</tspan><tspan x="77.53" y="0">o okamžit</tspan><tspan class="cls-53" x="133.35" y="0">ý</tspan><tspan x="138.7" y="0">, </tspan><tspan x="0" y="15.6">ale u</tspan><tspan class="cls-54" x="26.99" y="15.6">r</tspan><tspan x="31.2" y="15.6">čuje </tspan><tspan class="cls-7" x="57.88" y="15.6">t</tspan><tspan x="61.93" y="15.6">o počasí a ne </tspan><tspan x="0" y="31.2">dispečer</tspan></text><text class="cls-36" transform="translate(163.26 224.9)">0 EUR</text><text class="cls-36" transform="translate(464 224.9)">100 EUR</text><text class="cls-36" transform="translate(629.87 224.9)">200 EUR</text><line class="cls-55" x1="5.8" y1="137.07" x2="735.81" y2="137.07"/><line class="cls-55" x1="5.8" y1="94.59" x2="735.81" y2="94.59"/><line class="cls-55" x1="5.8" y1="202.58" x2="735.81" y2="202.58"/><line class="cls-55" x1="5.8" y1="239.61" x2="735.81" y2="239.61"/></svg>