<?xml version="1.0" encoding="UTF-8"?><svg id="a" xmlns="http://www.w3.org/2000/svg" viewBox="0 0 660 284.449475398850154"><defs><style>.g{fill:#000;font-family:Akrobat-Black, Akrobat;font-size:17px;font-weight:800;}.h,.i{font-family:Roboto-Medium, Roboto;font-weight:500;}.j{letter-spacing:.099982766544118em;}.k{letter-spacing:.100011488970588em;}.l,.m{font-family:Roboto-Regular, Roboto;}.n{letter-spacing:-.01025390625em;}.o{letter-spacing:-.00732421875em;}.p,.m,.i{fill:#333;}.p,.i{font-size:11px;}.q{fill:#8546af;}.q,.r{stroke-width:0px;}.s{letter-spacing:.065975413602941em;}.t{stroke:#9ea7b3;stroke-dasharray:0 5;stroke-linecap:square;stroke-width:.75px;}.t,.u{fill:none;stroke-miterlimit:10;}.v{letter-spacing:.119973575367647em;}.m{font-size:10px;}.w{letter-spacing:-.0126953125em;}.x{letter-spacing:-.009765625em;}.u{stroke:rgba(0,0,0,0);stroke-width:2px;}.r{fill:#bfcad9;}.y{letter-spacing:.052016314338235em;}.z{letter-spacing:-.00634765625em;}</style></defs><text class="g" transform="translate(2.034889517220108 22.998940961863809)"><tspan class="k" x="0" y="0">DO</tspan><tspan class="y" x="21.3857421875" y="0">P</tspan><tspan class="j" x="31.177734375" y="0">ADY Z</tspan><tspan class="s" x="75.7001953125" y="0">A</tspan><tspan class="k" x="85.2197265625" y="0">VEDENÍ POVOLEN</tspan><tspan class="v" x="219.92578125" y="0">K</tspan><tspan class="k" x="230.94140625" y="0">Y NA CENU </tspan><tspan class="y" x="319.646484375" y="0">P</tspan><tspan class="j" x="329.4384765625" y="0">ALIV</tspan></text><text class="p" transform="translate(2.034645376595108 93.013833539988809)"><tspan class="h"><tspan x="0" y="0">Benzín</tspan></tspan><tspan class="l"><tspan x="0" y="13.2001953125">při ceně 38,4 </tspan><tspan class="w" x="64.97412109375" y="13.2001953125">K</tspan><tspan x="71.736328125" y="13.2001953125">č za litr</tspan></tspan></text><text class="m" transform="translate(105.137428579720108 247.408364789988809)"><tspan x="0" y="0">0 %</tspan></text><text class="m" transform="translate(141.093727407845108 247.408364789988809)"><tspan x="0" y="0">25 %</tspan></text><text class="m" transform="translate(180.823463735970108 247.408364789988809)"><tspan x="0" y="0">50 %</tspan></text><text class="m" transform="translate(219.685524282845108 247.408364789988809)"><tspan x="0" y="0">75 %</tspan></text><text class="m" transform="translate(256.440651235970108 247.408364789988809)"><tspan x="0" y="0">100 %</tspan></text><text class="p" transform="translate(2.034889517220108 134.569985883738809)"><tspan class="h"><tspan x="0" y="0">Nafta</tspan></tspan><tspan class="l"><tspan x="0" y="13.2001953125">při ceně 38,4 </tspan><tspan class="w" x="64.97412109375" y="13.2001953125">K</tspan><tspan x="71.736328125" y="13.2001953125">č za litr</tspan></tspan></text><text class="i" transform="translate(141.552711782845108 69.614907758738809)"><tspan x="0" y="0">30 eur za p</tspan><tspan class="o" x="54.291015625" y="0">ov</tspan><tspan x="65.8388671875" y="0">olenku</tspan></text><text class="i" transform="translate(317.276344595345108 69.614907758738809)"><tspan x="0" y="0">45 eur za p</tspan><tspan class="o" x="54.291015625" y="0">ov</tspan><tspan x="65.8388671875" y="0">olenku</tspan></text><text class="i" transform="translate(314.539772329720108 271.716958539988809)"><tspan class="z" x="0" y="0">P</tspan><tspan x="6.96630859375" y="0">odíl na ceně pali</tspan><tspan class="o" x="86.90966796875" y="0">v</tspan><tspan x="92.275390625" y="0">a</tspan></text><text class="i" transform="translate(510.174537954720108 69.614907758738809)"><tspan x="0" y="0">70 eur za p</tspan><tspan class="o" x="54.291015625" y="0">ov</tspan><tspan x="65.8388671875" y="0">olenku</tspan></text><text class="p" transform="translate(2.034889517220108 175.363931196238809)"><tspan class="h"><tspan class="n" x="0" y="0">Z</tspan><tspan x="6.51513671875" y="0">emní plyn</tspan></tspan><tspan class="l"><tspan x="0" y="13.2001953125">při ceně 15 </tspan><tspan class="w" x="56.62744140625" y="13.2001953125">K</tspan><tspan x="63.3896484375" y="13.2001953125">č za m³</tspan></tspan></text><text class="p" transform="translate(2.034889517220108 215.365884321238809)"><tspan class="h"><tspan x="0" y="0">Uhlí</tspan></tspan><tspan class="l"><tspan x="0" y="13.2001953125">při ceně 680 </tspan><tspan class="w" x="62.8095703125" y="13.2001953125">K</tspan><tspan x="69.57177734375" y="13.2001953125">č za 100 </tspan><tspan class="x" x="113.501953125" y="13.2001953125">k</tspan><tspan x="118.9697265625" y="13.2001953125">g</tspan></tspan></text><path class="t" d="M108.100495787571163,80.120543023426308v159.363694981027948"/><path class="t" d="M147.440852390594046,80.120543023426308v159.363694981027948"/><path class="t" d="M186.781208993616929,80.120543023426308v159.363694981027948"/><path class="t" d="M226.121565596641631,80.120543023426308v159.363694981027948"/><path class="t" d="M265.461922199663604,80.120543023426308v159.363694981027948"/><path class="u" d="M108.377540552382015,105.907548683786899v-25.787005660360592h6.649074355439552v25.787005660360592h-6.649074355439552Z"/><path class="q" d="M108.377540552382015,105.907548683786899v-25.787005660360592h6.649074355439552v25.787005660360592h-6.649074355439552Z"/><path class="u" d="M108.377540552382015,146.135277513948949v-25.787005660360592h7.203163885059439v25.787005660360592h-7.203163885059439Z"/><path class="q" d="M108.377540552382015,146.135277513948949v-25.787005660360592h7.203163885059439v25.787005660360592h-7.203163885059439Z"/><path class="u" d="M108.377540552382015,186.363006344111v-25.787005660359682h13.298148710879104v25.787005660359682h-13.298148710879104Z"/><path class="q" d="M108.377540552382015,186.363006344111v-25.787005660359682h13.298148710879104v25.787005660359682h-13.298148710879104Z"/><path class="u" d="M108.377540552382015,225.559254947859245v-25.787005660360592h37.678088014161403v25.787005660360592h-37.678088014161403Z"/><path class="q" d="M108.377540552382015,225.559254947859245v-25.787005660360592h37.678088014161403v25.787005660360592h-37.678088014161403Z"/><path class="u" d="M115.026614907821568,105.907548683786899v-25.787005660360592h149.050083467792319c.612038285051312,0,1.108179059239774.923619905497617,1.108179059239774,2.06296045282852v21.661084754703552c0,1.139340547330903-.496140774188461,2.06296045282852-1.108179059239774,2.06296045282852H115.026614907821568Z"/><path class="r" d="M115.026614907821568,105.907548683786899v-25.787005660360592h149.050083467792319c.612038285051312,0,1.108179059239774.923619905497617,1.108179059239774,2.06296045282852v21.661084754703552c0,1.139340547330903-.496140774188461,2.06296045282852-1.108179059239774,2.06296045282852H115.026614907821568Z"/><path class="u" d="M115.580704437441455,146.135277513948949v-25.787005660360592h148.495993938172433c.612038285051312,0,1.108179059239774.923619905497617,1.108179059239774,2.06296045282852v21.661084754703552c0,1.139340547330903-.496140774188461,2.06296045282852-1.108179059239774,2.06296045282852H115.580704437441455Z"/><path class="r" d="M115.580704437441455,146.135277513948949v-25.787005660360592h148.495993938172433c.612038285051312,0,1.108179059239774.923619905497617,1.108179059239774,2.06296045282852v21.661084754703552c0,1.139340547330903-.496140774188461,2.06296045282852-1.108179059239774,2.06296045282852H115.580704437441455Z"/><path class="u" d="M121.67568926326112,186.363006344111v-25.787005660359682h142.401009112352767c.612038285051312,0,1.108179059239774.923619905496707,1.108179059239774,2.06296045282852v21.661084754702642c0,1.139340547331813-.496140774188461,2.06296045282852-1.108179059239774,2.06296045282852H121.67568926326112Z"/><path class="r" d="M121.67568926326112,186.363006344111v-25.787005660359682h142.401009112352767c.612038285051312,0,1.108179059239774.923619905496707,1.108179059239774,2.06296045282852v21.661084754702642c0,1.139340547331813-.496140774188461,2.06296045282852-1.108179059239774,2.06296045282852H121.67568926326112Z"/><path class="u" d="M146.055628566543419,225.559254947859245v-25.787005660360592h118.021069809070468c.612038285051312,0,1.108179059239774.923619905497617,1.108179059239774,2.062960452829429v21.661084754701733c0,1.139340547331813-.496140774188461,2.062960452829429-1.108179059239774,2.062960452829429h-118.021069809070468Z"/><path class="r" d="M146.055628566543419,225.559254947859245v-25.787005660360592h118.021069809070468c.612038285051312,0,1.108179059239774.923619905497617,1.108179059239774,2.062960452829429v21.661084754701733c0,1.139340547331813-.496140774188461,2.062960452829429-1.108179059239774,2.062960452829429h-118.021069809070468Z"/><path class="t" d="M294.869784195532702,80.120543023426308v159.363694981027948"/><path class="t" d="M334.210140798555585,80.120543023426308v159.363694981027948"/><path class="t" d="M373.550497401578468,80.120543023426308v159.363694981027948"/><path class="t" d="M412.890854004601351,80.120543023426308v159.363694981027948"/><path class="t" d="M452.231210607624234,80.120543023426308v159.363694981027948"/><path class="u" d="M295.146828960340827,105.907548683786899v-25.787005660360592h9.973611533161602v25.787005660360592h-9.973611533161602Z"/><path class="q" d="M295.146828960340827,105.907548683786899v-25.787005660360592h9.973611533161602v25.787005660360592h-9.973611533161602Z"/><path class="u" d="M295.146828960340827,146.135277513948949v-25.787005660360592h11.081790592400466v25.787005660360592h-11.081790592400466Z"/><path class="q" d="M295.146828960340827,146.135277513948949v-25.787005660360592h11.081790592400466v25.787005660360592h-11.081790592400466Z"/><path class="u" d="M295.146828960340827,186.363006344111v-25.787005660359682h19.393133536702408v25.787005660359682h-19.393133536702408Z"/><path class="q" d="M295.146828960340827,186.363006344111v-25.787005660359682h19.393133536702408v25.787005660359682h-19.393133536702408Z"/><path class="u" d="M295.146828960340827,225.559254947859245v-25.787005660360592h50.976236725045055v25.787005660360592h-50.976236725045055Z"/><path class="q" d="M295.146828960340827,225.559254947859245v-25.787005660360592h50.976236725045055v25.787005660360592h-50.976236725045055Z"/><path class="u" d="M305.120440493502429,105.907548683786899v-25.787005660360592h145.725546290072089c.612038285052222,0,1.108179059238864.923619905497617,1.108179059238864,2.06296045282852v21.661084754703552c0,1.139340547330903-.496140774186642,2.06296045282852-1.108179059238864,2.06296045282852h-145.725546290072089Z"/><path class="r" d="M305.120440493502429,105.907548683786899v-25.787005660360592h145.725546290072089c.612038285052222,0,1.108179059238864.923619905497617,1.108179059238864,2.06296045282852v21.661084754703552c0,1.139340547330903-.496140774186642,2.06296045282852-1.108179059238864,2.06296045282852h-145.725546290072089Z"/><path class="u" d="M306.228619552741293,146.135277513948949v-25.787005660360592h144.617367230833224c.612038285052222,0,1.108179059238864.923619905497617,1.108179059238864,2.06296045282852v21.661084754703552c0,1.139340547330903-.496140774186642,2.06296045282852-1.108179059238864,2.06296045282852h-144.617367230833224Z"/><path class="r" d="M306.228619552741293,146.135277513948949v-25.787005660360592h144.617367230833224c.612038285052222,0,1.108179059238864.923619905497617,1.108179059238864,2.06296045282852v21.661084754703552c0,1.139340547330903-.496140774186642,2.06296045282852-1.108179059238864,2.06296045282852h-144.617367230833224Z"/><path class="u" d="M314.539962497043234,186.363006344111v-25.787005660359682h136.306024286531283c.612038285052222,0,1.108179059238864.923619905496707,1.108179059238864,2.06296045282852v21.661084754702642c0,1.139340547331813-.496140774186642,2.06296045282852-1.108179059238864,2.06296045282852h-136.306024286531283Z"/><path class="r" d="M314.539962497043234,186.363006344111v-25.787005660359682h136.306024286531283c.612038285052222,0,1.108179059238864.923619905496707,1.108179059238864,2.06296045282852v21.661084754702642c0,1.139340547331813-.496140774186642,2.06296045282852-1.108179059238864,2.06296045282852h-136.306024286531283Z"/><path class="u" d="M346.123065685385882,225.559254947859245v-25.787005660360592h104.722921098188635c.612038285052222,0,1.108179059238864.923619905497617,1.108179059238864,2.062960452829429v21.661084754701733c0,1.139340547331813-.496140774186642,2.062960452829429-1.108179059238864,2.062960452829429h-104.722921098188635Z"/><path class="r" d="M346.123065685385882,225.559254947859245v-25.787005660360592h104.722921098188635c.612038285052222,0,1.108179059238864.923619905497617,1.108179059238864,2.062960452829429v21.661084754701733c0,1.139340547331813-.496140774186642,2.062960452829429-1.108179059238864,2.062960452829429h-104.722921098188635Z"/><path class="t" d="M481.639072603493332,80.120543023426308v159.363694981027948"/><path class="t" d="M520.979429206516215,80.120543023426308v159.363694981027948"/><path class="t" d="M560.319785809540008,80.120543023426308v159.363694981027948"/><path class="t" d="M599.660142412562891,80.120543023426308v159.363694981027948"/><path class="t" d="M639.000499015585774,80.120543023426308v159.363694981027948"/><path class="u" d="M481.916117368302366,105.907548683786899v-25.787005660360592h15.51450682936138v25.787005660360592h-15.51450682936138Z"/><path class="q" d="M481.916117368302366,105.907548683786899v-25.787005660360592h15.51450682936138v25.787005660360592h-15.51450682936138Z"/><path class="u" d="M481.916117368302366,146.135277513948949v-25.787005660360592h16.622685888602973v25.787005660360592h-16.622685888602973Z"/><path class="q" d="M481.916117368302366,146.135277513948949v-25.787005660360592h16.622685888602973v25.787005660360592h-16.622685888602973Z"/><path class="u" d="M481.916117368302366,186.363006344111v-25.787005660359682h28.258566010624236v25.787005660359682h-28.258566010624236Z"/><path class="q" d="M481.916117368302366,186.363006344111v-25.787005660359682h28.258566010624236v25.787005660359682h-28.258566010624236Z"/><path class="u" d="M481.916117368302366,225.559254947859245v-25.787005660360592h67.044833084025413v25.787005660360592h-67.044833084025413Z"/><path class="q" d="M481.916117368302366,225.559254947859245v-25.787005660360592h67.044833084025413v25.787005660360592h-67.044833084025413Z"/><path class="u" d="M497.430624197663747,105.907548683786899v-25.787005660360592h140.184650993871401c.612038285053131,0,1.108179059239774.923619905497617,1.108179059239774,2.06296045282852v21.661084754703552c0,1.139340547330903-.496140774186642,2.06296045282852-1.108179059239774,2.06296045282852h-140.184650993871401Z"/><path class="r" d="M497.430624197663747,105.907548683786899v-25.787005660360592h140.184650993871401c.612038285053131,0,1.108179059239774.923619905497617,1.108179059239774,2.06296045282852v21.661084754703552c0,1.139340547330903-.496140774186642,2.06296045282852-1.108179059239774,2.06296045282852h-140.184650993871401Z"/><path class="u" d="M498.538803256905339,146.135277513948949v-25.787005660360592h139.076471934629808c.612038285053131,0,1.108179059239774.923619905497617,1.108179059239774,2.06296045282852v21.661084754703552c0,1.139340547330903-.496140774186642,2.06296045282852-1.108179059239774,2.06296045282852h-139.076471934629808Z"/><path class="r" d="M498.538803256905339,146.135277513948949v-25.787005660360592h139.076471934629808c.612038285053131,0,1.108179059239774.923619905497617,1.108179059239774,2.06296045282852v21.661084754703552c0,1.139340547330903-.496140774186642,2.06296045282852-1.108179059239774,2.06296045282852h-139.076471934629808Z"/><path class="u" d="M510.174683378926602,186.363006344111v-25.787005660359682h127.440591812608545c.612038285053131,0,1.108179059239774.923619905496707,1.108179059239774,2.06296045282852v21.661084754702642c0,1.139340547331813-.496140774186642,2.06296045282852-1.108179059239774,2.06296045282852h-127.440591812608545Z"/><path class="r" d="M510.174683378926602,186.363006344111v-25.787005660359682h127.440591812608545c.612038285053131,0,1.108179059239774.923619905496707,1.108179059239774,2.06296045282852v21.661084754702642c0,1.139340547331813-.496140774186642,2.06296045282852-1.108179059239774,2.06296045282852h-127.440591812608545Z"/><path class="u" d="M548.960950452327779,225.559254947859245v-25.787005660360592h88.654324739207368c.612038285053131,0,1.108179059239774.923619905497617,1.108179059239774,2.062960452829429v21.661084754701733c0,1.139340547331813-.496140774186642,2.062960452829429-1.108179059239774,2.062960452829429h-88.654324739207368Z"/><path class="r" d="M548.960950452327779,225.559254947859245v-25.787005660360592h88.654324739207368c.612038285053131,0,1.108179059239774.923619905497617,1.108179059239774,2.062960452829429v21.661084754701733c0,1.139340547331813-.496140774186642,2.062960452829429-1.108179059239774,2.062960452829429h-88.654324739207368Z"/><text class="m" transform="translate(291.708961782845108 247.520669477488809)"><tspan x="0" y="0">0 %</tspan></text><text class="m" transform="translate(327.665260610970108 247.520669477488809)"><tspan x="0" y="0">25 %</tspan></text><text class="m" transform="translate(367.394996939095108 247.520669477488809)"><tspan x="0" y="0">50 %</tspan></text><text class="m" transform="translate(406.257057485970108 247.520669477488809)"><tspan x="0" y="0">75 %</tspan></text><text class="m" transform="translate(443.012184439095108 247.520669477488809)"><tspan x="0" y="0">100 %</tspan></text><text class="m" transform="translate(478.280250845345108 247.408364789988809)"><tspan x="0" y="0">0 %</tspan></text><text class="m" transform="translate(514.236549673470108 247.408364789988809)"><tspan x="0" y="0">25 %</tspan></text><text class="m" transform="translate(553.966286001595108 247.408364789988809)"><tspan x="0" y="0">50 %</tspan></text><text class="m" transform="translate(592.828346548470108 247.408364789988809)"><tspan x="0" y="0">75 %</tspan></text><text class="m" transform="translate(629.583473501595108 247.408364789988809)"><tspan x="0" y="0">100 %</tspan></text></svg>