<?xml version="1.0" encoding="UTF-8"?>
<svg xmlns="http://www.w3.org/2000/svg" viewBox="0 0 660 279.17260598">
  <defs>
    <style>
      .cls-1, .cls-2, .cls-3, .cls-4, .cls-5, .cls-6, .cls-7, .cls-8 {
        fill: none;
        stroke-miterlimit: 10;
      }

      .cls-1, .cls-2, .cls-8 {
        stroke: #3b3b93;
      }

      .cls-1, .cls-8 {
        stroke-width: 1.5px;
      }

      .cls-2 {
        stroke-width: 3px;
      }

      .cls-3 {
        stroke-dasharray: 0 0 5.00295353 5.00295353;
      }

      .cls-3, .cls-4, .cls-5, .cls-6 {
        stroke: #9ea7b3;
      }

      .cls-3, .cls-5, .cls-6 {
        stroke-linecap: square;
        stroke-width: .5px;
      }

      .cls-4 {
        stroke-width: .75px;
      }

      .cls-5 {
        stroke-dasharray: 0 0 4.98511648 4.98511648;
      }

      .cls-7 {
        stroke: #f2f2f2;
        stroke-width: 2px;
      }

      .cls-8 {
        stroke-dasharray: 0 0 5.06197977 5.06197977;
      }

      .cls-9, .cls-10, .cls-11, .cls-12 {
        stroke-width: 0px;
      }

      .cls-10 {
        fill: #515b66;
      }

      .cls-11 {
        fill: #3b3b93;
      }

      .cls-12 {
        fill: #fff;
      }
    </style>
  </defs>
  <g id="bile-pozadi">
    <g>
      <rect class="cls-12" y="-.69677199" width="660" height="282.01715043"/>
      <rect class="cls-12" y="-.69677199" width="660" height="282.01715043"/>
      <rect class="cls-12" y="-.69677199" width="660" height="282.01715043"/>
      <rect class="cls-12" y="-.69677199" width="660" height="282.01715043"/>
      <rect class="cls-12" y="-.69677199" width="660" height="282.01715043"/>
      <rect class="cls-12" y="-.69677199" width="660" height="282.01715043"/>
      <rect class="cls-12" y="-.69677199" width="660" height="282.01715043"/>
      <rect class="cls-12" y="-.69677199" width="660" height="282.01715043"/>
      <rect class="cls-12" y="-.69677199" width="660" height="282.01715043"/>
    </g>
  </g>
  <g id="Layer_1" data-name="Layer 1">
    <g>
      <g>
        <path class="cls-9" d="M7.57854658,20.0027601l2.73925781-9.08935547h2.77246094l-4.20800781,12.0859375h-2.59863281L2.09221846,10.91340463h2.76367188l2.72265625,9.08935547Z"/>
        <path class="cls-9" d="M17.42327314,19.6043226l1.66015625-5.58642578h2.57324219l-3.61035156,10.37597656-.19921875.47314453c-.53710938,1.17333984-1.42285156,1.75976562-2.65625,1.75976562-.34863281,0-.703125-.05273438-1.0625-.15771484v-1.81787109l.36523438.00830078c.453125,0,.79296875-.06933594,1.01660156-.20751953.22460938-.13818359.39941406-.36816406.52734375-.68896484l.28222656-.73876953-3.14648438-9.00634766h2.58203125l1.66796875,5.58642578ZM17.94671064,10.24934213h2.61425781l-2.29882812,2.57324219h-1.95117188l1.63574219-2.57324219Z"/>
        <path class="cls-9" d="M25.96526533,20.06916635l1.66796875-6.05126953h2.50683594l-3.02929688,8.98144531h-2.29101562l-3.03027344-8.98144531h2.50683594l1.66894531,6.05126953Z"/>
        <path class="cls-9" d="M30.69671064,18.42561166c0-.89111328.17089844-1.68505859.51464844-2.38232422.34277344-.69726562.83691406-1.23681641,1.48144531-1.61865234s1.39355469-.57275391,2.24511719-.57275391c1.21191406,0,2.20117188.37060547,2.96777344,1.11230469s1.19433594,1.74853516,1.28222656,3.02148438l.01660156.61425781c0,1.37792969-.38476562,2.48339844-1.15332031,3.31640625-.76953125.83251953-1.80175781,1.24902344-3.09667969,1.24902344s-2.328125-.41503906-3.09960938-1.24511719c-.77246094-.83007812-1.15820312-1.95898438-1.15820312-3.38671875v-.10791016ZM33.09514814,18.59602182c0,.85351562.16113281,1.50585938.48144531,1.95751953.32128906.45214844.78027344.67773438,1.37792969.67773438.58105469,0,1.03515625-.22314453,1.36132812-.66943359.32714844-.44580078.49023438-1.15966797.49023438-2.140625,0-.83691406-.16308594-1.48535156-.49023438-1.9453125-.32617188-.45996094-.78515625-.68994141-1.37792969-.68994141-.5859375,0-1.04003906.22851562-1.36132812.68603516-.3203125.45703125-.48144531,1.16503906-.48144531,2.12402344Z"/>
        <path class="cls-9" d="M43.22210127,14.01789682v9.47119141c0,.99072266-.26269531,1.76123047-.78808594,2.31201172-.52636719.55029297-1.28417969.82568359-2.27441406.82568359-.41503906,0-.81054688-.046875-1.1875-.14111328v-1.90087891c.28808594.04980469.54003906.07470703.75585938.07470703.72460938,0,1.08691406-.38476562,1.08691406-1.15380859v-9.48779297h2.40722656ZM40.62444502,11.69367807c0-.35986328.12011719-.65576172.36132812-.88818359.24023438-.23242188.56835938-.34863281.98339844-.34863281s.74316406.11621094.98339844.34863281c.24121094.23242188.36132812.52832031.36132812.88818359,0,.36523438-.12304688.6640625-.36914062.89648438-.24707031.23242188-.57226562.34863281-.97558594.34863281-.40429688,0-.72949219-.11621094-.97558594-.34863281s-.36914062-.53125-.36914062-.89648438Z"/>
        <path class="cls-9" d="M53.46526533,23.16535776c-1.31640625,0-2.38867188-.40380859-3.21582031-1.21191406-.828125-.80810547-1.24121094-1.88427734-1.24121094-3.22900391v-.23242188c0-.90185547.17382812-1.70849609.52246094-2.41943359.34863281-.71142578.84277344-1.25927734,1.48242188-1.64355469.63867188-.38476562,1.36816406-.57714844,2.18652344-.57714844,1.22851562,0,2.19628906.38720703,2.90136719,1.16210938.70605469.77490234,1.05859375,1.87304688,1.05859375,3.29541016v.97949219h-5.71972656c.078125.58642578.31152344,1.05712891.70214844,1.41113281.38964844.35400391.88378906.53125,1.48144531.53125.92382812,0,1.64648438-.33496094,2.16601562-1.00439453l1.17871094,1.31982422c-.359375.50927734-.84667969.90625-1.4609375,1.19091797-.61425781.28515625-1.29492188.42773438-2.04199219.42773438ZM53.19182783,15.78596323c-.4765625,0-.86230469.16113281-1.15820312.48388672-.29589844.32226562-.48535156.78369141-.56835938,1.38378906h3.33691406v-.19189453c-.01171875-.53369141-.15527344-.94628906-.43164062-1.23828125-.27734375-.29150391-.66992188-.4375-1.17871094-.4375Z"/>
        <path class="cls-9" d="M60.76995283,14.01789682l.07519531,1.00439453c.63574219-.78027344,1.49707031-1.17041016,2.58105469-1.17041016,1.15722656,0,1.95117188.45654297,2.3828125,1.36962891.63085938-.91308594,1.53027344-1.36962891,2.69726562-1.36962891.97460938,0,1.69921875.28369141,2.17480469.85058594.4765625.56738281.71386719,1.42089844.71386719,2.56103516v5.73583984h-2.40722656v-5.72753906c0-.50927734-.09960938-.88134766-.29882812-1.11621094-.19921875-.23535156-.55078125-.35302734-1.05371094-.35302734-.71972656,0-1.21777344.34326172-1.49414062,1.02929688l.0078125,6.16748047h-2.3984375v-5.71923828c0-.52001953-.10253906-.89648438-.30761719-1.12890625-.20410156-.23242188-.55273438-.34863281-1.04589844-.34863281-.68066406,0-1.17285156.28222656-1.47753906.84667969v6.35009766h-2.3984375v-8.98144531h2.24902344Z"/>
        <path class="cls-9" d="M73.22112471,11.69367807c0-.35986328.12109375-.65576172.36132812-.88818359.24121094-.23242188.56835938-.34863281.98339844-.34863281.41015625,0,.73632812.11621094.97949219.34863281.24414062.23242188.36523438.52832031.36523438.88818359,0,.36523438-.12304688.6640625-.36914062.89648438s-.57128906.34863281-.97558594.34863281c-.40332031,0-.72851562-.11621094-.97460938-.34863281-.24707031-.23242188-.37011719-.53125-.37011719-.89648438ZM75.76995283,22.99934213h-2.40722656v-8.98144531h2.40722656v8.98144531Z"/>
        <path class="cls-9" d="M82.60979658,20.51740854c0-.29345703-.14550781-.52441406-.43652344-.69287109-.29003906-.16894531-.75585938-.31982422-1.3984375-.45263672-2.13574219-.44824219-3.20410156-1.35595703-3.20410156-2.72265625,0-.796875.33105469-1.46240234.9921875-1.99658203.66113281-.53369141,1.52636719-.80078125,2.59375-.80078125,1.140625,0,2.05175781.26855469,2.73535156.80517578s1.02539062,1.23388672,1.02539062,2.09179688h-2.39941406c0-.34326172-.11035156-.62646484-.33203125-.85107422-.22070312-.22363281-.56738281-.3359375-1.03710938-.3359375-.40429688,0-.71679688.09130859-.93847656.27392578-.22070312.18261719-.33203125.41503906-.33203125.69726562,0,.265625.12597656.47998047.37792969.64306641.25195312.16357422.67675781.3046875,1.27441406.42382812.59765625.11865234,1.10058594.25292969,1.51074219.40234375,1.26660156.46484375,1.90039062,1.27001953,1.90039062,2.41552734,0,.81884766-.3515625,1.48193359-1.05371094,1.98779297-.703125.50683594-1.61035156.75976562-2.72265625.75976562-.75292969,0-1.42089844-.13427734-2.00488281-.40234375-.58398438-.26855469-1.04199219-.63671875-1.37402344-1.10449219-.33203125-.46728516-.49804688-.97216797-.49804688-1.51464844h2.27441406c.02246094.42626953.1796875.75244141.47363281.97949219.29296875.22705078.68554688.34033203,1.17871094.34033203.45898438,0,.80664062-.08740234,1.04101562-.26123047.23535156-.17480469.35351562-.40283203.35351562-.68505859Z"/>
        <path class="cls-9" d="M89.07561689,22.99934213h-2.3984375v-8.98144531h2.3984375v8.98144531ZM88.37053877,10.37385385h2.61425781l-2.29882812,2.57324219h-1.95117188l1.63574219-2.57324219Z"/>
        <path class="cls-9" d="M100.24065596,20.51740854c0-.29345703-.14550781-.52441406-.43652344-.69287109-.29003906-.16894531-.75585938-.31982422-1.3984375-.45263672-2.13574219-.44824219-3.20410156-1.35595703-3.20410156-2.72265625,0-.796875.33105469-1.46240234.9921875-1.99658203.66113281-.53369141,1.52636719-.80078125,2.59375-.80078125,1.140625,0,2.05175781.26855469,2.73535156.80517578s1.02539062,1.23388672,1.02539062,2.09179688h-2.39941406c0-.34326172-.11035156-.62646484-.33203125-.85107422-.22070312-.22363281-.56738281-.3359375-1.03710938-.3359375-.40429688,0-.71679688.09130859-.93847656.27392578-.22070312.18261719-.33203125.41503906-.33203125.69726562,0,.265625.12597656.47998047.37792969.64306641.25195312.16357422.67675781.3046875,1.27441406.42382812.59765625.11865234,1.10058594.25292969,1.51074219.40234375,1.26660156.46484375,1.90039062,1.27001953,1.90039062,2.41552734,0,.81884766-.3515625,1.48193359-1.05371094,1.98779297-.703125.50683594-1.61035156.75976562-2.72265625.75976562-.75292969,0-1.42089844-.13427734-2.00488281-.40234375-.58398438-.26855469-1.04199219-.63671875-1.37402344-1.10449219-.33203125-.46728516-.49804688-.97216797-.49804688-1.51464844h2.27441406c.02246094.42626953.1796875.75244141.47363281.97949219.29296875.22705078.68554688.34033203,1.17871094.34033203.45898438,0,.80664062-.08740234,1.04101562-.26123047.23535156-.17480469.35351562-.40283203.35351562-.68505859Z"/>
        <path class="cls-9" d="M107.37932783,19.39680307l-.86328125.86328125v2.73925781h-2.39941406v-12.75h2.39941406v7.06396484l.46484375-.59765625,2.29882812-2.69775391h2.88085938l-3.24609375,3.74365234,3.52832031,5.23779297h-2.75585938l-2.30761719-3.60253906Z"/>
        <path class="cls-9" d="M115.72991377,22.99934213h-2.40722656v-12.75h2.40722656v12.75Z"/>
        <path class="cls-9" d="M121.83928877,23.16535776c-1.31738281,0-2.38964844-.40380859-3.21679688-1.21191406s-1.24121094-1.88427734-1.24121094-3.22900391v-.23242188c0-.90185547.17480469-1.70849609.5234375-2.41943359.34863281-.71142578.84179688-1.25927734,1.48144531-1.64355469.63867188-.38476562,1.36816406-.57714844,2.1875-.57714844,1.22851562,0,2.1953125.38720703,2.90039062,1.16210938.70605469.77490234,1.05859375,1.87304688,1.05859375,3.29541016v.97949219h-5.71875c.07714844.58642578.31054688,1.05712891.70117188,1.41113281.38964844.35400391.88378906.53125,1.48144531.53125.92480469,0,1.64648438-.33496094,2.16699219-1.00439453l1.17871094,1.31982422c-.36035156.50927734-.84667969.90625-1.4609375,1.19091797-.61425781.28515625-1.29492188.42773438-2.04199219.42773438ZM121.56487471,15.78596323c-.47558594,0-.86132812.16113281-1.15820312.48388672-.29589844.32226562-.48535156.78369141-.56835938,1.38378906h3.33691406v-.19189453c-.01074219-.53369141-.15429688-.94628906-.43164062-1.23828125-.27636719-.29150391-.66894531-.4375-1.17871094-.4375Z"/>
        <path class="cls-9" d="M129.10198408,14.01789682l.07519531,1.03759766c.64160156-.80224609,1.50195312-1.20361328,2.58105469-1.20361328.95214844,0,1.66015625.27929688,2.125.83837891s.703125,1.39453125.71386719,2.50683594v5.80224609h-2.3984375v-5.74414062c0-.50927734-.11132812-.87841797-.33203125-1.10839844-.22167969-.22949219-.58984375-.34423828-1.10449219-.34423828-.67480469,0-1.18164062.28759766-1.51855469.86328125v6.33349609h-2.39941406v-8.98144531h2.2578125Z"/>
        <path class="cls-9" d="M139.00530439,22.99934213h-2.39941406v-8.98144531h2.39941406v8.98144531ZM138.29924971,10.37385385h2.61523438l-2.29980469,2.57324219h-1.95019531l1.63476562-2.57324219Z"/>
        <path class="cls-9" d="M144.33440596,19.39680307l-.86328125.86328125v2.73925781h-2.39941406v-12.75h2.39941406v7.06396484l.46484375-.59765625,2.29882812-2.69775391h2.88085938l-3.24609375,3.74365234,3.52832031,5.23779297h-2.75585938l-2.30761719-3.60253906Z"/>
        <path class="cls-9" d="M149.77971846,18.42561166c0-.89111328.17089844-1.68505859.51464844-2.38232422.34277344-.69726562.83691406-1.23681641,1.48144531-1.61865234s1.39355469-.57275391,2.24511719-.57275391c1.21191406,0,2.20117188.37060547,2.96777344,1.11230469s1.19433594,1.74853516,1.28222656,3.02148438l.01660156.61425781c0,1.37792969-.38476562,2.48339844-1.15332031,3.31640625-.76953125.83251953-1.80175781,1.24902344-3.09667969,1.24902344s-2.328125-.41503906-3.09960938-1.24511719c-.77246094-.83007812-1.15820312-1.95898438-1.15820312-3.38671875v-.10791016ZM152.17815596,18.59602182c0,.85351562.16113281,1.50585938.48144531,1.95751953.32128906.45214844.78027344.67773438,1.37792969.67773438.58105469,0,1.03515625-.22314453,1.36132812-.66943359.32714844-.44580078.49023438-1.15966797.49023438-2.140625,0-.83691406-.16308594-1.48535156-.49023438-1.9453125-.32617188-.45996094-.78515625-.68994141-1.37792969-.68994141-.5859375,0-1.04003906.22851562-1.36132812.68603516-.3203125.45703125-.48144531,1.16503906-.48144531,2.12402344Z"/>
        <path class="cls-9" d="M163.00237471,20.06916635l1.66894531-6.05126953h2.50683594l-3.03027344,8.98144531h-2.29101562l-3.02929688-8.98144531h2.50683594l1.66796875,6.05126953Z"/>
        <path class="cls-9" d="M171.58538252,19.6043226l1.66015625-5.58642578h2.57324219l-3.61035156,10.37597656-.19921875.47314453c-.53710938,1.17333984-1.42285156,1.75976562-2.65625,1.75976562-.34863281,0-.703125-.05273438-1.0625-.15771484v-1.81787109l.36523438.00830078c.453125,0,.79296875-.06933594,1.01660156-.20751953.22460938-.13818359.39941406-.36816406.52734375-.68896484l.28222656-.73876953-3.14648438-9.00634766h2.58203125l1.66796875,5.58642578ZM172.10882002,10.24934213h2.61425781l-2.29882812,2.57324219h-1.95117188l1.63574219-2.57324219Z"/>
        <path class="cls-9" d="M180.50042158,21.23127573c.44335938,0,.80273438-.12158203,1.07910156-.36523438.27734375-.24365234.42089844-.56738281.43164062-.97119141h2.25c-.00585938.60888672-.171875,1.16601562-.49804688,1.67285156-.32714844.50585938-.7734375.89892578-1.34082031,1.17871094-.56738281.27929688-1.19433594.41894531-1.87988281.41894531-1.28417969,0-2.296875-.40820312-3.03808594-1.22460938-.7421875-.81591797-1.11230469-1.94335938-1.11230469-3.38232422v-.15771484c0-1.38330078.36816406-2.48730469,1.10351562-3.31201172.73632812-.82470703,1.74609375-1.23681641,3.03027344-1.23681641,1.12304688,0,2.0234375.31933594,2.70214844.95898438.67773438.63867188,1.02148438,1.48974609,1.03320312,2.55224609h-2.25c-.01074219-.46728516-.15429688-.84716797-.43164062-1.13916016-.27636719-.29199219-.64160156-.43798828-1.09570312-.43798828-.55859375,0-.98046875.20361328-1.265625.61083984-.28515625.40771484-.42773438,1.06835938-.42773438,1.98291016v.24951172c0,.92578125.14160156,1.59082031.42382812,1.99511719.28222656.40478516.7109375.60693359,1.28613281.60693359Z"/>
        <path class="cls-9" d="M187.97112471,14.99738901c.63671875-.76367188,1.43652344-1.14550781,2.39941406-1.14550781,1.94726562,0,2.93554688,1.13183594,2.96289062,3.39501953v5.75244141h-2.3984375v-5.68603516c0-.51464844-.11132812-.89501953-.33203125-1.14111328-.22167969-.24658203-.58984375-.36962891-1.10449219-.36962891-.70214844,0-1.21191406.27099609-1.52734375.81347656v6.38330078h-2.3984375v-12.75h2.3984375v4.74804688Z"/>
        <path class="cls-9" d="M207.46135908,18.59162729c0,1.38330078-.31347656,2.49169922-.94140625,3.32470703-.62890625.83251953-1.4765625,1.24902344-2.54492188,1.24902344-.90722656,0-1.640625-.31542969-2.19921875-.94628906v4.23339844h-2.39941406v-12.43457031h2.22460938l.08300781.87988281c.58105469-.69726562,1.33984375-1.04589844,2.27441406-1.04589844,1.10742188,0,1.96777344.40966797,2.58203125,1.22851562s.92089844,1.94775391.92089844,3.38671875v.12451172ZM205.06292158,18.41731088c0-.83544922-.1484375-1.48046875-.44433594-1.93408203s-.7265625-.68066406-1.29101562-.68066406c-.75195312,0-1.26953125.28759766-1.55175781.86328125v3.67724609c.29296875.59228516.81640625.88818359,1.56835938.88818359,1.14550781,0,1.71875-.93798828,1.71875-2.81396484Z"/>
        <path class="cls-9" d="M211.47893721,22.99934213h-2.40722656v-12.75h2.40722656v12.75Z"/>
        <path class="cls-9" d="M216.80803877,19.6043226l1.66015625-5.58642578h2.57324219l-3.61035156,10.37597656-.19921875.47314453c-.53710938,1.17333984-1.42285156,1.75976562-2.65625,1.75976562-.34863281,0-.703125-.05273438-1.0625-.15771484v-1.81787109l.36523438.00830078c.453125,0,.79296875-.06933594,1.01660156-.20751953.22460938-.13818359.39941406-.36816406.52734375-.68896484l.28222656-.73876953-3.14648438-9.00634766h2.58203125l1.66796875,5.58642578Z"/>
        <path class="cls-9" d="M224.19573408,14.01789682l.07519531,1.03759766c.64160156-.80224609,1.50195312-1.20361328,2.58105469-1.20361328.95214844,0,1.66015625.27929688,2.125.83837891s.703125,1.39453125.71386719,2.50683594v5.80224609h-2.3984375v-5.74414062c0-.50927734-.11132812-.87841797-.33203125-1.10839844-.22167969-.22949219-.58984375-.34423828-1.10449219-.34423828-.67480469,0-1.18164062.28759766-1.51855469.86328125v6.33349609h-2.39941406v-8.98144531h2.2578125Z"/>
        <path class="cls-9" d="M236.88811689,22.0862562c-.59277344.71923828-1.41113281,1.07910156-2.45703125,1.07910156-.96289062,0-1.69824219-.27685547-2.20410156-.83007812-.50683594-.55322266-.76464844-1.36425781-.77636719-2.43212891v-5.88525391h2.39941406v5.80908203c0,.93603516.42578125,1.40429688,1.27832031,1.40429688.81347656,0,1.37207031-.28271484,1.67675781-.84765625v-6.36572266h2.40722656v8.98144531h-2.2578125l-.06640625-.91308594ZM233.49260908,11.21223276c0-.47607422.1796875-.87841797.54003906-1.20800781.359375-.32910156.796875-.49365234,1.31152344-.49365234.50878906,0,.94433594.16162109,1.30664062.48583984.36328125.32324219.54394531.72900391.54394531,1.21582031,0,.47021484-.17675781.86621094-.53125,1.18701172-.35351562.32080078-.79394531.48144531-1.31933594.48144531-.53710938,0-.97949219-.16308594-1.328125-.48974609s-.5234375-.71923828-.5234375-1.17871094ZM234.44768721,11.21223276c0,.24365234.08007812.45214844.24023438.62695312.16113281.17382812.37890625.26123047.65625.26123047.27636719,0,.49511719-.08740234.65527344-.26123047.16113281-.17480469.24121094-.38330078.24121094-.62695312,0-.25439453-.08203125-.46875-.24511719-.64355469-.16308594-.17382812-.38085938-.26123047-.65136719-.26123047-.27148438,0-.48828125.08740234-.65234375.26123047-.16308594.17480469-.24414062.38916016-.24414062.64355469Z"/>
        <path class="cls-9" d="M248.61663252,20.06916635l1.66894531-6.05126953h2.50683594l-3.03027344,8.98144531h-2.29101562l-3.02929688-8.98144531h2.50683594l1.66796875,6.05126953Z"/>
        <path class="cls-9" d="M265.50921064,17.76154916h-4.78125v3.23730469h5.61132812v2.00048828h-8.1015625v-12.0859375h8.08496094v2.01708984h-5.59472656v2.88037109h4.78125v1.95068359Z"/>
        <path class="cls-9" d="M276.94768721,10.91340463v7.96044922c0,1.32275391-.4140625,2.36865234-1.24121094,3.13769531s-1.95800781,1.15380859-3.390625,1.15380859c-1.41113281,0-2.53222656-.37353516-3.36230469-1.12060547s-1.25292969-1.7734375-1.26953125-3.07958984v-8.05175781h2.49023438v7.97705078c0,.79150391.18945312,1.36816406.56835938,1.73095703.37890625.36230469.90332031.54345703,1.57324219.54345703,1.39941406,0,2.11132812-.73583984,2.1328125-2.20800781v-8.04345703h2.49902344Z"/>
        <path class="cls-9" d="M290.49456221,17.76154916h-4.78125v3.23730469h5.61132812v2.00048828h-8.1015625v-12.0859375h8.08496094v2.01708984h-5.59472656v2.88037109h4.78125v1.95068359Z"/>
        <path class="cls-9" d="M302.04924971,12.93049448h-3.70214844v10.06884766h-2.49023438v-10.06884766h-3.65234375v-2.01708984h9.84472656v2.01708984Z"/>
        <path class="cls-9" d="M309.60296064,19.8284437c0-.47021484-.16601562-.83154297-.49804688-1.08300781-.33203125-.25195312-.9296875-.51757812-1.79296875-.796875-.86328125-.27978516-1.546875-.55517578-2.05078125-.82617188-1.37207031-.74169922-2.05859375-1.74023438-2.05859375-2.99658203,0-.65283203.18457031-1.23535156.55175781-1.74755859.36816406-.51171875.89648438-.91162109,1.5859375-1.19921875.68847656-.28759766,1.46191406-.43164062,2.3203125-.43164062.86328125,0,1.63183594.15625,2.30761719.46875.67480469.31298828,1.19921875.75439453,1.57226562,1.32421875.37402344.56982422.56054688,1.21728516.56054688,1.94238281h-2.49023438c0-.55322266-.17382812-.98339844-.52246094-1.29101562-.34863281-.30664062-.83886719-.46044922-1.46972656-.46044922-.60839844,0-1.08203125.12841797-1.41894531.38623047-.33789062.25683594-.50683594.59619141-.50683594,1.01660156,0,.39306641.19824219.72216797.59375.98779297s.97851562.51464844,1.74707031.74707031c1.41699219.42626953,2.44921875.95458984,3.09667969,1.58544922s.97070312,1.41650391.97070312,2.35742188c0,1.04589844-.39550781,1.86621094-1.18652344,2.4609375-.79199219.59521484-1.85644531.89257812-3.19628906.89257812-.9296875,0-1.77636719-.16992188-2.54003906-.51074219-.76367188-.33984375-1.34570312-.80615234-1.74707031-1.3984375s-.6015625-1.27832031-.6015625-2.05859375h2.49804688c0,1.33349609.796875,2.00048828,2.390625,2.00048828.59277344,0,1.0546875-.12060547,1.38671875-.36083984.33203125-.24121094.49804688-.57714844.49804688-1.00878906Z"/>
        <path class="cls-9" d="M326.04632002,22.99934213h-8.28417969v-1.64355469l3.91015625-4.16699219c.53613281-.58642578.93359375-1.09863281,1.19140625-1.53564453.25683594-.43701172.38574219-.85205078.38574219-1.24511719,0-.53662109-.13574219-.95849609-.40722656-1.26611328-.27050781-.30664062-.65820312-.46044922-1.16210938-.46044922-.54199219,0-.96972656.18701172-1.28222656.56005859-.3125.37402344-.46875.86474609-.46875,1.47363281h-2.40722656c0-.73583984.17578125-1.40820312.52734375-2.01708984.35058594-.60888672.84765625-1.0859375,1.48925781-1.43212891.64257812-.34570312,1.37011719-.51855469,2.18359375-.51855469,1.24511719,0,2.21191406.29882812,2.90136719.89648438.68847656.59765625,1.03320312,1.44140625,1.03320312,2.53173828,0,.59765625-.15527344,1.20654297-.46484375,1.82617188-.31054688.61962891-.84179688,1.34179688-1.59375,2.16650391l-2.74804688,2.89697266h5.19628906v1.93408203Z"/>
      </g>
      <g>
        <path class="cls-10" d="M24.77874189,72.04548471c0,1.05786133-.18066406,1.84399414-.54199219,2.35839844s-.92626953.77148438-1.69433594.77148438c-.75830078,0-1.31982422-.25146484-1.68457031-.75439453s-.55322266-1.25415039-.56640625-2.25341797v-1.20605469c0-1.04492188.18066406-1.82128906.54199219-2.32910156s.92773438-.76171875,1.69921875-.76171875c.76513672,0,1.328125.24487305,1.68945312.73486328s.546875,1.24584961.55664062,2.26806641v1.171875ZM23.87542158,70.81013315c0-.76489258-.10742188-1.32250977-.32226562-1.67236328s-.55517578-.52490234-1.02050781-.52490234c-.46240234,0-.79931641.17407227-1.01074219.52246094s-.32080078.88378906-.32714844,1.60644531v1.4453125c0,.76831055.11132812,1.33544922.33447266,1.70166016s.56054688.54931641,1.01318359.54931641c.44580078,0,.77734375-.17260742.99365234-.51757812s.32958984-.88867188.33935547-1.63085938v-1.47949219Z"/>
        <path class="cls-10" d="M28.33342939,69.33552377c0-.42651367.13574219-.77807617.40771484-1.0546875s.62109375-.41503906,1.04736328-.41503906c.43310547,0,.78369141.13916016,1.05224609.41748047s.40283203.63891602.40283203,1.08154297v.34667969c0,.4296875-.13574219.78051758-.40771484,1.05224609s-.61767578.40771484-1.03759766.40771484c-.42333984,0-.77294922-.13598633-1.04980469-.40771484s-.41503906-.6340332-.41503906-1.08642578v-.34179688ZM29.00725752,69.70954721c0,.25439453.07177734.46411133.21484375.62890625s.33544922.24707031.57617188.24707031c.23095703,0,.41748047-.07983398.55908203-.23974609s.21240234-.37841797.21240234-.65576172v-.35742188c0-.25439453-.06982422-.46484375-.20996094-.63134766-.14013672-.16625977-.33056641-.24951172-.57128906-.24951172s-.43115234.08325195-.57128906.24951172c-.14013672.16650391-.20996094.38354492-.20996094.65087891v.35742188ZM30.00335127,74.5406019l-.51269531-.32226562,3.47167969-5.55664062.51269531.32226562-3.47167969,5.55664062ZM31.79534346,73.33454721c0-.42651367.13574219-.77709961.40771484-1.05224609s.62109375-.41259766,1.04736328-.41259766.77636719.13671875,1.04980469.41015625.41015625.63647461.41015625,1.08886719v.34667969c0,.42651367-.13574219.77709961-.40771484,1.05224609s-.61914062.41259766-1.04248047.41259766-.77294922-.13598633-1.04980469-.40771484-.41503906-.6340332-.41503906-1.08642578v-.3515625ZM32.46917158,73.71345346c0,.2578125.07177734.46899414.21484375.63378906s.33544922.24707031.57617188.24707031c.234375,0,.42138672-.08081055.56152344-.2421875s.20996094-.38085938.20996094-.65820312v-.36230469c0-.2578125-.07080078-.46801758-.21240234-.63134766-.14160156-.16308594-.33105469-.24462891-.56884766-.24462891-.23095703,0-.41894531.08081055-.56396484.2421875-.14501953.16162109-.21728516.37939453-.21728516.65332031v.36230469Z"/>
      </g>
      <g>
        <path class="cls-11" d="M361.72210127,147.54939096h-4.63525391v-1.26757812h4.63525391v1.26757812Z"/>
        <path class="cls-11" d="M366.71184736,150.75056284h-1.55224609v-5.98339844l-1.85302734.57470703v-1.26220703l3.23876953-1.16015625h.16650391v7.83105469Z"/>
        <path class="cls-11" d="M372.88323408,147.62458627c-.40478516.39746094-.87744141.59619141-1.41796875.59619141-.69091797,0-1.24414062-.23706055-1.65966797-.71166992-.41552734-.47436523-.62304688-1.11450195-.62304688-1.92016602,0-.51196289.11181641-.98193359.3359375-1.40991211.22363281-.42773438.53613281-.76074219.93701172-.99902344.40087891-.23803711.85205078-.35717773,1.35351562-.35717773.515625,0,.97412109.12890625,1.375.38671875s.71240234.62841797.93457031,1.11181641.33496094,1.03662109.33837891,1.65966797v.57470703c0,1.3034668-.32421875,2.32763672-.97216797,3.07226562-.64794922.74487305-1.56640625,1.14208984-2.75537109,1.19238281l-.38134766.00537109v-1.29443359l.34375-.00537109c1.35009766-.06079102,2.08056641-.69458008,2.19140625-1.90136719ZM371.84661299,147.03376596c.25048828,0,.46630859-.06445312.64746094-.19335938.18066406-.12890625.31738281-.28466797.41064453-.46728516v-.63916016c0-.52636719-.10009766-.93457031-.30078125-1.22460938s-.46923828-.43505859-.80566406-.43505859c-.31152344,0-.56738281.14233398-.76806641.42700195s-.30078125.6418457-.30078125,1.0715332c0,.42626953.09765625.77612305.29296875,1.05004883.19482422.27392578.46972656.41088867.82421875.41088867Z"/>
        <path class="cls-11" d="M378.2811833,144.43415659c0-.47973633.15576172-.86914062.46728516-1.16821289.31152344-.29882812.71972656-.44848633,1.22460938-.44848633.51220703,0,.92382812.14770508,1.23535156.44311523s.46728516.69555664.46728516,1.20043945v.38671875c0,.48339844-.15576172.87207031-.46728516,1.16552734-.31152344.29370117-.71972656.44042969-1.22460938.44042969-.50830078,0-.91943359-.14770508-1.23242188-.44311523-.31347656-.29541016-.47021484-.69360352-.47021484-1.19506836v-.38134766ZM379.3124333,144.84773081c0,.21484375.06201172.38769531.18505859.51831055.12402344.13085938.28564453.19604492.48632812.19604492s.35986328-.06616211.47802734-.19873047c.11816406-.13232422.17724609-.30957031.17724609-.53173828v-.39746094c0-.21484375-.05908203-.38842773-.17724609-.52099609-.11816406-.13232422-.28125-.19873047-.48876953-.19873047-.19677734,0-.35644531.06542969-.47802734.19604492-.12158203.13085938-.18261719.3125-.18261719.54516602v.39208984ZM380.28997236,150.16511362l-.75732422-.40820312,3.81884766-6.11230469.75732422.40820312-3.81884766,6.11230469ZM382.01946455,148.83308237c0-.48339844.15771484-.87280273.47265625-1.16821289s.72314453-.44311523,1.22460938-.44311523c.50830078,0,.91943359.14599609,1.23291016.43774414.31298828.29199219.46972656.69384766.46972656,1.20581055v.38671875c0,.47998047-.15380859.86743164-.46191406,1.1628418s-.71777344.44311523-1.22998047.44311523c-.515625,0-.92919922-.1484375-1.24072266-.44580078-.31152344-.29711914-.46728516-.69091797-.46728516-1.18164062v-.39746094ZM383.05071455,149.25202768c0,.19702148.06445312.36523438.19335938.50488281s.29003906.20947266.48339844.20947266c.43701172,0,.65527344-.24169922.65527344-.72509766v-.40820312c0-.21484375-.06103516-.38745117-.18261719-.51831055-.12158203-.13061523-.28271484-.19604492-.48339844-.19604492s-.36181641.06542969-.48339844.19604492c-.12158203.13085938-.18261719.30883789-.18261719.53442383v.40283203Z"/>
        <path class="cls-11" d="M391.28460127,149.40241831l1.43945312-4.46337891h1.01513672l-2.08398438,5.81152344h-.75732422l-2.10546875-5.81152344h1.01513672l1.47705078,4.46337891Z"/>
        <path class="cls-11" d="M400.22747236,145.83064096c-.15039062-.02490234-.31347656-.03759766-.48876953-.03759766-.65185547,0-1.09375.27758789-1.32666016.83251953v4.125h-.99365234v-5.81152344h.96679688l.01611328.67138672c.32568359-.51904297.78759766-.77880859,1.38574219-.77880859.19335938,0,.34033203.02514648.44042969.07519531v.92382812Z"/>
        <path class="cls-11" d="M400.76995283,147.79109018c0-.56933594.11181641-1.08129883.33544922-1.53613281.22412109-.45458984.53564453-.80566406.93457031-1.05273438.39941406-.24707031.85498047-.37060547,1.3671875-.37060547.79150391,0,1.43164062.27392578,1.91992188.82177734.48925781.54785156.73339844,1.27661133.73339844,2.18603516v.06982422c0,.56591797-.10839844,1.07348633-.32519531,1.52270508-.21630859.44946289-.52636719.79956055-.92871094,1.05004883-.40332031.25073242-.86572266.37597656-1.38867188.37597656-.78759766,0-1.42578125-.27392578-1.91503906-.82177734-.48828125-.54785156-.73291016-1.27294922-.73291016-2.17529297v-.06982422ZM401.76897627,147.90925424c0,.64453125.14941406,1.16210938.44873047,1.55224609.29882812.39038086.69873047.58544922,1.20019531.58544922.50488281,0,.90576172-.19775391,1.203125-.59350586.29736328-.39550781.44580078-.94970703.44580078-1.66235352,0-.63720703-.15136719-1.15380859-.45361328-1.54956055-.30273438-.39550781-.70458984-.59350586-1.20605469-.59350586-.49072266,0-.88623047.1953125-1.18701172.58544922-.30078125.39038086-.45117188.94897461-.45117188,1.67578125Z"/>
        <path class="cls-11" d="M409.63762861,150.04694956c.35449219,0,.6640625-.10742188.92919922-.32226562s.41162109-.48339844.44042969-.80566406h.93994141c-.01806641.33300781-.13232422.64990234-.34375.95068359s-.49316406.54077148-.84570312.71972656c-.35302734.17895508-.72607422.26855469-1.12011719.26855469-.79150391,0-1.42089844-.26391602-1.88769531-.79223633-.46777344-.52807617-.70117188-1.25048828-.70117188-2.16723633v-.16650391c0-.56567383.10400391-1.06884766.31152344-1.50927734s.50585938-.78222656.89453125-1.02587891c.38818359-.2434082.84765625-.36523438,1.37744141-.36523438.65185547,0,1.19335938.1953125,1.62451172.58544922.43164062.39038086.66162109.89697266.69042969,1.52001953h-.93994141c-.02880859-.37597656-.17089844-.68481445-.42724609-.92651367-.25585938-.24169922-.57177734-.36254883-.94775391-.36254883-.50488281,0-.89599609.18188477-1.17333984.54516602-.27783203.36352539-.41650391.88891602-.41650391,1.57641602v.18798828c0,.66967773.13769531,1.18530273.41357422,1.546875.27587891.36181641.66943359.54248047,1.18164062.54248047Z"/>
        <path class="cls-11" d="M415.47600752,150.85798471c-.78759766,0-1.42871094-.25854492-1.92285156-.77612305-.49414062-.51733398-.74121094-1.20922852-.74121094-2.07592773v-.18261719c0-.57641602.10986328-1.09106445.33056641-1.54418945.21972656-.45288086.52783203-.80737305.92382812-1.06347656.39550781-.25585938.82421875-.3840332,1.28613281-.3840332.75537109,0,1.34277344.24902344,1.76171875.74658203.41894531.49780273.62841797,1.21044922.62841797,2.13769531v.41357422h-3.93701172c.01416016.57299805.18164062,1.03588867.50195312,1.38842773.32080078.3527832.72802734.52905273,1.22216797.52905273.35107422,0,.64794922-.0715332.89160156-.21484375.24365234-.14306641.45654297-.33300781.63916016-.56933594l.60693359.47265625c-.48681641.74853516-1.21728516,1.12255859-2.19140625,1.12255859ZM415.35247236,145.64802377c-.40087891,0-.73779297.14599609-1.00976562.43774414-.27197266.29199219-.44042969.70092773-.50488281,1.22729492h2.91113281v-.07519531c-.02880859-.50488281-.16455078-.89599609-.40820312-1.17358398-.24365234-.27734375-.57275391-.41625977-.98828125-.41625977Z"/>
        <path class="cls-11" d="M426.63714033,150.75056284h-5.12402344v-.71435547l2.70703125-3.0078125c.40087891-.45458984.67773438-.82446289.82958984-1.10913086.15234375-.28466797.22851562-.57910156.22851562-.88354492,0-.40820312-.12353516-.74291992-.37060547-1.00439453-.24707031-.26123047-.57666016-.39208984-.98828125-.39208984-.49414062,0-.87841797.140625-1.15185547.42163086-.27441406.28125-.41113281.67236328-.41113281,1.17358398h-.99365234c0-.71972656.23193359-1.30151367.69580078-1.74560547.46337891-.44384766,1.08398438-.66601562,1.86083984-.66601562.72705078,0,1.30175781.19067383,1.72412109.57202148s.63378906.88891602.63378906,1.52270508c0,.77001953-.49072266,1.68652344-1.47167969,2.75l-2.09472656,2.27197266h3.92626953v.81103516Z"/>
        <path class="cls-11" d="M432.5936833,147.41511362c0,1.16381836-.19873047,2.02856445-.59619141,2.59423828-.39746094.56591797-1.01855469.84863281-1.86376953.84863281-.83447266,0-1.45214844-.27661133-1.85302734-.82983398s-.60888672-1.37939453-.62304688-2.47875977v-1.32666016c0-1.14941406.19873047-2.00341797.59619141-2.56201172s1.02050781-.83789062,1.86914062-.83789062c.84130859,0,1.4609375.26953125,1.85839844.80834961.39746094.5390625.6015625,1.37060547.61230469,2.49487305v1.2890625ZM431.60003096,146.0562269c0-.84130859-.11816406-1.45458984-.35449219-1.83959961-.23632812-.38476562-.61035156-.57739258-1.12255859-.57739258-.50830078,0-.87890625.19165039-1.11181641.57470703-.23291016.38330078-.35253906.97216797-.35986328,1.76708984v1.58984375c0,.84521484.12255859,1.46899414.36816406,1.87182617.24511719.40283203.61669922.60424805,1.11425781.60424805.49072266,0,.85498047-.18969727,1.09277344-.56933594.23828125-.37939453.36279297-.97753906.37353516-1.79394531v-1.62744141Z"/>
        <path class="cls-11" d="M438.99065596,150.75056284h-5.12402344v-.71435547l2.70703125-3.0078125c.40087891-.45458984.67773438-.82446289.82958984-1.10913086.15234375-.28466797.22851562-.57910156.22851562-.88354492,0-.40820312-.12353516-.74291992-.37060547-1.00439453-.24707031-.26123047-.57666016-.39208984-.98828125-.39208984-.49414062,0-.87841797.140625-1.15185547.42163086-.27441406.28125-.41113281.67236328-.41113281,1.17358398h-.99365234c0-.71972656.23193359-1.30151367.69580078-1.74560547.46337891-.44384766,1.08398438-.66601562,1.86083984-.66601562.72705078,0,1.30175781.19067383,1.72412109.57202148s.63378906.88891602.63378906,1.52270508c0,.77001953-.49072266,1.68652344-1.47167969,2.75l-2.09472656,2.27197266h3.92626953v.81103516Z"/>
        <path class="cls-11" d="M443.30901533,150.75056284h-.99902344v-6.62255859l-2.00341797.73583984v-.90234375l2.84667969-1.06884766h.15576172v7.85791016Z"/>
      </g>
      <g>
        <path class="cls-11" d="M549.18596846,255.04548471c-.09667969.82714844-.40185547,1.46557617-.91601562,1.91479492-.51367188.44946289-1.19677734.67407227-2.04882812.67407227-.92382812,0-1.6640625-.33105469-2.22070312-.99365234-.55712891-.66235352-.83544922-1.54858398-.83544922-2.65869141v-.75195312c0-.72680664.12988281-1.3659668.38916016-1.91748047.25976562-.55126953.62792969-.97485352,1.10400391-1.27026367s1.02783203-.44311523,1.65429688-.44311523c.83056641,0,1.49658203.23193359,1.99804688.69555664.50146484.46386719.79296875,1.10571289.87548828,1.92553711h-1.03662109c-.08935547-.625-.28369141-1.07739258-.58251953-1.35766602-.29931641-.2800293-.71728516-.42016602-1.25439453-.42016602-.65869141,0-1.17529297.24365234-1.54931641.73120117-.37451172.48730469-.56152344,1.18066406-.56152344,2.08032227v.7578125c0,.84936523.17724609,1.52514648.53173828,2.02685547s.85058594.75244141,1.48779297.75244141c.57275391,0,1.01269531-.12963867,1.31835938-.3894043.30664062-.25952148.50976562-.71166992.60986328-1.35620117h1.03662109Z"/>
        <path class="cls-11" d="M551.52776533,249.28230112h1.203125l-1.43945312,1.57910156-.80029297-.00268555,1.03662109-1.57641602ZM551.51702314,257.52693002h-.99902344v-5.81152344h.99902344v5.81152344Z"/>
        <path class="cls-11" d="M554.23479658,257.52693002h-.99365234v-8.25h.99365234v8.25Z"/>
        <path class="cls-11" d="M563.12395674,253.91218393h-3.38916016v2.77148438h3.93701172v.84326172h-4.96826172v-7.8203125h4.91455078v.84326172h-3.88330078v2.51904297h3.38916016v.84326172Z"/>
        <path class="cls-11" d="M570.4608708,249.70661752v5.31738281c-.00341797.73779297-.23535156,1.34106445-.6953125,1.81005859-.46044922.46923828-1.08447266.73217773-1.87207031.78955078l-.27392578.01074219c-.85595703,0-1.53808594-.23095703-2.04638672-.69287109s-.76611328-1.09741211-.7734375-1.90673828v-5.328125h1.02050781v5.29589844c0,.56591797.15576172,1.00537109.46728516,1.31860352.31152344.31347656.75537109.4699707,1.33203125.4699707.58349609,0,1.03027344-.15576172,1.34033203-.46728516.30957031-.31152344.46435547-.75.46435547-1.31591797v-5.30126953h1.03662109Z"/>
        <path class="cls-11" d="M571.90032392,257.00593393c0-.171875.05078125-.31494141.15332031-.4296875.1015625-.11450195.25488281-.171875.45898438-.171875s.35888672.05737305.46484375.171875c.10546875.11474609.15820312.2578125.15820312.4296875,0,.16479492-.05273438.30273438-.15820312.41357422-.10595703.11083984-.26074219.16650391-.46484375.16650391s-.35742188-.05566406-.45898438-.16650391c-.10253906-.11083984-.15332031-.2487793-.15332031-.41357422ZM571.90569502,252.26325815c0-.171875.05126953-.31494141.15283203-.4296875.10253906-.11450195.25537109-.171875.45947266-.171875s.35888672.05737305.46435547.171875c.10595703.11474609.15869141.2578125.15869141.4296875,0,.16479492-.05273438.30273438-.15869141.41357422-.10546875.11108398-.26025391.16650391-.46435547.16650391s-.35693359-.05541992-.45947266-.16650391c-.1015625-.11083984-.15283203-.2487793-.15283203-.41357422Z"/>
        <path class="cls-11" d="M581.99260908,254.32575815h-4.63525391v-1.26757812h4.63525391v1.26757812Z"/>
        <path class="cls-11" d="M587.80413252,254.58357065h.88623047v1.25146484h-.88623047v1.69189453h-1.55224609v-1.69189453h-3.20654297l-.06982422-.97753906,3.26025391-5.15087891h1.56835938v4.87695312ZM584.52239424,254.58357065h1.72949219v-2.76074219l-.10205078.17724609-1.62744141,2.58349609Z"/>
        <path class="cls-11" d="M594.88323408,257.52693002h-5.36035156v-1.06347656l2.52978516-2.69628906c.34716797-.37939453.60449219-.71069336.77050781-.99365234.16699219-.28271484.25-.55126953.25-.80566406,0-.34716797-.08789062-.62036133-.26318359-.8190918s-.42626953-.2980957-.75195312-.2980957c-.35107422,0-.62744141.12084961-.82958984.36254883-.20263672.24169922-.30371094.55957031-.30371094.95336914h-1.55761719c0-.47607422.11376953-.91113281.34082031-1.30517578.22753906-.39379883.54882812-.70263672.96435547-.92651367.41552734-.22363281.88623047-.33569336,1.41259766-.33569336.80566406,0,1.43164062.19335938,1.87695312.58007812.44628906.38671875.66894531.93286133.66894531,1.63818359,0,.38671875-.10009766.78076172-.30078125,1.18164062-.20068359.40112305-.54443359.8684082-1.03125,1.40185547l-1.77783203,1.87451172h3.36230469v1.25146484Z"/>
        <path class="cls-11" d="M598.55169111,251.21052377c0-.47973633.15576172-.86914062.46728516-1.16821289.31152344-.29882812.71972656-.44848633,1.22460938-.44848633.51220703,0,.92382812.14770508,1.23535156.44311523s.46728516.69555664.46728516,1.20043945v.38671875c0,.48339844-.15576172.87207031-.46728516,1.16552734-.31152344.29370117-.71972656.44042969-1.22460938.44042969-.50830078,0-.91943359-.14770508-1.23242188-.44311523-.31347656-.29541016-.47021484-.69360352-.47021484-1.19506836v-.38134766ZM599.58294111,251.62409799c0,.21484375.06201172.38769531.18505859.51831055.12402344.13085938.28564453.19604492.48632812.19604492s.35986328-.06616211.47802734-.19873047c.11816406-.13232422.17724609-.30957031.17724609-.53173828v-.39746094c0-.21484375-.05908203-.38842773-.17724609-.52099609-.11816406-.13232422-.28125-.19873047-.48876953-.19873047-.19677734,0-.35644531.06542969-.47802734.19604492-.12158203.13085938-.18261719.3125-.18261719.54516602v.39208984ZM600.56048017,256.94148081l-.75732422-.40820312,3.81884766-6.11230469.75732422.40820312-3.81884766,6.11230469ZM602.28997236,255.60944956c0-.48339844.15771484-.87280273.47265625-1.16821289s.72314453-.44311523,1.22460938-.44311523c.50830078,0,.91943359.14599609,1.23291016.43774414.31298828.29199219.46972656.69384766.46972656,1.20581055v.38671875c0,.47998047-.15380859.86743164-.46191406,1.1628418s-.71777344.44311523-1.22998047.44311523c-.515625,0-.92919922-.1484375-1.24072266-.44580078-.31152344-.29711914-.46728516-.69091797-.46728516-1.18164062v-.39746094ZM603.32122236,256.02839487c0,.19702148.06445312.36523438.19335938.50488281s.29003906.20947266.48339844.20947266c.43701172,0,.65527344-.24169922.65527344-.72509766v-.40820312c0-.21484375-.06103516-.38745117-.18261719-.51831055-.12158203-.13061523-.28271484-.19604492-.48339844-.19604492s-.36181641.06542969-.48339844.19604492c-.12158203.13085938-.18261719.30883789-.18261719.53442383v.40283203Z"/>
        <path class="cls-11" d="M611.57122236,256.17878549l1.43945312-4.46337891h1.01513672l-2.08398438,5.81152344h-.75732422l-2.10546875-5.81152344h1.01513672l1.47705078,4.46337891Z"/>
        <path class="cls-11" d="M620.51409346,252.60700815c-.15039062-.02490234-.31347656-.03759766-.48876953-.03759766-.65185547,0-1.09375.27758789-1.32666016.83251953v4.125h-.99365234v-5.81152344h.96679688l.01611328.67138672c.32568359-.51904297.78759766-.77880859,1.38574219-.77880859.19335938,0,.34033203.02514648.44042969.07519531v.92382812Z"/>
        <path class="cls-11" d="M620.78801924,257.00593393c0-.171875.05078125-.31494141.15332031-.4296875.1015625-.11450195.25488281-.171875.45898438-.171875s.35888672.05737305.46484375.171875c.10546875.11474609.15820312.2578125.15820312.4296875,0,.16479492-.05273438.30273438-.15820312.41357422-.10595703.11083984-.26074219.16650391-.46484375.16650391s-.35742188-.05566406-.45898438-.16650391c-.10253906-.11083984-.15332031-.2487793-.15332031-.41357422Z"/>
        <path class="cls-11" d="M631.40667158,257.52693002h-5.12402344v-.71435547l2.70703125-3.0078125c.40087891-.45458984.67773438-.82446289.82958984-1.10913086.15234375-.28466797.22851562-.57910156.22851562-.88354492,0-.40820312-.12353516-.74291992-.37060547-1.00439453-.24707031-.26123047-.57666016-.39208984-.98828125-.39208984-.49414062,0-.87841797.140625-1.15185547.42163086-.27441406.28125-.41113281.67236328-.41113281,1.17358398h-.99365234c0-.71972656.23193359-1.30151367.69580078-1.74560547.46337891-.44384766,1.08398438-.66601562,1.86083984-.66601562.72705078,0,1.30175781.19067383,1.72412109.57202148s.63378906.88891602.63378906,1.52270508c0,.77001953-.49072266,1.68652344-1.47167969,2.75l-2.09472656,2.27197266h3.92626953v.81103516Z"/>
        <path class="cls-11" d="M637.36321455,254.19148081c0,1.16381836-.19873047,2.02856445-.59619141,2.59423828-.39746094.56591797-1.01855469.84863281-1.86376953.84863281-.83447266,0-1.45214844-.27661133-1.85302734-.82983398s-.60888672-1.37939453-.62304688-2.47875977v-1.32666016c0-1.14941406.19873047-2.00341797.59619141-2.56201172s1.02050781-.83789062,1.86914062-.83789062c.84130859,0,1.4609375.26953125,1.85839844.80834961.39746094.5390625.6015625,1.37060547.61230469,2.49487305v1.2890625ZM636.36956221,252.83259409c0-.84130859-.11816406-1.45458984-.35449219-1.83959961-.23632812-.38476562-.61035156-.57739258-1.12255859-.57739258-.50830078,0-.87890625.19165039-1.11181641.57470703-.23291016.38330078-.35253906.97216797-.35986328,1.76708984v1.58984375c0,.84521484.12255859,1.46899414.36816406,1.87182617.24511719.40283203.61669922.60424805,1.11425781.60424805.49072266,0,.85498047-.18969727,1.09277344-.56933594.23828125-.37939453.36279297-.97753906.37353516-1.79394531v-1.62744141Z"/>
        <path class="cls-11" d="M640.08098799,253.13337534h.74658203c.46923828-.00708008.83789062-.13061523,1.10644531-.37060547.26855469-.23974609.40283203-.56396484.40283203-.97216797,0-.91650391-.45654297-1.375-1.36962891-1.375-.4296875,0-.77246094.12280273-1.02880859.36791992-.25585938.24536133-.38378906.5703125-.38378906.97485352h-.99365234c0-.61938477.2265625-1.1340332.67919922-1.54418945.453125-.40991211,1.02880859-.61499023,1.72705078-.61499023.73779297,0,1.31591797.1953125,1.73486328.58544922.41894531.39038086.62841797.93286133.62841797,1.62744141,0,.34033203-.10986328.66967773-.33056641.98828125-.21972656.31884766-.52001953.55688477-.89941406.71435547.4296875.13623047.76171875.36181641.99609375.67675781.23486328.31518555.35205078.70019531.35205078,1.15478516,0,.7019043-.22900391,1.25878906-.6875,1.67041016-.45849609.41186523-1.0546875.61767578-1.78857422.61767578s-1.33105469-.19873047-1.79101562-.59619141c-.46044922-.39746094-.69042969-.921875-.69042969-1.57373047h.99902344c0,.41186523.13427734.74121094.40283203.98828125s.62841797.37060547,1.07958984.37060547c.47998047,0,.84667969-.12524414,1.10107422-.37597656.25439453-.25048828.38134766-.61035156.38134766-1.07958984,0-.45458984-.13964844-.80371094-.41894531-1.04736328-.27929688-.2434082-.68212891-.36865234-1.20849609-.37597656h-.74658203v-.81103516Z"/>
        <path class="cls-11" d="M649.71673017,254.19148081c0,1.16381836-.19873047,2.02856445-.59619141,2.59423828-.39746094.56591797-1.01855469.84863281-1.86376953.84863281-.83447266,0-1.45214844-.27661133-1.85302734-.82983398s-.60888672-1.37939453-.62304688-2.47875977v-1.32666016c0-1.14941406.19873047-2.00341797.59619141-2.56201172s1.02050781-.83789062,1.86914062-.83789062c.84130859,0,1.4609375.26953125,1.85839844.80834961.39746094.5390625.6015625,1.37060547.61230469,2.49487305v1.2890625ZM648.72307783,252.83259409c0-.84130859-.11816406-1.45458984-.35449219-1.83959961-.23632812-.38476562-.61035156-.57739258-1.12255859-.57739258-.50830078,0-.87890625.19165039-1.11181641.57470703-.23291016.38330078-.35253906.97216797-.35986328,1.76708984v1.58984375c0,.84521484.12255859,1.46899414.36816406,1.87182617.24511719.40283203.61669922.60424805,1.11425781.60424805.49072266,0,.85498047-.18969727,1.09277344-.56933594.23828125-.37939453.36279297-.97753906.37353516-1.79394531v-1.62744141Z"/>
      </g>
      <g>
        <path class="cls-10" d="M13.28948408,166.75202768h-4.07714844v-.73730469h4.07714844v.73730469Z"/>
        <path class="cls-10" d="M19.35393721,169.93073862h-4.65820312v-.64941406l2.4609375-2.734375c.36474609-.41333008.61621094-.74951172.75439453-1.00830078s.20751953-.52661133.20751953-.80322266c0-.37109375-.11230469-.67553711-.33691406-.91308594s-.52392578-.35644531-.8984375-.35644531c-.44921875,0-.79833984.12768555-1.04736328.38330078s-.37353516.61108398-.37353516,1.06689453h-.90332031c0-.65429688.2109375-1.18334961.63232422-1.58691406s.98535156-.60546875,1.69189453-.60546875c.66064453,0,1.18310547.17333984,1.56738281.52001953s.57617188.80810547.57617188,1.38427734c0,.69995117-.44580078,1.53320312-1.33789062,2.5l-1.90429688,2.06542969h3.56933594v.73730469Z"/>
        <path class="cls-10" d="M24.76897627,166.89851206c0,1.05786133-.18066406,1.84399414-.54199219,2.35839844s-.92626953.77148438-1.69433594.77148438c-.75830078,0-1.31982422-.25146484-1.68457031-.75439453s-.55322266-1.25415039-.56640625-2.25341797v-1.20605469c0-1.04492188.18066406-1.82128906.54199219-2.32910156s.92773438-.76171875,1.69921875-.76171875c.76513672,0,1.328125.24487305,1.68945312.73486328s.546875,1.24584961.55664062,2.26806641v1.171875ZM23.86565596,165.66316049c0-.76489258-.10742188-1.32250977-.32226562-1.67236328s-.55517578-.52490234-1.02050781-.52490234c-.46240234,0-.79931641.17407227-1.01074219.52246094s-.32080078.88378906-.32714844,1.60644531v1.4453125c0,.76831055.11132812,1.33544922.33447266,1.70166016s.56054688.54931641,1.01318359.54931641c.44580078,0,.77734375-.17260742.99365234-.51757812s.32958984-.88867188.33935547-1.63085938v-1.47949219Z"/>
        <path class="cls-10" d="M28.32366377,164.18855112c0-.42651367.13574219-.77807617.40771484-1.0546875s.62109375-.41503906,1.04736328-.41503906c.43310547,0,.78369141.13916016,1.05224609.41748047s.40283203.63891602.40283203,1.08154297v.34667969c0,.4296875-.13574219.78051758-.40771484,1.05224609s-.61767578.40771484-1.03759766.40771484c-.42333984,0-.77294922-.13598633-1.04980469-.40771484s-.41503906-.6340332-.41503906-1.08642578v-.34179688ZM28.99749189,164.56257456c0,.25439453.07177734.46411133.21484375.62890625s.33544922.24707031.57617188.24707031c.23095703,0,.41748047-.07983398.55908203-.23974609s.21240234-.37841797.21240234-.65576172v-.35742188c0-.25439453-.06982422-.46484375-.20996094-.63134766-.14013672-.16625977-.33056641-.24951172-.57128906-.24951172s-.43115234.08325195-.57128906.24951172c-.14013672.16650391-.20996094.38354492-.20996094.65087891v.35742188ZM29.99358564,169.39362924l-.51269531-.32226562,3.47167969-5.55664062.51269531.32226562-3.47167969,5.55664062ZM31.78557783,168.18757456c0-.42651367.13574219-.77709961.40771484-1.05224609s.62109375-.41259766,1.04736328-.41259766.77636719.13671875,1.04980469.41015625.41015625.63647461.41015625,1.08886719v.34667969c0,.42651367-.13574219.77709961-.40771484,1.05224609s-.61914062.41259766-1.04248047.41259766-.77294922-.13598633-1.04980469-.40771484-.41503906-.6340332-.41503906-1.08642578v-.3515625ZM32.45940596,168.56648081c0,.2578125.07177734.46899414.21484375.63378906s.33544922.24707031.57617188.24707031c.234375,0,.42138672-.08081055.56152344-.2421875s.20996094-.38085938.20996094-.65820312v-.36230469c0-.2578125-.07080078-.46801758-.21240234-.63134766-.14160156-.16308594-.33105469-.24462891-.56884766-.24462891-.23095703,0-.41894531.08081055-.56396484.2421875-.14501953.16162109-.21728516.37939453-.21728516.65332031v.36230469Z"/>
      </g>
      <g>
        <path class="cls-10" d="M13.28948408,119.32575815h-4.07714844v-.73730469h4.07714844v.73730469Z"/>
        <path class="cls-10" d="M17.66448408,122.50446909h-.90820312v-6.02050781l-1.82128906.66894531v-.8203125l2.58789062-.97167969h.14160156v7.14355469Z"/>
        <path class="cls-10" d="M24.76897627,119.47224252c0,1.05786133-.18066406,1.84399414-.54199219,2.35839844s-.92626953.77148438-1.69433594.77148438c-.75830078,0-1.31982422-.25146484-1.68457031-.75439453s-.55322266-1.25415039-.56640625-2.25341797v-1.20605469c0-1.04492188.18066406-1.82128906.54199219-2.32910156s.92773438-.76171875,1.69921875-.76171875c.76513672,0,1.328125.24487305,1.68945312.73486328s.546875,1.24584961.55664062,2.26806641v1.171875ZM23.86565596,118.23689096c0-.76489258-.10742188-1.32250977-.32226562-1.67236328s-.55517578-.52490234-1.02050781-.52490234c-.46240234,0-.79931641.17407227-1.01074219.52246094s-.32080078.88378906-.32714844,1.60644531v1.4453125c0,.76831055.11132812,1.33544922.33447266,1.70166016s.56054688.54931641,1.01318359.54931641c.44580078,0,.77734375-.17260742.99365234-.51757812s.32958984-.88867188.33935547-1.63085938v-1.47949219Z"/>
        <path class="cls-10" d="M28.32366377,116.76228159c0-.42651367.13574219-.77807617.40771484-1.0546875s.62109375-.41503906,1.04736328-.41503906c.43310547,0,.78369141.13916016,1.05224609.41748047s.40283203.63891602.40283203,1.08154297v.34667969c0,.4296875-.13574219.78051758-.40771484,1.05224609s-.61767578.40771484-1.03759766.40771484c-.42333984,0-.77294922-.13598633-1.04980469-.40771484s-.41503906-.6340332-.41503906-1.08642578v-.34179688ZM28.99749189,117.13630502c0,.25439453.07177734.46411133.21484375.62890625s.33544922.24707031.57617188.24707031c.23095703,0,.41748047-.07983398.55908203-.23974609s.21240234-.37841797.21240234-.65576172v-.35742188c0-.25439453-.06982422-.46484375-.20996094-.63134766-.14013672-.16625977-.33056641-.24951172-.57128906-.24951172s-.43115234.08325195-.57128906.24951172c-.14013672.16650391-.20996094.38354492-.20996094.65087891v.35742188ZM29.99358564,121.96735971l-.51269531-.32226562,3.47167969-5.55664062.51269531.32226562-3.47167969,5.55664062ZM31.78557783,120.76130502c0-.42651367.13574219-.77709961.40771484-1.05224609s.62109375-.41259766,1.04736328-.41259766.77636719.13671875,1.04980469.41015625.41015625.63647461.41015625,1.08886719v.34667969c0,.42651367-.13574219.77709961-.40771484,1.05224609s-.61914062.41259766-1.04248047.41259766-.77294922-.13598633-1.04980469-.40771484-.41503906-.6340332-.41503906-1.08642578v-.3515625ZM32.45940596,121.14021127c0,.2578125.07177734.46899414.21484375.63378906s.33544922.24707031.57617188.24707031c.234375,0,.42138672-.08081055.56152344-.2421875s.20996094-.38085938.20996094-.65820312v-.36230469c0-.2578125-.07080078-.46801758-.21240234-.63134766-.14160156-.16308594-.33105469-.24462891-.56884766-.24462891-.23095703,0-.41894531.08081055-.56396484.2421875-.14501953.16162109-.21728516.37939453-.21728516.65332031v.36230469Z"/>
      </g>
      <g>
        <path class="cls-10" d="M13.28948408,214.17732065h-4.07714844v-.73730469h4.07714844v.73730469Z"/>
        <path class="cls-10" d="M16.00921064,213.36189096h.67871094c.42626953-.0065918.76171875-.11889648,1.00585938-.33691406s.36621094-.51269531.36621094-.88378906c0-.83325195-.41503906-1.25-1.24511719-1.25-.390625,0-.70214844.11157227-.93505859.33447266s-.34912109.51831055-.34912109.88623047h-.90332031c0-.56323242.20605469-1.03100586.61767578-1.40380859s.93505859-.55908203,1.56982422-.55908203c.67041016,0,1.19628906.17749023,1.57714844.53222656s.57128906.84790039.57128906,1.47949219c0,.30932617-.10009766.60864258-.30029297.8984375s-.47265625.50610352-.81787109.64941406c.390625.1237793.69238281.32885742.90576172.61523438s.31982422.63647461.31982422,1.04980469c0,.63793945-.20849609,1.14428711-.625,1.51855469s-.95849609.56152344-1.62597656.56152344-1.20996094-.18066406-1.62841797-.54199219-.62744141-.83813477-.62744141-1.43066406h.90820312c0,.37426758.12207031.67382812.36621094.8984375s.57128906.33691406.98144531.33691406c.43603516,0,.77001953-.11401367,1.00097656-.34179688s.34667969-.55493164.34667969-.98144531c0-.41333008-.12695312-.73071289-.38085938-.95214844s-.62011719-.33520508-1.09863281-.34179688h-.67871094v-.73730469Z"/>
        <path class="cls-10" d="M24.76897627,214.32380502c0,1.05786133-.18066406,1.84399414-.54199219,2.35839844s-.92626953.77148438-1.69433594.77148438c-.75830078,0-1.31982422-.25146484-1.68457031-.75439453s-.55322266-1.25415039-.56640625-2.25341797v-1.20605469c0-1.04492188.18066406-1.82128906.54199219-2.32910156s.92773438-.76171875,1.69921875-.76171875c.76513672,0,1.328125.24487305,1.68945312.73486328s.546875,1.24584961.55664062,2.26806641v1.171875ZM23.86565596,213.08845346c0-.76489258-.10742188-1.32250977-.32226562-1.67236328s-.55517578-.52490234-1.02050781-.52490234c-.46240234,0-.79931641.17407227-1.01074219.52246094s-.32080078.88378906-.32714844,1.60644531v1.4453125c0,.76831055.11132812,1.33544922.33447266,1.70166016s.56054688.54931641,1.01318359.54931641c.44580078,0,.77734375-.17260742.99365234-.51757812s.32958984-.88867188.33935547-1.63085938v-1.47949219Z"/>
        <path class="cls-10" d="M28.32366377,211.61384409c0-.42651367.13574219-.77807617.40771484-1.0546875s.62109375-.41503906,1.04736328-.41503906c.43310547,0,.78369141.13916016,1.05224609.41748047s.40283203.63891602.40283203,1.08154297v.34667969c0,.4296875-.13574219.78051758-.40771484,1.05224609s-.61767578.40771484-1.03759766.40771484c-.42333984,0-.77294922-.13598633-1.04980469-.40771484s-.41503906-.6340332-.41503906-1.08642578v-.34179688ZM28.99749189,211.98786752c0,.25439453.07177734.46411133.21484375.62890625s.33544922.24707031.57617188.24707031c.23095703,0,.41748047-.07983398.55908203-.23974609s.21240234-.37841797.21240234-.65576172v-.35742188c0-.25439453-.06982422-.46484375-.20996094-.63134766-.14013672-.16625977-.33056641-.24951172-.57128906-.24951172s-.43115234.08325195-.57128906.24951172c-.14013672.16650391-.20996094.38354492-.20996094.65087891v.35742188ZM29.99358564,216.81892221l-.51269531-.32226562,3.47167969-5.55664062.51269531.32226562-3.47167969,5.55664062ZM31.78557783,215.61286752c0-.42651367.13574219-.77709961.40771484-1.05224609s.62109375-.41259766,1.04736328-.41259766.77636719.13671875,1.04980469.41015625.41015625.63647461.41015625,1.08886719v.34667969c0,.42651367-.13574219.77709961-.40771484,1.05224609s-.61914062.41259766-1.04248047.41259766-.77294922-.13598633-1.04980469-.40771484-.41503906-.6340332-.41503906-1.08642578v-.3515625ZM32.45940596,215.99177377c0,.2578125.07177734.46899414.21484375.63378906s.33544922.24707031.57617188.24707031c.234375,0,.42138672-.08081055.56152344-.2421875s.20996094-.38085938.20996094-.65820312v-.36230469c0-.2578125-.07080078-.46801758-.21240234-.63134766-.14160156-.16308594-.33105469-.24462891-.56884766-.24462891-.23095703,0-.41894531.08081055-.56396484.2421875-.14501953.16162109-.21728516.37939453-.21728516.65332031v.36230469Z"/>
      </g>
      <g>
        <path class="cls-10" d="M13.28948408,261.60407846h-4.07714844v-.73730469h4.07714844v.73730469Z"/>
        <path class="cls-10" d="M18.50921064,262.39509409h.98632812v.73730469h-.98632812v1.65039062h-.90820312v-1.65039062h-3.23730469v-.53222656l3.18359375-4.92675781h.96191406v4.72167969ZM15.38909346,262.39509409h2.21191406v-3.48632812l-.10742188.1953125-2.10449219,3.29101562Z"/>
        <path class="cls-10" d="M24.76897627,261.75056284c0,1.05786133-.18066406,1.84399414-.54199219,2.35839844s-.92626953.77148438-1.69433594.77148438c-.75830078,0-1.31982422-.25146484-1.68457031-.75439453s-.55322266-1.25415039-.56640625-2.25341797v-1.20605469c0-1.04492188.18066406-1.82128906.54199219-2.32910156s.92773438-.76171875,1.69921875-.76171875c.76513672,0,1.328125.24487305,1.68945312.73486328s.546875,1.24584961.55664062,2.26806641v1.171875ZM23.86565596,260.51521127c0-.76489258-.10742188-1.32250977-.32226562-1.67236328s-.55517578-.52490234-1.02050781-.52490234c-.46240234,0-.79931641.17407227-1.01074219.52246094s-.32080078.88378906-.32714844,1.60644531v1.4453125c0,.76831055.11132812,1.33544922.33447266,1.70166016s.56054688.54931641,1.01318359.54931641c.44580078,0,.77734375-.17260742.99365234-.51757812s.32958984-.88867188.33935547-1.63085938v-1.47949219Z"/>
        <path class="cls-10" d="M28.32366377,259.0406019c0-.42651367.13574219-.77807617.40771484-1.0546875s.62109375-.41503906,1.04736328-.41503906c.43310547,0,.78369141.13916016,1.05224609.41748047s.40283203.63891602.40283203,1.08154297v.34667969c0,.4296875-.13574219.78051758-.40771484,1.05224609s-.61767578.40771484-1.03759766.40771484c-.42333984,0-.77294922-.13598633-1.04980469-.40771484s-.41503906-.6340332-.41503906-1.08642578v-.34179688ZM28.99749189,259.41462534c0,.25439453.07177734.46411133.21484375.62890625s.33544922.24707031.57617188.24707031c.23095703,0,.41748047-.07983398.55908203-.23974609s.21240234-.37841797.21240234-.65576172v-.35742188c0-.25439453-.06982422-.46484375-.20996094-.63134766-.14013672-.16625977-.33056641-.24951172-.57128906-.24951172s-.43115234.08325195-.57128906.24951172c-.14013672.16650391-.20996094.38354492-.20996094.65087891v.35742188ZM29.99358564,264.24568002l-.51269531-.32226562,3.47167969-5.55664062.51269531.32226562-3.47167969,5.55664062ZM31.78557783,263.03962534c0-.42651367.13574219-.77709961.40771484-1.05224609s.62109375-.41259766,1.04736328-.41259766.77636719.13671875,1.04980469.41015625.41015625.63647461.41015625,1.08886719v.34667969c0,.42651367-.13574219.77709961-.40771484,1.05224609s-.61914062.41259766-1.04248047.41259766-.77294922-.13598633-1.04980469-.40771484-.41503906-.6340332-.41503906-1.08642578v-.3515625ZM32.45940596,263.41853159c0,.2578125.07177734.46899414.21484375.63378906s.33544922.24707031.57617188.24707031c.234375,0,.42138672-.08081055.56152344-.2421875s.20996094-.38085938.20996094-.65820312v-.36230469c0-.2578125-.07080078-.46801758-.21240234-.63134766-.14160156-.16308594-.33105469-.24462891-.56884766-.24462891-.23095703,0-.41894531.08081055-.56396484.2421875-.14501953.16162109-.21728516.37939453-.21728516.65332031v.36230469Z"/>
      </g>
      <g>
        <path class="cls-10" d="M36.66497236,56.45393198h-4.65820312v-.64941406l2.4609375-2.734375c.36474609-.41333008.61621094-.74951172.75439453-1.00830078s.20751953-.52661133.20751953-.80322266c0-.37109375-.11230469-.67553711-.33691406-.91308594s-.52392578-.35644531-.8984375-.35644531c-.44921875,0-.79833984.12768555-1.04736328.38330078s-.37353516.61108398-.37353516,1.06689453h-.90332031c0-.65429688.2109375-1.18334961.63232422-1.58691406s.98535156-.60546875,1.69189453-.60546875c.66064453,0,1.18310547.17333984,1.56738281.52001953s.57617188.80810547.57617188,1.38427734c0,.69995117-.44580078,1.53320312-1.33789062,2.5l-1.90429688,2.06542969h3.56933594v.73730469Z"/>
        <path class="cls-10" d="M42.08001142,53.42170541c0,1.05786133-.18066406,1.84399414-.54199219,2.35839844s-.92626953.77148438-1.69433594.77148438c-.75830078,0-1.31982422-.25146484-1.68457031-.75439453s-.55322266-1.25415039-.56640625-2.25341797v-1.20605469c0-1.04492188.18066406-1.82128906.54199219-2.32910156s.92773438-.76171875,1.69921875-.76171875c.76513672,0,1.328125.24487305,1.68945312.73486328s.546875,1.24584961.55664062,2.26806641v1.171875ZM41.17669111,52.18635385c0-.76489258-.10742188-1.32250977-.32226562-1.67236328s-.55517578-.52490234-1.02050781-.52490234c-.46240234,0-.79931641.17407227-1.01074219.52246094s-.32080078.88378906-.32714844,1.60644531v1.4453125c0,.76831055.11132812,1.33544922.33447266,1.70166016s.56054688.54931641,1.01318359.54931641c.44580078,0,.77734375-.17260742.99365234-.51757812s.32958984-.88867188.33935547-1.63085938v-1.47949219Z"/>
        <path class="cls-10" d="M47.6952458,53.42170541c0,1.05786133-.18066406,1.84399414-.54199219,2.35839844s-.92626953.77148438-1.69433594.77148438c-.75830078,0-1.31982422-.25146484-1.68457031-.75439453s-.55322266-1.25415039-.56640625-2.25341797v-1.20605469c0-1.04492188.18066406-1.82128906.54199219-2.32910156s.92773438-.76171875,1.69921875-.76171875c.76513672,0,1.328125.24487305,1.68945312.73486328s.546875,1.24584961.55664062,2.26806641v1.171875ZM46.79192549,52.18635385c0-.76489258-.10742188-1.32250977-.32226562-1.67236328s-.55517578-.52490234-1.02050781-.52490234c-.46240234,0-.79931641.17407227-1.01074219.52246094s-.32080078.88378906-.32714844,1.60644531v1.4453125c0,.76831055.11132812,1.33544922.33447266,1.70166016s.56054688.54931641,1.01318359.54931641c.44580078,0,.77734375-.17260742.99365234-.51757812s.32958984-.88867188.33935547-1.63085938v-1.47949219Z"/>
        <path class="cls-10" d="M49.26751142,52.88947885l.36132812-3.54492188h3.64257812v.83496094h-2.87597656l-.21484375,1.93847656c.34814453-.20507812.74365234-.30761719,1.18652344-.30761719.64794922,0,1.16210938.21411133,1.54296875.64208984s.57128906,1.0065918.57128906,1.73583984c0,.73242188-.19775391,1.30932617-.59326172,1.73095703s-.94824219.63232422-1.65771484.63232422c-.62841797,0-1.14111328-.17407227-1.53808594-.52246094s-.62353516-.83007812-.67871094-1.4453125h.85449219c.05517578.40698242.20019531.71362305.43457031.92041016s.54345703.31005859.92773438.31005859c.41992188,0,.74951172-.14331055.98876953-.4296875s.35888672-.68188477.35888672-1.18652344c0-.4753418-.12939453-.85693359-.38818359-1.14501953s-.60302734-.43212891-1.03271484-.43212891c-.39404297,0-.703125.08618164-.92773438.25878906l-.23925781.1953125-.72265625-.18554688Z"/>
      </g>
      <g>
        <path class="cls-10" d="M34.00579267,40.33576791c-.109375-.01806641-.22802734-.02734375-.35546875-.02734375-.47412109,0-.79541016.2019043-.96484375.60546875v3h-.72265625v-4.2265625h.703125l.01171875.48828125c.23681641-.37744141.57275391-.56640625,1.0078125-.56640625.140625,0,.24755859.01831055.3203125.0546875v.671875Z"/>
        <path class="cls-10" d="M36.42376142,43.99201791c-.57275391,0-1.0390625-.18798828-1.3984375-.56445312-.359375-.3762207-.5390625-.87939453-.5390625-1.50976562v-.1328125c0-.41918945.08007812-.79345703.24023438-1.12304688.16015625-.3293457.38427734-.5871582.671875-.7734375.28759766-.18603516.59960938-.27929688.93554688-.27929688.54931641,0,.9765625.18115234,1.28125.54296875.3046875.36206055.45703125.88037109.45703125,1.5546875v.30078125h-2.86328125c.01025391.41674805.13232422.75341797.36523438,1.00976562.23291016.2565918.52929688.38476562.88867188.38476562.25537109,0,.47119141-.05200195.6484375-.15625.17724609-.10400391.33203125-.2421875.46484375-.4140625l.44140625.34375c-.35400391.54443359-.88525391.81640625-1.59375.81640625ZM36.33391767,40.20295541c-.29150391,0-.53662109.10620117-.734375.31835938-.19775391.21240234-.3203125.50976562-.3671875.89257812h2.1171875v-.0546875c-.02099609-.3671875-.11962891-.65161133-.296875-.85351562-.17724609-.20166016-.41650391-.30273438-.71875-.30273438Z"/>
        <path class="cls-10" d="M39.26360517,43.91389291v-3.66796875h-.66796875v-.55859375h.66796875v-.43359375c0-.453125.12109375-.80322266.36328125-1.05078125.2421875-.24731445.58447266-.37109375,1.02734375-.37109375.16650391,0,.33203125.02197266.49609375.06591797l-.0390625.58251953c-.12255859-.0234375-.25244141-.03515625-.390625-.03515625-.234375,0-.41552734.06860352-.54296875.20581055-.12744141.13696289-.19140625.33374023-.19140625.58959961v.44677734h.90234375v.55859375h-.90234375v3.66796875h-.72265625Z"/>
        <path class="cls-10" d="M43.43938642,43.99201791c-.57275391,0-1.0390625-.18798828-1.3984375-.56445312-.359375-.3762207-.5390625-.87939453-.5390625-1.50976562v-.1328125c0-.41918945.08007812-.79345703.24023438-1.12304688.16015625-.3293457.38427734-.5871582.671875-.7734375.28759766-.18603516.59960938-.27929688.93554688-.27929688.54931641,0,.9765625.18115234,1.28125.54296875.3046875.36206055.45703125.88037109.45703125,1.5546875v.30078125h-2.86328125c.01025391.41674805.13232422.75341797.36523438,1.00976562.23291016.2565918.52929688.38476562.88867188.38476562.25537109,0,.47119141-.05200195.6484375-.15625.17724609-.10400391.33203125-.2421875.46484375-.4140625l.44140625.34375c-.35400391.54443359-.88525391.81640625-1.59375.81640625ZM43.34954267,40.20295541c-.29150391,0-.53662109.10620117-.734375.31835938-.19775391.21240234-.3203125.50976562-.3671875.89257812h2.1171875v-.0546875c-.02099609-.3671875-.11962891-.65161133-.296875-.85351562-.17724609-.20166016-.41650391-.30273438-.71875-.30273438Z"/>
        <path class="cls-10" d="M47.96673017,40.33576791c-.109375-.01806641-.22802734-.02734375-.35546875-.02734375-.47412109,0-.79541016.2019043-.96484375.60546875v3h-.72265625v-4.2265625h.703125l.01171875.48828125c.23681641-.37744141.57275391-.56640625,1.0078125-.56640625.140625,0,.24755859.01831055.3203125.0546875v.671875Z"/>
        <path class="cls-10" d="M50.38469892,43.99201791c-.57275391,0-1.0390625-.18798828-1.3984375-.56445312-.359375-.3762207-.5390625-.87939453-.5390625-1.50976562v-.1328125c0-.41918945.08007812-.79345703.24023438-1.12304688.16015625-.3293457.38427734-.5871582.671875-.7734375.28759766-.18603516.59960938-.27929688.93554688-.27929688.54931641,0,.9765625.18115234,1.28125.54296875.3046875.36206055.45703125.88037109.45703125,1.5546875v.30078125h-2.86328125c.01025391.41674805.13232422.75341797.36523438,1.00976562.23291016.2565918.52929688.38476562.88867188.38476562.25537109,0,.47119141-.05200195.6484375-.15625.17724609-.10400391.33203125-.2421875.46484375-.4140625l.44140625.34375c-.35400391.54443359-.88525391.81640625-1.59375.81640625ZM50.29485517,40.20295541c-.29150391,0-.53662109.10620117-.734375.31835938-.19775391.21240234-.3203125.50976562-.3671875.89257812h2.1171875v-.0546875c-.02099609-.3671875-.11962891-.65161133-.296875-.85351562-.17724609-.20166016-.41650391-.30273438-.71875-.30273438Z"/>
        <path class="cls-10" d="M53.55266767,39.68733041l.0234375.53125c.32275391-.40625.74462891-.609375,1.265625-.609375.89306641,0,1.34375.50390625,1.3515625,1.51171875v2.79296875h-.72265625v-2.796875c-.00244141-.3046875-.07226562-.52978516-.20898438-.67578125-.13671875-.14575195-.34960938-.21875-.63867188-.21875-.234375,0-.43994141.0625-.6171875.1875s-.31494141.2890625-.4140625.4921875v3.01171875h-.72265625v-4.2265625h.68359375Z"/>
        <path class="cls-10" d="M58.97844892,43.40217416c.2578125,0,.48291016-.078125.67578125-.234375s.29931641-.3515625.3203125-.5859375h.68359375c-.01318359.2421875-.09619141.47265625-.25.69140625s-.35888672.39331055-.61523438.5234375-.52783203.1953125-.81445312.1953125c-.57568359,0-1.03320312-.19189453-1.37304688-.57617188-.33984375-.3840332-.50976562-.90942383-.50976562-1.57617188v-.12109375c0-.41137695.07568359-.77734375.2265625-1.09765625s.36767578-.56884766.65039062-.74609375c.28271484-.17700195.61669922-.265625,1.00195312-.265625.47412109,0,.86767578.14208984,1.18164062.42578125.31396484.28393555.48095703.65234375.50195312,1.10546875h-.68359375c-.02099609-.2734375-.12451172-.49804688-.31054688-.67382812s-.41601562-.26367188-.68945312-.26367188c-.3671875,0-.65185547.13232422-.85351562.39648438-.20166016.2644043-.30273438.64648438-.30273438,1.14648438v.13671875c0,.48706055.10009766.86206055.30078125,1.125.20068359.26318359.48681641.39453125.859375.39453125ZM58.81048017,38.57795541l.5859375-.6640625h.625v.0390625l-.9921875,1.0703125h-.44140625l-.98046875-1.0703125v-.0390625h.61328125l.58984375.6640625Z"/>
        <path class="cls-10" d="M62.15423017,39.68733041l.0234375.53125c.32275391-.40625.74462891-.609375,1.265625-.609375.89306641,0,1.34375.50390625,1.3515625,1.51171875v2.79296875h-.72265625v-2.796875c-.00244141-.3046875-.07226562-.52978516-.20898438-.67578125-.13671875-.14575195-.34960938-.21875-.63867188-.21875-.234375,0-.43994141.0625-.6171875.1875s-.31494141.2890625-.4140625.4921875v3.01171875h-.72265625v-4.2265625h.68359375Z"/>
        <path class="cls-10" d="M66.67766767,37.91779916h.875l-1.046875,1.1484375-.58203125-.00195312.75390625-1.14648438ZM66.66985517,43.91389291h-.7265625v-4.2265625h.7265625v4.2265625Z"/>
        <path class="cls-10" d="M71.88469892,40.33576791c-.109375-.01806641-.22802734-.02734375-.35546875-.02734375-.47412109,0-.79541016.2019043-.96484375.60546875v3h-.72265625v-4.2265625h.703125l.01171875.48828125c.23681641-.37744141.57275391-.56640625,1.0078125-.56640625.140625,0,.24755859.01831055.3203125.0546875v.671875Z"/>
        <path class="cls-10" d="M72.27923017,41.76154916c0-.4140625.08154297-.78637695.24414062-1.1171875.16259766-.33056641.38916016-.5859375.6796875-.765625s.62158203-.26953125.99414062-.26953125c.57568359,0,1.04101562.19921875,1.39648438.59765625s.53320312.9284668.53320312,1.58984375v.05078125c0,.41162109-.07861328.78076172-.23632812,1.10742188-.15771484.3269043-.3828125.58154297-.67578125.76367188-.29296875.18237305-.62939453.2734375-1.00976562.2734375-.57275391,0-1.03710938-.19921875-1.39257812-.59765625s-.53320312-.92578125-.53320312-1.58203125v-.05078125ZM73.00579267,41.84748666c0,.46875.10888672.84521484.32617188,1.12890625.21728516.28393555.50830078.42578125.87304688.42578125.3671875,0,.65869141-.14379883.875-.43164062.21630859-.28759766.32421875-.69067383.32421875-1.20898438,0-.46337891-.10986328-.83911133-.33007812-1.12695312-.22021484-.28759766-.51220703-.43164062-.87695312-.43164062-.35693359,0-.64453125.14208984-.86328125.42578125-.21875.28393555-.328125.69018555-.328125,1.21875Z"/>
        <path class="cls-10" d="M78.21282392,41.95686166l-.453125.47265625v1.484375h-.72265625v-6h.72265625v3.62890625l.38671875-.46484375,1.31640625-1.390625h.87890625l-1.64453125,1.765625,1.8359375,2.4609375h-.84765625l-1.47265625-1.95703125Z"/>
      </g>
      <g>
        <path class="cls-10" d="M138.79534346,56.45393198h-4.65820312v-.64941406l2.4609375-2.734375c.36474609-.41333008.61621094-.74951172.75439453-1.00830078s.20751953-.52661133.20751953-.80322266c0-.37109375-.11230469-.67553711-.33691406-.91308594s-.52392578-.35644531-.8984375-.35644531c-.44921875,0-.79833984.12768555-1.04736328.38330078s-.37353516.61108398-.37353516,1.06689453h-.90332031c0-.65429688.2109375-1.18334961.63232422-1.58691406s.98535156-.60546875,1.69189453-.60546875c.66064453,0,1.18310547.17333984,1.56738281.52001953s.57617188.80810547.57617188,1.38427734c0,.69995117-.44580078,1.53320312-1.33789062,2.5l-1.90429688,2.06542969h3.56933594v.73730469Z"/>
        <path class="cls-10" d="M144.21038252,53.42170541c0,1.05786133-.18066406,1.84399414-.54199219,2.35839844s-.92626953.77148438-1.69433594.77148438c-.75830078,0-1.31982422-.25146484-1.68457031-.75439453s-.55322266-1.25415039-.56640625-2.25341797v-1.20605469c0-1.04492188.18066406-1.82128906.54199219-2.32910156s.92773438-.76171875,1.69921875-.76171875c.76513672,0,1.328125.24487305,1.68945312.73486328s.546875,1.24584961.55664062,2.26806641v1.171875ZM143.30706221,52.18635385c0-.76489258-.10742188-1.32250977-.32226562-1.67236328s-.55517578-.52490234-1.02050781-.52490234c-.46240234,0-.79931641.17407227-1.01074219.52246094s-.32080078.88378906-.32714844,1.60644531v1.4453125c0,.76831055.11132812,1.33544922.33447266,1.70166016s.56054688.54931641,1.01318359.54931641c.44580078,0,.77734375-.17260742.99365234-.51757812s.32958984-.88867188.33935547-1.63085938v-1.47949219Z"/>
        <path class="cls-10" d="M148.33635908,56.45393198h-.90820312v-6.02050781l-1.82128906.66894531v-.8203125l2.58789062-.97167969h.14160156v7.14355469Z"/>
        <path class="cls-10" d="M155.44085127,53.42170541c0,1.05786133-.18066406,1.84399414-.54199219,2.35839844s-.92626953.77148438-1.69433594.77148438c-.75830078,0-1.31982422-.25146484-1.68457031-.75439453s-.55322266-1.25415039-.56640625-2.25341797v-1.20605469c0-1.04492188.18066406-1.82128906.54199219-2.32910156s.92773438-.76171875,1.69921875-.76171875c.76513672,0,1.328125.24487305,1.68945312.73486328s.546875,1.24584961.55664062,2.26806641v1.171875ZM154.53753096,52.18635385c0-.76489258-.10742188-1.32250977-.32226562-1.67236328s-.55517578-.52490234-1.02050781-.52490234c-.46240234,0-.79931641.17407227-1.01074219.52246094s-.32080078.88378906-.32714844,1.60644531v1.4453125c0,.76831055.11132812,1.33544922.33447266,1.70166016s.56054688.54931641,1.01318359.54931641c.44580078,0,.77734375-.17260742.99365234-.51757812s.32958984-.88867188.33935547-1.63085938v-1.47949219Z"/>
      </g>
      <g>
        <path class="cls-10" d="M240.92522627,56.45393198h-4.65820312v-.64941406l2.4609375-2.734375c.36474609-.41333008.61621094-.74951172.75439453-1.00830078s.20751953-.52661133.20751953-.80322266c0-.37109375-.11230469-.67553711-.33691406-.91308594s-.52392578-.35644531-.8984375-.35644531c-.44921875,0-.79833984.12768555-1.04736328.38330078s-.37353516.61108398-.37353516,1.06689453h-.90332031c0-.65429688.2109375-1.18334961.63232422-1.58691406s.98535156-.60546875,1.69189453-.60546875c.66064453,0,1.18310547.17333984,1.56738281.52001953s.57617188.80810547.57617188,1.38427734c0,.69995117-.44580078,1.53320312-1.33789062,2.5l-1.90429688,2.06542969h3.56933594v.73730469Z"/>
        <path class="cls-10" d="M246.34026533,53.42170541c0,1.05786133-.18066406,1.84399414-.54199219,2.35839844s-.92626953.77148438-1.69433594.77148438c-.75830078,0-1.31982422-.25146484-1.68457031-.75439453s-.55322266-1.25415039-.56640625-2.25341797v-1.20605469c0-1.04492188.18066406-1.82128906.54199219-2.32910156s.92773438-.76171875,1.69921875-.76171875c.76513672,0,1.328125.24487305,1.68945312.73486328s.546875,1.24584961.55664062,2.26806641v1.171875ZM245.43694502,52.18635385c0-.76489258-.10742188-1.32250977-.32226562-1.67236328s-.55517578-.52490234-1.02050781-.52490234c-.46240234,0-.79931641.17407227-1.01074219.52246094s-.32080078.88378906-.32714844,1.60644531v1.4453125c0,.76831055.11132812,1.33544922.33447266,1.70166016s.56054688.54931641,1.01318359.54931641c.44580078,0,.77734375-.17260742.99365234-.51757812s.32958984-.88867188.33935547-1.63085938v-1.47949219Z"/>
        <path class="cls-10" d="M250.46624189,56.45393198h-.90820312v-6.02050781l-1.82128906.66894531v-.8203125l2.58789062-.97167969h.14160156v7.14355469Z"/>
        <path class="cls-10" d="M253.52776533,52.88947885l.36132812-3.54492188h3.64257812v.83496094h-2.87597656l-.21484375,1.93847656c.34814453-.20507812.74365234-.30761719,1.18652344-.30761719.64794922,0,1.16210938.21411133,1.54296875.64208984s.57128906,1.0065918.57128906,1.73583984c0,.73242188-.19775391,1.30932617-.59326172,1.73095703s-.94824219.63232422-1.65771484.63232422c-.62841797,0-1.14111328-.17407227-1.53808594-.52246094s-.62353516-.83007812-.67871094-1.4453125h.85449219c.05517578.40698242.20019531.71362305.43457031.92041016s.54345703.31005859.92773438.31005859c.41992188,0,.74951172-.14331055.98876953-.4296875s.35888672-.68188477.35888672-1.18652344c0-.4753418-.12939453-.85693359-.38818359-1.14501953s-.60302734-.43212891-1.03271484-.43212891c-.39404297,0-.703125.08618164-.92773438.25878906l-.23925781.1953125-.72265625-.18554688Z"/>
      </g>
      <g>
        <path class="cls-10" d="M343.05559736,56.45393198h-4.65820312v-.64941406l2.4609375-2.734375c.36474609-.41333008.61621094-.74951172.75439453-1.00830078s.20751953-.52661133.20751953-.80322266c0-.37109375-.11230469-.67553711-.33691406-.91308594s-.52392578-.35644531-.8984375-.35644531c-.44921875,0-.79833984.12768555-1.04736328.38330078s-.37353516.61108398-.37353516,1.06689453h-.90332031c0-.65429688.2109375-1.18334961.63232422-1.58691406s.98535156-.60546875,1.69189453-.60546875c.66064453,0,1.18310547.17333984,1.56738281.52001953s.57617188.80810547.57617188,1.38427734c0,.69995117-.44580078,1.53320312-1.33789062,2.5l-1.90429688,2.06542969h3.56933594v.73730469Z"/>
        <path class="cls-10" d="M348.47063642,53.42170541c0,1.05786133-.18066406,1.84399414-.54199219,2.35839844s-.92626953.77148438-1.69433594.77148438c-.75830078,0-1.31982422-.25146484-1.68457031-.75439453s-.55322266-1.25415039-.56640625-2.25341797v-1.20605469c0-1.04492188.18066406-1.82128906.54199219-2.32910156s.92773438-.76171875,1.69921875-.76171875c.76513672,0,1.328125.24487305,1.68945312.73486328s.546875,1.24584961.55664062,2.26806641v1.171875ZM347.56731611,52.18635385c0-.76489258-.10742188-1.32250977-.32226562-1.67236328s-.55517578-.52490234-1.02050781-.52490234c-.46240234,0-.79931641.17407227-1.01074219.52246094s-.32080078.88378906-.32714844,1.60644531v1.4453125c0,.76831055.11132812,1.33544922.33447266,1.70166016s.56054688.54931641,1.01318359.54931641c.44580078,0,.77734375-.17260742.99365234-.51757812s.32958984-.88867188.33935547-1.63085938v-1.47949219Z"/>
        <path class="cls-10" d="M354.28606611,56.45393198h-4.65820312v-.64941406l2.4609375-2.734375c.36474609-.41333008.61621094-.74951172.75439453-1.00830078s.20751953-.52661133.20751953-.80322266c0-.37109375-.11230469-.67553711-.33691406-.91308594s-.52392578-.35644531-.8984375-.35644531c-.44921875,0-.79833984.12768555-1.04736328.38330078s-.37353516.61108398-.37353516,1.06689453h-.90332031c0-.65429688.2109375-1.18334961.63232422-1.58691406s.98535156-.60546875,1.69189453-.60546875c.66064453,0,1.18310547.17333984,1.56738281.52001953s.57617188.80810547.57617188,1.38427734c0,.69995117-.44580078,1.53320312-1.33789062,2.5l-1.90429688,2.06542969h3.56933594v.73730469Z"/>
        <path class="cls-10" d="M359.70110517,53.42170541c0,1.05786133-.18066406,1.84399414-.54199219,2.35839844s-.92626953.77148438-1.69433594.77148438c-.75830078,0-1.31982422-.25146484-1.68457031-.75439453s-.55322266-1.25415039-.56640625-2.25341797v-1.20605469c0-1.04492188.18066406-1.82128906.54199219-2.32910156s.92773438-.76171875,1.69921875-.76171875c.76513672,0,1.328125.24487305,1.68945312.73486328s.546875,1.24584961.55664062,2.26806641v1.171875ZM358.79778486,52.18635385c0-.76489258-.10742188-1.32250977-.32226562-1.67236328s-.55517578-.52490234-1.02050781-.52490234c-.46240234,0-.79931641.17407227-1.01074219.52246094s-.32080078.88378906-.32714844,1.60644531v1.4453125c0,.76831055.11132812,1.33544922.33447266,1.70166016s.56054688.54931641,1.01318359.54931641c.44580078,0,.77734375-.17260742.99365234-.51757812s.32958984-.88867188.33935547-1.63085938v-1.47949219Z"/>
      </g>
      <g>
        <path class="cls-10" d="M445.18548017,56.55207651h-4.65820312v-.64941406l2.4609375-2.734375c.36474609-.41333008.61621094-.74951172.75439453-1.00830078s.20751953-.52661133.20751953-.80322266c0-.37109375-.11230469-.67553711-.33691406-.91308594s-.52392578-.35644531-.8984375-.35644531c-.44921875,0-.79833984.12768555-1.04736328.38330078s-.37353516.61108398-.37353516,1.06689453h-.90332031c0-.65429688.2109375-1.18334961.63232422-1.58691406s.98535156-.60546875,1.69189453-.60546875c.66064453,0,1.18310547.17333984,1.56738281.52001953s.57617188.80810547.57617188,1.38427734c0,.69995117-.44580078,1.53320312-1.33789062,2.5l-1.90429688,2.06542969h3.56933594v.73730469Z"/>
        <path class="cls-10" d="M450.60051924,53.51984995c0,1.05786133-.18066406,1.84399414-.54199219,2.35839844s-.92626953.77148438-1.69433594.77148438c-.75830078,0-1.31982422-.25146484-1.68457031-.75439453s-.55322266-1.25415039-.56640625-2.25341797v-1.20605469c0-1.04492188.18066406-1.82128906.54199219-2.32910156s.92773438-.76171875,1.69921875-.76171875c.76513672,0,1.328125.24487305,1.68945312.73486328s.546875,1.24584961.55664062,2.26806641v1.171875ZM449.69719892,52.28449838c0-.76489258-.10742188-1.32250977-.32226562-1.67236328s-.55517578-.52490234-1.02050781-.52490234c-.46240234,0-.79931641.17407227-1.01074219.52246094s-.32080078.88378906-.32714844,1.60644531v1.4453125c0,.76831055.11132812,1.33544922.33447266,1.70166016s.56054688.54931641,1.01318359.54931641c.44580078,0,.77734375-.17260742.99365234-.51757812s.32958984-.88867188.33935547-1.63085938v-1.47949219Z"/>
        <path class="cls-10" d="M456.41594892,56.55207651h-4.65820312v-.64941406l2.4609375-2.734375c.36474609-.41333008.61621094-.74951172.75439453-1.00830078s.20751953-.52661133.20751953-.80322266c0-.37109375-.11230469-.67553711-.33691406-.91308594s-.52392578-.35644531-.8984375-.35644531c-.44921875,0-.79833984.12768555-1.04736328.38330078s-.37353516.61108398-.37353516,1.06689453h-.90332031c0-.65429688.2109375-1.18334961.63232422-1.58691406s.98535156-.60546875,1.69189453-.60546875c.66064453,0,1.18310547.17333984,1.56738281.52001953s.57617188.80810547.57617188,1.38427734c0,.69995117-.44580078,1.53320312-1.33789062,2.5l-1.90429688,2.06542969h3.56933594v.73730469Z"/>
        <path class="cls-10" d="M457.78801924,52.98762338l.36132812-3.54492188h3.64257812v.83496094h-2.87597656l-.21484375,1.93847656c.34814453-.20507812.74365234-.30761719,1.18652344-.30761719.64794922,0,1.16210938.21411133,1.54296875.64208984s.57128906,1.0065918.57128906,1.73583984c0,.73242188-.19775391,1.30932617-.59326172,1.73095703s-.94824219.63232422-1.65771484.63232422c-.62841797,0-1.14111328-.17407227-1.53808594-.52246094s-.62353516-.83007812-.67871094-1.4453125h.85449219c.05517578.40698242.20019531.71362305.43457031.92041016s.54345703.31005859.92773438.31005859c.41992188,0,.74951172-.14331055.98876953-.4296875s.35888672-.68188477.35888672-1.18652344c0-.4753418-.12939453-.85693359-.38818359-1.14501953s-.60302734-.43212891-1.03271484-.43212891c-.39404297,0-.703125.08618164-.92773438.25878906l-.23925781.1953125-.72265625-.18554688Z"/>
      </g>
      <g>
        <path class="cls-10" d="M547.31585127,56.64973276h-4.65820312v-.64941406l2.4609375-2.734375c.36474609-.41333008.61621094-.74951172.75439453-1.00830078s.20751953-.52661133.20751953-.80322266c0-.37109375-.11230469-.67553711-.33691406-.91308594s-.52392578-.35644531-.8984375-.35644531c-.44921875,0-.79833984.12768555-1.04736328.38330078s-.37353516.61108398-.37353516,1.06689453h-.90332031c0-.65429688.2109375-1.18334961.63232422-1.58691406s.98535156-.60546875,1.69189453-.60546875c.66064453,0,1.18310547.17333984,1.56738281.52001953s.57617188.80810547.57617188,1.38427734c0,.69995117-.44580078,1.53320312-1.33789062,2.5l-1.90429688,2.06542969h3.56933594v.73730469Z"/>
        <path class="cls-10" d="M552.73089033,53.6175062c0,1.05786133-.18066406,1.84399414-.54199219,2.35839844s-.92626953.77148438-1.69433594.77148438c-.75830078,0-1.31982422-.25146484-1.68457031-.75439453s-.55322266-1.25415039-.56640625-2.25341797v-1.20605469c0-1.04492188.18066406-1.82128906.54199219-2.32910156s.92773438-.76171875,1.69921875-.76171875c.76513672,0,1.328125.24487305,1.68945312.73486328s.546875,1.24584961.55664062,2.26806641v1.171875ZM551.82757002,52.38215463c0-.76489258-.10742188-1.32250977-.32226562-1.67236328s-.55517578-.52490234-1.02050781-.52490234c-.46240234,0-.79931641.17407227-1.01074219.52246094s-.32080078.88378906-.32714844,1.60644531v1.4453125c0,.76831055.11132812,1.33544922.33447266,1.70166016s.56054688.54931641,1.01318359.54931641c.44580078,0,.77734375-.17260742.99365234-.51757812s.32958984-.88867188.33935547-1.63085938v-1.47949219Z"/>
        <path class="cls-10" d="M555.20159346,52.65559213h.67871094c.42626953-.0065918.76171875-.11889648,1.00585938-.33691406s.36621094-.51269531.36621094-.88378906c0-.83325195-.41503906-1.25-1.24511719-1.25-.390625,0-.70214844.11157227-.93505859.33447266s-.34912109.51831055-.34912109.88623047h-.90332031c0-.56323242.20605469-1.03100586.61767578-1.40380859s.93505859-.55908203,1.56982422-.55908203c.67041016,0,1.19628906.17749023,1.57714844.53222656s.57128906.84790039.57128906,1.47949219c0,.30932617-.10009766.60864258-.30029297.8984375s-.47265625.50610352-.81787109.64941406c.390625.1237793.69238281.32885742.90576172.61523438s.31982422.63647461.31982422,1.04980469c0,.63793945-.20849609,1.14428711-.625,1.51855469s-.95849609.56152344-1.62597656.56152344-1.20996094-.18066406-1.62841797-.54199219-.62744141-.83813477-.62744141-1.43066406h.90820312c0,.37426758.12207031.67382812.36621094.8984375s.57128906.33691406.98144531.33691406c.43603516,0,.77001953-.11401367,1.00097656-.34179688s.34667969-.55493164.34667969-.98144531c0-.41333008-.12695312-.73071289-.38085938-.95214844s-.62011719-.33520508-1.09863281-.34179688h-.67871094v-.73730469Z"/>
        <path class="cls-10" d="M563.96135908,53.6175062c0,1.05786133-.18066406,1.84399414-.54199219,2.35839844s-.92626953.77148438-1.69433594.77148438c-.75830078,0-1.31982422-.25146484-1.68457031-.75439453s-.55322266-1.25415039-.56640625-2.25341797v-1.20605469c0-1.04492188.18066406-1.82128906.54199219-2.32910156s.92773438-.76171875,1.69921875-.76171875c.76513672,0,1.328125.24487305,1.68945312.73486328s.546875,1.24584961.55664062,2.26806641v1.171875ZM563.05803877,52.38215463c0-.76489258-.10742188-1.32250977-.32226562-1.67236328s-.55517578-.52490234-1.02050781-.52490234c-.46240234,0-.79931641.17407227-1.01074219.52246094s-.32080078.88378906-.32714844,1.60644531v1.4453125c0,.76831055.11132812,1.33544922.33447266,1.70166016s.56054688.54931641,1.01318359.54931641c.44580078,0,.77734375-.17260742.99365234-.51757812s.32958984-.88867188.33935547-1.63085938v-1.47949219Z"/>
      </g>
      <path class="cls-4" d="M145.4915514,60.0458036v4.61678566"/>
      <path class="cls-4" d="M43.15753504,60.0458036v6.27152607"/>
      <path class="cls-4" d="M247.39443777,60.0458036v4.61678566"/>
      <path class="cls-4" d="M349.29732414,60.0458036v4.61678566"/>
      <path class="cls-4" d="M451.20021051,60.0458036v4.61678566"/>
      <path class="cls-4" d="M553.10309688,60.0458036v4.61678566"/>
      <g>
        <line class="cls-6" x1="42.80474287" y1="166.3596937" x2="45.30474287" y2="166.3596937"/>
        <line class="cls-3" x1="50.30779463" y1="166.3596937" x2="548.10161787" y2="166.3596937"/>
        <line class="cls-6" x1="550.60308271" y1="166.3596937" x2="553.10308271" y2="166.3596937"/>
      </g>
      <g>
        <line class="cls-6" x1="42.80474287" y1="119.09113901" x2="45.30474287" y2="119.09113901"/>
        <line class="cls-3" x1="50.30779463" y1="119.09113901" x2="548.10161787" y2="119.09113901"/>
        <line class="cls-6" x1="550.60308271" y1="119.09113901" x2="553.10308271" y2="119.09113901"/>
      </g>
      <g>
        <line class="cls-6" x1="42.80474287" y1="213.62824838" x2="45.30474287" y2="213.62824838"/>
        <line class="cls-3" x1="50.30779463" y1="213.62824838" x2="548.10161787" y2="213.62824838"/>
        <line class="cls-6" x1="550.60308271" y1="213.62824838" x2="553.10308271" y2="213.62824838"/>
      </g>
      <g>
        <line class="cls-6" x1="42.80474287" y1="261.52693002" x2="45.30474287" y2="261.52693002"/>
        <line class="cls-5" x1="50.28997236" y1="261.52693002" x2="516.39830976" y2="261.52693002"/>
        <line class="cls-6" x1="518.89086348" y1="261.52693002" x2="521.39086348" y2="261.52693002"/>
      </g>
      <path class="cls-4" d="M42.80479667,71.82283559h510.2983002"/>
      <path class="cls-2" d="M43.15753504,71.60925133l20.43447301-1.87443886,20.43446105,32.15276723,20.43447301-2.83524348,20.43447301,32.21514659,20.43446105-11.69679544,20.43447301,17.04318672,20.43446105,5.41827684,20.43447301,12.06252226,20.43447301,16.67643091,20.43447301-12.09107453,20.43444909-4.29926627,20.43447301.63007334,20.43447301,1.58984897,20.43447301,2.39574622,20.43447301,27.56776186,20.43444909-23.5635197"/>
      <circle class="cls-11" cx="553.10309688" cy="271.10673509" r="3.99065"/>
      <circle class="cls-11" cx="370.10901944" cy="163.30976937" r="3.99065"/>
      <g>
        <line class="cls-1" x1="370.10900312" y1="163.00080698" x2="372.26146894" y2="164.27229135"/>
        <line class="cls-8" x1="376.61974531" y1="166.84699838" x2="548.77147871" y2="268.54768198"/>
        <line class="cls-1" x1="550.95061689" y1="269.83503549" x2="553.10308271" y2="271.10676401"/>
      </g>
    </g>
    <rect class="cls-7" x="-38.53766072" y="-218.53725753" width="739.75566817" height="1346.22202676"/>
  </g>
</svg>