<?xml version="1.0" encoding="UTF-8"?>
<svg id="Layer_1" data-name="Layer 1" xmlns="http://www.w3.org/2000/svg" xmlns:xlink="http://www.w3.org/1999/xlink" viewBox="0 0 648 56.94106173">
  <defs>
    <style>
      .cls-1, .cls-2, .cls-3 {
        fill: none;
      }

      .cls-1, .cls-4, .cls-5, .cls-6 {
        stroke-width: 0px;
      }

      .cls-2 {
        stroke: #fff;
        stroke-width: .1px;
      }

      .cls-2, .cls-3 {
        stroke-miterlimit: 10;
      }

      .cls-4 {
        fill: url(#New_Pattern_Swatch_1_copy);
      }

      .cls-3 {
        stroke: #5f6875;
        stroke-width: .75px;
      }

      .cls-5 {
        fill: #5f6875;
      }

      .cls-6 {
        fill: #e4e7ed;
      }
    </style>
    <pattern id="New_Pattern_Swatch_1_copy" data-name="New Pattern Swatch 1 copy" x="0" y="0" width="2.83464567" height="2.83464567" patternTransform="translate(6.63800144 4.66095049) scale(9.70395779 10)" patternUnits="userSpaceOnUse" viewBox="0 0 2.83464567 2.83464567">
      <g>
        <rect class="cls-1" x="0" width="2.83464567" height="2.83464567"/>
        <line class="cls-2" x1="2.833134" y1="5.66796869" x2="5.67051685" y2="2.83058584"/>
        <line class="cls-2" x1="-.00151167" y1="5.66796869" x2="2.83587118" y2="2.83058584"/>
        <line class="cls-2" x1="-2.83615734" y1="5.66796869" x2=".00122551" y2="2.83058584"/>
        <g>
          <line class="cls-2" x1="2.833134" y1="5.67070588" x2="5.67051685" y2="2.83332302"/>
          <line class="cls-2" x1="2.833134" y1="2.83332302" x2="5.67051685" y2="-.00405983"/>
          <line class="cls-2" x1="2.833134" y1="4.72491159" x2="5.67051685" y2="1.88752874"/>
          <line class="cls-2" x1="2.833134" y1="3.77911731" x2="5.67051685" y2=".94173446"/>
        </g>
        <g>
          <line class="cls-2" x1="-.00151167" y1="5.67070588" x2="2.83587118" y2="2.83332302"/>
          <line class="cls-2" x1="-.00151167" y1="2.83332302" x2="2.83587118" y2="-.00405983"/>
          <line class="cls-2" x1="-.00151167" y1="4.72491159" x2="2.83587118" y2="1.88752874"/>
          <line class="cls-2" x1="-.00151167" y1="3.77911731" x2="2.83587118" y2=".94173446"/>
        </g>
        <g>
          <line class="cls-2" x1="-2.83615734" y1="5.67070588" x2=".00122551" y2="2.83332302"/>
          <line class="cls-2" x1="-2.83615734" y1="2.83332302" x2=".00122551" y2="-.00405983"/>
          <line class="cls-2" x1="-2.83615734" y1="4.72491159" x2=".00122551" y2="1.88752874"/>
          <line class="cls-2" x1="-2.83615734" y1="3.77911731" x2=".00122551" y2=".94173446"/>
        </g>
        <g>
          <line class="cls-2" x1="2.833134" y1="2.83606021" x2="5.67051685" y2="-.00132264"/>
          <line class="cls-2" x1="2.833134" y1="-.00132264" x2="5.67051685" y2="-2.8387055"/>
          <line class="cls-2" x1="2.833134" y1="5.67344306" x2="5.67051685" y2="2.83606021"/>
          <line class="cls-2" x1="2.833134" y1="4.72764878" x2="5.67051685" y2="1.89026592"/>
          <line class="cls-2" x1="2.833134" y1="3.78185449" x2="5.67051685" y2=".94447164"/>
          <line class="cls-2" x1="2.833134" y1="1.89026592" x2="5.67051685" y2="-.94711693"/>
          <line class="cls-2" x1="2.833134" y1=".94447164" x2="5.67051685" y2="-1.89291121"/>
        </g>
        <g>
          <line class="cls-2" x1="-.00151167" y1="2.83606021" x2="2.83587118" y2="-.00132264"/>
          <line class="cls-2" x1="-.00151167" y1="-.00132264" x2="2.83587118" y2="-2.8387055"/>
          <line class="cls-2" x1="-.00151167" y1="5.67344306" x2="2.83587118" y2="2.83606021"/>
          <line class="cls-2" x1="-.00151167" y1="4.72764878" x2="2.83587118" y2="1.89026592"/>
          <line class="cls-2" x1="-.00151167" y1="3.78185449" x2="2.83587118" y2=".94447164"/>
          <line class="cls-2" x1="-.00151167" y1="1.89026592" x2="2.83587118" y2="-.94711693"/>
          <line class="cls-2" x1="-.00151167" y1=".94447164" x2="2.83587118" y2="-1.89291121"/>
        </g>
        <g>
          <line class="cls-2" x1="-2.83615734" y1="2.83606021" x2=".00122551" y2="-.00132264"/>
          <line class="cls-2" x1="-2.83615734" y1="-.00132264" x2=".00122551" y2="-2.8387055"/>
          <line class="cls-2" x1="-2.83615734" y1="5.67344306" x2=".00122551" y2="2.83606021"/>
          <line class="cls-2" x1="-2.83615734" y1="4.72764878" x2=".00122551" y2="1.89026592"/>
          <line class="cls-2" x1="-2.83615734" y1="3.78185449" x2=".00122551" y2=".94447164"/>
          <line class="cls-2" x1="-2.83615734" y1="1.89026592" x2=".00122551" y2="-.94711693"/>
          <line class="cls-2" x1="-2.83615734" y1=".94447164" x2=".00122551" y2="-1.89291121"/>
        </g>
        <g>
          <line class="cls-2" x1="2.833134" y1=".00141454" x2="5.67051685" y2="-2.83596831"/>
          <line class="cls-2" x1="2.833134" y1="2.83879739" x2="5.67051685" y2=".00141454"/>
          <line class="cls-2" x1="2.833134" y1="1.89300311" x2="5.67051685" y2="-.94437975"/>
          <line class="cls-2" x1="2.833134" y1=".94720882" x2="5.67051685" y2="-1.89017403"/>
        </g>
        <g>
          <line class="cls-2" x1="-.00151167" y1=".00141454" x2="2.83587118" y2="-2.83596831"/>
          <line class="cls-2" x1="-.00151167" y1="2.83879739" x2="2.83587118" y2=".00141454"/>
          <line class="cls-2" x1="-.00151167" y1="1.89300311" x2="2.83587118" y2="-.94437975"/>
          <line class="cls-2" x1="-.00151167" y1=".94720882" x2="2.83587118" y2="-1.89017403"/>
        </g>
        <g>
          <line class="cls-2" x1="-2.83615734" y1=".00141454" x2=".00122551" y2="-2.83596831"/>
          <line class="cls-2" x1="-2.83615734" y1="2.83879739" x2=".00122551" y2=".00141454"/>
          <line class="cls-2" x1="-2.83615734" y1="1.89300311" x2=".00122551" y2="-.94437975"/>
          <line class="cls-2" x1="-2.83615734" y1=".94720882" x2=".00122551" y2="-1.89017403"/>
        </g>
        <line class="cls-2" x1="2.833134" y1=".00415172" x2="5.67051685" y2="-2.83323113"/>
        <line class="cls-2" x1="-.00151167" y1=".00415172" x2="2.83587118" y2="-2.83323113"/>
        <line class="cls-2" x1="-2.83615734" y1=".00415172" x2=".00122551" y2="-2.83323113"/>
      </g>
    </pattern>
  </defs>
  <rect class="cls-6" x="414.26983809" y="9.8437483" width="226.92492653" height="37.30062386"/>
  <rect class="cls-4" x="414.26983809" y="9.8437483" width="226.92492653" height="37.30062386"/>
  <g>
    <path class="cls-3" d="M388.30449873-.0000937c0,9.62475586,6.55456543,16.67480469,18.47131348,14.1171875"/>
    <polygon class="cls-5" points="404.88878828 17.55190825 404.2855168 17.10513091 406.48937422 14.13564848 403.36638838 12.15420317 403.76909834 11.52090239 407.57207685 13.93447661 404.88878828 17.55190825"/>
  </g>
</svg>