<?xml version="1.0" encoding="UTF-8"?>
<svg id="Layer_1" data-name="Layer 1" xmlns="http://www.w3.org/2000/svg" viewBox="0 0 648 36.14110365">
  <defs>
    <style>
      .cls-1 {
        stroke: #9ea7b3;
      }

      .cls-1, .cls-2 {
        fill: none;
        stroke-miterlimit: 10;
        stroke-width: .75px;
      }

      .cls-2 {
        stroke: #515b66;
      }

      .cls-3 {
        fill: #515b66;
      }

      .cls-3, .cls-4 {
        stroke-width: 0px;
      }

      .cls-4 {
        fill: #9ea7b3;
      }
    </style>
  </defs>
  <g>
    <path class="cls-4" d="M10.61370283,26.89141761c0,1.48144531-.25292969,2.58203125-.75878906,3.30175781s-1.29638672,1.08007812-2.37207031,1.08007812c-1.06201172,0-1.84814453-.3515625-2.35839844-1.05664062-.51025391-.703125-.77490234-1.75488281-.79296875-3.15429688v-1.68847656c0-1.46289062.25292969-2.54980469.75878906-3.26074219s1.29882812-1.06640625,2.37890625-1.06640625c1.07080078,0,1.859375.34277344,2.36523438,1.02929688.50585938.68554688.765625,1.74414062.77929688,3.17480469v1.640625ZM9.34905439,25.16192542c0-1.07128906-.15039062-1.8515625-.45117188-2.34179688-.30078125-.48925781-.77685547-.734375-1.42871094-.734375-.64697266,0-1.11865234.24414062-1.41503906.73144531s-.44873047,1.23730469-.45800781,2.24902344v2.0234375c0,1.07519531.15625,1.86914062.46826172,2.3828125.31201172.51171875.78515625.76855469,1.41845703.76855469.62451172,0,1.08789062-.24121094,1.39111328-.72460938s.46142578-1.24414062.47509766-2.28320312v-2.07128906Z"/>
    <path class="cls-4" d="M20.67620283,27.43829261h-2.625c.01806641.88671875.23242188,1.56835938.64257812,2.04589844s.99121094.71582031,1.74316406.71582031c.52880859,0,1.02539062-.07714844,1.49023438-.23242188l.13671875,1.09960938c-.546875.13769531-1.09375.20605469-1.640625.20605469-1.13037109,0-2.02001953-.33398438-2.66943359-1.00195312-.64941406-.66699219-.98779297-1.61132812-1.01513672-2.83300781h-1.21679688v-.84765625h1.21679688v-.93652344h-1.21679688v-.85449219h1.21679688c.04541016-1.19433594.39306641-2.11816406,1.04248047-2.77246094.64941406-.65332031,1.52783203-.98046875,2.63525391-.98046875.48291016,0,1.03222656.0703125,1.64746094.2109375l-.13671875,1.1015625c-.49658203-.15917969-.99560547-.23925781-1.49707031-.23925781-.74755859,0-1.32275391.23144531-1.72607422.6953125s-.61865234,1.125-.64599609,1.984375h2.61816406v.85449219h-2.625v.93652344h2.625v.84765625Z"/>
  </g>
  <g>
    <path class="cls-4" d="M625.94866377,25.26006995l-4.12207031,9.2421875h-1.32617188l4.10839844-8.9140625h-5.38671875v-1.0390625h6.7265625v.7109375Z"/>
    <path class="cls-4" d="M633.62542158,30.25714026c0,1.48144531-.25292969,2.58203125-.75878906,3.30175781s-1.29589844,1.08007812-2.37207031,1.08007812c-1.06152344,0-1.84765625-.3515625-2.35839844-1.05664062-.50976562-.703125-.77441406-1.75488281-.79296875-3.15429688v-1.68847656c0-1.46289062.25292969-2.54980469.75878906-3.26074219s1.29882812-1.06640625,2.37890625-1.06640625c1.07128906,0,1.859375.34277344,2.36523438,1.02929688.50585938.68554688.765625,1.74414062.77929688,3.17480469v1.640625ZM632.36077314,28.52764808c0-1.07128906-.15039062-1.8515625-.45117188-2.34179688-.30078125-.48925781-.77636719-.734375-1.42871094-.734375-.64648438,0-1.11816406.24414062-1.41503906.73144531-.29589844.48730469-.44824219,1.23730469-.45800781,2.24902344v2.0234375c0,1.07519531.15625,1.86914062.46875,2.3828125.31152344.51171875.78515625.76855469,1.41796875.76855469.625,0,1.08789062-.24121094,1.39160156-.72460938.30273438-.48339844.4609375-1.24414062.47460938-2.28320312v-2.07128906Z"/>
    <path class="cls-4" d="M643.68792158,30.80401526h-2.625c.01855469.88671875.23242188,1.56835938.64257812,2.04589844s.99121094.71582031,1.74316406.71582031c.52929688,0,1.02539062-.07714844,1.49023438-.23242188l.13671875,1.09960938c-.546875.13769531-1.09375.20605469-1.640625.20605469-1.12988281,0-2.01953125-.33398438-2.66894531-1.00195312-.64941406-.66699219-.98828125-1.61132812-1.015625-2.83300781h-1.21679688v-.84765625h1.21679688v-.93652344h-1.21679688v-.85449219h1.21679688c.04589844-1.19433594.39355469-2.11816406,1.04296875-2.77246094.64941406-.65332031,1.52734375-.98046875,2.63476562-.98046875.48339844,0,1.03222656.0703125,1.64746094.2109375l-.13671875,1.1015625c-.49609375-.15917969-.99511719-.23925781-1.49707031-.23925781-.74707031,0-1.32226562.23144531-1.72558594.6953125s-.61914062,1.125-.64648438,1.984375h2.61816406v.85449219h-2.625v.93652344h2.625v.84765625Z"/>
  </g>
  <g>
    <path class="cls-3" d="M408.22161299,30.7561637h1.12792969v1.59277344h-1.12792969v2.15332031h-1.97558594v-2.15332031h-4.08105469l-.08886719-1.24414062,4.14941406-6.55566406h1.99609375v6.20703125ZM404.04485517,30.7561637h2.20117188v-3.51367188l-.12988281.22558594-2.07128906,3.28808594Z"/>
    <path class="cls-3" d="M410.7030583,29.6077262l.57421875-5.05859375h5.578125v1.64746094h-3.95800781l-.24609375,2.13964844c.46923828-.25097656.96826172-.37597656,1.49707031-.37597656.94775391,0,1.69091797.29394531,2.22851562.88183594s.80664062,1.41015625.80664062,2.46777344c0,.64257812-.13574219,1.21777344-.40673828,1.72558594-.27099609.50878906-.65966797.90234375-1.16552734,1.18359375-.50585938.27929688-1.10302734.41992188-1.79101562.41992188-.6015625,0-1.15966797-.12207031-1.67480469-.36523438-.51513672-.24414062-.921875-.58691406-1.22021484-1.02929688s-.45703125-.9453125-.47509766-1.51074219h1.95507812c.04101562.41503906.18554688.73730469.43408203.96777344.24853516.22949219.57324219.34472656.97412109.34472656.44677734,0,.79052734-.16113281,1.03222656-.48144531.24169922-.32226562.36230469-.77636719.36230469-1.36425781,0-.56542969-.13916016-.99804688-.41699219-1.29882812s-.67236328-.45117188-1.18261719-.45117188c-.46923828,0-.85009766.12304688-1.14160156.36914062l-.19140625.17773438-1.57226562-.38964844Z"/>
    <path class="cls-3" d="M427.36223799,30.9749137h-2.29003906c.02294922.66992188.20166016,1.17382812.53662109,1.51074219s.85546875.50585938,1.56201172.50585938c.47851562,0,.91162109-.0703125,1.29882812-.21191406l.24609375,1.65429688c-.56494141.13183594-1.1484375.19824219-1.75.19824219-1.19873047,0-2.14746094-.32226562-2.84716797-.96777344-.69970703-.64453125-1.06738281-1.54101562-1.10400391-2.68945312h-1.15527344v-1.0390625h1.15527344v-.84765625h-1.15527344v-1.0390625h1.16894531c.07763672-1.1484375.47753906-2.04101562,1.19970703-2.67578125.72216797-.63671875,1.68066406-.95410156,2.87451172-.95410156.47851562,0,1.01611328.0703125,1.61328125.21191406l-.24609375,1.66113281c-.42822266-.14550781-.85009766-.21875-1.26464844-.21875-1.28955078,0-1.99609375.65820312-2.11914062,1.97558594h2.27636719v1.0390625h-2.29003906v.84765625h2.29003906v1.0390625Z"/>
  </g>
  <line class="cls-1" x1="10.33872607" y1="5.45881253" x2="10.33872607" y2="13.36467895"/>
  <line class="cls-1" x1="99.86606051" y1="5.45881253" x2="99.86606051" y2="13.36467895"/>
  <line class="cls-1" x1="189.39339494" y1="5.45881253" x2="189.39339494" y2="13.36467895"/>
  <line class="cls-1" x1="278.92072938" y1="5.45881253" x2="278.92072938" y2="13.36467895"/>
  <line class="cls-1" x1="368.44806382" y1="5.45881253" x2="368.44806382" y2="13.36467895"/>
  <line class="cls-1" x1="457.97539826" y1="5.45881253" x2="457.97539826" y2="13.36467895"/>
  <line class="cls-1" x1="547.5027327" y1="5.45881253" x2="547.5027327" y2="13.36467895"/>
  <line class="cls-1" x1="637.03006713" y1="5.45881253" x2="637.03006713" y2="13.36467895"/>
  <line class="cls-2" x1="414.15219127" y1="5.45881253" x2="414.15219127" y2="13.36467895"/>
</svg>