<?xml version="1.0" encoding="UTF-8"?>
<svg id="Layer_1" data-name="Layer 1" xmlns="http://www.w3.org/2000/svg" viewBox="0 0 440 61.74105206">
  <defs>
    <style>
      .cls-1 {
        stroke: #9ea7b3;
      }

      .cls-1, .cls-2 {
        fill: none;
        stroke-miterlimit: 10;
        stroke-width: .75px;
      }

      .cls-2 {
        stroke: #515b66;
      }

      .cls-3 {
        fill: #515b66;
      }

      .cls-3, .cls-4 {
        stroke-width: 0px;
      }

      .cls-4 {
        fill: #9ea7b3;
      }
    </style>
  </defs>
  <g>
    <path class="cls-4" d="M9.36072222,25.98223792c0,1.79785156-.30712891,3.13476562-.92138672,4.00878906s-1.57421875,1.31152344-2.88037109,1.31152344c-1.28955078,0-2.24414062-.42773438-2.86376953-1.28222656-.61962891-.85546875-.94091797-2.13183594-.96289062-3.83105469v-2.05078125c0-1.77539062.30712891-3.09570312.92138672-3.95898438s1.57714844-1.29492188,2.88867188-1.29492188c1.30029297,0,2.2578125.41601562,2.87207031,1.24902344s.9296875,2.11816406.94628906,3.85644531v1.9921875ZM7.82507769,23.88165198c0-1.30078125-.18261719-2.24804688-.54785156-2.84277344s-.94335938-.89257812-1.73486328-.89257812c-.78564453,0-1.35839844.29589844-1.71826172.88867188-.35986328.59179688-.54492188,1.50195312-.55615234,2.73046875v2.45703125c0,1.30566406.18945312,2.27050781.56835938,2.89257812.37939453.62304688.95361328.93359375,1.72265625.93359375.75830078,0,1.32128906-.29296875,1.68945312-.87890625.36767578-.58691406.56005859-1.51171875.57666016-2.7734375v-2.51464844Z"/>
    <path class="cls-4" d="M21.57947222,26.64630042h-3.1875c.02197266,1.07617188.28222656,1.90429688.78027344,2.48339844.49804688.58007812,1.20361328.87011719,2.11669922.87011719.64208984,0,1.24511719-.09472656,1.80957031-.28320312l.16601562,1.33496094c-.6640625.16699219-1.328125.25097656-1.9921875.25097656-1.37255859,0-2.453125-.40527344-3.24121094-1.21582031-.7890625-.81054688-1.19970703-1.95800781-1.23291016-3.44042969h-1.47753906v-1.02929688h1.47753906v-1.13769531h-1.47753906v-1.03808594h1.47753906c.05517578-1.44921875.47705078-2.57128906,1.26611328-3.36523438.78808594-.79394531,1.85498047-1.19140625,3.19970703-1.19140625.58642578,0,1.25341797.08496094,2.00048828.25585938l-.16601562,1.33789062c-.60302734-.19335938-1.20898438-.29101562-1.81787109-.29101562-.90771484,0-1.60595703.28222656-2.09619141.84570312-.48925781.5625-.75097656,1.36523438-.78417969,2.40820312h3.17919922v1.03808594h-3.1875v1.13769531h3.1875v1.02929688Z"/>
  </g>
  <g>
    <path class="cls-4" d="M414.49695269,23.2796012l-5.00537109,11.22265625h-1.61035156l4.98876953-10.82421875h-6.54101562v-1.26171875h8.16796875v.86328125Z"/>
    <path class="cls-4" d="M423.81873004,29.34796058c0,1.79785156-.30712891,3.13476562-.92138672,4.00878906s-1.57421875,1.31152344-2.88037109,1.31152344c-1.28955078,0-2.24414062-.42773438-2.86376953-1.28222656-.61962891-.85546875-.94091797-2.13183594-.96289062-3.83105469v-2.05078125c0-1.77539062.30712891-3.09570312.92138672-3.95898438s1.57714844-1.29492188,2.88867188-1.29492188c1.30029297,0,2.2578125.41601562,2.87207031,1.24902344s.9296875,2.11816406.94628906,3.85644531v1.9921875ZM422.2830855,27.24737464c0-1.30078125-.18261719-2.24804688-.54785156-2.84277344s-.94335938-.89257812-1.73486328-.89257812c-.78564453,0-1.35839844.29589844-1.71826172.88867188-.35986328.59179688-.54492188,1.50195312-.55615234,2.73046875v2.45703125c0,1.30566406.18945312,2.27050781.56835938,2.89257812.37939453.62304688.95361328.93359375,1.72265625.93359375.75830078,0,1.32128906-.29296875,1.68945312-.87890625.36767578-.58691406.56005859-1.51171875.57666016-2.7734375v-2.51464844Z"/>
    <path class="cls-4" d="M436.03748004,30.01202308h-3.1875c.02197266,1.07617188.28222656,1.90429688.78027344,2.48339844.49804688.58007812,1.20361328.87011719,2.11669922.87011719.64208984,0,1.24511719-.09472656,1.80957031-.28320312l.16601562,1.33496094c-.6640625.16699219-1.328125.25097656-1.9921875.25097656-1.37255859,0-2.453125-.40527344-3.24121094-1.21582031-.7890625-.81054688-1.19970703-1.95800781-1.23291016-3.44042969h-1.47753906v-1.02929688h1.47753906v-1.13769531h-1.47753906v-1.03808594h1.47753906c.05517578-1.44921875.47705078-2.57128906,1.26611328-3.36523438.78808594-.79394531,1.85498047-1.19140625,3.19970703-1.19140625.58642578,0,1.25341797.08496094,2.00048828.25585938l-.16601562,1.33789062c-.60302734-.19335938-1.20898438-.29101562-1.81787109-.29101562-.90771484,0-1.60595703.28222656-2.09619141.84570312-.48925781.5625-.75097656,1.36523438-.78417969,2.40820312h3.17919922v1.03808594h-3.1875v1.13769531h3.1875v1.02929688Z"/>
  </g>
  <g>
    <path class="cls-3" d="M277.71228472,29.95342933h1.36962891v1.93359375h-1.36962891v2.61523438h-2.39892578v-2.61523438h-4.95556641l-.10791016-1.50976562,5.03857422-7.9609375h2.42382812v7.53710938ZM272.64050738,29.95342933h2.67285156v-4.26660156l-.15771484.27441406-2.51513672,3.9921875Z"/>
    <path class="cls-3" d="M280.72546832,28.55889808l.69726562-6.14257812h6.7734375v2h-4.80615234l-.29882812,2.59863281c.56982422-.3046875,1.17578125-.45605469,1.81787109-.45605469,1.15087891,0,2.05322266.35644531,2.70605469,1.0703125s.97949219,1.71289062.97949219,2.99609375c0,.78125-.16455078,1.47949219-.49414062,2.09667969-.32910156.6171875-.80078125,1.09570312-1.41503906,1.43554688-.61425781.34082031-1.33935547.51074219-2.17480469.51074219-.73046875,0-1.40820312-.1484375-2.03369141-.44433594s-1.11914062-.71191406-1.48193359-1.24902344c-.36230469-.53710938-.5546875-1.1484375-.57666016-1.83398438h2.37402344c.04980469.50292969.22558594.89453125.52685547,1.17382812.30175781.27929688.69628906.41992188,1.18310547.41992188.54248047,0,.95996094-.1953125,1.25341797-.5859375.29345703-.38964844.43994141-.94140625.43994141-1.65625,0-.68554688-.16894531-1.2109375-.50634766-1.57617188s-.81640625-.54882812-1.43603516-.54882812c-.56982422,0-1.03222656.15039062-1.38623047.44921875l-.23242188.21484375-1.90917969-.47265625Z"/>
    <path class="cls-3" d="M300.95447222,30.21905433h-2.78076172c.02783203.81347656.24462891,1.42480469.65185547,1.83398438.40625.41015625,1.03857422.61523438,1.89648438.61523438.58105469,0,1.10693359-.0859375,1.57714844-.2578125l.29882812,2.00878906c-.68603516.16015625-1.39453125.24121094-2.125.24121094-1.45556641,0-2.60791016-.39160156-3.45703125-1.17480469-.84960938-.78320312-1.29638672-1.87207031-1.34082031-3.26660156h-1.40283203v-1.26171875h1.40283203v-1.02929688h-1.40283203v-1.26171875h1.41943359c.09423828-1.39453125.57958984-2.47753906,1.45703125-3.25.87695312-.77148438,2.04052734-1.15820312,3.49023438-1.15820312.58105469,0,1.23388672.0859375,1.95898438.2578125l-.29882812,2.01757812c-.52001953-.17773438-1.03222656-.265625-1.53564453-.265625-1.56591797,0-2.42382812.79882812-2.57324219,2.3984375h2.76416016v1.26171875h-2.78076172v1.02929688h2.78076172v1.26171875Z"/>
  </g>
  <line class="cls-1" x1="3.14878191" y1="5.45881253" x2="3.14878191" y2="13.36467895"/>
  <line class="cls-1" x1="64.93636454" y1="5.45881253" x2="64.93636454" y2="13.36467895"/>
  <line class="cls-1" x1="126.72394717" y1="5.45881253" x2="126.72394717" y2="13.36467895"/>
  <line class="cls-1" x1="188.51152979" y1="5.45881253" x2="188.51152979" y2="13.36467895"/>
  <line class="cls-1" x1="250.29911242" y1="5.45881253" x2="250.29911242" y2="13.36467895"/>
  <line class="cls-1" x1="312.08669505" y1="5.45881253" x2="312.08669505" y2="13.36467895"/>
  <line class="cls-1" x1="373.87427767" y1="5.45881253" x2="373.87427767" y2="13.36467895"/>
  <line class="cls-1" x1="435.6618603" y1="5.45881253" x2="435.6618603" y2="13.36467895"/>
  <line class="cls-2" x1="281.84196544" y1="5.45881253" x2="281.84196544" y2="13.36467895"/>
</svg>