<?xml version="1.0" encoding="UTF-8"?>
<svg id="Layer_1" data-name="Layer 1" xmlns="http://www.w3.org/2000/svg" viewBox="0 0 647.999999999999091 36.14110364545013">
  <defs>
    <style>
      .cls-1 {
        fill: #9ea7b3;
      }

      .cls-2 {
        fill: none;
        stroke: #9ea7b3;
        stroke-miterlimit: 10;
        stroke-width: .75px;
      }
    </style>
  </defs>
  <g>
    <path class="cls-1" d="M10.600030955710281,25.367003545639818v1.517578125c0,1.6318359375-.28125,2.7705078125-.84423828125,3.41796875s-1.3271484375.970703125-2.29345703125.970703125c-.95263671875,0-1.7158203125-.3232421875-2.2900390625-.970703125s-.861328125-1.7861328125-.861328125-3.41796875v-1.517578125c0-1.626953125.28466796875-2.75390625.8544921875-3.380859375.56982421875-.6259765625,1.33056640625-.939453125,2.283203125-.939453125.96630859375,0,1.73291015625.3134765625,2.30029296875.939453125.5673828125.626953125.85107421875,1.75390625.85107421875,3.380859375ZM9.328546580710281,27.089659795639818v-1.9345703125c0-1.12109375-.15966796875-1.9140625-.478515625-2.37890625s-.7861328125-.697265625-1.4013671875-.697265625c-.6015625,0-1.06298828125.232421875-1.38427734375.697265625s-.48193359375,1.2578125-.48193359375,2.37890625v1.9345703125c0,1.1123046875.1630859375,1.9140625.48876953125,2.40625s.78955078125.73828125,1.39111328125.73828125c.61962890625,0,1.0859375-.24609375,1.39794921875-.73828125s.46826171875-1.2939453125.46826171875-2.40625Z"/>
    <path class="cls-1" d="M22.063898143210281,31.068175420639818c-.53759765625.13671875-1.08447265625.205078125-1.640625.205078125-1.07080078125,0-1.9482421875-.3203125-2.6318359375-.9609375-.68359375-.6396484375-1.03662109375-1.6005859375-1.0595703125-2.880859375h-1.216796875v-.84765625h1.216796875v-.9296875h-1.216796875v-.8544921875h1.2236328125c.041015625-1.2490234375.39990234375-2.1865234375,1.07666015625-2.8134765625.6767578125-.6259765625,1.5439453125-.939453125,2.60107421875-.939453125.287109375,0,.56396484375.01953125.83056640625.05859375.2666015625.0380859375.5390625.08984375.81689453125.1533203125l-.13671875,1.1005859375c-.22314453125-.0732421875-.46240234375-.130859375-.7177734375-.173828125-.25537109375-.0439453125-.51513671875-.0654296875-.779296875-.0654296875-.70166015625,0-1.2646484375.21875-1.6884765625.65625s-.65185546875,1.1123046875-.68359375,2.0234375h2.6181640625v.8544921875h-2.625v.9296875h2.625v.84765625h-2.625c.01806640625.943359375.24267578125,1.6416015625.67333984375,2.095703125.4306640625.453125,1.00146484375.6796875,1.71240234375.6796875.51953125,0,1.01611328125-.0771484375,1.490234375-.232421875l.13671875,1.09375Z"/>
  </g>
  <g>
    <path class="cls-1" d="M615.783624705710281,24.494444951889818v10.0078125h-1.2646484375v-8.4287109375l-2.5498046875.9296875v-1.1416015625l3.6162109375-1.3671875h.1982421875Z"/>
    <path class="cls-1" d="M626.017023143210281,33.463194951889818v1.0390625h-6.5146484375v-.9091796875l3.2607421875-3.6298828125c.6015625-.669921875,1.00732421875-1.197265625,1.216796875-1.58203125.20947265625-.3857421875.314453125-.771484375.314453125-1.1591796875,0-.4873046875-.1513671875-.904296875-.45458984375-1.2509765625s-.73046875-.51953125-1.28173828125-.51953125c-.66552734375,0-1.162109375.189453125-1.490234375.5673828125s-.4921875.86328125-.4921875,1.4560546875h-1.2646484375c0-.8388671875.27587890625-1.55859375.8271484375-2.16015625s1.35791015625-.90234375,2.419921875-.90234375c.93896484375,0,1.673828125.244140625,2.20458984375.7314453125s.79638671875,1.1298828125.79638671875,1.927734375c0,.587890625-.18359375,1.1806640625-.55029296875,1.77734375s-.8056640625,1.1708984375-1.31591796875,1.72265625l-2.666015625,2.8916015625h4.990234375Z"/>
    <path class="cls-1" d="M633.611749705710281,28.732726201889818v1.517578125c0,1.6318359375-.28125,2.7705078125-.84423828125,3.41796875s-1.3271484375.970703125-2.29345703125.970703125c-.95263671875,0-1.7158203125-.3232421875-2.2900390625-.970703125s-.861328125-1.7861328125-.861328125-3.41796875v-1.517578125c0-1.626953125.28466796875-2.75390625.8544921875-3.380859375.56982421875-.6259765625,1.33056640625-.939453125,2.283203125-.939453125.96630859375,0,1.73291015625.3134765625,2.30029296875.939453125.5673828125.626953125.85107421875,1.75390625.85107421875,3.380859375ZM632.340265330710281,30.455382451889818v-1.9345703125c0-1.12109375-.15966796875-1.9140625-.478515625-2.37890625s-.7861328125-.697265625-1.4013671875-.697265625c-.6015625,0-1.06298828125.232421875-1.38427734375.697265625s-.48193359375,1.2578125-.48193359375,2.37890625v1.9345703125c0,1.1123046875.1630859375,1.9140625.48876953125,2.40625s.78955078125.73828125,1.39111328125.73828125c.61962890625,0,1.0859375-.24609375,1.39794921875-.73828125s.46826171875-1.2939453125.46826171875-2.40625Z"/>
    <path class="cls-1" d="M645.075616893210281,34.433898076889818c-.53759765625.13671875-1.08447265625.205078125-1.640625.205078125-1.07080078125,0-1.9482421875-.3203125-2.6318359375-.9609375-.68359375-.6396484375-1.03662109375-1.6005859375-1.0595703125-2.880859375h-1.216796875v-.84765625h1.216796875v-.9296875h-1.216796875v-.8544921875h1.2236328125c.041015625-1.2490234375.39990234375-2.1865234375,1.07666015625-2.8134765625.6767578125-.6259765625,1.5439453125-.939453125,2.60107421875-.939453125.287109375,0,.56396484375.01953125.83056640625.05859375.2666015625.0380859375.5390625.08984375.81689453125.1533203125l-.13671875,1.1005859375c-.22314453125-.0732421875-.46240234375-.130859375-.7177734375-.173828125-.25537109375-.0439453125-.51513671875-.0654296875-.779296875-.0654296875-.70166015625,0-1.2646484375.21875-1.6884765625.65625s-.65185546875,1.1123046875-.68359375,2.0234375h2.6181640625v.8544921875h-2.625v.9296875h2.625v.84765625h-2.625c.01806640625.943359375.24267578125,1.6416015625.67333984375,2.095703125.4306640625.453125,1.00146484375.6796875,1.71240234375.6796875.51953125,0,1.01611328125-.0771484375,1.490234375-.232421875l.13671875,1.09375Z"/>
  </g>
  <line class="cls-2" x1="10.338726069161567" y1="5.458812529799616" x2="10.338726069161567" y2="13.364678952229951"/>
  <line class="cls-2" x1="114.78728291310199" y1="5.458812529799616" x2="114.78728291310199" y2="13.364678952229951"/>
  <line class="cls-2" x1="219.235839757041504" y1="5.458812529799616" x2="219.235839757041504" y2="13.364678952229951"/>
  <line class="cls-2" x1="323.684396600981927" y1="5.458812529799616" x2="323.684396600981927" y2="13.364678952229951"/>
  <line class="cls-2" x1="428.13295344492235" y1="5.458812529799616" x2="428.13295344492235" y2="13.364678952229951"/>
  <line class="cls-2" x1="532.581510288862773" y1="5.458812529799616" x2="532.581510288862773" y2="13.364678952229951"/>
  <line class="cls-2" x1="637.030067132803197" y1="5.458812529799616" x2="637.030067132803197" y2="13.364678952229951"/>
</svg>