<?xml version="1.0" encoding="UTF-8"?>
<svg id="Layer_1" data-name="Layer 1" xmlns="http://www.w3.org/2000/svg" viewBox="0 0 440 61.7410520609792">
  <defs>
    <style>
      .cls-1 {
        fill: #9ea7b3;
      }

      .cls-2 {
        fill: none;
        stroke: #9ea7b3;
        stroke-miterlimit: 10;
        stroke-width: .75px;
      }
    </style>
  </defs>
  <g>
    <path class="cls-1" d="M9.344120660049157,24.130675420639818v1.8427734375c0,1.9814453125-.341796875,3.3642578125-1.02490234375,4.150390625-.68359375.7861328125-1.61181640625,1.1787109375-2.78515625,1.1787109375-1.15673828125,0-2.08349609375-.392578125-2.78076171875-1.1787109375s-1.0458984375-2.1689453125-1.0458984375-4.150390625v-1.8427734375c0-1.9755859375.345703125-3.34375,1.03759765625-4.1044921875s1.61572265625-1.1416015625,2.7724609375-1.1416015625c1.17333984375,0,2.1044921875.380859375,2.79296875,1.1416015625.689453125.7607421875,1.03369140625,2.12890625,1.03369140625,4.1044921875ZM7.800175347549157,26.222472295639818v-2.349609375c0-1.361328125-.19384765625-2.32421875-.5810546875-2.888671875s-.95458984375-.845703125-1.70166015625-.845703125c-.73046875,0-1.291015625.28125-1.6806640625.845703125-.390625.564453125-.58544921875,1.52734375-.58544921875,2.888671875v2.349609375c0,1.3505859375.19775390625,2.32421875.59326171875,2.921875.39599609375.59765625.958984375.896484375,1.689453125.896484375.75244140625,0,1.318359375-.298828125,1.697265625-.896484375.37939453125-.59765625.56884765625-1.5712890625.56884765625-2.921875Z"/>
    <path class="cls-1" d="M23.264530816299157,31.053526983139818c-.65283203125.166015625-1.31689453125.2490234375-1.9921875.2490234375-1.30029296875,0-2.36572265625-.388671875-3.19580078125-1.166015625s-1.2587890625-1.9443359375-1.28662109375-3.4990234375h-1.4775390625v-1.029296875h1.4775390625v-1.12890625h-1.4775390625v-1.0380859375h1.48583984375c.0498046875-1.515625.4853515625-2.654296875,1.3076171875-3.4150390625.8212890625-.7607421875,1.87451171875-1.1416015625,3.158203125-1.1416015625.3486328125,0,.6845703125.0234375,1.0087890625.0703125.3232421875.046875.654296875.109375.99169921875.1875l-.166015625,1.3359375c-.27099609375-.0888671875-.5615234375-.1591796875-.87158203125-.2119140625s-.62548828125-.0791015625-.9462890625-.0791015625c-.85205078125,0-1.53564453125.265625-2.05029296875.796875s-.79150390625,1.3505859375-.830078125,2.45703125h3.17919921875v1.0380859375h-3.1875v1.12890625h3.1875v1.029296875h-3.1875c.02197265625,1.1455078125.294921875,1.9931640625.8173828125,2.5439453125.5234375.55078125,1.21630859375.826171875,2.07958984375.826171875.630859375,0,1.23388671875-.09375,1.8095703125-.2822265625l.166015625,1.328125Z"/>
  </g>
  <g>
    <path class="cls-1" d="M402.153690972549157,22.349913701889818v12.15234375h-1.53564453125v-10.234375l-3.09619140625,1.12890625v-1.38671875l4.39111328125-1.66015625h.24072265625Z"/>
    <path class="cls-1" d="M414.579960503799157,33.240538701889818v1.26171875h-7.91064453125v-1.103515625l3.95947265625-4.408203125c.73046875-.8134765625,1.22314453125-1.4541015625,1.4775390625-1.921875s.3818359375-.9365234375.3818359375-1.40625c0-.5927734375-.18408203125-1.0986328125-.55224609375-1.51953125-.36767578125-.4208984375-.88671875-.630859375-1.55615234375-.630859375-.80810546875,0-1.4111328125.2294921875-1.8095703125.689453125-.3984375.458984375-.59765625,1.0478515625-.59765625,1.767578125h-1.53564453125c0-1.0185546875.3349609375-1.892578125,1.00439453125-2.623046875s1.64892578125-1.095703125,2.9384765625-1.095703125c1.14013671875,0,2.0322265625.2958984375,2.67724609375.888671875.64453125.591796875.966796875,1.3720703125.966796875,2.33984375,0,.71484375-.22265625,1.43359375-.66796875,2.158203125-.44580078125.7255859375-.978515625,1.4228515625-1.59814453125,2.091796875l-3.2373046875,3.51171875h6.0595703125Z"/>
    <path class="cls-1" d="M423.802128472549157,27.496398076889818v1.8427734375c0,1.9814453125-.341796875,3.3642578125-1.02490234375,4.150390625-.68359375.7861328125-1.61181640625,1.1787109375-2.78515625,1.1787109375-1.15673828125,0-2.08349609375-.392578125-2.78076171875-1.1787109375s-1.0458984375-2.1689453125-1.0458984375-4.150390625v-1.8427734375c0-1.9755859375.345703125-3.34375,1.03759765625-4.1044921875s1.61572265625-1.1416015625,2.7724609375-1.1416015625c1.17333984375,0,2.1044921875.380859375,2.79296875,1.1416015625.689453125.7607421875,1.03369140625,2.12890625,1.03369140625,4.1044921875ZM422.258183160049157,29.588194951889818v-2.349609375c0-1.361328125-.19384765625-2.32421875-.5810546875-2.888671875s-.95458984375-.845703125-1.70166015625-.845703125c-.73046875,0-1.291015625.28125-1.6806640625.845703125-.390625.564453125-.58544921875,1.52734375-.58544921875,2.888671875v2.349609375c0,1.3505859375.19775390625,2.32421875.59326171875,2.921875.39599609375.59765625.958984375.896484375,1.689453125.896484375.75244140625,0,1.318359375-.298828125,1.697265625-.896484375.37939453125-.59765625.56884765625-1.5712890625.56884765625-2.921875Z"/>
    <path class="cls-1" d="M437.722538628799157,34.419249639389818c-.65283203125.166015625-1.31689453125.2490234375-1.9921875.2490234375-1.30029296875,0-2.36572265625-.388671875-3.19580078125-1.166015625s-1.2587890625-1.9443359375-1.28662109375-3.4990234375h-1.4775390625v-1.029296875h1.4775390625v-1.12890625h-1.4775390625v-1.0380859375h1.48583984375c.0498046875-1.515625.4853515625-2.654296875,1.3076171875-3.4150390625.8212890625-.7607421875,1.87451171875-1.1416015625,3.158203125-1.1416015625.3486328125,0,.6845703125.0234375,1.0087890625.0703125.3232421875.046875.654296875.109375.99169921875.1875l-.166015625,1.3359375c-.27099609375-.0888671875-.5615234375-.1591796875-.87158203125-.2119140625s-.62548828125-.0791015625-.9462890625-.0791015625c-.85205078125,0-1.53564453125.265625-2.05029296875.796875s-.79150390625,1.3505859375-.830078125,2.45703125h3.17919921875v1.0380859375h-3.1875v1.12890625h3.1875v1.029296875h-3.1875c.02197265625,1.1455078125.294921875,1.9931640625.8173828125,2.5439453125.5234375.55078125,1.21630859375.826171875,2.07958984375.826171875.630859375,0,1.23388671875-.09375,1.8095703125-.2822265625l.166015625,1.328125Z"/>
  </g>
  <line class="cls-2" x1="3.148781914351275" y1="5.458812529799616" x2="3.148781914351275" y2="13.364678952229951"/>
  <line class="cls-2" x1="75.234294978810794" y1="5.458812529799616" x2="75.234294978810794" y2="13.364678952229951"/>
  <line class="cls-2" x1="147.319808043270314" y1="5.458812529799616" x2="147.319808043270314" y2="13.364678952229951"/>
  <line class="cls-2" x1="219.405321107729833" y1="5.458812529799616" x2="219.405321107729833" y2="13.364678952229951"/>
  <line class="cls-2" x1="291.490834172189352" y1="5.458812529799616" x2="291.490834172189352" y2="13.364678952229951"/>
  <line class="cls-2" x1="363.576347236648871" y1="5.458812529799616" x2="363.576347236648871" y2="13.364678952229951"/>
  <line class="cls-2" x1="435.661860301108391" y1="5.458812529799616" x2="435.661860301108391" y2="13.364678952229951"/>
</svg>