<?xml version="1.0" encoding="UTF-8"?>
<svg id="Layer_1" data-name="Layer 1" xmlns="http://www.w3.org/2000/svg" viewBox="0 0 660 321">
  <defs>
    <style>
      .cls-1 {
        fill: none;
        stroke: #666;
      }

      .cls-1, .cls-2, .cls-3 {
        stroke-miterlimit: 10;
        stroke-width: .75px;
      }

      .cls-2 {
        stroke: gray;
      }

      .cls-2, .cls-3 {
        fill: #fff;
      }

      .cls-3 {
        stroke: #333;
      }

      .cls-4 {
        fill: #f2f2f2;
      }

      .cls-4, .cls-5, .cls-6, .cls-7 {
        stroke-width: 0px;
      }

      .cls-5 {
        fill: #4d4d4d;
      }

      .cls-6 {
        fill: #b3b3b3;
      }

      .cls-7 {
        fill: #666;
      }
    </style>
  </defs>
  <polygon class="cls-4" points="420.0075 245 130.6066 245 233.627 142.766 523.028 142.766 420.0075 245"/>
  <g>
    <line class="cls-1" x1="317.1866" y1="193.1013" x2="45.5033" y2="193.1013"/>
    <polygon class="cls-7" points="314.7015 190.0339 314.1899 190.5833 316.8988 193.1006 314.1899 195.6187 314.7015 196.168 318 193.1006 314.7015 190.0339"/>
    <polygon class="cls-7" points="47.9884 190.0339 48.5 190.5833 45.7911 193.1006 48.5 195.6187 47.9884 196.168 44.6899 193.1006 47.9884 190.0339"/>
  </g>
  <g>
    <line class="cls-1" x1="608.1866" y1="193.1013" x2="336.5032" y2="193.1013"/>
    <polygon class="cls-7" points="605.7015 190.0339 605.1899 190.5833 607.8988 193.1006 605.1899 195.6187 605.7015 196.168 609 193.1006 605.7015 190.0339"/>
    <polygon class="cls-7" points="338.9884 190.0339 339.5 190.5833 336.7911 193.1006 339.5 195.6187 338.9884 196.168 335.6899 193.1006 338.9884 190.0339"/>
  </g>
  <g>
    <line class="cls-1" x1="425.8914" y1="96.0417" x2="336.5417" y2="185.3914"/>
    <polygon class="cls-7" points="421.9652 95.63 421.9919 96.3802 425.6873 96.2448 425.5525 99.9407 426.3026 99.9674 426.466 95.4661 421.9652 95.63"/>
    <polygon class="cls-7" points="336.13 181.4652 336.8802 181.4919 336.7447 185.1874 340.4407 185.0524 340.4674 185.8026 335.966 185.9661 336.13 181.4652"/>
  </g>
  <g>
    <line class="cls-1" x1="321.2977" y1="199.448" x2="230.2252" y2="290.5205"/>
    <polygon class="cls-7" points="317.3715 199.0363 317.3982 199.7865 321.0937 199.6511 320.9588 203.347 321.709 203.3737 321.8724 198.8724 317.3715 199.0363"/>
    <polygon class="cls-7" points="229.8135 286.5943 230.5637 286.621 230.4282 290.3165 234.1243 290.1816 234.1509 290.9318 229.6496 291.0952 229.8135 286.5943"/>
  </g>
  <g id="wind-turbine">
    <g id="tower">
      <path class="cls-2" d="m38.4969,146.848h-1.9528l-.9752,46.2687c0,.4878.87.8833,1.9432.8833s1.9432-.3955,1.9432-.8833l-.9584-46.2687Z"/>
      <path class="cls-2" d="m36.9649,142.2581h1.2781c.908,0,1.6452.7372,1.6452,1.6452v3.9952c0,.4752-.3858.8609-.8609.8609h-2.8467c-.4752,0-.8609-.3858-.8609-.8609v-3.9952c0-.908.7372-1.6452,1.6452-1.6452Z"/>
    </g>
    <g id="blades">
      <path class="cls-2" d="m37.0504,144.595v-14.5135l.2393-16.3921c.0041-.2816.1648-.5374.4167-.6633h0c.1564-.0782.3422.0273.3552.2017l1.7028,22.9307c.0762,1.0262-.0079,2.0579-.2494,3.0582l-1.3576,5.6242-1.107-.246Z"/>
      <path class="cls-2" d="m38.3646,144.8104l12.6185,7.1703,14.1336,8.3064c.2428.1427.3858.4088.3709.69h0c-.0093.1746-.1928.284-.3508.2091l-20.7781-9.8483c-.9298-.4407-1.7853-1.0236-2.5357-1.7277l-4.2192-3.9589.7608-.8409Z"/>
      <path class="cls-2" d="m37.391,145.8708l-12.569,7.2567-14.3156,7.9888c-.2459.1372-.5478.126-.7828-.0292h0c-.1459-.0964-.1475-.31-.0029-.4084l19.0072-12.94c.8506-.5791,1.7862-1.0221,2.7732-1.3131l5.5495-1.6364.3404,1.0816Z"/>
    </g>
    <circle id="centre" class="cls-2" cx="37.6091" cy="145.1466" r="1.4163"/>
  </g>
  <g id="wind-turbine-2" data-name="wind-turbine">
    <g id="tower-2" data-name="tower">
      <path class="cls-3" d="m328.4969,146.848h-1.9528l-.9752,46.2687c0,.4878.87.8833,1.9432.8833s1.9432-.3955,1.9432-.8833l-.9584-46.2687Z"/>
      <path class="cls-3" d="m326.9649,142.2581h1.2781c.908,0,1.6452.7372,1.6452,1.6452v3.9952c0,.4752-.3858.8609-.8609.8609h-2.8467c-.4752,0-.8609-.3858-.8609-.8609v-3.9952c0-.908.7372-1.6452,1.6452-1.6452Z"/>
    </g>
    <g id="blades-2" data-name="blades">
      <path class="cls-3" d="m327.0504,144.595v-14.5135l.2393-16.3921c.0041-.2816.1648-.5374.4167-.6633h0c.1564-.0782.3422.0273.3552.2017l1.7028,22.9307c.0762,1.0262-.0079,2.0579-.2494,3.0582l-1.3576,5.6242-1.107-.246Z"/>
      <path class="cls-3" d="m328.3646,144.8104l12.6185,7.1703,14.1336,8.3064c.2428.1427.3858.4088.3709.69h0c-.0093.1746-.1928.284-.3508.2091l-20.7781-9.8483c-.9298-.4407-1.7853-1.0236-2.5357-1.7277l-4.2192-3.9589.7608-.8409Z"/>
      <path class="cls-3" d="m327.391,145.8708l-12.569,7.2567-14.3156,7.9888c-.2459.1372-.5478.126-.7828-.0292h0c-.1459-.0964-.1475-.31-.0029-.4084l19.0072-12.94c.8506-.5791,1.7862-1.0221,2.7732-1.3131l5.5495-1.6364.3404,1.0816Z"/>
    </g>
    <circle id="centre-2" data-name="centre" class="cls-3" cx="327.6091" cy="145.1466" r="1.4163"/>
  </g>
  <g>
    <path class="cls-6" d="m460.4829,133.8906c0,.8027-.1841,1.4512-.5518,1.9434-.3677.4902-.8657.7363-1.4941.7363-.6411,0-1.146-.2031-1.5137-.6094v2.543h-.9033v-7.3145h.8252l.0439.5859c.3677-.4551.8789-.6836,1.5332-.6836.6348,0,1.1367.2402,1.5063.7188s.5542,1.1445.5542,1.9961v.084Zm-.9033-.1035c0-.5957-.127-1.0664-.3809-1.4102-.2539-.3457-.6021-.5176-1.0449-.5176-.5469,0-.957.2422-1.2305.7266v2.5254c.27.4805.6836.7227,1.2402.7227.4331,0,.7773-.1719,1.0327-.5156s.3833-.8535.3833-1.5312Z"/>
    <path class="cls-6" d="m462.6118,136.4727h-.9033v-7.5h.9033v7.5Z"/>
    <path class="cls-6" d="m463.8179,133.7832c0-.5176.1016-.9844.3052-1.3965.2036-.4141.4868-.7324.8496-.957s.7773-.3379,1.2427-.3379c.7192,0,1.3013.25,1.7456.748s.6665,1.1602.6665,1.9863v.0645c0,.5137-.0986.9746-.2954,1.3828-.1968.4102-.4785.7285-.8447.9551-.3662.2285-.7871.3418-1.2622.3418-.7163,0-1.2964-.248-1.7407-.7461s-.6665-1.1582-.6665-1.9785v-.0625Zm.9082.1074c0,.5859.1357,1.0566.4077,1.4102.272.3555.6357.5332,1.0913.5332.459,0,.8237-.1797,1.0938-.541.27-.3594.4053-.8633.4053-1.5098,0-.5801-.1377-1.0488-.4126-1.4102-.2749-.3594-.6406-.5391-1.0962-.5391-.4458,0-.8057.1777-1.0791.5332-.2734.3535-.4102.8613-.4102,1.5234Z"/>
    <path class="cls-6" d="m471.8794,135.834c.3223,0,.604-.0977.8447-.293s.3745-.4395.4004-.7324h.8545c-.0161.3027-.1206.5898-.3125.8633s-.4482.4922-.769.6543c-.3208.1641-.6602.2441-1.0181.2441-.7192,0-1.2915-.2402-1.7163-.7207-.4248-.4785-.6372-1.1367-.6372-1.9688v-.1523c0-.5137.0942-.9707.2832-1.3711s.46-.7109.813-.9336c.353-.2207.7705-.332,1.2524-.332.5923,0,1.085.1777,1.4771.5332.3921.3535.6016.8145.6274,1.3809h-.8545c-.0259-.3418-.1553-.623-.3882-.8418-.2329-.2207-.52-.3301-.8618-.3301-.459,0-.8145.166-1.0669.4961s-.3784.8086-.3784,1.4336v.1699c0,.6094.1255,1.0781.376,1.4062.2505.3301.6089.4941,1.0742.4941Z"/>
    <path class="cls-6" d="m475.8979,131.8301c.4004-.4922.9214-.7383,1.5625-.7383,1.1167,0,1.6797.6309,1.6895,1.8906v3.4902h-.9033v-3.4961c-.0034-.3809-.0903-.6621-.2612-.8438-.1709-.1836-.437-.2734-.7983-.2734-.293,0-.5503.0781-.7715.2344s-.394.3613-.5176.6152v3.7637h-.9033v-7.5h.9033v2.8574Z"/>
    <path class="cls-6" d="m483.7642,136.4727c-.0522-.1035-.0942-.2891-.127-.5566-.4199.4375-.9214.6543-1.5039.6543-.521,0-.9482-.1465-1.2817-.4414s-.5005-.668-.5005-1.1211c0-.5488.209-.9766.6274-1.2812s1.0068-.457,1.7651-.457h.8789v-.4141c0-.3164-.0942-.5684-.2832-.7559-.189-.1855-.4673-.2793-.835-.2793-.3223,0-.5923.0801-.8105.2441-.2183.1621-.3271.3594-.3271.5898h-.9082c0-.2637.0938-.5176.2808-.7637s.4409-.4395.7617-.584c.3208-.1426.6729-.2148,1.0571-.2148.6089,0,1.0854.1523,1.4307.457s.5239.7227.5371,1.2578v2.4316c0,.4844.062.8711.1855,1.1562v.0781h-.9473Zm-1.499-.6875c.2832,0,.5518-.0742.8057-.2207s.438-.3359.5518-.5703v-1.084h-.708c-1.1069,0-1.6602.3242-1.6602.9707,0,.2832.0942.5059.2832.6641.189.1602.4312.2402.7275.2402Z"/>
    <path class="cls-6" d="m488.7397,132.9082l.3613-3.5449h3.6426v.8359h-2.876l-.2148,1.9375c.3481-.2051.7437-.3066,1.1865-.3066.6479,0,1.1621.2129,1.543.6406.3809.4297.5713,1.0078.5713,1.7363,0,.7324-.1978,1.3105-.5933,1.7305-.3955.4219-.9482.6328-1.6577.6328-.6284,0-1.1411-.1738-1.5381-.5215-.397-.3496-.6235-.8301-.6787-1.4453h.8545c.0552.4062.2002.7129.4346.9199s.5435.3105.9277.3105c.4199,0,.7495-.1445.9888-.4297.2393-.2871.3589-.6816.3589-1.1875,0-.4746-.1294-.8574-.3882-1.1445-.2588-.2891-.603-.4316-1.0327-.4316-.394,0-.7031.0859-.9277.2578l-.2393.1953-.7227-.1855Z"/>
    <path class="cls-6" d="m496.9087,136.4727h-.9082v-6.0195l-1.8213.668v-.8203l2.5879-.9707h.1416v7.1426Z"/>
    <path class="cls-6" d="m499.6187,137.8887l-.5127-.3516c.3062-.4258.4653-.8652.4785-1.3184v-.8145h.8838v.707c0,.3301-.0806.6582-.2417.9863-.1611.3301-.3638.5938-.6079.791Z"/>
    <path class="cls-6" d="m505.8296,131.2188c0,.3555-.0938.6719-.2808.9473-.187.2773-.4404.4941-.7593.6504.3711.1582.665.3926.8813.6973.2163.3066.3247.6523.3247,1.041,0,.6152-.2075,1.1055-.6226,1.4688-.415.3652-.9609.5469-1.6382.5469-.6836,0-1.2314-.1836-1.6431-.5488-.4116-.3672-.6177-.8555-.6177-1.4668,0-.3848.105-.7305.3149-1.041.21-.3086.5005-.543.8716-.7031-.3159-.1562-.5649-.373-.7471-.6484-.1821-.2773-.2734-.5918-.2734-.9434,0-.5977.1919-1.0742.5762-1.4258s.8901-.5273,1.5186-.5273c.625,0,1.1304.1758,1.5161.5273s.5786.8281.5786,1.4258Zm-.7373,3.3164c0-.3984-.126-.7207-.3784-.9727-.2524-.25-.582-.375-.9888-.375s-.7334.123-.979.3711c-.2456.2461-.3687.5723-.3687.9766,0,.4023.1196.7207.3589.9512.2393.2324.5723.3477.9985.3477.4233,0,.7554-.1172.9961-.3496s.3613-.5488.3613-.9492Zm-1.3574-4.5273c-.355,0-.6421.1094-.8618.3301-.2197.2188-.3296.5176-.3296.8965,0,.3613.1084.6523.3247.875.2163.2246.5054.3359.8667.3359s.6504-.1113.8667-.3359c.2163-.2227.3247-.5137.3247-.875s-.1123-.6562-.3369-.8848c-.2246-.2266-.5093-.3418-.8545-.3418Z"/>
    <path class="cls-6" d="m510.605,131.8301c.4004-.4922.9214-.7383,1.5625-.7383,1.1167,0,1.6797.6309,1.6895,1.8906v3.4902h-.9033v-3.4961c-.0034-.3809-.0903-.6621-.2612-.8438-.1709-.1836-.437-.2734-.7983-.2734-.293,0-.5503.0781-.7715.2344s-.394.3613-.5176.6152v3.7637h-.9033v-7.5h.9033v2.8574Z"/>
    <path class="cls-6" d="m518.4712,136.4727c-.0522-.1035-.0942-.2891-.127-.5566-.4199.4375-.9214.6543-1.5039.6543-.521,0-.9482-.1465-1.2817-.4414s-.5005-.668-.5005-1.1211c0-.5488.209-.9766.6274-1.2812s1.0068-.457,1.7651-.457h.8789v-.4141c0-.3164-.0942-.5684-.2832-.7559-.189-.1855-.4673-.2793-.835-.2793-.3223,0-.5923.0801-.8105.2441-.2183.1621-.3271.3594-.3271.5898h-.9082c0-.2637.0938-.5176.2808-.7637s.4409-.4395.7617-.584c.3208-.1426.6729-.2148,1.0571-.2148.6089,0,1.0854.1523,1.4307.457s.5239.7227.5371,1.2578v2.4316c0,.4844.062.8711.1855,1.1562v.0781h-.9473Zm-1.499-.6875c.2832,0,.5518-.0742.8057-.2207s.438-.3359.5518-.5703v-1.084h-.708c-1.1069,0-1.6602.3242-1.6602.9707,0,.2832.0942.5059.2832.6641.189.1602.4312.2402.7275.2402Z"/>
  </g>
  <g>
    <path class="cls-7" d="m233.4385,162.6924c0-.6201-.02-1.1201-.04-1.5791h.7896l.04.8291h.02c.3599-.5898.9297-.9395,1.7192-.9395,1.1694,0,2.0488.9893,2.0488,2.459,0,1.7383-1.0596,2.5986-2.1987,2.5986-.6396,0-1.1992-.2803-1.4893-.7598h-.02v2.6279h-.8696v-5.2363Zm.8696,1.2891c0,.1299.02.25.04.3594.1597.6104.6895,1.0293,1.3193,1.0293.9292,0,1.4692-.7588,1.4692-1.8682,0-.9697-.5098-1.7998-1.4395-1.7998-.5996,0-1.1592.4297-1.3291,1.0898-.0303.1104-.0601.2402-.0601.3594v.8301Z"/>
    <path class="cls-7" d="m239.1284,162.6221c0-.5693-.0098-1.0596-.04-1.5088h.7695l.0303.9492h.04c.2197-.6494.7495-1.0596,1.3394-1.0596.0996,0,.1699.0098.2495.0303v.8291c-.0898-.0195-.1797-.0303-.2998-.0303-.6196,0-1.0591.4697-1.1792,1.1299-.02.1201-.04.2598-.04.4102v2.5781h-.8696v-3.3281Z"/>
    <path class="cls-7" d="m246.4463,164.6309c0,.5.0103.9395.04,1.3193h-.7798l-.0498-.79h-.02c-.23.3906-.7397.9004-1.5991.9004-.7598,0-1.6689-.4199-1.6689-2.1191v-2.8281h.8794v2.6777c0,.9199.2798,1.5391,1.0796,1.5391.5894,0,.9995-.4092,1.1592-.7988.0498-.1299.0801-.29.0801-.4502v-2.9678h.8794v3.5176Zm-3.0283-4.957c0-.5303.3896-.9492,1.0195-.9492.5898,0,.9893.4092.9893.9395,0,.5293-.4395.9189-.9995.9189-.5996,0-1.0093-.3994-1.0093-.9092Zm1.519-.0205c0-.2998-.1997-.5498-.5298-.5498-.2998,0-.4897.2607-.4897.5703,0,.2598.21.5391.5.5391.3198,0,.5195-.2598.5195-.5596Z"/>
    <path class="cls-7" d="m247.9082,162.4219c0-.499-.0098-.9092-.04-1.3086h.7695l.04.7793h.0303c.2695-.46.7192-.8896,1.519-.8896.6597,0,1.1592.3994,1.3691.9697h.02c.1499-.2705.3398-.4805.5396-.6299.29-.2197.6099-.3398,1.0698-.3398.6396,0,1.5889.4199,1.5889,2.0986v2.8486h-.8594v-2.7383c0-.9297-.3398-1.4893-1.0493-1.4893-.5,0-.8896.3701-1.0396.7998-.04.1191-.0698.2793-.0698.4395v2.9883h-.8599v-2.8984c0-.7695-.3398-1.3291-1.0093-1.3291-.5498,0-.9497.4395-1.0894.8789-.0503.1309-.0698.2803-.0698.4307v2.918h-.8599v-3.5283Z"/>
    <path class="cls-7" d="m256.7378,163.6914c.02,1.1895.7798,1.6787,1.6592,1.6787.6299,0,1.0093-.1094,1.3394-.249l.1499.6289c-.3101.1406-.8398.2998-1.6094.2998-1.4888,0-2.3784-.9795-2.3784-2.4385s.8594-2.6084,2.2686-2.6084c1.5791,0,1.999,1.3896,1.999,2.2783,0,.1807-.02.3203-.0298.4102h-3.3984Zm2.5786-.6299c.0103-.5596-.23-1.4287-1.2192-1.4287-.8896,0-1.2793.8193-1.3491,1.4287h2.5684Zm-1.5791-2.6084l-.9595-1.4287h.6694l.5898.9492h.02l.5996-.9492h.6499l-.9395,1.4287h-.6299Z"/>
    <path class="cls-7" d="m261.2578,162.6221c0-.5693-.0098-1.0596-.04-1.5088h.7695l.0303.9492h.04c.2197-.6494.7495-1.0596,1.3394-1.0596.0996,0,.1694.0098.2495.0303v.8291c-.0898-.0195-.1797-.0303-.2998-.0303-.6196,0-1.0596.4697-1.1792,1.1299-.02.1201-.04.2598-.04.4102v2.5781h-.8696v-3.3281Z"/>
    <path class="cls-7" d="m266.6479,162.6221c0-.5693-.0098-1.0596-.04-1.5088h.7695l.0303.9492h.04c.2197-.6494.7495-1.0596,1.3394-1.0596.0996,0,.1699.0098.2495.0303v.8291c-.0898-.0195-.1797-.0303-.2998-.0303-.6196,0-1.0591.4697-1.1792,1.1299-.02.1201-.04.2598-.04.4102v2.5781h-.8696v-3.3281Z"/>
    <path class="cls-7" d="m274.1958,163.4912c0,1.7891-1.2397,2.5693-2.4087,2.5693-1.3096,0-2.3188-.96-2.3188-2.4893,0-1.6191,1.0591-2.5684,2.3984-2.5684,1.3892,0,2.3291,1.0098,2.3291,2.4883Zm-3.8379.0508c0,1.0586.6094,1.8584,1.4688,1.8584.8398,0,1.4692-.7891,1.4692-1.8789,0-.8193-.4097-1.8594-1.4492-1.8594s-1.4888.96-1.4888,1.8799Z"/>
    <path class="cls-7" d="m276.3672,159.7236v1.3896h1.2593v.6689h-1.2593v2.6084c0,.5996.1699.9395.6597.9395.23,0,.3999-.0293.5098-.0596l.04.6602c-.1699.0693-.4399.1191-.7798.1191-.4097,0-.7397-.1299-.9492-.3691-.25-.2598-.3398-.6904-.3398-1.2598v-2.6387h-.75v-.6689h.75v-1.1602l.8594-.2295Z"/>
    <path class="cls-7" d="m282.9355,163.4912c0,1.7891-1.2397,2.5693-2.4087,2.5693-1.3096,0-2.3188-.96-2.3188-2.4893,0-1.6191,1.0596-2.5684,2.3984-2.5684,1.3892,0,2.3291,1.0098,2.3291,2.4883Zm-3.8379.0508c0,1.0586.6094,1.8584,1.4688,1.8584.8398,0,1.4692-.7891,1.4692-1.8789,0-.8193-.4097-1.8594-1.4492-1.8594s-1.4888.96-1.4888,1.8799Z"/>
    <path class="cls-7" d="m284.0479,162.6221c0-.5693-.0098-1.0596-.04-1.5088h.7695l.0303.9492h.04c.2197-.6494.7495-1.0596,1.3394-1.0596.0996,0,.1694.0098.2495.0303v.8291c-.0898-.0195-.1797-.0303-.2998-.0303-.6196,0-1.0596.4697-1.1792,1.1299-.02.1201-.04.2598-.04.4102v2.5781h-.8696v-3.3281Z"/>
    <path class="cls-7" d="m291.3652,164.6309c0,.5.0103.9395.04,1.3193h-.7798l-.0498-.79h-.02c-.23.3906-.7397.9004-1.5991.9004-.7598,0-1.6689-.4199-1.6689-2.1191v-2.8281h.8794v2.6777c0,.9199.2798,1.5391,1.0796,1.5391.5894,0,.9995-.4092,1.1592-.7988.0498-.1299.0801-.29.0801-.4502v-2.9678h.8794v3.5176Z"/>
    <path class="cls-7" d="m267.5718,176.9502h-.9082v-6.0205l-1.8213.6689v-.8203l2.5879-.9717h.1416v7.1436Z"/>
    <path class="cls-7" d="m273.7632,169.8359v.7666h-.166c-.7031.0127-1.2632.2217-1.6797.625s-.6577.9717-.7227,1.7041c.3745-.4297.8853-.6445,1.5332-.6445.6187,0,1.1123.2178,1.4819.6543s.5542.999.5542,1.6895c0,.7324-.1992,1.3184-.5981,1.7578s-.9336.6592-1.604.6592c-.6802,0-1.2319-.2617-1.6553-.7832-.4233-.5234-.6348-1.1963-.6348-2.0195v-.3467c0-1.3086.2793-2.3086.8374-3.001.5581-.6914,1.3892-1.0449,2.4927-1.0615h.1611Zm-1.1865,3.2031c-.3091,0-.5942.0928-.8545.2783s-.4409.418-.542.6982v.332c0,.5859.1318,1.0576.3955,1.416s.5923.5371.9863.5371c.4067,0,.7266-.1494.9595-.4492s.3491-.6914.3491-1.1768c0-.4883-.1182-.8828-.354-1.1836-.2358-.3018-.5493-.4521-.9399-.4521Z"/>
    <path class="cls-7" d="m280.2915,173.918c0,1.0576-.1807,1.8438-.542,2.3584s-.9263.7715-1.6943.7715c-.7583,0-1.3198-.252-1.6846-.7539-.3647-.5039-.5532-1.2549-.5664-2.2539v-1.2061c0-1.0449.1807-1.8213.542-2.3291s.9277-.7617,1.6992-.7617c.7651,0,1.3281.2451,1.6895.7344.3613.4902.5469,1.2461.5566,2.2686v1.1719Zm-.9033-1.2354c0-.7646-.1074-1.3223-.3223-1.6719-.2148-.3506-.5552-.5254-1.0205-.5254-.4624,0-.7993.1738-1.0107.5225s-.3208.8838-.3271,1.6064v1.4453c0,.7686.1113,1.3359.3345,1.7012.2231.3672.5605.5498,1.0132.5498.4458,0,.7773-.1729.9937-.5176s.3296-.8887.3394-1.6309v-1.4795Z"/>
    <path class="cls-7" d="m284.8667,171.667l.0244.5859c.3872-.4561.9097-.6836,1.5674-.6836.7388,0,1.2417.2832,1.5088.8496.1758-.2539.4043-.459.686-.6152s.6143-.2344.9985-.2344c1.1587,0,1.748.6133,1.7676,1.8408v3.54h-.9033v-3.4863c0-.3779-.0864-.6602-.2588-.8477-.1724-.1865-.4624-.2803-.8691-.2803-.3354,0-.6138.1006-.835.2998-.2212.2012-.3501.4697-.3857.8086v3.5059h-.9082v-3.4619c0-.7686-.376-1.1523-1.1279-1.1523-.5923,0-.9976.252-1.2158.7568v3.8574h-.9033v-5.2832h.8545Z"/>
  </g>
  <g>
    <path class="cls-5" d="m232.749,53.5381l2.3242,5.8008,2.3242-5.8008h1.2158v7.1094h-.9375v-2.7686l.0879-2.9883-2.334,5.7568h-.7178l-2.3291-5.7422.0928,2.9736v2.7686h-.9375v-7.1094h1.2109Z"/>
    <path class="cls-5" d="m243.3887,60.6475c-.0518-.1045-.0947-.29-.127-.5566-.4199.4365-.9209.6543-1.5039.6543-.5205,0-.9482-.1475-1.2812-.4414-.334-.2949-.501-.6689-.501-1.1211,0-.5498.209-.9775.6279-1.2812.418-.3047,1.0059-.457,1.7646-.457h.8789v-.415c0-.3154-.0947-.5674-.2832-.7549-.1885-.1865-.4668-.2803-.835-.2803-.3223,0-.5928.0811-.8105.2441s-.3271.3594-.3271.5908h-.9082c0-.2637.0938-.5186.2803-.7637.1875-.2461.4414-.4404.7617-.584.3213-.1436.6738-.2148,1.0576-.2148.6084,0,1.0859.1523,1.4307.457.3447.3037.5244.7227.5371,1.2568v2.4316c0,.4854.0615.8711.1855,1.1572v.0781h-.9473Zm-1.499-.6885c.2832,0,.5518-.0732.8057-.2197s.4375-.3369.5518-.5713v-1.084h-.708c-1.1064,0-1.6602.3242-1.6602.9717,0,.2832.0947.5049.2832.6641s.4316.2393.7275.2393Z"/>
    <path class="cls-5" d="m247.3389,57.293l1.1719-1.9287h1.0547l-1.7285,2.6123,1.7822,2.6709h-1.0449l-1.2207-1.9775-1.2207,1.9775h-1.0498l1.7822-2.6709-1.7285-2.6123h1.0449l1.1572,1.9287Z"/>
    <path class="cls-5" d="m250.5273,53.9629c0-.1465.0449-.2705.1338-.3711.0898-.1006.2227-.1514.3984-.1514s.3096.0508.4004.1514.1367.2246.1367.3711-.0459.2686-.1367.3662-.2246.1465-.4004.1465-.3086-.0488-.3984-.1465c-.0889-.0977-.1338-.2197-.1338-.3662Zm.9766,6.6846h-.9033v-5.2832h.9033v5.2832Z"/>
    <path class="cls-5" d="m253.7988,55.3643l.0244.5859c.3877-.4561.9102-.6836,1.5674-.6836.7393,0,1.2422.2832,1.5088.8496.1758-.2539.4043-.459.6865-.6152.2812-.1562.6143-.2344.998-.2344,1.1592,0,1.748.6133,1.7676,1.8408v3.54h-.9033v-3.4863c0-.3779-.0859-.6602-.2588-.8477-.1729-.1865-.4619-.2803-.8691-.2803-.335,0-.6133.1006-.835.2998-.2217.2012-.3496.4697-.3857.8086v3.5059h-.9082v-3.4619c0-.7686-.376-1.1523-1.1279-1.1523-.5928,0-.998.252-1.2158.7568v3.8574h-.9033v-5.2832h.8545Z"/>
    <path class="cls-5" d="m264.9756,60.6475c-.0518-.1045-.0947-.29-.127-.5566-.4199.4365-.9209.6543-1.5039.6543-.5205,0-.9482-.1475-1.2812-.4414-.334-.2949-.501-.6689-.501-1.1211,0-.5498.209-.9775.6279-1.2812.418-.3047,1.0059-.457,1.7646-.457h.8789v-.415c0-.3154-.0947-.5674-.2832-.7549-.1885-.1865-.4668-.2803-.835-.2803-.3223,0-.5928.0811-.8105.2441s-.3271.3594-.3271.5908h-.9082c0-.2637.0938-.5186.2803-.7637.1875-.2461.4414-.4404.7617-.584.3213-.1436.6738-.2148,1.0576-.2148.6084,0,1.0859.1523,1.4307.457.3447.3037.5244.7227.5371,1.2568v2.4316c0,.4854.0615.8711.1855,1.1572v.0781h-.9473Zm-1.499-.6885c.2832,0,.5518-.0732.8057-.2197s.4375-.3369.5518-.5713v-1.084h-.708c-1.1064,0-1.6602.3242-1.6602.9717,0,.2832.0947.5049.2832.6641s.4316.2393.7275.2393Zm.835-6.8115h1.0938l-1.3086,1.4355-.7275-.002.9424-1.4336Z"/>
    <path class="cls-5" d="m268.1348,60.6475h-.9033v-7.5h.9033v7.5Z"/>
    <path class="cls-5" d="m270.4346,55.3643l.0293.6641c.4033-.5078.9307-.7617,1.582-.7617,1.1162,0,1.6797.6299,1.6895,1.8896v3.4912h-.9033v-3.4961c-.0029-.3809-.0898-.6621-.2617-.8447-.1699-.1826-.4365-.2734-.7979-.2734-.293,0-.5498.0781-.7715.2344s-.3936.3613-.5176.6152v3.7646h-.9033v-5.2832h.8545Z"/>
    <path class="cls-5" d="m276.0889,53.1523h1.0938l-1.3086,1.4355-.7275-.0029.9424-1.4326Zm-.0098,7.4951h-.9082v-5.2832h.9082v5.2832Z"/>
    <path class="cls-5" d="m281.7871,59.4219l1.3086-4.0576h.9229l-1.8945,5.2832h-.6885l-1.9141-5.2832h.9229l1.3428,4.0576Z"/>
    <path class="cls-5" d="m286.6162,59.3242l1.2305-3.96h.9668l-2.124,6.0986c-.3291.8789-.8516,1.3184-1.5674,1.3184l-.1709-.0146-.3369-.0635v-.7324l.2441.0195c.3057,0,.5449-.0615.7148-.1855.1719-.124.3125-.3496.4229-.6787l.2002-.5371-1.8848-5.2246h.9863l1.3184,3.96Zm.5127-6.1768h1.0938l-1.3086,1.4355-.7275-.002.9424-1.4336Z"/>
    <path class="cls-5" d="m291.0938,58.2012l-.5664.5908v1.8555h-.9033v-7.5h.9033v4.5361l.4834-.5811,1.6455-1.7383h1.0986l-2.0557,2.207,2.2949,3.0762h-1.0596l-1.8408-2.4463Z"/>
    <path class="cls-5" d="m294.4482,57.957c0-.5176.1016-.9834.3057-1.3965.2031-.4131.4863-.7324.8496-.957.3623-.2246.7764-.3369,1.2422-.3369.7197,0,1.3008.249,1.7461.7471.4434.498.666,1.1602.666,1.9873v.0635c0,.5146-.0986.9756-.2949,1.3838-.1973.4092-.4785.7275-.8457.9551-.3652.2275-.7861.3418-1.2617.3418-.7158,0-1.2969-.249-1.7402-.7471-.4453-.498-.667-1.1572-.667-1.9775v-.0635Zm.9082.1074c0,.5859.1357,1.0566.4072,1.4111.2725.3545.6357.5322,1.0918.5322.459,0,.8232-.1797,1.0938-.54.2705-.3594.4053-.8633.4053-1.5107,0-.5791-.1377-1.0488-.4131-1.4092-.2744-.3594-.6396-.5391-1.0957-.5391-.4463,0-.8057.1777-1.0791.5322s-.4102.8623-.4102,1.5234Z"/>
    <path class="cls-5" d="m301.2451,55.3643l.0293.6641c.4033-.5078.9307-.7617,1.582-.7617,1.1162,0,1.6797.6299,1.6895,1.8896v3.4912h-.9033v-3.4961c-.0029-.3809-.0898-.6621-.2617-.8447-.1699-.1826-.4365-.2734-.7979-.2734-.293,0-.5498.0781-.7715.2344s-.3936.3613-.5176.6152v3.7646h-.9033v-5.2832h.8545Z"/>
    <path class="cls-5" d="m309.3164,55.3643v5.8936c0,1.0156-.4609,1.5234-1.3818,1.5234-.1982,0-.3828-.0293-.5518-.0869v-.7188c.1045.0264.2412.0391.4102.0391.2021,0,.3555-.0547.4619-.1641.1055-.1084.1582-.2988.1582-.5693v-5.917h.9033Zm-.9961-1.4014c0-.1436.0449-.2666.1338-.3682.0898-.1035.2207-.1543.3936-.1543.1758,0,.3096.0508.4004.1514s.1367.2246.1367.3711-.0459.2686-.1367.3662-.2246.1465-.4004.1465-.3076-.0488-.3955-.1465-.1318-.2197-.1318-.3662Z"/>
    <path class="cls-5" d="m312.9639,60.7451c-.7158,0-1.2988-.2354-1.748-.7051-.4492-.4707-.6738-1.0996-.6738-1.8877v-.166c0-.5244.1006-.9922.2998-1.4033.2012-.4121.4805-.7344.8398-.9668.3604-.2334.75-.3496,1.1699-.3496.6865,0,1.2207.2266,1.6016.6787s.5713,1.1006.5713,1.9434v.376h-3.5791c.0127.5205.165.9414.457,1.2617.291.3213.6611.4814,1.1104.4814.3193,0,.5889-.0654.8105-.1953s.415-.3027.5811-.5176l.5518.4297c-.4424.6807-1.1064,1.0205-1.9922,1.0205Zm-.1123-4.7363c-.3643,0-.6709.1328-.918.3984-.2471.2646-.4004.6367-.459,1.1152h2.6465v-.0684c-.0264-.459-.1494-.8145-.3711-1.0664-.2217-.2529-.5205-.3789-.8984-.3789Z"/>
    <path class="cls-5" d="m315.8496,57.9619c0-.8105.1924-1.4629.5762-1.9551.3838-.4941.8867-.7402,1.5088-.7402.6182,0,1.1084.2119,1.4697.6348v-2.7539h.9033v7.5h-.8301l-.0439-.5664c-.3613.4424-.8643.6641-1.5088.6641-.6123,0-1.1113-.251-1.4961-.752-.3867-.501-.5791-1.1553-.5791-1.9629v-.0684Zm.9033.1025c0,.5986.124,1.0674.3711,1.4062s.5889.5078,1.0254.5078c.5732,0,.9912-.2568,1.2549-.7715v-2.4268c-.2705-.498-.6855-.7471-1.2451-.7471-.4424,0-.7881.1709-1.0352.5127s-.3711.8477-.3711,1.5186Z"/>
    <path class="cls-5" d="m322.5635,55.3643l.0293.6641c.4033-.5078.9307-.7617,1.582-.7617,1.1162,0,1.6797.6299,1.6895,1.8896v3.4912h-.9033v-3.4961c-.0029-.3809-.0898-.6621-.2617-.8447-.1699-.1826-.4365-.2734-.7979-.2734-.293,0-.5498.0781-.7715.2344s-.3936.3613-.5176.6152v3.7646h-.9033v-5.2832h.8545Z"/>
    <path class="cls-5" d="m329.4189,60.7451c-.7158,0-1.2988-.2354-1.748-.7051-.4492-.4707-.6738-1.0996-.6738-1.8877v-.166c0-.5244.1006-.9922.2998-1.4033.2012-.4121.4805-.7344.8398-.9668.3604-.2334.75-.3496,1.1699-.3496.6865,0,1.2207.2266,1.6016.6787s.5713,1.1006.5713,1.9434v.376h-3.5791c.0127.5205.165.9414.457,1.2617.291.3213.6611.4814,1.1104.4814.3193,0,.5889-.0654.8105-.1953s.415-.3027.5811-.5176l.5518.4297c-.4424.6807-1.1064,1.0205-1.9922,1.0205Zm-.1123-4.7363c-.3643,0-.6709.1328-.918.3984-.2471.2646-.4004.6367-.459,1.1152h2.6465v-.0684c-.0264-.459-.1494-.8145-.3711-1.0664-.2217-.2529-.5205-.3789-.8984-.3789Zm.4395-2.8613h1.0938l-1.3086,1.4355-.7275-.002.9424-1.4336Z"/>
    <path class="cls-5" d="m336.2256,54.085v1.2793h.9863v.6982h-.9863v3.2803c0,.2119.0439.3711.1318.4766.0879.1064.2373.1592.4492.1592.1045,0,.2471-.0195.4297-.0586v.7285c-.2373.0645-.4688.0967-.6934.0967-.4033,0-.708-.1221-.9131-.3662s-.3076-.5908-.3076-1.04v-3.2764h-.9619v-.6982h.9619v-1.2793h.9033Z"/>
    <path class="cls-5" d="m341.5283,60.125c-.3516.4131-.8672.6201-1.5479.6201-.5635,0-.9922-.1641-1.2861-.4902-.2949-.3281-.4443-.8115-.4473-1.4531v-3.4375h.9033v3.4131c0,.8008.3252,1.2012.9766,1.2012.6904,0,1.1494-.2568,1.377-.7715v-3.8428h.9033v5.2832h-.8594l-.0195-.5225Z"/>
    <path class="cls-5" d="m346.333,56.1748c-.1367-.0225-.2852-.0342-.4443-.0342-.5928,0-.9941.252-1.2061.7568v3.75h-.9033v-5.2832h.8789l.0146.6104c.2959-.4717.7158-.708,1.2598-.708.1758,0,.3096.0225.4004.0684v.8398Z"/>
    <path class="cls-5" d="m351.6357,58.0645c0,.8076-.1855,1.4561-.5566,1.9463-.3711.4893-.8691.7344-1.4941.7344-.667,0-1.1836-.2363-1.5479-.708l-.0439.6104h-.8301v-7.5h.9033v2.7979c.3643-.4521.8672-.6787,1.5088-.6787s1.1445.2422,1.5117.7275c.3652.4854.5488,1.1494.5488,1.9922v.0781Zm-.9033-.1025c0-.6152-.1191-1.0908-.3564-1.4258s-.5791-.5029-1.0254-.5029c-.5957,0-1.0234.2764-1.2842.8301v2.2852c.2764.5537.708.8301,1.2939.8301.4326,0,.7695-.168,1.0107-.5029s.3613-.8398.3613-1.5137Z"/>
    <path class="cls-5" d="m353.7646,53.1523h1.0938l-1.3086,1.4355-.7275-.0029.9424-1.4326Zm-.0098,7.4951h-.9082v-5.2832h.9082v5.2832Z"/>
    <path class="cls-5" d="m356.0986,55.3643l.0293.6641c.4033-.5078.9307-.7617,1.582-.7617,1.1162,0,1.6797.6299,1.6895,1.8896v3.4912h-.9033v-3.4961c-.0029-.3809-.0898-.6621-.2617-.8447-.1699-.1826-.4365-.2734-.7979-.2734-.293,0-.5498.0781-.7715.2344s-.3936.3613-.5176.6152v3.7646h-.9033v-5.2832h.8545Z"/>
    <path class="cls-5" d="m362.4902,59.3242l1.2305-3.96h.9668l-2.124,6.0986c-.3291.8789-.8516,1.3184-1.5674,1.3184l-.1709-.0146-.3369-.0635v-.7324l.2441.0195c.3057,0,.5449-.0615.7148-.1855.1719-.124.3125-.3496.4229-.6787l.2002-.5371-1.8848-5.2246h.9863l1.3184,3.96Z"/>
    <path class="cls-5" d="m368.9014,55.3643v5.8936c0,1.0156-.4609,1.5234-1.3818,1.5234-.1982,0-.3828-.0293-.5518-.0869v-.7188c.1045.0264.2412.0391.4102.0391.2021,0,.3555-.0547.4619-.1641.1055-.1084.1582-.2988.1582-.5693v-5.917h.9033Zm-.9961-1.4014c0-.1436.0449-.2666.1338-.3682.0898-.1035.2207-.1543.3936-.1543.1758,0,.3096.0508.4004.1514s.1367.2246.1367.3711-.0459.2686-.1367.3662-.2246.1465-.4004.1465-.3076-.0488-.3955-.1465-.1318-.2197-.1318-.3662Z"/>
    <path class="cls-5" d="m372.5488,60.7451c-.7158,0-1.2988-.2354-1.748-.7051-.4492-.4707-.6738-1.0996-.6738-1.8877v-.166c0-.5244.1006-.9922.2998-1.4033.2012-.4121.4805-.7344.8398-.9668.3604-.2334.75-.3496,1.1699-.3496.6865,0,1.2207.2266,1.6016.6787s.5713,1.1006.5713,1.9434v.376h-3.5791c.0127.5205.165.9414.457,1.2617.291.3213.6611.4814,1.1104.4814.3193,0,.5889-.0654.8105-.1953s.415-.3027.5811-.5176l.5518.4297c-.4424.6807-1.1064,1.0205-1.9922,1.0205Zm-.1123-4.7363c-.3643,0-.6709.1328-.918.3984-.2471.2646-.4004.6367-.459,1.1152h2.6465v-.0684c-.0264-.459-.1494-.8145-.3711-1.0664-.2217-.2529-.5205-.3789-.8984-.3789Z"/>
    <path class="cls-5" d="m231.4062,69.1514l.4102-3.6133h3.9844v1.1768h-2.8271l-.1758,1.5283c.335-.1787.6914-.2686,1.0693-.2686.6768,0,1.208.21,1.5918.6299s.5762,1.0078.5762,1.7627c0,.459-.0967.8701-.291,1.2334-.1934.3623-.4707.6445-.832.8438-.3613.2012-.7881.3008-1.2793.3008-.4297,0-.8281-.0869-1.1963-.2617-.3682-.1738-.6582-.4189-.8721-.7344-.2129-.3154-.3262-.6758-.3389-1.0791h1.3965c.0293.2959.1328.5264.3096.6904.1777.165.4102.2471.6963.2471.3193,0,.5645-.1143.7373-.3447.1729-.2285.2588-.5537.2588-.9736,0-.4033-.0996-.7129-.2979-.9277s-.4805-.3223-.8447-.3223c-.335,0-.6074.0879-.8154.2637l-.1367.127-1.123-.2783Z"/>
    <path class="cls-5" d="m241.4893,65.5381l1.8262,5.1562,1.8164-5.1562h1.9238v7.1094h-1.4697v-1.9434l.1465-3.3545-1.9189,5.2979h-1.0059l-1.9141-5.293.1465,3.3496v1.9434h-1.4648v-7.1094h1.9141Z"/>
    <path class="cls-5" d="m253.8721,70.5967l.957-5.0586h1.46l-1.5771,7.1094h-1.4746l-1.1572-4.7559-1.1572,4.7559h-1.4746l-1.5771-7.1094h1.46l.9619,5.0488,1.1719-5.0488h1.2402l1.167,5.0586Z"/>
    <path class="cls-5" d="m256.3623,71.9541c0-.2246.0762-.4072.2266-.5469.1523-.1396.3418-.21.5693-.21.2314,0,.4229.0703.5732.21.1523.1396.2275.3223.2275.5469,0,.2217-.0752.4014-.2246.5391-.1494.1387-.3418.208-.5762.208-.2314,0-.4219-.0693-.5713-.208-.1494-.1377-.2246-.3174-.2246-.5391Z"/>
    <path class="cls-5" d="m262.8906,69.8643v2.7832h-.9375v-7.1094h2.6221c.7783,0,1.3877.1982,1.8281.5957.4414.3975.6621.9229.6621,1.5771,0,.6904-.2158,1.2217-.6465,1.5947-.4316.3721-1.0498.5586-1.8535.5586h-1.6748Zm0-.7666h1.6846c.501,0,.8857-.1182,1.1523-.3545s.4004-.5781.4004-1.0254c0-.4238-.1338-.7627-.4004-1.0166-.2666-.2549-.6328-.3867-1.0986-.3965h-1.7383v2.793Z"/>
    <path class="cls-5" d="m270.6738,68.1748c-.1367-.0225-.2852-.0342-.4443-.0342-.5928,0-.9941.252-1.2061.7568v3.75h-.9033v-5.2832h.8789l.0146.6104c.2959-.4717.7158-.708,1.2598-.708.1758,0,.3096.0225.4004.0684v.8398Z"/>
    <path class="cls-5" d="m274.7656,72.125c-.3516.4131-.8672.6201-1.5479.6201-.5635,0-.9922-.1641-1.2861-.4902-.2949-.3281-.4443-.8115-.4473-1.4531v-3.4375h.9033v3.4131c0,.8008.3252,1.2012.9766,1.2012.6904,0,1.1494-.2568,1.377-.7715v-3.8428h.9033v5.2832h-.8594l-.0195-.5225Zm-.127-6.4062c0,.2832-.1006.5205-.3027.71-.2021.1914-.4512.2861-.7471.2861-.2998,0-.5498-.0957-.749-.2881-.2012-.1924-.3008-.4277-.3008-.708s.0996-.5195.3008-.7178c.1992-.1982.4492-.2979.749-.2979s.5498.0996.749.2979c.2012.1982.3008.4375.3008.7178Zm-1.6162,0c0,.1533.0547.2852.1631.3955.1094.1104.2441.166.4033.166.1562,0,.29-.0537.4004-.1611s.166-.2412.166-.4004-.0547-.2959-.1631-.4072c-.1094-.1133-.2441-.1689-.4033-.1689-.1631,0-.2979.0566-.4053.1709s-.1611.249-.1611.4053Z"/>
    <path class="cls-5" d="m277.8662,67.3643l.0244.5859c.3877-.4561.9102-.6836,1.5674-.6836.7393,0,1.2422.2832,1.5088.8496.1758-.2539.4043-.459.6865-.6152.2812-.1562.6143-.2344.998-.2344,1.1592,0,1.748.6133,1.7676,1.8408v3.54h-.9033v-3.4863c0-.3779-.0859-.6602-.2588-.8477-.1729-.1865-.4619-.2803-.8691-.2803-.335,0-.6133.1006-.835.2998-.2217.2012-.3496.4697-.3857.8086v3.5059h-.9082v-3.4619c0-.7686-.376-1.1523-1.1279-1.1523-.5928,0-.998.252-1.2158.7568v3.8574h-.9033v-5.2832h.8545Z"/>
    <path class="cls-5" d="m287.9736,72.7451c-.7158,0-1.2988-.2354-1.748-.7051-.4492-.4707-.6738-1.0996-.6738-1.8877v-.166c0-.5244.1006-.9922.2998-1.4033.2012-.4121.4805-.7344.8398-.9668.3604-.2334.75-.3496,1.1699-.3496.6865,0,1.2207.2266,1.6016.6787s.5713,1.1006.5713,1.9434v.376h-3.5791c.0127.5205.165.9414.457,1.2617.291.3213.6611.4814,1.1104.4814.3193,0,.5889-.0654.8105-.1953s.415-.3027.5811-.5176l.5518.4297c-.4424.6807-1.1064,1.0205-1.9922,1.0205Zm-.1221-6.7676l.7324-.8301h.7812v.0488l-1.2402,1.3379h-.5518l-1.2256-1.3379v-.0488h.7666l.7373.8301Zm.0098,2.0312c-.3643,0-.6709.1328-.918.3984-.2471.2646-.4004.6367-.459,1.1152h2.6465v-.0684c-.0264-.459-.1494-.8145-.3711-1.0664-.2217-.2529-.5205-.3789-.8984-.3789Z"/>
    <path class="cls-5" d="m293.6328,68.1748c-.1367-.0225-.2852-.0342-.4443-.0342-.5928,0-.9941.252-1.2061.7568v3.75h-.9033v-5.2832h.8789l.0146.6104c.2959-.4717.7158-.708,1.2598-.708.1758,0,.3096.0225.4004.0684v.8398Z"/>
    <path class="cls-5" d="m295.3174,67.3643l.0293.6641c.4033-.5078.9307-.7617,1.582-.7617,1.1162,0,1.6797.6299,1.6895,1.8896v3.4912h-.9033v-3.4961c-.0029-.3809-.0898-.6621-.2617-.8447-.1699-.1826-.4365-.2734-.7979-.2734-.293,0-.5498.0781-.7715.2344s-.3936.3613-.5176.6152v3.7646h-.9033v-5.2832h.8545Z"/>
    <path class="cls-5" d="m301.709,71.3242l1.2305-3.96h.9668l-2.124,6.0986c-.3291.8789-.8516,1.3184-1.5674,1.3184l-.1709-.0146-.3369-.0635v-.7324l.2441.0195c.3057,0,.5449-.0615.7148-.1855.1719-.124.3125-.3496.4229-.6787l.2002-.5371-1.8848-5.2246h.9863l1.3184,3.96Zm.5127-6.1768h1.0938l-1.3086,1.4355-.7275-.002.9424-1.4336Z"/>
    <path class="cls-5" d="m308.9307,71.4219l1.3086-4.0576h.9229l-1.8945,5.2832h-.6885l-1.9141-5.2832h.9229l1.3428,4.0576Z"/>
    <path class="cls-5" d="m313.7598,71.3242l1.2305-3.96h.9668l-2.124,6.0986c-.3291.8789-.8516,1.3184-1.5674,1.3184l-.1709-.0146-.3369-.0635v-.7324l.2441.0195c.3057,0,.5449-.0615.7148-.1855.1719-.124.3125-.3496.4229-.6787l.2002-.5371-1.8848-5.2246h.9863l1.3184,3.96Zm.5127-6.1768h1.0938l-1.3086,1.4355-.7275-.002.9424-1.4336Z"/>
    <path class="cls-5" d="m318.2373,70.2012l-.5664.5908v1.8555h-.9033v-7.5h.9033v4.5361l.4834-.5811,1.6455-1.7383h1.0986l-2.0557,2.207,2.2949,3.0762h-1.0596l-1.8408-2.4463Z"/>
    <path class="cls-5" d="m321.5918,69.957c0-.5176.1016-.9834.3057-1.3965.2031-.4131.4863-.7324.8496-.957.3623-.2246.7764-.3369,1.2422-.3369.7197,0,1.3008.249,1.7461.7471.4434.498.666,1.1602.666,1.9873v.0635c0,.5146-.0986.9756-.2949,1.3838-.1973.4092-.4785.7275-.8457.9551-.3652.2275-.7861.3418-1.2617.3418-.7158,0-1.2969-.249-1.7402-.7471-.4453-.498-.667-1.1572-.667-1.9775v-.0635Zm.9082.1074c0,.5859.1357,1.0566.4072,1.4111.2725.3545.6357.5322,1.0918.5322.459,0,.8232-.1797,1.0938-.54.2705-.3594.4053-.8633.4053-1.5107,0-.5791-.1377-1.0488-.4131-1.4092-.2744-.3594-.6396-.5391-1.0957-.5391-.4463,0-.8057.1777-1.0791.5322s-.4102.8623-.4102,1.5234Z"/>
    <path class="cls-5" d="m328.3887,67.3643l.0293.6641c.4033-.5078.9307-.7617,1.582-.7617,1.1162,0,1.6797.6299,1.6895,1.8896v3.4912h-.9033v-3.4961c-.0029-.3809-.0898-.6621-.2617-.8447-.1699-.1826-.4365-.2734-.7979-.2734-.293,0-.5498.0781-.7715.2344s-.3936.3613-.5176.6152v3.7646h-.9033v-5.2832h.8545Z"/>
    <path class="cls-5" d="m340,70.0645c0,.8076-.1855,1.4561-.5566,1.9463-.3711.4893-.8691.7344-1.4941.7344-.667,0-1.1836-.2363-1.5479-.708l-.0439.6104h-.8301v-7.5h.9033v2.7979c.3643-.4521.8672-.6787,1.5088-.6787s1.1445.2422,1.5117.7275c.3652.4854.5488,1.1494.5488,1.9922v.0781Zm-.9033-.1025c0-.6152-.1191-1.0908-.3564-1.4258s-.5791-.5029-1.0254-.5029c-.5957,0-1.0234.2764-1.2842.8301v2.2852c.2764.5537.708.8301,1.2939.8301.4326,0,.7695-.168,1.0107-.5029s.3613-.8398.3613-1.5137Z"/>
    <path class="cls-5" d="m343.3301,72.7451c-.7158,0-1.2988-.2354-1.748-.7051-.4492-.4707-.6738-1.0996-.6738-1.8877v-.166c0-.5244.1006-.9922.2998-1.4033.2012-.4121.4805-.7344.8398-.9668.3604-.2334.75-.3496,1.1699-.3496.6865,0,1.2207.2266,1.6016.6787s.5713,1.1006.5713,1.9434v.376h-3.5791c.0127.5205.165.9414.457,1.2617.291.3213.6611.4814,1.1104.4814.3193,0,.5889-.0654.8105-.1953s.415-.3027.5811-.5176l.5518.4297c-.4424.6807-1.1064,1.0205-1.9922,1.0205Zm-.1221-6.7676l.7324-.8301h.7812v.0488l-1.2402,1.3379h-.5518l-1.2256-1.3379v-.0488h.7666l.7373.8301Zm.0098,2.0312c-.3643,0-.6709.1328-.918.3984-.2471.2646-.4004.6367-.459,1.1152h2.6465v-.0684c-.0264-.459-.1494-.8145-.3711-1.0664-.2217-.2529-.5205-.3789-.8984-.3789Z"/>
    <path class="cls-5" d="m347.3389,68.0039c.4004-.4912.9209-.7373,1.5625-.7373,1.1162,0,1.6797.6299,1.6895,1.8896v3.4912h-.9033v-3.4961c-.0029-.3809-.0898-.6621-.2617-.8447-.1699-.1826-.4365-.2734-.7979-.2734-.293,0-.5498.0781-.7715.2344s-.3936.3613-.5176.6152v3.7646h-.9033v-7.5h.9033v2.8564Z"/>
    <path class="cls-5" d="m354.1357,72.7451c-.7158,0-1.2988-.2354-1.748-.7051-.4492-.4707-.6738-1.0996-.6738-1.8877v-.166c0-.5244.1006-.9922.2998-1.4033.2012-.4121.4805-.7344.8398-.9668.3604-.2334.75-.3496,1.1699-.3496.6865,0,1.2207.2266,1.6016.6787s.5713,1.1006.5713,1.9434v.376h-3.5791c.0127.5205.165.9414.457,1.2617.291.3213.6611.4814,1.1104.4814.3193,0,.5889-.0654.8105-.1953s.415-.3027.5811-.5176l.5518.4297c-.4424.6807-1.1064,1.0205-1.9922,1.0205Zm-.1221-6.7676l.7324-.8301h.7812v.0488l-1.2402,1.3379h-.5518l-1.2256-1.3379v-.0488h.7666l.7373.8301Zm.0098,2.0312c-.3643,0-.6709.1328-.918.3984-.2471.2646-.4004.6367-.459,1.1152h2.6465v-.0684c-.0264-.459-.1494-.8145-.3711-1.0664-.2217-.2529-.5205-.3789-.8984-.3789Z"/>
    <path class="cls-5" d="m358.0908,67.3643l.0244.5859c.3877-.4561.9102-.6836,1.5674-.6836.7393,0,1.2422.2832,1.5088.8496.1758-.2539.4043-.459.6865-.6152.2812-.1562.6143-.2344.998-.2344,1.1592,0,1.748.6133,1.7676,1.8408v3.54h-.9033v-3.4863c0-.3779-.0859-.6602-.2588-.8477-.1729-.1865-.4619-.2803-.8691-.2803-.335,0-.6133.1006-.835.2998-.2217.2012-.3496.4697-.3857.8086v3.5059h-.9082v-3.4619c0-.7686-.376-1.1523-1.1279-1.1523-.5928,0-.998.252-1.2158.7568v3.8574h-.9033v-5.2832h.8545Z"/>
    <path class="cls-5" d="m233.5156,84.0078c.3223,0,.6035-.0977.8447-.293s.374-.4395.4004-.7324h.8545c-.0166.3027-.1201.5908-.3125.8643s-.4482.4912-.7695.6543c-.3203.1631-.6592.2441-1.0176.2441-.7197,0-1.291-.2402-1.7168-.7207-.4238-.4795-.6367-1.1367-.6367-1.9697v-.1514c0-.5146.0947-.9717.2832-1.3721s.46-.7109.8125-.9326c.3535-.2217.7715-.332,1.2529-.332.5928,0,1.085.1777,1.4775.5322.3916.3545.6006.8154.627,1.3818h-.8545c-.0264-.3418-.1553-.623-.3877-.8418-.2334-.2207-.5205-.3301-.8623-.3301-.459,0-.8145.165-1.0674.4961-.252.3301-.3779.8076-.3779,1.4326v.1709c0,.6084.125,1.0771.376,1.4062s.6084.4932,1.0742.4932Z"/>
    <path class="cls-5" d="m238.8232,84.7451c-.7158,0-1.2988-.2354-1.748-.7051-.4492-.4707-.6738-1.0996-.6738-1.8877v-.166c0-.5244.1006-.9922.2998-1.4033.2012-.4121.4805-.7344.8398-.9668.3604-.2334.75-.3496,1.1699-.3496.6865,0,1.2207.2266,1.6016.6787s.5713,1.1006.5713,1.9434v.376h-3.5791c.0127.5205.165.9414.457,1.2617.291.3213.6611.4814,1.1104.4814.3193,0,.5889-.0654.8105-.1953s.415-.3027.5811-.5176l.5518.4297c-.4424.6807-1.1064,1.0205-1.9922,1.0205Zm-.1123-4.7363c-.3643,0-.6709.1328-.918.3984-.2471.2646-.4004.6367-.459,1.1152h2.6465v-.0684c-.0264-.459-.1494-.8145-.3711-1.0664-.2217-.2529-.5205-.3789-.8984-.3789Z"/>
    <path class="cls-5" d="m242.9102,84.6475h-.9033v-7.5h.9033v7.5Z"/>
    <path class="cls-5" d="m246.5479,84.7451c-.7158,0-1.2988-.2354-1.748-.7051-.4492-.4707-.6738-1.0996-.6738-1.8877v-.166c0-.5244.1006-.9922.2998-1.4033.2012-.4121.4805-.7344.8398-.9668.3604-.2334.75-.3496,1.1699-.3496.6865,0,1.2207.2266,1.6016.6787s.5713,1.1006.5713,1.9434v.376h-3.5791c.0127.5205.165.9414.457,1.2617.291.3213.6611.4814,1.1104.4814.3193,0,.5889-.0654.8105-.1953s.415-.3027.5811-.5176l.5518.4297c-.4424.6807-1.1064,1.0205-1.9922,1.0205Zm-.1123-4.7363c-.3643,0-.6709.1328-.918.3984-.2471.2646-.4004.6367-.459,1.1152h2.6465v-.0684c-.0264-.459-.1494-.8145-.3711-1.0664-.2217-.2529-.5205-.3789-.8984-.3789Zm.4395-2.8613h1.0938l-1.3086,1.4355-.7275-.002.9424-1.4336Z"/>
    <path class="cls-5" d="m250.5566,80.0039c.4004-.4912.9209-.7373,1.5625-.7373,1.1162,0,1.6797.6299,1.6895,1.8896v3.4912h-.9033v-3.4961c-.0029-.3809-.0898-.6621-.2617-.8447-.1699-.1826-.4365-.2734-.7979-.2734-.293,0-.5498.0781-.7715.2344s-.3936.3613-.5176.6152v3.7646h-.9033v-7.5h.9033v2.8564Z"/>
    <path class="cls-5" d="m254.9219,81.957c0-.5176.1016-.9834.3057-1.3965.2031-.4131.4863-.7324.8496-.957.3623-.2246.7764-.3369,1.2422-.3369.7197,0,1.3008.249,1.7461.7471.4434.498.666,1.1602.666,1.9873v.0635c0,.5146-.0986.9756-.2949,1.3838-.1973.4092-.4785.7275-.8457.9551-.3652.2275-.7861.3418-1.2617.3418-.7158,0-1.2969-.249-1.7402-.7471-.4453-.498-.667-1.1572-.667-1.9775v-.0635Zm.9082.1074c0,.5859.1357,1.0566.4072,1.4111.2725.3545.6357.5322,1.0918.5322.459,0,.8232-.1797,1.0938-.54.2705-.3594.4053-.8633.4053-1.5107,0-.5791-.1377-1.0488-.4131-1.4092-.2744-.3594-.6396-.5391-1.0957-.5391-.4463,0-.8057.1777-1.0791.5322s-.4102.8623-.4102,1.5234Z"/>
    <path class="cls-5" d="m265.8936,80.1748c-.1367-.0225-.2852-.0342-.4443-.0342-.5928,0-.9941.252-1.2061.7568v3.75h-.9033v-5.2832h.8789l.0146.6104c.2959-.4717.7158-.708,1.2598-.708.1758,0,.3096.0225.4004.0684v.8398Z"/>
    <path class="cls-5" d="m266.3867,81.957c0-.5176.1016-.9834.3057-1.3965.2031-.4131.4863-.7324.8496-.957.3623-.2246.7764-.3369,1.2422-.3369.7197,0,1.3008.249,1.7461.7471.4434.498.666,1.1602.666,1.9873v.0635c0,.5146-.0986.9756-.2949,1.3838-.1973.4092-.4785.7275-.8457.9551-.3652.2275-.7861.3418-1.2617.3418-.7158,0-1.2969-.249-1.7402-.7471-.4453-.498-.667-1.1572-.667-1.9775v-.0635Zm.9082.1074c0,.5859.1357,1.0566.4072,1.4111.2725.3545.6357.5322,1.0918.5322.459,0,.8232-.1797,1.0938-.54.2705-.3594.4053-.8633.4053-1.5107,0-.5791-.1377-1.0488-.4131-1.4092-.2744-.3594-.6396-.5391-1.0957-.5391-.4463,0-.8057.1777-1.0791.5322s-.4102.8623-.4102,1.5234Z"/>
    <path class="cls-5" d="m273.8037,82.2012l-.5664.5908v1.8555h-.9033v-7.5h.9033v4.5361l.4834-.5811,1.6455-1.7383h1.0986l-2.0557,2.207,2.2949,3.0762h-1.0596l-1.8408-2.4463Z"/>
    <path class="cls-5" d="m280.6592,84.125c-.3516.4131-.8672.6201-1.5479.6201-.5635,0-.9922-.1641-1.2861-.4902-.2949-.3281-.4443-.8115-.4473-1.4531v-3.4375h.9033v3.4131c0,.8008.3252,1.2012.9766,1.2012.6904,0,1.1494-.2568,1.377-.7715v-3.8428h.9033v5.2832h-.8594l-.0195-.5225Z"/>
    <path class="cls-5" d="m286.3184,79.3643v5.8936c0,1.0156-.4609,1.5234-1.3818,1.5234-.1982,0-.3828-.0293-.5518-.0869v-.7188c.1045.0264.2412.0391.4102.0391.2021,0,.3555-.0547.4619-.1641.1055-.1084.1582-.2988.1582-.5693v-5.917h.9033Zm-.9961-1.4014c0-.1436.0449-.2666.1338-.3682.0898-.1035.2207-.1543.3936-.1543.1758,0,.3096.0508.4004.1514s.1367.2246.1367.3711-.0459.2686-.1367.3662-.2246.1465-.4004.1465-.3076-.0488-.3955-.1465-.1318-.2197-.1318-.3662Z"/>
    <path class="cls-5" d="m289.9658,84.7451c-.7158,0-1.2988-.2354-1.748-.7051-.4492-.4707-.6738-1.0996-.6738-1.8877v-.166c0-.5244.1006-.9922.2998-1.4033.2012-.4121.4805-.7344.8398-.9668.3604-.2334.75-.3496,1.1699-.3496.6865,0,1.2207.2266,1.6016.6787s.5713,1.1006.5713,1.9434v.376h-3.5791c.0127.5205.165.9414.457,1.2617.291.3213.6611.4814,1.1104.4814.3193,0,.5889-.0654.8105-.1953s.415-.3027.5811-.5176l.5518.4297c-.4424.6807-1.1064,1.0205-1.9922,1.0205Zm-.1123-4.7363c-.3643,0-.6709.1328-.918.3984-.2471.2646-.4004.6367-.459,1.1152h2.6465v-.0684c-.0264-.459-.1494-.8145-.3711-1.0664-.2217-.2529-.5205-.3789-.8984-.3789Z"/>
    <path class="cls-5" d="m298.7744,84.6475h-1.4111v-5.4395l-1.6846.5225v-1.1475l2.9443-1.0547h.1514v7.1191Z"/>
    <path class="cls-5" d="m301.5088,86.4297l-.7373-.3857.1758-.3174c.2178-.3975.3301-.793.3369-1.1865v-1.0938h1.1914l-.0049.9766c-.0029.3613-.0947.7256-.2734,1.0938s-.4082.6719-.6885.9131Z"/>
    <path class="cls-5" d="m307.7002,81.9717h.8057v1.1377h-.8057v1.5381h-1.4111v-1.5381h-2.915l-.0635-.8887,2.9639-4.6826h1.4258v4.4336Zm-2.9834,0h1.5723v-2.5098l-.0928.1611-1.4795,2.3486Z"/>
    <path class="cls-5" d="m309.4727,81.1514l.4102-3.6133h3.9844v1.1768h-2.8271l-.1758,1.5283c.335-.1787.6914-.2686,1.0693-.2686.6768,0,1.208.21,1.5918.6299s.5762,1.0078.5762,1.7627c0,.459-.0967.8701-.291,1.2334-.1934.3623-.4707.6445-.832.8438-.3613.2012-.7881.3008-1.2793.3008-.4297,0-.8281-.0869-1.1963-.2617-.3682-.1738-.6582-.4189-.8721-.7344-.2129-.3154-.3262-.6758-.3389-1.0791h1.3965c.0293.2959.1328.5264.3096.6904.1777.165.4102.2471.6963.2471.3193,0,.5645-.1143.7373-.3447.1729-.2285.2588-.5537.2588-.9736,0-.4033-.0996-.7129-.2979-.9277s-.4805-.3223-.8447-.3223c-.335,0-.6074.0879-.8154.2637l-.1367.127-1.123-.2783Z"/>
    <path class="cls-5" d="m319.5557,77.5381l1.8262,5.1562,1.8164-5.1562h1.9238v7.1094h-1.4697v-1.9434l.1465-3.3545-1.9189,5.2979h-1.0059l-1.9141-5.293.1465,3.3496v1.9434h-1.4648v-7.1094h1.9141Z"/>
    <path class="cls-5" d="m331.9385,82.5967l.957-5.0586h1.46l-1.5771,7.1094h-1.4746l-1.1572-4.7559-1.1572,4.7559h-1.4746l-1.5771-7.1094h1.46l.9619,5.0488,1.1719-5.0488h1.2402l1.167,5.0586Z"/>
    <path class="cls-5" d="m231.3623,93.7617c0-.7354.0986-1.4424.2959-2.1191.1963-.6768.4902-1.292.8809-1.8457s.7959-.9443,1.2158-1.1719l.1855.5957c-.4756.3643-.8652.9209-1.1689,1.6699-.3047.749-.4717,1.5869-.501,2.5146l-.0049.415c0,1.2568.2295,2.3467.6885,3.2715.2764.5537.6055.9863.9863,1.2988l-.1855.5518c-.4326-.2412-.8467-.6445-1.2402-1.2109-.7686-1.1064-1.1523-2.4297-1.1523-3.9697Z"/>
    <path class="cls-5" d="m236.2891,94.2012l-.5664.5908v1.8555h-.9033v-7.5h.9033v4.5361l.4834-.5811,1.6455-1.7383h1.0986l-2.0557,2.207,2.2949,3.0762h-1.0596l-1.8408-2.4463Z"/>
    <path class="cls-5" d="m239.6436,93.957c0-.5176.1016-.9834.3057-1.3965.2031-.4131.4863-.7324.8496-.957.3623-.2246.7764-.3369,1.2422-.3369.7197,0,1.3008.249,1.7461.7471.4434.498.666,1.1602.666,1.9873v.0635c0,.5146-.0986.9756-.2949,1.3838-.1973.4092-.4785.7275-.8457.9551-.3652.2275-.7861.3418-1.2617.3418-.7158,0-1.2969-.249-1.7402-.7471-.4453-.498-.667-1.1572-.667-1.9775v-.0635Zm.9082.1074c0,.5859.1357,1.0566.4072,1.4111.2725.3545.6357.5322,1.0918.5322.459,0,.8232-.1797,1.0938-.54.2705-.3594.4053-.8633.4053-1.5107,0-.5791-.1377-1.0488-.4131-1.4092-.2744-.3594-.6396-.5391-1.0957-.5391-.4463,0-.8057.1777-1.0791.5322s-.4102.8623-.4102,1.5234Z"/>
    <path class="cls-5" d="m247.7783,96.7451c-.7158,0-1.2988-.2354-1.748-.7051-.4492-.4707-.6738-1.0996-.6738-1.8877v-.166c0-.5244.1006-.9922.2998-1.4033.2012-.4121.4805-.7344.8398-.9668.3604-.2334.75-.3496,1.1699-.3496.6865,0,1.2207.2266,1.6016.6787s.5713,1.1006.5713,1.9434v.376h-3.5791c.0127.5205.165.9414.457,1.2617.291.3213.6611.4814,1.1104.4814.3193,0,.5889-.0654.8105-.1953s.415-.3027.5811-.5176l.5518.4297c-.4424.6807-1.1064,1.0205-1.9922,1.0205Zm-.1123-4.7363c-.3643,0-.6709.1328-.918.3984-.2471.2646-.4004.6367-.459,1.1152h2.6465v-.0684c-.0264-.459-.1494-.8145-.3711-1.0664-.2217-.2529-.5205-.3789-.8984-.3789Z"/>
    <path class="cls-5" d="m251.3281,96.6475v-4.585h-.835v-.6982h.835v-.542c0-.5664.1514-1.0039.4541-1.3135s.7305-.4639,1.2842-.4639c.208,0,.415.0273.6201.082l-.0488.7285c-.1533-.0293-.3154-.0439-.4883-.0439-.293,0-.5195.0859-.6787.2568-.1592.1719-.2393.418-.2393.7373v.5586h1.1279v.6982h-1.1279v4.585h-.9033Z"/>
    <path class="cls-5" d="m254.3604,89.9629c0-.1465.0449-.2705.1338-.3711.0898-.1006.2227-.1514.3984-.1514s.3096.0508.4004.1514.1367.2246.1367.3711-.0459.2686-.1367.3662-.2246.1465-.4004.1465-.3086-.0488-.3984-.1465c-.0889-.0977-.1338-.2197-.1338-.3662Zm.9766,6.6846h-.9033v-5.2832h.9033v5.2832Z"/>
    <path class="cls-5" d="m258.9014,96.0078c.3223,0,.6035-.0977.8447-.293s.374-.4395.4004-.7324h.8545c-.0166.3027-.1201.5908-.3125.8643s-.4482.4912-.7695.6543c-.3203.1631-.6592.2441-1.0176.2441-.7197,0-1.291-.2402-1.7168-.7207-.4238-.4795-.6367-1.1367-.6367-1.9697v-.1514c0-.5146.0947-.9717.2832-1.3721s.46-.7109.8125-.9326c.3535-.2217.7715-.332,1.2529-.332.5928,0,1.085.1777,1.4775.5322.3916.3545.6006.8154.627,1.3818h-.8545c-.0264-.3418-.1553-.623-.3877-.8418-.2334-.2207-.5205-.3301-.8623-.3301-.459,0-.8145.165-1.0674.4961-.252.3301-.3779.8076-.3779,1.4326v.1709c0,.6084.125,1.0771.376,1.4062s.6084.4932,1.0742.4932Z"/>
    <path class="cls-5" d="m262.0215,89.9629c0-.1465.0449-.2705.1338-.3711.0898-.1006.2227-.1514.3984-.1514s.3096.0508.4004.1514.1367.2246.1367.3711-.0459.2686-.1367.3662-.2246.1465-.4004.1465-.3086-.0488-.3984-.1465c-.0889-.0977-.1338-.2197-.1338-.3662Zm.9766,6.6846h-.9033v-5.2832h.9033v5.2832Z"/>
    <path class="cls-5" d="m266.6357,96.7451c-.7158,0-1.2988-.2354-1.748-.7051-.4492-.4707-.6738-1.0996-.6738-1.8877v-.166c0-.5244.1006-.9922.2998-1.4033.2012-.4121.4805-.7344.8398-.9668.3604-.2334.75-.3496,1.1699-.3496.6865,0,1.2207.2266,1.6016.6787s.5713,1.1006.5713,1.9434v.376h-3.5791c.0127.5205.165.9414.457,1.2617.291.3213.6611.4814,1.1104.4814.3193,0,.5889-.0654.8105-.1953s.415-.3027.5811-.5176l.5518.4297c-.4424.6807-1.1064,1.0205-1.9922,1.0205Zm-.1123-4.7363c-.3643,0-.6709.1328-.918.3984-.2471.2646-.4004.6367-.459,1.1152h2.6465v-.0684c-.0264-.459-.1494-.8145-.3711-1.0664-.2217-.2529-.5205-.3789-.8984-.3789Z"/>
    <path class="cls-5" d="m270.5957,91.3643l.0293.6641c.4033-.5078.9307-.7617,1.582-.7617,1.1162,0,1.6797.6299,1.6895,1.8896v3.4912h-.9033v-3.4961c-.0029-.3809-.0898-.6621-.2617-.8447-.1699-.1826-.4365-.2734-.7979-.2734-.293,0-.5498.0781-.7715.2344s-.3936.3613-.5176.6152v3.7646h-.9033v-5.2832h.8545Z"/>
    <path class="cls-5" d="m276.4844,90.085v1.2793h.9863v.6982h-.9863v3.2803c0,.2119.0439.3711.1318.4766.0879.1064.2373.1592.4492.1592.1045,0,.2471-.0195.4297-.0586v.7285c-.2373.0645-.4688.0967-.6934.0967-.4033,0-.708-.1221-.9131-.3662s-.3076-.5908-.3076-1.04v-3.2764h-.9619v-.6982h.9619v-1.2793h.9033Z"/>
    <path class="cls-5" d="m282.7441,95.4219l1.3086-4.0576h.9229l-1.8945,5.2832h-.6885l-1.9141-5.2832h.9229l1.3428,4.0576Z"/>
    <path class="cls-5" d="m287.5732,95.3242l1.2305-3.96h.9668l-2.124,6.0986c-.3291.8789-.8516,1.3184-1.5674,1.3184l-.1709-.0146-.3369-.0635v-.7324l.2441.0195c.3057,0,.5449-.0615.7148-.1855.1719-.124.3125-.3496.4229-.6787l.2002-.5371-1.8848-5.2246h.9863l1.3184,3.96Z"/>
    <path class="cls-5" d="m293.8379,96.125c-.3516.4131-.8672.6201-1.5479.6201-.5635,0-.9922-.1641-1.2861-.4902-.2949-.3281-.4443-.8115-.4473-1.4531v-3.4375h.9033v3.4131c0,.8008.3252,1.2012.9766,1.2012.6904,0,1.1494-.2568,1.377-.7715v-3.8428h.9033v5.2832h-.8594l-.0195-.5225Z"/>
    <path class="cls-5" d="m296.9385,95.9102h3.0908v.7373h-4.1943v-.6641l2.915-3.8721h-2.8711v-.7471h4.0039v.6396l-2.9443,3.9062Zm.9717-5.9326l.7324-.8301h.7812v.0488l-1.2402,1.3379h-.5518l-1.2256-1.3379v-.0488h.7666l.7373.8301Z"/>
    <path class="cls-5" d="m301.0498,89.9629c0-.1465.0449-.2705.1338-.3711.0898-.1006.2227-.1514.3984-.1514s.3096.0508.4004.1514.1367.2246.1367.3711-.0459.2686-.1367.3662-.2246.1465-.4004.1465-.3086-.0488-.3984-.1465c-.0889-.0977-.1338-.2197-.1338-.3662Zm.9766,6.6846h-.9033v-5.2832h.9033v5.2832Z"/>
    <path class="cls-5" d="m304.6973,90.085v1.2793h.9863v.6982h-.9863v3.2803c0,.2119.0439.3711.1318.4766.0879.1064.2373.1592.4492.1592.1045,0,.2471-.0195.4297-.0586v.7285c-.2373.0645-.4688.0967-.6934.0967-.4033,0-.708-.1221-.9131-.3662s-.3076-.5908-.3076-1.04v-3.2764h-.9619v-.6982h.9619v-1.2793h.9033Z"/>
    <path class="cls-5" d="m307.7295,89.1523h1.0938l-1.3086,1.4355-.7275-.0029.9424-1.4326Zm-.0098,7.4951h-.9082v-5.2832h.9082v5.2832Z"/>
    <path class="cls-5" d="m316.25,96.6475h-4.6582v-.6494l2.4609-2.7344c.3643-.4131.6162-.749.7549-1.0088.1377-.2578.207-.5264.207-.8027,0-.3711-.1123-.6758-.3369-.9131s-.5244-.3564-.8984-.3564c-.4492,0-.7979.1279-1.0479.3828-.248.2559-.373.6113-.373,1.0674h-.9033c0-.6543.2109-1.1836.6318-1.5869.4219-.4033.9863-.6055,1.6924-.6055.6611,0,1.1836.1738,1.5674.5195.3838.3477.5762.8086.5762,1.3848,0,.7002-.4463,1.5332-1.3379,2.5l-1.9043,2.0654h3.5693v.7373Z"/>
    <path class="cls-5" d="m320.6689,93.5225c-.1885.2246-.4141.4053-.6758.542-.2627.1367-.5498.2051-.8623.2051-.4102,0-.7676-.1006-1.0713-.3027-.3047-.2021-.54-.4854-.7061-.8525-.166-.3652-.249-.7705-.249-1.2129,0-.4756.0898-.9033.2715-1.2842.1797-.3809.4365-.6719.7686-.874s.7197-.3027,1.1621-.3027c.7031,0,1.2568.2627,1.6631.7891.4043.5254.6074,1.2422.6074,2.1504v.2637c0,1.3838-.2734,2.3936-.8203,3.0293-.5469.6367-1.3721.9629-2.4756.9795h-.1758v-.7666h.1904c.7451-.0127,1.3184-.207,1.7188-.582s.6182-.9688.6543-1.7812Zm-1.3916,0c.3027,0,.582-.0928.8369-.2783.2559-.1855.4424-.415.5596-.6885v-.3613c0-.5928-.1289-1.0742-.3857-1.4453s-.583-.5566-.9766-.5566c-.3975,0-.7158.1523-.957.457-.2412.3037-.3613.7051-.3613,1.2031,0,.4854.1162.8848.3496,1.1992.2324.3135.5439.4707.9346.4707Z"/>
    <path class="cls-5" d="m322.7441,90.9053c0-.4268.1357-.7783.4072-1.0547.2725-.2764.6211-.415,1.0479-.415.4326,0,.7842.1396,1.0518.417.2695.2793.4033.6396.4033,1.082v.3467c0,.4297-.1357.7803-.4072,1.0518-.2725.2725-.6182.4082-1.0381.4082-.4229,0-.7734-.1357-1.0498-.4082-.2764-.2715-.415-.6338-.415-1.0859v-.3418Zm.6738.374c0,.2549.0713.4639.2148.6289s.335.2471.5762.2471c.2314,0,.417-.0801.5596-.2402.1406-.1592.2119-.3779.2119-.6553v-.3574c0-.2549-.0703-.4648-.21-.6309-.1396-.167-.3301-.25-.5713-.25s-.4316.083-.5713.25c-.1396.166-.21.3828-.21.6504v.3574Zm.9961,4.8311l-.5127-.3223,3.4717-5.5566.5127.3223-3.4717,5.5566Zm1.792-1.2061c0-.4268.1357-.7773.4082-1.0518.2715-.2754.6201-.4131,1.0469-.4131s.7764.1367,1.0498.4102.4102.6367.4102,1.0889v.3467c0,.4268-.1357.7773-.4072,1.0518-.2725.2754-.6201.4131-1.043.4131s-.7734-.1357-1.0498-.4072c-.2764-.2725-.415-.6348-.415-1.0869v-.3516Zm.6738.3789c0,.2578.0713.4688.2148.6338s.335.2471.5762.2471c.2344,0,.4219-.0811.5615-.2422s.21-.3809.21-.6582v-.3623c0-.2578-.0703-.4678-.2129-.6309-.1406-.1631-.3311-.2451-.5684-.2451-.2314,0-.4189.0811-.5645.2422-.1445.1611-.2168.3789-.2168.6533v.3623Z"/>
    <path class="cls-5" d="m332.3242,93.8105c0,.7256-.0947,1.4219-.2861,2.0869-.1895.666-.4814,1.2803-.873,1.8438-.3926.5635-.8037.9639-1.2334,1.2012l-.1904-.5518c.501-.3838.9043-.9805,1.209-1.79.3037-.8086.459-1.7061.4658-2.6924v-.1562c0-.6836-.0713-1.3193-.2148-1.9072-.1436-.5869-.3428-1.1133-.5986-1.5791-.2549-.4658-.542-.8281-.8613-1.0889l.1904-.5518c.4297.2373.8389.6348,1.2275,1.1914.3896.5566.6807,1.1699.875,1.8408.1934.6709.29,1.3887.29,2.1533Z"/>
    <path class="cls-5" d="m333.7354,96.1738c0-.1562.0469-.2861.1387-.3906.0938-.1045.2324-.1562.418-.1562s.3262.0518.4219.1562c.0967.1045.1445.2344.1445.3906,0,.1494-.0479.2754-.1445.376-.0957.1006-.2363.1514-.4219.1514s-.3242-.0508-.418-.1514c-.0918-.1006-.1387-.2266-.1387-.376Z"/>
  </g>
  <rect class="cls-4" x="357" y="145" width="34" height="12"/>
  <g>
    <path class="cls-7" d="m365.1104,148.2412l-2.9443,6.6016h-.9473l2.9346-6.3672h-3.8477v-.7422h4.8047v.5078Z"/>
    <path class="cls-7" d="m370.7939,154.8428h-4.6582v-.6494l2.4609-2.7344c.3647-.4131.6162-.749.7544-1.0088.1382-.2578.2075-.5264.2075-.8027,0-.3711-.1123-.6758-.3369-.9131s-.5239-.3564-.8984-.3564c-.4492,0-.7983.1279-1.0474.3828-.249.2559-.3735.6113-.3735,1.0674h-.9033c0-.6543.2109-1.1836.6323-1.5869s.9854-.6055,1.6919-.6055c.6606,0,1.1831.1738,1.5674.5195.3843.3477.5762.8086.5762,1.3848,0,.7002-.4458,1.5332-1.3379,2.5l-1.9043,2.0654h3.5693v.7373Z"/>
    <path class="cls-7" d="m376.209,151.8105c0,1.0576-.1807,1.8438-.542,2.3584s-.9263.7715-1.6943.7715c-.7583,0-1.3198-.252-1.6846-.7539-.3647-.5039-.5532-1.2549-.5664-2.2539v-1.2061c0-1.0449.1807-1.8213.542-2.3291s.9277-.7617,1.6992-.7617c.7651,0,1.3281.2451,1.6895.7344.3613.4902.5469,1.2461.5566,2.2686v1.1719Zm-.9033-1.2354c0-.7646-.1074-1.3223-.3223-1.6719-.2148-.3506-.5552-.5254-1.0205-.5254-.4624,0-.7993.1738-1.0107.5225s-.3208.8838-.3271,1.6064v1.4453c0,.7686.1113,1.3359.3345,1.7012.2231.3672.5605.5498,1.0132.5498.4458,0,.7773-.1729.9937-.5176s.3296-.8887.3394-1.6309v-1.4795Z"/>
    <path class="cls-7" d="m380.7842,149.5596l.0244.5859c.3872-.4561.9097-.6836,1.5674-.6836.7388,0,1.2417.2832,1.5088.8496.1758-.2539.4043-.459.686-.6152s.6143-.2344.9985-.2344c1.1587,0,1.748.6133,1.7676,1.8408v3.54h-.9033v-3.4863c0-.3779-.0864-.6602-.2588-.8477-.1724-.1865-.4624-.2803-.8691-.2803-.3354,0-.6138.1006-.835.2998-.2212.2012-.3501.4697-.3857.8086v3.5059h-.9082v-3.4619c0-.7686-.376-1.1523-1.1279-1.1523-.5923,0-.9976.252-1.2158.7568v3.8574h-.9033v-5.2832h.8545Z"/>
  </g>
  <rect class="cls-4" x="271" y="225" width="35" height="14"/>
  <g>
    <path class="cls-7" d="m279.1104,228.7412l-2.9443,6.6016h-.9473l2.9346-6.3672h-3.8477v-.7422h4.8047v.5078Z"/>
    <path class="cls-7" d="m284.7939,235.3428h-4.6582v-.6494l2.4609-2.7344c.3647-.4131.6162-.749.7544-1.0088.1382-.2578.2075-.5264.2075-.8027,0-.3711-.1123-.6758-.3369-.9131s-.5239-.3564-.8984-.3564c-.4492,0-.7983.1279-1.0474.3828-.249.2559-.3735.6113-.3735,1.0674h-.9033c0-.6543.2109-1.1836.6323-1.5869s.9854-.6055,1.6919-.6055c.6606,0,1.1831.1738,1.5674.5195.3843.3477.5762.8086.5762,1.3848,0,.7002-.4458,1.5332-1.3379,2.5l-1.9043,2.0654h3.5693v.7373Z"/>
    <path class="cls-7" d="m290.209,232.3105c0,1.0576-.1807,1.8438-.542,2.3584s-.9263.7715-1.6943.7715c-.7583,0-1.3198-.252-1.6846-.7539-.3647-.5039-.5532-1.2549-.5664-2.2539v-1.2061c0-1.0449.1807-1.8213.542-2.3291s.9277-.7617,1.6992-.7617c.7651,0,1.3281.2451,1.6895.7344.3613.4902.5469,1.2461.5566,2.2686v1.1719Zm-.9033-1.2354c0-.7646-.1074-1.3223-.3223-1.6719-.2148-.3506-.5552-.5254-1.0205-.5254-.4624,0-.7993.1738-1.0107.5225s-.3208.8838-.3271,1.6064v1.4453c0,.7686.1113,1.3359.3345,1.7012.2231.3672.5605.5498,1.0132.5498.4458,0,.7773-.1729.9937-.5176s.3296-.8887.3394-1.6309v-1.4795Z"/>
    <path class="cls-7" d="m294.7842,230.0596l.0244.5859c.3872-.4561.9097-.6836,1.5674-.6836.7388,0,1.2417.2832,1.5088.8496.1758-.2539.4043-.459.686-.6152s.6143-.2344.9985-.2344c1.1587,0,1.748.6133,1.7676,1.8408v3.54h-.9033v-3.4863c0-.3779-.0864-.6602-.2588-.8477-.1724-.1865-.4624-.2803-.8691-.2803-.3354,0-.6138.1006-.835.2998-.2212.2012-.3501.4697-.3857.8086v3.5059h-.9082v-3.4619c0-.7686-.376-1.1523-1.1279-1.1523-.5923,0-.9976.252-1.2158.7568v3.8574h-.9033v-5.2832h.8545Z"/>
  </g>
  <rect class="cls-4" x="428" y="186" width="35" height="14"/>
  <g>
    <path class="cls-7" d="m436.1104,189.7412l-2.9443,6.6016h-.9473l2.9346-6.3672h-3.8477v-.7422h4.8047v.5078Z"/>
    <path class="cls-7" d="m441.7939,196.3428h-4.6582v-.6494l2.4609-2.7344c.3647-.4131.6162-.749.7544-1.0088.1382-.2578.2075-.5264.2075-.8027,0-.3711-.1123-.6758-.3369-.9131s-.5239-.3564-.8984-.3564c-.4492,0-.7983.1279-1.0474.3828-.249.2559-.3735.6113-.3735,1.0674h-.9033c0-.6543.2109-1.1836.6323-1.5869s.9854-.6055,1.6919-.6055c.6606,0,1.1831.1738,1.5674.5195.3843.3477.5762.8086.5762,1.3848,0,.7002-.4458,1.5332-1.3379,2.5l-1.9043,2.0654h3.5693v.7373Z"/>
    <path class="cls-7" d="m447.209,193.3105c0,1.0576-.1807,1.8438-.542,2.3584s-.9263.7715-1.6943.7715c-.7583,0-1.3198-.252-1.6846-.7539-.3647-.5039-.5532-1.2549-.5664-2.2539v-1.2061c0-1.0449.1807-1.8213.542-2.3291s.9277-.7617,1.6992-.7617c.7651,0,1.3281.2451,1.6895.7344.3613.4902.5469,1.2461.5566,2.2686v1.1719Zm-.9033-1.2354c0-.7646-.1074-1.3223-.3223-1.6719-.2148-.3506-.5552-.5254-1.0205-.5254-.4624,0-.7993.1738-1.0107.5225s-.3208.8838-.3271,1.6064v1.4453c0,.7686.1113,1.3359.3345,1.7012.2231.3672.5605.5498,1.0132.5498.4458,0,.7773-.1729.9937-.5176s.3296-.8887.3394-1.6309v-1.4795Z"/>
    <path class="cls-7" d="m451.7842,191.0596l.0244.5859c.3872-.4561.9097-.6836,1.5674-.6836.7388,0,1.2417.2832,1.5088.8496.1758-.2539.4043-.459.686-.6152s.6143-.2344.9985-.2344c1.1587,0,1.748.6133,1.7676,1.8408v3.54h-.9033v-3.4863c0-.3779-.0864-.6602-.2588-.8477-.1724-.1865-.4624-.2803-.8691-.2803-.3354,0-.6138.1006-.835.2998-.2212.2012-.3501.4697-.3857.8086v3.5059h-.9082v-3.4619c0-.7686-.376-1.1523-1.1279-1.1523-.5923,0-.9976.252-1.2158.7568v3.8574h-.9033v-5.2832h.8545Z"/>
  </g>
  <rect class="cls-4" x="193" y="186" width="35" height="14"/>
  <g>
    <path class="cls-7" d="m201.1104,189.7412l-2.9443,6.6016h-.9473l2.9346-6.3672h-3.8477v-.7422h4.8047v.5078Z"/>
    <path class="cls-7" d="m206.7939,196.3428h-4.6582v-.6494l2.4609-2.7344c.3647-.4131.6162-.749.7544-1.0088.1382-.2578.2075-.5264.2075-.8027,0-.3711-.1123-.6758-.3369-.9131s-.5239-.3564-.8984-.3564c-.4492,0-.7983.1279-1.0474.3828-.249.2559-.3735.6113-.3735,1.0674h-.9033c0-.6543.2109-1.1836.6323-1.5869s.9854-.6055,1.6919-.6055c.6606,0,1.1831.1738,1.5674.5195.3843.3477.5762.8086.5762,1.3848,0,.7002-.4458,1.5332-1.3379,2.5l-1.9043,2.0654h3.5693v.7373Z"/>
    <path class="cls-7" d="m212.209,193.3105c0,1.0576-.1807,1.8438-.542,2.3584s-.9263.7715-1.6943.7715c-.7583,0-1.3198-.252-1.6846-.7539-.3647-.5039-.5532-1.2549-.5664-2.2539v-1.2061c0-1.0449.1807-1.8213.542-2.3291s.9277-.7617,1.6992-.7617c.7651,0,1.3281.2451,1.6895.7344.3613.4902.5469,1.2461.5566,2.2686v1.1719Zm-.9033-1.2354c0-.7646-.1074-1.3223-.3223-1.6719-.2148-.3506-.5552-.5254-1.0205-.5254-.4624,0-.7993.1738-1.0107.5225s-.3208.8838-.3271,1.6064v1.4453c0,.7686.1113,1.3359.3345,1.7012.2231.3672.5605.5498,1.0132.5498.4458,0,.7773-.1729.9937-.5176s.3296-.8887.3394-1.6309v-1.4795Z"/>
    <path class="cls-7" d="m216.7842,191.0596l.0244.5859c.3872-.4561.9097-.6836,1.5674-.6836.7388,0,1.2417.2832,1.5088.8496.1758-.2539.4043-.459.686-.6152s.6143-.2344.9985-.2344c1.1587,0,1.748.6133,1.7676,1.8408v3.54h-.9033v-3.4863c0-.3779-.0864-.6602-.2588-.8477-.1724-.1865-.4624-.2803-.8691-.2803-.3354,0-.6138.1006-.835.2998-.2212.2012-.3501.4697-.3857.8086v3.5059h-.9082v-3.4619c0-.7686-.376-1.1523-1.1279-1.1523-.5923,0-.9976.252-1.2158.7568v3.8574h-.9033v-5.2832h.8545Z"/>
  </g>
  <g id="wind-turbine-3" data-name="wind-turbine">
    <g id="tower-3" data-name="tower">
      <path class="cls-2" d="m139.4969,43.848h-1.9528l-.9752,46.2687c0,.4878.87.8833,1.9432.8833s1.9432-.3955,1.9432-.8833l-.9584-46.2687Z"/>
      <path class="cls-2" d="m137.9649,39.2581h1.2781c.908,0,1.6452.7372,1.6452,1.6452v3.9952c0,.4752-.3858.8609-.8609.8609h-2.8467c-.4752,0-.8609-.3858-.8609-.8609v-3.9952c0-.908.7372-1.6452,1.6452-1.6452Z"/>
    </g>
    <g id="blades-3" data-name="blades">
      <path class="cls-2" d="m138.0504,41.595v-14.5135l.2393-16.3921c.0041-.2816.1648-.5374.4167-.6633h0c.1564-.0782.3422.0273.3552.2017l1.7028,22.9307c.0762,1.0262-.0079,2.0579-.2494,3.0582l-1.3576,5.6242-1.107-.246Z"/>
      <path class="cls-2" d="m139.3646,41.8104l12.6185,7.1703,14.1336,8.3064c.2428.1427.3858.4088.3709.69h0c-.0093.1746-.1928.284-.3508.2091l-20.7781-9.8483c-.9298-.4407-1.7853-1.0236-2.5357-1.7277l-4.2192-3.9589.7608-.8409Z"/>
      <path class="cls-2" d="m138.391,42.8708l-12.569,7.2567-14.3156,7.9888c-.2459.1372-.5478.126-.7828-.0292h0c-.1459-.0964-.1475-.31-.0029-.4084l19.0072-12.94c.8506-.5791,1.7862-1.0221,2.7732-1.3131l5.5495-1.6364.3404,1.0816Z"/>
    </g>
    <circle id="centre-3" data-name="centre" class="cls-2" cx="138.6091" cy="42.1466" r="1.4163"/>
  </g>
  <g id="wind-turbine-4" data-name="wind-turbine">
    <g id="tower-4" data-name="tower">
      <path class="cls-2" d="m430.4969,43.848h-1.9528l-.9752,46.2687c0,.4878.87.8833,1.9432.8833s1.9432-.3955,1.9432-.8833l-.9584-46.2687Z"/>
      <path class="cls-2" d="m428.9649,39.2581h1.2781c.908,0,1.6452.7372,1.6452,1.6452v3.9952c0,.4752-.3858.8609-.8609.8609h-2.8467c-.4752,0-.8609-.3858-.8609-.8609v-3.9952c0-.908.7372-1.6452,1.6452-1.6452Z"/>
    </g>
    <g id="blades-4" data-name="blades">
      <path class="cls-2" d="m429.0504,41.595v-14.5135l.2393-16.3921c.0041-.2816.1648-.5374.4167-.6633h0c.1564-.0782.3422.0273.3552.2017l1.7028,22.9307c.0762,1.0262-.0079,2.0579-.2494,3.0582l-1.3576,5.6242-1.107-.246Z"/>
      <path class="cls-2" d="m430.3646,41.8104l12.6185,7.1703,14.1336,8.3064c.2428.1427.3858.4088.3709.69h0c-.0093.1746-.1928.284-.3508.2091l-20.7781-9.8483c-.9298-.4407-1.7853-1.0236-2.5357-1.7277l-4.2192-3.9589.7608-.8409Z"/>
      <path class="cls-2" d="m429.391,42.8708l-12.569,7.2567-14.3156,7.9888c-.2459.1372-.5478.126-.7828-.0292h0c-.1459-.0964-.1475-.31-.0029-.4084l19.0072-12.94c.8506-.5791,1.7862-1.0221,2.7732-1.3131l5.5495-1.6364.3404,1.0816Z"/>
    </g>
    <circle id="centre-4" data-name="centre" class="cls-2" cx="429.6091" cy="42.1466" r="1.4163"/>
  </g>
  <g id="wind-turbine-5" data-name="wind-turbine">
    <g id="tower-5" data-name="tower">
      <path class="cls-2" d="m430.4969,43.848h-1.9528l-.9752,46.2687c0,.4878.87.8833,1.9432.8833s1.9432-.3955,1.9432-.8833l-.9584-46.2687Z"/>
      <path class="cls-2" d="m428.9649,39.2581h1.2781c.908,0,1.6452.7372,1.6452,1.6452v3.9952c0,.4752-.3858.8609-.8609.8609h-2.8467c-.4752,0-.8609-.3858-.8609-.8609v-3.9952c0-.908.7372-1.6452,1.6452-1.6452Z"/>
    </g>
    <g id="blades-5" data-name="blades">
      <path class="cls-2" d="m429.0504,41.595v-14.5135l.2393-16.3921c.0041-.2816.1648-.5374.4167-.6633h0c.1564-.0782.3422.0273.3552.2017l1.7028,22.9307c.0762,1.0262-.0079,2.0579-.2494,3.0582l-1.3576,5.6242-1.107-.246Z"/>
      <path class="cls-2" d="m430.3646,41.8104l12.6185,7.1703,14.1336,8.3064c.2428.1427.3858.4088.3709.69h0c-.0093.1746-.1928.284-.3508.2091l-20.7781-9.8483c-.9298-.4407-1.7853-1.0236-2.5357-1.7277l-4.2192-3.9589.7608-.8409Z"/>
      <path class="cls-2" d="m429.391,42.8708l-12.569,7.2567-14.3156,7.9888c-.2459.1372-.5478.126-.7828-.0292h0c-.1459-.0964-.1475-.31-.0029-.4084l19.0072-12.94c.8506-.5791,1.7862-1.0221,2.7732-1.3131l5.5495-1.6364.3404,1.0816Z"/>
    </g>
    <circle id="centre-5" data-name="centre" class="cls-2" cx="429.6091" cy="42.1466" r="1.4163"/>
  </g>
  <g id="wind-turbine-6" data-name="wind-turbine">
    <g id="tower-6" data-name="tower">
      <path class="cls-2" d="m430.4969,43.848h-1.9528l-.9752,46.2687c0,.4878.87.8833,1.9432.8833s1.9432-.3955,1.9432-.8833l-.9584-46.2687Z"/>
      <path class="cls-2" d="m428.9649,39.2581h1.2781c.908,0,1.6452.7372,1.6452,1.6452v3.9952c0,.4752-.3858.8609-.8609.8609h-2.8467c-.4752,0-.8609-.3858-.8609-.8609v-3.9952c0-.908.7372-1.6452,1.6452-1.6452Z"/>
    </g>
    <g id="blades-6" data-name="blades">
      <path class="cls-2" d="m429.0504,41.595v-14.5135l.2393-16.3921c.0041-.2816.1648-.5374.4167-.6633h0c.1564-.0782.3422.0273.3552.2017l1.7028,22.9307c.0762,1.0262-.0079,2.0579-.2494,3.0582l-1.3576,5.6242-1.107-.246Z"/>
      <path class="cls-2" d="m430.3646,41.8104l12.6185,7.1703,14.1336,8.3064c.2428.1427.3858.4088.3709.69h0c-.0093.1746-.1928.284-.3508.2091l-20.7781-9.8483c-.9298-.4407-1.7853-1.0236-2.5357-1.7277l-4.2192-3.9589.7608-.8409Z"/>
      <path class="cls-2" d="m429.391,42.8708l-12.569,7.2567-14.3156,7.9888c-.2459.1372-.5478.126-.7828-.0292h0c-.1459-.0964-.1475-.31-.0029-.4084l19.0072-12.94c.8506-.5791,1.7862-1.0221,2.7732-1.3131l5.5495-1.6364.3404,1.0816Z"/>
    </g>
    <circle id="centre-6" data-name="centre" class="cls-2" cx="429.6091" cy="42.1466" r="1.4163"/>
  </g>
  <g id="wind-turbine-7" data-name="wind-turbine">
    <g id="tower-7" data-name="tower">
      <path class="cls-2" d="m618.4969,146.848h-1.9528l-.9752,46.2687c0,.4878.87.8833,1.9432.8833s1.9432-.3955,1.9432-.8833l-.9584-46.2687Z"/>
      <path class="cls-2" d="m616.9649,142.2581h1.2781c.908,0,1.6452.7372,1.6452,1.6452v3.9952c0,.4752-.3858.8609-.8609.8609h-2.8467c-.4752,0-.8609-.3858-.8609-.8609v-3.9952c0-.908.7372-1.6452,1.6452-1.6452Z"/>
    </g>
    <g id="blades-7" data-name="blades">
      <path class="cls-2" d="m617.0504,144.595v-14.5135l.2393-16.3921c.0041-.2816.1648-.5374.4167-.6633h0c.1564-.0782.3422.0273.3552.2017l1.7028,22.9307c.0762,1.0262-.0079,2.0579-.2494,3.0582l-1.3576,5.6242-1.107-.246Z"/>
      <path class="cls-2" d="m618.3646,144.8104l12.6185,7.1703,14.1336,8.3064c.2428.1427.3858.4088.3709.69h0c-.0093.1746-.1928.284-.3508.2091l-20.7781-9.8483c-.9298-.4407-1.7853-1.0236-2.5357-1.7277l-4.2192-3.9589.7608-.8409Z"/>
      <path class="cls-2" d="m617.391,145.8708l-12.569,7.2567-14.3156,7.9888c-.2459.1372-.5478.126-.7828-.0292h0c-.1459-.0964-.1475-.31-.0029-.4084l19.0072-12.94c.8506-.5791,1.7862-1.0221,2.7732-1.3131l5.5495-1.6364.3404,1.0816Z"/>
    </g>
    <circle id="centre-7" data-name="centre" class="cls-2" cx="617.6091" cy="145.1466" r="1.4163"/>
  </g>
  <g id="wind-turbine-8" data-name="wind-turbine">
    <g id="tower-8" data-name="tower">
      <path class="cls-2" d="m514.4969,249.848h-1.9528l-.9752,46.2687c0,.4878.87.8833,1.9432.8833s1.9432-.3955,1.9432-.8833l-.9584-46.2687Z"/>
      <path class="cls-2" d="m512.9649,245.2581h1.2781c.908,0,1.6452.7372,1.6452,1.6452v3.9952c0,.4752-.3858.8609-.8609.8609h-2.8467c-.4752,0-.8609-.3858-.8609-.8609v-3.9952c0-.908.7372-1.6452,1.6452-1.6452Z"/>
    </g>
    <g id="blades-8" data-name="blades">
      <path class="cls-2" d="m513.0504,247.595v-14.5135l.2393-16.3921c.0041-.2816.1648-.5374.4167-.6633h0c.1564-.0782.3422.0273.3552.2017l1.7028,22.9307c.0762,1.0262-.0079,2.0579-.2494,3.0582l-1.3576,5.6242-1.107-.246Z"/>
      <path class="cls-2" d="m514.3646,247.8104l12.6185,7.1703,14.1336,8.3064c.2428.1427.3858.4088.3709.69h0c-.0093.1746-.1928.284-.3508.2091l-20.7781-9.8483c-.9298-.4407-1.7853-1.0236-2.5357-1.7277l-4.2192-3.9589.7608-.8409Z"/>
      <path class="cls-2" d="m513.391,248.8708l-12.569,7.2567-14.3156,7.9888c-.2459.1372-.5478.126-.7828-.0292h0c-.1459-.0964-.1475-.31-.0029-.4084l19.0072-12.94c.8506-.5791,1.7862-1.0221,2.7732-1.3131l5.5495-1.6364.3404,1.0816Z"/>
    </g>
    <circle id="centre-8" data-name="centre" class="cls-2" cx="513.6091" cy="248.1466" r="1.4163"/>
  </g>
  <g id="wind-turbine-9" data-name="wind-turbine">
    <g id="tower-9" data-name="tower">
      <path class="cls-2" d="m223.4969,249.848h-1.9528l-.9752,46.2687c0,.4878.87.8833,1.9432.8833s1.9432-.3955,1.9432-.8833l-.9584-46.2687Z"/>
      <path class="cls-2" d="m221.9649,245.2581h1.2781c.908,0,1.6452.7372,1.6452,1.6452v3.9952c0,.4752-.3858.8609-.8609.8609h-2.8467c-.4752,0-.8609-.3858-.8609-.8609v-3.9952c0-.908.7372-1.6452,1.6452-1.6452Z"/>
    </g>
    <g id="blades-9" data-name="blades">
      <path class="cls-2" d="m222.0504,247.595v-14.5135l.2393-16.3921c.0041-.2816.1648-.5374.4167-.6633h0c.1564-.0782.3422.0273.3552.2017l1.7028,22.9307c.0762,1.0262-.0079,2.0579-.2494,3.0582l-1.3576,5.6242-1.107-.246Z"/>
      <path class="cls-2" d="m223.3646,247.8104l12.6185,7.1703,14.1336,8.3064c.2428.1427.3858.4088.3709.69h0c-.0093.1746-.1928.284-.3508.2091l-20.7781-9.8483c-.9298-.4407-1.7853-1.0236-2.5357-1.7277l-4.2192-3.9589.7608-.8409Z"/>
      <path class="cls-2" d="m222.391,248.8708l-12.569,7.2567-14.3156,7.9888c-.2459.1372-.5478.126-.7828-.0292h0c-.1459-.0964-.1475-.31-.0029-.4084l19.0072-12.94c.8506-.5791,1.7862-1.0221,2.7732-1.3131l5.5495-1.6364.3404,1.0816Z"/>
    </g>
    <circle id="centre-9" data-name="centre" class="cls-2" cx="222.6091" cy="248.1466" r="1.4163"/>
  </g>
</svg>