<?xml version="1.0" encoding="UTF-8"?>
<svg id="Layer_1" data-name="Layer 1" xmlns="http://www.w3.org/2000/svg" viewBox="0 0 660 292.5">
  <defs>
    <style>
      .cls-1 {
        stroke: #e5e5e5;
        stroke-dasharray: 0 6;
      }

      .cls-1, .cls-2, .cls-3, .cls-4 {
        stroke-miterlimit: 10;
      }

      .cls-1, .cls-5, .cls-4, .cls-6 {
        fill: none;
      }

      .cls-2, .cls-3 {
        stroke: #fff;
        stroke-width: .5px;
      }

      .cls-2, .cls-7 {
        fill: #f5db78;
      }

      .cls-3, .cls-8 {
        fill: #85aadb;
      }

      .cls-5 {
        stroke: #6e757c;
        stroke-width: .75px;
      }

      .cls-5, .cls-6 {
        stroke-linejoin: round;
      }

      .cls-4 {
        stroke: #333;
      }

      .cls-9, .cls-10, .cls-11, .cls-12, .cls-8, .cls-13, .cls-14, .cls-7, .cls-15 {
        stroke-width: 0px;
      }

      .cls-6 {
        stroke: #000;
        stroke-linecap: round;
        stroke-width: 1.5px;
      }

      .cls-10 {
        fill: #5e94cb;
      }

      .cls-11 {
        fill: #4f5c67;
      }

      .cls-12 {
        fill: #6e757c;
      }

      .cls-13 {
        fill: #efbd41;
      }

      .cls-14 {
        fill: #e7ab3b;
      }

      .cls-15 {
        fill: #676c7e;
      }
    </style>
  </defs>
  <g>
    <path class="cls-11" d="m156.6436,274.6943h1.1836v.8848h-1.1836v1.9805h-1.0898v-1.9805h-3.8848v-.6387l3.8203-5.9121h1.1543v5.666Zm-3.7441,0h2.6543v-4.1836l-.1289.2344-2.5254,3.9492Z"/>
    <path class="cls-11" d="m159.3037,273.2822l.4336-4.2539h4.3711v1.002h-3.4512l-.2578,2.3262c.418-.2461.8926-.3691,1.4238-.3691.7773,0,1.3945.2568,1.8516.7705s.6855,1.208.6855,2.083c0,.8789-.2373,1.5713-.7119,2.0771s-1.1377.7588-1.9893.7588c-.7539,0-1.3691-.209-1.8457-.627s-.748-.9961-.8145-1.7344h1.0254c.0664.4883.2402.8564.5215,1.1045s.6523.3721,1.1133.3721c.5039,0,.8994-.1719,1.1865-.5156s.4307-.8184.4307-1.4238c0-.5703-.1553-1.0283-.4658-1.374s-.7236-.5186-1.2393-.5186c-.4727,0-.8438.1035-1.1133.3105l-.2871.2344-.8672-.2227Z"/>
    <path class="cls-11" d="m174.4561,269.9482h-2.7422v7.6113h-1.1191v-7.6113h-2.7363v-.9199h6.5977v.9199Z"/>
    <path class="cls-11" d="m177.6494,274.8701l.1641,1.125.2402-1.0137,1.6875-5.9531h.9492l1.6465,5.9531.2344,1.0312.1816-1.1484,1.3242-5.8359h1.1309l-2.0684,8.5312h-1.0254l-1.7578-6.2168-.1348-.6504-.1348.6504-1.8223,6.2168h-1.0254l-2.0625-8.5312h1.125l1.3477,5.8418Z"/>
    <path class="cls-11" d="m187.3701,271.9873c.4805-.5898,1.1055-.8848,1.875-.8848,1.3398,0,2.0156.7559,2.0273,2.2676v4.1895h-1.084v-4.1953c-.0039-.457-.1084-.7949-.3135-1.0137s-.5244-.3281-.958-.3281c-.3516,0-.6602.0938-.9258.2812s-.4727.4336-.6211.7383v4.5176h-1.084v-9h1.084v3.4277Z"/>
    <path class="cls-11" d="m196.8857,276.6748h3.709v.8848h-5.0332v-.7969l3.498-4.6465h-3.4453v-.8965h4.8047v.7676l-3.5332,4.6875Z"/>
    <path class="cls-8" d="m206.9873,275.4912l1.1777-4.2715h1.7695l-2.1387,6.3398h-1.6172l-2.1387-6.3398h1.7695l1.1777,4.2715Z"/>
    <path class="cls-8" d="m213.5967,277.6768c-.9297,0-1.6865-.2852-2.2705-.8555s-.876-1.3301-.876-2.2793v-.1641c0-.6367.123-1.2061.3691-1.708s.5947-.8887,1.0459-1.1602.9658-.4072,1.5439-.4072c.8672,0,1.5498.2734,2.0479.8203s.7471,1.3223.7471,2.3262v.6914h-4.0371c.0547.4141.2197.7461.4951.9961s.624.375,1.0459.375c.6523,0,1.1621-.2363,1.5293-.709l.832.9316c-.2539.3594-.5977.6396-1.0312.8408s-.9141.3018-1.4414.3018Zm-.3809-8.2852l.8555-.8379h1.4473v.0645l-1.7695,1.6465h-1.0723l-1.7695-1.6582v-.0527h1.4473l.8613.8379Zm.1875,3.0762c-.3359,0-.6084.1143-.8174.3408-.209.2285-.3428.5537-.4014.9775h2.3555v-.1357c-.0078-.376-.1094-.668-.3047-.873-.1953-.207-.4727-.3096-.832-.3096Z"/>
    <path class="cls-8" d="m219.1924,269.6611v1.5586h1.084v1.2422h-1.084v3.1641c0,.2344.0449.4023.1348.5039s.2617.1523.5156.1523c.1875,0,.3535-.0137.498-.041v1.2832c-.332.1016-.6738.1523-1.0254.1523-1.1875,0-1.793-.5996-1.8164-1.7988v-3.416h-.9258v-1.2422h.9258v-1.5586h1.6934Z"/>
    <path class="cls-8" d="m224.7822,272.8076c-.2305-.0312-.4336-.0469-.6094-.0469-.6406,0-1.0605.2168-1.2598.6504v4.1484h-1.6934v-6.3398h1.5996l.0469.7559c.3398-.582.8105-.873,1.4121-.873.1875,0,.3633.0254.5273.0762l-.0234,1.6289Z"/>
    <path class="cls-8" d="m229.3936,276.915c-.418.5078-.9961.7617-1.7344.7617-.6797,0-1.1982-.1953-1.5557-.5859s-.54-.9629-.5479-1.7168v-4.1543h1.6934v4.1006c0,.6611.3008.9912.9023.9912.5742,0,.9688-.1992,1.1836-.5986v-4.4932h1.6992v6.3398h-1.5938l-.0469-.6445Z"/>
    <path class="cls-11" d="m239.3838,277.5596c-.0625-.125-.1133-.3477-.1523-.668-.5039.5234-1.1055.7852-1.8047.7852-.625,0-1.1377-.1768-1.5381-.5303s-.6006-.8018-.6006-1.3447c0-.6602.251-1.1729.7529-1.5381s1.208-.5479,2.1182-.5479h1.0547v-.498c0-.3789-.1133-.6807-.3398-.9053s-.5605-.3369-1.002-.3369c-.3867,0-.7109.0977-.9727.293s-.3926.4316-.3926.709h-1.0898c0-.3164.1123-.6221.3369-.917s.5293-.5283.9141-.7002.8076-.2578,1.2686-.2578c.7305,0,1.3027.1826,1.7168.5479s.6289.8682.6445,1.5088v2.918c0,.582.0742,1.0449.2227,1.3887v.0938h-1.1367Zm-1.7988-.8262c.3398,0,.6621-.0879.9668-.2637s.5254-.4043.6621-.6855v-1.3008h-.8496c-1.3281,0-1.9922.3887-1.9922,1.166,0,.3398.1133.6055.3398.7969s.5176.2871.873.2871Z"/>
    <path class="cls-11" d="m248.4189,277.5596h-1.0898v-7.2246l-2.1855.8027v-.9844l3.1055-1.166h.1699v8.5723Z"/>
    <path class="cls-11" d="m252.0928,273.2822l.4336-4.2539h4.3711v1.002h-3.4512l-.2578,2.3262c.418-.2461.8926-.3691,1.4238-.3691.7773,0,1.3945.2568,1.8516.7705s.6855,1.208.6855,2.083c0,.8789-.2373,1.5713-.7119,2.0771s-1.1377.7588-1.9893.7588c-.7539,0-1.3691-.209-1.8457-.627s-.748-.9961-.8145-1.7344h1.0254c.0664.4883.2402.8564.5215,1.1045s.6523.3721,1.1133.3721c.5039,0,.8994-.1719,1.1865-.5156s.4307-.8184.4307-1.4238c0-.5703-.1553-1.0283-.4658-1.374s-.7236-.5186-1.2393-.5186c-.4727,0-.8438.1035-1.1133.3105l-.2871.2344-.8672-.2227Z"/>
    <path class="cls-11" d="m267.2451,269.9482h-2.7422v7.6113h-1.1191v-7.6113h-2.7363v-.9199h6.5977v.9199Z"/>
    <path class="cls-11" d="m270.4385,274.8701l.1641,1.125.2402-1.0137,1.6875-5.9531h.9492l1.6465,5.9531.2344,1.0312.1816-1.1484,1.3242-5.8359h1.1309l-2.0684,8.5312h-1.0254l-1.7578-6.2168-.1348-.6504-.1348.6504-1.8223,6.2168h-1.0254l-2.0625-8.5312h1.125l1.3477,5.8418Z"/>
    <path class="cls-11" d="m280.1592,271.9873c.4805-.5898,1.1055-.8848,1.875-.8848,1.3398,0,2.0156.7559,2.0273,2.2676v4.1895h-1.084v-4.1953c-.0039-.457-.1084-.7949-.3135-1.0137s-.5244-.3281-.958-.3281c-.3516,0-.6602.0938-.9258.2812s-.4727.4336-.6211.7383v4.5176h-1.084v-9h1.084v3.4277Z"/>
    <path class="cls-11" d="m289.6748,276.6748h3.709v.8848h-5.0332v-.7969l3.498-4.6465h-3.4453v-.8965h4.8047v.7676l-3.5332,4.6875Z"/>
    <path class="cls-11" d="m297.2334,277.6768c-.8594,0-1.5586-.2822-2.0977-.8467s-.8086-1.3193-.8086-2.2646v-.1992c0-.6289.1201-1.1904.3604-1.6846s.5762-.8809,1.0078-1.1602.8994-.4189,1.4033-.4189c.8242,0,1.4648.2715,1.9219.8145s.6855,1.3203.6855,2.332v.4512h-4.2949c.0156.625.1982,1.1299.5479,1.5146s.7939.5771,1.333.5771c.3828,0,.707-.0781.9727-.2344s.498-.3633.6973-.6211l.6621.5156c-.5312.8164-1.3281,1.2246-2.3906,1.2246Zm-.1348-5.6836c-.4375,0-.8047.1592-1.1016.4775s-.4805.7646-.5508,1.3389h3.1758v-.082c-.0312-.5508-.1797-.9775-.4453-1.2803s-.625-.4541-1.0781-.4541Z"/>
    <path class="cls-13" d="m307.1943,275.8076c0-.207-.1025-.3701-.3076-.4893s-.5342-.2256-.9873-.3193c-1.5078-.3164-2.2617-.957-2.2617-1.9219,0-.5625.2334-1.0322.7002-1.4092s1.0771-.5654,1.8311-.5654c.8047,0,1.4482.1895,1.9307.5684s.7236.8711.7236,1.4766h-1.6934c0-.2422-.0781-.4424-.2344-.6006s-.4004-.2373-.7324-.2373c-.2852,0-.5059.0645-.6621.1934s-.2344.293-.2344.4922c0,.1875.0889.3389.2666.4541s.4775.2148.8994.2988.7773.1787,1.0664.2842c.8945.3281,1.3418.8965,1.3418,1.7051,0,.5781-.248,1.0459-.7441,1.4033s-1.1367.5361-1.9219.5361c-.5312,0-1.0029-.0947-1.415-.2842s-.7354-.4492-.9697-.7793-.3516-.6865-.3516-1.0693h1.6055c.0156.3008.127.5312.334.6914s.4844.2402.832.2402c.3242,0,.5693-.0615.7354-.1846s.249-.2842.249-.4834Z"/>
    <path class="cls-13" d="m311.7178,277.5596h-1.6992v-9h1.6992v9Z"/>
    <path class="cls-13" d="m316.9092,276.915c-.418.5078-.9961.7617-1.7344.7617-.6797,0-1.1982-.1953-1.5557-.5859s-.54-.9629-.5479-1.7168v-4.1543h1.6934v4.1006c0,.6611.3008.9912.9023.9912.5742,0,.9688-.1992,1.1836-.5986v-4.4932h1.6992v6.3398h-1.5938l-.0469-.6445Z"/>
    <path class="cls-13" d="m321.3857,271.2197l.0527.7324c.4531-.5664,1.0605-.8496,1.8223-.8496.6719,0,1.1719.1973,1.5.5918s.4961.9844.5039,1.7695v4.0957h-1.6934v-4.0547c0-.3594-.0781-.6201-.2344-.7822s-.416-.2432-.7793-.2432c-.4766,0-.834.2031-1.0723.6094v4.4707h-1.6934v-6.3398h1.5938Z"/>
    <path class="cls-13" d="m329.1846,276.3115c.3125,0,.5664-.0859.7617-.2578s.2969-.4004.3047-.6855h1.5879c-.0039.4297-.1211.8232-.3516,1.1807s-.5459.6348-.9463.832-.8428.2959-1.3271.2959c-.9062,0-1.6211-.2881-2.1445-.8643s-.7852-1.3721-.7852-2.3877v-.1113c0-.9766.2598-1.7559.7793-2.3379s1.2324-.873,2.1387-.873c.793,0,1.4287.2256,1.9072.6768s.7217,1.0518.7295,1.8018h-1.5879c-.0078-.3301-.1094-.5977-.3047-.8037-.1953-.207-.4531-.3096-.7734-.3096-.3945,0-.6924.1436-.8936.4316-.2012.2871-.3018.7539-.3018,1.3994v.1758c0,.6533.0996,1.123.2988,1.4082.1992.2861.502.4287.9082.4287Z"/>
    <path class="cls-13" d="m335.7236,277.6768c-.9297,0-1.6865-.2852-2.2705-.8555s-.876-1.3301-.876-2.2793v-.1641c0-.6367.123-1.2061.3691-1.708s.5947-.8887,1.0459-1.1602.9658-.4072,1.5439-.4072c.8672,0,1.5498.2734,2.0479.8203s.7471,1.3223.7471,2.3262v.6914h-4.0371c.0547.4141.2197.7461.4951.9961s.624.375,1.0459.375c.6523,0,1.1621-.2363,1.5293-.709l.832.9316c-.2539.3594-.5977.6396-1.0312.8408s-.9141.3018-1.4414.3018Zm-.1934-5.209c-.3359,0-.6084.1143-.8174.3408-.209.2285-.3428.5537-.4014.9775h2.3555v-.1357c-.0078-.376-.1094-.668-.3047-.873-.1953-.207-.4727-.3096-.832-.3096Z"/>
  </g>
  <g>
    <path class="cls-9" d="m20.6963,17.5215c0,2.5332-1.4619,4.0283-3.9268,4.0283h-1.0366v3.8252h-2.4141v-11.8994h3.4507c2.4648,0,3.9268,1.4961,3.9268,4.0459Zm-2.4819,0c0-1.1562-.5098-1.751-1.4785-1.751h-1.0029v3.4844h1.0029c.9688,0,1.4785-.5947,1.4785-1.7334Z"/>
    <path class="cls-9" d="m26.9863,21.3799h-.8496v3.9951h-2.4141v-11.8994h3.4507c2.3628,0,3.7568,1.4619,3.7568,3.9609,0,1.6152-.5952,2.8047-1.6489,3.4336l2.2437,4.5049h-2.6348l-1.9038-3.9951Zm-.5439-9.043l-1.3765-2.3291h1.5127l.748,1.1396.731-1.1396h1.5127l-1.377,2.3291h-1.751Zm-.3057,6.748h1.0029c.8496,0,1.3086-.5771,1.3086-1.6484,0-1.0879-.459-1.666-1.3086-1.666h-1.0029v3.3145Z"/>
    <path class="cls-9" d="m40.6709,23.0801v2.2949h-6.3066v-11.8994h6.1367v2.2949h-3.7227v2.4648h3.3823v2.21h-3.3823v2.6348h3.8926Z"/>
    <path class="cls-9" d="m43.0176,13.4756h2.499l1.0708,5.627c.1699.8672.374,2.3281.4932,3.3145h.0679c.1191-.9863.3228-2.4473.4927-3.3145l1.0713-5.627h2.4985l-2.8218,11.8994h-2.5498l-2.8218-11.8994Z"/>
    <path class="cls-9" d="m57.8408,23.4033h-2.5156l-.3911,1.9717h-2.499l2.856-11.8994h2.5835l2.856,11.8994h-2.4985l-.3911-1.9717Zm-.4761-2.2949l-.272-1.3604c-.1528-.8496-.3569-2.2949-.4761-3.2637h-.0679c-.1191.9688-.3062,2.4141-.4761,3.2637l-.272,1.3604h1.564Z"/>
    <path class="cls-9" d="m70.8457,13.4756v11.8994h-2.4307v-4.8447h-2.4478v4.8447h-2.4312v-11.8994h2.4312v4.7598h2.4478v-4.7598h2.4307Z"/>
    <path class="cls-9" d="m79.0566,23.4033h-2.5156l-.3911,1.9717h-2.499l2.856-11.8994h2.5835l2.856,11.8994h-2.4985l-.3911-1.9717Zm-.4761-2.2949l-.272-1.3604c-.1528-.8496-.3569-2.2949-.4761-3.2637h-.0679c-.1191.9688-.3062,2.4141-.4761,3.2637l-.272,1.3604h1.564Z"/>
    <path class="cls-9" d="m88.8486,13.4756h2.499l1.0708,5.627c.1699.8672.374,2.3281.4932,3.3145h.0679c.1191-.9863.3228-2.4473.4927-3.3145l1.0713-5.627h2.4985l-2.8218,11.8994h-2.5498l-2.8218-11.8994Z"/>
    <path class="cls-9" d="m106.1538,23.0801v2.2949h-6.3066v-11.8994h6.1367v2.2949h-3.7227v2.4648h3.3823v2.21h-3.3823v2.6348h3.8926Zm-4.1987-10.7432l-1.377-2.3291h1.5132l.7476,1.1396.731-1.1396h1.5132l-1.377,2.3291h-1.751Z"/>
    <path class="cls-9" d="m115.8433,15.7705h-2.3286v9.6045h-2.4819v-9.6045h-2.3286v-2.2949h7.1392v2.2949Z"/>
    <path class="cls-9" d="m121.9468,21.3799h-.8496v3.9951h-2.4141v-11.8994h3.4507c2.3628,0,3.7568,1.4619,3.7568,3.9609,0,1.6152-.5952,2.8047-1.6489,3.4336l2.2437,4.5049h-2.6348l-1.9038-3.9951Zm-.8496-2.2949h1.0029c.8496,0,1.3086-.5771,1.3086-1.6484,0-1.0879-.459-1.666-1.3086-1.666h-1.0029v3.3145Z"/>
    <path class="cls-9" d="m129.1211,21.5498v-8.0742h2.5156v8.0742c0,1.0879.4248,1.6836,1.2749,1.6836.8496,0,1.2749-.5957,1.2749-1.6836v-8.0742h2.5156v8.0742c0,2.5156-1.4106,4.0293-3.7905,4.0293s-3.7905-1.5137-3.7905-4.0293Z"/>
    <path class="cls-9" d="m152.665,21.8223c0,2.125-1.4619,3.5527-3.5015,3.5527h-3.7568v-11.8994h3.7061c1.8354,0,3.1445,1.3604,3.1445,3.3828,0,.9014-.374,1.8525-1.0029,2.4307.8838.5098,1.4106,1.4619,1.4106,2.5332Zm-4.8442-6.0684v2.4814h.9517c.6802,0,1.0371-.4414,1.0371-1.2744,0-.7988-.3398-1.207-1.1221-1.207h-.8667Zm2.3628,6.0508c0-.8662-.4932-1.3086-1.394-1.3086h-.9688v2.6006h.918c.9517,0,1.4448-.4414,1.4448-1.292Z"/>
    <path class="cls-9" d="m157.2217,21.8389l-2.8047-8.3633h2.4985l.9692,3.2979c.1187.3916.3906,1.3262.5098,1.9043h.0679c.1362-.5781.4082-1.5127.5439-1.9551l.9351-3.2471h2.4985l-2.8047,8.3633v3.5361h-2.4136v-3.5361Z"/>
    <path class="cls-9" d="m169.2915,13.4756h2.499l1.0708,5.627c.1699.8672.374,2.3281.4932,3.3145h.0679c.1191-.9863.3228-2.4473.4927-3.3145l1.0713-5.627h2.4985l-2.8218,11.8994h-2.5498l-2.8218-11.8994Z"/>
    <path class="cls-9" d="m186.5972,23.0801v2.2949h-6.3066v-11.8994h6.1367v2.2949h-3.7227v2.4648h3.3823v2.21h-3.3823v2.6348h3.8926Z"/>
    <path class="cls-9" d="m189.9463,13.4756h3.2637c2.397,0,3.8076,1.4619,3.8076,3.9443v3.9258c0,2.5332-1.3936,4.0293-3.7734,4.0293h-3.2979v-11.8994Zm3.2979,9.6045c.8667,0,1.3257-.5947,1.3257-1.7344v-3.9258c0-1.0879-.459-1.6494-1.3257-1.6494h-.8838v7.3096h.8838Z"/>
    <path class="cls-9" d="m206.4355,23.0801v2.2949h-5.9497v-11.8994h2.4141v9.6045h3.5356Z"/>
    <path class="cls-9" d="m213.6948,23.4033h-2.5156l-.3911,1.9717h-2.499l2.856-11.8994h2.5835l2.856,11.8994h-2.499l-.3906-1.9717Zm-.4761-2.2949l-.272-1.3604c-.1528-.8496-.3569-2.2949-.4761-3.2637h-.0679c-.1191.9688-.3062,2.4141-.4761,3.2637l-.272,1.3604h1.564Z"/>
    <path class="cls-9" d="m227.5327,20.8701l-.6631,1.0713v3.4336h-2.3799v-11.8994h2.3799v4.5557l.6118-1.3252,1.666-3.2305h2.7539l-3.0259,5.2021,3.5356,6.6973h-2.7197l-2.1587-4.5049Z"/>
    <path class="cls-9" d="m239.5347,21.9072h2.4819c0,.9521.4761,1.3594,1.2407,1.3594.7993,0,1.1899-.459,1.1899-1.0537,0-1.9717-4.6572-2.21-4.6572-5.8301,0-1.8193,1.2749-3.1445,3.4673-3.1445s3.519,1.3086,3.519,3.501h-2.4819c0-.7812-.3569-1.1729-1.0537-1.1729-.6289,0-1.0029.3398-1.0029.8838,0,1.8701,4.7256,1.9893,4.7256,5.7803,0,1.9541-1.377,3.3818-3.7397,3.3818-2.2607,0-3.689-1.3086-3.689-3.7051Z"/>
    <path class="cls-9" d="m256.2451,23.0801v2.2949h-6.3066v-11.8994h6.1367v2.2949h-3.7227v2.4648h3.3823v2.21h-3.3823v2.6348h3.8926Z"/>
    <path class="cls-9" d="m265.5776,23.0801v2.2949h-6.8159v-1.6152l3.7734-7.9893h-3.4849v-2.2949h6.4424v1.666l-3.7393,7.9385h3.8242Z"/>
    <path class="cls-9" d="m268.3154,21.5166v-4.1816c0-2.5498,1.4448-4.0635,3.8589-4.0635s3.8584,1.5137,3.8584,4.0635v4.1816c0,2.5488-1.4448,4.0625-3.8584,4.0625s-3.8589-1.5137-3.8589-4.0625Zm5.2188,0v-4.1816c0-1.1221-.459-1.7168-1.3599-1.7168-.9014,0-1.3599.5947-1.3599,1.7168v4.1816c0,1.1211.4585,1.7168,1.3599,1.7168.9009,0,1.3599-.5957,1.3599-1.7168Zm-.9521-11.5088h1.9209l-1.9209,2.3291h-1.5977l1.5977-2.3291Z"/>
    <path class="cls-9" d="m287.0825,13.4756v11.8994h-2.3799l-2.0059-4.6064-1.0708-2.9072-.0513.0508c.187,1.4961.3062,3.7227.3062,5.0488v2.4141h-2.3799v-11.8994h2.3799l2.2607,5.168c.2891.748.561,1.5293.8501,2.2773l.0508-.0508c-.2041-1.4961-.3398-3.5352-.3398-4.6406v-2.7539h2.3799Z"/>
    <path class="cls-9" d="m298.4727,13.4756v11.8994h-2.3799l-2.0059-4.6064-1.0708-2.9072-.0508.0508c.1865,1.4961.3057,3.7227.3057,5.0488v2.4141h-2.3799v-11.8994h2.3799l2.2607,5.168c.2891.748.561,1.5293.8501,2.2773l.0508-.0508c-.2036-1.4961-.3398-3.5352-.3398-4.6406v-2.7539h2.3799Z"/>
    <path class="cls-9" d="m308.5874,23.0801v2.2949h-6.3066v-11.8994h6.1367v2.2949h-3.7227v2.4648h3.3823v2.21h-3.3823v2.6348h3.8926Zm-4.1987-10.7432l-1.377-2.3291h1.5132l.7476,1.1396.731-1.1396h1.5132l-1.377,2.3291h-1.751Z"/>
    <path class="cls-9" d="m316.0337,13.4756h2.499l1.0708,5.627c.1699.8672.374,2.3281.4932,3.3145h.0679c.1191-.9863.3228-2.4473.4927-3.3145l1.0713-5.627h2.4985l-2.8218,11.8994h-2.5498l-2.8218-11.8994Z"/>
    <path class="cls-9" d="m328.7837,21.8389l-2.8047-8.3633h2.4985l.9692,3.2979c.1187.3916.3906,1.3262.5098,1.9043h.0679c.1362-.5781.4082-1.5127.5439-1.9551l.9351-3.2471h2.499l-2.8052,8.3633v3.5361h-2.4136v-3.5361Z"/>
    <path class="cls-9" d="m340.02,21.3799h-.8496v3.9951h-2.4141v-11.8994h3.4507c2.3628,0,3.7568,1.4619,3.7568,3.9609,0,1.6152-.5952,2.8047-1.6489,3.4336l2.2437,4.5049h-2.6348l-1.9038-3.9951Zm-.8496-2.2949h1.0029c.8496,0,1.3086-.5771,1.3086-1.6484,0-1.0879-.459-1.666-1.3086-1.666h-1.0029v3.3145Z"/>
    <path class="cls-9" d="m347.0581,21.5166v-4.1816c0-2.5498,1.4448-4.0635,3.8589-4.0635s3.8584,1.5137,3.8584,4.0635v4.1816c0,2.5488-1.4448,4.0625-3.8584,4.0625s-3.8589-1.5137-3.8589-4.0625Zm5.2188,0v-4.1816c0-1.1221-.459-1.7168-1.3599-1.7168s-1.3599.5947-1.3599,1.7168v4.1816c0,1.1211.459,1.7168,1.3599,1.7168s1.3599-.5957,1.3599-1.7168Z"/>
    <path class="cls-9" d="m357.2407,13.4756h2.499l1.0708,5.627c.1699.8672.374,2.3281.4932,3.3145h.0679c.1191-.9863.3228-2.4473.4927-3.3145l1.0713-5.627h2.4985l-2.8218,11.8994h-2.5498l-2.8218-11.8994Z"/>
    <path class="cls-9" d="m375.8213,13.4756v11.8994h-2.3799l-2.0059-4.6064-1.0708-2.9072-.0508.0508c.1865,1.4961.3057,3.7227.3057,5.0488v2.4141h-2.3799v-11.8994h2.3799l2.2607,5.168c.2891.748.561,1.5293.8501,2.2773l.0508-.0508c-.2036-1.4961-.3398-3.5352-.3398-4.6406v-2.7539h2.3799Z"/>
    <path class="cls-9" d="m384.0327,23.4033h-2.5156l-.3911,1.9717h-2.499l2.856-11.8994h2.5835l2.856,11.8994h-2.499l-.3906-1.9717Zm-.4761-2.2949l-.272-1.3604c-.1528-.8496-.3569-2.2949-.4761-3.2637h-.0679c-.1191.9688-.3062,2.4141-.4761,3.2637l-.272,1.3604h1.564Z"/>
    <path class="cls-9" d="m397.3091,13.4756v11.8994h-2.3799l-2.0059-4.6064-1.0708-2.9072-.0513.0508c.187,1.4961.3062,3.7227.3062,5.0488v2.4141h-2.3799v-11.8994h2.3799l2.2607,5.168c.2891.748.561,1.5293.8501,2.2773l.0508-.0508c-.2041-1.4961-.3398-3.5352-.3398-4.6406v-2.7539h2.3799Z"/>
    <path class="cls-9" d="m407.4238,23.0801v2.2949h-6.3066v-11.8994h6.1367v2.2949h-3.7227v2.4648h3.3823v2.21h-3.3823v2.6348h3.8926Zm-2.9238-10.7432h-1.5977l1.5977-2.3291h1.9209l-1.9209,2.3291Z"/>
    <path class="cls-9" d="m414.8701,13.4756h2.499l1.0708,5.627c.1699.8672.374,2.3281.4932,3.3145h.0679c.1191-.9863.3228-2.4473.4927-3.3145l1.0713-5.627h2.4985l-2.8218,11.8994h-2.5498l-2.8218-11.8994Z"/>
    <path class="cls-9" d="m427.6196,21.8389l-2.8047-8.3633h2.4985l.9692,3.2979c.1187.3916.3906,1.3262.5098,1.9043h.0679c.1362-.5781.4082-1.5127.5439-1.9551l.9351-3.2471h2.499l-2.8052,8.3633v3.5361h-2.4136v-3.5361Zm1.6318-11.8311h1.9209l-1.9209,2.3291h-1.5977l1.5977-2.3291Z"/>
    <path class="cls-9" d="m438.8564,21.3799h-.8496v3.9951h-2.4141v-11.8994h3.4507c2.3628,0,3.7568,1.4619,3.7568,3.9609,0,1.6152-.5952,2.8047-1.6489,3.4336l2.2437,4.5049h-2.6348l-1.9038-3.9951Zm-.8496-2.2949h1.0029c.8496,0,1.3086-.5771,1.3086-1.6484,0-1.0879-.459-1.666-1.3086-1.666h-1.0029v3.3145Z"/>
    <path class="cls-9" d="m445.8945,21.5166v-4.1816c0-2.5498,1.4448-4.0635,3.8589-4.0635s3.8584,1.5137,3.8584,4.0635v4.1816c0,2.5488-1.4448,4.0625-3.8584,4.0625s-3.8589-1.5137-3.8589-4.0625Zm5.2188,0v-4.1816c0-1.1221-.459-1.7168-1.3599-1.7168-.9014,0-1.3599.5947-1.3599,1.7168v4.1816c0,1.1211.4585,1.7168,1.3599,1.7168.9009,0,1.3599-.5957,1.3599-1.7168Z"/>
    <path class="cls-9" d="m464.3384,21.8223c0,2.125-1.4619,3.5527-3.5015,3.5527h-3.7568v-11.8994h3.7056c1.8359,0,3.145,1.3604,3.145,3.3828,0,.9014-.374,1.8525-1.0029,2.4307.8838.5098,1.4106,1.4619,1.4106,2.5332Zm-4.8442-6.0684v2.4814h.9517c.6802,0,1.0371-.4414,1.0371-1.2744,0-.7988-.3398-1.207-1.1221-1.207h-.8667Zm2.3628,6.0508c0-.8662-.4932-1.3086-1.394-1.3086h-.9688v2.6006h.918c.9517,0,1.4448-.4414,1.4448-1.292Z"/>
    <path class="cls-9" d="m473.7739,23.0801v2.2949h-6.3066v-11.8994h6.1367v2.2949h-3.7227v2.4648h3.3823v2.21h-3.3823v2.6348h3.8926Zm-4.1987-10.7432l-1.377-2.3291h1.5132l.7476,1.1396.731-1.1396h1.5132l-1.377,2.3291h-1.751Z"/>
  </g>
  <g>
    <path class="cls-15" d="m16.7148,45.6777l2.8438-8.2109h1.4355l-3.6914,9.9531h-1.1621l-3.6846-9.9531h1.4287l2.8301,8.2109Z"/>
    <path class="cls-15" d="m33.1143,44.2617c-.123,1.0527-.5117,1.8652-1.1655,2.4375s-1.5234.8574-2.6079.8574c-1.1758,0-2.1182-.4219-2.8267-1.2637-.7085-.8438-1.063-1.9707-1.063-3.3848v-.957c0-.9238.165-1.7383.4956-2.4395.3306-.7031.7988-1.2422,1.4048-1.6172.606-.377,1.3081-.5645,2.1055-.5645,1.0571,0,1.9048.2949,2.543.8848.6382.5918,1.0093,1.4082,1.1143,2.4512h-1.3193c-.1138-.7949-.3613-1.3711-.7417-1.7266-.3804-.3574-.9126-.5352-1.5962-.5352-.8384,0-1.4961.3105-1.9722.9297-.4761.6211-.7144,1.5039-.7144,2.6484v.9648c0,1.0801.2256,1.9395.6768,2.5781s1.0825.959,1.8936.959c.729,0,1.2886-.166,1.6782-.4961s.6484-.9062.7759-1.7266h1.3193Zm-3.8418-8.5234l1.0254-1.1621h1.0938v.0684l-1.7363,1.873h-.7725l-1.7158-1.873v-.0684h1.0732l1.0322,1.1621Z"/>
    <path class="cls-15" d="m38.5557,43.3945h-2.3379v4.0254h-1.3193v-9.9531h3.2949c1.1211,0,1.9834.2559,2.5874.7656.604.5117.9058,1.2539.9058,2.2285,0,.6211-.1675,1.1602-.5024,1.6211-.335.459-.8008.8047-1.3979,1.0312l2.3379,4.2246v.082h-1.4082l-2.1602-4.0254Zm-2.3379-1.0742h2.0166c.6519,0,1.1699-.168,1.5552-.5059s.5776-.791.5776-1.3574c0-.6152-.1836-1.0879-.5503-1.416-.3667-.3301-.8965-.4961-1.5894-.5h-2.0098v3.7793Z"/>
    <path class="cls-15" d="m53.041,43.8047c0,1.125-.2573,2.0312-.7725,2.7207-.5151.6875-1.2124,1.0312-2.0918,1.0312-.8979,0-1.604-.2852-2.1191-.8535v3.5605h-1.2646v-10.2402h1.1553l.0615.8203c.5151-.6367,1.2305-.957,2.1465-.957.8887,0,1.5918.3359,2.1089,1.0059s.7759,1.6016.7759,2.7949v.1172Zm-1.2646-.1445c0-.834-.1777-1.4922-.5332-1.9746-.3555-.4844-.8433-.7246-1.4629-.7246-.7656,0-1.3398.3398-1.7227,1.0176v3.5352c.3784.6738.957,1.0117,1.7363,1.0117.606,0,1.0879-.2402,1.4458-.7227.3579-.4805.5366-1.1934.5366-2.1426Z"/>
    <path class="cls-15" d="m54.3125,43.6543c0-.7246.1426-1.377.4272-1.9551.2847-.5801.6812-1.0254,1.1895-1.3398s1.0879-.4727,1.7397-.4727c1.0073,0,1.8218.3496,2.4438,1.0469s.9331,1.625.9331,2.7812v.0898c0,.7188-.1377,1.3652-.4136,1.9375s-.6699,1.0176-1.1826,1.3359c-.5127.3203-1.1016.4785-1.7671.4785-1.0024,0-1.8149-.3477-2.437-1.0449s-.9331-1.6211-.9331-2.7695v-.0879Zm1.2715.1504c0,.8203.1904,1.4785.5708,1.9746.3804.498.8896.7461,1.5278.7461.6426,0,1.1528-.252,1.5312-.7559s.5674-1.209.5674-2.1152c0-.8125-.1924-1.4688-.5776-1.9727s-.8965-.7559-1.5347-.7559c-.6245,0-1.1279.248-1.5107.7461-.3828.4961-.5742,1.207-.5742,2.1328Z"/>
    <path class="cls-15" d="m64.3477,38.2324v1.791h1.3809v.9785h-1.3809v4.5918c0,.2969.0615.5195.1846.668s.3325.2227.6289.2227c.146,0,.3462-.0273.6016-.082v1.0195c-.3325.0898-.6562.1348-.9707.1348-.5649,0-.9912-.1699-1.2783-.5117s-.4307-.8281-.4307-1.457v-4.5859h-1.3467v-.9785h1.3467v-1.791h1.2646Z"/>
    <path class="cls-15" d="m69.0303,38.082l1.0254-1.1621h1.0938v.0684l-1.7363,1.873h-.7725l-1.7158-1.873v-.0684h1.0732l1.0322,1.1621Zm1.75,3.0762c-.1914-.0312-.3989-.0469-.6221-.0469-.8296,0-1.3921.3535-1.6885,1.0586v5.25h-1.2646v-7.3965h1.2305l.0205.8555c.4146-.6621,1.0024-.9922,1.7637-.9922.2461,0,.4331.0332.5605.0957v1.1758Z"/>
    <path class="cls-15" d="m75.0117,47.5566c-1.0024,0-1.8184-.3281-2.4473-.9883-.6289-.6582-.9434-1.5391-.9434-2.6406v-.2324c0-.7344.1401-1.3887.4204-1.9668.2803-.5762.6724-1.0273,1.1758-1.3535.5034-.3242,1.0493-.4883,1.6372-.4883.9614,0,1.709.3164,2.2422.9512.5332.6328.7998,1.5391.7998,2.7207v.5254h-5.0107c.0181.7305.2314,1.3184.6392,1.7676s.9263.6738,1.5552.6738c.4468,0,.8247-.0918,1.1348-.2734.3101-.1836.5811-.4238.8135-.7246l.7725.6016c-.6196.9512-1.5493,1.4277-2.7891,1.4277Zm-.1572-6.6309c-.5103,0-.939.1855-1.2852.5566-.3462.373-.5605.8926-.6426,1.5625h3.7051v-.0957c-.0366-.6426-.2095-1.1406-.5195-1.4941-.3101-.3516-.729-.5293-1.2578-.5293Z"/>
    <path class="cls-15" d="m85.6211,43.8047c0,1.1289-.2598,2.0371-.7793,2.7227-.5195.6875-1.2168,1.0293-2.0918,1.0293-.9341,0-1.6567-.3301-2.167-.9902l-.0615.8535h-1.1621v-10.5h1.2646v3.918c.5103-.6348,1.2144-.9512,2.1123-.9512s1.603.3398,2.1157,1.0195c.5127.6777.769,1.6074.769,2.7891v.1094Zm-1.2646-.1445c0-.8613-.1665-1.5254-.499-1.9961-.3325-.4688-.811-.7031-1.4355-.7031-.834,0-1.4331.3867-1.7979,1.1621v3.1992c.3872.7734.9912,1.1621,1.8115,1.1621.606,0,1.0776-.2344,1.415-.7051.3374-.4688.5059-1.1758.5059-2.1191Z"/>
    <path class="cls-15" d="m91.7803,46.6895c-.4922.5781-1.2144.8672-2.167.8672-.7886,0-1.3887-.2285-1.8013-.6875-.4126-.457-.6211-1.1348-.6255-2.0332v-4.8125h1.2646v4.7793c0,1.1211.4556,1.6816,1.3672,1.6816.9663,0,1.6089-.3613,1.9277-1.0801v-5.3809h1.2646v7.3965h-1.2031l-.0273-.7305Z"/>
    <path class="cls-15" d="m96.2373,40.0234v8.252c0,1.4219-.645,2.1328-1.9346,2.1328-.2778,0-.5356-.041-.7725-.123v-1.0059c.146.0371.3374.0547.5742.0547.2827,0,.498-.0762.646-.2285s.2222-.418.2222-.7969v-8.2852h1.2646Zm-1.3945-1.9609c0-.2012.0625-.373.188-.5176.1255-.1426.3086-.2148.5503-.2148.2461,0,.4331.0703.5605.2129.1274.1406.1914.3145.1914.5195s-.064.375-.1914.5117-.3145.2051-.5605.2051-.4307-.0684-.5537-.2051-.1846-.3066-.1846-.5117Z"/>
    <path class="cls-15" d="m101.3438,47.5566c-1.0024,0-1.8184-.3281-2.4473-.9883-.6289-.6582-.9434-1.5391-.9434-2.6406v-.2324c0-.7344.1401-1.3887.4204-1.9668.2803-.5762.6724-1.0273,1.1758-1.3535.5034-.3242,1.0493-.4883,1.6372-.4883.9614,0,1.709.3164,2.2422.9512.5332.6328.7998,1.5391.7998,2.7207v.5254h-5.0107c.0181.7305.2314,1.3184.6392,1.7676s.9263.6738,1.5552.6738c.4468,0,.8247-.0918,1.1348-.2734.3101-.1836.5811-.4238.8135-.7246l.7725.6016c-.6196.9512-1.5493,1.4277-2.7891,1.4277Zm-.1572-6.6309c-.5103,0-.939.1855-1.2852.5566-.3462.373-.5605.8926-.6426,1.5625h3.7051v-.0957c-.0366-.6426-.2095-1.1406-.5195-1.4941-.3101-.3516-.729-.5293-1.2578-.5293Z"/>
    <path class="cls-15" d="m106.8809,40.0234l.0342.8203c.5425-.6367,1.2739-.957,2.1943-.957,1.0347,0,1.7388.3965,2.1123,1.1895.2461-.3555.5664-.6426.9604-.8613s.8604-.3281,1.3979-.3281c1.6226,0,2.4473.8594,2.4746,2.5781v4.9551h-1.2646v-4.8809c0-.5273-.1206-.9238-.3623-1.1855s-.647-.3926-1.2168-.3926c-.4692,0-.8589.1387-1.1689.4199-.3101.2793-.4897.6582-.54,1.1309v4.9082h-1.2715v-4.8457c0-1.0762-.5264-1.6133-1.5791-1.6133-.8296,0-1.397.3535-1.7021,1.0586v5.4004h-1.2646v-7.3965h1.1963Z"/>
    <path class="cls-15" d="m121.0312,47.5566c-1.0024,0-1.8184-.3281-2.4473-.9883-.6289-.6582-.9434-1.5391-.9434-2.6406v-.2324c0-.7344.1401-1.3887.4204-1.9668.2803-.5762.6724-1.0273,1.1758-1.3535.5034-.3242,1.0493-.4883,1.6372-.4883.9614,0,1.709.3164,2.2422.9512.5332.6328.7998,1.5391.7998,2.7207v.5254h-5.0107c.0181.7305.2314,1.3184.6392,1.7676s.9263.6738,1.5552.6738c.4468,0,.8247-.0918,1.1348-.2734.3101-.1836.5811-.4238.8135-.7246l.7725.6016c-.6196.9512-1.5493,1.4277-2.7891,1.4277Zm-.1572-6.6309c-.5103,0-.939.1855-1.2852.5566-.3462.373-.5605.8926-.6426,1.5625h3.7051v-.0957c-.0366-.6426-.2095-1.1406-.5195-1.4941-.3101-.3516-.729-.5293-1.2578-.5293Z"/>
    <path class="cls-15" d="m130.0342,46.3887h4.3271v1.0312h-5.8721v-.9297l4.0811-5.4199h-4.0195v-1.0469h5.6055v.8965l-4.1221,5.4688Z"/>
    <path class="cls-15" d="m140.3496,47.4199c-.0728-.1445-.1323-.4043-.1777-.7793-.5879.6113-1.2896.916-2.1055.916-.729,0-1.3271-.2051-1.7944-.6191-.4673-.4121-.7007-.9336-.7007-1.5684,0-.7695.293-1.3672.8784-1.7949.5854-.4258,1.4092-.6387,2.4712-.6387h1.2305v-.5801c0-.4434-.1323-.7949-.3965-1.0566s-.6538-.3926-1.1689-.3926c-.4512,0-.8296.1133-1.1348.3418-.3052.2266-.458.5039-.458.8262h-1.2715c0-.3691.1309-.7246.3931-1.0703.2622-.3438.6177-.6152,1.0664-.8164.4487-.1992.9424-.3008,1.48-.3008.8521,0,1.52.2129,2.0029.6387.4829.4277.7339,1.0137.752,1.7617v3.4043c0,.6777.0864,1.2188.2598,1.6191v.1094h-1.3262Zm-2.0986-.9629c.3965,0,.7725-.1035,1.1279-.3086s.6128-.4707.7725-.7988v-1.5176h-.9912c-1.5493,0-2.3242.4531-2.3242,1.3594,0,.3965.1323.707.3965.9297.2642.2246.604.3359,1.0186.3359Zm1.1689-9.5371h1.5312l-1.832,2.0098-1.0186-.0039,1.3193-2.0059Z"/>
    <path class="cls-15" d="m147.7051,45.459c0-.3418-.1289-.6074-.3862-.7969s-.7065-.3516-1.3467-.4883-1.1484-.3008-1.5244-.4922-.6538-.4199-.834-.6836c-.1802-.2656-.27-.5801-.27-.9434,0-.6074.2563-1.1191.769-1.5391.5127-.418,1.168-.6289,1.9653-.6289.8384,0,1.5186.2168,2.0405.6504.522.4316.7827.9863.7827,1.6602h-1.2715c0-.3457-.147-.6445-.4409-.8945-.2939-.252-.6641-.377-1.1108-.377-.4604,0-.8203.1016-1.0801.3008-.2598.2012-.3896.4629-.3896.7871,0,.3047.1206.5352.3623.6895.2417.1562.6777.3027,1.3091.4453.6313.1406,1.1426.3086,1.5347.5059.3921.1953.6826.4316.8716.707s.2837.6113.2837,1.0078c0,.6621-.2642,1.1914-.793,1.5898s-1.2144.5977-2.0576.5977c-.5923,0-1.1167-.1035-1.5723-.3145-.4556-.209-.8125-.502-1.0698-.8789-.2573-.375-.3862-.7812-.3862-1.2188h1.2646c.0229.4238.1924.7598.5093,1.0078s.7349.373,1.2544.373c.4785,0,.8623-.0977,1.1519-.291s.4341-.4531.4341-.7754Z"/>
    <path class="cls-15" d="m155.1836,47.4199c-.0728-.1445-.1323-.4043-.1777-.7793-.5879.6113-1.2896.916-2.1055.916-.729,0-1.3271-.2051-1.7944-.6191-.4673-.4121-.7007-.9336-.7007-1.5684,0-.7695.293-1.3672.8784-1.7949.5854-.4258,1.4092-.6387,2.4712-.6387h1.2305v-.5801c0-.4434-.1323-.7949-.3965-1.0566s-.6538-.3926-1.1689-.3926c-.4512,0-.8296.1133-1.1348.3418-.3052.2266-.458.5039-.458.8262h-1.2715c0-.3691.1309-.7246.3931-1.0703.2622-.3438.6177-.6152,1.0664-.8164.4487-.1992.9424-.3008,1.48-.3008.8521,0,1.52.2129,2.0029.6387.4829.4277.7339,1.0137.752,1.7617v3.4043c0,.6777.0864,1.2188.2598,1.6191v.1094h-1.3262Zm-2.0986-.9629c.3965,0,.7725-.1035,1.1279-.3086s.6128-.4707.7725-.7988v-1.5176h-.9912c-1.5493,0-2.3242.4531-2.3242,1.3594,0,.3965.1323.707.3965.9297.2642.2246.604.3359,1.0186.3359Z"/>
    <path class="cls-15" d="m157.9248,43.6602c0-1.1348.269-2.0469.8066-2.7383.5376-.6895,1.2417-1.0352,2.1123-1.0352.8657,0,1.5518.2969,2.0576.8887v-3.8555h1.2646v10.5h-1.1621l-.0615-.793c-.5059.6211-1.21.9297-2.1123.9297-.8569,0-1.5552-.3496-2.0952-1.0527-.54-.7012-.8101-1.6172-.8101-2.748v-.0957Zm1.2646.1445c0,.8379.1733,1.4941.5195,1.9688.3462.4727.8247.7109,1.4355.7109.8022,0,1.3877-.3613,1.7568-1.0801v-3.3984c-.3784-.6973-.9595-1.0449-1.7432-1.0449-.6196,0-1.103.2383-1.4492.7168s-.5195,1.1875-.5195,2.127Z"/>
    <path class="cls-15" d="m167.3242,40.0234l.041.9297c.5649-.7109,1.3032-1.0664,2.2148-1.0664,1.563,0,2.3516.8828,2.3652,2.6465v4.8867h-1.2646v-4.8945c-.0044-.5332-.1265-.9277-.3657-1.1816-.2393-.2559-.6118-.3828-1.1177-.3828-.4102,0-.77.1094-1.0801.3281s-.5513.5059-.7246.8613v5.2695h-1.2646v-7.3965h1.1963Z"/>
    <path class="cls-15" d="m176.9219,47.5566c-1.0024,0-1.8184-.3281-2.4473-.9883-.6289-.6582-.9434-1.5391-.9434-2.6406v-.2324c0-.7344.1401-1.3887.4204-1.9668.2803-.5762.6724-1.0273,1.1758-1.3535.5034-.3242,1.0493-.4883,1.6372-.4883.9614,0,1.709.3164,2.2422.9512.5332.6328.7998,1.5391.7998,2.7207v.5254h-5.0107c.0181.7305.2314,1.3184.6392,1.7676s.9263.6738,1.5552.6738c.4468,0,.8247-.0918,1.1348-.2734.3101-.1836.5811-.4238.8135-.7246l.7725.6016c-.6196.9512-1.5493,1.4277-2.7891,1.4277Zm-.1709-9.4746l1.0254-1.1621h1.0938v.0684l-1.7363,1.873h-.7725l-1.7158-1.873v-.0684h1.0732l1.0322,1.1621Zm.0137,2.8438c-.5103,0-.939.1855-1.2852.5566-.3462.373-.5605.8926-.6426,1.5625h3.7051v-.0957c-.0366-.6426-.2095-1.1406-.5195-1.4941-.3101-.3516-.729-.5293-1.2578-.5293Z"/>
    <path class="cls-15" d="m190.9834,43.8047c0,1.125-.2573,2.0312-.7725,2.7207-.5151.6875-1.2124,1.0312-2.0918,1.0312-.8979,0-1.604-.2852-2.1191-.8535v3.5605h-1.2646v-10.2402h1.1553l.0615.8203c.5151-.6367,1.2305-.957,2.1465-.957.8887,0,1.5918.3359,2.1089,1.0059s.7759,1.6016.7759,2.7949v.1172Zm-1.2646-.1445c0-.834-.1777-1.4922-.5332-1.9746-.3555-.4844-.8433-.7246-1.4629-.7246-.7656,0-1.3398.3398-1.7227,1.0176v3.5352c.3784.6738.957,1.0117,1.7363,1.0117.606,0,1.0879-.2402,1.4458-.7227.3579-.4805.5366-1.1934.5366-2.1426Z"/>
    <path class="cls-15" d="m192.2549,43.6543c0-.7246.1426-1.377.4272-1.9551.2847-.5801.6812-1.0254,1.1895-1.3398s1.0879-.4727,1.7397-.4727c1.0073,0,1.8218.3496,2.4438,1.0469s.9331,1.625.9331,2.7812v.0898c0,.7188-.1377,1.3652-.4136,1.9375s-.6699,1.0176-1.1826,1.3359c-.5127.3203-1.1016.4785-1.7671.4785-1.0024,0-1.8149-.3477-2.437-1.0449s-.9331-1.6211-.9331-2.7695v-.0879Zm1.2715.1504c0,.8203.1904,1.4785.5708,1.9746.3804.498.8896.7461,1.5278.7461.6426,0,1.1528-.252,1.5312-.7559s.5674-1.209.5674-2.1152c0-.8125-.1924-1.4688-.5776-1.9727s-.8965-.7559-1.5347-.7559c-.6245,0-1.1279.248-1.5107.7461-.3828.4961-.5742,1.207-.5742,2.1328Z"/>
    <path class="cls-15" d="m204.8809,45.459c0-.3418-.1289-.6074-.3862-.7969s-.7065-.3516-1.3467-.4883-1.1484-.3008-1.5244-.4922-.6538-.4199-.834-.6836c-.1802-.2656-.27-.5801-.27-.9434,0-.6074.2563-1.1191.769-1.5391.5127-.418,1.168-.6289,1.9653-.6289.8384,0,1.5186.2168,2.0405.6504.522.4316.7827.9863.7827,1.6602h-1.2715c0-.3457-.147-.6445-.4409-.8945-.2939-.252-.6641-.377-1.1108-.377-.4604,0-.8203.1016-1.0801.3008-.2598.2012-.3896.4629-.3896.7871,0,.3047.1206.5352.3623.6895.2417.1562.6777.3027,1.3091.4453.6313.1406,1.1426.3086,1.5347.5059.3921.1953.6826.4316.8716.707s.2837.6113.2837,1.0078c0,.6621-.2642,1.1914-.793,1.5898s-1.2144.5977-2.0576.5977c-.5923,0-1.1167-.1035-1.5723-.3145-.4556-.209-.8125-.502-1.0698-.8789-.2573-.375-.3862-.7812-.3862-1.2188h1.2646c.0229.4238.1924.7598.5093,1.0078s.7349.373,1.2544.373c.4785,0,.8623-.0977,1.1519-.291s.4341-.4531.4341-.7754Z"/>
    <path class="cls-15" d="m209.1807,36.9277h1.5312l-1.832,2.0098-1.0186-.0039,1.3193-2.0059Zm-.0137,10.4922h-1.2715v-7.3965h1.2715v7.3965Z"/>
    <path class="cls-15" d="m212.626,47.4199h-1.2646v-10.5h1.2646v10.5Z"/>
    <path class="cls-15" d="m214.6562,38.0625c0-.2051.0625-.3789.188-.5195.1255-.1426.311-.2129.5571-.2129s.4331.0703.5605.2129c.1274.1406.1914.3145.1914.5195s-.064.375-.1914.5117-.3145.2051-.5605.2051-.4316-.0684-.5571-.2051-.188-.3066-.188-.5117Zm1.3672,9.3574h-1.2646v-7.3965h1.2646v7.3965Z"/>
    <path class="cls-15" d="m219.7627,38.2324v1.791h1.3809v.9785h-1.3809v4.5918c0,.2969.0615.5195.1846.668s.3325.2227.6289.2227c.146,0,.3462-.0273.6016-.082v1.0195c-.3325.0898-.6562.1348-.9707.1348-.5649,0-.9912-.1699-1.2783-.5117s-.4307-.8281-.4307-1.457v-4.5859h-1.3467v-.9785h1.3467v-1.791h1.2646Z"/>
    <path class="cls-15" d="m228.5264,45.7051l1.832-5.6816h1.292l-2.6523,7.3965h-.9639l-2.6797-7.3965h1.292l1.8799,5.6816Z"/>
    <path class="cls-15" d="m235.2871,45.5684l1.7227-5.5449h1.3535l-2.9736,8.5391c-.4604,1.2305-1.1919,1.8457-2.1943,1.8457l-.2393-.0215-.4717-.0879v-1.0254l.3418.0273c.4282,0,.7622-.0879,1.0015-.2598.2393-.1738.4365-.4902.5913-.9512l.2803-.752-2.6387-7.3145h1.3809l1.8457,5.5449Z"/>
    <path class="cls-15" d="m244.0576,46.6895c-.4922.5781-1.2144.8672-2.167.8672-.7886,0-1.3887-.2285-1.8013-.6875-.4126-.457-.6211-1.1348-.6255-2.0332v-4.8125h1.2646v4.7793c0,1.1211.4556,1.6816,1.3672,1.6816.9663,0,1.6089-.3613,1.9277-1.0801v-5.3809h1.2646v7.3965h-1.2031l-.0273-.7305Z"/>
    <path class="cls-15" d="m248.3984,46.3887h4.3271v1.0312h-5.8721v-.9297l4.0811-5.4199h-4.0195v-1.0469h5.6055v.8965l-4.1221,5.4688Zm1.3604-8.3066l1.0254-1.1621h1.0938v.0684l-1.7363,1.873h-.7725l-1.7158-1.873v-.0684h1.0732l1.0322,1.1621Z"/>
    <path class="cls-15" d="m255.5352,36.9277h1.5312l-1.832,2.0098-1.0186-.0039,1.3193-2.0059Zm-.0137,10.4922h-1.2715v-7.3965h1.2715v7.3965Z"/>
    <path class="cls-15" d="m260.0469,45.7051l1.832-5.6816h1.292l-2.6523,7.3965h-.9639l-2.6797-7.3965h1.292l1.8799,5.6816Z"/>
    <path class="cls-15" d="m268.9541,47.4199c-.0728-.1445-.1323-.4043-.1777-.7793-.5879.6113-1.2896.916-2.1055.916-.729,0-1.3271-.2051-1.7944-.6191-.4673-.4121-.7007-.9336-.7007-1.5684,0-.7695.293-1.3672.8784-1.7949.5854-.4258,1.4092-.6387,2.4712-.6387h1.2305v-.5801c0-.4434-.1323-.7949-.3965-1.0566s-.6538-.3926-1.1689-.3926c-.4512,0-.8296.1133-1.1348.3418-.3052.2266-.458.5039-.458.8262h-1.2715c0-.3691.1309-.7246.3931-1.0703.2622-.3438.6177-.6152,1.0664-.8164.4487-.1992.9424-.3008,1.48-.3008.8521,0,1.52.2129,2.0029.6387.4829.4277.7339,1.0137.752,1.7617v3.4043c0,.6777.0864,1.2188.2598,1.6191v.1094h-1.3262Zm-2.0986-.9629c.3965,0,.7725-.1035,1.1279-.3086s.6128-.4707.7725-.7988v-1.5176h-.9912c-1.5493,0-2.3242.4531-2.3242,1.3594,0,.3965.1323.707.3965.9297.2642.2246.604.3359,1.0186.3359Zm1.1689-9.5371h1.5312l-1.832,2.0098-1.0186-.0039,1.3193-2.0059Z"/>
    <path class="cls-15" d="m273.1992,40.0234l.041.9297c.5649-.7109,1.3032-1.0664,2.2148-1.0664,1.563,0,2.3516.8828,2.3652,2.6465v4.8867h-1.2646v-4.8945c-.0044-.5332-.1265-.9277-.3657-1.1816-.2393-.2559-.6118-.3828-1.1177-.3828-.4102,0-.77.1094-1.0801.3281s-.5513.5059-.7246.8613v5.2695h-1.2646v-7.3965h1.1963Z"/>
    <path class="cls-15" d="m281.1152,36.9277h1.5312l-1.832,2.0098-1.0186-.0039,1.3193-2.0059Zm-.0137,10.4922h-1.2715v-7.3965h1.2715v7.3965Z"/>
    <path class="cls-15" d="m289.0928,45.7051l1.832-5.6816h1.292l-2.6523,7.3965h-.9639l-2.6797-7.3965h1.292l1.8799,5.6816Z"/>
    <path class="cls-15" d="m296.5029,47.5566c-1.0024,0-1.8184-.3281-2.4473-.9883-.6289-.6582-.9434-1.5391-.9434-2.6406v-.2324c0-.7344.1401-1.3887.4204-1.9668.2803-.5762.6724-1.0273,1.1758-1.3535.5034-.3242,1.0493-.4883,1.6372-.4883.9614,0,1.709.3164,2.2422.9512.5332.6328.7998,1.5391.7998,2.7207v.5254h-5.0107c.0181.7305.2314,1.3184.6392,1.7676s.9263.6738,1.5552.6738c.4468,0,.8247-.0918,1.1348-.2734.3101-.1836.5811-.4238.8135-.7246l.7725.6016c-.6196.9512-1.5493,1.4277-2.7891,1.4277Zm-.1709-9.4746l1.0254-1.1621h1.0938v.0684l-1.7363,1.873h-.7725l-1.7158-1.873v-.0684h1.0732l1.0322,1.1621Zm.0137,2.8438c-.5103,0-.939.1855-1.2852.5566-.3462.373-.5605.8926-.6426,1.5625h3.7051v-.0957c-.0366-.6426-.2095-1.1406-.5195-1.4941-.3101-.3516-.729-.5293-1.2578-.5293Z"/>
    <path class="cls-15" d="m302.5664,38.2324v1.791h1.3809v.9785h-1.3809v4.5918c0,.2969.0615.5195.1846.668s.3325.2227.6289.2227c.146,0,.3462-.0273.6016-.082v1.0195c-.3325.0898-.6562.1348-.9707.1348-.5649,0-.9912-.1699-1.2783-.5117s-.4307-.8281-.4307-1.457v-4.5859h-1.3467v-.9785h1.3467v-1.791h1.2646Z"/>
    <path class="cls-15" d="m308.999,41.1582c-.1914-.0312-.3989-.0469-.6221-.0469-.8296,0-1.3921.3535-1.6885,1.0586v5.25h-1.2646v-7.3965h1.2305l.0205.8555c.4146-.6621,1.0024-.9922,1.7637-.9922.2461,0,.4331.0332.5605.0957v1.1758Z"/>
    <path class="cls-15" d="m311.3574,40.0234l.041.9297c.5649-.7109,1.3032-1.0664,2.2148-1.0664,1.563,0,2.3516.8828,2.3652,2.6465v4.8867h-1.2646v-4.8945c-.0044-.5332-.1265-.9277-.3657-1.1816-.2393-.2559-.6118-.3828-1.1177-.3828-.4102,0-.77.1094-1.0801.3281s-.5513.5059-.7246.8613v5.2695h-1.2646v-7.3965h1.1963Z"/>
    <path class="cls-15" d="m320.3057,45.5684l1.7227-5.5449h1.3535l-2.9736,8.5391c-.4604,1.2305-1.1919,1.8457-2.1943,1.8457l-.2393-.0215-.4717-.0879v-1.0254l.3418.0273c.4282,0,.7622-.0879,1.0015-.2598.2393-.1738.4365-.4902.5913-.9512l.2803-.752-2.6387-7.3145h1.3809l1.8457,5.5449Zm.7178-8.6484h1.5312l-1.832,2.0098-1.0186-.0039,1.3193-2.0059Z"/>
    <path class="cls-15" d="m327.4766,46.5254c.4512,0,.8452-.1367,1.1826-.4102s.5239-.6152.5605-1.0254h1.1963c-.0229.4238-.1685.8262-.4375,1.209s-.6279.6895-1.0767.916c-.4487.2285-.9238.3418-1.4253.3418-1.0073,0-1.8081-.3359-2.4028-1.0078s-.8921-1.5918-.8921-2.7578v-.2129c0-.7188.1323-1.3594.3965-1.9199s.6436-.9961,1.1382-1.3066c.4946-.3086,1.0791-.4648,1.7534-.4648.8296,0,1.5186.248,2.0679.7461.5493.4961.8418,1.1406.8784,1.9336h-1.1963c-.0366-.4785-.2178-.8711-.5435-1.1797-.3257-.3066-.728-.4609-1.2065-.4609-.6426,0-1.1406.2324-1.4937.6934-.353.4629-.5298,1.1328-.5298,2.0078v.2383c0,.8535.1753,1.5098.5264,1.9688.3511.4609.8521.6914,1.5039.6914Z"/>
    <path class="cls-15" d="m333.1025,40.9199c.5605-.6895,1.2896-1.0332,2.1875-1.0332,1.563,0,2.3516.8828,2.3652,2.6465v4.8867h-1.2646v-4.8945c-.0044-.5332-.1265-.9277-.3657-1.1816-.2393-.2559-.6118-.3828-1.1177-.3828-.4102,0-.77.1094-1.0801.3281s-.5513.5059-.7246.8613v5.2695h-1.2646v-10.5h1.2646v4Z"/>
    <path class="cls-15" d="m344.2041,46.3887h4.3271v1.0312h-5.8721v-.9297l4.0811-5.4199h-4.0195v-1.0469h5.6055v.8965l-4.1221,5.4688Z"/>
    <path class="cls-15" d="m349.6455,43.6602c0-1.1348.269-2.0469.8066-2.7383.5376-.6895,1.2417-1.0352,2.1123-1.0352.8657,0,1.5518.2969,2.0576.8887v-3.8555h1.2646v10.5h-1.1621l-.0615-.793c-.5059.6211-1.21.9297-2.1123.9297-.8569,0-1.5552-.3496-2.0952-1.0527-.54-.7012-.8101-1.6172-.8101-2.748v-.0957Zm1.2646.1445c0,.8379.1733,1.4941.5195,1.9688.3462.4727.8247.7109,1.4355.7109.8022,0,1.3877-.3613,1.7568-1.0801v-3.3984c-.3784-.6973-.9595-1.0449-1.7432-1.0449-.6196,0-1.103.2383-1.4492.7168s-.5195,1.1875-.5195,2.127Z"/>
    <path class="cls-15" d="m361.4238,41.1582c-.1914-.0312-.3989-.0469-.6221-.0469-.8296,0-1.3921.3535-1.6885,1.0586v5.25h-1.2646v-7.3965h1.2305l.0205.8555c.4146-.6621,1.0024-.9922,1.7637-.9922.2461,0,.4331.0332.5605.0957v1.1758Z"/>
    <path class="cls-15" d="m362.1143,43.6543c0-.7246.1426-1.377.4272-1.9551.2847-.5801.6812-1.0254,1.1895-1.3398s1.0879-.4727,1.7397-.4727c1.0073,0,1.8218.3496,2.4438,1.0469s.9331,1.625.9331,2.7812v.0898c0,.7188-.1377,1.3652-.4136,1.9375s-.6699,1.0176-1.1826,1.3359c-.5127.3203-1.1016.4785-1.7671.4785-1.0024,0-1.8149-.3477-2.437-1.0449s-.9331-1.6211-.9331-2.7695v-.0879Zm1.2715.1504c0,.8203.1904,1.4785.5708,1.9746.3804.498.8896.7461,1.5278.7461.6426,0,1.1528-.252,1.5312-.7559s.5674-1.209.5674-2.1152c0-.8125-.1924-1.4688-.5776-1.9727s-.8965-.7559-1.5347-.7559c-.6245,0-1.1279.248-1.5107.7461-.3828.4961-.5742,1.207-.5742,2.1328Z"/>
    <path class="cls-15" d="m371.7393,40.0234v8.252c0,1.4219-.6445,2.1328-1.9346,2.1328-.2783,0-.5361-.041-.7725-.123v-1.0059c.1465.0371.3379.0547.5742.0547.2822,0,.498-.0762.6455-.2285.1484-.1523.2227-.418.2227-.7969v-8.2852h1.2646Zm-1.3945-1.9609c0-.2012.0625-.373.1885-.5176.125-.1426.3086-.2148.5498-.2148.2461,0,.4326.0703.5605.2129.1279.1406.1914.3145.1914.5195s-.0635.375-.1914.5117-.3145.2051-.5605.2051-.4307-.0684-.5537-.2051-.1846-.3066-.1846-.5117Z"/>
    <path class="cls-15" d="m378.3428,46.6895c-.4922.5781-1.2148.8672-2.167.8672-.7881,0-1.3887-.2285-1.8018-.6875-.4121-.457-.6201-1.1348-.625-2.0332v-4.8125h1.2646v4.7793c0,1.1211.4561,1.6816,1.3672,1.6816.9658,0,1.6084-.3613,1.9277-1.0801v-5.3809h1.2646v7.3965h-1.2031l-.0273-.7305Zm-.1777-8.9688c0,.3965-.1416.7266-.4238.9941-.2822.2656-.6309.4004-1.0459.4004-.4189,0-.7686-.1348-1.0498-.4043-.2793-.2676-.4199-.5996-.4199-.9902,0-.3926.1406-.7266.4199-1.0059.2812-.2773.6309-.416,1.0498-.416s.7686.1387,1.0498.416c.2793.2793.4199.6133.4199,1.0059Zm-2.2627,0c0,.2129.0762.3984.2295.5527.1523.1562.3398.2324.5635.2324.2188,0,.4053-.0742.5605-.2246s.2324-.3379.2324-.5605c0-.2246-.0762-.4141-.2295-.5723-.1523-.1562-.3398-.2344-.5635-.2344-.2275,0-.417.0801-.5674.2383-.1504.1602-.2256.3496-.2256.5684Z"/>
    <path class="cls-15" d="m381.5215,46.7578c0-.2188.0645-.4023.1953-.5469.1289-.1465.3242-.2188.584-.2188s.457.0723.5918.2188c.1338.1445.2012.3281.2012.5469,0,.209-.0674.3848-.2012.5254-.1348.1426-.332.2129-.5918.2129s-.4551-.0703-.584-.2129c-.1309-.1406-.1953-.3164-.1953-.5254Z"/>
  </g>
  <g>
    <rect class="cls-7" x="12.2648" y="67.2806" width="11.4097" height="11.4097"/>
    <g>
      <path class="cls-14" d="m36.4585,75.6729c0-.4062-.1431-.7197-.4282-.9395-.2861-.2197-.8013-.4424-1.5459-.667-.7446-.2236-1.3374-.4736-1.7773-.748-.8423-.5293-1.2632-1.2188-1.2632-2.0703,0-.7441.3037-1.3574.9106-1.8398.6074-.4824,1.3955-.7246,2.3647-.7246.6431,0,1.2168.1191,1.7202.3555.5034.2373.8994.5752,1.187,1.0127.2876.4385.4316.9238.4316,1.457h-1.5996c0-.4824-.1514-.8604-.4536-1.1328-.3027-.2734-.7354-.4092-1.2983-.4092-.5249,0-.9321.1113-1.2222.3359-.2896.2246-.4346.5371-.4346.9395,0,.3389.1567.6211.4697.8477s.8296.4463,1.5488.6602c.7192.2129,1.2969.457,1.7329.7295.436.2734.7554.5869.9585.9395.2031.3535.3047.7676.3047,1.2412,0,.7705-.2949,1.3828-.8857,1.8379-.5898.4551-1.3911.6816-2.4023.6816-.6685,0-1.2832-.123-1.8438-.3711-.561-.2471-.9971-.5889-1.3076-1.0254-.3115-.4355-.4668-.9434-.4668-1.5234h1.606c0,.5254.1733.9316.5205,1.2188.3472.2881.8442.4316,1.4917.4316.5586,0,.9785-.1133,1.2598-.3389.2817-.2266.4224-.5264.4224-.8984Z"/>
      <path class="cls-14" d="m39.0356,74.5557c0-.6729.1333-1.2793.3999-1.8184.2666-.54.6411-.9541,1.1235-1.2441s1.0366-.4346,1.6631-.4346c.9268,0,1.6792.2979,2.2563.8945.5781.5967.8901,1.3877.9365,2.374l.0063.3623c0,.6768-.1304,1.2812-.3901,1.8145-.2607.5332-.6328.9463-1.1172,1.2383-.4849.292-1.0444.4375-1.6792.4375-.9692,0-1.7446-.3223-2.3267-.9678-.5815-.6455-.8726-1.5049-.8726-2.5801v-.0762Zm1.5425.1338c0,.7061.146,1.2598.438,1.6592.292.4004.6982.6006,1.2188.6006s.9258-.2031,1.2153-.6094c.29-.4062.4351-1.001.4351-1.7842,0-.6943-.1489-1.2441-.4478-1.6504-.2979-.4062-.7031-.6094-1.2153-.6094-.5034,0-.9033.2002-1.1997.5996-.2964.4004-.4443.998-.4443,1.7939Z"/>
      <path class="cls-14" d="m48.3667,78.0527h-1.5425v-9.75h1.5425v9.75Z"/>
      <path class="cls-14" d="m54.1494,78.0527c-.0679-.1309-.127-.3447-.1777-.6406-.4907.5117-1.0918.7676-1.8027.7676-.6899,0-1.2524-.1963-1.6885-.5898s-.6538-.8799-.6538-1.46c0-.7324.272-1.2939.8154-1.6855.5439-.3916,1.3218-.5869,2.333-.5869h.9458v-.4512c0-.3555-.0996-.6396-.2983-.8535-.1987-.2129-.5015-.3203-.9077-.3203-.3511,0-.6392.0879-.8633.2637s-.3364.3984-.3364.6699h-1.5425c0-.377.125-.7295.3745-1.0576.2495-.3271.5894-.585,1.0186-.7705.4297-.1865.9092-.2793,1.438-.2793.8042,0,1.4453.2012,1.9233.6055s.7236.9727.7363,1.7051v3.0977c0,.6172.0869,1.1104.2603,1.4785v.1074h-1.5742Zm-1.6948-1.1104c.3047,0,.5913-.0742.8604-.2217.2686-.1484.4707-.3477.606-.5977v-1.2949h-.8315c-.5713,0-1.001.0996-1.2886.2988s-.4316.4805-.4316.8438c0,.2969.0981.5332.2954.708.1963.1758.46.2637.79.2637Zm.8569-8.6396h1.7583l-1.7583,1.9238-1.2378-.0029,1.2378-1.9209Z"/>
      <path class="cls-14" d="m60.6748,72.5938c-.2031-.0332-.4126-.0508-.6284-.0508-.7065,0-1.1826.2715-1.4282.8125v4.6973h-1.5425v-6.8672h1.4727l.0381.7676c.3726-.5967.8887-.8945,1.5488-.8945.2202,0,.4019.0293.5459.0879l-.0063,1.4473Z"/>
      <path class="cls-14" d="m63.0806,71.1855l.0444.793c.5078-.6133,1.1743-.9199,1.9995-.9199,1.4302,0,2.1582.8184,2.1836,2.4561v4.5381h-1.5425v-4.4492c0-.4355-.0942-.7588-.2827-.9678-.188-.21-.4961-.3145-.9233-.3145-.6221,0-1.0854.2812-1.3901.8447v4.8867h-1.5425v-6.8672h1.4536Z"/>
      <path class="cls-14" d="m70.5391,78.0527h-1.5425v-6.8672h1.5425v6.8672Zm-.292-9.7051h1.7583l-1.7583,1.9238-1.2378-.0039,1.2378-1.9199Z"/>
      <path class="cls-14" d="m78.5562,78.1797c-.9775,0-1.77-.3076-2.3774-.9229-.6069-.6162-.9106-1.4355-.9106-2.46v-.1904c0-.6855.1323-1.2979.397-1.8379.2642-.5391.6357-.959,1.1138-1.2598s1.0112-.4502,1.5996-.4502c.9351,0,1.6577.2979,2.1675.8945.5103.5967.7651,1.4414.7651,2.5332v.6211h-4.4878c.0464.5674.2358,1.0156.5684,1.3457.332.3301.75.4961,1.2534.4961.7065,0,1.2822-.2861,1.7266-.8574l.8315.793c-.2749.4111-.6421.7295-1.1016.9561-.459.2256-.9741.3389-1.5454.3389Zm-.1841-5.8838c-.4233,0-.7646.1484-1.0254.4443-.2598.2959-.4263.709-.498,1.2383h2.939v-.1152c-.0337-.5156-.1714-.9062-.4126-1.1709s-.5757-.3965-1.0029-.3965Z"/>
      <path class="cls-14" d="m84.1484,78.0527h-1.5425v-9.75h1.5425v9.75Z"/>
      <path class="cls-14" d="m88.8521,78.1797c-.9775,0-1.77-.3076-2.3774-.9229-.6069-.6162-.9106-1.4355-.9106-2.46v-.1904c0-.6855.1323-1.2979.397-1.8379.2642-.5391.6357-.959,1.1138-1.2598s1.0112-.4502,1.5996-.4502c.9351,0,1.6577.2979,2.1675.8945.5103.5967.7651,1.4414.7651,2.5332v.6211h-4.4878c.0464.5674.2358,1.0156.5684,1.3457.332.3301.75.4961,1.2534.4961.7065,0,1.2822-.2861,1.7266-.8574l.8315.793c-.2749.4111-.6421.7295-1.1016.9561-.459.2256-.9741.3389-1.5454.3389Zm-.1841-5.8838c-.4233,0-.7646.1484-1.0254.4443-.2598.2959-.4263.709-.498,1.2383h2.939v-.1152c-.0337-.5156-.1714-.9062-.4126-1.1709s-.5757-.3965-1.0029-.3965Z"/>
      <path class="cls-14" d="m95.0347,75.1074l-.6855.7051v2.2402h-1.5425v-9.75h1.5425v5.625l.4824-.6035,1.8979-2.1387h1.8535l-2.5518,2.8623,2.8247,4.0049h-1.7837l-2.0376-2.9453Z"/>
      <path class="cls-14" d="m101.522,69.5156v1.6699h1.2124v1.1426h-1.2124v3.834c0,.2617.0518.4512.1558.5674.1035.1162.2886.1748.5552.1748.1777,0,.3574-.0215.5396-.0635v1.1934c-.3511.0977-.6899.1455-1.0156.1455-1.1851,0-1.7773-.6533-1.7773-1.9609v-3.8906h-1.1299v-1.1426h1.1299v-1.6699h1.5425Z"/>
      <path class="cls-14" d="m107.5078,72.5938c-.2031-.0332-.4126-.0508-.6284-.0508-.7065,0-1.1826.2715-1.4282.8125v4.6973h-1.5425v-6.8672h1.4727l.0381.7676c.3726-.5967.8887-.8945,1.5488-.8945.2202,0,.4019.0293.5459.0879l-.0063,1.4473Z"/>
      <path class="cls-14" d="m112.5859,78.0527c-.0679-.1309-.127-.3447-.1777-.6406-.4907.5117-1.0918.7676-1.8027.7676-.6899,0-1.2524-.1963-1.6885-.5898s-.6538-.8799-.6538-1.46c0-.7324.272-1.2939.8154-1.6855.5439-.3916,1.3218-.5869,2.333-.5869h.9458v-.4512c0-.3555-.0996-.6396-.2983-.8535-.1987-.2129-.5015-.3203-.9077-.3203-.3511,0-.6392.0879-.8633.2637s-.3364.3984-.3364.6699h-1.5425c0-.377.125-.7295.3745-1.0576.2495-.3271.5894-.585,1.0186-.7705.4297-.1865.9092-.2793,1.438-.2793.8042,0,1.4453.2012,1.9233.6055s.7236.9727.7363,1.7051v3.0977c0,.6172.0869,1.1104.2603,1.4785v.1074h-1.5742Zm-1.6948-1.1104c.3047,0,.5913-.0742.8604-.2217.2686-.1484.4707-.3477.606-.5977v-1.2949h-.8315c-.5713,0-1.001.0996-1.2886.2988s-.4316.4805-.4316.8438c0,.2969.0981.5332.2954.708.1963.1758.46.2637.79.2637Zm.8569-8.6396h1.7583l-1.7583,1.9238-1.2378-.0029,1.2378-1.9209Z"/>
      <path class="cls-14" d="m119.1113,72.5938c-.2031-.0332-.4126-.0508-.6284-.0508-.7065,0-1.1826.2715-1.4282.8125v4.6973h-1.5425v-6.8672h1.4727l.0381.7676c.3726-.5967.8887-.8945,1.5488-.8945.2202,0,.4019.0293.5459.0879l-.0063,1.4473Z"/>
      <path class="cls-14" d="m121.5171,71.1855l.0444.793c.5078-.6133,1.1743-.9199,1.9995-.9199,1.4302,0,2.1582.8184,2.1836,2.4561v4.5381h-1.5425v-4.4492c0-.4355-.0942-.7588-.2827-.9678-.188-.21-.4961-.3145-.9233-.3145-.6221,0-1.0854.2812-1.3901.8447v4.8867h-1.5425v-6.8672h1.4536Z"/>
      <path class="cls-14" d="m129.7183,75.8438l1.3965-4.6582h1.644l-2.7295,7.9082c-.4189,1.1562-1.1299,1.7334-2.1328,1.7334-.2241,0-.4717-.0381-.7427-.1143v-1.1992l.292.0186c.3892,0,.6821-.0713.8794-.2119.1963-.1426.3521-.3799.4663-.7139l.2222-.5898-2.4121-6.8311h1.6631l1.4536,4.6582Z"/>
    </g>
  </g>
  <g>
    <rect class="cls-8" x="164.0039" y="67.2806" width="11.4097" height="11.4097"/>
    <g>
      <path class="cls-10" d="m186.498,76.0254l2.3486-7.2305h1.7646l-3.3262,9.2422h-1.5552l-3.3135-9.2422h1.7583l2.3232,7.2305Z"/>
      <path class="cls-10" d="m194.5278,78.1641c-.9775,0-1.77-.3076-2.3774-.9229-.6069-.6162-.9106-1.4355-.9106-2.46v-.1904c0-.6855.1323-1.2979.397-1.8379.2642-.5391.6357-.959,1.1138-1.2598s1.0112-.4502,1.5996-.4502c.9351,0,1.6577.2979,2.1675.8945.5103.5967.7651,1.4414.7651,2.5332v.6211h-4.4878c.0464.5674.2358,1.0156.5684,1.3457.332.3301.75.4961,1.2534.4961.7065,0,1.2822-.2861,1.7266-.8574l.8315.793c-.2749.4111-.6421.7295-1.1016.9561-.459.2256-.9741.3389-1.5454.3389Zm-.2983-8.8984l.9268-.9844h1.3203v.0635l-1.771,1.7705h-.9521l-1.7583-1.7773v-.0566h1.3076l.9268.9844Zm.1143,3.0146c-.4233,0-.7646.1484-1.0254.4443-.2598.2959-.4263.709-.498,1.2383h2.939v-.1152c-.0337-.5156-.1714-.9062-.4126-1.1709s-.5757-.3965-1.0029-.3965Z"/>
      <path class="cls-10" d="m200.4121,69.5v1.6699h1.2124v1.1426h-1.2124v3.834c0,.2617.0518.4512.1558.5674.1035.1162.2886.1748.5552.1748.1777,0,.3574-.0215.5396-.0635v1.1934c-.3511.0977-.6899.1455-1.0156.1455-1.1851,0-1.7773-.6533-1.7773-1.9609v-3.8906h-1.1299v-1.1426h1.1299v-1.6699h1.5425Z"/>
      <path class="cls-10" d="m206.3979,72.5781c-.2031-.0332-.4126-.0508-.6284-.0508-.7065,0-1.1826.2715-1.4282.8125v4.6973h-1.5425v-6.8672h1.4727l.0381.7676c.3726-.5967.8887-.8945,1.5488-.8945.2202,0,.4019.0293.5459.0879l-.0063,1.4473Z"/>
      <path class="cls-10" d="m208.8037,71.1699l.0444.793c.5078-.6133,1.1743-.9199,1.9995-.9199,1.4302,0,2.1582.8184,2.1836,2.4561v4.5381h-1.5425v-4.4492c0-.4355-.0942-.7588-.2827-.9678-.188-.21-.4961-.3145-.9233-.3145-.6221,0-1.0854.2812-1.3901.8447v4.8867h-1.5425v-6.8672h1.4536Z"/>
      <path class="cls-10" d="m217.627,78.1641c-.9775,0-1.77-.3076-2.3774-.9229-.6069-.6162-.9106-1.4355-.9106-2.46v-.1904c0-.6855.1323-1.2979.397-1.8379.2642-.5391.6357-.959,1.1138-1.2598s1.0112-.4502,1.5996-.4502c.9351,0,1.6577.2979,2.1675.8945.5103.5967.7651,1.4414.7651,2.5332v.6211h-4.4878c.0464.5674.2358,1.0156.5684,1.3457.332.3301.75.4961,1.2534.4961.7065,0,1.2822-.2861,1.7266-.8574l.8315.793c-.2749.4111-.6421.7295-1.1016.9561-.459.2256-.9741.3389-1.5454.3389Zm-.1841-5.8838c-.4233,0-.7646.1484-1.0254.4443-.2598.2959-.4263.709-.498,1.2383h2.939v-.1152c-.0337-.5156-.1714-.9062-.4126-1.1709s-.5757-.3965-1.0029-.3965Zm.3491-3.9932h1.7583l-1.7583,1.9238-1.2378-.0029,1.2378-1.9209Z"/>
      <path class="cls-10" d="m227.8403,78.1641c-.9775,0-1.77-.3076-2.3774-.9229-.6069-.6162-.9106-1.4355-.9106-2.46v-.1904c0-.6855.1323-1.2979.397-1.8379.2642-.5391.6357-.959,1.1138-1.2598s1.0112-.4502,1.5996-.4502c.9351,0,1.6577.2979,2.1675.8945.5103.5967.7651,1.4414.7651,2.5332v.6211h-4.4878c.0464.5674.2358,1.0156.5684,1.3457.332.3301.75.4961,1.2534.4961.7065,0,1.2822-.2861,1.7266-.8574l.8315.793c-.2749.4111-.6421.7295-1.1016.9561-.459.2256-.9741.3389-1.5454.3389Zm-.1841-5.8838c-.4233,0-.7646.1484-1.0254.4443-.2598.2959-.4263.709-.498,1.2383h2.939v-.1152c-.0337-.5156-.1714-.9062-.4126-1.1709s-.5757-.3965-1.0029-.3965Z"/>
      <path class="cls-10" d="m233.4326,78.0371h-1.5425v-9.75h1.5425v9.75Z"/>
      <path class="cls-10" d="m238.1362,78.1641c-.9775,0-1.77-.3076-2.3774-.9229-.6069-.6162-.9106-1.4355-.9106-2.46v-.1904c0-.6855.1323-1.2979.397-1.8379.2642-.5391.6357-.959,1.1138-1.2598s1.0112-.4502,1.5996-.4502c.9351,0,1.6577.2979,2.1675.8945.5103.5967.7651,1.4414.7651,2.5332v.6211h-4.4878c.0464.5674.2358,1.0156.5684,1.3457.332.3301.75.4961,1.2534.4961.7065,0,1.2822-.2861,1.7266-.8574l.8315.793c-.2749.4111-.6421.7295-1.1016.9561-.459.2256-.9741.3389-1.5454.3389Zm-.1841-5.8838c-.4233,0-.7646.1484-1.0254.4443-.2598.2959-.4263.709-.498,1.2383h2.939v-.1152c-.0337-.5156-.1714-.9062-.4126-1.1709s-.5757-.3965-1.0029-.3965Z"/>
      <path class="cls-10" d="m244.3188,75.0918l-.6855.7051v2.2402h-1.5425v-9.75h1.5425v5.625l.4824-.6035,1.8979-2.1387h1.8535l-2.5518,2.8623,2.8247,4.0049h-1.7837l-2.0376-2.9453Z"/>
      <path class="cls-10" d="m250.8062,69.5v1.6699h1.2124v1.1426h-1.2124v3.834c0,.2617.0518.4512.1558.5674.1035.1162.2886.1748.5552.1748.1777,0,.3574-.0215.5396-.0635v1.1934c-.3511.0977-.6899.1455-1.0156.1455-1.1851,0-1.7773-.6533-1.7773-1.9609v-3.8906h-1.1299v-1.1426h1.1299v-1.6699h1.5425Z"/>
      <path class="cls-10" d="m256.792,72.5781c-.2031-.0332-.4126-.0508-.6284-.0508-.7065,0-1.1826.2715-1.4282.8125v4.6973h-1.5425v-6.8672h1.4727l.0381.7676c.3726-.5967.8887-.8945,1.5488-.8945.2202,0,.4019.0293.5459.0879l-.0063,1.4473Z"/>
      <path class="cls-10" d="m261.8701,78.0371c-.0679-.1309-.127-.3447-.1777-.6406-.4907.5117-1.0918.7676-1.8027.7676-.6899,0-1.2524-.1963-1.6885-.5898s-.6538-.8799-.6538-1.46c0-.7324.272-1.2939.8154-1.6855.5439-.3916,1.3218-.5869,2.333-.5869h.9458v-.4512c0-.3555-.0996-.6396-.2983-.8535-.1987-.2129-.5015-.3203-.9077-.3203-.3511,0-.6392.0879-.8633.2637s-.3364.3984-.3364.6699h-1.5425c0-.377.125-.7295.3745-1.0576.2495-.3271.5894-.585,1.0186-.7705.4297-.1865.9092-.2793,1.438-.2793.8042,0,1.4453.2012,1.9233.6055s.7236.9727.7363,1.7051v3.0977c0,.6172.0869,1.1104.2603,1.4785v.1074h-1.5742Zm-1.6948-1.1104c.3047,0,.5913-.0742.8604-.2217.2686-.1484.4707-.3477.606-.5977v-1.2949h-.8315c-.5713,0-1.001.0996-1.2886.2988s-.4316.4805-.4316.8438c0,.2969.0981.5332.2954.708.1963.1758.46.2637.79.2637Zm.8569-8.6396h1.7583l-1.7583,1.9238-1.2378-.0029,1.2378-1.9209Z"/>
      <path class="cls-10" d="m268.3955,72.5781c-.2031-.0332-.4126-.0508-.6284-.0508-.7065,0-1.1826.2715-1.4282.8125v4.6973h-1.5425v-6.8672h1.4727l.0381.7676c.3726-.5967.8887-.8945,1.5488-.8945.2202,0,.4019.0293.5459.0879l-.0063,1.4473Z"/>
      <path class="cls-10" d="m270.8013,71.1699l.0444.793c.5078-.6133,1.1743-.9199,1.9995-.9199,1.4302,0,2.1582.8184,2.1836,2.4561v4.5381h-1.5425v-4.4492c0-.4355-.0942-.7588-.2827-.9678-.188-.21-.4961-.3145-.9233-.3145-.6221,0-1.0854.2812-1.3901.8447v4.8867h-1.5425v-6.8672h1.4536Z"/>
      <path class="cls-10" d="m279.0024,75.8281l1.3965-4.6582h1.644l-2.7295,7.9082c-.4189,1.1562-1.1299,1.7334-2.1328,1.7334-.2241,0-.4717-.0381-.7427-.1143v-1.1992l.292.0186c.3892,0,.6821-.0713.8794-.2119.1963-.1426.3521-.3799.4663-.7139l.2222-.5898-2.4121-6.8311h1.6631l1.4536,4.6582Z"/>
    </g>
  </g>
  <g>
    <path class="cls-9" d="m341.9429,75.6572c0-.4062-.1431-.7197-.4282-.9395-.2861-.2197-.8013-.4424-1.5459-.667-.7446-.2236-1.3374-.4736-1.7773-.748-.8423-.5293-1.2632-1.2188-1.2632-2.0703,0-.7441.3037-1.3574.9106-1.8398.6074-.4824,1.3955-.7246,2.3647-.7246.6431,0,1.2168.1191,1.7202.3555.5034.2373.8994.5752,1.187,1.0127.2876.4385.4316.9238.4316,1.457h-1.5996c0-.4824-.1514-.8604-.4536-1.1328-.3027-.2734-.7354-.4092-1.2983-.4092-.5249,0-.9321.1113-1.2222.3359-.2896.2246-.4346.5371-.4346.9395,0,.3389.1567.6211.4697.8477s.8296.4463,1.5488.6602c.7192.2129,1.2969.457,1.7329.7295.436.2734.7554.5869.9585.9395.2031.3535.3047.7676.3047,1.2412,0,.7705-.2949,1.3828-.8857,1.8379-.5898.4551-1.3911.6816-2.4023.6816-.6685,0-1.2832-.123-1.8438-.3711-.561-.2471-.9971-.5889-1.3076-1.0254-.3115-.4355-.4668-.9434-.4668-1.5234h1.606c0,.5254.1733.9316.5205,1.2188.3472.2881.8442.4316,1.4917.4316.5586,0,.9785-.1133,1.2598-.3389.2817-.2266.4224-.5264.4224-.8984Z"/>
    <path class="cls-9" d="m350.8232,74.6738c0,1.0615-.2412,1.9092-.7236,2.542-.4824.6318-1.1299.9482-1.9424.9482-.7534,0-1.3564-.2471-1.8091-.7422v3.2559h-1.5425v-9.5078h1.4219l.0635.6973c.4526-.5498,1.0684-.8242,1.8472-.8242.8379,0,1.4946.3115,1.9712.9355.4756.625.7139,1.4912.7139,2.5996v.0957Zm-1.5361-.1338c0-.6855-.1367-1.2295-.4092-1.6318-.2734-.4014-.6636-.6025-1.1714-.6025-.6304,0-1.0835.2607-1.3584.7803v3.0469c.2793.5332.7363.8008,1.3711.8008.4907,0,.875-.1982,1.1519-.5938.2773-.3965.416-.9961.416-1.7998Z"/>
    <path class="cls-9" d="m351.8389,74.54c0-.6729.1333-1.2793.3999-1.8184.2666-.54.6411-.9541,1.1235-1.2441s1.0366-.4346,1.6631-.4346c.9268,0,1.6792.2979,2.2563.8945.5781.5967.8901,1.3877.9365,2.374l.0063.3623c0,.6768-.1304,1.2812-.3901,1.8145-.2607.5332-.6328.9463-1.1172,1.2383-.4849.292-1.0444.4375-1.6792.4375-.9692,0-1.7446-.3223-2.3267-.9678-.5815-.6455-.8726-1.5049-.8726-2.5801v-.0762Zm1.5425.1338c0,.7061.146,1.2598.438,1.6592.292.4004.6982.6006,1.2188.6006s.9258-.2031,1.2153-.6094c.29-.4062.4351-1.001.4351-1.7842,0-.6943-.1489-1.2441-.4478-1.6504-.2979-.4062-.7031-.6094-1.2153-.6094-.5034,0-.9033.2002-1.1997.5996-.2964.4004-.4443.998-.4443,1.7939Z"/>
    <path class="cls-9" d="m361.4619,69.5v1.6699h1.2124v1.1426h-1.2124v3.834c0,.2617.0518.4512.1558.5674.1035.1162.2886.1748.5552.1748.1777,0,.3574-.0215.5396-.0635v1.1934c-.3511.0977-.6899.1455-1.0156.1455-1.1851,0-1.7773-.6533-1.7773-1.9609v-3.8906h-1.1299v-1.1426h1.1299v-1.6699h1.5425Z"/>
    <path class="cls-9" d="m365.6514,69.2656l.9268-.9844h1.3203v.0635l-1.771,1.7705h-.9521l-1.7583-1.7773v-.0566h1.3076l.9268.9844Zm1.7964,3.3125c-.2031-.0332-.4126-.0508-.6284-.0508-.7065,0-1.1826.2715-1.4282.8125v4.6973h-1.5425v-6.8672h1.4727l.0381.7676c.3726-.5967.8887-.8945,1.5488-.8945.2202,0,.4019.0293.5459.0879l-.0063,1.4473Z"/>
    <path class="cls-9" d="m371.4468,78.1641c-.9775,0-1.77-.3076-2.3774-.9229-.6069-.6162-.9106-1.4355-.9106-2.46v-.1904c0-.6855.1323-1.2979.397-1.8379.2642-.5391.6357-.959,1.1138-1.2598s1.0112-.4502,1.5996-.4502c.9351,0,1.6577.2979,2.1675.8945.5103.5967.7651,1.4414.7651,2.5332v.6211h-4.4878c.0464.5674.2358,1.0156.5684,1.3457.332.3301.75.4961,1.2534.4961.7065,0,1.2822-.2861,1.7266-.8574l.8315.793c-.2749.4111-.6421.7295-1.1016.9561-.459.2256-.9741.3389-1.5454.3389Zm-.1841-5.8838c-.4233,0-.7646.1484-1.0254.4443-.2598.2959-.4263.709-.498,1.2383h2.939v-.1152c-.0337-.5156-.1714-.9062-.4126-1.1709s-.5757-.3965-1.0029-.3965Z"/>
    <path class="cls-9" d="m381.4253,74.6738c0,1.0664-.2383,1.9141-.7139,2.5449-.4766.6309-1.1313.9453-1.9648.9453-.8042,0-1.4302-.2891-1.8789-.8691l-.0762.7422h-1.3965v-9.75h1.5425v3.543c.4443-.5254,1.043-.7871,1.7964-.7871.8379,0,1.4961.3105,1.9741.9326s.7173,1.4912.7173,2.6084v.0898Zm-1.5425-.1338c0-.7451-.1313-1.3037-.3936-1.6758s-.6431-.5586-1.1426-.5586c-.6685,0-1.1382.292-1.4092.876v2.8311c.2749.5967.749.8955,1.4219.8955.4824,0,.855-.1807,1.1172-.54s.3979-.9033.4062-1.6318v-.1963Z"/>
    <path class="cls-9" d="m386.8208,78.0371c-.0679-.1309-.127-.3447-.1777-.6406-.4907.5117-1.0918.7676-1.8027.7676-.6899,0-1.2524-.1963-1.6885-.5898s-.6538-.8799-.6538-1.46c0-.7324.272-1.2939.8154-1.6855.5439-.3916,1.3218-.5869,2.333-.5869h.9458v-.4512c0-.3555-.0996-.6396-.2983-.8535-.1987-.2129-.5015-.3203-.9077-.3203-.3511,0-.6392.0879-.8633.2637s-.3364.3984-.3364.6699h-1.5425c0-.377.125-.7295.3745-1.0576.2495-.3271.5894-.585,1.0186-.7705.4297-.1865.9092-.2793,1.438-.2793.8042,0,1.4453.2012,1.9233.6055s.7236.9727.7363,1.7051v3.0977c0,.6172.0869,1.1104.2603,1.4785v.1074h-1.5742Zm-1.6948-1.1104c.3047,0,.5913-.0742.8604-.2217.2686-.1484.4707-.3477.606-.5977v-1.2949h-.8315c-.5713,0-1.001.0996-1.2886.2988s-.4316.4805-.4316.8438c0,.2969.0981.5332.2954.708.1963.1758.46.2637.79.2637Z"/>
  </g>
  <polyline class="cls-6" points="312.2084 76.2687 319.0156 72.1894 322.7974 74.2291 328.4301 72.1894"/>
  <g>
    <path class="cls-9" d="m403.0562,102.5742l.0293.7031c.4648-.5469,1.0918-.8203,1.8809-.8203.8867,0,1.4902.3398,1.8105,1.0195.2109-.3047.4854-.5508.8232-.7383s.7373-.2812,1.1982-.2812c1.3906,0,2.0977.7363,2.1211,2.209v4.248h-1.084v-4.1836c0-.4531-.1035-.792-.3105-1.0166s-.5547-.3369-1.043-.3369c-.4023,0-.7363.1201-1.002.3604s-.4199.5635-.4629.9697v4.207h-1.0898v-4.1543c0-.9219-.4512-1.3828-1.3535-1.3828-.7109,0-1.1973.3027-1.459.9082v4.6289h-1.084v-6.3398h1.0254Z"/>
    <path class="cls-9" d="m415.1851,109.0312c-.8594,0-1.5586-.2822-2.0977-.8467s-.8086-1.3193-.8086-2.2646v-.1992c0-.6289.1201-1.1904.3604-1.6846s.5762-.8809,1.0078-1.1602.8994-.4189,1.4033-.4189c.8242,0,1.4648.2715,1.9219.8145s.6855,1.3203.6855,2.332v.4512h-4.2949c.0156.625.1982,1.1299.5479,1.5146s.7939.5771,1.333.5771c.3828,0,.707-.0781.9727-.2344s.498-.3633.6973-.6211l.6621.5156c-.5312.8164-1.3281,1.2246-2.3906,1.2246Zm-.1465-8.1211l.8789-.9961h.9375v.0586l-1.4883,1.6055h-.6621l-1.4707-1.6055v-.0586h.9199l.8848.9961Zm.0117,2.4375c-.4375,0-.8047.1592-1.1016.4775s-.4805.7646-.5508,1.3389h3.1758v-.082c-.0312-.5508-.1797-.9775-.4453-1.2803s-.625-.4541-1.0781-.4541Z"/>
    <path class="cls-9" d="m422.603,107.2324c0-.293-.1104-.5205-.3311-.6826s-.6055-.3018-1.1543-.4189-.9844-.2578-1.3066-.4219-.5605-.3594-.7148-.5859-.2314-.4961-.2314-.8086c0-.5195.2197-.959.6592-1.3184s1.001-.5391,1.6846-.5391c.7188,0,1.3018.1855,1.749.5566s.6709.8457.6709,1.4238h-1.0898c0-.2969-.126-.5527-.3779-.7676s-.5693-.3223-.9521-.3223c-.3945,0-.7031.0859-.9258.2578s-.334.3965-.334.6738c0,.2617.1035.459.3105.5918s.5811.2598,1.1221.3809.9795.2656,1.3154.4336.585.3701.7471.6064.2432.5244.2432.8643c0,.5664-.2266,1.0205-.6797,1.3623s-1.041.5127-1.7637.5127c-.5078,0-.957-.0898-1.3477-.2695s-.6963-.4307-.917-.7529-.3311-.6709-.3311-1.0459h1.084c.0195.3633.165.6514.4365.8643s.6299.3193,1.0752.3193c.4102,0,.7393-.083.9873-.249s.3721-.3877.3721-.665Z"/>
    <path class="cls-9" d="m426.2886,99.9199h1.3125l-1.5703,1.7227-.873-.0029,1.1309-1.7197Zm-.0117,8.9941h-1.0898v-6.3398h1.0898v6.3398Z"/>
    <path class="cls-9" d="m430.6069,108.1465c.3867,0,.7246-.1172,1.0137-.3516s.4492-.5273.4805-.8789h1.0254c-.0195.3633-.1445.709-.375,1.0371s-.5381.5898-.9229.7852-.792.293-1.2217.293c-.8633,0-1.5498-.2881-2.0596-.8643s-.7646-1.3643-.7646-2.3643v-.1816c0-.6172.1133-1.166.3398-1.6465s.5518-.8535.9756-1.1191.9248-.3984,1.5029-.3984c.7109,0,1.3018.2129,1.7725.6387s.7217.9785.7529,1.6582h-1.0254c-.0312-.4102-.1865-.7471-.4658-1.0107s-.624-.3955-1.0342-.3955c-.5508,0-.9775.1982-1.2803.5947s-.4541.9697-.4541,1.7197v.2051c0,.7305.1504,1.293.4512,1.6875s.7305.5918,1.2891.5918Zm-.252-7.2363l.8789-.9961h.9375v.0586l-1.4883,1.6055h-.6621l-1.4707-1.6055v-.0586h.9199l.8848.9961Z"/>
    <path class="cls-9" d="m435.3706,102.5742l.0352.7969c.4844-.6094,1.1172-.9141,1.8984-.9141,1.3398,0,2.0156.7559,2.0273,2.2676v4.1895h-1.084v-4.1953c-.0039-.457-.1084-.7949-.3135-1.0137s-.5244-.3281-.958-.3281c-.3516,0-.6602.0938-.9258.2812s-.4727.4336-.6211.7383v4.5176h-1.084v-6.3398h1.0254Z"/>
    <path class="cls-9" d="m442.1558,99.9199h1.3125l-1.5703,1.7227-.873-.0029,1.1309-1.7197Zm-.0117,8.9941h-1.0898v-6.3398h1.0898v6.3398Z"/>
    <path class="cls-9" d="m405.728,119.2324c0-.293-.1104-.5205-.3311-.6826s-.6055-.3018-1.1543-.4189-.9844-.2578-1.3066-.4219-.5605-.3594-.7148-.5859-.2314-.4961-.2314-.8086c0-.5195.2197-.959.6592-1.3184s1.001-.5391,1.6846-.5391c.7188,0,1.3018.1855,1.749.5566s.6709.8457.6709,1.4238h-1.0898c0-.2969-.126-.5527-.3779-.7676s-.5693-.3223-.9521-.3223c-.3945,0-.7031.0859-.9258.2578s-.334.3965-.334.6738c0,.2617.1035.459.3105.5918s.5811.2598,1.1221.3809.9795.2656,1.3154.4336.585.3701.7471.6064.2432.5244.2432.8643c0,.5664-.2266,1.0205-.6797,1.3623s-1.041.5127-1.7637.5127c-.5078,0-.957-.0898-1.3477-.2695s-.6963-.4307-.917-.7529-.3311-.6709-.3311-1.0459h1.084c.0195.3633.165.6514.4365.8643s.6299.3193,1.0752.3193c.4102,0,.7393-.083.9873-.249s.3721-.3877.3721-.665Z"/>
    <path class="cls-9" d="m413.5796,117.8145c0,.9648-.2207,1.7422-.6621,2.332s-1.0391.8848-1.793.8848c-.7695,0-1.375-.2441-1.8164-.7324v3.0527h-1.084v-8.7773h.9902l.0527.7031c.4414-.5469,1.0547-.8203,1.8398-.8203.7617,0,1.3643.2871,1.8076.8613s.665,1.373.665,2.3965v.0996Zm-1.084-.123c0-.7148-.1523-1.2793-.457-1.6934s-.7227-.6211-1.2539-.6211c-.6562,0-1.1484.291-1.4766.873v3.0293c.3242.5781.8203.8672,1.4883.8672.5195,0,.9326-.2061,1.2393-.6182s.46-1.0244.46-1.8369Z"/>
    <path class="cls-9" d="m414.6694,117.6855c0-.6211.1221-1.1797.3662-1.6758s.584-.8789,1.0195-1.1484.9326-.4043,1.4912-.4043c.8633,0,1.5615.2988,2.0947.8965s.7998,1.3926.7998,2.3848v.0762c0,.6172-.1182,1.1709-.3545,1.6611s-.5742.8721-1.0137,1.1455-.9443.4102-1.5146.4102c-.8594,0-1.5557-.2988-2.0889-.8965s-.7998-1.3887-.7998-2.373v-.0762Zm1.0898.1289c0,.7031.1631,1.2676.4893,1.6934s.7627.6387,1.3096.6387c.5508,0,.9883-.2158,1.3125-.6475s.4863-1.0361.4863-1.8135c0-.6953-.165-1.2588-.4951-1.6904s-.7686-.6475-1.3154-.6475c-.5352,0-.9668.2129-1.2949.6387s-.4922,1.0352-.4922,1.8281Z"/>
    <path class="cls-9" d="m423.271,113.0391v1.5352h1.1836v.8379h-1.1836v3.9365c0,.2549.0527.4453.1582.5723s.2852.1904.5391.1904c.125,0,.2969-.0234.5156-.0703v.874c-.2852.0771-.5625.1162-.832.1162-.4844,0-.8496-.1465-1.0957-.4395s-.3691-.709-.3691-1.248v-3.9316h-1.1543v-.8379h1.1543v-1.5352h1.084Z"/>
    <path class="cls-9" d="m427.2847,112.9102l.8789-.9961h.9375v.0586l-1.4883,1.6055h-.6621l-1.4707-1.6055v-.0586h.9199l.8848.9961Zm1.5,2.6367c-.1641-.0273-.3418-.041-.5332-.041-.7109,0-1.1934.3027-1.4473.9082v4.5h-1.084v-6.3398h1.0547l.0176.7324c.3555-.5664.8594-.8496,1.5117-.8496.2109,0,.3711.0273.4805.082v1.0078Z"/>
    <path class="cls-9" d="m432.4116,121.0312c-.8594,0-1.5586-.2822-2.0977-.8467s-.8086-1.3193-.8086-2.2646v-.1992c0-.6289.1201-1.1904.3604-1.6846s.5762-.8809,1.0078-1.1602.8994-.4189,1.4033-.4189c.8242,0,1.4648.2715,1.9219.8145s.6855,1.3203.6855,2.332v.4512h-4.2949c.0156.625.1982,1.1299.5479,1.5146s.7939.5771,1.333.5771c.3828,0,.707-.0781.9727-.2344s.498-.3633.6973-.6211l.6621.5156c-.5312.8164-1.3281,1.2246-2.3906,1.2246Zm-.1348-5.6836c-.4375,0-.8047.1592-1.1016.4775s-.4805.7646-.5508,1.3389h3.1758v-.082c-.0312-.5508-.1797-.9775-.4453-1.2803s-.625-.4541-1.0781-.4541Z"/>
    <path class="cls-9" d="m441.5054,117.8145c0,.9688-.2227,1.7471-.668,2.335s-1.043.8818-1.793.8818c-.8008,0-1.4199-.2832-1.8574-.8496l-.0527.7324h-.9961v-9h1.084v3.3574c.4375-.543,1.041-.8145,1.8105-.8145s1.374.291,1.8135.873.6592,1.3789.6592,2.3906v.0938Zm-1.084-.123c0-.7383-.1426-1.3086-.4277-1.7109s-.6953-.6035-1.2305-.6035c-.7148,0-1.2285.332-1.541.9961v2.7422c.332.6641.8496.9961,1.5527.9961.5195,0,.9238-.2012,1.2129-.6035s.4336-1.0078.4336-1.8164Z"/>
    <path class="cls-9" d="m446.7847,120.9141c-.0625-.125-.1133-.3477-.1523-.668-.5039.5234-1.1055.7852-1.8047.7852-.625,0-1.1377-.1768-1.5381-.5303s-.6006-.8018-.6006-1.3447c0-.6602.251-1.1729.7529-1.5381s1.208-.5479,2.1182-.5479h1.0547v-.498c0-.3789-.1133-.6807-.3398-.9053s-.5605-.3369-1.002-.3369c-.3867,0-.7109.0977-.9727.293s-.3926.4316-.3926.709h-1.0898c0-.3164.1123-.6221.3369-.917s.5293-.5283.9141-.7002.8076-.2578,1.2686-.2578c.7305,0,1.3027.1826,1.7168.5479s.6289.8682.6445,1.5088v2.918c0,.582.0742,1.0449.2227,1.3887v.0938h-1.1367Zm-1.7988-.8262c.3398,0,.6621-.0879.9668-.2637s.5254-.4043.6621-.6855v-1.3008h-.8496c-1.3281,0-1.9922.3887-1.9922,1.166,0,.3398.1133.6055.3398.7969s.5176.2871.873.2871Z"/>
  </g>
  <g>
    <path class="cls-1" d="m13.0311,197.6033h381.4689"/>
    <path class="cls-1" d="m13.0311,156.7808h381.4689"/>
    <path class="cls-1" d="m13.0311,115.3204h381.4689"/>
  </g>
  <g>
    <g>
      <path class="cls-9" d="m18.0381,103.0781v.9199h-.1992c-.8438.0156-1.5156.2656-2.0156.75s-.7891,1.166-.8672,2.0449c.4492-.5156,1.0625-.7734,1.8398-.7734.7422,0,1.335.2617,1.7783.7852s.665,1.1992.665,2.0273c0,.8789-.2393,1.582-.7178,2.1094s-1.1201.791-1.9248.791c-.8164,0-1.4785-.3125-1.9863-.9395s-.7617-1.4355-.7617-2.4238v-.416c0-1.5703.335-2.7695,1.0049-3.5996s1.667-1.2559,2.9912-1.2754h.1934Zm-1.4238,3.8438c-.3711,0-.7129.1113-1.0254.334s-.5293.502-.6504.8379v.3984c0,.7031.1582,1.2695.4746,1.6992s.7109.6445,1.1836.6445c.4883,0,.8721-.1797,1.1514-.5391s.4189-.8301.4189-1.4121c0-.5859-.1416-1.0586-.4248-1.4199s-.6592-.543-1.1279-.543Z"/>
      <path class="cls-9" d="m29.4346,104.0039h-2.7422v7.6113h-1.1191v-7.6113h-2.7363v-.9199h6.5977v.9199Z"/>
      <path class="cls-9" d="m32.6279,108.9258l.1641,1.125.2402-1.0137,1.6875-5.9531h.9492l1.6465,5.9531.2344,1.0312.1816-1.1484,1.3242-5.8359h1.1309l-2.0684,8.5312h-1.0254l-1.7578-6.2168-.1348-.6504-.1348.6504-1.8223,6.2168h-1.0254l-2.0625-8.5312h1.125l1.3477,5.8418Z"/>
      <path class="cls-9" d="m42.3486,106.043c.4805-.5898,1.1055-.8848,1.875-.8848,1.3398,0,2.0156.7559,2.0273,2.2676v4.1895h-1.084v-4.1953c-.0039-.457-.1084-.7949-.3135-1.0137s-.5244-.3281-.958-.3281c-.3516,0-.6602.0938-.9258.2812s-.4727.4336-.6211.7383v4.5176h-1.084v-9h1.084v3.4277Z"/>
    </g>
    <path class="cls-9" d="m18.3604,149.8477h1.1836v.8848h-1.1836v1.9805h-1.0898v-1.9805h-3.8848v-.6387l3.8203-5.9121h1.1543v5.666Zm-3.7441,0h2.6543v-4.1836l-.1289.2344-2.5254,3.9492Z"/>
    <path class="cls-9" d="m19.1338,230.2861c0,1.2695-.2168,2.2129-.6504,2.8301s-1.1113.9258-2.0332.9258c-.9102,0-1.584-.3018-2.0215-.9053s-.6641-1.5049-.6797-2.7041v-1.4473c0-1.2539.2168-2.1855.6504-2.7949s1.1133-.9141,2.0391-.9141c.918,0,1.5938.2939,2.0273.8818s.6562,1.4951.668,2.7217v1.4062Zm-1.084-1.4824c0-.918-.1289-1.5869-.3867-2.0068s-.666-.6299-1.2246-.6299c-.5547,0-.959.209-1.2129.627s-.3848,1.0605-.3926,1.9277v1.7344c0,.9219.1338,1.6025.4014,2.042s.6729.6592,1.2158.6592c.5352,0,.9326-.207,1.1924-.6211s.3955-1.0664.4072-1.957v-1.7754Z"/>
    <path class="cls-9" d="m19.374,194.3242h-5.5898v-.7793l2.9531-3.2812c.4375-.4961.7393-.9004.9053-1.2109s.249-.6309.249-.9629c0-.4453-.1348-.8105-.4043-1.0957s-.6289-.4277-1.0781-.4277c-.5391,0-.958.1523-1.2568.459s-.4482.7344-.4482,1.2812h-1.084c0-.7852.2529-1.4199.7588-1.9043s1.1826-.7266,2.0303-.7266c.793,0,1.4199.207,1.8809.623s.6914.9707.6914,1.6621c0,.8398-.5352,1.8398-1.6055,3l-2.2852,2.4785h4.2832v.8848Z"/>
  </g>
  <g>
    <path class="cls-3" d="m59.7796,238.7448h-23.1137v-102.0563h23.1137v102.0563Z"/>
    <rect class="cls-2" x="36.6659" y="129.6721" width="23.1137" height="7.0164"/>
  </g>
  <g>
    <path class="cls-3" d="m89.653,238.7448h-23.1137v-100.1428h23.1137v100.1428Z"/>
    <rect class="cls-2" x="66.5393" y="122.6557" width="23.1137" height="15.9463"/>
  </g>
  <g>
    <path class="cls-3" d="m119.5265,238.7448h-23.1137v-94.4021h23.1137v94.4021Z"/>
    <rect class="cls-2" x="96.4127" y="118.8286" width="23.1137" height="25.5141"/>
  </g>
  <g>
    <path class="cls-3" d="m149.3999,238.7448h-23.1137v-81.6451h23.1137v81.6451Z"/>
    <rect class="cls-2" x="126.2862" y="119.4665" width="23.1137" height="37.6333"/>
  </g>
  <g>
    <path class="cls-3" d="m179.2733,238.7448h-23.1137v-64.4231h23.1137v64.4231Z"/>
    <rect class="cls-2" x="156.1596" y="136.0506" width="23.1137" height="38.2711"/>
  </g>
  <g>
    <path class="cls-3" d="m209.1467,238.7448h-23.1137v-52.9417h23.1137v52.9417Z"/>
    <rect class="cls-2" x="186.033" y="144.9805" width="23.1137" height="40.8225"/>
  </g>
  <g>
    <path class="cls-3" d="m239.0202,238.7448h-23.1137v-47.8389h23.1137v47.8389Z"/>
    <rect class="cls-2" x="215.9065" y="150.7212" width="23.1137" height="40.1847"/>
  </g>
  <g>
    <path class="cls-3" d="m268.8936,238.7448h-23.1137v-42.7361h23.1137v42.7361Z"/>
    <rect class="cls-2" x="245.7799" y="157.7376" width="23.1137" height="38.2711"/>
  </g>
  <g>
    <path class="cls-3" d="m298.767,238.7448h-23.1137v-56.131h23.1137v56.131Z"/>
    <rect class="cls-2" x="275.6533" y="152.6348" width="23.1137" height="29.979"/>
  </g>
  <g>
    <path class="cls-3" d="m328.6405,238.7448h-23.1137v-83.5586h23.1137v83.5586Z"/>
    <rect class="cls-2" x="305.5268" y="137.3263" width="23.1137" height="17.8599"/>
  </g>
  <g>
    <path class="cls-3" d="m358.5139,238.7448h-23.1137v-91.2128h23.1137v91.2128Z"/>
    <rect class="cls-2" x="335.4002" y="137.9642" width="23.1137" height="9.5678"/>
  </g>
  <g>
    <path class="cls-3" d="m388.3873,238.7448h-23.1137v-108.4349h23.1137v108.4349Z"/>
    <rect class="cls-2" x="365.2736" y="124.5693" width="23.1137" height="5.7407"/>
  </g>
  <path class="cls-6" d="m48.096,116.0615l29.8549,12.074,29.8549-3.5465,29.8549,14.9884,29.8549.6865,29.8549,4.3595,29.8549,1.3887,29.8549-2.1893,29.8549-1.0499,29.8549-10.9305,29.8549-5.1482,29.8549-2.0037"/>
  <g>
    <path class="cls-12" d="m42.1104,256.8574h4.043v.9199h-5.1738v-8.5312h1.1309v7.6113Z"/>
    <path class="cls-12" d="m49.8975,257.8945c-.8594,0-1.5586-.2822-2.0977-.8467s-.8086-1.3193-.8086-2.2646v-.1992c0-.6289.1201-1.1904.3604-1.6846s.5762-.8809,1.0078-1.1602.8994-.4189,1.4033-.4189c.8242,0,1.4648.2715,1.9219.8145s.6855,1.3203.6855,2.332v.4512h-4.2949c.0156.625.1982,1.1299.5479,1.5146s.7939.5771,1.333.5771c.3828,0,.707-.0781.9727-.2344s.498-.3633.6973-.6211l.6621.5156c-.5312.8164-1.3281,1.2246-2.3906,1.2246Zm-.1348-5.6836c-.4375,0-.8047.1592-1.1016.4775s-.4805.7646-.5508,1.3389h3.1758v-.082c-.0312-.5508-.1797-.9775-.4453-1.2803s-.625-.4541-1.0781-.4541Z"/>
    <path class="cls-12" d="m53.3604,254.5547c0-.9727.2305-1.7549.6914-2.3467s1.0645-.8877,1.8105-.8877c.7422,0,1.3301.2539,1.7637.7617v-3.3047h1.084v9h-.9961l-.0527-.6797c-.4336.5312-1.0371.7969-1.8105.7969-.7344,0-1.333-.3008-1.7959-.9023s-.6943-1.3867-.6943-2.3555v-.082Zm1.084.123c0,.7188.1484,1.2812.4453,1.6875s.707.6094,1.2305.6094c.6875,0,1.1895-.3086,1.5059-.9258v-2.9121c-.3242-.5977-.8223-.8965-1.4941-.8965-.5312,0-.9453.2051-1.2422.6152s-.4453,1.0176-.4453,1.8223Z"/>
    <path class="cls-12" d="m63.0225,257.8945c-.8594,0-1.5586-.2822-2.0977-.8467s-.8086-1.3193-.8086-2.2646v-.1992c0-.6289.1201-1.1904.3604-1.6846s.5762-.8809,1.0078-1.1602.8994-.4189,1.4033-.4189c.8242,0,1.4648.2715,1.9219.8145s.6855,1.3203.6855,2.332v.4512h-4.2949c.0156.625.1982,1.1299.5479,1.5146s.7939.5771,1.333.5771c.3828,0,.707-.0781.9727-.2344s.498-.3633.6973-.6211l.6621.5156c-.5312.8164-1.3281,1.2246-2.3906,1.2246Zm-.1348-5.6836c-.4375,0-.8047.1592-1.1016.4775s-.4805.7646-.5508,1.3389h3.1758v-.082c-.0312-.5508-.1797-.9775-.4453-1.2803s-.625-.4541-1.0781-.4541Z"/>
    <path class="cls-12" d="m67.7744,251.4375l.0352.7969c.4844-.6094,1.1172-.9141,1.8984-.9141,1.3398,0,2.0156.7559,2.0273,2.2676v4.1895h-1.084v-4.1953c-.0039-.457-.1084-.7949-.3135-1.0137s-.5244-.3281-.958-.3281c-.3516,0-.6602.0938-.9258.2812s-.4727.4336-.6211.7383v4.5176h-1.084v-6.3398h1.0254Z"/>
  </g>
  <g>
    <path class="cls-12" d="m231.7588,255.0684c-.1055.9023-.4385,1.5977-.999,2.0879s-1.3057.7363-2.2354.7363c-1.0078,0-1.8154-.3613-2.4229-1.084s-.9111-1.6895-.9111-2.9004v-.8203c0-.793.1416-1.4902.4248-2.0918s.6846-1.0645,1.2041-1.3867,1.1211-.4824,1.8047-.4824c.9062,0,1.6328.252,2.1797.7578s.8652,1.207.9551,2.1016h-1.1309c-.0977-.6816-.3096-1.1758-.6357-1.4814s-.7822-.458-1.3682-.458c-.7188,0-1.2822.2656-1.6904.7969-.4082.5322-.6123,1.2881-.6123,2.2695v.8271c0,.9268.1934,1.6631.5801,2.2109.3867.5469.9277.8213,1.623.8213.625,0,1.1045-.1426,1.4385-.4258s.5557-.7754.665-1.4785h1.1309Zm-3.293-7.3066l.8789-.9961h.9375v.0586l-1.4883,1.6055h-.6621l-1.4707-1.6055v-.0586h.9199l.8848.9961Z"/>
    <path class="cls-12" d="m235.7549,257.8926c-.8594,0-1.5586-.2832-2.0977-.8477s-.8086-1.3184-.8086-2.2637v-.1992c0-.6289.1201-1.1914.3604-1.6855s.5762-.8809,1.0078-1.1602.8994-.418,1.4033-.418c.8242,0,1.4648.2715,1.9219.8145s.6855,1.3203.6855,2.332v.4512h-4.2949c.0156.625.1982,1.1289.5479,1.5137s.7939.5781,1.333.5781c.3828,0,.707-.0781.9727-.2344s.498-.3633.6973-.6211l.6621.5156c-.5312.8164-1.3281,1.2246-2.3906,1.2246Zm-.1348-5.6836c-.4375,0-.8047.1582-1.1016.4766s-.4805.7656-.5508,1.3398h3.1758v-.082c-.0312-.5508-.1797-.9785-.4453-1.2812s-.625-.4531-1.0781-.4531Z"/>
    <path class="cls-12" d="m242.5459,252.4082c-.1641-.0273-.3418-.041-.5332-.041-.7109,0-1.1934.3027-1.4473.9082v4.5h-1.084v-6.3398h1.0547l.0176.7324c.3555-.5664.8594-.8496,1.5117-.8496.2109,0,.3711.0273.4805.082v1.0078Z"/>
    <path class="cls-12" d="m245.7393,256.3047l1.5703-4.8691h1.1074l-2.2734,6.3398h-.8262l-2.2969-6.3398h1.1074l1.6113,4.8691Z"/>
    <path class="cls-12" d="m252.0908,257.8926c-.8594,0-1.5586-.2832-2.0977-.8477s-.8086-1.3184-.8086-2.2637v-.1992c0-.6289.1201-1.1914.3604-1.6855s.5762-.8809,1.0078-1.1602.8994-.418,1.4033-.418c.8242,0,1.4648.2715,1.9219.8145s.6855,1.3203.6855,2.332v.4512h-4.2949c.0156.625.1982,1.1289.5479,1.5137s.7939.5781,1.333.5781c.3828,0,.707-.0781.9727-.2344s.498-.3633.6973-.6211l.6621.5156c-.5312.8164-1.3281,1.2246-2.3906,1.2246Zm-.1348-5.6836c-.4375,0-.8047.1582-1.1016.4766s-.4805.7656-.5508,1.3398h3.1758v-.082c-.0312-.5508-.1797-.9785-.4453-1.2812s-.625-.4531-1.0781-.4531Z"/>
    <path class="cls-12" d="m256.8428,251.4355l.0352.7969c.4844-.6094,1.1172-.9141,1.8984-.9141,1.3398,0,2.0156.7559,2.0273,2.2676v4.1895h-1.084v-4.1953c-.0039-.457-.1084-.7949-.3135-1.0137s-.5244-.3281-.958-.3281c-.3516,0-.6602.0938-.9258.2812s-.4727.4336-.6211.7383v4.5176h-1.084v-6.3398h1.0254Z"/>
    <path class="cls-12" d="m265.0693,257.8926c-.8594,0-1.5586-.2832-2.0977-.8477s-.8086-1.3184-.8086-2.2637v-.1992c0-.6289.1201-1.1914.3604-1.6855s.5762-.8809,1.0078-1.1602.8994-.418,1.4033-.418c.8242,0,1.4648.2715,1.9219.8145s.6855,1.3203.6855,2.332v.4512h-4.2949c.0156.625.1982,1.1289.5479,1.5137s.7939.5781,1.333.5781c.3828,0,.707-.0781.9727-.2344s.498-.3633.6973-.6211l.6621.5156c-.5312.8164-1.3281,1.2246-2.3906,1.2246Zm-.1348-5.6836c-.4375,0-.8047.1582-1.1016.4766s-.4805.7656-.5508,1.3398h3.1758v-.082c-.0312-.5508-.1797-.9785-.4453-1.2812s-.625-.4531-1.0781-.4531Z"/>
    <path class="cls-12" d="m271.3389,257.0078c.3867,0,.7246-.1172,1.0137-.3516s.4492-.5273.4805-.8789h1.0254c-.0195.3633-.1445.709-.375,1.0371s-.5381.5898-.9229.7852-.792.293-1.2217.293c-.8633,0-1.5498-.2891-2.0596-.8652s-.7646-1.3633-.7646-2.3633v-.1816c0-.6172.1133-1.166.3398-1.6465s.5518-.8535.9756-1.1191.9248-.3984,1.5029-.3984c.7109,0,1.3018.2129,1.7725.6387s.7217.9785.7529,1.6582h-1.0254c-.0312-.4102-.1865-.748-.4658-1.0117s-.624-.3945-1.0342-.3945c-.5508,0-.9775.1973-1.2803.5938s-.4541.9707-.4541,1.7207v.2051c0,.7305.1504,1.293.4512,1.6875s.7305.5918,1.2891.5918Z"/>
  </g>
  <g>
    <path class="cls-12" d="m380.1846,254.4375v3.3398h-1.125v-8.5312h3.1465c.9336,0,1.665.2383,2.1943.7148s.7939,1.1074.7939,1.8926c0,.8281-.2588,1.4658-.7764,1.9131s-1.2588.6709-2.2236.6709h-2.0098Zm0-.9199h2.0215c.6016,0,1.0625-.1426,1.3828-.4258s.4805-.6934.4805-1.2295c0-.5088-.1602-.916-.4805-1.2217-.3203-.3047-.7598-.4629-1.3184-.4746h-2.0859v3.3516Z"/>
    <path class="cls-12" d="m389.5244,252.4102c-.1641-.0273-.3418-.041-.5332-.041-.7109,0-1.1934.3027-1.4473.9082v4.5h-1.084v-6.3398h1.0547l.0176.7324c.3555-.5664.8594-.8496,1.5117-.8496.2109,0,.3711.0273.4805.082v1.0078Z"/>
    <path class="cls-12" d="m390.1162,254.5488c0-.6211.1221-1.1797.3662-1.6758s.584-.8789,1.0195-1.1484.9326-.4043,1.4912-.4043c.8633,0,1.5615.2988,2.0947.8965s.7998,1.3926.7998,2.3848v.0762c0,.6172-.1182,1.1709-.3545,1.6611s-.5742.8721-1.0137,1.1455-.9443.4102-1.5146.4102c-.8594,0-1.5557-.2988-2.0889-.8965s-.7998-1.3887-.7998-2.373v-.0762Zm1.0898.1289c0,.7031.1631,1.2676.4893,1.6934s.7627.6387,1.3096.6387c.5508,0,.9883-.2158,1.3125-.6475s.4863-1.0361.4863-1.8135c0-.6953-.165-1.2588-.4951-1.6904s-.7686-.6475-1.3154-.6475c-.5352,0-.9668.2129-1.2949.6387s-.4922,1.0352-.4922,1.8281Z"/>
    <path class="cls-12" d="m400.9385,256.0957c0-.293-.1104-.5205-.3311-.6826s-.6055-.3018-1.1543-.4189-.9844-.2578-1.3066-.4219-.5605-.3594-.7148-.5859-.2314-.4961-.2314-.8086c0-.5195.2197-.959.6592-1.3184s1.001-.5391,1.6846-.5391c.7188,0,1.3018.1855,1.749.5566s.6709.8457.6709,1.4238h-1.0898c0-.2969-.126-.5527-.3779-.7676s-.5693-.3223-.9521-.3223c-.3945,0-.7031.0859-.9258.2578s-.334.3965-.334.6738c0,.2617.1035.459.3105.5918s.5811.2598,1.1221.3809.9795.2656,1.3154.4336.585.3701.7471.6064.2432.5244.2432.8643c0,.5664-.2266,1.0205-.6797,1.3623s-1.041.5127-1.7637.5127c-.5078,0-.957-.0898-1.3477-.2695s-.6963-.4307-.917-.7529-.3311-.6709-.3311-1.0459h1.084c.0195.3633.165.6514.4365.8643s.6299.3193,1.0752.3193c.4102,0,.7393-.083.9873-.249s.3721-.3877.3721-.665Z"/>
    <path class="cls-12" d="m403.4404,249.7559c0-.1758.0537-.3242.1611-.4453s.2666-.1816.4775-.1816.3711.0605.4805.1816.1641.2695.1641.4453-.0547.3223-.1641.4395-.2695.1758-.4805.1758-.3701-.0586-.4775-.1758-.1611-.2637-.1611-.4395Zm1.1719,8.0215h-1.084v-6.3398h1.084v6.3398Z"/>
    <path class="cls-12" d="m407.3721,251.4375l.0352.7969c.4844-.6094,1.1172-.9141,1.8984-.9141,1.3398,0,2.0156.7559,2.0273,2.2676v4.1895h-1.084v-4.1953c-.0039-.457-.1084-.7949-.3135-1.0137s-.5244-.3281-.958-.3281c-.3516,0-.6602.0938-.9258.2812s-.4727.4336-.6211.7383v4.5176h-1.084v-6.3398h1.0254Z"/>
    <path class="cls-12" d="m415.5986,257.8945c-.8594,0-1.5586-.2822-2.0977-.8467s-.8086-1.3193-.8086-2.2646v-.1992c0-.6289.1201-1.1904.3604-1.6846s.5762-.8809,1.0078-1.1602.8994-.4189,1.4033-.4189c.8242,0,1.4648.2715,1.9219.8145s.6855,1.3203.6855,2.332v.4512h-4.2949c.0156.625.1982,1.1299.5479,1.5146s.7939.5771,1.333.5771c.3828,0,.707-.0781.9727-.2344s.498-.3633.6973-.6211l.6621.5156c-.5312.8164-1.3281,1.2246-2.3906,1.2246Zm-.1348-5.6836c-.4375,0-.8047.1592-1.1016.4775s-.4805.7646-.5508,1.3389h3.1758v-.082c-.0312-.5508-.1797-.9775-.4453-1.2803s-.625-.4541-1.0781-.4541Z"/>
    <path class="cls-12" d="m421.8682,257.0098c.3867,0,.7246-.1172,1.0137-.3516s.4492-.5273.4805-.8789h1.0254c-.0195.3633-.1445.709-.375,1.0371s-.5381.5898-.9229.7852-.792.293-1.2217.293c-.8633,0-1.5498-.2881-2.0596-.8643s-.7646-1.3643-.7646-2.3643v-.1816c0-.6172.1133-1.166.3398-1.6465s.5518-.8535.9756-1.1191.9248-.3984,1.5029-.3984c.7109,0,1.3018.2129,1.7725.6387s.7217.9785.7529,1.6582h-1.0254c-.0312-.4102-.1865-.7471-.4658-1.0107s-.624-.3955-1.0342-.3955c-.5508,0-.9775.1982-1.2803.5947s-.4541.9697-.4541,1.7197v.2051c0,.7305.1504,1.293.4512,1.6875s.7305.5918,1.2891.5918Z"/>
  </g>
  <line class="cls-5" x1="248.7884" y1="245.5395" x2="248.7884" y2="241.9418"/>
  <line class="cls-5" x1="416.6384" y1="245.5395" x2="416.6384" y2="241.9418"/>
  <line class="cls-5" x1="48.014" y1="245.3738" x2="48.014" y2="241.9418"/>
  <path class="cls-4" d="m13.0311,238.4259h415.4689"/>
</svg>