<?xml version="1.0" encoding="UTF-8"?>
<svg id="Layer_1" data-name="Layer 1" xmlns="http://www.w3.org/2000/svg" viewBox="0 0 440 295">
  <defs>
    <style>
      .cls-1 {
        stroke-dasharray: 0 0 12.9028 6.4514;
      }

      .cls-1, .cls-2, .cls-3, .cls-4, .cls-5, .cls-6, .cls-7, .cls-8, .cls-9, .cls-10, .cls-11, .cls-12, .cls-13, .cls-14, .cls-15, .cls-16, .cls-17, .cls-18, .cls-19, .cls-20, .cls-21, .cls-22, .cls-23, .cls-24 {
        stroke-miterlimit: 10;
      }

      .cls-1, .cls-2, .cls-3, .cls-4, .cls-5, .cls-6, .cls-7, .cls-8, .cls-9, .cls-10, .cls-11, .cls-12, .cls-13, .cls-14, .cls-15, .cls-16, .cls-17, .cls-18, .cls-20, .cls-21, .cls-22, .cls-23, .cls-24 {
        fill: none;
      }

      .cls-1, .cls-2, .cls-3, .cls-4, .cls-5, .cls-6, .cls-7, .cls-8, .cls-10, .cls-11, .cls-12, .cls-13, .cls-14, .cls-15, .cls-16, .cls-17, .cls-18, .cls-20, .cls-21, .cls-22, .cls-24 {
        stroke: #f1c768;
      }

      .cls-2 {
        stroke-dasharray: 0 0 11.7356 5.8678;
      }

      .cls-3 {
        stroke-dasharray: 0 0 12.6291 6.3146;
      }

      .cls-4 {
        stroke-dasharray: 0 0 12.0821 6.041;
      }

      .cls-5 {
        stroke-dasharray: 0 0 11.8482 5.9241;
      }

      .cls-6 {
        stroke-dasharray: 0 0 12.7036 6.3518;
      }

      .cls-7 {
        stroke-dasharray: 0 0 11.7416 5.8708;
      }

      .cls-8 {
        stroke-dasharray: 0 0 11.9795 5.9898;
      }

      .cls-9, .cls-19 {
        stroke: #666;
        stroke-width: .75px;
      }

      .cls-10 {
        stroke-dasharray: 0 0 11.6675 5.8337;
      }

      .cls-11 {
        stroke-dasharray: 0 0 11.9404 5.9702;
      }

      .cls-12 {
        stroke-dasharray: 0 0 12.8265 6.4133;
      }

      .cls-14 {
        stroke-dasharray: 0 0 11.9574 5.9787;
      }

      .cls-15 {
        stroke-dasharray: 0 0 11.3084 5.6542;
      }

      .cls-16 {
        stroke-dasharray: 0 0 11.9114 5.9557;
      }

      .cls-17 {
        stroke-dasharray: 0 0 12.284 6.142;
      }

      .cls-18 {
        stroke-dasharray: 0 0 12.5215 6.2607;
      }

      .cls-19 {
        fill: #fff;
      }

      .cls-20 {
        stroke-dasharray: 0 0 12.0325 6.0162;
      }

      .cls-25 {
        fill: #4d4d4d;
      }

      .cls-25, .cls-26 {
        stroke-width: 0px;
      }

      .cls-26 {
        fill: #f1b338;
      }

      .cls-21 {
        stroke-dasharray: 0 0 12.2586 6.1293;
      }

      .cls-22 {
        stroke-dasharray: 0 0 12.4907 6.2454;
      }

      .cls-23 {
        stroke: #999;
        stroke-width: .5px;
      }

      .cls-24 {
        stroke-dasharray: 0 0 11.9172 5.9586;
      }
      #sunrays > line, #sunrays > path{
        stroke-dasharray: 13 7;
        stroke-dashoffset: 0;
        animation: ray 12s infinite linear;
      }

      @keyframes ray{
      0%{
          stroke-dashoffset: 0;
        }
       100%{
          stroke-dashoffset: -100;
        }
      }
    </style>
  </defs>
  <g>
    <path class="cls-25" d="m62.8145,150.2617h.9023c.4297,0,.748-.1074.9551-.3223s.3105-.5.3105-.8555c0-.3438-.1025-.6113-.3076-.8027s-.4873-.2871-.8467-.2871c-.3242,0-.5957.0889-.8145.2666s-.3281.4092-.3281.6943h-1.6934c0-.4453.1201-.8447.3604-1.1982s.5762-.6299,1.0078-.8291.9072-.2988,1.4268-.2988c.9023,0,1.6094.2158,2.1211.6475s.7676,1.0264.7676,1.7842c0,.3906-.1191.75-.3574,1.0781s-.5508.5801-.9375.7559c.4805.1719.8389.4297,1.0752.7734s.3545.75.3545,1.2188c0,.7578-.2764,1.3652-.8291,1.8223s-1.2842.6855-2.1943.6855c-.8516,0-1.5479-.2246-2.0889-.6738s-.8115-1.043-.8115-1.7812h1.6934c0,.3203.1201.582.3604.7852s.5361.3047.8877.3047c.4023,0,.7178-.1064.9463-.3193s.3428-.4951.3428-.8467c0-.8516-.4688-1.2773-1.4062-1.2773h-.8965v-1.3242Z"/>
    <path class="cls-25" d="m72.5703,146.6582v1.3945h-.1641c-.7656.0117-1.3818.2109-1.8486.5977s-.7471.9238-.8408,1.6113c.4531-.4609,1.0254-.6914,1.7168-.6914.7422,0,1.332.2656,1.7695.7969s.6562,1.2305.6562,2.0977c0,.5547-.1201,1.0566-.3604,1.5059s-.5801.7988-1.0195,1.0488-.9365.375-1.4912.375c-.8984,0-1.624-.3125-2.1768-.9375s-.8291-1.459-.8291-2.502v-.6094c0-.9258.1748-1.7432.5244-2.4521s.8516-1.2578,1.5059-1.6465,1.4131-.585,2.2764-.5889h.2812Zm-1.6523,4.2773c-.2734,0-.5215.0713-.7441.2139-.2227.1416-.3867.3301-.4922.5635v.5146c0,.5654.1113,1.0078.334,1.3252s.5352.4766.9375.4766c.3633,0,.6572-.1436.8818-.4297.2246-.2871.3369-.6582.3369-1.1143,0-.4639-.1133-.8379-.3398-1.123-.2266-.2842-.5312-.4268-.9141-.4268Z"/>
    <path class="cls-25" d="m75.0195,148.2461c0-.4453.1582-.8262.4746-1.1426s.6895-.4746,1.1191-.4746c.4258,0,.7939.1572,1.1045.4717s.4658.6963.4658,1.1455-.1553.8271-.4658,1.1338-.6787.46-1.1045.46c-.4219,0-.793-.1533-1.1133-.46s-.4805-.6846-.4805-1.1338Zm1.5938.7266c.207,0,.3779-.0693.5127-.208s.2021-.3115.2021-.5186c0-.2031-.0674-.3789-.2021-.5273s-.3057-.2227-.5127-.2227-.3809.0742-.5215.2227-.2109.3242-.2109.5273.0713.375.2139.5156.3154.2109.5186.2109Z"/>
  </g>
  <g>
    <path class="cls-25" d="m199.6865,155.2773h-1.6934v-6.5273l-2.0215.627v-1.377l3.5332-1.2656h.1816v8.543Z"/>
    <path class="cls-25" d="m208.2588,147.6914l-3.2988,7.5859h-1.7871l3.3047-7.166h-4.2422v-1.3652h6.0234v.9453Z"/>
    <path class="cls-25" d="m209.501,148.2461c0-.4453.1582-.8262.4746-1.1426s.6895-.4746,1.1191-.4746c.4258,0,.7939.1572,1.1045.4717s.4658.6963.4658,1.1455-.1553.8271-.4658,1.1338-.6787.46-1.1045.46c-.4219,0-.793-.1533-1.1133-.46s-.4805-.6846-.4805-1.1338Zm1.5938.7266c.207,0,.3779-.0693.5127-.208s.2021-.3115.2021-.5186c0-.2031-.0674-.3789-.2021-.5273s-.3057-.2227-.5127-.2227-.3809.0742-.5215.2227-.2109.3242-.2109.5273.0713.375.2139.5156.3154.2109.5186.2109Z"/>
  </g>
  <line class="cls-23" x1="39.2506" y1="159.5242" x2="236.9519" y2="159.5242"/>
  <path class="cls-23" d="m213.2223,136.7283c2.1909,7.1987,3.3875,14.8304,3.43,22.7354"/>
  <path class="cls-23" d="m57.4719,159.526c0-17.4018,5.6492-33.4841,15.2136-46.5131"/>
  <g>
    <polygon class="cls-9" points="371.3262 127.1814 371.3262 244.0889 374.5229 244.0889 374.5229 127.9843 371.3262 127.1814"/>
    <path class="cls-19" d="m369.6322,238.6225h6.5848c1.3278,0,2.4057,1.078,2.4057,2.4057v3.9717h-11.3963v-3.9717c0-1.3278,1.078-2.4057,2.4057-2.4057Z"/>
    <path class="cls-19" d="m371.1656,133.8528h0c-2.0354-1.4789-2.4856-4.3283-1.0051-6.3626l.0622-.0855,7.371,5.3465-.0685.0943c-1.478,2.0343-4.3253,2.4853-6.3596,1.0073Z"/>
    <polygon class="cls-19" points="417.6374 162.713 335.347 102.9255 337.3275 100.271 419.5869 160.0297 417.6374 162.713"/>
  </g>
  <line class="cls-19" x1="-19.5132" y1="254" x2="475.1957" y2="254"/>
  <g>
    <polygon class="cls-9" points="88.8957 127.1814 88.8957 244.0889 92.0924 244.0889 92.0924 127.9843 88.8957 127.1814"/>
    <path class="cls-19" d="m87.2017,238.6225h6.5848c1.3278,0,2.4057,1.078,2.4057,2.4057v3.9717h-11.3963v-3.9717c0-1.3278,1.078-2.4057,2.4057-2.4057Z"/>
    <path class="cls-19" d="m88.7351,133.8528h0c-2.0354-1.4789-2.4856-4.3283-1.0051-6.3626l.0622-.0855,7.371,5.3465-.0685.0943c-1.478,2.0343-4.3253,2.4853-6.3596,1.0073Z"/>
    <polygon class="cls-19" points="135.2069 162.713 53.5129 103.3588 55.4931 100.7041 137.1564 160.0297 135.2069 162.713"/>
  </g>
  <g id="sunrays">
    <line class="cls-14" x1="522.7947" y1="41.2417" x2="148.299" y2="155.7336"/>
    <line class="cls-13" x1="145.4402" y1="156.6077" x2="139.7023" y2="158.3618"/>

    <line class="cls-20" x1="413.3594" y1="-10.2583" x2="-49.7855" y2="131.3408"/>
    <line class="cls-13" x1="294.14" y1="43.5" x2="288.4022" y2="45.2542"/>
    <line class="cls-5" x1="282.7369" y1="46.9861" x2="81.6205" y2="108.4698"/>
    <line class="cls-13" x1="78.7878" y1="109.3358" x2="73.05" y2="111.09"/>

    <line class="cls-1" x1="469.5605" y1="-10.1366" x2="361.5742" y2="22.8079"/>
    <line class="cls-13" x1="358.4889" y1="23.7491" x2="352.75" y2="25.5"/>

    <line class="cls-13" x1="344.73" y1="43.5" x2="338.9922" y2="45.2543"/>
    <line class="cls-24" x1="333.2939" y1="46.9963" x2="96.817" y2="119.2947"/>
    <line class="cls-13" x1="93.9678" y1="120.1658" x2="88.23" y2="121.92"/>

    <line class="cls-7" x1="520.6979" y1="-10.2993" x2="405.605" y2="24.8876"/>
    <line class="cls-13" x1="402.7978" y1="25.7458" x2="397.06" y2="27.5"/>

    <line class="cls-17" x1="447.1402" y1="31.0553" x2="115.3267" y2="132.6659"/>
    <line class="cls-13" x1="112.3903" y1="133.5652" x2="106.6532" y2="135.322"/>

    <line class="cls-13" x1="441.5049" y1="50.2512" x2="435.767" y2="52.0055"/>
    <line class="cls-21" x1="429.9055" y1="53.7975" x2="133.9009" y2="144.2963"/>
    <line class="cls-13" x1="130.9702" y1="145.1923" x2="125.2324" y2="146.9465"/>

    <line class="cls-10" x1="131.4403" y1="-10.3119" x2="-49.8727" y2="45.1169"/>
    <line class="cls-8" x1="187.9157" y1="-10.2661" x2="-49.7982" y2="62.4094"/>
    <line class="cls-11" x1="238.5165" y1="-10.2721" x2="-49.8074" y2="77.87"/>
    <line class="cls-2" x1="300.8548" y1="-10.3016" x2="-49.8565" y2="96.9241"/>
    <line class="cls-16" x1="357.412" y1="-10.276" x2="-49.8145" y2="114.2267"/>
    <line class="cls-4" x1="16.6624" y1="-10.2509" x2="-49.7737" y2="10.062"/>
    <line class="cls-18" x1="73.0684" y1="-10.1869" x2="-49.6686" y2="27.3372"/>
    <line class="cls-22" x1="522.5398" y1="59.3219" x2="364.2709" y2="107.715"/>
    <line class="cls-13" x1="361.2847" y1="108.6281" x2="355.547" y2="110.3824"/>

    <line class="cls-3" x1="522.4735" y1="74.8075" x2="380.5651" y2="118.1915"/>
    <line class="cls-13" x1="377.5457" y1="119.1146" x2="371.8079" y2="120.8688"/>

    <line class="cls-6" x1="522.4379" y1="93.8579" x2="397.9151" y2="131.9279"/>
    <line class="cls-13" x1="394.8779" y1="132.8564" x2="389.1401" y2="134.6106"/>

    <line class="cls-12" x1="522.3791" y1="111.1829" x2="415.0507" y2="143.9954"/>
    <line class="cls-13" x1="411.9842" y1="144.9329" x2="406.2463" y2="146.6871"/>

    <line class="cls-15" x1="523.105" y1="128.3433" x2="428.4798" y2="157.2709"/>
    <line class="cls-13" x1="425.7763" y1="158.0974" x2="420.0384" y2="159.8516"/>

  </g>
  <g>
    <path class="cls-25" d="m139.9917,184.0723l2.4375-7.0371h1.2305l-3.1641,8.5312h-.9961l-3.1582-8.5312h1.2246l2.4258,7.0371Z"/>
    <path class="cls-25" d="m152.9585,182.4668c0,.9648-.2207,1.7422-.6621,2.332s-1.0391.8848-1.793.8848c-.7695,0-1.375-.2441-1.8164-.7324v3.0527h-1.084v-8.7773h.9902l.0527.7031c.4414-.5469,1.0547-.8203,1.8398-.8203.7617,0,1.3643.2871,1.8076.8613s.665,1.373.665,2.3965v.0996Zm-1.084-.123c0-.7148-.1523-1.2793-.457-1.6934s-.7227-.6211-1.2539-.6211c-.6562,0-1.1484.291-1.4766.873v3.0293c.3242.5781.8203.8672,1.4883.8672.5195,0,.9326-.2061,1.2393-.6182s.46-1.0244.46-1.8369Z"/>
    <path class="cls-25" d="m154.0483,182.3379c0-.6211.1221-1.1797.3662-1.6758s.584-.8789,1.0195-1.1484.9326-.4043,1.4912-.4043c.8633,0,1.5615.2988,2.0947.8965s.7998,1.3926.7998,2.3848v.0762c0,.6172-.1182,1.1709-.3545,1.6611s-.5742.8721-1.0137,1.1455-.9443.4102-1.5146.4102c-.8594,0-1.5557-.2988-2.0889-.8965s-.7998-1.3887-.7998-2.373v-.0762Zm1.0898.1289c0,.7031.1631,1.2676.4893,1.6934s.7627.6387,1.3096.6387c.5508,0,.9883-.2158,1.3125-.6475s.4863-1.0361.4863-1.8135c0-.6953-.165-1.2588-.4951-1.6904s-.7686-.6475-1.3154-.6475c-.5352,0-.9668.2129-1.2949.6387s-.4922,1.0352-.4922,1.8281Z"/>
    <path class="cls-25" d="m162.3569,185.5664h-1.084v-9h1.084v9Z"/>
    <path class="cls-25" d="m166.7222,185.6836c-.8594,0-1.5586-.2822-2.0977-.8467s-.8086-1.3193-.8086-2.2646v-.1992c0-.6289.1201-1.1904.3604-1.6846s.5762-.8809,1.0078-1.1602.8994-.4189,1.4033-.4189c.8242,0,1.4648.2715,1.9219.8145s.6855,1.3203.6855,2.332v.4512h-4.2949c.0156.625.1982,1.1299.5479,1.5146s.7939.5771,1.333.5771c.3828,0,.707-.0781.9727-.2344s.498-.3633.6973-.6211l.6621.5156c-.5312.8164-1.3281,1.2246-2.3906,1.2246Zm-.1348-5.6836c-.4375,0-.8047.1592-1.1016.4775s-.4805.7646-.5508,1.3389h3.1758v-.082c-.0312-.5508-.1797-.9775-.4453-1.2803s-.625-.4541-1.0781-.4541Z"/>
    <path class="cls-25" d="m170.1851,182.3438c0-.9727.2305-1.7549.6914-2.3467s1.0645-.8877,1.8105-.8877c.7422,0,1.3301.2539,1.7637.7617v-3.3047h1.084v9h-.9961l-.0527-.6797c-.4336.5312-1.0371.7969-1.8105.7969-.7344,0-1.333-.3008-1.7959-.9023s-.6943-1.3867-.6943-2.3555v-.082Zm1.084.123c0,.7188.1484,1.2812.4453,1.6875s.707.6094,1.2305.6094c.6875,0,1.1895-.3086,1.5059-.9258v-2.9121c-.3242-.5977-.8223-.8965-1.4941-.8965-.5312,0-.9453.2051-1.2422.6152s-.4453,1.0176-.4453,1.8223Z"/>
    <path class="cls-25" d="m178.2417,179.2266l.0352.7969c.4844-.6094,1.1172-.9141,1.8984-.9141,1.3398,0,2.0156.7559,2.0273,2.2676v4.1895h-1.084v-4.1953c-.0039-.457-.1084-.7949-.3135-1.0137s-.5244-.3281-.958-.3281c-.3516,0-.6602.0938-.9258.2812s-.4727.4336-.6211.7383v4.5176h-1.084v-6.3398h1.0254Z"/>
    <path class="cls-25" d="m186.4683,185.6836c-.8594,0-1.5586-.2822-2.0977-.8467s-.8086-1.3193-.8086-2.2646v-.1992c0-.6289.1201-1.1904.3604-1.6846s.5762-.8809,1.0078-1.1602.8994-.4189,1.4033-.4189c.8242,0,1.4648.2715,1.9219.8145s.6855,1.3203.6855,2.332v.4512h-4.2949c.0156.625.1982,1.1299.5479,1.5146s.7939.5771,1.333.5771c.3828,0,.707-.0781.9727-.2344s.498-.3633.6973-.6211l.6621.5156c-.5312.8164-1.3281,1.2246-2.3906,1.2246Zm-.1348-5.6836c-.4375,0-.8047.1592-1.1016.4775s-.4805.7646-.5508,1.3389h3.1758v-.082c-.0312-.5508-.1797-.9775-.4453-1.2803s-.625-.4541-1.0781-.4541Z"/>
    <path class="cls-25" d="m198.521,182.4668c0,.9648-.2207,1.7422-.6621,2.332s-1.0391.8848-1.793.8848c-.7695,0-1.375-.2441-1.8164-.7324v3.0527h-1.084v-8.7773h.9902l.0527.7031c.4414-.5469,1.0547-.8203,1.8398-.8203.7617,0,1.3643.2871,1.8076.8613s.665,1.373.665,2.3965v.0996Zm-1.084-.123c0-.7148-.1523-1.2793-.457-1.6934s-.7227-.6211-1.2539-.6211c-.6562,0-1.1484.291-1.4766.873v3.0293c.3242.5781.8203.8672,1.4883.8672.5195,0,.9326-.2061,1.2393-.6182s.46-1.0244.46-1.8369Z"/>
    <path class="cls-25" d="m201.4624,177.5625l.8789-.9961h.9375v.0586l-1.4883,1.6055h-.6621l-1.4707-1.6055v-.0586h.9199l.8848.9961Zm1.5,2.6367c-.1641-.0273-.3418-.041-.5332-.041-.7109,0-1.1934.3027-1.4473.9082v4.5h-1.084v-6.3398h1.0547l.0176.7324c.3555-.5664.8594-.8496,1.5117-.8496.2109,0,.3711.0273.4805.082v1.0078Z"/>
    <path class="cls-25" d="m203.9644,177.5449c0-.1758.0537-.3242.1611-.4453s.2666-.1816.4775-.1816.3711.0605.4805.1816.1641.2695.1641.4453-.0547.3223-.1641.4395-.2695.1758-.4805.1758-.3701-.0586-.4775-.1758-.1611-.2637-.1611-.4395Zm1.1719,8.0215h-1.084v-6.3398h1.084v6.3398Z"/>
    <path class="cls-25" d="m210.8608,184.6816h3.709v.8848h-5.0332v-.7969l3.498-4.6465h-3.4453v-.8965h4.8047v.7676l-3.5332,4.6875Z"/>
    <path class="cls-25" d="m215.7944,177.5449c0-.1758.0537-.3242.1611-.4453s.2666-.1816.4775-.1816.3711.0605.4805.1816.1641.2695.1641.4453-.0547.3223-.1641.4395-.2695.1758-.4805.1758-.3701-.0586-.4775-.1758-.1611-.2637-.1611-.4395Zm1.1719,8.0215h-1.084v-6.3398h1.084v6.3398Z"/>
    <path class="cls-25" d="m219.7202,179.2266l.0293.7031c.4648-.5469,1.0918-.8203,1.8809-.8203.8867,0,1.4902.3398,1.8105,1.0195.2109-.3047.4854-.5508.8232-.7383s.7373-.2812,1.1982-.2812c1.3906,0,2.0977.7363,2.1211,2.209v4.248h-1.084v-4.1836c0-.4531-.1035-.792-.3105-1.0166s-.5547-.3369-1.043-.3369c-.4023,0-.7363.1201-1.002.3604s-.4199.5635-.4629.9697v4.207h-1.0898v-4.1543c0-.9219-.4512-1.3828-1.3535-1.3828-.7109,0-1.1973.3027-1.459.9082v4.6289h-1.084v-6.3398h1.0254Z"/>
    <path class="cls-25" d="m230.2437,179.2266l.0352.7969c.4844-.6094,1.1172-.9141,1.8984-.9141,1.3398,0,2.0156.7559,2.0273,2.2676v4.1895h-1.084v-4.1953c-.0039-.457-.1084-.7949-.3135-1.0137s-.5244-.3281-.958-.3281c-.3516,0-.6602.0938-.9258.2812s-.4727.4336-.6211.7383v4.5176h-1.084v-6.3398h1.0254Z"/>
    <path class="cls-25" d="m237.0288,176.5723h1.3125l-1.5703,1.7227-.873-.0029,1.1309-1.7197Zm-.0117,8.9941h-1.0898v-6.3398h1.0898v6.3398Z"/>
    <path class="cls-25" d="m239.8237,179.2266l.0293.7031c.4648-.5469,1.0918-.8203,1.8809-.8203.8867,0,1.4902.3398,1.8105,1.0195.2109-.3047.4854-.5508.8232-.7383s.7373-.2812,1.1982-.2812c1.3906,0,2.0977.7363,2.1211,2.209v4.248h-1.084v-4.1836c0-.4531-.1035-.792-.3105-1.0166s-.5547-.3369-1.043-.3369c-.4023,0-.7363.1201-1.002.3604s-.4199.5635-.4629.9697v4.207h-1.0898v-4.1543c0-.9219-.4512-1.3828-1.3535-1.3828-.7109,0-1.1973.3027-1.459.9082v4.6289h-1.084v-6.3398h1.0254Z"/>
    <path class="cls-25" d="m255.9839,183.8848c0-.293-.1104-.5205-.3311-.6826s-.6055-.3018-1.1543-.4189-.9844-.2578-1.3066-.4219-.5605-.3594-.7148-.5859-.2314-.4961-.2314-.8086c0-.5195.2197-.959.6592-1.3184s1.001-.5391,1.6846-.5391c.7188,0,1.3018.1855,1.749.5566s.6709.8457.6709,1.4238h-1.0898c0-.2969-.126-.5527-.3779-.7676s-.5693-.3223-.9521-.3223c-.3945,0-.7031.0859-.9258.2578s-.334.3965-.334.6738c0,.2617.1035.459.3105.5918s.5811.2598,1.1221.3809.9795.2656,1.3154.4336.585.3701.7471.6064.2432.5244.2432.8643c0,.5664-.2266,1.0205-.6797,1.3623s-1.041.5127-1.7637.5127c-.5078,0-.957-.0898-1.3477-.2695s-.6963-.4307-.917-.7529-.3311-.6709-.3311-1.0459h1.084c.0195.3633.165.6514.4365.8643s.6299.3193,1.0752.3193c.4102,0,.7393-.083.9873-.249s.3721-.3877.3721-.665Z"/>
    <path class="cls-25" d="m259.6577,185.5664h-1.084v-9h1.084v9Z"/>
    <path class="cls-25" d="m265.3062,184.9395c-.4219.4961-1.041.7441-1.8574.7441-.6758,0-1.1904-.1963-1.5439-.5889s-.5322-.9736-.5361-1.7432v-4.125h1.084v4.0957c0,.9609.3906,1.4414,1.1719,1.4414.8281,0,1.3789-.3086,1.6523-.9258v-4.6113h1.084v6.3398h-1.0312l-.0234-.627Z"/>
    <path class="cls-25" d="m269.0327,179.2266l.0352.7969c.4844-.6094,1.1172-.9141,1.8984-.9141,1.3398,0,2.0156.7559,2.0273,2.2676v4.1895h-1.084v-4.1953c-.0039-.457-.1084-.7949-.3135-1.0137s-.5244-.3281-.958-.3281c-.3516,0-.6602.0938-.9258.2812s-.4727.4336-.6211.7383v4.5176h-1.084v-6.3398h1.0254Z"/>
    <path class="cls-25" d="m274.3413,182.3379c0-.6211.1221-1.1797.3662-1.6758s.584-.8789,1.0195-1.1484.9326-.4043,1.4912-.4043c.8633,0,1.5615.2988,2.0947.8965s.7998,1.3926.7998,2.3848v.0762c0,.6172-.1182,1.1709-.3545,1.6611s-.5742.8721-1.0137,1.1455-.9443.4102-1.5146.4102c-.8594,0-1.5557-.2988-2.0889-.8965s-.7998-1.3887-.7998-2.373v-.0762Zm1.0898.1289c0,.7031.1631,1.2676.4893,1.6934s.7627.6387,1.3096.6387c.5508,0,.9883-.2158,1.3125-.6475s.4863-1.0361.4863-1.8135c0-.6953-.165-1.2588-.4951-1.6904s-.7686-.6475-1.3154-.6475c-.5352,0-.9668.2129-1.2949.6387s-.4922,1.0352-.4922,1.8281Z"/>
    <path class="cls-25" d="m283.4761,184.0957l1.5703-4.8691h1.1074l-2.2734,6.3398h-.8262l-2.2969-6.3398h1.1074l1.6113,4.8691Z"/>
    <path class="cls-25" d="m290.2612,180.1992c-.1641-.0273-.3418-.041-.5332-.041-.7109,0-1.1934.3027-1.4473.9082v4.5h-1.084v-6.3398h1.0547l.0176.7324c.3555-.5664.8594-.8496,1.5117-.8496.2109,0,.3711.0273.4805.082v1.0078Z"/>
    <path class="cls-25" d="m294.937,185.5664c-.0625-.125-.1133-.3477-.1523-.668-.5039.5234-1.1055.7852-1.8047.7852-.625,0-1.1377-.1768-1.5381-.5303s-.6006-.8018-.6006-1.3447c0-.6602.251-1.1729.7529-1.5381s1.208-.5479,2.1182-.5479h1.0547v-.498c0-.3789-.1133-.6807-.3398-.9053s-.5605-.3369-1.002-.3369c-.3867,0-.7109.0977-.9727.293s-.3926.4316-.3926.709h-1.0898c0-.3164.1123-.6221.3369-.917s.5293-.5283.9141-.7002.8076-.2578,1.2686-.2578c.7305,0,1.3027.1826,1.7168.5479s.6289.8682.6445,1.5088v2.918c0,.582.0742,1.0449.2227,1.3887v.0938h-1.1367Zm-1.7988-.8262c.3398,0,.6621-.0879.9668-.2637s.5254-.4043.6621-.6855v-1.3008h-.8496c-1.3281,0-1.9922.3887-1.9922,1.166,0,.3398.1133.6055.3398.7969s.5176.2871.873.2871Z"/>
    <path class="cls-25" d="m299.021,177.6914v1.5352h1.1836v.8379h-1.1836v3.9365c0,.2539.0527.4453.1582.5723s.2852.1904.5391.1904c.125,0,.2969-.0234.5156-.0703v.874c-.2852.0771-.5625.1162-.832.1162-.4844,0-.8496-.1465-1.0957-.4395s-.3691-.709-.3691-1.248v-3.9316h-1.1543v-.8379h1.1543v-1.5352h1.084Z"/>
    <path class="cls-25" d="m305.3843,184.9395c-.4219.4961-1.041.7441-1.8574.7441-.6758,0-1.1904-.1963-1.5439-.5889s-.5322-.9736-.5361-1.7432v-4.125h1.084v4.0957c0,.9609.3906,1.4414,1.1719,1.4414.8281,0,1.3789-.3086,1.6523-.9258v-4.6113h1.084v6.3398h-1.0312l-.0234-.627Z"/>
    <path class="cls-25" d="m308.0503,187.2656l-.6152-.4219c.3672-.5117.5586-1.0391.5742-1.582v-.9785h1.0605v.8496c0,.3945-.0967.7891-.29,1.1836s-.4365.7109-.7295.9492Z"/>
    <path class="cls-25" d="m315.1812,182.6309l-.6797.709v2.2266h-1.084v-9h1.084v5.4434l.5801-.6973,1.9746-2.0859h1.3184l-2.4668,2.6484,2.7539,3.6914h-1.2715l-2.209-2.9355Z"/>
    <path class="cls-25" d="m319.23,182.3438c0-.9727.2305-1.7549.6914-2.3467s1.0645-.8877,1.8105-.8877c.7422,0,1.3301.2539,1.7637.7617v-3.3047h1.084v9h-.9961l-.0527-.6797c-.4336.5312-1.0371.7969-1.8105.7969-.7344,0-1.333-.3008-1.7959-.9023s-.6943-1.3867-.6943-2.3555v-.082Zm1.084.123c0,.7188.1484,1.2812.4453,1.6875s.707.6094,1.2305.6094c.6875,0,1.1895-.3086,1.5059-.9258v-2.9121c-.3242-.5977-.8223-.8965-1.4941-.8965-.5312,0-.9453.2051-1.2422.6152s-.4453,1.0176-.4453,1.8223Z"/>
    <path class="cls-25" d="m328.3354,183.9785l1.4766-4.752h1.1602l-2.5488,7.3184c-.3945,1.0547-1.0215,1.582-1.8809,1.582l-.2051-.0176-.4043-.0762v-.8789l.293.0234c.3672,0,.6533-.0742.8584-.2227s.374-.4199.5068-.8145l.2402-.6445-2.2617-6.2695h1.1836l1.582,4.752Z"/>
    <path class="cls-25" d="m336.0288,179.2266v7.0723c0,1.2188-.5527,1.8281-1.6582,1.8281-.2383,0-.459-.0352-.6621-.1045v-.8623c.125.0312.2891.0469.4922.0469.2422,0,.4268-.0654.5537-.1963s.1904-.3584.1904-.6836v-7.1006h1.084Zm-1.1953-1.6816c0-.1719.0537-.3193.1611-.4424s.2646-.1846.4717-.1846c.2109,0,.3711.0605.4805.1816s.1641.2695.1641.4453-.0547.3223-.1641.4395-.2695.1758-.4805.1758-.3691-.0586-.4746-.1758-.1582-.2637-.1582-.4395Z"/>
    <path class="cls-25" d="m340.4058,185.6836c-.8594,0-1.5586-.2822-2.0977-.8467s-.8086-1.3193-.8086-2.2646v-.1992c0-.6289.1201-1.1904.3604-1.6846s.5762-.8809,1.0078-1.1602.8994-.4189,1.4033-.4189c.8242,0,1.4648.2715,1.9219.8145s.6855,1.3203.6855,2.332v.4512h-4.2949c.0156.625.1982,1.1299.5479,1.5146s.7939.5771,1.333.5771c.3828,0,.707-.0781.9727-.2344s.498-.3633.6973-.6211l.6621.5156c-.5312.8164-1.3281,1.2246-2.3906,1.2246Zm-.1348-5.6836c-.4375,0-.8047.1592-1.1016.4775s-.4805.7646-.5508,1.3389h3.1758v-.082c-.0312-.5508-.1797-.9775-.4453-1.2803s-.625-.4541-1.0781-.4541Z"/>
    <path class="cls-25" d="m138.0229,192.2266l.0352.7969c.4844-.6094,1.1172-.9141,1.8984-.9141,1.3398,0,2.0156.7559,2.0273,2.2676v4.1895h-1.084v-4.1953c-.0039-.457-.1084-.7949-.3135-1.0137s-.5244-.3281-.958-.3281c-.3516,0-.6602.0938-.9258.2812s-.4727.4336-.6211.7383v4.5176h-1.084v-6.3398h1.0254Z"/>
    <path class="cls-25" d="m146.2495,198.6836c-.8594,0-1.5586-.2822-2.0977-.8467s-.8086-1.3193-.8086-2.2646v-.1992c0-.6289.1201-1.1904.3604-1.6846s.5762-.8809,1.0078-1.1602.8994-.4189,1.4033-.4189c.8242,0,1.4648.2715,1.9219.8145s.6855,1.3203.6855,2.332v.4512h-4.2949c.0156.625.1982,1.1299.5479,1.5146s.7939.5771,1.333.5771c.3828,0,.707-.0781.9727-.2344s.498-.3633.6973-.6211l.6621.5156c-.5312.8164-1.3281,1.2246-2.3906,1.2246Zm-.1348-5.6836c-.4375,0-.8047.1592-1.1016.4775s-.4805.7646-.5508,1.3389h3.1758v-.082c-.0312-.5508-.1797-.9775-.4453-1.2803s-.625-.4541-1.0781-.4541Z"/>
    <path class="cls-25" d="m151.0952,192.2266v7.0723c0,1.2188-.5527,1.8281-1.6582,1.8281-.2383,0-.459-.0352-.6621-.1045v-.8623c.125.0312.2891.0469.4922.0469.2422,0,.4268-.0654.5537-.1963s.1904-.3584.1904-.6836v-7.1006h1.084Zm-1.1953-1.6816c0-.1719.0537-.3193.1611-.4424s.2646-.1846.4717-.1846c.2109,0,.3711.0605.4805.1816s.1641.2695.1641.4453-.0547.3223-.1641.4395-.2695.1758-.4805.1758-.3691-.0586-.4746-.1758-.1582-.2637-.1582-.4395Z"/>
    <path class="cls-25" d="m154.6108,195.6309l-.6797.709v2.2266h-1.084v-9h1.084v5.4434l.5801-.6973,1.9746-2.0859h1.3184l-2.4668,2.6484,2.7539,3.6914h-1.2715l-2.209-2.9355Z"/>
    <path class="cls-25" d="m161.9878,193.1992c-.1641-.0273-.3418-.041-.5332-.041-.7109,0-1.1934.3027-1.4473.9082v4.5h-1.084v-6.3398h1.0547l.0176.7324c.3555-.5664.8594-.8496,1.5117-.8496.2109,0,.3711.0273.4805.082v1.0078Z"/>
    <path class="cls-25" d="m166.6636,198.5664c-.0625-.125-.1133-.3477-.1523-.668-.5039.5234-1.1055.7852-1.8047.7852-.625,0-1.1377-.1768-1.5381-.5303s-.6006-.8018-.6006-1.3447c0-.6602.251-1.1729.7529-1.5381s1.208-.5479,2.1182-.5479h1.0547v-.498c0-.3789-.1133-.6807-.3398-.9053s-.5605-.3369-1.002-.3369c-.3867,0-.7109.0977-.9727.293s-.3926.4316-.3926.709h-1.0898c0-.3164.1123-.6221.3369-.917s.5293-.5283.9141-.7002.8076-.2578,1.2686-.2578c.7305,0,1.3027.1826,1.7168.5479s.6289.8682.6445,1.5088v2.918c0,.582.0742,1.0449.2227,1.3887v.0938h-1.1367Zm-1.7988-.8262c.3398,0,.6621-.0879.9668-.2637s.5254-.4043.6621-.6855v-1.3008h-.8496c-1.3281,0-1.9922.3887-1.9922,1.166,0,.3398.1133.6055.3398.7969s.5176.2871.873.2871Z"/>
    <path class="cls-25" d="m170.7476,190.6914v1.5352h1.1836v.8379h-1.1836v3.9365c0,.2539.0527.4453.1582.5723s.2852.1904.5391.1904c.125,0,.2969-.0234.5156-.0703v.874c-.2852.0771-.5625.1162-.832.1162-.4844,0-.8496-.1465-1.0957-.4395s-.3691-.709-.3691-1.248v-3.9316h-1.1543v-.8379h1.1543v-1.5352h1.084Z"/>
    <path class="cls-25" d="m176.8882,196.8848c0-.293-.1104-.5205-.3311-.6826s-.6055-.3018-1.1543-.4189-.9844-.2578-1.3066-.4219-.5605-.3594-.7148-.5859-.2314-.4961-.2314-.8086c0-.5195.2197-.959.6592-1.3184s1.001-.5391,1.6846-.5391c.7188,0,1.3018.1855,1.749.5566s.6709.8457.6709,1.4238h-1.0898c0-.2969-.126-.5527-.3779-.7676s-.5693-.3223-.9521-.3223c-.3945,0-.7031.0859-.9258.2578s-.334.3965-.334.6738c0,.2617.1035.459.3105.5918s.5811.2598,1.1221.3809.9795.2656,1.3154.4336.585.3701.7471.6064.2432.5244.2432.8643c0,.5664-.2266,1.0205-.6797,1.3623s-1.041.5127-1.7637.5127c-.5078,0-.957-.0898-1.3477-.2695s-.6963-.4307-.917-.7529-.3311-.6709-.3311-1.0459h1.084c.0195.3633.165.6514.4365.8643s.6299.3193,1.0752.3193c.4102,0,.7393-.083.9873-.249s.3721-.3877.3721-.665Zm-1.2246-6.3223l.8789-.9961h.9375v.0586l-1.4883,1.6055h-.6621l-1.4707-1.6055v-.0586h.9199l.8848.9961Z"/>
    <path class="cls-25" d="m180.5737,189.5723h1.3125l-1.5703,1.7227-.873-.0029,1.1309-1.7197Zm-.0117,8.9941h-1.0898v-6.3398h1.0898v6.3398Z"/>
    <path class="cls-25" d="m185.0562,195.3438c0-.9727.2305-1.7549.6914-2.3467s1.0645-.8877,1.8105-.8877c.7422,0,1.3301.2539,1.7637.7617v-3.3047h1.084v9h-.9961l-.0527-.6797c-.4336.5312-1.0371.7969-1.8105.7969-.7344,0-1.333-.3008-1.7959-.9023s-.6943-1.3867-.6943-2.3555v-.082Zm1.084.123c0,.7188.1484,1.2812.4453,1.6875s.707.6094,1.2305.6094c.6875,0,1.1895-.3086,1.5059-.9258v-2.9121c-.3242-.5977-.8223-.8965-1.4941-.8965-.5312,0-.9453.2051-1.2422.6152s-.4453,1.0176-.4453,1.8223Z"/>
    <path class="cls-25" d="m194.7183,198.6836c-.8594,0-1.5586-.2822-2.0977-.8467s-.8086-1.3193-.8086-2.2646v-.1992c0-.6289.1201-1.1904.3604-1.6846s.5762-.8809,1.0078-1.1602.8994-.4189,1.4033-.4189c.8242,0,1.4648.2715,1.9219.8145s.6855,1.3203.6855,2.332v.4512h-4.2949c.0156.625.1982,1.1299.5479,1.5146s.7939.5771,1.333.5771c.3828,0,.707-.0781.9727-.2344s.498-.3633.6973-.6211l.6621.5156c-.5312.8164-1.3281,1.2246-2.3906,1.2246Zm-.1348-5.6836c-.4375,0-.8047.1592-1.1016.4775s-.4805.7646-.5508,1.3389h3.1758v-.082c-.0312-.5508-.1797-.9775-.4453-1.2803s-.625-.4541-1.0781-.4541Z"/>
    <path class="cls-25" d="m199.4702,192.2266l.0352.7969c.4844-.6094,1.1172-.9141,1.8984-.9141,1.3398,0,2.0156.7559,2.0273,2.2676v4.1895h-1.084v-4.1953c-.0039-.457-.1084-.7949-.3135-1.0137s-.5244-.3281-.958-.3281c-.3516,0-.6602.0938-.9258.2812s-.4727.4336-.6211.7383v4.5176h-1.084v-6.3398h1.0254Z"/>
    <path class="cls-25" d="m205.0308,200.2656l-.6152-.4219c.3672-.5117.5586-1.0391.5742-1.582v-.9785h1.0605v.8496c0,.3945-.0967.7891-.29,1.1836s-.4365.7109-.7295.9492Z"/>
    <path class="cls-25" d="m210.1284,195.3438c0-.9727.2305-1.7549.6914-2.3467s1.0645-.8877,1.8105-.8877c.7422,0,1.3301.2539,1.7637.7617v-3.3047h1.084v9h-.9961l-.0527-.6797c-.4336.5312-1.0371.7969-1.8105.7969-.7344,0-1.333-.3008-1.7959-.9023s-.6943-1.3867-.6943-2.3555v-.082Zm1.084.123c0,.7188.1484,1.2812.4453,1.6875s.707.6094,1.2305.6094c.6875,0,1.1895-.3086,1.5059-.9258v-2.9121c-.3242-.5977-.8223-.8965-1.4941-.8965-.5312,0-.9453.2051-1.2422.6152s-.4453,1.0176-.4453,1.8223Z"/>
    <path class="cls-25" d="m216.8726,195.3379c0-.6211.1221-1.1797.3662-1.6758s.584-.8789,1.0195-1.1484.9326-.4043,1.4912-.4043c.8633,0,1.5615.2988,2.0947.8965s.7998,1.3926.7998,2.3848v.0762c0,.6172-.1182,1.1709-.3545,1.6611s-.5742.8721-1.0137,1.1455-.9443.4102-1.5146.4102c-.8594,0-1.5557-.2988-2.0889-.8965s-.7998-1.3887-.7998-2.373v-.0762Zm1.0898.1289c0,.7031.1631,1.2676.4893,1.6934s.7627.6387,1.3096.6387c.5508,0,.9883-.2158,1.3125-.6475s.4863-1.0361.4863-1.8135c0-.6953-.165-1.2588-.4951-1.6904s-.7686-.6475-1.3154-.6475c-.5352,0-.9668.2129-1.2949.6387s-.4922,1.0352-.4922,1.8281Z"/>
    <path class="cls-25" d="m229.3589,195.4668c0,.9648-.2207,1.7422-.6621,2.332s-1.0391.8848-1.793.8848c-.7695,0-1.375-.2441-1.8164-.7324v3.0527h-1.084v-8.7773h.9902l.0527.7031c.4414-.5469,1.0547-.8203,1.8398-.8203.7617,0,1.3643.2871,1.8076.8613s.665,1.373.665,2.3965v.0996Zm-1.084-.123c0-.7148-.1523-1.2793-.457-1.6934s-.7227-.6211-1.2539-.6211c-.6562,0-1.1484.291-1.4766.873v3.0293c.3242.5781.8203.8672,1.4883.8672.5195,0,.9326-.2061,1.2393-.6182s.46-1.0244.46-1.8369Z"/>
    <path class="cls-25" d="m234.6499,198.5664c-.0625-.125-.1133-.3477-.1523-.668-.5039.5234-1.1055.7852-1.8047.7852-.625,0-1.1377-.1768-1.5381-.5303s-.6006-.8018-.6006-1.3447c0-.6602.251-1.1729.7529-1.5381s1.208-.5479,2.1182-.5479h1.0547v-.498c0-.3789-.1133-.6807-.3398-.9053s-.5605-.3369-1.002-.3369c-.3867,0-.7109.0977-.9727.293s-.3926.4316-.3926.709h-1.0898c0-.3164.1123-.6221.3369-.917s.5293-.5283.9141-.7002.8076-.2578,1.2686-.2578c.7305,0,1.3027.1826,1.7168.5479s.6289.8682.6445,1.5088v2.918c0,.582.0742,1.0449.2227,1.3887v.0938h-1.1367Zm-1.7988-.8262c.3398,0,.6621-.0879.9668-.2637s.5254-.4043.6621-.6855v-1.3008h-.8496c-1.3281,0-1.9922.3887-1.9922,1.166,0,.3398.1133.6055.3398.7969s.5176.2871.873.2871Z"/>
    <path class="cls-25" d="m236.9995,195.3438c0-.9727.2305-1.7549.6914-2.3467s1.0645-.8877,1.8105-.8877c.7422,0,1.3301.2539,1.7637.7617v-3.3047h1.084v9h-.9961l-.0527-.6797c-.4336.5312-1.0371.7969-1.8105.7969-.7344,0-1.333-.3008-1.7959-.9023s-.6943-1.3867-.6943-2.3555v-.082Zm1.084.123c0,.7188.1484,1.2812.4453,1.6875s.707.6094,1.2305.6094c.6875,0,1.1895-.3086,1.5059-.9258v-2.9121c-.3242-.5977-.8223-.8965-1.4941-.8965-.5312,0-.9453.2051-1.2422.6152s-.4453,1.0176-.4453,1.8223Z"/>
    <path class="cls-25" d="m247.9448,198.5664c-.0625-.125-.1133-.3477-.1523-.668-.5039.5234-1.1055.7852-1.8047.7852-.625,0-1.1377-.1768-1.5381-.5303s-.6006-.8018-.6006-1.3447c0-.6602.251-1.1729.7529-1.5381s1.208-.5479,2.1182-.5479h1.0547v-.498c0-.3789-.1133-.6807-.3398-.9053s-.5605-.3369-1.002-.3369c-.3867,0-.7109.0977-.9727.293s-.3926.4316-.3926.709h-1.0898c0-.3164.1123-.6221.3369-.917s.5293-.5283.9141-.7002.8076-.2578,1.2686-.2578c.7305,0,1.3027.1826,1.7168.5479s.6289.8682.6445,1.5088v2.918c0,.582.0742,1.0449.2227,1.3887v.0938h-1.1367Zm-1.7988-.8262c.3398,0,.6621-.0879.9668-.2637s.5254-.4043.6621-.6855v-1.3008h-.8496c-1.3281,0-1.9922.3887-1.9922,1.166,0,.3398.1133.6055.3398.7969s.5176.2871.873.2871Z"/>
    <path class="cls-25" d="m251.6772,192.2266v7.0723c0,1.2188-.5527,1.8281-1.6582,1.8281-.2383,0-.459-.0352-.6621-.1045v-.8623c.125.0312.2891.0469.4922.0469.2422,0,.4268-.0654.5537-.1963s.1904-.3584.1904-.6836v-7.1006h1.084Zm-1.1953-1.6816c0-.1719.0537-.3193.1611-.4424s.2646-.1846.4717-.1846c.2109,0,.3711.0605.4805.1816s.1641.2695.1641.4453-.0547.3223-.1641.4395-.2695.1758-.4805.1758-.3691-.0586-.4746-.1758-.1582-.2637-.1582-.4395Z"/>
    <path class="cls-25" d="m254.6128,189.5723h1.3125l-1.5703,1.7227-.873-.0029,1.1309-1.7197Zm-.0117,8.9941h-1.0898v-6.3398h1.0898v6.3398Z"/>
    <path class="cls-25" d="m263.0503,196.8848c0-.293-.1104-.5205-.3311-.6826s-.6055-.3018-1.1543-.4189-.9844-.2578-1.3066-.4219-.5605-.3594-.7148-.5859-.2314-.4961-.2314-.8086c0-.5195.2197-.959.6592-1.3184s1.001-.5391,1.6846-.5391c.7188,0,1.3018.1855,1.749.5566s.6709.8457.6709,1.4238h-1.0898c0-.2969-.126-.5527-.3779-.7676s-.5693-.3223-.9521-.3223c-.3945,0-.7031.0859-.9258.2578s-.334.3965-.334.6738c0,.2617.1035.459.3105.5918s.5811.2598,1.1221.3809.9795.2656,1.3154.4336.585.3701.7471.6064.2432.5244.2432.8643c0,.5664-.2266,1.0205-.6797,1.3623s-1.041.5127-1.7637.5127c-.5078,0-.957-.0898-1.3477-.2695s-.6963-.4307-.917-.7529-.3311-.6709-.3311-1.0459h1.084c.0195.3633.165.6514.4365.8643s.6299.3193,1.0752.3193c.4102,0,.7393-.083.9873-.249s.3721-.3877.3721-.665Z"/>
    <path class="cls-25" d="m266.7241,198.5664h-1.084v-9h1.084v9Z"/>
    <path class="cls-25" d="m272.3726,197.9395c-.4219.4961-1.041.7441-1.8574.7441-.6758,0-1.1904-.1963-1.5439-.5889s-.5322-.9736-.5361-1.7432v-4.125h1.084v4.0957c0,.9609.3906,1.4414,1.1719,1.4414.8281,0,1.3789-.3086,1.6523-.9258v-4.6113h1.084v6.3398h-1.0312l-.0234-.627Z"/>
    <path class="cls-25" d="m276.0991,192.2266l.0352.7969c.4844-.6094,1.1172-.9141,1.8984-.9141,1.3398,0,2.0156.7559,2.0273,2.2676v4.1895h-1.084v-4.1953c-.0039-.457-.1084-.7949-.3135-1.0137s-.5244-.3281-.958-.3281c-.3516,0-.6602.0938-.9258.2812s-.4727.4336-.6211.7383v4.5176h-1.084v-6.3398h1.0254Z"/>
    <path class="cls-25" d="m284.3257,198.6836c-.8594,0-1.5586-.2822-2.0977-.8467s-.8086-1.3193-.8086-2.2646v-.1992c0-.6289.1201-1.1904.3604-1.6846s.5762-.8809,1.0078-1.1602.8994-.4189,1.4033-.4189c.8242,0,1.4648.2715,1.9219.8145s.6855,1.3203.6855,2.332v.4512h-4.2949c.0156.625.1982,1.1299.5479,1.5146s.7939.5771,1.333.5771c.3828,0,.707-.0781.9727-.2344s.498-.3633.6973-.6211l.6621.5156c-.5312.8164-1.3281,1.2246-2.3906,1.2246Zm-.1348-5.6836c-.4375,0-.8047.1592-1.1016.4775s-.4805.7646-.5508,1.3389h3.1758v-.082c-.0312-.5508-.1797-.9775-.4453-1.2803s-.625-.4541-1.0781-.4541Z"/>
    <path class="cls-25" d="m290.5952,197.7988c.3867,0,.7246-.1172,1.0137-.3516s.4492-.5273.4805-.8789h1.0254c-.0195.3633-.1445.709-.375,1.0371s-.5381.5898-.9229.7852-.792.293-1.2217.293c-.8633,0-1.5498-.2881-2.0596-.8643s-.7646-1.3643-.7646-2.3643v-.1816c0-.6172.1133-1.166.3398-1.6465s.5518-.8535.9756-1.1191.9248-.3984,1.5029-.3984c.7109,0,1.3018.2129,1.7725.6387s.7217.9785.7529,1.6582h-1.0254c-.0312-.4102-.1865-.7471-.4658-1.0107s-.624-.3955-1.0342-.3955c-.5508,0-.9775.1982-1.2803.5947s-.4541.9697-.4541,1.7197v.2051c0,.7305.1504,1.293.4512,1.6875s.7305.5918,1.2891.5918Zm-.252-7.2363l.8789-.9961h.9375v.0586l-1.4883,1.6055h-.6621l-1.4707-1.6055v-.0586h.9199l.8848.9961Z"/>
    <path class="cls-25" d="m295.3589,192.2266l.0352.7969c.4844-.6094,1.1172-.9141,1.8984-.9141,1.3398,0,2.0156.7559,2.0273,2.2676v4.1895h-1.084v-4.1953c-.0039-.457-.1084-.7949-.3135-1.0137s-.5244-.3281-.958-.3281c-.3516,0-.6602.0938-.9258.2812s-.4727.4336-.6211.7383v4.5176h-1.084v-6.3398h1.0254Z"/>
    <path class="cls-25" d="m302.144,189.5723h1.3125l-1.5703,1.7227-.873-.0029,1.1309-1.7197Zm-.0117,8.9941h-1.0898v-6.3398h1.0898v6.3398Z"/>
    <path class="cls-25" d="m312.2456,195.4668c0,.9648-.2207,1.7422-.6621,2.332s-1.0391.8848-1.793.8848c-.7695,0-1.375-.2441-1.8164-.7324v3.0527h-1.084v-8.7773h.9902l.0527.7031c.4414-.5469,1.0547-.8203,1.8398-.8203.7617,0,1.3643.2871,1.8076.8613s.665,1.373.665,2.3965v.0996Zm-1.084-.123c0-.7148-.1523-1.2793-.457-1.6934s-.7227-.6211-1.2539-.6211c-.6562,0-1.1484.291-1.4766.873v3.0293c.3242.5781.8203.8672,1.4883.8672.5195,0,.9326-.2061,1.2393-.6182s.46-1.0244.46-1.8369Z"/>
    <path class="cls-25" d="m317.5366,198.5664c-.0625-.125-.1133-.3477-.1523-.668-.5039.5234-1.1055.7852-1.8047.7852-.625,0-1.1377-.1768-1.5381-.5303s-.6006-.8018-.6006-1.3447c0-.6602.251-1.1729.7529-1.5381s1.208-.5479,2.1182-.5479h1.0547v-.498c0-.3789-.1133-.6807-.3398-.9053s-.5605-.3369-1.002-.3369c-.3867,0-.7109.0977-.9727.293s-.3926.4316-.3926.709h-1.0898c0-.3164.1123-.6221.3369-.917s.5293-.5283.9141-.7002.8076-.2578,1.2686-.2578c.7305,0,1.3027.1826,1.7168.5479s.6289.8682.6445,1.5088v2.918c0,.582.0742,1.0449.2227,1.3887v.0938h-1.1367Zm-1.7988-.8262c.3398,0,.6621-.0879.9668-.2637s.5254-.4043.6621-.6855v-1.3008h-.8496c-1.3281,0-1.9922.3887-1.9922,1.166,0,.3398.1133.6055.3398.7969s.5176.2871.873.2871Z"/>
    <path class="cls-25" d="m325.5054,195.4668c0,.9648-.2207,1.7422-.6621,2.332s-1.0391.8848-1.793.8848c-.7695,0-1.375-.2441-1.8164-.7324v3.0527h-1.084v-8.7773h.9902l.0527.7031c.4414-.5469,1.0547-.8203,1.8398-.8203.7617,0,1.3643.2871,1.8076.8613s.665,1.373.665,2.3965v.0996Zm-1.084-.123c0-.7148-.1523-1.2793-.457-1.6934s-.7227-.6211-1.2539-.6211c-.6562,0-1.1484.291-1.4766.873v3.0293c.3242.5781.8203.8672,1.4883.8672.5195,0,.9326-.2061,1.2393-.6182s.46-1.0244.46-1.8369Z"/>
    <path class="cls-25" d="m329.9468,193.1992c-.1641-.0273-.3418-.041-.5332-.041-.7109,0-1.1934.3027-1.4473.9082v4.5h-1.084v-6.3398h1.0547l.0176.7324c.3555-.5664.8594-.8496,1.5117-.8496.2109,0,.3711.0273.4805.082v1.0078Z"/>
    <path class="cls-25" d="m334.6343,196.8848c0-.293-.1104-.5205-.3311-.6826s-.6055-.3018-1.1543-.4189-.9844-.2578-1.3066-.4219-.5605-.3594-.7148-.5859-.2314-.4961-.2314-.8086c0-.5195.2197-.959.6592-1.3184s1.001-.5391,1.6846-.5391c.7188,0,1.3018.1855,1.749.5566s.6709.8457.6709,1.4238h-1.0898c0-.2969-.126-.5527-.3779-.7676s-.5693-.3223-.9521-.3223c-.3945,0-.7031.0859-.9258.2578s-.334.3965-.334.6738c0,.2617.1035.459.3105.5918s.5811.2598,1.1221.3809.9795.2656,1.3154.4336.585.3701.7471.6064.2432.5244.2432.8643c0,.5664-.2266,1.0205-.6797,1.3623s-1.041.5127-1.7637.5127c-.5078,0-.957-.0898-1.3477-.2695s-.6963-.4307-.917-.7529-.3311-.6709-.3311-1.0459h1.084c.0195.3633.165.6514.4365.8643s.6299.3193,1.0752.3193c.4102,0,.7393-.083.9873-.249s.3721-.3877.3721-.665Z"/>
    <path class="cls-25" d="m338.8999,195.6309l-.6797.709v2.2266h-1.084v-9h1.084v5.4434l.5801-.6973,1.9746-2.0859h1.3184l-2.4668,2.6484,2.7539,3.6914h-1.2715l-2.209-2.9355Z"/>
    <path class="cls-25" d="m345.2866,196.9785l1.4766-4.752h1.1602l-2.5488,7.3184c-.3945,1.0547-1.0215,1.582-1.8809,1.582l-.2051-.0176-.4043-.0762v-.8789l.293.0234c.3672,0,.6533-.0742.8584-.2227s.374-.4199.5068-.8145l.2402-.6445-2.2617-6.2695h1.1836l1.582,4.752Z"/>
    <path class="cls-25" d="m138.1167,205.2266v7.0723c0,1.2188-.5527,1.8281-1.6582,1.8281-.2383,0-.459-.0352-.6621-.1045v-.8623c.125.0312.2891.0469.4922.0469.2422,0,.4268-.0654.5537-.1963s.1904-.3584.1904-.6836v-7.1006h1.084Zm-1.1953-1.6816c0-.1719.0537-.3193.1611-.4424s.2646-.1846.4717-.1846c.2109,0,.3711.0605.4805.1816s.1641.2695.1641.4453-.0547.3223-.1641.4395-.2695.1758-.4805.1758-.3691-.0586-.4746-.1758-.1582-.2637-.1582-.4395Z"/>
    <path class="cls-25" d="m142.4937,211.6836c-.8594,0-1.5586-.2822-2.0977-.8467s-.8086-1.3193-.8086-2.2646v-.1992c0-.6289.1201-1.1904.3604-1.6846s.5762-.8809,1.0078-1.1602.8994-.4189,1.4033-.4189c.8242,0,1.4648.2715,1.9219.8145s.6855,1.3203.6855,2.332v.4512h-4.2949c.0156.625.1982,1.1299.5479,1.5146s.7939.5771,1.333.5771c.3828,0,.707-.0781.9727-.2344s.498-.3633.6973-.6211l.6621.5156c-.5312.8164-1.3281,1.2246-2.3906,1.2246Zm-.1348-5.6836c-.4375,0-.8047.1592-1.1016.4775s-.4805.7646-.5508,1.3389h3.1758v-.082c-.0312-.5508-.1797-.9775-.4453-1.2803s-.625-.4541-1.0781-.4541Z"/>
    <path class="cls-25" d="m147.2456,205.2266l.0352.7969c.4844-.6094,1.1172-.9141,1.8984-.9141,1.3398,0,2.0156.7559,2.0273,2.2676v4.1895h-1.084v-4.1953c-.0039-.457-.1084-.7949-.3135-1.0137s-.5244-.3281-.958-.3281c-.3516,0-.6602.0938-.9258.2812s-.4727.4336-.6211.7383v4.5176h-1.084v-6.3398h1.0254Z"/>
    <path class="cls-25" d="m152.5542,208.3379c0-.6211.1221-1.1797.3662-1.6758s.584-.8789,1.0195-1.1484.9326-.4043,1.4912-.4043c.8633,0,1.5615.2988,2.0947.8965s.7998,1.3926.7998,2.3848v.0762c0,.6172-.1182,1.1709-.3545,1.6611s-.5742.8721-1.0137,1.1455-.9443.4102-1.5146.4102c-.8594,0-1.5557-.2988-2.0889-.8965s-.7998-1.3887-.7998-2.373v-.0762Zm1.0898.1289c0,.7031.1631,1.2676.4893,1.6934s.7627.6387,1.3096.6387c.5508,0,.9883-.2158,1.3125-.6475s.4863-1.0361.4863-1.8135c0-.6953-.165-1.2588-.4951-1.6904s-.7686-.6475-1.3154-.6475c-.5352,0-.9668.2129-1.2949.6387s-.4922,1.0352-.4922,1.8281Z"/>
    <path class="cls-25" d="m160.7046,205.2266l.0293.7031c.4648-.5469,1.0918-.8203,1.8809-.8203.8867,0,1.4902.3398,1.8105,1.0195.2109-.3047.4854-.5508.8232-.7383s.7373-.2812,1.1982-.2812c1.3906,0,2.0977.7363,2.1211,2.209v4.248h-1.084v-4.1836c0-.4531-.1035-.792-.3105-1.0166s-.5547-.3369-1.043-.3369c-.4023,0-.7363.1201-1.002.3604s-.4199.5635-.4629.9697v4.207h-1.0898v-4.1543c0-.9219-.4512-1.3828-1.3535-1.3828-.7109,0-1.1973.3027-1.459.9082v4.6289h-1.084v-6.3398h1.0254Z"/>
    <path class="cls-25" d="m174.1987,205.2266l.0352.7969c.4844-.6094,1.1172-.9141,1.8984-.9141,1.3398,0,2.0156.7559,2.0273,2.2676v4.1895h-1.084v-4.1953c-.0039-.457-.1084-.7949-.3135-1.0137s-.5244-.3281-.958-.3281c-.3516,0-.6602.0938-.9258.2812s-.4727.4336-.6211.7383v4.5176h-1.084v-6.3398h1.0254Z"/>
    <path class="cls-25" d="m183.7085,211.5664c-.0625-.125-.1133-.3477-.1523-.668-.5039.5234-1.1055.7852-1.8047.7852-.625,0-1.1377-.1768-1.5381-.5303s-.6006-.8018-.6006-1.3447c0-.6602.251-1.1729.7529-1.5381s1.208-.5479,2.1182-.5479h1.0547v-.498c0-.3789-.1133-.6807-.3398-.9053s-.5605-.3369-1.002-.3369c-.3867,0-.7109.0977-.9727.293s-.3926.4316-.3926.709h-1.0898c0-.3164.1123-.6221.3369-.917s.5293-.5283.9141-.7002.8076-.2578,1.2686-.2578c.7305,0,1.3027.1826,1.7168.5479s.6289.8682.6445,1.5088v2.918c0,.582.0742,1.0449.2227,1.3887v.0938h-1.1367Zm-1.7988-.8262c.3398,0,.6621-.0879.9668-.2637s.5254-.4043.6621-.6855v-1.3008h-.8496c-1.3281,0-1.9922.3887-1.9922,1.166,0,.3398.1133.6055.3398.7969s.5176.2871.873.2871Z"/>
    <path class="cls-25" d="m194.6479,208.4668c0,.9648-.2207,1.7422-.6621,2.332s-1.0391.8848-1.793.8848c-.7695,0-1.375-.2441-1.8164-.7324v3.0527h-1.084v-8.7773h.9902l.0527.7031c.4414-.5469,1.0547-.8203,1.8398-.8203.7617,0,1.3643.2871,1.8076.8613s.665,1.373.665,2.3965v.0996Zm-1.084-.123c0-.7148-.1523-1.2793-.457-1.6934s-.7227-.6211-1.2539-.6211c-.6562,0-1.1484.291-1.4766.873v3.0293c.3242.5781.8203.8672,1.4883.8672.5195,0,.9326-.2061,1.2393-.6182s.46-1.0244.46-1.8369Z"/>
    <path class="cls-25" d="m199.939,211.5664c-.0625-.125-.1133-.3477-.1523-.668-.5039.5234-1.1055.7852-1.8047.7852-.625,0-1.1377-.1768-1.5381-.5303s-.6006-.8018-.6006-1.3447c0-.6602.251-1.1729.7529-1.5381s1.208-.5479,2.1182-.5479h1.0547v-.498c0-.3789-.1133-.6807-.3398-.9053s-.5605-.3369-1.002-.3369c-.3867,0-.7109.0977-.9727.293s-.3926.4316-.3926.709h-1.0898c0-.3164.1123-.6221.3369-.917s.5293-.5283.9141-.7002.8076-.2578,1.2686-.2578c.7305,0,1.3027.1826,1.7168.5479s.6289.8682.6445,1.5088v2.918c0,.582.0742,1.0449.2227,1.3887v.0938h-1.1367Zm-1.7988-.8262c.3398,0,.6621-.0879.9668-.2637s.5254-.4043.6621-.6855v-1.3008h-.8496c-1.3281,0-1.9922.3887-1.9922,1.166,0,.3398.1133.6055.3398.7969s.5176.2871.873.2871Z"/>
    <path class="cls-25" d="m203.5776,205.2266l.0352.7969c.4844-.6094,1.1172-.9141,1.8984-.9141,1.3398,0,2.0156.7559,2.0273,2.2676v4.1895h-1.084v-4.1953c-.0039-.457-.1084-.7949-.3135-1.0137s-.5244-.3281-.958-.3281c-.3516,0-.6602.0938-.9258.2812s-.4727.4336-.6211.7383v4.5176h-1.084v-6.3398h1.0254Z"/>
    <path class="cls-25" d="m211.8042,211.6836c-.8594,0-1.5586-.2822-2.0977-.8467s-.8086-1.3193-.8086-2.2646v-.1992c0-.6289.1201-1.1904.3604-1.6846s.5762-.8809,1.0078-1.1602.8994-.4189,1.4033-.4189c.8242,0,1.4648.2715,1.9219.8145s.6855,1.3203.6855,2.332v.4512h-4.2949c.0156.625.1982,1.1299.5479,1.5146s.7939.5771,1.333.5771c.3828,0,.707-.0781.9727-.2344s.498-.3633.6973-.6211l.6621.5156c-.5312.8164-1.3281,1.2246-2.3906,1.2246Zm-.1348-5.6836c-.4375,0-.8047.1592-1.1016.4775s-.4805.7646-.5508,1.3389h3.1758v-.082c-.0312-.5508-.1797-.9775-.4453-1.2803s-.625-.4541-1.0781-.4541Z"/>
    <path class="cls-25" d="m216.7085,211.5664h-1.084v-9h1.084v9Z"/>
    <path class="cls-25" d="m220.5171,209.9785l1.4766-4.752h1.1602l-2.5488,7.3184c-.3945,1.0547-1.0215,1.582-1.8809,1.582l-.2051-.0176-.4043-.0762v-.8789l.293.0234c.3672,0,.6533-.0742.8584-.2227s.374-.4199.5068-.8145l.2402-.6445-2.2617-6.2695h1.1836l1.582,4.752Z"/>
    <path class="cls-25" d="m230.7827,209.8848c0-.293-.1104-.5205-.3311-.6826s-.6055-.3018-1.1543-.4189-.9844-.2578-1.3066-.4219-.5605-.3594-.7148-.5859-.2314-.4961-.2314-.8086c0-.5195.2197-.959.6592-1.3184s1.001-.5391,1.6846-.5391c.7188,0,1.3018.1855,1.749.5566s.6709.8457.6709,1.4238h-1.0898c0-.2969-.126-.5527-.3779-.7676s-.5693-.3223-.9521-.3223c-.3945,0-.7031.0859-.9258.2578s-.334.3965-.334.6738c0,.2617.1035.459.3105.5918s.5811.2598,1.1221.3809.9795.2656,1.3154.4336.585.3701.7471.6064.2432.5244.2432.8643c0,.5664-.2266,1.0205-.6797,1.3623s-1.041.5127-1.7637.5127c-.5078,0-.957-.0898-1.3477-.2695s-.6963-.4307-.917-.7529-.3311-.6709-.3311-1.0459h1.084c.0195.3633.165.6514.4365.8643s.6299.3193,1.0752.3193c.4102,0,.7393-.083.9873-.249s.3721-.3877.3721-.665Z"/>
    <path class="cls-25" d="m237.1929,211.5664c-.0625-.125-.1133-.3477-.1523-.668-.5039.5234-1.1055.7852-1.8047.7852-.625,0-1.1377-.1768-1.5381-.5303s-.6006-.8018-.6006-1.3447c0-.6602.251-1.1729.7529-1.5381s1.208-.5479,2.1182-.5479h1.0547v-.498c0-.3789-.1133-.6807-.3398-.9053s-.5605-.3369-1.002-.3369c-.3867,0-.7109.0977-.9727.293s-.3926.4316-.3926.709h-1.0898c0-.3164.1123-.6221.3369-.917s.5293-.5283.9141-.7002.8076-.2578,1.2686-.2578c.7305,0,1.3027.1826,1.7168.5479s.6289.8682.6445,1.5088v2.918c0,.582.0742,1.0449.2227,1.3887v.0938h-1.1367Zm-1.7988-.8262c.3398,0,.6621-.0879.9668-.2637s.5254-.4043.6621-.6855v-1.3008h-.8496c-1.3281,0-1.9922.3887-1.9922,1.166,0,.3398.1133.6055.3398.7969s.5176.2871.873.2871Z"/>
    <path class="cls-25" d="m240.8257,205.2266l.0293.7031c.4648-.5469,1.0918-.8203,1.8809-.8203.8867,0,1.4902.3398,1.8105,1.0195.2109-.3047.4854-.5508.8232-.7383s.7373-.2812,1.1982-.2812c1.3906,0,2.0977.7363,2.1211,2.209v4.248h-1.084v-4.1836c0-.4531-.1035-.792-.3105-1.0166s-.5547-.3369-1.043-.3369c-.4023,0-.7363.1201-1.002.3604s-.4199.5635-.4629.9697v4.207h-1.0898v-4.1543c0-.9219-.4512-1.3828-1.3535-1.3828-.7109,0-1.1973.3027-1.459.9082v4.6289h-1.084v-6.3398h1.0254Z"/>
    <path class="cls-25" d="m250.0366,208.3379c0-.6211.1221-1.1797.3662-1.6758s.584-.8789,1.0195-1.1484.9326-.4043,1.4912-.4043c.8633,0,1.5615.2988,2.0947.8965s.7998,1.3926.7998,2.3848v.0762c0,.6172-.1182,1.1709-.3545,1.6611s-.5742.8721-1.0137,1.1455-.9443.4102-1.5146.4102c-.8594,0-1.5557-.2988-2.0889-.8965s-.7998-1.3887-.7998-2.373v-.0762Zm1.0898.1289c0,.7031.1631,1.2676.4893,1.6934s.7627.6387,1.3096.6387c.5508,0,.9883-.2158,1.3125-.6475s.4863-1.0361.4863-1.8135c0-.6953-.165-1.2588-.4951-1.6904s-.7686-.6475-1.3154-.6475c-.5352,0-.9668.2129-1.2949.6387s-.4922,1.0352-.4922,1.8281Z"/>
    <path class="cls-25" d="m258.6382,203.6914v1.5352h1.1836v.8379h-1.1836v3.9365c0,.2539.0527.4453.1582.5723s.2852.1904.5391.1904c.125,0,.2969-.0234.5156-.0703v.874c-.2852.0771-.5625.1162-.832.1162-.4844,0-.8496-.1465-1.0957-.4395s-.3691-.709-.3691-1.248v-3.9316h-1.1543v-.8379h1.1543v-1.5352h1.084Z"/>
    <path class="cls-25" d="m262.1128,205.2266l.0352.7969c.4844-.6094,1.1172-.9141,1.8984-.9141,1.3398,0,2.0156.7559,2.0273,2.2676v4.1895h-1.084v-4.1953c-.0039-.457-.1084-.7949-.3135-1.0137s-.5244-.3281-.958-.3281c-.3516,0-.6602.0938-.9258.2812s-.4727.4336-.6211.7383v4.5176h-1.084v-6.3398h1.0254Z"/>
    <path class="cls-25" d="m270.3394,211.6836c-.8594,0-1.5586-.2822-2.0977-.8467s-.8086-1.3193-.8086-2.2646v-.1992c0-.6289.1201-1.1904.3604-1.6846s.5762-.8809,1.0078-1.1602.8994-.4189,1.4033-.4189c.8242,0,1.4648.2715,1.9219.8145s.6855,1.3203.6855,2.332v.4512h-4.2949c.0156.625.1982,1.1299.5479,1.5146s.7939.5771,1.333.5771c.3828,0,.707-.0781.9727-.2344s.498-.3633.6973-.6211l.6621.5156c-.5312.8164-1.3281,1.2246-2.3906,1.2246Zm-.1348-5.6836c-.4375,0-.8047.1592-1.1016.4775s-.4805.7646-.5508,1.3389h3.1758v-.082c-.0312-.5508-.1797-.9775-.4453-1.2803s-.625-.4541-1.0781-.4541Zm.5273-3.4336h1.3125l-1.5703,1.7227-.873-.0029,1.1309-1.7197Z"/>
    <path class="cls-25" d="m276.9956,208.1035c0-.8828.1182-1.7305.3545-2.543s.5889-1.5508,1.0576-2.2148.9551-1.1328,1.459-1.4062l.2227.7148c-.5703.4375-1.0381,1.1055-1.4033,2.0039s-.5654,1.9043-.6006,3.0176l-.0059.498c0,1.5078.2754,2.8164.8262,3.9258.332.6641.7266,1.1836,1.1836,1.5586l-.2227.6621c-.5195-.2891-1.0156-.7734-1.4883-1.4531-.9219-1.3281-1.3828-2.916-1.3828-4.7637Z"/>
    <path class="cls-25" d="m282.1636,205.2266l.0352.7969c.4844-.6094,1.1172-.9141,1.8984-.9141,1.3398,0,2.0156.7559,2.0273,2.2676v4.1895h-1.084v-4.1953c-.0039-.457-.1084-.7949-.3135-1.0137s-.5244-.3281-.958-.3281c-.3516,0-.6602.0938-.9258.2812s-.4727.4336-.6211.7383v4.5176h-1.084v-6.3398h1.0254Z"/>
    <path class="cls-25" d="m290.3901,211.6836c-.8594,0-1.5586-.2822-2.0977-.8467s-.8086-1.3193-.8086-2.2646v-.1992c0-.6289.1201-1.1904.3604-1.6846s.5762-.8809,1.0078-1.1602.8994-.4189,1.4033-.4189c.8242,0,1.4648.2715,1.9219.8145s.6855,1.3203.6855,2.332v.4512h-4.2949c.0156.625.1982,1.1299.5479,1.5146s.7939.5771,1.333.5771c.3828,0,.707-.0781.9727-.2344s.498-.3633.6973-.6211l.6621.5156c-.5312.8164-1.3281,1.2246-2.3906,1.2246Zm-.1348-5.6836c-.4375,0-.8047.1592-1.1016.4775s-.4805.7646-.5508,1.3389h3.1758v-.082c-.0312-.5508-.1797-.9775-.4453-1.2803s-.625-.4541-1.0781-.4541Z"/>
    <path class="cls-25" d="m296.8237,208.3438c0-.9727.2305-1.7549.6914-2.3467s1.0645-.8877,1.8105-.8877c.7422,0,1.3301.2539,1.7637.7617v-3.3047h1.084v9h-.9961l-.0527-.6797c-.4336.5312-1.0371.7969-1.8105.7969-.7344,0-1.333-.3008-1.7959-.9023s-.6943-1.3867-.6943-2.3555v-.082Zm1.084.123c0,.7188.1484,1.2812.4453,1.6875s.707.6094,1.2305.6094c.6875,0,1.1895-.3086,1.5059-.9258v-2.9121c-.3242-.5977-.8223-.8965-1.4941-.8965-.5312,0-.9453.2051-1.2422.6152s-.4453,1.0176-.4453,1.8223Z"/>
    <path class="cls-25" d="m303.5679,208.3379c0-.6211.1221-1.1797.3662-1.6758s.584-.8789,1.0195-1.1484.9326-.4043,1.4912-.4043c.8633,0,1.5615.2988,2.0947.8965s.7998,1.3926.7998,2.3848v.0762c0,.6172-.1182,1.1709-.3545,1.6611s-.5742.8721-1.0137,1.1455-.9443.4102-1.5146.4102c-.8594,0-1.5557-.2988-2.0889-.8965s-.7998-1.3887-.7998-2.373v-.0762Zm1.0898.1289c0,.7031.1631,1.2676.4893,1.6934s.7627.6387,1.3096.6387c.5508,0,.9883-.2158,1.3125-.6475s.4863-1.0361.4863-1.8135c0-.6953-.165-1.2588-.4951-1.6904s-.7686-.6475-1.3154-.6475c-.5352,0-.9668.2129-1.2949.6387s-.4922,1.0352-.4922,1.8281Z"/>
    <path class="cls-25" d="m314.689,205.2266l.0293.7031c.4648-.5469,1.0918-.8203,1.8809-.8203.8867,0,1.4902.3398,1.8105,1.0195.2109-.3047.4854-.5508.8232-.7383s.7373-.2812,1.1982-.2812c1.3906,0,2.0977.7363,2.1211,2.209v4.248h-1.084v-4.1836c0-.4531-.1035-.792-.3105-1.0166s-.5547-.3369-1.043-.3369c-.4023,0-.7363.1201-1.002.3604s-.4199.5635-.4629.9697v4.207h-1.0898v-4.1543c0-.9219-.4512-1.3828-1.3535-1.3828-.7109,0-1.1973.3027-1.459.9082v4.6289h-1.084v-6.3398h1.0254Z"/>
    <path class="cls-25" d="m326.8179,211.6836c-.8594,0-1.5586-.2822-2.0977-.8467s-.8086-1.3193-.8086-2.2646v-.1992c0-.6289.1201-1.1904.3604-1.6846s.5762-.8809,1.0078-1.1602.8994-.4189,1.4033-.4189c.8242,0,1.4648.2715,1.9219.8145s.6855,1.3203.6855,2.332v.4512h-4.2949c.0156.625.1982,1.1299.5479,1.5146s.7939.5771,1.333.5771c.3828,0,.707-.0781.9727-.2344s.498-.3633.6973-.6211l.6621.5156c-.5312.8164-1.3281,1.2246-2.3906,1.2246Zm-.1348-5.6836c-.4375,0-.8047.1592-1.1016.4775s-.4805.7646-.5508,1.3389h3.1758v-.082c-.0312-.5508-.1797-.9775-.4453-1.2803s-.625-.4541-1.0781-.4541Z"/>
    <path class="cls-25" d="m331.564,210.6816h3.709v.8848h-5.0332v-.7969l3.498-4.6465h-3.4453v-.8965h4.8047v.7676l-3.5332,4.6875Z"/>
    <path class="cls-25" d="m339.1226,211.6836c-.8594,0-1.5586-.2822-2.0977-.8467s-.8086-1.3193-.8086-2.2646v-.1992c0-.6289.1201-1.1904.3604-1.6846s.5762-.8809,1.0078-1.1602.8994-.4189,1.4033-.4189c.8242,0,1.4648.2715,1.9219.8145s.6855,1.3203.6855,2.332v.4512h-4.2949c.0156.625.1982,1.1299.5479,1.5146s.7939.5771,1.333.5771c.3828,0,.707-.0781.9727-.2344s.498-.3633.6973-.6211l.6621.5156c-.5312.8164-1.3281,1.2246-2.3906,1.2246Zm-.1348-5.6836c-.4375,0-.8047.1592-1.1016.4775s-.4805.7646-.5508,1.3389h3.1758v-.082c-.0312-.5508-.1797-.9775-.4453-1.2803s-.625-.4541-1.0781-.4541Z"/>
    <path class="cls-25" d="m345.9136,206.1992c-.1641-.0273-.3418-.041-.5332-.041-.7109,0-1.1934.3027-1.4473.9082v4.5h-1.084v-6.3398h1.0547l.0176.7324c.3555-.5664.8594-.8496,1.5117-.8496.2109,0,.3711.0273.4805.082v1.0078Z"/>
    <path class="cls-25" d="m138.0171,218.2266l.0293.7031c.4648-.5469,1.0918-.8203,1.8809-.8203.8867,0,1.4902.3398,1.8105,1.0195.2109-.3047.4854-.5508.8232-.7383s.7373-.2812,1.1982-.2812c1.3906,0,2.0977.7363,2.1211,2.209v4.248h-1.084v-4.1836c0-.4531-.1035-.792-.3105-1.0166s-.5547-.3369-1.043-.3369c-.4023,0-.7363.1201-1.002.3604s-.4199.5635-.4629.9697v4.207h-1.0898v-4.1543c0-.9219-.4512-1.3828-1.3535-1.3828-.7109,0-1.1973.3027-1.459.9082v4.6289h-1.084v-6.3398h1.0254Z"/>
    <path class="cls-25" d="m150.146,224.6836c-.8594,0-1.5586-.2822-2.0977-.8467s-.8086-1.3193-.8086-2.2646v-.1992c0-.6289.1201-1.1904.3604-1.6846s.5762-.8809,1.0078-1.1602.8994-.4189,1.4033-.4189c.8242,0,1.4648.2715,1.9219.8145s.6855,1.3203.6855,2.332v.4512h-4.2949c.0156.625.1982,1.1299.5479,1.5146s.7939.5771,1.333.5771c.3828,0,.707-.0781.9727-.2344s.498-.3633.6973-.6211l.6621.5156c-.5312.8164-1.3281,1.2246-2.3906,1.2246Zm-.1348-5.6836c-.4375,0-.8047.1592-1.1016.4775s-.4805.7646-.5508,1.3389h3.1758v-.082c-.0312-.5508-.1797-.9775-.4453-1.2803s-.625-.4541-1.0781-.4541Z"/>
    <path class="cls-25" d="m154.8921,223.6816h3.709v.8848h-5.0332v-.7969l3.498-4.6465h-3.4453v-.8965h4.8047v.7676l-3.5332,4.6875Z"/>
    <path class="cls-25" d="m159.8257,216.5449c0-.1758.0537-.3242.1611-.4453s.2666-.1816.4775-.1816.3711.0605.4805.1816.1641.2695.1641.4453-.0547.3223-.1641.4395-.2695.1758-.4805.1758-.3701-.0586-.4775-.1758-.1611-.2637-.1611-.4395Zm1.1719,8.0215h-1.084v-6.3398h1.084v6.3398Z"/>
    <path class="cls-25" d="m167.2671,216.5625l.8789-.9961h.9375v.0586l-1.4883,1.6055h-.6621l-1.4707-1.6055v-.0586h.9199l.8848.9961Zm1.5,2.6367c-.1641-.0273-.3418-.041-.5332-.041-.7109,0-1.1934.3027-1.4473.9082v4.5h-1.084v-6.3398h1.0547l.0176.7324c.3555-.5664.8594-.8496,1.5117-.8496.2109,0,.3711.0273.4805.082v1.0078Z"/>
    <path class="cls-25" d="m173.6772,224.5664c-.0625-.125-.1133-.3477-.1523-.668-.5039.5234-1.1055.7852-1.8047.7852-.625,0-1.1377-.1768-1.5381-.5303s-.6006-.8018-.6006-1.3447c0-.6602.251-1.1729.7529-1.5381s1.208-.5479,2.1182-.5479h1.0547v-.498c0-.3789-.1133-.6807-.3398-.9053s-.5605-.3369-1.002-.3369c-.3867,0-.7109.0977-.9727.293s-.3926.4316-.3926.709h-1.0898c0-.3164.1123-.6221.3369-.917s.5293-.5283.9141-.7002.8076-.2578,1.2686-.2578c.7305,0,1.3027.1826,1.7168.5479s.6289.8682.6445,1.5088v2.918c0,.582.0742,1.0449.2227,1.3887v.0938h-1.1367Zm-1.7988-.8262c.3398,0,.6621-.0879.9668-.2637s.5254-.4043.6621-.6855v-1.3008h-.8496c-1.3281,0-1.9922.3887-1.9922,1.166,0,.3398.1133.6055.3398.7969s.5176.2871.873.2871Z"/>
    <path class="cls-25" d="m176.0269,221.3438c0-.9727.2305-1.7549.6914-2.3467s1.0645-.8877,1.8105-.8877c.7422,0,1.3301.2539,1.7637.7617v-3.3047h1.084v9h-.9961l-.0527-.6797c-.4336.5312-1.0371.7969-1.8105.7969-.7344,0-1.333-.3008-1.7959-.9023s-.6943-1.3867-.6943-2.3555v-.082Zm1.084.123c0,.7188.1484,1.2812.4453,1.6875s.707.6094,1.2305.6094c.6875,0,1.1895-.3086,1.5059-.9258v-2.9121c-.3242-.5977-.8223-.8965-1.4941-.8965-.5312,0-.9453.2051-1.2422.6152s-.4453,1.0176-.4453,1.8223Z"/>
    <path class="cls-25" d="m186.9722,224.5664c-.0625-.125-.1133-.3477-.1523-.668-.5039.5234-1.1055.7852-1.8047.7852-.625,0-1.1377-.1768-1.5381-.5303s-.6006-.8018-.6006-1.3447c0-.6602.251-1.1729.7529-1.5381s1.208-.5479,2.1182-.5479h1.0547v-.498c0-.3789-.1133-.6807-.3398-.9053s-.5605-.3369-1.002-.3369c-.3867,0-.7109.0977-.9727.293s-.3926.4316-.3926.709h-1.0898c0-.3164.1123-.6221.3369-.917s.5293-.5283.9141-.7002.8076-.2578,1.2686-.2578c.7305,0,1.3027.1826,1.7168.5479s.6289.8682.6445,1.5088v2.918c0,.582.0742,1.0449.2227,1.3887v.0938h-1.1367Zm-1.7988-.8262c.3398,0,.6621-.0879.9668-.2637s.5254-.4043.6621-.6855v-1.3008h-.8496c-1.3281,0-1.9922.3887-1.9922,1.166,0,.3398.1133.6055.3398.7969s.5176.2871.873.2871Z"/>
    <path class="cls-25" d="m190.605,218.2266l.0293.7031c.4648-.5469,1.0918-.8203,1.8809-.8203.8867,0,1.4902.3398,1.8105,1.0195.2109-.3047.4854-.5508.8232-.7383s.7373-.2812,1.1982-.2812c1.3906,0,2.0977.7363,2.1211,2.209v4.248h-1.084v-4.1836c0-.4531-.1035-.792-.3105-1.0166s-.5547-.3369-1.043-.3369c-.4023,0-.7363.1201-1.002.3604s-.4199.5635-.4629.9697v4.207h-1.0898v-4.1543c0-.9219-.4512-1.3828-1.3535-1.3828-.7109,0-1.1973.3027-1.459.9082v4.6289h-1.084v-6.3398h1.0254Z"/>
    <path class="cls-25" d="m200.1089,216.5449c0-.1758.0537-.3242.1611-.4453s.2666-.1816.4775-.1816.3711.0605.4805.1816.1641.2695.1641.4453-.0547.3223-.1641.4395-.2695.1758-.4805.1758-.3701-.0586-.4775-.1758-.1611-.2637-.1611-.4395Zm1.1719,8.0215h-1.084v-6.3398h1.084v6.3398Z"/>
    <path class="cls-25" d="m211.3413,221.4668c0,.9648-.2207,1.7422-.6621,2.332s-1.0391.8848-1.793.8848c-.7695,0-1.375-.2441-1.8164-.7324v3.0527h-1.084v-8.7773h.9902l.0527.7031c.4414-.5469,1.0547-.8203,1.8398-.8203.7617,0,1.3643.2871,1.8076.8613s.665,1.373.665,2.3965v.0996Zm-1.084-.123c0-.7148-.1523-1.2793-.457-1.6934s-.7227-.6211-1.2539-.6211c-.6562,0-1.1484.291-1.4766.873v3.0293c.3242.5781.8203.8672,1.4883.8672.5195,0,.9326-.2061,1.2393-.6182s.46-1.0244.46-1.8369Z"/>
    <path class="cls-25" d="m216.6323,224.5664c-.0625-.125-.1133-.3477-.1523-.668-.5039.5234-1.1055.7852-1.8047.7852-.625,0-1.1377-.1768-1.5381-.5303s-.6006-.8018-.6006-1.3447c0-.6602.251-1.1729.7529-1.5381s1.208-.5479,2.1182-.5479h1.0547v-.498c0-.3789-.1133-.6807-.3398-.9053s-.5605-.3369-1.002-.3369c-.3867,0-.7109.0977-.9727.293s-.3926.4316-.3926.709h-1.0898c0-.3164.1123-.6221.3369-.917s.5293-.5283.9141-.7002.8076-.2578,1.2686-.2578c.7305,0,1.3027.1826,1.7168.5479s.6289.8682.6445,1.5088v2.918c0,.582.0742,1.0449.2227,1.3887v.0938h-1.1367Zm-1.7988-.8262c.3398,0,.6621-.0879.9668-.2637s.5254-.4043.6621-.6855v-1.3008h-.8496c-1.3281,0-1.9922.3887-1.9922,1.166,0,.3398.1133.6055.3398.7969s.5176.2871.873.2871Z"/>
    <path class="cls-25" d="m220.271,218.2266l.0352.7969c.4844-.6094,1.1172-.9141,1.8984-.9141,1.3398,0,2.0156.7559,2.0273,2.2676v4.1895h-1.084v-4.1953c-.0039-.457-.1084-.7949-.3135-1.0137s-.5244-.3281-.958-.3281c-.3516,0-.6602.0938-.9258.2812s-.4727.4336-.6211.7383v4.5176h-1.084v-6.3398h1.0254Z"/>
    <path class="cls-25" d="m228.4976,224.6836c-.8594,0-1.5586-.2822-2.0977-.8467s-.8086-1.3193-.8086-2.2646v-.1992c0-.6289.1201-1.1904.3604-1.6846s.5762-.8809,1.0078-1.1602.8994-.4189,1.4033-.4189c.8242,0,1.4648.2715,1.9219.8145s.6855,1.3203.6855,2.332v.4512h-4.2949c.0156.625.1982,1.1299.5479,1.5146s.7939.5771,1.333.5771c.3828,0,.707-.0781.9727-.2344s.498-.3633.6973-.6211l.6621.5156c-.5312.8164-1.3281,1.2246-2.3906,1.2246Zm-.1348-5.6836c-.4375,0-.8047.1592-1.1016.4775s-.4805.7646-.5508,1.3389h3.1758v-.082c-.0312-.5508-.1797-.9775-.4453-1.2803s-.625-.4541-1.0781-.4541Z"/>
    <path class="cls-25" d="m233.4019,224.5664h-1.084v-9h1.084v9Z"/>
    <path class="cls-25" d="m239.0503,223.9395c-.4219.4961-1.041.7441-1.8574.7441-.6758,0-1.1904-.1963-1.5439-.5889s-.5322-.9736-.5361-1.7432v-4.125h1.084v4.0957c0,.9609.3906,1.4414,1.1719,1.4414.8281,0,1.3789-.3086,1.6523-.9258v-4.6113h1.084v6.3398h-1.0312l-.0234-.627Zm-.1523-7.6875c0,.3398-.1211.624-.3633.8525s-.541.3428-.8965.3428c-.3594,0-.6592-.1152-.8994-.3457s-.3604-.5137-.3604-.8496.1201-.623.3604-.8613.54-.3574.8994-.3574.6592.1191.8994.3574.3604.5254.3604.8613Zm-1.9395,0c0,.1836.0654.3418.1963.4746s.292.1992.4834.1992c.1875,0,.3477-.0645.4805-.1934s.1992-.2891.1992-.4805-.0654-.3545-.1963-.4893-.292-.2021-.4834-.2021c-.1953,0-.3574.0684-.4863.2051s-.1934.2988-.1934.4863Z"/>
    <path class="cls-25" d="m244.2534,221.1621c0,.8711-.1143,1.7061-.3428,2.5049s-.5781,1.5361-1.0488,2.2119-.9639,1.1562-1.4795,1.4414l-.2285-.6621c.6016-.4609,1.085-1.1768,1.4502-2.1475s.5518-2.0479.5596-3.2314v-.1875c0-.8203-.0859-1.583-.2578-2.2881s-.4111-1.3369-.7178-1.8955-.6514-.9941-1.0342-1.3066l.2285-.6621c.5156.2852,1.0068.7617,1.4736,1.4297s.8164,1.4043,1.0488,2.209.3486,1.666.3486,2.584Z"/>
    <path class="cls-25" d="m245.9468,223.998c0-.1875.0557-.3438.167-.4688s.2783-.1875.501-.1875.3916.0625.5068.1875.1729.2812.1729.4688c0,.1797-.0576.3301-.1729.4512s-.2842.1816-.5068.1816-.3896-.0605-.501-.1816-.167-.2715-.167-.4512Z"/>
  </g>
  <g>
    <path class="cls-26" d="m297.6289,34.8945c-.8843-.2539-1.5283-.5664-1.9307-.9365-.4033-.3711-.6045-.8281-.6045-1.3721,0-.6162.2461-1.126.7383-1.5283.4927-.4033,1.1328-.6045,1.9204-.6045.5371,0,1.0161.1035,1.437.3115.4204.208.7461.4941.9775.8594.2305.3652.3462.7646.3462,1.1982h-1.0366c0-.4746-.1504-.8477-.4512-1.1191s-.7251-.4062-1.2729-.4062c-.5083,0-.9048.1113-1.1899.3359-.2842.2246-.4268.5352-.4268.9336,0,.3193.1353.5889.4053.8096.2705.2207.7305.4229,1.3809.6055.6494.1826,1.1582.3848,1.5254.6045.3667.2207.6387.4775.8164.7715.1768.293.2656.6387.2656,1.0361,0,.6338-.2471,1.1416-.7412,1.5225-.4941.3818-1.1548.5723-1.9819.5723-.5371,0-1.0386-.1025-1.5039-.3086s-.8247-.4883-1.0767-.8457c-.2529-.3584-.3789-.7646-.3789-1.2197h1.0366c0,.4727.1743.8457.5239,1.1201.3486.2734.8154.4102,1.3989.4102.5444,0,.9614-.1104,1.2515-.332.29-.2227.4351-.5254.4351-.9082s-.1343-.6797-.4028-.8887c-.2686-.21-.7554-.416-1.4609-.6211Z"/>
    <path class="cls-26" d="m302.8872,37.5371h3.7061v.8438h-4.7427v-7.8203h1.0366v6.9766Z"/>
    <path class="cls-26" d="m312.9849,30.5605v5.3174c-.0034.7373-.2354,1.3408-.6953,1.8096-.4604.4697-1.0845.7324-1.8721.79l-.2739.0107c-.856,0-1.5381-.2305-2.0464-.6934-.5083-.4609-.7661-1.0967-.7734-1.9062v-5.3281h1.0205v5.2959c0,.5654.1558,1.0049.4673,1.3184s.7554.4697,1.332.4697c.5835,0,1.0303-.1553,1.3403-.4668.3096-.3115.4644-.75.4644-1.3164v-5.3008h1.0366Z"/>
    <path class="cls-26" d="m320.6226,38.3809h-1.0366l-3.937-6.0264v6.0264h-1.0366v-7.8203h1.0366l3.9478,6.0527v-6.0527h1.0259v7.8203Z"/>
    <path class="cls-26" d="m326.8745,34.7656h-3.3892v2.7715h3.937v.8438h-4.9683v-7.8203h4.9146v.8438h-3.8833v2.5186h3.3892v.8428Z"/>
    <path class="cls-26" d="m334.4585,35.8994c-.0967.8271-.4019,1.4658-.916,1.915-.5137.4492-1.1968.6738-2.0488.6738-.9238,0-1.6641-.3311-2.2207-.9941-.5571-.6621-.8354-1.5479-.8354-2.6582v-.752c0-.7266.1299-1.3662.3892-1.918.2598-.5508.6279-.9746,1.104-1.2695.4761-.2959,1.0278-.4434,1.6543-.4434.8306,0,1.4966.2314,1.998.6953s.793,1.1055.8755,1.9258h-1.0366c-.0894-.625-.2837-1.0771-.5825-1.3574-.2993-.2803-.7173-.4199-1.2544-.4199-.6587,0-1.1753.2432-1.5493.7305-.3745.4873-.5615,1.1807-.5615,2.0801v.7588c0,.8486.1772,1.5244.5317,2.0264s.8506.752,1.4878.752c.5728,0,1.0127-.1289,1.3184-.3887.3066-.2598.5098-.7119.6099-1.3564h1.0366Zm-3.0186-6.6982l.8057-.9121h.8594v.0527l-1.3643,1.4727h-.6069l-1.3481-1.4727v-.0527h.8433l.811.9121Z"/>
    <path class="cls-26" d="m341.876,38.3809h-1.0366l-3.937-6.0264v6.0264h-1.0366v-7.8203h1.0366l3.9478,6.0527v-6.0527h1.0259v7.8203Z"/>
    <path class="cls-26" d="m344.7817,28.4014h1.2031l-1.4395,1.5791-.8003-.0029,1.0366-1.5762Zm.0322,9.9795h-1.0312v-7.8203h1.0312v7.8203Z"/>
    <path class="cls-26" d="m350.4536,35.3193v3.0615h-1.0312v-7.8203h2.8843c.856,0,1.5264.2188,2.0117.6553.4849.4365.7275,1.0146.7275,1.7354,0,.7588-.2373,1.3428-.7119,1.7529-.4741.4102-1.1538.6152-2.0381.6152h-1.8423Zm0-.8428h1.853c.5513,0,.9741-.1309,1.2676-.3906s.4404-.6357.4404-1.127c0-.4668-.147-.8398-.4404-1.1191-.2935-.2803-.6963-.4258-1.2085-.4355h-1.9121v3.0723Z"/>
    <path class="cls-26" d="m359.939,36.334h-3.2764l-.7358,2.0469h-1.0635l2.9863-7.8203h.9023l2.9917,7.8203h-1.0581l-.7466-2.0469Zm-2.9648-.8428h2.6587l-1.332-3.6572-1.3267,3.6572Z"/>
    <path class="cls-26" d="m363.8276,35.3193v3.0615h-1.0312v-7.8203h2.8843c.856,0,1.5264.2188,2.0117.6553.4849.4365.7275,1.0146.7275,1.7354,0,.7588-.2373,1.3428-.7119,1.7529-.4741.4102-1.1538.6152-2.0381.6152h-1.8423Zm0-.8428h1.853c.5513,0,.9741-.1309,1.2676-.3906s.4404-.6357.4404-1.127c0-.4668-.147-.8398-.4404-1.1191-.2935-.2803-.6963-.4258-1.2085-.4355h-1.9121v3.0723Z"/>
    <path class="cls-26" d="m372.604,35.2168h-1.8369v3.1641h-1.0366v-7.8203h2.5889c.8809,0,1.5586.2002,2.0332.6016.4741.4014.7114.9844.7114,1.751,0,.4873-.1313.9111-.395,1.2725-.2627.3623-.6289.6328-1.0981.8115l1.8369,3.3193v.0645h-1.1064l-1.6973-3.1641Zm-1.8369-.8428h1.5845c.5122,0,.9194-.1328,1.2217-.3984.3027-.2656.4541-.6201.4541-1.0654,0-.4844-.144-.8555-.4326-1.1133-.2881-.2588-.7041-.3896-1.2485-.3926h-1.5791v2.9697Z"/>
    <path class="cls-26" d="m378.813,34.8945c-.8843-.2539-1.5283-.5664-1.9307-.9365-.4033-.3711-.6045-.8281-.6045-1.3721,0-.6162.2461-1.126.7383-1.5283.4927-.4033,1.1328-.6045,1.9204-.6045.5371,0,1.0161.1035,1.437.3115.4204.208.7461.4941.9775.8594.2305.3652.3462.7646.3462,1.1982h-1.0366c0-.4746-.1504-.8477-.4512-1.1191s-.7251-.4062-1.2729-.4062c-.5083,0-.9048.1113-1.1899.3359-.2842.2246-.4268.5352-.4268.9336,0,.3193.1353.5889.4053.8096.2705.2207.7305.4229,1.3809.6055.6494.1826,1.1582.3848,1.5254.6045.3667.2207.6387.4775.8164.7715.1768.293.2656.6387.2656,1.0361,0,.6338-.2471,1.1416-.7412,1.5225-.4941.3818-1.1548.5723-1.9819.5723-.5371,0-1.0386-.1025-1.5039-.3086s-.8247-.4883-1.0767-.8457c-.2529-.3584-.3789-.7646-.3789-1.2197h1.0366c0,.4727.1743.8457.5239,1.1201.3486.2734.8154.4102,1.3989.4102.5444,0,.9614-.1104,1.2515-.332.29-.2227.4351-.5254.4351-.9082s-.1343-.6797-.4028-.8887c-.2686-.21-.7554-.416-1.4609-.6211Z"/>
    <path class="cls-26" d="m385.022,34.7441l-.9561.9941v2.6426h-1.0312v-7.8203h1.0312v3.8672l3.4751-3.8672h1.2461l-3.0776,3.4531,3.3193,4.3672h-1.2354l-2.7715-3.6367Z"/>
    <path class="cls-26" d="m392.3159,34.4863l2.041-3.9258h1.1709l-2.6963,4.9043v2.916h-1.0312v-2.916l-2.6963-4.9043h1.1816l2.0303,3.9258Z"/>
  </g>
  <g>
    <path class="cls-25" d="m22.7188,183.5762c0,.8359-.1406,1.5654-.4219,2.1885s-.6797,1.0986-1.1953,1.4268-1.1172.4922-1.8047.4922c-.6719,0-1.2676-.165-1.7871-.4951s-.9229-.8008-1.21-1.4121-.4346-1.3193-.4424-2.124v-.6152c0-.8203.1426-1.5449.4277-2.1738s.6885-1.1104,1.21-1.4443,1.1182-.501,1.79-.501c.6836,0,1.2861.165,1.8076.4951s.9229.8086,1.2041,1.4355.4219,1.3564.4219,2.1885v.5391Zm-1.1191-.5508c0-1.0117-.2031-1.7881-.6094-2.3291s-.9746-.8115-1.7051-.8115c-.7109,0-1.2705.2705-1.6787.8115s-.6182,1.292-.6299,2.2529v.627c0,.9805.2061,1.751.6182,2.3115s.9795.8408,1.7021.8408c.7266,0,1.2891-.2646,1.6875-.7939s.6035-1.2881.6152-2.2764v-.6328Z"/>
    <path class="cls-25" d="m29.5918,184.4668c0,.9648-.2207,1.7422-.6621,2.332s-1.0391.8848-1.793.8848c-.7695,0-1.375-.2441-1.8164-.7324v3.0527h-1.084v-8.7773h.9902l.0527.7031c.4414-.5469,1.0547-.8203,1.8398-.8203.7617,0,1.3643.2871,1.8076.8613s.665,1.373.665,2.3965v.0996Zm-1.084-.123c0-.7148-.1523-1.2793-.457-1.6934s-.7227-.6211-1.2539-.6211c-.6562,0-1.1484.291-1.4766.873v3.0293c.3242.5781.8203.8672,1.4883.8672.5195,0,.9326-.2061,1.2393-.6182s.46-1.0244.46-1.8369Z"/>
    <path class="cls-25" d="m32.4395,179.6914v1.5352h1.1836v.8379h-1.1836v3.9365c0,.2539.0527.4453.1582.5723s.2852.1904.5391.1904c.125,0,.2969-.0234.5156-.0703v.874c-.2852.0771-.5625.1162-.832.1162-.4844,0-.8496-.1465-1.0957-.4395s-.3691-.709-.3691-1.248v-3.9316h-1.1543v-.8379h1.1543v-1.5352h1.084Z"/>
    <path class="cls-25" d="m34.8945,179.5449c0-.1758.0537-.3242.1611-.4453s.2666-.1816.4775-.1816.3711.0605.4805.1816.1641.2695.1641.4453-.0547.3223-.1641.4395-.2695.1758-.4805.1758-.3701-.0586-.4775-.1758-.1611-.2637-.1611-.4395Zm1.1719,8.0215h-1.084v-6.3398h1.084v6.3398Z"/>
    <path class="cls-25" d="m38.8203,181.2266l.0293.7031c.4648-.5469,1.0918-.8203,1.8809-.8203.8867,0,1.4902.3398,1.8105,1.0195.2109-.3047.4854-.5508.8232-.7383s.7373-.2812,1.1982-.2812c1.3906,0,2.0977.7363,2.1211,2.209v4.248h-1.084v-4.1836c0-.4531-.1035-.792-.3105-1.0166s-.5547-.3369-1.043-.3369c-.4023,0-.7363.1201-1.002.3604s-.4199.5635-.4629.9697v4.207h-1.0898v-4.1543c0-.9219-.4512-1.3828-1.3535-1.3828-.7109,0-1.1973.3027-1.459.9082v4.6289h-1.084v-6.3398h1.0254Z"/>
    <path class="cls-25" d="m52.2324,187.5664c-.0625-.125-.1133-.3477-.1523-.668-.5039.5234-1.1055.7852-1.8047.7852-.625,0-1.1377-.1768-1.5381-.5303s-.6006-.8018-.6006-1.3447c0-.6602.251-1.1729.7529-1.5381s1.208-.5479,2.1182-.5479h1.0547v-.498c0-.3789-.1133-.6807-.3398-.9053s-.5605-.3369-1.002-.3369c-.3867,0-.7109.0977-.9727.293s-.3926.4316-.3926.709h-1.0898c0-.3164.1123-.6221.3369-.917s.5293-.5283.9141-.7002.8076-.2578,1.2686-.2578c.7305,0,1.3027.1826,1.7168.5479s.6289.8682.6445,1.5088v2.918c0,.582.0742,1.0449.2227,1.3887v.0938h-1.1367Zm-1.7988-.8262c.3398,0,.6621-.0879.9668-.2637s.5254-.4043.6621-.6855v-1.3008h-.8496c-1.3281,0-1.9922.3887-1.9922,1.166,0,.3398.1133.6055.3398.7969s.5176.2871.873.2871Zm1.002-8.1738h1.3125l-1.5703,1.7227-.873-.0029,1.1309-1.7197Z"/>
    <path class="cls-25" d="m56.0234,187.5664h-1.084v-9h1.084v9Z"/>
    <path class="cls-25" d="m58.7832,181.2266l.0352.7969c.4844-.6094,1.1172-.9141,1.8984-.9141,1.3398,0,2.0156.7559,2.0273,2.2676v4.1895h-1.084v-4.1953c-.0039-.457-.1084-.7949-.3135-1.0137s-.5244-.3281-.958-.3281c-.3516,0-.6602.0938-.9258.2812s-.4727.4336-.6211.7383v4.5176h-1.084v-6.3398h1.0254Z"/>
    <path class="cls-25" d="m65.5684,178.5723h1.3125l-1.5703,1.7227-.873-.0029,1.1309-1.7197Zm-.0117,8.9941h-1.0898v-6.3398h1.0898v6.3398Z"/>
    <path class="cls-25" d="m19.6777,198.8848c0-.293-.1104-.5205-.3311-.6826s-.6055-.3018-1.1543-.4189-.9844-.2578-1.3066-.4219-.5605-.3594-.7148-.5859-.2314-.4961-.2314-.8086c0-.5195.2197-.959.6592-1.3184s1.001-.5391,1.6846-.5391c.7188,0,1.3018.1855,1.749.5566s.6709.8457.6709,1.4238h-1.0898c0-.2969-.126-.5527-.3779-.7676s-.5693-.3223-.9521-.3223c-.3945,0-.7031.0859-.9258.2578s-.334.3965-.334.6738c0,.2617.1035.459.3105.5918s.5811.2598,1.1221.3809.9795.2656,1.3154.4336.585.3701.7471.6064.2432.5244.2432.8643c0,.5664-.2266,1.0205-.6797,1.3623s-1.041.5127-1.7637.5127c-.5078,0-.957-.0898-1.3477-.2695s-.6963-.4307-.917-.7529-.3311-.6709-.3311-1.0459h1.084c.0195.3633.165.6514.4365.8643s.6299.3193,1.0752.3193c.4102,0,.7393-.083.9873-.249s.3721-.3877.3721-.665Z"/>
    <path class="cls-25" d="m23.9434,197.6309l-.6797.709v2.2266h-1.084v-9h1.084v5.4434l.5801-.6973,1.9746-2.0859h1.3184l-2.4668,2.6484,2.7539,3.6914h-1.2715l-2.209-2.9355Z"/>
    <path class="cls-25" d="m29.4336,200.5664h-1.084v-9h1.084v9Z"/>
    <path class="cls-25" d="m30.8809,197.3379c0-.6211.1221-1.1797.3662-1.6758s.584-.8789,1.0195-1.1484.9326-.4043,1.4912-.4043c.8633,0,1.5615.2988,2.0947.8965s.7998,1.3926.7998,2.3848v.0762c0,.6172-.1182,1.1709-.3545,1.6611s-.5742.8721-1.0137,1.1455-.9443.4102-1.5146.4102c-.8594,0-1.5557-.2988-2.0889-.8965s-.7998-1.3887-.7998-2.373v-.0762Zm1.0898.1289c0,.7031.1631,1.2676.4893,1.6934s.7627.6387,1.3096.6387c.5508,0,.9883-.2158,1.3125-.6475s.4863-1.0361.4863-1.8135c0-.6953-.165-1.2588-.4951-1.6904s-.7686-.6475-1.3154-.6475c-.5352,0-.9668.2129-1.2949.6387s-.4922,1.0352-.4922,1.8281Z"/>
    <path class="cls-25" d="m39.0371,194.2266l.0352.7969c.4844-.6094,1.1172-.9141,1.8984-.9141,1.3398,0,2.0156.7559,2.0273,2.2676v4.1895h-1.084v-4.1953c-.0039-.457-.1084-.7949-.3135-1.0137s-.5244-.3281-.958-.3281c-.3516,0-.6602.0938-.9258.2812s-.4727.4336-.6211.7383v4.5176h-1.084v-6.3398h1.0254Z"/>
    <path class="cls-25" d="m48.8984,197.2266v3.3398h-1.125v-8.5312h3.1465c.9336,0,1.665.2383,2.1943.7148s.7939,1.1074.7939,1.8926c0,.8281-.2588,1.4658-.7764,1.9131s-1.2588.6709-2.2236.6709h-2.0098Zm0-.9199h2.0215c.6016,0,1.0625-.1416,1.3828-.4258.3203-.2832.4805-.6934.4805-1.2295,0-.5088-.1602-.916-.4805-1.2207-.3203-.3057-.7598-.4639-1.3184-.4756h-2.0859v3.3516Z"/>
    <path class="cls-25" d="m58.168,199.0723l2.4375-7.0371h1.2305l-3.1641,8.5312h-.9961l-3.1582-8.5312h1.2246l2.4258,7.0371Z"/>
    <path class="cls-25" d="m21.3418,210.4668c0,.9648-.2207,1.7422-.6621,2.332s-1.0391.8848-1.793.8848c-.7695,0-1.375-.2441-1.8164-.7324v3.0527h-1.084v-8.7773h.9902l.0527.7031c.4414-.5469,1.0547-.8203,1.8398-.8203.7617,0,1.3643.2871,1.8076.8613s.665,1.373.665,2.3965v.0996Zm-1.084-.123c0-.7148-.1523-1.2793-.457-1.6934s-.7227-.6211-1.2539-.6211c-.6562,0-1.1484.291-1.4766.873v3.0293c.3242.5781.8203.8672,1.4883.8672.5195,0,.9326-.2061,1.2393-.6182s.46-1.0244.46-1.8369Z"/>
    <path class="cls-25" d="m26.6328,213.5664c-.0625-.125-.1133-.3477-.1523-.668-.5039.5234-1.1055.7852-1.8047.7852-.625,0-1.1377-.1768-1.5381-.5303s-.6006-.8018-.6006-1.3447c0-.6602.251-1.1729.7529-1.5381s1.208-.5479,2.1182-.5479h1.0547v-.498c0-.3789-.1133-.6807-.3398-.9053s-.5605-.3369-1.002-.3369c-.3867,0-.7109.0977-.9727.293s-.3926.4316-.3926.709h-1.0898c0-.3164.1123-.6221.3369-.917s.5293-.5283.9141-.7002.8076-.2578,1.2686-.2578c.7305,0,1.3027.1826,1.7168.5479s.6289.8682.6445,1.5088v2.918c0,.582.0742,1.0449.2227,1.3887v.0938h-1.1367Zm-1.7988-.8262c.3398,0,.6621-.0879.9668-.2637s.5254-.4043.6621-.6855v-1.3008h-.8496c-1.3281,0-1.9922.3887-1.9922,1.166,0,.3398.1133.6055.3398.7969s.5176.2871.873.2871Z"/>
    <path class="cls-25" d="m30.2715,207.2266l.0352.7969c.4844-.6094,1.1172-.9141,1.8984-.9141,1.3398,0,2.0156.7559,2.0273,2.2676v4.1895h-1.084v-4.1953c-.0039-.457-.1084-.7949-.3135-1.0137s-.5244-.3281-.958-.3281c-.3516,0-.6602.0938-.9258.2812s-.4727.4336-.6211.7383v4.5176h-1.084v-6.3398h1.0254Z"/>
    <path class="cls-25" d="m38.498,213.6836c-.8594,0-1.5586-.2822-2.0977-.8467s-.8086-1.3193-.8086-2.2646v-.1992c0-.6289.1201-1.1904.3604-1.6846s.5762-.8809,1.0078-1.1602.8994-.4189,1.4033-.4189c.8242,0,1.4648.2715,1.9219.8145s.6855,1.3203.6855,2.332v.4512h-4.2949c.0156.625.1982,1.1299.5479,1.5146s.7939.5771,1.333.5771c.3828,0,.707-.0781.9727-.2344s.498-.3633.6973-.6211l.6621.5156c-.5312.8164-1.3281,1.2246-2.3906,1.2246Zm-.1348-5.6836c-.4375,0-.8047.1592-1.1016.4775s-.4805.7646-.5508,1.3389h3.1758v-.082c-.0312-.5508-.1797-.9775-.4453-1.2803s-.625-.4541-1.0781-.4541Z"/>
    <path class="cls-25" d="m43.4023,213.5664h-1.084v-9h1.084v9Z"/>
    <path class="cls-25" d="m49.0508,212.9395c-.4219.4961-1.041.7441-1.8574.7441-.6758,0-1.1904-.1963-1.5439-.5889s-.5322-.9736-.5361-1.7432v-4.125h1.084v4.0957c0,.9609.3906,1.4414,1.1719,1.4414.8281,0,1.3789-.3086,1.6523-.9258v-4.6113h1.084v6.3398h-1.0312l-.0234-.627Zm-.1523-7.6875c0,.3398-.1211.624-.3633.8525s-.541.3428-.8965.3428c-.3594,0-.6592-.1152-.8994-.3457s-.3604-.5137-.3604-.8496.1201-.623.3604-.8613.54-.3574.8994-.3574.6592.1191.8994.3574.3604.5254.3604.8613Zm-1.9395,0c0,.1836.0654.3418.1963.4746s.292.1992.4834.1992c.1875,0,.3477-.0645.4805-.1934s.1992-.2891.1992-.4805-.0654-.3545-.1963-.4893-.292-.2021-.4834-.2021c-.1953,0-.3574.0684-.4863.2051s-.1934.2988-.1934.4863Z"/>
    <path class="cls-25" d="m56.8145,212.0957l1.5703-4.8691h1.1074l-2.2734,6.3398h-.8262l-2.2969-6.3398h1.1074l1.6113,4.8691Z"/>
    <path class="cls-25" d="m69.9512,210.8594c-.1055.9023-.4385,1.5986-.999,2.0889s-1.3057.7354-2.2354.7354c-1.0078,0-1.8154-.3613-2.4229-1.084s-.9111-1.6895-.9111-2.9004v-.8203c0-.793.1416-1.4902.4248-2.0918s.6846-1.0635,1.2041-1.3857,1.1211-.4834,1.8047-.4834c.9062,0,1.6328.2529,2.1797.7588s.8652,1.2061.9551,2.1006h-1.1309c-.0977-.6816-.3096-1.1758-.6357-1.4814s-.7822-.458-1.3682-.458c-.7188,0-1.2822.2656-1.6904.7979-.4082.5312-.6123,1.2881-.6123,2.2695v.8262c0,.9268.1934,1.6641.5801,2.2109.3867.5479.9277.8213,1.623.8213.625,0,1.1045-.1416,1.4385-.4248s.5557-.7764.665-1.4795h1.1309Zm-3.293-7.3066l.8789-.9961h.9375v.0586l-1.4883,1.6055h-.6621l-1.4707-1.6055v-.0586h.9199l.8848.9961Z"/>
    <path class="cls-25" d="m74.6152,210.1152h-2.0039v3.4512h-1.1309v-8.5312h2.8242c.9609,0,1.7002.2188,2.2178.6562s.7764,1.0742.7764,1.9102c0,.5312-.1436.9941-.4307,1.3887s-.6865.6895-1.1982.8848l2.0039,3.6211v.0703h-1.207l-1.8516-3.4512Zm-2.0039-.9199h1.7285c.5586,0,1.0029-.1445,1.333-.4346.3301-.2891.4951-.6768.4951-1.1621,0-.5283-.1572-.9336-.4717-1.2148-.3145-.2822-.7686-.4248-1.3623-.4287h-1.7227v3.2402Z"/>
  </g>
</svg>