<?xml version="1.0" encoding="UTF-8"?>
<svg id="Layer_1" data-name="Layer 1" xmlns="http://www.w3.org/2000/svg" viewBox="0 0 440 244">
  <defs>
    <style>
      .cls-1 {
        fill: none;
        stroke: #666;
      }

      .cls-1, .cls-2, .cls-3 {
        stroke-miterlimit: 10;
        stroke-width: .75px;
      }

      .cls-2 {
        stroke: gray;
      }

      .cls-2, .cls-3 {
        fill: #fff;
      }

      .cls-3 {
        stroke: #333;
      }

      .cls-4 {
        fill: #f2f2f2;
      }

      .cls-4, .cls-5, .cls-6, .cls-7 {
        stroke-width: 0px;
      }

      .cls-5 {
        fill: #4d4d4d;
      }

      .cls-6 {
        fill: #b3b3b3;
      }

      .cls-7 {
        fill: #666;
      }

      #blades-8 {
        transform-origin: 217.539px 129.6874px;
        animation: blades 16s infinite linear;
      }

      @keyframes blades{
      0%{
          rotate: 0deg
        }
        100%{
          rotate: 360deg
        }
      }
    </style>
  </defs>
  <polygon class="cls-4" points="279.586 196.7405 85.2489 196.7405 154.4287 128.0888 348.7657 128.0888 279.586 196.7405"/>
  <g>
    <line class="cls-1" x1="295.5" y1="161.8897" x2="223.7787" y2="161.8897"/>
    <polygon class="cls-7" points="226.2639 158.8224 226.7755 159.3717 224.0667 161.889 226.7755 164.4071 226.2639 164.9564 222.9654 161.889 226.2639 158.8224"/>
  </g>
  <g>
    <line class="cls-1" x1="405.6839" y1="161.8897" x2="339.5" y2="161.8897"/>
    <polygon class="cls-7" points="403.1988 158.8224 402.6872 159.3717 405.396 161.889 402.6872 164.4071 403.1988 164.9564 406.4973 161.889 403.1988 158.8224"/>
  </g>
  <g>
    <line class="cls-1" x1="176.5159" y1="202.9366" x2="152.3333" y2="227.1193"/>
    <polygon class="cls-7" points="151.9215 223.1931 152.6717 223.2197 152.5363 226.9152 156.2322 226.7803 156.2589 227.5305 151.7576 227.6939 151.9215 223.1931"/>
  </g>
  <g>
    <line class="cls-1" x1="213.1119" y1="166.3406" x2="190.8453" y2="188.6073"/>
    <polygon class="cls-7" points="209.1857 165.9289 209.2124 166.679 212.9079 166.5436 212.7729 170.2396 213.5231 170.2663 213.6866 165.7649 209.1857 165.9289"/>
  </g>
  <g id="wind-turbine">
    <g id="tower">
      <path class="cls-2" d="m23.3958,130.83h-1.3113l-.6549,31.0701c0,.3276.5842.5931,1.3049.5931s1.3049-.2656,1.3049-.5931l-.6436-31.0701Z"/>
      <path class="cls-2" d="m22.7962,127.7478h0c.8466,0,1.5339.6873,1.5339,1.5339v2.0292c0,.443-.3597.8027-.8027.8027h-1.4625c-.443,0-.8027-.3597-.8027-.8027v-2.0292c0-.8466.6873-1.5339,1.5339-1.5339Z"/>
    </g>
    <g id="blades">
      <path class="cls-2" d="m22.4245,129.317v-9.746l.1607-11.0075c.0028-.1891.1107-.3609.2798-.4454h0c.105-.0525.2298.0183.2385.1354l1.1434,15.3983c.0512.6891-.0053,1.3819-.1675,2.0536l-.9116,3.7767-.7433-.1652Z"/>
      <path class="cls-2" d="m23.307,129.4617l8.4735,4.8149,9.491,5.5779c.163.0958.2591.2745.249.4633h0c-.0062.1173-.1295.1907-.2356.1404l-13.9528-6.6133c-.6244-.2959-1.1989-.6874-1.7028-1.1602l-2.8332-2.6585.5109-.5647Z"/>
      <path class="cls-2" d="m22.6532,130.1738l-8.4403,4.873-9.6131,5.3646c-.1651.0921-.3678.0846-.5256-.0196h0c-.098-.0647-.099-.2082-.0019-.2743l12.7636-8.6894c.5712-.3889,1.1995-.6864,1.8622-.8818l3.7265-1.0989.2286.7263Z"/>
    </g>
    <circle id="centre" class="cls-2" cx="22.7997" cy="129.6874" r=".9511"/>
  </g>
  <g>
    <path class="cls-6" d="m306.7397,108.3818c0,.9648-.2207,1.7422-.6621,2.332s-1.0391.8848-1.793.8848c-.7695,0-1.375-.2441-1.8164-.7324v3.0527h-1.084v-8.7773h.9902l.0527.7031c.4414-.5469,1.0547-.8203,1.8398-.8203.7617,0,1.3643.2871,1.8076.8613s.665,1.373.665,2.3965v.0996Zm-1.084-.123c0-.7148-.1523-1.2793-.457-1.6934s-.7227-.6211-1.2539-.6211c-.6562,0-1.1484.291-1.4766.873v3.0293c.3242.5781.8203.8672,1.4883.8672.5195,0,.9326-.2061,1.2393-.6182s.46-1.0244.46-1.8369Z"/>
    <path class="cls-6" d="m309.2944,111.4814h-1.084v-9h1.084v9Z"/>
    <path class="cls-6" d="m310.7417,108.2529c0-.6211.1221-1.1797.3662-1.6758s.584-.8789,1.0195-1.1484.9326-.4043,1.4912-.4043c.8633,0,1.5615.2988,2.0947.8965s.7998,1.3926.7998,2.3848v.0762c0,.6172-.1182,1.1709-.3545,1.6611s-.5742.8721-1.0137,1.1455-.9443.4102-1.5146.4102c-.8594,0-1.5557-.2988-2.0889-.8965s-.7998-1.3887-.7998-2.373v-.0762Zm1.0898.1289c0,.7031.1631,1.2676.4893,1.6934s.7627.6387,1.3096.6387c.5508,0,.9883-.2158,1.3125-.6475s.4863-1.0361.4863-1.8135c0-.6953-.165-1.2588-.4951-1.6904s-.7686-.6475-1.3154-.6475c-.5352,0-.9668.2129-1.2949.6387s-.4922,1.0352-.4922,1.8281Z"/>
    <path class="cls-6" d="m320.4155,110.7139c.3867,0,.7246-.1172,1.0137-.3516s.4492-.5273.4805-.8789h1.0254c-.0195.3633-.1445.709-.375,1.0371s-.5381.5898-.9229.7852-.792.293-1.2217.293c-.8633,0-1.5498-.2881-2.0596-.8643s-.7646-1.3643-.7646-2.3643v-.1816c0-.6172.1133-1.166.3398-1.6465s.5518-.8535.9756-1.1191.9248-.3984,1.5029-.3984c.7109,0,1.3018.2129,1.7725.6387s.7217.9785.7529,1.6582h-1.0254c-.0312-.4102-.1865-.7471-.4658-1.0107s-.624-.3955-1.0342-.3955c-.5508,0-.9775.1982-1.2803.5947s-.4541.9697-.4541,1.7197v.2051c0,.7305.1504,1.293.4512,1.6875s.7305.5918,1.2891.5918Z"/>
    <path class="cls-6" d="m325.2378,105.9092c.4805-.5898,1.1055-.8848,1.875-.8848,1.3398,0,2.0156.7559,2.0273,2.2676v4.1895h-1.084v-4.1953c-.0039-.457-.1084-.7949-.3135-1.0137s-.5244-.3281-.958-.3281c-.3516,0-.6602.0938-.9258.2812s-.4727.4336-.6211.7383v4.5176h-1.084v-9h1.084v3.4277Z"/>
    <path class="cls-6" d="m334.6772,111.4814c-.0625-.125-.1133-.3477-.1523-.668-.5039.5234-1.1055.7852-1.8047.7852-.625,0-1.1377-.1768-1.5381-.5303s-.6006-.8018-.6006-1.3447c0-.6602.251-1.1729.7529-1.5381s1.208-.5479,2.1182-.5479h1.0547v-.498c0-.3789-.1133-.6807-.3398-.9053s-.5605-.3369-1.002-.3369c-.3867,0-.7109.0977-.9727.293s-.3926.4316-.3926.709h-1.0898c0-.3164.1123-.6221.3369-.917s.5293-.5283.9141-.7002.8076-.2578,1.2686-.2578c.7305,0,1.3027.1826,1.7168.5479s.6289.8682.6445,1.5088v2.918c0,.582.0742,1.0449.2227,1.3887v.0938h-1.1367Zm-1.7988-.8262c.3398,0,.6621-.0879.9668-.2637s.5254-.4043.6621-.6855v-1.3008h-.8496c-1.3281,0-1.9922.3887-1.9922,1.166,0,.3398.1133.6055.3398.7969s.5176.2871.873.2871Z"/>
    <path class="cls-6" d="m340.6479,107.2041l.4336-4.2539h4.3711v1.002h-3.4512l-.2578,2.3262c.418-.2461.8926-.3691,1.4238-.3691.7773,0,1.3945.2568,1.8516.7705s.6855,1.208.6855,2.083c0,.8789-.2373,1.5713-.7119,2.0771s-1.1377.7588-1.9893.7588c-.7539,0-1.3691-.209-1.8457-.627s-.748-.9961-.8145-1.7344h1.0254c.0664.4883.2402.8564.5215,1.1045s.6523.3721,1.1133.3721c.5039,0,.8994-.1719,1.1865-.5156s.4307-.8184.4307-1.4238c0-.5703-.1553-1.0283-.4658-1.374s-.7236-.5186-1.2393-.5186c-.4727,0-.8438.1035-1.1133.3105l-.2871.2344-.8672-.2227Z"/>
    <path class="cls-6" d="m350.4507,111.4814h-1.0898v-7.2246l-2.1855.8027v-.9844l3.1055-1.166h.1699v8.5723Z"/>
    <path class="cls-6" d="m353.7026,113.1807l-.6152-.4219c.3672-.5117.5586-1.0391.5742-1.582v-.9785h1.0605v.8496c0,.3945-.0967.7891-.29,1.1836s-.4365.7109-.7295.9492Z"/>
    <path class="cls-6" d="m361.1558,105.1768c0,.4258-.1123.8047-.3369,1.1367s-.5283.5918-.9111.7793c.4453.1914.7979.4707,1.0576.8379s.3896.7832.3896,1.248c0,.7383-.249,1.3262-.7471,1.7637s-1.1533.6562-1.9658.6562c-.8203,0-1.4775-.2197-1.9717-.6592s-.7412-1.0264-.7412-1.7607c0-.4609.126-.877.3779-1.248s.6006-.6523,1.0459-.8438c-.3789-.1875-.6777-.4473-.8965-.7793s-.3281-.709-.3281-1.1309c0-.7188.2305-1.2891.6914-1.7109s1.0684-.6328,1.8223-.6328c.75,0,1.3564.2109,1.8193.6328s.6943.9922.6943,1.7109Zm-.8848,3.9785c0-.4766-.1514-.8652-.4541-1.166s-.6982-.4512-1.1865-.4512-.8799.1484-1.1748.4453-.4424.6875-.4424,1.1719.1436.8652.4307,1.1426.6865.416,1.1982.416c.5078,0,.9062-.1396,1.1953-.4189s.4336-.6592.4336-1.1396Zm-1.6289-5.4316c-.4258,0-.7705.1318-1.0342.3955s-.3955.6221-.3955,1.0752c0,.4336.1299.7842.3896,1.0518s.6064.4014,1.04.4014.7803-.1338,1.04-.4014.3896-.6182.3896-1.0518-.1348-.7871-.4043-1.0605-.6113-.4102-1.0254-.4102Z"/>
    <path class="cls-6" d="m366.8862,105.9092c.4805-.5898,1.1055-.8848,1.875-.8848,1.3398,0,2.0156.7559,2.0273,2.2676v4.1895h-1.084v-4.1953c-.0039-.457-.1084-.7949-.3135-1.0137s-.5244-.3281-.958-.3281c-.3516,0-.6602.0938-.9258.2812s-.4727.4336-.6211.7383v4.5176h-1.084v-9h1.084v3.4277Z"/>
    <path class="cls-6" d="m376.3257,111.4814c-.0625-.125-.1133-.3477-.1523-.668-.5039.5234-1.1055.7852-1.8047.7852-.625,0-1.1377-.1768-1.5381-.5303s-.6006-.8018-.6006-1.3447c0-.6602.251-1.1729.7529-1.5381s1.208-.5479,2.1182-.5479h1.0547v-.498c0-.3789-.1133-.6807-.3398-.9053s-.5605-.3369-1.002-.3369c-.3867,0-.7109.0977-.9727.293s-.3926.4316-.3926.709h-1.0898c0-.3164.1123-.6221.3369-.917s.5293-.5283.9141-.7002.8076-.2578,1.2686-.2578c.7305,0,1.3027.1826,1.7168.5479s.6289.8682.6445,1.5088v2.918c0,.582.0742,1.0449.2227,1.3887v.0938h-1.1367Zm-1.7988-.8262c.3398,0,.6621-.0879.9668-.2637s.5254-.4043.6621-.6855v-1.3008h-.8496c-1.3281,0-1.9922.3887-1.9922,1.166,0,.3398.1133.6055.3398.7969s.5176.2871.873.2871Z"/>
  </g>
  <g>
    <path class="cls-7" d="m118.9648,94.6094c0-.7432-.0239-1.3428-.0479-1.8945h.9473l.0479.9951h.0244c.4316-.707,1.1152-1.127,2.0625-1.127,1.4033,0,2.459,1.1875,2.459,2.9502,0,2.0869-1.2715,3.1182-2.6387,3.1182-.7676,0-1.4395-.3359-1.7871-.9111h-.0239v3.1543h-1.0435v-6.2852Zm1.0435,1.5479c0,.1553.0239.2998.0479.4316.1919.7314.8276,1.2354,1.5835,1.2354,1.1152,0,1.7627-.9121,1.7627-2.2432,0-1.1631-.6113-2.1592-1.7271-2.1592-.7197,0-1.3911.5166-1.5952,1.3076-.0356.1318-.0718.2881-.0718.4316v.9961Z"/>
    <path class="cls-7" d="m125.7925,94.5254c0-.6836-.0122-1.2705-.0479-1.8105h.9233l.0361,1.1396h.0479c.2637-.7803.8994-1.2715,1.6069-1.2715.1201,0,.2041.0117.3003.0361v.9951c-.1084-.0244-.2163-.0361-.3599-.0361-.7437,0-1.2715.5635-1.4155,1.3555-.0239.1436-.0479.3115-.0479.4912v3.0947h-1.0435v-3.9941Z"/>
    <path class="cls-7" d="m134.5737,96.9365c0,.5996.0117,1.127.0479,1.583h-.9355l-.0601-.9473h-.0239c-.2759.4678-.8872,1.0791-1.9189,1.0791-.9111,0-2.0029-.5039-2.0029-2.543v-3.3936h1.0557v3.2139c0,1.1035.3359,1.8477,1.2954,1.8477.7075,0,1.1992-.4922,1.3911-.96.0601-.1562.0957-.3477.0957-.54v-3.5615h1.0557v4.2217Zm-3.6343-5.9492c0-.6357.4678-1.1387,1.2236-1.1387.7075,0,1.1875.4912,1.1875,1.127s-.5278,1.1035-1.1997,1.1035c-.7192,0-1.2114-.4795-1.2114-1.0918Zm1.8232-.0234c0-.3604-.2397-.6602-.6357-.6602-.3599,0-.5874.3125-.5874.6836,0,.3125.2515.6484.5996.6484.3838,0,.6235-.3125.6235-.6719Z"/>
    <path class="cls-7" d="m136.3281,94.2861c0-.5996-.0117-1.0918-.0479-1.5713h.9233l.0479.9355h.0361c.3237-.5518.8638-1.0674,1.8232-1.0674.7915,0,1.3911.4795,1.6431,1.1631h.0239c.1797-.3242.4077-.5752.6475-.7559.3477-.2637.7314-.4072,1.2832-.4072.7676,0,1.9072.5039,1.9072,2.5186v3.418h-1.0317v-3.2861c0-1.1152-.4077-1.7871-1.2593-1.7871-.5996,0-1.0674.4434-1.2471.96-.0479.1436-.084.335-.084.5273v3.5859h-1.0317v-3.4785c0-.9229-.4077-1.5947-1.2109-1.5947-.6597,0-1.1396.5273-1.3076,1.0557-.0596.1553-.084.3359-.084.5156v3.502h-1.0312v-4.2334Z"/>
    <path class="cls-7" d="m146.9238,95.8086c.0239,1.4277.9355,2.0156,1.9907,2.0156.7554,0,1.2114-.1318,1.6069-.2998l.1802.7549c-.3721.168-1.0073.3604-1.9312.3604-1.7871,0-2.8545-1.1758-2.8545-2.9268s1.0317-3.1299,2.7227-3.1299c1.895,0,2.3989,1.667,2.3989,2.7344,0,.2158-.0244.3838-.0361.4912h-4.0776Zm3.0942-.7549c.0117-.6719-.2759-1.7158-1.4634-1.7158-1.0674,0-1.5352.9844-1.6191,1.7158h3.0825Zm-1.895-3.1309l-1.1514-1.7148h.8037l.7075,1.1396h.0239l.7197-1.1396h.7793l-1.1274,1.7148h-.7554Z"/>
    <path class="cls-7" d="m152.3477,94.5254c0-.6836-.0117-1.2705-.0479-1.8105h.9233l.0361,1.1396h.0479c.2637-.7803.8994-1.2715,1.6069-1.2715.1201,0,.2041.0117.2998.0361v.9951c-.1079-.0244-.2158-.0361-.3594-.0361-.7437,0-1.2715.5635-1.4155,1.3555-.0239.1436-.0479.3115-.0479.4912v3.0947h-1.0435v-3.9941Z"/>
    <path class="cls-7" d="m158.8154,94.5254c0-.6836-.0117-1.2705-.0479-1.8105h.9233l.0361,1.1396h.0479c.2637-.7803.8994-1.2715,1.6069-1.2715.1201,0,.2041.0117.2998.0361v.9951c-.1079-.0244-.2158-.0361-.3594-.0361-.7437,0-1.2715.5635-1.4155,1.3555-.0239.1436-.0479.3115-.0479.4912v3.0947h-1.0435v-3.9941Z"/>
    <path class="cls-7" d="m167.8721,95.5693c0,2.1465-1.4868,3.082-2.8901,3.082-1.5713,0-2.7827-1.1514-2.7827-2.9863,0-1.9424,1.2715-3.082,2.8784-3.082,1.6675,0,2.7944,1.2109,2.7944,2.9863Zm-4.6055.0596c0,1.2715.7319,2.2314,1.7632,2.2314,1.0073,0,1.7632-.9482,1.7632-2.2549,0-.9834-.4917-2.2314-1.7393-2.2314s-1.7871,1.1514-1.7871,2.2549Z"/>
    <path class="cls-7" d="m170.4785,91.0479v1.667h1.5112v.8037h-1.5112v3.1299c0,.7197.2036,1.1279.7915,1.1279.2759,0,.4795-.0361.6118-.0723l.0479.791c-.2041.084-.5278.1445-.9355.1445-.4917,0-.8877-.1562-1.1396-.4443-.2998-.3115-.4077-.8271-.4077-1.5107v-3.166h-.8994v-.8037h.8994v-1.3916l1.0317-.2754Z"/>
    <path class="cls-7" d="m178.3604,95.5693c0,2.1465-1.4868,3.082-2.8901,3.082-1.5713,0-2.7827-1.1514-2.7827-2.9863,0-1.9424,1.2715-3.082,2.8784-3.082,1.6675,0,2.7944,1.2109,2.7944,2.9863Zm-4.6055.0596c0,1.2715.7319,2.2314,1.7632,2.2314,1.0073,0,1.7632-.9482,1.7632-2.2549,0-.9834-.4917-2.2314-1.7393-2.2314s-1.7871,1.1514-1.7871,2.2549Z"/>
    <path class="cls-7" d="m179.6953,94.5254c0-.6836-.0117-1.2705-.0479-1.8105h.9233l.0361,1.1396h.0479c.2637-.7803.8994-1.2715,1.6069-1.2715.1201,0,.2041.0117.2998.0361v.9951c-.1079-.0244-.2158-.0361-.3594-.0361-.7437,0-1.2715.5635-1.4155,1.3555-.0239.1436-.0479.3115-.0479.4912v3.0947h-1.0435v-3.9941Z"/>
    <path class="cls-7" d="m188.4766,96.9365c0,.5996.0117,1.127.0479,1.583h-.9355l-.0601-.9473h-.0239c-.2759.4678-.8872,1.0791-1.9189,1.0791-.9111,0-2.0029-.5039-2.0029-2.543v-3.3936h1.0557v3.2139c0,1.1035.3359,1.8477,1.2954,1.8477.7075,0,1.1992-.4922,1.3911-.96.0601-.1562.0957-.3477.0957-.54v-3.5615h1.0557v4.2217Z"/>
    <path class="cls-7" d="m159.9248,111.5195h-1.0898v-7.2246l-2.1855.8027v-.9844l3.1055-1.166h.1699v8.5723Z"/>
    <path class="cls-7" d="m167.3545,102.9824v.9199h-.1992c-.8438.0156-1.5156.2656-2.0156.75s-.7891,1.166-.8672,2.0449c.4492-.5156,1.0625-.7734,1.8398-.7734.7422,0,1.335.2617,1.7783.7852s.665,1.1992.665,2.0273c0,.8789-.2393,1.582-.7178,2.1094s-1.1201.791-1.9248.791c-.8164,0-1.4785-.3135-1.9863-.9404s-.7617-1.4346-.7617-2.4229v-.416c0-1.5703.335-2.7705,1.0049-3.6006s1.667-1.2549,2.9912-1.2744h.1934Zm-1.4238,3.8438c-.3711,0-.7129.1113-1.0254.334s-.5293.502-.6504.8379v.3984c0,.7031.1582,1.2695.4746,1.6992s.7109.6445,1.1836.6445c.4883,0,.8721-.1797,1.1514-.5391s.4189-.8301.4189-1.4121c0-.5859-.1416-1.0596-.4248-1.4209s-.6592-.542-1.1279-.542Z"/>
    <path class="cls-7" d="m175.1885,107.8809c0,1.2695-.2168,2.2129-.6504,2.8301s-1.1113.9258-2.0332.9258c-.9102,0-1.584-.3018-2.0215-.9053s-.6641-1.5049-.6797-2.7041v-1.4473c0-1.2539.2168-2.1855.6504-2.7949s1.1133-.9141,2.0391-.9141c.918,0,1.5938.2939,2.0273.8818s.6562,1.4951.668,2.7217v1.4062Zm-1.084-1.4824c0-.918-.1289-1.5869-.3867-2.0068s-.666-.6299-1.2246-.6299c-.5547,0-.959.209-1.2129.627s-.3848,1.0605-.3926,1.9277v1.7344c0,.9219.1338,1.6025.4014,2.042s.6729.6592,1.2158.6592c.5352,0,.9326-.207,1.1924-.6211s.3955-1.0664.4072-1.957v-1.7754Z"/>
    <path class="cls-7" d="m180.6787,105.1797l.0293.7031c.4648-.5469,1.0918-.8203,1.8809-.8203.8867,0,1.4902.3398,1.8105,1.0195.2109-.3047.4854-.5508.8232-.7383s.7373-.2812,1.1982-.2812c1.3906,0,2.0977.7363,2.1211,2.209v4.248h-1.084v-4.1836c0-.4531-.1035-.792-.3105-1.0166s-.5547-.3369-1.043-.3369c-.4023,0-.7363.1201-1.002.3604s-.4199.5635-.4629.9697v4.207h-1.0898v-4.1543c0-.9219-.4512-1.3828-1.3535-1.3828-.7109,0-1.1973.3027-1.459.9082v4.6289h-1.084v-6.3398h1.0254Z"/>
  </g>
  <g>
    <path class="cls-5" d="m23.3057,11.1475l2.7891,6.9609,2.7891-6.9609h1.459v8.5312h-1.125v-3.3223l.1055-3.5859-2.8008,6.9082h-.8613l-2.7949-6.8906.1113,3.5684v3.3223h-1.125v-8.5312h1.4531Z"/>
    <path class="cls-5" d="m36.0732,19.6787c-.0625-.125-.1133-.3477-.1523-.668-.5039.5234-1.1055.7852-1.8047.7852-.625,0-1.1377-.1768-1.5381-.5303s-.6006-.8018-.6006-1.3447c0-.6602.251-1.1729.7529-1.5381s1.208-.5479,2.1182-.5479h1.0547v-.498c0-.3789-.1133-.6807-.3398-.9053s-.5605-.3369-1.002-.3369c-.3867,0-.7109.0977-.9727.293s-.3926.4316-.3926.709h-1.0898c0-.3164.1123-.6221.3369-.917s.5293-.5283.9141-.7002.8076-.2578,1.2686-.2578c.7305,0,1.3027.1826,1.7168.5479s.6289.8682.6445,1.5088v2.918c0,.582.0742,1.0449.2227,1.3887v.0938h-1.1367Zm-1.7988-.8262c.3398,0,.6621-.0879.9668-.2637s.5254-.4043.6621-.6855v-1.3008h-.8496c-1.3281,0-1.9922.3887-1.9922,1.166,0,.3398.1133.6055.3398.7969s.5176.2871.873.2871Z"/>
    <path class="cls-5" d="m40.8135,15.6533l1.4062-2.3145h1.2656l-2.0742,3.1348,2.1387,3.2051h-1.2539l-1.4648-2.373-1.4648,2.373h-1.2598l2.1387-3.2051-2.0742-3.1348h1.2539l1.3887,2.3145Z"/>
    <path class="cls-5" d="m44.6396,11.6572c0-.1758.0537-.3242.1611-.4453s.2666-.1816.4775-.1816.3711.0605.4805.1816.1641.2695.1641.4453-.0547.3223-.1641.4395-.2695.1758-.4805.1758-.3701-.0586-.4775-.1758-.1611-.2637-.1611-.4395Zm1.1719,8.0215h-1.084v-6.3398h1.084v6.3398Z"/>
    <path class="cls-5" d="m48.5654,13.3389l.0293.7031c.4648-.5469,1.0918-.8203,1.8809-.8203.8867,0,1.4902.3398,1.8105,1.0195.2109-.3047.4854-.5508.8232-.7383s.7373-.2812,1.1982-.2812c1.3906,0,2.0977.7363,2.1211,2.209v4.248h-1.084v-4.1836c0-.4531-.1035-.792-.3105-1.0166s-.5547-.3369-1.043-.3369c-.4023,0-.7363.1201-1.002.3604s-.4199.5635-.4629.9697v4.207h-1.0898v-4.1543c0-.9219-.4512-1.3828-1.3535-1.3828-.7109,0-1.1973.3027-1.459.9082v4.6289h-1.084v-6.3398h1.0254Z"/>
    <path class="cls-5" d="m61.9775,19.6787c-.0625-.125-.1133-.3477-.1523-.668-.5039.5234-1.1055.7852-1.8047.7852-.625,0-1.1377-.1768-1.5381-.5303s-.6006-.8018-.6006-1.3447c0-.6602.251-1.1729.7529-1.5381s1.208-.5479,2.1182-.5479h1.0547v-.498c0-.3789-.1133-.6807-.3398-.9053s-.5605-.3369-1.002-.3369c-.3867,0-.7109.0977-.9727.293s-.3926.4316-.3926.709h-1.0898c0-.3164.1123-.6221.3369-.917s.5293-.5283.9141-.7002.8076-.2578,1.2686-.2578c.7305,0,1.3027.1826,1.7168.5479s.6289.8682.6445,1.5088v2.918c0,.582.0742,1.0449.2227,1.3887v.0938h-1.1367Zm-1.7988-.8262c.3398,0,.6621-.0879.9668-.2637s.5254-.4043.6621-.6855v-1.3008h-.8496c-1.3281,0-1.9922.3887-1.9922,1.166,0,.3398.1133.6055.3398.7969s.5176.2871.873.2871Zm1.002-8.1738h1.3125l-1.5703,1.7227-.873-.0029,1.1309-1.7197Z"/>
    <path class="cls-5" d="m65.7686,19.6787h-1.084v-9h1.084v9Z"/>
    <path class="cls-5" d="m68.5283,13.3389l.0352.7969c.4844-.6094,1.1172-.9141,1.8984-.9141,1.3398,0,2.0156.7559,2.0273,2.2676v4.1895h-1.084v-4.1953c-.0039-.457-.1084-.7949-.3135-1.0137s-.5244-.3281-.958-.3281c-.3516,0-.6602.0938-.9258.2812s-.4727.4336-.6211.7383v4.5176h-1.084v-6.3398h1.0254Z"/>
    <path class="cls-5" d="m75.3135,10.6846h1.3125l-1.5703,1.7227-.873-.0029,1.1309-1.7197Zm-.0117,8.9941h-1.0898v-6.3398h1.0898v6.3398Z"/>
    <path class="cls-5" d="m82.1514,18.208l1.5703-4.8691h1.1074l-2.2734,6.3398h-.8262l-2.2969-6.3398h1.1074l1.6113,4.8691Z"/>
    <path class="cls-5" d="m87.9463,18.0908l1.4766-4.752h1.1602l-2.5488,7.3184c-.3945,1.0547-1.0215,1.582-1.8809,1.582l-.2051-.0176-.4043-.0762v-.8789l.293.0234c.3672,0,.6533-.0742.8584-.2227s.374-.4199.5068-.8145l.2402-.6445-2.2617-6.2695h1.1836l1.582,4.752Zm.6152-7.4121h1.3125l-1.5703,1.7227-.873-.0029,1.1309-1.7197Z"/>
    <path class="cls-5" d="m93.3193,16.7432l-.6797.709v2.2266h-1.084v-9h1.084v5.4434l.5801-.6973,1.9746-2.0859h1.3184l-2.4668,2.6484,2.7539,3.6914h-1.2715l-2.209-2.9355Z"/>
    <path class="cls-5" d="m97.3447,16.4502c0-.6211.1221-1.1797.3662-1.6758s.584-.8789,1.0195-1.1484.9326-.4043,1.4912-.4043c.8633,0,1.5615.2988,2.0947.8965s.7998,1.3926.7998,2.3848v.0762c0,.6172-.1182,1.1709-.3545,1.6611s-.5742.8721-1.0137,1.1455-.9443.4102-1.5146.4102c-.8594,0-1.5557-.2988-2.0889-.8965s-.7998-1.3887-.7998-2.373v-.0762Zm1.0898.1289c0,.7031.1631,1.2676.4893,1.6934s.7627.6387,1.3096.6387c.5508,0,.9883-.2158,1.3125-.6475s.4863-1.0361.4863-1.8135c0-.6953-.165-1.2588-.4951-1.6904s-.7686-.6475-1.3154-.6475c-.5352,0-.9668.2129-1.2949.6387s-.4922,1.0352-.4922,1.8281Z"/>
    <path class="cls-5" d="m105.501,13.3389l.0352.7969c.4844-.6094,1.1172-.9141,1.8984-.9141,1.3398,0,2.0156.7559,2.0273,2.2676v4.1895h-1.084v-4.1953c-.0039-.457-.1084-.7949-.3135-1.0137s-.5244-.3281-.958-.3281c-.3516,0-.6602.0938-.9258.2812s-.4727.4336-.6211.7383v4.5176h-1.084v-6.3398h1.0254Z"/>
    <path class="cls-5" d="m115.1865,13.3389v7.0723c0,1.2188-.5527,1.8281-1.6582,1.8281-.2383,0-.459-.0352-.6621-.1045v-.8623c.125.0312.2891.0469.4922.0469.2422,0,.4268-.0654.5537-.1963s.1904-.3584.1904-.6836v-7.1006h1.084Zm-1.1953-1.6816c0-.1719.0537-.3193.1611-.4424s.2646-.1846.4717-.1846c.2109,0,.3711.0605.4805.1816s.1641.2695.1641.4453-.0547.3223-.1641.4395-.2695.1758-.4805.1758-.3691-.0586-.4746-.1758-.1582-.2637-.1582-.4395Z"/>
    <path class="cls-5" d="m119.5635,19.7959c-.8594,0-1.5586-.2822-2.0977-.8467s-.8086-1.3193-.8086-2.2646v-.1992c0-.6289.1201-1.1904.3604-1.6846s.5762-.8809,1.0078-1.1602.8994-.4189,1.4033-.4189c.8242,0,1.4648.2715,1.9219.8145s.6855,1.3203.6855,2.332v.4512h-4.2949c.0156.625.1982,1.1299.5479,1.5146s.7939.5771,1.333.5771c.3828,0,.707-.0781.9727-.2344s.498-.3633.6973-.6211l.6621.5156c-.5312.8164-1.3281,1.2246-2.3906,1.2246Zm-.1348-5.6836c-.4375,0-.8047.1592-1.1016.4775s-.4805.7646-.5508,1.3389h3.1758v-.082c-.0312-.5508-.1797-.9775-.4453-1.2803s-.625-.4541-1.0781-.4541Z"/>
    <path class="cls-5" d="m123.0264,16.4561c0-.9727.2305-1.7549.6914-2.3467s1.0645-.8877,1.8105-.8877c.7422,0,1.3301.2539,1.7637.7617v-3.3047h1.084v9h-.9961l-.0527-.6797c-.4336.5312-1.0371.7969-1.8105.7969-.7344,0-1.333-.3008-1.7959-.9023s-.6943-1.3867-.6943-2.3555v-.082Zm1.084.123c0,.7188.1484,1.2812.4453,1.6875s.707.6094,1.2305.6094c.6875,0,1.1895-.3086,1.5059-.9258v-2.9121c-.3242-.5977-.8223-.8965-1.4941-.8965-.5312,0-.9453.2051-1.2422.6152s-.4453,1.0176-.4453,1.8223Z"/>
    <path class="cls-5" d="m131.083,13.3389l.0352.7969c.4844-.6094,1.1172-.9141,1.8984-.9141,1.3398,0,2.0156.7559,2.0273,2.2676v4.1895h-1.084v-4.1953c-.0039-.457-.1084-.7949-.3135-1.0137s-.5244-.3281-.958-.3281c-.3516,0-.6602.0938-.9258.2812s-.4727.4336-.6211.7383v4.5176h-1.084v-6.3398h1.0254Z"/>
    <path class="cls-5" d="m139.3096,19.7959c-.8594,0-1.5586-.2822-2.0977-.8467s-.8086-1.3193-.8086-2.2646v-.1992c0-.6289.1201-1.1904.3604-1.6846s.5762-.8809,1.0078-1.1602.8994-.4189,1.4033-.4189c.8242,0,1.4648.2715,1.9219.8145s.6855,1.3203.6855,2.332v.4512h-4.2949c.0156.625.1982,1.1299.5479,1.5146s.7939.5771,1.333.5771c.3828,0,.707-.0781.9727-.2344s.498-.3633.6973-.6211l.6621.5156c-.5312.8164-1.3281,1.2246-2.3906,1.2246Zm-.1348-5.6836c-.4375,0-.8047.1592-1.1016.4775s-.4805.7646-.5508,1.3389h3.1758v-.082c-.0312-.5508-.1797-.9775-.4453-1.2803s-.625-.4541-1.0781-.4541Zm.5273-3.4336h1.3125l-1.5703,1.7227-.873-.0029,1.1309-1.7197Z"/>
    <path class="cls-5" d="m147.4775,11.8037v1.5352h1.1836v.8379h-1.1836v3.9365c0,.2539.0527.4453.1582.5723s.2852.1904.5391.1904c.125,0,.2969-.0234.5156-.0703v.874c-.2852.0771-.5625.1162-.832.1162-.4844,0-.8496-.1465-1.0957-.4395s-.3691-.709-.3691-1.248v-3.9316h-1.1543v-.8379h1.1543v-1.5352h1.084Z"/>
    <path class="cls-5" d="m153.8408,19.0518c-.4219.4961-1.041.7441-1.8574.7441-.6758,0-1.1904-.1963-1.5439-.5889s-.5322-.9736-.5361-1.7432v-4.125h1.084v4.0957c0,.9609.3906,1.4414,1.1719,1.4414.8281,0,1.3789-.3086,1.6523-.9258v-4.6113h1.084v6.3398h-1.0312l-.0234-.627Z"/>
    <path class="cls-5" d="m159.6064,14.3115c-.1641-.0273-.3418-.041-.5332-.041-.7109,0-1.1934.3027-1.4473.9082v4.5h-1.084v-6.3398h1.0547l.0176.7324c.3555-.5664.8594-.8496,1.5117-.8496.2109,0,.3711.0273.4805.082v1.0078Z"/>
    <path class="cls-5" d="m165.9697,16.5791c0,.9688-.2227,1.7471-.668,2.335s-1.043.8818-1.793.8818c-.8008,0-1.4199-.2832-1.8574-.8496l-.0527.7324h-.9961v-9h1.084v3.3574c.4375-.543,1.041-.8145,1.8105-.8145s1.374.291,1.8135.873.6592,1.3789.6592,2.3906v.0938Zm-1.084-.123c0-.7383-.1426-1.3086-.4277-1.7109s-.6953-.6035-1.2305-.6035c-.7148,0-1.2285.332-1.541.9961v2.7422c.332.6641.8496.9961,1.5527.9961.5195,0,.9238-.2012,1.2129-.6035s.4336-1.0078.4336-1.8164Z"/>
    <path class="cls-5" d="m168.5244,10.6846h1.3125l-1.5703,1.7227-.873-.0029,1.1309-1.7197Zm-.0117,8.9941h-1.0898v-6.3398h1.0898v6.3398Z"/>
    <path class="cls-5" d="m171.3252,13.3389l.0352.7969c.4844-.6094,1.1172-.9141,1.8984-.9141,1.3398,0,2.0156.7559,2.0273,2.2676v4.1895h-1.084v-4.1953c-.0039-.457-.1084-.7949-.3135-1.0137s-.5244-.3281-.958-.3281c-.3516,0-.6602.0938-.9258.2812s-.4727.4336-.6211.7383v4.5176h-1.084v-6.3398h1.0254Z"/>
    <path class="cls-5" d="m178.9951,18.0908l1.4766-4.752h1.1602l-2.5488,7.3184c-.3945,1.0547-1.0215,1.582-1.8809,1.582l-.2051-.0176-.4043-.0762v-.8789l.293.0234c.3672,0,.6533-.0742.8584-.2227s.374-.4199.5068-.8145l.2402-.6445-2.2617-6.2695h1.1836l1.582,4.752Z"/>
    <path class="cls-5" d="m186.6885,13.3389v7.0723c0,1.2188-.5527,1.8281-1.6582,1.8281-.2383,0-.459-.0352-.6621-.1045v-.8623c.125.0312.2891.0469.4922.0469.2422,0,.4268-.0654.5537-.1963s.1904-.3584.1904-.6836v-7.1006h1.084Zm-1.1953-1.6816c0-.1719.0537-.3193.1611-.4424s.2646-.1846.4717-.1846c.2109,0,.3711.0605.4805.1816s.1641.2695.1641.4453-.0547.3223-.1641.4395-.2695.1758-.4805.1758-.3691-.0586-.4746-.1758-.1582-.2637-.1582-.4395Z"/>
    <path class="cls-5" d="m191.0654,19.7959c-.8594,0-1.5586-.2822-2.0977-.8467s-.8086-1.3193-.8086-2.2646v-.1992c0-.6289.1201-1.1904.3604-1.6846s.5762-.8809,1.0078-1.1602.8994-.4189,1.4033-.4189c.8242,0,1.4648.2715,1.9219.8145s.6855,1.3203.6855,2.332v.4512h-4.2949c.0156.625.1982,1.1299.5479,1.5146s.7939.5771,1.333.5771c.3828,0,.707-.0781.9727-.2344s.498-.3633.6973-.6211l.6621.5156c-.5312.8164-1.3281,1.2246-2.3906,1.2246Zm-.1348-5.6836c-.4375,0-.8047.1592-1.1016.4775s-.4805.7646-.5508,1.3389h3.1758v-.082c-.0312-.5508-.1797-.9775-.4453-1.2803s-.625-.4541-1.0781-.4541Z"/>
    <path class="cls-5" d="m21.6943,29.8838l.4922-4.3359h4.7812v1.4121h-3.3926l-.2109,1.834c.4023-.2148.8301-.3223,1.2832-.3223.8125,0,1.4492.252,1.9102.7559s.6914,1.209.6914,2.1152c0,.5508-.1162,1.0439-.3486,1.4795s-.5654.7734-.999,1.0137-.9453.3604-1.5352.3604c-.5156,0-.9941-.1045-1.4355-.3135s-.79-.5029-1.0459-.8818-.3916-.8105-.4072-1.2949h1.6758c.0352.3555.1592.6318.3721.8291s.4912.2959.835.2959c.3828,0,.6777-.1377.8848-.4131s.3105-.665.3105-1.1689c0-.4844-.1191-.8555-.3574-1.1133s-.5762-.3867-1.0137-.3867c-.4023,0-.7285.1055-.9785.3164l-.1641.1523-1.3477-.334Z"/>
    <path class="cls-5" d="m33.7939,25.5479l2.1914,6.1875,2.1797-6.1875h2.3086v8.5312h-1.7637v-2.332l.1758-4.0254-2.3027,6.3574h-1.207l-2.2969-6.3516.1758,4.0195v2.332h-1.7578v-8.5312h2.2969Z"/>
    <path class="cls-5" d="m48.6533,31.6182l1.1484-6.0703h1.752l-1.8926,8.5312h-1.7695l-1.3887-5.707-1.3887,5.707h-1.7695l-1.8926-8.5312h1.752l1.1543,6.0586,1.4062-6.0586h1.4883l1.4004,6.0703Z"/>
    <path class="cls-5" d="m51.6416,33.2471c0-.2695.0908-.4883.2725-.6562s.4092-.252.6826-.252c.2773,0,.5068.084.6885.252s.2725.3867.2725.6562c0,.2656-.0898.4814-.2695.6475s-.4102.249-.6914.249c-.2773,0-.5059-.083-.6855-.249s-.2695-.3818-.2695-.6475Z"/>
    <path class="cls-5" d="m59.4756,30.7393v3.3398h-1.125v-8.5312h3.1465c.9336,0,1.665.2383,2.1943.7148s.7939,1.1074.7939,1.8926c0,.8281-.2588,1.4658-.7764,1.9131s-1.2588.6709-2.2236.6709h-2.0098Zm0-.9199h2.0215c.6016,0,1.0625-.1416,1.3828-.4258.3203-.2832.4805-.6934.4805-1.2295,0-.5088-.1602-.916-.4805-1.2207-.3203-.3057-.7598-.4639-1.3184-.4756h-2.0859v3.3516Z"/>
    <path class="cls-5" d="m68.8154,28.7119c-.1641-.0273-.3418-.041-.5332-.041-.7109,0-1.1934.3027-1.4473.9082v4.5h-1.084v-6.3398h1.0547l.0176.7324c.3555-.5664.8594-.8496,1.5117-.8496.2109,0,.3711.0273.4805.082v1.0078Z"/>
    <path class="cls-5" d="m73.7256,33.4521c-.4219.4961-1.041.7441-1.8574.7441-.6758,0-1.1904-.1963-1.5439-.5889s-.5322-.9736-.5361-1.7432v-4.125h1.084v4.0957c0,.9609.3906,1.4414,1.1719,1.4414.8281,0,1.3789-.3086,1.6523-.9258v-4.6113h1.084v6.3398h-1.0312l-.0234-.627Zm-.1523-7.6875c0,.3398-.1211.624-.3633.8525s-.541.3428-.8965.3428c-.3594,0-.6592-.1152-.8994-.3457s-.3604-.5137-.3604-.8496.1201-.623.3604-.8613.54-.3574.8994-.3574.6592.1191.8994.3574.3604.5254.3604.8613Zm-1.9395,0c0,.1836.0654.3418.1963.4746s.292.1992.4834.1992c.1875,0,.3477-.0645.4805-.1934s.1992-.2891.1992-.4805-.0654-.3545-.1963-.4893-.292-.2021-.4834-.2021c-.1953,0-.3574.0684-.4863.2051s-.1934.2988-.1934.4863Z"/>
    <path class="cls-5" d="m77.4463,27.7393l.0293.7031c.4648-.5469,1.0918-.8203,1.8809-.8203.8867,0,1.4902.3398,1.8105,1.0195.2109-.3047.4854-.5508.8232-.7383s.7373-.2812,1.1982-.2812c1.3906,0,2.0977.7363,2.1211,2.209v4.248h-1.084v-4.1836c0-.4531-.1035-.792-.3105-1.0166s-.5547-.3369-1.043-.3369c-.4023,0-.7363.1201-1.002.3604s-.4199.5635-.4629.9697v4.207h-1.0898v-4.1543c0-.9219-.4512-1.3828-1.3535-1.3828-.7109,0-1.1973.3027-1.459.9082v4.6289h-1.084v-6.3398h1.0254Z"/>
    <path class="cls-5" d="m89.5752,34.1963c-.8594,0-1.5586-.2822-2.0977-.8467s-.8086-1.3193-.8086-2.2646v-.1992c0-.6289.1201-1.1904.3604-1.6846s.5762-.8809,1.0078-1.1602.8994-.4189,1.4033-.4189c.8242,0,1.4648.2715,1.9219.8145s.6855,1.3203.6855,2.332v.4512h-4.2949c.0156.625.1982,1.1299.5479,1.5146s.7939.5771,1.333.5771c.3828,0,.707-.0781.9727-.2344s.498-.3633.6973-.6211l.6621.5156c-.5312.8164-1.3281,1.2246-2.3906,1.2246Zm-.1465-8.1211l.8789-.9961h.9375v.0586l-1.4883,1.6055h-.6621l-1.4707-1.6055v-.0586h.9199l.8848.9961Zm.0117,2.4375c-.4375,0-.8047.1592-1.1016.4775s-.4805.7646-.5508,1.3389h3.1758v-.082c-.0312-.5508-.1797-.9775-.4453-1.2803s-.625-.4541-1.0781-.4541Z"/>
    <path class="cls-5" d="m96.3662,28.7119c-.1641-.0273-.3418-.041-.5332-.041-.7109,0-1.1934.3027-1.4473.9082v4.5h-1.084v-6.3398h1.0547l.0176.7324c.3555-.5664.8594-.8496,1.5117-.8496.2109,0,.3711.0273.4805.082v1.0078Z"/>
    <path class="cls-5" d="m98.3877,27.7393l.0352.7969c.4844-.6094,1.1172-.9141,1.8984-.9141,1.3398,0,2.0156.7559,2.0273,2.2676v4.1895h-1.084v-4.1953c-.0039-.457-.1084-.7949-.3135-1.0137s-.5244-.3281-.958-.3281c-.3516,0-.6602.0938-.9258.2812s-.4727.4336-.6211.7383v4.5176h-1.084v-6.3398h1.0254Z"/>
    <path class="cls-5" d="m106.0576,32.4912l1.4766-4.752h1.1602l-2.5488,7.3184c-.3945,1.0547-1.0215,1.582-1.8809,1.582l-.2051-.0176-.4043-.0762v-.8789l.293.0234c.3672,0,.6533-.0742.8584-.2227s.374-.4199.5068-.8145l.2402-.6445-2.2617-6.2695h1.1836l1.582,4.752Zm.6152-7.4121h1.3125l-1.5703,1.7227-.873-.0029,1.1309-1.7197Z"/>
    <path class="cls-5" d="m114.7236,32.6084l1.5703-4.8691h1.1074l-2.2734,6.3398h-.8262l-2.2969-6.3398h1.1074l1.6113,4.8691Z"/>
    <path class="cls-5" d="m120.5186,32.4912l1.4766-4.752h1.1602l-2.5488,7.3184c-.3945,1.0547-1.0215,1.582-1.8809,1.582l-.2051-.0176-.4043-.0762v-.8789l.293.0234c.3672,0,.6533-.0742.8584-.2227s.374-.4199.5068-.8145l.2402-.6445-2.2617-6.2695h1.1836l1.582,4.752Zm.6152-7.4121h1.3125l-1.5703,1.7227-.873-.0029,1.1309-1.7197Z"/>
    <path class="cls-5" d="m125.8916,31.1436l-.6797.709v2.2266h-1.084v-9h1.084v5.4434l.5801-.6973,1.9746-2.0859h1.3184l-2.4668,2.6484,2.7539,3.6914h-1.2715l-2.209-2.9355Z"/>
    <path class="cls-5" d="m129.917,30.8506c0-.6211.1221-1.1797.3662-1.6758s.584-.8789,1.0195-1.1484.9326-.4043,1.4912-.4043c.8633,0,1.5615.2988,2.0947.8965s.7998,1.3926.7998,2.3848v.0762c0,.6172-.1182,1.1709-.3545,1.6611s-.5742.8721-1.0137,1.1455-.9443.4102-1.5146.4102c-.8594,0-1.5557-.2988-2.0889-.8965s-.7998-1.3887-.7998-2.373v-.0762Zm1.0898.1289c0,.7031.1631,1.2676.4893,1.6934s.7627.6387,1.3096.6387c.5508,0,.9883-.2158,1.3125-.6475s.4863-1.0361.4863-1.8135c0-.6953-.165-1.2588-.4951-1.6904s-.7686-.6475-1.3154-.6475c-.5352,0-.9668.2129-1.2949.6387s-.4922,1.0352-.4922,1.8281Z"/>
    <path class="cls-5" d="m138.0732,27.7393l.0352.7969c.4844-.6094,1.1172-.9141,1.8984-.9141,1.3398,0,2.0156.7559,2.0273,2.2676v4.1895h-1.084v-4.1953c-.0039-.457-.1084-.7949-.3135-1.0137s-.5244-.3281-.958-.3281c-.3516,0-.6602.0938-.9258.2812s-.4727.4336-.6211.7383v4.5176h-1.084v-6.3398h1.0254Z"/>
    <path class="cls-5" d="m152.0068,30.9795c0,.9688-.2227,1.7471-.668,2.335s-1.043.8818-1.793.8818c-.8008,0-1.4199-.2832-1.8574-.8496l-.0527.7324h-.9961v-9h1.084v3.3574c.4375-.543,1.041-.8145,1.8105-.8145s1.374.291,1.8135.873.6592,1.3789.6592,2.3906v.0938Zm-1.084-.123c0-.7383-.1426-1.3086-.4277-1.7109s-.6953-.6035-1.2305-.6035c-.7148,0-1.2285.332-1.541.9961v2.7422c.332.6641.8496.9961,1.5527.9961.5195,0,.9238-.2012,1.2129-.6035s.4336-1.0078.4336-1.8164Z"/>
    <path class="cls-5" d="m156.0029,34.1963c-.8594,0-1.5586-.2822-2.0977-.8467s-.8086-1.3193-.8086-2.2646v-.1992c0-.6289.1201-1.1904.3604-1.6846s.5762-.8809,1.0078-1.1602.8994-.4189,1.4033-.4189c.8242,0,1.4648.2715,1.9219.8145s.6855,1.3203.6855,2.332v.4512h-4.2949c.0156.625.1982,1.1299.5479,1.5146s.7939.5771,1.333.5771c.3828,0,.707-.0781.9727-.2344s.498-.3633.6973-.6211l.6621.5156c-.5312.8164-1.3281,1.2246-2.3906,1.2246Zm-.1465-8.1211l.8789-.9961h.9375v.0586l-1.4883,1.6055h-.6621l-1.4707-1.6055v-.0586h.9199l.8848.9961Zm.0117,2.4375c-.4375,0-.8047.1592-1.1016.4775s-.4805.7646-.5508,1.3389h3.1758v-.082c-.0312-.5508-.1797-.9775-.4453-1.2803s-.625-.4541-1.0781-.4541Z"/>
    <path class="cls-5" d="m160.8135,28.5068c.4805-.5898,1.1055-.8848,1.875-.8848,1.3398,0,2.0156.7559,2.0273,2.2676v4.1895h-1.084v-4.1953c-.0039-.457-.1084-.7949-.3135-1.0137s-.5244-.3281-.958-.3281c-.3516,0-.6602.0938-.9258.2812s-.4727.4336-.6211.7383v4.5176h-1.084v-9h1.084v3.4277Z"/>
    <path class="cls-5" d="m168.9697,34.1963c-.8594,0-1.5586-.2822-2.0977-.8467s-.8086-1.3193-.8086-2.2646v-.1992c0-.6289.1201-1.1904.3604-1.6846s.5762-.8809,1.0078-1.1602.8994-.4189,1.4033-.4189c.8242,0,1.4648.2715,1.9219.8145s.6855,1.3203.6855,2.332v.4512h-4.2949c.0156.625.1982,1.1299.5479,1.5146s.7939.5771,1.333.5771c.3828,0,.707-.0781.9727-.2344s.498-.3633.6973-.6211l.6621.5156c-.5312.8164-1.3281,1.2246-2.3906,1.2246Zm-.1348-5.6836c-.4375,0-.8047.1592-1.1016.4775s-.4805.7646-.5508,1.3389h3.1758v-.082c-.0312-.5508-.1797-.9775-.4453-1.2803s-.625-.4541-1.0781-.4541Z"/>
    <path class="cls-5" d="m173.7158,27.7393l.0293.7031c.4648-.5469,1.0918-.8203,1.8809-.8203.8867,0,1.4902.3398,1.8105,1.0195.2109-.3047.4854-.5508.8232-.7383s.7373-.2812,1.1982-.2812c1.3906,0,2.0977.7363,2.1211,2.209v4.248h-1.084v-4.1836c0-.4531-.1035-.792-.3105-1.0166s-.5547-.3369-1.043-.3369c-.4023,0-.7363.1201-1.002.3604s-.4199.5635-.4629.9697v4.207h-1.0898v-4.1543c0-.9219-.4512-1.3828-1.3535-1.3828-.7109,0-1.1973.3027-1.459.9082v4.6289h-1.084v-6.3398h1.0254Z"/>
    <path class="cls-5" d="m24.2256,47.7109c.3867,0,.7246-.1172,1.0137-.3516s.4492-.5273.4805-.8789h1.0254c-.0195.3633-.1445.709-.375,1.0371s-.5381.5898-.9229.7852-.792.293-1.2217.293c-.8633,0-1.5498-.2881-2.0596-.8643s-.7646-1.3643-.7646-2.3643v-.1816c0-.6172.1133-1.166.3398-1.6465s.5518-.8535.9756-1.1191.9248-.3984,1.5029-.3984c.7109,0,1.3018.2129,1.7725.6387s.7217.9785.7529,1.6582h-1.0254c-.0312-.4102-.1865-.7471-.4658-1.0107s-.624-.3955-1.0342-.3955c-.5508,0-.9775.1982-1.2803.5947s-.4541.9697-.4541,1.7197v.2051c0,.7305.1504,1.293.4512,1.6875s.7305.5918,1.2891.5918Z"/>
    <path class="cls-5" d="m30.5947,48.5957c-.8594,0-1.5586-.2822-2.0977-.8467s-.8086-1.3193-.8086-2.2646v-.1992c0-.6289.1201-1.1904.3604-1.6846s.5762-.8809,1.0078-1.1602.8994-.4189,1.4033-.4189c.8242,0,1.4648.2715,1.9219.8145s.6855,1.3203.6855,2.332v.4512h-4.2949c.0156.625.1982,1.1299.5479,1.5146s.7939.5771,1.333.5771c.3828,0,.707-.0781.9727-.2344s.498-.3633.6973-.6211l.6621.5156c-.5312.8164-1.3281,1.2246-2.3906,1.2246Zm-.1348-5.6836c-.4375,0-.8047.1592-1.1016.4775s-.4805.7646-.5508,1.3389h3.1758v-.082c-.0312-.5508-.1797-.9775-.4453-1.2803s-.625-.4541-1.0781-.4541Z"/>
    <path class="cls-5" d="m35.499,48.4785h-1.084v-9h1.084v9Z"/>
    <path class="cls-5" d="m39.8643,48.5957c-.8594,0-1.5586-.2822-2.0977-.8467s-.8086-1.3193-.8086-2.2646v-.1992c0-.6289.1201-1.1904.3604-1.6846s.5762-.8809,1.0078-1.1602.8994-.4189,1.4033-.4189c.8242,0,1.4648.2715,1.9219.8145s.6855,1.3203.6855,2.332v.4512h-4.2949c.0156.625.1982,1.1299.5479,1.5146s.7939.5771,1.333.5771c.3828,0,.707-.0781.9727-.2344s.498-.3633.6973-.6211l.6621.5156c-.5312.8164-1.3281,1.2246-2.3906,1.2246Zm-.1348-5.6836c-.4375,0-.8047.1592-1.1016.4775s-.4805.7646-.5508,1.3389h3.1758v-.082c-.0312-.5508-.1797-.9775-.4453-1.2803s-.625-.4541-1.0781-.4541Zm.5273-3.4336h1.3125l-1.5703,1.7227-.873-.0029,1.1309-1.7197Z"/>
    <path class="cls-5" d="m44.6748,42.9062c.4805-.5898,1.1055-.8848,1.875-.8848,1.3398,0,2.0156.7559,2.0273,2.2676v4.1895h-1.084v-4.1953c-.0039-.457-.1084-.7949-.3135-1.0137s-.5244-.3281-.958-.3281c-.3516,0-.6602.0938-.9258.2812s-.4727.4336-.6211.7383v4.5176h-1.084v-9h1.084v3.4277Z"/>
    <path class="cls-5" d="m49.9131,45.25c0-.6211.1221-1.1797.3662-1.6758s.584-.8789,1.0195-1.1484.9326-.4043,1.4912-.4043c.8633,0,1.5615.2988,2.0947.8965s.7998,1.3926.7998,2.3848v.0762c0,.6172-.1182,1.1709-.3545,1.6611s-.5742.8721-1.0137,1.1455-.9443.4102-1.5146.4102c-.8594,0-1.5557-.2988-2.0889-.8965s-.7998-1.3887-.7998-2.373v-.0762Zm1.0898.1289c0,.7031.1631,1.2676.4893,1.6934s.7627.6387,1.3096.6387c.5508,0,.9883-.2158,1.3125-.6475s.4863-1.0361.4863-1.8135c0-.6953-.165-1.2588-.4951-1.6904s-.7686-.6475-1.3154-.6475c-.5352,0-.9668.2129-1.2949.6387s-.4922,1.0352-.4922,1.8281Z"/>
    <path class="cls-5" d="m63.0791,43.1113c-.1641-.0273-.3418-.041-.5332-.041-.7109,0-1.1934.3027-1.4473.9082v4.5h-1.084v-6.3398h1.0547l.0176.7324c.3555-.5664.8594-.8496,1.5117-.8496.2109,0,.3711.0273.4805.082v1.0078Z"/>
    <path class="cls-5" d="m63.6709,45.25c0-.6211.1221-1.1797.3662-1.6758s.584-.8789,1.0195-1.1484.9326-.4043,1.4912-.4043c.8633,0,1.5615.2988,2.0947.8965s.7998,1.3926.7998,2.3848v.0762c0,.6172-.1182,1.1709-.3545,1.6611s-.5742.8721-1.0137,1.1455-.9443.4102-1.5146.4102c-.8594,0-1.5557-.2988-2.0889-.8965s-.7998-1.3887-.7998-2.373v-.0762Zm1.0898.1289c0,.7031.1631,1.2676.4893,1.6934s.7627.6387,1.3096.6387c.5508,0,.9883-.2158,1.3125-.6475s.4863-1.0361.4863-1.8135c0-.6953-.165-1.2588-.4951-1.6904s-.7686-.6475-1.3154-.6475c-.5352,0-.9668.2129-1.2949.6387s-.4922,1.0352-.4922,1.8281Z"/>
    <path class="cls-5" d="m72.5713,45.543l-.6797.709v2.2266h-1.084v-9h1.084v5.4434l.5801-.6973,1.9746-2.0859h1.3184l-2.4668,2.6484,2.7539,3.6914h-1.2715l-2.209-2.9355Z"/>
    <path class="cls-5" d="m80.7979,47.8516c-.4219.4961-1.041.7441-1.8574.7441-.6758,0-1.1904-.1963-1.5439-.5889s-.5322-.9736-.5361-1.7432v-4.125h1.084v4.0957c0,.9609.3906,1.4414,1.1719,1.4414.8281,0,1.3789-.3086,1.6523-.9258v-4.6113h1.084v6.3398h-1.0312l-.0234-.627Z"/>
    <path class="cls-5" d="m87.5889,42.1387v7.0723c0,1.2188-.5527,1.8281-1.6582,1.8281-.2383,0-.459-.0352-.6621-.1045v-.8623c.125.0312.2891.0469.4922.0469.2422,0,.4268-.0654.5537-.1963s.1904-.3584.1904-.6836v-7.1006h1.084Zm-1.1953-1.6816c0-.1719.0537-.3193.1611-.4424s.2646-.1846.4717-.1846c.2109,0,.3711.0605.4805.1816s.1641.2695.1641.4453-.0547.3223-.1641.4395-.2695.1758-.4805.1758-.3691-.0586-.4746-.1758-.1582-.2637-.1582-.4395Z"/>
    <path class="cls-5" d="m91.9658,48.5957c-.8594,0-1.5586-.2822-2.0977-.8467s-.8086-1.3193-.8086-2.2646v-.1992c0-.6289.1201-1.1904.3604-1.6846s.5762-.8809,1.0078-1.1602.8994-.4189,1.4033-.4189c.8242,0,1.4648.2715,1.9219.8145s.6855,1.3203.6855,2.332v.4512h-4.2949c.0156.625.1982,1.1299.5479,1.5146s.7939.5771,1.333.5771c.3828,0,.707-.0781.9727-.2344s.498-.3633.6973-.6211l.6621.5156c-.5312.8164-1.3281,1.2246-2.3906,1.2246Zm-.1348-5.6836c-.4375,0-.8047.1592-1.1016.4775s-.4805.7646-.5508,1.3389h3.1758v-.082c-.0312-.5508-.1797-.9775-.4453-1.2803s-.625-.4541-1.0781-.4541Z"/>
    <path class="cls-5" d="m102.5361,48.4785h-1.6934v-6.5273l-2.0215.627v-1.377l3.5332-1.2656h.1816v8.543Z"/>
    <path class="cls-5" d="m105.8174,50.6172l-.8848-.4629.2109-.3809c.2617-.4766.3965-.9512.4043-1.4238v-1.3125h1.4297l-.0059,1.1719c-.0039.4336-.1133.8711-.3281,1.3125s-.4902.8066-.8262,1.0957Z"/>
    <path class="cls-5" d="m113.2471,45.2676h.9668v1.3652h-.9668v1.8457h-1.6934v-1.8457h-3.498l-.0762-1.0664,3.5566-5.6191h1.7109v5.3203Zm-3.5801,0h1.8867v-3.0117l-.1113.1934-1.7754,2.8184Z"/>
    <path class="cls-5" d="m115.374,44.2832l.4922-4.3359h4.7812v1.4121h-3.3926l-.2109,1.834c.4023-.2148.8301-.3223,1.2832-.3223.8125,0,1.4492.252,1.9102.7559s.6914,1.209.6914,2.1152c0,.5508-.1162,1.0439-.3486,1.4795s-.5654.7734-.999,1.0137-.9453.3604-1.5352.3604c-.5156,0-.9941-.1045-1.4355-.3135s-.79-.5029-1.0459-.8818-.3916-.8105-.4072-1.2949h1.6758c.0352.3555.1592.6318.3721.8291s.4912.2959.835.2959c.3828,0,.6777-.1377.8848-.4131s.3105-.665.3105-1.1689c0-.4844-.1191-.8555-.3574-1.1133s-.5762-.3867-1.0137-.3867c-.4023,0-.7285.1055-.9785.3164l-.1641.1523-1.3477-.334Z"/>
    <path class="cls-5" d="m127.4736,39.9473l2.1914,6.1875,2.1797-6.1875h2.3086v8.5312h-1.7637v-2.332l.1758-4.0254-2.3027,6.3574h-1.207l-2.2969-6.3516.1758,4.0195v2.332h-1.7578v-8.5312h2.2969Z"/>
    <path class="cls-5" d="m142.333,46.0176l1.1484-6.0703h1.752l-1.8926,8.5312h-1.7695l-1.3887-5.707-1.3887,5.707h-1.7695l-1.8926-8.5312h1.752l1.1543,6.0586,1.4062-6.0586h1.4883l1.4004,6.0703Z"/>
    <path class="cls-5" d="m21.6416,59.416c0-.8828.1182-1.7305.3545-2.543s.5889-1.5508,1.0576-2.2148.9551-1.1328,1.459-1.4062l.2227.7148c-.5703.4375-1.0381,1.1055-1.4033,2.0039s-.5654,1.9043-.6006,3.0176l-.0059.498c0,1.5078.2754,2.8164.8262,3.9258.332.6641.7266,1.1836,1.1836,1.5586l-.2227.6621c-.5195-.2891-1.0156-.7734-1.4883-1.4531-.9219-1.3281-1.3828-2.916-1.3828-4.7637Z"/>
    <path class="cls-5" d="m27.5537,59.9434l-.6797.709v2.2266h-1.084v-9h1.084v5.4434l.5801-.6973,1.9746-2.0859h1.3184l-2.4668,2.6484,2.7539,3.6914h-1.2715l-2.209-2.9355Z"/>
    <path class="cls-5" d="m31.5791,59.6504c0-.6211.1221-1.1797.3662-1.6758s.584-.8789,1.0195-1.1484.9326-.4043,1.4912-.4043c.8633,0,1.5615.2988,2.0947.8965s.7998,1.3926.7998,2.3848v.0762c0,.6172-.1182,1.1709-.3545,1.6611s-.5742.8721-1.0137,1.1455-.9443.4102-1.5146.4102c-.8594,0-1.5557-.2988-2.0889-.8965s-.7998-1.3887-.7998-2.373v-.0762Zm1.0898.1289c0,.7031.1631,1.2676.4893,1.6934s.7627.6387,1.3096.6387c.5508,0,.9883-.2158,1.3125-.6475s.4863-1.0361.4863-1.8135c0-.6953-.165-1.2588-.4951-1.6904s-.7686-.6475-1.3154-.6475c-.5352,0-.9668.2129-1.2949.6387s-.4922,1.0352-.4922,1.8281Z"/>
    <path class="cls-5" d="m41.3408,62.9961c-.8594,0-1.5586-.2822-2.0977-.8467s-.8086-1.3193-.8086-2.2646v-.1992c0-.6289.1201-1.1904.3604-1.6846s.5762-.8809,1.0078-1.1602.8994-.4189,1.4033-.4189c.8242,0,1.4648.2715,1.9219.8145s.6855,1.3203.6855,2.332v.4512h-4.2949c.0156.625.1982,1.1299.5479,1.5146s.7939.5771,1.333.5771c.3828,0,.707-.0781.9727-.2344s.498-.3633.6973-.6211l.6621.5156c-.5312.8164-1.3281,1.2246-2.3906,1.2246Zm-.1348-5.6836c-.4375,0-.8047.1592-1.1016.4775s-.4805.7646-.5508,1.3389h3.1758v-.082c-.0312-.5508-.1797-.9775-.4453-1.2803s-.625-.4541-1.0781-.4541Z"/>
    <path class="cls-5" d="m45.6006,62.8789v-5.502h-1.002v-.8379h1.002v-.6504c0-.6797.1816-1.2051.5449-1.5762s.877-.5566,1.541-.5566c.25,0,.498.0332.7441.0986l-.0586.874c-.1836-.0352-.3789-.0527-.5859-.0527-.3516,0-.623.1025-.8145.3086s-.2871.501-.2871.8848v.6699h1.3535v.8379h-1.3535v5.502h-1.084Z"/>
    <path class="cls-5" d="m49.2393,54.8574c0-.1758.0537-.3242.1611-.4453s.2666-.1816.4775-.1816.3711.0605.4805.1816.1641.2695.1641.4453-.0547.3223-.1641.4395-.2695.1758-.4805.1758-.3701-.0586-.4775-.1758-.1611-.2637-.1611-.4395Zm1.1719,8.0215h-1.084v-6.3398h1.084v6.3398Z"/>
    <path class="cls-5" d="m54.6885,62.1113c.3867,0,.7246-.1172,1.0137-.3516s.4492-.5273.4805-.8789h1.0254c-.0195.3633-.1445.709-.375,1.0371s-.5381.5898-.9229.7852-.792.293-1.2217.293c-.8633,0-1.5498-.2881-2.0596-.8643s-.7646-1.3643-.7646-2.3643v-.1816c0-.6172.1133-1.166.3398-1.6465s.5518-.8535.9756-1.1191.9248-.3984,1.5029-.3984c.7109,0,1.3018.2129,1.7725.6387s.7217.9785.7529,1.6582h-1.0254c-.0312-.4102-.1865-.7471-.4658-1.0107s-.624-.3955-1.0342-.3955c-.5508,0-.9775.1982-1.2803.5947s-.4541.9697-.4541,1.7197v.2051c0,.7305.1504,1.293.4512,1.6875s.7305.5918,1.2891.5918Z"/>
    <path class="cls-5" d="m58.4326,54.8574c0-.1758.0537-.3242.1611-.4453s.2666-.1816.4775-.1816.3711.0605.4805.1816.1641.2695.1641.4453-.0547.3223-.1641.4395-.2695.1758-.4805.1758-.3701-.0586-.4775-.1758-.1611-.2637-.1611-.4395Zm1.1719,8.0215h-1.084v-6.3398h1.084v6.3398Z"/>
    <path class="cls-5" d="m63.9697,62.9961c-.8594,0-1.5586-.2822-2.0977-.8467s-.8086-1.3193-.8086-2.2646v-.1992c0-.6289.1201-1.1904.3604-1.6846s.5762-.8809,1.0078-1.1602.8994-.4189,1.4033-.4189c.8242,0,1.4648.2715,1.9219.8145s.6855,1.3203.6855,2.332v.4512h-4.2949c.0156.625.1982,1.1299.5479,1.5146s.7939.5771,1.333.5771c.3828,0,.707-.0781.9727-.2344s.498-.3633.6973-.6211l.6621.5156c-.5312.8164-1.3281,1.2246-2.3906,1.2246Zm-.1348-5.6836c-.4375,0-.8047.1592-1.1016.4775s-.4805.7646-.5508,1.3389h3.1758v-.082c-.0312-.5508-.1797-.9775-.4453-1.2803s-.625-.4541-1.0781-.4541Z"/>
    <path class="cls-5" d="m68.7217,56.5391l.0352.7969c.4844-.6094,1.1172-.9141,1.8984-.9141,1.3398,0,2.0156.7559,2.0273,2.2676v4.1895h-1.084v-4.1953c-.0039-.457-.1084-.7949-.3135-1.0137s-.5244-.3281-.958-.3281c-.3516,0-.6602.0938-.9258.2812s-.4727.4336-.6211.7383v4.5176h-1.084v-6.3398h1.0254Z"/>
    <path class="cls-5" d="m75.7881,55.0039v1.5352h1.1836v.8379h-1.1836v3.9365c0,.2539.0527.4453.1582.5723s.2852.1904.5391.1904c.125,0,.2969-.0234.5156-.0703v.874c-.2852.0771-.5625.1162-.832.1162-.4844,0-.8496-.1465-1.0957-.4395s-.3691-.709-.3691-1.248v-3.9316h-1.1543v-.8379h1.1543v-1.5352h1.084Z"/>
    <path class="cls-5" d="m83.2998,61.4082l1.5703-4.8691h1.1074l-2.2734,6.3398h-.8262l-2.2969-6.3398h1.1074l1.6113,4.8691Z"/>
    <path class="cls-5" d="m89.0947,61.291l1.4766-4.752h1.1602l-2.5488,7.3184c-.3945,1.0547-1.0215,1.582-1.8809,1.582l-.2051-.0176-.4043-.0762v-.8789l.293.0234c.3672,0,.6533-.0742.8584-.2227s.374-.4199.5068-.8145l.2402-.6445-2.2617-6.2695h1.1836l1.582,4.752Z"/>
    <path class="cls-5" d="m96.6123,62.252c-.4219.4961-1.041.7441-1.8574.7441-.6758,0-1.1904-.1963-1.5439-.5889s-.5322-.9736-.5361-1.7432v-4.125h1.084v4.0957c0,.9609.3906,1.4414,1.1719,1.4414.8281,0,1.3789-.3086,1.6523-.9258v-4.6113h1.084v6.3398h-1.0312l-.0234-.627Z"/>
    <path class="cls-5" d="m100.333,61.9941h3.709v.8848h-5.0332v-.7969l3.498-4.6465h-3.4453v-.8965h4.8047v.7676l-3.5332,4.6875Zm1.166-7.1191l.8789-.9961h.9375v.0586l-1.4883,1.6055h-.6621l-1.4707-1.6055v-.0586h.9199l.8848.9961Z"/>
    <path class="cls-5" d="m105.2666,54.8574c0-.1758.0537-.3242.1611-.4453s.2666-.1816.4775-.1816.3711.0605.4805.1816.1641.2695.1641.4453-.0547.3223-.1641.4395-.2695.1758-.4805.1758-.3701-.0586-.4775-.1758-.1611-.2637-.1611-.4395Zm1.1719,8.0215h-1.084v-6.3398h1.084v6.3398Z"/>
    <path class="cls-5" d="m109.6436,55.0039v1.5352h1.1836v.8379h-1.1836v3.9365c0,.2539.0527.4453.1582.5723s.2852.1904.5391.1904c.125,0,.2969-.0234.5156-.0703v.874c-.2852.0771-.5625.1162-.832.1162-.4844,0-.8496-.1465-1.0957-.4395s-.3691-.709-.3691-1.248v-3.9316h-1.1543v-.8379h1.1543v-1.5352h1.084Z"/>
    <path class="cls-5" d="m113.2822,53.8848h1.3125l-1.5703,1.7227-.873-.0029,1.1309-1.7197Zm-.0117,8.9941h-1.0898v-6.3398h1.0898v6.3398Z"/>
    <path class="cls-5" d="m123.5068,62.8789h-5.5898v-.7793l2.9531-3.2812c.4375-.4961.7393-.8994.9053-1.21s.249-.6318.249-.9639c0-.4453-.1348-.8105-.4043-1.0957s-.6289-.4277-1.0781-.4277c-.5391,0-.958.1533-1.2568.46s-.4482.7334-.4482,1.2803h-1.084c0-.7852.2529-1.4199.7588-1.9043s1.1826-.7266,2.0303-.7266c.793,0,1.4199.208,1.8809.624s.6914.9697.6914,1.6611c0,.8398-.5352,1.8398-1.6055,3l-2.2852,2.4785h4.2832v.8848Z"/>
    <path class="cls-5" d="m128.8096,59.1289c-.2266.2695-.4971.4863-.8115.6504s-.6592.2461-1.0342.2461c-.4922,0-.9209-.1211-1.2861-.3633s-.6475-.583-.8467-1.0225-.2988-.9248-.2988-1.4561c0-.5703.1084-1.084.3252-1.541s.5244-.8066.9229-1.0488.8633-.3633,1.3945-.3633c.8438,0,1.5088.3154,1.9951.9463s.7295,1.4912.7295,2.5811v.3164c0,1.6602-.3281,2.8721-.9844,3.6357s-1.6465,1.1553-2.9707,1.1748h-.2109v-.9199h.2285c.8945-.0156,1.582-.248,2.0625-.6992.4805-.4502.7422-1.1621.7852-2.1367Zm-1.6699,0c.3633,0,.6982-.1113,1.0049-.334s.5303-.498.6709-.8262v-.4336c0-.7109-.1543-1.2891-.4629-1.7344s-.6992-.668-1.1719-.668c-.4766,0-.8594.1826-1.1484.5479s-.4336.8467-.4336,1.4443c0,.582.1396,1.0615.4189,1.4385s.6533.5654,1.1221.5654Z"/>
    <path class="cls-5" d="m134.2705,55.9883c0-.5117.1631-.9336.4893-1.2656s.7451-.498,1.2568-.498c.5195,0,.9404.167,1.2627.501s.4834.7666.4834,1.2979v.416c0,.5156-.1631.9365-.4893,1.2627s-.7412.4893-1.2451.4893c-.5078,0-.9277-.1631-1.2598-.4893s-.498-.7607-.498-1.3037v-.4102Zm.8086.4492c0,.3047.0859.5566.2578.7539.1719.1982.4023.2969.6914.2969.2773,0,.501-.0957.6709-.2881.1699-.1914.2549-.4541.2549-.7871v-.4287c0-.3047-.084-.5576-.252-.7568-.168-.2002-.3965-.2998-.6855-.2998s-.5176.0996-.6855.2998c-.168.1992-.252.46-.252.7812v.4287Zm1.1953,5.7969l-.6152-.3867,4.166-6.668.6152.3867-4.166,6.668Zm2.1504-1.4473c0-.5117.1631-.9326.4893-1.2627s.7451-.4951,1.2568-.4951.9316.1641,1.2598.4922.4922.7637.4922,1.3066v.416c0,.5117-.1631.9326-.4893,1.2627s-.7432.4951-1.251.4951-.9277-.1631-1.2598-.4893-.498-.7607-.498-1.3037v-.4219Zm.8086.4551c0,.3086.0859.5625.2578.7598.1719.1982.4023.2969.6914.2969.2812,0,.5059-.0967.6738-.291.168-.1934.252-.457.252-.79v-.4346c0-.3086-.085-.5615-.2549-.7568-.1699-.1963-.3975-.2939-.6826-.2939-.2773,0-.5029.0967-.6768.291-.1738.1934-.2607.4551-.2607.7842v.4346Z"/>
    <path class="cls-5" d="m145.7666,59.4746c0,.8711-.1143,1.7061-.3428,2.5049s-.5781,1.5361-1.0488,2.2119-.9639,1.1562-1.4795,1.4414l-.2285-.6621c.6016-.4609,1.085-1.1768,1.4502-2.1475s.5518-2.0479.5596-3.2314v-.1875c0-.8203-.0859-1.583-.2578-2.2881s-.4111-1.3369-.7178-1.8955-.6514-.9941-1.0342-1.3066l.2285-.6621c.5156.2852,1.0068.7617,1.4736,1.4297s.8164,1.4043,1.0488,2.209.3486,1.666.3486,2.584Z"/>
    <path class="cls-5" d="m147.46,62.3105c0-.1875.0557-.3438.167-.4688s.2783-.1875.501-.1875.3916.0625.5068.1875.1729.2812.1729.4688c0,.1797-.0576.3301-.1729.4512s-.2842.1816-.5068.1816-.3896-.0605-.501-.1816-.167-.2715-.167-.4512Z"/>
  </g>
  <g>
    <path class="cls-7" d="m307.1484,158.0283l-3.5332,7.9219h-1.1367l3.5215-7.6406h-4.6172v-.8906h5.7656v.6094Z"/>
    <path class="cls-7" d="m313.9688,165.9502h-5.5898v-.7793l2.9531-3.2812c.4375-.4961.7393-.8994.9053-1.21s.249-.6318.249-.9639c0-.4453-.1348-.8105-.4043-1.0957s-.6289-.4277-1.0781-.4277c-.5391,0-.958.1533-1.2568.46s-.4482.7334-.4482,1.2803h-1.084c0-.7852.2529-1.4199.7588-1.9043s1.1826-.7266,2.0303-.7266c.793,0,1.4199.208,1.8809.624s.6914.9697.6914,1.6611c0,.8398-.5352,1.8398-1.6055,3l-2.2852,2.4785h4.2832v.8848Z"/>
    <path class="cls-7" d="m320.4668,162.3115c0,1.2695-.2168,2.2129-.6504,2.8301s-1.1113.9258-2.0332.9258c-.9102,0-1.584-.3018-2.0215-.9053s-.6641-1.5049-.6797-2.7041v-1.4473c0-1.2539.2168-2.1855.6504-2.7949s1.1133-.9141,2.0391-.9141c.918,0,1.5938.2939,2.0273.8818s.6562,1.4951.668,2.7217v1.4062Zm-1.084-1.4824c0-.918-.1289-1.5869-.3867-2.0068s-.666-.6299-1.2246-.6299c-.5547,0-.959.209-1.2129.627s-.3848,1.0605-.3926,1.9277v1.7344c0,.9219.1338,1.6025.4014,2.042s.6729.6592,1.2158.6592c.5352,0,.9326-.207,1.1924-.6211s.3955-1.0664.4072-1.957v-1.7754Z"/>
    <path class="cls-7" d="m325.957,159.6104l.0293.7031c.4648-.5469,1.0918-.8203,1.8809-.8203.8867,0,1.4902.3398,1.8105,1.0195.2109-.3047.4854-.5508.8232-.7383s.7373-.2812,1.1982-.2812c1.3906,0,2.0977.7363,2.1211,2.209v4.248h-1.084v-4.1836c0-.4531-.1035-.792-.3105-1.0166s-.5547-.3369-1.043-.3369c-.4023,0-.7363.1201-1.002.3604s-.4199.5635-.4629.9697v4.207h-1.0898v-4.1543c0-.9219-.4512-1.3828-1.3535-1.3828-.7109,0-1.1973.3027-1.459.9082v4.6289h-1.084v-6.3398h1.0254Z"/>
  </g>
  <g>
    <line class="cls-1" x1="100.5" y1="161.8897" x2="28.7787" y2="161.8897"/>
    <polygon class="cls-7" points="31.2639 158.8224 31.7755 159.3717 29.0667 161.889 31.7755 164.4071 31.2639 164.9564 27.9654 161.889 31.2639 158.8224"/>
  </g>
  <g>
    <line class="cls-1" x1="210.6839" y1="161.8897" x2="144.5" y2="161.8897"/>
    <polygon class="cls-7" points="208.1988 158.8224 207.6872 159.3717 210.3961 161.889 207.6872 164.4071 208.1988 164.9564 211.4973 161.889 208.1988 158.8224"/>
  </g>
  <g>
    <path class="cls-7" d="m112.1484,158.0283l-3.5332,7.9219h-1.1367l3.5215-7.6406h-4.6172v-.8906h5.7656v.6094Z"/>
    <path class="cls-7" d="m118.9688,165.9502h-5.5898v-.7793l2.9531-3.2812c.4375-.4961.7393-.8994.9053-1.21s.249-.6318.249-.9639c0-.4453-.1348-.8105-.4043-1.0957s-.6289-.4277-1.0781-.4277c-.5391,0-.958.1533-1.2568.46s-.4482.7334-.4482,1.2803h-1.084c0-.7852.2529-1.4199.7588-1.9043s1.1826-.7266,2.0303-.7266c.793,0,1.4199.208,1.8809.624s.6914.9697.6914,1.6611c0,.8398-.5352,1.8398-1.6055,3l-2.2852,2.4785h4.2832v.8848Z"/>
    <path class="cls-7" d="m125.4668,162.3115c0,1.2695-.2168,2.2129-.6504,2.8301s-1.1113.9258-2.0332.9258c-.9102,0-1.584-.3018-2.0215-.9053s-.6641-1.5049-.6797-2.7041v-1.4473c0-1.2539.2168-2.1855.6504-2.7949s1.1133-.9141,2.0391-.9141c.918,0,1.5938.2939,2.0273.8818s.6562,1.4951.668,2.7217v1.4062Zm-1.084-1.4824c0-.918-.1289-1.5869-.3867-2.0068s-.666-.6299-1.2246-.6299c-.5547,0-.959.209-1.2129.627s-.3848,1.0605-.3926,1.9277v1.7344c0,.9219.1338,1.6025.4014,2.042s.6729.6592,1.2158.6592c.5352,0,.9326-.207,1.1924-.6211s.3955-1.0664.4072-1.957v-1.7754Z"/>
    <path class="cls-7" d="m130.957,159.6104l.0293.7031c.4648-.5469,1.0918-.8203,1.8809-.8203.8867,0,1.4902.3398,1.8105,1.0195.2109-.3047.4854-.5508.8232-.7383s.7373-.2812,1.1982-.2812c1.3906,0,2.0977.7363,2.1211,2.209v4.248h-1.084v-4.1836c0-.4531-.1035-.792-.3105-1.0166s-.5547-.3369-1.043-.3369c-.4023,0-.7363.1201-1.002.3604s-.4199.5635-.4629.9697v4.207h-1.0898v-4.1543c0-.9219-.4512-1.3828-1.3535-1.3828-.7109,0-1.1973.3027-1.459.9082v4.6289h-1.084v-6.3398h1.0254Z"/>
  </g>
  <g>
    <path class="cls-7" d="m176.1484,192.0283l-3.5332,7.9219h-1.1367l3.5215-7.6406h-4.6172v-.8906h5.7656v.6094Z"/>
    <path class="cls-7" d="m182.9688,199.9502h-5.5898v-.7793l2.9531-3.2812c.4375-.4961.7393-.8994.9053-1.21s.249-.6318.249-.9639c0-.4453-.1348-.8105-.4043-1.0957s-.6289-.4277-1.0781-.4277c-.5391,0-.958.1533-1.2568.46s-.4482.7334-.4482,1.2803h-1.084c0-.7852.2529-1.4199.7588-1.9043s1.1826-.7266,2.0303-.7266c.793,0,1.4199.208,1.8809.624s.6914.9697.6914,1.6611c0,.8398-.5352,1.8398-1.6055,3l-2.2852,2.4785h4.2832v.8848Z"/>
    <path class="cls-7" d="m189.4668,196.3115c0,1.2695-.2168,2.2129-.6504,2.8301s-1.1113.9258-2.0332.9258c-.9102,0-1.584-.3018-2.0215-.9053s-.6641-1.5049-.6797-2.7041v-1.4473c0-1.2539.2168-2.1855.6504-2.7949s1.1133-.9141,2.0391-.9141c.918,0,1.5938.2939,2.0273.8818s.6562,1.4951.668,2.7217v1.4062Zm-1.084-1.4824c0-.918-.1289-1.5869-.3867-2.0068s-.666-.6299-1.2246-.6299c-.5547,0-.959.209-1.2129.627s-.3848,1.0605-.3926,1.9277v1.7344c0,.9219.1338,1.6025.4014,2.042s.6729.6592,1.2158.6592c.5352,0,.9326-.207,1.1924-.6211s.3955-1.0664.4072-1.957v-1.7754Z"/>
    <path class="cls-7" d="m194.957,193.6104l.0293.7031c.4648-.5469,1.0918-.8203,1.8809-.8203.8867,0,1.4902.3398,1.8105,1.0195.2109-.3047.4854-.5508.8232-.7383s.7373-.2812,1.1982-.2812c1.3906,0,2.0977.7363,2.1211,2.209v4.248h-1.084v-4.1836c0-.4531-.1035-.792-.3105-1.0166s-.5547-.3369-1.043-.3369c-.4023,0-.7363.1201-1.002.3604s-.4199.5635-.4629.9697v4.207h-1.0898v-4.1543c0-.9219-.4512-1.3828-1.3535-1.3828-.7109,0-1.1973.3027-1.459.9082v4.6289h-1.084v-6.3398h1.0254Z"/>
  </g>
  <g id="wind-turbine-2" data-name="wind-turbine">
    <g id="tower-2" data-name="tower">
      <path class="cls-2" d="m286.6297,61.6639h-1.3113l-.6549,31.0701c0,.3276.5842.5931,1.3049.5931s1.3049-.2656,1.3049-.5931l-.6436-31.0701Z"/>
      <path class="cls-2" d="m286.0301,58.5817h0c.8466,0,1.5339.6873,1.5339,1.5339v2.0292c0,.443-.3597.8027-.8027.8027h-1.4625c-.443,0-.8027-.3597-.8027-.8027v-2.0292c0-.8466.6873-1.5339,1.5339-1.5339Z"/>
    </g>
    <g id="blades-2" data-name="blades">
      <path class="cls-2" d="m285.6584,60.151v-9.746l.1607-11.0075c.0028-.1891.1107-.3609.2798-.4454h0c.105-.0525.2298.0183.2385.1354l1.1434,15.3983c.0512.6891-.0053,1.3819-.1675,2.0536l-.9116,3.7767-.7433-.1652Z"/>
      <path class="cls-2" d="m286.5409,60.2956l8.4735,4.8149,9.491,5.5779c.163.0958.2591.2745.249.4633h0c-.0062.1173-.1295.1907-.2356.1404l-13.9528-6.6133c-.6244-.2959-1.1989-.6874-1.7028-1.1602l-2.8332-2.6585.5109-.5647Z"/>
      <path class="cls-2" d="m285.8871,61.0077l-8.4403,4.873-9.6131,5.3646c-.1651.0921-.3678.0846-.5256-.0196h0c-.098-.0647-.099-.2082-.0019-.2743l12.7636-8.6894c.5712-.3889,1.1995-.6864,1.8622-.8818l3.7265-1.0989.2286.7263Z"/>
    </g>
    <circle id="centre-2" data-name="centre" class="cls-2" cx="286.0336" cy="60.5214" r=".9511"/>
  </g>
  <g id="wind-turbine-3" data-name="wind-turbine">
    <g id="tower-3" data-name="tower">
      <path class="cls-2" d="m286.6297,61.6639h-1.3113l-.6549,31.0701c0,.3276.5842.5931,1.3049.5931s1.3049-.2656,1.3049-.5931l-.6436-31.0701Z"/>
      <path class="cls-2" d="m286.0301,58.5817h0c.8466,0,1.5339.6873,1.5339,1.5339v2.0292c0,.443-.3597.8027-.8027.8027h-1.4625c-.443,0-.8027-.3597-.8027-.8027v-2.0292c0-.8466.6873-1.5339,1.5339-1.5339Z"/>
    </g>
    <g id="blades-3" data-name="blades">
      <path class="cls-2" d="m285.6584,60.151v-9.746l.1607-11.0075c.0028-.1891.1107-.3609.2798-.4454h0c.105-.0525.2298.0183.2385.1354l1.1434,15.3983c.0512.6891-.0053,1.3819-.1675,2.0536l-.9116,3.7767-.7433-.1652Z"/>
      <path class="cls-2" d="m286.5409,60.2956l8.4735,4.8149,9.491,5.5779c.163.0958.2591.2745.249.4633h0c-.0062.1173-.1295.1907-.2356.1404l-13.9528-6.6133c-.6244-.2959-1.1989-.6874-1.7028-1.1602l-2.8332-2.6585.5109-.5647Z"/>
      <path class="cls-2" d="m285.8871,61.0077l-8.4403,4.873-9.6131,5.3646c-.1651.0921-.3678.0846-.5256-.0196h0c-.098-.0647-.099-.2082-.0019-.2743l12.7636-8.6894c.5712-.3889,1.1995-.6864,1.8622-.8818l3.7265-1.0989.2286.7263Z"/>
    </g>
    <circle id="centre-3" data-name="centre" class="cls-2" cx="286.0336" cy="60.5214" r=".9511"/>
  </g>
  <g id="wind-turbine-4" data-name="wind-turbine">
    <g id="tower-4" data-name="tower">
      <path class="cls-2" d="m286.6297,61.6639h-1.3113l-.6549,31.0701c0,.3276.5842.5931,1.3049.5931s1.3049-.2656,1.3049-.5931l-.6436-31.0701Z"/>
      <path class="cls-2" d="m286.0301,58.5817h0c.8466,0,1.5339.6873,1.5339,1.5339v2.0292c0,.443-.3597.8027-.8027.8027h-1.4625c-.443,0-.8027-.3597-.8027-.8027v-2.0292c0-.8466.6873-1.5339,1.5339-1.5339Z"/>
    </g>
    <g id="blades-4" data-name="blades">
      <path class="cls-2" d="m285.6584,60.151v-9.746l.1607-11.0075c.0028-.1891.1107-.3609.2798-.4454h0c.105-.0525.2298.0183.2385.1354l1.1434,15.3983c.0512.6891-.0053,1.3819-.1675,2.0536l-.9116,3.7767-.7433-.1652Z"/>
      <path class="cls-2" d="m286.5409,60.2956l8.4735,4.8149,9.491,5.5779c.163.0958.2591.2745.249.4633h0c-.0062.1173-.1295.1907-.2356.1404l-13.9528-6.6133c-.6244-.2959-1.1989-.6874-1.7028-1.1602l-2.8332-2.6585.5109-.5647Z"/>
      <path class="cls-2" d="m285.8871,61.0077l-8.4403,4.873-9.6131,5.3646c-.1651.0921-.3678.0846-.5256-.0196h0c-.098-.0647-.099-.2082-.0019-.2743l12.7636-8.6894c.5712-.3889,1.1995-.6864,1.8622-.8818l3.7265-1.0989.2286.7263Z"/>
    </g>
    <circle id="centre-4" data-name="centre" class="cls-2" cx="286.0336" cy="60.5214" r=".9511"/>
  </g>
  <g id="wind-turbine-5" data-name="wind-turbine">
    <g id="tower-5" data-name="tower">
      <path class="cls-2" d="m412.8745,130.83h-1.3113l-.6549,31.0701c0,.3276.5842.5931,1.3049.5931s1.3049-.2656,1.3049-.5931l-.6436-31.0701Z"/>
      <path class="cls-2" d="m412.2749,127.7478h0c.8466,0,1.5339.6873,1.5339,1.5339v2.0292c0,.443-.3597.8027-.8027.8027h-1.4625c-.443,0-.8027-.3597-.8027-.8027v-2.0292c0-.8466.6873-1.5339,1.5339-1.5339Z"/>
    </g>
    <g id="blades-5" data-name="blades">
      <path class="cls-2" d="m411.9032,129.317v-9.746l.1607-11.0075c.0028-.1891.1107-.3609.2798-.4454h0c.105-.0525.2298.0183.2385.1354l1.1434,15.3983c.0512.6891-.0053,1.3819-.1675,2.0536l-.9116,3.7767-.7433-.1652Z"/>
      <path class="cls-2" d="m412.7858,129.4617l8.4735,4.8149,9.491,5.5779c.163.0958.2591.2745.249.4633h0c-.0062.1173-.1295.1907-.2356.1404l-13.9528-6.6133c-.6244-.2959-1.1989-.6874-1.7028-1.1602l-2.8332-2.6585.5109-.5647Z"/>
      <path class="cls-2" d="m412.1319,130.1738l-8.4403,4.873-9.6131,5.3646c-.1651.0921-.3678.0846-.5256-.0196h0c-.098-.0647-.099-.2082-.0019-.2743l12.7636-8.6894c.5712-.3889,1.1995-.6864,1.8622-.8818l3.7265-1.0989.2286.7263Z"/>
    </g>
    <circle id="centre-5" data-name="centre" class="cls-2" cx="412.2784" cy="129.6874" r=".9511"/>
  </g>
  <g id="wind-turbine-6" data-name="wind-turbine">
    <g id="tower-6" data-name="tower">
      <path class="cls-2" d="m343.037,199.996h-1.3113l-.6549,31.0701c0,.3276.5842.5931,1.3049.5931s1.3049-.2656,1.3049-.5931l-.6436-31.0701Z"/>
      <path class="cls-2" d="m342.4374,196.9138h0c.8466,0,1.5339.6873,1.5339,1.5339v2.0292c0,.443-.3597.8027-.8027.8027h-1.4625c-.443,0-.8027-.3597-.8027-.8027v-2.0292c0-.8466.6873-1.5339,1.5339-1.5339Z"/>
    </g>
    <g id="blades-6" data-name="blades">
      <path class="cls-2" d="m342.0657,198.4831v-9.746l.1607-11.0075c.0028-.1891.1107-.3609.2798-.4454h0c.105-.0525.2298.0183.2385.1354l1.1434,15.3983c.0512.6891-.0053,1.3819-.1675,2.0536l-.9116,3.7767-.7433-.1652Z"/>
      <path class="cls-2" d="m342.9482,198.6277l8.4735,4.8149,9.491,5.5779c.163.0958.2591.2745.249.4633h0c-.0062.1173-.1295.1907-.2356.1404l-13.9528-6.6133c-.6244-.2959-1.1989-.6874-1.7028-1.1602l-2.8332-2.6585.5109-.5647Z"/>
      <path class="cls-2" d="m342.2944,199.3398l-8.4403,4.873-9.6131,5.3646c-.1651.0921-.3678.0846-.5256-.0196h0c-.098-.0647-.099-.2082-.0019-.2743l12.7636-8.6894c.5712-.3889,1.1995-.6864,1.8622-.8818l3.7265-1.0989.2286.7263Z"/>
    </g>
    <circle id="centre-6" data-name="centre" class="cls-2" cx="342.4408" cy="198.8535" r=".9511"/>
  </g>
  <g id="wind-turbine-7" data-name="wind-turbine">
    <g id="tower-7" data-name="tower">
      <path class="cls-2" d="m147.6261,199.996h-1.3113l-.6549,31.0701c0,.3276.5842.5931,1.3049.5931s1.3049-.2656,1.3049-.5931l-.6436-31.0701Z"/>
      <path class="cls-2" d="m147.0265,196.9138h0c.8466,0,1.5339.6873,1.5339,1.5339v2.0292c0,.443-.3597.8027-.8027.8027h-1.4625c-.443,0-.8027-.3597-.8027-.8027v-2.0292c0-.8466.6873-1.5339,1.5339-1.5339Z"/>
    </g>
    <g id="blades-7" data-name="blades">
      <path class="cls-2" d="m146.6548,198.4831v-9.746l.1607-11.0075c.0028-.1891.1107-.3609.2798-.4454h0c.105-.0525.2298.0183.2385.1354l1.1434,15.3983c.0512.6891-.0053,1.3819-.1675,2.0536l-.9116,3.7767-.7433-.1652Z"/>
      <path class="cls-2" d="m147.5373,198.6277l8.4735,4.8149,9.491,5.5779c.163.0958.2591.2745.249.4633h0c-.0062.1173-.1295.1907-.2356.1404l-13.9528-6.6133c-.6244-.2959-1.1989-.6874-1.7028-1.1602l-2.8332-2.6585.5109-.5647Z"/>
      <path class="cls-2" d="m146.8835,199.3398l-8.4403,4.873-9.6131,5.3646c-.1651.0921-.3678.0846-.5256-.0196h0c-.098-.0647-.099-.2082-.0019-.2743l12.7636-8.6894c.5712-.3889,1.1995-.6864,1.8622-.8818l3.7265-1.0989.2286.7263Z"/>
    </g>
    <circle id="centre-7" data-name="centre" class="cls-2" cx="147.0299" cy="198.8535" r=".9511"/>
  </g>
  <g>
    <line class="cls-1" x1="246.5159" y1="132.9366" x2="222.3333" y2="157.1193"/>
    <polygon class="cls-7" points="221.9215 153.1931 222.6717 153.2198 222.5363 156.9152 226.2322 156.7803 226.2589 157.5305 221.7576 157.6939 221.9215 153.1931"/>
  </g>
  <g>
    <line class="cls-1" x1="283.1119" y1="96.3406" x2="260.8453" y2="118.6073"/>
    <polygon class="cls-7" points="279.1857 95.9289 279.2124 96.679 282.9079 96.5436 282.7729 100.2396 283.5231 100.2663 283.6866 95.7649 279.1857 95.9289"/>
  </g>
  <g>
    <path class="cls-7" d="m246.1484,122.0283l-3.5332,7.9219h-1.1367l3.5215-7.6406h-4.6172v-.8906h5.7656v.6094Z"/>
    <path class="cls-7" d="m252.9688,129.9502h-5.5898v-.7793l2.9531-3.2812c.4375-.4961.7393-.8994.9053-1.21s.249-.6318.249-.9639c0-.4453-.1348-.8105-.4043-1.0957s-.6289-.4277-1.0781-.4277c-.5391,0-.958.1533-1.2568.46s-.4482.7334-.4482,1.2803h-1.084c0-.7852.2529-1.4199.7588-1.9043s1.1826-.7266,2.0303-.7266c.793,0,1.4199.208,1.8809.624s.6914.9697.6914,1.6611c0,.8398-.5352,1.8398-1.6055,3l-2.2852,2.4785h4.2832v.8848Z"/>
    <path class="cls-7" d="m259.4668,126.3115c0,1.2695-.2168,2.2129-.6504,2.8301s-1.1113.9258-2.0332.9258c-.9102,0-1.584-.3018-2.0215-.9053s-.6641-1.5049-.6797-2.7041v-1.4473c0-1.2539.2168-2.1855.6504-2.7949s1.1133-.9141,2.0391-.9141c.918,0,1.5938.2939,2.0273.8818s.6562,1.4951.668,2.7217v1.4062Zm-1.084-1.4824c0-.918-.1289-1.5869-.3867-2.0068s-.666-.6299-1.2246-.6299c-.5547,0-.959.209-1.2129.627s-.3848,1.0605-.3926,1.9277v1.7344c0,.9219.1338,1.6025.4014,2.042s.6729.6592,1.2158.6592c.5352,0,.9326-.207,1.1924-.6211s.3955-1.0664.4072-1.957v-1.7754Z"/>
    <path class="cls-7" d="m264.957,123.6104l.0293.7031c.4648-.5469,1.0918-.8203,1.8809-.8203.8867,0,1.4902.3398,1.8105,1.0195.2109-.3047.4854-.5508.8232-.7383s.7373-.2812,1.1982-.2812c1.3906,0,2.0977.7363,2.1211,2.209v4.248h-1.084v-4.1836c0-.4531-.1035-.792-.3105-1.0166s-.5547-.3369-1.043-.3369c-.4023,0-.7363.1201-1.002.3604s-.4199.5635-.4629.9697v4.207h-1.0898v-4.1543c0-.9219-.4512-1.3828-1.3535-1.3828-.7109,0-1.1973.3027-1.459.9082v4.6289h-1.084v-6.3398h1.0254Z"/>
  </g>
  <g id="wind-turbine-8" data-name="wind-turbine">
    <g id="tower-8" data-name="tower">
      <path class="cls-3" d="m218.1352,130.83h-1.3113l-.6549,31.0701c0,.3276.5842.5931,1.3049.5931s1.3049-.2656,1.3049-.5931l-.6436-31.0701Z"/>
      <path class="cls-3" d="m217.5356,127.7478h0c.8466,0,1.5339.6873,1.5339,1.5339v2.0292c0,.443-.3597.8027-.8027.8027h-1.4625c-.443,0-.8027-.3597-.8027-.8027v-2.0292c0-.8466.6873-1.5339,1.5339-1.5339Z"/>
    </g>
    <g id="blades-8" data-name="blades">
      <path class="cls-3" d="m217.1639,129.317v-9.746l.1607-11.0075c.0028-.1891.1107-.3609.2798-.4454h0c.105-.0525.2298.0183.2385.1354l1.1434,15.3983c.0512.6891-.0053,1.3819-.1675,2.0536l-.9116,3.7767-.7433-.1652Z"/>
      <path class="cls-3" d="m218.0464,129.4617l8.4735,4.8149,9.491,5.5779c.163.0958.2591.2745.249.4633h0c-.0062.1173-.1295.1907-.2356.1404l-13.9528-6.6133c-.6244-.2959-1.1989-.6874-1.7028-1.1602l-2.8332-2.6585.5109-.5647Z"/>
      <path class="cls-3" d="m217.3926,130.1738l-8.4403,4.873-9.6131,5.3646c-.1651.0921-.3678.0846-.5256-.0196h0c-.098-.0647-.099-.2082-.0019-.2743l12.7636-8.6894c.5712-.3889,1.1995-.6864,1.8622-.8818l3.7265-1.0989.2286.7263Z"/>
    </g>
    <circle id="centre-8" data-name="centre" class="cls-3" cx="217.539" cy="129.6874" r=".9511"/>
  </g>
</svg>