<?xml version="1.0" encoding="UTF-8"?>
<svg id="Layer_2" data-name="Layer 2" xmlns="http://www.w3.org/2000/svg" viewBox="0 0 34.0283276981 34.0283276981">
  <defs>
    <style>
      .cls-1 {
        fill: #fbac1d;
        stroke-width: 0px;
      }

      .cls-2 {
        fill: none;
        stroke: #fff;
        stroke-miterlimit: 10;
        stroke-width: .5px;
      }
    </style>
  </defs>
  <g id="Layer_1-2" data-name="Layer 1">
    <g>
      <rect class="cls-1" x=".0000000008" y=".0000000008" width="34.0283276966" height="34.0283276966" transform="translate(34.0283276989 34.0283276974) rotate(180)"/>
      <polyline class="cls-2" points="2.4751014474 28.0750380285 19.953421583 28.0750380285 31.5532262507 7.9745491927"/>
      <line class="cls-2" x1="29.5491892892" y1="11.447204442" x2="29.5491892892" y2="22.2758344781"/>
      <g>
        <polygon class="cls-2" points="19.0377840448 25.9879372133 2.6992961209 25.9879372133 14.4905841222 5.5648273084 30.8290720461 5.5648273084 19.0377840448 25.9879372133"/>
        <line class="cls-2" x1="18.5752061031" y1="5.5648273084" x2="6.7839181019" y2="25.9879372133"/>
        <line class="cls-2" x1="22.6598280841" y1="5.5648273084" x2="10.8685400828" y2="25.9879372133"/>
        <line class="cls-2" x1="26.7444500651" y1="5.5648273084" x2="14.9531620638" y2="25.9879372133"/>
        <line class="cls-2" x1="28.4708144458" y1="9.6494492894" x2="12.1323265219" y2="9.6494492894"/>
        <line class="cls-2" x1="26.1125568456" y1="13.7340712704" x2="9.7740689217" y2="13.7340712704"/>
        <line class="cls-2" x1="23.7542992453" y1="17.8186932514" x2="7.4158113214" y2="17.8186932514"/>
        <line class="cls-2" x1="21.3960416451" y1="21.9033152323" x2="5.0575537211" y2="21.9033152323"/>
      </g>
      <line class="cls-2" x1="6.7839181019" y1="28.0750380285" x2="6.7839181019" y2="30.8119397322"/>
      <line class="cls-2" x1="14.9531620638" y1="28.0750380285" x2="14.9531620638" y2="30.8119397322"/>
    </g>
  </g>
</svg>