<?xml version="1.0" encoding="UTF-8"?>
<svg id="Layer_2" data-name="Layer 2" xmlns="http://www.w3.org/2000/svg" viewBox="0 0 34.0283276981 34.0283276981">
  <defs>
    <style>
      .cls-1 {
        fill: #408dcb;
        stroke-width: 0px;
      }

      .cls-2 {
        fill: none;
        stroke: #fff;
        stroke-miterlimit: 10;
        stroke-width: .5px;
      }
    </style>
  </defs>
  <g id="Layer_1-2" data-name="Layer 1">
    <g>
      <rect class="cls-1" width="34.0283276981" height="34.0283276981"/>
      <g>
        <g>
          <g id="_Radial_Repeat_" data-name="&amp;lt;Radial Repeat&amp;gt;">
            <path class="cls-2" d="M18.2281947115,17.8448399461l.7377472817.8526423502c.0967537419-.0846595241.1209421773-.090706633.2479314635-.1995545926,3.7854901504,2.3886080023,4.1241282469,9.1553228239,4.1241282469,9.1553228239l-.4958629271.272119899-4.3115886218-7.9942779215-.3144496611-.5805224512-.1935074837-.362826532-.3991091852-.7498414994"/>
          </g>
          <g id="_Radial_Repeat_-2" data-name="&amp;lt;Radial Repeat&amp;gt;">
            <path class="cls-2" d="M16.3112612008,16.7745016767l-.8889250034-.0241884355-.4112034029-.0120942177-.6591348664-.0181413266-9.0767104086-.2660727901-.0181413266.5623811246s6.0289675399,3.0961197396,9.9898238474,1.0159142896c-.0302355443-.1693190483-.0544239798-.1966996871-.0786124153-.3236889733l1.1247622492-.2024094981"/>
          </g>
          <g id="_Radial_Repeat_-3" data-name="&amp;lt;Radial Repeat&amp;gt;">
            <path class="cls-2" d="M18.1616765139,16.4177222536l.4958629271-.7982183704.2176959192-.3567794231.3446852054-.5563340157,4.7651217868-7.7282051313-.4777216004-.2963083345s-5.6963765522,3.6766421908-5.8717427094,8.1454556432c.1632719394.0544239798.0709442619.1028008507.1918864392.1511777217l-.2946872899,1.0945267048"/>
          </g>
        </g>
        <path class="cls-2" d="M6.8585782577,12.7383816099c3.4076684266,1.7793995292,5.9465677549-1.5199433995,8.8326669914,0"/>
        <path class="cls-2" d="M12.0108838331,11.1063973749c.1102359708-.0367453236.2112856108-.0643043163.3215215816-.1010496399,1.3136453191-.376639567,2.5721726528-.7073474795,3.9041906337,0"/>
        <path class="cls-2" d="M8.0068955108,9.0337415585c3.4076684266,1.7793995292,5.9465677549-1.5199433995,8.8326669914,0"/>
        <g>
          <line class="cls-2" x1="16.4541395364" y1="28.7024360996" x2="16.9462076318" y2="18.1955722603"/>
          <polyline class="cls-2" points="17.8653681795 18.1411482806 17.9016508327 18.7579533849 18.4202484788 28.7023601574"/>
        </g>
        <circle class="cls-2" cx="17.3480997629" cy="17.1671553821" r="1.1115037145"/>
      </g>
    </g>
  </g>
</svg>