<?xml version="1.0" encoding="UTF-8"?>
<svg id="Layer_1" data-name="Layer 1" xmlns="http://www.w3.org/2000/svg" width="150" height="150" xmlns:xlink="http://www.w3.org/1999/xlink" viewBox="0 0 150 150">
  <defs>
    <clipPath id="clippath">
      <circle cx="76.82" cy="80.03" r="65.96" fill="none"/>
    </clipPath>
    <pattern id="New_Pattern_2" data-name="New Pattern 2" x="0" y="0" width="56.96" height="41.7" patternTransform="translate(251.06 3576.55) rotate(-45) scale(3.9)" patternUnits="userSpaceOnUse" viewBox="0 0 56.96 41.7">
      <g>
        <rect width="56.96" height="41.7" fill="none"/>
        <line y1=".64" x2="56.96" y2=".64" fill="none" stroke="#4da353" stroke-miterlimit="10" stroke-width=".75"/>
        <line y1="1.95" x2="56.96" y2="1.95" fill="none" stroke="#4da353" stroke-miterlimit="10" stroke-width=".75"/>
        <line y1="3.25" x2="56.96" y2="3.25" fill="none" stroke="#4da353" stroke-miterlimit="10" stroke-width=".75"/>
        <line y1="4.55" x2="56.96" y2="4.55" fill="none" stroke="#4da353" stroke-miterlimit="10" stroke-width=".75"/>
        <line y1="5.86" x2="56.96" y2="5.86" fill="none" stroke="#4da353" stroke-miterlimit="10" stroke-width=".75"/>
        <line y1="7.16" x2="56.96" y2="7.16" fill="none" stroke="#4da353" stroke-miterlimit="10" stroke-width=".75"/>
        <line y1="8.46" x2="56.96" y2="8.46" fill="none" stroke="#4da353" stroke-miterlimit="10" stroke-width=".75"/>
        <line y1="9.77" x2="56.96" y2="9.77" fill="none" stroke="#4da353" stroke-miterlimit="10" stroke-width=".75"/>
        <line y1="11.07" x2="56.96" y2="11.07" fill="none" stroke="#4da353" stroke-miterlimit="10" stroke-width=".75"/>
        <line y1="12.38" x2="56.96" y2="12.38" fill="none" stroke="#4da353" stroke-miterlimit="10" stroke-width=".75"/>
        <line y1="13.68" x2="56.96" y2="13.68" fill="none" stroke="#4da353" stroke-miterlimit="10" stroke-width=".75"/>
        <line y1="14.98" x2="56.96" y2="14.98" fill="none" stroke="#4da353" stroke-miterlimit="10" stroke-width=".75"/>
        <line y1="16.29" x2="56.96" y2="16.29" fill="none" stroke="#4da353" stroke-miterlimit="10" stroke-width=".75"/>
        <line y1="17.59" x2="56.96" y2="17.59" fill="none" stroke="#4da353" stroke-miterlimit="10" stroke-width=".75"/>
        <line y1="18.89" x2="56.96" y2="18.89" fill="none" stroke="#4da353" stroke-miterlimit="10" stroke-width=".75"/>
        <line y1="20.2" x2="56.96" y2="20.2" fill="none" stroke="#4da353" stroke-miterlimit="10" stroke-width=".75"/>
        <line y1="21.5" x2="56.96" y2="21.5" fill="none" stroke="#4da353" stroke-miterlimit="10" stroke-width=".75"/>
        <line y1="22.8" x2="56.96" y2="22.8" fill="none" stroke="#4da353" stroke-miterlimit="10" stroke-width=".75"/>
        <line y1="24.11" x2="56.96" y2="24.11" fill="none" stroke="#4da353" stroke-miterlimit="10" stroke-width=".75"/>
        <line y1="25.41" x2="56.96" y2="25.41" fill="none" stroke="#4da353" stroke-miterlimit="10" stroke-width=".75"/>
        <line y1="26.71" x2="56.96" y2="26.71" fill="none" stroke="#4da353" stroke-miterlimit="10" stroke-width=".75"/>
        <line y1="28.02" x2="56.96" y2="28.02" fill="none" stroke="#4da353" stroke-miterlimit="10" stroke-width=".75"/>
        <line y1="29.32" x2="56.96" y2="29.32" fill="none" stroke="#4da353" stroke-miterlimit="10" stroke-width=".75"/>
        <line y1="30.62" x2="56.96" y2="30.62" fill="none" stroke="#4da353" stroke-miterlimit="10" stroke-width=".75"/>
        <line y1="31.93" x2="56.96" y2="31.93" fill="none" stroke="#4da353" stroke-miterlimit="10" stroke-width=".75"/>
        <line y1="33.23" x2="56.96" y2="33.23" fill="none" stroke="#4da353" stroke-miterlimit="10" stroke-width=".75"/>
        <line y1="34.54" x2="56.96" y2="34.54" fill="none" stroke="#4da353" stroke-miterlimit="10" stroke-width=".75"/>
        <line y1="35.84" x2="56.96" y2="35.84" fill="none" stroke="#4da353" stroke-miterlimit="10" stroke-width=".75"/>
        <line y1="37.14" x2="56.96" y2="37.14" fill="none" stroke="#4da353" stroke-miterlimit="10" stroke-width=".75"/>
        <line y1="38.45" x2="56.96" y2="38.45" fill="none" stroke="#4da353" stroke-miterlimit="10" stroke-width=".75"/>
        <line y1="39.75" x2="56.96" y2="39.75" fill="none" stroke="#4da353" stroke-miterlimit="10" stroke-width=".75"/>
        <line y1="41.05" x2="56.96" y2="41.05" fill="none" stroke="#4da353" stroke-miterlimit="10" stroke-width=".75"/>
      </g>
    </pattern>
  </defs>
  <g clip-path="url(#clippath)">
    <g>
      <line x1="8.38" y1="79.32" x2="144.93" y2="79.32" fill="none" stroke="#4da353" stroke-miterlimit="10" stroke-width="2"/>
      <path d="m144.93,112.09c-79.33-17.45-91.37,22.17-136.21-5.19v-20.89h136.21v26.08Z" fill="url(#New_Pattern_2)"/>
      <polygon points="103.9 74.15 94.99 54.66 100.32 56.12 93.04 40.18 96.08 41.01 87.3 18.49 78.67 41.01 81.54 40.28 74.42 56.12 79.59 54.68 70.85 74.15 85.36 70.12 85.36 78.1 89.26 78.1 89.26 70.15 103.9 74.15" fill="#4da353"/>
      <g>
        <path d="m73.14,45.33c0-4.55-2.83-8.43-6.83-9.99-1.76-4.89-6.43-8.4-11.93-8.4-7.01,0-12.7,5.68-12.7,12.7,0,1.89.42,3.67,1.16,5.28-2.6,1.87-4.31,4.92-4.31,8.37,0,5.7,4.62,10.31,10.31,10.31,2,0,3.86-.58,5.44-1.56,1.69,2.21,4.34,3.64,7.33,3.64,5.1,0,9.23-4.13,9.23-9.23,0-1.29-.27-2.52-.75-3.64,1.88-1.93,3.04-4.57,3.04-7.48Z" fill="#4da353"/>
        <rect x="52.9" y="54.43" width="3.89" height="23.44" fill="#4da353"/>
      </g>
      <path d="m8.71,112.94v53.06h136.21v-47.88c-79.33-17.45-91.37,22.17-136.21-5.19Zm26.34,28.11c-3.55,0-6.43-2.88-6.43-6.43s2.88-6.43,6.43-6.43,6.43,2.88,6.43,6.43-2.88,6.43-6.43,6.43Zm14.39-6.01c-1.47,0-2.65-1.19-2.65-2.65s1.19-2.65,2.65-2.65,2.65,1.19,2.65,2.65-1.19,2.65-2.65,2.65Zm11.69-9.32c0-1.82,1.48-3.3,3.3-3.3s3.3,1.48,3.3,3.3-1.48,3.3-3.3,3.3-3.3-1.48-3.3-3.3Zm9.18,17.45c-2.25,0-4.07-1.82-4.07-4.07s1.82-4.07,4.07-4.07,4.07,1.82,4.07,4.07-1.82,4.07-4.07,4.07Zm11.93-9.59c-3.65,0-6.6-2.96-6.6-6.6s2.96-6.6,6.6-6.6,6.6,2.96,6.6,6.6-2.96,6.6-6.6,6.6Zm19.12,0c-1.49,0-2.69-1.21-2.69-2.69s1.21-2.69,2.69-2.69,2.69,1.21,2.69,2.69-1.21,2.69-2.69,2.69Zm-.33-9.35c-2.34,0-4.25-1.9-4.25-4.25s1.9-4.25,4.25-4.25,4.24,1.9,4.24,4.25-1.9,4.25-4.24,4.25Zm24.75,7.5c-3.32,0-6-2.69-6-6s2.69-6,6-6,6,2.69,6,6-2.69,6-6,6Z" fill="#4da353"/>
    </g>
  </g>
</svg>