<?xml version="1.0" encoding="UTF-8"?>
<svg id="Layer_1" data-name="Layer 1" xmlns="http://www.w3.org/2000/svg" width="150" height="150" viewBox="0 0 150 150">
  <path d="m132.88,29.47l4.21-14.11-2.66-.79-2.34,7.84-4.73-6.47-2.24,1.65,5.99,8.15-.5,1.65-12.62,4.8,1.58-5.53h0s3.75-5.69,3.75-5.69l-2.31-1.52-3.1,4.69-6.1-4.16-1.55,2.3,6.43,4.39-2.01,7.03v.03s-7.18,9.37-7.18,9.37c-.33.03-.65.08-.96.14l-2.79-7.9-3.75-2.32,2.05-5.64h0s8-10.67,8-10.67l-2.21-1.66-6.85,9.13-1.44-1.73v-6.57h-2.77v7.57l2.6,3.15-1.77,4.92h-.01l-10.68-6.65-.64-4.81-2.74.36.8,6.11,17.11,10.64.46,1.29c-1.72-.9-3.86-1.36-6.49-1.08l-1.24.12v1.25c0,2.82.98,6.18,3.58,8.34-3.06,2.3-5.04,5.06-6.07,6.76l-.51.75,1.65,4.14.54,1.34.75.14c.21.04,3.83.66,8.92-.42.17,6.96-2.21,11.01-3.08,12.26l-15.12.8-.8.04v-12.24h-6.24v-6.53H24.65v74.81h6.23v6.53h53.16v-29.23c2.75.17,5.52.17,8.16,0l2.5,28.08h5.42l1.47-29.56c.44-.11.86-.24,1.26-.37l2.67,29.94h5.42l1.74-35.25c5.92-4.4,9.68-9.95,11.23-16.56,2.96-12.67-2.88-25.74-7.11-33.08,4.5-2.16,6.18-7.19,5.85-10.64l-.11-1.19-1.19-.06c-3.15-.15-5.62.66-7.46,1.76l2.78-3.64,16.2-6.17Zm-38.17,26.48c-.14.1-.3.18-.47.25-.11.06-.22.1-.33.14-.24-.64-.68-1.69-.68-1.69,0,0,.91-1.42,1.63-2.31.26.3.46.59.6.87.08.18.15.35.19.5.28.98-.18,1.74-.94,2.24ZM30.87,126.14h-3.46V56.86h47.62v3.76H30.87v65.51Zm50.4,6.53h-47.63V63.39h47.63v69.28Zm18.97-87.23c-2.24-1.38-2.95-3.83-3.18-5.41,3.78.06,5.66,2.12,6.57,3.91-1.23.4-2.35.91-3.39,1.49Zm5.77,5.33c-.79,0-1.42-.64-1.42-1.42s.64-1.42,1.42-1.42,1.43.64,1.43,1.42-.64,1.42-1.43,1.42Zm13.89-10.47c-.21,2.21-1.38,5.37-4.51,6.75-1.23-1.95-2.14-3.18-2.37-3.47,1.05-1.19,3.24-3.06,6.87-3.28Z" fill="#a7a9ac"/>
  <rect x="44.79" y="111.91" width="2.77" height="14.95" fill="#a7a9ac"/>
  <polygon points="68.29 91.5 65.53 91.5 65.53 98.59 61.38 98.1 61.38 91.5 58.61 91.5 58.61 97.77 54.47 97.29 54.47 91.5 51.71 91.5 51.71 96.96 47.56 96.48 47.56 91.5 44.79 91.5 44.79 96.15 42.22 95.85 41.9 98.6 44.79 98.94 44.79 106.45 47.56 106.45 47.56 99.26 51.71 99.75 51.71 106.45 54.47 106.45 54.47 100.07 58.61 100.56 58.61 106.45 61.38 106.45 61.38 100.88 65.53 101.37 65.53 106.45 68.29 106.45 68.29 101.7 71.69 102.09 72.01 99.35 68.29 98.91 68.29 91.5" fill="#a7a9ac"/>
  <polygon points="42.18 81.51 44.79 81.23 44.79 86.05 47.56 86.05 47.56 80.94 51.71 80.51 51.71 86.05 54.47 86.05 54.47 80.22 58.61 79.79 58.61 86.05 61.38 86.05 61.38 79.5 65.53 79.06 65.53 86.05 68.29 86.05 68.29 78.77 72.02 78.38 71.73 75.63 68.29 75.99 68.29 71.09 65.53 71.09 65.53 76.28 61.38 76.72 61.38 71.09 58.61 71.09 58.61 77 54.47 77.44 54.47 71.09 51.71 71.09 51.71 77.73 47.56 78.16 47.56 71.09 44.79 71.09 44.79 78.45 41.89 78.76 42.18 81.51" fill="#a7a9ac"/>
  <rect x="51.71" y="111.91" width="2.77" height="14.95" fill="#a7a9ac"/>
  <rect x="58.61" y="111.91" width="2.77" height="14.95" fill="#a7a9ac"/>
</svg>