<?xml version="1.0" encoding="UTF-8"?>
<svg id="Layer_1" data-name="Layer 1" xmlns="http://www.w3.org/2000/svg" width="150" height="150" viewBox="0 0 150 150">
  <g>
    <polyline points="116.68 130.56 116.93 87.4 110.95 85.26 111.14 130.56" fill="#fff" stroke="#4da353" stroke-miterlimit="10" stroke-width="2"/>
    <g>
      <path d="m120.09,67.6c4.01,0,7.27-3.25,7.27-7.27s-3.25-7.27-7.27-7.27-7.27,3.25-7.27,7.27,3.25,7.27,7.27,7.27Zm4.99,31.75c-1.94-3.77-5.86-6.36-10.4-6.36-1.75,0-3.4.39-4.88,1.08-.97-.6-2.11-.95-3.34-.95-3.51,0-6.36,2.85-6.36,6.36,0,2.23,1.15,4.19,2.89,5.33.05,5.03,3.28,9.29,7.78,10.89,2.01,3.13,5.52,5.21,9.51,5.21,6.25,0,11.31-5.07,11.31-11.31,0-4.54-2.67-8.44-6.53-10.24Z" fill="#4da353"/>
      <g>
        <polygon points="113.8 52.53 112.98 64.83 107.61 58.04 102.98 59.78 112.35 74.36 111.79 82.93 116.23 84.85 120.08 54.29 113.8 52.53" fill="#fff"/>
        <polygon points="113.8 52.53 112.98 64.83 107.61 58.04 102.98 59.78 112.35 74.36 111.79 82.93 116.23 84.85 120.08 54.29 113.8 52.53" fill="none" stroke="#4da353" stroke-miterlimit="10" stroke-width="2"/>
      </g>
      <path d="m108.77,66.66c4.46,0,8.38-2.29,10.66-5.76,1.9,1.59,4.34,2.54,7,2.54,6.03,0,10.92-4.89,10.92-10.92,0-4.74-3.02-8.76-7.23-10.27.86-1.45,1.36-3.14,1.36-4.95,0-5.39-4.37-9.77-9.77-9.77-2.49,0-4.76.94-6.49,2.48-1.23-.63-2.62-1-4.09-1-4.77,0-8.66,3.73-8.93,8.44-2.37.55-4.15,2.67-4.15,5.21,0,1.13.36,2.18.96,3.05-1.86,2.22-2.99,5.07-2.99,8.19,0,7.04,5.71,12.75,12.75,12.75Zm23.47,21.12c.57-1.36.89-2.85.89-4.41,0-6.25-5.07-11.32-11.32-11.32-2.92,0-5.57,1.11-7.58,2.93-.72-.2-1.47-.32-2.25-.32-3.4,0-6.31,2.04-7.6,4.96-7.33,1.01-12.98,7.29-12.98,14.9,0,8.32,6.74,15.06,15.06,15.06,4.15,0,7.91-1.68,10.64-4.4,2.13,3.43,5.93,5.73,10.26,5.73,6.67,0,12.08-5.41,12.08-12.08,0-4.94-2.96-9.17-7.2-11.05Z" fill="#4da353"/>
    </g>
  </g>
  <g>
    <polygon points="120.48 124.21 99.97 86.11 106.51 87.9 94.93 62.56 98.05 63.41 80.18 17.59 62.66 63.29 65.54 62.56 54.16 87.91 60.33 86.2 40.19 124.23 59.06 117.31 53.62 129.43 80.15 117.96 104.61 126.93 100.27 116.92 120.48 124.21" fill="#fff"/>
    <g>
      <polyline points="83.77 131.13 83.77 102.96 76.48 102.96 76.48 131.13" fill="#fff" stroke="#005447" stroke-miterlimit="10" stroke-width="2"/>
      <g>
        <polygon points="66.34 96.33 93.5 96.33 80.41 119.26 66.34 96.33" fill="#fff"/>
        <polygon points="114.21 118.79 94.08 81.43 101.19 83.37 89.45 57.68 94.35 59.01 80.2 22.71 66.28 59.01 70.92 57.83 59.44 83.37 66.17 81.5 48.56 114.75 65.45 110.31 60.52 121.28 80.14 114.74 101.19 123.69 95.94 112.21 114.21 118.79" fill="#005447"/>
      </g>
    </g>
  </g>
  <g>
    <path d="m76.55,88.92c0-7.54-4.58-14.36-11.39-17.3.12-.92.17-1.83.17-2.73,0-5.37-1.89-10.49-5.35-14.57.11-.69.17-1.38.17-2.06,0-7.24-5.89-13.13-13.13-13.13-3.59,0-6.92,1.42-9.38,3.95-.73-.12-1.48-.19-2.22-.19-7.24,0-13.13,5.89-13.13,13.13,0,.9.09,1.79.28,2.67-1.12,2.21-1.86,4.57-2.2,7.03-6,3.46-9.8,9.94-9.8,16.91,0,4.87,1.86,9.59,5.14,13.17-.31,1.24-.47,2.5-.47,3.77,0,6.87,4.46,12.7,10.62,14.8,1.47,1.77,3.54,3.04,5.9,3.48,3.06,4.1,7.82,6.52,12.98,6.52,6.89,0,12.77-4.33,15.11-10.4,4.03-.55,7.16-4,7.16-8.19,0-.15,0-.3-.01-.45,5.87-3.32,9.56-9.55,9.56-16.4Z" fill="#fff"/>
    <g>
      <path d="m44.69,94.23c-4.54,0-8.55,2.28-10.95,5.76-3.99.06-7.22,3.31-7.22,7.32s3.07,7.1,6.93,7.31c2.36,3.72,6.5,6.2,11.23,6.2,7.34,0,13.29-5.95,13.29-13.29s-5.95-13.29-13.29-13.29Z" fill="#4da353"/>
      <polyline points="43.88 131.88 43.62 117.18 31.15 105.46 33.97 101.71 45.42 111.45 53.1 90.67 57.34 92.42 49.92 116.29 49.72 131.88" fill="#fff" stroke="#4da353" stroke-miterlimit="10" stroke-width="2"/>
      <path d="m73.21,88.75c0-7.23-4.83-13.31-11.44-15.23.31-1.39.49-2.83.49-4.32,0-5.24-2.07-9.99-5.43-13.49.24-.87.38-1.79.38-2.74,0-5.68-4.61-10.29-10.29-10.29-3.38,0-6.36,1.63-8.24,4.15-.97-.31-2.01-.47-3.08-.47-5.68,0-10.29,4.61-10.29,10.29,0,1.02.15,2.01.43,2.94-1.38,2.43-2.25,5.19-2.47,8.13-5.56,2.66-9.4,8.32-9.4,14.9,0,4.81,2.07,9.13,5.35,12.15-.5,1.37-.79,2.84-.79,4.38,0,7.03,5.7,12.73,12.73,12.73s12.73-5.7,12.73-12.73c0-.82-.08-1.62-.23-2.4,2.03,3.48,5.34,6.11,9.29,7.25-.09.39-.14.8-.14,1.21,0,3.06,2.48,5.55,5.55,5.55s5.55-2.48,5.55-5.55c0-.65-.12-1.27-.32-1.85,5.67-2.42,9.64-8.04,9.64-14.6Z" fill="#4da353"/>
    </g>
  </g>
</svg>