<?xml version="1.0" encoding="UTF-8"?>
<svg id="Layer_1" data-name="Layer 1" xmlns="http://www.w3.org/2000/svg" width="150" height="150" viewBox="0 0 150 150">
  <g>
    <polyline points="117.6 131.79 117.86 87.68 111.75 85.5 111.94 131.79" fill="#fff" stroke="#4da353" stroke-miterlimit="10" stroke-width="2"/>
    <g>
      <path d="m121.09,67.44c4.1,0,7.43-3.33,7.43-7.43s-3.33-7.43-7.43-7.43-7.43,3.33-7.43,7.43,3.33,7.43,7.43,7.43Zm5.1,32.45c-1.98-3.86-5.99-6.5-10.63-6.5-1.78,0-3.47.4-4.99,1.1-.99-.61-2.16-.97-3.41-.97-3.59,0-6.5,2.91-6.5,6.5,0,2.28,1.18,4.29,2.96,5.45.05,5.14,3.36,9.5,7.96,11.13,2.06,3.2,5.64,5.32,9.73,5.32,6.39,0,11.57-5.18,11.57-11.56,0-4.64-2.73-8.62-6.67-10.47Z" fill="#4da353"/>
      <g>
        <polygon points="114.66 52.04 113.82 64.61 108.33 57.67 103.6 59.45 113.18 74.35 112.6 83.11 117.14 85.07 121.08 53.84 114.66 52.04" fill="#fff"/>
        <polygon points="114.66 52.04 113.82 64.61 108.33 57.67 103.6 59.45 113.18 74.35 112.6 83.11 117.14 85.07 121.08 53.84 114.66 52.04" fill="none" stroke="#4da353" stroke-miterlimit="10" stroke-width="2"/>
      </g>
      <path d="m106.72,66.79c5.39,0,10.14-2.7,13.01-6.81,2.02,1.99,4.79,3.23,7.84,3.23,6.16,0,11.16-5,11.16-11.16,0-4.84-3.09-8.95-7.39-10.5.88-1.49,1.39-3.21,1.39-5.06,0-5.51-4.47-9.98-9.98-9.98-2.55,0-4.87.96-6.63,2.54-1.25-.65-2.67-1.02-4.18-1.02-4.52,0-8.26,3.27-9.01,7.58-6.91,1.71-12.04,7.93-12.04,15.36,0,8.75,7.09,15.84,15.84,15.84Zm26.79,21.28c.59-1.39.91-2.91.91-4.51,0-6.39-5.18-11.57-11.57-11.57-2.98,0-5.69,1.14-7.75,2.99-.73-.21-1.5-.32-2.3-.32-3.47,0-6.45,2.08-7.77,5.07-7.5,1.04-13.27,7.45-13.27,15.23,0,8.5,6.89,15.4,15.4,15.4,4.24,0,8.09-1.72,10.87-4.5,2.18,3.51,6.06,5.86,10.49,5.86,6.82,0,12.35-5.53,12.35-12.35,0-5.04-3.03-9.38-7.36-11.29Z" fill="#4da353"/>
    </g>
  </g>
  <g>
    <polygon points="121.49 125.3 100.52 86.36 107.21 88.19 95.2 61.91 99.78 63.16 80.29 13.17 61.17 63.03 65.5 61.93 53.69 88.2 60.01 86.45 39.42 125.33 58.71 118.26 53.14 130.64 80.26 118.92 105.26 128.08 100.83 117.85 121.49 125.3" fill="#fff"/>
    <g>
      <polyline points="83.96 132.38 83.96 103.58 76.52 103.58 76.52 132.38" fill="#fff" stroke="#005447" stroke-miterlimit="10" stroke-width="2"/>
      <g>
        <polygon points="66.15 96.81 93.91 96.81 80.52 120.24 66.15 96.81" fill="#fff"/>
        <polygon points="115.07 119.77 94.51 81.58 101.76 83.56 89.77 57.3 94.78 58.66 80.31 21.56 66.09 58.66 70.82 57.46 59.1 83.56 65.97 81.65 47.98 115.64 65.24 111.09 60.2 122.31 80.25 115.63 101.76 124.77 96.4 113.04 115.07 119.77" fill="#005447"/>
      </g>
    </g>
  </g>
  <g>
    <path d="m76.58,89.23c0-7.71-4.69-14.67-11.64-17.68.12-.94.18-1.87.18-2.79,0-5.49-1.93-10.72-5.46-14.9.11-.7.17-1.41.17-2.1,0-7.4-6.02-13.42-13.42-13.42-3.67,0-7.07,1.45-9.59,4.04-.75-.13-1.51-.19-2.27-.19-7.4,0-13.42,6.02-13.42,13.42,0,.92.1,1.83.28,2.73-1.15,2.26-1.9,4.67-2.25,7.19-6.13,3.54-10.02,10.16-10.02,17.28,0,4.98,1.9,9.8,5.25,13.46-.32,1.27-.48,2.56-.48,3.85,0,7.02,4.55,12.98,10.86,15.12,1.5,1.81,3.61,3.11,6.04,3.56,3.12,4.19,7.99,6.66,13.26,6.66,7.04,0,13.06-4.42,15.45-10.63,4.12-.56,7.32-4.09,7.32-8.37,0-.15,0-.31-.01-.46,6-3.39,9.77-9.76,9.77-16.77Z" fill="#fff"/>
    <g>
      <path d="m44.02,94.66c-4.64,0-8.74,2.33-11.19,5.89-4.08.06-7.37,3.38-7.37,7.48s3.14,7.26,7.09,7.47c2.41,3.8,6.64,6.34,11.48,6.34,7.5,0,13.59-6.08,13.59-13.59s-6.08-13.58-13.59-13.58Z" fill="#4da353"/>
      <polyline points="43.19 133.14 42.92 118.11 30.18 106.14 33.06 102.31 44.76 112.26 52.62 91.02 56.95 92.81 49.36 117.21 49.16 133.14" fill="#fff" stroke="#4da353" stroke-miterlimit="10" stroke-width="2"/>
      <path d="m73.17,89.06c0-7.39-4.94-13.61-11.7-15.57.32-1.42.51-2.89.51-4.41,0-5.35-2.12-10.21-5.55-13.79.25-.89.39-1.83.39-2.8,0-5.81-4.71-10.52-10.52-10.52-3.45,0-6.51,1.67-8.42,4.24-1-.31-2.05-.48-3.15-.48-5.81,0-10.52,4.71-10.52,10.52,0,1.05.16,2.05.44,3.01-1.41,2.49-2.29,5.31-2.52,8.31-5.68,2.72-9.61,8.51-9.61,15.23,0,4.92,2.11,9.33,5.46,12.42-.51,1.4-.81,2.9-.81,4.48,0,7.19,5.83,13.01,13.01,13.01s13.01-5.83,13.01-13.01c0-.84-.09-1.66-.24-2.46,2.08,3.55,5.46,6.24,9.5,7.41-.09.4-.14.81-.14,1.24,0,3.13,2.54,5.67,5.67,5.67s5.67-2.54,5.67-5.67c0-.67-.12-1.3-.33-1.9,5.79-2.48,9.85-8.22,9.85-14.92Z" fill="#4da353"/>
    </g>
  </g>
</svg>