<?xml version="1.0" encoding="UTF-8"?>
<svg id="Layer_1" data-name="Layer 1" xmlns="http://www.w3.org/2000/svg" width="150" height="150" xmlns:xlink="http://www.w3.org/1999/xlink" viewBox="0 0 150 150">
  <defs>
    <pattern id="New_Pattern_2" data-name="New Pattern 2" x="0" y="0" width="56.96" height="41.7" patternTransform="translate(69.94 3691.86) rotate(-45) scale(3.71)" patternUnits="userSpaceOnUse" viewBox="0 0 56.96 41.7">
      <g>
        <rect width="56.96" height="41.7" fill="none"/>
        <line y1=".64" x2="56.96" y2=".64" fill="none" stroke="#4da353" stroke-miterlimit="10" stroke-width=".75"/>
        <line y1="1.95" x2="56.96" y2="1.95" fill="none" stroke="#4da353" stroke-miterlimit="10" stroke-width=".75"/>
        <line y1="3.25" x2="56.96" y2="3.25" fill="none" stroke="#4da353" stroke-miterlimit="10" stroke-width=".75"/>
        <line y1="4.55" x2="56.96" y2="4.55" fill="none" stroke="#4da353" stroke-miterlimit="10" stroke-width=".75"/>
        <line y1="5.86" x2="56.96" y2="5.86" fill="none" stroke="#4da353" stroke-miterlimit="10" stroke-width=".75"/>
        <line y1="7.16" x2="56.96" y2="7.16" fill="none" stroke="#4da353" stroke-miterlimit="10" stroke-width=".75"/>
        <line y1="8.46" x2="56.96" y2="8.46" fill="none" stroke="#4da353" stroke-miterlimit="10" stroke-width=".75"/>
        <line y1="9.77" x2="56.96" y2="9.77" fill="none" stroke="#4da353" stroke-miterlimit="10" stroke-width=".75"/>
        <line y1="11.07" x2="56.96" y2="11.07" fill="none" stroke="#4da353" stroke-miterlimit="10" stroke-width=".75"/>
        <line y1="12.38" x2="56.96" y2="12.38" fill="none" stroke="#4da353" stroke-miterlimit="10" stroke-width=".75"/>
        <line y1="13.68" x2="56.96" y2="13.68" fill="none" stroke="#4da353" stroke-miterlimit="10" stroke-width=".75"/>
        <line y1="14.98" x2="56.96" y2="14.98" fill="none" stroke="#4da353" stroke-miterlimit="10" stroke-width=".75"/>
        <line y1="16.29" x2="56.96" y2="16.29" fill="none" stroke="#4da353" stroke-miterlimit="10" stroke-width=".75"/>
        <line y1="17.59" x2="56.96" y2="17.59" fill="none" stroke="#4da353" stroke-miterlimit="10" stroke-width=".75"/>
        <line y1="18.89" x2="56.96" y2="18.89" fill="none" stroke="#4da353" stroke-miterlimit="10" stroke-width=".75"/>
        <line y1="20.2" x2="56.96" y2="20.2" fill="none" stroke="#4da353" stroke-miterlimit="10" stroke-width=".75"/>
        <line y1="21.5" x2="56.96" y2="21.5" fill="none" stroke="#4da353" stroke-miterlimit="10" stroke-width=".75"/>
        <line y1="22.8" x2="56.96" y2="22.8" fill="none" stroke="#4da353" stroke-miterlimit="10" stroke-width=".75"/>
        <line y1="24.11" x2="56.96" y2="24.11" fill="none" stroke="#4da353" stroke-miterlimit="10" stroke-width=".75"/>
        <line y1="25.41" x2="56.96" y2="25.41" fill="none" stroke="#4da353" stroke-miterlimit="10" stroke-width=".75"/>
        <line y1="26.71" x2="56.96" y2="26.71" fill="none" stroke="#4da353" stroke-miterlimit="10" stroke-width=".75"/>
        <line y1="28.02" x2="56.96" y2="28.02" fill="none" stroke="#4da353" stroke-miterlimit="10" stroke-width=".75"/>
        <line y1="29.32" x2="56.96" y2="29.32" fill="none" stroke="#4da353" stroke-miterlimit="10" stroke-width=".75"/>
        <line y1="30.62" x2="56.96" y2="30.62" fill="none" stroke="#4da353" stroke-miterlimit="10" stroke-width=".75"/>
        <line y1="31.93" x2="56.96" y2="31.93" fill="none" stroke="#4da353" stroke-miterlimit="10" stroke-width=".75"/>
        <line y1="33.23" x2="56.96" y2="33.23" fill="none" stroke="#4da353" stroke-miterlimit="10" stroke-width=".75"/>
        <line y1="34.54" x2="56.96" y2="34.54" fill="none" stroke="#4da353" stroke-miterlimit="10" stroke-width=".75"/>
        <line y1="35.84" x2="56.96" y2="35.84" fill="none" stroke="#4da353" stroke-miterlimit="10" stroke-width=".75"/>
        <line y1="37.14" x2="56.96" y2="37.14" fill="none" stroke="#4da353" stroke-miterlimit="10" stroke-width=".75"/>
        <line y1="38.45" x2="56.96" y2="38.45" fill="none" stroke="#4da353" stroke-miterlimit="10" stroke-width=".75"/>
        <line y1="39.75" x2="56.96" y2="39.75" fill="none" stroke="#4da353" stroke-miterlimit="10" stroke-width=".75"/>
        <line y1="41.05" x2="56.96" y2="41.05" fill="none" stroke="#4da353" stroke-miterlimit="10" stroke-width=".75"/>
      </g>
    </pattern>
  </defs>
  <g>
    <circle cx="79.49" cy="84.01" r="16.93" fill="#4da353"/>
    <path d="m129.89,89.59c1.5-1.82,2.4-4.15,2.4-6.69,0-5.8-4.7-10.5-10.5-10.5-.75,0-1.48.08-2.19.23,1.2-3.16,1.65-6.66,1.13-10.24-1.63-11.24-12.06-19.04-23.3-17.42-4.89.71-9.13,3.09-12.23,6.47-3.25-2.24-7.31-3.32-11.53-2.71-8.88,1.28-15.04,9.52-13.76,18.41,1.28,8.88,9.52,15.04,18.41,13.76,2.33-.34,4.46-1.16,6.32-2.34.36.43.74.85,1.14,1.25-2.66,2.76-4.3,6.5-4.3,10.63,0,8.47,6.86,15.33,15.33,15.33,1.58,0,3.11-.24,4.55-.69,3.08,6,9.72,9.68,16.77,8.66,8.88-1.28,15.04-9.53,13.76-18.41-.3-2.09-1-4.02-1.99-5.75Z" fill="#4da353"/>
    <polyline points="94.6 135.99 95.65 122.24 112.14 97.66" fill="none" stroke="#4da353" stroke-miterlimit="10" stroke-width="3"/>
    <polyline points="95.65 121.02 77.07 97.66 85.16 74.43" fill="none" stroke="#4da353" stroke-miterlimit="10" stroke-width="3"/>
  </g>
  <g>
    <path d="m35.28,116.1c-1.09,0-2.19-.08-3.28-.23-12.45-1.8-21.11-13.39-19.31-25.84.29-1.97.82-3.87,1.61-5.7-1.39-2.42-2.12-5.12-2.12-7.93,0-7.95,5.75-14.58,13.3-15.97-.41-2.68-.42-5.42-.03-8.11,1.96-13.56,13.76-23.79,27.44-23.79,1.33,0,2.67.1,4,.29,5.19.75,10.06,2.97,14.03,6.34,3.08-1.5,6.45-2.28,9.9-2.28,1.09,0,2.19.08,3.27.23,12.44,1.8,21.11,13.39,19.31,25.84-.45,3.13-1.54,6.1-3.19,8.75,4.5,4.4,7.09,10.43,7.09,16.85,0,13.01-10.58,23.59-23.59,23.59-5.31,0-10.44-1.81-14.57-5.07-3.56,2.41-7.76,3.7-12.14,3.7-1.07,0-2.13-.08-3.18-.23-4.24,5.96-11.08,9.55-18.53,9.55Z" fill="#fff"/>
    <g>
      <path d="m94.39,68.4c2.51-2.68,4.27-6.12,4.83-10.04,1.47-10.16-5.58-19.6-15.74-21.07-4.83-.7-9.47.54-13.2,3.11-3.54-3.87-8.4-6.6-14-7.41-12.87-1.86-24.81,7.06-26.67,19.93-.59,4.1-.09,8.1,1.29,11.72-.81-.17-1.64-.26-2.5-.26-6.64,0-12.02,5.38-12.02,12.02,0,2.91,1.03,5.57,2.75,7.65-1.13,1.98-1.93,4.19-2.28,6.58-1.47,10.16,5.58,19.6,15.74,21.07,8.07,1.17,15.66-3.04,19.19-9.91,1.64.51,3.39.79,5.2.79,4.81,0,9.16-1.94,12.33-5.07,3.55,3.94,8.67,6.43,14.39,6.43,10.7,0,19.38-8.68,19.38-19.38,0-6.75-3.46-12.69-8.69-16.16Z" fill="url(#New_Pattern_2)"/>
      <polyline points="58.33 137.16 58.33 121.43 44.02 106.75" fill="none" stroke="#4da353" stroke-miterlimit="10" stroke-width="3"/>
      <line x1="58.33" y1="121.43" x2="73.61" y2="100.08" fill="none" stroke="#4da353" stroke-miterlimit="10" stroke-width="3"/>
      <line x1="58.33" y1="125.93" x2="58.33" y2="101.08" fill="none" stroke="#4da353" stroke-miterlimit="10" stroke-width="3"/>
    </g>
  </g>
</svg>