<?xml version="1.0" encoding="UTF-8"?>
<svg id="Layer_1" data-name="Layer 1" xmlns="http://www.w3.org/2000/svg" width="150" height="150" xmlns:xlink="http://www.w3.org/1999/xlink" viewBox="0 0 150 150">
  <defs>
    <pattern id="New_Pattern_2" data-name="New Pattern 2" x="0" y="0" width="56.96" height="41.7" patternTransform="translate(113.3 3180.97) rotate(-45) scale(3.93)" patternUnits="userSpaceOnUse" viewBox="0 0 56.96 41.7">
      <g>
        <rect width="56.96" height="41.7" fill="none"/>
        <line y1=".64" x2="56.96" y2=".64" fill="none" stroke="#4da353" stroke-miterlimit="10" stroke-width=".75"/>
        <line y1="1.95" x2="56.96" y2="1.95" fill="none" stroke="#4da353" stroke-miterlimit="10" stroke-width=".75"/>
        <line y1="3.25" x2="56.96" y2="3.25" fill="none" stroke="#4da353" stroke-miterlimit="10" stroke-width=".75"/>
        <line y1="4.55" x2="56.96" y2="4.55" fill="none" stroke="#4da353" stroke-miterlimit="10" stroke-width=".75"/>
        <line y1="5.86" x2="56.96" y2="5.86" fill="none" stroke="#4da353" stroke-miterlimit="10" stroke-width=".75"/>
        <line y1="7.16" x2="56.96" y2="7.16" fill="none" stroke="#4da353" stroke-miterlimit="10" stroke-width=".75"/>
        <line y1="8.46" x2="56.96" y2="8.46" fill="none" stroke="#4da353" stroke-miterlimit="10" stroke-width=".75"/>
        <line y1="9.77" x2="56.96" y2="9.77" fill="none" stroke="#4da353" stroke-miterlimit="10" stroke-width=".75"/>
        <line y1="11.07" x2="56.96" y2="11.07" fill="none" stroke="#4da353" stroke-miterlimit="10" stroke-width=".75"/>
        <line y1="12.38" x2="56.96" y2="12.38" fill="none" stroke="#4da353" stroke-miterlimit="10" stroke-width=".75"/>
        <line y1="13.68" x2="56.96" y2="13.68" fill="none" stroke="#4da353" stroke-miterlimit="10" stroke-width=".75"/>
        <line y1="14.98" x2="56.96" y2="14.98" fill="none" stroke="#4da353" stroke-miterlimit="10" stroke-width=".75"/>
        <line y1="16.29" x2="56.96" y2="16.29" fill="none" stroke="#4da353" stroke-miterlimit="10" stroke-width=".75"/>
        <line y1="17.59" x2="56.96" y2="17.59" fill="none" stroke="#4da353" stroke-miterlimit="10" stroke-width=".75"/>
        <line y1="18.89" x2="56.96" y2="18.89" fill="none" stroke="#4da353" stroke-miterlimit="10" stroke-width=".75"/>
        <line y1="20.2" x2="56.96" y2="20.2" fill="none" stroke="#4da353" stroke-miterlimit="10" stroke-width=".75"/>
        <line y1="21.5" x2="56.96" y2="21.5" fill="none" stroke="#4da353" stroke-miterlimit="10" stroke-width=".75"/>
        <line y1="22.8" x2="56.96" y2="22.8" fill="none" stroke="#4da353" stroke-miterlimit="10" stroke-width=".75"/>
        <line y1="24.11" x2="56.96" y2="24.11" fill="none" stroke="#4da353" stroke-miterlimit="10" stroke-width=".75"/>
        <line y1="25.41" x2="56.96" y2="25.41" fill="none" stroke="#4da353" stroke-miterlimit="10" stroke-width=".75"/>
        <line y1="26.71" x2="56.96" y2="26.71" fill="none" stroke="#4da353" stroke-miterlimit="10" stroke-width=".75"/>
        <line y1="28.02" x2="56.96" y2="28.02" fill="none" stroke="#4da353" stroke-miterlimit="10" stroke-width=".75"/>
        <line y1="29.32" x2="56.96" y2="29.32" fill="none" stroke="#4da353" stroke-miterlimit="10" stroke-width=".75"/>
        <line y1="30.62" x2="56.96" y2="30.62" fill="none" stroke="#4da353" stroke-miterlimit="10" stroke-width=".75"/>
        <line y1="31.93" x2="56.96" y2="31.93" fill="none" stroke="#4da353" stroke-miterlimit="10" stroke-width=".75"/>
        <line y1="33.23" x2="56.96" y2="33.23" fill="none" stroke="#4da353" stroke-miterlimit="10" stroke-width=".75"/>
        <line y1="34.54" x2="56.96" y2="34.54" fill="none" stroke="#4da353" stroke-miterlimit="10" stroke-width=".75"/>
        <line y1="35.84" x2="56.96" y2="35.84" fill="none" stroke="#4da353" stroke-miterlimit="10" stroke-width=".75"/>
        <line y1="37.14" x2="56.96" y2="37.14" fill="none" stroke="#4da353" stroke-miterlimit="10" stroke-width=".75"/>
        <line y1="38.45" x2="56.96" y2="38.45" fill="none" stroke="#4da353" stroke-miterlimit="10" stroke-width=".75"/>
        <line y1="39.75" x2="56.96" y2="39.75" fill="none" stroke="#4da353" stroke-miterlimit="10" stroke-width=".75"/>
        <line y1="41.05" x2="56.96" y2="41.05" fill="none" stroke="#4da353" stroke-miterlimit="10" stroke-width=".75"/>
      </g>
    </pattern>
  </defs>
  <line x1="24.92" y1="71.88" x2="38.01" y2="74.67" fill="#fff" stroke="#4da353" stroke-miterlimit="10" stroke-width="3"/>
  <g>
    <path d="m114.31,89.81c-6.88,0-13.2-3.32-17.1-8.84-.98.15-1.98.22-2.98.22-5.23,0-10.16-2.01-13.87-5.58-1.48.31-2.97.47-4.47.47-11.99,0-21.75-9.76-21.75-21.75,0-2.57.47-5.14,1.36-7.55-2.19-2.85-3.61-6.18-4.12-9.77-.8-5.55.6-11.09,3.97-15.59,3.36-4.5,8.28-7.42,13.83-8.22,1-.14,2.01-.22,3.01-.22,3.2,0,6.32.73,9.17,2.12,3.66-3.13,8.17-5.19,12.97-5.88,1.22-.18,2.46-.27,3.69-.27,12.62,0,23.51,9.43,25.31,21.94.36,2.51.35,5.06-.04,7.55,6.99,1.24,12.31,7.37,12.31,14.71,0,2.6-.67,5.1-1.97,7.34.73,1.69,1.23,3.46,1.49,5.28.8,5.56-.61,11.1-3.97,15.6-3.36,4.5-8.28,7.42-13.84,8.22-1,.14-2.02.22-3.03.22h0Z" fill="#fff"/>
    <g>
      <path d="m129.25,58.29c1.59-1.92,2.54-4.39,2.54-7.08,0-6.14-4.98-11.12-11.12-11.12-.79,0-1.56.09-2.31.24,1.27-3.34,1.74-7.05,1.19-10.84-1.72-11.9-12.77-20.16-24.67-18.44-5.18.75-9.67,3.27-12.95,6.85-3.44-2.37-7.74-3.52-12.21-2.87-9.4,1.36-15.92,10.08-14.56,19.49.58,4.03,2.53,7.53,5.29,10.11-1.57,2.67-2.49,5.77-2.49,9.09,0,9.9,8.03,17.93,17.93,17.93,2.33,0,4.55-.46,6.6-1.27,2.96,3.1,7.12,5.05,11.74,5.05,1.68,0,3.29-.25,4.81-.73,3.27,6.35,10.29,10.25,17.75,9.17,9.4-1.36,15.92-10.08,14.56-19.49-.32-2.21-1.06-4.26-2.11-6.09Z" fill="url(#New_Pattern_2)"/>
      <polyline points="91.89 109.37 93 94.81 105.5 80.35" fill="none" stroke="#4da353" stroke-miterlimit="10" stroke-width="3"/>
      <line x1="93" y1="93.51" x2="74.56" y2="70.33" fill="none" stroke="#4da353" stroke-miterlimit="10" stroke-width="3"/>
    </g>
  </g>
  <polyline points="29.93 97.52 31.05 51.41 41.47 52.5 44.64 64.95 53.11 65.49 55.07 96.12" fill="#4da353"/>
  <line x1="13.21" y1="97.52" x2="80.69" y2="97.52" fill="#fff" stroke="#4da353" stroke-miterlimit="10" stroke-width="3"/>
  <g>
    <path d="m42.78,97.59c-6.6-.81-11.46,5.82-11.46,13s4.52,12.33,7.91,13l76.27,18.87,4.2-23.27-76.92-21.59Z" fill="#4da353"/>
    <path d="m42.78,97.59c-6.6-.81-11.46,5.82-11.46,13s4.52,12.33,7.91,13l76.27,18.87,4.2-23.27-76.92-21.59Z" fill="none" stroke="#fff" stroke-miterlimit="10" stroke-width="3"/>
  </g>
  <path d="m121.52,131.16c-.72,4.59-3.55,8.09-6.96,7.56-3.41-.53-6.1-4.89-5.39-9.48.72-4.59,4.06-7.88,7.47-7.35,3.41.53,5.59,4.68,4.87,9.27Z" fill="#fff" stroke="#4da353" stroke-miterlimit="10" stroke-width="3"/>
  <line x1="46.54" y1="127.61" x2="58.69" y2="118.74" fill="#fff" stroke="#4da353" stroke-miterlimit="10" stroke-width="3"/>
  <line x1="84.92" y1="137.19" x2="79.47" y2="123.18" fill="#fff" stroke="#4da353" stroke-miterlimit="10" stroke-width="3"/>
  <line x1="108.18" y1="109.95" x2="97.55" y2="120.59" fill="#fff" stroke="#4da353" stroke-miterlimit="10" stroke-width="3"/>
</svg>