<?xml version="1.0" encoding="UTF-8"?>
<svg id="Layer_1" data-name="Layer 1" xmlns="http://www.w3.org/2000/svg" width="150" height="150" viewBox="0 0 150 150">
  <g>
    <polygon points="57.15 70.3 46.13 46.19 50.33 47.33 32.45 1.48 14.91 47.22 18.88 46.21 8.06 70.31 27.46 64.92 7.55 109.24 32.43 98.49 55.37 106.89 37.12 64.82 57.15 70.3" fill="#fff"/>
    <g>
      <polyline points="35.82 110.13 35.82 84.42 28.99 84.42 28.99 112.32" fill="#fff" stroke="#005447" stroke-miterlimit="10" stroke-width="2"/>
      <g>
        <polygon points="19.48 78.21 44.95 78.21 32.41 95.33 19.48 78.21" fill="#fff"/>
        <polygon points="64.36 99.27 45.5 64.23 52.15 66.05 41.15 41.96 45.74 43.21 32.47 9.18 19.43 43.21 23.77 42.11 13.01 66.05 19.32 64.3 2.81 95.48 18.65 91.31 14.03 101.6 32.42 95.47 52.15 103.86 47.24 93.09 64.36 99.27" fill="#005447"/>
      </g>
    </g>
  </g>
  <g>
    <line x1="57.15" y1="52.08" x2="92.17" y2="68.46" fill="#fff"/>
    <g>
      <line x1="58.72" y1="52.81" x2="90.6" y2="67.73" fill="none" stroke="#005447" stroke-miterlimit="10" stroke-width="2"/>
      <polygon points="60.75 60.99 62.23 60.39 59.27 53.07 66.78 50.66 66.29 49.13 57.14 52.08 60.75 60.99" fill="#005447"/>
      <polygon points="83.02 71.41 82.53 69.88 90.04 67.47 87.08 60.15 88.57 59.55 92.17 68.46 83.02 71.41" fill="#005447"/>
    </g>
  </g>
  <g>
    <path d="m149.42,90.52c0-6.94-3.79-13.39-9.76-16.84-.34-2.45-1.07-4.8-2.19-7,.18-.88.28-1.77.28-2.66,0-7.21-5.87-13.08-13.08-13.08-.74,0-1.48.06-2.21.19-2.45-2.52-5.77-3.94-9.34-3.94-7.21,0-13.08,5.87-13.08,13.08,0,.68.06,1.36.17,2.05-3.44,4.07-5.32,9.17-5.32,14.51,0,.9.06,1.81.17,2.72-6.78,2.93-11.35,9.72-11.35,17.23,0,6.83,3.68,13.03,9.52,16.34,0,.15-.01.3-.01.45,0,4.16,3.11,7.61,7.13,8.15,2.33,6.05,8.19,10.36,15.05,10.36,5.13,0,9.88-2.4,12.92-6.49,2.36-.44,4.42-1.7,5.88-3.47,6.14-2.09,10.58-7.9,10.58-14.73,0-1.26-.16-2.52-.47-3.75,3.27-3.57,5.12-8.27,5.12-13.12Z" fill="#fff"/>
    <g>
      <path d="m133.94,115.73c0-4.09-3.29-7.41-7.36-7.47-2.45-3.55-6.53-5.88-11.17-5.88-7.49,0-13.56,6.07-13.56,13.56s6.07,13.56,13.56,13.56c4.83,0,9.05-2.53,11.46-6.33,3.94-.21,7.08-3.46,7.08-7.46Z" fill="#4da353"/>
      <polyline points="116.23 138.3 116.5 125.8 129.22 113.84 126.35 110.01 114.66 119.95 106.82 98.74 102.49 100.53 110.07 124.89 110.27 140.8" fill="#fff" stroke="#4da353" stroke-miterlimit="10" stroke-width="2"/>
      <path d="m146.86,90.52c0-6.71-3.93-12.48-9.6-15.2-.23-3-1.11-5.82-2.52-8.3.28-.95.44-1.96.44-3,0-5.8-4.7-10.5-10.5-10.5-1.1,0-2.15.17-3.15.48-1.92-2.56-4.96-4.23-8.41-4.23-5.8,0-10.5,4.7-10.5,10.5,0,.97.14,1.9.39,2.79-3.43,3.58-5.54,8.42-5.54,13.77,0,1.52.18,2.99.5,4.41-6.74,1.96-11.68,8.17-11.68,15.54,0,6.69,4.05,12.42,9.84,14.9-.21.59-.33,1.23-.33,1.89,0,3.13,2.53,5.66,5.66,5.66s5.66-2.53,5.66-5.66c0-.43-.05-.84-.14-1.24,4.03-1.16,7.41-3.85,9.48-7.39-.15.8-.24,1.61-.24,2.45,0,7.18,5.82,12.99,12.99,12.99s12.99-5.82,12.99-12.99c0-1.57-.29-3.08-.81-4.47,3.35-3.08,5.46-7.49,5.46-12.4Z" fill="#4da353"/>
    </g>
  </g>
</svg>