<?xml version="1.0" encoding="UTF-8"?><svg xmlns="http://www.w3.org/2000/svg" viewBox="0 0 440 311.74"><defs><style>.b,.c,.d,.e,.f,.g,.h,.i{stroke-miterlimit:10;}.b,.c,.d,.g,.h{stroke-width:1.5px;}.b,.c,.d,.h,.i,.j{fill:none;}.b,.d,.e,.g,.h,.i{stroke:#2a2b33;}.c{stroke:#fff;}.k,.e,.g{fill:#fff;}.l{fill:#333;}.m{fill:#2a2b33;}.d{stroke-dasharray:0 0 0 0 0 0 4.02 3.01;}.n{mix-blend-mode:multiply;}.e,.f,.i,.j{stroke-width:1px;}.f{fill:#ccd2e3;}.f,.j{stroke:#334c8d;}.o{isolation:isolate;}.h{stroke-dasharray:0 0 0 0 0 0 3.9 2.93;}.j{stroke-linejoin:round;}</style></defs><g class="o"><g id="a"><rect class="k" width="439.13" height="311.74"/><path class="j" d="m53.11,181.4v-22.38c0-7.83,6.35-14.17,14.17-14.17h136.23c7.83,0,14.17-6.35,14.17-14.17v-5.78"/><rect class="e" x="54.37" y="25.54" width="57.06" height="77.33"/><rect class="e" x="48.6" y="18.99" width="57.06" height="77.33"/><line class="i" x1="54.37" y1="31.97" x2="75.65" y2="31.97"/><line class="i" x1="54.37" y1="38.17" x2="99.72" y2="38.17"/><path class="i" d="m65.66,83.96c-6.11-3.76-10.18-10.51-10.18-18.21"/><path class="i" d="m95.93,75.42c-.97,1.91-2.22,3.65-3.69,5.17-3.89,4.03-9.34,6.53-15.38,6.53"/><polygon class="m" points="93.51 76.44 95.78 75.68 96.55 77.95 97.19 76.66 96.42 74.39 94.15 75.15 93.51 76.44"/><path class="i" d="m61.55,50.83c3.88-3.99,9.31-6.46,15.31-6.46,11.81,0,21.38,9.57,21.38,21.38"/><polygon class="m" points="64.17 50.6 61.77 50.64 61.74 48.24 60.74 49.27 60.77 51.67 63.17 51.63 64.17 50.6"/><polygon class="i" points="75.02 51.33 69.36 71.28 75.02 71.28 69.72 87.72 88.12 65.75 78.74 65.75 85.97 51.33 75.02 51.33"/><circle class="f" cx="381.93" cy="210.28" r="39.74"/><circle class="g" cx="390.22" cy="198.19" r="7.76"/><line class="b" x1="390.22" y1="215.15" x2="390.22" y2="210.69"/><line class="b" x1="383.73" y1="213.86" x2="385.44" y2="209.74"/><line class="b" x1="378.23" y1="210.18" x2="381.38" y2="207.03"/><line class="b" x1="374.56" y1="204.68" x2="378.68" y2="202.98"/><line class="b" x1="373.27" y1="198.19" x2="377.72" y2="198.19"/><line class="b" x1="374.56" y1="191.71" x2="378.67" y2="193.41"/><line class="b" x1="378.23" y1="186.2" x2="381.39" y2="189.36"/><line class="b" x1="383.73" y1="182.53" x2="385.44" y2="186.65"/><line class="b" x1="390.22" y1="181.24" x2="390.22" y2="185.69"/><line class="b" x1="396.71" y1="182.53" x2="395.01" y2="186.65"/><line class="b" x1="402.21" y1="186.2" x2="399.06" y2="189.36"/><line class="b" x1="405.89" y1="191.7" x2="401.77" y2="193.41"/><line class="b" x1="407.18" y1="198.19" x2="402.72" y2="198.19"/><line class="b" x1="405.89" y1="204.68" x2="401.77" y2="202.98"/><line class="b" x1="402.21" y1="210.18" x2="399.06" y2="207.03"/><line class="b" x1="396.71" y1="213.86" x2="395.01" y2="209.74"/><path class="b" d="m400.79,235.44c-12.41,5.39-21.65-4.61-32.16,0"/><path class="c" d="m400.79,227.41c-12.41,5.39-21.65-4.61-32.16,0"/><path class="c" d="m400.79,232.77c-12.41,5.39-21.65-4.61-32.16,0"/><path class="b" d="m368.63,230.19c4.85-2.14,9.43-1.14,14.21,0,.4.11.77.19,1.17.31"/><path class="b" d="m400.79,224.22c-12.41,5.39-21.65-4.61-32.16,0"/><path class="g" d="m357.69,216.77c-6.66-.78-7.13-13.39,2.32-19.89,7.7,8.49,4.34,20.66-2.32,19.89Z"/><path class="b" d="m353.35,224.35c7.93-10.69,6.74-22.51,6.74-22.51"/><circle class="f" cx="218.07" cy="210.28" r="39.74"/><polyline class="b" points="195.39 231.97 195.39 205.65 217.71 182.8 240.03 205.65 240.03 231.97"/><polygon class="k" points="235.27 230.93 200.15 230.93 200.15 208.14 217.71 190.16 235.27 208.14 235.27 230.93"/><polyline class="b" points="235.27 228.93 235.27 230.93 233.27 230.93"/><line class="d" x1="230.26" y1="230.93" x2="203.66" y2="230.93"/><polyline class="b" points="202.15 230.93 200.15 230.93 200.15 228.93"/><polyline class="h" points="200.15 226 200.15 208.14 215.29 192.64"/><polyline class="b" points="216.31 191.6 217.71 190.16 219.11 191.6"/><polyline class="h" points="221.15 193.69 235.27 208.14 235.27 227.46"/><path class="b" d="m217.69,209.48c-1.13,6.73,3.62,7.36.49,16.79"/><polygon class="m" points="216.17 209.6 218.18 207.38 219.09 210.23 216.17 209.6"/><path class="b" d="m223.39,211.92c-.5,4.49,2.68,5.18.44,11.92"/><polygon class="m" points="221.88 212.08 223.84 209.81 224.82 212.64 221.88 212.08"/><path class="b" d="m212.19,211.92c-.5,4.49,2.68,5.18.44,11.92"/><polygon class="m" points="210.68 212.08 212.64 209.81 213.62 212.64 210.68 212.08"/><circle class="f" cx="53.58" cy="210.28" r="39.74"/><circle class="g" cx="53.58" cy="230.78" r="6"/><circle class="g" cx="53.58" cy="189.78" r="6"/><circle class="g" cx="33.08" cy="210.28" r="6"/><circle class="b" cx="74.08" cy="210.28" r="6"/><circle class="b" cx="68.08" cy="224.78" r="4.2"/><circle class="b" cx="39.09" cy="195.79" r="4.2"/><circle class="g" cx="39.09" cy="224.78" r="4.2"/><circle class="g" cx="68.08" cy="195.79" r="4.2"/><line class="b" x1="53.58" y1="196.13" x2="53.58" y2="199.65"/><polygon class="m" points="51.34 198.99 53.58 202.88 55.83 198.99 51.34 198.99"/><line class="b" x1="53.58" y1="224.4" x2="53.58" y2="220.88"/><polygon class="m" points="55.83 221.54 53.58 217.65 51.34 221.54 55.83 221.54"/><line class="b" x1="67.72" y1="210.27" x2="64.2" y2="210.27"/><polygon class="m" points="64.86 208.02 60.97 210.27 64.86 212.51 64.86 208.02"/><line class="b" x1="39.45" y1="210.27" x2="42.97" y2="210.27"/><polygon class="m" points="42.31 212.51 46.19 210.27 42.31 208.02 42.31 212.51"/><line class="b" x1="64.88" y1="198.96" x2="61.76" y2="202.09"/><polygon class="m" points="60.64 200.04 59.48 204.37 63.81 203.21 60.64 200.04"/><line class="b" x1="42.28" y1="221.57" x2="45.41" y2="218.44"/><polygon class="m" points="46.53 220.49 47.69 216.16 43.36 217.32 46.53 220.49"/><line class="b" x1="64.88" y1="221.57" x2="61.76" y2="218.44"/><polygon class="m" points="63.81 217.32 59.48 216.16 60.64 220.49 63.81 217.32"/><line class="b" x1="42.28" y1="198.96" x2="45.41" y2="202.09"/><polygon class="m" points="43.36 203.21 47.69 204.37 46.53 200.04 43.36 203.21"/><circle class="g" cx="53.72" cy="210.53" r="4.8"/><polyline class="g" points="55.48 203.49 52.19 210.53 55.16 210.53 51.96 217.57"/><line class="j" x1="217.69" y1="125.9" x2="217.69" y2="170.54"/><path class="j" d="m125.8,62.32h77.73c7.83,0,14.17,6.35,14.17,14.17v54.19c0,7.83,6.35,14.17,14.17,14.17h136c7.83,0,14.17,6.35,14.17,14.17v11.53"/><g class="n"><path class="l" d="m126.68,50.16v-10.18h4.02c.77,0,1.43.14,1.97.41s.96.66,1.25,1.16.43,1.08.43,1.76-.15,1.26-.44,1.74c-.29.49-.71.86-1.26,1.12s-1.22.39-2,.39h-2.69v-1.73h2.34c.41,0,.75-.06,1.02-.17.27-.11.47-.28.61-.51.13-.23.2-.51.2-.84s-.07-.62-.2-.86c-.13-.23-.34-.41-.61-.53s-.62-.18-1.03-.18h-1.45v8.42h-2.15Zm5.5-4.63l2.53,4.63h-2.38l-2.48-4.63h2.32Z"/><path class="l" d="m135.87,50.16v-10.18h6.86v1.77h-4.71v2.43h4.35v1.77h-4.35v2.43h4.73v1.77h-6.88Z"/><path class="l" d="m144.45,50.16v-10.18h4.02c.77,0,1.43.15,1.97.44.54.29.96.7,1.25,1.22s.43,1.12.43,1.79-.15,1.27-.44,1.79c-.29.52-.71.92-1.26,1.21-.55.29-1.22.43-2,.43h-2.56v-1.73h2.21c.41,0,.76-.07,1.03-.22.27-.14.47-.34.61-.6.13-.26.2-.55.2-.89s-.07-.63-.2-.89c-.13-.25-.34-.45-.61-.59-.27-.14-.62-.21-1.03-.21h-1.45v8.42h-2.15Z"/><path class="l" d="m156.8,50.31c-.77,0-1.44-.17-2-.5-.56-.33-1-.79-1.3-1.38s-.46-1.28-.46-2.06.15-1.48.46-2.07c.3-.59.74-1.05,1.3-1.38.56-.33,1.23-.49,2-.49s1.44.16,2,.49c.56.33,1,.79,1.3,1.38.3.59.46,1.28.46,2.07s-.15,1.47-.46,2.06-.74,1.05-1.3,1.38c-.56.33-1.23.5-2,.5Zm0-1.64c.35,0,.64-.1.88-.3.24-.2.41-.47.53-.82.12-.35.18-.74.18-1.19s-.06-.84-.18-1.19c-.12-.35-.3-.62-.53-.83s-.53-.3-.88-.3-.65.1-.89.3-.42.48-.54.83c-.12.35-.18.74-.18,1.19s.06.84.18,1.19c.12.35.3.62.54.82.24.2.54.3.89.3Z"/><path class="l" d="m163.26,50.16l-2.08-7.64h2.14l1.18,5.13h.07l1.23-5.13h2.1l1.25,5.1h.06l1.16-5.1h2.14l-2.07,7.64h-2.24l-1.31-4.8h-.09l-1.31,4.8h-2.24Z"/><path class="l" d="m176.94,50.31c-.79,0-1.46-.16-2.03-.48-.57-.32-1-.77-1.31-1.36-.3-.59-.46-1.29-.46-2.09s.15-1.47.46-2.07c.3-.59.74-1.06,1.29-1.39.56-.33,1.21-.5,1.96-.5.5,0,.97.08,1.41.24.44.16.82.4,1.14.72.33.32.58.73.76,1.21s.27,1.05.27,1.7v.58h-6.45v-1.31h4.46c0-.3-.07-.58-.2-.81s-.32-.42-.55-.55c-.23-.13-.5-.2-.81-.2s-.61.07-.85.22-.44.34-.58.59-.21.52-.21.82v1.25c0,.38.07.7.21.98.14.28.34.49.6.64.26.15.57.22.92.22.24,0,.45-.03.65-.1.2-.07.36-.17.5-.3.14-.13.25-.29.32-.49l1.96.13c-.1.47-.3.88-.61,1.23s-.7.62-1.18.82c-.48.19-1.04.29-1.67.29Z"/><path class="l" d="m181.83,50.16v-7.64h2.05v1.33h.08c.14-.47.37-.83.7-1.08.33-.24.71-.37,1.13-.37.11,0,.22,0,.34.02.12.01.23.03.32.05v1.88c-.1-.03-.24-.06-.41-.08-.18-.02-.34-.04-.48-.04-.31,0-.59.07-.83.2-.24.13-.44.32-.58.56-.14.24-.21.51-.21.83v4.32h-2.12Z"/><path class="l" d="m187.59,50.16v-10.18h6.86v1.77h-4.71v2.43h4.35v1.77h-4.35v2.43h4.73v1.77h-6.88Z"/><path class="l" d="m202.46,39.98h2.15v6.61c0,.74-.18,1.39-.53,1.95-.35.56-.85.99-1.48,1.3-.63.31-1.37.46-2.21.46s-1.58-.16-2.22-.46c-.63-.31-1.12-.74-1.48-1.3-.35-.56-.53-1.21-.53-1.95v-6.61h2.15v6.43c0,.39.08.73.26,1.03.17.3.41.54.72.71.31.17.67.26,1.09.26s.78-.09,1.09-.26c.31-.17.55-.41.72-.71s.26-.65.26-1.03v-6.43Z"/></g><g class="n"><path class="l" d="m13.12,270.57h-3.61v-10.18h3.64c1.02,0,1.9.2,2.64.61.74.41,1.31.99,1.71,1.75.4.76.6,1.67.6,2.72s-.2,1.97-.6,2.73c-.4.76-.97,1.35-1.71,1.75-.74.41-1.63.61-2.67.61Zm-1.46-1.84h1.37c.63,0,1.17-.11,1.61-.34.44-.23.76-.58.98-1.06.22-.48.33-1.1.33-1.86s-.11-1.37-.33-1.84-.55-.83-.98-1.05c-.43-.23-.97-.34-1.61-.34h-1.37v6.49Z"/><path class="l" d="m20.72,261.94c-.32,0-.58-.1-.81-.32-.22-.21-.34-.46-.34-.76s.11-.54.34-.75c.22-.21.49-.32.81-.32s.58.11.81.32c.22.21.34.46.34.75s-.11.55-.34.76c-.22.21-.49.32-.81.32Zm-1.06,8.62v-7.64h2.12v7.64h-2.12Z"/><path class="l" d="m30.58,262.93l-2.67,7.64h-2.39l-2.67-7.64h2.24l1.59,5.46h.08l1.58-5.46h2.24Z"/><path class="l" d="m34.89,270.72c-.79,0-1.46-.16-2.03-.48-.57-.32-1-.77-1.31-1.36-.3-.59-.46-1.29-.46-2.09s.15-1.47.46-2.07c.3-.59.74-1.06,1.29-1.39.55-.33,1.21-.5,1.96-.5.5,0,.97.08,1.41.24.44.16.82.4,1.14.72.33.32.58.73.76,1.21.18.49.27,1.05.27,1.7v.58h-6.45v-1.31h4.46c0-.3-.07-.58-.2-.81s-.32-.42-.55-.55c-.23-.13-.51-.2-.81-.2s-.61.07-.85.22c-.25.15-.44.34-.58.59-.14.25-.21.52-.21.82v1.25c0,.38.07.7.21.98s.34.49.6.64c.26.15.56.22.92.22.23,0,.45-.03.65-.1.2-.07.36-.17.5-.3.14-.13.24-.29.32-.49l1.96.13c-.1.47-.3.88-.61,1.23s-.7.62-1.18.82c-.48.19-1.04.29-1.67.29Z"/><path class="l" d="m39.78,270.57v-7.64h2.05v1.33h.08c.14-.47.37-.83.7-1.08.33-.24.71-.37,1.13-.37.11,0,.22,0,.34.02.12.01.23.03.32.05v1.88c-.1-.03-.24-.06-.41-.08-.18-.02-.34-.04-.48-.04-.31,0-.59.07-.83.2-.24.13-.44.32-.58.56-.14.24-.21.51-.21.83v4.32h-2.12Z"/><path class="l" d="m45.46,270.57v-1.26l3.74-4.63v-.05h-3.61v-1.69h6.16v1.38l-3.51,4.51v.05h3.64v1.69h-6.42Z"/><path class="l" d="m54.57,261.94c-.31,0-.58-.1-.81-.32-.22-.21-.34-.46-.34-.76s.11-.54.34-.75c.22-.21.49-.32.81-.32s.58.11.81.32c.22.21.34.46.34.75s-.11.55-.34.76c-.22.21-.49.32-.81.32Zm-1.06,8.62v-7.64h2.12v7.64h-2.12Z"/><path class="l" d="m61.42,262.93v1.59h-4.71v-1.59h4.71Zm-3.63,7.64v-8.19c0-.55.11-1.01.33-1.38.22-.36.51-.64.89-.82.38-.18.81-.27,1.29-.27.32,0,.62.03.89.07.27.05.47.09.6.13l-.38,1.59c-.08-.03-.18-.05-.3-.07-.12-.02-.24-.04-.37-.04-.31,0-.53.07-.65.22-.12.14-.18.35-.18.6v8.15h-2.11Z"/><path class="l" d="m63.77,261.94c-.31,0-.58-.1-.81-.32-.22-.21-.34-.46-.34-.76s.11-.54.34-.75c.22-.21.49-.32.81-.32s.58.11.81.32c.22.21.34.46.34.75s-.11.55-.34.76c-.22.21-.49.32-.81.32Zm-1.06,8.62v-7.64h2.12v7.64h-2.12Z"/><path class="l" d="m66.52,270.57v-10.18h2.12v10.18h-2.12Zm1.92-2.2v-2.54h.31l2.45-2.9h2.43l-3.29,3.84h-.5l-1.4,1.6Zm2.85,2.2l-2.25-3.33,1.41-1.5,3.32,4.82h-2.48Z"/><path class="l" d="m76.84,270.71c-.49,0-.92-.09-1.3-.26-.38-.17-.68-.42-.9-.76-.22-.34-.33-.76-.33-1.26,0-.42.08-.78.23-1.07.16-.29.37-.52.64-.7.27-.18.57-.31.92-.4.34-.09.7-.15,1.08-.19.44-.05.8-.09,1.07-.13.27-.04.47-.1.59-.19.12-.08.18-.21.18-.37v-.03c0-.31-.1-.56-.3-.73-.2-.17-.48-.26-.84-.26-.38,0-.68.08-.91.25-.23.17-.38.38-.45.63l-1.96-.16c.1-.46.29-.87.59-1.21.29-.34.67-.6,1.13-.79s1-.28,1.61-.28c.42,0,.83.05,1.22.15.39.1.74.25,1.04.46.3.21.54.48.72.8s.26.72.26,1.17v5.15h-2.01v-1.06h-.06c-.12.24-.29.45-.49.63s-.45.32-.74.42c-.29.1-.62.15-1,.15Zm.61-1.46c.31,0,.59-.06.82-.19.24-.12.43-.29.56-.5.14-.21.2-.45.2-.72v-.81c-.06.04-.16.08-.27.12-.12.04-.24.07-.39.09s-.28.05-.43.07-.27.04-.39.06c-.25.04-.46.09-.65.17-.19.08-.33.19-.43.32-.1.13-.15.3-.15.5,0,.29.11.51.32.66.21.15.48.23.8.23Z"/><path class="l" d="m86.23,270.72c-.78,0-1.46-.17-2.02-.5-.56-.33-.99-.8-1.29-1.39-.3-.59-.45-1.28-.45-2.05s.15-1.47.46-2.06c.3-.59.73-1.05,1.29-1.39.56-.33,1.23-.5,2-.5.67,0,1.25.12,1.75.36s.9.58,1.19,1.02c.29.44.45.95.48,1.54h-2c-.06-.38-.21-.69-.45-.92-.24-.23-.55-.35-.94-.35-.33,0-.62.09-.86.27-.24.18-.43.44-.57.77-.13.34-.2.75-.2,1.23s.07.9.2,1.24.32.6.57.78c.25.18.53.27.86.27.24,0,.46-.05.65-.15.2-.1.36-.24.48-.43.13-.19.21-.42.25-.69h2c-.03.58-.19,1.1-.47,1.54-.28.44-.67.79-1.17,1.04-.5.25-1.09.37-1.77.37Z"/><path class="l" d="m94.49,270.72c-.79,0-1.46-.16-2.03-.48-.56-.32-1-.77-1.3-1.36-.3-.59-.46-1.29-.46-2.09s.15-1.47.46-2.07c.3-.59.73-1.06,1.29-1.39.56-.33,1.21-.5,1.96-.5.5,0,.97.08,1.41.24.44.16.82.4,1.14.72s.58.73.76,1.21c.18.49.27,1.05.27,1.7v.58h-6.45v-1.31h4.46c0-.3-.07-.58-.2-.81s-.31-.42-.55-.55c-.23-.13-.5-.2-.81-.2s-.61.07-.85.22c-.25.15-.44.34-.58.59-.14.25-.21.52-.21.82v1.25c0,.38.07.7.21.98.14.28.34.49.6.64.26.15.57.22.92.22.24,0,.45-.03.65-.1s.36-.17.5-.3c.14-.13.25-.29.32-.49l1.96.13c-.1.47-.3.88-.61,1.23s-.7.62-1.18.82c-.48.19-1.04.29-1.67.29Z"/><path class="l" d="m5.26,287.37v-1.26l3.74-4.63v-.05h-3.61v-1.69h6.16v1.38l-3.51,4.51v.05h3.64v1.69h-6.42Z"/><path class="l" d="m15.9,287.49c-.58,0-1.1-.15-1.57-.45-.47-.3-.84-.74-1.12-1.33s-.41-1.3-.41-2.16.14-1.6.42-2.18c.28-.58.66-1.02,1.12-1.31s.98-.43,1.54-.43c.43,0,.78.07,1.07.22s.52.32.7.54c.18.21.31.42.4.63h.06v-3.83h2.11v10.18h-2.09v-1.22h-.09c-.1.21-.24.42-.42.63-.18.21-.41.38-.7.51-.29.14-.63.2-1.05.2Zm.67-1.69c.34,0,.63-.09.87-.28s.42-.45.55-.79.19-.73.19-1.19-.06-.85-.19-1.18c-.12-.33-.31-.59-.55-.78-.24-.18-.53-.27-.87-.27s-.64.09-.88.28c-.24.19-.42.45-.54.79s-.18.72-.18,1.16.06.84.19,1.18.3.61.54.8c.24.19.53.29.88.29Z"/><path class="l" d="m21.98,287.37v-7.64h2.05v1.33h.08c.14-.47.37-.83.7-1.08.33-.24.71-.37,1.13-.37.11,0,.22,0,.34.02.12.01.23.03.32.05v1.88c-.1-.03-.24-.06-.41-.08-.18-.02-.34-.04-.48-.04-.31,0-.59.07-.83.2-.24.13-.44.32-.58.56-.14.24-.21.51-.21.83v4.32h-2.12Z"/><path class="l" d="m30.8,287.52c-.77,0-1.44-.17-2-.5-.56-.33-.99-.79-1.3-1.38s-.46-1.28-.46-2.06.15-1.48.46-2.07c.3-.59.74-1.05,1.3-1.38.56-.33,1.23-.49,2-.49s1.44.16,2,.49c.56.33.99.79,1.3,1.38.3.59.46,1.28.46,2.07s-.15,1.47-.46,2.06-.74,1.05-1.3,1.38c-.56.33-1.23.5-2,.5Zm0-1.64c.35,0,.64-.1.88-.3.23-.2.41-.47.53-.82.12-.35.18-.74.18-1.19s-.06-.84-.18-1.19c-.12-.35-.3-.62-.53-.83-.24-.2-.53-.3-.88-.3s-.65.1-.89.3-.42.48-.54.83c-.12.35-.18.74-.18,1.19s.06.84.18,1.19c.12.35.3.62.54.82.24.2.54.3.89.3Z"/><path class="l" d="m35.94,279.73h2.12v8.01c0,.59-.12,1.07-.35,1.43s-.56.63-1,.8c-.43.17-.95.25-1.55.25-.07,0-.14,0-.21,0-.07,0-.14,0-.22,0v-1.66c.06,0,.11,0,.15,0,.04,0,.09,0,.13,0,.34,0,.58-.07.72-.22.14-.14.21-.36.21-.65v-7.98Zm1.05-.98c-.31,0-.58-.1-.81-.32-.22-.21-.34-.46-.34-.76s.11-.54.34-.75c.23-.21.49-.32.81-.32s.59.11.81.32c.22.21.34.46.34.75s-.11.55-.34.76c-.22.21-.49.32-.81.32Z"/><path class="l" d="m44.64,284.11v-4.39h2.12v7.64h-2.03v-1.39h-.08c-.17.45-.46.81-.86,1.08-.4.27-.88.41-1.46.41-.51,0-.96-.12-1.35-.35-.39-.23-.69-.56-.91-.99-.22-.43-.33-.94-.33-1.54v-4.86h2.12v4.48c0,.45.12.81.36,1.07.24.26.56.39.96.39.26,0,.49-.06.71-.18.22-.12.4-.29.54-.52.14-.23.2-.52.2-.86Zm-1.38-5.21c-.32,0-.6-.07-.86-.22-.26-.15-.46-.34-.62-.59s-.23-.52-.23-.82.08-.58.23-.83.36-.45.62-.6c.26-.15.54-.23.86-.23s.6.08.85.23c.26.15.46.35.61.6.15.25.23.53.23.83s-.08.58-.23.82c-.15.25-.36.44-.61.59-.25.15-.54.22-.85.22Zm0-.88c.22,0,.4-.08.55-.23.15-.15.22-.32.22-.52s-.07-.38-.22-.53c-.15-.15-.33-.23-.55-.23-.22,0-.41.08-.55.23-.15.15-.22.33-.22.53s.07.37.22.52c.15.15.33.22.55.22Z"/><path class="l" d="m55.18,287.52c-.79,0-1.46-.16-2.03-.48-.56-.32-1-.77-1.3-1.36-.3-.59-.46-1.29-.46-2.09s.15-1.47.46-2.07c.3-.59.73-1.06,1.29-1.39.56-.33,1.21-.5,1.96-.5.5,0,.97.08,1.41.24.44.16.82.4,1.14.72s.58.73.76,1.21c.18.49.27,1.05.27,1.7v.58h-6.45v-1.31h4.46c0-.3-.07-.58-.2-.81s-.31-.42-.55-.55c-.23-.13-.5-.2-.81-.2s-.61.07-.85.22c-.25.15-.44.34-.58.59-.14.25-.21.52-.21.82v1.25c0,.38.07.7.21.98.14.28.34.49.6.64.26.15.57.22.92.22.24,0,.45-.03.65-.1s.36-.17.5-.3c.14-.13.25-.29.32-.49l1.96.13c-.1.47-.3.88-.61,1.23s-.7.62-1.18.82c-.48.19-1.04.29-1.67.29Z"/><path class="l" d="m62.18,282.95v4.42h-2.12v-7.64h2.02v1.35h.09c.17-.44.45-.8.85-1.06.4-.26.88-.39,1.45-.39.53,0,.99.12,1.39.35s.7.56.92.99c.22.43.33.94.33,1.53v4.86h-2.12v-4.48c0-.47-.12-.83-.36-1.1-.24-.26-.57-.39-1-.39-.29,0-.54.06-.75.18-.22.12-.39.3-.51.53-.12.23-.18.51-.19.84Z"/><path class="l" d="m72.25,287.52c-.79,0-1.46-.16-2.03-.48-.56-.32-1-.77-1.3-1.36-.3-.59-.46-1.29-.46-2.09s.15-1.47.46-2.07c.3-.59.73-1.06,1.29-1.39.56-.33,1.21-.5,1.96-.5.5,0,.97.08,1.41.24.44.16.82.4,1.14.72s.58.73.76,1.21c.18.49.27,1.05.27,1.7v.58h-6.45v-1.31h4.46c0-.3-.07-.58-.2-.81s-.31-.42-.55-.55c-.23-.13-.5-.2-.81-.2s-.61.07-.85.22c-.25.15-.44.34-.58.59-.14.25-.21.52-.21.82v1.25c0,.38.07.7.21.98.14.28.34.49.6.64.26.15.57.22.92.22.24,0,.45-.03.65-.1s.36-.17.5-.3c.14-.13.25-.29.32-.49l1.96.13c-.1.47-.3.88-.61,1.23s-.7.62-1.18.82c-.48.19-1.04.29-1.67.29Z"/><path class="l" d="m77.14,287.37v-7.64h2.05v1.33h.08c.14-.47.37-.83.7-1.08.33-.24.71-.37,1.13-.37.11,0,.22,0,.34.02.12.01.23.03.32.05v1.88c-.1-.03-.24-.06-.41-.08-.18-.02-.34-.04-.48-.04-.31,0-.59.07-.83.2-.24.13-.44.32-.58.56s-.21.51-.21.83v4.32h-2.12Z"/><path class="l" d="m85.94,290.39c-.69,0-1.27-.09-1.76-.28-.49-.19-.88-.44-1.17-.76-.29-.32-.48-.68-.56-1.08l1.96-.26c.06.15.15.29.28.43.13.13.3.24.51.32.21.08.48.12.78.12.46,0,.84-.11,1.14-.33.3-.22.45-.6.45-1.12v-1.4h-.09c-.09.21-.23.41-.42.6-.19.19-.42.34-.71.46-.29.12-.64.18-1.04.18-.57,0-1.09-.13-1.56-.4s-.84-.68-1.12-1.23-.42-1.25-.42-2.1.14-1.59.42-2.17c.28-.58.66-1.01,1.12-1.3.47-.29.98-.43,1.54-.43.43,0,.79.07,1.07.22.29.14.52.32.7.54s.31.42.41.63h.08v-1.28h2.1v7.71c0,.65-.16,1.19-.48,1.63s-.76.77-1.32.99c-.56.22-1.21.33-1.94.33Zm.04-4.72c.34,0,.63-.08.87-.26s.42-.42.55-.74c.13-.32.19-.7.19-1.15s-.06-.84-.19-1.17c-.12-.33-.31-.59-.55-.77-.24-.18-.53-.27-.87-.27s-.64.09-.88.28-.42.45-.54.78c-.12.33-.18.71-.18,1.15s.06.82.19,1.14c.12.32.3.57.54.74.24.17.53.26.88.26Z"/><path class="l" d="m92.43,278.74c-.32,0-.58-.1-.81-.32-.22-.21-.34-.46-.34-.76s.11-.54.34-.75c.22-.21.49-.32.81-.32s.58.11.81.32c.22.21.34.46.34.75s-.11.55-.34.76c-.22.21-.49.32-.81.32Zm-1.06,8.62v-7.64h2.12v7.64h-2.12Z"/><path class="l" d="m98.65,287.52c-.79,0-1.46-.16-2.03-.48-.56-.32-1-.77-1.3-1.36-.3-.59-.46-1.29-.46-2.09s.15-1.47.46-2.07c.3-.59.73-1.06,1.29-1.39.56-.33,1.21-.5,1.96-.5.5,0,.97.08,1.41.24.44.16.82.4,1.14.72s.58.73.76,1.21c.18.49.27,1.05.27,1.7v.58h-6.45v-1.31h4.46c0-.3-.07-.58-.2-.81s-.31-.42-.55-.55c-.23-.13-.5-.2-.81-.2s-.61.07-.85.22c-.25.15-.44.34-.58.59-.14.25-.21.52-.21.82v1.25c0,.38.07.7.21.98.14.28.34.49.6.64.26.15.57.22.92.22.24,0,.45-.03.65-.1s.36-.17.5-.3c.14-.13.25-.29.32-.49l1.96.13c-.1.47-.3.88-.61,1.23s-.7.62-1.18.82c-.48.19-1.04.29-1.67.29Z"/></g><g class="n"><path class="l" d="m172.86,260.38h2.15v6.61c0,.74-.18,1.39-.53,1.95-.35.56-.85.99-1.48,1.3-.63.31-1.37.46-2.21.46s-1.58-.16-2.22-.46c-.63-.31-1.12-.74-1.48-1.3-.35-.56-.53-1.21-.53-1.95v-6.61h2.15v6.43c0,.39.08.73.26,1.03.17.3.41.54.72.71.31.17.67.26,1.09.26s.78-.09,1.09-.26c.31-.17.55-.41.72-.71s.26-.65.26-1.03v-6.43Zm-2.83-.98l1.05-2.26h1.96l-1.52,2.26h-1.5Z"/><path class="l" d="m183.1,265.11l-1.94.12c-.03-.17-.1-.32-.21-.45-.11-.13-.25-.24-.43-.32-.18-.08-.39-.12-.63-.12-.33,0-.61.07-.83.21-.23.14-.34.32-.34.55,0,.18.07.34.22.46.15.13.4.23.75.3l1.38.28c.74.15,1.3.4,1.66.74.36.34.55.78.55,1.33,0,.5-.15.94-.44,1.32-.29.38-.69.67-1.2.88-.51.21-1.09.32-1.76.32-1.01,0-1.82-.21-2.41-.63-.6-.42-.95-1-1.05-1.73l2.08-.11c.06.31.22.54.46.7.24.16.55.24.93.24s.67-.07.9-.22c.23-.14.34-.33.34-.56,0-.19-.08-.35-.24-.48-.16-.12-.4-.22-.74-.29l-1.32-.26c-.75-.15-1.3-.41-1.66-.78-.36-.37-.54-.84-.54-1.41,0-.49.13-.91.4-1.27s.64-.63,1.13-.82c.49-.19,1.06-.29,1.71-.29.96,0,1.72.2,2.28.61.56.41.88.96.97,1.67Z"/><path class="l" d="m184.61,273.43v-10.5h2.09v1.28h.09c.09-.21.23-.42.41-.63.18-.21.41-.39.7-.54s.64-.22,1.07-.22c.56,0,1.07.14,1.54.43s.85.73,1.13,1.31c.28.58.42,1.31.42,2.18s-.14,1.57-.41,2.16-.65,1.03-1.11,1.33c-.47.3-.99.45-1.57.45-.41,0-.76-.07-1.05-.2-.29-.14-.52-.31-.7-.51s-.32-.42-.42-.63h-.06v4.09h-2.12Zm2.07-6.68c0,.45.06.85.19,1.19s.31.6.55.79c.24.19.53.28.87.28s.64-.09.88-.29c.24-.19.42-.46.54-.8s.19-.73.19-1.18-.06-.83-.18-1.16c-.12-.33-.3-.6-.54-.79-.24-.19-.53-.28-.88-.28s-.64.09-.87.27c-.24.18-.42.44-.54.78-.13.33-.19.73-.19,1.18Z"/><path class="l" d="m196.91,270.72c-.77,0-1.44-.17-2-.5-.56-.33-1-.79-1.3-1.38s-.46-1.28-.46-2.06.15-1.48.46-2.07c.3-.59.74-1.05,1.3-1.38.56-.33,1.23-.49,2-.49s1.44.16,2,.49c.56.33,1,.79,1.3,1.38.3.59.46,1.28.46,2.07s-.15,1.47-.46,2.06-.74,1.05-1.3,1.38c-.56.33-1.23.5-2,.5Zm0-1.64c.35,0,.64-.1.88-.3.24-.2.41-.47.53-.82.12-.35.18-.74.18-1.19s-.06-.84-.18-1.19c-.12-.35-.3-.62-.53-.83s-.53-.3-.88-.3-.65.1-.89.3-.42.48-.54.83c-.12.35-.18.74-.18,1.19s.06.84.18,1.19c.12.35.3.62.54.82.24.2.54.3.89.3Z"/><path class="l" d="m202.05,270.57v-7.64h2.05v1.33h.08c.14-.47.37-.83.7-1.08.33-.24.71-.37,1.13-.37.11,0,.22,0,.34.02.12.01.23.03.32.05v1.88c-.1-.03-.24-.06-.41-.08-.18-.02-.34-.04-.48-.04-.31,0-.59.07-.83.2-.24.13-.44.32-.58.56-.14.24-.21.51-.21.83v4.32h-2.12Z"/><path class="l" d="m209.32,273.43c-.27,0-.52-.02-.75-.06-.23-.04-.43-.09-.58-.16l.48-1.58c.25.08.47.12.67.12.2,0,.37-.04.52-.14s.27-.27.36-.51l.12-.32-2.74-7.86h2.23l1.58,5.61h.08l1.6-5.61h2.24l-2.97,8.46c-.14.41-.33.77-.58,1.08-.24.31-.55.54-.92.71-.37.17-.82.25-1.34.25Z"/><path class="l" d="m222.94,270.72c-.79,0-1.46-.16-2.03-.48-.57-.32-1-.77-1.31-1.36-.3-.59-.46-1.29-.46-2.09s.15-1.47.46-2.07c.3-.59.74-1.06,1.29-1.39.56-.33,1.21-.5,1.96-.5.5,0,.97.08,1.41.24.44.16.82.4,1.14.72.33.32.58.73.76,1.21s.27,1.05.27,1.7v.58h-6.45v-1.31h4.46c0-.3-.07-.58-.2-.81s-.32-.42-.55-.55c-.23-.13-.5-.2-.81-.2s-.61.07-.85.22-.44.34-.58.59-.21.52-.21.82v1.25c0,.38.07.7.21.98.14.28.34.49.6.64.26.15.57.22.92.22.24,0,.45-.03.65-.1.2-.07.36-.17.5-.3.14-.13.25-.29.32-.49l1.96.13c-.1.47-.3.88-.61,1.23s-.7.62-1.18.82c-.48.19-1.04.29-1.67.29Z"/><path class="l" d="m229.95,266.15v4.42h-2.12v-7.64h2.02v1.35h.09c.17-.44.45-.8.85-1.06.4-.26.88-.39,1.45-.39.53,0,.99.12,1.39.35s.7.56.92.99c.22.43.33.94.33,1.53v4.86h-2.12v-4.48c0-.47-.12-.83-.36-1.1-.24-.26-.58-.39-1-.39-.29,0-.54.06-.75.18-.22.12-.39.3-.51.53-.12.23-.18.51-.19.84Z"/><path class="l" d="m240.02,270.72c-.79,0-1.46-.16-2.03-.48-.57-.32-1-.77-1.31-1.36-.3-.59-.46-1.29-.46-2.09s.15-1.47.46-2.07c.3-.59.74-1.06,1.29-1.39.56-.33,1.21-.5,1.96-.5.5,0,.97.08,1.41.24.44.16.82.4,1.14.72.33.32.58.73.76,1.21s.27,1.05.27,1.7v.58h-6.45v-1.31h4.46c0-.3-.07-.58-.2-.81s-.32-.42-.55-.55c-.23-.13-.5-.2-.81-.2s-.61.07-.85.22-.44.34-.58.59-.21.52-.21.82v1.25c0,.38.07.7.21.98.14.28.34.49.6.64.26.15.57.22.92.22.24,0,.45-.03.65-.1.2-.07.36-.17.5-.3.14-.13.25-.29.32-.49l1.96.13c-.1.47-.3.88-.61,1.23s-.7.62-1.18.82c-.48.19-1.04.29-1.67.29Z"/><path class="l" d="m244.9,270.57v-7.64h2.05v1.33h.08c.14-.47.37-.83.7-1.08.33-.24.71-.37,1.13-.37.11,0,.22,0,.34.02.12.01.23.03.32.05v1.88c-.1-.03-.24-.06-.41-.08-.18-.02-.34-.04-.48-.04-.31,0-.59.07-.83.2-.24.13-.44.32-.58.56-.14.24-.21.51-.21.83v4.32h-2.12Z"/><path class="l" d="m253.71,273.59c-.69,0-1.27-.09-1.76-.28-.49-.19-.88-.44-1.17-.76s-.48-.68-.56-1.08l1.96-.26c.06.15.15.29.28.43.13.13.3.24.51.32.21.08.48.12.78.12.46,0,.84-.11,1.14-.33.3-.22.45-.6.45-1.12v-1.4h-.09c-.09.21-.23.41-.42.6-.19.19-.42.34-.72.46s-.64.18-1.04.18c-.57,0-1.09-.13-1.56-.4s-.84-.68-1.12-1.23c-.28-.55-.42-1.25-.42-2.1s.14-1.59.42-2.17c.28-.58.66-1.01,1.13-1.3.47-.29.98-.43,1.54-.43.43,0,.79.07,1.07.22.29.14.52.32.7.54.18.21.31.42.41.63h.08v-1.28h2.1v7.71c0,.65-.16,1.19-.48,1.63s-.76.77-1.32.99c-.56.22-1.21.33-1.94.33Zm.04-4.72c.34,0,.63-.08.87-.26.24-.17.42-.42.55-.74.13-.32.19-.7.19-1.15s-.06-.84-.19-1.17-.31-.59-.55-.77c-.24-.18-.53-.27-.87-.27s-.64.09-.88.28-.42.45-.54.78c-.12.33-.18.71-.18,1.15s.06.82.19,1.14c.12.32.3.57.54.74.24.17.53.26.88.26Z"/><path class="l" d="m260.2,261.94c-.32,0-.58-.1-.81-.32-.22-.21-.34-.46-.34-.76s.11-.54.34-.75c.22-.21.49-.32.81-.32s.58.11.81.32c.22.21.34.46.34.75s-.11.55-.34.76c-.22.21-.49.32-.81.32Zm-1.06,8.62v-7.64h2.12v7.64h-2.12Z"/><path class="l" d="m266.42,270.72c-.79,0-1.46-.16-2.03-.48-.57-.32-1-.77-1.31-1.36-.3-.59-.46-1.29-.46-2.09s.15-1.47.46-2.07c.3-.59.74-1.06,1.29-1.39.56-.33,1.21-.5,1.96-.5.5,0,.97.08,1.41.24.44.16.82.4,1.14.72.33.32.58.73.76,1.21s.27,1.05.27,1.7v.58h-6.45v-1.31h4.46c0-.3-.07-.58-.2-.81s-.32-.42-.55-.55c-.23-.13-.5-.2-.81-.2s-.61.07-.85.22-.44.34-.58.59-.21.52-.21.82v1.25c0,.38.07.7.21.98.14.28.34.49.6.64.26.15.57.22.92.22.24,0,.45-.03.65-.1.2-.07.36-.17.5-.3.14-.13.25-.29.32-.49l1.96.13c-.1.47-.3.88-.61,1.23s-.7.62-1.18.82c-.48.19-1.04.29-1.67.29Z"/><path class="l" d="m174.53,287.51c-.49,0-.92-.09-1.3-.26-.38-.17-.68-.42-.9-.76-.22-.34-.33-.76-.33-1.26,0-.42.08-.78.23-1.07.16-.29.37-.52.64-.7s.57-.31.92-.4c.34-.09.7-.15,1.08-.19.44-.05.8-.09,1.07-.13.27-.04.47-.1.59-.19.12-.08.18-.21.18-.37v-.03c0-.31-.1-.56-.3-.73-.2-.17-.48-.26-.84-.26-.38,0-.68.08-.91.25s-.38.38-.45.63l-1.96-.16c.1-.46.29-.87.59-1.21.29-.34.67-.6,1.13-.79.46-.18,1-.28,1.61-.28.42,0,.83.05,1.22.15.39.1.74.25,1.04.46.3.21.54.48.72.8s.26.72.26,1.17v5.15h-2.01v-1.06h-.06c-.12.24-.29.45-.49.63s-.45.32-.74.42c-.29.1-.62.15-1,.15Zm.61-1.46c.31,0,.59-.06.83-.19.24-.12.43-.29.56-.5.14-.21.2-.45.2-.72v-.81c-.07.04-.16.08-.27.12s-.24.07-.39.09-.28.05-.43.07-.27.04-.39.06c-.25.04-.47.09-.65.17-.19.08-.33.19-.43.32-.1.13-.15.3-.15.5,0,.29.11.51.32.66.21.15.48.23.8.23Z"/><path class="l" d="m187.2,287.52c-.79,0-1.46-.16-2.03-.48-.57-.32-1-.77-1.31-1.36-.3-.59-.46-1.29-.46-2.09s.15-1.47.46-2.07c.3-.59.74-1.06,1.29-1.39.56-.33,1.21-.5,1.96-.5.5,0,.97.08,1.41.24.44.16.82.4,1.14.72.33.32.58.73.76,1.21s.27,1.05.27,1.7v.58h-6.45v-1.31h4.46c0-.3-.07-.58-.2-.81s-.32-.42-.55-.55c-.23-.13-.5-.2-.81-.2s-.61.07-.85.22-.44.34-.58.59-.21.52-.21.82v1.25c0,.38.07.7.21.98.14.28.34.49.6.64.26.15.57.22.92.22.24,0,.45-.03.65-.1.2-.07.36-.17.5-.3.14-.13.25-.29.32-.49l1.96.13c-.1.47-.3.88-.61,1.23s-.7.62-1.18.82c-.48.19-1.04.29-1.67.29Z"/><path class="l" d="m194.2,282.95v4.42h-2.12v-7.64h2.02v1.35h.09c.17-.44.45-.8.85-1.06.4-.26.88-.39,1.45-.39.53,0,.99.12,1.39.35s.7.56.92.99c.22.43.33.94.33,1.53v4.86h-2.12v-4.48c0-.47-.12-.83-.36-1.1-.24-.26-.58-.39-1-.39-.29,0-.54.06-.75.18-.22.12-.39.3-.51.53-.12.23-.18.51-.19.84Z"/><path class="l" d="m204.27,287.52c-.79,0-1.46-.16-2.03-.48-.57-.32-1-.77-1.31-1.36-.3-.59-.46-1.29-.46-2.09s.15-1.47.46-2.07c.3-.59.74-1.06,1.29-1.39.56-.33,1.21-.5,1.96-.5.5,0,.97.08,1.41.24.44.16.82.4,1.14.72.33.32.58.73.76,1.21s.27,1.05.27,1.7v.58h-6.45v-1.31h4.46c0-.3-.07-.58-.2-.81s-.32-.42-.55-.55c-.23-.13-.5-.2-.81-.2s-.61.07-.85.22-.44.34-.58.59-.21.52-.21.82v1.25c0,.38.07.7.21.98.14.28.34.49.6.64.26.15.57.22.92.22.24,0,.45-.03.65-.1.2-.07.36-.17.5-.3.14-.13.25-.29.32-.49l1.96.13c-.1.47-.3.88-.61,1.23s-.7.62-1.18.82c-.48.19-1.04.29-1.67.29Z"/><path class="l" d="m209.16,287.37v-7.64h2.05v1.33h.08c.14-.47.37-.83.7-1.08.33-.24.71-.37,1.13-.37.11,0,.22,0,.34.02.12.01.23.03.32.05v1.88c-.1-.03-.24-.06-.41-.08-.18-.02-.34-.04-.48-.04-.31,0-.59.07-.83.2-.24.13-.44.32-.58.56-.14.24-.21.51-.21.83v4.32h-2.12Z"/><path class="l" d="m217.96,290.39c-.69,0-1.27-.09-1.76-.28-.49-.19-.88-.44-1.17-.76s-.48-.68-.56-1.08l1.96-.26c.06.15.15.29.28.43.13.13.3.24.51.32.21.08.48.12.78.12.46,0,.84-.11,1.14-.33.3-.22.45-.6.45-1.12v-1.4h-.09c-.09.21-.23.41-.42.6-.19.19-.42.34-.72.46s-.64.18-1.04.18c-.57,0-1.09-.13-1.56-.4s-.84-.68-1.12-1.23c-.28-.55-.42-1.25-.42-2.1s.14-1.59.42-2.17c.28-.58.66-1.01,1.13-1.3.47-.29.98-.43,1.54-.43.43,0,.79.07,1.07.22.29.14.52.32.7.54.18.21.31.42.41.63h.08v-1.28h2.1v7.71c0,.65-.16,1.19-.48,1.63s-.76.77-1.32.99c-.56.22-1.21.33-1.94.33Zm.04-4.72c.34,0,.63-.08.87-.26.24-.17.42-.42.55-.74.13-.32.19-.7.19-1.15s-.06-.84-.19-1.17-.31-.59-.55-.77c-.24-.18-.53-.27-.87-.27s-.64.09-.88.28-.42.45-.54.78c-.12.33-.18.71-.18,1.15s.06.82.19,1.14c.12.32.3.57.54.74.24.17.53.26.88.26Z"/><path class="l" d="m226.87,287.52c-.79,0-1.46-.16-2.03-.48-.57-.32-1-.77-1.31-1.36-.3-.59-.46-1.29-.46-2.09s.15-1.47.46-2.07c.3-.59.74-1.06,1.29-1.39.56-.33,1.21-.5,1.96-.5.5,0,.97.08,1.41.24.44.16.82.4,1.14.72.33.32.58.73.76,1.21s.27,1.05.27,1.7v.58h-6.45v-1.31h4.46c0-.3-.07-.58-.2-.81s-.32-.42-.55-.55c-.23-.13-.5-.2-.81-.2s-.61.07-.85.22-.44.34-.58.59-.21.52-.21.82v1.25c0,.38.07.7.21.98.14.28.34.49.6.64.26.15.57.22.92.22.24,0,.45-.03.65-.1.2-.07.36-.17.5-.3.14-.13.25-.29.32-.49l1.96.13c-.1.47-.3.88-.61,1.23s-.7.62-1.18.82c-.48.19-1.04.29-1.67.29Z"/><path class="l" d="m235.81,279.73v1.59h-4.6v-1.59h4.6Zm-3.55-1.83h2.12v7.12c0,.2.03.35.09.46s.14.18.25.23c.11.04.23.06.38.06.1,0,.2,0,.3-.03.1-.02.18-.03.23-.04l.33,1.58c-.11.03-.25.07-.45.12s-.43.07-.7.08c-.51.02-.96-.05-1.34-.2-.38-.16-.68-.4-.89-.73-.21-.33-.32-.74-.31-1.24v-7.4Z"/><path class="l" d="m238.26,278.74c-.32,0-.58-.1-.81-.32-.22-.21-.34-.46-.34-.76s.11-.54.34-.75c.22-.21.49-.32.81-.32s.58.11.81.32c.22.21.34.46.34.75s-.11.55-.34.76c-.22.21-.49.32-.81.32Zm-1.06,8.62v-7.64h2.12v7.64h-2.12Z"/><path class="l" d="m244.45,287.52c-.78,0-1.46-.17-2.02-.5s-.99-.8-1.29-1.39c-.3-.59-.45-1.28-.45-2.05s.15-1.47.46-2.06c.3-.59.73-1.05,1.29-1.39.56-.33,1.23-.5,2-.5.67,0,1.25.12,1.75.36.5.24.9.58,1.19,1.02s.45.95.48,1.54h-2c-.06-.38-.2-.69-.44-.92-.24-.23-.55-.35-.94-.35-.33,0-.61.09-.86.27-.24.18-.43.44-.57.77s-.2.75-.2,1.23.07.9.2,1.24c.13.34.32.6.57.78s.53.27.86.27c.24,0,.46-.05.65-.15.19-.1.36-.24.48-.43.13-.19.21-.42.25-.69h2c-.03.58-.19,1.1-.47,1.54-.28.44-.67.79-1.17,1.04-.5.25-1.09.37-1.76.37Z"/><path class="l" d="m249.22,287.37v-10.18h2.12v10.18h-2.12Zm1.92-2.2v-2.54h.31l2.45-2.9h2.43l-3.29,3.84h-.5l-1.4,1.6Zm2.85,2.2l-2.25-3.33,1.41-1.5,3.32,4.82h-2.48Z"/><path class="l" d="m259.54,287.51c-.49,0-.92-.09-1.3-.26-.38-.17-.68-.42-.9-.76-.22-.34-.33-.76-.33-1.26,0-.42.08-.78.23-1.07.16-.29.37-.52.64-.7s.57-.31.92-.4c.34-.09.7-.15,1.08-.19.44-.05.8-.09,1.07-.13.27-.04.47-.1.59-.19.12-.08.18-.21.18-.37v-.03c0-.31-.1-.56-.3-.73-.2-.17-.48-.26-.84-.26-.38,0-.68.08-.91.25s-.38.38-.45.63l-1.96-.16c.1-.46.29-.87.59-1.21.29-.34.67-.6,1.13-.79.46-.18,1-.28,1.61-.28.42,0,.83.05,1.22.15.39.1.74.25,1.04.46.3.21.54.48.72.8s.26.72.26,1.17v5.15h-2.01v-1.06h-.06c-.12.24-.29.45-.49.63s-.45.32-.74.42c-.29.1-.62.15-1,.15Zm.61-1.46c.31,0,.59-.06.83-.19.24-.12.43-.29.56-.5.14-.21.2-.45.2-.72v-.81c-.07.04-.16.08-.27.12s-.24.07-.39.09-.28.05-.43.07-.27.04-.39.06c-.25.04-.47.09-.65.17-.19.08-.33.19-.43.32-.1.13-.15.3-.15.5,0,.29.11.51.32.66.21.15.48.23.8.23Zm-.23-7.3l1.05-2.26h1.96l-1.52,2.26h-1.5Z"/><path class="l" d="m193.8,300.91v-4.39h2.12v7.64h-2.03v-1.39h-.08c-.17.45-.46.81-.86,1.08-.4.27-.89.41-1.46.41-.51,0-.96-.12-1.35-.35-.39-.23-.69-.56-.91-.99-.22-.43-.33-.94-.33-1.54v-4.86h2.12v4.48c0,.45.12.81.36,1.07.24.26.56.39.96.39.26,0,.49-.06.72-.18.22-.12.4-.29.54-.52.14-.23.2-.52.2-.86Zm-2.14-5.37l1.05-2.26h1.96l-1.52,2.26h-1.5Z"/><path class="l" d="m201.05,304.31c-.78,0-1.46-.17-2.02-.5s-.99-.8-1.29-1.39c-.3-.59-.45-1.28-.45-2.05s.15-1.47.46-2.06c.3-.59.73-1.05,1.29-1.39.56-.33,1.23-.5,2-.5.67,0,1.25.12,1.75.36.5.24.9.58,1.19,1.02s.45.95.48,1.54h-2c-.06-.38-.2-.69-.44-.92-.24-.23-.55-.35-.94-.35-.33,0-.61.09-.86.27-.24.18-.43.44-.57.77s-.2.75-.2,1.23.07.9.2,1.24c.13.34.32.6.57.78s.53.27.86.27c.24,0,.46-.05.65-.15.19-.1.36-.24.48-.43.13-.19.21-.42.25-.69h2c-.03.58-.19,1.1-.47,1.54-.28.44-.67.79-1.17,1.04-.5.25-1.09.37-1.76.37Zm-1-10.96l1,1.21,1-1.21h1.8v.07l-2.02,2.19h-1.58l-2.01-2.19v-.07h1.8Z"/><path class="l" d="m206.89,295.54c-.32,0-.58-.1-.81-.32-.22-.21-.34-.46-.34-.76s.11-.54.34-.75c.22-.21.49-.32.81-.32s.58.11.81.32c.22.21.34.46.34.75s-.11.55-.34.76c-.22.21-.49.32-.81.32Zm-1.06,8.62v-7.64h2.12v7.64h-2.12Z"/><path class="l" d="m211.75,299.75v4.42h-2.12v-7.64h2.02v1.35h.09c.17-.44.45-.8.85-1.06.4-.26.88-.39,1.45-.39.53,0,.99.12,1.39.35s.7.56.92.99c.22.43.33.94.33,1.53v4.86h-2.12v-4.48c0-.47-.12-.83-.36-1.1-.24-.26-.58-.39-1-.39-.29,0-.54.06-.75.18-.22.12-.39.3-.51.53-.12.23-.18.51-.19.84Z"/><path class="l" d="m220.46,299.75v4.42h-2.12v-7.64h2.02v1.35h.09c.17-.44.45-.8.85-1.06.4-.26.88-.39,1.45-.39.53,0,.99.12,1.39.35s.7.56.92.99c.22.43.33.94.33,1.53v4.86h-2.12v-4.48c0-.47-.12-.83-.36-1.1-.24-.26-.58-.39-1-.39-.29,0-.54.06-.75.18-.22.12-.39.3-.51.53-.12.23-.18.51-.19.84Z"/><path class="l" d="m230.5,304.31c-.77,0-1.44-.17-2-.5-.56-.33-1-.79-1.3-1.38s-.46-1.28-.46-2.06.15-1.48.46-2.07c.3-.59.74-1.05,1.3-1.38.56-.33,1.23-.49,2-.49s1.44.16,2,.49c.56.33,1,.79,1.3,1.38.3.59.46,1.28.46,2.07s-.15,1.47-.46,2.06-.74,1.05-1.3,1.38c-.56.33-1.23.5-2,.5Zm0-1.64c.35,0,.64-.1.88-.3.24-.2.41-.47.53-.82.12-.35.18-.74.18-1.19s-.06-.84-.18-1.19c-.12-.35-.3-.62-.53-.83s-.53-.3-.88-.3-.65.1-.89.3-.42.48-.54.83c-.12.35-.18.74-.18,1.19s.06.84.18,1.19c.12.35.3.62.54.82.24.2.54.3.89.3Z"/><path class="l" d="m241.99,298.71l-1.94.12c-.03-.17-.1-.32-.21-.45-.11-.13-.25-.24-.43-.32-.18-.08-.39-.12-.63-.12-.33,0-.61.07-.83.21-.23.14-.34.32-.34.55,0,.18.07.34.22.46.15.13.4.23.75.3l1.38.28c.74.15,1.3.4,1.66.74.36.34.55.78.55,1.33,0,.5-.15.94-.44,1.32-.29.38-.69.67-1.2.88-.51.21-1.09.32-1.76.32-1.01,0-1.82-.21-2.41-.63-.6-.42-.95-1-1.05-1.73l2.08-.11c.06.31.22.54.46.7.24.16.55.24.93.24s.67-.07.9-.22c.23-.14.34-.33.34-.56,0-.19-.08-.35-.24-.48-.16-.12-.4-.22-.74-.29l-1.32-.26c-.75-.15-1.3-.41-1.66-.78-.36-.37-.54-.84-.54-1.41,0-.49.13-.91.4-1.27s.64-.63,1.13-.82c.49-.19,1.06-.29,1.71-.29.96,0,1.72.2,2.28.61.56.41.88.96.97,1.67Z"/><path class="l" d="m247.56,296.53v1.59h-4.6v-1.59h4.6Zm-3.55-1.83h2.12v7.12c0,.2.03.35.09.46s.14.18.25.23c.11.04.23.06.38.06.1,0,.2,0,.3-.03.1-.02.18-.03.23-.04l.33,1.58c-.11.03-.25.07-.45.12s-.43.07-.7.08c-.51.02-.96-.05-1.34-.2-.38-.16-.68-.4-.89-.73-.21-.33-.32-.74-.31-1.24v-7.4Z"/></g><g class="n"><path class="l" d="m343.76,270.57v-10.18h4.02c.77,0,1.43.14,1.97.41s.96.66,1.25,1.16.43,1.08.43,1.76-.14,1.26-.44,1.74c-.29.49-.71.86-1.26,1.12-.55.26-1.22.39-2,.39h-2.69v-1.73h2.34c.41,0,.75-.06,1.02-.17.27-.11.47-.28.61-.51s.2-.51.2-.84-.07-.62-.2-.86-.34-.41-.61-.53-.62-.18-1.03-.18h-1.45v8.42h-2.15Zm5.5-4.63l2.53,4.63h-2.38l-2.48-4.63h2.32Z"/><path class="l" d="m356.23,270.72c-.77,0-1.44-.17-2-.5-.56-.33-1-.79-1.3-1.38s-.46-1.28-.46-2.06.15-1.48.46-2.07c.3-.59.74-1.05,1.3-1.38s1.23-.49,2-.49,1.44.16,2,.49,1,.79,1.3,1.38c.3.59.46,1.28.46,2.07s-.15,1.47-.46,2.06-.74,1.05-1.3,1.38c-.56.33-1.23.5-2,.5Zm0-1.64c.35,0,.64-.1.88-.3.24-.2.41-.47.54-.82.12-.35.18-.74.18-1.19s-.06-.84-.18-1.19c-.12-.35-.3-.62-.54-.83-.23-.2-.53-.3-.88-.3s-.65.1-.89.3-.42.48-.54.83c-.12.35-.18.74-.18,1.19s.06.84.18,1.19c.12.35.3.62.54.82.24.2.54.3.89.3Z"/><path class="l" d="m361.33,270.57v-1.26l3.74-4.63v-.05h-3.61v-1.69h6.16v1.38l-3.51,4.51v.05h3.64v1.69h-6.42Z"/><path class="l" d="m376.49,262.93l-2.67,7.64h-2.39l-2.67-7.64h2.24l1.59,5.46h.08l1.58-5.46h2.24Z"/><path class="l" d="m380.77,270.72c-.77,0-1.44-.17-2-.5-.56-.33-.99-.79-1.3-1.38s-.46-1.28-.46-2.06.15-1.48.46-2.07c.3-.59.74-1.05,1.3-1.38.56-.33,1.23-.49,2-.49s1.44.16,2,.49c.56.33.99.79,1.3,1.38.3.59.46,1.28.46,2.07s-.15,1.47-.46,2.06-.74,1.05-1.3,1.38c-.56.33-1.23.5-2,.5Zm0-1.64c.35,0,.64-.1.88-.3.23-.2.41-.47.53-.82.12-.35.18-.74.18-1.19s-.06-.84-.18-1.19c-.12-.35-.3-.62-.53-.83-.24-.2-.53-.3-.88-.3s-.65.1-.89.3-.42.48-.54.83c-.12.35-.18.74-.18,1.19s.06.84.18,1.19c.12.35.3.62.54.82.24.2.54.3.89.3Z"/><path class="l" d="m385.91,262.93h2.12v8.01c0,.59-.12,1.07-.35,1.43s-.56.63-1,.8c-.43.17-.95.25-1.55.25-.07,0-.14,0-.21,0-.07,0-.14,0-.22,0v-1.66c.06,0,.11,0,.15,0,.04,0,.09,0,.13,0,.34,0,.58-.07.72-.22.14-.14.21-.36.21-.65v-7.98Zm1.05-.98c-.31,0-.58-.1-.81-.32-.22-.21-.34-.46-.34-.76s.11-.54.34-.75c.23-.21.49-.32.81-.32s.59.11.81.32c.22.21.34.46.34.75s-.11.55-.34.76c-.22.21-.49.32-.81.32Z"/><path class="l" d="m402.36,265.48c0,1.11-.21,2.05-.63,2.83-.42.78-.99,1.37-1.71,1.78s-1.53.61-2.43.61-1.72-.21-2.44-.62-1.29-1.01-1.71-1.78c-.42-.78-.63-1.72-.63-2.83s.21-2.05.63-2.83c.42-.78.99-1.37,1.71-1.78s1.53-.61,2.44-.61,1.71.21,2.43.61,1.29,1,1.71,1.78c.42.78.63,1.72.63,2.83Zm-2.18,0c0-.72-.11-1.33-.32-1.82-.21-.49-.52-.87-.9-1.12-.39-.25-.84-.38-1.36-.38s-.97.13-1.36.38c-.39.25-.69.63-.9,1.12-.21.49-.32,1.1-.32,1.82s.11,1.33.32,1.82c.21.49.51.87.9,1.12.39.25.84.38,1.36.38s.97-.13,1.36-.38c.39-.26.69-.63.9-1.12.21-.49.32-1.1.32-1.82Z"/><path class="l" d="m403.85,270.57v-1.28l5.08-7.13h-5.09v-1.77h7.79v1.28l-5.09,7.13h5.1v1.77h-7.79Z"/><path class="l" d="m413.29,270.57v-10.18h6.86v1.77h-4.71v2.43h4.35v1.77h-4.35v2.43h4.73v1.77h-6.88Z"/></g></g></g></svg>