<?xml version="1.0" encoding="UTF-8"?><svg xmlns="http://www.w3.org/2000/svg" viewBox="0 0 660 306.81"><defs><style>.b,.c,.d,.e,.f,.g,.h,.i{stroke-miterlimit:10;}.b,.c,.d,.g,.h{stroke-width:1.5px;}.b,.c,.d,.h,.i,.j{fill:none;}.b,.d,.e,.g,.h,.i{stroke:#2a2b33;}.c{stroke:#fff;}.k,.e,.g{fill:#fff;}.l{fill:#333;}.m{fill:#2a2b33;}.d{stroke-dasharray:0 0 0 0 0 0 4.02 3.01;}.n{mix-blend-mode:multiply;}.e,.f,.i,.j{stroke-width:1px;}.f{fill:#ccd2e3;}.f,.j{stroke:#334c8d;}.o{isolation:isolate;}.h{stroke-dasharray:0 0 0 0 0 0 3.9 2.93;}.j{stroke-linejoin:round;}</style></defs><g class="o"><g id="a"><rect class="k" width="660" height="306.81"/><path class="j" d="m131.54,171.39v-22.38c0-7.83,6.35-14.17,14.17-14.17h174.73c7.83,0,14.17-6.35,14.17-14.17v-5.78"/><rect class="e" x="171.29" y="15.52" width="57.06" height="77.33"/><rect class="e" x="165.52" y="8.97" width="57.06" height="77.33"/><line class="i" x1="171.29" y1="16.53" x2="192.57" y2="16.53"/><line class="i" x1="171.29" y1="21.95" x2="192.57" y2="21.95"/><line class="i" x1="171.29" y1="28.15" x2="216.64" y2="28.15"/><path class="i" d="m182.58,73.94c-6.11-3.76-10.18-10.51-10.18-18.21"/><path class="i" d="m212.85,65.4c-.97,1.91-2.22,3.65-3.69,5.17-3.89,4.03-9.34,6.53-15.38,6.53"/><polygon class="m" points="210.43 66.42 212.7 65.66 213.47 67.93 214.11 66.64 213.34 64.37 211.07 65.13 210.43 66.42"/><path class="i" d="m178.47,40.81c3.88-3.99,9.31-6.46,15.31-6.46,11.81,0,21.38,9.57,21.38,21.38"/><polygon class="m" points="181.09 40.58 178.69 40.62 178.66 38.22 177.66 39.25 177.69 41.65 180.09 41.61 181.09 40.58"/><polygon class="i" points="191.94 41.31 186.28 61.26 191.94 61.26 186.64 77.7 205.04 55.73 195.66 55.73 202.89 41.31 191.94 41.31"/><circle class="f" cx="528" cy="207.27" r="39.74"/><circle class="g" cx="536.29" cy="195.18" r="7.76"/><line class="b" x1="536.29" y1="212.13" x2="536.29" y2="207.68"/><line class="b" x1="529.8" y1="210.85" x2="531.51" y2="206.73"/><line class="b" x1="524.3" y1="207.17" x2="527.45" y2="204.02"/><line class="b" x1="520.63" y1="201.67" x2="524.75" y2="199.97"/><line class="b" x1="519.34" y1="195.18" x2="523.79" y2="195.18"/><line class="b" x1="520.63" y1="188.7" x2="524.74" y2="190.4"/><line class="b" x1="524.3" y1="183.19" x2="527.46" y2="186.35"/><line class="b" x1="529.8" y1="179.52" x2="531.51" y2="183.64"/><line class="b" x1="536.29" y1="178.23" x2="536.29" y2="182.68"/><line class="b" x1="542.78" y1="179.52" x2="541.08" y2="183.64"/><line class="b" x1="548.28" y1="183.19" x2="545.13" y2="186.35"/><line class="b" x1="551.96" y1="188.69" x2="547.84" y2="190.4"/><line class="b" x1="553.25" y1="195.18" x2="548.79" y2="195.18"/><line class="b" x1="551.96" y1="201.67" x2="547.84" y2="199.97"/><line class="b" x1="548.28" y1="207.17" x2="545.13" y2="204.02"/><line class="b" x1="542.78" y1="210.85" x2="541.08" y2="206.73"/><path class="b" d="m546.86,232.42c-12.41,5.39-21.65-4.61-32.16,0"/><path class="c" d="m546.86,224.39c-12.41,5.39-21.65-4.61-32.16,0"/><path class="c" d="m546.86,229.75c-12.41,5.39-21.65-4.61-32.16,0"/><path class="b" d="m514.7,227.17c4.85-2.14,9.43-1.14,14.21,0,.4.11.77.19,1.17.31"/><path class="b" d="m546.86,221.2c-12.41,5.39-21.65-4.61-32.16,0"/><path class="g" d="m503.76,213.75c-6.66-.78-7.13-13.39,2.32-19.89,7.7,8.49,4.34,20.66-2.32,19.89Z"/><path class="b" d="m499.42,221.33c7.93-10.69,6.74-22.51,6.74-22.51"/><circle class="f" cx="335" cy="207.27" r="39.74"/><polyline class="b" points="312.32 228.95 312.32 202.64 334.64 179.79 356.96 202.64 356.96 228.95"/><polygon class="k" points="352.2 227.91 317.08 227.91 317.08 205.13 334.64 187.15 352.2 205.13 352.2 227.91"/><polyline class="b" points="352.2 225.91 352.2 227.91 350.2 227.91"/><line class="d" x1="347.19" y1="227.91" x2="320.59" y2="227.91"/><polyline class="b" points="319.08 227.91 317.08 227.91 317.08 225.91"/><polyline class="h" points="317.08 222.98 317.08 205.13 332.22 189.63"/><polyline class="b" points="333.24 188.59 334.64 187.15 336.04 188.59"/><polyline class="h" points="338.08 190.68 352.2 205.13 352.2 224.44"/><path class="b" d="m334.62,206.47c-1.13,6.73,3.62,7.36.49,16.79"/><polygon class="m" points="333.1 206.59 335.11 204.37 336.02 207.22 333.1 206.59"/><path class="b" d="m340.32,208.91c-.5,4.49,2.68,5.18.44,11.92"/><polygon class="m" points="338.81 209.07 340.77 206.8 341.75 209.63 338.81 209.07"/><path class="b" d="m329.12,208.91c-.5,4.49,2.68,5.18.44,11.92"/><polygon class="m" points="327.61 209.07 329.57 206.8 330.55 209.63 327.61 209.07"/><circle class="f" cx="132" cy="207.27" r="39.74"/><circle class="g" cx="132" cy="227.76" r="6"/><circle class="g" cx="132" cy="186.77" r="6"/><circle class="g" cx="111.5" cy="207.27" r="6"/><circle class="b" cx="152.5" cy="207.27" r="6"/><circle class="b" cx="146.5" cy="221.76" r="4.2"/><circle class="b" cx="117.51" cy="192.78" r="4.2"/><circle class="g" cx="117.51" cy="221.76" r="4.2"/><circle class="g" cx="146.5" cy="192.78" r="4.2"/><line class="b" x1="132" y1="193.12" x2="132" y2="196.64"/><polygon class="m" points="129.76 195.98 132 199.87 134.25 195.98 129.76 195.98"/><line class="b" x1="132" y1="221.38" x2="132" y2="217.86"/><polygon class="m" points="134.25 218.52 132 214.63 129.76 218.52 134.25 218.52"/><line class="b" x1="146.14" y1="207.26" x2="142.62" y2="207.26"/><polygon class="m" points="143.28 205.01 139.39 207.26 143.28 209.5 143.28 205.01"/><line class="b" x1="117.87" y1="207.26" x2="121.39" y2="207.26"/><polygon class="m" points="120.73 209.5 124.61 207.26 120.73 205.01 120.73 209.5"/><line class="b" x1="143.3" y1="195.95" x2="140.18" y2="199.08"/><polygon class="m" points="139.06 197.03 137.9 201.36 142.23 200.2 139.06 197.03"/><line class="b" x1="120.7" y1="218.55" x2="123.83" y2="215.42"/><polygon class="m" points="124.95 217.47 126.11 213.14 121.78 214.3 124.95 217.47"/><line class="b" x1="143.3" y1="218.55" x2="140.18" y2="215.42"/><polygon class="m" points="142.23 214.3 137.9 213.14 139.06 217.47 142.23 214.3"/><line class="b" x1="120.7" y1="195.95" x2="123.83" y2="199.08"/><polygon class="m" points="121.78 200.2 126.11 201.36 124.95 197.03 121.78 200.2"/><circle class="g" cx="132.14" cy="207.52" r="4.8"/><polyline class="g" points="133.9 200.48 130.61 207.52 133.58 207.52 130.38 214.55"/><line class="j" x1="334.62" y1="115.89" x2="334.62" y2="167.39"/><path class="j" d="m242.72,52.3h77.73c7.83,0,14.17,6.35,14.17,14.17v54.19c0,7.83,6.35,14.17,14.17,14.17h165.14c7.83,0,14.17,6.35,14.17,14.17v18.88"/><g class="n"><path class="l" d="m243.74,40.14v-11.64h4.59c.88,0,1.63.16,2.25.47s1.1.75,1.43,1.32c.33.57.49,1.24.49,2.01s-.17,1.44-.5,1.99c-.33.55-.82.98-1.45,1.28-.63.3-1.39.44-2.29.44h-3.07v-1.98h2.68c.47,0,.86-.06,1.17-.19.31-.13.54-.32.7-.58s.23-.58.23-.96-.08-.71-.23-.98c-.15-.26-.39-.47-.7-.61-.31-.14-.71-.21-1.18-.21h-1.66v9.62h-2.46Zm6.28-5.3l2.89,5.3h-2.72l-2.83-5.3h2.65Z"/><path class="l" d="m254.24,40.14v-11.64h7.84v2.03h-5.38v2.77h4.98v2.03h-4.98v2.78h5.4v2.03h-7.86Z"/><path class="l" d="m264.04,40.14v-11.64h4.59c.88,0,1.63.17,2.26.5.62.34,1.09.8,1.42,1.39.33.59.49,1.28.49,2.05s-.17,1.46-.5,2.05c-.33.59-.82,1.05-1.45,1.38-.63.33-1.39.49-2.29.49h-2.93v-1.97h2.53c.47,0,.87-.08,1.17-.25.31-.17.54-.39.69-.69.15-.29.23-.63.23-1.01s-.08-.72-.23-1.01c-.15-.29-.39-.52-.7-.68s-.7-.24-1.18-.24h-1.66v9.62h-2.46Z"/><path class="l" d="m278.15,40.31c-.88,0-1.64-.19-2.29-.57-.64-.38-1.14-.9-1.49-1.58-.35-.68-.52-1.46-.52-2.35s.17-1.69.52-2.37c.35-.68.84-1.2,1.49-1.58.64-.38,1.4-.57,2.29-.57s1.64.19,2.29.57c.64.38,1.14.9,1.49,1.58.35.68.52,1.46.52,2.37s-.17,1.68-.52,2.35c-.35.68-.84,1.2-1.49,1.58-.64.38-1.4.57-2.29.57Zm.01-1.88c.4,0,.74-.12,1-.34.27-.23.47-.54.61-.94.14-.4.21-.85.21-1.36s-.07-.96-.21-1.36c-.14-.4-.34-.71-.61-.94-.27-.23-.6-.35-1-.35s-.75.12-1.02.35c-.27.23-.48.54-.62.94-.14.4-.21.85-.21,1.36s.07.96.21,1.36c.14.4.34.71.62.94.27.23.61.34,1.02.34Z"/><path class="l" d="m285.53,40.14l-2.38-8.73h2.45l1.35,5.86h.08l1.41-5.86h2.4l1.43,5.83h.07l1.33-5.83h2.44l-2.37,8.73h-2.56l-1.5-5.49h-.11l-1.5,5.49h-2.56Z"/><path class="l" d="m301.17,40.31c-.9,0-1.67-.18-2.32-.55s-1.14-.88-1.49-1.56c-.35-.67-.52-1.47-.52-2.39s.17-1.69.52-2.36c.35-.68.84-1.21,1.47-1.58.63-.38,1.38-.57,2.24-.57.58,0,1.11.09,1.61.28s.93.46,1.31.83c.37.37.66.83.87,1.38.21.56.31,1.2.31,1.95v.67h-7.37v-1.5h5.09c0-.35-.08-.66-.23-.93-.15-.27-.36-.48-.63-.63-.27-.15-.58-.23-.93-.23s-.69.08-.97.25-.5.39-.66.68-.24.6-.24.94v1.43c0,.43.08.8.24,1.12s.39.56.68.73c.3.17.65.25,1.05.25.27,0,.51-.04.74-.11s.42-.19.57-.34c.16-.15.28-.34.36-.56l2.24.15c-.11.54-.35,1.01-.7,1.41-.35.4-.8.71-1.35.93-.55.22-1.19.33-1.91.33Z"/><path class="l" d="m306.76,40.14v-8.73h2.35v1.52h.09c.16-.54.43-.95.8-1.23s.81-.42,1.3-.42c.12,0,.25,0,.39.02.14.01.26.04.37.06v2.15c-.11-.03-.27-.06-.47-.09-.2-.03-.38-.04-.55-.04-.36,0-.67.08-.95.23s-.5.37-.66.64-.24.59-.24.94v4.94h-2.42Z"/><path class="l" d="m313.34,40.14v-11.64h7.84v2.03h-5.38v2.77h4.98v2.03h-4.98v2.78h5.4v2.03h-7.86Z"/><path class="l" d="m330.33,28.51h2.46v7.56c0,.85-.2,1.59-.61,2.23-.4.64-.97,1.13-1.69,1.49-.72.35-1.57.53-2.53.53s-1.81-.18-2.53-.53c-.72-.35-1.29-.85-1.69-1.49-.4-.64-.6-1.38-.6-2.23v-7.56h2.46v7.35c0,.44.1.84.29,1.18.19.34.47.62.83.81.36.2.77.3,1.24.3s.89-.1,1.25-.3c.35-.2.63-.47.82-.81.2-.34.29-.74.29-1.18v-7.35Z"/></g><g class="n"><path class="l" d="m59.26,269.28h-4.12v-11.64h4.16c1.17,0,2.18.23,3.02.7s1.5,1.13,1.95,2c.46.87.68,1.91.68,3.11s-.23,2.25-.68,3.12c-.46.87-1.11,1.54-1.96,2s-1.87.7-3.05.7Zm-1.67-2.11h1.56c.73,0,1.34-.13,1.84-.39s.87-.66,1.12-1.21c.25-.55.38-1.25.38-2.12s-.13-1.56-.38-2.11-.63-.95-1.12-1.2c-.5-.26-1.11-.39-1.83-.39h-1.57v7.42Z"/><path class="l" d="m67.94,259.43c-.36,0-.67-.12-.92-.36s-.38-.53-.38-.87.13-.62.38-.86.56-.36.92-.36.67.12.92.36c.25.24.38.53.38.86s-.13.63-.38.87c-.26.24-.56.36-.92.36Zm-1.22,9.85v-8.73h2.42v8.73h-2.42Z"/><path class="l" d="m79.21,260.55l-3.05,8.73h-2.73l-3.05-8.73h2.56l1.81,6.24h.09l1.81-6.24h2.56Z"/><path class="l" d="m84.14,269.45c-.9,0-1.67-.18-2.32-.55s-1.14-.88-1.49-1.56c-.35-.67-.52-1.47-.52-2.39s.17-1.69.52-2.36c.35-.68.84-1.21,1.47-1.58.63-.38,1.38-.57,2.24-.57.58,0,1.11.09,1.61.28s.93.46,1.31.83c.37.37.66.83.87,1.38.21.56.31,1.2.31,1.95v.67h-7.37v-1.5h5.09c0-.35-.08-.66-.23-.93-.15-.27-.36-.48-.63-.63-.27-.15-.58-.23-.93-.23s-.69.08-.97.25-.5.39-.66.68-.24.6-.24.94v1.43c0,.43.08.8.24,1.12s.39.56.68.73c.3.17.65.25,1.05.25.27,0,.51-.04.74-.11s.42-.19.57-.34c.16-.15.28-.34.36-.56l2.24.15c-.11.54-.35,1.01-.7,1.41-.35.4-.8.71-1.35.93-.55.22-1.19.33-1.91.33Z"/><path class="l" d="m89.72,269.28v-8.73h2.35v1.52h.09c.16-.54.43-.95.8-1.23s.81-.42,1.3-.42c.12,0,.25,0,.39.02.14.01.26.04.37.06v2.15c-.11-.03-.27-.06-.47-.09-.2-.03-.38-.04-.55-.04-.36,0-.67.08-.95.23s-.5.37-.66.64-.24.59-.24.94v4.94h-2.42Z"/><path class="l" d="m96.22,269.28v-1.44l4.27-5.29v-.06h-4.12v-1.93h7.04v1.57l-4.01,5.16v.06h4.16v1.93h-7.33Z"/><path class="l" d="m106.62,259.43c-.36,0-.67-.12-.92-.36s-.38-.53-.38-.87.13-.62.38-.86.56-.36.92-.36.67.12.92.36c.25.24.38.53.38.86s-.13.63-.38.87c-.26.24-.56.36-.92.36Zm-1.22,9.85v-8.73h2.42v8.73h-2.42Z"/><path class="l" d="m114.46,260.55v1.82h-5.39v-1.82h5.39Zm-4.15,8.73v-9.36c0-.63.12-1.16.37-1.57s.59-.73,1.02-.94.92-.31,1.47-.31c.37,0,.71.03,1.02.08.31.06.54.11.69.15l-.43,1.82c-.09-.03-.21-.06-.35-.08-.14-.03-.28-.04-.42-.04-.36,0-.6.08-.74.25-.14.17-.21.39-.21.69v9.31h-2.42Z"/><path class="l" d="m117.15,259.43c-.36,0-.67-.12-.92-.36s-.38-.53-.38-.87.13-.62.38-.86.56-.36.92-.36.67.12.92.36c.25.24.38.53.38.86s-.13.63-.38.87c-.26.24-.56.36-.92.36Zm-1.22,9.85v-8.73h2.42v8.73h-2.42Z"/><path class="l" d="m120.28,269.28v-11.64h2.42v11.64h-2.42Zm2.19-2.51v-2.9h.36l2.8-3.31h2.78l-3.76,4.39h-.57l-1.6,1.83Zm3.26,2.51l-2.57-3.8,1.61-1.71,3.79,5.51h-2.83Z"/><path class="l" d="m132.08,269.44c-.56,0-1.05-.1-1.49-.29s-.78-.48-1.03-.87-.38-.86-.38-1.44c0-.48.09-.89.27-1.22.18-.33.42-.59.73-.79.31-.2.66-.35,1.05-.46.39-.1.8-.17,1.24-.22.51-.05.92-.1,1.23-.15.31-.05.54-.12.68-.21.14-.09.21-.24.21-.42v-.03c0-.36-.11-.64-.34-.83-.22-.2-.54-.3-.96-.3-.44,0-.78.1-1.04.29-.26.19-.43.43-.51.72l-2.24-.18c.11-.53.34-.99.67-1.38.33-.39.76-.69,1.29-.9.53-.21,1.14-.32,1.84-.32.48,0,.95.06,1.39.17.45.11.84.29,1.19.53.35.24.62.54.82.92.2.37.3.82.3,1.34v5.89h-2.29v-1.21h-.07c-.14.27-.33.51-.56.72-.24.21-.52.37-.85.48-.33.12-.71.17-1.14.17Zm.69-1.67c.36,0,.67-.07.94-.21s.49-.33.64-.58c.16-.24.23-.52.23-.82v-.93c-.08.05-.18.09-.31.13s-.28.08-.44.11-.33.06-.49.08c-.16.02-.31.05-.44.07-.28.04-.53.11-.74.2-.21.09-.38.21-.49.37-.12.15-.18.34-.18.57,0,.33.12.58.36.75.24.17.55.26.92.26Z"/><path class="l" d="m142.82,269.45c-.89,0-1.66-.19-2.3-.57-.64-.38-1.13-.91-1.48-1.59-.34-.68-.51-1.46-.51-2.34s.17-1.68.52-2.36.84-1.21,1.48-1.58c.64-.38,1.4-.57,2.28-.57.76,0,1.43.14,2,.42.57.28,1.02.66,1.36,1.16.33.5.52,1.09.55,1.76h-2.28c-.06-.44-.23-.79-.51-1.05-.28-.27-.63-.4-1.08-.4-.38,0-.7.1-.98.3-.28.2-.5.5-.65.88-.16.39-.23.85-.23,1.4s.08,1.03.23,1.42c.15.39.37.69.65.89.28.2.61.31.98.31.28,0,.53-.06.75-.17.22-.11.41-.28.55-.5.15-.22.24-.48.29-.79h2.28c-.04.67-.22,1.25-.54,1.76-.32.51-.77.9-1.34,1.18-.57.28-1.24.43-2.02.43Z"/><path class="l" d="m152.25,269.45c-.9,0-1.67-.18-2.32-.55s-1.14-.88-1.49-1.56c-.35-.67-.52-1.47-.52-2.39s.17-1.69.52-2.36c.35-.68.84-1.21,1.47-1.58.63-.38,1.38-.57,2.24-.57.58,0,1.11.09,1.61.28s.93.46,1.31.83c.37.37.66.83.87,1.38.21.56.31,1.2.31,1.95v.67h-7.37v-1.5h5.09c0-.35-.08-.66-.23-.93-.15-.27-.36-.48-.63-.63-.27-.15-.58-.23-.93-.23s-.69.08-.97.25-.5.39-.66.68-.24.6-.24.94v1.43c0,.43.08.8.24,1.12s.39.56.68.73c.3.17.65.25,1.05.25.27,0,.51-.04.74-.11s.42-.19.57-.34c.16-.15.28-.34.36-.56l2.24.15c-.11.54-.35,1.01-.7,1.41-.35.4-.8.71-1.35.93-.55.22-1.19.33-1.91.33Z"/><path class="l" d="m161.5,269.28v-1.44l4.27-5.29v-.06h-4.12v-1.93h7.04v1.57l-4.01,5.16v.06h4.16v1.93h-7.33Z"/><path class="l" d="m173.66,269.42c-.66,0-1.26-.17-1.8-.51s-.96-.85-1.27-1.52c-.31-.67-.47-1.49-.47-2.46s.16-1.83.48-2.5.75-1.16,1.29-1.49,1.12-.5,1.76-.5c.49,0,.9.08,1.22.25.33.17.59.37.8.61.2.25.36.48.46.72h.07v-4.38h2.41v11.64h-2.39v-1.4h-.1c-.11.24-.27.48-.48.72-.21.24-.47.43-.8.59-.33.16-.73.23-1.2.23Zm.77-1.93c.39,0,.72-.11.99-.32.27-.21.48-.51.62-.9.15-.39.22-.84.22-1.36s-.07-.97-.22-1.35c-.14-.38-.35-.68-.62-.89-.27-.21-.6-.31-.99-.31s-.73.11-1.01.32-.48.51-.62.9c-.14.38-.21.83-.21,1.33s.07.96.21,1.34c.14.39.35.69.62.91.27.22.6.33,1,.33Z"/><path class="l" d="m180.61,269.28v-8.73h2.35v1.52h.09c.16-.54.43-.95.8-1.23s.81-.42,1.3-.42c.12,0,.25,0,.39.02.14.01.26.04.37.06v2.15c-.11-.03-.27-.06-.47-.09-.2-.03-.38-.04-.55-.04-.36,0-.67.08-.95.23s-.5.37-.66.64-.24.59-.24.94v4.94h-2.42Z"/><path class="l" d="m190.68,269.45c-.88,0-1.64-.19-2.29-.57-.64-.38-1.14-.9-1.49-1.58-.35-.68-.52-1.46-.52-2.35s.17-1.69.52-2.37c.35-.68.84-1.2,1.49-1.58.64-.38,1.4-.57,2.29-.57s1.64.19,2.29.57c.64.38,1.14.9,1.49,1.58.35.68.52,1.46.52,2.37s-.17,1.68-.52,2.35c-.35.68-.84,1.2-1.49,1.58-.64.38-1.4.57-2.29.57Zm.01-1.88c.4,0,.74-.12,1-.34.27-.23.47-.54.61-.94.14-.4.21-.85.21-1.36s-.07-.96-.21-1.36c-.14-.4-.34-.71-.61-.94-.27-.23-.6-.35-1-.35s-.75.12-1.02.35c-.27.23-.48.54-.62.94-.14.4-.21.85-.21,1.36s.07.96.21,1.36c.14.4.34.71.62.94.27.23.61.34,1.02.34Z"/><path class="l" d="m196.55,260.55h2.42v9.16c0,.67-.13,1.22-.4,1.64-.26.42-.64.72-1.14.92-.49.19-1.08.29-1.77.29-.08,0-.16,0-.24,0-.08,0-.16,0-.25,0v-1.89c.06,0,.12,0,.17,0,.05,0,.1,0,.15,0,.39,0,.66-.08.82-.25.16-.17.24-.41.24-.74v-9.12Zm1.21-1.12c-.36,0-.66-.12-.92-.36s-.39-.53-.39-.87.13-.62.39-.86.56-.36.92-.36.67.12.93.36.38.53.38.86-.13.63-.38.87-.57.36-.93.36Z"/><path class="l" d="m206.5,265.56v-5.01h2.42v8.73h-2.32v-1.58h-.09c-.2.51-.52.92-.98,1.23-.46.31-1.01.47-1.67.47-.58,0-1.1-.13-1.54-.4-.44-.26-.79-.64-1.04-1.13-.25-.49-.37-1.07-.38-1.76v-5.56h2.42v5.12c0,.52.14.92.41,1.22.27.3.64.45,1.1.45.29,0,.56-.07.82-.2.25-.13.46-.33.62-.6.16-.26.23-.59.23-.98Zm-1.57-5.95c-.36,0-.69-.08-.98-.25-.29-.17-.53-.39-.71-.67-.18-.28-.26-.6-.26-.94s.09-.66.26-.95c.18-.29.41-.51.71-.69.29-.17.62-.26.98-.26s.69.09.98.26c.29.17.52.4.7.69.17.29.26.6.26.95s-.09.66-.26.94c-.17.28-.41.51-.7.67-.29.17-.62.25-.98.25Zm0-1.01c.25,0,.46-.09.63-.26.17-.17.26-.37.26-.59s-.08-.43-.26-.61c-.17-.18-.38-.26-.63-.26-.25,0-.46.09-.63.27-.17.17-.25.38-.25.6s.08.43.25.6c.17.17.38.26.63.26Z"/><path class="l" d="m107.32,288.65c-.9,0-1.67-.18-2.32-.55s-1.14-.88-1.49-1.56c-.35-.67-.52-1.47-.52-2.39s.17-1.69.52-2.36c.35-.68.84-1.21,1.47-1.58.63-.38,1.38-.57,2.24-.57.58,0,1.11.09,1.61.28s.93.46,1.31.83c.37.37.66.83.87,1.38.21.56.31,1.2.31,1.95v.67h-7.37v-1.5h5.09c0-.35-.08-.66-.23-.93-.15-.27-.36-.48-.63-.63-.27-.15-.58-.23-.93-.23s-.69.08-.97.25-.5.39-.66.68-.24.6-.24.94v1.43c0,.43.08.8.24,1.12s.39.56.68.73c.3.17.65.25,1.05.25.27,0,.51-.04.74-.11s.42-.19.57-.34c.16-.15.28-.34.36-.56l2.24.15c-.11.54-.35,1.01-.7,1.41-.35.4-.8.71-1.35.93-.55.22-1.19.33-1.91.33Z"/><path class="l" d="m115.33,283.43v5.05h-2.42v-8.73h2.31v1.54h.1c.19-.51.52-.91.97-1.21.45-.3,1.01-.45,1.65-.45.61,0,1.13.13,1.58.4.45.27.8.64,1.05,1.13s.38,1.08.38,1.75v5.56h-2.42v-5.12c0-.53-.13-.95-.41-1.25s-.66-.45-1.14-.45c-.33,0-.61.07-.86.21-.25.14-.44.34-.58.61-.14.27-.21.59-.21.96Z"/><path class="l" d="m126.84,288.65c-.9,0-1.67-.18-2.32-.55s-1.14-.88-1.49-1.56c-.35-.67-.52-1.47-.52-2.39s.17-1.69.52-2.36c.35-.68.84-1.21,1.47-1.58.63-.38,1.38-.57,2.24-.57.58,0,1.11.09,1.61.28s.93.46,1.31.83c.37.37.66.83.87,1.38.21.56.31,1.2.31,1.95v.67h-7.37v-1.5h5.09c0-.35-.08-.66-.23-.93-.15-.27-.36-.48-.63-.63-.27-.15-.58-.23-.93-.23s-.69.08-.97.25-.5.39-.66.68-.24.6-.24.94v1.43c0,.43.08.8.24,1.12s.39.56.68.73c.3.17.65.25,1.05.25.27,0,.51-.04.74-.11s.42-.19.57-.34c.16-.15.28-.34.36-.56l2.24.15c-.11.54-.35,1.01-.7,1.41-.35.4-.8.71-1.35.93-.55.22-1.19.33-1.91.33Z"/><path class="l" d="m132.42,288.48v-8.73h2.35v1.52h.09c.16-.54.43-.95.8-1.23s.81-.42,1.3-.42c.12,0,.25,0,.39.02.14.01.26.04.37.06v2.15c-.11-.03-.27-.06-.47-.09-.2-.03-.38-.04-.55-.04-.36,0-.67.08-.95.23s-.5.37-.66.64-.24.59-.24.94v4.94h-2.42Z"/><path class="l" d="m142.48,291.93c-.78,0-1.46-.11-2.01-.32s-1-.5-1.33-.87c-.33-.37-.54-.78-.64-1.24l2.24-.3c.07.17.18.34.32.49s.34.27.59.37c.24.09.54.14.89.14.53,0,.96-.13,1.3-.38.34-.25.51-.68.51-1.28v-1.6h-.1c-.11.24-.27.47-.48.69-.21.22-.49.39-.82.53-.33.14-.73.2-1.19.2-.66,0-1.25-.15-1.79-.46-.54-.31-.96-.77-1.28-1.4-.32-.63-.47-1.43-.47-2.4s.16-1.81.48-2.48c.32-.66.75-1.16,1.29-1.49.54-.33,1.12-.49,1.76-.49.49,0,.9.08,1.23.25.33.17.6.37.8.61.2.25.36.48.47.72h.09v-1.47h2.4v8.81c0,.74-.18,1.36-.55,1.86-.36.5-.87.88-1.51,1.13-.64.25-1.38.38-2.21.38Zm.05-5.4c.39,0,.72-.1.99-.29.27-.2.48-.48.62-.84.15-.37.22-.8.22-1.31s-.07-.96-.22-1.33c-.14-.38-.35-.67-.62-.88-.27-.21-.6-.31-.99-.31s-.73.11-1.01.32-.48.51-.62.89c-.14.38-.21.82-.21,1.31s.07.94.21,1.3c.14.37.35.65.62.85.27.2.6.3,1,.3Z"/><path class="l" d="m149.9,278.63c-.36,0-.67-.12-.92-.36s-.38-.53-.38-.87.13-.62.38-.86.56-.36.92-.36.67.12.92.36c.25.24.38.53.38.86s-.13.63-.38.87c-.26.24-.56.36-.92.36Zm-1.22,9.85v-8.73h2.42v8.73h-2.42Z"/><path class="l" d="m157.01,288.65c-.9,0-1.67-.18-2.32-.55s-1.14-.88-1.49-1.56c-.35-.67-.52-1.47-.52-2.39s.17-1.69.52-2.36c.35-.68.84-1.21,1.47-1.58.63-.38,1.38-.57,2.24-.57.58,0,1.11.09,1.61.28s.93.46,1.31.83c.37.37.66.83.87,1.38.21.56.31,1.2.31,1.95v.67h-7.37v-1.5h5.09c0-.35-.08-.66-.23-.93-.15-.27-.36-.48-.63-.63-.27-.15-.58-.23-.93-.23s-.69.08-.97.25-.5.39-.66.68-.24.6-.24.94v1.43c0,.43.08.8.24,1.12s.39.56.68.73c.3.17.65.25,1.05.25.27,0,.51-.04.74-.11s.42-.19.57-.34c.16-.15.28-.34.36-.56l2.24.15c-.11.54-.35,1.01-.7,1.41-.35.4-.8.71-1.35.93-.55.22-1.19.33-1.91.33Z"/></g><g class="n"><path class="l" d="m283.33,257.64h2.46v7.56c0,.85-.2,1.59-.61,2.23-.4.64-.97,1.13-1.69,1.49-.72.35-1.57.53-2.53.53s-1.81-.18-2.53-.53c-.72-.35-1.29-.85-1.69-1.49-.4-.64-.6-1.38-.6-2.23v-7.56h2.46v7.35c0,.44.1.84.29,1.18.2.34.47.62.83.81.36.2.77.3,1.24.3s.89-.1,1.25-.3c.35-.2.63-.47.82-.81.2-.34.29-.74.29-1.18v-7.35Zm-3.23-1.12l1.21-2.58h2.24l-1.73,2.58h-1.71Z"/><path class="l" d="m295.03,263.04l-2.21.14c-.04-.19-.12-.36-.25-.51s-.29-.28-.49-.37-.45-.14-.72-.14c-.38,0-.69.08-.95.24-.26.16-.39.37-.39.63,0,.21.08.38.25.53.17.14.45.26.86.35l1.58.32c.85.17,1.48.46,1.9.84.42.39.62.89.62,1.52,0,.57-.17,1.07-.5,1.5-.33.43-.79.77-1.38,1.01-.58.24-1.25.36-2.01.36-1.15,0-2.07-.24-2.76-.72-.68-.48-1.08-1.14-1.2-1.97l2.38-.12c.07.35.25.62.52.8s.63.28,1.06.28.77-.08,1.03-.25c.26-.16.39-.38.39-.64,0-.22-.1-.4-.28-.54-.18-.14-.46-.25-.84-.33l-1.51-.3c-.85-.17-1.48-.47-1.9-.89-.41-.42-.62-.96-.62-1.61,0-.56.15-1.04.46-1.45s.73-.72,1.29-.94,1.21-.33,1.95-.33c1.1,0,1.97.23,2.6.7.63.47,1.01,1.1,1.11,1.9Z"/><path class="l" d="m296.75,272.55v-12h2.39v1.47h.11c.11-.23.26-.47.46-.72.2-.24.47-.45.8-.61.33-.17.73-.25,1.22-.25.63,0,1.22.17,1.76.5.54.33.97.83,1.29,1.49s.48,1.5.48,2.5-.16,1.79-.47,2.46c-.31.67-.74,1.17-1.27,1.52-.54.34-1.13.51-1.8.51-.47,0-.87-.08-1.2-.23-.33-.16-.6-.35-.8-.59-.21-.24-.37-.48-.48-.72h-.07v4.67h-2.42Zm2.37-7.64c0,.52.07.97.22,1.36.14.39.35.69.62.9.27.21.6.32.99.32s.73-.11,1-.33.48-.52.62-.91c.14-.39.21-.84.21-1.34s-.07-.95-.21-1.33-.35-.68-.62-.9-.61-.32-1.01-.32-.73.1-1,.31c-.27.21-.48.5-.62.89s-.22.83-.22,1.35Z"/><path class="l" d="m310.82,269.45c-.88,0-1.64-.19-2.29-.57-.64-.38-1.14-.9-1.48-1.58-.35-.68-.52-1.46-.52-2.35s.17-1.69.52-2.37c.35-.68.84-1.2,1.48-1.58.64-.38,1.4-.57,2.29-.57s1.64.19,2.29.57,1.14.9,1.49,1.58c.35.68.52,1.46.52,2.37s-.17,1.68-.52,2.35c-.35.68-.84,1.2-1.49,1.58s-1.4.57-2.29.57Zm.01-1.88c.4,0,.74-.12,1.01-.34.27-.23.47-.54.61-.94.14-.4.21-.85.21-1.36s-.07-.96-.21-1.36c-.14-.4-.34-.71-.61-.94-.27-.23-.6-.35-1.01-.35s-.75.12-1.02.35c-.28.23-.48.54-.62.94-.14.4-.21.85-.21,1.36s.07.96.21,1.36c.14.4.34.71.62.94.27.23.61.34,1.02.34Z"/><path class="l" d="m316.69,269.28v-8.73h2.35v1.52h.09c.16-.54.43-.95.8-1.23s.81-.42,1.3-.42c.12,0,.25,0,.39.02.14.01.26.04.37.06v2.15c-.12-.03-.27-.06-.47-.09s-.38-.04-.55-.04c-.36,0-.67.08-.95.23-.28.15-.5.37-.66.64-.16.27-.24.59-.24.94v4.94h-2.42Z"/><path class="l" d="m325,272.55c-.31,0-.59-.02-.86-.07-.27-.05-.49-.11-.66-.18l.55-1.81c.28.09.54.13.77.14.23,0,.43-.05.6-.16.17-.11.31-.31.41-.58l.14-.37-3.13-8.98h2.54l1.81,6.41h.09l1.82-6.41h2.56l-3.39,9.67c-.16.47-.38.88-.66,1.23-.28.35-.63.62-1.05.81-.42.19-.94.29-1.53.29Z"/><path class="l" d="m340.57,269.45c-.9,0-1.67-.18-2.32-.55-.64-.37-1.14-.88-1.49-1.56-.35-.67-.52-1.47-.52-2.39s.17-1.69.52-2.36c.35-.68.84-1.21,1.47-1.58.63-.38,1.38-.57,2.24-.57.58,0,1.11.09,1.61.28s.93.46,1.31.83c.37.37.66.83.87,1.38.21.56.31,1.2.31,1.95v.67h-7.37v-1.5h5.09c0-.35-.08-.66-.23-.93-.15-.27-.36-.48-.63-.63s-.58-.23-.93-.23c-.37,0-.69.08-.97.25-.28.17-.5.39-.66.68-.16.28-.24.6-.24.94v1.43c0,.43.08.8.24,1.12.16.31.39.56.69.73.29.17.64.25,1.05.25.27,0,.52-.04.74-.11.22-.08.42-.19.57-.34s.28-.34.36-.56l2.24.15c-.11.54-.35,1.01-.7,1.41s-.8.71-1.35.93c-.55.22-1.19.33-1.91.33Z"/><path class="l" d="m348.57,264.23v5.05h-2.42v-8.73h2.31v1.54h.1c.19-.51.52-.91.97-1.21.46-.3,1.01-.45,1.65-.45.61,0,1.13.13,1.58.4.45.27.8.64,1.05,1.13s.38,1.08.38,1.75v5.56h-2.42v-5.12c0-.53-.13-.95-.41-1.25-.28-.3-.66-.45-1.14-.45-.33,0-.61.07-.86.21-.25.14-.44.34-.58.61-.14.27-.21.59-.21.96Z"/><path class="l" d="m360.08,269.45c-.9,0-1.67-.18-2.31-.55-.65-.37-1.14-.88-1.49-1.56-.35-.67-.52-1.47-.52-2.39s.18-1.69.52-2.36.84-1.21,1.47-1.58,1.38-.57,2.24-.57c.57,0,1.11.09,1.61.28s.93.46,1.31.83c.37.37.66.83.87,1.38.21.56.31,1.2.31,1.95v.67h-7.37v-1.5h5.09c0-.35-.08-.66-.23-.93-.15-.27-.36-.48-.63-.63-.27-.15-.58-.23-.93-.23s-.69.08-.97.25c-.28.17-.5.39-.66.68-.16.28-.24.6-.24.94v1.43c0,.43.08.8.24,1.12.16.31.39.56.68.73.3.17.65.25,1.05.25.27,0,.51-.04.74-.11.22-.08.41-.19.57-.34.16-.15.28-.34.36-.56l2.24.15c-.11.54-.35,1.01-.7,1.41-.35.4-.8.71-1.35.93s-1.19.33-1.91.33Z"/><path class="l" d="m365.66,269.28v-8.73h2.35v1.52h.09c.16-.54.43-.95.8-1.23s.81-.42,1.29-.42c.12,0,.25,0,.39.02.14.01.26.04.37.06v2.15c-.11-.03-.27-.06-.47-.09-.2-.03-.38-.04-.55-.04-.36,0-.67.08-.95.23-.28.15-.5.37-.66.64-.16.27-.24.59-.24.94v4.94h-2.42Z"/><path class="l" d="m375.72,272.73c-.78,0-1.46-.11-2.01-.32s-1-.5-1.33-.87c-.33-.37-.54-.78-.64-1.24l2.24-.3c.07.17.18.34.32.49.15.15.34.27.59.37.24.09.54.14.89.14.53,0,.96-.13,1.3-.38.34-.25.51-.68.51-1.28v-1.6h-.1c-.11.24-.27.47-.48.69-.21.22-.49.39-.82.53-.33.14-.73.2-1.19.2-.66,0-1.25-.15-1.79-.46-.54-.31-.96-.77-1.28-1.4-.32-.63-.47-1.43-.47-2.4s.16-1.81.48-2.48c.32-.66.75-1.16,1.29-1.49.54-.33,1.12-.49,1.76-.49.49,0,.9.08,1.23.25.33.17.6.37.8.61.2.25.36.48.47.72h.09v-1.47h2.4v8.81c0,.74-.18,1.36-.54,1.86s-.87.88-1.51,1.13c-.64.25-1.38.38-2.21.38Zm.05-5.4c.39,0,.72-.1.99-.29.27-.2.48-.48.62-.84.15-.37.22-.8.22-1.31s-.07-.96-.21-1.33c-.14-.38-.35-.67-.62-.88-.27-.21-.61-.31-.99-.31s-.73.11-1.01.32c-.27.21-.48.51-.62.89-.14.38-.21.82-.21,1.31s.07.94.21,1.3.35.65.62.85c.27.2.61.3,1,.3Z"/><path class="l" d="m383.14,259.43c-.36,0-.67-.12-.92-.36s-.38-.53-.38-.87.13-.62.38-.86.56-.36.92-.36.67.12.92.36c.25.24.38.53.38.86s-.13.63-.38.87c-.26.24-.56.36-.92.36Zm-1.22,9.85v-8.73h2.42v8.73h-2.42Z"/><path class="l" d="m390.25,269.45c-.9,0-1.67-.18-2.32-.55-.64-.37-1.14-.88-1.49-1.56-.35-.67-.52-1.47-.52-2.39s.17-1.69.52-2.36c.35-.68.84-1.21,1.47-1.58.63-.38,1.38-.57,2.24-.57.58,0,1.11.09,1.61.28s.93.46,1.31.83c.37.37.66.83.87,1.38.21.56.31,1.2.31,1.95v.67h-7.37v-1.5h5.09c0-.35-.08-.66-.23-.93-.15-.27-.36-.48-.63-.63s-.58-.23-.93-.23c-.37,0-.69.08-.97.25-.28.17-.5.39-.66.68-.16.28-.24.6-.24.94v1.43c0,.43.08.8.24,1.12.16.31.39.56.69.73.29.17.64.25,1.05.25.27,0,.52-.04.74-.11.22-.08.42-.19.57-.34s.28-.34.36-.56l2.24.15c-.11.54-.35,1.01-.7,1.41s-.8.71-1.35.93c-.55.22-1.19.33-1.91.33Z"/><path class="l" d="m249.07,288.64c-.56,0-1.05-.1-1.49-.29s-.78-.48-1.03-.87-.38-.86-.38-1.44c0-.48.09-.89.27-1.22.18-.33.42-.59.73-.79.31-.2.66-.35,1.05-.46.39-.1.8-.17,1.24-.22.51-.05.92-.1,1.23-.15.31-.05.54-.12.68-.21.14-.09.21-.24.21-.42v-.03c0-.36-.11-.64-.34-.83-.22-.2-.54-.3-.96-.3-.44,0-.78.1-1.04.29-.26.19-.43.43-.51.72l-2.24-.18c.11-.53.34-.99.67-1.38.33-.39.76-.69,1.29-.9.53-.21,1.14-.32,1.84-.32.48,0,.95.06,1.39.17.45.11.84.29,1.19.53.35.24.62.54.82.92.2.37.3.82.3,1.34v5.89h-2.29v-1.21h-.07c-.14.27-.33.51-.56.72-.24.21-.52.37-.85.48-.33.12-.71.17-1.14.17Zm.69-1.67c.36,0,.67-.07.94-.21s.49-.33.64-.58c.16-.24.23-.52.23-.82v-.93c-.08.05-.18.09-.31.13s-.28.08-.44.11-.33.06-.49.08c-.16.02-.31.05-.44.07-.28.04-.53.11-.74.2-.21.09-.38.21-.49.37-.12.15-.18.34-.18.57,0,.33.12.58.36.75.24.17.55.26.92.26Z"/><path class="l" d="m263.55,288.65c-.9,0-1.67-.18-2.32-.55-.64-.37-1.14-.88-1.49-1.56-.35-.67-.52-1.47-.52-2.39s.17-1.69.52-2.36c.35-.68.84-1.21,1.47-1.58.63-.38,1.38-.57,2.24-.57.58,0,1.11.09,1.61.28s.93.46,1.31.83c.37.37.66.83.87,1.38.21.56.31,1.2.31,1.95v.67h-7.37v-1.5h5.09c0-.35-.08-.66-.23-.93-.15-.27-.36-.48-.63-.63s-.58-.23-.93-.23c-.37,0-.69.08-.97.25-.28.17-.5.39-.66.68-.16.28-.24.6-.24.94v1.43c0,.43.08.8.24,1.12.16.31.39.56.69.73.29.17.64.25,1.05.25.27,0,.52-.04.74-.11.22-.08.42-.19.57-.34s.28-.34.36-.56l2.24.15c-.11.54-.35,1.01-.7,1.41s-.8.71-1.35.93c-.55.22-1.19.33-1.91.33Z"/><path class="l" d="m271.56,283.43v5.05h-2.42v-8.73h2.31v1.54h.1c.19-.51.52-.91.97-1.21.46-.3,1.01-.45,1.65-.45.61,0,1.13.13,1.58.4.45.27.8.64,1.05,1.13s.38,1.08.38,1.75v5.56h-2.42v-5.12c0-.53-.13-.95-.41-1.25-.28-.3-.66-.45-1.14-.45-.33,0-.61.07-.86.21-.25.14-.44.34-.58.61-.14.27-.21.59-.21.96Z"/><path class="l" d="m283.06,288.65c-.9,0-1.67-.18-2.32-.55-.64-.37-1.14-.88-1.49-1.56-.35-.67-.52-1.47-.52-2.39s.17-1.69.52-2.36c.35-.68.84-1.21,1.47-1.58.63-.38,1.38-.57,2.24-.57.58,0,1.11.09,1.61.28s.93.46,1.31.83c.37.37.66.83.87,1.38.21.56.31,1.2.31,1.95v.67h-7.37v-1.5h5.09c0-.35-.08-.66-.23-.93-.15-.27-.36-.48-.63-.63s-.58-.23-.93-.23c-.37,0-.69.08-.97.25-.28.17-.5.39-.66.68-.16.28-.24.6-.24.94v1.43c0,.43.08.8.24,1.12.16.31.39.56.69.73.29.17.64.25,1.05.25.27,0,.52-.04.74-.11.22-.08.42-.19.57-.34s.28-.34.36-.56l2.24.15c-.11.54-.35,1.01-.7,1.41s-.8.71-1.35.93c-.55.22-1.19.33-1.91.33Z"/><path class="l" d="m288.65,288.48v-8.73h2.35v1.52h.09c.16-.54.43-.95.8-1.23s.81-.42,1.3-.42c.12,0,.25,0,.39.02.14.01.26.04.37.06v2.15c-.12-.03-.27-.06-.47-.09s-.38-.04-.55-.04c-.36,0-.67.08-.95.23-.28.15-.5.37-.66.64-.16.27-.24.59-.24.94v4.94h-2.42Z"/><path class="l" d="m298.71,291.93c-.79,0-1.46-.11-2.01-.32s-1-.5-1.33-.87c-.33-.37-.54-.78-.64-1.24l2.24-.3c.07.17.18.34.32.49.15.15.34.27.59.37.24.09.54.14.89.14.53,0,.96-.13,1.3-.38.34-.25.51-.68.51-1.28v-1.6h-.1c-.11.24-.27.47-.48.69-.21.22-.48.39-.82.53-.33.14-.73.2-1.19.2-.65,0-1.25-.15-1.79-.46-.54-.31-.96-.77-1.28-1.4-.32-.63-.47-1.43-.47-2.4s.16-1.81.48-2.48c.32-.66.75-1.16,1.29-1.49.54-.33,1.12-.49,1.76-.49.49,0,.9.08,1.23.25s.6.37.8.61c.2.25.36.48.47.72h.09v-1.47h2.4v8.81c0,.74-.18,1.36-.55,1.86-.36.5-.87.88-1.51,1.13-.64.25-1.38.38-2.21.38Zm.05-5.4c.39,0,.72-.1.99-.29.27-.2.48-.48.62-.84.14-.37.22-.8.22-1.31s-.07-.96-.22-1.33-.35-.67-.62-.88c-.27-.21-.6-.31-.99-.31s-.73.11-1.01.32c-.27.21-.48.51-.62.89-.14.38-.21.82-.21,1.31s.07.94.21,1.3c.14.37.35.65.62.85.27.2.6.3,1,.3Z"/><path class="l" d="m308.89,288.65c-.9,0-1.67-.18-2.31-.55-.65-.37-1.14-.88-1.49-1.56-.35-.67-.52-1.47-.52-2.39s.18-1.69.52-2.36.84-1.21,1.47-1.58,1.38-.57,2.24-.57c.57,0,1.11.09,1.61.28s.93.46,1.31.83c.37.37.66.83.87,1.38.21.56.31,1.2.31,1.95v.67h-7.37v-1.5h5.09c0-.35-.08-.66-.23-.93-.15-.27-.36-.48-.63-.63-.27-.15-.58-.23-.93-.23s-.69.08-.97.25c-.28.17-.5.39-.66.68-.16.28-.24.6-.24.94v1.43c0,.43.08.8.24,1.12.16.31.39.56.68.73.3.17.65.25,1.05.25.27,0,.51-.04.74-.11.22-.08.41-.19.57-.34.16-.15.28-.34.36-.56l2.24.15c-.11.54-.35,1.01-.7,1.41-.35.4-.8.71-1.35.93s-1.19.33-1.91.33Z"/><path class="l" d="m319.12,279.75v1.82h-5.26v-1.82h5.26Zm-4.06-2.09h2.42v8.14c0,.22.03.4.1.52s.16.21.29.26.27.07.43.07c.11,0,.23-.01.34-.03.11-.02.2-.04.26-.05l.38,1.8c-.12.04-.29.08-.51.13-.22.05-.49.08-.8.09-.58.02-1.09-.05-1.53-.23-.44-.18-.78-.46-1.02-.83s-.36-.85-.36-1.42v-8.46Z"/><path class="l" d="m321.9,278.63c-.36,0-.67-.12-.92-.36s-.38-.53-.38-.87.13-.62.38-.86.56-.36.92-.36.67.12.92.36c.25.24.38.53.38.86s-.13.63-.38.87c-.26.24-.56.36-.92.36Zm-1.22,9.85v-8.73h2.42v8.73h-2.42Z"/><path class="l" d="m328.98,288.65c-.89,0-1.66-.19-2.3-.57s-1.13-.91-1.48-1.59c-.34-.68-.52-1.46-.52-2.34s.17-1.68.52-2.36c.35-.68.84-1.21,1.48-1.58.64-.38,1.4-.57,2.29-.57.76,0,1.43.14,2,.42s1.02.66,1.36,1.16.52,1.09.55,1.76h-2.28c-.06-.44-.23-.79-.51-1.05-.28-.27-.63-.4-1.08-.4-.38,0-.7.1-.98.3-.28.2-.49.5-.65.88-.15.39-.23.85-.23,1.4s.08,1.03.23,1.42c.15.39.37.69.65.89.28.2.61.31.98.31.28,0,.53-.06.75-.17.22-.11.4-.28.55-.5s.24-.48.29-.79h2.28c-.04.67-.22,1.25-.54,1.76-.32.51-.77.9-1.34,1.18-.57.28-1.24.43-2.02.43Z"/><path class="l" d="m334.44,288.48v-11.64h2.42v11.64h-2.42Zm2.19-2.51v-2.9h.36l2.8-3.31h2.78l-3.76,4.39h-.57l-1.6,1.83Zm3.26,2.51l-2.57-3.8,1.61-1.71,3.79,5.51h-2.84Z"/><path class="l" d="m346.23,288.64c-.56,0-1.05-.1-1.49-.29s-.78-.48-1.03-.87-.38-.86-.38-1.44c0-.48.09-.89.27-1.22.18-.33.42-.59.73-.79.31-.2.66-.35,1.05-.46.39-.1.8-.17,1.23-.22.51-.05.92-.1,1.23-.15.31-.05.54-.12.68-.21s.21-.24.21-.42v-.03c0-.36-.11-.64-.34-.83-.22-.2-.54-.3-.96-.3-.44,0-.78.1-1.04.29s-.43.43-.51.72l-2.24-.18c.11-.53.34-.99.67-1.38.33-.39.76-.69,1.29-.9s1.14-.32,1.84-.32c.48,0,.95.06,1.39.17.45.11.84.29,1.19.53.35.24.62.54.82.92.2.37.3.82.3,1.34v5.89h-2.29v-1.21h-.07c-.14.27-.33.51-.56.72-.24.21-.52.37-.85.48-.33.12-.71.17-1.14.17Zm.69-1.67c.36,0,.67-.07.94-.21.27-.14.49-.33.64-.58.16-.24.23-.52.23-.82v-.93c-.08.05-.18.09-.31.13s-.28.08-.44.11c-.16.03-.33.06-.49.08s-.31.05-.44.07c-.28.04-.53.11-.74.2-.21.09-.38.21-.49.37s-.18.34-.18.57c0,.33.12.58.36.75.24.17.54.26.92.26Zm-.26-8.35l1.2-2.58h2.24l-1.73,2.58h-1.71Z"/><path class="l" d="m362.34,284.76v-5.01h2.42v8.73h-2.32v-1.58h-.09c-.2.51-.52.92-.98,1.23s-1.01.47-1.67.47c-.58,0-1.1-.13-1.54-.4-.44-.26-.79-.64-1.04-1.13-.25-.49-.38-1.07-.38-1.76v-5.56h2.42v5.12c0,.52.14.92.41,1.22.27.3.64.45,1.1.45.29,0,.56-.07.82-.2.25-.13.46-.33.62-.6.16-.26.23-.59.23-.98Zm-2.45-6.14l1.21-2.58h2.24l-1.73,2.58h-1.71Z"/><path class="l" d="m370.63,288.65c-.89,0-1.66-.19-2.3-.57s-1.13-.91-1.48-1.59c-.34-.68-.52-1.46-.52-2.34s.17-1.68.52-2.36c.35-.68.84-1.21,1.48-1.58.64-.38,1.4-.57,2.29-.57.76,0,1.43.14,2,.42s1.02.66,1.36,1.16.52,1.09.55,1.76h-2.28c-.06-.44-.23-.79-.51-1.05-.28-.27-.63-.4-1.08-.4-.38,0-.7.1-.98.3-.28.2-.49.5-.65.88-.15.39-.23.85-.23,1.4s.08,1.03.23,1.42c.15.39.37.69.65.89.28.2.61.31.98.31.28,0,.53-.06.75-.17.22-.11.4-.28.55-.5s.24-.48.29-.79h2.28c-.04.67-.22,1.25-.54,1.76-.32.51-.77.9-1.34,1.18-.57.28-1.24.43-2.02.43Zm-1.15-12.52l1.14,1.39,1.14-1.39h2.06v.08l-2.31,2.5h-1.8l-2.3-2.5v-.08h2.06Z"/><path class="l" d="m377.3,278.63c-.36,0-.67-.12-.92-.36s-.38-.53-.38-.87.13-.62.38-.86.56-.36.92-.36.67.12.92.36c.25.24.38.53.38.86s-.13.63-.38.87c-.26.24-.56.36-.92.36Zm-1.22,9.85v-8.73h2.42v8.73h-2.42Z"/><path class="l" d="m382.86,283.43v5.05h-2.42v-8.73h2.31v1.54h.1c.19-.51.52-.91.97-1.21.45-.3,1.01-.45,1.65-.45.61,0,1.13.13,1.59.4.45.27.8.64,1.05,1.13s.38,1.08.38,1.75v5.56h-2.42v-5.12c0-.53-.13-.95-.41-1.25-.28-.3-.66-.45-1.14-.45-.33,0-.61.07-.86.21-.25.14-.44.34-.58.61-.14.27-.21.59-.21.96Z"/><path class="l" d="m392.81,283.43v5.05h-2.42v-8.73h2.31v1.54h.1c.19-.51.52-.91.97-1.21.45-.3,1.01-.45,1.65-.45.61,0,1.13.13,1.59.4.45.27.8.64,1.05,1.13s.38,1.08.38,1.75v5.56h-2.42v-5.12c0-.53-.13-.95-.41-1.25-.28-.3-.66-.45-1.14-.45-.33,0-.61.07-.86.21-.25.14-.44.34-.58.61-.14.27-.21.59-.21.96Z"/><path class="l" d="m404.28,288.65c-.88,0-1.64-.19-2.29-.57s-1.14-.9-1.49-1.58c-.35-.68-.52-1.46-.52-2.35s.18-1.69.52-2.37c.35-.68.84-1.2,1.49-1.58s1.4-.57,2.29-.57,1.64.19,2.29.57c.64.38,1.14.9,1.48,1.58.35.68.52,1.46.52,2.37s-.17,1.68-.52,2.35c-.35.68-.84,1.2-1.48,1.58-.64.38-1.4.57-2.29.57Zm.01-1.88c.4,0,.74-.12,1-.34.27-.23.47-.54.61-.94.14-.4.21-.85.21-1.36s-.07-.96-.21-1.36c-.14-.4-.34-.71-.61-.94-.27-.23-.6-.35-1-.35s-.75.12-1.02.35c-.27.23-.48.54-.62.94-.14.4-.21.85-.21,1.36s.07.96.21,1.36c.14.4.35.71.62.94.28.23.62.34,1.02.34Z"/><path class="l" d="m417.42,282.24l-2.22.14c-.04-.19-.12-.36-.24-.51s-.29-.28-.49-.37c-.2-.09-.44-.14-.72-.14-.38,0-.69.08-.95.24-.26.16-.39.37-.39.63,0,.21.08.38.25.53.17.14.45.26.86.35l1.58.32c.85.17,1.48.46,1.9.84.42.39.62.89.62,1.52,0,.57-.17,1.07-.5,1.5-.34.43-.79.77-1.38,1.01s-1.25.36-2.01.36c-1.16,0-2.08-.24-2.76-.72-.68-.48-1.08-1.14-1.2-1.97l2.38-.12c.07.35.25.62.52.8.28.18.63.28,1.06.28s.77-.08,1.03-.25c.26-.16.39-.38.39-.64,0-.22-.1-.4-.28-.54-.18-.14-.46-.25-.84-.33l-1.51-.3c-.85-.17-1.49-.47-1.9-.89-.42-.42-.62-.96-.62-1.61,0-.56.15-1.04.46-1.45.31-.41.74-.72,1.29-.94s1.21-.33,1.95-.33c1.1,0,1.97.23,2.61.7.63.47,1,1.1,1.11,1.9Z"/><path class="l" d="m423.79,279.75v1.82h-5.26v-1.82h5.26Zm-4.06-2.09h2.42v8.14c0,.22.03.4.1.52s.16.21.29.26.27.07.43.07c.11,0,.23-.01.34-.03.11-.02.2-.04.26-.05l.38,1.8c-.12.04-.29.08-.51.13-.22.05-.49.08-.8.09-.58.02-1.09-.05-1.53-.23-.44-.18-.78-.46-1.02-.83s-.36-.85-.36-1.42v-8.46Z"/></g><g class="n"><path class="l" d="m445.2,269.28v-11.64h4.59c.88,0,1.63.16,2.25.47s1.1.75,1.43,1.32c.33.57.49,1.24.49,2.01s-.17,1.44-.5,1.99c-.33.55-.81.98-1.45,1.28-.63.3-1.39.44-2.29.44h-3.07v-1.98h2.68c.47,0,.86-.06,1.17-.19.31-.13.54-.32.7-.58.15-.26.23-.58.23-.96s-.08-.71-.23-.98c-.15-.26-.39-.47-.7-.61-.31-.14-.71-.21-1.18-.21h-1.66v9.62h-2.46Zm6.28-5.3l2.89,5.3h-2.72l-2.83-5.3h2.65Z"/><path class="l" d="m459.45,269.45c-.88,0-1.64-.19-2.29-.57s-1.14-.9-1.49-1.58c-.35-.68-.52-1.46-.52-2.35s.18-1.69.52-2.37c.35-.68.84-1.2,1.49-1.58s1.4-.57,2.29-.57,1.64.19,2.29.57c.64.38,1.14.9,1.48,1.58.35.68.52,1.46.52,2.37s-.17,1.68-.52,2.35c-.35.68-.84,1.2-1.48,1.58-.64.38-1.4.57-2.29.57Zm.01-1.88c.4,0,.74-.12,1-.34.27-.23.47-.54.61-.94.14-.4.21-.85.21-1.36s-.07-.96-.21-1.36c-.14-.4-.34-.71-.61-.94-.27-.23-.6-.35-1-.35s-.75.12-1.02.35c-.27.23-.48.54-.62.94-.14.4-.21.85-.21,1.36s.07.96.21,1.36c.14.4.35.71.62.94.28.23.62.34,1.02.34Z"/><path class="l" d="m465.28,269.28v-1.44l4.27-5.29v-.06h-4.12v-1.93h7.04v1.57l-4.01,5.16v.06h4.16v1.93h-7.33Z"/><path class="l" d="m482.61,260.55l-3.05,8.73h-2.73l-3.05-8.73h2.56l1.81,6.24h.09l1.81-6.24h2.56Z"/><path class="l" d="m487.5,269.45c-.88,0-1.64-.19-2.29-.57s-1.14-.9-1.49-1.58c-.35-.68-.52-1.46-.52-2.35s.18-1.69.52-2.37c.35-.68.84-1.2,1.49-1.58s1.4-.57,2.29-.57,1.64.19,2.29.57c.64.38,1.14.9,1.48,1.58.35.68.52,1.46.52,2.37s-.17,1.68-.52,2.35c-.35.68-.84,1.2-1.48,1.58-.64.38-1.4.57-2.29.57Zm.01-1.88c.4,0,.74-.12,1-.34.27-.23.47-.54.61-.94.14-.4.21-.85.21-1.36s-.07-.96-.21-1.36c-.14-.4-.34-.71-.61-.94-.27-.23-.6-.35-1-.35s-.75.12-1.02.35c-.27.23-.48.54-.62.94-.14.4-.21.85-.21,1.36s.07.96.21,1.36c.14.4.35.71.62.94.28.23.62.34,1.02.34Z"/><path class="l" d="m493.38,260.55h2.42v9.16c0,.67-.13,1.22-.4,1.64-.26.42-.64.72-1.14.92-.49.19-1.08.29-1.77.29-.08,0-.16,0-.24,0-.08,0-.16,0-.25,0v-1.89c.06,0,.12,0,.17,0,.05,0,.1,0,.15,0,.39,0,.66-.08.82-.25.16-.17.24-.41.24-.74v-9.12Zm1.21-1.12c-.36,0-.66-.12-.92-.36s-.39-.53-.39-.87.13-.62.39-.86.56-.36.92-.36.67.12.93.36.38.53.38.86-.13.63-.38.87-.56.36-.93.36Z"/><path class="l" d="m505.38,269.45c-.88,0-1.64-.19-2.29-.57-.64-.38-1.14-.9-1.48-1.58-.35-.68-.52-1.46-.52-2.35s.17-1.69.52-2.37c.35-.68.84-1.2,1.48-1.58.64-.38,1.4-.57,2.29-.57s1.64.19,2.29.57,1.14.9,1.49,1.58c.35.68.52,1.46.52,2.37s-.17,1.68-.52,2.35c-.35.68-.84,1.2-1.49,1.58s-1.4.57-2.29.57Zm.01-1.88c.4,0,.74-.12,1.01-.34.27-.23.47-.54.61-.94.14-.4.21-.85.21-1.36s-.07-.96-.21-1.36c-.14-.4-.34-.71-.61-.94-.27-.23-.6-.35-1.01-.35s-.75.12-1.02.35c-.28.23-.48.54-.62.94-.14.4-.21.85-.21,1.36s.07.96.21,1.36c.14.4.34.71.62.94.27.23.61.34,1.02.34Z"/><path class="l" d="m511.3,269.28v-11.64h2.42v4.38h.07c.11-.23.26-.47.46-.72.2-.24.47-.45.79-.61s.74-.25,1.22-.25c.64,0,1.22.17,1.76.5.54.33.97.83,1.29,1.49s.48,1.5.48,2.5-.16,1.79-.47,2.46c-.31.67-.74,1.17-1.27,1.52-.54.34-1.14.51-1.8.51-.47,0-.87-.08-1.2-.23-.33-.16-.6-.35-.8-.59-.21-.24-.37-.48-.48-.72h-.11v1.4h-2.38Zm2.37-4.36c0,.52.07.97.21,1.36.14.39.35.69.62.9.27.21.61.32.99.32s.73-.11,1-.33c.27-.22.48-.52.62-.91.14-.39.21-.84.21-1.34s-.07-.95-.21-1.33c-.14-.38-.35-.68-.62-.9-.27-.22-.61-.32-1.01-.32s-.73.1-1,.31c-.27.21-.48.5-.62.89s-.21.83-.21,1.35Z"/><path class="l" d="m523.84,264.23v5.05h-2.42v-8.73h2.31v1.54h.1c.19-.51.52-.91.97-1.21.45-.3,1.01-.45,1.65-.45.61,0,1.13.13,1.59.4.45.27.8.64,1.05,1.13s.38,1.08.38,1.75v5.56h-2.42v-5.12c0-.53-.13-.95-.41-1.25-.28-.3-.66-.45-1.14-.45-.33,0-.61.07-.86.21-.25.14-.44.34-.58.61-.14.27-.21.59-.21.96Z"/><path class="l" d="m535.32,269.45c-.88,0-1.64-.19-2.29-.57s-1.14-.9-1.49-1.58c-.35-.68-.52-1.46-.52-2.35s.18-1.69.52-2.37c.35-.68.84-1.2,1.49-1.58s1.4-.57,2.29-.57,1.64.19,2.29.57c.64.38,1.14.9,1.48,1.58.35.68.52,1.46.52,2.37s-.17,1.68-.52,2.35c-.35.68-.84,1.2-1.48,1.58-.64.38-1.4.57-2.29.57Zm.01-1.88c.4,0,.74-.12,1-.34.27-.23.47-.54.61-.94.14-.4.21-.85.21-1.36s-.07-.96-.21-1.36c-.14-.4-.34-.71-.61-.94-.27-.23-.6-.35-1-.35s-.75.12-1.02.35c-.27.23-.48.54-.62.94-.14.4-.21.85-.21,1.36s.07.96.21,1.36c.14.4.35.71.62.94.28.23.62.34,1.02.34Z"/><path class="l" d="m549.04,260.55l-3.05,8.73h-2.73l-3.05-8.73h2.56l1.81,6.24h.09l1.81-6.24h2.56Z"/><path class="l" d="m551.49,259.43c-.36,0-.67-.12-.92-.36s-.38-.53-.38-.87.13-.62.38-.86.56-.36.92-.36.67.12.92.36.38.53.38.86-.13.63-.38.87-.56.36-.92.36Zm-1.21,9.85v-8.73h2.42v8.73h-2.42Z"/><path class="l" d="m559.27,260.55v1.82h-5.26v-1.82h5.26Zm-4.06-2.09h2.42v8.14c0,.22.03.4.1.52s.16.21.29.26.27.07.43.07c.11,0,.23-.01.34-.03.11-.02.2-.04.26-.05l.38,1.8c-.12.04-.29.08-.51.13-.22.05-.49.08-.8.09-.58.02-1.09-.05-1.53-.23-.44-.18-.78-.46-1.02-.83s-.36-.85-.36-1.42v-8.46Z"/><path class="l" d="m564.73,269.45c-.9,0-1.67-.18-2.31-.55-.65-.37-1.14-.88-1.49-1.56-.35-.67-.52-1.47-.52-2.39s.18-1.69.52-2.36.84-1.21,1.47-1.58,1.38-.57,2.24-.57c.57,0,1.11.09,1.61.28s.93.46,1.31.83c.37.37.66.83.87,1.38.21.56.31,1.2.31,1.95v.67h-7.37v-1.5h5.09c0-.35-.08-.66-.23-.93-.15-.27-.36-.48-.63-.63-.27-.15-.58-.23-.93-.23s-.69.08-.97.25c-.28.17-.5.39-.66.68-.16.28-.24.6-.24.94v1.43c0,.43.08.8.24,1.12.16.31.39.56.68.73.3.17.65.25,1.05.25.27,0,.51-.04.74-.11.22-.08.41-.19.57-.34.16-.15.28-.34.36-.56l2.24.15c-.11.54-.35,1.01-.7,1.41-.35.4-.8.71-1.35.93s-1.19.33-1.91.33Z"/><path class="l" d="m572.74,257.64v11.64h-2.42v-11.64h2.42Z"/><path class="l" d="m577.09,264.23v5.05h-2.42v-8.73h2.31v1.54h.1c.19-.51.52-.91.97-1.21.46-.3,1.01-.45,1.65-.45.61,0,1.13.13,1.58.4.45.27.8.64,1.05,1.13s.38,1.08.38,1.75v5.56h-2.42v-5.12c0-.53-.13-.95-.41-1.25-.28-.3-.66-.45-1.14-.45-.33,0-.61.07-.86.21-.25.14-.44.34-.58.61-.14.27-.21.59-.21.96Z"/><path class="l" d="m585.79,272.55c-.31,0-.59-.02-.86-.07-.27-.05-.49-.11-.66-.18l.54-1.81c.28.09.54.13.77.14.23,0,.43-.05.6-.16.17-.11.3-.31.41-.58l.14-.37-3.13-8.98h2.55l1.81,6.41h.09l1.82-6.41h2.56l-3.39,9.67c-.16.47-.38.88-.66,1.23-.28.35-.63.62-1.05.81-.42.19-.94.29-1.54.29Zm1.34-13.12l1.21-2.58h2.24l-1.73,2.58h-1.71Z"/><path class="l" d="m597.33,269.45c-.89,0-1.66-.19-2.3-.57s-1.13-.91-1.48-1.59c-.34-.68-.52-1.46-.52-2.34s.17-1.68.52-2.36c.35-.68.84-1.21,1.48-1.58.64-.38,1.4-.57,2.29-.57.76,0,1.43.14,2,.42s1.02.66,1.36,1.16.52,1.09.55,1.76h-2.28c-.06-.44-.23-.79-.51-1.05-.28-.27-.63-.4-1.08-.4-.38,0-.7.1-.98.3-.28.2-.49.5-.65.88-.15.39-.23.85-.23,1.4s.08,1.03.23,1.42c.15.39.37.69.65.89.28.2.61.31.98.31.28,0,.53-.06.75-.17.22-.11.4-.28.55-.5s.24-.48.29-.79h2.28c-.04.67-.22,1.25-.54,1.76-.32.51-.77.9-1.34,1.18-.57.28-1.24.43-2.02.43Z"/><path class="l" d="m605.2,264.23v5.05h-2.42v-11.64h2.35v4.45h.1c.2-.51.51-.92.95-1.21.44-.29.99-.44,1.65-.44.61,0,1.13.13,1.59.39.45.26.8.64,1.06,1.13s.38,1.08.37,1.76v5.56h-2.42v-5.12c0-.54-.13-.96-.41-1.26-.27-.3-.66-.45-1.15-.45-.33,0-.62.07-.87.21-.25.14-.45.34-.59.61-.14.27-.21.59-.22.96Z"/><path class="l" d="m472.78,288.48v-1.44l4.27-5.29v-.06h-4.12v-1.93h7.04v1.57l-4.01,5.16v.06h4.16v1.93h-7.33Z"/><path class="l" d="m484.94,288.62c-.66,0-1.26-.17-1.8-.51-.54-.34-.96-.85-1.27-1.52-.31-.67-.47-1.49-.47-2.46s.16-1.83.48-2.5.75-1.16,1.29-1.49c.54-.33,1.12-.5,1.76-.5.49,0,.9.08,1.22.25s.59.37.79.61c.2.25.36.48.46.72h.07v-4.38h2.41v11.64h-2.38v-1.4h-.1c-.11.24-.27.48-.48.72-.21.24-.47.43-.8.59s-.73.23-1.2.23Zm.77-1.93c.39,0,.72-.11.99-.32.27-.21.48-.51.62-.9.15-.39.22-.84.22-1.36s-.07-.97-.21-1.35c-.14-.38-.35-.68-.62-.89-.27-.21-.61-.31-.99-.31s-.73.11-1.01.32c-.27.22-.48.51-.62.9-.14.38-.21.83-.21,1.33s.07.96.21,1.34c.14.39.35.69.62.91s.61.33,1,.33Z"/><path class="l" d="m491.89,288.48v-8.73h2.35v1.52h.09c.16-.54.43-.95.8-1.23s.81-.42,1.29-.42c.12,0,.25,0,.39.02.14.01.26.04.37.06v2.15c-.11-.03-.27-.06-.47-.09-.2-.03-.38-.04-.55-.04-.36,0-.67.08-.95.23-.28.15-.5.37-.66.64-.16.27-.24.59-.24.94v4.94h-2.42Z"/><path class="l" d="m501.96,288.65c-.88,0-1.64-.19-2.29-.57-.64-.38-1.14-.9-1.48-1.58-.35-.68-.52-1.46-.52-2.35s.17-1.69.52-2.37c.35-.68.84-1.2,1.48-1.58.64-.38,1.4-.57,2.29-.57s1.64.19,2.29.57,1.14.9,1.49,1.58c.35.68.52,1.46.52,2.37s-.17,1.68-.52,2.35c-.35.68-.84,1.2-1.49,1.58s-1.4.57-2.29.57Zm.01-1.88c.4,0,.74-.12,1.01-.34.27-.23.47-.54.61-.94.14-.4.21-.85.21-1.36s-.07-.96-.21-1.36c-.14-.4-.34-.71-.61-.94-.27-.23-.6-.35-1.01-.35s-.75.12-1.02.35c-.28.23-.48.54-.62.94-.14.4-.21.85-.21,1.36s.07.96.21,1.36c.14.4.34.71.62.94.27.23.61.34,1.02.34Z"/><path class="l" d="m507.84,279.75h2.42v9.16c0,.67-.13,1.22-.4,1.64-.27.42-.64.72-1.14.92-.49.19-1.09.29-1.77.29-.08,0-.16,0-.24,0s-.16,0-.25,0v-1.89c.06,0,.12,0,.17,0s.1,0,.15,0c.39,0,.66-.08.82-.25.16-.17.23-.41.23-.74v-9.12Zm1.21-1.12c-.36,0-.66-.12-.92-.36s-.39-.53-.39-.87.13-.62.39-.86.56-.36.92-.36.67.12.93.36.38.53.38.86-.13.63-.38.87-.57.36-.93.36Z"/><path class="l" d="m517.79,284.76v-5.01h2.42v8.73h-2.32v-1.58h-.09c-.2.51-.52.92-.98,1.23s-1.01.47-1.67.47c-.58,0-1.1-.13-1.54-.4-.44-.26-.79-.64-1.04-1.13-.25-.49-.38-1.07-.38-1.76v-5.56h2.42v5.12c0,.52.14.92.41,1.22.27.3.64.45,1.1.45.29,0,.56-.07.82-.2.25-.13.46-.33.62-.6.16-.26.23-.59.23-.98Zm-1.57-5.95c-.36,0-.69-.08-.98-.25-.29-.17-.53-.39-.71-.67-.18-.28-.26-.6-.26-.94s.09-.66.26-.95c.18-.29.41-.51.71-.69.29-.17.62-.26.98-.26s.69.09.98.26c.29.17.53.4.7.69s.26.6.26.95-.09.66-.26.94-.41.51-.7.67c-.29.17-.62.25-.98.25Zm0-1.01c.25,0,.46-.09.63-.26s.26-.37.26-.59-.09-.43-.26-.61c-.17-.18-.38-.26-.63-.26-.25,0-.46.09-.63.27-.17.17-.25.38-.25.6s.08.43.25.6c.17.17.38.26.63.26Z"/><path class="l" d="m529.83,288.65c-.9,0-1.67-.18-2.31-.55-.65-.37-1.14-.88-1.49-1.56-.35-.67-.52-1.47-.52-2.39s.18-1.69.52-2.36.84-1.21,1.47-1.58,1.38-.57,2.24-.57c.57,0,1.11.09,1.61.28s.93.46,1.31.83c.37.37.66.83.87,1.38.21.56.31,1.2.31,1.95v.67h-7.37v-1.5h5.09c0-.35-.08-.66-.23-.93-.15-.27-.36-.48-.63-.63-.27-.15-.58-.23-.93-.23s-.69.08-.97.25c-.28.17-.5.39-.66.68-.16.28-.24.6-.24.94v1.43c0,.43.08.8.24,1.12.16.31.39.56.68.73.3.17.65.25,1.05.25.27,0,.51-.04.74-.11.22-.08.41-.19.57-.34.16-.15.28-.34.36-.56l2.24.15c-.11.54-.35,1.01-.7,1.41-.35.4-.8.71-1.35.93s-1.19.33-1.91.33Z"/><path class="l" d="m537.83,283.43v5.05h-2.42v-8.73h2.31v1.54h.1c.19-.51.52-.91.97-1.21.45-.3,1.01-.45,1.65-.45.61,0,1.13.13,1.59.4.45.27.8.64,1.05,1.13s.38,1.08.38,1.75v5.56h-2.42v-5.12c0-.53-.13-.95-.41-1.25-.28-.3-.66-.45-1.14-.45-.33,0-.61.07-.86.21-.25.14-.44.34-.58.61-.14.27-.21.59-.21.96Z"/><path class="l" d="m549.34,288.65c-.9,0-1.67-.18-2.32-.55-.64-.37-1.14-.88-1.49-1.56-.35-.67-.52-1.47-.52-2.39s.17-1.69.52-2.36c.35-.68.84-1.21,1.47-1.58.63-.38,1.38-.57,2.24-.57.58,0,1.11.09,1.61.28s.93.46,1.31.83c.37.37.66.83.87,1.38.21.56.31,1.2.31,1.95v.67h-7.37v-1.5h5.09c0-.35-.08-.66-.23-.93-.15-.27-.36-.48-.63-.63s-.58-.23-.93-.23c-.37,0-.69.08-.97.25-.28.17-.5.39-.66.68-.16.28-.24.6-.24.94v1.43c0,.43.08.8.24,1.12.16.31.39.56.69.73.29.17.64.25,1.05.25.27,0,.52-.04.74-.11.22-.08.42-.19.57-.34s.28-.34.36-.56l2.24.15c-.11.54-.35,1.01-.7,1.41s-.8.71-1.35.93c-.55.22-1.19.33-1.91.33Z"/><path class="l" d="m554.92,288.48v-8.73h2.35v1.52h.09c.16-.54.43-.95.8-1.23s.81-.42,1.3-.42c.12,0,.25,0,.39.02.14.01.26.04.37.06v2.15c-.12-.03-.27-.06-.47-.09s-.38-.04-.55-.04c-.36,0-.67.08-.95.23-.28.15-.5.37-.66.64-.16.27-.24.59-.24.94v4.94h-2.42Z"/><path class="l" d="m564.98,291.93c-.79,0-1.46-.11-2.01-.32s-1-.5-1.33-.87c-.33-.37-.54-.78-.64-1.24l2.24-.3c.07.17.18.34.32.49.15.15.34.27.59.37.24.09.54.14.89.14.53,0,.96-.13,1.3-.38.34-.25.51-.68.51-1.28v-1.6h-.1c-.11.24-.27.47-.48.69-.21.22-.48.39-.82.53-.33.14-.73.2-1.19.2-.65,0-1.25-.15-1.79-.46-.54-.31-.96-.77-1.28-1.4-.32-.63-.47-1.43-.47-2.4s.16-1.81.48-2.48c.32-.66.75-1.16,1.29-1.49.54-.33,1.12-.49,1.76-.49.49,0,.9.08,1.23.25s.6.37.8.61c.2.25.36.48.47.72h.09v-1.47h2.4v8.81c0,.74-.18,1.36-.55,1.86-.36.5-.87.88-1.51,1.13-.64.25-1.38.38-2.21.38Zm.05-5.4c.39,0,.72-.1.99-.29.27-.2.48-.48.62-.84.14-.37.22-.8.22-1.31s-.07-.96-.22-1.33-.35-.67-.62-.88c-.27-.21-.6-.31-.99-.31s-.73.11-1.01.32c-.27.21-.48.51-.62.89-.14.38-.21.82-.21,1.31s.07.94.21,1.3c.14.37.35.65.62.85.27.2.6.3,1,.3Z"/><path class="l" d="m572.4,278.63c-.36,0-.67-.12-.92-.36s-.38-.53-.38-.87.13-.62.38-.86.56-.36.92-.36.67.12.92.36.38.53.38.86-.13.63-.38.87-.56.36-.92.36Zm-1.21,9.85v-8.73h2.42v8.73h-2.42Z"/><path class="l" d="m579.51,288.65c-.9,0-1.67-.18-2.31-.55-.65-.37-1.14-.88-1.49-1.56-.35-.67-.52-1.47-.52-2.39s.18-1.69.52-2.36.84-1.21,1.47-1.58,1.38-.57,2.24-.57c.57,0,1.11.09,1.61.28s.93.46,1.31.83c.37.37.66.83.87,1.38.21.56.31,1.2.31,1.95v.67h-7.37v-1.5h5.09c0-.35-.08-.66-.23-.93-.15-.27-.36-.48-.63-.63-.27-.15-.58-.23-.93-.23s-.69.08-.97.25c-.28.17-.5.39-.66.68-.16.28-.24.6-.24.94v1.43c0,.43.08.8.24,1.12.16.31.39.56.68.73.3.17.65.25,1.05.25.27,0,.51-.04.74-.11.22-.08.41-.19.57-.34.16-.15.28-.34.36-.56l2.24.15c-.11.54-.35,1.01-.7,1.41-.35.4-.8.71-1.35.93s-1.19.33-1.91.33Z"/></g></g></g></svg>