<?xml version="1.0" encoding="UTF-8"?><svg id="a" xmlns="http://www.w3.org/2000/svg" viewBox="0 0 440 205.34"><defs><style>.b{fill:#666;}.c{fill:#292b33;}.d{fill:#ccd2e3;stroke:#7f8fb8;stroke-miterlimit:10;}</style></defs><path class="c" d="m75.75,88.7v-8.73h3.44c.66,0,1.23.13,1.69.38s.82.6,1.07,1.04c.25.44.37.96.37,1.54s-.12,1.09-.38,1.53-.61.79-1.08,1.04-1.04.37-1.71.37h-2.2v-1.48h1.9c.36,0,.65-.06.88-.19s.41-.3.52-.52c.11-.22.17-.47.17-.76s-.06-.54-.17-.76c-.12-.22-.29-.39-.52-.51-.23-.12-.53-.18-.89-.18h-1.24v7.22h-1.84Z"/><path class="c" d="m86.33,88.82c-.66,0-1.23-.14-1.71-.42-.48-.28-.85-.68-1.11-1.18-.26-.51-.39-1.1-.39-1.77s.13-1.27.39-1.77c.26-.51.63-.9,1.11-1.18s1.05-.42,1.71-.42,1.23.14,1.72.42c.48.28.85.68,1.11,1.18.26.51.39,1.1.39,1.77s-.13,1.26-.39,1.77c-.26.51-.63.9-1.11,1.18-.48.28-1.05.42-1.72.42Zm0-1.41c.3,0,.55-.09.75-.26.2-.17.35-.41.46-.71.1-.3.16-.64.16-1.02s-.05-.72-.16-1.02c-.1-.3-.26-.53-.46-.71-.2-.17-.45-.26-.75-.26s-.56.09-.76.26-.36.41-.46.71-.16.64-.16,1.02.05.72.16,1.02c.1.3.26.53.46.71s.46.26.76.26Z"/><path class="c" d="m93.15,88.8c-.5,0-.95-.13-1.35-.39-.4-.26-.72-.64-.96-1.14s-.35-1.12-.35-1.85.12-1.37.36-1.87.56-.87.96-1.12c.4-.25.84-.37,1.32-.37.37,0,.67.06.92.19.25.12.44.28.6.46.15.18.27.36.35.54h.06v-3.28h1.81v8.73h-1.79v-1.05h-.08c-.08.18-.21.36-.36.54-.15.18-.35.32-.6.44-.25.12-.54.17-.9.17Zm.58-1.44c.29,0,.54-.08.74-.24.2-.16.36-.39.47-.68.11-.29.16-.63.16-1.02s-.05-.73-.16-1.01c-.11-.29-.26-.51-.47-.66-.2-.16-.45-.23-.75-.23s-.55.08-.75.24c-.2.16-.36.39-.46.67-.11.29-.16.62-.16,1s.05.72.16,1.01c.11.29.26.52.46.68.2.16.45.25.75.25Z"/><path class="c" d="m98.36,88.7v-6.55h1.82v6.55h-1.82Zm.26-7.39l.9-1.94h1.68l-1.3,1.94h-1.28Z"/><path class="c" d="m103.44,79.97v8.73h-1.82v-8.73h1.82Z"/><path class="c" d="m115.72,84.33c0,.95-.18,1.76-.54,2.43s-.85,1.18-1.47,1.53c-.62.35-1.31.53-2.08.53s-1.47-.18-2.09-.53c-.62-.35-1.1-.86-1.46-1.53-.36-.67-.54-1.48-.54-2.42s.18-1.76.54-2.43c.36-.67.85-1.18,1.46-1.53.62-.35,1.31-.53,2.09-.53s1.46.18,2.08.53c.62.35,1.11.86,1.47,1.53s.54,1.48.54,2.43Zm-1.87,0c0-.62-.09-1.14-.27-1.56s-.44-.74-.77-.96-.72-.33-1.17-.33-.83.11-1.17.33c-.33.22-.59.54-.77.96-.18.42-.28.94-.28,1.56s.09,1.14.28,1.56c.18.42.44.74.77.96.33.22.72.33,1.17.33s.84-.11,1.17-.33.59-.54.77-.96c.18-.42.27-.94.27-1.56Z"/><path class="c" d="m117,88.7v-1.1l4.35-6.11h-4.36v-1.52h6.68v1.09l-4.36,6.11h4.37v1.52h-6.68Z"/><path class="c" d="m125.09,88.7v-8.73h5.88v1.52h-4.04v2.08h3.73v1.52h-3.73v2.08h4.05v1.52h-5.9Z"/><path class="b" d="m12.25,96.5v3.94h-1v-6.55h.97v1.02h.09c.15-.33.39-.6.7-.8s.72-.3,1.21-.3c.44,0,.83.09,1.16.27.33.18.59.45.78.82.18.37.28.83.28,1.38v4.16h-1.01v-4.09c0-.51-.13-.92-.4-1.2-.27-.29-.63-.43-1.1-.43-.32,0-.61.07-.86.21-.25.14-.45.34-.59.61s-.22.59-.22.97Z"/><path class="b" d="m20.33,100.59c-.42,0-.79-.08-1.13-.24-.34-.16-.61-.39-.81-.69-.2-.3-.3-.66-.3-1.09,0-.38.07-.68.22-.91s.35-.42.59-.55c.25-.13.52-.23.82-.3.3-.07.6-.12.91-.16.4-.05.72-.09.97-.12.25-.03.43-.07.54-.14.12-.07.17-.18.17-.34v-.03c0-.42-.11-.75-.34-.98s-.58-.35-1.04-.35-.86.1-1.13.31c-.27.21-.46.44-.58.67l-.96-.34c.17-.4.4-.71.68-.93.29-.22.6-.38.94-.47.34-.09.67-.13,1-.13.21,0,.45.02.73.07.27.05.54.15.8.3.26.15.47.39.64.69.17.31.26.72.26,1.24v4.31h-1.01v-.89h-.05c-.07.14-.18.29-.34.46-.16.16-.37.3-.64.41-.26.11-.59.17-.97.17Zm.15-.9c.4,0,.73-.08,1.01-.23s.48-.36.62-.6.21-.51.21-.78v-.92c-.04.05-.14.1-.28.14-.14.04-.31.08-.49.11-.19.03-.37.06-.54.08-.17.02-.32.04-.42.05-.26.03-.5.09-.73.16-.23.08-.41.19-.54.34s-.21.35-.21.61c0,.35.13.61.39.79.26.18.59.27.99.27Z"/><path class="b" d="m28.54,100.43v-8.73h1v8.73h-1Zm.94-2.39l-.02-1.24h.21l2.86-2.91h1.24l-3.05,3.08h-.09l-1.16,1.07Zm3.22,2.39l-2.56-3.24.72-.7,3.12,3.94h-1.28Z"/><path class="b" d="m37.59,100.57c-.59,0-1.11-.14-1.55-.42s-.79-.67-1.04-1.18c-.25-.51-.37-1.1-.37-1.77s.12-1.28.37-1.79c.25-.51.6-.9,1.04-1.19s.96-.42,1.55-.42,1.11.14,1.55.42.79.68,1.04,1.19c.25.51.37,1.1.37,1.79s-.12,1.27-.37,1.77c-.25.51-.6.9-1.04,1.18s-.96.42-1.55.42Zm0-.9c.45,0,.82-.12,1.11-.35s.5-.53.64-.91c.14-.38.21-.78.21-1.22s-.07-.85-.21-1.22c-.14-.38-.35-.68-.64-.92s-.66-.35-1.11-.35-.82.12-1.11.35-.5.54-.64.92c-.14.38-.21.79-.21,1.22s.07.84.21,1.22c.14.38.35.68.64.91s.66.35,1.11.35Z"/><path class="b" d="m43.23,96.5v3.94h-1v-6.55h.97v1.02h.09c.15-.33.39-.6.7-.8s.72-.3,1.21-.3c.44,0,.83.09,1.16.27.33.18.59.45.78.82.18.37.28.83.28,1.38v4.16h-1.01v-4.09c0-.51-.13-.92-.4-1.2-.27-.29-.63-.43-1.1-.43-.32,0-.61.07-.86.21-.25.14-.45.34-.59.61s-.22.59-.22.97Z"/><path class="b" d="m52.13,100.57c-.63,0-1.17-.14-1.63-.42s-.81-.67-1.05-1.18c-.25-.5-.37-1.09-.37-1.76s.12-1.26.37-1.77c.25-.51.59-.91,1.03-1.2.44-.29.96-.43,1.55-.43.34,0,.68.06,1.01.17.33.11.63.3.91.55.27.25.49.59.65,1.01.16.42.24.93.24,1.54v.43h-5.05v-.87h4.02c0-.37-.07-.7-.22-.99-.15-.29-.35-.52-.62-.69-.27-.17-.58-.25-.95-.25-.4,0-.75.1-1.04.3-.29.2-.51.45-.67.77-.16.32-.23.65-.23,1.01v.58c0,.49.09.91.26,1.26s.41.6.72.78c.31.18.66.27,1.07.27.26,0,.5-.04.72-.11s.4-.19.56-.34c.16-.15.28-.34.36-.57l.97.27c-.1.33-.27.62-.52.87s-.54.44-.89.58-.75.21-1.2.21Z"/><path class="b" d="m59.17,100.57c-.61,0-1.14-.14-1.58-.43-.44-.29-.78-.69-1.02-1.2-.24-.51-.36-1.09-.36-1.74s.12-1.25.37-1.76c.25-.51.59-.91,1.03-1.2.44-.29.96-.43,1.55-.43.46,0,.88.09,1.24.26s.67.41.91.72c.24.31.38.67.44,1.07h-1.01c-.08-.3-.25-.56-.51-.79s-.62-.35-1.06-.35c-.39,0-.73.1-1.03.3s-.52.49-.69.86c-.16.37-.25.8-.25,1.29s.08.95.24,1.32c.16.38.39.67.68.87s.64.31,1.04.31c.26,0,.5-.05.71-.14s.39-.22.54-.39c.15-.17.25-.38.32-.61h1.01c-.06.39-.2.73-.42,1.04-.22.31-.52.55-.88.73s-.79.27-1.27.27Zm-.92-9.31l.89,1.19.89-1.19h.96v.07l-1.38,1.77h-.92l-1.38-1.77v-.07h.96Z"/><path class="b" d="m64.35,96.5v3.94h-1v-6.55h.97v1.02h.09c.15-.33.39-.6.7-.8s.72-.3,1.21-.3c.44,0,.83.09,1.16.27.33.18.59.45.78.82.18.37.28.83.28,1.38v4.16h-1.01v-4.09c0-.51-.13-.92-.4-1.2-.27-.29-.63-.43-1.1-.43-.32,0-.61.07-.86.21-.25.14-.45.34-.59.61s-.22.59-.22.97Z"/><path class="b" d="m73.24,100.57c-.63,0-1.17-.14-1.63-.42s-.81-.67-1.05-1.18c-.25-.5-.37-1.09-.37-1.76s.12-1.26.37-1.77c.25-.51.59-.91,1.03-1.2.44-.29.96-.43,1.55-.43.34,0,.68.06,1.01.17.33.11.63.3.91.55.27.25.49.59.65,1.01.16.42.24.93.24,1.54v.43h-5.05v-.87h4.02c0-.37-.07-.7-.22-.99-.15-.29-.35-.52-.62-.69-.27-.17-.58-.25-.95-.25-.4,0-.75.1-1.04.3-.29.2-.51.45-.67.77-.16.32-.23.65-.23,1.01v.58c0,.49.09.91.26,1.26s.41.6.72.78c.31.18.66.27,1.07.27.26,0,.5-.04.72-.11s.4-.19.56-.34c.16-.15.28-.34.36-.57l.97.27c-.1.33-.27.62-.52.87s-.54.44-.89.58-.75.21-1.2.21Zm-.61-7.57l1.04-1.98h1.18l-1.33,1.98h-.89Z"/><path class="b" d="m85.5,95.35l-.9.26c-.06-.15-.14-.3-.25-.44-.11-.14-.26-.26-.45-.36s-.43-.14-.72-.14c-.4,0-.73.09-1,.27-.27.18-.4.42-.4.7,0,.25.09.45.27.59.18.14.47.27.85.36l.97.24c.58.14,1.02.36,1.31.65.29.29.43.67.43,1.12,0,.38-.11.71-.32,1.01-.21.3-.51.53-.9.7-.38.17-.83.26-1.34.26-.67,0-1.22-.14-1.66-.43-.44-.29-.71-.71-.83-1.27l.95-.24c.09.35.26.62.52.79.25.18.59.26,1,.26.47,0,.84-.1,1.12-.3.28-.2.42-.44.42-.72,0-.23-.08-.42-.24-.57s-.4-.27-.73-.35l-1.09-.26c-.6-.14-1.04-.36-1.32-.66-.28-.3-.42-.68-.42-1.13,0-.37.1-.7.31-.98s.49-.51.86-.67c.36-.16.77-.24,1.23-.24.65,0,1.16.14,1.53.43.37.28.63.66.79,1.12Z"/><path class="b" d="m87.27,102.89v-9h.97v1.04h.12c.07-.11.18-.26.31-.44s.32-.34.57-.48c.25-.14.59-.21,1.01-.21.55,0,1.04.14,1.46.41.42.28.75.67.98,1.17.24.51.35,1.1.35,1.79s-.12,1.29-.35,1.8c-.24.51-.56.9-.98,1.18-.42.28-.9.42-1.44.42-.42,0-.76-.07-1.01-.21s-.45-.3-.58-.48c-.14-.18-.24-.33-.32-.45h-.09v3.46h-1Zm.99-5.73c0,.49.07.93.22,1.31.15.38.36.67.64.88.28.21.62.32,1.02.32s.77-.11,1.05-.33c.28-.22.5-.52.64-.9.14-.38.22-.8.22-1.27s-.07-.88-.21-1.25c-.14-.37-.35-.67-.63-.88-.28-.22-.64-.33-1.06-.33s-.75.1-1.03.31c-.28.21-.49.49-.63.86-.14.37-.21.8-.21,1.28Z"/><path class="b" d="m97.38,100.57c-.59,0-1.11-.14-1.55-.42s-.79-.67-1.04-1.18c-.25-.51-.37-1.1-.37-1.77s.12-1.28.37-1.79c.25-.51.6-.9,1.04-1.19s.96-.42,1.55-.42,1.11.14,1.55.42.79.68,1.04,1.19c.25.51.37,1.1.37,1.79s-.12,1.27-.37,1.77c-.25.51-.6.9-1.04,1.18s-.96.42-1.55.42Zm0-.9c.45,0,.82-.12,1.11-.35s.5-.53.64-.91c.14-.38.21-.78.21-1.22s-.07-.85-.21-1.22c-.14-.38-.35-.68-.64-.92s-.66-.35-1.11-.35-.82.12-1.11.35-.5.54-.64.92c-.14.38-.21.79-.21,1.22s.07.84.21,1.22c.14.38.35.68.64.91s.66.35,1.11.35Z"/><path class="b" d="m104.86,93.89v.85h-3.39v-.85h3.39Zm-2.4-1.57h1.01v6.24c0,.28.04.5.13.64s.19.23.32.28c.13.05.27.07.42.07.11,0,.2,0,.27-.02.07-.01.13-.02.17-.03l.21.9c-.07.03-.16.05-.29.08-.12.03-.28.04-.46.04-.28,0-.56-.06-.83-.18-.27-.12-.5-.31-.67-.56s-.27-.57-.27-.95v-6.51Z"/><path class="b" d="m107.17,91.26l.89,1.19.89-1.19h.95v.07l-1.38,1.77h-.92l-1.38-1.77v-.07h.95Zm-.66,9.17v-6.55h.97v.99h.07c.12-.32.33-.59.65-.79.31-.2.66-.3,1.06-.3.07,0,.17,0,.28,0,.11,0,.2,0,.25.01v1.02s-.11-.02-.23-.04-.25-.03-.38-.03c-.32,0-.6.07-.85.2-.25.13-.44.31-.59.55s-.22.5-.22.79v4.14h-1Z"/><path class="b" d="m113.65,100.57c-.63,0-1.17-.14-1.63-.42s-.81-.67-1.05-1.18c-.25-.5-.37-1.09-.37-1.76s.12-1.26.37-1.77c.25-.51.59-.91,1.03-1.2.44-.29.96-.43,1.55-.43.34,0,.68.06,1.01.17.33.11.63.3.91.55.27.25.49.59.65,1.01.16.42.24.93.24,1.54v.43h-5.05v-.87h4.02c0-.37-.07-.7-.22-.99-.15-.29-.35-.52-.62-.69-.27-.17-.58-.25-.95-.25-.4,0-.75.1-1.04.3-.29.2-.51.45-.67.77-.16.32-.23.65-.23,1.01v.58c0,.49.09.91.26,1.26s.41.6.72.78c.31.18.66.27,1.07.27.26,0,.5-.04.72-.11s.4-.19.56-.34c.16-.15.28-.34.36-.57l.97.27c-.1.33-.27.62-.52.87s-.54.44-.89.58-.75.21-1.2.21Z"/><path class="b" d="m118.17,100.43v-8.73h1.01v3.22h.08c.07-.11.18-.26.31-.44.13-.18.32-.34.57-.48.25-.14.59-.21,1.01-.21.55,0,1.04.14,1.46.41.42.28.75.67.98,1.17.24.51.35,1.1.35,1.79s-.12,1.29-.35,1.8c-.24.51-.56.9-.98,1.18-.42.28-.9.42-1.44.42-.42,0-.76-.07-1.01-.21s-.45-.3-.58-.48c-.14-.18-.24-.33-.32-.45h-.12v1.01h-.97Zm.99-3.27c0,.49.07.93.22,1.31.14.38.36.67.63.88s.62.32,1.02.32.77-.11,1.05-.33c.28-.22.5-.52.64-.9s.21-.8.21-1.27-.07-.88-.21-1.25c-.14-.37-.35-.67-.63-.88-.28-.22-.64-.33-1.06-.33s-.75.1-1.03.31c-.28.21-.49.49-.63.86-.14.37-.21.8-.21,1.28Z"/><path class="b" d="m128.36,100.57c-.63,0-1.17-.14-1.63-.42s-.81-.67-1.05-1.18c-.25-.5-.37-1.09-.37-1.76s.12-1.26.37-1.77c.25-.51.59-.91,1.03-1.2.44-.29.96-.43,1.55-.43.34,0,.68.06,1.01.17.33.11.63.3.91.55.27.25.49.59.65,1.01.16.42.24.93.24,1.54v.43h-5.05v-.87h4.02c0-.37-.07-.7-.22-.99-.15-.29-.35-.52-.62-.69-.27-.17-.58-.25-.95-.25-.4,0-.75.1-1.04.3-.29.2-.51.45-.67.77-.16.32-.23.65-.23,1.01v.58c0,.49.09.91.26,1.26s.41.6.72.78c.31.18.66.27,1.07.27.26,0,.5-.04.72-.11s.4-.19.56-.34c.16-.15.28-.34.36-.57l.97.27c-.1.33-.27.62-.52.87s-.54.44-.89.58-.75.21-1.2.21Zm-1.04-9.31l.89,1.19.89-1.19h.96v.07l-1.38,1.77h-.92l-1.38-1.77v-.07h.95Z"/><path class="b" d="m20.1,112.31c-.63,0-1.17-.14-1.63-.42s-.81-.67-1.05-1.18c-.25-.5-.37-1.09-.37-1.76s.12-1.26.37-1.77c.25-.51.59-.91,1.03-1.2.44-.29.96-.43,1.55-.43.34,0,.68.06,1.01.17.33.11.63.3.91.55.27.25.49.59.65,1.01.16.42.24.93.24,1.54v.43h-5.05v-.87h4.02c0-.37-.07-.7-.22-.99-.15-.29-.35-.52-.62-.69-.27-.17-.58-.25-.95-.25-.4,0-.75.1-1.04.3-.29.2-.51.45-.67.77-.16.32-.23.65-.23,1.01v.58c0,.49.09.91.26,1.26s.41.6.72.78c.31.18.66.27,1.07.27.26,0,.5-.04.72-.11s.4-.19.56-.34c.16-.15.28-.34.36-.57l.97.27c-.1.33-.27.62-.52.87s-.54.44-.89.58-.75.21-1.2.21Z"/><path class="b" d="m25.49,108.24v3.94h-1v-6.55h.97v1.02h.09c.15-.33.39-.6.7-.8s.72-.3,1.21-.3c.44,0,.83.09,1.16.27.33.18.59.45.78.82.18.37.28.83.28,1.38v4.16h-1.01v-4.09c0-.51-.13-.92-.4-1.2-.27-.29-.63-.43-1.1-.43-.32,0-.61.07-.86.21-.25.14-.45.34-.59.61s-.22.59-.22.97Z"/><path class="b" d="m34.38,112.31c-.63,0-1.17-.14-1.63-.42s-.81-.67-1.05-1.18c-.25-.5-.37-1.09-.37-1.76s.12-1.26.37-1.77c.25-.51.59-.91,1.03-1.2.44-.29.96-.43,1.55-.43.34,0,.68.06,1.01.17.33.11.63.3.91.55.27.25.49.59.65,1.01.16.42.24.93.24,1.54v.43h-5.05v-.87h4.02c0-.37-.07-.7-.22-.99-.15-.29-.35-.52-.62-.69-.27-.17-.58-.25-.95-.25-.4,0-.75.1-1.04.3-.29.2-.51.45-.67.77-.16.32-.23.65-.23,1.01v.58c0,.49.09.91.26,1.26s.41.6.72.78c.31.18.66.27,1.07.27.26,0,.5-.04.72-.11s.4-.19.56-.34c.16-.15.28-.34.36-.57l.97.27c-.1.33-.27.62-.52.87s-.54.44-.89.58-.75.21-1.2.21Z"/><path class="b" d="m38.76,112.17v-6.55h.97v.99h.07c.12-.32.33-.59.65-.79.31-.2.66-.3,1.06-.3.07,0,.17,0,.28,0,.11,0,.2,0,.25.01v1.02s-.11-.02-.23-.04-.25-.03-.38-.03c-.32,0-.6.07-.85.2-.25.13-.44.31-.59.55s-.22.5-.22.79v4.14h-1Z"/><path class="b" d="m45.8,114.76c-.49,0-.9-.06-1.25-.19-.35-.12-.64-.29-.87-.49-.23-.2-.42-.41-.55-.64l.8-.56c.09.12.21.26.34.41.14.15.33.29.57.4.24.12.56.17.96.17.53,0,.96-.13,1.31-.38.34-.26.52-.66.52-1.2v-1.33h-.09c-.07.12-.18.27-.31.44-.14.17-.33.33-.58.46-.25.13-.59.2-1.02.2-.53,0-1-.12-1.42-.38s-.75-.61-.99-1.09c-.24-.48-.36-1.06-.36-1.74s.12-1.26.35-1.75c.24-.5.56-.88.98-1.16.42-.27.91-.41,1.46-.41.43,0,.76.07,1.02.21.25.14.44.3.58.48s.24.32.31.44h.1v-1.04h.97v6.73c0,.56-.13,1.02-.38,1.37-.25.35-.6.61-1.02.78-.43.17-.9.25-1.43.25Zm-.03-3.6c.4,0,.74-.09,1.02-.28s.49-.45.64-.8c.14-.35.22-.76.22-1.24s-.07-.89-.21-1.25c-.14-.36-.35-.64-.63-.85s-.62-.31-1.03-.31-.78.11-1.06.32c-.28.22-.49.51-.63.87-.14.36-.21.77-.21,1.21s.07.86.22,1.2c.14.35.36.62.64.82.28.2.63.3,1.05.3Z"/><path class="b" d="m51.12,104.54c-.2,0-.36-.07-.5-.2-.14-.13-.21-.29-.21-.48s.07-.35.21-.48c.14-.13.31-.2.5-.2s.36.07.5.2c.14.13.21.29.21.48s-.07.35-.21.48c-.14.13-.31.2-.5.2Zm-.51,7.64v-6.55h1v6.55h-1Z"/><path class="b" d="m56.33,112.31c-.63,0-1.17-.14-1.63-.42s-.81-.67-1.05-1.18c-.25-.5-.37-1.09-.37-1.76s.12-1.26.37-1.77c.25-.51.59-.91,1.03-1.2.44-.29.96-.43,1.55-.43.34,0,.68.06,1.01.17.33.11.63.3.91.55.27.25.49.59.65,1.01.16.42.24.93.24,1.54v.43h-5.05v-.87h4.02c0-.37-.07-.7-.22-.99-.15-.29-.35-.52-.62-.69-.27-.17-.58-.25-.95-.25-.4,0-.75.1-1.04.3-.29.2-.51.45-.67.77-.16.32-.23.65-.23,1.01v.58c0,.49.09.91.26,1.26s.41.6.72.78c.31.18.66.27,1.07.27.26,0,.5-.04.72-.11s.4-.19.56-.34c.16-.15.28-.34.36-.57l.97.27c-.1.33-.27.62-.52.87s-.54.44-.89.58-.75.21-1.2.21Z"/><path class="b" d="m68.71,105.63l-2.42,6.55h-1.02l-2.42-6.55h1.09l1.81,5.22h.07l1.81-5.22h1.09Z"/><path class="b" d="m73.41,112.17v-6.55h.97v.99h.07c.12-.32.33-.59.65-.79.31-.2.66-.3,1.06-.3.07,0,.17,0,.28,0,.11,0,.2,0,.25.01v1.02s-.11-.02-.23-.04-.25-.03-.38-.03c-.32,0-.6.07-.85.2-.25.13-.44.31-.59.55s-.22.5-.22.79v4.14h-1Z"/><path class="b" d="m80.47,112.31c-.59,0-1.11-.14-1.55-.42s-.79-.67-1.04-1.18c-.25-.51-.37-1.1-.37-1.77s.12-1.28.37-1.79c.25-.51.6-.9,1.04-1.19s.96-.42,1.55-.42,1.11.14,1.55.42.79.68,1.04,1.19c.25.51.37,1.1.37,1.79s-.12,1.27-.37,1.77c-.25.51-.6.9-1.04,1.18s-.96.42-1.55.42Zm0-.9c.45,0,.82-.12,1.11-.35s.5-.53.64-.91c.14-.38.21-.78.21-1.22s-.07-.85-.21-1.22c-.14-.38-.35-.68-.64-.92s-.66-.35-1.11-.35-.82.12-1.11.35-.5.54-.64.92c-.14.38-.21.79-.21,1.22s.07.84.21,1.22c.14.38.35.68.64.91s.66.35,1.11.35Z"/><path class="b" d="m87.76,112.31c-.61,0-1.14-.14-1.58-.43-.44-.29-.78-.69-1.02-1.2-.24-.51-.36-1.09-.36-1.74s.12-1.25.37-1.76c.25-.51.59-.91,1.03-1.2.44-.29.96-.43,1.55-.43.46,0,.88.09,1.24.26s.67.41.91.72c.24.31.38.67.44,1.07h-1.01c-.08-.3-.25-.56-.51-.79s-.62-.35-1.06-.35c-.39,0-.73.1-1.03.3s-.52.49-.69.86c-.16.37-.25.8-.25,1.29s.08.95.24,1.32c.16.38.39.67.68.87s.64.31,1.04.31c.26,0,.5-.05.71-.14s.39-.22.54-.39c.15-.17.25-.38.32-.61h1.01c-.06.39-.2.73-.42,1.04-.22.31-.52.55-.88.73s-.79.27-1.27.27Z"/><path class="b" d="m94.68,112.31c-.63,0-1.17-.14-1.63-.42s-.81-.67-1.05-1.18c-.25-.5-.37-1.09-.37-1.76s.12-1.26.37-1.77c.25-.51.59-.91,1.03-1.2.44-.29.96-.43,1.55-.43.34,0,.68.06,1.01.17.33.11.63.3.91.55.27.25.49.59.65,1.01.16.42.24.93.24,1.54v.43h-5.05v-.87h4.02c0-.37-.07-.7-.22-.99-.15-.29-.35-.52-.62-.69-.27-.17-.58-.25-.95-.25-.4,0-.75.1-1.04.3-.29.2-.51.45-.67.77-.16.32-.23.65-.23,1.01v.58c0,.49.09.91.26,1.26s.41.6.72.78c.31.18.66.27,1.07.27.26,0,.5-.04.72-.11s.4-.19.56-.34c.16-.15.28-.34.36-.57l.97.27c-.1.33-.27.62-.52.87s-.54.44-.89.58-.75.21-1.2.21Z"/><path class="b" d="m102.29,112.17v-.77l2.88-3.15c.34-.37.62-.69.83-.97.22-.27.38-.53.49-.78.11-.24.16-.5.16-.77,0-.31-.07-.57-.22-.8-.15-.22-.35-.4-.6-.52-.25-.12-.54-.18-.85-.18-.33,0-.63.07-.88.21-.25.14-.44.33-.58.58s-.2.54-.2.87h-1.01c0-.51.12-.96.35-1.35.24-.39.56-.69.97-.9.41-.22.87-.32,1.37-.32s.96.11,1.36.32c.39.22.7.51.93.87.22.37.34.77.34,1.22,0,.32-.06.63-.17.94-.12.31-.31.64-.6,1.02-.28.37-.67.83-1.17,1.37l-1.96,2.1v.07h4.06v.94h-5.51Z"/><path class="b" d="m112.53,112.29c-.64,0-1.19-.18-1.64-.53-.45-.35-.8-.86-1.04-1.53-.24-.67-.36-1.48-.36-2.43s.12-1.75.36-2.42c.24-.67.59-1.18,1.04-1.53.45-.35,1-.53,1.63-.53s1.18.18,1.63.53c.45.35.8.86,1.04,1.53.24.67.36,1.48.36,2.42s-.12,1.76-.36,2.43c-.24.67-.58,1.18-1.04,1.53-.45.35-1,.53-1.64.53Zm0-.94c.64,0,1.13-.31,1.48-.92.35-.61.53-1.49.53-2.62,0-.76-.08-1.4-.24-1.93s-.39-.94-.69-1.21c-.3-.28-.66-.42-1.08-.42-.63,0-1.12.31-1.48.93-.36.62-.53,1.5-.53,2.63,0,.76.08,1.4.24,1.93s.39.93.69,1.21.66.41,1.08.41Z"/><path class="b" d="m120.27,112.29c-.56,0-1.06-.1-1.5-.29-.44-.19-.79-.46-1.04-.81-.26-.35-.4-.75-.42-1.2h1.07c.02.28.12.52.29.73s.39.36.67.47.58.17.92.17c.38,0,.71-.06,1-.2.29-.13.52-.31.68-.55.16-.23.25-.5.25-.81s-.08-.6-.24-.85c-.16-.25-.39-.44-.7-.58-.31-.14-.68-.21-1.12-.21h-.7v-.94h.7c.35,0,.65-.06.91-.19s.47-.3.62-.53c.15-.23.22-.49.22-.8s-.07-.55-.2-.77c-.13-.22-.32-.39-.55-.51-.24-.12-.52-.18-.84-.18-.3,0-.58.05-.85.16s-.48.27-.65.47-.26.45-.27.74h-1.02c.02-.46.15-.86.41-1.2.26-.34.6-.61,1.02-.81.42-.19.88-.29,1.38-.29.54,0,1,.11,1.39.33.39.22.68.5.89.86.21.36.31.74.31,1.15,0,.49-.13.91-.39,1.26-.26.35-.61.59-1.05.72v.07c.55.09.98.32,1.29.7.31.38.46.84.46,1.4,0,.47-.13.9-.39,1.28-.26.38-.61.67-1.05.89s-.95.32-1.51.32Z"/><path class="b" d="m127.93,112.29c-.64,0-1.19-.18-1.64-.53-.45-.35-.8-.86-1.04-1.53-.24-.67-.36-1.48-.36-2.43s.12-1.75.36-2.42c.24-.67.59-1.18,1.04-1.53.45-.35,1-.53,1.63-.53s1.18.18,1.63.53c.45.35.8.86,1.04,1.53.24.67.36,1.48.36,2.42s-.12,1.76-.36,2.43c-.24.67-.58,1.18-1.04,1.53-.45.35-1,.53-1.64.53Zm0-.94c.64,0,1.13-.31,1.48-.92.35-.61.53-1.49.53-2.62,0-.76-.08-1.4-.24-1.93s-.39-.94-.69-1.21c-.3-.28-.66-.42-1.08-.42-.63,0-1.12.31-1.48.93-.36.62-.53,1.5-.53,2.63,0,.76.08,1.4.24,1.93s.39.93.69,1.21.66.41,1.08.41Z"/><rect class="d" x="135.3" y="24.4" width="181.21" height="164.97" rx="11.34" ry="11.34" transform="translate(332.79 -119.02) rotate(90)"/><path class="c" d="m171.18,147.49v2.03h-7.96v-2.03h7.96Z"/><path class="c" d="m177.79,142.53c.6,0,1.17.1,1.73.3.55.2,1.05.52,1.49.96s.78,1.02,1.04,1.75.38,1.62.39,2.67c0,.99-.11,1.87-.33,2.64s-.54,1.43-.95,1.97c-.41.54-.91.95-1.49,1.24-.58.28-1.23.42-1.95.42-.78,0-1.46-.15-2.06-.45-.59-.3-1.07-.71-1.43-1.23-.36-.52-.58-1.11-.66-1.76h2.43c.09.42.29.75.6.99.3.23.68.35,1.12.35.76,0,1.33-.33,1.73-.99.39-.66.59-1.57.6-2.72h-.08c-.17.34-.41.63-.7.88-.3.24-.63.43-1.01.57s-.79.2-1.21.2c-.69,0-1.3-.16-1.83-.48-.54-.32-.96-.76-1.27-1.33s-.47-1.21-.47-1.93c0-.78.18-1.47.54-2.08.36-.61.87-1.09,1.53-1.43s1.41-.52,2.28-.51Zm.02,1.93c-.38,0-.72.09-1.02.27-.3.18-.53.43-.7.73-.17.31-.26.65-.25,1.03,0,.38.08.73.25,1.03.17.3.4.55.69.73.29.18.63.27,1.01.27.28,0,.55-.05.79-.16.24-.11.45-.25.63-.44.18-.19.32-.4.42-.65s.15-.51.15-.78c0-.37-.09-.71-.26-1.01-.17-.31-.41-.55-.71-.74-.3-.19-.64-.28-1.01-.28Z"/><path class="c" d="m188.25,145.49v-.61c0-.47.1-.9.3-1.29.2-.39.49-.71.87-.94.38-.23.84-.35,1.38-.35s1.03.12,1.41.35.67.55.86.94c.2.39.29.82.29,1.29v.61c0,.47-.1.9-.3,1.29-.2.39-.49.7-.87.93-.38.23-.85.35-1.4.35s-1.02-.12-1.4-.36-.67-.55-.86-.94c-.2-.39-.29-.82-.29-1.28Zm.75,8.84l8-11.64h1.49l-8,11.64h-1.49Zm.92-9.45v.61c0,.28.07.53.2.77.13.24.36.35.7.35s.59-.12.71-.35c.13-.23.19-.49.19-.77v-.61c0-.28-.06-.53-.18-.77-.12-.24-.36-.36-.72-.36-.34,0-.57.12-.7.36-.13.24-.19.5-.19.77Zm4.31,7.27v-.61c0-.47.1-.89.3-1.29.2-.39.49-.71.87-.94.38-.24.85-.36,1.39-.36s1.03.12,1.41.35c.38.23.67.55.86.94.2.39.29.82.29,1.29v.61c0,.47-.1.89-.3,1.29-.2.39-.49.71-.87.94-.38.24-.85.36-1.4.36s-1.02-.12-1.4-.36c-.38-.24-.67-.55-.86-.94-.2-.39-.3-.82-.3-1.29Zm1.65-.61v.61c0,.27.07.52.2.76.13.24.37.36.71.36s.58-.12.71-.35c.13-.23.19-.49.19-.77v-.61c0-.28-.06-.53-.18-.77-.12-.24-.36-.36-.72-.36s-.58.12-.71.36c-.13.24-.2.5-.2.77Z"/><path class="c" d="m207.83,154.49c-.56,0-1.05-.1-1.49-.29s-.78-.48-1.03-.87-.38-.86-.38-1.44c0-.48.09-.89.27-1.22.18-.33.42-.59.73-.79.31-.2.66-.35,1.05-.46.39-.1.8-.17,1.24-.22.51-.05.92-.1,1.23-.15.31-.05.54-.12.68-.21.14-.09.21-.24.21-.42v-.03c0-.36-.11-.64-.34-.83-.22-.2-.54-.3-.96-.3-.44,0-.78.1-1.04.29-.26.19-.43.43-.51.72l-2.24-.18c.11-.53.34-.99.67-1.38.33-.39.76-.69,1.29-.9.53-.21,1.14-.32,1.84-.32.48,0,.95.06,1.39.17.45.11.84.29,1.19.53.35.24.62.54.82.92.2.37.3.82.3,1.34v5.89h-2.29v-1.21h-.07c-.14.27-.33.51-.56.72-.24.21-.52.37-.85.48-.33.12-.71.17-1.14.17Zm.69-1.67c.36,0,.67-.07.94-.21s.49-.33.64-.58c.16-.24.23-.52.23-.82v-.93c-.08.05-.18.09-.31.13s-.28.08-.44.11-.33.06-.49.08c-.16.02-.31.05-.44.07-.28.04-.53.11-.74.2-.21.09-.38.21-.49.37-.12.15-.18.34-.18.57,0,.33.12.58.36.75.24.17.55.26.92.26Z"/><path class="c" d="m214.58,154.33v-1.44l4.27-5.29v-.06h-4.12v-1.93h7.04v1.57l-4.01,5.16v.06h4.16v1.93h-7.33Zm2.5-12.35l1.14,1.39,1.14-1.39h2.06v.08l-2.3,2.5h-1.8l-2.31-2.5v-.08h2.06Z"/><path class="c" d="m235.93,147.49v2.03h-7.96v-2.03h7.96Z"/><path class="c" d="m243.39,142.69v11.64h-2.46v-9.3h-.07l-2.67,1.67v-2.18l2.88-1.82h2.31Z"/><path class="c" d="m250.46,154.49c-.85,0-1.6-.15-2.26-.44-.66-.29-1.18-.7-1.56-1.22-.38-.52-.58-1.11-.59-1.79h2.48c.02.28.11.53.28.75.17.21.4.38.69.5.29.12.61.18.97.18s.71-.07.99-.2.51-.32.68-.55c.16-.24.24-.51.24-.81s-.09-.59-.26-.83c-.17-.24-.42-.43-.74-.57-.32-.14-.7-.2-1.14-.2h-1.08v-1.81h1.08c.37,0,.7-.06.99-.19.29-.13.51-.31.67-.54s.24-.5.24-.8-.07-.55-.21-.77c-.14-.22-.33-.39-.58-.52s-.54-.19-.87-.19-.64.06-.91.18c-.28.12-.5.29-.67.51s-.26.48-.27.77h-2.36c.01-.67.2-1.26.57-1.77.37-.51.87-.91,1.5-1.2.63-.29,1.34-.43,2.14-.43s1.51.15,2.11.44c.6.29,1.07.69,1.41,1.18.33.49.5,1.05.5,1.66,0,.65-.2,1.19-.61,1.63s-.94.71-1.59.83v.09c.86.11,1.51.41,1.96.89.45.48.67,1.09.67,1.81,0,.66-.19,1.25-.57,1.77-.38.52-.91.92-1.59,1.22-.67.3-1.45.44-2.32.44Z"/><path class="c" d="m260.82,145.49v-.61c0-.47.1-.9.3-1.29.2-.39.49-.71.87-.94.38-.23.84-.35,1.38-.35s1.03.12,1.41.35.67.55.86.94c.2.39.29.82.29,1.29v.61c0,.47-.1.9-.3,1.29-.2.39-.49.7-.87.93-.38.23-.85.35-1.4.35s-1.02-.12-1.4-.36-.67-.55-.86-.94c-.2-.39-.29-.82-.29-1.28Zm.75,8.84l8-11.64h1.49l-8,11.64h-1.49Zm.92-9.45v.61c0,.28.07.53.2.77.13.24.36.35.7.35s.59-.12.71-.35c.13-.23.19-.49.19-.77v-.61c0-.28-.06-.53-.18-.77-.12-.24-.36-.36-.72-.36-.34,0-.57.12-.7.36-.13.24-.19.5-.19.77Zm4.31,7.27v-.61c0-.47.1-.89.3-1.29.2-.39.49-.71.87-.94.38-.24.85-.36,1.39-.36s1.03.12,1.41.35c.38.23.67.55.86.94.2.39.29.82.29,1.29v.61c0,.47-.1.89-.3,1.29-.2.39-.49.71-.87.94-.38.24-.85.36-1.4.36s-1.02-.12-1.4-.36c-.38-.24-.67-.55-.86-.94-.2-.39-.3-.82-.3-1.29Zm1.65-.61v.61c0,.27.07.52.2.76.13.24.37.36.71.36s.58-.12.71-.35c.13-.23.19-.49.19-.77v-.61c0-.28-.06-.53-.18-.77-.12-.24-.36-.36-.72-.36s-.58.12-.71.36c-.13.24-.2.5-.2.77Z"/><path class="c" d="m167.01,102.23c-.85,0-1.6-.15-2.26-.44-.66-.29-1.18-.7-1.56-1.22-.38-.52-.58-1.11-.59-1.79h2.48c.02.28.11.53.28.75.17.21.4.38.69.5s.61.18.97.18.71-.07.99-.2c.29-.13.51-.32.68-.55.16-.23.24-.51.24-.81s-.09-.59-.26-.83c-.17-.24-.42-.43-.74-.57-.32-.14-.7-.2-1.14-.2h-1.08v-1.81h1.08c.37,0,.7-.06.99-.19.29-.13.51-.31.67-.54.16-.23.24-.5.24-.8s-.07-.55-.21-.77c-.14-.22-.33-.4-.58-.52s-.54-.19-.87-.19-.64.06-.91.18c-.28.12-.5.29-.67.51s-.26.48-.27.77h-2.36c.01-.67.2-1.26.57-1.77.37-.51.87-.91,1.5-1.2.63-.29,1.34-.43,2.14-.43s1.51.15,2.11.44c.6.29,1.07.68,1.41,1.18.33.49.5,1.05.5,1.66,0,.65-.2,1.2-.61,1.63s-.94.71-1.59.83v.09c.86.11,1.51.41,1.96.89.45.48.67,1.09.67,1.81,0,.66-.19,1.25-.57,1.77s-.91.92-1.59,1.22-1.45.44-2.32.44Z"/><path class="c" d="m173.26,102.07v-1.77l4.14-3.83c.35-.34.65-.65.89-.92.24-.27.42-.54.55-.8.12-.26.19-.55.19-.85,0-.34-.08-.64-.23-.88s-.37-.44-.64-.57c-.27-.13-.57-.2-.92-.2s-.67.07-.93.22c-.26.14-.47.35-.61.62-.14.27-.22.59-.22.96h-2.34c0-.76.17-1.42.52-1.98s.83-.99,1.45-1.3c.62-.31,1.34-.46,2.15-.46s1.56.15,2.18.44,1.1.7,1.45,1.22.52,1.11.52,1.78c0,.44-.09.87-.26,1.3-.17.43-.48.9-.92,1.42-.44.52-1.06,1.15-1.86,1.87l-1.7,1.67v.08h4.89v2.01h-8.29Z"/><path class="c" d="m190.39,95.29v1.92h-8v-1.92h8Z"/><path class="c" d="m195.64,102.23c-.85,0-1.6-.15-2.26-.44-.66-.29-1.18-.7-1.56-1.22-.38-.52-.58-1.11-.59-1.79h2.48c.02.28.11.53.28.75.17.21.4.38.69.5s.61.18.97.18.71-.07.99-.2c.29-.13.51-.32.68-.55.16-.23.24-.51.24-.81s-.09-.59-.26-.83c-.17-.24-.42-.43-.74-.57-.32-.14-.7-.2-1.14-.2h-1.08v-1.81h1.08c.37,0,.7-.06.99-.19.29-.13.51-.31.67-.54.16-.23.24-.5.24-.8s-.07-.55-.21-.77c-.14-.22-.33-.4-.58-.52s-.54-.19-.87-.19-.64.06-.91.18c-.28.12-.5.29-.67.51s-.26.48-.27.77h-2.36c.01-.67.2-1.26.57-1.77.37-.51.87-.91,1.5-1.2.63-.29,1.34-.43,2.14-.43s1.51.15,2.11.44c.6.29,1.07.68,1.41,1.18.33.49.5,1.05.5,1.66,0,.65-.2,1.2-.61,1.63s-.94.71-1.59.83v.09c.86.11,1.51.41,1.96.89.45.48.67,1.09.67,1.81,0,.66-.19,1.25-.57,1.77s-.91.92-1.59,1.22-1.45.44-2.32.44Z"/><path class="c" d="m206.14,102.23c-.8,0-1.52-.15-2.15-.44s-1.12-.7-1.49-1.22c-.37-.52-.56-1.11-.57-1.78h2.39c.03.45.22.82.57,1.1.35.28.77.42,1.26.42.39,0,.73-.09,1.03-.26.3-.17.53-.41.7-.72.17-.31.25-.66.25-1.07s-.09-.77-.26-1.08c-.17-.31-.41-.55-.71-.73-.3-.17-.65-.26-1.04-.27-.34,0-.67.07-.99.21-.32.14-.57.33-.75.57l-2.19-.39.55-6.14h7.11v2.01h-5.08l-.3,2.91h.07c.21-.29.51-.53.93-.72s.88-.28,1.39-.28c.7,0,1.33.17,1.88.49.55.33.98.78,1.3,1.35s.48,1.23.47,1.98c0,.78-.18,1.48-.54,2.09s-.88,1.08-1.53,1.43-1.41.52-2.28.52Z"/><path class="c" d="m216.31,93.23v-.61c0-.47.1-.9.3-1.29.2-.39.49-.71.87-.94.38-.23.84-.35,1.38-.35s1.03.12,1.41.35.67.55.86.94c.2.39.29.82.29,1.29v.61c0,.47-.1.9-.3,1.29-.2.39-.49.7-.87.93-.38.23-.85.35-1.4.35s-1.02-.12-1.4-.35-.67-.55-.86-.94c-.2-.39-.29-.82-.29-1.28Zm.75,8.84l8-11.64h1.49l-8,11.64h-1.49Zm.92-9.45v.61c0,.28.07.53.2.77.13.23.36.35.7.35s.59-.12.71-.35.19-.49.19-.77v-.61c0-.28-.06-.53-.18-.77-.12-.24-.36-.36-.72-.36-.34,0-.57.12-.7.36-.13.24-.19.5-.19.77Zm4.31,7.27v-.61c0-.47.1-.9.3-1.29.2-.39.49-.71.87-.94.38-.24.85-.36,1.39-.36s1.03.12,1.41.35.67.55.86.94c.2.39.29.82.29,1.29v.61c0,.47-.1.89-.3,1.29-.2.39-.49.71-.87.94s-.85.35-1.4.35-1.02-.12-1.4-.35-.67-.55-.86-.94c-.2-.39-.3-.82-.3-1.29Zm1.65-.61v.61c0,.27.07.52.2.76s.37.36.71.36.58-.12.71-.35.19-.49.19-.77v-.61c0-.28-.06-.53-.18-.77-.12-.24-.36-.36-.72-.36s-.58.12-.71.36c-.13.24-.2.5-.2.77Z"/><path class="c" d="m170.54,39.01c0,.95-.18,1.76-.54,2.43s-.85,1.18-1.47,1.53c-.62.35-1.31.53-2.08.53s-1.47-.18-2.09-.53c-.62-.35-1.1-.86-1.46-1.53-.36-.67-.54-1.48-.54-2.42s.18-1.76.54-2.43c.36-.67.85-1.18,1.46-1.53.62-.35,1.31-.53,2.09-.53s1.46.18,2.08.53c.62.35,1.11.86,1.47,1.53s.54,1.48.54,2.43Zm-1.87,0c0-.62-.09-1.14-.27-1.56s-.44-.74-.77-.96-.72-.33-1.17-.33-.83.11-1.17.33c-.33.22-.59.54-.77.96-.18.42-.28.94-.28,1.56s.09,1.14.28,1.56c.18.42.44.74.77.96.33.22.72.33,1.17.33s.84-.11,1.17-.33.59-.54.77-.96c.18-.42.27-.94.27-1.56Z"/><path class="c" d="m171.98,43.38v-6.55h1.76v1.14h.07c.12-.41.32-.71.6-.92.28-.21.61-.31.97-.31.09,0,.19,0,.29.02s.2.03.28.05v1.61c-.09-.03-.2-.05-.35-.07-.15-.02-.29-.03-.41-.03-.27,0-.5.06-.71.17-.21.12-.37.27-.49.48s-.18.44-.18.71v3.7h-1.82Z"/><path class="c" d="m177.91,35.99c-.27,0-.5-.09-.69-.27-.19-.18-.29-.4-.29-.65s.1-.47.29-.65c.19-.18.42-.27.69-.27s.5.09.69.27c.19.18.29.4.29.65s-.1.47-.29.65c-.19.18-.42.27-.69.27Zm-.91,7.39v-6.55h1.82v6.55h-1.82Z"/><path class="c" d="m183.36,43.5c-.67,0-1.25-.14-1.74-.41-.48-.27-.86-.66-1.12-1.17-.26-.5-.39-1.1-.39-1.79s.13-1.26.39-1.77c.26-.51.63-.9,1.11-1.19s1.04-.43,1.68-.43c.43,0,.83.07,1.21.21.37.14.7.34.98.62.28.28.5.62.65,1.04.16.42.23.9.23,1.46v.5h-5.53v-1.12h3.82c0-.26-.06-.49-.17-.69-.11-.2-.27-.36-.47-.48s-.43-.17-.7-.17-.52.06-.73.19c-.21.13-.38.3-.5.51-.12.21-.18.45-.18.71v1.07c0,.32.06.6.18.84.12.24.29.42.51.55s.48.19.79.19c.2,0,.39-.03.55-.09s.31-.14.43-.26c.12-.11.21-.25.27-.42l1.68.11c-.08.4-.26.75-.52,1.05s-.6.53-1.01.7c-.41.17-.89.25-1.43.25Z"/><path class="c" d="m189.47,39.59v3.78h-1.82v-6.55h1.73v1.15h.08c.14-.38.39-.68.73-.91.34-.22.75-.33,1.24-.33.45,0,.85.1,1.19.3.34.2.6.48.79.85.19.37.28.81.28,1.31v4.17h-1.82v-3.84c0-.4-.1-.71-.31-.94-.21-.23-.49-.34-.86-.34-.25,0-.46.05-.65.16-.19.1-.33.26-.43.46-.1.2-.16.44-.16.72Z"/><path class="c" d="m198.71,36.83v1.36h-3.94v-1.36h3.94Zm-3.05-1.57h1.82v6.1c0,.17.03.3.08.39.05.09.12.16.22.19.09.04.2.06.32.06.08,0,.17,0,.26-.02s.15-.03.2-.04l.29,1.35c-.09.03-.22.06-.38.1-.16.04-.36.06-.6.07-.44.02-.82-.04-1.15-.17-.33-.13-.58-.34-.76-.62s-.27-.64-.27-1.07v-6.34Z"/><path class="c" d="m201.87,43.5c-.42,0-.79-.07-1.12-.22-.33-.15-.58-.36-.77-.65-.19-.29-.28-.65-.28-1.08,0-.36.07-.67.2-.92.13-.25.32-.45.54-.6.23-.15.49-.26.79-.34s.6-.13.93-.16c.38-.04.69-.08.92-.11.23-.04.4-.09.51-.16.11-.07.16-.18.16-.31v-.03c0-.27-.08-.48-.25-.63-.17-.15-.41-.22-.72-.22-.33,0-.59.07-.78.21-.19.14-.32.32-.38.54l-1.68-.14c.09-.4.25-.74.5-1.03.25-.29.57-.52.97-.67s.86-.24,1.38-.24c.36,0,.71.04,1.05.13.33.09.63.22.89.4.26.18.46.41.62.69.15.28.23.61.23,1v4.41h-1.72v-.91h-.05c-.1.2-.25.38-.42.54-.18.15-.39.28-.63.36s-.53.13-.86.13Zm.52-1.25c.27,0,.5-.05.71-.16.2-.11.37-.25.48-.43.12-.18.17-.39.17-.62v-.69c-.06.04-.13.07-.23.1s-.21.06-.33.08c-.12.02-.24.05-.37.06-.12.02-.23.03-.33.05-.21.03-.4.08-.56.15-.16.07-.28.16-.37.27-.09.11-.13.26-.13.43,0,.25.09.44.27.56.18.13.41.19.69.19Z"/><path class="c" d="m210.04,43.5c-.67,0-1.25-.14-1.73-.43-.48-.29-.85-.68-1.11-1.19-.26-.51-.39-1.09-.39-1.76s.13-1.26.39-1.77c.26-.51.63-.9,1.11-1.19.48-.29,1.05-.43,1.71-.43.57,0,1.07.1,1.5.31.43.21.77.5,1.02.87s.39.81.41,1.32h-1.71c-.05-.33-.17-.59-.38-.79s-.48-.3-.81-.3c-.28,0-.53.08-.74.23s-.37.37-.49.66c-.12.29-.17.64-.17,1.05s.06.77.17,1.07c.12.29.28.52.49.67.21.15.46.23.74.23.21,0,.39-.04.56-.13.17-.09.3-.21.41-.37.11-.16.18-.36.21-.59h1.71c-.03.5-.16.94-.41,1.32-.24.38-.58.68-1,.89-.43.21-.93.32-1.51.32Zm-.86-9.39l.86,1.04.86-1.04h1.55v.06l-1.73,1.88h-1.35l-1.73-1.88v-.06h1.55Z"/><path class="c" d="m216.05,39.59v3.78h-1.82v-6.55h1.73v1.15h.08c.14-.38.39-.68.73-.91.34-.22.75-.33,1.24-.33.45,0,.85.1,1.19.3.34.2.6.48.79.85.19.37.28.81.28,1.31v4.17h-1.82v-3.84c0-.4-.1-.71-.31-.94-.21-.23-.49-.34-.86-.34-.25,0-.46.05-.65.16-.19.1-.33.26-.43.46-.1.2-.16.44-.16.72Z"/><path class="c" d="m221.81,43.38v-6.55h1.82v6.55h-1.82Zm.26-7.39l.9-1.94h1.68l-1.3,1.94h-1.28Z"/><path class="c" d="m162.49,57.57v-9h1.79v1.1h.08c.08-.18.2-.36.35-.54.15-.18.35-.34.6-.46s.55-.19.92-.19c.48,0,.92.12,1.32.37s.73.62.97,1.12c.24.5.36,1.12.36,1.87s-.12,1.35-.35,1.85-.55.88-.96,1.14c-.4.26-.85.39-1.35.39-.35,0-.65-.06-.9-.17-.25-.12-.45-.26-.6-.44-.16-.18-.28-.36-.36-.54h-.05v3.5h-1.82Zm1.78-5.73c0,.39.05.73.16,1.02.11.29.26.52.47.68.21.16.45.24.75.24s.54-.08.75-.25c.2-.16.36-.39.47-.68.11-.29.16-.63.16-1.01s-.05-.71-.16-1c-.11-.29-.26-.51-.46-.67-.2-.16-.46-.24-.75-.24s-.54.08-.75.23-.36.38-.47.66c-.11.29-.16.62-.16,1.01Z"/><path class="c" d="m171.3,45.85l.86,1.04.86-1.04h1.55v.06l-1.73,1.88h-1.35l-1.73-1.88v-.06h1.55Zm-1.11,9.26v-6.55h1.76v1.14h.07c.12-.41.32-.71.6-.92.28-.21.61-.31.97-.31.09,0,.19,0,.29.02s.2.03.28.05v1.61c-.09-.03-.2-.05-.35-.07-.15-.02-.29-.03-.41-.03-.27,0-.5.06-.71.17-.21.12-.37.27-.49.48s-.18.44-.18.71v3.7h-1.82Z"/><path class="c" d="m175.21,55.11v-6.55h1.82v6.55h-1.82Zm.26-7.39l.9-1.94h1.68l-1.3,1.94h-1.28Z"/><path class="c" d="m184.03,50.44l-1.66.1c-.03-.14-.09-.27-.18-.39s-.22-.21-.37-.28c-.15-.07-.33-.1-.54-.1-.28,0-.52.06-.71.18-.19.12-.29.27-.29.47,0,.16.06.29.19.4s.34.19.64.26l1.18.24c.64.13,1.11.34,1.42.63.31.29.47.67.47,1.14,0,.43-.12.81-.38,1.13-.25.32-.59.58-1.03.76-.44.18-.94.27-1.51.27-.87,0-1.56-.18-2.07-.54s-.81-.86-.9-1.48l1.79-.09c.05.26.19.47.39.6.21.14.47.21.8.21s.57-.06.77-.19c.19-.12.29-.28.3-.48,0-.16-.07-.3-.21-.41-.14-.11-.35-.19-.63-.25l-1.13-.23c-.64-.13-1.11-.35-1.42-.66-.31-.32-.47-.72-.47-1.21,0-.42.11-.78.34-1.09.23-.3.55-.54.97-.7.42-.17.9-.25,1.46-.25.83,0,1.48.17,1.95.52.48.35.75.83.83,1.43Z"/><path class="c" d="m185.43,57.57v-9h1.79v1.1h.08c.08-.18.2-.36.35-.54.15-.18.35-.34.6-.46s.55-.19.92-.19c.48,0,.92.12,1.32.37s.73.62.97,1.12c.24.5.36,1.12.36,1.87s-.12,1.35-.35,1.85-.55.88-.96,1.14c-.4.26-.85.39-1.35.39-.35,0-.65-.06-.9-.17-.25-.12-.45-.26-.6-.44-.16-.18-.28-.36-.36-.54h-.05v3.5h-1.82Zm1.78-5.73c0,.39.05.73.16,1.02.11.29.26.52.47.68.21.16.45.24.75.24s.54-.08.75-.25c.2-.16.36-.39.47-.68.11-.29.16-.63.16-1.01s-.05-.71-.16-1c-.11-.29-.26-.51-.46-.67-.2-.16-.46-.24-.75-.24s-.54.08-.75.23-.36.38-.47.66c-.11.29-.16.62-.16,1.01Z"/><path class="c" d="m196.12,55.24c-.67,0-1.25-.14-1.74-.41-.48-.27-.86-.66-1.12-1.17-.26-.5-.39-1.1-.39-1.79s.13-1.26.39-1.77c.26-.51.63-.9,1.11-1.19s1.04-.43,1.68-.43c.43,0,.83.07,1.21.21.37.14.7.34.98.62.28.28.5.62.65,1.04.16.42.23.9.23,1.46v.5h-5.53v-1.12h3.82c0-.26-.06-.49-.17-.69-.11-.2-.27-.36-.47-.48s-.43-.17-.7-.17-.52.06-.73.19c-.21.13-.38.3-.5.51-.12.21-.18.45-.18.71v1.07c0,.32.06.6.18.84.12.24.29.42.51.55s.48.19.79.19c.2,0,.39-.03.55-.09s.31-.14.43-.26c.12-.11.21-.25.27-.42l1.68.11c-.08.4-.26.75-.52,1.05s-.6.53-1.01.7c-.41.17-.89.25-1.43.25Zm-.97-9.39l.86,1.04.86-1.04h1.55v.06l-1.73,1.88h-1.35l-1.73-1.88v-.06h1.55Z"/><path class="c" d="m206.34,48.57l-2.29,6.55h-2.04l-2.29-6.55h1.92l1.36,4.68h.07l1.36-4.68h1.92Z"/><path class="c" d="m207.38,55.11v-8.73h1.82v8.73h-1.82Zm1.64-1.88v-2.18h.27l2.1-2.48h2.08l-2.82,3.29h-.43l-1.2,1.37Zm2.45,1.88l-1.93-2.85,1.21-1.28,2.84,4.13h-2.13Z"/><path class="c" d="m215.69,57.57c-.23,0-.45-.02-.65-.05-.2-.04-.37-.08-.5-.13l.41-1.35c.21.06.41.1.58.11.17,0,.32-.03.45-.12.13-.08.23-.23.31-.43l.11-.28-2.35-6.73h1.91l1.36,4.81h.07l1.37-4.81h1.92l-2.54,7.25c-.12.35-.29.66-.5.92s-.47.47-.79.61c-.32.14-.7.22-1.15.22Z"/><path class="c" d="m232.12,49.44h-1.87c-.03-.24-.1-.46-.21-.65-.11-.19-.24-.35-.41-.48-.17-.13-.35-.24-.57-.31-.21-.07-.45-.11-.7-.11-.45,0-.84.11-1.18.33-.33.22-.59.55-.78.97s-.28.94-.28,1.54.09,1.15.28,1.57c.19.42.45.74.78.96.33.22.72.32,1.16.32.25,0,.48-.03.69-.1.21-.07.4-.16.56-.29s.3-.28.41-.46c.11-.18.19-.39.23-.62h1.87c-.05.41-.17.79-.36,1.17s-.45.7-.77.99c-.32.29-.71.52-1.15.69s-.95.25-1.51.25c-.78,0-1.47-.18-2.09-.53-.61-.35-1.1-.86-1.45-1.53s-.53-1.48-.53-2.42.18-1.76.54-2.43c.36-.67.84-1.18,1.46-1.53.61-.35,1.3-.53,2.07-.53.5,0,.97.07,1.41.21.43.14.82.35,1.15.62.33.27.61.6.82,1s.35.84.41,1.35Zm-4.65-5.77l.86,1.04.86-1.04h1.55v.06l-1.73,1.88h-1.35l-1.73-1.88v-.06h1.55Z"/><path class="c" d="m233.55,55.11v-8.73h3.44c.66,0,1.22.12,1.69.35.47.23.82.56,1.07.99s.37.93.37,1.51-.12,1.08-.38,1.49-.61.73-1.08.96-1.04.33-1.71.33h-2.31v-1.48h2.01c.35,0,.64-.05.88-.15.23-.1.41-.24.52-.43.11-.19.17-.43.17-.72s-.06-.53-.17-.73c-.12-.2-.29-.35-.52-.45-.23-.1-.53-.16-.88-.16h-1.24v7.22h-1.84Zm4.71-3.97l2.17,3.97h-2.04l-2.12-3.97h1.99Z"/><path class="c" d="m38.68,133.83c-.03-.34-.18-.61-.44-.8-.26-.19-.61-.29-1.05-.29-.3,0-.55.04-.76.13-.21.08-.37.2-.47.35-.11.15-.16.32-.16.5,0,.16.03.29.1.41.07.12.17.22.3.3.13.08.28.16.44.22.17.06.35.11.54.16l.78.19c.38.08.73.2,1.05.34s.59.32.83.52c.23.21.41.45.54.73.13.28.2.6.2.97,0,.53-.14,1-.41,1.39s-.65.69-1.16.91c-.5.21-1.11.32-1.82.32s-1.32-.11-1.84-.32-.93-.54-1.22-.96-.44-.95-.46-1.58h1.79c.02.29.1.54.25.73.15.19.35.34.6.44s.54.15.85.15.58-.05.82-.14c.23-.09.41-.22.54-.38.13-.16.19-.35.19-.56,0-.2-.06-.36-.17-.49-.12-.13-.28-.25-.5-.34-.22-.09-.49-.18-.81-.26l-.95-.24c-.74-.18-1.32-.46-1.74-.84-.43-.38-.64-.89-.64-1.54,0-.53.14-.99.42-1.38.29-.4.68-.7,1.18-.92s1.07-.33,1.71-.33,1.21.11,1.7.33.86.53,1.13.92.41.85.42,1.37h-1.77Z"/><path class="c" d="m43.58,136.27v3.78h-1.82v-6.55h1.73v1.15h.08c.14-.38.39-.68.73-.91.34-.22.75-.33,1.24-.33.45,0,.85.1,1.19.3.34.2.6.48.79.85.19.37.28.81.28,1.31v4.17h-1.82v-3.84c0-.4-.1-.71-.31-.94-.21-.23-.49-.34-.86-.34-.25,0-.46.05-.65.16-.19.1-.33.26-.43.46-.1.2-.16.44-.16.72Z"/><path class="c" d="m49.23,140.05v-6.55h1.82v6.55h-1.82Zm.26-7.39l.9-1.94h1.68l-1.3,1.94h-1.28Z"/><path class="c" d="m52.46,140.05v-1.08l3.2-3.97v-.05h-3.09v-1.45h5.28v1.18l-3.01,3.87v.05h3.12v1.45h-5.5Zm1.88-9.26l.86,1.04.86-1.04h1.55v.06l-1.73,1.88h-1.35l-1.73-1.88v-.06h1.55Z"/><path class="c" d="m62.15,140.18c-.67,0-1.25-.14-1.74-.41-.48-.27-.86-.66-1.12-1.17-.26-.5-.39-1.1-.39-1.79s.13-1.26.39-1.77c.26-.51.63-.9,1.11-1.19s1.04-.43,1.68-.43c.43,0,.83.07,1.21.21.37.14.7.34.98.62.28.28.5.62.65,1.04.16.42.23.9.23,1.46v.5h-5.53v-1.12h3.82c0-.26-.06-.49-.17-.69-.11-.2-.27-.36-.47-.48s-.43-.17-.7-.17-.52.06-.73.19c-.21.13-.38.3-.5.51-.12.21-.18.45-.18.71v1.07c0,.32.06.6.18.84.12.24.29.42.51.55s.48.19.79.19c.2,0,.39-.03.55-.09s.31-.14.43-.26c.12-.11.21-.25.27-.42l1.68.11c-.08.4-.26.75-.52,1.05s-.6.53-1.01.7c-.41.17-.89.25-1.43.25Z"/><path class="c" d="m68.15,136.27v3.78h-1.82v-6.55h1.73v1.15h.08c.14-.38.39-.68.73-.91.34-.22.75-.33,1.24-.33.45,0,.85.1,1.19.3.34.2.6.48.79.85.19.37.28.81.28,1.31v4.17h-1.82v-3.84c0-.4-.1-.71-.31-.94-.21-.23-.49-.34-.86-.34-.25,0-.46.05-.65.16-.19.1-.33.26-.43.46-.1.2-.16.44-.16.72Z"/><path class="c" d="m73.8,140.05v-6.55h1.82v6.55h-1.82Zm.26-7.39l.9-1.94h1.68l-1.3,1.94h-1.28Z"/><path class="c" d="m85.29,135.37l-1.66.1c-.03-.14-.09-.27-.18-.39s-.22-.21-.37-.28c-.15-.07-.33-.1-.54-.1-.28,0-.52.06-.71.18-.19.12-.29.27-.29.47,0,.16.06.29.19.4s.34.19.64.26l1.18.24c.64.13,1.11.34,1.42.63.31.29.47.67.47,1.14,0,.43-.12.81-.38,1.13-.25.32-.59.58-1.03.76-.44.18-.94.27-1.51.27-.87,0-1.56-.18-2.07-.54s-.81-.86-.9-1.48l1.79-.09c.05.26.19.47.39.6.21.14.47.21.8.21s.57-.06.77-.19c.19-.12.29-.28.3-.48,0-.16-.07-.3-.21-.41-.14-.11-.35-.19-.63-.25l-1.13-.23c-.64-.13-1.11-.35-1.42-.66-.31-.32-.47-.72-.47-1.21,0-.42.11-.78.34-1.09.23-.3.55-.54.97-.7.42-.17.9-.25,1.46-.25.83,0,1.48.17,1.95.52.48.35.75.83.83,1.43Z"/><path class="c" d="m86.59,142.51v-9h1.79v1.1h.08c.08-.18.2-.36.35-.54.15-.18.35-.34.6-.46s.55-.19.92-.19c.48,0,.92.12,1.32.37s.73.62.97,1.12c.24.5.36,1.12.36,1.87s-.12,1.35-.35,1.85-.55.88-.96,1.14c-.4.26-.85.39-1.35.39-.35,0-.65-.06-.9-.17-.25-.12-.45-.26-.6-.44-.16-.18-.28-.36-.36-.54h-.05v3.5h-1.82Zm1.78-5.73c0,.39.05.73.16,1.02.11.29.26.52.47.68.21.16.45.24.75.24s.54-.08.75-.25c.2-.16.36-.39.47-.68.11-.29.16-.63.16-1.01s-.05-.71-.16-1c-.11-.29-.26-.51-.46-.67-.2-.16-.46-.24-.75-.24s-.54.08-.75.23-.36.38-.47.66c-.11.29-.16.62-.16,1.01Z"/><path class="c" d="m97.13,140.18c-.66,0-1.23-.14-1.71-.42-.48-.28-.85-.68-1.11-1.18-.26-.51-.39-1.1-.39-1.77s.13-1.27.39-1.77c.26-.51.63-.9,1.11-1.18s1.05-.42,1.71-.42,1.23.14,1.72.42c.48.28.85.68,1.11,1.18.26.51.39,1.1.39,1.77s-.13,1.26-.39,1.77c-.26.51-.63.9-1.11,1.18-.48.28-1.05.42-1.72.42Zm0-1.41c.3,0,.55-.09.75-.26.2-.17.35-.41.46-.71.1-.3.16-.64.16-1.02s-.05-.72-.16-1.02c-.1-.3-.26-.53-.46-.71-.2-.17-.45-.26-.75-.26s-.56.09-.76.26-.36.41-.46.71-.16.64-.16,1.02.05.72.16,1.02c.1.3.26.53.46.71s.46.26.76.26Z"/><path class="c" d="m105.02,133.51v1.36h-3.94v-1.36h3.94Zm-3.05-1.57h1.82v6.1c0,.17.03.3.08.39.05.09.12.16.22.19.09.04.2.06.32.06.08,0,.17,0,.26-.02s.15-.03.2-.04l.29,1.35c-.09.03-.22.06-.38.1-.16.04-.36.06-.6.07-.44.02-.82-.04-1.15-.17-.33-.13-.58-.34-.76-.62s-.27-.64-.27-1.07v-6.34Z"/><path class="c" d="m107.31,130.79l.86,1.04.86-1.04h1.55v.06l-1.73,1.88h-1.35l-1.73-1.88v-.06h1.55Zm-1.11,9.26v-6.55h1.76v1.14h.07c.12-.41.32-.71.6-.92.28-.21.61-.31.97-.31.09,0,.19,0,.29.02s.2.03.28.05v1.61c-.09-.03-.2-.05-.35-.07-.15-.02-.29-.03-.41-.03-.27,0-.5.06-.71.17-.21.12-.37.27-.49.48s-.18.44-.18.71v3.7h-1.82Z"/><path class="c" d="m113.78,140.18c-.67,0-1.25-.14-1.74-.41-.48-.27-.86-.66-1.12-1.17-.26-.5-.39-1.1-.39-1.79s.13-1.26.39-1.77c.26-.51.63-.9,1.11-1.19s1.04-.43,1.68-.43c.43,0,.83.07,1.21.21.37.14.7.34.98.62.28.28.5.62.65,1.04.16.42.23.9.23,1.46v.5h-5.53v-1.12h3.82c0-.26-.06-.49-.17-.69-.11-.2-.27-.36-.47-.48s-.43-.17-.7-.17-.52.06-.73.19c-.21.13-.38.3-.5.51-.12.21-.18.45-.18.71v1.07c0,.32.06.6.18.84.12.24.29.42.51.55s.48.19.79.19c.2,0,.39-.03.55-.09s.31-.14.43-.26c.12-.11.21-.25.27-.42l1.68.11c-.08.4-.26.75-.52,1.05s-.6.53-1.01.7c-.41.17-.89.25-1.43.25Z"/><path class="c" d="m118,140.05v-8.73h1.82v3.28h.05c.08-.18.2-.36.35-.54.15-.18.35-.34.6-.46.25-.12.55-.19.92-.19.48,0,.92.12,1.32.37s.73.62.97,1.12c.24.5.36,1.12.36,1.87s-.12,1.35-.35,1.85-.55.88-.95,1.14c-.4.26-.85.39-1.35.39-.35,0-.65-.06-.9-.17-.25-.12-.45-.26-.6-.44-.16-.18-.28-.36-.36-.54h-.08v1.05h-1.79Zm1.78-3.27c0,.39.05.73.16,1.02.11.29.26.52.47.68.21.16.45.24.75.24s.54-.08.75-.25c.2-.16.36-.39.47-.68.11-.29.16-.63.16-1.01s-.05-.71-.16-1c-.11-.29-.26-.51-.46-.67-.2-.16-.46-.24-.75-.24s-.54.08-.75.23-.36.38-.47.66c-.11.29-.16.62-.16,1.01Z"/><path class="c" d="m126.5,142.51c-.23,0-.45-.02-.65-.05-.2-.04-.37-.08-.5-.13l.41-1.35c.21.06.41.1.58.11.17,0,.32-.03.45-.12.13-.08.23-.23.31-.43l.11-.28-2.35-6.73h1.91l1.36,4.81h.07l1.37-4.81h1.92l-2.54,7.25c-.12.35-.29.66-.5.92s-.47.47-.79.61c-.32.14-.7.22-1.15.22Z"/><path class="b" d="m23.52,151.93c-.63,0-1.17-.14-1.63-.42s-.81-.67-1.05-1.18c-.25-.5-.37-1.09-.37-1.76s.12-1.26.37-1.77c.25-.51.59-.91,1.03-1.2.44-.29.96-.43,1.55-.43.34,0,.68.06,1.01.17.33.11.63.3.91.55.27.25.49.59.65,1.01.16.42.24.93.24,1.54v.43h-5.05v-.87h4.02c0-.37-.07-.7-.22-.99-.15-.29-.35-.52-.62-.69-.27-.17-.58-.25-.95-.25-.4,0-.75.1-1.04.3-.29.2-.51.45-.67.77-.16.32-.23.65-.23,1.01v.58c0,.49.09.91.26,1.26s.41.6.72.78c.31.18.66.27,1.07.27.26,0,.5-.04.72-.11s.4-.19.56-.34c.16-.15.28-.34.36-.57l.97.27c-.1.33-.27.62-.52.87s-.54.44-.89.58-.75.21-1.2.21Z"/><path class="b" d="m28.76,147.85v3.94h-1v-6.55h.97v1.02h.09c.15-.33.39-.6.7-.8s.72-.3,1.21-.3c.44,0,.83.09,1.16.27.33.18.59.45.78.82.18.37.28.83.28,1.38v4.16h-1.01v-4.09c0-.51-.13-.92-.4-1.2-.27-.29-.63-.43-1.1-.43-.32,0-.61.07-.86.21-.25.14-.45.34-.59.61s-.22.59-.22.97Z"/><path class="b" d="m37.53,151.93c-.63,0-1.17-.14-1.63-.42s-.81-.67-1.05-1.18c-.25-.5-.37-1.09-.37-1.76s.12-1.26.37-1.77c.25-.51.59-.91,1.03-1.2.44-.29.96-.43,1.55-.43.34,0,.68.06,1.01.17.33.11.63.3.91.55.27.25.49.59.65,1.01.16.42.24.93.24,1.54v.43h-5.05v-.87h4.02c0-.37-.07-.7-.22-.99-.15-.29-.35-.52-.62-.69-.27-.17-.58-.25-.95-.25-.4,0-.75.1-1.04.3-.29.2-.51.45-.67.77-.16.32-.23.65-.23,1.01v.58c0,.49.09.91.26,1.26s.41.6.72.78c.31.18.66.27,1.07.27.26,0,.5-.04.72-.11s.4-.19.56-.34c.16-.15.28-.34.36-.57l.97.27c-.1.33-.27.62-.52.87s-.54.44-.89.58-.75.21-1.2.21Z"/><path class="b" d="m41.77,151.79v-6.55h.97v.99h.07c.12-.32.33-.59.65-.79.31-.2.66-.3,1.06-.3.07,0,.17,0,.28,0,.11,0,.2,0,.25.01v1.02s-.11-.02-.23-.04-.25-.03-.38-.03c-.32,0-.6.07-.85.2-.25.13-.44.31-.59.55s-.22.5-.22.79v4.14h-1Z"/><path class="b" d="m48.67,154.38c-.49,0-.9-.06-1.25-.19-.35-.12-.64-.29-.87-.49-.23-.2-.42-.41-.55-.64l.8-.56c.09.12.21.26.34.41.14.15.33.29.57.4.24.12.56.17.96.17.53,0,.96-.13,1.31-.38.34-.26.52-.66.52-1.2v-1.33h-.09c-.07.12-.18.27-.31.44-.14.17-.33.33-.58.46-.25.13-.59.2-1.02.2-.53,0-1-.12-1.42-.38s-.75-.61-.99-1.09c-.24-.48-.36-1.06-.36-1.74s.12-1.26.35-1.75c.24-.5.56-.88.98-1.16.42-.27.91-.41,1.46-.41.43,0,.76.07,1.02.21.25.14.44.3.58.48s.24.32.31.44h.1v-1.04h.97v6.73c0,.56-.13,1.02-.38,1.37-.25.35-.6.61-1.02.78-.43.17-.9.25-1.43.25Zm-.03-3.6c.4,0,.74-.09,1.02-.28s.49-.45.64-.8c.14-.35.22-.76.22-1.24s-.07-.89-.21-1.25c-.14-.36-.35-.64-.63-.85s-.62-.31-1.03-.31-.78.11-1.06.32c-.28.22-.49.51-.63.87-.14.36-.21.77-.21,1.21s.07.86.22,1.2c.14.35.36.62.64.82.28.2.63.3,1.05.3Z"/><path class="b" d="m53.86,144.15c-.2,0-.36-.07-.5-.2-.14-.13-.21-.29-.21-.48s.07-.35.21-.48c.14-.13.31-.2.5-.2s.36.07.5.2c.14.13.21.29.21.48s-.07.35-.21.48c-.14.13-.31.2-.5.2Zm-.51,7.64v-6.55h1v6.55h-1Z"/><path class="b" d="m58.94,151.93c-.63,0-1.17-.14-1.63-.42s-.81-.67-1.05-1.18c-.25-.5-.37-1.09-.37-1.76s.12-1.26.37-1.77c.25-.51.59-.91,1.03-1.2.44-.29.96-.43,1.55-.43.34,0,.68.06,1.01.17.33.11.63.3.91.55.27.25.49.59.65,1.01.16.42.24.93.24,1.54v.43h-5.05v-.87h4.02c0-.37-.07-.7-.22-.99-.15-.29-.35-.52-.62-.69-.27-.17-.58-.25-.95-.25-.4,0-.75.1-1.04.3-.29.2-.51.45-.67.77-.16.32-.23.65-.23,1.01v.58c0,.49.09.91.26,1.26s.41.6.72.78c.31.18.66.27,1.07.27.26,0,.5-.04.72-.11s.4-.19.56-.34c.16-.15.28-.34.36-.57l.97.27c-.1.33-.27.62-.52.87s-.54.44-.89.58-.75.21-1.2.21Z"/><path class="b" d="m71.91,145.24l-2.42,6.55h-1.02l-2.42-6.55h1.09l1.81,5.22h.07l1.81-5.22h1.09Z"/><path class="b" d="m76.61,154.24v-9h.97v1.04h.12c.07-.11.18-.26.31-.44s.32-.34.57-.48c.25-.14.59-.21,1.01-.21.55,0,1.04.14,1.46.41.42.28.75.67.98,1.17.24.51.35,1.1.35,1.79s-.12,1.29-.35,1.8c-.24.51-.56.9-.98,1.18-.42.28-.9.42-1.44.42-.42,0-.76-.07-1.01-.21s-.45-.3-.58-.48c-.14-.18-.24-.33-.32-.45h-.09v3.46h-1Zm.99-5.73c0,.49.07.93.22,1.31.15.38.36.67.64.88.28.21.62.32,1.02.32s.77-.11,1.05-.33c.28-.22.5-.52.64-.9.14-.38.22-.8.22-1.27s-.07-.88-.21-1.25c-.14-.37-.35-.67-.63-.88-.28-.22-.64-.33-1.06-.33s-.75.1-1.03.31c-.28.21-.49.49-.63.86-.14.37-.21.8-.21,1.28Z"/><path class="b" d="m86.58,151.93c-.59,0-1.11-.14-1.55-.42s-.79-.67-1.04-1.18c-.25-.51-.37-1.1-.37-1.77s.12-1.28.37-1.79c.25-.51.6-.9,1.04-1.19s.96-.42,1.55-.42,1.11.14,1.55.42.79.68,1.04,1.19c.25.51.37,1.1.37,1.79s-.12,1.27-.37,1.77c-.25.51-.6.9-1.04,1.18s-.96.42-1.55.42Zm0-.9c.45,0,.82-.12,1.11-.35s.5-.53.64-.91c.14-.38.21-.78.21-1.22s-.07-.85-.21-1.22c-.14-.38-.35-.68-.64-.92s-.66-.35-1.11-.35-.82.12-1.11.35-.5.54-.64.92c-.14.38-.21.79-.21,1.22s.07.84.21,1.22c.14.38.35.68.64.91s.66.35,1.11.35Z"/><path class="b" d="m91.08,151.79v-6.55h.97v.99h.07c.12-.32.33-.59.65-.79.31-.2.66-.3,1.06-.3.07,0,.17,0,.28,0,.11,0,.2,0,.25.01v1.02s-.11-.02-.23-.04-.25-.03-.38-.03c-.32,0-.6.07-.85.2-.25.13-.44.31-.59.55s-.22.5-.22.79v4.14h-1Z"/><path class="b" d="m98,151.93c-.59,0-1.11-.14-1.55-.42s-.79-.67-1.04-1.18c-.25-.51-.37-1.1-.37-1.77s.12-1.28.37-1.79c.25-.51.6-.9,1.04-1.19s.96-.42,1.55-.42,1.11.14,1.55.42.79.68,1.04,1.19c.25.51.37,1.1.37,1.79s-.12,1.27-.37,1.77c-.25.51-.6.9-1.04,1.18s-.96.42-1.55.42Zm0-.9c.45,0,.82-.12,1.11-.35s.5-.53.64-.91c.14-.38.21-.78.21-1.22s-.07-.85-.21-1.22c-.14-.38-.35-.68-.64-.92s-.66-.35-1.11-.35-.82.12-1.11.35-.5.54-.64.92c-.14.38-.21.79-.21,1.22s.07.84.21,1.22c.14.38.35.68.64.91s.66.35,1.11.35Z"/><path class="b" d="m107.62,145.24l-2.42,6.55h-1.02l-2.42-6.55h1.09l1.81,5.22h.07l1.81-5.22h1.09Z"/><path class="b" d="m109.95,147.85v3.94h-1v-6.55h.97v1.02h.09c.15-.33.39-.6.7-.8s.72-.3,1.21-.3c.44,0,.83.09,1.16.27.33.18.59.45.78.82.18.37.28.83.28,1.38v4.16h-1.01v-4.09c0-.51-.13-.92-.4-1.2-.27-.29-.63-.43-1.1-.43-.32,0-.61.07-.86.21-.25.14-.45.34-.59.61s-.22.59-.22.97Z"/><path class="b" d="m117.89,151.94c-.42,0-.79-.08-1.13-.24-.34-.16-.61-.39-.81-.69-.2-.3-.3-.66-.3-1.09,0-.38.07-.68.22-.91s.35-.42.59-.55c.25-.13.52-.23.82-.3.3-.07.6-.12.91-.16.4-.05.72-.09.97-.12.25-.03.43-.07.54-.14.12-.07.17-.18.17-.34v-.03c0-.42-.11-.75-.34-.98s-.58-.35-1.04-.35-.86.1-1.13.31c-.27.21-.46.44-.58.67l-.96-.34c.17-.4.4-.71.68-.93.29-.22.6-.38.94-.47.34-.09.67-.13,1-.13.21,0,.45.02.73.07.27.05.54.15.8.3.26.15.47.39.64.69.17.31.26.72.26,1.24v4.31h-1.01v-.89h-.05c-.07.14-.18.29-.34.46-.16.16-.37.3-.64.41-.26.11-.59.17-.97.17Zm.15-.9c.4,0,.73-.08,1.01-.23s.48-.36.62-.6.21-.51.21-.78v-.92c-.04.05-.14.1-.28.14-.14.04-.31.08-.49.11-.19.03-.37.06-.54.08-.17.02-.32.04-.42.05-.26.03-.5.09-.73.16-.23.08-.41.19-.54.34s-.21.35-.21.61c0,.35.13.61.39.79.26.18.59.27.99.27Zm.03-6.68l1.04-1.98h1.18l-1.33,1.98h-.89Z"/><path class="b" d="m123.74,147.85v3.94h-1v-6.55h.97v1.02h.09c.15-.33.39-.6.7-.8s.72-.3,1.21-.3c.44,0,.83.09,1.16.27.33.18.59.45.78.82.18.37.28.83.28,1.38v4.16h-1.01v-4.09c0-.51-.13-.92-.4-1.2-.27-.29-.63-.43-1.1-.43-.32,0-.61.07-.86.21-.25.14-.45.34-.59.61s-.22.59-.22.97Z"/><path class="b" d="m129.76,151.79v-6.55h1v6.55h-1Zm.05-7.43l1.04-1.98h1.18l-1.33,1.98h-.89Z"/><path class="b" d="m60.03,158.45l-.9.25c-.06-.15-.14-.3-.25-.44s-.26-.26-.45-.36-.43-.14-.72-.14c-.4,0-.73.09-1,.28-.27.18-.4.42-.4.7,0,.25.09.45.27.59.18.14.47.27.85.36l.97.24c.58.14,1.02.36,1.31.65.29.29.43.67.43,1.12,0,.38-.11.71-.32,1.01-.21.3-.51.53-.9.7-.38.17-.83.26-1.34.26-.67,0-1.22-.15-1.66-.43-.44-.29-.71-.71-.83-1.27l.95-.24c.09.35.26.62.52.79.25.18.59.26,1,.26.47,0,.84-.1,1.12-.3.28-.2.42-.44.42-.72,0-.23-.08-.42-.24-.57-.16-.16-.4-.27-.73-.35l-1.09-.26c-.6-.14-1.04-.36-1.32-.66-.28-.3-.42-.68-.42-1.13,0-.37.1-.7.31-.98s.49-.51.86-.67.77-.24,1.23-.24c.65,0,1.16.14,1.53.43.37.28.63.66.79,1.12Z"/><path class="b" d="m65.04,163.53v-6.55h.97v.99h.07c.12-.32.33-.59.65-.79.31-.2.66-.3,1.06-.3.07,0,.17,0,.28,0,.11,0,.2,0,.25.01v1.02s-.11-.02-.23-.04-.25-.03-.38-.03c-.32,0-.6.07-.85.2-.25.13-.44.31-.59.54s-.22.5-.22.79v4.14h-1Z"/><path class="b" d="m72.04,163.67c-.63,0-1.17-.14-1.63-.42-.46-.28-.81-.67-1.05-1.18-.25-.5-.37-1.09-.37-1.76s.12-1.26.37-1.77c.25-.51.59-.91,1.03-1.2.44-.29.96-.43,1.55-.43.34,0,.68.06,1.01.17.33.11.63.3.91.55.27.25.49.59.65,1.01.16.42.24.93.24,1.54v.43h-5.05v-.87h4.02c0-.37-.07-.7-.22-.99-.15-.29-.35-.52-.62-.69-.27-.17-.58-.25-.95-.25-.4,0-.75.1-1.04.3-.29.2-.51.45-.67.77s-.23.65-.23,1.01v.58c0,.49.09.91.26,1.25.17.34.41.6.72.78.31.18.66.27,1.07.27.26,0,.5-.04.72-.11s.4-.19.56-.34c.16-.15.28-.34.36-.57l.97.27c-.1.33-.27.62-.52.87-.24.25-.54.44-.89.58s-.75.21-1.2.21Z"/><path class="b" d="m79.2,156.98v.85h-3.53v-.85h3.53Zm-2.47,6.55v-7.45c0-.38.09-.69.26-.94.18-.25.4-.44.69-.56s.58-.19.89-.19c.25,0,.45.02.61.06s.27.08.35.11l-.29.87c-.05-.02-.12-.04-.21-.06-.09-.03-.21-.04-.35-.04-.33,0-.57.08-.72.25-.15.17-.22.41-.22.74v7.21h-1.01Z"/><path class="b" d="m83.09,163.67c-.63,0-1.17-.14-1.63-.42-.46-.28-.81-.67-1.05-1.18-.25-.5-.37-1.09-.37-1.76s.12-1.26.37-1.77c.25-.51.59-.91,1.03-1.2.44-.29.96-.43,1.55-.43.34,0,.68.06,1.01.17.33.11.63.3.91.55.27.25.49.59.65,1.01.16.42.24.93.24,1.54v.43h-5.05v-.87h4.02c0-.37-.07-.7-.22-.99-.15-.29-.35-.52-.62-.69-.27-.17-.58-.25-.95-.25-.4,0-.75.1-1.04.3-.29.2-.51.45-.67.77s-.23.65-.23,1.01v.58c0,.49.09.91.26,1.25.17.34.41.6.72.78.31.18.66.27,1.07.27.26,0,.5-.04.72-.11s.4-.19.56-.34c.16-.15.28-.34.36-.57l.97.27c-.1.33-.27.62-.52.87-.24.25-.54.44-.89.58s-.75.21-1.2.21Z"/><path class="b" d="m87.33,163.53v-6.55h.97v.99h.07c.12-.32.33-.59.65-.79.31-.2.66-.3,1.06-.3.07,0,.17,0,.28,0,.11,0,.2,0,.25.01v1.02s-.11-.02-.23-.04-.25-.03-.38-.03c-.32,0-.6.07-.85.2-.25.13-.44.31-.59.54s-.22.5-.22.79v4.14h-1Z"/><path class="b" d="m94.34,163.67c-.63,0-1.17-.14-1.63-.42-.46-.28-.81-.67-1.05-1.18-.25-.5-.37-1.09-.37-1.76s.12-1.26.37-1.77c.25-.51.59-.91,1.03-1.2.44-.29.96-.43,1.55-.43.34,0,.68.06,1.01.17.33.11.63.3.91.55.27.25.49.59.65,1.01.16.42.24.93.24,1.54v.43h-5.05v-.87h4.02c0-.37-.07-.7-.22-.99-.15-.29-.35-.52-.62-.69-.27-.17-.58-.25-.95-.25-.4,0-.75.1-1.04.3-.29.2-.51.45-.67.77s-.23.65-.23,1.01v.58c0,.49.09.91.26,1.25.17.34.41.6.72.78.31.18.66.27,1.07.27.26,0,.5-.04.72-.11s.4-.19.56-.34c.16-.15.28-.34.36-.57l.97.27c-.1.33-.27.62-.52.87-.24.25-.54.44-.89.58s-.75.21-1.2.21Z"/><path class="b" d="m99.59,159.59v3.94h-1v-6.55h.97v1.02h.09c.15-.33.39-.6.7-.8s.72-.3,1.21-.3c.44,0,.83.09,1.16.27.33.18.59.45.78.82s.28.83.28,1.38v4.16h-1.01v-4.09c0-.51-.13-.92-.4-1.2-.27-.29-.63-.43-1.1-.43-.32,0-.61.07-.86.21-.25.14-.45.34-.59.61-.14.27-.22.59-.22.97Z"/><path class="b" d="m108.26,163.67c-.61,0-1.14-.15-1.58-.43-.44-.29-.78-.69-1.02-1.2-.24-.51-.36-1.09-.36-1.74s.12-1.25.37-1.76c.25-.51.59-.91,1.03-1.2.44-.29.96-.43,1.55-.43.46,0,.88.08,1.24.26s.67.41.91.72c.24.31.38.67.44,1.07h-1.01c-.08-.3-.25-.56-.51-.79s-.62-.35-1.06-.35c-.39,0-.73.1-1.03.3s-.52.49-.69.86c-.16.37-.25.8-.25,1.29s.08.95.24,1.32c.16.38.39.67.68.87.29.21.64.31,1.04.31.26,0,.5-.05.71-.14s.39-.22.54-.39c.15-.17.25-.38.32-.61h1.01c-.06.39-.2.73-.42,1.04-.22.31-.52.55-.88.73-.37.18-.79.27-1.27.27Zm-.92-9.31l.89,1.19.89-1.19h.96v.07l-1.38,1.77h-.92l-1.38-1.77v-.07h.96Z"/><path class="b" d="m113.31,159.59v3.94h-1v-6.55h.97v1.02h.09c.15-.33.39-.6.7-.8s.72-.3,1.21-.3c.44,0,.83.09,1.16.27.33.18.59.45.78.82s.28.83.28,1.38v4.16h-1.01v-4.09c0-.51-.13-.92-.4-1.2-.27-.29-.63-.43-1.1-.43-.32,0-.61.07-.86.21-.25.14-.45.34-.59.61-.14.27-.22.59-.22.97Z"/><path class="b" d="m119.33,163.53v-6.55h1v6.55h-1Zm.05-7.43l1.04-1.98h1.18l-1.33,1.98h-.89Z"/><path class="b" d="m122.17,163.53v-6.55h.97v1.02h.09c.14-.35.36-.62.66-.82s.67-.29,1.1-.29.79.1,1.08.29c.29.19.51.47.67.82h.07c.17-.34.42-.61.75-.81.33-.2.74-.3,1.21-.3.59,0,1.06.18,1.44.55s.56.93.56,1.7v4.38h-1.01v-4.38c0-.48-.13-.83-.4-1.04s-.58-.31-.93-.31c-.46,0-.82.14-1.07.42-.25.28-.38.63-.38,1.05v4.26h-1.02v-4.48c0-.37-.12-.67-.36-.9-.24-.23-.55-.34-.93-.34-.26,0-.5.07-.73.21-.23.14-.41.33-.55.58-.14.25-.21.53-.21.85v4.09h-1Z"/><path class="b" d="m7,170.19l-.9.25c-.06-.15-.14-.3-.25-.44s-.26-.26-.45-.36-.43-.14-.72-.14c-.4,0-.73.09-1,.28-.27.18-.4.42-.4.7,0,.25.09.45.27.59.18.14.47.27.85.36l.97.24c.58.14,1.02.36,1.31.65.29.29.43.67.43,1.12,0,.38-.11.71-.32,1.01-.21.3-.51.53-.9.7-.38.17-.83.26-1.34.26-.67,0-1.22-.15-1.66-.43-.44-.29-.71-.71-.83-1.27l.95-.24c.09.35.26.62.52.79.25.18.59.26,1,.26.47,0,.84-.1,1.12-.3.28-.2.42-.44.42-.72,0-.23-.08-.42-.24-.57-.16-.16-.4-.27-.73-.35l-1.09-.26c-.6-.14-1.04-.36-1.32-.66-.28-.3-.42-.68-.42-1.13,0-.37.1-.7.31-.98s.49-.51.86-.67.77-.24,1.23-.24c.65,0,1.16.14,1.53.43.37.28.63.66.79,1.12Z"/><path class="b" d="m11.16,175.4c-.61,0-1.14-.15-1.58-.43-.44-.29-.78-.69-1.02-1.2-.24-.51-.36-1.09-.36-1.74s.12-1.25.37-1.76c.25-.51.59-.91,1.03-1.2.44-.29.96-.43,1.55-.43.46,0,.88.08,1.24.26s.67.41.91.72c.24.31.38.67.44,1.07h-1.01c-.08-.3-.25-.56-.51-.79s-.62-.35-1.06-.35c-.39,0-.73.1-1.03.3s-.52.49-.69.86c-.16.37-.25.8-.25,1.29s.08.95.24,1.32c.16.38.39.67.68.87s.64.31,1.04.31c.26,0,.5-.05.71-.14s.39-.22.54-.39c.15-.17.25-.38.32-.61h1.01c-.06.39-.2.73-.42,1.04-.22.31-.52.55-.88.73-.37.18-.79.27-1.27.27Z"/><path class="b" d="m17.81,175.4c-.63,0-1.17-.14-1.63-.42-.46-.28-.81-.67-1.05-1.18-.25-.5-.37-1.09-.37-1.76s.12-1.26.37-1.77c.25-.51.59-.91,1.03-1.2.44-.29.96-.43,1.55-.43.34,0,.68.06,1.01.17.33.11.63.3.91.55.27.25.49.59.65,1.01.16.42.24.93.24,1.54v.43h-5.05v-.87h4.02c0-.37-.07-.7-.22-.99-.15-.29-.35-.52-.62-.69-.27-.17-.58-.25-.95-.25-.4,0-.75.1-1.04.3-.29.2-.51.45-.67.77s-.23.65-.23,1.01v.58c0,.49.09.91.26,1.25.17.34.41.6.72.78.31.18.66.27,1.07.27.26,0,.5-.04.72-.11s.4-.19.56-.34c.16-.15.28-.34.36-.57l.97.27c-.1.33-.27.62-.52.87-.24.25-.54.44-.89.58s-.75.21-1.2.21Zm-.61-7.57l1.04-1.98h1.18l-1.33,1.98h-.89Z"/><path class="b" d="m22.92,171.33v3.94h-1v-6.55h.97v1.02h.09c.15-.33.39-.6.7-.8s.72-.3,1.21-.3c.44,0,.83.09,1.16.27.33.18.59.45.78.82s.28.83.28,1.38v4.16h-1.01v-4.09c0-.51-.13-.92-.4-1.2-.27-.29-.63-.43-1.1-.43-.32,0-.61.07-.86.21-.25.14-.45.34-.59.61-.14.27-.22.59-.22.97Z"/><path class="b" d="m30.73,175.42c-.42,0-.79-.08-1.13-.24-.34-.16-.61-.39-.81-.69-.2-.3-.3-.66-.3-1.09,0-.38.07-.68.22-.91s.35-.42.59-.55c.25-.13.52-.23.82-.3.3-.07.6-.12.91-.16.4-.05.72-.09.97-.12.25-.03.43-.07.54-.14.12-.07.17-.18.17-.34v-.03c0-.42-.11-.75-.34-.98-.23-.23-.58-.35-1.04-.35s-.86.1-1.13.32c-.27.21-.46.43-.58.67l-.96-.34c.17-.4.4-.71.68-.93.29-.22.6-.38.94-.47.34-.09.67-.13,1-.13.21,0,.45.03.73.08.27.05.54.15.8.3.26.15.47.38.64.69.17.31.26.72.26,1.24v4.31h-1.01v-.89h-.05c-.07.14-.18.29-.34.46s-.37.3-.64.41c-.26.11-.59.17-.97.17Zm.15-.9c.4,0,.73-.08,1.01-.23s.48-.36.62-.61.21-.51.21-.78v-.92c-.04.05-.14.1-.28.14s-.31.08-.49.11c-.19.03-.37.06-.54.08s-.32.04-.42.05c-.26.03-.5.09-.73.16-.23.08-.41.19-.54.34s-.21.35-.21.61c0,.35.13.61.39.79.26.18.59.27.99.27Zm.03-6.68l1.04-1.98h1.18l-1.33,1.98h-.89Z"/><path class="b" d="m36.1,166.1l.89,1.19.89-1.19h.95v.07l-1.38,1.77h-.92l-1.38-1.77v-.07h.95Zm-.66,9.17v-6.55h.97v.99h.07c.12-.32.33-.59.65-.79.31-.2.66-.3,1.06-.3.07,0,.17,0,.28,0,.11,0,.2,0,.25.01v1.02s-.11-.02-.23-.04-.25-.03-.38-.03c-.32,0-.6.07-.85.2-.25.13-.44.31-.59.54s-.22.5-.22.79v4.14h-1Z"/><path class="b" d="m42.31,175.4c-.63,0-1.17-.14-1.63-.42-.46-.28-.81-.67-1.05-1.18-.25-.5-.37-1.09-.37-1.76s.12-1.26.37-1.77c.25-.51.59-.91,1.03-1.2.44-.29.96-.43,1.55-.43.34,0,.68.06,1.01.17.33.11.63.3.91.55.27.25.49.59.65,1.01.16.42.24.93.24,1.54v.43h-5.05v-.87h4.02c0-.37-.07-.7-.22-.99-.15-.29-.35-.52-.62-.69-.27-.17-.58-.25-.95-.25-.4,0-.75.1-1.04.3-.29.2-.51.45-.67.77s-.23.65-.23,1.01v.58c0,.49.09.91.26,1.25.17.34.41.6.72.78.31.18.66.27,1.07.27.26,0,.5-.04.72-.11s.4-.19.56-.34c.16-.15.28-.34.36-.57l.97.27c-.1.33-.27.62-.52.87-.24.25-.54.44-.89.58s-.75.21-1.2.21Z"/><path class="b" d="m46.41,175.27v-6.55h.97v1.02h.09c.14-.35.36-.62.66-.82s.67-.29,1.1-.29.79.1,1.08.29c.29.19.51.47.67.82h.07c.17-.34.42-.61.75-.81.33-.2.74-.3,1.21-.3.59,0,1.06.18,1.44.55s.56.93.56,1.7v4.38h-1.01v-4.38c0-.48-.13-.83-.4-1.04s-.58-.31-.93-.31c-.46,0-.82.14-1.07.42-.25.28-.38.63-.38,1.05v4.26h-1.02v-4.48c0-.37-.12-.67-.36-.9-.24-.23-.55-.34-.93-.34-.26,0-.5.07-.73.21-.23.14-.41.33-.55.58-.14.25-.21.53-.21.85v4.09h-1Z"/><path class="b" d="m60.22,177.72v-9h.97v1.04h.12c.07-.11.18-.26.31-.44s.32-.34.57-.48c.25-.14.59-.21,1.01-.21.55,0,1.04.14,1.46.41.42.28.75.67.98,1.17.24.51.35,1.1.35,1.79s-.12,1.29-.35,1.8c-.24.51-.56.9-.98,1.18-.42.28-.9.42-1.44.42-.42,0-.76-.07-1.01-.21s-.45-.3-.58-.48c-.14-.18-.24-.33-.32-.45h-.09v3.46h-1Zm.99-5.73c0,.49.07.93.22,1.31.15.38.36.67.64.88.28.21.62.32,1.02.32s.77-.11,1.05-.33c.28-.22.5-.52.64-.9.14-.38.22-.8.22-1.27s-.07-.88-.21-1.25c-.14-.37-.35-.66-.63-.88-.28-.22-.64-.33-1.06-.33s-.75.1-1.03.31-.49.49-.63.86c-.14.37-.21.8-.21,1.29Z"/><path class="b" d="m67.4,175.27v-6.55h.97v.99h.07c.12-.32.33-.59.65-.79.31-.2.66-.3,1.06-.3.07,0,.17,0,.28,0,.11,0,.2,0,.25.01v1.02s-.11-.02-.23-.04-.25-.03-.38-.03c-.32,0-.6.07-.85.2-.25.13-.44.31-.59.54s-.22.5-.22.79v4.14h-1Z"/><path class="b" d="m74.18,175.4c-.59,0-1.11-.14-1.55-.42s-.79-.67-1.04-1.18c-.25-.51-.37-1.1-.37-1.77s.12-1.28.37-1.79c.25-.51.6-.9,1.04-1.18s.96-.42,1.55-.42,1.11.14,1.55.42.79.68,1.04,1.18c.25.51.37,1.1.37,1.79s-.12,1.27-.37,1.77c-.25.51-.6.9-1.04,1.18s-.96.42-1.55.42Zm0-.9c.45,0,.82-.12,1.11-.35s.5-.53.64-.91c.14-.38.21-.78.21-1.22s-.07-.85-.21-1.22c-.14-.38-.35-.68-.64-.92-.29-.23-.66-.35-1.11-.35s-.82.12-1.11.35c-.29.23-.5.54-.64.92-.14.38-.21.79-.21,1.22s.07.84.21,1.22c.14.38.35.68.64.91s.66.35,1.11.35Z"/><path class="b" d="m82.06,175.27v-6.55h.97v.99h.07c.12-.32.33-.59.65-.79.31-.2.66-.3,1.06-.3.07,0,.17,0,.28,0,.11,0,.2,0,.25.01v1.02s-.11-.02-.23-.04-.25-.03-.38-.03c-.32,0-.6.07-.85.2-.25.13-.44.31-.59.54s-.22.5-.22.79v4.14h-1Z"/><path class="b" d="m88.84,175.4c-.59,0-1.11-.14-1.55-.42s-.79-.67-1.04-1.18c-.25-.51-.37-1.1-.37-1.77s.12-1.28.37-1.79c.25-.51.6-.9,1.04-1.18s.96-.42,1.55-.42,1.11.14,1.55.42.79.68,1.04,1.18c.25.51.37,1.1.37,1.79s-.12,1.27-.37,1.77c-.25.51-.6.9-1.04,1.18s-.96.42-1.55.42Zm0-.9c.45,0,.82-.12,1.11-.35s.5-.53.64-.91c.14-.38.21-.78.21-1.22s-.07-.85-.21-1.22c-.14-.38-.35-.68-.64-.92-.29-.23-.66-.35-1.11-.35s-.82.12-1.11.35c-.29.23-.5.54-.64.92-.14.38-.21.79-.21,1.22s.07.84.21,1.22c.14.38.35.68.64.91s.66.35,1.11.35Z"/><path class="b" d="m93.21,175.27v-8.73h1v8.73h-1Zm.94-2.39l-.02-1.24h.21l2.86-2.92h1.24l-3.05,3.09h-.09l-1.16,1.07Zm3.22,2.39l-2.56-3.24.72-.7,3.12,3.94h-1.28Z"/><path class="b" d="m103.09,175.27v-.77l2.88-3.15c.34-.37.62-.69.83-.96s.38-.53.49-.78.16-.5.16-.76c0-.31-.07-.57-.22-.8-.15-.22-.35-.4-.6-.52s-.54-.18-.85-.18c-.33,0-.63.07-.88.21-.25.14-.44.33-.58.58-.13.25-.2.54-.2.87h-1.01c0-.51.12-.96.35-1.35.24-.39.56-.69.97-.9.41-.22.87-.32,1.37-.32s.96.11,1.36.32c.39.22.7.51.93.87.22.37.34.77.34,1.22,0,.32-.06.63-.17.94s-.31.64-.6,1.02c-.28.37-.67.83-1.17,1.37l-1.96,2.1v.07h4.06v.94h-5.51Z"/><path class="b" d="m113.07,175.39c-.64,0-1.19-.17-1.64-.53-.45-.35-.8-.86-1.04-1.53-.24-.67-.36-1.48-.36-2.43s.12-1.75.36-2.42.59-1.18,1.04-1.53c.45-.35,1-.53,1.63-.53s1.18.18,1.63.53c.45.35.8.87,1.04,1.53s.36,1.48.36,2.42-.12,1.76-.36,2.43c-.24.67-.58,1.18-1.04,1.53-.45.35-1,.53-1.64.53Zm0-.94c.64,0,1.13-.31,1.48-.92.35-.61.53-1.49.53-2.62,0-.76-.08-1.4-.24-1.93s-.39-.94-.69-1.21-.66-.42-1.08-.42c-.63,0-1.12.31-1.48.93-.36.62-.53,1.5-.53,2.63,0,.76.08,1.4.24,1.93s.39.93.69,1.21.66.41,1.08.41Z"/><path class="b" d="m120.54,175.39c-.56,0-1.06-.1-1.5-.29-.44-.19-.79-.46-1.04-.81-.26-.35-.4-.75-.42-1.2h1.07c.02.28.12.52.29.73s.39.36.67.47.58.17.92.17c.38,0,.71-.07,1-.2.29-.13.52-.31.68-.54.16-.23.25-.5.25-.81s-.08-.6-.24-.85c-.16-.25-.39-.44-.7-.58-.31-.14-.68-.21-1.12-.21h-.7v-.94h.7c.35,0,.65-.06.91-.19s.47-.3.62-.53c.15-.23.22-.49.22-.8s-.07-.55-.2-.77c-.13-.22-.32-.39-.55-.51-.24-.12-.52-.18-.84-.18-.3,0-.58.05-.85.16s-.48.27-.65.47-.26.45-.27.74h-1.02c.02-.46.15-.86.41-1.2.26-.35.6-.61,1.02-.81.42-.19.88-.29,1.38-.29.54,0,1,.11,1.39.33.39.22.68.5.89.86.21.36.31.74.31,1.15,0,.49-.13.91-.39,1.26-.26.35-.61.59-1.05.72v.07c.55.09.98.32,1.29.7.31.38.46.84.46,1.4,0,.47-.13.9-.39,1.28-.26.38-.61.67-1.05.89s-.95.32-1.51.32Z"/><path class="b" d="m127.94,175.39c-.64,0-1.19-.17-1.64-.53-.45-.35-.8-.86-1.04-1.53-.24-.67-.36-1.48-.36-2.43s.12-1.75.36-2.42.59-1.18,1.04-1.53c.45-.35,1-.53,1.63-.53s1.18.18,1.63.53c.45.35.8.87,1.04,1.53s.36,1.48.36,2.42-.12,1.76-.36,2.43c-.24.67-.58,1.18-1.04,1.53-.45.35-1,.53-1.64.53Zm0-.94c.64,0,1.13-.31,1.48-.92.35-.61.53-1.49.53-2.62,0-.76-.08-1.4-.24-1.93s-.39-.94-.69-1.21-.66-.42-1.08-.42c-.63,0-1.12.31-1.48.93-.36.62-.53,1.5-.53,2.63,0,.76.08,1.4.24,1.93s.39.93.69,1.21.66.41,1.08.41Z"/></svg>