<?xml version="1.0" encoding="UTF-8"?>
<svg id="Layer_2" data-name="Layer 2" xmlns="http://www.w3.org/2000/svg" viewBox="0 0 34.0283276981 34.0283276981">
  <defs>
    <style>
      .cls-1 {
        fill: #6051a2;
        stroke-width: 0px;
      }

      .cls-2 {
        fill: none;
        stroke: #fff;
        stroke-miterlimit: 10;
        stroke-width: .5px;
      }
    </style>
  </defs>
  <g id="Layer_1-2" data-name="Layer 1">
    <g>
      <rect class="cls-1" x=".0000000008" y=".0000000008" width="34.0283276966" height="34.0283276966" transform="translate(34.0283276989 34.0283276974) rotate(180)"/>
      <g>
        <polyline class="cls-2" points="26.6870703395 26.1597168284 24.7311896352 26.435192984 26.0259275662 28.4186213039 24.7311896352 28.9224762714 22.6651184686 27.2616214506 22.885499393 25.4985740552 20.296023531 22.4132411131 18.5329761355 23.1308876811 21.3032995498 26.9162536498 20.8158687993 28.7518971145 19.5110840908 29.9585907056 18.3125952111 28.473716535 20.048094991 28.3635260728 19.9136033675 27.2377505278 16.8525715868 23.5151457353 15.3374527313 24.4242170486 13.2346514107 24.396669433 10.9573818583 26.2699072907 10.5533501635 27.2616214506 7.0272553726 28.1431451483 5.3009381312 26.6004786773 6.8436046022 22.4132411131 10.4064295472 23.4416854271 11.5817944775 21.311336491 10.0758581605 19.3323251158 13.9692544921 18.6300352437 15.952682812 16.7867101472 17.1555953579 16.1323847669 17.1555953579 15.2233134536 17.8993809778 15.2095396458 18.6844880211 16.1737061902 20.0634352318 16.5519727622 21.6743765775 15.7499590451 22.2344033972 15.9020650949 22.7322050147 13.4337987413 23.6655830476 13.7172691068 23.7070665157 12.7493215172 24.7311896352 11.0085282739 23.1058803175 11.6696710472 22.334547082 9.4383141873 23.0507850864 7.6752667919 21.5632138465 7.6752667919 20.1307378377 11.3941948916 21.342832922 11.8349567405 20.9020710732 14.8376468359 18.7809046755 14.7274563736 18.2299523645 12.1379805116 16.3291668912 12.9093137471 15.9710478891 9.9617188828 18.5605237511 9.1903856473 21.7835947709 3.4880292277 26.6870703395 4.3420053099 25.8330942573 5.691838472 24.9515705596 7.0141240186 26.5493322617 8.1711238718"/>
        <polygon class="cls-2" points="10.2249393741 17.8241324515 13.2428616804 17.6478277119 13.7717758991 16.2996149978 13.0561860739 15.5425417045 12.465046653 13.8520903782 13.2324908134 12.4209107278 11.8531654982 11.5704996312 10.836820529 13.789865176 11.5938938223 14.6299054056 10.2249393741 17.8241324515"/>
        <polygon class="cls-2" points="9.4471243467 13.9039447134 10.2249393741 14.7336140759 8.9078392611 16.5277740725 7.5492556799 15.2158593929 8.4515211117 13.5305935002 9.4471243467 13.9039447134"/>
        <polygon class="cls-2" points="15.5716074635 25.4572526318 15.420095578 26.2148120596 16.5357740079 26.3800977529 16.5357740079 25.5261216707 15.5716074635 25.4572526318"/>
        <polygon class="cls-2" points="14.9793337291 27.1652047962 16.1501073902 27.3580381051 15.7506669646 28.9833474227 14.5110242647 28.0742761094 14.9793337291 27.1652047962"/>
      </g>
    </g>
  </g>
</svg>