<?xml version="1.0" encoding="UTF-8"?>
<svg id="Layer_1" data-name="Layer 1" xmlns="http://www.w3.org/2000/svg" width="155mm" height="44.32mm" viewBox="0 0 439.37 125.63">
  <g>
    <path d="m320.4,48.36c-1.87-1.87,1.08-5.9,5.6-5.6.3,4.52-3.72,7.47-5.6,5.6Z" fill="#fff" stroke="#7f8085" stroke-miterlimit="10" stroke-width=".6"/>
    <g>
      <path d="m317.98,45.4c-3.15,1.46-6.78-3.99-4.36-9.41,5.7,1.66,7.51,7.95,4.36,9.41Z" fill="#fff" stroke="#7f8085" stroke-miterlimit="10" stroke-width=".6"/>
      <path d="m319.01,53.29c.32-9.75-5.3-17.1-5.3-17.1" fill="none" stroke="#7f8085" stroke-miterlimit="10" stroke-width=".6"/>
    </g>
    <path d="m326,42.77c-2.41,1.57-6.7,4.18-6.7,10.52" fill="none" stroke="#7f8085" stroke-miterlimit="10" stroke-width=".6"/>
    <line x1="331.4" y1="61.43" x2="335.76" y2="61.43" fill="#fff" stroke="#7f8085" stroke-miterlimit="10" stroke-width=".6"/>
    <polyline points="320.24 61.43 331.22 61.43 329.84 56.88 324.43 55.28 323.22 52.36 316.36 50.51 313.17 52.36 310.42 61.43 306.09 61.43" fill="#fff" stroke="#7f8085" stroke-miterlimit="10" stroke-width=".6"/>
    <polyline points="315.16 53.52 316.79 52.47 321.62 53.52" fill="#fff" stroke="#7f8085" stroke-miterlimit="10" stroke-width=".6"/>
    <polyline points="327.04 59.34 326.62 57.71 321.74 57.46" fill="#fff" stroke="#7f8085" stroke-miterlimit="10" stroke-width=".6"/>
    <line x1="314" y1="57.35" x2="316.53" y2="57.35" fill="#fff" stroke="#7f8085" stroke-miterlimit="10" stroke-width=".6"/>
    <polyline points="312.37 61.43 318.39 61.43 319.66 63.61" fill="none" stroke="#7f8085" stroke-miterlimit="10" stroke-width=".6"/>
    <polyline points="319.09 55.34 318.24 57.31 319.8 57.31 318.86 59.59" fill="#fff" stroke="#7f8085" stroke-miterlimit="10" stroke-width=".6"/>
  </g>
  <g>
    <polyline points="224.73 61.52 224.73 43.29 234.73 31.82 245.44 43" fill="none" stroke="#fff" stroke-miterlimit="10" stroke-width="2"/>
    <g>
      <circle cx="241.88" cy="56.6" r="5.03" fill="#fff" stroke="#7f8085" stroke-miterlimit="10" stroke-width=".6"/>
      <g>
        <g>
          <path d="m241.81,53.28c-.91,3.08,1.2,3.01,0,6.64" fill="#fff"/>
          <g>
            <path d="m241.62,54.12c-.33,2.26,1.27,2.53.19,5.79" fill="none" stroke="#7f8085" stroke-miterlimit="10" stroke-width=".6"/>
            <polygon points="241.01 54.17 241.81 53.28 242.18 54.42 241.01 54.17" fill="#7f8085"/>
          </g>
        </g>
        <g>
          <path d="m243.79,54.14c-.68,2.29.89,2.23,0,4.93" fill="#fff"/>
          <g>
            <path d="m243.63,54.99c-.11,1.48.93,1.77.17,4.08" fill="none" stroke="#7f8085" stroke-miterlimit="10" stroke-width=".6"/>
            <polygon points="243.04 55.06 243.79 54.14 244.22 55.25 243.04 55.06" fill="#7f8085"/>
          </g>
        </g>
        <g>
          <path d="m239.86,54.14c-.68,2.29.89,2.23,0,4.93" fill="#fff"/>
          <g>
            <path d="m239.69,54.99c-.11,1.48.93,1.77.17,4.08" fill="none" stroke="#7f8085" stroke-miterlimit="10" stroke-width=".6"/>
            <polygon points="239.1 55.06 239.86 54.14 240.29 55.25 239.1 55.06" fill="#7f8085"/>
          </g>
        </g>
      </g>
    </g>
    <polyline points="213.96 61.24 222.69 61.24 222.69 61.24 222.69 47.51 218.24 47.51 234.79 27.84 245.44 39.36" fill="none" stroke="#7f8085" stroke-miterlimit="10" stroke-width=".6"/>
    <g>
      <polyline points="234.67 58.53 227.75 58.51 231.17 56.03" fill="none" stroke="#7f8085" stroke-linejoin="bevel" stroke-width=".6"/>
      <polygon points="231.38 56.62 231.87 55.53 230.68 55.65 231.38 56.62" fill="#7f8085"/>
    </g>
    <g>
      <polyline points="238.65 48.92 236.85 39 240.28 41.9" fill="none" stroke="#7f8085" stroke-linejoin="bevel" stroke-width=".6"/>
      <polygon points="239.76 42.24 240.94 42.46 240.53 41.33 239.76 42.24" fill="#7f8085"/>
    </g>
    <g>
      <polyline points="234.69 53.65 227.93 52.21 231.43 50.36" fill="none" stroke="#7f8085" stroke-linejoin="bevel" stroke-width=".6"/>
      <polygon points="231.56 50.97 232.19 49.95 231 49.91 231.56 50.97" fill="#7f8085"/>
    </g>
    <g>
      <polyline points="236.46 49.85 227.93 43.8 231.39 42.49" fill="none" stroke="#7f8085" stroke-linejoin="bevel" stroke-width=".6"/>
      <polygon points="231.44 43.11 232.19 42.19 231.01 41.99 231.44 43.11" fill="#7f8085"/>
    </g>
    <g>
      <line x1="224.73" y1="61.52" x2="224.73" y2="60.52" fill="none" stroke="#7f8085" stroke-miterlimit="10" stroke-width=".6"/>
      <polyline points="224.73 59.51 224.73 43.29 233.74 32.96" fill="none" stroke="#7f8085" stroke-dasharray="0 0 2.03 1.01" stroke-miterlimit="10" stroke-width=".6"/>
      <polyline points="234.07 32.57 234.73 31.82 235.42 32.54" fill="none" stroke="#7f8085" stroke-miterlimit="10" stroke-width=".6"/>
      <line x1="236.14" y1="33.29" x2="244.39" y2="41.91" fill="none" stroke="#7f8085" stroke-dasharray="0 0 2.08 1.04" stroke-miterlimit="10" stroke-width=".6"/>
      <line x1="244.75" y1="42.28" x2="245.44" y2="43" fill="none" stroke="#7f8085" stroke-miterlimit="10" stroke-width=".6"/>
    </g>
  </g>
  <g>
    <polyline points="111.04 58.88 126.15 58.88 136.18 41.51" fill="none" stroke="#7f8085" stroke-miterlimit="10" stroke-width=".6"/>
    <g>
      <polygon points="125.36 57.79 111.23 57.79 121.43 40.13 135.55 40.13 125.36 57.79" fill="#fff" stroke="#7f8085" stroke-miterlimit="10" stroke-width=".6"/>
      <line x1="124.96" y1="40.13" x2="114.76" y2="57.79" fill="#fff" stroke="#7f8085" stroke-miterlimit="10" stroke-width=".6"/>
      <line x1="128.49" y1="40.13" x2="118.29" y2="57.79" fill="#fff" stroke="#7f8085" stroke-miterlimit="10" stroke-width=".6"/>
      <line x1="132.02" y1="40.13" x2="121.83" y2="57.79" fill="#fff" stroke="#7f8085" stroke-miterlimit="10" stroke-width=".6"/>
      <line x1="133.51" y1="43.66" x2="119.39" y2="43.66" fill="#fff" stroke="#7f8085" stroke-miterlimit="10" stroke-width=".6"/>
      <line x1="131.47" y1="47.19" x2="117.35" y2="47.19" fill="#fff" stroke="#7f8085" stroke-miterlimit="10" stroke-width=".6"/>
      <line x1="129.43" y1="50.72" x2="115.31" y2="50.72" fill="#fff" stroke="#7f8085" stroke-miterlimit="10" stroke-width=".6"/>
      <line x1="127.4" y1="54.26" x2="113.27" y2="54.26" fill="#fff" stroke="#7f8085" stroke-miterlimit="10" stroke-width=".6"/>
    </g>
    <circle cx="117.35" cy="27.71" r="3.36" fill="#fff" stroke="#7f8085" stroke-miterlimit="10" stroke-width=".6"/>
    <g>
      <g id="_Radial_Repeat_" data-name="&amp;lt;Radial Repeat&amp;gt;">
        <line x1="117.35" y1="35.03" x2="117.35" y2="33.11" fill="none" stroke="#7f8085" stroke-miterlimit="10" stroke-width=".6"/>
      </g>
      <g id="_Radial_Repeat_-2" data-name="&amp;lt;Radial Repeat&amp;gt;">
        <line x1="114.54" y1="34.48" x2="115.28" y2="32.7" fill="none" stroke="#7f8085" stroke-miterlimit="10" stroke-width=".6"/>
      </g>
      <g id="_Radial_Repeat_-3" data-name="&amp;lt;Radial Repeat&amp;gt;">
        <line x1="112.17" y1="32.89" x2="113.53" y2="31.53" fill="none" stroke="#7f8085" stroke-miterlimit="10" stroke-width=".6"/>
      </g>
      <g id="_Radial_Repeat_-4" data-name="&amp;lt;Radial Repeat&amp;gt;">
        <line x1="110.58" y1="30.51" x2="112.36" y2="29.77" fill="none" stroke="#7f8085" stroke-miterlimit="10" stroke-width=".6"/>
      </g>
      <g id="_Radial_Repeat_-5" data-name="&amp;lt;Radial Repeat&amp;gt;">
        <line x1="110.02" y1="27.71" x2="111.94" y2="27.71" fill="none" stroke="#7f8085" stroke-miterlimit="10" stroke-width=".6"/>
      </g>
      <g id="_Radial_Repeat_-6" data-name="&amp;lt;Radial Repeat&amp;gt;">
        <line x1="110.58" y1="24.9" x2="112.36" y2="25.64" fill="none" stroke="#7f8085" stroke-miterlimit="10" stroke-width=".6"/>
      </g>
      <g id="_Radial_Repeat_-7" data-name="&amp;lt;Radial Repeat&amp;gt;">
        <line x1="112.17" y1="22.52" x2="113.53" y2="23.88" fill="none" stroke="#7f8085" stroke-miterlimit="10" stroke-width=".6"/>
      </g>
      <g id="_Radial_Repeat_-8" data-name="&amp;lt;Radial Repeat&amp;gt;">
        <line x1="114.54" y1="20.93" x2="115.28" y2="22.71" fill="none" stroke="#7f8085" stroke-miterlimit="10" stroke-width=".6"/>
      </g>
      <g id="_Radial_Repeat_-9" data-name="&amp;lt;Radial Repeat&amp;gt;">
        <line x1="117.35" y1="20.38" x2="117.35" y2="22.3" fill="none" stroke="#7f8085" stroke-miterlimit="10" stroke-width=".6"/>
      </g>
      <g id="_Radial_Repeat_-10" data-name="&amp;lt;Radial Repeat&amp;gt;">
        <line x1="120.15" y1="20.93" x2="119.42" y2="22.71" fill="none" stroke="#7f8085" stroke-miterlimit="10" stroke-width=".6"/>
      </g>
      <g id="_Radial_Repeat_-11" data-name="&amp;lt;Radial Repeat&amp;gt;">
        <line x1="122.53" y1="22.52" x2="121.17" y2="23.88" fill="none" stroke="#7f8085" stroke-miterlimit="10" stroke-width=".6"/>
      </g>
      <g id="_Radial_Repeat_-12" data-name="&amp;lt;Radial Repeat&amp;gt;">
        <line x1="124.12" y1="24.9" x2="122.34" y2="25.64" fill="none" stroke="#7f8085" stroke-miterlimit="10" stroke-width=".6"/>
      </g>
      <g id="_Radial_Repeat_-13" data-name="&amp;lt;Radial Repeat&amp;gt;">
        <line x1="124.68" y1="27.71" x2="122.75" y2="27.71" fill="none" stroke="#7f8085" stroke-miterlimit="10" stroke-width=".6"/>
      </g>
      <g id="_Radial_Repeat_-14" data-name="&amp;lt;Radial Repeat&amp;gt;">
        <line x1="124.12" y1="30.51" x2="122.34" y2="29.77" fill="none" stroke="#7f8085" stroke-miterlimit="10" stroke-width=".6"/>
      </g>
      <g id="_Radial_Repeat_-15" data-name="&amp;lt;Radial Repeat&amp;gt;">
        <line x1="122.53" y1="32.89" x2="121.17" y2="31.53" fill="none" stroke="#7f8085" stroke-miterlimit="10" stroke-width=".6"/>
      </g>
      <g id="_Radial_Repeat_-16" data-name="&amp;lt;Radial Repeat&amp;gt;">
        <line x1="120.15" y1="34.48" x2="119.42" y2="32.7" fill="none" stroke="#7f8085" stroke-miterlimit="10" stroke-width=".6"/>
      </g>
    </g>
    <rect x="132.02" y="53.87" width="4.59" height="6.18" fill="#fff" stroke="#7f8085" stroke-miterlimit="10" stroke-width=".6"/>
    <line x1="114.76" y1="58.88" x2="114.76" y2="61.25" fill="none" stroke="#7f8085" stroke-linecap="square" stroke-miterlimit="10" stroke-width=".6"/>
    <line x1="121.83" y1="58.88" x2="121.83" y2="61.25" fill="none" stroke="#7f8085" stroke-linecap="square" stroke-miterlimit="10" stroke-width=".6"/>
    <line x1="134.44" y1="44.51" x2="134.44" y2="53.87" fill="#fff" stroke="#7f8085" stroke-miterlimit="10" stroke-width=".6"/>
    <line x1="127.4" y1="56.72" x2="132.02" y2="56.72" fill="#fff" stroke="#7f8085" stroke-miterlimit="10" stroke-width=".6"/>
    <line x1="130.86" y1="61.25" x2="138.03" y2="61.25" fill="#fff" stroke="#7f8085" stroke-miterlimit="10" stroke-width=".6"/>
    <polyline points="134.38 55.24 133.61 57.01 135.02 57.01 134.17 59.05" fill="none" stroke="#7f8085" stroke-miterlimit="10" stroke-width=".6"/>
    <g>
      <g>
        <g id="_Radial_Repeat_-17" data-name="&amp;lt;Radial Repeat&amp;gt;">
          <path d="m149.59,46.56s-.39-7.87-4.79-10.64c-.15.13-.28.24-.4.34l-1.09-1.59-.68.37.78,1.45.23.42.36.67,5.01,9.29.58-.31Z" fill="#fff" stroke="#7f8085" stroke-miterlimit="10" stroke-width=".6"/>
        </g>
        <g id="_Radial_Repeat_-18" data-name="&amp;lt;Radial Repeat&amp;gt;">
          <path d="m128.58,34.2s7.01,3.6,11.61,1.18c-.04-.2-.07-.36-.09-.51l1.92-.15.02-.78-1.65-.05h-.48s-.77-.04-.77-.04l-10.55-.31-.02.65Z" fill="#fff" stroke="#7f8085" stroke-miterlimit="10" stroke-width=".6"/>
        </g>
        <g id="_Radial_Repeat_-19" data-name="&amp;lt;Radial Repeat&amp;gt;">
          <path d="m149.79,22.19s-6.62,4.27-6.82,9.47c.19.07.35.12.49.17l-.83,1.74.66.41.86-1.4.25-.41.4-.65,5.54-8.98-.56-.34Z" fill="#fff" stroke="#7f8085" stroke-miterlimit="10" stroke-width=".6"/>
        </g>
      </g>
      <line x1="139.18" y1="61.25" x2="146.35" y2="61.25" fill="#fff" stroke="#7f8085" stroke-miterlimit="10" stroke-width=".6"/>
      <path d="m130.44,29.22c3.96,2.07,6.91-1.77,10.26,0" fill="none" stroke="#7f8085" stroke-miterlimit="10" stroke-width=".6"/>
      <path d="m136.43,27.33c.13-.04.25-.07.37-.12,1.53-.44,2.99-.82,4.54,0" fill="none" stroke="#7f8085" stroke-miterlimit="10" stroke-width=".6"/>
      <path d="m131.78,24.92c3.96,2.07,6.91-1.77,10.26,0" fill="none" stroke="#7f8085" stroke-miterlimit="10" stroke-width=".6"/>
      <g>
        <polygon points="144.19 53.87 143.18 34.45 142.21 34.45 141.31 53.87 140.47 53.87 140.47 60.05 145.06 60.05 145.06 53.87 144.19 53.87" fill="#fff"/>
        <polygon points="144.19 53.87 143.18 34.45 142.21 34.45 141.31 53.87 140.47 53.87 140.47 60.05 145.06 60.05 145.06 53.87 144.19 53.87" fill="none" stroke="#7f8085" stroke-miterlimit="10" stroke-width=".6"/>
      </g>
      <polyline points="142.87 55.08 142.1 56.86 143.5 56.86 142.66 58.9" fill="#fff" stroke="#7f8085" stroke-miterlimit="10" stroke-width=".6"/>
      <polyline points="142.87 55.08 142.1 56.86 143.5 56.86 142.66 58.9" fill="#fff" stroke="#7f8085" stroke-miterlimit="10" stroke-width=".6"/>
      <circle cx="142.63" cy="34.37" r="1.29" fill="#fff" stroke="#7f8085" stroke-miterlimit="10" stroke-width=".6"/>
    </g>
  </g>
  <text transform="translate(-.43 88.59)" fill="#334c8d" font-family="Inter-Bold, Inter" font-size="18" font-weight="700"><tspan x="0" y="0">17 % </tspan></text>
  <text transform="translate(175.8 87.75)" fill="#334c8d" font-family="Inter-Regular, Inter" font-size="13"><tspan x="0" y="0">+</tspan></text>
  <text transform="translate(69.57 87.75)" fill="#334c8d" font-family="Inter-Regular, Inter" font-size="13"><tspan x="0" y="0">+</tspan></text>
  <text transform="translate(278.05 87.75)" fill="#334c8d" font-family="Inter-Regular, Inter" font-size="13"><tspan x="0" y="0">+</tspan></text>
  <text transform="translate(352.59 87.75)" fill="#334c8d" font-family="Inter-Regular, Inter" font-size="13"><tspan x="0" y="0">→</tspan></text>
  <g>
    <path d="m1.15,103.48v-7.27h2.73c.56,0,1.03.1,1.41.31.38.21.67.49.86.86s.29.78.29,1.24-.1.88-.29,1.24-.49.65-.87.85c-.38.21-.86.31-1.42.31h-1.81v-1.08h1.63c.33,0,.59-.06.8-.17s.36-.27.46-.47.15-.43.15-.69-.05-.49-.15-.68-.26-.35-.47-.46c-.21-.11-.48-.17-.81-.17h-1.21v6.17h-1.32Z" fill="#334c8d"/>
    <path d="m9.82,103.58c-.53,0-.99-.12-1.38-.35s-.69-.56-.91-.98c-.21-.42-.32-.91-.32-1.48s.11-1.06.32-1.48c.21-.42.52-.75.91-.99s.85-.35,1.38-.35.99.12,1.38.35.69.56.91.99.32.92.32,1.48-.11,1.06-.32,1.48c-.21.42-.52.75-.91.98s-.85.35-1.38.35Zm0-1.03c.29,0,.53-.08.72-.24s.34-.38.43-.64.14-.57.14-.9-.05-.64-.14-.91c-.1-.27-.24-.49-.43-.65s-.44-.24-.72-.24-.54.08-.74.24-.34.38-.44.65c-.1.27-.14.57-.14.91s.05.63.14.9.24.48.44.64.44.24.74.24Z" fill="#334c8d"/>
    <path d="m15.55,103.57c-.43,0-.81-.11-1.15-.33s-.61-.54-.8-.96-.29-.93-.29-1.53.1-1.12.3-1.54c.2-.42.47-.73.81-.95.34-.21.72-.32,1.14-.32.32,0,.58.05.79.16.21.11.37.24.49.39.12.15.21.29.28.42h.05v-2.72h1.29v7.27h-1.26v-.86h-.08c-.07.13-.16.27-.29.42-.13.15-.29.27-.5.38-.21.1-.46.16-.78.16Zm.36-1.05c.27,0,.5-.07.7-.22.19-.15.34-.35.44-.62.1-.26.15-.57.15-.93s-.05-.66-.15-.92c-.1-.26-.24-.46-.43-.61-.19-.14-.42-.22-.7-.22s-.53.07-.72.22c-.19.15-.34.36-.43.62-.1.26-.15.56-.15.9s.05.64.15.91.24.48.44.63c.19.15.43.23.71.23Z" fill="#334c8d"/>
    <path d="m19.83,103.48v-5.45h1.29v5.45h-1.29Zm.15-6.17l.79-1.62h1.26l-1.09,1.62h-.96Z" fill="#334c8d"/>
    <path d="m23.72,96.2v7.27h-1.29v-7.27h1.29Z" fill="#334c8d"/>
    <path d="m34.08,99.84c0,.78-.15,1.45-.44,2.01s-.69.98-1.19,1.28-1.07.44-1.71.44-1.21-.15-1.71-.45c-.5-.3-.9-.72-1.19-1.28-.29-.56-.44-1.23-.44-2.01s.15-1.45.44-2.01c.29-.56.69-.98,1.19-1.28.5-.3,1.07-.44,1.71-.44s1.21.15,1.71.44c.5.3.9.72,1.19,1.28s.44,1.23.44,2.01Zm-1.32,0c0-.55-.09-1.02-.26-1.4-.17-.38-.41-.67-.71-.86s-.65-.29-1.05-.29-.74.1-1.05.29c-.3.2-.54.48-.71.86-.17.38-.26.85-.26,1.4s.09,1.02.26,1.4c.17.38.41.67.71.86.3.2.65.29,1.05.29s.75-.1,1.05-.29.54-.48.71-.86.26-.85.26-1.4Z" fill="#334c8d"/>
    <path d="m35.19,103.48v-.82l3.73-5.35h-3.75v-1.1h5.38v.82l-3.72,5.35h3.75v1.1h-5.38Z" fill="#334c8d"/>
    <path d="m41.86,103.48v-7.27h4.73v1.1h-3.41v1.97h3.17v1.1h-3.17v1.99h3.44v1.1h-4.76Z" fill="#334c8d"/>
    <path d="m5.96,108.02l-1.94,5.45h-1.42l-1.94-5.45h1.37l1.25,4.05h.06l1.26-4.05h1.37Z" fill="#334c8d"/>
    <path d="m9.33,113.48v-5.45h1.25v.91h.06c.1-.31.27-.56.51-.73.24-.17.52-.26.83-.26.07,0,.15,0,.24,0,.09,0,.16.01.22.03v1.18c-.05-.02-.14-.04-.26-.05s-.23-.02-.34-.02c-.23,0-.44.05-.63.15-.19.1-.33.24-.44.42s-.16.38-.16.61v3.21h-1.29Z" fill="#334c8d"/>
    <path d="m15.45,113.58c-.53,0-.99-.12-1.38-.35s-.69-.56-.91-.98c-.21-.42-.32-.91-.32-1.48s.11-1.06.32-1.48c.21-.42.52-.75.91-.99s.85-.35,1.38-.35.99.12,1.38.35.69.56.91.99.32.92.32,1.48-.11,1.06-.32,1.48c-.21.42-.52.75-.91.98s-.85.35-1.38.35Zm0-1.03c.29,0,.53-.08.72-.24s.34-.38.43-.64.14-.57.14-.9-.05-.64-.14-.91c-.1-.27-.24-.49-.43-.65s-.44-.24-.72-.24-.54.08-.74.24-.34.38-.44.65c-.1.27-.14.57-.14.91s.05.63.14.9.24.48.44.64.44.24.74.24Z" fill="#334c8d"/>
    <path d="m21.53,113.58c-.54,0-1.01-.12-1.4-.36s-.69-.57-.9-.99c-.21-.42-.31-.91-.31-1.46s.11-1.04.32-1.47c.21-.42.51-.76.9-.99.39-.24.85-.36,1.38-.36.44,0,.84.08,1.18.24s.62.39.82.69c.2.29.32.64.35,1.03h-1.23c-.05-.26-.17-.48-.35-.66-.19-.18-.43-.26-.74-.26-.26,0-.49.07-.69.21-.2.14-.35.34-.46.61s-.17.58-.17.94.05.69.16.96c.11.27.26.47.46.61.2.14.43.21.7.21.19,0,.36-.04.51-.11.15-.07.28-.18.38-.31.1-.14.17-.3.21-.5h1.23c-.03.39-.14.73-.34,1.02-.2.3-.46.53-.8.7-.34.17-.74.25-1.19.25Z" fill="#334c8d"/>
    <path d="m27.34,113.58c-.55,0-1.02-.11-1.42-.34s-.7-.55-.91-.97c-.21-.42-.32-.92-.32-1.49s.11-1.05.32-1.48c.21-.42.51-.76.9-.99.39-.24.84-.36,1.36-.36.34,0,.65.05.95.16.3.11.57.27.8.5.23.23.41.51.54.86.13.35.2.76.2,1.24v.39h-4.47v-.87h3.24c0-.25-.06-.47-.16-.66-.1-.19-.25-.34-.43-.46-.19-.11-.4-.17-.65-.17-.26,0-.49.06-.69.19s-.35.29-.46.5c-.11.21-.17.43-.17.67v.76c0,.32.06.59.17.81.12.23.28.4.49.52s.45.18.73.18c.19,0,.36-.03.51-.08.15-.05.28-.13.39-.24s.2-.23.25-.39l1.2.13c-.08.32-.22.59-.43.83s-.48.42-.81.55-.71.19-1.13.19Z" fill="#334c8d"/>
    <path d="m33.32,113.48v-.95l2.52-2.47c.24-.24.44-.46.6-.65.16-.19.28-.37.36-.55.08-.18.12-.37.12-.57,0-.23-.05-.43-.16-.59-.1-.17-.25-.29-.43-.38s-.39-.14-.62-.14-.45.05-.63.15c-.18.1-.32.24-.42.42-.1.18-.15.39-.15.64h-1.25c0-.46.11-.86.32-1.2s.5-.6.87-.79c.37-.19.8-.28,1.28-.28s.92.09,1.29.27.66.43.86.75.31.68.31,1.09c0,.27-.05.54-.16.8-.1.26-.29.55-.55.87-.26.32-.63.71-1.1,1.16l-1.25,1.28v.05h3.17v1.1h-4.99Z" fill="#334c8d"/>
    <path d="m42.22,113.62c-.58,0-1.09-.15-1.5-.45-.42-.3-.74-.73-.96-1.29-.22-.56-.34-1.24-.34-2.03,0-.79.12-1.47.34-2.03s.54-.98.96-1.28c.42-.29.92-.44,1.5-.44s1.08.15,1.5.44c.42.29.74.72.96,1.28s.34,1.23.34,2.02-.11,1.47-.34,2.04-.54.99-.96,1.29c-.42.3-.92.44-1.5.44Zm0-1.11c.45,0,.81-.22,1.08-.67.26-.45.4-1.11.4-1.98,0-.58-.06-1.06-.18-1.46-.12-.39-.29-.69-.51-.89-.22-.2-.48-.3-.78-.3-.45,0-.81.22-1.07.67-.26.45-.4,1.11-.4,1.97,0,.58.06,1.07.18,1.46s.29.69.51.89c.22.2.48.3.79.3Z" fill="#334c8d"/>
    <path d="m46.2,113.48v-.95l2.52-2.47c.24-.24.44-.46.6-.65.16-.19.28-.37.36-.55.08-.18.12-.37.12-.57,0-.23-.05-.43-.16-.59-.1-.17-.25-.29-.43-.38s-.39-.14-.62-.14-.45.05-.63.15c-.18.1-.32.24-.42.42-.1.18-.15.39-.15.64h-1.25c0-.46.11-.86.32-1.2s.5-.6.87-.79c.37-.19.8-.28,1.28-.28s.92.09,1.29.27.66.43.86.75.31.68.31,1.09c0,.27-.05.54-.16.8-.1.26-.29.55-.55.87-.26.32-.63.71-1.1,1.16l-1.25,1.28v.05h3.17v1.1h-4.99Z" fill="#334c8d"/>
    <path d="m55.37,106.2v7.27h-1.32v-5.99h-.04l-1.7,1.09v-1.21l1.81-1.16h1.25Z" fill="#334c8d"/>
  </g>
  <text transform="translate(380 88.14)" fill="#334c8d" font-family="Inter-Bold, Inter" font-size="18" font-weight="700"><tspan x="0" y="0">33 %</tspan></text>
  <g>
    <path d="m381.65,103.48v-7.27h2.73c.56,0,1.03.1,1.41.31.38.21.67.49.86.86s.29.78.29,1.24-.1.88-.29,1.24-.49.65-.87.85c-.38.21-.86.31-1.42.31h-1.81v-1.08h1.63c.33,0,.59-.06.8-.17s.36-.27.46-.47.15-.43.15-.69-.05-.49-.15-.68-.26-.35-.47-.46c-.21-.11-.48-.17-.81-.17h-1.21v6.17h-1.32Z" fill="#334c8d"/>
    <path d="m390.33,103.58c-.53,0-.99-.12-1.38-.35s-.69-.56-.91-.98c-.21-.42-.32-.91-.32-1.48s.11-1.06.32-1.48c.21-.42.52-.75.91-.99s.85-.35,1.38-.35.99.12,1.38.35.69.56.91.99.32.92.32,1.48-.11,1.06-.32,1.48c-.21.42-.52.75-.91.98s-.85.35-1.38.35Zm0-1.03c.29,0,.53-.08.72-.24s.34-.38.43-.64.14-.57.14-.9-.05-.64-.14-.91c-.1-.27-.24-.49-.43-.65s-.44-.24-.72-.24-.54.08-.74.24-.34.38-.44.65c-.1.27-.14.57-.14.91s.05.63.14.9.24.48.44.64.44.24.74.24Z" fill="#334c8d"/>
    <path d="m396.05,103.57c-.43,0-.81-.11-1.15-.33s-.61-.54-.8-.96-.29-.93-.29-1.53.1-1.12.3-1.54c.2-.42.47-.73.81-.95.34-.21.72-.32,1.14-.32.32,0,.58.05.79.16.21.11.37.24.49.39.12.15.21.29.28.42h.05v-2.72h1.29v7.27h-1.26v-.86h-.08c-.07.13-.16.27-.29.42-.13.15-.29.27-.5.38-.21.1-.46.16-.78.16Zm.36-1.05c.27,0,.5-.07.7-.22.19-.15.34-.35.44-.62.1-.26.15-.57.15-.93s-.05-.66-.15-.92c-.1-.26-.24-.46-.43-.61-.19-.14-.42-.22-.7-.22s-.53.07-.72.22c-.19.15-.34.36-.43.62-.1.26-.15.56-.15.9s.05.64.15.91.24.48.44.63c.19.15.43.23.71.23Z" fill="#334c8d"/>
    <path d="m400.33,103.48v-5.45h1.29v5.45h-1.29Zm.15-6.17l.79-1.62h1.26l-1.09,1.62h-.96Z" fill="#334c8d"/>
    <path d="m404.23,96.2v7.27h-1.29v-7.27h1.29Z" fill="#334c8d"/>
    <path d="m414.59,99.84c0,.78-.15,1.45-.44,2.01s-.69.98-1.19,1.28-1.07.44-1.71.44-1.21-.15-1.71-.45c-.5-.3-.9-.72-1.19-1.28-.29-.56-.44-1.23-.44-2.01s.15-1.45.44-2.01c.29-.56.69-.98,1.19-1.28.5-.3,1.07-.44,1.71-.44s1.21.15,1.71.44c.5.3.9.72,1.19,1.28s.44,1.23.44,2.01Zm-1.32,0c0-.55-.09-1.02-.26-1.4-.17-.38-.41-.67-.71-.86s-.65-.29-1.05-.29-.74.1-1.05.29c-.3.2-.54.48-.71.86-.17.38-.26.85-.26,1.4s.09,1.02.26,1.4c.17.38.41.67.71.86.3.2.65.29,1.05.29s.75-.1,1.05-.29.54-.48.71-.86.26-.85.26-1.4Z" fill="#334c8d"/>
    <path d="m415.7,103.48v-.82l3.73-5.35h-3.75v-1.1h5.38v.82l-3.72,5.35h3.75v1.1h-5.38Z" fill="#334c8d"/>
    <path d="m422.36,103.48v-7.27h4.73v1.1h-3.41v1.97h3.17v1.1h-3.17v1.99h3.44v1.1h-4.76Z" fill="#334c8d"/>
    <path d="m386.47,108.02l-1.94,5.45h-1.42l-1.94-5.45h1.37l1.25,4.05h.06l1.26-4.05h1.37Z" fill="#334c8d"/>
    <path d="m389.84,113.48v-5.45h1.25v.91h.06c.1-.31.27-.56.51-.73.24-.17.52-.26.83-.26.07,0,.15,0,.24,0,.09,0,.16.01.22.03v1.18c-.05-.02-.14-.04-.26-.05s-.23-.02-.34-.02c-.23,0-.44.05-.63.15-.19.1-.33.24-.44.42s-.16.38-.16.61v3.21h-1.29Z" fill="#334c8d"/>
    <path d="m395.96,113.58c-.53,0-.99-.12-1.38-.35s-.69-.56-.91-.98c-.21-.42-.32-.91-.32-1.48s.11-1.06.32-1.48c.21-.42.52-.75.91-.99s.85-.35,1.38-.35.99.12,1.38.35.69.56.91.99.32.92.32,1.48-.11,1.06-.32,1.48c-.21.42-.52.75-.91.98s-.85.35-1.38.35Zm0-1.03c.29,0,.53-.08.72-.24s.34-.38.43-.64.14-.57.14-.9-.05-.64-.14-.91c-.1-.27-.24-.49-.43-.65s-.44-.24-.72-.24-.54.08-.74.24-.34.38-.44.65c-.1.27-.14.57-.14.91s.05.63.14.9.24.48.44.64.44.24.74.24Z" fill="#334c8d"/>
    <path d="m402.04,113.58c-.54,0-1.01-.12-1.4-.36s-.69-.57-.9-.99c-.21-.42-.31-.91-.31-1.46s.11-1.04.32-1.47c.21-.42.51-.76.9-.99.39-.24.85-.36,1.38-.36.44,0,.84.08,1.18.24s.62.39.82.69c.2.29.32.64.35,1.03h-1.23c-.05-.26-.17-.48-.35-.66-.19-.18-.43-.26-.74-.26-.26,0-.49.07-.69.21-.2.14-.35.34-.46.61s-.17.58-.17.94.05.69.16.96c.11.27.26.47.46.61.2.14.43.21.7.21.19,0,.36-.04.51-.11.15-.07.28-.18.38-.31.1-.14.17-.3.21-.5h1.23c-.03.39-.14.73-.34,1.02-.2.3-.46.53-.8.7-.34.17-.74.25-1.19.25Z" fill="#334c8d"/>
    <path d="m407.84,113.58c-.55,0-1.02-.11-1.42-.34s-.7-.55-.91-.97c-.21-.42-.32-.92-.32-1.49s.11-1.05.32-1.48c.21-.42.51-.76.9-.99.39-.24.84-.36,1.36-.36.34,0,.65.05.95.16.3.11.57.27.8.5.23.23.41.51.54.86.13.35.2.76.2,1.24v.39h-4.47v-.87h3.24c0-.25-.06-.47-.16-.66-.1-.19-.25-.34-.43-.46-.19-.11-.4-.17-.65-.17-.26,0-.49.06-.69.19s-.35.29-.46.5c-.11.21-.17.43-.17.67v.76c0,.32.06.59.17.81.12.23.28.4.49.52s.45.18.73.18c.19,0,.36-.03.51-.08.15-.05.28-.13.39-.24s.2-.23.25-.39l1.2.13c-.08.32-.22.59-.43.83s-.48.42-.81.55-.71.19-1.13.19Z" fill="#334c8d"/>
    <path d="m413.83,113.48v-.95l2.52-2.47c.24-.24.44-.46.6-.65.16-.19.28-.37.36-.55.08-.18.12-.37.12-.57,0-.23-.05-.43-.16-.59-.1-.17-.25-.29-.43-.38s-.39-.14-.62-.14-.45.05-.63.15c-.18.1-.32.24-.42.42-.1.18-.15.39-.15.64h-1.25c0-.46.11-.86.32-1.2s.5-.6.87-.79c.37-.19.8-.28,1.28-.28s.92.09,1.29.27.66.43.86.75.31.68.31,1.09c0,.27-.05.54-.16.8-.1.26-.29.55-.55.87-.26.32-.63.71-1.1,1.16l-1.25,1.28v.05h3.17v1.1h-4.99Z" fill="#334c8d"/>
    <path d="m422.73,113.62c-.58,0-1.09-.15-1.5-.45-.42-.3-.74-.73-.96-1.29-.22-.56-.34-1.24-.34-2.03,0-.79.12-1.47.34-2.03s.54-.98.96-1.28c.42-.29.92-.44,1.5-.44s1.08.15,1.5.44c.42.29.74.72.96,1.28s.34,1.23.34,2.02-.11,1.47-.34,2.04-.54.99-.96,1.29c-.42.3-.92.44-1.5.44Zm0-1.11c.45,0,.81-.22,1.08-.67.26-.45.4-1.11.4-1.98,0-.58-.06-1.06-.18-1.46-.12-.39-.29-.69-.51-.89-.22-.2-.48-.3-.78-.3-.45,0-.81.22-1.07.67-.26.45-.4,1.11-.4,1.97,0,.58.06,1.07.18,1.46s.29.69.51.89c.22.2.48.3.79.3Z" fill="#334c8d"/>
    <path d="m429.32,113.58c-.51,0-.97-.09-1.36-.26-.4-.18-.71-.42-.94-.73s-.35-.67-.37-1.08h1.33c.01.2.08.37.2.51s.28.26.47.34c.2.08.42.12.66.12.26,0,.49-.05.69-.14s.36-.22.47-.38c.11-.16.17-.35.17-.56,0-.22-.05-.41-.17-.58-.12-.17-.28-.3-.5-.39-.22-.09-.48-.14-.79-.14h-.64v-1.02h.64c.25,0,.48-.04.67-.13s.34-.21.45-.37c.11-.16.16-.34.16-.56,0-.21-.04-.39-.14-.54-.09-.15-.23-.27-.39-.36-.17-.08-.37-.13-.59-.13s-.43.04-.62.12c-.19.08-.34.2-.46.34-.12.15-.18.32-.18.53h-1.27c0-.41.13-.77.35-1.07.23-.31.53-.55.91-.72s.8-.26,1.27-.26.91.09,1.27.27c.36.18.64.42.83.73.2.31.29.64.29,1.01,0,.41-.12.75-.36,1.03-.24.28-.56.46-.95.54v.06c.51.07.9.26,1.18.57s.41.69.41,1.14c0,.41-.12.77-.35,1.09-.23.32-.55.57-.95.75-.4.18-.87.27-1.39.27Z" fill="#334c8d"/>
    <path d="m435.91,113.62c-.58,0-1.09-.15-1.5-.45-.42-.3-.74-.73-.96-1.29-.22-.56-.34-1.24-.34-2.03,0-.79.12-1.47.34-2.03s.54-.98.96-1.28c.42-.29.92-.44,1.5-.44s1.08.15,1.5.44c.42.29.74.72.96,1.28s.34,1.23.34,2.02-.11,1.47-.34,2.04-.54.99-.96,1.29c-.42.3-.92.44-1.5.44Zm0-1.11c.45,0,.81-.22,1.08-.67.26-.45.4-1.11.4-1.98,0-.58-.06-1.06-.18-1.46-.12-.39-.29-.69-.51-.89-.22-.2-.48-.3-.78-.3-.45,0-.81.22-1.07.67-.26.45-.4,1.11-.4,1.97,0,.58.06,1.07.18,1.46s.29.69.51.89c.22.2.48.3.79.3Z" fill="#334c8d"/>
  </g>
  <text transform="translate(104.35 87.75)" fill="#334c8d" font-family="Inter-Bold, Inter" font-weight="700"><tspan x="0" y="0" font-size="18" letter-spacing="-.03em">6</tspan><tspan x="11.35" y="0" font-size="18">,2 </tspan><tspan x="32.31" y="0" font-size="12">p</tspan><tspan x="39.9" y="0" font-size="12" letter-spacing="-.03em">.</tspan><tspan x="43.06" y="0" xml:space="preserve" font-size="12"> b</tspan><tspan x="53.47" y="0" font-size="12" letter-spacing="-.03em">.</tspan></text>
  <text transform="translate(100.08 103.48)" fill="#334c8d" font-family="Inter-Bold, Inter" font-size="10" font-weight="700"><tspan x="0" y="0">Slunce a vítr</tspan></text>
  <text transform="translate(206.77 87.75)" fill="#334c8d" font-family="Inter-Bold, Inter" font-weight="700"><tspan x="0" y="0" font-size="18" letter-spacing="-.02em">5</tspan><tspan x="11.19" y="0" font-size="18" letter-spacing="-.03em">,</tspan><tspan x="16.11" y="0" font-size="18">8 </tspan><tspan x="32.18" y="0" font-size="12">p</tspan><tspan x="39.77" y="0" font-size="12" letter-spacing="-.03em">.</tspan><tspan x="42.94" y="0" xml:space="preserve" font-size="12"> b</tspan><tspan x="53.34" y="0" font-size="12" letter-spacing="-.03em">.</tspan></text>
  <g>
    <path d="m204.07,103.48v-7.27h4.9v1.27h-3.36v1.73h3.11v1.27h-3.11v1.74h3.38v1.27h-4.92Z" fill="#334c8d"/>
    <path d="m211.68,100.32v3.15h-1.51v-5.45h1.44v.96h.06c.12-.32.32-.57.61-.75s.63-.28,1.03-.28c.38,0,.71.08.99.25.28.17.5.4.66.71s.23.67.23,1.1v3.47h-1.51v-3.2c0-.33-.08-.59-.26-.78-.17-.19-.41-.28-.71-.28-.2,0-.38.04-.54.13-.16.09-.28.21-.36.38-.09.17-.13.37-.13.6Z" fill="#334c8d"/>
    <path d="m218.87,103.58c-.56,0-1.04-.12-1.45-.34-.4-.23-.71-.55-.93-.97s-.33-.92-.33-1.49.11-1.05.33-1.48.53-.75.92-.99.86-.36,1.4-.36c.36,0,.7.06,1.01.17.31.12.58.29.82.52.23.23.42.52.54.87.13.35.2.75.2,1.21v.42h-4.61v-.94h3.18c0-.22-.05-.41-.14-.58s-.23-.3-.39-.4-.36-.14-.58-.14-.43.05-.61.16c-.18.11-.31.25-.41.42-.1.18-.15.37-.15.59v.89c0,.27.05.5.15.7s.24.35.43.46c.18.11.4.16.66.16.17,0,.32-.02.46-.07.14-.05.26-.12.36-.21.1-.09.17-.21.23-.35l1.4.09c-.07.34-.22.63-.44.88s-.5.45-.84.58c-.34.14-.74.21-1.19.21Z" fill="#334c8d"/>
    <path d="m222.36,103.48v-5.45h1.47v.95h.06c.1-.34.27-.6.5-.77s.5-.26.81-.26c.08,0,.16,0,.25.01s.16.02.23.04v1.34c-.07-.02-.17-.04-.29-.06-.12-.02-.24-.03-.34-.03-.22,0-.42.05-.59.14-.17.1-.31.23-.41.4-.1.17-.15.37-.15.59v3.09h-1.51Z" fill="#334c8d"/>
    <path d="m228.65,105.64c-.49,0-.91-.07-1.26-.2-.35-.13-.63-.32-.83-.54-.21-.23-.34-.49-.4-.77l1.4-.19c.04.11.11.21.2.31.09.09.21.17.37.23.15.06.34.09.56.09.33,0,.6-.08.81-.24.21-.16.32-.43.32-.8v-1h-.06c-.07.15-.17.29-.3.43-.13.13-.3.24-.51.33-.21.08-.46.13-.75.13-.41,0-.78-.1-1.12-.29-.33-.19-.6-.48-.8-.88-.2-.39-.3-.89-.3-1.5s.1-1.13.3-1.55.47-.72.8-.93c.33-.21.7-.31,1.1-.31.3,0,.56.05.77.15.21.1.37.23.5.38.13.15.22.3.29.45h.06v-.92h1.5v5.51c0,.46-.11.85-.34,1.16-.23.31-.54.55-.94.71-.4.16-.86.24-1.38.24Zm.03-3.38c.24,0,.45-.06.62-.18.17-.12.3-.3.39-.53.09-.23.14-.5.14-.82s-.04-.6-.13-.83c-.09-.23-.22-.42-.39-.55-.17-.13-.38-.2-.62-.2s-.46.07-.63.2c-.17.13-.3.32-.39.56-.09.24-.13.51-.13.82s.04.59.13.81.22.4.39.53c.17.12.38.19.63.19Z" fill="#334c8d"/>
    <path d="m235.01,103.58c-.56,0-1.04-.12-1.45-.34-.4-.23-.71-.55-.93-.97s-.33-.92-.33-1.49.11-1.05.33-1.48.53-.75.92-.99.86-.36,1.4-.36c.36,0,.7.06,1.01.17.31.12.58.29.82.52.23.23.42.52.54.87.13.35.2.75.2,1.21v.42h-4.61v-.94h3.18c0-.22-.05-.41-.14-.58s-.23-.3-.39-.4-.36-.14-.58-.14-.43.05-.61.16c-.18.11-.31.25-.41.42-.1.18-.15.37-.15.59v.89c0,.27.05.5.15.7s.24.35.43.46c.18.11.4.16.66.16.17,0,.32-.02.46-.07.14-.05.26-.12.36-.21.1-.09.17-.21.23-.35l1.4.09c-.07.34-.22.63-.44.88s-.5.45-.84.58c-.34.14-.74.21-1.19.21Z" fill="#334c8d"/>
    <path d="m241.4,98.02v1.13h-3.29v-1.13h3.29Zm-2.54-1.31h1.51v5.09c0,.14.02.25.06.32.04.08.1.13.18.16s.17.05.27.05c.07,0,.14,0,.21-.02.07-.01.12-.02.16-.03l.24,1.13c-.08.02-.18.05-.32.08-.14.03-.3.05-.5.06-.36.02-.68-.03-.96-.14s-.49-.29-.64-.52-.23-.53-.22-.89v-5.29Z" fill="#334c8d"/>
    <path d="m243.14,97.32c-.22,0-.42-.08-.58-.23-.16-.15-.24-.33-.24-.54s.08-.39.24-.54c.16-.15.35-.22.58-.22s.42.07.58.22c.16.15.24.33.24.54s-.08.39-.24.54c-.16.15-.35.23-.58.23Zm-.76,6.16v-5.45h1.51v5.45h-1.51Z" fill="#334c8d"/>
    <path d="m247.57,103.58c-.56,0-1.04-.12-1.44-.36s-.71-.57-.92-.99c-.21-.42-.32-.91-.32-1.46s.11-1.05.32-1.47c.22-.42.53-.75.93-.99.4-.24.88-.36,1.43-.36.48,0,.89.09,1.25.26.36.17.64.42.85.73.21.31.32.68.34,1.1h-1.43c-.04-.27-.15-.49-.32-.66s-.4-.25-.67-.25c-.23,0-.44.06-.61.19s-.31.31-.41.55c-.1.24-.15.53-.15.88s.05.64.14.89c.1.24.23.43.41.56.17.13.38.19.61.19.17,0,.33-.04.47-.11.14-.07.25-.18.34-.31.09-.13.15-.3.18-.49h1.43c-.02.42-.14.78-.34,1.1-.2.32-.48.56-.84.74-.36.18-.78.27-1.26.27Z" fill="#334c8d"/>
    <path d="m250.98,103.48v-7.27h1.51v7.27h-1.51Zm1.37-1.57v-1.81h.22l1.75-2.07h1.74l-2.35,2.74h-.36l-1,1.14Zm2.04,1.57l-1.61-2.38,1.01-1.07,2.37,3.44h-1.77Z" fill="#334c8d"/>
    <path d="m258.35,103.58c-.35,0-.66-.06-.93-.18-.27-.12-.49-.3-.64-.54s-.24-.54-.24-.9c0-.3.06-.56.17-.76.11-.21.26-.37.46-.5.19-.12.41-.22.66-.29.25-.06.5-.11.77-.13.32-.03.57-.06.77-.09s.33-.07.42-.13c.09-.06.13-.15.13-.26v-.02c0-.22-.07-.4-.21-.52s-.34-.18-.6-.18c-.27,0-.49.06-.65.18-.16.12-.27.27-.32.45l-1.4-.11c.07-.33.21-.62.42-.86.21-.24.48-.43.81-.56s.71-.2,1.15-.2c.3,0,.59.04.87.11.28.07.53.18.74.33.22.15.39.34.51.57.12.23.19.51.19.84v3.68h-1.43v-.76h-.04c-.09.17-.21.32-.35.45-.15.13-.32.23-.53.3-.21.07-.44.11-.71.11Zm.43-1.04c.22,0,.42-.04.59-.13.17-.09.3-.21.4-.36.1-.15.15-.32.15-.52v-.58s-.11.06-.19.08c-.08.03-.17.05-.28.07s-.2.04-.31.05c-.1.02-.19.03-.28.04-.18.03-.33.07-.47.12-.13.06-.24.13-.31.23s-.11.21-.11.36c0,.21.08.36.23.47s.34.16.57.16Zm-.16-5.21l.75-1.62h1.4l-1.08,1.62h-1.07Z" fill="#334c8d"/>
    <path d="m215.37,111.15v-3.13h1.51v5.45h-1.45v-.99h-.06c-.12.32-.33.58-.61.77-.29.19-.63.29-1.04.29-.36,0-.69-.08-.96-.25-.28-.16-.49-.4-.65-.71-.16-.31-.23-.67-.24-1.1v-3.47h1.51v3.2c0,.32.09.58.26.76.17.19.4.28.69.28.18,0,.35-.04.51-.12.16-.08.29-.21.39-.38.1-.17.15-.37.14-.62Zm-1.53-3.83l.75-1.62h1.4l-1.08,1.62h-1.07Z" fill="#334c8d"/>
    <path d="m220.55,113.58c-.56,0-1.04-.12-1.44-.36s-.71-.57-.92-.99c-.21-.42-.32-.91-.32-1.46s.11-1.05.32-1.47c.22-.42.53-.75.93-.99.4-.24.88-.36,1.43-.36.48,0,.89.09,1.25.26.36.17.64.42.85.73.21.31.32.68.34,1.1h-1.43c-.04-.27-.15-.49-.32-.66s-.4-.25-.67-.25c-.23,0-.44.06-.61.19s-.31.31-.41.55c-.1.24-.15.53-.15.88s.05.64.14.89c.1.24.23.43.41.56.17.13.38.19.61.19.17,0,.33-.04.47-.11.14-.07.25-.18.34-.31.09-.13.15-.3.18-.49h1.43c-.02.42-.14.78-.34,1.1-.2.32-.48.56-.84.74-.36.18-.78.27-1.26.27Zm-.72-7.83l.71.87.71-.87h1.29v.05l-1.44,1.56h-1.13l-1.44-1.56v-.05h1.29Z" fill="#334c8d"/>
    <path d="m224.72,107.32c-.22,0-.42-.08-.58-.23-.16-.15-.24-.33-.24-.54s.08-.39.24-.54c.16-.15.35-.22.58-.22s.42.07.58.22c.16.15.24.33.24.54s-.08.39-.24.54c-.16.15-.35.23-.58.23Zm-.76,6.16v-5.45h1.51v5.45h-1.51Z" fill="#334c8d"/>
    <path d="m228.2,110.32v3.15h-1.51v-5.45h1.44v.96h.06c.12-.32.32-.57.61-.75s.63-.28,1.03-.28c.38,0,.71.08.99.25.28.17.5.4.66.71s.23.67.23,1.1v3.47h-1.51v-3.2c0-.33-.08-.59-.26-.78-.17-.19-.41-.28-.71-.28-.2,0-.38.04-.54.13-.16.09-.28.21-.36.38-.09.17-.13.37-.13.6Z" fill="#334c8d"/>
    <path d="m234.41,110.32v3.15h-1.51v-5.45h1.44v.96h.06c.12-.32.32-.57.61-.75s.63-.28,1.03-.28c.38,0,.71.08.99.25.28.17.5.4.66.71s.23.67.23,1.1v3.47h-1.51v-3.2c0-.33-.08-.59-.26-.78-.17-.19-.41-.28-.71-.28-.2,0-.38.04-.54.13-.16.09-.28.21-.36.38-.09.17-.13.37-.13.6Z" fill="#334c8d"/>
    <path d="m241.58,113.58c-.55,0-1.03-.12-1.43-.35s-.71-.56-.93-.99c-.22-.42-.33-.91-.33-1.47s.11-1.06.33-1.48c.22-.42.53-.75.93-.99s.88-.35,1.43-.35,1.03.12,1.43.35c.4.24.71.56.93.99.22.42.33.91.33,1.48s-.11,1.05-.33,1.47c-.22.42-.53.75-.93.99-.4.24-.88.35-1.43.35Zm0-1.17c.25,0,.46-.07.63-.21.17-.14.29-.34.38-.59.09-.25.13-.53.13-.85s-.04-.6-.13-.85c-.09-.25-.21-.45-.38-.59s-.38-.22-.63-.22-.47.07-.64.22c-.17.14-.3.34-.39.59-.09.25-.13.53-.13.85s.04.6.13.85c.09.25.22.44.39.59.17.14.38.21.64.21Z" fill="#334c8d"/>
    <path d="m249.79,109.58l-1.38.09c-.02-.12-.07-.23-.15-.32s-.18-.17-.31-.23c-.13-.06-.28-.09-.45-.09-.23,0-.43.05-.59.15-.16.1-.24.23-.24.39,0,.13.05.24.16.33s.28.16.54.22l.99.2c.53.11.93.29,1.19.53.26.24.39.56.39.95,0,.36-.11.67-.31.94-.21.27-.5.48-.86.63s-.78.23-1.26.23c-.72,0-1.3-.15-1.72-.45s-.68-.71-.75-1.23l1.49-.08c.04.22.15.39.33.5.17.12.39.17.66.17s.48-.05.64-.15c.16-.1.25-.24.25-.4,0-.14-.06-.25-.17-.34-.11-.09-.29-.16-.53-.2l-.94-.19c-.53-.11-.93-.29-1.19-.55-.26-.26-.39-.6-.39-1.01,0-.35.1-.65.29-.9.19-.25.46-.45.81-.59.35-.14.75-.21,1.22-.21.69,0,1.23.15,1.63.44.4.29.63.69.69,1.19Z" fill="#334c8d"/>
    <path d="m253.78,108.02v1.13h-3.29v-1.13h3.29Zm-2.54-1.31h1.51v5.09c0,.14.02.25.06.32.04.08.1.13.18.16s.17.05.27.05c.07,0,.14,0,.21-.02.07-.01.12-.02.16-.03l.24,1.13c-.08.02-.18.05-.32.08-.14.03-.3.05-.5.06-.36.02-.68-.03-.96-.14s-.49-.29-.64-.52-.23-.53-.22-.89v-5.29Z" fill="#334c8d"/>
  </g>
  <text transform="translate(302.91 87.75)" fill="#334c8d" font-family="Inter-Bold, Inter" font-weight="700"><tspan x="0" y="0" font-size="18">4 </tspan><tspan x="16.38" y="0" font-size="12" letter-spacing="0em">p</tspan><tspan x="23.97" y="0" font-size="12" letter-spacing="-.03em">.</tspan><tspan x="27.13" y="0" xml:space="preserve" font-size="12"> b</tspan><tspan x="37.53" y="0" font-size="12" letter-spacing="-.03em">.</tspan></text>
  <text transform="translate(302.36 103.48)" fill="#334c8d" font-family="Inter-Bold, Inter" font-size="10" font-weight="700"><tspan x="0" y="0">Biomasa</tspan></text>
</svg>