<?xml version="1.0" encoding="utf-8"?>
<!-- Generator: Adobe Illustrator 27.3.1, SVG Export Plug-In . SVG Version: 6.00 Build 0)  -->
<svg version="1.1" id="Layer_1" xmlns="http://www.w3.org/2000/svg" xmlns:xlink="http://www.w3.org/1999/xlink" x="0px" y="0px"
	 viewBox="0 0 439.4 125.6" style="enable-background:new 0 0 439.4 125.6;" xml:space="preserve">
<style type="text/css">
	.st0{fill:#FFFFFF;stroke:#7F8085;stroke-width:0.6;stroke-miterlimit:10;}
	.st1{fill:none;stroke:#7F8085;stroke-width:0.6;stroke-miterlimit:10;}
	.st2{fill:none;stroke:#FFFFFF;stroke-width:2;stroke-miterlimit:10;}
	.st3{fill:#FFFFFF;}
	.st4{fill:#7F8085;}
	.st5{fill:none;stroke:#7F8085;stroke-width:0.6;stroke-linejoin:bevel;}
	.st6{fill:none;stroke:#7F8085;stroke-width:0.6;stroke-miterlimit:10;stroke-dasharray:0,0,2.03,1.01;}
	.st7{fill:none;stroke:#7F8085;stroke-width:0.6;stroke-miterlimit:10;stroke-dasharray:0,0,2.08,1.04;}
	.st8{fill:none;stroke:#7F8085;stroke-width:0.6;stroke-linecap:square;stroke-miterlimit:10;}
	.st9{enable-background:new    ;}
	.st10{fill:#334C8D;}
</style>
<g>
	<path class="st0" d="M320.4,48.4c-1.9-1.9,1.1-5.9,5.6-5.6C326.3,47.3,322.3,50.2,320.4,48.4z"/>
	<g>
		<path class="st0" d="M318,45.4c-3.1,1.5-6.8-4-4.4-9.4C319.3,37.7,321.1,43.9,318,45.4z"/>
		<path class="st1" d="M319,53.3c0.3-9.8-5.3-17.1-5.3-17.1"/>
	</g>
	<path class="st1" d="M326,42.8c-2.4,1.6-6.7,4.2-6.7,10.5"/>
	<line class="st1" x1="331.4" y1="61.4" x2="335.8" y2="61.4"/>
	<polyline class="st0" points="320.2,61.4 331.2,61.4 329.8,56.9 324.4,55.3 323.2,52.4 316.4,50.5 313.2,52.4 310.4,61.4 
		306.1,61.4 	"/>
	<polyline class="st0" points="315.2,53.5 316.8,52.5 321.6,53.5 	"/>
	<polyline class="st0" points="327,59.3 326.6,57.7 321.7,57.5 	"/>
	<line class="st1" x1="314" y1="57.4" x2="316.5" y2="57.4"/>
	<polyline class="st1" points="312.4,61.4 318.4,61.4 319.7,63.6 	"/>
	<polyline class="st0" points="319.1,55.3 318.2,57.3 319.8,57.3 318.9,59.6 	"/>
</g>
<g>
	<polyline class="st2" points="224.7,61.5 224.7,43.3 234.7,31.8 245.4,43 	"/>
	<g>
		<circle class="st0" cx="241.9" cy="56.6" r="5"/>
		<g>
			<g>
				<path class="st3" d="M241.8,53.3c-0.9,3.1,1.2,3,0,6.6"/>
				<g>
					<path class="st1" d="M241.6,54.1c-0.3,2.3,1.3,2.5,0.2,5.8"/>
					<polygon class="st4" points="241,54.2 241.8,53.3 242.2,54.4 					"/>
				</g>
			</g>
			<g>
				<path class="st3" d="M243.8,54.1c-0.7,2.3,0.9,2.2,0,4.9"/>
				<g>
					<path class="st1" d="M243.6,55c-0.1,1.5,0.9,1.8,0.2,4.1"/>
					<polygon class="st4" points="243,55.1 243.8,54.1 244.2,55.3 					"/>
				</g>
			</g>
			<g>
				<path class="st3" d="M239.9,54.1c-0.7,2.3,0.9,2.2,0,4.9"/>
				<g>
					<path class="st1" d="M239.7,55c-0.1,1.5,0.9,1.8,0.2,4.1"/>
					<polygon class="st4" points="239.1,55.1 239.9,54.1 240.3,55.3 					"/>
				</g>
			</g>
		</g>
	</g>
	<polyline class="st1" points="214,61.2 222.7,61.2 222.7,61.2 222.7,47.5 218.2,47.5 234.8,27.8 245.4,39.4 	"/>
	<g>
		<polyline class="st5" points="234.7,58.5 227.8,58.5 231.2,56 		"/>
		<polygon class="st4" points="231.4,56.6 231.9,55.5 230.7,55.7 		"/>
	</g>
	<g>
		<polyline class="st5" points="238.6,48.9 236.9,39 240.3,41.9 		"/>
		<polygon class="st4" points="239.8,42.2 240.9,42.5 240.5,41.3 		"/>
	</g>
	<g>
		<polyline class="st5" points="234.7,53.7 227.9,52.2 231.4,50.4 		"/>
		<polygon class="st4" points="231.6,51 232.2,50 231,49.9 		"/>
	</g>
	<g>
		<polyline class="st5" points="236.5,49.9 227.9,43.8 231.4,42.5 		"/>
		<polygon class="st4" points="231.4,43.1 232.2,42.2 231,42 		"/>
	</g>
	<g>
		<line class="st1" x1="224.7" y1="61.5" x2="224.7" y2="60.5"/>
		<polyline class="st6" points="224.7,59.5 224.7,43.3 233.7,33 		"/>
		<polyline class="st1" points="234.1,32.6 234.7,31.8 235.4,32.5 		"/>
		<line class="st7" x1="236.1" y1="33.3" x2="244.4" y2="41.9"/>
		<line class="st1" x1="244.8" y1="42.3" x2="245.4" y2="43"/>
	</g>
</g>
<g>
	<polyline class="st1" points="111,58.9 126.2,58.9 136.2,41.5 	"/>
	<g>
		<polygon class="st0" points="125.4,57.8 111.2,57.8 121.4,40.1 135.6,40.1 		"/>
		<line class="st1" x1="125" y1="40.1" x2="114.8" y2="57.8"/>
		<line class="st1" x1="128.5" y1="40.1" x2="118.3" y2="57.8"/>
		<line class="st1" x1="132" y1="40.1" x2="121.8" y2="57.8"/>
		<line class="st1" x1="133.5" y1="43.7" x2="119.4" y2="43.7"/>
		<line class="st1" x1="131.5" y1="47.2" x2="117.3" y2="47.2"/>
		<line class="st1" x1="129.4" y1="50.7" x2="115.3" y2="50.7"/>
		<line class="st1" x1="127.4" y1="54.3" x2="113.3" y2="54.3"/>
	</g>
	<circle class="st0" cx="117.3" cy="27.7" r="3.4"/>
	<g>
		<g id="_Radial_Repeat_">
			<line class="st1" x1="117.3" y1="35" x2="117.3" y2="33.1"/>
		</g>
		<g id="_Radial_Repeat_-2">
			<line class="st1" x1="114.5" y1="34.5" x2="115.3" y2="32.7"/>
		</g>
		<g id="_Radial_Repeat_-3">
			<line class="st1" x1="112.2" y1="32.9" x2="113.5" y2="31.5"/>
		</g>
		<g id="_Radial_Repeat_-4">
			<line class="st1" x1="110.6" y1="30.5" x2="112.4" y2="29.8"/>
		</g>
		<g id="_Radial_Repeat_-5">
			<line class="st1" x1="110" y1="27.7" x2="111.9" y2="27.7"/>
		</g>
		<g id="_Radial_Repeat_-6">
			<line class="st1" x1="110.6" y1="24.9" x2="112.4" y2="25.6"/>
		</g>
		<g id="_Radial_Repeat_-7">
			<line class="st1" x1="112.2" y1="22.5" x2="113.5" y2="23.9"/>
		</g>
		<g id="_Radial_Repeat_-8">
			<line class="st1" x1="114.5" y1="20.9" x2="115.3" y2="22.7"/>
		</g>
		<g id="_Radial_Repeat_-9">
			<line class="st1" x1="117.3" y1="20.4" x2="117.3" y2="22.3"/>
		</g>
		<g id="_Radial_Repeat_-10">
			<line class="st1" x1="120.2" y1="20.9" x2="119.4" y2="22.7"/>
		</g>
		<g id="_Radial_Repeat_-11">
			<line class="st1" x1="122.5" y1="22.5" x2="121.2" y2="23.9"/>
		</g>
		<g id="_Radial_Repeat_-12">
			<line class="st1" x1="124.1" y1="24.9" x2="122.3" y2="25.6"/>
		</g>
		<g id="_Radial_Repeat_-13">
			<line class="st1" x1="124.7" y1="27.7" x2="122.8" y2="27.7"/>
		</g>
		<g id="_Radial_Repeat_-14">
			<line class="st1" x1="124.1" y1="30.5" x2="122.3" y2="29.8"/>
		</g>
		<g id="_Radial_Repeat_-15">
			<line class="st1" x1="122.5" y1="32.9" x2="121.2" y2="31.5"/>
		</g>
		<g id="_Radial_Repeat_-16">
			<line class="st1" x1="120.2" y1="34.5" x2="119.4" y2="32.7"/>
		</g>
	</g>
	<rect x="132" y="53.9" class="st0" width="4.6" height="6.2"/>
	<line class="st8" x1="114.8" y1="58.9" x2="114.8" y2="61.3"/>
	<line class="st8" x1="121.8" y1="58.9" x2="121.8" y2="61.3"/>
	<line class="st1" x1="134.4" y1="44.5" x2="134.4" y2="53.9"/>
	<line class="st1" x1="127.4" y1="56.7" x2="132" y2="56.7"/>
	<line class="st1" x1="130.9" y1="61.3" x2="138" y2="61.3"/>
	<polyline class="st1" points="134.4,55.2 133.6,57 135,57 134.2,59.1 	"/>
	<g>
		<g>
			<g id="_Radial_Repeat_-17">
				<path class="st0" d="M149.6,46.6c0,0-0.4-7.9-4.8-10.6c-0.1,0.1-0.3,0.2-0.4,0.3l-1.1-1.6l-0.7,0.4l0.8,1.5l0.2,0.4l0.4,0.7
					l5,9.3L149.6,46.6L149.6,46.6z"/>
			</g>
			<g id="_Radial_Repeat_-18">
				<path class="st0" d="M128.6,34.2c0,0,7,3.6,11.6,1.2c0-0.2-0.1-0.4-0.1-0.5l1.9-0.2l0-0.8l-1.6,0h-0.5l-0.8,0l-10.6-0.3
					L128.6,34.2L128.6,34.2z"/>
			</g>
			<g id="_Radial_Repeat_-19">
				<path class="st0" d="M149.8,22.2c0,0-6.6,4.3-6.8,9.5c0.2,0.1,0.4,0.1,0.5,0.2l-0.8,1.7l0.7,0.4l0.9-1.4l0.2-0.4l0.4-0.6l5.5-9
					L149.8,22.2L149.8,22.2z"/>
			</g>
		</g>
		<line class="st1" x1="139.2" y1="61.3" x2="146.4" y2="61.3"/>
		<path class="st1" d="M130.4,29.2c4,2.1,6.9-1.8,10.3,0"/>
		<path class="st1" d="M136.4,27.3c0.1,0,0.2-0.1,0.4-0.1c1.5-0.4,3-0.8,4.5,0"/>
		<path class="st1" d="M131.8,24.9c4,2.1,6.9-1.8,10.3,0"/>
		<g>
			<polygon class="st3" points="144.2,53.9 143.2,34.5 142.2,34.5 141.3,53.9 140.5,53.9 140.5,60.1 145.1,60.1 145.1,53.9 			"/>
			<polygon class="st1" points="144.2,53.9 143.2,34.5 142.2,34.5 141.3,53.9 140.5,53.9 140.5,60.1 145.1,60.1 145.1,53.9 			"/>
		</g>
		<polyline class="st0" points="142.9,55.1 142.1,56.9 143.5,56.9 142.7,58.9 		"/>
		<polyline class="st0" points="142.9,55.1 142.1,56.9 143.5,56.9 142.7,58.9 		"/>
		<circle class="st0" cx="142.6" cy="34.4" r="1.3"/>
	</g>
</g>
<g class="st9">
	<path class="st10" d="M6.3,75.5v13.1H3.6V78.1H3.5l-3,1.9v-2.5l3.2-2.1H6.3z"/>
	<path class="st10" d="M10,88.6l5.4-10.7v-0.1H9.1v-2.3h9.2v2.3l-5.4,10.8H10z"/>
	<path class="st10" d="M24.8,78.6V78c0-0.5,0.1-1,0.3-1.5c0.2-0.4,0.6-0.8,1-1.1S27,75,27.6,75c0.6,0,1.2,0.1,1.6,0.4s0.8,0.6,1,1.1
		c0.2,0.4,0.3,0.9,0.3,1.5v0.7c0,0.5-0.1,1-0.3,1.5c-0.2,0.4-0.5,0.8-1,1.1c-0.4,0.3-1,0.4-1.6,0.4s-1.1-0.1-1.6-0.4
		c-0.4-0.3-0.8-0.6-1-1.1C24.9,79.6,24.8,79.2,24.8,78.6z M25.6,88.6l9-13.1h1.7l-9,13.1H25.6z M26.6,78v0.7c0,0.3,0.1,0.6,0.2,0.9
		s0.4,0.4,0.8,0.4c0.4,0,0.7-0.1,0.8-0.4c0.1-0.3,0.2-0.6,0.2-0.9V78c0-0.3-0.1-0.6-0.2-0.9s-0.4-0.4-0.8-0.4
		c-0.4,0-0.6,0.1-0.8,0.4S26.6,77.7,26.6,78z M31.5,86.1v-0.7c0-0.5,0.1-1,0.3-1.4s0.5-0.8,1-1.1c0.4-0.3,1-0.4,1.6-0.4
		c0.6,0,1.2,0.1,1.6,0.4c0.4,0.3,0.8,0.6,1,1.1c0.2,0.4,0.3,0.9,0.3,1.5v0.7c0,0.5-0.1,1-0.3,1.4s-0.5,0.8-1,1.1
		c-0.4,0.3-1,0.4-1.6,0.4c-0.6,0-1.2-0.1-1.6-0.4c-0.4-0.3-0.8-0.6-1-1.1C31.6,87.1,31.5,86.7,31.5,86.1z M33.3,85.4v0.7
		c0,0.3,0.1,0.6,0.2,0.9s0.4,0.4,0.8,0.4s0.7-0.1,0.8-0.4c0.1-0.3,0.2-0.6,0.2-0.9v-0.7c0-0.3-0.1-0.6-0.2-0.9
		c-0.1-0.3-0.4-0.4-0.8-0.4c-0.4,0-0.6,0.1-0.8,0.4C33.4,84.8,33.3,85.1,33.3,85.4z"/>
</g>
<g class="st9">
	<path class="st10" d="M177,84.6v-1h6.1v1H177z M179.6,87.1V81h1v6.1H179.6z"/>
</g>
<g class="st9">
	<path class="st10" d="M70.8,84.6v-1h6.1v1H70.8z M73.3,87.1V81h1v6.1H73.3z"/>
</g>
<g class="st9">
	<path class="st10" d="M279.3,84.6v-1h6.1v1H279.3z M281.8,87.1V81h1v6.1H281.8z"/>
</g>
<g class="st9">
	<path class="st10" d="M359.6,87.8l-0.7-0.7l2.9-2.9h-7.6v-1h7.6l-2.9-2.9l0.7-0.7l4.1,4.1L359.6,87.8z"/>
</g>
<g>
	<path class="st10" d="M1.1,103.5v-7.3h2.7c0.6,0,1,0.1,1.4,0.3C5.7,96.7,6,97,6.2,97.4c0.2,0.4,0.3,0.8,0.3,1.2
		c0,0.5-0.1,0.9-0.3,1.2s-0.5,0.7-0.9,0.9c-0.4,0.2-0.9,0.3-1.4,0.3H2.1v-1.1h1.6c0.3,0,0.6-0.1,0.8-0.2s0.4-0.3,0.5-0.5
		c0.1-0.2,0.2-0.4,0.2-0.7c0-0.3-0.1-0.5-0.2-0.7s-0.3-0.3-0.5-0.5c-0.2-0.1-0.5-0.2-0.8-0.2H2.5v6.2L1.1,103.5L1.1,103.5z"/>
	<path class="st10" d="M9.8,103.6c-0.5,0-1-0.1-1.4-0.3s-0.7-0.6-0.9-1c-0.2-0.4-0.3-0.9-0.3-1.5c0-0.6,0.1-1.1,0.3-1.5
		c0.2-0.4,0.5-0.8,0.9-1C8.8,98.1,9.3,98,9.8,98s1,0.1,1.4,0.4s0.7,0.6,0.9,1c0.2,0.4,0.3,0.9,0.3,1.5c0,0.6-0.1,1.1-0.3,1.5
		s-0.5,0.8-0.9,1C10.8,103.5,10.3,103.6,9.8,103.6z M9.8,102.6c0.3,0,0.5-0.1,0.7-0.2c0.2-0.2,0.3-0.4,0.4-0.6
		c0.1-0.3,0.1-0.6,0.1-0.9s-0.1-0.6-0.1-0.9c-0.1-0.3-0.2-0.5-0.4-0.6S10.1,99,9.8,99s-0.5,0.1-0.7,0.2c-0.2,0.2-0.3,0.4-0.4,0.6
		c-0.1,0.3-0.1,0.6-0.1,0.9c0,0.3,0.1,0.6,0.1,0.9s0.2,0.5,0.4,0.6C9.3,102.5,9.5,102.6,9.8,102.6z"/>
	<path class="st10" d="M15.6,103.6c-0.4,0-0.8-0.1-1.1-0.3s-0.6-0.5-0.8-1s-0.3-0.9-0.3-1.5c0-0.6,0.1-1.1,0.3-1.5s0.5-0.7,0.8-0.9
		c0.3-0.2,0.7-0.3,1.1-0.3c0.3,0,0.6,0.1,0.8,0.2c0.2,0.1,0.4,0.2,0.5,0.4c0.1,0.2,0.2,0.3,0.3,0.4h0v-2.7h1.3v7.3h-1.3v-0.9h-0.1
		c-0.1,0.1-0.2,0.3-0.3,0.4c-0.1,0.1-0.3,0.3-0.5,0.4C16.1,103.5,15.9,103.6,15.6,103.6L15.6,103.6z M15.9,102.5
		c0.3,0,0.5-0.1,0.7-0.2c0.2-0.2,0.3-0.4,0.4-0.6c0.1-0.3,0.1-0.6,0.1-0.9s0-0.7-0.1-0.9c-0.1-0.3-0.2-0.5-0.4-0.6
		c-0.2-0.1-0.4-0.2-0.7-0.2s-0.5,0.1-0.7,0.2c-0.2,0.1-0.3,0.4-0.4,0.6c-0.1,0.3-0.1,0.6-0.1,0.9c0,0.3,0.1,0.6,0.1,0.9
		s0.2,0.5,0.4,0.6C15.4,102.4,15.6,102.5,15.9,102.5L15.9,102.5z"/>
	<path class="st10" d="M19.8,103.5V98h1.3v5.4C21.1,103.5,19.8,103.5,19.8,103.5z M20,97.3l0.8-1.6H22l-1.1,1.6
		C20.9,97.3,20,97.3,20,97.3z"/>
	<path class="st10" d="M23.7,96.2v7.3h-1.3v-7.3C22.4,96.2,23.7,96.2,23.7,96.2z"/>
	<path class="st10" d="M34.1,99.8c0,0.8-0.2,1.4-0.4,2c-0.3,0.6-0.7,1-1.2,1.3c-0.5,0.3-1.1,0.4-1.7,0.4s-1.2-0.2-1.7-0.4
		c-0.5-0.3-0.9-0.7-1.2-1.3s-0.4-1.2-0.4-2s0.1-1.4,0.4-2s0.7-1,1.2-1.3c0.5-0.3,1.1-0.4,1.7-0.4s1.2,0.1,1.7,0.4
		c0.5,0.3,0.9,0.7,1.2,1.3S34.1,99.1,34.1,99.8L34.1,99.8z M32.8,99.8c0-0.6-0.1-1-0.3-1.4s-0.4-0.7-0.7-0.9s-0.6-0.3-1-0.3
		s-0.7,0.1-1,0.3c-0.3,0.2-0.5,0.5-0.7,0.9c-0.2,0.4-0.3,0.8-0.3,1.4s0.1,1,0.3,1.4c0.2,0.4,0.4,0.7,0.7,0.9c0.3,0.2,0.6,0.3,1,0.3
		s0.8-0.1,1-0.3s0.5-0.5,0.7-0.9C32.7,100.9,32.8,100.4,32.8,99.8z"/>
	<path class="st10" d="M35.2,103.5v-0.8l3.7-5.3h-3.8v-1.1h5.4V97l-3.7,5.3h3.8v1.1H35.2L35.2,103.5z"/>
	<path class="st10" d="M41.9,103.5v-7.3h4.7v1.1h-3.4v2h3.2v1.1h-3.2v2h3.4v1.1L41.9,103.5L41.9,103.5z"/>
	<path class="st10" d="M6,108L4,113.5H2.6L0.7,108H2l1.2,4.1h0.1l1.3-4.1H6L6,108z"/>
	<path class="st10" d="M9.3,113.5V108h1.2v0.9h0.1c0.1-0.3,0.3-0.6,0.5-0.7c0.2-0.2,0.5-0.3,0.8-0.3c0.1,0,0.1,0,0.2,0s0.2,0,0.2,0
		v1.2c-0.1,0-0.1,0-0.3-0.1c-0.1,0-0.2,0-0.3,0c-0.2,0-0.4,0.1-0.6,0.1c-0.2,0.1-0.3,0.2-0.4,0.4c-0.1,0.2-0.2,0.4-0.2,0.6v3.2H9.3
		L9.3,113.5z"/>
	<path class="st10" d="M15.4,113.6c-0.5,0-1-0.1-1.4-0.3s-0.7-0.6-0.9-1c-0.2-0.4-0.3-0.9-0.3-1.5c0-0.6,0.1-1.1,0.3-1.5
		c0.2-0.4,0.5-0.8,0.9-1c0.4-0.2,0.9-0.4,1.4-0.4s1,0.1,1.4,0.4s0.7,0.6,0.9,1c0.2,0.4,0.3,0.9,0.3,1.5c0,0.6-0.1,1.1-0.3,1.5
		s-0.5,0.8-0.9,1C16.4,113.5,16,113.6,15.4,113.6z M15.4,112.6c0.3,0,0.5-0.1,0.7-0.2c0.2-0.2,0.3-0.4,0.4-0.6
		c0.1-0.3,0.1-0.6,0.1-0.9s0-0.6-0.1-0.9c-0.1-0.3-0.2-0.5-0.4-0.6s-0.4-0.2-0.7-0.2s-0.5,0.1-0.7,0.2c-0.2,0.2-0.3,0.4-0.4,0.6
		c-0.1,0.3-0.1,0.6-0.1,0.9c0,0.3,0.1,0.6,0.1,0.9s0.2,0.5,0.4,0.6C14.9,112.5,15.1,112.6,15.4,112.6z"/>
	<path class="st10" d="M21.5,113.6c-0.5,0-1-0.1-1.4-0.4c-0.4-0.2-0.7-0.6-0.9-1s-0.3-0.9-0.3-1.5c0-0.5,0.1-1,0.3-1.5
		c0.2-0.4,0.5-0.8,0.9-1c0.4-0.2,0.9-0.4,1.4-0.4c0.4,0,0.8,0.1,1.2,0.2c0.3,0.2,0.6,0.4,0.8,0.7c0.2,0.3,0.3,0.6,0.4,1h-1.2
		c0-0.3-0.2-0.5-0.4-0.7c-0.2-0.2-0.4-0.3-0.7-0.3c-0.3,0-0.5,0.1-0.7,0.2s-0.4,0.3-0.5,0.6s-0.2,0.6-0.2,0.9s0,0.7,0.2,1
		c0.1,0.3,0.3,0.5,0.5,0.6c0.2,0.1,0.4,0.2,0.7,0.2c0.2,0,0.4,0,0.5-0.1c0.1-0.1,0.3-0.2,0.4-0.3c0.1-0.1,0.2-0.3,0.2-0.5h1.2
		c0,0.4-0.1,0.7-0.3,1c-0.2,0.3-0.5,0.5-0.8,0.7S22,113.6,21.5,113.6L21.5,113.6z"/>
	<path class="st10" d="M27.3,113.6c-0.5,0-1-0.1-1.4-0.3s-0.7-0.6-0.9-1s-0.3-0.9-0.3-1.5c0-0.6,0.1-1.1,0.3-1.5
		c0.2-0.4,0.5-0.8,0.9-1c0.4-0.2,0.8-0.4,1.4-0.4c0.3,0,0.6,0.1,1,0.2c0.3,0.1,0.6,0.3,0.8,0.5c0.2,0.2,0.4,0.5,0.5,0.9
		c0.1,0.3,0.2,0.8,0.2,1.2v0.4h-4.5v-0.9h3.2c0-0.2-0.1-0.5-0.2-0.7s-0.2-0.3-0.4-0.5c-0.2-0.1-0.4-0.2-0.6-0.2
		c-0.3,0-0.5,0.1-0.7,0.2s-0.4,0.3-0.5,0.5c-0.1,0.2-0.2,0.4-0.2,0.7v0.8c0,0.3,0.1,0.6,0.2,0.8c0.1,0.2,0.3,0.4,0.5,0.5
		s0.5,0.2,0.7,0.2c0.2,0,0.4,0,0.5-0.1s0.3-0.1,0.4-0.2s0.2-0.2,0.2-0.4l1.2,0.1c-0.1,0.3-0.2,0.6-0.4,0.8s-0.5,0.4-0.8,0.6
		S27.8,113.6,27.3,113.6L27.3,113.6z"/>
	<path class="st10" d="M33.3,113.5v-0.9l2.5-2.5c0.2-0.2,0.4-0.5,0.6-0.7s0.3-0.4,0.4-0.6c0.1-0.2,0.1-0.4,0.1-0.6
		c0-0.2,0-0.4-0.2-0.6c-0.1-0.2-0.2-0.3-0.4-0.4s-0.4-0.1-0.6-0.1s-0.5,0.1-0.6,0.2c-0.2,0.1-0.3,0.2-0.4,0.4
		c-0.1,0.2-0.2,0.4-0.2,0.6h-1.2c0-0.5,0.1-0.9,0.3-1.2s0.5-0.6,0.9-0.8s0.8-0.3,1.3-0.3s0.9,0.1,1.3,0.3c0.4,0.2,0.7,0.4,0.9,0.8
		c0.2,0.3,0.3,0.7,0.3,1.1c0,0.3,0,0.5-0.2,0.8c-0.1,0.3-0.3,0.6-0.5,0.9c-0.3,0.3-0.6,0.7-1.1,1.2l-1.2,1.3v0.1h3.2v1.1L33.3,113.5
		L33.3,113.5z"/>
	<path class="st10" d="M42.2,113.6c-0.6,0-1.1-0.2-1.5-0.4c-0.4-0.3-0.7-0.7-1-1.3c-0.2-0.6-0.3-1.2-0.3-2c0-0.8,0.1-1.5,0.3-2
		s0.5-1,1-1.3c0.4-0.3,0.9-0.4,1.5-0.4s1.1,0.2,1.5,0.4c0.4,0.3,0.7,0.7,1,1.3s0.3,1.2,0.3,2s-0.1,1.5-0.3,2c-0.2,0.6-0.5,1-1,1.3
		S42.8,113.6,42.2,113.6L42.2,113.6z M42.2,112.5c0.5,0,0.8-0.2,1.1-0.7c0.3-0.4,0.4-1.1,0.4-2c0-0.6-0.1-1.1-0.2-1.5
		c-0.1-0.4-0.3-0.7-0.5-0.9c-0.2-0.2-0.5-0.3-0.8-0.3c-0.5,0-0.8,0.2-1.1,0.7s-0.4,1.1-0.4,2c0,0.6,0.1,1.1,0.2,1.5s0.3,0.7,0.5,0.9
		C41.7,112.4,41.9,112.5,42.2,112.5L42.2,112.5z"/>
	<path class="st10" d="M46.2,113.5v-0.9l2.5-2.5c0.2-0.2,0.4-0.5,0.6-0.7s0.3-0.4,0.4-0.6c0.1-0.2,0.1-0.4,0.1-0.6
		c0-0.2,0-0.4-0.2-0.6c-0.1-0.2-0.2-0.3-0.4-0.4s-0.4-0.1-0.6-0.1s-0.5,0.1-0.6,0.2c-0.2,0.1-0.3,0.2-0.4,0.4
		c-0.1,0.2-0.2,0.4-0.2,0.6h-1.2c0-0.5,0.1-0.9,0.3-1.2s0.5-0.6,0.9-0.8s0.8-0.3,1.3-0.3s0.9,0.1,1.3,0.3c0.4,0.2,0.7,0.4,0.9,0.8
		c0.2,0.3,0.3,0.7,0.3,1.1c0,0.3,0,0.5-0.2,0.8c-0.1,0.3-0.3,0.6-0.5,0.9c-0.3,0.3-0.6,0.7-1.1,1.2l-1.2,1.3v0.1h3.2v1.1L46.2,113.5
		L46.2,113.5z"/>
	<path class="st10" d="M55.4,106.2v7.3H54v-6h0l-1.7,1.1v-1.2l1.8-1.2C54.1,106.2,55.4,106.2,55.4,106.2z"/>
</g>
<g class="st9">
	<path class="st10" d="M385.9,88.3c-1,0-1.8-0.2-2.5-0.5s-1.3-0.8-1.8-1.4c-0.4-0.6-0.6-1.3-0.7-2h2.8c0,0.3,0.1,0.6,0.3,0.8
		c0.2,0.2,0.5,0.4,0.8,0.6c0.3,0.1,0.7,0.2,1.1,0.2c0.4,0,0.8-0.1,1.1-0.2c0.3-0.1,0.6-0.4,0.8-0.6c0.2-0.3,0.3-0.6,0.3-0.9
		c0-0.3-0.1-0.7-0.3-0.9s-0.5-0.5-0.8-0.6s-0.8-0.2-1.3-0.2h-1.2v-2h1.2c0.4,0,0.8-0.1,1.1-0.2c0.3-0.1,0.6-0.3,0.8-0.6
		c0.2-0.3,0.3-0.6,0.3-0.9c0-0.3-0.1-0.6-0.2-0.9c-0.2-0.2-0.4-0.4-0.7-0.6s-0.6-0.2-1-0.2c-0.4,0-0.7,0.1-1,0.2
		c-0.3,0.1-0.6,0.3-0.7,0.6s-0.3,0.5-0.3,0.9h-2.7c0-0.8,0.2-1.4,0.6-2s1-1,1.7-1.4c0.7-0.3,1.5-0.5,2.4-0.5c0.9,0,1.7,0.2,2.4,0.5
		c0.7,0.3,1.2,0.8,1.6,1.3c0.4,0.6,0.6,1.2,0.6,1.9c0,0.7-0.2,1.3-0.7,1.8c-0.5,0.5-1.1,0.8-1.8,0.9v0.1c1,0.1,1.7,0.5,2.2,1
		c0.5,0.5,0.8,1.2,0.8,2c0,0.7-0.2,1.4-0.6,2c-0.4,0.6-1,1-1.8,1.4C387.7,88.2,386.9,88.3,385.9,88.3z"/>
	<path class="st10" d="M397.8,88.3c-1,0-1.8-0.2-2.5-0.5s-1.3-0.8-1.8-1.4c-0.4-0.6-0.6-1.3-0.7-2h2.8c0,0.3,0.1,0.6,0.3,0.8
		c0.2,0.2,0.5,0.4,0.8,0.6c0.3,0.1,0.7,0.2,1.1,0.2c0.4,0,0.8-0.1,1.1-0.2c0.3-0.1,0.6-0.4,0.8-0.6c0.2-0.3,0.3-0.6,0.3-0.9
		c0-0.3-0.1-0.7-0.3-0.9s-0.5-0.5-0.8-0.6c-0.4-0.2-0.8-0.2-1.3-0.2h-1.2v-2h1.2c0.4,0,0.8-0.1,1.1-0.2c0.3-0.1,0.6-0.3,0.8-0.6
		c0.2-0.3,0.3-0.6,0.3-0.9c0-0.3-0.1-0.6-0.2-0.9c-0.2-0.2-0.4-0.4-0.7-0.6c-0.3-0.1-0.6-0.2-1-0.2c-0.4,0-0.7,0.1-1,0.2
		c-0.3,0.1-0.6,0.3-0.7,0.6s-0.3,0.5-0.3,0.9h-2.7c0-0.8,0.2-1.4,0.6-2s1-1,1.7-1.4c0.7-0.3,1.5-0.5,2.4-0.5c0.9,0,1.7,0.2,2.4,0.5
		s1.2,0.8,1.6,1.3c0.4,0.6,0.6,1.2,0.6,1.9c0,0.7-0.2,1.3-0.7,1.8c-0.5,0.5-1.1,0.8-1.8,0.9v0.1c1,0.1,1.7,0.5,2.2,1
		c0.5,0.5,0.8,1.2,0.8,2c0,0.7-0.2,1.4-0.6,2c-0.4,0.6-1,1-1.8,1.4C399.6,88.2,398.8,88.3,397.8,88.3z"/>
	<path class="st10" d="M409.4,78.2v-0.7c0-0.5,0.1-1,0.3-1.5c0.2-0.4,0.6-0.8,1-1.1s0.9-0.4,1.6-0.4c0.6,0,1.2,0.1,1.6,0.4
		s0.8,0.6,1,1.1c0.2,0.4,0.3,0.9,0.3,1.5v0.7c0,0.5-0.1,1-0.3,1.5c-0.2,0.4-0.5,0.8-1,1.1c-0.4,0.3-1,0.4-1.6,0.4
		c-0.6,0-1.1-0.1-1.6-0.4c-0.4-0.3-0.8-0.6-1-1.1C409.5,79.2,409.4,78.7,409.4,78.2z M410.3,88.1l9-13.1h1.7l-9,13.1H410.3z
		 M411.3,77.5v0.7c0,0.3,0.1,0.6,0.2,0.9s0.4,0.4,0.8,0.4c0.4,0,0.7-0.1,0.8-0.4c0.1-0.3,0.2-0.6,0.2-0.9v-0.7
		c0-0.3-0.1-0.6-0.2-0.9s-0.4-0.4-0.8-0.4c-0.4,0-0.6,0.1-0.8,0.4C411.4,76.9,411.3,77.2,411.3,77.5z M416.1,85.7V85
		c0-0.5,0.1-1,0.3-1.4s0.5-0.8,1-1.1c0.4-0.3,1-0.4,1.6-0.4c0.6,0,1.2,0.1,1.6,0.4c0.4,0.3,0.8,0.6,1,1.1c0.2,0.4,0.3,0.9,0.3,1.5
		v0.7c0,0.5-0.1,1-0.3,1.4s-0.5,0.8-1,1.1c-0.4,0.3-1,0.4-1.6,0.4c-0.6,0-1.2-0.1-1.6-0.4c-0.4-0.3-0.8-0.6-1-1.1
		C416.3,86.7,416.1,86.2,416.1,85.7z M418,85v0.7c0,0.3,0.1,0.6,0.2,0.9s0.4,0.4,0.8,0.4c0.4,0,0.7-0.1,0.8-0.4
		c0.1-0.3,0.2-0.6,0.2-0.9V85c0-0.3-0.1-0.6-0.2-0.9c-0.1-0.3-0.4-0.4-0.8-0.4c-0.4,0-0.7,0.1-0.8,0.4C418.1,84.4,418,84.7,418,85z"
		/>
</g>
<g>
	<path class="st10" d="M381.6,103.5v-7.3h2.7c0.6,0,1,0.1,1.4,0.3c0.4,0.2,0.7,0.5,0.9,0.9c0.2,0.4,0.3,0.8,0.3,1.2
		c0,0.5-0.1,0.9-0.3,1.2s-0.5,0.7-0.9,0.9c-0.4,0.2-0.9,0.3-1.4,0.3h-1.8v-1.1h1.6c0.3,0,0.6-0.1,0.8-0.2s0.4-0.3,0.5-0.5
		c0.1-0.2,0.1-0.4,0.1-0.7c0-0.3,0-0.5-0.1-0.7s-0.3-0.3-0.5-0.5s-0.5-0.2-0.8-0.2h-1.2v6.2L381.6,103.5L381.6,103.5z"/>
	<path class="st10" d="M390.3,103.6c-0.5,0-1-0.1-1.4-0.3s-0.7-0.6-0.9-1c-0.2-0.4-0.3-0.9-0.3-1.5c0-0.6,0.1-1.1,0.3-1.5
		c0.2-0.4,0.5-0.8,0.9-1c0.4-0.2,0.9-0.4,1.4-0.4s1,0.1,1.4,0.4s0.7,0.6,0.9,1c0.2,0.4,0.3,0.9,0.3,1.5c0,0.6-0.1,1.1-0.3,1.5
		c-0.2,0.4-0.5,0.8-0.9,1C391.3,103.5,390.9,103.6,390.3,103.6z M390.3,102.6c0.3,0,0.5-0.1,0.7-0.2c0.2-0.2,0.3-0.4,0.4-0.6
		c0.1-0.3,0.1-0.6,0.1-0.9s0-0.6-0.1-0.9c-0.1-0.3-0.2-0.5-0.4-0.6s-0.4-0.2-0.7-0.2s-0.5,0.1-0.7,0.2c-0.2,0.2-0.3,0.4-0.4,0.6
		s-0.1,0.6-0.1,0.9c0,0.3,0,0.6,0.1,0.9s0.2,0.5,0.4,0.6C389.8,102.5,390,102.6,390.3,102.6z"/>
	<path class="st10" d="M396,103.6c-0.4,0-0.8-0.1-1.1-0.3s-0.6-0.5-0.8-1s-0.3-0.9-0.3-1.5c0-0.6,0.1-1.1,0.3-1.5
		c0.2-0.4,0.5-0.7,0.8-0.9c0.3-0.2,0.7-0.3,1.1-0.3c0.3,0,0.6,0.1,0.8,0.2c0.2,0.1,0.4,0.2,0.5,0.4c0.1,0.2,0.2,0.3,0.3,0.4h0v-2.7
		h1.3v7.3h-1.3v-0.9h-0.1c-0.1,0.1-0.2,0.3-0.3,0.4c-0.1,0.1-0.3,0.3-0.5,0.4C396.6,103.5,396.4,103.6,396,103.6L396,103.6z
		 M396.4,102.5c0.3,0,0.5-0.1,0.7-0.2c0.2-0.2,0.3-0.4,0.4-0.6c0.1-0.3,0.1-0.6,0.1-0.9s0-0.7-0.1-0.9c-0.1-0.3-0.2-0.5-0.4-0.6
		c-0.2-0.1-0.4-0.2-0.7-0.2s-0.5,0.1-0.7,0.2c-0.2,0.1-0.3,0.4-0.4,0.6c-0.1,0.3-0.1,0.6-0.1,0.9c0,0.3,0,0.6,0.1,0.9
		s0.2,0.5,0.4,0.6C395.9,102.4,396.1,102.5,396.4,102.5L396.4,102.5z"/>
	<path class="st10" d="M400.3,103.5V98h1.3v5.4H400.3z M400.5,97.3l0.8-1.6h1.3l-1.1,1.6H400.5L400.5,97.3z"/>
	<path class="st10" d="M404.2,96.2v7.3h-1.3v-7.3H404.2z"/>
	<path class="st10" d="M414.6,99.8c0,0.8-0.1,1.4-0.4,2c-0.3,0.6-0.7,1-1.2,1.3c-0.5,0.3-1.1,0.4-1.7,0.4s-1.2-0.2-1.7-0.4
		c-0.5-0.3-0.9-0.7-1.2-1.3s-0.4-1.2-0.4-2s0.1-1.4,0.4-2s0.7-1,1.2-1.3c0.5-0.3,1.1-0.4,1.7-0.4s1.2,0.1,1.7,0.4
		c0.5,0.3,0.9,0.7,1.2,1.3S414.6,99.1,414.6,99.8L414.6,99.8z M413.3,99.8c0-0.6-0.1-1-0.3-1.4s-0.4-0.7-0.7-0.9s-0.6-0.3-1-0.3
		s-0.7,0.1-1,0.3c-0.3,0.2-0.5,0.5-0.7,0.9c-0.2,0.4-0.3,0.8-0.3,1.4s0.1,1,0.3,1.4c0.2,0.4,0.4,0.7,0.7,0.9c0.3,0.2,0.6,0.3,1,0.3
		s0.8-0.1,1-0.3s0.5-0.5,0.7-0.9C413.2,100.9,413.3,100.4,413.3,99.8z"/>
	<path class="st10" d="M415.7,103.5v-0.8l3.7-5.3h-3.8v-1.1h5.4V97l-3.7,5.3h3.8v1.1H415.7L415.7,103.5z"/>
	<path class="st10" d="M422.4,103.5v-7.3h4.7v1.1h-3.4v2h3.2v1.1h-3.2v2h3.4v1.1L422.4,103.5L422.4,103.5z"/>
	<path class="st10" d="M386.5,108l-1.9,5.4h-1.4l-1.9-5.4h1.4l1.2,4.1h0.1l1.3-4.1H386.5L386.5,108z"/>
	<path class="st10" d="M389.8,113.5V108h1.2v0.9h0.1c0.1-0.3,0.3-0.6,0.5-0.7c0.2-0.2,0.5-0.3,0.8-0.3c0.1,0,0.1,0,0.2,0
		s0.2,0,0.2,0v1.2c0,0-0.1,0-0.3-0.1c-0.1,0-0.2,0-0.3,0c-0.2,0-0.4,0.1-0.6,0.1c-0.2,0.1-0.3,0.2-0.4,0.4c-0.1,0.2-0.2,0.4-0.2,0.6
		v3.2H389.8L389.8,113.5z"/>
	<path class="st10" d="M396,113.6c-0.5,0-1-0.1-1.4-0.3s-0.7-0.6-0.9-1c-0.2-0.4-0.3-0.9-0.3-1.5c0-0.6,0.1-1.1,0.3-1.5
		c0.2-0.4,0.5-0.8,0.9-1c0.4-0.2,0.9-0.4,1.4-0.4s1,0.1,1.4,0.4s0.7,0.6,0.9,1c0.2,0.4,0.3,0.9,0.3,1.5c0,0.6-0.1,1.1-0.3,1.5
		c-0.2,0.4-0.5,0.8-0.9,1C396.9,113.5,396.5,113.6,396,113.6z M396,112.6c0.3,0,0.5-0.1,0.7-0.2c0.2-0.2,0.3-0.4,0.4-0.6
		c0.1-0.3,0.1-0.6,0.1-0.9s0-0.6-0.1-0.9c-0.1-0.3-0.2-0.5-0.4-0.6s-0.4-0.2-0.7-0.2s-0.5,0.1-0.7,0.2c-0.2,0.2-0.3,0.4-0.4,0.6
		s-0.1,0.6-0.1,0.9c0,0.3,0,0.6,0.1,0.9s0.2,0.5,0.4,0.6C395.4,112.5,395.7,112.6,396,112.6z"/>
	<path class="st10" d="M402,113.6c-0.5,0-1-0.1-1.4-0.4c-0.4-0.2-0.7-0.6-0.9-1s-0.3-0.9-0.3-1.5c0-0.5,0.1-1,0.3-1.5
		c0.2-0.4,0.5-0.8,0.9-1c0.4-0.2,0.9-0.4,1.4-0.4c0.4,0,0.8,0.1,1.2,0.2c0.3,0.2,0.6,0.4,0.8,0.7c0.2,0.3,0.3,0.6,0.4,1h-1.2
		c0-0.3-0.2-0.5-0.4-0.7c-0.2-0.2-0.4-0.3-0.7-0.3c-0.3,0-0.5,0.1-0.7,0.2s-0.4,0.3-0.5,0.6s-0.2,0.6-0.2,0.9s0,0.7,0.2,1
		c0.1,0.3,0.3,0.5,0.5,0.6c0.2,0.1,0.4,0.2,0.7,0.2c0.2,0,0.4,0,0.5-0.1c0.1-0.1,0.3-0.2,0.4-0.3c0.1-0.1,0.2-0.3,0.2-0.5h1.2
		c0,0.4-0.1,0.7-0.3,1c-0.2,0.3-0.5,0.5-0.8,0.7S402.5,113.6,402,113.6L402,113.6z"/>
	<path class="st10" d="M407.8,113.6c-0.5,0-1-0.1-1.4-0.3s-0.7-0.6-0.9-1s-0.3-0.9-0.3-1.5c0-0.6,0.1-1.1,0.3-1.5
		c0.2-0.4,0.5-0.8,0.9-1c0.4-0.2,0.8-0.4,1.4-0.4c0.3,0,0.6,0.1,1,0.2c0.3,0.1,0.6,0.3,0.8,0.5c0.2,0.2,0.4,0.5,0.5,0.9
		c0.1,0.3,0.2,0.8,0.2,1.2v0.4h-4.5v-0.9h3.2c0-0.2-0.1-0.5-0.2-0.7s-0.2-0.3-0.4-0.5c-0.2-0.1-0.4-0.2-0.6-0.2
		c-0.3,0-0.5,0.1-0.7,0.2s-0.4,0.3-0.5,0.5c-0.1,0.2-0.2,0.4-0.2,0.7v0.8c0,0.3,0.1,0.6,0.2,0.8c0.1,0.2,0.3,0.4,0.5,0.5
		s0.5,0.2,0.7,0.2c0.2,0,0.4,0,0.5-0.1c0.1-0.1,0.3-0.1,0.4-0.2s0.2-0.2,0.2-0.4l1.2,0.1c-0.1,0.3-0.2,0.6-0.4,0.8s-0.5,0.4-0.8,0.6
		S408.3,113.6,407.8,113.6L407.8,113.6z"/>
	<path class="st10" d="M413.8,113.5v-0.9l2.5-2.5c0.2-0.2,0.4-0.5,0.6-0.7s0.3-0.4,0.4-0.6c0.1-0.2,0.1-0.4,0.1-0.6
		c0-0.2,0-0.4-0.2-0.6c-0.1-0.2-0.2-0.3-0.4-0.4s-0.4-0.1-0.6-0.1s-0.5,0.1-0.6,0.2c-0.2,0.1-0.3,0.2-0.4,0.4
		c-0.1,0.2-0.1,0.4-0.1,0.6h-1.2c0-0.5,0.1-0.9,0.3-1.2s0.5-0.6,0.9-0.8s0.8-0.3,1.3-0.3s0.9,0.1,1.3,0.3c0.4,0.2,0.7,0.4,0.9,0.8
		c0.2,0.3,0.3,0.7,0.3,1.1c0,0.3,0,0.5-0.2,0.8c-0.1,0.3-0.3,0.6-0.5,0.9c-0.3,0.3-0.6,0.7-1.1,1.2l-1.2,1.3v0.1h3.2v1.1
		L413.8,113.5L413.8,113.5z"/>
	<path class="st10" d="M422.7,113.6c-0.6,0-1.1-0.2-1.5-0.4c-0.4-0.3-0.7-0.7-1-1.3s-0.3-1.2-0.3-2c0-0.8,0.1-1.5,0.3-2s0.5-1,1-1.3
		c0.4-0.3,0.9-0.4,1.5-0.4s1.1,0.2,1.5,0.4c0.4,0.3,0.7,0.7,1,1.3s0.3,1.2,0.3,2s-0.1,1.5-0.3,2c-0.2,0.6-0.5,1-1,1.3
		C423.8,113.5,423.3,113.6,422.7,113.6L422.7,113.6z M422.7,112.5c0.5,0,0.8-0.2,1.1-0.7c0.3-0.4,0.4-1.1,0.4-2
		c0-0.6-0.1-1.1-0.2-1.5c-0.1-0.4-0.3-0.7-0.5-0.9s-0.5-0.3-0.8-0.3c-0.5,0-0.8,0.2-1.1,0.7s-0.4,1.1-0.4,2c0,0.6,0.1,1.1,0.2,1.5
		s0.3,0.7,0.5,0.9S422.4,112.5,422.7,112.5L422.7,112.5z"/>
	<path class="st10" d="M429.3,113.6c-0.5,0-1-0.1-1.4-0.3c-0.4-0.2-0.7-0.4-0.9-0.7c-0.2-0.3-0.4-0.7-0.4-1.1h1.3
		c0,0.2,0.1,0.4,0.2,0.5s0.3,0.3,0.5,0.3c0.2,0.1,0.4,0.1,0.7,0.1c0.3,0,0.5-0.1,0.7-0.1s0.4-0.2,0.5-0.4c0.1-0.2,0.2-0.4,0.2-0.6
		c0-0.2,0-0.4-0.2-0.6c-0.1-0.2-0.3-0.3-0.5-0.4s-0.5-0.1-0.8-0.1h-0.6v-1h0.6c0.2,0,0.5,0,0.7-0.1s0.3-0.2,0.5-0.4
		c0.1-0.2,0.2-0.3,0.2-0.6c0-0.2,0-0.4-0.1-0.5c-0.1-0.2-0.2-0.3-0.4-0.4c-0.2-0.1-0.4-0.1-0.6-0.1s-0.4,0-0.6,0.1s-0.3,0.2-0.5,0.3
		c-0.1,0.1-0.2,0.3-0.2,0.5h-1.3c0-0.4,0.1-0.8,0.4-1.1c0.2-0.3,0.5-0.6,0.9-0.7s0.8-0.3,1.3-0.3s0.9,0.1,1.3,0.3
		c0.4,0.2,0.6,0.4,0.8,0.7c0.2,0.3,0.3,0.6,0.3,1c0,0.4-0.1,0.8-0.4,1s-0.6,0.5-1,0.5v0.1c0.5,0.1,0.9,0.3,1.2,0.6s0.4,0.7,0.4,1.1
		c0,0.4-0.1,0.8-0.4,1.1c-0.2,0.3-0.5,0.6-1,0.8C430.3,113.5,429.8,113.6,429.3,113.6z"/>
	<path class="st10" d="M435.9,113.6c-0.6,0-1.1-0.2-1.5-0.4c-0.4-0.3-0.7-0.7-1-1.3s-0.3-1.2-0.3-2c0-0.8,0.1-1.5,0.3-2s0.5-1,1-1.3
		c0.4-0.3,0.9-0.4,1.5-0.4s1.1,0.2,1.5,0.4c0.4,0.3,0.7,0.7,1,1.3s0.3,1.2,0.3,2s-0.1,1.5-0.3,2c-0.2,0.6-0.5,1-1,1.3
		C437,113.5,436.5,113.6,435.9,113.6L435.9,113.6z M435.9,112.5c0.5,0,0.8-0.2,1.1-0.7c0.3-0.4,0.4-1.1,0.4-2c0-0.6-0.1-1.1-0.2-1.5
		c-0.1-0.4-0.3-0.7-0.5-0.9s-0.5-0.3-0.8-0.3c-0.5,0-0.8,0.2-1.1,0.7s-0.4,1.1-0.4,2c0,0.6,0.1,1.1,0.2,1.5s0.3,0.7,0.5,0.9
		S435.6,112.5,435.9,112.5L435.9,112.5z"/>
</g>
<g class="st9">
	<path class="st10" d="M110.4,87.9c-0.7,0-1.3-0.1-1.9-0.3c-0.6-0.2-1.2-0.6-1.7-1.1c-0.5-0.5-0.9-1.2-1.2-2s-0.4-1.8-0.4-3
		c0-1.1,0.1-2.1,0.4-3c0.2-0.9,0.6-1.6,1.1-2.2c0.5-0.6,1-1.1,1.7-1.4c0.7-0.3,1.4-0.5,2.2-0.5c0.9,0,1.6,0.2,2.3,0.5
		s1.2,0.8,1.6,1.4c0.4,0.6,0.7,1.2,0.7,1.9h-2.7c-0.1-0.5-0.3-0.8-0.7-1.1s-0.8-0.4-1.3-0.4c-0.9,0-1.5,0.4-1.9,1.1s-0.7,1.7-0.7,3
		h0.1c0.2-0.4,0.5-0.7,0.8-1c0.3-0.3,0.7-0.5,1.1-0.6c0.4-0.1,0.9-0.2,1.4-0.2c0.8,0,1.5,0.2,2.1,0.5c0.6,0.4,1.1,0.9,1.4,1.5
		c0.3,0.6,0.5,1.4,0.5,2.2c0,0.9-0.2,1.7-0.6,2.4s-1,1.2-1.7,1.6C112.3,87.7,111.4,87.9,110.4,87.9z M110.4,85.8
		c0.4,0,0.8-0.1,1.1-0.3c0.3-0.2,0.6-0.5,0.8-0.8s0.3-0.7,0.3-1.2s-0.1-0.8-0.3-1.2c-0.2-0.3-0.5-0.6-0.8-0.8
		c-0.3-0.2-0.7-0.3-1.1-0.3c-0.3,0-0.6,0.1-0.9,0.2c-0.3,0.1-0.5,0.3-0.7,0.5c-0.2,0.2-0.4,0.5-0.5,0.7c-0.1,0.3-0.2,0.6-0.2,0.9
		c0,0.4,0.1,0.8,0.3,1.2c0.2,0.3,0.5,0.6,0.8,0.8C109.6,85.7,110,85.8,110.4,85.8z"/>
</g>
<g class="st9">
	<path class="st10" d="M119.7,86l-0.1,0.7c-0.1,0.6-0.2,1.1-0.3,1.7c-0.2,0.6-0.3,1.1-0.5,1.5c-0.2,0.5-0.3,0.8-0.4,1.1h-1.8
		c0.1-0.3,0.2-0.6,0.3-1.1s0.2-1,0.3-1.5c0.1-0.6,0.2-1.1,0.2-1.7l0-0.7H119.7z"/>
	<path class="st10" d="M122.2,87.8v-2l4.7-4.3c0.4-0.4,0.7-0.7,1-1s0.5-0.6,0.6-0.9s0.2-0.6,0.2-1c0-0.4-0.1-0.7-0.3-1
		c-0.2-0.3-0.4-0.5-0.7-0.6c-0.3-0.2-0.6-0.2-1-0.2c-0.4,0-0.8,0.1-1,0.2c-0.3,0.2-0.5,0.4-0.7,0.7s-0.2,0.7-0.2,1.1h-2.6
		c0-0.9,0.2-1.6,0.6-2.2c0.4-0.6,0.9-1.1,1.6-1.5c0.7-0.3,1.5-0.5,2.4-0.5c0.9,0,1.8,0.2,2.5,0.5c0.7,0.3,1.2,0.8,1.6,1.4
		s0.6,1.3,0.6,2c0,0.5-0.1,1-0.3,1.5s-0.5,1-1,1.6c-0.5,0.6-1.2,1.3-2.1,2.1l-1.9,1.9v0.1h5.5v2.3H122.2z"/>
</g>
<g class="st9">
	<path class="st10" d="M137.4,90.2v-9h1.8v1.1h0.1c0.1-0.2,0.2-0.4,0.3-0.5c0.2-0.2,0.4-0.3,0.6-0.5s0.6-0.2,0.9-0.2
		c0.5,0,0.9,0.1,1.3,0.4s0.7,0.6,1,1.1c0.2,0.5,0.4,1.1,0.4,1.9c0,0.7-0.1,1.3-0.4,1.8c-0.2,0.5-0.6,0.9-1,1.1
		c-0.4,0.3-0.9,0.4-1.3,0.4c-0.4,0-0.7-0.1-0.9-0.2s-0.4-0.3-0.6-0.4c-0.2-0.2-0.3-0.4-0.4-0.5h-0.1v3.5H137.4z M139.2,84.5
		c0,0.4,0.1,0.7,0.2,1c0.1,0.3,0.3,0.5,0.5,0.7c0.2,0.2,0.5,0.2,0.7,0.2c0.3,0,0.5-0.1,0.8-0.2s0.4-0.4,0.5-0.7
		c0.1-0.3,0.2-0.6,0.2-1c0-0.4-0.1-0.7-0.2-1c-0.1-0.3-0.3-0.5-0.5-0.7c-0.2-0.2-0.5-0.2-0.8-0.2c-0.3,0-0.5,0.1-0.7,0.2
		c-0.2,0.2-0.4,0.4-0.5,0.7C139.2,83.8,139.2,84.1,139.2,84.5z"/>
</g>
<g class="st9">
	<path class="st10" d="M146,87.9c-0.3,0-0.5-0.1-0.7-0.3c-0.2-0.2-0.3-0.4-0.3-0.7c0-0.3,0.1-0.5,0.3-0.7c0.2-0.2,0.4-0.3,0.7-0.3
		c0.3,0,0.5,0.1,0.7,0.3c0.2,0.2,0.3,0.4,0.3,0.7c0,0.2,0,0.4-0.1,0.5s-0.2,0.3-0.4,0.4C146.4,87.8,146.2,87.9,146,87.9z"/>
</g>
<g class="st9">
	<path class="st10" d="M151,87.8V79h1.8v3.3h0.1c0.1-0.2,0.2-0.4,0.3-0.5c0.2-0.2,0.4-0.3,0.6-0.5c0.2-0.1,0.6-0.2,0.9-0.2
		c0.5,0,0.9,0.1,1.3,0.4s0.7,0.6,1,1.1c0.2,0.5,0.4,1.1,0.4,1.9c0,0.7-0.1,1.3-0.4,1.8c-0.2,0.5-0.6,0.9-1,1.1
		c-0.4,0.3-0.9,0.4-1.3,0.4c-0.4,0-0.7-0.1-0.9-0.2c-0.2-0.1-0.4-0.3-0.6-0.4c-0.2-0.2-0.3-0.4-0.4-0.5h-0.1v1H151z M152.7,84.5
		c0,0.4,0.1,0.7,0.2,1c0.1,0.3,0.3,0.5,0.5,0.7c0.2,0.2,0.5,0.2,0.7,0.2c0.3,0,0.5-0.1,0.8-0.2s0.4-0.4,0.5-0.7s0.2-0.6,0.2-1
		c0-0.4-0.1-0.7-0.2-1c-0.1-0.3-0.3-0.5-0.5-0.7s-0.5-0.2-0.8-0.2c-0.3,0-0.5,0.1-0.7,0.2c-0.2,0.2-0.4,0.4-0.5,0.7
		S152.7,84.1,152.7,84.5z"/>
</g>
<g class="st9">
	<path class="st10" d="M159.6,87.9c-0.3,0-0.5-0.1-0.7-0.3c-0.2-0.2-0.3-0.4-0.3-0.7c0-0.3,0.1-0.5,0.3-0.7c0.2-0.2,0.4-0.3,0.7-0.3
		c0.3,0,0.5,0.1,0.7,0.3c0.2,0.2,0.3,0.4,0.3,0.7c0,0.2,0,0.4-0.1,0.5s-0.2,0.3-0.4,0.4C160,87.8,159.8,87.9,159.6,87.9z"/>
</g>
<g class="st9">
	<path class="st10" d="M104.7,98.3c0-0.3-0.2-0.5-0.4-0.7c-0.2-0.2-0.5-0.2-0.9-0.2c-0.3,0-0.5,0-0.6,0.1c-0.2,0.1-0.3,0.2-0.4,0.3
		c-0.1,0.1-0.1,0.3-0.1,0.4c0,0.1,0,0.2,0.1,0.3c0.1,0.1,0.1,0.2,0.3,0.2c0.1,0.1,0.2,0.1,0.4,0.2s0.3,0.1,0.4,0.1l0.7,0.2
		c0.3,0.1,0.6,0.2,0.9,0.3c0.3,0.1,0.5,0.3,0.7,0.4c0.2,0.2,0.3,0.4,0.5,0.6c0.1,0.2,0.2,0.5,0.2,0.8c0,0.4-0.1,0.8-0.3,1.2
		c-0.2,0.3-0.5,0.6-1,0.8c-0.4,0.2-0.9,0.3-1.5,0.3c-0.6,0-1.1-0.1-1.5-0.3c-0.4-0.2-0.8-0.4-1-0.8c-0.2-0.4-0.4-0.8-0.4-1.3h1.5
		c0,0.2,0.1,0.4,0.2,0.6c0.1,0.2,0.3,0.3,0.5,0.4s0.4,0.1,0.7,0.1c0.3,0,0.5,0,0.7-0.1c0.2-0.1,0.3-0.2,0.4-0.3
		c0.1-0.1,0.2-0.3,0.2-0.5c0-0.2,0-0.3-0.1-0.4c-0.1-0.1-0.2-0.2-0.4-0.3c-0.2-0.1-0.4-0.1-0.7-0.2l-0.8-0.2
		c-0.6-0.1-1.1-0.4-1.5-0.7s-0.5-0.7-0.5-1.3c0-0.4,0.1-0.8,0.4-1.2s0.6-0.6,1-0.8c0.4-0.2,0.9-0.3,1.4-0.3c0.5,0,1,0.1,1.4,0.3
		c0.4,0.2,0.7,0.4,0.9,0.8s0.3,0.7,0.3,1.1H104.7z"/>
	<path class="st10" d="M108.7,96.2v7.3h-1.5v-7.3H108.7z"/>
	<path class="st10" d="M113.4,101.2V98h1.5v5.5h-1.5v-1h-0.1c-0.1,0.3-0.3,0.6-0.6,0.8c-0.3,0.2-0.6,0.3-1,0.3c-0.4,0-0.7-0.1-1-0.2
		c-0.3-0.2-0.5-0.4-0.6-0.7c-0.2-0.3-0.2-0.7-0.2-1.1V98h1.5v3.2c0,0.3,0.1,0.6,0.3,0.8c0.2,0.2,0.4,0.3,0.7,0.3
		c0.2,0,0.4,0,0.5-0.1s0.3-0.2,0.4-0.4C113.4,101.6,113.5,101.4,113.4,101.2z"/>
	<path class="st10" d="M117.7,100.3v3.2h-1.5V98h1.4v1h0.1c0.1-0.3,0.3-0.6,0.6-0.8c0.3-0.2,0.6-0.3,1-0.3c0.4,0,0.7,0.1,1,0.2
		c0.3,0.2,0.5,0.4,0.7,0.7s0.2,0.7,0.2,1.1v3.5h-1.5v-3.2c0-0.3-0.1-0.6-0.3-0.8s-0.4-0.3-0.7-0.3c-0.2,0-0.4,0-0.5,0.1
		c-0.2,0.1-0.3,0.2-0.4,0.4C117.7,99.9,117.7,100.1,117.7,100.3z"/>
	<path class="st10" d="M124.9,103.6c-0.6,0-1-0.1-1.4-0.4c-0.4-0.2-0.7-0.6-0.9-1c-0.2-0.4-0.3-0.9-0.3-1.5c0-0.6,0.1-1,0.3-1.5
		s0.5-0.8,0.9-1c0.4-0.2,0.9-0.4,1.4-0.4c0.5,0,0.9,0.1,1.2,0.3s0.6,0.4,0.8,0.7c0.2,0.3,0.3,0.7,0.3,1.1h-1.4
		c0-0.3-0.1-0.5-0.3-0.7c-0.2-0.2-0.4-0.2-0.7-0.2c-0.2,0-0.4,0.1-0.6,0.2c-0.2,0.1-0.3,0.3-0.4,0.6c-0.1,0.2-0.1,0.5-0.1,0.9
		c0,0.3,0,0.6,0.1,0.9c0.1,0.2,0.2,0.4,0.4,0.6s0.4,0.2,0.6,0.2c0.2,0,0.3,0,0.5-0.1c0.1-0.1,0.3-0.2,0.3-0.3
		c0.1-0.1,0.2-0.3,0.2-0.5h1.4c0,0.4-0.1,0.8-0.3,1.1c-0.2,0.3-0.5,0.6-0.8,0.7C125.8,103.5,125.3,103.6,124.9,103.6z"/>
	<path class="st10" d="M130.7,103.6c-0.6,0-1-0.1-1.4-0.3c-0.4-0.2-0.7-0.6-0.9-1c-0.2-0.4-0.3-0.9-0.3-1.5c0-0.6,0.1-1.1,0.3-1.5
		c0.2-0.4,0.5-0.8,0.9-1c0.4-0.2,0.9-0.4,1.4-0.4c0.4,0,0.7,0.1,1,0.2c0.3,0.1,0.6,0.3,0.8,0.5c0.2,0.2,0.4,0.5,0.5,0.9
		c0.1,0.3,0.2,0.8,0.2,1.2v0.4h-4.6v-0.9h3.2c0-0.2,0-0.4-0.1-0.6s-0.2-0.3-0.4-0.4c-0.2-0.1-0.4-0.1-0.6-0.1
		c-0.2,0-0.4,0.1-0.6,0.2s-0.3,0.2-0.4,0.4c-0.1,0.2-0.2,0.4-0.2,0.6v0.9c0,0.3,0.1,0.5,0.2,0.7c0.1,0.2,0.2,0.3,0.4,0.5
		s0.4,0.2,0.7,0.2c0.2,0,0.3,0,0.5-0.1c0.1,0,0.3-0.1,0.4-0.2c0.1-0.1,0.2-0.2,0.2-0.3l1.4,0.1c-0.1,0.3-0.2,0.6-0.4,0.9
		c-0.2,0.2-0.5,0.4-0.8,0.6C131.6,103.5,131.2,103.6,130.7,103.6z"/>
	<path class="st10" d="M138.1,103.6c-0.3,0-0.7-0.1-0.9-0.2c-0.3-0.1-0.5-0.3-0.6-0.5c-0.2-0.2-0.2-0.5-0.2-0.9
		c0-0.3,0.1-0.6,0.2-0.8c0.1-0.2,0.3-0.4,0.5-0.5c0.2-0.1,0.4-0.2,0.7-0.3c0.2-0.1,0.5-0.1,0.8-0.1c0.3,0,0.6-0.1,0.8-0.1
		c0.2,0,0.3-0.1,0.4-0.1c0.1-0.1,0.1-0.1,0.1-0.3v0c0-0.2-0.1-0.4-0.2-0.5c-0.1-0.1-0.3-0.2-0.6-0.2c-0.3,0-0.5,0.1-0.6,0.2
		c-0.2,0.1-0.3,0.3-0.3,0.4l-1.4-0.1c0.1-0.3,0.2-0.6,0.4-0.9c0.2-0.2,0.5-0.4,0.8-0.6c0.3-0.1,0.7-0.2,1.1-0.2c0.3,0,0.6,0,0.9,0.1
		c0.3,0.1,0.5,0.2,0.7,0.3c0.2,0.1,0.4,0.3,0.5,0.6c0.1,0.2,0.2,0.5,0.2,0.8v3.7h-1.4v-0.8h0c-0.1,0.2-0.2,0.3-0.4,0.4
		c-0.1,0.1-0.3,0.2-0.5,0.3C138.6,103.5,138.4,103.6,138.1,103.6z M138.5,102.5c0.2,0,0.4,0,0.6-0.1s0.3-0.2,0.4-0.4
		s0.1-0.3,0.1-0.5V101c0,0-0.1,0.1-0.2,0.1c-0.1,0-0.2,0-0.3,0.1c-0.1,0-0.2,0-0.3,0.1c-0.1,0-0.2,0-0.3,0c-0.2,0-0.3,0.1-0.5,0.1
		c-0.1,0.1-0.2,0.1-0.3,0.2c-0.1,0.1-0.1,0.2-0.1,0.4c0,0.2,0.1,0.4,0.2,0.5C138.1,102.5,138.3,102.5,138.5,102.5z"/>
	<path class="st10" d="M149.8,98l-1.9,5.5h-1.7l-1.9-5.5h1.6l1.1,3.9h0.1l1.1-3.9H149.8z"/>
	<path class="st10" d="M150.5,103.5V98h1.5v5.5H150.5z M150.8,97.3l0.8-1.6h1.4l-1.1,1.6H150.8z"/>
	<path class="st10" d="M156.2,98v1.1h-3.3V98H156.2z M153.6,96.7h1.5v5.1c0,0.1,0,0.2,0.1,0.3c0,0.1,0.1,0.1,0.2,0.2
		c0.1,0,0.2,0,0.3,0c0.1,0,0.1,0,0.2,0s0.1,0,0.2,0l0.2,1.1c-0.1,0-0.2,0.1-0.3,0.1c-0.1,0-0.3,0.1-0.5,0.1c-0.4,0-0.7,0-1-0.1
		s-0.5-0.3-0.6-0.5c-0.2-0.2-0.2-0.5-0.2-0.9V96.7z"/>
	<path class="st10" d="M157.1,103.5V98h1.5v1h0.1c0.1-0.3,0.3-0.6,0.5-0.8s0.5-0.3,0.8-0.3c0.1,0,0.2,0,0.2,0c0.1,0,0.2,0,0.2,0v1.3
		c-0.1,0-0.2,0-0.3-0.1c-0.1,0-0.2,0-0.3,0c-0.2,0-0.4,0-0.6,0.1c-0.2,0.1-0.3,0.2-0.4,0.4c-0.1,0.2-0.2,0.4-0.2,0.6v3.1H157.1z"/>
</g>
<g class="st9">
	<path class="st10" d="M212.6,87.9c-0.9,0-1.7-0.2-2.4-0.5c-0.7-0.3-1.3-0.8-1.7-1.4c-0.4-0.6-0.6-1.3-0.6-2h2.7
		c0,0.5,0.2,0.9,0.6,1.2c0.4,0.3,0.9,0.5,1.4,0.5c0.4,0,0.8-0.1,1.2-0.3s0.6-0.5,0.8-0.8c0.2-0.3,0.3-0.7,0.3-1.2
		c0-0.5-0.1-0.9-0.3-1.2s-0.5-0.6-0.8-0.8s-0.7-0.3-1.2-0.3c-0.4,0-0.8,0.1-1.1,0.2c-0.4,0.2-0.6,0.4-0.8,0.6l-2.5-0.4l0.6-6.9h8
		v2.3h-5.7l-0.3,3.3h0.1c0.2-0.3,0.6-0.6,1-0.8s1-0.3,1.6-0.3c0.8,0,1.5,0.2,2.1,0.6c0.6,0.4,1.1,0.9,1.5,1.5s0.5,1.4,0.5,2.2
		c0,0.9-0.2,1.7-0.6,2.3c-0.4,0.7-1,1.2-1.7,1.6C214.4,87.7,213.6,87.9,212.6,87.9z"/>
</g>
<g class="st9">
	<path class="st10" d="M222,86l-0.1,0.7c-0.1,0.6-0.2,1.1-0.3,1.7c-0.2,0.6-0.3,1.1-0.5,1.5c-0.2,0.5-0.3,0.8-0.4,1.1H219
		c0.1-0.3,0.2-0.6,0.3-1.1s0.2-1,0.3-1.5c0.1-0.6,0.2-1.1,0.2-1.7l0-0.7H222z"/>
</g>
<g class="st9">
	<path class="st10" d="M228.8,87.9c-1,0-1.9-0.2-2.6-0.5c-0.8-0.3-1.4-0.8-1.8-1.3c-0.4-0.6-0.7-1.2-0.7-1.9c0-0.5,0.1-1,0.4-1.5
		c0.2-0.5,0.6-0.8,1-1.1c0.4-0.3,0.9-0.5,1.4-0.6v-0.1c-0.7-0.1-1.3-0.5-1.7-1c-0.4-0.5-0.7-1.2-0.7-1.9c0-0.7,0.2-1.3,0.6-1.8
		c0.4-0.5,0.9-0.9,1.6-1.3s1.5-0.5,2.4-0.5c0.9,0,1.7,0.2,2.4,0.5s1.2,0.7,1.6,1.3c0.4,0.5,0.6,1.1,0.6,1.8c0,0.7-0.2,1.3-0.7,1.9
		c-0.4,0.5-1,0.9-1.7,1V81c0.5,0.1,1,0.3,1.4,0.6c0.4,0.3,0.8,0.7,1,1.1s0.4,1,0.4,1.5c0,0.7-0.2,1.3-0.7,1.9c-0.4,0.6-1,1-1.8,1.3
		C230.7,87.8,229.8,87.9,228.8,87.9z M228.8,85.9c0.4,0,0.8-0.1,1.2-0.2c0.3-0.2,0.6-0.4,0.8-0.7c0.2-0.3,0.3-0.6,0.3-1
		c0-0.4-0.1-0.7-0.3-1c-0.2-0.3-0.5-0.5-0.8-0.7c-0.3-0.2-0.7-0.3-1.1-0.3c-0.4,0-0.8,0.1-1.1,0.3c-0.3,0.2-0.6,0.4-0.8,0.7
		s-0.3,0.6-0.3,1c0,0.4,0.1,0.7,0.3,1c0.2,0.3,0.4,0.5,0.8,0.7C228,85.8,228.4,85.9,228.8,85.9z M228.8,80c0.4,0,0.7-0.1,1-0.2
		c0.3-0.1,0.5-0.4,0.7-0.6c0.2-0.3,0.2-0.6,0.2-0.9c0-0.3-0.1-0.6-0.2-0.9s-0.4-0.5-0.7-0.6c-0.3-0.1-0.6-0.2-1-0.2
		c-0.4,0-0.7,0.1-1,0.2c-0.3,0.1-0.5,0.3-0.7,0.6c-0.2,0.3-0.2,0.6-0.2,0.9c0,0.3,0.1,0.6,0.2,0.9c0.2,0.3,0.4,0.5,0.7,0.6
		C228.1,80,228.5,80,228.8,80z"/>
</g>
<g class="st9">
	<path class="st10" d="M239.7,90.2v-9h1.8v1.1h0.1c0.1-0.2,0.2-0.4,0.3-0.5c0.2-0.2,0.4-0.3,0.6-0.5c0.2-0.1,0.6-0.2,0.9-0.2
		c0.5,0,0.9,0.1,1.3,0.4s0.7,0.6,1,1.1c0.2,0.5,0.4,1.1,0.4,1.9c0,0.7-0.1,1.3-0.4,1.8c-0.2,0.5-0.6,0.9-1,1.1
		c-0.4,0.3-0.9,0.4-1.3,0.4c-0.4,0-0.7-0.1-0.9-0.2c-0.2-0.1-0.4-0.3-0.6-0.4c-0.2-0.2-0.3-0.4-0.4-0.5h-0.1v3.5H239.7z M241.5,84.5
		c0,0.4,0.1,0.7,0.2,1c0.1,0.3,0.3,0.5,0.5,0.7c0.2,0.2,0.5,0.2,0.7,0.2c0.3,0,0.5-0.1,0.8-0.2c0.2-0.2,0.4-0.4,0.5-0.7
		c0.1-0.3,0.2-0.6,0.2-1c0-0.4-0.1-0.7-0.2-1c-0.1-0.3-0.3-0.5-0.5-0.7s-0.5-0.2-0.8-0.2c-0.3,0-0.5,0.1-0.7,0.2
		c-0.2,0.2-0.4,0.4-0.5,0.7S241.5,84.1,241.5,84.5z"/>
</g>
<g class="st9">
	<path class="st10" d="M248.3,87.9c-0.3,0-0.5-0.1-0.7-0.3c-0.2-0.2-0.3-0.4-0.3-0.7c0-0.3,0.1-0.5,0.3-0.7c0.2-0.2,0.4-0.3,0.7-0.3
		c0.3,0,0.5,0.1,0.7,0.3c0.2,0.2,0.3,0.4,0.3,0.7c0,0.2,0,0.4-0.1,0.5c-0.1,0.2-0.2,0.3-0.4,0.4C248.7,87.8,248.5,87.9,248.3,87.9z"
		/>
</g>
<g class="st9">
	<path class="st10" d="M253.3,87.8V79h1.8v3.3h0.1c0.1-0.2,0.2-0.4,0.3-0.5c0.2-0.2,0.4-0.3,0.6-0.5c0.2-0.1,0.6-0.2,0.9-0.2
		c0.5,0,0.9,0.1,1.3,0.4s0.7,0.6,1,1.1c0.2,0.5,0.4,1.1,0.4,1.9c0,0.7-0.1,1.3-0.4,1.8c-0.2,0.5-0.6,0.9-1,1.1
		c-0.4,0.3-0.9,0.4-1.3,0.4c-0.4,0-0.7-0.1-0.9-0.2s-0.4-0.3-0.6-0.4c-0.2-0.2-0.3-0.4-0.4-0.5H255v1H253.3z M255,84.5
		c0,0.4,0.1,0.7,0.2,1c0.1,0.3,0.3,0.5,0.5,0.7c0.2,0.2,0.5,0.2,0.7,0.2c0.3,0,0.5-0.1,0.8-0.2c0.2-0.2,0.4-0.4,0.5-0.7
		s0.2-0.6,0.2-1c0-0.4-0.1-0.7-0.2-1c-0.1-0.3-0.3-0.5-0.5-0.7c-0.2-0.2-0.5-0.2-0.8-0.2c-0.3,0-0.5,0.1-0.7,0.2
		c-0.2,0.2-0.4,0.4-0.5,0.7C255.1,83.8,255,84.1,255,84.5z"/>
</g>
<g class="st9">
	<path class="st10" d="M261.9,87.9c-0.3,0-0.5-0.1-0.7-0.3c-0.2-0.2-0.3-0.4-0.3-0.7c0-0.3,0.1-0.5,0.3-0.7c0.2-0.2,0.4-0.3,0.7-0.3
		c0.3,0,0.5,0.1,0.7,0.3c0.2,0.2,0.3,0.4,0.3,0.7c0,0.2,0,0.4-0.1,0.5c-0.1,0.2-0.2,0.3-0.4,0.4C262.2,87.8,262.1,87.9,261.9,87.9z"
		/>
</g>
<g>
	<path class="st10" d="M204.1,103.5v-7.3h4.9v1.3h-3.4v1.7h3.1v1.3h-3.1v1.7h3.4v1.3L204.1,103.5L204.1,103.5z"/>
	<path class="st10" d="M211.7,100.3v3.1h-1.5V98h1.4v1h0.1c0.1-0.3,0.3-0.6,0.6-0.8c0.3-0.2,0.6-0.3,1-0.3c0.4,0,0.7,0.1,1,0.2
		s0.5,0.4,0.7,0.7s0.2,0.7,0.2,1.1v3.5h-1.5v-3.2c0-0.3-0.1-0.6-0.3-0.8c-0.2-0.2-0.4-0.3-0.7-0.3c-0.2,0-0.4,0-0.5,0.1
		c-0.2,0.1-0.3,0.2-0.4,0.4C211.7,99.9,211.7,100.1,211.7,100.3L211.7,100.3z"/>
	<path class="st10" d="M218.9,103.6c-0.6,0-1-0.1-1.4-0.3c-0.4-0.2-0.7-0.6-0.9-1s-0.3-0.9-0.3-1.5c0-0.6,0.1-1.1,0.3-1.5
		c0.2-0.4,0.5-0.8,0.9-1c0.4-0.2,0.9-0.4,1.4-0.4c0.4,0,0.7,0.1,1,0.2c0.3,0.1,0.6,0.3,0.8,0.5c0.2,0.2,0.4,0.5,0.5,0.9
		c0.1,0.3,0.2,0.8,0.2,1.2v0.4h-4.6v-0.9h3.2c0-0.2-0.1-0.4-0.1-0.6s-0.2-0.3-0.4-0.4c-0.2-0.1-0.4-0.1-0.6-0.1s-0.4,0.1-0.6,0.2
		c-0.2,0.1-0.3,0.2-0.4,0.4c-0.1,0.2-0.1,0.4-0.1,0.6v0.9c0,0.3,0.1,0.5,0.1,0.7s0.2,0.3,0.4,0.5c0.2,0.1,0.4,0.2,0.7,0.2
		c0.2,0,0.3,0,0.5-0.1s0.3-0.1,0.4-0.2s0.2-0.2,0.2-0.3l1.4,0.1c-0.1,0.3-0.2,0.6-0.4,0.9s-0.5,0.4-0.8,0.6
		C219.7,103.5,219.3,103.6,218.9,103.6L218.9,103.6z"/>
	<path class="st10" d="M222.4,103.5V98h1.5V99h0.1c0.1-0.3,0.3-0.6,0.5-0.8s0.5-0.3,0.8-0.3c0.1,0,0.2,0,0.2,0c0.1,0,0.2,0,0.2,0
		v1.3c-0.1,0-0.2,0-0.3-0.1c-0.1,0-0.2,0-0.3,0c-0.2,0-0.4,0.1-0.6,0.1c-0.2,0.1-0.3,0.2-0.4,0.4s-0.1,0.4-0.1,0.6v3.1L222.4,103.5
		L222.4,103.5z"/>
	<path class="st10" d="M228.6,105.6c-0.5,0-0.9-0.1-1.3-0.2c-0.4-0.1-0.6-0.3-0.8-0.5c-0.2-0.2-0.3-0.5-0.4-0.8l1.4-0.2
		c0,0.1,0.1,0.2,0.2,0.3c0.1,0.1,0.2,0.2,0.4,0.2c0.1,0.1,0.3,0.1,0.6,0.1c0.3,0,0.6-0.1,0.8-0.2c0.2-0.2,0.3-0.4,0.3-0.8v-1h-0.1
		c-0.1,0.2-0.2,0.3-0.3,0.4c-0.1,0.1-0.3,0.2-0.5,0.3c-0.2,0.1-0.5,0.1-0.8,0.1c-0.4,0-0.8-0.1-1.1-0.3c-0.3-0.2-0.6-0.5-0.8-0.9
		c-0.2-0.4-0.3-0.9-0.3-1.5s0.1-1.1,0.3-1.6c0.2-0.4,0.5-0.7,0.8-0.9c0.3-0.2,0.7-0.3,1.1-0.3c0.3,0,0.6,0.1,0.8,0.1
		c0.2,0.1,0.4,0.2,0.5,0.4s0.2,0.3,0.3,0.4h0.1V98h1.5v5.5c0,0.5-0.1,0.9-0.3,1.2s-0.5,0.6-0.9,0.7
		C229.6,105.6,229.2,105.6,228.6,105.6L228.6,105.6z M228.7,102.3c0.2,0,0.4-0.1,0.6-0.2c0.2-0.1,0.3-0.3,0.4-0.5s0.1-0.5,0.1-0.8
		c0-0.3,0-0.6-0.1-0.8c-0.1-0.2-0.2-0.4-0.4-0.6s-0.4-0.2-0.6-0.2s-0.5,0.1-0.6,0.2c-0.2,0.1-0.3,0.3-0.4,0.6
		c-0.1,0.2-0.1,0.5-0.1,0.8s0,0.6,0.1,0.8s0.2,0.4,0.4,0.5C228.2,102.2,228.4,102.3,228.7,102.3L228.7,102.3z"/>
	<path class="st10" d="M235,103.6c-0.6,0-1-0.1-1.4-0.3c-0.4-0.2-0.7-0.6-0.9-1s-0.3-0.9-0.3-1.5c0-0.6,0.1-1.1,0.3-1.5
		c0.2-0.4,0.5-0.8,0.9-1c0.4-0.2,0.9-0.4,1.4-0.4c0.4,0,0.7,0.1,1,0.2c0.3,0.1,0.6,0.3,0.8,0.5c0.2,0.2,0.4,0.5,0.5,0.9
		c0.1,0.3,0.2,0.8,0.2,1.2v0.4h-4.6v-0.9h3.2c0-0.2-0.1-0.4-0.1-0.6s-0.2-0.3-0.4-0.4c-0.2-0.1-0.4-0.1-0.6-0.1s-0.4,0.1-0.6,0.2
		c-0.2,0.1-0.3,0.2-0.4,0.4c-0.1,0.2-0.1,0.4-0.1,0.6v0.9c0,0.3,0.1,0.5,0.1,0.7s0.2,0.3,0.4,0.5c0.2,0.1,0.4,0.2,0.7,0.2
		c0.2,0,0.3,0,0.5-0.1s0.3-0.1,0.4-0.2s0.2-0.2,0.2-0.3l1.4,0.1c-0.1,0.3-0.2,0.6-0.4,0.9s-0.5,0.4-0.8,0.6
		C235.9,103.5,235.5,103.6,235,103.6L235,103.6z"/>
	<path class="st10" d="M241.4,98v1.1h-3.3V98H241.4z M238.9,96.7h1.5v5.1c0,0.1,0,0.2,0.1,0.3c0,0.1,0.1,0.1,0.2,0.2
		c0.1,0,0.2,0.1,0.3,0.1c0.1,0,0.1,0,0.2,0c0.1,0,0.1,0,0.2,0l0.2,1.1c-0.1,0-0.2,0.1-0.3,0.1c-0.1,0-0.3,0.1-0.5,0.1
		c-0.4,0-0.7,0-1-0.1s-0.5-0.3-0.6-0.5s-0.2-0.5-0.2-0.9L238.9,96.7L238.9,96.7z"/>
	<path class="st10" d="M243.1,97.3c-0.2,0-0.4-0.1-0.6-0.2c-0.2-0.1-0.2-0.3-0.2-0.5c0-0.2,0.1-0.4,0.2-0.5c0.2-0.1,0.4-0.2,0.6-0.2
		s0.4,0.1,0.6,0.2c0.2,0.2,0.2,0.3,0.2,0.5c0,0.2-0.1,0.4-0.2,0.5C243.6,97.2,243.4,97.3,243.1,97.3z M242.4,103.5V98h1.5v5.4H242.4
		z"/>
	<path class="st10" d="M247.6,103.6c-0.6,0-1-0.1-1.4-0.4c-0.4-0.2-0.7-0.6-0.9-1c-0.2-0.4-0.3-0.9-0.3-1.5c0-0.5,0.1-1.1,0.3-1.5
		c0.2-0.4,0.5-0.8,0.9-1c0.4-0.2,0.9-0.4,1.4-0.4c0.5,0,0.9,0.1,1.2,0.3s0.6,0.4,0.9,0.7c0.2,0.3,0.3,0.7,0.3,1.1h-1.4
		c0-0.3-0.1-0.5-0.3-0.7c-0.2-0.2-0.4-0.2-0.7-0.2c-0.2,0-0.4,0.1-0.6,0.2s-0.3,0.3-0.4,0.6s-0.1,0.5-0.1,0.9c0,0.3,0.1,0.6,0.1,0.9
		c0.1,0.2,0.2,0.4,0.4,0.6c0.2,0.1,0.4,0.2,0.6,0.2c0.2,0,0.3,0,0.5-0.1c0.1-0.1,0.2-0.2,0.3-0.3c0.1-0.1,0.1-0.3,0.2-0.5h1.4
		c0,0.4-0.1,0.8-0.3,1.1c-0.2,0.3-0.5,0.6-0.8,0.7C248.5,103.5,248,103.6,247.6,103.6L247.6,103.6z"/>
	<path class="st10" d="M251,103.5v-7.3h1.5v7.3H251z M252.3,101.9v-1.8h0.2l1.8-2.1h1.7l-2.4,2.7h-0.4L252.3,101.9z M254.4,103.5
		l-1.6-2.4l1-1.1l2.4,3.4L254.4,103.5L254.4,103.5z"/>
	<path class="st10" d="M258.4,103.6c-0.4,0-0.7-0.1-0.9-0.2c-0.3-0.1-0.5-0.3-0.6-0.5c-0.2-0.2-0.2-0.5-0.2-0.9
		c0-0.3,0.1-0.6,0.2-0.8c0.1-0.2,0.3-0.4,0.5-0.5c0.2-0.1,0.4-0.2,0.7-0.3c0.2-0.1,0.5-0.1,0.8-0.1c0.3,0,0.6-0.1,0.8-0.1
		s0.3-0.1,0.4-0.1c0.1-0.1,0.1-0.2,0.1-0.3v0c0-0.2-0.1-0.4-0.2-0.5s-0.3-0.2-0.6-0.2c-0.3,0-0.5,0.1-0.6,0.2
		c-0.2,0.1-0.3,0.3-0.3,0.4l-1.4-0.1c0.1-0.3,0.2-0.6,0.4-0.9c0.2-0.2,0.5-0.4,0.8-0.6c0.3-0.1,0.7-0.2,1.1-0.2c0.3,0,0.6,0,0.9,0.1
		c0.3,0.1,0.5,0.2,0.7,0.3c0.2,0.2,0.4,0.3,0.5,0.6c0.1,0.2,0.2,0.5,0.2,0.8v3.7H260v-0.8h0c-0.1,0.2-0.2,0.3-0.4,0.4
		c-0.1,0.1-0.3,0.2-0.5,0.3C258.9,103.6,258.6,103.6,258.4,103.6L258.4,103.6z M258.8,102.5c0.2,0,0.4,0,0.6-0.1
		c0.2-0.1,0.3-0.2,0.4-0.4c0.1-0.1,0.1-0.3,0.1-0.5V101c0,0-0.1,0.1-0.2,0.1c-0.1,0-0.2,0.1-0.3,0.1c-0.1,0-0.2,0-0.3,0.1
		c-0.1,0-0.2,0-0.3,0c-0.2,0-0.3,0.1-0.5,0.1c-0.1,0.1-0.2,0.1-0.3,0.2s-0.1,0.2-0.1,0.4c0,0.2,0.1,0.4,0.2,0.5
		S258.5,102.5,258.8,102.5L258.8,102.5z M258.6,97.3l0.8-1.6h1.4l-1.1,1.6H258.6z"/>
	<path class="st10" d="M215.4,111.2V108h1.5v5.4h-1.4v-1h-0.1c-0.1,0.3-0.3,0.6-0.6,0.8c-0.3,0.2-0.6,0.3-1,0.3
		c-0.4,0-0.7-0.1-1-0.2c-0.3-0.2-0.5-0.4-0.6-0.7c-0.2-0.3-0.2-0.7-0.2-1.1V108h1.5v3.2c0,0.3,0.1,0.6,0.3,0.8
		c0.2,0.2,0.4,0.3,0.7,0.3c0.2,0,0.4,0,0.5-0.1c0.2-0.1,0.3-0.2,0.4-0.4S215.4,111.4,215.4,111.2L215.4,111.2z M213.8,107.3l0.8-1.6
		h1.4l-1.1,1.6H213.8L213.8,107.3z"/>
	<path class="st10" d="M220.6,113.6c-0.6,0-1-0.1-1.4-0.4c-0.4-0.2-0.7-0.6-0.9-1c-0.2-0.4-0.3-0.9-0.3-1.5c0-0.5,0.1-1.1,0.3-1.5
		c0.2-0.4,0.5-0.8,0.9-1c0.4-0.2,0.9-0.4,1.4-0.4c0.5,0,0.9,0.1,1.2,0.3s0.6,0.4,0.9,0.7c0.2,0.3,0.3,0.7,0.3,1.1h-1.4
		c0-0.3-0.1-0.5-0.3-0.7c-0.2-0.2-0.4-0.2-0.7-0.2c-0.2,0-0.4,0.1-0.6,0.2s-0.3,0.3-0.4,0.6s-0.1,0.5-0.1,0.9c0,0.3,0.1,0.6,0.1,0.9
		c0.1,0.2,0.2,0.4,0.4,0.6c0.2,0.1,0.4,0.2,0.6,0.2c0.2,0,0.3,0,0.5-0.1c0.1-0.1,0.2-0.2,0.3-0.3c0.1-0.1,0.1-0.3,0.2-0.5h1.4
		c0,0.4-0.1,0.8-0.3,1.1c-0.2,0.3-0.5,0.6-0.8,0.7C221.4,113.5,221,113.6,220.6,113.6L220.6,113.6z M219.8,105.8l0.7,0.9l0.7-0.9
		h1.3v0.1l-1.4,1.6H220l-1.4-1.6v-0.1H219.8L219.8,105.8z"/>
	<path class="st10" d="M224.7,107.3c-0.2,0-0.4-0.1-0.6-0.2c-0.2-0.1-0.2-0.3-0.2-0.5c0-0.2,0.1-0.4,0.2-0.5
		c0.2-0.1,0.4-0.2,0.6-0.2s0.4,0.1,0.6,0.2c0.2,0.2,0.2,0.3,0.2,0.5c0,0.2-0.1,0.4-0.2,0.5C225.1,107.2,224.9,107.3,224.7,107.3z
		 M224,113.5V108h1.5v5.4H224z"/>
	<path class="st10" d="M228.2,110.3v3.1h-1.5V108h1.4v1h0.1c0.1-0.3,0.3-0.6,0.6-0.8c0.3-0.2,0.6-0.3,1-0.3c0.4,0,0.7,0.1,1,0.2
		s0.5,0.4,0.7,0.7s0.2,0.7,0.2,1.1v3.5h-1.5v-3.2c0-0.3-0.1-0.6-0.3-0.8c-0.2-0.2-0.4-0.3-0.7-0.3c-0.2,0-0.4,0-0.5,0.1
		c-0.2,0.1-0.3,0.2-0.4,0.4C228.2,109.9,228.2,110.1,228.2,110.3L228.2,110.3z"/>
	<path class="st10" d="M234.4,110.3v3.1h-1.5V108h1.4v1h0.1c0.1-0.3,0.3-0.6,0.6-0.8c0.3-0.2,0.6-0.3,1-0.3c0.4,0,0.7,0.1,1,0.2
		s0.5,0.4,0.7,0.7s0.2,0.7,0.2,1.1v3.5h-1.5v-3.2c0-0.3-0.1-0.6-0.3-0.8c-0.2-0.2-0.4-0.3-0.7-0.3c-0.2,0-0.4,0-0.5,0.1
		c-0.2,0.1-0.3,0.2-0.4,0.4C234.5,109.9,234.4,110.1,234.4,110.3L234.4,110.3z"/>
	<path class="st10" d="M241.6,113.6c-0.6,0-1-0.1-1.4-0.3s-0.7-0.6-0.9-1c-0.2-0.4-0.3-0.9-0.3-1.5s0.1-1.1,0.3-1.5s0.5-0.8,0.9-1
		c0.4-0.2,0.9-0.3,1.4-0.3s1,0.1,1.4,0.3c0.4,0.2,0.7,0.6,0.9,1c0.2,0.4,0.3,0.9,0.3,1.5c0,0.6-0.1,1.1-0.3,1.5s-0.5,0.8-0.9,1
		C242.6,113.5,242.1,113.6,241.6,113.6z M241.6,112.4c0.2,0,0.5-0.1,0.6-0.2s0.3-0.3,0.4-0.6c0.1-0.2,0.1-0.5,0.1-0.9
		c0-0.3,0-0.6-0.1-0.8c-0.1-0.2-0.2-0.4-0.4-0.6s-0.4-0.2-0.6-0.2s-0.5,0.1-0.6,0.2c-0.2,0.1-0.3,0.3-0.4,0.6s-0.1,0.5-0.1,0.8
		c0,0.3,0,0.6,0.1,0.9c0.1,0.2,0.2,0.4,0.4,0.6C241.1,112.3,241.3,112.4,241.6,112.4z"/>
	<path class="st10" d="M249.8,109.6l-1.4,0.1c0-0.1-0.1-0.2-0.1-0.3s-0.2-0.2-0.3-0.2c-0.1-0.1-0.3-0.1-0.4-0.1
		c-0.2,0-0.4,0.1-0.6,0.2c-0.2,0.1-0.2,0.2-0.2,0.4c0,0.1,0.1,0.2,0.2,0.3c0.1,0.1,0.3,0.2,0.5,0.2l1,0.2c0.5,0.1,0.9,0.3,1.2,0.5
		c0.3,0.2,0.4,0.6,0.4,0.9c0,0.4-0.1,0.7-0.3,0.9c-0.2,0.3-0.5,0.5-0.9,0.6s-0.8,0.2-1.3,0.2c-0.7,0-1.3-0.2-1.7-0.4
		c-0.4-0.3-0.7-0.7-0.8-1.2l1.5-0.1c0,0.2,0.1,0.4,0.3,0.5c0.2,0.1,0.4,0.2,0.7,0.2s0.5-0.1,0.6-0.1c0.2-0.1,0.2-0.2,0.2-0.4
		c0-0.1-0.1-0.2-0.2-0.3s-0.3-0.2-0.5-0.2l-0.9-0.2c-0.5-0.1-0.9-0.3-1.2-0.6c-0.3-0.3-0.4-0.6-0.4-1c0-0.4,0.1-0.7,0.3-0.9
		c0.2-0.2,0.5-0.4,0.8-0.6c0.4-0.1,0.8-0.2,1.2-0.2c0.7,0,1.2,0.1,1.6,0.4C249.5,108.7,249.8,109.1,249.8,109.6L249.8,109.6z"/>
	<path class="st10" d="M253.8,108v1.1h-3.3V108H253.8z M251.2,106.7h1.5v5.1c0,0.1,0,0.2,0.1,0.3c0,0.1,0.1,0.1,0.2,0.2
		c0.1,0,0.2,0.1,0.3,0.1c0.1,0,0.1,0,0.2,0c0.1,0,0.1,0,0.2,0l0.2,1.1c-0.1,0-0.2,0.1-0.3,0.1c-0.1,0-0.3,0.1-0.5,0.1
		c-0.4,0-0.7,0-1-0.1s-0.5-0.3-0.6-0.5s-0.2-0.5-0.2-0.9L251.2,106.7L251.2,106.7z"/>
</g>
<g class="st9">
	<path class="st10" d="M303.8,85.5v-2.2l5.5-8.6h1.9v3H310l-3.4,5.5v0.1h7.8v2.2H303.8z M310.1,87.8v-3l0.1-1v-9.2h2.6v13.1H310.1z"
		/>
</g>
<g class="st9">
	<path class="st10" d="M320,90.2v-9h1.8v1.1h0.1c0.1-0.2,0.2-0.4,0.3-0.5c0.2-0.2,0.4-0.3,0.6-0.5s0.6-0.2,0.9-0.2
		c0.5,0,0.9,0.1,1.3,0.4s0.7,0.6,1,1.1c0.2,0.5,0.4,1.1,0.4,1.9c0,0.7-0.1,1.3-0.4,1.8c-0.2,0.5-0.6,0.9-1,1.1
		c-0.4,0.3-0.9,0.4-1.3,0.4c-0.4,0-0.7-0.1-0.9-0.2c-0.2-0.1-0.4-0.3-0.6-0.4c-0.2-0.2-0.3-0.4-0.4-0.5h-0.1v3.5H320z M321.8,84.5
		c0,0.4,0.1,0.7,0.2,1c0.1,0.3,0.3,0.5,0.5,0.7c0.2,0.2,0.5,0.2,0.7,0.2c0.3,0,0.5-0.1,0.8-0.2s0.4-0.4,0.5-0.7
		c0.1-0.3,0.2-0.6,0.2-1c0-0.4-0.1-0.7-0.2-1s-0.3-0.5-0.5-0.7c-0.2-0.2-0.5-0.2-0.8-0.2c-0.3,0-0.5,0.1-0.7,0.2
		c-0.2,0.2-0.4,0.4-0.5,0.7C321.8,83.8,321.8,84.1,321.8,84.5z"/>
</g>
<g class="st9">
	<path class="st10" d="M328.7,87.9c-0.3,0-0.5-0.1-0.7-0.3s-0.3-0.4-0.3-0.7c0-0.3,0.1-0.5,0.3-0.7c0.2-0.2,0.4-0.3,0.7-0.3
		c0.3,0,0.5,0.1,0.7,0.3c0.2,0.2,0.3,0.4,0.3,0.7c0,0.2,0,0.4-0.1,0.5c-0.1,0.2-0.2,0.3-0.4,0.4C329,87.8,328.9,87.9,328.7,87.9z"/>
</g>
<g class="st9">
	<path class="st10" d="M333.6,87.8V79h1.8v3.3h0.1c0.1-0.2,0.2-0.4,0.3-0.5c0.2-0.2,0.4-0.3,0.6-0.5c0.2-0.1,0.6-0.2,0.9-0.2
		c0.5,0,0.9,0.1,1.3,0.4c0.4,0.2,0.7,0.6,1,1.1c0.2,0.5,0.4,1.1,0.4,1.9c0,0.7-0.1,1.3-0.4,1.8c-0.2,0.5-0.6,0.9-1,1.1
		c-0.4,0.3-0.9,0.4-1.3,0.4c-0.4,0-0.7-0.1-0.9-0.2c-0.2-0.1-0.4-0.3-0.6-0.4c-0.2-0.2-0.3-0.4-0.4-0.5h-0.1v1H333.6z M335.4,84.5
		c0,0.4,0.1,0.7,0.2,1c0.1,0.3,0.3,0.5,0.5,0.7c0.2,0.2,0.5,0.2,0.7,0.2c0.3,0,0.5-0.1,0.8-0.2c0.2-0.2,0.4-0.4,0.5-0.7
		s0.2-0.6,0.2-1c0-0.4-0.1-0.7-0.2-1s-0.3-0.5-0.5-0.7c-0.2-0.2-0.5-0.2-0.8-0.2c-0.3,0-0.5,0.1-0.7,0.2c-0.2,0.2-0.4,0.4-0.5,0.7
		C335.4,83.8,335.4,84.1,335.4,84.5z"/>
</g>
<g class="st9">
	<path class="st10" d="M342.2,87.9c-0.3,0-0.5-0.1-0.7-0.3s-0.3-0.4-0.3-0.7c0-0.3,0.1-0.5,0.3-0.7c0.2-0.2,0.4-0.3,0.7-0.3
		c0.3,0,0.5,0.1,0.7,0.3c0.2,0.2,0.3,0.4,0.3,0.7c0,0.2,0,0.4-0.1,0.5s-0.2,0.3-0.4,0.4C342.6,87.8,342.4,87.9,342.2,87.9z"/>
</g>
<g class="st9">
	<path class="st10" d="M303,103.5v-7.3h2.9c0.5,0,1,0.1,1.3,0.2c0.4,0.2,0.6,0.4,0.8,0.7s0.3,0.6,0.3,1c0,0.3-0.1,0.5-0.2,0.7
		c-0.1,0.2-0.3,0.4-0.5,0.5c-0.2,0.1-0.4,0.2-0.7,0.3v0.1c0.3,0,0.5,0.1,0.8,0.2c0.2,0.1,0.4,0.3,0.6,0.6c0.2,0.3,0.2,0.6,0.2,0.9
		c0,0.4-0.1,0.7-0.3,1s-0.5,0.5-0.8,0.7s-0.8,0.3-1.4,0.3H303z M304.5,99.3h1.1c0.2,0,0.4,0,0.6-0.1c0.2-0.1,0.3-0.2,0.4-0.3
		c0.1-0.1,0.1-0.3,0.1-0.5c0-0.3-0.1-0.5-0.3-0.6s-0.4-0.2-0.8-0.2h-1.2V99.3z M304.5,102.2h1.3c0.4,0,0.7-0.1,0.9-0.2
		c0.2-0.2,0.3-0.4,0.3-0.7c0-0.2,0-0.4-0.1-0.5s-0.2-0.3-0.4-0.4s-0.4-0.1-0.6-0.1h-1.3V102.2z"/>
	<path class="st10" d="M310.3,97.3c-0.2,0-0.4-0.1-0.6-0.2c-0.2-0.2-0.2-0.3-0.2-0.5c0-0.2,0.1-0.4,0.2-0.5c0.2-0.2,0.4-0.2,0.6-0.2
		s0.4,0.1,0.6,0.2s0.2,0.3,0.2,0.5c0,0.2-0.1,0.4-0.2,0.5S310.6,97.3,310.3,97.3z M309.6,103.5V98h1.5v5.5H309.6z"/>
	<path class="st10" d="M314.8,103.6c-0.6,0-1-0.1-1.4-0.4c-0.4-0.2-0.7-0.6-0.9-1c-0.2-0.4-0.3-0.9-0.3-1.5c0-0.6,0.1-1.1,0.3-1.5
		c0.2-0.4,0.5-0.8,0.9-1c0.4-0.2,0.9-0.4,1.4-0.4s1,0.1,1.4,0.4c0.4,0.2,0.7,0.6,0.9,1c0.2,0.4,0.3,0.9,0.3,1.5c0,0.6-0.1,1-0.3,1.5
		c-0.2,0.4-0.5,0.8-0.9,1C315.8,103.5,315.3,103.6,314.8,103.6z M314.8,102.4c0.3,0,0.5-0.1,0.6-0.2s0.3-0.3,0.4-0.6
		c0.1-0.2,0.1-0.5,0.1-0.8s0-0.6-0.1-0.8c-0.1-0.2-0.2-0.4-0.4-0.6c-0.2-0.1-0.4-0.2-0.6-0.2c-0.3,0-0.5,0.1-0.6,0.2
		c-0.2,0.1-0.3,0.3-0.4,0.6c-0.1,0.2-0.1,0.5-0.1,0.8s0,0.6,0.1,0.8c0.1,0.2,0.2,0.4,0.4,0.6C314.3,102.3,314.5,102.4,314.8,102.4z"
		/>
	<path class="st10" d="M318.4,103.5V98h1.4v1h0.1c0.1-0.3,0.3-0.6,0.6-0.8c0.3-0.2,0.6-0.3,1-0.3c0.4,0,0.7,0.1,1,0.3
		c0.3,0.2,0.4,0.4,0.5,0.8h0.1c0.1-0.3,0.3-0.6,0.6-0.8c0.3-0.2,0.6-0.3,1-0.3c0.5,0,0.9,0.2,1.2,0.5s0.5,0.8,0.5,1.4v3.7h-1.5v-3.4
		c0-0.3-0.1-0.5-0.2-0.7c-0.2-0.2-0.4-0.2-0.6-0.2c-0.3,0-0.5,0.1-0.6,0.3c-0.2,0.2-0.2,0.4-0.2,0.7v3.3h-1.5v-3.4
		c0-0.3-0.1-0.5-0.2-0.6c-0.2-0.2-0.4-0.2-0.6-0.2c-0.2,0-0.3,0-0.5,0.1s-0.2,0.2-0.3,0.4s-0.1,0.3-0.1,0.5v3.3H318.4z"/>
	<path class="st10" d="M329.1,103.6c-0.3,0-0.7-0.1-0.9-0.2s-0.5-0.3-0.6-0.5s-0.2-0.5-0.2-0.9c0-0.3,0.1-0.6,0.2-0.8
		s0.3-0.4,0.5-0.5c0.2-0.1,0.4-0.2,0.7-0.3c0.2-0.1,0.5-0.1,0.8-0.1c0.3,0,0.6-0.1,0.8-0.1c0.2,0,0.3-0.1,0.4-0.1
		c0.1-0.1,0.1-0.1,0.1-0.3v0c0-0.2-0.1-0.4-0.2-0.5c-0.1-0.1-0.3-0.2-0.6-0.2c-0.3,0-0.5,0.1-0.7,0.2c-0.2,0.1-0.3,0.3-0.3,0.4
		l-1.4-0.1c0.1-0.3,0.2-0.6,0.4-0.9c0.2-0.2,0.5-0.4,0.8-0.6c0.3-0.1,0.7-0.2,1.1-0.2c0.3,0,0.6,0,0.9,0.1s0.5,0.2,0.7,0.3
		s0.4,0.3,0.5,0.6c0.1,0.2,0.2,0.5,0.2,0.8v3.7h-1.4v-0.8h0c-0.1,0.2-0.2,0.3-0.4,0.4c-0.1,0.1-0.3,0.2-0.5,0.3
		C329.6,103.5,329.4,103.6,329.1,103.6z M329.5,102.5c0.2,0,0.4,0,0.6-0.1c0.2-0.1,0.3-0.2,0.4-0.4c0.1-0.2,0.1-0.3,0.1-0.5V101
		c0,0-0.1,0.1-0.2,0.1c-0.1,0-0.2,0-0.3,0.1c-0.1,0-0.2,0-0.3,0.1s-0.2,0-0.3,0c-0.2,0-0.3,0.1-0.5,0.1s-0.2,0.1-0.3,0.2
		c-0.1,0.1-0.1,0.2-0.1,0.4c0,0.2,0.1,0.4,0.2,0.5S329.3,102.5,329.5,102.5z"/>
	<path class="st10" d="M337.9,99.6l-1.4,0.1c0-0.1-0.1-0.2-0.2-0.3c-0.1-0.1-0.2-0.2-0.3-0.2c-0.1-0.1-0.3-0.1-0.5-0.1
		c-0.2,0-0.4,0-0.6,0.1s-0.2,0.2-0.2,0.4c0,0.1,0.1,0.2,0.2,0.3s0.3,0.2,0.5,0.2l1,0.2c0.5,0.1,0.9,0.3,1.2,0.5
		c0.3,0.2,0.4,0.6,0.4,1c0,0.4-0.1,0.7-0.3,0.9c-0.2,0.3-0.5,0.5-0.9,0.6s-0.8,0.2-1.3,0.2c-0.7,0-1.3-0.2-1.7-0.5
		c-0.4-0.3-0.7-0.7-0.8-1.2l1.5-0.1c0,0.2,0.2,0.4,0.3,0.5c0.2,0.1,0.4,0.2,0.7,0.2c0.3,0,0.5-0.1,0.6-0.2c0.2-0.1,0.2-0.2,0.2-0.4
		c0-0.1-0.1-0.2-0.2-0.3c-0.1-0.1-0.3-0.2-0.5-0.2l-0.9-0.2c-0.5-0.1-0.9-0.3-1.2-0.6c-0.3-0.3-0.4-0.6-0.4-1c0-0.4,0.1-0.7,0.3-0.9
		c0.2-0.3,0.5-0.4,0.8-0.6c0.3-0.1,0.8-0.2,1.2-0.2c0.7,0,1.2,0.1,1.6,0.4S337.8,99.1,337.9,99.6z"/>
	<path class="st10" d="M340.5,103.6c-0.3,0-0.7-0.1-0.9-0.2c-0.3-0.1-0.5-0.3-0.6-0.5c-0.2-0.2-0.2-0.5-0.2-0.9
		c0-0.3,0.1-0.6,0.2-0.8c0.1-0.2,0.3-0.4,0.5-0.5c0.2-0.1,0.4-0.2,0.7-0.3c0.2-0.1,0.5-0.1,0.8-0.1c0.3,0,0.6-0.1,0.8-0.1
		c0.2,0,0.3-0.1,0.4-0.1c0.1-0.1,0.1-0.1,0.1-0.3v0c0-0.2-0.1-0.4-0.2-0.5s-0.3-0.2-0.6-0.2c-0.3,0-0.5,0.1-0.6,0.2
		c-0.2,0.1-0.3,0.3-0.3,0.4l-1.4-0.1c0.1-0.3,0.2-0.6,0.4-0.9c0.2-0.2,0.5-0.4,0.8-0.6c0.3-0.1,0.7-0.2,1.1-0.2c0.3,0,0.6,0,0.9,0.1
		c0.3,0.1,0.5,0.2,0.7,0.3c0.2,0.1,0.4,0.3,0.5,0.6c0.1,0.2,0.2,0.5,0.2,0.8v3.7h-1.4v-0.8h0c-0.1,0.2-0.2,0.3-0.4,0.4
		c-0.1,0.1-0.3,0.2-0.5,0.3C341,103.5,340.8,103.6,340.5,103.6z M341,102.5c0.2,0,0.4,0,0.6-0.1c0.2-0.1,0.3-0.2,0.4-0.4
		c0.1-0.2,0.1-0.3,0.1-0.5V101c0,0-0.1,0.1-0.2,0.1c-0.1,0-0.2,0-0.3,0.1c-0.1,0-0.2,0-0.3,0.1c-0.1,0-0.2,0-0.3,0
		c-0.2,0-0.3,0.1-0.5,0.1c-0.1,0.1-0.2,0.1-0.3,0.2c-0.1,0.1-0.1,0.2-0.1,0.4c0,0.2,0.1,0.4,0.2,0.5
		C340.5,102.5,340.7,102.5,341,102.5z"/>
</g>
</svg>
