<?xml version="1.0" encoding="UTF-8"?>
<svg id="Layer_1" data-name="Layer 1" xmlns="http://www.w3.org/2000/svg" xmlns:xlink="http://www.w3.org/1999/xlink" viewBox="0 0 660 193.41">
  <defs>
    <style>
      .cls-1 {
        stroke: #606060;
        stroke-linecap: round;
      }

      .cls-1, .cls-2, .cls-3, .cls-4, .cls-5, .cls-6, .cls-7 {
        stroke-miterlimit: 10;
      }

      .cls-1, .cls-7 {
        fill: none;
      }

      .cls-2 {
        fill: #ffcd5c;
      }

      .cls-2, .cls-3, .cls-4, .cls-5, .cls-6 {
        stroke: #fff;
        stroke-width: .5px;
      }

      .cls-3 {
        fill: #974899;
      }

      .cls-4, .cls-8 {
        fill: #1b9aa3;
      }

      .cls-5, .cls-9 {
        fill: #bf3d7c;
      }

      .cls-6 {
        fill: #f58d77;
      }

      .cls-7 {
        stroke: url(#linear-gradient);
      }

      .cls-10, .cls-11, .cls-12, .cls-8, .cls-13, .cls-9, .cls-14, .cls-15 {
        stroke-width: 0px;
      }

      .cls-16 {
        isolation: isolate;
      }

      .cls-11 {
        fill: #f48f62;
      }

      .cls-12 {
        fill: #4c5c68;
      }

      .cls-13 {
        fill: #e2a00c;
      }

      .cls-14 {
        fill: #8d4a92;
      }

      .cls-15 {
        fill: #fff;
      }
    </style>
    <symbol id="New_Symbol" data-name="New Symbol" viewBox="0 0 564.82 24">
      <g>
        <g>
          <path class="cls-1" d="M3.98.5v5"/>
          <path class="cls-1" d="M140.21.5v5"/>
          <path class="cls-1" d="M277.95.5v5"/>
          <path class="cls-1" d="M415.7.5v5"/>
          <path class="cls-1" d="M553.45.5v5"/>
        </g>
        <g>
          <path class="cls-12" d="M6.56,16.54c0,1.38-.24,2.4-.7,3.07-.47.67-1.2,1-2.2,1s-1.72-.33-2.19-.98c-.47-.65-.72-1.63-.74-2.93v-1.57c0-1.36.23-2.37.7-3.03s1.21-.99,2.21-.99,1.73.32,2.2.96c.47.64.71,1.62.72,2.95v1.52ZM5.39,14.93c0-.99-.14-1.72-.42-2.17-.28-.46-.72-.68-1.33-.68s-1.04.23-1.31.68c-.28.45-.42,1.15-.43,2.09v1.88c0,1,.14,1.74.43,2.21.29.48.73.71,1.32.71s1.01-.22,1.29-.67.43-1.16.44-2.12v-1.92Z"/>
          <path class="cls-12" d="M9.88,13.01c0-.55.18-1.01.53-1.37s.81-.54,1.36-.54,1.02.18,1.37.54c.35.36.52.83.52,1.41v.45c0,.56-.18,1.01-.53,1.37-.35.35-.8.53-1.35.53s-1-.18-1.36-.53c-.36-.35-.54-.82-.54-1.41v-.44ZM10.76,13.5c0,.33.09.6.28.82.19.21.44.32.75.32s.54-.1.73-.31c.18-.21.28-.49.28-.85v-.46c0-.33-.09-.6-.27-.82s-.43-.32-.74-.32-.56.11-.74.32-.27.5-.27.85v.46ZM12.06,19.78l-.67-.42,4.51-7.22.67.42-4.51,7.22ZM14.38,18.21c0-.55.18-1.01.53-1.37.35-.36.81-.54,1.36-.54s1.01.18,1.37.53.53.83.53,1.42v.45c0,.55-.18,1.01-.53,1.37-.35.36-.81.54-1.36.54s-1-.18-1.36-.53c-.36-.35-.54-.82-.54-1.41v-.46ZM15.26,18.7c0,.33.09.61.28.82s.44.32.75.32.55-.1.73-.31c.18-.21.27-.5.27-.86v-.47c0-.33-.09-.61-.28-.82-.18-.21-.43-.32-.74-.32s-.54.1-.73.31-.28.49-.28.85v.47Z"/>
        </g>
        <g>
          <path class="cls-12" d="M536.11,20.48h-1.18v-7.83l-2.37.87v-1.07l3.36-1.26h.18v9.29Z"/>
          <path class="cls-12" d="M545.34,16.54c0,1.38-.24,2.4-.7,3.07-.47.67-1.2,1-2.2,1s-1.72-.33-2.19-.98c-.47-.65-.72-1.63-.74-2.93v-1.57c0-1.36.23-2.37.7-3.03s1.21-.99,2.21-.99,1.73.32,2.2.96c.47.64.71,1.62.72,2.95v1.52ZM544.17,14.93c0-.99-.14-1.72-.42-2.17-.28-.46-.72-.68-1.33-.68s-1.04.23-1.31.68c-.28.45-.42,1.15-.43,2.09v1.88c0,1,.14,1.74.43,2.21.29.48.73.71,1.32.71s1.01-.22,1.29-.67.43-1.16.44-2.12v-1.92Z"/>
          <path class="cls-12" d="M552.64,16.54c0,1.38-.24,2.4-.7,3.07-.47.67-1.2,1-2.2,1s-1.72-.33-2.19-.98c-.47-.65-.72-1.63-.74-2.93v-1.57c0-1.36.23-2.37.7-3.03s1.21-.99,2.21-.99,1.73.32,2.2.96c.47.64.71,1.62.72,2.95v1.52ZM551.47,14.93c0-.99-.14-1.72-.42-2.17-.28-.46-.72-.68-1.33-.68s-1.04.23-1.31.68c-.28.45-.42,1.15-.43,2.09v1.88c0,1,.14,1.74.43,2.21.29.48.73.71,1.32.71s1.01-.22,1.29-.67.43-1.16.44-2.12v-1.92Z"/>
          <path class="cls-12" d="M555.96,13.01c0-.55.18-1.01.53-1.37s.81-.54,1.36-.54,1.02.18,1.37.54c.35.36.52.83.52,1.41v.45c0,.56-.18,1.01-.53,1.37-.35.35-.8.53-1.35.53s-1-.18-1.36-.53c-.36-.35-.54-.82-.54-1.41v-.44ZM556.84,13.5c0,.33.09.6.28.82.19.21.44.32.75.32s.54-.1.73-.31c.18-.21.28-.49.28-.85v-.46c0-.33-.09-.6-.27-.82s-.43-.32-.74-.32-.56.11-.74.32-.27.5-.27.85v.46ZM558.13,19.78l-.67-.42,4.51-7.22.67.42-4.51,7.22ZM560.46,18.21c0-.55.18-1.01.53-1.37.35-.36.81-.54,1.36-.54s1.01.18,1.37.53.53.83.53,1.42v.45c0,.55-.18,1.01-.53,1.37-.35.36-.81.54-1.36.54s-1-.18-1.36-.53c-.36-.35-.54-.82-.54-1.41v-.46ZM561.34,18.7c0,.33.09.61.28.82s.44.32.75.32.55-.1.73-.31c.18-.21.27-.5.27-.86v-.47c0-.33-.09-.61-.28-.82-.18-.21-.43-.32-.74-.32s-.54.1-.73.31-.28.49-.28.85v.47Z"/>
        </g>
        <g>
          <path class="cls-12" d="M413.2,11.89l-3.83,8.58h-1.23l3.81-8.28h-5v-.96h6.25v.66Z"/>
          <path class="cls-12" d="M415.07,15.84l.47-4.61h4.74v1.09h-3.74l-.28,2.52c.45-.27.97-.4,1.54-.4.84,0,1.51.28,2.01.83.5.56.74,1.31.74,2.26s-.26,1.7-.77,2.25c-.51.55-1.23.82-2.16.82-.82,0-1.48-.23-2-.68-.52-.45-.81-1.08-.88-1.88h1.11c.07.53.26.93.57,1.2.3.27.71.4,1.21.4.55,0,.97-.19,1.29-.56.31-.37.47-.89.47-1.54,0-.62-.17-1.11-.5-1.49-.34-.38-.78-.56-1.34-.56-.51,0-.91.11-1.21.34l-.31.25-.94-.24Z"/>
          <path class="cls-12" d="M423.65,13.01c0-.55.18-1.01.53-1.37s.81-.54,1.36-.54,1.02.18,1.37.54c.35.36.52.83.52,1.41v.45c0,.56-.18,1.01-.53,1.37-.35.35-.8.53-1.35.53s-1-.18-1.36-.53c-.36-.35-.54-.82-.54-1.41v-.44ZM424.53,13.5c0,.33.09.6.28.82.19.21.44.32.75.32s.54-.1.73-.31c.18-.21.28-.49.28-.85v-.46c0-.33-.09-.6-.27-.82s-.43-.32-.74-.32-.56.11-.74.32-.27.5-.27.85v.46ZM425.82,19.78l-.67-.42,4.51-7.22.67.42-4.51,7.22ZM428.15,18.21c0-.55.18-1.01.53-1.37.35-.36.81-.54,1.36-.54s1.01.18,1.37.53.53.83.53,1.42v.45c0,.55-.18,1.01-.53,1.37-.35.36-.81.54-1.36.54s-1-.18-1.36-.53c-.36-.35-.54-.82-.54-1.41v-.46ZM429.03,18.7c0,.33.09.61.28.82s.44.32.75.32.55-.1.73-.31c.18-.21.27-.5.27-.86v-.47c0-.33-.09-.61-.28-.82-.18-.21-.43-.32-.74-.32s-.54.1-.73.31-.28.49-.28.85v.47Z"/>
        </g>
        <g>
          <path class="cls-12" d="M138.55,20.48h-6.06v-.84l3.2-3.55c.47-.54.8-.97.98-1.31.18-.34.27-.68.27-1.04,0-.48-.15-.88-.44-1.19-.29-.31-.68-.46-1.17-.46-.58,0-1.04.17-1.36.5-.32.33-.49.79-.49,1.39h-1.17c0-.85.27-1.54.82-2.06s1.28-.79,2.2-.79c.86,0,1.54.23,2.04.68.5.45.75,1.05.75,1.8,0,.91-.58,1.99-1.74,3.25l-2.48,2.69h4.64v.96Z"/>
          <path class="cls-12" d="M140.34,15.84l.47-4.61h4.74v1.09h-3.74l-.28,2.52c.45-.27.97-.4,1.54-.4.84,0,1.51.28,2.01.83.5.56.74,1.31.74,2.26s-.26,1.7-.77,2.25c-.51.55-1.23.82-2.16.82-.82,0-1.48-.23-2-.68-.52-.45-.81-1.08-.88-1.88h1.11c.07.53.26.93.57,1.2.3.27.71.4,1.21.4.55,0,.97-.19,1.29-.56.31-.37.47-.89.47-1.54,0-.62-.17-1.11-.5-1.49-.34-.38-.78-.56-1.34-.56-.51,0-.91.11-1.21.34l-.31.25-.94-.24Z"/>
          <path class="cls-12" d="M148.91,13.01c0-.55.18-1.01.53-1.37s.81-.54,1.36-.54,1.02.18,1.37.54c.35.36.52.83.52,1.41v.45c0,.56-.18,1.01-.53,1.37-.35.35-.8.53-1.35.53s-1-.18-1.36-.53c-.36-.35-.54-.82-.54-1.41v-.44ZM149.79,13.5c0,.33.09.6.28.82.19.21.44.32.75.32s.54-.1.73-.31c.18-.21.28-.49.28-.85v-.46c0-.33-.09-.6-.27-.82s-.43-.32-.74-.32-.56.11-.74.32-.27.5-.27.85v.46ZM151.08,19.78l-.67-.42,4.51-7.22.67.42-4.51,7.22ZM153.41,18.21c0-.55.18-1.01.53-1.37.35-.36.81-.54,1.36-.54s1.01.18,1.37.53.53.83.53,1.42v.45c0,.55-.18,1.01-.53,1.37-.35.36-.81.54-1.36.54s-1-.18-1.36-.53c-.36-.35-.54-.82-.54-1.41v-.46ZM154.29,18.7c0,.33.09.61.28.82s.44.32.75.32.55-.1.73-.31c.18-.21.27-.5.27-.86v-.47c0-.33-.09-.61-.28-.82-.18-.21-.43-.32-.74-.32s-.54.1-.73.31-.28.49-.28.85v.47Z"/>
        </g>
        <g>
          <path class="cls-12" d="M270.59,15.84l.47-4.61h4.74v1.09h-3.74l-.28,2.52c.45-.27.97-.4,1.54-.4.84,0,1.51.28,2.01.83.5.56.74,1.31.74,2.26s-.26,1.7-.77,2.25c-.51.55-1.23.82-2.16.82-.82,0-1.48-.23-2-.68-.52-.45-.81-1.08-.88-1.88h1.11c.07.53.26.93.57,1.2.3.27.71.4,1.21.4.55,0,.97-.19,1.29-.56.31-.37.47-.89.47-1.54,0-.62-.17-1.11-.5-1.49-.34-.38-.78-.56-1.34-.56-.51,0-.91.11-1.21.34l-.31.25-.94-.24Z"/>
          <path class="cls-12" d="M283.14,16.54c0,1.38-.24,2.4-.7,3.07-.47.67-1.2,1-2.2,1s-1.72-.33-2.19-.98c-.47-.65-.72-1.63-.74-2.93v-1.57c0-1.36.23-2.37.7-3.03s1.21-.99,2.21-.99,1.73.32,2.2.96c.47.64.71,1.62.72,2.95v1.52ZM281.97,14.93c0-.99-.14-1.72-.42-2.17-.28-.46-.72-.68-1.33-.68s-1.04.23-1.31.68c-.28.45-.42,1.15-.43,2.09v1.88c0,1,.14,1.74.43,2.21.29.48.73.71,1.32.71s1.01-.22,1.29-.67.43-1.16.44-2.12v-1.92Z"/>
          <path class="cls-12" d="M286.46,13.01c0-.55.18-1.01.53-1.37s.81-.54,1.36-.54,1.02.18,1.37.54c.35.36.52.83.52,1.41v.45c0,.56-.18,1.01-.53,1.37-.35.35-.8.53-1.35.53s-1-.18-1.36-.53c-.36-.35-.54-.82-.54-1.41v-.44ZM287.34,13.5c0,.33.09.6.28.82.19.21.44.32.75.32s.54-.1.73-.31c.18-.21.28-.49.28-.85v-.46c0-.33-.09-.6-.27-.82s-.43-.32-.74-.32-.56.11-.74.32-.27.5-.27.85v.46ZM288.63,19.78l-.67-.42,4.51-7.22.67.42-4.51,7.22ZM290.96,18.21c0-.55.18-1.01.53-1.37.35-.36.81-.54,1.36-.54s1.01.18,1.37.53.53.83.53,1.42v.45c0,.55-.18,1.01-.53,1.37-.35.36-.81.54-1.36.54s-1-.18-1.36-.53c-.36-.35-.54-.82-.54-1.41v-.46ZM291.84,18.7c0,.33.09.61.28.82s.44.32.75.32.55-.1.73-.31c.18-.21.27-.5.27-.86v-.47c0-.33-.09-.61-.28-.82-.18-.21-.43-.32-.74-.32s-.54.1-.73.31-.28.49-.28.85v.47Z"/>
        </g>
      </g>
    </symbol>
    <linearGradient id="linear-gradient" x1="645.31" y1="23.11" x2="645.31" y2="52.69" gradientUnits="userSpaceOnUse">
      <stop offset="0" stop-color="#efac03"/>
      <stop offset="1" stop-color="#ffd96e"/>
    </linearGradient>
  </defs>
  <path class="cls-3" d="M98.25,91.05v-44h307.57v44H98.25Z"/>
  <path class="cls-3" d="M98.25,159.05v-44h453.86v44H98.25Z"/>
  <g>
    <path class="cls-15" d="M8.68,32.04h-4.17l-.94,2.6h-1.35l3.8-9.95h1.15l3.81,9.95h-1.35l-.95-2.6ZM4.91,30.97h3.38l-1.7-4.66-1.69,4.66Z"/>
    <path class="cls-15" d="M21.84,31.03c0,1.13-.26,2.03-.77,2.72-.51.69-1.21,1.03-2.09,1.03s-1.6-.29-2.12-.85v3.56h-1.26v-10.24h1.16l.06.82c.52-.64,1.23-.96,2.15-.96s1.59.33,2.11,1c.52.67.78,1.6.78,2.8v.12ZM20.57,30.89c0-.83-.18-1.49-.53-1.98s-.84-.72-1.46-.72c-.77,0-1.34.34-1.72,1.02v3.53c.38.67.96,1.01,1.74,1.01.61,0,1.09-.24,1.45-.72.36-.48.54-1.19.54-2.14Z"/>
    <path class="cls-15" d="M23.11,30.88c0-.72.14-1.38.43-1.96.28-.58.68-1.03,1.19-1.34.51-.31,1.09-.47,1.74-.47,1.01,0,1.82.35,2.44,1.05s.93,1.62.93,2.78v.09c0,.72-.14,1.37-.41,1.94-.28.57-.67,1.02-1.18,1.34s-1.1.48-1.77.48c-1,0-1.81-.35-2.44-1.05s-.93-1.62-.93-2.77v-.09ZM24.38,31.03c0,.82.19,1.48.57,1.98.38.5.89.75,1.53.75s1.15-.25,1.53-.75c.38-.5.57-1.21.57-2.12,0-.81-.19-1.47-.58-1.97-.39-.5-.9-.76-1.54-.76s-1.13.25-1.51.75-.57,1.21-.57,2.13Z"/>
    <path class="cls-15" d="M31.12,30.89c0-1.13.27-2.05.81-2.74.54-.69,1.24-1.04,2.11-1.04s1.55.3,2.06.89v-3.86h1.26v10.5h-1.16l-.06-.79c-.51.62-1.21.93-2.11.93s-1.55-.35-2.09-1.05-.81-1.62-.81-2.75v-.1ZM32.38,31.03c0,.84.17,1.5.52,1.97.35.47.83.71,1.44.71.8,0,1.39-.36,1.76-1.08v-3.4c-.38-.7-.96-1.05-1.74-1.05-.62,0-1.1.24-1.45.72-.35.48-.52,1.19-.52,2.13Z"/>
    <path class="cls-15" d="M41.04,25.46v1.79h1.38v.98h-1.38v4.59c0,.3.06.52.18.67s.33.22.63.22c.15,0,.35-.03.6-.08v1.02c-.33.09-.66.14-.97.14-.56,0-.99-.17-1.28-.51s-.43-.83-.43-1.46v-4.59h-1.35v-.98h1.35v-1.79h1.26Z"/>
    <path class="cls-15" d="M43.9,25.29c0-.21.06-.38.19-.52.12-.14.31-.21.56-.21s.43.07.56.21c.13.14.19.31.19.52s-.06.38-.19.51c-.13.14-.31.21-.56.21s-.43-.07-.56-.21c-.13-.14-.19-.31-.19-.51ZM45.27,34.65h-1.26v-7.4h1.26v7.4Z"/>
    <path class="cls-15" d="M49.01,25.46v1.79h1.38v.98h-1.38v4.59c0,.3.06.52.18.67s.33.22.63.22c.15,0,.35-.03.6-.08v1.02c-.33.09-.66.14-.97.14-.56,0-.99-.17-1.28-.51s-.43-.83-.43-1.46v-4.59h-1.35v-.98h1.35v-1.79h1.26Z"/>
    <path class="cls-15" d="M56.43,33.92c-.49.58-1.21.87-2.17.87-.79,0-1.39-.23-1.8-.69-.41-.46-.62-1.14-.63-2.03v-4.81h1.26v4.78c0,1.12.46,1.68,1.37,1.68.97,0,1.61-.36,1.93-1.08v-5.38h1.26v7.4h-1.2l-.03-.73Z"/>
    <path class="cls-15" d="M60.96,34.65h-1.26v-10.5h1.26v10.5Z"/>
    <path class="cls-15" d="M66.05,34.79c-1,0-1.82-.33-2.45-.99-.63-.66-.94-1.54-.94-2.64v-.23c0-.73.14-1.39.42-1.97.28-.58.67-1.03,1.18-1.35.5-.33,1.05-.49,1.64-.49.96,0,1.71.32,2.24.95s.8,1.54.8,2.72v.53h-5.01c.02.73.23,1.32.64,1.77.41.45.93.67,1.55.67.45,0,.83-.09,1.13-.27.31-.18.58-.42.81-.72l.77.6c-.62.95-1.55,1.43-2.79,1.43ZM65.89,28.15c-.51,0-.94.19-1.29.56-.35.37-.56.89-.64,1.56h3.71v-.1c-.04-.64-.21-1.14-.52-1.49-.31-.35-.73-.53-1.26-.53Z"/>
    <path class="cls-15" d="M72.46,31.22l-.79.83v2.6h-1.26v-10.5h1.26v6.35l.68-.81,2.3-2.43h1.54l-2.88,3.09,3.21,4.31h-1.48l-2.58-3.42Z"/>
    <path class="cls-15" d="M82.15,27.25l.03.82c.54-.64,1.27-.96,2.19-.96,1.04,0,1.74.4,2.11,1.19.25-.36.57-.64.96-.86.39-.22.86-.33,1.4-.33,1.62,0,2.45.86,2.47,2.58v4.96h-1.26v-4.88c0-.53-.12-.92-.36-1.19-.24-.26-.65-.39-1.22-.39-.47,0-.86.14-1.17.42-.31.28-.49.66-.54,1.13v4.91h-1.27v-4.85c0-1.08-.53-1.61-1.58-1.61-.83,0-1.4.35-1.7,1.06v5.4h-1.26v-7.4h1.2Z"/>
    <path class="cls-15" d="M93.24,25.29c0-.21.06-.38.19-.52.12-.14.31-.21.56-.21s.43.07.56.21c.13.14.19.31.19.52s-.06.38-.19.51c-.13.14-.31.21-.56.21s-.43-.07-.56-.21c-.13-.14-.19-.31-.19-.51ZM94.61,34.65h-1.26v-7.4h1.26v7.4Z"/>
    <path class="cls-15" d="M101.81,25.46v1.79h1.38v.98h-1.38v4.59c0,.3.06.52.18.67s.33.22.63.22c.15,0,.35-.03.6-.08v1.02c-.33.09-.66.14-.97.14-.56,0-.99-.17-1.28-.51s-.43-.83-.43-1.46v-4.59h-1.35v-.98h1.35v-1.79h1.26Z"/>
    <path class="cls-15" d="M106.49,25.31l1.03-1.16h1.09v.07l-1.74,1.87h-.77l-1.72-1.87v-.07h1.07l1.03,1.16ZM108.24,28.39c-.19-.03-.4-.05-.62-.05-.83,0-1.39.35-1.69,1.06v5.25h-1.26v-7.4h1.23l.02.85c.42-.66,1-.99,1.76-.99.25,0,.43.03.56.1v1.18Z"/>
    <path class="cls-15" d="M112.47,34.79c-1,0-1.82-.33-2.45-.99-.63-.66-.94-1.54-.94-2.64v-.23c0-.73.14-1.39.42-1.97.28-.58.67-1.03,1.18-1.35.5-.33,1.05-.49,1.64-.49.96,0,1.71.32,2.24.95s.8,1.54.8,2.72v.53h-5.01c.02.73.23,1.32.64,1.77.41.45.93.67,1.55.67.45,0,.83-.09,1.13-.27.31-.18.58-.42.81-.72l.77.6c-.62.95-1.55,1.43-2.79,1.43ZM112.32,28.15c-.51,0-.94.19-1.29.56-.35.37-.56.89-.64,1.56h3.71v-.1c-.04-.64-.21-1.14-.52-1.49-.31-.35-.73-.53-1.26-.53Z"/>
    <path class="cls-15" d="M123.08,31.03c0,1.13-.26,2.04-.78,2.72-.52.69-1.22,1.03-2.09,1.03-.93,0-1.66-.33-2.17-.99l-.06.85h-1.16v-10.5h1.26v3.92c.51-.63,1.21-.95,2.11-.95s1.6.34,2.12,1.02.77,1.61.77,2.79v.11ZM121.82,30.89c0-.86-.17-1.53-.5-2-.33-.47-.81-.7-1.44-.7-.83,0-1.43.39-1.8,1.16v3.2c.39.77.99,1.16,1.81,1.16.61,0,1.08-.23,1.42-.7.34-.47.51-1.18.51-2.12Z"/>
    <path class="cls-15" d="M129.24,34.65c-.07-.15-.13-.41-.18-.78-.59.61-1.29.92-2.11.92-.73,0-1.33-.21-1.79-.62-.47-.41-.7-.93-.7-1.57,0-.77.29-1.37.88-1.79.58-.43,1.41-.64,2.47-.64h1.23v-.58c0-.44-.13-.79-.4-1.06-.26-.26-.65-.39-1.17-.39-.45,0-.83.11-1.13.34-.3.23-.46.5-.46.83h-1.27c0-.37.13-.73.39-1.07.26-.34.62-.62,1.07-.82.45-.2.94-.3,1.48-.3.85,0,1.52.21,2,.64.48.43.73,1.01.75,1.76v3.4c0,.68.09,1.22.26,1.62v.11h-1.33ZM127.14,33.69c.4,0,.77-.1,1.13-.31s.61-.47.77-.8v-1.52h-.99c-1.55,0-2.32.45-2.32,1.36,0,.4.13.71.4.93.26.22.6.33,1.02.33Z"/>
    <path class="cls-15" d="M142.01,31.03c0,1.13-.26,2.03-.77,2.72-.51.69-1.21,1.03-2.09,1.03s-1.6-.29-2.12-.85v3.56h-1.26v-10.24h1.16l.06.82c.52-.64,1.23-.96,2.15-.96s1.59.33,2.11,1c.52.67.78,1.6.78,2.8v.12ZM140.74,30.89c0-.83-.18-1.49-.53-1.98s-.84-.72-1.46-.72c-.77,0-1.34.34-1.72,1.02v3.53c.38.67.96,1.01,1.74,1.01.61,0,1.09-.24,1.45-.72.36-.48.54-1.19.54-2.14Z"/>
    <path class="cls-15" d="M143.28,30.88c0-.72.14-1.38.43-1.96.28-.58.68-1.03,1.19-1.34.51-.31,1.09-.47,1.74-.47,1.01,0,1.82.35,2.44,1.05s.93,1.62.93,2.78v.09c0,.72-.14,1.37-.41,1.94-.28.57-.67,1.02-1.18,1.34s-1.1.48-1.77.48c-1,0-1.81-.35-2.44-1.05s-.93-1.62-.93-2.77v-.09ZM144.55,31.03c0,.82.19,1.48.57,1.98.38.5.89.75,1.53.75s1.15-.25,1.53-.75c.38-.5.57-1.21.57-2.12,0-.81-.19-1.47-.58-1.97-.39-.5-.9-.76-1.54-.76s-1.13.25-1.51.75-.57,1.21-.57,2.13Z"/>
    <path class="cls-15" d="M152.79,27.25l.03.82c.54-.64,1.27-.96,2.19-.96,1.04,0,1.74.4,2.11,1.19.25-.36.57-.64.96-.86.39-.22.86-.33,1.4-.33,1.62,0,2.45.86,2.47,2.58v4.96h-1.26v-4.88c0-.53-.12-.92-.36-1.19-.24-.26-.65-.39-1.22-.39-.47,0-.86.14-1.17.42-.31.28-.49.66-.54,1.13v4.91h-1.27v-4.85c0-1.08-.53-1.61-1.58-1.61-.83,0-1.4.35-1.7,1.06v5.4h-1.26v-7.4h1.2Z"/>
    <path class="cls-15" d="M168.43,33.92c-.49.58-1.21.87-2.17.87-.79,0-1.39-.23-1.8-.69-.41-.46-.62-1.14-.63-2.03v-4.81h1.26v4.78c0,1.12.46,1.68,1.37,1.68.97,0,1.61-.36,1.93-1.08v-5.38h1.26v7.4h-1.2l-.03-.73ZM168.26,24.95c0,.4-.14.73-.42,1-.28.27-.63.4-1.05.4s-.77-.13-1.05-.4-.42-.6-.42-.99.14-.73.42-1,.63-.42,1.05-.42.77.14,1.05.42.42.61.42,1ZM165.99,24.95c0,.21.08.4.23.55.15.16.34.23.56.23s.41-.08.56-.23c.16-.15.23-.34.23-.56s-.08-.41-.23-.57c-.15-.16-.34-.24-.56-.24s-.42.08-.57.24-.23.35-.23.57Z"/>
    <path class="cls-15" d="M172.77,33.62h4.33v1.03h-5.87v-.93l4.08-5.42h-4.02v-1.05h5.61v.9l-4.12,5.47ZM174.13,25.31l1.03-1.16h1.09v.07l-1.74,1.87h-.77l-1.72-1.87v-.07h1.07l1.03,1.16Z"/>
    <path class="cls-15" d="M181.59,34.79c-1,0-1.82-.33-2.45-.99-.63-.66-.94-1.54-.94-2.64v-.23c0-.73.14-1.39.42-1.97.28-.58.67-1.03,1.18-1.35.5-.33,1.05-.49,1.64-.49.96,0,1.71.32,2.24.95s.8,1.54.8,2.72v.53h-5.01c.02.73.23,1.32.64,1.77.41.45.93.67,1.55.67.45,0,.83-.09,1.13-.27.31-.18.58-.42.81-.72l.77.6c-.62.95-1.55,1.43-2.79,1.43ZM181.44,28.15c-.51,0-.94.19-1.29.56-.35.37-.56.89-.64,1.56h3.71v-.1c-.04-.64-.21-1.14-.52-1.49-.31-.35-.73-.53-1.26-.53Z"/>
    <path class="cls-15" d="M190.6,33.62h4.33v1.03h-5.87v-.93l4.08-5.42h-4.02v-1.05h5.61v.9l-4.12,5.47Z"/>
    <path class="cls-15" d="M197.65,27.25v8.25c0,1.42-.64,2.13-1.93,2.13-.28,0-.54-.04-.77-.12v-1.01c.15.04.34.05.57.05.28,0,.5-.08.65-.23.15-.15.22-.42.22-.8v-8.28h1.26ZM196.26,25.29c0-.2.06-.37.19-.52.12-.14.31-.21.55-.21s.43.07.56.21c.13.14.19.31.19.52s-.06.38-.19.51c-.13.14-.31.21-.56.21s-.43-.07-.55-.21-.18-.31-.18-.51Z"/>
    <path class="cls-15" d="M199.69,25.29c0-.21.06-.38.19-.52.12-.14.31-.21.56-.21s.43.07.56.21c.13.14.19.31.19.52s-.06.38-.19.51c-.13.14-.31.21-.56.21s-.43-.07-.56-.21c-.13-.14-.19-.31-.19-.51ZM201.06,34.65h-1.26v-7.4h1.26v7.4Z"/>
    <path class="cls-15" d="M207.39,32.69c0-.34-.13-.61-.39-.8-.26-.19-.71-.35-1.35-.49-.64-.14-1.15-.3-1.52-.49s-.65-.42-.83-.68c-.18-.26-.27-.58-.27-.94,0-.61.26-1.12.77-1.54s1.17-.63,1.96-.63c.84,0,1.52.22,2.04.65.52.43.78.99.78,1.66h-1.27c0-.35-.15-.64-.44-.9s-.66-.38-1.11-.38-.82.1-1.08.3-.39.46-.39.79c0,.31.12.54.36.69.24.16.68.3,1.31.44.63.14,1.14.31,1.53.51.39.2.68.43.87.71.19.28.28.61.28,1.01,0,.66-.26,1.19-.79,1.59-.53.4-1.21.6-2.06.6-.59,0-1.12-.1-1.57-.31-.46-.21-.81-.5-1.07-.88-.26-.38-.39-.78-.39-1.22h1.26c.02.42.19.76.51,1.01.32.25.73.37,1.25.37.48,0,.86-.1,1.15-.29.29-.19.43-.45.43-.78Z"/>
    <path class="cls-15" d="M212.02,25.46v1.79h1.38v.98h-1.38v4.59c0,.3.06.52.18.67s.33.22.63.22c.15,0,.35-.03.6-.08v1.02c-.33.09-.66.14-.97.14-.56,0-.99-.17-1.28-.51s-.43-.83-.43-1.46v-4.59h-1.35v-.98h1.35v-1.79h1.26Z"/>
    <path class="cls-15" d="M214.88,25.29c0-.21.06-.38.19-.52.12-.14.31-.21.56-.21s.43.07.56.21c.13.14.19.31.19.52s-.06.38-.19.51c-.13.14-.31.21-.56.21s-.43-.07-.56-.21c-.13-.14-.19-.31-.19-.51ZM216.25,34.65h-1.26v-7.4h1.26v7.4Z"/>
    <path class="cls-15" d="M219.99,25.46v1.79h1.38v.98h-1.38v4.59c0,.3.06.52.18.67s.33.22.63.22c.15,0,.35-.03.6-.08v1.02c-.33.09-.66.14-.97.14-.56,0-.99-.17-1.28-.51s-.43-.83-.43-1.46v-4.59h-1.35v-.98h1.35v-1.79h1.26Z"/>
    <path class="cls-15" d="M222.81,36.63l-.72-.49c.43-.6.65-1.21.67-1.85v-1.14h1.24v.99c0,.46-.11.92-.34,1.38s-.51.83-.85,1.11Z"/>
    <path class="cls-15" d="M232.03,33.75c.45,0,.85-.14,1.18-.41.34-.27.52-.62.56-1.03h1.2c-.02.42-.17.83-.44,1.21-.27.38-.63.69-1.08.92-.45.23-.92.34-1.43.34-1.01,0-1.81-.34-2.4-1.01-.59-.67-.89-1.59-.89-2.76v-.21c0-.72.13-1.36.4-1.92.26-.56.64-1,1.14-1.31.49-.31,1.08-.46,1.75-.46.83,0,1.52.25,2.07.75.55.5.84,1.14.88,1.93h-1.2c-.04-.48-.22-.87-.54-1.18-.33-.31-.73-.46-1.21-.46-.64,0-1.14.23-1.49.69-.35.46-.53,1.13-.53,2.01v.24c0,.85.18,1.51.53,1.97.35.46.85.69,1.5.69Z"/>
    <path class="cls-15" d="M236.05,30.88c0-.72.14-1.38.43-1.96.28-.58.68-1.03,1.19-1.34.51-.31,1.09-.47,1.74-.47,1.01,0,1.82.35,2.44,1.05s.93,1.62.93,2.78v.09c0,.72-.14,1.37-.41,1.94-.28.57-.67,1.02-1.18,1.34s-1.1.48-1.77.48c-1,0-1.81-.35-2.44-1.05s-.93-1.62-.93-2.77v-.09ZM237.33,31.03c0,.82.19,1.48.57,1.98.38.5.89.75,1.53.75s1.15-.25,1.53-.75c.38-.5.57-1.21.57-2.12,0-.81-.19-1.47-.58-1.97-.39-.5-.9-.76-1.54-.76s-1.13.25-1.51.75-.57,1.21-.57,2.13Z"/>
    <path class="cls-15" d="M249.15,27.25v8.25c0,1.42-.64,2.13-1.93,2.13-.28,0-.54-.04-.77-.12v-1.01c.15.04.34.05.57.05.28,0,.5-.08.65-.23.15-.15.22-.42.22-.8v-8.28h1.26ZM247.75,25.29c0-.2.06-.37.19-.52.12-.14.31-.21.55-.21s.43.07.56.21c.13.14.19.31.19.52s-.06.38-.19.51c-.13.14-.31.21-.56.21s-.43-.07-.55-.21-.18-.31-.18-.51Z"/>
    <path class="cls-15" d="M254.25,34.79c-1,0-1.82-.33-2.45-.99-.63-.66-.94-1.54-.94-2.64v-.23c0-.73.14-1.39.42-1.97.28-.58.67-1.03,1.18-1.35.5-.33,1.05-.49,1.64-.49.96,0,1.71.32,2.24.95s.8,1.54.8,2.72v.53h-5.01c.02.73.23,1.32.64,1.77.41.45.93.67,1.55.67.45,0,.83-.09,1.13-.27.31-.18.58-.42.81-.72l.77.6c-.62.95-1.55,1.43-2.79,1.43ZM254.09,28.15c-.51,0-.94.19-1.29.56-.35.37-.56.89-.64,1.56h3.71v-.1c-.04-.64-.21-1.14-.52-1.49-.31-.35-.73-.53-1.26-.53Z"/>
    <path class="cls-15" d="M263.78,25.46v1.79h1.38v.98h-1.38v4.59c0,.3.06.52.18.67s.33.22.63.22c.15,0,.35-.03.6-.08v1.02c-.33.09-.66.14-.97.14-.56,0-.99-.17-1.28-.51s-.43-.83-.43-1.46v-4.59h-1.35v-.98h1.35v-1.79h1.26Z"/>
    <path class="cls-15" d="M266.17,30.88c0-.72.14-1.38.43-1.96.28-.58.68-1.03,1.19-1.34.51-.31,1.09-.47,1.74-.47,1.01,0,1.82.35,2.44,1.05s.93,1.62.93,2.78v.09c0,.72-.14,1.37-.41,1.94-.28.57-.67,1.02-1.18,1.34s-1.1.48-1.77.48c-1,0-1.81-.35-2.44-1.05s-.93-1.62-.93-2.77v-.09ZM267.44,31.03c0,.82.19,1.48.57,1.98.38.5.89.75,1.53.75s1.15-.25,1.53-.75c.38-.5.57-1.21.57-2.12,0-.81-.19-1.47-.58-1.97-.39-.5-.9-.76-1.54-.76s-1.13.25-1.51.75-.57,1.21-.57,2.13Z"/>
    <path class="cls-15" d="M274.45,36.63l-.72-.49c.43-.6.65-1.21.67-1.85v-1.14h1.24v.99c0,.46-.11.92-.34,1.38s-.51.83-.85,1.11Z"/>
    <path class="cls-15" d="M283.67,33.75c.45,0,.85-.14,1.18-.41.34-.27.52-.62.56-1.03h1.2c-.02.42-.17.83-.44,1.21-.27.38-.63.69-1.08.92-.45.23-.92.34-1.43.34-1.01,0-1.81-.34-2.4-1.01-.59-.67-.89-1.59-.89-2.76v-.21c0-.72.13-1.36.4-1.92.26-.56.64-1,1.14-1.31.49-.31,1.08-.46,1.75-.46.83,0,1.52.25,2.07.75.55.5.84,1.14.88,1.93h-1.2c-.04-.48-.22-.87-.54-1.18-.33-.31-.73-.46-1.21-.46-.64,0-1.14.23-1.49.69-.35.46-.53,1.13-.53,2.01v.24c0,.85.18,1.51.53,1.97.35.46.85.69,1.5.69Z"/>
    <path class="cls-15" d="M287.69,30.88c0-.72.14-1.38.43-1.96.28-.58.68-1.03,1.19-1.34.51-.31,1.09-.47,1.74-.47,1.01,0,1.82.35,2.44,1.05s.93,1.62.93,2.78v.09c0,.72-.14,1.37-.41,1.94-.28.57-.67,1.02-1.18,1.34s-1.1.48-1.77.48c-1,0-1.81-.35-2.44-1.05s-.93-1.62-.93-2.77v-.09ZM288.97,31.03c0,.82.19,1.48.57,1.98.38.5.89.75,1.53.75s1.15-.25,1.53-.75c.38-.5.57-1.21.57-2.12,0-.81-.19-1.47-.58-1.97-.39-.5-.9-.76-1.54-.76s-1.13.25-1.51.75-.57,1.21-.57,2.13Z"/>
    <path class="cls-15" d="M300.67,27.25l.04.93c.57-.71,1.3-1.07,2.21-1.07,1.56,0,2.35.88,2.37,2.65v4.89h-1.26v-4.89c0-.53-.13-.93-.37-1.18s-.61-.38-1.12-.38c-.41,0-.77.11-1.08.33-.31.22-.55.51-.72.86v5.27h-1.26v-7.4h1.2Z"/>
    <path class="cls-15" d="M311.77,34.65c-.07-.15-.13-.41-.18-.78-.59.61-1.29.92-2.11.92-.73,0-1.33-.21-1.79-.62-.47-.41-.7-.93-.7-1.57,0-.77.29-1.37.88-1.79.58-.43,1.41-.64,2.47-.64h1.23v-.58c0-.44-.13-.79-.4-1.06-.26-.26-.65-.39-1.17-.39-.45,0-.83.11-1.13.34-.3.23-.46.5-.46.83h-1.27c0-.37.13-.73.39-1.07.26-.34.62-.62,1.07-.82.45-.2.94-.3,1.48-.3.85,0,1.52.21,2,.64.48.43.73,1.01.75,1.76v3.4c0,.68.09,1.22.26,1.62v.11h-1.33ZM309.67,33.69c.4,0,.77-.1,1.13-.31s.61-.47.77-.8v-1.52h-.99c-1.55,0-2.32.45-2.32,1.36,0,.4.13.71.4.93.26.22.6.33,1.02.33Z"/>
    <path class="cls-15" d="M320,25.46v1.79h1.38v.98h-1.38v4.59c0,.3.06.52.18.67s.33.22.63.22c.15,0,.35-.03.6-.08v1.02c-.33.09-.66.14-.97.14-.56,0-.99-.17-1.28-.51s-.43-.83-.43-1.46v-4.59h-1.35v-.98h1.35v-1.79h1.26Z"/>
    <path class="cls-15" d="M322.39,30.88c0-.72.14-1.38.43-1.96.28-.58.68-1.03,1.19-1.34.51-.31,1.09-.47,1.74-.47,1.01,0,1.82.35,2.44,1.05s.93,1.62.93,2.78v.09c0,.72-.14,1.37-.41,1.94-.28.57-.67,1.02-1.18,1.34s-1.1.48-1.77.48c-1,0-1.81-.35-2.44-1.05s-.93-1.62-.93-2.77v-.09ZM323.66,31.03c0,.82.19,1.48.57,1.98.38.5.89.75,1.53.75s1.15-.25,1.53-.75c.38-.5.57-1.21.57-2.12,0-.81-.19-1.47-.58-1.97-.39-.5-.9-.76-1.54-.76s-1.13.25-1.51.75-.57,1.21-.57,2.13Z"/>
    <path class="cls-15" d="M331.89,27.25l.03.82c.54-.64,1.27-.96,2.19-.96,1.04,0,1.74.4,2.11,1.19.25-.36.57-.64.96-.86.39-.22.86-.33,1.4-.33,1.62,0,2.45.86,2.47,2.58v4.96h-1.26v-4.88c0-.53-.12-.92-.36-1.19-.24-.26-.65-.39-1.22-.39-.47,0-.86.14-1.17.42-.31.28-.49.66-.54,1.13v4.91h-1.27v-4.85c0-1.08-.53-1.61-1.58-1.61-.83,0-1.4.35-1.7,1.06v5.4h-1.26v-7.4h1.2Z"/>
    <path class="cls-15" d="M344.69,25.46v1.79h1.38v.98h-1.38v4.59c0,.3.06.52.18.67s.33.22.63.22c.15,0,.35-.03.6-.08v1.02c-.33.09-.66.14-.97.14-.56,0-.99-.17-1.28-.51s-.43-.83-.43-1.46v-4.59h-1.35v-.98h1.35v-1.79h1.26Z"/>
    <path class="cls-15" d="M347.08,30.88c0-.72.14-1.38.43-1.96.28-.58.68-1.03,1.19-1.34.51-.31,1.09-.47,1.74-.47,1.01,0,1.82.35,2.44,1.05s.93,1.62.93,2.78v.09c0,.72-.14,1.37-.41,1.94-.28.57-.67,1.02-1.18,1.34s-1.1.48-1.77.48c-1,0-1.81-.35-2.44-1.05s-.93-1.62-.93-2.77v-.09ZM348.35,31.03c0,.82.19,1.48.57,1.98.38.5.89.75,1.53.75s1.15-.25,1.53-.75c.38-.5.57-1.21.57-2.12,0-.81-.19-1.47-.58-1.97-.39-.5-.9-.76-1.54-.76s-1.13.25-1.51.75-.57,1.21-.57,2.13Z"/>
    <path class="cls-15" d="M358.56,30.89c0-1.15.27-2.07.8-2.75.53-.68,1.24-1.02,2.12-1.02s1.61.32,2.11.96l.06-.82h1.16v7.22c0,.96-.28,1.71-.85,2.26-.57.55-1.33.83-2.29.83-.53,0-1.05-.11-1.57-.34s-.9-.54-1.17-.94l.66-.76c.54.67,1.21,1,1.99,1,.62,0,1.09-.17,1.44-.52.34-.35.52-.83.52-1.46v-.64c-.51.58-1.2.88-2.07.88s-1.57-.35-2.1-1.05c-.54-.7-.8-1.65-.8-2.85ZM359.83,31.03c0,.83.17,1.49.51,1.97.34.48.82.71,1.44.71.8,0,1.38-.36,1.76-1.09v-3.38c-.39-.71-.97-1.06-1.74-1.06-.62,0-1.1.24-1.44.72s-.52,1.19-.52,2.13Z"/>
    <path class="cls-15" d="M370.29,28.39c-.19-.03-.4-.05-.62-.05-.83,0-1.39.35-1.69,1.06v5.25h-1.26v-7.4h1.23l.02.85c.42-.66,1-.99,1.76-.99.25,0,.43.03.56.1v1.18Z"/>
    <path class="cls-15" d="M375.75,34.65c-.07-.15-.13-.41-.18-.78-.59.61-1.29.92-2.11.92-.73,0-1.33-.21-1.79-.62-.47-.41-.7-.93-.7-1.57,0-.77.29-1.37.88-1.79.59-.43,1.41-.64,2.47-.64h1.23v-.58c0-.44-.13-.79-.4-1.06-.26-.26-.65-.39-1.17-.39-.45,0-.83.11-1.13.34s-.46.5-.46.83h-1.27c0-.37.13-.73.39-1.07.26-.34.62-.62,1.07-.82.45-.2.94-.3,1.48-.3.85,0,1.52.21,2,.64.48.43.73,1.01.75,1.76v3.4c0,.68.09,1.22.26,1.62v.11h-1.33ZM373.65,33.69c.4,0,.77-.1,1.13-.31s.61-.47.77-.8v-1.52h-.99c-1.55,0-2.32.45-2.32,1.36,0,.4.13.71.4.93s.6.33,1.02.33Z"/>
    <path class="cls-15" d="M379.42,34.65v-6.42h-1.17v-.98h1.17v-.76c0-.79.21-1.41.64-1.84s1.02-.65,1.8-.65c.29,0,.58.04.87.12l-.07,1.02c-.21-.04-.44-.06-.68-.06-.41,0-.73.12-.95.36-.22.24-.33.58-.33,1.03v.78h1.58v.98h-1.58v6.42h-1.26Z"/>
    <path class="cls-15" d="M388.22,33.92c-.49.58-1.21.87-2.17.87-.79,0-1.39-.23-1.8-.69-.41-.46-.62-1.14-.62-2.03v-4.81h1.26v4.78c0,1.12.46,1.68,1.37,1.68.97,0,1.61-.36,1.93-1.08v-5.38h1.26v7.4h-1.2l-.03-.73Z"/>
    <path class="cls-15" d="M396.04,27.25l.04.93c.57-.71,1.3-1.07,2.21-1.07,1.56,0,2.35.88,2.37,2.65v4.89h-1.26v-4.89c0-.53-.13-.93-.37-1.18-.24-.25-.61-.38-1.12-.38-.41,0-.77.11-1.08.33s-.55.51-.72.86v5.27h-1.26v-7.4h1.2Z"/>
    <path class="cls-15" d="M405.63,34.79c-1,0-1.82-.33-2.45-.99-.63-.66-.94-1.54-.94-2.64v-.23c0-.73.14-1.39.42-1.97.28-.58.67-1.03,1.18-1.35.5-.33,1.05-.49,1.64-.49.96,0,1.71.32,2.24.95s.8,1.54.8,2.72v.53h-5.01c.02.73.23,1.32.64,1.77.41.45.93.67,1.56.67.45,0,.83-.09,1.13-.27s.58-.42.81-.72l.77.6c-.62.95-1.55,1.43-2.79,1.43ZM405.48,28.15c-.51,0-.94.19-1.29.56-.35.37-.56.89-.64,1.56h3.71v-.1c-.04-.64-.21-1.14-.52-1.49-.31-.35-.73-.53-1.26-.53Z"/>
    <path class="cls-15" d="M411.17,27.25l.03.82c.54-.64,1.27-.96,2.19-.96,1.03,0,1.74.4,2.11,1.19.25-.36.57-.64.96-.86.39-.22.86-.33,1.4-.33,1.62,0,2.45.86,2.47,2.58v4.96h-1.26v-4.88c0-.53-.12-.92-.36-1.19-.24-.26-.65-.39-1.22-.39-.47,0-.86.14-1.17.42-.31.28-.49.66-.54,1.13v4.91h-1.27v-4.85c0-1.08-.53-1.61-1.58-1.61-.83,0-1.4.35-1.7,1.06v5.4h-1.26v-7.4h1.2Z"/>
    <path class="cls-15" d="M426.82,34.65c-.07-.15-.13-.41-.18-.78-.59.61-1.29.92-2.11.92-.73,0-1.33-.21-1.79-.62-.47-.41-.7-.93-.7-1.57,0-.77.29-1.37.88-1.79.59-.43,1.41-.64,2.47-.64h1.23v-.58c0-.44-.13-.79-.4-1.06-.26-.26-.65-.39-1.17-.39-.45,0-.83.11-1.13.34s-.46.5-.46.83h-1.27c0-.37.13-.73.39-1.07.26-.34.62-.62,1.07-.82.45-.2.94-.3,1.48-.3.85,0,1.52.21,2,.64.48.43.73,1.01.75,1.76v3.4c0,.68.09,1.22.26,1.62v.11h-1.33ZM424.72,33.69c.4,0,.77-.1,1.13-.31s.61-.47.77-.8v-1.52h-.99c-1.55,0-2.32.45-2.32,1.36,0,.4.13.71.4.93s.6.33,1.02.33ZM425.89,24.15h1.53l-1.83,2.01h-1.02s1.32-2.01,1.32-2.01Z"/>
    <path class="cls-15" d="M431.06,27.25l.03.82c.54-.64,1.27-.96,2.19-.96,1.03,0,1.74.4,2.11,1.19.25-.36.57-.64.96-.86.39-.22.86-.33,1.4-.33,1.62,0,2.45.86,2.47,2.58v4.96h-1.26v-4.88c0-.53-.12-.92-.36-1.19-.24-.26-.65-.39-1.22-.39-.47,0-.86.14-1.17.42-.31.28-.49.66-.54,1.13v4.91h-1.27v-4.85c0-1.08-.53-1.61-1.58-1.61-.83,0-1.4.35-1.7,1.06v5.4h-1.26v-7.4h1.2Z"/>
    <path class="cls-15" d="M451.85,31.03c0,1.13-.26,2.03-.77,2.72s-1.21,1.03-2.09,1.03-1.6-.29-2.12-.85v3.56h-1.26v-10.24h1.16l.06.82c.51-.64,1.23-.96,2.15-.96s1.59.33,2.11,1c.52.67.78,1.6.78,2.8v.12ZM450.59,30.89c0-.83-.18-1.49-.53-1.98s-.84-.72-1.46-.72c-.77,0-1.34.34-1.72,1.02v3.53c.38.67.96,1.01,1.74,1.01.61,0,1.09-.24,1.45-.72.36-.48.54-1.19.54-2.14Z"/>
    <path class="cls-15" d="M455.28,25.31l1.03-1.16h1.09v.07l-1.74,1.87h-.77l-1.72-1.87v-.07h1.07l1.03,1.16ZM457.03,28.39c-.19-.03-.4-.05-.62-.05-.83,0-1.39.35-1.69,1.06v5.25h-1.26v-7.4h1.23l.02.85c.42-.66,1-.99,1.76-.99.25,0,.43.03.56.1v1.18Z"/>
    <path class="cls-15" d="M461.26,34.79c-1,0-1.82-.33-2.45-.99-.63-.66-.94-1.54-.94-2.64v-.23c0-.73.14-1.39.42-1.97.28-.58.67-1.03,1.18-1.35.5-.33,1.05-.49,1.64-.49.96,0,1.71.32,2.24.95s.8,1.54.8,2.72v.53h-5.01c.02.73.23,1.32.64,1.77.41.45.93.67,1.56.67.45,0,.83-.09,1.13-.27s.58-.42.81-.72l.77.6c-.62.95-1.55,1.43-2.79,1.43ZM461.11,28.15c-.51,0-.94.19-1.29.56-.35.37-.56.89-.64,1.56h3.71v-.1c-.04-.64-.21-1.14-.52-1.49-.31-.35-.73-.53-1.26-.53Z"/>
    <path class="cls-15" d="M466.88,28.15c.56-.69,1.29-1.03,2.19-1.03,1.56,0,2.35.88,2.37,2.65v4.89h-1.26v-4.89c0-.53-.13-.93-.37-1.18-.24-.25-.61-.38-1.12-.38-.41,0-.77.11-1.08.33s-.55.51-.72.86v5.27h-1.26v-10.5h1.26v4Z"/>
    <path class="cls-15" d="M474.7,34.65h-1.26v-10.5h1.26v10.5Z"/>
    <path class="cls-15" d="M479.79,34.79c-1,0-1.82-.33-2.45-.99-.63-.66-.94-1.54-.94-2.64v-.23c0-.73.14-1.39.42-1.97.28-.58.67-1.03,1.18-1.35.5-.33,1.05-.49,1.64-.49.96,0,1.71.32,2.24.95s.8,1.54.8,2.72v.53h-5.01c.02.73.23,1.32.64,1.77.41.45.93.67,1.56.67.45,0,.83-.09,1.13-.27s.58-.42.81-.72l.77.6c-.62.95-1.55,1.43-2.79,1.43ZM479.63,28.15c-.51,0-.94.19-1.29.56-.35.37-.56.89-.64,1.56h3.71v-.1c-.04-.64-.21-1.14-.52-1.49-.31-.35-.73-.53-1.26-.53ZM480.25,24.15h1.53l-1.83,2.01h-1.02s1.32-2.01,1.32-2.01Z"/>
    <path class="cls-15" d="M483.83,30.89c0-1.13.27-2.05.81-2.74.54-.69,1.24-1.04,2.11-1.04s1.55.3,2.06.89v-3.86h1.26v10.5h-1.16l-.06-.79c-.51.62-1.21.93-2.11.93s-1.55-.35-2.1-1.05c-.54-.7-.81-1.62-.81-2.75v-.1ZM485.09,31.03c0,.84.17,1.5.52,1.97s.83.71,1.44.71c.8,0,1.39-.36,1.76-1.08v-3.4c-.38-.7-.96-1.05-1.74-1.05-.62,0-1.1.24-1.45.72s-.52,1.19-.52,2.13Z"/>
    <path class="cls-15" d="M493.23,27.25l.04.93c.57-.71,1.3-1.07,2.21-1.07,1.56,0,2.35.88,2.37,2.65v4.89h-1.26v-4.89c0-.53-.13-.93-.37-1.18-.24-.25-.61-.38-1.12-.38-.41,0-.77.11-1.08.33s-.55.51-.72.86v5.27h-1.26v-7.4h1.2Z"/>
    <path class="cls-15" d="M499.42,30.88c0-.72.14-1.38.43-1.96.29-.58.68-1.03,1.19-1.34.51-.31,1.09-.47,1.74-.47,1.01,0,1.82.35,2.44,1.05.62.7.93,1.62.93,2.78v.09c0,.72-.14,1.37-.41,1.94-.28.57-.67,1.02-1.18,1.34-.51.32-1.1.48-1.77.48-1,0-1.81-.35-2.44-1.05-.62-.7-.93-1.62-.93-2.77v-.09ZM500.69,31.03c0,.82.19,1.48.57,1.98.38.5.89.75,1.53.75s1.15-.25,1.53-.75c.38-.5.57-1.21.57-2.12,0-.81-.19-1.47-.58-1.97-.39-.5-.9-.76-1.54-.76s-1.13.25-1.51.75-.57,1.21-.57,2.13Z"/>
    <path class="cls-15" d="M512.31,33.92c-.49.58-1.21.87-2.17.87-.79,0-1.39-.23-1.8-.69-.41-.46-.62-1.14-.62-2.03v-4.81h1.26v4.78c0,1.12.46,1.68,1.37,1.68.97,0,1.61-.36,1.93-1.08v-5.38h1.26v7.4h-1.2l-.03-.73Z"/>
    <path class="cls-15" d="M517.18,25.46v1.79h1.38v.98h-1.38v4.59c0,.3.06.52.18.67s.33.22.63.22c.15,0,.35-.03.6-.08v1.02c-.33.09-.66.14-.97.14-.57,0-.99-.17-1.28-.51s-.43-.83-.43-1.46v-4.59h-1.35v-.98h1.35v-1.79h1.26Z"/>
    <path class="cls-15" d="M520.06,33.99c0-.22.06-.4.2-.55.13-.15.32-.22.58-.22s.46.07.59.22c.13.15.2.33.2.55s-.07.38-.2.53c-.13.14-.33.21-.59.21s-.46-.07-.58-.21c-.13-.14-.2-.32-.2-.53Z"/>
  </g>
  <g class="cls-16">
    <path class="cls-14" d="M107.83,32.85c0,1.04-.18,1.96-.54,2.75-.36.79-.88,1.39-1.55,1.82-.67.42-1.44.63-2.32.63s-1.63-.21-2.31-.63c-.68-.42-1.2-1.02-1.57-1.81-.37-.78-.56-1.68-.56-2.7v-.6c0-1.04.18-1.96.55-2.75.37-.8.89-1.4,1.56-1.83.67-.42,1.44-.63,2.31-.63s1.64.21,2.31.63c.67.42,1.19,1.02,1.56,1.8.37.78.55,1.7.56,2.74v.59ZM105.98,32.29c0-1.18-.22-2.09-.67-2.72-.45-.63-1.08-.94-1.9-.94s-1.43.31-1.88.94c-.45.63-.68,1.51-.69,2.66v.62c0,1.17.23,2.08.69,2.72.46.64,1.09.96,1.9.96s1.45-.31,1.89-.94c.44-.62.66-1.54.66-2.74v-.56Z"/>
    <path class="cls-14" d="M113.94,35.75c0-.32-.13-.56-.39-.73-.26-.17-.69-.31-1.3-.44s-1.11-.29-1.52-.48c-.89-.43-1.33-1.05-1.33-1.87,0-.68.29-1.25.86-1.71s1.31-.69,2.2-.69c.95,0,1.71.23,2.3.7.58.47.88,1.08.88,1.82h-1.78c0-.34-.13-.63-.38-.85-.25-.23-.59-.34-1.01-.34-.39,0-.71.09-.96.27-.25.18-.37.42-.37.73,0,.27.11.49.34.64s.69.3,1.39.46c.7.15,1.25.34,1.64.55.4.21.69.47.89.77.19.3.29.66.29,1.08,0,.71-.3,1.29-.89,1.73-.59.44-1.36.66-2.32.66-.65,0-1.23-.12-1.74-.35s-.9-.56-1.19-.97-.42-.85-.42-1.33h1.73c.02.42.18.74.48.97.29.23.68.34,1.16.34s.83-.09,1.07-.27c.24-.18.37-.41.37-.7Z"/>
    <path class="cls-14" d="M116.91,33.86c0-.78.15-1.48.46-2.1.31-.62.74-1.1,1.3-1.44s1.2-.5,1.92-.5c1.07,0,1.94.34,2.6,1.03.67.69,1.03,1.6,1.08,2.74v.42c0,.78-.14,1.48-.44,2.09-.3.62-.73,1.09-1.29,1.43-.56.34-1.2.51-1.94.51-1.12,0-2.01-.37-2.68-1.12-.67-.74-1.01-1.74-1.01-2.98v-.09ZM118.69,34.02c0,.82.17,1.45.51,1.92.34.46.81.69,1.41.69s1.07-.23,1.4-.7c.33-.47.5-1.15.5-2.06,0-.8-.17-1.44-.52-1.9-.34-.47-.81-.7-1.4-.7s-1.04.23-1.38.69c-.34.46-.51,1.15-.51,2.07Z"/>
    <path class="cls-14" d="M132.74,34.02c0,1.23-.27,2.21-.82,2.94-.55.73-1.3,1.09-2.27,1.09s-1.65-.33-2.17-1l-.09.86h-1.61v-11.25h1.78v4.09c.51-.61,1.2-.91,2.07-.91.97,0,1.73.36,2.28,1.08s.83,1.72.83,3.01v.1ZM130.96,33.86c0-.86-.15-1.5-.45-1.93s-.74-.64-1.32-.64c-.77,0-1.31.34-1.63,1.01v3.27c.32.69.86,1.03,1.64,1.03.56,0,.99-.21,1.29-.62s.46-1.04.47-1.88v-.23Z"/>
    <path class="cls-14" d="M135.88,29.97l.05.92c.59-.71,1.36-1.06,2.31-1.06,1.65,0,2.49.94,2.52,2.83v5.24h-1.78v-5.13c0-.5-.11-.88-.33-1.12-.22-.24-.57-.36-1.07-.36-.72,0-1.25.32-1.6.97v5.64h-1.78v-7.92h1.68Z"/>
    <path class="cls-14" d="M144.49,37.9h-1.78v-7.92h1.78v7.92ZM144.15,26.7h2.03l-2.03,2.22h-1.43s1.43-2.22,1.43-2.22Z"/>
    <path class="cls-14" d="M154.98,37.9c-.08-.15-.15-.4-.21-.74-.57.59-1.26.89-2.08.89s-1.45-.23-1.95-.68-.75-1.02-.75-1.68c0-.84.31-1.49.94-1.94.63-.45,1.52-.68,2.69-.68h1.09v-.52c0-.41-.12-.74-.34-.99-.23-.25-.58-.37-1.05-.37-.41,0-.74.1-1,.3s-.39.46-.39.77h-1.78c0-.43.14-.84.43-1.22.29-.38.68-.67,1.18-.89.5-.21,1.05-.32,1.66-.32.93,0,1.67.23,2.22.7.55.47.83,1.12.85,1.97v3.57c0,.71.1,1.28.3,1.71v.12h-1.82ZM153.03,36.62c.35,0,.68-.09.99-.26.31-.17.54-.4.7-.69v-1.49h-.96c-.66,0-1.15.11-1.49.34s-.5.55-.5.97c0,.34.11.61.34.82.23.2.53.3.91.3Z"/>
    <path class="cls-14" d="M163.16,37.12c-.52.62-1.26.92-2.23.92-.86,0-1.51-.25-1.95-.75-.44-.5-.66-1.23-.66-2.18v-5.13h1.78v5.11c0,1.01.42,1.51,1.25,1.51s1.45-.31,1.75-.93v-5.69h1.78v7.92h-1.68l-.04-.78Z"/>
    <path class="cls-14" d="M168.93,28.05v1.93h1.4v1.32h-1.4v4.42c0,.3.06.52.18.66.12.13.33.2.64.2.21,0,.41-.02.62-.07v1.38c-.41.11-.8.17-1.17.17-1.37,0-2.05-.75-2.05-2.26v-4.49h-1.3v-1.32h1.3v-1.93h1.78Z"/>
    <path class="cls-14" d="M171.13,33.86c0-.78.15-1.48.46-2.1.31-.62.74-1.1,1.3-1.44s1.2-.5,1.92-.5c1.07,0,1.94.34,2.6,1.03.67.69,1.03,1.6,1.08,2.74v.42c0,.78-.14,1.48-.44,2.09-.3.62-.73,1.09-1.29,1.43-.56.34-1.21.51-1.94.51-1.12,0-2.01-.37-2.68-1.12-.67-.74-1.01-1.74-1.01-2.98v-.09ZM172.91,34.02c0,.82.17,1.45.5,1.92.34.46.81.69,1.41.69s1.07-.23,1.4-.7c.33-.47.5-1.15.5-2.06,0-.8-.17-1.44-.52-1.9-.34-.47-.81-.7-1.4-.7s-1.04.23-1.38.69c-.34.46-.51,1.15-.51,2.07Z"/>
    <path class="cls-14" d="M181.68,29.97l.05.83c.56-.65,1.32-.97,2.29-.97,1.06,0,1.78.41,2.17,1.22.58-.81,1.39-1.22,2.43-1.22.87,0,1.52.24,1.95.73.43.48.65,1.2.66,2.14v5.21h-1.78v-5.16c0-.5-.11-.87-.33-1.11s-.58-.35-1.09-.35c-.41,0-.74.11-.99.33-.26.22-.44.5-.54.85v5.43s-1.77,0-1.77,0v-5.21c-.02-.93-.5-1.4-1.43-1.4-.71,0-1.22.29-1.52.87v5.74h-1.78v-7.92h1.68Z"/>
    <path class="cls-14" d="M192.72,33.86c0-.78.15-1.48.46-2.1.31-.62.74-1.1,1.3-1.44s1.2-.5,1.92-.5c1.07,0,1.94.34,2.6,1.03.67.69,1.03,1.6,1.08,2.74v.42c0,.78-.14,1.48-.44,2.09-.3.62-.73,1.09-1.29,1.43-.56.34-1.21.51-1.94.51-1.12,0-2.01-.37-2.68-1.12-.67-.74-1.01-1.74-1.01-2.98v-.09ZM194.5,34.02c0,.82.17,1.45.5,1.92.34.46.81.69,1.41.69s1.07-.23,1.4-.7c.33-.47.5-1.15.5-2.06,0-.8-.17-1.44-.52-1.9-.34-.47-.81-.7-1.4-.7s-1.04.23-1.38.69c-.34.46-.51,1.15-.51,2.07Z"/>
    <path class="cls-14" d="M208.55,34.02c0,1.23-.27,2.21-.82,2.94-.55.73-1.3,1.09-2.27,1.09s-1.65-.33-2.17-1l-.09.86h-1.61v-11.25h1.78v4.09c.51-.61,1.2-.91,2.07-.91.97,0,1.73.36,2.28,1.08s.83,1.72.83,3.01v.1ZM206.77,33.86c0-.86-.15-1.5-.45-1.93s-.74-.64-1.32-.64c-.77,0-1.31.34-1.63,1.01v3.27c.32.69.86,1.03,1.64,1.03.56,0,.99-.21,1.29-.62s.46-1.04.47-1.88v-.23Z"/>
    <path class="cls-14" d="M210.05,27.92c0-.27.09-.5.26-.68.17-.18.42-.27.74-.27s.57.09.75.27.26.41.26.68-.09.49-.26.67-.42.27-.75.27-.57-.09-.74-.27c-.17-.18-.26-.4-.26-.67ZM211.94,37.9h-1.78v-7.92h1.78v7.92Z"/>
    <path class="cls-14" d="M215.77,37.9h-1.78v-11.25h1.78v11.25Z"/>
    <path class="cls-14" d="M220.48,35.35l1.61-5.38h1.9l-3.15,9.13c-.48,1.33-1.3,2-2.46,2-.26,0-.54-.04-.86-.13v-1.38l.34.02c.45,0,.79-.08,1.01-.25.23-.16.41-.44.54-.82l.26-.68-2.78-7.88h1.92l1.68,5.38Z"/>
  </g>
  <g>
    <path class="cls-9" d="M507.8,35.42h-4.13l-.86,2.48h-1.93l4.03-10.66h1.66l4.04,10.66h-1.93l-.87-2.48ZM504.19,33.92h3.09l-1.55-4.42-1.54,4.42Z"/>
    <path class="cls-9" d="M516.36,37.12c-.52.62-1.26.92-2.23.92-.86,0-1.51-.25-1.95-.75-.44-.5-.66-1.23-.66-2.18v-5.13h1.78v5.11c0,1.01.42,1.51,1.25,1.51s1.45-.31,1.75-.93v-5.69h1.78v7.92h-1.68l-.04-.78Z"/>
    <path class="cls-9" d="M522.12,28.05v1.93h1.4v1.32h-1.4v4.42c0,.3.06.52.18.66.12.13.33.2.64.2.21,0,.41-.02.62-.07v1.38c-.41.11-.8.17-1.17.17-1.37,0-2.05-.75-2.05-2.26v-4.49h-1.3v-1.32h1.3v-1.93h1.78Z"/>
    <path class="cls-9" d="M524.33,33.86c0-.78.15-1.48.46-2.1.31-.62.74-1.1,1.3-1.44.56-.33,1.2-.5,1.92-.5,1.07,0,1.94.34,2.6,1.03.67.69,1.03,1.6,1.08,2.74v.42c0,.78-.14,1.48-.44,2.09-.3.62-.73,1.09-1.29,1.43-.56.34-1.2.5-1.94.5-1.12,0-2.01-.37-2.68-1.12-.67-.74-1.01-1.74-1.01-2.98v-.09ZM526.11,34.02c0,.82.17,1.45.51,1.92.34.46.81.69,1.41.69s1.07-.23,1.4-.7c.33-.47.5-1.15.5-2.06,0-.8-.17-1.44-.52-1.9-.34-.47-.81-.7-1.4-.7s-1.04.23-1.38.69c-.34.46-.51,1.15-.51,2.07Z"/>
    <path class="cls-9" d="M540.16,34.02c0,1.23-.27,2.21-.82,2.94-.55.73-1.3,1.09-2.27,1.09s-1.65-.33-2.17-1l-.09.86h-1.61v-11.25h1.78v4.09c.51-.61,1.2-.91,2.07-.91.97,0,1.73.36,2.28,1.08s.83,1.72.83,3.01v.1ZM538.38,33.86c0-.86-.15-1.5-.45-1.93s-.74-.64-1.32-.64c-.77,0-1.31.34-1.63,1.01v3.27c.32.69.86,1.03,1.64,1.03.56,0,.99-.21,1.29-.62s.46-1.04.47-1.88v-.23Z"/>
    <path class="cls-9" d="M546.45,37.12c-.52.62-1.26.92-2.23.92-.86,0-1.51-.25-1.95-.75-.44-.5-.66-1.23-.66-2.18v-5.13h1.78v5.11c0,1.01.42,1.51,1.25,1.51s1.45-.31,1.75-.93v-5.69h1.78v7.92h-1.68l-.04-.78Z"/>
    <path class="cls-9" d="M554.42,35.75c0-.32-.13-.56-.39-.72-.26-.17-.69-.31-1.3-.44s-1.11-.29-1.52-.48c-.89-.43-1.33-1.05-1.33-1.87,0-.68.29-1.25.86-1.71s1.31-.69,2.2-.69c.95,0,1.71.23,2.3.7.58.47.88,1.08.88,1.82h-1.78c0-.34-.13-.63-.38-.85-.25-.23-.59-.34-1.01-.34-.39,0-.71.09-.96.27-.25.18-.37.42-.37.72,0,.27.11.49.34.64s.69.3,1.39.46c.7.15,1.25.34,1.64.55.4.21.69.47.89.77.19.3.29.66.29,1.08,0,.71-.3,1.29-.89,1.73-.59.44-1.36.66-2.32.66-.65,0-1.23-.12-1.74-.35s-.9-.56-1.19-.97-.42-.85-.42-1.33h1.73c.02.42.18.74.48.97.29.23.68.34,1.16.34s.83-.09,1.07-.27c.24-.18.37-.41.37-.7Z"/>
    <path class="cls-9" d="M560.5,35.35l1.61-5.38h1.9l-3.15,9.13c-.48,1.33-1.3,2-2.46,2-.26,0-.54-.04-.86-.13v-1.38l.34.02c.45,0,.79-.08,1.01-.25.23-.16.41-.44.54-.82l.26-.68-2.78-7.88h1.92l1.68,5.38Z"/>
  </g>
  <g>
    <path class="cls-11" d="M582.15,35.58l2.71-8.34h2.04l-3.84,10.66h-1.79l-3.82-10.66h2.03l2.68,8.34Z"/>
    <path class="cls-11" d="M589.82,37.9h-1.78v-11.25h1.78v11.25Z"/>
    <path class="cls-11" d="M596.49,37.9c-.08-.15-.15-.4-.21-.74-.57.59-1.26.89-2.08.89s-1.45-.23-1.95-.68-.75-1.02-.75-1.68c0-.84.31-1.49.94-1.94.63-.45,1.52-.68,2.69-.68h1.09v-.52c0-.41-.12-.74-.34-.99-.23-.25-.58-.37-1.05-.37-.41,0-.74.1-1,.3-.26.2-.39.46-.39.77h-1.78c0-.43.14-.84.43-1.22.29-.38.68-.67,1.18-.89.5-.21,1.05-.32,1.66-.32.93,0,1.67.23,2.22.7.55.47.83,1.12.85,1.97v3.57c0,.71.1,1.28.3,1.71v.12h-1.82ZM594.54,36.62c.35,0,.68-.08.99-.26.31-.17.54-.4.7-.69v-1.49h-.96c-.66,0-1.15.11-1.49.34s-.5.55-.5.97c0,.34.11.61.34.82.23.2.53.3.91.3Z"/>
    <path class="cls-11" d="M602.45,34.5l-.79.81v2.59h-1.78v-11.25h1.78v6.49l.56-.7,2.19-2.47h2.14l-2.94,3.3,3.26,4.62h-2.06l-2.35-3.4Z"/>
    <path class="cls-11" d="M610.48,35.35l1.61-5.38h1.9l-3.15,9.13c-.48,1.33-1.3,2-2.46,2-.26,0-.54-.04-.86-.13v-1.38l.34.02c.45,0,.79-.08,1.01-.25.23-.16.41-.44.54-.82l.26-.68-2.78-7.88h1.92l1.68,5.38Z"/>
  </g>
  <g>
    <path class="cls-15" d="M105.09,68.26l.5-4.66h4.97v1.33h-3.69l-.25,2.21c.43-.25.91-.37,1.45-.37.88,0,1.57.28,2.06.84s.73,1.32.73,2.27-.27,1.69-.81,2.24c-.54.56-1.29.83-2.23.83-.85,0-1.55-.24-2.11-.72-.56-.48-.86-1.11-.91-1.9h1.49c.06.45.22.79.48,1.03.26.24.61.36,1.03.36.47,0,.84-.17,1.11-.51s.4-.8.4-1.38-.15-1.01-.44-1.34c-.29-.33-.7-.49-1.21-.49-.28,0-.52.04-.71.11-.19.07-.41.22-.64.43l-1.23-.3Z"/>
    <path class="cls-15" d="M116.88,63.56v1.28h-.19c-.86.01-1.56.25-2.07.71s-.82,1.12-.92,1.96c.5-.52,1.13-.78,1.9-.78.82,0,1.46.29,1.94.86.47.58.71,1.32.71,2.23s-.28,1.7-.83,2.28c-.55.58-1.28.87-2.18.87s-1.67-.34-2.25-1.02c-.58-.68-.86-1.57-.86-2.68v-.53c0-1.62.39-2.89,1.18-3.81.79-.92,1.93-1.38,3.41-1.38h.16ZM115.22,67.97c-.34,0-.65.1-.93.29-.28.19-.49.44-.62.76v.47c0,.69.14,1.23.43,1.63.29.4.66.61,1.12.61s.82-.17,1.09-.51c.27-.34.4-.79.4-1.35s-.14-1.01-.41-1.36-.63-.53-1.08-.53Z"/>
    <path class="cls-15" d="M121.35,65.38c0-.56.18-1.02.54-1.37.36-.36.83-.54,1.42-.54s1.07.18,1.43.54c.36.36.54.83.54,1.41v.46c0,.55-.18,1.01-.54,1.36-.36.36-.83.53-1.41.53s-1.04-.17-1.41-.52c-.37-.35-.56-.82-.56-1.41v-.45ZM122.43,65.87c0,.29.08.53.25.71.16.18.38.27.64.27s.47-.09.64-.27.24-.43.24-.73v-.46c0-.29-.08-.53-.24-.71-.16-.18-.38-.27-.65-.27s-.48.09-.64.28-.24.43-.24.73v.47ZM123.64,72.15l-.79-.46,4.52-7.22.79.46-4.52,7.22ZM125.8,70.58c0-.57.18-1.03.55-1.38.37-.35.84-.53,1.41-.53s1.05.18,1.41.53.55.83.55,1.42v.45c0,.55-.18,1-.53,1.36-.35.36-.83.54-1.42.54s-1.07-.18-1.43-.53c-.36-.35-.54-.82-.54-1.4v-.46ZM126.88,71.07c0,.29.08.52.25.71.17.18.38.28.65.28s.48-.09.64-.26c.15-.18.23-.42.23-.74v-.48c0-.3-.08-.53-.25-.71s-.38-.27-.64-.27-.48.09-.64.27-.25.42-.25.74v.47Z"/>
  </g>
  <g>
    <path class="cls-15" d="M110.5,134.04c0,.45-.12.86-.35,1.21-.23.35-.55.63-.95.83.48.22.85.53,1.12.92s.39.83.39,1.32c0,.81-.28,1.46-.83,1.93-.55.48-1.28.71-2.2.71s-1.66-.24-2.21-.72c-.55-.48-.83-1.12-.83-1.93,0-.5.13-.94.39-1.33s.63-.7,1.11-.91c-.4-.2-.71-.48-.94-.83-.23-.35-.35-.76-.35-1.21,0-.79.25-1.41.76-1.87s1.19-.69,2.06-.69,1.56.23,2.07.69.76,1.09.76,1.87ZM109.16,138.25c0-.46-.14-.83-.41-1.11-.27-.28-.63-.42-1.08-.42s-.81.14-1.08.42c-.27.28-.4.65-.4,1.11s.13.81.4,1.09c.27.27.63.41,1.1.41s.83-.13,1.09-.39c.26-.26.39-.63.39-1.1ZM108.97,134.1c0-.4-.12-.73-.35-.99-.23-.26-.55-.39-.94-.39s-.71.12-.93.37c-.23.25-.34.58-.34,1.01s.12.76.35,1.01c.23.25.54.37.94.37s.71-.12.94-.37c.23-.25.35-.59.35-1.01Z"/>
    <path class="cls-15" d="M113.86,135.52h.94c.47,0,.85-.13,1.13-.37s.42-.59.42-1.05-.12-.78-.35-1.03c-.23-.24-.58-.36-1.06-.36-.42,0-.76.12-1.02.36-.27.24-.4.55-.4.94h-1.54c0-.47.13-.91.38-1.29.25-.39.6-.69,1.05-.91.45-.22.96-.33,1.52-.33.92,0,1.65.23,2.18.7.53.46.79,1.11.79,1.93,0,.41-.13.81-.4,1.17-.26.37-.61.64-1.03.83.51.17.9.45,1.16.82s.4.82.4,1.33c0,.83-.29,1.49-.86,1.98-.57.49-1.32.74-2.25.74s-1.62-.24-2.19-.71c-.57-.47-.85-1.1-.85-1.89h1.54c0,.41.14.74.41.99s.64.38,1.1.38.86-.13,1.13-.38c.28-.25.41-.62.41-1.1s-.14-.86-.43-1.12-.72-.39-1.28-.39h-.91v-1.22Z"/>
    <path class="cls-15" d="M121.35,133.38c0-.56.18-1.02.54-1.37.36-.36.83-.54,1.42-.54s1.07.18,1.43.54c.36.36.54.83.54,1.41v.46c0,.55-.18,1.01-.54,1.36-.36.36-.83.53-1.41.53s-1.04-.17-1.41-.52c-.37-.35-.56-.82-.56-1.41v-.45ZM122.43,133.87c0,.29.08.53.25.71.16.18.38.27.64.27s.47-.09.64-.27.24-.43.24-.73v-.46c0-.29-.08-.53-.24-.71-.16-.18-.38-.27-.65-.27s-.48.09-.64.28-.24.43-.24.73v.47ZM123.64,140.15l-.79-.46,4.52-7.22.79.46-4.52,7.22ZM125.8,138.58c0-.57.18-1.03.55-1.38.37-.35.84-.53,1.41-.53s1.05.18,1.41.53.55.83.55,1.42v.45c0,.55-.18,1-.53,1.36-.35.36-.83.54-1.42.54s-1.07-.18-1.43-.53c-.36-.35-.54-.82-.54-1.4v-.46ZM126.88,139.07c0,.29.08.52.25.71.17.18.38.28.65.28s.48-.09.64-.26c.15-.18.23-.42.23-.74v-.48c0-.3-.08-.53-.25-.71s-.38-.27-.64-.27-.48.09-.64.27-.25.42-.25.74v.47Z"/>
  </g>
  <g>
    <path class="cls-8" d="M415.36,37.9h-1.85l-4.75-7.57v7.57h-1.85v-10.66h1.85l4.77,7.6v-7.6h1.84v10.66Z"/>
    <path class="cls-8" d="M420.87,38.05c-1.13,0-2.04-.36-2.74-1.07-.7-.71-1.05-1.66-1.05-2.84v-.22c0-.79.15-1.5.46-2.12.3-.62.73-1.11,1.29-1.45s1.17-.52,1.85-.52c1.08,0,1.91.34,2.5,1.03.59.69.88,1.66.88,2.92v.72h-5.18c.05.65.27,1.17.66,1.55.38.38.87.57,1.45.57.82,0,1.48-.33,1.99-.99l.96.92c-.32.47-.74.84-1.27,1.1-.53.26-1.12.39-1.78.39ZM420.66,31.26c-.49,0-.88.17-1.18.51-.3.34-.49.82-.58,1.43h3.39v-.13c-.04-.6-.2-1.05-.48-1.35-.28-.3-.66-.46-1.16-.46Z"/>
    <path class="cls-8" d="M427.1,29.97l.05.83c.56-.65,1.32-.97,2.29-.97,1.06,0,1.79.41,2.18,1.22.58-.81,1.39-1.22,2.43-1.22.87,0,1.52.24,1.95.73.43.48.65,1.2.66,2.14v5.21h-1.78v-5.16c0-.5-.11-.87-.33-1.11s-.58-.35-1.09-.35c-.41,0-.74.11-.99.33-.26.22-.44.5-.54.85v5.43s-1.77,0-1.77,0v-5.21c-.02-.93-.5-1.4-1.43-1.4-.71,0-1.22.29-1.52.87v5.74h-1.78v-7.92h1.68Z"/>
    <path class="cls-8" d="M438.15,33.86c0-.78.15-1.48.46-2.1.31-.62.74-1.1,1.3-1.44.56-.33,1.2-.5,1.92-.5,1.07,0,1.94.34,2.6,1.03.67.69,1.03,1.6,1.08,2.74v.42c0,.78-.14,1.48-.44,2.09-.3.62-.73,1.09-1.29,1.43-.56.34-1.2.5-1.94.5-1.12,0-2.01-.37-2.68-1.12-.67-.74-1.01-1.74-1.01-2.98v-.09ZM439.93,34.02c0,.82.17,1.45.51,1.92.34.46.81.69,1.41.69s1.07-.23,1.4-.7c.33-.47.5-1.15.5-2.06,0-.8-.17-1.44-.52-1.9-.34-.47-.81-.7-1.4-.7s-1.04.23-1.38.69c-.34.46-.51,1.15-.51,2.07Z"/>
    <path class="cls-8" d="M449.25,28.05v1.93h1.4v1.32h-1.4v4.42c0,.3.06.52.18.66.12.13.33.2.64.2.21,0,.41-.02.62-.07v1.38c-.41.11-.8.17-1.17.17-1.37,0-2.05-.75-2.05-2.26v-4.49h-1.3v-1.32h1.3v-1.93h1.78Z"/>
    <path class="cls-8" d="M451.46,33.86c0-.78.15-1.48.46-2.1.31-.62.74-1.1,1.3-1.44.56-.33,1.2-.5,1.92-.5,1.07,0,1.94.34,2.6,1.03.67.69,1.03,1.6,1.08,2.74v.42c0,.78-.14,1.48-.44,2.09-.3.62-.73,1.09-1.29,1.43-.56.34-1.21.5-1.94.5-1.12,0-2.01-.37-2.68-1.12-.67-.74-1.01-1.74-1.01-2.98v-.09ZM453.24,34.02c0,.82.17,1.45.5,1.92.34.46.81.69,1.41.69s1.07-.23,1.4-.7c.33-.47.5-1.15.5-2.06,0-.8-.17-1.44-.52-1.9-.34-.47-.81-.7-1.4-.7s-1.04.23-1.38.69c-.34.46-.51,1.15-.51,2.07Z"/>
    <path class="cls-8" d="M464.48,31.6c-.23-.04-.48-.06-.72-.06-.82,0-1.37.31-1.65.94v5.42h-1.78v-7.92h1.7l.04.89c.43-.69,1.03-1.03,1.79-1.03.25,0,.46.03.63.1v1.67Z"/>
    <path class="cls-8" d="M465.61,27.92c0-.27.09-.5.26-.68.17-.18.42-.27.74-.27s.57.09.75.27.26.41.26.68-.09.49-.26.67c-.18.18-.42.27-.75.27s-.57-.09-.74-.27c-.17-.18-.26-.4-.26-.67ZM467.5,37.9h-1.78v-7.92h1.78v7.92Z"/>
    <path class="cls-8" d="M471.33,36.48h4.22v1.42h-6.43v-1.16l4.02-5.33h-3.95v-1.44h6.2v1.13l-4.07,5.38Z"/>
    <path class="cls-8" d="M478.09,36.02c.33,0,.59.09.77.28.18.19.27.42.27.71s-.09.51-.27.69c-.18.18-.44.28-.77.28s-.57-.09-.75-.27-.28-.41-.28-.7.09-.52.27-.71c.18-.19.43-.28.76-.28Z"/>
    <path class="cls-8" d="M487.7,35.64l1.68-5.67h1.84l-2.75,7.92h-1.55l-2.77-7.92h1.85l1.7,5.67Z"/>
    <path class="cls-8" d="M492.21,36.02c.33,0,.59.09.77.28.18.19.27.42.27.71s-.09.51-.27.69c-.18.18-.44.28-.77.28s-.57-.09-.75-.27-.28-.41-.28-.7.09-.52.27-.71c.18-.19.43-.28.76-.28Z"/>
  </g>
  <path class="cls-4" d="M405.82,91.05v-44h94.46v44h-94.46Z"/>
  <path class="cls-5" d="M500.28,91.05v-44h64.51v44h-64.51Z"/>
  <path class="cls-5" d="M552.11,159.05v-44h66.81v44h-66.81Z"/>
  <path class="cls-6" d="M564.79,91.05v-44h54.14v44h-54.14Z"/>
  <path class="cls-6" d="M618.93,159.05v-44h10.37v44h-10.37Z"/>
  <path class="cls-2" d="M629.29,159.05v-44h18.43v44h-18.43Z"/>
  <path class="cls-2" d="M618.93,91.05v-44h28.8v44h-28.8Z"/>
  <g>
    <path class="cls-15" d="M415.92,72.84h-1.54v-7.42l-2.27.77v-1.29l3.62-1.33h.2v9.27Z"/>
    <path class="cls-15" d="M425.31,64.46l-3.7,8.39h-1.62l3.7-8h-4.79v-1.24h6.42v.86Z"/>
    <path class="cls-15" d="M428.43,65.38c0-.56.18-1.02.54-1.37.36-.36.83-.54,1.42-.54s1.07.18,1.43.54c.36.36.54.83.54,1.41v.46c0,.55-.18,1.01-.54,1.36s-.83.53-1.42.53-1.04-.17-1.42-.52c-.37-.35-.56-.82-.56-1.41v-.45ZM429.51,65.87c0,.29.08.53.25.71s.38.27.65.27.47-.09.64-.27c.16-.18.24-.43.24-.73v-.46c0-.29-.08-.53-.25-.71-.16-.18-.38-.27-.65-.27s-.48.09-.64.28-.24.43-.24.73v.47ZM430.72,72.15l-.8-.46,4.53-7.22.8.46-4.53,7.22ZM432.89,70.58c0-.57.18-1.03.55-1.38s.84-.53,1.41-.53,1.05.18,1.42.53.55.83.55,1.42v.45c0,.55-.18,1-.53,1.36-.35.36-.83.54-1.42.54s-1.07-.18-1.44-.53c-.36-.35-.54-.82-.54-1.4v-.46ZM433.97,71.07c0,.29.08.52.25.71.17.18.38.28.65.28s.48-.09.64-.26c.16-.18.23-.42.23-.74v-.48c0-.3-.08-.53-.25-.71-.17-.18-.38-.27-.64-.27s-.48.09-.64.27c-.16.18-.25.42-.25.74v.47Z"/>
  </g>
  <g>
    <path class="cls-15" d="M510.39,72.84h-1.54v-7.42l-2.27.77v-1.29l3.62-1.33h.2v9.27Z"/>
    <path class="cls-15" d="M519.85,72.84h-6.23v-1.06l3.09-3.36c.45-.5.76-.91.95-1.24.19-.33.28-.67.28-1,0-.44-.12-.8-.37-1.07s-.58-.41-1-.41c-.5,0-.89.15-1.17.46-.28.3-.41.72-.41,1.25h-1.55c0-.56.13-1.07.38-1.52.26-.45.62-.8,1.1-1.05s1.03-.37,1.65-.37c.9,0,1.61.23,2.13.68.52.45.78,1.07.78,1.87,0,.46-.13.94-.39,1.45-.26.51-.69,1.08-1.28,1.72l-2.27,2.42h4.3v1.23Z"/>
    <path class="cls-15" d="M522.9,65.38c0-.56.18-1.02.54-1.37.36-.36.83-.54,1.42-.54s1.07.18,1.43.54c.36.36.54.83.54,1.41v.46c0,.55-.18,1.01-.54,1.36s-.83.53-1.42.53-1.04-.17-1.42-.52c-.37-.35-.56-.82-.56-1.41v-.45ZM523.98,65.87c0,.29.08.53.25.71s.38.27.65.27.47-.09.64-.27c.16-.18.24-.43.24-.73v-.46c0-.29-.08-.53-.25-.71-.16-.18-.38-.27-.65-.27s-.48.09-.64.28-.24.43-.24.73v.47ZM525.19,72.15l-.8-.46,4.53-7.22.8.46-4.53,7.22ZM527.36,70.58c0-.57.18-1.03.55-1.38s.84-.53,1.41-.53,1.05.18,1.42.53.55.83.55,1.42v.45c0,.55-.18,1-.53,1.36-.35.36-.83.54-1.42.54s-1.07-.18-1.44-.53c-.36-.35-.54-.82-.54-1.4v-.46ZM528.44,71.07c0,.29.08.52.25.71.17.18.38.28.65.28s.48-.09.64-.26c.16-.18.23-.42.23-.74v-.48c0-.3-.08-.53-.25-.71-.17-.18-.38-.27-.64-.27s-.48.09-.64.27c-.16.18-.25.42-.25.74v.47Z"/>
  </g>
  <g>
    <path class="cls-15" d="M575.23,72.84h-1.54v-7.42l-2.27.77v-1.29l3.62-1.33h.2v9.27Z"/>
    <path class="cls-15" d="M584.5,68.95c0,1.33-.25,2.33-.75,3.01-.5.68-1.26,1.01-2.28,1.01s-1.76-.33-2.26-.99c-.51-.66-.77-1.63-.78-2.92v-1.6c0-1.33.25-2.33.75-2.99.5-.66,1.26-1,2.28-1s1.77.32,2.27.97c.5.65.75,1.62.77,2.91v1.6ZM582.95,67.23c0-.87-.12-1.5-.36-1.91-.24-.4-.62-.61-1.13-.61s-.88.19-1.11.57c-.24.38-.36.98-.38,1.79v2.09c0,.86.12,1.51.36,1.93.24.42.62.63,1.14.63s.86-.2,1.1-.59c.24-.39.36-1,.38-1.84v-2.09Z"/>
    <path class="cls-15" d="M587.74,65.38c0-.56.18-1.02.54-1.37.36-.36.83-.54,1.42-.54s1.07.18,1.43.54c.36.36.54.83.54,1.41v.46c0,.55-.18,1.01-.54,1.36s-.83.53-1.42.53-1.04-.17-1.42-.52c-.37-.35-.56-.82-.56-1.41v-.45ZM588.83,65.87c0,.29.08.53.25.71s.38.27.65.27.47-.09.64-.27c.16-.18.24-.43.24-.73v-.46c0-.29-.08-.53-.25-.71-.16-.18-.38-.27-.65-.27s-.48.09-.64.28-.24.43-.24.73v.47ZM590.04,72.15l-.8-.46,4.53-7.22.8.46-4.53,7.22ZM592.2,70.58c0-.57.18-1.03.55-1.38s.84-.53,1.41-.53,1.05.18,1.42.53.55.83.55,1.42v.45c0,.55-.18,1-.53,1.36-.35.36-.83.54-1.42.54s-1.07-.18-1.44-.53c-.36-.35-.54-.82-.54-1.4v-.46ZM593.28,71.07c0,.29.08.52.25.71.17.18.38.28.65.28s.48-.09.64-.26c.16-.18.23-.42.23-.74v-.48c0-.3-.08-.53-.25-.71-.17-.18-.38-.27-.64-.27s-.48.09-.64.27c-.16.18-.25.42-.25.74v.47Z"/>
  </g>
  <g>
    <path class="cls-15" d="M562.59,140.84h-1.54v-7.42l-2.27.77v-1.29l3.62-1.33h.2v9.27Z"/>
    <path class="cls-15" d="M572.05,140.84h-6.23v-1.06l3.09-3.36c.45-.5.76-.91.95-1.24.19-.33.28-.67.28-1,0-.44-.12-.8-.37-1.07s-.58-.41-1-.41c-.5,0-.89.15-1.17.46-.28.3-.41.72-.41,1.25h-1.55c0-.56.13-1.07.38-1.52.26-.45.62-.8,1.1-1.05s1.03-.37,1.65-.37c.9,0,1.61.23,2.13.68.52.45.78,1.07.78,1.87,0,.46-.13.94-.39,1.45-.26.51-.69,1.08-1.28,1.72l-2.27,2.42h4.3v1.23Z"/>
    <path class="cls-15" d="M575.1,133.38c0-.56.18-1.02.54-1.37.36-.36.83-.54,1.42-.54s1.07.18,1.43.54c.36.36.54.83.54,1.41v.46c0,.55-.18,1.01-.54,1.36s-.83.53-1.42.53-1.04-.17-1.42-.52c-.37-.35-.56-.82-.56-1.41v-.45ZM576.19,133.87c0,.29.08.53.25.71s.38.27.65.27.47-.09.64-.27c.16-.18.24-.43.24-.73v-.46c0-.29-.08-.53-.25-.71-.16-.18-.38-.27-.65-.27s-.48.09-.64.28-.24.43-.24.73v.47ZM577.4,140.15l-.8-.46,4.53-7.22.8.46-4.53,7.22ZM579.56,138.58c0-.57.18-1.03.55-1.38s.84-.53,1.41-.53,1.05.18,1.42.53.55.83.55,1.42v.45c0,.55-.18,1-.53,1.36-.35.36-.83.54-1.42.54s-1.07-.18-1.44-.53c-.36-.35-.54-.82-.54-1.4v-.46ZM580.64,139.07c0,.29.08.52.25.71.17.18.38.28.65.28s.48-.09.64-.26c.16-.18.23-.42.23-.74v-.48c0-.3-.08-.53-.25-.71-.17-.18-.38-.27-.64-.27s-.48.09-.64.27c-.16.18-.25.42-.25.74v.47Z"/>
  </g>
  <path class="cls-15" d="M637.07,135.52h.94c.47,0,.85-.13,1.13-.37.28-.24.42-.59.42-1.05s-.12-.78-.35-1.03c-.23-.24-.58-.36-1.06-.36-.42,0-.76.12-1.02.36-.27.24-.4.55-.4.94h-1.55c0-.47.13-.91.38-1.29.25-.39.6-.69,1.06-.91.45-.22.96-.33,1.52-.33.93,0,1.65.23,2.18.7.53.46.79,1.11.79,1.93,0,.41-.13.81-.4,1.17-.27.37-.61.64-1.03.83.51.17.9.45,1.16.82.26.37.4.82.4,1.33,0,.83-.29,1.49-.86,1.98-.57.49-1.32.74-2.25.74s-1.62-.24-2.19-.71c-.57-.47-.85-1.1-.85-1.89h1.55c0,.41.14.74.41.99s.64.38,1.1.38.86-.13,1.13-.38c.28-.25.41-.62.41-1.1s-.14-.86-.43-1.12c-.29-.26-.72-.39-1.29-.39h-.91v-1.22Z"/>
  <path class="cls-15" d="M627.03,140.84h-6.23v-1.06l3.09-3.36c.45-.5.76-.91.95-1.24.19-.33.28-.67.28-1,0-.44-.12-.8-.37-1.07s-.58-.41-1-.41c-.5,0-.89.15-1.17.46-.28.3-.41.72-.41,1.25h-1.55c0-.56.13-1.07.38-1.52.26-.45.62-.8,1.1-1.05s1.03-.37,1.65-.37c.9,0,1.61.23,2.13.68.52.45.78,1.07.78,1.87,0,.46-.13.94-.39,1.45-.26.51-.69,1.08-1.28,1.72l-2.27,2.42h4.3v1.23Z"/>
  <g>
    <path class="cls-15" d="M624.7,68.26l.5-4.66h4.98v1.33h-3.69l-.25,2.21c.43-.25.91-.37,1.45-.37.88,0,1.57.28,2.06.84.49.56.73,1.32.73,2.27s-.27,1.69-.81,2.24c-.54.56-1.29.83-2.23.83-.85,0-1.55-.24-2.11-.72-.56-.48-.86-1.11-.91-1.9h1.5c.06.45.22.79.48,1.03.26.24.61.36,1.03.36.47,0,.85-.17,1.11-.51.27-.34.4-.8.4-1.38s-.15-1.01-.44-1.34c-.29-.33-.7-.49-1.21-.49-.28,0-.52.04-.71.11-.2.07-.41.22-.64.43l-1.24-.3Z"/>
    <path class="cls-15" d="M633.57,65.38c0-.56.18-1.02.54-1.37.36-.36.83-.54,1.42-.54s1.07.18,1.43.54c.36.36.54.83.54,1.41v.46c0,.55-.18,1.01-.54,1.36s-.83.53-1.42.53-1.04-.17-1.42-.52c-.37-.35-.56-.82-.56-1.41v-.45ZM634.66,65.87c0,.29.08.53.25.71s.38.27.65.27.47-.09.64-.27c.16-.18.24-.43.24-.73v-.46c0-.29-.08-.53-.25-.71-.16-.18-.38-.27-.65-.27s-.48.09-.64.28-.24.43-.24.73v.47ZM635.87,72.15l-.8-.46,4.53-7.22.8.46-4.53,7.22ZM638.03,70.58c0-.57.18-1.03.55-1.38s.84-.53,1.41-.53,1.05.18,1.42.53.55.83.55,1.42v.45c0,.55-.18,1-.53,1.36-.35.36-.83.54-1.42.54s-1.07-.18-1.44-.53c-.36-.35-.54-.82-.54-1.4v-.46ZM639.11,71.07c0,.29.08.52.25.71.17.18.38.28.65.28s.48-.09.64-.26c.16-.18.23-.42.23-.74v-.48c0-.3-.08-.53-.25-.71-.17-.18-.38-.27-.64-.27s-.48.09-.64.27c-.16.18-.25.42-.25.74v.47Z"/>
  </g>
  <g>
    <path class="cls-13" d="M562.47,7.45h1.32v7.05c0,.95-.29,1.7-.86,2.24s-1.33.81-2.29.81-1.76-.25-2.31-.76c-.55-.51-.83-1.21-.83-2.13h1.31c0,.57.16,1.01.47,1.33s.76.48,1.36.48c.54,0,.98-.17,1.32-.51s.5-.82.51-1.44v-7.07Z"/>
    <path class="cls-13" d="M568.89,17.54c-1,0-1.82-.33-2.45-.99s-.94-1.54-.94-2.64v-.23c0-.73.14-1.39.42-1.97s.67-1.03,1.18-1.35,1.05-.49,1.64-.49c.96,0,1.71.32,2.24.95s.8,1.54.8,2.72v.53h-5.01c.02.73.23,1.32.64,1.77s.93.67,1.55.67c.45,0,.83-.09,1.13-.27.31-.18.58-.42.81-.72l.77.6c-.62.95-1.55,1.43-2.79,1.43ZM568.74,10.91c-.51,0-.94.19-1.29.56-.35.37-.56.89-.64,1.56h3.71v-.1c-.04-.64-.21-1.14-.52-1.49-.31-.35-.73-.53-1.26-.53Z"/>
    <path class="cls-13" d="M572.93,13.64c0-1.13.27-2.05.81-2.74.54-.69,1.24-1.04,2.11-1.04s1.55.3,2.06.89v-3.86h1.26v10.5h-1.16l-.06-.79c-.51.62-1.21.93-2.11.93s-1.55-.35-2.09-1.05-.81-1.62-.81-2.75v-.1ZM574.2,13.78c0,.84.17,1.49.52,1.97.35.47.83.71,1.44.71.8,0,1.39-.36,1.76-1.08v-3.4c-.38-.7-.96-1.05-1.74-1.05-.62,0-1.1.24-1.45.72-.35.48-.52,1.19-.52,2.13Z"/>
    <path class="cls-13" d="M582.33,10l.04.93c.57-.71,1.3-1.07,2.21-1.07,1.56,0,2.35.88,2.37,2.65v4.89h-1.26v-4.89c0-.53-.13-.93-.37-1.18s-.61-.38-1.12-.38c-.41,0-.77.11-1.08.33-.31.22-.55.51-.72.86v5.27h-1.26v-7.4h1.2Z"/>
    <path class="cls-13" d="M588.52,13.63c0-.72.14-1.38.43-1.96s.68-1.03,1.19-1.34,1.09-.47,1.74-.47c1.01,0,1.82.35,2.44,1.05s.93,1.62.93,2.78v.09c0,.72-.14,1.37-.41,1.94s-.67,1.02-1.18,1.34-1.1.48-1.77.48c-1,0-1.82-.35-2.44-1.05s-.93-1.62-.93-2.77v-.09ZM589.8,13.78c0,.82.19,1.48.57,1.98s.89.75,1.53.75,1.15-.25,1.53-.76c.38-.5.57-1.21.57-2.12,0-.81-.19-1.47-.58-1.97s-.9-.76-1.53-.76-1.13.25-1.51.75-.57,1.21-.57,2.13Z"/>
    <path class="cls-13" d="M601.15,15.44c0-.34-.13-.61-.39-.8s-.71-.35-1.35-.49-1.15-.3-1.52-.49-.65-.42-.83-.68-.27-.58-.27-.94c0-.61.26-1.12.77-1.54s1.17-.63,1.97-.63c.84,0,1.52.22,2.04.65s.78.99.78,1.66h-1.27c0-.35-.15-.65-.44-.9s-.66-.38-1.11-.38-.82.1-1.08.3-.39.46-.39.79c0,.31.12.54.36.69.24.15.68.3,1.31.44s1.14.31,1.54.51c.39.2.68.43.87.71s.28.61.28,1.01c0,.66-.26,1.19-.79,1.59-.53.4-1.21.6-2.06.6-.59,0-1.12-.1-1.57-.31-.46-.21-.81-.5-1.07-.88s-.39-.78-.39-1.22h1.27c.02.42.19.76.51,1.01s.74.37,1.25.37c.48,0,.86-.1,1.15-.29s.43-.45.43-.78Z"/>
    <path class="cls-13" d="M605.78,8.21v1.79h1.38v.98h-1.38v4.59c0,.3.06.52.19.67.12.15.33.22.63.22.15,0,.35-.03.6-.08v1.02c-.33.09-.66.14-.97.14-.57,0-.99-.17-1.28-.51s-.43-.83-.43-1.46v-4.59h-1.35v-.98h1.35v-1.79h1.26Z"/>
    <path class="cls-13" d="M608.17,13.63c0-.72.14-1.38.43-1.96s.68-1.03,1.19-1.34,1.09-.47,1.74-.47c1.01,0,1.82.35,2.44,1.05s.93,1.62.93,2.78v.09c0,.72-.14,1.37-.41,1.94s-.67,1.02-1.18,1.34-1.1.48-1.77.48c-1,0-1.81-.35-2.44-1.05s-.93-1.62-.93-2.77v-.09ZM609.44,13.78c0,.82.19,1.48.57,1.98s.89.75,1.53.75,1.15-.25,1.53-.76c.38-.5.57-1.21.57-2.12,0-.81-.19-1.47-.58-1.97s-.9-.76-1.54-.76-1.13.25-1.51.75-.57,1.21-.57,2.13Z"/>
    <path class="cls-13" d="M622.73,13.78c0,1.13-.26,2.03-.77,2.72-.52.69-1.21,1.03-2.09,1.03s-1.6-.28-2.12-.85v3.56h-1.27v-10.24h1.16l.06.82c.52-.64,1.23-.96,2.15-.96s1.59.33,2.11,1,.78,1.6.78,2.8v.12ZM621.47,13.64c0-.83-.18-1.49-.53-1.98s-.84-.72-1.46-.72c-.77,0-1.34.34-1.72,1.02v3.53c.38.67.96,1.01,1.74,1.01.61,0,1.09-.24,1.45-.72s.54-1.2.54-2.14Z"/>
    <path class="cls-13" d="M628.91,17.4c-.07-.15-.13-.41-.18-.78-.59.61-1.29.92-2.11.92-.73,0-1.33-.21-1.79-.62s-.7-.94-.7-1.57c0-.77.29-1.37.88-1.79s1.41-.64,2.47-.64h1.23v-.58c0-.44-.13-.79-.4-1.06-.26-.26-.65-.39-1.17-.39-.45,0-.83.11-1.13.34-.31.23-.46.5-.46.83h-1.27c0-.37.13-.73.39-1.07s.62-.62,1.07-.82.94-.3,1.48-.3c.85,0,1.52.21,2,.64.48.43.73,1.01.75,1.76v3.4c0,.68.09,1.22.26,1.62v.11h-1.33ZM626.81,16.44c.4,0,.77-.1,1.13-.31s.61-.47.77-.8v-1.52h-.99c-1.55,0-2.32.45-2.32,1.36,0,.4.13.71.4.93.26.22.6.33,1.02.33ZM627.98,6.9h1.53l-1.83,2.01h-1.02s1.32-2.01,1.32-2.01Z"/>
    <path class="cls-13" d="M637.86,15.68l1.83-5.68h1.29l-2.65,7.4h-.96l-2.68-7.4h1.29l1.88,5.68Z"/>
    <path class="cls-13" d="M641.76,13.63c0-.72.14-1.38.43-1.96s.68-1.03,1.19-1.34,1.09-.47,1.74-.47c1.01,0,1.82.35,2.44,1.05s.93,1.62.93,2.78v.09c0,.72-.14,1.37-.41,1.94s-.67,1.02-1.18,1.34-1.1.48-1.77.48c-1,0-1.82-.35-2.44-1.05s-.93-1.62-.93-2.77v-.09ZM643.03,13.78c0,.82.19,1.48.57,1.98s.89.75,1.53.75,1.15-.25,1.53-.76c.38-.5.57-1.21.57-2.12,0-.81-.19-1.47-.58-1.97s-.9-.76-1.53-.76-1.13.25-1.51.75-.57,1.21-.57,2.13Z"/>
    <path class="cls-13" d="M651.16,16.37h4.33v1.03h-5.87v-.93l4.08-5.42h-4.02v-1.05h5.61v.9l-4.12,5.47Z"/>
    <path class="cls-13" d="M656.94,16.74c0-.22.07-.4.2-.55s.32-.22.58-.22.46.07.59.22.2.33.2.55-.07.39-.2.53-.33.21-.59.21-.45-.07-.58-.21-.2-.32-.2-.53Z"/>
  </g>
  <g>
    <path class="cls-12" d="M26.63,61.2v3.9h-1.31v-9.95h3.67c1.09,0,1.94.28,2.56.83.62.56.93,1.29.93,2.21,0,.97-.3,1.71-.91,2.23-.6.52-1.47.78-2.59.78h-2.34ZM26.63,60.13h2.36c.7,0,1.24-.17,1.61-.5.37-.33.56-.81.56-1.43,0-.59-.19-1.07-.56-1.42s-.89-.54-1.54-.55h-2.43v3.91Z"/>
    <path class="cls-12" d="M41.81,60.44c0,.98-.16,1.83-.49,2.55s-.79,1.28-1.39,1.66-1.3.57-2.11.57-1.48-.19-2.08-.58-1.08-.93-1.41-1.65c-.33-.71-.51-1.54-.52-2.48v-.72c0-.96.17-1.8.5-2.54s.8-1.3,1.41-1.69c.61-.39,1.3-.58,2.09-.58s1.5.19,2.11.58c.61.39,1.08.94,1.41,1.67s.49,1.58.49,2.55v.63ZM40.5,59.8c0-1.18-.24-2.09-.71-2.72s-1.14-.95-1.99-.95-1.48.32-1.96.95c-.48.63-.72,1.51-.74,2.63v.73c0,1.14.24,2.04.72,2.7.48.65,1.14.98,1.99.98s1.5-.31,1.97-.93.7-1.5.72-2.66v-.74Z"/>
    <path class="cls-12" d="M43.77,65.1v-9.95h2.81c.87,0,1.63.19,2.3.57s1.18.93,1.54,1.63c.36.71.55,1.52.55,2.43v.64c0,.94-.18,1.76-.54,2.47-.36.71-.88,1.25-1.55,1.63-.67.38-1.45.57-2.35.58h-2.75ZM45.09,56.22v7.81h1.38c1.01,0,1.8-.31,2.36-.94.56-.63.84-1.53.84-2.69v-.58c0-1.13-.27-2.01-.8-2.64-.53-.63-1.28-.95-2.26-.95h-1.53Z"/>
    <path class="cls-12" d="M54.32,52.4h1.53l-1.83,2.01h-1.02s1.32-2.01,1.32-2.01ZM54.36,65.1h-1.31v-9.95h1.31v9.95Z"/>
    <path class="cls-12" d="M58.08,64.02h4.72v1.07h-6.04v-9.95h1.32v8.88Z"/>
    <path class="cls-12" d="M75.41,65.1h-1.32l-5.01-7.67v7.67h-1.32v-9.95h1.32l5.02,7.7v-7.7h1.31v9.95Z"/>
    <path class="cls-12" d="M83.24,62.49h-4.17l-.94,2.6h-1.35l3.8-9.95h1.15l3.81,9.95h-1.35l-.95-2.6ZM79.47,61.42h3.38l-1.7-4.66-1.69,4.66Z"/>
    <path class="cls-10" d="M35.04,79.43l2.26-7.49h2.28l-3.47,9.95h-2.14l-3.45-9.95h2.28l2.24,7.49Z"/>
    <path class="cls-10" d="M43.95,76.43l2.07-4.48h2.24l-3.27,6.34v3.61h-2.08v-3.61l-3.27-6.34h2.25l2.06,4.48ZM44.36,69.28h2.15l-1.89,2.12h-1.61l1.35-2.12Z"/>
    <path class="cls-10" d="M52.29,77.91l-1.07,1.15v2.84h-2.05v-9.95h2.05v4.51l.9-1.24,2.54-3.27h2.52l-3.53,4.42,3.64,5.53h-2.44l-2.56-3.99Z"/>
    <path class="cls-10" d="M66.02,77.15c0,.98-.17,1.84-.52,2.58s-.84,1.31-1.49,1.71c-.65.4-1.38.6-2.22.6s-1.56-.2-2.21-.59-1.15-.96-1.5-1.7-.54-1.58-.54-2.54v-.49c0-.98.18-1.84.53-2.59.35-.75.85-1.32,1.5-1.72.64-.4,1.38-.6,2.21-.6s1.57.2,2.21.6c.65.4,1.14.97,1.5,1.72.35.75.53,1.61.53,2.58v.44ZM63.94,76.7c0-1.04-.19-1.84-.56-2.38s-.91-.81-1.6-.81-1.22.27-1.59.8-.56,1.32-.57,2.35v.49c0,1.02.19,1.8.56,2.37s.91.84,1.61.84,1.22-.27,1.59-.81.56-1.33.56-2.36v-.49Z"/>
    <path class="cls-10" d="M75.6,81.9h-2.05l-3.99-6.55v6.55h-2.05v-9.95h2.05l4,6.56v-6.56h2.04v9.95Z"/>
    <path class="cls-10" d="M84.93,71.94v6.56c0,1.09-.34,1.95-1.02,2.58-.68.63-1.61.95-2.79.95s-2.08-.31-2.77-.92-1.03-1.46-1.05-2.54v-6.63h2.05v6.57c0,.65.16,1.13.47,1.43.31.3.74.45,1.29.45,1.15,0,1.74-.61,1.76-1.82v-6.62h2.06Z"/>
  </g>
  <g>
    <path class="cls-12" d="M26.63,129.2v3.9h-1.31v-9.95h3.67c1.09,0,1.94.28,2.56.83.62.56.93,1.29.93,2.21,0,.97-.3,1.71-.91,2.23-.6.52-1.47.78-2.59.78h-2.34ZM26.63,128.13h2.36c.7,0,1.24-.17,1.61-.5.37-.33.56-.81.56-1.43,0-.59-.19-1.07-.56-1.42s-.89-.54-1.54-.55h-2.43v3.91Z"/>
    <path class="cls-12" d="M41.81,128.44c0,.98-.16,1.83-.49,2.55s-.79,1.28-1.39,1.66-1.3.57-2.11.57-1.48-.19-2.08-.58-1.08-.93-1.41-1.65c-.33-.71-.51-1.54-.52-2.48v-.72c0-.96.17-1.8.5-2.54s.8-1.3,1.41-1.69c.61-.39,1.3-.58,2.09-.58s1.5.19,2.11.58c.61.39,1.08.94,1.41,1.67s.49,1.58.49,2.55v.63ZM40.5,127.8c0-1.18-.24-2.09-.71-2.72s-1.14-.95-1.99-.95-1.48.32-1.96.95c-.48.63-.72,1.51-.74,2.63v.73c0,1.14.24,2.04.72,2.7.48.65,1.14.98,1.99.98s1.5-.31,1.97-.93.7-1.5.72-2.66v-.74Z"/>
    <path class="cls-12" d="M43.77,133.1v-9.95h2.81c.87,0,1.63.19,2.3.57s1.18.93,1.54,1.63c.36.71.55,1.52.55,2.43v.64c0,.94-.18,1.76-.54,2.47-.36.71-.88,1.25-1.55,1.63-.67.38-1.45.57-2.35.58h-2.75ZM45.09,124.22v7.81h1.38c1.01,0,1.8-.31,2.36-.94.56-.63.84-1.53.84-2.69v-.58c0-1.13-.27-2.01-.8-2.64-.53-.63-1.28-.95-2.26-.95h-1.53Z"/>
    <path class="cls-12" d="M54.32,120.4h1.53l-1.83,2.01h-1.02s1.32-2.01,1.32-2.01ZM54.36,133.1h-1.31v-9.95h1.31v9.95Z"/>
    <path class="cls-12" d="M58.08,132.02h4.72v1.07h-6.04v-9.95h1.32v8.88Z"/>
    <path class="cls-12" d="M75.41,133.1h-1.32l-5.01-7.67v7.67h-1.32v-9.95h1.32l5.02,7.7v-7.7h1.31v9.95Z"/>
    <path class="cls-12" d="M83.24,130.49h-4.17l-.94,2.6h-1.35l3.8-9.95h1.15l3.81,9.95h-1.35l-.95-2.6ZM79.47,129.42h3.38l-1.7-4.66-1.69,4.66Z"/>
    <path class="cls-10" d="M36.64,145.58h-3.94v2.67h4.62v1.65h-6.67v-9.95h6.66v1.66h-4.61v2.37h3.94v1.61Z"/>
    <path class="cls-10" d="M41.2,139.94l2.56,7.22,2.54-7.22h2.69v9.95h-2.06v-2.72l.21-4.7-2.69,7.42h-1.41l-2.68-7.41.21,4.69v2.72h-2.05v-9.95h2.68Z"/>
    <path class="cls-10" d="M52.97,149.9h-2.05v-9.95h2.05v9.95Z"/>
    <path class="cls-10" d="M60.03,147.29c0-.39-.14-.68-.41-.89s-.77-.43-1.48-.66-1.27-.46-1.69-.68c-1.13-.61-1.7-1.43-1.7-2.47,0-.54.15-1.02.46-1.44.3-.42.74-.75,1.3-.99.57-.24,1.21-.36,1.91-.36s1.34.13,1.9.39.99.62,1.3,1.09c.31.47.46,1,.46,1.6h-2.05c0-.46-.14-.81-.43-1.06s-.69-.38-1.21-.38-.89.11-1.17.32-.42.49-.42.84c0,.32.16.59.49.81.33.22.81.42,1.44.62,1.17.35,2.02.79,2.55,1.31s.8,1.17.8,1.94c0,.86-.33,1.54-.98,2.03s-1.53.73-2.63.73c-.77,0-1.46-.14-2.09-.42s-1.11-.66-1.44-1.15c-.33-.49-.5-1.05-.5-1.7h2.06c0,1.1.66,1.65,1.97,1.65.49,0,.87-.1,1.14-.3s.41-.48.41-.83Z"/>
    <path class="cls-10" d="M65.66,149.9h-2.05v-9.95h2.05v9.95ZM65.02,137.26h2.15l-1.89,2.12h-1.61l1.35-2.12Z"/>
    <path class="cls-10" d="M75.37,146.58c-.08,1.07-.47,1.91-1.19,2.53-.71.62-1.65.92-2.82.92-1.28,0-2.28-.43-3.01-1.29-.73-.86-1.1-2.04-1.1-3.54v-.61c0-.96.17-1.8.51-2.53s.82-1.29,1.45-1.68c.63-.39,1.36-.58,2.18-.58,1.15,0,2.07.31,2.78.92s1.11,1.48,1.22,2.59h-2.05c-.05-.64-.23-1.11-.54-1.4-.31-.29-.78-.43-1.41-.43-.68,0-1.2.25-1.53.73-.34.49-.51,1.25-.52,2.28v.75c0,1.08.16,1.86.49,2.36.33.5.84.75,1.54.75.63,0,1.11-.14,1.42-.43.31-.29.49-.74.54-1.34h2.05Z"/>
    <path class="cls-10" d="M84.82,149.9h-2.05v-4.27h-4v4.27h-2.05v-9.95h2.05v4.03h4v-4.03h2.05v9.95Z"/>
  </g>
  <use width="564.82" height="24" transform="translate(94.28 167.81)" xlink:href="#New_Symbol"/>
  <line class="cls-7" x1="645.31" y1="52.69" x2="645.31" y2="23.11"/>
</svg>