<?xml version="1.0" encoding="utf-8"?>
<!-- Generator: Adobe Illustrator 27.8.1, SVG Export Plug-In . SVG Version: 6.00 Build 0)  -->
<svg version="1.1" xmlns="http://www.w3.org/2000/svg" xmlns:xlink="http://www.w3.org/1999/xlink" x="0px" y="0px"
	 viewBox="0 0 300 300" style="enable-background:new 0 0 300 300;" xml:space="preserve">
<style type="text/css">
	.st0{fill:none;stroke:#000080;stroke-width:0.75;stroke-linecap:round;stroke-linejoin:round;}
	.st1{fill:#000080;}
	.st2{fill:none;stroke:#333333;stroke-width:3;stroke-miterlimit:10;}
	.st3{fill:#FFFFFF;stroke:#333333;stroke-width:3;stroke-miterlimit:10;}
	.st4{fill:#E6E6E6;}
	.st5{fill:#333333;}
	.st6{fill:#FBBE5F;stroke:#333333;stroke-width:3;stroke-miterlimit:10;}
	.st7{fill:#FFFFFF;}
	.st8{fill:#81EBB3;stroke:#333333;stroke-width:3;stroke-miterlimit:10;}
	.st9{fill:#E6E6E6;stroke:#333333;stroke-width:3;stroke-miterlimit:10;}
	.st10{fill:#81EBB3;}
	.st11{fill:none;stroke:#FFFFFF;stroke-width:3;stroke-miterlimit:10;}
	.st12{fill:none;stroke:#333333;stroke-width:3;stroke-linejoin:bevel;stroke-miterlimit:10;}
	.st13{fill:#FBBE5F;}
	.st14{fill:none;stroke:#81EBB3;stroke-width:3;stroke-miterlimit:10;}

	#arrows > line, #arrows > path{
      stroke-dasharray: 40 10;
      stroke-dashoffset: 0;
      animation: arrow 5s infinite linear;
    }

    @keyframes arrow{
      0%{
        stroke-dashoffset: 0;
      }
      100%{
        stroke-dashoffset: -100;
      }
    }
</style>

	<polygon class="st3" points="121.7,269.5 121.7,252.1 138.9,230.8 104.5,104.1 115.5,96 115.5,84.3 51,84.3 51,96 62,104.1 
		27.6,230.8 44.8,252.1 44.8,269.5 	"/>

	<path class="st4" d="M238,64.9C238,64.8,238,64.8,238,64.9c0-18.6-15-33.6-33.5-33.6c-1.6,0-3.2,0.1-4.8,0.3
		c-8-11.8-21.4-19.5-36.7-19.5c-23.9,0-43.4,19-44.2,42.8c-19.7,6-34,24.2-34,45.8c0,26.4,21.4,47.9,47.9,47.9
		c8.4,0,16.4-2.2,23.3-6c5.9,5.2,13.7,8.4,22.2,8.4c8.8,0,16.8-3.4,22.7-8.9c6.6,4.1,14.4,6.5,22.8,6.5
		c23.8,0,43.1-19.3,43.1-43.1C266.7,86.7,254.7,70.8,238,64.9z"/>

	<path class="st2" d="M238,64.9C238,64.8,238,64.8,238,64.9c0-18.6-15-33.6-33.5-33.6c-1.6,0-3.2,0.1-4.8,0.3
		c-8-11.8-21.4-19.5-36.7-19.5c-23.9,0-43.4,19-44.2,42.8c-19.7,6-34,24.2-34,45.8c0,26.4,21.4,47.9,47.9,47.9
		c8.4,0,16.4-2.2,23.3-6c5.9,5.2,13.7,8.4,22.2,8.4c8.8,0,16.8-3.4,22.7-8.9c6.6,4.1,14.4,6.5,22.8,6.5
		c23.8,0,43.1-19.3,43.1-43.1C266.7,86.7,254.7,70.8,238,64.9z"/>

	<path class="st5" d="M162.9,100c-0.3,4.3-1.9,7.7-4.8,10.1c-2.9,2.5-6.6,3.7-11.3,3.7c-5.1,0-9.1-1.7-12.1-5.2
		c-2.9-3.4-4.4-8.2-4.4-14.2V92c0-3.8,0.7-7.2,2-10.1c1.4-2.9,3.3-5.2,5.8-6.7c2.5-1.6,5.4-2.3,8.8-2.3c4.6,0,8.3,1.2,11.1,3.7
		c2.8,2.5,4.4,5.9,4.9,10.4h-8.2c-0.2-2.6-0.9-4.4-2.2-5.6c-1.2-1.2-3.1-1.7-5.6-1.7c-2.7,0-4.8,1-6.2,2.9c-1.4,2-2.1,5-2.1,9.1v3
		c0,4.3,0.7,7.5,2,9.5c1.3,2,3.4,3,6.2,3c2.5,0,4.4-0.6,5.7-1.7c1.3-1.2,2-3,2.2-5.4H162.9z"/>
	<path class="st5" d="M201.1,94.2c0,3.9-0.7,7.4-2.1,10.3c-1.4,3-3.4,5.2-6,6.9c-2.6,1.6-5.5,2.4-8.9,2.4c-3.3,0-6.3-0.8-8.9-2.4
		c-2.6-1.6-4.6-3.9-6-6.8c-1.4-3-2.1-6.3-2.2-10.2v-2c0-3.9,0.7-7.4,2.1-10.4c1.4-3,3.4-5.3,6-6.9c2.6-1.6,5.5-2.4,8.9-2.4
		s6.3,0.8,8.9,2.4c2.6,1.6,4.6,3.9,6,6.9c1.4,3,2.1,6.4,2.1,10.3V94.2z M192.8,92.4c0-4.2-0.7-7.4-2.2-9.5
		c-1.5-2.2-3.6-3.3-6.4-3.3c-2.8,0-4.9,1.1-6.4,3.2c-1.5,2.1-2.3,5.3-2.3,9.4v1.9c0,4.1,0.7,7.2,2.2,9.5c1.5,2.2,3.7,3.4,6.5,3.4
		c2.8,0,4.9-1.1,6.4-3.2c1.5-2.2,2.2-5.3,2.2-9.5V92.4z"/>
	<path class="st5" d="M222.5,113.2h-17v-3.8l7.9-7c1-0.9,1.8-1.7,2.2-2.5c0.4-0.8,0.7-1.4,0.7-1.8c0-1.5-0.9-2.3-2.6-2.3
		c-0.9,0-1.6,0.3-2.2,0.9c-0.5,0.6-0.8,1.3-0.8,2.2H205c0-2.1,0.8-3.9,2.3-5.3c1.6-1.4,3.6-2.2,6-2.2c2.7,0,4.8,0.6,6.3,1.8
		c1.5,1.2,2.2,2.9,2.2,5c0,1.3-0.3,2.4-1,3.5c-0.7,1.1-2,2.4-3.9,4l-4.1,3.2h9.6V113.2z"/>

	<circle class="st6" cx="84.7" cy="228.2" r="21.9"/>

	<path class="st7" d="M90,249.4c0,0,6.6-1.9,6.6-11c0-9.1-10.4-9.1-10.4-23.2c-8.8,7.9,4.2,19-3.4,21.4c-3.5,1.1-5.3-1.7-5.5-8.2
		c-5.6,6.9-7.9,16.4,0,20.1C77.3,248.6,85,251.1,90,249.4z"/>
		
	<path class="st5" d="M90.9,247.5c4.4-2.9,5.7-9.9,2.6-14.2c-1.7-2.4-4.6-4.6-6.3-7.8c-1.8-3.2-2.5-6.9-2.5-10.3
		c0,0,2.5,1.1,2.5,1.1c-1,0.9-1.7,1.9-2.2,3c-1.9,5,2,9.7,1.7,14.9c-0.1,2.1-2.3,3.8-4.3,4c-3.4,0.8-5.6-2.2-6.1-5.1
		c-0.4-1.6-0.5-3.2-0.5-4.7l2.7,0.9c-5.3,6.3-8.1,17,2.3,18.5C84.1,248.6,87.6,248.9,90.9,247.5L90.9,247.5z M88.4,251.3
		c-4,0.6-7.9-0.2-11.7-1.4c-4.4-1.8-6.8-6.7-5.9-11.3c0.8-5.6,4.4-10.2,7.9-14.4c0.3,2.8-0.7,13.8,4.6,10.4
		c0.7-0.6,0.5-1.6,0.4-2.6c-1.6-6.1-4.4-12.8,1.6-18c0,0,2.5-2.2,2.5-2.2s0,3.4,0,3.4c-0.1,4.9,1.6,9.1,4.9,12.6
		c2.3,2.5,5.1,5.5,5.3,9.2C98.4,243.7,95.3,249.5,88.4,251.3L88.4,251.3z"/>

	<rect x="84.4" y="182.7" class="st7" width="186.9" height="104.4"/>
	<g id="arrows">
		<line class="st2" x1="173.7" y1="163.5" x2="173.7" y2="246.8" pathLength="100"/>
		<polygon class="st5" points="167.8,245 173.7,255.4 179.7,245" />
		<path class="st2" d="M70.3,72.8c0,0-2.6-35.7,32.3-29.5" pathLength="100"/>
		<polygon class="st5" points="99.9,48.2 109.9,45.1 102.3,38"/>
		<line class="st2" x1="190.8" y1="163.5" x2="190.8" y2="230.9" pathLength="100"/>
		<polygon class="st5" points="184.8,229.2 190.8,239.5 196.7,229.2"/>
		<line class="st2" x1="155.9" y1="163.5" x2="155.9" y2="219.6" pathLength="100"/>
		<polygon class="st5" points="149.9,217.8 155.9,228.2 161.9,217.8"/>
	</g>
	<polygon class="st8" points="206.8,182.7 206.8,194.5 254.6,194.5 254.6,275.4 96.3,275.4 96.3,194.5 138.2,194.5 138.2,182.7 
		82,182.7 82,287.2 268.9,287.2 268.9,182.7 	"/>

</svg>
