<svg id="Infografika" xmlns="http://www.w3.org/2000/svg" xmlns:xlink="http://www.w3.org/1999/xlink" viewBox="0 0 740 540.96"><defs><style>.cls-1,.cls-8{fill:none;}.cls-2,.cls-4{fill:#1c4184;}.cls-3{fill:#5c5c5c;}.cls-4,.cls-5,.cls-7{stroke:#fff;}.cls-4,.cls-5,.cls-8{stroke-miterlimit:10;}.cls-4{stroke-width:1.68px;}.cls-5{fill:#d1d3d4;stroke-width:1.68px;}.cls-6{clip-path:url(#clip-path);}.cls-7{fill:#fff;}.cls-8{stroke:#1c4184;stroke-width:0.75px;}</style><clipPath id="clip-path"><rect class="cls-1" x="167.51" y="100.83" width="411.89" height="411.89"/></clipPath></defs><path class="cls-2" d="M565.56,320.37a4.1,4.1,0,0,1-1.34,2.84,4.58,4.58,0,0,1-3.12,1,4.41,4.41,0,0,1-2.39-.65,4.15,4.15,0,0,1-1.6-1.83,6.6,6.6,0,0,1-.59-2.76v-1.06a6.62,6.62,0,0,1,.57-2.83,4.28,4.28,0,0,1,1.64-1.89,4.49,4.49,0,0,1,2.46-.67,4.37,4.37,0,0,1,3,1,4.22,4.22,0,0,1,1.34,2.89h-2a2.79,2.79,0,0,0-.71-1.77,2.4,2.4,0,0,0-1.69-.54,2.3,2.3,0,0,0-2,.94,4.71,4.71,0,0,0-.7,2.76v1a5,5,0,0,0,.66,2.82,2.2,2.2,0,0,0,1.93,1,2.54,2.54,0,0,0,1.75-.53,2.71,2.71,0,0,0,.74-1.74Zm-4.51-9.68,1.14-1.21h1.63v.08l-2.18,2.18h-1.17l-2.17-2.19v-.07h1.61Z"/><path class="cls-2" d="M569.19,324.07h-1.9v-8.45h1.9Zm-.36-11.94H571l-2.16,2.36H567.3Z"/><path class="cls-2" d="M573.11,315.62l0,1a3,3,0,0,1,2.46-1.14c1.76,0,2.66,1,2.69,3v5.58h-1.9V318.6a1.72,1.72,0,0,0-.35-1.2,1.48,1.48,0,0,0-1.13-.38,1.81,1.81,0,0,0-1.71,1v6h-1.9v-8.45Z"/><path class="cls-2" d="M585.3,324.07a2.56,2.56,0,0,1-.22-.79,3.19,3.19,0,0,1-4.3.22,2.3,2.3,0,0,1-.81-1.79,2.4,2.4,0,0,1,1-2.08,4.87,4.87,0,0,1,2.87-.72H585v-.56a1.52,1.52,0,0,0-.36-1.05,1.48,1.48,0,0,0-1.12-.39,1.69,1.69,0,0,0-1.06.32,1,1,0,0,0-.42.83h-1.9a2.08,2.08,0,0,1,.47-1.3,3,3,0,0,1,1.25-.95,4.4,4.4,0,0,1,1.77-.35,3.54,3.54,0,0,1,2.37.75,2.68,2.68,0,0,1,.9,2.1v3.81a4.37,4.37,0,0,0,.32,1.82v.13Zm-2.09-1.36a2.21,2.21,0,0,0,1.06-.28,1.74,1.74,0,0,0,.74-.73v-1.6h-1a2.87,2.87,0,0,0-1.59.37,1.2,1.2,0,0,0-.53,1,1.08,1.08,0,0,0,.37.87A1.37,1.37,0,0,0,583.21,322.71Z"/><path class="cls-2" d="M595.06,317.88h1a3.29,3.29,0,0,0,1.41-.29,2.12,2.12,0,0,0,.91-.78,2.08,2.08,0,0,0,.32-1.14,2.31,2.31,0,0,0-.62-1.71,2.36,2.36,0,0,0-1.77-.62,2.52,2.52,0,0,0-1.79.64,2.2,2.2,0,0,0-.7,1.7h-.94a3,3,0,0,1,.45-1.61,2.93,2.93,0,0,1,1.23-1.13,3.79,3.79,0,0,1,1.75-.4,3.39,3.39,0,0,1,2.44.85,3,3,0,0,1,.89,2.31,2.51,2.51,0,0,1-.52,1.51,3,3,0,0,1-1.43,1,2.93,2.93,0,0,1,1.61,1,2.77,2.77,0,0,1,.55,1.73,3.1,3.1,0,0,1-1,2.35,3.62,3.62,0,0,1-2.55.89,4.23,4.23,0,0,1-1.86-.41,3,3,0,0,1-1.78-2.83h.94a2.3,2.3,0,0,0,.75,1.77,2.84,2.84,0,0,0,2,.68,2.71,2.71,0,0,0,1.89-.62,2.34,2.34,0,0,0,.67-1.8,2.11,2.11,0,0,0-.73-1.74,3.26,3.26,0,0,0-2.15-.61h-.94Z"/><path class="cls-2" d="M606.2,324.07h-.94V313.82L602.17,315v-.87l3.88-1.44h.15Z"/><path class="cls-2" d="M610.67,326.2l-.55-.41a3.43,3.43,0,0,0,.73-2V322.6h.91v1A3.37,3.37,0,0,1,610.67,326.2Z"/><path class="cls-2" d="M619.3,312.61v.81h-.11a4.28,4.28,0,0,0-3.22,1.21,5,5,0,0,0-1.29,3.33,3.21,3.21,0,0,1,1.19-1,3.65,3.65,0,0,1,1.63-.36,3,3,0,0,1,2.38,1,4,4,0,0,1,.89,2.71,4.8,4.8,0,0,1-.41,2,3.18,3.18,0,0,1-3,1.88,3.37,3.37,0,0,1-2.65-1.18,4.53,4.53,0,0,1-1-3.06v-.94a7.19,7.19,0,0,1,1.4-4.73,4.9,4.9,0,0,1,3.94-1.71Zm-1.95,4.81a2.88,2.88,0,0,0-1.66.52,2.54,2.54,0,0,0-1,1.34v.8a3.77,3.77,0,0,0,.76,2.42,2.45,2.45,0,0,0,2,.93,2.15,2.15,0,0,0,1.77-.86,3.47,3.47,0,0,0,.68-2.19,3.26,3.26,0,0,0-.68-2.15A2.24,2.24,0,0,0,617.35,317.42Z"/><path class="cls-2" d="M626.32,314.89a2.38,2.38,0,0,1,.63-1.69,2.23,2.23,0,0,1,3.19,0,2.42,2.42,0,0,1,.63,1.73v.56a2.36,2.36,0,0,1-.62,1.66,2,2,0,0,1-1.59.67,2.17,2.17,0,0,1-1.6-.65,2.38,2.38,0,0,1-.64-1.74Zm.76.59a1.76,1.76,0,0,0,.4,1.2,1.36,1.36,0,0,0,1.08.47,1.32,1.32,0,0,0,1.06-.47,1.89,1.89,0,0,0,.39-1.23v-.57a1.78,1.78,0,0,0-.4-1.2,1.32,1.32,0,0,0-1.06-.47,1.31,1.31,0,0,0-1.06.47,1.8,1.8,0,0,0-.41,1.25Zm1.78,7.65-.59-.38,5.56-8.89.58.38Zm3.19-1.85a2.4,2.4,0,0,1,.62-1.68,2.1,2.1,0,0,1,1.59-.66,2.13,2.13,0,0,1,1.6.66,2.38,2.38,0,0,1,.64,1.74v.55a2.33,2.33,0,0,1-.63,1.68,2.08,2.08,0,0,1-1.59.67,2.14,2.14,0,0,1-1.6-.66,2.41,2.41,0,0,1-.63-1.73Zm.75.61a1.8,1.8,0,0,0,.4,1.21,1.36,1.36,0,0,0,1.08.47,1.32,1.32,0,0,0,1.07-.48,1.88,1.88,0,0,0,.39-1.24v-.57a1.77,1.77,0,0,0-.4-1.21,1.36,1.36,0,0,0-1.08-.46,1.38,1.38,0,0,0-1.06.46,1.81,1.81,0,0,0-.4,1.24Z"/><path class="cls-2" d="M499.34,441.93v7.61a3.72,3.72,0,0,1-1.16,2.87,5.07,5.07,0,0,1-6.19,0,3.69,3.69,0,0,1-1.15-2.89v-7.6h2v7.61a2.43,2.43,0,0,0,.58,1.75,2.24,2.24,0,0,0,1.7.6c1.52,0,2.28-.8,2.28-2.41v-7.55Z"/><path class="cls-2" d="M507.4,450.38a1.39,1.39,0,0,0-.53-1.16,6.52,6.52,0,0,0-1.9-.82,8.83,8.83,0,0,1-2.19-.92,2.92,2.92,0,0,1-1.56-2.55,2.78,2.78,0,0,1,1.12-2.26,4.52,4.52,0,0,1,2.92-.89,4.77,4.77,0,0,1,2.11.44,3.42,3.42,0,0,1,1.46,1.24,3.16,3.16,0,0,1,.53,1.79h-2a1.79,1.79,0,0,0-.56-1.39,2.31,2.31,0,0,0-1.6-.5,2.35,2.35,0,0,0-1.5.41,1.38,1.38,0,0,0-.54,1.16,1.24,1.24,0,0,0,.58,1,6.49,6.49,0,0,0,1.9.81,8.54,8.54,0,0,1,2.14.9,3.45,3.45,0,0,1,1.18,1.16,3,3,0,0,1,.37,1.52,2.71,2.71,0,0,1-1.09,2.27,4.7,4.7,0,0,1-2.95.84,5.61,5.61,0,0,1-2.27-.46,3.89,3.89,0,0,1-1.61-1.26,3.11,3.11,0,0,1-.58-1.88h2a1.82,1.82,0,0,0,.64,1.5,2.78,2.78,0,0,0,1.84.53,2.45,2.45,0,0,0,1.55-.42A1.34,1.34,0,0,0,507.4,450.38Z"/><path class="cls-2" d="M517.47,450.66h-4.4l-.92,2.65h-2.06l4.3-11.38h1.77l4.31,11.38H518.4Zm-3.85-1.59h3.3l-1.65-4.72Z"/><path class="cls-2" d="M530,453.31h-.94V443.06l-3.1,1.15v-.88l3.88-1.43H530Z"/><path class="cls-2" d="M540.26,449.65H542v.78h-1.78v2.88h-.93v-2.88H534v-.53l5.27-8h1Zm-5.14,0h4.21v-6.5l-.42.71Z"/><path class="cls-2" d="M543.34,455.43l-.55-.4a3.41,3.41,0,0,0,.73-2v-1.21h.91v1A3.35,3.35,0,0,1,543.34,455.43Z"/><path class="cls-2" d="M552.19,449.65H554v.78h-1.78v2.88h-.93v-2.88H545.9v-.53l5.27-8h1Zm-5.14,0h4.21v-6.5l-.42.71Z"/><path class="cls-2" d="M559,444.12a2.33,2.33,0,0,1,.63-1.68,2.23,2.23,0,0,1,3.19,0,2.41,2.41,0,0,1,.63,1.73v.55a2.32,2.32,0,0,1-.62,1.67,2,2,0,0,1-1.59.67,2.14,2.14,0,0,1-1.6-.66,2.34,2.34,0,0,1-.64-1.73Zm.76.6a1.78,1.78,0,0,0,.4,1.2,1.36,1.36,0,0,0,1.08.47,1.3,1.3,0,0,0,1.06-.48,1.84,1.84,0,0,0,.39-1.22v-.57a1.76,1.76,0,0,0-.4-1.2,1.42,1.42,0,0,0-2.12,0,1.81,1.81,0,0,0-.41,1.25Zm1.78,7.64-.59-.37,5.56-8.89.58.37Zm3.19-1.84a2.37,2.37,0,0,1,.62-1.68,2.26,2.26,0,0,1,3.19,0,2.37,2.37,0,0,1,.64,1.73v.56a2.33,2.33,0,0,1-.63,1.68,2.1,2.1,0,0,1-1.59.66,2.14,2.14,0,0,1-1.6-.66,2.38,2.38,0,0,1-.63-1.72Zm.75.61a1.76,1.76,0,0,0,.4,1.2,1.46,1.46,0,0,0,2.15,0,1.9,1.9,0,0,0,.39-1.24v-.57a1.73,1.73,0,0,0-.4-1.21,1.47,1.47,0,0,0-2.14,0,1.81,1.81,0,0,0-.4,1.24Z"/><path class="cls-2" d="M367,490.23h-4.67v3.5h5.46v1.58h-7.44V483.93h7.38v1.6h-5.4v3.14H367Z"/><path class="cls-2" d="M377.75,483.93v7.6a3.69,3.69,0,0,1-1.16,2.87,5.09,5.09,0,0,1-6.19,0,3.69,3.69,0,0,1-1.15-2.89v-7.6h2v7.61a2.39,2.39,0,0,0,.58,1.74,2.21,2.21,0,0,0,1.7.61c1.52,0,2.28-.81,2.28-2.41v-7.55Z"/><path class="cls-2" d="M383.36,491.24h-4.1v-1.53h4.1Z"/><path class="cls-2" d="M392.45,495.31H384.8V494l3.79-4.13a9.17,9.17,0,0,0,1.17-1.53,2.5,2.5,0,0,0,.35-1.23,1.84,1.84,0,0,0-.46-1.31,1.58,1.58,0,0,0-1.23-.5,1.85,1.85,0,0,0-1.43.56,2.22,2.22,0,0,0-.51,1.54h-1.9a3.67,3.67,0,0,1,.48-1.87,3.18,3.18,0,0,1,1.35-1.29,4.25,4.25,0,0,1,2-.46,3.82,3.82,0,0,1,2.61.83,2.87,2.87,0,0,1,1,2.3,3.87,3.87,0,0,1-.48,1.78,10.21,10.21,0,0,1-1.58,2.13l-2.78,3h5.28Z"/><path class="cls-2" d="M401.47,485l-4.55,10.32h-2l4.54-9.85h-5.89v-1.53h7.89Z"/><path class="cls-2" d="M413.9,486.86a2.6,2.6,0,0,1-.52,1.58,3,3,0,0,1-1.36,1,3.32,3.32,0,0,1,1.58,1.09,2.69,2.69,0,0,1,.59,1.73,2.9,2.9,0,0,1-1,2.32,4.49,4.49,0,0,1-5.26,0,2.9,2.9,0,0,1-1-2.32,2.78,2.78,0,0,1,.57-1.72,3.12,3.12,0,0,1,1.56-1.1,2.88,2.88,0,0,1-1.34-1,2.65,2.65,0,0,1-.5-1.58,2.9,2.9,0,0,1,.91-2.25,3.91,3.91,0,0,1,4.83,0A2.9,2.9,0,0,1,413.9,486.86Zm-.64,5.44a2.28,2.28,0,0,0-.76-1.75,2.82,2.82,0,0,0-1.94-.68,2.77,2.77,0,0,0-1.93.67,2.26,2.26,0,0,0-.75,1.76,2.19,2.19,0,0,0,.73,1.73,3.31,3.31,0,0,0,3.91,0A2.17,2.17,0,0,0,413.26,492.3Zm-.3-5.45a2.15,2.15,0,0,0-.68-1.62,2.35,2.35,0,0,0-1.72-.66,2.38,2.38,0,0,0-1.72.63,2.18,2.18,0,0,0-.66,1.65,2.07,2.07,0,0,0,.66,1.61,2.74,2.74,0,0,0,3.45,0A2.06,2.06,0,0,0,413,486.85Z"/><path class="cls-2" d="M416,497.43l-.55-.4a3.41,3.41,0,0,0,.73-2v-1.21h.92v1A3.35,3.35,0,0,1,416,497.43Z"/><path class="cls-2" d="M424.64,483.85v.81h-.11a4.28,4.28,0,0,0-3.21,1.2,5,5,0,0,0-1.3,3.34,3.19,3.19,0,0,1,1.2-1,3.7,3.7,0,0,1,1.62-.35,3,3,0,0,1,2.39,1,4,4,0,0,1,.89,2.71,4.62,4.62,0,0,1-.42,2,3.24,3.24,0,0,1-1.19,1.39,3.17,3.17,0,0,1-1.76.49,3.34,3.34,0,0,1-2.66-1.18,4.52,4.52,0,0,1-1-3.06v-.94a7.21,7.21,0,0,1,1.39-4.73,4.94,4.94,0,0,1,3.94-1.7Zm-1.95,4.8a2.92,2.92,0,0,0-1.66.53,2.52,2.52,0,0,0-1,1.34v.79a3.69,3.69,0,0,0,.76,2.42,2.45,2.45,0,0,0,2,.94,2.13,2.13,0,0,0,1.77-.87,3.45,3.45,0,0,0,.67-2.18,3.26,3.26,0,0,0-.67-2.16A2.26,2.26,0,0,0,422.69,488.65Z"/><path class="cls-2" d="M431.66,486.12a2.33,2.33,0,0,1,.63-1.68,2.25,2.25,0,0,1,3.2,0,2.41,2.41,0,0,1,.63,1.73v.55a2.34,2.34,0,0,1-.63,1.67,2.08,2.08,0,0,1-1.59.67,2.14,2.14,0,0,1-1.6-.66,2.4,2.4,0,0,1-.64-1.73Zm.76.6a1.79,1.79,0,0,0,.4,1.2,1.36,1.36,0,0,0,1.08.47,1.29,1.29,0,0,0,1.06-.48,1.79,1.79,0,0,0,.4-1.22v-.58a1.8,1.8,0,0,0-.41-1.2,1.34,1.34,0,0,0-1.06-.47,1.35,1.35,0,0,0-1.06.47,1.84,1.84,0,0,0-.41,1.25Zm1.78,7.64-.58-.37,5.55-8.89.59.37Zm3.19-1.84a2.33,2.33,0,0,1,.63-1.68,2.11,2.11,0,0,1,1.59-.67,2.14,2.14,0,0,1,1.6.66,2.42,2.42,0,0,1,.63,1.74v.56a2.37,2.37,0,0,1-.63,1.68,2.25,2.25,0,0,1-3.18,0,2.35,2.35,0,0,1-.64-1.72Zm.75.6a1.78,1.78,0,0,0,.4,1.21,1.36,1.36,0,0,0,1.08.47,1.33,1.33,0,0,0,1.07-.47,1.91,1.91,0,0,0,.39-1.25v-.57a1.77,1.77,0,0,0-.4-1.21,1.36,1.36,0,0,0-1.07-.45,1.33,1.33,0,0,0-1.06.46,1.77,1.77,0,0,0-.41,1.24Z"/><path class="cls-2" d="M178,502.2h-2.2v4.37h-2V495.2h4a4.63,4.63,0,0,1,3,.88,3.11,3.11,0,0,1,1.07,2.56,3.17,3.17,0,0,1-.55,1.91,3.45,3.45,0,0,1-1.53,1.18l2.55,4.74v.1h-2.11Zm-2.2-1.6h2a2.22,2.22,0,0,0,1.56-.5,1.76,1.76,0,0,0,.57-1.38,1.88,1.88,0,0,0-.52-1.41,2.19,2.19,0,0,0-1.55-.52h-2.09Z"/><path class="cls-2" d="M188.7,505.74a3,3,0,0,1-2.38,1,2.6,2.6,0,0,1-2.08-.81,3.41,3.41,0,0,1-.71-2.32v-5.48h1.9v5.45c0,1.08.45,1.61,1.34,1.61a1.87,1.87,0,0,0,1.86-1v-6.07h1.9v8.45h-1.79Z"/><path class="cls-2" d="M197.2,504.28a.88.88,0,0,0-.41-.78,4.77,4.77,0,0,0-1.39-.47,6.74,6.74,0,0,1-1.62-.51,2.15,2.15,0,0,1-1.42-2,2.26,2.26,0,0,1,.92-1.83,3.67,3.67,0,0,1,2.35-.74,3.81,3.81,0,0,1,2.45.75,2.39,2.39,0,0,1,.93,2h-1.9a1.16,1.16,0,0,0-.41-.91,1.56,1.56,0,0,0-1.07-.36,1.69,1.69,0,0,0-1,.28.91.91,0,0,0-.4.78.76.76,0,0,0,.37.68,5.23,5.23,0,0,0,1.48.49,7.22,7.22,0,0,1,1.76.58,2.47,2.47,0,0,1,.94.82,2,2,0,0,1,.31,1.15,2.19,2.19,0,0,1-.94,1.85,4.05,4.05,0,0,1-2.48.71,4.37,4.37,0,0,1-1.85-.38,3,3,0,0,1-1.27-1,2.44,2.44,0,0,1-.45-1.41h1.84a1.34,1.34,0,0,0,.51,1,2.32,2.32,0,0,0,2.38.08A.88.88,0,0,0,197.2,504.28Z"/><path class="cls-2" d="M203.47,503l-.84.87v2.75h-1.9v-12h1.9v6.92l.59-.74,2.34-2.63h2.28l-3.14,3.52,3.47,4.93H206Z"/><path class="cls-2" d="M208.72,502.27a5,5,0,0,1,.49-2.24,3.66,3.66,0,0,1,1.38-1.53,3.9,3.9,0,0,1,2-.54,3.68,3.68,0,0,1,2.78,1.11,4.32,4.32,0,0,1,1.15,2.92v.44a5,5,0,0,1-.48,2.24,3.57,3.57,0,0,1-1.38,1.52,3.88,3.88,0,0,1-2.06.54,3.69,3.69,0,0,1-2.87-1.19,4.6,4.6,0,0,1-1.07-3.18Zm1.9.16a3.44,3.44,0,0,0,.54,2.05,1.75,1.75,0,0,0,1.5.73,1.72,1.72,0,0,0,1.49-.75,3.73,3.73,0,0,0,.54-2.19,3.33,3.33,0,0,0-.55-2,1.77,1.77,0,0,0-1.5-.75,1.71,1.71,0,0,0-1.47.74A3.62,3.62,0,0,0,210.62,502.43Z"/><path class="cls-2" d="M222.9,500.74l.55-5.54h5.69v.87h-4.88l-.4,3.84a3.67,3.67,0,0,1,2.14-.63,3.17,3.17,0,0,1,2.45,1,3.82,3.82,0,0,1,.92,2.67,4,4,0,0,1-.89,2.79,3.21,3.21,0,0,1-2.51,1,3.49,3.49,0,0,1-2.41-.83,3.39,3.39,0,0,1-1.05-2.32h.9a2.69,2.69,0,0,0,.79,1.76,2.5,2.5,0,0,0,1.77.6,2.23,2.23,0,0,0,1.84-.77,3.48,3.48,0,0,0,.62-2.21,3,3,0,0,0-.69-2,2.43,2.43,0,0,0-1.9-.78,3.65,3.65,0,0,0-1.16.16,3.25,3.25,0,0,0-1,.66Z"/><path class="cls-2" d="M231.09,508.7l-.56-.41a3.37,3.37,0,0,0,.74-2V505.1h.91v1A3.37,3.37,0,0,1,231.09,508.7Z"/><path class="cls-2" d="M241.06,501.83a6.26,6.26,0,0,1-.89,3.65,3.33,3.33,0,0,1-5.18,0,6.09,6.09,0,0,1-.93-3.56v-2a6.19,6.19,0,0,1,.89-3.63,3.37,3.37,0,0,1,5.18,0,6,6,0,0,1,.93,3.51Zm-.94-2a5.5,5.5,0,0,0-.64-3,2.35,2.35,0,0,0-3.83,0,5.33,5.33,0,0,0-.66,2.88v2.23a5.56,5.56,0,0,0,.66,3,2.3,2.3,0,0,0,3.82,0,5.58,5.58,0,0,0,.65-2.95Z"/><path class="cls-2" d="M246.74,497.39a2.37,2.37,0,0,1,.62-1.69,2.25,2.25,0,0,1,3.2,0,2.42,2.42,0,0,1,.63,1.73V498a2.36,2.36,0,0,1-.62,1.66,2.08,2.08,0,0,1-1.59.67,2.16,2.16,0,0,1-1.6-.65,2.38,2.38,0,0,1-.64-1.74Zm.75.59a1.76,1.76,0,0,0,.41,1.2,1.45,1.45,0,0,0,2.14,0,1.89,1.89,0,0,0,.39-1.23v-.57a1.73,1.73,0,0,0-.41-1.2,1.31,1.31,0,0,0-1.06-.47,1.33,1.33,0,0,0-1.06.47,1.84,1.84,0,0,0-.41,1.25Zm1.78,7.65-.58-.38,5.55-8.89.59.38Zm3.19-1.85a2.37,2.37,0,0,1,.63-1.68,2.1,2.1,0,0,1,1.59-.66,2.14,2.14,0,0,1,1.6.66,2.42,2.42,0,0,1,.64,1.74v.55a2.33,2.33,0,0,1-.63,1.68,2.08,2.08,0,0,1-1.59.67,2.13,2.13,0,0,1-1.6-.66,2.37,2.37,0,0,1-.64-1.73Zm.75.61a1.86,1.86,0,0,0,.4,1.21,1.37,1.37,0,0,0,1.09.47,1.3,1.3,0,0,0,1.06-.48,1.83,1.83,0,0,0,.4-1.24v-.57a1.82,1.82,0,0,0-.4-1.21,1.47,1.47,0,0,0-2.14,0,1.82,1.82,0,0,0-.41,1.24Z"/><path class="cls-2" d="M105.45,473.54h2v8a3.38,3.38,0,0,1-1,2.59,3.77,3.77,0,0,1-2.69,1,3.88,3.88,0,0,1-2.75-.9,3.23,3.23,0,0,1-1-2.5h2a1.88,1.88,0,0,0,.45,1.37,1.75,1.75,0,0,0,1.3.45A1.63,1.63,0,0,0,105,483a2.15,2.15,0,0,0,.47-1.46Z"/><path class="cls-2" d="M114.54,484.91a3,3,0,0,1-.21-.78,3.2,3.2,0,0,1-4.3.21,2.3,2.3,0,0,1-.81-1.79,2.41,2.41,0,0,1,1-2.08,4.87,4.87,0,0,1,2.87-.72h1.16v-.55a1.49,1.49,0,0,0-.36-1.05,1.45,1.45,0,0,0-1.12-.4,1.69,1.69,0,0,0-1.06.32,1,1,0,0,0-.42.83h-1.9a2.15,2.15,0,0,1,.46-1.3,3.05,3.05,0,0,1,1.26-1,4.4,4.4,0,0,1,1.77-.34,3.54,3.54,0,0,1,2.37.74,2.68,2.68,0,0,1,.9,2.1V483a4.37,4.37,0,0,0,.32,1.82v.13Zm-2.08-1.36a2.1,2.1,0,0,0,1.06-.28,1.74,1.74,0,0,0,.74-.73V481h-1a2.88,2.88,0,0,0-1.59.36,1.2,1.2,0,0,0-.53,1,1.07,1.07,0,0,0,.37.87A1.37,1.37,0,0,0,112.46,483.55Z"/><path class="cls-2" d="M125.55,480.77a5,5,0,0,1-.89,3.13,2.84,2.84,0,0,1-2.39,1.17,2.87,2.87,0,0,1-2.23-.91v4h-1.89v-11.7h1.75l.07.86a2.79,2.79,0,0,1,2.28-1,2.86,2.86,0,0,1,2.42,1.15,5.14,5.14,0,0,1,.88,3.2Zm-1.89-.16a3.6,3.6,0,0,0-.5-2,1.66,1.66,0,0,0-1.44-.74,1.76,1.76,0,0,0-1.68,1v3.75a1.77,1.77,0,0,0,1.69,1,1.63,1.63,0,0,0,1.42-.74A3.86,3.86,0,0,0,123.66,480.61Z"/><path class="cls-2" d="M126.8,480.61a5.11,5.11,0,0,1,.49-2.24,3.62,3.62,0,0,1,1.39-1.53,3.83,3.83,0,0,1,2-.53,3.68,3.68,0,0,1,2.78,1.1,4.28,4.28,0,0,1,1.15,2.92v.44a5,5,0,0,1-.48,2.24,3.61,3.61,0,0,1-1.37,1.52,3.94,3.94,0,0,1-2.07.54,3.67,3.67,0,0,1-2.86-1.19,4.54,4.54,0,0,1-1.08-3.18Zm1.9.16a3.44,3.44,0,0,0,.54,2.05,1.88,1.88,0,0,0,3,0,3.84,3.84,0,0,0,.53-2.2,3.35,3.35,0,0,0-.55-2,1.77,1.77,0,0,0-1.5-.75,1.71,1.71,0,0,0-1.47.74A3.62,3.62,0,0,0,128.7,480.77Z"/><path class="cls-2" d="M138,476.46l.05,1a3,3,0,0,1,2.46-1.13c1.76,0,2.66,1,2.69,3v5.58h-1.9v-5.47a1.73,1.73,0,0,0-.34-1.19,1.48,1.48,0,0,0-1.14-.39,1.82,1.82,0,0,0-1.71,1v6h-1.9v-8.45Z"/><path class="cls-2" d="M149.9,482.62a.88.88,0,0,0-.41-.78,4.63,4.63,0,0,0-1.39-.46,7.18,7.18,0,0,1-1.62-.52,2.15,2.15,0,0,1-1.42-2A2.26,2.26,0,0,1,146,477a3.66,3.66,0,0,1,2.35-.73,3.76,3.76,0,0,1,2.44.75,2.35,2.35,0,0,1,.94,1.94h-1.9a1.18,1.18,0,0,0-.41-.91,1.56,1.56,0,0,0-1.07-.36,1.62,1.62,0,0,0-1,.29.89.89,0,0,0-.4.77.76.76,0,0,0,.37.68,5.23,5.23,0,0,0,1.48.49,7.22,7.22,0,0,1,1.76.58,2.47,2.47,0,0,1,.94.82,2.05,2.05,0,0,1,.31,1.16,2.18,2.18,0,0,1-.94,1.84,4,4,0,0,1-2.48.71,4.37,4.37,0,0,1-1.85-.37,3.06,3.06,0,0,1-1.27-1,2.41,2.41,0,0,1-.45-1.41h1.84a1.38,1.38,0,0,0,.51,1,2,2,0,0,0,1.24.36,1.92,1.92,0,0,0,1.14-.29A.87.87,0,0,0,149.9,482.62Z"/><path class="cls-2" d="M156.17,481.29l-.84.87v2.75h-1.9v-12h1.9v6.93l.59-.75,2.34-2.63h2.28L157.4,480l3.47,4.93h-2.19Z"/><path class="cls-2" d="M161.42,480.61a5,5,0,0,1,.49-2.24,3.66,3.66,0,0,1,1.38-1.53,3.89,3.89,0,0,1,2.05-.53,3.68,3.68,0,0,1,2.78,1.1,4.32,4.32,0,0,1,1.15,2.92v.44a5,5,0,0,1-.48,2.24,3.57,3.57,0,0,1-1.38,1.52,3.88,3.88,0,0,1-2.06.54,3.69,3.69,0,0,1-2.87-1.19,4.58,4.58,0,0,1-1.07-3.18Zm1.9.16a3.44,3.44,0,0,0,.54,2.05,1.76,1.76,0,0,0,1.5.74,1.72,1.72,0,0,0,1.49-.75,3.76,3.76,0,0,0,.54-2.2,3.42,3.42,0,0,0-.55-2,1.77,1.77,0,0,0-1.5-.75,1.74,1.74,0,0,0-1.48.74A3.7,3.7,0,0,0,163.32,480.77Z"/><path class="cls-2" d="M177,478.72h1a3.25,3.25,0,0,0,1.41-.29,2.15,2.15,0,0,0,.92-.78,2.07,2.07,0,0,0,.31-1.14,2.31,2.31,0,0,0-.61-1.71,2.44,2.44,0,0,0-1.78-.62,2.58,2.58,0,0,0-1.79.64,2.2,2.2,0,0,0-.7,1.7h-.94a3,3,0,0,1,1.68-2.74,3.91,3.91,0,0,1,1.75-.4,3.37,3.37,0,0,1,2.44.85,3,3,0,0,1,.89,2.31,2.43,2.43,0,0,1-.52,1.51,3.16,3.16,0,0,1-1.42,1,2.89,2.89,0,0,1,1.61,1,2.78,2.78,0,0,1,.54,1.72,3.08,3.08,0,0,1-1,2.35,3.62,3.62,0,0,1-2.55.89,4.09,4.09,0,0,1-1.86-.41,3,3,0,0,1-1.31-1.13,3.12,3.12,0,0,1-.47-1.7h.94a2.27,2.27,0,0,0,.76,1.77,2.8,2.8,0,0,0,1.94.68,2.71,2.71,0,0,0,1.89-.62,2.31,2.31,0,0,0,.67-1.8,2.11,2.11,0,0,0-.73-1.74,3.3,3.3,0,0,0-2.15-.6H177Z"/><path class="cls-2" d="M183.79,487l-.56-.41a3.37,3.37,0,0,0,.74-2v-1.21h.91v1A3.35,3.35,0,0,1,183.79,487Z"/><path class="cls-2" d="M189,478.72h1a3.25,3.25,0,0,0,1.41-.29,2.15,2.15,0,0,0,.92-.78,2.07,2.07,0,0,0,.31-1.14,2.31,2.31,0,0,0-.61-1.71,2.44,2.44,0,0,0-1.78-.62,2.58,2.58,0,0,0-1.79.64,2.2,2.2,0,0,0-.7,1.7h-.94a3,3,0,0,1,1.68-2.74,3.91,3.91,0,0,1,1.75-.4,3.37,3.37,0,0,1,2.44.85,3,3,0,0,1,.89,2.31,2.43,2.43,0,0,1-.52,1.51,3.16,3.16,0,0,1-1.42,1,2.83,2.83,0,0,1,1.6,1,2.72,2.72,0,0,1,.55,1.72,3.08,3.08,0,0,1-.95,2.35,3.62,3.62,0,0,1-2.55.89,4.09,4.09,0,0,1-1.86-.41,3,3,0,0,1-1.31-1.13,3.12,3.12,0,0,1-.47-1.7h.94a2.27,2.27,0,0,0,.76,1.77,2.8,2.8,0,0,0,1.94.68,2.71,2.71,0,0,0,1.89-.62,2.31,2.31,0,0,0,.67-1.8,2.11,2.11,0,0,0-.73-1.74,3.3,3.3,0,0,0-2.15-.6H189Z"/><path class="cls-2" d="M199.43,475.73a2.38,2.38,0,0,1,.63-1.69,2.27,2.27,0,0,1,3.2,0,2.44,2.44,0,0,1,.63,1.73v.56a2.38,2.38,0,0,1-.62,1.67,2.27,2.27,0,0,1-3.19,0,2.39,2.39,0,0,1-.65-1.74Zm.76.6a1.8,1.8,0,0,0,.4,1.19,1.46,1.46,0,0,0,2.15,0,1.87,1.87,0,0,0,.39-1.23v-.57a1.8,1.8,0,0,0-.41-1.2,1.43,1.43,0,0,0-2.12,0,1.84,1.84,0,0,0-.41,1.25ZM202,484l-.58-.38,5.55-8.89.59.38Zm3.19-1.84a2.33,2.33,0,0,1,.63-1.68,2.08,2.08,0,0,1,1.59-.67,2.14,2.14,0,0,1,1.6.66,2.42,2.42,0,0,1,.63,1.74v.55a2.37,2.37,0,0,1-.62,1.68,2.08,2.08,0,0,1-1.59.67,2.13,2.13,0,0,1-1.6-.66,2.36,2.36,0,0,1-.64-1.72Zm.75.6a1.86,1.86,0,0,0,.4,1.21,1.37,1.37,0,0,0,1.09.47,1.3,1.3,0,0,0,1.06-.48,1.88,1.88,0,0,0,.4-1.24v-.57a1.77,1.77,0,0,0-.41-1.21,1.35,1.35,0,0,0-1.07-.46,1.34,1.34,0,0,0-1.06.47,1.79,1.79,0,0,0-.41,1.23Z"/><path class="cls-2" d="M66.23,448.63h2v8a3.4,3.4,0,0,1-1,2.6,3.77,3.77,0,0,1-2.69,1,3.88,3.88,0,0,1-2.75-.9,3.23,3.23,0,0,1-1-2.5h2a1.86,1.86,0,0,0,.45,1.36,1.72,1.72,0,0,0,1.3.46,1.64,1.64,0,0,0,1.27-.53,2.11,2.11,0,0,0,.47-1.45Z"/><path class="cls-2" d="M70.28,449.35a1,1,0,0,1,.27-.72,1.07,1.07,0,0,1,.8-.29,1,1,0,0,1,.79.29,1.07,1.07,0,0,1,0,1.44,1,1,0,0,1-.79.28,1.07,1.07,0,0,1-.8-.28A1,1,0,0,1,70.28,449.35Zm2,10.65h-1.9v-8.45h1.9Z"/><path class="cls-2" d="M76.38,458.49h4.5V460H74v-1.24l4.28-5.68H74.1v-1.53h6.62v1.2Zm1-9.28L78.56,448h1.63v.08L78,450.25H76.84l-2.17-2.18V448h1.61Z"/><path class="cls-2" d="M84.17,451.55l0,1a3,3,0,0,1,2.46-1.14c1.76,0,2.66,1,2.69,3V460h-1.9v-5.47a1.77,1.77,0,0,0-.35-1.2A1.48,1.48,0,0,0,86,453a1.81,1.81,0,0,0-1.71,1v6h-1.9v-8.45Z"/><path class="cls-2" d="M93.35,460h-1.9v-8.45h1.9ZM93,448.06h2.16L93,450.42H91.46Z"/><path class="cls-2" d="M102.94,455.09l-1.29,1.37V460h-2V448.63h2V454l1.09-1.35,3.33-4h2.39l-4.22,5,4.47,6.33h-2.35Z"/><path class="cls-2" d="M109,455.7a5,5,0,0,1,.49-2.24,3.61,3.61,0,0,1,1.38-1.53,3.9,3.9,0,0,1,2.05-.54,3.71,3.71,0,0,1,2.78,1.1,4.37,4.37,0,0,1,1.15,2.93v.44a5.08,5.08,0,0,1-.48,2.24,3.57,3.57,0,0,1-1.38,1.52,3.88,3.88,0,0,1-2.06.54,3.69,3.69,0,0,1-2.87-1.19,4.62,4.62,0,0,1-1.07-3.18Zm1.9.16a3.39,3.39,0,0,0,.54,2,1.74,1.74,0,0,0,1.5.74,1.72,1.72,0,0,0,1.49-.75,3.73,3.73,0,0,0,.54-2.19,3.33,3.33,0,0,0-.55-2,1.77,1.77,0,0,0-1.5-.75,1.72,1.72,0,0,0-1.47.73A3.68,3.68,0,0,0,110.91,455.86Z"/><path class="cls-2" d="M122.9,453.28a4.9,4.9,0,0,0-.77-.06,1.74,1.74,0,0,0-1.76,1V460h-1.9v-8.45h1.81l0,.94a2.15,2.15,0,0,1,1.91-1.1,1.84,1.84,0,0,1,.67.11Z"/><path class="cls-2" d="M127.82,460.16A3.9,3.9,0,0,1,124.9,459a4.11,4.11,0,0,1-1.12-3v-.23a5.14,5.14,0,0,1,.48-2.26,3.77,3.77,0,0,1,1.37-1.55,3.64,3.64,0,0,1,2-.56,3.34,3.34,0,0,1,2.67,1.1,4.67,4.67,0,0,1,.94,3.12v.77h-5.52a2.51,2.51,0,0,0,.7,1.65,2.08,2.08,0,0,0,1.54.61,2.59,2.59,0,0,0,2.13-1.05l1,1a3.45,3.45,0,0,1-1.36,1.17A4.18,4.18,0,0,1,127.82,460.16Zm-.22-7.24a1.61,1.61,0,0,0-1.27.54,2.89,2.89,0,0,0-.61,1.53h3.62v-.14a2.31,2.31,0,0,0-.51-1.45A1.6,1.6,0,0,0,127.6,452.92Z"/><path class="cls-2" d="M137.74,460a2.56,2.56,0,0,1-.22-.79,3.19,3.19,0,0,1-4.3.22,2.29,2.29,0,0,1-.8-1.79,2.39,2.39,0,0,1,1-2.08,4.89,4.89,0,0,1,2.87-.72h1.17v-.56a1.53,1.53,0,0,0-.37-1,1.48,1.48,0,0,0-1.12-.39,1.69,1.69,0,0,0-1.06.32,1,1,0,0,0-.42.83H132.6a2.07,2.07,0,0,1,.46-1.3,3,3,0,0,1,1.25-.95,4.4,4.4,0,0,1,1.77-.35,3.54,3.54,0,0,1,2.37.75,2.64,2.64,0,0,1,.9,2.1v3.81a4.37,4.37,0,0,0,.32,1.82V460Zm-2.09-1.36a2.18,2.18,0,0,0,1.06-.28,1.82,1.82,0,0,0,.75-.73V456h-1a2.81,2.81,0,0,0-1.58.37,1.19,1.19,0,0,0-.54,1,1.12,1.12,0,0,0,.37.87A1.37,1.37,0,0,0,135.65,458.64Z"/><path class="cls-2" d="M149.78,460h-.94V449.75l-3.1,1.15V450l3.88-1.44h.16Z"/><path class="cls-2" d="M154.24,462.13l-.55-.41a3.36,3.36,0,0,0,.73-2v-1.21h.92v1A3.38,3.38,0,0,1,154.24,462.13Z"/><path class="cls-2" d="M163.19,454.74a3.43,3.43,0,0,1-1.24,1.13,3.32,3.32,0,0,1-1.61.41,3,3,0,0,1-1.71-.5,3.29,3.29,0,0,1-1.15-1.39,4.57,4.57,0,0,1-.41-1.93,4.69,4.69,0,0,1,.44-2,3.37,3.37,0,0,1,1.21-1.44,3.49,3.49,0,0,1,4.45.69,5.31,5.31,0,0,1,1,3.4v.85a7,7,0,0,1-1.32,4.62,5,5,0,0,1-4,1.55h-.18v-.81H159a4.15,4.15,0,0,0,3.1-1.16A5,5,0,0,0,163.19,454.74Zm-2.73.72a2.75,2.75,0,0,0,1.68-.55,3.07,3.07,0,0,0,1.06-1.45v-.54a4.29,4.29,0,0,0-.73-2.68,2.3,2.3,0,0,0-1.94-1,2.21,2.21,0,0,0-1.82.9,3.44,3.44,0,0,0-.72,2.24,3.36,3.36,0,0,0,.69,2.17A2.15,2.15,0,0,0,160.46,455.46Z"/><path class="cls-2" d="M169.89,450.82a2.38,2.38,0,0,1,.63-1.69,2.25,2.25,0,0,1,3.2,0,2.42,2.42,0,0,1,.63,1.73v.56a2.32,2.32,0,0,1-.63,1.66,2,2,0,0,1-1.59.67,2.17,2.17,0,0,1-1.6-.65,2.42,2.42,0,0,1-.64-1.74Zm.76.59a1.76,1.76,0,0,0,.4,1.2,1.36,1.36,0,0,0,1.08.47,1.31,1.31,0,0,0,1.06-.47,1.84,1.84,0,0,0,.4-1.23v-.57a1.76,1.76,0,0,0-.41-1.2,1.31,1.31,0,0,0-1.06-.47,1.32,1.32,0,0,0-1.06.47,1.84,1.84,0,0,0-.41,1.25Zm1.78,7.65-.58-.38,5.55-8.89.59.38Zm3.19-1.85a2.37,2.37,0,0,1,.63-1.68,2.1,2.1,0,0,1,1.59-.66,2.14,2.14,0,0,1,1.6.66,2.42,2.42,0,0,1,.63,1.74v.55a2.33,2.33,0,0,1-.63,1.68,2.23,2.23,0,0,1-3.18,0,2.37,2.37,0,0,1-.64-1.73Zm.75.61a1.76,1.76,0,0,0,.4,1.2,1.33,1.33,0,0,0,1.08.47,1.3,1.3,0,0,0,1.07-.47,1.88,1.88,0,0,0,.39-1.24v-.57a1.77,1.77,0,0,0-.4-1.21,1.34,1.34,0,0,0-1.07-.46,1.36,1.36,0,0,0-1.06.46,1.77,1.77,0,0,0-.41,1.24Z"/><path class="cls-2" d="M76.85,430.18l-1.29,1.36v3.55h-2V423.72h2v5.33l1.09-1.35,3.33-4h2.39l-4.22,5,4.47,6.33H80.27Z"/><path class="cls-2" d="M88.54,435.09a2.56,2.56,0,0,1-.22-.79,3.19,3.19,0,0,1-4.3.22,2.33,2.33,0,0,1-.8-1.8,2.39,2.39,0,0,1,1-2.07,4.89,4.89,0,0,1,2.87-.72h1.17v-.56a1.51,1.51,0,0,0-.37-1.05,1.48,1.48,0,0,0-1.12-.39,1.71,1.71,0,0,0-1.06.32,1,1,0,0,0-.41.83H83.4a2.11,2.11,0,0,1,.46-1.31,3,3,0,0,1,1.25-.94,4.4,4.4,0,0,1,1.77-.35,3.54,3.54,0,0,1,2.37.75,2.63,2.63,0,0,1,.9,2.1v3.81a4.37,4.37,0,0,0,.32,1.82v.13Zm-2.09-1.37a2.17,2.17,0,0,0,1.06-.27,1.88,1.88,0,0,0,.75-.73v-1.6h-1a2.73,2.73,0,0,0-1.58.37,1.17,1.17,0,0,0-.53,1,1.12,1.12,0,0,0,.36.87A1.39,1.39,0,0,0,86.45,433.72Z"/><path class="cls-2" d="M93.9,426.64l.06,1a3,3,0,0,1,2.46-1.13c1.76,0,2.66,1,2.69,3v5.58h-1.9v-5.48a1.76,1.76,0,0,0-.35-1.19,1.49,1.49,0,0,0-1.14-.38,1.83,1.83,0,0,0-1.71,1v6H92.12v-8.45Z"/><path class="cls-2" d="M106.09,435.09a3.3,3.3,0,0,1-.22-.79,3.17,3.17,0,0,1-4.29.22,2.31,2.31,0,0,1-.81-1.8,2.39,2.39,0,0,1,1-2.07,4.84,4.84,0,0,1,2.87-.72h1.16v-.56a1.46,1.46,0,0,0-.37-1.05,1.44,1.44,0,0,0-1.11-.39,1.72,1.72,0,0,0-1.07.32,1,1,0,0,0-.41.83H101a2.11,2.11,0,0,1,.46-1.31,3.12,3.12,0,0,1,1.26-.94,4.33,4.33,0,0,1,1.77-.35,3.53,3.53,0,0,1,2.36.75,2.67,2.67,0,0,1,.91,2.1v3.81A4.37,4.37,0,0,0,108,435v.13ZM104,433.72a2.16,2.16,0,0,0,1-.27,1.82,1.82,0,0,0,.75-.73v-1.6h-1a2.77,2.77,0,0,0-1.59.37,1.19,1.19,0,0,0-.53,1,1.12,1.12,0,0,0,.36.87A1.41,1.41,0,0,0,104,433.72Z"/><path class="cls-2" d="M109.34,430.8a5,5,0,0,1,.91-3.13,2.9,2.9,0,0,1,2.43-1.19,2.75,2.75,0,0,1,2.17.94v-4.33h1.9v12H115l-.09-.87a2.83,2.83,0,0,1-2.28,1,2.88,2.88,0,0,1-2.4-1.2A5.21,5.21,0,0,1,109.34,430.8Zm1.9.17a3.51,3.51,0,0,0,.5,2,1.61,1.61,0,0,0,1.41.72,1.8,1.8,0,0,0,1.7-1v-3.61a1.77,1.77,0,0,0-1.69-1,1.61,1.61,0,0,0-1.42.73A3.93,3.93,0,0,0,111.24,431Z"/><path class="cls-2" d="M123.78,435.09a2.88,2.88,0,0,1-.22-.79,3.19,3.19,0,0,1-4.3.22,2.33,2.33,0,0,1-.8-1.8,2.39,2.39,0,0,1,1-2.07,4.89,4.89,0,0,1,2.87-.72h1.17v-.56a1.33,1.33,0,0,0-1.49-1.44,1.71,1.71,0,0,0-1.06.32,1,1,0,0,0-.41.83h-1.9a2.11,2.11,0,0,1,.46-1.31,3.09,3.09,0,0,1,1.25-.94,4.4,4.4,0,0,1,1.77-.35,3.54,3.54,0,0,1,2.37.75,2.67,2.67,0,0,1,.91,2.1v3.81a4.21,4.21,0,0,0,.32,1.82v.13Zm-2.09-1.37a2.17,2.17,0,0,0,1.06-.27,1.88,1.88,0,0,0,.75-.73v-1.6h-1a2.73,2.73,0,0,0-1.58.37,1.17,1.17,0,0,0-.53,1,1.12,1.12,0,0,0,.36.87A1.39,1.39,0,0,0,121.69,433.72Z"/><path class="cls-2" d="M135.82,435.09h-.94V424.84L131.79,426v-.88l3.87-1.43h.16Z"/><path class="cls-2" d="M140.29,437.22l-.56-.41a3.4,3.4,0,0,0,.74-2v-1.21h.91v1A3.37,3.37,0,0,1,140.29,437.22Z"/><path class="cls-2" d="M150.4,424.26l-4.85,10.83h-1l4.83-10.58h-6.47v-.79h7.47Z"/><path class="cls-2" d="M155.94,425.9a2.4,2.4,0,0,1,.62-1.68,2.25,2.25,0,0,1,3.2,0,2.42,2.42,0,0,1,.63,1.73v.56a2.36,2.36,0,0,1-.62,1.66,2.08,2.08,0,0,1-1.59.67,2.16,2.16,0,0,1-1.6-.65,2.38,2.38,0,0,1-.64-1.74Zm.75.6a1.76,1.76,0,0,0,.41,1.2,1.45,1.45,0,0,0,2.14,0,1.89,1.89,0,0,0,.39-1.23v-.57a1.72,1.72,0,0,0-.41-1.2,1.32,1.32,0,0,0-1.06-.48,1.37,1.37,0,0,0-1.06.47,1.87,1.87,0,0,0-.41,1.26Zm1.78,7.65-.58-.38,5.55-8.89.59.38Zm3.19-1.85a2.37,2.37,0,0,1,.63-1.68,2.1,2.1,0,0,1,1.59-.66,2.14,2.14,0,0,1,1.6.66,2.42,2.42,0,0,1,.64,1.74v.55a2.33,2.33,0,0,1-.63,1.68,2.25,2.25,0,0,1-3.19,0,2.39,2.39,0,0,1-.64-1.73Zm.75.61a1.81,1.81,0,0,0,.4,1.2,1.34,1.34,0,0,0,1.09.47,1.29,1.29,0,0,0,1.06-.47,1.85,1.85,0,0,0,.4-1.24v-.57a1.8,1.8,0,0,0-.4-1.21,1.36,1.36,0,0,0-1.08-.46,1.33,1.33,0,0,0-1.06.46,1.82,1.82,0,0,0-.41,1.24Z"/><path class="cls-2" d="M62.19,410.18V398.8h3.9a4.73,4.73,0,0,1,2.94.78,2.72,2.72,0,0,1,1,2.3,2.49,2.49,0,0,1-.42,1.41,2.72,2.72,0,0,1-1.24,1,2.49,2.49,0,0,1,1.43.94,2.77,2.77,0,0,1,.5,1.66,3,3,0,0,1-1,2.46,4.46,4.46,0,0,1-2.94.86Zm2-6.59h1.94a2.3,2.3,0,0,0,1.44-.41,1.44,1.44,0,0,0,.52-1.19,1.46,1.46,0,0,0-.48-1.22,2.44,2.44,0,0,0-1.5-.37H64.17Zm0,1.46v3.55h2.2a2.1,2.1,0,0,0,1.45-.46,1.82,1.82,0,0,0-1.29-3.09Z"/><path class="cls-2" d="M76.53,403.46a4.9,4.9,0,0,0-.77-.06,1.74,1.74,0,0,0-1.76,1v5.78H72.1v-8.45h1.81l0,.94a2.15,2.15,0,0,1,1.91-1.1,1.84,1.84,0,0,1,.67.11Z"/><path class="cls-2" d="M82.55,410.18a2.65,2.65,0,0,1-.22-.79,3,3,0,0,1-2.22.95,3,3,0,0,1-2.08-.73,2.31,2.31,0,0,1-.8-1.8,2.39,2.39,0,0,1,1-2.07A4.89,4.89,0,0,1,81.1,405h1.16v-.56A1.31,1.31,0,0,0,80.78,403a1.63,1.63,0,0,0-1.06.32,1,1,0,0,0-.42.82H77.41a2.11,2.11,0,0,1,.46-1.3,3,3,0,0,1,1.25-.95,4.4,4.4,0,0,1,1.77-.34,3.54,3.54,0,0,1,2.37.75,2.61,2.61,0,0,1,.9,2.09v3.82a4.4,4.4,0,0,0,.32,1.82v.13Zm-2.09-1.37a2.17,2.17,0,0,0,1.06-.27,1.76,1.76,0,0,0,.74-.74v-1.59h-1a2.73,2.73,0,0,0-1.58.37,1.18,1.18,0,0,0-.54,1,1.13,1.13,0,0,0,.37.87A1.42,1.42,0,0,0,80.46,408.81Z"/><path class="cls-2" d="M88.18,408.66h4.5v1.52H85.82v-1.24l4.29-5.68H85.9v-1.53h6.61v1.2Z"/><path class="cls-2" d="M96.24,410.18h-1.9v-8.45h1.9Zm-.36-11.95h2.17l-2.17,2.37H94.36Z"/><path class="cls-2" d="M100.42,410.18h-1.9v-12h1.9Z"/><path class="cls-2" d="M102.49,399.53a1,1,0,0,1,.28-.73,1,1,0,0,1,.79-.28,1.07,1.07,0,0,1,.8.28,1,1,0,0,1,.28.73,1,1,0,0,1-.28.72,1.07,1.07,0,0,1-.8.28,1,1,0,0,1-.79-.28A1,1,0,0,1,102.49,399.53Zm2,10.65h-1.9v-8.45h1.9Z"/><path class="cls-2" d="M110.3,410.34a3.92,3.92,0,0,1-2.93-1.14,4.12,4.12,0,0,1-1.12-3v-.23a5,5,0,0,1,.49-2.26,3.66,3.66,0,0,1,1.37-1.56,3.61,3.61,0,0,1,2-.55,3.34,3.34,0,0,1,2.67,1.1,4.71,4.71,0,0,1,.94,3.12v.76h-5.53a2.56,2.56,0,0,0,.7,1.66,2.1,2.1,0,0,0,1.55.61,2.57,2.57,0,0,0,2.12-1.05l1,1a3.43,3.43,0,0,1-1.35,1.18A4.24,4.24,0,0,1,110.3,410.34Zm-.23-7.25a1.61,1.61,0,0,0-1.26.55,2.83,2.83,0,0,0-.62,1.52h3.62V405a2.3,2.3,0,0,0-.51-1.44A1.58,1.58,0,0,0,110.07,403.09Z"/><path class="cls-2" d="M123.59,410.18h-.93V399.93l-3.1,1.15v-.88l3.88-1.43h.15Z"/><path class="cls-2" d="M128.06,412.3l-.55-.4a3.41,3.41,0,0,0,.73-2v-1.21h.92v1A3.35,3.35,0,0,1,128.06,412.3Z"/><path class="cls-2" d="M133.25,404h1a3.24,3.24,0,0,0,1.4-.28,2,2,0,0,0,1.24-1.93,2.31,2.31,0,0,0-.62-1.71,2.4,2.4,0,0,0-1.77-.62,2.57,2.57,0,0,0-1.8.65,2.22,2.22,0,0,0-.69,1.7H131a3.06,3.06,0,0,1,.44-1.61,3,3,0,0,1,1.24-1.13,3.76,3.76,0,0,1,1.75-.4,3.43,3.43,0,0,1,2.44.84,3,3,0,0,1,.89,2.31,2.52,2.52,0,0,1-.52,1.52,3.17,3.17,0,0,1-1.43,1,2.93,2.93,0,0,1,1.61,1,2.81,2.81,0,0,1,.55,1.72,3,3,0,0,1-1,2.35,3.54,3.54,0,0,1-2.54.9,4.3,4.3,0,0,1-1.87-.41,3.11,3.11,0,0,1-1.31-1.14,3.07,3.07,0,0,1-.46-1.7h.93a2.28,2.28,0,0,0,.76,1.77,2.78,2.78,0,0,0,1.95.69,2.7,2.7,0,0,0,1.88-.62,2.35,2.35,0,0,0,.68-1.81,2.11,2.11,0,0,0-.73-1.74,3.34,3.34,0,0,0-2.15-.6h-.94Z"/><path class="cls-2" d="M143.71,401a2.35,2.35,0,0,1,.63-1.68,2.23,2.23,0,0,1,3.19,0,2.41,2.41,0,0,1,.63,1.73v.55a2.32,2.32,0,0,1-.62,1.67,2,2,0,0,1-1.59.67,2.14,2.14,0,0,1-1.6-.66,2.34,2.34,0,0,1-.64-1.73Zm.76.6a1.78,1.78,0,0,0,.4,1.2,1.36,1.36,0,0,0,1.08.47,1.3,1.3,0,0,0,1.06-.48,1.85,1.85,0,0,0,.4-1.22V401a1.76,1.76,0,0,0-.41-1.2,1.42,1.42,0,0,0-2.12,0,1.81,1.81,0,0,0-.41,1.25Zm1.78,7.64-.59-.37,5.56-8.89.58.37Zm3.19-1.84a2.33,2.33,0,0,1,.63-1.68,2.07,2.07,0,0,1,1.59-.66,2.1,2.1,0,0,1,1.59.66,2.37,2.37,0,0,1,.64,1.73V408a2.33,2.33,0,0,1-.63,1.68,2.1,2.1,0,0,1-1.59.66,2.14,2.14,0,0,1-1.6-.66,2.38,2.38,0,0,1-.63-1.72Zm.75.61a1.76,1.76,0,0,0,.4,1.2,1.46,1.46,0,0,0,2.15,0,1.9,1.9,0,0,0,.39-1.24v-.57a1.73,1.73,0,0,0-.4-1.21,1.47,1.47,0,0,0-2.14,0,1.81,1.81,0,0,0-.4,1.24Z"/><path class="cls-2" d="M13.86,382.79l2.89-8.9h2.17l-4.09,11.38H12.91L8.83,373.89H11Z"/><path class="cls-2" d="M23.74,385.42a3.93,3.93,0,0,1-2.93-1.13,4.16,4.16,0,0,1-1.12-3V381a5.18,5.18,0,0,1,.49-2.27,3.76,3.76,0,0,1,1.37-1.55,3.64,3.64,0,0,1,2-.55,3.34,3.34,0,0,1,2.67,1.1,4.63,4.63,0,0,1,.94,3.12v.76H21.61a2.51,2.51,0,0,0,.7,1.66,2.08,2.08,0,0,0,1.54.61A2.54,2.54,0,0,0,26,382.85l1,1A3.39,3.39,0,0,1,25.64,385,4.34,4.34,0,0,1,23.74,385.42Zm-.23-7.24a1.58,1.58,0,0,0-1.26.55,2.82,2.82,0,0,0-.61,1.52h3.62v-.14a2.36,2.36,0,0,0-.51-1.44A1.62,1.62,0,0,0,23.51,378.18Z"/><path class="cls-2" d="M30.62,385.27h-1.9v-12h1.9Z"/><path class="cls-2" d="M35.44,381.64l-.85.87v2.76h-1.9v-12h1.9v6.92l.6-.74,2.33-2.63H39.8l-3.14,3.52,3.48,4.93h-2.2Z"/><path class="cls-2" d="M46.09,385.27a3.45,3.45,0,0,1-.22-.79,2.94,2.94,0,0,1-2.22.94,3,3,0,0,1-2.07-.72,2.34,2.34,0,0,1-.81-1.8,2.39,2.39,0,0,1,1-2.07,4.84,4.84,0,0,1,2.87-.73h1.16v-.55a1.34,1.34,0,0,0-1.48-1.45,1.67,1.67,0,0,0-1.07.33,1,1,0,0,0-.41.82H41a2.11,2.11,0,0,1,.46-1.3,3.14,3.14,0,0,1,1.26-.95,4.33,4.33,0,0,1,1.77-.34,3.58,3.58,0,0,1,2.36.74,2.68,2.68,0,0,1,.91,2.1v3.82a4.4,4.4,0,0,0,.32,1.82v.13ZM44,383.9a2.16,2.16,0,0,0,1.05-.27,1.84,1.84,0,0,0,.75-.74V381.3h-1a2.77,2.77,0,0,0-1.59.37,1.19,1.19,0,0,0-.53,1,1.12,1.12,0,0,0,.36.87A1.46,1.46,0,0,0,44,383.9Zm1.05-10.63h2.16l-2.16,2.37H43.54Z"/><path class="cls-2" d="M53.87,385.27V373.89h3.89a4.73,4.73,0,0,1,2.94.78,2.72,2.72,0,0,1,1,2.3,2.49,2.49,0,0,1-.42,1.41,2.79,2.79,0,0,1-1.24,1,2.49,2.49,0,0,1,1.43.94A2.77,2.77,0,0,1,62,382a3,3,0,0,1-1,2.46,4.51,4.51,0,0,1-3,.86Zm2-6.59h1.94a2.24,2.24,0,0,0,1.44-.42,1.4,1.4,0,0,0,.52-1.18,1.46,1.46,0,0,0-.48-1.22,2.44,2.44,0,0,0-1.5-.37H55.84Zm0,1.46v3.55H58a2.1,2.1,0,0,0,1.45-.46,1.82,1.82,0,0,0-1.29-3.09Z"/><path class="cls-2" d="M68.2,378.55a4.9,4.9,0,0,0-.77-.06,1.74,1.74,0,0,0-1.76,1v5.78h-1.9v-8.45h1.81l0,.94a2.15,2.15,0,0,1,1.91-1.1,1.65,1.65,0,0,1,.67.11Z"/><path class="cls-2" d="M69.4,374.62a1,1,0,0,1,1.07-1,1.07,1.07,0,0,1,.8.29,1,1,0,0,1,.28.73,1,1,0,0,1-.28.71,1.23,1.23,0,0,1-1.59,0A1,1,0,0,1,69.4,374.62Zm2,10.65h-1.9v-8.45h1.9Z"/><path class="cls-2" d="M75.87,374.76v2.06h1.49v1.4H75.87v4.72a1,1,0,0,0,.19.7.88.88,0,0,0,.68.21,3,3,0,0,0,.66-.07v1.46a4.61,4.61,0,0,1-1.25.18c-1.45,0-2.18-.8-2.18-2.41v-4.79H72.58v-1.4H74v-2.06Z"/><path class="cls-2" d="M83.86,385.27a2.65,2.65,0,0,1-.22-.79,3,3,0,0,1-2.22.94,3,3,0,0,1-2.08-.72,2.36,2.36,0,0,1-.8-1.8,2.39,2.39,0,0,1,1-2.07,4.88,4.88,0,0,1,2.87-.73h1.17v-.55a1.34,1.34,0,0,0-1.49-1.45,1.66,1.66,0,0,0-1.06.33,1,1,0,0,0-.41.82h-1.9a2.11,2.11,0,0,1,.46-1.3,3.11,3.11,0,0,1,1.25-.95,4.4,4.4,0,0,1,1.77-.34,3.59,3.59,0,0,1,2.37.74,2.64,2.64,0,0,1,.9,2.1v3.82a4.23,4.23,0,0,0,.33,1.82v.13Zm-2.09-1.37a2.17,2.17,0,0,0,1.06-.27,1.91,1.91,0,0,0,.75-.74V381.3h-1a2.73,2.73,0,0,0-1.58.37,1.17,1.17,0,0,0-.53,1,1.12,1.12,0,0,0,.36.87A1.44,1.44,0,0,0,81.77,383.9Zm1.06-10.63H85l-2.16,2.37H81.3Z"/><path class="cls-2" d="M89.22,376.82l.06,1a3,3,0,0,1,2.46-1.13c1.76,0,2.66,1,2.69,3v5.59h-1.9v-5.48a1.76,1.76,0,0,0-.35-1.19,1.45,1.45,0,0,0-1.13-.39,1.85,1.85,0,0,0-1.72,1v6H87.44v-8.45Z"/><path class="cls-2" d="M96.37,374.62a1,1,0,0,1,.27-.73,1.07,1.07,0,0,1,.8-.29,1,1,0,0,1,.79.29,1,1,0,0,1,.28.73,1,1,0,0,1-.28.71,1,1,0,0,1-.79.29,1.07,1.07,0,0,1-.8-.29A1,1,0,0,1,96.37,374.62Zm2,10.65h-1.9v-8.45h1.9Z"/><path class="cls-2" d="M104.17,385.42a3.93,3.93,0,0,1-2.93-1.13,4.16,4.16,0,0,1-1.12-3V381a5.18,5.18,0,0,1,.49-2.27,3.76,3.76,0,0,1,1.37-1.55,3.64,3.64,0,0,1,2-.55,3.34,3.34,0,0,1,2.67,1.1,4.63,4.63,0,0,1,.94,3.12v.76H102a2.51,2.51,0,0,0,.7,1.66,2.08,2.08,0,0,0,1.54.61,2.54,2.54,0,0,0,2.12-1.06l1,1a3.39,3.39,0,0,1-1.36,1.18A4.34,4.34,0,0,1,104.17,385.42Zm-.23-7.24a1.58,1.58,0,0,0-1.26.55,2.82,2.82,0,0,0-.61,1.52h3.62v-.14a2.42,2.42,0,0,0-.51-1.44A1.62,1.62,0,0,0,103.94,378.18Z"/><path class="cls-2" d="M117.47,385.27h-.94V375l-3.09,1.15v-.88l3.87-1.44h.16Z"/><path class="cls-2" d="M121.94,387.39l-.56-.4a3.5,3.5,0,0,0,.74-2V383.8H123v1A3.38,3.38,0,0,1,121.94,387.39Z"/><path class="cls-2" d="M129.4,385.27h-.94V375l-3.09,1.15v-.88l3.87-1.44h.16Z"/><path class="cls-2" d="M137.58,376.08a2.33,2.33,0,0,1,.63-1.68,2.25,2.25,0,0,1,3.2,0,2.41,2.41,0,0,1,.63,1.73v.55a2.38,2.38,0,0,1-.62,1.67,2.08,2.08,0,0,1-1.59.67,2.16,2.16,0,0,1-1.61-.66,2.4,2.4,0,0,1-.64-1.73Zm.76.6a1.85,1.85,0,0,0,.4,1.2,1.37,1.37,0,0,0,1.09.47,1.28,1.28,0,0,0,1-.48,1.79,1.79,0,0,0,.4-1.22v-.57a1.81,1.81,0,0,0-.41-1.21,1.34,1.34,0,0,0-1.06-.47,1.37,1.37,0,0,0-1.06.47,1.84,1.84,0,0,0-.41,1.25Zm1.78,7.64-.58-.37,5.55-8.89.59.37Zm3.19-1.84a2.33,2.33,0,0,1,.63-1.68,2.1,2.1,0,0,1,1.59-.66,2.14,2.14,0,0,1,1.6.66,2.41,2.41,0,0,1,.63,1.73v.56a2.33,2.33,0,0,1-.63,1.68,2.07,2.07,0,0,1-1.58.66,2.11,2.11,0,0,1-1.6-.66,2.35,2.35,0,0,1-.64-1.72Zm.75.61a1.76,1.76,0,0,0,.4,1.2,1.37,1.37,0,0,0,1.09.47,1.32,1.32,0,0,0,1.06-.47,1.9,1.9,0,0,0,.4-1.24v-.58a1.73,1.73,0,0,0-.41-1.2,1.46,1.46,0,0,0-2.13,0,1.82,1.82,0,0,0-.41,1.24Z"/><path class="cls-2" d="M53.94,355a7.06,7.06,0,0,1-.57,2.93,4.4,4.4,0,0,1-1.66,1.94,4.87,4.87,0,0,1-4.93,0,4.47,4.47,0,0,1-1.68-1.93,6.7,6.7,0,0,1-.59-2.88v-.64a6.83,6.83,0,0,1,.59-2.94,4.37,4.37,0,0,1,1.66-1.95,4.54,4.54,0,0,1,2.46-.67,4.63,4.63,0,0,1,2.47.66,4.37,4.37,0,0,1,1.66,1.93,6.78,6.78,0,0,1,.59,2.91Zm-2-.6a5,5,0,0,0-.72-2.9,2.53,2.53,0,0,0-4,0,4.9,4.9,0,0,0-.74,2.84V355a5,5,0,0,0,.73,2.89,2.35,2.35,0,0,0,2,1,2.31,2.31,0,0,0,2-1A5.05,5.05,0,0,0,52,355Z"/><path class="cls-2" d="M60.47,358.06a.84.84,0,0,0-.42-.77,4.23,4.23,0,0,0-1.39-.47,7.25,7.25,0,0,1-1.61-.52,2.16,2.16,0,0,1-1.43-2,2.25,2.25,0,0,1,.93-1.83,3.62,3.62,0,0,1,2.34-.73,3.79,3.79,0,0,1,2.45.75,2.38,2.38,0,0,1,.93,1.94h-1.9a1.17,1.17,0,0,0-.4-.91,1.57,1.57,0,0,0-1.08-.36,1.69,1.69,0,0,0-1,.29.92.92,0,0,0-.4.77.78.78,0,0,0,.37.68,5,5,0,0,0,1.49.49,6.69,6.69,0,0,1,1.75.59,2.48,2.48,0,0,1,1,.81,2.15,2.15,0,0,1,.3,1.16,2.21,2.21,0,0,1-.94,1.85,4.05,4.05,0,0,1-2.48.7,4.37,4.37,0,0,1-1.85-.37,3.08,3.08,0,0,1-1.26-1,2.41,2.41,0,0,1-.46-1.42h1.85a1.32,1.32,0,0,0,.5,1,2,2,0,0,0,1.25.36,1.92,1.92,0,0,0,1.14-.28A.89.89,0,0,0,60.47,358.06Z"/><path class="cls-2" d="M66.37,349.85v2h1.49v1.41H66.37V358a1,1,0,0,0,.19.7.88.88,0,0,0,.68.21,2.48,2.48,0,0,0,.66-.08v1.47a4.61,4.61,0,0,1-1.25.18c-1.45,0-2.18-.8-2.18-2.41v-4.79H63.08V351.9h1.39v-2Z"/><path class="cls-2" d="M74.36,360.36a2.65,2.65,0,0,1-.22-.79,3,3,0,0,1-2.22.94,3,3,0,0,1-2.08-.72A2.36,2.36,0,0,1,69,358a2.39,2.39,0,0,1,1-2.07,4.81,4.81,0,0,1,2.87-.73h1.17v-.55a1.49,1.49,0,0,0-.37-1.05,1.45,1.45,0,0,0-1.12-.4,1.66,1.66,0,0,0-1.06.33,1,1,0,0,0-.41.82h-1.9a2.09,2.09,0,0,1,.46-1.3,3.11,3.11,0,0,1,1.25-1,4.4,4.4,0,0,1,1.77-.34,3.59,3.59,0,0,1,2.37.74,2.64,2.64,0,0,1,.9,2.1v3.81a4.2,4.2,0,0,0,.33,1.82v.14ZM72.27,359a2.17,2.17,0,0,0,1.06-.27,1.91,1.91,0,0,0,.75-.74v-1.59h-1a2.73,2.73,0,0,0-1.58.37,1.16,1.16,0,0,0-.53,1,1.13,1.13,0,0,0,.36.88A1.44,1.44,0,0,0,72.27,359Z"/><path class="cls-2" d="M80.34,349.85v2h1.49v1.41H80.34V358a1.1,1.1,0,0,0,.19.7.92.92,0,0,0,.69.21,2.48,2.48,0,0,0,.66-.08v1.47a4.66,4.66,0,0,1-1.25.18c-1.46,0-2.19-.8-2.19-2.41v-4.79H77.05V351.9h1.39v-2Z"/><path class="cls-2" d="M85.05,351.9l0,1a3.05,3.05,0,0,1,2.46-1.13c1.76,0,2.66,1,2.69,3v5.59h-1.9v-5.48a1.74,1.74,0,0,0-.35-1.19,1.45,1.45,0,0,0-1.13-.39,1.85,1.85,0,0,0-1.72,1v6H83.26V351.9Z"/><path class="cls-2" d="M94.22,360.36H92.33V351.9h1.89Zm-.35-11.95H96l-2.16,2.37H92.34Z"/><path class="cls-2" d="M102.55,354.16h1a3.26,3.26,0,0,0,1.41-.28,2,2,0,0,0,1.23-1.93,2.31,2.31,0,0,0-.61-1.71,2.42,2.42,0,0,0-1.78-.62,2.54,2.54,0,0,0-1.79.65,2.18,2.18,0,0,0-.7,1.7h-.94a3,3,0,0,1,.45-1.62,3.12,3.12,0,0,1,1.23-1.13,3.91,3.91,0,0,1,1.75-.39,3.4,3.4,0,0,1,2.44.84,3,3,0,0,1,.89,2.31,2.43,2.43,0,0,1-.52,1.51,3.11,3.11,0,0,1-1.42,1,3,3,0,0,1,1.61,1,2.78,2.78,0,0,1,.54,1.72,3,3,0,0,1-1,2.35,3.56,3.56,0,0,1-2.55.89,4.25,4.25,0,0,1-1.86-.4,3,3,0,0,1-1.31-1.14,3.1,3.1,0,0,1-.47-1.7h.94a2.27,2.27,0,0,0,.76,1.77,2.75,2.75,0,0,0,1.94.68,2.66,2.66,0,0,0,1.89-.62,2.31,2.31,0,0,0,.68-1.8,2.12,2.12,0,0,0-.74-1.74,3.3,3.3,0,0,0-2.15-.6h-.93Z"/><path class="cls-2" d="M109.29,362.48l-.56-.4a3.42,3.42,0,0,0,.74-2v-1.21h.91v1A3.35,3.35,0,0,1,109.29,362.48Z"/><path class="cls-2" d="M118.14,356.69h1.77v.79h-1.77v2.88h-.94v-2.88h-5.35V357l5.27-8h1Zm-5.14,0h4.2v-6.5l-.41.72Z"/><path class="cls-2" d="M124.94,351.17a2.37,2.37,0,0,1,.62-1.68,2.25,2.25,0,0,1,3.2,0,2.41,2.41,0,0,1,.63,1.73v.55a2.38,2.38,0,0,1-.62,1.67,2.25,2.25,0,0,1-3.19,0,2.36,2.36,0,0,1-.64-1.73Zm.75.6a1.8,1.8,0,0,0,.41,1.2,1.34,1.34,0,0,0,1.08.47,1.32,1.32,0,0,0,1.06-.48,1.84,1.84,0,0,0,.39-1.22v-.58a1.75,1.75,0,0,0-.41-1.2,1.34,1.34,0,0,0-1.06-.47,1.37,1.37,0,0,0-1.06.47,1.84,1.84,0,0,0-.41,1.25Zm1.78,7.64-.58-.37,5.55-8.89.59.37Zm3.19-1.84a2.33,2.33,0,0,1,.63-1.68,2.11,2.11,0,0,1,1.59-.67,2.14,2.14,0,0,1,1.6.66,2.42,2.42,0,0,1,.64,1.74v.56a2.37,2.37,0,0,1-.63,1.68,2.1,2.1,0,0,1-1.59.66,2.13,2.13,0,0,1-1.6-.66,2.35,2.35,0,0,1-.64-1.72Zm.75.6a1.84,1.84,0,0,0,.4,1.21,1.37,1.37,0,0,0,1.09.47,1.32,1.32,0,0,0,1.06-.47,1.86,1.86,0,0,0,.4-1.25v-.57a1.82,1.82,0,0,0-.4-1.21,1.38,1.38,0,0,0-1.08-.45,1.33,1.33,0,0,0-1.06.46,1.82,1.82,0,0,0-.41,1.24Z"/><path class="cls-2" d="M508.7,141.59h-6.16v5h7.16v1.53h-9V133.94h8.94v1.53h-7.06v4.58h6.16Z"/><path class="cls-2" d="M513.45,137.59l0,1.18a3.87,3.87,0,0,1,3.13-1.37,3,3,0,0,1,3,1.7,3.93,3.93,0,0,1,3.37-1.7c2.32,0,3.49,1.23,3.53,3.68v7.08h-1.8v-7a2.47,2.47,0,0,0-.52-1.7,2.31,2.31,0,0,0-1.74-.56,2.39,2.39,0,0,0-1.67.6,2.44,2.44,0,0,0-.77,1.62v7h-1.82v-6.92a2,2,0,0,0-2.25-2.31,2.41,2.41,0,0,0-2.43,1.51v7.72h-1.81V137.59Z"/><path class="cls-2" d="M529.29,134.79a1.07,1.07,0,0,1,.27-.74,1,1,0,0,1,.79-.3,1,1,0,0,1,1.08,1,1,1,0,0,1-.28.73,1,1,0,0,1-.8.3,1,1,0,0,1-.79-.3A1,1,0,0,1,529.29,134.79Zm2,13.37h-1.81V137.59h1.81Z"/><path class="cls-2" d="M540.28,145.36a1.33,1.33,0,0,0-.55-1.14,5.43,5.43,0,0,0-1.92-.7,9,9,0,0,1-2.18-.7,3.14,3.14,0,0,1-1.19-1,2.33,2.33,0,0,1-.39-1.35,2.75,2.75,0,0,1,1.1-2.19,4.29,4.29,0,0,1,2.81-.9,4.38,4.38,0,0,1,2.91.93A2.91,2.91,0,0,1,542,140.7h-1.81a1.63,1.63,0,0,0-.63-1.28,2.36,2.36,0,0,0-1.59-.54,2.49,2.49,0,0,0-1.54.43,1.37,1.37,0,0,0-.56,1.13,1.08,1.08,0,0,0,.52,1,6.59,6.59,0,0,0,1.87.64,9.67,9.67,0,0,1,2.19.72,3.21,3.21,0,0,1,1.24,1,2.4,2.4,0,0,1,.41,1.44A2.72,2.72,0,0,1,541,147.5a4.77,4.77,0,0,1-2.94.86,5.32,5.32,0,0,1-2.25-.45,3.67,3.67,0,0,1-1.53-1.26,3.09,3.09,0,0,1-.55-1.74h1.81a1.86,1.86,0,0,0,.73,1.44,2.84,2.84,0,0,0,1.79.53,3,3,0,0,0,1.64-.41A1.27,1.27,0,0,0,540.28,145.36Z"/><path class="cls-2" d="M548.83,148.36a4.64,4.64,0,0,1-3.5-1.42,5.23,5.23,0,0,1-1.35-3.77v-.33a6.21,6.21,0,0,1,.61-2.81,4.71,4.71,0,0,1,1.67-1.93,4.19,4.19,0,0,1,2.34-.7,4,4,0,0,1,3.21,1.36,5.87,5.87,0,0,1,1.14,3.88v.75h-7.16a3.78,3.78,0,0,0,.91,2.53,2.9,2.9,0,0,0,2.23,1,3.19,3.19,0,0,0,1.62-.39,4.08,4.08,0,0,0,1.16-1l1.1.86A4.43,4.43,0,0,1,548.83,148.36Zm-.23-9.48a2.39,2.39,0,0,0-1.83.8,3.84,3.84,0,0,0-.92,2.23h5.29v-.14a3.44,3.44,0,0,0-.74-2.13A2.25,2.25,0,0,0,548.6,138.88Z"/><path class="cls-2" d="M566.14,145.36a1.33,1.33,0,0,0-.55-1.14,5.43,5.43,0,0,0-1.92-.7,9,9,0,0,1-2.18-.7,3.06,3.06,0,0,1-1.19-1,2.33,2.33,0,0,1-.39-1.35,2.75,2.75,0,0,1,1.1-2.19,4.29,4.29,0,0,1,2.81-.9,4.38,4.38,0,0,1,2.91.93,2.91,2.91,0,0,1,1.12,2.37H566a1.63,1.63,0,0,0-.63-1.28,2.36,2.36,0,0,0-1.59-.54,2.49,2.49,0,0,0-1.54.43,1.34,1.34,0,0,0-.56,1.13,1.08,1.08,0,0,0,.52,1,6.59,6.59,0,0,0,1.87.64,9.67,9.67,0,0,1,2.19.72,3.21,3.21,0,0,1,1.24,1,2.47,2.47,0,0,1,.41,1.44,2.72,2.72,0,0,1-1.13,2.27,4.77,4.77,0,0,1-2.94.86,5.32,5.32,0,0,1-2.25-.45,3.67,3.67,0,0,1-1.53-1.26,3,3,0,0,1-.55-1.74h1.81a1.86,1.86,0,0,0,.73,1.44,2.82,2.82,0,0,0,1.79.53,3,3,0,0,0,1.64-.41A1.27,1.27,0,0,0,566.14,145.36Z"/><path class="cls-2" d="M572.75,135v2.56h2V139h-2v6.56a1.44,1.44,0,0,0,.27.95,1.07,1.07,0,0,0,.9.32,4.41,4.41,0,0,0,.86-.12v1.46a5.3,5.3,0,0,1-1.39.2,2.25,2.25,0,0,1-1.83-.74,3.15,3.15,0,0,1-.61-2.08V139H569v-1.4H571V135Z"/><path class="cls-2" d="M583.36,148.16a3.81,3.81,0,0,1-.25-1.11,4.05,4.05,0,0,1-3,1.31,3.75,3.75,0,0,1-2.57-.89,2.87,2.87,0,0,1-1-2.24,3,3,0,0,1,1.26-2.56,5.91,5.91,0,0,1,3.53-.92h1.76v-.83a2,2,0,0,0-.57-1.51,2.29,2.29,0,0,0-1.67-.56,2.69,2.69,0,0,0-1.62.49,1.44,1.44,0,0,0-.66,1.18h-1.81a2.56,2.56,0,0,1,.56-1.53,3.74,3.74,0,0,1,1.52-1.16,5.09,5.09,0,0,1,2.12-.43,4.16,4.16,0,0,1,2.86.91,3.28,3.28,0,0,1,1.07,2.52v4.86a6.05,6.05,0,0,0,.37,2.31v.16Zm-3-1.38a3.1,3.1,0,0,0,1.61-.44,2.65,2.65,0,0,0,1.11-1.14V143h-1.42c-2.21,0-3.32.65-3.32,1.95a1.63,1.63,0,0,0,.57,1.32A2.15,2.15,0,0,0,580.36,146.78ZM582,133.16h2.19L581.6,136h-1.45Z"/><path class="cls-2" d="M590.17,135v2.56h2V139h-2v6.56a1.44,1.44,0,0,0,.26.95,1.1,1.1,0,0,0,.9.32,4.32,4.32,0,0,0,.86-.12v1.46a5.3,5.3,0,0,1-1.39.2,2.25,2.25,0,0,1-1.83-.74,3.15,3.15,0,0,1-.61-2.08V139h-1.92v-1.4h1.92V135Z"/><path class="cls-2" d="M600.77,147.11a3.82,3.82,0,0,1-3.09,1.25,3.28,3.28,0,0,1-2.58-1,4.24,4.24,0,0,1-.89-2.9v-6.88H596v6.83q0,2.4,2,2.4a2.69,2.69,0,0,0,2.75-1.54v-7.69h1.81v10.57h-1.72Zm-.25-12.81a1.85,1.85,0,0,1-.61,1.42,2.25,2.25,0,0,1-3,0,1.9,1.9,0,0,1-.6-1.42,1.93,1.93,0,0,1,.6-1.43,2.18,2.18,0,0,1,3,0A1.93,1.93,0,0,1,600.52,134.3Zm-3.23,0a1.13,1.13,0,0,0,1.13,1.13,1.09,1.09,0,0,0,.8-.33,1.06,1.06,0,0,0,.33-.8,1.1,1.1,0,0,0-.33-.81,1.12,1.12,0,0,0-1.61,0A1.12,1.12,0,0,0,597.29,134.3Z"/><path class="cls-2" d="M615.66,145.24a.92.92,0,0,0-.51-.82,6.26,6.26,0,0,0-1.64-.53c-2.52-.53-3.77-1.59-3.77-3.2a2.92,2.92,0,0,1,1.16-2.35,4.72,4.72,0,0,1,3.06-.94,5,5,0,0,1,3.21.95,3,3,0,0,1,1.21,2.46h-2.82a1.35,1.35,0,0,0-.39-1,1.63,1.63,0,0,0-1.22-.4,1.73,1.73,0,0,0-1.11.32,1,1,0,0,0-.39.82.87.87,0,0,0,.45.76,4.52,4.52,0,0,0,1.49.5,12.8,12.8,0,0,1,1.78.47,2.92,2.92,0,0,1,2.24,2.84,2.74,2.74,0,0,1-1.24,2.34,5.35,5.35,0,0,1-3.21.9,5.48,5.48,0,0,1-2.35-.48,3.9,3.9,0,0,1-1.62-1.3,3,3,0,0,1-.59-1.78h2.68a1.46,1.46,0,0,0,.56,1.15,2.16,2.16,0,0,0,1.38.4,2.11,2.11,0,0,0,1.23-.3A1,1,0,0,0,615.66,145.24Z"/><path class="cls-2" d="M625.09,148.36a5.22,5.22,0,0,1-3.79-1.43,5.09,5.09,0,0,1-1.46-3.8v-.27a6.42,6.42,0,0,1,.62-2.85,4.48,4.48,0,0,1,1.74-1.93,4.83,4.83,0,0,1,2.58-.68,4.36,4.36,0,0,1,3.41,1.37,5.54,5.54,0,0,1,1.24,3.87v1.15h-6.72a2.59,2.59,0,0,0,.82,1.66,2.48,2.48,0,0,0,1.74.63,3,3,0,0,0,2.55-1.18l1.39,1.55a4.18,4.18,0,0,1-1.72,1.4A5.55,5.55,0,0,1,625.09,148.36Zm-.32-8.69a1.78,1.78,0,0,0-1.37.57,3,3,0,0,0-.67,1.63h3.93v-.22a2.07,2.07,0,0,0-.51-1.46A1.82,1.82,0,0,0,624.77,139.67Z"/><path class="cls-2" d="M639.26,145.88h5.16v2.28h-8.77v-1.72l5-6.57H635.8v-2.28h8.47v1.67Z"/><path class="cls-2" d="M652.31,148.16a3.15,3.15,0,0,1-.28-.95,3.41,3.41,0,0,1-2.66,1.15,3.76,3.76,0,0,1-2.58-.9,2.9,2.9,0,0,1-1-2.27,3,3,0,0,1,1.25-2.58,6.16,6.16,0,0,1,3.6-.91h1.29v-.6a1.73,1.73,0,0,0-.37-1.17,1.46,1.46,0,0,0-1.19-.44,1.68,1.68,0,0,0-1.12.34,1.16,1.16,0,0,0-.4.94H646a2.8,2.8,0,0,1,.56-1.7,3.8,3.8,0,0,1,1.6-1.23,6,6,0,0,1,2.33-.44,4.64,4.64,0,0,1,3.1,1,3.44,3.44,0,0,1,1.15,2.76v4.58a4.85,4.85,0,0,0,.42,2.27v.17Zm-2.33-2a2.47,2.47,0,0,0,1.15-.28,1.83,1.83,0,0,0,.78-.75v-1.81h-1c-1.41,0-2.17.48-2.26,1.46V145a1.16,1.16,0,0,0,.37.87A1.49,1.49,0,0,0,650,146.2Zm1.07-13h3.08l-2.7,3h-2.3Z"/><path class="cls-2" d="M660.87,144.71l2-7.12h2.95l-3.56,10.57h-2.7L656,137.59h2.95Z"/><path class="cls-2" d="M673,148.16a3.14,3.14,0,0,1-.29-.95,3.41,3.41,0,0,1-2.66,1.15,3.73,3.73,0,0,1-2.57-.9,2.9,2.9,0,0,1-1-2.27,3,3,0,0,1,1.24-2.58,6.16,6.16,0,0,1,3.6-.91h1.3v-.6a1.73,1.73,0,0,0-.38-1.17,1.44,1.44,0,0,0-1.18-.44,1.67,1.67,0,0,0-1.12.34,1.17,1.17,0,0,0-.41.94h-2.82a2.81,2.81,0,0,1,.57-1.7,3.74,3.74,0,0,1,1.6-1.23,5.92,5.92,0,0,1,2.32-.44,4.63,4.63,0,0,1,3.1,1,3.41,3.41,0,0,1,1.15,2.76v4.58a5.12,5.12,0,0,0,.42,2.27v.17Zm-2.34-2a2.55,2.55,0,0,0,1.16-.28,1.89,1.89,0,0,0,.78-.75v-1.81h-1.06c-1.41,0-2.16.48-2.25,1.46V145a1.13,1.13,0,0,0,.37.87A1.47,1.47,0,0,0,670.66,146.2Z"/><path class="cls-2" d="M680.84,145.88H686v2.28h-8.77v-1.72l5-6.57h-4.83v-2.28h8.47v1.67Z"/><path class="cls-2" d="M691.61,143.92l-1,1v3.22h-2.83v-15h2.83v8.31l.54-.7,2.71-3.18h3.39L693.42,142l4.15,6.16h-3.24Z"/><path class="cls-2" d="M703.32,148.36a5.18,5.18,0,0,1-3.78-1.43,5,5,0,0,1-1.46-3.8v-.27a6.41,6.41,0,0,1,.61-2.85,4.48,4.48,0,0,1,1.74-1.93,4.85,4.85,0,0,1,2.58-.68,4.36,4.36,0,0,1,3.41,1.37,5.54,5.54,0,0,1,1.25,3.87v1.15h-6.73a2.59,2.59,0,0,0,.82,1.66,2.49,2.49,0,0,0,1.75.63,3,3,0,0,0,2.54-1.18l1.39,1.55a4.12,4.12,0,0,1-1.72,1.4A5.55,5.55,0,0,1,703.32,148.36Zm-.32-8.69a1.74,1.74,0,0,0-1.36.57,2.88,2.88,0,0,0-.67,1.63h3.92v-.22a2.07,2.07,0,0,0-.51-1.46A1.81,1.81,0,0,0,703,139.67Z"/><path class="cls-2" d="M711.91,137.59l.09,1.18a3.73,3.73,0,0,1,3-1.37,2.82,2.82,0,0,1,2.8,1.61A3.64,3.64,0,0,1,721,137.4a3.13,3.13,0,0,1,2.55,1,4.6,4.6,0,0,1,.84,3v6.75h-2.83v-6.74a2,2,0,0,0-.35-1.31,1.54,1.54,0,0,0-1.24-.42,1.77,1.77,0,0,0-1.76,1.21v7.26h-2.82v-6.73a2,2,0,0,0-.36-1.33,1.58,1.58,0,0,0-1.23-.41,1.83,1.83,0,0,0-1.74,1v7.47h-2.82V137.59Z"/><path class="cls-2" d="M503.33,165.44l-1.13,1.18v3.71h-1.81v-15h1.81v9.07l1-1.16,3.3-3.47h2.19l-4.11,4.41,4.59,6.15H507Z"/><path class="cls-2" d="M522,169.29a3.84,3.84,0,0,1-3.09,1.24,3.31,3.31,0,0,1-2.58-1,4.29,4.29,0,0,1-.89-2.91v-6.87h1.81v6.82q0,2.4,2,2.4a2.69,2.69,0,0,0,2.75-1.54v-7.68h1.81v10.56H522Z"/><path class="cls-2" d="M528.3,161.05a3.82,3.82,0,0,1,3.13-1.48c2.23,0,3.36,1.26,3.37,3.78v7H533v-7a2.47,2.47,0,0,0-.52-1.69,2.14,2.14,0,0,0-1.6-.55,2.6,2.6,0,0,0-1.54.47,3.27,3.27,0,0,0-1,1.23v7.53h-1.81v-15h1.81Z"/><path class="cls-2" d="M539.47,170.33h-1.8v-15h1.8Z"/><path class="cls-2" d="M544.35,155.34h2.18l-2.61,2.87h-1.46Zm0,15h-1.82V159.77h1.82Z"/><path class="cls-2" d="M550.25,165.44l-1.13,1.18v3.71h-1.81v-15h1.81v9.07l1-1.16,3.29-3.47h2.2l-4.12,4.41,4.59,6.15h-2.11Z"/><path class="cls-2" d="M557,165a6.35,6.35,0,0,1,.61-2.79,4.62,4.62,0,0,1,1.7-1.92,4.73,4.73,0,0,1,2.49-.67,4.45,4.45,0,0,1,3.49,1.5,5.72,5.72,0,0,1,1.33,4v.13a6.39,6.39,0,0,1-.59,2.77,4.46,4.46,0,0,1-1.69,1.9,4.63,4.63,0,0,1-2.52.69,4.41,4.41,0,0,1-3.48-1.5,5.69,5.69,0,0,1-1.34-3.95Zm1.82.22a4.54,4.54,0,0,0,.81,2.82,2.63,2.63,0,0,0,2.19,1.06A2.58,2.58,0,0,0,564,168a4.86,4.86,0,0,0,.82-3,4.52,4.52,0,0,0-.83-2.82,2.75,2.75,0,0,0-4.35,0A4.9,4.9,0,0,0,558.78,165.17Z"/><path class="cls-2" d="M572.19,167.88l2.61-8.11h1.85l-3.79,10.56h-1.38l-3.82-10.56h1.84Z"/><path class="cls-2" d="M582.77,170.53a4.61,4.61,0,0,1-3.49-1.41,5.24,5.24,0,0,1-1.35-3.78V165a6.37,6.37,0,0,1,.6-2.81,4.66,4.66,0,0,1,1.68-1.93,4.19,4.19,0,0,1,2.34-.7,3.94,3.94,0,0,1,3.2,1.36,5.88,5.88,0,0,1,1.14,3.89v.75h-7.15a3.73,3.73,0,0,0,.91,2.52,2.86,2.86,0,0,0,2.22,1,3.13,3.13,0,0,0,1.62-.39,4,4,0,0,0,1.16-1l1.11.86A4.45,4.45,0,0,1,582.77,170.53Zm-.22-9.47a2.42,2.42,0,0,0-1.84.79,3.86,3.86,0,0,0-.91,2.23h5.29V164a3.47,3.47,0,0,0-.74-2.14A2.3,2.3,0,0,0,582.55,161.06Zm.88-5.73h2.19L583,158.2h-1.46Z"/><path class="cls-2" d="M595.64,159.77l.06,1.32a3.88,3.88,0,0,1,3.17-1.52q3.35,0,3.38,3.78v7h-1.81v-7a2.47,2.47,0,0,0-.52-1.69,2.12,2.12,0,0,0-1.6-.55,2.6,2.6,0,0,0-1.54.47,3.36,3.36,0,0,0-1,1.23v7.53h-1.8V159.77Z"/><path class="cls-2" d="M609.36,170.53a4.62,4.62,0,0,1-3.5-1.41,5.24,5.24,0,0,1-1.35-3.78V165a6.37,6.37,0,0,1,.6-2.81,4.66,4.66,0,0,1,1.68-1.93,4.19,4.19,0,0,1,2.34-.7,3.93,3.93,0,0,1,3.2,1.36,5.83,5.83,0,0,1,1.15,3.89v.75h-7.16a3.73,3.73,0,0,0,.91,2.52,2.86,2.86,0,0,0,2.22,1,3.13,3.13,0,0,0,1.62-.39,4.08,4.08,0,0,0,1.17-1l1.1.86A4.44,4.44,0,0,1,609.36,170.53Zm-.23-9.47a2.39,2.39,0,0,0-1.83.79,3.8,3.8,0,0,0-.92,2.23h5.29V164a3.47,3.47,0,0,0-.74-2.14A2.27,2.27,0,0,0,609.13,161.06Z"/><path class="cls-2" d="M622.09,169.29a3.86,3.86,0,0,1-3.1,1.24,3.3,3.3,0,0,1-2.57-1,4.24,4.24,0,0,1-.89-2.91v-6.87h1.8v6.82c0,1.6.66,2.4,2,2.4a2.69,2.69,0,0,0,2.75-1.54v-7.68h1.81v10.56h-1.72Z"/><path class="cls-2" d="M629,157.21v2.56h2v1.39h-2v6.56a1.45,1.45,0,0,0,.27,1,1.1,1.1,0,0,0,.9.31,4.08,4.08,0,0,0,.85-.11v1.45a5.17,5.17,0,0,1-1.38.2,2.28,2.28,0,0,1-1.83-.73,3.16,3.16,0,0,1-.61-2.08v-6.56h-1.93v-1.39h1.93v-2.56Z"/><path class="cls-2" d="M638.23,161.39a4.94,4.94,0,0,0-.89-.07,2.38,2.38,0,0,0-2.41,1.51v7.5h-1.8V159.77h1.75l0,1.22a2.81,2.81,0,0,1,2.52-1.42,1.85,1.85,0,0,1,.8.14Z"/><path class="cls-2" d="M646,170.33a3.74,3.74,0,0,1-.26-1.11,4,4,0,0,1-3,1.31,3.73,3.73,0,0,1-2.56-.89,2.83,2.83,0,0,1-1-2.24,3,3,0,0,1,1.25-2.56,5.93,5.93,0,0,1,3.53-.91h1.76v-.83a2,2,0,0,0-.56-1.51,2.27,2.27,0,0,0-1.67-.56,2.69,2.69,0,0,0-1.63.48,1.46,1.46,0,0,0-.65,1.19h-1.82a2.47,2.47,0,0,1,.57-1.53A3.85,3.85,0,0,1,641.5,160a5,5,0,0,1,2.11-.43,4.21,4.21,0,0,1,2.86.91,3.29,3.29,0,0,1,1.08,2.52v4.86a6,6,0,0,0,.37,2.32v.15ZM643,169a3.22,3.22,0,0,0,1.61-.44,2.7,2.7,0,0,0,1.1-1.15v-2.16h-1.41c-2.22,0-3.32.64-3.32,1.94a1.63,1.63,0,0,0,.56,1.33A2.18,2.18,0,0,0,643,169Z"/><path class="cls-2" d="M652.34,170.33h-1.8v-15h1.8Z"/><path class="cls-2" d="M655.24,157a1.07,1.07,0,0,1,.27-.74,1.22,1.22,0,0,1,1.6,0,1.07,1.07,0,0,1,.27.74,1.07,1.07,0,1,1-2.14,0Zm2,13.37h-1.81V159.77h1.81Z"/><path class="cls-2" d="M662.54,157.21v2.56h2v1.39h-2v6.56a1.51,1.51,0,0,0,.26,1,1.13,1.13,0,0,0,.9.31,4.09,4.09,0,0,0,.86-.11v1.45a5.25,5.25,0,0,1-1.39.2,2.27,2.27,0,0,1-1.82-.73,3.17,3.17,0,0,1-.62-2.08v-6.56h-1.92v-1.39h1.92v-2.56Z"/><path class="cls-2" d="M671,170.53a4.62,4.62,0,0,1-3.5-1.41,5.24,5.24,0,0,1-1.35-3.78V165a6.37,6.37,0,0,1,.6-2.81,4.66,4.66,0,0,1,1.68-1.93,4.19,4.19,0,0,1,2.34-.7,3.93,3.93,0,0,1,3.2,1.36,5.83,5.83,0,0,1,1.15,3.89v.75H668a3.78,3.78,0,0,0,.91,2.52,2.88,2.88,0,0,0,2.22,1,3.13,3.13,0,0,0,1.62-.39,4.08,4.08,0,0,0,1.17-1l1.1.86A4.44,4.44,0,0,1,671,170.53ZM670.76,157l1.47-1.66h1.56v.1l-2.48,2.68h-1.1l-2.46-2.68v-.1h1.54Zm0,4.07a2.39,2.39,0,0,0-1.83.79,3.8,3.8,0,0,0-.92,2.23h5.29V164a3.47,3.47,0,0,0-.74-2.14A2.27,2.27,0,0,0,670.78,161.06Z"/><path class="cls-3" d="M33.51,141.59H27.35v5h7.16v1.53h-9V133.94h8.93v1.53H27.35v4.58h6.16Z"/><path class="cls-3" d="M38.26,137.59l.05,1.18a3.87,3.87,0,0,1,3.13-1.37,3,3,0,0,1,3,1.7,3.93,3.93,0,0,1,3.37-1.7q3.48,0,3.54,3.68v7.08H49.56v-7a2.42,2.42,0,0,0-.52-1.7,2.28,2.28,0,0,0-1.74-.56,2.41,2.41,0,0,0-1.67.6,2.44,2.44,0,0,0-.77,1.62v7H43.05v-6.92a2,2,0,0,0-2.26-2.31,2.41,2.41,0,0,0-2.43,1.51v7.72H36.55V137.59Z"/><path class="cls-3" d="M54.1,134.79a1.07,1.07,0,0,1,.27-.74,1.2,1.2,0,0,1,1.59,0,1,1,0,0,1,.28.74,1,1,0,0,1-.28.73,1.2,1.2,0,0,1-1.59,0A1,1,0,0,1,54.1,134.79Zm1.95,13.37h-1.8V137.59h1.8Z"/><path class="cls-3" d="M65.1,145.36a1.33,1.33,0,0,0-.56-1.14,5.35,5.35,0,0,0-1.92-.7,9.16,9.16,0,0,1-2.18-.7,3.21,3.21,0,0,1-1.19-1,2.33,2.33,0,0,1-.38-1.35A2.74,2.74,0,0,1,60,138.3a4.31,4.31,0,0,1,2.81-.9,4.43,4.43,0,0,1,2.92.93,2.93,2.93,0,0,1,1.11,2.37H65a1.63,1.63,0,0,0-.63-1.28,2.36,2.36,0,0,0-1.59-.54,2.49,2.49,0,0,0-1.54.43,1.37,1.37,0,0,0-.56,1.13,1.08,1.08,0,0,0,.52,1,6.59,6.59,0,0,0,1.87.64,9.67,9.67,0,0,1,2.19.72,3.25,3.25,0,0,1,1.25,1,2.47,2.47,0,0,1,.4,1.44,2.69,2.69,0,0,1-1.13,2.27,4.77,4.77,0,0,1-2.94.86,5.35,5.35,0,0,1-2.25-.45,3.58,3.58,0,0,1-1.52-1.26,3,3,0,0,1-.56-1.74h1.81a1.89,1.89,0,0,0,.73,1.44,2.84,2.84,0,0,0,1.79.53,3,3,0,0,0,1.65-.41A1.29,1.29,0,0,0,65.1,145.36Z"/><path class="cls-3" d="M73.64,148.36a4.64,4.64,0,0,1-3.5-1.42,5.27,5.27,0,0,1-1.34-3.77v-.33a6.34,6.34,0,0,1,.6-2.81,4.66,4.66,0,0,1,1.68-1.93,4.19,4.19,0,0,1,2.34-.7,3.94,3.94,0,0,1,3.2,1.36,5.87,5.87,0,0,1,1.14,3.88v.75H70.6a3.74,3.74,0,0,0,.92,2.53,2.86,2.86,0,0,0,2.22,1,3.13,3.13,0,0,0,1.62-.39,4.08,4.08,0,0,0,1.16-1l1.11.86A4.46,4.46,0,0,1,73.64,148.36Zm-.22-9.48a2.42,2.42,0,0,0-1.84.8,3.91,3.91,0,0,0-.92,2.23H76v-.14a3.44,3.44,0,0,0-.75-2.13A2.24,2.24,0,0,0,73.42,138.88Z"/><path class="cls-3" d="M91,145.36a1.33,1.33,0,0,0-.56-1.14,5.35,5.35,0,0,0-1.92-.7,9.16,9.16,0,0,1-2.18-.7,3.14,3.14,0,0,1-1.19-1,2.33,2.33,0,0,1-.39-1.35,2.75,2.75,0,0,1,1.1-2.19,4.31,4.31,0,0,1,2.81-.9,4.43,4.43,0,0,1,2.92.93,2.93,2.93,0,0,1,1.11,2.37H90.85a1.63,1.63,0,0,0-.63-1.28,2.36,2.36,0,0,0-1.59-.54,2.49,2.49,0,0,0-1.54.43,1.37,1.37,0,0,0-.56,1.13,1.08,1.08,0,0,0,.52,1,6.59,6.59,0,0,0,1.87.64,9.67,9.67,0,0,1,2.19.72,3.25,3.25,0,0,1,1.25,1,2.47,2.47,0,0,1,.4,1.44,2.72,2.72,0,0,1-1.13,2.27,4.77,4.77,0,0,1-2.94.86,5.32,5.32,0,0,1-2.25-.45,3.58,3.58,0,0,1-1.52-1.26,3,3,0,0,1-.56-1.74h1.81a1.86,1.86,0,0,0,.73,1.44,2.84,2.84,0,0,0,1.79.53,3,3,0,0,0,1.65-.41A1.29,1.29,0,0,0,91,145.36Z"/><path class="cls-3" d="M97.57,135v2.56h2V139h-2v6.56a1.44,1.44,0,0,0,.26.95,1.1,1.1,0,0,0,.9.32,4.32,4.32,0,0,0,.86-.12v1.46a5.3,5.3,0,0,1-1.39.2,2.23,2.23,0,0,1-1.82-.74,3.09,3.09,0,0,1-.62-2.08V139H93.84v-1.4h1.92V135Z"/><path class="cls-3" d="M108.17,148.16a3.81,3.81,0,0,1-.25-1.11,4,4,0,0,1-3,1.31,3.71,3.71,0,0,1-2.56-.89,2.84,2.84,0,0,1-1-2.24,3,3,0,0,1,1.25-2.56,5.91,5.91,0,0,1,3.53-.92h1.76v-.83a2,2,0,0,0-.57-1.51,2.29,2.29,0,0,0-1.67-.56,2.69,2.69,0,0,0-1.62.49,1.46,1.46,0,0,0-.65,1.18h-1.82a2.56,2.56,0,0,1,.56-1.53,3.78,3.78,0,0,1,1.53-1.16,5,5,0,0,1,2.11-.43,4.16,4.16,0,0,1,2.86.91,3.32,3.32,0,0,1,1.08,2.52v4.86a5.87,5.87,0,0,0,.37,2.31v.16Zm-3-1.38a3.13,3.13,0,0,0,1.62-.44,2.68,2.68,0,0,0,1.1-1.14V143h-1.42c-2.21,0-3.32.65-3.32,1.95a1.63,1.63,0,0,0,.57,1.32A2.17,2.17,0,0,0,105.17,146.78Zm1.67-13.62H109L106.41,136H105Z"/><path class="cls-3" d="M115,135v2.56h2V139h-2v6.56a1.49,1.49,0,0,0,.26.95,1.1,1.1,0,0,0,.9.32,4.23,4.23,0,0,0,.86-.12v1.46a5.25,5.25,0,0,1-1.39.2,2.25,2.25,0,0,1-1.82-.74,3.15,3.15,0,0,1-.62-2.08V139h-1.92v-1.4h1.92V135Z"/><path class="cls-3" d="M125.58,147.11a3.82,3.82,0,0,1-3.09,1.25,3.24,3.24,0,0,1-2.57-1,4.24,4.24,0,0,1-.9-2.9v-6.88h1.81v6.83q0,2.4,2,2.4a2.71,2.71,0,0,0,2.76-1.54v-7.69h1.8v10.57h-1.72Zm-.25-12.81a1.85,1.85,0,0,1-.61,1.42,2.25,2.25,0,0,1-3,0,1.9,1.9,0,0,1-.6-1.42,1.93,1.93,0,0,1,.6-1.43,2.18,2.18,0,0,1,3,0A1.93,1.93,0,0,1,125.33,134.3Zm-3.23,0a1.1,1.1,0,0,0,.32.79,1.07,1.07,0,0,0,.81.34,1.09,1.09,0,0,0,.8-.33,1.06,1.06,0,0,0,.33-.8,1.13,1.13,0,0,0-.32-.81,1.07,1.07,0,0,0-.81-.34,1,1,0,0,0-.81.34A1.17,1.17,0,0,0,122.1,134.3Z"/><path class="cls-3" d="M144.28,143a6.39,6.39,0,0,1-1.09,4,3.59,3.59,0,0,1-3,1.43,3.29,3.29,0,0,1-2.74-1.32l-.13,1.12h-2.54v-15h2.83v5.38a3.2,3.2,0,0,1,2.56-1.14,3.64,3.64,0,0,1,3,1.42,6.43,6.43,0,0,1,1.1,4Zm-2.83-.2a4.28,4.28,0,0,0-.5-2.34,1.74,1.74,0,0,0-1.52-.74,1.84,1.84,0,0,0-1.85,1.11V145a1.88,1.88,0,0,0,1.87,1.11,1.75,1.75,0,0,0,1.8-1.35A7.23,7.23,0,0,0,141.45,142.77Z"/><path class="cls-3" d="M150.88,148.36a5.22,5.22,0,0,1-3.79-1.43,5.09,5.09,0,0,1-1.46-3.8v-.27a6.42,6.42,0,0,1,.62-2.85,4.48,4.48,0,0,1,1.74-1.93,4.82,4.82,0,0,1,2.57-.68,4.37,4.37,0,0,1,3.42,1.37,5.54,5.54,0,0,1,1.24,3.87v1.15h-6.73a2.65,2.65,0,0,0,.83,1.66,2.48,2.48,0,0,0,1.74.63,3,3,0,0,0,2.55-1.18l1.39,1.55a4.25,4.25,0,0,1-1.72,1.4A5.55,5.55,0,0,1,150.88,148.36Zm-.33-8.69a1.76,1.76,0,0,0-1.36.57,3,3,0,0,0-.67,1.63h3.93v-.22a2.07,2.07,0,0,0-.51-1.46A1.83,1.83,0,0,0,150.55,139.67Z"/><path class="cls-3" d="M160.07,145.88h5.16v2.28h-8.77v-1.72l5-6.57h-4.82v-2.28h8.47v1.67Z"/><path class="cls-3" d="M175.22,145.88h5.17v2.28h-8.77v-1.72l5-6.57h-4.82v-2.28h8.46v1.67Z"/><path class="cls-3" d="M188.28,148.16a2.89,2.89,0,0,1-.28-.95,3.45,3.45,0,0,1-2.67,1.15,3.75,3.75,0,0,1-2.57-.9,2.9,2.9,0,0,1-1-2.27,3,3,0,0,1,1.24-2.58,6.16,6.16,0,0,1,3.6-.91h1.3v-.6a1.73,1.73,0,0,0-.38-1.17,1.44,1.44,0,0,0-1.18-.44,1.67,1.67,0,0,0-1.12.34,1.17,1.17,0,0,0-.41.94H182a2.81,2.81,0,0,1,.57-1.7,3.74,3.74,0,0,1,1.6-1.23,5.92,5.92,0,0,1,2.32-.44,4.61,4.61,0,0,1,3.1,1,3.41,3.41,0,0,1,1.15,2.76v4.58a5.12,5.12,0,0,0,.42,2.27v.17Zm-2.33-2a2.5,2.5,0,0,0,1.15-.28,1.89,1.89,0,0,0,.78-.75v-1.81h-1.06c-1.41,0-2.16.48-2.25,1.46V145a1.13,1.13,0,0,0,.37.87A1.49,1.49,0,0,0,186,146.2Zm1.07-13h3.08l-2.71,3H185.1Z"/><path class="cls-3" d="M196.83,144.71l2-7.12h2.95l-3.57,10.57h-2.69l-3.57-10.57h3Z"/><path class="cls-3" d="M209,148.16a3.15,3.15,0,0,1-.28-.95,3.42,3.42,0,0,1-2.67,1.15,3.75,3.75,0,0,1-2.57-.9,2.9,2.9,0,0,1-1-2.27,3,3,0,0,1,1.25-2.58,6.13,6.13,0,0,1,3.59-.91h1.3v-.6a1.73,1.73,0,0,0-.37-1.17,1.46,1.46,0,0,0-1.19-.44,1.68,1.68,0,0,0-1.12.34,1.16,1.16,0,0,0-.4.94h-2.83a2.81,2.81,0,0,1,.57-1.7,3.8,3.8,0,0,1,1.6-1.23,6,6,0,0,1,2.33-.44,4.64,4.64,0,0,1,3.1,1,3.43,3.43,0,0,1,1.14,2.76v4.58a5.12,5.12,0,0,0,.42,2.27v.17Zm-2.33-2a2.47,2.47,0,0,0,1.15-.28,1.89,1.89,0,0,0,.78-.75v-1.81h-1.05c-1.41,0-2.17.48-2.26,1.46V145a1.16,1.16,0,0,0,.37.87A1.49,1.49,0,0,0,206.63,146.2Z"/><path class="cls-3" d="M216.8,145.88H222v2.28H213.2v-1.72l5-6.57h-4.82v-2.28h8.46v1.67Z"/><path class="cls-3" d="M227.58,143.92l-1,1v3.22h-2.82v-15h2.82v8.31l.55-.7,2.7-3.18h3.39L229.38,142l4.15,6.16h-3.24Z"/><path class="cls-3" d="M240.75,147.09a3.56,3.56,0,0,1-2.89,1.27,3.33,3.33,0,0,1-2.59-1,4.19,4.19,0,0,1-.92-2.86v-6.93h2.83v6.84q0,1.65,1.5,1.65a2,2,0,0,0,2-1v-7.49h2.83v10.57h-2.65Z"/><path class="cls-3" d="M72,165.44l-1.13,1.18v3.71H69.07v-15h1.81v9.07l1-1.16,3.29-3.47h2.2l-4.11,4.41,4.59,6.15H75.69Z"/><path class="cls-3" d="M90.67,169.29a3.84,3.84,0,0,1-3.09,1.24,3.31,3.31,0,0,1-2.58-1,4.29,4.29,0,0,1-.89-2.91v-6.87h1.81v6.82q0,2.4,2,2.4a2.69,2.69,0,0,0,2.75-1.54v-7.68h1.81v10.56H90.71Z"/><path class="cls-3" d="M97,161.05a3.82,3.82,0,0,1,3.13-1.48q3.35,0,3.37,3.78v7h-1.8v-7a2.47,2.47,0,0,0-.52-1.69,2.14,2.14,0,0,0-1.6-.55,2.6,2.6,0,0,0-1.54.47,3.27,3.27,0,0,0-1,1.23v7.53H95.17v-15H97Z"/><path class="cls-3" d="M108.15,170.33h-1.8v-15h1.8Z"/><path class="cls-3" d="M113,155.34h2.18l-2.61,2.87h-1.46Zm0,15h-1.82V159.77H113Z"/><path class="cls-3" d="M118.93,165.44l-1.13,1.18v3.71H116v-15h1.81v9.07l1-1.16,3.29-3.47h2.2l-4.12,4.41,4.59,6.15h-2.11Z"/><path class="cls-3" d="M125.64,165a6.35,6.35,0,0,1,.61-2.79,4.62,4.62,0,0,1,1.7-1.92,4.73,4.73,0,0,1,2.49-.67,4.45,4.45,0,0,1,3.49,1.5,5.72,5.72,0,0,1,1.33,4v.13a6.25,6.25,0,0,1-.59,2.77,4.46,4.46,0,0,1-1.69,1.9,4.63,4.63,0,0,1-2.52.69A4.42,4.42,0,0,1,127,169a5.69,5.69,0,0,1-1.34-3.95Zm1.82.22a4.54,4.54,0,0,0,.81,2.82,2.63,2.63,0,0,0,2.19,1.06,2.58,2.58,0,0,0,2.18-1.08,4.86,4.86,0,0,0,.82-3,4.52,4.52,0,0,0-.83-2.82,2.75,2.75,0,0,0-4.35,0A4.9,4.9,0,0,0,127.46,165.17Z"/><path class="cls-3" d="M140.87,167.88l2.61-8.11h1.85l-3.79,10.56h-1.38l-3.82-10.56h1.84Z"/><path class="cls-3" d="M151.45,170.53a4.61,4.61,0,0,1-3.49-1.41,5.24,5.24,0,0,1-1.35-3.78V165a6.37,6.37,0,0,1,.6-2.81,4.66,4.66,0,0,1,1.68-1.93,4.19,4.19,0,0,1,2.34-.7,3.94,3.94,0,0,1,3.2,1.36,5.88,5.88,0,0,1,1.14,3.89v.75h-7.15a3.73,3.73,0,0,0,.91,2.52,2.86,2.86,0,0,0,2.22,1,3.13,3.13,0,0,0,1.62-.39,4,4,0,0,0,1.16-1l1.11.86A4.45,4.45,0,0,1,151.45,170.53Zm-.22-9.47a2.42,2.42,0,0,0-1.84.79,3.93,3.93,0,0,0-.92,2.23h5.3V164a3.47,3.47,0,0,0-.74-2.14A2.3,2.3,0,0,0,151.23,161.06Zm.88-5.73h2.19l-2.62,2.87h-1.46Z"/><path class="cls-3" d="M164.32,159.77l.06,1.32a3.87,3.87,0,0,1,3.17-1.52q3.34,0,3.38,3.78v7h-1.81v-7a2.47,2.47,0,0,0-.52-1.69,2.12,2.12,0,0,0-1.6-.55,2.6,2.6,0,0,0-1.54.47,3.27,3.27,0,0,0-1,1.23v7.53h-1.8V159.77Z"/><path class="cls-3" d="M178,170.53a4.62,4.62,0,0,1-3.5-1.41,5.24,5.24,0,0,1-1.35-3.78V165a6.37,6.37,0,0,1,.6-2.81,4.66,4.66,0,0,1,1.68-1.93,4.19,4.19,0,0,1,2.34-.7,3.94,3.94,0,0,1,3.2,1.36,5.83,5.83,0,0,1,1.15,3.89v.75H175a3.73,3.73,0,0,0,.91,2.52,2.86,2.86,0,0,0,2.22,1,3.13,3.13,0,0,0,1.62-.39,4.08,4.08,0,0,0,1.17-1l1.1.86A4.44,4.44,0,0,1,178,170.53Zm-.23-9.47a2.42,2.42,0,0,0-1.84.79,3.86,3.86,0,0,0-.91,2.23h5.29V164a3.47,3.47,0,0,0-.74-2.14A2.29,2.29,0,0,0,177.81,161.06Z"/><path class="cls-3" d="M190.77,169.29a3.86,3.86,0,0,1-3.1,1.24,3.3,3.3,0,0,1-2.57-1,4.24,4.24,0,0,1-.89-2.91v-6.87H186v6.82c0,1.6.65,2.4,2,2.4a2.69,2.69,0,0,0,2.75-1.54v-7.68h1.81v10.56h-1.72Z"/><path class="cls-3" d="M197.72,157.21v2.56h2v1.39h-2v6.56a1.45,1.45,0,0,0,.27,1,1.09,1.09,0,0,0,.89.31,4.09,4.09,0,0,0,.86-.11v1.45a5.17,5.17,0,0,1-1.38.2,2.28,2.28,0,0,1-1.83-.73,3.16,3.16,0,0,1-.61-2.08v-6.56H194v-1.39h1.93v-2.56Z"/><path class="cls-3" d="M206.91,161.39a4.94,4.94,0,0,0-.89-.07,2.38,2.38,0,0,0-2.41,1.51v7.5H201.8V159.77h1.76l0,1.22a2.8,2.8,0,0,1,2.52-1.42,1.85,1.85,0,0,1,.8.14Z"/><path class="cls-3" d="M214.71,170.33a3.74,3.74,0,0,1-.26-1.11,4,4,0,0,1-3,1.31,3.73,3.73,0,0,1-2.56-.89,2.83,2.83,0,0,1-1-2.24,3,3,0,0,1,1.25-2.56,5.93,5.93,0,0,1,3.53-.91h1.76v-.83a2,2,0,0,0-.56-1.51,2.27,2.27,0,0,0-1.67-.56,2.69,2.69,0,0,0-1.63.48,1.46,1.46,0,0,0-.65,1.19h-1.82a2.47,2.47,0,0,1,.57-1.53,3.85,3.85,0,0,1,1.52-1.17,5.07,5.07,0,0,1,2.11-.43,4.21,4.21,0,0,1,2.86.91,3.32,3.32,0,0,1,1.08,2.52v4.86a6,6,0,0,0,.37,2.32v.15Zm-3-1.37a3.22,3.22,0,0,0,1.61-.44,2.7,2.7,0,0,0,1.1-1.15v-2.16H213c-2.22,0-3.32.64-3.32,1.94a1.63,1.63,0,0,0,.56,1.33A2.18,2.18,0,0,0,211.71,169Z"/><path class="cls-3" d="M221,170.33h-1.8v-15H221Z"/><path class="cls-3" d="M223.92,157a1.07,1.07,0,0,1,.27-.74,1.22,1.22,0,0,1,1.6,0,1.07,1.07,0,0,1,.27.74,1.07,1.07,0,1,1-2.14,0Zm2,13.37h-1.81V159.77h1.81Z"/><path class="cls-3" d="M231.22,157.21v2.56h2v1.39h-2v6.56a1.51,1.51,0,0,0,.26,1,1.13,1.13,0,0,0,.9.31,4.09,4.09,0,0,0,.86-.11v1.45a5.25,5.25,0,0,1-1.39.2,2.27,2.27,0,0,1-1.82-.73,3.17,3.17,0,0,1-.62-2.08v-6.56h-1.92v-1.39h1.92v-2.56Z"/><path class="cls-3" d="M239.69,170.53a4.62,4.62,0,0,1-3.5-1.41,5.24,5.24,0,0,1-1.35-3.78V165a6.37,6.37,0,0,1,.6-2.81,4.66,4.66,0,0,1,1.68-1.93,4.19,4.19,0,0,1,2.34-.7,3.94,3.94,0,0,1,3.2,1.36,5.83,5.83,0,0,1,1.15,3.89v.75h-7.16a3.73,3.73,0,0,0,.91,2.52,2.86,2.86,0,0,0,2.22,1,3.13,3.13,0,0,0,1.62-.39,4.08,4.08,0,0,0,1.17-1l1.1.86A4.44,4.44,0,0,1,239.69,170.53ZM239.44,157l1.47-1.66h1.56v.1L240,158.11h-1.11l-2.45-2.68v-.1H238Zm0,4.07a2.39,2.39,0,0,0-1.83.79,3.8,3.8,0,0,0-.92,2.23H242V164a3.47,3.47,0,0,0-.74-2.14A2.27,2.27,0,0,0,239.46,161.06Z"/><g id="patch_2" data-name="patch 2"><path class="cls-4" d="M524.42,372.76A164.76,164.76,0,0,0,373.46,142V306.78Z"/></g><g id="patch_3" data-name="patch 3"><path class="cls-4" d="M414.6,466.31a164.75,164.75,0,0,0,109.82-93.55l-151-66Z"/></g><g id="patch_4" data-name="patch 4"><path class="cls-4" d="M326.82,464.8a164.74,164.74,0,0,0,87.78,1.51L373.46,306.78Z"/></g><g id="patch_5" data-name="patch 5"><path class="cls-4" d="M280.24,442.63a164.48,164.48,0,0,0,46.58,22.17l46.64-158Z"/></g><g id="patch_6" data-name="patch 6"><path class="cls-4" d="M254.37,420.64a165.58,165.58,0,0,0,25.87,22l93.22-135.85Z"/></g><g id="patch_7" data-name="patch 7"><path class="cls-4" d="M241.6,405.57q3,4,6.16,7.73t6.61,7.34L373.46,306.78Z"/></g><g id="patch_8" data-name="patch 8"><path class="cls-4" d="M232.06,391.34c1.46,2.45,3,4.87,4.58,7.24s3.25,4.7,5,7l131.86-98.79Z"/></g><g id="patch_9" data-name="patch 9"><path class="cls-4" d="M225.45,379.16c1,2.08,2.07,4.13,3.18,6.16s2.24,4,3.43,6l141.4-84.56Z"/></g><g id="patch_10" data-name="patch 10"><path class="cls-4" d="M221,369.2c.69,1.68,1.41,3.36,2.15,5s1.52,3.31,2.32,4.94l148-72.38Z"/></g><g id="patch_11" data-name="patch 11"><path class="cls-4" d="M211.19,335.31A165.42,165.42,0,0,0,221,369.2l152.48-62.42Z"/></g><g id="patch_12" data-name="patch 12"><path class="cls-5" d="M373.46,142A164.76,164.76,0,0,0,211.19,335.31l162.27-28.53Z"/></g><g id="patch_13" data-name="patch 13"><g class="cls-6"><path class="cls-7" d="M373.46,389.16A82.38,82.38,0,1,0,315.21,365,82.39,82.39,0,0,0,373.46,389.16Z"/></g></g><path class="cls-2" d="M361,283.24l-9.75,22.43H346l9.78-21.19H343.21v-4H361Z"/><path class="cls-2" d="M381.51,305.67H364.23v-3.43l8.15-8.7a19.71,19.71,0,0,0,2.49-3.2,5.13,5.13,0,0,0,.81-2.6,3.88,3.88,0,0,0-.85-2.64,3.08,3.08,0,0,0-2.43-1,3.29,3.29,0,0,0-2.67,1.17,4.56,4.56,0,0,0-1,3.07h-5a8.29,8.29,0,0,1,1.1-4.21,7.79,7.79,0,0,1,3.11-3,9.48,9.48,0,0,1,4.56-1.08,8.91,8.91,0,0,1,6.05,1.87,6.62,6.62,0,0,1,2.16,5.28,8.49,8.49,0,0,1-1,3.82,21.42,21.42,0,0,1-3.33,4.52l-5.73,6h10.84Z"/><path class="cls-2" d="M393.35,285.3a5,5,0,0,1,1.5-3.77,5.49,5.49,0,0,1,3.95-1.45,5.59,5.59,0,0,1,4,1.43,5.1,5.1,0,0,1,1.5,3.87v1.25a4.94,4.94,0,0,1-1.5,3.76,5.52,5.52,0,0,1-4,1.42,5.58,5.58,0,0,1-4-1.43,5,5,0,0,1-1.51-3.85Zm3.32,1.33a2.33,2.33,0,0,0,.6,1.67,2.06,2.06,0,0,0,1.57.63,2,2,0,0,0,1.54-.64,2.47,2.47,0,0,0,.57-1.71V285.3a2.41,2.41,0,0,0-.57-1.68,2.23,2.23,0,0,0-3.12,0,2.5,2.5,0,0,0-.59,1.76Zm3.15,17.15-2.44-1.32,12.32-19.71,2.44,1.32Zm5.58-4.3a4.91,4.91,0,0,1,1.53-3.76,5.5,5.5,0,0,1,3.95-1.43,5.59,5.59,0,0,1,4,1.41,5.06,5.06,0,0,1,1.52,3.89v1.25a5,5,0,0,1-1.49,3.75,6.25,6.25,0,0,1-8,0,5,5,0,0,1-1.51-3.81Zm3.33,1.36a2.33,2.33,0,0,0,.62,1.62,2.05,2.05,0,0,0,1.56.68c1.41,0,2.11-.78,2.11-2.34v-1.32a2.32,2.32,0,0,0-.59-1.67,2.23,2.23,0,0,0-3.11,0,2.41,2.41,0,0,0-.59,1.73Z"/><path class="cls-2" d="M309.58,326.82a1.33,1.33,0,0,0-.55-1.14,5.26,5.26,0,0,0-1.92-.69,9.54,9.54,0,0,1-2.17-.7,3.14,3.14,0,0,1-1.19-1,2.27,2.27,0,0,1-.38-1.34,2.74,2.74,0,0,1,1.09-2.2,4.33,4.33,0,0,1,2.8-.89,4.43,4.43,0,0,1,2.91.92,2.94,2.94,0,0,1,1.12,2.37h-1.81a1.61,1.61,0,0,0-.63-1.27,2.36,2.36,0,0,0-1.59-.54,2.45,2.45,0,0,0-1.54.43,1.34,1.34,0,0,0-.55,1.12,1.1,1.1,0,0,0,.51,1,6.71,6.71,0,0,0,1.87.64,9.67,9.67,0,0,1,2.19.72,3.12,3.12,0,0,1,1.24,1,2.46,2.46,0,0,1,.4,1.43,2.69,2.69,0,0,1-1.13,2.27,4.72,4.72,0,0,1-2.93.85,5.3,5.3,0,0,1-2.24-.45,3.56,3.56,0,0,1-1.52-1.25,3,3,0,0,1-.55-1.74h1.8a1.86,1.86,0,0,0,.72,1.44,2.86,2.86,0,0,0,1.79.53,3,3,0,0,0,1.64-.41A1.27,1.27,0,0,0,309.58,326.82Z"/><path class="cls-2" d="M317.21,327.17l2.61-8.1h1.85l-3.79,10.55h-1.37l-3.82-10.55h1.84Z"/><path class="cls-2" d="M327.77,329.81a4.59,4.59,0,0,1-3.48-1.41,5.2,5.2,0,0,1-1.35-3.76v-.33a6.37,6.37,0,0,1,.6-2.81,4.72,4.72,0,0,1,1.68-1.93,4.21,4.21,0,0,1,2.33-.69,4,4,0,0,1,3.2,1.35,5.89,5.89,0,0,1,1.14,3.88v.75h-7.15a3.73,3.73,0,0,0,.92,2.52,2.86,2.86,0,0,0,2.21,1,3.13,3.13,0,0,0,1.62-.39,4,4,0,0,0,1.16-1l1.1.85A4.43,4.43,0,0,1,327.77,329.81Zm-.24-13.5,1.46-1.66h1.56v.1l-2.47,2.67H327l-2.45-2.67v-.1h1.53Zm0,4.05a2.39,2.39,0,0,0-1.83.79,3.84,3.84,0,0,0-.92,2.23h5.28v-.14a3.4,3.4,0,0,0-.74-2.13A2.27,2.27,0,0,0,327.55,320.36Z"/><path class="cls-2" d="M336.42,316.52v2.55h2v1.4h-2V327a1.48,1.48,0,0,0,.26.95,1.08,1.08,0,0,0,.9.32,4.24,4.24,0,0,0,.85-.12v1.46a5.15,5.15,0,0,1-1.38.19,2.24,2.24,0,0,1-1.82-.73,3.15,3.15,0,0,1-.62-2.08v-6.53H332.7v-1.4h1.91v-2.55Z"/><path class="cls-2" d="M339.82,324.25a6.15,6.15,0,0,1,.61-2.79,4.56,4.56,0,0,1,1.69-1.91,4.61,4.61,0,0,1,2.48-.67,4.44,4.44,0,0,1,3.49,1.49,5.75,5.75,0,0,1,1.33,4v.13a6.29,6.29,0,0,1-.59,2.76,4.55,4.55,0,0,1-1.69,1.91,4.71,4.71,0,0,1-2.52.68,4.43,4.43,0,0,1-3.47-1.49,5.69,5.69,0,0,1-1.33-3.95Zm1.81.21a4.54,4.54,0,0,0,.81,2.82,2.64,2.64,0,0,0,2.18,1.06,2.56,2.56,0,0,0,2.18-1.08,4.92,4.92,0,0,0,.81-3,4.47,4.47,0,0,0-.82-2.81,2.62,2.62,0,0,0-2.19-1.08,2.57,2.57,0,0,0-2.15,1.06A4.87,4.87,0,0,0,341.63,324.46Z"/><path class="cls-2" d="M355,327.17l2.61-8.1h1.84l-3.78,10.55h-1.37l-3.82-10.55h1.84Z"/><path class="cls-2" d="M364.65,327l2.45-7.91H369l-4.24,12.17c-.65,1.76-1.7,2.63-3.13,2.63l-.34,0-.67-.12v-1.46l.49,0a2.48,2.48,0,0,0,1.43-.37,2.7,2.7,0,0,0,.84-1.36l.4-1.07-3.76-10.43h2Zm1-12.33h2.18l-2.61,2.86h-1.45Z"/><path class="cls-2" d="M374.87,328.34a2.59,2.59,0,0,0,1.68-.59,2,2,0,0,0,.8-1.46h1.71a3.21,3.21,0,0,1-.63,1.73,4.06,4.06,0,0,1-1.53,1.3,4.68,4.68,0,0,1-5.46-.95,5.68,5.68,0,0,1-1.27-3.93v-.3a6.3,6.3,0,0,1,.57-2.74,4.21,4.21,0,0,1,1.62-1.86,4.62,4.62,0,0,1,2.5-.66,4.24,4.24,0,0,1,2.95,1.06,3.81,3.81,0,0,1,1.25,2.76h-1.71a2.48,2.48,0,0,0-.77-1.68,2.42,2.42,0,0,0-1.72-.66,2.51,2.51,0,0,0-2.13,1,4.66,4.66,0,0,0-.76,2.86v.34a4.58,4.58,0,0,0,.75,2.81A2.56,2.56,0,0,0,374.87,328.34Z"/><path class="cls-2" d="M382.89,320.35a3.84,3.84,0,0,1,3.12-1.47c2.22,0,3.35,1.25,3.37,3.77v7h-1.81v-7a2.42,2.42,0,0,0-.52-1.69,2.09,2.09,0,0,0-1.59-.54,2.56,2.56,0,0,0-1.54.47,3.14,3.14,0,0,0-1,1.22v7.52h-1.81v-15h1.81Z"/><path class="cls-2" d="M401.39,329.81a4.61,4.61,0,0,1-3.49-1.41,5.24,5.24,0,0,1-1.34-3.76v-.33a6.37,6.37,0,0,1,.6-2.81,4.77,4.77,0,0,1,1.67-1.93,4.26,4.26,0,0,1,2.34-.69,3.94,3.94,0,0,1,3.19,1.35,5.89,5.89,0,0,1,1.14,3.88v.75h-7.14a3.78,3.78,0,0,0,.91,2.52,2.86,2.86,0,0,0,2.22,1,3.16,3.16,0,0,0,1.62-.39,4.18,4.18,0,0,0,1.16-1l1.1.85A4.44,4.44,0,0,1,401.39,329.81Zm-.22-9.45a2.39,2.39,0,0,0-1.83.79,3.84,3.84,0,0,0-.92,2.23h5.28v-.14a3.46,3.46,0,0,0-.74-2.13A2.27,2.27,0,0,0,401.17,320.36Z"/><path class="cls-2" d="M409.28,319.07l.05,1.17a3.91,3.91,0,0,1,3.13-1.36,3,3,0,0,1,3,1.69,4,4,0,0,1,1.37-1.22,4,4,0,0,1,2-.47c2.32,0,3.49,1.22,3.53,3.67v7.07h-1.8v-7A2.38,2.38,0,0,0,420,321a2.24,2.24,0,0,0-1.73-.56,2.34,2.34,0,0,0-2.44,2.21v7h-1.81v-6.91a2,2,0,0,0-2.25-2.3,2.42,2.42,0,0,0-2.43,1.51v7.7h-1.8V319.07Z"/><path class="cls-2" d="M425.09,316.28a1.05,1.05,0,0,1,.27-.74,1,1,0,0,1,.79-.31,1,1,0,0,1,.8.31,1,1,0,0,1-.8,1.76,1,1,0,0,1-.79-.29A1,1,0,0,1,425.09,316.28Zm2,13.34h-1.8V319.07H427Z"/><path class="cls-2" d="M436.06,326.82a1.33,1.33,0,0,0-.55-1.14,5.26,5.26,0,0,0-1.92-.69,9.37,9.37,0,0,1-2.17-.7,3.14,3.14,0,0,1-1.19-1,2.28,2.28,0,0,1-.39-1.34,2.75,2.75,0,0,1,1.1-2.2,4.31,4.31,0,0,1,2.8-.89,4.43,4.43,0,0,1,2.91.92,3,3,0,0,1,1.12,2.37H436a1.63,1.63,0,0,0-.62-1.27,2.36,2.36,0,0,0-1.59-.54,2.45,2.45,0,0,0-1.54.43,1.34,1.34,0,0,0-.55,1.12,1.1,1.1,0,0,0,.51,1,6.71,6.71,0,0,0,1.87.64,9.67,9.67,0,0,1,2.19.72,3.12,3.12,0,0,1,1.24,1,2.46,2.46,0,0,1,.4,1.43,2.69,2.69,0,0,1-1.13,2.27,4.72,4.72,0,0,1-2.93.85,5.3,5.3,0,0,1-2.24-.45,3.65,3.65,0,0,1-1.53-1.25,3.09,3.09,0,0,1-.55-1.74h1.81a1.86,1.86,0,0,0,.72,1.44,2.84,2.84,0,0,0,1.79.53,3,3,0,0,0,1.64-.41A1.29,1.29,0,0,0,436.06,326.82Z"/><path class="cls-2" d="M442.19,314.66h2.18l-2.61,2.86h-1.45Zm0,15h-1.81V319.07h1.81Z"/><polyline class="cls-8" points="261.92 406.89 247.64 420.25 187.5 451.96"/><polyline class="cls-8" points="250.49 390.88 235.27 403.16 173.14 426.54"/><polyline class="cls-8" points="242.43 379.17 226.03 389.83 160.43 403.53"/><polyline class="cls-8" points="236.44 367.87 219.05 376.83 152.56 379.49"/><polyline class="cls-8" points="231.82 353.05 213.49 359.88 144.67 356.17"/><polyline class="cls-8" points="275.99 424.77 264.48 440.58 215.85 473.48"/><polyline class="cls-8" points="309.42 442.84 299.45 460 264.91 498.73"/><polygon points="2.38 366.96 2.38 366.96 2.38 366.96 2.38 366.96"/><path d="M5.71,22.57H9.22c0,1.35.67,1.92,1.75,1.92s1.68-.64,1.68-1.48c0-2.79-6.58-3.12-6.58-8.24,0-2.56,1.8-4.44,4.9-4.44s5,1.85,5,4.95H12.43c0-1.11-.5-1.66-1.48-1.66s-1.42.48-1.42,1.25c0,2.64,6.67,2.81,6.67,8.16,0,2.76-1.94,4.78-5.28,4.78C7.73,27.81,5.71,26,5.71,22.57Z"/><path d="M19,10.67h3.53L24,18.61c.24,1.23.53,3.29.7,4.68h.09c.17-1.39.46-3.45.7-4.68L27,10.67h3.53l-4,16.8H23Z"/><path d="M43.39,24.23v3.24h-8.9V10.67h8.66v3.24H37.9v3.48h4.77v3.12H37.9v3.72ZM37.47,9.06,35.52,5.77h2.14l1.05,1.61,1-1.61h2.13L39.94,9.06Z"/><path d="M57.07,13.91H53.79V27.47H50.28V13.91H47V10.67H57.07Z"/><path d="M60.84,22v-5.9c0-3.6,2-5.74,5.45-5.74s5.45,2.14,5.45,5.74V22c0,3.6-2,5.74-5.45,5.74S60.84,25.62,60.84,22Zm7.37,0v-5.9c0-1.59-.65-2.43-1.92-2.43s-1.92.84-1.92,2.43V22c0,1.59.65,2.43,1.92,2.43S68.21,23.61,68.21,22Z"/><path d="M75.22,10.67h3.53l1.51,7.94c.24,1.23.53,3.29.69,4.68h.1c.17-1.39.46-3.45.7-4.68l1.51-7.94h3.53l-4,16.8H79.2Z"/><path d="M99.65,24.23v3.24h-8.9V10.67h8.66v3.24H94.15v3.48h4.78v3.12H94.15v3.72ZM95.52,9.06H93.27l2.25-3.29h2.71Z"/><path d="M120.48,24.23v3.24h-8.9V10.67h8.66v3.24H115v3.48h4.77v3.12H115v3.72Z"/><path d="M139.66,10.67v16.8h-3.34V23.34c.1-2,.17-4.08.27-6.12l-.12,0L135,21.59l-.84,2.28h-3.36l-.84-2.28-1.51-4.42-.12,0c.07,2,.17,4.08.24,6.12v4.13h-3.31V10.67h3.43L131.28,17c.34.84.91,2.3,1.11,2.93h.09c.19-.63.77-2.09,1.11-2.93l2.64-6.36Z"/><path d="M148.44,10.67v16.8H145V10.67Z"/><path d="M152.78,22.57h3.51c0,1.35.67,1.92,1.75,1.92s1.68-.64,1.68-1.48c0-2.79-6.58-3.12-6.58-8.24,0-2.56,1.8-4.44,4.9-4.44s5,1.85,5,4.95H159.5c0-1.11-.5-1.66-1.48-1.66s-1.42.48-1.42,1.25c0,2.64,6.67,2.81,6.67,8.16,0,2.76-1.94,4.78-5.28,4.78C154.8,27.81,152.78,26,152.78,22.57Z"/><path d="M176.38,24.23v3.24h-8.91V10.67h8.67v3.24h-5.26v3.48h4.78v3.12h-4.78v3.72Z"/><path d="M194.52,24.69H191l-.55,2.78h-3.53l4-16.8h3.65l4,16.8h-3.53Zm-.67-3.24-.39-1.92c-.21-1.2-.5-3.24-.67-4.61h-.09c-.17,1.37-.44,3.41-.68,4.61l-.38,1.92Z"/><path d="M218.21,24.23v3.24h-9.63V25.19l5.33-11.28H209V10.67h9.1V13l-5.28,11.21Z"/><path d="M228.77,24.69h-3.55l-.56,2.78h-3.52l4-16.8h3.65l4,16.8h-3.53ZM227.59,9.06h-2.25l2.25-3.29h2.71Zm.51,12.39-.39-1.92c-.21-1.2-.5-3.24-.67-4.61h-.1c-.16,1.37-.43,3.41-.67,4.61l-.38,1.92Z"/><path d="M234.57,10.67h3.53l1.51,7.94c.25,1.23.53,3.29.7,4.68h.1c.16-1.39.45-3.45.69-4.68l1.51-7.94h3.53l-4,16.8h-3.6Z"/><path d="M255.5,24.69H252l-.55,2.78h-3.53l4-16.8h3.65l4,16.8h-3.52Zm-.67-3.24-.38-1.92c-.22-1.2-.51-3.24-.67-4.61h-.1c-.17,1.37-.43,3.41-.67,4.61l-.39,1.92Z"/><path d="M272,24.23v3.24h-9.62V25.19l5.32-11.28h-4.92V10.67h9.1V13l-5.28,11.21Z"/><path d="M280.63,21.11l-.94,1.51v4.85h-3.36V10.67h3.36V17.1l.87-1.87,2.35-4.56h3.89L282.53,18l5,9.46h-3.84Z"/><path d="M294.36,22.48l-4-11.81h3.53l1.36,4.66c.17.55.56,1.87.72,2.68h.1c.19-.81.58-2.13.77-2.76l1.32-4.58h3.53l-4,11.81v5h-3.41Z"/><path d="M317.11,21.11l-.94,1.51v4.85h-3.36V10.67h3.36V17.1l.87-1.87,2.35-4.56h3.89L319,18l5,9.46h-3.84Z"/><path d="M334.8,22.07V10.67h3.55v11.4c0,1.54.6,2.38,1.8,2.38s1.8-.84,1.8-2.38V10.67h3.55v11.4c0,3.55-2,5.69-5.35,5.69S334.8,25.62,334.8,22.07Z"/><path d="M360.91,10.67v16.8h-3.43V20.63H354v6.84h-3.43V10.67H354v6.72h3.46V10.67Z"/><path d="M374.69,24.23v3.24h-8.4V10.67h3.4V24.23Z"/><path d="M382.13,10.67v16.8h-3.41V10.67Zm-1.08-4.9h2.71l-2.71,3.29h-2.26Z"/><path d="M391.8,21.11l-.94,1.51v4.85H387.5V10.67h3.36V17.1l.87-1.87,2.35-4.56H398L393.69,18l5,9.46h-3.84Z"/><path d="M401.71,22v-5.9c0-3.6,2-5.74,5.45-5.74s5.45,2.14,5.45,5.74V22c0,3.6-2,5.74-5.45,5.74S401.71,25.62,401.71,22Zm7.37,0v-5.9c0-1.59-.65-2.43-1.92-2.43s-1.92.84-1.92,2.43V22c0,1.59.65,2.43,1.92,2.43S409.08,23.61,409.08,22Z"/><path d="M416.09,10.67h3.52l1.52,7.94c.24,1.23.52,3.29.69,4.68h.1c.17-1.39.45-3.45.69-4.68l1.52-7.94h3.52l-4,16.8h-3.6Z"/><path d="M440.52,24.23v3.24h-8.91V10.67h8.67v3.24H435v3.48h4.78v3.12H435v3.72ZM436.39,9.06h-2.26l2.26-3.29h2.71Z"/><path d="M463.15,10.67v16.8h-3.36L457,21l-1.51-4.11-.08.07a66.94,66.94,0,0,1,.44,7.13v3.41h-3.36V10.67h3.36L459,18c.41,1.05.79,2.16,1.2,3.21l.07-.07a57.54,57.54,0,0,1-.48-6.55V10.67Z"/><path d="M477.43,24.23v3.24h-8.9V10.67h8.66v3.24h-5.26v3.48h4.78v3.12h-4.78v3.72Z"/><path d="M481.87,22.07V10.67h3.55v11.4c0,1.54.6,2.38,1.8,2.38s1.8-.84,1.8-2.38V10.67h3.55v11.4c0,3.55-2,5.69-5.35,5.69S481.87,25.62,481.87,22.07Z"/><path d="M506.61,13.91h-3.29V27.47h-3.5V13.91h-3.29V10.67h10.08Z"/><path d="M515.23,21.83H514v5.64h-3.41V10.67h4.87c3.34,0,5.31,2.06,5.31,5.59a5.3,5.3,0,0,1-2.33,4.85l3.17,6.36h-3.72ZM514,18.59h1.41c1.2,0,1.85-.82,1.85-2.33s-.65-2.35-1.85-2.35H514Z"/><path d="M531.86,24.69h-3.55l-.55,2.78h-3.53l4-16.8h3.65l4,16.8h-3.53Zm-.67-3.24-.39-1.92c-.21-1.2-.5-3.24-.67-4.61H530c-.17,1.37-.44,3.41-.68,4.61L529,21.45Z"/><path d="M548.3,24.23v3.24h-8.4V10.67h3.41V24.23Z"/><path d="M555.74,10.67v16.8h-3.41V10.67Z"/><path d="M570.07,13.91h-3.29V27.47h-3.5V13.91H560V10.67h10.08Z"/><path d="M583,24.23v3.24h-8.9V10.67h8.66v3.24h-5.26v3.48h4.78v3.12h-4.78v3.72ZM577.05,9.06l-1.94-3.29h2.13l1.06,1.61,1-1.61h2.14l-2,3.29Z"/><path d="M15.87,48.21,10,61.41H8.09L14,48.67H6.26V47.19h9.61Z"/><path d="M27.24,61.41H17.92v-1.3l4.92-5.47a11.35,11.35,0,0,0,1.51-2,3.3,3.3,0,0,0,.42-1.6,2.57,2.57,0,0,0-.68-1.83,2.36,2.36,0,0,0-1.79-.71,2.77,2.77,0,0,0-2.1.77,2.91,2.91,0,0,0-.75,2.13h-1.8a4.18,4.18,0,0,1,1.26-3.17A4.7,4.7,0,0,1,22.3,47a4.51,4.51,0,0,1,3.13,1,3.56,3.56,0,0,1,1.15,2.77q0,2.1-2.67,5L20.1,59.93h7.14Z"/><path d="M34,49.92a2.87,2.87,0,0,1,.81-2.1,3,3,0,0,1,4.2,0A3,3,0,0,1,39.77,50v.7a2.81,2.81,0,0,1-2.89,2.92,2.83,2.83,0,0,1-2.93-3Zm1.34.75a1.89,1.89,0,0,0,.43,1.26,1.45,1.45,0,0,0,1.16.49A1.4,1.4,0,0,0,38,51.94a1.85,1.85,0,0,0,.43-1.31v-.71A1.88,1.88,0,0,0,38,48.66a1.39,1.39,0,0,0-1.14-.5,1.41,1.41,0,0,0-1.15.5,1.93,1.93,0,0,0-.42,1.3Zm2,9.66-1-.64L43.2,48.58l1,.64Zm3.58-2.41a2.84,2.84,0,0,1,.82-2.1A2.81,2.81,0,0,1,43.78,55a2.88,2.88,0,0,1,2.1.82A3,3,0,0,1,46.7,58v.69a2.88,2.88,0,0,1-.81,2.11,2.82,2.82,0,0,1-2.09.82,2.87,2.87,0,0,1-2.1-.81,2.93,2.93,0,0,1-.83-2.17Zm1.35.76A1.84,1.84,0,0,0,42.65,60a1.43,1.43,0,0,0,1.15.49A1.41,1.41,0,0,0,44.92,60a2,2,0,0,0,.42-1.32v-.72a1.89,1.89,0,0,0-.42-1.27,1.44,1.44,0,0,0-1.14-.49,1.47,1.47,0,0,0-1.13.49A1.88,1.88,0,0,0,42.22,58Z"/><path d="M60,58.61a1.33,1.33,0,0,0-.55-1.14,5.43,5.43,0,0,0-1.92-.7,9.31,9.31,0,0,1-2.18-.7,3.06,3.06,0,0,1-1.19-1,2.33,2.33,0,0,1-.39-1.35,2.73,2.73,0,0,1,1.1-2.19,4.29,4.29,0,0,1,2.81-.9,4.45,4.45,0,0,1,2.91.92A2.94,2.94,0,0,1,61.75,54H59.93a1.63,1.63,0,0,0-.63-1.28,2.35,2.35,0,0,0-1.58-.54,2.46,2.46,0,0,0-1.55.43,1.35,1.35,0,0,0-.55,1.12,1.1,1.1,0,0,0,.51,1,6.71,6.71,0,0,0,1.87.64,9.6,9.6,0,0,1,2.2.72,3.21,3.21,0,0,1,1.24,1,2.47,2.47,0,0,1,.41,1.44,2.7,2.7,0,0,1-1.14,2.27,4.72,4.72,0,0,1-2.93.85,5.32,5.32,0,0,1-2.25-.45A3.58,3.58,0,0,1,54,59.9a3,3,0,0,1-.55-1.74h1.81A1.88,1.88,0,0,0,56,59.6a3.36,3.36,0,0,0,3.44.11A1.26,1.26,0,0,0,60,58.61Z"/><path d="M67.69,59l2.61-8.12h1.85L68.36,61.41H67L63.16,50.84H65Z"/><path d="M78.27,61.6a4.61,4.61,0,0,1-3.49-1.41,5.23,5.23,0,0,1-1.35-3.77v-.33a6.34,6.34,0,0,1,.6-2.81,4.66,4.66,0,0,1,1.68-1.93,4.19,4.19,0,0,1,2.34-.7A4,4,0,0,1,81.25,52a5.9,5.9,0,0,1,1.14,3.89v.75H75.24a3.73,3.73,0,0,0,.91,2.53,2.86,2.86,0,0,0,2.22,1A3.13,3.13,0,0,0,80,59.74a4.08,4.08,0,0,0,1.16-1l1.11.86A4.45,4.45,0,0,1,78.27,61.6ZM78,48.07l1.46-1.66h1.57v.1l-2.48,2.67H77.47L75,46.51v-.1h1.53Zm0,4.06a2.43,2.43,0,0,0-1.84.8,3.91,3.91,0,0,0-.92,2.23h5.3V55a3.42,3.42,0,0,0-.74-2.13A2.28,2.28,0,0,0,78.05,52.13Z"/><path d="M86.94,48.28v2.56h2v1.4h-2V58.8a1.44,1.44,0,0,0,.26,1,1.07,1.07,0,0,0,.9.32A4.32,4.32,0,0,0,89,60v1.46a5.28,5.28,0,0,1-1.39.19,2.25,2.25,0,0,1-1.83-.73,3.15,3.15,0,0,1-.61-2.08V52.24H83.2v-1.4h1.93V48.28Z"/><path d="M90.34,56a6.36,6.36,0,0,1,.61-2.8,4.48,4.48,0,0,1,4.19-2.58,4.47,4.47,0,0,1,3.49,1.49,5.75,5.75,0,0,1,1.33,4v.12A6.22,6.22,0,0,1,99.37,59a4.49,4.49,0,0,1-1.69,1.91,4.62,4.62,0,0,1-2.52.68,4.43,4.43,0,0,1-3.48-1.49,5.72,5.72,0,0,1-1.34-4Zm1.82.21A4.51,4.51,0,0,0,93,59.07a2.77,2.77,0,0,0,4.37,0,5,5,0,0,0,.81-3,4.52,4.52,0,0,0-.83-2.82,2.74,2.74,0,0,0-4.35,0A4.87,4.87,0,0,0,92.16,56.24Z"/><path d="M105.57,59l2.62-8.12H110l-3.79,10.57h-1.38L101,50.84h1.84Z"/><path d="M115.23,58.76l2.46-7.92h1.93L115.37,63c-.66,1.76-1.7,2.64-3.13,2.64l-.34,0-.68-.13V64.06l.49,0a2.38,2.38,0,0,0,1.43-.37,2.73,2.73,0,0,0,.85-1.35l.4-1.08-3.77-10.45h2Zm1-12.35h2.19l-2.62,2.87h-1.45Z"/><path d="M125.47,60.13a2.62,2.62,0,0,0,1.69-.59,2.06,2.06,0,0,0,.8-1.46h1.71a3.24,3.24,0,0,1-.63,1.73,4.17,4.17,0,0,1-1.53,1.31,4.5,4.5,0,0,1-2,.48A4.35,4.35,0,0,1,122,60.16a5.73,5.73,0,0,1-1.28-3.94v-.3a6.3,6.3,0,0,1,.57-2.74A4.32,4.32,0,0,1,123,51.31a4.62,4.62,0,0,1,2.5-.66,4.21,4.21,0,0,1,3,1.06,3.78,3.78,0,0,1,1.26,2.77H128a2.47,2.47,0,0,0-.78-1.69,2.4,2.4,0,0,0-1.72-.66,2.51,2.51,0,0,0-2.13,1,4.63,4.63,0,0,0-.76,2.87v.34a4.54,4.54,0,0,0,.75,2.81A2.54,2.54,0,0,0,125.47,60.13Z"/><path d="M133.51,52.12a3.84,3.84,0,0,1,3.12-1.47c2.24,0,3.36,1.26,3.38,3.78v7H138.2v-7a2.39,2.39,0,0,0-.52-1.69,2.06,2.06,0,0,0-1.59-.55,2.65,2.65,0,0,0-1.55.47,3.18,3.18,0,0,0-1,1.23v7.53H131.7v-15h1.81Z"/><path d="M152.05,61.6a4.6,4.6,0,0,1-3.49-1.41,5.23,5.23,0,0,1-1.35-3.77v-.33a6.34,6.34,0,0,1,.6-2.81,4.66,4.66,0,0,1,1.68-1.93,4.19,4.19,0,0,1,2.34-.7A4,4,0,0,1,155,52a5.9,5.9,0,0,1,1.14,3.89v.75H149a3.73,3.73,0,0,0,.91,2.53,2.86,2.86,0,0,0,2.22,1,3.13,3.13,0,0,0,1.62-.39,4.08,4.08,0,0,0,1.16-1l1.11.86A4.45,4.45,0,0,1,152.05,61.6Zm-.22-9.47a2.43,2.43,0,0,0-1.84.8,3.91,3.91,0,0,0-.92,2.23h5.3V55a3.42,3.42,0,0,0-.75-2.13A2.24,2.24,0,0,0,151.83,52.13Z"/><path d="M160,50.84,160,52a3.91,3.91,0,0,1,3.14-1.36,3,3,0,0,1,3,1.7,4,4,0,0,1,1.38-1.23,3.93,3.93,0,0,1,2-.47c2.32,0,3.5,1.22,3.54,3.68v7.08h-1.81v-7a2.42,2.42,0,0,0-.52-1.7,2.27,2.27,0,0,0-1.73-.56,2.39,2.39,0,0,0-1.67.6,2.45,2.45,0,0,0-.78,1.62v7h-1.81V54.48a2,2,0,0,0-2.26-2.3,2.43,2.43,0,0,0-2.43,1.51v7.72h-1.81V50.84Z"/><path d="M175.8,48a1.07,1.07,0,0,1,.27-.74,1.19,1.19,0,0,1,1.6,0,1.07,1.07,0,0,1,.27.74,1.07,1.07,0,1,1-2.14,0Zm2,13.37H176V50.84h1.81Z"/><path d="M186.8,58.61a1.35,1.35,0,0,0-.55-1.14,5.42,5.42,0,0,0-1.93-.7,9.37,9.37,0,0,1-2.17-.7,3.17,3.17,0,0,1-1.2-1,2.4,2.4,0,0,1-.38-1.35,2.7,2.7,0,0,1,1.1-2.19,4.28,4.28,0,0,1,2.8-.9,4.48,4.48,0,0,1,2.92.92A3,3,0,0,1,188.51,54h-1.82a1.63,1.63,0,0,0-.63-1.28,2.36,2.36,0,0,0-1.59-.54,2.45,2.45,0,0,0-1.54.43,1.36,1.36,0,0,0-.56,1.12,1.11,1.11,0,0,0,.52,1,6.71,6.71,0,0,0,1.87.64A9.67,9.67,0,0,1,187,56a3.25,3.25,0,0,1,1.25,1,2.47,2.47,0,0,1,.41,1.44,2.7,2.7,0,0,1-1.14,2.27,4.73,4.73,0,0,1-2.94.85,5.3,5.3,0,0,1-2.24-.45,3.58,3.58,0,0,1-1.53-1.25,3,3,0,0,1-.55-1.74H182a1.92,1.92,0,0,0,.73,1.44,2.84,2.84,0,0,0,1.79.53,2.9,2.9,0,0,0,1.65-.42A1.26,1.26,0,0,0,186.8,58.61Z"/><path d="M192.94,46.42h2.19l-2.62,2.87h-1.45Zm0,15h-1.81V50.84h1.81Z"/><path d="M211.59,56.9a5.23,5.23,0,0,1-1.66,3.48,5.46,5.46,0,0,1-3.73,1.22,5,5,0,0,1-4-1.8A7.3,7.3,0,0,1,200.65,55V53.6a8.11,8.11,0,0,1,.7-3.49,5.42,5.42,0,0,1,2-2.31,5.58,5.58,0,0,1,3-.81A5.15,5.15,0,0,1,210,48.26a5.29,5.29,0,0,1,1.59,3.5h-1.88a4.09,4.09,0,0,0-1.06-2.47,3.19,3.19,0,0,0-2.28-.76,3.35,3.35,0,0,0-2.82,1.33,6.08,6.08,0,0,0-1,3.78V55a6.22,6.22,0,0,0,1,3.68,3.11,3.11,0,0,0,2.7,1.37,3.64,3.64,0,0,0,2.4-.71,3.88,3.88,0,0,0,1.11-2.46Z"/><path d="M225.09,54.76a8.8,8.8,0,0,1-.7,3.65,5.33,5.33,0,0,1-2,2.37,5.5,5.5,0,0,1-8-2.35,8.53,8.53,0,0,1-.74-3.54v-1a8.57,8.57,0,0,1,.72-3.62,5.27,5.27,0,0,1,5-3.25,5.51,5.51,0,0,1,3,.83,5.34,5.34,0,0,1,2,2.39,8.84,8.84,0,0,1,.7,3.65Zm-1.87-.92a6.34,6.34,0,0,0-1-3.88,3.36,3.36,0,0,0-2.84-1.35,3.31,3.31,0,0,0-2.8,1.35,6.23,6.23,0,0,0-1,3.75v1a6.35,6.35,0,0,0,1,3.85,3.61,3.61,0,0,0,5.65.08,6.38,6.38,0,0,0,1-3.79Z"/><path d="M232.37,66.07h-5.43v-.76l2.87-3.19a6.5,6.5,0,0,0,.88-1.17,2,2,0,0,0,.24-.94,1.47,1.47,0,0,0-.39-1.06,1.36,1.36,0,0,0-1-.42,1.62,1.62,0,0,0-1.22.45,1.71,1.71,0,0,0-.44,1.24h-1.05a2.46,2.46,0,0,1,.74-1.85,2.73,2.73,0,0,1,2-.7,2.65,2.65,0,0,1,1.83.6,2.07,2.07,0,0,1,.67,1.62,4.75,4.75,0,0,1-1.56,2.91l-2.22,2.41h4.16Z"/><path d="M248,56.24a6.3,6.3,0,0,1-1.1,3.89,3.54,3.54,0,0,1-3,1.47,3.87,3.87,0,0,1-3-1.22v5.09h-1.8V50.84h1.65l.09,1.17a3.7,3.7,0,0,1,3.06-1.36,3.6,3.6,0,0,1,3,1.43,6.41,6.41,0,0,1,1.11,4Zm-1.8-.2a4.65,4.65,0,0,0-.77-2.82,2.42,2.42,0,0,0-2.09-1,2.67,2.67,0,0,0-2.46,1.46v5a2.66,2.66,0,0,0,2.48,1.45,2.44,2.44,0,0,0,2.07-1A5.11,5.11,0,0,0,246.24,56Z"/><path d="M249.86,56a6.22,6.22,0,0,1,.61-2.8,4.48,4.48,0,0,1,4.18-2.58,4.49,4.49,0,0,1,3.5,1.49,5.8,5.8,0,0,1,1.33,4v.12a6.36,6.36,0,0,1-.59,2.77,4.55,4.55,0,0,1-1.69,1.91,4.65,4.65,0,0,1-2.53.68,4.43,4.43,0,0,1-3.48-1.49,5.72,5.72,0,0,1-1.33-4Zm1.82.21a4.57,4.57,0,0,0,.81,2.83,2.62,2.62,0,0,0,2.18,1.06,2.59,2.59,0,0,0,2.19-1.08,5,5,0,0,0,.81-3,4.52,4.52,0,0,0-.82-2.82,2.63,2.63,0,0,0-2.2-1.08,2.58,2.58,0,0,0-2.15,1.07A4.87,4.87,0,0,0,251.68,56.24Z"/><path d="M266,60.13a2.6,2.6,0,0,0,1.69-.59,2.06,2.06,0,0,0,.8-1.46h1.71a3.31,3.31,0,0,1-.62,1.73A4.29,4.29,0,0,1,268,61.12a4.5,4.5,0,0,1-2,.48,4.35,4.35,0,0,1-3.43-1.44,5.73,5.73,0,0,1-1.27-3.94v-.3a6.3,6.3,0,0,1,.56-2.74,4.32,4.32,0,0,1,1.63-1.87,4.62,4.62,0,0,1,2.5-.66,4.25,4.25,0,0,1,3,1.06,3.81,3.81,0,0,1,1.25,2.77h-1.71a2.5,2.5,0,0,0-.77-1.69,2.43,2.43,0,0,0-1.73-.66,2.51,2.51,0,0,0-2.13,1,4.63,4.63,0,0,0-.76,2.87v.34a4.54,4.54,0,0,0,.75,2.81A2.55,2.55,0,0,0,266,60.13Z"/><path d="M274,52.12a3.84,3.84,0,0,1,3.12-1.47c2.24,0,3.36,1.26,3.38,3.78v7h-1.8v-7a2.39,2.39,0,0,0-.53-1.69,2.06,2.06,0,0,0-1.59-.55,2.65,2.65,0,0,0-1.55.47,3.18,3.18,0,0,0-1,1.23v7.53h-1.81v-15H274Z"/><path d="M289.75,61.41a3.81,3.81,0,0,1-.25-1.11,4,4,0,0,1-3,1.3,3.7,3.7,0,0,1-2.56-.88,2.86,2.86,0,0,1-1-2.24,3,3,0,0,1,1.25-2.56,5.91,5.91,0,0,1,3.53-.92h1.76v-.83a2,2,0,0,0-.57-1.51,2.28,2.28,0,0,0-1.67-.56,2.69,2.69,0,0,0-1.62.49,1.46,1.46,0,0,0-.65,1.18h-1.82a2.51,2.51,0,0,1,.56-1.53,3.78,3.78,0,0,1,1.53-1.16,5,5,0,0,1,2.11-.43,4.16,4.16,0,0,1,2.86.91,3.32,3.32,0,0,1,1.08,2.51v4.87a5.87,5.87,0,0,0,.37,2.31v.16Zm-3-1.38a3.13,3.13,0,0,0,1.62-.44,2.68,2.68,0,0,0,1.1-1.14V56.28h-1.42c-2.21,0-3.32.65-3.32,1.95a1.63,1.63,0,0,0,.57,1.32A2.17,2.17,0,0,0,286.75,60Zm1.67-13.62h2.19L288,49.28h-1.45Z"/><path d="M295.81,59.93H302v1.48H293.6V60.08l5.83-7.74h-5.74v-1.5h8v1.28Z"/><path d="M306,46.42h2.19l-2.62,2.87h-1.45Zm0,15h-1.81V50.84H306Z"/><path d="M315.61,59.93h6.18v1.48H313.4V60.08l5.83-7.74h-5.74v-1.5h8v1.28Z"/><path d="M328.21,61.6a4.63,4.63,0,0,1-3.5-1.41,5.22,5.22,0,0,1-1.34-3.77v-.33a6.34,6.34,0,0,1,.6-2.81,4.66,4.66,0,0,1,1.68-1.93,4.14,4.14,0,0,1,2.33-.7A4,4,0,0,1,331.19,52a5.9,5.9,0,0,1,1.14,3.89v.75h-7.16a3.74,3.74,0,0,0,.92,2.53,2.86,2.86,0,0,0,2.22,1,3.16,3.16,0,0,0,1.62-.39,4.08,4.08,0,0,0,1.16-1l1.1.86A4.43,4.43,0,0,1,328.21,61.6ZM328,52.13a2.41,2.41,0,0,0-1.83.8,3.84,3.84,0,0,0-.92,2.23h5.29V55a3.42,3.42,0,0,0-.74-2.13A2.25,2.25,0,0,0,328,52.13Z"/><path d="M345.52,58.61a1.33,1.33,0,0,0-.55-1.14,5.43,5.43,0,0,0-1.92-.7,9.47,9.47,0,0,1-2.18-.7,3.14,3.14,0,0,1-1.19-1,2.33,2.33,0,0,1-.39-1.35,2.73,2.73,0,0,1,1.1-2.19,4.29,4.29,0,0,1,2.81-.9,4.43,4.43,0,0,1,2.91.92A2.94,2.94,0,0,1,347.23,54h-1.81a1.63,1.63,0,0,0-.63-1.28,2.36,2.36,0,0,0-1.59-.54,2.43,2.43,0,0,0-1.54.43,1.36,1.36,0,0,0-.56,1.12,1.09,1.09,0,0,0,.52,1,6.59,6.59,0,0,0,1.87.64,9.67,9.67,0,0,1,2.19.72,3.21,3.21,0,0,1,1.24,1,2.47,2.47,0,0,1,.41,1.44,2.72,2.72,0,0,1-1.13,2.27,4.77,4.77,0,0,1-2.94.85,5.32,5.32,0,0,1-2.25-.45,3.58,3.58,0,0,1-1.53-1.25,3.09,3.09,0,0,1-.55-1.74h1.81a1.86,1.86,0,0,0,.73,1.44,3.35,3.35,0,0,0,3.43.11A1.24,1.24,0,0,0,345.52,58.61Z"/><path d="M352.13,48.28v2.56h2v1.4h-2V58.8a1.44,1.44,0,0,0,.27,1,1.07,1.07,0,0,0,.9.32,4.32,4.32,0,0,0,.86-.12v1.46a5.28,5.28,0,0,1-1.39.19,2.25,2.25,0,0,1-1.83-.73,3.15,3.15,0,0,1-.61-2.08V52.24H348.4v-1.4h1.93V48.28Z"/><path d="M362.74,61.41a3.81,3.81,0,0,1-.25-1.11,4,4,0,0,1-3,1.3,3.7,3.7,0,0,1-2.56-.88,2.86,2.86,0,0,1-1-2.24,3,3,0,0,1,1.26-2.56A5.91,5.91,0,0,1,360.7,55h1.76v-.83a2,2,0,0,0-.57-1.51,2.29,2.29,0,0,0-1.67-.56,2.69,2.69,0,0,0-1.62.49,1.43,1.43,0,0,0-.65,1.18h-1.82a2.51,2.51,0,0,1,.56-1.53,3.81,3.81,0,0,1,1.52-1.16,5.12,5.12,0,0,1,2.12-.43,4.16,4.16,0,0,1,2.86.91,3.27,3.27,0,0,1,1.07,2.51v4.87a6.05,6.05,0,0,0,.37,2.31v.16Zm-3-1.38a3.07,3.07,0,0,0,1.61-.44,2.65,2.65,0,0,0,1.11-1.14V56.28H361c-2.21,0-3.32.65-3.32,1.95a1.63,1.63,0,0,0,.57,1.32A2.15,2.15,0,0,0,359.74,60Zm1.67-13.62h2.19L361,49.28h-1.45Z"/><path d="M369.55,48.28v2.56h2v1.4h-2V58.8a1.44,1.44,0,0,0,.26,1,1.1,1.1,0,0,0,.9.32,4.32,4.32,0,0,0,.86-.12v1.46a5.28,5.28,0,0,1-1.39.19,2.23,2.23,0,0,1-1.82-.73,3.09,3.09,0,0,1-.62-2.08V52.24h-1.92v-1.4h1.92V48.28Z"/><path d="M380.15,60.36a3.81,3.81,0,0,1-3.09,1.24,3.28,3.28,0,0,1-2.58-1,4.24,4.24,0,0,1-.89-2.9V50.84h1.81v6.83q0,2.4,2,2.4a2.69,2.69,0,0,0,2.75-1.54V50.84h1.81V61.41h-1.72Zm-.25-12.81a1.85,1.85,0,0,1-.61,1.42,2.25,2.25,0,0,1-3,0,1.9,1.9,0,0,1-.6-1.42,1.93,1.93,0,0,1,.6-1.43,2.18,2.18,0,0,1,3,0A1.93,1.93,0,0,1,379.9,47.55Zm-3.23,0a1.11,1.11,0,0,0,1.13,1.12,1.09,1.09,0,0,0,.8-.32,1.06,1.06,0,0,0,.33-.8,1.1,1.1,0,0,0-.33-.81,1.12,1.12,0,0,0-1.61,0A1.12,1.12,0,0,0,376.67,47.55Z"/><path d="M384.6,64.24l-1-.7a4.75,4.75,0,0,0,1-2.64V59.27h1.76v1.42a4.5,4.5,0,0,1-.48,2A4.68,4.68,0,0,1,384.6,64.24Z"/><path d="M396.48,56.52l-1.13,1.18v3.71h-1.81v-15h1.81v9.07l1-1.16,3.3-3.48h2.19l-4.11,4.42,4.59,6.15h-2.12Z"/><path d="M406.12,48.28v2.56h2v1.4h-2V58.8a1.49,1.49,0,0,0,.26,1,1.1,1.1,0,0,0,.9.32,4.23,4.23,0,0,0,.86-.12v1.46a5.28,5.28,0,0,1-1.39.19,2.24,2.24,0,0,1-1.82-.73,3.15,3.15,0,0,1-.62-2.08V52.24h-1.92v-1.4h1.92V48.28Z"/><path d="M414.59,61.6a4.62,4.62,0,0,1-3.5-1.41,5.23,5.23,0,0,1-1.35-3.77v-.33a6.34,6.34,0,0,1,.6-2.81A4.66,4.66,0,0,1,412,51.35a4.19,4.19,0,0,1,2.34-.7,4,4,0,0,1,3.2,1.35,5.84,5.84,0,0,1,1.15,3.89v.75h-7.16a3.73,3.73,0,0,0,.91,2.53,2.86,2.86,0,0,0,2.22,1,3.13,3.13,0,0,0,1.62-.39,4.12,4.12,0,0,0,1.17-1l1.1.86A4.44,4.44,0,0,1,414.59,61.6Zm-.23-9.47a2.39,2.39,0,0,0-1.83.8,3.78,3.78,0,0,0-.92,2.23h5.29V55a3.42,3.42,0,0,0-.74-2.13A2.25,2.25,0,0,0,414.36,52.13Z"/><path d="M425.9,52.46a6.13,6.13,0,0,0-.89-.06,2.38,2.38,0,0,0-2.41,1.51v7.5h-1.8V50.84h1.75l0,1.22a2.83,2.83,0,0,1,2.52-1.41,1.87,1.87,0,0,1,.8.13Z"/><path d="M432,61.6a4.63,4.63,0,0,1-3.5-1.41,5.23,5.23,0,0,1-1.35-3.77v-.33a6.21,6.21,0,0,1,.61-2.81,4.71,4.71,0,0,1,1.67-1.93,4.19,4.19,0,0,1,2.34-.7A4,4,0,0,1,434.93,52a5.9,5.9,0,0,1,1.14,3.89v.75h-7.16a3.78,3.78,0,0,0,.91,2.53,2.9,2.9,0,0,0,2.23,1,3.19,3.19,0,0,0,1.62-.39,4.08,4.08,0,0,0,1.16-1l1.1.86A4.43,4.43,0,0,1,432,61.6Zm-.23-9.47a2.39,2.39,0,0,0-1.83.8,3.84,3.84,0,0,0-.92,2.23h5.29V55a3.42,3.42,0,0,0-.74-2.13A2.25,2.25,0,0,0,431.72,52.13Zm.88-5.72h2.19l-2.62,2.87h-1.45Z"/><path d="M449.26,58.61a1.33,1.33,0,0,0-.55-1.14,5.43,5.43,0,0,0-1.92-.7,9.47,9.47,0,0,1-2.18-.7,3.06,3.06,0,0,1-1.19-1,2.33,2.33,0,0,1-.39-1.35,2.73,2.73,0,0,1,1.1-2.19,4.29,4.29,0,0,1,2.81-.9,4.43,4.43,0,0,1,2.91.92A2.94,2.94,0,0,1,451,54h-1.81a1.63,1.63,0,0,0-.63-1.28,2.36,2.36,0,0,0-1.59-.54,2.43,2.43,0,0,0-1.54.43,1.33,1.33,0,0,0-.56,1.12,1.09,1.09,0,0,0,.52,1,6.59,6.59,0,0,0,1.87.64,9.67,9.67,0,0,1,2.19.72,3.21,3.21,0,0,1,1.24,1,2.47,2.47,0,0,1,.41,1.44,2.72,2.72,0,0,1-1.13,2.27,4.77,4.77,0,0,1-2.94.85,5.32,5.32,0,0,1-2.25-.45,3.58,3.58,0,0,1-1.53-1.25,3,3,0,0,1-.55-1.74h1.81a1.86,1.86,0,0,0,.73,1.44,3.35,3.35,0,0,0,3.43.11A1.24,1.24,0,0,0,449.26,58.61Z"/><path d="M455.12,50.84l.05,1.17a3.91,3.91,0,0,1,3.14-1.36,3,3,0,0,1,3,1.7,4,4,0,0,1,3.37-1.7c2.32,0,3.5,1.22,3.54,3.68v7.08h-1.81v-7a2.42,2.42,0,0,0-.52-1.7,2.27,2.27,0,0,0-1.73-.56,2.38,2.38,0,0,0-1.67.6,2.45,2.45,0,0,0-.78,1.62v7h-1.81V54.48a2,2,0,0,0-2.26-2.3,2.43,2.43,0,0,0-2.43,1.51v7.72h-1.81V50.84Z"/><path d="M475.34,61.6a4.62,4.62,0,0,1-3.5-1.41,5.23,5.23,0,0,1-1.35-3.77v-.33a6.34,6.34,0,0,1,.6-2.81,4.66,4.66,0,0,1,1.68-1.93,4.19,4.19,0,0,1,2.34-.7A4,4,0,0,1,478.32,52a5.9,5.9,0,0,1,1.14,3.89v.75H472.3a3.78,3.78,0,0,0,.91,2.53,2.89,2.89,0,0,0,2.22,1,3.2,3.2,0,0,0,1.63-.39,4.08,4.08,0,0,0,1.16-1l1.1.86A4.43,4.43,0,0,1,475.34,61.6Zm-.25-13.53,1.47-1.66h1.56v.1l-2.48,2.67h-1.1l-2.45-2.67v-.1h1.53Zm0,4.06a2.39,2.39,0,0,0-1.83.8,3.84,3.84,0,0,0-.92,2.23h5.29V55a3.42,3.42,0,0,0-.74-2.13A2.25,2.25,0,0,0,475.11,52.13Z"/><path d="M484.16,48.07l1.46-1.66h1.56v.1l-2.48,2.67h-1.1l-2.45-2.67v-.1h1.53Zm2.5,4.39a6.23,6.23,0,0,0-.89-.06,2.39,2.39,0,0,0-2.42,1.51v7.5h-1.8V50.84h1.76l0,1.22a2.81,2.81,0,0,1,2.51-1.41,1.92,1.92,0,0,1,.81.13Z"/><path d="M494.84,60.36a3.83,3.83,0,0,1-3.1,1.24,3.27,3.27,0,0,1-2.57-1,4.19,4.19,0,0,1-.89-2.9V50.84h1.8v6.83c0,1.6.65,2.4,2,2.4a2.7,2.7,0,0,0,2.75-1.54V50.84h1.81V61.41h-1.72Z"/><path d="M501.21,50.84V62.63c0,2-.92,3.05-2.77,3.05a3.3,3.3,0,0,1-1.1-.18V64.07a3.67,3.67,0,0,0,.82.07,1.25,1.25,0,0,0,.92-.32,1.63,1.63,0,0,0,.32-1.14V50.84Zm-2-2.8a1.09,1.09,0,0,1,.27-.74,1,1,0,0,1,.79-.31,1,1,0,0,1,.8.31,1.07,1.07,0,0,1,.27.74,1,1,0,0,1-1.07,1,1,1,0,0,1-.79-.3A1,1,0,0,1,499.21,48Z"/><path d="M506.1,46.42h2.19l-2.62,2.87h-1.46Zm0,15h-1.82V50.84h1.82Z"/><path d="M517,56.52l-1.13,1.18v3.71H514v-15h1.81v9.07l1-1.16,3.29-3.48h2.2l-4.11,4.42,4.59,6.15h-2.12Z"/><path d="M535.62,60.36a3.83,3.83,0,0,1-3.1,1.24,3.27,3.27,0,0,1-2.57-1,4.19,4.19,0,0,1-.89-2.9V50.84h1.8v6.83c0,1.6.66,2.4,2,2.4a2.69,2.69,0,0,0,2.75-1.54V50.84h1.81V61.41h-1.72Z"/><path d="M541.93,52.12a3.84,3.84,0,0,1,3.12-1.47c2.24,0,3.36,1.26,3.38,3.78v7h-1.8v-7a2.39,2.39,0,0,0-.53-1.69,2.06,2.06,0,0,0-1.59-.55,2.65,2.65,0,0,0-1.55.47,3.18,3.18,0,0,0-1,1.23v7.53h-1.81v-15h1.81Z"/><path d="M553.1,61.41h-1.81v-15h1.81Z"/><path d="M558,46.42h2.19l-2.62,2.87h-1.45Zm0,15h-1.81V50.84H558Z"/><path d="M563.88,56.52l-1.13,1.18v3.71h-1.81v-15h1.81v9.07l1-1.16L567,50.84h2.19l-4.11,4.42,4.59,6.15h-2.12Z"/><path d="M570.59,56a6.22,6.22,0,0,1,.61-2.8,4.58,4.58,0,0,1,1.7-1.91,4.64,4.64,0,0,1,2.49-.67,4.48,4.48,0,0,1,3.49,1.49,5.75,5.75,0,0,1,1.33,4v.12a6.36,6.36,0,0,1-.59,2.77,4.49,4.49,0,0,1-1.69,1.91,4.62,4.62,0,0,1-2.52.68,4.44,4.44,0,0,1-3.49-1.49,5.76,5.76,0,0,1-1.33-4Zm1.82.21a4.57,4.57,0,0,0,.81,2.83,2.64,2.64,0,0,0,2.19,1.06,2.59,2.59,0,0,0,2.18-1.08,5,5,0,0,0,.81-3,4.52,4.52,0,0,0-.82-2.82,2.62,2.62,0,0,0-2.19-1.08,2.58,2.58,0,0,0-2.16,1.07A4.87,4.87,0,0,0,572.41,56.24Z"/><path d="M585.82,59l2.61-8.12h1.85l-3.79,10.57h-1.38l-3.83-10.57h1.85Z"/><path d="M596.4,61.6a4.6,4.6,0,0,1-3.49-1.41,5.23,5.23,0,0,1-1.35-3.77v-.33a6.34,6.34,0,0,1,.6-2.81,4.66,4.66,0,0,1,1.68-1.93,4.19,4.19,0,0,1,2.34-.7,4,4,0,0,1,3.2,1.35,5.9,5.9,0,0,1,1.14,3.89v.75h-7.16a3.74,3.74,0,0,0,.92,2.53,2.86,2.86,0,0,0,2.22,1,3.13,3.13,0,0,0,1.62-.39,4.08,4.08,0,0,0,1.16-1l1.11.86A4.45,4.45,0,0,1,596.4,61.6Zm-.22-9.47a2.43,2.43,0,0,0-1.84.8,3.91,3.91,0,0,0-.92,2.23h5.3V55a3.42,3.42,0,0,0-.75-2.13A2.24,2.24,0,0,0,596.18,52.13Zm.88-5.72h2.18l-2.61,2.87h-1.46Z"/><path d="M609.27,50.84l.06,1.33a3.84,3.84,0,0,1,3.17-1.52q3.35,0,3.37,3.78v7h-1.8v-7a2.44,2.44,0,0,0-.52-1.69,2.1,2.1,0,0,0-1.6-.55,2.6,2.6,0,0,0-1.54.47,3.12,3.12,0,0,0-1,1.23v7.53h-1.81V50.84Z"/><path d="M623,61.6a4.61,4.61,0,0,1-3.49-1.41,5.23,5.23,0,0,1-1.35-3.77v-.33a6.34,6.34,0,0,1,.6-2.81,4.66,4.66,0,0,1,1.68-1.93,4.19,4.19,0,0,1,2.34-.7A4,4,0,0,1,626,52a5.9,5.9,0,0,1,1.14,3.89v.75H620a3.73,3.73,0,0,0,.91,2.53,2.86,2.86,0,0,0,2.22,1,3.13,3.13,0,0,0,1.62-.39,4.08,4.08,0,0,0,1.16-1l1.11.86A4.45,4.45,0,0,1,623,61.6Zm-.22-9.47a2.43,2.43,0,0,0-1.84.8,3.83,3.83,0,0,0-.91,2.23h5.29V55a3.42,3.42,0,0,0-.74-2.13A2.28,2.28,0,0,0,622.76,52.13Z"/><path d="M635.72,60.36a3.85,3.85,0,0,1-3.1,1.24,3.27,3.27,0,0,1-2.57-1,4.19,4.19,0,0,1-.89-2.9V50.84H631v6.83c0,1.6.65,2.4,2,2.4a2.7,2.7,0,0,0,2.75-1.54V50.84h1.81V61.41h-1.72Z"/><path d="M642.67,48.28v2.56h2v1.4h-2V58.8a1.49,1.49,0,0,0,.26,1,1.1,1.1,0,0,0,.9.32,4.23,4.23,0,0,0,.86-.12v1.46a5.15,5.15,0,0,1-1.38.19,2.25,2.25,0,0,1-1.83-.73,3.15,3.15,0,0,1-.62-2.08V52.24h-1.92v-1.4h1.92V48.28Z"/><path d="M651.86,52.46a6.13,6.13,0,0,0-.89-.06,2.38,2.38,0,0,0-2.41,1.51v7.5h-1.81V50.84h1.76l0,1.22a2.81,2.81,0,0,1,2.52-1.41,1.87,1.87,0,0,1,.8.13Z"/><path d="M659.65,61.41a3.81,3.81,0,0,1-.25-1.11,4,4,0,0,1-3,1.3,3.72,3.72,0,0,1-2.56-.88,2.86,2.86,0,0,1-1-2.24,3,3,0,0,1,1.25-2.56,5.93,5.93,0,0,1,3.53-.92h1.76v-.83a2,2,0,0,0-.57-1.51,2.28,2.28,0,0,0-1.67-.56,2.69,2.69,0,0,0-1.62.49,1.46,1.46,0,0,0-.65,1.18H653a2.51,2.51,0,0,1,.56-1.53,3.84,3.84,0,0,1,1.53-1.16,5,5,0,0,1,2.11-.43,4.16,4.16,0,0,1,2.86.91,3.32,3.32,0,0,1,1.08,2.51v4.87a5.87,5.87,0,0,0,.37,2.31v.16Zm-3-1.38a3.13,3.13,0,0,0,1.61-.44,2.68,2.68,0,0,0,1.1-1.14V56.28H658c-2.21,0-3.32.65-3.32,1.95a1.63,1.63,0,0,0,.57,1.32A2.18,2.18,0,0,0,656.66,60Z"/><path d="M666,61.41h-1.8v-15H666Z"/><path d="M668.87,48a1.07,1.07,0,0,1,.27-.74,1,1,0,0,1,.8-.31,1,1,0,0,1,.8.31A1.07,1.07,0,0,1,671,48a1,1,0,0,1-.27.73,1,1,0,0,1-.8.3,1,1,0,0,1-1.07-1Zm2,13.37H669V50.84h1.81Z"/><path d="M676.17,48.28v2.56h2v1.4h-2V58.8a1.49,1.49,0,0,0,.26,1,1.1,1.1,0,0,0,.9.32,4.32,4.32,0,0,0,.86-.12v1.46a5.28,5.28,0,0,1-1.39.19,2.23,2.23,0,0,1-1.82-.73,3.15,3.15,0,0,1-.62-2.08V52.24h-1.92v-1.4h1.92V48.28Z"/><path d="M684.63,61.6a4.61,4.61,0,0,1-3.49-1.41,5.23,5.23,0,0,1-1.35-3.77v-.33a6.34,6.34,0,0,1,.6-2.81,4.66,4.66,0,0,1,1.68-1.93,4.19,4.19,0,0,1,2.34-.7,4,4,0,0,1,3.2,1.35,5.9,5.9,0,0,1,1.15,3.89v.75H681.6a3.73,3.73,0,0,0,.91,2.53,2.86,2.86,0,0,0,2.22,1,3.13,3.13,0,0,0,1.62-.39,4,4,0,0,0,1.16-1l1.11.86A4.45,4.45,0,0,1,684.63,61.6Zm-.24-13.53,1.46-1.66h1.57v.1l-2.48,2.67h-1.11l-2.45-2.67v-.1h1.54Zm0,4.06a2.43,2.43,0,0,0-1.84.8,3.83,3.83,0,0,0-.91,2.23H687V55a3.42,3.42,0,0,0-.74-2.13A2.28,2.28,0,0,0,684.41,52.13Z"/><path d="M690.88,60.46a1.16,1.16,0,0,1,.28-.78,1.29,1.29,0,0,1,1.68,0,1.12,1.12,0,0,1,.29.78,1.05,1.05,0,0,1-.29.75,1.29,1.29,0,0,1-1.68,0A1.09,1.09,0,0,1,690.88,60.46Z"/></svg>