<?xml version="1.0" encoding="UTF-8"?><svg id="a" xmlns="http://www.w3.org/2000/svg" viewBox="0 0 740 540.96"><defs><style>.k,.l{fill:#1c4184;}.m{fill:#5c5c5c;}.l,.n{stroke-miterlimit:10;stroke-width:1.3px;}.l,.n,.o{stroke:#fff;}.n{fill:#d1d3d4;}.o{fill:#fff;}</style></defs><polygon points="2.38 366.96 2.38 366.96 2.38 366.96 2.38 366.96"/><g><path d="M5.71,22.57h3.5c0,1.34,.67,1.92,1.75,1.92s1.68-.65,1.68-1.49c0-2.78-6.58-3.12-6.58-8.23,0-2.57,1.8-4.44,4.9-4.44s4.97,1.85,4.97,4.94h-3.5c0-1.1-.5-1.66-1.49-1.66-.89,0-1.42,.48-1.42,1.25,0,2.64,6.67,2.81,6.67,8.16,0,2.76-1.94,4.78-5.28,4.78s-5.21-1.85-5.21-5.23Z"/><path d="M18.96,10.67h3.53l1.51,7.94c.24,1.22,.53,3.29,.7,4.68h.1c.17-1.39,.46-3.46,.7-4.68l1.51-7.94h3.53l-3.98,16.8h-3.6l-3.98-16.8Z"/><path d="M43.39,24.23v3.24h-8.9V10.67h8.66v3.24h-5.26v3.48h4.78v3.12h-4.78v3.72h5.5Zm-5.66-15.17l-1.94-3.29h2.14l1.06,1.61,1.03-1.61h2.14l-1.94,3.29h-2.47Z"/><path d="M57.07,13.91h-3.29v13.56h-3.5V13.91h-3.29v-3.24h10.08v3.24Z"/><path d="M60.84,22.02v-5.91c0-3.6,2.04-5.74,5.45-5.74s5.45,2.14,5.45,5.74v5.91c0,3.6-2.04,5.74-5.45,5.74s-5.45-2.14-5.45-5.74Zm7.37,0v-5.91c0-1.58-.65-2.42-1.92-2.42s-1.92,.84-1.92,2.42v5.91c0,1.58,.65,2.42,1.92,2.42s1.92-.84,1.92-2.42Z"/><path d="M75.22,10.67h3.53l1.51,7.94c.24,1.22,.53,3.29,.7,4.68h.1c.17-1.39,.46-3.46,.7-4.68l1.51-7.94h3.53l-3.98,16.8h-3.6l-3.98-16.8Z"/><path d="M99.65,24.23v3.24h-8.9V10.67h8.67v3.24h-5.26v3.48h4.78v3.12h-4.78v3.72h5.5Zm-3.86-15.17h-2.26l2.26-3.29h2.71l-2.71,3.29Z"/><path d="M120.48,24.23v3.24h-8.9V10.67h8.67v3.24h-5.26v3.48h4.78v3.12h-4.78v3.72h5.5Z"/><path d="M139.66,10.67V27.47h-3.34v-4.13c.1-2.04,.17-4.08,.26-6.12l-.12-.05-1.51,4.42-.84,2.28h-3.36l-.84-2.28-1.51-4.42-.12,.05c.07,2.04,.17,4.08,.24,6.12v4.13h-3.31V10.67h3.43l2.64,6.36c.34,.84,.91,2.3,1.1,2.93h.1c.19-.62,.77-2.09,1.1-2.93l2.64-6.36h3.43Z"/><path d="M145.03,10.67h3.41V27.47h-3.41V10.67Z"/><path d="M152.78,22.57h3.5c0,1.34,.67,1.92,1.75,1.92s1.68-.65,1.68-1.49c0-2.78-6.58-3.12-6.58-8.23,0-2.57,1.8-4.44,4.9-4.44s4.97,1.85,4.97,4.94h-3.5c0-1.1-.5-1.66-1.49-1.66-.89,0-1.42,.48-1.42,1.25,0,2.64,6.67,2.81,6.67,8.16,0,2.76-1.94,4.78-5.28,4.78s-5.21-1.85-5.21-5.23Z"/><path d="M176.38,24.23v3.24h-8.9V10.67h8.67v3.24h-5.26v3.48h4.78v3.12h-4.78v3.72h5.5Z"/><path d="M194.52,24.69h-3.55l-.55,2.78h-3.53l4.03-16.8h3.65l4.03,16.8h-3.53l-.55-2.78Zm-.67-3.24l-.38-1.92c-.22-1.2-.5-3.24-.67-4.61h-.1c-.17,1.37-.43,3.41-.67,4.61l-.38,1.92h2.21Z"/><path d="M208.58,25.19l5.33-11.28h-4.92v-3.24h9.1v2.35l-5.28,11.21h5.4v3.24h-9.62v-2.28Z"/><path d="M228.77,24.69h-3.55l-.55,2.78h-3.53l4.03-16.8h3.65l4.03,16.8h-3.53l-.55-2.78Zm-1.18-15.63h-2.26l2.26-3.29h2.71l-2.71,3.29Zm.5,12.39l-.38-1.92c-.22-1.2-.5-3.24-.67-4.61h-.1c-.17,1.37-.43,3.41-.67,4.61l-.38,1.92h2.21Z"/><path d="M234.57,10.67h3.53l1.51,7.94c.24,1.22,.53,3.29,.7,4.68h.1c.17-1.39,.46-3.46,.7-4.68l1.51-7.94h3.53l-3.98,16.8h-3.6l-3.98-16.8Z"/><path d="M255.5,24.69h-3.55l-.55,2.78h-3.53l4.03-16.8h3.65l4.03,16.8h-3.53l-.55-2.78Zm-.67-3.24l-.38-1.92c-.22-1.2-.5-3.24-.67-4.61h-.1c-.17,1.37-.43,3.41-.67,4.61l-.38,1.92h2.21Z"/><path d="M262.37,25.19l5.33-11.28h-4.92v-3.24h9.1v2.35l-5.28,11.21h5.4v3.24h-9.62v-2.28Z"/><path d="M280.63,21.11l-.94,1.51v4.85h-3.36V10.67h3.36v6.43l.86-1.87,2.35-4.56h3.89l-4.27,7.34,4.99,9.46h-3.84l-3.05-6.36Z"/><path d="M294.36,22.48l-3.96-11.81h3.53l1.37,4.66c.17,.55,.55,1.87,.72,2.69h.1c.19-.82,.58-2.14,.77-2.76l1.32-4.58h3.53l-3.96,11.81v4.99h-3.41v-4.99Z"/><path d="M317.11,21.11l-.94,1.51v4.85h-3.36V10.67h3.36v6.43l.86-1.87,2.35-4.56h3.89l-4.27,7.34,4.99,9.46h-3.84l-3.05-6.36Z"/><path d="M334.8,22.12V10.67h3.48v11.45c0,1.51,.6,2.33,1.8,2.33s1.8-.82,1.8-2.33V10.67h3.48v11.45c0,3.53-1.97,5.64-5.28,5.64s-5.28-2.11-5.28-5.64Z"/><path d="M360.77,10.67V27.47h-3.43v-6.84h-3.46v6.84h-3.43V10.67h3.43v6.72h3.46v-6.72h3.43Z"/><path d="M374.54,24.23v3.24h-8.4V10.67h3.41v13.56h4.99Z"/><path d="M378.57,10.67h3.41V27.47h-3.41V10.67Zm2.33-4.9h2.71l-2.71,3.29h-2.26l2.26-3.29Z"/><path d="M391.65,21.11l-.94,1.51v4.85h-3.36V10.67h3.36v6.43l.86-1.87,2.35-4.56h3.89l-4.27,7.34,4.99,9.46h-3.84l-3.05-6.36Z"/><path d="M401.57,22.02v-5.91c0-3.6,2.04-5.74,5.45-5.74s5.45,2.14,5.45,5.74v5.91c0,3.6-2.04,5.74-5.45,5.74s-5.45-2.14-5.45-5.74Zm7.37,0v-5.91c0-1.58-.65-2.42-1.92-2.42s-1.92,.84-1.92,2.42v5.91c0,1.58,.65,2.42,1.92,2.42s1.92-.84,1.92-2.42Z"/><path d="M415.94,10.67h3.53l1.51,7.94c.24,1.22,.53,3.29,.7,4.68h.1c.17-1.39,.46-3.46,.7-4.68l1.51-7.94h3.53l-3.98,16.8h-3.6l-3.98-16.8Z"/><path d="M440.37,24.23v3.24h-8.9V10.67h8.67v3.24h-5.26v3.48h4.78v3.12h-4.78v3.72h5.5Zm-3.86-15.17h-2.26l2.26-3.29h2.71l-2.71,3.29Z"/><path d="M452.3,10.67h3.36l3.19,7.3c.41,1.06,.79,2.16,1.2,3.22l.07-.07c-.29-2.11-.48-4.99-.48-6.55v-3.89h3.36V27.47h-3.36l-2.83-6.5-1.51-4.1-.07,.07c.26,2.11,.43,5.26,.43,7.13v3.41h-3.36V10.67Z"/><path d="M477.28,24.23v3.24h-8.9V10.67h8.67v3.24h-5.26v3.48h4.78v3.12h-4.78v3.72h5.5Z"/><path d="M481.72,22.12V10.67h3.48v11.45c0,1.51,.6,2.33,1.8,2.33s1.8-.82,1.8-2.33V10.67h3.48v11.45c0,3.53-1.97,5.64-5.28,5.64s-5.28-2.11-5.28-5.64Z"/><path d="M506.32,13.91h-3.29v13.56h-3.5V13.91h-3.29v-3.24h10.08v3.24Z"/><path d="M514.94,21.83h-1.2v5.64h-3.41V10.67h4.87c3.34,0,5.3,2.06,5.3,5.59,0,2.28-.84,3.96-2.33,4.85l3.17,6.36h-3.72l-2.69-5.64Zm-1.2-3.24h1.42c1.2,0,1.85-.82,1.85-2.33s-.65-2.35-1.85-2.35h-1.42v4.68Z"/><path d="M531.57,24.69h-3.55l-.55,2.78h-3.53l4.03-16.8h3.65l4.03,16.8h-3.53l-.55-2.78Zm-.67-3.24l-.38-1.92c-.22-1.2-.5-3.24-.67-4.61h-.1c-.17,1.37-.43,3.41-.67,4.61l-.38,1.92h2.21Z"/><path d="M548.01,24.23v3.24h-8.4V10.67h3.41v13.56h4.99Z"/><path d="M552.04,10.67h3.41V27.47h-3.41V10.67Z"/><path d="M569.78,13.91h-3.29v13.56h-3.5V13.91h-3.29v-3.24h10.08v3.24Z"/><path d="M582.69,24.23v3.24h-8.9V10.67h8.67v3.24h-5.26v3.48h4.78v3.12h-4.78v3.72h5.5Zm-5.66-15.17l-1.94-3.29h2.14l1.06,1.61,1.03-1.61h2.14l-1.94,3.29h-2.47Z"/></g><g><path d="M15.31,50.9c0,.71-.19,1.34-.56,1.89s-.88,.99-1.52,1.3c.74,.32,1.33,.78,1.76,1.4s.65,1.31,.65,2.08c0,1.23-.42,2.21-1.25,2.94s-1.92,1.09-3.28,1.09-2.46-.37-3.29-1.1-1.24-1.71-1.24-2.93c0-.77,.21-1.46,.63-2.08s1-1.09,1.74-1.41c-.63-.31-1.13-.75-1.49-1.3s-.55-1.18-.55-1.88c0-1.2,.38-2.15,1.15-2.85s1.78-1.05,3.04-1.05,2.26,.35,3.03,1.05,1.16,1.65,1.16,2.85Zm-1.47,6.63c0-.79-.25-1.44-.76-1.94s-1.16-.75-1.98-.75-1.47,.25-1.96,.74-.74,1.15-.74,1.95,.24,1.44,.72,1.9,1.14,.69,2,.69,1.51-.23,1.99-.7,.72-1.1,.72-1.9Zm-2.71-9.05c-.71,0-1.28,.22-1.72,.66s-.66,1.04-.66,1.79,.22,1.31,.65,1.75,1.01,.67,1.73,.67,1.3-.22,1.73-.67,.65-1.03,.65-1.75-.22-1.31-.67-1.77-1.02-.68-1.71-.68Z"/><path d="M27.1,48.21l-5.89,13.2h-1.89l5.87-12.73h-7.7v-1.48h9.61v1.02Z"/><path d="M33.95,49.92c0-.85,.27-1.56,.82-2.11s1.24-.83,2.09-.83,1.57,.28,2.1,.83,.81,1.28,.81,2.16v.69c0,.86-.27,1.56-.82,2.1s-1.24,.82-2.08,.82-1.55-.27-2.1-.82-.83-1.27-.83-2.17v-.68Zm1.35,.75c0,.51,.14,.93,.43,1.26,.29,.33,.67,.49,1.15,.49s.83-.16,1.12-.48,.42-.76,.42-1.31v-.71c0-.51-.14-.93-.42-1.26s-.66-.5-1.14-.5-.86,.17-1.14,.5-.42,.77-.42,1.3v.71Zm1.99,9.66l-1.03-.64,6.94-11.11,1.03,.64-6.94,11.11Zm3.58-2.41c0-.85,.27-1.55,.82-2.1s1.24-.83,2.09-.83,1.55,.27,2.1,.82,.82,1.27,.82,2.18v.69c0,.85-.27,1.55-.82,2.1s-1.24,.83-2.08,.83-1.55-.27-2.1-.82-.83-1.27-.83-2.17v-.7Zm1.35,.76c0,.52,.14,.94,.43,1.27,.29,.33,.67,.49,1.15,.49s.84-.16,1.12-.48,.42-.76,.42-1.32v-.72c0-.52-.14-.94-.42-1.26s-.66-.49-1.14-.49-.84,.16-1.13,.48-.43,.76-.43,1.31v.72Z"/><path d="M60.04,58.61c0-.49-.18-.87-.55-1.14s-1.01-.5-1.92-.7-1.64-.43-2.18-.7-.93-.6-1.19-.98-.39-.83-.39-1.35c0-.87,.37-1.6,1.1-2.2s1.67-.9,2.81-.9c1.2,0,2.17,.31,2.92,.93s1.12,1.41,1.12,2.37h-1.82c0-.5-.21-.92-.63-1.28s-.95-.54-1.59-.54-1.17,.14-1.54,.43-.56,.66-.56,1.12c0,.44,.17,.76,.52,.99s.97,.43,1.87,.63,1.63,.44,2.19,.72,.98,.62,1.25,1.01,.41,.87,.41,1.44c0,.94-.38,1.7-1.13,2.27s-1.73,.85-2.94,.85c-.85,0-1.6-.15-2.25-.45s-1.16-.72-1.53-1.25-.55-1.12-.55-1.74h1.81c.03,.61,.27,1.09,.73,1.44s1.05,.53,1.79,.53c.68,0,1.23-.14,1.65-.42s.62-.65,.62-1.11Z"/><path d="M67.69,58.96l2.62-8.12h1.85l-3.79,10.57h-1.38l-3.83-10.57h1.85l2.69,8.12Z"/><path d="M78.27,61.6c-1.43,0-2.6-.47-3.5-1.41s-1.35-2.2-1.35-3.77v-.33c0-1.05,.2-1.98,.6-2.81s.96-1.47,1.68-1.93,1.5-.7,2.34-.7c1.37,0,2.44,.45,3.2,1.36s1.14,2.2,1.14,3.89v.75h-7.16c.03,1.04,.33,1.88,.91,2.52s1.32,.96,2.22,.96c.64,0,1.18-.13,1.62-.39s.83-.61,1.16-1.04l1.1,.86c-.89,1.36-2.21,2.04-3.98,2.04Zm-.24-13.54l1.46-1.66h1.56v.1l-2.48,2.68h-1.1l-2.45-2.68v-.1h1.53l1.47,1.66Zm.02,4.06c-.73,0-1.34,.27-1.84,.8s-.8,1.27-.92,2.23h5.29v-.14c-.05-.92-.3-1.63-.74-2.13s-1.04-.76-1.8-.76Z"/><path d="M86.94,48.28v2.56h1.97v1.4h-1.97v6.56c0,.42,.09,.74,.26,.95s.48,.32,.9,.32c.21,0,.49-.04,.86-.12v1.46c-.48,.13-.94,.19-1.39,.19-.81,0-1.42-.24-1.83-.73s-.62-1.18-.62-2.08v-6.55h-1.92v-1.4h1.92v-2.56h1.81Z"/><path d="M90.34,56.03c0-1.04,.2-1.97,.61-2.79s.97-1.46,1.7-1.91,1.55-.67,2.49-.67c1.44,0,2.6,.5,3.49,1.49s1.33,2.32,1.33,3.97v.13c0,1.03-.2,1.95-.59,2.77s-.96,1.45-1.69,1.91-1.57,.68-2.52,.68c-1.43,0-2.59-.5-3.48-1.49s-1.33-2.31-1.33-3.96v-.13Zm1.82,.21c0,1.17,.27,2.11,.82,2.82s1.27,1.06,2.18,1.06,1.65-.36,2.19-1.08,.81-1.73,.81-3.02c0-1.16-.27-2.1-.83-2.82s-1.28-1.08-2.19-1.08-1.61,.35-2.16,1.06-.82,1.73-.82,3.05Z"/><path d="M105.57,58.96l2.62-8.12h1.85l-3.79,10.57h-1.38l-3.83-10.57h1.85l2.69,8.12Z"/><path d="M115.23,58.76l2.46-7.92h1.93l-4.25,12.2c-.66,1.76-1.7,2.64-3.13,2.64l-.34-.03-.67-.13v-1.46l.49,.04c.61,0,1.09-.12,1.43-.37s.62-.7,.84-1.36l.4-1.07-3.77-10.45h1.97l2.64,7.92Zm1.03-12.35h2.19l-2.62,2.87h-1.46l1.88-2.87Z"/><path d="M125.47,60.13c.64,0,1.21-.2,1.69-.59s.75-.88,.8-1.46h1.71c-.03,.61-.24,1.18-.62,1.73s-.9,.98-1.54,1.31-1.32,.49-2.04,.49c-1.44,0-2.58-.48-3.43-1.44s-1.27-2.27-1.27-3.94v-.3c0-1.03,.19-1.94,.57-2.74s.92-1.42,1.63-1.87,1.54-.66,2.5-.66c1.19,0,2.17,.35,2.95,1.06s1.2,1.63,1.25,2.76h-1.71c-.05-.68-.31-1.25-.78-1.68s-1.04-.66-1.72-.66c-.92,0-1.63,.33-2.13,.99s-.76,1.62-.76,2.87v.34c0,1.22,.25,2.16,.75,2.81s1.22,.99,2.15,.99Z"/><path d="M133.51,52.12c.8-.98,1.84-1.47,3.12-1.47,2.23,0,3.36,1.26,3.38,3.78v6.98h-1.81v-6.99c0-.76-.18-1.33-.52-1.69s-.87-.55-1.6-.55c-.59,0-1.1,.16-1.54,.47s-.79,.72-1.04,1.23v7.53h-1.81v-15h1.81v5.71Z"/><path d="M152.05,61.6c-1.43,0-2.6-.47-3.5-1.41s-1.35-2.2-1.35-3.77v-.33c0-1.05,.2-1.98,.6-2.81s.96-1.47,1.68-1.93,1.5-.7,2.34-.7c1.37,0,2.44,.45,3.2,1.36s1.14,2.2,1.14,3.89v.75h-7.16c.03,1.04,.33,1.88,.91,2.52s1.32,.96,2.22,.96c.64,0,1.18-.13,1.62-.39s.83-.61,1.16-1.04l1.1,.86c-.89,1.36-2.21,2.04-3.98,2.04Zm-.22-9.47c-.73,0-1.34,.27-1.84,.8s-.8,1.27-.92,2.23h5.29v-.14c-.05-.92-.3-1.63-.74-2.13s-1.04-.76-1.8-.76Z"/><path d="M159.96,50.84l.05,1.17c.77-.91,1.82-1.37,3.13-1.37,1.48,0,2.48,.57,3.02,1.7,.35-.51,.81-.92,1.37-1.23s1.23-.47,2-.47c2.32,0,3.5,1.23,3.54,3.68v7.08h-1.81v-6.97c0-.75-.17-1.32-.52-1.69s-.92-.56-1.74-.56c-.67,0-1.23,.2-1.67,.6s-.7,.94-.77,1.62v7.01h-1.82v-6.92c0-1.54-.75-2.3-2.26-2.3-1.19,0-2,.5-2.43,1.51v7.71h-1.81v-10.57h1.71Z"/><path d="M175.8,48.04c0-.29,.09-.54,.27-.74s.44-.3,.8-.3,.62,.1,.8,.3,.27,.45,.27,.74-.09,.54-.27,.73-.45,.29-.8,.29-.62-.1-.8-.29-.27-.44-.27-.73Zm1.95,13.37h-1.81v-10.57h1.81v10.57Z"/><path d="M186.8,58.61c0-.49-.18-.87-.55-1.14s-1.01-.5-1.92-.7-1.64-.43-2.18-.7-.93-.6-1.19-.98-.39-.83-.39-1.35c0-.87,.37-1.6,1.1-2.2s1.67-.9,2.81-.9c1.2,0,2.17,.31,2.92,.93s1.12,1.41,1.12,2.37h-1.82c0-.5-.21-.92-.63-1.28s-.95-.54-1.59-.54-1.17,.14-1.54,.43-.56,.66-.56,1.12c0,.44,.17,.76,.52,.99s.97,.43,1.87,.63,1.63,.44,2.19,.72,.98,.62,1.25,1.01,.41,.87,.41,1.44c0,.94-.38,1.7-1.13,2.27s-1.73,.85-2.94,.85c-.85,0-1.6-.15-2.25-.45s-1.16-.72-1.53-1.25-.55-1.12-.55-1.74h1.81c.03,.61,.27,1.09,.73,1.44s1.05,.53,1.79,.53c.68,0,1.23-.14,1.65-.42s.62-.65,.62-1.11Z"/><path d="M192.94,46.42h2.19l-2.62,2.87h-1.46l1.88-2.87Zm-.02,14.99h-1.82v-10.57h1.82v10.57Z"/><path d="M211.59,56.9c-.18,1.5-.73,2.66-1.67,3.48s-2.18,1.23-3.73,1.23c-1.68,0-3.03-.6-4.04-1.81s-1.52-2.82-1.52-4.83v-1.37c0-1.32,.24-2.48,.71-3.49s1.14-1.77,2.01-2.31,1.87-.81,3.01-.81c1.51,0,2.72,.42,3.63,1.26s1.44,2.01,1.59,3.5h-1.88c-.16-1.14-.52-1.96-1.06-2.47-.54-.51-1.3-.76-2.28-.76-1.2,0-2.14,.44-2.82,1.33-.68,.89-1.02,2.15-1.02,3.78v1.38c0,1.54,.32,2.77,.97,3.68s1.55,1.37,2.71,1.37c1.04,0,1.84-.24,2.4-.71s.93-1.29,1.11-2.47h1.88Z"/><path d="M225.09,54.76c0,1.39-.23,2.61-.7,3.65s-1.13,1.83-1.99,2.38-1.86,.82-3.01,.82-2.11-.28-2.98-.83-1.54-1.33-2.02-2.35-.72-2.2-.74-3.54v-1.03c0-1.37,.24-2.58,.71-3.62s1.15-1.85,2.02-2.41,1.86-.83,2.98-.83,2.14,.28,3.01,.83,1.54,1.35,2.01,2.39,.7,2.26,.7,3.65v.9Zm-1.87-.92c0-1.69-.34-2.98-1.02-3.88s-1.62-1.35-2.84-1.35-2.12,.45-2.8,1.35-1.03,2.15-1.05,3.75v1.04c0,1.63,.34,2.92,1.03,3.85s1.63,1.4,2.84,1.4,2.15-.44,2.81-1.32,1.01-2.15,1.03-3.79v-1.05Z"/><path d="M232.37,66.07h-5.43v-.76l2.87-3.19c.42-.48,.72-.87,.88-1.18,.16-.3,.24-.61,.24-.94,0-.43-.13-.79-.39-1.06-.26-.28-.61-.42-1.05-.42-.52,0-.93,.15-1.22,.45-.29,.3-.44,.71-.44,1.24h-1.05c0-.76,.25-1.38,.74-1.85,.49-.47,1.15-.71,1.97-.71,.77,0,1.38,.2,1.83,.61,.45,.4,.67,.94,.67,1.61,0,.82-.52,1.79-1.56,2.92l-2.22,2.41h4.16v.86Z"/><path d="M248.04,56.24c0,1.61-.37,2.9-1.1,3.89s-1.73,1.47-2.99,1.47-2.29-.41-3.03-1.22v5.09h-1.81v-14.63h1.65l.09,1.17c.74-.91,1.76-1.37,3.07-1.37s2.27,.48,3.01,1.44,1.11,2.29,1.11,3.99v.17Zm-1.81-.21c0-1.19-.25-2.13-.76-2.82s-1.2-1.04-2.09-1.04c-1.09,0-1.91,.49-2.46,1.46v5.05c.54,.96,1.37,1.45,2.48,1.45,.87,0,1.55-.34,2.07-1.03s.77-1.71,.77-3.06Z"/><path d="M249.86,56.03c0-1.04,.2-1.97,.61-2.79s.97-1.46,1.7-1.91,1.55-.67,2.49-.67c1.44,0,2.6,.5,3.49,1.49s1.33,2.32,1.33,3.97v.13c0,1.03-.2,1.95-.59,2.77s-.96,1.45-1.69,1.91-1.57,.68-2.52,.68c-1.43,0-2.59-.5-3.48-1.49s-1.33-2.31-1.33-3.96v-.13Zm1.82,.21c0,1.17,.27,2.11,.82,2.82s1.27,1.06,2.18,1.06,1.65-.36,2.19-1.08,.81-1.73,.81-3.02c0-1.16-.27-2.1-.83-2.82s-1.28-1.08-2.19-1.08-1.61,.35-2.16,1.06-.82,1.73-.82,3.05Z"/><path d="M265.98,60.13c.64,0,1.21-.2,1.69-.59s.75-.88,.8-1.46h1.71c-.03,.61-.24,1.18-.62,1.73s-.9,.98-1.54,1.31-1.32,.49-2.04,.49c-1.44,0-2.58-.48-3.43-1.44s-1.27-2.27-1.27-3.94v-.3c0-1.03,.19-1.94,.57-2.74s.92-1.42,1.63-1.87,1.54-.66,2.5-.66c1.19,0,2.17,.35,2.95,1.06s1.2,1.63,1.25,2.76h-1.71c-.05-.68-.31-1.25-.78-1.68s-1.04-.66-1.72-.66c-.92,0-1.63,.33-2.13,.99s-.76,1.62-.76,2.87v.34c0,1.22,.25,2.16,.75,2.81s1.22,.99,2.15,.99Z"/><path d="M274.02,52.12c.8-.98,1.84-1.47,3.12-1.47,2.23,0,3.36,1.26,3.38,3.78v6.98h-1.81v-6.99c0-.76-.18-1.33-.52-1.69s-.87-.55-1.6-.55c-.59,0-1.1,.16-1.54,.47s-.79,.72-1.04,1.23v7.53h-1.81v-15h1.81v5.71Z"/><path d="M289.75,61.41c-.1-.21-.19-.58-.25-1.11-.84,.87-1.84,1.31-3.01,1.31-1.04,0-1.9-.29-2.56-.88s-1-1.34-1-2.24c0-1.1,.42-1.96,1.25-2.56s2.01-.91,3.53-.91h1.76v-.83c0-.63-.19-1.13-.57-1.51s-.93-.56-1.67-.56c-.64,0-1.19,.16-1.62,.49s-.65,.72-.65,1.18h-1.82c0-.53,.19-1.04,.56-1.53s.88-.88,1.52-1.17,1.35-.43,2.11-.43c1.22,0,2.17,.3,2.86,.91s1.05,1.45,1.07,2.51v4.86c0,.97,.12,1.74,.37,2.31v.16h-1.89Zm-3-1.38c.57,0,1.1-.15,1.61-.44s.88-.67,1.1-1.14v-2.17h-1.42c-2.21,0-3.32,.65-3.32,1.94,0,.57,.19,1.01,.57,1.33s.86,.48,1.46,.48Zm1.67-13.62h2.19l-2.62,2.87h-1.46l1.88-2.87Z"/><path d="M295.81,59.93h6.18v1.47h-8.39v-1.33l5.83-7.74h-5.74v-1.49h8.01v1.28l-5.89,7.81Z"/><path d="M306,46.42h2.19l-2.62,2.87h-1.46l1.88-2.87Zm-.02,14.99h-1.82v-10.57h1.82v10.57Z"/><path d="M315.61,59.93h6.18v1.47h-8.39v-1.33l5.83-7.74h-5.74v-1.49h8.01v1.28l-5.89,7.81Z"/><path d="M328.21,61.6c-1.43,0-2.6-.47-3.5-1.41s-1.35-2.2-1.35-3.77v-.33c0-1.05,.2-1.98,.6-2.81s.96-1.47,1.68-1.93,1.5-.7,2.34-.7c1.37,0,2.44,.45,3.2,1.36s1.14,2.2,1.14,3.89v.75h-7.16c.03,1.04,.33,1.88,.91,2.52s1.32,.96,2.22,.96c.64,0,1.18-.13,1.62-.39s.83-.61,1.16-1.04l1.1,.86c-.89,1.36-2.21,2.04-3.98,2.04Zm-.22-9.47c-.73,0-1.34,.27-1.84,.8s-.8,1.27-.92,2.23h5.29v-.14c-.05-.92-.3-1.63-.74-2.13s-1.04-.76-1.8-.76Z"/><path d="M345.52,58.61c0-.49-.18-.87-.55-1.14s-1.01-.5-1.92-.7-1.64-.43-2.18-.7-.93-.6-1.19-.98-.39-.83-.39-1.35c0-.87,.37-1.6,1.1-2.2s1.67-.9,2.81-.9c1.2,0,2.17,.31,2.92,.93s1.12,1.41,1.12,2.37h-1.82c0-.5-.21-.92-.63-1.28s-.95-.54-1.59-.54-1.17,.14-1.54,.43-.56,.66-.56,1.12c0,.44,.17,.76,.52,.99s.97,.43,1.87,.63,1.63,.44,2.19,.72,.98,.62,1.25,1.01,.41,.87,.41,1.44c0,.94-.38,1.7-1.13,2.27s-1.73,.85-2.94,.85c-.85,0-1.6-.15-2.25-.45s-1.16-.72-1.53-1.25-.55-1.12-.55-1.74h1.81c.03,.61,.27,1.09,.73,1.44s1.05,.53,1.79,.53c.68,0,1.23-.14,1.65-.42s.62-.65,.62-1.11Z"/><path d="M352.13,48.28v2.56h1.97v1.4h-1.97v6.56c0,.42,.09,.74,.26,.95s.48,.32,.9,.32c.21,0,.49-.04,.86-.12v1.46c-.48,.13-.94,.19-1.39,.19-.81,0-1.42-.24-1.83-.73s-.62-1.18-.62-2.08v-6.55h-1.92v-1.4h1.92v-2.56h1.81Z"/><path d="M362.74,61.41c-.1-.21-.19-.58-.25-1.11-.84,.87-1.84,1.31-3.01,1.31-1.04,0-1.9-.29-2.56-.88s-1-1.34-1-2.24c0-1.1,.42-1.96,1.25-2.56s2.01-.91,3.53-.91h1.76v-.83c0-.63-.19-1.13-.57-1.51s-.93-.56-1.67-.56c-.64,0-1.19,.16-1.62,.49s-.65,.72-.65,1.18h-1.82c0-.53,.19-1.04,.56-1.53s.88-.88,1.52-1.17,1.35-.43,2.11-.43c1.22,0,2.17,.3,2.86,.91,.69,.61,1.05,1.45,1.07,2.51v4.86c0,.97,.12,1.74,.37,2.31v.16h-1.89Zm-3-1.38c.57,0,1.1-.15,1.61-.44s.88-.67,1.1-1.14v-2.17h-1.42c-2.21,0-3.32,.65-3.32,1.94,0,.57,.19,1.01,.57,1.33s.86,.48,1.46,.48Zm1.67-13.62h2.19l-2.62,2.87h-1.46l1.88-2.87Z"/><path d="M369.55,48.28v2.56h1.97v1.4h-1.97v6.56c0,.42,.09,.74,.26,.95s.48,.32,.9,.32c.21,0,.5-.04,.86-.12v1.46c-.48,.13-.94,.19-1.39,.19-.81,0-1.42-.24-1.83-.73s-.62-1.18-.62-2.08v-6.55h-1.92v-1.4h1.92v-2.56h1.81Z"/><path d="M380.15,60.36c-.7,.83-1.74,1.24-3.1,1.24-1.13,0-1.98-.33-2.57-.98s-.89-1.62-.89-2.91v-6.88h1.81v6.83c0,1.6,.65,2.4,1.95,2.4,1.38,0,2.3-.51,2.75-1.54v-7.69h1.81v10.57h-1.72l-.04-1.04Zm-.25-12.81c0,.57-.2,1.04-.61,1.42s-.9,.57-1.49,.57-1.1-.19-1.5-.58-.6-.86-.6-1.42,.2-1.04,.6-1.44,.9-.6,1.5-.6,1.1,.2,1.5,.6,.6,.88,.6,1.44Zm-3.23,0c0,.31,.11,.57,.33,.79s.49,.33,.81,.33,.58-.11,.8-.32,.33-.48,.33-.8-.11-.59-.33-.82-.49-.34-.81-.34-.6,.11-.81,.34-.32,.5-.32,.81Z"/><path d="M384.6,64.24l-1.03-.7c.61-.85,.93-1.73,.96-2.64v-1.63h1.77v1.42c0,.66-.16,1.32-.48,1.97s-.73,1.18-1.22,1.58Z"/><path d="M396.48,56.52l-1.13,1.18v3.71h-1.81v-15h1.81v9.07l.97-1.16,3.29-3.48h2.2l-4.11,4.41,4.59,6.15h-2.12l-3.68-4.89Z"/><path d="M406.12,48.28v2.56h1.97v1.4h-1.97v6.56c0,.42,.09,.74,.26,.95s.48,.32,.9,.32c.21,0,.5-.04,.86-.12v1.46c-.48,.13-.94,.19-1.39,.19-.81,0-1.42-.24-1.83-.73s-.62-1.18-.62-2.08v-6.55h-1.92v-1.4h1.92v-2.56h1.81Z"/><path d="M414.59,61.6c-1.43,0-2.6-.47-3.5-1.41s-1.35-2.2-1.35-3.77v-.33c0-1.05,.2-1.98,.6-2.81s.96-1.47,1.68-1.93,1.5-.7,2.34-.7c1.37,0,2.44,.45,3.2,1.36s1.14,2.2,1.14,3.89v.75h-7.16c.03,1.04,.33,1.88,.91,2.52s1.32,.96,2.22,.96c.64,0,1.18-.13,1.62-.39s.83-.61,1.16-1.04l1.1,.86c-.89,1.36-2.21,2.04-3.98,2.04Zm-.22-9.47c-.73,0-1.34,.27-1.84,.8s-.8,1.27-.92,2.23h5.29v-.14c-.05-.92-.3-1.63-.74-2.13s-1.04-.76-1.8-.76Z"/><path d="M425.9,52.46c-.27-.05-.57-.07-.89-.07-1.18,0-1.99,.5-2.41,1.51v7.5h-1.81v-10.57h1.76l.03,1.22c.59-.94,1.43-1.42,2.52-1.42,.35,0,.62,.05,.8,.14v1.68Z"/><path d="M431.95,61.6c-1.43,0-2.6-.47-3.5-1.41s-1.35-2.2-1.35-3.77v-.33c0-1.05,.2-1.98,.6-2.81s.96-1.47,1.68-1.93,1.5-.7,2.34-.7c1.37,0,2.44,.45,3.2,1.36s1.14,2.2,1.14,3.89v.75h-7.16c.03,1.04,.33,1.88,.91,2.52s1.32,.96,2.22,.96c.64,0,1.18-.13,1.62-.39s.83-.61,1.16-1.04l1.1,.86c-.89,1.36-2.21,2.04-3.98,2.04Zm-.22-9.47c-.73,0-1.34,.27-1.84,.8s-.8,1.27-.92,2.23h5.29v-.14c-.05-.92-.3-1.63-.74-2.13s-1.04-.76-1.8-.76Zm.88-5.72h2.19l-2.62,2.87h-1.46l1.88-2.87Z"/><path d="M449.26,58.61c0-.49-.18-.87-.55-1.14s-1.01-.5-1.92-.7-1.64-.43-2.18-.7-.93-.6-1.19-.98-.39-.83-.39-1.35c0-.87,.37-1.6,1.1-2.2s1.67-.9,2.81-.9c1.2,0,2.17,.31,2.92,.93s1.12,1.41,1.12,2.37h-1.82c0-.5-.21-.92-.63-1.28s-.95-.54-1.59-.54-1.17,.14-1.54,.43-.56,.66-.56,1.12c0,.44,.17,.76,.52,.99s.97,.43,1.87,.63,1.63,.44,2.19,.72,.97,.62,1.25,1.01,.41,.87,.41,1.44c0,.94-.38,1.7-1.13,2.27s-1.74,.85-2.94,.85c-.85,0-1.59-.15-2.25-.45s-1.16-.72-1.53-1.25-.55-1.12-.55-1.74h1.81c.03,.61,.28,1.09,.73,1.44s1.05,.53,1.79,.53c.68,0,1.23-.14,1.65-.42s.62-.65,.62-1.11Z"/><path d="M455.12,50.84l.05,1.17c.77-.91,1.82-1.37,3.13-1.37,1.48,0,2.48,.57,3.02,1.7,.35-.51,.81-.92,1.37-1.23s1.23-.47,2-.47c2.32,0,3.5,1.23,3.54,3.68v7.08h-1.81v-6.97c0-.75-.17-1.32-.52-1.69s-.92-.56-1.74-.56c-.67,0-1.23,.2-1.67,.6s-.7,.94-.77,1.62v7.01h-1.82v-6.92c0-1.54-.75-2.3-2.26-2.3-1.18,0-2,.5-2.43,1.51v7.71h-1.81v-10.57h1.71Z"/><path d="M475.34,61.6c-1.43,0-2.6-.47-3.5-1.41s-1.35-2.2-1.35-3.77v-.33c0-1.05,.2-1.98,.6-2.81s.96-1.47,1.68-1.93,1.5-.7,2.34-.7c1.37,0,2.44,.45,3.2,1.36s1.14,2.2,1.14,3.89v.75h-7.16c.03,1.04,.33,1.88,.91,2.52s1.32,.96,2.22,.96c.64,0,1.18-.13,1.62-.39s.83-.61,1.16-1.04l1.1,.86c-.89,1.36-2.21,2.04-3.98,2.04Zm-.24-13.54l1.46-1.66h1.56v.1l-2.48,2.68h-1.1l-2.45-2.68v-.1h1.53l1.47,1.66Zm.02,4.06c-.73,0-1.34,.27-1.84,.8s-.8,1.27-.92,2.23h5.29v-.14c-.05-.92-.3-1.63-.74-2.13s-1.04-.76-1.8-.76Z"/><path d="M484.16,48.07l1.46-1.66h1.56v.1l-2.48,2.68h-1.1l-2.45-2.68v-.1h1.53l1.47,1.66Zm2.5,4.39c-.27-.05-.57-.07-.89-.07-1.18,0-1.99,.5-2.41,1.51v7.5h-1.81v-10.57h1.76l.03,1.22c.59-.94,1.43-1.42,2.52-1.42,.35,0,.62,.05,.8,.14v1.68Z"/><path d="M494.84,60.36c-.7,.83-1.74,1.24-3.1,1.24-1.13,0-1.98-.33-2.57-.98s-.89-1.62-.89-2.91v-6.88h1.81v6.83c0,1.6,.65,2.4,1.95,2.4,1.38,0,2.3-.51,2.75-1.54v-7.69h1.81v10.57h-1.72l-.04-1.04Z"/><path d="M501.21,50.84v11.79c0,2.03-.92,3.05-2.76,3.05-.4,0-.76-.06-1.1-.17v-1.44c.21,.05,.48,.08,.82,.08,.4,0,.71-.11,.92-.33,.21-.22,.32-.6,.32-1.14v-11.83h1.81Zm-1.99-2.8c0-.29,.09-.53,.27-.74s.44-.31,.79-.31,.62,.1,.8,.3,.27,.45,.27,.74-.09,.54-.27,.73-.45,.29-.8,.29-.62-.1-.79-.29-.26-.44-.26-.73Z"/><path d="M506.1,46.42h2.19l-2.62,2.87h-1.46l1.88-2.87Zm-.02,14.99h-1.82v-10.57h1.82v10.57Z"/><path d="M516.96,56.52l-1.13,1.18v3.71h-1.81v-15h1.81v9.07l.97-1.16,3.29-3.48h2.2l-4.11,4.41,4.59,6.15h-2.12l-3.68-4.89Z"/><path d="M535.62,60.36c-.7,.83-1.74,1.24-3.1,1.24-1.13,0-1.98-.33-2.57-.98s-.89-1.62-.89-2.91v-6.88h1.81v6.83c0,1.6,.65,2.4,1.95,2.4,1.38,0,2.3-.51,2.75-1.54v-7.69h1.81v10.57h-1.72l-.04-1.04Z"/><path d="M541.93,52.12c.8-.98,1.84-1.47,3.12-1.47,2.23,0,3.36,1.26,3.38,3.78v6.98h-1.81v-6.99c0-.76-.18-1.33-.52-1.69s-.87-.55-1.6-.55c-.59,0-1.1,.16-1.54,.47s-.79,.72-1.04,1.23v7.53h-1.81v-15h1.81v5.71Z"/><path d="M553.1,61.41h-1.81v-15h1.81v15Z"/><path d="M557.97,46.42h2.19l-2.62,2.87h-1.46l1.88-2.87Zm-.02,14.99h-1.82v-10.57h1.82v10.57Z"/><path d="M563.88,56.52l-1.13,1.18v3.71h-1.81v-15h1.81v9.07l.97-1.16,3.29-3.48h2.2l-4.11,4.41,4.59,6.15h-2.12l-3.68-4.89Z"/><path d="M570.59,56.03c0-1.04,.2-1.97,.61-2.79s.97-1.46,1.7-1.91,1.55-.67,2.49-.67c1.44,0,2.6,.5,3.49,1.49s1.33,2.32,1.33,3.97v.13c0,1.03-.2,1.95-.59,2.77s-.96,1.45-1.69,1.91-1.57,.68-2.52,.68c-1.43,0-2.59-.5-3.48-1.49s-1.33-2.31-1.33-3.96v-.13Zm1.82,.21c0,1.17,.27,2.11,.82,2.82s1.27,1.06,2.18,1.06,1.65-.36,2.19-1.08,.81-1.73,.81-3.02c0-1.16-.28-2.1-.83-2.82s-1.28-1.08-2.19-1.08-1.61,.35-2.16,1.06-.82,1.73-.82,3.05Z"/><path d="M585.82,58.96l2.62-8.12h1.85l-3.79,10.57h-1.38l-3.83-10.57h1.85l2.69,8.12Z"/><path d="M596.4,61.6c-1.43,0-2.6-.47-3.5-1.41s-1.35-2.2-1.35-3.77v-.33c0-1.05,.2-1.98,.6-2.81s.96-1.47,1.68-1.93,1.5-.7,2.34-.7c1.37,0,2.44,.45,3.2,1.36s1.14,2.2,1.14,3.89v.75h-7.16c.03,1.04,.33,1.88,.91,2.52s1.32,.96,2.22,.96c.64,0,1.18-.13,1.62-.39s.83-.61,1.16-1.04l1.1,.86c-.89,1.36-2.21,2.04-3.98,2.04Zm-.22-9.47c-.73,0-1.34,.27-1.84,.8s-.8,1.27-.92,2.23h5.29v-.14c-.05-.92-.3-1.63-.74-2.13s-1.04-.76-1.8-.76Zm.88-5.72h2.19l-2.62,2.87h-1.46l1.88-2.87Z"/><path d="M609.27,50.84l.06,1.33c.81-1.02,1.86-1.52,3.16-1.52,2.23,0,3.36,1.26,3.38,3.78v6.98h-1.81v-6.99c0-.76-.18-1.33-.52-1.69s-.87-.55-1.6-.55c-.59,0-1.1,.16-1.54,.47s-.79,.72-1.04,1.23v7.53h-1.81v-10.57h1.71Z"/><path d="M622.98,61.6c-1.43,0-2.6-.47-3.5-1.41s-1.35-2.2-1.35-3.77v-.33c0-1.05,.2-1.98,.6-2.81s.96-1.47,1.68-1.93,1.5-.7,2.34-.7c1.37,0,2.44,.45,3.2,1.36s1.14,2.2,1.14,3.89v.75h-7.16c.03,1.04,.33,1.88,.91,2.52s1.32,.96,2.22,.96c.64,0,1.18-.13,1.62-.39s.83-.61,1.16-1.04l1.1,.86c-.89,1.36-2.21,2.04-3.98,2.04Zm-.22-9.47c-.73,0-1.34,.27-1.84,.8s-.8,1.27-.92,2.23h5.29v-.14c-.05-.92-.3-1.63-.74-2.13s-1.04-.76-1.8-.76Z"/><path d="M635.72,60.36c-.7,.83-1.74,1.24-3.1,1.24-1.13,0-1.98-.33-2.57-.98s-.89-1.62-.89-2.91v-6.88h1.81v6.83c0,1.6,.65,2.4,1.95,2.4,1.38,0,2.3-.51,2.75-1.54v-7.69h1.81v10.57h-1.72l-.04-1.04Z"/><path d="M642.67,48.28v2.56h1.97v1.4h-1.97v6.56c0,.42,.09,.74,.26,.95s.48,.32,.9,.32c.21,0,.5-.04,.86-.12v1.46c-.48,.13-.94,.19-1.39,.19-.81,0-1.42-.24-1.83-.73s-.62-1.18-.62-2.08v-6.55h-1.92v-1.4h1.92v-2.56h1.81Z"/><path d="M651.86,52.46c-.27-.05-.57-.07-.89-.07-1.18,0-1.99,.5-2.41,1.51v7.5h-1.81v-10.57h1.76l.03,1.22c.59-.94,1.43-1.42,2.52-1.42,.35,0,.62,.05,.8,.14v1.68Z"/><path d="M659.65,61.41c-.1-.21-.19-.58-.25-1.11-.84,.87-1.84,1.31-3.01,1.31-1.04,0-1.9-.29-2.56-.88s-1-1.34-1-2.24c0-1.1,.42-1.96,1.25-2.56s2.01-.91,3.53-.91h1.76v-.83c0-.63-.19-1.13-.57-1.51s-.93-.56-1.67-.56c-.64,0-1.18,.16-1.62,.49s-.65,.72-.65,1.18h-1.82c0-.53,.19-1.04,.56-1.53s.88-.88,1.52-1.17,1.35-.43,2.11-.43c1.22,0,2.17,.3,2.86,.91s1.05,1.45,1.07,2.51v4.86c0,.97,.12,1.74,.37,2.31v.16h-1.89Zm-3-1.38c.57,0,1.1-.15,1.61-.44s.88-.67,1.1-1.14v-2.17h-1.42c-2.21,0-3.32,.65-3.32,1.94,0,.57,.19,1.01,.57,1.33s.86,.48,1.46,.48Z"/><path d="M665.97,61.41h-1.81v-15h1.81v15Z"/><path d="M668.87,48.04c0-.29,.09-.54,.27-.74s.44-.3,.8-.3,.62,.1,.8,.3,.27,.45,.27,.74-.09,.54-.27,.73-.45,.29-.8,.29-.62-.1-.8-.29-.27-.44-.27-.73Zm1.95,13.37h-1.81v-10.57h1.81v10.57Z"/><path d="M676.17,48.28v2.56h1.97v1.4h-1.97v6.56c0,.42,.09,.74,.26,.95s.48,.32,.9,.32c.21,0,.5-.04,.86-.12v1.46c-.48,.13-.94,.19-1.39,.19-.81,0-1.42-.24-1.83-.73s-.62-1.18-.62-2.08v-6.55h-1.92v-1.4h1.92v-2.56h1.81Z"/><path d="M684.63,61.6c-1.43,0-2.6-.47-3.5-1.41s-1.35-2.2-1.35-3.77v-.33c0-1.05,.2-1.98,.6-2.81s.96-1.47,1.68-1.93,1.5-.7,2.34-.7c1.37,0,2.44,.45,3.2,1.36s1.14,2.2,1.14,3.89v.75h-7.16c.03,1.04,.33,1.88,.91,2.52s1.32,.96,2.22,.96c.64,0,1.18-.13,1.62-.39s.83-.61,1.16-1.04l1.1,.86c-.89,1.36-2.21,2.04-3.98,2.04Zm-.24-13.54l1.46-1.66h1.56v.1l-2.48,2.68h-1.1l-2.45-2.68v-.1h1.53l1.47,1.66Zm.02,4.06c-.73,0-1.34,.27-1.84,.8s-.8,1.27-.92,2.23h5.29v-.14c-.05-.92-.3-1.63-.74-2.13s-1.04-.76-1.8-.76Z"/><path d="M690.88,60.46c0-.31,.09-.57,.28-.78s.46-.31,.83-.31,.65,.1,.84,.31,.29,.47,.29,.78-.1,.55-.29,.75-.47,.3-.84,.3-.65-.1-.83-.3-.28-.45-.28-.75Z"/></g><g><g id="b"><path class="l" d="M530.91,354.08c7.16-22.29,8.96-45.96,5.24-69.07-3.72-23.11-12.84-45.02-26.64-63.94-13.79-18.92-31.86-34.31-52.73-44.92-20.87-10.61-43.95-16.14-67.36-16.14v148.61l141.48,45.47Z"/></g><g id="c"><path class="l" d="M447.26,445.5c19.7-8.32,37.37-20.8,51.81-36.58,14.44-15.78,25.3-34.49,31.84-54.85l-141.48-45.47,57.83,136.89Z"/></g><g id="d"><path class="l" d="M372.79,456.28c12.62,1.42,25.36,1.22,37.93-.6,12.57-1.82,24.85-5.24,36.54-10.18l-57.83-136.89-16.64,147.67Z"/></g><g id="e"><path class="l" d="M314.14,436.73c8.96,5.26,18.44,9.57,28.3,12.86,9.86,3.29,20.03,5.53,30.35,6.69l16.64-147.67-75.29,128.12Z"/></g><g id="f"><path class="l" d="M279.8,408.93c4.99,5.45,10.38,10.53,16.13,15.18,5.75,4.65,11.83,8.87,18.21,12.61l75.29-128.12-109.63,100.33Z"/></g><g id="g"><path class="l" d="M262.37,385.68c2.52,4.15,5.23,8.17,8.15,12.06,2.91,3.88,6.01,7.62,9.28,11.2l109.63-100.33-127.06,77.07Z"/></g><path class="l" d="M283.33,204.55c-9.56,9.75-17.73,20.77-24.29,32.75-6.55,11.98-11.42,24.81-14.47,38.12-.35,1.52-.67,3.04-.97,4.57-.3,1.53-.58,3.06-.83,4.6-.27,1.66-.52,3.33-.73,5-.22,1.67-.4,3.34-.56,5.02-.16,1.74-.3,3.48-.4,5.23s-.18,3.49-.22,5.24c-.04,1.89-.05,3.78-.03,5.67,.03,1.89,.09,3.78,.19,5.67,.1,1.97,.25,3.95,.43,5.92,.18,1.97,.4,3.93,.67,5.89,.32,2.42,.71,4.84,1.15,7.25,.44,2.41,.94,4.8,1.5,7.18,.56,2.39,1.18,4.76,1.86,7.11,.68,2.35,1.42,4.69,2.21,7.01,.81,2.37,1.69,4.73,2.62,7.05,.93,2.33,1.92,4.63,2.97,6.91,1.18,2.56,2.43,5.09,3.75,7.58,1.32,2.49,2.72,4.94,4.18,7.35l127.06-77.07-106.1-104.06Z"/><g id="h"><path class="n" d="M357.16,163.54c-13.96,3.1-27.39,8.21-39.89,15.15-12.5,6.94-23.93,15.65-33.94,25.86l106.1,104.06-32.27-145.06Z"/></g><g id="i"><path class="n" d="M389.43,160c-5.42,0-10.84,.3-16.23,.89-5.39,.59-10.74,1.48-16.04,2.66l32.27,145.06V160Z"/></g></g><g id="j"><path class="o" d="M389.43,382.91c19.71,0,38.61-7.83,52.54-21.76,13.93-13.93,21.76-32.84,21.76-52.54s-7.83-38.61-21.76-52.54c-13.93-13.93-32.84-21.76-52.54-21.76s-38.61,7.83-52.54,21.76c-13.93,13.93-21.76,32.84-21.76,52.54s7.83,38.61,21.76,52.54c13.93,13.93,32.84,21.76,52.54,21.76Z"/></g><g><path class="k" d="M560.33,321.2c-.09,.99-.46,1.75-1.09,2.31-.63,.55-1.48,.83-2.53,.83-.74,0-1.38-.17-1.95-.52-.56-.35-.99-.85-1.3-1.49-.3-.64-.46-1.39-.48-2.24v-.86c0-.87,.15-1.64,.46-2.3,.31-.67,.75-1.18,1.33-1.54,.58-.36,1.25-.54,2-.54,1.02,0,1.84,.28,2.46,.83,.62,.55,.98,1.33,1.09,2.35h-1.6c-.08-.66-.27-1.14-.58-1.44-.31-.29-.77-.44-1.37-.44-.7,0-1.23,.26-1.61,.77-.37,.51-.57,1.26-.57,2.25v.82c0,1,.18,1.76,.54,2.29,.36,.52,.88,.79,1.57,.79,.63,0,1.1-.14,1.42-.42,.32-.28,.52-.76,.6-1.42h1.6Zm-3.66-7.86l.93-.98h1.32v.06l-1.77,1.77h-.95l-1.76-1.78v-.06h1.31l.93,.98Z"/><path class="k" d="M563.27,324.21h-1.54v-6.87h1.54v6.87Zm-.29-9.71h1.76l-1.76,1.92h-1.24l1.24-1.92Z"/><path class="k" d="M566.46,317.34l.04,.79c.51-.61,1.17-.92,2-.92,1.43,0,2.16,.82,2.18,2.46v4.54h-1.54v-4.45c0-.44-.09-.76-.28-.97-.19-.21-.5-.31-.92-.31-.62,0-1.09,.28-1.39,.84v4.89h-1.54v-6.87h1.45Z"/><path class="k" d="M576.36,324.21c-.07-.13-.13-.34-.18-.64-.49,.51-1.09,.77-1.8,.77s-1.25-.2-1.69-.59c-.44-.39-.65-.88-.65-1.46,0-.73,.27-1.29,.82-1.69s1.32-.59,2.33-.59h.95v-.45c0-.36-.1-.64-.3-.85s-.5-.32-.91-.32c-.35,0-.64,.09-.86,.26-.22,.18-.34,.4-.34,.67h-1.54c0-.38,.12-.73,.38-1.06s.59-.58,1.02-.77c.43-.19,.91-.28,1.44-.28,.8,0,1.44,.2,1.92,.61s.72,.97,.74,1.7v3.1c0,.62,.09,1.11,.26,1.48v.11h-1.57Zm-1.7-1.11c.3,0,.59-.07,.86-.22,.27-.15,.47-.35,.61-.6v-1.29h-.83c-.57,0-1,.1-1.29,.3-.29,.2-.43,.48-.43,.84,0,.3,.1,.53,.3,.71,.2,.18,.46,.26,.79,.26Z"/><path class="k" d="M588.4,324.21h-5.79v-.58l3.17-3.59c.52-.6,.89-1.1,1.09-1.5s.3-.78,.3-1.15c0-.58-.17-1.05-.51-1.39-.34-.34-.82-.51-1.42-.51s-1.12,.2-1.51,.6c-.38,.4-.57,.91-.57,1.55h-.76c0-.52,.12-.99,.35-1.42,.24-.43,.57-.76,1-1.01s.93-.37,1.48-.37c.85,0,1.51,.22,1.98,.67,.48,.44,.71,1.05,.71,1.82,0,.43-.13,.9-.4,1.42-.27,.51-.74,1.15-1.42,1.92l-2.58,2.91h4.86v.64Z"/><path class="k" d="M594.55,319.93c-.27,.4-.61,.71-1.01,.92-.4,.22-.84,.33-1.31,.33-.53,0-.99-.14-1.39-.41-.4-.27-.71-.65-.93-1.12-.22-.48-.33-1-.33-1.57,0-.61,.12-1.16,.35-1.66,.24-.5,.56-.89,.98-1.17s.91-.42,1.46-.42c.93,0,1.65,.33,2.17,.97s.77,1.57,.77,2.76v.69c0,1.67-.36,2.92-1.07,3.76s-1.8,1.26-3.26,1.26h-.14v-.66h.27c1.1-.02,1.94-.33,2.52-.94,.58-.61,.88-1.53,.91-2.75Zm-2.22,.59c.51,0,.96-.15,1.37-.45s.69-.69,.86-1.17v-.44c0-.94-.2-1.66-.59-2.18-.39-.52-.92-.78-1.58-.78-.6,0-1.09,.24-1.48,.73s-.58,1.09-.58,1.83,.18,1.29,.55,1.76,.85,.71,1.44,.71Z"/><path class="k" d="M596.98,325.93l-.45-.33c.38-.52,.58-1.05,.6-1.61v-.98h.74v.79c0,.88-.3,1.59-.89,2.13Z"/><path class="k" d="M604.25,319.93c-.27,.4-.61,.71-1.01,.92-.4,.22-.84,.33-1.31,.33-.53,0-.99-.14-1.39-.41-.4-.27-.71-.65-.93-1.12-.22-.48-.33-1-.33-1.57,0-.61,.12-1.16,.35-1.66,.24-.5,.56-.89,.98-1.17s.91-.42,1.46-.42c.93,0,1.65,.33,2.17,.97s.77,1.57,.77,2.76v.69c0,1.67-.36,2.92-1.07,3.76s-1.8,1.26-3.26,1.26h-.14v-.66h.27c1.1-.02,1.94-.33,2.52-.94,.58-.61,.88-1.53,.91-2.75Zm-2.22,.59c.51,0,.96-.15,1.37-.45s.69-.69,.86-1.17v-.44c0-.94-.2-1.66-.59-2.18-.39-.52-.92-.78-1.58-.78-.6,0-1.09,.24-1.48,.73s-.58,1.09-.58,1.83,.18,1.29,.55,1.76,.85,.71,1.44,.71Z"/><path class="k" d="M609.69,316.74c0-.55,.17-1.01,.51-1.37,.34-.36,.77-.54,1.3-.54s.96,.18,1.3,.54c.34,.36,.51,.83,.51,1.41v.45c0,.54-.17,.99-.5,1.35-.34,.36-.77,.54-1.29,.54s-.95-.18-1.3-.53c-.35-.36-.52-.83-.52-1.41v-.44Zm.62,.49c0,.39,.11,.72,.33,.97,.22,.25,.51,.38,.88,.38s.65-.13,.86-.38c.21-.26,.32-.59,.32-1v-.46c0-.39-.11-.72-.33-.98-.22-.26-.51-.38-.86-.38s-.64,.13-.86,.38c-.22,.25-.33,.59-.33,1.02v.45Zm1.45,6.21l-.48-.3,4.51-7.22,.48,.3-4.51,7.22Zm2.59-1.5c0-.55,.17-1,.51-1.37,.34-.36,.77-.54,1.29-.54s.95,.18,1.3,.54,.52,.83,.52,1.41v.45c0,.55-.17,1-.51,1.36-.34,.36-.77,.54-1.29,.54s-.95-.18-1.3-.54c-.34-.36-.52-.82-.52-1.4v-.46Zm.61,.49c0,.4,.11,.73,.33,.98,.22,.25,.51,.38,.88,.38s.65-.13,.87-.38c.21-.26,.32-.59,.32-1.01v-.46c0-.41-.11-.73-.33-.98s-.51-.37-.87-.37-.64,.12-.86,.38-.33,.58-.33,1v.47Z"/></g><g><path class="k" d="M527.65,408.19v6.18c0,.98-.31,1.76-.94,2.33-.63,.57-1.46,.86-2.51,.86s-1.9-.28-2.52-.85c-.62-.56-.93-1.35-.93-2.35v-6.17h1.6v6.18c0,.62,.16,1.09,.47,1.42,.31,.33,.77,.49,1.38,.49,1.24,0,1.85-.65,1.85-1.96v-6.13h1.6Z"/><path class="k" d="M534.2,415.05c0-.41-.14-.72-.43-.94-.29-.22-.8-.44-1.55-.67s-1.34-.47-1.78-.75c-.84-.53-1.26-1.22-1.26-2.07,0-.74,.3-1.36,.91-1.84s1.4-.72,2.37-.72c.64,0,1.22,.12,1.72,.36s.9,.57,1.19,1.01c.29,.44,.43,.92,.43,1.46h-1.6c0-.48-.15-.86-.45-1.13-.3-.27-.74-.41-1.3-.41-.52,0-.93,.11-1.22,.34-.29,.22-.43,.54-.43,.94,0,.34,.16,.62,.47,.85,.31,.23,.83,.45,1.55,.66s1.3,.46,1.73,.73c.44,.27,.75,.59,.96,.94,.2,.35,.3,.77,.3,1.24,0,.77-.29,1.38-.89,1.84-.59,.46-1.39,.68-2.4,.68-.67,0-1.28-.12-1.84-.37-.56-.25-1-.59-1.31-1.03-.31-.44-.47-.94-.47-1.52h1.61c0,.53,.17,.93,.52,1.22,.35,.29,.84,.43,1.49,.43,.56,0,.98-.11,1.26-.34s.42-.53,.42-.9Z"/><path class="k" d="M542.39,415.28h-3.58l-.75,2.15h-1.67l3.49-9.24h1.44l3.5,9.24h-1.68l-.75-2.15Zm-3.13-1.29h2.68l-1.34-3.83-1.34,3.83Z"/><path class="k" d="M552.57,417.43h-.76v-8.33l-2.51,.93v-.71l3.15-1.17h.13v9.27Z"/><path class="k" d="M557.93,412.4h.79c.44,0,.82-.08,1.14-.23,.33-.15,.57-.37,.75-.63,.17-.27,.26-.58,.26-.93,0-.59-.17-1.06-.5-1.39-.33-.33-.81-.5-1.44-.5-.59,0-1.08,.17-1.46,.52-.38,.35-.57,.81-.57,1.38h-.76c0-.48,.12-.92,.36-1.31,.24-.4,.58-.7,1-.92,.43-.22,.9-.32,1.42-.32,.84,0,1.5,.23,1.98,.69s.72,1.08,.72,1.88c0,.44-.14,.85-.42,1.23-.28,.37-.67,.65-1.16,.84,.58,.16,1.01,.44,1.31,.83s.44,.86,.44,1.4c0,.79-.26,1.43-.77,1.91s-1.21,.72-2.07,.72c-.55,0-1.05-.11-1.51-.33s-.81-.53-1.07-.92c-.25-.4-.38-.86-.38-1.38h.76c0,.59,.21,1.07,.62,1.44,.41,.37,.94,.56,1.58,.56s1.17-.17,1.53-.5c.37-.34,.55-.82,.55-1.46s-.2-1.09-.59-1.42-.98-.49-1.75-.49h-.76v-.65Z"/><path class="k" d="M563.4,419.16l-.45-.33c.38-.52,.58-1.05,.6-1.61v-.98h.74v.79c0,.88-.3,1.59-.89,2.13Z"/><path class="k" d="M571.62,408.63l-3.95,8.8h-.79l3.92-8.59h-5.26v-.65h6.08v.44Z"/><path class="k" d="M576.12,409.97c0-.55,.17-1.01,.51-1.37,.34-.36,.77-.54,1.3-.54s.96,.18,1.3,.54c.34,.36,.51,.83,.51,1.41v.45c0,.54-.17,.99-.5,1.36-.34,.36-.77,.54-1.29,.54s-.95-.18-1.3-.53c-.35-.36-.52-.83-.52-1.41v-.44Zm.62,.49c0,.39,.11,.72,.33,.97,.22,.25,.51,.38,.88,.38s.65-.13,.86-.38,.32-.59,.32-1v-.46c0-.39-.11-.72-.33-.98-.22-.26-.51-.38-.86-.38s-.64,.13-.86,.38c-.22,.25-.33,.59-.33,1.02v.45Zm1.45,6.21l-.48-.3,4.51-7.22,.48,.3-4.51,7.22Zm2.59-1.5c0-.55,.17-1.01,.51-1.37s.77-.54,1.29-.54,.95,.18,1.3,.54c.34,.36,.52,.83,.52,1.41v.45c0,.55-.17,1.01-.51,1.37s-.77,.54-1.29,.54-.95-.18-1.3-.54c-.34-.36-.52-.82-.52-1.4v-.46Zm.61,.49c0,.4,.11,.72,.33,.98s.51,.38,.88,.38,.65-.13,.87-.38c.21-.26,.32-.59,.32-1.01v-.46c0-.41-.11-.73-.33-.98s-.51-.37-.87-.37-.64,.12-.86,.38c-.22,.25-.33,.58-.33,1v.47Z"/></g><g><path class="k" d="M432.86,473.44h-3.8v2.84h4.44v1.28h-6.04v-9.24h6v1.29h-4.39v2.55h3.8v1.27Z"/><path class="k" d="M441.57,468.33v6.18c0,.98-.31,1.76-.94,2.33-.63,.57-1.46,.86-2.51,.86s-1.9-.28-2.52-.85c-.62-.56-.93-1.35-.93-2.35v-6.17h1.6v6.18c0,.62,.16,1.09,.47,1.42,.31,.33,.77,.49,1.38,.49,1.24,0,1.85-.65,1.85-1.96v-6.13h1.6Z"/><path class="k" d="M446.13,474.26h-3.33v-1.24h3.33v1.24Z"/><path class="k" d="M453.52,477.57h-6.21v-1.06l3.08-3.36c.45-.5,.76-.91,.95-1.24,.19-.33,.28-.66,.28-1,0-.44-.12-.8-.37-1.07-.25-.27-.58-.41-1-.41-.5,0-.89,.15-1.16,.46s-.41,.72-.41,1.25h-1.54c0-.56,.13-1.07,.38-1.52,.26-.45,.62-.8,1.1-1.05s1.03-.37,1.65-.37c.9,0,1.61,.22,2.12,.68,.52,.45,.78,1.07,.78,1.87,0,.46-.13,.95-.39,1.45-.26,.5-.69,1.08-1.28,1.72l-2.26,2.42h4.29v1.23Z"/><path class="k" d="M460.84,469.18l-3.69,8.39h-1.62l3.69-8h-4.78v-1.24h6.4v.86Z"/><path class="k" d="M470.94,470.71c0,.48-.14,.91-.42,1.29-.28,.38-.65,.66-1.1,.83,.53,.18,.96,.48,1.28,.88s.48,.88,.48,1.41c0,.79-.27,1.42-.81,1.88s-1.25,.7-2.13,.7-1.61-.23-2.14-.69-.8-1.09-.8-1.89c0-.52,.15-.99,.46-1.4,.31-.41,.73-.71,1.27-.89-.46-.18-.82-.46-1.09-.83-.27-.38-.41-.81-.41-1.29,0-.77,.25-1.38,.74-1.83,.49-.45,1.15-.68,1.96-.68s1.47,.23,1.96,.69c.5,.46,.75,1.06,.75,1.82Zm-.52,4.42c0-.58-.21-1.05-.62-1.42-.41-.37-.94-.55-1.57-.55s-1.16,.18-1.57,.54c-.41,.36-.61,.84-.61,1.43s.2,1.06,.59,1.41c.39,.35,.93,.52,1.6,.52s1.18-.17,1.58-.52c.4-.35,.6-.82,.6-1.41Zm-.24-4.42c0-.53-.18-.97-.55-1.32-.37-.35-.83-.53-1.4-.53s-1.04,.17-1.4,.51c-.36,.34-.54,.79-.54,1.34s.18,.98,.54,1.31,.83,.49,1.41,.49,1.04-.17,1.4-.5c.36-.33,.54-.77,.54-1.3Z"/><path class="k" d="M472.66,479.29l-.45-.33c.38-.52,.58-1.05,.6-1.61v-.98h.74v.79c0,.88-.3,1.59-.89,2.13Z"/><path class="k" d="M480.98,477.57h-5.79v-.58l3.17-3.59c.52-.6,.89-1.1,1.09-1.5,.2-.39,.3-.78,.3-1.15,0-.58-.17-1.05-.51-1.39-.34-.34-.82-.51-1.42-.51s-1.12,.2-1.51,.6c-.38,.4-.57,.91-.57,1.55h-.76c0-.52,.12-1,.35-1.42,.24-.43,.57-.76,1-1.01,.43-.24,.93-.37,1.48-.37,.85,0,1.51,.22,1.98,.67,.48,.44,.71,1.05,.71,1.82,0,.43-.13,.9-.4,1.42-.27,.51-.74,1.15-1.42,1.92l-2.58,2.91h4.86v.64Z"/><path class="k" d="M485.38,470.1c0-.55,.17-1.01,.51-1.37,.34-.36,.77-.54,1.3-.54s.96,.18,1.3,.54c.34,.36,.51,.83,.51,1.41v.45c0,.54-.17,.99-.51,1.36s-.77,.54-1.29,.54-.96-.18-1.3-.53c-.35-.36-.52-.83-.52-1.41v-.44Zm.62,.49c0,.39,.11,.72,.33,.97,.22,.25,.51,.38,.88,.38s.65-.13,.86-.38c.21-.26,.32-.59,.32-1v-.46c0-.39-.11-.72-.33-.98-.22-.26-.51-.38-.86-.38s-.64,.13-.86,.38-.33,.59-.33,1.02v.45Zm1.45,6.21l-.47-.3,4.51-7.22,.48,.3-4.51,7.22Zm2.59-1.5c0-.55,.17-1,.51-1.36,.34-.36,.77-.54,1.29-.54s.95,.18,1.3,.54c.34,.36,.52,.83,.52,1.41v.45c0,.55-.17,1-.51,1.37-.34,.36-.77,.54-1.29,.54s-.95-.18-1.3-.54c-.34-.36-.52-.82-.52-1.4v-.46Zm.61,.49c0,.4,.11,.72,.33,.98,.22,.25,.51,.38,.88,.38s.65-.13,.87-.38c.21-.26,.32-.59,.32-1.01v-.46c0-.41-.11-.73-.33-.98-.22-.25-.51-.37-.87-.37s-.64,.12-.86,.38c-.22,.25-.33,.59-.33,1.01v.47Z"/></g><g><path class="k" d="M278.92,472.57h-1.6v-9.24h1.6v9.24Z"/><path class="k" d="M282.17,465.7l.04,.79c.51-.61,1.17-.92,2-.92,1.43,0,2.16,.82,2.18,2.46v4.54h-1.54v-4.45c0-.44-.09-.76-.28-.97-.19-.21-.5-.31-.92-.31-.62,0-1.09,.28-1.39,.84v4.89h-1.54v-6.87h1.45Z"/><path class="k" d="M287.69,469.08c0-1.06,.25-1.91,.74-2.55,.49-.64,1.15-.96,1.97-.96,.73,0,1.32,.25,1.76,.76v-3.52h1.54v9.75h-1.4l-.08-.71c-.46,.56-1.08,.84-1.85,.84s-1.46-.32-1.95-.97-.75-1.53-.75-2.64Zm1.54,.13c0,.7,.13,1.24,.4,1.63,.27,.39,.65,.59,1.15,.59,.63,0,1.09-.28,1.38-.84v-2.93c-.28-.55-.74-.83-1.37-.83-.5,0-.88,.2-1.16,.59s-.41,.99-.41,1.79Z"/><path class="k" d="M295.31,463.92c0-.24,.08-.43,.23-.59,.15-.16,.37-.24,.64-.24s.5,.08,.65,.24c.15,.16,.23,.35,.23,.59s-.08,.43-.23,.58-.37,.23-.65,.23-.49-.08-.64-.23-.23-.35-.23-.58Zm1.64,8.65h-1.54v-6.87h1.54v6.87Z"/><path class="k" d="M301.65,472.69c-.98,0-1.77-.31-2.38-.92-.61-.62-.91-1.44-.91-2.46v-.19c0-.69,.13-1.3,.4-1.84,.26-.54,.64-.96,1.11-1.26,.48-.3,1.01-.45,1.6-.45,.94,0,1.66,.3,2.17,.89s.77,1.44,.77,2.53v.62h-4.49c.05,.57,.24,1.02,.57,1.35s.75,.5,1.25,.5c.71,0,1.28-.29,1.73-.86l.83,.79c-.28,.41-.64,.73-1.1,.96s-.97,.34-1.55,.34Zm-.18-5.88c-.42,0-.76,.15-1.03,.44-.26,.3-.43,.71-.5,1.24h2.94v-.11c-.03-.52-.17-.91-.41-1.17-.24-.26-.58-.4-1-.4Z"/><path class="k" d="M313.41,463.26v.66h-.09c-1.1,0-1.97,.33-2.61,.98-.63,.65-.99,1.55-1.05,2.71,.25-.35,.58-.62,.97-.82,.39-.19,.83-.29,1.32-.29,.81,0,1.46,.28,1.94,.84s.72,1.29,.72,2.2c0,.6-.11,1.14-.34,1.62-.22,.48-.55,.86-.96,1.13-.42,.27-.9,.4-1.44,.4-.88,0-1.6-.32-2.16-.96-.55-.64-.83-1.47-.83-2.49v-.76c0-1.65,.38-2.94,1.13-3.84,.75-.91,1.82-1.37,3.21-1.39h.19Zm-1.58,3.9c-.48,0-.93,.14-1.35,.43s-.7,.65-.83,1.09v.65c0,.8,.21,1.46,.62,1.97,.41,.51,.95,.76,1.61,.76,.59,0,1.07-.23,1.44-.7,.37-.47,.55-1.06,.55-1.77s-.18-1.31-.55-1.75-.86-.66-1.48-.66Z"/><path class="k" d="M316.09,474.29l-.45-.33c.38-.52,.58-1.05,.6-1.61v-.98h.74v.79c0,.88-.3,1.59-.89,2.13Z"/><path class="k" d="M324.31,463.76l-3.95,8.8h-.79l3.92-8.59h-5.26v-.65h6.08v.44Z"/><path class="k" d="M328.8,465.1c0-.55,.17-1.01,.51-1.37,.34-.36,.77-.54,1.3-.54s.96,.18,1.3,.54c.34,.36,.51,.83,.51,1.41v.45c0,.54-.17,.99-.5,1.36-.34,.36-.77,.54-1.29,.54s-.95-.18-1.3-.53c-.35-.36-.52-.83-.52-1.41v-.44Zm.62,.49c0,.39,.11,.72,.33,.97,.22,.25,.51,.38,.88,.38s.65-.13,.86-.38c.21-.26,.32-.59,.32-1v-.46c0-.39-.11-.72-.33-.98-.22-.26-.51-.38-.86-.38s-.64,.13-.86,.38c-.22,.25-.33,.59-.33,1.02v.45Zm1.45,6.21l-.48-.3,4.51-7.22,.48,.3-4.51,7.22Zm2.59-1.5c0-.55,.17-1,.51-1.36,.34-.36,.77-.54,1.29-.54s.95,.18,1.3,.54c.34,.36,.52,.83,.52,1.41v.45c0,.55-.17,1-.51,1.37-.34,.36-.77,.54-1.29,.54s-.95-.18-1.3-.54-.52-.82-.52-1.4v-.46Zm.61,.49c0,.4,.11,.72,.33,.98,.22,.25,.51,.38,.88,.38s.65-.13,.87-.38c.21-.26,.32-.59,.32-1.01v-.46c0-.41-.11-.73-.33-.98s-.51-.37-.87-.37-.64,.12-.86,.38c-.22,.25-.33,.58-.33,1v.47Z"/></g><g><path class="k" d="M216.75,439.67h-1.79v3.55h-1.61v-9.24h3.25c1.07,0,1.89,.24,2.47,.72,.58,.48,.87,1.17,.87,2.08,0,.62-.15,1.14-.45,1.55-.3,.42-.71,.74-1.25,.96l2.08,3.85v.08h-1.72l-1.85-3.55Zm-1.79-1.29h1.65c.54,0,.96-.14,1.27-.41,.3-.27,.46-.65,.46-1.12s-.14-.88-.42-1.15c-.28-.27-.7-.41-1.26-.42h-1.7v3.1Z"/><path class="k" d="M225.47,442.56c-.45,.53-1.1,.8-1.93,.8-.75,0-1.31-.22-1.69-.65s-.57-1.07-.57-1.89v-4.45h1.54v4.43c0,.87,.36,1.31,1.08,1.31s1.25-.27,1.52-.81v-4.93h1.54v6.87h-1.45l-.04-.67Z"/><path class="k" d="M232.39,441.36c0-.28-.11-.48-.34-.63s-.6-.27-1.13-.38-.96-.25-1.31-.42c-.77-.37-1.15-.91-1.15-1.62,0-.59,.25-1.09,.75-1.49,.5-.4,1.13-.6,1.9-.6,.82,0,1.48,.2,1.99,.61s.76,.93,.76,1.58h-1.54c0-.3-.11-.54-.33-.74-.22-.2-.51-.29-.88-.29-.34,0-.61,.08-.83,.24s-.32,.37-.32,.63c0,.24,.1,.42,.3,.55,.2,.13,.6,.26,1.21,.4,.61,.13,1.08,.29,1.43,.48s.6,.4,.77,.66,.25,.57,.25,.94c0,.62-.26,1.12-.77,1.5-.51,.38-1.18,.57-2.01,.57-.56,0-1.06-.1-1.5-.3-.44-.2-.78-.48-1.03-.84-.25-.36-.37-.74-.37-1.15h1.5c.02,.36,.16,.64,.41,.84,.25,.2,.59,.29,1.01,.29s.71-.08,.93-.23c.21-.15,.32-.36,.32-.61Z"/><path class="k" d="M237.48,440.28l-.69,.71v2.24h-1.54v-9.75h1.54v5.62l.48-.6,1.9-2.14h1.85l-2.55,2.86,2.83,4h-1.78l-2.04-2.95Z"/><path class="k" d="M241.74,439.73c0-.67,.13-1.28,.4-1.82,.27-.54,.64-.95,1.12-1.24,.48-.29,1.04-.43,1.66-.43,.93,0,1.68,.3,2.26,.89,.58,.6,.89,1.39,.94,2.37v.36c0,.68-.12,1.28-.38,1.81-.26,.53-.63,.95-1.12,1.24s-1.04,.44-1.68,.44c-.97,0-1.75-.32-2.33-.97-.58-.65-.87-1.51-.87-2.58v-.08Zm1.54,.13c0,.71,.15,1.26,.44,1.66,.29,.4,.7,.6,1.22,.6s.92-.2,1.21-.61,.44-1,.44-1.78c0-.69-.15-1.24-.45-1.65-.3-.41-.7-.61-1.22-.61s-.9,.2-1.2,.6c-.3,.4-.44,1-.44,1.79Z"/><path class="k" d="M257.42,440.25h1.44v.64h-1.44v2.34h-.76v-2.34h-4.35v-.43l4.28-6.47h.83v6.27Zm-4.18,0h3.42v-5.28l-.34,.58-3.08,4.7Z"/><path class="k" d="M259.92,444.95l-.45-.33c.38-.52,.58-1.05,.6-1.61v-.98h.74v.79c0,.88-.3,1.59-.89,2.13Z"/><path class="k" d="M267.89,436.37c0,.48-.14,.91-.42,1.29s-.65,.66-1.1,.83c.53,.18,.96,.48,1.28,.88,.32,.41,.48,.88,.48,1.41,0,.79-.27,1.42-.81,1.88-.54,.46-1.25,.7-2.13,.7s-1.61-.23-2.14-.69-.8-1.09-.8-1.88c0-.53,.15-.99,.46-1.4,.31-.41,.73-.71,1.27-.89-.46-.18-.82-.46-1.09-.83-.27-.38-.41-.81-.41-1.29,0-.77,.25-1.38,.74-1.83s1.15-.68,1.96-.68,1.47,.23,1.96,.69,.75,1.06,.75,1.82Zm-.52,4.42c0-.58-.21-1.05-.62-1.42-.41-.37-.94-.56-1.57-.56s-1.16,.18-1.57,.55c-.41,.36-.61,.84-.61,1.43s.2,1.06,.59,1.41,.93,.52,1.6,.52,1.18-.17,1.58-.52c.4-.35,.6-.82,.6-1.41Zm-.24-4.42c0-.53-.18-.97-.55-1.32s-.83-.53-1.4-.53-1.04,.17-1.4,.51c-.36,.34-.54,.79-.54,1.34s.18,.98,.54,1.31,.83,.5,1.41,.5,1.04-.17,1.4-.5c.36-.33,.54-.77,.54-1.3Z"/><path class="k" d="M272.63,435.76c0-.55,.17-1.01,.51-1.37s.77-.54,1.3-.54,.96,.18,1.3,.54,.51,.83,.51,1.41v.45c0,.54-.17,.99-.5,1.35-.34,.36-.77,.54-1.29,.54s-.95-.18-1.3-.53c-.35-.36-.52-.82-.52-1.41v-.45Zm.62,.49c0,.39,.11,.72,.33,.97s.51,.38,.88,.38,.65-.13,.86-.38c.21-.26,.32-.59,.32-1v-.46c0-.39-.11-.72-.33-.98s-.51-.38-.86-.38-.64,.13-.86,.38c-.22,.25-.33,.59-.33,1.02v.45Zm1.45,6.21l-.48-.3,4.51-7.22,.48,.3-4.51,7.22Zm2.59-1.5c0-.55,.17-1,.51-1.37,.34-.36,.77-.54,1.29-.54s.95,.18,1.3,.54c.34,.36,.52,.83,.52,1.41v.45c0,.55-.17,1-.51,1.36-.34,.36-.77,.54-1.29,.54s-.95-.18-1.3-.54-.52-.82-.52-1.4v-.46Zm.61,.49c0,.4,.11,.73,.33,.98,.22,.25,.51,.38,.88,.38s.65-.13,.87-.38,.32-.59,.32-1.01v-.46c0-.41-.11-.73-.33-.98s-.51-.37-.87-.37-.64,.12-.86,.38c-.22,.25-.33,.58-.33,1v.47Z"/></g><g><path class="k" d="M173.03,401.74h1.6v6.48c0,.88-.28,1.59-.83,2.11-.55,.52-1.28,.78-2.19,.78-.96,0-1.71-.24-2.23-.73-.52-.49-.79-1.16-.79-2.03h1.6c0,.49,.12,.86,.37,1.11,.24,.25,.6,.37,1.06,.37,.43,0,.78-.14,1.03-.43,.26-.29,.38-.68,.38-1.18v-6.47Z"/><path class="k" d="M180.42,410.98c-.07-.13-.13-.34-.18-.64-.49,.51-1.09,.77-1.8,.77s-1.25-.2-1.69-.59c-.44-.39-.65-.88-.65-1.46,0-.73,.27-1.29,.82-1.69s1.32-.59,2.33-.59h.95v-.45c0-.36-.1-.64-.3-.85s-.5-.32-.91-.32c-.35,0-.64,.09-.86,.26-.22,.18-.34,.4-.34,.67h-1.54c0-.38,.12-.73,.38-1.06s.59-.58,1.02-.77c.43-.19,.91-.28,1.44-.28,.8,0,1.44,.2,1.92,.61s.72,.97,.74,1.7v3.1c0,.62,.09,1.11,.26,1.48v.11h-1.57Zm-1.7-1.11c.3,0,.59-.07,.86-.22,.27-.15,.47-.35,.61-.6v-1.29h-.83c-.57,0-1,.1-1.29,.3-.29,.2-.43,.48-.43,.84,0,.3,.1,.53,.3,.71,.2,.18,.46,.26,.79,.26Z"/><path class="k" d="M189.36,407.61c0,1.06-.24,1.91-.72,2.54-.48,.63-1.13,.95-1.94,.95-.75,0-1.36-.25-1.81-.74v3.26h-1.54v-9.51h1.42l.06,.7c.45-.55,1.07-.83,1.85-.83,.84,0,1.5,.31,1.97,.94,.48,.62,.71,1.49,.71,2.6v.09Zm-1.54-.13c0-.69-.14-1.23-.41-1.63-.27-.4-.66-.6-1.17-.6-.63,0-1.08,.26-1.36,.78v3.05c.28,.53,.74,.8,1.37,.8,.49,0,.87-.2,1.15-.59,.28-.4,.42-1,.42-1.8Z"/><path class="k" d="M190.38,407.48c0-.67,.13-1.28,.4-1.82,.27-.54,.64-.95,1.12-1.24,.48-.29,1.04-.43,1.66-.43,.93,0,1.68,.3,2.26,.9,.58,.6,.89,1.39,.94,2.37v.36c0,.68-.12,1.28-.38,1.82-.26,.53-.63,.95-1.12,1.24s-1.04,.44-1.68,.44c-.97,0-1.75-.32-2.33-.97s-.87-1.51-.87-2.58v-.08Zm1.54,.13c0,.71,.15,1.26,.44,1.66,.29,.4,.7,.6,1.22,.6s.92-.2,1.21-.61,.44-1,.44-1.78c0-.69-.15-1.24-.45-1.65-.3-.41-.7-.61-1.22-.61s-.9,.2-1.2,.6c-.3,.4-.44,1-.44,1.79Z"/><path class="k" d="M199.5,404.11l.04,.79c.51-.61,1.17-.92,2-.92,1.43,0,2.16,.82,2.18,2.46v4.54h-1.54v-4.45c0-.44-.09-.76-.28-.97-.19-.21-.5-.31-.92-.31-.62,0-1.09,.28-1.39,.84v4.89h-1.54v-6.87h1.45Z"/><path class="k" d="M209.15,409.11c0-.27-.11-.48-.34-.63-.23-.14-.6-.27-1.13-.38-.52-.11-.96-.25-1.31-.42-.77-.37-1.15-.91-1.15-1.62,0-.59,.25-1.09,.75-1.49,.5-.4,1.13-.6,1.9-.6,.82,0,1.48,.2,1.99,.61s.76,.93,.76,1.58h-1.54c0-.3-.11-.54-.33-.74-.22-.2-.51-.29-.88-.29-.34,0-.61,.08-.83,.24-.21,.16-.32,.37-.32,.63,0,.24,.1,.42,.3,.55,.2,.13,.6,.26,1.21,.4,.61,.13,1.08,.29,1.43,.48,.34,.18,.6,.41,.77,.66,.17,.26,.25,.57,.25,.94,0,.62-.26,1.12-.77,1.5-.51,.38-1.18,.57-2.01,.57-.56,0-1.06-.1-1.5-.3-.44-.2-.78-.48-1.03-.84-.25-.36-.37-.74-.37-1.15h1.5c.02,.36,.16,.64,.41,.84,.25,.2,.59,.29,1.01,.29s.71-.08,.93-.23c.21-.15,.32-.36,.32-.61Z"/><path class="k" d="M214.24,408.03l-.69,.71v2.24h-1.54v-9.75h1.54v5.62l.48-.6,1.9-2.14h1.85l-2.55,2.86,2.83,4h-1.78l-2.04-2.95Z"/><path class="k" d="M218.5,407.48c0-.67,.13-1.28,.4-1.82,.27-.54,.64-.95,1.12-1.24,.48-.29,1.04-.43,1.66-.43,.93,0,1.68,.3,2.26,.9,.58,.6,.89,1.39,.94,2.37v.36c0,.68-.12,1.28-.38,1.82-.26,.53-.63,.95-1.12,1.24s-1.04,.44-1.68,.44c-.97,0-1.75-.32-2.33-.97s-.87-1.51-.87-2.58v-.08Zm1.54,.13c0,.71,.15,1.26,.44,1.66,.29,.4,.7,.6,1.22,.6s.92-.2,1.21-.61,.44-1,.44-1.78c0-.69-.15-1.24-.45-1.65-.3-.41-.7-.61-1.22-.61s-.9,.2-1.2,.6c-.3,.4-.44,1-.44,1.79Z"/><path class="k" d="M231.2,405.94h.79c.44,0,.82-.08,1.14-.23,.33-.15,.57-.37,.75-.63,.17-.27,.26-.58,.26-.93,0-.59-.17-1.06-.5-1.39-.33-.33-.81-.5-1.44-.5-.59,0-1.08,.17-1.46,.52-.38,.35-.57,.81-.57,1.38h-.76c0-.48,.12-.92,.36-1.31,.24-.4,.58-.7,1-.92,.43-.22,.9-.32,1.42-.32,.84,0,1.5,.23,1.98,.69s.72,1.08,.72,1.88c0,.44-.14,.85-.42,1.23-.28,.37-.67,.66-1.16,.84,.58,.16,1.01,.44,1.31,.83,.3,.39,.44,.86,.44,1.4,0,.79-.26,1.43-.77,1.91s-1.21,.72-2.07,.72c-.55,0-1.05-.11-1.51-.33-.46-.22-.81-.53-1.07-.92-.25-.4-.38-.86-.38-1.38h.76c0,.59,.21,1.07,.62,1.44,.41,.37,.94,.56,1.58,.56s1.17-.17,1.53-.5c.37-.34,.55-.82,.55-1.46s-.2-1.09-.59-1.42c-.4-.33-.98-.49-1.75-.49h-.76v-.65Z"/><path class="k" d="M236.68,412.7l-.45-.33c.38-.52,.58-1.05,.6-1.61v-.98h.74v.79c0,.88-.3,1.59-.89,2.13Z"/><path class="k" d="M242.74,410.98h-.76v-8.33l-2.51,.93v-.71l3.15-1.17h.13v9.27Z"/><path class="k" d="M249.39,403.51c0-.55,.17-1.01,.51-1.37,.34-.36,.77-.54,1.3-.54s.96,.18,1.3,.54c.34,.36,.51,.83,.51,1.41v.45c0,.54-.17,.99-.5,1.35-.34,.36-.77,.54-1.29,.54s-.95-.18-1.3-.53c-.35-.36-.52-.83-.52-1.41v-.44Zm.62,.49c0,.39,.11,.72,.33,.97,.22,.25,.51,.38,.88,.38s.65-.13,.86-.38c.21-.26,.32-.59,.32-1v-.46c0-.39-.11-.72-.33-.98-.22-.26-.51-.38-.86-.38s-.64,.13-.86,.38c-.22,.25-.33,.59-.33,1.02v.45Zm1.45,6.21l-.48-.3,4.51-7.22,.48,.3-4.51,7.22Zm2.59-1.5c0-.55,.17-1,.51-1.37,.34-.36,.77-.54,1.29-.54s.95,.18,1.3,.54,.52,.83,.52,1.41v.45c0,.55-.17,1-.51,1.36-.34,.36-.77,.54-1.29,.54s-.95-.18-1.3-.54c-.34-.36-.52-.82-.52-1.4v-.46Zm.61,.49c0,.4,.11,.73,.33,.98,.22,.25,.51,.38,.88,.38s.65-.13,.87-.38c.21-.26,.32-.59,.32-1.01v-.46c0-.41-.11-.73-.33-.98s-.51-.37-.87-.37-.64,.12-.86,.38-.33,.58-.33,1v.47Z"/></g><g><path class="k" d="M84.62,302.18c0,.91-.16,1.7-.47,2.38s-.76,1.21-1.34,1.57c-.58,.37-1.25,.55-2.01,.55s-1.42-.18-2-.55c-.59-.37-1.04-.89-1.36-1.56-.32-.68-.48-1.46-.49-2.34v-.52c0-.9,.16-1.7,.48-2.39s.77-1.22,1.35-1.58c.58-.37,1.25-.55,2-.55s1.42,.18,2,.54c.58,.36,1.03,.88,1.35,1.56,.32,.68,.48,1.47,.48,2.37v.51Zm-1.61-.48c0-1.02-.19-1.81-.58-2.35-.39-.55-.94-.82-1.65-.82s-1.24,.27-1.63,.82c-.39,.54-.59,1.31-.6,2.31v.53c0,1.02,.2,1.8,.59,2.35,.4,.55,.95,.83,1.65,.83s1.26-.27,1.64-.81,.57-1.33,.57-2.37v-.48Z"/><path class="k" d="M89.92,304.69c0-.27-.11-.48-.34-.63-.23-.14-.6-.27-1.13-.38-.52-.11-.96-.25-1.31-.42-.77-.37-1.15-.91-1.15-1.62,0-.59,.25-1.09,.75-1.49,.5-.4,1.13-.6,1.9-.6,.82,0,1.48,.2,1.99,.61s.76,.93,.76,1.58h-1.54c0-.3-.11-.54-.33-.74-.22-.2-.51-.29-.88-.29-.34,0-.61,.08-.83,.23-.21,.16-.32,.37-.32,.63,0,.24,.1,.42,.3,.55,.2,.13,.6,.26,1.21,.4,.61,.13,1.08,.29,1.43,.48,.34,.18,.6,.41,.77,.66,.17,.26,.25,.57,.25,.94,0,.62-.26,1.12-.77,1.5-.51,.38-1.18,.57-2.01,.57-.56,0-1.06-.1-1.5-.3-.44-.2-.78-.48-1.03-.84-.25-.36-.37-.74-.37-1.15h1.5c.02,.36,.16,.64,.41,.84,.25,.2,.59,.29,1.01,.29s.71-.08,.93-.23c.21-.15,.32-.36,.32-.61Z"/><path class="k" d="M94.71,298.02v1.67h1.21v1.14h-1.21v3.83c0,.26,.05,.45,.16,.57s.29,.17,.55,.17c.18,0,.36-.02,.54-.06v1.19c-.35,.1-.69,.15-1.02,.15-1.18,0-1.78-.65-1.78-1.96v-3.89h-1.13v-1.14h1.13v-1.67h1.54Z"/><path class="k" d="M101.21,306.56c-.07-.13-.13-.34-.18-.64-.49,.51-1.09,.77-1.8,.77s-1.25-.2-1.69-.59c-.44-.39-.65-.88-.65-1.46,0-.73,.27-1.29,.82-1.68s1.32-.59,2.33-.59h.95v-.45c0-.36-.1-.64-.3-.85-.2-.21-.5-.32-.91-.32-.35,0-.64,.09-.86,.26-.22,.18-.34,.4-.34,.67h-1.54c0-.38,.12-.73,.38-1.06,.25-.33,.59-.58,1.02-.77s.91-.28,1.44-.28c.8,0,1.44,.2,1.92,.61s.72,.97,.74,1.7v3.1c0,.62,.09,1.11,.26,1.48v.11h-1.57Zm-1.7-1.11c.3,0,.59-.07,.86-.22s.47-.35,.61-.6v-1.29h-.83c-.57,0-1,.1-1.29,.3-.29,.2-.43,.48-.43,.84,0,.3,.1,.53,.3,.71,.2,.17,.46,.26,.79,.26Z"/><path class="k" d="M106.07,298.02v1.67h1.21v1.14h-1.21v3.83c0,.26,.05,.45,.16,.57s.29,.17,.55,.17c.18,0,.36-.02,.54-.06v1.19c-.35,.1-.69,.15-1.02,.15-1.18,0-1.78-.65-1.78-1.96v-3.89h-1.13v-1.14h1.13v-1.67h1.54Z"/><path class="k" d="M109.89,299.69l.04,.79c.51-.61,1.17-.92,2-.92,1.43,0,2.16,.82,2.18,2.46v4.54h-1.54v-4.45c0-.44-.09-.76-.28-.97-.19-.21-.5-.31-.92-.31-.62,0-1.09,.28-1.39,.84v4.89h-1.54v-6.87h1.45Z"/><path class="k" d="M117.35,306.56h-1.54v-6.87h1.54v6.87Zm-.29-9.71h1.76l-1.76,1.92h-1.24l1.24-1.92Z"/><path class="k" d="M121.93,305.46c.39,0,.71-.11,.96-.34,.25-.22,.39-.5,.41-.83h1.45c-.02,.43-.15,.83-.4,1.2-.25,.37-.59,.66-1.02,.88-.43,.22-.89,.32-1.38,.32-.96,0-1.72-.31-2.29-.93-.56-.62-.84-1.48-.84-2.58v-.16c0-1.05,.28-1.88,.84-2.51,.56-.63,1.32-.94,2.29-.94,.82,0,1.48,.24,2,.71,.51,.48,.78,1.1,.81,1.88h-1.45c-.02-.39-.15-.72-.4-.97s-.57-.38-.96-.38c-.5,0-.88,.18-1.15,.54-.27,.36-.41,.91-.41,1.65v.25c0,.75,.13,1.3,.4,1.67s.66,.55,1.16,.55Z"/><path class="k" d="M127.43,300.44c.5-.58,1.14-.88,1.91-.88,1.46,0,2.21,.84,2.23,2.51v4.49h-1.54v-4.43c0-.47-.1-.81-.31-1.01-.21-.2-.51-.3-.9-.3-.62,0-1.08,.28-1.38,.83v4.91h-1.54v-9.75h1.54v3.63Z"/><path class="k" d="M140.64,302.69c-.52,.54-1.12,.82-1.81,.82-.81,0-1.46-.29-1.94-.85-.48-.57-.72-1.32-.72-2.24,0-.61,.12-1.16,.37-1.66,.25-.5,.59-.88,1.05-1.16,.45-.27,.98-.41,1.57-.41,.93,0,1.67,.35,2.21,1.04,.55,.69,.82,1.62,.82,2.79v.43c0,1.67-.38,2.94-1.13,3.81s-1.88,1.32-3.37,1.33h-.18v-1.28h.22c.91-.01,1.61-.23,2.09-.66,.49-.43,.76-1.08,.82-1.97Zm-1.49-.39c.31,0,.6-.09,.87-.27,.27-.18,.48-.42,.63-.74v-.6c0-.68-.14-1.23-.42-1.64s-.64-.62-1.08-.62-.8,.18-1.06,.55c-.26,.37-.4,.83-.4,1.39s.13,1.05,.4,1.4,.62,.53,1.07,.53Z"/><path class="k" d="M148.03,302.69c-.52,.54-1.12,.82-1.81,.82-.81,0-1.46-.29-1.94-.85-.48-.57-.72-1.32-.72-2.24,0-.61,.12-1.16,.37-1.66,.25-.5,.59-.88,1.05-1.16,.45-.27,.98-.41,1.57-.41,.93,0,1.67,.35,2.21,1.04,.55,.69,.82,1.62,.82,2.79v.43c0,1.67-.38,2.94-1.13,3.81s-1.88,1.32-3.37,1.33h-.18v-1.28h.22c.91-.01,1.61-.23,2.09-.66,.49-.43,.76-1.08,.82-1.97Zm-1.49-.39c.31,0,.6-.09,.87-.27,.27-.18,.48-.42,.63-.74v-.6c0-.68-.14-1.23-.42-1.64s-.64-.62-1.08-.62-.8,.18-1.06,.55c-.26,.37-.4,.83-.4,1.39s.13,1.05,.4,1.4,.62,.53,1.07,.53Z"/><path class="k" d="M158.23,304.69c0-.27-.11-.48-.34-.63-.23-.14-.6-.27-1.13-.38-.52-.11-.96-.25-1.31-.42-.77-.37-1.15-.91-1.15-1.62,0-.59,.25-1.09,.75-1.49,.5-.4,1.13-.6,1.9-.6,.82,0,1.48,.2,1.99,.61s.76,.93,.76,1.58h-1.54c0-.3-.11-.54-.33-.74-.22-.2-.51-.29-.88-.29-.34,0-.61,.08-.83,.23-.21,.16-.32,.37-.32,.63,0,.24,.1,.42,.3,.55,.2,.13,.6,.26,1.21,.4,.61,.13,1.08,.29,1.43,.48,.34,.18,.6,.41,.77,.66,.17,.26,.25,.57,.25,.94,0,.62-.26,1.12-.77,1.5-.51,.38-1.18,.57-2.01,.57-.56,0-1.06-.1-1.5-.3-.44-.2-.78-.48-1.03-.84-.25-.36-.37-.74-.37-1.15h1.5c.02,.36,.16,.64,.41,.84,.25,.2,.59,.29,1.01,.29s.71-.08,.93-.23c.21-.15,.32-.36,.32-.61Z"/><path class="k" d="M163.02,298.02v1.67h1.21v1.14h-1.21v3.83c0,.26,.05,.45,.16,.57s.29,.17,.55,.17c.18,0,.36-.02,.54-.06v1.19c-.35,.1-.69,.15-1.02,.15-1.18,0-1.78-.65-1.78-1.96v-3.89h-1.13v-1.14h1.13v-1.67h1.54Z"/><path class="k" d="M169.52,306.56c-.07-.13-.13-.34-.18-.64-.49,.51-1.09,.77-1.8,.77s-1.25-.2-1.69-.59c-.44-.39-.65-.88-.65-1.46,0-.73,.27-1.29,.82-1.68s1.32-.59,2.33-.59h.95v-.45c0-.36-.1-.64-.3-.85-.2-.21-.5-.32-.91-.32-.35,0-.64,.09-.86,.26-.22,.18-.34,.4-.34,.67h-1.54c0-.38,.12-.73,.38-1.06,.25-.33,.59-.58,1.02-.77s.91-.28,1.44-.28c.8,0,1.44,.2,1.92,.61s.72,.97,.74,1.7v3.1c0,.62,.09,1.11,.26,1.48v.11h-1.57Zm-1.7-1.11c.3,0,.59-.07,.86-.22s.47-.35,.61-.6v-1.29h-.83c-.57,0-1,.1-1.29,.3-.29,.2-.43,.48-.43,.84,0,.3,.1,.53,.3,.71,.2,.17,.46,.26,.79,.26Zm.86-8.64h1.76l-1.76,1.92h-1.24l1.24-1.92Z"/><path class="k" d="M174.38,298.02v1.67h1.21v1.14h-1.21v3.83c0,.26,.05,.45,.16,.57s.29,.17,.55,.17c.18,0,.36-.02,.54-.06v1.19c-.35,.1-.69,.15-1.02,.15-1.18,0-1.78-.65-1.78-1.96v-3.89h-1.13v-1.14h1.13v-1.67h1.54Z"/><path class="k" d="M180.93,305.89c-.45,.53-1.1,.8-1.93,.8-.75,0-1.31-.22-1.69-.65-.38-.44-.57-1.07-.57-1.89v-4.45h1.54v4.43c0,.87,.36,1.31,1.08,1.31s1.25-.27,1.52-.81v-4.93h1.54v6.87h-1.45l-.04-.67Zm-1.33-9.67c.39,0,.73,.13,1,.39,.27,.26,.41,.57,.41,.93s-.13,.67-.4,.92-.6,.38-1.01,.38-.75-.13-1.01-.38-.4-.56-.4-.92,.13-.67,.4-.93c.27-.26,.6-.39,1.01-.39Zm-.71,1.32c0,.2,.07,.37,.21,.5,.14,.14,.31,.21,.5,.21s.37-.07,.5-.2,.21-.3,.21-.51-.07-.36-.2-.5c-.13-.14-.3-.21-.51-.21s-.38,.07-.51,.21c-.13,.14-.2,.31-.2,.5Z"/><path class="k" d="M196.26,306.56h-5.79v-.58l3.17-3.59c.52-.6,.89-1.1,1.09-1.5s.3-.78,.3-1.15c0-.58-.17-1.05-.51-1.39-.34-.34-.82-.51-1.42-.51s-1.12,.2-1.51,.6-.57,.91-.57,1.55h-.76c0-.52,.12-.99,.35-1.42,.24-.43,.57-.76,1-1.01,.43-.24,.93-.37,1.48-.37,.85,0,1.51,.22,1.98,.67,.48,.45,.71,1.05,.71,1.82,0,.43-.13,.9-.4,1.42s-.74,1.15-1.42,1.92l-2.58,2.91h4.86v.64Z"/><path class="k" d="M203.25,302.71c0,1.3-.24,2.29-.72,2.97s-1.18,1.01-2.11,1.01-1.61-.33-2.1-.99c-.49-.66-.74-1.63-.75-2.89v-1.66c0-1.3,.24-2.28,.72-2.95s1.19-1,2.11-1,1.61,.32,2.09,.97,.73,1.6,.75,2.85v1.69Zm-.76-1.66c0-1.06-.17-1.86-.52-2.4s-.87-.81-1.56-.81-1.2,.26-1.55,.79c-.35,.53-.53,1.31-.53,2.34v1.82c0,1.05,.18,1.86,.54,2.42s.88,.84,1.56,.84,1.19-.27,1.54-.82c.35-.55,.53-1.35,.53-2.4v-1.78Z"/><path class="k" d="M204.84,308.29l-.45-.33c.38-.52,.58-1.05,.6-1.61v-.98h.74v.79c0,.88-.3,1.59-.89,2.13Z"/><path class="k" d="M212.11,302.28c-.27,.4-.61,.71-1.01,.92-.4,.22-.84,.33-1.31,.33-.53,0-.99-.14-1.39-.41-.4-.27-.71-.65-.93-1.12-.22-.48-.33-1-.33-1.57,0-.61,.12-1.16,.35-1.66,.24-.5,.56-.89,.98-1.16s.91-.42,1.46-.42c.93,0,1.65,.32,2.17,.97,.52,.65,.77,1.57,.77,2.76v.69c0,1.67-.36,2.92-1.07,3.76s-1.8,1.26-3.26,1.26h-.14v-.66h.27c1.1-.02,1.94-.33,2.52-.94,.58-.61,.88-1.53,.91-2.75Zm-2.22,.59c.51,0,.96-.15,1.37-.45s.69-.69,.86-1.17v-.44c0-.94-.2-1.66-.59-2.18-.39-.52-.92-.78-1.58-.78-.6,0-1.09,.24-1.48,.72-.38,.48-.58,1.09-.58,1.83s.18,1.29,.55,1.76,.85,.71,1.44,.71Z"/><path class="k" d="M217.55,299.1c0-.55,.17-1.01,.51-1.37,.34-.36,.77-.54,1.3-.54s.96,.18,1.3,.54c.34,.36,.51,.83,.51,1.41v.45c0,.54-.17,.99-.5,1.36-.34,.36-.77,.54-1.29,.54s-.95-.18-1.3-.53c-.35-.36-.52-.83-.52-1.41v-.44Zm.62,.49c0,.39,.11,.72,.33,.97,.22,.25,.51,.38,.88,.38s.65-.13,.86-.38,.32-.59,.32-1v-.46c0-.39-.11-.72-.33-.98-.22-.26-.51-.38-.86-.38s-.64,.13-.86,.38c-.22,.25-.33,.59-.33,1.02v.45Zm1.45,6.21l-.48-.3,4.51-7.22,.48,.3-4.51,7.22Zm2.59-1.5c0-.55,.17-1.01,.51-1.37s.77-.54,1.29-.54,.95,.18,1.3,.54c.34,.36,.52,.83,.52,1.41v.45c0,.55-.17,1.01-.51,1.37s-.77,.54-1.29,.54-.95-.18-1.3-.54c-.34-.36-.52-.82-.52-1.4v-.46Zm.61,.49c0,.4,.11,.72,.33,.98s.51,.38,.88,.38,.65-.13,.87-.38c.21-.26,.32-.59,.32-1.01v-.46c0-.41-.11-.73-.33-.98s-.51-.37-.87-.37-.64,.12-.86,.38c-.22,.25-.33,.58-.33,1v.47Z"/></g><g><path class="m" d="M156.7,182.14c0-.41-.14-.72-.43-.94-.29-.22-.8-.44-1.55-.67-.75-.22-1.34-.47-1.78-.75-.84-.53-1.26-1.22-1.26-2.07,0-.75,.3-1.36,.91-1.84s1.4-.72,2.37-.72c.64,0,1.22,.12,1.72,.36,.5,.24,.9,.57,1.19,1.01,.29,.44,.43,.92,.43,1.46h-1.6c0-.48-.15-.86-.45-1.13-.3-.27-.74-.41-1.3-.41-.52,0-.93,.11-1.22,.34-.29,.22-.43,.54-.43,.94,0,.34,.16,.62,.47,.85s.83,.45,1.55,.66,1.3,.46,1.73,.73c.44,.27,.75,.59,.96,.94,.2,.35,.3,.77,.3,1.24,0,.77-.29,1.38-.89,1.84-.59,.46-1.39,.68-2.4,.68-.67,0-1.28-.12-1.84-.37-.56-.25-1-.59-1.31-1.03-.31-.44-.47-.94-.47-1.52h1.61c0,.52,.17,.93,.52,1.22,.35,.29,.84,.43,1.49,.43,.56,0,.98-.11,1.26-.34s.42-.53,.42-.9Z"/><path class="m" d="M161.5,175.98v1.67h1.21v1.14h-1.21v3.83c0,.26,.05,.45,.16,.57,.1,.12,.29,.17,.55,.17,.18,0,.36-.02,.54-.06v1.19c-.35,.1-.69,.15-1.02,.15-1.18,0-1.78-.65-1.78-1.96v-3.89h-1.13v-1.14h1.13v-1.67h1.54Z"/><path class="m" d="M167.99,184.52c-.07-.13-.13-.34-.18-.64-.49,.51-1.09,.77-1.8,.77s-1.25-.2-1.69-.59c-.44-.39-.65-.88-.65-1.46,0-.73,.27-1.29,.82-1.68,.54-.39,1.32-.59,2.33-.59h.95v-.45c0-.36-.1-.64-.3-.85-.2-.21-.5-.32-.91-.32-.35,0-.64,.09-.86,.26-.22,.18-.34,.4-.34,.67h-1.54c0-.38,.12-.73,.38-1.06,.25-.33,.59-.59,1.02-.77,.43-.19,.91-.28,1.44-.28,.8,0,1.44,.2,1.92,.61,.48,.4,.72,.97,.74,1.7v3.1c0,.62,.09,1.11,.26,1.48v.11h-1.57Zm-1.7-1.11c.3,0,.59-.07,.86-.22,.27-.15,.47-.35,.61-.6v-1.29h-.83c-.57,0-1,.1-1.29,.3-.29,.2-.43,.48-.43,.84,0,.3,.1,.53,.3,.71,.2,.17,.46,.26,.79,.26Zm.86-8.64h1.76l-1.76,1.92h-1.24l1.24-1.92Z"/><path class="m" d="M172.86,175.98v1.67h1.21v1.14h-1.21v3.83c0,.26,.05,.45,.16,.57,.1,.12,.29,.17,.55,.17,.18,0,.36-.02,.54-.06v1.19c-.35,.1-.69,.15-1.02,.15-1.18,0-1.78-.65-1.78-1.96v-3.89h-1.13v-1.14h1.13v-1.67h1.54Z"/><path class="m" d="M177.65,182.31l1.4-4.66h1.64l-2.73,7.91c-.42,1.16-1.13,1.73-2.13,1.73-.22,0-.47-.04-.74-.11v-1.2l.29,.02c.39,0,.68-.07,.88-.21,.2-.14,.35-.38,.47-.71l.22-.59-2.41-6.83h1.66l1.45,4.66Z"/><path class="m" d="M190.84,181.15c0,1.07-.24,1.92-.71,2.54-.48,.63-1.13,.95-1.96,.95s-1.43-.29-1.88-.87l-.08,.74h-1.4v-9.75h1.54v3.54c.44-.53,1.04-.79,1.8-.79,.84,0,1.5,.31,1.97,.93,.48,.62,.72,1.49,.72,2.61v.09Zm-1.54-.13c0-.74-.13-1.3-.39-1.68-.26-.37-.64-.56-1.14-.56-.67,0-1.14,.29-1.41,.88v2.83c.27,.6,.75,.9,1.42,.9,.48,0,.85-.18,1.12-.54,.26-.36,.4-.9,.41-1.63v-.2Z"/><path class="m" d="M195.16,184.65c-.98,0-1.77-.31-2.38-.92-.61-.62-.91-1.44-.91-2.46v-.19c0-.69,.13-1.3,.4-1.84,.26-.54,.64-.96,1.11-1.26,.48-.3,1.01-.45,1.6-.45,.94,0,1.66,.3,2.17,.89s.77,1.44,.77,2.53v.62h-4.49c.05,.57,.24,1.02,.57,1.35s.75,.5,1.25,.5c.71,0,1.28-.29,1.73-.86l.83,.79c-.28,.41-.64,.73-1.1,.96s-.97,.34-1.55,.34Zm-.18-5.88c-.42,0-.76,.15-1.03,.44-.26,.3-.43,.71-.5,1.24h2.94v-.11c-.03-.52-.17-.91-.41-1.17-.24-.26-.58-.4-1-.4Z"/><path class="m" d="M200.75,183.29h3.66v1.23h-5.57v-1.01l3.49-4.61h-3.42v-1.24h5.38v.98l-3.52,4.66Z"/><path class="m" d="M210.53,183.29h3.66v1.23h-5.57v-1.01l3.49-4.61h-3.42v-1.24h5.38v.98l-3.52,4.66Z"/><path class="m" d="M219.53,184.52c-.07-.13-.13-.34-.18-.64-.49,.51-1.09,.77-1.8,.77s-1.25-.2-1.69-.59c-.44-.39-.65-.88-.65-1.46,0-.73,.27-1.29,.82-1.68,.54-.39,1.32-.59,2.33-.59h.95v-.45c0-.36-.1-.64-.3-.85-.2-.21-.5-.32-.91-.32-.35,0-.64,.09-.86,.26-.22,.18-.34,.4-.34,.67h-1.54c0-.38,.12-.73,.38-1.06,.25-.33,.59-.59,1.02-.77,.43-.19,.91-.28,1.44-.28,.8,0,1.44,.2,1.92,.61,.48,.4,.72,.97,.74,1.7v3.1c0,.62,.09,1.11,.26,1.48v.11h-1.57Zm-1.7-1.11c.3,0,.59-.07,.86-.22,.27-.15,.47-.35,.61-.6v-1.29h-.83c-.57,0-1,.1-1.29,.3-.29,.2-.43,.48-.43,.84,0,.3,.1,.53,.3,.71,.2,.17,.46,.26,.79,.26Zm.86-8.64h1.76l-1.76,1.92h-1.24l1.24-1.92Z"/><path class="m" d="M224.88,182.56l1.45-4.91h1.59l-2.38,6.87h-1.34l-2.4-6.87h1.6l1.47,4.91Z"/><path class="m" d="M232.89,184.52c-.07-.13-.13-.34-.18-.64-.49,.51-1.09,.77-1.8,.77s-1.25-.2-1.69-.59c-.44-.39-.65-.88-.65-1.46,0-.73,.27-1.29,.82-1.68,.54-.39,1.32-.59,2.33-.59h.95v-.45c0-.36-.1-.64-.3-.85-.2-.21-.5-.32-.91-.32-.35,0-.64,.09-.86,.26-.22,.18-.34,.4-.34,.67h-1.54c0-.38,.12-.73,.38-1.06,.25-.33,.59-.59,1.02-.77,.43-.19,.91-.28,1.44-.28,.8,0,1.44,.2,1.92,.61,.48,.4,.72,.97,.74,1.7v3.1c0,.62,.09,1.11,.26,1.48v.11h-1.57Zm-1.7-1.11c.3,0,.59-.07,.86-.22,.27-.15,.47-.35,.61-.6v-1.29h-.83c-.57,0-1,.1-1.29,.3-.29,.2-.43,.48-.43,.84,0,.3,.1,.53,.3,.71,.2,.17,.46,.26,.79,.26Z"/><path class="m" d="M237.47,183.29h3.66v1.23h-5.57v-1.01l3.49-4.61h-3.42v-1.24h5.38v.98l-3.52,4.66Z"/><path class="m" d="M244.59,181.57l-.69,.7v2.24h-1.54v-9.75h1.54v5.62l.48-.6,1.9-2.14h1.85l-2.55,2.86,2.83,4.01h-1.78l-2.04-2.95Z"/><path class="m" d="M253.31,183.85c-.45,.53-1.1,.8-1.93,.8-.75,0-1.31-.22-1.69-.65-.38-.44-.57-1.07-.57-1.89v-4.45h1.54v4.43c0,.87,.36,1.31,1.08,1.31s1.25-.27,1.52-.81v-4.93h1.54v6.87h-1.45l-.04-.67Z"/><path class="m" d="M264.43,180.24c-.27,.4-.61,.71-1.01,.92-.4,.22-.84,.33-1.31,.33-.53,0-.99-.13-1.39-.41-.4-.27-.71-.65-.93-1.12-.22-.48-.33-1-.33-1.57,0-.61,.12-1.16,.35-1.66,.24-.5,.56-.89,.98-1.16,.42-.28,.91-.42,1.46-.42,.93,0,1.65,.32,2.17,.97,.52,.65,.77,1.57,.77,2.76v.69c0,1.67-.36,2.92-1.07,3.76s-1.8,1.26-3.26,1.26h-.14v-.66h.27c1.1-.02,1.94-.33,2.52-.94,.58-.61,.88-1.53,.91-2.75Zm-2.22,.59c.51,0,.96-.15,1.37-.45s.69-.69,.86-1.17v-.44c0-.94-.2-1.66-.59-2.18-.39-.52-.92-.78-1.58-.78-.6,0-1.09,.24-1.48,.72s-.58,1.09-.58,1.83,.18,1.29,.55,1.76,.85,.71,1.44,.71Z"/><path class="m" d="M266.85,186.25l-.45-.33c.38-.52,.58-1.05,.6-1.61v-.98h.74v.79c0,.88-.3,1.59-.89,2.13Z"/><path class="m" d="M275.17,184.52h-5.79v-.58l3.17-3.59c.52-.61,.89-1.1,1.09-1.5s.3-.78,.3-1.15c0-.58-.17-1.05-.51-1.39-.34-.34-.82-.51-1.42-.51s-1.12,.2-1.51,.6c-.38,.4-.57,.91-.57,1.55h-.76c0-.52,.12-1,.35-1.42,.24-.43,.57-.76,1-1.01,.43-.24,.93-.37,1.48-.37,.85,0,1.51,.22,1.98,.67,.48,.44,.71,1.05,.71,1.82,0,.43-.13,.9-.4,1.42-.27,.51-.74,1.15-1.42,1.92l-2.58,2.91h4.86v.64Z"/><path class="m" d="M276.41,177.05c0-.55,.17-1.01,.51-1.37,.34-.36,.77-.54,1.3-.54s.96,.18,1.3,.54c.34,.36,.51,.83,.51,1.41v.45c0,.54-.17,.99-.5,1.36-.34,.36-.77,.54-1.29,.54s-.95-.18-1.3-.53c-.35-.36-.52-.83-.52-1.41v-.44Zm.62,.49c0,.39,.11,.72,.33,.97,.22,.25,.51,.38,.88,.38s.65-.13,.86-.38c.21-.26,.32-.59,.32-1v-.46c0-.39-.11-.72-.33-.98-.22-.26-.51-.38-.86-.38s-.64,.13-.86,.38c-.22,.25-.33,.59-.33,1.02v.45Zm1.45,6.21l-.48-.3,4.51-7.22,.48,.3-4.51,7.22Zm2.59-1.5c0-.55,.17-1,.51-1.36,.34-.36,.77-.54,1.29-.54s.95,.18,1.3,.54c.34,.36,.52,.83,.52,1.41v.45c0,.55-.17,1-.51,1.37-.34,.36-.77,.54-1.29,.54s-.95-.18-1.3-.54-.52-.82-.52-1.4v-.46Zm.61,.49c0,.4,.11,.72,.33,.98,.22,.25,.51,.38,.88,.38s.65-.13,.87-.38c.21-.26,.32-.59,.32-1.01v-.46c0-.41-.11-.73-.33-.98s-.51-.37-.87-.37-.64,.12-.86,.38c-.22,.25-.33,.58-.33,1v.47Z"/></g><g><path class="m" d="M310.84,103.58l2.67,7.08,2.66-7.08h2.08v9.24h-1.6v-3.05l.16-4.08-2.73,7.12h-1.15l-2.72-7.12,.16,4.07v3.05h-1.6v-9.24h2.08Z"/><path class="m" d="M323.02,112.95c-.98,0-1.77-.31-2.38-.92-.61-.62-.91-1.44-.91-2.46v-.19c0-.69,.13-1.3,.4-1.84,.26-.54,.64-.96,1.11-1.26,.48-.3,1.01-.45,1.6-.45,.94,0,1.66,.3,2.17,.89s.77,1.44,.77,2.53v.62h-4.49c.05,.57,.24,1.02,.57,1.35s.75,.5,1.25,.5c.71,0,1.28-.29,1.73-.86l.83,.79c-.28,.41-.64,.73-1.1,.96s-.97,.34-1.55,.34Zm-.18-5.88c-.42,0-.76,.15-1.03,.44-.26,.3-.43,.71-.5,1.24h2.94v-.11c-.03-.52-.17-.91-.41-1.17-.24-.26-.58-.4-1-.4Z"/><path class="m" d="M328.62,111.6h3.66v1.23h-5.57v-1.01l3.49-4.61h-3.42v-1.24h5.38v.98l-3.52,4.66Z"/><path class="m" d="M333.51,104.17c0-.24,.08-.43,.23-.59,.15-.16,.37-.24,.64-.24s.5,.08,.65,.24c.15,.16,.23,.35,.23,.59s-.08,.43-.23,.58-.37,.23-.65,.23-.49-.08-.64-.23-.23-.35-.23-.58Zm1.64,8.65h-1.54v-6.87h1.54v6.87Z"/><path class="m" d="M338.26,105.96l.04,.79c.51-.61,1.17-.92,2-.92,1.43,0,2.16,.82,2.18,2.46v4.54h-1.54v-4.45c0-.44-.09-.76-.28-.97-.19-.21-.5-.31-.92-.31-.62,0-1.09,.28-1.39,.84v4.89h-1.54v-6.87h1.45Z"/><path class="m" d="M348.16,112.83c-.07-.13-.13-.34-.18-.64-.49,.51-1.09,.77-1.8,.77s-1.25-.2-1.69-.59c-.44-.39-.65-.88-.65-1.46,0-.73,.27-1.29,.82-1.68,.54-.39,1.32-.59,2.33-.59h.95v-.45c0-.36-.1-.64-.3-.85-.2-.21-.5-.32-.91-.32-.35,0-.64,.09-.86,.26-.22,.18-.34,.4-.34,.67h-1.54c0-.38,.12-.73,.38-1.06,.25-.33,.59-.59,1.02-.77,.43-.19,.91-.28,1.44-.28,.8,0,1.44,.2,1.92,.61,.48,.4,.72,.97,.74,1.7v3.1c0,.62,.09,1.11,.26,1.48v.11h-1.57Zm-1.7-1.11c.3,0,.59-.07,.86-.22,.27-.15,.47-.35,.61-.6v-1.29h-.83c-.57,0-1,.1-1.29,.3-.29,.2-.43,.48-.43,.84,0,.3,.1,.53,.3,.71,.2,.17,.46,.26,.79,.26Zm.86-8.64h1.76l-1.76,1.92h-1.24l1.24-1.92Z"/><path class="m" d="M354.69,107.37c-.2-.03-.41-.05-.63-.05-.71,0-1.18,.27-1.43,.81v4.7h-1.54v-6.87h1.47l.04,.77c.37-.6,.89-.89,1.55-.89,.22,0,.4,.03,.55,.09v1.45Z"/><path class="m" d="M355.14,109.33c0-.67,.13-1.28,.4-1.82,.27-.54,.64-.95,1.12-1.24s1.04-.43,1.66-.43c.93,0,1.68,.3,2.26,.89,.58,.6,.89,1.39,.94,2.37v.36c0,.68-.12,1.28-.38,1.82-.26,.53-.63,.95-1.12,1.24s-1.04,.44-1.68,.44c-.97,0-1.75-.32-2.33-.97-.58-.65-.87-1.51-.87-2.58v-.08Zm1.54,.13c0,.71,.15,1.26,.44,1.66,.29,.4,.7,.6,1.22,.6s.92-.2,1.21-.61,.44-1,.44-1.78c0-.69-.15-1.24-.45-1.65-.3-.41-.7-.61-1.22-.61s-.9,.2-1.2,.6c-.3,.4-.44,1-.44,1.79Z"/><path class="m" d="M362.55,109.34c0-1.06,.25-1.91,.74-2.55,.49-.64,1.15-.96,1.97-.96,.73,0,1.32,.25,1.76,.76v-3.52h1.54v9.75h-1.4l-.08-.71c-.46,.56-1.08,.84-1.85,.84s-1.46-.32-1.95-.97-.75-1.53-.75-2.64Zm1.54,.13c0,.7,.13,1.24,.4,1.63,.27,.39,.65,.59,1.15,.59,.63,0,1.09-.28,1.38-.84v-2.93c-.28-.55-.74-.83-1.37-.83-.5,0-.88,.2-1.16,.59s-.41,.99-.41,1.79Z"/><path class="m" d="M371.6,105.96l.04,.79c.51-.61,1.17-.92,2-.92,1.43,0,2.16,.82,2.18,2.46v4.54h-1.54v-4.45c0-.44-.09-.76-.28-.97-.19-.21-.5-.31-.92-.31-.62,0-1.09,.28-1.39,.84v4.89h-1.54v-6.87h1.45Z"/><path class="m" d="M379.06,112.83h-1.54v-6.87h1.54v6.87Zm-.29-9.71h1.76l-1.76,1.92h-1.24l1.24-1.92Z"/><path class="m" d="M278.33,121.56l.04,.79c.51-.61,1.17-.92,2-.92,1.43,0,2.16,.82,2.18,2.46v4.54h-1.54v-4.45c0-.44-.09-.76-.28-.97-.19-.21-.5-.31-.92-.31-.62,0-1.09,.28-1.39,.84v4.89h-1.54v-6.87h1.45Z"/><path class="m" d="M288.23,128.43c-.07-.13-.13-.34-.18-.64-.49,.51-1.09,.77-1.8,.77s-1.25-.2-1.69-.59c-.44-.39-.65-.88-.65-1.46,0-.73,.27-1.29,.82-1.69s1.32-.59,2.33-.59h.95v-.45c0-.36-.1-.64-.3-.85s-.5-.32-.91-.32c-.35,0-.64,.09-.86,.26-.22,.18-.34,.4-.34,.67h-1.54c0-.38,.12-.73,.38-1.06s.59-.58,1.02-.77c.43-.19,.91-.28,1.44-.28,.8,0,1.44,.2,1.92,.61s.72,.97,.74,1.7v3.1c0,.62,.09,1.11,.26,1.48v.11h-1.57Zm-1.7-1.11c.3,0,.59-.07,.86-.22,.27-.15,.47-.35,.61-.6v-1.29h-.83c-.57,0-1,.1-1.29,.3-.29,.2-.43,.48-.43,.84,0,.3,.1,.53,.3,.71,.2,.18,.46,.26,.79,.26Zm.86-8.64h1.76l-1.76,1.92h-1.24l1.24-1.92Z"/><path class="m" d="M292.61,121.56l.04,.72c.48-.56,1.14-.84,1.98-.84,.92,0,1.55,.35,1.88,1.05,.5-.7,1.2-1.05,2.11-1.05,.76,0,1.32,.21,1.69,.63s.56,1.04,.57,1.85v4.51h-1.54v-4.47c0-.44-.09-.75-.29-.96-.19-.2-.5-.3-.95-.3-.35,0-.64,.09-.86,.28-.22,.19-.38,.43-.47,.74v4.71h-1.54v-4.52c-.02-.81-.43-1.21-1.24-1.21-.62,0-1.06,.25-1.31,.75v4.98h-1.54v-6.87h1.45Z"/><path class="m" d="M302.19,124.93c0-.67,.13-1.28,.4-1.82,.27-.54,.64-.95,1.12-1.24,.48-.29,1.04-.43,1.66-.43,.93,0,1.68,.3,2.26,.9,.58,.6,.89,1.39,.94,2.37v.36c0,.68-.12,1.28-.38,1.82-.26,.53-.63,.95-1.12,1.24s-1.04,.44-1.68,.44c-.97,0-1.75-.32-2.33-.97s-.87-1.51-.87-2.58v-.08Zm1.54,.13c0,.71,.15,1.26,.44,1.66,.29,.4,.7,.6,1.22,.6s.92-.2,1.21-.61,.44-1,.44-1.78c0-.69-.15-1.24-.45-1.65-.3-.41-.7-.61-1.22-.61s-.9,.2-1.2,.6c-.3,.4-.44,1-.44,1.79Z"/><path class="m" d="M311.68,119.65l.93-.98h1.32v.06l-1.77,1.77h-.95l-1.76-1.78v-.06h1.31l.93,.98Zm1.8,3.31c-.2-.03-.41-.05-.63-.05-.71,0-1.18,.27-1.43,.81v4.7h-1.54v-6.87h1.47l.04,.77c.37-.6,.89-.9,1.55-.9,.22,0,.4,.03,.55,.09v1.45Z"/><path class="m" d="M315.88,121.56l.04,.79c.51-.61,1.17-.92,2-.92,1.43,0,2.16,.82,2.18,2.46v4.54h-1.54v-4.45c0-.44-.09-.76-.28-.97-.19-.21-.5-.31-.92-.31-.62,0-1.09,.28-1.39,.84v4.89h-1.54v-6.87h1.45Z"/><path class="m" d="M323.34,128.43h-1.54v-6.87h1.54v6.87Zm-.29-9.71h1.76l-1.76,1.92h-1.24l1.24-1.92Z"/><path class="m" d="M332.43,128.43c-.07-.13-.13-.34-.18-.64-.49,.51-1.09,.77-1.8,.77s-1.25-.2-1.69-.59c-.44-.39-.65-.88-.65-1.46,0-.73,.27-1.29,.82-1.69s1.32-.59,2.33-.59h.95v-.45c0-.36-.1-.64-.3-.85s-.5-.32-.91-.32c-.35,0-.64,.09-.86,.26-.22,.18-.34,.4-.34,.67h-1.54c0-.38,.12-.73,.38-1.06s.59-.58,1.02-.77c.43-.19,.91-.28,1.44-.28,.8,0,1.44,.2,1.92,.61s.72,.97,.74,1.7v3.1c0,.62,.09,1.11,.26,1.48v.11h-1.57Zm-1.7-1.11c.3,0,.59-.07,.86-.22,.27-.15,.47-.35,.61-.6v-1.29h-.83c-.57,0-1,.1-1.29,.3-.29,.2-.43,.48-.43,.84,0,.3,.1,.53,.3,.71,.2,.18,.46,.26,.79,.26Z"/><path class="m" d="M340.24,128.43h-1.54v-9.75h1.54v9.75Z"/><path class="m" d="M344.94,128.55c-.98,0-1.77-.31-2.38-.92-.61-.62-.91-1.44-.91-2.46v-.19c0-.69,.13-1.3,.4-1.84,.26-.54,.64-.96,1.11-1.26,.48-.3,1.01-.45,1.6-.45,.94,0,1.66,.3,2.17,.9s.77,1.44,.77,2.53v.62h-4.49c.05,.57,.24,1.02,.57,1.35s.75,.5,1.25,.5c.71,0,1.28-.29,1.73-.86l.83,.79c-.28,.41-.64,.73-1.1,.96-.46,.23-.97,.34-1.55,.34Zm-.18-5.88c-.42,0-.76,.15-1.03,.44-.26,.3-.43,.71-.5,1.24h2.94v-.11c-.03-.52-.17-.91-.41-1.17s-.58-.4-1-.4Z"/><path class="m" d="M350.83,119.89v1.67h1.21v1.14h-1.21v3.83c0,.26,.05,.45,.16,.57s.29,.17,.55,.17c.18,0,.36-.02,.54-.06v1.19c-.35,.1-.69,.15-1.02,.15-1.18,0-1.78-.65-1.78-1.96v-3.89h-1.13v-1.14h1.13v-1.67h1.54Z"/><path class="m" d="M356.24,128.55c-.98,0-1.77-.31-2.38-.92-.61-.62-.91-1.44-.91-2.46v-.19c0-.69,.13-1.3,.4-1.84,.26-.54,.64-.96,1.11-1.26,.48-.3,1.01-.45,1.6-.45,.94,0,1.66,.3,2.17,.9s.77,1.44,.77,2.53v.62h-4.49c.05,.57,.24,1.02,.57,1.35s.75,.5,1.25,.5c.71,0,1.28-.29,1.73-.86l.83,.79c-.28,.41-.64,.73-1.1,.96-.46,.23-.97,.34-1.55,.34Zm-.18-5.88c-.42,0-.76,.15-1.03,.44-.26,.3-.43,.71-.5,1.24h2.94v-.11c-.03-.52-.17-.91-.41-1.17s-.58-.4-1-.4Z"/><path class="m" d="M363.02,127.32c.39,0,.71-.11,.96-.34,.25-.22,.39-.5,.41-.83h1.45c-.02,.43-.15,.83-.4,1.2-.25,.37-.59,.66-1.02,.88s-.89,.32-1.38,.32c-.96,0-1.72-.31-2.29-.93s-.84-1.48-.84-2.58v-.16c0-1.04,.28-1.88,.84-2.51,.56-.63,1.32-.94,2.29-.94,.82,0,1.48,.24,2,.71,.51,.48,.78,1.1,.81,1.88h-1.45c-.02-.39-.15-.72-.4-.97s-.57-.38-.96-.38c-.5,0-.88,.18-1.15,.54-.27,.36-.41,.91-.41,1.65v.25c0,.74,.13,1.3,.4,1.67s.66,.55,1.16,.55Z"/><path class="m" d="M369.23,125.48l-.69,.71v2.24h-1.54v-9.75h1.54v5.62l.48-.6,1.9-2.14h1.85l-2.55,2.86,2.83,4h-1.78l-2.04-2.95Z"/><path class="m" d="M377.89,128.43c-.07-.13-.13-.34-.18-.64-.49,.51-1.09,.77-1.8,.77s-1.25-.2-1.69-.59c-.44-.39-.65-.88-.65-1.46,0-.73,.27-1.29,.82-1.69s1.32-.59,2.33-.59h.95v-.45c0-.36-.1-.64-.3-.85s-.5-.32-.91-.32c-.35,0-.64,.09-.86,.26-.22,.18-.34,.4-.34,.67h-1.54c0-.38,.12-.73,.38-1.06s.59-.58,1.02-.77c.43-.19,.91-.28,1.44-.28,.8,0,1.44,.2,1.92,.61s.72,.97,.74,1.7v3.1c0,.62,.09,1.11,.26,1.48v.11h-1.57Zm-1.7-1.11c.3,0,.59-.07,.86-.22,.27-.15,.47-.35,.61-.6v-1.29h-.83c-.57,0-1,.1-1.29,.3-.29,.2-.43,.48-.43,.84,0,.3,.1,.53,.3,.71,.2,.18,.46,.26,.79,.26Zm.86-8.64h1.76l-1.76,1.92h-1.24l1.24-1.92Z"/><path class="m" d="M300.88,140.54c0-1.06,.25-1.91,.74-2.55,.49-.64,1.15-.96,1.97-.96,.73,0,1.32,.25,1.76,.76v-3.52h1.54v9.75h-1.4l-.08-.71c-.46,.56-1.08,.84-1.85,.84s-1.46-.32-1.95-.97-.75-1.53-.75-2.64Zm1.54,.13c0,.7,.13,1.24,.4,1.63,.27,.39,.65,.59,1.15,.59,.63,0,1.09-.28,1.38-.84v-2.93c-.28-.55-.74-.83-1.37-.83-.5,0-.88,.2-1.16,.59s-.41,.99-.41,1.79Z"/><path class="m" d="M308.22,140.53c0-.67,.13-1.28,.4-1.82,.27-.54,.64-.95,1.12-1.24s1.04-.43,1.66-.43c.93,0,1.68,.3,2.26,.89,.58,.6,.89,1.39,.94,2.37v.36c0,.68-.12,1.28-.38,1.82-.26,.53-.63,.95-1.12,1.24s-1.04,.44-1.68,.44c-.97,0-1.75-.32-2.33-.97-.58-.65-.87-1.51-.87-2.58v-.08Zm1.54,.13c0,.71,.15,1.26,.44,1.66,.29,.4,.7,.6,1.22,.6s.92-.2,1.21-.61,.44-1,.44-1.78c0-.69-.15-1.24-.45-1.65-.3-.41-.7-.61-1.22-.61s-.9,.2-1.2,.6c-.3,.4-.44,1-.44,1.79Z"/><path class="m" d="M321.93,140.66c0,1.06-.24,1.91-.72,2.54s-1.13,.95-1.94,.95c-.75,0-1.36-.25-1.81-.74v3.26h-1.54v-9.51h1.42l.06,.7c.45-.55,1.07-.83,1.85-.83,.84,0,1.5,.31,1.97,.94,.48,.62,.71,1.49,.71,2.6v.1Zm-1.54-.13c0-.69-.14-1.23-.41-1.63-.27-.4-.66-.6-1.17-.6-.63,0-1.08,.26-1.36,.78v3.05c.28,.53,.74,.8,1.37,.8,.49,0,.87-.2,1.15-.59s.42-1,.42-1.8Z"/><path class="m" d="M326.83,138.57c-.2-.03-.41-.05-.63-.05-.71,0-1.18,.27-1.43,.81v4.7h-1.54v-6.87h1.47l.04,.77c.37-.6,.89-.89,1.55-.89,.22,0,.4,.03,.55,.09v1.45Z"/><path class="m" d="M331.72,144.03c-.07-.13-.13-.34-.18-.64-.49,.51-1.09,.77-1.8,.77s-1.25-.2-1.69-.59c-.44-.39-.65-.88-.65-1.46,0-.73,.27-1.29,.82-1.68,.54-.39,1.32-.59,2.33-.59h.95v-.45c0-.36-.1-.64-.3-.85-.2-.21-.5-.32-.91-.32-.35,0-.64,.09-.86,.26-.22,.18-.34,.4-.34,.67h-1.54c0-.38,.12-.73,.38-1.06,.25-.33,.59-.59,1.02-.77,.43-.19,.91-.28,1.44-.28,.8,0,1.44,.2,1.92,.61,.48,.4,.72,.97,.74,1.7v3.1c0,.62,.09,1.11,.26,1.48v.11h-1.57Zm-1.7-1.11c.3,0,.59-.07,.86-.22,.27-.15,.47-.35,.61-.6v-1.29h-.83c-.57,0-1,.1-1.29,.3-.29,.2-.43,.48-.43,.84,0,.3,.1,.53,.3,.71,.2,.17,.46,.26,.79,.26Z"/><path class="m" d="M336.97,142.07l1.45-4.91h1.59l-2.38,6.87h-1.34l-2.4-6.87h1.6l1.47,4.91Z"/><path class="m" d="M344.99,144.03c-.07-.13-.13-.34-.18-.64-.49,.51-1.09,.77-1.8,.77s-1.25-.2-1.69-.59c-.44-.39-.65-.88-.65-1.46,0-.73,.27-1.29,.82-1.68,.54-.39,1.32-.59,2.33-.59h.95v-.45c0-.36-.1-.64-.3-.85-.2-.21-.5-.32-.91-.32-.35,0-.64,.09-.86,.26-.22,.18-.34,.4-.34,.67h-1.54c0-.38,.12-.73,.38-1.06,.25-.33,.59-.59,1.02-.77,.43-.19,.91-.28,1.44-.28,.8,0,1.44,.2,1.92,.61,.48,.4,.72,.97,.74,1.7v3.1c0,.62,.09,1.11,.26,1.48v.11h-1.57Zm-1.7-1.11c.3,0,.59-.07,.86-.22,.27-.15,.47-.35,.61-.6v-1.29h-.83c-.57,0-1,.1-1.29,.3-.29,.2-.43,.48-.43,.84,0,.3,.1,.53,.3,.71,.2,.17,.46,.26,.79,.26Z"/><path class="m" d="M352.92,138.99h.79c.44,0,.82-.08,1.14-.23,.33-.15,.57-.37,.75-.63,.17-.27,.26-.58,.26-.93,0-.59-.17-1.06-.5-1.39-.33-.33-.81-.5-1.44-.5-.59,0-1.08,.17-1.46,.52-.38,.35-.57,.81-.57,1.38h-.76c0-.48,.12-.92,.36-1.31,.24-.4,.58-.7,1-.92,.43-.22,.9-.32,1.42-.32,.84,0,1.5,.23,1.98,.69s.72,1.08,.72,1.88c0,.44-.14,.85-.42,1.23-.28,.37-.67,.65-1.16,.84,.58,.16,1.01,.44,1.31,.83s.44,.86,.44,1.4c0,.79-.26,1.43-.77,1.91s-1.21,.72-2.07,.72c-.55,0-1.05-.11-1.51-.33-.46-.22-.81-.53-1.07-.92s-.38-.86-.38-1.38h.76c0,.59,.21,1.07,.62,1.44,.41,.37,.94,.55,1.58,.55s1.17-.17,1.53-.5c.37-.34,.55-.82,.55-1.46s-.2-1.09-.59-1.42c-.4-.33-.98-.49-1.75-.49h-.76v-.65Z"/><path class="m" d="M358.4,145.75l-.45-.33c.38-.52,.58-1.05,.6-1.61v-.98h.74v.79c0,.88-.3,1.59-.89,2.13Z"/><path class="m" d="M361.44,139.29l.45-4.51h4.62v.7h-3.97l-.32,3.12c.5-.34,1.08-.51,1.74-.51,.83,0,1.5,.27,1.99,.81,.5,.54,.74,1.26,.74,2.17,0,.97-.24,1.73-.72,2.27-.48,.54-1.16,.81-2.04,.81-.8,0-1.46-.22-1.96-.67-.5-.45-.79-1.08-.86-1.89h.73c.07,.63,.29,1.11,.64,1.43,.36,.32,.84,.49,1.44,.49,.66,0,1.16-.21,1.49-.63,.34-.42,.5-1.02,.5-1.79,0-.68-.19-1.23-.57-1.66-.38-.43-.89-.64-1.54-.64-.36,0-.67,.04-.94,.14-.27,.09-.55,.27-.84,.53l-.6-.17Z"/><path class="m" d="M371.12,136.56c0-.55,.17-1.01,.51-1.37,.34-.36,.77-.54,1.3-.54s.96,.18,1.3,.54c.34,.36,.51,.83,.51,1.41v.45c0,.54-.17,.99-.5,1.36-.34,.36-.77,.54-1.29,.54s-.95-.18-1.3-.53c-.35-.36-.52-.83-.52-1.41v-.44Zm.62,.49c0,.39,.11,.72,.33,.97,.22,.25,.51,.38,.88,.38s.65-.13,.86-.38c.21-.26,.32-.59,.32-1v-.46c0-.39-.11-.72-.33-.98-.22-.26-.51-.38-.86-.38s-.64,.13-.86,.38c-.22,.25-.33,.59-.33,1.02v.45Zm1.45,6.21l-.48-.3,4.51-7.22,.48,.3-4.51,7.22Zm2.59-1.5c0-.55,.17-1,.51-1.36,.34-.36,.77-.54,1.29-.54s.95,.18,1.3,.54c.34,.36,.52,.83,.52,1.41v.45c0,.55-.17,1-.51,1.37-.34,.36-.77,.54-1.29,.54s-.95-.18-1.3-.54-.52-.82-.52-1.4v-.46Zm.61,.49c0,.4,.11,.72,.33,.98,.22,.25,.51,.38,.88,.38s.65-.13,.87-.38c.21-.26,.32-.59,.32-1.01v-.46c0-.41-.11-.73-.33-.98s-.51-.37-.87-.37-.64,.12-.86,.38c-.22,.25-.33,.58-.33,1v.47Z"/></g><g><path class="k" d="M506.91,160.94h-3.8v2.84h4.44v1.28h-6.04v-9.24h6v1.29h-4.39v2.55h3.8v1.27Z"/><path class="k" d="M510.16,158.2l.04,.72c.48-.56,1.14-.84,1.98-.84,.92,0,1.55,.35,1.88,1.05,.5-.7,1.2-1.05,2.11-1.05,.76,0,1.32,.21,1.69,.63s.56,1.04,.57,1.85v4.51h-1.54v-4.47c0-.44-.09-.76-.29-.96-.19-.2-.5-.3-.95-.3-.35,0-.64,.09-.86,.28-.22,.19-.38,.43-.47,.74v4.71h-1.54v-4.52c-.02-.81-.43-1.21-1.24-1.21-.62,0-1.06,.25-1.31,.76v4.98h-1.54v-6.87h1.45Z"/><path class="k" d="M520.02,156.41c0-.24,.08-.43,.23-.59,.15-.16,.37-.24,.64-.24s.5,.08,.65,.24c.15,.16,.23,.35,.23,.59s-.08,.43-.23,.58-.37,.23-.65,.23-.49-.08-.64-.23-.23-.35-.23-.58Zm1.64,8.65h-1.54v-6.87h1.54v6.87Z"/><path class="k" d="M527.19,163.2c0-.28-.11-.48-.34-.63-.23-.14-.6-.27-1.13-.38-.52-.11-.96-.25-1.31-.42-.77-.37-1.15-.91-1.15-1.62,0-.59,.25-1.09,.75-1.49,.5-.4,1.13-.6,1.9-.6,.82,0,1.48,.2,1.99,.61s.76,.93,.76,1.58h-1.54c0-.3-.11-.54-.33-.74-.22-.2-.51-.29-.88-.29-.34,0-.61,.08-.83,.23-.21,.16-.32,.37-.32,.63,0,.24,.1,.42,.3,.55,.2,.13,.6,.26,1.21,.4,.61,.13,1.08,.29,1.43,.48,.34,.18,.6,.41,.77,.66,.17,.26,.25,.57,.25,.94,0,.62-.26,1.12-.77,1.5-.51,.38-1.18,.57-2.01,.57-.56,0-1.06-.1-1.5-.3-.44-.2-.78-.48-1.03-.84-.25-.36-.37-.74-.37-1.15h1.5c.02,.36,.16,.64,.41,.84,.25,.2,.59,.29,1.01,.29s.71-.08,.93-.23c.21-.16,.32-.36,.32-.61Z"/><path class="k" d="M533.07,165.19c-.98,0-1.77-.31-2.38-.92-.61-.62-.91-1.44-.91-2.46v-.19c0-.69,.13-1.3,.4-1.84,.26-.54,.64-.96,1.11-1.26,.48-.3,1.01-.45,1.6-.45,.94,0,1.66,.3,2.17,.89s.77,1.44,.77,2.53v.62h-4.49c.05,.57,.24,1.02,.57,1.35s.75,.5,1.25,.5c.71,0,1.28-.29,1.73-.86l.83,.79c-.28,.41-.64,.73-1.1,.96s-.97,.34-1.55,.34Zm-.18-5.88c-.42,0-.76,.15-1.03,.44-.26,.3-.43,.71-.5,1.24h2.94v-.11c-.03-.52-.17-.91-.41-1.17-.24-.26-.58-.4-1-.4Z"/><path class="k" d="M544.11,163.2c0-.28-.11-.48-.34-.63-.23-.14-.6-.27-1.13-.38-.52-.11-.96-.25-1.31-.42-.77-.37-1.15-.91-1.15-1.62,0-.59,.25-1.09,.75-1.49,.5-.4,1.13-.6,1.9-.6,.82,0,1.48,.2,1.99,.61s.76,.93,.76,1.58h-1.54c0-.3-.11-.54-.33-.74-.22-.2-.51-.29-.88-.29-.34,0-.61,.08-.83,.23-.21,.16-.32,.37-.32,.63,0,.24,.1,.42,.3,.55,.2,.13,.6,.26,1.21,.4,.61,.13,1.08,.29,1.43,.48,.34,.18,.6,.41,.77,.66,.17,.26,.25,.57,.25,.94,0,.62-.26,1.12-.77,1.5-.51,.38-1.18,.57-2.01,.57-.56,0-1.06-.1-1.5-.3-.44-.2-.78-.48-1.03-.84-.25-.36-.37-.74-.37-1.15h1.5c.02,.36,.16,.64,.41,.84,.25,.2,.59,.29,1.01,.29s.71-.08,.93-.23c.21-.16,.32-.36,.32-.61Z"/><path class="k" d="M548.9,156.53v1.67h1.21v1.14h-1.21v3.83c0,.26,.05,.45,.16,.57,.1,.12,.29,.17,.55,.17,.18,0,.36-.02,.54-.06v1.19c-.35,.1-.69,.15-1.02,.15-1.18,0-1.78-.65-1.78-1.96v-3.89h-1.13v-1.14h1.13v-1.67h1.54Z"/><path class="k" d="M555.4,165.07c-.07-.13-.13-.34-.18-.64-.49,.51-1.09,.77-1.8,.77s-1.25-.2-1.69-.59c-.44-.39-.65-.88-.65-1.46,0-.73,.27-1.29,.82-1.68,.54-.39,1.32-.59,2.33-.59h.95v-.45c0-.36-.1-.64-.3-.85-.2-.21-.5-.32-.91-.32-.35,0-.64,.09-.86,.26-.22,.18-.34,.4-.34,.67h-1.54c0-.38,.12-.73,.38-1.06,.25-.33,.59-.59,1.02-.77,.43-.19,.91-.28,1.44-.28,.8,0,1.44,.2,1.92,.61,.48,.4,.72,.97,.74,1.7v3.1c0,.62,.09,1.11,.26,1.48v.11h-1.57Zm-1.7-1.11c.3,0,.59-.07,.86-.22,.27-.15,.47-.35,.61-.6v-1.29h-.83c-.57,0-1,.1-1.29,.3-.29,.2-.43,.48-.43,.84,0,.3,.1,.53,.3,.71,.2,.17,.46,.26,.79,.26Zm.86-8.64h1.76l-1.76,1.92h-1.24l1.24-1.92Z"/><path class="k" d="M560.26,156.53v1.67h1.21v1.14h-1.21v3.83c0,.26,.05,.45,.16,.57,.1,.12,.29,.17,.55,.17,.18,0,.36-.02,.54-.06v1.19c-.35,.1-.69,.15-1.02,.15-1.18,0-1.78-.65-1.78-1.96v-3.89h-1.13v-1.14h1.13v-1.67h1.54Z"/><path class="k" d="M566.81,164.39c-.45,.53-1.1,.8-1.93,.8-.75,0-1.31-.22-1.69-.65-.38-.44-.57-1.07-.57-1.89v-4.45h1.54v4.43c0,.87,.36,1.31,1.08,1.31s1.25-.27,1.52-.81v-4.93h1.54v6.87h-1.45l-.04-.67Zm-1.33-9.67c.39,0,.73,.13,1,.39,.27,.26,.41,.57,.41,.93s-.13,.67-.4,.92-.6,.38-1.01,.38-.75-.13-1.01-.38-.4-.56-.4-.92,.13-.67,.4-.93c.27-.26,.6-.39,1.01-.39Zm-.71,1.32c0,.2,.07,.37,.21,.5,.14,.14,.31,.21,.5,.21s.37-.07,.5-.2c.14-.14,.21-.3,.21-.51s-.07-.36-.2-.5c-.13-.14-.3-.21-.51-.21s-.38,.07-.51,.21c-.13,.14-.2,.31-.2,.5Z"/><path class="k" d="M576.96,163.2c0-.28-.11-.48-.34-.63-.23-.14-.6-.27-1.13-.38-.52-.11-.96-.25-1.31-.42-.77-.37-1.15-.91-1.15-1.62,0-.59,.25-1.09,.75-1.49,.5-.4,1.13-.6,1.9-.6,.82,0,1.48,.2,1.99,.61s.76,.93,.76,1.58h-1.54c0-.3-.11-.54-.33-.74-.22-.2-.51-.29-.88-.29-.34,0-.61,.08-.83,.23-.21,.16-.32,.37-.32,.63,0,.24,.1,.42,.3,.55,.2,.13,.6,.26,1.21,.4,.61,.13,1.08,.29,1.43,.48,.34,.18,.6,.41,.77,.66,.17,.26,.25,.57,.25,.94,0,.62-.26,1.12-.77,1.5-.51,.38-1.18,.57-2.01,.57-.56,0-1.06-.1-1.5-.3-.44-.2-.78-.48-1.03-.84-.25-.36-.37-.74-.37-1.15h1.5c.02,.36,.16,.64,.41,.84,.25,.2,.59,.29,1.01,.29s.71-.08,.93-.23c.21-.16,.32-.36,.32-.61Z"/><path class="k" d="M582.84,165.19c-.98,0-1.77-.31-2.38-.92-.61-.62-.91-1.44-.91-2.46v-.19c0-.69,.13-1.3,.4-1.84,.26-.54,.64-.96,1.11-1.26,.48-.3,1.01-.45,1.6-.45,.94,0,1.66,.3,2.17,.89s.77,1.44,.77,2.53v.62h-4.49c.05,.57,.24,1.02,.57,1.35s.75,.5,1.25,.5c.71,0,1.28-.29,1.73-.86l.83,.79c-.28,.41-.64,.73-1.1,.96s-.97,.34-1.55,.34Zm-.18-5.88c-.42,0-.76,.15-1.03,.44-.26,.3-.43,.71-.5,1.24h2.94v-.11c-.03-.52-.17-.91-.41-1.17-.24-.26-.58-.4-1-.4Z"/><path class="k" d="M591.68,163.83h3.66v1.23h-5.57v-1.01l3.49-4.61h-3.42v-1.24h5.38v.98l-3.52,4.66Z"/><path class="k" d="M600.68,165.07c-.07-.13-.13-.34-.18-.64-.49,.51-1.09,.77-1.8,.77s-1.25-.2-1.69-.59c-.44-.39-.65-.88-.65-1.46,0-.73,.27-1.29,.82-1.68,.54-.39,1.32-.59,2.33-.59h.95v-.45c0-.36-.1-.64-.3-.85-.2-.21-.5-.32-.91-.32-.35,0-.64,.09-.86,.26-.22,.18-.34,.4-.34,.67h-1.54c0-.38,.12-.73,.38-1.06,.25-.33,.59-.59,1.02-.77,.43-.19,.91-.28,1.44-.28,.8,0,1.44,.2,1.92,.61,.48,.4,.72,.97,.74,1.7v3.1c0,.62,.09,1.11,.26,1.48v.11h-1.57Zm-1.7-1.11c.3,0,.59-.07,.86-.22,.27-.15,.47-.35,.61-.6v-1.29h-.83c-.57,0-1,.1-1.29,.3-.29,.2-.43,.48-.43,.84,0,.3,.1,.53,.3,.71,.2,.17,.46,.26,.79,.26Zm.86-8.64h1.76l-1.76,1.92h-1.24l1.24-1.92Z"/><path class="k" d="M606.03,163.11l1.45-4.91h1.59l-2.38,6.87h-1.34l-2.4-6.87h1.6l1.47,4.91Z"/><path class="k" d="M614.04,165.07c-.07-.13-.13-.34-.18-.64-.49,.51-1.09,.77-1.8,.77s-1.25-.2-1.69-.59c-.44-.39-.65-.88-.65-1.46,0-.73,.27-1.29,.82-1.68,.54-.39,1.32-.59,2.33-.59h.95v-.45c0-.36-.1-.64-.3-.85-.2-.21-.5-.32-.91-.32-.35,0-.64,.09-.86,.26-.22,.18-.34,.4-.34,.67h-1.54c0-.38,.12-.73,.38-1.06,.25-.33,.59-.59,1.02-.77,.43-.19,.91-.28,1.44-.28,.8,0,1.44,.2,1.92,.61,.48,.4,.72,.97,.74,1.7v3.1c0,.62,.09,1.11,.26,1.48v.11h-1.57Zm-1.7-1.11c.3,0,.59-.07,.86-.22,.27-.15,.47-.35,.61-.6v-1.29h-.83c-.57,0-1,.1-1.29,.3-.29,.2-.43,.48-.43,.84,0,.3,.1,.53,.3,.71,.2,.17,.46,.26,.79,.26Z"/><path class="k" d="M618.62,163.83h3.66v1.23h-5.57v-1.01l3.49-4.61h-3.42v-1.24h5.38v.98l-3.52,4.66Z"/><path class="k" d="M625.74,162.12l-.69,.7v2.24h-1.54v-9.75h1.54v5.62l.48-.6,1.9-2.14h1.85l-2.55,2.86,2.83,4.01h-1.78l-2.04-2.95Z"/><path class="k" d="M633.32,165.19c-.98,0-1.77-.31-2.38-.92-.61-.62-.91-1.44-.91-2.46v-.19c0-.69,.13-1.3,.4-1.84,.26-.54,.64-.96,1.11-1.26,.48-.3,1.01-.45,1.6-.45,.94,0,1.66,.3,2.17,.89s.77,1.44,.77,2.53v.62h-4.49c.05,.57,.24,1.02,.57,1.35s.75,.5,1.25,.5c.71,0,1.28-.29,1.73-.86l.83,.79c-.28,.41-.64,.73-1.1,.96s-.97,.34-1.55,.34Zm-.18-5.88c-.42,0-.76,.15-1.03,.44-.26,.3-.43,.71-.5,1.24h2.94v-.11c-.03-.52-.17-.91-.41-1.17-.24-.26-.58-.4-1-.4Z"/><path class="k" d="M638.72,158.2l.04,.72c.48-.56,1.14-.84,1.98-.84,.92,0,1.55,.35,1.88,1.05,.5-.7,1.2-1.05,2.11-1.05,.76,0,1.32,.21,1.69,.63s.56,1.04,.57,1.85v4.51h-1.54v-4.47c0-.44-.09-.76-.29-.96-.19-.2-.5-.3-.95-.3-.35,0-.64,.09-.86,.28-.22,.19-.38,.43-.47,.74v4.71h-1.54v-4.52c-.02-.81-.43-1.21-1.24-1.21-.62,0-1.06,.25-1.31,.76v4.98h-1.54v-6.87h1.45Z"/><path class="k" d="M503.59,177.72l-.69,.71v2.24h-1.54v-9.75h1.54v5.62l.48-.6,1.9-2.14h1.85l-2.55,2.86,2.83,4h-1.78l-2.04-2.95Z"/><path class="k" d="M515.54,179.99c-.45,.53-1.1,.8-1.93,.8-.75,0-1.31-.22-1.69-.65-.38-.44-.57-1.07-.57-1.89v-4.45h1.54v4.43c0,.87,.36,1.31,1.08,1.31s1.25-.27,1.52-.81v-4.93h1.54v6.87h-1.45l-.04-.67Z"/><path class="k" d="M520.12,174.55c.5-.58,1.14-.88,1.91-.88,1.46,0,2.21,.84,2.23,2.51v4.49h-1.54v-4.43c0-.47-.1-.81-.31-1.01-.21-.2-.51-.29-.9-.29-.62,0-1.08,.27-1.38,.83v4.91h-1.54v-9.75h1.54v3.63Z"/><path class="k" d="M527.46,180.66h-1.54v-9.75h1.54v9.75Z"/><path class="k" d="M530.8,180.66h-1.54v-6.87h1.54v6.87Zm-.29-9.71h1.76l-1.76,1.92h-1.24l1.24-1.92Z"/><path class="k" d="M534.79,177.72l-.69,.71v2.24h-1.54v-9.75h1.54v5.62l.48-.6,1.9-2.14h1.85l-2.55,2.86,2.83,4h-1.78l-2.04-2.95Z"/><path class="k" d="M539.05,177.17c0-.67,.13-1.28,.4-1.82,.27-.54,.64-.95,1.12-1.24,.48-.29,1.04-.43,1.66-.43,.93,0,1.68,.3,2.26,.9,.58,.6,.89,1.39,.94,2.37v.36c0,.68-.12,1.28-.38,1.82-.26,.53-.63,.95-1.12,1.24s-1.04,.44-1.68,.44c-.97,0-1.75-.32-2.33-.97s-.87-1.51-.87-2.58v-.08Zm1.54,.13c0,.71,.15,1.26,.44,1.66,.29,.4,.7,.6,1.22,.6s.92-.2,1.21-.61,.44-1,.44-1.78c0-.69-.15-1.24-.45-1.65-.3-.41-.7-.61-1.22-.61s-.9,.2-1.2,.6c-.3,.4-.44,1-.44,1.79Z"/><path class="k" d="M549.07,178.71l1.45-4.91h1.59l-2.38,6.87h-1.34l-2.4-6.87h1.6l1.47,4.91Z"/><path class="k" d="M556.1,180.79c-.98,0-1.77-.31-2.38-.92-.61-.62-.91-1.44-.91-2.46v-.19c0-.69,.13-1.3,.4-1.84,.26-.54,.64-.96,1.11-1.26,.48-.3,1.01-.45,1.6-.45,.94,0,1.66,.3,2.17,.9s.77,1.44,.77,2.53v.62h-4.49c.05,.57,.24,1.02,.57,1.35s.75,.5,1.25,.5c.71,0,1.28-.29,1.73-.86l.83,.79c-.28,.41-.64,.73-1.1,.96-.46,.23-.97,.34-1.55,.34Zm-.18-5.88c-.42,0-.76,.15-1.03,.44-.26,.3-.43,.71-.5,1.24h2.94v-.11c-.03-.52-.17-.91-.41-1.17s-.58-.4-1-.4Zm.35-3.99h1.76l-1.76,1.92h-1.24l1.24-1.92Z"/><path class="k" d="M564.72,173.8l.04,.79c.51-.61,1.17-.92,2-.92,1.43,0,2.16,.82,2.18,2.46v4.54h-1.54v-4.45c0-.44-.09-.76-.28-.97-.19-.21-.5-.31-.92-.31-.62,0-1.09,.28-1.39,.84v4.89h-1.54v-6.87h1.45Z"/><path class="k" d="M573.55,180.79c-.98,0-1.77-.31-2.38-.92-.61-.62-.91-1.44-.91-2.46v-.19c0-.69,.13-1.3,.4-1.84,.26-.54,.64-.96,1.11-1.26,.48-.3,1.01-.45,1.6-.45,.94,0,1.66,.3,2.17,.9s.77,1.44,.77,2.53v.62h-4.49c.05,.57,.24,1.02,.57,1.35s.75,.5,1.25,.5c.71,0,1.28-.29,1.73-.86l.83,.79c-.28,.41-.64,.73-1.1,.96-.46,.23-.97,.34-1.55,.34Zm-.18-5.88c-.42,0-.76,.15-1.03,.44-.26,.3-.43,.71-.5,1.24h2.94v-.11c-.03-.52-.17-.91-.41-1.17s-.58-.4-1-.4Z"/><path class="k" d="M581.66,179.99c-.45,.53-1.1,.8-1.93,.8-.75,0-1.31-.22-1.69-.65-.38-.44-.57-1.07-.57-1.89v-4.45h1.54v4.43c0,.87,.36,1.31,1.08,1.31s1.25-.27,1.52-.81v-4.93h1.54v6.87h-1.45l-.04-.67Z"/><path class="k" d="M586.65,172.13v1.67h1.21v1.14h-1.21v3.83c0,.26,.05,.45,.16,.57s.29,.17,.55,.17c.18,0,.36-.02,.54-.06v1.19c-.35,.1-.69,.15-1.02,.15-1.18,0-1.78-.65-1.78-1.96v-3.89h-1.13v-1.14h1.13v-1.67h1.54Z"/><path class="k" d="M592.64,175.21c-.2-.03-.41-.05-.63-.05-.71,0-1.18,.27-1.43,.81v4.7h-1.54v-6.87h1.47l.04,.77c.37-.6,.89-.9,1.55-.9,.22,0,.4,.03,.55,.09v1.45Z"/><path class="k" d="M597.53,180.66c-.07-.13-.13-.34-.18-.64-.49,.51-1.09,.77-1.8,.77s-1.25-.2-1.69-.59c-.44-.39-.65-.88-.65-1.46,0-.73,.27-1.29,.82-1.69s1.32-.59,2.33-.59h.95v-.45c0-.36-.1-.64-.3-.85s-.5-.32-.91-.32c-.35,0-.64,.09-.86,.26-.22,.18-.34,.4-.34,.67h-1.54c0-.38,.12-.73,.38-1.06s.59-.58,1.02-.77c.43-.19,.91-.28,1.44-.28,.8,0,1.44,.2,1.92,.61s.72,.97,.74,1.7v3.1c0,.62,.09,1.11,.26,1.48v.11h-1.57Zm-1.7-1.11c.3,0,.59-.07,.86-.22,.27-.15,.47-.35,.61-.6v-1.29h-.83c-.57,0-1,.1-1.29,.3-.29,.2-.43,.48-.43,.84,0,.3,.1,.53,.3,.71,.2,.18,.46,.26,.79,.26Z"/><path class="k" d="M602.1,180.66h-1.54v-9.75h1.54v9.75Z"/><path class="k" d="M603.78,172.01c0-.24,.08-.43,.23-.59,.15-.16,.37-.23,.64-.23s.5,.08,.65,.23c.15,.16,.23,.35,.23,.59s-.08,.43-.23,.58c-.15,.16-.37,.23-.65,.23s-.49-.08-.64-.23c-.15-.15-.23-.35-.23-.58Zm1.64,8.65h-1.54v-6.87h1.54v6.87Z"/><path class="k" d="M609.03,172.13v1.67h1.21v1.14h-1.21v3.83c0,.26,.05,.45,.16,.57s.29,.17,.55,.17c.18,0,.36-.02,.54-.06v1.19c-.35,.1-.69,.15-1.02,.15-1.18,0-1.78-.65-1.78-1.96v-3.89h-1.13v-1.14h1.13v-1.67h1.54Z"/><path class="k" d="M614.44,180.79c-.98,0-1.77-.31-2.38-.92-.61-.62-.91-1.44-.91-2.46v-.19c0-.69,.13-1.3,.4-1.84,.26-.54,.64-.96,1.11-1.26,.48-.3,1.01-.45,1.6-.45,.94,0,1.66,.3,2.17,.9s.77,1.44,.77,2.53v.62h-4.49c.05,.57,.24,1.02,.57,1.35s.75,.5,1.25,.5c.71,0,1.28-.29,1.73-.86l.83,.79c-.28,.41-.64,.73-1.1,.96-.46,.23-.97,.34-1.55,.34Zm-.3-8.9l.93-.98h1.32v.06l-1.77,1.77h-.95l-1.76-1.78v-.06h1.31l.93,.98Zm.11,3.02c-.42,0-.76,.15-1.03,.44-.26,.3-.43,.71-.5,1.24h2.94v-.11c-.03-.52-.17-.91-.41-1.17s-.58-.4-1-.4Z"/><path class="k" d="M627.16,173.8c0,.48-.14,.91-.42,1.29s-.65,.66-1.1,.83c.53,.18,.96,.48,1.28,.88,.32,.41,.48,.88,.48,1.41,0,.79-.27,1.42-.81,1.88-.54,.46-1.25,.7-2.13,.7s-1.61-.23-2.14-.69c-.54-.46-.8-1.09-.8-1.89,0-.52,.15-.99,.46-1.4,.31-.41,.73-.71,1.27-.89-.46-.18-.82-.46-1.09-.83-.27-.38-.41-.81-.41-1.29,0-.77,.25-1.38,.74-1.83,.49-.45,1.15-.68,1.96-.68s1.47,.23,1.96,.69,.75,1.06,.75,1.82Zm-.52,4.42c0-.58-.21-1.05-.62-1.42s-.94-.56-1.57-.56-1.16,.18-1.57,.55c-.41,.36-.61,.84-.61,1.43s.2,1.06,.59,1.41c.39,.35,.93,.52,1.6,.52s1.18-.17,1.58-.52c.4-.35,.6-.82,.6-1.41Zm-.24-4.42c0-.53-.18-.97-.55-1.32s-.83-.53-1.4-.53-1.04,.17-1.4,.51c-.36,.34-.54,.79-.54,1.34s.18,.98,.54,1.31,.83,.5,1.41,.5,1.04-.17,1.4-.5c.36-.33,.54-.77,.54-1.3Z"/><path class="k" d="M634.61,171.86l-3.95,8.8h-.79l3.92-8.59h-5.26v-.65h6.08v.44Z"/><path class="k" d="M636.08,182.39l-.45-.33c.38-.52,.58-1.05,.6-1.61v-.98h.74v.79c0,.88-.3,1.59-.89,2.13Z"/><path class="k" d="M640.3,175.63h.79c.44,0,.82-.08,1.14-.23,.33-.15,.57-.37,.75-.63,.17-.27,.26-.58,.26-.93,0-.59-.17-1.06-.5-1.39-.33-.33-.81-.5-1.44-.5-.59,0-1.08,.17-1.46,.52-.38,.35-.57,.81-.57,1.38h-.76c0-.48,.12-.92,.36-1.31,.24-.4,.58-.7,1-.92,.43-.22,.9-.32,1.42-.32,.84,0,1.5,.23,1.98,.69s.72,1.08,.72,1.88c0,.44-.14,.85-.42,1.23-.28,.37-.67,.66-1.16,.84,.58,.16,1.01,.44,1.31,.83,.3,.39,.44,.86,.44,1.4,0,.79-.26,1.43-.77,1.91s-1.21,.72-2.07,.72c-.55,0-1.05-.11-1.51-.33-.46-.22-.81-.53-1.07-.92-.25-.4-.38-.86-.38-1.38h.76c0,.59,.21,1.07,.62,1.44,.41,.37,.94,.56,1.58,.56s1.17-.17,1.53-.5c.37-.34,.55-.82,.55-1.46s-.2-1.09-.59-1.42c-.4-.33-.98-.49-1.75-.49h-.76v-.65Z"/><path class="k" d="M648.8,173.2c0-.55,.17-1.01,.51-1.37,.34-.36,.77-.54,1.3-.54s.96,.18,1.3,.54c.34,.36,.51,.83,.51,1.41v.45c0,.54-.17,.99-.5,1.35-.34,.36-.77,.54-1.29,.54s-.95-.18-1.3-.53c-.35-.36-.52-.83-.52-1.41v-.44Zm.62,.49c0,.39,.11,.72,.33,.97,.22,.25,.51,.38,.88,.38s.65-.13,.86-.38c.21-.26,.32-.59,.32-1v-.46c0-.39-.11-.72-.33-.98-.22-.26-.51-.38-.86-.38s-.64,.13-.86,.38c-.22,.25-.33,.59-.33,1.02v.45Zm1.45,6.21l-.48-.3,4.51-7.22,.48,.3-4.51,7.22Zm2.59-1.5c0-.55,.17-1,.51-1.37,.34-.36,.77-.54,1.29-.54s.95,.18,1.3,.54,.52,.83,.52,1.41v.45c0,.55-.17,1-.51,1.36-.34,.36-.77,.54-1.29,.54s-.95-.18-1.3-.54c-.34-.36-.52-.82-.52-1.4v-.46Zm.61,.49c0,.4,.11,.73,.33,.98,.22,.25,.51,.38,.88,.38s.65-.13,.87-.38c.21-.26,.32-.59,.32-1.01v-.46c0-.41-.11-.73-.33-.98s-.51-.37-.87-.37-.64,.12-.86,.38-.33,.58-.33,1v.47Z"/></g><g><path class="k" d="M378.08,290.9c0,1.1-.28,2.08-.83,2.94-.55,.85-1.31,1.54-2.28,2.05,1.1,.53,1.98,1.26,2.62,2.2,.65,.93,.97,2.03,.97,3.29,0,2.02-.69,3.62-2.06,4.79s-3.25,1.76-5.61,1.76-4.24-.59-5.62-1.77c-1.39-1.18-2.08-2.77-2.08-4.78,0-1.26,.32-2.36,.97-3.3,.65-.94,1.52-1.67,2.61-2.19-.97-.51-1.73-1.19-2.27-2.05s-.82-1.83-.82-2.94c0-1.94,.65-3.48,1.94-4.63,1.29-1.15,3.05-1.73,5.27-1.73s3.96,.57,5.26,1.71,1.95,2.69,1.95,4.65Zm-4.05,10.14c0-.99-.29-1.78-.86-2.38-.57-.59-1.34-.89-2.31-.89s-1.72,.29-2.3,.88c-.57,.59-.86,1.38-.86,2.38s.28,1.75,.84,2.34,1.34,.89,2.34,.89,1.75-.29,2.3-.86c.56-.57,.84-1.36,.84-2.38Zm-.47-9.92c0-.89-.23-1.6-.7-2.13s-1.13-.8-1.98-.8-1.5,.26-1.97,.78-.7,1.24-.7,2.16,.23,1.64,.7,2.19,1.13,.83,1.98,.83,1.51-.28,1.98-.83c.46-.55,.7-1.28,.7-2.19Z"/><path class="k" d="M397.08,287.38l-8.8,20.23h-4.77l8.81-19.11h-11.31v-3.64h16.06v2.52Z"/><path class="k" d="M407.87,289.23c0-1.4,.45-2.53,1.36-3.4s2.09-1.3,3.56-1.3,2.69,.43,3.59,1.29,1.36,2.02,1.36,3.49v1.12c0,1.41-.45,2.54-1.36,3.39s-2.09,1.28-3.56,1.28-2.67-.43-3.59-1.29c-.91-.86-1.37-2.02-1.37-3.48v-1.11Zm3,1.2c0,.62,.18,1.13,.54,1.51s.83,.57,1.41,.57,1.05-.19,1.39-.58,.52-.9,.52-1.55v-1.16c0-.62-.17-1.13-.52-1.52s-.82-.58-1.42-.58-1.04,.19-1.39,.57c-.35,.38-.53,.91-.53,1.59v1.14Zm2.84,15.47l-2.2-1.19,11.11-17.78,2.2,1.19-11.11,17.78Zm5.03-3.88c0-1.41,.46-2.54,1.38-3.4,.92-.86,2.1-1.29,3.56-1.29s2.67,.42,3.59,1.27c.91,.85,1.37,2.02,1.37,3.51v1.12c0,1.4-.45,2.52-1.34,3.38-.9,.86-2.09,1.29-3.58,1.29s-2.7-.43-3.61-1.3-1.36-2.01-1.36-3.44v-1.16Zm3,1.22c0,.57,.19,1.06,.56,1.47s.84,.61,1.41,.61c1.27,0,1.91-.7,1.91-2.11v-1.19c0-.62-.18-1.13-.53-1.51-.35-.38-.82-.57-1.41-.57s-1.05,.19-1.41,.57c-.35,.38-.53,.9-.53,1.55v1.17Z"/><path class="k" d="M332.32,326.68c0-.44-.17-.78-.5-1.02-.33-.24-.91-.45-1.73-.63s-1.48-.39-1.96-.63c-.48-.25-.84-.54-1.07-.88-.23-.34-.35-.74-.35-1.21,0-.78,.33-1.44,.99-1.98,.66-.54,1.5-.81,2.53-.81,1.08,0,1.95,.28,2.62,.83s1.01,1.27,1.01,2.14h-1.63c0-.45-.19-.83-.57-1.15-.38-.32-.85-.48-1.43-.48s-1.05,.13-1.39,.39-.5,.59-.5,1.01c0,.39,.16,.69,.47,.89s.87,.39,1.68,.57c.81,.18,1.47,.4,1.97,.65s.88,.56,1.12,.91c.24,.35,.36,.79,.36,1.3,0,.85-.34,1.53-1.02,2.04s-1.56,.77-2.65,.77c-.76,0-1.44-.13-2.02-.4s-1.04-.65-1.38-1.13c-.33-.48-.5-1.01-.5-1.57h1.63c.03,.54,.25,.98,.65,1.3s.95,.48,1.61,.48c.62,0,1.11-.12,1.48-.37s.56-.58,.56-1Z"/><path class="k" d="M339.2,327l2.36-7.3h1.66l-3.41,9.51h-1.24l-3.45-9.51h1.66l2.42,7.3Z"/><path class="k" d="M348.73,329.38c-1.29,0-2.34-.42-3.15-1.27s-1.21-1.98-1.21-3.4v-.3c0-.94,.18-1.79,.54-2.53,.36-.74,.86-1.32,1.51-1.74s1.35-.63,2.11-.63c1.24,0,2.2,.41,2.88,1.22s1.03,1.98,1.03,3.5v.68h-6.44c.02,.94,.3,1.7,.82,2.27,.52,.58,1.19,.87,2,.87,.57,0,1.06-.12,1.46-.35s.75-.54,1.05-.93l.99,.77c-.8,1.22-1.99,1.84-3.59,1.84Zm-.22-12.18l1.32-1.49h1.41v.09l-2.23,2.41h-.99l-2.21-2.41v-.09h1.38l1.33,1.49Zm.02,3.66c-.66,0-1.21,.24-1.65,.72s-.72,1.15-.83,2.01h4.76v-.12c-.05-.83-.27-1.47-.67-1.92s-.94-.68-1.62-.68Z"/><path class="k" d="M356.52,317.39v2.3h1.78v1.26h-1.78v5.91c0,.38,.08,.67,.24,.86,.16,.19,.43,.29,.81,.29,.19,0,.45-.04,.77-.11v1.31c-.43,.12-.84,.17-1.25,.17-.73,0-1.27-.22-1.64-.66s-.55-1.06-.55-1.87v-5.9h-1.73v-1.26h1.73v-2.3h1.63Z"/><path class="k" d="M359.59,324.36c0-.93,.18-1.77,.55-2.51,.37-.74,.88-1.32,1.53-1.72,.65-.4,1.4-.61,2.24-.61,1.29,0,2.34,.45,3.14,1.34,.8,.9,1.2,2.09,1.2,3.58v.11c0,.93-.18,1.76-.53,2.49-.36,.74-.86,1.31-1.52,1.72-.66,.41-1.42,.62-2.27,.62-1.29,0-2.33-.45-3.13-1.34-.8-.9-1.2-2.08-1.2-3.56v-.11Zm1.63,.19c0,1.05,.24,1.9,.73,2.54s1.14,.96,1.96,.96,1.48-.32,1.97-.97,.73-1.55,.73-2.72c0-1.04-.25-1.89-.74-2.54s-1.15-.97-1.97-.97-1.45,.32-1.94,.96-.74,1.55-.74,2.74Z"/><path class="k" d="M373.29,327l2.36-7.3h1.66l-3.41,9.51h-1.24l-3.45-9.51h1.66l2.42,7.3Z"/><path class="k" d="M381.99,326.82l2.21-7.13h1.74l-3.82,10.98c-.59,1.58-1.53,2.37-2.82,2.37l-.31-.03-.61-.11v-1.32l.44,.04c.55,0,.98-.11,1.29-.33,.31-.22,.56-.63,.76-1.22l.36-.97-3.39-9.4h1.78l2.37,7.13Zm.92-11.12h1.97l-2.36,2.58h-1.31l1.7-2.58Z"/><path class="k" d="M391.21,328.06c.58,0,1.09-.18,1.52-.53s.67-.79,.72-1.32h1.54c-.03,.54-.22,1.06-.56,1.56s-.81,.88-1.38,1.18-1.19,.44-1.83,.44c-1.29,0-2.32-.43-3.09-1.3-.76-.86-1.15-2.05-1.15-3.55v-.27c0-.93,.17-1.75,.51-2.47s.83-1.28,1.46-1.68,1.39-.6,2.25-.6c1.07,0,1.95,.32,2.66,.96,.71,.64,1.08,1.47,1.13,2.49h-1.54c-.05-.62-.28-1.12-.7-1.52-.42-.4-.94-.59-1.55-.59-.83,0-1.47,.3-1.92,.89s-.68,1.45-.68,2.58v.31c0,1.1,.23,1.94,.68,2.53s1.1,.89,1.93,.89Z"/><path class="k" d="M398.44,320.85c.72-.88,1.66-1.33,2.81-1.33,2.01,0,3.02,1.13,3.04,3.4v6.28h-1.63v-6.29c0-.69-.16-1.19-.47-1.52-.31-.33-.79-.49-1.44-.49-.53,0-.99,.14-1.39,.42s-.71,.65-.93,1.11v6.78h-1.63v-13.5h1.63v5.14Z"/><path class="k" d="M415.13,329.38c-1.29,0-2.34-.42-3.15-1.27s-1.21-1.98-1.21-3.4v-.3c0-.94,.18-1.79,.54-2.53,.36-.74,.86-1.32,1.51-1.74s1.35-.63,2.11-.63c1.24,0,2.2,.41,2.88,1.22s1.03,1.98,1.03,3.5v.68h-6.44c.02,.94,.3,1.7,.82,2.27,.52,.58,1.19,.87,2,.87,.57,0,1.06-.12,1.46-.35s.75-.54,1.05-.93l.99,.77c-.8,1.22-1.99,1.84-3.59,1.84Zm-.2-8.53c-.66,0-1.21,.24-1.65,.72s-.72,1.15-.83,2.01h4.76v-.12c-.05-.83-.27-1.47-.67-1.92s-.94-.68-1.62-.68Z"/><path class="k" d="M422.25,319.7l.04,1.05c.7-.82,1.64-1.23,2.82-1.23,1.33,0,2.24,.51,2.72,1.53,.32-.46,.73-.83,1.24-1.11,.51-.28,1.11-.42,1.8-.42,2.09,0,3.15,1.1,3.18,3.31v6.37h-1.63v-6.28c0-.68-.16-1.19-.47-1.52s-.83-.51-1.56-.51c-.6,0-1.1,.18-1.5,.54s-.63,.84-.69,1.45v6.31h-1.63v-6.23c0-1.38-.68-2.07-2.03-2.07-1.07,0-1.8,.45-2.19,1.36v6.94h-1.63v-9.51h1.54Z"/><path class="k" d="M436.51,317.17c0-.26,.08-.49,.24-.67s.4-.27,.72-.27,.56,.09,.72,.27,.25,.4,.25,.67-.08,.48-.25,.66-.4,.26-.72,.26-.56-.09-.72-.26-.24-.4-.24-.66Zm1.76,12.03h-1.63v-9.51h1.63v9.51Z"/><path class="k" d="M446.4,326.68c0-.44-.17-.78-.5-1.02-.33-.24-.91-.45-1.73-.63s-1.48-.39-1.96-.63c-.48-.25-.84-.54-1.07-.88-.23-.34-.35-.74-.35-1.21,0-.78,.33-1.44,.99-1.98,.66-.54,1.5-.81,2.53-.81,1.08,0,1.95,.28,2.62,.83s1.01,1.27,1.01,2.14h-1.63c0-.45-.19-.83-.57-1.15-.38-.32-.85-.48-1.43-.48s-1.05,.13-1.39,.39-.5,.59-.5,1.01c0,.39,.16,.69,.47,.89s.87,.39,1.68,.57c.81,.18,1.47,.4,1.97,.65s.88,.56,1.12,.91c.24,.35,.36,.79,.36,1.3,0,.85-.34,1.53-1.02,2.04s-1.56,.77-2.65,.77c-.76,0-1.44-.13-2.02-.4s-1.04-.65-1.38-1.13c-.33-.48-.5-1.01-.5-1.57h1.63c.03,.54,.25,.98,.65,1.3s.95,.48,1.61,.48c.62,0,1.11-.12,1.48-.37s.56-.58,.56-1Z"/><path class="k" d="M451.93,315.72h1.97l-2.36,2.58h-1.31l1.7-2.58Zm-.02,13.49h-1.63v-9.51h1.63v9.51Z"/></g></svg>