<?xml version="1.0" encoding="UTF-8" standalone="no"?>
<svg
   viewBox="0 0 489.99999 68"
   version="1.1"
   id="svg49"
   width="490"
   height="68"
   xmlns="http://www.w3.org/2000/svg"
   xmlns:svg="http://www.w3.org/2000/svg">
  <defs
     id="defs4">
    <style
       id="style2">.cls-1{fill:#ff4d4f;}.cls-2{fill:#f8c752;}.cls-3{fill:#2d9589;}.cls-4{fill:#3ed0c0;}.cls-5{fill:#4297dd;}.cls-6{fill:#2e3d99;}.cls-7{fill:#7365be;}.cls-8{fill:#a63242;}.cls-9{fill:#262626;}</style>
  </defs>
  <g
     id="g890"
     transform="translate(-15.843159,-16.139391)">
    <g
       id="Layer_1"
       data-name="Layer 1">
      <path
         class="cls-1"
         d="M 82.565,41.181 A 33.871,33.871 0 0 0 50.434,16.351 v 16.225 a 17.561,17.561 0 0 1 8.907,32.418 l 8.29,13.948 A 33.871,33.871 0 0 0 82.565,41.181 Z"
         id="path6" />
      <path
         class="cls-2"
         d="M 49.542,32.576 V 16.351 a 33.786,33.786 0 0 0 -7.446,0.932 l 4,15.725 a 17.565,17.565 0 0 1 3.446,-0.432 z"
         id="path8" />
      <path
         class="cls-3"
         d="m 33.735,20.514 7.993,14.12 a 17.536,17.536 0 0 1 3.5,-1.406 l -4,-15.725 a 33.762,33.762 0 0 0 -7.493,3.011 z"
         id="path10" />
      <path
         class="cls-4"
         d="m 40.952,35.074 -7.993,-14.12 a 33.566,33.566 0 0 0 -9.634,8.431 l 12.936,9.794 a 17.416,17.416 0 0 1 4.691,-4.105 z"
         id="path12" />
      <path
         class="cls-5"
         d="m 22.787,30.1 a 34.008,34.008 0 0 0 -5.829,12.94 l 15.907,3.2 a 17.693,17.693 0 0 1 2.858,-6.344 z"
         id="path14" />
      <path
         class="cls-6"
         d="m 19.373,64.416 14.612,-7.054 a 17.683,17.683 0 0 1 -1.3,-10.253 l -15.907,-3.2 a 34,34 0 0 0 2.595,20.507 z"
         id="path16" />
      <path
         class="cls-7"
         d="M 36.649,81.17 42.858,66.18 A 17.539,17.539 0 0 1 34.373,58.166 L 19.761,65.22 a 33.743,33.743 0 0 0 16.888,15.95 z"
         id="path18" />
      <path
         class="cls-8"
         d="m 44.024,66.648 c -0.114,-0.04 -0.228,-0.083 -0.341,-0.127 l -6.209,14.991 c 0.344,0.137 0.692,0.269 1.04,0.395 A 33.663,33.663 0 0 0 66.864,79.4 l -8.29,-13.95 a 17.492,17.492 0 0 1 -14.55,1.198 z"
         id="path20" />
      <path
         class="cls-9"
         d="m 103.723,31.252 h 26.819 v 7.86 h -17.4 v 7.739 H 127 v 7.8 h -13.86 v 14.1 h -9.419 z"
         id="path22" />
      <path
         class="cls-9"
         d="m 149.2,65.39 c -1.98,2.34 -4.2,4.26 -8.039,4.26 -4.8,0 -8.52,-3.42 -8.52,-7.74 0,-5.279 3.96,-9.539 16.5,-9.9 v -0.54 c 0,-2.94 -1.5,-4.26 -4.92,-4.26 -2.88,0 -6.239,1.2 -9.479,2.82 l -1.92,-6.78 a 28.067,28.067 0 0 1 12.839,-3.3 c 9.66,0 12.84,4.38 12.72,12.18 l -0.06,8.279 c 0,1.92 0.36,2.1 2.28,2.281 l -0.9,6.6 c -6.06,0.78 -9.06,-0.84 -10.32,-3.9 z m -0.06,-9.059 c -5.7,0.66 -7.8,1.74 -7.8,4.2 0,1.8 1.44,3 3.48,3 a 5.7,5.7 0 0 0 4.32,-1.859 z"
         id="path24" />
      <path
         class="cls-9"
         d="M 174.042,55.671 V 68.75 H 164.8 V 29.092 l 9.24,-1.14 v 24.9 h 0.06 l 8.519,-12 h 10.62 l -10.26,13.26 10.321,14.638 h -10.5 l -8.7,-13.079 z"
         id="path26" />
      <path
         class="cls-9"
         d="m 207.942,69.65 c -6.9,0 -10.62,-2.82 -10.26,-10.14 l 0.42,-10.619 -4.2,-0.72 0.18,-5.88 4.2,-1.38 0.12,-6.36 h 8.939 l -0.06,6.66 h 6.96 l -0.18,7.26 h -7.439 l -0.3,10.019 c -0.12,2.581 1.38,3.661 3.66,3.661 a 11.982,11.982 0 0 0 3.66,-0.721 l 1.08,7.2 a 20.932,20.932 0 0 1 -6.78,1.02 z"
         id="path28" />
      <path
         class="cls-9"
         d="m 234.4,65.39 c -1.98,2.34 -4.2,4.26 -8.04,4.26 -4.8,0 -8.52,-3.42 -8.52,-7.74 0,-5.279 3.96,-9.539 16.5,-9.9 v -0.54 c 0,-2.94 -1.5,-4.26 -4.92,-4.26 -2.88,0 -6.24,1.2 -9.479,2.82 l -1.92,-6.78 a 28.067,28.067 0 0 1 12.839,-3.3 c 9.66,0 12.839,4.38 12.72,12.18 l -0.06,8.279 c 0,1.92 0.359,2.1 2.279,2.281 l -0.9,6.6 c -6.061,0.78 -9.06,-0.84 -10.32,-3.9 z m -0.06,-9.059 c -5.7,0.66 -7.8,1.74 -7.8,4.2 0,1.8 1.44,3 3.48,3 a 5.7,5.7 0 0 0 4.32,-1.859 z"
         id="path30" />
      <path
         class="cls-9"
         d="m 277,69.65 c -8.4,0 -14.82,-5.28 -14.82,-14.759 0,-9.479 6.72,-14.94 15.18,-14.94 8.4,0 14.759,5.4 14.759,14.76 0,9.36 -6.78,14.939 -15.119,14.939 z m 0.12,-22.679 c -3.78,0 -5.76,3.06 -5.76,7.86 0,4.74 2.04,7.74 5.82,7.74 3.78,0 5.76,-3 5.76,-7.8 0,-4.68 -2.04,-7.8 -5.82,-7.8 z"
         id="path32" />
      <path
         class="cls-9"
         d="M 320.14,55.671 V 68.75 H 310.9 V 29.092 l 9.24,-1.14 v 24.9 h 0.06 l 8.519,-12 h 10.62 l -10.26,13.26 10.321,14.638 h -10.5 l -8.7,-13.079 z"
         id="path34" />
      <path
         class="cls-9"
         d="M 342.819,68.75 V 29.092 l 9.24,-1.14 v 40.8 z"
         id="path36" />
      <path
         class="cls-9"
         d="m 363.279,36.891 c -3.359,0 -5.46,-1.739 -5.46,-4.919 0,-3.24 2.1,-4.98 5.46,-4.98 3.42,0 5.46,1.74 5.46,4.98 0,3.18 -2.039,4.919 -5.46,4.919 z m -4.62,31.859 V 41.331 l 9.24,-1.14 V 68.75 Z"
         id="path38" />
      <path
         class="cls-9"
         d="M 409.6,68.75 V 52.311 c 0,-3.36 -1.44,-4.5 -3.78,-4.5 a 6.835,6.835 0 0 0 -4.5,1.8 V 68.75 h -9.239 V 52.311 c 0,-3.36 -1.5,-4.5 -3.84,-4.5 a 6.881,6.881 0 0 0 -4.5,1.68 V 68.75 H 374.5 V 41.331 l 9.239,-1.14 v 3.9 c 2.46,-2.52 5.22,-4.14 8.88,-4.14 a 8.143,8.143 0 0 1 7.86,4.98 c 2.58,-3 5.88,-4.98 9.659,-4.98 5.4,0 8.7,3.66 8.7,9.66 V 68.75 Z"
         id="path40" />
      <path
         class="cls-9"
         d="m 440.378,65.39 c -1.98,2.34 -4.2,4.26 -8.04,4.26 -4.8,0 -8.52,-3.42 -8.52,-7.74 0,-5.279 3.96,-9.539 16.5,-9.9 v -0.54 c 0,-2.94 -1.5,-4.26 -4.919,-4.26 -2.88,0 -6.24,1.2 -9.48,2.82 L 424,43.251 a 28.072,28.072 0 0 1 12.84,-3.3 c 9.659,0 12.839,4.38 12.719,12.18 l -0.06,8.279 c 0,1.92 0.36,2.1 2.28,2.281 l -0.9,6.6 c -6.06,0.78 -9.06,-0.84 -10.32,-3.9 z m -0.061,-9.059 c -5.7,0.66 -7.8,1.74 -7.8,4.2 0,1.8 1.44,3 3.48,3 a 5.7,5.7 0 0 0 4.319,-1.859 z"
         id="path42" />
      <path
         class="cls-9"
         d="m 467.2,69.65 c -6.9,0 -10.62,-2.82 -10.26,-10.14 l 0.42,-10.619 -4.2,-0.72 0.181,-5.88 4.2,-1.38 0.12,-6.36 h 8.94 l -0.06,6.66 h 6.96 l -0.18,7.26 h -7.44 l -0.3,10.019 c -0.12,2.581 1.38,3.661 3.66,3.661 a 11.987,11.987 0 0 0 3.66,-0.721 l 1.08,7.2 a 20.934,20.934 0 0 1 -6.781,1.02 z"
         id="path44" />
      <path
         class="cls-9"
         d="m 487.656,40.851 v 16.5 c 0,3.36 1.44,4.5 3.84,4.5 a 7.091,7.091 0 0 0 4.74,-1.86 v -19.14 h 9.24 V 68.33 l -9.24,1.14 v -4.14 a 12.685,12.685 0 0 1 -9.06,4.32 c -5.459,0 -8.759,-3.66 -8.759,-9.6 v -19.2 z"
         id="path46" />
    </g>
  </g>
</svg>
