<?xml version="1.0" encoding="UTF-8"?>
<svg id="Layer_1" xmlns="http://www.w3.org/2000/svg" viewBox="0 0 200 200">
  <defs>
    <style>
      .cls-1 {
        fill: none;
        stroke: #045366;
        stroke-miterlimit: 10;
        stroke-width: 1.67224292px;
      }

      .cls-2 {
        fill: #e1f3f5;
      }
    </style>
  </defs>
  <circle class="cls-2" cx="100" cy="100" r="99"/>
  <g>
    <polyline class="cls-1" points="126.27632291 159.11932027 121.60867899 52.66113388 109.40099488 52.66113388 103.4766776 159.11932027"/>
    <line class="cls-1" x1="105.25163753" y1="120.43263782" x2="124.58011086" y2="120.43263782"/>
    <line class="cls-1" x1="109.12993228" y1="59.50328617" x2="121.88701193" y2="59.50328617"/>
    <line class="cls-1" x1="107.94473646" y1="89.967962" x2="123.24439152" y2="89.967962"/>
    <polyline class="cls-1" points="123.72854631 107.9021799 156.07279082 107.9021799 156.07279082 159.76805297 92.48071686 159.11932027 92.48071686 107.9021799 106.59542867 107.9021799"/>
    <polygon class="cls-1" points="67.65474711 159.11932027 92.48071686 159.11932027 92.48071686 137.42707138 83.39613487 137.89696355 77.52248272 142.36093918 70.63073086 141.42115484 62.0943564 152.38530552 53.32303586 155.90949681 53.32303586 159.11932027 67.65474711 159.11932027"/>
    <polyline class="cls-1" points="79.67615517 152.93351305 74.93807577 149.37016408 77.52248272 142.36093918"/>
    <line class="cls-1" x1="66.12759755" y1="154.42150493" x2="61.74193727" y2="152.26783248"/>
    <line class="cls-1" x1="135.24090452" y1="120.43263782" x2="135.24090452" y2="159.11932027"/>
    <line class="cls-1" x1="144.28632883" y1="120.43263782" x2="144.28632883" y2="159.11932027"/>
    <polyline class="cls-1" points="83.67023864 159.11932027 86.72453776 153.65793015 84.72749602 148.72406235"/>
  </g>
  <path class="cls-1" d="M57.6472381,82.14940753c-7.38828893,3.90300093-14.07692643,14.25264079-14.07692643,25.85059247h40.4842615c0-11.59795168-6.79433922-21.94759154-14.22792889-25.85059247-1.30424778-.68479436-1.30424778-2.6140207,0-3.29881506,7.43358967-3.90300093,14.22792889-14.25264079,14.22792889-25.85059247h-40.4842615c0,11.59795168,6.6886375,21.94759154,14.07692643,25.85059247,1.30040383.68696249,1.30040383,2.61185257,0,3.29881506Z"/>
  <path class="cls-1" d="M71.94279766,77.66024799c-2.54272924-1.00128898-5.31258342-1.55126863-8.21089223-1.55126863-2.86966225,0-5.61339659.5391615-8.13542962,1.52171111"/>
  <path class="cls-1" d="M56.97583292,78.47672346c3.41830475,2.02327654,6.83660949,4.55205906,6.83660949,8.26039966"/>
  <path class="cls-1" d="M70.6490519,78.47672346c-3.41830475,2.02327654-6.83660949,4.55205906-6.83660949,8.26039966"/>
  <path class="cls-1" d="M63.81244241,88.29305506v1.85115215"/>
  <path class="cls-1" d="M44.13698711,108c3.14571446-3.8353281,6.38544148-6.37999927,12.25384191-8.2156355,5.59692976-1.75072017,7.4216134-4.65098089,7.4216134-8.35932149"/>
  <path class="cls-1" d="M83.48789772,108c-3.14571446-3.8353281-6.38544148-6.37999927-12.25384191-8.2156355-5.59692976-1.75072017-7.4216134-4.65098089-7.4216134-8.35932148"/>
</svg>