<?xml version="1.0" encoding="UTF-8"?>
<svg id="Layer_1" xmlns="http://www.w3.org/2000/svg" viewBox="0 0 200 200">
  <defs>
    <style>
      .cls-1 {
        fill: none;
      }

      .cls-1, .cls-2 {
        stroke: #045366;
        stroke-miterlimit: 10;
        stroke-width: 1.67224292px;
      }

      .cls-3 {
        fill: #045366;
      }

      .cls-2, .cls-4 {
        fill: #e1f3f5;
      }
    </style>
  </defs>
  <g>
    <circle class="cls-4" cx="100" cy="100" r="99"/>
    <g>
      <polygon class="cls-1" points="144.50896351 107.9021799 144.50896351 159.76805297 76.11108693 159.11932027 76.11108693 107.9021799 144.50896351 107.9021799"/>
      <line class="cls-1" x1="86.75439282" y1="120.43263782" x2="86.75439282" y2="159.11932027"/>
      <line class="cls-1" x1="96.98584202" y1="120.43263782" x2="96.98584202" y2="159.11932027"/>
      <line class="cls-1" x1="107.94742433" y1="120.43263782" x2="107.94742433" y2="159.11932027"/>
    </g>
    <line class="cls-1" x1="76.41501633" y1="159.15391903" x2="46.24919947" y2="159.15391903"/>
    <path class="cls-1" d="M66.3235672,159.15391903v-6.83122977c0-1.61908158,1.31252496-2.93160654,2.93160654-2.93160654h6.85591319"/>
    <path class="cls-1" d="M58.01155295,159.11932027v-8.29250155c0-5.08473744,4.12199413-9.20673157,9.20673157-9.20673157h8.89280241"/>
    <g>
      <circle class="cls-2" cx="139.81624601" cy="98.39395733" r="27.80928158"/>
      <g>
        <g>
          <path class="cls-1" d="M138.93994141,81.80936432c-3.75793457,15.29321289,6.88717651,15.58078766.47503662,34.92057037"/>
          <polygon class="cls-3" points="131.27093506 85.93486786 132.2492981 87.29282379 138.93377686 82.4657135 143.26025391 89.48590851 144.68426514 88.60643768 139.41339111 80.05766296 131.27093506 85.93486786"/>
        </g>
        <g>
          <path class="cls-1" d="M149.92922974,86.53211975c-2.47158813,10.91112518,5.15811157,11.31083679.46038818,25.47978973"/>
          <polygon class="cls-3" points="142.4770813 90.96110535 143.50686646 92.28051758 150.00115967 87.20043945 154.59384155 94.04943085 155.98306274 93.11595917 150.38800049 84.77574921 142.4770813 90.96110535"/>
        </g>
        <g>
          <path class="cls-1" d="M128.1864624,86.53211975c-2.47158813,10.91112518,5.15811157,11.31083679.46038818,25.47978973"/>
          <polygon class="cls-3" points="120.73431396 90.96110535 121.76409912 92.28051758 128.25839233 87.20043945 132.85107422 94.04943085 134.24029541 93.11595917 128.64523315 84.77574921 120.73431396 90.96110535"/>
        </g>
      </g>
    </g>
  </g>
  <polyline class="cls-1" points="96.98584202 107.9021799 95.67428159 51.25001795 87.29245107 51.25001795 85.98089064 107.9021799"/>
  <line class="cls-1" x1="95.80870013" y1="57.05615607" x2="87.16724877" y2="57.05615607"/>
</svg>