<?xml version="1.0" encoding="UTF-8"?>
<svg id="Layer_1" xmlns="http://www.w3.org/2000/svg" viewBox="0 0 200 200">
  <defs>
    <style>
      .cls-1 {
        fill: none;
        stroke: #045366;
        stroke-miterlimit: 10;
        stroke-width: 1.67224292px;
      }

      .cls-2 {
        fill: #e1f3f5;
      }
    </style>
  </defs>
  <circle class="cls-2" cx="100" cy="100" r="99"/>
  <g>
    <g>
      <g id="_x3C_Radial_Repeat_x3E_">
        <path class="cls-1" d="M129.41882029,79.95567314l2.96456093,3.42625485c.38879488-.34019552.4859936-.3644952.99628687-.80188943,15.21159953,9.5983735,16.57238159,36.78971515,16.57238159,36.78971515l-1.99257374,1.09348559-17.32567167-32.12417664-1.26358335-2.33276926-.77758975-1.45798079-1.60377886-3.01316029"/>
      </g>
      <g id="_x3C_Radial_Repeat_x3E_-2" data-name="_x3C_Radial_Repeat_x3E_">
        <path class="cls-1" d="M121.71582181,75.65462982l-3.57205292-.09719872-1.65237822-.04859936-2.64866509-.07289904-36.47381931-1.06918591-.07289904,2.25987022s24.22678072,12.44143603,40.14307096,4.0823462c-.1214984-.68039103-.21869712-.79041729-.31589584-1.30071057l4.51974043-.81336157"/>
      </g>
      <g id="_x3C_Radial_Repeat_x3E_-3" data-name="_x3C_Radial_Repeat_x3E_">
        <path class="cls-1" d="M129.15152381,74.22094872l1.99257374-3.20755773.87478847-1.43368111,1.38508175-2.23557054,19.14814765-31.05499073-1.9196747-1.19068431s-22.89029833,14.77420529-23.59498904,32.73166863c.65609135.21869712.28508216.41309456.77107575.60749199l-1.18417031,4.39824204"/>
      </g>
    </g>
    <path class="cls-1" d="M83.73119586,59.43589997c13.69336212,7.15033244,23.89566573-6.1077349,35.49315615,0"/>
    <path class="cls-1" d="M104.4352014,52.8779406c.44297181-.14765727.84902931-.25840023,1.29200113-.4060575,5.27874746-1.51348703,10.33600901-2.84240248,15.68858511,0"/>
    <path class="cls-1" d="M88.34558964,44.54918818c13.69336212,7.15033244,23.89566573-6.1077349,35.49315615,0"/>
    <g>
      <line class="cls-1" x1="122.28996358" y1="158.75234531" x2="124.26728818" y2="81.36505456"/>
      <polyline class="cls-1" points="127.9608395 81.14635745 128.10663758 83.62492478 130.19056843 158.75204014"/>
    </g>
    <circle class="cls-1" cx="125.88225002" cy="77.23246801" r="4.46646239"/>
  </g>
  <polyline class="cls-1" points="35.93237614 151.77521466 80.48854561 151.77521466 110.05905689 100.53454737"/>
  <line class="cls-1" x1="104.9503159" y1="109.38712671" x2="104.9503159" y2="136.99174038"/>
  <g>
    <polygon class="cls-1" points="78.15437957 146.45472523 36.50389879 146.45472523 66.56254415 94.39162426 108.21302493 94.39162426 78.15437957 146.45472523"/>
    <line class="cls-1" x1="76.97516435" y1="94.39162426" x2="46.91651899" y2="146.45472523"/>
    <line class="cls-1" x1="87.38778454" y1="94.39162426" x2="57.32913918" y2="146.45472523"/>
    <line class="cls-1" x1="97.80040474" y1="94.39162426" x2="67.74175938" y2="146.45472523"/>
    <line class="cls-1" x1="102.20129586" y1="104.80424445" x2="60.55081508" y2="104.80424445"/>
    <line class="cls-1" x1="96.18956679" y1="115.21686465" x2="54.53908601" y2="115.21686465"/>
    <line class="cls-1" x1="90.17783772" y1="125.62948484" x2="48.52735694" y2="125.62948484"/>
    <line class="cls-1" x1="84.16610864" y1="136.04210504" x2="42.51562787" y2="136.04210504"/>
  </g>
  <line class="cls-1" x1="46.91651899" y1="151.77521466" x2="46.91651899" y2="158.75219273"/>
  <line class="cls-1" x1="67.74175938" y1="151.77521466" x2="67.74175938" y2="158.75219273"/>
</svg>