<?xml version="1.0" encoding="UTF-8"?>
<svg id="Layer_1" xmlns="http://www.w3.org/2000/svg" viewBox="0 0 200 200">
  <defs>
    <style>
      .cls-1 {
        stroke-miterlimit: 10;
      }

      .cls-1, .cls-2 {
        fill: none;
        stroke: #045366;
        stroke-width: 1.67224292px;
      }

      .cls-2 {
        stroke-linejoin: bevel;
      }

      .cls-3 {
        fill: #e1f3f5;
      }
    </style>
  </defs>
  <circle class="cls-3" cx="100" cy="100" r="99"/>
  <g>
    <polyline class="cls-1" points="104.95179853 159.56005337 89.39584094 32.2870247 72.24947582 32.2870247 56.46968212 159.67043761"/>
    <line class="cls-1" x1="44.29467898" y1="159.67043761" x2="157.93232449" y2="159.67043761"/>
    <polyline class="cls-2" points="61.24757599 159.67043761 96.36796263 88.83517977 68.65794101 60.27544027 89.39584094 32.2870247"/>
    <polyline class="cls-2" points="100.59624652 159.67043761 65.47585988 88.83517977 92.81275934 60.27544027 72.24947582 32.2870247"/>
    <polygon class="cls-2" points="55.28489336 43.94352121 106.13658729 43.94352121 89.39584094 32.2870247 72.24947582 32.2870247 55.28489336 43.94352121"/>
    <path class="cls-1" d="M9.99452047,62.08657918c38.73554648,16.64900712,74.1893061,7.06422873,93.71866722-13.57188287v-4.5711751"/>
    <path class="cls-1" d="M18.3331109,46.60794911c12.98444829,5.31181975,27.07803289,7.37330327,39.68222528,1.9067472v-4.5711751"/>
  </g>
  <rect class="cls-1" x="111.89655329" y="105.43259179" width="36.59253608" height="54.23784582"/>
  <path class="cls-1" d="M103.71318769,48.51469632c10.15070625,12.52041756,44.57916761,25.60323288,80.77823556,3.66738464"/>
  <path class="cls-1" d="M58.01533618,48.51469632c9.20773287,16.16599977,72.81841387,59.55066017,134.13386411,23.87621639"/>
  <polyline class="cls-1" points="130.11418489 118.70798206 125.47463518 132.12281836 134.91100748 132.12281836 129.79963915 145.75891599"/>
  <line class="cls-1" x1="116.20985123" y1="153.00269582" x2="143.75262032" y2="153.00269582"/>
  <line class="cls-1" x1="116.20985123" y1="112.13119383" x2="143.75262032" y2="112.13119383"/>
</svg>