<?xml version="1.0" encoding="UTF-8"?><svg id="a" xmlns="http://www.w3.org/2000/svg" width="150" height="100" viewBox="0 0 150 100"><defs><style>.c{fill:none;fill-rule:evenodd;stroke:#231f20;stroke-miterlimit:2;}</style></defs><path id="b" class="c" d="M132.485,70.707l1.442-5.17,4.202-1.669.433-2.244,1.556-.479,1.373-3.161,6.639-.956-1.295-5.299-4-1.271-1.408-3.513.741-1.128-.798-1.957-5.524.469-2.54-2.638-3.838-2.106-.596.935.042.69-2.874,1.67-6.207-6.035,3.506-1.709-1.683-3.034-5.262,1.799-1.905-.337-.112-2.162-9.58-3.744-.979,1.428,2.645,5.387-5.671,5.14-7.661-9.3-1.751.445-1.821-2.131,3.476-2.394,1.747-2.669-5.737-4.823-1.602,2.171-1.642,2.201-.828-.483-2.709-1.999-.995-2.697-8.032-1.701-2.336.433-1.176-6.853-3.388-.918-3.141.418.735,4.984-3.659-.123-1.338,1.795-3.133-1.292.667-2.473-1.081-1.867-.858-2.66-5.416.359-.932,2.26,2.92,1.732-10.572,4.712-.061,1.617-7.399.951-1.92,3.723-3.038.638-2.785,2.554-3.494-.296-1.875,3.494-5.878-.576-5.858,5.68-3.772-3.213-3.353,1.886,2.898,3.669-.395,1.982,6.229,6.085-2.302,5.951,2.633,4.634,2.543.262,18.202,22.923,3.807,2.109,1.474-.176,7.061,7.211-1.113,1.118,7.159,3,1.188-1.364,3.428-2.983,3.591,3.335,2.383-6.574,3.206-.376,1.06-5.596,3.503.483,4.141-1.402,22.93,8.163,1.768-2.743,4.53.825.463,1.773,4.88.191.946,3.374,5.342-8.846,3.794,1.932,1.994-1.188,1.52,1.082,7.929-4.182.73-3.13,2.916-.419.955-3.621h0Z"/></svg>