<?xml version="1.0" encoding="UTF-8"?><svg id="a" xmlns="http://www.w3.org/2000/svg" viewBox="0 0 395.57 346.52"><defs><style>.c{fill:#8e2980;}.d{fill:#2d2d2d;}.e{fill:#fff;stroke-width:2px;}.e,.f,.g{stroke-miterlimit:10;}.e,.g{stroke:#231f20;}.f{stroke:#444;stroke-width:.75px;}.f,.g{fill:none;}.h,.i,.j{opacity:.15;}.h,.k,.l,.m,.n{fill:#fbb040;}.i,.o,.p,.q,.r{fill:#1456a5;}.s{opacity:.25;}.t{opacity:.45;}.u,.q,.m{opacity:.7;}.o,.k,.v{opacity:0;}.g{stroke-linecap:round;stroke-width:5px;}.p,.l{opacity:.5;}.n,.r{opacity:.3;}</style></defs><g><polygon class="q" points="84.81 340 46.57 273.77 8.33 340 84.81 340"/><polygon class="p" points="46.57 273.77 84.81 207.54 161.28 340 84.81 340 46.57 273.77"/><polygon class="r" points="84.81 207.54 123.05 141.31 237.77 340 161.29 340 84.81 207.54"/><polygon class="o" points="161.27 75.18 199.5 8.95 390.72 340 314.25 340 161.27 75.18"/><polygon class="i" points="123.05 141.32 161.28 75.09 314.25 340 237.77 340 123.05 141.32"/></g><g><g class="u"><polygon class="c" points="237.73 75.18 161.26 75.18 199.49 8.95 237.73 75.18"/></g><g class="t"><polygon class="c" points="161.26 75.18 123.02 141.41 275.97 141.41 237.73 75.18 161.26 75.18"/></g><g class="s"><polygon class="c" points="123.02 141.41 84.78 207.64 314.21 207.65 275.97 141.42 123.02 141.41"/></g><g class="v"><polygon class="c" points="46.62 273.8 8.38 340.03 390.69 340.11 352.45 273.88 46.62 273.8"/></g><g class="j"><polygon class="c" points="84.79 207.64 46.55 273.87 352.45 273.88 314.21 207.65 84.79 207.64"/></g></g><g><polygon class="m" points="313.51 339.12 351.74 272.89 389.98 339.12 313.51 339.12"/><polygon class="l" points="351.74 272.89 313.51 206.66 237.03 339.12 313.51 339.12 351.74 272.89"/><polygon class="n" points="313.51 206.66 275.27 140.43 160.55 339.12 237.02 339.12 313.51 206.66"/><polygon class="k" points="237.05 74.3 198.81 8.07 7.59 339.12 84.07 339.12 237.05 74.3"/><polygon class="h" points="275.27 140.43 237.03 74.2 84.07 339.12 160.54 339.12 275.27 140.43"/></g><g><path class="d" d="m183.28,178.45v2.84s-12.18-.05-12.18-.05v-2.42s5.78-6.11,5.78-6.11c.87-.96,1.48-1.75,1.82-2.37.34-.62.5-1.19.51-1.71,0-.79-.19-1.41-.58-1.87-.39-.46-.96-.69-1.7-.69-.84,0-1.48.28-1.93.85-.45.57-.67,1.28-.67,2.15h-3.53c0-1.62.56-2.99,1.67-4.13,1.11-1.14,2.62-1.71,4.53-1.7,1.86,0,3.29.46,4.28,1.37.99.9,1.48,2.13,1.48,3.7,0,1.19-.37,2.32-1.09,3.38-.72,1.07-1.67,2.21-2.86,3.44l-3.16,3.3,7.64.03Z"/><path class="d" d="m197.43,170.9v3.09c-.02,2.68-.58,4.61-1.68,5.8-1.1,1.19-2.55,1.79-4.34,1.78s-3.24-.61-4.34-1.81c-1.11-1.2-1.65-3.14-1.64-5.82v-3.09c.02-2.67.58-4.6,1.69-5.78,1.11-1.18,2.56-1.77,4.35-1.77,1.79,0,3.24.61,4.34,1.8s1.65,3.12,1.64,5.79Zm-3.54,3.55l.02-4.05c0-1.58-.21-2.68-.63-3.3-.43-.62-1.04-.94-1.83-.94-.78,0-1.39.31-1.82.93-.43.62-.65,1.72-.66,3.3l-.02,4.05c0,1.59.21,2.7.64,3.33.43.64,1.04.96,1.83.96.78,0,1.39-.31,1.82-.95s.65-1.74.65-3.33Z"/><path class="d" d="m211.96,178.56v2.84s-12.18-.05-12.18-.05v-2.42s5.78-6.11,5.78-6.11c.88-.96,1.48-1.75,1.82-2.37.34-.62.5-1.19.51-1.71,0-.79-.19-1.41-.58-1.87-.39-.46-.96-.69-1.7-.69-.84,0-1.48.28-1.93.85-.45.57-.67,1.28-.67,2.15h-3.53c0-1.62.56-2.99,1.67-4.13,1.11-1.14,2.62-1.71,4.53-1.7,1.86,0,3.29.46,4.28,1.37s1.48,2.14,1.48,3.7c0,1.19-.37,2.32-1.09,3.38-.72,1.07-1.67,2.21-2.86,3.44l-3.16,3.3,7.64.03Z"/><path class="d" d="m222.75,163.65l-.07,17.8h-3.53s.05-13.62.05-13.62l-4.2,1.29v-2.86s7.37-2.61,7.37-2.61h.38Z"/></g><g><path class="d" d="m192.88,85.94v2.84s-12.18-.05-12.18-.05v-2.42s5.78-6.11,5.78-6.11c.87-.96,1.48-1.75,1.82-2.37s.51-1.19.51-1.71c0-.79-.19-1.41-.58-1.87-.39-.46-.96-.69-1.7-.69-.84,0-1.48.28-1.93.85-.45.57-.67,1.28-.67,2.15h-3.53c0-1.62.56-2.99,1.67-4.13,1.11-1.14,2.62-1.71,4.53-1.7,1.86,0,3.29.46,4.28,1.37.99.9,1.48,2.13,1.47,3.7,0,1.19-.37,2.32-1.09,3.38-.72,1.07-1.67,2.21-2.86,3.44l-3.16,3.3,7.64.03Z"/><path class="d" d="m207.03,78.39v3.09c-.02,2.68-.58,4.61-1.68,5.8-1.1,1.19-2.55,1.79-4.34,1.78-1.79,0-3.24-.61-4.34-1.81-1.11-1.2-1.65-3.14-1.64-5.82v-3.09c.02-2.67.58-4.6,1.69-5.78,1.11-1.18,2.56-1.77,4.35-1.77,1.79,0,3.24.61,4.34,1.8,1.1,1.19,1.65,3.12,1.64,5.79Zm-3.54,3.55l.02-4.05c0-1.58-.21-2.68-.63-3.3-.43-.62-1.04-.94-1.83-.94-.78,0-1.39.31-1.82.93-.43.62-.65,1.72-.66,3.3l-.02,4.05c0,1.59.21,2.7.64,3.33.43.64,1.04.96,1.83.96.78,0,1.39-.31,1.82-.95s.65-1.74.65-3.33Z"/><path class="d" d="m221.37,78.45v3.09c-.02,2.68-.58,4.61-1.68,5.8-1.1,1.19-2.55,1.79-4.34,1.78-1.79,0-3.24-.61-4.35-1.81-1.11-1.2-1.65-3.14-1.64-5.82v-3.09c.02-2.67.58-4.6,1.69-5.78,1.11-1.18,2.56-1.77,4.35-1.76,1.79,0,3.24.61,4.34,1.8s1.65,3.12,1.64,5.79Zm-3.54,3.55l.02-4.05c0-1.58-.21-2.68-.63-3.3-.43-.62-1.04-.94-1.83-.94-.78,0-1.39.31-1.82.93s-.65,1.72-.66,3.3l-.02,4.05c0,1.59.21,2.7.64,3.33.43.64,1.04.96,1.83.96.78,0,1.39-.31,1.82-.95.43-.63.65-1.74.65-3.33Z"/><path class="d" d="m235.72,78.5v3.09c-.02,2.68-.58,4.61-1.68,5.8-1.1,1.19-2.55,1.79-4.34,1.78-1.79,0-3.24-.61-4.35-1.81-1.11-1.2-1.65-3.14-1.64-5.82v-3.09c.02-2.67.58-4.6,1.69-5.78,1.11-1.18,2.56-1.77,4.35-1.76,1.79,0,3.24.61,4.34,1.8,1.1,1.19,1.65,3.12,1.64,5.79Zm-3.54,3.55l.02-4.05c0-1.58-.21-2.68-.63-3.3-.43-.62-1.04-.94-1.83-.94-.78,0-1.39.31-1.82.93-.43.62-.65,1.72-.66,3.3l-.02,4.05c0,1.59.21,2.7.64,3.33.43.64,1.04.96,1.83.96.78,0,1.39-.31,1.82-.95.43-.63.65-1.74.65-3.33Z"/></g><g><line class="g" x1="169.88" y1="81.1" x2="168.17" y2="86.29"/><line class="g" x1="168.17" y1="86.29" x2="159.93" y2="103.69"/><line class="g" x1="159.93" y1="103.69" x2="144.12" y2="119.96"/><line class="g" x1="144.12" y1="119.96" x2="145.72" y2="123.9"/><line class="g" x1="145.72" y1="123.9" x2="149.14" y2="121.61"/><line class="g" x1="149.14" y1="121.61" x2="148.06" y2="126.05"/><line class="g" x1="148.06" y1="126.05" x2="149.99" y2="120.64"/><line class="g" x1="149.99" y1="120.64" x2="147.13" y2="129.37"/><line class="g" x1="147.13" y1="129.37" x2="146.74" y2="138.27"/><line class="g" x1="146.74" y1="138.27" x2="150" y2="140.74"/><line class="g" x1="150" y1="140.74" x2="153.13" y2="144.72"/><line class="g" x1="153.13" y1="144.72" x2="150.43" y2="155.78"/><line class="g" x1="150.43" y1="155.78" x2="151.82" y2="163.32"/><line class="g" x1="151.82" y1="163.32" x2="151.96" y2="162.86"/><line class="g" x1="151.96" y1="162.86" x2="159.16" y2="154.47"/><line class="g" x1="159.16" y1="154.47" x2="165.25" y2="144.23"/><line class="g" x1="165.25" y1="144.23" x2="157.84" y2="155.58"/><line class="g" x1="157.84" y1="155.58" x2="154.44" y2="159.01"/><line class="g" x1="154.44" y1="159.01" x2="154.58" y2="164.71"/><line class="g" x1="154.58" y1="164.71" x2="152.67" y2="176.04"/><line class="g" x1="152.67" y1="176.04" x2="153.83" y2="172.89"/></g><line class="f" x1="157.88" y1="172.89" x2="166.53" y2="172.89"/><line class="f" x1="169.88" y1="81.1" x2="178.53" y2="81.1"/><path class="e" d="m161.45,172.89c0,7.85-11.78,7.85-11.78,0s11.78-7.85,11.78,0"/></svg>