<?xml version="1.0" encoding="UTF-8"?><svg id="b" xmlns="http://www.w3.org/2000/svg" width="250" height="250" viewBox="0 0 250 250"><defs><style>.j{fill:none;stroke-width:.5px;}.j,.k,.l,.m,.n,.o,.p,.q{stroke-miterlimit:10;}.j,.r{stroke:#0c3e51;}.k{fill:#3b3c93;}.k,.l,.m,.n,.o,.p,.q{stroke:#fff;}.r{fill:#7fc9d4;stroke-miterlimit:2;stroke-width:.75px;}.l{fill:#307dc1;}.m{fill:#ef475c;}.n{fill:#814c9e;}.o{fill:#f6c34f;}.p{fill:#b6b8bd;}.q{fill:#17b0a3;}</style></defs><polyline class="j" points="26.37 56.682 81.523 56.682 104.676 72.624"/><polygon class="r" points="11.559 115.225 16.43 112.259 21.096 119.277 27.286 108.444 35.515 105.008 43.618 109.412 51.606 98.221 58.672 97.811 61.616 91.63 74.269 90.388 75.95 85.89 85.718 84.046 88.865 81.558 83.957 73.83 92.412 72.068 98.225 78.938 98.225 84.709 107.937 83.178 107.651 76.47 117.538 76.967 121.887 87.285 140.935 93.053 140.843 96.944 152.414 93.992 155.814 98.455 148.892 105.656 156.687 114.007 162.527 124.299 169.566 123.504 173.607 116.499 168.862 108.708 173.607 105.185 188.414 113.64 199.512 113.816 200.569 118.22 194.932 121.61 202.32 129.406 209.127 126.506 220.056 131.344 226.815 132.591 230.274 143.569 237.134 147.285 238.441 154.507 226.996 155.352 223.997 164.547 213.78 168.775 213.428 181.634 204.972 184.981 204.972 190.442 194.051 196.783 182.099 193.361 174.979 206.313 170.271 201.011 159.385 196.693 155.826 202.244 142.791 200.13 137.859 192.379 132.1 194.851 119.706 187.863 114.19 190.298 107.033 188.856 105.8 200.834 101.379 202.784 98.649 210.336 89.946 208.794 87.128 212.044 73.564 209.29 73.916 202.244 66.148 193.309 55.709 188.348 50.664 178.992 45.908 178.111 41.857 166.133 34.282 165.898 28.998 153.45 22.507 144.083 26.884 135.13 17.372 126.675 11.559 115.225"/><line class="j" x1="26.37" y1="51.935" x2="66.935" y2="51.935"/><polyline class="j" points="238.441 33.818 197.877 33.818 174.652 66.853"/><line class="j" x1="238.441" y1="28.924" x2="197.946" y2="28.924"/><polyline class="j" points="82.323 31.982 109.429 31.982 125 59.794"/><polyline class="j" points="46.747 152.688 86.841 152.688 118.888 121.912"/><line class="j" x1="46.747" y1="146.947" x2="82.817" y2="146.947"/><polyline class="j" points="153.711 142.853 168.393 221.864 213.288 221.864"/><line class="j" x1="213.288" y1="215.088" x2="175.593" y2="215.088"/><path id="c" class="m" d="M151.107,70.813c16.646,0,30.141,13.495,30.141,30.141,0,6.153-1.848,11.872-5.013,16.642l25.134,16.645c6.33-9.539,10.02-20.981,10.02-33.286,0-33.293-26.989-60.282-60.282-60.282v30.141Z"/><path id="d" class="k" d="M176.236,117.596c-5.398,8.134-14.635,13.5-25.129,13.5-6.908,0-13.269-2.329-18.352-6.238l-18.358,23.911c10.167,7.817,22.894,12.468,36.71,12.468,20.987,0,39.467-10.727,50.262-26.996l-25.134-16.645Z"/><path id="e" class="n" d="M120.966,100.954c0-1.573.121-3.117.353-4.624l-29.789-4.624c-.464,3.015-.706,6.104-.706,9.249,0,19.477,9.24,36.793,23.572,47.814l18.358-23.911c-7.166-5.51-11.789-14.165-11.789-23.903Z"/><path id="f" class="l" d="M121.32,96.33c.879-5.709,3.366-10.884,6.975-15.063l-22.825-19.698c-7.219,8.357-12.181,18.718-13.939,30.136l29.789,4.624Z"/><path id="g" class="q" d="M128.295,81.267c3.332-3.858,7.62-6.866,12.503-8.643l-10.31-28.332c-9.766,3.555-18.353,9.562-25.017,17.277l22.825,19.698Z"/><path id="h" class="o" d="M140.798,72.624c2.798-1.018,5.789-1.632,8.904-1.775l-1.406-30.109c-6.229.286-12.212,1.516-17.807,3.553l10.31,28.332Z"/><path id="i" class="p" d="M149.701,70.849c.466-.021.935-.036,1.406-.036v-30.141c-.943,0-1.88.025-2.813.067l1.406,30.109Z"/></svg>